<?xml version="1.0" encoding="utf-8"?>
<!-- Generator: Adobe Illustrator 27.5.0, SVG Export Plug-In . SVG Version: 6.00 Build 0)  -->
<svg xmlns="http://www.w3.org/2000/svg" xmlns:xlink="http://www.w3.org/1999/xlink" viewBox="0 0 500 500" width="595" height="842" preserveAspectRatio="xMidYMid meet" data-scaled="true">
<g id="BACKGROUND">
</g>
<g id="OBJECTS">
	<g>
		<path style="fill:#1D1D1B;" d="M51.897,356.687c3.853,3.452,11.223,5.135,16.08,6.449c5.594,1.514,11.341,2.442,17.127,2.77
			c6.446,0.365,13.077-0.016,19.64-1.103c-1.326,4.481-2.621,8.79-4.928,12.905c-2.031,3.622-5.597,6.47-7.487,10.015
			c-2.813,5.278,6.548,7.692,9.916,8.583c15.365,4.063,32.198-1.887,44.173-11.748c11.519,5.069,23.811,8.397,36.227,10.419
			c37.154,6.048,83.997,5.555,112.439-22.853c10.254-10.242,22.507-29.833,12.632-44.107c-4.189-6.055-11.387-8.369-18.258-9.862
			c-10.146-2.204-20.278-4.167-30.274-7.03c-12.335-3.534-24.562-7.872-36.486-12.998c-8.45-8.036-9.872-20.066-8.365-31.366
			c1.625-12.186,5.069-23.949,5.762-36.288c1.176-20.917-4.157-42.691-20.61-56.754c-0.416-0.356-1.202-0.115-1.353,0.41
			c-4.868,16.896-15.969,31.504-31.09,40.541c-12.194,7.288-30.781,11.277-42.26,2.886c0.007,0.019,0.014,0.039,0.021,0.058
			c-2.014-1.82-4.055-3.587-5.727-5.784c-2.58-3.39-4.183-7.088-5.479-11.113c-0.009-0.028-0.029-0.043-0.04-0.069
			c-3.049-9.257-4.692-19.055-4.44-28.798c0.143-5.541,0.868-11.071,2.284-16.434c1.316-4.984,3.184-13.135,8.619-14.975
			c6.724-2.277,11.082,8.628,13.886,12.648c1.97,2.824,4.426,5.292,7.212,7.315c5.934,4.311,13.346,6.654,20.676,6.589
			c3.93-0.035,15.593-0.955,16.554-6.244c0.575-3.166-3.545-5.492-5.389-7.352c-2.898-2.922-5.382-6.272-7.414-9.846
			c-8.419-14.81-9.375-33.81-2.198-49.294c4.523-9.758,12.493-16.456,20.444-23.372c7.787-6.775,15.008-14.109,21.685-21.977
			c0.745-0.878-0.714-1.908-1.454-1.037c-6.968,8.21-14.547,15.751-22.697,22.782c-6.667,5.752-13.309,11.497-17.724,19.236
			c-3.476,6.094-5.605,12.91-6.435,19.867c-1.68,14.081,1.907,28.92,10.521,40.267c1.339,1.765,2.799,3.427,4.373,4.985
			c2.002,1.98,6.089,3.834,2.465,7.305c-2.553,2.445-9.195,2.869-12.547,2.904c-8.963,0.092-18.047-3.508-24.171-10.121
			c-4.836-5.222-7.101-14.749-15.042-16.306c-7.461-1.463-10.04,6.527-11.892,12.141c-5.674,17.199-4.357,34.64,1.343,50.871
			c1.485,5.631,5.012,11.951,9.906,15.759c0.775,0.907,1.874,1.559,3.038,1.921c0.122,0.061,0.24,0.131,0.364,0.189
			c0.078,0.244,0.162,0.488,0.234,0.733c10.708,6.021,26.552,3.729,37.443-1.626c17.381-8.547,30.511-24.313,36.202-42.751
			c19.285,17.312,21.244,44.79,17.234,68.944c-2.474,14.903-9.02,36.012,0.684,49.379c1.485,1.575,2.971,3.148,4.528,4.654
			c0.288,0.278,0.483,0.577,0.612,0.884c0.465,0.199,0.928,0.407,1.394,0.603c0.11,0.071,0.209,0.148,0.322,0.219
			c0.127,0.08,0.254,0.095,0.367,0.073c5.116,2.142,10.263,4.159,15.425,6.014c9.323,3.351,18.814,6.233,28.426,8.63
			c8.858,2.209,18.242,3.183,26.889,6.102c9.455,3.191,13.343,9.251,13.815,16.255c-0.081,0.035-0.159,0.085-0.225,0.173
			c-7.738,10.247-20.793,15.441-33.478,13.192c-12.299-2.181-19.326-11.907-27.794-20.03c-5.589-5.361-12.284-9.993-20.41-9.005
			c-11.357,1.381-18.75,12.181-28.261,17.375c-15.37,8.394-32.914,7.124-48.4,0.541c-0.019-0.01-0.039-0.017-0.059-0.025
			c-0.185-0.079-0.366-0.167-0.55-0.248c-0.364,0.321-0.725,0.647-1.097,0.951c-0.157,0.134-0.319,0.261-0.477,0.394
			c0.099,0.044,0.195,0.094,0.294,0.137c-9.511,8.295-20.394,14.654-32.006,18.569c-0.082,0.164-0.196,0.311-0.318,0.452
			c-4.541,0.516-9.142,1.425-13.445,2.951c-11.649,1.884-23.739,1.329-35.691-2.149c-3.33-0.969-7.565-1.955-10.484-3.884
			c-2.953-1.952-4.175-5.53-0.576-7.442c2.084-1.108,4.331-1.98,6.467-2.989c7.034-3.321,13.984-6.885,20.411-11.288
			c2.194-1.503,4.321-3.119,6.354-4.841c0.015,0.027,0.031,0.054,0.047,0.081c0.046-0.032,0.091-0.066,0.137-0.099
			c0.444-0.314,0.894-0.62,1.343-0.927c-0.05-0.086-0.099-0.173-0.147-0.26c7.625-6.801,13.71-15.211,16.491-25.185
			c0.003,0.004,0.006,0.009,0.009,0.013c0.213-0.707,0.433-1.412,0.657-2.117c-8.262-12.122-14.871-25.498-20.075-38.803
			c-9.924-25.373-14.529-52.612-13.741-79.83c0.008-0.277-0.101-0.489-0.263-0.638c2.732-7.283,6.278-14.259,10.798-20.731
			c5.759-8.247,12.627-15.629,18.748-23.596c5.775-7.516,10.324-15.63,14.349-24.192c4.649-9.891,8.826-20.092,15.051-29.137
			c5.123-7.443,11.48-14.029,18.655-19.514c15.174-11.6,33.972-18.271,53.07-18.656c0.497-0.01,0.592-0.779,0.081-0.783
			c-8.673-0.079-17.269,1.033-25.594,3.504c-16.221,4.814-31.041,14.395-42.093,27.208c-13.621,15.793-18.6,36.382-29.95,53.554
			c-10.952,16.569-25.817,29.784-33.573,48.446c-7.233,17.402-9.345,36.545-8.787,55.256c0.962,32.316,8.322,66.03,23.871,94.743
			c-4.946,4.233-10.509,7.855-16.255,10.975c-5.986,3.25-13.092,5.404-18.67,9.254C50.797,351.055,48.991,354.083,51.897,356.687z
			 M88.212,324.662c-16.435-32.473-24.206-71.882-21.523-108.172c0.743-10.046,2.548-20.014,5.67-29.524
			c-0.498,29.899,5.623,59.707,17.987,86.966c4.379,9.653,9.543,19.361,15.618,28.453c-0.058,0.08-0.11,0.167-0.141,0.284
			c-2.67,10.133-8.558,18.338-16.015,25.062C89.265,326.713,88.733,325.69,88.212,324.662z M121.425,367.242
			c-1.942-1.59-3.819-3.251-5.643-4.964c12.979-3.865,25.058-10.707,34.087-20.511c16.906,7.044,36.59,7.847,52.491-2.297
			c10.119-6.456,19.758-19.679,33.295-14.655c9.931,3.686,16.051,13.92,23.901,20.526c14.605,12.29,38.51,9.965,49.589-5.889
			c-0.086,11.626-8.788,25.358-16.872,32.909c-0.676,0.631-1.374,1.229-2.07,1.831c-11.076,2.875-21.951,4.548-33.159,0.547
			c-2.011-0.718-3.913-1.605-5.706-2.625c1.79-2.188,2.841-4.789,3.697-7.5c0.139-0.439-0.195-0.883-0.668-0.814
			c-3.649,0.533-7.298,1.065-10.947,1.598l3.069-10.516c0.143-0.488-0.202-0.894-0.702-0.857c-2.912,0.215-5.766,0.672-8.568,1.44
			c-0.772-2.217-1.309-4.562-1.564-7.026c-0.114-1.102-1.712-0.777-1.664,0.278c0.118,2.617,0.575,5.066,1.297,7.361
			c-0.339,0.311-0.107,1.012,0.358,1.062c3.044,8.453,9.938,14.596,18.31,18.207c-0.023,0.082-0.03,0.175-0.015,0.277
			c0.436,1.948,0.287,3.85-0.446,5.707c-0.149,0.471,0.206,0.902,0.696,0.849c2.702-0.293,5.343-0.784,7.896-1.737
			c1.117-0.417,2.677-1.739,3.678-0.727c0.389,0.392,0.252,4.512,0.279,5.085c0.014,0.292,0.398,0.458,0.636,0.336
			c3.434-1.76,6.706-3.737,9.71-6.14c3.677-0.293,7.272-1.019,10.627-2.2c-14.418,11.095-32.425,16.454-50.452,18.267
			c-20.429,2.055-41.763,0.875-61.857-3.373C155.373,387.602,136.794,379.827,121.425,367.242z M269.174,382.806
			c-2.235,0.881-2.011,0.876-2.366-1.487c-0.117-0.783-0.106-1.692-0.108-2.553c2.793,0.345,5.613,0.45,8.398,0.306
			C273.223,380.508,271.259,381.984,269.174,382.806z M254.927,380.835c0.421-1.653,0.524-3.216,0.32-4.947
			c2.821,1.11,5.788,1.936,8.817,2.48C261.135,379.658,258.146,380.489,254.927,380.835z M237.674,356.67
			c2.424-0.589,4.849-1.034,7.343-1.282c-0.889,3.076-1.778,6.151-2.667,9.227C240.402,362.242,238.828,359.576,237.674,356.67z
			 M244.094,366.554c3.152-0.469,6.305-0.937,9.457-1.406c-0.812,2.272-1.872,4.404-2.859,6.602
			C248.244,370.285,246.031,368.54,244.094,366.554z M106.282,364.93c0.021-0.143-0.009-0.263-0.059-0.373
			c2.552-0.466,5.09-1.033,7.599-1.718c5.023,4.806,10.461,9.176,16.32,12.982c4.754,3.089,9.732,5.775,14.869,8.112
			c-12.322,7.897-25.576,14.324-40.673,11.075c-3.325-0.715-11.944-2.618-9.155-7.92c1.285-2.442,3.776-4.573,5.25-6.989
			C103.251,375.483,105.48,370.296,106.282,364.93z"/>
		<path style="fill:#1D1D1B;" d="M241.867,348.082c0.4,0.675-0.709,1.379-1.166,0.739c-3.595-5.026-11.116-2.88-11.17,3.394
			c-0.01,1.141-1.744,0.938-1.756-0.182C227.689,344.184,237.898,341.389,241.867,348.082z"/>
		<path style="fill:#1D1D1B;" d="M265.352,323.741c5.437,0.136,9.71,6.517,7.209,11.479c-0.25,0.496-0.981,0.236-0.815-0.31
			c1.241-4.07-1.39-9.24-5.921-9.646c-5.209-0.467-8.397,5.811-6.407,10.133c0.44,0.956-1.025,1.633-1.48,0.687
			C255.446,330.909,259.263,323.589,265.352,323.741z"/>
		<path style="fill:#1D1D1B;" d="M252.695,318.022c1.292-0.847,3.559-1.453,4.78-0.227c0.373,0.374,0.043,0.949-0.39,1.052
			c-1.198,0.285-2.255-0.035-3.444,0.559c-1.206,0.602-2.312,1.742-2.588,3.106c-0.095,0.471-0.744,0.405-0.742-0.077
			C250.321,320.608,251.138,319.043,252.695,318.022z"/>
		<path style="fill:#1D1D1B;" d="M202.606,322.064c0.278,0.601,0.921,0.596,1.332,0.292c0.025,0.355,0.049,0.711,0.094,1.065
			c0.095,0.734,1.34,0.709,1.316-0.041c-0.248-7.924,2.714-14.393,9.031-19.267c0.221-0.17,0.172-0.462,0.015-0.635
			c-0.01-0.201-0.134-0.387-0.384-0.389C204.18,303.026,198.652,313.509,202.606,322.064z M203.892,320.454
			c-2.641-7.137,1.549-13.93,8.52-16.072C207.367,308.032,204.093,314.209,203.892,320.454z"/>
		<path style="fill:#1D1D1B;" d="M188.053,320.943c0.272,0.497,0.776,0.507,1.107,0.263c0.288,0.074,0.678-0.101,0.738-0.444
			c0.961-5.527,1.697-10.815,4.058-15.983c2.537-5.551,6.191-10.149,10.41-14.505c0.239-0.247,0.142-0.585-0.072-0.73
			c0.136-0.352-0.161-0.846-0.615-0.78C189.509,290.797,181.282,308.567,188.053,320.943z M188.862,318.429
			c-3.502-12.724,2.044-22.934,14.2-28.208C195.328,296.97,189.33,307.972,188.862,318.429z"/>
		<path style="fill:#1D1D1B;" d="M168.937,306.085c0.167,0.493,0.874,0.507,1.199,0.182c0.227-0.06,0.432-0.23,0.509-0.554
			c2.413-10.23,8.274-17.784,16.238-24.209c0.012-0.004,0.023-0.008,0.034-0.012c0.167-0.051,0.268-0.155,0.322-0.274
			c0.22-0.175,0.435-0.353,0.659-0.527c0.383-0.298-0.03-0.966-0.459-0.725c-0.363,0.204-0.712,0.428-1.066,0.646
			C175.304,281.526,165.29,295.287,168.937,306.085z M170.29,302.016c0.137-3.931,0.858-7.516,3.227-11.136
			c2.467-3.771,5.749-6.264,9.625-7.987C177.102,287.734,172.707,294.685,170.29,302.016z"/>
	</g>
	<path style="fill:#1D1D1B;" d="M391.689,165.564c-0.012,0.084-0.032,0.166-0.045,0.249c-0.296,0.002-0.594,0.149-0.72,0.501
		c-2.498,6.969-11.107,8.574-17.327,5.959c-6.619-2.783-10.908-9.074-14.835-14.776c-0.303-0.441-1.182-0.483-1.285,0.168
		c-0.791,4.97-1.609,10.315-4.874,14.33c-3.795,4.666-9.902,6.064-15.662,4.852c-10.364-2.18-16.407-11.77-20.676-20.652
		c-0.273-0.568-1.163-0.275-1.157,0.313c0.089,7.894-3.409,16.375-11.125,19.574c-7.487,3.104-16.782-0.929-18.824-8.946
		c-0.14-0.551-0.967-0.317-0.848,0.234c0.051,0.233,0.127,0.453,0.19,0.68c0.466,8.655,8.719,15.941,17.379,15.55
		c8.188-0.37,14.605-7.097,15.925-14.843c4.545,8.981,13.172,16.473,23.712,16.176c8.82-0.248,16.906-6.255,19.216-14.601
		c2.71,6.682,9.371,11.588,16.857,11.031c8.327-0.62,14.659-7.536,15.555-15.602C393.238,164.938,391.803,164.735,391.689,165.564z
		 M376.905,179.752c-7.772,0.255-14.202-5.878-15.582-13.233c-0.181-0.963-1.563-0.659-1.622,0.219
		c-0.661,9.775-9.967,16.883-19.506,16.551c-10.318-0.359-18.526-8.727-22.158-17.807c-0.312-0.781-1.573-0.753-1.561,0.211
		c0.104,8.382-6.544,16.379-15.266,16.464c-6.499,0.063-11.565-3.973-14.265-9.368c3.594,4.408,9.912,6.48,15.623,5.045
		c8.483-2.13,13.027-10.68,13.689-18.893c4.85,9.379,11.975,18.745,23.311,19.589c12.27,0.913,17.041-8.524,18.984-18.873
		c4.536,6.533,10.073,13.792,18.343,15.093c5.015,0.789,10.263-0.704,13.392-4.435C387.889,175.552,382.929,179.555,376.905,179.752
		z"/>
	<path style="fill:#1D1D1B;" d="M364.032,284.244c-0.011,0.084-0.032,0.166-0.045,0.249c-0.296,0.002-0.594,0.149-0.72,0.501
		c-2.498,6.969-11.107,8.574-17.327,5.959c-6.619-2.783-10.908-9.074-14.835-14.776c-0.304-0.441-1.182-0.483-1.285,0.168
		c-0.791,4.97-1.609,10.315-4.874,14.33c-3.795,4.666-9.902,6.064-15.662,4.852c-10.364-2.18-16.407-11.77-20.676-20.652
		c-0.273-0.568-1.163-0.275-1.157,0.313c0.089,7.894-3.409,16.375-11.125,19.574c-7.487,3.104-16.782-0.929-18.824-8.946
		c-0.14-0.551-0.967-0.317-0.848,0.234c0.051,0.233,0.127,0.453,0.19,0.68c0.466,8.655,8.719,15.941,17.379,15.55
		c8.188-0.37,14.605-7.098,15.925-14.843c4.544,8.981,13.172,16.473,23.712,16.176c8.82-0.248,16.906-6.255,19.216-14.6
		c2.71,6.682,9.371,11.588,16.857,11.031c8.328-0.62,14.659-7.536,15.555-15.602C365.581,283.619,364.147,283.416,364.032,284.244z
		 M349.248,298.433c-7.772,0.255-14.202-5.878-15.582-13.233c-0.181-0.963-1.563-0.659-1.622,0.22
		c-0.661,9.776-9.968,16.883-19.506,16.551c-10.318-0.359-18.526-8.727-22.158-17.807c-0.312-0.781-1.573-0.753-1.561,0.211
		c0.104,8.382-6.544,16.379-15.266,16.464c-6.499,0.064-11.565-3.973-14.265-9.368c3.595,4.408,9.912,6.48,15.623,5.045
		c8.483-2.131,13.028-10.681,13.689-18.893c4.85,9.379,11.975,18.745,23.311,19.589c12.27,0.913,17.041-8.524,18.984-18.873
		c4.536,6.534,10.073,13.793,18.343,15.094c5.015,0.789,10.264-0.704,13.392-4.435C360.232,294.233,355.273,298.236,349.248,298.433
		z"/>
	<path style="fill:#1D1D1B;" d="M321.284,104.552c-3.745,6.261-10.974,10.378-18.366,8.38c-7.279-1.968-11.773-9.199-11.478-16.494
		c0.045-1.113-1.651-1.099-1.722,0c-0.693,10.746-9.941,20.356-20.99,20.306c-11.055-0.049-20.209-9.744-20.809-20.497
		c-0.05-0.9-1.536-1.234-1.68-0.227c-1.484,10.429-11.639,17.905-22.054,16.851c-10.648-1.078-18.692-9.907-21.474-19.813
		c-0.225-0.802-1.485-0.658-1.469,0.199c0.285,15.329-13.744,25.135-28.176,21.195c-0.323-0.088-0.465,0.313-0.261,0.499
		c-0.091,0.151-0.077,0.354,0.132,0.477c6.042,3.534,13.692,3.188,19.852,0.072c2.944-1.49,5.355-3.585,7.397-6.159
		c1.876-2.365,1.37-0.645,2.938,1.708c1.079,1.618,2.331,3.1,3.746,4.435c11.536,10.884,31.794,8.669,39.4-5.648
		c7.503,14.519,27.987,16.818,39.763,6.038c1.282-1.173,2.207-2.724,3.461-3.877c1.716-1.577,0.437-1.249,2.125-0.506
		c1.072,0.471,2.087,1.965,3.066,2.727c3.072,2.391,6.591,4.245,10.48,4.799c8.839,1.258,14.819-4.341,16.95-12.492
		c0.05-0.191,0.016-0.353-0.055-0.49c0.14-0.261,0.287-0.517,0.413-0.786C322.844,104.455,321.748,103.777,321.284,104.552z
		 M306.643,117.734c-6.356-0.3-11.568-4.606-15.717-9.028c-0.318-0.339-0.893-0.24-1.122,0.145
		c-4.566,7.686-12.876,12.838-21.948,12.635c-9.063-0.202-16.169-5.492-21.058-12.708c0.03-0.064,0.065-0.125,0.095-0.19
		c0.296-0.647-0.457-1.194-0.929-0.798c-0.251-0.019-0.493,0.233-0.396,0.537c-4.984,7.783-12.686,13.332-22.342,12.94
		c-9.485-0.385-17.654-6.654-21.374-15.201c-0.182-0.419-0.837-0.364-1.036,0c-4.538,8.323-13.72,11.875-22.507,10.233
		c11.824,1.3,22.443-7.408,24.175-19.322c3.776,9.241,11.965,16.871,22.282,17.598c9.521,0.671,18.833-5.284,22.094-14.069
		c2.468,9.857,11.331,17.905,21.869,17.952c10.065,0.045,18.654-7.225,21.634-16.442c1.589,5.88,5.985,10.942,12.1,12.567
		c6.148,1.634,12.814-0.525,17.069-5.043C317.2,114.668,312.899,118.029,306.643,117.734z"/>
	<path style="fill:#1D1D1B;" d="M454.742,248.823c-3.745,6.261-10.975,10.378-18.366,8.38c-7.279-1.968-11.773-9.199-11.478-16.494
		c0.045-1.113-1.651-1.099-1.722,0c-0.693,10.746-9.941,20.356-20.99,20.306c-11.055-0.049-20.209-9.744-20.809-20.497
		c-0.05-0.9-1.536-1.234-1.68-0.227c-1.484,10.429-11.639,17.905-22.054,16.851c-10.648-1.078-18.692-9.907-21.474-19.813
		c-0.225-0.802-1.485-0.658-1.469,0.199c0.285,15.329-13.744,25.135-28.177,21.195c-0.323-0.088-0.465,0.313-0.26,0.499
		c-0.091,0.151-0.077,0.354,0.132,0.477c6.042,3.534,13.692,3.188,19.852,0.072c2.944-1.49,5.355-3.585,7.397-6.159
		c1.876-2.365,1.37-0.645,2.938,1.708c1.079,1.618,2.331,3.1,3.746,4.435c11.536,10.884,31.794,8.669,39.4-5.648
		c7.503,14.519,27.987,16.818,39.763,6.038c1.282-1.173,2.207-2.724,3.461-3.877c1.716-1.577,0.437-1.248,2.126-0.506
		c1.072,0.472,2.087,1.965,3.066,2.727c3.072,2.391,6.59,4.245,10.48,4.799c8.839,1.258,14.819-4.341,16.95-12.492
		c0.05-0.191,0.016-0.353-0.055-0.49c0.14-0.261,0.287-0.516,0.413-0.786C456.302,248.727,455.206,248.048,454.742,248.823z
		 M440.101,262.005c-6.356-0.3-11.568-4.606-15.717-9.028c-0.318-0.339-0.893-0.24-1.122,0.145
		c-4.566,7.686-12.876,12.838-21.948,12.635c-9.063-0.202-16.169-5.492-21.058-12.708c0.03-0.064,0.065-0.125,0.095-0.19
		c0.296-0.647-0.457-1.194-0.929-0.798c-0.251-0.019-0.493,0.233-0.396,0.537c-4.985,7.783-12.686,13.332-22.342,12.94
		c-9.485-0.385-17.654-6.654-21.374-15.201c-0.182-0.419-0.837-0.364-1.036,0c-4.538,8.323-13.72,11.874-22.507,10.233
		c11.824,1.3,22.443-7.408,24.175-19.322c3.776,9.241,11.965,16.871,22.282,17.598c9.521,0.671,18.833-5.284,22.094-14.069
		c2.468,9.857,11.331,17.905,21.869,17.952c10.065,0.045,18.654-7.225,21.634-16.442c1.589,5.88,5.985,10.942,12.1,12.567
		c6.148,1.634,12.814-0.525,17.068-5.043C450.658,258.939,446.357,262.301,440.101,262.005z"/>
	<path style="fill:#1D1D1B;" d="M333.15,427.371c-3.745,6.261-10.975,10.378-18.366,8.38c-7.279-1.968-11.773-9.199-11.478-16.494
		c0.045-1.113-1.651-1.098-1.722,0c-0.693,10.746-9.941,20.356-20.99,20.306c-11.055-0.049-20.209-9.744-20.809-20.497
		c-0.05-0.9-1.536-1.234-1.68-0.227c-1.484,10.429-11.639,17.905-22.055,16.851c-10.648-1.078-18.692-9.907-21.474-19.813
		c-0.225-0.802-1.485-0.658-1.469,0.199c0.285,15.329-13.744,25.135-28.176,21.195c-0.323-0.088-0.465,0.313-0.26,0.499
		c-0.091,0.151-0.077,0.354,0.132,0.477c6.042,3.534,13.692,3.188,19.852,0.072c2.944-1.49,5.355-3.585,7.397-6.159
		c1.876-2.365,1.37-0.645,2.938,1.708c1.079,1.618,2.331,3.1,3.746,4.435c11.536,10.884,31.794,8.669,39.4-5.648
		c7.503,14.519,27.987,16.818,39.763,6.038c1.282-1.173,2.207-2.724,3.461-3.877c1.716-1.577,0.437-1.249,2.125-0.506
		c1.072,0.471,2.087,1.965,3.066,2.727c3.072,2.391,6.591,4.245,10.48,4.799c8.839,1.258,14.819-4.341,16.95-12.492
		c0.05-0.191,0.016-0.353-0.055-0.49c0.14-0.261,0.287-0.517,0.413-0.786C334.71,427.274,333.614,426.596,333.15,427.371z
		 M318.509,440.553c-6.356-0.3-11.568-4.606-15.717-9.028c-0.318-0.339-0.893-0.24-1.122,0.145
		c-4.566,7.686-12.876,12.838-21.948,12.635c-9.063-0.202-16.169-5.492-21.058-12.708c0.03-0.064,0.065-0.125,0.095-0.19
		c0.296-0.647-0.457-1.194-0.929-0.798c-0.251-0.019-0.493,0.233-0.396,0.537c-4.984,7.783-12.686,13.332-22.342,12.94
		c-9.485-0.385-17.654-6.654-21.374-15.201c-0.182-0.419-0.837-0.364-1.036,0c-4.538,8.323-13.72,11.875-22.507,10.233
		c11.824,1.3,22.443-7.408,24.175-19.322c3.776,9.241,11.965,16.871,22.282,17.598c9.521,0.671,18.833-5.284,22.094-14.069
		c2.468,9.857,11.331,17.905,21.869,17.952c10.065,0.045,18.654-7.225,21.634-16.442c1.589,5.88,5.985,10.942,12.1,12.567
		c6.148,1.634,12.814-0.525,17.069-5.043C329.066,437.487,324.765,440.848,318.509,440.553z"/>
	<path style="fill:#1D1D1B;" d="M419.054,363.213c-8.845-0.87-12.498-16.121-14.725-22.956c-0.177-0.542-1.057-0.785-1.337-0.175
		c-4.162,9.095-10.148,21.26-21.931,20.98c-11.349-0.269-17.74-11.418-22.497-20.158c-0.233-0.428-1.053-0.392-1.128,0.147
		c-0.984,7.105-2.327,14.735-7.63,20.018c-5.837,5.817-16.108,6.356-19.749-2.168c-0.154-0.361-0.678-0.218-0.787,0.092
		c-0.065,0.063-0.112,0.145-0.093,0.262c1.252,7.881,9.759,12.816,17.389,11.619c7.833-1.229,13.086-7.954,14.771-15.306
		c3.493,8.963,12.721,15.407,22.583,14.365c9.322-0.985,16.731-8.223,18.961-17.029c2.503,6.573,7.994,11.552,15.077,13.11
		c0.823,0.181,1.17-1.039,0.35-1.268c-7.648-2.133-13.229-7.855-14.839-15.678c-0.199-0.968-1.544-0.651-1.62,0.219
		c-0.866,9.94-9.085,18.733-19.303,19.145c-9.829,0.397-18.453-6.984-20.728-16.295c-0.21-0.858-1.4-0.604-1.464,0.198
		c-0.6,7.526-5.225,14.94-12.859,16.968c-6.09,1.617-12.057-1.165-15.531-5.944c3.399,3.233,8.742,4.095,13.323,2.205
		c8.935-3.685,11.712-13.693,13.081-22.447c4.88,8.839,11.522,19.039,22.692,19.315c11.638,0.287,18.058-10.677,22.432-19.97
		c2.528,8.155,6.241,21.269,15.561,22.17C419.964,364.721,419.956,363.302,419.054,363.213z"/>
	<g>
		<path style="fill:#1D1D1B;" d="M250.768,246.959c0.145-0.201,0.015-0.53-0.281-0.561c-6.579-0.699-12.581,5.708-13.124,11.969
			c-0.576,6.643,5.034,12.814,11.606,13.386c6.63,0.577,12.305-5.174,12.702-11.63C262.073,253.566,256.931,248.116,250.768,246.959
			z M248.011,270.095c-5.529-1.177-9.844-6.501-9.007-12.203c0.816-5.56,4.889-8.489,9.649-10.183
			c0.068,0.09,0.163,0.161,0.302,0.182c5.645,0.851,11.018,4.871,11.276,11.029C260.499,265.322,254.581,271.494,248.011,270.095z"
			/>
		<path style="fill:#1D1D1B;" d="M250,250c-0.839-0.126-1.199,1.158-0.354,1.283c3.572,0.529,6.437,3.566,6.825,7.175
			c0.049,0.453,0.708,0.474,0.721,0C257.314,254.236,254.18,250.629,250,250z"/>
	</g>
	<g>
		<path style="fill:#1D1D1B;" d="M276.36,207.902c0.145-0.201,0.015-0.53-0.281-0.561c-6.579-0.698-12.581,5.708-13.124,11.969
			c-0.576,6.643,5.034,12.814,11.606,13.386c6.63,0.577,12.305-5.174,12.702-11.63C287.665,214.508,282.523,209.059,276.36,207.902z
			 M273.603,231.038c-5.53-1.177-9.844-6.501-9.007-12.203c0.815-5.56,4.889-8.489,9.649-10.183c0.069,0.09,0.163,0.161,0.303,0.182
			c5.645,0.851,11.018,4.871,11.276,11.029C286.091,226.265,280.173,232.436,273.603,231.038z"/>
		<path style="fill:#1D1D1B;" d="M275.592,210.943c-0.839-0.126-1.198,1.158-0.354,1.283c3.572,0.529,6.437,3.566,6.825,7.175
			c0.049,0.452,0.708,0.474,0.721,0C282.906,215.178,279.771,211.572,275.592,210.943z"/>
	</g>
	<g>
		<path style="fill:#1D1D1B;" d="M307.429,58.611c0.145-0.201,0.015-0.53-0.281-0.561c-6.579-0.699-12.581,5.708-13.124,11.969
			c-0.576,6.644,5.034,12.814,11.606,13.386c6.63,0.577,12.305-5.174,12.702-11.63C318.734,65.218,313.593,59.768,307.429,58.611z
			 M304.672,81.747c-5.53-1.177-9.844-6.501-9.007-12.203c0.816-5.56,4.889-8.489,9.649-10.183c0.069,0.09,0.163,0.161,0.302,0.182
			c5.645,0.851,11.018,4.871,11.276,11.029C317.161,76.974,311.243,83.146,304.672,81.747z"/>
		<path style="fill:#1D1D1B;" d="M306.662,61.652c-0.839-0.126-1.199,1.158-0.354,1.283c3.572,0.529,6.437,3.566,6.825,7.175
			c0.049,0.453,0.708,0.474,0.721,0C313.976,65.887,310.841,62.281,306.662,61.652z"/>
	</g>
	<g>
		<path style="fill:#1D1D1B;" d="M366.755,383.937c0.145-0.201,0.015-0.53-0.281-0.561c-6.579-0.698-12.581,5.708-13.124,11.969
			c-0.576,6.643,5.034,12.814,11.606,13.386c6.63,0.577,12.305-5.174,12.702-11.629C378.06,390.544,372.918,385.095,366.755,383.937
			z M363.998,407.074c-5.53-1.177-9.844-6.501-9.007-12.203c0.816-5.56,4.889-8.489,9.649-10.183
			c0.069,0.09,0.163,0.161,0.302,0.181c5.645,0.851,11.018,4.871,11.276,11.029C376.486,402.3,370.568,408.472,363.998,407.074z"/>
		<path style="fill:#1D1D1B;" d="M365.987,386.978c-0.839-0.126-1.198,1.158-0.354,1.283c3.572,0.529,6.437,3.566,6.825,7.175
			c0.049,0.452,0.708,0.474,0.721,0C373.302,391.214,370.167,387.607,365.987,386.978z"/>
	</g>
	<g>
		<path style="fill:#1D1D1B;" d="M239.426,151.266c-0.772-4.083-4.816-7.149-8.884-7.022c-0.045-0.051-0.106-0.09-0.188-0.096
			c-4.888-0.354-8.996,4.603-8.673,9.316c0.335,4.894,5.238,8.875,10.083,8.275C236.57,161.145,240.327,156.032,239.426,151.266z
			 M231.584,160.409c-4.121,0.464-8.339-2.808-8.6-7.032c-0.25-4.041,2.478-6.747,5.869-8.149c3.84-0.235,7.843,1.458,9.095,5.428
			C239.291,154.914,235.995,159.912,231.584,160.409z"/>
		<path style="fill:#1D1D1B;" d="M233.924,148.864c-1.035-0.934-2.924-2.052-4.315-1.329c-0.217,0.112-0.226,0.475,0,0.585
			c0.505,0.246,0.993,0.273,1.531,0.419c0.744,0.203,1.429,0.595,2.004,1.105c1.056,0.936,1.894,2.356,1.983,3.789
			c0.023,0.369,0.543,0.367,0.572,0C235.838,151.66,235.268,150.077,233.924,148.864z"/>
	</g>
	<g>
		<path style="fill:#1D1D1B;" d="M388.131,95.918c-0.772-4.083-4.816-7.149-8.884-7.022c-0.045-0.051-0.106-0.09-0.188-0.096
			c-4.888-0.354-8.996,4.603-8.673,9.316c0.335,4.894,5.238,8.876,10.083,8.276C385.275,105.797,389.032,100.684,388.131,95.918z
			 M380.289,105.061c-4.121,0.464-8.339-2.808-8.6-7.032c-0.25-4.041,2.478-6.747,5.869-8.149c3.84-0.235,7.843,1.457,9.095,5.428
			C387.996,99.566,384.699,104.564,380.289,105.061z"/>
		<path style="fill:#1D1D1B;" d="M382.629,93.516c-1.035-0.934-2.924-2.052-4.315-1.329c-0.216,0.113-0.226,0.476,0,0.585
			c0.505,0.246,0.993,0.273,1.531,0.419c0.744,0.203,1.429,0.595,2.004,1.105c1.056,0.936,1.894,2.356,1.983,3.789
			c0.023,0.369,0.544,0.367,0.572,0C384.543,96.312,383.973,94.729,382.629,93.516z"/>
	</g>
	<g>
		<path style="fill:#1D1D1B;" d="M419.179,197.791c-0.772-4.083-4.816-7.149-8.884-7.022c-0.045-0.051-0.106-0.09-0.188-0.096
			c-4.889-0.354-8.996,4.603-8.673,9.316c0.335,4.894,5.238,8.876,10.083,8.276C416.323,207.67,420.08,202.557,419.179,197.791z
			 M411.337,206.933c-4.121,0.464-8.339-2.808-8.6-7.032c-0.25-4.041,2.478-6.747,5.869-8.149c3.84-0.235,7.843,1.457,9.095,5.428
			C419.044,201.439,415.747,206.437,411.337,206.933z"/>
		<path style="fill:#1D1D1B;" d="M413.677,195.389c-1.035-0.934-2.924-2.052-4.315-1.329c-0.217,0.113-0.226,0.475,0,0.585
			c0.505,0.246,0.993,0.273,1.531,0.419c0.744,0.203,1.429,0.595,2.004,1.105c1.056,0.936,1.894,2.356,1.983,3.789
			c0.023,0.369,0.544,0.367,0.572,0C415.591,198.185,415.021,196.601,413.677,195.389z"/>
	</g>
	<g>
		<path style="fill:#1D1D1B;" d="M445.946,309.773c-0.772-4.083-4.816-7.149-8.884-7.022c-0.045-0.051-0.106-0.09-0.188-0.096
			c-4.888-0.354-8.996,4.603-8.673,9.316c0.335,4.894,5.238,8.876,10.083,8.276C443.089,319.652,446.847,314.539,445.946,309.773z
			 M438.104,318.915c-4.121,0.464-8.339-2.808-8.6-7.032c-0.25-4.041,2.478-6.747,5.869-8.149c3.84-0.235,7.843,1.458,9.095,5.428
			C445.811,313.421,442.514,318.419,438.104,318.915z"/>
		<path style="fill:#1D1D1B;" d="M440.444,307.371c-1.035-0.934-2.924-2.052-4.315-1.329c-0.217,0.113-0.226,0.475,0,0.585
			c0.505,0.246,0.993,0.273,1.53,0.419c0.744,0.203,1.429,0.595,2.004,1.105c1.056,0.936,1.894,2.356,1.983,3.789
			c0.023,0.369,0.544,0.367,0.572,0C442.357,310.167,441.788,308.584,440.444,307.371z"/>
	</g>
	<g>
		<path style="fill:#1D1D1B;" d="M169.549,418.254c-0.154-0.091-0.308-0.168-0.446-0.221c-0.552-0.213-1.137-0.244-1.693-0.112
			c-2.305-0.232-4.378,2.709-4.61,4.726c-0.321,2.796,1.842,4.997,4.526,5.347c2.619,0.342,5.14-1.164,5.617-3.851
			C173.374,421.711,172.106,418.817,169.549,418.254z M171.926,423.65c-0.243,2.236-2.222,3.519-4.38,3.264
			c-2.208-0.261-4.046-2.036-3.646-4.372c0.189-1.107,0.832-2.101,1.673-2.826c0.675-0.583,1.45-0.806,2.232-1.125
			c0.341-0.039,0.689,0,1.021,0.133c0.63,0.251,0.837,0.763,1.32,1.158c0.158,0.129,0.352,0.06,0.412-0.115
			C171.527,420.8,172.086,422.177,171.926,423.65z"/>
		<path style="fill:#1D1D1B;" d="M170.095,420.828c-0.607-0.935-1.62-1.634-2.76-1.451c-0.349,0.056-0.315,0.592,0,0.672
			c0.85,0.215,1.59,0.536,2.105,1.281c0.48,0.695,0.75,1.661,0.468,2.482c-0.069,0.201,0.255,0.342,0.347,0.146
			C170.749,422.908,170.745,421.828,170.095,420.828z"/>
	</g>
	<g>
		<path style="fill:#1D1D1B;" d="M283.087,410.659c-0.154-0.091-0.307-0.167-0.446-0.221c-0.552-0.213-1.137-0.244-1.693-0.112
			c-2.305-0.232-4.378,2.709-4.61,4.726c-0.321,2.796,1.842,4.997,4.526,5.347c2.619,0.342,5.14-1.164,5.617-3.851
			C286.913,414.116,285.645,411.222,283.087,410.659z M285.465,416.055c-0.243,2.236-2.222,3.519-4.38,3.264
			c-2.207-0.261-4.046-2.036-3.646-4.372c0.189-1.107,0.832-2.101,1.673-2.826c0.675-0.583,1.45-0.806,2.232-1.125
			c0.341-0.038,0.689,0,1.022,0.133c0.63,0.251,0.837,0.763,1.32,1.158c0.158,0.129,0.352,0.06,0.412-0.115
			C285.066,413.205,285.625,414.583,285.465,416.055z"/>
		<path style="fill:#1D1D1B;" d="M283.634,413.233c-0.607-0.935-1.62-1.634-2.76-1.451c-0.349,0.056-0.315,0.592,0,0.672
			c0.85,0.215,1.59,0.536,2.105,1.281c0.48,0.695,0.75,1.661,0.468,2.482c-0.069,0.201,0.255,0.342,0.347,0.146
			C284.288,415.313,284.283,414.233,283.634,413.233z"/>
	</g>
	<g>
		<path style="fill:#1D1D1B;" d="M380.991,321.312c-0.154-0.091-0.307-0.167-0.446-0.221c-0.552-0.213-1.137-0.244-1.693-0.112
			c-2.305-0.232-4.379,2.708-4.61,4.726c-0.321,2.796,1.842,4.997,4.526,5.347c2.619,0.342,5.14-1.164,5.617-3.85
			C384.817,324.769,383.549,321.875,380.991,321.312z M383.368,326.708c-0.243,2.236-2.222,3.519-4.38,3.264
			c-2.208-0.261-4.046-2.036-3.647-4.372c0.19-1.107,0.832-2.101,1.673-2.826c0.675-0.583,1.45-0.806,2.232-1.125
			c0.341-0.038,0.689,0,1.021,0.133c0.63,0.251,0.837,0.763,1.32,1.158c0.158,0.129,0.352,0.06,0.412-0.115
			C382.97,323.858,383.529,325.236,383.368,326.708z"/>
		<path style="fill:#1D1D1B;" d="M381.537,323.886c-0.607-0.935-1.62-1.634-2.76-1.451c-0.349,0.056-0.315,0.592,0,0.672
			c0.85,0.215,1.59,0.536,2.105,1.281c0.48,0.695,0.75,1.662,0.468,2.482c-0.069,0.201,0.255,0.342,0.347,0.146
			C382.192,325.966,382.187,324.886,381.537,323.886z"/>
	</g>
	<g>
		<path style="fill:#1D1D1B;" d="M402.473,286.958c-0.154-0.091-0.307-0.168-0.446-0.221c-0.552-0.213-1.137-0.244-1.693-0.112
			c-2.305-0.232-4.378,2.709-4.61,4.726c-0.321,2.796,1.842,4.997,4.526,5.347c2.619,0.342,5.14-1.164,5.617-3.851
			C406.298,290.415,405.03,287.521,402.473,286.958z M404.85,292.354c-0.243,2.236-2.222,3.519-4.38,3.264
			c-2.207-0.261-4.046-2.036-3.647-4.372c0.19-1.107,0.832-2.101,1.673-2.826c0.675-0.583,1.45-0.806,2.232-1.124
			c0.341-0.039,0.689,0,1.022,0.133c0.63,0.251,0.837,0.763,1.32,1.158c0.158,0.129,0.352,0.06,0.412-0.115
			C404.451,289.504,405.01,290.882,404.85,292.354z"/>
		<path style="fill:#1D1D1B;" d="M403.019,289.532c-0.607-0.935-1.62-1.634-2.76-1.451c-0.349,0.056-0.315,0.592,0,0.672
			c0.85,0.215,1.59,0.536,2.105,1.281c0.48,0.695,0.75,1.661,0.468,2.482c-0.069,0.201,0.255,0.342,0.347,0.146
			C403.673,291.613,403.668,290.532,403.019,289.532z"/>
	</g>
	<g>
		<path style="fill:#1D1D1B;" d="M419.525,133.995c-0.154-0.091-0.307-0.168-0.446-0.221c-0.552-0.213-1.137-0.244-1.693-0.112
			c-2.305-0.232-4.378,2.709-4.61,4.726c-0.321,2.796,1.842,4.997,4.526,5.347c2.619,0.342,5.14-1.164,5.617-3.851
			C423.35,137.451,422.082,134.558,419.525,133.995z M421.902,139.391c-0.243,2.236-2.222,3.519-4.38,3.264
			c-2.207-0.261-4.046-2.036-3.646-4.372c0.189-1.107,0.832-2.101,1.673-2.826c0.675-0.583,1.45-0.806,2.232-1.124
			c0.341-0.039,0.689,0,1.022,0.133c0.63,0.251,0.837,0.763,1.32,1.158c0.157,0.129,0.352,0.06,0.412-0.115
			C421.503,136.541,422.062,137.918,421.902,139.391z"/>
		<path style="fill:#1D1D1B;" d="M420.071,136.569c-0.607-0.935-1.62-1.634-2.76-1.451c-0.349,0.056-0.315,0.592,0,0.672
			c0.85,0.215,1.59,0.536,2.105,1.281c0.48,0.695,0.75,1.661,0.468,2.482c-0.069,0.201,0.255,0.342,0.347,0.146
			C420.725,138.649,420.72,137.569,420.071,136.569z"/>
	</g>
	<g>
		<path style="fill:#1D1D1B;" d="M344.731,123.755c-0.154-0.091-0.307-0.167-0.446-0.221c-0.552-0.213-1.137-0.244-1.693-0.112
			c-2.305-0.232-4.378,2.709-4.61,4.726c-0.321,2.795,1.842,4.997,4.526,5.347c2.619,0.342,5.14-1.164,5.617-3.851
			C348.557,127.211,347.288,124.318,344.731,123.755z M347.108,129.151c-0.243,2.236-2.222,3.519-4.38,3.264
			c-2.208-0.261-4.046-2.036-3.647-4.372c0.19-1.107,0.832-2.101,1.673-2.826c0.675-0.583,1.45-0.806,2.232-1.125
			c0.341-0.039,0.689,0,1.021,0.133c0.63,0.251,0.837,0.763,1.32,1.158c0.158,0.129,0.352,0.06,0.412-0.115
			C346.71,126.301,347.268,127.678,347.108,129.151z"/>
		<path style="fill:#1D1D1B;" d="M345.277,126.329c-0.607-0.935-1.62-1.634-2.76-1.451c-0.349,0.056-0.315,0.592,0,0.672
			c0.85,0.215,1.59,0.536,2.105,1.281c0.48,0.695,0.75,1.661,0.468,2.482c-0.069,0.201,0.255,0.342,0.347,0.146
			C345.931,128.409,345.927,127.329,345.277,126.329z"/>
	</g>
	<g>
		<path style="fill:#1D1D1B;" d="M243.604,49.448c-0.154-0.091-0.307-0.167-0.446-0.221c-0.552-0.213-1.137-0.244-1.693-0.112
			c-2.305-0.232-4.378,2.709-4.61,4.726c-0.321,2.796,1.842,4.997,4.526,5.347c2.619,0.342,5.14-1.164,5.617-3.851
			C247.43,52.905,246.162,50.011,243.604,49.448z M245.981,54.844c-0.243,2.236-2.222,3.519-4.38,3.264
			c-2.208-0.261-4.046-2.036-3.646-4.372c0.189-1.107,0.832-2.101,1.673-2.826c0.675-0.583,1.45-0.806,2.232-1.125
			c0.341-0.039,0.689,0,1.021,0.133c0.63,0.251,0.837,0.763,1.32,1.158c0.158,0.129,0.352,0.06,0.412-0.115
			C245.583,51.994,246.142,53.372,245.981,54.844z"/>
		<path style="fill:#1D1D1B;" d="M244.151,52.022c-0.607-0.935-1.62-1.634-2.76-1.451c-0.349,0.056-0.315,0.592,0,0.672
			c0.85,0.215,1.59,0.536,2.105,1.281c0.48,0.695,0.75,1.662,0.468,2.482c-0.069,0.201,0.255,0.342,0.347,0.146
			C244.805,54.103,244.8,53.022,244.151,52.022z"/>
	</g>
	<path style="fill:#1D1D1B;" d="M224.539,194.061c-0.127,0.301,0.186,0.588,0.458,0.601c2.668,0.122,4.963-0.982,6.587-3.057
		c3.596,1.785,15.462,5.347,15.344-1.625c-0.044-2.618-2.563-4.394-4.951-4.613c-3.486-0.32-7.646,1.446-10.948,3.051
		c-0.481-2.534-2.867-4.483-5.38-4.906c-0.365-0.061-0.629,0.203-0.568,0.568c0.371,2.196,1.423,3.993,3.081,5.395
		C226.52,190.654,225.338,192.161,224.539,194.061z M229.194,189.918c0.323-0.205,0.287-0.61,0-0.822
		c-1.583-1.165-2.585-2.675-3.06-4.515c2.14,0.604,3.424,2.171,4.116,4.218c-0.146,0.073-0.294,0.146-0.435,0.216
		c-0.341,0.17-0.095,0.67,0.25,0.592c0.124-0.028,0.259-0.068,0.388-0.102c0.025,0.093,0.056,0.18,0.079,0.274
		c0.081,0.338,0.556,0.24,0.578-0.078c0.009-0.13,0.006-0.258,0.005-0.386c4.093-1.284,10.348-4.757,13.583-1.588
		c2.082,2.039,0.263,4.655-2.404,5.249c-0.938,0.209-1.962,0.133-2.916,0.057c-2.741-0.219-5.27-1.08-7.683-2.376
		c-0.21-0.113-0.406-0.043-0.533,0.094c-0.08,0.032-0.157,0.078-0.219,0.162c-1.282,1.743-3.092,2.686-5.18,2.792
		C226.555,192.127,227.668,190.885,229.194,189.918z"/>
	<path style="fill:#1D1D1B;" d="M239.267,459.701c-0.127,0.301,0.186,0.588,0.458,0.601c2.668,0.122,4.963-0.982,6.587-3.056
		c3.595,1.784,15.461,5.347,15.344-1.625c-0.044-2.618-2.563-4.394-4.951-4.613c-3.486-0.32-7.645,1.446-10.948,3.05
		c-0.481-2.534-2.867-4.483-5.38-4.906c-0.365-0.061-0.63,0.203-0.568,0.568c0.371,2.197,1.423,3.993,3.081,5.395
		C241.248,456.294,240.065,457.802,239.267,459.701z M243.922,455.559c0.323-0.205,0.287-0.61,0-0.822
		c-1.583-1.165-2.585-2.675-3.06-4.515c2.14,0.604,3.424,2.171,4.116,4.219c-0.146,0.073-0.294,0.145-0.435,0.216
		c-0.341,0.17-0.095,0.669,0.25,0.592c0.124-0.028,0.259-0.068,0.388-0.102c0.024,0.093,0.056,0.18,0.079,0.274
		c0.08,0.338,0.555,0.24,0.578-0.078c0.009-0.13,0.006-0.258,0.005-0.386c4.093-1.284,10.348-4.757,13.584-1.588
		c2.082,2.039,0.263,4.655-2.404,5.249c-0.939,0.209-1.962,0.133-2.916,0.057c-2.741-0.219-5.27-1.08-7.683-2.376
		c-0.211-0.113-0.407-0.042-0.533,0.094c-0.08,0.032-0.157,0.078-0.219,0.162c-1.282,1.743-3.092,2.686-5.18,2.792
		C241.283,457.767,242.396,456.526,243.922,455.559z"/>
	<path style="fill:#1D1D1B;" d="M377.085,126.466c-0.127,0.301,0.186,0.588,0.457,0.601c2.668,0.122,4.963-0.982,6.587-3.057
		c3.596,1.785,15.461,5.347,15.344-1.625c-0.044-2.618-2.563-4.394-4.951-4.613c-3.486-0.32-7.646,1.446-10.948,3.051
		c-0.481-2.534-2.867-4.483-5.38-4.906c-0.365-0.061-0.629,0.203-0.568,0.568c0.371,2.197,1.423,3.993,3.081,5.395
		C379.066,123.059,377.883,124.567,377.085,126.466z M381.74,122.324c0.323-0.205,0.287-0.61,0-0.822
		c-1.583-1.165-2.585-2.675-3.06-4.515c2.14,0.604,3.424,2.171,4.116,4.218c-0.146,0.073-0.294,0.146-0.435,0.216
		c-0.341,0.17-0.095,0.669,0.25,0.592c0.124-0.028,0.259-0.068,0.388-0.102c0.025,0.093,0.056,0.18,0.079,0.274
		c0.08,0.338,0.555,0.24,0.578-0.078c0.009-0.13,0.006-0.258,0.005-0.386c4.093-1.284,10.348-4.757,13.583-1.588
		c2.082,2.039,0.263,4.655-2.404,5.249c-0.939,0.209-1.962,0.133-2.915,0.057c-2.741-0.219-5.27-1.08-7.683-2.376
		c-0.21-0.113-0.407-0.043-0.533,0.094c-0.08,0.032-0.157,0.078-0.219,0.162c-1.282,1.743-3.092,2.686-5.18,2.792
		C379.101,124.532,380.214,123.29,381.74,122.324z"/>
	<path style="fill:#1D1D1B;" d="M322.405,325.428c-0.127,0.301,0.186,0.588,0.458,0.601c2.668,0.122,4.963-0.982,6.587-3.056
		c3.595,1.784,15.461,5.347,15.344-1.625c-0.044-2.618-2.563-4.394-4.951-4.613c-3.486-0.32-7.646,1.446-10.948,3.051
		c-0.481-2.534-2.867-4.483-5.38-4.906c-0.365-0.061-0.629,0.203-0.568,0.568c0.371,2.197,1.423,3.993,3.081,5.395
		C324.386,322.021,323.203,323.529,322.405,325.428z M327.06,321.286c0.323-0.205,0.287-0.61,0-0.822
		c-1.583-1.165-2.585-2.675-3.06-4.515c2.14,0.604,3.424,2.171,4.116,4.219c-0.146,0.073-0.294,0.145-0.435,0.216
		c-0.341,0.17-0.095,0.67,0.25,0.592c0.124-0.028,0.259-0.068,0.388-0.102c0.024,0.093,0.056,0.18,0.079,0.274
		c0.081,0.338,0.556,0.24,0.578-0.078c0.009-0.13,0.006-0.258,0.005-0.386c4.093-1.284,10.348-4.757,13.584-1.588
		c2.082,2.039,0.263,4.655-2.405,5.249c-0.938,0.209-1.962,0.133-2.915,0.057c-2.741-0.219-5.27-1.08-7.683-2.376
		c-0.211-0.113-0.407-0.043-0.533,0.094c-0.08,0.032-0.157,0.078-0.219,0.162c-1.282,1.743-3.092,2.686-5.18,2.792
		C324.421,323.494,325.534,322.253,327.06,321.286z"/>
	<path style="fill:#1D1D1B;" d="M292.615,142.33c0.127-0.301-0.186-0.588-0.457-0.601c-2.668-0.122-4.963,0.982-6.587,3.057
		c-3.596-1.785-15.461-5.347-15.344,1.625c0.044,2.618,2.563,4.394,4.951,4.613c3.486,0.32,7.646-1.446,10.948-3.051
		c0.481,2.534,2.867,4.483,5.38,4.906c0.365,0.061,0.629-0.203,0.568-0.568c-0.371-2.197-1.423-3.993-3.081-5.395
		C290.635,145.737,291.817,144.229,292.615,142.33z M287.961,146.472c-0.323,0.205-0.287,0.61,0,0.822
		c1.583,1.165,2.585,2.675,3.06,4.515c-2.14-0.604-3.424-2.171-4.116-4.219c0.146-0.072,0.294-0.145,0.435-0.216
		c0.341-0.17,0.095-0.669-0.25-0.592c-0.124,0.028-0.259,0.068-0.388,0.102c-0.024-0.093-0.056-0.18-0.079-0.274
		c-0.081-0.338-0.556-0.24-0.578,0.078c-0.009,0.13-0.006,0.258-0.005,0.386c-4.093,1.284-10.348,4.757-13.583,1.588
		c-2.082-2.039-0.263-4.655,2.404-5.249c0.939-0.209,1.962-0.133,2.916-0.057c2.741,0.219,5.27,1.08,7.683,2.376
		c0.21,0.113,0.407,0.043,0.533-0.094c0.08-0.032,0.157-0.078,0.219-0.162c1.282-1.743,3.092-2.686,5.18-2.792
		C290.6,144.264,289.487,145.506,287.961,146.472z"/>
	<path style="fill:#1D1D1B;" d="M214.243,72.669c0.127-0.301-0.186-0.588-0.458-0.601c-2.668-0.122-4.963,0.982-6.587,3.057
		c-3.596-1.785-15.462-5.347-15.344,1.625c0.044,2.618,2.563,4.394,4.951,4.613c3.486,0.32,7.646-1.446,10.948-3.051
		c0.481,2.534,2.867,4.483,5.38,4.906c0.365,0.061,0.629-0.203,0.568-0.568c-0.371-2.197-1.423-3.993-3.081-5.395
		C212.262,76.076,213.444,74.568,214.243,72.669z M209.588,76.812c-0.323,0.205-0.287,0.61,0,0.822
		c1.583,1.165,2.585,2.675,3.06,4.515c-2.14-0.604-3.424-2.171-4.116-4.218c0.146-0.073,0.294-0.146,0.435-0.216
		c0.341-0.17,0.095-0.669-0.25-0.592c-0.124,0.028-0.259,0.068-0.388,0.102c-0.024-0.093-0.056-0.18-0.079-0.274
		c-0.08-0.338-0.555-0.24-0.578,0.078c-0.009,0.13-0.006,0.258-0.005,0.386c-4.093,1.284-10.348,4.757-13.584,1.588
		c-2.082-2.039-0.263-4.655,2.405-5.249c0.938-0.209,1.962-0.133,2.915-0.057c2.741,0.219,5.27,1.08,7.683,2.376
		c0.21,0.113,0.407,0.043,0.533-0.094c0.08-0.032,0.157-0.078,0.219-0.162c1.282-1.743,3.092-2.686,5.18-2.792
		C212.227,74.603,211.114,75.845,209.588,76.812z"/>
	<path style="fill:#1D1D1B;" d="M364.489,210.367c0.127-0.301-0.186-0.588-0.457-0.601c-2.668-0.122-4.963,0.982-6.587,3.057
		c-3.596-1.785-15.461-5.347-15.344,1.624c0.044,2.618,2.563,4.394,4.951,4.613c3.486,0.32,7.646-1.446,10.948-3.051
		c0.481,2.534,2.867,4.483,5.38,4.906c0.365,0.061,0.629-0.203,0.568-0.568c-0.371-2.197-1.423-3.993-3.081-5.395
		C362.508,213.774,363.69,212.266,364.489,210.367z M359.834,214.51c-0.323,0.205-0.287,0.61,0,0.822
		c1.583,1.165,2.585,2.675,3.06,4.515c-2.14-0.604-3.424-2.171-4.116-4.218c0.146-0.073,0.294-0.146,0.435-0.216
		c0.341-0.17,0.095-0.669-0.25-0.592c-0.124,0.028-0.259,0.068-0.388,0.102c-0.025-0.093-0.056-0.18-0.079-0.274
		c-0.081-0.338-0.555-0.24-0.578,0.078c-0.009,0.13-0.006,0.258-0.005,0.386c-4.093,1.284-10.348,4.757-13.583,1.588
		c-2.082-2.039-0.263-4.655,2.404-5.249c0.939-0.209,1.962-0.133,2.915-0.057c2.741,0.219,5.27,1.08,7.683,2.376
		c0.21,0.113,0.407,0.042,0.533-0.094c0.08-0.032,0.157-0.078,0.219-0.162c1.282-1.743,3.092-2.686,5.18-2.792
		C362.473,212.301,361.36,213.543,359.834,214.51z"/>
	<path style="fill:#1D1D1B;" d="M338.468,381.996c0.127-0.301-0.186-0.588-0.457-0.601c-2.668-0.122-4.963,0.982-6.587,3.057
		c-3.595-1.785-15.461-5.347-15.344,1.624c0.044,2.618,2.563,4.394,4.951,4.613c3.486,0.32,7.645-1.446,10.948-3.051
		c0.481,2.534,2.867,4.483,5.38,4.906c0.365,0.061,0.629-0.203,0.568-0.568c-0.371-2.197-1.423-3.993-3.081-5.395
		C336.487,385.403,337.669,383.895,338.468,381.996z M333.813,386.138c-0.323,0.205-0.287,0.61,0,0.822
		c1.583,1.165,2.585,2.675,3.06,4.515c-2.14-0.604-3.424-2.171-4.116-4.219c0.146-0.073,0.294-0.146,0.435-0.216
		c0.341-0.17,0.095-0.669-0.25-0.592c-0.124,0.028-0.259,0.068-0.388,0.102c-0.024-0.093-0.056-0.18-0.079-0.274
		c-0.08-0.338-0.555-0.24-0.578,0.078c-0.009,0.13-0.006,0.258-0.005,0.386c-4.093,1.284-10.348,4.757-13.583,1.588
		c-2.082-2.039-0.263-4.655,2.404-5.249c0.939-0.209,1.962-0.133,2.915-0.057c2.741,0.219,5.27,1.08,7.683,2.376
		c0.211,0.113,0.407,0.043,0.533-0.094c0.08-0.032,0.157-0.078,0.219-0.162c1.282-1.743,3.092-2.686,5.18-2.792
		C336.452,383.929,335.339,385.171,333.813,386.138z"/>
	<path style="fill:#1D1D1B;" d="M155.015,402.3c0.127-0.301-0.186-0.588-0.457-0.601c-2.668-0.122-4.963,0.982-6.587,3.057
		c-3.596-1.785-15.462-5.347-15.344,1.624c0.044,2.618,2.563,4.394,4.951,4.613c3.486,0.32,7.645-1.446,10.948-3.051
		c0.481,2.534,2.867,4.483,5.38,4.906c0.365,0.061,0.629-0.203,0.568-0.568c-0.371-2.197-1.423-3.993-3.081-5.395
		C153.035,405.707,154.217,404.199,155.015,402.3z M150.36,406.442c-0.323,0.205-0.287,0.61,0,0.822
		c1.583,1.165,2.585,2.675,3.06,4.515c-2.14-0.604-3.424-2.171-4.116-4.218c0.146-0.073,0.294-0.146,0.436-0.216
		c0.341-0.17,0.095-0.669-0.25-0.592c-0.124,0.028-0.259,0.068-0.388,0.102c-0.025-0.093-0.056-0.18-0.079-0.274
		c-0.081-0.338-0.556-0.24-0.578,0.078c-0.009,0.13-0.006,0.258-0.005,0.386c-4.093,1.284-10.348,4.757-13.584,1.588
		c-2.082-2.039-0.263-4.655,2.405-5.249c0.938-0.209,1.962-0.133,2.915-0.057c2.741,0.219,5.27,1.08,7.683,2.376
		c0.21,0.113,0.407,0.043,0.533-0.094c0.08-0.032,0.157-0.078,0.219-0.162c1.282-1.743,3.092-2.686,5.18-2.792
		C152.999,404.233,151.886,405.475,150.36,406.442z"/>
</g>
</svg>
