<?xml version="1.0" encoding="utf-8"?>
<!-- Generator: Adobe Illustrator 27.5.0, SVG Export Plug-In . SVG Version: 6.00 Build 0)  -->
<svg xmlns="http://www.w3.org/2000/svg" xmlns:xlink="http://www.w3.org/1999/xlink" viewBox="0 0 566.93 566.93" width="595" height="842" preserveAspectRatio="xMidYMid meet" data-scaled="true">
<g>
	<polygon style="fill:#FEC340;" points="364.621,566.93 284.506,566.93 202.309,566.93 202.309,539.254 364.621,539.254 	"/>
	<g>
		<polygon style="fill:#FEC340;" points="364.621,80.52 284.506,64.525 202.309,80.52 202.309,0 364.621,0 		"/>
		<g>
			<g>
				<g>
					<g>
						<path style="fill:#FFFFFF;" d="M229.793,30.165c0.49-1.633,0.91-3.068,1.26-4.305c0.35-1.236,0.7-2.508,1.051-3.814
							c0.35-1.307,0.723-2.777,1.119-4.41c0.396-1.633,0.898-3.664,1.506-6.09c0.115-0.443,0.25-0.73,0.402-0.857
							c0.15-0.129,0.495-0.193,1.032-0.193c0.233,0,0.601,0.018,1.102,0.053c0.501,0.035,1.009,0.141,1.523,0.314
							c0.513,0.176,0.968,0.433,1.364,0.771c0.396,0.339,0.596,0.823,0.596,1.452c0,0.561-0.158,1.418-0.473,2.572
							c-0.314,1.156-0.718,2.469-1.207,3.938c-0.49,1.471-1.033,3.006-1.628,4.604c-0.595,1.598-1.185,3.109-1.768,4.532
							c-0.583,1.423-1.114,2.672-1.593,3.745c-0.479,1.073-0.834,1.82-1.067,2.24c-0.257,0.443-0.712,0.664-1.364,0.664h-3.676
							c-0.584,0-1.067-0.109-1.452-0.332c-0.386-0.222-0.706-0.52-0.963-0.893c-0.257-0.373-0.467-0.799-0.63-1.277
							c-0.164-0.479-0.303-0.963-0.42-1.453c-0.793-3.313-1.477-6.189-2.047-8.627c-0.572-2.438-1.045-4.48-1.418-6.125
							c-0.373-1.645-0.654-2.91-0.84-3.797c-0.188-0.887-0.28-1.436-0.28-1.646c0-0.257,0.186-0.449,0.559-0.577
							c0.373-0.129,1.004-0.193,1.891-0.193c0.933,0,1.697,0.094,2.293,0.28c0.594,0.187,1.072,0.45,1.435,0.788
							c0.361,0.338,0.63,0.734,0.805,1.189c0.175,0.455,0.298,0.951,0.368,1.488c0.069,0.396,0.14,0.869,0.209,1.417
							c0.07,0.548,0.193,1.382,0.368,2.503c0.175,1.119,0.413,2.631,0.718,4.531C228.871,24.56,229.279,27.063,229.793,30.165z"/>
						<path style="fill:#FFFFFF;" d="M246.277,35.38c-1.307,0-2.24-0.256-2.8-0.77c-0.559-0.514-0.84-1.248-0.84-2.205
							c0-0.467,0.034-1.266,0.104-2.398c0.07-1.132,0.163-2.421,0.28-3.868c0.116-1.445,0.233-2.975,0.351-4.584
							c0.116-1.61,0.232-3.127,0.35-4.551c0.116-1.422,0.21-2.671,0.279-3.744c0.07-1.073,0.105-1.809,0.105-2.205
							c0-0.35,0.187-0.525,0.561-0.525h12.319c0.14,0,0.269,0.035,0.386,0.105c0.116,0.07,0.174,0.198,0.174,0.385l-0.139,2.064
							c-0.048,0.7-0.24,1.267-0.578,1.697c-0.338,0.433-1.033,0.649-2.082,0.649h-4.83l-0.351,4.934h4.97
							c0.141,0,0.269,0.035,0.385,0.104c0.117,0.07,0.176,0.199,0.176,0.386l-0.141,2.065c-0.047,0.699-0.239,1.266-0.577,1.697
							c-0.339,0.432-1.032,0.646-2.083,0.646h-3.045l-0.385,5.216h7.7c0.14,0,0.269,0.041,0.386,0.122
							c0.115,0.082,0.174,0.205,0.174,0.367l-0.14,2.065c-0.047,0.7-0.239,1.267-0.577,1.698c-0.339,0.432-1.033,0.647-2.082,0.647
							H246.277z"/>
						<path style="fill:#FFFFFF;" d="M276.412,35.38c-1.307,0-2.24-0.256-2.8-0.77c-0.56-0.514-0.841-1.248-0.841-2.205
							c0-0.513,0.047-1.423,0.141-2.73c0.094-1.307,0.198-2.775,0.315-4.41h-6.229l-0.7,9.591c-0.023,0.187-0.07,0.321-0.14,0.402
							c-0.069,0.082-0.21,0.122-0.42,0.122h-1.925c-1.307,0-2.24-0.256-2.801-0.77c-0.56-0.514-0.84-1.248-0.84-2.205
							c0-0.467,0.035-1.266,0.105-2.398c0.07-1.132,0.162-2.421,0.279-3.868c0.117-1.445,0.233-2.975,0.351-4.584
							c0.116-1.61,0.233-3.127,0.351-4.551c0.115-1.422,0.209-2.671,0.279-3.744c0.07-1.073,0.106-1.809,0.106-2.205
							c0-0.35,0.185-0.525,0.559-0.525h1.925c1.424,0,2.381,0.304,2.87,0.91c0.49,0.608,0.735,1.505,0.735,2.695
							c0,0.187-0.035,0.846-0.105,1.977c-0.07,1.133-0.163,2.492-0.279,4.078h6.265c0.069-1.026,0.145-2.03,0.227-3.01
							c0.082-0.981,0.151-1.879,0.21-2.695c0.058-0.817,0.104-1.523,0.14-2.117c0.035-0.596,0.053-1.033,0.053-1.313
							c0-0.35,0.186-0.525,0.561-0.525h1.924c1.424,0,2.381,0.304,2.871,0.91c0.49,0.608,0.734,1.505,0.734,2.695
							c0,0.117-0.018,0.49-0.053,1.119c-0.035,0.631-0.087,1.424-0.157,2.381c-0.069,0.957-0.146,2.024-0.228,3.202
							c-0.082,1.179-0.164,2.386-0.244,3.622c-0.082,1.237-0.164,2.445-0.246,3.623s-0.157,2.246-0.227,3.202
							c-0.07,0.957-0.129,1.757-0.176,2.397c-0.047,0.643-0.082,1.033-0.106,1.173c-0.023,0.187-0.069,0.321-0.139,0.402
							c-0.07,0.082-0.211,0.122-0.42,0.122H276.412z"/>
						<path style="fill:#FFFFFF;" d="M287.401,35.38c-1.307,0-2.24-0.256-2.799-0.77c-0.56-0.514-0.841-1.248-0.841-2.205
							c0-0.467,0.035-1.266,0.105-2.398c0.07-1.132,0.163-2.421,0.28-3.868c0.116-1.445,0.232-2.975,0.35-4.584
							c0.117-1.61,0.232-3.127,0.35-4.551c0.117-1.422,0.211-2.671,0.281-3.744c0.068-1.073,0.103-1.809,0.103-2.205
							c0-0.35,0.188-0.525,0.561-0.525h1.926c1.422,0,2.379,0.304,2.869,0.91c0.49,0.608,0.734,1.505,0.734,2.695
							c0,0.117-0.018,0.49-0.051,1.119c-0.035,0.631-0.088,1.424-0.158,2.381c-0.07,0.957-0.147,2.024-0.229,3.202
							s-0.162,2.386-0.244,3.622c-0.082,1.237-0.164,2.445-0.244,3.623c-0.082,1.178-0.158,2.246-0.229,3.202
							c-0.07,0.957-0.129,1.757-0.176,2.397c-0.047,0.643-0.082,1.033-0.103,1.173c-0.023,0.187-0.07,0.321-0.141,0.402
							c-0.07,0.082-0.211,0.122-0.42,0.122H287.401z"/>
						<path style="fill:#FFFFFF;" d="M305.252,30.271c0.956,0,1.767-0.141,2.433-0.42c0.665-0.28,1.23-0.596,1.697-0.945
							s0.881-0.665,1.242-0.945c0.361-0.279,0.729-0.42,1.103-0.42c0.467,0,0.7,0.35,0.7,1.051c0,0.373-0.047,0.822-0.14,1.348
							c-0.094,0.524-0.223,1.113-0.386,1.768c-0.093,0.396-0.32,0.828-0.682,1.295c-0.362,0.467-0.858,0.904-1.488,1.313
							c-0.63,0.408-1.405,0.746-2.327,1.014c-0.922,0.269-1.978,0.403-3.168,0.403c-1.189,0-2.38-0.175-3.569-0.524
							c-1.19-0.351-2.252-0.945-3.186-1.785c-0.934-0.84-1.691-1.973-2.274-3.395c-0.584-1.423-0.875-3.208-0.875-5.354
							c0-0.771,0.053-1.663,0.157-2.678c0.105-1.016,0.309-2.059,0.612-3.133c0.303-1.072,0.729-2.129,1.277-3.168
							c0.549-1.037,1.254-1.965,2.118-2.782c0.862-0.816,1.919-1.476,3.167-1.978c1.248-0.502,2.735-0.752,4.463-0.752
							c1.376,0,2.572,0.163,3.587,0.49c1.016,0.326,1.855,0.775,2.521,1.348c0.665,0.571,1.155,1.242,1.47,2.012
							c0.315,0.769,0.473,1.587,0.473,2.45c0,1.493-0.438,2.585-1.313,3.272c-0.875,0.689-2.117,1.032-3.728,1.032
							c-0.514,0-0.834-0.04-0.963-0.122c-0.128-0.082-0.192-0.25-0.192-0.508c-0.023-0.793-0.047-1.482-0.069-2.065
							c-0.023-0.584-0.105-1.068-0.245-1.453c-0.141-0.385-0.357-0.665-0.647-0.84c-0.292-0.175-0.694-0.263-1.208-0.263
							c-0.747,0-1.382,0.157-1.907,0.473c-0.525,0.315-0.969,0.724-1.33,1.226c-0.362,0.502-0.653,1.066-0.875,1.697
							c-0.222,0.63-0.396,1.271-0.525,1.925c-0.128,0.653-0.21,1.283-0.244,1.89c-0.035,0.607-0.053,1.133-0.053,1.575
							c0,2.148,0.355,3.675,1.067,4.585C302.656,29.815,303.758,30.271,305.252,30.271z"/>
						<path style="fill:#FFFFFF;" d="M319.986,35.38c-1.307,0-2.24-0.256-2.8-0.77c-0.559-0.514-0.84-1.248-0.84-2.205
							c0-0.467,0.035-1.266,0.105-2.398c0.07-1.132,0.163-2.421,0.28-3.868c0.116-1.445,0.233-2.975,0.35-4.584
							c0.117-1.61,0.233-3.127,0.35-4.551c0.116-1.422,0.21-2.671,0.28-3.744c0.069-1.073,0.105-1.809,0.105-2.205
							c0-0.35,0.186-0.525,0.561-0.525h1.925c1.307,0,2.21,0.251,2.712,0.752c0.502,0.502,0.753,1.243,0.753,2.223
							c0,0.117-0.006,0.223-0.018,0.315c-0.012,0.094-0.018,0.198-0.018,0.315l-1.155,16.345h6.301c0.14,0,0.267,0.041,0.385,0.122
							c0.116,0.082,0.175,0.205,0.175,0.367l-0.14,2.065c-0.048,0.7-0.24,1.267-0.578,1.698c-0.338,0.432-1.032,0.647-2.082,0.647
							H319.986z"/>
						<path style="fill:#FFFFFF;" d="M335.666,35.38c-1.307,0-2.24-0.256-2.8-0.77c-0.56-0.514-0.84-1.248-0.84-2.205
							c0-0.467,0.035-1.266,0.104-2.398c0.07-1.132,0.163-2.421,0.28-3.868c0.116-1.445,0.233-2.975,0.35-4.584
							c0.117-1.61,0.233-3.127,0.351-4.551c0.116-1.422,0.21-2.671,0.28-3.744c0.069-1.073,0.104-1.809,0.104-2.205
							c0-0.35,0.186-0.525,0.56-0.525h12.319c0.141,0,0.268,0.035,0.385,0.105c0.117,0.07,0.176,0.198,0.176,0.385l-0.141,2.064
							c-0.047,0.7-0.239,1.267-0.577,1.697c-0.339,0.433-1.032,0.649-2.083,0.649h-4.829l-0.35,4.934h4.97
							c0.141,0,0.269,0.035,0.386,0.104c0.116,0.07,0.175,0.199,0.175,0.386l-0.14,2.065c-0.048,0.699-0.24,1.266-0.578,1.697
							c-0.338,0.432-1.032,0.646-2.082,0.646h-3.045l-0.386,5.216h7.7c0.141,0,0.268,0.041,0.385,0.122
							c0.117,0.082,0.176,0.205,0.176,0.367l-0.141,2.065c-0.047,0.7-0.239,1.267-0.577,1.698c-0.339,0.432-1.032,0.647-2.083,0.647
							H335.666z"/>
					</g>
				</g>
			</g>
		</g>
		<g>
			<g>
				<g>
					<g>
						<g>
							<path style="fill:#FFFFFF;" d="M229.928,47.48c0-0.036,0-0.177,0-0.423c0-0.246-0.07-0.57-0.207-0.973
								c-0.139-0.401-0.412-0.758-0.819-1.07c-0.408-0.313-0.925-0.468-1.548-0.468c-0.973,0-1.711,0.42-2.215,1.26
								c-0.504,0.84-0.756,2.043-0.756,3.608c0,1.566,0.27,2.767,0.811,3.601c0.54,0.834,1.308,1.251,2.304,1.251
								s2.052-0.462,3.168-1.386c0.48,0.312,0.78,0.702,0.9,1.17c-0.517,0.528-1.165,0.957-1.944,1.286
								c-0.78,0.33-1.593,0.496-2.439,0.496c-0.846,0-1.578-0.178-2.195-0.531c-0.618-0.354-1.107-0.831-1.467-1.432
								c-0.684-1.188-1.026-2.639-1.026-4.355c0-2.124,0.462-3.729,1.386-4.814s2.059-1.629,3.402-1.629
								c1.344,0,2.414,0.348,3.213,1.043c0.798,0.696,1.197,1.512,1.197,2.448c0,0.685-0.342,1.026-1.026,1.026
								C230.449,47.589,230.203,47.553,229.928,47.48z"/>
							<path style="fill:#FFFFFF;" d="M227.182,56.083c-0.886,0-1.666-0.189-2.319-0.564c-0.653-0.373-1.177-0.885-1.558-1.521
								c-0.705-1.223-1.061-2.73-1.061-4.483c0-2.175,0.486-3.849,1.445-4.976c0.969-1.139,2.178-1.717,3.593-1.717
								c1.398,0,2.535,0.371,3.377,1.104c0.852,0.743,1.283,1.63,1.283,2.637c0,1.06-0.753,1.507-2.077,1.16
								c-0.11-0.029-0.187-0.129-0.187-0.242v-0.423c0-0.214-0.065-0.514-0.193-0.893c-0.121-0.35-0.369-0.671-0.735-0.952
								c-0.36-0.276-0.83-0.416-1.395-0.416c-0.887,0-1.541,0.372-2,1.139c-0.479,0.796-0.721,1.967-0.721,3.479
								c0,1.51,0.259,2.675,0.77,3.465c0.495,0.765,1.18,1.137,2.094,1.137c0.932,0,1.943-0.447,3.009-1.328
								c0.085-0.068,0.204-0.075,0.295-0.018c0.532,0.346,0.871,0.789,1.007,1.317c0.022,0.085-0.002,0.175-0.063,0.237
								c-0.537,0.55-1.219,1.001-2.025,1.342C228.909,55.909,228.056,56.083,227.182,56.083z M227.281,43.321
								c-1.279,0-2.33,0.504-3.212,1.541c-0.88,1.034-1.326,2.6-1.326,4.652c0,1.664,0.334,3.088,0.993,4.23
								c0.333,0.558,0.796,1.009,1.374,1.34c1.161,0.664,2.928,0.65,4.413,0.021c0.694-0.293,1.285-0.672,1.759-1.127
								c-0.107-0.302-0.307-0.561-0.605-0.786c-1.104,0.878-2.174,1.323-3.18,1.323c-1.081,0-1.927-0.459-2.514-1.365
								c-0.564-0.872-0.851-2.129-0.851-3.736c0-1.604,0.267-2.861,0.791-3.737c0.551-0.916,1.367-1.381,2.43-1.381
								c0.678,0,1.25,0.175,1.7,0.519c0.445,0.342,0.749,0.741,0.903,1.187c0.148,0.438,0.221,0.782,0.221,1.055v0.225
								c0.851,0.181,1.263-0.032,1.264-0.72c0-0.868-0.363-1.607-1.111-2.26C229.582,43.651,228.556,43.321,227.281,43.321z"/>
						</g>
						<g>
							<path style="fill:#FFFFFF;" d="M237.055,54.753c-1.271-1.104-1.908-2.871-1.908-5.301c0-2.431,0.637-4.197,1.908-5.302
								c0.816-0.72,1.842-1.079,3.078-1.079s2.262,0.359,3.078,1.079c1.284,1.105,1.926,2.871,1.926,5.302
								c0,2.43-0.642,4.197-1.926,5.301c-0.816,0.72-1.842,1.08-3.078,1.08S237.871,55.473,237.055,54.753z M237.172,47.724
								c-0.09,0.521-0.135,1.096-0.135,1.719c0,0.625,0.045,1.2,0.135,1.728c0.09,0.527,0.24,1.047,0.45,1.557
								c0.21,0.51,0.528,0.912,0.954,1.206c0.426,0.294,0.914,0.44,1.467,0.44c0.552,0,1.018-0.102,1.395-0.305
								c0.379-0.205,0.678-0.466,0.9-0.783c0.223-0.318,0.398-0.699,0.531-1.143c0.24-0.768,0.359-1.566,0.359-2.394
								c0-0.828-0.041-1.504-0.125-2.025s-0.232-1.037-0.441-1.548c-0.21-0.511-0.531-0.912-0.963-1.206
								c-0.432-0.294-0.954-0.441-1.566-0.441c-0.611,0-1.131,0.147-1.557,0.441c-0.426,0.294-0.744,0.695-0.954,1.206
								C237.412,46.687,237.262,47.202,237.172,47.724z"/>
							<path style="fill:#FFFFFF;" d="M240.133,56.083c-1.292,0-2.384-0.385-3.243-1.143c-1.322-1.147-1.993-2.994-1.993-5.488
								c0-2.494,0.671-4.341,1.994-5.49c0.858-0.757,1.949-1.141,3.242-1.141s2.384,0.384,3.243,1.142
								c1.334,1.147,2.011,2.994,2.011,5.489c0,2.495-0.677,4.343-2.013,5.49C242.517,55.698,241.425,56.083,240.133,56.083z
								 M240.133,43.321c-1.168,0-2.147,0.342-2.913,1.017c-1.21,1.052-1.823,2.772-1.823,5.114c0,2.343,0.613,4.063,1.822,5.112
								c0.768,0.676,1.747,1.019,2.914,1.019c1.167,0,2.146-0.343,2.913-1.018c1.223-1.051,1.841-2.771,1.841-5.113
								c0-2.343-0.619-4.063-1.839-5.112C242.28,43.663,241.301,43.321,240.133,43.321z M240.043,54.624
								c-0.602,0-1.143-0.163-1.608-0.484c-0.465-0.321-0.816-0.764-1.044-1.317c-0.216-0.524-0.373-1.066-0.465-1.609
								c-0.092-0.54-0.139-1.136-0.139-1.77c0-0.636,0.047-1.229,0.139-1.761c0.092-0.535,0.248-1.074,0.465-1.6
								c0.228-0.553,0.578-0.996,1.044-1.317c0.467-0.322,1.038-0.485,1.698-0.485c0.66,0,1.234,0.163,1.707,0.484
								c0.472,0.321,0.826,0.765,1.054,1.318c0.218,0.531,0.371,1.07,0.457,1.603c0.085,0.528,0.128,1.224,0.128,2.065
								c0,0.852-0.125,1.682-0.371,2.468c-0.14,0.468-0.33,0.877-0.564,1.213c-0.245,0.349-0.577,0.638-0.986,0.859
								C241.145,54.512,240.635,54.624,240.043,54.624z M240.133,44.778c-0.557,0-1.033,0.134-1.415,0.397
								c-0.384,0.265-0.675,0.634-0.864,1.095c-0.203,0.493-0.35,0.996-0.436,1.495c-0.087,0.506-0.131,1.069-0.131,1.677
								c0,0.607,0.044,1.175,0.131,1.686c0.087,0.507,0.233,1.013,0.436,1.504c0.19,0.462,0.482,0.83,0.864,1.095
								c0.387,0.267,0.82,0.396,1.325,0.396c0.508,0,0.938-0.093,1.276-0.274c0.345-0.188,0.611-0.419,0.814-0.707
								c0.204-0.292,0.371-0.652,0.497-1.071c0.231-0.741,0.349-1.521,0.349-2.322c0-0.815-0.041-1.483-0.122-1.985
								c-0.079-0.495-0.223-0.997-0.426-1.493c-0.192-0.468-0.478-0.825-0.872-1.094C241.171,44.912,240.691,44.778,240.133,44.778z
								"/>
						</g>
						<g>
							<path style="fill:#FFFFFF;" d="M252.895,54.051h3.637c0,0.323-0.012,0.563-0.036,0.72c-0.108,0.564-0.498,0.846-1.17,0.846
								h-4.771c-0.313,0-0.564-0.099-0.756-0.297c-0.191-0.197-0.288-0.477-0.288-0.837V43.341l0.108-0.108h0.701
								c0.361,0,0.615,0.091,0.766,0.271c0.15,0.18,0.225,0.475,0.225,0.882v9.72C251.875,54.069,252.402,54.051,252.895,54.051z"/>
							<path style="fill:#FFFFFF;" d="M255.325,55.866h-4.771c-0.382,0-0.696-0.126-0.936-0.373
								c-0.237-0.245-0.358-0.585-0.358-1.011V43.341c0-0.066,0.026-0.13,0.073-0.177l0.108-0.108
								c0.047-0.047,0.11-0.073,0.177-0.073h0.701c0.436,0,0.758,0.121,0.957,0.36c0.19,0.228,0.283,0.568,0.283,1.042v9.455
								c0.479-0.026,0.919-0.039,1.334-0.039h3.637c0.138,0,0.25,0.112,0.25,0.25c0,0.342-0.013,0.59-0.039,0.759
								C256.648,55.296,256.329,55.866,255.325,55.866z M249.761,43.482v11c0,0.291,0.073,0.514,0.218,0.663
								c0.144,0.148,0.332,0.221,0.576,0.221h4.771c0.71,0,0.867-0.344,0.925-0.643c0.014-0.094,0.024-0.236,0.028-0.423h-3.384
								c-0.48,0-0.993,0.018-1.568,0.054c-0.065,0.005-0.137-0.021-0.187-0.067c-0.051-0.048-0.079-0.113-0.079-0.183v-9.72
								c0-0.432-0.091-0.631-0.166-0.722c-0.101-0.12-0.294-0.181-0.574-0.181H249.761z"/>
						</g>
						<g>
							<path style="fill:#FFFFFF;" d="M261.68,54.753c-1.273-1.104-1.908-2.871-1.908-5.301c0-2.431,0.635-4.197,1.908-5.302
								c0.815-0.72,1.842-1.079,3.077-1.079c1.235,0,2.263,0.359,3.078,1.079c1.284,1.105,1.927,2.871,1.927,5.302
								c0,2.43-0.643,4.197-1.927,5.301c-0.815,0.72-1.843,1.08-3.078,1.08C263.521,55.833,262.495,55.473,261.68,54.753z
								 M261.796,47.724c-0.09,0.521-0.135,1.096-0.135,1.719c0,0.625,0.045,1.2,0.135,1.728c0.091,0.527,0.24,1.047,0.45,1.557
								c0.21,0.51,0.527,0.912,0.954,1.206c0.426,0.294,0.915,0.44,1.467,0.44s1.017-0.102,1.396-0.305
								c0.377-0.205,0.678-0.466,0.899-0.783c0.222-0.318,0.399-0.699,0.531-1.143c0.239-0.768,0.36-1.566,0.36-2.394
								c0-0.828-0.043-1.504-0.127-2.025c-0.084-0.521-0.23-1.037-0.44-1.548c-0.21-0.511-0.531-0.912-0.963-1.206
								c-0.433-0.294-0.954-0.441-1.566-0.441c-0.612,0-1.131,0.147-1.557,0.441c-0.427,0.294-0.744,0.695-0.954,1.206
								C262.036,46.687,261.887,47.202,261.796,47.724z"/>
							<path style="fill:#FFFFFF;" d="M264.757,56.083c-1.293,0-2.384-0.385-3.242-1.143c-1.322-1.146-1.993-2.992-1.993-5.488
								c0-2.495,0.671-4.343,1.994-5.49c0.857-0.757,1.948-1.141,3.241-1.141c1.294,0,2.386,0.384,3.243,1.142
								c1.334,1.148,2.012,2.995,2.012,5.489c0,2.495-0.678,4.342-2.014,5.49C267.142,55.698,266.05,56.083,264.757,56.083z
								 M264.757,43.321c-1.168,0-2.147,0.342-2.912,1.017c-1.21,1.05-1.823,2.771-1.823,5.114c0,2.345,0.613,4.065,1.822,5.112
								c0.767,0.676,1.746,1.019,2.913,1.019c1.168,0,2.147-0.343,2.913-1.018c1.223-1.051,1.842-2.771,1.842-5.113
								c0-2.342-0.619-4.063-1.84-5.112C266.905,43.663,265.926,43.321,264.757,43.321z M264.667,54.624
								c-0.602,0-1.143-0.163-1.608-0.484c-0.465-0.32-0.815-0.763-1.044-1.317c-0.215-0.521-0.371-1.063-0.465-1.609
								c-0.092-0.54-0.139-1.136-0.139-1.77c0-0.636,0.047-1.229,0.139-1.761c0.094-0.54,0.25-1.078,0.465-1.6
								c0.228-0.554,0.579-0.997,1.044-1.317c0.467-0.322,1.038-0.485,1.698-0.485c0.659,0,1.233,0.163,1.707,0.484
								c0.472,0.321,0.826,0.765,1.054,1.318c0.216,0.524,0.369,1.064,0.456,1.603c0.086,0.536,0.13,1.231,0.13,2.065
								c0,0.847-0.125,1.677-0.372,2.468c-0.137,0.463-0.327,0.871-0.564,1.212c-0.242,0.347-0.573,0.637-0.985,0.86
								C265.767,54.512,265.258,54.624,264.667,54.624z M264.757,44.778c-0.557,0-1.033,0.134-1.415,0.397
								c-0.389,0.268-0.672,0.626-0.864,1.095c-0.201,0.489-0.348,0.992-0.436,1.496c-0.087,0.505-0.131,1.068-0.131,1.676
								c0,0.607,0.044,1.175,0.131,1.686c0.088,0.51,0.234,1.017,0.436,1.504c0.19,0.463,0.482,0.831,0.864,1.095
								c0.381,0.264,0.827,0.396,1.325,0.396c0.507,0,0.936-0.093,1.277-0.275c0.342-0.185,0.615-0.423,0.813-0.706
								c0.207-0.296,0.374-0.656,0.497-1.071c0.232-0.746,0.35-1.526,0.35-2.322c0-0.808-0.042-1.476-0.124-1.985
								c-0.08-0.501-0.224-1.003-0.425-1.493c-0.192-0.468-0.478-0.825-0.872-1.094C265.794,44.912,265.314,44.778,264.757,44.778z"
								/>
						</g>
						<g>
							<path style="fill:#FFFFFF;" d="M274.262,43.286l3.815-0.054c1.26,0,2.25,0.321,2.97,0.964c0.721,0.642,1.08,1.545,1.08,2.709
								c0,0.803-0.216,1.493-0.649,2.069c-0.432,0.576-0.99,0.977-1.674,1.206c0.541,0.191,0.961,0.696,1.26,1.512l0.828,2.178
								c0.24,0.637,0.504,1.068,0.793,1.297c-0.24,0.371-0.642,0.558-1.207,0.558c-0.324,0-0.57-0.087-0.737-0.261
								c-0.169-0.174-0.324-0.459-0.468-0.856l-0.937-2.502c-0.18-0.492-0.405-0.863-0.675-1.115
								c-0.27-0.252-0.663-0.379-1.18-0.379h-1.547v4.986c-0.24,0.048-0.541,0.072-0.9,0.072c-0.36,0-0.66-0.024-0.9-0.072V43.413
								L274.262,43.286z M275.935,44.655v4.518c0.707-0.036,1.437-0.055,2.187-0.055c0.749,0,1.293-0.209,1.629-0.629
								c0.336-0.42,0.504-0.948,0.504-1.584c0-1.488-0.75-2.232-2.25-2.232C277.033,44.673,276.343,44.667,275.935,44.655z"/>
							<path style="fill:#FFFFFF;" d="M281.478,55.975c-0.393,0-0.702-0.113-0.918-0.338c-0.193-0.199-0.364-0.508-0.522-0.943
								l-0.936-2.499c-0.165-0.453-0.37-0.796-0.611-1.021c-0.221-0.207-0.56-0.312-1.009-0.312h-1.297v4.736
								c0,0.119-0.084,0.222-0.201,0.245c-0.514,0.102-1.385,0.102-1.898,0c-0.117-0.023-0.201-0.126-0.201-0.245V43.413
								c0-0.066,0.026-0.13,0.073-0.177l0.127-0.127c0.046-0.046,0.108-0.072,0.173-0.073l3.815-0.054
								c1.321,0,2.377,0.346,3.14,1.027c0.772,0.688,1.164,1.661,1.164,2.896c0,0.855-0.235,1.603-0.698,2.22
								c-0.352,0.469-0.788,0.834-1.301,1.089c0.381,0.294,0.689,0.76,0.921,1.392l0.827,2.175c0.224,0.591,0.464,0.991,0.715,1.189
								c0.101,0.08,0.125,0.224,0.055,0.332C282.606,55.749,282.13,55.975,281.478,55.975z M275.935,50.362h1.547
								c0.579,0,1.033,0.15,1.351,0.446c0.299,0.279,0.547,0.686,0.738,1.212l0.936,2.5c0.132,0.365,0.271,0.623,0.413,0.77
								c0.119,0.124,0.302,0.185,0.558,0.185c0.383,0,0.669-0.094,0.867-0.284c-0.252-0.272-0.479-0.679-0.688-1.232l-0.827-2.177
								c-0.272-0.742-0.646-1.2-1.109-1.365c-0.101-0.035-0.168-0.131-0.167-0.237c0.001-0.107,0.069-0.201,0.171-0.235
								c0.633-0.211,1.155-0.588,1.553-1.118c0.397-0.529,0.599-1.175,0.599-1.92c0-1.101-0.326-1.926-0.996-2.522
								c-0.67-0.598-1.613-0.9-2.804-0.9l-3.692,0.052v11.852c0.373,0.047,0.928,0.047,1.301,0v-4.773
								C275.685,50.475,275.798,50.362,275.935,50.362z M275.935,49.423c-0.063,0-0.126-0.025-0.172-0.068
								c-0.05-0.048-0.078-0.113-0.078-0.182v-4.518c0-0.067,0.027-0.132,0.076-0.18c0.047-0.047,0.099-0.06,0.181-0.07
								c0.406,0.012,1.094,0.018,2.063,0.018c1.636,0,2.5,0.858,2.5,2.482c0,0.691-0.188,1.276-0.559,1.74
								c-0.384,0.479-0.997,0.723-1.824,0.723c-0.736,0-1.468,0.019-2.174,0.055C275.944,49.423,275.939,49.423,275.935,49.423z
								 M276.185,44.911v3.999c0.632-0.027,1.282-0.042,1.937-0.042c0.667,0,1.149-0.18,1.434-0.535
								c0.298-0.372,0.449-0.853,0.449-1.428c0-1.353-0.636-1.982-2-1.982C277.211,44.923,276.604,44.919,276.185,44.911z"/>
						</g>
						<g>
							<path style="fill:#FFFFFF;" d="M286.789,55.599V43.305c0.228-0.048,0.525-0.072,0.891-0.072c0.367,0,0.67,0.024,0.91,0.072
								v12.294c-0.24,0.048-0.543,0.072-0.91,0.072C287.314,55.671,287.018,55.646,286.789,55.599z"/>
							<path style="fill:#FFFFFF;" d="M287.68,55.921c-0.379,0-0.696-0.026-0.941-0.077c-0.116-0.024-0.199-0.127-0.199-0.245
								V43.305c0-0.118,0.083-0.221,0.199-0.245c0.491-0.102,1.388-0.102,1.9,0c0.117,0.023,0.201,0.126,0.201,0.245v12.294
								c0,0.119-0.084,0.222-0.201,0.245C288.382,55.895,288.06,55.921,287.68,55.921z M287.039,55.387
								c0.362,0.045,0.927,0.045,1.301-0.001V43.518c-0.374-0.046-0.938-0.047-1.301-0.001V55.387z"/>
						</g>
						<g>
							<path style="fill:#FFFFFF;" d="M295.375,45.429h-0.072c0.096,1.632,0.145,3.066,0.145,4.302v5.868
								c-0.277,0.048-0.557,0.072-0.838,0.072c-0.281,0-0.561-0.024-0.836-0.072V43.323c0.336-0.061,0.703-0.091,1.105-0.091
								c0.402,0,0.754,0.024,1.055,0.072l3.924,7.687c0.18,0.348,0.406,0.824,0.684,1.431c0.275,0.606,0.455,0.987,0.539,1.143
								v0.019l0.055-0.019c-0.096-1.512-0.145-2.993-0.145-4.446v-4.752c0-0.407,0.07-0.698,0.207-0.873
								c0.139-0.174,0.392-0.261,0.766-0.261h0.576l0.125,0.091v12.258c-0.336,0.059-0.707,0.09-1.115,0.09
								s-0.762-0.024-1.063-0.072l-3.941-7.685C296.185,47.204,295.795,46.377,295.375,45.429z"/>
							<path style="fill:#FFFFFF;" d="M301.549,55.921c-0.417,0-0.787-0.025-1.102-0.075c-0.079-0.013-0.147-0.063-0.184-0.133
								l-3.941-7.686c-0.227-0.448-0.464-0.938-0.709-1.467c0.056,1.177,0.084,2.239,0.084,3.17v5.868
								c0,0.122-0.088,0.226-0.207,0.246c-0.584,0.102-1.18,0.102-1.76,0c-0.119-0.021-0.207-0.125-0.207-0.246V43.323
								c0-0.121,0.087-0.225,0.206-0.246c0.694-0.124,1.612-0.12,2.243-0.02c0.079,0.013,0.147,0.063,0.184,0.134l3.924,7.687
								c0.181,0.349,0.409,0.829,0.689,1.441c0.018,0.039,0.036,0.078,0.053,0.116c-0.054-1.128-0.081-2.239-0.081-3.316v-4.752
								c0-0.468,0.085-0.804,0.26-1.027c0.189-0.237,0.513-0.357,0.963-0.357h0.576c0.053,0,0.104,0.017,0.146,0.048l0.125,0.091
								c0.066,0.047,0.104,0.122,0.104,0.202v12.258c0,0.121-0.087,0.225-0.206,0.246C302.357,55.89,301.967,55.921,301.549,55.921z
								 M300.649,55.37c0.501,0.064,1.205,0.07,1.765-0.003V43.482h-0.451c-0.199,0-0.46,0.029-0.57,0.167
								c-0.068,0.088-0.152,0.285-0.152,0.717v4.752c0,1.431,0.049,2.921,0.144,4.431c0.008,0.112-0.061,0.216-0.169,0.252
								c-0.073,0.027-0.185,0.023-0.253-0.023c-0.036-0.026-0.073-0.059-0.099-0.096l-0.003,0.002
								c-0.088-0.162-0.267-0.541-0.547-1.158c-0.275-0.602-0.5-1.074-0.678-1.419l-3.866-7.573c-0.5-0.063-1.192-0.071-1.746,0.004
								v11.847c0.389,0.049,0.781,0.049,1.174,0V49.73c0-1.214-0.049-2.656-0.145-4.287c-0.004-0.068,0.02-0.136,0.068-0.187
								c0.047-0.05,0.112-0.078,0.182-0.078h0.072c0.099,0,0.189,0.059,0.228,0.148c0.408,0.922,0.8,1.754,1.164,2.473
								L300.649,55.37z"/>
						</g>
						<g>
							<path style="fill:#FFFFFF;" d="M312.439,49.19h2.771c0.467,0,0.801,0.1,0.998,0.297c0.199,0.198,0.297,0.495,0.297,0.891
								v4.681c-1.344,0.517-2.813,0.774-4.41,0.774c-0.898,0-1.686-0.172-2.357-0.514c-0.672-0.342-1.193-0.813-1.566-1.412
								c-0.756-1.176-1.133-2.635-1.133-4.375c0-1.104,0.15-2.082,0.449-2.934c0.301-0.851,0.709-1.523,1.225-2.016
								c1.02-1.008,2.219-1.512,3.6-1.512c1.645,0,3.035,0.443,4.176,1.332c-0.096,0.563-0.396,1.014-0.9,1.35
								c-0.971-0.756-2.068-1.135-3.293-1.135c-1.008,0-1.824,0.396-2.449,1.188c-0.623,0.792-0.936,2.04-0.936,3.744
								c0,3.181,1.17,4.771,3.51,4.771c0.84,0,1.627-0.109,2.359-0.324v-2.107c0-0.528,0.006-0.905,0.018-1.134h-1.656
								c-0.564,0-0.846-0.27-0.846-0.811C312.295,49.73,312.342,49.479,312.439,49.19z"/>
							<path style="fill:#FFFFFF;" d="M312.096,56.083c-0.934,0-1.766-0.182-2.471-0.541c-0.709-0.36-1.27-0.866-1.665-1.503
								c-0.776-1.207-1.171-2.725-1.171-4.507c0-1.125,0.156-2.141,0.463-3.017c0.313-0.885,0.746-1.597,1.288-2.113
								c1.061-1.048,2.33-1.581,3.772-1.581c1.693,0,3.15,0.466,4.329,1.385c0.073,0.057,0.108,0.148,0.093,0.239
								c-0.107,0.631-0.446,1.142-1.008,1.516c-0.091,0.061-0.209,0.055-0.292-0.011c-0.922-0.718-1.979-1.082-3.14-1.082
								c-0.935,0-1.673,0.357-2.253,1.094c-0.585,0.743-0.882,1.951-0.882,3.589c0,3.042,1.066,4.521,3.26,4.521
								c0.74,0,1.449-0.089,2.109-0.264v-1.917c0-0.366,0.003-0.66,0.009-0.884h-1.397c-0.707,0-1.096-0.377-1.096-1.061
								c0-0.246,0.053-0.527,0.158-0.836c0.034-0.102,0.129-0.17,0.236-0.17h2.771c0.534,0,0.93,0.125,1.175,0.37
								c0.245,0.244,0.37,0.604,0.37,1.067v4.681c0,0.104-0.064,0.196-0.16,0.233C315.23,55.816,313.716,56.083,312.096,56.083z
								 M312.313,43.321c-1.306,0-2.458,0.484-3.424,1.439c-0.487,0.466-0.879,1.111-1.165,1.921
								c-0.288,0.822-0.435,1.781-0.435,2.851c0,1.685,0.368,3.111,1.093,4.24c0.35,0.561,0.843,1.005,1.47,1.324
								c0.635,0.322,1.39,0.486,2.244,0.486c1.495,0,2.895-0.234,4.16-0.697v-4.508c0-0.326-0.075-0.566-0.224-0.714
								c-0.147-0.146-0.431-0.224-0.821-0.224h-2.587c-0.053,0.188-0.079,0.358-0.079,0.506c0,0.403,0.167,0.561,0.596,0.561h1.656
								c0.068,0,0.134,0.028,0.182,0.078c0.047,0.05,0.071,0.116,0.068,0.185c-0.012,0.226-0.018,0.599-0.018,1.121v2.107
								c0,0.111-0.073,0.209-0.18,0.24c-0.756,0.222-1.573,0.334-2.43,0.334c-2.495,0-3.76-1.689-3.76-5.021
								c0-1.753,0.333-3.064,0.989-3.898c0.672-0.853,1.563-1.284,2.646-1.284c1.212,0,2.32,0.361,3.296,1.074
								c0.322-0.252,0.526-0.56,0.62-0.936C315.144,43.72,313.833,43.321,312.313,43.321z"/>
						</g>
						<g>
							<path style="fill:#FFFFFF;" d="M324.785,51.566h-4.391c-0.049-0.204-0.072-0.452-0.072-0.747
								c0-0.293,0.023-0.555,0.072-0.783h4.391c0.061,0.205,0.092,0.463,0.092,0.774C324.877,51.123,324.846,51.375,324.785,51.566z
								"/>
							<path style="fill:#FFFFFF;" d="M324.785,51.816h-4.391c-0.115,0-0.216-0.079-0.243-0.191
								c-0.053-0.223-0.079-0.486-0.079-0.806c0-0.313,0.026-0.594,0.078-0.835c0.024-0.116,0.126-0.198,0.244-0.198h4.391
								c0.11,0,0.208,0.073,0.24,0.18c0.067,0.229,0.102,0.514,0.102,0.845c0,0.335-0.035,0.614-0.104,0.831
								C324.99,51.746,324.895,51.816,324.785,51.816z M320.602,51.316h3.986c0.025-0.142,0.038-0.31,0.038-0.506
								c0-0.198-0.014-0.374-0.04-0.524h-3.982c-0.021,0.161-0.032,0.339-0.032,0.533C320.572,51.006,320.582,51.172,320.602,51.316
								z"/>
						</g>
						<g>
							<path style="fill:#FFFFFF;" d="M331.949,54.141l-0.018-1.188v-4.319c0-0.228,0.029-0.954,0.09-2.179
								c-0.695,0.865-1.572,1.519-2.627,1.963c-0.397-0.229-0.648-0.576-0.756-1.045c1.703-1.055,2.826-2.201,3.365-3.438
								c0.24-0.061,0.514-0.09,0.818-0.09c0.307,0,0.586,0.029,0.838,0.09v9.017l-0.018,1.188l1.043-0.018h1.26
								c0.061,0.265,0.09,0.508,0.09,0.729c0,0.222-0.029,0.472-0.09,0.747h-6.678c-0.061-0.275-0.09-0.525-0.09-0.747
								c0-0.222,0.029-0.465,0.09-0.729h1.674L331.949,54.141z"/>
							<path style="fill:#FFFFFF;" d="M335.945,55.849h-6.678c-0.117,0-0.219-0.082-0.244-0.196
								c-0.063-0.289-0.096-0.559-0.096-0.801s0.032-0.507,0.096-0.785c0.026-0.113,0.128-0.194,0.244-0.194l2.428,0.014
								l-0.014-0.93v-4.323c0-0.189,0.02-0.698,0.057-1.487c-0.632,0.635-1.385,1.139-2.247,1.502
								c-0.07,0.028-0.153,0.026-0.222-0.014c-0.457-0.264-0.752-0.67-0.875-1.206c-0.023-0.104,0.021-0.212,0.112-0.269
								c1.652-1.023,2.752-2.142,3.268-3.324c0.031-0.071,0.094-0.124,0.168-0.143c0.514-0.129,1.241-0.13,1.776-0.001
								c0.112,0.027,0.191,0.128,0.191,0.243l-0.014,9.951l2.049-0.014c0.116,0,0.218,0.081,0.244,0.194
								c0.063,0.278,0.096,0.543,0.096,0.785s-0.032,0.512-0.096,0.801C336.164,55.767,336.063,55.849,335.945,55.849z
								 M329.474,55.349h6.266c0.03-0.179,0.046-0.345,0.046-0.497c0-0.15-0.015-0.31-0.044-0.479l-2.094,0.018
								c-0.002,0-0.004,0-0.005,0c-0.066,0-0.13-0.026-0.177-0.073c-0.048-0.048-0.074-0.112-0.073-0.181l0.018-1.188V44.14
								c-0.381-0.064-0.87-0.059-1.229,0.012c-0.558,1.194-1.65,2.314-3.251,3.333c0.095,0.275,0.255,0.49,0.486,0.65
								c0.962-0.426,1.772-1.044,2.41-1.837c0.068-0.085,0.183-0.117,0.284-0.077c0.102,0.038,0.166,0.138,0.161,0.246
								c-0.058,1.167-0.09,1.937-0.09,2.166l0.018,5.504c0.001,0.068-0.025,0.133-0.073,0.181c-0.048,0.048-0.116,0.072-0.182,0.073
								l-2.473-0.018c-0.029,0.17-0.044,0.33-0.044,0.479C329.428,55.004,329.443,55.17,329.474,55.349z"/>
						</g>
						<g>
							<path style="fill:#FFFFFF;" d="M345.846,53.061l0.018,0.899v1.639c-0.24,0.048-0.525,0.072-0.853,0.072
								c-0.332,0-0.615-0.024-0.855-0.072V53.96l0.018-0.899l-0.918,0.019h-3.258c-0.264-0.444-0.397-0.777-0.397-1
								c0-0.221,0.119-0.614,0.359-1.179l3.06-7.073c0.119-0.024,0.252-0.037,0.396-0.037c0.539,0,0.953,0.121,1.242,0.36
								l-2.178,5.005c-0.492,1.151-0.883,1.968-1.17,2.447l0.035,0.055c0.684-0.037,1.361-0.055,2.033-0.055h0.793
								c-0.012-0.132-0.018-0.336-0.018-0.611v-1.513c0-0.42,0.102-0.747,0.305-0.981c0.205-0.233,0.486-0.351,0.848-0.351h0.484
								l0.072,0.072v2.466l-0.018,0.918l0.811-0.018h1.008c0.035,0.156,0.055,0.377,0.055,0.666c0,0.287-0.043,0.558-0.127,0.81
								H345.846z"/>
							<path style="fill:#FFFFFF;" d="M345.01,55.921c-0.348,0-0.644-0.025-0.904-0.077c-0.117-0.023-0.201-0.126-0.201-0.245
								l0.013-2.283l-0.658,0.014h-3.263c-0.088,0-0.17-0.047-0.215-0.122c-0.295-0.496-0.432-0.854-0.432-1.128
								c0-0.259,0.124-0.677,0.379-1.276l3.062-7.075c0.032-0.074,0.1-0.129,0.18-0.146c0.137-0.027,0.286-0.042,0.446-0.042
								c0.595,0,1.066,0.141,1.401,0.418c0.086,0.071,0.114,0.19,0.07,0.292l-2.178,5.005c-0.393,0.918-0.726,1.634-0.992,2.134
								c0.549-0.024,1.106-0.036,1.661-0.036h0.53c-0.003-0.104-0.005-0.224-0.005-0.361v-1.513c0-0.479,0.123-0.865,0.366-1.146
								c0.255-0.29,0.603-0.437,1.036-0.437h0.484c0.066,0,0.13,0.026,0.177,0.073l0.072,0.072c0.047,0.047,0.073,0.11,0.073,0.177
								l-0.013,3.128l1.564-0.012c0.117,0,0.218,0.081,0.244,0.195c0.04,0.179,0.061,0.422,0.061,0.721
								c0,0.312-0.047,0.61-0.14,0.889c-0.034,0.102-0.13,0.171-0.237,0.171h-1.491l0.013,0.645v1.643
								c0,0.119-0.084,0.222-0.201,0.245C345.655,55.895,345.352,55.921,345.01,55.921z M344.404,55.386
								c0.357,0.047,0.848,0.047,1.209,0l-0.018-2.32c-0.001-0.067,0.024-0.132,0.071-0.18c0.047-0.048,0.111-0.075,0.179-0.075
								h1.558c0.044-0.178,0.065-0.365,0.065-0.56c0-0.178-0.008-0.313-0.019-0.416l-1.599,0.018
								c-0.071,0.004-0.135-0.025-0.183-0.073c-0.048-0.048-0.074-0.113-0.073-0.182l0.018-0.918v-2.283h-0.307
								c-0.287,0-0.503,0.087-0.66,0.266c-0.16,0.186-0.242,0.46-0.242,0.816v1.513c0,0.266,0.005,0.462,0.017,0.589
								c0.006,0.07-0.018,0.14-0.065,0.191c-0.048,0.052-0.114,0.081-0.184,0.081h-0.793c-0.676,0-1.356,0.019-2.02,0.055
								c-0.09-0.005-0.176-0.039-0.224-0.115l-0.035-0.055c-0.052-0.079-0.054-0.182-0.005-0.264c0.281-0.47,0.67-1.282,1.155-2.417
								l2.096-4.817c-0.233-0.133-0.546-0.199-0.931-0.199c-0.078,0-0.151,0.004-0.222,0.013L340.188,51
								c-0.295,0.692-0.339,0.974-0.339,1.079c0,0.091,0.04,0.304,0.291,0.75l4.026-0.019c0.075,0.003,0.134,0.025,0.182,0.073
								c0.048,0.048,0.074,0.113,0.073,0.182L344.404,55.386z"/>
						</g>
					</g>
				</g>
			</g>
		</g>
	</g>
</g>
<g>
	<g>
		<g>
			<g>
				<g>
					<g>
						<path style="fill:#FFFFFF;" d="M167.707,363.411c0.115,1.968,1.45,3.577,2.998,3.528l43.746-1.331
							c1.558-0.045,2.74-1.697,2.624-3.702l0,0c-0.111-1.994-1.463-3.556-3.013-3.526l-43.738,1.352
							C168.77,359.765,167.608,361.422,167.707,363.411L167.707,363.411z"/>
						<path d="M170.637,367.69c-1.924,0-3.539-1.86-3.679-4.235c-0.066-1.34,0.353-2.594,1.148-3.447
							c0.6-0.645,1.382-1.008,2.202-1.025l43.73-1.352c0.001,0,0.001,0,0.002,0c2.018,0,3.65,1.86,3.783,4.234
							c0.076,1.32-0.332,2.572-1.121,3.434c-0.605,0.659-1.397,1.036-2.23,1.06l-43.745,1.331
							C170.721,367.69,170.644,367.69,170.637,367.69z M214.105,359.13l-43.758,1.352c-0.535,0.011-0.917,0.304-1.145,0.548
							c-0.513,0.551-0.792,1.427-0.747,2.344c0.089,1.523,1.088,2.816,2.181,2.816v0.75l0.045-0.751l43.747-1.331
							c0.545-0.016,0.936-0.321,1.169-0.574c0.509-0.556,0.781-1.429,0.728-2.335C216.239,360.394,215.243,359.13,214.105,359.13z"
							/>
					</g>
				</g>
				<g>
					<g>
						<path style="fill:#FFFFFF;" d="M28.156,388.373c0.011,3.099,2.535,5.575,5.621,5.562l144.777-0.965
							c3.093-0.014,5.585-2.535,5.575-5.603l-0.524-85.808c-0.031-3.094-2.541-5.593-5.635-5.573l-23.012,0.146
							c0,0,2.89,42.053-24.729,42.227c-25.969,0.179-24.573-41.932-24.573-41.932l-72.479,0.523
							c-3.086,0.019-5.567,2.543-5.563,5.624L28.156,388.373z"/>
						<path d="M33.752,394.685c-3.487,0-6.334-2.83-6.346-6.309l-0.541-85.797c-0.006-3.498,2.824-6.358,6.308-6.379l72.479-0.523
							c0.002,0,0.004,0,0.006,0c0.202,0,0.396,0.082,0.537,0.227c0.143,0.147,0.219,0.344,0.213,0.548
							c-0.009,0.242-0.673,24.353,10.137,35.523c3.618,3.738,8.167,5.635,13.519,5.635c0.001,0,0.002,0,0.003,0l0.16-0.001
							c6.009-0.038,10.998-2.149,14.827-6.275c10.645-11.471,9.174-34.914,9.158-35.149c-0.015-0.207,0.058-0.41,0.198-0.561
							c0.141-0.152,0.338-0.239,0.545-0.24l23.012-0.146c3.507,0,6.355,2.833,6.39,6.315l0.524,85.81
							c0.011,3.492-2.825,6.343-6.322,6.358l-144.775,0.965C33.78,394.685,33.754,394.685,33.752,394.685z M104.893,297.183
							L33.184,297.7c-2.662,0.016-4.822,2.202-4.818,4.873l0.541,85.795c0.009,2.656,2.183,4.816,4.846,4.816v0.75l0.022-0.75
							l144.775-0.965c2.673-0.012,4.839-2.188,4.83-4.852l-0.524-85.805c-0.027-2.661-2.202-4.828-4.849-4.828l-22.257,0.142
							c0.188,4.335,0.484,24.609-9.596,35.474c-4.122,4.443-9.479,6.717-15.919,6.758l-0.169,0.001c-0.001,0-0.003,0-0.004,0
							c-5.775,0-10.687-2.051-14.599-6.094C105.205,322.411,104.85,301.551,104.893,297.183z"/>
					</g>
					<g>
						<path style="fill:#FFFFFF;" d="M28.156,388.373c0.011,3.099,2.535,5.575,5.621,5.562l144.777-0.965
							c3.093-0.014,5.585-2.535,5.575-5.603l-0.524-85.808c-0.031-3.094-2.541-5.593-5.635-5.573l-23.012,0.146
							c0,0,2.89,42.053-24.729,42.227c-25.969,0.179-24.573-41.932-24.573-41.932l-72.479,0.523
							c-3.086,0.019-5.567,2.543-5.563,5.624L28.156,388.373z"/>
						<path d="M33.752,394.685c-3.487,0-6.334-2.83-6.346-6.309l-0.541-85.797c-0.006-3.498,2.824-6.358,6.308-6.379l72.479-0.523
							c0.002,0,0.004,0,0.006,0c0.202,0,0.396,0.082,0.537,0.227c0.143,0.147,0.219,0.344,0.213,0.548
							c-0.009,0.242-0.673,24.353,10.137,35.523c3.618,3.738,8.167,5.635,13.519,5.635c0.001,0,0.002,0,0.003,0l0.16-0.001
							c6.009-0.038,10.998-2.149,14.827-6.275c10.645-11.471,9.174-34.914,9.158-35.149c-0.015-0.207,0.058-0.41,0.198-0.561
							c0.141-0.152,0.338-0.239,0.545-0.24l23.012-0.146c3.507,0,6.355,2.833,6.39,6.315l0.524,85.81
							c0.011,3.492-2.825,6.343-6.322,6.358l-144.775,0.965C33.78,394.685,33.754,394.685,33.752,394.685z M104.893,297.183
							L33.184,297.7c-2.662,0.016-4.822,2.202-4.818,4.873l0.541,85.795c0.009,2.656,2.183,4.816,4.846,4.816v0.75l0.022-0.75
							l144.775-0.965c2.673-0.012,4.839-2.188,4.83-4.852l-0.524-85.805c-0.027-2.661-2.202-4.828-4.849-4.828l-22.257,0.142
							c0.188,4.335,0.484,24.609-9.596,35.474c-4.122,4.443-9.479,6.717-15.919,6.758l-0.169,0.001c-0.001,0-0.003,0-0.004,0
							c-5.775,0-10.687-2.051-14.599-6.094C105.205,322.411,104.85,301.551,104.893,297.183z"/>
					</g>
					<g>
						<polygon style="fill:#FFFFFF;" points="76.11,315.048 81.932,326.832 94.932,328.723 85.525,337.895 87.744,350.844 
							76.11,344.726 64.481,350.844 66.705,337.895 57.295,328.723 70.302,326.832 						"/>
						<path d="M64.481,351.594c-0.155,0-0.311-0.048-0.44-0.144c-0.231-0.168-0.347-0.452-0.299-0.733l2.157-12.56l-9.128-8.897
							c-0.204-0.199-0.278-0.497-0.189-0.769c0.088-0.272,0.322-0.47,0.605-0.511l12.616-1.834l5.634-11.431
							c0.126-0.256,0.387-0.418,0.673-0.418l0,0c0.285,0,0.546,0.162,0.673,0.418l5.646,11.431l12.61,1.834
							c0.282,0.041,0.517,0.239,0.604,0.511c0.089,0.271,0.015,0.569-0.189,0.769l-9.124,8.897l2.152,12.56
							c0.048,0.281-0.067,0.566-0.299,0.733c-0.229,0.169-0.537,0.19-0.789,0.058l-11.285-5.935l-11.279,5.935
							C64.721,351.565,64.601,351.594,64.481,351.594z M76.11,343.976c0.12,0,0.24,0.028,0.349,0.086l10.289,5.411l-1.962-11.451
							c-0.042-0.243,0.039-0.491,0.216-0.664l8.318-8.111l-11.497-1.672c-0.244-0.035-0.455-0.188-0.564-0.41l-5.147-10.421
							l-5.137,10.421c-0.109,0.221-0.32,0.375-0.565,0.41l-11.503,1.672l8.322,8.111c0.177,0.172,0.258,0.421,0.216,0.664
							l-1.967,11.45l10.283-5.41C75.87,344.004,75.99,343.976,76.11,343.976z"/>
					</g>
					<g>
						<path style="fill:#FFFFFF;" d="M130.608,344.269c7.883-0.032,14.453-2.65,19.483-7.768
							c9.127-9.271,10.592-24.519,10.788-33.835l26.339-0.164c3.261-0.006,5.901-2.667,5.886-5.947
							c-0.038-3.263-2.701-5.892-5.959-5.878l-32.222,0.197c-3.264,0.018-5.898,2.678-5.877,5.939l0.016,0.974
							c0.05,6.191,0.229,22.669-7.4,30.412c-2.798,2.824-6.422,4.223-11.141,4.242c-15.592,0.101-18.825-13.715-18.944-36.039
							c-0.022-3.266-2.691-5.904-5.955-5.888l-80.973,0.57c-3.265,0.021-5.894,2.691-5.884,5.962
							c0.024,3.269,2.701,5.907,5.968,5.874l75.087-0.523C100.313,318.44,103.699,344.435,130.608,344.269z"/>
						<path d="M130.352,345.02c-29.309-0.003-30.9-30.659-31.259-41.868l-74.355,0.518c-3.71,0-6.696-2.969-6.723-6.618
							c-0.011-3.682,2.963-6.693,6.629-6.718l80.973-0.57c3.69,0,6.685,2.976,6.71,6.633c0.116,21.79,3.172,35.295,18.025,35.295
							l0.164-0.001c4.48-0.018,7.951-1.333,10.612-4.02c7.365-7.476,7.233-23.672,7.185-29.769l-0.017-1.078
							c-0.012-1.782,0.67-3.456,1.919-4.721c1.252-1.267,2.923-1.97,4.704-1.979l32.221-0.197c3.673,0,6.671,2.97,6.714,6.619
							c0.009,1.795-0.68,3.479-1.938,4.745c-1.253,1.262-2.921,1.958-4.696,1.961l-25.607,0.159
							c-0.43,15.338-4.124,26.646-10.986,33.616c-5.18,5.27-11.914,7.958-20.015,7.991L130.352,345.02z M99.82,301.647
							c0.405,0,0.737,0.321,0.75,0.726c0.851,27.686,10.593,41.145,29.782,41.147l0.251-0.001
							c7.688-0.031,14.064-2.569,18.953-7.543c6.693-6.799,10.251-18.011,10.573-33.325c0.009-0.406,0.339-0.731,0.745-0.734
							l26.339-0.164c1.377-0.003,2.668-0.542,3.638-1.518c0.976-0.982,1.51-2.288,1.503-3.676c-0.033-2.827-2.358-5.132-5.184-5.132
							l-32.242,0.197c-1.381,0.008-2.676,0.552-3.645,1.534c-0.968,0.978-1.495,2.275-1.486,3.649l0.017,1.083
							c0.051,6.267,0.186,22.915-7.617,30.834c-2.957,2.985-6.774,4.445-11.672,4.466l-0.172,0.001
							c-16.096,0-19.404-14.075-19.525-36.786c-0.02-2.835-2.341-5.142-5.175-5.142l-80.998,0.57
							c-2.842,0.018-5.148,2.355-5.139,5.21c0.021,2.825,2.334,5.126,5.157,5.126l75.143-0.523
							C99.816,301.647,99.818,301.647,99.82,301.647z"/>
					</g>
					<g>
						<g>
							<path style="fill:#FFFFFF;" d="M127.662,401.341l19.752-0.11l-13.334-12.767c-0.785-0.737-0.815-2.005-0.073-2.794
								c0.76-0.799,2.019-0.813,2.812-0.058l13.495,12.908l-0.11-18.676c0-1.092,0.869-1.964,1.953-1.994
								c1.092-0.02,1.989,0.88,1.993,1.973l0.112,18.672l13.353-13.075c0.76-0.761,2.022-0.761,2.779,0.042
								c0.778,0.768,0.749,2.025-0.015,2.793l-13.202,12.906l20.112-0.122c1.098-0.016,1.973,0.886,2.004,1.953
								c0,1.078-0.886,1.98-1.979,1.98l-20.101,0.137l13.345,12.766c0.782,0.736,0.814,1.997,0.053,2.763
								c-0.37,0.415-0.893,0.616-1.408,0.62c-0.488,0-0.987-0.181-1.36-0.549l-13.516-12.892l0.106,18.667
								c0,1.102-0.865,1.983-1.959,2.012c-1.087,0-1.979-0.897-1.984-1.977l-0.107-18.691l-13.368,13.079
								c-0.378,0.382-0.856,0.551-1.356,0.564c-0.515,0-1.033-0.214-1.434-0.598c-0.744-0.784-0.742-2.011,0.038-2.785l13.19-12.923
								l-19.778,0.132c-1.088,0-1.975-0.877-1.975-1.965C125.689,402.241,126.563,401.353,127.662,401.341z"/>
							<path d="M152.475,429.245c-1.5,0-2.727-1.222-2.734-2.723l-0.098-16.922l-12.104,11.842c-0.48,0.486-1.127,0.758-1.86,0.778
								h-0.001c-0.727,0-1.438-0.294-1.972-0.807c-1.062-1.116-1.038-2.801,0.028-3.858l11.869-11.628l-17.924,0.119
								c-1.507,0-2.729-1.218-2.729-2.715c-0.015-1.492,1.198-2.726,2.704-2.741l17.902-0.1l-11.995-11.485
								c-0.521-0.49-0.822-1.166-0.841-1.9c-0.019-0.73,0.244-1.423,0.74-1.949c1.011-1.064,2.812-1.1,3.875-0.087l12.217,11.686
								l-0.1-16.905c0-1.502,1.178-2.707,2.683-2.749c0,0,0,0,0.001,0c1.543,0,2.758,1.221,2.763,2.72l0.102,16.901l12.089-11.838
								c1.02-1.02,2.844-1.002,3.85,0.064c0.489,0.482,0.771,1.155,0.775,1.877c0.003,0.729-0.29,1.442-0.805,1.96l-11.882,11.615
								l18.256-0.11c1.492,0,2.715,1.203,2.759,2.682c0,1.526-1.224,2.751-2.729,2.751l-18.245,0.124l12.008,11.486
								c0.518,0.487,0.824,1.185,0.837,1.908c0.012,0.729-0.262,1.413-0.77,1.925c-0.461,0.519-1.176,0.836-1.935,0.842
								c-0.713,0-1.4-0.279-1.893-0.765l-12.229-11.664l0.097,16.901c0,1.514-1.182,2.727-2.689,2.766
								C152.487,429.245,152.481,429.245,152.475,429.245z M150.383,407.077c0.098,0,0.195,0.019,0.289,0.058
								c0.277,0.116,0.459,0.387,0.461,0.688l0.107,18.691c0.004,0.664,0.564,1.225,1.225,1.23c0.685-0.022,1.219-0.575,1.219-1.262
								l-0.106-18.663c-0.002-0.301,0.177-0.573,0.453-0.692c0.276-0.118,0.597-0.063,0.814,0.146l13.516,12.892
								c0.224,0.221,0.527,0.342,0.843,0.342c0.33-0.003,0.642-0.137,0.849-0.369c0.249-0.252,0.367-0.552,0.362-0.873
								c-0.006-0.325-0.137-0.625-0.369-0.845l-13.35-12.77c-0.221-0.211-0.291-0.535-0.179-0.819
								c0.113-0.283,0.387-0.471,0.692-0.473l20.101-0.137c0.671,0,1.233-0.564,1.233-1.23c-0.02-0.653-0.569-1.203-1.226-1.203
								l-20.136,0.122c-0.298-0.024-0.582-0.182-0.698-0.465s-0.05-0.607,0.169-0.821l13.202-12.906
								c0.228-0.23,0.361-0.556,0.36-0.888c-0.002-0.319-0.125-0.615-0.348-0.835c-0.482-0.51-1.27-0.501-1.723-0.046
								l-13.358,13.081c-0.216,0.21-0.537,0.271-0.813,0.156c-0.278-0.116-0.46-0.387-0.462-0.688l-0.112-18.672
								c-0.002-0.678-0.545-1.228-1.208-1.228c-0.7,0.019-1.238,0.565-1.238,1.244l0.11,18.671c0.002,0.302-0.177,0.574-0.453,0.693
								c-0.276,0.118-0.598,0.06-0.816-0.147L136.3,386.154c-0.477-0.456-1.295-0.444-1.75,0.032
								c-0.22,0.234-0.338,0.548-0.329,0.881c0.008,0.33,0.141,0.632,0.373,0.85l13.339,12.772c0.221,0.212,0.291,0.536,0.178,0.819
								c-0.112,0.284-0.387,0.471-0.692,0.473l-19.752,0.11c-0.675,0.007-1.223,0.561-1.216,1.233c0,0.678,0.55,1.223,1.225,1.223
								l19.773-0.132c0.002,0,0.003,0,0.005,0c0.304,0,0.577,0.184,0.693,0.464c0.116,0.283,0.05,0.608-0.169,0.822l-13.19,12.923
								c-0.479,0.475-0.488,1.237-0.018,1.732c0.233,0.223,0.566,0.364,0.89,0.364c0.324-0.009,0.607-0.124,0.823-0.342
								l13.377-13.088C150.001,407.151,150.19,407.077,150.383,407.077z"/>
						</g>
						<g>
							<path style="fill:#FFFFFF;" d="M122.065,403.348c0.114,16.697,13.73,30.163,30.442,30.078
								c16.695-0.121,30.148-13.75,30.063-30.453c-0.099-16.701-13.729-30.171-30.432-30.055
								C135.439,373.015,121.973,386.649,122.065,403.348z M129.64,403.3c-0.072-12.512,10.002-22.735,22.544-22.814
								c12.525-0.075,22.746,10.006,22.813,22.538c0.079,12.532-10.02,22.762-22.547,22.824
								C139.925,425.927,129.718,415.824,129.64,403.3z"/>
							<path d="M152.351,434.176c-16.997-0.001-30.919-13.828-31.035-30.823c-0.095-17.097,13.73-31.086,30.819-31.185l0.219-0.001
								c16.975,0,30.866,13.817,30.967,30.801c0.088,17.085-13.732,31.084-30.807,31.208H152.351z M152.354,373.667l-0.21,0.001
								c-16.263,0.094-29.419,13.406-29.328,29.676c0.11,16.173,13.36,29.331,29.535,29.332h0.153
								c16.248-0.118,29.4-13.44,29.316-29.699C181.725,386.815,168.506,373.667,152.354,373.667z M152.305,426.599
								c-12.831,0-23.335-10.449-23.415-23.294c-0.074-12.915,10.373-23.488,23.289-23.568h0.145
								c12.848,0,23.354,10.445,23.423,23.284c0.039,6.267-2.365,12.172-6.771,16.629c-4.4,4.45-10.268,6.918-16.521,6.949H152.305z
								 M152.323,381.236h-0.135c-12.09,0.075-21.869,9.971-21.799,22.06c0.075,12.022,9.906,21.803,21.915,21.803h0.14
								c5.854-0.029,11.345-2.339,15.464-6.504c4.124-4.172,6.375-9.699,6.338-15.565
								C174.183,391.012,164.348,381.236,152.323,381.236z"/>
						</g>
						<g>
							<path style="fill:#FFFFFF;" d="M116.15,399.261c2.814,2.776,72.345,4.158,72.315-0.444
								c-0.123-19.963-16.402-36.05-36.373-35.935C132.119,363.006,116.018,379.276,116.15,399.261z"/>
							<path d="M156.685,402.566c-0.001,0-0.002,0-0.004,0c-12.479,0-38.934-0.678-41.057-2.772c-0.142-0.14-0.223-0.33-0.224-0.529
								c-0.065-9.863,3.716-19.156,10.647-26.169c6.929-7.01,16.177-10.903,26.04-10.965l0.218-0.001
								c20.228,0,36.785,16.455,36.91,36.681c0.002,0.24-0.069,0.601-0.417,0.949C186.374,402.202,167.639,402.566,156.685,402.566z
								 M116.9,398.847c2.504,1.048,19.743,2.22,39.78,2.22c22.809,0,30.201-1.449,31.034-2.338
								c-0.169-19.361-16.034-35.098-35.409-35.098l-0.209,0.001c-9.462,0.059-18.334,3.795-24.981,10.52
								C120.56,380.781,116.942,389.537,116.9,398.847z"/>
						</g>
					</g>
					<g>
						<g>
							<path style="fill:#FFFFFF;" d="M35.85,401.974l19.756-0.123l-13.34-12.744c-0.788-0.764-0.816-2.015-0.059-2.792
								c0.757-0.781,1.993-0.82,2.773-0.062l13.526,12.917l-0.114-18.717c0-1.069,0.868-1.961,1.956-1.975
								c1.091,0,1.977,0.864,1.984,1.951l0.129,18.704l13.349-13.08c0.77-0.757,2.013-0.737,2.782,0.043
								c0.766,0.766,0.749,2.022-0.031,2.778l-13.191,12.907l20.106-0.1c1.096-0.03,1.985,0.857,1.994,1.938
								c0,1.101-0.889,1.977-1.979,1.995l-20.104,0.13L78.748,418.5c0.771,0.744,0.802,1.985,0.068,2.788
								c-0.383,0.41-0.914,0.608-1.402,0.608c-0.518,0-1.013-0.178-1.41-0.54l-13.49-12.93l0.109,18.703
								c0.012,1.081-0.87,1.97-1.957,1.97c-1.093,0-1.976-0.851-1.99-1.956l-0.108-18.711l-13.362,13.102
								c-0.374,0.373-0.865,0.558-1.351,0.558c-0.528,0-1.036-0.185-1.444-0.596c-0.759-0.763-0.742-2.031,0.042-2.779
								l13.173-12.915l-19.759,0.109c-1.081,0.021-1.971-0.871-1.984-1.959C33.882,402.885,34.754,401.985,35.85,401.974z"/>
							<path d="M60.666,429.85c-1.517,0-2.72-1.185-2.74-2.696l-0.098-16.945L45.73,422.069c-0.498,0.497-1.166,0.772-1.876,0.772
								c-0.763,0-1.445-0.282-1.977-0.817c-0.51-0.512-0.785-1.197-0.775-1.931c0.01-0.735,0.305-1.417,0.832-1.92l11.844-11.612
								l-17.908,0.1l0,0c-1.511,0-2.72-1.211-2.738-2.699c0-1.498,1.216-2.723,2.71-2.738l17.905-0.111l-12-11.464
								c-0.532-0.517-0.83-1.203-0.841-1.936c-0.011-0.723,0.261-1.405,0.763-1.921c1.013-1.047,2.797-1.085,3.833-0.076
								l12.243,11.691l-0.103-16.948c0-1.488,1.21-2.711,2.696-2.73c1.507,0,2.733,1.209,2.744,2.695l0.117,16.937l12.085-11.843
								c1.029-1.01,2.817-0.987,3.842,0.053c0.508,0.507,0.786,1.189,0.78,1.917c-0.006,0.733-0.299,1.418-0.824,1.927
								l-11.864,11.609l18.254-0.091c0.001,0,0.001,0,0.002,0c1.528,0,2.734,1.203,2.746,2.682c0,1.494-1.219,2.726-2.716,2.751
								l-18.258,0.118l12.02,11.474c1.06,1.022,1.104,2.742,0.104,3.837c-1.007,1.078-2.807,1.086-3.871,0.117l-12.225-11.717
								l0.099,16.932c0.008,0.719-0.27,1.402-0.78,1.919C62.079,429.564,61.395,429.85,60.666,429.85z M58.567,407.683
								c0.098,0,0.195,0.019,0.288,0.058c0.278,0.116,0.46,0.387,0.462,0.689l0.108,18.711c0.009,0.676,0.554,1.21,1.24,1.21
								c0.325,0,0.631-0.128,0.86-0.359c0.226-0.23,0.351-0.532,0.347-0.853l-0.109-18.706c-0.002-0.302,0.177-0.575,0.454-0.693
								c0.272-0.121,0.599-0.062,0.814,0.147l13.49,12.93c0.449,0.408,1.295,0.443,1.746-0.039c0.451-0.495,0.436-1.276-0.041-1.736
								l-13.358-12.752c-0.222-0.212-0.292-0.535-0.18-0.819c0.113-0.284,0.387-0.472,0.692-0.474l20.104-0.13
								c0.688-0.012,1.233-0.559,1.233-1.245c-0.005-0.652-0.539-1.188-1.189-1.188l-20.157,0.101
								c-0.33,0.029-0.582-0.183-0.697-0.465c-0.116-0.283-0.05-0.607,0.169-0.821l13.191-12.907
								c0.237-0.229,0.367-0.535,0.37-0.863c0.002-0.322-0.12-0.624-0.345-0.849c-0.472-0.478-1.268-0.491-1.726-0.038
								l-13.35,13.081c-0.217,0.21-0.539,0.272-0.813,0.156c-0.278-0.115-0.46-0.386-0.462-0.688l-0.129-18.704
								c-0.005-0.676-0.547-1.206-1.234-1.206c-0.661,0.009-1.206,0.558-1.206,1.225l0.114,18.712
								c0.002,0.302-0.177,0.574-0.453,0.693c-0.275,0.119-0.598,0.064-0.814-0.146l-13.526-12.917
								c-0.474-0.458-1.26-0.43-1.717,0.041c-0.224,0.229-0.344,0.533-0.339,0.854c0.005,0.332,0.141,0.644,0.381,0.877
								l13.337,12.741c0.221,0.211,0.291,0.535,0.179,0.819c-0.113,0.283-0.387,0.471-0.692,0.473l-19.756,0.123
								c-0.673,0.007-1.223,0.559-1.223,1.228c0.009,0.663,0.545,1.209,1.196,1.209l19.793-0.109c0.001,0,0.003,0,0.004,0
								c0.304,0,0.578,0.184,0.693,0.465c0.116,0.282,0.05,0.606-0.168,0.82l-13.173,12.915c-0.24,0.229-0.371,0.533-0.375,0.861
								c-0.004,0.326,0.116,0.63,0.339,0.853c0.461,0.465,1.261,0.507,1.734,0.036l13.366-13.105
								C58.186,407.757,58.375,407.683,58.567,407.683z"/>
						</g>
						<g>
							<path style="fill:#FFFFFF;" d="M30.269,403.997c0.096,16.68,13.714,30.137,30.417,30.059
								c16.729-0.131,30.166-13.725,30.07-30.454c-0.104-16.684-13.729-30.146-30.437-30.056
								C43.619,373.667,30.162,387.27,30.269,403.997z M37.81,403.935c-0.061-12.533,10.035-22.728,22.548-22.828
								c12.52-0.063,22.754,10.027,22.827,22.534c0.079,12.536-9.998,22.77-22.535,22.829
								C48.113,426.567,37.912,416.46,37.81,403.935z"/>
							<path d="M60.541,434.806c-17.009-0.001-30.925-13.819-31.022-30.805c-0.108-17.082,13.706-31.081,30.795-31.205h0.174
								c16.997,0,30.912,13.817,31.019,30.801c0.098,17.075-13.726,31.075-30.814,31.209H60.541z M60.487,374.296h-0.164
								c-16.262,0.118-29.408,13.44-29.305,29.696c0.093,16.163,13.336,29.313,29.522,29.314h0.141
								c16.262-0.127,29.417-13.45,29.324-29.7C89.904,387.444,76.663,374.296,60.487,374.296z M60.471,427.222
								c-12.804,0-23.306-10.443-23.411-23.28c-0.063-12.902,10.387-23.481,23.292-23.584h0.123c12.86,0,23.385,10.443,23.46,23.28
								c0.04,6.277-2.366,12.189-6.774,16.647c-4.395,4.443-10.257,6.907-16.507,6.936L60.471,427.222z M60.475,381.857h-0.113
								c-12.079,0.096-21.86,9.999-21.802,22.074c0.099,12.014,9.928,21.79,21.911,21.79l0.173-0.001
								c5.852-0.027,11.337-2.333,15.45-6.492c4.126-4.172,6.378-9.706,6.341-15.582C82.364,391.632,72.513,381.857,60.475,381.857z
								"/>
						</g>
						<g>
							<path style="fill:#FFFFFF;" d="M24.346,399.89c2.808,2.797,72.33,4.163,72.307-0.436
								c-0.14-19.967-16.413-36.064-36.381-35.94C40.303,363.632,24.213,379.93,24.346,399.89z"/>
							<path d="M64.835,403.206c-0.001,0-0.001,0-0.002,0c-12.471,0-38.904-0.681-41.017-2.785c-0.14-0.14-0.22-0.328-0.221-0.526
								c-0.065-9.854,3.714-19.146,10.642-26.161s16.172-10.912,26.029-10.971l0.234-0.001c20.206,0,36.76,16.457,36.901,36.687
								c0.001,0.241-0.07,0.601-0.417,0.949C94.554,402.841,75.799,403.206,64.835,403.206z M25.096,399.479
								c2.487,1.069,19.383,2.227,39.737,2.227c19.937,0,30.024-1.205,31.068-2.341c-0.186-19.363-16.047-35.104-35.4-35.104
								l-0.225,0.001c-9.457,0.057-18.325,3.794-24.973,10.525C28.753,381.422,25.137,390.177,25.096,399.479z"/>
						</g>
					</g>
				</g>
				<g>
					<g>
						<g>
							<path style="fill:#FFFFFF;" d="M205.899,370.065c0.002,3.094,2.522,5.6,5.618,5.584l244.268-0.663
								c3.09,0,5.589-2.504,5.583-5.584l-0.104-44.547c-0.029-3.09-2.547-5.573-5.626-5.573l-244.28,0.647
								c-3.082,0.01-5.579,2.51-5.573,5.607L205.899,370.065z"/>
							<path d="M211.487,376.398c-3.492,0-6.336-2.841-6.338-6.334l-0.115-44.526c-0.007-3.496,2.829-6.349,6.321-6.359
								l244.28-0.647c3.484,0,6.345,2.833,6.378,6.316l0.104,44.552c0.003,1.69-0.653,3.279-1.848,4.477
								c-1.196,1.199-2.79,1.859-4.485,1.859l-244.266,0.663C211.519,376.398,211.487,376.398,211.487,376.398z M455.638,320.031
								l-244.278,0.647c-2.665,0.009-4.83,2.186-4.825,4.856l0.115,44.527c0.002,2.667,2.172,4.836,4.838,4.836v0.75l0.026-0.75
								l244.27-0.663c1.297,0,2.513-0.504,3.426-1.419c0.911-0.913,1.412-2.125,1.409-3.414l-0.104-44.546
								C460.488,322.198,458.301,320.031,455.638,320.031z"/>
						</g>
						<g>
							<path style="fill:#FFFFFF;" d="M522.201,327.301c0.01,2.274,1.846,4.103,4.109,4.103l0,0
								c2.278-0.015,4.108-1.851,4.099-4.119l-0.029-19.058c-0.024-2.281-1.87-4.106-4.121-4.106l0,0
								c-2.278,0.009-4.122,1.836-4.108,4.12L522.201,327.301z"/>
							<path d="M526.31,332.154c-2.668,0-4.848-2.176-4.859-4.851l-0.051-19.061c-0.008-1.292,0.488-2.511,1.396-3.428
								c0.917-0.926,2.146-1.439,3.459-1.444c2.66,0,4.846,2.175,4.874,4.849l0.029,19.065c0.012,2.667-2.161,4.852-4.844,4.87
								C526.313,332.154,526.313,332.154,526.31,332.154z M526.259,304.871c-0.909,0.004-1.761,0.358-2.396,1
								c-0.626,0.632-0.967,1.473-0.962,2.365l0.051,19.063c0.008,1.849,1.514,3.354,3.357,3.355
								c1.855-0.014,3.358-1.522,3.351-3.366l-0.029-19.06C529.61,306.381,528.098,304.871,526.259,304.871z"/>
						</g>
						<g>
							<path style="fill:#FFFFFF;" d="M503.606,255.541l14.919,48.274l0.076,27.605l-14.039,39.831
								C504.563,371.252,497.054,263.434,503.606,255.541z"/>
							<path d="M504.563,372.002c-0.033,0-0.066-0.002-0.101-0.007c-0.353-0.048-0.623-0.336-0.647-0.691
								c-0.308-4.414-7.453-108.21-0.785-116.242c0.176-0.211,0.454-0.31,0.724-0.256c0.27,0.054,0.489,0.251,0.57,0.514
								l14.919,48.275c0.021,0.071,0.033,0.145,0.033,0.22l0.076,27.605c0,0.086-0.015,0.171-0.043,0.251l-14.039,39.831
								C505.163,371.805,504.877,372.002,504.563,372.002z M503.447,257.565c-3.883,12.28-0.415,79.55,1.616,110.008l12.788-36.279
								l-0.076-27.364L503.447,257.565z"/>
						</g>
						<g>
							<path style="fill:#FFFFFF;" d="M515.306,329.291c0,2.814,2.302,5.102,5.118,5.089l0,0c2.803-0.007,5.069-2.303,5.06-5.112
								l-0.057-22.685c-0.015-2.813-2.293-5.085-5.104-5.085l0,0c-2.805,0.01-5.078,2.304-5.078,5.113L515.306,329.291z"/>
							<path d="M520.4,335.13c-3.223,0-5.845-2.619-5.845-5.839l-0.062-22.678c0-3.224,2.613-5.855,5.825-5.865
								c3.214,0,5.841,2.616,5.857,5.831l0.057,22.686c0.006,1.565-0.6,3.037-1.702,4.147c-1.098,1.104-2.556,1.713-4.106,1.717
								C520.426,335.13,520.401,335.13,520.4,335.13z M520.322,302.248c-2.386,0.009-4.328,1.966-4.328,4.363l0.062,22.678
								c0,2.395,1.949,4.341,4.345,4.341v0.75l0.021-0.75c1.15-0.003,2.231-0.455,3.046-1.274c0.821-0.825,1.271-1.921,1.267-3.085
								l-0.057-22.686C524.664,304.194,522.711,302.248,520.322,302.248z"/>
						</g>
						<g>
							<polygon style="fill:#FFFFFF;" points="341.709,198.129 316.523,172.339 221.658,172.339 200.033,197.174 							"/>
							<path d="M341.709,198.879c-0.002,0-0.003,0-0.005,0l-141.676-0.955c-0.293-0.002-0.559-0.175-0.679-0.441
								c-0.12-0.268-0.074-0.58,0.118-0.801l21.625-24.835c0.143-0.164,0.349-0.258,0.565-0.258h94.865
								c0.202,0,0.395,0.081,0.536,0.226l25.185,25.79c0.212,0.217,0.272,0.539,0.154,0.817
								C342.281,198.699,342.01,198.879,341.709,198.879z M201.671,196.435l138.245,0.933l-23.708-24.278H222L201.671,196.435z"/>
						</g>
						<g>
							<path style="fill:#FFFFFF;" d="M330.205,320.108c0,3.084,2.505,5.584,5.592,5.584l51.498-0.156
								c3.09,0,5.603-2.507,5.569-5.607l-0.124-47.998c0-3.085-2.529-5.576-5.61-5.557l-51.494,0.153
								c-3.085,0-5.575,2.502-5.575,5.589L330.205,320.108z"/>
							<path d="M335.799,326.442c0,0-0.001,0-0.002,0c-3.497,0-6.342-2.842-6.342-6.334l-0.145-47.99
								c0-3.497,2.838-6.341,6.325-6.341l51.492-0.153c3.525,0,6.362,2.829,6.362,6.307l0.124,47.996
								c0.018,1.686-0.627,3.28-1.817,4.482c-1.197,1.21-2.796,1.877-4.502,1.877L335.799,326.442z M387.166,267.124l-51.528,0.153
								c-2.662,0-4.827,2.171-4.827,4.839l0.145,47.99c0,2.667,2.171,4.835,4.84,4.836l51.498-0.156
								c1.304,0,2.524-0.509,3.438-1.432c0.906-0.916,1.397-2.13,1.384-3.418l-0.124-48.004
								C391.99,269.28,389.826,267.124,387.166,267.124z"/>
						</g>
						<g>
							<path style="fill:#FFFFFF;" d="M200.398,337.22c0,3.08,2.506,5.569,5.601,5.569l126.876-0.332
								c3.098-0.008,5.589-2.524,5.589-5.612l-0.333-123.583c-0.012-3.087-2.519-5.576-5.598-5.576l-126.883,0.336
								c-3.099,0-5.59,2.51-5.59,5.609L200.398,337.22z"/>
							<path d="M206.001,343.539c-0.001,0-0.001,0-0.002,0c-3.502,0-6.351-2.835-6.351-6.319l-0.338-123.587
								c0-3.509,2.844-6.361,6.34-6.361l126.881-0.336c3.489,0,6.336,2.837,6.35,6.323l0.333,123.584
								c0,3.501-2.843,6.355-6.337,6.364L206.001,343.539z M332.533,208.436l-126.881,0.336c-2.671,0-4.842,2.18-4.842,4.859
								l0.338,123.587c0,2.659,2.175,4.82,4.849,4.821l126.876-0.332c2.669-0.007,4.841-2.188,4.841-4.862l-0.333-123.581
								C337.371,210.602,335.196,208.436,332.533,208.436z"/>
						</g>
						<g>
							<path style="fill:#FFFFFF;" d="M196.769,211.645c0.007,3.089,2.532,5.43,5.61,5.408h136.085
								c3.096-0.008,5.591-2.692,5.565-5.785l-0.022-10.514c0-3.087-2.51-5.425-5.596-5.404H202.337
								c-3.108,0.021-5.595,2.688-5.589,5.787L196.769,211.645z"/>
							<path d="M202.337,217.803c-3.535,0-6.311-2.704-6.318-6.156l-0.021-10.508c-0.007-3.582,2.835-6.515,6.334-6.539h136.08
								c3.576,0,6.346,2.703,6.346,6.154l0.022,10.512c0.014,1.72-0.682,3.42-1.908,4.66c-1.193,1.206-2.758,1.873-4.405,1.877
								H202.379H202.337z M338.452,196.1H202.337c-2.626,0.019-4.844,2.324-4.839,5.036l0.021,10.508
								c0.006,2.612,2.122,4.659,4.818,4.659v0.75l0.037-0.75h136.09c1.243-0.003,2.431-0.512,3.341-1.432
								c0.948-0.958,1.485-2.27,1.475-3.598l-0.022-10.518C343.258,198.144,341.147,196.1,338.452,196.1z"/>
						</g>
						<g>
							<path style="fill:#FFFFFF;" d="M219.493,316.902c0.003,3.008,2.518,5.457,5.604,5.457l86.108-0.221
								c3.092-0.015,5.59-2.458,5.576-5.484l-0.194-76.497c0-3.021-2.517-5.474-5.604-5.468l-86.129,0.225
								c-3.064,0.024-5.574,2.463-5.574,5.488L219.493,316.902z"/>
							<path d="M225.099,323.109c-0.001,0-0.001,0-0.002,0c-3.5,0-6.351-2.784-6.354-6.206l-0.214-76.498
								c0-3.415,2.834-6.214,6.318-6.24l86.133-0.225c3.511,0,6.356,2.789,6.356,6.218l0.194,76.495
								c0.016,3.422-2.821,6.22-6.322,6.236L225.099,323.109z M310.993,235.439l-86.138,0.225c-2.659,0.021-4.826,2.146-4.826,4.738
								l0.214,76.497c0.003,2.597,2.179,4.708,4.852,4.709l86.108-0.221c2.673-0.013,4.84-2.135,4.828-4.732l-0.194-76.498
								C315.837,237.556,313.664,235.439,310.993,235.439z"/>
						</g>
						<g>
							<polygon style="fill:#FFFFFF;" points="477.4,190.85 466.264,207.329 413.001,207.472 401.474,191.061 							"/>
							<path d="M413.001,208.222c-0.244,0-0.474-0.119-0.613-0.319l-11.527-16.411c-0.161-0.229-0.182-0.527-0.053-0.775
								c0.129-0.248,0.385-0.404,0.664-0.405l75.927-0.211c0.001,0,0.001,0,0.002,0c0.277,0,0.531,0.152,0.662,0.398
								c0.131,0.245,0.115,0.542-0.041,0.772l-11.137,16.479c-0.139,0.206-0.371,0.329-0.619,0.33l-53.263,0.143
								C413.002,208.222,413.002,208.222,413.001,208.222z M402.914,191.807l10.475,14.914l52.475-0.141l10.121-14.977
								L402.914,191.807z"/>
						</g>
						<g>
							<path style="fill:#FFFFFF;" d="M414.697,244.27c0.004,3.081,2.512,5.587,5.609,5.568l37.793-0.096
								c3.079,0,5.584-2.516,5.555-5.604l-0.066-29.583c0-3.077-2.502-5.572-5.597-5.572l-37.806,0.104
								c-3.083,0.012-5.572,2.526-5.572,5.608L414.697,244.27z"/>
							<path d="M420.272,250.589c-3.483,0-6.32-2.834-6.325-6.317l-0.084-29.573c0-3.495,2.835-6.347,6.319-6.36l37.807-0.104
								c3.502,0,6.349,2.836,6.349,6.322l0.066,29.581c0.016,1.687-0.632,3.281-1.824,4.485c-1.195,1.206-2.786,1.87-4.48,1.87
								l-37.791,0.096C420.308,250.589,420.273,250.589,420.272,250.589z M457.991,209.734l-37.804,0.104
								c-2.66,0.01-4.824,2.189-4.824,4.858l0.084,29.572c0.003,2.658,2.168,4.82,4.825,4.82v0.75l0.029-0.75l37.796-0.096
								c1.293,0,2.506-0.507,3.416-1.426c0.909-0.918,1.403-2.132,1.391-3.421l-0.066-29.588
								C462.838,211.898,460.664,209.734,457.991,209.734z"/>
						</g>
						<g>
							<path style="fill:#FFFFFF;" d="M415.001,244.27c0.006,3.081,2.511,5.587,5.608,5.568l37.793-0.096
								c3.08,0,5.583-2.516,5.556-5.604l-0.067-29.583c0-3.077-2.503-5.572-5.597-5.572l-37.805,0.104
								c-3.084,0.012-5.573,2.526-5.573,5.608L415.001,244.27z"/>
							<path d="M420.575,250.589c-3.48,0-6.317-2.834-6.324-6.317l-0.085-29.573c0-3.495,2.835-6.347,6.32-6.36l37.806-0.104
								c3.502,0,6.349,2.836,6.349,6.322l0.067,29.581c0.015,1.688-0.634,3.283-1.827,4.487c-1.194,1.204-2.785,1.868-4.479,1.868
								l-37.791,0.096C420.61,250.589,420.576,250.589,420.575,250.589z M458.294,209.734l-37.803,0.104
								c-2.66,0.01-4.825,2.189-4.825,4.858l0.085,29.572c0.005,2.658,2.169,4.82,4.824,4.82v0.75l0.029-0.75l37.796-0.096
								c1.292,0,2.505-0.506,3.415-1.425c0.909-0.917,1.404-2.133,1.393-3.422l-0.067-29.588
								C463.141,211.898,460.967,209.734,458.294,209.734z"/>
						</g>
						<g>
							<g>
								<path style="fill:#FFFFFF;" d="M414.701,213.702c0.463-2.613,2.746-4.603,5.484-4.614l4.97-0.034
									C420.887,210.493,417.102,212.052,414.701,213.702z"/>
								<path d="M414.701,214.452c-0.141,0-0.282-0.04-0.406-0.119c-0.254-0.164-0.385-0.464-0.332-0.762
									c0.534-3.02,3.15-5.221,6.22-5.233l4.968-0.034c0.001,0,0.003,0,0.005,0c0.366,0,0.679,0.265,0.739,0.626
									c0.062,0.363-0.15,0.717-0.5,0.835c-4.809,1.621-8.168,3.111-10.268,4.556C414.998,214.408,414.85,214.452,414.701,214.452z
									 M420.808,209.834l-0.617,0.004c-1.619,0.007-3.072,0.81-3.951,2.064C417.503,211.225,419.02,210.538,420.808,209.834z"/>
							</g>
						</g>
						<g>
							<path style="fill:#FFFFFF;" d="M409.524,209.608c0.022,2.996,2.442,5.402,5.433,5.402l48.98-0.113
								c2.996-0.015,5.432-2.442,5.412-5.439l0,0c-0.014-3.023-2.444-5.436-5.428-5.408l-48.988,0.108
								C411.948,204.166,409.52,206.612,409.524,209.608L409.524,209.608z"/>
							<path d="M414.959,215.761c-0.001,0-0.001,0-0.002,0c-3.385,0-6.158-2.758-6.183-6.146c-0.006-3.416,2.757-6.197,6.157-6.205
								l48.988-0.108c3.416,0,6.164,2.761,6.18,6.155c0.011,1.637-0.619,3.182-1.774,4.35c-1.166,1.18-2.723,1.834-4.384,1.842
								L414.959,215.761z M463.974,204.801l-49.038,0.108c-2.574,0.006-4.665,2.113-4.661,4.698
								c0.019,2.563,2.118,4.652,4.681,4.653l48.98-0.113c1.258-0.006,2.44-0.502,3.323-1.396c0.873-0.883,1.349-2.05,1.341-3.287
								C468.588,206.892,466.513,204.801,463.974,204.801z"/>
						</g>
						<g>
							<path style="fill:#FFFFFF;" d="M408.229,255.127c0,3.108,2.507,5.592,5.597,5.592l51.273-0.14
								c3.081,0,5.574-2.513,5.574-5.598l-0.006-5.933c-0.008-3.077-2.53-5.568-5.618-5.568l-51.264,0.128
								c-3.091,0.012-5.589,2.528-5.587,5.615L408.229,255.127z"/>
							<path d="M413.828,261.469c-0.001,0-0.001,0-0.002,0c-3.5,0-6.347-2.845-6.347-6.342l-0.03-5.9
								c-0.002-3.5,2.839-6.355,6.334-6.369l51.265-0.128c3.505,0,6.361,2.834,6.37,6.316l0.006,5.934
								c0,3.501-2.837,6.349-6.324,6.349L413.828,261.469z M465.05,244.23l-51.262,0.128c-2.67,0.01-4.841,2.192-4.839,4.865
								l0.03,5.899c0,2.673,2.173,4.845,4.845,4.846l51.273-0.14c2.662,0,4.826-2.175,4.826-4.848l-0.006-5.932
								C469.911,246.393,467.727,244.23,465.05,244.23z"/>
						</g>
						<g>
							<path style="fill:#FFFFFF;" d="M382.45,359.397c0.02,6.191,5.034,11.163,11.197,11.159l92.171-0.255
								c6.178-0.022,11.168-5.034,11.146-11.213l-0.232-92.022c-0.014-6.19-5.037-11.174-11.201-11.164l-92.164,0.258
								c-6.189,0.02-11.189,5.04-11.167,11.2L382.45,359.397z"/>
							<path d="M393.649,371.306c-0.001,0-0.009,0-0.009,0c-6.564,0-11.92-5.342-11.94-11.907l-0.25-92.037
								c-0.011-3.18,1.223-6.176,3.474-8.435c2.251-2.258,5.249-3.508,8.441-3.518l92.164-0.258c6.586,0,11.938,5.344,11.953,11.912
								l0.232,92.022c0.022,6.574-5.313,11.942-11.893,11.965L393.649,371.306z M485.55,256.651l-92.181,0.258
								c-2.792,0.009-5.414,1.102-7.383,3.077c-1.968,1.974-3.046,4.592-3.036,7.37l0.25,92.038
								c0.019,5.74,4.701,10.411,10.44,10.411v0.75l0.007-0.75l92.169-0.255c5.753-0.02,10.418-4.713,10.398-10.46l-0.232-92.023
								C495.97,261.324,491.289,256.651,485.55,256.651z"/>
						</g>
						<g>
							<path style="fill:#FFFFFF;" d="M486.471,368.646c0.006,3.093,2.53,5.592,5.628,5.592l9.178-0.03
								c3.082-0.01,5.597-2.537,5.569-5.595L506.574,257.5c-0.012-3.101-2.531-5.589-5.624-5.589l-9.186,0.029
								c-3.092,0.016-5.601,2.528-5.575,5.616L486.471,368.646z"/>
							<path d="M492.102,374.987h-0.003c-3.51,0-6.371-2.845-6.378-6.341l-0.282-111.088c-0.014-1.681,0.633-3.27,1.819-4.474
								c1.197-1.213,2.796-1.886,4.502-1.895l9.188-0.029c3.503,0,6.362,2.843,6.376,6.336l0.271,111.113
								c0.015,1.668-0.632,3.251-1.82,4.454c-1.2,1.215-2.797,1.887-4.497,1.892L492.102,374.987z M500.95,252.661l-9.185,0.029
								c-1.303,0.007-2.524,0.521-3.44,1.448c-0.904,0.917-1.398,2.129-1.387,3.412l0.282,111.093
								c0.005,2.671,2.192,4.843,4.876,4.844l9.177-0.03c1.298-0.004,2.518-0.517,3.435-1.446c0.906-0.917,1.399-2.122,1.388-3.392
								l-0.271-111.117C505.814,254.833,503.628,252.661,500.95,252.661z"/>
						</g>
						<g>
							<polygon style="fill:#FFFFFF;" points="453.783,370.351 425.383,370.428 425.09,256.026 453.492,255.935 							"/>
							<path d="M425.383,371.178c-0.198,0-0.389-0.078-0.529-0.219c-0.141-0.14-0.22-0.33-0.221-0.529l-0.293-114.401
								c-0.001-0.414,0.334-0.751,0.748-0.752l28.402-0.092c0,0,0.001,0,0.002,0c0.198,0,0.389,0.078,0.528,0.218
								c0.142,0.141,0.221,0.331,0.222,0.53l0.291,114.416c0.001,0.414-0.334,0.751-0.748,0.752l-28.4,0.077
								C425.384,371.178,425.384,371.178,425.383,371.178z M425.842,256.774l0.289,112.901l26.9-0.073l-0.287-112.916
								L425.842,256.774z"/>
						</g>
						<g>
							<path style="fill:#FFFFFF;" d="M466.533,374.876c1.482,5.168,11.678,41.143,11.678,41.143s66.076-0.177,71.499-0.177
								c2.946,0,3.683-8.148-0.27-8.134c-3.935,0-5.425,0.017-5.425,0.017l-37.809-37.641l-36.49,0.1
								C469.716,370.185,465.022,369.712,466.533,374.876z M530.935,408.553l-27.692-31.725c-0.704-0.846-0.623-2.072,0.193-2.798
								c0.826-0.732,2.078-0.63,2.784,0.194l27.69,31.728c0.727,0.816,0.632,2.058-0.201,2.786
								c-0.367,0.344-0.811,0.491-1.277,0.491C531.885,409.23,531.35,408.992,530.935,408.553z M520.685,408.507l-25.39-31.745
								c-0.692-0.833-0.537-2.083,0.311-2.771c0.852-0.67,2.107-0.535,2.794,0.332l25.366,31.733
								c0.669,0.84,0.541,2.089-0.318,2.762c-0.356,0.31-0.789,0.432-1.225,0.432C521.641,409.249,521.071,408.992,520.685,408.507z
								 M507.088,408.359l-19.803-31.755c-0.573-0.916-0.293-2.138,0.629-2.718c0.926-0.589,2.128-0.308,2.73,0.62l19.787,31.767
								c0.586,0.923,0.297,2.146-0.634,2.719c-0.315,0.19-0.681,0.291-1.041,0.291C508.119,409.283,507.464,408.958,507.088,408.359
								z M493.498,408.159l-14.24-31.773c-0.427-0.992,0-2.155,0.998-2.581c1.004-0.474,2.162,0,2.609,0.968l14.232,31.768
								c0.446,0.987,0,2.162-0.995,2.606c-0.272,0.128-0.514,0.186-0.8,0.186C494.545,409.333,493.832,408.905,493.498,408.159z
								 M472.527,373.737c1.051-0.337,2.171,0.206,2.518,1.241l10.762,31.777c0.337,1.019-0.212,2.149-1.247,2.493
								c-0.201,0.084-0.411,0.084-0.61,0.084c-0.836,0-1.609-0.491-1.873-1.322l-10.78-31.761
								C470.949,375.207,471.519,374.093,472.527,373.737z"/>
							<path d="M478.211,416.77c-0.335,0-0.63-0.223-0.722-0.546c-0.102-0.359-10.212-36.033-11.677-41.141
								c-0.531-1.815-0.418-3.248,0.337-4.255c0.949-1.268,2.602-1.404,3.269-1.404c0.231,0,0.373,0.016,0.373,0.016l36.413-0.105
								c0.001,0,0.001,0,0.001,0c0.199,0,0.39,0.078,0.53,0.219l37.587,37.419c0.619-0.005,2.195-0.014,5.118-0.014
								c1.145,0,2.108,0.551,2.72,1.551c0.487,0.794,0.755,1.879,0.755,3.056c0,2.438-1.123,5.027-3.205,5.027
								c-5.359,0-70.836,0.175-71.497,0.177C478.212,416.77,478.212,416.77,478.211,416.77z M469.418,370.924
								c-0.441,0-1.525,0.078-2.068,0.804c-0.568,0.758-0.366,2.016-0.097,2.938c1.367,4.765,10.237,36.06,11.524,40.603
								c6.482-0.017,65.839-0.175,70.933-0.175c0.908,0,1.705-1.648,1.705-3.527c0-0.904-0.189-1.711-0.533-2.271
								c-0.345-0.562-0.813-0.835-1.431-0.835c-3.936,0-5.424,0.017-5.427,0.017c-0.249,0.009-0.396-0.076-0.538-0.219
								l-37.589-37.421l-36.18,0.1C469.629,370.931,469.546,370.924,469.418,370.924z M495.302,410.083
								c-1.088,0-2.042-0.62-2.488-1.617l-14.24-31.773c-0.297-0.69-0.308-1.439-0.035-2.119c0.265-0.662,0.771-1.18,1.424-1.458
								c0.336-0.159,0.72-0.246,1.115-0.246c1.054,0,2.022,0.624,2.469,1.589l14.235,31.776c0.298,0.658,0.319,1.397,0.06,2.079
								c-0.26,0.683-0.768,1.222-1.434,1.518C496.048,410.001,495.691,410.083,495.302,410.083z M481.077,374.369
								c-0.173,0-0.342,0.038-0.501,0.114c-0.31,0.132-0.529,0.358-0.646,0.647c-0.123,0.309-0.117,0.649,0.017,0.96l14.235,31.763
								c0.272,0.607,0.919,0.937,1.6,0.615c0.312-0.139,0.54-0.381,0.657-0.689c0.116-0.305,0.106-0.636-0.026-0.93l-14.232-31.771
								C481.982,374.651,481.548,374.369,481.077,374.369z M483.949,410.083c-1.197,0-2.237-0.741-2.588-1.846l-10.775-31.746
								c-0.471-1.416,0.289-2.967,1.692-3.461c1.521-0.49,3.015,0.328,3.478,1.71l10.761,31.775c0.474,1.43-0.3,2.974-1.721,3.445
								C484.509,410.083,484.185,410.083,483.949,410.083z M473.16,374.388c-0.136,0-0.271,0.022-0.404,0.064
								c-0.616,0.218-0.961,0.922-0.748,1.563l10.778,31.756c0.159,0.5,0.613,0.814,1.163,0.814c0.127,0,0.259,0,0.321-0.026
								c0.69-0.231,1.036-0.925,0.824-1.565l-10.76-31.772C474.168,374.721,473.696,374.388,473.16,374.388z M508.757,410.033
								c-0.928,0-1.81-0.488-2.304-1.275l-19.805-31.757c-0.793-1.267-0.404-2.949,0.866-3.749c0.435-0.276,0.937-0.424,1.449-0.424
								c0.93,0,1.793,0.476,2.309,1.271l19.795,31.778c0.387,0.608,0.511,1.339,0.348,2.049c-0.165,0.715-0.6,1.32-1.225,1.705
								C509.753,409.896,509.259,410.033,508.757,410.033z M488.964,374.328c-0.227,0-0.451,0.066-0.648,0.191
								c-0.575,0.362-0.752,1.118-0.395,1.688l19.804,31.756c0.341,0.54,1.13,0.721,1.686,0.388c0.275-0.17,0.47-0.441,0.544-0.762
								c0.073-0.316,0.018-0.641-0.155-0.913l-19.791-31.773C489.777,374.548,489.384,374.328,488.964,374.328z M522.225,409.999
								c-0.833,0-1.608-0.374-2.126-1.025L494.71,377.23c-0.445-0.536-0.656-1.232-0.586-1.947c0.071-0.729,0.439-1.412,1.011-1.875
								c1.162-0.913,2.952-0.692,3.854,0.448l25.364,31.73c0.454,0.571,0.657,1.285,0.571,2.012
								c-0.085,0.722-0.444,1.364-1.014,1.81C523.477,409.786,522.884,409.999,522.225,409.999z M496.836,374.316
								c-0.281,0-0.546,0.091-0.765,0.264c-0.253,0.205-0.422,0.518-0.455,0.85c-0.03,0.314,0.061,0.617,0.257,0.853l25.398,31.756
								c0.419,0.528,1.258,0.585,1.685,0.213c0.281-0.221,0.44-0.506,0.479-0.827c0.038-0.327-0.052-0.646-0.255-0.901
								l-25.365-31.732C497.576,374.488,497.22,374.316,496.836,374.316z M532.432,409.98c-0.761,0-1.486-0.324-2.042-0.913
								l-27.713-31.746c-0.977-1.173-0.857-2.858,0.261-3.852c1.093-0.969,2.906-0.838,3.852,0.267l27.686,31.724
								c0.475,0.533,0.714,1.227,0.669,1.945c-0.046,0.733-0.381,1.407-0.941,1.898C533.736,409.74,533.118,409.98,532.432,409.98z
								 M504.728,374.288c-0.292,0-0.575,0.108-0.796,0.304c-0.508,0.451-0.559,1.223-0.114,1.757L531.5,408.06
								c0.472,0.5,1.258,0.544,1.696,0.132c0.276-0.242,0.431-0.549,0.451-0.88c0.02-0.316-0.086-0.622-0.298-0.859l-27.695-31.734
								C505.419,374.443,505.083,374.288,504.728,374.288z"/>
						</g>
						<g>
							<g>
								<path style="fill:#FFFFFF;" d="M392.079,399.996l19.78-0.052l-13.291-12.809c-0.785-0.74-0.828-1.997-0.057-2.774
									c0.744-0.805,1.998-0.82,2.787-0.057l13.456,12.949l-0.054-18.698c0-1.076,0.872-1.951,1.965-1.974
									c1.102,0,1.993,0.887,1.993,1.974l0.041,18.679l13.392-13.006c0.799-0.765,2.037-0.765,2.799,0.032
									c0.755,0.782,0.743,2.028-0.044,2.791l-13.239,12.865l20.115-0.04c1.086,0,1.978,0.864,1.978,1.953
									c0,1.095-0.88,1.977-1.97,1.977l-20.109,0.048l13.301,12.801c0.783,0.762,0.807,2.007,0.057,2.794
									c-0.378,0.401-0.907,0.595-1.415,0.595c-0.489,0-0.991-0.174-1.373-0.545l-13.463-12.959l0.05,18.689
									c0.012,1.094-0.884,1.986-1.969,1.986c-1.1,0-1.977-0.882-1.977-1.977l-0.06-18.673l-13.394,13.022
									c-0.38,0.359-0.869,0.559-1.361,0.559c-0.512,0-1.051-0.204-1.436-0.603c-0.728-0.771-0.724-2.021,0.038-2.79l13.25-12.879
									l-19.781,0.061c-1.087,0-1.974-0.875-1.974-1.975C390.115,400.894,391.002,399.996,392.079,399.996z"/>
								<path d="M416.809,427.966c-1.504,0-2.727-1.224-2.727-2.727l-0.054-16.903l-12.127,11.79
									c-1.098,1.038-2.877,0.958-3.858-0.061c-1.014-1.073-0.991-2.792,0.044-3.838l11.93-11.596l-17.926,0.056
									c-1.504,0-2.726-1.223-2.726-2.725c0-1.496,1.218-2.714,2.714-2.714l17.926-0.047l-11.957-11.523
									c-0.521-0.491-0.83-1.191-0.842-1.917c-0.012-0.727,0.263-1.411,0.773-1.926c0.949-1.027,2.789-1.085,3.841-0.067
									L414,395.486l-0.049-16.929c0-1.498,1.185-2.694,2.699-2.726c1.528,0,2.759,1.222,2.759,2.724l0.037,16.908l12.123-11.773
									c1.074-1.03,2.855-1.003,3.863,0.052c1.04,1.078,1.013,2.806-0.064,3.849l-11.909,11.572l18.262-0.036
									c1.506,0,2.729,1.213,2.729,2.703c0,1.504-1.22,2.727-2.72,2.727l-18.253,0.043l11.965,11.516
									c1.074,1.045,1.108,2.771,0.079,3.852c-0.969,1.028-2.83,1.067-3.853,0.07l-12.186-11.729l0.045,16.919
									c0.008,0.722-0.271,1.408-0.786,1.929C418.225,427.679,417.538,427.966,416.809,427.966z M414.772,405.815
									c0.099,0,0.197,0.02,0.291,0.059c0.277,0.117,0.458,0.388,0.459,0.69l0.06,18.673c0,0.69,0.539,1.229,1.227,1.229
									c0.326,0,0.634-0.13,0.866-0.364c0.23-0.233,0.356-0.54,0.352-0.864l-0.05-18.694c-0.001-0.301,0.179-0.573,0.455-0.691
									c0.279-0.12,0.599-0.06,0.815,0.149l13.463,12.959c0.452,0.44,1.299,0.425,1.722-0.023c0.468-0.491,0.451-1.271-0.033-1.742
									l-13.299-12.799c-0.22-0.212-0.289-0.536-0.176-0.819c0.114-0.284,0.389-0.47,0.694-0.471l20.109-0.048
									c0.675,0,1.222-0.551,1.222-1.227c0-0.663-0.551-1.203-1.228-1.203l-20.113,0.04c-0.001,0-0.002,0-0.002,0
									c-0.305,0-0.58-0.185-0.694-0.467c-0.115-0.283-0.048-0.608,0.172-0.821l13.239-12.865c0.484-0.469,0.496-1.246,0.026-1.732
									c-0.458-0.48-1.252-0.48-1.74-0.011l-13.388,13.002c-0.217,0.21-0.538,0.267-0.814,0.153
									c-0.277-0.117-0.458-0.389-0.459-0.69l-0.041-18.679c0-0.677-0.558-1.226-1.243-1.226c-0.675,0.014-1.215,0.552-1.215,1.224
									l0.054,18.696c0.001,0.301-0.179,0.573-0.455,0.691c-0.278,0.119-0.599,0.061-0.815-0.149l-13.456-12.949
									c-0.476-0.462-1.277-0.448-1.716,0.025c-0.242,0.244-0.362,0.545-0.356,0.864c0.005,0.328,0.139,0.632,0.377,0.855
									l13.297,12.814c0.22,0.212,0.289,0.536,0.176,0.819c-0.114,0.284-0.389,0.47-0.694,0.471l-19.78,0.052
									c-0.66,0-1.216,0.556-1.216,1.214c0,0.676,0.549,1.225,1.224,1.225l19.779-0.061c0,0,0.001,0,0.002,0
									c0.305,0,0.579,0.185,0.694,0.467c0.115,0.283,0.048,0.608-0.172,0.821l-13.25,12.879c-0.462,0.468-0.474,1.251-0.016,1.737
									c0.418,0.431,1.233,0.488,1.736,0.014l13.387-13.015C414.393,405.889,414.581,405.815,414.772,405.815z"/>
							</g>
							<g>
								<path style="fill:#FFFFFF;" d="M386.492,401.985c0.053,16.693,13.623,30.205,30.32,30.163
									c16.708-0.04,30.213-13.622,30.178-30.332c-0.045-16.69-13.623-30.208-30.328-30.157
									C399.95,371.7,386.436,385.282,386.492,401.985z M394.059,401.96c-0.023-12.536,10.083-22.714,22.627-22.74
									c12.518-0.028,22.705,10.113,22.738,22.61c0.029,12.54-10.099,22.721-22.633,22.735
									C404.275,424.618,394.074,414.503,394.059,401.96z"/>
								<path d="M416.734,432.898c-17.035-0.001-30.938-13.867-30.992-30.911c-0.027-8.278,3.174-16.071,9.016-21.942
									c5.841-5.871,13.619-9.115,21.902-9.136c17.135,0,31.034,13.864,31.08,30.905c0.036,17.099-13.837,31.043-30.926,31.084
									C416.813,432.898,416.735,432.898,416.734,432.898z M416.756,372.409c-7.975,0.02-15.377,3.106-20.935,8.693
									c-5.559,5.587-8.605,13.003-8.579,20.88c0.051,16.22,13.281,29.415,29.493,29.416l-0.001,0.75l0.076-0.75
									c16.262-0.039,29.464-13.309,29.43-29.58C446.196,385.602,432.97,372.409,416.756,372.409z M416.792,425.315
									c-12.977,0-23.468-10.477-23.483-23.354c-0.024-12.926,10.462-23.464,23.375-23.491c0.001,0,0.054,0,0.055,0
									c12.888,0,23.401,10.479,23.436,23.358c0.015,6.272-2.412,12.169-6.834,16.605
									C428.926,422.864,423.049,425.309,416.792,425.315z M416.738,379.22l-0.051,0.75c-12.087,0.025-21.901,9.89-21.879,21.989
									c0.015,12.052,9.833,21.856,21.885,21.856c5.952-0.007,11.452-2.294,15.584-6.44c4.139-4.152,6.41-9.673,6.397-15.543
									c-0.032-12.055-9.872-21.862-21.936-21.862V379.22z"/>
							</g>
							<g>
								<path style="fill:#FFFFFF;" d="M380.58,397.878c2.783,2.79,72.324,4.394,72.309-0.197
									c-0.042-19.965-16.265-36.107-36.259-36.053C396.676,361.673,380.523,377.894,380.58,397.878z"/>
								<path d="M422.68,401.321c-0.002,0-0.002,0-0.005,0c-16.018,0-40.643-0.926-42.626-2.914c-0.14-0.14-0.218-0.329-0.219-0.527
									c-0.028-9.863,3.786-19.145,10.739-26.133c6.951-6.987,16.205-10.847,26.059-10.869c0.001,0,0.101,0,0.102,0
									c20.309,0,36.866,16.509,36.909,36.801c0.001,0.238-0.071,0.597-0.417,0.943
									C450.999,400.853,435.387,401.321,422.68,401.321z M381.331,397.47c2.568,1.108,20.507,2.352,41.344,2.352
									c0.002,0,0.004,0,0.005,0c21.612,0,28.647-1.383,29.459-2.231c-0.092-19.426-15.956-35.212-35.409-35.212
									c-9.551,0.022-18.429,3.725-25.097,10.427C385.058,379.413,381.409,388.159,381.331,397.47z"/>
							</g>
						</g>
						<g>
							<g>
								<path style="fill:#FFFFFF;" d="M210.997,393.971l23.781-0.054l-16.002-15.395c-0.934-0.898-0.968-2.4-0.058-3.335
									c0.908-0.956,2.41-0.989,3.364-0.084l16.19,15.572l-0.075-22.455c0-1.309,1.052-2.368,2.367-2.368
									c1.306-0.004,2.371,1.052,2.376,2.336l0.064,22.476l16.095-15.641c0.945-0.925,2.434-0.904,3.349,0.035
									c0.924,0.959,0.895,2.426-0.041,3.36l-15.908,15.457l24.165-0.069c1.311,0,2.376,1.059,2.376,2.366
									c0,1.307-1.058,2.39-2.364,2.39l-24.172,0.057l16.002,15.39c0.933,0.912,0.973,2.408,0.066,3.356
									c-0.463,0.47-1.088,0.724-1.705,0.724c-0.602,0-1.185-0.214-1.648-0.67l-16.184-15.567l0.045,22.475
									c0,1.301-1.052,2.367-2.344,2.367c-1.322,0-2.4-1.053-2.4-2.367l-0.049-22.464l-16.106,15.671
									c-0.445,0.445-1.052,0.659-1.636,0.659c-0.633,0-1.251-0.239-1.72-0.716c-0.913-0.93-0.89-2.436,0.057-3.35l15.9-15.471
									l-23.76,0.057c-1.31,0-2.374-1.044-2.374-2.356C208.648,395.041,209.695,393.971,210.997,393.971z"/>
								<path d="M240.736,427.442c-1.737,0-3.15-1.398-3.15-3.117l-0.045-20.691l-14.837,14.436
									c-0.552,0.552-1.341,0.872-2.159,0.872c-0.857,0-1.658-0.334-2.255-0.939c-0.581-0.593-0.895-1.377-0.884-2.21
									c0.011-0.839,0.35-1.622,0.955-2.206l14.57-14.176l-21.907,0.052c-1.725,0-3.126-1.394-3.126-3.106
									c0-1.728,1.39-3.135,3.099-3.135l21.924-0.05l-14.664-14.109c-0.6-0.575-0.936-1.352-0.951-2.188
									c-0.014-0.832,0.298-1.617,0.876-2.211c1.139-1.199,3.199-1.26,4.418-0.104l14.918,14.349l-0.069-20.685
									c0-1.723,1.398-3.121,3.117-3.121c1.721,0,3.119,1.383,3.126,3.083l0.059,20.709l14.827-14.409
									c1.193-1.17,3.241-1.148,4.408,0.05c1.203,1.249,1.181,3.186-0.048,4.414l-14.585,14.172l22.31-0.064
									c1.726,0,3.128,1.397,3.128,3.116c0,1.731-1.397,3.14-3.114,3.14l-22.314,0.053l14.664,14.103
									c1.23,1.203,1.268,3.182,0.089,4.416c-1.195,1.211-3.255,1.217-4.421,0.07l-14.904-14.337l0.041,20.707
									C243.83,426.044,242.442,427.442,240.736,427.442z M238.287,401.111c0.099,0,0.197,0.02,0.291,0.059
									c0.277,0.117,0.458,0.389,0.459,0.69l0.049,22.464c0,0.894,0.74,1.619,1.65,1.619c0.879,0,1.594-0.726,1.594-1.617
									l-0.045-22.473c-0.001-0.302,0.179-0.573,0.456-0.691c0.276-0.12,0.597-0.061,0.813,0.149l16.184,15.567
									c0.617,0.604,1.672,0.596,2.3-0.04c0.606-0.635,0.584-1.667-0.057-2.294l-15.997-15.385c-0.221-0.212-0.29-0.537-0.177-0.82
									c0.114-0.284,0.389-0.47,0.694-0.471l24.172-0.057c0.892,0,1.616-0.735,1.616-1.64c0-0.892-0.73-1.616-1.626-1.616
									l-24.163,0.069c-0.001,0-0.001,0-0.002,0c-0.305,0-0.579-0.185-0.694-0.467c-0.115-0.283-0.048-0.608,0.172-0.821
									l15.908-15.457c0.647-0.648,0.661-1.64,0.023-2.302c-0.601-0.618-1.658-0.633-2.284-0.02l-16.097,15.643
									c-0.216,0.21-0.538,0.268-0.813,0.153c-0.277-0.117-0.458-0.389-0.459-0.689l-0.064-22.475
									c-0.003-0.875-0.729-1.588-1.619-1.588c-0.898,0-1.624,0.725-1.624,1.618l0.075,22.452c0.001,0.302-0.178,0.574-0.455,0.692
									c-0.275,0.12-0.598,0.06-0.814-0.148l-16.19-15.572c-0.628-0.597-1.701-0.573-2.301,0.06
									c-0.304,0.311-0.464,0.717-0.457,1.147c0.008,0.433,0.182,0.834,0.49,1.131l16.002,15.397
									c0.221,0.212,0.29,0.536,0.177,0.819c-0.114,0.284-0.389,0.47-0.694,0.471l-23.781,0.054c-0.884,0-1.601,0.733-1.601,1.635
									c0,0.886,0.729,1.606,1.624,1.606l23.758-0.057c0,0,0.001,0,0.002,0c0.305,0,0.579,0.185,0.694,0.467
									c0.115,0.283,0.048,0.607-0.171,0.82l-15.9,15.471c-0.317,0.306-0.493,0.713-0.499,1.148
									c-0.006,0.431,0.155,0.834,0.454,1.139c0.604,0.613,1.713,0.63,2.29,0.052l16.113-15.678
									C237.907,401.185,238.096,401.111,238.287,401.111z"/>
							</g>
							<g>
								<path style="fill:#FFFFFF;" d="M204.29,396.37c0.054,20.07,16.38,36.303,36.45,36.263
									c20.063-0.069,36.309-16.378,36.256-36.461c-0.05-20.068-16.381-36.307-36.436-36.261
									C220.477,359.98,204.241,376.29,204.29,396.37z M213.395,396.339c-0.051-15.061,12.119-27.271,27.181-27.343
									c15.055-0.024,27.287,12.138,27.332,27.199c0.042,15.069-12.136,27.294-27.19,27.331
									C225.665,423.568,213.413,411.404,213.395,396.339z"/>
								<path d="M240.666,433.383c-20.417-0.002-37.071-16.605-37.126-37.011c-0.05-20.447,16.556-37.141,37.017-37.211
									c20.495,0,37.139,16.603,37.189,37.009c0.054,20.448-16.546,37.143-37.003,37.213
									C240.742,433.383,240.667,433.383,240.666,433.383z M240.645,360.661c-19.717,0.067-35.652,16.086-35.605,35.707
									c0.053,19.581,16.034,35.513,35.626,35.515v0.75l0.072-0.75c19.63-0.067,35.56-16.087,35.508-35.709
									C276.197,376.592,260.227,360.661,240.645,360.661z M240.719,424.276c-15.497,0-28.056-12.532-28.074-27.937
									c-0.052-15.416,12.476-28.02,27.927-28.094c0.002,0,0.048,0,0.049,0c15.414,0,27.991,12.537,28.037,27.947
									c0.021,7.486-2.874,14.53-8.152,19.834C255.229,421.328,248.202,424.258,240.719,424.276z M240.62,368.996l-0.044,0.75
									c-14.622,0.07-26.48,11.998-26.432,26.59c0.018,14.58,11.903,26.44,26.494,26.44c7.159-0.018,13.81-2.79,18.803-7.808
									c4.995-5.019,7.735-11.686,7.716-18.772c-0.044-14.585-11.948-26.451-26.537-26.451V368.996z"/>
							</g>
							<g>
								<path style="fill:#FFFFFF;" d="M197.179,391.858c3.361,3.362,86.943,5.302,86.909-0.224
									c-0.056-24.009-19.554-43.413-43.563-43.347C216.514,348.354,197.121,367.852,197.179,391.858z"/>
								<path d="M247.862,395.86c-0.001,0-0.001,0-0.002,0c-19.254-0.001-48.845-1.104-51.212-3.472
									c-0.141-0.141-0.22-0.33-0.22-0.528c-0.059-24.372,19.722-44.255,44.094-44.322h0.125c24.311,0,44.134,19.781,44.19,44.095
									c0.002,0.257-0.076,0.645-0.455,1.027C281.616,395.444,260.315,395.86,247.862,395.86z M197.93,391.462
									c2.848,1.343,24.94,2.897,49.931,2.898c26.743,0,34.894-1.76,35.493-2.799c-0.07-23.414-19.221-42.523-42.706-42.523h-0.121
									C217.113,349.103,198.087,368.098,197.93,391.462z"/>
							</g>
						</g>
						<g>
							<g>
								<path style="fill:#FFFFFF;" d="M301.724,393.721l23.772-0.052l-15.983-15.387c-0.949-0.898-0.977-2.406-0.064-3.349
									c0.915-0.943,2.405-0.969,3.352-0.063l16.186,15.579l-0.066-22.459c0-1.314,1.061-2.395,2.373-2.395
									c1.305,0,2.367,1.08,2.371,2.376l0.055,22.467l16.125-15.667c0.922-0.914,2.431-0.886,3.34,0.04
									c0.923,0.942,0.89,2.46-0.047,3.354l-15.916,15.489l24.171-0.068c1.299,0,2.373,1.057,2.373,2.36
									c0.01,1.306-1.049,2.389-2.357,2.389l-24.167,0.045l15.982,15.386c0.943,0.905,0.975,2.41,0.069,3.362
									c-0.459,0.487-1.069,0.704-1.698,0.704c-0.589,0-1.205-0.196-1.663-0.648l-16.172-15.572l0.061,22.466
									c0,1.308-1.061,2.373-2.361,2.373c-1.336,0-2.385-1.041-2.385-2.353l-0.061-22.469l-16.093,15.653
									c-0.473,0.447-1.064,0.667-1.653,0.667c-0.618,0-1.238-0.222-1.714-0.707c-0.913-0.939-0.88-2.458,0.049-3.356
									l15.909-15.479l-23.776,0.079c-1.293,0-2.361-1.049-2.361-2.393C299.362,394.805,300.415,393.746,301.724,393.721z"/>
								<path d="M331.458,427.203c-1.758,0-3.135-1.363-3.135-3.103l-0.057-20.697l-14.825,14.42
									c-1.246,1.18-3.286,1.107-4.426-0.053c-0.581-0.599-0.893-1.389-0.88-2.228c0.013-0.838,0.348-1.617,0.943-2.193
									l14.578-14.184l-21.921,0.073c-1.719,0-3.114-1.41-3.114-3.143c-0.013-1.688,1.372-3.093,3.087-3.126l21.931-0.048
									l-14.647-14.101c-0.599-0.566-0.941-1.341-0.959-2.175c-0.019-0.839,0.293-1.633,0.877-2.235
									c1.163-1.199,3.206-1.236,4.409-0.083l14.912,14.353l-0.061-20.689c0-1.736,1.401-3.146,3.123-3.146
									c1.716,0,3.116,1.401,3.121,3.124l0.051,20.698l14.857-14.435c1.162-1.15,3.233-1.132,4.397,0.053
									c0.587,0.6,0.902,1.393,0.889,2.233c-0.014,0.838-0.353,1.615-0.953,2.189l-14.582,14.192l22.317-0.064
									c1.724,0,3.125,1.396,3.125,3.11c0.006,0.832-0.316,1.623-0.909,2.22c-0.588,0.593-1.369,0.919-2.198,0.919l-22.311,0.041
									l14.647,14.1c1.237,1.188,1.279,3.171,0.093,4.419c-0.569,0.603-1.366,0.938-2.242,0.938c-0.847,0-1.624-0.307-2.189-0.863
									l-14.891-14.339l0.056,20.696C334.569,425.802,333.174,427.203,331.458,427.203z M329.012,400.882
									c0.099,0,0.197,0.02,0.291,0.059c0.277,0.117,0.458,0.389,0.459,0.69l0.061,22.469c0,0.9,0.718,1.604,1.635,1.604
									c0.889,0,1.611-0.728,1.611-1.623l-0.061-22.464c-0.001-0.301,0.179-0.573,0.455-0.691c0.279-0.119,0.598-0.061,0.815,0.149
									l16.172,15.572c0.387,0.382,0.882,0.438,1.143,0.438c0.324,0,0.788-0.081,1.152-0.469c0.622-0.654,0.602-1.688-0.043-2.307
									l-15.983-15.387c-0.22-0.212-0.289-0.536-0.176-0.819c0.114-0.284,0.39-0.47,0.695-0.471l24.167-0.045
									c0.428,0,0.83-0.169,1.135-0.476c0.309-0.311,0.477-0.723,0.474-1.157c0-0.894-0.728-1.616-1.623-1.616l-24.169,0.068
									c-0.001,0-0.001,0-0.002,0c-0.305,0-0.579-0.185-0.694-0.467c-0.115-0.283-0.048-0.608,0.171-0.82l15.916-15.489
									c0.314-0.3,0.487-0.7,0.494-1.134c0.008-0.438-0.156-0.849-0.46-1.159c-0.6-0.61-1.673-0.63-2.275-0.032l-16.131,15.673
									c-0.217,0.21-0.538,0.268-0.813,0.153c-0.277-0.117-0.458-0.389-0.459-0.689l-0.055-22.467
									c-0.003-0.898-0.729-1.628-1.621-1.628c-0.895,0-1.623,0.737-1.623,1.645l0.066,22.457c0.001,0.301-0.179,0.573-0.455,0.691
									c-0.278,0.12-0.598,0.061-0.815-0.149l-16.185-15.579c-0.626-0.599-1.687-0.582-2.293,0.045
									c-0.303,0.313-0.464,0.724-0.455,1.159c0.01,0.43,0.186,0.828,0.496,1.122l15.988,15.392
									c0.22,0.212,0.289,0.536,0.176,0.819c-0.114,0.284-0.389,0.47-0.694,0.471l-23.772,0.052
									c-0.885,0.018-1.61,0.744-1.603,1.62c0,0.911,0.723,1.648,1.611,1.648l23.773-0.079c0.001,0,0.002,0,0.003,0
									c0.305,0,0.579,0.185,0.694,0.467c0.115,0.283,0.048,0.607-0.171,0.82l-15.909,15.479c-0.31,0.299-0.482,0.703-0.488,1.141
									c-0.007,0.438,0.154,0.848,0.454,1.156c0.388,0.396,0.854,0.479,1.176,0.479c0.419,0,0.823-0.164,1.138-0.462l16.086-15.646
									C328.632,400.955,328.82,400.882,329.012,400.882z"/>
							</g>
							<g>
								<path style="fill:#FFFFFF;" d="M295.027,396.127c0.051,20.087,16.343,36.304,36.446,36.26
									c20.057-0.06,36.294-16.379,36.257-36.444c-0.071-20.066-16.381-36.304-36.449-36.266
									C311.195,359.737,294.956,376.057,295.027,396.127z M304.112,396.097c-0.055-15.053,12.126-27.284,27.183-27.337
									c15.055-0.022,27.287,12.14,27.348,27.197c0.039,15.068-12.154,27.305-27.196,27.337
									C316.393,423.336,304.141,411.164,304.112,396.097z"/>
								<path d="M331.392,433.137c-20.413-0.002-37.063-16.603-37.114-37.008c-0.035-9.906,3.796-19.232,10.786-26.26
									c6.99-7.026,16.3-10.912,26.216-10.942c20.473,0,37.129,16.604,37.201,37.013c0.038,20.449-16.563,37.136-37.005,37.197
									C331.476,433.137,331.393,433.137,331.392,433.137z M331.352,360.427c-9.583,0.028-18.518,3.758-25.225,10.5
									c-6.708,6.743-10.384,15.692-10.35,25.197c0.05,19.581,16.026,35.511,35.615,35.513v0.75l0.079-0.75
									c19.616-0.06,35.545-16.071,35.509-35.693C366.911,376.36,350.928,360.427,331.352,360.427z M331.448,424.044
									c-15.493,0-28.057-12.536-28.086-27.946c-0.027-7.477,2.864-14.518,8.143-19.823c5.276-5.304,12.304-8.238,19.787-8.265
									c0.001,0,0.044,0,0.045,0c15.408,0,27.994,12.536,28.056,27.944c0.02,7.487-2.879,14.532-8.161,19.839
									C345.951,421.098,338.926,424.028,331.448,424.044z M331.337,368.76l-0.041,0.75c-7.082,0.024-13.733,2.803-18.728,7.822
									c-4.995,5.021-7.732,11.685-7.706,18.762c0.027,14.585,11.918,26.45,26.506,26.45c7.153-0.016,13.803-2.788,18.8-7.809
									c5-5.023,7.743-11.691,7.725-18.776c-0.059-14.584-11.972-26.449-26.556-26.449V368.76z"/>
							</g>
							<g>
								<path style="fill:#FFFFFF;" d="M287.901,391.635c3.374,3.337,86.942,5.286,86.919-0.238
									c-0.06-23.993-19.549-43.408-43.566-43.344C307.251,348.107,287.832,367.626,287.901,391.635z"/>
								<path d="M338.589,395.619c0,0-0.001,0-0.002,0c-19.246,0-48.833-1.097-51.213-3.451c-0.142-0.141-0.222-0.331-0.223-0.531
									c-0.034-11.811,4.535-22.93,12.867-31.305c8.332-8.375,19.424-13.002,31.233-13.029h0.121
									c24.31,0,44.136,19.779,44.197,44.092c0.001,0.258-0.077,0.646-0.456,1.027
									C372.344,395.203,351.042,395.619,338.589,395.619z M288.652,391.235c2.864,1.336,24.955,2.884,49.935,2.884
									c26.749,0,34.9-1.758,35.499-2.797c-0.075-23.411-19.228-42.52-42.713-42.52h-0.117
									c-11.409,0.026-22.125,4.496-30.174,12.587C293.126,369.388,288.722,379.973,288.652,391.235z"/>
							</g>
						</g>
						<g>
							<path style="fill:#FFFFFF;" d="M396.463,186.14c0.016,3.095,2.504,5.569,5.601,5.568l74.29-0.197
								c3.07,0,5.583-2.51,5.568-5.614l-0.014-14.447c-0.018-3.087-2.54-5.584-5.626-5.577l-74.275,0.206
								c-3.094,0-5.597,2.518-5.597,5.6L396.463,186.14z"/>
							<path d="M402.065,192.458c-0.001,0-0.003,0-0.004,0c-3.483,0-6.331-2.833-6.349-6.314l-0.053-14.463
								c0-3.504,2.847-6.353,6.347-6.353l74.273-0.206c3.504,0,6.358,2.837,6.378,6.323l0.014,14.45
								c0.008,1.698-0.647,3.298-1.847,4.503c-1.195,1.201-2.784,1.862-4.472,1.862L402.065,192.458z M476.295,166.622
								l-74.286,0.206c-2.675,0-4.849,2.176-4.849,4.85l0.053,14.459c0.014,2.702,2.143,4.82,4.848,4.821l74.291-0.197
								c1.288,0,2.498-0.505,3.41-1.421c0.915-0.92,1.416-2.142,1.41-3.439l-0.014-14.45
								C481.143,168.789,478.961,166.622,476.295,166.622z"/>
						</g>
						<g>
							<path style="fill:#FFFFFF;" d="M396.732,186.14c0.018,3.095,2.506,5.569,5.603,5.568l74.289-0.197
								c3.07,0,5.581-2.51,5.567-5.614l-0.013-14.447c-0.02-3.087-2.54-5.584-5.626-5.577l-74.275,0.206
								c-3.094,0-5.597,2.518-5.597,5.6L396.732,186.14z"/>
							<path d="M402.338,192.458c-0.001,0-0.003,0-0.004,0c-3.482,0-6.332-2.833-6.352-6.314l-0.051-14.463
								c0-3.504,2.847-6.353,6.347-6.353l74.273-0.206c3.501,0,6.355,2.836,6.378,6.322l0.013,14.451
								c0.008,1.699-0.648,3.3-1.849,4.504c-1.194,1.2-2.782,1.861-4.469,1.861L402.338,192.458z M476.566,166.622l-74.286,0.206
								c-2.675,0-4.849,2.176-4.849,4.85l0.051,14.459c0.016,2.702,2.146,4.82,4.851,4.821l74.29-0.197
								c1.287,0,2.497-0.504,3.408-1.42c0.916-0.92,1.417-2.142,1.411-3.441l-0.013-14.449
								C481.413,168.79,479.231,166.622,476.566,166.622z"/>
						</g>
						<g>
							<path style="fill:#FFFFFF;" d="M469.178,184.838c0,1.658,1.358,3.023,3.006,3.023c1.677-0.014,3.021-1.365,2.996-3.03
								c0-1.677-1.342-3.01-2.996-3.01C470.515,181.821,469.16,183.173,469.178,184.838z"/>
							<path d="M472.184,188.611c-2.071,0-3.756-1.692-3.756-3.773c-0.011-0.993,0.372-1.938,1.078-2.65
								c0.712-0.72,1.663-1.116,2.678-1.116c2.065,0,3.746,1.686,3.746,3.76c0.015,0.987-0.362,1.931-1.06,2.645
								c-0.708,0.724-1.66,1.127-2.681,1.136C472.188,188.611,472.185,188.611,472.184,188.611z M472.184,182.571
								c-0.611,0-1.184,0.238-1.611,0.671c-0.422,0.426-0.651,0.99-0.645,1.588c0,1.26,1.01,2.279,2.252,2.281
								c0.617-0.006,1.191-0.249,1.617-0.684c0.417-0.426,0.642-0.989,0.633-1.585C474.43,183.585,473.422,182.571,472.184,182.571z
								"/>
						</g>
						<g>
							<path style="fill:#FFFFFF;" d="M452.772,184.874c0,1.689,1.349,3.035,3.038,3.009c1.651,0,2.996-1.345,2.996-3.009
								c0-1.683-1.354-3.022-3.038-3.022C454.121,181.852,452.772,183.213,452.772,184.874z"/>
							<path d="M455.762,188.633c-2.061,0-3.739-1.686-3.739-3.759c0-2.08,1.681-3.772,3.746-3.772c2.089,0,3.788,1.692,3.788,3.772
								c0,2.072-1.681,3.759-3.746,3.759H455.762z M455.769,182.602c-1.238,0-2.246,1.02-2.246,2.272
								c0,1.267,0.983,2.259,2.239,2.259v0.75l0.037-0.75c1.25,0,2.258-1.014,2.258-2.259
								C458.057,183.6,457.052,182.602,455.769,182.602z"/>
						</g>
						<g>
							<path style="fill:#FFFFFF;" d="M436.336,184.921c0.026,1.684,1.385,3.035,3.06,3.035c1.666-0.023,3.016-1.389,3.016-3.035
								c0-1.68-1.382-3.033-3.038-3.033C437.696,181.925,436.336,183.256,436.336,184.921z"/>
							<path d="M439.395,188.706c-2.068,0-3.777-1.692-3.81-3.773c0-2.086,1.656-3.748,3.771-3.795c2.105,0,3.805,1.697,3.805,3.783
								c0,2.058-1.685,3.756-3.755,3.785C439.402,188.706,439.399,188.706,439.395,188.706z M439.373,182.638
								c-1.275,0.028-2.287,1.031-2.287,2.283c0.02,1.253,1.053,2.282,2.304,2.285c1.253-0.021,2.272-1.044,2.272-2.285
								C441.661,183.662,440.635,182.638,439.373,182.638z"/>
						</g>
						<g>
							<path style="fill:#FFFFFF;" d="M419.959,184.973c0,1.648,1.35,3.016,3.028,3.016c1.662-0.015,3.011-1.367,3.011-3.048
								c0-1.653-1.353-3.002-3.037-3.002C421.309,181.939,419.959,183.308,419.959,184.973z"/>
							<path d="M422.987,188.738c-2.083,0-3.778-1.689-3.778-3.766c0-2.087,1.684-3.784,3.752-3.784
								c2.088,0,3.787,1.684,3.787,3.752c0,2.076-1.685,3.779-3.754,3.798C422.992,188.738,422.989,188.738,422.987,188.738z
								 M422.961,182.689c-1.242,0-2.252,1.024-2.252,2.284c0,1.248,1.02,2.264,2.275,2.266c1.248-0.013,2.264-1.043,2.264-2.298
								C425.248,183.698,424.222,182.689,422.961,182.689z"/>
						</g>
						<g>
							<path style="fill:#FFFFFF;" d="M403.557,185.006c0,1.672,1.374,3.036,3.037,3.036c1.662-0.031,3.007-1.389,3.007-3.042
								c-0.018-1.67-1.357-3.03-3.043-3.005C404.898,182.008,403.557,183.352,403.557,185.006z"/>
							<path d="M406.594,188.792c-2.088,0-3.787-1.698-3.787-3.786c0-2.058,1.68-3.745,3.745-3.761h0.001
								c2.096,0,3.776,1.681,3.798,3.747c0,2.06-1.679,3.761-3.743,3.8C406.603,188.792,406.599,188.792,406.594,188.792z
								 M406.604,182.745c-1.285,0.01-2.298,1.023-2.298,2.261c0,1.258,1.023,2.282,2.28,2.286c1.249-0.027,2.264-1.054,2.264-2.292
								C408.837,183.739,407.851,182.745,406.604,182.745z"/>
						</g>
					</g>
				</g>
			</g>
		</g>
	</g>
</g>
</svg>
