<?xml version="1.0" encoding="utf-8"?>
<!-- Generator: Adobe Illustrator 27.5.0, SVG Export Plug-In . SVG Version: 6.00 Build 0)  -->
<svg xmlns="http://www.w3.org/2000/svg" xmlns:xlink="http://www.w3.org/1999/xlink" viewBox="0 0 4000 4000" width="595" height="842" preserveAspectRatio="xMidYMid meet" data-scaled="true">
<g id="Background">
	<g>
		<g>
			<rect style="fill:#FFFFFF;" width="4000" height="4000"/>
		</g>
	</g>
</g>
<g id="Object">
	<g>
		<path d="M3114.111,1191.036c21.347,14.059,43.685,15.57,68.281,14.418c25.747-5.706,47.565-15.349,62.215-38.569
			c13.739-21.778,17.406-48.737,11.462-73.655c-5.576-23.384-19.508-43.665-40.245-56.068
			c-17.069-10.208-37.295-14.066-57.018-12.818c-25.681,3.851-49.215,15.17-64.929,36.628
			c-14.845,20.278-20.625,47.21-16.273,71.878C3081.664,1155.873,3094.384,1178.042,3114.111,1191.036z M3112.052,1108.547
			c0.221-1.79,0.535-3.562,0.938-5.318c0.406-1.757,0.9-3.488,1.484-5.193c0.586-1.705,1.258-3.377,2.016-5.014
			c0.758-1.635,1.598-3.227,2.52-4.774c0.922-1.548,1.924-3.045,3.003-4.491c11.665-15.817,27.262-20.969,45.777-23.916
			c10.613,0.688,20.439,2.92,29.637,8.481c1.55,0.93,3.051,1.934,4.502,3.013c1.448,1.083,2.839,2.233,4.172,3.452
			c1.335,1.221,2.604,2.506,3.811,3.851c1.205,1.348,2.339,2.753,3.403,4.214c1.064,1.463,2.05,2.975,2.961,4.535
			c0.913,1.561,1.744,3.164,2.494,4.809c0.752,1.645,1.419,3.325,1.999,5.036c0.584,1.71,1.079,3.446,1.486,5.209
			c0.453,1.907,0.805,3.833,1.053,5.778c0.252,1.944,0.4,3.896,0.446,5.855c0.044,1.959-0.015,3.914-0.177,5.866
			c-0.159,1.954-0.42,3.895-0.785,5.822c-0.365,1.924-0.833,3.825-1.399,5.702c-0.562,1.877-1.225,3.719-1.985,5.526
			c-0.758,1.807-1.608,3.569-2.554,5.287c-0.944,1.717-1.977,3.38-3.096,4.988c-10.655,15.323-25.893,22.367-43.836,25.332
			c-12.373-0.246-20.865-2.396-31.439-9.138c-1.68-1.087-3.299-2.257-4.857-3.507c-1.561-1.252-3.052-2.579-4.477-3.982
			c-1.426-1.404-2.775-2.875-4.05-4.417c-1.273-1.541-2.467-3.142-3.579-4.804c-1.112-1.662-2.134-3.378-3.069-5.146
			c-0.937-1.767-1.782-3.577-2.532-5.429c-0.752-1.854-1.409-3.742-1.97-5.661c-0.559-1.92-1.019-3.862-1.378-5.83
			c-0.338-1.772-0.583-3.556-0.734-5.35c-0.15-1.797-0.206-3.598-0.172-5.4S3111.829,1110.336,3112.052,1108.547z"/>
		<path d="M1412.708,567.833c18.988,13.331,40.981,18.273,63.869,16.337c28.847-6.039,55.249-19.477,71.705-44.87
			c13.005-20.071,16.262-44.429,11.177-67.619c-0.343-1.593-0.728-3.176-1.152-4.749c-0.422-1.573-0.884-3.134-1.388-4.683
			c-0.502-1.549-1.046-3.086-1.627-4.607c-0.581-1.522-1.199-3.028-1.857-4.518c-0.656-1.491-1.351-2.964-2.083-4.419
			c-0.734-1.455-1.503-2.89-2.308-4.306c-0.805-1.416-1.645-2.811-2.52-4.185c-0.878-1.373-1.789-2.723-2.733-4.05
			c-0.946-1.327-1.923-2.629-2.932-3.907c-1.011-1.277-2.054-2.528-3.129-3.752c-1.075-1.225-2.178-2.421-3.314-3.589
			c-1.134-1.169-2.297-2.307-3.491-3.416c-1.194-1.109-2.416-2.187-3.661-3.235c-1.249-1.046-2.523-2.061-3.821-3.043
			c-1.3-0.982-2.624-1.932-3.971-2.846c-1.349-0.916-2.719-1.796-4.11-2.641c-2.246-1.37-4.542-2.645-6.892-3.826
			s-4.745-2.264-7.183-3.249c-2.437-0.985-4.913-1.869-7.425-2.65c-2.51-0.781-5.05-1.459-7.617-2.033
			c-2.565-0.573-5.151-1.041-7.756-1.402c-2.604-0.362-5.22-0.616-7.847-0.762c-2.625-0.148-5.253-0.186-7.882-0.119
			c-2.627,0.069-5.249,0.245-7.863,0.529c-27.529,4.35-51.676,16.705-68.192,39.776c-14.168,19.787-18.254,43.353-14.204,67.116
			C1376.868,528.762,1391.354,552.839,1412.708,567.833z M1414.178,460.541c11.332-19.478,29.532-27.882,50.486-32.887
			c11.988,0.893,23.123,4.954,33.223,11.393c1.747,1.108,3.436,2.3,5.065,3.578c1.629,1.278,3.188,2.635,4.679,4.07
			c1.492,1.435,2.908,2.94,4.247,4.518c1.342,1.577,2.598,3.218,3.774,4.922c1.174,1.704,2.26,3.462,3.259,5.276
			c0.999,1.813,1.901,3.673,2.711,5.577c0.811,1.904,1.523,3.845,2.14,5.822c0.615,1.974,1.13,3.976,1.545,6.005
			c0.387,1.989,0.676,3.993,0.858,6.012c0.188,2.019,0.272,4.042,0.252,6.069c-0.018,2.027-0.139,4.047-0.363,6.061
			c-0.224,2.014-0.548,4.012-0.971,5.994c-0.427,1.984-0.951,3.94-1.576,5.866c-0.624,1.93-1.346,3.823-2.16,5.68
			c-0.816,1.855-1.722,3.664-2.719,5.43c-1,1.762-2.085,3.471-3.257,5.126c-11.528,16.352-27.049,22.603-46.036,25.594
			c-10.642-0.093-21.361-2.221-30.806-7.209c-14.681-7.755-25.016-21.006-29.502-36.947
			C1404.658,490.993,1406.018,474.564,1414.178,460.541z"/>
		<path d="M667.016,2376.145c-0.248-1.598-0.535-3.186-0.862-4.767c-0.325-1.58-0.692-3.152-1.099-4.715
			c-0.409-1.563-0.854-3.115-1.338-4.655c-0.497-1.521-1.03-3.029-1.599-4.524c-0.575-1.493-1.183-2.972-1.826-4.435
			c-0.644-1.466-1.327-2.913-2.045-4.342c-0.716-1.43-1.468-2.843-2.255-4.237c-0.789-1.393-1.608-2.765-2.465-4.116
			c-0.854-1.351-1.744-2.681-2.666-3.99c-0.92-1.308-1.873-2.593-2.861-3.851c-0.984-1.262-1.999-2.496-3.047-3.705
			c-1.046-1.211-2.122-2.396-3.226-3.552c-1.106-1.154-2.242-2.282-3.403-3.384c-1.161-1.099-2.35-2.17-3.564-3.212
			c-1.214-1.04-2.454-2.049-3.719-3.029c-1.267-0.979-2.556-1.927-3.867-2.842s-2.646-1.798-4-2.647
			c-1.357-0.847-2.733-1.661-4.132-2.442c-1.397-0.781-2.812-1.525-4.245-2.236c-19.081-9.251-38.312-9.662-58.888-8.092
			c-27.419,6.806-50.508,19.013-65.311,44.276c-0.801,1.39-1.566,2.801-2.297,4.229c-0.732,1.428-1.428,2.872-2.087,4.333
			c-0.659,1.464-1.284,2.941-1.87,4.434c-0.584,1.493-1.134,3-1.649,4.521c-0.509,1.521-0.984,3.054-1.421,4.6
			c-0.438,1.543-0.838,3.096-1.196,4.658c-0.36,1.563-0.679,3.135-0.962,4.715s-0.526,3.166-0.729,4.757
			c-0.204,1.59-0.369,3.185-0.493,4.785c-0.124,1.601-0.212,3.202-0.259,4.805c-0.044,1.603-0.051,3.207-0.018,4.812
			c0.033,1.603,0.106,3.205,0.217,4.804c0.111,1.603,0.265,3.201,0.456,4.794c0.192,1.592,0.422,3.179,0.692,4.76
			c0.268,1.583,0.577,3.157,0.924,4.722c0.349,1.566,0.734,3.122,1.158,4.67c0.436,1.57,0.911,3.128,1.422,4.674
			c0.513,1.545,1.064,3.078,1.652,4.599c0.588,1.518,1.214,3.022,1.877,4.51c0.663,1.488,1.362,2.96,2.098,4.416
			c0.736,1.453,1.506,2.886,2.315,4.301c0.805,1.416,1.645,2.812,2.523,4.187c0.875,1.374,1.784,2.725,2.726,4.053
			c0.942,1.329,1.917,2.634,2.925,3.915c1.004,1.279,2.041,2.533,3.111,3.766c1.068,1.229,2.167,2.431,3.297,3.607
			c1.126,1.174,2.282,2.321,3.465,3.44c1.187,1.117,2.399,2.205,3.639,3.264c1.24,1.057,2.503,2.083,3.792,3.077
			c1.289,0.998,2.602,1.961,3.94,2.891c1.336,0.932,2.695,1.829,4.077,2.691c1.38,0.863,2.782,1.692,4.207,2.487
			c2.384,1.315,4.822,2.521,7.312,3.624c2.49,1.099,5.024,2.09,7.602,2.972c2.578,0.88,5.189,1.646,7.834,2.3
			c2.642,0.651,5.309,1.186,8,1.607c2.689,0.419,5.393,0.72,8.112,0.905c2.717,0.185,5.435,0.251,8.157,0.198
			c2.722-0.052,5.439-0.225,8.148-0.516c2.708-0.29,5.397-0.696,8.068-1.219c28.04-8.338,50.278-22.446,64.838-48.777
			c0.78-1.414,1.524-2.846,2.231-4.297c0.708-1.451,1.38-2.918,2.016-4.405c0.633-1.485,1.229-2.986,1.787-4.502
			c0.557-1.515,1.075-3.043,1.556-4.583c0.482-1.541,0.922-3.094,1.324-4.659c0.403-1.563,0.767-3.136,1.088-4.719
			c0.321-1.58,0.604-3.17,0.845-4.767c0.241-1.596,0.444-3.197,0.606-4.805c0.159-1.605,0.279-3.214,0.358-4.827
			c0.08-1.612,0.119-3.226,0.117-4.842c-0.004-1.616-0.046-3.23-0.128-4.842c-0.084-1.613-0.208-3.223-0.374-4.827
			C667.465,2379.341,667.258,2377.741,667.016,2376.145z M632.001,2400.712c-0.292,2.037-0.687,4.053-1.181,6.05
			c-0.495,1.998-1.086,3.964-1.78,5.901c-0.696,1.937-1.486,3.834-2.37,5.691c-0.885,1.857-1.862,3.664-2.928,5.422
			c-9.923,16.354-24.865,23.837-42.854,28.346c-13.397,1.384-25.431-0.145-37.355-6.79c-14.555-8.118-24.823-22.499-29.008-38.517
			c-0.524-1.954-0.949-3.93-1.274-5.926c-0.327-1.998-0.555-4.005-0.681-6.024c-0.128-2.019-0.151-4.04-0.075-6.064
			c0.075-2.022,0.25-4.035,0.528-6.04c0.276-2.004,0.652-3.989,1.128-5.956c0.477-1.967,1.048-3.905,1.716-5.815
			c0.668-1.91,1.431-3.781,2.288-5.616c0.856-1.832,1.8-3.619,2.835-5.359c10.248-17.121,25.411-24.431,43.964-29.15
			c13.797-0.792,24.492,0.269,36.663,7.265c1.767,1.035,3.48,2.153,5.138,3.354c1.658,1.205,3.253,2.486,4.785,3.844
			c1.532,1.359,2.992,2.79,4.387,4.293c1.391,1.503,2.706,3.069,3.944,4.7c1.238,1.633,2.392,3.322,3.463,5.066
			c1.074,1.743,2.058,3.535,2.954,5.377c0.896,1.842,1.7,3.723,2.412,5.643c0.712,1.92,1.329,3.87,1.849,5.852
			c0.531,1.987,0.96,3.996,1.287,6.027c0.329,2.032,0.555,4.075,0.677,6.129c0.122,2.051,0.139,4.105,0.051,6.162
			C632.481,2396.63,632.293,2398.675,632.001,2400.712z"/>
		<path d="M3531.799,2439.255c-0.606-1.466-1.247-2.916-1.926-4.349c-0.676-1.433-1.386-2.849-2.134-4.248
			c-0.747-1.4-1.53-2.781-2.344-4.139c-0.814-1.361-1.663-2.7-2.547-4.016c-0.882-1.319-1.795-2.614-2.74-3.885
			c-0.948-1.273-1.924-2.522-2.93-3.746c-1.008-1.224-2.047-2.422-3.115-3.594c-1.068-1.174-2.164-2.319-3.288-3.436
			c-1.123-1.119-2.275-2.208-3.454-3.268c-1.176-1.062-2.381-2.094-3.611-3.096c-1.229-1.002-2.483-1.972-3.759-2.909
			c-1.278-0.939-2.578-1.847-3.9-2.722c-1.324-0.875-2.667-1.716-4.029-2.523c-1.364-0.808-2.748-1.582-4.152-2.322
			c-19.377-10.081-38.419-10.821-59.576-9.401c-25.63,3.983-47.607,14.706-63.273,36.057c-15.342,20.906-22.73,47.786-18.542,73.516
			c0.272,1.655,0.588,3.301,0.946,4.939c0.358,1.64,0.756,3.27,1.198,4.888c0.438,1.617,0.918,3.223,1.442,4.816
			c0.524,1.592,1.088,3.171,1.691,4.737c0.603,1.566,1.247,3.114,1.93,4.644c0.683,1.534,1.404,3.048,2.163,4.543
			c0.761,1.494,1.559,2.967,2.394,4.42c0.838,1.456,1.713,2.887,2.622,4.296c0.907,1.408,1.851,2.793,2.834,4.155
			c0.98,1.36,1.994,2.696,3.04,4.004c1.05,1.309,2.132,2.591,3.246,3.844c1.114,1.254,2.26,2.479,3.436,3.673
			c1.176,1.196,2.383,2.36,3.619,3.492c1.238,1.135,2.503,2.235,3.796,3.302c1.294,1.069,2.613,2.103,3.956,3.104
			c1.346,1.001,2.717,1.968,4.114,2.897c21.56,14.411,45.248,18.673,70.636,15.401c28.106-8.196,51.742-21.388,66.443-48.077
			c12.594-22.861,16.393-50.912,9.005-76.035c-0.457-1.518-0.951-3.025-1.484-4.521
			C3532.97,2442.2,3532.404,2440.72,3531.799,2439.255z M3499.706,2499.07c-7.679,19.661-22.864,28.04-40.977,36.176
			c-11.864,2.36-22.453,3.557-34.142-0.355c-16.616-5.556-29.749-18.277-36.955-34.134c-6.766-14.897-8.218-32.153-2.242-47.554
			c7.161-18.457,21.339-28.552,38.752-36.198c12.994-1.1,25.06-2.016,37.709,2.202c1.952,0.631,3.867,1.36,5.744,2.187
			c1.875,0.831,3.703,1.754,5.486,2.771c1.778,1.02,3.502,2.128,5.17,3.325c1.665,1.197,3.265,2.475,4.796,3.836
			c1.534,1.364,2.994,2.802,4.38,4.315c1.386,1.514,2.688,3.094,3.907,4.741c1.221,1.648,2.354,3.354,3.398,5.119
			c1.044,1.765,1.996,3.579,2.854,5.444C3504.497,2465.784,3505.7,2483.724,3499.706,2499.07z"/>
		<path d="M2328.466,475.701c1.764,7.587,7.186,13.124,13.819,16.856c27.443,15.424,73.452,10.656,106.198,23.96
			c5.912,8.674,11.134,17.192,15.888,26.563c10.743,20.408,30.733,76.267,52.697,81.491c7.882,1.873,14.853-0.06,21.493-4.367
			c28.911-18.76,40.884-75.942,59.509-104.868l2.459-0.812c28.518-9.251,102.155-8.604,116.89-35.095
			c4.263-7.662,4.114-16.891,1.596-25.108c-8.386-27.381-56.416-63.452-74.969-92.234l0.403-3.231
			c3.931-30.068,29.367-89.005,8.541-114.652c-6.589-8.116-17.182-12.003-27.375-12.676c-0.993-0.066-1.992-0.099-2.987-0.149
			c-33.638,8.929-63.562,32.315-95.569,45.704l-2.551-0.865c-33.435-11.58-87.021-55.099-122.09-39.705
			c-6.771,2.972-11.217,8.381-13.677,15.269c-10.31,28.878,10.118,84.803,13.434,116.624l-1.398,2.282
			C2382.908,399.273,2320.516,441.582,2328.466,475.701z M2429.572,316.625c-3.668-13.534-12.198-34.014-10.418-48
			c0.097-0.764,0.351-1.501,0.524-2.251c24.671,3.796,48.859,23.503,71.338,34.198c50.977,24.257,89.524-16.994,135.743-33.061
			l2.98-1.021c-4.725,24.719-13.673,48.627-17.312,73.578c-1.809,12.421-2.302,25.695,2.112,37.638
			c10.347,27.962,53.224,60.214,72.028,85.832c0.444,0.604,0.875,1.219,1.309,1.828c-35.81,8.379-81.836,1.903-111.678,26.125
			c-22.977,26.493-36.479,64.587-51.313,96.197c-10.312-25.755-25.893-63.348-42.405-85.301
			c-26.128-34.748-80.489-31.353-119.788-36.469l2.352-2.988C2411.572,403.266,2453.771,405.95,2429.572,316.625z"/>
		<path d="M566.866,3115.517l1.813-1.866c23.019-23.265,87.687-54.087,87.99-89.236c0.086-10.009-3.867-19.013-10.953-26.046
			c-19.601-19.448-77.755-28.698-105.653-39.444l-1.32-2.569c-14.239-28.017-33.459-108.835-61.906-118.445
			c-5.346-1.806-11.928-2.3-17.562-2.251c-18.96,5.287-26.974,18.823-36.188,35.211c-12.718,22.618-23.519,48.691-40.382,68.553
			c-30.643,4.371-98.483,0.505-117.352,24.791c-0.831,1.076-1.605,2.194-2.322,3.35c-0.716,1.157-1.373,2.345-1.968,3.567
			c-0.595,1.224-1.125,2.474-1.592,3.751c-0.467,1.279-0.869,2.576-1.205,3.892c-0.334,1.318-0.601,2.651-0.8,3.997
			c-0.197,1.346-0.327,2.698-0.387,4.058c-0.06,1.358-0.051,2.717,0.027,4.075c0.078,1.357,0.225,2.706,0.442,4.05
			c3.847,23.666,45.222,67.062,60.093,90.031c-5.751,30.761-25.467,75.519-24.969,103.899c0.151,8.559,3.544,18.699,8.386,25.737
			c4.663,6.779,11.239,10.757,19.395,11.902c35.403,4.969,82.391-42.219,113.491-35.848c5.391,1.107,10.801,5.743,15.188,8.914
			c24.502,18.594,51.7,47.524,81.43,55.391c14.429-3.272,26.853-6.062,35.582-19.263
			C581.336,3212.735,566.376,3145.231,566.866,3115.517z M541.798,3090.124c-19.988,22.909-3.215,93.803-1.899,123.829
			c0.122,2.823,0.415,1.372-2.143,4.173c-17.611,0.205-66.945-45.479-83.554-57.762c-40.78-24.899-81.958,23.268-120.686,29.872
			c-15.862-6.461,19.629-83.817,19.85-102.221c0.378-31.389-51.601-74.105-65.778-105.257c32.049-5.085,66.647-1.443,98.226-8.978
			c6.912-1.649,14.091-4.229,19.568-8.899c21.166-18.03,41.37-68.045,57.637-93.24c19.906,8.75,30.2,91.359,54.603,112.047
			c17.662,14.971,80.214,24.514,104.786,36.774l0.221,3.32C603.744,3051.611,564.247,3064.391,541.798,3090.124z"/>
		<path d="M3526.441,1479.14c-8.924-3.215-18.34-3.272-27.68-2.411c-17.491,5.799-24.387,14.104-32.646,30.35
			c-12.664,24.914-21.736,51.765-42.85,71.204l-3.436,0.434c-30.808,3.743-99.204-4.838-119.282,21.388
			c-5.925,7.737-6.571,17.536-4.891,26.844c5.72,31.655,53.451,67.996,71.279,98.781c-7.807,33.256-32.449,89.144-14.36,119.731
			c4.431,7.489,11.035,12.616,19.526,14.687c33.656,8.208,73.405-23.153,104.457-33.245l2.37-0.789l1.433-0.453
			c5.945,2.577,12.013,5.007,17.85,7.815c25.353,15.371,60.19,46.885,91.156,40.367c10.067-2.12,17.458-8.263,22.913-16.8
			c18.756-29.348,3.52-79.905,3.987-113.528c24.677-13.838,87.824-50.022,95.691-76.376c3.036-10.174,1.566-20.229-3.496-29.468
			c-7.818-14.269-19.855-21.022-35.186-24.97c-29.521-7.598-59.87-11.008-89.216-19.545c-11.707-26.888-21.137-73.721-34.868-95.288
			C3543.818,1489.419,3535.924,1482.558,3526.441,1479.14z M3679.912,1655.971c-12.583,19.295-67.515,40.791-86.656,63.993
			c-23.56,28.551-8.596,72.161-6.872,105.645c0.321,6.297-0.489,9.373-4.641,14.052c-10.244,1.679-67.124-37.47-78.962-44.672
			c-37.744-18.389-74.357,20.842-109.299,28.87c-4.984,1.144-6.792,0.516-10.796-2.378c-6.251-18.61,14.511-60.267,17.754-81.566
			c7.164-47.053-37.085-70.394-60.571-103.702c-3.319-4.711-4.207-7.646-3.169-13.266c9.859-9.255,68.183-7.602,85.544-9.98
			c54.906-7.527,56.569-66.945,84.642-103.705c0.696,0.018,1.395,0,2.087,0.06c2.001,0.168,5.34,0.957,6.75,2.594
			c13.576,15.734,19.066,81.872,41.498,104.198C3580.722,1639.509,3665.527,1637.393,3679.912,1655.971z"/>
		<path d="M322.452,1748.845c-2.198,37.5-33.594,97.136-9.742,123.415c7.559,8.331,19.988,13.655,31.18,13.872
			c35.624,0.696,64.968-36.995,100.493-42.6c28.818,16.849,81.827,56.648,115.486,47.203c7.438-2.087,13.12-6.286,16.819-13.109
			c14.089-25.992-4.995-90.638-8.63-121.081c21.785-21.302,63.162-47.304,79.303-69.074c5.105-6.879,8.63-15.207,8.574-23.882
			c-0.075-11.71-6.229-23.635-14.94-31.266c-21.52-18.853-79.062-19.829-108.503-27.461c-6.111-9.134-11.548-18.213-15.837-28.358
			c-10.88-25.725-21.641-75.919-53.19-82.997c-4.535-1.018-9.242-1.485-13.878-1.743c-14.738,2.071-23.556,7.111-32.719,19.013
			c-20.063,26.054-27.684,60.911-46.171,88.599c-32.539,4.124-102.655,1.727-123.003,28.997c-6.81,9.123-8.943,21.672-6.874,32.748
			C247.527,1697.012,300.258,1721.056,322.452,1748.845z M276.885,1649.686c18.139-9.602,50.763-8.615,71.166-10.884
			c12.499-1.387,29.904-2.865,40.848-9.157c23.567-13.554,41.545-78.844,61.729-104.113c20.737,8.618,32.75,82.725,53.498,103.203
			c24.036,23.728,86.72,14.751,117.036,30.441c2.255,13.259-71.739,60.784-82.707,81.367
			c-14.736,27.666,17.611,96.301,5.505,117.002c-17.832-0.426-68.92-41.475-95.478-48.348c-0.756-0.194-1.517-0.366-2.277-0.553
			c-37.388-0.542-77.638,44.167-105.731,43.236c-8.515-10.458,18.9-81.02,19.722-99.98c1.17-26.96-57.909-64.949-75.646-85.38
			C279.934,1661.207,276.332,1656.918,276.885,1649.686z"/>
		<path d="M3632.462,2906.39c-17.553-28.72-30.209-68.318-47.424-93.438c-5.459-7.964-11.94-15.693-21.639-18.225
			c-3.997-1.043-8.156-1.376-12.256-1.727c-15.862,2.685-21.827,8.335-31.058,21.343c-19.384,27.299-34.09,59.815-51.881,88.427
			c-33.627,5.841-99.429,9.867-120.416,39.034c-4.385,6.098-4.782,13.401-3.504,20.557c6.233,34.826,52.259,69.608,73.023,97.801
			c-0.095,0.778-0.173,1.555-0.277,2.333c-3.986,30.512-33.356,92.065-14.482,118.138c5.83,8.051,16.063,12.717,25.771,13.745
			c31.158,3.306,100.25-50.332,117.602-41.811c26.411,15.046,83.112,60.189,112.769,52.5c8.83-2.288,15.38-8.08,19.78-15.954
			c13.277-23.77,3.129-96.519-0.257-125.228c21.022-19.335,80.959-64.172,81.711-92.028c0.236-8.671-3.407-16.362-9.393-22.51
			C3728.665,2926.896,3663.851,2920.595,3632.462,2906.39z M3651.134,3039.257c-20.52,25.654,5.234,99.173-3.376,127.126
			c-1.084,3.523-0.352,2.225-4.113,4.08c-25.74-5.209-61.643-40.51-89.268-52.778l-2.434-1.069
			c-27.79-6.035-90.188,35.727-120.983,45.18c5.859-39.404,18.486-76.818,21.661-116.916c-13.593-25.419-51.481-58.158-70.52-83.514
			c23.132-12.882,48.824-17.163,74.377-22.798c9.008-1.985,19.662-3.26,27.872-7.59c7.853-4.147,14.075-10.538,19.32-17.616
			c19.377-26.129,29.154-59.284,50.086-84.542c0.396-0.476,0.809-0.939,1.209-1.41c5.609,7.075,8.868,17.343,12.537,25.58
			c11.96,26.87,24.277,62.275,44.472,83.884c36.013,15.005,76.687,22.091,113.817,34.737
			C3702.776,2995.101,3671.566,3013.719,3651.134,3039.257z"/>
		<path d="M3283.984,762.037c16.089,10.447,34.934,16.912,52.865,23.425c4.482,39.096,20.074,72.139,51.525,96.758
			c28.175,22.05,58.035,26.818,92.847,23.34c33.76-7.067,63.469-22.995,82.889-52.318c17.807-26.892,23.302-60.855,16.823-92.274
			c-6.162-29.898-22.891-57.467-49.098-73.852c-32.31-20.196-67.71-16.628-92.832-50.321c-7.422-9.958-12.926-20.767-15.962-32.856
			c-3.904-15.517-2.177-31.977-3.003-47.838c-1.771-34.023-20.908-66.971-49.812-85.013c-22.667-14.147-45.012-16.504-71.051-15.238
			c-31.333,5.868-57.725,20.909-75.928,47.626c-26.385,38.722-29.814,88.102-20.879,132.949
			C3212.32,686.359,3240.685,733.919,3283.984,762.037z M3242.443,541.143c11.265-25.546,31.333-40.106,56.673-49.719
			c17.118-1.534,33.934,0.063,49.489,8.065c49.427,25.43,27.041,78.454,41.171,119.697c10.799,31.524,37.141,65.375,68.232,78.069
			c15.252,6.226,31.544,9.658,46.254,17.283c21.055,10.914,35.454,28.051,41.823,50.953c5.724,20.606,3.758,42.122-7.035,60.69
			c-13.833,23.804-32.829,37.122-59.092,44.04c-20.408,1.907-38.636,1.186-57.561-7.774c-47.876-22.659-40.862-57.373-55.242-93.699
			c-7.285-18.396-29.46-22.072-45.876-28.934c-35.631-14.901-59.102-43.056-73.445-78.384
			C3233.028,624.959,3226.084,578.247,3242.443,541.143z"/>
		<path d="M439.114,1074.659c1.95,1.44,3.934,2.834,5.954,4.18c2.019,1.344,4.07,2.637,6.151,3.881
			c2.081,1.244,4.192,2.438,6.333,3.582c2.138,1.142,4.303,2.229,6.498,3.264c2.191,1.037,4.407,2.019,6.648,2.947
			c2.242,0.93,4.504,1.804,6.786,2.622c2.284,0.817,4.586,1.579,6.907,2.284c2.32,0.706,4.658,1.355,7.007,1.948
			c2.353,0.592,4.72,1.126,7.097,1.604c2.379,0.477,4.767,0.896,7.164,1.257c2.399,0.359,4.803,0.66,7.217,0.905
			c2.412,0.242,4.831,0.426,7.254,0.553c2.423,0.125,4.847,0.191,7.272,0.198c2.426,0.007,4.851-0.045,7.274-0.157
			c2.423-0.109,4.84-0.279,7.254-0.509c2.415-0.227,4.824-0.514,7.223-0.86c4.745-0.74,9.457-1.633,14.142-2.677
			c40.439-12.903,77.941-38.551,97.656-77.127c13.023-25.482,12.645-50.778,20.344-77.344
			c13.301-45.89,68.606-89.178,112.443-103.735c22.53-7.478,44.413-0.737,67.268-0.109c52.191,1.432,100.668-28.956,124.827-74.622
			c21.365-40.397,23.976-89.021,10.096-132.343c-0.749-2.283-1.552-4.546-2.412-6.79c-0.858-2.244-1.769-4.464-2.737-6.663
			c-0.966-2.201-1.984-4.376-3.06-6.524c-1.072-2.152-2.195-4.274-3.368-6.368c-1.176-2.096-2.403-4.162-3.679-6.196
			c-1.274-2.037-2.598-4.041-3.971-6.013c-1.373-1.969-2.795-3.904-4.263-5.806c-1.468-1.905-2.981-3.771-4.539-5.598
			c-1.557-1.829-3.16-3.62-4.805-5.37c-1.645-1.75-3.33-3.46-5.059-5.13c-1.727-1.668-3.495-3.293-5.302-4.876
			s-3.653-3.121-5.537-4.615c-1.882-1.493-3.798-2.939-5.751-4.337c-1.952-1.401-3.936-2.753-5.956-4.057
			c-2.017-1.304-4.064-2.556-6.144-3.758c-2.08-1.203-4.187-2.356-6.323-3.458c-33.106-16.676-67.715-19.279-104.072-16.016
			c-4.378,0.593-8.745,1.241-13.105,1.941c-4.364,0.701-8.716,1.455-13.058,2.262c-4.342,0.808-8.674,1.668-12.998,2.581
			c-4.322,0.912-8.632,1.878-12.93,2.897c-4.298,1.02-8.583,2.091-12.855,3.216c-4.27,1.121-8.526,2.297-12.769,3.526
			c-4.245,1.229-8.471,2.51-12.682,3.841c-4.214,1.331-8.409,2.713-12.587,4.146c-4.177,1.436-8.336,2.922-12.477,4.458
			c-4.141,1.535-8.263,3.122-12.366,4.76c-4.102,1.635-8.185,3.321-12.245,5.059c-4.06,1.737-8.101,3.524-12.119,5.358
			c-4.018,1.838-8.013,3.722-11.984,5.654c-3.971,1.935-7.918,3.918-11.842,5.949c-3.92,2.029-7.818,4.107-11.692,6.233
			c-3.871,2.126-7.716,4.299-11.535,6.517c-3.82,2.222-7.61,4.488-11.371,6.798c-3.765,2.313-7.498,4.673-11.207,7.078
			c-3.703,2.403-7.378,4.852-11.022,7.348c-3.648,2.492-7.261,5.03-10.843,7.612c-3.586,2.583-7.137,5.209-10.657,7.878
			c-3.518,2.67-7.002,5.382-10.454,8.136c-3.453,2.757-6.872,5.554-10.257,8.391c-3.385,2.839-6.735,5.719-10.047,8.641
			c-3.312,2.919-6.591,5.879-9.833,8.88c-3.241,3.001-6.445,6.041-9.611,9.12c-3.166,3.081-6.293,6.199-9.384,9.355
			c-3.091,3.156-6.142,6.349-9.154,9.58c-3.012,3.23-5.985,6.497-8.917,9.8c-2.932,3.304-5.824,6.642-8.674,10.017
			c-2.85,3.376-5.658,6.784-8.426,10.227c-2.766,3.443-5.49,6.919-8.172,10.429c-41.832,54.901-94.032,154.224-84.065,225.437
			C383.399,1007.29,405.327,1049.461,439.114,1074.659z M504.531,744.362c2.593-3.114,5.224-6.195,7.893-9.244
			c2.667-3.051,5.371-6.069,8.114-9.052c2.742-2.984,5.519-5.934,8.331-8.85c2.815-2.917,5.662-5.799,8.545-8.645
			c2.885-2.849,5.802-5.662,8.753-8.436c2.952-2.777,5.937-5.517,8.955-8.222c3.016-2.705,6.067-5.372,9.149-8.001
			c3.084-2.63,6.198-5.223,9.341-7.778c3.148-2.555,6.324-5.072,9.532-7.549c3.206-2.476,6.441-4.913,9.706-7.314
			c3.266-2.398,6.56-4.756,9.883-7.074c3.326-2.319,6.677-4.597,10.054-6.836c3.378-2.238,6.783-4.435,10.215-6.588
			c3.432-2.156,6.89-4.269,10.374-6.338c3.482-2.071,6.989-4.101,10.522-6.087c3.531-1.985,7.088-3.926,10.668-5.825
			c3.578-1.9,7.181-3.756,10.805-5.569c3.626-1.812,7.27-3.579,10.938-5.302c3.666-1.724,7.354-3.403,11.064-5.036
			c3.708-1.635,7.436-3.224,11.183-4.767c3.746-1.544,7.511-3.042,11.292-4.495c3.785-1.451,7.584-2.856,11.402-4.218
			c3.818-1.358,7.652-2.671,11.5-3.937c3.849-1.266,7.714-2.487,11.592-3.661c3.88-1.172,7.77-2.297,11.677-3.377
			c3.907-1.079,7.825-2.11,11.756-3.092c3.931-0.985,7.873-1.921,11.827-2.808c3.953-0.887,7.916-1.726,11.889-2.517
			c3.975-0.792,7.958-1.535,11.951-2.228c3.993-0.696,7.993-1.342,11.999-1.941c4.007-0.595,8.022-1.144,12.044-1.645
			c4.02-0.501,8.046-0.952,12.079-1.354c25.966-2.906,54.124,4.144,76.201,17.937c27.416,17.128,44.382,45.621,51.249,76.738
			c0.464,2.054,0.875,4.118,1.232,6.192c0.361,2.074,0.674,4.156,0.935,6.248c0.259,2.09,0.467,4.183,0.624,6.281
			c0.155,2.1,0.259,4.202,0.314,6.308c0.055,2.104,0.058,4.209,0.009,6.315c-0.051,2.104-0.152,4.206-0.303,6.304
			c-0.153,2.102-0.356,4.197-0.61,6.286c-0.254,2.091-0.56,4.174-0.917,6.248c-0.36,2.077-0.767,4.142-1.223,6.196
			c-0.458,2.057-0.966,4.1-1.524,6.129s-1.165,4.044-1.822,6.046c-0.657,2.001-1.362,3.985-2.116,5.948
			c-0.752,1.967-1.554,3.914-2.405,5.841c-0.849,1.927-1.745,3.832-2.688,5.714c-0.942,1.882-1.93,3.74-2.961,5.575
			c-1.035,1.835-2.112,3.643-3.235,5.426c-20.576,32.078-56.943,48.646-94.495,46.392c-20.777-1.249-41.766-5.728-62.371-0.621
			c-57.321,14.213-128.533,71.84-145.993,129.759c-8.632,28.642-6.609,56.356-23.488,82.654
			c-18.071,28.149-47.442,42.732-78.971,50.101c-32.351,3.047-61.289-0.793-87.357-22.065
			c-27.605-22.521-44.163-57.452-47.247-92.686C404.998,890.117,466.73,789.489,504.531,744.362z"/>
		<path d="M3377.363,3551.138c-47.88-39.4-170.138-57.232-232.115-69.649c23.488-26.006,44.492-48.927,53.387-83.762
			c9.001-35.233,4.741-78.405,4.656-114.847l-0.261-151.232l0.31-193.254c0.057-37.017,1.26-74.522-0.778-111.468
			c-1.705-30.968-16.041-63.551-39.493-84.415c-3.911-3.418-7.949-6.681-12.112-9.789c-4.973-78.78-2.498-158.831-1.249-237.735
			c0.157-10.093,8.716-15.065,9.54-25.46c2.759-34.762,0.464-71.265,0.4-106.273c-0.075-39.022,4.645-95.371-3.235-132.468
			c-0.498-2.462-1.081-4.907-1.745-7.332c-0.666-2.423-1.413-4.821-2.244-7.193c-0.831-2.374-1.738-4.716-2.726-7.027
			c-0.99-2.31-2.056-4.585-3.197-6.824c-1.145-2.238-2.363-4.436-3.657-6.592c-1.293-2.156-2.658-4.266-4.093-6.327
			c-1.437-2.064-2.941-4.075-4.513-6.035c-1.576-1.959-3.215-3.863-4.919-5.713c-20.706-22.031-50.261-33.806-80.26-34.21
			c-31.041-0.414-61.86,8.529-92.595,11.966l-0.244-234.138c0.064-31.992,5.729-67.974-0.665-99.237
			c-0.67-3.128-1.455-6.228-2.352-9.299c-0.898-3.071-1.908-6.105-3.029-9.101c-1.119-2.996-2.348-5.947-3.683-8.854
			c-1.336-2.907-2.779-5.761-4.323-8.563c-1.546-2.802-3.191-5.543-4.935-8.222c-1.747-2.682-3.59-5.297-5.527-7.842
			c-1.937-2.547-3.966-5.019-6.083-7.414c-2.12-2.398-4.323-4.715-6.611-6.951c-30.781-30.62-73.549-48.901-113.297-64.609
			c54.232-48.792,82.011-103.47,86.021-176.735c3.907-71.503-21.343-137.26-69.017-190.318c-4.121-4.567-8.406-8.973-12.855-13.218
			c-4.451-4.245-9.054-8.318-13.81-12.22c-4.756-3.902-9.651-7.618-14.687-11.15c-5.035-3.533-10.195-6.872-15.48-10.018
			c7.268-59.568-11.531-114.54-48.268-161.224c-11.537-14.654-24.474-27.289-38.543-39.47
			c39.551-60.103,85.991-111.486,147.119-150.302c16.266-10.327,40.196-17.484,53.429-31.121c5.123-5.284,7.935-10.716,7.257-18.217
			c-3.514-4.984-7.303-6.993-13.22-7.885c-29.313-4.42-89.007,41.242-112.116,59.512c-45.613,36.064-84.363,82.101-114.234,131.946
			c-49.122-28.743-102.483-37.859-158.132-23.429c-55.781,14.466-102.434,52.124-131.001,101.876
			c-16.22,28.254-26.364,59.792-27.74,92.447c-0.437,10.376-0.111,21.077,1.345,31.367c1.762,12.414,13.476,42.739,7.756,52.323
			c-5.713-0.404-10.586-0.513-15.795-3.197c-5.174-15.335-5.545-31.813-10.975-47.084
			c-26.477-74.483-86.037-137.532-156.273-172.602c-46.204-23.07-91.321-34.164-142.135-40.742
			c18.871-100.725,55.286-200.134,114.615-284.321c10.48-14.764,21.758-28.891,33.835-42.379
			c10.537-11.942,31.529-30.343,38.229-43.198c3.601-6.918,4.563-14.482-0.508-21.111c-3.755-4.902-9.33-7.598-15.458-7.639
			c-2.005-0.015-3.339,0.239-5.249,0.52c-21.524,14.668-38.425,38.673-54.274,59.111c-4.594,5.868-9.098,11.804-13.512,17.809
			c-4.415,6.003-8.738,12.073-12.969,18.21c-4.232,6.135-8.371,12.331-12.413,18.591c-4.044,6.261-7.991,12.582-11.842,18.961
			c-3.853,6.379-7.606,12.815-11.263,19.309c-3.659,6.493-7.217,13.04-10.675,19.642c-3.46,6.601-6.819,13.253-10.077,19.955
			c-3.259,6.703-6.414,13.454-9.468,20.251c-3.053,6.801-6.003,13.644-8.849,20.532c-2.844,6.887-5.587,13.815-8.223,20.785
			c-2.636,6.97-5.169,13.978-7.595,21.025c-2.423,7.047-4.74,14.129-6.951,21.245c-2.211,7.12-4.314,14.269-6.308,21.448
			c-1.992,7.182-3.876,14.392-5.652,21.631c-1.775,7.237-3.44,14.499-4.995,21.789c-1.559,7.288-3.005,14.599-4.338,21.93
			c-1.035,5.359-1.859,10.751-2.472,16.175c-102.344,2.58-189.174,27.662-261.627,103.907
			c-22.132,23.291-39.639,49.255-57.079,76.092c-25.214-63.611-62.979-114.714-127.538-142.641
			c-46.942-20.303-94.519-25.639-144.47-13.797c-10.925-32.392-21.915-64.759-36.285-95.823
			c-16.096-34.796-79.033-144.649-112.225-160.507c-3.774-1.802-8.035-2.098-11.988-0.617c-4.648,1.743-8.249,5.687-10.096,10.231
			c-2.306,5.679-1.525,11.209,1.388,16.4c11.161,19.862,32.893,38.3,46.949,56.767c36.807,48.362,73.596,125.658,87.331,184.74
			c-59.797,31.633-109.076,70.913-129.685,138.075c-6.122,19.945-9.554,40.536-13.211,61.041
			c-53.973,24.376-97.108,75.289-117.861,130.209c-1.497,3.966-2.899,7.967-4.203,12.003c-1.3,4.036-2.503,8.101-3.604,12.197
			c-1.101,4.095-2.101,8.216-2.998,12.361c-0.9,4.143-1.696,8.307-2.39,12.493c-0.694,4.183-1.282,8.381-1.769,12.593
			c-0.488,4.213-0.871,8.435-1.148,12.665c-0.277,4.232-0.453,8.469-0.522,12.709c-0.069,4.239-0.035,8.479,0.104,12.716
			c0.137,4.238,0.38,8.471,0.729,12.698c0.347,4.226,0.798,8.44,1.355,12.646c0.555,4.203,1.214,8.39,1.974,12.564
			c0.763,4.172,1.629,8.323,2.594,12.451c0.966,4.131,2.032,8.233,3.202,12.309c1.168,4.076,2.436,8.122,3.801,12.138
			c1.369,4.013,2.835,7.99,4.398,11.931c1.565,3.941,3.226,7.842,4.981,11.704c19.499,42.723,34.355,49.64,57.179,83.704
			c-46.732,30.257-75.194,70.673-87.138,125.459c-7.372,33.835-4.606,71.41-4.643,105.881c-0.086,75.867,3.429,152.804,0,228.51
			c-51.242-4.326-114.67-24.282-158.443,12.395c-23.58,19.754-36.374,46.477-38.775,76.9c-1.933,24.491-0.875,49.824-0.82,74.409
			l1.041,137.223c0.917,97.27-0.816,194.51,1.252,291.776c-18.02,19.81-32.396,40.215-37.904,66.953
			c-5.056,24.518-2.587,52.419-2.341,77.427l0.938,114.672l0.225,236.714c0.026,37.847-1.556,76.132,0.004,113.935
			c2.151,52.288,19.897,84.105,54.289,122.364c-55.826,11.546-209.438,37.302-241.642,83.457
			c-5.574,7.991-9.445,18.663-7.575,28.489c2.987,15.7,17.686,27.083,30.455,35.126c74.962,47.225,247.433,69.842,337.273,81.64
			c39.599,5.198,79.017,11.785,118.718,16.149c85.571,9.412,171.836,14.425,257.718,20.251
			c137.13,9.158,274.398,15.3,411.799,18.427c137.401,3.122,274.805,3.226,412.211,0.31
			c197.101-3.389,1072.449-27.573,1185.445-149.312c7.595-8.181,12.479-17.679,11.595-29.053
			C3397.747,3573.083,3388.733,3560.497,3377.363,3551.138z M2773.61,1327.417c46.725,36.939,75.207,91.4,81.726,150.321
			c6.032,54.488-8.053,111.435-42.604,154.472c-35.42,44.13-89.922,75.471-146.363,81.483
			c-52.865,7.856-110.747-10.447-153.385-41.579c-44.82-32.725-73.1-80.627-81.109-135.417
			c-8.592-58.779,2.423-119.76,38.708-167.783c37.34-49.416,92.915-76.233,153.369-84.563c0.927-0.139,1.851-0.314,2.782-0.415
			C2678.161,1278.341,2733.31,1295.556,2773.61,1327.417z M2407.495,1130.398c30.612-36.595,72.973-60.346,120.658-64.739
			c4.46-0.245,8.923-0.331,13.39-0.262s8.926,0.296,13.379,0.676c4.449,0.384,8.882,0.923,13.297,1.616
			c4.411,0.693,8.795,1.54,13.149,2.542c4.353,1.002,8.665,2.155,12.937,3.459c4.276,1.304,8.499,2.756,12.669,4.356
			c4.17,1.6,8.28,3.346,12.327,5.234c4.05,1.887,8.026,3.915,11.931,6.083c-6.191,15.083-20.481,41.512-13.366,57.494
			c2.833,6.367,9.083,10.349,15.552,12.29c5.906,1.776,13.299,2.191,18.453-1.743c14.091-10.765,1.913-29.632,4.924-43.172
			c0.632-2.861,1.888-2.625,4.25-3.818c6.754,2.116,14.296,10.484,19.238,15.547c36.263,37.126,51.97,85.671,51.439,136.909
			c-58.789-16.419-108.311-20.752-167.356-1.768c-51.824,18.538-87.488,48.624-124.202,88.737
			c-18.071-9.355-36.488-17.877-54.948-26.417c-2.439-5.23-4.661-10.551-6.662-15.963c-2.003-5.414-3.777-10.901-5.326-16.46
			c-1.55-5.558-2.866-11.172-3.951-16.841c-1.088-5.669-1.939-11.373-2.554-17.111
			C2362.028,1210.651,2377.823,1165.872,2407.495,1130.398z M2308.536,1343.989c3.246,4.715-1.66,22.371-1.099,29.498
			c0.471,6.031,2.374,10.526,7.482,14.168c4.798,3.425,15.477,4.999,21.085,3.454c6.012-1.66,10.316-5.021,13.308-10.432
			c6.938-12.556,4.444-21.369,0.301-34.127c24.615,9.494,47.387,21.673,69.884,35.365c-8.738,20.775-16.171,41.804-20.726,63.925
			c-15.966,77.602,1.044,143.351,44.059,208.536c-27.034,26.693-60.058,41.029-96.455,49.651c-1.512,0.255-3.018,0.517-4.535,0.715
			c-50.325,6.592-104.627-4.319-145.049-36.094c-39.603-31.125-62.481-77.965-67.903-127.605
			c-4.959-45.405,9.64-93.748,38.386-129.202c33.685-41.55,83.663-61.868,135.652-67.533L2308.536,1343.989z M1729.843,1191.084
			c57.445-69.978,142.133-95.931,228.822-104.812c0.71-0.131,1.41-0.31,2.123-0.396c5.092-0.583,7.885-0.969,11.763,2.307
			c2.083,7.34,0.875,13.928,0.206,21.402c-0.88,9.842-2.715,20.211,4.714,28.122c3.414,3.639,9.351,6.518,14.321,6.357
			c4.243-0.135,8.021-2.442,10.903-5.418c6.147-6.356,8.614-15.529,8.192-24.159c-0.475-9.695-0.303-19.361-0.221-29.064
			c48.905,3.238,106.832,23.187,148.898,48.164c69.296,41.145,109.328,102.729,129.19,179.568
			c-37.081,2.199-70.483,11.685-101.495,32.591c-49.065,33.073-80.361,84.793-90.91,142.655
			c-9.908,54.375,1.059,107.781,32.172,153.238c-19.227,17.372-39.707,29.546-63.558,39.5c-28.1,9.95-56.768,14.395-86.579,14.074
			c-63.644-0.685-117.715-23.852-161.924-69.346c2.678-7.403,5.373-14.841,7.538-22.417c15.97-55.971,9.797-114.575-18.729-165.491
			c-29.973-53.507-77.772-81.786-135.639-97.816C1676.367,1282.831,1692.893,1236.096,1729.843,1191.084z M1703.18,1388.795
			c40.963,19.568,70.898,54.434,85.454,97.303c14.339,42.245,12.791,91.527-7.25,131.671
			c-20.109,40.282-56.043,66.875-98.134,80.852c-9.087,2.4-18.026,4.266-27.381,5.238c-47.88,4.973-85.137-10.421-121.564-40.323
			c8.977-14.796,17.155-29.779,23.983-45.699c35.193-82.086,18.807-147.614-13.195-227.094c22.535-10.227,44.151-17.44,68.78-20.349
			C1642.55,1367.418,1677.391,1376.475,1703.18,1388.795z M1257.477,1234.593c18.632-54.733,55.355-87.421,106.173-112.212
			c2.719,12.391,5.377,30.8,15.084,39.639c3.347,3.047,6.708,4.962,11.393,4.397c5.841-0.707,13.39-5.733,16.618-10.635
			c6.277-9.541-3.763-25.216-5.926-34.941c-1.048-4.716-0.502-7.176,1.839-11.244c7.842-3.384,16.187-3.743,24.593-4.651
			c6.277-0.434,12.432-0.472,18.71-0.199c3.221,0.145,6.436,0.368,9.644,0.67c3.21,0.301,6.41,0.683,9.602,1.144
			c3.188,0.461,6.365,1,9.53,1.619c3.164,0.619,6.31,1.315,9.439,2.087c3.129,0.772,6.239,1.621,9.324,2.546
			c3.089,0.927,6.153,1.93,9.191,3.006c3.036,1.08,6.045,2.233,9.026,3.459c2.982,1.224,5.93,2.523,8.848,3.897
			c2.919,1.37,5.801,2.814,8.645,4.329c2.846,1.514,5.652,3.096,8.42,4.749c2.766,1.653,5.492,3.373,8.174,5.161
			c2.682,1.787,5.319,3.641,7.911,5.56c2.591,1.917,5.132,3.897,7.624,5.941c2.496,2.041,4.937,4.145,7.325,6.308
			c2.392,2.164,4.725,4.385,7.004,6.663c2.28,2.281,4.502,4.615,6.668,7.004c42.891,47.069,53.907,105.571,51.335,167.36
			c-43.853-1.17-71.527,5.871-110.604,26.077c-15.84-23.842-38.062-41.979-61.446-57.961c-2.837-1.682-5.684-3.346-8.541-4.992
			c-63.299-36.445-134.067-48.018-204.972-28.941C1250.608,1258.273,1253.473,1246.356,1257.477,1234.593z M1112.578,1527.076
			c-4.486-60.189,12.437-117.289,52.038-163.138c39.508-45.742,91.961-63.876,150.942-68.236
			c51.225,0.325,103.6,17.615,143.778,49.66c47.325,37.739,76.139,96.335,82.847,156.042c0.369,3.353,0.654,6.713,0.856,10.081
			c0.203,3.368,0.319,6.74,0.356,10.115c0.035,3.372-0.015,6.745-0.15,10.117c-0.135,3.37-0.352,6.736-0.65,10.096
			c-0.303,3.359-0.688,6.712-1.156,10.054c-0.469,3.34-1.021,6.667-1.654,9.98c-0.632,3.316-1.347,6.612-2.145,9.89
			c-0.796,3.278-1.672,6.534-2.633,9.771c-0.96,3.233-1.999,6.441-3.118,9.624c-1.119,3.183-2.317,6.336-3.593,9.46
			c-1.276,3.123-2.629,6.213-4.057,9.269c-1.431,3.055-2.936,6.073-4.517,9.052c-1.578,2.981-3.232,5.922-4.959,8.821
			c-1.725,2.899-3.522,5.753-5.391,8.563c-1.868,2.809-3.803,5.57-5.811,8.285c-2.003,2.712-4.075,5.373-6.213,7.983
			c-39.617,49.05-89.756,73.216-151.671,79.625c-55.479,1.465-112.713-15.716-155.249-52.158
			C1146.615,1642.492,1116.87,1584.674,1112.578,1527.076z M1100.108,1846.492c0.681-4.844,1.561-9.649,2.644-14.418
			c1.083-4.769,2.363-9.484,3.839-14.145c1.477-4.662,3.146-9.254,5.008-13.775c1.859-4.521,3.905-8.958,6.14-13.307
			c16.581-32.714,37.809-55.104,73.11-66.632c42.9,23.238,81.783,40.094,131.221,42.678c76.769,4.017,131.757-24.913,187.134-74.913
			c47.521,36.625,97.546,53.028,157.676,45.296c54.65-7.026,97.502-33.174,130.93-76.585c12.828,7.157,24.79,18.969,36.913,27.539
			c31.465,22.24,72.183,36.876,110.192,42.226c74.432,10.484,140.966-12.261,200.123-56.401
			c45.14,39.511,88.719,62.769,149.27,67.166c67.208,4.887,122.083-15.312,172.645-59.011
			c34.063,26.735,67.383,48.257,109.938,59.09c64.312,16.374,133.207,8.536,190.532-25.302
			c37.291,13.981,77.295,27.063,109.332,51.402c23.172,17.599,42.87,42.125,46.381,71.881c0.946,8.013,0.825,18.344-5.306,24.484
			c-7.281,7.283-18.973,3.148-28.142,4.501c-5.403,0.793-9.07,4.21-11.59,8.862c-2.465,4.554-3.321,11.218-4.566,16.31
			c-5.108,20.909-9.479,40.543-21.807,58.715c-1.451,2.179-2.956,4.321-4.513,6.428c-1.557,2.103-3.167,4.168-4.827,6.192
			s-3.37,4.006-5.13,5.946c-1.76,1.939-3.568,3.832-5.421,5.679c-1.855,1.85-3.756,3.651-5.7,5.403
			c-1.945,1.753-3.931,3.456-5.963,5.111c-2.029,1.653-4.099,3.254-6.208,4.805c-2.111,1.55-4.258,3.047-6.441,4.49
			c-2.187,1.443-4.407,2.832-6.66,4.166c-2.253,1.331-4.539,2.606-6.857,3.825c-2.319,1.217-4.665,2.376-7.04,3.477
			c-2.377,1.099-4.778,2.141-7.206,3.122c-2.428,0.981-4.88,1.899-7.354,2.756c-2.474,0.857-4.966,1.653-7.478,2.385
			c-2.516,0.733-5.046,1.404-7.595,2.012c-2.545,0.606-5.105,1.148-7.679,1.627c-59.569,10.814-126.563-18.771-159.124-70.303
			c-11.188-17.709-16.569-45.898-33.952-58.005c-21.223-2.551-28.911,39.634-34.321,54.864c-3.973,11.176-9.187,23.43-15.444,33.555
			c-10.365,16.773-27.897,33.23-44.156,44.376c-36.482,25.015-84.795,32.015-127.821,23.605c-2.777-0.571-5.539-1.212-8.283-1.925
			c-2.742-0.716-5.465-1.501-8.167-2.356c-2.704-0.857-5.382-1.785-8.035-2.781c-2.655-0.997-5.28-2.063-7.878-3.197
			c-2.6-1.135-5.167-2.336-7.703-3.605c-2.534-1.269-5.035-2.603-7.5-4.001c-2.465-1.4-4.891-2.864-7.279-4.389
			c-2.392-1.528-4.738-3.117-7.042-4.763c-2.306-1.651-4.568-3.359-6.786-5.127c-2.217-1.767-4.384-3.592-6.503-5.474
			c-2.12-1.881-4.19-3.818-6.209-5.807c-2.021-1.989-3.989-4.03-5.901-6.125c-1.912-2.091-3.769-4.233-5.571-6.424
			c-1.8-2.189-3.542-4.424-5.225-6.704c-1.683-2.28-3.306-4.604-4.867-6.97c-1.563-2.365-3.062-4.772-4.499-7.216
			c-8.252-13.847-13.669-29.858-22.984-42.985c-1.944-2.744-5.627-7.224-9.12-7.582c-5.088-0.52-12.339,1.237-15.492,5.452
			c-4.977,6.658-8.068,17.398-11.068,25.063c-10.24,26.17-22.367,47.394-43.882,65.992c-36.427,31.492-86.824,42.156-133.945,38.767
			c-57.168-4.109-116.806-35.888-141.2-89.971c-5.231-11.594-7.19-31.487-16.644-40.109c-4.816-4.39-11.132-5.161-17.308-5.045
			c-11.902,8.402-16.684,25.826-22.499,38.61c-19.687,43.271-48.791,68.763-93.521,85.223c-2.611,0.953-5.245,1.84-7.9,2.663
			c-2.656,0.823-5.331,1.579-8.024,2.269c-2.691,0.693-5.401,1.319-8.125,1.877c-2.722,0.561-5.457,1.053-8.205,1.477
			c-2.746,0.427-5.503,0.786-8.271,1.077c-2.764,0.289-5.534,0.511-8.307,0.665c-2.777,0.157-5.556,0.245-8.335,0.262
			c-2.782,0.019-5.561-0.029-8.338-0.146c-2.777-0.117-5.55-0.302-8.32-0.553c-2.77-0.255-5.53-0.575-8.283-0.961
			c-2.751-0.389-5.494-0.844-8.225-1.365c-2.729-0.523-5.446-1.112-8.148-1.765c-2.702-0.655-5.386-1.376-8.053-2.162
			c-2.667-0.787-5.313-1.639-7.938-2.553c-2.625-0.917-5.227-1.898-7.803-2.939c-2.578-1.042-5.129-2.147-7.65-3.317
			c-45.753-21.549-81.346-65.988-98.063-113.337c-4.42-12.511-8.002-25.464-19.045-33.798c-3.458-0.654-5.285-1.451-8.76-0.471
			c-14.999,4.237-22.802,26.443-29.36,38.816c-21.956,41.43-59.165,71.047-104.09,84.575c-31.35,9.442-64.329,7.632-93.278-8.331
			c-35.354-19.492-61.019-63.191-71.641-101.282c-2.85-10.219-5.287-21.466-9.857-31.046c-3.012-6.315-6.323-10.537-13.18-12.848
			c-5.567,0.071-10.975,2.46-14.528,6.922c-6.505,8.166-3.675,22.479-1.532,31.64c11.431,48.826,43.758,109.202,87.623,135.899
			c35.672,21.714,79.621,25.647,119.653,15.466c55.914-14.221,101.824-52.431,130.786-101.481
			c27.476,60.051,59.447,100.811,122.152,126.065c41.77,15.548,86.628,18.771,129.807,6.955
			c52.773-14.444,96.862-47.326,124.281-94.787c18.181,33.753,48.012,60.604,81.483,78.81
			c52.133,28.357,118.992,33.106,175.513,15.824c47.718-14.594,93.066-50.837,116.279-95.146
			c23.766,38.244,62.499,69.511,104.086,86.408c49.47,20.105,101.598,18.64,150.415-2.51
			c52.939-22.931,85.732-61.004,106.858-113.816c3.195,5.412,6.549,10.724,10.058,15.937c28.526,41.534,74.354,73.687,124.33,82.645
			c79.157,14.191,163.323-24.917,200.763-96.653c8.192-15.701,11.415-48.897,25.429-58.671l3.35,0.823
			c5.516,29.221,1.705,64.238,1.674,94.099c-0.058,55.488,1.53,111.19-1.324,166.623c-41.107,4.659-82.193,11.768-123.267,17.077
			c-72.581,8.984-145.27,17.01-218.063,24.08c-69.07,6.741-138.237,12.264-207.5,16.568c-69.264,4.308-138.582,7.394-207.957,9.258
			c-69.369,1.865-138.754,2.508-208.151,1.93c-69.395-0.576-138.759-2.375-208.09-5.396c-217.383-10.2-432.682-39.866-648.78-64.014
			l0.02-204.602C1097.891,1921.01,1095.031,1882.116,1100.108,1846.492z M902.068,2240.362c1.331-10.402,4.307-18.968,10.622-27.438
			c8.063-10.807,20.91-21.44,33.948-25.441c28.542-8.754,106.188,6.895,138.46,10.772c86.406,10.377,172.988,17.484,259.52,26.425
			c62.695,6.479,125.119,15.02,187.914,20.703c141.423,11.963,283.087,19.18,424.992,21.654
			c107.31,0.573,214.566-1.601,321.769-6.524c107.201-4.923,214.205-12.589,321.013-22.996
			c92.717-9.342,185.228-20.406,277.533-33.188c56.29-8.263,112.324-19.099,168.756-26.237c2.007-0.176,4.015-0.393,6.031-0.412
			c16.859-0.15,33.335,9.086,45.08,20.599c10.622,10.413,18.924,23.819,22.628,38.278c7.407,28.907,3.86,64.44,3.778,94.342
			l-0.632,131.453c-17.036,4.438-35.078,7.527-52.671,5.111c-44.229-6.076-60.158-31.738-85.723-63.521
			c-5.954-7.404-11.413-12.268-21.022-13.296c-14.836,6.581-21.967,53.204-29.015,69.226
			c-17.482,39.732-43.749,65.981-84.531,81.693c-38.211,14.721-78.504,12.754-115.776-3.885
			c-33.482-14.949-60.955-44.395-73.952-78.807c-2.722-7.204-5.729-16.052-11.113-21.754c-3.944-4.188-9.916-7.116-15.795-6.565
			c-6.445,0.602-8.172,3.563-10.6,9.183c-5.245,12.149-7.436,26.268-10.533,39.131c-8.072,33.554-23.291,65.091-47.727,89.852
			c-33.61,34.06-79.154,49.97-126.404,49.944c-66.266-0.034-131.476-37.9-165.7-94.829c-10.232-17.016-15.616-39.231-29.719-53.41
			c-3.087-0.613-6.644-1.589-9.773-0.624c-12.976,4.008-21.785,27.838-27.348,39.224c-24.257,49.615-65.873,88.827-118.557,106.658
			c-81.514,27.588-171.634-3.713-222.696-72.094c-17.701-23.703-22.292-49.704-34.266-66.673c-1.859-2.636-4.314-4.413-7.332-5.568
			c-2.187-0.838-4.095-1.133-6.436-1.043c-15.939,0.61-19.999,19.066-25.029,31.229c-18.042,43.625-51.649,77.083-94.167,97.562
			c-2.773,1.334-5.578,2.6-8.413,3.799c-2.833,1.199-5.696,2.328-8.588,3.388c-2.89,1.06-5.804,2.047-8.742,2.965
			c-2.94,0.917-5.899,1.763-8.877,2.535c-2.98,0.773-5.976,1.473-8.99,2.101c-3.013,0.628-6.041,1.182-9.081,1.661
			c-3.04,0.481-6.089,0.887-9.151,1.219c-3.06,0.332-6.127,0.59-9.198,0.774c-3.073,0.182-6.149,0.29-9.227,0.321
			c-3.076,0.033-6.153-0.008-9.229-0.123c-3.074-0.117-6.147-0.309-9.213-0.576c-3.069-0.264-6.127-0.604-9.176-1.021
			c-3.051-0.414-6.089-0.902-9.116-1.466c-3.025-0.561-6.036-1.196-9.03-1.906c-2.996-0.708-5.972-1.49-8.928-2.344
			c-2.959-0.853-5.895-1.778-8.806-2.775c-54.813-19.26-95.827-58.944-116.248-113.629c-5.773-15.454-6.177-32.871-13.823-47.7
			c-2.509-4.868-6.412-9.766-12.17-10.713c-6.639-1.092-13.025,2.506-18.207,6.121c-14.785,30.676-32.456,59.886-59.583,81.263
			c-29.02,22.868-63.565,33.936-100.479,29.166c-58.959-7.625-109.434-55.153-131.273-108.997
			c-6.962-17.17-9.545-38.121-21.097-52.939c-2.833-1.04-4.734-1.451-7.829-0.927c-18.267,3.081-28.571,32.946-39.864,45.969
			c-16.247,18.737-40.17,32.523-65.267,33.709c-24.671,1.163-47.121-7.815-65.331-24.188c-3.494-32.987-0.418-68.834-0.557-102.218
			C901.968,2309.473,897.898,2272.938,902.068,2240.362z M3113.412,2717.047l-1.921-0.094
			c-38.498-2.228-117.166,14.478-158.514,20.827c-78.447,12.043-157.546,23.265-236.472,31.573
			c-135.287,14.813-270.9,25.458-406.842,31.94c-135.94,6.481-271.951,8.787-408.034,6.918
			c-138.385-1.486-276.574-7.488-414.565-18.005c-101.78-8.697-204.864-18.542-305.788-34.153l-142.206-22.835
			c-25.292-4.139-51.11-10.092-76.713-11.494c-20.229-1.106-39.288,2.431-58.877,7.127l0.1-240.886
			c26.837,12.899,49.821,20.867,80.056,15.394c35.365-6.402,61.446-23.924,81.816-53.324c1.713,1.891,0.931,0.774,2.24,3.787
			c14.575,33.581,34.695,65.502,62.751,89.377c36.672,31.21,86.519,49.671,134.863,45.131
			c59.666-5.605,101.207-43.479,137.806-87.447c20.045,51.462,47.7,92.686,96.354,120.842
			c51.924,30.047,114.639,41.081,172.917,25.366c63.613-17.159,111.736-59.134,144.49-115.469
			c20.072,40.121,50.217,72.218,88.626,95.479c3.246,1.992,6.54,3.901,9.883,5.728c3.339,1.827,6.726,3.57,10.155,5.231
			c3.429,1.658,6.896,3.231,10.403,4.719c3.504,1.488,7.046,2.888,10.622,4.199c3.575,1.311,7.181,2.534,10.818,3.668
			c3.637,1.132,7.299,2.173,10.985,3.122c3.69,0.953,7.4,1.811,11.128,2.576c3.732,0.769,7.48,1.442,11.243,2.023
			c3.765,0.581,7.542,1.068,11.331,1.462c3.786,0.393,7.58,0.693,11.385,0.897c3.805,0.205,7.61,0.315,11.42,0.333
			c3.805,0.015,7.612-0.064,11.418-0.236c3.805-0.175,7.603-0.443,11.393-0.804c3.792-0.361,7.573-0.817,11.342-1.365
			c3.768-0.549,7.522-1.19,11.259-1.926c3.736-0.735,7.453-1.563,11.15-2.482c65.864-16.681,120.067-63.326,154.194-120.894
			c25.654,49.248,77.759,89.224,129.543,107.616c54.606,19.399,114.776,19.021,167.423-6.092
			c56.828-27.109,90.859-72.453,111.479-130.594c23.355,32.917,52.251,58.192,90.634,72.035
			c46.398,16.733,101.199,13.135,145.456-8.357c46.918-22.786,80.866-65.592,97.714-114.306
			c10.482,12.257,20.596,21.587,34.28,30.153c34.671,17.959,62.247,24.394,101.03,16.927L3113.412,2717.047z M865.062,2825.198
			c2.227-12.07,7.639-23.175,14.979-32.965c36.502-48.687,92.308-33.966,143.019-25.466c95.403,16.24,191.176,29.887,287.319,40.943
			c96.142,11.052,192.511,19.495,289.112,25.329c111.101,6.327,222.857,7.373,334.129,8.484
			c142.447,2.054,284.81-0.489,427.093-7.628c142.281-7.14,284.184-18.86,425.709-35.163
			c100.426-11.595,199.948-30.174,299.909-44.911c3.829-0.635,7.703-1.23,11.592-1.294c16.003-0.262,31.89,6.888,42.816,18.419
			c12.508,13.207,20.355,30.971,23.792,48.721c6.047,31.225,2.689,67.252,2.567,99.18c-0.206,52.815,0.208,105.519-1.187,158.33
			c-61.011,4.371-113.16-16.265-141.605-73.643c-6.976-14.074-12.271-38.034-27.135-45.135c-4.168-0.344-7.767-0.483-11.285,2.24
			c-10.173,7.863-12.746,26.327-15.899,38.008c-13.147,48.732-37.978,86.569-82.493,111.785
			c-66.038,37.406-145.609,21.377-199.812-29.281c-8.829-8.335-16.959-17.304-24.39-26.907
			c-9.751-12.724-28.743-48.485-45.131-51.099c-6.253-0.998-10.354,1.698-13.394,6.783c-5.58,9.344-6.417,24.147-8.577,34.771
			c-0.46,2.333-0.971,4.657-1.537,6.97c-0.564,2.311-1.179,4.608-1.848,6.891c-0.668,2.283-1.387,4.551-2.156,6.802
			c-0.771,2.251-1.592,4.483-2.461,6.697c-0.873,2.213-1.793,4.407-2.764,6.581c-0.97,2.171-1.987,4.32-3.055,6.446
			c-1.066,2.127-2.18,4.228-3.343,6.304c-1.161,2.076-2.37,4.125-3.626,6.147c-1.254,2.021-2.552,4.013-3.896,5.975
			c-1.344,1.965-2.733,3.896-4.166,5.796c-1.43,1.9-2.903,3.766-4.418,5.601c-1.517,1.835-3.073,3.633-4.67,5.395
			c-1.596,1.763-3.232,3.489-4.906,5.179c-1.676,1.691-3.389,3.342-5.138,4.954c-1.751,1.61-3.535,3.182-5.355,4.716
			c-1.822,1.53-3.677,3.02-5.565,4.468c-38.138,29.614-88.998,39.707-136.302,33.222c-48.302-6.618-97.057-31.846-128.493-69.462
			c-11.564-13.834-20.377-29.831-31.438-44.074c-3.938-5.07-8.634-11.475-15.417-12.324c-19.174,8.095-35.058,40.921-48.52,57.25
			c-9.561,11.683-20.248,22.23-32.055,31.64c-2.536,2.032-5.121,3.999-7.756,5.901c-2.635,1.904-5.316,3.741-8.042,5.511
			c-2.726,1.77-5.492,3.47-8.302,5.1c-2.812,1.632-5.662,3.193-8.548,4.681c-2.888,1.491-5.813,2.908-8.771,4.252
			c-2.96,1.346-5.95,2.615-8.97,3.81c-3.025,1.197-6.074,2.316-9.151,3.358c-3.078,1.044-6.18,2.011-9.306,2.901
			c-3.126,0.887-6.273,1.698-9.439,2.43c-3.166,0.733-6.346,1.386-9.545,1.959c-3.199,0.576-6.41,1.072-9.636,1.485
			c-3.223,0.413-6.454,0.746-9.691,0.998c-3.241,0.255-6.485,0.428-9.733,0.521c-3.248,0.092-6.498,0.102-9.748,0.029
			c-3.248-0.069-6.492-0.22-9.733-0.452c-3.243-0.229-6.478-0.541-9.704-0.935c-3.201-0.397-6.388-0.879-9.563-1.447
			c-3.177-0.566-6.335-1.216-9.476-1.948c-3.139-0.736-6.257-1.554-9.355-2.453c-3.096-0.9-6.167-1.881-9.213-2.943
			c-3.047-1.064-6.062-2.208-9.047-3.433c-2.983-1.221-5.932-2.522-8.846-3.903c-2.918-1.381-5.793-2.838-8.63-4.372
			c-2.839-1.533-5.634-3.139-8.387-4.819c-2.751-1.682-5.457-3.437-8.117-5.261c-2.656-1.825-5.266-3.719-7.825-5.684
			c-2.558-1.964-5.063-3.995-7.513-6.091c-2.45-2.1-4.844-4.26-7.179-6.484c-2.335-2.224-4.612-4.509-6.828-6.854
			c-2.213-2.345-4.364-4.748-6.449-7.206c-2.087-2.46-4.108-4.973-6.062-7.539c-1.952-2.567-3.836-5.185-5.651-7.852
			c-9.331-13.727-16.041-30.093-26.589-42.832c-4.667-5.635-11.468-11.808-19.145-12.309c-0.957-0.063-4.632-0.086-5.156,0.109
			c-4.546,1.702-28.39,42.686-33.298,49.405c-11.144,15.274-24.465,30.905-38.841,43.225
			c-32.721,28.043-82.732,43.644-125.486,40.367c-64.695-4.962-130.403-49.715-154.247-111.097
			c-6.491-16.698-10.843-48.466-23.187-60.825c-3.179-3.181-6.768-4.939-11.378-4.348c-17.726,2.27-31.162,37.533-39.507,51.476
			c-4.913,8.208-10.686,15.507-16.852,22.791c-16.437,16.493-34.304,30.227-55.474,40.158c-2.591,1.198-5.209,2.332-7.856,3.402
			c-2.645,1.072-5.316,2.077-8.013,3.014c-2.697,0.937-5.415,1.808-8.152,2.613c-2.739,0.805-5.495,1.543-8.271,2.21
			c-2.777,0.668-5.567,1.268-8.371,1.799c-2.804,0.53-5.62,0.991-8.448,1.383s-5.665,0.713-8.506,0.965
			c-2.844,0.252-5.693,0.433-8.544,0.542c-2.854,0.111-5.707,0.154-8.563,0.123c-2.854-0.03-5.705-0.13-8.555-0.3
			c-2.848-0.169-5.693-0.41-8.532-0.721c-2.837-0.31-5.665-0.689-8.484-1.14c-2.819-0.449-5.625-0.969-8.417-1.56
			c-2.793-0.588-5.572-1.244-8.331-1.97c-2.762-0.726-5.505-1.518-8.225-2.378c-2.724-0.86-5.421-1.788-8.095-2.782
			c-43.719-16.422-80.444-52.856-97.873-96.159c-5.822-14.456-8.645-30.942-15.499-44.814c-3.241-6.559-7.425-9.58-14.29-11.729
			c-18.095,1.069-32.325,42.836-42.485,56.872c-12.156,16.789-26.709,31.513-44.899,41.691
			c-36.261,20.285-72.008,18.191-110.765,7.089c-0.561-46.593,0.396-93.269,0.217-139.877
			C862.597,2898.804,858.776,2859.288,865.062,2825.198z M867.567,3386.141c-8.61-38.686-3.925-85.907-3.836-125.468
			c0.097-49.428-0.471-98.85-1.705-148.264c14.632,3.387,29.842,4.951,44.82,5.571c10.706,0.07,21.515-0.258,32.06-2.233
			c50.018-9.37,86.932-39.021,115.311-80.003c20.804,39.381,45.85,74.402,83.627,99.144c2.812,1.84,5.667,3.609,8.566,5.309
			c2.899,1.7,5.835,3.329,8.813,4.887c2.978,1.555,5.994,3.038,9.045,4.447c3.051,1.409,6.134,2.74,9.251,3.997
			c3.115,1.259,6.26,2.439,9.437,3.541c3.173,1.105,6.372,2.129,9.598,3.074c3.222,0.948,6.469,1.814,9.737,2.599
			c3.266,0.788,6.549,1.494,9.852,2.12c3.301,0.626,6.616,1.17,9.947,1.634c3.328,0.464,6.664,0.845,10.011,1.145
			c3.347,0.298,6.7,0.517,10.058,0.654c3.358,0.135,6.717,0.187,10.076,0.157c3.359-0.027,6.719-0.138,10.073-0.332
			c3.356-0.194,6.704-0.471,10.044-0.831c3.343-0.356,6.673-0.796,9.99-1.319c3.321-0.521,6.628-1.124,9.917-1.807
			c56.198-12.234,105.328-50.336,136.022-98.302c17.253,40.245,39.108,72.936,74.144,99.798
			c46.847,35.918,101.607,51.533,160.308,43.737c75.971-10.088,119.963-52.237,164.309-110.529
			c18.867,27.191,38.543,51.604,65.252,71.53c47.303,35.293,104.212,49.282,162.582,40.686
			c74.684-11.001,127.193-53.93,170.503-112.866c29.431,44.033,69.32,76.503,118.981,95.348
			c56.996,21.627,122.442,22.648,178.341-3.148c53.118-24.513,85.933-66.153,105.912-120.063
			c27.719,31.733,53.865,60.567,92.75,78.885c45.142,21.268,106.228,25.098,153.241,7.969
			c59.952-21.841,97.389-65.768,123.75-122.192c10.306,13.622,21.489,26.5,34.158,37.994
			c38.823,35.219,82.411,43.071,133.293,40.697l0.268,164.776c0.011,33.6,4.285,73.393-3.472,105.871
			c-5.176,21.665-17.215,42.615-31.971,59.186c-23.047,25.88-58.813,44.262-93.643,45.925c-40.121,1.912-80.985-0.438-121.201-0.511
			l-245.856,0.268l-827.278-0.36l-573.064,0.767l-182.04,0.266c-33.313,0.029-67.776,1.72-100.968-1.19
			c-28.107-2.463-59.886-14.193-80.538-33.884C887.691,3437.315,873.072,3410.867,867.567,3386.141z M3354.229,3597.706
			c-57.292,45.085-226.069,66.728-298.235,76.346c-274.65,36.606-550.715,49.894-827.528,55.286
			c-186.643,3.436-373.271,2.784-559.887-1.952c-116.089-3.343-232.022-9.527-347.804-18.553
			c-115.784-9.028-231.277-20.888-346.481-35.576c-64.714-9.658-243.743-37.905-294.468-75.97c-4.67-3.504-6.262-6.162-7.004-11.871
			c18.341-26.123,205.335-70.001,241.792-72.241c22.157-1.36,41.945,9.33,63.786,11.477c41.395,4.075,84.523,1.955,126.172,2.045
			l1329.652-0.902l404.286,0.049l125.803,0.517c24.104,0.104,48.781,1.256,72.809-0.49c23.295-1.698,44.552-9.015,66.324-16.914
			c16.846,5.138,35.743,7.374,53.119,10.832c55.954,11.143,167.226,29.674,209.1,67.714
			C3362.017,3591.116,3358.271,3594.523,3354.229,3597.706z"/>
		<path d="M1501.733,1221.7c0.493,0.719,1.024,1.407,1.592,2.068c0.571,0.658,1.176,1.284,1.815,1.877
			c0.637,0.593,1.305,1.149,2.003,1.668c0.699,0.521,1.424,1.002,2.176,1.443c0.75,0.439,1.523,0.836,2.319,1.193
			c0.796,0.356,1.609,0.667,2.437,0.935c0.831,0.267,1.672,0.487,2.525,0.662c2.908,0.617,5.952,0.792,8.913,0.972
			c6.772-4.312,12.411-7.856,14.339-16.25c1.512-6.589-0.369-12.298-4.528-17.425c-4.648-5.725-13.03-8.424-20.109-8.974
			c-7.221,3.62-12.877,6.899-15.831,14.811c-1.862,4.973-1.492,10.111,0.988,14.796
			C1500.786,1220.244,1501.239,1220.985,1501.733,1221.7z"/>
		<path d="M2484.911,1189.675c3.471,1.345,7.299,1.724,10.975,2.139c8.798-2.988,15.491-5.987,19.762-14.721
			c0.354-0.71,0.668-1.439,0.946-2.184c0.276-0.743,0.515-1.499,0.714-2.266c0.199-0.77,0.358-1.548,0.475-2.333
			c0.121-0.785,0.197-1.575,0.232-2.367c0.038-0.793,0.033-1.586-0.015-2.378c-0.046-0.792-0.133-1.581-0.261-2.363
			c-0.128-0.782-0.296-1.558-0.502-2.326c-0.21-0.765-0.456-1.518-0.743-2.258c-2.726-7.052-8.402-11.98-15.334-14.68
			c-3.208-1.253-6.319-1.948-9.74-2.366c-8.657,3.129-16.205,6.51-20.547,15.155c-2.819,5.612-3.253,11.598-1.506,17.588
			C2471.413,1181.34,2478.292,1187.106,2484.911,1189.675z"/>
		<path d="M1750.79,1534.625c6.173-4.58,11.531-8.503,12.862-16.65c0.853-5.224-0.52-9.023-3.589-13.192
			c-4.042-5.489-10.562-7.785-17.109-8.17c-2.607-0.15-3.699-0.089-6.164-0.041c-5.773,4.816-11.95,10.257-12.439,18.367
			c-0.323,5.366,0.8,8.704,4.261,12.818C1734.331,1534.547,1742.68,1534.584,1750.79,1534.625z"/>
		<path d="M1636.458,1619.358c-1.574,5.819-0.411,11.625,3,16.535c3.551,5.111,9.359,9.045,15.535,10.099
			c3.139,0.535,6.425,0.549,9.6,0.599c7.25-4.947,13.244-10.013,14.822-19.118c0.882-5.1-0.243-10.081-3.239-14.306
			c-3.493-4.925-9.545-8.619-15.521-9.509c-3.219-0.483-6.569-0.456-9.819-0.467
			C1643.978,1607.337,1638.641,1611.267,1636.458,1619.358z"/>
		<path d="M1610.996,1397.059c-0.778,5.209-0.084,11.139,3.122,15.499c3.85,5.235,9.092,8.645,15.599,9.408
			c3.093,0.363,6.222,0.389,9.33,0.498c7.25-4.477,13.313-9.536,15.285-18.248c0.19-0.825,0.332-1.658,0.429-2.498
			c0.1-0.841,0.153-1.682,0.161-2.528c0.009-0.847-0.029-1.693-0.111-2.535c-0.082-0.841-0.21-1.675-0.382-2.506
			c-0.172-0.827-0.387-1.643-0.646-2.448c-0.263-0.805-0.564-1.595-0.909-2.367c-0.343-0.773-0.729-1.524-1.156-2.255
			c-0.425-0.733-0.889-1.44-1.391-2.121c-5.302-7.193-13.711-11.03-22.36-12.406
			C1618.952,1379.533,1612.745,1385.34,1610.996,1397.059z"/>
		<path d="M2267.255,1481.63c3.032,0.217,6.465-0.389,9.494-0.755c6.825-3.896,12.349-6.999,14.853-15.012
			c1.809-5.8,0.997-11.94-2.375-16.987c-3.058-4.584-8.924-9.037-14.433-9.868c-3.332-0.501-6.843-0.414-10.204-0.396
			c-7.374,5.149-11.958,8.989-13.804,18.101c-1.418,6.995-0.48,12.978,4.121,18.718
			C2257.818,1479.066,2262.695,1481.309,2267.255,1481.63z"/>
		<path d="M2356.962,1605.882c4.015,0.217,8.196-0.389,12.181-0.86c6.918-6.139,11.802-11.464,12.459-21.092
			c0.393-5.706-1.68-11.786-6.043-15.629c-7.23-6.372-14.047-6.518-23.048-5.938c-7.568,5.635-12.474,10.832-13.883,20.506
			c-0.856,5.882,0.621,11.086,4.36,15.764C2346.13,1602.554,2351.992,1605.617,2356.962,1605.882z"/>
		<path d="M2154.895,1540.926c-2.947,6.394-3.967,14.193-1.119,20.801c2.801,6.488,7.385,11.355,14.202,13.495
			c4.411,1.387,10.365,0.594,14.937,0.366c8.006-3.388,13.622-6.574,16.947-15.122c0.294-0.747,0.551-1.509,0.77-2.284
			c0.219-0.772,0.4-1.556,0.542-2.348c0.139-0.793,0.239-1.589,0.299-2.39c0.062-0.802,0.082-1.607,0.062-2.412
			c-0.02-0.805-0.078-1.607-0.179-2.404c-0.099-0.798-0.239-1.589-0.418-2.374c-0.181-0.783-0.398-1.556-0.656-2.319
			c-0.256-0.763-0.55-1.51-0.882-2.244c-0.356-0.797-0.752-1.574-1.188-2.329c-0.44-0.755-0.917-1.486-1.433-2.192
			c-0.513-0.705-1.063-1.382-1.649-2.03c-0.588-0.648-1.207-1.263-1.858-1.843c-0.65-0.583-1.329-1.129-2.038-1.638
			c-0.71-0.511-1.444-0.983-2.202-1.418c-0.758-0.431-1.537-0.822-2.337-1.174c-0.8-0.351-1.618-0.659-2.45-0.923
			c-3.604-1.159-7.033-1.336-10.787-1.436C2165.114,1530.082,2158.88,1532.266,2154.895,1540.926z"/>
		<path d="M2644.049,1586.629c-7.299,5.056-11.656,8.952-13.341,17.967c-1.231,6.599-0.018,12.788,3.986,18.225
			c3.664,4.976,8.616,8.514,14.829,9.336c3.284,0.437,6.896,0.187,10.208,0.101c7.82-6.372,12.787-13.128,13.45-23.527
			c0.318-5.022-1.455-10.839-4.842-14.662c-4.424-4.995-9.416-7.466-15.995-7.624
			C2649.579,1586.383,2646.811,1586.506,2644.049,1586.629z"/>
		<path d="M2516.536,1484.532c-3.547-0.572-7.283-0.762-10.878-0.71c-7.407,3.211-13.43,5.882-16.927,13.696
			c-2.12,4.731-2.198,9.715-0.239,14.516c2.655,6.502,8.634,12.306,15.223,14.755c4.561,1.694,9.571,2.269,14.391,2.542
			c8.141-4.176,13.932-8.431,16.487-17.63c1.627-5.859,0.646-11.789-2.625-16.885
			C2528.464,1489.349,2522.961,1485.576,2516.536,1484.532z"/>
		<path d="M2625.032,1362.33c-7.732,5.129-12.74,9.908-14.681,19.313c-0.164,0.769-0.29,1.545-0.38,2.325
			c-0.088,0.782-0.139,1.567-0.15,2.356c-0.011,0.785,0.017,1.57,0.082,2.355c0.068,0.783,0.172,1.562,0.314,2.337
			c0.143,0.772,0.321,1.537,0.539,2.292c0.216,0.758,0.471,1.502,0.763,2.232c0.29,0.73,0.617,1.446,0.979,2.146
			c0.36,0.698,0.752,1.378,1.181,2.038c3.945,5.964,10.454,10.41,17.518,11.685c4.63,0.837,9.228-0.236,13.757-1.19
			c7.219-5.302,13.146-11.123,14.818-20.314c1.141-6.293-0.415-12.444-4.289-17.514c-4.143-5.418-11.154-9.692-17.949-10.529
			C2633.463,1361.361,2629.1,1361.911,2625.032,1362.33z"/>
		<path d="M2759.891,1511.133c4.431,1.159,9.315,1.335,13.861,1.798c8.174-3.743,14.067-7.325,17.503-16.018
			c0.334-0.825,0.623-1.665,0.867-2.52c0.245-0.854,0.444-1.72,0.599-2.594c0.152-0.878,0.257-1.76,0.318-2.647
			c0.062-0.885,0.077-1.773,0.044-2.663c-0.035-0.887-0.115-1.772-0.239-2.655c-0.126-0.88-0.299-1.751-0.517-2.614
			c-0.219-0.86-0.482-1.707-0.789-2.542s-0.656-1.651-1.05-2.449c-0.391-0.803-0.823-1.585-1.294-2.344
			c-0.471-0.76-0.979-1.493-1.524-2.199c-0.546-0.707-1.128-1.385-1.747-2.03c-0.615-0.648-1.263-1.262-1.944-1.839
			c-0.679-0.581-1.388-1.125-2.124-1.63c-0.736-0.506-1.495-0.973-2.28-1.402c-0.785-0.429-1.59-0.816-2.412-1.163
			c-0.825-0.344-1.665-0.645-2.52-0.905c-3.378-1.051-6.854-1.174-10.354-1.384c-9.54,3.234-17.635,7.221-21.885,16.961
			c-2.494,5.714-2.187,12.07,0.429,17.674C2745.969,1502.682,2752.566,1509.215,2759.891,1511.133z"/>
		<path d="M1329.362,1633.182c5.726,8.992,14.486,11.348,24.312,13.498c7.646-3.104,13.025-6.233,16.434-14.089
			c0.316-0.71,0.597-1.434,0.838-2.173c0.239-0.738,0.442-1.486,0.606-2.247s0.288-1.525,0.372-2.296
			c0.086-0.772,0.131-1.548,0.135-2.326c0.005-0.778-0.029-1.553-0.104-2.326c-0.075-0.772-0.19-1.539-0.345-2.299
			c-0.153-0.763-0.349-1.515-0.583-2.255c-0.232-0.743-0.502-1.472-0.807-2.184c-2.49-5.71-7.509-10.728-13.397-12.894
			c-3.728-1.368-7.831-1.626-11.749-1.884c-8.188,4.061-15.073,7.728-18.02,16.949
			C1325.238,1622.35,1326.193,1628.205,1329.362,1633.182z"/>
		<path d="M1300.911,1429.186c3.308,0.591,6.715,0.445,10.054,0.325c7.71-5.481,14.153-10.597,15.858-20.423
			c1.032-5.938-0.099-12.268-3.752-17.148c-4.838-6.465-12.514-10.148-20.406-10.975c-1.391-0.146-2.783-0.225-4.177-0.303
			c-8.256,5.011-14.339,9.023-16.844,18.804c-1.579,6.155-1.026,12.639,2.266,18.146
			C1287.496,1423.614,1294.069,1427.967,1300.911,1429.186z"/>
		<path d="M1198.667,1552.427c8.594-4.035,15.519-8.356,19.149-17.574c2.308-5.852,2.098-11.512-0.535-17.263
			c-2.744-5.994-8.988-9.849-15.132-11.416c-2.815-0.719-5.676-1.25-8.528-1.776c-9.162,4.166-18.405,7.781-21.792,18.112
			c-1.656,5.037-1.616,10.451,0.875,15.229c3.171,6.08,9.348,10.963,15.944,12.766
			C1191.978,1551.418,1195.25,1551.971,1198.667,1552.427z"/>
		<path d="M1445.447,1525.895c3.239,0.602,6.454,0.46,9.722,0.359c8.977-5.242,15.499-10.832,18.396-21.219
			c1.676-6.006,1.066-12.568-2.213-17.933c-3.597-5.885-10.148-9.508-16.815-10.709c-4.139-0.744-8.517-0.385-12.691-0.135
			c-8.435,5.359-15.66,10.418-17.75,20.79c-1.214,6.035-0.35,12.302,3.104,17.47
			C1431.257,1520.589,1438.358,1524.582,1445.447,1525.895z"/>
		<path d="M1960.657,1506.694c3.093,0.628,6.39,0.673,9.539,0.751c7.093-4.543,12.211-8.383,14.387-16.878
			c1.515-5.897,0.931-11.793-2.251-17.017c-2.93-4.808-8.581-9.037-14.162-10.114c-2.6-0.502-5.359-0.446-7.984-0.483
			c-7.425,4.139-12.526,6.977-15.15,15.566c-1.791,5.851-1.647,11.826,1.26,17.282
			C1949.136,1501.134,1954.697,1505.483,1960.657,1506.694z"/>
		<path d="M1840.095,1309.294c3.98,0.812,7.591,0.842,11.623,0.826c8.289-3.62,14.265-7.276,17.783-15.993
			c2.759-6.835,2.715-14.414-0.564-21.055c-2.985-6.046-8.817-11.55-15.451-13.278c-4.729-1.234-10.361-0.569-15.192-0.228
			c-8.442,5.007-15.028,9.277-17.536,19.294c-1.51,6.05-0.822,12.62,2.465,17.967
			C1826.75,1302.567,1833.391,1307.929,1840.095,1309.294z"/>
		<path d="M2151.817,1310.875c4.749,1.175,10.193,0.906,15.07,0.838c8.274-3.941,14.526-6.806,17.454-16.145
			c2.063-6.593,0.917-13.596-2.651-19.437c-4.316-7.067-11.745-12.907-20.012-14.395c-2.947-0.531-6.032-0.553-9.023-0.583
			c-8.537,4.057-15.305,7.687-18.785,16.969c-2.439,6.494-2.076,13.479,1.316,19.581
			C2138.607,1303.868,2144.892,1309.166,2151.817,1310.875z"/>
	</g>
</g>
</svg>
