<?xml version="1.0" encoding="utf-8"?>
<!-- Generator: Adobe Illustrator 27.5.0, SVG Export Plug-In . SVG Version: 6.00 Build 0)  -->
<svg xmlns="http://www.w3.org/2000/svg" xmlns:xlink="http://www.w3.org/1999/xlink" viewBox="0 0 492 492" width="595" height="842" preserveAspectRatio="xMidYMid meet" data-scaled="true">
<g>
	<g>
		<path d="M395.1,237.6H102.2c-27.5,0-51.7-12.5-63.1-32.7c-7.5-13.3-8.4-28.2-2.3-41.9c-8-10.5-10.7-23-7.4-35.3
			c4.1-15.4,17.2-28.1,35-34.1c8-12.7,22-22.7,38.7-27.5c4.5-13.2,14.8-24.5,29.1-31.9c19.5-10.1,43.6-11.8,64.7-4.6
			c24.1-22.9,67-26.2,96.1-7.4c21.5-7.1,45.4-3.4,62.5,9.7c11,8.4,17.4,19.7,18.2,31.9c17.4,5.9,31.1,17.3,37.9,31.4
			c20.5,2.3,37.5,12.8,45.8,28.3c6.1,11.5,6.5,24.1,1.1,35.7c7.8,14.2,7.9,29.9,0.3,44.4C447.9,224.6,423.4,237.6,395.1,237.6z
			 M170.1,27.3c-12.9,0-25.7,3-37,8.8c-14.2,7.4-24,18.2-28.3,31.3c-0.1,0.3-0.4,0.6-0.7,0.7c-16.6,4.6-30.5,14.5-38.3,27.1
			c-0.1,0.2-0.3,0.4-0.5,0.4c-17.4,5.6-30.1,17.9-34,32.8c-3.1,11.8-0.5,23.9,7.4,34c0.2,0.3,0.3,0.7,0.1,1c-6,13.3-5.3,27.7,2,40.7
			c11.1,19.5,34.6,31.7,61.3,31.7H395c27.6,0,51.3-12.7,62-33c7.3-14,7.1-29.2-0.5-42.9c-0.2-0.3-0.2-0.6,0-0.9
			c5.3-11.1,5-23.3-0.9-34.4c-8-15-24.7-25.3-44.8-27.3c-0.3,0-0.7-0.3-0.8-0.6c-6.6-14.1-20.3-25.4-37.6-31.1
			c-0.4-0.1-0.7-0.5-0.7-0.9c-0.6-11.9-6.8-22.9-17.5-31.1c-16.7-12.8-40.1-16.3-61.1-9.2c-0.3,0.1-0.6,0.1-0.9-0.1
			c-28.6-18.7-71-15.4-94.5,7.4c-0.3,0.3-0.7,0.3-1,0.2C188.3,28.7,179.2,27.3,170.1,27.3z M395.1,222.3H102.2
			c-21.6,0-41.1-9.8-49.7-24.9c-5.9-10.4-5.7-21.9,0.5-32.2c1.6-2.6,1.2-6-1-8.2c-7.4-7.4-10.1-16.4-7.7-25.3
			c3-11.2,13.3-20.3,27.7-24.2c1.8-0.5,3.3-1.7,4.1-3.3c6.2-11.7,19.4-20.8,35.4-24.2c2.6-0.6,4.6-2.6,5.1-5.1
			c2.3-11,10.4-20.5,22.6-26.9c9.2-4.8,19.9-7.3,30.8-7.3c9.2,0,18.4,1.8,26.5,5.3c2.7,1.2,5.8,0.4,7.7-1.8
			c18.6-21.8,59.2-25.1,83.5-6.9c1.9,1.4,4.4,1.7,6.5,0.8c19.8-8.1,40.3-2.8,51.9,6c5.2,4,13.7,12.5,12.1,25.3
			c-0.4,3.4,1.8,6.5,5.1,7.3c17.7,4.3,31.5,15.3,36,28.8c0.9,2.6,3.3,4.5,6.1,4.6c17.3,0.6,32,8.4,38.4,20.6c4.4,8.3,4,17.2-1,25.2
			c-1.4,2.3-1.4,5.1,0.2,7.3c7.2,10.4,8,22.2,2.2,33.1l0,0C437.1,212.1,417.4,222.3,395.1,222.3z M170.1,42.6
			c-10.6,0-21,2.4-29.9,7.1c-11.7,6.1-19.3,15.1-21.6,25.5c-0.7,3.3-3.3,6-6.7,6.7c-15.5,3.3-28.2,12-34.1,23.2
			c-1.1,2.1-3.1,3.7-5.4,4.3c-13.7,3.7-23.5,12.3-26.3,22.8c-2.2,8.3,0.4,16.6,7.2,23.4c2.8,2.8,3.4,7.2,1.3,10.6
			c-5.8,9.7-6,20.4-0.4,30.2c8.2,14.5,27,23.9,48,23.9h292.9c21.5,0,40.5-9.7,48.4-24.8c5.4-10.3,4.6-21.3-2.1-31.1
			c-2-2.9-2-6.6-0.2-9.5c4.6-7.4,5-15.6,0.9-23.2c-6.1-11.5-20.2-19-36.7-19.5c-3.6-0.1-6.8-2.5-7.9-5.9
			c-4.3-12.9-17.5-23.4-34.6-27.5c-4.3-1-7.1-5.1-6.6-9.5c1.5-11.8-6.5-19.8-11.3-23.5c-11.1-8.5-30.8-13.5-49.9-5.7
			c-2.8,1.2-6.1,0.7-8.5-1.1c-23.6-17.6-62.8-14.4-80.8,6.6c-2.5,2.9-6.5,3.8-10,2.3C187.9,44.4,179,42.6,170.1,42.6z M444.4,195.9
			L444.4,195.9L444.4,195.9z"/>
	</g>
	<g>
		<path d="M183.1,415.6c-4.8,0-8.7-3.9-8.7-8.7V395l-7.2,7.6c-3.3,3.5-8.8,3.6-12.3,0.3c-3.5-3.3-3.6-8.8-0.3-12.3l19.8-20.8v-25.3
			h-25.3l-20.8,19.8c-1.6,1.5-3.7,2.4-6,2.4c-2.4,0-4.6-1-6.3-2.7c-1.6-1.7-2.5-3.9-2.4-6.2c0.1-2.3,1-4.5,2.7-6.1l7.6-7.2h-11.8
			c-4.8,0-8.7-3.9-8.7-8.7c0-4.8,3.9-8.7,8.7-8.7H124l-7.6-7.2c-3.5-3.3-3.6-8.8-0.3-12.3c3.3-3.5,8.8-3.6,12.3-0.3l20.8,19.8h25.3
			v-25.3L154.7,281c-3.3-3.5-3.2-9,0.3-12.3c3.5-3.3,9-3.2,12.3,0.3l7.2,7.6v-11.8c0-4.8,3.9-8.7,8.7-8.7s8.7,3.9,8.7,8.7v11.8
			l7.2-7.6c1.6-1.7,3.8-2.6,6.1-2.7c2.3,0,4.5,0.8,6.2,2.4c3.5,3.3,3.6,8.8,0.3,12.3l-19.8,20.8v25.3h25.3l20.8-19.8
			c1.7-1.6,3.9-2.4,6.2-2.4c2.3,0.1,4.5,1,6.1,2.7c3.3,3.5,3.2,9-0.3,12.3l-7.6,7.2h11.9c4.8,0,8.7,3.9,8.7,8.7
			c0,4.8-3.9,8.7-8.7,8.7h-11.8l7.6,7.2c3.5,3.3,3.6,8.8,0.3,12.3c-1.6,1.7-3.9,2.7-6.3,2.7c-2.2,0-4.4-0.9-6-2.4l-20.8-19.8H192
			v25.3l19.8,20.8c3.3,3.5,3.2,9-0.3,12.3c-1.6,1.5-3.7,2.4-6,2.4c-2.4,0-4.6-1-6.3-2.7L192,395v11.8
			C191.8,411.7,187.9,415.6,183.1,415.6z M175.4,391.5c0.1,0,0.3,0,0.4,0.1c0.4,0.2,0.6,0.5,0.6,0.9v14.4c0,3.7,3,6.7,6.7,6.7
			c3.7,0,6.7-3,6.7-6.7v-14.3c0-0.4,0.2-0.8,0.6-0.9c0.4-0.1,0.8-0.1,1.1,0.2l8.9,9.4c1.3,1.3,3,2.1,4.8,2.1c1.7,0,3.4-0.7,4.6-1.8
			c2.7-2.5,2.8-6.8,0.2-9.4L190,371c-0.2-0.2-0.3-0.4-0.3-0.7v-26.7c0-0.6,0.4-1,1-1h26.7c0.3,0,0.5,0.1,0.7,0.3l21,20.1
			c1.2,1.2,2.9,1.8,4.6,1.8c1.9,0,3.6-0.7,4.8-2.1c1.2-1.3,1.9-3,1.8-4.8c0-1.8-0.8-3.4-2.1-4.7l-9.4-8.9c-0.3-0.3-0.4-0.7-0.2-1.1
			c0.2-0.4,0.5-0.6,0.9-0.6h14.3c3.7,0,6.7-3,6.7-6.7s-3-6.7-6.7-6.7h-14.4c-0.4,0-0.8-0.2-0.9-0.6c-0.2-0.4-0.1-0.8,0.2-1.1l9.4-9
			c2.7-2.5,2.8-6.8,0.2-9.4c-1.2-1.3-2.9-2-4.7-2.1c-1.8-0.1-3.5,0.6-4.8,1.8l-21.1,20.1c-0.2,0.2-0.4,0.3-0.7,0.3h-26.7
			c-0.6,0-1-0.4-1-1v-26.7c0-0.3,0.1-0.5,0.3-0.7l20.1-21.1c2.5-2.7,2.4-6.9-0.2-9.4c-1.3-1.2-3-1.9-4.8-1.8c-1.8,0-3.4,0.8-4.7,2.1
			l-9,9.4c-0.3,0.3-0.7,0.4-1.1,0.2c-0.4-0.2-0.6-0.5-0.6-0.9V265c0-3.7-3-6.7-6.7-6.7c-3.7,0-6.7,3-6.7,6.7v14.3
			c0,0.4-0.2,0.8-0.6,0.9c-0.4,0.2-0.8,0.1-1.1-0.2l-9-9.4c-2.5-2.7-6.8-2.8-9.4-0.2c-2.7,2.5-2.8,6.8-0.2,9.4l20.1,21.1
			c0.2,0.2,0.3,0.4,0.3,0.7v26.7c0,0.6-0.4,1-1,1h-26.7c-0.3,0-0.5-0.1-0.7-0.3l-21.1-20.1c-2.7-2.5-6.9-2.4-9.4,0.2
			c-2.5,2.7-2.4,6.9,0.2,9.4l9.4,9c0.3,0.3,0.4,0.7,0.2,1.1c-0.2,0.4-0.5,0.6-0.9,0.6h-14.4c-3.7,0-6.7,3-6.7,6.7s3,6.7,6.7,6.7
			h14.3c0.4,0,0.8,0.2,0.9,0.6c0.2,0.4,0.1,0.8-0.2,1.1l-9.4,8.9c-1.3,1.2-2,2.9-2.1,4.7c0,1.8,0.6,3.5,1.8,4.8
			c1.3,1.3,3,2.1,4.8,2.1c1.7,0,3.4-0.7,4.6-1.8l21-20.1c0.2-0.2,0.4-0.3,0.7-0.3h26.7c0.6,0,1,0.4,1,1v26.7c0,0.3-0.1,0.5-0.3,0.7
			L156,392c-2.5,2.7-2.4,6.9,0.2,9.4c2.7,2.5,6.9,2.4,9.4-0.2l9-9.4C174.9,391.6,175.1,391.5,175.4,391.5z"/>
	</g>
	<g>
		<path d="M311.4,332.2c-4.8,0-8.7-3.9-8.7-8.7v-8.6l-7.4,4.3c-1.3,0.8-2.8,1.2-4.3,1.2c-3.1,0-6-1.7-7.5-4.3
			c-1.2-2-1.5-4.3-0.9-6.6c0.6-2.2,2-4.1,4-5.3l7.5-4.3l-7.4-4.3c-2-1.2-3.4-3-4-5.3c-0.6-2.3-0.3-4.6,0.9-6.6c1.2-2,3-3.4,5.3-4
			c2.3-0.6,4.6-0.3,6.6,0.9l7.4,4.3v-8.6c0-4.8,3.9-8.7,8.7-8.7c4.8,0,8.7,3.9,8.7,8.7v8.6l7.4-4.3c4.1-2.4,9.5-1,11.9,3.2
			c1.2,2,1.5,4.3,0.9,6.6c-0.6,2.2-2,4.1-4,5.3l-7.4,4.3l7.5,4.3c4.1,2.4,5.6,7.7,3.2,11.9c-1.6,2.7-4.4,4.3-7.5,4.3
			c-1.5,0-3-0.4-4.3-1.2l-7.4-4.3v8.6C320,328.3,316.1,332.2,311.4,332.2z M303.7,312.2c0.2,0,0.3,0,0.5,0.1
			c0.3,0.2,0.5,0.5,0.5,0.9v10.3c0,3.7,3,6.7,6.7,6.7c3.7,0,6.7-3,6.7-6.7v-10.3c0-0.4,0.2-0.7,0.5-0.9c0.3-0.2,0.7-0.2,1,0l9,5.2
			c1,0.6,2.2,0.9,3.3,0.9c2.4,0,4.6-1.3,5.8-3.3c1.8-3.2,0.7-7.3-2.4-9.1l-9-5.2c-0.3-0.2-0.5-0.5-0.5-0.9s0.2-0.7,0.5-0.9l8.9-5.2
			c3.2-1.8,4.3-5.9,2.4-9.1c-0.9-1.5-2.3-2.6-4.1-3.1c-1.7-0.5-3.5-0.2-5.1,0.7l-8.9,5.2c-0.3,0.2-0.7,0.2-1,0s-0.5-0.5-0.5-0.9
			v-10.3c0-3.7-3-6.7-6.7-6.7c-3.7,0-6.7,3-6.7,6.7v10.3c0,0.4-0.2,0.7-0.5,0.9c-0.3,0.2-0.7,0.2-1,0l-8.9-5.2
			c-3.2-1.8-7.3-0.7-9.1,2.4c-0.9,1.5-1.1,3.3-0.7,5.1c0.5,1.7,1.6,3.2,3.1,4.1l8.9,5.2c0.3,0.2,0.5,0.5,0.5,0.9s-0.2,0.7-0.5,0.9
			l-9,5.2c-3.2,1.8-4.3,5.9-2.4,9.1c1.2,2.1,3.4,3.3,5.8,3.3c1.2,0,2.3-0.3,3.3-0.9l0,0l8.9-5.2
			C303.3,312.2,303.5,312.2,303.7,312.2z"/>
	</g>
	<g>
		<path d="M410.8,317.2c-4.8,0-8.7-3.9-8.7-8.7v-8.6l-7.5,4.3c-1.3,0.8-2.8,1.2-4.3,1.2c-3.1,0-6-1.7-7.5-4.3
			c-2.4-4.1-1-9.5,3.2-11.9l7.5-4.3l-7.4-4.3c-2-1.2-3.4-3-4-5.3c-0.6-2.2-0.3-4.6,0.9-6.6c2.4-4.1,7.7-5.6,11.9-3.2l7.4,4.3v-8.6
			c0-4.8,3.9-8.7,8.7-8.7s8.7,3.9,8.7,8.7v8.6l7.4-4.3c4.1-2.4,9.5-1,11.9,3.2c1.2,2,1.5,4.3,0.9,6.6c-0.6,2.2-2,4.1-4,5.3l-7.4,4.3
			l7.5,4.3l0,0c2,1.2,3.4,3,4,5.3c0.6,2.2,0.3,4.6-0.9,6.6c-1.5,2.7-4.4,4.3-7.5,4.3c-1.5,0-3-0.4-4.3-1.2l-7.5-4.3v8.6
			C419.5,313.3,415.6,317.2,410.8,317.2z M403.1,297.2c0.2,0,0.3,0,0.5,0.1c0.3,0.2,0.5,0.5,0.5,0.9v10.3c0,3.7,3,6.7,6.7,6.7
			c3.7,0,6.7-3,6.7-6.7v-10.3c0-0.4,0.2-0.7,0.5-0.9c0.3-0.2,0.7-0.2,1,0l9,5.2c1,0.6,2.2,0.9,3.3,0.9c2.4,0,4.6-1.3,5.8-3.3
			c1.8-3.2,0.7-7.3-2.4-9.1l-9-5.2c-0.3-0.2-0.5-0.5-0.5-0.9s0.2-0.7,0.5-0.9l8.9-5.2c3.2-1.8,4.3-5.9,2.4-9.1
			c-1.8-3.2-5.9-4.3-9.1-2.4l-8.9,5.2c-0.3,0.2-0.7,0.2-1,0s-0.5-0.5-0.5-0.9v-10.3c0-3.7-3-6.7-6.7-6.7c-3.7,0-6.7,3-6.7,6.7v10.3
			c0,0.4-0.2,0.7-0.5,0.9c-0.3,0.2-0.7,0.2-1,0l-8.9-5.2c-3.2-1.8-7.3-0.7-9.1,2.4c-1.8,3.2-0.7,7.3,2.4,9.1l8.9,5.2
			c0.3,0.2,0.5,0.5,0.5,0.9s-0.2,0.7-0.5,0.9l-9,5.2c-3.2,1.8-4.3,5.9-2.4,9.1c1.2,2.1,3.4,3.3,5.8,3.3c1.2,0,2.3-0.3,3.3-0.9l9-5.2
			C402.8,297.2,403,297.2,403.1,297.2z"/>
	</g>
	<g>
		<path d="M395.3,412.8c-4.8,0-8.7-3.9-8.7-8.7v-8.6l-7.4,4.3c-1.3,0.8-2.8,1.2-4.3,1.2c-3.1,0-6-1.7-7.5-4.3
			c-1.2-2-1.5-4.3-0.9-6.6c0.6-2.2,2-4.1,4-5.3l7.5-4.3l-7.4-4.3c-2-1.2-3.4-3-4-5.3c-0.6-2.2-0.3-4.6,0.9-6.6
			c2.4-4.1,7.7-5.6,11.9-3.2l7.4,4.3v-8.6c0-4.8,3.9-8.7,8.7-8.7s8.7,3.9,8.7,8.7v8.6l7.5-4.3c4.1-2.4,9.5-1,11.9,3.2l0,0
			c2.4,4.1,1,9.5-3.2,11.9l-7.4,4.3l7.4,4.3c4.1,2.4,5.6,7.7,3.2,11.9c-1.5,2.7-4.4,4.3-7.5,4.3c-1.5,0-3-0.4-4.3-1.2l-7.4-4.3v8.6
			C404,408.9,400.1,412.8,395.3,412.8z M387.6,392.8c0.2,0,0.3,0,0.5,0.1c0.3,0.2,0.5,0.5,0.5,0.9v10.3c0,3.7,3,6.7,6.7,6.7
			c3.7,0,6.7-3,6.7-6.7v-10.3c0-0.4,0.2-0.7,0.5-0.9c0.3-0.2,0.7-0.2,1,0l9,5.2c1,0.6,2.2,0.9,3.3,0.9c2.4,0,4.6-1.3,5.8-3.3
			c1.8-3.2,0.7-7.3-2.4-9.1l-8.9-5.2c-0.3-0.2-0.5-0.5-0.5-0.9s0.2-0.7,0.5-0.9l8.9-5.2c3.2-1.8,4.3-5.9,2.4-9.1
			c-1.8-3.2-5.9-4.3-9.1-2.4l-9,5.2c-0.3,0.2-0.7,0.2-1,0c-0.3-0.2-0.5-0.5-0.5-0.9v-10.3c0-3.7-3-6.7-6.7-6.7c-3.7,0-6.7,3-6.7,6.7
			v10.3c0,0.4-0.2,0.7-0.5,0.9c-0.3,0.2-0.7,0.2-1,0l-8.9-5.2c-3.2-1.8-7.3-0.7-9.1,2.4c-0.9,1.5-1.1,3.3-0.7,5.1
			c0.5,1.7,1.6,3.2,3.1,4.1l8.9,5.2c0.3,0.2,0.5,0.5,0.5,0.9s-0.2,0.7-0.5,0.9l-9,5.2c-3.2,1.8-4.3,5.9-2.4,9.1
			c1.2,2.1,3.4,3.3,5.8,3.3c1.2,0,2.3-0.3,3.3-0.9l8.9-5.2C387.3,392.8,387.4,392.8,387.6,392.8z"/>
	</g>
	<g>
		<path d="M313.7,435.7c-4.8,0-8.7-3.9-8.7-8.7v-8.6l-7.5,4.3c-1.3,0.8-2.8,1.2-4.3,1.2c-3.1,0-6-1.7-7.5-4.3
			c-2.4-4.1-1-9.5,3.2-11.9l7.5-4.3l-7.4-4.3c-2-1.2-3.4-3-4-5.3c-0.6-2.2-0.3-4.6,0.9-6.6c1.2-2,3-3.4,5.3-4
			c2.2-0.6,4.6-0.3,6.6,0.9l7.4,4.3v-8.6c0-4.8,3.9-8.7,8.7-8.7c4.8,0,8.7,3.9,8.7,8.7v8.6l7.4-4.3c2-1.2,4.3-1.5,6.6-0.9
			c2.2,0.6,4.1,2,5.3,4c1.2,2,1.5,4.3,0.9,6.6c-0.6,2.3-2,4.1-4,5.3l-7.4,4.3l7.5,4.3l0,0c2,1.2,3.4,3,4,5.3
			c0.6,2.2,0.3,4.6-0.9,6.6c-1.5,2.7-4.4,4.3-7.5,4.3c-1.5,0-3-0.4-4.3-1.2l-7.4-4.3v8.6C322.4,431.8,318.5,435.7,313.7,435.7z
			 M306,415.7c0.2,0,0.3,0,0.5,0.1c0.3,0.2,0.5,0.5,0.5,0.9V427c0,3.7,3,6.7,6.7,6.7c3.7,0,6.7-3,6.7-6.7v-10.3
			c0-0.4,0.2-0.7,0.5-0.9c0.3-0.2,0.7-0.2,1,0l8.9,5.2c1,0.6,2.2,0.9,3.3,0.9c2.4,0,4.6-1.3,5.8-3.3c1.8-3.2,0.7-7.3-2.4-9.1l-9-5.2
			c-0.3-0.2-0.5-0.5-0.5-0.9s0.2-0.7,0.5-0.9l8.9-5.2c1.5-0.9,2.6-2.3,3.1-4.1c0.5-1.7,0.2-3.5-0.7-5.1c-1.8-3.2-5.9-4.3-9.1-2.4
			l-8.9,5.2c-0.3,0.2-0.7,0.2-1,0c-0.3-0.2-0.5-0.5-0.5-0.9v-10.3c0-3.7-3-6.7-6.7-6.7c-3.7,0-6.7,3-6.7,6.7V390
			c0,0.4-0.2,0.7-0.5,0.9c-0.3,0.2-0.7,0.2-1,0l-8.9-5.2c-1.5-0.9-3.3-1.1-5.1-0.7c-1.7,0.5-3.2,1.6-4.1,3.1
			c-1.8,3.2-0.7,7.3,2.4,9.1l8.9,5.2c0.3,0.2,0.5,0.5,0.5,0.9c0,0.4-0.2,0.7-0.5,0.9l-9,5.2c-3.2,1.8-4.3,5.9-2.4,9.1
			c1.2,2.1,3.4,3.3,5.8,3.3c1.2,0,2.3-0.3,3.3-0.9l9-5.2C305.7,415.7,305.9,415.7,306,415.7z"/>
	</g>
	<g>
		<path d="M241.6,483.4c-4.8,0-8.7-3.9-8.7-8.7v-8.6l-7.5,4.3c-1.3,0.8-2.8,1.2-4.3,1.2c-3.1,0-6-1.7-7.5-4.3
			c-1.2-2-1.5-4.3-0.9-6.6c0.6-2.2,2-4.1,4-5.3l7.5-4.3l-7.4-4.3c-2-1.2-3.4-3-4-5.3c-0.6-2.2-0.3-4.6,0.9-6.6
			c2.4-4.1,7.7-5.6,11.9-3.2l7.4,4.3v-8.6c0-4.8,3.9-8.7,8.7-8.7s8.7,3.9,8.7,8.7v8.6l7.4-4.3c2-1.2,4.3-1.5,6.6-0.9
			c2.2,0.6,4.1,2,5.3,4c1.2,2,1.5,4.3,0.9,6.6c-0.6,2.2-2,4.1-4,5.3l-7.4,4.3l7.5,4.3l0,0c4.1,2.4,5.6,7.7,3.2,11.9
			c-1.6,2.7-4.4,4.3-7.5,4.3c-1.5,0-3-0.4-4.3-1.2l-7.4-4.3v8.6C250.3,479.5,246.4,483.4,241.6,483.4z M233.9,463.4
			c0.2,0,0.3,0,0.5,0.1c0.3,0.2,0.5,0.5,0.5,0.9v10.3c0,3.7,3,6.7,6.7,6.7c3.7,0,6.7-3,6.7-6.7v-10.3c0-0.4,0.2-0.7,0.5-0.9
			s0.7-0.2,1,0l9,5.2c1,0.6,2.2,0.9,3.3,0.9c2.4,0,4.6-1.3,5.8-3.3c1.8-3.2,0.7-7.3-2.4-9.1l-9-5.2c-0.3-0.2-0.5-0.5-0.5-0.9
			s0.2-0.7,0.5-0.9l8.9-5.2c1.5-0.9,2.6-2.3,3.1-4.1c0.5-1.7,0.2-3.5-0.7-5.1c-0.9-1.6-2.3-2.6-4.1-3.1c-1.7-0.5-3.5-0.2-5.1,0.7
			l-8.9,5.2c-0.3,0.2-0.7,0.2-1,0c-0.3-0.2-0.5-0.5-0.5-0.9v-10.3c0-3.7-3-6.7-6.7-6.7s-6.7,3-6.7,6.7v10.3c0,0.4-0.2,0.7-0.5,0.9
			c-0.3,0.2-0.7,0.2-1,0l-8.9-5.2c-3.2-1.8-7.3-0.7-9.1,2.4c-1.8,3.2-0.7,7.3,2.4,9.1l8.9,5.2c0.3,0.2,0.5,0.5,0.5,0.9
			s-0.2,0.7-0.5,0.9l-9,5.2c-1.5,0.9-2.6,2.3-3.1,4.1c-0.5,1.7-0.2,3.5,0.7,5.1c1.2,2.1,3.4,3.3,5.8,3.3c1.1,0,2.3-0.3,3.3-0.9
			l8.9-5.2C233.6,463.5,233.7,463.4,233.9,463.4z"/>
	</g>
	<g>
		<path d="M114.9,468.9c-4.8,0-8.7-3.9-8.7-8.7v-8.6l-7.5,4.3c-1.3,0.8-2.8,1.2-4.3,1.2c-3.1,0-6-1.7-7.5-4.3
			c-2.4-4.1-1-9.5,3.2-11.9l7.4-4.3l-7.4-4.3c-4.1-2.4-5.6-7.7-3.2-11.9c1.2-2,3-3.4,5.3-4c2.2-0.6,4.6-0.3,6.6,0.9l7.5,4.3V413
			c0-4.8,3.9-8.7,8.7-8.7s8.7,3.9,8.7,8.7v8.6l7.4-4.3c2-1.2,4.3-1.5,6.6-0.9c2.2,0.6,4.1,2,5.3,4c2.4,4.1,1,9.5-3.2,11.9l-7.4,4.3
			l7.4,4.3c4.1,2.4,5.6,7.7,3.2,11.9c-1.5,2.7-4.4,4.3-7.5,4.3c-1.5,0-3-0.4-4.3-1.2l-7.4-4.3v8.6
			C123.6,465,119.7,468.9,114.9,468.9z M107.2,448.9c0.2,0,0.3,0,0.5,0.1c0.3,0.2,0.5,0.5,0.5,0.9v10.3c0,3.7,3,6.7,6.7,6.7
			c3.7,0,6.7-3,6.7-6.7v-10.3c0-0.4,0.2-0.7,0.5-0.9c0.3-0.2,0.7-0.2,1,0l8.9,5.2c1,0.6,2.2,0.9,3.3,0.9c2.4,0,4.6-1.3,5.8-3.3
			c1.8-3.2,0.7-7.3-2.4-9.1l-8.9-5.2c-0.3-0.2-0.5-0.5-0.5-0.9s0.2-0.7,0.5-0.9l8.9-5.2c3.2-1.8,4.3-5.9,2.4-9.1l0,0
			c-0.9-1.5-2.3-2.6-4.1-3.1s-3.5-0.2-5.1,0.7l-8.9,5.2c-0.3,0.2-0.7,0.2-1,0c-0.3-0.2-0.5-0.5-0.5-0.9V413c0-3.7-3-6.7-6.7-6.7
			c-3.7,0-6.7,3-6.7,6.7v10.3c0,0.4-0.2,0.7-0.5,0.9c-0.3,0.2-0.7,0.2-1,0l-9-5.2c-1.5-0.9-3.3-1.1-5.1-0.7
			c-1.7,0.5-3.2,1.6-4.1,3.1c-1.8,3.2-0.7,7.3,2.4,9.1l8.9,5.2c0.3,0.2,0.5,0.5,0.5,0.9s-0.2,0.7-0.5,0.9l-8.9,5.2
			c-3.2,1.8-4.3,5.9-2.4,9.1c1.2,2.1,3.4,3.3,5.8,3.3c1.2,0,2.3-0.3,3.3-0.9l9-5.2C106.9,448.9,107,448.9,107.2,448.9z"/>
	</g>
	<g>
		<path d="M58.8,410c-4.8,0-8.7-3.9-8.7-8.7v-8.6l-7.4,4.3c-1.3,0.8-2.8,1.2-4.3,1.2c-3.1,0-6-1.7-7.5-4.3c-1.2-2-1.5-4.3-0.9-6.6
			c0.6-2.2,2-4.1,4-5.3l7.4-4.3l-7.4-4.3c-4.1-2.4-5.6-7.7-3.2-11.9c1.2-2,3-3.4,5.3-4c2.2-0.6,4.6-0.3,6.6,0.9l7.4,4.3v-8.6
			c0-4.8,3.9-8.7,8.7-8.7s8.7,3.9,8.7,8.7v8.6l7.5-4.3c4.1-2.4,9.5-1,11.9,3.2c1.2,2,1.5,4.3,0.9,6.6c-0.6,2.2-2,4.1-4,5.3l-7.4,4.3
			l7.4,4.3l0,0c2,1.2,3.4,3,4,5.3c0.6,2.2,0.3,4.6-0.9,6.6c-1.5,2.7-4.4,4.3-7.5,4.3c-1.5,0-3-0.4-4.3-1.2l-7.4-4.3v8.6
			C67.5,406.1,63.6,410,58.8,410z M51.1,390c0.2,0,0.3,0,0.5,0.1c0.3,0.2,0.5,0.5,0.5,0.9v10.3c0,3.7,3,6.7,6.7,6.7s6.7-3,6.7-6.7
			V391c0-0.4,0.2-0.7,0.5-0.9c0.3-0.2,0.7-0.2,1,0l9,5.2c1,0.6,2.2,0.9,3.3,0.9c2.4,0,4.6-1.3,5.8-3.3c1.8-3.2,0.7-7.3-2.4-9.1
			l-8.9-5.2c-0.3-0.2-0.5-0.5-0.5-0.9c0-0.4,0.2-0.7,0.5-0.9l8.9-5.2c3.2-1.8,4.3-5.9,2.4-9.1c-1.8-3.2-5.9-4.3-9.1-2.4l-9,5.2
			c-0.3,0.2-0.7,0.2-1,0c-0.3-0.2-0.5-0.5-0.5-0.9v-10.3c0-3.7-3-6.7-6.7-6.7s-6.7,3-6.7,6.7v10.3c0,0.4-0.2,0.7-0.5,0.9
			c-0.3,0.2-0.7,0.2-1,0l-8.9-5.2c-3.2-1.8-7.3-0.7-9.1,2.4c-0.9,1.5-1.1,3.3-0.7,5.1c0.4,1.8,1.6,3.2,3.1,4.1l8.9,5.2
			c0.3,0.2,0.5,0.5,0.5,0.9c0,0.4-0.2,0.7-0.5,0.9l-8.9,5.2c-3.2,1.8-4.3,5.9-2.4,9.1c1.2,2.1,3.4,3.3,5.8,3.3
			c1.2,0,2.3-0.3,3.3-0.9l8.9-5.2C50.8,390,51,390,51.1,390z"/>
	</g>
	<g>
		<path d="M73.2,318c-4.8,0-8.7-3.9-8.7-8.7v-8.6L57,305c-1.3,0.8-2.8,1.2-4.3,1.2c-3.1,0-6-1.7-7.5-4.3l0,0c-1.2-2-1.5-4.3-0.9-6.6
			c0.6-2.2,2-4.1,4-5.3l7.5-4.3l-7.4-4.3c-4.1-2.4-5.6-7.7-3.2-11.9c2.4-4.1,7.7-5.6,11.9-3.2l7.4,4.3V262c0-4.8,3.9-8.7,8.7-8.7
			c4.8,0,8.7,3.9,8.7,8.7v8.6l7.4-4.3c4.1-2.4,9.5-1,11.9,3.2c1.2,2,1.5,4.3,0.9,6.6c-0.6,2.2-2,4.1-4,5.3l-7.4,4.3L98,290
			c4.1,2.4,5.6,7.7,3.2,11.9c-1.6,2.7-4.4,4.3-7.5,4.3c-1.5,0-3-0.4-4.3-1.2l-7.4-4.3v8.6C81.8,314.1,77.9,318,73.2,318z M65.5,298
			c0.2,0,0.3,0,0.5,0.1c0.3,0.2,0.5,0.5,0.5,0.9v10.3c0,3.7,3,6.7,6.7,6.7c3.7,0,6.7-3,6.7-6.7V299c0-0.4,0.2-0.7,0.5-0.9
			c0.3-0.2,0.7-0.2,1,0l9,5.2c1,0.6,2.2,0.9,3.3,0.9c2.4,0,4.6-1.3,5.8-3.3c1.8-3.2,0.7-7.3-2.4-9.1l-9-5.2
			c-0.3-0.2-0.5-0.5-0.5-0.9c0-0.4,0.2-0.7,0.5-0.9l8.9-5.2c3.2-1.8,4.3-5.9,2.4-9.1c-0.9-1.5-2.3-2.6-4.1-3.1
			c-1.7-0.5-3.5-0.2-5.1,0.7l-8.9,5.2c-0.3,0.2-0.7,0.2-1,0c-0.3-0.2-0.5-0.5-0.5-0.9v-10.3c0-3.7-3-6.7-6.7-6.7
			c-3.7,0-6.7,3-6.7,6.7v10.3c0,0.4-0.2,0.7-0.5,0.9c-0.3,0.2-0.7,0.2-1,0l-8.9-5.2c-1.5-0.9-3.3-1.1-5.1-0.7
			c-1.7,0.5-3.2,1.6-4.1,3.1c-1.8,3.2-0.7,7.3,2.4,9.1l8.9,5.2c0.3,0.2,0.5,0.5,0.5,0.9c0,0.4-0.2,0.7-0.5,0.9l-9,5.2
			c-3.2,1.8-4.3,5.9-2.4,9.1l0,0c1.2,2.1,3.4,3.3,5.8,3.3c1.2,0,2.3-0.3,3.3-0.9l9-5.2C65.1,298,65.3,298,65.5,298z"/>
	</g>
	<g>
		<path d="M141.2,203.3c-4.8,0-8.7-3.9-8.7-8.7V186l-7.4,4.3c-1.3,0.8-2.8,1.2-4.3,1.2c-3.1,0-6-1.7-7.5-4.3
			c-2.4-4.1-1-9.5,3.2-11.9l7.4-4.3l-7.4-4.3c-2-1.2-3.4-3-4-5.3c-0.6-2.2-0.3-4.6,0.9-6.6c1.2-2,3-3.4,5.3-4
			c2.2-0.6,4.6-0.3,6.6,0.9l7.4,4.3v-8.6c0-4.8,3.9-8.7,8.7-8.7c4.8,0,8.7,3.9,8.7,8.7v8.6l7.4-4.3c2-1.2,4.3-1.5,6.6-0.9
			c2.2,0.6,4.1,2,5.3,4c1.2,2,1.5,4.3,0.9,6.6c-0.6,2.2-2,4.1-4,5.3l-7.4,4.3l7.4,4.3c4.1,2.4,5.6,7.7,3.2,11.9
			c-1.5,2.7-4.4,4.3-7.5,4.3c-1.5,0-3-0.4-4.3-1.2l-7.4-4.3v8.6C149.9,199.4,146,203.3,141.2,203.3z M133.6,183.3
			c0.2,0,0.3,0,0.5,0.1c0.3,0.2,0.5,0.5,0.5,0.9v10.3c0,3.7,3,6.7,6.7,6.7s6.7-3,6.7-6.7v-10.3c0-0.4,0.2-0.7,0.5-0.9
			c0.3-0.2,0.7-0.2,1,0l8.9,5.2c1,0.6,2.2,0.9,3.3,0.9c2.4,0,4.6-1.3,5.8-3.3c1.8-3.2,0.7-7.3-2.4-9.1l-8.9-5.2
			c-0.3-0.2-0.5-0.5-0.5-0.9s0.2-0.7,0.5-0.9l8.9-5.2c1.5-0.9,2.6-2.3,3.1-4.1s0.2-3.5-0.7-5.1c-1.8-3.2-5.9-4.3-9.1-2.4l-8.9,5.2
			c-0.3,0.2-0.7,0.2-1,0s-0.5-0.5-0.5-0.9v-10.3c0-3.7-3-6.7-6.7-6.7s-6.7,3-6.7,6.7v10.3c0,0.4-0.2,0.7-0.5,0.9
			c-0.3,0.2-0.7,0.2-1,0l-8.9-5.2c-1.5-0.9-3.3-1.1-5.1-0.7c-1.7,0.5-3.2,1.6-4.1,3.1s-1.1,3.3-0.7,5.1c0.4,1.8,1.6,3.2,3.1,4.1
			l8.9,5.2c0.3,0.2,0.5,0.5,0.5,0.9s-0.2,0.7-0.5,0.9l-8.9,5.2c-3.2,1.8-4.3,5.9-2.4,9.1c1.2,2.1,3.4,3.3,5.8,3.3
			c1.2,0,2.3-0.3,3.3-0.9l8.9-5.2C133.2,183.4,133.4,183.3,133.6,183.3z"/>
	</g>
	<g>
		<path d="M247.6,212.6c-4.8,0-8.7-3.9-8.7-8.7v-8.6l-7.4,4.3c-1.3,0.8-2.8,1.2-4.3,1.2c-3.1,0-6-1.7-7.5-4.3
			c-2.4-4.1-1-9.5,3.2-11.9l7.5-4.3L223,176c-2-1.2-3.4-3-4-5.3c-0.6-2.2-0.3-4.6,0.9-6.6c1.2-2,3-3.4,5.3-4
			c2.3-0.6,4.6-0.3,6.6,0.9l7.4,4.3v-8.6c0-4.8,3.9-8.7,8.7-8.7c4.8,0,8.7,3.9,8.7,8.7v8.6l7.4-4.3c2-1.2,4.3-1.5,6.6-0.9
			c2.2,0.6,4.1,2,5.3,4c2.4,4.1,1,9.5-3.2,11.9l-7.4,4.3l7.5,4.3l0,0c2,1.2,3.4,3,4,5.3c0.6,2.2,0.3,4.6-0.9,6.6
			c-1.6,2.7-4.4,4.3-7.5,4.3c-1.5,0-3-0.4-4.3-1.2l-7.4-4.3v8.6C256.3,208.7,252.4,212.6,247.6,212.6z M239.9,192.6
			c0.2,0,0.3,0,0.5,0.1c0.3,0.2,0.5,0.5,0.5,0.9V204c0,3.7,3,6.7,6.7,6.7c3.7,0,6.7-3,6.7-6.7v-10.3c0-0.4,0.2-0.7,0.5-0.9
			s0.7-0.2,1,0l9,5.2c1,0.6,2.2,0.9,3.3,0.9c2.4,0,4.6-1.3,5.8-3.3c0.9-1.5,1.1-3.3,0.7-5.1s-1.6-3.2-3.1-4.1l-9-5.2
			c-0.3-0.2-0.5-0.5-0.5-0.9c0-0.4,0.2-0.7,0.5-0.9l8.9-5.2c3.2-1.8,4.3-5.9,2.4-9.1c-1.8-3.2-5.9-4.3-9.1-2.4l-8.9,5.2
			c-0.3,0.2-0.7,0.2-1,0c-0.3-0.2-0.5-0.5-0.5-0.9v-10.3c0-3.7-3-6.7-6.7-6.7c-3.7,0-6.7,3-6.7,6.7V167c0,0.4-0.2,0.7-0.5,0.9
			c-0.3,0.2-0.7,0.2-1,0l-8.9-5.2c-1.5-0.9-3.3-1.1-5.1-0.7c-1.7,0.5-3.2,1.6-4.1,3.1c-0.9,1.5-1.1,3.3-0.7,5.1
			c0.4,1.8,1.6,3.2,3.1,4.1l8.9,5.2c0.3,0.2,0.5,0.5,0.5,0.9c0,0.4-0.2,0.7-0.5,0.9l-9,5.2c-3.2,1.8-4.3,5.9-2.4,9.1
			c1.2,2.1,3.4,3.3,5.8,3.3c1.2,0,2.3-0.3,3.3-0.9l9-5.2C239.6,192.7,239.7,192.6,239.9,192.6z"/>
	</g>
	<g>
		<path d="M344.3,181.6c-4.8,0-8.7-3.9-8.7-8.7v-8.6l-7.5,4.3c-1.3,0.8-2.8,1.2-4.3,1.2c-3.1,0-6-1.7-7.5-4.3
			c-1.2-2-1.5-4.3-0.9-6.6c0.6-2.2,2-4.1,4-5.3l7.5-4.3l-7.4-4.3c-2-1.2-3.4-3-4-5.3c-0.6-2.2-0.3-4.6,0.9-6.6c1.2-2,3-3.4,5.3-4
			c2.2-0.6,4.6-0.3,6.6,0.9l7.4,4.3v-8.6c0-4.8,3.9-8.7,8.7-8.7c4.8,0,8.7,3.9,8.7,8.7v8.6l7.4-4.3c4.1-2.4,9.5-1,11.9,3.2
			c1.2,2,1.5,4.3,0.9,6.6c-0.6,2.2-2,4.1-4,5.3l-7.4,4.3l7.5,4.3l0,0c4.1,2.4,5.6,7.7,3.2,11.9c-1.5,2.7-4.4,4.3-7.5,4.3
			c-1.5,0-3-0.4-4.3-1.2l-7.4-4.3v8.6C353,177.7,349.1,181.6,344.3,181.6z M336.7,161.6c0.2,0,0.3,0,0.5,0.1
			c0.3,0.2,0.5,0.5,0.5,0.9v10.3c0,3.7,3,6.7,6.7,6.7c3.7,0,6.7-3,6.7-6.7v-10.3c0-0.4,0.2-0.7,0.5-0.9c0.3-0.2,0.7-0.2,1,0l9,5.2
			c1,0.6,2.2,0.9,3.3,0.9c2.4,0,4.6-1.3,5.8-3.3c1.8-3.2,0.7-7.3-2.4-9.1l-9-5.2c-0.3-0.2-0.5-0.5-0.5-0.9c0-0.4,0.2-0.7,0.5-0.9
			l8.9-5.2c3.2-1.8,4.3-5.9,2.4-9.1c-1.8-3.2-5.9-4.3-9.1-2.4l-8.9,5.2c-0.3,0.2-0.7,0.2-1,0c-0.3-0.2-0.5-0.5-0.5-0.9v-10.3
			c0-3.7-3-6.7-6.7-6.7c-3.7,0-6.7,3-6.7,6.7V136c0,0.4-0.2,0.7-0.5,0.9c-0.3,0.2-0.7,0.2-1,0l-8.9-5.2c-1.5-0.9-3.3-1.1-5.1-0.7
			c-1.8,0.4-3.2,1.6-4.1,3.1c-1.8,3.2-0.7,7.3,2.4,9.1l8.9,5.2c0.3,0.2,0.5,0.5,0.5,0.9c0,0.4-0.2,0.7-0.5,0.9l-9,5.2
			c-3.2,1.8-4.3,5.9-2.4,9.1c1.2,2.1,3.4,3.3,5.8,3.3c1.2,0,2.3-0.3,3.3-0.9l9-5.2C336.3,161.6,336.5,161.6,336.7,161.6z"/>
	</g>
</g>
</svg>
