<?xml version="1.0" encoding="utf-8"?>
<!-- Generator: Adobe Illustrator 27.5.0, SVG Export Plug-In . SVG Version: 6.00 Build 0)  -->
<svg xmlns="http://www.w3.org/2000/svg" xmlns:xlink="http://www.w3.org/1999/xlink" viewBox="0 0 500 500" width="595" height="842" preserveAspectRatio="xMidYMid meet" data-scaled="true">
<g id="BACKGROUND">
	<rect style="fill:#FFFFFF;" width="500" height="500"/>
</g>
<g id="OBJECTS">
	<g>
		<path style="fill:#B5B5B5;" d="M382.516,203.082c-21.883,0-42.457-8.522-57.931-23.996c-15.474-15.474-23.996-36.047-23.996-57.93
			c0-21.883,8.522-42.457,23.996-57.931c15.474-15.474,36.047-23.995,57.931-23.995c21.883,0,42.457,8.522,57.931,23.995
			c15.474,15.474,23.996,36.047,23.996,57.931c0,21.883-8.522,42.457-23.996,57.93C424.973,194.56,404.4,203.082,382.516,203.082z
			 M382.516,42.423c-21.03,0-40.802,8.19-55.673,23.06c-14.871,14.871-23.061,34.642-23.061,55.673
			c0,21.03,8.19,40.802,23.061,55.673c14.871,14.871,34.642,23.061,55.673,23.061c21.03,0,40.802-8.19,55.673-23.061
			c14.871-14.871,23.06-34.643,23.06-55.673c0-21.031-8.19-40.802-23.06-55.673C423.319,50.612,403.547,42.423,382.516,42.423z"/>
		<path style="fill:#B5B5B5;" d="M242.73,120.319c-2.913-11.934-10.042-22.619-19.783-30.072
			c-10.362-7.928-23.499-11.606-36.483-10.512c-7.057,0.595-13.927,2.536-20.218,5.768c-4.784-9.152-15.231-13.552-25.381-13.205
			c-12.654,0.433-22.923,8.396-29.844,18.538c-3.97,5.817-6.896,12.292-9.238,18.922c-6.332-2.057-13.809-1.019-18.733,3.69
			c-5.496,5.256-5.085,13.657,0.061,19.02c1.96,2.044,4.492,3.36,7.199,3.614c-3.757,6.991-3.173,15.487,0.253,22.701
			c4.349,9.159,13.246,14.83,22.709,17.674c5.189,1.559,10.591,2.334,15.993,2.692c-1.292,7.589,0.044,15.507,3.802,22.258
			c4.036,7.248,10.834,12.613,18.691,15.183c4.491,1.469,9.294,1.972,13.989,1.443c2.019-0.228,2.042-3.423,0-3.193
			c-9.576,1.08-19.397-2.403-25.956-9.521c-6.645-7.211-9.263-17.716-7.067-27.23c0.241-1.045-0.477-1.969-1.539-2.021
			c-9.422-0.461-19.175-2.145-27.286-7.236c-7.196-4.518-12.384-12.022-12.972-20.639c-0.309-4.531,0.727-9.151,3.548-12.785
			c0.93-1.197,0.121-3.09-1.553-2.668c-7.126,1.795-12.735-7.617-10.022-13.687c3.09-6.915,12.629-8.66,19.055-5.866
			c0.976,0.424,1.986,0.108,2.345-0.954c3.847-11.375,9.595-23.043,19.403-30.437c8.281-6.243,19.223-8.225,28.983-4.319
			c4.94,1.978,9.24,5.662,11.311,10.636c0.396,0.951,1.354,1.505,2.345,0.954c11.134-6.185,24.53-7.92,36.89-4.85
			c11.395,2.831,21.509,9.868,28.334,19.405c3.789,5.294,6.543,11.22,8.087,17.546C240.139,123.163,243.218,122.318,242.73,120.319z
			"/>
		<path style="fill:#B5B5B5;" d="M132.553,254.936c-0.788-5.361-1.678-10.892-4.669-15.534c-2.873-4.458-7.164-8.039-11.241-11.359
			c-4.357-3.547-9.004-5.765-14.707-5.826c-3.359-0.036-8.433,0.025-11.222,2.512c-2.434-5.353-8.868-7.942-14.463-5.661
			c-6.089,2.483-8.871,9.275-7.144,15.385c-4.614,0.005-9.16,1.176-12.883,4.02c-3.484,2.661-6.036,6.395-7.409,10.549
			c-3.129,9.467,0.688,19.978,7.6,26.753c3.739,3.665,8.291,6.335,13.159,8.195c-2.211,8.021-0.037,16.759,5.042,23.272
			c5.656,7.252,14.713,10.868,23.811,10.454c5.398-0.246,10.665-1.819,15.306-4.585c1.763-1.051,0.159-3.813-1.611-2.757
			c-9.18,5.473-21.58,5.857-30.413-0.585c-7.843-5.72-11.751-16.43-8.82-25.752c0.199-0.634,0.012-1.15-0.352-1.494
			c-0.093-0.528-0.426-1.018-1.063-1.244c-10.345-3.677-19.732-12.18-20.511-23.728c-0.341-5.057,1.168-10.17,4.515-14.025
			c3.875-4.464,9.29-6.144,15.091-5.848c0.829,0.042,1.322-0.453,1.481-1.066c0.558-0.305,0.895-0.906,0.582-1.691
			c-1.9-4.762-0.473-10.473,4.419-12.74c4.503-2.086,9.905,0.258,11.199,5.112c0.203,0.761,0.781,1.105,1.387,1.129
			c0.681,0.716,1.913,0.878,2.452-0.253c0.826-1.735,2.799-2.134,4.55-2.395c2.314-0.346,4.728-0.483,7.061-0.285
			c5.122,0.435,9.035,3.331,12.79,6.597c3.451,3.001,7.088,6.049,9.339,10.102c2.301,4.144,2.967,8.976,3.646,13.598
			C129.771,257.81,132.848,256.949,132.553,254.936z"/>
	</g>
	<g>
		<defs>
			<rect id="SVGID_1_" width="500" height="500"/>
		</defs>
		<clipPath id="SVGID_00000121250543477500316300000001026896497390461569_">
			<use xlink:href="#SVGID_1_"  style="overflow:visible;"/>
		</clipPath>
		<g style="clip-path:url(#SVGID_00000121250543477500316300000001026896497390461569_);">
			<path style="fill:#FFFFFF;" d="M225.254,466.627c1.635,1.066,3.785,1.586,6.142,1.586c3.115,0,6.591-0.908,9.718-2.66
				c1.264,0.141,2.463,0.211,3.593,0.211c5.411,0,9.326-1.499,12.109-3.38c5.615-0.765,10.473-3.734,13.682-8.314
				c0.822,0.143,2.027,0.294,3.454,0.294c3.024,0,7.033-0.686,10.461-3.561c5.362-0.76,10.16-3.809,13.219-8.435
				c0.866-1.309,1.57-2.716,2.115-4.201l56.182-17.321c0.197-0.061,0.381-0.159,0.54-0.29l15.655-12.807l12.065,3.317
				c0.592,0.162,1.223-0.028,1.626-0.489l12.172-13.941c0.136-0.156,0.24-0.336,0.307-0.531l1.659-4.828
				c5.742,5.989,12.123,11.697,20.187,14.225c8.71,2.731,18.046,1.554,26.844-0.085c3.089-0.576,9.82-1.039,7.924-5.913
				c-0.811-2.085-2.273-4.036-3.402-5.96c-1.259-2.146-2.475-4.326-3.813-6.424c-2.146-3.368-4.748-6.347-8.54-7.857
				c-2.148-0.856-4.446-1.291-6.699-1.778c-2.38-0.515-4.772-0.974-7.194-1.243c-5.063-0.562-9.973,0.12-14.643,2.155
				c-2.787,1.215-5.37,2.808-7.818,4.596l4.317-12.564h6.331c0.117,0,0.235-0.013,0.349-0.039l17.052-3.822
				c0.164-0.037,0.321-0.099,0.465-0.185l21.479-12.741c0.615-0.365,0.912-1.094,0.728-1.784l-2.548-9.555
				c-0.135-0.505-0.508-0.912-0.999-1.09c-0.491-0.178-1.038-0.104-1.465,0.197l-18.707,13.22l-11.901,3.368l-2.646-6.765
				l24.632-33.465c0.455-0.618,0.406-1.472-0.117-2.034l-8.101-8.705c-0.33-0.355-0.805-0.54-1.288-0.504
				c-0.484,0.036-0.924,0.29-1.198,0.691l-0.446,0.652c2.441-5.739,4.128-11.745,4.187-18.098c0.089-9.658-3.206-18.989-7.56-27.487
				c-2.536-4.95-5.475-9.678-8.539-14.314c-0.632-0.956-2.159-1.109-2.757,0c-4.95,9.189-8.706,19.494-9.71,29.934
				c-0.952,9.893,2.26,19.14,7.358,27.498c2.86,4.689,6.187,9.068,9.535,13.414l-41.689,60.959l-17.535-8.033
				c-0.576-0.264-1.254-0.162-1.727,0.259l-40.398,35.978l-27.838,2.12c-1.672-1.458-3.569-2.826-5.688-4.085
				c-3.938-2.341-7.557-3.692-9.174-4.236l-2.383-9.282c33.167-8.75,62.78-27.306,84.514-53.214
				c11.774-14.035,20.582-29.414,26.178-45.71c5.714-16.64,7.75-33.311,6.052-49.55c-6.337-60.599-18.824-121.022-20.362-128.342
				c0.981-1.395,1.057-2.684,0.921-3.568c-0.171-1.11-0.728-2.043-1.345-2.77c0.737-0.397,1.58-0.897,2.415-1.488
				c4.199-2.969,4.8-5.84,4.564-7.726c-0.413-3.303-2.651-5.18-4.709-6.221c4.451-2.685,11.927-7.869,12.606-12.737
				c0.242-1.738-0.343-3.334-1.692-4.616c-1.925-1.828-6.985-4.077-19.67-0.027l6.205-13.794l0.07-0.187
				c0.463-1.512-0.035-3.128-1.27-4.116c-1.235-0.988-2.92-1.121-4.294-0.337L340.769,72.87
				c-27.949-10.546-53.497-10.226-70.067-8.082c-15.681,2.029-26.257,5.929-29.137,7.08c-9.946-5.897-26.994-8.646-33.983-9.566
				c-1.163-0.153-2.266,0.373-2.878,1.374c-0.612,1.001-0.577,2.222,0.089,3.188l5.887,8.524c-3.202-0.251-6.092-0.297-8.506-0.129
				c-5.195,0.361-6.461,1.6-6.961,2.499c-3.021,5.438,4.011,12.409,8.582,16.155c-4.363,0.708-10.475,2.832-10.656,9.162
				c-0.114,3.976,2.198,7.437,6.686,10.007c0.79,0.453,1.579,0.839,2.322,1.164c-3.761,1.989-4.588,4.237-4.512,5.943
				c0.128,2.842,2.722,4.971,5.158,5.998l-2.5-0.642c-0.101,0.394-10.144,39.471-18.093,69.199
				c-3.247,2.03-19.45,12.715-35.395,33.117c-10.246,13.111-18.212,27.511-23.676,42.802c-6.758,18.911-9.686,39.235-8.703,60.419
				l-64.326,69.9l1.162,1.082c0.137,0.128,3.422,3.146,8.773,4.667c1.715,0.487,3.762,0.848,6.065,0.848
				c4.183,0,9.211-1.19,14.625-4.97c3.063,0.637,14.868,2.584,24.24-2.883c8.319-4.852,13.794-9.104,15.665-10.623
				c3.508,1.159,17.426,5.472,38.638,8.436c10.279,1.436,23.287,2.683,38.391,2.936l-1.298,18.856
				c-2.622,2.004-5.885,6.188-4.361,11.252l-25.382,0.597l-48.986-2.88c-0.113-0.007-0.227-0.001-0.34,0.016l-72.2,11.269
				c0.216-0.25,0.348-0.59,0.334-1.024c-0.182-5.348,1.687-10.531,1.802-15.882c0.109-5.079-0.727-10.198-2.308-15.02
				c-3.048-9.295-8.802-17.458-15.984-24.034c-4.035-3.694-8.494-6.908-13.186-9.712c-1.115-0.666-2.296,0.216-2.402,1.378
				c-0.943,10.316-1.851,21.017,1.057,31.117c2.775,9.636,9.158,17.221,16.813,23.447c3.758,3.057,7.692,6.084,10.15,10.311
				l-70.592,11.018c-0.871,0.136-1.467,0.952-1.331,1.824c0.123,0.788,0.802,1.35,1.575,1.35c0.082,0,0.165-0.006,0.248-0.019
				l6.599-1.03c-0.087,0.192-0.136,0.417-0.136,0.673v38.943c-1.941,0.678-3.882,1.356-5.823,2.034
				c-1.927,0.673-1.098,3.759,0.849,3.079c1.658-0.579,3.316-1.16,4.974-1.74v23.113c-1,0.586-2,1.173-3,1.759
				c-1.771,1.039-0.167,3.799,1.611,2.757c0.463-0.271,0.926-0.543,1.389-0.815v16.36c0,1.405,1.494,1.85,2.438,1.333
				c0.181-0.026,0.36-0.082,0.529-0.173l97.263-52.434l139.819-29.486C218.561,460.507,220.493,463.522,225.254,466.627z
				 M366.81,377.442l12.647,5.793c0.707,0.324,1.544,0.091,1.982-0.55l4.291-6.275c0.339,0.393,0.869,0.594,1.528,0.36
				c4.398-1.562,8.41-4.05,11.651-7.424c3.53-3.674,5.78-8.284,8.279-12.667c5.447-9.555,11.254-18.904,17.405-28.021
				c3.187-4.723,6.473-9.378,9.84-13.975l2.1,2.257l-24.369,33.108c-0.325,0.441-0.4,1.018-0.201,1.528l3.494,8.933
				c0.299,0.765,1.131,1.179,1.921,0.954l13.558-3.837c0.174-0.049,0.339-0.128,0.487-0.232l17.058-12.054l1.646,6.172
				l-20.221,11.995l-16.632,3.728h-7.294c-0.682,0-1.288,0.433-1.51,1.078l-2.63,7.654c-0.241,0.063-0.48,0.191-0.702,0.402
				c-8.201,7.811-18.858,12.146-29.617,15.155c-5.347,1.495-11.273,2.168-16.076,5.111c-5.002,3.065-8.948,7.872-12.777,12.232
				c-4.688,5.339-9.094,10.922-13.229,16.7c-0.032,0.044-0.059,0.088-0.085,0.132l-28.62,8.824c0.729-4.021,0.43-8.457-0.929-13.037
				c-0.033-0.112-0.074-0.222-0.11-0.333c5.532-0.325,11.056-0.828,16.549-1.567c5.059-0.681,9.51-2.085,13.576-5.25
				c4.011-3.123,7.464-6.989,11.043-10.582c3.998-4.015,7.996-8.029,11.993-12.043c4.516-4.535,9.032-9.07,13.548-13.605
				C366.611,377.895,366.741,377.67,366.81,377.442z M320.684,411.119c0.349-0.026,0.679-0.167,0.94-0.4l40.022-35.643l2.243,1.028
				c-7.54,7.572-15.08,15.143-22.62,22.714c-3.599,3.614-7.115,7.344-10.853,10.816c-3.68,3.418-7.574,5.633-12.552,6.501
				c-6.046,1.053-12.257,1.483-18.377,1.837c-0.378,0.022-0.687,0.15-0.926,0.342c-0.892-1.826-2.065-3.58-3.51-5.243
				L320.684,411.119z M209.621,431.818c0.158-0.183,0.265-0.377,0.33-0.573l7.859-1.261c1.079,0.429,4.391,1.863,7.466,4.373
				c-2.465,0.053-4.921,0.326-7.392,0.319c-1.628-0.005-3.224-0.167-4.798-0.595C212.616,433.953,208.755,432.82,209.621,431.818z
				 M-19.074,495.179c20.87-7.309,41.723-14.672,62.635-21.859c5.812-1.997,11.658-3.898,17.6-5.474
				c5.839-1.548,11.741-2.842,17.607-4.286c10.725-2.639,21.217-6.059,31.239-10.732c10.845-5.057,21.004-11.546,29.928-19.535
				c0.164-0.147,0.282-0.304,0.365-0.465l3.88,0.228c-2.844,2.658-5.549,6.388-5.017,10.241c0.654,4.742,5.845,6.067,9.9,6.177
				c5.447,0.147,10.901-1.406,16.165-2.624c4.967-1.148,9.919-2.414,14.72-4.142c5.305-1.909,10.399-4.373,14.939-7.738
				c0.508-0.377,0.701-0.905,0.679-1.417l10.831-1.738c-0.072,0.915,0.2,1.85,0.838,2.666c1.29,1.649,3.615,2.357,5.569,2.82
				c4.921,1.168,9.896-0.006,14.868,0.281c0.27,0.016,0.504-0.027,0.703-0.112c0.752,0.957,1.411,2.005,1.913,3.151
				c0.425,0.972,0.716,1.975,0.877,3.006c-35.721,5.165-71.443,10.33-107.165,15.495c-8.986,1.299-17.978,2.567-26.958,3.905
				c-8.506,1.267-17.019,2.72-25.244,5.285c-15.891,4.956-30.234,13.668-44.502,22.035c-15.456,9.063-30.911,18.126-46.367,27.189
				V495.179z M77.079,485.12c-0.149,0.032-0.294,0.084-0.428,0.157l-95.725,51.605v-15.643c13.985-8.201,27.97-16.402,41.956-24.603
				c14.424-8.458,28.77-17.626,44.521-23.455c16.325-6.041,34.017-7.592,51.134-10.067c17.876-2.585,35.753-5.169,53.629-7.754
				c19.694-2.847,39.387-5.695,59.081-8.542c-0.137,1.424-0.496,2.892-1.087,4.4l-11.737,4.094L77.079,485.12z"/>
			<g>
				<path style="fill:#222221;" d="M259.917,132.156c-3.272,0-6.343,0.853-9.009,2.344c1.696,0.629,3.214,1.994,4.025,3.901
					c2.16,5.075-1.767,11.66-7.682,10.182c-2.185-0.546-3.883-2.061-4.835-3.907c-0.639,1.874-0.991,3.882-0.991,5.972
					c0,10.213,8.279,18.493,18.493,18.493c10.213,0,18.492-8.28,18.492-18.493C278.41,140.435,270.13,132.156,259.917,132.156z
					 M262.377,150.805c-0.469,0.749-1.174,1.197-2.057,1.278c-1.126,0.103-2.081-0.768-2.385-1.808
					c-0.181-0.365-0.296-0.778-0.273-1.178c0.042-0.723,0.399-1.321,1.016-1.701c0.633-0.39,1.536-0.402,2.22-0.155
					c0.993,0.358,1.775,1.117,1.837,2.222C262.762,149.925,262.621,150.415,262.377,150.805z"/>
				<path style="fill:#222221;" d="M343.671,122.262c-3.038,0-5.808,1.804-7.898,4.766c1.066-0.096,2.153,0.239,3.019,1.131
					c1.689,1.739,2.313,4.802,2.187,7.151c-0.167,3.113-2.439,7.477-6.215,6.424c-1.3-0.362-2.221-1.051-2.866-1.932
					c-0.01,0.316-0.015,0.633-0.015,0.953c0,10.213,5.278,18.493,11.788,18.493c6.51,0,11.788-8.279,11.788-18.493
					C355.459,130.541,350.181,122.262,343.671,122.262z M347.704,142.612c-0.209,1.554-2.129,1.879-3.306,1.232
					c-0.21-0.116-0.396-0.266-0.554-0.439c-0.378-0.311-0.65-0.751-0.764-1.232c-0.145-0.611-0.085-1.247,0.233-1.793
					c0.472-0.81,1.429-0.984,2.286-0.869c0.715,0.096,1.396,0.465,1.75,1.121C347.667,141.222,347.793,141.949,347.704,142.612z"/>
				<path style="fill:#222221;" d="M331.84,121.089c6.225-5.596,13.853-9.314,22.068-10.879c2.016-0.384,1.162-3.462-0.849-3.079
					c-8.751,1.667-16.857,5.749-23.477,11.7C328.051,120.208,330.315,122.46,331.84,121.089z"/>
				<path style="fill:#222221;" d="M245.248,119.199c7.455,1.629,14.759,3.843,21.864,6.627c1.914,0.75,2.744-2.336,0.849-3.079
					c-7.105-2.784-14.409-4.998-21.864-6.627C244.094,115.682,243.239,118.759,245.248,119.199z"/>
				<path style="fill:#222221;" d="M234.227,107.338c-4.26-0.897-8.54-1.688-12.839-2.372c-2.01-0.32-2.876,2.756-0.849,3.079
					c4.299,0.684,8.579,1.475,12.839,2.372C235.383,110.839,236.24,107.762,234.227,107.338z"/>
				<path style="fill:#222221;" d="M391.565,244.02c-6.337-60.599-18.824-121.022-20.362-128.342
					c0.981-1.395,1.057-2.684,0.921-3.568c-0.171-1.11-0.728-2.043-1.345-2.77c0.737-0.397,1.58-0.897,2.415-1.488
					c4.199-2.969,4.8-5.84,4.564-7.726c-0.413-3.303-2.651-5.18-4.709-6.221c4.451-2.685,11.927-7.869,12.606-12.737
					c0.242-1.738-0.343-3.334-1.692-4.616c-1.925-1.828-6.985-4.077-19.67-0.027l6.205-13.794l0.07-0.187
					c0.463-1.512-0.035-3.128-1.27-4.116c-1.235-0.988-2.92-1.121-4.294-0.337L340.769,72.87
					c-27.949-10.546-53.497-10.226-70.067-8.082c-15.681,2.029-26.257,5.929-29.137,7.08c-9.946-5.897-26.994-8.646-33.983-9.566
					c-1.163-0.153-2.266,0.373-2.878,1.374c-0.612,1.001-0.577,2.222,0.089,3.188l5.887,8.524c-3.202-0.251-6.092-0.297-8.506-0.129
					c-5.195,0.361-6.461,1.6-6.961,2.499c-3.021,5.438,4.011,12.409,8.582,16.155c-4.363,0.708-10.475,2.832-10.656,9.162
					c-0.114,3.976,2.198,7.437,6.686,10.007c0.79,0.453,1.579,0.839,2.322,1.164c-3.761,1.989-4.588,4.237-4.512,5.943
					c0.128,2.842,2.722,4.971,5.158,5.998l-2.5-0.642c-0.101,0.394-10.144,39.471-18.093,69.199
					c-3.247,2.03-19.45,12.715-35.395,33.117c-10.246,13.111-18.212,27.511-23.676,42.802c-6.758,18.911-9.686,39.235-8.703,60.419
					l-64.326,69.9l1.162,1.082c0.137,0.128,3.422,3.146,8.773,4.667c1.715,0.487,3.762,0.848,6.065,0.848
					c4.183,0,9.211-1.19,14.625-4.97c3.063,0.637,14.868,2.584,24.24-2.883c8.319-4.852,13.794-9.104,15.665-10.623
					c3.508,1.159,17.426,5.472,38.638,8.436c10.279,1.436,23.287,2.683,38.391,2.936l-1.298,18.856
					c-3.017,2.306-6.887,7.498-3.33,13.596c0.332,0.57,0.981,0.876,1.632,0.772l23.145-3.715c1.78,0.708,9.63,4.14,12.475,10.639
					c1.411,3.223,1.368,6.784-0.125,10.595l-11.833,4.128c-0.721,0.251-1.162,0.978-1.054,1.733c0.07,0.49,0.889,4.923,7.982,9.549
					c1.635,1.066,3.785,1.586,6.142,1.586c3.115,0,6.591-0.908,9.718-2.66c1.264,0.141,2.463,0.211,3.593,0.211
					c5.411,0,9.326-1.499,12.109-3.38c5.615-0.765,10.473-3.734,13.682-8.314c0.822,0.143,2.027,0.294,3.454,0.294
					c3.024,0,7.033-0.686,10.461-3.561c5.362-0.76,10.16-3.809,13.219-8.435c3.725-5.632,4.496-13.049,2.172-20.883
					c-1.766-5.952-6.409-11.303-13.426-15.473c-3.938-2.341-7.557-3.692-9.174-4.236l-2.383-9.282
					c33.167-8.75,62.78-27.306,84.514-53.214c11.774-14.035,20.582-29.414,26.178-45.71
					C391.227,276.93,393.263,260.259,391.565,244.02z M381.764,78.866c0.604,0.574,0.829,1.147,0.729,1.859
					c-0.505,3.625-8.404,9.082-13.589,11.878c-0.251-0.218-0.602-0.341-1.053-0.299c-8.488,0.783-16.667,3.239-24.161,7.308
					c-1.806,0.981-0.196,3.738,1.612,2.757c6.753-3.667,14.158-5.987,21.798-6.793l1.83,0.274c0.052,0.008,5.179,0.821,5.66,4.671
					c0.393,3.145-5.271,6.144-7.285,6.946l-3.046,1.206l2.826,1.656c0.356,0.208,1.718,1.204,1.882,2.267
					c0.028,0.181,0.112,0.727-0.635,1.572c-0.494,0.255-2.488,0.134-4.095,0.035c-9.474-0.577-29.026-1.769-48.786,29.118
					c-0.24-0.142-0.484-0.27-0.736-0.378c0.093-0.127,0.173-0.272,0.233-0.44c1.831-5.082,4.837-9.587,8.764-13.288
					c1.498-1.412-0.763-3.667-2.258-2.258c-4.334,4.086-7.567,9.099-9.585,14.697c-0.054,0.151-0.083,0.294-0.095,0.43
					c-0.297-0.064-0.589-0.121-0.879-0.171l0.373-0.042c-0.007-0.064-0.682-6.457,1.231-14.836
					c2.549-11.161,8.234-20.374,16.899-27.382c9.996-8.085,21.848-14.986,32.516-18.934c4.914-1.819,9.381-2.925,12.918-3.2
					C378.121,77.263,380.581,77.741,381.764,78.866z M359.726,140.754c0,13.17-7.036,23.885-15.684,23.885
					c-8.648,0-15.684-10.715-15.684-23.885c0-3.696,0.545-7.241,1.621-10.538l-0.046-0.015c7.318-7.172,14.25-10.471,20.211-11.924
					l-0.22,0.353C355.879,122.344,359.726,131.028,359.726,140.754z M303.771,146.126c1.124-0.839,2.619-1.26,4.389-1.26
					c1.513,0,3.228,0.308,5.082,0.926c1.633,0.544,3.1,2.771,4.024,6.108c1.422,5.133,1.473,12.363,0.137,19.34
					c-1.304,6.814-3.838,13.026-7.232,17.811c-2.463-7.414-8.914-27.473-9.163-34.953
					C300.883,150.326,301.838,147.569,303.771,146.126z M207.765,65.547c7.294,0.99,23.776,3.758,32.808,9.456l0.714,0.45
					l0.774-0.336c0.112-0.049,11.36-4.873,29.052-7.163c16.35-2.116,41.636-2.415,69.249,8.176l0.733,0.281l25.507-15.557
					c0.321-0.175,0.578-0.035,0.703,0.065c0.118,0.095,0.297,0.296,0.231,0.617l-7.398,16.447
					c-10.805,4.101-22.696,11.061-32.742,19.187c-11.544,9.338-16.178,21.075-18.031,29.277c-1.698,7.513-1.45,13.408-1.314,15.214
					c-1.47,0.009-2.815,0.253-4.024,0.721c-3.029-10.463-8.052-20.039-14.949-28.488c-6.366-7.797-14.363-14.69-23.77-20.487
					c-20.73-12.775-42.027-16.542-50.222-17.569c-0.077-0.01-0.152-0.018-0.229-0.028L207.765,65.547z M200.826,120.046
					c-0.067-1.484,2.3-3.128,6.332-4.397l0.595-0.187c0.236,0.434,0.681,0.742,1.339,0.714c6.969-0.296,13.937,0.123,20.812,1.308
					c2.01,0.347,2.873-2.73,0.849-3.079c-7.159-1.235-14.402-1.73-21.661-1.422c-0.066,0.003-0.129,0.009-0.191,0.018l-1.863-0.43
					c-0.109-0.025-10.9-2.595-10.706-9.405c0.186-6.518,11.613-6.413,11.723-6.411l3.775,0.067
					c6.245,1.715,12.661,2.701,19.135,2.954c2.055,0.08,2.051-3.112,0-3.193c-6.518-0.255-12.934-1.297-19.203-3.096
					c-0.931-0.267-1.611,0.274-1.864,0.98l-0.909-0.625c-0.036-0.025-3.656-2.526-6.82-5.745c-2.141-2.179-5.514-6.194-4.196-8.728
					c0.477-0.392,3.307-1.323,10.661-0.919c6.969,0.383,15.275,1.834,23.388,4.085c10.874,3.018,26.823,8.966,41.051,20.168
					c13.788,10.855,23.125,24.382,27.786,40.232c-5.927-10.739-14.149-20.02-24.034-27.276c-1.658-1.217-3.252,1.552-1.611,2.757
					c9.524,6.991,17.383,16.054,23.048,26.413c0.392,0.717,1.065,0.894,1.67,0.733c-0.26,0.368-0.508,0.775-0.738,1.228
					c-2.239-1.774-7.356-5.627-14.282-9.603c-14.59-8.374-26.139-10.893-33.622-11.452l-0.236-0.68
					c-0.512,0.177-1.014,0.374-1.51,0.579c-10.008-0.462-18.432-0.73-25.214-0.945c-10.033-0.319-16.661-0.53-19.184-1.081
					C203.203,123.183,200.893,121.535,200.826,120.046z M283.802,150.648c0,13.17-10.715,23.885-23.885,23.885
					c-13.17,0-23.885-10.715-23.885-23.885c0-9.46,5.581-17.963,14.087-21.787c10.919,0.592,21.693,4.903,30.282,9.502
					C282.625,142.065,283.802,146.301,283.802,150.648z M261.532,457.669c3.24-4.779,4.458-11.359,3.103-17.456
					c-2.423-10.902-9.574-16.667-9.878-16.908c-0.69-0.546-1.691-0.43-2.239,0.259c-0.548,0.689-0.433,1.693,0.254,2.242
					c0.066,0.052,6.579,5.348,8.746,15.099c1.015,4.568,0.6,11.657-3.911,16.605c-2.94,3.226-7.18,4.934-12.4,5.044
					c4.182-3.953,6.197-9.397,5.604-15.459c-1.621-16.565-8.941-21.623-9.252-21.83c-0.729-0.486-1.707-0.29-2.2,0.435
					c-0.493,0.725-0.303,1.715,0.417,2.214c0.064,0.044,6.399,4.596,7.857,19.492c0.842,8.601-4.368,13.122-7.549,15.051
					c-4.542,2.755-10.169,3.398-13.087,1.495c-3.772-2.46-5.406-4.779-6.093-6.126l10.984-3.832c0.422-0.147,0.763-0.465,0.94-0.875
					c2.111-4.897,2.239-9.533,0.381-13.778c-3.752-8.57-14.255-12.351-14.7-12.508c-0.251-0.089-0.52-0.113-0.783-0.07
					l-22.411,3.597c-2.093-5.069,3.225-8.674,3.463-8.831c0.418-0.274,0.684-0.728,0.719-1.227l1.363-19.79
					c9.751,0.07,20.326-0.282,31.563-1.259c0.003,0.013,0.002,0.027,0.005,0.04c0.006,0.026,0.616,2.606,1.24,5.151
					c0.368,1.499,0.669,2.695,0.895,3.554c0.132,0.502,0.247,0.919,0.334,1.211c0.342,1.142,0.974,1.669,1.878,1.563
					c0.24-0.028,0.461-0.106,0.653-0.224c1.509-0.082,6.933,0.473,12.9,2.719c5.681,2.138,13.318,6.363,17.44,14.35
					c4.185,8.11,4.643,16.408,1.256,22.765C267.291,453.634,264.68,456.135,261.532,457.669z M249.209,397.37l1.174,5.487
					l-7.861,4.988c-1.989-0.339-3.647-0.479-4.782-0.479c-0.014,0-0.029,0-0.043,0c-0.467-1.765-1.304-5.182-2.067-8.405
					C240.061,398.532,244.59,398.006,249.209,397.37z M274.331,403.424c0.14,0.547,0.56,0.979,1.101,1.136
					c0.045,0.013,4.512,1.329,9.379,4.234c4.378,2.613,10.001,7.092,11.932,13.599c2.051,6.914,1.421,13.382-1.774,18.214
					c-1.833,2.771-4.408,4.864-7.364,6.06c1.957-3.811,2.951-9.043,2.481-14.014c-0.62-6.56-3.617-11.78-8.437-14.698
					c-0.754-0.457-1.736-0.215-2.192,0.539c-0.457,0.754-0.215,1.736,0.539,2.192c5.309,3.213,6.609,9.065,6.912,12.268
					c0.563,5.952-1.262,12.464-4.244,15.148c-3.421,3.079-7.861,3.217-10.417,2.974c3.44-7.174,2.859-16.197-1.643-24.922
					c-5.258-10.189-15.649-15.161-23.664-17.331l6.091-3.865c0.564-0.358,0.846-1.029,0.706-1.682l-1.36-6.356
					c2.577-0.38,5.181-0.795,7.81-1.246c3.887-0.667,7.735-1.468,11.539-2.396L274.331,403.424z M386.551,277.864
					c-1.039-4.51-2.8-9.162-5.242-13.773c-4-7.551-9.628-14.652-16.277-20.534c-13.565-12.002-29.628-17.685-45.232-16.002
					c-21.758,2.346-38.574,14.577-48.85,24.424c-6.738,6.456-11.557,12.654-14.362,16.624c0.428-8.725-1.109-15.801-2.747-20.678
					c-2.448-7.29-5.592-11.349-5.725-11.518c-0.544-0.693-1.544-0.814-2.238-0.272c-0.694,0.542-0.817,1.545-0.276,2.239
					c0.03,0.038,2.993,3.891,5.26,10.708c2.086,6.275,3.993,16.428,1.233,29.166c-1.515,6.993-14.046,23.112-65.14,60.193
					c-26.673,19.358-53.141,36.571-59.91,40.935c-1.828-5.332-6.045-21.556,5.786-32.072c0.057-0.051,0.109-0.106,0.157-0.163
					c8.188-6.374,16.499-12.587,24.93-18.637c0.183,3.407,1.306,6.851,3.012,9.915c0.999,1.796,3.758,0.187,2.757-1.611
					c-1.671-3.002-2.775-6.377-2.669-9.845c0.008-0.255,0.025-0.505,0.048-0.752c0.471-0.503,0.522-1.177,0.314-1.739
					c0.708-2.671,2.39-4.806,4.571-6.763c6.258-5.616,12.676-11.062,19.014-16.588c1.551-1.353-0.714-3.603-2.258-2.258
					c-3.628,3.164-7.257,6.327-10.885,9.491c-2.825,2.464-5.894,4.823-8.593,7.467c-1.99-2.715-4.056-5.71-4.617-9.087
					c-0.594-3.575,1.194-6.492,3.526-9.023c5.137-5.575,10.879-10.687,16.638-15.607c1.565-1.337-0.703-3.586-2.258-2.258
					c-3.333,2.848-6.596,5.776-9.774,8.796c-2.922,2.776-6.03,5.545-8.499,8.745c-1.923,2.493-3.047,5.33-2.913,8.426
					c-3.941,2.824-7.881,5.647-11.822,8.471c-3.344,2.396-6.834,4.693-9.877,7.479c-1.61-2.138-3.824-6.383-1.284-11.463
					c4.064-8.127,11.063-14.774,11.133-14.841c0.344-0.324,0.527-0.785,0.499-1.257c-0.007-0.121-0.658-12.274,4.31-26.793
					c2.904-8.487,7.135-16.117,12.575-22.678c6.794-8.194,15.516-14.748,25.925-19.479c0.803-0.365,1.158-1.311,0.793-2.114
					c-0.365-0.803-1.311-1.158-2.114-0.793c-10.878,4.944-20,11.811-27.112,20.409c-5.69,6.878-10.106,14.866-13.128,23.741
					c-4.488,13.182-4.544,24.224-4.465,27.153c-1.78,1.768-7.57,7.819-11.271,15.223c-3.21,6.42-0.609,12.207,1.973,15.34
					c-2.465,1.907-6.967,6.128-7.651,11.942c-0.61,5.187,2.416,8.585,5.167,10.337c-0.018,0.05-0.034,0.1-0.045,0.151
					c-5.414,5.761-7.915,13.491-7.252,22.517c0.545,7.41,3.001,13.034,3.105,13.269c0.188,0.426,0.553,0.748,0.998,0.882
					c0.151,0.046,0.307,0.068,0.462,0.068c0.301,0,0.599-0.085,0.858-0.25c0.305-0.195,30.869-19.714,61.712-42.098
					c41.682-30.249,64.02-51.146,66.396-62.109c0.279-1.289,0.512-2.553,0.705-3.791c0.212-0.132,0.399-0.309,0.534-0.539
					c0.058-0.098,5.922-9.977,16.704-20.309c9.918-9.504,26.12-21.305,46.984-23.555c14.701-1.585,29.89,3.82,42.774,15.219
					c12.822,11.344,21.252,27.172,21.531,40.388c-0.593,2.065-1.243,4.131-1.952,6.197c-5.468,15.924-14.083,30.962-25.604,44.695
					c-24.4,29.085-58.935,48.723-97.242,55.299c-41.925,7.197-77.428,4.986-99.828,1.865c-24.283-3.384-38.834-8.538-38.978-8.589
					l-0.873-0.313l-0.704,0.603c-0.059,0.05-5.975,5.083-15.904,10.875c-9.494,5.538-22.462,2.41-22.591,2.378l-0.725-0.181
					l-0.604,0.44c-11.815,8.622-21.416,3.48-24.752,1.108l62.995-68.454l-0.034-0.668c-1.054-20.974,1.793-41.085,8.461-59.775
					c5.336-14.957,13.119-29.049,23.133-41.886c17.081-21.896,34.975-32.68,35.153-32.787l0.558-0.332l0.168-0.627
					c7.825-29.242,17.772-67.923,18.247-69.774c0.378,0.134,0.746,0.24,1.095,0.317c2.81,0.614,9.192,0.817,19.764,1.153
					c5.564,0.177,12.233,0.389,19.974,0.715c-7,4.994-11.363,13.15-11.363,22.054c0,14.931,12.147,27.078,27.078,27.078
					c14.931,0,27.077-12.147,27.077-27.078c0-3.276-0.591-6.497-1.727-9.523c6.935,4.157,11.727,7.98,12.847,8.898
					c-0.234,1.203-0.35,2.586-0.297,4.182c0.323,9.684,9.872,37.509,10.279,38.688l0.908,2.635l1.814-2.116
					c9.924-11.578,12.671-31.005,9.525-42.364c-0.628-2.269-1.474-4.12-2.508-5.517c2.608-4.121,5.208-7.65,7.775-10.672
					c-0.295,1.918-0.443,3.887-0.443,5.895c0,7.122,1.895,13.84,5.337,18.914c3.57,5.264,8.379,8.164,13.54,8.164
					c5.161,0,9.97-2.899,13.54-8.164c3.441-5.074,5.336-11.792,5.336-18.914c0-9.584-3.495-18.334-9.079-23.178
					c4.081-0.559,7.562-0.348,10.205-0.187c1.722,0.105,3.131,0.189,4.262,0.04c2.265,10.897,14.008,68.835,20.082,126.922
					C389.541,255.361,388.92,266.582,386.551,277.864z M134.724,325.813c0.432-0.264,0.714-0.718,0.758-1.223
					c0.005-0.062,0.007-0.123,0.005-0.184c3.094-2.912,6.7-5.263,10.144-7.731c3.443-2.467,6.886-4.935,10.329-7.402
					c0.957,3.08,2.819,5.86,4.712,8.436c0.123,0.167,0.262,0.298,0.411,0.402c-1.538,1.919-2.467,4.059-2.9,6.292
					c-9.022,6.436-17.907,13.059-26.659,19.856c-1.61-0.814-5.083-3.126-4.541-7.73
					C127.729,330.186,134.656,325.855,134.724,325.813z"/>
				<path style="fill:#222221;" d="M290.992,274.32c1.268,1.725,3.197,5.25,5.719,4.964c2.556-0.29,3.676-3.834,4.59-5.785
					c1.363-2.909,2.541-5.899,3.547-8.95c0.645-1.956-2.437-2.794-3.079-0.849c-0.764,2.317-1.617,4.604-2.607,6.835
					c-0.483,1.087-0.992,2.163-1.526,3.225c-0.264,0.525-0.52,1.079-0.821,1.584c-0.045,0.075-0.449,0.546-0.407,0.72
					c-0.498-0.344-1.69-2.086-1.906-2.362c-0.71-0.906-1.38-1.844-2.019-2.801c-1.227-1.837-2.316-3.756-3.296-5.736
					c-0.911-1.841-3.666-0.226-2.757,1.612C287.736,269.417,289.247,271.945,290.992,274.32z"/>
				<path style="fill:#222221;" d="M317.939,272.357c1.268,1.725,3.197,5.25,5.719,4.964c2.556-0.29,3.676-3.834,4.59-5.785
					c1.363-2.909,2.541-5.899,3.547-8.95c0.645-1.956-2.437-2.794-3.079-0.849c-0.764,2.317-1.617,4.604-2.607,6.835
					c-0.483,1.087-0.992,2.163-1.526,3.225c-0.264,0.525-0.52,1.079-0.821,1.584c-0.045,0.075-0.449,0.546-0.407,0.72
					c-0.498-0.344-1.69-2.086-1.906-2.362c-0.71-0.906-1.38-1.844-2.019-2.801c-1.227-1.837-2.316-3.757-3.296-5.736
					c-0.911-1.841-3.666-0.226-2.757,1.611C314.684,267.453,316.194,269.982,317.939,272.357z"/>
				<path style="fill:#222221;" d="M342.05,269.415c1.219,1.725,3.074,5.25,5.5,4.964c2.457-0.29,3.535-3.834,4.413-5.785
					c1.31-2.909,2.444-5.899,3.411-8.95c0.62-1.956-2.344-2.794-2.961-0.849c-0.735,2.317-1.555,4.604-2.507,6.835
					c-0.464,1.087-0.954,2.163-1.468,3.225c-0.254,0.525-0.5,1.079-0.789,1.584c-0.043,0.075-0.432,0.546-0.391,0.72
					c-0.479-0.344-1.625-2.086-1.833-2.362c-0.683-0.906-1.327-1.844-1.942-2.801c-1.18-1.837-2.227-3.757-3.169-5.736
					c-0.876-1.841-3.526-0.226-2.651,1.612C338.919,264.511,340.372,267.04,342.05,269.415z"/>
				<path style="fill:#222221;" d="M303.283,291.86c-0.816-2.026-1.486-4.106-2.042-6.227c-0.517-1.973-3.421-0.881-2.906,1.088
					c0.741,2.828,1.696,5.584,2.901,8.23c0.875,1.923,2.039,5.732,4.475,5.904c2.468,0.175,4.189-3.106,5.417-4.858
					c1.831-2.613,3.503-5.339,5.023-8.155c0.975-1.806-1.781-3.183-2.75-1.387c-1.155,2.139-2.388,4.232-3.74,6.246
					c-0.659,0.981-1.341,1.946-2.045,2.894c-0.347,0.468-0.693,0.967-1.071,1.409c-0.056,0.066-0.526,0.456-0.519,0.634
					c-0.406-0.428-1.207-2.353-1.359-2.663C304.165,293.957,303.707,292.915,303.283,291.86z"/>
				<path style="fill:#222221;" d="M329.729,284.109c-0.517-1.973-3.421-0.881-2.905,1.088c0.741,2.828,1.696,5.584,2.9,8.23
					c0.875,1.923,2.039,5.732,4.475,5.904c2.468,0.174,4.189-3.106,5.417-4.858c1.831-2.613,3.503-5.339,5.023-8.155
					c0.975-1.806-1.78-3.183-2.75-1.387c-1.155,2.139-2.388,4.232-3.74,6.246c-0.659,0.981-1.341,1.946-2.045,2.894
					c-0.347,0.468-0.693,0.967-1.071,1.409c-0.056,0.066-0.526,0.456-0.519,0.634c-0.406-0.428-1.207-2.353-1.359-2.663
					c-0.501-1.017-0.959-2.06-1.384-3.115C330.955,288.311,330.285,286.23,329.729,284.109z"/>
				<path style="fill:#222221;" d="M322.292,313.526c-1.68,1.757-3.424,3.448-5.262,5.031c-0.896,0.772-1.809,1.521-2.739,2.249
					c-0.459,0.359-0.924,0.749-1.406,1.075c-0.072,0.048-0.628,0.3-0.668,0.474c-0.278-0.52-0.54-2.589-0.605-2.928
					c-0.214-1.114-0.379-2.24-0.509-3.37c-0.25-2.169-0.345-4.353-0.318-6.546c0.024-2.039-3.066-1.756-3.09,0.279
					c-0.035,2.924,0.155,5.833,0.616,8.704c0.334,2.086,0.447,6.068,2.751,6.879c2.334,0.822,4.862-1.885,6.51-3.249
					c2.458-2.034,4.793-4.219,7.005-6.532C325.994,314.109,323.703,312.051,322.292,313.526z"/>
			</g>
			<g>
				<path style="fill:#222221;" d="M454.91,399.503c-0.811-2.085-2.273-4.036-3.402-5.96c-1.259-2.146-2.475-4.326-3.813-6.424
					c-2.146-3.368-4.748-6.347-8.54-7.857c-2.148-0.856-4.446-1.291-6.699-1.778c-2.38-0.515-4.772-0.974-7.194-1.243
					c-5.063-0.562-9.973,0.12-14.643,2.155c-2.787,1.215-5.37,2.808-7.818,4.596l4.317-12.564h6.331
					c0.117,0,0.235-0.013,0.349-0.039l17.052-3.822c0.164-0.037,0.321-0.099,0.465-0.185l21.479-12.741
					c0.615-0.365,0.912-1.094,0.728-1.784l-2.548-9.555c-0.135-0.505-0.508-0.912-0.999-1.09c-0.491-0.178-1.038-0.104-1.465,0.197
					l-18.707,13.22l-11.901,3.368l-2.646-6.765l24.632-33.465c0.455-0.618,0.406-1.472-0.117-2.034l-8.101-8.705
					c-0.33-0.355-0.805-0.54-1.288-0.504c-0.484,0.036-0.924,0.29-1.198,0.691l-0.446,0.652c2.441-5.739,4.128-11.745,4.187-18.098
					c0.089-9.658-3.206-18.989-7.56-27.487c-2.536-4.95-5.475-9.678-8.539-14.314c-0.632-0.956-2.159-1.109-2.757,0
					c-4.95,9.189-8.706,19.494-9.71,29.934c-0.952,9.893,2.26,19.14,7.358,27.498c2.86,4.689,6.187,9.068,9.535,13.414
					l-41.689,60.959l-17.535-8.033c-0.576-0.264-1.254-0.162-1.727,0.259l-40.398,35.978l-28.501,2.171
					c-0.879,0.067-1.537,0.834-1.47,1.713c0.067,0.879,0.832,1.54,1.713,1.47l29.038-2.212c0.349-0.026,0.679-0.167,0.94-0.4
					l40.022-35.643l2.243,1.028c-7.54,7.572-15.08,15.143-22.62,22.714c-3.599,3.614-7.115,7.344-10.853,10.816
					c-3.68,3.418-7.574,5.633-12.552,6.501c-6.046,1.053-12.257,1.483-18.377,1.837c-2.042,0.118-2.056,3.312,0,3.193
					c5.601-0.324,11.195-0.831,16.756-1.58c5.059-0.681,9.51-2.085,13.576-5.25c4.011-3.123,7.464-6.989,11.043-10.582
					c3.998-4.015,7.996-8.029,11.993-12.043c4.516-4.535,9.032-9.07,13.548-13.605c0.208-0.209,0.338-0.434,0.407-0.662
					l12.647,5.793c0.707,0.324,1.544,0.091,1.982-0.55l4.291-6.275c0.339,0.393,0.869,0.594,1.528,0.36
					c4.398-1.562,8.41-4.05,11.651-7.424c3.53-3.674,5.78-8.284,8.279-12.667c5.447-9.555,11.254-18.904,17.405-28.021
					c3.187-4.723,6.473-9.378,9.84-13.975l2.1,2.257l-24.369,33.108c-0.325,0.441-0.4,1.018-0.201,1.528l3.494,8.933
					c0.299,0.765,1.131,1.179,1.921,0.954l13.558-3.837c0.174-0.049,0.339-0.128,0.487-0.232l17.058-12.054l1.646,6.172
					l-20.221,11.995l-16.632,3.728h-7.294c-0.682,0-1.288,0.433-1.51,1.078l-2.63,7.654c-0.241,0.063-0.48,0.191-0.702,0.402
					c-8.201,7.811-18.858,12.146-29.617,15.155c-5.347,1.495-11.273,2.168-16.076,5.111c-5.002,3.065-8.948,7.872-12.777,12.232
					c-4.688,5.339-9.094,10.922-13.229,16.7c-0.032,0.044-0.059,0.088-0.085,0.132l-31.316,9.655
					c-0.842,0.26-1.315,1.153-1.055,1.996c0.211,0.686,0.843,1.126,1.525,1.126c0.156,0,0.314-0.023,0.471-0.071l56.951-17.558
					c0.197-0.061,0.381-0.159,0.54-0.29l15.655-12.807l12.065,3.317c0.592,0.162,1.223-0.028,1.626-0.489l12.172-13.941
					c0.136-0.156,0.24-0.336,0.307-0.531l1.659-4.828c5.742,5.989,12.123,11.697,20.187,14.225
					c8.71,2.731,18.046,1.554,26.844-0.085C450.075,404.841,456.806,404.378,454.91,399.503z M409.677,294.158
					c-1.641-4.449-2.474-9.086-2.29-13.834c0.196-5.064,1.364-10.075,2.828-14.91c1.407-4.649,3.222-9.147,5.394-13.482
					c5.893,9.11,11.316,18.84,13.37,29.579c1.095,5.727,1.009,11.611-0.426,17.269c-1.111,4.378-2.886,8.521-4.92,12.537
					c-1.662-12.906-4.425-25.646-8.305-38.076c-0.61-1.955-3.693-1.121-3.079,0.849c3.937,12.613,6.75,25.556,8.367,38.667
					C416.28,306.981,412.175,300.932,409.677,294.158z M414.781,337.843c-2.833,4.478-5.585,9.008-8.253,13.586
					c-2.512,4.311-4.704,8.936-7.631,12.985c-2.752,3.808-6.568,6.787-10.872,8.639l42.668-62.389l1.536,1.65
					C426.12,320.619,420.293,329.13,414.781,337.843z M343.945,412.25c3.8-4.39,7.741-9.388,12.662-12.574
					c4.702-3.045,10.71-3.649,16.018-5.145c5.31-1.496,10.542-3.305,15.538-5.656c4.163-1.959,8.116-4.338,11.712-7.19l-1.757,5.113
					c-0.16,0.226-0.236,0.466-0.242,0.704l-0.007,0.02c-0.513-0.192-1.119-0.163-1.65,0.254c-4.393,3.447-9.447,6.053-14.808,7.615
					c-5.25,1.53-10.808,1.774-15.825,4.089c-8.802,4.063-14.364,12.755-19.31,20.69c-0.077,0.123-0.133,0.245-0.173,0.366
					l-11.687,3.603C337.446,420.06,340.619,416.092,343.945,412.25z M384.071,407.722l-11.894-3.27
					c-0.499-0.137-1.033-0.024-1.434,0.304l-16.052,13.132l-3.986,1.229c4.507-7.103,9.82-14.502,17.907-17.46
					c5.26-1.924,10.969-2.134,16.258-4.037c4.167-1.499,8.042-3.562,11.629-6.112l-1.122,3.264L384.071,407.722z M451.452,401.257
					c-0.638,0.385-1.781,0.395-2.484,0.534c-1.132,0.224-2.265,0.444-3.4,0.651c-7.7,1.41-15.82,2.393-23.491,0.299
					c-8.349-2.279-14.772-8.343-20.572-14.465c-0.044-0.046-0.089-0.089-0.134-0.128c0.13-0.108,0.261-0.215,0.392-0.323
					c11.676-0.46,23.345,1.772,33.986,6.623c1.856,0.846,3.48-1.905,1.611-2.757c-9.848-4.491-20.491-6.929-31.284-7.108
					c4.446-3.007,9.387-5.238,14.854-5.363c4.331-0.099,8.583,0.861,12.782,1.805c3.82,0.859,6.923,2.072,9.449,5.176
					c2.47,3.035,4.265,6.691,6.236,10.053c0.538,0.918,1.076,1.835,1.614,2.753C451.448,399.753,452.386,400.694,451.452,401.257z"
					/>
				<path style="fill:#222221;" d="M231.256,443.615c-35.753,5.169-71.506,10.339-107.259,15.508
					c-8.986,1.299-17.978,2.567-26.958,3.905c-8.506,1.267-17.019,2.72-25.244,5.285c-15.891,4.956-30.234,13.668-44.502,22.035
					c-15.456,9.063-30.911,18.126-46.367,27.189v-22.357c20.87-7.309,41.723-14.672,62.635-21.859
					c5.812-1.997,11.658-3.898,17.6-5.474c5.839-1.548,11.741-2.842,17.607-4.286c10.725-2.639,21.217-6.059,31.239-10.732
					c10.845-5.057,21.004-11.546,29.928-19.535c0.164-0.147,0.282-0.304,0.365-0.465l3.88,0.228
					c-2.844,2.658-5.549,6.388-5.017,10.241c0.654,4.742,5.845,6.067,9.9,6.177c5.447,0.147,10.901-1.406,16.165-2.624
					c4.967-1.148,9.919-2.414,14.72-4.142c5.305-1.909,10.399-4.373,14.939-7.738c0.608-0.45,0.768-1.117,0.646-1.714
					c0.303-0.298,0.49-0.714,0.479-1.172c-0.021-0.882-0.747-1.576-1.633-1.558l-27.755,0.653l-48.986-2.88
					c-0.113-0.007-0.227-0.001-0.34,0.016l-72.2,11.269c0.216-0.25,0.348-0.59,0.334-1.024c-0.182-5.348,1.687-10.531,1.802-15.882
					c0.109-5.079-0.727-10.198-2.308-15.02c-3.048-9.295-8.802-17.458-15.984-24.034c-4.035-3.694-8.494-6.908-13.186-9.712
					c-1.115-0.666-2.296,0.216-2.402,1.378c-0.943,10.316-1.851,21.017,1.057,31.117c2.775,9.636,9.158,17.221,16.813,23.447
					c3.758,3.057,7.692,6.084,10.15,10.311l-70.592,11.018c-0.871,0.136-1.467,0.952-1.331,1.824c0.123,0.788,0.802,1.35,1.575,1.35
					c0.082,0,0.165-0.006,0.248-0.019l6.599-1.03c-0.087,0.192-0.136,0.417-0.136,0.673v38.943
					c-1.941,0.678-3.882,1.356-5.823,2.034c-1.927,0.673-1.098,3.759,0.849,3.079c1.658-0.579,3.316-1.16,4.974-1.74v23.113
					c-1,0.586-2,1.173-3,1.759c-1.771,1.039-0.167,3.799,1.611,2.757c0.463-0.271,0.926-0.543,1.389-0.815v16.36
					c0,1.405,1.494,1.85,2.438,1.333c0.181-0.026,0.36-0.082,0.529-0.173l97.263-52.434l141.219-29.781
					c0.863-0.182,1.415-1.029,1.233-1.892c-0.182-0.862-1.028-1.414-1.891-1.233L77.079,485.12
					c-0.149,0.032-0.294,0.084-0.428,0.157l-95.725,51.605v-15.643c13.985-8.201,27.97-16.402,41.956-24.603
					c14.424-8.458,28.77-17.626,44.521-23.455c16.325-6.041,34.017-7.592,51.134-10.067c17.876-2.585,35.753-5.169,53.629-7.754
					c19.979-2.889,39.959-5.777,59.939-8.666C234.13,446.4,233.269,443.323,231.256,443.615z M157.531,436.448
					c0.021-0.116,0.411-1.083,0.254-1.093c0.989,0.068,1.497-0.64,1.531-1.406l7.183,0.422c0.044,0.003,0.088,0.004,0.131,0.002
					l3.61-0.085c-2.116,1.156-4.259,2.303-6.503,3.096c-1.412,0.499-2.985,0.918-4.495,0.744c-0.441-0.051-1.139-0.174-1.464-0.511
					C157.436,437.261,157.449,436.905,157.531,436.448z M148.063,433.913c0.232-0.184,0.381-0.389,0.465-0.6l6.635,0.39
					c-0.755,1.196-1.057,2.839-0.825,4.008c0.43,2.174,2.434,3.311,4.497,3.561c5.557,0.675,11.105-3.279,15.776-5.717
					c0.623-0.325,0.844-0.862,0.793-1.389l15.583-0.367c-8.478,5.521-18.406,8.117-28.209,10.339
					c-5.424,1.229-11.886,3.325-17.414,1.616C138.539,443.645,144.975,436.366,148.063,433.913z M23.581,398.249
					c6.727,11.194,12.324,23.015,16.71,35.308c-1.332-1.381-2.781-2.66-4.264-3.886c-3.588-2.966-7.205-5.826-10.292-9.336
					c-6.808-7.74-9.76-17.194-10.065-27.39c-0.149-4.988,0.196-9.971,0.63-14.939c15.06,9.66,27.638,24.898,27.747,43.574
					c0.019,3.292-0.641,6.512-1.172,9.739c-4.391-12.057-9.925-23.68-16.537-34.683C25.28,394.879,22.519,396.482,23.581,398.249z
					 M72.524,438.535c-13.756,12.58-32.977,18.199-51.364,14.65c-4.794-0.925-9.449-2.424-13.874-4.467L72.524,438.535z
					 M2.764,449.422c0.061,0.401,0.303,0.777,0.789,1.024c18.524,9.452,40.822,9.218,59.046-0.852
					c4.922-2.72,9.459-6.117,13.49-10.035c0.524-0.51,0.576-1.123,0.36-1.638l24.86-3.88c-2.76,3.189-5.992,5.948-9.44,8.366
					c-7.662,5.372-16.217,9.682-24.939,13.04c-17.712,6.818-37.076,9.551-55.896,6.536c-9.959-1.595-19.631-4.713-28.562-9.394
					L2.764,449.422z M-19.074,455.385c15.456,8.096,33.064,11.688,50.47,10.906c18.11-0.814,35.844-6.239,51.75-14.836
					c4.339-2.345,8.589-4.898,12.519-7.885c1.825-1.387,3.589-2.852,5.236-4.447c0.9-0.872,1.767-1.779,2.59-2.724
					c0.147-0.169,0.984-1.333,1.514-2.049c0.213,0.033,0.429,0.027,0.633-0.042c0.581-0.197,1.056-0.629,1.312-1.145l10.668-1.665
					l18.3,1.076c-15.649,13.398-34.825,21.935-54.668,27.071c-11.744,3.039-23.536,5.554-35.056,9.415
					c-11.562,3.875-23.043,8.004-34.556,12.024c-10.238,3.575-20.475,7.151-30.713,10.726V455.385z"/>
				<path style="fill:#222221;" d="M212.801,437.303c4.921,1.168,9.896-0.006,14.868,0.281c2.053,0.118,2.046-3.075,0-3.193
					c-3.271-0.189-6.516,0.295-9.785,0.285c-1.628-0.005-3.224-0.167-4.798-0.595c-0.47-0.128-4.331-1.261-3.465-2.263
					c1.337-1.548-0.911-3.816-2.258-2.258c-1.249,1.446-1.327,3.393-0.131,4.922C208.522,436.131,210.847,436.839,212.801,437.303z"
					/>
			</g>
		</g>
	</g>
</g>
</svg>
