<?xml version="1.0" encoding="utf-8"?>
<!-- Generator: Adobe Illustrator 27.5.0, SVG Export Plug-In . SVG Version: 6.00 Build 0)  -->
<svg version="1.1" id="Layer_1" xmlns="http://www.w3.org/2000/svg" xmlns:xlink="http://www.w3.org/1999/xlink" x="0px" y="0px"
	 viewBox="0 0 4000 4000" style="enable-background:new 0 0 4000 4000;" xml:space="preserve">
<rect style="fill:#FEFEFE;" width="4000" height="4000"/>
<path style="fill-rule:evenodd;clip-rule:evenodd;" d="M498.726,695.413c-94.936,14.954-132.506,45.761-145.447,119.281
	c-6.294,35.765-4.656,100.465,3.567,140.809c18.754,92.038,41.629,144.763,120.632,278.051
	c48.407,81.675,51.567,87.342,75.552,135.608c37.712,75.898,46.802,108.627,69.484,250.251
	c35.925,224.308,67.758,311.228,138.753,378.848c55.72,53.067,123.77,80.226,232.524,92.795
	c35.757,4.132,172.039,2.89,234.792-2.137l21.841-1.751l-25.481,9.13c-63.903,22.897-163.087,67.576-199.526,89.88
	c-39.929,24.44-64.253,42.317-93.644,68.825c-55.116,49.707-79.88,93.291-101.896,179.323c-7.928,30.992-19.548,69.458-25.82,85.479
	c-14.99,38.298-13.541,43.303,18.718,64.555c30.69,20.221,43.719,35.23,59.823,68.938c17.262,36.125,21.826,63.302,18.529,110.337
	c-1.496,21.36-2.723,42.619-2.723,47.239c0,14.958,10.258,21.488,43.424,27.64c58.545,10.859,104.517,48.644,126.1,103.64
	c13.618,34.706,11.164,99.93-4.943,131.421c-7.972,15.583-29.697,38.222-80.149,83.517c-21,18.856-43.293,41.36-49.532,50.012
	c-31.994,44.352-21.473,91.343,21.907,97.848c35.306,5.296,61.577-15.893,100.258-80.863c35.361-59.393,48.269-75.075,72.188-87.703
	c29.249-15.438,54.978-20.243,97.608-18.223c49.033,2.326,84.612,15.048,130.726,46.751c23.13,15.9,41.207,25.238,48.855,25.238
	c1.583,0,21.495-13.192,44.25-29.318c67.591-47.905,103.057-61.09,147.147-54.712c27.341,3.957,32.805,0.936,73.117-40.457
	c38.196-39.219,51.33-58.476,81.012-118.793c28.561-58.046,34.796-73.062,69.757-168.06c14.368-39.041,34.025-92.278,43.678-118.306
	c25.314-68.232,39.489-113.115,44.265-140.147c2.301-13.014,4.729-22.023,5.395-20.021c0.666,2.002,6.978,24.746,14.026,50.54
	c16.439,60.169,35.08,106.104,57.271,141.134c27.502,43.42,52.681,50.376,80.175,22.154c23.483-24.105,60.791-114.2,79.188-191.226
	c3.804-15.922,7.652-29.686,8.554-30.585c0.899-0.903,2.748,3.804,4.11,10.451c5.573,27.25,24.899,90.808,37.989,124.938
	c17.881,46.623,62.298,163.561,80.885,212.95c45.957,122.114,81.587,182.967,137.344,234.563
	c31.062,28.743,35.444,30.577,66.026,27.64c19.034-1.831,33.235-1.103,47.082,2.417c24.491,6.218,65.363,28.495,99.741,54.355
	c37.366,28.11,45.699,27.702,93.527-4.597c56.055-37.854,113.865-51.876,164.649-39.944
	c55.596,13.064,74.245,29.791,113.501,101.805c37.275,68.385,60.008,89.465,96.643,89.611c33.49,0.138,49.918-21.022,43.402-55.899
	c-5.205-27.869-12.984-38.185-74.423-98.714c-33.104-32.616-62.364-64.697-66.495-72.913
	c-15.238-30.297-20.072-55.483-17.971-93.644c1.715-31.12,3.644-39.285,14.863-62.906c22.7-47.803,61.224-77.325,111.124-85.158
	c36.872-5.788,37.134-6.319,34.469-69.029c-2.574-60.456,0.619-82.239,16.719-114.098c15.103-29.893,35.255-52.917,57.093-65.243
	c10.426-5.886,20.902-13.043,23.283-15.911c5.57-6.712,2.974-27.079-6.785-53.216c-4.222-11.313-11.059-39.98-15.194-63.703
	c-17.75-101.914-48.902-160.401-116.442-218.611c-61.668-53.154-135.389-92.115-257.427-136.048
	c-18.456-6.643-33.198-12.431-32.761-12.865c0.437-0.43,17.993,0.645,39.015,2.384c140.031,11.609,259.596-6.032,337.969-49.859
	c48.345-27.039,101.881-89.65,127.122-148.683c24.815-58.024,44.603-141.516,68.166-287.574
	c23.253-144.129,43.598-194.833,148.257-369.478c51.447-85.85,66.659-113.672,78.621-143.787
	c14.834-37.337,18.961-49.874,30.213-91.762c9.61-35.765,11.816-51.552,13.232-94.637c3.848-117.083-25.106-165.61-113.767-190.673
	c-26.449-7.477-138.32-6.57-184.972,1.5c-189.704,32.82-392.025,122.951-588.555,262.195
	c-150.485,106.621-314.923,271.328-431.187,431.893c-13.771,19.02-29.358,40.315-34.64,47.322
	c-15.03,19.952-58.898,87.084-71.355,109.205c-6.203,11.012-17.888,31.488-25.969,45.502c-8.081,14.015-28.121,51.661-44.53,83.659
	c-16.41,31.997-30.538,58.876-31.397,59.735c-0.859,0.859-4.881-1.441-8.94-5.115l-7.375-6.676l8.835-9.381
	c23.086-24.498,23.465-61.228,0.95-92.107c-6.101-8.361-6.571-11.401-2.978-19.282c5.854-12.846,5.344-31.327-1.114-40.548
	c-8.347-11.918-22.274-13.647-39.128-4.863c-8.038,4.19-15.125,7.102-15.755,6.472c-4.441-4.441,30.974-150.751,47.825-197.585
	c21.175-58.851,22.824-62.92,41.698-102.937c45.648-96.771,114.145-183.501,171.147-216.703c15.165-8.831,17.076-9.159,22.376-3.862
	c6.516,6.516,34.17,10.706,47.908,7.259c14.776-3.709,31.014-19.93,35.084-35.044c2.989-11.106,2.555-17.105-2.075-28.681
	c-10.091-25.216-42.594-32.208-75.651-16.279c-15.805,7.619-24.866,21.062-27.006,40.075c-1.303,11.539-3.99,17.214-9.515,20.083
	c-31.935,16.577-94.481,82.381-129.976,136.743c-38.612,59.131-77.055,145.411-103.428,232.109
	c-10.32,33.93-38.145,154.74-38.2,165.865c-0.007,1.132-6.975,1.733-15.482,1.332c-14.739-0.695-15.525-1.307-16.614-12.981
	c-1.9-20.385-18.791-101.237-28.091-134.454c-31.01-110.785-77.838-212.157-133.343-288.666
	c-24.349-33.559-67.671-78.074-97.99-100.687c-21.026-15.682-23.778-19.104-22.485-27.989c3.538-24.298-29.591-50.311-63.634-49.969
	c-15.9,0.16-20.891,1.929-29.988,10.648c-21.168,20.279-16.253,52.226,10.837,70.427c10.593,7.12,16.243,8.318,33.537,7.106
	c12.286-0.859,23.464-3.87,27.323-7.364c6.079-5.5,7.906-5.042,26.526,6.694c11.001,6.931,31.193,23.614,44.876,37.072
	c91.135,89.65,164.674,238.978,203.861,413.972c3.138,14.015,6.771,33.129,8.07,42.474l2.363,16.996l-14.754-1.98
	c-12.93-1.733-16.13-0.604-25.852,9.119c-11.929,11.929-13.298,18.816-7.204,36.293c3.36,9.636,2.632,13.072-5.318,25.114
	c-5.067,7.673-11.408,22.576-14.099,33.111l-4.885,19.162l-15.078-31.903c-8.296-17.542-23.574-46.642-33.952-64.661
	c-10.378-18.019-20.734-36.038-23.013-40.042c-2.275-4.004-6.705-11.375-9.847-16.381c-3.138-5.005-12.861-20.567-21.604-34.582
	c-100.574-161.205-276.151-357.517-419.767-469.343C1154.551,847.98,893.54,730.199,650.518,698.576
	C611.99,693.564,522.329,691.696,498.726,695.413 M677.094,741.996c53.769,8.128,148.403,32.081,208.91,52.87
	c139.579,47.959,251.438,105.026,397.18,202.641c68.505,45.881,87.67,60.059,150.365,111.248
	c33.748,27.556,132.018,125.481,158.111,157.562c11.401,14.015,32.296,39.405,46.438,56.423
	c34.542,41.564,81.216,103.785,107.862,143.787c57.213,85.894,129.059,218.269,156.83,288.95
	c5.205,13.257,10.884,25.954,12.62,28.219c3.007,3.924-7.12,26.755-11.896,26.806c-1.176,0.011-6.469-8.58-11.761-19.089
	c-15.485-30.756-38.946-72.48-50.245-89.366c-5.762-8.609-10.476-16.293-10.476-17.08c0-2.581-45.266-68.61-67.398-98.314
	c-18.204-24.433-58.873-74.736-96.719-119.634c-93.917-111.411-253.069-262.388-318.807-302.426
	c-9.679-5.894-29.678-20.498-44.443-32.452c-14.761-11.954-25.088-18.463-22.948-14.462c2.141,4,6.436,9.384,9.548,11.969
	c3.112,2.581,5.66,6.753,5.66,9.264s2.359,6.527,5.246,8.922c2.883,2.392,4.394,6.56,3.36,9.26
	c-2.111,5.5,4.729,20.407,8.795,19.166c1.442-0.441,9.992,2.231,19.002,5.937c14.164,5.828,15.398,7.135,9.1,9.683
	c-4.004,1.62-15.343,3.058-25.197,3.2c-68.92,0.983-133.919,31.524-152.123,71.475l-3.844,8.442l-35.615-17.873
	c-58.807-29.511-160-64.344-222.531-76.6c-68.967-13.516-85.592-15.099-174.059-16.57c-105.955-1.765-93.596,2.486-120.049-41.298
	c-12.45-20.603-14.797-26.897-10.917-29.293c8.569-5.3,65.072-9.071,127.326-8.507c50.202,0.455,83.116,3.498,141.967,13.123
	c9.839,1.609,7.389-6.323-2.799-9.057c-22.169-5.955-107.385-13.702-150.088-13.643c-44.283,0.058-97.742,4.164-116.813,8.973
	c-8.864,2.231-10.462,0.371-26.639-30.996c-9.465-18.354-16.687-33.865-16.053-34.469c0.637-0.608,15.9-2.898,33.919-5.089
	c91.605-11.157,244.762,6.45,301.709,34.684c25.682,12.733,47.18,16.832,64.216,12.245c17.513-4.718,34.775-18.827,37.807-30.909
	c1.256-5.013,3.757-9.111,5.551-9.111c1.795,0,31.32,14.128,65.611,31.393s63.368,30.37,64.617,29.121
	c1.249-1.249,1.54-3,0.648-3.891c-5.853-5.857-83.396-46.518-104.488-54.792c-25.023-9.818-25.736-10.455-28.139-25.063
	c-3.775-22.94-11.62-39.128-26.231-54.122c-7.317-7.506-12.26-13.651-10.99-13.651c3.254,0,56.299,19.744,73.79,27.465
	c38.499,16.992,84.634,40.395,111.673,56.648c16.428,9.872,31.389,17.447,33.246,16.828c6.323-2.108-50.147-37.286-96.254-59.961
	c-80.95-39.813-183.407-73.058-208.819-67.762c-25.842,5.384-45.517,22.318-45.517,39.172c0,7.084-6.312,7.197-34.582,0.622
	c-55.768-12.974-121.804-21.317-171.806-21.71l-51.68-0.404l-7.455-14.921c-15.776-31.586-14.331-51.239,4.63-62.961
	c41.494-25.645,206.624-0.739,327.667,49.426c28.659,11.874,35.368,8.34,7.848-4.135c-85.555-38.793-199.322-64.999-283.934-65.407
	c-50.879-0.244-64.187,3.342-76.222,20.523c-8.747,12.486-7.189,38.568,3.323,55.633c4.932,8.008,9.02,15.791,9.082,17.291
	c0.062,1.5-20.88,2.73-46.54,2.73c-25.66,0-56.375,1.664-68.253,3.699c-11.882,2.035-26.708,4.528-32.955,5.537l-11.354,1.835
	l-2.548-25.893c-1.405-14.24-1.405-36.62,0-49.732l2.552-23.84l36.114,2.366c19.861,1.299,41.96,4.809,49.106,7.794
	c15.82,6.611,24.142,6.956,22.132,0.925c-2.748-8.241-39.642-16.88-73.062-17.112c-31.568-0.218-32.055-0.357-29.565-8.412
	c14.703-47.555,44.661-68.039,118.084-80.739C535.455,731.902,640.107,736.401,677.094,741.996 M3490.954,750.937
	c35.943,5.93,62.265,17.975,80.823,36.984c15.5,15.875,32.022,41.676,32.022,50.009c0,1.791-16.789,4.186-37.312,5.315
	c-37.658,2.071-64.832,8.751-67.442,16.577c-1.944,5.835,4.223,5.337,20.236-1.638c8.106-3.531,28.273-6.632,50.3-7.735
	l36.766-1.838l2.366,11.831c3.393,16.963,2.818,73.736-0.808,79.451c-2.475,3.906-6.134,4.004-19.056,0.524
	c-8.995-2.424-43.897-4.536-79.782-4.831l-63.787-0.524l10.742-26.158c9.84-23.96,10.371-27.396,6.309-40.952
	c-6.782-22.638-22.897-29.354-70.427-29.351c-55.564,0.007-128.793,14.674-201.75,40.406
	c-34.924,12.318-72.218,29.981-75.909,35.954c-3.371,5.453,0.306,4.616,16.887-3.844c22.482-11.47,91.252-34.349,134.13-44.621
	c54.697-13.105,92.886-17.91,130.66-16.443c29.941,1.165,33.879,2.173,42.605,10.902c7.2,7.204,9.556,13.141,9.381,23.661
	c-0.269,16.333-9.77,45.237-16.213,49.332c-2.446,1.551-13.956,2.847-25.58,2.879l-21.135,0.055l9.643-8.292
	c7.019-6.035,9.745-11.994,10.025-21.899c0.59-20.724-9.326-26.93-39.805-24.924c-12.661,0.834-30.417,19.923-30.417,32.7
	c0,6.086,1.638,12.078,3.64,13.316c7.295,4.51,3.331,8.82-10.01,10.88c-42.299,6.534-95.959,17.993-110.985,23.701l-17.247,6.549
	l-3.713-13.785c-5.526-20.523-25.405-34.403-49.022-34.232c-54.089,0.386-203.25,65.531-285.885,124.855
	c-7.007,5.027-13.425,9.621-14.259,10.203c-0.833,0.579-0.67,1.904,0.368,2.938c1.74,1.74,37.578-18.328,47.679-26.701
	c2.439-2.02,30.876-17.527,63.197-34.454c58.578-30.687,108.903-52.746,112.383-49.266c1.008,1.008-2.224,6.21-7.186,11.565
	c-13.148,14.189-26.3,38.608-28.947,53.747c-2.21,12.631-4.208,14.171-46.485,35.838c-61.745,31.637-101.758,58.352-87.404,58.352
	c1.62,0,12.675-5.894,24.571-13.097c26.632-16.13,100.378-54.042,105.35-54.159c2.002-0.047,3.233,1.962,2.73,4.463
	c-0.499,2.504,5.642,11.103,13.651,19.111c13.629,13.629,15.908,14.561,35.601,14.561c15.9,0,28.484-3.138,51.487-12.839
	c16.745-7.062,36.354-14.364,43.573-16.228c7.219-1.86,26.231-6.749,42.248-10.859c68.221-17.509,171.602-26.628,210.22-18.543
	c11.514,2.41,20.931,5.77,20.931,7.466c0,1.7-5.73,15.041-12.73,29.653l-12.733,26.562l-77.361,0.4
	c-77.66,0.4-121.597,5.038-171.726,18.117c-19.646,5.125-22.66,5.104-33.981-0.269c-7.459-3.538-16.297-4.991-22.125-3.633
	c-15.809,3.688-29.722,9.949-29.722,13.374c0,1.762-3.567,3.2-7.928,3.2c-24.444,0-154.515,59.583-198.863,91.096
	c-14.63,10.396-25.718,19.784-24.641,20.862c1.078,1.077,15.504-6.298,32.059-16.388c48.826-29.762,111.361-59.844,171.263-82.392
	l23.523-8.853l-3.396,13.378c-6.614,26.053,9.57,43.784,35.517,38.917c17.822-3.345,37.989-28.288,37.989-46.987
	c0-8.241,2.319-9.577,26.002-14.961c54.417-12.377,103.629-17.648,167.583-17.942c35.394-0.16,65.556,0.903,67.023,2.37
	c1.467,1.467-7.109,18.645-19.06,38.175l-21.721,35.51l-63.503,2.417c-34.924,1.332-80.699,5.031-101.721,8.216
	c-89.082,13.512-195.878,48.702-286.617,94.437l-26.344,13.279l-21.972-21.634c-14.725-14.499-28.248-23.978-41-28.75
	c-22.988-8.594-84.772-18.823-113.723-18.823h-21.026l18.273-19.322c31.204-32.991,42.255-63.03,12.813-34.822
	c-9.508,9.111-44.29,39.354-77.292,67.205c-130.741,110.348-272.883,266.789-373.454,411.02
	c-33.038,47.381-94.015,148.37-109.347,181.099c-3.517,7.51-7.517,13.651-8.886,13.651c-1.372,0-4.448-6.982-6.84-15.518
	c-4.063-14.51-3.524-17.404,8.278-44.592c55.043-126.82,129.601-257.375,207.862-363.971
	c33.013-44.967,72.789-96.425,83.007-107.385c4.667-5.005,22.347-24.633,39.289-43.617
	c139.583-156.415,310.511-285.441,511.274-385.932c140.827-70.492,260.171-108.073,396.812-124.96
	C3424.185,747.26,3471.599,747.744,3490.954,750.937 M528.131,786.003c-12.861,2.788-25.146,6.975-27.301,9.304
	c-2.949,3.182-1.656,3.545,5.176,1.46c5.005-1.529,29.576-3.538,54.603-4.467c94.146-3.495,234.089,27.724,384.039,85.679
	c95.3,36.831,203.191,94.987,315.764,170.2c22.249,14.867,42.124,27.028,44.17,27.028c4.39,0,4.012-0.346-25.037-22.842
	c-56.321-43.617-103.174-73.801-176.549-113.734C976.583,869.832,852.154,824.556,715.316,797.56
	C620.511,778.86,574.241,776.003,528.131,786.003 M3403.589,797.254c-75.534,7.08-177.874,33.479-292.255,75.392
	c-47.042,17.236-155.669,73.306-218.877,112.977c-47.632,29.893-118.681,81.959-129.292,94.747
	c-5.285,6.37-11.168,7.623-11.168,2.377c0-1.857,2.457-5.835,5.46-8.838c8.132-8.136,6.607-11.787-1.762-4.212
	c-6.439,5.824-23.199,30.993-20.64,30.993c3.567,0,32.077-16.21,44.243-25.154c78.085-57.409,176.607-117.723,256.633-157.114
	c29.169-14.357,110.064-47.064,116.409-47.064c2.101,0,6.662-1.554,10.138-3.455c20.764-11.357,115.94-37.832,184.688-51.381
	c48.261-9.508,119.565-13.239,137.835-7.208c18.176,5.995,21.685,1.798,4.5-5.38C3475.388,798.037,3431.59,794.633,3403.589,797.254
	 M610.781,862.923c-6.68,1.755-12.438,22.649-8.831,32.048c1.154,3.007,7.473,8.744,14.047,12.755
	c20.836,12.701,51.028,8.001,55.192-8.594C677.633,873.461,645.043,853.925,610.781,862.923 M649.709,871.98
	c10.99,5.009,15.118,17.415,9.366,28.16c-9.053,16.916-51.145,4.095-51.145-15.58c0-4.459,1.966-10.072,4.368-12.475
	C617.869,866.516,637.591,866.458,649.709,871.98 M3395.399,896.151c2.505,3.145,4.55,7.739,4.55,10.203
	c0,7.728-17.742,25.984-27.676,28.474c-11.11,2.788-25.223-5.045-28.674-15.915C3336.377,896.154,3380.11,876.934,3395.399,896.151
	 M917.346,926.346c30.548,18.314,43.682,37.406,43.682,63.499c0,14.397-1.849,18.776-12.377,29.303
	c-11.317,11.317-14.24,12.377-34.17,12.377c-18.558,0-24.4-1.754-39.354-11.831c-29.802-20.076-42.317-52.065-30.603-78.231
	c3.429-7.652,10.156-15.798,14.954-18.103C874.163,916.31,903.099,917.802,917.346,926.346 M541.665,931.573
	c-14.459,7.528-17.517,11.022-19.661,22.442c-2.552,13.614,1.849,36.347,11.103,57.336c2.683,6.09,5.974,14.35,7.313,18.354
	c2.319,6.953,37.345,72.352,46.674,87.153c2.45,3.884,9.592,15.351,15.868,25.481c6.279,10.127,19.384,28.557,29.121,40.956
	c89.381,113.781,94.718,125.219,71.078,152.327c-5.802,6.651-7.331,10.95-4.798,13.483c10.364,10.364,29.657-15.744,29.678-40.162
	c0.022-23.672-13.724-47.872-55.931-98.474c-13.276-15.918-24.138-30.752-24.138-32.962c0-2.741,16.617-4.015,52.397-4.015
	c133.97,0,259.308,26.271,388.76,81.485c20.64,8.802,44.49,18.081,52.997,20.618l15.471,4.616v22.627
	c0,33.308,15.201,71.741,48.706,123.125c26.377,40.453,47.948,66.146,95.478,113.716c60.813,60.86,126.179,111.451,201.633,156.051
	c68.982,40.774,208.608,114.793,216.54,114.793c1.591,0,9.625,3.149,17.852,7c8.23,3.848,32.161,14.772,53.183,24.276
	c48.276,21.827,78.963,38.866,73.361,40.734c-2.384,0.797-34.833-12.65-72.105-29.879c-37.275-17.225-72.054-32.387-77.285-33.69
	c-5.235-1.303-11.154-4.255-13.156-6.567c-2.002-2.308-11.011-7.131-20.021-10.72c-9.01-3.586-31.124-13.56-49.142-22.165
	c-193.399-92.34-200.221-94.725-287.574-100.527c-65.094-4.324-240.601-2.191-320.336,3.891
	c-97.237,7.415-143.554,11.882-174.729,16.839c-47.373,7.539-49.143,7.339-49.143-5.544c0-5.933,3.531-19.446,7.848-30.031
	c12.566-30.807,10.728-63.241-5.853-103.37c-7.357-17.797-14.281-35.23-15.391-38.732c-1.882-5.952,4.03-6.367,90.324-6.323
	c149.593,0.073,247.969,11.015,374.462,41.644c31.258,7.568,40.016,11.27,50.737,21.452c7.127,6.764,28.827,24.804,48.225,40.082
	c37.428,29.489,41.349,33.442,36.278,36.577c-1.758,1.085-21.852,2.923-44.65,4.081c-50.005,2.541-65.115,4.63-65.115,8.999
	c0,3.218,42.426,2.355,104.655-2.126c21.917-1.576,30.031-3.505,30.031-7.138c0-2.737-11.874-14.466-26.391-26.064
	c-64.875-51.84-107.269-92.264-138.552-132.113c-33.799-43.052-70.154-110.003-91.5-168.5
	c-6.177-16.927-23.064-40.992-26.413-37.639c-0.914,0.914,1.34,6.192,5.002,11.732c6.658,10.069,30.53,74.282,27.618,74.282
	c-0.848,0-14.102-3.2-29.449-7.109c-101.707-25.903-220.042-37.112-314.53-29.791c-32.558,2.523-69.844,6.538-82.858,8.922
	c-21.637,3.968-23.756,5.169-24.786,14.055c-0.852,7.375,2.119,12.639,12.326,21.83c7.397,6.662,15.682,17.385,18.416,23.829
	c5.73,13.516,6.316,40.075,1.351,61.09c-4.31,18.241-1.827,26.712,8.602,29.329c6.294,1.58,12.537,12.031,27.523,46.085
	c23.978,54.482,27.414,79.247,14.823,106.879c-4.488,9.854-9.195,27.676-10.458,39.605c-2.024,19.133-3.364,21.983-11.394,24.207
	c-18.121,5.02,11.019,3.542,43.682-2.217c132.543-23.37,412.447-37.363,545.07-27.243c71.682,5.468,85.606,10.382,232.109,81.919
	c42.044,20.531,100.906,48.28,130.806,61.661c60.358,27.021,140.387,69.793,140.387,75.031c0,1.864-4.095,3.385-9.1,3.385
	c-11.896,0-11.805,6.458,0.113,7.95c5.067,0.633,9.574,2.788,10.01,4.791c1.238,5.646-36.027,9.406-69.276,6.989
	c-18.372-1.336-30.031-0.819-30.031,1.329c0,4.754,17.247,7.877,56.423,10.214c61.086,3.644,63.416,8.11,9.1,17.447
	c-61.406,10.56-163.917,20.607-232.971,22.835c-75.195,2.424-373.675-4.27-444.102-9.963
	c-47.421-3.833-110.006-16.293-147.427-29.354c-84.689-29.555-138.654-80.546-160.962-152.087
	c-5.941-19.06-13.072-34.163-18.507-39.197c-10.706-9.923-46.336-23.778-56.834-22.099c-5.733,0.917-2.246,3.99,14.251,12.551
	c29.7,15.416,36.209,23.501,47.366,58.829c21.237,67.241,69.797,116.355,144.825,146.463l21.099,8.467l-43.966,8.041
	c-48.007,8.776-89.21,20.29-109.296,30.537c-12.584,6.421-13.097,6.399-23.705-1.085c-38.67-27.272-69.145-61.086-61.202-67.904
	c1.671-1.434,17.782-7.39,35.801-13.232c31-10.051,42.404-16.381,34.447-19.122c-5.18-1.784-50.664,13.341-64.686,21.51
	c-6.621,3.855-13.454,7.011-15.187,7.011c-3.334,0-45.881-83.153-43.398-84.816c3.931-2.625,29.187-9.723,47.872-13.451
	c14.128-2.818,20.931-5.919,20.931-9.541c0-6.425-15.689-4.365-48.116,6.308c-11.452,3.771-21.554,6.854-22.449,6.854
	c-3.637,0-26.395-111.746-23.37-114.768c0.874-0.877,18.332-2.69,38.793-4.033c32.587-2.133,44.971-5.428,39.813-10.586
	c-0.823-0.823-20.068,0.135-42.768,2.126c-22.7,1.991-41.676,3.185-42.168,2.646c-0.491-0.535-3.211-17.353-6.046-37.374
	c-6.068-42.878-9.566-39.063,42.179-46.008c23.654-3.174,35.011-6.214,35.011-9.377c0-6.119-13.836-5.861-45.502,0.844
	c-42.98,9.104-39.882,11.488-47.402-36.478c-3.611-23.031-5.635-42.805-4.496-43.944c1.136-1.136,23.516-4.7,49.732-7.914
	c26.216-3.218,47.668-7.193,47.668-8.838c0-3.953-1.503-3.888-56.11,2.501c-25.827,3.021-47.217,5.071-47.526,4.55
	c-1.536-2.57-13.086-69.24-12.133-70.033c0.608-0.51,14.106-2.814,30.002-5.129c15.893-2.311,29.678-4.987,30.636-5.944
	c5.508-5.508-6.742-5.904-33.748-1.096l-30.672,5.46l-11.59-32.401c-6.374-17.819-11.008-32.853-10.298-33.413
	c0.71-0.557,16.035-3.054,34.054-5.548c39.165-5.42,60.063-10.418,60.063-14.364c0-3.313-33.042,0.633-72.283,8.638
	c-14.728,3.003-27.265,5.46-27.855,5.46c-0.593,0-2.778-4.885-4.86-10.859c-2.082-5.97-9.614-20.8-16.737-32.955
	c-7.124-12.155-12.952-24.247-12.952-26.872c0-2.85,6.228-5.631,15.471-6.909c35.04-4.845,53.693-10.374,53.693-15.922
	c0-3.593-2.053-4.758-5.835-3.309c-3.211,1.23-16.723,4.528-30.031,7.328c-13.309,2.799-28.332,6.148-33.388,7.44
	c-8.07,2.064-10.182,0.441-17.284-13.308c-4.448-8.613-16.905-30.403-27.68-48.422c-10.775-18.019-18.561-33.77-17.302-35
	c3.211-3.131,60.951-14.077,79.713-15.107c8.544-0.47,15.096-2.494,14.561-4.496c-1.838-6.869-74.238,1.11-98.026,10.808
	c-4.619,1.882-8.143-1.678-14.943-15.092c-4.892-9.657-14.131-27.167-20.527-38.91c-6.399-11.743-10.862-22.125-9.919-23.071
	c3.385-3.382,29.904-8.187,45.975-8.325c16.581-0.146,29.114-4.896,24.659-9.348c-2.432-2.432-56.441,3.287-70.161,7.43
	c-6.141,1.853-8.642-1.107-15.97-18.889c-13.804-33.504-25.893-67.256-25.893-72.294c0-5.518,9.92-7.674,50.053-10.866
	c16.945-1.347,30.031-4.048,30.031-6.196c0-2.559-10.422-2.934-31.852-1.147c-59.892,5.005-52.943,7.648-58.946-22.405
	c-2.887-14.463-4.339-27.207-3.225-28.321c4.572-4.572,48.149-10.051,99.483-12.511c30.031-1.438,56.241-2.818,58.243-3.065
	C557.151,922.862,551.082,926.67,541.665,931.573 M657.073,933.262c42.31,3.385,112.922,13.938,148.337,22.169
	c13.276,3.083,17.291,5.649,17.291,11.052c0,11.139,10.44,33.195,20.858,44.075c5.253,5.482,8.846,10.677,7.983,11.539
	c-0.863,0.863-22.613-2.315-48.331-7.062c-70.772-13.068-136.412-17.316-191.095-12.373c-25.15,2.272-49.456,5.551-54.013,7.28
	c-6.294,2.395-9.082,1.649-11.616-3.105c-6.418-12.042-11.55-37.002-9.381-45.637c2.948-11.743,25.438-23.81,51.479-27.618
	c11.641-1.704,21.983-3.258,22.984-3.455C612.572,929.928,633.048,931.34,657.073,933.262 M3164.488,941.114
	c11.609,6.185,16.425,13.935,19.02,30.618c5.868,37.731-32.132,77.995-73.608,77.995c-16.126,0-21.178-1.725-31.138-10.622
	c-10.688-9.548-11.889-12.639-11.889-30.585c0-16.581,1.933-22.638,11.423-35.79C3098.55,944.663,3141.536,928.894,3164.488,941.114
	 M3582.934,947.987c10.334,1.958,20.021,4.794,21.524,6.298c2.421,2.421-5.544,44.942-9.676,51.621
	c-0.885,1.434-11.095,0.652-22.686-1.736c-22.249-4.583-62.942-3.08-62.942,2.326c0,1.755,12.693,3.382,28.211,3.618
	c35.743,0.546,49.667,3.538,51.097,10.979c0.626,3.24-6.589,25.583-16.028,49.648l-17.163,43.762l-13.876-4.9
	c-19.198-6.771-57.722-10.866-57.722-6.134c0,4.594,8.729,8.139,20.039,8.139c14.219,0,45.484,8.296,45.484,12.067
	c0,1.948-8.19,17.149-18.201,33.781c-10.01,16.632-18.201,31.863-18.201,33.843c0,7.531-7.786,7.641-35.081,0.491
	c-29.562-7.743-74.125-9.989-74.125-3.739c0,2.002,8.016,3.64,17.812,3.64c19.071,0,73.171,9.919,77.816,14.266
	c3.039,2.847-50.74,94.939-55.444,94.939c-1.573,0-15.762-3.251-31.531-7.226c-32.514-8.19-41.414-8.962-41.414-3.582
	c0,4.747,3.327,5.781,34.676,10.764c38.043,6.05,37.64,5.187,19.377,41.411c-14.481,28.717-16.628,31.262-25.19,29.817
	c-67.365-11.361-100.513-14.113-94.084-7.815c0.834,0.819,20.356,4.186,43.38,7.484c59.888,8.58,55.826,6.105,46.885,28.557
	c-4.135,10.393-9.985,26.792-12.992,36.442c-4.317,13.851-6.738,17.04-11.492,15.143c-12.016-4.801-49.827-11.561-54.65-9.774
	c-7.885,2.916,1.34,6.283,31.338,11.434c14.513,2.494,26.359,5.613,26.315,6.935c-0.044,1.318-3.96,17.141-8.704,35.16
	c-7.051,26.774-9.865,32.696-15.394,32.405c-3.72-0.197-21.51-2.239-39.529-4.539c-40.293-5.147-52.783-5.278-52.783-0.564
	c0,2.002,6.145,3.669,13.651,3.706c13.632,0.066,80.783,9.432,82.916,11.565c0.622,0.619-1.951,15.867-5.715,33.879
	c-3.76,18.015-6.906,37.982-6.986,44.37c-0.182,14.823-3.753,16.832-18.867,10.604c-6.72-2.77-24.094-6.203-38.608-7.626
	c-22.049-2.166-26.391-1.704-26.391,2.799c0,3.902,5.784,5.955,20.931,7.422c19.384,1.878,55.6,8.594,57.602,10.68
	c1.07,1.114-8.871,64.73-11.055,70.78c-1.118,3.094-4.878,3.404-12.995,1.074c-17.735-5.085-72.684-8.747-72.684-4.841
	c0,1.871,17.517,5.362,38.921,7.754c21.408,2.391,40.042,5.591,41.411,7.106c3.477,3.855-23.61,108.536-27.785,107.396
	c-1.871-0.506-15.467-5.114-30.213-10.236c-14.747-5.122-29.354-8.336-32.463-7.146c-9.271,3.556-0.91,8.012,31.062,16.548
	c20.978,5.602,30.031,9.694,30.031,13.571c0,7.255-30.705,72.036-35.572,75.042c-2.061,1.274-15.788-3.287-30.501-10.138
	c-30.654-14.273-52.094-19.875-49.808-13.017c0.808,2.424,17.382,10.291,36.835,17.484c19.449,7.193,35.365,14.55,35.365,16.352
	c0,6.76-15.518,24.615-41.935,48.262l-27.294,24.426l-20.898-7.473c-41.367-14.79-95.289-26.224-123.733-26.235
	c-8.507,0-15.471-1.42-15.471-3.145c0-1.729,10.24-7.677,22.751-13.217c32.008-14.168,70.66-42.892,91.176-67.755
	c18.918-22.929,40.147-65.509,44.276-88.795c3.625-20.461,16.595-35.776,42.961-50.719c19.577-11.099,21.313-12.879,12.591-12.93
	c-5.562-0.029-19.948,4.911-31.972,10.979c-24.16,12.195-34.32,25.168-38.171,48.724c-1.336,8.176-9.118,27.971-17.294,43.988
	c-30.344,59.444-85.526,100.316-168.854,125.069c-79.021,23.476-172.26,30.177-430.542,30.938
	c-177.892,0.524-206.595-0.834-307.741-14.575c-47.275-6.421-56.423-8.394-56.423-12.176c0-1.551,11.059-3.939,24.571-5.307
	c35.692-3.615,88.274-13.421,88.274-16.468c0-1.438-20.21-1.838-44.913-0.888c-39.966,1.54-45.779,0.99-52.783-5.005
	c-4.328-3.709-7.87-7.779-7.87-9.053c0-2.224,23.479-16.454,85.773-51.985c16.141-9.206,40.712-21.477,54.603-27.272
	c30.268-12.628,120.869-53.685,130.049-58.934c12.631-7.222,63.07-32.154,98.03-48.451c60.525-28.222,81.707-34.418,132.757-38.841
	c48.429-4.201,246.156-5.657,285.965-2.111c12.518,1.117,45.695,3.829,73.724,6.032c51.789,4.07,113.366,11.292,152.887,17.932
	c12.013,2.02,26.755,3.513,32.762,3.316c10.56-0.342,10.469-0.477-2.73-3.982c-13.534-3.593-13.651-3.786-13.673-22.373
	c-0.015-10.313-2.184-22.889-4.823-27.949c-10.782-20.662-13.283-40.883-8.107-65.621c6.916-33.06,32.525-84.769,48.506-97.939
	l12.868-10.607l-4.19-20.858c-5.049-25.135-5.38-48.8-0.855-60.707c1.834-4.827,9.879-15.172,17.877-22.988
	c7.998-7.819,15.616-17.899,16.93-22.402c3.331-11.412-5.952-14.259-63.659-19.53c-56.499-5.162-125.546-0.571-203.814,13.549
	c-42.226,7.619-112.143,24.808-131.582,32.354c-4.903,1.9-3.797-4.146,6.072-33.242c6.64-19.563,14.659-37.465,17.826-39.78
	c3.167-2.315,5.759-6.363,5.759-8.995c0-11.94-18.659,14.331-27.611,38.874c-10.99,30.13-15.041,34.174-6.796,6.781
	c2.952-9.81,6.392-28.852,7.645-42.317l2.275-24.484l64.114-27.254c91.037-38.695,142.753-55.986,198.805-66.462
	c60.223-11.259,99.719-16.246,146.517-18.499c40.133-1.937,48.21-1.467,48.094,2.788c-0.073,2.814-14.808,23.133-32.74,45.156
	c-41.909,51.465-48.535,64.7-46.496,92.89c1.929,26.675,11.175,39.885,21.426,30.61c6.09-5.511,6.072-6.108-0.389-12.57
	c-3.728-3.727-7.833-12.391-9.119-19.249c-2.919-15.562,5.023-31.786,31.517-64.38c72.745-89.501,118.644-163.342,146.576-235.796
	c17.738-46.019,16.002-67.718-6.192-77.539C3454.173,939.378,3556.164,942.909,3582.934,947.987 M3415.125,947.816
	c46.325,6.702,56.747,17.659,47.566,50.009l-5.417,19.078l-15.012-2.697c-29.657-5.337-136.853-2.825-173.36,4.059
	c-34.272,6.461-79.644,17.531-91.915,22.42c-9.144,3.648-7.998,0.317,6.37-18.507c7.007-9.181,12.741-20.349,12.741-24.815
	c0-4.47,2.049-10.768,4.55-13.993c8.241-10.626,86.258-29.609,144.879-35.255C3388.974,943.932,3388.282,943.935,3415.125,947.816
	 M1303.115,1056.916c3.953,3.953,8.194,11.204,9.428,16.115c1.893,7.542,12.504,16.81,12.504,10.924
	c0-7.63-20.294-34.229-26.115-34.229C1297.279,1049.726,1299.161,1052.962,1303.115,1056.916 M1162.454,1058.044
	c-15.453,8.667-24.426,24.575-25.918,45.954c-1.896,27.152,12.304,55.429,35.805,71.297c13.916,9.399,19.555,10.939,40.031,10.931
	c27.076-0.011,39.558-6.075,50.952-24.76c18.732-30.723-1.391-78.977-41.214-98.82
	C1201.775,1052.511,1175.883,1050.516,1162.454,1058.044 M1212.201,1066.296c15.056,4.277,28.867,15.98,36.485,30.912
	c16.887,33.104,3.211,61.515-33.89,70.416c-44.337,10.637-85.406-51.88-57.832-88.031c6.811-8.929,31.644-19.446,40.675-17.225
	C1200.643,1063.104,1207.196,1064.873,1212.201,1066.296 M890.955,1088.21c-26.358,14.302,0.804,67.23,34.4,67.03
	c22.551-0.131,32.034-10.225,32.034-34.094c0-13.392-2.25-17.123-8.806-14.608c-2.61,1.005-3.826,5.995-2.934,12.075
	c3.294,22.423-13.589,32.307-36.984,21.645c-18.641-8.493-21.943-37.25-5.34-46.536c8.645-4.838,11.095-4.736,23.814,0.997
	c7.794,3.516,16.559,6.753,19.482,7.193c2.919,0.44,6.956,1.835,8.973,3.098c2.017,1.263,22.493,9.151,45.502,17.531
	c41.96,15.281,111.575,47.847,157.299,73.586c25.849,14.55,41.214,18.867,22.813,6.407c-30.497-20.647-43.092-27.971-78.213-45.469
	c-39.383-19.624-88.675-39.824-123.766-50.722c-11.011-3.418-27.614-10.185-36.893-15.034
	C923.222,1081.316,905.618,1080.256,890.955,1088.21 M2812.06,1087.315c-27.418,10.728-46.045,32.456-52.491,61.221
	c-14.306,63.834,53.343,92.217,103.931,43.606c18.59-17.862,26.825-35.281,26.825-56.75c0-18.933-3.764-28.161-17.506-42.892
	c-8.11-8.693-12.002-9.974-29.587-9.734C2832.092,1082.917,2818.066,1084.963,2812.06,1087.315 M1363.439,1096.768
	c-2.304,3.731,27.272,29.402,33.876,29.402c7.91,0,4.135-6.745-11.041-19.737
	C1370.276,1092.739,1366.832,1091.282,1363.439,1096.768 M2861.421,1099.779c9.002,7.564,17.982,27.4,17.982,39.722
	c0,26.861-34.516,59.473-62.942,59.473c-52.193,0-63.179-70.092-15.249-97.24
	C2819.526,1091.359,2850.216,1090.365,2861.421,1099.779 M2673.941,1124.419c-18.74,16.789-20.607,25.663-3.051,14.499
	c9.741-6.196,30.144-26.064,30.144-29.354C2701.034,1104.154,2689.491,1110.484,2673.941,1124.419 M3140.768,1112.337
	c11.758,11.758-0.08,40.253-19.369,46.62c-10.797,3.564-14.426,3.298-21.903-1.602c-13.56-8.886-10.782-32.383,5.282-44.72
	C3112.255,1106.895,3135.137,1106.706,3140.768,1112.337 M1330.547,1170.121l7.24,8.223l-11.718-6.782
	c-6.443-3.731-12.548-8.958-13.567-11.612C1309.889,1153.144,1321.224,1159.532,1330.547,1170.121 M1445.172,1163.14
	c0,5.457,36.824,39.423,42.772,39.452c8.827,0.044,4.328-6.851-16.381-25.106C1450.028,1158.502,1445.172,1155.863,1445.172,1163.14
	 M2585.459,1200.812c-15.107,15.314-19.246,23.643-11.75,23.643c5.799,0,36.322-29.449,36.322-35.044
	C2610.03,1180.656,2601.381,1184.668,2585.459,1200.812 M2732.438,1192.643c-3.404,12.708-2.719,14.863,3.178,9.97
	c6.072-5.038,7.186-13.065,2.235-16.126C2736.075,1185.392,2733.639,1188.162,2732.438,1192.643 M1377.159,1210.48
	c28.43,15.103,200.643,181.23,268.98,259.468c68.475,78.398,130.621,157.565,152.793,194.644
	c4.299,7.186,14.743,23.712,23.21,36.726c39.936,61.373,76.484,137.468,69.418,144.533c-5.151,5.151-35.15-13.96-71.959-45.848
	c-7.834-6.789-15.15-11.434-16.261-10.323c-3.615,3.611,5.198,15.842,18.998,26.366c7.422,5.664,19.1,15.74,25.951,22.395
	c6.854,6.654,15.18,13.618,18.503,15.478c3.32,1.86,4.98,4.445,3.68,5.741c-1.299,1.3-11.113-1.642-21.812-6.534
	c-19.002-8.689-38.076-17.211-115.914-51.781c-78.865-35.029-183.986-90.823-259.694-137.839
	c-113.752-70.641-243.055-204.159-287.705-297.082c-10.138-21.099-11.368-27.21-11.368-56.423c0-30.337,0.779-33.839,10.52-47.322
	c25.405-35.171,80.044-55.505,150.798-56.124C1354.634,1206.381,1372.624,1208.07,1377.159,1210.48 M806.365,1236.151
	c-13.443,7.794-19.821,18.871-19.945,34.651c-0.102,13.257,2.038,17.651,15.351,31.473c23.213,24.105,50.234,29.955,77.463,16.77
	c33.155-16.046,30.497-49.845-5.995-76.28c-13.057-9.457-18.39-11.015-37.432-10.921
	C823.594,1231.906,810.347,1233.843,806.365,1236.151 M2779.539,1235.605c43.103,7.724,60.322,15.136,80.153,34.498
	c22.616,22.081,28.437,41.16,22.948,75.235c-14.24,88.434-131.017,223.085-276.25,318.534
	c-62.473,41.057-175.974,102.26-262.093,141.319c-25.026,11.354-56.15,25.547-69.163,31.546s-31.848,14.157-41.855,18.132
	c-10.003,3.971-19.832,8.471-21.841,9.996c-2.006,1.525-6.924,3.942-10.928,5.376c-8.205,2.934,14.033-19.551,34.582-34.964
	c25.856-19.391,38.393-31.735,32.394-31.884c-3.207-0.084-25.321,14.466-49.142,32.332c-52.4,39.292-55.061,37.13-25.751-20.935
	c48.473-96.032,117.163-194.76,222.051-319.142c71.799-85.144,247.008-256.56,266.512-260.742
	C2699.043,1231.073,2756.522,1231.48,2779.539,1235.605 M865.972,1249.645c23.501,16.734,27.269,39.285,9.53,57.027
	c-10.171,10.171-28.073,11.612-46.845,3.768c-27.902-11.656-37.272-44.774-17.786-62.866c8.485-7.874,12.577-9.046,26.835-7.685
	C847.058,1240.785,859.613,1245.116,865.972,1249.645 M3164.218,1244.257c-21.284,9.606-37.075,24.167-41.225,38.011
	c-6.399,21.357-3.229,33.617,11.223,43.409c33.704,22.835,94.587-9.646,94.63-50.489
	C3228.875,1248.291,3193.158,1231.196,3164.218,1244.257 M1532.58,1247.206c0.066,7.04,35.19,40.133,40.628,38.28
	c3.123-1.063-2.242-8.9-15.191-22.183C1537.604,1242.357,1532.504,1239.132,1532.58,1247.206 M3207.445,1257.642
	c6.261,6.261,7.364,10.738,5.883,23.887c-2.209,19.577-12.42,31.491-34.09,39.769c-13.126,5.012-17.589,5.267-26.635,1.518
	c-5.974-2.475-12.752-6.771-15.056-9.548c-6.469-7.794-4.736-33.886,2.818-42.39
	C3159.381,1249.467,3192.695,1242.892,3207.445,1257.642 M2502.656,1284.693c-9.49,11.11-16.202,21.248-14.917,22.533
	c3.061,3.061,38.568-31.957,38.568-38.04C2526.306,1260.322,2519.874,1264.541,2502.656,1284.693 M1616.261,1332.375
	c0,4.11,25.82,34.047,29.365,34.047c6.574,0,3.262-7.411-9.766-21.83C1623.745,1331.185,1616.261,1326.518,1616.261,1332.375
	 M962.266,1355.705c47.832,3.618,111.026,13.8,175.311,28.248l29.121,6.541l16.414,30.738c20.96,39.237,51.126,82.912,75.501,109.3
	c10.509,11.383,19.111,21.528,19.111,22.554c0,1.023-9.417-1.059-20.931-4.63c-32.47-10.069-107.626-24.713-170.914-33.304
	c-47.326-6.425-80.215-8.038-185.784-9.108c-114.935-1.165-129.041-1.951-135.597-7.568c-8.336-7.135-9.086-16.093-3.2-38.269
	c6.501-24.513-1.209-54.388-19.034-73.728c-7.815-8.474-14.208-16.304-14.208-17.396c0-2.21,59.131-12.879,81.904-14.783
	C843.629,1351.49,915.301,1352.149,962.266,1355.705 M2426.485,1367.077c-12.861,15.023-15.799,21.186-10.109,21.186
	c4.769,0,33.431-31.604,30.93-34.105C2442.924,1349.779,2439.444,1351.938,2426.485,1367.077 M881.021,1363.204
	c-23.687,9.45-27.749,23.956-11.907,42.536c22.3,26.148,73.714,19.209,73.714-9.949c0-15.078-9.606-25.055-29.919-31.087
	C891.563,1358.363,892.986,1358.428,881.021,1363.204 M3267.083,1365.781l18.201,2.461l-14.029,12.741
	c-26.144,23.745-32.121,45.411-26.268,95.216c4.081,34.684,4.652,34.454-92.57,37.115c-91.736,2.512-134.206,6.374-211.13,19.202
	c-47.705,7.954-118.08,23.559-145.534,32.274c-11.205,3.553-8.977-2.22,9.938-25.794c24.415-30.428,48.403-67.817,64.511-100.549
	c12.999-26.41,14.823-28.408,30.621-33.544c51.338-16.694,145.88-35.026,224.293-43.496
	C3143.407,1359.429,3242.759,1362.494,3267.083,1365.781 M921.977,1377.608c14.859,12.246,17,21.077,7.2,29.682
	c-16.348,14.353-42.193,10.378-53.158-8.179C859.493,1371.132,894.34,1354.828,921.977,1377.608 M3112.175,1391.099
	c-11.55,9.887-14.36,14.739-14.36,24.804c0,10.207,2.177,13.836,11.831,19.722c6.509,3.968,15.107,7.182,19.111,7.146
	c13.971-0.127,37.643-13.705,43.442-24.921c7.35-14.215,7.182-19.672-0.914-29.667c-5.172-6.389-10.764-8.296-25.681-8.769
	C3128.767,1378.879,3124.853,1380.247,3112.175,1391.099 M2877.663,1407.356c-54.497,102.242-91.201,147.999-173.025,215.699
	c-16.938,14.015-36.555,31.215-43.591,38.222l-12.795,12.741l38.222,2.257c51.399,3.036,80.412,4.186,89.184,3.527
	c6.039-0.451,6.338-1.099,1.74-3.789c-3.047-1.787-27.207-4.423-53.693-5.864c-26.482-1.438-48.152-4.026-48.152-5.744
	c0-3.982,7.987-11.405,36.671-34.068c12.672-10.011,30.523-25.037,39.678-33.395c14.346-13.101,21.648-16.468,52.961-24.411
	c129.128-32.769,206.624-43.759,339.381-48.127l77.368-2.548l-12.788,27.68c-25.266,54.686-28.961,91.208-12.828,126.769
	c3.971,8.755,7.259,19.599,7.302,24.105c0.095,9.501-4.678,10.069-38.142,4.543c-66.772-11.03-185.169-18.172-302.135-18.23
	c-133.471-0.069-206.522,4.445-240.161,14.834c-23.65,7.306-86.556,35.659-140.242,63.215c-13.017,6.68-44.96,21.448-70.983,32.82
	c-62.546,27.323-125.2,56.743-136.503,64.093c-5.005,3.255-18.929,9.836-30.942,14.626c-12.012,4.787-26.755,11.598-32.762,15.129
	c-6.006,3.535-14.167,6.428-18.135,6.436c-16.45,0.033,25.347-21.725,158.282-82.388c42.022-19.176,97.047-46.667,111.026-55.469
	c8.008-5.042,31.76-17.983,52.782-28.757c21.022-10.775,58.698-33.056,83.724-49.51c25.026-16.457,49.958-32.714,55.403-36.129
	c36.125-22.653,120.712-103.771,165.872-159.072c23.053-28.233,62.658-91.216,62.658-99.65c0-1.918,1.085-2.406,2.41-1.081
	C2886.778,1387.142,2883.273,1396.836,2877.663,1407.356 M3162.406,1392.642c14.936,12.395-8.547,42.943-33.013,42.943
	c-11.798,0-24.298-10.054-24.298-19.548c0-9.119,16.013-26.064,27.301-28.888
	C3141.449,1384.885,3156.348,1387.611,3162.406,1392.642 M1975.911,1589.201c6.585,6.585,5.253,16.745-2.759,21.033
	c-5.77,3.087-7.888,2.392-11.121-3.651C1954.288,1592.117,1965.183,1578.473,1975.911,1589.201 M2096.168,1593.212
	c4.405,5.307,1.645,20.742-3.706,20.742c-6.934,0-17.538-7.67-17.538-12.686c0-4.638,9.202-12.402,15.027-12.686
	C2091.206,1588.524,2094.002,1590.606,2096.168,1593.212 M2065.677,1621.132c20.756,14.28,38.182,31.903,42.324,42.798
	c11.267,29.638-12.402,67.016-29.438,46.489c-6.76-8.147-18.201-6.931-18.201,1.933c0,4.07,2.457,8.34,5.46,9.49
	c8.591,3.298,6.443,7.542-6.002,11.882c-15.708,5.475-49.252,4.929-66.532-1.088c-13.924-4.845-14.088-5.1-6.37-9.92
	c10.251-6.403,10.495-17.757,0.382-17.757c-4.15,0-10,2.457-13.003,5.46c-7.71,7.71-11.332,6.909-23.421-5.18
	c-14.24-14.24-14.732-34.898-1.216-50.963c9.807-11.656,18.882-13.844,30.858-7.433c9.796,5.242,9.137-1.886-0.819-8.86
	c-6.647-4.656-7.124-6.392-3.094-11.248c2.621-3.16,6.567-5.103,8.769-4.321c2.202,0.783,8.099-1.387,13.105-4.82
	c14.066-9.65,18.823-10.855,35.681-9.046C2043.422,1609.538,2056.308,1614.686,2065.677,1621.132 M2070.373,1650.647
	c-11.175,6.509-7.226,11.114,7.28,8.493c16.628-3.007,18.653-4.547,11.725-8.926
	C2082.579,1645.911,2078.334,1646.01,2070.373,1650.647 M1956.618,1745.001c1.238,2.002-0.306,3.64-3.425,3.64
	s-5.675-1.638-5.675-3.64c0-2.002,1.54-3.64,3.425-3.64C1952.828,1741.36,1955.38,1742.999,1956.618,1745.001 M1999.474,1755.921
	c11.077,8.711,13.567,9.046,13.567,1.82c0-10.229,13.658-6.003,17.655,5.46c4.838,13.873,13.25,14.888,9.814,1.183
	c-2.046-8.147-1.598-9.031,2.737-5.435c4.026,3.342,8.161,3.058,18.514-1.267c11.929-4.984,13.552-4.987,15.456-0.026
	c1.168,3.051,5.635,5.675,9.927,5.832c4.292,0.156,5.755,1.114,3.251,2.122c-8.26,3.334-4.743,7.663,8.19,10.091
	c12.908,2.421,16.166,6.793,8.569,11.488c-2.599,1.605,0.484,5.056,8.19,9.162c11.689,6.228,11.867,6.6,3.262,6.858l-9.1,0.277
	l8.594,7.157l8.594,7.16h-11.324c-14.976,0-14.353,5.5,1.474,13.014c15.718,7.455,18.266,11.201,12.417,18.248
	c-3.727,4.492-3.134,6.443,3.349,10.982c7.834,5.486,23.803,34.007,20.753,37.057c-0.877,0.877-9.057-4.517-18.175-11.991
	c-9.119-7.47-16.581-11.845-16.581-9.719c0,2.122,1.631,4.87,3.625,6.101c4.798,2.967,27.793,52.954,30.931,67.241l2.468,11.237
	l-13.618-9.242c-14.906-10.116-18.714-9.883-13.003,0.797c10.291,19.224,19.053,52.779,18.015,69l-1.118,17.506l-6.225-10.921
	c-4.525-7.936-6.265-9.115-6.37-4.31c-0.08,3.633,1.263,9.366,2.981,12.741c1.722,3.371,4.211,11.863,5.533,18.871l2.403,12.741
	l-9.825-14.419c-10.87-15.951-15.868-12.417-6.92,4.892c6.265,12.107,7.572,31.589,2.337,34.826
	c-1.838,1.136-4.419-2.843-5.74-8.846c-3.491-15.908-10.837-18.998-8.005-3.367c1.234,6.818,3.207,15.671,4.383,19.675
	c1.179,4.019-0.335,10.542-3.382,14.561c-5.373,7.084-5.522,7.018-5.635-2.515c-0.066-5.387-2.002-10.961-4.31-12.387
	c-4.259-2.632-2.858,15.62,2.61,34.014c1.5,5.056,0.877,8.19-1.631,8.19c-2.239,0-4.197-2.869-4.354-6.37
	c-0.157-3.502-2.752,0.594-5.762,9.1c-6.141,17.349-9.996,19.344-14.058,7.281c-2.661-7.899-2.814-7.834-4.31,1.82
	c-2.151,13.909-8.333,12.57-8.398-1.82c-0.066-13.895-5.009-23.822-8.806-17.68c-1.369,2.217-1.401,5.792-0.069,7.947
	c1.329,2.151,1.31,12.799-0.047,23.661c-2.584,20.673-7.484,24.604-17.804,14.284c-7.586-7.586-9.621-6.862-9.621,3.426
	c0,11.543-6.072,15.22-9.144,5.537c-1.926-6.061-3.404-6.683-7.612-3.192c-4.124,3.425-6.734,2.967-12.435-2.192
	c-6.305-5.704-7.211-5.795-7.211-0.717c0,3.196-1.667,6.84-3.706,8.099c-5.682,3.513-17.979-27.207-15.616-39.023
	c2.432-12.162-0.044-12.646-12.864-2.519l-9.676,7.644l-1.853-19.475c-1.474-15.478-2.457-17.793-4.798-11.281
	c-1.616,4.503-4.466,8.19-6.334,8.19c-5.111,0-4.088-13.141,2.195-28.175l5.591-13.381l-9.231,8.671
	c-9.075,8.529-9.232,8.543-9.232,0.994c0-4.223,1.685-12.107,3.742-17.52c5.355-14.084,0.975-15.868-4.867-1.977l-4.874,11.594
	l-4.03-8.842c-2.399-5.267-3.323-20.41-2.282-37.436c1.729-28.302,1.685-28.466-3.982-16.126
	c-15.198,33.06-13.88-21.401,1.493-61.861c7.834-20.614,4.233-23.017-11.878-7.939l-10.698,10.01l2.468-16.214
	c1.358-8.915,5.675-21.397,9.588-27.731c3.917-6.334,7.12-13.527,7.12-15.988c0-2.457,3.666-9.617,8.15-15.911l8.147-11.445
	l-14.066,8.3c-7.739,4.565-15.078,7.291-16.312,6.061c-1.23-1.234,0.612-3.84,4.099-5.792c3.487-1.951,6.341-6.84,6.341-10.862
	c0-4.022-1.638-6.301-3.64-5.063c-5.672,3.506-4.357-0.804,4.74-15.543c4.612-7.466,7.888-16.035,7.288-19.038
	c-1.667-8.296,2.672-12.722,22.555-23.006l18.201-9.417l-13.651-0.167c-15.092-0.189-18.234-5.315-5.46-8.904
	c7.714-2.17,7.801-2.534,1.467-6.265c-6.112-3.6-5.442-4.75,7.28-12.57c7.703-4.736,17.593-8.66,21.979-8.722
	c4.386-0.062,8.988-1.751,10.225-3.753c1.238-2.002-0.306-3.64-3.426-3.64c-8.995,0-6.589-7.248,2.515-7.568
	c4.507-0.157,6.145-1.114,3.64-2.122c-2.501-1.012-4.55-3.338-4.55-5.173C1980.279,1746.326,1989.747,1748.273,1999.474,1755.921
	 M1053.853,1974.474c52.593,12.46,130.948,17.56,309.415,20.13c94.099,1.354,172.13,3.065,173.404,3.797
	c6.64,3.815,196.759-7.102,258.38-14.834c38.695-4.86,71.104-8.088,72.014-7.175c7.612,7.612-66.641,30.002-137.959,41.6
	c-25.026,4.07-70.423,8.453-100.88,9.738c-30.457,1.281-54.715,3.411-53.9,4.725c0.812,1.318-24.229,2.726-55.647,3.134
	c-67.656,0.877-168.202,6.028-266.436,13.651c-140.566,10.906-268.649,6.676-334.897-11.055
	c-22.664-6.064-76.367-28.149-76.415-31.422c-0.029-2.228,60.798-21.117,92.795-28.819c27.017-6.498,79.29-13.818,85.544-11.976
	C1022.275,1966.851,1037.836,1970.677,1053.853,1974.474 M3081.597,1981.823c20.108,3.873,47.832,10.844,61.607,15.493l25.044,8.445
	l-17.407,9.73c-58.076,32.459-174.063,46.929-315.739,39.394c-44.709-2.377-141.075-6.669-214.152-9.534
	c-151.381-5.937-181.248-7.666-254.813-14.735c-81.507-7.837-164.168-26.468-178.238-40.173c-6.989-6.807-7.12-6.811,58.006,1.805
	c90.32,11.951,175.391,16.144,272.828,13.443c49.212-1.365,146.914-3.99,217.115-5.835c130.322-3.422,179.854-8.096,229.156-21.626
	C2994.87,1970.033,3025.269,1970.968,3081.597,1981.823 M1860.153,2031.293c-16.916,7.586-129.445,42.488-182.009,56.448
	c-39.085,10.382-100.123,25.441-182.009,44.906c-145.848,34.661-212.332,50.791-254.813,61.817
	c-27.028,7.011-61.37,15.365-76.316,18.565c-14.947,3.196-34.221,8.205-42.834,11.128c-13.938,4.732-18.947,4.652-45.63-0.717
	c-16.483-3.316-32.427-6.811-35.43-7.768c-15.948-5.067,124.774-62.218,249.352-101.262c30.031-9.414,68.13-21.805,84.663-27.542
	c25.74-8.929,40.905-11.233,105.565-16.035c167.39-12.438,296.94-26.934,355.798-39.813
	C1867.208,2024.301,1875.533,2024.395,1860.153,2031.293 M2242.372,2045.137c45.848,7.874,167.969,19.395,271.193,25.583
	c127.224,7.63,134.305,8.46,171.089,20.047c18.019,5.675,49.961,15.551,70.983,21.947c103.993,31.626,181.875,59.277,229.12,81.344
	l19.813,9.253l-10.713,3.913c-5.89,2.155-14.805,5.508-19.81,7.455c-16.159,6.29-44.719,10.225-50.671,6.985
	c-3.163-1.722-35.237-9.843-71.275-18.044c-36.038-8.205-72.075-16.577-80.084-18.612c-28.714-7.295-186.512-43.482-229.331-52.593
	c-107.498-22.871-189.548-43.802-271.194-69.178c-21.022-6.534-48.05-14.561-60.063-17.837c-34.05-9.286-34.582-9.483-34.582-12.897
	c0-1.769,7.783-0.848,17.291,2.049C2203.647,2037.453,2225.354,2042.214,2242.372,2045.137 M1884.4,2056.454
	c1.321,3.44-1.948,10.043-8.303,16.767c-11.379,12.034-83.346,48.381-141.53,71.482c-48.251,19.155-189.952,65.232-222.051,72.203
	c-29.715,6.458-87.961,4.212-105.565-4.066c-10.211-4.805-46.674-13.228-80.084-18.499l-14.561-2.301l14.561-4.805
	c8.009-2.646,28.484-7.557,45.502-10.917s48.141-10.92,69.163-16.803c21.022-5.879,55.422-14.707,76.444-19.613
	c178.485-41.673,306.07-73.117,338.537-83.433C1877.957,2049.654,1881.79,2049.651,1884.4,2056.454 M2229.631,2070.05
	c44.13,13.014,70.401,19.442,189.29,46.329c36.038,8.15,75.352,17.145,87.364,19.988c12.012,2.847,39.86,9.333,61.883,14.415
	c22.023,5.085,52.328,12.424,67.343,16.312c38.207,9.894,72.083,17.746,89.185,20.673c13.716,2.344,12.031,3.094-29.122,12.933
	c-24.025,5.748-48.596,12.675-54.603,15.395c-21.208,9.61-85.93,13.159-109.205,5.988
	c-129.66-39.951-213.653-70.892-288.812-106.395c-38.364-18.121-77.521-44.344-68.745-46.037c6.636-1.274,8.849-7.954,2.639-7.954
	c-2.002,0-3.64-1.827-3.64-4.066c0-2.235,2.868-3.251,6.37-2.261C2183.081,2056.36,2205.606,2062.967,2229.631,2070.05
	 M1903.806,2118.814c0.018,2.384-1.525,5.296-3.425,6.469c-8.445,5.22-109.406,134.65-139.426,178.74
	c-24.345,35.758-90.371,115.259-119.591,144.002c-54.526,53.634-118.623,97.684-166.975,114.757
	c-33.522,11.834-82.712,11.998-105.769,0.35c-20.531-10.371-31.502-26.839-34.647-52.011c-3.352-26.843-0.531-38.903,17.95-76.717
	c23.326-47.719,58.811-91.678,111.451-138.061c56.412-49.703,75.385-59.906,172.366-92.701
	c91.15-30.818,168.948-63.547,218.953-92.108l21.841-12.471l13.621,7.706C1897.65,2111.01,1903.792,2116.43,1903.806,2118.814
	 M2164.352,2113.052c1.532,2.483,7.826,3.178,16.377,1.809c12.031-1.922,18.903,0.433,51.414,17.607
	c51.81,27.371,106.034,50.085,183.523,76.873c70.565,24.4,93.615,34.764,125.2,56.306c39.9,27.214,119.54,105.005,139.652,136.405
	c43.223,67.493,53.904,125.182,28.714,155.119c-14.444,17.164-34.604,24.896-65.148,24.99
	c-57.227,0.175-120.679-33.592-199.474-106.158c-23.541-21.681-110.742-125.375-133.074-158.246
	c-26.883-39.569-65.261-89.57-92.599-120.646c-39.951-45.411-67.569-80.015-67.569-84.66
	C2151.367,2107.679,2161.312,2108.138,2164.352,2113.052 M1770.969,2143.506c-8.009,4.932-16.625,9.021-19.151,9.082
	c-2.523,0.062-11.532,3.294-20.021,7.186c-8.485,3.888-40.635,15.46-71.438,25.714c-127.101,42.31-167.518,65.254-233.281,132.437
	c-26.217,26.781-36.984,32.463-16.77,8.849c7.164-8.369,13.025-16.559,13.025-18.201c0-3.859-8.216-3.808-18.874,0.124
	c-4.634,1.707-13.341,4.274-19.348,5.7c-10.385,2.464-10.564,2.319-3.64-2.992c4.004-3.072,9.395-5.639,11.976-5.701
	c2.584-0.065,9.137-3.127,14.561-6.803c5.428-3.68,24.466-16.25,42.31-27.935c17.844-11.685,38-26.122,44.789-32.085
	c11.885-10.433,47.872-23.093,192.14-67.594c18.019-5.555,38.004-12.832,44.41-16.166c6.41-3.334,13.807-6.061,16.439-6.061
	c2.632,0,10.495-3.182,17.473-7.073C1783.928,2131.751,1788.136,2132.931,1770.969,2143.506 M2290.713,2147.466
	c12.453,5.132,27.556,11.536,33.563,14.229c12.049,5.409,104.695,36.708,178.369,60.256c26.027,8.318,48.611,17.396,50.187,20.178
	c5.602,9.876,102.595,74.38,111.848,74.38c1.74,0,4.216,1.704,5.504,3.786c1.46,2.366-0.852,3.138-6.156,2.061
	c-38.003-7.721-39.154-6.287-16.818,20.949l15.34,18.707l-20.396-18.201c-11.219-10.01-19.81-20.247-19.093-22.751
	c0.713-2.501-0.244-4.55-2.133-4.55c-1.885,0-14.531-9.545-28.095-21.208c-55.04-47.33-87.248-64.431-186.22-98.885
	c-58.869-20.494-135.67-51.268-142.098-56.936C2260.664,2136.08,2269.935,2138.908,2290.713,2147.466 M1911.046,2163.8
	c-3.986,10.112-10.324,24.444-14.08,31.851c-33.959,66.928-108.703,286.195-144.191,422.993
	c-39.325,151.599-56.681,201.477-91.831,263.913c-28.412,50.468-47.897,76.506-53.249,71.147
	c-11.605-11.619,1.689-335.985,14.284-348.58c2.861-2.861,5.202-8.977,5.202-13.592c0-13.822,21.102-78.693,33.22-102.115
	c10.4-20.105,53.977-89.519,92.821-147.853c44.818-67.307,149.779-195.372,160.568-195.918
	C1916.973,2145.486,1916.168,2150.801,1911.046,2163.8 M2184.293,2184.523c20.534,21.51,45.815,49.765,56.183,62.793
	c41.72,52.44,126.322,178.106,162.985,242.101c15.704,27.407,39.121,95.828,39.121,114.298c0,4.208,2.239,7.648,4.972,7.648
	c12.013,0,26.726,263.036,18.194,325.287c-1.296,9.446-4.244,16.89-6.691,16.89c-5.46,0-42.728-60.631-62.647-101.925
	c-17.316-35.899-36.427-89.104-49.681-138.327c-5.122-19.02-17.582-65.25-27.691-102.729
	c-40.835-151.406-104.753-323.182-156.64-420.961c-12.071-22.755-21.95-42-21.95-42.772
	C2140.447,2140.786,2152.103,2150.808,2184.293,2184.523 M1925.363,2204.573c-11.9,39.088-24.939,108.765-30.556,163.291
	c-19.213,186.45-16.494,174.325-72.196,321.763c-9.075,24.025-27.087,72.349-40.02,107.385
	c-37.042,100.342-70.445,169.469-101.495,210.046c-15.198,19.861-60.249,61.486-63.274,58.465
	c-0.965-0.968-3.385-20.316-5.376-42.994c-1.988-22.678-4.63-42.153-5.868-43.282c-1.238-1.125-1.201,19.58,0.084,46.015
	l2.33,48.061l-17.294-1.962c-9.515-1.078-24.262-0.357-32.769,1.605l-15.471,3.564v-22.817c0-26.843-3.32-46.198-7.484-43.627
	c-1.624,1.005-2.024,16.195-0.888,33.755l2.071,31.931l-39.623,19.745c-21.79,10.862-40.847,20.352-42.35,21.091
	c-1.503,0.739-2.748-5.751-2.77-14.43c-0.022-8.675-1.078-22.041-2.341-29.704c-3.95-23.887-8.361-6.749-6.035,23.432l2.148,27.847
	l-19.57,13.177c-23.563,15.867-30.537,16.301-47.046,2.912c-26.249-21.288-53.663-36.9-79.068-45.032
	c-28.721-9.195-30.115-11.408-20.957-33.326c6.079-14.546,7.036-24.222,2.402-24.222c-2.734,0-6.847,10.866-13.44,35.492
	c-1.208,4.503-3.313,8.198-4.677,8.205c-92.628,0.564-128.335,6.701-158.639,27.269c-16.716,11.343-23.894,11.911-11.729,0.928
	c11.609-10.48,71.424-129.965,97.04-193.84c7.517-18.743,46.449-97.684,61.042-123.766c25.434-45.462,40.519-69.189,109.129-171.656
	c4.58-6.84,9.796-11.529,11.587-10.418c1.795,1.107,6.181-2.93,9.752-8.969c6.246-10.582,7.44-10.986,32.343-10.986
	c32.183,0,56.983-7.094,95.052-27.192l29.656-15.653l-6.578,22.333c-3.622,12.282-15.114,41.171-25.543,64.195
	c-45.411,100.262-93.647,236.026-121.891,343.087c-3.564,13.512-7.681,24.571-9.144,24.571c-1.46,0-11.911-4.237-23.221-9.413
	c-25.794-11.809-71.631-19.981-105.449-18.794c-29.595,1.034-43.839-6.006-47.883-23.665c-3.385-14.786-8.995-12.151-8.995,4.226
	c0,11.226,2.224,16.108,10.509,23.082c9.221,7.754,15.38,9.13,50.052,11.154c45.495,2.661,71.337,8.664,104.269,24.222
	c12.839,6.068,25.139,11.03,27.334,11.03c2.191,0,9.676,3.356,16.628,7.459c14.805,8.733,20.669,7.083,60.58-17.025
	c30.574-18.47,41.16-23.093,65.523-28.612c11.012-2.494,30.534-7.375,43.384-10.848c13.844-3.739,28.794-5.442,36.686-4.183
	c11.328,1.813,14.688,0.641,22.438-7.823c21.801-23.811,64.653-99.672,87.867-155.56c11.721-28.226,19.668-55.516,43.988-151.068
	c37.41-146.998,48.247-183.698,79.236-268.299c28.219-77.048,85.621-204.924,91.987-204.924
	C1931.639,2181.822,1929.171,2192.062,1925.363,2204.573 M2136.807,2189.39c0,1.922,3.866,9.621,8.591,17.105
	c11.736,18.594,50.413,93.775,57.919,112.587c3.36,8.427,9.283,22.351,13.156,30.941c13.17,29.22,26.883,66.466,47.959,130.293
	c21.612,65.439,28.641,90.291,56.623,200.21c8.918,35.037,20.429,77.161,25.58,93.611c12.387,39.572,51.031,118.419,78.085,159.313
	l21.721,32.831l19.202,0.67c10.56,0.367,33.854,4.128,51.763,8.354c17.91,4.23,36.577,8.547,41.487,9.595
	c4.911,1.052,26.358,11.623,47.661,23.497c39.325,21.914,58.894,26.919,63.037,16.126c1.15-3.003,6.148-5.46,11.099-5.46
	c4.954,0,14.579-3.287,21.386-7.302c28.808-16.996,70.354-27.327,123.045-30.592c33.606-2.082,43.566-11.143,43.103-39.219
	l-0.255-15.711l-6.687,15.026c-9.85,22.14-18.721,26.825-50.944,26.898c-41.742,0.098-82.359,10.786-120.679,31.757
	c-1.252,0.688-3.152-2.508-4.219-7.095c-23.348-100.382-72.043-237.671-125.998-355.249c-12.22-26.628-22.216-50.053-22.216-52.055
	s-2.501-8.474-5.555-14.382c-6.694-12.945-3.848-13.45,12.901-2.293c30.716,20.461,78.719,33.242,115.015,30.628l23.512-1.696
	l9.505,16.803c5.227,9.242,26.264,42.193,46.747,73.226c32.638,49.445,45.517,70.725,77.092,127.406
	c17.211,30.891,67.3,131.96,79.378,160.168c7.284,17.018,24.644,52.866,38.575,79.665c13.927,26.795,24.608,49.437,23.734,50.314
	c-0.877,0.874-7.892-2.311-15.591-7.084c-17.127-10.618-31.298-16.024-50.38-19.209c-17.506-2.923-75.432-2.614-87.703,0.466
	c-6.341,1.591-8.777,0.692-8.777-3.236c0-9.224-11.845-42.674-15.114-42.674c-4.78,0-3.709,7.459,3.982,27.694l7.069,18.591
	l-27.873,10.531c-15.329,5.788-39.878,19.111-54.559,29.602c-43.012,30.738-41.487,30.603-73.674,6.527l-12.741-9.53l1.245-31.695
	c1.438-36.7-4.983-38.2-7.448-1.744c-0.841,12.471-2.25,23.366-3.123,24.214c-0.877,0.848-19.202-6.876-40.726-17.16l-39.132-18.703
	v-33.937c0-21.699-1.314-33.129-3.64-31.691c-2.002,1.238-3.64,15.751-3.64,32.256v30.006l-33.672-1.081
	c-32.562-1.045-33.635-1.351-32.602-9.29c3.313-25.459,6.061-79.192,4.048-79.192c-2.479,0-4.995,16.923-9.108,61.297l-2.475,26.719
	l-29.045-28.539c-55.728-54.748-90.895-122.044-153.79-294.268c-9.505-26.027-27.822-74.056-40.705-106.73
	c-30.588-77.587-41.458-129.59-59.484-284.589c-7.324-62.997-20.593-124.622-32.751-152.101c-8.23-18.612-8.576-20.269-3.556-17.167
	C2135.168,2184.88,2136.807,2187.464,2136.807,2189.39 M2861.202,2214.995c37.039,7.764,72.381,14.128,78.541,14.135
	c6.156,0.007,22.915-4.081,37.243-9.086c14.324-5.005,28.503-9.1,31.502-9.1c6.825,0,75.05,51.199,72.887,54.697
	c-0.87,1.409-11.452,4.507-23.515,6.876c-12.06,2.374-21.928,5.872-21.928,7.772c0,4.448,1.252,4.361,27.301-1.929
	c12.013-2.901,23.705-5.333,25.98-5.402c5.122-0.16,40.075,43.056,53.234,65.825l9.719,16.814l-16.763,2.297
	c-9.22,1.263-26.362,2.297-38.098,2.297c-11.794,0-21.332,1.627-21.332,3.64c0,4.467,43.879,4.689,62.684,0.321
	c9.235-2.144,14.612-1.827,16.901,0.997c4.547,5.613,21.714,60.824,24.677,79.367l2.392,14.95l-20.563-1.703
	c-11.314-0.939-20.567-0.517-20.567,0.935c0,4.346,10.542,7.058,27.432,7.058c15.544,0,15.977,0.324,18.314,13.651
	c5.1,29.067,12.657,63.747,14.568,66.838c1.099,1.78,0.317,3.236-1.743,3.236c-2.057,0-2.796,2.457-1.646,5.46
	c1.238,3.221,0.044,5.46-2.908,5.46c-6.126,0-41.4,34.225-49.619,48.141c-3.283,5.555-7.226,10.102-8.769,10.102
	c-1.54,0-11.132-5.125-21.313-11.39c-12.959-7.976-19.66-10.243-22.343-7.56c-2.683,2.683,2.81,7.186,18.307,15.008l22.139,11.175
	l-10.651,25.023c-5.857,13.764-11.729,31.793-13.054,40.067c-1.42,8.871-4.386,15.041-7.24,15.041
	c-2.657,0-13.17-4.914-23.355-10.921c-20.276-11.954-21.841-12.5-21.841-7.593c0,4.368,34.913,25.794,42.03,25.794
	c4.685,0,5.362,6.716,4.496,44.498l-1.023,44.498l-16.381,2.781c-22.263,3.782-57.223,21.51-77.339,39.216
	c-15.686,13.807-24.451,18.026-24.695,11.885c-0.24-6.025-28.797-35.306-28.903-29.635c-0.062,3.222,6.399,13.254,14.357,22.292
	l14.466,16.436l-13.844,26.85c-7.615,14.768-14.79,30.537-15.948,35.04c-2.967,11.576-7.171,10.273-20.545-6.37
	c-11.124-13.844-18.638-18.405-18.638-11.313c0,1.784,7.226,11.281,16.057,21.102l16.053,17.859l-4.041,28.048
	c-5.042,35.004-0.073,62.429,17.706,97.735c12.428,24.673,15.74,39.5,8.827,39.5c-2.002,0-3.64-2.235-3.64-4.969
	c0-2.734-2.97-8.875-6.603-13.651c-9.031-11.878-75.756-158.672-78.886-173.557c-2.119-10.065,0.808-18.703,18.23-53.86
	c25.634-51.727,52.189-80.819,90.397-99.024l24.957-11.889l-2.446-13.035c-1.987-10.593-1.092-13.982,4.798-18.106
	c9.53-6.677,13.148-19.177,22.245-76.874c9.366-59.4,16.388-76.262,42.313-101.572c11.932-11.649,19.54-21.936,18.405-24.888
	c-1.059-2.77-9.472-8.369-18.688-12.446c-9.213-4.077-21.19-10.498-26.606-14.266c-19.679-13.694-103.811-57.329-169.505-87.914
	c-29.7-13.825-156.808-64.988-176.436-71.016c-10.465-3.214-107.928-68.282-121.662-81.227
	c-12.147-11.445-12.766-18.346-1.82-20.356c34.891-6.407,122.688-14.939,164.718-16.006c74.409-1.893,127.173,11.339,185.427,46.492
	c31.032,18.725,83.411,63.132,97.771,82.89c7.069,9.723,20.695,39.394,31.309,68.177c10.334,28.03,21.2,56.343,24.142,62.917
	c2.941,6.574,5.347,14.357,5.347,17.291c0,2.934,2.457,5.337,5.46,5.337c8.613,0,6.647-14.481-7.772-57.235
	c-19.551-57.977-38.709-96.974-58.487-119.048c-38.906-43.431-110.69-91.751-151.544-102.012
	c-55.054-13.825-86.593-17.495-135.997-15.82c-51.403,1.743-56.168-2.719-8.398-7.87
	C2768.8,2196.787,2781.821,2198.348,2861.202,2214.995 M1330.288,2204.136c27.407,5.111,47.297,11.496,26.038,8.361
	c-7.823-1.154-35.67-2.017-61.883-1.918c-115.641,0.444-198.415,33.792-277.961,111.994c-18.219,17.909-26.198,29.675-39.503,58.243
	c-29.474,63.299-40.614,95.635-35.681,103.61c3.036,4.918,16.09-7.146,16.09-14.867c0-3.294,1.42-7.546,3.156-9.446
	c1.733-1.904,10.939-23.676,20.458-48.385c13.021-33.817,21.608-50.104,34.713-65.851
	c54.439-65.414,133.274-107.873,230.962-124.392c28.528-4.823,91.161-2.679,171.798,5.875c27.698,2.941,52.542,5.362,55.211,5.384
	c2.672,0.022,4.31,1.471,3.64,3.222c-3.964,10.404-108.656,80.292-137.348,91.689c-9.213,3.662-42.142,16.73-73.175,29.041
	c-31.033,12.315-73.623,29.82-94.645,38.903c-36.544,15.791-158.017,75.163-165.628,80.95c-5.169,3.935-59.972,32.889-62.243,32.889
	c-1.041,0-0.947-1.525,0.204-3.389c1.154-1.864,0.43-4.416-1.605-5.675c-2.221-1.372-3.698,2.552-3.698,9.843
	c0,10.236,2.086,13.25,13.374,19.326c16.646,8.958,39.762,37.708,44.701,55.596c2.049,7.415,6.294,31.498,9.432,53.525
	c3.142,22.023,6.52,45.4,7.502,51.949c0.986,6.552,6.614,17.4,12.508,24.113c9.708,11.059,10.334,13.28,6.68,23.767
	c-2.22,6.363-3.436,12.071-2.705,12.683c0.732,0.615,14.484,7.896,30.556,16.181c44.974,23.188,71.424,52.637,101.827,113.381
	c7.517,15.016,15.354,28.379,17.422,29.697c4.528,2.883,1.915,9.923-27.512,74.048c-32.092,69.939-49.645,104.12-59.44,115.761
	c-8.613,10.236-8.736,10.265-8.846,1.915c-0.087-6.541-0.819-7.229-3.225-3.01c-6.432,11.292-8.511,29.94-3.666,32.936
	c3.622,2.239,2.548,6.156-4.685,17.083c-5.158,7.797-14.561,23.894-20.895,35.772c-20.05,37.61-29.293,51.818-44.974,69.134
	c-12.974,14.324-17.804,17.142-32.136,18.754c-13.887,1.565-18.226,0.539-24.571-5.806c-19.191-19.191-3.888-49.539,48.283-95.766
	c77.321-68.505,102.256-97.917,112.048-132.171c5.227-18.292,4.994-62.116-0.404-76.113c-3.866-10.018-3.08-11.572,14.692-28.972
	c10.327-10.113,17-18.977,14.826-19.701c-2.173-0.724-9.799,4.532-16.949,11.681c-7.149,7.149-14.455,12.999-16.235,12.999
	c-1.78,0-5.06-5.522-7.288-12.271c-2.224-6.749-10.658-23.232-18.736-36.627l-14.692-24.356l14.819-16.075
	c16.759-18.183,21.568-34.768,5.777-19.934c-4.969,4.671-9.996,11.51-11.168,15.198c-1.168,3.691-5.322,8.42-9.224,10.509
	c-5.882,3.145-10.058,1.311-24.327-10.684c-21.554-18.117-59.16-36.082-81.839-39.088c-9.512-1.263-17.236-3.313-17.167-4.558
	c0.065-1.241,16.039-13.407,35.492-27.028c19.453-13.622,38.568-29.183,42.477-34.582c3.913-5.398,4.732-8.03,1.82-5.85
	c-2.909,2.18-22.813,17.335-44.232,33.672c-21.419,16.341-39.845,29.708-40.952,29.708s-2.009-20.298-2.009-45.109
	c0-43.737,0.247-45.167,8.19-47.177c11.954-3.021,45.313-25.066,40.464-26.741c-2.271-0.783-14.968,4.532-28.211,11.813
	c-18.696,10.276-24.083,11.958-24.083,7.521c0-8.489-17.917-60.296-24.134-69.786c-5.234-7.99-4.747-8.544,17.564-19.795
	c25.474-12.846,32.729-18.219,24.589-18.208c-2.901,0.004-14.95,5.107-26.77,11.336l-21.492,11.332l-12.045-14.069
	c-6.621-7.735-12.104-15.154-12.176-16.479c-0.076-1.329-10.098-10.738-22.271-20.913l-22.136-18.492l10.305-3.913
	c38.113-14.466,66.12-26.657,79.047-34.403c15.908-9.537,11.896-12.803-4.481-3.647c-15.343,8.58-77.809,35.048-79.269,33.588
	c-0.728-0.728,2.727-15.121,7.673-31.986c4.951-16.865,9.031-33.533,9.075-37.035c0.065-5.351,3.571-6.37,21.917-6.37
	c15.045,0,21.841-1.416,21.845-4.55c0.004-3.24-5.759-4.19-20.021-3.302c-13.556,0.841-20.025-0.127-20.025-3.007
	c0-2.337,6.017-22.216,13.37-44.174l13.37-39.926l39.412,2.497c25.398,1.605,39.412,1.205,39.412-1.132
	c0-2.006-15.569-4.55-34.917-5.704c-19.206-1.147-35.732-2.901-36.729-3.895c-2.337-2.341,23.323-39.518,41.775-60.529l14.31-16.297
	l26.61,6.388c16.905,4.055,27.873,5.118,30.082,2.909c2.21-2.21-2.333-4.925-12.457-7.444c-40.191-10.007-40.155-6.287-0.339-35.375
	l35.688-26.067l28.961,7.029c35.572,8.635,64.042,9.232,89.596,1.875c46.005-13.243,115.867-27.189,137.537-27.458
	C1297.68,2200.154,1318.156,2201.872,1330.288,2204.136 M2080.981,2204.373c16.217,0.411,19.355,1.707,22.886,9.454
	c2.25,4.94,3.622,9.381,3.043,9.876c-0.575,0.491-11.798,3.556-24.939,6.811c-40.188,9.945-104.349,6.381-122.223-6.789
	c-6.541-4.823-6.501-5.242,1.212-12.475c7.284-6.829,8.485-6.978,13.753-1.711c4.015,4.015,7.12,4.652,10.218,2.093
	c7.302-6.032,30.41-8.944,38.146-4.802c5.366,2.872,8.882,2.49,14.033-1.518c3.975-3.094,10.709-4.521,15.973-3.385
	C2058.088,2203.012,2070.643,2204.111,2080.981,2204.373 M2691.024,2213.353c-2.501,1.012-6.596,1.012-9.1,0
	c-2.501-1.008-0.455-1.834,4.55-1.834C2691.479,2211.519,2693.528,2212.345,2691.024,2213.353 M1975.405,2238.245
	c25.54,6.651,85.544,6.814,115.9,0.317c23.807-5.096,24.771-4.619,28.797,14.27c2.275,10.673,1.857,11.07-16.872,15.853
	c-32.219,8.234-94.779,8.969-130.231,1.533c-29.536-6.196-30.883-6.906-29.66-15.591c1.303-9.246,6.833-21.841,9.588-21.841
	C1953.76,2232.785,1963.876,2235.242,1975.405,2238.245 M1972.999,2278.287c27.782,6.112,97.44,6.957,118.306,1.434
	c37.421-9.901,36.558-10.273,40.198,17.185l2.417,18.201l-23.13,6.538c-34.757,9.829-93.56,11.692-134.778,4.274
	c-18.776-3.382-36.354-7.517-39.066-9.195c-3.72-2.301-4.303-8.052-2.377-23.472
	C1937.474,2269.984,1936.673,2270.297,1972.999,2278.287 M1401.956,2326.559c-1.889,3.527-6.858,9.515-11.048,13.305
	c-9.173,8.3-9.941,13.709-1.489,10.466c3.375-1.296-2.111,7.553-12.187,19.661c-23.778,28.568-42.033,59.178-52.277,87.637
	c-7.473,20.764-10.636,24.64-35.229,43.151c-28.448,21.408-34.454,32.736-6.851,12.912c8.835-6.341,17.666-11.532,19.624-11.532
	c1.962,0,4.51-2.457,5.664-5.46c2.231-5.817,9.603-7.594,9.603-2.315c0,3.28-5.926,7.459-60.063,42.394
	c-62.549,40.359-121.637,87.23-181.976,144.344c-16.574,15.689-31.102,28.528-32.281,28.528c-6.086,0-13.873-26.377-22.07-74.747
	c-10.342-61.021-20.625-86.174-43.085-105.402l-13.909-11.903l17.065-11.307c19.253-12.751,185.62-96.308,216.256-108.612
	c10.979-4.408,40.435-16.541,65.461-26.963c49.295-20.523,129.998-50.085,137.544-50.384
	C1404.057,2320.2,1404.41,2321.973,1401.956,2326.559 M1969.657,2334.255c45.033,7.696,120.675,3.56,158.959-8.693
	c7.969-2.552,8.19-1.926,8.19,23.144v25.765l-13.651,3.56c-31.04,8.092-76.313,12.217-109.839,10.003
	c-34.895-2.304-78.176-9.883-82.789-14.499c-2.723-2.723-1.842-42.142,1.045-46.813c1.005-1.624,4.594-1.514,7.976,0.24
	C1942.931,2328.721,1956.479,2332.001,1969.657,2334.255 M2677.901,2338.765c59.266,18.277,187.018,72.291,272.486,115.208
	c43.427,21.805,129.227,69.837,129.227,72.341c0,0.852-5.668,6.523-12.595,12.606c-19.296,16.941-29.573,42.841-40.297,101.565
	c-9.737,53.303-17.305,76.527-24.877,76.342c-2.275-0.055-17.24-12.548-33.257-27.767
	c-76.451-72.633-143.317-125.047-191.109-149.804c-22.176-11.488-36.354-20.625-36.38-23.446c-0.037-4.306,3.571-3.254,13.978,4.081
	c5.315,3.746,16.836,10.254,25.601,14.459c14.961,7.175,15.554,7.215,9.617,0.655c-3.484-3.848-16.017-13.163-27.854-20.705
	c-20.382-12.988-21.899-14.979-28.619-37.538c-3.903-13.105-12.875-33.424-19.941-45.156c-7.065-11.732-12.846-22.256-12.846-23.388
	c0-1.128-3.13-5.435-6.96-9.57c-7.124-7.692-44.698-67.576-42.401-67.576C2652.373,2331.07,2664.174,2334.531,2677.901,2338.765
	 M1690.197,2422.984c-33.806,51.363-45.047,74.999-57.915,121.811c-5.624,20.447-10.771,36.628-11.441,35.958
	c-0.67-0.67,1.201-17.4,4.153-37.177c3.167-21.193,4.037-37.315,2.115-39.263c-3.713-3.764-33.588,20.531-68.151,55.422
	c-12.529,12.646-22.78,22.212-22.78,21.255s3.469-10.804,7.71-21.885c5.733-14.987,11.288-22.515,21.695-29.402
	c34.432-22.788,85.067-70.547,122.787-115.82c14.597-17.517,27.043-31.852,27.662-31.852
	C1716.646,2382.032,1705.023,2400.462,1690.197,2422.984 M1968.237,2392.56c50.602,7.797,134.133,3.272,162.778-8.817
	c6.596-2.785,6.825-1.573,4.459,23.854c-1.369,14.735-3.192,27.494-4.051,28.353c-4.467,4.467-48.371,11.911-82.359,13.964
	c-44.723,2.705-107.298-6.068-115.197-16.144c-2.552-3.258-4.55-15.948-4.55-28.899c0-20.855,0.619-22.766,6.37-19.719
	C1939.189,2387.005,1953.837,2390.339,1968.237,2392.56 M2369.876,2411.154c35.273,44.09,67.631,77.517,101.154,104.51
	c19.373,15.594,38.506,32.405,42.521,37.352c5.992,7.393,16.123,29.89,16.341,36.296c0.029,0.888-17.72-15.904-39.445-37.312
	c-38.782-38.219-54.835-48.062-50.129-30.731c1.223,4.503,3.073,19.657,4.11,33.672l1.885,25.481l-10.433-34.593
	c-12.948-42.932-19.839-56.63-54.919-109.194C2340.704,2376.31,2339.153,2372.753,2369.876,2411.154 M1966.949,2453.015
	c35.572,6.807,93.425,6.825,131.502,0.04c15.944-2.839,29.773-4.375,30.734-3.418c0.961,0.961-0.619,13.582-3.506,28.044
	l-5.253,26.297l-20.021,4.201c-26.235,5.5-100.582,5.981-130.107,0.837c-18.095-3.149-24.069-5.799-26.664-11.831
	c-4.339-10.08-10.233-49.63-7.397-49.63C1937.438,2447.555,1951.256,2450.012,1966.949,2453.015 M3110.737,2512.805
	c6.053,5.894,61.777,32.478,72.869,34.764c5.872,1.209-6.527-6.792-27.549-17.779
	C3120.846,2511.386,3102.037,2504.335,3110.737,2512.805 M2033.062,2521.775c31.768,0.058,60.605-1.696,68.959-4.201
	c7.896-2.363,14.823-3.833,15.394-3.262c2.323,2.326-11.183,44.665-15.867,49.729c-6.713,7.259-129.168,8.121-136.325,0.961
	c-3.811-3.811-17.487-41.629-17.651-48.807c-0.029-1.289,6.909-0.583,15.416,1.569S2003.03,2521.72,2033.062,2521.775
	 M1320.034,2526.729c4.769,19.846,15.671,36.133,31.127,46.503c8.66,5.809,16.162,10.764,16.672,11.011
	c0.506,0.248-17.316,28.157-39.605,62.018c-22.289,33.861-47.672,72.582-56.405,86.046
	c-16.617,25.623-64.205,113.647-75.814,140.238c-6.687,15.31-16.57,20.996-16.57,9.534c0-3.269-6.964-19.1-15.471-35.183
	c-20.862-39.434-57.697-76.513-95.078-95.704c-15.26-7.834-27.753-16.039-27.764-18.234c-0.015-4.354,75.938-74.012,131.09-120.217
	c29.041-24.331,59.593-45.863,127.348-89.749C1312.637,2514.527,1317.304,2515.379,1320.034,2526.729 M1608.773,2593.163
	c-3.797,37.039-8.631,80.448-10.738,96.465s-4.838,81.846-6.061,146.284l-2.231,117.163l-14.95,2.472
	c-34.422,5.693-96.053,28.575-128.116,47.566c-18.193,10.775-34.731,19.591-36.755,19.591c-2.02,0-7.462-3.283-12.089-7.299
	c-7.67-6.65-8.048-8.507-4.277-20.931c2.279-7.499,10.808-37.385,18.958-66.415c25.641-91.354,59.859-186.039,104.582-289.394
	c20.269-46.835,21.492-48.615,53.664-78.166c16.017-14.714,31.36-29.9,34.094-33.752c2.734-3.851,6.286-5.635,7.899-3.964
	C1614.361,2524.454,1612.57,2556.124,1608.773,2593.163 M2808.54,2571.263c15.951,10.691,33.996,23.676,40.1,28.859
	c6.105,5.18,18.365,15.154,27.24,22.162c33.257,26.257,127.29,115.084,127.29,120.242c0,1.94-1.835,3.524-4.073,3.524
	c-6.516,0-47.573,25.529-60.893,37.862c-23.203,21.48-62.44,83.396-62.44,98.525c0,13.698-10.149,3.247-21.841-22.489
	c-16.461-36.238-64.526-119.795-96.927-168.5c-13.982-21.022-31.065-47.799-37.963-59.502
	c-6.895-11.707-16.151-24.924-20.567-29.376l-8.03-8.092l17.451-13.029c17.411-12.999,29.551-31.884,29.551-45.972
	c0-6.982,1.3-6.709,21.051,4.456C2770.063,2546.477,2792.585,2560.575,2808.54,2571.263 M2503.001,2575.609
	c25.947,26.664,31.353,34.655,45.131,66.696c64.974,151.115,87.779,214.399,117.305,325.505c10.6,39.882,10.779,41.767,4.401,46.43
	c-8.416,6.152-14.557,4.121-51.436-17.025c-16.472-9.446-37.789-19.289-47.373-21.877c-9.581-2.588-31.586-9.37-48.902-15.07
	c-17.313-5.701-33.693-10.367-36.402-10.367c-3.968,0-5.063-15.751-5.653-81.227c-0.775-86.327-7.393-179.606-19.289-271.871
	c-4.001-31.032-7.273-58.581-7.277-61.22C2453.499,2528.229,2469.446,2541.122,2503.001,2575.609 M2042.162,2581.969
	c15.016,0.054,33.806-1.409,41.76-3.254c7.95-1.842,14.994-2.814,15.649-2.162c0.652,0.655,0.131,5.406-1.165,10.56
	c-1.98,7.896-3.898,9.057-12.209,7.393c-6.571-1.314-11.503,0.007-14.783,3.957c-7.229,8.715,0.153,14.954,10.891,9.206
	c7.754-4.15,8.038-3.848,5.653,6.032c-4.161,17.222-10.666,19.504-55.629,19.504c-36.788,0-41.873-0.786-47.475-7.328
	c-5.115-5.973-18.638-39.692-19.034-47.464c-0.055-1.103,10.957-0.779,24.469,0.724
	C2003.802,2580.64,2027.146,2581.914,2042.162,2581.969 M1376.453,2599.26c-3.171,5.457-3.884,5.613-3.975,0.881
	c-0.117-6.13,3.713-11.652,6.29-9.071C1379.62,2591.921,1378.579,2595.605,1376.453,2599.26 M2675.67,2604.298
	c-0.066,3.12,2.29,8.853,5.228,12.741c4.273,5.649,5.369,5.926,5.46,1.39c0.065-3.12-2.29-8.853-5.228-12.741
	C2676.856,2600.039,2675.761,2599.762,2675.67,2604.298 M2074.221,2643.998c0.612,0.069-3.036,7.091-8.11,15.598
	c-8.405,14.102-10.6,15.525-24.775,16.079c-26.449,1.034-34.567-1.94-42.637-15.62c-4.124-6.985-7.499-13.84-7.499-15.227
	C1991.199,2643.026,2059.759,2642.338,2074.221,2643.998 M2042.905,2692.321c-6.658,6.662-9.009,7.128-17.174,3.407
	c-12.897-5.879-8.649-10.659,9.69-10.91l15.201-0.211L2042.905,2692.321 M3021.37,2740.641c0,6.953,71.431,58.957,75.454,54.934
	c1.212-1.212,1.521-2.69,0.688-3.287c-0.834-0.597-13.115-8.795-27.291-18.216c-14.175-9.424-29.613-21.222-34.305-26.217
	C3028.032,2739.461,3021.37,2736.16,3021.37,2740.641 M2881.781,3029.081c-2.854,4.619,26.806,48.225,32.805,48.225
	c6.363,0,3.502-5.602-16.359-32.056C2890.247,3034.629,2882.851,3027.352,2881.781,3029.081 M2679.193,3041.854
	c0,14.379,6.549,67.045,9.337,75.104c4.932,14.251,4.856-3.214-0.186-41.651C2682.55,3031.098,2679.193,3018.823,2679.193,3041.854
	 M1172.865,3036.828c-6.494,4.015-29.828,41.043-29.828,47.333c0,2.905,0.724,4.554,1.613,3.669
	c4.871-4.874,20.228-29.566,20.228-32.525c0-1.915,1.245-3.48,2.763-3.48c3.182,0,12.941-14.63,11.033-16.538
	C1177.98,3034.589,1175.362,3035.284,1172.865,3036.828 M1382.055,3054.555c-5.58,44.366-7.018,74.744-3.436,72.53
	c2.042-1.263,4.816-14.208,6.167-28.768c1.347-14.561,3.411-34.254,4.586-43.762c1.3-10.524,0.71-17.291-1.503-17.291
	C1385.867,3037.264,1383.249,3045.047,1382.055,3054.555 M3067.113,3184.866c39.532,38.954,51.52,65.512,37.567,83.251
	c-8.409,10.691-19.293,11.907-37.698,4.219c-15.394-6.432-30.286-26.544-52.925-71.475c-9.643-19.136-22.591-43.373-28.772-53.853
	c-13.181-22.358-13.032-21.714-4.867-21.066c6.723,0.535,7.026-1.249,2.694-15.875
	C2980.466,3101.135,2997.706,3116.489,3067.113,3184.866"/>

    <text x="10" y="832" font-size="12" fill="gray" opacity="0.6" font-family="Arial, sans-serif">
      twoja-kolorowanka.pl
    </text>
  
</svg>
