<?xml version="1.0" encoding="utf-8"?>
<!-- Generator: Adobe Illustrator 27.5.0, SVG Export Plug-In . SVG Version: 6.00 Build 0)  -->
<svg xmlns="http://www.w3.org/2000/svg" xmlns:xlink="http://www.w3.org/1999/xlink" viewBox="0 0 4000 4000" width="595" height="842" preserveAspectRatio="xMidYMid meet" data-scaled="true">
<g>
	<path style="fill:#FFFFFF;" d="M4000,2920.453V4000H0V0h4000v1561.188v8.543v1145.875v88.402v69.695V2920.453z"/>
	<path d="M4000,2920.453c-15.586,21.883-38.398,40.785-59.883,56.613c-34.867,25.703-72.445,48.359-108.957,71.684l-169.266,109.387
		l-170.223,110.762c-12.332,8.164-22.801,18.899-34.848,27.551c-20.145,14.473-43.09,26.777-65.277,37.73
		c-66.688,32.914-147.531,55.355-221.692,61.082c-30.656,2.367-62.918-0.512-93.793-0.613l-205.805-0.434l-672.016-0.754
		l-938.012,0.734L908.645,3394l-143.246-1.648c-24.953-1.328-51.695-8.328-75.266-16.48
		c-65.578-22.684-124.738-68.422-182.703-105.801l-195.25-125.023l-104.199-65.594c-30.751-18.793-62.598-36.539-90.297-59.77
		c-30.646-25.703-59.49-61.871-76.925-97.965c-33.817-70.016-44.499-155.109-18.478-229.508
		c21.336-61,58.612-115.563,114.643-149.375c16.596-10.02,35.206-17.578,52.643-26.098l-34.699,4.864
		c-9.661,0.613-17.212,1.051-24.764-5.344c-0.71-3.949-1.801-4.582,0.654-8.098c10.821-15.492,76.872-32.18,96.159-36.023
		c-36.241-6.242-196.039,6.422-212.57-5.457c-6.826-4.906-9.078-12.539-10.262-20.391c3.138-14.406,353.219-498.035,388.911-541.727
		c6.738-8.246,13.805-13.965,22.613-19.742l2.453-1.586c1.199-17.496,0.82-34.922,0.547-52.445
		c-0.145-9.289,0.555-19.43-1.617-28.488c-4.113,0.164-6.852-0.516-10.742-1.813c-15.066-14.375-21.807-39.211-30.872-57.805
		c-8.712-0.309-17.08-0.766-25.449-3.496c-13.893-4.535-25.531-14.859-32.228-27.742c-7.671-14.758-8.149-29.516-2.343-44.98
		c3.117-8.305,9.162-16.328,16.401-21.496c21.478-15.332,50.655-26.465,74.363-38.582c34.098-17.426,67.641-37.258,102.645-52.719
		l2.238-0.969c7.617-28.625,17.703-55.242,39.383-76.433c13.231-12.934,30.992-24.102,49.16-28.055
		c16.223-3.531,33.906-2.383,50.41-2.375l81.894,0.184l235.316-0.34c5.492-20.648,8.914-59.777,22.945-75.004
		c3.613-3.918,7.297-5.195,12.52-6.418c12.723-2.973,27.559-2.414,40.687-3.141l71.344-3.875l0.184-75.137
		c0.121-30.226-2.453-59.996,12.113-87.769c11.051-21.07,32.121-42.617,55.207-49.727l2.914-0.847
		c14.613-4.332,30.547-3.27,45.683-3.231l0.484-339.891c-0.02-53.852-2.777-109.117-0.027-162.809
		c0.34-6.695,0.422-16.094,4.887-21.492c3.648-4.41,8.164-6.055,13.891-6.277c6.129-0.242,10.75,0.848,15.02,5.207
		c5.152,5.262,6.309,10.402,6.246,17.563l0.082,508.098l129.293-0.082c23.41,0.02,53.504-3.328,75.922,3.355
		c13.367,3.984,24.434,12.652,35.578,20.695l27.125-67.375c6.93-17.828,13.23-38.449,27.207-52.102
		c30.481-29.762,75.5-22.039,114.391-21.418l0.84-402.91c1.844-3.484,3.828-5.902,7.363-7.84c7.078-3.879,14.215-3.059,21.633-0.949
		c4.641,4.789,7.828,6.91,9.047,13.859c2.098,11.961,0.516,26.746,0.469,39.074l-0.465,86.215l0.434,272.492l115.582,0.141
		c19.953,0.055,46.852-2.922,65.602,3.563c16.164,5.59,30.852,16.313,41.406,29.797c12.047,15.398,20.039,36.84,28.859,54.352
		l87.012,180.387l88.004-7.035c9.984-0.77,26.914,0.644,35.129-4.676c8.211-5.32,14.477-6.82,24.278-6.856
		c13.117,6.961,17.055,20.234,23.363,32.817l17.109,30.988c7.234,0.48,14.605,0.734,21.051,4.41
		c15.809,9.019,30.973,41.266,41.414,56.914c1.989,2.984,6.105,10.949,8.711,12.941c1.918,1.465,14.422,0.672,17.016,0.672
		c19.082-0.027,98.52-3.766,110.594,1.754c2.031,0.93,5.035,4.414,6.836,5.988c4.355,10.215,2.933,22.563,2.973,33.555l-0.02,59.969
		l1078.137-33.297c2.371-2.445,1.555-1.148,2.898-4.609c4.059-10.465,8.199-18.637,16.254-26.727
		c11.75-11.789,28.055-19.195,44.871-18.625c13.332,0.449,25.914,5.824,36.363,13.969c5.176,4.031,10.359,11.414,16.988,11.973
		c19.199,1.621,40.23-0.332,59.555-0.57l180.363-4.637c27.555-0.219,51.852,11.43,71.188,30.856
		c23.047,23.141,32.148,48.101,38.281,79.23v8.543v1145.875v88.402v69.695V2920.453z"/>
	<path style="fill:#FFFFFF;" d="M4000,2873.703c-4.922,1.84-9.102,3.688-13.359,6.813c-3.008,2.184-3.32,2.613-7.109,3.273
		l20.469-79.781V2873.703z"/>
	<path style="fill:#FFFFFF;" d="M506.648,1600.586l2.402,1.398l0.43,29.586l-120.599,63.371c-11.016,5.598-16.35,9.508-28.53,5.523
		l-2.407-1.91c-5.075-5.582-4.207-9.039-4.245-15.937c6.581-8.934,17.026-13.473,26.706-18.375l43.422-21.59L506.648,1600.586z"/>
	<path style="fill:#FFFFFF;" d="M3594.309,1471.68c3.809-0.027,8.414,0.371,11.879,2.141c4.91,2.508,7.473,6.215,9.082,11.34
		c4.125,13.129,3.199,30.363,3.914,44.137l3.875,83.754c0.703,16.742,7.586,55.363-0.859,69.566
		c-3.652,6.141-9.203,7.348-15.754,8.844c-3.523-0.274-7.535-0.539-10.742-2.211c-4.73-2.465-9.313-7.027-10.742-12.168
		c-6.156-22.121-4.137-52.277-5.238-75.602c-0.859-18.293-10.328-107.094-2.055-120.035
		C3581.59,1475.313,3587.594,1473.203,3594.309,1471.68z"/>
	<path style="fill:#FFFFFF;" d="M768.445,1553.711c3.66,0.152,4.809,2.023,7.629,4.227c2.797,6.445,3.262,7.438,2.246,14.754
		c-8.254,9.156-22.492,14.02-33.34,19.961l-82.473,44.125l-232.672,122.422l-12.109-21.016L768.445,1553.711z"/>
	<path style="fill:#FFFFFF;" d="M1362.395,1180.66l85.574,0.481c5.141,0.101,16.434-1.176,20.988,0.43
		c8.277,2.918,19.176,14.371,25.844,20.293l-45.692,109.473l-10.383,25.07l-95.055,6.148l-0.637-161.098L1362.395,1180.66z"/>
	<path style="fill:#FFFFFF;" d="M476.93,1780.109l183.117,1.152l-0.102,70.828c-0.012,6.484,1.523,17.867-0.035,23.887
		c-0.348,1.352-1.789,2.141-2.684,3.211l-15.27,0.488l-182.648,1.192l-0.125-90.859
		C464.98,1785.188,469.785,1782.512,476.93,1780.109z"/>
	<path style="fill:#FFFFFF;" d="M504.715,2984L494,3029.148c-15.879,79.793,9.078,160.141,53.227,226.539L417.105,3169.5
		l-141.028-89.094c17.257-2.258,34.664-1.578,52.018-4.117C398.754,3065.945,453.555,3032.23,504.715,2984z"/>
	<path style="fill:#FFFFFF;" d="M2192.199,1317.383c7.313,3.703,11.582,16.746,15.445,24.148l-1174.91,82.66l-15.156,1.199
		l-2.473-2.539l3.426-19.512c22.613-4.375,49.012-2.859,72.219-4.66l230.582-15.527l512.652-37.316L2192.199,1317.383z"/>
	<path style="fill:#FFFFFF;" d="M1204.961,1180.457l99.086-0.504l-0.785,165.531l-55.25,3.809l-94.004,5.809l-1.027-1.563
		l0.621-71.527c0.254-25.016-3.012-51.949,11.02-74.004C1174.75,1192.086,1186.719,1184.004,1204.961,1180.457z"/>
	<path style="fill:#FFFFFF;" d="M3456.476,2932.859c7.903,10.406,15.121,21.578,24.16,31.047
		c21.809,22.84,54.363,45.48,81.969,60.82c61.035,33.914,129.211,46.969,197.078,27.473l-162.742,106.16l-162.363,105.191
		c14.582-23.824,30.746-44.305,40.508-71.023c22.238-60.867,23.059-143.555,4.184-205.668
		C3473.598,2968.203,3464.715,2950.5,3456.476,2932.859z"/>
	<path style="fill:#FFFFFF;" d="M3872.984,1491.105c21.75-0.871,40.141-0.953,57.563,14.41
		c16.68,14.703,27.305,36.621,28.359,58.855c1.133,22.805-5.82,45.637-21.484,62.558c-7.773,8.402-18.359,16.414-29.531,19.348
		c-20.84,5.484-46.477,3.551-68.047,4.168l-94.098,3.32l-80.734,2.312l-7.758-157.895L3872.984,1491.105z"/>
	<path style="fill:#FFFFFF;" d="M2269.305,1453.18L2415.5,1453l0.195,326.121l-145.402-0.918L2269.305,1453.18z"/>
	<path style="fill:#FFFFFF;" d="M617.238,1487.141l329.938-0.758L834.09,1740.988l-278.805-2.316l28.836-17.602l142.109-76.344
		c22.449-12.117,48.422-23.414,69.059-38.23c6.395-4.59,13.43-10.477,16.598-17.914c4.945-11.613,5.344-29.824,0.832-41.402
		c-4.898-12.57-16.992-22.863-29.465-27.422c-6.754-2.469-14.699-4.586-21.871-2.867c-9.449,2.266-18.766,8.23-27.313,12.852
		l-45.348,24.715l-136.172,71.117c-0.555-35.125-4.793-78.125,16.73-108.274C581.441,1500.27,596.887,1490.836,617.238,1487.141z"/>
	<path style="fill:#FFFFFF;" d="M701.426,1781.828l1605.059,87.746l1.527,4.449l-2.348,4.113l-1604.484,1.484L701.426,1781.828z"/>
	<path style="fill:#FFFFFF;" d="M1895.355,2210.391l349.078-0.215l-0.426,220.887l-348.453-0.508L1895.355,2210.391z"/>
	<path style="fill:#FFFFFF;" d="M2286.246,2209.699l359.656,0.828l-0.176,218.184l-6.078,1.91l-353.941,0.426L2286.246,2209.699z"/>
	<path style="fill:#FFFFFF;" d="M2685.523,2210.219l363.23,0.852l-0.699,220.047l-362.84-0.59L2685.523,2210.219z"/>
	<path style="fill:#FFFFFF;" d="M692.453,2209.961l355.348,0.227c0.117,23.531,2.203,211.207-0.418,217.496
		c-0.645,1.551-2.293,2.457-3.438,3.684l-357.254-0.145l-0.168-219.707L692.453,2209.961z"/>
	<path style="fill:#FFFFFF;" d="M1093.383,2209.961l357.254,0.918l0.02,218.66l-4.367,1.898l-358.434-0.148l-0.469-141.602
		c-0.051-25.02-2.953-53.836,0.93-78.434L1093.383,2209.961z"/>
	<path style="fill:#FFFFFF;" d="M1491.262,2210.445l363.074-0.16l0.461,220.387l-363.488,0.27L1491.262,2210.445z"/>
	<path style="fill:#FFFFFF;" d="M2088.973,1452.148l139.692,0.945l2.101,325.523l-110.16,0.418l-138.645,0.723v-326.711
		L2088.973,1452.148z"/>
	<path style="fill:#FFFFFF;" d="M1607.938,1064.773c20.402-1.453,41.586-0.387,62.066-0.398l112.773-0.207l76.598-0.109
		c10.645-0.012,24.738-1.633,34.816,1.543c7.391,2.324,14.453,8.266,18.773,14.586c11.582,16.945,20.102,39.504,29.176,58.094
		l74.203,155.449l-151.395,11.391l-381.176,27.688l76.297-181.211c9.637-23.039,17.258-53.223,30.332-74.227
		C1594.433,1070.895,1601.34,1068.016,1607.938,1064.773z"/>
	<path style="fill:#FFFFFF;" d="M3524.914,1520.508h6.449c8.222,8.883,7.504,81.922,7.555,98.02l-1072.609,35.813l-8.301-0.023
		c-5.191-5.32-2.871-22.977-2.871-30.824l0.016-69.59L3524.914,1520.508z"/>
	<path style="fill:#FFFFFF;" d="M223.159,2209.496l424.064,0.773l-0.559,221.113l-157.406-0.77l-426.78-0.789L223.159,2209.496z"/>
	<path style="fill:#FFFFFF;" d="M3088.563,2209.871l313.516,1.023l95.113,0.137c16.515,0.055,35.648-1.754,51.637,1.988
		c17.77,4.16,35.504,12.297,52.914,18.031l135.266,45.137l38.832,13.91c3.496,1.426,10.875,3.539,13.652,5.82
		c4.508,3.707,10.316,15.645,13.754,20.691l73.469,113.594l-787.629,0.18L3088.563,2209.871z"/>
	<path style="fill:#FFFFFF;" d="M270.284,2541.719c59.916-4.586,115.927,7.508,165.262,42.324
		c60.266,42.523,91.617,99.105,103.66,171.328c9.797,58.77-9.059,125.836-43.547,173.773
		c-38.336,53.293-100.965,89.555-165.42,99.773c-65.124,9.605-124.012-3.969-176.92-42.887
		c-51.719-38.039-86.693-95.883-95.538-159.656c-9.52-68.637,7.25-139.082,49.925-194.102
		C148.28,2579.965,205.292,2549.824,270.284,2541.719z"/>
	<path d="M298.727,2922.688l27.583-1.648c7.129,14.805,19.933,41.012,20.177,57.477c0.078,5.234-0.966,8.516-4.527,12.434
		c-7.874,8.66-20.399,8.145-31.258,8.945c-13.194,0.344-27.565,1.289-40.555-1.492c-6.042-1.293-6.355-1.234-9.633-6.469
		c-2.28-18.852,6.68-50.02,15.083-67.059L298.727,2922.688z"/>
	<path style="fill:#FFFFFF;" d="M297.284,2952.148c4.986-1.293,5.241-1.512,9.964,0.422c2.675,6.156,4.175,11.445,5.27,18.059
		l-4.9,2.098c-5.209,0.176-11.05,1.305-15.496-1.863L297.284,2952.148z"/>
	<path d="M404.344,2870.117l6.789-0.938c14.508,10.734,35.391,22.473,47.262,35.371c3.207,3.484,4.348,5.699,3.793,10.488
		c-1.773,15.285-31.922,39.09-43.961,47.789c-5.984,3.281-8.348,3.699-15.156,3.156c-15.613-7.641-31.694-38.813-38.395-55.211
		C374.711,2896.395,390.271,2880.527,404.344,2870.117z"/>
	<path style="fill:#FFFFFF;" d="M407.637,2907.227l2.68-0.648c6.313-0.75,13.027,6.34,17.977,10.031l-10.855,14.055l-4.352,2.82
		l-1.59-1.082c-5.371-4.391-10.094-11.461-10.672-18.273L407.637,2907.227z"/>
	<path d="M483.848,2758.496c7.355-0.477,13.281-2.481,19.25,2.246c8.602,21.133,6.145,52.293,0.129,74.219
		c-1.629,5.93-2.941,8.313-8.109,11.523c-12.055-0.125-21.793-4.094-32.891-8.34l-33.32-13.418
		c-1.414-17.602,1.773-37.512,3.152-55.227C448.461,2763.117,466.551,2761.098,483.848,2758.496z"/>
	<path style="fill:#FFFFFF;" d="M460.117,2791.992c5.992-1.344,13.211-0.828,19.375-1.016l2.543,2.969l-2.543,14.93
		c-6.379,2.188-13.461-1.344-19.914-3.211C458.301,2800.211,458.906,2797.301,460.117,2791.992z"/>
	<path d="M185.145,2879.883l6.27-0.926c17.385,8.84,36.984,28.926,49.846,43.512c-5.978,16.051-17.997,41.66-30.841,53.125
		c-4.441,3.961-6.533,2.973-12.179,2.734c-17.755-8.164-38.227-24.25-50.723-39.254c-5.146-6.18-5.183-9.168-4.387-17.047
		C152.446,2906.176,169.984,2890.16,185.145,2879.883z"/>
	<path style="fill:#FFFFFF;" d="M187.043,2915.039l4.648,0.598c4.973,3.664,11.231,6.949,13.216,13.074
		c-2.023,6.387-3.913,8.93-8.618,13.707c-7.066-2.441-12.382-8.586-17.578-13.684
		C179.762,2923.469,183.869,2919.234,187.043,2915.039z"/>
	<path d="M405.828,2612.305l4.406-0.941c13.547,3.078,31.043,22.656,41.309,32.797c9.398,9.289,18.594,17.886,18.719,31.621
		c-8.41,14.207-26.891,25.379-40.02,35.176c-4.086,2.125-6.848,2.703-11.297,3.715c-16.574-7.59-37.159-31.539-49.103-45.555
		C377.193,2650.02,392.848,2628.129,405.828,2612.305z"/>
	<path style="fill:#FFFFFF;" d="M414.484,2651.367l3.41-0.707l4.477,2.84c5.301,4.008,12.371,10.859,13.266,17.398l-7.82,7.813
		l-4.031,2.832c-6.512-4.051-11.004-8.91-16.145-14.551C407.914,2660.586,411.109,2656.543,414.484,2651.367z"/>
	<path d="M130.166,2770.66c8.475-0.566,20.271-2.969,27.872,1.148c6.343,7.199,4.624,18.871,6.089,27.996
		c2.034,12.676,5.725,24.895,7.532,37.738c-15.088,9.551-32.742,14.836-49.837,19.504c-5.149,1.305-10.105,1.633-15.376,1.969
		c-10.473-8.234-13.277-23.109-15.921-35.559c-3.228-15.191-9.861-34.266-0.808-48.211
		C99.758,2768.938,118.474,2770.961,130.166,2770.66z"/>
	<path style="fill:#FFFFFF;" d="M124.93,2797.852c3.388-0.656,5.766-0.57,9.174-0.363c1.542,7.332,5.35,16.828,2.695,23.801
		l-8.869,2.77c-4.153,0.973-3.728,1.621-7.813-0.449c-1.33-6.332-5.45-17.977-2.601-23.805L124.93,2797.852z"/>
	<path d="M290.193,2571.188c15.126-0.477,35.828-3.742,48.448,5.961c2.44,3.934,2.908,6.813,3.002,11.348
		c0.343,16.484,1.138,48.098-10.588,60.18l-25.279,0.328c-11.06,0.723-28.91,3.356-39.175,0.039
		c-10.597-13.704-10.036-36.031-13.394-52.696c-1.781-8.836-1.399-12.598,3.629-20.117
		C264.752,2569.793,280.241,2571.551,290.193,2571.188z"/>
	<path style="fill:#FFFFFF;" d="M295.608,2596.539c5.462-0.242,10.647-0.848,15.916,0.938c1.159,6.059,0.843,17.438-2.514,22.664
		c-1.813,2.82-6.139,2.34-9.205,2.813c-5.918-0.125-10.939,0.965-15.877-2.496c-0.581-7.203-2.188-15.453,0.252-22.371
		L295.608,2596.539z"/>
	<path d="M179.726,2610.352h5.758c16.924,10.164,28.432,37.242,37.736,54.281c-6.273,9.387-14.149,16.832-21.278,25.465
		c-6.511,7.887-13.189,18.359-21.598,24.25c-5.807,4.066-10.619,2.559-17.001,1.156c-14.906-7.004-33.636-15.305-44.76-27.574
		c-1.487-5.078-2.259-6.512-0.307-11.652c3.046-8.02,9.803-15.805,15.141-22.512
		C145.879,2638.113,161.202,2618.863,179.726,2610.352z"/>
	<path style="fill:#FFFFFF;" d="M177.839,2644.695c5.363,6.344,9.212,13.508,13.343,20.676l-25.128,22.637l-13.566-10.23
		C157.77,2665.367,168.762,2654.457,177.839,2644.695z"/>
	<path d="M284.717,2715.063c13.231-0.746,24.629-0.039,37.097,4.871c17.345,6.824,32.071,21.469,38.931,38.773
		c7.205,18.172,6.026,36.664-2.084,54.402c-9.82,21.484-27.215,33.09-48.555,41.004c-14.721,2.789-30.155,1.836-43.714-4.949
		c-17.061-8.535-30.61-23.641-36.043-42.039c-5.18-17.539-3.04-40.516,5.991-56.359
		C247.346,2731.453,263.825,2720.844,284.717,2715.063z"/>
	<path style="fill:#FFFFFF;" d="M290.175,2740.465c8.267-0.5,16.363,0.133,24.045,3.52c10.141,4.472,18.516,13.761,22.305,24.113
		c4.25,11.613,4.371,26.41-1.605,37.441c-7.531,13.898-17.57,19.957-32.298,24.762c-6.938,0-13.958-0.684-20.426-3.367
		c-12.566-5.207-22.551-14.762-27.457-27.519c-4.422-11.504-3.411-23.727,2.267-34.594
		C264.358,2750.75,275.756,2745.277,290.175,2740.465z"/>
	<path style="fill:#FFFFFF;" d="M3693.258,2534.051c56.859-4.184,120.746,21.172,164.551,56.035
		c51.723,41.16,80.668,98.09,87.816,163.41c7.188,65.879-12.461,126.539-53.879,177.926
		c-46.66,57.922-109.945,86.047-182.778,93.879c-69.398,0.039-125.918-24.375-178.676-68.488
		c-46.004-38.469-74.461-89.445-79.766-149.539c-5.805-65.703,12.605-131.359,55.664-181.91
		C3556.168,2566.684,3617.363,2539.996,3693.258,2534.051z"/>
	<path d="M3683.133,2922.852c11.441-2.039,24.91-1.031,36.586-1.219c7.863,12.773,12.98,25.734,18.391,39.66
		c3.695,9.523,7.961,17.422,7.918,27.965c-7.129,7.457-20.176,8.086-29.898,9.117l-16.746,0.832
		c-14.273,0.187-36.129,0.488-47.043-9.949c-1.031-4.801-0.59-8.195,0.879-12.789
		C3657.141,2964.203,3672.438,2928.656,3683.133,2922.852z"/>
	<path style="fill:#FFFFFF;" d="M3699.184,2952.148l4.156,1.066c2.539,5.492,5.234,10.313,5.242,16.512l-6.433,1.109
		c-4.98-0.004-6.555,0.891-10.73-2.086C3692.816,2962.203,3695.609,2957.754,3699.184,2952.148z"/>
	<path d="M3571.793,2879.184c10.726-0.734,28.222-2.594,38.062,1.621c12.539,5.375,17.371,18.266,21.781,30.066
		c-4.605,14.555-11.309,51.766-23.422,59.516c-3.934,2.52-5.215,1.184-9.582,0.375c-17.578-7.73-34.152-23.996-47.371-37.641
		c-8.484-8.754-13.793-15.336-13.57-27.848C3543.375,2894.227,3560.844,2884.719,3571.793,2879.184z"/>
	<path style="fill:#FFFFFF;" d="M3577.098,2911.133c5.215-1.793,10.262-1.289,15.676-1.102c3.746,6.012,1.352,9.938,0.02,16.727
		l-3,0.781c-5.621-3.344-9.902-7.484-14.598-12.008L3577.098,2911.133z"/>
	<path d="M3501.898,2747.07l4.859,0.141c12.758,1.043,51.727,16.941,59.008,26.926c3.289,4.504,2.527,31.871,0.324,37.125
		c-3.223,7.699-16.797,13.613-23.929,17.059c-10.422,4.516-31.977,14.988-43.137,11.539c-5.152-1.59-8.707-5.93-10.734-10.758
		c-6.633-15.777-8.805-54.809-1.156-70.156C3490.59,2752.012,3494.84,2749.602,3501.898,2747.07z"/>
	<path style="fill:#FFFFFF;" d="M3512.305,2779.906c6.273,3.008,14.168,5.328,18.977,10.551c3.016,3.269,2.121,3.316,1.93,7.395
		l-6.035,3.906l-11.551,4.445C3510.977,2801.473,3512.563,2786.879,3512.305,2779.906z"/>
	<path d="M3786.242,2883.789c4.715-0.82,8.664-0.883,13.395,0c14.164,2.648,48.727,21.125,55.941,33.203
		c2.797,4.688,2.953,7.449,2.02,12.695c-9.039,14.41-23.418,23.934-37.586,32.754l-4.609,2.488
		c-8.941,4.648-26.285,15.063-36.105,11.864c-4.024-4.196-6.008-6.926-7.598-12.528c-4.895-17.223-8.859-33.211-10.527-51.098
		C3766.953,2902.133,3775.16,2889.871,3786.242,2883.789z"/>
	<path style="fill:#FFFFFF;" d="M3795.586,2918.945c1.637-0.477,2.422-0.836,4.32-0.621c5.879,0.672,11.066,3.023,14.676,7.457
		l-5.012,5.23c-4.922,3.121-7.676,6.563-13.602,5.512C3794.5,2930.305,3794.926,2925.266,3795.586,2918.945z"/>
	<path d="M3684.809,2570.836l2.926-0.269c17.543-1.582,50.383-4.129,64.363,7.516c1.543,3.453,2.715,4.957,2.52,8.84
		c-0.855,17.113-14.457,53.051-27.629,64.445c-13.316,5.453-35.164,1.777-48.277-3.16c-11.223-12.59-21.656-40.508-24.121-57.386
		c-0.551-3.773,0.199-7.133,2.508-10.141C3662.715,2573.352,3676.277,2572.234,3684.809,2570.836z"/>
	<path style="fill:#FFFFFF;" d="M3696.977,2598.695l19.82-0.617l2.504,2.508c-0.809,7.211-2.008,13.559-4.348,20.434l-4.992,2.051
		c-5.246,0.078-8.441,0.844-13.188-1.672c-2.504-6.156-7.176-14.414-6.601-21.105L3696.977,2598.695z"/>
	<path d="M3584.914,2604.492l3.813-0.188c2.82,1.023,4.906,2.031,6.821,4.445c11.25,14.184,23.703,46.145,20.156,63.813
		c-2.66,13.23-14.59,28.129-25.723,35.445c-12.199,2.25-21.051-2.352-32.055-6.828c-11.516-5.465-32.754-13.637-37.301-26.324
		c-1.926-5.367-0.863-10.766,1.789-15.625C3532.707,2640.379,3564.285,2611.004,3584.914,2604.492z"/>
	<path style="fill:#FFFFFF;" d="M3576.289,2645.508l4.187,0.098c2.719,5.242,5.383,10.316,5.645,16.34
		c0.242,5.473-1.469,10.129-5.066,14.242l-10.715-2.438c-5.188-2.449-9.211-4.258-13.059-8.711
		C3561.531,2656.699,3569.215,2651.398,3576.289,2645.508z"/>
	<path d="M3892.504,2753.941c3.719-0.293,7.137-0.019,10.75,1.012c4.285,1.227,9.48,4.211,11.355,8.383
		c2.344,5.105,2.188,13.449,2.344,19.074c0.547,21.051-0.938,41.961-7.93,61.938c-3.527,10.063-7.41,18.668-17.422,23.469
		c-8.328,0.012-13.219-8.023-19.031-13.793c-12.207-9.496-32.781-20.656-39.109-34.879c-4.043-9.082-3.555-19.188-0.117-28.355
		C3840.945,2770.488,3874.055,2762.137,3892.504,2753.941z"/>
	<path style="fill:#FFFFFF;" d="M3880.453,2791.992l5.004-0.246c1.328,7.91,0.383,24.461-3.422,31.496l-8.961-3.809l-6.863-5.297
		c-4.234-4.367-4.594-6.535-4.039-12.379C3867.691,2796.195,3873.133,2794.496,3880.453,2791.992z"/>
	<path d="M3817.32,2610.352c1.539-0.551,3.348-1.285,4.977-1.43c6.711-0.605,9.863,2.027,14.617,6.242
		c18.426,16.332,47.242,42.242,49.055,67.777c-9.727,12.496-24.707,19.133-38.426,26.391c-9.266,4.117-17.992,7.18-28.207,7.258
		c-13.52-7.863-29.949-33.207-38.02-46.883C3786.297,2650.984,3801.34,2621.684,3817.32,2610.352z"/>
	<path style="fill:#FFFFFF;" d="M3823.477,2647.461l5.305-0.121c9.91,7.363,17.523,14.273,20.844,26.488
		c-2.621,4.793-6.02,5.894-10.758,7.984l-6.836,1.957c-7.969-3.344-12.992-11.531-17.164-18.73
		C3816.199,2657.57,3819.012,2653.508,3823.477,2647.461z"/>
	<path d="M3689.379,2721.106c13.938-0.055,25.555-0.422,38.738,5.25c16.719,7.195,31.547,24.117,37.332,41.273
		c6.277,18.605,4.984,37.527-4.313,54.875c-11.438,21.348-29.098,31.52-51.547,38.543c-16.078,1.523-30.391,1.32-44.551-7.418
		c-18.117-11.184-31.602-30.832-35.617-51.703c-3.336-17.324,0.969-35.578,10.758-50.141
		C3652.66,2733.223,3668.258,2725.496,3689.379,2721.106z"/>
	<path style="fill:#FFFFFF;" d="M3685.36,2748.352c9.597-1.399,20.16-1.867,29.484,1.164c10.555,3.43,19.012,12.953,23.66,22.789
		c5.371,11.363,6.391,21.168,2.137,32.961c-5.203,14.43-15.926,22.004-29.254,28.375c-8.621,1.676-19.223,2.227-27.625-0.613
		c-9.957-3.363-20.476-14.246-25.125-23.457c-5.125-10.16-5.453-23.453-1.539-34.035
		C3662.387,2761.223,3672.215,2754.641,3685.36,2748.352z"/>
	<path style="fill:#FFFFFF;" d="M3190.629,2821.121c64.047-3.719,128.629,18.934,177.734,60.066
		c51.047,42.762,84.855,109.258,90.219,175.559c5.641,69.777-14.301,142.055-60.242,195.531
		c-48.32,56.238-114.086,83.395-186.914,88.633c-62.555,4.227-127.254-19.844-174.809-59.965
		c-52.781-44.523-88.426-112.246-93.117-181.488c-4.653-68.688,18.711-136.727,63.926-188.48
		C3056.008,2855.359,3117.438,2826.434,3190.629,2821.121z"/>
	<path d="M3190.734,2846.512c53.715-3.848,112.883,16.309,155.066,49.094c48.531,37.722,79.238,96.804,86.609,157.304
		c7.309,60.027-8.613,122.215-46.266,169.77c-42.883,54.16-97.668,84.02-165.754,91.758c-56.52,0.688-112.969-10.898-157.98-47.379
		c-50.117-40.621-84.313-98.055-90.848-162.832c-5.516-54.715,10.898-122.711,46.418-165.387
		C3063.973,2883.59,3119.324,2853.012,3190.734,2846.512z"/>
	<path style="fill:#FFFFFF;" d="M3194.656,2879.793c15.129-0.641,32.035,0.347,46.793,3.879
		c28.625,6.848,52.656,16.352,76.625,33.891c41.137,30.106,71.051,76.797,78.648,127.578c8.484,56.707-3.344,114.645-38.512,160.723
		c-34.668,45.422-86.977,65.664-141.742,73.367c-49.793,0.652-99.449-9.578-138.355-42.656
		c-39.832-33.867-68.734-83.273-72.531-135.98c-3.777-52.445,9.598-107.441,44.859-147.66
		C3089.441,2908.441,3135.496,2884.027,3194.656,2879.793z"/>
	<path d="M3190.523,3014.152c16.066-0.887,29.141-0.52,44.113,6.449c15.645,7.281,26.578,20.344,32.172,36.637
		c5.836,16.988,3.535,36.48-4.629,52.309c-10.059,19.504-26.27,30.09-46.574,36.734c-14.793,0.5-26.867,0.43-40.801-5.547
		c-16.227-6.961-29.672-21.102-35.332-37.871c-6.543-19.375-3.32-40.262,6.414-57.934
		C3155.551,3027.387,3172.164,3019.492,3190.523,3014.152z"/>
	<path style="fill:#FFFFFF;" d="M3193.398,3045.063c5.262-0.219,10.996-0.676,16.172,0.473c8.965,1.988,16.711,8.91,21.496,16.492
		c4.848,7.679,6.637,15.726,4.164,24.586c-3.836,13.75-12.383,21.371-24.559,28.074c-4.926,0.309-10.266,0.828-15.113-0.297
		c-10.301-2.398-19.578-9.992-24.242-19.418c-4.133-8.352-4.375-18.84-1.449-27.59
		C3173.699,3055.934,3182.996,3050.063,3193.398,3045.063z"/>
	<path style="fill:#FFFFFF;" d="M1371.309,2821.098c59.523-8.922,128.625,15.723,175.965,50.738
		c56.551,41.832,90.211,103.488,99.801,172.738c9.18,66.254-9.09,138.074-49.699,191.477
		c-44.125,58.027-108.766,96.156-180.871,105.617c-27.316,1.043-53.949,0.703-80.828-4.754
		c-67.625-13.734-126.445-57.117-163.726-114.773c-33.293-51.492-50.121-129.566-36.371-189.981
		c10.32-45.347,26.293-81.301,56.289-117.215C1237.965,2859.754,1299.824,2827.559,1371.309,2821.098z"/>
	<path d="M1365.316,2846.402c56.285-6.844,116.582,9.285,161.402,43.992c51.262,39.692,84.695,93.246,93.047,157.969
		c8.07,62.531-7.992,124.754-47.043,174.418c-40.352,51.32-93.582,83.105-158.18,90.789c-56.953,5.336-113.156-8.336-159.66-42.258
		c-48.484-35.363-84.375-93.855-93.789-153.113c-9.727-61.215,3.883-125.371,40.852-175.566
		C1243.004,2886.879,1297.473,2856.383,1365.316,2846.402z"/>
	<path style="fill:#FFFFFF;" d="M1379.906,2879.676c10.68-0.898,21.578-0.066,32.203,1.246c50.25,6.211,99.375,33.266,130.602,73.18
		c31.68,40.496,48.559,93.063,42.176,144.512c-4.754,38.336-16.844,72.828-40.41,103.813
		c-35.543,46.73-81.902,67.512-138.566,75.008c-50.504,0.625-95.266-6.887-135.43-39.641
		c-43.148-35.191-71.016-82.539-76.32-138.438c-4.879-51.402,10.234-106.738,43.719-146.504
		C1275.363,2908.336,1322.305,2884.914,1379.906,2879.676z"/>
	<path d="M1382.426,3008.383c14.914-1.09,27.949,0.375,41.402,7.203c17.535,8.898,28.863,23.676,34.66,42.281
		c5.883,18.887,2.047,39.422-7.594,56.391c-11.457,20.164-28.508,29.313-50.32,34.793c-16.965,1.617-33.59-1.785-48.035-11.121
		c-14.73-9.523-27.578-25.262-31.039-42.781c-3.715-18.808-0.012-39.07,10.555-55.047
		C1344.426,3021.391,1361.207,3012.98,1382.426,3008.383z"/>
	<path style="fill:#FFFFFF;" d="M1381.945,3043.945c5.48-0.98,9.563-1.129,15.019,0.234c10.305,2.586,20.406,10.117,25.207,19.707
		c3.957,7.906,4.133,17.578,1.07,25.805c-4.426,11.895-13.789,18.348-24.855,23.398c-6.184,0.34-12.129,0.219-18.129-1.531
		c-10.078-2.941-18.25-11.125-22.563-20.547c-3.508-7.648-3.418-17.855-0.074-25.582
		C1362.078,3055.125,1371.801,3047.926,1381.945,3043.945z"/>
	<path style="fill:#FFFFFF;" d="M2599.281,2815.313c67.477,1.672,122.996,22.332,174.273,66.777
		c53.137,46.055,84.492,114.457,88.984,184.316c4.469,69.43-19.406,139.703-65.844,191.695
		c-47.105,52.738-113.492,79.922-183.168,83.688c-59.664,0.738-116.918-18.406-163.781-55.453
		c-59.363-46.926-93.531-108.703-102.715-183.797l-0.864-7.445c-6.406-66.254,17.902-138.543,61.336-188.715
		C2458.148,2847.879,2523.543,2820.629,2599.281,2815.313z"/>
	<path d="M2593.035,2844.57c20.449-1.063,42,0.801,61.973,5.293c58.68,13.203,111.261,51.824,143.004,102.535
		c25.328,40.469,36.988,84.27,36.539,131.988c-0.129,13.57-0.121,27.52-3.344,40.758c-9.176,37.695-23.492,73.949-47.742,104.687
		c-41.312,52.36-96.035,76.867-160.984,84.567c-59.203,1.105-112.816-11.73-158.555-51.188
		c-50.605-43.652-84.515-103.836-88.602-171.414c-3.641-60.199,13.469-120.223,53.848-165.918
		C2472.262,2877.113,2528.273,2848.672,2593.035,2844.57z"/>
	<path style="fill:#FFFFFF;" d="M2586.852,2877.629c48.059-2.473,91.824,9.484,131.129,37.941
		c41.484,30.039,73.352,79.641,80.688,130.703c7.703,53.605-2.516,112.234-35.98,156.012c-35.34,46.23-80.305,69.121-137.215,76.785
		c-49.375,2.219-96.148-9.625-136.25-39.301c-40.012-29.605-68.809-81.586-76.039-130.59c-7.957-53.98,4-111.129,37.301-154.859
		C2483.762,2910.613,2533.16,2884.816,2586.852,2877.629z"/>
	<path d="M2590.969,3013.852c12.824-1.5,25.063-1.086,36.961,4.359c17.824,8.152,32.34,22.84,39,41.398
		c5.406,15.063,3.934,34.5-3.035,48.789c-9.207,18.879-26.121,29.891-45.238,36.859c-13.457,1.566-25.93,0.578-38.578-4.59
		c-16.617-6.789-30.754-21.242-37-38.129c-5.926-16.02-5.023-36.02,2.352-51.391
		C2555.406,3030.359,2569.777,3020.887,2590.969,3013.852z"/>
	<path style="fill:#FFFFFF;" d="M2599.383,3045.898c6.484-1.508,12.805-0.152,18.68,2.863c8.184,4.195,15.555,12.699,18.207,21.551
		c2.754,9.18,1.32,17.77-3.617,25.953c-4.91,8.137-11.219,13.008-20.348,15.359c-5.098,0.461-11.871,0.926-16.789-0.586
		c-9.566-2.938-17.289-11.071-21.164-20.196c-3.094-7.281-3.285-17.398,0.16-24.578
		C2579.84,3055.141,2588.047,3049.824,2599.383,3045.898z"/>
	<path style="fill:#FFFFFF;" d="M771.57,2817.293c18.664-0.769,40.289-0.328,58.527,3.828c43.48,9.906,84.832,27.176,119.941,55.25
		c55.621,44.473,88.137,111.625,95.762,181.664c7.324,67.293-17.465,138.949-60.094,190.742
		c-45.953,55.828-113.648,85.434-184.453,92.48c-69.598,2.094-132.527-17.641-185.746-63.668
		c-53.109-45.934-84.074-112.273-88.879-181.738c-4.629-66.914,17.863-139.031,62.516-189.52
		C636.82,2852.426,699.805,2821.445,771.57,2817.293z"/>
	<path d="M767.965,2844.547c56.875-2.363,111.609,10.578,157.102,46.117c48.926,38.219,84.113,95.086,91.715,157.188
		c7.582,61.957-6.812,124.414-45.5,174.031c-40.398,51.816-97.414,82.414-162.203,90.559c-62.438,4.856-118.41-10.508-167.691-50
		c-52.016-41.68-81.188-98.508-87.527-164.383c-6.07-63.086,15.656-126.934,56.437-175.031
		C650.516,2875.594,706.609,2849.574,767.965,2844.547z"/>
	<path style="fill:#FFFFFF;" d="M774.207,2879.703l1.625-0.133c49.668-3.434,100.973,15.629,138.211,48.078
		c36.774,32.043,65.227,83.27,68.332,132.379c3.512,55.609-10.938,109.023-48.156,151.348c-36.797,41.844-84,61.375-138.813,64.852
		c-47.336,3.906-98.051-13.926-134.445-43.996c-41.457-34.25-66.734-82.773-71.328-136.254
		c-4.398-51.164,10.238-106.328,43.953-145.781C670.809,2906.637,717.394,2884.035,774.207,2879.703z"/>
	<path d="M777.125,3010.07c12.734-0.828,24.648,0.379,36.359,5.777c16.23,7.484,29.379,21.645,35.152,38.656
		c5.945,17.52,5.391,37.316-3.355,53.895c-9.945,18.848-26.637,28.504-46.305,34.469c-16.73,1.613-30.867-0.211-45.836-8.199
		c-15.699-8.371-27.519-23.699-31.906-40.953c-4.469-17.598-1.695-36.309,7.801-51.778
		C740.566,3023.148,756.488,3015.059,777.125,3010.07z"/>
	<path style="fill:#FFFFFF;" d="M775.426,3045.133c6.563-1.141,12.785-1.438,19.383-0.207c8.387,1.559,15.496,7.793,19.836,14.957
		c4.57,7.539,4.965,17.723,2.383,26.066c-3.82,12.336-10.82,17.535-22.051,23.07l-15.672-0.348
		c-9.078-1.305-17.016-7.27-21.891-14.895c-4.312-6.738-5.941-14.23-4.129-22.067
		C756.266,3058.813,764.582,3051.797,775.426,3045.133z"/>
	<path style="fill:#FFFFFF;" d="M1993.934,2811.352c66.496,1.551,126.688,19.453,178.234,63.242
		c50.688,43.063,83.906,110.867,88.977,176.996c5.418,70.653-16.074,141.934-62.582,195.711
		c-50.906,58.867-114.258,90.813-191.394,95.969c-18.801,0.707-40.633,0.078-58.988-4.156
		c-42.633-9.84-82.594-27.691-116.914-55.254c-53.07-42.614-88.488-111.289-94.43-178.965
		c-6.004-68.391,15.574-146.652,60.508-199.238C1848.461,2845.836,1916.77,2817.207,1993.934,2811.352z"/>
	<path d="M1971.691,2842.496c61-5.199,118.535,6.879,168.227,43.895c47.48,35.375,81.91,93.945,90.406,152.547
		c9.684,66.789-7.047,129.445-47.762,182.941c-39.152,51.441-94.793,83.352-158.652,92.008
		c-63.496,4.488-118.344-8.168-169.937-46.871c-49.816-37.367-80.461-94.231-89.102-155.637
		c-8.324-59.168,5.848-125.117,42.66-172.863C1849.996,2883.434,1902.777,2851.551,1971.691,2842.496z"/>
	<path style="fill:#FFFFFF;" d="M1982.418,2877.68c46.645-2.453,93.578,7.371,131.832,35.379
		c46.91,34.348,73.246,80.992,81.418,138.137c7.387,51.641-9.375,107.223-40.778,148.371
		c-36.23,47.469-82.633,71.527-141.062,79.027c-49.109,2.082-95.992-9.559-135.621-39.613
		c-43.57-33.047-71.336-81.313-78.234-135.441c-6.762-53.039,7.832-108.492,41.098-150.324
		C1875.965,2909.332,1927.211,2883.875,1982.418,2877.68z"/>
	<path d="M1999.625,3010.215c15.297-0.918,29.91,2.043,43.113,10.066c14.942,9.082,26.391,24.234,30.328,41.297
		c4.105,17.793,1.098,38.574-9.207,53.75c-12.434,18.312-28.364,26.531-49.723,31.035c-16.141,0.453-30.434-2.898-44.293-11.41
		c-15.379-9.441-26.621-24.89-30.113-42.679c-3.527-17.965-0.09-37.59,10.031-52.832
		C1961.883,3021.184,1979.082,3014.144,1999.625,3010.215z"/>
	<path style="fill:#FFFFFF;" d="M2004.313,3043.344c7.398,0.516,14.18,0.938,20.777,4.637c7.711,4.316,14.02,11.742,16.02,20.488
		c1.969,8.629,1.067,19.699-3.914,27.148c-6.539,9.777-14.254,14.434-25.562,16.965c-5.926-0.395-12.785-0.516-18.332-2.84
		c-8.504-3.559-16.105-13.636-18.836-22.238c-2.531-7.981-1.824-17.664,2.383-25.004
		C1983.059,3051.66,1992.672,3046.488,2004.313,3043.344z"/>
	<path style="fill:#FFFFFF;" d="M2223.57,1378.113l24.176-1.48l26.305,35.703l-225.406-0.594
		c-28.703,0.156-61.055-2.816-89.102,1.68c-4.785,0.77-8.793,2.16-12.012,6.082c-3.426,4.18-5.004,10.02-5.449,15.313
		c-1.242,14.738-0.234,30.352-0.203,45.172l0.301,84.145l1.113,261.348l-942.859-69.105l-124.59-12.531l125.508-278.313
		c11.023-2.848,24.297-2.453,35.758-3.391l80.73-5.664l222.957-15.938l526.66-38.465L2223.57,1378.113z"/>
	<path style="fill:#FFFFFF;" d="M309.891,2499.023c22.526-2.957,51.32-0.711,72.749,6.926
		c37.958,13.523,69.146,38.973,103.154,59.766l155.461,93.176c22.777,13.777,133.621,86.586,150.875,87.387
		c23.133,1.074,46.961-0.554,70.176-0.602l150.977,0.184l475.227,0.512l619.035,1.984l523.215-0.316l401.398-1.109
		c70.402-0.148,144.055-4.484,214.051,2.105c4.828,0.453,9.633-5.574,13.004-8.969c87.524-88.168,188.781-187.043,313-217.441
		c-62.883,34.063-112.375,84.086-141.016,150.145c-23.191,53.492-28.004,118.926-13.781,175.34
		c5.02,19.914,13.434,39.164,20.969,58.238c-33.598-44.188-72.402-77.153-124.672-96.934
		c-74.254-28.105-159.758-29.148-232.535,4.402c-69.805,32.18-128.359,93.004-154.82,165.785
		c-27.605,75.938-22.301,156.449,11.949,229.359c30.527,64.984,88.27,121.496,156.27,146.129l-371.801-1
		c7.832-8.316,27.644-14.547,37.969-20.867c28.02-17.152,53.477-42.73,73.613-68.508c49.367-63.184,71.898-145.871,61.16-225.371
		c-10.332-76.508-53.601-150.008-115.035-196.469c-64.168-48.531-143.82-69.055-223.477-57.332
		c-75.438,11.098-143.328,51.637-188.707,113.078c-52.68,71.32-65.129,147.367-52.418,234.035l16.926,57.121
		c29.488,77.332,88.117,130.848,162.504,164.012c-10.926,1.859-24.27,0.453-35.457,0.402l-74.164-0.316l-270.684-0.539
		c60.277-26.645,110.91-73.188,143.785-130.391c36.668-63.809,51.465-148.559,31.895-220.012
		c-22.386-81.758-71.852-148.031-145.813-189.98c-67.715-38.406-153.039-47.336-227.777-26.43
		c-72.059,20.16-139.988,72.633-176.297,138.153c-40.055,72.277-52.902,156.328-29.617,236.457
		c19.469,66.977,59.84,125.969,118.414,164.441c16.656,10.938,34.309,18.801,51.695,28.301l-380.531,1.551
		c3.008-3.125,9.793-5.309,13.75-7.262c9.004-4.438,17.934-8.988,26.508-14.223c52.059-31.797,94.848-79.941,119.148-135.984
		c30.945-71.359,31.418-160.164,2.715-232.313c-27.969-70.305-84.344-128.109-153.914-157.637
		c-70.395-29.871-155.68-32.367-226.738-3.297c-74.105,30.317-134.426,89.801-164.738,163.953
		c-29.871,73.054-30.594,152.586,0.164,225.57c30.766,72.996,86.676,130.316,160.102,160.484
		c-12.754,1.656-26.496,0.445-39.352,0.305l-77.27-0.734l-266.211-0.371c30.891-12.946,61.621-26.559,86.629-49.391
		c62.289-56.879,98.074-128.16,101.445-212.574c3.316-82.988-27.566-157.929-83.891-218.273
		c-49.633-53.18-126.258-87.84-198.894-90.602c-20.676-0.785-41.992-1.078-62.492,1.84c-66.203,9.422-121.586,42.98-169.879,87.867
		l11.519-67.121c5.098-75.184-16.105-148.848-66.582-205.375C462.43,2543.91,385.989,2503.594,309.891,2499.023z"/>
	<path style="fill:#FFFFFF;" d="M432.055,1920.898c53.867,4.262,110.734,0.965,164.941,0.934l321.285-0.266l998.703-0.547
		l275.317-0.535c42.836-0.043,88.594-3.258,131.145,0.308c15.105,1.266,31.609,6.742,46.477,10.289l102.105,25.199l279.398,67.824
		l380.664,91.469c75.648,17.516,153.641,31.871,228.156,53.402c-9.977,2.785-29.414-0.234-40.367-0.223l-148.414,0.625
		l-2922.939,0.336c10.51-16.988,23.941-32.684,35.777-48.813l68.236-93.355C378.671,1992.188,402.516,1953.473,432.055,1920.898z"/>
	<path style="fill:#FFFFFF;" d="M494.016,2471.672L3627.93,2473c-2.348,2.93-51.098,8.852-58.043,10.32
		c-59.512,12.582-114.656,39.641-164.523,73.969c-35.199,24.441-71.32,53.301-102.383,82.844
		c-23.121,21.992-45.262,47.715-70.359,67.238l-554.441,0.93l-1204.867-0.563l-512.449-0.188l-128.898,0.098
		c-9.797,0.031-26.359,2.719-35.348,0.859c-7.27-1.504-17.563-9.559-24.262-13.496l-84.625-51.457
		c-92.574-56.371-188.742-109.246-277.93-170.746L494.016,2471.672z"/>
	<path style="fill:#FFFFFF;" d="M4000,1569.73v1145.875c-5.039-15.398-8.672-30.965-14.805-46.043
		c-26.055-63.762-69.805-110.004-127.16-146.75c-0.453-4.066-0.648-8.262-2.965-11.801c-4.141-6.332-11.703-10.324-18.191-13.773
		c-20.914-11.105-43.059-17.469-65.547-24.477l99.051-1.816c13.511-0.008,42.195,3.352,53.445-2.531
		c5.547-2.895,9.961-7.703,11.289-13.883c0.898-4.242,0.586-8.086-1.094-12.09c-7.656-18.297-23.242-36.172-34.461-52.695
		l-55.465-83.762c-9.633-14.445-23.309-41.152-38.875-48.48c-12.879-6.059-27.668-10.172-41.172-14.82l-79.75-26.887l-129.75-42.945
		l-183.566-43.137l-283.094-67.027l-499.121-121.625l-242.98-57.043l-0.125-65.578l75.344-0.371
		c6.172-0.055,21.09,1.238,26.258-1.836c1.855-1.105,3.254-2.836,4.883-4.254c4.957-12.246,2.984-27.965,3.012-41.051l-0.074-76.93
		l362.754-11.25l505.238-16.789c24.117-0.867,212.93-10.578,217.887-8.012c1.449,0.75,0.484,3.23,0.734,4.848
		c3.238,20.777,6.961,40.391,24.871,53.934c14.262,10.785,31.75,16.508,49.641,13.512c19.172-3.207,33.805-17.57,44.629-32.738
		c0.469-0.656,0.645-1.664,1.383-1.98c0.93-0.398,6.848-0.156,8.258-0.187l30.301-0.703l135.891-4.188
		c22.586-0.723,48.059,0.656,70.203-3.359c15.898-2.883,31.953-10.379,44.922-20.02
		C3983.867,1643.246,3994.844,1607.656,4000,1569.73z"/>
</g>
</svg>
