<?xml version="1.0" encoding="utf-8"?>
<!-- Generator: Adobe Illustrator 27.5.0, SVG Export Plug-In . SVG Version: 6.00 Build 0)  -->
<svg xmlns="http://www.w3.org/2000/svg" xmlns:xlink="http://www.w3.org/1999/xlink" viewBox="0 0 500 500" width="595" height="842" preserveAspectRatio="xMidYMid meet" data-scaled="true">
<g id="BACKGROUND">
	<rect style="fill:#FFFFFF;" width="500" height="500"/>
</g>
<g id="OBJECTS">
	<g>
		<path style="fill:#FFFFFF;stroke:#231F20;stroke-width:2;stroke-linecap:round;stroke-linejoin:round;stroke-miterlimit:10;" d="
			M418.275,79.779c3.093-10.537-1.474-22.846-10.692-28.816c-9.217-5.969-21.4-5.813-29.75,1.319
			c3.479-7.282,0.886-16.918-5.777-21.471c-6.663-4.553-17.829-4.697-23.349,1.189c-5.86-8.204-17.014-12.213-26.756-9.617
			c-9.742,2.596-16.394,11.871-17.394,21.903c-9.631-2.965-20.766-0.38-28.106,6.525c-7.34,6.905-10.599,17.861-8.227,27.655
			L418.275,79.779z"/>
		<g>
			
				<circle style="fill:#FFFFFF;stroke:#231F20;stroke-width:2;stroke-linecap:round;stroke-linejoin:round;stroke-miterlimit:10;" cx="59.407" cy="63.297" r="19.09"/>
			<g>
				<g>
					
						<path style="fill:#FFFFFF;stroke:#231F20;stroke-width:2;stroke-linecap:round;stroke-linejoin:round;stroke-miterlimit:10;" d="
						M62.105,34.257h-5.396V16.687c0-1.49,1.208-2.698,2.698-2.698l0,0c1.49,0,2.698,1.208,2.698,2.698V34.257z"/>
					
						<path style="fill:#FFFFFF;stroke:#231F20;stroke-width:2;stroke-linecap:round;stroke-linejoin:round;stroke-miterlimit:10;" d="
						M62.105,93.988h-5.396v17.57c0,1.49,1.208,2.698,2.698,2.698l0,0c1.49,0,2.698-1.208,2.698-2.698V93.988z"/>
				</g>
				<g>
					
						<path style="fill:#FFFFFF;stroke:#231F20;stroke-width:2;stroke-linecap:round;stroke-linejoin:round;stroke-miterlimit:10;" d="
						M81.865,44.251l-3.925-3.703l12.057-12.779c1.023-1.084,2.73-1.133,3.814-0.111l0,0c1.084,1.023,1.133,2.73,0.111,3.814
						L81.865,44.251z"/>
					
						<path style="fill:#FFFFFF;stroke:#231F20;stroke-width:2;stroke-linecap:round;stroke-linejoin:round;stroke-miterlimit:10;" d="
						M40.874,87.697l-3.925-3.703L24.891,96.773c-1.023,1.084-0.973,2.792,0.111,3.814l0,0c1.084,1.023,2.792,0.973,3.814-0.111
						L40.874,87.697z"/>
				</g>
				<g>
					
						<path style="fill:#FFFFFF;stroke:#231F20;stroke-width:2;stroke-linecap:round;stroke-linejoin:round;stroke-miterlimit:10;" d="
						M89.272,66.821v-5.396h17.569c1.49,0,2.698,1.208,2.698,2.698l0,0c0,1.49-1.208,2.698-2.698,2.698H89.272z"/>
					
						<path style="fill:#FFFFFF;stroke:#231F20;stroke-width:2;stroke-linecap:round;stroke-linejoin:round;stroke-miterlimit:10;" d="
						M29.541,66.821v-5.396H11.972c-1.49,0-2.698,1.208-2.698,2.698l0,0c0,1.49,1.208,2.698,2.698,2.698H29.541z"/>
				</g>
				<g>
					
						<path style="fill:#FFFFFF;stroke:#231F20;stroke-width:2;stroke-linecap:round;stroke-linejoin:round;stroke-miterlimit:10;" d="
						M78.617,87.148l3.816-3.816l12.424,12.424c1.054,1.054,1.054,2.762,0,3.816l0,0c-1.054,1.054-2.762,1.054-3.816,0
						L78.617,87.148z"/>
					
						<path style="fill:#FFFFFF;stroke:#231F20;stroke-width:2;stroke-linecap:round;stroke-linejoin:round;stroke-miterlimit:10;" d="
						M36.381,44.912l3.816-3.816L27.773,28.673c-1.054-1.054-2.762-1.054-3.816,0l0,0c-1.054,1.054-1.054,2.762,0,3.816
						L36.381,44.912z"/>
				</g>
			</g>
		</g>
		<g>
			<g>
				<path style="fill:#FFFFFF;" d="M459.067,102.039c-0.553,0-1-0.448-1-1c0-15.664-7.777-29.201-18.492-32.188
					c-0.648-0.181-1.075-0.772-1.038-1.439c0.036-0.667,0.526-1.209,1.192-1.317c10.625-1.734,18.338-14.3,18.338-29.879
					c0-0.552,0.447-1,1-1c0.553,0,1,0.448,1,1c0,15.58,7.713,28.146,18.34,29.879c0.665,0.108,1.155,0.649,1.191,1.317
					c0.037,0.667-0.39,1.258-1.038,1.439c-10.716,2.987-18.493,16.523-18.493,32.188
					C460.067,101.591,459.62,102.039,459.067,102.039z"/>
				<path style="fill:#231F20;" d="M459.068,36.216c0,16.385,8.16,29.069,19.178,30.866c0.447,0.073,0.482,0.684,0.046,0.806
					c-11.041,3.077-19.224,16.743-19.224,33.151c0-16.407-8.183-30.073-19.224-33.151c-0.437-0.122-0.401-0.733,0.046-0.806
					C450.908,65.285,459.068,52.601,459.068,36.216 M459.068,34.216c-1.105,0-2,0.895-2,2c0,15.087-7.36,27.238-17.5,28.892
					c-1.132,0.185-1.966,1.109-2.029,2.249c-0.063,1.139,0.664,2.149,1.768,2.457c10.291,2.868,17.761,16,17.761,31.224
					c0,1.105,0.895,2,2,2c1.105,0,2-0.895,2-2c0-15.224,7.47-28.356,17.761-31.224c1.104-0.308,1.831-1.318,1.769-2.457
					c-0.063-1.14-0.898-2.065-2.03-2.249c-10.14-1.654-17.5-13.805-17.5-28.892C461.068,35.112,460.172,34.216,459.068,34.216
					L459.068,34.216z"/>
			</g>
		</g>
		<g>
			<g>
				<path style="fill:#FFFFFF;" d="M373.064,487.011c-0.553,0-1-0.447-1-1c0-11.345-7.748-21.164-18.424-23.349
					c-0.678-0.138-1.134-0.681-1.108-1.32c0.026-0.647,0.534-1.159,1.235-1.243c10.602-1.27,18.297-10.378,18.297-21.658
					c0-0.553,0.447-1,1-1c0.553,0,1,0.447,1,1c0,11.28,7.695,20.389,18.298,21.658c0.701,0.084,1.209,0.596,1.235,1.243
					c0.025,0.64-0.431,1.183-1.109,1.32c-10.675,2.185-18.424,12.004-18.424,23.349
					C374.064,486.564,373.617,487.011,373.064,487.011z"/>
				<path style="fill:#231F20;" d="M373.065,438.44c0,12.024,8.16,21.332,19.178,22.651c0.447,0.054,0.482,0.502,0.046,0.591
					c-11.041,2.258-19.224,12.287-19.224,24.328c0-12.04-8.183-22.069-19.224-24.328c-0.437-0.089-0.401-0.538,0.046-0.591
					C364.905,459.773,373.065,450.464,373.065,438.44 M373.065,436.44c-1.105,0-2,0.895-2,2c0,10.766-7.324,19.457-17.416,20.665
					c-1.179,0.141-2.069,1.064-2.116,2.194c-0.046,1.122,0.756,2.107,1.907,2.342c10.212,2.089,17.624,11.496,17.624,22.368
					c0,1.105,0.895,2,2,2c1.105,0,2-0.895,2-2c0-10.872,7.412-20.279,17.625-22.368c1.151-0.235,1.953-1.22,1.906-2.342
					c-0.047-1.13-0.936-2.053-2.115-2.194c-10.092-1.208-17.416-9.899-17.416-20.665C375.065,437.336,374.169,436.44,373.065,436.44
					L373.065,436.44z"/>
			</g>
		</g>
		<g>
			<g>
				<path style="fill:#FFFFFF;" d="M135.395,487.011c-0.552,0-1-0.447-1-1c0-11.345-7.749-21.164-18.424-23.349
					c-0.678-0.138-1.134-0.681-1.108-1.32c0.026-0.647,0.534-1.159,1.235-1.243c10.602-1.27,18.297-10.378,18.297-21.658
					c0-0.553,0.448-1,1-1c0.552,0,1,0.447,1,1c0,11.28,7.695,20.389,18.297,21.658c0.701,0.084,1.209,0.596,1.235,1.243
					c0.026,0.64-0.43,1.183-1.108,1.32c-10.675,2.185-18.424,12.004-18.424,23.349C136.395,486.564,135.947,487.011,135.395,487.011
					z"/>
				<path style="fill:#231F20;" d="M135.395,438.44c0,12.024,8.16,21.332,19.178,22.651c0.447,0.054,0.482,0.502,0.046,0.591
					c-11.041,2.258-19.224,12.287-19.224,24.328c0-12.04-8.183-22.069-19.224-24.328c-0.437-0.089-0.401-0.538,0.046-0.591
					C127.235,459.773,135.395,450.464,135.395,438.44 M135.395,436.44c-1.105,0-2,0.895-2,2c0,10.766-7.324,19.457-17.416,20.665
					c-1.179,0.141-2.069,1.064-2.116,2.194c-0.046,1.122,0.756,2.107,1.907,2.342c10.212,2.089,17.625,11.496,17.625,22.368
					c0,1.105,0.895,2,2,2s2-0.895,2-2c0-10.872,7.412-20.279,17.625-22.368c1.151-0.235,1.953-1.22,1.906-2.342
					c-0.047-1.13-0.936-2.053-2.115-2.194c-10.092-1.208-17.416-9.899-17.416-20.665C137.395,437.336,136.5,436.44,135.395,436.44
					L135.395,436.44z"/>
			</g>
		</g>
		<path style="fill:#FFFFFF;stroke:#231F20;stroke-width:2;stroke-linecap:round;stroke-linejoin:round;stroke-miterlimit:10;" d="
			M63.343,155.523c-3.456-4.186-8.965-6.572-14.004-5.563c-4.987,0.999-9.15,5.556-9.473,10.909
			c-3.422-4.129-9.474-5.348-14.088-3.208c-4.662,2.162-7.697,7.341-8.014,12.76c-0.317,5.419,1.896,10.932,5.478,14.999
			c3.572,4.055,8.372,6.723,13.333,8.395c4.854,1.637,9.9,2.385,14.921,3.109c0,0,0.102,0.022,0.165,0.024
			c0.039-0.031,0.119-0.117,0.119-0.117c3.624-3.549,7.254-7.133,10.204-11.321c3.015-4.279,5.313-9.267,5.8-14.649
			C68.271,165.464,66.8,159.709,63.343,155.523z"/>
		<path style="fill:#FFFFFF;stroke:#231F20;stroke-width:2;stroke-linecap:round;stroke-linejoin:round;stroke-miterlimit:10;" d="
			M445.117,155.523c3.456-4.186,8.965-6.572,14.004-5.563c4.987,0.999,9.15,5.556,9.473,10.909
			c3.422-4.129,9.474-5.348,14.088-3.208c4.663,2.162,7.697,7.341,8.014,12.76c0.317,5.419-1.896,10.932-5.478,14.999
			c-3.572,4.055-8.372,6.723-13.332,8.395c-4.854,1.637-9.9,2.385-14.921,3.109c0,0-0.102,0.022-0.165,0.024
			c-0.039-0.031-0.119-0.117-0.119-0.117c-3.624-3.549-7.254-7.133-10.204-11.321c-3.015-4.279-5.313-9.267-5.8-14.649
			C440.19,165.464,441.66,159.709,445.117,155.523z"/>
	</g>
	<g>
		<g>
			<g>
				<g>
					
						<path style="fill:#FFFFFF;stroke:#231F20;stroke-width:2;stroke-linecap:round;stroke-linejoin:round;stroke-miterlimit:10;" d="
						M71.011,306.073c-5.18,7.976-16.438,10.611-25.386,7.387c-8.948-3.223-15.548-11.265-18.948-20.147
						c-3.4-8.882-3.972-18.585-3.851-28.095c0.067-5.224,0.513-10.909,4.023-14.778c3.615-3.984,9.907-4.899,14.875-2.836
						c4.968,2.063,8.594,6.684,10.29,11.789c1.696,5.105,1.632,10.655,0.75,15.961c-0.486,2.922-1.215,5.829-1.2,8.791
						c0.015,2.962,0.891,6.079,3.105,8.047c2.379,2.114,5.933,2.517,9.003,1.68s5.734-2.753,8.125-4.853
						C71.768,293.902,71.041,301.19,71.011,306.073z"/>
					<g>
						<g>
							<path style="fill:#231F20;" d="M33.749,258.917c-0.482,0-0.906-0.348-0.986-0.838c-0.338-2.065-0.767-3.934-1.312-5.713
								c-0.161-0.528,0.136-1.087,0.664-1.249c0.526-0.162,1.087,0.135,1.249,0.664c0.57,1.866,1.019,3.82,1.372,5.975
								c0.089,0.545-0.28,1.059-0.825,1.148C33.857,258.913,33.802,258.917,33.749,258.917z"/>
						</g>
						<g>
							<path style="fill:#231F20;" d="M43.874,304.281c-0.255,0-0.511-0.098-0.707-0.292c-1.455-1.452-2.714-3.068-3.744-4.806
								c-1.016-1.713-1.893-3.608-2.607-5.633c-0.184-0.522,0.089-1.093,0.61-1.276c0.52-0.18,1.092,0.091,1.275,0.61
								c0.671,1.902,1.492,3.678,2.442,5.279c0.944,1.593,2.1,3.076,3.436,4.409c0.391,0.391,0.392,1.023,0.002,1.414
								C44.387,304.183,44.13,304.281,43.874,304.281z M35.372,282.61c-0.508,0-0.943-0.386-0.994-0.902
								c-0.176-1.787-0.305-3.684-0.405-5.969c-0.056-1.268-0.1-2.539-0.144-3.811l-0.077-2.142
								c-0.021-0.553,0.41-1.017,0.962-1.037c0.541-0.045,1.016,0.409,1.037,0.961l0.076,2.148c0.044,1.267,0.088,2.531,0.144,3.793
								c0.099,2.248,0.225,4.11,0.397,5.861c0.054,0.549-0.348,1.039-0.897,1.093C35.438,282.608,35.405,282.61,35.372,282.61z"/>
						</g>
						<g>
							<path style="fill:#231F20;" d="M57.192,310.316c-1.081,0-2.174-0.109-3.272-0.33c-0.542-0.108-0.892-0.636-0.784-1.177
								c0.108-0.542,0.633-0.898,1.177-0.784c1.893,0.38,3.766,0.388,5.566,0.024c0.543-0.112,1.068,0.241,1.178,0.782
								c0.109,0.542-0.241,1.069-0.783,1.179C59.263,310.214,58.233,310.316,57.192,310.316z"/>
						</g>
					</g>
				</g>
				<g>
					
						<path style="fill:#FFFFFF;stroke:#231F20;stroke-width:2;stroke-linecap:round;stroke-linejoin:round;stroke-miterlimit:10;" d="
						M122.057,341.469c5.54-23.059,7.532-46.967,5.885-70.625c-0.939-13.486-3.565-27.929-13.278-37.33
						c-7.459-7.22-18.646-10.36-28.773-8.076c-10.662,2.405-19.538,10.421-24.581,20.118c-5.043,9.697-6.57,20.915-6.11,31.836
						c0.46,10.92,2.811,21.662,5.153,32.338c2.223,10.132,4.446,20.264,6.669,30.397
						C85.042,340.307,104.037,341.289,122.057,341.469z"/>
					<g>
						<g>
							<g>
								<path style="fill:#231F20;" d="M104.607,232.456c-0.292,0-0.582-0.128-0.78-0.374c-1.239-1.541-2.598-2.944-4.039-4.169
									c-0.42-0.358-0.472-0.989-0.114-1.41c0.357-0.42,0.988-0.472,1.41-0.114c1.537,1.307,2.984,2.801,4.302,4.44
									c0.346,0.43,0.278,1.06-0.153,1.406C105.049,232.384,104.827,232.456,104.607,232.456z"/>
							</g>
							<g>
								<path style="fill:#231F20;" d="M113.754,320.157c-0.031,0-0.062-0.001-0.094-0.004c-0.55-0.052-0.954-0.539-0.903-1.089
									c0.344-3.699,0.638-7.457,0.872-11.17c0.035-0.552,0.508-0.962,1.061-0.936c0.551,0.035,0.97,0.51,0.935,1.061
									c-0.235,3.733-0.531,7.512-0.877,11.23C114.7,319.768,114.265,320.157,113.754,320.157z M115.17,297.734
									c-0.011,0-0.022,0-0.034-0.001c-0.552-0.017-0.985-0.48-0.966-1.032c0.124-3.714,0.194-7.482,0.208-11.202
									c0.002-0.551,0.449-0.996,1-0.996c0.001,0,0.002,0,0.003,0c0.553,0.002,0.998,0.451,0.997,1.004
									c-0.014,3.738-0.084,7.527-0.209,11.261C116.151,297.308,115.707,297.734,115.17,297.734z M115.251,275.268
									c-0.54,0-0.985-0.431-0.999-0.974c-0.042-1.605-0.095-3.21-0.157-4.815c-0.097-2.48-0.202-4.503-0.332-6.365
									c-0.039-0.551,0.377-1.028,0.928-1.067c0.541-0.034,1.029,0.377,1.067,0.928c0.131,1.883,0.238,3.925,0.335,6.426
									c0.063,1.614,0.115,3.228,0.158,4.841c0.015,0.552-0.421,1.012-0.973,1.026
									C115.269,275.268,115.259,275.268,115.251,275.268z M113.392,252.9c-0.471,0-0.89-0.333-0.981-0.813
									c-0.343-1.802-0.754-3.548-1.219-5.19c-0.528-1.861-1.155-3.67-1.864-5.378c-0.212-0.51,0.03-1.095,0.539-1.307
									c0.511-0.211,1.096,0.03,1.307,0.54c0.74,1.78,1.393,3.665,1.941,5.6c0.482,1.699,0.906,3.502,1.26,5.361
									c0.104,0.543-0.252,1.066-0.795,1.17C113.517,252.894,113.454,252.9,113.392,252.9z"/>
							</g>
							<g>
								<path style="fill:#231F20;" d="M111.766,337.281c-0.046,0-0.093-0.003-0.14-0.01c-0.547-0.076-0.929-0.581-0.852-1.128
									c0.275-1.977,0.535-3.953,0.778-5.934c0.068-0.549,0.571-0.947,1.115-0.87c0.548,0.067,0.938,0.566,0.871,1.114
									c-0.245,1.99-0.506,3.979-0.783,5.965C112.685,336.919,112.257,337.281,111.766,337.281z"/>
							</g>
						</g>
						<g>
							<g>
								<path style="fill:#231F20;" d="M77.561,235.286c-0.194,0-0.391-0.057-0.563-0.174c-0.456-0.312-0.573-0.934-0.262-1.39
									c1.167-1.71,2.444-3.331,3.794-4.819c0.37-0.409,1.002-0.441,1.413-0.069c0.409,0.371,0.44,1.003,0.069,1.413
									c-1.288,1.421-2.508,2.97-3.624,4.604C78.194,235.133,77.88,235.286,77.561,235.286z"/>
							</g>
							<g>
								<path style="fill:#231F20;" d="M72.373,319.975c-0.472,0-0.892-0.335-0.982-0.816c-0.665-3.558-1.274-7.173-1.81-10.745
									c-0.082-0.546,0.294-1.056,0.84-1.138c0.541-0.076,1.056,0.294,1.137,0.841c0.533,3.549,1.138,7.141,1.798,10.675
									c0.102,0.543-0.256,1.065-0.799,1.167C72.496,319.969,72.434,319.975,72.373,319.975z M69.152,298.499
									c-0.502,0-0.935-0.377-0.992-0.888c-0.407-3.593-0.754-7.242-1.032-10.848c-0.043-0.551,0.37-1.032,0.92-1.074
									c0.544-0.042,1.031,0.369,1.074,0.92c0.276,3.582,0.621,7.208,1.025,10.777c0.062,0.549-0.332,1.044-0.881,1.105
									C69.227,298.496,69.189,298.499,69.152,298.499z M67.558,276.841c-0.542,0-0.988-0.434-0.999-0.979
									c-0.02-0.955-0.03-1.909-0.03-2.863c0-2.859,0.093-5.505,0.285-8.086c0.041-0.551,0.511-0.971,1.071-0.923
									c0.551,0.041,0.964,0.521,0.923,1.071c-0.188,2.531-0.279,5.128-0.279,7.938c0,0.94,0.011,1.881,0.03,2.822
									c0.011,0.552-0.427,1.009-0.979,1.02C67.573,276.841,67.565,276.841,67.558,276.841z M69.315,255.238
									c-0.069,0-0.14-0.007-0.211-0.022c-0.54-0.116-0.884-0.647-0.769-1.188c0.793-3.7,1.873-7.247,3.209-10.544
									c0.207-0.512,0.79-0.758,1.303-0.551c0.512,0.207,0.758,0.791,0.551,1.303c-1.293,3.189-2.339,6.624-3.107,10.211
									C70.192,254.917,69.777,255.238,69.315,255.238z"/>
							</g>
							<g>
								<path style="fill:#231F20;" d="M75.938,336.463c-0.449,0-0.858-0.305-0.97-0.762c-0.479-1.948-0.938-3.902-1.378-5.861
									c-0.121-0.539,0.218-1.073,0.757-1.194c0.537-0.124,1.073,0.217,1.194,0.757c0.437,1.945,0.893,3.886,1.369,5.822
									c0.132,0.536-0.196,1.077-0.732,1.209C76.098,336.454,76.017,336.463,75.938,336.463z"/>
							</g>
						</g>
					</g>
					<g>
						<path style="fill:#231F20;" d="M80.009,294.378c-0.276,1.504-1.72,2.499-3.223,2.223s-2.499-1.719-2.223-3.223
							c0.276-1.504,1.719-2.499,3.223-2.223C79.291,291.431,80.286,292.874,80.009,294.378z"/>
						<path style="fill:#231F20;" d="M109.061,291.95c-0.276,1.504-1.719,2.499-3.223,2.223c-1.504-0.276-2.499-1.72-2.222-3.223
							c0.276-1.504,1.719-2.499,3.223-2.223C108.342,289.003,109.337,290.447,109.061,291.95z"/>
						<path style="fill:none;stroke:#231F20;stroke-width:2;stroke-linecap:round;stroke-linejoin:round;stroke-miterlimit:10;" d="
							M81.572,299.614c2.936,2.745,7,4.245,11.016,4.064c4.015-0.181,7.929-2.041,10.605-5.039"/>
					</g>
				</g>
			</g>
			<g>
				
					<path style="fill:#FFFFFF;stroke:#231F20;stroke-width:2;stroke-linecap:round;stroke-linejoin:round;stroke-miterlimit:10;" d="
					M66.706,234.323c-4.227-6.688-4.939-15.467-1.846-22.749c8.054,0.721,15.034,5.538,18.663,12.764
					C80.922,230.285,73.197,234.244,66.706,234.323z"/>
				
					<path style="fill:#FFFFFF;stroke:#231F20;stroke-width:2;stroke-linecap:round;stroke-linejoin:round;stroke-miterlimit:10;" d="
					M86.411,211.227c3.467,6.804,2.524,15.616-2.303,21.533c-4.827,5.917-13.27,8.61-20.632,6.58
					c-7.362-2.03-13.231-8.669-14.344-16.224c8.357-3.385,18.059-0.447,24.242,6.115c-0.114-4.161,0.979-8.298,3.382-11.697
					C79.16,214.134,82.45,212.507,86.411,211.227z"/>
			</g>
		</g>
		<g>
			<path style="fill:#FFFFFF;stroke:#231F20;stroke-width:2;stroke-linecap:round;stroke-linejoin:round;stroke-miterlimit:10;" d="
				M139.252,330.656c-0.654-2.411-3.368-3-5.677-2.607H82.106H30.638c-2.309-0.392-5.023,0.196-5.677,2.607
				c-2.792,10.296,2.245,23.059,10.754,28.669c-2.544,6.056-2.851,13.157-0.842,19.44c2.009,6.283,6.743,10.721,12.214,13.82
				c-0.494,9.766,3.12,19.687,9.652,26.499c6.533,6.812,16.296,9.996,25.368,9.175c9.072,0.821,18.836-2.363,25.368-9.175
				c6.533-6.812,10.147-16.733,9.652-26.499c5.471-3.098,10.204-7.536,12.214-13.82c2.009-6.283,1.702-13.384-0.842-19.44
				C137.007,353.715,142.044,340.952,139.252,330.656z"/>
			<g>
				
					<line style="fill:#FFFFFF;stroke:#231F20;stroke-linecap:round;stroke-linejoin:round;stroke-miterlimit:10;" x1="39.936" y1="358.304" x2="123.076" y2="358.304"/>
				
					<line style="fill:#FFFFFF;stroke:#231F20;stroke-linecap:round;stroke-linejoin:round;stroke-miterlimit:10;" x1="50.359" y1="391.746" x2="111.441" y2="391.746"/>
			</g>
		</g>
	</g>
	<g>
		<g>
			<g>
				
					<path style="fill:#FFFFFF;stroke:#231F20;stroke-width:2;stroke-linecap:round;stroke-linejoin:round;stroke-miterlimit:10;" d="
					M418.705,202.084c32.515,22.635,46.952,62.799,45.865,126.586l-95.564,0.594C371.166,268.933,382.837,220.445,418.705,202.084z"
					/>
				<path style="fill:#FFFFFF;stroke:#231F20;stroke-linecap:round;stroke-linejoin:round;stroke-miterlimit:10;" d="
					M399.36,266.251c-0.651-20.519,5.668-41.197,17.679-57.845c12.428,17.089,20.393,38.468,21.467,59.571"/>
				<g>
					<path style="fill:#231F20;" d="M402.883,290.487c-0.386,1.755-2.122,2.865-3.877,2.478c-1.755-0.386-2.865-2.122-2.478-3.877
						c0.386-1.755,2.122-2.865,3.877-2.478C402.16,286.996,403.269,288.732,402.883,290.487z"/>
					<path style="fill:#231F20;" d="M437.106,288.828c-0.386,1.755-2.122,2.865-3.877,2.478c-1.755-0.386-2.865-2.122-2.478-3.877
						c0.386-1.755,2.122-2.864,3.877-2.478C436.383,285.337,437.492,287.073,437.106,288.828z"/>
					<path style="fill:none;stroke:#231F20;stroke-width:2;stroke-linecap:round;stroke-linejoin:round;stroke-miterlimit:10;" d="
						M404.503,296.701c3.336,3.345,8.048,5.274,12.772,5.226c4.724-0.048,9.397-2.071,12.664-5.484"/>
				</g>
			</g>
			<g>
				<g>
					
						<path style="fill:#FFFFFF;stroke:#231F20;stroke-width:2;stroke-linecap:round;stroke-linejoin:round;stroke-miterlimit:10;" d="
						M378.17,342.371c-9.644-11.111-16.027-25.018-18.165-39.575c-2.138-14.556-0.024-29.712,6.017-43.127
						c14.541,4.358,24.002,18.085,28.568,32.562s4.316,29.971,4.025,45.148C392.885,339.107,383.899,340.644,378.17,342.371z"/>
					
						<line style="fill:#FFFFFF;stroke:#231F20;stroke-width:2;stroke-linecap:round;stroke-linejoin:round;stroke-miterlimit:10;" x1="370.21" y1="277.891" x2="387.766" y2="340.014"/>
				</g>
				<g>
					
						<path style="fill:#FFFFFF;stroke:#231F20;stroke-width:2;stroke-linecap:round;stroke-linejoin:round;stroke-miterlimit:10;" d="
						M455.076,342.371c9.644-11.111,16.027-25.018,18.166-39.575c2.138-14.556,0.024-29.712-6.017-43.127
						c-14.541,4.358-24.002,18.085-28.568,32.562c-4.565,14.477-4.316,29.971-4.024,45.148
						C440.361,339.107,449.347,340.644,455.076,342.371z"/>
					
						<line style="fill:#FFFFFF;stroke:#231F20;stroke-width:2;stroke-linecap:round;stroke-linejoin:round;stroke-miterlimit:10;" x1="463.036" y1="277.891" x2="445.479" y2="340.014"/>
				</g>
			</g>
		</g>
		<g>
			<path style="fill:#FFFFFF;stroke:#231F20;stroke-width:2;stroke-linecap:round;stroke-linejoin:round;stroke-miterlimit:10;" d="
				M416.623,328.669v0.063h-55.918l18.093,86.234c1.32,6.291,6.558,10.996,12.951,11.663c9.355,0.976,18.729,1.801,28.141,1.753
				c7.327-0.037,14.593-0.847,21.853-1.726c6.281-0.76,11.38-5.439,12.679-11.631l18.119-86.356H416.623z"/>
			<path style="fill:#FFFFFF;stroke:#231F20;stroke-linecap:round;stroke-linejoin:round;stroke-miterlimit:10;" d="M431.54,345.765
				c0,13.56-10.99,24.55-24.54,24.55c-13.56,0-24.54-10.99-24.54-24.55c0-6.61,2.62-12.62,6.89-17.03h27.27v-0.07h7.97
				C428.89,333.085,431.54,339.115,431.54,345.765z"/>
			<path style="fill:#FFFFFF;stroke:#231F20;stroke-linecap:round;stroke-linejoin:round;stroke-miterlimit:10;" d="M465.86,360.495
				l-11.44,54.53c-0.76,3.62-2.82,6.72-5.65,8.82c-15.72-2.51-27.73-16.14-27.73-32.56c0-18.22,14.77-32.98,32.98-32.98
				C458.2,358.305,462.19,359.085,465.86,360.495z"/>
			<path style="fill:#FFFFFF;stroke:#231F20;stroke-linecap:round;stroke-linejoin:round;stroke-miterlimit:10;" d="M410.21,405.935
				c0,9.67-6.11,17.91-14.68,21.08c-1.26-0.13-2.52-0.26-3.78-0.39c-6.39-0.66-11.63-5.37-12.95-11.66l-5.49-26.19
				c3.91-3.3,8.95-5.28,14.46-5.28C400.16,383.495,410.21,393.545,410.21,405.935z"/>
		</g>
	</g>
	<g>
		<g>
			<g>
				<g>
					<g>
						
							<path style="fill:#FFFFFF;stroke:#231F20;stroke-width:2;stroke-linecap:round;stroke-linejoin:round;stroke-miterlimit:10;" d="
							M216.888,257.304c-5.836-15.616-18.401-27.979-33.132-32.602c-14.731-4.622-31.315-1.405-43.731,8.483
							c7.224,13.932,19.622,25.172,33.658,29.413C187.718,266.839,204.234,265.229,216.888,257.304z"/>
						<path style="fill:none;stroke:#231F20;stroke-width:2;stroke-linecap:round;stroke-linejoin:round;stroke-miterlimit:10;" d="
							M159.528,235.419c18.716,0.964,37.811,7.868,57.36,21.884"/>
					</g>
					<g>
						
							<path style="fill:#FFFFFF;stroke:#231F20;stroke-width:2;stroke-linecap:round;stroke-linejoin:round;stroke-miterlimit:10;" d="
							M218.858,271.141c-8.953-10.871-12.135-26.239-8.234-39.771s14.773-24.849,28.139-29.287
							c5.532,11.809,6.274,26.41,2.987,39.029C238.464,253.732,229.449,263.532,218.858,271.141z"/>
						<path style="fill:none;stroke:#231F20;stroke-width:2;stroke-linecap:round;stroke-linejoin:round;stroke-miterlimit:10;" d="
							M229.955,222.627c-6.634,14.626-10.333,30.797-11.096,48.514"/>
					</g>
					<g>
						<path style="fill:#FFFFFF;stroke:#231F20;stroke-width:2;stroke-miterlimit:10;" d="M221.725,285.97
							c-1.851,0-3.579-1.15-4.235-2.983l-1.146-3.196c-0.206-0.576-0.288-1.166-0.259-1.741
							c-14.626-50.346-41.58-96.695-78.146-134.3c-1.733-1.782-1.693-4.631,0.089-6.363c1.782-1.733,4.63-1.694,6.363,0.089
							c38.736,39.837,66.979,89.217,81.675,142.803c0.64,2.332-0.679,4.753-2.985,5.481
							C222.631,285.902,222.174,285.97,221.725,285.97z"/>
					</g>
				</g>
				<g>
					<g>
						
							<path style="fill:#FFFFFF;stroke:#231F20;stroke-width:2;stroke-linecap:round;stroke-linejoin:round;stroke-miterlimit:10;" d="
							M197.893,99.529c-7.103-14.172-24.35-19.902-38.521-12.798c-3.742,1.876-6.889,4.463-9.373,7.51
							c-0.5-2.308-1.295-4.592-2.402-6.801c-7.103-14.172-24.35-19.902-38.521-12.798c-14.171,7.103-19.902,24.35-12.798,38.521
							c1.107,2.209,2.461,4.212,4.011,5.994c-3.928,0.167-7.884,1.139-11.626,3.015c-14.172,7.103-19.902,24.35-12.799,38.521
							c5.657,11.287,17.748,17.21,29.596,15.569c-0.703,5.467,0.158,11.195,2.814,16.494c7.103,14.171,24.35,19.902,38.521,12.798
							c9.552-4.788,15.261-14.185,15.798-24.142c8.298,5.528,19.243,6.578,28.796,1.79c14.172-7.103,19.902-24.35,12.798-38.521
							c-2.656-5.298-6.73-9.416-11.531-12.125C201.061,124.047,203.551,110.815,197.893,99.529z"/>
						<g>
							
								<path style="fill:#FFFFFF;stroke:#231F20;stroke-width:2;stroke-linecap:round;stroke-linejoin:round;stroke-miterlimit:10;" d="
								M136.724,119.413l-8.503,4.262L114.344,95.99c-1.177-2.348-0.228-5.206,2.121-6.383l0,0c2.348-1.177,5.206-0.228,6.383,2.12
								L136.724,119.413z"/>
							
								<path style="fill:#FFFFFF;stroke:#231F20;stroke-width:2;stroke-linecap:round;stroke-linejoin:round;stroke-miterlimit:10;" d="
								M159.601,131.646l-6.972-6.47l21.065-22.7c1.787-1.925,4.796-2.038,6.721-0.251l0,0c1.925,1.787,2.038,4.796,0.251,6.721
								L159.601,131.646z"/>
							
								<path style="fill:#FFFFFF;stroke:#231F20;stroke-width:2;stroke-linecap:round;stroke-linejoin:round;stroke-miterlimit:10;" d="
								M155.578,151.797l4.183-8.543l27.813,13.618c2.359,1.155,3.335,4.004,2.18,6.362l0,0c-1.155,2.359-4.004,3.335-6.362,2.18
								L155.578,151.797z"/>
							
								<path style="fill:#FFFFFF;stroke:#231F20;stroke-width:2;stroke-linecap:round;stroke-linejoin:round;stroke-miterlimit:10;" d="
								M135.503,155.385l9.125,2.683l-8.736,29.71c-0.741,2.52-3.384,3.962-5.904,3.221l0,0c-2.52-0.741-3.962-3.384-3.221-5.904
								L135.503,155.385z"/>
							
								<path style="fill:#FFFFFF;stroke:#231F20;stroke-width:2;stroke-linecap:round;stroke-linejoin:round;stroke-miterlimit:10;" d="
								M124.054,141.409l1.198,9.436l-30.722,3.9c-2.606,0.331-4.986-1.514-5.317-4.119l0,0c-0.331-2.606,1.513-4.986,4.119-5.317
								L124.054,141.409z"/>
						</g>
					</g>
					<g>
						
							<ellipse transform="matrix(0.964 -0.2658 0.2658 0.964 -32.0533 42.6992)" style="fill:#FFFFFF;stroke:#231F20;stroke-width:2;stroke-linecap:round;stroke-linejoin:round;stroke-miterlimit:10;" cx="141.718" cy="139.764" rx="34.302" ry="34.302"/>
						<g>
							<path style="fill:#231F20;" d="M129.698,148.615c0.382,1.756-0.731,3.489-2.487,3.872c-1.756,0.382-3.489-0.731-3.872-2.487
								c-0.382-1.756,0.731-3.489,2.487-3.872C127.582,145.745,129.315,146.859,129.698,148.615z"/>
							<path style="fill:#231F20;" d="M160.096,132.805c0.382,1.756-0.731,3.489-2.487,3.872c-1.756,0.382-3.489-0.731-3.872-2.487
								c-0.383-1.756,0.731-3.489,2.487-3.872C157.98,129.936,159.714,131.049,160.096,132.805z"/>
							
								<path style="fill:none;stroke:#231F20;stroke-width:2;stroke-linecap:round;stroke-linejoin:round;stroke-miterlimit:10;" d="
								M133.767,153.583c4.428,1.645,9.516,1.427,13.787-0.59c4.271-2.018,7.671-5.809,9.213-10.274"/>
						</g>
					</g>
				</g>
			</g>
			<g>
				<g>
					<g>
						
							<path style="fill:#FFFFFF;stroke:#231F20;stroke-width:2;stroke-linecap:round;stroke-linejoin:round;stroke-miterlimit:10;" d="
							M282.353,272.814c5.29-17.003,18.549-31.339,35.088-37.937c16.539-6.598,36.025-5.326,51.566,3.366
							c-8.743,15.293-21.799,29.287-38.177,35.773C314.451,280.501,299.196,277.975,282.353,272.814z"/>
						<path style="fill:none;stroke:#231F20;stroke-width:2;stroke-linecap:round;stroke-linejoin:round;stroke-miterlimit:10;" d="
							M343.895,246.884c-22.116,2.16-42.387,11.786-61.542,25.93"/>
					</g>
					<g>
						
							<path style="fill:#FFFFFF;stroke:#231F20;stroke-width:2;stroke-linecap:round;stroke-linejoin:round;stroke-miterlimit:10;" d="
							M300.216,240.708c-10.952-5.476-19.275-15.954-22.133-27.861c-2.857-11.906-0.194-25.021,7.08-34.87
							c11.7,5.046,20.786,16.296,23.807,28.675S308.276,230.839,300.216,240.708z"/>
						<path style="fill:none;stroke:#231F20;stroke-width:2;stroke-linecap:round;stroke-linejoin:round;stroke-miterlimit:10;" d="
							M290.581,192.305c8.672,15.248,9.994,30.012,9.635,48.403"/>
					</g>
					<g>
						<path style="fill:#FFFFFF;stroke:#231F20;stroke-width:2;stroke-miterlimit:10;" d="M281.406,289.152
							c-0.264,0-0.53-0.023-0.799-0.071c-2.446-0.439-4.074-2.777-3.636-5.224c9.749-54.376,40.551-104.753,84.508-138.213
							c1.977-1.506,4.801-1.123,6.307,0.855c1.505,1.977,1.122,4.801-0.855,6.306c-42.185,32.111-71.744,80.457-81.1,132.64
							C285.441,287.623,283.544,289.152,281.406,289.152z"/>
					</g>
				</g>
				<g>
					<g>
						
							<path style="fill:#FFFFFF;stroke:#231F20;stroke-width:2;stroke-linecap:round;stroke-linejoin:round;stroke-miterlimit:10;" d="
							M434.042,151.265c5.211-14.971-2.701-31.332-17.673-36.543c-3.953-1.376-8.002-1.829-11.918-1.486
							c1.306-1.968,2.39-4.129,3.202-6.463c5.211-14.971-2.701-31.332-17.672-36.543c-14.971-5.211-31.332,2.701-36.543,17.672
							c-0.812,2.334-1.305,4.701-1.503,7.054c-2.857-2.7-6.312-4.859-10.265-6.235c-14.971-5.211-31.332,2.701-36.543,17.672
							c-4.15,11.924,0.03,24.722,9.465,32.074c-4.41,3.307-7.918,7.917-9.866,13.514c-5.211,14.971,2.701,31.332,17.673,36.543
							c10.091,3.512,20.809,1.056,28.322-5.499c1.82,9.804,8.696,18.384,18.787,21.896c14.971,5.211,31.332-2.701,36.543-17.673
							c1.948-5.598,2.061-11.389,0.657-16.719C418.668,170.626,429.892,163.188,434.042,151.265z"/>
						<g>
							
								<path style="fill:#FFFFFF;stroke:#231F20;stroke-width:2;stroke-linecap:round;stroke-linejoin:round;stroke-miterlimit:10;" d="
								M377.148,121.263l-8.983-3.127l10.18-29.247c0.863-2.481,3.574-3.792,6.055-2.928l0,0c2.481,0.863,3.792,3.574,2.928,6.055
								L377.148,121.263z"/>
							
								<path style="fill:#FFFFFF;stroke:#231F20;stroke-width:2;stroke-linecap:round;stroke-linejoin:round;stroke-miterlimit:10;" d="
								M384.321,146.193l-0.22-9.509l30.96-0.718c2.626-0.061,4.804,2.018,4.865,4.644l0,0c0.061,2.626-2.018,4.804-4.644,4.865
								L384.321,146.193z"/>
							
								<path style="fill:#FFFFFF;stroke:#231F20;stroke-width:2;stroke-linecap:round;stroke-linejoin:round;stroke-miterlimit:10;" d="
								M367.068,157.354l9.041-2.955l9.622,29.436c0.816,2.497-0.546,5.182-3.043,5.998h0c-2.496,0.816-5.182-0.546-5.998-3.043
								L367.068,157.354z"/>
							
								<path style="fill:#FFFFFF;stroke:#231F20;stroke-width:2;stroke-linecap:round;stroke-linejoin:round;stroke-miterlimit:10;" d="
								M350.503,145.46l4.436,8.413l-27.393,14.444c-2.323,1.225-5.2,0.335-6.425-1.988l0,0c-1.225-2.323-0.335-5.2,1.989-6.425
								L350.503,145.46z"/>
							
								<path style="fill:#FFFFFF;stroke:#231F20;stroke-width:2;stroke-linecap:round;stroke-linejoin:round;stroke-miterlimit:10;" d="
								M352.544,127.509l-5.931,7.436l-24.21-19.311c-2.053-1.638-2.39-4.63-0.752-6.683l0,0c1.638-2.053,4.63-2.39,6.684-0.752
								L352.544,127.509z"/>
						</g>
					</g>
					<g>
						
							<ellipse transform="matrix(0.898 -0.44 0.44 0.898 -23.8347 175.2513)" style="fill:#FFFFFF;stroke:#231F20;stroke-width:2;stroke-linecap:round;stroke-linejoin:round;stroke-miterlimit:10;" cx="366.035" cy="139.028" rx="34.302" ry="34.302"/>
						<g>
							
								<path style="fill:none;stroke:#231F20;stroke-width:2;stroke-linecap:round;stroke-linejoin:round;stroke-miterlimit:10;" d="
								M350.754,142.847c1.723,4.399,5.275,8.048,9.625,9.889c4.35,1.841,9.443,1.851,13.8,0.026"/>
							
								<path style="fill:none;stroke:#231F20;stroke-width:2;stroke-linecap:round;stroke-linejoin:round;stroke-miterlimit:10;" d="
								M343.895,134.867c2.198-1.663,5.136-2.309,7.829-1.721c2.693,0.588,5.094,2.399,6.399,4.827"/>
							
								<path style="fill:none;stroke:#231F20;stroke-width:2;stroke-linecap:round;stroke-linejoin:round;stroke-miterlimit:10;" d="
								M371.436,142.555c2.608-0.538,5.391-0.195,7.789,0.962c2.399,1.157,4.401,3.119,5.604,5.495"/>
						</g>
					</g>
				</g>
			</g>
			<g>
				<g>
					<g>
						
							<path style="fill:#FFFFFF;stroke:#231F20;stroke-width:2;stroke-linecap:round;stroke-linejoin:round;stroke-miterlimit:10;" d="
							M255.78,275.774c-5.292-14.866-2.677-32.298,6.743-44.957c9.42-12.659,25.367-20.17,41.126-19.371
							c2.411,14.969-2.741,31.916-11.773,44.095S270.805,273.734,255.78,275.774z"/>
						<path style="fill:none;stroke:#231F20;stroke-width:2;stroke-linecap:round;stroke-linejoin:round;stroke-miterlimit:10;" d="
							M289.26,228.958c-14.513,10.55-25.673,26.156-33.479,46.816"/>
					</g>
					<g>
						<path style="fill:#FFFFFF;stroke:#231F20;stroke-width:2;stroke-miterlimit:10;" d="M256.001,284.371
							c-2.174,0-4.087-1.579-4.439-3.794c-8.199-51.535-8.133-103.785,0.196-155.3c0.397-2.454,2.706-4.119,5.161-3.724
							c2.454,0.397,4.121,2.707,3.724,5.161c-8.176,50.569-8.241,101.861-0.192,152.45c0.391,2.454-1.282,4.761-3.737,5.151
							C256.474,284.352,256.236,284.371,256.001,284.371z"/>
					</g>
				</g>
				<g>
					<g>
						
							<path style="fill:#FFFFFF;stroke:#231F20;stroke-width:2;stroke-linecap:round;stroke-linejoin:round;stroke-miterlimit:10;" d="
							M319.465,103.282c0-15.852-12.851-28.703-28.703-28.703c-4.186,0-8.158,0.903-11.744,2.514c0.587-2.288,0.9-4.685,0.9-7.156
							c0-15.852-12.851-28.702-28.703-28.702s-28.703,12.851-28.703,28.702c0,2.471,0.313,4.869,0.9,7.156
							c-3.586-1.611-7.558-2.514-11.744-2.514c-15.852,0-28.703,12.851-28.703,28.703c0,12.625,8.155,23.339,19.482,27.18
							c-3.078,4.573-4.875,10.079-4.875,16.006c0,15.852,12.851,28.703,28.703,28.703c10.685,0,19.999-5.843,24.941-14.504
							c4.941,8.661,14.256,14.504,24.941,14.504c15.852,0,28.703-12.851,28.703-28.703c0-5.927-1.797-11.433-4.875-16.006
							C311.31,126.621,319.465,115.908,319.465,103.282z"/>
						<g>
							
								<path style="fill:#FFFFFF;stroke:#231F20;stroke-width:2;stroke-linecap:round;stroke-linejoin:round;stroke-miterlimit:10;" d="
								M255.87,93.65h-9.512V62.682c0-2.626,2.129-4.756,4.756-4.756l0,0c2.627,0,4.756,2.129,4.756,4.756V93.65z"/>
							
								<path style="fill:#FFFFFF;stroke:#231F20;stroke-width:2;stroke-linecap:round;stroke-linejoin:round;stroke-miterlimit:10;" d="
								M270.84,114.837l-3.334-8.908l29.003-10.855c2.46-0.921,5.2,0.327,6.121,2.787l0,0c0.921,2.46-0.327,5.2-2.787,6.121
								L270.84,114.837z"/>
							
								<path style="fill:#FFFFFF;stroke:#231F20;stroke-width:2;stroke-linecap:round;stroke-linejoin:round;stroke-miterlimit:10;" d="
								M258.215,131.049l7.567-5.763l18.763,24.637c1.591,2.09,1.188,5.074-0.902,6.665l0,0c-2.09,1.591-5.074,1.188-6.665-0.902
								L258.215,131.049z"/>
							
								<path style="fill:#FFFFFF;stroke:#231F20;stroke-width:2;stroke-linecap:round;stroke-linejoin:round;stroke-miterlimit:10;" d="
								M238.66,125.261l6.956,6.488l-21.123,22.646c-1.792,1.921-4.801,2.026-6.722,0.234l0,0c-1.921-1.792-2.025-4.801-0.234-6.722
								L238.66,125.261z"/>
							
								<path style="fill:#FFFFFF;stroke:#231F20;stroke-width:2;stroke-linecap:round;stroke-linejoin:round;stroke-miterlimit:10;" d="
								M234.688,107.636l-3.157,8.972l-29.212-10.28c-2.478-0.872-3.779-3.587-2.907-6.065l0,0c0.872-2.478,3.587-3.779,6.065-2.907
								L234.688,107.636z"/>
						</g>
					</g>
					<g>
						
							<circle style="fill:#FFFFFF;stroke:#231F20;stroke-width:2;stroke-linecap:round;stroke-linejoin:round;stroke-miterlimit:10;" cx="251.215" cy="114.081" r="34.302"/>
						<g>
							<path style="fill:#231F20;" d="M238.94,114.738c-0.408,1.543-1.989,2.462-3.531,2.055c-1.542-0.408-2.462-1.989-2.055-3.531
								c0.408-1.542,1.989-2.462,3.531-2.055C238.428,111.615,239.348,113.196,238.94,114.738z"/>
							
								<path style="fill:none;stroke:#231F20;stroke-width:2;stroke-linecap:round;stroke-linejoin:round;stroke-miterlimit:10;" d="
								M240.146,120.311c2.835,3.091,6.944,4.976,11.136,5.109c4.192,0.133,8.412-1.489,11.436-4.395"/>
							
								<path style="fill:none;stroke:#231F20;stroke-width:2;stroke-linecap:round;stroke-linejoin:round;stroke-miterlimit:10;" d="
								M257.455,114.761c1.258-1.865,3.392-3.111,5.634-3.29c2.242-0.179,4.547,0.713,6.084,2.354"/>
						</g>
					</g>
				</g>
			</g>
			<path style="fill:#FFFFFF;stroke:#231F20;stroke-width:2;stroke-linecap:round;stroke-linejoin:round;stroke-miterlimit:10;" d="
				M172.409,312.86c-4.773-3.266-7.722-9.036-7.574-14.817c0.149-5.781,3.391-11.392,8.325-14.408
				c4.934-3.016,11.407-3.342,16.619-0.838c-1.959-6.502-1.421-13.445,3.174-18.445c4.594-5,11.902-7.34,18.547-5.937
				c6.644,1.403,12.383,6.496,14.564,12.927c3.555-5.584,9.487-9.315,16.09-8.846c6.603,0.469,12.794,4.78,15.524,10.81
				c3.053-5.594,7.372-9.967,13.286-12.34c5.914-2.373,12.968-2.148,18.388,1.203c5.42,3.352,8.838,9.965,7.796,16.251
				c5.595-4.88,13.561-6.95,20.42-4.106c6.859,2.844,11.832,9.772,12.332,17.18c4.346,0.353,7.78,2.322,10.292,5.887
				c2.512,3.565,3.346,8.261,2.216,12.472L172.409,312.86z"/>
		</g>
		<g>
			<g>
				
					<path style="fill:#FFFFFF;stroke:#231F20;stroke-width:2;stroke-linecap:round;stroke-linejoin:round;stroke-miterlimit:10;" d="
					M211.987,476.961h-8.963c-5.09,0-9.255-4.165-9.255-9.255v-8.121c0-5.09,4.165-9.255,9.255-9.255h8.963
					c5.09,0,9.255,4.165,9.255,9.255v8.121C221.242,472.796,217.077,476.961,211.987,476.961z"/>
				
					<path style="fill:#FFFFFF;stroke:#231F20;stroke-width:2;stroke-linecap:round;stroke-linejoin:round;stroke-miterlimit:10;" d="
					M302.108,476.961h-8.963c-5.09,0-9.255-4.165-9.255-9.255v-8.121c0-5.09,4.165-9.255,9.255-9.255h8.963
					c5.09,0,9.255,4.165,9.255,9.255v8.121C311.364,472.796,307.199,476.961,302.108,476.961z"/>
			</g>
			<g>
				
					<path style="fill:#FFFFFF;stroke:#231F20;stroke-width:2;stroke-linecap:round;stroke-linejoin:round;stroke-miterlimit:10;" d="
					M310.69,462.479c-43.492,5.885-71.137,5.876-114.679-0.028c-9.076-1.231-16.122-7.811-17.176-16.057l-13.798-107.983h175.057
					l-12.2,107.773C326.95,454.53,319.864,461.237,310.69,462.479z"/>
				<g>
					<g>
						<polygon style="fill:#FFFFFF;stroke:#231F20;stroke-linecap:round;stroke-linejoin:round;stroke-miterlimit:10;" points="
							209.53,390.265 171.67,390.265 170.51,381.225 187.41,351.955 						"/>
						<polygon style="fill:#FFFFFF;stroke:#231F20;stroke-linecap:round;stroke-linejoin:round;stroke-miterlimit:10;" points="
							231.651,351.954 209.532,390.264 253.769,390.264 						"/>
						<polygon style="fill:#FFFFFF;stroke:#231F20;stroke-linecap:round;stroke-linejoin:round;stroke-miterlimit:10;" points="
							275.888,351.954 253.769,390.264 298.007,390.264 						"/>
						<polygon style="fill:#FFFFFF;stroke:#231F20;stroke-linecap:round;stroke-linejoin:round;stroke-miterlimit:10;" points="
							335.54,378.645 335.54,378.655 334.22,390.265 298.01,390.265 320.13,351.955 						"/>
					</g>
					<g>
						<polygon style="fill:#FFFFFF;stroke:#231F20;stroke-linecap:round;stroke-linejoin:round;stroke-miterlimit:10;" points="
							208.33,428.575 176.56,428.575 174.3,410.885 186.21,390.265 						"/>
						<polygon style="fill:#FFFFFF;stroke:#231F20;stroke-linecap:round;stroke-linejoin:round;stroke-miterlimit:10;" points="
							230.447,390.264 208.329,428.575 252.566,428.575 						"/>
						<polygon style="fill:#FFFFFF;stroke:#231F20;stroke-linecap:round;stroke-linejoin:round;stroke-miterlimit:10;" points="
							274.685,390.264 252.566,428.575 296.804,428.575 						"/>
						<polygon style="fill:#FFFFFF;stroke:#231F20;stroke-linecap:round;stroke-linejoin:round;stroke-miterlimit:10;" points="
							331.71,412.415 331.71,412.425 329.88,428.575 296.8,428.575 318.92,390.265 						"/>
					</g>
					<g>
						<path style="fill:#FFFFFF;stroke:#231F20;stroke-linecap:round;stroke-linejoin:round;stroke-miterlimit:10;" d="
							M205.26,463.645c-3.01-0.36-6.09-0.76-9.25-1.19c-9.08-1.24-16.12-7.82-17.17-16.06l-0.75-5.84l6.92-11.98L205.26,463.645z"/>
						<path style="fill:#FFFFFF;stroke:#231F20;stroke-linecap:round;stroke-linejoin:round;stroke-miterlimit:10;" d="
							M251.35,466.875c-13.53-0.08-27.14-1.02-42.59-2.82l20.48-35.48L251.35,466.875z"/>
						<path style="fill:#FFFFFF;stroke:#231F20;stroke-linecap:round;stroke-linejoin:round;stroke-miterlimit:10;" d="
							M294.22,464.495c-14.64,1.59-27.71,2.39-40.78,2.39h-2.08l0.01-0.01l22.11-38.3L294.22,464.495z"/>
						<path style="fill:#FFFFFF;stroke:#231F20;stroke-linecap:round;stroke-linejoin:round;stroke-miterlimit:10;" d="
							M327.89,446.185c-0.94,8.34-8.03,15.05-17.2,16.29c-4.68,0.63-9.17,1.2-13.52,1.7l20.55-35.6L327.89,446.185z"/>
					</g>
				</g>
			</g>
			<path style="fill:#FFFFFF;stroke:#231F20;stroke-width:2;stroke-linecap:round;stroke-linejoin:round;stroke-miterlimit:10;" d="
				M338.373,349.818H167.378c-5.218,0-9.981-2.986-12.255-7.683c-6.097-12.597-5.205-26.226,4.66-41.181h187.381
				c7.211,13.183,8.586,26.366,4.124,39.549C349.41,346.054,344.233,349.818,338.373,349.818z"/>
		</g>
	</g>
</g>
</svg>
