<?xml version="1.0" encoding="utf-8"?>
<!-- Generator: Adobe Illustrator 27.5.0, SVG Export Plug-In . SVG Version: 6.00 Build 0)  -->
<svg xmlns="http://www.w3.org/2000/svg" xmlns:xlink="http://www.w3.org/1999/xlink" viewBox="0 0 3600 3600" width="595" height="842" preserveAspectRatio="xMidYMid meet" data-scaled="true">
<rect style="fill:#FFFFFF;" width="3600" height="3600"/>
<g>
	<g>
		<path d="M1406.401,770.187c0.311,0.156,0.505-0.622,0.136-0.214c0,0,0,0-0.019,0c133.49-329.953,666.876-296.834,903.509-99.997
			c-13.688-16.974-28.757-33.734-45.692-48.141c-24.293-80.057,0.013-166.68,40.5-237.305c-0.272,4.822-1.011,10.247-0.855,14.816
			c5.211-14.544,10.072-29.165,15.963-43.436c4.67-6.143,5.03-17.993-5.465-16.158c-47.659,57.092-101.01,207.642-57.493,276.094
			c-232.094-155.455-698.946-167.018-844.832,110.371C1408.004,739.945,1402.057,756.237,1406.401,770.187z"/>
		<path d="M2303.844,415.97c0.078,0.058,0.136-0.02,0.097-0.097c9.027-23.328,31.536-38.707,44.622-59.749
			c-8.186,14.874-14.68,31.556-10.655,48.161c2.327-5.799,4.651-12.088,6.941-18.121c-0.117,0.384-0.561,1.913-0.078,1.75
			c17.227-18.977,40.053-32.607,60.819-47.85c-22.34,2.605-47.5,15.885-57.552,37.098c8.912-27.261,2.701-27.666,21.815-52.866
			c0,0.233-0.292,0.817-0.02,0.836c1.069-1.225,1.206-2.703-0.564-1.905C2344.46,339.266,2299.449,384.744,2303.844,415.97z"/>
		<path d="M2379.573,389.859c1.608-6.343,8.426-10.569,13.105-15.535c8.647-7.533,15.231-18.18,23.158-26.89
			C2403.013,351.487,2375.104,374.84,2379.573,389.859z"/>
		<path d="M2392.347,377.998c81.927-16.057,142.063,50.633,192.276,105.07C2554.017,414.212,2471.465,334.966,2392.347,377.998z"/>
		<path d="M2350.442,450.634c-33.184,58.006-73.083,133.149-35.405,198.419C2301.119,580.596,2334.2,515.706,2350.442,450.634z"/>
		<path d="M2428.781,421.841c-17.413,2.032-40.005,8.748-52.302,17.672c174.174-33.129,200.19,87.872,216.656,229.16
			C2614.393,560.31,2561.652,406.849,2428.781,421.841z"/>
		<path d="M2457.531,959.132c116.891-5.178,171.523-151.288,142.946-251.537C2593.621,817.775,2572.915,916.447,2457.531,959.132z"
			/>
		<path d="M1006.826,725.245c6.011,0.767,12.079,0.604,18.141,0.914h-0.214c3.461,0.175,6.922,0.428,10.363,0.855
			c-5.067-2.82-11.711-4.432-17.479-6.3c28.857-5.152,56.515-13.618,85.901-16.654c31.019,0.709,67.56-8.938,95.847,4.851
			c-0.75-1.062-1.451-2.158-2.176-3.238c1.985,0.364,4.473,0.987,6.15,1.567c-2.36-2.725-5.694-4.483-9.099-6.072
			c-3.838-6.106-7.36-12.425-10.702-18.809c109.197,22.931,222.555,79.039,267.248,187.775c-0.001-0.019-0.001-0.019-0.001-0.019
			c-9.953-101.139-122.036-160.82-209.398-189.323c-21.148-5.53-101.319-27.503-55.095,16.852
			c-32.916-12.927-69.826-11.75-104.24-6.27C1073.216,693.164,978.489,711.154,1006.826,725.245z"/>
		<path d="M956.401,807.535c8.797-0.61,17.525-2.251,26.104-4.314c-7.3-1.126-15.678-1.377-23.284-2.681
			c25.988-31.26,65.214-50.717,101.795-67.027c0.991-0.525,4.552,0.283,1.868-0.832c-36.948-1.033-85.45,18.735-105.617,50.958
			C953.036,790.172,942.152,806.538,956.401,807.535z"/>
		<path d="M913.608,908.871c0.486-0.447,1.03-0.894,1.575-1.322c-6.49,2.03-12.825,6.956-18.854,10.618
			c24.244-36.855,45.885-81.99,85.698-104.068c0.061,0.032,0.12,0.062,0.176,0.094c0.256,0.236-0.143,1.232,0.176,1.234
			c2.586-4.355-7.622-1.594-8.808-1.225c-13.923,4.364-26.007,12.902-36.903,22.418c-19.887,17.857-60.336,75.003-64.515,100.715
			c0.665,5.503,7.728,6.535,11.338,3.053C893.528,929.96,903.273,919.046,913.608,908.871z"/>
		<path d="M898.162,995.851c0.286,3.145-0.137,6.882,0.238,9.742c4.094-9.064,7.779-22.323-6.959-12.947
			c10.384-24.632,13.068-52.451,25.022-76.142c-15.403,5.444-47.129,75.786-34.436,88.74
			C888.91,1008.772,893.61,999.573,898.162,995.851z"/>
		<path d="M1416.511,926.564c-59.81-142.748-169.917-200.254-318.753-150.569c40.644,1.448,81.192-4.391,121.773-2.276
			c150.073,13.736,198.961,182.888,226.767,307.108c0.275,0.102,0.626-0.707,0.113-0.266c-0.005-0.008-0.011-0.017-0.017-0.025
			C1451.92,1027.388,1434.389,975.842,1416.511,926.564z"/>
		<path d="M996.339,907.251c19.521-38.405,42.696-75.286,68.636-109.64c-1.782,0.388-3.832,1.978-5.502,3.15
			c-130.681,119.528-163.713,348.534-63.993,497.297c53.834,76.623,95.205,104.986,190.316,104.336
			C950.504,1360.971,899.77,1096.81,996.339,907.251z"/>
		<path d="M1345.901,1267.765c-42.869,46.622-89.544,95.709-152.182,113.823c73,3.446,130.169-61.648,160.29-121.852
			C1351.387,1261.898,1348.547,1265.255,1345.901,1267.765z"/>
		<path d="M2549.363,463.392c47.344,62.393,54.927,145.338,63.58,221.673c13.999,94.915,6.757,210.981-69.936,278.546
			c-24.099,18.325-54.725,22.655-83.997,25.76c-28.272-110.464-60.744-235.956-153.407-310.139
			c75.255,104.073,122.385,223.816,146.252,349.668c-11.238,19.365-27.376,32.004-50.164,32.14
			c22.928-7.739,42.287-31.238,29.34-56.483c0.638,25.368-18.027,42.464-38.498,53.683c-2.119-0.817-4.239-1.478-6.358-2.042
			c14.458-4.735,29.698-23.716,19.54-38.245c0.548,16.387-13.67,27.348-26.093,36.884c-121.224-1.814-90.901,174.542-40.461,241.874
			c-6.552-43.728-31.595-94.319-30.234-142.772c1.841-112.371,104.377-106.071,138.903-12.444
			c-75.792-97.607-168.195,105.661-65.232,128.326c-16.579,9.541-32.317,20.953-45.458,34.978c-0.448,0.479-1.497,1.751-0.603,2.158
			c0.194-0.058-0.078-0.233-0.078-0.35c45.819-24.691,98.727-40.085,137.892-75.731c-4.2,1.633-8.652,3.655-13.085,5.619
			c15.391-32.751,15.542-73.266-1.206-105.402c8.108,2.936,16.469,2.469,24.693,0.35c12.241,21.795,29.547,38.879,56.436,46.911
			c9.322,15.347,27.823,19.954,45.406,23.213c17.927,17.246,42.696,27.525,56.881,39.286c-9.723-4.183-20.936-6.04-30.523-6.781
			c15.913,9.973,34.585,15.396,50.728,24.459c-0.886-1.833-1.972-3.503-3.163-5.08c4.031,2.954,8.09,5.87,12.241,8.658
			c-16.728-27.422-41.049-47.479-72.173-57.987c11.439,2.326,22.957,4.145,34.532,5.597c-8.738-5.042-18.884-9.308-28.484-13.203
			c-16.949-7.866-36.067-7.957-53.09-15.283c5.533,0.987,11.383,1.677,17.653,1.967c-28.659-10.947-56.269-29.515-71.026-57.435
			c5.502-2.489,10.81-5.23,15.788-7.661c-6.008,0.506-12.133,1.517-18.315,2.547c-2.489-5.328-4.802-10.713-6.941-16.157
			c7.505-4.491,14.621-9.741,21.096-14.232c-7.658,1.865-16.151,4.501-23.76,7.291c-2.197-5.969-4.219-11.996-6.125-18.082
			c5.191-3.694,10.111-7.583,14.796-11.219c-5.6,1.556-11.063,3.519-16.507,5.619c-1.983-6.591-3.811-13.241-5.541-19.891
			c20.496-21.998,30.639-29.746-2.061-8.03c-4.334-17.303-8.15-34.564-12.444-51.836c172.236,26.253,188.248-218.268,164.897-337.61
			C2614.867,588.548,2614.362,503.931,2549.363,463.392z M2392.883,1212.133c-19.441,0.737-21.904-29.531-7.952-38.828
			c7.291,3.305,15.905,6.261,19.054,14.407C2408.36,1196.889,2403.733,1210.616,2392.883,1212.133z M2429.903,1220.046
			c-18.4-0.588-17.757-28.401,0.701-28.231C2449.003,1192.402,2448.36,1220.216,2429.903,1220.046z M2413.882,1070.314
			c-1.419-1.089-2.839-2.139-4.278-3.092c21.932,3.208,36.709-10.188,44.642-28.757c1.38,5.561,2.741,11.141,4.122,16.721
			c-13.183,8.127-26.754,14.66-43.417,15.944C2414.602,1070.839,2414.251,1070.586,2413.882,1070.314z M2475.439,1111.922
			c1.575,3.85,3.228,7.622,4.997,11.297c-8.419,0.894-16.74,0.972-24.751-1.031c-1.497-2.917-3.072-5.794-4.705-8.633
			C2459.224,1115.85,2467.448,1114.8,2475.439,1111.922z M2472.056,1102.959c-9.002,2.45-17.577,3.383-26.909,1.167
			c-1.808-2.741-3.694-5.425-5.658-8.03c9.819,0.214,19.113-2.858,27.843-7.466
			C2468.809,1093.49,2470.365,1098.273,2472.056,1102.959z M2461.013,1065.725c1.225,4.783,2.489,9.547,3.791,14.232
			c-10.365,3.808-20.898,7.879-32.12,7.758c-3.344-3.811-6.902-7.427-10.713-10.81
			C2436.747,1079.199,2449.58,1074.027,2461.013,1065.725z"/>
		<path d="M1830.056,1055.311c45.351-27.185-76.941-100.205-121.638,61.848c-0.152,0.12-3.314,6.769-1.982,6.242
			c0-0.007-0.002-0.01-0.006-0.014C1737.991,1087.279,1785.267,1069.448,1830.056,1055.311z M1823.628,1040.347
			c-41.972,15.942-88.616,33.053-113.191,73.226C1729.714,1082.326,1782.339,998.595,1823.628,1040.347z"/>
		<path d="M2407.305,968.99c-13.758-38.667-58.641-60.977-97.862-48.809c-15.473,5.596-36.439,15.746-37.254,34.432
			c0.018,10.188,9.506,17.078,19.075,17.441c40.385-3.07,81.122-11.181,121.306,0.039
			C2411.332,970.939,2408.984,969.989,2407.305,968.99z M2351.421,953.758c-8.613-0.739-17.245-0.798-25.859-0.078
			c-6.495-0.555-38.345,8.729-37.506-0.798c29.104-40.963,92.473-17.902,118.62,15.781
			C2389.472,959.905,2370.672,954.973,2351.421,953.758z"/>
		<path d="M1799.579,1427.292c77.457-12.054,155.73-31.448,234.175-37.953c-16.196-3.967-32.587-5.464-49.016-5.347
			c13.756-8.314,19.145-25.524,23.585-40.131c3.344,12.074,6.689,24.11,10.538,35.892c-0.078,0.175-0.058,1.478,0.233,1.128
			c0-0.019-0.019-0.019,0-0.039c-0.058-0.097,0-0.331,0.039-0.37c14.718-126.465-108.446-288.299-234.544-184.75
			c-6.521-4.152-13.432-8.007-20.202-12.059c46.671-54.262,137.529-41.074,187.775,1.369
			c-38.194-68.697-154.934-70.754-201.324-10.165c-11.211-8.27-22.895-19.339-25.824-34.014
			c-4.919,15.735,6.852,34.674,20.172,42.79c-3.058,5.279-5.681,10.819-7.913,16.551c-15.4-9.298-28.868-20.685-35.163-39.704
			c-1.983,26.795,12.371,40.932,31.809,49.275c-1.607,5.184-2.937,10.469-4.05,15.799c-20.009-8.473-45.109-22.035-48.777-45.689
			c-7.835,27.905,22.191,51.191,46.746,56.861c-0.721,4.719-1.281,9.434-1.725,14.115c-24.012-1.595-51.062-16.483-60.906-39.419
			c-0.275,40.544,49.35,60.253,83.47,45.964c-2.08,7.019-3.694,14.194-4.822,21.465c-30.662-2.43-65.057-4.239-79.776-33.89
			c0.054,38.263,48.363,47.982,78.901,40.092c-7.345,53.153,10.843,115.44,66.457,133.517
			c-41.103-30.72-58.019-86.25-49.989-136.842c1.342-0.292,2.664-0.603,3.966-0.894c-1.225-0.175-2.469-0.35-3.733-0.486
			c1.653-9.838,4.258-19.463,7.816-28.679c0.894-0.272,1.789-0.525,2.683-0.778c-0.778-0.019-1.575-0.039-2.353-0.039
			c2.353-6.047,5.133-11.899,8.341-17.518c0.194-0.039,0.369-0.058,0.564-0.097c-0.156-0.019-0.311-0.058-0.467-0.078
			c44.483-80.61,154.427-65.7,194.122,12.405c-95.472-47.418-166.643,115.534-64.668,148.333
			C1869.069,1400.431,1833.453,1411.862,1799.579,1427.292z M1998.931,1326.77c-0.039,0.253-0.097,0.486-0.155,0.739
			c-0.544-1.769-1.264-3.519-2.119-5.211C1997.822,1323.523,1998.62,1325.098,1998.931,1326.77z M1750.757,1250.883
			c-7.654,0.098-15.298,0.227-22.938,0.024c1.929-4.494,3.876-9.053,5.883-13.638c7.569,0.394,15.288-0.078,22.927-1.007
			C1754.412,1241.025,1752.468,1245.906,1750.757,1250.883z M1759.39,1230.604c-7.094-0.953-14.188-1.885-21.274-3.143
			c2.129-4.614,4.349-9.2,6.702-13.715c6.908,2.136,14.135,3.799,21.318,5.173C1763.687,1222.71,1761.451,1226.618,1759.39,1230.604
			z M1779.572,1201.322c-4.414,4.88-8.419,10.033-12.016,15.438c-6.192-3.477-12.591-6.74-18.886-10.12
			c3.256-5.736,6.791-11.278,10.668-16.529c7.736,2.872,15.785,5.061,23.754,7.206
			C1781.866,1198.6,1780.699,1199.942,1779.572,1201.322z M1968.405,1321.443c18.439-1.089,20.169,27.104,1.827,28.193
			C1951.794,1350.724,1950.064,1322.531,1968.405,1321.443z M1901.967,1315.396c1.506-19.83,25.959-25.605,35.387-8.419
			C1942.584,1349.233,1902.177,1343.596,1901.967,1315.396z"/>
		<path d="M1242.095,1633.829c7.448-60.871,23.109-129.314,67.022-174.853c-7.565,2.387-14.134,6.531-20.003,11.656
			c5.505-5.394,11.062-10.659,16.931-15.318c-10.25,1.009-18.999,5.709-26.492,12.281c17.848-22.782,38.289-44.094,61.266-61.587
			c28.05-17.29,44.429-46.185,60.432-74.134c-150.216,170.532-343.395,138.571-452.429-54.286
			c-49.44-84.734-48.86-185.107-42.596-280.119c0.084-0.046,0.089-0.264,0.226-0.307
			c-86.336,216.851,136.796,547.926,381.697,440.15c-17.634,16.795-21.187,43.188-32.849,63.499
			c9.606-6.512,18.182-14.755,26.639-23.111C1244.576,1519.4,1231.032,1579.514,1242.095,1633.829z"/>
		<path d="M1281.908,1570.449c-0.947-0.252-2.205,0.307-3.385,0.996c1.684-3.16,3.375-6.311,5.094-9.437
			c-38.9,24.62-47.077,81.145-38.865,123.467C1254.341,1647.319,1257.922,1603.173,1281.908,1570.449z"/>
		<path d="M1250.728,1697.834c17.411-29.058,39.61-55.767,63.87-79.893C1279.806,1628,1254.952,1661.974,1250.728,1697.834z"/>
		<path d="M1319.369,1623.589c-18.759-1.596-27.619,25.841-32.451,40.85c6.298-6.676,12.357-14.592,17.52-22.456
			C1308.929,1635.97,1311.929,1626.002,1319.369,1623.589z"/>
		<path d="M1287.417,1677.453c-0.007,0.004-0.006,0.008,0,0.019C1287.417,1677.453,1287.417,1677.453,1287.417,1677.453z"/>
		<path d="M1287.378,1677.355c0,0.007,0,0.013,0,0.02c0.002,0.002,0.002,0.007,0.004,0.01c0.005-0.017,0.016-0.032,0.021-0.049
			C1287.395,1677.344,1287.386,1677.349,1287.378,1677.355z"/>
		<path d="M1287.411,1677.458c-0.011-0.029-0.017-0.056-0.029-0.073c-0.015,0.05-0.049,0.094-0.063,0.145
			C1287.371,1677.576,1287.421,1677.513,1287.411,1677.458z"/>
		<path d="M1370.459,1645.022c-21.257,1.478-75.943,9.225-83.056,32.315c9.193-8.18,22.994-8.646,34.389-12.211
			C1338.702,1660.276,1354.722,1652.759,1370.459,1645.022z"/>
		<path d="M1367.024,1652.164c-16.777-3.672-33.02,14.81-42.075,27.123c9.446-4.633,19.116-10.705,27.456-17.513
			C1357.044,1658.635,1361.545,1653.463,1367.024,1652.164z"/>
		<path d="M2194.578,1400.457c-22.647,45.505,67.261,59.67,92.162,34.28c-16.284,5.327-34.499,5.409-51.072-0.667
			c-8.944-3.719-27.746-9.511-28.841-20.74c0,0,0.11,0.179,0.11,0.179c27.678-49.58,152.567-55.749,79.129,23.165
			c20.875-10.92,48.557-36.881,31.277-61.978C2286.006,1342.746,2218.922,1370.575,2194.578,1400.457z"/>
		<path d="M2286.057,1436.679c0.001,0,0.002-0.001,0.003-0.001c0-0.012,0-0.015,0-0.015
			C2286.06,1436.672,2286.06,1436.676,2286.057,1436.679z"/>
		<polygon points="2286.06,1436.679 2286.062,1436.679 2286.066,1436.674 2286.06,1436.677 		"/>
		<path d="M2272.889,1494.695c66.748,6.862,153.934-75.811,105.5-139.551c-16.084-16.197-43.23-20.264-64.438-13.22
			c-4.181,1.941-0.256,3.052-1.611,1.875c126.458,8.939,41.486,133.738-37.216,147.921c5.959-8.119,10.418-17.534,12.842-28.567
			c-63.481,84.126-227.667,73.668-315.507,33.441c7.617,7.729,20.471,15.793,32.826,22.829
			c27.713,26.798,52.505,56.907,79.694,84.479c15.724,21.096,32.091,39.566,60.673,44.239c37.433,9.983,77.769-16.921,83.39-55.121
			c3.666-22.442-4.629-43.985-7.83-65.992C2242.135,1520.215,2260.427,1510.014,2272.889,1494.695z M2112.662,1619.518
			c-18.818-18.333-29.457-44.108-50.192-61.468c35.548,7.003,78.768,5.196,101.067,38.886c-2.601-11.855-8.026-21.045-15.297-28.049
			c22.733-1.028,47.318,3.037,65.167,17.04C2204.631,1638.773,2152.592,1642.645,2112.662,1619.518z M2214.121,1580.846
			c-13.57-22.21-47.174-27.851-70.583-16.008c-22.174-16.936-57.206-17.519-85.243-10.708c-9.225-8.469-19.246-16.354-29.578-22.921
			c55.997,16.783,124.61,11.497,188.009-2.758C2213.415,1545.492,2216.095,1563.51,2214.121,1580.846z"/>
		<path d="M2188.718,1654.44c-16.771,0.502-33.495,3.052-50.163,3.878c18.896,8.302,64.287,14.556,70.035-12.698
			C2203.624,1651.511,2196.288,1654.075,2188.718,1654.44z"/>
		<path d="M1525.099,1738.227c22.157-8.638,42.861-22.731,65.936-29.924c-41.486-2.817-82.707,14.198-124.377,15.89
			c-17.152,0.273-34.661-0.762-51.906-2.823c19.737-2.676,38.578-9.597,53.806-23.118c4.686,0.195,9.374,0.36,14.064,0.493
			c-47.616-17.747-102.105-30.257-152.124-14.622c43.875,4.012,89.686,11.553,134.35,13.95
			c-33.772,9.427-67.783,12.824-101.939,22.161c12.621,2.282,25.979,2.802,38.946,2.308c47.988,23.848,92.133,16.565,140.695-0.487
			C1536.007,1726.964,1530.067,1732.602,1525.099,1738.227z"/>
		<path d="M1662.068,1701.658c-0.003,0.002-0.005,0.004-0.008,0.005c0.006,0.001,0.013-0.001,0.019,0
			C1662.075,1701.661,1662.071,1701.66,1662.068,1701.658z"/>
		<path d="M1662.059,1701.663c-0.865-0.046-1.734-0.019-2.602,0.015c2.653-2.141,5.269-4.307,7.814-6.498
			c-23.086,8.568-44.164,21.276-68.637,25.895c-18.764,5.957-62.293,4.777-72.133,20.711c0.171,0.529,1.409,0.484,1.439,0.117
			c-0.293-0.065-0.573-0.073-0.789-0.227c-0.002-0.005-0.004-0.01-0.005-0.015c14.903-7.752,32.824-1.763,49.364-3.764
			C1608.846,1737.188,1636.583,1719.89,1662.059,1701.663z"/>
		<path d="M1685.481,1734.574c20.307-4.223,38.873-14.251,57.533-23.001c-29.039,4.557-59.04,10.383-87.35,20.124
			c12.104-5.623,23.392-13.57,32.749-22.903c0.011,0,0.016-0.005,0.021-0.012c-0.768,0.154-1.525,0.413-2.29,0.6
			c1.254-0.797,2.527-1.534,3.768-2.368c-26.239,4.757-54.84,11.886-77.792,26.055c15.416-0.596,30.095-3.643,44.114-8.796
			c-5.43,4.016-10.527,8.435-15.107,12.926c1.021-0.293,2.029-0.665,3.044-0.994c-0.258,0.148-0.093,0.826,0.188,0.604
			c-0.03-0.027-0.06-0.129-0.078-0.192C1657.945,1736.463,1671.886,1736.916,1685.481,1734.574z"/>
		<path d="M2637.781,1251.635c-6.939-5.707-17.335-13.568-25.694-13.576c34.874,30.758,57.017,75.321,70.476,119.359
			C2684.864,1318.141,2668.561,1277.133,2637.781,1251.635z"/>
		<path d="M2630.368,1307.011c7.114,6.346,14.244,12.661,21.912,18.335c8.093,6.14,18.01,11.5,22.943,20.685
			C2678.439,1327.046,2645.362,1311.676,2630.368,1307.011z"/>
		<path d="M2675.239,1346.056c-0.005-0.009-0.011-0.016-0.016-0.025c-0.035,0.21-0.013,0.414-0.059,0.625
			C2675.208,1346.481,2675.248,1346.244,2675.239,1346.056z"/>
		<path d="M2635.21,1317.139c13.882,20.61,27.902,41.868,34.199,66.249C2675.056,1357.967,2657.475,1326.347,2635.21,1317.139z"/>
		<path d="M2636.926,1347.984c-4.37-2.801-9.332-5.151-13.765-7.474c19.219,17.122,21.527,33.376,16.634,58.886
			c-0.803-6.464-4.389-15.907-11.129-17.647c9.084,14.24,1.426,31.994,0.895,47.655c2.47-4.178,5.096-8.887,7.096-13.83
			c-1.382,6.928-2.647,13.738-3.195,20.222c9.854-19.655,24.631-43.044,18.584-65.946c4.759,4.49,10.08,8.909,12.646,14.756
			c0.019-0.019,0.019-0.019,0.019-0.019c-0.019,0.097-0.039,0.195-0.058,0.292
			C2666.595,1368.883,2649.804,1356.051,2636.926,1347.984z"/>
		<path d="M2625.934,1388.526c-0.156-0.058-0.292,0.019-0.253,0.175c0.002-0.034,0.06,0.141,0.114,0.014
			c3.752,23.328-27.347,48.698-52.143,70.312c5.221-11.032,7.551-21.958,5.381-31.922c-3.847,22.922-25.084,37.663-39.121,54.907
			c-10.173,12.664-20.512,25.207-31.169,37.47c1.541-4.689,2.54-9.574,2.817-14.628c-17.343,31.474-55.374,46.366-70.869,79.641
			c19.726-18.354,48.394-28.736,62.456-52.711c20.361-12.69,46.422-35.047,62.326-58.618
			C2595.013,1456.969,2643.979,1426.545,2625.934,1388.526z"/>
		<path d="M2458.132,1535.108c-1.537-1.186-3.151,0.117-4.201,1.205c-0.436,0.433-2.29,2.017-1.672,2.411
			c0.02-0.086,0.23-0.167,0.214-0.214c1.055-0.46,2.239-0.779,3.344-1.128c-0.048,0.053,0.143-0.021,0.214-0.004
			c-4.803,19.998-21.682,35.05-32.114,52.516c2.794-8.939,3.79-18.252-0.048-25.584c-0.442,2.547-0.99,5.066-1.567,7.577
			c0.168-1.797,0.094-6.609-1.637-6.676c0.01,0.013,0.021,0.026,0.035,0.036c-0.001-0.004-0.002-0.007-0.002-0.007
			c0.001,0.003,0.002,0.005,0.002,0.008c0.006,0.004,0.01,0.008,0.018,0.012c0.095,21.053-66.947,68.161-84.266,84.773
			c32.634-12.199,67.295-30.567,82.422-64.03c-2.027,6.826-2.145,14.187-3.615,21.153c0.168-0.156,0.344-0.318,0.513-0.475
			c-0.022,0.686-0.088,1.36-0.089,2.052c6.034-10.147,17.524-16.728,24.775-26.909c-0.146,0.667-0.326,1.344-0.467,2.009
			C2446.266,1574.824,2466.826,1544.995,2458.132,1535.108z"/>
		<polygon points="2423.865,1564.304 2423.869,1564.31 2423.869,1564.31 		"/>
		<path d="M2362.168,1615.032c-2.468,2.33-4.946,4.885-7.39,7.592c0.201-0.893,0.448-1.781,0.504-2.693
			c-9.507,12.079-26.548,15.194-37.117,26.423c-7.506,7.408-14.077,15.71-19.852,24.537c13.777-8.616,27.312-18.695,40.872-28.109
			c-1.239,2.096-3.169,4.38-3.906,6.374C2347.91,1641.19,2359.101,1629.966,2362.168,1615.032z"/>
		<path d="M2320.181,1637.165c0,0-0.001-0.009-0.007-0.015c-0.008,0.013-0.017,0.027-0.024,0.041
			C2320.16,1637.182,2320.229,1637.16,2320.181,1637.165z"/>
		<path d="M2320.149,1637.191c-2.381,0.89-4.534,2.302-6.578,3.932c-4.904,0.61-8.681,3.998-12.5,6.718
			c1.707-3.43,3.323-6.895,4.771-10.416c-210.874,242.71-300.19-21.801-604.199,97.159c86.237-10.256,175.144-28.117,261.724-9.121
			c143.759,46.737,240.693,59.982,340.813-73.506c-3.9,6.138-6.97,13.091-9.432,19.135
			C2305.152,1661.798,2313.053,1649.1,2320.149,1637.191z"/>
		<path d="M2301.545,1052.525c-11.847,19.493-12.009,43.18-9.235,65.153c6.81-43.146,39.086-97.992,89.996-86.015
			C2356.041,1010.523,2317.273,1025.571,2301.545,1052.525z"/>
	</g>
	<g>
		<path d="M1564.747,2000.355c0.05,0.141,0.164,0.011,0.194-0.078C1564.958,2000.089,1564.761,2000.251,1564.747,2000.355z"/>
		<path d="M1560.095,2013.835c-25.392,13.46-40.219,47.424-42.968,76.252c15.677-24.203,28.699-51.008,42.914-76.242
			C1560.059,2013.841,1560.077,2013.838,1560.095,2013.835z"/>
		<path d="M1541.076,2183.91c-4.64-35.674-12.855-99.74,11.597-128.132c-10.609-1.892-23.076,14.617-28.167,25.256
			c4.28-2.665,8.098-5.936,11.772-9.425C1516.279,2106.224,1518.872,2150.973,1541.076,2183.91z"/>
		<path d="M1550.687,2135.201c-0.001,0.007-0.002,0.013-0.003,0.02c0.004-0.004,0.008-0.009,0.012-0.012
			C1550.692,2135.205,1550.69,2135.204,1550.687,2135.201z"/>
		<path d="M1595.876,2201.777c-1.813-1.961-3.593-3.945-5.26-6.004c-0.178,14.399,16.561,26.227,28.485,33.559
			c-4.194-7.549-10.18-13.927-16.277-20.243c36.105,19.337,78.768,20.494,118.518,16.221
			C1680.333,2213.038,1637.346,2210.568,1595.876,2201.777z"/>
		<path d="M1708.14,2219.485c10.872,2.202,22.762,3.24,33.598,2.353c-19.104-8.274-39.639-12.917-60.376-14.099
			C1686.939,2213.034,1699.162,2217.552,1708.14,2219.485z"/>
		<polygon points="1706.276,2208.443 1706.277,2208.435 1706.276,2208.435 		"/>
		<path d="M1706.278,2208.432c0,0.001,0,0.002-0.001,0.004c0.012-0.004,0.025-0.006,0.037-0.01
			c-0.009-0.003-0.019-0.005-0.028-0.007C1706.284,2208.423,1706.281,2208.428,1706.278,2208.432z"/>
		<path d="M1849.056,2160.842c-16.085,17.219-40.842,24.742-63.756,30.116c-18.182,4.739-36.123,10.367-53.815,16.674
			c-8.444-1.543-17.119-1.78-25.17,0.794c12.427,4.335,26.796,5.624,39.703,2.992c-2.338-0.761-4.755-1.461-7.2-2.108
			C1780.558,2206.925,1831.954,2204.173,1849.056,2160.842z"/>
		<path d="M2079.766,2111.817c-11.332-19.034-24.543-52.928-42.186-57.175c-18.366-38.087-67.929-44.601-103.272-27.53
			c-31.12,13.1-55.772,39.918-83.975,55.976c0.025,0.041,0.07,0.019,0.084-0.021c56.876-9.493,116.054-82.086,172.161-31.251
			c-17.767-0.126-38.032,9.078-60.564,16.747c84.093-3.338,60.705-11.965,113.602,52.047c-2.357,1.576-5.102,2.125-7.939,2.296
			c-23.213-28.889-65.93-23.036-98.607-17.817c33.264,8.83,76.822,6.458,97.293,39.237c13.531,13.56,6.009,18.917-7.272,27.493
			c31.58-5.82,24.838-23.994,11.09-45.305C2080.884,2128.664,2086.714,2120.68,2079.766,2111.817z"/>
		<path d="M1950.103,2181.24c64.057-38.188,60.43-0.263,106.394-13.085c-15.195,1.829-30.733-10.864-45.731-17.033
			c-47.268-16.552-76.112,44.082-152.746,22.633C1884.621,2191.406,1920.711,2193.562,1950.103,2181.24z"/>
		<path d="M2385.074,2130.627c8.338,0.503,17.453-1.148,24.965-4.103c-15.882-2.071-32.023-3.256-47.383-7.759
			C2368.077,2124.765,2376.419,2130.106,2385.074,2130.627z"/>
		<path d="M2394.524,2122.979c11.139,3.545,26.298,0.8,38.014-3.108C2420.24,2117.447,2406.481,2118.293,2394.524,2122.979z"/>
		<path d="M2413.179,2110.429c15.003,3.08,32.47,3.268,46.159-5.073C2444.455,2105.961,2427.087,2104.195,2413.179,2110.429z"/>
		<path d="M2421.723,2104.57c0.007,0.004-0.008,0.01-0.002,0.014c0,0.002,0.002,0.004,0.002,0.005
			C2421.723,2104.57,2421.723,2104.57,2421.723,2104.57z"/>
		<path d="M2550.882,1940.084c-32.997,29.332-52.87,73.129-73.179,112.188c-18.48,16.441-33.071,36.948-54.619,50.022
			c0,0-2.528,2.061-1.38,2.43c0.109,0.012,0.078-0.09,0.018-0.141c-0.001-0.01-0.006-0.021-0.011-0.031
			c29.188-5.154,50.918-25.303,67.584-49.224c0.013,0.876-0.364,2.314,0.032,2.85c0.722-1.632,1.583-3.162,2.41-4.717
			c11.442-9.002,21.352-20.605,28.165-32.972c-8.597,5.402-16.829,11.692-23.817,19.084c-0.444-0.349-0.967-0.591-1.597-0.652
			c25.343-28.857,40.187-64.117,55.876-98.573C2550.49,1940.379,2551.32,1940.166,2550.882,1940.084z"/>
		<path d="M2507.078,1909.516c-1.483-0.518-6.516-3.242-7.025-2.001c40.518,41.114,85.056,38.855,122.635-4.2
			C2576.153,1926.761,2556.461,1929.866,2507.078,1909.516z"/>
		<path d="M2727.513,1797.034c-2.503-12.225-16.544-16.529-27.396-13.082c16.546-21.109,11.046-54.028-21.328-42.461
			c2.977-6.29,5.195-12.95,4.765-19.742c-8.739-49.649-89.156,25.949-108.397,39.526c-10.841,10.741-35.314,17.553-37.564,34.067
			c7.074-12.541,25.887-12.573,37.836-19.678c32.056-16.896,59.032-43.641,92.064-58.68c0.001,0.001-0.007,0.073-0.007,0.073
			c11.644,2.355,8.292,17.898,6.406,26.757c-20.075,13.144-36.895,30.616-51.398,49.563c-0.616,0.813-1.844,2.172-1.341,2.995
			c11.515-7.835,62.001-48.011,72.558-39.091c-0.321,26.248-28.771,48.093-45.918,65.553c13.327-6.311,27.937-14.324,39.703-24.836
			c16.324-8.443,37.06-6.083,19.313,17.723c-17.665,21.031-44.567,30.819-67.547,45.204c12.63-2.336,25.63-5.572,38.119-10.129
			c-0.419,0.369-0.625,0.543-0.761,0.646c5.606-0.531,13.522-0.701,18.708,2.072c-2.168,35.243-55.107,37.158-80.962,47.5
			c101.763,13.887,108.712-66.11,72.7-54.1C2707.227,1838.737,2731.004,1821.546,2727.513,1797.034z"/>
		<path d="M2676.327,1851.509c0.067,0.061,0.096,0.083,0.291-0.066c-0.096,0.024-0.202,0.016-0.298,0.042
			C2676.323,1851.494,2676.325,1851.501,2676.327,1851.509z"/>
		<path d="M2533.429,1895.762c24.641-14.541,38.736-55.961,13.454-75.61C2557.277,1845.418,2546.798,1873.557,2533.429,1895.762z"/>
		<path d="M2546.825,1820.108c0.021,0.013,0.038,0.03,0.058,0.044c-0.004-0.01-0.006-0.021-0.01-0.03
			C2546.854,1820.124,2546.838,1820.122,2546.825,1820.108z"/>
		<path d="M1890.797,2627.11c-33.152,100.443-34.053,209.567-28.895,314.456c4.388-25.43,6.488-51.227,7.926-77.134
			c2.486,3.138,5.589,5.729,9.109,7.895c-14.867,9.189-8.879,28.968-1.557,41.236c-27.156,18.746,4.154,60.926,30.768,40.041
			c8.21,12.586,24.766,6.534,31.129-4.106c-2.977,24.946,35.192,37.117,45.974,17.143c14.326,6.119,30.34,4.989,35.167-12.385
			c6.417-14.429,6.033-21.222-0.451-29.834c21.446-7.749,28.361-49.539,4.293-57.814c7.785-8.74,14.324-20.319-0.443-26.586
			c-4.735-2.686-10.415-4.47-15.59-2.708c2.907-30.05-33.155-29.472-48.612-18.519c-5.545-6.664-12.105-13.004-20.078-16.579
			c-16.538-4.818-37.915,7.106-37.865,25.137c-10.9-1.814-21.917,1.221-30.425,8.168
			C1869.63,2765.271,1890.457,2696.66,1890.797,2627.11z M1878.182,2912.956c-0.104-12.886-5.224-27.801,2.701-39.463
			c11.089,6.109,25.506,8.61,37.111,11.141c-0.538,5.411-1.272,11.629-0.434,17.131
			C1904.421,2903.445,1889.439,2906.137,1878.182,2912.956z M1901.05,2944.205c-9.431,4.426-20.505-5.003-18.041-14.928
			c8.464-11.337,22.708-17.718,35.25-24.348c1.261,5.355,6.083,9.288,11.694,10.91
			C1921.089,2926.017,1913.959,2939.122,1901.05,2944.205z M1940.953,2932.411c-0.822,5.373-1.672,11.191-1.672,16.781
			c-8.335,4.48-19.115,8.145-27.301,1.231c10.296-9.294,14.333-22.133,19.043-34.247c3.884,1.253,8.145,2.017,12.47,2.167
			C1941.924,2922.73,1941.806,2927.946,1940.953,2932.411z M1934.89,2878.257c7.261-9.24,18.949-9.656,27.955-2.21
			c14.461,21.581-9.725,36.723-28.395,23.879C1933.672,2892.894,1930.903,2884.694,1934.89,2878.257z M1967.346,2960.949
			c-21.529,2.094-19.291-27.439-21.561-42.608c7.924-0.116,15.762-2.257,21.343-6.998
			C1975.739,2923.595,1986.899,2954.188,1967.346,2960.949z M2005.939,2958.419c-4.611,3.257-13.14,5.364-18.947,5.103
			c9.698-18.622-1.4-41.859-17.76-54.25c0.829-0.916,1.591-1.899,2.265-2.968c13.473,8.07,27.167,20.298,43.765,19.292
			C2020.385,2937.144,2010.83,2948.263,2005.939,2958.419z M2017.978,2909.53c-11.411,12.38-32.282-2.608-45.809-4.401
			c3.453-6.254,4.157-14.593,1.078-21.069C1998.776,2876.518,2038.854,2868.176,2017.978,2909.53z M2007.418,2842.182
			c6.857-0.375,12.528,4.566,18.531,8.076c1.536,5.34-1.111,10.877-2.111,16.21c-15.94-5.492-38.111,6.202-51.499,15.882
			c-2.286-4.164-6.151-7.251-9.033-11.046C1979.824,2866.191,2002.606,2861.435,2007.418,2842.182z M1972.363,2828.274
			c12.622-1.955,26.122-1.56,20.845,15.321c-6.138,12.456-19.824,18.685-30.777,26.711c-3.946-4.88-9.734-8.121-16.14-8.367
			C1953.759,2849.856,1956.604,2830.899,1972.363,2828.274z M1897.99,2840.986c15.677-3.178,22.812,15.066,28.376,26.307
			c0.202-14.216-4.092-35.017-20.641-39.12c4.941-12.022,18.452-16.647,30.624-16.819c7.458,1.594,14.403,5.692,21.19,9.151
			c-8.946,7.226-10.923,24.931-12.666,41.355c-12.949-0.344-26.516,8.873-26.856,22.549c-12.874-10.146-37.635-15.502-39.182-34.615
			C1884.504,2845.224,1890.595,2841.568,1897.99,2840.986z"/>
		<path d="M2299.76,2579.22c-9.28,121.099-10.376,247.309,15.556,366.758c2.472-56.558-8.363-113.355-8.556-170.343
			C2306.44,2710.175,2311.265,2643.764,2299.76,2579.22z"/>
		<path d="M1789.37,2766.758c-4.353,2.242-7.862,5.284-10.706,8.847c1.836-38.351-41.179-31.493-41.897,1.977
			c-20.559-33.078-49.12-7.253-29.57,21.642c-33.111-14.278-56.552,28.739-2.216,40.642c-65.474,10.736-38.059,78.565,23.624,20.208
			c-14.036,3.773-28.674,13.043-43.981,11.413c-0.039,0.038-0.856-0.293-1.633-0.682c0.266-0.293-1.888-1.389-0.641-3.044
			c9.87-14.503,29.056-23.604,46.638-22.507c0.126,5.411,1.566,10.809,4.247,15.373c-67.446,36.3-4.655,100.644,14.188,34.324
			c-3.04,46.93,43.839,48.721,40.01,3.007c21.857,27.55,43.857-2.566,27.769-25.915c44.131,6.969,40.706-41.573,2.136-42.066
			c39.87-17.948,27.628-63.529-3.783-46.037C1817.129,2768.41,1803.022,2755.071,1789.37,2766.758z M1780.393,2793.013
			c4.193-7.474,11.527-12.14,19.37-15.257c3.682,17.304-11.434,31.035-19.443,45.646c-3.434-2.213-7.472-3.591-11.166-5.458
			C1768.871,2810.24,1776.527,2800.246,1780.393,2793.013z M1784.567,2821.699c-0.556,1.248-1.106,2.495-1.632,3.742
			c-0.472-0.436-0.955-0.857-1.468-1.238C1782.484,2823.378,1783.518,2822.545,1784.567,2821.699z M1768.158,2817.401
			c-1.41-0.843-2.984-1.346-4.563-1.73c1.388-2.534,2.813-5.125,4.217-7.767C1767.675,2811.214,1766.968,2813.96,1768.158,2817.401z
			 M1761.801,2764.318c10.71,12.789,2.391,34.648,0.08,50.974c-3.526-0.602-7.167-0.399-10.683,0.456
			c-0.008-0.026-0.036-0.043-0.113-0.02c0-0.02,0-0.02,0-0.02c-0.019,0.02-0.039,0.02-0.058,0.039
			c-0.044,0.011-0.283-0.005-0.292-0.058c-0.007,0-0.016-0.004-0.026-0.007C1748.627,2802.766,1742.803,2765.737,1761.801,2764.318z
			 M1715.774,2776.582c15.397,5.263,22.059,23.752,28.854,35.868c-0.096-2.529-0.268-5.157-0.495-7.811
			c1.676,4.063,3.704,7.904,6.334,11.276c-4.808,1.301-9.312,3.858-12.896,7.296
			C1728.739,2809.468,1709.623,2794.342,1715.774,2776.582z M1736.408,2824.363c-0.445,0.479-0.853,0.988-1.261,1.497
			c-0.989-1.453-2.038-2.934-3.181-4.446C1733.456,2822.412,1734.942,2823.398,1736.408,2824.363z M1730.725,2834.098
			c-1.04,2.868-1.61,5.922-1.741,9.009c-12.114-3.292-22.627-9.956-33.36-16.434c-5.96-3.711-14.496-10.979-5.15-15.336
			c12.103-4.827,31.362,8.146,43.385,16.276C1732.513,2829.611,1731.423,2831.772,1730.725,2834.098z M1733.988,2900.239
			c-12.725,20.955-23.035-1.952-14.41-15.501c4.162-7.971,8.158-16.416,14.369-23.025c3.521,5.406,8.82,9.475,15.726,10.669
			C1744.273,2881.452,1739.467,2891.285,1733.988,2900.239z M1743.945,2831.893c3.328-6.575,10.14-11.347,17.493-12.644
			c-0.012,0.158-0.036,0.326-0.047,0.482c0.091-0.171,0.188-0.346,0.28-0.518c0.622-0.103,1.242-0.228,1.87-0.281
			c7.651,4.839,15.17,10.029,16.741,19.686c-0.127,0.307-0.254,0.622-0.38,0.932c-0.185,0.056-0.371,0.118-0.556,0.174
			c0.158,0.002,0.326,0,0.485,0.001c-2.673,11.614-14.486,16.122-25.21,17.588
			C1743.495,2855.897,1740.072,2840.924,1743.945,2831.893z M1770.324,2916.035c-11.708,2.553-17.865-34.498-17.568-43.329
			c7.343,0.336,14.196-3.119,20.717-6.562C1775.747,2882.046,1784.465,2904.182,1770.324,2916.035z M1805.484,2894.64
			c-0.001,0-0.002,0.001-0.003,0.002c-13.847-3.966-22.495-18.059-31.586-28.72c4.703-2.402,9.837-4.88,12.156-9.932
			C1798.142,2863.681,1813.593,2879.46,1805.484,2894.64z M1787.129,2853.551c0.283-0.66,0.54-1.322,0.803-1.987
			c1.161,1.046,2.309,2.126,3.453,3.22C1789.976,2854.319,1788.558,2853.892,1787.129,2853.551z M1830.52,2849.576
			c0.812,1.693,3.425,4.123,1.595,5.86c-13.842,11.202-29.954,0.651-43.629-5.313c1.263-3.47,2.08-6.973,1.962-10.389
			C1803.947,2840.566,1821.964,2836.261,1830.52,2849.576z M1824.838,2795.206c6.789,1.61,1.891,10.492-0.292,14.378
			c-7.801,12.915-21.48,19.958-34.586,26.713c-0.633-3.363-3.523-6.681-5.762-9.633
			C1795.569,2814.595,1808.54,2800.365,1824.838,2795.206z"/>
		<path d="M1574.059,2778.167c12.006,14.169,27.552,31.8,47.852,29.172c9.887-5.255,20.325-13.438,22.437-25.121
			c3.418-22.321-0.951-54.265-31.187-40.732c-14.528,4.339-29.243,10.465-40.394,20.959c-1.045-5.119-5.612-8.246-9.817-11.042
			c0.401,0.777,0.891,1.574,1.402,2.383c-3.167-4.833-8.91-7.535-14.743-7.766c0.057-0.083,0.117-0.125,0.166-0.287
			c-0.081-0.228-0.211,0.145-0.305,0.156c-1.586-15.714,1.057-31.464,10.013-44.818c3.345-3.371,9.541-2.1,14.012-3.072
			c9.584-1.448,10.818,0.064,12.203,9.965c0.322,17.032-13.131,29.834-22.137,43c13.996-9.113,29.971-20.607,34.403-37.934
			c4.696-0.763,9.542-1.01,14.164-1.666c8.945,6.638,5.901,18.515,1.111,26.88c6.428-4.347,12.478-12.137,11.647-20.629
			c-0.708-6.677-5.654-15.696-13.416-14.895c-1.382,0.082-7.331,2.419-12.565,5.107c1.539-15.456-8.444-30.401-26.129-26.158
			c-8.153,2.021-18.779,1.355-23.953,9.098c-8.978,17.366-8.799,37.841,0.237,55.221c-14.249-0.268-23.852,14.372-22.396,27.509
			c-11.784,0.997-23.817,6.481-34.883,10.753c-25.439,17.836-14.949,62.9,20.082,48.115c0.682,13.033,15.21,24.359,25.734,12.888
			c-11.853,4.281-17.756-5.356-23.675-13.962c13.165-7.503,20.917-23.943,28.349-37.505c1.715,0.75,3.422,1.177,5.117,1.423
			c-4.73,19.132-10.36,49.386,15.576,54.521c11.782,3.324,26.455-2.027,31.153-13.847c5.4,5.015,14.138,3.126,19.318-1.26
			c6.501-5.545,7.104-14.96,7.719-22.924c-5.452,9.34-12.84,26.437-26.628,22.372c3.302-17.721-11.447-38.561-25.716-47.795
			C1571.267,2784.02,1573.473,2781.439,1574.059,2778.167z M1625.992,2754.273c0.255,0.267,0.496,0.546,0.722,0.84
			c0,0-0.164-0.058-0.164-0.058c4.864,13.557,4.12,31.079-8.995,39.644c-16.162,2.293-29.961-10.728-43.283-18.115
			c-0.062-3.35-0.313-7.013-0.744-10.557C1588.896,2757.265,1608.688,2755.949,1625.992,2754.273z M1505.488,2820.762
			c-14.73,3.322-13.372-16.302-8.232-24.788c8.755-7.831,19.231-15.601,29.507-21.045c1.025,7.654,5.299,14.609,12.901,17.831
			C1528.961,2803.148,1519.942,2816.257,1505.488,2820.762z M1542.088,2776.62c-9.079-15.925,10.403-32.834,23.954-19.171
			c-0.164-1.159-1.023-2.544-1.653-3.605c5.368,6.121,2.805,14.485,1.097,21.667
			C1559.146,2781.909,1548.045,2785.656,1542.088,2776.62z M1580.538,2831.996c-0.252,0.048,0.438-0.403,0.484-0.583
			C1580.86,2831.607,1580.716,2831.814,1580.538,2831.996z M1581.97,2829.947c-5.431,7.695-20.114,6.784-25.074-1.125
			c-4.475-10.316-5.54-22.052-6.714-33.37c6.832-0.022,13.215-3.675,18.231-8.781
			C1577.052,2798.975,1584.172,2814.783,1581.97,2829.947z"/>
		<polygon points="1538.09,2748.523 1538.089,2748.522 1538.089,2748.523 		"/>
		<path d="M1471.985,2761.245c-6.917,10.265-0.259,21.84,8.226,28.718c-5.391-11.954-6.769-22.021,0.556-33.906
			c13.552,8.022,31.347,7.193,46.591,7.748c-14.895-7.497-37.019-8.104-44.119-25.43c2.827-7.063,9.368-9.916,16.199-11.939
			c19.519-9.074,28.914,8.669,38.652,22.086c-3.978-24.161-13.927-36.844-30.956-37.598c2.818-5.948,9.516-10.456,14.43-14.714
			c8.889-9.396,13.49-7.257,22.781,0.167c-2.626-8.296-12.832-17.767-21.388-11.588c-8.651,5.133-20.309,15.496-19.578,26.117
			c-6.387,0.343-13.669,2.181-21.908,5.556c-13.512,9.996-18.202,25.974-3.214,37.284
			C1475.576,2755.924,1473.196,2759.052,1471.985,2761.245z"/>
		<path d="M2459.965,2880.854c8.457-7.728-14.523-50.798-17.195-62.948c-8.014-21.846-13.727-46.152-19.581-68.888
			c-22.319-61.805-40.989-123.734-51.022-189.272c-9.82-57.979-23.311-115.529-35.815-173.064
			c-8.155-40.007-13.541-84.362-41.467-116.652c12.186-13.3,30.69-33.503,21.466-52.637
			c-16.679-32.619-26.609-68.605-25.851-105.811c26.17,26.056,51.347,30.315,87.154,26.19
			c-29.333-8.042-58.754-16.719-87.141-26.648c-0.158-33.183,8.475-65.665,7.476-98.876c27.243,0.704,46.421-17.25,46.486-45.727
			c10.745-6.012,19.785-14.124,27.643-23.344c43.205,5.233,79.904-31,100.382-65.589c2.708,4.504,6.368,9.163,11.271,14.071
			c-20.375-38.924,2.587-48.868,9.896-84.442c2.822-17.342-0.984-35.144,3.18-52.334c2.241-9.325,6.175-19.364,15.57-23.468
			c1.856-0.554,5.107-2.299,5.843,0.45c12.085,21.778,2.162,61.251,13.631,70.025c-4.831-21.884,12.277-45.483,4.041-68.401
			c-2.187-19.717-19.49-25.059-35.092-14.582c-25.358,17.878-21.714,52.492-22.797,79.849c-3.949,31.146-20.386,51.66-6.665,76.869
			c-23.443,18.195-57.056,48.942-94.017,60.986c6.358-8.432,11.92-17.527,16.873-26.771c6.592-7.679,8.78-17.994-3.744-20.095
			c-18.54-11.343-35.448-27.284-48.832-45.213c-25.528-43.499-54.919-109.158-115.409-101.979
			c-5.068-5.731-19.039-10.752-26.214-7.612c14.14,2.047,29.211,13.222,14.951,27.103c-0.947,2.263-1.495,3.529-1.555,6.457
			c0.126,3.415,2.988,5.688,4.81,8.291c4.176,6.029,6.948,12.893,8.509,20.388c0.516,11.108-1.033,28.142-13.565,32.309
			c-4.32,1.915-9.656,1.815-12.743,5.839c-2.353,3.247-2.314,7.097-0.467,10.557c11.66,24.049,7.898,50.413-24.261,47
			c-4.798-7.379-17.989-2.806-16.006,6.255c8.666,25.781-10.522,45.745-36.391,39.336c-9.408-1.682-16.229-13.862-26.353-10.288
			c-13.631,12.077-24.796,32.699-45.853,20.127c-3.699-2.616-7.861-5.438-9.558-9.823c-2.111-10.409-12.419-9.824-17.52-1.805
			c-25.624,16.443-59.513,16.924-59.244-21.098c-2.357-7.209-10.959-7.859-15.848-2.653c-4.73,2.152-10.11,2.969-15.277,2.793
			c-8.691-7.339-17.04-16.503-21.108-27.668c-2.267-5.584-3.004-12.76-8.645-16.102c-16.363-3.683-40.174-4.386-43.813-25.375
			c-3.363-13.377,1.62-37.162-19.869-32.153c-7.556-0.787-13.508-6.915-19.486-11.987c-5.674-8.551-2.449-20.248-5.416-29.763
			c-4.567-13.583-53.816-26.031-34.614-43.715c0.026,0.033,0.624-0.368,0.902-0.473c68.482,72.443,135.23,166.198,243.256,175.453
			c88.995,9.91,184.433-50.539,157.566-149.439c-5.986,128.617-129.935,163.654-232.018,109.641
			c-31.504-16.912-59.268-40.141-83.466-66.344c-25.438-26.805-48.667-60.745-82.992-76.472c0.119-2.242,1.264-6.805-1.195-8.224
			c-0.526-0.02-0.33,1.047-0.083,1.003c-0.661,2.001-1.602,3.84-2.722,5.575c-3.875-1.033-15.233-7.22-17.672-3.153
			c3.732-1.525,10.829,5.533,14.128,7.543c-3.791,1.512-7.059,4.25-9.004,7.913c-6.149,4.587-12.791,8.833-17.583,14.038
			c4.875-1.206,10.642-3.024,16.057-5.591c0.604,4.962,3.212,10.262,6.896,15.378c-6.12-2.411-14.377-4.978-20.737-1.789
			c-40.234-25.595-94.785-0.344-112.112,41.644c-11.53,27.132-14.473,56.298-30.432,81.894
			c-14.695,25.417-39.054,44.21-65.193,57.026c-37.324,10.765-13.111,45.49,10.524,56.715c-13.68,8.414-22.8,23.134-28.01,38.148
			c1.292-1.146,2.555-2.35,3.815-3.559c-0.358,0.439-0.74,0.865-1.087,1.309c11.324-4.295,21.86-11.92,32.088-18.752
			c-6.436-1.658-17.36,4.219-23.235,9.389c7.115-7.912,13.605-16.604,19.348-25.34c17.585,5.445,38.872,1.82,55.285-6.492
			c7.511,37.71,40.666,57.159,77.422,46.814c10.292,26.144,41.248,42.792,67.956,30.842c26.634,15.863,58.82,24.41,88.579,31.199
			c0.001-0.001-0.155-0.021-0.155-0.021c1.378,0.041,7.161,2.224,3.947,0.117c-16.226-11.992-34.548-20.746-53.765-26.495
			c33.836-82.182,75.772-145.676,36.398-237.316c2.518,0.645,5.151,0.937,7.919,0.763c0.238,36.139,19.849,50.392,53.577,56.379
			c3.918,15.45,14.191,27.579,25.272,38.558c7.25,8.541,19.513,5.843,29.247,4.438c12.24,39.068,50.69,37.503,81.524,21.512
			c22.853,24.763,52.211,17.626,72.286-6.241c28.603,22.422,78.236,2.034,75.549-36.35c39.802,0.497,51.472-31.004,40.071-64.998
			c31.55-11.759,31.296-59.425,8.115-79.68c4.84-6.338,3.931-15.849-0.136-22.314c45.572,11.345,72.157,56.76,92.298,95.844
			c14.198,25.747,35.897,47.068,59.539,64.222c-8.538,17.565-19.036,32.293-35.744,43.428c-5.875,4.367-15.353,6.198-14.831,15.33
			c1.684,27.164-9.059,39.455-30.163,44.583c-7.575-69.794-2.499-148.764-46.277-207.644c20.59,66.71,27.768,140.018,30.793,210.03
			c-1.003-0.045-2.001-0.102-2.942-0.402c0.848,0.665,1.847,1.179,2.926,1.596c-3.966,72.836-18.151,148.813,19.111,216.234
			c-23.962,79.268-133.691,73.596-201.061,75.833c-117.985-5.182-226.165-60.45-342.574-72.487
			c138.273,51.858,406.444,142.465,534.41,42.654c11.663,27.161,17.026,55.273,23.573,84.334c1.108,5.348,2.304,10.939,3.517,16.471
			c-0.001-0.004-0.002-0.007-0.002-0.011c1.124,5.312,2.267,10.714,3.47,16.183c9.826,47.018,21.491,93.397,29.759,140.977
			c6.637,42.42,12.896,84.04,24.809,125.526c4.324,16.277,13.831,30.77,18.115,46.918c-10.732,2.517-23.021,10.08-19.361,22.815
			c-13.448-5.907-33.198-2.084-41.988,9.344c-7.684,12.891-14.697,32.467-3.415,45.235c-17.167,14.807-11.848,42.356,5.221,54.884
			c-17.5,26.835,10.79,68.272,39.946,43.973c12.027,14.401,39.853,2.009,43.078-14.669c7.884,3.361,15.292-0.749,19.654-7.621
			c2.137,5.683,4.345,11.342,6.69,16.952c-2.392,2.573-4.841,5.091-7.276,7.621c0.859-1.777,1.671-3.566,2.37-5.377
			c-38.704,40.808-88.435,67.617-141.451,84.927c-43.873,17.964-89.418,34.699-137.56,33.19c-29.226-1.433-58.542,4.341-87.715,6.91
			c0.572-26.373-0.401-52.863-1.893-79.382c4.075,2.581,8.476,4.587,13.272,4.829c-12.379,12.457-17.329,44.537,7.204,46.595
			c11.629-1.748,23.799-6.44,29.899-17.069c-1.495,11.879,1.117,23.367,11.358,32.251c19.819,14.203,29.245-18.77,32.856-32.985
			c12.357,32.346,54.275,18.284,42.103-14.695c41.874,18.779,55.232-34.536,15.424-43.192
			c38.366-11.134,18.264-51.462-15.213-36.868c23.935-15.248,18.806-56.296-13.681-42.908c-2.271-21.314-24.934-20.9-34.332-5.263
			c-3.737-18.817-32.803-21.486-37.023-1.612c-3.433,12.622-0.884,26.177,5.49,37.444c-49.031-41.897-91.868,14.819-18.958,32.462
			c-14.198-0.899-28.559,0.457-40.417,7.862c-5.136-58.319-2.65-117.019-2.942-175.321c-21.769,58.313-9.164,123.467-5.842,184.095
			c-2.554,5.509-2.515,12.345,1.287,17.023c2.426,29.009,5.788,57.982,10.482,86.804c-56.337,9.8-106.551-24.788-161.089-29.868
			c-50.058,0.464-100.424,2.08-149.849-7.638c-13.785-2.507-27.629-5.773-41.725-5.365c-23.466,1.368-46.959,0.762-68.978-8.85
			c-0.335-5.859-6.385-10.974-13.266-7.414c-32.661-20.275-44.179-75.65-88.875-75.197c-95.612,3.422-98.137-51.098-169.51-78.104
			c78.714-50.654,161.354-142.541,185.608-234.46c-38.996,58.885-72.464,123.278-125.221,171.519
			c3.651-5.728,3.783-14.906-0.961-21.68c34.776,2.269,47.056-53.483,2.449-46.401c40.79-16.766,30.758-66.276-14.962-45.793
			c26.46-50.891-55.199-45.621-47.854,24.085c-1.231-0.431-1.794-0.507-0.32,0.326c-1.307-0.318-2.6-0.538-3.873-0.666
			c20.887-69.451-55.684-65.172-29.193-10.679c-7.255-9.223-17.939-15.98-28.536-14.655c-57.227,10.069-14.607,53.028,21.698,49.309
			c-10.959-4.687-35.111-14.833-35.626-28.363c20.099-12.913,36.288-4.988,49.216,13.132c-4.936,5.303-8.017,12.475-8.3,20.078
			c-43.115-19.426-93.324,27.279-47.984,42.552c19.075,4.052,36.998-10.092,49.678-22.284c-15.384,5.703-35.729,18.335-51.02,6.864
			c-1.725-15.507,32.24-25.213,49.347-24.63c-0.187,14.979,14.406,21.848,26.137,27.364c-0.543,0.708-1.088,1.411-1.612,2.162
			c-0.073-0.638-0.106-1.271-0.227-1.917c-5.212,14.745-24.387,43.659-41.39,33.137c-2.229-6.791,19.39-37.89,25.119-43.633
			c0.073,0.029,0.088,0.055,0.173,0.074c-0.019,0-0.019,0-0.019,0c0.039,0.019,0.058,0.039,0.097,0.039
			c-13.172,2.896-30.639,22.767-39.082,34.354c-6.423,11.965,4.574,26.623,17.656,25.705c11.148,0.122,20.438-6.945,26.782-15.75
			c0.248,34.132,44.123,37.436,43.174,0.544c7.488,9.213,21.806,10.672,31.101,4.891c-18.031,17.631-35.982,35.344-52.184,54.741
			c-4.135-1.118-8.369-2.055-12.639-2.926c-1.176-9.762-11.599-9.092-18.19-3.773c-45.421-7.548-42.634-39.244-66.252-68.689
			c-17.347-24.008-59.5-22.208-70.588-50.652c-0.552-10.293-0.907-20.769-1.774-31.163
			c85.579,12.321,312.326-237.216,363.494-310.808c-85.734,72.903-155.832,164.672-243.571,236.305
			c-24.947,20.874-52.753,35.418-79.945,53.477c-12.675,8.502-24.424,18.75-40.041,20.273c-1.708-19.868-5.388-39.401-16.224-56.689
			c170.71-87.023,299.79-235.559,454.22-346.627c-6.722,2.264-15.994,5.31-24.562,8.94c-28.77-24.175-68.965-48.448-74.254-89.306
			c0.019-0.001,0.035-0.001,0.059-0.001c0.605,0.414-0.034-0.513-0.297-0.253c0.45-3.863,1.004-7.708,1.833-11.503
			c-14.736,13.484-11.67,38.679-6.521,56.748c1.651-7.488,2.367-15.125,2.904-22.784c5.898,37.253,41.238,56.469,73.888,68.139
			c-155.115,92.124-268.567,247.578-435.898,321.371c-20.308,5.927-6.575,20.918-0.689,32.735
			c3.999,8.396,6.293,17.426,7.694,26.676c-9.193-5.498-38.401-17.259-37.007-30.156c2.985-11.084,14.447-17.751,18.686-28.096
			c-41.941,23.734-39.094,40.149-1.389,68.055c-28.954,21.846-8.414,45.691,16.659,58.168c-4.825,11.193,0.907,23.735,10.777,29.752
			c-147.938,22.49-292.535-113.891-234.74-263.233c39.778-97.173,141.836-144.187,214.495-213.249
			c162.339-139.655,57.941-339.918-149.533-264.561c-0.444,0.862-0.891,1.704-1.25,2.602c1.388,1.713,2.82,3.343,4.418,4.845
			c0.014-0.001,0.028-0.003,0.041-0.005c75.383,14.454,202.637,6.215,163.682,125.118
			c-44.098,82.416-137.62,119.125-199.139,185.698c-70.948,78.026-140.38,183.078-111.585,293.01
			c31.714,152.171,218.818,258.704,352.74,159.143c-14.096,2.158-27.182,7.447-41.103,11.141
			c-150.929,51.696-306.377-74.429-303.255-230.078c5.034-98.669,86.793-205.14,162.233-264.539
			c55.335-42.911,121.287-82.012,155.099-145.941c34.42-73.155-23.567-135.689-97.356-139.86
			c124.34-2.19,161.426,105.892,98.816,202.417c-81.165,112.184-250.121,162.025-273.525,312.84
			c-9.977,79.058,25.982,158.709,93.214,202.014c50.061,31.088,115.214,52.104,171.363,24.848c10.5,3.005,21.811,1.866,32.612,1.672
			c-4.639,28.767,9.75,42.967,37.742,45.052c-4.5,13.353,0.274,28.742,11.929,36.792c16.366,12.292,37.442,4.778,55.363,0.671
			c-0.744,24.396,26.423,38.286,48.125,35.072c2.328,32.719,46.236,45.606,71.772,30.086c-9.497,28.789,15.311,37.102,38.91,29.696
			c0.397,41.105,36.282,45.468,66.575,28.264c0.245,38.39,27.031,43.64,59.1,37.82c-1.639,22.343,23.962,38.904,44.315,31.301
			c-0.987,10.473-9.196,20.127-14.7,28.704c-7.49,9.274-14.494,19.12-21.117,29.068c-77.243,84.129,55.335,126.566,116.605,156.791
			c30.259,16.156,60.183,32.646,93.913,40.352c18.874,7.427,34.463,21.818,54.552,26.436c14.372,4.031,37.116-1.419,35.381-19.954
			c19.904,9.02,79.984,32.385,68.855-9.688c29.207,8.947,66.658,13.526,41.393-30.222c22.188,6.48,14.506-26.314,4.592-35.421
			c-31.466-41.909-90.314-31.155-131.707-56.603c-24.856-13.376-47.176-34.388-69.16-52.633
			c-20.171-15.409-35.239-35.221-37.963-61.186c9.117-5.915,18.56-14.585,23.165-24.717c1.475,0.061,2.952,0.082,4.428,0.132
			c-0.996,38.679,32.085,46.918,58.953,22.978c7.197,28.642,44.287,28.004,63.492,11.882c12.613,26.817,49.009,26.178,69.895,9.644
			c7.211,10.668,16.601,16.129,26.42,17.016c-39.993,83.87,63.862,99.179,123.993,94.97c50.097,0.602,98.016,17.923,147.728,22.266
			c15.909,3.511,24.335-9.85,22.685-23.058c15.498,4.144,31.622,6.494,47.583,8.166c10.736,0.243,15.475-5.134,14.685-13.853
			c16.172,5.109,23.482-9.158,21.374-23.36c-1.074-14.466-10.19-26.592-21.018-35.637c-44.402-38.322-105.626-17.435-157.64-28.904
			c-12.271-5.065-23.219-12.783-34.634-19.471c43.55,65.486,113.994,20.008,171.844,52.349c14.3,8.752,28.92,21.203,31.647,38.632
			c1.667,10.675-2.212,12.483-11.892,14.207c-7.957-50.507-61.527-52.56-102.445-52.482c31.526,10.537,78.653,13.852,86.217,53.705
			c-14.965,1.215-29.812,3.565-44.845,3.981c0.605-0.936,2.228-1.898,1.539-3.147c-0.204-0.13-0.058,0.684-0.272,0.739
			c-0.461,0.563-1.702,1.058-2.819,1.606c-9.388-28.585-42.014-37.162-68.539-39.013c20.559,9.267,55.03,21.142,52.695,48.564
			c-44.501-0.098-87.291-16.312-131.557-19.302c-38.277-4.389-79.661,4.895-115.028-13.903
			c-30.212-15.495-33.005-35.699-29.845-66.917c10.609,0.461,21.621-4.396,30.874-13.98c12.033,32.845,53.984,30.232,63.591-2.84
			c13.109,30.52,56.053,15.809,67.941-8.652c21.329,20.977,51.227,6.065,61.894-18.179c26.377,23.727,65.212,8.343,59.953-29.239
			c28.701,13.295,60.795,7.003,64.857-28.634c30.263,14.071,58.852-3.105,43.262-37.29
			C2481.76,2917.73,2480.331,2893.292,2459.965,2880.854z M1833.301,1910.012c2.598,56.872-39.359,101.245-48.397,155.264
			c-6.196-1.994-13.414-1.126-18.775-5.065c5.217-2.691,10.174-5.863,14.73-9.115c-6.389,2.083-13.667,4.277-20.04,5.143
			c-2.24-1.854-4.403-3.802-6.514-5.687c1.162,1.973,2.374,4.045,3.672,6.106c-30.213,3.899-47.598-13.893-56.192-43.77
			c-3.739-3.783-10.818-2.847-13.38,1.774c-29.154,14.76-61.986-10.2-59.519-41.73c1.05-2.803,0.956-5.895-1.28-8.729
			c-3.694-4.732-11.004-3.874-14.294,0.819c-20.576,18.251-60.898,20.546-71.238-9.847c62.057-29.052,92.774-72.943,107.276-139.175
			c10.279-44.299,61.976-71.979,104.645-57.156c-0.006-0.052-0.047-0.124-0.062-0.182c2.294,0.85,4.526,1.812,6.491,2.844
			c-1.761-2.036-3.684-3.834-5.702-5.476c17.82,1.567,33.192,27.642,43.297,40.803
			C1820.068,1830.207,1835.593,1868.994,1833.301,1910.012z M2415.08,2780.566c1.349,5.16,2.731,10.31,4.151,15.451
			c-3.039,7.477-5.902,15.66-11.088,21.989c-7.93-8.658-19.315-21.125-11.237-33.153c3.228-4.715,11.223-11.188,16.725-5.96
			c0.057,1.306-0.409,2.808-0.256,4.269C2413.942,2782.557,2414.541,2781.526,2415.08,2780.566z M2381.086,2718.532
			c3.819-5.249,9.617-9.222,15.041-13.127c6.199,22.972,11.708,45.85,17.313,68.798c-4.406-3.76-10.168-3.808-15.558-1.828
			c0.118-16.705-2.998-37.084-19.609-45.719C2378.507,2723.923,2379.986,2721.002,2381.086,2718.532z M2340.242,2763.854
			c3.333-15.499,8.322-24.388,25.223-26.268c18.538-0.334,27.075,19.993,31.437,35.164c-8.072,3.402-14.252,10.196-15.8,18.421
			c-11.786,6.463-22.773-2.29-31.723-10.04C2344.277,2776.898,2338.509,2771.091,2340.242,2763.854z M2337.42,2832.792
			c-0.364,0.542-0.677,1.119-1.01,1.682c-7.454-15.295-9.89-34.522-1.56-50.27c12.47,8.95,31.661,21.835,45.876,9.57
			c-0.502,5.76,1.057,11.581,3.936,16.818C2369.096,2811.722,2347.217,2818.335,2337.42,2832.792z M2415.186,2866.569
			c-6.317,6.149-28.13,14.286-36.436,9.999c11.475-12.825,15.029-31.532,19.8-47.333c-11.25,13.983-17.125,37.122-35.912,42.329
			c-10.006,1.622-15.494-10.009-15.136-18.594c-1.268-21.771,21.073-32.057,38.245-40.532c5.169,6.661,13.232,17.688,22.333,17.388
			c1.375,11.058-0.772,27.196,9.45,33.85C2416.768,2864.676,2415.998,2865.709,2415.186,2866.569z M2421.619,2854.304
			c0,0-0.045,0.069-0.045,0.071c-2.699-8.319-6.212-17.271-10.438-25.466c7.637-3.829,9.36-16.74,9.698-27.158
			c4.784,16.928,10.071,33.702,16.109,50.217C2431.887,2855.947,2426.479,2859.384,2421.619,2854.304z M2105.153,2952.959
			c-3.671,1.151-8.407,2.666-12.44,3.151c-11.004-21.009,24.25-44.837,38.352-56.862c1.848,5.369,5.586,10.024,10.249,13.558
			C2132.117,2928.163,2119.061,2941.681,2105.153,2952.959z M2130.712,2883.086c-3.081-0.498-6.245-0.971-9.452-1.385
			c3.777,0.001,7.546-0.337,11.172-1.124c-0.405,0.863-0.773,1.74-1.089,2.635
			C2131.135,2883.169,2130.915,2883.129,2130.712,2883.086z M2141.802,2974.313c-14.215-16.613-5.729-41.253,1.771-59.924
			c4.675,3.025,10.312,5.058,15.706,5.565C2164.059,2939.588,2153.146,2958.677,2141.802,2974.313z M2141.765,2914.329
			c0.08-0.342,0.148-0.675,0.224-1.013c0.102,0.073,0.209,0.138,0.312,0.211C2142.124,2913.796,2141.946,2914.064,2141.765,2914.329
			z M2171.248,2881.361c4.156,2.993,7.421,7.31,8.636,12.017c-8.658,34.343-50.339,4.829-28.503-13.892
			c6.026-3.761,13.338-2.507,19.115,1.326c-0.575,0.564-1.167,1.112-1.731,1.684
			C2169.576,2882.118,2170.424,2881.738,2171.248,2881.361z M2178.145,2878.2c2.951-1.346,5.909-2.744,8.867-4.194
			c-1.208,1.056-4.929,4.341-7.379,7.124C2179.188,2880.125,2178.695,2879.146,2178.145,2878.2z M2195.594,2951.8
			c-1.495,3.537-3.125,7.913-7.742,7.366c0.47-0.061,0.572-0.02,0.952-0.057c-14.069-1.64-20.897-24.865-26.933-39.052
			c5.295-0.053,9.582-1.865,12.849-4.824C2185.112,2924.257,2196.972,2937.903,2195.594,2951.8z M2232.578,2925.316
			c-6.915,14.135-25.84,3.146-36.816,0.053c-5.048-4.811-11.307-8.092-17.646-10.881c0.014,0.042,0.04,0.077,0.054,0.118
			c-0.696-0.261-1.401-0.459-2.105-0.682c3.359-3.685,5.403-8.695,6.155-14.098
			C2197.22,2901.281,2234.276,2908.771,2232.578,2925.316z M2230.297,2876.506c-7.537,17.592-31.589,15.867-47.686,17.861
			c2.184,0.822,4.649,1.466,7.172,2.042c-2.528,0.389-4.993,0.98-7.369,1.833c0.451-4.969-0.196-10.178-1.917-14.959
			C2193.296,2876.299,2222.058,2864.497,2230.297,2876.506z M2194.127,2833.953c13.307-10.94,19.323,1.535,10.469,12.874
			c-7.812,10.973-18.37,19.479-28.311,28.521c-1.164-1.544-2.503-2.948-3.993-4.201
			C2182.304,2860.673,2191.281,2848.143,2194.127,2833.953z M2177.626,2816.661c2.079-1.367,2.814,1.513,3.164,3.083
			c4.108,15.563-11.94,28.391-9.343,43.483c0.129,0.088,0.14-0.147,0.007-0.154c1.133-2.627,2.475-5.185,3.949-7.68
			c-1.783,4.652-3.819,9.229-5.927,13.733c-2.663-1.651-5.717-2.847-9.202-3.394
			C2160.508,2849.181,2163.122,2826.414,2177.626,2816.661z M2157.681,2861.285c0.551,1.538,1.151,2.965,1.804,4.284
			c-1.044-0.258-2.08-0.419-3.109-0.509C2156.823,2863.812,2157.263,2862.562,2157.681,2861.285z M2087.016,2851.379
			c0.54-1.431,1.437-2.881,2.839-3.591c0,0-0.104-0.051-0.104-0.052c16.466-3.951,43.766,3.508,50.3,20.434
			c0.724-0.64,0.92-2.002,0.865-3.231c0.438,0.403,0.888,0.802,1.313,1.21c-4.265-15.7-13.469-40.952-1.012-54.559
			c15.032,1.964,13.058,39.935,14.171,53.401c-9.091-0.344-17.308,5.512-21.854,13.445
			C2114.706,2876.638,2100,2864.364,2087.016,2851.379z M2119.512,2887.947c3.642-0.454,7.283-1.132,10.94-1.635
			c-0.827,3.41-0.863,7.118-0.111,10.384c-9.631,4.89-20.02,7.954-30.447,11.083c-11.522,3.97-15.077,6.154-24.272-3.697
			C2084.836,2890.859,2104.679,2890.288,2119.512,2887.947z M1435.913,2623.013c5.268-1.034,10.802-0.788,15.647,1.665
			c0.915,21.491-30.173,32.186-46.944,38.186c-0.484-6.316-0.604-13.676-5.525-18.101
			C1409.685,2635.103,1421.948,2625.994,1435.913,2623.013z M1406.076,2664.694c-0.484,0.217-0.986,0.391-1.466,0.621
			c0.003-0.212,0.002-0.424,0.002-0.636C1405.103,2664.677,1405.584,2664.701,1406.076,2664.694z M1403.271,2684.993
			c-1.091-0.396-2.144-0.765-3.155-1.104c0.221-0.327,0.426-0.662,0.633-0.998
			C1401.585,2683.592,1402.421,2684.296,1403.271,2684.993z M1390.412,2612.692c4.31-9.842,12.733-18.175,23.787-19.533
			c14.062,0.416-8.146,36.029-16.547,47.469c0.121-0.078,0.243-0.164,0.364-0.243c-0.477,0.785-0.915,1.573-1.366,2.361
			c-4.789-3.281-10.986-4.688-16.638-6.383C1382.67,2628.471,1386.796,2620.325,1390.412,2612.692z M1393.746,2648.124
			c-0.288,0.522-0.375,0.731-0.597,1.417c-0.05-1.485-0.798-2.842-1.641-4.108
			C1392.452,2646.218,1393.168,2647.137,1393.746,2648.124z M1353.712,2642.653c-0.654-3.454-1.948-6.988-3.737-10.411
			c2.315,2.97,4.864,5.516,7.543,7.446C1356.164,2640.558,1354.905,2641.564,1353.712,2642.653z M1359.803,2598.15
			c9.377,9.452,11.439,24.616,13.484,37.398c-5.666-0.326-10.919,1.151-15.386,3.922
			C1352.728,2630.481,1342.063,2594.582,1359.803,2598.15z M1361.033,2670.539c-12.842-20.504,20.389-39.525,32.005-19.742
			c0.048-0.185,0.025-0.358,0.048-0.54c0.371,0.029,0.787-0.717,1.166-0.962C1398.527,2675.306,1383.829,2691.582,1361.033,2670.539
			z M1384.986,2739.883c-20.257,5.008-18.463-31.82-13.596-44.944c5.124,1.805,10.48,1.448,15.368-0.413
			C1388.782,2709.795,1397.529,2726.509,1384.986,2739.883z M1427.943,2716.527c-1.393,5.574-8.748,7.022-13.53,6.018
			c-11.965-3.967-19.308-16.411-24.72-27.193c0.04,0.487,0.093,0.989,0.14,1.484c-0.486-1.037-0.974-2.037-1.476-2.958
			c4.566-2.09,8.623-5.483,11.524-9.62C1409.2,2693.894,1429.339,2700.153,1427.943,2716.527z M1427.296,2692.543
			c-7.564-5.093-16.612-8.6-25.116-12.27c1.837-3.633,1.917-7.73,2.307-11.791c16.494-2.219,32.937,0.853,49.388,4.877
			c2.076,4.649-1.291,9.203-3.685,13.328C1444.525,2693.397,1436.116,2694.118,1427.296,2692.543z M1178.744,2658.154
			c-12.892-10.457,10.873-19.721,14.627-28.942c1.942,13.167-1.251,28.087,2.729,40.408
			C1189.512,2667.415,1184.135,2662.411,1178.744,2658.154z M1221.142,2703.429c-4.048-0.049-8.301,0.655-12.112-1.174
			c0.314,0.157,0.625,0.332,0.933,0.486c-1.631-0.682-3.38-2.129-4.558-3.565c-2.746-4.161,0.208-9.43,1.667-13.971
			c7.569,6.961,17.483,12.353,27.274,17.008C1229.994,2702.904,1225.609,2703.454,1221.142,2703.429z M1262.7,2746.052
			c-14.171-3.913-10.152-23.203-7.21-33.819c13.78,7.632,22.276,21.222,29.096,35.246
			C1277.302,2748.191,1269.889,2747.309,1262.7,2746.052z M1301.217,2791.344c-11.601-3.385-14.935-17.314-8.198-26.498
			c7.774,12.855,18.69,20.341,31.209,25.394C1316.685,2792.335,1308.719,2793.874,1301.217,2791.344z M1395.44,2818.909
			c-14.859,6.054-39.963-0.478-36.554-18.905c14.342,2.451,29.64,8.492,41.08,16.479
			C1398.459,2816.795,1396.919,2817.532,1395.44,2818.909z M1462.757,2865.534c-21.713,6.378-61.023-5.234-55.652-33.509
			c2.894-2.778,3.465-6.131,2.654-9.036c21.865,15.454,34.293,30.443,53.487,41.58
			C1463.077,2864.885,1462.915,2865.208,1462.757,2865.534z M1470.102,2884.568c-4.405-4.806-5.492-12.195-4.158-18.463
			c9.913,5.375,21.724,9.745,37.44,12.691C1493.131,2883.305,1478.903,2891.985,1470.102,2884.568z M1576.397,2900.125
			c-14.383,8.969-30.269,23.177-48.494,18.634c-10.223-3.727-14.099-18.984-8.781-27.978c3.993-1.772,6.454-5.385,6.965-9.005
			c18.721,1.054,41.047-0.226,53.568,16.995C1578.589,2898.987,1577.493,2899.42,1576.397,2900.125z M1602.252,2949.901
			c-19.678,0.321-23.271-25.934-13.196-38.8c10.612,13.99,20.617,26.278,32.462,36.192
			C1615.156,2948.594,1608.709,2949.495,1602.252,2949.901z M1728.649,2974.008c8.308,1.244,16.63,2.43,24.958,3.573
			c-12.919,29.552-36.259,26.163-51.385,0.648c0,0-0.012,0.215-0.012,0.215c-0.179-1.681-0.731-3.29-1.535-4.713
			C1709.99,2973.929,1719.338,2973.699,1728.649,2974.008z M1656.466,2980.358c-8.382-1.739-16.063-10.464-13.29-18.949
			c11.239,5.603,27.03,9.716,41.133,11.286C1675.62,2976.395,1666.103,2981.009,1656.466,2980.358z M1812.648,3046.25
			c20.261,42.356,84.314,88.906,128.187,104.957c31.996,9.316,67.783,8.91,94.253,32.125c7.981,3.854,31.036,33.213,9.068,29.97
			c-23.393-38.98-63.798-53.015-106.293-58.188c23.454,11.872,50.699,18.724,69.871,37.838
			c13.632,13.034,27.75,27.462,31.997,46.703c-11.974,2.301-23.923,3.79-36.198,3.84c-16.332-46.973-58.569-64.854-101.751-77.865
			c34.141,22.912,79.666,43.672,87.655,88.648c-17.702,2.888-36.908,0.052-54.538-2.858c-11.367-40.026-53.76-58.374-90.523-67.982
			c26.663,17.071,56.187,32.549,71.306,61.802c2.294,4.302,7.704,13.417-0.076,14.85c-24.954,3.806-42.841-19.938-65.377-26.448
			c-28.243-7.26-54.826-18.57-80.417-32.512c-44.87-26.164-103.081-37.198-136.467-79.119
			c-15.976-25.321,8.136-48.733,20.313-69.718c8.108-14.37,24.471-40.392,20.301-58.476c5.456-1.259,10.875-2.695,16.155-4.478
			c20.747,30.724,54.485,35.762,75.089,1.895c9.017,14.192,29.497,26.557,45.482,19.221
			C1809.421,3022.344,1809.122,3034.779,1812.648,3046.25z M1821.98,2993.706c-5.598,3.22-11.332,7.851-18.012,8.421
			c-11.491-1.208-21.806-11.141-26.463-21.483c18.118,2.132,36.284,3.803,54.501,4.645
			C1829.028,2988.425,1825.427,2991.052,1821.98,2993.706z M1883.858,3000.033c-18.056,19.273-37.241,9.11-42.625-14.447
			c19.017,0.795,38.026-0.275,57.072-0.292C1895.193,2991.495,1889.073,2995.105,1883.858,3000.033z M1955.756,3003.206
			c-13.863,14.576-43.591,21.798-42.906-6.844c2.343-2.788,4.049-6.365,3.938-10.076c15.393,1.493,29.844,7.044,44.707,11.605
			C1959.571,2999.634,1957.904,3001.622,1955.756,3003.206z M2002.866,3026.277c-14.02,1.608-31.781-7.198-26.318-23.519
			c15.591,4.94,31.231,9.726,47.298,12.055C2017.6,3019.832,2010.47,3024.269,2002.866,3026.277z M2069.63,3029.208
			c-9.154,6.402-26.022-1.386-25.407-12.912c13.765,0.157,27.544-1.147,41.313-2.638
			C2080.9,3019.432,2075.49,3024.602,2069.63,3029.208z M2152.435,3022.56c-4.616,7.487-9.754,14.689-17.25,19.317
			c-15.344,8.281-31.979-6.029-31.817-22.049c2.15-2.69,2.749-5.656,2.326-8.313c16.739-1.8,33.541-2.065,50.35-2.043
			C2153.395,3013.073,2152.459,3018.046,2152.435,3022.56z M2203.065,3019.68c-12.543,20.138-50.841,22.059-43.738-8.482
			c-0.593,0.937-1.174,1.904-1.757,2.867c0.176-1.627,0.693-3.162,1.389-4.625c17.495,0.012,35.043-1.311,52.227-4.775
			C2208.624,3009.694,2206.752,3015.175,2203.065,3019.68z M2271.35,2989.423c-2.563,6.077-5.386,12.068-8.856,17.667
			c-10.973,14.867-28.952,9.393-36.436-5.684c15.731-3.864,31.213-8.879,46.468-14.481
			C2272.076,2987.71,2271.677,2988.536,2271.35,2989.423z M2303.892,2998.071c-8.144-1.768-13.322-12.73-20.67-15.177
			c14.073-5.657,29.827-11.251,43.498-15.908C2330.557,2985.013,2326.778,3004.886,2303.892,2998.071z M2386.654,2959.678
			c-10.696,9.418-27.052,6.676-38.869-0.456c16.022-6.342,30.6-13.602,44.639-24.493
			C2392.287,2943.183,2391.263,2952.625,2386.654,2959.678z M2439.074,2931.12c0.122-0.346,0.236-0.669,0.351-1.011
			c-6.475,8.819-22.448,4.156-29.557-2.049c-0.444-2.7-1.586-4.656-3.077-5.995c6.827-7.753,14.419-15.704,24.085-20.516
			C2434.503,2910.85,2442.323,2920.576,2439.074,2931.12z M2447.034,2894.701c-1.069-0.505-1.906-1.286-2.656-2.169
			c5.246-3.818,10.532-7.136,15.378-11.462C2474.689,2902.644,2470.723,2906.435,2447.034,2894.701z"/>
	</g>
</g>
</svg>
