<?xml version="1.0" encoding="utf-8"?>
<!-- Generator: Adobe Illustrator 27.5.0, SVG Export Plug-In . SVG Version: 6.00 Build 0)  -->
<svg version="1.1" xmlns="http://www.w3.org/2000/svg" xmlns:xlink="http://www.w3.org/1999/xlink" x="0px" y="0px"
	 viewBox="0 0 500 500" style="enable-background:new 0 0 500 500;" xml:space="preserve">
<g id="BACKGROUND">
	<rect style="fill:#FFFFFF;" width="500" height="500"/>
</g>
<g id="OBJECTS">
	<g>
		<g>
			<path style="fill:none;stroke:#020202;stroke-width:3;stroke-linecap:round;stroke-linejoin:round;stroke-miterlimit:10;" d="
				M198.418,101.714c0,0,5.935,7.122,3.757,22.608c-1.837,13.062-12.743,47.898-9.667,66.794
				c3.076,18.896,25.487,29.882,33.836,27.684c8.349-2.197,21.972-41.307,17.138-68.112s-17.138-39.549-17.138-39.549
				s-24.663-24.004-44.767-29.442c-20.104-5.438-40.043,6.921-53.226,3.131s-19.775-7.58-19.775-7.58"/>
			<path style="fill:none;stroke:#020202;stroke-width:3;stroke-linecap:round;stroke-linejoin:round;stroke-miterlimit:10;" d="
				M92.921,93.891c0,0-6.262,27.849,0,34.276c6.262,6.427,28.421,20.078,40.132-0.813"/>
			<path style="fill:none;stroke:#020202;stroke-width:3;stroke-linecap:round;stroke-linejoin:round;stroke-miterlimit:10;" d="
				M92.921,128.167c0,0-1.648,8.569,2.142,10.876c3.79,2.307,6.097,2.636,6.097,2.636s8.898,16.314,28.508,20.434
				c0,0,5.603,18.291,19.445,22.411c13.842,4.12,27.52,1.318,33.122-6.427"/>
			<path style="fill:none;stroke:#020202;stroke-width:3;stroke-linecap:round;stroke-linejoin:round;stroke-miterlimit:10;" d="
				M110.553,88.947c0,0,1.813-9.063-3.296-12.689c-5.108-3.625-11.352-7.91-17.12-0.989c-2.787,3.345-2.655,17.467,4.925,19.774
				C102.644,97.351,109.4,91.913,110.553,88.947z"/>
			<path style="fill:#020202;" d="M165.557,109.944c-3.042,2.81-7.41,3.028-9.757,0.487c-2.346-2.541-1.783-6.878,1.259-9.687
				c3.042-2.81,7.41-3.028,9.757-0.487C169.162,102.797,168.598,107.134,165.557,109.944z"/>
			<path style="fill:#020202;" d="M163.129,107.315c-1.566,1.446-3.815,1.559-5.023,0.251c-1.208-1.308-0.918-3.541,0.648-4.988
				c1.566-1.447,3.815-1.559,5.023-0.251S164.695,105.868,163.129,107.315z"/>
			<path style="fill:#FFFFFF;" d="M162.079,103.896c-0.629,0.58-1.531,0.626-2.016,0.101s-0.368-1.421,0.26-2.001
				c0.628-0.581,1.531-0.626,2.016-0.101C162.824,102.419,162.708,103.315,162.079,103.896z"/>
			<path style="fill:none;stroke:#020202;stroke-width:3;stroke-linecap:round;stroke-linejoin:round;stroke-miterlimit:10;" d="
				M153.158,186.419c0,0,1.117,18.992-4.469,35.38c-5.587,16.387-10.261,72.423,5.667,89.78"/>
			<path style="fill:none;stroke:#020202;stroke-width:3;stroke-linecap:round;stroke-linejoin:round;stroke-miterlimit:10;" d="
				M158.919,196.174c0,0,11.969,3.906,23.317-5.371"/>
			<path style="fill:none;stroke:#020202;stroke-width:3;stroke-linecap:round;stroke-linejoin:round;stroke-miterlimit:10;" d="
				M231.316,214.176c0,0,3.033,10.602,33.201,16.561c30.168,5.959,59.168-5.099,87.895,26.071
				c17.193,18.655,8.939,49.534,7.076,70.763c-1.862,21.229,21.974,28.305,21.601,38.734c-0.372,10.428-25.753,67.143-38.173,68.287
				c-15.029,1.384-36.711,2.235-45.997-1.621c-3.192-1.325-3.166-5.959,1.117-13.78s19.696-13.845,31.427-10.12l2.464-24.889
				c0,0-43.948-8.939-61.825-45.81c-17.877-36.871-1.117-63.314-1.117-63.314"/>
			<path style="fill:none;stroke:#020202;stroke-width:3;stroke-linecap:round;stroke-linejoin:round;stroke-miterlimit:10;" d="
				M212.336,321.434c-5.88,19.838-16.177,48.397-20.091,53.45c-7.913,10.219-27.152,36.718-31.021,41.466
				c-3.869,4.749-22.383,15.186-28.567,17.179c-9.427,3.037-31.341,4.546-37.66-4.069c-3.438-4.687-4.402-10.819,2.762-17.06
				c7.359-6.41,33.711-13.143,33.711-13.143l23.5-55.71c0,0-2.123-37.657,1.356-67.756"/>
			<path style="fill:none;stroke:#020202;stroke-width:3;stroke-linecap:round;stroke-linejoin:round;stroke-miterlimit:10;" d="
				M206.452,340.533c0,0,4.807,0.539,22.404-0.858c17.598-1.397,17.832-4.734,24.815-4.175c6.983,0.559,18.46,6.738,18.46,6.738"/>
			<path style="fill:none;stroke:#020202;stroke-width:3;stroke-linecap:round;stroke-linejoin:round;stroke-miterlimit:10;" d="
				M154.718,337.85l-47.336-13.241l-2.808,10.828c0,0,7.028,6.849,5.91,15.788c-1.117,8.938-13.363,13.252-16.487,13.55
				c-9.531,0.909-18.96-16.647-19.798-25.537c-0.838-8.891,14.804-41.572,18.994-43.248c4.19-1.676,52.119-6.821,52.119-6.821"/>
			<path style="fill:none;stroke:#020202;stroke-width:3;stroke-linecap:round;stroke-linejoin:round;stroke-miterlimit:10;" d="
				M327.888,383.151c0,0-35.345,36.412-39.255,40.881c-3.911,4.469-6.754,8.296-10.056,8.939
				c-11.312,2.201-39.207,3.005-41.106-3.167c-2.808-9.125,3.955-18.999,27.978-21.743l14.525-27.045
				c0,0-34.637-19.553-29.126-45.578"/>
			<path style="fill:none;stroke:#020202;stroke-width:3;stroke-linecap:round;stroke-linejoin:round;stroke-miterlimit:10;" d="
				M357.3,264.154c0,0,29.098,37.812,57.31,39.767c28.212,1.955,42.737-16.76,42.737-16.76s-3.352,21.508-20.67,27.374
				c0,0,8.101,5.028,13.408,3.352c0,0-14.246,11.544-32.681,8.007c0,0,0.838,6.702,6.425,9.543c0,0-9.497,5.076-25.698-6.656
				c0,0,3.911,11.55,7.542,13.457c0,0-23.184,0.043-32.402-16.344c0,0-0.279,6.981,1.117,9.543c0,0-9.894-5.458-12.768-26.448"/>
			<path style="fill:none;stroke:#020202;stroke-width:3;stroke-linecap:round;stroke-linejoin:round;stroke-miterlimit:10;" d="
				M192.905,435.757c0,0-12.932-32.775-9.207-37.616c3.724-4.842,11.918,26.071,11.918,26.071s-1.893-38.734,6.689-39.106
				s2.25,40.596,2.25,40.596s7.821-27.56,14.153-22.346c6.331,5.214-10.771,32.402-10.771,32.402"/>
			<path style="fill:none;stroke:#020202;stroke-width:3;stroke-linecap:round;stroke-linejoin:round;stroke-miterlimit:10;" d="
				M413.174,435.757c0,0-9.063-22.969-6.452-26.362c2.61-3.393,8.352,18.271,8.352,18.271s-1.327-27.145,4.687-27.406
				c6.014-0.261,1.577,28.45,1.577,28.45s5.481-19.314,9.918-15.66c4.437,3.654-7.548,22.708-7.548,22.708"/>
			<path style="fill:none;stroke:#020202;stroke-width:3;stroke-linecap:round;stroke-linejoin:round;stroke-miterlimit:10;" d="
				M63.305,435.757c0,0-9.063-22.969-6.452-26.362c2.61-3.393,8.352,18.271,8.352,18.271s-1.326-27.145,4.687-27.406
				c6.014-0.261,1.577,28.45,1.577,28.45s5.481-19.314,9.918-15.66c4.437,3.654-7.548,22.708-7.548,22.708"/>
			<path style="fill:none;stroke:#020202;stroke-width:3;stroke-linecap:round;stroke-linejoin:round;stroke-miterlimit:10;" d="
				M86.863,232.105l-29.664,28.617c0,0-9.772-2.379-12.995,6.208c-3.223,8.587,7.649,9.715,7.649,9.715s-0.607,8.891,5.222,8.692
				c5.829-0.199,12.739-7.431,9.933-17.99l29.487-28.634c0,0,11.232,1.223,14.17-6.284c2.938-7.507-6.208-9.336-6.208-9.336
				s-0.818-9.073-5.802-10.385c-4.984-1.312-10.046,9.873-8.681,16.394L86.863,232.105"/>
			<path style="fill:none;stroke:#020202;stroke-width:3;stroke-linecap:round;stroke-linejoin:round;stroke-miterlimit:10;" d="
				M346.798,164.917l-35.18-21.478c0,0-0.165-10.056-9.288-11.006s-7.469,9.854-7.469,9.854s-8.756,1.658-7.091,7.248
				c1.664,5.59,10.406,10.45,19.915,5.069l35.151,21.302c0,0,1.653,11.177,9.658,12.124c8.005,0.948,7.466-8.364,7.466-8.364
				s8.573-3.082,8.583-8.236c0.011-5.154-12.089-7.227-18.054-4.26L346.798,164.917"/>
			<path style="fill:none;stroke:#020202;stroke-width:3;stroke-linecap:round;stroke-linejoin:round;stroke-miterlimit:10;" d="
				M319.81,416.35c0,0-17.859,1.593-17.951,18.048"/>
			<path style="fill:none;stroke:#020202;stroke-width:3;stroke-linecap:round;stroke-linejoin:round;stroke-miterlimit:10;" d="
				M258.243,416.984c0,0-12.598,2.082-13.658,16.551"/>
			<path style="fill:none;stroke:#020202;stroke-width:3;stroke-linecap:round;stroke-linejoin:round;stroke-miterlimit:10;" d="
				M268.689,419.516c0,0-9.337,5.762-9.021,15.068"/>
			<path style="fill:none;stroke:#020202;stroke-width:3;stroke-linecap:round;stroke-linejoin:round;stroke-miterlimit:10;" d="
				M328.831,420.624c0,0-10.449,3.826-10.289,15.128"/>
			<path style="fill:none;stroke:#020202;stroke-width:3;stroke-linecap:round;stroke-linejoin:round;stroke-miterlimit:10;" d="
				M90.699,346.038c0,0,3.999,12.5,10.308,16.322"/>
			<path style="fill:none;stroke:#020202;stroke-width:3;stroke-linecap:round;stroke-linejoin:round;stroke-miterlimit:10;" d="
				M113.766,412.638c0,0-15.542,6.625-12.332,21.236"/>
			<path style="fill:none;stroke:#020202;stroke-width:3;stroke-linecap:round;stroke-linejoin:round;stroke-miterlimit:10;" d="
				M342.284,383.272c0,0-6.315,1.939-10.355,0.909"/>
			<path style="fill:none;stroke:#020202;stroke-width:3;stroke-linecap:round;stroke-linejoin:round;stroke-miterlimit:10;" d="
				M291.717,381.848c0,0-6.157,0.471-11.744-0.833"/>
			
				<line style="fill:none;stroke:#020202;stroke-width:3;stroke-linecap:round;stroke-linejoin:round;stroke-miterlimit:10;" x1="40.942" y1="435.752" x2="444.208" y2="435.752"/>
		</g>
		<g>
			
				<line style="fill:none;stroke:#020202;stroke-width:3;stroke-linecap:round;stroke-linejoin:round;stroke-miterlimit:10;" x1="275.525" y1="67.206" x2="275.525" y2="72.24"/>
			
				<line style="fill:none;stroke:#020202;stroke-width:3;stroke-linecap:round;stroke-linejoin:round;stroke-miterlimit:10;" x1="275.525" y1="85.954" x2="275.525" y2="90.988"/>
			
				<line style="fill:none;stroke:#020202;stroke-width:3;stroke-linecap:round;stroke-linejoin:round;stroke-miterlimit:10;" x1="287.416" y1="79.097" x2="282.382" y2="79.097"/>
			
				<line style="fill:none;stroke:#020202;stroke-width:3;stroke-linecap:round;stroke-linejoin:round;stroke-miterlimit:10;" x1="268.668" y1="79.097" x2="263.634" y2="79.097"/>
			
				<line style="fill:none;stroke:#020202;stroke-width:3;stroke-linecap:round;stroke-linejoin:round;stroke-miterlimit:10;" x1="282.382" y1="72.24" x2="279.479" y2="75.143"/>
			
				<line style="fill:none;stroke:#020202;stroke-width:3;stroke-linecap:round;stroke-linejoin:round;stroke-miterlimit:10;" x1="271.571" y1="83.051" x2="268.668" y2="85.954"/>
			
				<line style="fill:none;stroke:#020202;stroke-width:3;stroke-linecap:round;stroke-linejoin:round;stroke-miterlimit:10;" x1="282.382" y1="85.954" x2="279.479" y2="83.051"/>
			
				<line style="fill:none;stroke:#020202;stroke-width:3;stroke-linecap:round;stroke-linejoin:round;stroke-miterlimit:10;" x1="271.571" y1="75.143" x2="268.668" y2="72.24"/>
		</g>
		<g>
			
				<line style="fill:none;stroke:#020202;stroke-width:3;stroke-linecap:round;stroke-linejoin:round;stroke-miterlimit:10;" x1="70.482" y1="138.516" x2="70.482" y2="143.55"/>
			
				<line style="fill:none;stroke:#020202;stroke-width:3;stroke-linecap:round;stroke-linejoin:round;stroke-miterlimit:10;" x1="70.482" y1="157.263" x2="70.482" y2="162.297"/>
			
				<line style="fill:none;stroke:#020202;stroke-width:3;stroke-linecap:round;stroke-linejoin:round;stroke-miterlimit:10;" x1="82.372" y1="150.406" x2="77.338" y2="150.406"/>
			
				<line style="fill:none;stroke:#020202;stroke-width:3;stroke-linecap:round;stroke-linejoin:round;stroke-miterlimit:10;" x1="63.625" y1="150.406" x2="58.591" y2="150.406"/>
			
				<line style="fill:none;stroke:#020202;stroke-width:3;stroke-linecap:round;stroke-linejoin:round;stroke-miterlimit:10;" x1="77.338" y1="143.55" x2="74.435" y2="146.453"/>
			
				<line style="fill:none;stroke:#020202;stroke-width:3;stroke-linecap:round;stroke-linejoin:round;stroke-miterlimit:10;" x1="66.528" y1="154.36" x2="63.625" y2="157.263"/>
			
				<line style="fill:none;stroke:#020202;stroke-width:3;stroke-linecap:round;stroke-linejoin:round;stroke-miterlimit:10;" x1="77.338" y1="157.263" x2="74.435" y2="154.36"/>
			
				<line style="fill:none;stroke:#020202;stroke-width:3;stroke-linecap:round;stroke-linejoin:round;stroke-miterlimit:10;" x1="66.528" y1="146.453" x2="63.625" y2="143.55"/>
		</g>
		<g>
			
				<line style="fill:none;stroke:#020202;stroke-width:3;stroke-linecap:round;stroke-linejoin:round;stroke-miterlimit:10;" x1="406.249" y1="63.252" x2="406.249" y2="68.286"/>
			
				<line style="fill:none;stroke:#020202;stroke-width:3;stroke-linecap:round;stroke-linejoin:round;stroke-miterlimit:10;" x1="406.249" y1="82" x2="406.249" y2="87.034"/>
			
				<line style="fill:none;stroke:#020202;stroke-width:3;stroke-linecap:round;stroke-linejoin:round;stroke-miterlimit:10;" x1="418.14" y1="75.143" x2="413.106" y2="75.143"/>
			
				<line style="fill:none;stroke:#020202;stroke-width:3;stroke-linecap:round;stroke-linejoin:round;stroke-miterlimit:10;" x1="399.392" y1="75.143" x2="394.358" y2="75.143"/>
			
				<line style="fill:none;stroke:#020202;stroke-width:3;stroke-linecap:round;stroke-linejoin:round;stroke-miterlimit:10;" x1="413.106" y1="68.286" x2="410.203" y2="71.189"/>
			
				<line style="fill:none;stroke:#020202;stroke-width:3;stroke-linecap:round;stroke-linejoin:round;stroke-miterlimit:10;" x1="402.295" y1="79.097" x2="399.392" y2="82"/>
			
				<line style="fill:none;stroke:#020202;stroke-width:3;stroke-linecap:round;stroke-linejoin:round;stroke-miterlimit:10;" x1="413.106" y1="82" x2="410.203" y2="79.097"/>
			
				<line style="fill:none;stroke:#020202;stroke-width:3;stroke-linecap:round;stroke-linejoin:round;stroke-miterlimit:10;" x1="402.295" y1="71.189" x2="399.392" y2="68.286"/>
		</g>
		<g>
			
				<line style="fill:none;stroke:#020202;stroke-width:3;stroke-linecap:round;stroke-linejoin:round;stroke-miterlimit:10;" x1="38.202" y1="343.964" x2="38.202" y2="348.998"/>
			
				<line style="fill:none;stroke:#020202;stroke-width:3;stroke-linecap:round;stroke-linejoin:round;stroke-miterlimit:10;" x1="38.202" y1="362.712" x2="38.202" y2="367.746"/>
			
				<line style="fill:none;stroke:#020202;stroke-width:3;stroke-linecap:round;stroke-linejoin:round;stroke-miterlimit:10;" x1="50.093" y1="355.855" x2="45.058" y2="355.855"/>
			
				<line style="fill:none;stroke:#020202;stroke-width:3;stroke-linecap:round;stroke-linejoin:round;stroke-miterlimit:10;" x1="31.345" y1="355.855" x2="26.311" y2="355.855"/>
			
				<line style="fill:none;stroke:#020202;stroke-width:3;stroke-linecap:round;stroke-linejoin:round;stroke-miterlimit:10;" x1="45.058" y1="348.998" x2="42.156" y2="351.901"/>
			
				<line style="fill:none;stroke:#020202;stroke-width:3;stroke-linecap:round;stroke-linejoin:round;stroke-miterlimit:10;" x1="34.248" y1="359.809" x2="31.345" y2="362.712"/>
			
				<line style="fill:none;stroke:#020202;stroke-width:3;stroke-linecap:round;stroke-linejoin:round;stroke-miterlimit:10;" x1="45.058" y1="362.712" x2="42.156" y2="359.809"/>
			
				<line style="fill:none;stroke:#020202;stroke-width:3;stroke-linecap:round;stroke-linejoin:round;stroke-miterlimit:10;" x1="34.248" y1="351.901" x2="31.345" y2="348.998"/>
		</g>
		<g>
			
				<line style="fill:none;stroke:#020202;stroke-width:3;stroke-linecap:round;stroke-linejoin:round;stroke-miterlimit:10;" x1="427" y1="202.286" x2="427" y2="207.32"/>
			
				<line style="fill:none;stroke:#020202;stroke-width:3;stroke-linecap:round;stroke-linejoin:round;stroke-miterlimit:10;" x1="427" y1="221.033" x2="427" y2="226.067"/>
			
				<line style="fill:none;stroke:#020202;stroke-width:3;stroke-linecap:round;stroke-linejoin:round;stroke-miterlimit:10;" x1="438.891" y1="214.176" x2="433.857" y2="214.176"/>
			
				<line style="fill:none;stroke:#020202;stroke-width:3;stroke-linecap:round;stroke-linejoin:round;stroke-miterlimit:10;" x1="420.143" y1="214.176" x2="415.109" y2="214.176"/>
			
				<line style="fill:none;stroke:#020202;stroke-width:3;stroke-linecap:round;stroke-linejoin:round;stroke-miterlimit:10;" x1="433.857" y1="207.32" x2="430.954" y2="210.222"/>
			
				<line style="fill:none;stroke:#020202;stroke-width:3;stroke-linecap:round;stroke-linejoin:round;stroke-miterlimit:10;" x1="423.046" y1="218.13" x2="420.143" y2="221.033"/>
			
				<line style="fill:none;stroke:#020202;stroke-width:3;stroke-linecap:round;stroke-linejoin:round;stroke-miterlimit:10;" x1="433.857" y1="221.033" x2="430.954" y2="218.13"/>
			
				<line style="fill:none;stroke:#020202;stroke-width:3;stroke-linecap:round;stroke-linejoin:round;stroke-miterlimit:10;" x1="423.046" y1="210.222" x2="420.143" y2="207.32"/>
		</g>
	</g>
</g>

    <text x="10" y="832" font-size="12" fill="gray" opacity="0.6" font-family="Arial, sans-serif">
      twoja-kolorowanka.pl
    </text>
  
</svg>
