<?xml version="1.0" encoding="utf-8"?>
<!-- Generator: Adobe Illustrator 27.5.0, SVG Export Plug-In . SVG Version: 6.00 Build 0)  -->
<svg xmlns="http://www.w3.org/2000/svg" xmlns:xlink="http://www.w3.org/1999/xlink" viewBox="0 0 500 500" width="595" height="842" preserveAspectRatio="xMidYMid meet" data-scaled="true">
<g id="BACKGROUND">
	<rect style="fill:#FFFEFA;" width="500" height="500"/>
</g>
<g id="OBJECTS">
	<g>
		<path style="fill:#FFFEFA;stroke:#0A1640;stroke-width:2;stroke-linecap:round;stroke-linejoin:round;stroke-miterlimit:10;" d="
			M82.742,149.223c-16.313-17.569-9.078-47.999,26.993-56.066c24.296-5.6,47.133,2.801,47.034,2.783
			c1.51,0.497,2.35-1.701,0.903-2.346c-29.839-13.184-64.321-6.111-78.448,10.802c-12.261,14.707-11.757,34.667,1.874,46.525
			c0.493,0.43,1.241,0.378,1.67-0.115C83.168,150.346,83.145,149.661,82.742,149.223z"/>
		<path style="fill:#FFFEFA;stroke:#0A1640;stroke-width:2;stroke-linecap:round;stroke-linejoin:round;stroke-miterlimit:10;" d="
			M97.75,393.337c-17.246,16.431,0.787,37.861,21.822,46.188c18.291,6.89,39.302,7.016,58.086,2.883
			c1.541-0.338,1.169-2.644-0.407-2.481c-22.564,2.417-49.408,1.423-67.99-11.635c-6.99-4.891-14.729-12.737-14.764-21.291
			c-0.127-6.975,5.374-12.525,4.977-12.049c0.419-0.501,0.352-1.248-0.149-1.666C98.858,392.897,98.18,392.928,97.75,393.337z"/>
		<path style="fill:#FFFEFA;stroke:#0A1640;stroke-width:2;stroke-linecap:round;stroke-linejoin:round;stroke-miterlimit:10;" d="
			M436.798,301.698l1.404,0.997c3.633,2.67,8.016,6.64,7.926,6.561c0.084,0.082,3.903,3.818,3.659,3.58
			c0.075,0.084,3.61,4.062,3.387,3.811c5.439,6.633,12.142,16.738,8.134,24.334c-5.43,10.573-24.348,5.419-23.119,5.545
			c-1.528-0.378-2.216,1.846-0.747,2.4c11.988,4.532,26.046,2.58,29.333-9.62c3.281-13.763-13.511-29.986-13.435-29.902
			c-0.085-0.081-4.178-4.009-3.927-3.767c-0.095-0.079-4.444-3.7-4.169-3.47c-9.126-6.714-20.691-13.593-31.67-16.525
			c-0.834-0.25-2.463-0.585-2.734-0.615c-0.267,0.035-2.2-0.586-2.345,0.936c-0.054,0.568,0.315,1.079,0.848,1.222
			C417.794,289.449,429.606,296.617,436.798,301.698z"/>
		<path style="fill:#FFFEFA;stroke:#0A1640;stroke-width:2;stroke-linecap:round;stroke-linejoin:round;stroke-miterlimit:10;" d="
			M403.525,141.907c16.786,12.747,10.865,27.516,10.846,27.336c-0.691,2.052,2.198,3.32,3.249,1.446
			c2.068-3.677,3.084-8.12,2.693-12.462c-0.327-5.251-2.699-9.508-3.292-10.796c-0.449-0.512-4.726-10.372-19.681-17.559
			c-14.936-6.868-31.922-7.299-47.503-2.763c-1.941,0.566-1.393,3.466,0.616,3.288C357.926,129.736,388.919,130.448,403.525,141.907
			z"/>
		<path style="fill:#FFFEFA;stroke:#0A1640;stroke-width:2;stroke-linecap:round;stroke-linejoin:round;stroke-miterlimit:10;" d="
			M252.157,298.367c0.031,3.424,3.485,6.725,6.311,8.662c10.624,7.566,31.071,7.191,30.203,7.174c1.49,0.029,1.704,2.176,0.251,2.5
			c-13.322,2.973-31.237-0.144-38.386-11.072c-2.937-4.712-2.536-8.476-0.41-11.359c2.132-2.356,1.634-1.541,2.757-2.535
			c1.13-0.871,2.547,0.657,1.601,1.717C253.868,294.293,252.022,296.092,252.157,298.367z"/>
	</g>
	<g>
		<g>
			<path style="fill:#FFFEFA;stroke:#0A1640;stroke-width:2;stroke-linecap:round;stroke-linejoin:round;stroke-miterlimit:10;" d="
				M281.065,195.612c-10.309,26.226-55.251,23.519-104.406,4.196c-49.156-19.323-83.911-47.943-73.602-74.169
				s54.435-21.443,103.59-2.12C255.803,142.842,291.374,169.387,281.065,195.612z"/>
			<g>
				
					<path style="fill:#FFFEFA;stroke:#0A1640;stroke-width:2;stroke-linecap:round;stroke-linejoin:round;stroke-miterlimit:10;" d="
					M117.833,153.851c5.074,1.045,10.303,1.884,14.796,4.456c10.963,6.273,15.707,21.727,27.591,25.946
					c12.217,4.336,26.549-5.227,38.946-1.42c7.519,2.309,12.743,9.051,18.564,14.464c5.821,5.412,13.961,9.824,21.445,6.449
					c4.116-1.856,7.555-5.91,11.933-6.293c4.644-0.407,8.314,3.455,12.594,5.104c5.531,2.132,12.218-0.235,16.464-4.919
					c0.322-0.656,0.626-1.328,0.9-2.025c10.309-26.226-25.262-52.77-74.418-72.093c-49.156-19.322-93.281-24.106-103.59,2.12
					c-0.604,1.536-1.053,3.08-1.353,4.629c-2.098,10.824,5.195,21.317,15.991,23.553
					C117.741,153.832,117.787,153.841,117.833,153.851z"/>
			</g>
			<path style="fill:#FFFEFA;stroke:#0A1640;stroke-width:2;stroke-linecap:round;stroke-linejoin:round;stroke-miterlimit:10;" d="
				M255.278,167.558c-4.091,10.407-31.684,5.497-63.228-6.903c-31.544-12.4-55.095-27.593-51.004-38"/>
			<path style="fill:#FFFEFA;stroke:#0A1640;stroke-width:2;stroke-linecap:round;stroke-linejoin:round;stroke-miterlimit:10;" d="
				M156.377,142.959c10.766,1.855,24.057,5.897,38.136,11.431c14.184,5.576,26.753,11.717,35.918,17.733"/>
			<g>
				<g>
					<path style="fill:#0A1640;" d="M117.725,144.041c-0.234-0.092-0.45-0.244-0.622-0.453l-5.679-6.893
						c-0.539-0.655-0.446-1.623,0.209-2.162c0.654-0.539,1.622-0.448,2.162,0.209l5.679,6.893c0.539,0.655,0.446,1.623-0.209,2.162
						C118.819,144.165,118.227,144.238,117.725,144.041z"/>
				</g>
				<g>
					<path style="fill:#0A1640;" d="M240.597,165.778c-0.234-0.092-0.451-0.244-0.622-0.452l-5.679-6.893
						c-0.539-0.655-0.446-1.623,0.209-2.162c0.654-0.54,1.622-0.448,2.162,0.208l5.679,6.893c0.539,0.655,0.446,1.623-0.209,2.162
						C241.691,165.901,241.1,165.975,240.597,165.778z"/>
				</g>
				<g>
					<path style="fill:#0A1640;" d="M274.769,183.171c-0.235-0.092-0.451-0.244-0.622-0.453l-5.679-6.893
						c-0.539-0.655-0.446-1.623,0.209-2.162c0.654-0.539,1.622-0.448,2.162,0.208l5.679,6.893c0.539,0.655,0.446,1.623-0.209,2.162
						C275.863,183.295,275.272,183.369,274.769,183.171z"/>
				</g>
				<g>
					<path style="fill:#0A1640;" d="M204.255,175.518c-0.246,0.054-0.51,0.048-0.769-0.03l-8.553-2.572
						c-0.812-0.245-1.273-1.101-1.028-1.914c0.244-0.812,1.099-1.274,1.913-1.029l8.552,2.572c0.812,0.245,1.273,1.101,1.028,1.914
						C205.233,175.013,204.782,175.403,204.255,175.518z"/>
				</g>
				<g>
					<path style="fill:#0A1640;" d="M203.224,137.831c-0.246,0.054-0.51,0.048-0.769-0.03l-8.553-2.572
						c-0.812-0.245-1.273-1.101-1.028-1.914c0.244-0.812,1.099-1.274,1.913-1.029l8.553,2.572c0.812,0.245,1.273,1.101,1.028,1.914
						C204.203,137.326,203.752,137.716,203.224,137.831z"/>
				</g>
				<g>
					<path style="fill:#0A1640;" d="M151.964,169.068c-0.147-0.204-0.247-0.449-0.279-0.717l-1.052-8.869
						c-0.099-0.842,0.502-1.607,1.345-1.706c0.842-0.1,1.606,0.5,1.707,1.344l1.052,8.869c0.099,0.842-0.502,1.607-1.345,1.706
						C152.818,169.763,152.28,169.506,151.964,169.068z"/>
				</g>
				<g>
					<path style="fill:#0A1640;" d="M219.204,150.5c-0.147-0.204-0.247-0.449-0.279-0.717l-1.052-8.869
						c-0.099-0.842,0.502-1.607,1.345-1.706c0.842-0.1,1.606,0.5,1.706,1.344l1.052,8.869c0.1,0.842-0.502,1.607-1.345,1.706
						C220.058,151.195,219.52,150.938,219.204,150.5z"/>
				</g>
				<g>
					<path style="fill:#0A1640;" d="M133.304,112.404c0.228-0.108,0.486-0.161,0.756-0.143l8.912,0.587
						c0.846,0.056,1.488,0.787,1.431,1.634c-0.056,0.846-0.785,1.488-1.634,1.432l-8.911-0.587
						c-0.846-0.056-1.488-0.788-1.431-1.634C132.465,113.116,132.816,112.635,133.304,112.404z"/>
				</g>
				<g>
					<path style="fill:#0A1640;" d="M224.718,194.937c-0.224-0.116-0.423-0.29-0.572-0.515l-4.929-7.448
						c-0.468-0.707-0.274-1.661,0.434-2.128c0.707-0.468,1.66-0.276,2.129,0.433l4.929,7.448c0.467,0.708,0.274,1.661-0.434,2.129
						C225.793,195.174,225.197,195.186,224.718,194.937z"/>
				</g>
				<g>
					<path style="fill:#0A1640;" d="M172.521,120.83c-0.183,0.174-0.411,0.306-0.673,0.374l-8.644,2.245
						c-0.821,0.213-1.66-0.28-1.873-1.101c-0.213-0.821,0.278-1.659,1.101-1.873l8.644-2.245c0.821-0.213,1.66,0.28,1.873,1.101
						C173.094,119.89,172.912,120.457,172.521,120.83z"/>
				</g>
				<g>
					<path style="fill:#0A1640;" d="M257.681,158.849c-0.242,0.072-0.505,0.085-0.769,0.027l-8.719-1.934
						c-0.828-0.184-1.351-1.004-1.166-1.833c0.184-0.828,1.002-1.351,1.832-1.167l8.719,1.934c0.828,0.184,1.351,1.004,1.166,1.833
						C258.619,158.273,258.199,158.695,257.681,158.849z"/>
				</g>
				<g>
					<path style="fill:#0A1640;" d="M125.861,129.967c-0.216-0.13-0.404-0.315-0.539-0.549l-4.457-7.739
						c-0.423-0.735-0.171-1.674,0.565-2.098c0.735-0.423,1.674-0.172,2.098,0.564l4.457,7.739c0.423,0.735,0.17,1.675-0.565,2.097
						C126.92,130.27,126.324,130.245,125.861,129.967z"/>
				</g>
				<g>
					<path style="fill:#0A1640;" d="M256.137,188.782c0.239-0.08,0.502-0.103,0.768-0.053l8.781,1.631
						c0.833,0.155,1.385,0.957,1.229,1.791c-0.155,0.834-0.955,1.385-1.791,1.23l-8.781-1.631c-0.834-0.155-1.385-0.957-1.229-1.791
						C255.219,189.39,255.625,188.953,256.137,188.782z"/>
				</g>
				<g>
					<path style="fill:#0A1640;" d="M164.441,132.891c0.239-0.08,0.502-0.103,0.768-0.053l8.781,1.631
						c0.834,0.155,1.385,0.957,1.229,1.791c-0.155,0.834-0.955,1.385-1.791,1.23l-8.781-1.631c-0.834-0.155-1.385-0.957-1.229-1.791
						C163.523,133.5,163.929,133.063,164.441,132.891z"/>
				</g>
				<g>
					<path style="fill:#0A1640;" d="M178.799,166.445c-0.221,0.122-0.476,0.191-0.746,0.189l-8.931-0.038
						c-0.848-0.004-1.533-0.694-1.529-1.543c0.003-0.848,0.692-1.533,1.543-1.53l8.931,0.038c0.848,0.004,1.533,0.694,1.529,1.543
						C179.593,165.683,179.272,166.185,178.799,166.445z"/>
				</g>
			</g>
		</g>
		<g>
			<g>
				<g>
					<g>
						
							<path style="fill:#FFFEFA;stroke:#0A1640;stroke-width:2;stroke-linecap:round;stroke-linejoin:round;stroke-miterlimit:10;" d="
							M363.637,121.437c-0.321-0.056-0.587-0.283-0.692-0.593c-0.863-2.541-2.129-5.174-3.765-7.827
							c-0.208-0.336-0.418-0.656-0.621-0.965l-0.13-0.197c-0.493-0.757-0.98-1.449-1.448-2.059
							c-0.198-0.264-0.368-0.492-0.514-0.692l-0.078-0.087c-0.129-0.125-0.329-0.329-0.552-0.562c-0.53-0.56-1.138-1.148-1.81-1.755
							c-0.563-0.526-1.071-0.974-1.564-1.382c-2.223-1.844-4.451-3.359-6.622-4.502c-0.301-0.159-0.486-0.474-0.478-0.814
							c0.035-1.423,0.437-2.905,1.161-4.288c1.5-2.887,4.256-5.315,7.019-6.184c1.617-0.51,3.124-0.435,4.357,0.21
							c2.189,1.127,3.343,3.962,3.096,7.42c2.929-0.647,5.515-0.075,6.944,1.597c1.515,1.775,1.584,4.673,0.26,7.649
							c3.24,0.141,6.632,1.438,7.572,4.262c0.444,1.316,0.28,2.816-0.475,4.334c-1.29,2.593-4.118,4.934-7.205,5.965
							c-1.477,0.499-3.005,0.664-4.417,0.476C363.662,121.441,363.649,121.439,363.637,121.437z"/>
					</g>
				</g>
				<g>
					
						<path style="fill:#FFFEFA;stroke:#0A1640;stroke-width:2;stroke-linecap:round;stroke-linejoin:round;stroke-miterlimit:10;" d="
						M321.599,155.005c-4.523-0.795-8.341-2.55-11.186-5.202c-0.293-0.24-0.552-0.489-0.769-0.743
						c-0.223-0.261-0.435-0.565-0.629-0.904c-7.719-11.389-1.276-31.173,9.14-42.939c3.568-4.053,7.35-6.843,10.934-8.067
						c5.486-1.892,11.403-1.19,17.586,2.085c2.278,1.2,4.61,2.784,6.927,4.706c0.519,0.429,1.053,0.901,1.633,1.442
						c0.694,0.627,1.335,1.248,1.893,1.836c0.211,0.22,0.404,0.417,0.572,0.586l0.167,0.192c0.184,0.248,0.348,0.468,0.536,0.717
						c0.491,0.641,1.004,1.37,1.522,2.163l0.127,0.192c0.213,0.324,0.433,0.658,0.651,1.01c1.706,2.767,3.03,5.523,3.936,8.192
						c2.268,6.617,2.034,12.571-0.693,17.695c-0.16,0.311-0.337,0.618-0.531,0.94c-4.794,7.711-17.515,14.521-30.256,16.202
						C328.97,155.658,325.076,155.616,321.599,155.005z"/>
				</g>
				<g>
					<g>
						<path style="fill:#0A1640;" d="M353.881,112.583c0.031-0.456-0.135-1.014-0.456-1.351c-0.332-0.349-0.781-0.622-1.278-0.633
							c-0.499-0.011-0.965,0.128-1.351,0.456c-0.834,0.707-1.668,1.415-2.502,2.122c-0.361,0.306-0.602,0.808-0.633,1.278
							c-0.031,0.456,0.135,1.014,0.456,1.351c0.332,0.349,0.781,0.622,1.278,0.633c0.499,0.011,0.965-0.128,1.351-0.456
							c0.834-0.707,1.668-1.415,2.502-2.122C353.609,113.555,353.849,113.053,353.881,112.583z"/>
					</g>
					<g>
						<path style="fill:#0A1640;" d="M357.748,128.184c0.031-0.456-0.135-1.014-0.456-1.351c-0.332-0.349-0.781-0.622-1.278-0.633
							c-0.499-0.011-0.965,0.128-1.351,0.456c-0.834,0.707-1.668,1.415-2.502,2.122c-0.361,0.306-0.602,0.808-0.633,1.278
							c-0.031,0.456,0.135,1.014,0.456,1.351c0.332,0.349,0.781,0.622,1.278,0.633c0.499,0.011,0.965-0.128,1.352-0.456
							c0.834-0.707,1.668-1.415,2.502-2.122C357.476,129.156,357.717,128.654,357.748,128.184z"/>
					</g>
					<g>
						<path style="fill:#0A1640;" d="M342.12,123.519c0.031-0.456-0.135-1.014-0.456-1.351c-0.332-0.349-0.781-0.622-1.278-0.633
							c-0.499-0.011-0.965,0.128-1.351,0.456c-0.834,0.707-1.668,1.415-2.502,2.122c-0.361,0.306-0.602,0.808-0.633,1.278
							c-0.031,0.456,0.135,1.014,0.456,1.351c0.332,0.349,0.781,0.622,1.278,0.633c0.499,0.011,0.965-0.128,1.352-0.456
							c0.834-0.708,1.668-1.415,2.502-2.122C341.847,124.491,342.088,123.989,342.12,123.519z"/>
					</g>
					<g>
						<path style="fill:#0A1640;" d="M339.734,107.093c0.031-0.456-0.135-1.014-0.456-1.351c-0.332-0.349-0.781-0.622-1.278-0.633
							c-0.499-0.011-0.965,0.128-1.351,0.456c-0.834,0.707-1.668,1.415-2.502,2.122c-0.361,0.307-0.602,0.808-0.633,1.278
							c-0.031,0.456,0.135,1.014,0.456,1.351c0.333,0.349,0.781,0.622,1.278,0.633c0.499,0.011,0.965-0.128,1.351-0.456
							c0.834-0.708,1.668-1.415,2.502-2.122C339.462,108.064,339.703,107.563,339.734,107.093z"/>
					</g>
					<g>
						<path style="fill:#0A1640;" d="M356.937,140.692c0.031-0.456-0.135-1.014-0.456-1.351c-0.332-0.349-0.781-0.622-1.278-0.633
							c-0.499-0.011-0.965,0.128-1.351,0.456c-0.834,0.708-1.668,1.415-2.502,2.122c-0.361,0.306-0.602,0.808-0.633,1.278
							c-0.031,0.456,0.135,1.014,0.456,1.351c0.332,0.349,0.781,0.622,1.278,0.633c0.499,0.011,0.965-0.128,1.351-0.456
							c0.834-0.708,1.668-1.415,2.502-2.122C356.665,141.663,356.905,141.161,356.937,140.692z"/>
					</g>
					<g>
						<path style="fill:#0A1640;" d="M326.194,104.697c0.455,0.041,0.981,0.292,1.263,0.662c0.293,0.383,0.492,0.869,0.426,1.361
							c-0.067,0.494-0.277,0.933-0.662,1.263c-0.829,0.713-1.659,1.426-2.488,2.139c-0.359,0.309-0.893,0.468-1.361,0.425
							c-0.455-0.041-0.981-0.292-1.263-0.662c-0.293-0.383-0.492-0.869-0.426-1.361c0.067-0.494,0.277-0.933,0.662-1.263
							c0.829-0.713,1.658-1.426,2.488-2.139C325.192,104.814,325.726,104.655,326.194,104.697z"/>
					</g>
					<g>
						<path style="fill:#0A1640;" d="M328.357,120.863c0.455,0.041,0.981,0.292,1.263,0.662c0.293,0.383,0.492,0.869,0.426,1.361
							c-0.067,0.494-0.277,0.933-0.662,1.263c-0.829,0.713-1.658,1.426-2.488,2.139c-0.359,0.309-0.893,0.468-1.361,0.426
							c-0.455-0.041-0.981-0.292-1.263-0.662c-0.293-0.383-0.492-0.869-0.426-1.361c0.067-0.494,0.277-0.933,0.662-1.263
							c0.829-0.713,1.658-1.426,2.488-2.139C327.355,120.98,327.889,120.821,328.357,120.863z"/>
					</g>
					<g>
						<path style="fill:#0A1640;" d="M341.697,135.341c0.031-0.456-0.135-1.014-0.456-1.351c-0.332-0.349-0.781-0.622-1.278-0.633
							c-0.499-0.011-0.965,0.128-1.351,0.456c-0.834,0.707-1.668,1.415-2.502,2.122c-0.361,0.306-0.602,0.808-0.633,1.278
							c-0.031,0.456,0.135,1.014,0.456,1.351c0.332,0.349,0.781,0.622,1.278,0.633c0.499,0.011,0.965-0.128,1.352-0.456
							c0.834-0.707,1.668-1.415,2.502-2.122C341.425,136.312,341.665,135.81,341.697,135.341z"/>
					</g>
					<g>
						<path style="fill:#0A1640;" d="M335.66,147.994c0.031-0.456-0.135-1.014-0.456-1.351c-0.332-0.349-0.781-0.622-1.278-0.633
							c-0.499-0.011-0.965,0.128-1.352,0.456c-0.834,0.707-1.668,1.415-2.502,2.122c-0.361,0.306-0.602,0.809-0.633,1.278
							c-0.031,0.456,0.135,1.014,0.456,1.351c0.333,0.349,0.781,0.622,1.278,0.633c0.499,0.011,0.965-0.128,1.351-0.456
							c0.834-0.707,1.668-1.415,2.502-2.122C335.388,148.966,335.629,148.464,335.66,147.994z"/>
					</g>
					<g>
						<path style="fill:#0A1640;" d="M320.031,143.329c0.031-0.456-0.135-1.014-0.456-1.351c-0.332-0.349-0.781-0.622-1.278-0.633
							c-0.499-0.011-0.965,0.128-1.352,0.456c-0.834,0.707-1.668,1.415-2.502,2.122c-0.361,0.307-0.602,0.809-0.633,1.278
							c-0.031,0.456,0.135,1.014,0.456,1.351c0.333,0.349,0.781,0.622,1.278,0.633c0.499,0.011,0.965-0.128,1.351-0.456
							c0.834-0.707,1.668-1.415,2.502-2.123C319.759,144.301,320,143.799,320.031,143.329z"/>
					</g>
					<g>
						<path style="fill:#0A1640;" d="M317.646,126.903c0.031-0.456-0.135-1.014-0.456-1.351c-0.332-0.349-0.781-0.622-1.278-0.633
							c-0.499-0.011-0.965,0.128-1.351,0.456c-0.834,0.708-1.668,1.415-2.502,2.122c-0.361,0.307-0.602,0.809-0.633,1.278
							c-0.031,0.456,0.135,1.014,0.456,1.351c0.332,0.349,0.781,0.622,1.278,0.633c0.499,0.011,0.965-0.128,1.352-0.456
							c0.834-0.707,1.668-1.415,2.502-2.123C317.374,127.874,317.615,127.372,317.646,126.903z"/>
					</g>
					<g>
						<path style="fill:#0A1640;" d="M328.963,134.756c0.031-0.456-0.135-1.014-0.456-1.351c-0.332-0.349-0.781-0.622-1.278-0.633
							c-0.499-0.011-0.965,0.128-1.351,0.456c-0.834,0.708-1.668,1.415-2.502,2.122c-0.361,0.307-0.602,0.808-0.633,1.278
							c-0.031,0.456,0.135,1.014,0.456,1.351c0.332,0.349,0.781,0.622,1.278,0.633c0.499,0.011,0.965-0.128,1.351-0.456
							c0.834-0.708,1.668-1.415,2.502-2.122C328.691,135.727,328.932,135.225,328.963,134.756z"/>
					</g>
					<g>
						<path style="fill:#0A1640;" d="M321.486,117.074c0.031-0.456-0.135-1.014-0.456-1.351c-0.332-0.349-0.781-0.622-1.278-0.633
							c-0.499-0.011-0.965,0.128-1.352,0.456c-0.834,0.707-1.668,1.415-2.502,2.122c-0.361,0.307-0.602,0.808-0.633,1.278
							c-0.031,0.456,0.135,1.014,0.456,1.351c0.333,0.349,0.781,0.622,1.278,0.633c0.499,0.011,0.965-0.128,1.351-0.456
							c0.834-0.707,1.668-1.415,2.502-2.122C321.214,118.046,321.454,117.544,321.486,117.074z"/>
					</g>
					<g>
						<path style="fill:#0A1640;" d="M347.827,142.518c0.031-0.456-0.135-1.014-0.456-1.351c-0.332-0.349-0.781-0.622-1.278-0.633
							c-0.499-0.011-0.965,0.128-1.351,0.456c-0.834,0.708-1.668,1.415-2.502,2.122c-0.361,0.306-0.602,0.808-0.633,1.278
							c-0.031,0.456,0.135,1.014,0.456,1.351c0.332,0.349,0.781,0.622,1.278,0.633c0.499,0.011,0.965-0.128,1.351-0.456
							c0.834-0.707,1.668-1.415,2.502-2.122C347.555,143.49,347.795,142.988,347.827,142.518z"/>
					</g>
				</g>
			</g>
			<g>
				<g>
					
						<path style="fill:#FFFEFA;stroke:#0A1640;stroke-width:2;stroke-linecap:round;stroke-linejoin:round;stroke-miterlimit:10;" d="
						M374.657,238.79c0,0-1.405,9.7-4.77,22.56c-2.804,10.658-6.949,23.483-12.762,34.764c-2.983,5.772-8.269,10.047-14.541,11.732
						c-7.231,1.937-18.625,3.474-35.226,1.848l-0.634-0.062c-16.601-1.626-27.481-5.344-34.199-8.647
						c-5.825-2.87-10.182-8.089-11.988-14.33c-0.831-2.869-1.545-5.811-2.173-8.77c-5.248-24.762-3.904-50.866-3.904-50.866
						L374.657,238.79z"/>
				</g>
				<g>
					<path style="fill:#0A1640;" d="M311.683,258.964c-0.621-0.061-1.074-0.613-1.013-1.233l2.445-24.968
						c0.061-0.62,0.612-1.074,1.233-1.013c0.621,0.061,1.074,0.613,1.013,1.233l-2.445,24.968
						C312.856,258.571,312.304,259.025,311.683,258.964z"/>
				</g>
				<g>
					<path style="fill:#0A1640;" d="M306.931,310.784c-0.621-0.061-1.074-0.613-1.013-1.233l3.759-38.379
						c0.061-0.62,0.612-1.074,1.233-1.013c0.621,0.061,1.074,0.613,1.013,1.233l-3.759,38.379
						C308.104,310.392,307.552,310.845,306.931,310.784z"/>
				</g>
				<g>
					<path style="fill:#0A1640;" d="M276.209,303.813c-0.252-0.025-0.496-0.134-0.688-0.329c-0.169-0.171-4.147-4.34-5.409-17.455
						c-0.841-8.756-2.94-57.038-2.961-57.524c-0.027-0.623,0.456-1.15,1.079-1.177c0.621-0.033,1.149,0.456,1.177,1.079
						c0.021,0.486,2.117,48.709,2.953,57.406c1.17,12.169,4.74,16.056,4.776,16.094c0.427,0.449,0.415,1.161-0.03,1.592
						C276.857,303.74,276.527,303.844,276.209,303.813z"/>
				</g>
				<g>
					<path style="fill:#0A1640;" d="M293.515,308.491c-0.361-0.035-0.697-0.243-0.883-0.585c-0.073-0.135-1.81-3.394-2.621-9.186
						c-1.636-11.68-0.634-65.887-0.59-68.189c0.012-0.623,0.527-1.119,1.149-1.107c0.635,0.02,1.119,0.527,1.108,1.15
						c-0.011,0.562-1.043,56.329,0.567,67.833c0.749,5.353,2.357,8.396,2.373,8.426c0.294,0.549,0.089,1.233-0.459,1.528
						C293.955,308.471,293.73,308.512,293.515,308.491z"/>
				</g>
				<g>
					<path style="fill:#0A1640;" d="M312.066,258.357c-0.621-0.061-1.074-0.613-1.013-1.233l2.445-24.968
						c0.061-0.62,0.612-1.074,1.233-1.013c0.621,0.061,1.074,0.613,1.013,1.233l-2.445,24.968
						C313.238,257.964,312.687,258.418,312.066,258.357z"/>
				</g>
				<g>
					<path style="fill:#0A1640;" d="M338.087,309.972c-0.286-0.028-0.561-0.165-0.759-0.403c-0.398-0.48-0.331-1.191,0.149-1.589
						c0.039-0.033,4.419-3.849,7.956-15.654c2.509-8.37,13.919-55.27,14.034-55.742c0.148-0.606,0.758-0.976,1.364-0.83
						c0.606,0.147,0.977,0.758,0.83,1.364c-0.115,0.473-11.54,47.43-14.065,55.857c-3.764,12.565-8.48,16.579-8.679,16.744
						C338.676,309.918,338.375,310.001,338.087,309.972z"/>
				</g>
				<g>
					<path style="fill:#0A1640;" d="M319.61,311.382c-0.212-0.021-0.419-0.101-0.596-0.243c-0.486-0.39-0.563-1.101-0.173-1.586
						c0.028-0.035,2.859-3.602,4.641-8.731c3.811-10.973,13.618-65.881,13.717-66.434c0.109-0.614,0.683-1.023,1.31-0.913
						c0.613,0.109,1.022,0.696,0.913,1.309c-0.404,2.267-9.938,55.638-13.808,66.779c-1.916,5.516-4.888,9.248-5.013,9.404
						C320.351,311.274,319.975,311.418,319.61,311.382z"/>
				</g>
				<g>
					<path style="fill:#FFFFFF;" d="M268.822,288.992c-4.139-11.615-6.472-23.653-6.853-35.982c-0.1-3.225-5.128-3.389-5.027-0.146
						c0.395,12.749,2.696,25.243,6.98,37.262C264.998,293.146,269.908,292.038,268.822,288.992z"/>
				</g>
			</g>
			<g>
				<g>
					<g>
						
							<path style="fill:#FFFEFA;stroke:#0A1640;stroke-width:2;stroke-linecap:round;stroke-linejoin:round;stroke-miterlimit:10;" d="
							M308.607,267.969c-39.974-4.716-71.532-15.606-66.819-55.57c0.965-8.182,3.249-15.886,6.604-22.918
							c1.5-3.122,3.205-6.107,5.104-8.956c1.998-2.998,4.208-5.844,6.614-8.488c5.456-6.033,11.892-11.12,19.028-15.031
							c3.122-1.708,6.393-3.206,9.774-4.47c10.441-3.861,21.941-5.382,33.773-3.987c11.822,1.393,22.651,5.545,31.922,11.733
							c2.995,2.008,5.828,4.226,8.474,6.621c6.02,5.463,11.094,11.906,15.005,19.042c1.726,3.138,3.213,6.406,4.464,9.795
							c0.922,2.5,1.708,5.049,2.354,7.657c2.058,8.283,2.683,17.079,1.614,26.066C381.805,269.427,348.571,272.682,308.607,267.969z
							"/>
					</g>
					<g>
						
							<path style="fill:#FFFEFA;stroke:#0A1640;stroke-width:2;stroke-linecap:round;stroke-linejoin:round;stroke-miterlimit:10;" d="
							M288.914,152.539c-3.382,1.256-6.65,2.754-9.782,4.468c0.006-7.714-5.773-14.368-13.616-15.293
							c-8.462-0.998-16.138,5.051-17.136,13.513c-0.926,7.852,4.223,15.013,11.725,16.811c-2.405,2.646-4.613,5.487-6.612,8.485
							c-10.098-4.387-16.571-14.995-15.216-26.487c1.656-14.044,14.387-24.081,28.431-22.426
							C278.191,132.964,286.994,141.716,288.914,152.539z"/>
					</g>
					<g>
						
							<path style="fill:#FFFEFA;stroke:#0A1640;stroke-width:2;stroke-linecap:round;stroke-linejoin:round;stroke-miterlimit:10;" d="
							M279.132,157.007c-7.13,3.915-13.569,8.997-19.027,15.031c-7.502-1.798-12.651-8.958-11.725-16.811
							c0.998-8.462,8.673-14.511,17.136-13.513C273.359,142.639,279.138,149.294,279.132,157.007z"/>
					</g>
					<g>
						
							<path style="fill:#FFFEFA;stroke:#0A1640;stroke-width:2;stroke-linecap:round;stroke-linejoin:round;stroke-miterlimit:10;" d="
							M403.505,173.515c-1.355,11.492-10.117,20.304-20.959,22.222c-1.247-3.381-2.735-6.657-4.458-9.79
							c7.714-0.004,14.378-5.772,15.303-13.624c0.998-8.462-5.052-16.128-13.514-17.126c-7.843-0.925-15.011,4.204-16.799,11.707
							c-2.647-2.395-5.477-4.612-8.475-6.621c4.384-10.079,14.982-16.544,26.465-15.19
							C395.113,146.748,405.16,159.471,403.505,173.515z"/>
					</g>
					<g>
						
							<path style="fill:#FFFEFA;stroke:#0A1640;stroke-width:2;stroke-linecap:round;stroke-linejoin:round;stroke-miterlimit:10;" d="
							M338.672,203.547c-0.734,11.938-10.415,11.381-22.353,10.646c-11.938-0.735-21.614-1.368-20.879-13.307
							c0.735-11.938,11.008-21.02,22.946-20.286C330.325,181.336,339.407,191.609,338.672,203.547z"/>
					</g>
					<g>
						<g>
							<g>
								
									<path style="fill:#FFFEFA;stroke:#0A1640;stroke-width:2;stroke-linecap:round;stroke-linejoin:round;stroke-miterlimit:10;" d="
									M280.099,187.378c-3.224-1.841-3.656-4.716-1.94-6.566c5.045-5.439,18.815-1.407,15.667,4.829
									C292.295,188.671,285.238,190.313,280.099,187.378z"/>
							</g>
							<g>
								
									<path style="fill:#FFFEFA;stroke:#0A1640;stroke-width:2;stroke-linecap:round;stroke-linejoin:round;stroke-miterlimit:10;" d="
									M353.264,194.145c3.522-1.174,4.509-3.909,3.188-6.059c-3.882-6.322-18.175-5.065-16.309,1.667
									C341.05,193.025,347.649,196.017,353.264,194.145z"/>
							</g>
						</g>
						<g>
							<path style="fill:#0A1640;" d="M324.274,189.333c1.006-0.969,0.653-2.656-0.658-3.139l-0.032-0.012
								c-2.792-1.029-5.849-1.084-8.676-0.157l0,0c-1.326,0.435-1.741,2.106-0.774,3.111l2.694,2.798
								c1.23,1.278,3.259,1.329,4.552,0.115L324.274,189.333z"/>
						</g>
						<path style="fill:#0A1640;" d="M298.89,166.38c-3.482-0.455-7.272,2.685-7.201,5.961c-0.615,3.549,2.357,6.821,5.653,7.251
							c4.042,0.527,7.212-2.632,7.508-5.859C305.214,169.773,302.431,166.843,298.89,166.38z"/>
						<path style="fill:#0A1640;" d="M338.197,182.815c2.783,0.546,6.28-2.129,6.533-5.495c0.245-3.264-2.242-6.202-5.459-6.51
							c-3.311-0.318-6.297,2.102-6.625,5.615C332.368,179.397,334.858,182.737,338.197,182.815z"/>
					</g>
					<path style="fill:none;stroke:#0A1640;stroke-width:2;stroke-linecap:round;stroke-linejoin:round;stroke-miterlimit:10;" d="
						M311.59,192.715c0.43,3.238,3.042,7.228,6.635,7.289c3.843,0.065,5.899-3.905,6.586-7.141"/>
				</g>
				<g>
					<g>
						
							<path style="fill:#FFFEFA;stroke:#0A1640;stroke-width:2;stroke-linecap:round;stroke-linejoin:round;stroke-miterlimit:10;" d="
							M349.226,159.229c-0.158,0.18-0.316,0.372-0.486,0.55c-4.026,4.407-9.979,6.666-15.911,7.28
							c-5.945,0.612-11.923-0.278-17.795-1.33c-5.243-0.928-10.552-2.025-15.264-4.513c-4.726-2.477-8.841-6.556-10.217-11.698
							c-0.766-2.853-0.565-6.137,1.279-8.435c0.204-0.261,0.431-0.507,0.68-0.725c1.519-1.431,3.583-2.229,5.567-2.974
							c1.49-0.555,2.968-1.112,4.46-1.68c0.09-0.026,0.193-0.064,0.285-0.103c-1.951-4.467-1.859-9.771,0.267-14.142
							c1.494-3.107,3.994-5.712,7.004-7.389c1.183-0.678,2.447-1.21,3.765-1.563c-0.759,1.397-0.423,3.271,0.552,4.562
							c1.081,1.441,2.766,2.284,4.436,2.939c8.027,3.164,17.215,3.207,24.669,7.554c5.414,3.153,9.533,8.57,10.829,14.707
							C354.583,148.153,353.09,154.618,349.226,159.229z"/>
					</g>
				</g>
				<g>
					<path style="fill:none;stroke:#0A1640;stroke-width:2;stroke-linecap:round;stroke-linejoin:round;stroke-miterlimit:10;" d="
						M312.71,112.728c-2.694,3.033-4.806,6.941-4.38,10.975c0.483,4.57,4.155,8.269,8.297,10.259
						c4.142,1.99,8.778,2.626,13.275,3.576s9.101,2.333,12.475,5.454c4.524,4.184,5.995,11.336,3.488,16.966"/>
					<path style="fill:none;stroke:#0A1640;stroke-width:2;stroke-linecap:round;stroke-linejoin:round;stroke-miterlimit:10;" d="
						M302.092,135.417c8.616,7.997,20.416,12.465,32.168,12.181"/>
				</g>
			</g>
		</g>
		<g>
			<path style="fill:#FFFEFA;stroke:#0A1640;stroke-width:2;stroke-linecap:round;stroke-linejoin:round;stroke-miterlimit:10;" d="
				M424.805,320.216c12.566,25.223-19.55,56.776-66.825,80.328c-47.275,23.552-91.807,30.184-104.373,4.961
				c-12.566-25.222,20.545-54.78,67.82-78.332C368.702,303.621,412.239,294.993,424.805,320.216z"/>
			<g>
				
					<path style="fill:#FFFEFA;stroke:#0A1640;stroke-width:2;stroke-linecap:round;stroke-linejoin:round;stroke-miterlimit:10;" d="
					M284.45,413.433c4.175-3.067,8.301-6.387,13.22-8.001c12.002-3.937,26.653,2.893,37.746-3.104
					c11.404-6.165,13.904-23.213,25.035-29.867c6.751-4.036,15.256-3.397,23.175-4.094c7.918-0.697,16.646-3.784,19.154-11.602
					c1.379-4.299,0.673-9.568,3.322-13.076c2.809-3.721,8.135-3.859,12.226-5.931c5.288-2.678,8.01-9.229,7.377-15.519
					c-0.271-0.679-0.567-1.354-0.901-2.025c-12.566-25.223-56.103-16.594-103.378,6.958c-47.275,23.552-80.386,53.109-67.82,78.332
					c0.736,1.477,1.581,2.845,2.531,4.106c6.63,8.808,19.308,10.423,28.2,3.905C284.375,413.489,284.413,413.461,284.45,413.433z"/>
			</g>
			<path style="fill:#FFFEFA;stroke:#0A1640;stroke-width:2;stroke-linecap:round;stroke-linejoin:round;stroke-miterlimit:10;" d="
				M386.7,320.568c4.986,10.009-17.143,27.206-47.481,42.32c-30.337,15.114-57.394,22.421-62.381,12.412"/>
			<path style="fill:#FFFEFA;stroke:#0A1640;stroke-width:2;stroke-linecap:round;stroke-linejoin:round;stroke-miterlimit:10;" d="
				M302.184,377.52c8.589-6.751,20.494-13.911,34.034-20.657c13.642-6.796,26.62-12.014,37.227-14.789"/>
			<g>
				<g>
					<path style="fill:#0A1640;" d="M277.095,406.942c-0.226,0.112-0.483,0.171-0.753,0.159l-8.922-0.401
						c-0.847-0.038-1.504-0.756-1.465-1.604c0.038-0.847,0.754-1.504,1.603-1.466l8.922,0.401c0.847,0.039,1.504,0.756,1.465,1.604
						C277.92,406.213,277.578,406.701,277.095,406.942z"/>
				</g>
				<g>
					<path style="fill:#0A1640;" d="M375.545,330.275c-0.226,0.112-0.483,0.171-0.753,0.159l-8.922-0.401
						c-0.847-0.038-1.504-0.756-1.465-1.604c0.038-0.847,0.754-1.504,1.603-1.466l8.922,0.401c0.847,0.039,1.504,0.756,1.465,1.604
						C376.369,329.546,376.028,330.034,375.545,330.275z"/>
				</g>
				<g>
					<path style="fill:#0A1640;" d="M411.35,316.556c-0.226,0.112-0.483,0.171-0.753,0.159l-8.922-0.401
						c-0.847-0.038-1.504-0.756-1.465-1.604c0.038-0.847,0.754-1.504,1.603-1.466l8.922,0.401c0.847,0.038,1.504,0.756,1.465,1.604
						C412.175,315.827,411.834,316.315,411.35,316.556z"/>
				</g>
				<g>
					<path style="fill:#0A1640;" d="M358.431,363.783c-0.125,0.219-0.306,0.411-0.537,0.551l-7.639,4.627
						c-0.725,0.439-1.67,0.207-2.109-0.519c-0.439-0.725-0.209-1.669,0.518-2.11l7.639-4.627c0.725-0.439,1.67-0.208,2.109,0.518
						C358.711,362.718,358.699,363.314,358.431,363.783z"/>
				</g>
				<g>
					<path style="fill:#0A1640;" d="M329.76,339.302c-0.125,0.219-0.306,0.411-0.538,0.551l-7.639,4.627
						c-0.725,0.439-1.67,0.207-2.11-0.518c-0.44-0.725-0.209-1.669,0.518-2.11l7.639-4.627c0.726-0.439,1.67-0.207,2.11,0.518
						C330.04,338.238,330.028,338.833,329.76,339.302z"/>
				</g>
				<g>
					<path style="fill:#0A1640;" d="M318.613,398.286c-0.251-0.027-0.499-0.117-0.719-0.273l-7.289-5.16
						c-0.692-0.49-0.856-1.449-0.366-2.141c0.49-0.692,1.447-0.858,2.141-0.367l7.289,5.16c0.692,0.49,0.856,1.449,0.366,2.141
						C319.701,398.118,319.15,398.344,318.613,398.286z"/>
				</g>
				<g>
					<path style="fill:#0A1640;" d="M349.87,335.924c-0.251-0.027-0.499-0.117-0.719-0.273l-7.289-5.16
						c-0.692-0.49-0.856-1.449-0.366-2.141c0.49-0.692,1.447-0.858,2.141-0.366l7.289,5.16c0.692,0.49,0.856,1.449,0.366,2.141
						C350.958,335.757,350.407,335.983,349.87,335.924z"/>
				</g>
				<g>
					<path style="fill:#0A1640;" d="M264.042,374.181c0.073-0.241,0.206-0.469,0.4-0.657l6.406-6.223
						c0.609-0.591,1.581-0.577,2.172,0.032c0.591,0.608,0.579,1.58-0.031,2.172l-6.405,6.223c-0.608,0.591-1.581,0.577-2.172-0.032
						C264.008,375.282,263.887,374.698,264.042,374.181z"/>
				</g>
				<g>
					<path style="fill:#0A1640;" d="M386.557,361.599c-0.236,0.088-0.498,0.12-0.765,0.079l-8.831-1.33
						c-0.839-0.127-1.417-0.909-1.29-1.748c0.126-0.839,0.907-1.417,1.748-1.29l8.831,1.329c0.838,0.127,1.417,0.909,1.29,1.748
						C387.453,360.959,387.063,361.409,386.557,361.599z"/>
				</g>
				<g>
					<path style="fill:#0A1640;" d="M296.569,350.709c0.007,0.252-0.048,0.51-0.173,0.75l-4.123,7.922
						c-0.392,0.752-1.32,1.045-2.072,0.653c-0.752-0.392-1.046-1.318-0.654-2.072l4.123-7.922c0.392-0.752,1.32-1.045,2.072-0.653
						C296.255,349.654,296.554,350.169,296.569,350.709z"/>
				</g>
				<g>
					<path style="fill:#0A1640;" d="M381.845,312.95c-0.109,0.227-0.275,0.432-0.495,0.589l-7.277,5.178
						c-0.691,0.491-1.651,0.33-2.142-0.362c-0.492-0.691-0.332-1.649,0.361-2.142l7.277-5.178c0.691-0.491,1.651-0.33,2.142,0.361
						C382.046,311.867,382.077,312.463,381.845,312.95z"/>
				</g>
				<g>
					<path style="fill:#0A1640;" d="M272.096,391.473c-0.241,0.073-0.505,0.089-0.769,0.032l-8.732-1.875
						c-0.829-0.178-1.357-0.995-1.179-1.825c0.178-0.829,0.993-1.358,1.824-1.179l8.732,1.875c0.829,0.178,1.358,0.995,1.179,1.825
						C273.03,390.89,272.612,391.315,272.096,391.473z"/>
				</g>
				<g>
					<path style="fill:#0A1640;" d="M403.034,334.148c0.101-0.231,0.26-0.441,0.475-0.606l7.093-5.427
						c0.674-0.515,1.638-0.387,2.153,0.287c0.515,0.673,0.389,1.637-0.286,2.154l-7.093,5.427c-0.674,0.515-1.638,0.387-2.153-0.287
						C402.871,335.237,402.818,334.643,403.034,334.148z"/>
				</g>
				<g>
					<path style="fill:#0A1640;" d="M300.111,364.788c0.101-0.231,0.26-0.441,0.475-0.606l7.093-5.427
						c0.674-0.515,1.638-0.387,2.153,0.287c0.515,0.673,0.389,1.637-0.286,2.154l-7.093,5.427c-0.674,0.515-1.638,0.387-2.153-0.287
						C299.948,365.877,299.896,365.283,300.111,364.788z"/>
				</g>
				<g>
					<path style="fill:#0A1640;" d="M334.642,376.605c-0.058,0.245-0.177,0.481-0.359,0.681l-6.011,6.606
						c-0.571,0.627-1.543,0.673-2.17,0.102c-0.627-0.571-0.675-1.541-0.103-2.17l6.011-6.606c0.571-0.627,1.543-0.673,2.17-0.102
						C334.608,375.504,334.766,376.079,334.642,376.605z"/>
				</g>
			</g>
		</g>
		<g>
			<g>
				
					<path style="fill:#FFFEFA;stroke:#0A1640;stroke-width:2;stroke-linecap:round;stroke-linejoin:round;stroke-miterlimit:10;" d="
					M169.949,309.169l-14.521,3.374l-65.642,15.252c0,0,41.077,91.115,46.402,96.12c5.325,5.005,8.342,7.425,23.218,3.969
					l21.653-5.031l14.521-3.374l21.653-5.031c14.875-3.456,16.517-6.959,19.089-13.799c2.572-6.84-0.732-106.732-0.732-106.732
					L169.949,309.169z"/>
			</g>
			<g>
				<defs>
					<path id="SVGID_1_" d="M169.826,308.68l-14.504,3.37L89.76,327.283c0,0,41.028,91.005,46.346,96.005
						c5.318,4.999,8.332,7.416,23.19,3.964l21.627-5.025l14.504-3.37l21.627-5.025c14.857-3.452,16.497-6.951,19.066-13.782
						c2.569-6.832-0.731-106.603-0.731-106.603L169.826,308.68z"/>
				</defs>
				<clipPath id="SVGID_00000070108515516074331050000003306895695050342331_">
					<use xlink:href="#SVGID_1_"  style="overflow:visible;"/>
				</clipPath>
				<g style="clip-path:url(#SVGID_00000070108515516074331050000003306895695050342331_);">
					<g>
						<g>
							<path style="fill:#0A1640;" d="M180.974,438.553c-26.85-24.246-57.973-138.016-59.286-142.847l7.675-2.085
								c0.315,1.161,31.811,116.339,56.94,139.031L180.974,438.553z"/>
						</g>
					</g>
					<g>
						<g>
							<g>
								<path style="fill:#0A1640;" d="M168.943,443.091c-31.777-6.901-69.923-126.133-74.168-139.705l7.59-2.374
									c16.119,51.529,47.6,129.821,68.266,134.308L168.943,443.091z"/>
							</g>
						</g>
						<g>
							<g>
								<path style="fill:#0A1640;" d="M215.139,432.358l-4.94-6.232c16.569-13.138,10.307-97.29,2.055-150.647l7.86-1.216
									C222.287,288.317,240.619,412.153,215.139,432.358z"/>
							</g>
						</g>
						<g>
							<g>
								<path style="fill:#0A1640;" d="M202.34,433.589l-7.385-2.947c12.553-31.454-9.963-148.712-10.191-149.892l7.806-1.514
									C193.524,284.151,215.751,399.989,202.34,433.589z"/>
							</g>
						</g>
						<g>
							<g>
								
									<rect x="170.902" y="287.375" transform="matrix(0.9741 -0.2263 0.2263 0.9741 -77.693 49.0082)" style="fill:#0A1640;" width="7.953" height="151.898"/>
							</g>
						</g>
					</g>
				</g>
			</g>
			<path style="fill:#FFFEFA;" d="M204.151,371.048l-50.259,11.678c-11.954,2.778-23.896-4.661-26.674-16.615v0
				c-2.778-11.954,4.661-23.896,16.615-26.674l50.259-11.678c11.954-2.777,19.684,5.64,22.462,17.594l0,0
				C219.332,357.307,216.105,368.27,204.151,371.048z"/>
			<g>
				<g>
					<defs>
						<path id="SVGID_00000065043331949787410590000008974106516166866571_" d="M169.949,309.169l-14.521,3.374l-65.642,15.252
							c0,0,41.077,91.115,46.402,96.12c5.325,5.005,8.342,7.425,23.218,3.969l21.653-5.031l14.521-3.374l21.653-5.031
							c14.875-3.456,16.517-6.959,19.089-13.799c2.572-6.84-0.732-106.732-0.732-106.732L169.949,309.169z"/>
					</defs>
					<clipPath id="SVGID_00000158729118985648626370000010896276172431644042_">
						<use xlink:href="#SVGID_00000065043331949787410590000008974106516166866571_"  style="overflow:visible;"/>
					</clipPath>
				</g>
			</g>
			<g>
				
					<path style="fill:#FFFEFA;stroke:#0A1640;stroke-width:2;stroke-linecap:round;stroke-linejoin:round;stroke-miterlimit:10;" d="
					M225.356,261.656c-0.42,0.098-0.822,0.23-1.215,0.377c1.01-1.831,1.382-4.022,0.871-6.218c-1.097-4.721-5.814-7.66-10.535-6.563
					c-2.445,0.568-4.404,2.11-5.58,4.117c-0.994-0.725-1.608-1.17-1.608-1.17l-7.22-3.517c0.481-1.471,0.589-3.085,0.213-4.703
					c-1.097-4.721-5.814-7.66-10.535-6.563c-1.347,0.313-2.542,0.928-3.546,1.747c-1.325-2.112-3.68-3.41-6.217-3.314
					c0.055-0.841-0.007-1.704-0.208-2.567c-1.097-4.721-5.814-7.659-10.535-6.562c-3.209,0.745-5.589,3.164-6.444,6.118
					c-1.402-0.411-2.924-0.483-4.448-0.129c-2.402,0.558-4.338,2.055-5.521,4.011c-1.617-2.223-4.461-3.386-7.308-2.725
					c-1.802,0.419-3.264,1.506-4.227,2.925c-2.014-2.749-5.54-4.185-9.069-3.365c-4.722,1.097-7.66,5.814-6.563,10.535
					c0.17,0.733,0.437,1.418,0.769,2.057c-0.806-0.102-1.639-0.09-2.477,0.105c-3.397,0.789-5.626,3.909-5.431,7.276
					c-0.974-0.113-1.982-0.073-2.992,0.162c-4.37,1.015-7.205,5.132-6.735,9.483c-1.267-0.295-2.617-0.322-3.969-0.008
					c-4.721,1.097-7.66,5.814-6.563,10.535c0.235,1.013,0.645,1.937,1.178,2.763c-3.392,1.012-5.493,4.37-4.926,7.86
					c-1.209-0.194-2.474-0.167-3.741,0.127c-5.233,1.216-8.49,6.444-7.274,11.677c0.233,1.002,0.615,1.929,1.113,2.768
					c-0.419,0.019-0.84,0.064-1.263,0.163c-3.716,0.863-6.028,4.576-5.165,8.292c0.864,3.716,4.576,6.029,8.292,5.165
					c1.624-0.377,2.954-1.317,3.894-2.545c2.013,2.752,5.542,4.19,9.073,3.37c59.438,2.62,130.295-32.824,130.295-32.824
					c5.209-1.21,8.45-6.414,7.24-11.622C235.768,263.688,230.565,260.446,225.356,261.656z"/>
			</g>
			<g>
				<g>
					
						<path style="fill:#FFFEFA;stroke:#0A1640;stroke-width:2;stroke-linecap:round;stroke-linejoin:round;stroke-miterlimit:10;" d="
						M237.478,271.298c-27.183,17.338-77.347,28.55-77.348,28.55c-0.001,0-49.97,12.055-82.012,8.478c0,0-3.566,8.533,4.221,18.168
						c0,0,10.326,8.946,82.181-7.75c71.855-16.696,77.179-29.278,77.179-29.278C244.442,277.385,237.478,271.298,237.478,271.298z"
						/>
				</g>
			</g>
			<g>
				<g>
					<g>
						<path style="fill:#0A1640;" d="M101.779,297.101c-0.611,0.424-1.123,0.972-1.549,1.564c-0.117,0.17-0.225,0.338-0.329,0.507
							c-0.161-0.05-0.315-0.115-0.479-0.159c-0.636-0.083-1.244-0.278-1.913-0.235c-1.301-0.088-2.669,0.275-3.838,0.876
							c-1.175,0.618-2.145,1.541-2.774,2.607c-0.646,1.047-1.044,2.216-1.06,3.406c1.624-1.676,3.276-2.895,4.982-3.368
							c0.85-0.232,1.691-0.367,2.59-0.292c0.89,0.021,1.81,0.239,2.763,0.448l1.757,0.385l0.227-1.46
							c0.058-0.375,0.223-0.953,0.397-1.415c0.18-0.487,0.41-0.945,0.676-1.396c0.548-0.882,1.371-1.628,2.601-2.184
							c-0.621-0.187-1.344-0.31-2.044-0.149C103.079,296.36,102.374,296.663,101.779,297.101z"/>
					</g>
					<g>
						<path style="fill:#0A1640;" d="M108.813,286.728c0.237,0.14,0.439,0.381,0.67,0.542c0.213,0.206,0.418,0.431,0.642,0.629
							l2.212,1.954l0.547-2.908c0.093-0.493,0.294-1.24,0.536-1.819c0.248-0.611,0.56-1.176,0.947-1.705
							c0.397-0.513,0.854-1.048,1.471-1.46c0.59-0.485,1.317-0.801,2.116-1.244c-0.833-0.318-1.755-0.442-2.696-0.312
							c-0.938,0.118-1.894,0.492-2.691,1.097c-0.813,0.589-1.476,1.377-1.953,2.239c-0.078,0.147-0.145,0.291-0.214,0.436
							c-0.033-0.016-0.059-0.04-0.092-0.056c-0.791-0.42-1.73-0.615-2.628-0.64c-1.83-0.007-3.491,0.896-4.322,2.265
							c1.55-0.301,2.905-0.267,3.979,0.168C107.873,286.132,108.361,286.371,108.813,286.728z"/>
					</g>
					<g>
						<path style="fill:#0A1640;" d="M124.778,300.859c-0.906-0.365-2.058-0.374-3.022,0.001c-0.97,0.361-1.75,0.973-2.404,1.635
							c-0.113,0.118-0.198,0.243-0.301,0.362c-0.16-0.136-0.324-0.268-0.504-0.387c-0.817-0.59-1.814-0.972-2.795-1.069
							c-0.983-0.12-1.942,0.044-2.793,0.34c-0.843,0.34-1.62,0.782-2.204,1.451c1.724-0.031,3.241,0.145,4.4,0.69
							c1.167,0.507,1.946,1.373,2.674,2.453l1.598,2.372l1.24-2.547c0.248-0.508,0.644-1.15,1.012-1.663
							c0.382-0.529,0.79-1.011,1.236-1.375c0.447-0.352,0.934-0.63,1.582-0.704c0.664-0.143,1.401,0.069,2.262,0.234
							C126.33,301.926,125.707,301.221,124.778,300.859z"/>
					</g>
					<g>
						<path style="fill:#0A1640;" d="M130.624,284.723c-0.454,0.079-0.908,0.274-1.291,0.555c-0.393,0.273-0.722,0.625-0.996,1.006
							c-0.075,0.11-0.136,0.22-0.202,0.329c-0.107-0.033-0.208-0.076-0.318-0.105c-0.409-0.053-0.8-0.179-1.23-0.151
							c-0.837-0.057-1.717,0.177-2.469,0.563c-0.756,0.398-1.379,0.991-1.784,1.677c-0.416,0.674-0.671,1.426-0.682,2.191
							c1.045-1.078,2.107-1.862,3.204-2.167c0.547-0.149,1.087-0.236,1.666-0.188c0.572,0.013,1.164,0.154,1.777,0.288l1.13,0.248
							l0.146-0.939c0.038-0.241,0.144-0.613,0.255-0.91c0.116-0.313,0.264-0.608,0.435-0.898c0.353-0.567,0.882-1.047,1.673-1.405
							C131.54,284.698,131.074,284.619,130.624,284.723z"/>
					</g>
					<g>
						<path style="fill:#0A1640;" d="M129.349,264.963c-0.736,0.108-1.438,0.372-2.082,0.713c-0.181,0.101-0.352,0.203-0.52,0.308
							c-0.122-0.117-0.231-0.243-0.359-0.355c-0.533-0.357-0.991-0.802-1.609-1.061c-1.127-0.657-2.514-0.94-3.828-0.921
							c-1.327,0.032-2.606,0.428-3.644,1.103c-1.044,0.652-1.92,1.522-2.463,2.581c2.2-0.779,4.221-1.138,5.96-0.804
							c0.864,0.17,1.678,0.423,2.45,0.889c0.788,0.414,1.515,1.019,2.276,1.629l1.403,1.126l0.852-1.207
							c0.219-0.31,0.623-0.755,0.984-1.091c0.378-0.356,0.787-0.664,1.226-0.95c0.883-0.547,1.952-0.849,3.301-0.8
							c-0.473-0.444-1.066-0.876-1.765-1.042C130.843,264.876,130.077,264.836,129.349,264.963z"/>
					</g>
					<g>
						<path style="fill:#0A1640;" d="M136.467,254.528c0.21,0.178,0.368,0.449,0.569,0.648c0.175,0.239,0.34,0.496,0.527,0.728
							l1.851,2.299l1.028-2.774c0.174-0.471,0.499-1.173,0.835-1.704c0.347-0.56,0.75-1.065,1.221-1.521
							c0.477-0.439,1.017-0.889,1.695-1.191c0.663-0.379,1.433-0.568,2.296-0.87c-0.767-0.453-1.656-0.731-2.605-0.761
							c-0.944-0.042-1.95,0.166-2.838,0.628c-0.901,0.444-1.687,1.109-2.302,1.879c-0.101,0.132-0.192,0.263-0.284,0.394
							c-0.03-0.021-0.052-0.049-0.082-0.07c-0.71-0.547-1.602-0.898-2.483-1.073c-1.803-0.315-3.592,0.295-4.642,1.505
							c1.579-0.036,2.908,0.226,3.894,0.835C135.64,253.782,136.081,254.1,136.467,254.528z"/>
					</g>
					<g>
						<path style="fill:#0A1640;" d="M151.366,272.244c-0.906-0.365-2.058-0.374-3.022,0.001c-0.97,0.361-1.75,0.973-2.404,1.635
							c-0.113,0.118-0.197,0.243-0.301,0.362c-0.161-0.136-0.324-0.268-0.504-0.387c-0.818-0.59-1.814-0.972-2.795-1.069
							c-0.983-0.12-1.942,0.044-2.793,0.34c-0.843,0.34-1.62,0.782-2.204,1.451c1.724-0.031,3.241,0.145,4.401,0.69
							c1.167,0.507,1.946,1.373,2.674,2.453l1.598,2.372l1.24-2.547c0.247-0.509,0.644-1.15,1.012-1.663
							c0.382-0.529,0.79-1.011,1.236-1.375c0.447-0.352,0.934-0.631,1.582-0.704c0.664-0.143,1.401,0.069,2.262,0.234
							C152.917,273.311,152.295,272.607,151.366,272.244z"/>
					</g>
					<g>
						<path style="fill:#0A1640;" d="M148.379,293.472c-0.454,0.079-0.908,0.274-1.291,0.555c-0.393,0.272-0.722,0.625-0.996,1.006
							c-0.075,0.11-0.136,0.22-0.202,0.329c-0.107-0.033-0.209-0.076-0.317-0.105c-0.409-0.053-0.8-0.179-1.23-0.151
							c-0.837-0.056-1.717,0.177-2.469,0.564c-0.756,0.398-1.38,0.991-1.785,1.677c-0.415,0.674-0.671,1.426-0.682,2.191
							c1.045-1.078,2.107-1.862,3.204-2.166c0.547-0.149,1.087-0.236,1.666-0.188c0.572,0.013,1.164,0.154,1.777,0.288l1.13,0.248
							l0.146-0.939c0.038-0.241,0.143-0.613,0.255-0.91c0.116-0.313,0.264-0.608,0.435-0.897c0.353-0.568,0.882-1.047,1.673-1.405
							C149.294,293.448,148.829,293.369,148.379,293.472z"/>
					</g>
					<g>
						<path style="fill:#0A1640;" d="M159.963,253.871c-0.454,0.078-0.908,0.274-1.291,0.555c-0.393,0.272-0.722,0.625-0.996,1.006
							c-0.075,0.11-0.136,0.22-0.202,0.329c-0.107-0.033-0.208-0.076-0.317-0.105c-0.409-0.053-0.8-0.179-1.23-0.151
							c-0.837-0.057-1.717,0.177-2.469,0.563c-0.756,0.398-1.379,0.991-1.784,1.677c-0.415,0.674-0.671,1.426-0.682,2.191
							c1.045-1.078,2.107-1.862,3.204-2.167c0.546-0.149,1.087-0.236,1.666-0.188c0.572,0.013,1.164,0.154,1.777,0.288l1.13,0.248
							l0.146-0.939c0.037-0.241,0.143-0.613,0.255-0.91c0.116-0.313,0.264-0.608,0.435-0.898c0.353-0.567,0.882-1.047,1.673-1.404
							C160.879,253.847,160.414,253.768,159.963,253.871z"/>
					</g>
					<g>
						<path style="fill:#0A1640;" d="M177.73,290.116c-0.736,0.108-1.438,0.371-2.082,0.713c-0.181,0.101-0.352,0.203-0.52,0.308
							c-0.122-0.117-0.231-0.243-0.359-0.355c-0.533-0.357-0.991-0.802-1.609-1.061c-1.126-0.657-2.514-0.94-3.828-0.921
							c-1.327,0.032-2.606,0.428-3.644,1.103c-1.044,0.651-1.92,1.522-2.463,2.581c2.2-0.779,4.221-1.138,5.96-0.804
							c0.864,0.17,1.677,0.423,2.45,0.889c0.788,0.414,1.515,1.019,2.276,1.629l1.403,1.126l0.852-1.207
							c0.219-0.31,0.623-0.755,0.984-1.091c0.378-0.356,0.787-0.664,1.226-0.95c0.883-0.547,1.951-0.849,3.301-0.801
							c-0.473-0.444-1.066-0.875-1.765-1.042C179.224,290.029,178.458,289.988,177.73,290.116z"/>
					</g>
					<g>
						<path style="fill:#0A1640;" d="M173.177,269.53c-0.454,0.079-0.908,0.274-1.291,0.555c-0.393,0.272-0.722,0.625-0.996,1.006
							c-0.075,0.11-0.136,0.22-0.202,0.329c-0.107-0.033-0.208-0.076-0.317-0.105c-0.409-0.053-0.8-0.179-1.23-0.151
							c-0.837-0.056-1.717,0.177-2.469,0.564c-0.756,0.398-1.38,0.991-1.785,1.677c-0.415,0.674-0.671,1.426-0.682,2.191
							c1.045-1.078,2.107-1.862,3.204-2.167c0.547-0.149,1.087-0.236,1.666-0.188c0.572,0.013,1.164,0.154,1.777,0.288l1.13,0.248
							l0.146-0.939c0.037-0.241,0.143-0.613,0.255-0.91c0.116-0.313,0.264-0.608,0.435-0.898c0.353-0.568,0.882-1.047,1.673-1.405
							C174.093,269.505,173.627,269.426,173.177,269.53z"/>
					</g>
					<g>
						<path style="fill:#0A1640;" d="M175.31,240.842c-0.906-0.365-2.058-0.374-3.022,0.001c-0.971,0.361-1.75,0.973-2.404,1.635
							c-0.113,0.118-0.198,0.243-0.301,0.362c-0.161-0.136-0.324-0.268-0.504-0.387c-0.818-0.59-1.814-0.972-2.795-1.069
							c-0.983-0.12-1.942,0.044-2.793,0.34c-0.843,0.34-1.62,0.782-2.204,1.451c1.724-0.032,3.241,0.145,4.401,0.69
							c1.167,0.507,1.946,1.373,2.674,2.453l1.598,2.372l1.24-2.547c0.248-0.508,0.644-1.15,1.012-1.663
							c0.382-0.529,0.79-1.011,1.236-1.375c0.447-0.352,0.934-0.631,1.582-0.704c0.664-0.143,1.401,0.069,2.262,0.234
							C176.861,241.908,176.239,241.204,175.31,240.842z"/>
					</g>
					<g>
						<path style="fill:#0A1640;" d="M187.001,250.192c-0.454,0.079-0.908,0.274-1.291,0.555c-0.393,0.272-0.722,0.625-0.996,1.006
							c-0.075,0.11-0.136,0.22-0.202,0.329c-0.107-0.033-0.208-0.076-0.318-0.105c-0.409-0.053-0.8-0.179-1.23-0.151
							c-0.837-0.056-1.717,0.177-2.469,0.564c-0.756,0.398-1.379,0.991-1.785,1.677c-0.415,0.674-0.671,1.426-0.682,2.191
							c1.045-1.078,2.107-1.862,3.204-2.166c0.547-0.149,1.087-0.236,1.666-0.188c0.572,0.013,1.164,0.154,1.777,0.288l1.13,0.248
							l0.146-0.939c0.038-0.241,0.144-0.613,0.255-0.91c0.116-0.313,0.264-0.608,0.435-0.898c0.353-0.567,0.882-1.047,1.673-1.404
							C187.916,250.167,187.451,250.088,187.001,250.192z"/>
					</g>
					<g>
						<path style="fill:#0A1640;" d="M195.15,271.722c-0.455,0.079-0.908,0.274-1.291,0.555c-0.393,0.273-0.722,0.625-0.996,1.006
							c-0.076,0.11-0.136,0.22-0.202,0.329c-0.107-0.033-0.209-0.076-0.318-0.105c-0.409-0.053-0.801-0.179-1.23-0.151
							c-0.837-0.056-1.717,0.177-2.469,0.563c-0.756,0.398-1.379,0.991-1.784,1.677c-0.415,0.674-0.671,1.426-0.682,2.191
							c1.045-1.078,2.107-1.862,3.204-2.167c0.546-0.149,1.087-0.236,1.666-0.188c0.572,0.013,1.164,0.154,1.777,0.288l1.131,0.248
							l0.146-0.939c0.037-0.241,0.143-0.613,0.255-0.91c0.116-0.313,0.264-0.608,0.435-0.898c0.353-0.567,0.882-1.047,1.673-1.404
							C196.065,271.698,195.6,271.618,195.15,271.722z"/>
					</g>
					<g>
						<path style="fill:#0A1640;" d="M207.097,259.373c-0.736,0.108-1.438,0.372-2.082,0.713c-0.181,0.101-0.352,0.203-0.52,0.308
							c-0.122-0.117-0.231-0.243-0.359-0.355c-0.533-0.357-0.991-0.802-1.609-1.061c-1.127-0.657-2.514-0.939-3.828-0.921
							c-1.327,0.032-2.607,0.428-3.644,1.103c-1.044,0.652-1.92,1.522-2.463,2.581c2.2-0.779,4.221-1.138,5.96-0.804
							c0.864,0.17,1.678,0.423,2.45,0.889c0.788,0.414,1.515,1.019,2.276,1.63l1.403,1.126l0.852-1.207
							c0.219-0.31,0.624-0.755,0.984-1.091c0.378-0.356,0.787-0.664,1.226-0.95c0.883-0.546,1.951-0.849,3.301-0.801
							c-0.473-0.444-1.066-0.875-1.765-1.042C208.592,259.287,207.825,259.246,207.097,259.373z"/>
					</g>
					<g>
						<path style="fill:#0A1640;" d="M220.744,271.663c-0.906-0.365-2.058-0.374-3.022,0.001c-0.97,0.361-1.75,0.973-2.404,1.635
							c-0.113,0.118-0.198,0.243-0.301,0.362c-0.16-0.136-0.324-0.268-0.504-0.387c-0.817-0.59-1.814-0.972-2.795-1.069
							c-0.983-0.12-1.942,0.044-2.793,0.34c-0.843,0.34-1.62,0.782-2.204,1.451c1.724-0.032,3.241,0.145,4.401,0.69
							c1.167,0.507,1.946,1.373,2.674,2.453l1.598,2.372l1.24-2.547c0.247-0.508,0.644-1.15,1.012-1.663
							c0.382-0.529,0.79-1.011,1.236-1.375c0.447-0.352,0.934-0.63,1.582-0.704c0.664-0.143,1.401,0.069,2.262,0.234
							C222.296,272.73,221.673,272.026,220.744,271.663z"/>
					</g>
				</g>
			</g>
			<g>
				
					<path style="fill:#FFFEFA;stroke:#0A1640;stroke-width:2;stroke-linecap:round;stroke-linejoin:round;stroke-miterlimit:10;" d="
					M211.101,352.242c-5.097-3.391-13.453-1.464-17.639,2.635c-4.144,4.058-2.246,10.23,5.721,10.479
					C210.096,365.698,217.713,356.641,211.101,352.242z"/>
				
					<path style="fill:#FFFEFA;stroke:#0A1640;stroke-width:2;stroke-linecap:round;stroke-linejoin:round;stroke-miterlimit:10;" d="
					M140.692,370.307c2.835-5.427,11.086-7.76,16.729-6.183c5.586,1.561,6.894,7.885,0.031,11.939
					C148.051,381.616,137.014,377.346,140.692,370.307z"/>
				<path style="fill:#0A1640;" d="M163.519,351.998c0.003-0.001,0.007-0.002,0.009-0.002c0.612-0.152,1.232,0.222,1.384,0.835
					c1.127,4.549,5.114,8.957,10.283,8.165c2.694-0.414,4.253-2.06,5.094-3.371c1.601-2.501,2.049-5.956,1.171-9.016
					c-0.174-0.607,0.176-1.24,0.784-1.414c0.57-0.159,1.239,0.176,1.413,0.783c1.055,3.673,0.501,7.842-1.444,10.88
					c-1.381,2.157-3.334,3.593-5.691,4.198c-0.32,0.082-0.646,0.148-0.98,0.2c-6.509,0.997-11.477-4.344-12.848-9.875
					C162.543,352.77,162.913,352.154,163.519,351.998z"/>
				<path style="fill:#0A1640;" d="M141.127,352.838l4.213,0.026c0.028-0.218,0.068-0.432,0.121-0.645l-3.391-2.143
					c-0.533-0.337-0.692-1.043-0.356-1.577c0.337-0.533,1.044-0.693,1.577-0.355l3.199,2.022c0.429-0.52,0.964-0.979,1.636-1.327
					c2.461-1.273,5.853-0.76,7.785,1.894c3.4,4.67-1.896,10.322-7.125,8.212c-1.728-0.697-2.846-2.162-3.286-3.794l-4.389-0.028
					c-0.63-0.004-1.138-0.519-1.135-1.15C139.982,353.342,140.494,352.835,141.127,352.838z"/>
				<path style="fill:#0A1640;" d="M194.25,337.006c0.756-0.019,1.446,0.126,2.072,0.375l1.83-3.312
					c0.305-0.553,1.002-0.753,1.553-0.448c0.552,0.305,0.752,1.001,0.447,1.553l-1.939,3.51c0.149,0.161,0.288,0.329,0.417,0.507
					l3.679-2.051c0.549-0.304,1.246-0.111,1.555,0.442c0.307,0.551,0.11,1.247-0.441,1.554l-3.833,2.137
					c0.4,1.642,0.126,3.465-1.053,4.908c-3.568,4.367-10.93,1.963-10.199-3.767C188.754,339.158,191.48,337.074,194.25,337.006z"/>
			</g>
		</g>
	</g>
	<g>
		<g>
			<g>
				
					<path style="fill:#FFFEFA;stroke:#0A1640;stroke-width:2;stroke-linecap:round;stroke-linejoin:round;stroke-miterlimit:10;" d="
					M220.175,92.723c0.667-1.81-6.554-6.517-6.554-6.517s1.812-6.586,0.487-8.164l-0.124-0.086c0,0,0,0,0,0c0,0,0,0,0,0l0,0
					c-1.944-0.685-7.594,3.243-7.594,3.243s-6.947-5.103-8.406-3.842c-1.852,1.722,1.688,8.571,1.688,8.571
					s-6.425,5.152-5.842,7.168c1.431,3.113,9.09,0.819,9.111,0.813c0.002,0.022,0.549,7.999,3.966,8.243
					c2.092-0.164,4.654-7.991,4.654-7.991S219.214,95.062,220.175,92.723z"/>
			</g>
			<g>
				
					<path style="fill:#FFFEFA;stroke:#0A1640;stroke-width:2;stroke-linecap:round;stroke-linejoin:round;stroke-miterlimit:10;" d="
					M59.452,160.362c0.582-1.58-5.723-5.69-5.723-5.69s1.582-5.75,0.425-7.129l-0.108-0.075c0,0,0,0,0,0c0,0,0,0,0,0l0,0
					c-1.697-0.598-6.631,2.831-6.631,2.831s-6.065-4.456-7.34-3.354c-1.617,1.504,1.474,7.483,1.474,7.483s-5.61,4.498-5.101,6.258
					c1.249,2.718,7.937,0.715,7.955,0.709c0.001,0.019,0.479,6.984,3.463,7.197c1.827-0.143,4.063-6.977,4.063-6.977
					S58.614,162.405,59.452,160.362z"/>
			</g>
			<g>
				
					<path style="fill:#FFFEFA;stroke:#0A1640;stroke-width:2;stroke-linecap:round;stroke-linejoin:round;stroke-miterlimit:10;" d="
					M243.021,450.943c-0.181-1.925-8.748-3.053-8.748-3.053s-1.214-6.738-3.096-7.591l-0.149-0.024c0,0,0,0,0,0c0,0,0,0,0,0v0
					c-2.054,0.223-5.461,6.221-5.461,6.221s-8.49-1.605-9.263,0.168c-0.929,2.359,5.237,7.017,5.237,7.017s-3.577,7.44-2.177,9.01
					c2.642,2.195,8.572-3.197,8.588-3.212c0.011,0.019,3.961,6.993,7.156,5.734c1.82-1.054,0.746-9.239,0.746-9.239
					S243.166,453.474,243.021,450.943z"/>
			</g>
			<g>
				
					<path style="fill:#FFFEFA;stroke:#0A1640;stroke-width:2;stroke-linecap:round;stroke-linejoin:round;stroke-miterlimit:10;" d="
					M344.359,47.147c-0.181-1.925-8.748-3.053-8.748-3.053s-1.214-6.738-3.096-7.591l-0.149-0.024c0,0,0,0,0,0c0,0,0,0,0,0v0
					c-2.054,0.223-5.461,6.221-5.461,6.221s-8.49-1.605-9.263,0.168c-0.929,2.359,5.237,7.017,5.237,7.017s-3.577,7.44-2.177,9.01
					c2.642,2.195,8.572-3.197,8.588-3.211c0.011,0.019,3.961,6.993,7.155,5.733c1.82-1.054,0.746-9.239,0.746-9.239
					S344.504,49.679,344.359,47.147z"/>
			</g>
			<g>
				
					<path style="fill:#FFFEFA;stroke:#0A1640;stroke-width:2;stroke-linecap:round;stroke-linejoin:round;stroke-miterlimit:10;" d="
					M73.209,286.365c-0.181-1.925-8.748-3.053-8.748-3.053s-1.214-6.738-3.096-7.591l-0.149-0.024c0,0,0,0,0,0c0,0,0,0,0,0v0
					c-2.054,0.223-5.461,6.221-5.461,6.221s-8.49-1.605-9.263,0.168c-0.929,2.359,5.237,7.017,5.237,7.017s-3.577,7.44-2.177,9.01
					c2.642,2.195,8.572-3.197,8.588-3.211c0.011,0.019,3.96,6.993,7.156,5.733c1.82-1.054,0.746-9.239,0.746-9.239
					S73.354,288.896,73.209,286.365z"/>
			</g>
			<g>
				
					<path style="fill:#FFFEFA;stroke:#0A1640;stroke-width:2;stroke-linecap:round;stroke-linejoin:round;stroke-miterlimit:10;" d="
					M471.772,150.14c-0.181-1.925-8.748-3.053-8.748-3.053s-1.214-6.738-3.096-7.591l-0.149-0.024c0,0,0,0,0,0c0,0,0,0,0,0v0
					c-2.054,0.223-5.461,6.221-5.461,6.221s-8.49-1.605-9.263,0.168c-0.929,2.359,5.237,7.017,5.237,7.017s-3.577,7.44-2.177,9.01
					c2.642,2.195,8.572-3.197,8.588-3.212c0.011,0.019,3.961,6.993,7.156,5.734c1.82-1.054,0.746-9.239,0.746-9.239
					S471.917,152.671,471.772,150.14z"/>
			</g>
		</g>
		<g>
			<path style="fill:#FFFEFA;stroke:#0A1640;stroke-width:2;stroke-linecap:round;stroke-linejoin:round;stroke-miterlimit:10;" d="
				M403.218,268.743c0,3.1-2.513,5.613-5.613,5.613c-3.1,0-5.613-2.513-5.613-5.613c0-3.1,2.513-5.614,5.613-5.614
				C400.705,263.129,403.218,265.642,403.218,268.743z"/>
			<path style="fill:#FFFEFA;stroke:#0A1640;stroke-width:2;stroke-linecap:round;stroke-linejoin:round;stroke-miterlimit:10;" d="
				M461.155,385.932c0,3.1-2.513,5.613-5.613,5.613c-3.1,0-5.613-2.513-5.613-5.613c0-3.1,2.513-5.613,5.613-5.613
				C458.642,380.319,461.155,382.832,461.155,385.932z"/>
			
				<circle style="fill:#FFFEFA;stroke:#0A1640;stroke-width:2;stroke-linecap:round;stroke-linejoin:round;stroke-miterlimit:10;" cx="121.091" cy="192.025" r="5.614"/>
			
				<circle style="fill:#FFFEFA;stroke:#0A1640;stroke-width:2;stroke-linecap:round;stroke-linejoin:round;stroke-miterlimit:10;" cx="60.867" cy="61.669" r="5.614"/>
			<path style="fill:#FFFEFA;stroke:#0A1640;stroke-width:2;stroke-linecap:round;stroke-linejoin:round;stroke-miterlimit:10;" d="
				M174.107,54.738c0,3.1-2.513,5.613-5.613,5.613c-3.1,0-5.613-2.513-5.613-5.613c0-3.1,2.513-5.613,5.613-5.613
				C171.593,49.125,174.107,51.638,174.107,54.738z"/>
			<path style="fill:#FFFEFA;stroke:#0A1640;stroke-width:2;stroke-linecap:round;stroke-linejoin:round;stroke-miterlimit:10;" d="
				M305.577,450.632c0,3.1-2.513,5.613-5.613,5.613c-3.1,0-5.613-2.513-5.613-5.613c0-3.1,2.513-5.614,5.613-5.614
				C303.064,445.019,305.577,447.532,305.577,450.632z"/>
			
				<circle style="fill:#FFFEFA;stroke:#0A1640;stroke-width:2;stroke-linecap:round;stroke-linejoin:round;stroke-miterlimit:10;" cx="81.242" cy="447.472" r="5.614"/>
			<path style="fill:#FFFEFA;stroke:#0A1640;stroke-width:2;stroke-linecap:round;stroke-linejoin:round;stroke-miterlimit:10;" d="
				M259.263,344.383c0,3.1-2.513,5.613-5.614,5.613c-3.1,0-5.613-2.513-5.613-5.613c0-3.1,2.513-5.613,5.613-5.613
				C256.75,338.769,259.263,341.282,259.263,344.383z"/>
		</g>
	</g>
	<g>
		<defs>
			<rect id="SVGID_00000147902468691204066480000000056751660104063165_" width="500" height="500"/>
		</defs>
		<clipPath id="SVGID_00000021101241606282629530000009258299947459685822_">
			<use xlink:href="#SVGID_00000147902468691204066480000000056751660104063165_"  style="overflow:visible;"/>
		</clipPath>
		<g style="clip-path:url(#SVGID_00000021101241606282629530000009258299947459685822_);">
			<path style="fill:#FFFEFA;stroke:#0A1640;stroke-width:2;stroke-linecap:round;stroke-linejoin:round;stroke-miterlimit:10;" d="
				M424.487,106.975c-1.222-0.33-2.411-0.813-3.556-1.444c-3.968-2.189-6.876-6.41-7.589-11.017
				c-0.065-0.419-0.115-0.839-0.151-1.257c-2.136,2.16-4.233,3.786-6.376,4.947c-1.35,0.731-2.68,1.249-3.957,1.541
				c-1.338,0.303-2.573,0.385-3.671,0.246c-1.401-0.18-2.583-0.56-3.726-1.2c-0.943-0.531-1.811-1.258-2.508-2.106
				c-1.444-1.741-2.415-3.998-2.733-6.353c-0.153-1.123-0.203-2.274-0.15-3.419c0.071-1.514,0.323-3.047,0.75-4.556
				c0.773-2.723,2.109-5.372,3.865-7.661c1.618-2.117,3.544-3.996,5.74-5.6c-1.54-0.375-2.969-0.86-4.291-1.457
				c-2.742-1.235-5.017-2.757-6.955-4.652c-1.698-1.659-3.068-3.582-3.964-5.564c-0.984-2.184-1.459-4.322-1.409-6.355l0.008-0.235
				c0.096-2.056,0.737-3.948,1.809-5.333c0.757-0.975,1.579-1.718,2.587-2.339c0.847-0.517,1.864-0.914,2.942-1.147
				c2.282-0.489,4.798-0.309,7.732,0.473c1.365,0.377,2.737,0.885,4.198,1.554c0.309,0.141,0.61,0.283,0.903,0.424
				c-0.326-0.964-0.571-1.893-0.745-2.81c-0.268-1.441-0.371-2.833-0.311-4.141c0.043-0.935,0.172-1.858,0.382-2.742
				c0.523-2.188,1.734-4.298,3.412-5.941c1.669-1.635,3.861-2.919,6.173-3.615c1.942-0.585,3.942-0.66,5.879-0.078
				c3.446,0.965,5.7,3.631,6.989,5.713c0.764-1.698,1.477-3.015,2.265-4.198c1.121-1.682,2.228-2.94,3.39-3.846
				c1.588-1.251,3.169-1.997,4.7-2.218c1.039-0.149,1.904-0.162,2.723-0.041c0.948,0.139,1.963,0.316,2.953,0.668
				c1.799,0.641,3.317,1.622,4.39,2.838c1.082,1.231,1.86,2.756,2.251,4.41c0.295,1.241,0.41,2.595,0.344,4.024
				c-0.084,1.821-0.453,3.78-1.127,5.993c-0.482,1.592-1.116,3.258-1.886,4.955c-0.748,1.647-1.666,3.578-2.797,5.408
				c-0.025,0.039-0.048,0.078-0.072,0.116c0.366-0.178,0.74-0.351,1.123-0.518c1.478-0.645,2.567-1.385,3.62-2.1
				c2.099-1.424,4.082-2.769,8.3-2.556c6.257,0.312,10.573,3.204,12.835,8.59c0.876,2.087,1.382,4.037,1.503,5.796
				c0.616,8.927-8.503,11.822-16.268,13.094c0.336,0.221,0.668,0.444,0.995,0.679c2.934,2.124,5.129,4.483,6.524,7.013
				c0.669,1.199,1.143,2.424,1.409,3.636c0.214,0.977,0.302,1.895,0.264,2.73l0,0.001c-0.011,0.251-0.035,0.502-0.072,0.748
				c-0.215,1.453-0.614,2.585-1.256,3.56c-0.684,1.037-1.597,1.889-2.712,2.53c-2.074,1.186-4.69,1.44-7.773,0.754
				c-1.717-0.383-3.285-1.092-4.457-1.67c-1.496-0.737-2.975-1.654-4.518-2.805c-0.364-0.273-0.72-0.547-1.063-0.821
				c0.208,1.226,0.345,2.466,0.408,3.703c0.038,0.719,0.041,1.431,0.011,2.111c-0.03,0.642-0.093,1.263-0.185,1.847
				c-0.449,2.906-1.344,5.203-2.736,7.022c-1.448,1.892-3.238,3.31-5.176,4.1c-2.127,0.863-4.282,1.218-6.405,1.053
				C426.33,107.382,425.4,107.222,424.487,106.975z"/>
		</g>
		<g style="clip-path:url(#SVGID_00000021101241606282629530000009258299947459685822_);">
			<path style="fill:#FFFEFA;stroke:#0A1640;stroke-width:2;stroke-linecap:round;stroke-linejoin:round;stroke-miterlimit:10;" d="
				M58.161,411.438c-0.903,0-1.812-0.112-2.718-0.334c-3.141-0.771-5.929-3.139-7.277-6.18c-0.123-0.276-0.236-0.557-0.338-0.838
				c-1.07,1.885-2.213,3.396-3.473,4.594c-0.794,0.754-1.614,1.359-2.44,1.797c-0.865,0.458-1.701,0.744-2.484,0.852
				c-0.999,0.136-1.884,0.094-2.79-0.134c-0.749-0.191-1.481-0.53-2.12-0.985c-1.319-0.931-2.407-2.305-3.064-3.869
				c-0.314-0.746-0.562-1.529-0.739-2.328c-0.233-1.056-0.344-2.16-0.33-3.279c0.026-2.02,0.455-4.093,1.239-5.997
				c0.721-1.76,1.699-3.412,2.914-4.926c-1.131,0.028-2.205-0.041-3.227-0.206c-2.119-0.342-3.969-0.967-5.656-1.912
				c-1.478-0.827-2.779-1.898-3.765-3.097c-1.084-1.322-1.808-2.707-2.152-4.117l-0.038-0.164c-0.316-1.435-0.226-2.857,0.255-4.01
				c0.341-0.813,0.769-1.477,1.348-2.092c0.488-0.514,1.114-0.976,1.814-1.337c1.481-0.761,3.249-1.105,5.415-1.111
				c1.01,0.006,2.051,0.101,3.181,0.29c0.24,0.04,0.473,0.082,0.701,0.125c-0.404-0.603-0.745-1.198-1.035-1.798
				c-0.453-0.943-0.783-1.883-0.984-2.795c-0.144-0.652-0.227-1.312-0.246-1.96c-0.047-1.605,0.396-3.284,1.247-4.728
				c0.846-1.436,2.118-2.729,3.581-3.638c1.229-0.764,2.594-1.187,4.036-1.147c2.554,0.024,4.602,1.442,5.877,2.638
				c0.211-1.312,0.458-2.352,0.781-3.314c0.459-1.367,0.989-2.44,1.62-3.28c0.861-1.157,1.812-1.965,2.826-2.402
				c0.688-0.296,1.282-0.465,1.869-0.534c0.679-0.081,1.411-0.147,2.159-0.089c1.359,0.107,2.587,0.501,3.552,1.14
				c0.974,0.647,1.794,1.553,2.371,2.62c0.434,0.8,0.765,1.712,0.985,2.708c0.28,1.27,0.39,2.689,0.338,4.339
				c-0.036,1.186-0.164,2.452-0.379,3.764c-0.209,1.274-0.483,2.775-0.922,4.246c-0.01,0.031-0.019,0.062-0.028,0.093
				c0.219-0.191,0.445-0.38,0.677-0.565c0.898-0.719,1.512-1.432,2.104-2.12c1.182-1.371,2.298-2.667,5.244-3.304
				c4.369-0.948,7.88,0.242,10.44,3.533c0.992,1.275,1.702,2.525,2.113,3.714c2.084,6.036-3.661,9.725-8.774,12.046
				c0.273,0.09,0.543,0.182,0.812,0.283c2.416,0.918,4.367,2.135,5.798,3.619c0.684,0.702,1.238,1.458,1.647,2.243
				c0.329,0.634,0.561,1.25,0.689,1.832v0.001c0.039,0.175,0.069,0.352,0.09,0.529c0.122,1.041,0.057,1.895-0.203,2.686
				c-0.278,0.842-0.749,1.598-1.398,2.247c-1.209,1.203-2.964,1.864-5.215,1.964c-1.255,0.056-2.466-0.142-3.381-0.322
				c-1.168-0.23-2.357-0.587-3.634-1.093c-0.302-0.121-0.598-0.243-0.885-0.368c0.371,0.806,0.696,1.635,0.969,2.476
				c0.16,0.488,0.294,0.978,0.4,1.452c0.098,0.448,0.17,0.888,0.216,1.307c0.231,2.086,0.041,3.835-0.58,5.347
				c-0.646,1.573-1.616,2.883-2.804,3.787c-1.305,0.99-2.724,1.635-4.217,1.916C59.506,411.376,58.835,411.438,58.161,411.438z"/>
		</g>
		<g style="clip-path:url(#SVGID_00000021101241606282629530000009258299947459685822_);">
			<path style="fill:#FFFEFA;stroke:#0A1640;stroke-width:2;stroke-linecap:round;stroke-linejoin:round;stroke-miterlimit:10;" d="
				M446.648,489.665c-1.017,0-2.041-0.126-3.061-0.376c-3.537-0.868-6.677-3.534-8.194-6.959c-0.138-0.311-0.265-0.627-0.38-0.944
				c-1.206,2.123-2.492,3.824-3.911,5.173c-0.894,0.849-1.818,1.53-2.748,2.024c-0.974,0.515-1.916,0.837-2.797,0.959
				c-1.124,0.154-2.122,0.106-3.142-0.151c-0.843-0.215-1.668-0.597-2.387-1.109c-1.485-1.049-2.71-2.596-3.45-4.357
				c-0.354-0.84-0.634-1.722-0.832-2.622c-0.262-1.189-0.387-2.432-0.372-3.692c0.03-2.274,0.512-4.61,1.395-6.753
				c0.812-1.982,1.914-3.842,3.281-5.547c-1.273,0.032-2.483-0.046-3.634-0.232c-2.386-0.385-4.469-1.089-6.37-2.154
				c-1.665-0.932-3.13-2.137-4.24-3.487c-1.221-1.488-2.036-3.048-2.423-4.636l-0.043-0.184c-0.356-1.615-0.254-3.218,0.287-4.516
				c0.384-0.915,0.866-1.664,1.518-2.356c0.549-0.579,1.255-1.099,2.043-1.506c1.668-0.857,3.658-1.244,6.098-1.252
				c1.138,0.007,2.309,0.114,3.583,0.327c0.27,0.045,0.533,0.092,0.789,0.14c-0.455-0.68-0.84-1.349-1.166-2.024
				c-0.51-1.062-0.881-2.121-1.108-3.148c-0.162-0.734-0.255-1.477-0.277-2.207c-0.053-1.807,0.446-3.698,1.404-5.324
				c0.952-1.618,2.385-3.073,4.033-4.097c1.384-0.86,2.921-1.337,4.545-1.291c2.876,0.027,5.183,1.624,6.618,2.97
				c0.238-1.477,0.515-2.649,0.879-3.732c0.517-1.54,1.113-2.748,1.825-3.693c0.97-1.303,2.041-2.213,3.183-2.705
				c0.775-0.333,1.443-0.524,2.104-0.602c0.765-0.091,1.589-0.166,2.431-0.1c1.53,0.121,2.913,0.565,4,1.283
				c1.097,0.729,2.02,1.749,2.67,2.95c0.489,0.901,0.861,1.928,1.109,3.05c0.316,1.43,0.439,3.028,0.38,4.886
				c-0.041,1.336-0.184,2.762-0.426,4.239c-0.236,1.435-0.543,3.124-1.038,4.782c-0.011,0.035-0.021,0.07-0.032,0.105
				c0.247-0.215,0.501-0.428,0.763-0.637c1.012-0.81,1.702-1.612,2.37-2.387c1.331-1.544,2.588-3.003,5.905-3.721
				c4.92-1.067,8.874,0.273,11.756,3.978c1.117,1.436,1.917,2.843,2.379,4.182c2.346,6.797-4.123,10.952-9.881,13.565
				c0.307,0.101,0.612,0.205,0.914,0.319c2.721,1.033,4.918,2.405,6.53,4.076c0.77,0.79,1.394,1.642,1.854,2.526
				c0.371,0.713,0.631,1.407,0.776,2.063v0.001c0.044,0.197,0.078,0.397,0.101,0.595c0.137,1.173,0.065,2.134-0.229,3.025
				c-0.313,0.948-0.844,1.8-1.575,2.531c-1.361,1.354-3.337,2.099-5.873,2.212c-1.413,0.062-2.777-0.16-3.807-0.363
				c-1.315-0.259-2.654-0.661-4.092-1.231c-0.34-0.136-0.673-0.274-0.996-0.414c0.418,0.907,0.784,1.841,1.091,2.788
				c0.18,0.55,0.331,1.102,0.451,1.635c0.111,0.504,0.192,0.999,0.243,1.472c0.26,2.349,0.046,4.318-0.653,6.021
				c-0.728,1.771-1.819,3.246-3.158,4.264c-1.47,1.115-3.068,1.841-4.749,2.158C448.163,489.595,447.407,489.665,446.648,489.665z"
				/>
		</g>
	</g>
	<g>
		<defs>
			<rect id="SVGID_00000139972873096164544490000011389845203936674491_" width="500" height="500"/>
		</defs>
		<clipPath id="SVGID_00000147219287159380186860000009161788430013207980_">
			<use xlink:href="#SVGID_00000139972873096164544490000011389845203936674491_"  style="overflow:visible;"/>
		</clipPath>
		<g style="clip-path:url(#SVGID_00000147219287159380186860000009161788430013207980_);">
			<g>
				<g>
					<path style="fill:none;stroke:#0A1640;stroke-width:2;stroke-linecap:round;stroke-linejoin:round;stroke-miterlimit:10;" d="
						M328.598,488.38c0,0,36.094,12.712,32.926-5.672C358.357,464.324,328.598,488.38,328.598,488.38z"/>
					<path style="fill:none;stroke:#0A1640;stroke-width:2;stroke-linecap:round;stroke-linejoin:round;stroke-miterlimit:10;" d="
						M328.598,488.38c0,0,12.712-36.093-5.672-32.927C304.542,458.621,328.598,488.38,328.598,488.38z"/>
				</g>
				<g>
					<path style="fill:none;stroke:#0A1640;stroke-width:2;stroke-linecap:round;stroke-linejoin:round;stroke-miterlimit:10;" d="
						M343.766,469.053c0,0,36.093,12.712,32.926-5.672C373.526,444.997,343.766,469.053,343.766,469.053z"/>
					<path style="fill:none;stroke:#0A1640;stroke-width:2;stroke-linecap:round;stroke-linejoin:round;stroke-miterlimit:10;" d="
						M343.766,469.053c0,0,12.712-36.093-5.672-32.926S343.766,469.053,343.766,469.053z"/>
				</g>
				<g>
					<path style="fill:none;stroke:#0A1640;stroke-width:2;stroke-linecap:round;stroke-linejoin:round;stroke-miterlimit:10;" d="
						M358.934,449.726c0,0,36.093,12.712,32.927-5.672C388.694,425.67,358.934,449.726,358.934,449.726z"/>
					<path style="fill:none;stroke:#0A1640;stroke-width:2;stroke-linecap:round;stroke-linejoin:round;stroke-miterlimit:10;" d="
						M358.934,449.726c0,0,12.712-36.093-5.672-32.927S358.934,449.726,358.934,449.726z"/>
				</g>
				<path style="fill:none;stroke:#0A1640;stroke-width:2;stroke-linecap:round;stroke-linejoin:round;stroke-miterlimit:10;" d="
					M370.371,431.831c-23.094,37.762-55.371,74.049-84.462,107.35"/>
			</g>
			<g>
				<g>
					<path style="fill:none;stroke:#0A1640;stroke-width:2;stroke-linecap:round;stroke-linejoin:round;stroke-miterlimit:10;" d="
						M22.469,259.639c0,0-15.531-35.294,3.406-33.25C44.811,228.434,22.469,259.639,22.469,259.639z"/>
					<path style="fill:none;stroke:#0A1640;stroke-width:2;stroke-linecap:round;stroke-linejoin:round;stroke-miterlimit:10;" d="
						M22.469,259.639c0,0,35.818-14.903,33.916,3.661C54.483,281.865,22.469,259.639,22.469,259.639z"/>
				</g>
				<g>
					<path style="fill:none;stroke:#0A1640;stroke-width:2;stroke-linecap:round;stroke-linejoin:round;stroke-miterlimit:10;" d="
						M41.047,243.303c0,0-15.531-35.294,3.406-33.25C63.389,212.098,41.047,243.303,41.047,243.303z"/>
					<path style="fill:none;stroke:#0A1640;stroke-width:2;stroke-linecap:round;stroke-linejoin:round;stroke-miterlimit:10;" d="
						M41.047,243.303c0,0,35.818-14.903,33.916,3.661C73.062,265.529,41.047,243.303,41.047,243.303z"/>
				</g>
				<g>
					<path style="fill:none;stroke:#0A1640;stroke-width:2;stroke-linecap:round;stroke-linejoin:round;stroke-miterlimit:10;" d="
						M59.625,226.967c0,0-15.531-35.294,3.406-33.25C81.968,195.762,59.625,226.967,59.625,226.967z"/>
					<path style="fill:none;stroke:#0A1640;stroke-width:2;stroke-linecap:round;stroke-linejoin:round;stroke-miterlimit:10;" d="
						M59.625,226.967c0,0,35.818-14.903,33.916,3.661C91.64,249.193,59.625,226.967,59.625,226.967z"/>
				</g>
				<g>
					<path style="fill:none;stroke:#0A1640;stroke-width:2;stroke-linecap:round;stroke-linejoin:round;stroke-miterlimit:10;" d="
						M78.204,210.631c0,0-15.531-35.294,3.406-33.25C100.546,179.426,78.204,210.631,78.204,210.631z"/>
					<path style="fill:none;stroke:#0A1640;stroke-width:2;stroke-linecap:round;stroke-linejoin:round;stroke-miterlimit:10;" d="
						M78.204,210.631c0,0,35.818-14.903,33.916,3.661C110.218,232.857,78.204,210.631,78.204,210.631z"/>
				</g>
				<path style="fill:none;stroke:#0A1640;stroke-width:2;stroke-linecap:round;stroke-linejoin:round;stroke-miterlimit:10;" d="
					M95.594,198.112c-36.769,25.38-71.378,59.847-103.177,90.947"/>
			</g>
			<g>
				<g>
					<path style="fill:none;stroke:#0A1640;stroke-width:2;stroke-linecap:round;stroke-linejoin:round;stroke-miterlimit:10;" d="
						M493.316,266.845c0,0-29.913,24.333-32.963,5.532C457.303,253.576,493.316,266.845,493.316,266.845z"/>
					<path style="fill:none;stroke:#0A1640;stroke-width:2;stroke-linecap:round;stroke-linejoin:round;stroke-miterlimit:10;" d="
						M493.316,266.845c0,0-23.867-30.584-5.462-33.673C506.257,230.083,493.316,266.845,493.316,266.845z"/>
				</g>
				<g>
					<path style="fill:none;stroke:#0A1640;stroke-width:2;stroke-linecap:round;stroke-linejoin:round;stroke-miterlimit:10;" d="
						M472.638,253.262c0,0-29.913,24.333-32.963,5.532C436.626,239.994,472.638,253.262,472.638,253.262z"/>
					<path style="fill:none;stroke:#0A1640;stroke-width:2;stroke-linecap:round;stroke-linejoin:round;stroke-miterlimit:10;" d="
						M472.638,253.262c0,0-23.867-30.584-5.462-33.673C485.58,216.501,472.638,253.262,472.638,253.262z"/>
				</g>
				<g>
					<path style="fill:none;stroke:#0A1640;stroke-width:2;stroke-linecap:round;stroke-linejoin:round;stroke-miterlimit:10;" d="
						M451.961,239.68c0,0-29.913,24.333-32.963,5.532C415.948,226.412,451.961,239.68,451.961,239.68z"/>
					<path style="fill:none;stroke:#0A1640;stroke-width:2;stroke-linecap:round;stroke-linejoin:round;stroke-miterlimit:10;" d="
						M451.961,239.68c0,0-23.867-30.584-5.462-33.673C464.903,202.919,451.961,239.68,451.961,239.68z"/>
				</g>
				<g>
					<path style="fill:none;stroke:#0A1640;stroke-width:2;stroke-linecap:round;stroke-linejoin:round;stroke-miterlimit:10;" d="
						M431.283,226.098c0,0-29.913,24.333-32.963,5.532C395.271,212.83,431.283,226.098,431.283,226.098z"/>
					<path style="fill:none;stroke:#0A1640;stroke-width:2;stroke-linecap:round;stroke-linejoin:round;stroke-miterlimit:10;" d="
						M431.283,226.098c0,0-23.867-30.584-5.462-33.673C444.225,189.337,431.283,226.098,431.283,226.098z"/>
				</g>
				<path style="fill:none;stroke:#0A1640;stroke-width:2;stroke-linecap:round;stroke-linejoin:round;stroke-miterlimit:10;" d="
					M414.601,212.65c34.221,28.724,76.63,52.955,115.049,75.37"/>
			</g>
			<g>
				<g>
					<path style="fill:none;stroke:#0A1640;stroke-width:2;stroke-linecap:round;stroke-linejoin:round;stroke-miterlimit:10;" d="
						M223.777,18.906c0,0,36.464-12.54,32.851,6.161C253.015,43.767,223.777,18.906,223.777,18.906z"/>
					<path style="fill:none;stroke:#0A1640;stroke-width:2;stroke-linecap:round;stroke-linejoin:round;stroke-miterlimit:10;" d="
						M223.777,18.906c0,0,11.871,36.934-6.471,33.494S223.777,18.906,223.777,18.906z"/>
				</g>
				<g>
					<path style="fill:none;stroke:#0A1640;stroke-width:2;stroke-linecap:round;stroke-linejoin:round;stroke-miterlimit:10;" d="
						M238.51,38.779c0,0,36.464-12.54,32.851,6.161S238.51,38.779,238.51,38.779z"/>
					<path style="fill:none;stroke:#0A1640;stroke-width:2;stroke-linecap:round;stroke-linejoin:round;stroke-miterlimit:10;" d="
						M238.51,38.779c0,0,11.871,36.934-6.471,33.494C213.697,68.833,238.51,38.779,238.51,38.779z"/>
				</g>
				<g>
					<path style="fill:none;stroke:#0A1640;stroke-width:2;stroke-linecap:round;stroke-linejoin:round;stroke-miterlimit:10;" d="
						M253.243,58.653c0,0,36.464-12.54,32.851,6.161C282.482,83.514,253.243,58.653,253.243,58.653z"/>
					<path style="fill:none;stroke:#0A1640;stroke-width:2;stroke-linecap:round;stroke-linejoin:round;stroke-miterlimit:10;" d="
						M253.243,58.653c0,0,11.871,36.934-6.471,33.494C228.431,88.707,253.243,58.653,253.243,58.653z"/>
				</g>
				<g>
					<path style="fill:none;stroke:#0A1640;stroke-width:2;stroke-linecap:round;stroke-linejoin:round;stroke-miterlimit:10;" d="
						M267.977,78.526c0,0,36.464-12.54,32.851,6.161S267.977,78.526,267.977,78.526z"/>
					<path style="fill:none;stroke:#0A1640;stroke-width:2;stroke-linecap:round;stroke-linejoin:round;stroke-miterlimit:10;" d="
						M267.977,78.526c0,0,11.871,36.934-6.471,33.494C243.164,108.58,267.977,78.526,267.977,78.526z"/>
				</g>
				<path style="fill:none;stroke:#0A1640;stroke-width:2;stroke-linecap:round;stroke-linejoin:round;stroke-miterlimit:10;" d="
					M279.006,96.897c-22.232-38.754-53.699-76.11-82.046-110.387"/>
			</g>
		</g>
	</g>
</g>
</svg>
