<?xml version="1.0" encoding="utf-8"?>
<!-- Generator: Adobe Illustrator 27.5.0, SVG Export Plug-In . SVG Version: 6.00 Build 0)  -->
<svg xmlns="http://www.w3.org/2000/svg" xmlns:xlink="http://www.w3.org/1999/xlink" viewBox="0 0 492 492" width="595" height="842" preserveAspectRatio="xMidYMid meet" data-scaled="true">
<g>
	<g>
		<path d="M192.4,483.4c-3.7,0-7.7-0.6-12-1.9c-15.3-4.7-33.3-18.5-58.4-44.9c-65.4-68.7-68.6-171.3-34.2-227
			c22.4-36.3,58-50.1,97.6-37.9c3.7,1.1,7.1,2.2,10.3,3.3l0.2,0.1c16.3,5.3,26.2,8.5,50.3,8.5c0.5,0,0.9,0,1.4,0
			c0.3-2.4,0.6-4.9,0.9-7.2c-10.1-7.3-15.9-16.5-18.5-21.6c-51.5-6.5-79.8-10.1-98.2-28.2c-18.1-17.9-23.8-47.5-29.6-107
			c-0.3-3.5,1.4-6.8,4.5-8.5c3.1-1.7,6.9-1.3,9.6,0.9c19.3,15.8,40.1,18.4,60.3,20.8c20.4,2.5,39.6,4.8,52.9,21.1
			c13.6,16.6,18.1,44.5,14.7,90.3c0.6,1.5,3.1,6.8,7.9,12.2c8.4-36.7,24.8-61.4,48.9-73.6c4.3-2.2,9.5-0.5,11.7,3.8
			c1.1,2.1,1.2,4.4,0.5,6.6c-0.7,2.2-2.3,4-4.3,5c-21.9,11.1-36.1,36.3-42.2,74.9c0,0.3-0.1,0.6-0.2,1c-0.4,2.7-0.8,5.6-1.2,8.6
			c11.8-1.3,20-3.9,31.2-7.6c3.2-1,6.6-2.1,10.5-3.3c39.6-12.2,75.2,1.6,97.6,37.9l0,0c34.5,55.7,31.2,158.3-34.2,227
			c-25.1,26.4-43.1,40.2-58.4,44.9c-4.1,1.3-8,1.9-12,1.9c-9.7,0-17.5-3.8-25-7.5c-8.1-4-16.5-8.1-28.9-8.1
			c-12.4,0-20.7,4.1-28.8,8.1C209.8,479.6,202.1,483.4,192.4,483.4z M246.3,465.8c12.8,0,21.4,4.2,29.7,8.3
			c7.3,3.6,14.9,7.3,24.1,7.3c3.7,0,7.4-0.6,11.4-1.8c14.9-4.5,32.7-18.2,57.5-44.3c64.7-68,68-169.5,33.9-224.6
			c-21.9-35.4-56.7-48.9-95.4-37c-3.9,1.2-7.3,2.3-10.5,3.3c-11.7,3.8-20.2,6.5-32.9,7.8c-0.3,0-0.6-0.1-0.8-0.3
			c-0.2-0.2-0.3-0.5-0.3-0.8c0.4-3.4,0.8-6.8,1.3-10c0.1-0.3,0.1-0.6,0.1-0.9c6.2-39.3,20.8-65,43.3-76.4c1.6-0.8,2.8-2.2,3.3-3.9
			c0.6-1.7,0.4-3.5-0.4-5.1c-1.7-3.3-5.7-4.6-9-2.9c-23.9,12.1-40.1,37.1-48.2,74.1c-0.1,0.4-0.3,0.6-0.7,0.7c-0.4,0.1-0.7,0-1-0.3
			c-6.3-6.4-9.2-13.1-9.7-14.4c-0.1-0.1-0.1-0.3-0.1-0.5c3.5-45.4-0.9-72.9-14.2-89.1c-12.8-15.7-31.7-18-51.6-20.4
			c-20.4-2.5-41.5-5-61.3-21.2c-2.1-1.7-5-2-7.4-0.7s-3.8,3.8-3.5,6.5c5.8,59,11.4,88.2,29,105.7c17.9,17.7,46,21.2,97.1,27.7
			l0.5,0.1c0.3,0,0.6,0.2,0.8,0.5c2.5,5,8.3,14.4,18.6,21.7c0.3,0.2,0.5,0.6,0.4,1c-0.4,2.8-0.7,5.7-1,8.7c-0.1,0.5-0.5,0.9-1,0.9
			c-0.8,0-1.5,0-2.3,0c-24.4,0-34.4-3.2-50.9-8.6l-0.2-0.1c-3.2-1-6.5-2.1-10.3-3.3c-38.7-11.9-73.4,1.6-95.4,37
			c-34.1,55-30.8,156.5,33.9,224.6c24.8,26.1,42.6,39.8,57.5,44.3c15,4.6,25.4-0.6,35.5-5.5C224.8,470.1,233.5,465.8,246.3,465.8z
			 M192.4,468.1c-2.3,0-4.8-0.4-7.5-1.2c-12.3-3.7-29.2-17.1-51.7-40.8c-27.6-29-45.5-67.6-50.4-108.8c-4.4-37.5,2.2-73.8,18.1-99.6
			c18.8-30.3,47.2-41.4,80.1-31.3c3.5,1.1,6.6,2.1,9.6,3.1l0.7,0.2c16.5,5.4,28.5,9.2,55,9.2h1.1l0,0c0.3,0,0.5,0.1,0.7,0.3
			c0.2,0.2,0.3,0.5,0.3,0.7c-0.6,12.9-0.3,24,0,31.1c0,0.3-0.1,0.7-0.4,0.9c-0.3,0.2-0.6,0.2-1,0.1c-6-2.6-10.9-6.3-14.3-10.8
			c-2.2-3-6.4-3.6-9.4-1.4s-3.6,6.4-1.4,9.4c9.4,12.7,26,20.3,44.3,20.3c8.8,0,17.6-1.9,25.4-5.4c1.6-0.7,2.9-2.1,3.5-3.7
			c0.6-1.7,0.6-3.5-0.1-5.1c-1.5-3.4-5.5-4.9-8.8-3.4c-7,3.1-15,4.5-23.2,3.9c-0.5,0-0.9-0.4-0.9-0.9c-0.4-6.5-1-19.9-0.2-35.6
			c0-0.5,0.4-0.9,0.9-0.9c15.8-1.3,25.8-4.5,38.4-8.6l0.7-0.2c3-1,6.1-2,9.6-3c32.9-10.1,61.3,1,80.1,31.3
			c16,25.8,22.6,62.1,18.1,99.6c-4.9,41.1-22.8,79.8-50.4,108.8c-22.6,23.7-39.5,37-51.7,40.8c-9.9,3-16.2-0.1-25.7-4.7
			c-8.8-4.3-19.7-9.7-35.7-9.7c-15.9,0-26.8,5.3-35.6,9.6C203.8,465.5,198.5,468.1,192.4,468.1z M158.1,184.9
			c-22.4,0-41.7,11.6-55.5,33.9c-15.7,25.4-22.2,61.2-17.8,98.3c4.8,40.7,22.5,78.9,49.8,107.6c22.3,23.4,38.9,36.6,50.9,40.2
			c9.2,2.8,15.2-0.2,24.3-4.6c9-4.4,20.2-9.9,36.5-9.9c16.4,0,27.5,5.5,36.5,9.9c9.1,4.5,15.1,7.4,24.3,4.6
			c11.9-3.6,28.6-16.8,50.9-40.2l0,0c27.3-28.7,45-66.9,49.8-107.6c4.4-37-2.1-72.9-17.8-98.3c-18.2-29.4-45.8-40.2-77.8-30.4
			c-3.4,1.1-6.5,2.1-9.5,3l-0.7,0.2c-12.5,4.1-22.5,7.3-38,8.6c-0.7,14.6-0.2,27,0.2,33.6c7.6,0.4,15-0.9,21.4-3.8
			c4.4-2,9.5,0,11.5,4.4c1,2.1,1,4.5,0.2,6.6c-0.8,2.2-2.4,3.9-4.6,4.8c-8.1,3.6-17.1,5.5-26.2,5.5c-18.9,0-36.1-7.9-45.9-21.1
			c-2.9-3.8-2.1-9.3,1.8-12.1c3.8-2.9,9.3-2.1,12.1,1.8c2.9,3.8,7,7.1,12,9.5c-0.3-6.9-0.5-17,0-28.6h-0.1
			c-26.9,0-38.9-3.9-55.6-9.3l-0.7-0.2c-3-1-6.1-2-9.6-3C172.7,186.1,165.2,184.9,158.1,184.9z M358.7,425.4L358.7,425.4
			L358.7,425.4z M216.7,137.6h-0.1c-37-4.8-60.5-8.7-73.9-21.9c-13.6-13.5-18.9-40-23.4-81.2c0-0.4,0.1-0.7,0.4-0.9
			c0.3-0.2,0.7-0.2,1,0C139.1,43.8,158,46,174.8,48.1c18.7,2.3,33.4,4,42.9,15.6c9.2,11.2,13.1,31.9,12.1,63.3
			c0,0.4-0.3,0.8-0.7,0.9c-0.4,0.1-0.8,0-1.1-0.3c-5.3-5.9-10.9-11.8-16.6-17.3c-0.3-0.3-0.4-0.7-0.2-1.1c2-4.8,7.9-21.3,2.3-34.4
			c-2.8-6.5-8.2-11.3-15.5-13.7c-1.7-0.6-3.5-0.4-5.1,0.4c-1.6,0.8-2.8,2.2-3.4,3.9c-0.6,1.7-0.4,3.5,0.4,5.1
			c0.8,1.6,2.2,2.8,3.9,3.4c3.8,1.3,6.1,3.3,7.5,6.3c2.4,5.5,1.1,13.1-0.4,18.4c-0.1,0.3-0.3,0.6-0.7,0.7c-0.3,0.1-0.7,0-0.9-0.2
			c-5.8-5.1-11.8-9.8-17.6-14.1c-0.3-0.2-0.4-0.5-0.4-0.8c0.2-7.2-0.4-20.5-6.9-28.6c-1.1-1.4-2.7-2.3-4.5-2.4
			c-1.8-0.2-3.5,0.3-4.9,1.4c-1.4,1.1-2.3,2.7-2.4,4.5c-0.2,1.8,0.3,3.5,1.4,4.9c1.6,2,2.7,5.2,3.4,9.5c0.1,0.4-0.1,0.8-0.4,1
			s-0.7,0.2-1.1,0c-7.5-4.5-15-8.2-22.2-11.1c-3.4-1.4-7.3,0.3-8.7,3.7c-0.7,1.7-0.7,3.5,0,5.1c0.7,1.6,2,2.9,3.7,3.6
			c6,2.4,12.1,5.5,18.4,9.1c0.4,0.2,0.6,0.6,0.5,1c-0.1,0.4-0.4,0.7-0.8,0.8c-4,0.8-7.5,1.1-10.4,0.8c-3.7-0.3-6.9,2.5-7.2,6.1
			c-0.3,3.7,2.5,6.9,6.1,7.2c1,0.1,2,0.1,3.1,0.1c9.5,0,19.5-3.2,24.6-5.1c0.3-0.1,0.7-0.1,0.9,0.1c3.1,2.3,6.3,4.8,9.4,7.3
			c0.3,0.3,0.4,0.7,0.3,1.1c-0.1,0.4-0.4,0.7-0.8,0.7c-8,1-13.8,1.1-17.2,0.4c-1.8-0.3-3.5,0-5,1s-2.5,2.5-2.8,4.3
			c-0.7,3.6,1.7,7.1,5.3,7.8c2.2,0.4,4.8,0.6,8,0.6c8.7,0,19.3-1.6,26.6-2.9c0.3-0.1,0.6,0,0.9,0.3c6.5,6.1,13,12.7,19.1,19.5
			c0.3,0.3,0.3,0.8,0.1,1.1C217.4,137.4,217.1,137.6,216.7,137.6z M121.4,36.2c4.4,39.7,9.7,65.2,22.6,78c12.6,12.5,35,16.4,70.1,21
			c-5.4-5.9-11.1-11.7-16.8-17c-7.4,1.3-17.8,2.9-26.4,2.9c-3.2,0-6-0.2-8.3-0.7c-4.7-0.9-7.8-5.5-6.9-10.2c0.4-2.3,1.7-4.2,3.6-5.6
			c1.9-1.3,4.2-1.8,6.5-1.3c2.9,0.6,7.8,0.5,14.2-0.2c-2.4-1.9-4.7-3.7-7.1-5.4c-5.4,2-15.3,5.1-24.8,5.1c-1.1,0-2.2,0-3.2-0.1
			c-4.8-0.4-8.3-4.6-8-9.3c0.4-4.8,4.6-8.3,9.3-8c2.1,0.2,4.5,0.1,7.2-0.3c-5.3-3-10.6-5.5-15.7-7.6c-2.2-0.9-3.8-2.5-4.8-4.6
			c-0.9-2.1-0.9-4.5-0.1-6.6c1.8-4.4,6.8-6.6,11.3-4.8c6.7,2.7,13.6,6.1,20.6,10.2c-0.6-2.9-1.5-5.1-2.6-6.4
			c-1.5-1.8-2.1-4.1-1.9-6.4c0.2-2.3,1.4-4.4,3.2-5.8c1.8-1.5,4.1-2.1,6.4-1.9s4.4,1.4,5.8,3.2c6.8,8.4,7.5,21.8,7.4,29.4
			c5.4,3.9,10.8,8.2,16.1,12.9c1.1-4.3,2.1-10.9,0.1-15.6c-1.1-2.5-3.1-4.2-6.3-5.3c-2.2-0.7-4-2.3-5-4.4s-1.2-4.4-0.5-6.6
			c0.7-2.2,2.3-4,4.4-5c2.1-1,4.4-1.2,6.6-0.5c7.9,2.6,13.7,7.8,16.7,14.8c5.7,13.3,0.2,29.7-2,35.3c5,4.8,9.8,9.9,14.5,15.1
			c0.7-29.5-3.1-49-11.7-59.5c-8.9-10.9-23.3-12.6-41.6-14.9C158.1,48.1,139.6,45.8,121.4,36.2z"/>
	</g>
	<g>
		<path d="M115,365.8c-3.6,0-6.8-2.2-8.1-5.5c-9.4-24.2-13.6-56.8-11-85.2c3.4-36.9,17.5-62.6,40.7-74.2c11.8-5.9,25.4-6.5,40.4-1.9
			l0,0c2.2,0.7,4,2.2,5.1,4.2c1.1,2.1,1.3,4.4,0.6,6.6c-1.4,4.6-6.3,7.2-10.9,5.7c-10.8-3.3-19.8-3.1-27.6,0.8
			C103.3,237,108.7,316.9,123.1,354c0.8,2.2,0.8,4.5-0.1,6.6s-2.6,3.8-4.8,4.6C117.1,365.6,116.1,365.8,115,365.8z M158.1,198
			c-7.4,0-14.2,1.6-20.5,4.7C115,214,101.3,239.1,98,275.3c-2.6,28.1,1.6,60.4,10.8,84.3c1,2.6,3.4,4.3,6.2,4.3
			c0.8,0,1.6-0.2,2.4-0.5c1.7-0.6,3-1.9,3.7-3.5c0.7-1.6,0.8-3.4,0.1-5.1c-14.6-37.7-19.9-119,22.3-140c8.2-4.1,17.7-4.4,29.1-0.9
			c3.5,1.1,7.3-0.9,8.4-4.4s-0.9-7.3-4.4-8.3C170.1,199,163.9,198,158.1,198z"/>
	</g>
	<g>
		<path d="M300.4,454.9c-1.1,0-2.1-0.1-3.2-0.5c-2.2-0.6-4.1-2.1-5.2-4.1s-1.4-4.4-0.8-6.6c1.1-4,4.9-6.6,8.9-6.3
			c5.8-2.2,24.3-18.7,37.2-32.3c28.9-30.4,44.7-72.5,43.2-115.5c-0.2-4.8,3.6-8.8,8.4-9c2.3-0.1,4.5,0.7,6.2,2.3
			c1.7,1.6,2.7,3.7,2.8,6.1c1.6,47.7-15.9,94.4-48,128.1c-2.7,2.9-11.9,12.1-21.3,20.5C314.7,449.9,306.6,454.9,300.4,454.9z
			 M299.5,439.4c-2.9,0-5.6,2-6.4,4.9c-0.5,1.7-0.3,3.5,0.6,5.1c0.9,1.6,2.3,2.7,4,3.2c0.9,0.3,1.8,0.4,2.7,0.4
			c5.6,0,13.6-5,26.9-16.8c9.4-8.3,18.5-17.5,21.2-20.4c31.7-33.3,49-79.5,47.4-126.6c-0.1-1.8-0.8-3.4-2.1-4.7
			c-1.3-1.2-3-1.8-4.8-1.8l0,0c-1.8,0.1-3.4,0.8-4.7,2.1c-1.3,1.3-1.9,3-1.8,4.8c1.5,43.6-14.5,86.2-43.8,117
			c-13.3,13.9-32.2,30.9-38.2,32.9c-0.1,0-0.3,0.1-0.4,0C299.9,439.4,299.7,439.4,299.5,439.4z M388.9,281.6L388.9,281.6
			L388.9,281.6z"/>
	</g>
</g>
</svg>
