<?xml version="1.0" encoding="utf-8"?>
<!-- Generator: Adobe Illustrator 27.5.0, SVG Export Plug-In . SVG Version: 6.00 Build 0)  -->
<svg xmlns="http://www.w3.org/2000/svg" xmlns:xlink="http://www.w3.org/1999/xlink" viewBox="0 0 4242.826 3000" width="595" height="842" preserveAspectRatio="xMidYMid meet" data-scaled="true">
<g>
	<g>
		<rect x="0" style="fill:#FFFFFF;" width="4242.826" height="3000"/>
	</g>
	<g>
		<rect x="2708.829" y="431.35" width="5.296" height="2137.28"/>
	</g>
	<g>
		<rect x="2711.541" y="1582.291" width="1269.498" height="5.04"/>
	</g>
	<g>
		
			<ellipse transform="matrix(0.7071 -0.7071 0.7071 0.7071 -769.6422 2849.583)" style="fill:#F34026;" cx="3054.93" cy="2353.832" rx="104.064" ry="104.064"/>
	</g>
	<g>
		
			<ellipse transform="matrix(0.7071 -0.7071 0.7071 0.7071 -313.2279 3199.3821)" style="fill:#577F1E;" cx="3705.382" cy="1977.791" rx="104.064" ry="104.064"/>
	</g>
	<g>
		<circle style="fill:#FFFEE6;" cx="3380.156" cy="1977.791" r="104.064"/>
		<path d="M3380.155,2084.375c-58.768,0-106.581-47.813-106.581-106.585c0-58.773,47.813-106.585,106.581-106.585
			c58.773,0,106.585,47.813,106.585,106.585C3486.74,2036.563,3438.928,2084.375,3380.155,2084.375z M3380.155,1876.244
			c-55.992,0-101.541,45.553-101.541,101.546c0,55.992,45.548,101.546,101.541,101.546c55.992,0,101.546-45.554,101.546-101.546
			C3481.701,1921.798,3436.147,1876.244,3380.155,1876.244z"/>
	</g>
	<g>
		
			<ellipse transform="matrix(0.9993 -0.0384 0.0384 0.9993 -73.6528 118.5479)" style="fill:#FFF2AC;" cx="3051.12" cy="1977.791" rx="104.064" ry="104.064"/>
	</g>
	<g>
		<circle style="fill:#E42722;" cx="3380.156" cy="2353.832" r="104.064"/>
	</g>
	<g>
		
			<ellipse transform="matrix(0.1602 -0.9871 0.9871 0.1602 788.407 5634.3252)" style="fill:#5C2A03;" cx="3705.382" cy="2353.832" rx="104.064" ry="104.064"/>
	</g>
	<g>
		<g>
			<g>
				<path d="M989.518,2489.782c-26.168,0-52.185-1.226-77.94-3.706c-67.641-6.511-414.53-54.373-601.391-358.007
					c-66.967-108.815-102.702-232.454-106.212-367.476c-2.83-108.825,16.012-195.089,25.066-236.543
					c19.253-88.167,59.317-271.626,222.844-414.533c83.942-73.353,186.056-122.61,303.513-146.406
					c3.394-0.694,6.735,1.513,7.424,4.924c0.691,3.408-1.513,6.732-4.924,7.424c-115.282,23.355-215.45,71.65-297.72,143.546
					c-160.397,140.17-199.863,320.884-218.829,407.732c-18.557,84.965-75.026,343.528,79.566,594.728
					c183.735,298.555,525.27,345.659,591.868,352.071c170.878,16.438,353.526-23.042,514.285-111.187
					c3.054-1.668,6.878-0.556,8.553,2.495c1.671,3.046,0.556,6.875-2.495,8.549
					C1294.379,2449.469,1139.489,2489.782,989.518,2489.782z"/>
			</g>
		</g>
		<g>
			<g>
				<path d="M846.119,962.447c-3.209,0-5.95-2.439-6.263-5.697c-0.332-3.465,2.205-6.54,5.667-6.872
					c38.799-3.728,72.716-4.715,99.966-5.51c24.499-0.711,64.095-0.529,113.709,4.424c3.463,0.345,5.99,3.43,5.643,6.893
					c-0.345,3.462-3.47,6.002-6.893,5.642c-48.947-4.884-87.977-5.066-112.09-4.365c-27.066,0.788-60.749,1.769-99.129,5.455
					C846.525,962.437,846.321,962.447,846.119,962.447z"/>
			</g>
		</g>
		<g>
			<g>
				<path d="M1648.591,1300.713c-2.234,0-4.4-1.191-5.542-3.292c-35.243-64.891-79.074-118.489-130.27-159.305
					c-25.139-20.043-51.994-38.765-79.817-55.645c-2.975-1.806-3.922-5.679-2.119-8.655c1.809-2.975,5.687-3.922,8.655-2.119
					c28.281,17.159,55.579,36.191,81.136,56.566c52.523,41.875,97.434,96.762,133.489,163.144c1.658,3.058,0.527,6.883-2.53,8.544
					C1650.639,1300.467,1649.608,1300.713,1648.591,1300.713z"/>
			</g>
		</g>
		<g>
			<g>
				<path d="M645.483,2153.474c-47.943,0-120.954-30.489-189.191-97.987c-73.742-72.947-230.551-282.161-94.387-648.542l0,0
					l1.912-5.217c12.304-33.779,49.742-136.565,137.471-216.936c83.439-76.436,221.609-129.547,274.675-83.467
					c4.732,4.107,10.202,7.754,15.992,11.612c25.627,17.078,57.521,38.331,57.565,121.486c0.02,35.713,18.94,61.984,32.593,67.221
					c21.438,8.224,40.671,0.842,57.638-5.667c13.074-5.02,24.371-9.354,34.367-5.296c12.813,5.204,19.856,12.151,21.524,21.239
					c3.913,21.283-24.194,47.424-66.739,86.995c-63.458,59.024-159.357,148.222-198.539,274.233
					c-70.57,226.946-51.172,344.212-40.75,407.207c6.058,36.616,9.715,58.719-15.771,68.507
					C665.905,2151.909,656.335,2153.474,645.483,2153.474z M373.716,1411.334c-133.61,359.495,19.435,563.97,91.437,635.194
					c77.024,76.195,164.31,105.892,204.172,90.571c15.22-5.842,14.098-16.974,7.86-54.688
					c-10.591-64.024-30.31-183.204,41.146-413.005c40.182-129.21,137.557-219.786,201.992-279.718
					c35.196-32.735,65.589-61.007,62.929-75.494c-0.819-4.452-5.488-8.435-13.874-11.841c-5.396-2.195-14.533,1.321-25.112,5.384
					c-18.131,6.962-40.696,15.631-66.667,5.667c-19.546-7.495-40.657-39.822-40.679-78.978
					c-0.039-76.412-27.62-94.791-51.952-111.005c-6.135-4.09-11.93-7.951-17.265-12.584
					c-43.285-37.573-171.025,3.654-257.908,83.245c-85.455,78.287-122.098,178.895-134.141,211.955L373.716,1411.334z"/>
			</g>
		</g>
		<g>
			<g>
				<g>
					<path d="M452.274,1348.809c-4.422,0-8.31-1.178-11.302-4.099c-11.086-10.818,0.527-35.31,14.728-60.168
						c10.081-17.648,33.688-58.977,78.597-71.316c8.273-2.273,27.634-7.594,36.67,3.106l0,0c9.361,11.076,0.125,29.733-6.62,43.356
						c-22.961,46.385-60.938,69.007-76.2,76.579C476.509,1342.039,462.867,1348.809,452.274,1348.809z M554.474,1222.444
						c-3.65,0-9.004,0.778-16.837,2.928c-39.891,10.963-61.691,49.124-70.997,65.419c-21.877,38.292-17.447,44.338-16.869,44.902
						c2.49,2.427,13.522-1.162,32.772-10.709c14.12-7.008,49.252-27.937,70.513-70.887c3.684-7.442,12.311-24.871,8.288-29.635
						C560.427,1223.379,558.475,1222.444,554.474,1222.444z"/>
				</g>
			</g>
		</g>
		<g>
			<g>
				<g>
					<path d="M467.567,1519.256c-3.595,0-6.978-1.043-10.207-3.563c-22.863-17.838,3.372-89.663,40.332-137.239
						c19.782-25.459,52.936-68.092,94.279-65.375l0,0c42.824,2.771,75.329,52.651,90.153,94.523
						c11.179,31.584,17.806,74.394-0.308,91.102c-11.378,10.492-26.227,5.692-45.015-0.386c-20.902-6.76-49.525-16.015-87.665-9.282
						c-25.366,4.478-43.403,13.972-56.573,20.904C483.048,1514.95,474.871,1519.256,467.567,1519.256z M588.297,1325.56
						c-33.55,0-62.909,37.785-80.649,60.616c-36.663,47.19-55.653,109.354-42.537,119.586c3.197,2.49,9.942-0.844,21.583-6.969
						c13.906-7.321,32.95-17.343,60.252-22.164c41.215-7.284,71.569,2.533,93.73,9.703c17.504,5.657,26.894,8.369,32.595,3.11
						c10.685-9.853,9.41-42.502-3.027-77.635c-13.544-38.26-42.384-83.781-79.086-86.154
						C590.202,1325.592,589.247,1325.56,588.297,1325.56z"/>
				</g>
			</g>
		</g>
		<g>
			<g>
				<g>
					<g>
						<path d="M1971.52,2675.427c-81.365,0.005-178.511-24.426-219.5-40.49c-73.956-28.993-189.095-88.804-334.509-272.746
							c-156.394-197.826-351.028-444.03-280.749-721.742c15.06-59.491,77.622-258.464,250.466-321.26
							c144.799-52.611,276.947-28.975,278.271-28.729c11.504,2.138,22.58,4.68,33.294,7.139c33.55,7.698,65.242,14.967,105.39,9.095
							c3.463-0.507,6.642,1.878,7.146,5.32c0.504,3.443-1.877,6.642-5.32,7.146c-42.488,6.226-75.295-1.311-110.033-9.281
							c-10.589-2.429-21.534-4.941-32.78-7.031c-1.285-0.238-130.224-23.203-271.666,28.183
							c-167.022,60.682-227.879,254.534-242.553,312.505c-68.756,271.693,123.742,515.191,278.416,710.841
							c143.519,181.55,256.628,240.373,329.223,268.829c67.208,26.345,228.846,58.339,298.195,25.547
							c5.46-2.584,9.899-6.353,15.04-10.724c12.739-10.832,28.584-24.317,67.646-22.762c6.359,0.251,13.372,1.24,20.799,2.289
							c18.441,2.613,39.323,5.547,47.237-4.267c36.011-44.746,65.043-57.986,95.778-72.002c20.045-9.144,40.77-18.594,64.92-37.773
							c108.854-86.462,217.94-428.296,190.134-723.12c-14.893-157.853-35.288-374.044-196.197-521.311
							c-35.115-32.137-100.478-91.956-185.699-93.87c-79.374-1.861-161.116,46.403-233.305,88.91
							c-15.739,9.267-28.469,17.437-39.699,24.644c-18.943,12.159-33.907,21.763-51.4,28.85c-3.224,1.302-6.898-0.251-8.205-3.474
							c-1.307-3.224,0.248-6.898,3.475-8.205c16.406-6.646,30.213-15.507,49.326-27.774c11.324-7.269,24.162-15.508,40.11-24.898
							c72.285-42.561,154.039-90.699,235.406-90.699c1.525,0,3.047,0.017,4.577,0.052c89.951,2.018,157.583,63.916,193.918,97.168
							c164.493,150.547,185.153,369.53,200.233,529.426c28.165,298.589-83.558,645.783-194.839,734.164
							c-25.355,20.139-46.793,29.918-67.528,39.372c-29.337,13.377-57.05,26.015-91.191,68.439
							c-12.393,15.404-37.05,11.925-58.812,8.844c-7.102-1.004-13.81-1.949-19.534-2.176c-34.19-1.383-46.772,9.39-58.992,19.775
							c-5.333,4.533-10.847,9.218-17.811,12.51C2036.949,2671.135,2005.611,2675.427,1971.52,2675.427z"/>
					</g>
				</g>
			</g>
			<g>
				<g>
					<g>
						<path d="M2251.531,2558.526c-13.564,0-25.931-1.624-35.283-5.04c-13.455-4.912-22.969-24.534-31.365-41.843
							c-4.262-8.78-9.09-18.731-12.166-21.114c-2.751-2.131-3.253-6.088-1.122-8.839c2.131-2.751,6.098-3.253,8.839-1.122
							c5.409,4.193,9.986,13.628,15.783,25.577c6.62,13.647,15.69,32.339,24.352,35.509c20.744,7.579,67.194,5.434,100.695-9.759
							c3.17-1.457,6.9-0.034,8.337,3.14c1.437,3.164,0.029,6.9-3.14,8.337C2304.924,2553.137,2276.251,2558.526,2251.531,2558.526z"
							/>
					</g>
				</g>
				<g>
					<g>
						<path d="M2020.927,2656.784c-3.224,0-6.568-0.143-10.053-0.433c-89.773-7.53-177.153-111.615-234.973-180.492
							c-280.465-334.093-309.744-446.944-335.574-546.511c-2.557-9.848-5.076-19.558-7.808-29.342
							c-26.714-95.65-59.964-214.696-20.151-356.614l1.046-3.73c18.637-66.588,49.83-178.031,165.205-214.968
							c64.024-20.501,142.727-11.622,200.511,22.6l6.93,4.09c31.596,18.591,56.553,33.274,81.062,71.345
							c21.347,33.149,45.539,70.722,62.609,102.05c1.663,3.051,0.536,6.88-2.518,8.544c-3.049,1.668-6.878,0.541-8.546-2.52
							c-16.849-30.92-40.91-68.287-62.136-101.253c-22.89-35.553-46.708-49.567-76.86-67.309l-6.964-4.105
							c-54.823-32.474-129.502-40.898-190.247-21.443c-108.913,34.866-138.962,142.22-156.913,206.364l-1.048,3.74
							c-38.86,138.521-6.137,255.678,20.156,349.822c2.751,9.853,5.291,19.637,7.867,29.564
							c25.496,98.278,54.395,209.662,333.03,541.574c56.477,67.278,141.826,168.947,226.375,176.033
							c34.648,2.929,53.871-8.701,79.087-47.783c19.61-30.396,18.121-66.598,17.23-88.233c-0.271-6.59-0.485-11.802-0.145-15.857
							c0.29-3.47,3.33-6.059,6.804-5.753c3.467,0.295,6.041,3.342,5.75,6.807c-0.275,3.273-0.064,8.376,0.18,14.287
							c0.95,23.126,2.545,61.829-19.233,95.581C2079.759,2636.694,2058.978,2656.784,2020.927,2656.784z"/>
					</g>
				</g>
				<g>
					<g>
						<path d="M2563.56,1972.199c-0.034,0-0.073,0-0.113,0c-3.48-0.064-6.246-2.933-6.187-6.412
							c2.338-130.745-14.45-245.289-54.442-371.389c-37.123-117.032-106.212-334.841-278.805-379.607
							c-60.003-15.555-143.45-12.412-194.656,29.689c-50.945,41.892-50.278,88.873-48.671,202.378
							c0.115,8.128,0.236,16.588,0.342,25.402c0.172,14.302,2.254,36.513,3.775,52.729c0.408,4.346,0.785,8.347,1.085,11.782
							c0.305,3.465-2.259,6.521-5.724,6.826c-3.44,0.286-6.524-2.259-6.826-5.724c-0.3-3.416-0.674-7.392-1.078-11.709
							c-1.626-17.348-3.652-38.936-3.831-53.753c-0.106-8.807-0.227-17.257-0.34-25.375c-1.669-117.792-2.36-166.55,53.266-212.288
							c54.636-44.923,142.754-48.514,205.818-32.154c179.34,46.513,249.797,268.641,287.648,387.979
							c40.43,127.477,57.4,243.261,55.037,375.439C2569.796,1969.453,2566.99,1972.199,2563.56,1972.199z"/>
					</g>
				</g>
			</g>
			<g>
				<g>
					<g>
						<g>
							<path d="M2135.107,2513.258c-12.198,0-21.404-3.15-21.908-3.322c-2.394-0.837-4.055-3.027-4.213-5.561
								c-0.01-0.133-0.893-14.095-4.547-50.441c-0.064-0.625-6.753-63.734-40.315-141.494
								c-14.169-32.827-28.801-46.425-64.15-79.291c-15.163-14.095-34.032-31.635-57.941-55.515
								c-103.571-103.451-155.552-155.373-164.195-211.345c-10.133-65.624,15.653-157.533,83.403-198.599
								c15.454-9.361,33.073-16.526,50.114-23.451c28.51-11.595,55.441-22.54,59.543-39.8c1.28-5.379,1.477-21.719-11.573-70.718
								c-0.896-3.361,1.105-6.811,4.467-7.707c3.379-0.876,6.816,1.108,7.709,4.469c15.813,59.383,12.683,72.543,11.657,76.869
								c-5.606,23.574-35.457,35.71-67.058,48.555c-16.583,6.743-33.732,13.716-48.327,22.561
								c-60.781,36.838-87.126,123.447-77.482,185.901c8.013,51.893,59.019,102.84,160.639,204.342
								c23.756,23.727,42.535,41.184,57.624,55.21c35.649,33.141,51.919,48.27,67.137,83.528
								c34.389,79.67,41.018,142.586,41.284,145.224c2.554,25.405,3.755,39.785,4.262,46.405c4.995,1.127,14.166,2.544,23.857,0.65
								c13.824-2.682,21.896-7.821,25.897-11.157c-4.247-5.886-12.014-16.669-18.131-25.346
								c-1.998-3.002-46.462-71.135-33.127-159.94c7.796-51.907,29.446-88.277,56.854-134.333
								c19.71-33.117,42.054-70.648,65.446-123.437c19.169-43.26,51.258-115.666,25.189-197.742
								c-7.678-24.16-31.035-97.688-94.557-122.881c-24.721-9.804-49.55-9.744-71.496-9.68
								c-27.334,0.079-53.165,0.132-70.284-19.824c-10.569-12.314-33.815-59.802-42.509-95.064c-0.832-3.376,1.23-6.792,4.609-7.624
								c3.372-0.827,6.789,1.23,7.626,4.611c8.002,32.467,30.491,78.981,39.837,89.872c13.337,15.552,34.244,15.503,60.69,15.429
								c23.089-0.064,49.198-0.128,76.173,10.566c69.079,27.399,93.795,105.208,101.92,130.78
								c27.511,86.629-5.783,161.766-25.681,206.665c-23.698,53.473-46.243,91.354-66.136,124.776
								c-27.747,46.617-47.793,80.3-55.219,129.756c-12.624,84.055,30.622,150.289,31.06,150.948
								c8.755,12.412,21.064,29.397,21.069,29.406c1.604,2.21,1.6,5.197-0.005,7.407c-0.418,0.571-10.518,14.081-36.823,19.184
								C2143.183,2512.938,2138.995,2513.258,2135.107,2513.258z"/>
						</g>
					</g>
				</g>
			</g>
			<g>
				<g>
					<g>
						<path d="M1964.807,1638.446c-8.662,0-11.782-11.26-15.075-23.146c-1.243-4.484-2.527-9.115-3.984-12.835
							c-15.963-40.716-25.722-67.647-33.563-89.292c-4.05-11.181-7.488-20.675-10.884-29.556
							c-8.937-23.37-45.453-80.145-118.2-193.256c-27.354-42.534-35.993-55.36-53.639-69.187
							c-33.329-26.114-81.988-58.281-82.475-58.601l-0.699-0.462c-13.352-8.81-29.97-19.772-28.641-34.795
							c0.901-10.148,9.087-15.685,22.654-24.862c17.912-12.114,30.87-20.857,48.103-18.049v0.003
							c21.945,3.585,40.31,51.597,43.017,60.902c5.618,19.297,23.982,31.33,34.955,38.521c1.459,0.957,2.798,1.836,3.977,2.64
							c24.945,17.026,39.362,42.057,77.895,108.956c14.031,24.362,31.493,54.681,53.827,92.146
							c9.07,15.217,17.402,29.024,25.038,41.683c50.111,83.053,70.853,117.435,73.638,174.101
							c1.088,22.167-20.045,33.068-34.515,34.992C1965.745,1638.411,1965.267,1638.446,1964.807,1638.446z M1682.115,1096.49
							c-10.5,0-20.055,6.462-34.756,16.401c-11.339,7.67-16.807,11.534-17.161,15.535c-0.667,7.535,13.594,16.945,23.028,23.168
							l0.701,0.465c0.492,0.323,49.58,32.773,83.307,59.199c19.248,15.082,28.218,28.365,56.351,72.11
							c73.333,114.02,110.083,171.161,119.485,195.751c3.42,8.943,6.883,18.503,10.963,29.763
							c7.815,21.576,17.543,48.423,33.444,88.987c1.696,4.321,3.069,9.277,4.398,14.066c1.233,4.454,3.012,10.867,4.481,13.578
							c5.613-1.26,22.56-6.329,21.813-21.536c-2.628-53.497-22.89-87.081-71.842-168.213c-7.646-12.676-15.99-26.502-25.073-41.74
							c-22.38-37.546-39.869-67.912-53.923-92.308c-37.485-65.084-51.511-89.437-74.079-104.841
							c-1.122-0.763-2.394-1.597-3.78-2.505c-12.429-8.145-33.23-21.775-40.147-45.541c-5-17.186-21.953-50.19-32.952-51.988
							C1684.927,1096.605,1683.512,1096.49,1682.115,1096.49z"/>
					</g>
				</g>
			</g>
			<g>
				<g>
					<g>
						<path d="M2039.272,2039.978c-0.404,0-0.809-0.039-1.216-0.118c-1.016-0.202-10.079-2.013-14.659-4.169
							c-28.008-13.194-35.482-21.93-53.537-43.039l-1.341-1.57c-13.876-16.217-27.848-35.78-26.266-57.912
							c0.869-12.195,7.611-24.293,18.032-32.359c9.597-7.422,20.936-10.394,31.931-8.372c22.727,4.188,35.031,27.029,36.847,46.479
							c0.852,9.11,0.184,18.131-0.463,26.857c-0.681,9.223-1.324,17.929-0.285,26.542c1.769,14.681,4.887,25.454,15.591,37.098
							c1.841,2.003,2.188,4.966,0.859,7.338C2043.638,2038.773,2041.519,2039.978,2039.272,2039.978z M1985.473,1904.425
							c-6.019,0-12.09,2.185-17.477,6.353c-7.518,5.817-12.567,14.74-13.175,23.289c-1.257,17.589,11.058,34.554,23.271,48.827
							l1.344,1.57c16.436,19.214,22.794,26.65,43.848,37.177c-4.311-8.741-6.267-17.792-7.478-27.817
							c-1.183-9.828-0.463-19.563,0.231-28.973c0.635-8.588,1.236-16.699,0.482-24.76c-1.387-14.877-10.3-32.256-26.586-35.258
							C1988.458,1904.557,1986.966,1904.425,1985.473,1904.425z"/>
					</g>
				</g>
			</g>
			<g>
				<g>
					<g>
						<path d="M2096.423,2024.412c-1.383,0-2.763-0.453-3.908-1.359c-2.225-1.757-3-4.789-1.892-7.397
							c6.086-14.361,6.677-25.725,5.66-39.407c-0.605-8.165-2.451-15.803-4.405-23.889c-1.841-7.619-3.746-15.503-4.557-23.938
							c-1.759-18.318,3.519-41.862,19.278-53.167c7.886-5.66,17.031-7.004,25.732-3.76c9.956,3.711,17.845,13.131,20.592,24.588
							c4.567,19.096-2.446,41.114-9.907,60.131l-0.728,1.856c-9.774,24.918-13.82,35.228-32.054,56.396
							c-3.007,3.49-9.366,8.199-10.079,8.726C2099.042,2024.003,2097.733,2024.412,2096.423,2024.412z M2122.928,1882.381
							c-2.653,0-5.731,0.773-8.984,3.11c-11.627,8.342-15.451,27.477-14.083,41.725c0.726,7.55,2.446,14.661,4.264,22.187
							c1.986,8.224,4.041,16.723,4.722,25.912c0.536,7.229,0.659,14.085-0.13,21.088c10.301-13.524,14.09-23.18,21.837-42.935
							l0.728-1.86c6.753-17.196,13.14-36.887,9.385-52.592c-1.777-7.426-6.659-13.45-12.737-15.714
							C2126.551,1882.79,2124.852,1882.381,2122.928,1882.381z"/>
					</g>
				</g>
			</g>
		</g>
		<g>
			<g>
				<g>
					<g>
						<path d="M1299.618,1128.561c-11.484,0-23.17-0.861-34.881-2.773c-40.74-6.654-79.766-21.884-117.506-36.614
							c-45.022-17.57-87.559-34.177-120.496-29.396c-46.843,6.777-86.434-0.286-111.398-7.402c-3.347-0.955-5.286-4.439-4.331-7.786
							c0.955-3.344,4.422-5.285,7.786-4.331c19.47,5.552,59.147,13.842,106.138,7.048c36.24-5.227,80.268,11.942,126.882,30.132
							c37.133,14.489,75.528,29.475,114.959,35.913c72.595,11.868,142.146-19.522,163.238-38.964
							c6.681-6.154,6.649-9.058,6.646-9.085c-0.079-0.989-3.664-3.546-5.197-4.638c-4.442-3.165-10.525-7.503-9.43-14.935
							c1.703-11.539,17.976-14.277,38.575-17.742c16.595-2.796,39.328-6.62,41.663-15.151c0.406-1.486,0.015-2.32-1.841-5.246
							c-2.084-3.287-4.941-7.788-4.166-14.462c1.843-15.885,19.947-20.311,42.869-25.912c25.299-6.184,56.782-13.881,82.143-38.125
							c7.213-6.895,11.526-12.867,15.698-18.643c6.575-9.102,12.786-17.7,28.104-27.624c12.385-8.022,25.046-13.16,34.288-16.911
							c2.67-1.083,5.665-2.301,8.15-3.42c-1.026-0.226-2.05-0.435-2.936-0.618c-9.063-1.865-20.343-4.185-23.581-13.519
							c-4.528-13.049,11.103-26.948,27.651-41.663c7.559-6.72,19.999-17.781,21.015-22.28c-0.75-0.275-2.022-0.558-2.933-0.763
							c-3.824-0.849-9.602-2.136-12.095-8.042c-4.501-10.673,7.168-21.756,20.68-34.589c6.064-5.761,20.264-19.248,18.822-22.846
							c-0.354-0.428-2.244-1.1-3.371-1.504c-3.568-1.269-8.957-3.192-10.864-9.326c-3.037-9.757,6.122-17.939,14.981-25.85
							c5.48-4.895,13.761-12.292,12.983-16.148c-0.276-1.376-2.68-2.476-6.314-3.994c-4.948-2.07-11.105-4.646-13.891-11.302
							c-7.262-17.354,17.535-41.464,48.209-68.886c0.064-0.059,0.13-0.118,0.194-0.175c-10.97,3.942-23.158,6.056-32.923-0.214
							c-7.222-4.639-9.349-11.563-11.056-17.129c-1.546-5.035-2.572-7.966-5.658-9.599c-5.793-3.066-14.701,0.719-22.558,4.065
							c-8.896,3.785-18.091,7.71-24.691,1.56c-5.517-5.14-3.661-12.474-2.306-17.826c0.785-3.103,1.762-6.964,0.783-8.288
							c-3.079-4.147-18.424-1.61-28.577,0.074c-15.542,2.572-30.216,4.998-36.422-4.341c-3.905-5.876-2.38-12.195-1.373-16.376
							c0.145-0.601,0.327-1.349,0.467-2.035c-3.128,0.908-8.371,3.374-12.117,5.133c-14.066,6.607-31.566,14.829-44.823,6.514
							c-5.822-3.657-7.456-8.613-8.537-11.89c-0.878-2.67-1.228-3.428-2.375-4.154c-8.059-5.084-30.791,9.676-45.829,19.458
							c-20.063,13.049-34.556,22.476-43.797,14.681c-4.412-3.728-4.275-9.242-4.181-12.895c0.01-0.406,0.022-0.905,0.025-1.373
							c-9.363-2.631-15.417,2.657-24.204,11.246c-7.589,7.417-16.182,15.796-28.466,13.227c-7.518-1.587-10.631-5.537-12.906-8.418
							c-1.683-2.136-2.611-3.312-5.498-4.203c-8.447-2.586-19.127,8.069-29.453,18.394c-12.405,12.408-25.232,25.242-39.584,20.006
							c-5.962-2.173-8.371-6.371-9.963-9.147c-1.341-2.335-1.644-2.67-2.7-2.987c-7.005-2.121-19.236,11.654-29.086,22.705
							c-13.544,15.195-26.352,29.554-40.081,25.484c-8.504-2.52-9.479-8.952-9.949-12.043c-0.047-0.32-0.106-0.709-0.167-1.021
							c-18.059-4.609-62.535,37.868-94.105,89.498c-2.456,4.016-5.675,4.569-7.395,4.562c-3.026-0.037-5.126-1.68-6.676-3.6
							c-9.858,13.692-11.551,19.718-14.577,30.501c-1.051,3.74-2.245,7.983-3.927,13.178c-6.507,20.084-15.653,26.091-25.334,32.452
							c-6.179,4.058-12.567,8.254-19.708,17.009c-17.275,21.175-12.486,46.622-6.425,78.841
							c5.135,27.292,10.958,58.227,4.865,94.168c-11.186,65.995-61.674,92.431-150.043,78.535c-3.438-0.539-5.785-3.765-5.246-7.2
							c0.539-3.435,3.792-5.773,7.2-5.246c81.348,12.794,125.723-9.523,135.667-68.195c5.716-33.72,0.116-63.478-4.823-89.732
							c-6.403-34.032-11.932-63.421,9.041-89.134c8.369-10.257,15.904-15.208,22.555-19.576c8.78-5.768,15.124-9.937,20.267-25.806
							c1.622-5.005,2.768-9.095,3.78-12.7c3.61-12.853,5.788-20.612,20.944-40.458c1.602-2.096,3.95-3.184,6.403-3.051
							c2.778,0.177,4.636,1.747,6.016,3.548c26.454-41.425,75.376-98.475,105.154-89.695c7.63,2.257,8.551,8.318,8.992,11.231
							c0.079,0.515,0.192,1.265,0.3,1.594c0.02,0.03,0.298,0.119,0.771,0.256c6.075,1.826,18.227-11.829,27.098-21.785
							c13.495-15.137,27.457-30.78,42.114-26.39c5.999,1.802,8.411,6.004,10.005,8.785c1.27,2.214,1.789,3.012,3.349,3.58
							c6.806,2.466,16.745-7.463,26.362-17.08c12.363-12.358,26.372-26.37,42.077-21.522c6.634,2.047,9.548,5.741,11.674,8.438
							c1.762,2.23,2.564,3.248,5.618,3.893c5.414,1.156,10.008-3.022,17.053-9.907c8.782-8.586,20.806-20.326,39.278-13.431
							c6.568,2.456,6.391,9.501,6.305,12.884c-0.022,0.866-0.054,2.193,0.037,2.987c4.282,0.207,18.736-9.319,28.476-15.653
							c21.898-14.24,44.542-28.97,59.438-19.541c5.086,3.219,6.54,7.634,7.604,10.857c0.92,2.79,1.368,3.969,3.268,5.163
							c7.439,4.668,22.076-2.219,32.765-7.245c11.861-5.576,21.236-9.985,27.255-3.516c4.419,4.749,2.965,10.78,2.003,14.774
							c-0.775,3.206-1.186,5.239-0.384,6.447c1.703,2.562,17.236-0.02,23.87-1.115c16.268-2.692,33.097-5.478,40.755,4.85
							c4.543,6.125,2.675,13.5,1.311,18.884c-0.416,1.648-1.08,4.274-1.07,5.531c1.733-0.037,7.222-2.375,10.921-3.95
							c9.927-4.225,22.285-9.491,33.388-3.605c7.852,4.156,10.045,11.297,11.807,17.036c1.536,5.01,2.64,8.182,5.817,10.224
							c8.768,5.628,25.678-2.299,35.782-7.038c8.701-4.08,14.991-7.025,18.869-1.366c4.511,6.573-1.247,11.723-20.333,28.786
							c-14.775,13.207-49.37,44.141-44.98,54.632c0.79,1.89,3.869,3.177,7.126,4.54c5.146,2.151,12.188,5.097,13.808,13.133
							c2.2,10.93-7.971,20.013-16.942,28.028c-3.768,3.367-11.603,10.365-11.344,12.72c0.283,0.205,1.954,0.8,3.061,1.194
							c3.418,1.218,8.581,3.059,10.837,8.684c4.621,11.536-8.231,23.744-21.839,36.668c-6.066,5.763-17.188,16.327-17.686,20.351
							c0.733,0.307,2.158,0.625,3.157,0.849c3.721,0.827,9.346,2.077,11.856,7.707c4.929,11.059-7.97,22.528-24.3,37.047
							c-9.048,8.047-25.89,23.023-24.121,28.119c0.891,2.567,9.56,4.348,14.216,5.308c8.17,1.678,16.615,3.415,17.41,11.16
							c0.847,8.26-7.613,11.693-20.422,16.893c-9.265,3.76-20.796,8.44-32.177,15.813c-13.337,8.64-18.623,15.956-24.741,24.426
							c-4.294,5.943-9.161,12.68-17.205,20.37c-27.797,26.576-62.511,35.061-87.857,41.257
							c-17.447,4.265-32.514,7.949-33.346,15.127c-0.249,2.146,0.568,3.546,2.29,6.263c2.099,3.31,5.271,8.312,3.352,15.32
							c-4.462,16.293-28.488,20.336-51.725,24.248c-9.193,1.546-24.207,4.073-27.787,6.984c0.913,0.905,2.7,2.18,3.866,3.009
							c4.176,2.977,9.895,7.052,10.444,13.889c0.473,5.888-3.115,12.402-10.667,19.361
							C1416.465,1104,1360.933,1128.558,1299.618,1128.561z"/>
					</g>
				</g>
			</g>
		</g>
		<g>
			<g>
				<g>
					<g>
						<path d="M840.383,1028.341c-1.508,0-3.024-0.539-4.23-1.634c-5.207-4.722-10.175-9.781-14.767-15.038
							c-14.612-16.724-43.794-26.945-74.689-37.768c-26.212-9.181-53.315-18.674-77.573-33.451
							c-44.429-27.064-69.411-76.023-72.305-100.594c-0.896-7.606,0.335-13.133,3.657-16.431c3.979-3.947,9.511-3.45,13.168-3.128
							c-2.102-3.479-6.494-8.745-9.664-12.547c-10.707-12.84-21.78-26.118-16.303-37.702c2.5-5.286,7.05-6.676,9.772-7.508
							c2.069-0.632,2.503-0.847,2.899-1.435c1.984-2.941-4.663-12.21-10.53-20.39c-10.515-14.666-24.915-34.751-27.558-61.416
							c-0.768-7.744-0.288-13.497,0.135-18.572c0.603-7.198,1.078-12.882-1.887-22.931c-2.569-8.704-6.418-16.163-9.508-22.157
							c-4.4-8.527-7.874-15.262-2.675-20.2c4.919-4.663,11.243-1.162,16.327,1.659c1.991,1.102,5.985,3.315,7.722,3.469
							c1.767-3.258,0.017-16.148-0.937-23.183c-2.035-14.981-3.792-27.917,5-32.083c4.562-2.161,8.615-0.145,11.125,1.186
							c0.406-3.674-0.32-10.766-0.79-15.348c-1.378-13.446-2.68-26.146,6.048-30.695c4.454-2.316,8.598-0.743,11.088,0.212
							c0.086-2.318-0.433-6.201-0.775-8.756c-1.157-8.676-2.47-18.51,4.432-23.901c5.251-4.092,11.024-2.232,14.841-0.994
							c1.196,0.389,3.683,1.188,4.203,0.933c3.76-1.89,3.723-17.459-0.11-46.275c-2.353-17.685-3.233-24.302,3.725-26.155
							c6.169-1.656,8.76,4.112,11.509,10.21c2.768,6.139,7.919,17.57,13.872,18.397c1.877,0.263,3.425-0.65,6.223-2.422
							c3.578-2.259,8.487-5.36,15.2-3.841c9.299,2.096,13.783,11.159,17.056,17.779c0.586,1.184,1.331,2.692,2.032,3.949
							c0.069-0.137,0.136-0.271,0.197-0.396c1.759-3.541,4.419-8.895,10.421-10.261c9.764-2.235,17.639,7.183,25.257,16.271
							c2.901,3.46,7.616,9.082,10.005,10.301c0.342-0.504,0.883-1.562,1.233-2.247c1.38-2.704,3.694-7.229,9.164-7.845
							c7.456-0.832,10.926,6.91,14.609,15.109c2.943,6.548,7.39,16.443,12.233,17.167c0.787,0.118,1.031,0.029,2.665-0.957
							c2.114-1.28,5.303-3.199,10.089-2.512c13.18,1.922,18.552,20.25,23.749,37.972c1.707,5.824,4.124,14.071,6.167,17.958
							c1.752-2.077,5.478-5.832,10.751-3.903c13.837,5.069,14.952,17.74,15.69,26.126c0.583,6.625,1.11,9.885,3.406,11.143
							c1.235,0.676,1.508,0.625,3.297,0.271c2.416-0.473,6.07-1.194,10.984,0.945c11.399,4.951,12.481,19.078,13.436,31.544
							c0.568,7.414,1.346,17.568,4.784,18.859c0.362,0.135,0.433,0.16,1.956-0.382c2.219-0.787,5.928-2.101,10.571-0.046
							c10.724,4.756,11.01,19.721,11.283,34.192c0.118,6.174,0.354,18.599,2.68,21.172c1.708-1.449,5.702-4.545,11.536-1.924
							c19.856,8.913,20.54,59.093,16.113,92.928c1.184,0.106,2.409,0.497,3.591,1.385c1.89,1.423,2.896,3.659,2.756,6.135
							c-0.989,17.415-3.371,22.538-7.318,31.023c-1.068,2.295-2.281,4.901-3.654,8.187c-4.119,9.862-2.904,14.078-0.891,21.064
							c1.469,5.093,3.295,11.432,3.064,20.778c-0.581,23.584-17.636,37.259-35.691,51.735
							c-14.105,11.307-30.093,24.126-41.939,43.841c-14.105,23.473-12.368,44.884,5.318,65.449c2.269,2.638,1.969,6.615-0.669,8.883
							c-2.638,2.266-6.615,1.964-8.883-0.669c-21.377-24.859-23.586-51.826-6.563-80.155c13.005-21.645,29.925-35.211,44.855-47.18
							c17.063-13.68,30.541-24.487,30.979-42.215c0.182-7.409-1.221-12.274-2.576-16.979c-2.19-7.599-4.454-15.459,1.373-29.409
							c1.449-3.47,2.729-6.224,3.856-8.647c2.99-6.427,4.648-9.991,5.615-19.339c-1.383-0.108-2.815-0.573-4.141-1.686
							c-1.221-1.021-3.167-3.351-2.496-7.5c6.625-41.001,1.755-78.929-6.794-85.492c-1.932,1.597-6.039,4.38-12.09,1.666
							c-10.087-4.516-10.348-18.261-10.626-32.814c-0.143-7.483-0.406-21.411-3.795-22.915c-0.125,0.008-0.775,0.236-1.25,0.406
							c-2.193,0.773-5.864,2.072-10.601,0.3c-10.953-4.117-11.994-17.703-12.914-29.692c-0.684-8.918-1.459-19.024-5.894-20.951
							c-1.321-0.576-1.836-0.477-3.533-0.138c-2.609,0.505-6.544,1.285-11.782-1.585c-8.456-4.628-9.257-13.756-9.902-21.086
							c-0.689-7.808-1.437-11.876-5.064-14.228c-1.735,2.089-4.486,5.003-8.93,5.003c-0.025,0-0.052,0-0.079,0
							c-9.735-0.074-13.417-12.626-18.075-28.515c-2.899-9.89-8.295-28.294-13.48-29.052c-0.202-0.037-0.3-0.049-1.754,0.83
							c-2.124,1.287-5.665,3.455-11.039,2.635c-11.654-1.742-17.555-14.875-21.864-24.465c-0.655-1.451-1.42-3.154-2.153-4.661
							c-1.501,2.591-3.87,5.652-8.138,6.858c-8.608,2.417-15.547-5.83-22.883-14.583c-3.3-3.935-10.129-12.082-12.747-12.082
							c-0.027,0-0.052,0.003-0.079,0.003c-0.293,0.312-1.309,2.359-1.917,3.58c-1.792,3.61-4.501,9.063-10.828,9.324
							c-7.348,0.175-10.918-6.71-13.977-12.9c-2.389-4.826-5.094-10.295-8.534-11.073c-1.491-0.318-2.744,0.337-5.694,2.2
							c-3.445,2.18-8.16,5.155-14.69,4.255c-5.731-0.797-10.249-4.218-13.852-8.556c3.157,25.742,3.75,45.376-7.757,51.156
							c-5.133,2.582-10.107,0.975-13.739-0.202c-1.188-0.386-2.975-0.97-3.588-0.903c-0.765,1.287,0.214,8.618,0.684,12.142
							c1.105,8.263,2.354,17.629-4.644,22.019c-4.565,2.87-9.112,1.12-11.558,0.177c-0.197-0.076-0.428-0.165-0.659-0.251
							c-0.911,3.487,0.02,12.56,0.544,17.678c1.316,12.838,2.559,24.964-5.753,29.111c-4.506,2.242-8.677,0.344-11.16-0.958
							c-0.3,4.213,0.81,12.395,1.528,17.681c2.126,15.665,4.137,30.462-5.165,35.885c-5.386,3.133-11.354,1.11-16.41-1.422
							c3.147,6.1,7.387,14.381,10.247,24.076c3.635,12.316,2.987,20.06,2.362,27.549c-0.399,4.759-0.809,9.681-0.155,16.278
							c2.311,23.311,15.035,41.058,25.26,55.318c9.454,13.185,17.619,24.573,10.734,34.781c-2.96,4.388-6.993,5.62-9.661,6.437
							c-0.701,0.214-1.764,0.539-2.02,0.741c-2.082,4.41,8.736,17.38,14.545,24.349c9.656,11.581,17.284,20.725,12.262,28.69
							c-3.384,5.372-9.651,4.811-13.399,4.476c-0.972-0.089-2.48-0.226-3.32-0.162c-3.77,9.257,17.61,67.237,66.481,97.006
							c23.121,14.085,49.589,23.355,75.183,32.32c32.507,11.386,63.212,22.142,80.012,41.37c4.272,4.889,8.896,9.597,13.743,13.994
							c2.577,2.338,2.771,6.322,0.433,8.898C843.808,1027.645,842.098,1028.341,840.383,1028.341z"/>
					</g>
				</g>
			</g>
		</g>
		<g>
			<g>
				<path d="M915.711,1037.534c20.557,3.444,41.337,6.063,62.163,5.867c20.775-0.163,41.636-3.547,60.631-11.839
					c19.101-8.084,36.026-20.414,52.959-32.516l25.495-18.116c8.354-6.118,16.323-12.773,24.122-19.647
					c15.553-13.776,30.646-28.328,47.132-41.303c16.353-13.086,33.352-25.24,50.042-37.699
					c16.684-12.457,33.053-25.298,48.08-39.562c15.025-14.278,28.824-29.951,43.877-44.582
					c14.989-14.74,31.858-27.594,49.446-38.956c17.605-11.405,35.804-21.668,53.898-32.057
					c36.27-20.669,72.801-40.888,109.808-60.205c18.483-9.696,37.049-19.23,55.688-28.62c18.628-9.37,37.32-18.835,56.905-26.307
					c9.812-3.656,19.796-6.92,30.022-9.237c10.21-2.412,20.624-3.748,31.012-4.731c20.689-2.003,41.85-2.96,61.366-10.769
					c-19.359,8.194-40.632,9.584-61.237,11.984c-10.353,1.184-20.652,2.713-30.71,5.297c-10.081,2.492-19.91,5.919-29.567,9.734
					c-19.316,7.684-37.834,17.26-56.351,26.848c-18.519,9.586-36.963,19.314-55.32,29.203
					c-36.686,19.828-73.22,39.936-109.34,60.772c-36.016,20.862-72.757,41.256-102.117,70.653
					c-14.894,14.427-28.788,30.047-44.06,44.475c-15.301,14.418-31.874,27.313-48.654,39.748
					c-16.788,12.436-33.785,24.5-50.061,37.429c-16.347,12.813-31.416,27.178-47.273,40.85
					c-7.924,6.832-16.055,13.475-24.603,19.593l-25.724,17.846c-17.069,11.903-34.312,24.188-53.858,32.205
					c-19.512,8.064-40.732,11.032-61.607,10.774C956.933,1044.439,936.195,1041.392,915.711,1037.534z"/>
			</g>
		</g>
		<g>
			<g>
				<path d="M643.099,425.239c0.268,13.373,2.404,26.893,8.107,38.933c5.609,12.191,15.372,21.557,23.895,32.002
					c4.266,5.243,8.081,10.96,10.988,17.161c2.823,6.035,5.966,11.895,9.403,17.602c6.849,11.428,14.789,22.19,22.913,32.825
					c16.56,21.022,32.546,42.895,46.157,66.147c13.71,23.2,25.536,47.515,35.378,72.613
					c19.432,50.295,30.717,103.717,33.244,157.524c0.438,6.722,0.437,13.458,0.45,20.191l0.012,10.096l-0.389,10.09
					c-0.34,13.482-1.62,26.8-1.983,40.182c-0.396,13.352-0.322,26.753,1.846,39.935c1.13,6.572,2.757,13.058,4.933,19.378
					c2.246,6.296,5.076,12.378,8.343,18.24c-3.504-5.718-6.629-11.689-9.128-17.949c-2.394-6.295-4.247-12.795-5.6-19.406
					c-2.574-13.259-3.207-26.812-3.054-40.258c0.115-13.446,1.106-26.883,1.231-40.229l0.218-10.02l-0.181-10.021
					c-0.125-6.68-0.235-13.359-0.784-20.02c-2.97-53.344-14.45-106.169-33.804-155.932c-9.608-24.906-21.188-49.057-34.646-72.119
					c-13.377-23.157-29.084-44.712-45.255-66.179c-7.973-10.809-15.811-21.807-22.566-33.517
					c-3.386-5.841-6.489-11.868-9.247-18.031c-2.684-6.014-6.315-11.557-10.34-16.841c-8.077-10.478-17.818-20.352-23.197-32.924
					C644.52,452.295,642.86,438.605,643.099,425.239z"/>
			</g>
		</g>
		<g>
			<g>
				<g>
					<path d="M964.484,1275.936c-13.977,0-33.946-4.159-48.935-10.854c-16.143-7.213-15.951-16.583-15.663-30.767
						c0.086-4.326,0.187-9.233-0.074-15.183c-2.788-64.086-30.189-115.776-48.322-149.979
						c-11.541-21.775-19.167-36.163-18.062-46.993l0,0c0.591-5.778,6.745-8.593,12.688-10.584
						c13.659-4.579,54.469-11.396,65.429,0.392c8.475,9.115,9.968,20.159,12.678,40.206c2.781,20.569,6.984,51.654,20.853,103.33
						c7.592,28.289,19.509,50.488,29.086,68.325c9.929,18.493,16.49,30.708,12.941,40.556c-1.58,4.387-4.995,7.677-10.151,9.774
						C973.978,1275.37,969.637,1275.936,964.484,1275.936z M845.944,1025.115c0.49,7.594,8.037,21.834,16.679,38.136
						c18.662,35.204,46.863,88.406,49.779,155.331c0.276,6.354,0.167,11.696,0.081,15.988c-0.276,13.472-0.31,15.202,8.207,19.009
						c20.567,9.188,45.716,11.268,51.513,8.91c2.567-1.046,2.929-2.045,3.046-2.375c1.644-4.564-5.074-17.077-12.188-30.327
						c-9.363-17.439-22.187-41.321-30.157-71.017c-14.076-52.456-18.343-84.023-21.167-104.91
						c-2.517-18.628-3.667-27.13-9.42-33.317C896.688,1014.689,855.214,1019.544,845.944,1025.115z"/>
				</g>
			</g>
		</g>
	</g>
	<g>
		<g>
			<g>
				<path style="fill:#DF1D1B;" d="M3626.305,942.002c-2.905-20.371-6.562-45.253-16.069-75.04
					c-6.946-21.763-26.128-98.356-88.591-148.156c-96.423-76.876-212.113-81.924-252.605-80.743
					c-46.275,1.35-138.41,4.038-216.602,72.37c-71.646,62.611-89.281,143.363-97.691,181.87
					c-7.821,35.812-33.427,153.064,35.547,265.143c84.399,137.144,241.719,154.919,263.929,157.057
					c174.146,16.762,350.219-98.868,373.597-215.219C3634.549,1065.794,3634.796,1001.54,3626.305,942.002z"/>
			</g>
		</g>
		<g>
			<g>
				<path style="fill:#F33B31;" d="M3013.412,840.876c4.532-12.194,20.396-60.056,60.927-97.188
					c37.015-33.91,95.892-55.893,117.798-36.874c11.761,10.211,31.557,13.238,31.579,56.774
					c0.009,16.111,8.514,29.387,16.207,32.338c17.764,6.814,32.34-8.245,40.65-4.87c39.095,15.876-77.125,61.858-109.441,165.782
					c-49.854,160.328,1.406,199.162-23.342,208.665C3099.838,1183.918,2927.913,1070.928,3013.412,840.876z"/>
			</g>
		</g>
		<g>
			<g>
				<g>
					<path style="fill:#FFF2AC;" d="M3101.153,757.383c2.901,3.433-0.581,10.658-3.297,16.145
						c-10.523,21.257-28.31,30.562-32.45,32.616c-5.99,2.972-14.602,7.245-17.684,4.237c-4.035-3.939,3.936-17.895,6.989-23.24
						c4.606-8.066,14.706-25.193,33.086-30.243C3090.797,756.073,3098.303,754.01,3101.153,757.383z"/>
				</g>
			</g>
		</g>
		<g>
			<g>
				<g>
					<path style="fill:#FFFEE6;" d="M3112.393,801.164c-16.844-1.089-30.75,16.811-39.325,27.848
						c-16.139,20.774-26.357,50.54-18.328,56.803c5.883,4.59,15.372-8.274,38.4-12.34c31.886-5.63,48.756,12.843,57.288,4.973
						C3163.691,866.215,3142.916,803.138,3112.393,801.164z"/>
				</g>
			</g>
		</g>
		<g>
			<g>
				<g>
					<g>
						<path style="fill:#F33B31;" d="M3812.68,730.186c-35.868-0.805-72.241,20.612-104.684,39.714
							c-25.641,15.098-33.363,23.665-54.626,27.715c-26.281,5.005-44.341-2.396-66.414-6.498c0,0-57.553-10.695-121.636,12.588
							c-81.021,29.436-105.826,127.453-109.047,140.18c-30.752,121.515,55.245,230.299,123.677,316.861
							c62.278,78.779,112.015,106.15,146.807,119.787c28.169,11.041,101.724,26.544,134.119,11.225
							c9.357-4.425,12.358-15.453,35.275-14.548c10.26,0.406,26.304,5.635,32.379-1.913c25.942-32.234,43.402-26.486,70.649-48.126
							c47.847-38.001,97.635-189.952,85.149-322.326c-7.21-76.438-17.148-167.851-87.683-232.405
							C3879.329,756.594,3850.649,731.037,3812.68,730.186z"/>
					</g>
				</g>
			</g>
			<g>
				<g>
					<g>
						<path style="fill:#FFFEE6;" d="M3738.889,968.036c-3.801,0.58-22.733-54.651-64.575-119.639
							c-11.261-17.491-20.513-28.835-35.593-37.767c-25.971-15.383-60.061-18.183-86.428-9.742
							c-50.574,16.19-66.124,71.619-74.122,100.13c-17.053,60.787-3.386,112.207,8.916,156.252
							c13.308,47.649,15.285,91.613,151.351,253.694c27.19,32.388,64.399,75.702,102.043,78.858
							c17.8,1.493,26.816-5.755,37.559-22.406c11.673-18.091,3.394-46.62,10.823-47.918c2.958-0.517,5.115,3.859,10.611,3.548
							c6.139-0.348,7.741-6.051,11.836-6.005c6.62,0.074,12.61,24.466,20.744,27.437c21.752,7.944,60.288-7.142,83.23-43.344
							c43.872-69.232,64.157-142.173,65.704-228.723c0.918-51.365,1.362-99.782-18.236-161.572
							c-16.075-50.682-47.445-149.59-125.29-169.781c-27.287-7.078-65.002-5.707-88.578,13.679
							c-25.23,20.745-25.34,54.779-24.625,114.095C3724.954,926.557,3742.21,967.528,3738.889,968.036z"/>
					</g>
				</g>
			</g>
			<g>
				<g>
					<g>
						<g>
							<path style="fill:#FFF2AC;" d="M3805.333,1305.561c0,0-19.983-30.056-14.175-68.731
								c5.758-38.342,28.809-56.714,53.892-113.313c9.316-21.021,22.866-52.877,11.251-89.446
								c-3.416-10.755-14.126-44.476-43.457-56.106c-25.147-9.972-49.277,2.126-61.63-12.275
								c-8.087-9.427-21.474-51.629-21.474-51.629l-16.306,2.69c0,0,14.478,44.304,11.84,55.4
								c-3.319,13.959-30.95,18.31-49.776,29.72c-28.462,17.251-39.966,56.671-35.585,85.044
								c3.684,23.858,26.405,46.553,71.849,91.944c34.908,34.867,45.286,38.929,54.598,60.502
								c15.216,35.251,18.048,63.415,18.048,63.416c1.644,16.347,2.021,22.421,2.021,22.421s6.48,2.259,13.723,0.853
								c10.694-2.076,14.567-7.391,14.567-7.391S3809.258,1311.129,3805.333,1305.561z"/>
						</g>
					</g>
				</g>
			</g>
			<g>
				<g>
					<g>
						<path style="fill:#5C2A03;" d="M3597.148,699.976c-6.535-1.068-11.609,2.363-19.268,7.543
							c-5.549,3.753-8.526,5.766-8.806,8.934c-0.449,5.087,6.382,9.49,11.738,13.025c0,0,21.664,14.301,36.668,26.056
							c8.086,6.335,11.831,11.822,24.303,31.213c32.359,50.312,48.539,75.468,52.597,86.081
							c4.357,11.396,8.877,25.069,19.653,52.553c2.185,5.573,3.294,14.499,6.103,14.127c4.032-0.535,13.282-3.805,12.851-12.578
							c-1.381-28.107-13.082-43.539-43.261-94.167c-36.331-60.948-43.007-78.23-57.447-88.086
							c-4.685-3.198-15.216-9.046-18.326-19.731C3612.144,718.738,3604.376,701.157,3597.148,699.976z"/>
					</g>
				</g>
			</g>
			<g>
				<g>
					<g>
						<path style="fill:#5C2A03;" d="M3752.809,1117.152c-5.078-5.524-6.751-10.815-7.612-17.964
							c-0.948-7.868,1.059-15.81,0.323-23.695c-0.737-7.885-5.525-16.511-14.03-18.08c-9.41-1.735-18.196,6.747-18.819,15.475
							c-0.623,8.728,5.037,16.691,10.958,23.61c8.308,9.708,11.204,13.305,23.344,19.022
							C3748.746,1116.355,3752.809,1117.152,3752.809,1117.152z"/>
					</g>
				</g>
			</g>
			<g>
				<g>
					<g>
						<path style="fill:#5C2A03;" d="M3778.091,1110.266c2.831-6.678,3.216-12.002,2.718-18.726
							c-0.549-7.4-3.264-13.873-3.97-21.217c-0.706-7.344,1.425-16.716,7.378-20.989c6.586-4.726,14.327-0.046,16.157,7.6
							c1.83,7.646-1.041,16.715-4.267,24.932c-4.527,11.531-6.07,15.741-14.019,24.968
							C3780.927,1108.183,3778.091,1110.266,3778.091,1110.266z"/>
					</g>
				</g>
			</g>
		</g>
		<g>
			<g>
				<g>
					<g>
						<path style="fill:#577F1E;" d="M3626.379,504.006c-4.18-9.992,30.895-33.882,29.167-36.4
							c-1.133-1.651-15.61,9.477-23.383,4.485c-4.744-3.046-2.764-9.383-7.595-11.941c-6.9-3.654-16.831,6.15-20.306,2.913
							c-2.499-2.328,2.079-7.917-0.336-11.173c-4.591-6.19-25.048,3.682-28.669-1.77c-2.04-3.071,1.499-6.954-0.436-9.032
							c-3.022-3.247-18.065,10.198-25.992,5.222c-3.335-2.093-1.905-5.249-4.818-7.091c-9.3-5.884-33.827,19.983-39.34,15.326
							c-1.894-1.6,0.213-5.755-1.84-6.523c-11.81-4.415-15.652,12.311-24.52,10.44c-4.525-0.954-3.538-4.174-7.896-5.519
							c-10.524-3.246-20.91,20.494-30.407,17.032c-3.358-1.224-2.568-4.463-5.754-5.419c-9.434-2.831-21.706,23.951-30.607,21.313
							c-3.989-1.182-0.977-4.76-4.45-5.787c-10.472-3.094-31.812,19.54-44.823,40.818c-1.71,2.797-2.925-3.987-4.182-2.341
							c-8.228,10.773-7.243,12.629-10.501,22.682c-4.324,13.345-10.944,10.571-19.433,20.977
							c-15.304,18.759,4.561,43.374-1.279,77.829c-9.779,57.691-88.244,23.058-83.797,29.984c3.4,5.296,33.455,18.73,69.317,13.54
							c27.38-3.962,65.933,22.643,106.133,29.209c39.629,6.472,79.085-15.44,78.378-24.23c-0.282-3.508-6.957-4.869-6.491-8.028
							c1.007-6.821,32.67-4.161,35.426-14.222c1.02-3.724-3.047-5.08-2.577-9.132c1.296-11.176,32.827-5.954,54.459-26.635
							c8.361-7.994,8.339-13.257,18.965-20.141c10.979-7.113,22.321-8.825,22.011-11.845c-0.316-3.082-12.186-1.857-13.85-6.655
							c-2.689-7.747,24.308-22.321,21.507-28.605c-1.091-2.448-5.617-1.198-6.691-3.746c-2.531-6.003,20.125-18.79,17.493-25.359
							c-1.075-2.683-5.374-1.852-6.223-4.583c-1.662-5.34,13.728-11.917,12.442-18.3
							C3634.661,507.232,3628.019,507.925,3626.379,504.006z"/>
					</g>
				</g>
			</g>
		</g>
		<g>
			<g>
				<g>
					<g>
						<path style="fill:#577F1E;" d="M3129.146,427.012c6.609-3.321-0.95-31.3,1.066-31.838c1.322-0.352,3.878,11.854,10.127,12.723
							c3.814,0.531,5.605-3.635,9.247-2.813c5.201,1.174,5.99,10.672,9.231,10.539c2.33-0.096,2.443-5.029,5.142-5.642
							c5.132-1.168,11.347,13.046,15.648,11.83c2.423-0.684,2.315-4.271,4.242-4.488c3.01-0.339,4.83,13.319,11.152,14.264
							c2.66,0.398,3.322-1.874,5.651-1.534c7.437,1.085,8.65,25.399,13.577,25.437c1.693,0.013,2.449-3.078,3.855-2.563
							c8.085,2.963,2.639,13.342,8.068,16.315c2.77,1.517,3.69-0.591,6.547,0.65c6.899,2.997,1.726,19.921,8.189,22.349
							c2.285,0.859,3.316-1.171,5.392-0.25c6.149,2.728,0.602,22.067,6.389,24.657c2.593,1.161,2.623-2.033,4.88-1.021
							c6.804,3.053,7.801,24.274,5.085,41.089c-0.357,2.21,3.289-0.767,3.209,0.646c-0.525,9.243-1.861,9.768-4.642,16.428
							c-3.692,8.841,0.973,10.345,0.746,19.515c-0.408,16.528-21.65,20.456-33.943,40.913
							c-20.583,34.253,35.49,51.189,30.105,52.802c-4.117,1.233-25.67-5.167-41.953-23.802
							c-12.431-14.228-44.245-17.579-68.003-32.051c-23.42-14.266-34.13-43.169-29.855-47.411c1.706-1.693,5.771,0.57,6.934-1.275
							c2.511-3.984-15.085-16.683-12.04-23.124c1.127-2.384,3.839-1.279,5.397-3.588c4.297-6.37-14.369-17.683-16.386-38.022
							c-0.78-7.862,1.572-10.58-0.876-18.873c-2.529-8.569-7.646-14.499-6.143-15.927c1.534-1.457,7.143,4.456,10.139,2.709
							c4.838-2.821-2.676-22.379,1.57-24.391c1.654-0.784,3.444,1.876,5.134,1.033c3.982-1.986-2.077-18.689,2.208-20.924
							c1.75-0.913,3.609,1.429,5.263,0.392c3.236-2.03-1.817-12.282,1.687-15.019
							C3123.419,425.001,3126.553,428.314,3129.146,427.012z"/>
					</g>
				</g>
			</g>
		</g>
		<g>
			<g>
				<path d="M3249.037,678.01c18.607-0.31,37.469-0.864,55.44-5.774c8.927-2.542,17.511-6.226,25.481-11.008
					c7.972-4.78,15.777-9.893,22.804-15.964c7.089-6.012,13.756-12.568,21.001-18.524c7.222-5.969,14.797-11.456,22.279-17.017
					c7.483-5.556,14.878-11.218,21.701-17.499c6.838-6.256,13.003-13.259,19.631-19.891c13.172-13.592,29.781-22.967,45.918-32.164
					c16.224-9.244,32.591-18.235,49.105-26.947l24.872-12.87c8.323-4.208,16.658-8.483,25.395-11.885
					c8.724-3.408,17.947-5.645,27.271-6.369c9.253-0.909,18.722-1.304,27.453-4.795c-8.662,3.663-18.181,4.251-27.395,5.338
					c-9.289,0.907-18.332,3.293-26.929,6.842c-8.631,3.458-16.913,7.751-25.205,12.021l-24.765,13.027
					c-16.441,8.815-32.731,17.907-48.875,27.25c-16.119,9.323-32.397,18.69-45.279,32.126c-6.607,6.521-12.844,13.513-19.824,19.818
					c-6.956,6.318-14.444,11.969-21.976,17.484c-7.531,5.52-15.116,10.938-22.323,16.813c-7.216,5.851-13.921,12.355-21.105,18.369
					c-7.151,6.09-15.055,11.196-23.108,15.949c-8.071,4.76-16.793,8.476-25.844,10.935
					C3286.511,677.879,3267.651,678.052,3249.037,678.01z"/>
			</g>
		</g>
		<g>
			<g>
				<path d="M3135.19,405.633c0.115,6.059,1.049,12.223,3.771,17.633c2.617,5.5,7.15,9.655,10.959,14.46
					c1.925,2.391,3.468,5.146,4.759,7.902c1.293,2.725,2.755,5.373,4.341,7.947c3.182,5.145,6.806,10.014,10.496,14.842
					c15.216,19.021,27.815,40.353,36.315,63.298c8.372,22.977,12.981,47.308,13.512,71.723c0.456,12.228-1.104,24.397-1.023,36.497
					c0.023,6.044,0.463,12.141,2.19,17.948c1.594,5.832,4.888,11.205,9.525,15.163c-4.751-3.81-8.259-9.142-10.047-15
					c-1.926-5.832-2.556-11.993-2.762-18.091c-0.23-12.243,1.221-24.352,0.634-36.477c-0.771-24.246-5.62-48.319-14.111-70.993
					c-8.199-22.827-20.418-44.039-35.406-63.179c-3.648-4.875-7.251-9.819-10.418-15.062c-3.374-5.17-5.15-11.153-8.853-15.869
					c-3.579-4.806-8.089-9.201-10.59-14.875C3135.874,417.91,3135.129,411.689,3135.19,405.633z"/>
			</g>
		</g>
		<g>
			<g>
				<g>
					<path style="fill:#5C2A03;" d="M3222.158,669.974c0.334-3.279,25.511-7.446,29.743-2.895
						c6.435,6.92,2.084,17.244,14.182,62.322c7.847,29.241,26.3,44.889,15.743,49.185c-3.669,1.493-15.728,0.152-24.975-3.98
						c-7.179-3.207-4.821-6.574-5.313-17.903C3249.566,711.451,3221.036,680.956,3222.158,669.974z"/>
				</g>
			</g>
		</g>
	</g>
</g>
</svg>
