<?xml version="1.0" encoding="utf-8"?>
<!-- Generator: Adobe Illustrator 27.5.0, SVG Export Plug-In . SVG Version: 6.00 Build 0)  -->
<svg xmlns="http://www.w3.org/2000/svg" xmlns:xlink="http://www.w3.org/1999/xlink" viewBox="0 0 6000 6000" width="595" height="842" preserveAspectRatio="xMidYMid meet" data-scaled="true">
<g>
	<path d="M5867.524,3026.786c-7.348-408.879-16.777-817.711-28.289-1226.497c-0.92-38.941-2.15-78.152-1.705-117.094
		c0.252-21.885,2.959-44.35,1.307-66.158c-1.494-19.688-7.869-38.578-16.277-56.32c-23.227-48.99-68.924-107.473-121.29-127.149
		c-32.057-12.047-68.953-18.123-102.304-25.998c-70.434-16.902-141.049-33.004-211.846-48.305
		c-132.516-28.934-264.188-62.566-396.305-93.375l-678.17-160.447c-119.434-30.578-239.188-59.852-359.262-87.82
		c-50.566-12.287-100.641-26.08-151.553-36.99c-41.291-8.842-86.021-18.938-128.402-15.557
		c-185.508,16.289-370.969,41.543-555.903,63.486l-758.35,84.814l-556.395,61.43c-68.887,7.34-137.723,15.117-206.508,23.332
		c-39.299,4.658-80.648,7.57-119.174,16.676c-45.879,10.834-91.559,40.658-121.483,76.887
		c-73.57,89.057-54.598,211.963-53.596,319.553c-179.613,20.66-528.955,41.203-647.743,192.1
		c-34.43,43.734-53.104,97.031-72.578,148.529c-38.471,101.856-71.205,205.522-98.202,310.999
		c-17.448,68.057-30.848,137.9-50.404,205.283c0.21-64.957,3.85-224.016-40.096-270.317c-29.687-31.277-95.68-27.515-135.63-27.345
		c-36.211,0.152-72.905,1.969-99.656,29.842c-16.23,16.905-20.547,42.703-23.712,65.239c-9.597,68.326-5.418,141.193-5.392,210.129
		c0.029,82.266-2.171,165.358,1.262,247.535c1.502,35.959,6.748,73.699,34.494,99.112c44.322,40.599,117.951,49.201,174.328,65.385
		c-13.935,104.771-27.376,208.951-30.864,314.707c-1.009,30.598-3.238,62.467-1.422,92.965c1.071,17.988,7.253,37.377,6.227,55.066
		c-0.286,4.922-2.756,9.51-4.524,14.015c-9.498,24.188-4.48,65.924-4.942,92.707c-3.105,179.842,0.635,357.375,13.379,536.843
		c-29.754,11.191-60.136,23.677-73.913,54.861c-7.14,16.154-10.269,35.9-11.636,53.455c-4.537,58.23-0.062,119.415,0.185,177.932
		c0.238,56.414-3.711,115.611,1.922,171.68c1.951,19.413,5.38,37.184,13.107,55.236c15.937,37.225,42.023,62.936,79.698,77.654
		c95.352,37.254,306.716,48.891,414.909,59.913c43.389,101.724,113.156,197.748,219.194,239.743
		c72.85,28.851,242.426,39.58,321.123,30.421c10.938-1.199,21.813-2.813,32.625-4.84c10.812-2.027,21.533-4.463,32.162-7.307
		s21.135-6.086,31.518-9.727c10.383-3.641,20.611-7.67,30.686-12.088c71.408-31.758,127.576-84.568,168.885-150.293
		c178.389,0.568,360.639,31.283,538.952,17.01c37.313-2.988,71.789-16.781,108.194-24.118
		c89.375-17.945,179.026-34.386,268.951-49.324c16.365,97.148,81.592,206.197,162.182,263.872
		c33.855,24.228,71.924,45.257,111.949,57.246c88.166,26.408,257.397,25.242,350.063,8.964
		c104.602-18.369,183.85-80.736,243.539-166.5c57.428-82.518,92.924-185.274,113.514-283.441
		c3.451-16.477,7.354-98.655,13.564-105.211c0.826-0.874,6.838-1.975,7.183-2.01c3.568-0.369,9.047,0.785,12.451,1.213l36.92,9.141
		c89.648-24.551,181.518-40.4,271.242-64.682c106.793-29.93,213.877-58.775,321.252-86.537
		c53.285-13.998,106.277-29.947,160.336-40.676c11.918,81.516,39.181,145.038,106.687,195.791
		c5.922,4.461,12.035,8.642,18.34,12.545c6.305,3.898,12.774,7.503,19.406,10.816c6.633,3.309,13.404,6.309,20.314,9
		c6.907,2.691,13.922,5.06,21.047,7.107c68.502,19.922,232.184,30.188,302.695,19.898c61.664-8.994,115.16-43.869,152.174-93.615
		c8.075-10.941,15.277-22.427,21.609-34.459c6.332-12.031,11.723-24.471,16.172-37.318c82.237,8.801,232.606,35.197,308.613,16.471
		c31.864-7.852,64.155-26.098,89.561-46.764c94.148-76.564,134.883-216.703,145.676-332.731
		c12.826-137.93-9.738-298.371-101.127-408.211c-28.664-34.447-65.42-61.852-111.352-66.539c-2.586-0.277-5.18-0.49-7.781-0.639
		c-2.598-0.149-5.197-0.231-7.799-0.246c-2.602-0.016-5.203,0.035-7.805,0.152c-2.598,0.113-5.192,0.295-7.782,0.545
		c-2.589,0.246-5.173,0.559-7.752,0.938c-2.574,0.379-5.136,0.822-7.687,1.33c-2.555,0.508-5.092,1.08-7.611,1.717
		c-2.524,0.637-5.029,1.338-7.518,2.104c-2.489,0.762-4.956,1.588-7.4,2.479c-2.445,0.886-4.867,1.836-7.266,2.848
		c-2.399,1.012-4.77,2.084-7.113,3.217s-4.657,2.322-6.938,3.568c-2.286,1.25-4.536,2.557-6.75,3.92
		c-2.219,1.363-4.4,2.781-6.545,4.254c-2.145,1.473-4.25,3-6.316,4.582c-2.07,1.578-4.098,3.209-6.083,4.893
		c-95.461,80.719-132.316,241.945-141.046,360.328c-9.071,122.965,9.562,304.922,94.271,401.883
		c6.65,7.611,13.746,14.859,20.818,22.078c-56.923-5.965-113.068-19.09-168.996-30.914
		c31.067-111.814,42.569-221.373,33.352-337.377c-2.9-36.48-16.945-75.082-14.045-111.416c2.045-25.571,11.455-51.639,17.497-76.617
		c24.257-100.383,65.121-244.149,160.553-299.942c39.551-23.115,90.199-28.682,134.109-16.025
		c58.875,16.969,105.797,59.672,134.49,112.957c52.91,98.25,60.674,214.781,63.984,324.118c0.311,10.277-0.557,44.291,11.191,47.859
		c22.447,6.82,92.262-8.109,111.92-21.451c6.141-4.166,9.897-10.435,10.969-17.748c3.679-25.16-3.334-59.256-3.879-85.588
		l-3.657-183.814c-0.469-31.295,1.536-64.154-1.723-95.168c-1.377-13.055-4.207-27.645-12.152-38.35
		c-26.174-9.551-89.625,6.556-119.942,11.285c-8.666-48.744-18.169-97.359-22.289-146.742
		c55.166-10.465,349.523-47.754,374.525-61.688C5881.118,3282.94,5868.462,3076.737,5867.524,3026.786z M5101.873,4090.615
		c-24-151.318-6.14-340.899,86.362-467.268c24.428-33.369,51.867-56.303,93.762-62.912c17.631-0.802,35.467,3.111,51.492,10.377
		c56.76,25.723,91.342,92.549,112.301,147.961c49.541,130.975,42.721,333.668-15.721,460.911
		c-29.063,63.264-71.297,119.057-138.264,143.596c-2.261,0.568-4.535,1.079-6.826,1.512c-30.475,5.736-57.885-0.352-83.057-18.638
		C5138.993,4260.449,5113.363,4163.083,5101.873,4090.615z M5612.249,3896.101l-5.085,2.25l-36.721,4.353
		c-0.428-12.088-3.58-33.521,3.727-43.078c13.008-0.744,26.121-0.773,39.146-1.125
		C5613.807,3871.157,5614.956,3883.632,5612.249,3896.101z M5591.395,3551.856c5.748-0.949,8.695-0.762,14.326,0.029
		c6.715,18.674,5.913,218.965,8.18,260.115c-16.084,3.035-32.49,5.004-48.697,7.354l-3.006-23.18
		c-7.998-82.805-26.935-156.475-54.176-234.774C5535.978,3559.562,5563.651,3555.595,5591.395,3551.856z M3957.911,1061.532
		l398.655,96.973l800.379,190.307c161.444,37.289,324.739,70.641,485.045,112.354c25.752,6.703,51.914,14.695,73.5,30.791
		c36.146,26.948,72.164,76.025,79.23,121.114c-39.908-0.938-110.244-21.293-152.485-29.9l-357.85-72.955l-1386.681-289.336
		l-1.652-11.268c-11.865-79.424-34.043-140.725-100.641-190.078C3846.068,1022.655,3907.632,1048.876,3957.911,1061.532z
		 M3760.157,3624.548c52.764,4.617,109.389,12.914,162.252,7.957c50.268-4.717,102.586-20.25,152.016-31.312
		c3.223-0.569,6,0.035,9.223,0.445c5.221,9.422,2.847,23.432,2.484,33.967c-66.516,15.797-136.219,22.664-203.766,33.199
		c-108.592,16.933-216.616,35.76-325.612,50.226l-24.117-31.013l-13.822-16.448c0.113-22.859,0.438-45.717,0.973-68.572
		L3760.157,3624.548z M3527.142,3559.181c-0.039-35.191,0.238-70.379,0.832-105.563c56.514,1.166,113.549,8.918,169.875,13.846
		c67.998,5.953,136.172,9.715,204.083,16.658l1.359,111.094C3778.38,3580.919,3652.327,3571.608,3527.142,3559.181z
		 M3916.169,2112.886c-6.545-282.311-16.529-565.295-16.652-847.682c27.738,3.285,55.115,8.477,82.131,15.574
		c6.539,177.674,7.319,356.075,10.441,533.872c4.379,346.895,10.574,693.756,18.586,1040.585l7.196,369.557
		c0.949,38.227,10.289,167.848,2.584,198.059l-5.179,2.947c-24.645,4.144-49.342,7.945-74.092,11.402L3916.169,2112.886z
		 M4022.552,1292.544c113.35,23.789,227.303,44.256,340.248,70.025c7.658,82.219,4.91,167.52,7.137,250.219
		c5.301,221.668,8.412,443.365,9.334,665.092c-112.641-2.631-225.627-10.717-338.18-16.424
		C4037.802,1938.429,4031.622,1615.458,4022.552,1292.544z M4379.236,2323.584c3.707,306.172,9.877,612.292,18.51,918.358
		l-43.447,6.076c-96.545,14.648-194.104,25.113-291.006,37.272c-9.129-327.704-15.365-655.462-18.709-983.274
		C4155.619,2304.383,4268.47,2314.543,4379.236,2323.584z M4253.705,3304.069l381.141-47.314
		c353.121-47.304,706.743-90.5,1060.864-129.586c9.867-1.611,17.18-2.572,25.594,2.854c3.557,7.969,4.5,12.709,4.143,21.393
		l-1.307,37.149c-51.164,12.463-107.063,16.559-159.405,23.918l-367.365,49.055l-693.75,94.237
		c-137.777,19.107-275.057,41.162-413.086,58.599c-7.928,2.256-18.457,2.414-26.766,3.41l-0.457-89.274
		C4125.824,3317.294,4190.623,3311.921,4253.705,3304.069z M4421.846,2281.9c-1.963-303.077-12.522-606.247-12.569-909.323
		c113.538,19.518,227.139,47.285,340.032,70.617c0.48,286.735,12.182,573.586,13.617,860.351
		C4650.197,2302.227,4533.982,2293.174,4421.846,2281.9z M4764.859,2347.127c2.777,282.797,8.049,565.549,15.814,848.256
		l-39.744,5.35c-29.273,7.641-64.91,8.256-95.08,11.801c-68.969,7.77-137.834,16.359-206.596,25.77l-18.281-912.299
		c53.507,1.957,107.25,6.439,160.758,9.34C4642.668,2338.637,4704.191,2340.506,4764.859,2347.127z M4978.627,2316.863
		c-57.393-3.363-115.014-5.801-172.219-11.631c-3.076-91.852-2.045-184.078-3.967-276.006c-3.99-191.408-9.07-383.25-7.301-574.682
		c103.553,21.023,207.691,39.357,310.94,61.858c0.082,269.25,11.923,538.442,12.164,807.668
		C5071.691,2323.607,5025.098,2319.594,4978.627,2316.863z M5119.903,2365.414c3.855,105.521,3.387,211.471,5.484,317.063
		c3.094,155.449,7.764,311.356,7.717,466.823l-32.907,5.08c-92.795,9.217-185.232,25.524-277.758,37.395
		c-7.189-140.162-6.756-281.239-8.953-421.594c-2.209-141.153-7.043-282.663-5.684-423.809
		C4911.684,2350.273,5016.074,2359.156,5119.903,2365.414z M5161.071,2327.141c-3.123-76.963-2.379-154.401-3.967-231.446
		l-9.105-567.569c32.15,2.273,66.38,11.813,98.004,18.188c63.867,12.75,127.6,26.135,191.197,40.154
		c9.516,252.188,12.34,505.296,14.836,757.671C5355.022,2341.045,5257.926,2333.393,5161.071,2327.141z M5457.356,2717.024
		c1.723,131.455,6.85,262.664,7.318,394.196c-11.76,1.939-23.777,2.795-35.637,4.014c-82.805,12.697-168.568,20.941-252.006,29.174
		c-0.516-258.164-11.379-516.358-13.535-774.587c43.418,0.182,87.427,4.582,130.793,7.219c52.178,3.17,104.402,4.898,156.574,8.191
		C5458.633,2491.754,5455.95,2609.405,5457.356,2717.024z M5481.122,1594.847c31.582,3.445,63,12.018,94.16,18.199
		c42.785,8.49,86.027,15.047,128.333,25.74c2.074,240.074,5.533,480.127,10.377,720.159c-72.979-0.381-146.965-7.822-219.821-12.715
		l-7.518-428.122C5484.608,1810.337,5480.952,1702.66,5481.122,1594.847z M5723.524,3075.383
		c-7.284,5.068-13.834,4.799-22.441,5.783c-64.355,7.871-128.754,15.369-193.195,22.494
		c-6.065-238.025-13.278-477.053-12.727-715.143c73.646,3.398,147.398,9.51,220.986,14.273l6.808,464.203
		C5723.724,2924.428,5730.819,3022.59,5723.524,3075.383z M1387.407,1321.313c23.578-29.473,61.799-57.152,98.76-65.906
		c34.641-8.203,72.85-10.23,108.252-14.49c68.273-8.398,136.613-16.217,205.02-23.455l518.497-55.828
		c150.805-16.23,301.477-33.602,452.016-52.113l871.014-97.582c6.547-0.703,13.11-1.197,19.688-1.482
		c46.91-2.033,84.393,15.422,117.838,47.361c40.283,38.479,65.561,84.568,74.151,139.723c9.791,62.912,4.916,133.365,5.894,197.133
		l6.727,392.954l33.234,1654.203c-70.143-4.512-140.069-12.387-210.047-18.879c-57.539-5.344-115.658-8.771-172.904-16.623
		c-1.682-98.742-1.354-197.561-3.926-296.285c-3.801-139.801-10.578-279.459-20.332-418.975
		c-7.395-129.977-19.672-259.489-36.832-388.535c-17.16-129.051-39.154-257.272-65.982-384.663
		c-9.246-42.492-14.889-92.713-33.615-132.018c-11.912-25.014-34.483-44.186-54.914-62.139
		c-25.705-21.064-54.029-35.285-85.67-45.316c-99.428-31.523-232.535-42.68-337.852-54.018
		c-179.793-19.492-360.036-32.992-540.727-40.5c-180.691-7.508-361.432-9.01-542.221-4.506
		c-149.713,3.299-299.836,15.604-449.069,27.586l-0.41-107.584C1343.831,1432.987,1343.808,1375.812,1387.407,1321.313z
		 M2211.494,3318.612c-1.623-81.58-10.354-164.408-6.797-245.906c14.063-322.131,77.654-681.393,163.395-992.345
		c20.619-74.766,45.738-178.922,92.133-241.184c27.223-36.533,64.16-56.074,108.516-62.924c48.516,0.891,97.189,5.549,145.617,8.672
		c92.063,5.594,184.074,11.906,276.035,18.938c110.865,8.273,225.551,11.086,335.01,30.387
		c42.487,158.074,68.59,321.879,88.934,484.084c45.41,361.992,54.715,725.842,60.398,1090.202
		c-35.707,24.926-193.266,72.287-243.727,91.049c-31.804-7.811-63.82-11.197-96.563-11.314
		c-161.52-0.568-302.836,75.521-415.073,187.693c-96.1,101.93-154.342,223.488-192.498,356.883
		c-30.018,7.448-299.209,51.422-313.916,45.586c-1.272-3.615-1.787-4.6-2.32-8.912c-4.336-35.033,0.275-76.541,0.398-112.207
		l0.486-263.596C2211.523,3568.825,2213.984,3443.446,2211.494,3318.612z M3472.96,3460.046l2.807,0.903
		c7.365,21.721,0.972,140.748,0.697,173.906c-29.754-27.692-58.131-54.867-93.293-75.744
		c-26.302-14.613-53.174-27.035-80.602-39.328L3472.96,3460.046z M709.817,1802.65
		c154.395-155.203,968.016-178.254,1203.768-181.066c169.106-2.254,338.153-0.047,507.141,6.621
		c186.594,10.559,372.612,27.455,558.053,50.689c78.586,9.75,205.535,21.967,273.446,61.641
		c22.365,13.066,38.637,29.426,54.457,49.717c-131.731-20.795-268.893-25.711-401.872-35.643
		c-68.301-5.23-136.629-10.076-204.985-14.537c-40.875-2.619-82.453-6.51-123.416-5.461c-3.074,0.074-6.144,0.223-9.211,0.445
		c-3.067,0.227-6.127,0.525-9.182,0.896c-3.051,0.375-6.092,0.824-9.123,1.348c-3.027,0.523-6.043,1.121-9.047,1.793
		c-3,0.672-5.982,1.416-8.948,2.232c-2.965,0.816-5.906,1.705-8.824,2.666c-2.922,0.961-5.818,1.994-8.689,3.1
		c-2.871,1.102-5.713,2.273-8.525,3.516s-5.594,2.553-8.344,3.932c-2.746,1.379-5.459,2.824-8.138,4.336
		c-2.676,1.512-5.315,3.09-7.916,4.734c-2.602,1.641-5.16,3.344-7.676,5.109s-4.988,3.594-7.418,5.484
		c-2.426,1.887-4.805,3.832-7.137,5.836s-4.613,4.064-6.844,6.182s-4.408,4.287-6.533,6.51
		c-63.563,67.547-89.068,173.994-114.439,261.141c-63.264,217.33-103.494,438.416-132.738,662.649
		c-14.25,109.23-26.977,216.985-33.24,327.059c-5.449,95.631,1.77,192.106,4.412,287.819
		c-116.514,35.906-296.174,96.621-390.973,172.723c-123.498,99.141-119.268,208.928-130.817,352.313
		c-5.654,70.195-13.219,140.496-20.982,210.498c-292.391-9.195-584.477-24.305-876.259-45.328
		c-8.104-20.742-13.406-42.381-17.203-64.289c-11.01-63.545-16.096-247.699-5.221-309.557c3.744-21.293,10.682-43.342,23.707-60.814
		c11.385-15.27,25.658-22.547,44.373-25.248c72.809-10.5,174.844,0.691,250.418,2.426c94.137,1.816,188.254,4.377,282.352,7.681
		c56.315,1.805,114.041,1.641,170.033,8.139c19.857,2.303,42.996,4.582,58.893,17.754c26.244,21.75,26.373,60.967,29.139,92.039
		l-1.981-2.531l-3.363-4.166c-3.609-4.564-7.055-9.234-11.232-13.318c-16.816-16.412-39.322-27.117-61.834-33
		c-69.135-18.076-144.803-17.508-215.901-20.648c-108.121-4.379-216.277-7.588-324.469-9.627
		c-51.674-0.668-113.766-7.295-163.307,8.408c-17.713,5.614-37.893,13.289-46.406,31.131c-8.408,17.619-9.27,47.362-1.488,65.291
		c3.826,8.818,10.26,15.299,19.389,18.498c31.266,10.951,260.063,11.76,309.088,13.406c114.016,4.691,228.059,8.49,342.129,11.396
		c39.709,0.943,79.969,3.955,119.607,3.322c11.678-0.182,22.887-6.773,33.152-11.795l-6.399,59.789
		c-73.512,0.428-147.023-3.756-220.465-6.61l-309.633-11.824c-77.502-3.182-157.529-9.902-234.932-6.082
		c-10.541,0.521-21.422,1.998-31.084,6.492c-10.57,4.922-17.461,13.178-21.223,24.135c-11.777,34.289-2.637,99.088,13.623,130.881
		c13.395,26.179,31.822,43.646,59.795,52.342c65.092,20.238,195.815,19.816,270.715,24.023
		c89.039,5.195,178.123,9.438,267.252,12.727c53.162,2.033,108.246,5.942,161.356,2.332c13.74-0.931,26.865-4.131,38.871-11.039
		c22.687-13.049,33.498-38.385,39.328-62.848c11.719-49.148,8.807-106.869,11.467-157.418c2.637-50.063,10.166-101.83,5.508-151.846
		c-2.174-23.326-7.254-47.261-20.279-67.107c-17.215-26.227-45.246-37.893-75.17-43.072c-45.832-7.934-94.682-7.336-141.094-8.83
		l-214.617-6.451l-215.309-6.146c-48.861-1.477-99.234-5.314-147.949-1.354c-26.754,2.168-53.977,6.744-76.02,23.039
		c-33.018,24.404-38.748,62.051-43.688,99.955c-37.465-120.041-113.105-205.94-225.151-261.147
		c-35.795-17.637-79.744-33.48-110.53-59.145c-0.811-0.674-1.599-1.377-2.398-2.068c-0.267-4.223-0.454-8.448-0.561-12.674
		c-1.484-56.73-0.568-113.42,2.749-170.069c3.317-56.652,9.022-113.063,17.116-169.23
		C402.522,2746.596,584.125,1928.996,709.817,1802.65z M2165.75,4080.841c-160.707-0.566-321.34-4.311-481.899-11.232
		c-3.744-0.012-7.342-0.82-11.021-1.442c-7.365-18.615,4.693-80.285,7.195-101.438c3.902-32.959,8.736-66.088,10.676-99.229
		c2.777-47.332,1.775-94.857,8.566-141.896c4.096-28.354,11.086-57.105,22.465-83.461
		c65.391-151.506,304.512-213.944,445.893-270.188c7.113,25.998,1.043,214.483,0.932,255.996l-0.135,285.252
		C2168.357,3968.698,2170.338,4025.529,2165.75,4080.841z M1536.991,3705.354l-0.463,4.987c-20.726-0.344-41.447-0.928-62.162-1.752
		L1057.6,3696.56c-53.256-1.565-106.371-4.553-159.574-6.475c-27.053-0.979-55.09,0.27-81.914-3.058
		c-8.824-1.09-15.574-2.162-22.002-8.76c-0.065-6.885-1.172-4.465,2.754-9.516c14.49-18.621,51.58-18.223,73.189-20.068
		c47.361-4.037,97.418,1.201,145.043,2.66c83.309,2.097,166.604,4.686,249.885,7.764
		C1329.429,3661.527,1491.775,3656.593,1536.991,3705.354z M1193.087,3891.765c-132.238-4.664-264.44-10.225-396.604-16.682
		c-1.682-18.445-1.207-33.844,5.244-51.381c89.01-2.402,179.309,5.004,268.272,8.607l502.026,20.783
		c-0.375,16.576-1.295,32.765-3.07,49.26C1443.734,3903.554,1318.185,3896.997,1193.087,3891.765z M1564.56,3954.865
		c-2.941,10.114-7.049,17.438-12.732,26.268c-4.354,2.573-8.818,5.08-13.588,6.826c-39.287,14.408-594.51-19.887-666.657-28.735
		c-12.111-1.482-24.299-3.931-35.332-9.316c-13.084-6.381-22.02-14.783-26.666-28.746l533.778,20.045
		c72.914,2.707,146.842,2.144,219.545,7.383L1564.56,3954.865z M680.684,3834.771c0.674,64.008,5.484,122.953,21.029,185.221
		c-47.315-0.967-95.32-6.815-142.534-10.453c-66.123-5.092-132.507-8.713-198.448-15.832
		c-21.733-191.121-19.536-423.522-12.126-617.151c32.644,2.965,107.924,51.527,138.659,70.043
		c79.595,47.953,130.759,115.612,165.136,201.141c12.305,30.627,22.857,61.805,26.18,94.799
		C681.633,3772.913,680.362,3804.249,680.684,3834.771z M209.763,2804.34c-14.368-7.969-28.217-19.763-32.09-36.41
		c-10.641-45.727-4.873-124.699-5.271-173.842c-0.807-99.592-6.295-202.178,1.045-301.424c1.303-17.619,2.759-43.037,12.659-57.897
		c10.46-15.703,24.711-18.457,42.272-21.996c32.184-2.807,68.587-3.293,100.438,3.112c15.424,3.099,31.809,8.601,40.433,22.729
		c31.865,52.201,20.711,334.922,13.904,405.674c-3.779,39.276-11.655,77.59-20.17,116.039
		c-16.507-14.49-27.977-38.643-48.566-47.285c-9.77-4.096-17.014-4.893-26.785-0.82c-3.301,4.588-4.39,8.262-4.32,13.98
		c0.268,21.744,11.302,33.164,25.859,47.49c8.634,7.734,17.235,15.498,24.962,24.164c8.075,9.053,18.764,20.355,18.08,33.223
		c-3.322,4.576-4.493,5.285-10.213,6.644C316.089,2843.879,233.529,2817.518,209.763,2804.34z M975.651,4847.711
		c-82.693-35.098-150.492-114.949-183.281-197.35c66.672,5.957,133.305,12.33,199.899,19.119
		c38.356,90.41,96.34,155.063,179.789,205.506C1108.249,4869.877,1035.3,4873.029,975.651,4847.711z M1460.615,4800.959
		c-20.367,16.049-42,30.697-65.479,41.818c-55.664,26.373-114.106,30.651-172.318,9.732
		c-82.717-29.725-144.598-101.186-181.072-178.993c162.076,22.635,326.719,26.303,488.514,50.537
		C1508.673,4752.689,1488.253,4777.967,1460.615,4800.959z M2253.6,4586.699c-5.795,42.486-33.405,73.916-66.199,98.988
		c-6.422,3.768-12.797,7.078-19.746,9.803c-124.805,48.85-985.132-48.316-1173.833-66.545
		c-179.836-17.367-362.731-27.668-541.101-56.227c-42.666-6.826-87.597-14.42-126.857-33.169
		c-21.94-10.477-37.069-32.889-44.491-55.459c-17.923-54.504-7.055-163.377-7.973-225c-0.751-50.338-6.214-104.197-1.775-154.201
		c1.174-13.23,4.142-25.605,10.327-37.436c9.444-18.053,22.569-24.469,41.387-29.971c82.351-4.271,199.11,12.803,284.403,18.211
		l699.135,44.455c209.66,11.303,420.229,13.441,630.147,19.605c72.51,2.126,148.576-2.783,220.541,4.476
		c33.926,3.428,61.189,12.129,82.922,40.178c7.963,10.277,13.939,22.131,16.09,35.004c8.508,50.912,2.549,111.393,2.227,163.236
		C2258.404,4427.259,2261.984,4525.229,2253.6,4586.699z M2265.893,4671.895c-0.738-0.832-2.239-1.383-2.215-2.496
		c0.047-2.555,14.549-22.694,16.746-26.584c7.143-12.673,11.438-27.07,14.08-41.332c10.881-58.811,4.986-126.703,5.08-186.41
		c47.396-8.918,96.498-13.652,144.352-20.332c58.195-8.121,116.215-17.923,174.516-25.166c1.703,1.586,3.422,3.154,5.156,4.706
		l-3.334,0.878c0,0.475-0.011,0.949,0.006,1.424c1.025,31.734-10.295,70.541-14.936,102.615
		c-6.427,44.391-10.418,89.256-14.959,133.881C2482.088,4631.961,2373.924,4651.566,2265.893,4671.895z M3312.302,4832.453
		c-56.684,74.098-127.23,117.955-219.703,130.348c-67.576,1.535-123.217-19.172-177.023-59.589
		c-105.281-79.084-160.436-214.336-177.58-341.655c-27.609-205.055,8.25-424.67,136.225-591.616
		c54.791-71.473,125.602-116.28,215.326-128.104c58.02-4.506,119.619,20.379,165.305,54.744
		c112.008,84.246,160.711,231.481,179.338,365.045C3460.579,4450.89,3430.696,4677.66,3312.302,4832.453z M3530.276,4414.117
		l-38.162-7.119c-2.942-34.324-2.672-68.889-5.813-103.277c-12.34-135-49.143-265.231-134.309-373.36
		c-53.285-67.653-131.596-118.723-218.344-128.11c-80.725-8.736-157.401,17.063-219.815,67.963
		c-146.696,119.631-207.785,305.203-226.823,487.658c-3.645,103.372-0.018,202.553,25.734,303.417
		c33.574,131.514,109.998,242.033,227.649,311.262c-82.934-3.615-156.873-10.623-230.778-52.611
		c-94.254-53.548-147.153-151.242-175.119-252.633c30.41-6.322,60.867-10.793,90.281-21.077
		c19.295-54.439,20.379-128.871,27.914-186.58c26.273-201.24,64.746-430.178,193.483-594.229
		c73.436-93.574,170.244-166.992,290.637-181.699c15.078-1.289,30.178-1.664,45.299-1.125
		c75.937,2.291,146.303,44.912,197.15,99.006C3527.153,3938.921,3535.544,4210.345,3530.276,4414.117z M3619.573,4396.31
		c-14.619,3.732-29.936,5.707-44.807,8.285c7.564-197.297-7.371-447.633-128.537-611.303
		c-56.573-76.424-137.016-137.297-232.934-151.248c-108.744-15.814-210.908,25.852-296.391,90.416
		c-136.178,112.283-214.43,273.727-257.397,442.061c-12.744,49.922-21.053,101.063-32.42,151.336
		c-104.261,10.025-221.584,32.988-326.989,48.205c-1.81-60.539,10.992-163.875-12.474-216.41
		c-7.278-16.295-18.311-27.897-30.48-40.523l183.92-27.973c39.914-6.129,81.862-10.395,120.58-21.949
		c32.924-117.276,72.955-219.012,150.357-315.129c100.506-124.811,225.908-203.268,386.754-220.635
		c18.527-2.092,38.186-1.758,56.789-0.885c118.963,5.584,240.199,70.981,319.131,158.543
		C3658.134,3892.597,3633.396,4143.789,3619.573,4396.31z M4298.887,4218.701c-211.717,53.391-421.39,115.553-634.149,164.982
		c-0.252-23.924,2.121-48.029,3.697-71.9c9.656-149.315,11.396-305.889-38.355-448.952c-12.357-35.548-29.127-69.006-45.615-102.761
		c81.246-17.315,165.434-25.723,247.494-39.194l221.262-34.916c77.76-12.803,155.227-27.129,233.402-37.318
		c7.523-1.289,3.738-1.424,11.355,0.551c6.469,19.324,0.281,141.551,0.176,169.5
		C4297.557,3952.033,4297.801,4085.368,4298.887,4218.701z M4435.978,4178.564l-94.664,27.129
		c3.088-76.313,1.243-153.194,0.815-229.559l-0.211-379.348c-70.512,6.826-141.78,20.977-211.87,31.822
		c-1.031-12.545-1.283-25.195-1.805-37.775c79.664-15.369,160.201-26.051,240.165-39.756c98.671-16.91,196.553-36.563,295.98-48.979
		l9.527-0.082c-2.66,5.133-24.252,12.773-30.627,16.676c-22.846,13.998-44.742,31.693-63.493,50.795
		C4432.978,3718.995,4434.578,3983.195,4435.978,4178.564z M4416.414,4413.232c-47.608-39.896-74.104-98.695-79.249-159.791
		c47.408-13.201,100.781-23.168,143.385-48.129c4.237-48.545-0.492-100.278-0.205-149.156
		c0.82-140.537,18.721-315.182,107.309-428.93c39.193-50.32,88.377-84.914,152.426-92.924c33.17-1.248,63.902,6.99,92.771,23.068
		c69.398,38.643,123.287,131.766,144.979,206.209c-34.342-60.199-72.832-119.174-139.26-147.428
		c-2.535-1.09-5.094-2.117-7.676-3.082c-2.586-0.965-5.193-1.863-7.822-2.695s-5.277-1.598-7.945-2.297
		c-2.664-0.703-5.346-1.338-8.045-1.904s-5.412-1.065-8.139-1.494c-2.722-0.429-5.455-0.791-8.197-1.084
		c-2.742-0.293-5.49-0.52-8.244-0.68c-2.754-0.156-5.51-0.242-8.268-0.257c-2.758-0.02-5.514,0.029-8.268,0.146
		c-2.758,0.121-5.51,0.31-8.256,0.568c-2.746,0.254-5.482,0.578-8.209,0.973c-2.73,0.395-5.449,0.856-8.156,1.383
		c-2.707,0.531-5.398,1.129-8.074,1.793c-2.68,0.664-5.338,1.395-7.975,2.191c-2.641,0.797-5.26,1.66-7.857,2.59
		c-2.598,0.926-5.17,1.918-7.717,2.977c-74.637,30.686-126.709,112.863-155.9,184.576c-71.871,176.578-68.168,382.583,4.758,557.971
		c24.322,53.262,53.619,86.543,99.363,122.988C4579.076,4476.83,4479.273,4465.908,4416.414,4413.232z M4907.283,4390.345
		c-30.422,45.211-63.832,69.979-117.891,80.584c-34.957,2.607-64.318-2.959-94.734-21.117
		c-73.611-43.928-106.969-129.176-127.26-208.366c-38.52-150.346-23.948-348.574,57.141-484.172
		c31.307-52.365,69.516-94.067,130.418-109.459c33.416-2.115,60.217,3.106,89.098,21.358
		c77.191,48.779,113.49,157.184,130.746,241.635C5003.629,4051.955,4988.799,4269.22,4907.283,4390.345z M5131.129,3473.634
		c-60.896,50.636-105.773,163.4-128.115,237.223c-21.223-51.961-42.984-96.24-81.393-137.42
		c-50.344-49.33-102.111-75.363-171.439-87.024c142.336-28.242,287.977-46.846,431.725-66.351
		c7.254-0.914,10.284-2.531,17.004,1.025C5186.079,3440.774,5149.827,3458.089,5131.129,3473.634z M5454.579,3471.899
		c-25.781-18.515-52.219-34.049-81.152-47.138c-24.914-9.311-50.625-16.529-76.137-24.012c44.66-11.396,91.91-16.254,137.643-21.586
		c4.043-0.686,8.531-0.328,12.639-0.346C5461.668,3394.339,5454.989,3449.628,5454.579,3471.899z M5606.084,3309.981
		c-99.556,14.42-199.488,27.292-298.846,42.879l-854.772,138.287c-161.321,27.41-321.973,53.461-482.227,86.865l-25.102,5.414
		c-1.664-34.184-1.605-68.408-1.81-102.627c320.743-47.617,641.84-92.678,963.293-135.182l789.065-107.197
		c10.195-1.77,21.311-1.752,31.67-2.52l0.152,56.238C5687.77,3300.231,5646.274,3304.157,5606.084,3309.981z M5829.854,3274.005
		c-0.604,2.25-2.959,3.598-4.436,5.402l-57.24,8.807c-0.766-368.961-4.899-737.883-12.399-1106.767
		c-2.777-115.43-4.853-230.873-6.229-346.33c-1.212-61.91-6.111-125.748-2.648-187.512c16.863,1.816,32.484,4.998,48.896,9.211
		l27.188,1296.423C5823.737,2991.014,5834.501,3256.684,5829.854,3274.005z"/>
	<path d="M651.463,3735.788c-0.199-1.957-0.445-3.908-0.738-5.853c-0.293-1.942-0.635-3.875-1.025-5.801
		c-0.391-1.926-0.828-3.842-1.313-5.748c-0.594-2.277-1.242-4.537-1.945-6.779c-0.707-2.242-1.467-4.467-2.279-6.674
		c-0.816-2.207-1.685-4.392-2.607-6.556c-0.926-2.16-1.902-4.299-2.93-6.416c-1.031-2.113-2.113-4.199-3.246-6.258
		c-1.133-2.063-2.316-4.096-3.551-6.1c-1.23-2-2.512-3.969-3.844-5.906c-1.332-1.941-2.711-3.846-4.137-5.713
		c-1.426-1.871-2.896-3.705-4.412-5.502c-1.52-1.797-3.08-3.557-4.682-5.279c-1.605-1.719-3.252-3.396-4.94-5.033
		c-1.688-1.641-3.414-3.236-5.18-4.787c-1.766-1.555-3.57-3.063-5.414-4.524c-1.84-1.465-3.715-2.883-5.625-4.254
		c-1.91-1.367-3.856-2.687-5.836-3.961c-1.975-1.273-3.982-2.498-6.019-3.674c-34.41-19.922-71.483-21.756-109.983-17.965
		c-40.424,9.627-75.535,26.865-98.544,63.258c-17.627,27.879-24.29,62.631-16.249,94.805c9.046,36.199,35.121,66.205,67.404,84.006
		c36.326,20.039,73.326,23.238,113.756,17.121c39.878-9.451,74.918-26.362,96.838-62.912c1.016-1.684,1.988-3.391,2.918-5.121
		c0.93-1.734,1.816-3.488,2.66-5.262c0.844-1.773,1.643-3.568,2.396-5.385c0.754-1.816,1.463-3.649,2.127-5.496
		c0.664-1.852,1.283-3.716,1.857-5.595c0.57-1.883,1.094-3.777,1.57-5.684c0.481-1.906,0.912-3.822,1.295-5.748
		c0.383-1.929,0.717-3.867,1.002-5.812c0.289-1.946,0.527-3.895,0.715-5.848c0.191-1.957,0.334-3.918,0.428-5.883
		c0.094-1.961,0.139-3.926,0.135-5.895c-0.004-1.965-0.055-3.927-0.152-5.888C651.813,3739.7,651.663,3737.741,651.463,3735.788z
		 M599.022,3789.571c-15.693,28.107-42.984,40.647-72.756,48.246c-25.784,1.84-49.216,0.639-73.213-10.389
		c-25.099-11.537-46.242-31.529-55.262-58.054c-0.971-2.864-1.791-5.768-2.459-8.713c-0.667-2.949-1.179-5.923-1.534-8.924
		c-0.356-3.004-0.554-6.016-0.595-9.035c-0.04-3.024,0.077-6.041,0.353-9.053c0.275-3.008,0.707-5.994,1.296-8.959
		c0.589-2.965,1.33-5.89,2.225-8.777c0.895-2.887,1.938-5.719,3.129-8.496c1.191-2.781,2.525-5.49,4-8.127
		c15.848-28.482,42.495-42.51,72.55-51.293c26.524-1.746,49.108-2.842,74.003,8.789c25.03,11.695,45.497,33.691,54.21,60.006
		C612.797,3740.429,611.256,3767.663,599.022,3789.571z"/>
	<path d="M5253.438,4173.835c15.252,9.785,30.926,14.402,48.703,10.096c2.215-0.543,4.418-1.127,6.609-1.752
		c53.736-27.217,82.664-64.951,101.033-121.717c30.258-93.51,30.316-221.344-16.195-309.862
		c-15.34-29.186-39.533-57.873-71.807-68.332c-9.457-3.064-19.172-4.559-29.068-4.986c-28.23,6.082-46.307,23.607-61.893,47.443
		c-54.797,83.801-70.389,217.459-49.659,313.946C5190.702,4083.062,5213.506,4148.212,5253.438,4173.835z M5301.778,3722.704
		c4.828,0.498,9.768,1.424,14.262,3.346c18.604,7.957,31.775,29.889,39.832,47.467c38.291,83.596,40.459,197.549,7.354,283.149
		c-11.455,29.608-32.561,69.205-63.24,81.645c-9.703,3.938-17.027,5.707-27.076,1.752c-8.648-11.443-14.578-23.104-20.695-35.959
		c18.697-4.617,32.889-8.912,48.076-21.592c38.245-31.927,51.03-86.057,54.452-133.688c6.064-84.58-18.914-148.043-73.746-211.295
		L5301.778,3722.704z M5222.008,4029.935c-17.443-65.983-2.63-195.153,30.862-255.112c4.283,3.053,8.074,6.457,11.725,10.236
		c36.311,37.547,47.461,99.639,46.301,149.954c-1.049,45.451-10.729,84.176-44.573,116.549c-2.384,1.101-4.757,2.268-7.224,3.176
		c-8.719,3.217-15.563,2.865-23.988-1.248C5228.061,4046.13,5224.633,4039.849,5222.008,4029.935z"/>
	<path d="M2054.738,3681.278c-47.039-31.494-105.662-40.746-161.314-35.666c-49.688,5.889-103.254,22.681-135.557,63.427
		c-1.297,1.66-2.555,3.35-3.774,5.069c-1.215,1.719-2.389,3.465-3.521,5.238c-1.133,1.778-2.221,3.58-3.264,5.408
		c-1.047,1.828-2.049,3.682-3.006,5.561c-0.953,1.875-1.863,3.773-2.73,5.695c-0.863,1.918-1.68,3.857-2.449,5.818
		c-0.773,1.961-1.498,3.938-2.174,5.93c-0.676,1.996-1.303,4.006-1.881,6.029c-0.578,2.027-1.108,4.064-1.588,6.112
		c-0.48,2.051-0.912,4.113-1.295,6.187c-0.383,2.07-0.715,4.149-0.996,6.235c-0.281,2.086-0.512,4.18-0.691,6.281
		c-0.18,2.098-0.309,4.199-0.387,6.305c-0.078,2.102-0.107,4.205-0.088,6.311c0.023,2.105,0.098,4.211,0.223,6.317
		c0.121,2.102,0.295,4.199,0.521,6.293c4.254,36.639,24.598,68.672,53.918,90.563c49.57,37.013,118.4,46.318,178.307,37.031
		c50.039-7.769,100.137-23.173,131.596-66.023c20.227-27.545,26.93-62.121,21.123-95.566
		C2109.148,3731.997,2086.127,3702.302,2054.738,3681.278z M2060.849,3842.065c-23.021,33.334-64.67,44.192-102.322,50.531
		c-44.854,4.969-95.737,2.01-135.651-21c-24.246-13.98-43.342-36.229-49.623-63.897c-4.91-21.639-1.248-44.432,11.098-62.977
		c22.928-34.453,64.371-50.08,103.043-58.523c46.143-4.295,98.356,0.873,138.352,26.144c23.461,14.824,42.463,37.026,47.912,64.787
		C2078.099,3799.749,2073.998,3823.029,2060.849,3842.065z"/>
	<path d="M4844.828,3774.794c-17.473-11.877-34.213-16.406-55.16-15.709c-39.328,10.342-65.607,34.19-85.98,68.742
		c-61.143,103.711-66.299,249.088-36.064,363.077c12.445,46.904,33.598,99.855,77.197,126c16.91,10.143,32.355,13.383,51.855,13.354
		c37.816-7.705,61.992-21.997,84.229-54.633c61.553-90.358,62.836-254.121,41.982-357.018
		C4912.604,3867.871,4889.453,3805.128,4844.828,3774.794z M4719.502,4181.335c-29.842-37.717-31.143-134.502-25.148-180.967
		c4.775-37.066,16.359-80.227,47.232-103.746c4.119-0.528,8.139-0.633,12.305-0.533c15.064,0.357,29.936,11.355,39.211,22.541
		c30,36.17,34.148,102.744,30.082,147.727c-4.154,45.955-18.082,91.061-54.516,121.494c-8.15,3.738-19.453,8.221-28.605,7.066
		C4731.402,4193.828,4724.688,4187.892,4719.502,4181.335z M4829.869,4267.357c-9.744,10.031-22.02,17.684-36.416,17.455
		c-19.26-0.299-32.467-12.463-45.334-25.307c-4.148-5.191-7.395-10.347-10.752-16.055l1.775-3.585
		c22.664-2.133,43.008-7.354,61.594-21.106c40.043-29.637,57.621-84.1,64.189-131.596c8.865-64.107,1.734-143.022-39.387-195.762
		c-21.908-28.102-46.57-39.076-80.848-43.412c14.625-19.693,28.459-30.967,49.371-43.008c14.063-0.34,25.201,3.844,35.877,13.189
		c46.5,40.705,58.184,142.108,60.369,199.94C4893.168,4093.843,4886.354,4209.203,4829.869,4267.357z"/>
	<path d="M3214.303,4095.009c-30.926-22.4-66.65-34.219-104.988-33.545c-62.678,7.969-110.865,39.298-149.074,89.133
		c-70.201,91.57-95.754,221.221-79.793,334.02c12.229,86.373,46.816,173.285,118.529,226.992
		c31.834,23.836,67.834,35.789,107.631,35.068c61.781-8.971,108.27-37.107,145.916-87.141
		c72.146-95.889,90.774-236.092,73.506-352.271C3314.182,4227.525,3281.727,4143.847,3214.303,4095.009z M3228.87,4618.457
		c-27.838,43.676-62.063,72.533-113.449,83.795c-27.545,0.07-50.936-2.766-75.797-15.592
		c-54.68-28.219-85.764-89.497-102.967-145.922c-2-6.747-3.832-13.538-5.496-20.374c-1.664-6.84-3.158-13.715-4.482-20.625
		c-1.328-6.911-2.484-13.848-3.469-20.813c-0.985-6.969-1.799-13.957-2.443-20.965c-0.641-7.004-1.109-14.021-1.406-21.053
		c-0.297-7.031-0.422-14.064-0.375-21.1c0.051-7.035,0.271-14.066,0.662-21.093c0.395-7.024,0.961-14.035,1.699-21.036
		c0.738-6.996,1.648-13.971,2.73-20.924s2.334-13.875,3.756-20.766c1.422-6.891,3.012-13.745,4.77-20.56
		c1.758-6.813,3.682-13.578,5.771-20.297c2.09-6.718,4.344-13.381,6.762-19.986c2.422-6.61,5.002-13.154,7.74-19.635
		c2.738-6.48,5.635-12.89,8.689-19.23c3.055-6.34,6.264-12.6,9.627-18.779c28.822-53.408,65.93-91.189,125.151-108.615
		c31.969-2.748,60.152,2.396,87.592,20.01c52.693,33.82,80.385,98.25,93.885,157.096
		C3302.27,4388.582,3288.448,4524.958,3228.87,4618.457z"/>
	<path d="M3170.177,4182.32c-18.949-10.471-38.274-14.215-59.696-12.773c-39.82,11.314-67.969,34.717-88.201,71.021
		c-44.273,79.453-52.893,202.266-27.926,288.838c11.795,40.893,33.223,86.754,71.918,108.188
		c21.569,11.948,41.315,13.125,65.385,11.731c37.348-9.404,62.121-33.545,81.363-66.135c46.928-79.471,55.02-202.665,31.799-290.543
		C3233.469,4249.703,3210.366,4204.509,3170.177,4182.32z M3177.741,4557.555c-15.234,27.211-32.677,42.275-62.484,50.824
		c-9.727-0.574-17.59-2.139-26.127-7.102c-29.859-17.35-44.414-52.155-52.77-84.17c-19.916-76.324-17.197-187.5,25.16-256.43
		c15.92-25.905,32.982-42.932,62.906-49.975c8.156,1.213,15.609,2.982,22.822,7.189c27.293,15.92,42.405,47.285,51.182,76.459
		C3222.055,4372.902,3218.428,4484.88,3177.741,4557.555z"/>
	<path d="M704.989,4247.412c-19.688-11.039-54.51-9.006-76.705-7.893c-5.443,8.396-8.32,13.629-9.229,23.672
		c2.748,7.635,3.328,9.844,10.717,14.209c16.94,10.014,53.69,5.725,72.932,5.408c6.984-7.096,9.117-11.057,12.023-20.59
		C712.964,4254.736,712.032,4251.361,704.989,4247.412z"/>
	<path d="M1630.683,4314.244c-18.692-12.474-66.199-9.269-89.121-10.055c-7.02,7.037-9.223,10.875-12.146,20.373
		c1.195,7.834,0.943,10.172,7.758,15.211c18.51,13.676,69.692,11.373,93.088,12.592c4.553-6.275,10.424-14.49,9.656-22.816
		C1639.22,4321.949,1636.994,4318.457,1630.683,4314.244z"/>
	<path d="M574.512,4233.173c-0.182-2.43-0.426-4.852-0.734-7.266c-0.307-2.418-0.676-4.824-1.108-7.219
		c-0.432-2.395-0.925-4.777-1.48-7.148c-0.555-2.371-1.171-4.727-1.848-7.066c-10.26-35.561-33.582-66.568-66.715-83.708
		c-24.467-12.656-48.608-15.451-75.695-13.048c-38.879,11.795-69.434,30.768-88.969,67.828
		c-18.453,35.01-22.743,77.485-10.268,115.172c0.664,2.04,1.378,4.063,2.142,6.07c0.764,2.004,1.578,3.989,2.44,5.953
		c0.862,1.964,1.773,3.908,2.732,5.83c0.959,1.918,1.966,3.813,3.019,5.684c1.053,1.871,2.152,3.713,3.296,5.525
		c1.145,1.816,2.334,3.603,3.567,5.361c1.233,1.754,2.509,3.479,3.828,5.174c1.319,1.691,2.679,3.35,4.081,4.975
		c1.401,1.625,2.842,3.215,4.322,4.77c1.48,1.555,2.999,3.073,4.554,4.553c1.556,1.476,3.147,2.914,4.774,4.313
		c1.627,1.402,3.288,2.762,4.982,4.078c1.695,1.317,3.421,2.59,5.178,3.821c1.757,1.234,3.545,2.421,5.361,3.562
		c1.816,1.145,3.66,2.243,5.531,3.293c1.871,1.051,3.767,2.055,5.688,3.012c23.273,11.66,49.604,16.16,75.489,14.613
		c37.76-8.842,65.708-31.043,85.698-64.283c1.264-2.082,2.474-4.193,3.63-6.334c1.155-2.145,2.254-4.316,3.297-6.516
		c1.043-2.199,2.028-4.426,2.956-6.68c0.928-2.25,1.796-4.523,2.606-6.82c0.81-2.296,1.56-4.611,2.251-6.943
		c0.69-2.336,1.32-4.687,1.888-7.055c0.569-2.368,1.076-4.748,1.521-7.143c0.445-2.395,0.828-4.799,1.149-7.213
		c0.321-2.414,0.58-4.834,0.775-7.26c0.196-2.426,0.328-4.855,0.398-7.289c0.07-2.435,0.077-4.87,0.021-7.307
		C574.813,4238.029,574.694,4235.599,574.512,4233.173z M520.289,4295.464c-12.87,23.859-31.084,35.994-56.485,43.547
		c-20.847,0.902-39.694-1.189-58.232-11.419c-2.755-1.536-5.427-3.204-8.015-5.004c-2.587-1.801-5.078-3.729-7.472-5.783
		c-2.394-2.051-4.678-4.217-6.854-6.498c-2.175-2.285-4.231-4.672-6.166-7.16c-1.936-2.488-3.741-5.068-5.417-7.74
		c-1.676-2.672-3.213-5.42-4.612-8.244c-1.399-2.824-2.653-5.713-3.761-8.666c-1.109-2.954-2.066-5.953-2.873-9
		c-7.186-26.127-4.176-56.871,10.064-80.186c14.099-23.08,33.917-34.225,59.583-40.4c17.928-0.867,32.795,0.639,49.184,8.502
		c2.889,1.406,5.699,2.957,8.431,4.652c2.732,1.691,5.37,3.519,7.915,5.484c2.545,1.961,4.985,4.047,7.318,6.258
		c2.333,2.207,4.548,4.529,6.645,6.967c2.097,2.434,4.065,4.969,5.903,7.605c1.839,2.637,3.539,5.359,5.1,8.168
		c1.562,2.809,2.977,5.689,4.246,8.643c1.268,2.953,2.384,5.962,3.346,9.029C536.489,4240.539,533.385,4271.189,520.289,4295.464z"
		/>
	<path d="M1945.103,4204.679c-27.486-17.268-56.191-21.158-87.92-20.027c-39.276,4.729-70.822,20.953-95.625,52.564
		c-25.219,32.145-34.488,73.324-29.285,113.52c5.121,39.562,23.83,76.458,56.127,100.564c30.223,22.547,62.625,28.389,99.252,27.756
		c40.817-7.577,75.1-26.719,99.358-61.29c23.613-33.65,31.113-75.445,22.916-115.505
		C2001.863,4262.851,1979.515,4226.3,1945.103,4204.679z M1963.466,4376.178c-14.285,31.43-39.773,48.615-70.857,60.656
		c-19.295,1.852-35.461,1.184-53.678-6.046c-26.9-10.676-47.959-32.532-59.227-59.028c-11.813-27.779-12.896-61.072-0.451-88.822
		c14.109-31.458,39.305-46.183,70.178-57.586c20.291-2.092,36.809-1.324,55.975,6.428c26.783,10.833,46.764,32.472,57.861,58.898
		C1974.705,4317.894,1975.777,4349.09,1963.466,4376.178z"/>
	<path d="M1485.388,4239.232c-42.674-6.264-86.836-6.832-129.908-9.193c-70.18-3.68-140.334-7.807-210.463-12.381L911.579,4202.4
		c-41.666-2.707-85.113-8.051-126.756-6.475c-11.801,11.291-10.752,30.123-11.115,45.545c-0.65,27.51-0.897,195.563,8.039,213.416
		c46.482,13.477,666.598,64.26,703.366,59.109c3.873-5.449,6.293-9.639,7.389-16.313c5.373-32.906,7.535-201.691,2.473-232.705
		C1493.386,4255.257,1491.734,4247.042,1485.388,4239.232z M1453.876,4473.273c-24.715,2.285-52.137-2.075-76.975-4.037
		l-137.361-11.069c-140.203-11.479-283.219-18.181-422.496-37.347c-1.949-60.993-2.451-121.997-1.506-183.012
		c131.139,4.987,262.33,14.766,393.323,22.98c81.902,5.139,165.387,6.697,246.78,16.453
		C1456.056,4342.539,1454.556,4407.971,1453.876,4473.273z"/>
	<path d="M3235.643,3111.846c-14.572-9.803-34.266-10.694-51.112-8.145c-49.055,6.252-141.896,12.357-184.934,26.127
		c-13.992,4.482-26.959,11.783-36.428,23.221c-13.113,15.838-15.018,35.93-12.211,55.652c2.203,15.498,9.609,29.039,22.635,38.022
		c18.305,12.615,40.734,9.469,61.605,7.845c46.623-7.769,139.465-15.516,177.633-30.246c13.588-5.25,25.735-13.646,34.418-25.453
		c10.189-13.869,16.342-32.139,12.938-49.324C3257.311,3135.014,3248.006,3120.167,3235.643,3111.846z M3219.923,3166.297
		c-16.553,26.039-167.555,42.469-201.627,46.137c-6.029,0.902-10.465,0.551-16.523,0.152c-6.738-4.992-7.582-6.439-11.051-14.133
		c0.633-4.676,0.199-8.027,3.34-11.819c22.096-26.66,157.875-37.881,195.639-41.847c7.599-0.926,13.23-1.031,20.912,0.152
		c5.186,3.908,8.678,6.316,11.42,12.31C3222.02,3162.161,3222.688,3161.944,3219.923,3166.297z"/>
	<path d="M2341.268,3065.37c30.275,9.047,54.979,1.225,81.334-13.957c95.824-55.195,183.715-124.904,279.586-180.393
		c34.119,0.135,70.172,2.513,103.951-2.648c26.83-7.23,46.547-18.199,60.697-43.008c4.365-7.652,7.846-16.066,11.432-24.112
		c46.588-14.379,91.4-35.97,137.186-53.027c58.295-21.715,135.052-43.242,188.777-72.316c19.008-10.283,41.789-24.533,51.703-44.227
		c11.321-22.488,17.326-48.112,20.145-73.014c11.051-97.688,6.346-514.776-17.543-585.176
		c-5.959-17.549-21.246-39.709-38.308-48.017c-14.373-7.002-31.875-9.944-47.725-11.713c-36.938-4.113-75.006-4.26-112.16-5.771
		l-198.557-7.588c-98.063-3.68-209.426-13.494-306.533-9.967c-30.563,9.217-51.469,25.313-66.352,53.508
		c-30.281,57.346-46.477,127.864-62.273,190.547c-64.969,257.813-107.273,540.129-96.129,806.298
		c-18.715,8.414-42.434,17.912-50.818,38.326c-5.309,12.932-1.512,27.299,4.43,39.328
		C2295.254,3040.989,2317.35,3058.221,2341.268,3065.37z M2840.076,2763.413c-0.726,13.101-2.238,26.145-7.928,38.139
		c-6.533,13.781-15.82,19.623-29.619,24.99c-61.899,7.705-128.614,1.758-190.87,0.199c-6.902-8.18-14.092-16.184-17.408-26.56
		c-10.278-32.151-16.371-514.383-14.221-569.667c0.416-10.734,0.627-21.51,5.854-31.184c7.213-13.365,19.195-17.256,32.93-21.486
		c37.775-2.109,164.35-6.404,193.4,5.678c9.164,3.809,14.438,12.088,17.783,21.006
		C2840.715,2233.092,2843.305,2704.895,2840.076,2763.413z M2372.814,2792.124c8.936-250.641,53.813-524.081,128.631-763.36
		c10.822-34.6,18.65-73.893,53.01-91.905c64.512-5.736,616.055,12.51,646.489,24.328c7.916,3.07,11.496,11.08,14.268,18.703
		c24.967,68.795,28.945,484.032,21.064,569.725c-1.775,19.23-4.769,43.008-13.453,60.352
		c-17.707,35.344-285.1,121.864-337.477,140.362l-3.891-345.258c-0.809-57.979,2.953-119.408-4.693-176.69
		c-3.105-23.25-7.951-40.799-20.848-60.82c-0.75-0.867-1.465-1.764-2.244-2.607c-20.192-21.779-43.459-29.473-72.826-30.375
		c-35.59-1.102-144.639-3.896-175.863,1.969c-13.934,2.619-26.965,7.916-37.184,17.965c-15.006,14.754-23.268,33.551-26.449,54.182
		c-7.506,48.732-2.672,104.139-2.145,153.469c1.301,121.611,6.51,243.153,6.797,364.77c-2.379,0.773-4.752,1.57-7.119,2.391
		c-52.863,18.393-124.084,61.33-144.363,117.176c-7.5,20.672-5.707,45.252-15.469,65.115l-3.709-2.795
		C2365.279,2874.096,2371.537,2827.977,2372.814,2792.124z M2552.047,2812.039c-38.766,21.487-75.662,46.125-113.315,69.475
		l-3.627,0.369l-3.234-3.141c1.277-5.719,2.678-10.787,5.168-16.119c20.783-44.549,61.787-71.824,106.313-88.184l3.24,2.209
		C2551.461,2788.074,2551.35,2799.811,2552.047,2812.039z M2455.648,2920.25c37.53-22.09,73.834-46.623,110.279-70.453
		c16.031,1.693,41.977,15.364,58.236,21.246l-161.59,102.932c-27.07,17.268-53.285,36.229-81.615,51.398
		c-6.715,1.336-14.426,1.383-21.176,0.152c-16.582-3.023-26.543-18.129-35.408-30.908
		C2367.459,2968.737,2412.318,2945.756,2455.648,2920.25z"/>
	<path d="M437.034,2920.022c80.394,75.076,589.037,101.08,716.613,100.605c249.018,0.727,498.733-24.082,744.838-60.457
		c46.131-6.82,159.979-14.572,191.496-47.602c1.09-1.143,2.156-2.32,3.188-3.521c42.867-49.863,58.711-210.264,69.205-277.401
		c18.48-118.278,40.693-235.85,66.639-352.717c13.564-58.717,26.25-118.242,42.246-176.332
		c18.832-68.396,64.981-161.379,60.838-230.637c-1.84-30.791-15.475-58.904-39.516-78.463c-13.6-11.063-28.857-17.133-46.037-20.115
		c-41.121-7.148-85.641-6.727-127.295-8.168c-72.762-2.73-145.549-4.254-218.362-4.57c-97.734-0.545-198.984-5.139-296.414,1.4
		c-228.404,8.748-456.006,21.299-682.629,52.348c-63.316,8.672-133.477,13.734-192.832,38.379
		c-12.803,5.314-22.775,14.385-32.045,24.492c-23.285,25.389-39.012,55.987-52.565,87.393
		c-31.096,72.023-53.777,148.559-75.95,223.711c-43.895,149.278-81.245,300.174-112.051,452.69
		c-15.053,73.248-36.658,155.473-33.207,230.573C423.897,2886.934,425.104,2908.883,437.034,2920.022z M734.532,1896.916
		c22.277-21.961,109.617-29.566,142.049-34.271c139.891-18.98,280.248-33.428,421.073-43.342s281.823-15.273,422.995-16.078
		c103.061-2.889,206.859,0.164,309.92,2.637c65.074,1.564,133.19,0.135,197.754,8.859c14.162,1.91,32.836,4.365,43.987,13.635
		c10.887,9.047,15.117,26.719,16.371,40.072c6,63.984-48.656,177.311-65.525,245.25c-25.465,102.387-48.074,205.399-67.828,309.035
		c-18.721,93.398-33.364,187.096-49.365,280.963c-7.822,45.879-13.863,93.563-25.688,138.51
		c-3.17,12.064-8.232,27.551-17.039,36.762c-20.818,21.768-111.305,31.113-142.406,36.094
		c-73.266,11.781-146.762,21.896-220.489,30.346c-73.723,8.453-147.6,15.232-221.631,20.338
		c-74.031,5.105-148.141,8.533-222.328,10.283c-74.184,1.75-148.371,1.82-222.563,0.211
		c-94.377-4.002-498.604-30.094-560.965-86.696c-7.31-6.633-7.354-16.846-7.44-26.115
		C464.089,2719.912,643.131,1987.021,734.532,1896.916z"/>
</g>
</svg>
