<?xml version="1.0" encoding="utf-8"?>
<!-- Generator: Adobe Illustrator 27.5.0, SVG Export Plug-In . SVG Version: 6.00 Build 0)  -->
<svg xmlns="http://www.w3.org/2000/svg" xmlns:xlink="http://www.w3.org/1999/xlink" viewBox="0 0 500 500" width="595" height="842" preserveAspectRatio="xMidYMid meet" data-scaled="true">
<g id="BACKGROUND">
	<rect style="fill:#FFFFFF;" width="500" height="500"/>
</g>
<g id="OBJECTS">
	<g>
		<g>
			<path style="fill:#FFFFFF;" d="M161.461,136.976c0.042,0.003,0.078,0.018,0.119,0.022c-0.071-0.027-0.143-0.047-0.215-0.072
				C161.398,136.942,161.429,136.959,161.461,136.976z"/>
		</g>
		<g>
			<path style="fill:#FFFFFF;" d="M158.159,146.272c0.013-0.029,0.017-0.059,0.031-0.088c-0.032,0.004-0.062,0.004-0.092,0.005
				C158.118,146.217,158.138,146.244,158.159,146.272z"/>
		</g>
		<g>
			<path style="fill:#FFFFFF;" d="M163.781,135.144c0.003-0.007,0.004-0.015,0.007-0.022c-0.004,0.013-0.015,0.041-0.023,0.06
				c-0.001,0.001-0.001,0.002-0.001,0.003c-0.005,0.013-0.007,0.017-0.013,0.035C163.759,135.194,163.771,135.169,163.781,135.144z"
				/>
		</g>
		<g>
			<path style="fill:#FFFFFF;" d="M134.88,196.046c0.139,0.08,0.25,0.215,0.293,0.427c0.553,2.775,3.609,4.476,6.318,3.962
				c3.092-0.586,5.194-3.43,5.924-6.332c0.183-0.725,1.148-0.626,1.373,0c1.115,3.103,4.532,5.035,7.751,4.172
				c1.55-0.416,2.979-1.394,3.865-2.742c0.685-1.044,1.195-2.799,2.803-2.512c1.304,0.233,1.991,1.763,2.914,2.574
				c1.121,0.985,2.512,1.654,3.974,1.947c2.919,0.587,5.927-0.549,7.859-2.788c0.501-0.58,0.917-1.233,1.239-1.929
				c0.253-0.548,0.436-1.122,0.817-1.601c0.762-0.961,1.983-0.982,2.858-0.152c0.517,0.491,0.844,1.148,1.318,1.677
				c0.451,0.505,0.966,0.942,1.541,1.299c1.221,0.758,2.648,1.159,4.087,1.111c2.829-0.096,5.439-2.138,6.331-4.806
				c0.352-1.052,0.457-2.421,1.511-3.057c1.113-0.672,2.243,0.029,2.978,0.895c0.952,1.121,1.806,2.116,3.151,2.792
				c1.304,0.655,2.808,0.939,4.26,0.788c2.883-0.301,5.409-2.418,6.364-5.124c0.241-0.683,1.125-0.664,1.373,0
				c0.773,2.081,3.505,3.27,5.5,2.169c1.712-0.944,2.95-3.241,2.423-5.188c-0.015-0.035-0.039-0.059-0.049-0.098
				c-0.731-2.715-1.12-5.519-1.152-8.33c-0.104-8.955,3.32-17.91,9.448-24.436c-1.691,0.651-3.299,1.493-4.79,2.563
				c-0.65,0.466-1.222-0.404-0.974-0.974c0.993-2.281,2.348-4.372,3.974-6.236c-1.849,0.691-3.697,1.382-5.545,2.073
				c-0.693,0.259-1.161-0.713-0.692-1.189c1.758-1.784,3.516-3.568,5.274-5.352c-2.8,0.608-5.725,0.327-8.419-0.852
				c-0.555-0.243-0.4-1.191,0.17-1.301c3.603-0.693,6.88-2.589,9.241-5.385c-3.991-1.137-8.18-1.366-12.275-0.604
				c-0.691,0.129-1.193-0.645-0.692-1.189c2.141-2.326,4.585-4.346,7.262-6.01c-1.911,0.12-3.823,0.24-5.735,0.361
				c-0.787,0.05-0.856-0.943-0.359-1.326c1.3-1.001,2.598-2.002,3.898-3.002c-2.269-0.21-4.538,0.133-6.676,1.001
				c-0.584,0.237-1.118-0.558-0.803-1.045c0.825-1.277,1.65-2.553,2.475-3.829c-0.976,0.527-1.953,1.055-2.93,1.582
				c-0.66,0.356-1.268-0.343-0.974-0.974c1.072-2.295,1.728-4.74,2.008-7.246c-1.628,1.378-3.097,2.939-4.357,4.664
				c-0.459,0.628-1.516,0.273-1.3-0.548c0.691-2.642,0.783-5.358,0.338-8.034c-2.855,2.757-6.369,4.753-9.795,6.713
				c-0.044,0.025-0.086,0.027-0.129,0.043c-0.008,0.004-0.017,0.005-0.025,0.008c-0.075,0.023-0.147,0.039-0.217,0.036
				c-0.026,0-0.051-0.005-0.076-0.009c-0.058-0.009-0.113-0.021-0.165-0.045c-0.04-0.017-0.074-0.04-0.109-0.064
				c-0.029-0.02-0.058-0.036-0.083-0.059c-0.288-0.244-0.421-0.689-0.09-1.046c2.055-2.217,3.171-5.353,3.844-8.248
				c0.344-1.481,0.562-2.996,0.554-4.518c-0.003-0.695-0.049-1.393-0.192-2.075c-0.04-0.186-0.108-0.831-0.281-0.934
				c-0.27-0.162-0.491,0.197-0.644,0.367c-1.635,1.806-2.81,3.999-4.508,5.754c-0.732,0.755-1.758,1.369-2.712,0.552
				c-0.887-0.758-0.472-1.769-0.205-2.706c1.107-3.885,2.033-7.878,2.702-11.869c-0.759,1.15-1.515,2.301-2.297,3.435
				c-3.279,4.754-6.867,9.523-11.385,13.176c-0.103,0.083-0.212,0.125-0.321,0.148c-0.038,0.041-0.075,0.082-0.112,0.123
				c-0.613,0.684-1.616-0.326-1.006-1.006c1.084-1.209,2.209-2.381,3.267-3.614c2.3-2.684,4.246-5.688,5.227-9.112
				c1.134-3.957,0.864-8.055-0.145-11.987c-1.312,3.544-3.188,6.851-5.416,9.91c-2.018,2.77-4.332,5.28-6.513,7.916
				c-0.163,0.196-0.356,0.251-0.539,0.226c-0.491,0.685-1.632-0.001-1.182-0.771c1.081-1.847,2.36-3.575,3.516-5.376
				c2.588-4.032,4.858-8.513,4.956-13.406c0.131-6.552-3.817-11.971-8.513-16.162c-0.131,2.769-0.693,5.532-1.391,8.203
				c-1.008,3.862-2.377,7.634-4.036,11.263c-1.555,3.4-3.352,6.712-5.695,9.637c-2.348,2.93-5.138,5.487-8.132,7.743
				c-2.779,2.094-5.578,4.084-8.145,6.447c-2.492,2.293-4.81,4.773-6.936,7.408c-8.501,10.536-13.866,23.613-15.012,37.113
				c2.576,0.588,5.207,1.438,7.484,2.762c2.365,1.376,2.96,3.684,2.559,6.273c-0.828,5.337-3.615,10.421-7.296,14.318
				c-0.041,0.044-0.087,0.062-0.131,0.092c-0.014,0.021-0.028,0.041-0.044,0.061c1.71,4.071,2.876,8.343,3.509,12.72
				C134.628,190.255,134.823,193.154,134.88,196.046z M153.304,137.881c2.259-3.22,6.559-3.506,9.852-1.799
				c0.001,0,0.002,0.001,0.003,0.001c0.051-0.054,0.106-0.106,0.154-0.163c0.019-0.022,0.036-0.044,0.054-0.066
				c0.033-0.044,0.065-0.089,0.095-0.135c0.077-0.114,0.147-0.232,0.211-0.353c0.031-0.06,0.06-0.12,0.089-0.182
				c0.019-0.051,0.027-0.073,0.026-0.069c0.045-0.119,0.085-0.24,0.117-0.363c0.017-0.066,0.033-0.133,0.047-0.2
				c0.011-0.056,0.047-0.293,0.015-0.054c0.026-0.199,0.072-0.354,0.208-0.503c0.128-0.14,0.319-0.2,0.503-0.208
				c0.177-0.008,0.379,0.085,0.503,0.208c0.113,0.113,0.231,0.336,0.208,0.503c-0.092,0.693-0.305,1.356-0.698,1.941
				c-0.095,0.142-0.218,0.259-0.327,0.389c0.325,0.229,0.631,0.48,0.933,0.737c0.022-0.014,0.046-0.023,0.067-0.037
				c0.079-0.051,0.152-0.113,0.231-0.163c-0.029,0.018-0.041,0.026-0.053,0.033c-0.021,0.013-0.026,0.017,0,0
				c0.019-0.012,0.043-0.028,0.057-0.04c0.036-0.03,0.072-0.061,0.107-0.093c0.129-0.116,0.251-0.24,0.364-0.372
				c0.031-0.035,0.06-0.071,0.09-0.108c0.003-0.005,0-0.001,0.005-0.008c0.049-0.071,0.1-0.142,0.146-0.215
				c0.097-0.153,0.181-0.313,0.259-0.477c0.003-0.006,0.001-0.002,0.003-0.006c0.016-0.043,0.033-0.086,0.049-0.13
				c0.029-0.081,0.055-0.164,0.079-0.247c0.023-0.083,0.044-0.168,0.06-0.252c0.01-0.046,0.017-0.093,0.026-0.14
				c0.01-0.057,0.01-0.049,0.008-0.028c0.054-0.381,0.293-0.664,0.704-0.682c0.354-0.016,0.754,0.34,0.712,0.712
				c-0.11,0.958-0.482,1.813-1.103,2.552c-0.217,0.258-0.473,0.482-0.745,0.685c0.367,0.369,0.727,0.747,1.078,1.137
				c0.112-0.024,0.225-0.045,0.336-0.079c0.084-0.026,0.167-0.057,0.249-0.087c0.015-0.005,0.01-0.003,0.017-0.005
				c0.006-0.002,0.001-0.001,0.008-0.004c0.04-0.019,0.081-0.037,0.12-0.056c0.158-0.077,0.313-0.165,0.46-0.262
				c0.037-0.024,0.074-0.049,0.11-0.074c0.008-0.005,0.027-0.019,0.047-0.033c0.063-0.047,0.124-0.1,0.182-0.152
				c0.131-0.118,0.255-0.244,0.37-0.377c0.012-0.014,0.086-0.09,0.095-0.115c0.005-0.007-0.001-0.001,0.006-0.011
				c0.051-0.072,0.1-0.145,0.146-0.22c0.051-0.083,0.099-0.167,0.142-0.253c0.017-0.031,0.032-0.063,0.047-0.095
				c0.013-0.027,0.084-0.196,0.013-0.024c0.153-0.37,0.461-0.591,0.876-0.497c0.343,0.078,0.639,0.53,0.497,0.875
				c-0.37,0.896-0.963,1.632-1.769,2.176c-0.278,0.188-0.583,0.332-0.897,0.455c1.325,1.414,2.973,2.792,5,2.43
				c0.897-0.16,1.279,1.212,0.379,1.372c-1.323,0.236-2.444,0.004-3.443-0.498c0.468,2.874-0.596,5.975-2.83,7.873
				c-0.695,0.59-1.705-0.412-1.006-1.006c2.238-1.902,3.102-5.077,2.127-7.849c-0.028-0.079-0.028-0.149-0.03-0.219
				c-0.179-0.156-0.355-0.319-0.529-0.486c0.327,2.339,0.27,4.782-1.103,6.795c-1.322,1.941-3.518,2.821-5.824,2.428
				c-2.268-0.386-4.12-2.069-5.106-4.095c-1.145-2.353-1.22-5.068-0.746-7.604c0.22-1.176,0.706-2.344,1.476-3.209
				c-0.885,0.326-1.688,0.907-2.329,1.82C154.01,139.344,152.778,138.632,153.304,137.881z"/>
		</g>
		<g>
			<path style="fill:#FFFFFF;" d="M268.74,342.393c-2.487-0.561-4.938-1.275-7.333-2.168c-9.559-3.562-17.887-9.307-25.454-15.993
				c-0.126,0.008-0.261-0.012-0.4-0.103c-1.322-0.869-2.637-1.748-3.945-2.638c-10.774-7.335-21.088-15.344-31.075-23.713
				c-9.851-8.256-19.645-16.768-28.455-26.143c-8.526-9.072-16.035-19.296-20.509-30.997c-2.051-5.363-3.63-11.142-3.7-16.919
				c-0.061-5.038,1.181-10.366,4.938-13.958c0.83-0.794,1.757-1.445,2.732-2.006c-0.846,0.128-1.712,0.137-2.564-0.022
				c-2.203-0.413-4.087-1.807-5.264-3.668c-1.208,2.861-3.605,5.333-6.772,5.764c-2.427,0.331-5.033-0.701-6.524-2.612
				c-1.177,12.39-4.132,24.697-5.143,37.108c1.046-0.777,1.919-1.741,2.581-2.85c0.336-0.826,0.689-1.645,1.079-2.449
				c0.358-0.738,1.523-0.209,1.3,0.548c-0.268,0.914-0.657,1.774-1.133,2.58c-0.819,2.023-1.475,4.11-1.953,6.243
				c-2.265,10.101-0.646,20.98,4.576,29.921c0.966-1.479,1.483-3.187,1.468-4.974c-0.005-0.573,0.548-0.787,0.966-0.644
				c0.379-0.037,0.8,0.182,0.823,0.673c0.079,1.743,0.259,3.478,0.559,5.197c2.535,14.508,12.233,26.713,23.999,35.09
				c12.987,9.245,28.246,14.4,43.313,19.136c3.778,1.188,7.51,2.475,11.382,3.315c3.45,0.749,6.915,1.431,10.38,2.104
				c9.31,1.808,18.644,3.514,28.005,5.038c3.787,0.616,7.58,1.219,11.39,1.669c1.21,0.143,2.425,0.28,3.644,0.333
				c1.17,0.051,2.33,0.058,3.484,0.094c-2.106-0.904-4.197-1.846-6.261-2.852C268.816,342.468,268.784,342.428,268.74,342.393z"/>
		</g>
		<g>
			<path style="fill:#FFFFFF;" d="M157.11,144.996c0.622-0.354,1.393-0.225,2.035-0.591c1.265-0.721,2.046-2.325,1.508-3.736
				c-0.503-1.319-2.006-2.221-3.406-2.014c-0.621,1.361-0.728,3.184-0.713,4.357c0.009,0.741,0.106,1.494,0.28,2.227
				C156.893,145.15,156.987,145.066,157.11,144.996z"/>
		</g>
		<g>
			<path style="fill:#FFFFFF;" d="M163.79,135.116c-0.001,0.002-0.001,0.004-0.002,0.006
				C163.788,135.119,163.79,135.117,163.79,135.116z"/>
		</g>
		<g>
			<path style="fill:#FFFFFF;" d="M156.026,206.232c1.55-0.416,2.979-1.394,3.865-2.742c0.685-1.044,1.195-2.799,2.802-2.512
				c1.305,0.233,1.991,1.763,2.914,2.574c1.121,0.985,2.513,1.654,3.974,1.947c2.919,0.587,5.927-0.549,7.86-2.788
				c0.5-0.58,0.917-1.233,1.238-1.929c0.254-0.548,0.437-1.122,0.817-1.601c0.762-0.961,1.983-0.982,2.858-0.152
				c0.518,0.491,0.845,1.148,1.318,1.677c0.451,0.505,0.967,0.942,1.541,1.299c1.221,0.758,2.648,1.159,4.088,1.111
				c2.829-0.096,5.439-2.138,6.331-4.806c0.352-1.052,0.457-2.421,1.51-3.057c1.113-0.672,2.243,0.029,2.978,0.895
				c0.952,1.121,1.806,2.116,3.152,2.792c1.304,0.655,2.808,0.939,4.26,0.788c2.883-0.301,5.409-2.419,6.364-5.125
				c0.241-0.683,1.126-0.664,1.373,0c0.801,2.154,3.657,3.315,5.66,2.073c1.775-1.101,3.218-3.738,2.801-5.849
				c-0.09-0.696-0.139-1.394-0.147-2.095c-0.566,0.638-1.228,1.171-1.957,1.496c-2.32,1.035-4.995,0.072-6.451-1.865
				c-1.29,2.386-3.578,4.212-6.286,4.713c-3.213,0.594-6.665-0.651-8.724-3.199c-0.318-0.394-0.928-1.478-1.534-1.43
				c-0.666,0.053-0.808,1.19-0.941,1.692c-0.355,1.348-0.999,2.568-1.928,3.61c-1.859,2.086-4.657,3.149-7.426,2.741
				c-1.433-0.211-2.805-0.783-3.964-1.654c-0.606-0.456-1.138-0.979-1.6-1.581c-0.279-0.364-0.872-1.582-1.459-1.337
				c-0.535,0.223-0.817,1.514-1.06,1.978c-0.311,0.594-0.694,1.149-1.12,1.665c-0.922,1.117-2.112,2.041-3.426,2.652
				c-2.697,1.253-5.783,1.166-8.441-0.156c-1.363-0.678-2.454-1.656-3.405-2.83c-0.252-0.311-0.655-0.956-1.141-0.747
				c-0.273,0.118-0.461,0.639-0.59,0.887c-0.305,0.587-0.636,1.136-1.061,1.646c-1.817,2.178-4.783,3.286-7.576,2.764
				c-2.204-0.413-4.088-1.807-5.264-3.668c-1.208,2.861-3.605,5.333-6.772,5.764c-2.448,0.333-5.082-0.716-6.567-2.659
				c-0.032,1.734-0.115,3.465-0.238,5.194c0.002,0.009,0.008,0.014,0.01,0.023c0.554,2.776,3.61,4.476,6.319,3.962
				c3.091-0.586,5.194-3.43,5.924-6.332c0.183-0.725,1.147-0.626,1.373,0C149.39,205.163,152.806,207.094,156.026,206.232z"/>
		</g>
		<g>
			<path style="fill:#FFFFFF;" d="M227.534,197.313c0.497,0.774-0.735,1.487-1.229,0.718c-0.728-1.135-1.305-2.354-1.747-3.618
				c-0.683,1.586-1.852,2.99-3.282,3.693c-2.346,1.154-5.123,0.197-6.619-1.789c-1.29,2.386-3.578,4.212-6.287,4.713
				c-3.212,0.594-6.665-0.651-8.724-3.199c-0.318-0.394-0.928-1.478-1.535-1.43c-0.666,0.053-0.808,1.19-0.94,1.692
				c-0.355,1.348-0.999,2.568-1.928,3.61c-1.86,2.086-4.657,3.149-7.426,2.741c-1.434-0.211-2.806-0.783-3.964-1.654
				c-0.607-0.456-1.138-0.979-1.6-1.581c-0.279-0.364-0.873-1.582-1.459-1.337c-0.535,0.223-0.817,1.514-1.06,1.978
				c-0.311,0.594-0.694,1.149-1.12,1.665c-0.922,1.117-2.112,2.041-3.426,2.652c-0.864,0.402-1.769,0.65-2.687,0.78
				c4.089,1.431,7.89,3.728,11.489,6.09c0.764,0.501,0.05,1.733-0.718,1.229c-1.227-0.805-2.461-1.597-3.721-2.348
				c-4.945-2.947-10.465-5.349-16.341-4.97c-5.274,0.34-10.054,3.045-12.301,7.944c-2.139,4.666-1.903,10.219-0.935,15.143
				c1.153,5.861,3.222,11.523,5.911,16.849c5.508,10.909,13.501,20.29,22.167,28.814c8.833,8.688,18.253,16.832,27.84,24.674
				c7.786,6.369,15.789,12.486,24.054,18.224c-2.647-2.62-5.212-5.319-7.708-8.045c-0.618-0.675,0.386-1.683,1.006-1.006
				c3.138,3.427,6.343,6.797,9.699,10.014c10.897,10.443,24.019,19.571,39.153,22.061c-4.84-3.692-9.386-7.765-13.891-11.852
				c-0.017-0.016-0.022-0.035-0.038-0.051c-8.34-5.739-15.836-12.685-22.167-20.638c-0.565-0.71,0.436-1.723,1.006-1.006
				c5.451,6.848,11.771,13.006,18.791,18.237c6.227,4.64,12.968,8.52,20.065,11.664c7.266,3.219,14.808,5.753,22.271,8.464
				c7.341,2.667,14.66,5.509,21.51,9.291c1.728,0.955,3.424,1.969,5.076,3.051c0.714,0.468,1.448,0.947,2.3,1.122
				c0.816,0.168,1.623-0.103,1.366-1.134c-0.158-0.634-0.57-1.225-1.01-1.775c-0.145-0.11-0.278-0.233-0.424-0.34
				c-0.197-0.145-0.283-0.34-0.298-0.537c-0.018-0.022-0.04-0.046-0.057-0.068c-0.586-0.718-1.197-1.414-1.833-2.088
				c-1.414-1.499-2.948-2.875-4.576-4.136c-0.031-0.024-0.042-0.052-0.066-0.078c-0.469,0.037-0.965-0.045-1.404-0.201
				c-2.86-1.016-5.582-2.769-8.102-4.432c-5.61-3.701-10.837-8.008-16.161-12.103c-5.694-4.38-11.389-8.76-17.083-13.14
				c-0.716-0.551-0.007-1.787,0.719-1.229c5.881,4.523,11.762,9.047,17.643,13.571c4.931,3.793,9.781,7.75,14.941,11.232
				c2.45,1.654,4.999,3.177,7.689,4.411c0.42,0.193,1.587,0.843,1.917,0.285c0.316-0.535-0.469-1.39-0.772-1.819
				c-0.829-1.177-1.685-2.337-2.57-3.473c-6.919-8.88-15.433-16.47-25.035-22.342c-0.215-0.132-0.309-0.32-0.327-0.515
				c-0.937-0.556-1.889-1.087-2.819-1.655c-9.72-5.939-19.014-12.56-27.824-19.778c-0.71-0.581,0.304-1.582,1.006-1.006
				c4.565,3.74,9.262,7.317,14.086,10.718c8.416,5.934,17.206,11.338,26.301,16.167c0.515,0.273,1.718,1.14,2.172,0.389
				c0.329-0.544-0.164-1.268-0.467-1.692c-0.671-0.94-1.446-1.82-2.195-2.698c-1.613-1.89-3.313-3.705-5.093-5.438
				c-3.593-3.5-7.507-6.649-11.686-9.422c-0.191-0.127-0.288-0.3-0.316-0.479c-0.486-0.176-0.968-0.36-1.443-0.558
				c-2.767-1.15-5.47-2.476-8.143-3.826c-5.507-2.781-10.859-5.864-16.037-9.219c-0.767-0.497-0.053-1.728,0.719-1.229
				c4.991,3.234,10.143,6.215,15.442,8.917c2.616,1.334,5.263,2.63,7.959,3.797c2.579,1.117,5.297,1.998,8.12,1.81
				c-0.347-0.538-0.689-1.079-1.02-1.624c-0.015-0.025-0.015-0.048-0.026-0.072c-2.288-0.657-4.459-1.746-6.439-3.114
				c-3.136-2.167-5.84-4.886-8.329-7.756c-2.689-3.1-5.208-6.35-7.542-9.726c-0.196-0.283-0.369-0.58-0.562-0.864
				c-2.562-2.422-5.291-4.656-8.119-6.759c-9.957-7.404-21.012-13.44-29.777-22.35c-0.644-0.654,0.363-1.66,1.006-1.006
				c2.467,2.508,5.129,4.811,7.905,6.969c8.462,6.575,17.868,11.895,26.118,18.731c-3.257-5.344-6.056-10.96-8.386-16.772
				c-0.342-0.851,1.035-1.218,1.372-0.378c1.694,4.226,3.651,8.345,5.854,12.33c1.608,2.907,3.376,5.726,5.239,8.479
				c0.015,0.027,0.042,0.052,0.052,0.079c2.587,3.817,5.385,7.491,8.44,10.942c4.298,4.856,9.842,9.827,16.538,10.386
				c-2.482-2.238-4.854-4.594-7.079-7.084c-0.113-0.056-0.218-0.142-0.29-0.295c-0.012-0.025-0.022-0.051-0.034-0.076
				c-4.348-4.92-8.179-10.294-11.398-16.028c-0.45-0.8,0.78-1.517,1.229-0.718c2.365,4.212,5.073,8.212,8.062,11.987
				c-2.026-4.816-3.808-9.733-5.579-14.649c-0.311-0.865,1.065-1.234,1.373-0.378c2.307,6.405,4.628,12.814,7.507,18.989
				c2.679,3.019,5.555,5.865,8.617,8.513c0.493,0.427,0.067,1.189-0.503,1.215c-1.131,0.05-2.243-0.033-3.334-0.215
				c5.22,8.236,12.289,15.59,21.324,19.515c-5.033-7.456-9.036-15.603-11.801-24.177c-0.282-0.875,1.092-1.247,1.373-0.378
				c1.275,3.954,2.804,7.82,4.596,11.567c5.81,12.149,14.229,22.966,24.53,31.625c-5.459-8.303-8.555-18.337-11.34-27.804
				c-0.259-0.882,1.115-1.255,1.373-0.378c1.29,4.384,2.584,8.772,4.145,13.069c2.629,7.237,6.093,14.321,11.401,19.986
				c4.341,4.633,9.802,8.232,16.003,9.654c-3.223-4.23-6.321-8.555-9.223-13.013c-5.799-8.908-10.934-18.247-15.352-27.914
				c-4.401-9.63-8.093-19.579-11.034-29.75c-0.034-0.118-0.036-0.225-0.019-0.323c-4.908-8.442-10.458-16.509-16.606-24.096
				c-0.572-0.706,0.429-1.718,1.006-1.006c2.069,2.553,4.077,5.155,6.015,7.809c6.517,8.924,12.232,18.422,17.105,28.338
				c0.493-4.378,0.466-8.82-0.156-13.179c-2.16-15.156-11.245-29.126-24.112-37.398c-1.466-0.743-2.888-1.569-4.27-2.457
				c-0.254-0.13-0.499-0.276-0.755-0.402c-0.142-0.07-0.224-0.169-0.281-0.275c-3.56-2.418-6.797-5.309-9.565-8.612
				c-0.585-0.698,0.417-1.709,1.006-1.006c2.007,2.395,4.25,4.582,6.703,6.519c1.102,0.87,2.244,1.686,3.419,2.45
				c1.443,0.733,2.84,1.548,4.203,2.418c6.248,3.19,13.201,4.973,20.217,5.119c-7.636-3.848-14.54-9.011-20.841-14.778
				c-13.044-11.94-23.476-26.327-35.732-39.019c-3.155-3.267-6.433-6.421-9.89-9.369c-3.295-2.809-6.745-5.565-10.667-7.453
				c-3.544-1.707-7.531-2.575-11.412-1.625c-3.165,0.775-6.143,2.687-7.585,5.662C224.258,187.623,224.778,193.018,227.534,197.313z
				"/>
		</g>
		<g>
			<path style="fill:#FFFFFF;" d="M297.048,351.841c0.132,0.144,0.258,0.294,0.389,0.438c14.647,5.216,29.341,10.687,41.595,20.39
				c-1.957-5.179-5.125-9.856-9.196-13.602c0.002,0.068,0.023,0.133,0.02,0.202c-0.092,1.96-2.1,2.393-3.653,1.885
				c-1.954-0.64-3.672-2.111-5.433-3.144c-14.449-8.469-30.988-12.238-46.183-19.054c-3.181-1.427-6.28-3.021-9.294-4.754
				c3.147,2.759,6.358,5.444,9.753,7.886c0.503,0.362,0.418,1.413-0.359,1.326c-0.229-0.026-0.456-0.07-0.685-0.099
				c2.099,0.934,4.223,1.813,6.357,2.665c0.145,0.037,0.291,0.066,0.436,0.108c0.134,0.039,0.231,0.109,0.309,0.191
				c1.743,0.688,3.492,1.362,5.25,2.013c3.229,1.196,6.494,2.353,9.763,3.516C296.372,351.584,296.752,351.518,297.048,351.841z"/>
		</g>
		<g>
			<path style="fill:#FFFFFF;" d="M174.88,361.602c-0.991,5.42-0.577,11,1.177,16.225c0.293,0.872-1.082,1.242-1.373,0.378
				c-1.647-4.904-2.132-10.111-1.464-15.221c-0.071,0.016-0.141,0.027-0.21,0.021c-1.766,1.678-3.493,3.396-5.136,5.195
				c-0.958,1.049-1.891,2.121-2.804,3.209c0.038,0.12,0.05,0.253-0.007,0.409c-1.983,5.44-2.225,11.352-0.666,16.93
				c0.247,0.885-1.127,1.259-1.373,0.378c-1.368-4.894-1.407-10.08-0.152-14.983c-5.632,7.199-10.316,15.14-13.847,23.57
				c-0.349,0.834-1.726,0.465-1.372-0.378c1.294-3.089,2.72-6.12,4.301-9.073c2.764-5.163,5.974-10.084,9.567-14.707
				c-2.855,1.283-6.052,1.79-9.167,1.385c-0.897-0.117-0.906-1.541,0-1.423c4.085,0.531,8.202-0.526,11.521-2.967
				c0.045-0.033,0.089-0.04,0.133-0.061c2.727-3.248,5.655-6.324,8.758-9.217c-3.583,1.464-7.396,2.32-11.284,2.512
				c-0.917,0.045-0.912-1.378,0-1.423c5.064-0.25,10.003-1.685,14.419-4.174c0.162-0.091,0.317-0.1,0.46-0.074
				c2.705-2.837,5.219-5.881,7.808-8.839c-5.417,2.493-10.972,4.684-16.31,7.349c-5.596,2.794-10.81,6.204-15.158,10.734
				c-4.17,4.345-7.498,9.453-9.991,14.926c-5.421,11.901-6.552,25.269-5.301,38.174c3.981-4.782,9.751-7.527,15.38-9.993
				c3.002-1.316,6.023-2.618,8.852-4.286c2.537-1.496,4.867-3.303,6.968-5.367c4.095-4.021,7.264-8.903,9.65-14.105
				c5.289-11.531,6.432-24.359,7.291-36.887C182.047,353.803,178.716,357.984,174.88,361.602z"/>
		</g>
		<g>
			<path style="fill:#FFFFFF;" d="M129.841,172.615c0.126,0.151,0.259,0.297,0.383,0.45c3.115-3.431,5.339-7.62,6.353-12.149
				c0.234-1.045,0.416-2.176,0.224-3.247c-4.707,2.41-10.446,2.678-15.571,1.894c-5.644-0.863-11.335-2.755-17.067-2.475
				c1.293,0.276,2.575,0.606,3.842,0.999c8.371,2.593,15.947,7.593,21.618,14.272C129.707,172.417,129.784,172.496,129.841,172.615z
				"/>
		</g>
		<g>
			<path style="fill:#FFFFFF;" d="M119.934,157.908c5.344,0.977,11.394,1.037,16.337-1.562c-0.452-0.645-1.113-1.11-1.851-1.492
				c-2.195-1.135-4.585-1.906-6.995-2.439c-0.076,0.013-0.153,0.026-0.238,0.014c-7.63-1.05-15.462,0.131-22.483,3.231
				C109.82,155.556,114.896,156.986,119.934,157.908z"/>
		</g>
		<g>
			<path style="fill:#FFFFFF;" d="M165.961,205.559c-1.004-0.634-1.859-1.438-2.617-2.375c-0.252-0.311-0.655-0.956-1.141-0.747
				c-0.274,0.118-0.461,0.639-0.591,0.887c-0.304,0.587-0.636,1.136-1.061,1.646c-0.394,0.472-0.851,0.883-1.339,1.249
				C161.394,205.605,163.699,205.406,165.961,205.559z"/>
		</g>
		<g>
			<path style="fill:#FFFFFF;" d="M198.238,87.477c0.038-0.108-0.017,0.016-0.006,0.028
				C198.235,87.497,198.235,87.486,198.238,87.477z"/>
		</g>
		<g>
			<path style="fill:#FFFFFF;" d="M338.613,330.519c5.15,9.168,10.974,17.96,17.419,26.269c0.448,0.577,0.037,1.301-0.692,1.189
				c-4.001-0.613-7.811-2.141-11.219-4.313c-3.751-2.391-6.84-5.35-9.462-8.67c-0.231,0.089-0.501,0.087-0.742-0.1
				c-3.324-2.592-6.475-5.399-9.423-8.412c-3.539-3.619-6.761-7.534-9.682-11.66c-0.146,0.107-0.338,0.149-0.57,0.056
				c-9.217-3.669-16.509-10.667-22.014-18.781c-0.058,0.023-0.11,0.052-0.179,0.06c-1.309,0.171-2.603,0.097-3.876-0.124
				c4.181,2.989,8.102,6.336,11.651,10.054c1.85,1.938,3.659,3.96,5.268,6.105c0.661,0.881,1.165,1.944,0.763,3.047
				c-0.358,0.986-1.314,1.439-2.323,1.253c-0.439-0.081-0.869-0.256-1.294-0.456c2.265,1.8,4.465,3.681,6.556,5.681
				c4.345,4.158,8.29,8.733,11.769,13.639c0.671,0.947,1.667,2.221,1.064,3.443c-0.047,0.094-0.106,0.169-0.162,0.247
				c1.808,1.425,3.503,2.985,5.036,4.703c0.612,0.686,1.182,1.408,1.744,2.136c6.142,4.721,10.713,11.261,12.951,18.691
				c0.22,0.728-0.679,1.125-1.189,0.692c-4.286-3.64-8.993-6.743-13.921-9.442c-8.533-4.673-17.59-8.107-26.72-11.378
				c0.238,0.273,0.486,0.538,0.722,0.813c7.831,9.12,14.467,19.205,20.324,29.685c6.23,11.15,11.585,22.759,16.775,34.422
				c2.679,6.022,5.316,12.063,8.013,18.077c1.361,3.033,2.736,6.059,4.14,9.072c0.963,2.068,2.111,4.912,4.475,5.705
				c1.702,0.571,3.166-0.303,4.273-1.549c-0.666-3.379-1.443-6.735-2.341-10.059c-3.222-11.934-7.943-23.435-14.014-34.201
				c-0.451-0.8,0.778-1.516,1.229-0.718c1.742,3.09,3.38,6.238,4.899,9.444c5.127,10.822,8.934,22.246,11.348,33.973
				c0.128-0.219,0.248-0.436,0.355-0.648c1.357-2.696,2.026-5.81,2.345-8.793c0.355-3.325,0.319-6.709,0.044-10.073
				c-0.037-0.093-0.081-0.182-0.117-0.275c-0.087-0.226-0.052-0.414,0.047-0.559c-0.228-2.433-0.575-4.853-1.001-7.228
				c-2.105-11.73-6.685-22.949-13.385-32.802c-0.517-0.76,0.716-1.471,1.229-0.718c0.869,1.279,1.708,2.578,2.508,3.902
				c6.307,10.438,10.331,22.217,11.778,34.323c0.117,0.975,0.215,1.959,0.303,2.946c0.88,2.197,2.108,4.3,3.751,6.011
				c0.409,0.426,0.857,0.924,1.381,1.207c0.352,0.191,0.596,0.184,0.778,0.068c-1.213-8.641-3.336-17.132-6.337-25.326
				c-0.316-0.863,1.06-1.232,1.373-0.378c2.729,7.455,4.726,15.156,5.979,22.992c0.181-0.723,0.341-1.452,0.463-2.187
				c0.771-4.632,0.418-9.424-0.23-14.049c-0.306-2.181-0.701-4.349-1.182-6.498c-0.007-0.014-0.016-0.027-0.023-0.04
				c-0.067-0.128-0.082-0.25-0.077-0.367c-0.459-2.005-0.986-3.994-1.592-5.959c-2.607-8.456-6.573-16.457-11.7-23.667
				c-0.532-0.749,0.702-1.459,1.229-0.718c3.202,4.504,5.959,9.315,8.211,14.362c2.268,5.079,4.051,10.412,5.292,15.862
				c0.901,1.656,2.055,3.137,3.477,4.383c0.751,0.659,1.568,1.236,2.434,1.735c0.65,0.374,1.461,0.841,2.25,0.86
				c-0.005-0.016-0.016-0.024-0.02-0.041c-1.443-5.589-3.541-10.977-6.266-16.066c-0.432-0.808,0.796-1.526,1.229-0.718
				c2.762,5.16,4.905,10.632,6.377,16.297c1.206-1.097,1.011-3.309,0.942-4.762c-0.096-2.012-0.372-4.008-0.797-5.977
				c-0.846-3.915-2.258-7.694-4.03-11.281c-0.868-1.757-1.821-3.464-2.833-5.135c-0.032-0.051-0.067-0.1-0.1-0.152
				c-0.012-0.019-0.011-0.038-0.021-0.057c-3.186-5.231-6.966-10.099-10.721-14.927c-0.556-0.715,0.445-1.729,1.006-1.006
				c3.178,4.086,6.364,8.177,9.216,12.5c0.625,0.947,1.234,1.909,1.823,2.885c2.295,3.639,4.923,7.046,7.804,10.24
				c1.266,1.403,2.575,2.767,3.915,4.099c1.332,1.324,2.661,2.73,4.129,3.904c0.571,0.456,1.259,0.816,1.918,0.943
				c-2.441-4.72-5.28-9.222-8.497-13.452c-0.555-0.73,0.682-1.438,1.229-0.718c3.262,4.289,6.141,8.855,8.603,13.648
				c0.052,0.102,0.079,0.202,0.085,0.298c0.315-0.22,0.578-0.577,0.753-1.113c0.537-1.654,0.135-3.638-0.212-5.287
				c-1.694-8.059-7.129-14.54-12.306-20.663c-0.081-0.096-0.126-0.197-0.152-0.3c-3.262-3.108-6.382-6.366-9.328-9.778
				c-0.596-0.69,0.407-1.701,1.006-1.006c0.85,0.984,1.711,1.957,2.587,2.918c7.107,7.791,15.11,14.763,23.812,20.722
				c1.115,0.764,2.242,1.511,3.38,2.241c0.569,0.365,1.139,0.728,1.714,1.083c0.196,0.121,0.432,0.278,0.678,0.416
				c-4.353-5.532-9.131-10.716-14.301-15.495c-0.674-0.623,0.335-1.627,1.007-1.006c5.265,4.867,10.13,10.15,14.547,15.798
				c0.231,0.295,0.188,0.635,0.028,0.889c0.757-0.463-0.359-2.372-0.616-2.895c-0.532-1.086-1.096-2.157-1.69-3.211
				c-2.432-4.319-5.359-8.344-8.596-12.092c-6.463-7.481-14.066-13.882-21.836-19.954c-7.888-6.163-16.008-12.039-23.547-18.637
				c-5.65-4.945-10.966-10.322-15.45-16.339C336.349,326.382,337.458,328.463,338.613,330.519z M335.716,395.17
				c-0.315,0.204-0.796,0.073-0.974-0.255c-0.457-0.845-0.913-1.69-1.37-2.534c-0.189-0.351-0.077-0.759,0.256-0.974
				c0.316-0.203,0.796-0.073,0.974,0.255c0.457,0.845,0.913,1.69,1.37,2.534C336.161,394.547,336.049,394.956,335.716,395.17z
				 M337.74,399.463c-0.092-0.022-0.173-0.064-0.242-0.127c-0.077-0.05-0.138-0.117-0.183-0.2c-0.113-0.226-0.226-0.452-0.338-0.678
				c-0.065-0.111-0.097-0.231-0.097-0.359c0.008-0.063,0.017-0.126,0.026-0.189c0.033-0.12,0.095-0.225,0.183-0.314
				c0.048-0.037,0.096-0.074,0.144-0.111c0.082-0.052,0.17-0.08,0.265-0.085c0.095-0.021,0.189-0.017,0.284,0.013
				c0.092,0.022,0.173,0.064,0.242,0.127c0.078,0.05,0.139,0.117,0.183,0.2c0.113,0.226,0.226,0.452,0.339,0.678
				c0.065,0.111,0.097,0.231,0.097,0.359c-0.009,0.063-0.017,0.126-0.026,0.189c-0.033,0.121-0.095,0.225-0.183,0.314
				c-0.048,0.037-0.096,0.074-0.144,0.111c-0.082,0.052-0.17,0.08-0.265,0.084C337.93,399.497,337.835,399.492,337.74,399.463z
				 M340.102,401.867c-0.041,0.181-0.175,0.327-0.327,0.425c-0.151,0.097-0.378,0.119-0.548,0.072
				c-0.161-0.044-0.349-0.173-0.425-0.327c-0.226-0.452-0.451-0.904-0.676-1.357c-0.089-0.178-0.116-0.355-0.072-0.548
				c0.042-0.181,0.175-0.327,0.327-0.425c0.151-0.097,0.378-0.119,0.548-0.072c0.161,0.044,0.349,0.174,0.425,0.327
				c0.225,0.452,0.451,0.904,0.676,1.357C340.119,401.497,340.146,401.673,340.102,401.867z M361.14,403.171
				c0.171-0.055,0.396-0.018,0.548,0.072c0.174,0.102,0.253,0.246,0.327,0.425c0.281,0.678,0.564,1.357,0.845,2.035
				c0.072,0.172,0.011,0.391-0.072,0.548c-0.087,0.165-0.253,0.271-0.425,0.327c-0.171,0.055-0.396,0.017-0.548-0.072
				c-0.174-0.102-0.253-0.246-0.327-0.425c-0.281-0.678-0.564-1.357-0.845-2.035c-0.072-0.172-0.011-0.391,0.072-0.548
				C360.802,403.333,360.968,403.226,361.14,403.171z M358.787,399.59c0.033-0.12,0.095-0.225,0.183-0.314
				c0.048-0.037,0.096-0.074,0.144-0.111c0.082-0.052,0.17-0.08,0.265-0.084c0.095-0.021,0.189-0.017,0.284,0.013
				c0.093,0.022,0.174,0.064,0.243,0.127c0.077,0.05,0.138,0.117,0.183,0.2c0.17,0.226,0.338,0.452,0.508,0.679
				c0.064,0.111,0.097,0.231,0.097,0.359c-0.009,0.063-0.017,0.126-0.026,0.189c-0.034,0.121-0.095,0.225-0.183,0.314
				c-0.049,0.037-0.096,0.074-0.145,0.111c-0.081,0.052-0.17,0.08-0.264,0.084c-0.095,0.021-0.19,0.017-0.284-0.013
				c-0.092-0.022-0.173-0.064-0.242-0.127c-0.077-0.05-0.138-0.117-0.183-0.2c-0.169-0.226-0.338-0.452-0.507-0.679
				c-0.065-0.111-0.097-0.231-0.097-0.359C358.77,399.716,358.779,399.653,358.787,399.59z M356.215,393.586
				c0.316-0.204,0.795-0.072,0.973,0.255c0.339,0.621,0.678,1.243,1.017,1.864c0.191,0.35,0.076,0.76-0.256,0.974
				c-0.316,0.204-0.795,0.072-0.973-0.255c-0.339-0.622-0.678-1.243-1.017-1.864C355.769,394.21,355.882,393.8,356.215,393.586z
				 M369.119,392.487c0.171-0.055,0.396-0.018,0.548,0.072c0.175,0.102,0.252,0.246,0.327,0.425
				c0.402,0.958,0.803,1.916,1.205,2.873c0.072,0.172,0.011,0.392-0.072,0.548c-0.087,0.165-0.253,0.271-0.425,0.327
				c-0.171,0.055-0.396,0.018-0.548-0.072c-0.175-0.102-0.252-0.246-0.327-0.425c-0.402-0.958-0.803-1.916-1.205-2.874
				c-0.072-0.172-0.011-0.392,0.072-0.548C368.781,392.65,368.947,392.543,369.119,392.487z M366.749,387.386
				c0.177-0.008,0.38,0.085,0.503,0.208c0.135,0.135,0.18,0.294,0.202,0.475c-0.001-0.012-0.003-0.024-0.005-0.036
				c0.031,0.222,0.076,0.442,0.14,0.658c0.031,0.108,0.067,0.214,0.107,0.319c0.008,0.021,0.015,0.041,0.024,0.061
				c0.015,0.033,0.029,0.066,0.044,0.098c0.093,0.196,0.2,0.386,0.321,0.566c0.031,0.047,0.063,0.093,0.097,0.138
				c0.007,0.01,0.014,0.019,0.021,0.028c0.07,0.085,0.141,0.168,0.216,0.248c0.272,0.291,0.268,0.714,0,1.006
				c-0.254,0.276-0.752,0.273-1.006,0c-0.792-0.849-1.253-1.909-1.375-3.059C365.995,387.702,366.398,387.402,366.749,387.386z
				 M380.81,391.353c-0.917,0-0.916-1.423,0-1.423C381.728,389.929,381.726,391.353,380.81,391.353z M379.624,387.726
				c0.917,0,0.916,1.423,0,1.423C378.707,389.149,378.708,387.726,379.624,387.726z M376.467,385.028
				c0.081-0.154,0.26-0.282,0.425-0.327c0.095-0.03,0.189-0.034,0.284-0.013c0.095,0.004,0.183,0.032,0.265,0.084
				c0.338,0.226,0.678,0.452,1.017,0.678c0.107,0.063,0.192,0.148,0.255,0.255c0.024,0.057,0.048,0.113,0.072,0.17
				c0.059,0.183,0.015,0.383-0.072,0.548c-0.081,0.154-0.26,0.282-0.425,0.327c-0.095,0.03-0.189,0.034-0.284,0.013
				c-0.095-0.004-0.183-0.032-0.265-0.084c-0.338-0.226-0.678-0.452-1.017-0.678c-0.107-0.063-0.192-0.148-0.255-0.255
				c-0.024-0.057-0.048-0.113-0.072-0.17C376.336,385.393,376.38,385.193,376.467,385.028z M389.455,378.404
				c0.917,0,0.915,1.423,0,1.423C388.537,379.827,388.539,378.404,389.455,378.404z M386.912,376.031c0.917,0,0.916,1.423,0,1.423
				C385.994,377.455,385.996,376.031,386.912,376.031z M383.247,373.841c0.038-0.048,0.074-0.096,0.111-0.144
				c0.065-0.069,0.141-0.118,0.229-0.147c0.085-0.045,0.176-0.065,0.274-0.061c0.098-0.004,0.19,0.017,0.275,0.061
				c0.088,0.029,0.165,0.078,0.229,0.147c0.227,0.226,0.452,0.452,0.678,0.678c0.088,0.089,0.149,0.193,0.183,0.314
				c0.009,0.063,0.017,0.126,0.026,0.189c-0.001,0.128-0.033,0.248-0.097,0.359c-0.037,0.048-0.074,0.096-0.111,0.144
				c-0.065,0.069-0.141,0.118-0.229,0.147c-0.085,0.045-0.176,0.065-0.274,0.061c-0.098,0.004-0.19-0.017-0.275-0.061
				c-0.088-0.029-0.165-0.078-0.229-0.147c-0.226-0.226-0.452-0.452-0.678-0.678c-0.088-0.089-0.149-0.193-0.183-0.314
				c-0.008-0.063-0.017-0.126-0.026-0.189C383.15,374.072,383.183,373.952,383.247,373.841z"/>
		</g>
		<g>
			<path style="fill:#FFFFFF;" d="M422.007,344.814c-4.004-6.305-9.057-12.124-15.533-15.974
				c-5.324-3.165-11.342-4.718-17.424-5.679c3.254,1.688,6.38,3.578,9.386,5.638c0.009-0.001,0.015-0.006,0.024-0.006
				c3.555-0.221,7.099,0.495,10.309,2.029c0.827,0.395,0.104,1.622-0.719,1.229c-2.385-1.139-4.977-1.736-7.603-1.835
				c6.933,5.011,13.231,10.907,19.025,17.271c0.616,0.676-0.388,1.685-1.006,1.006c-2.861-3.143-5.822-6.196-8.942-9.084
				c-2.875-2.662-5.904-5.16-9.066-7.474c1.316,4.351,3.32,8.455,5.947,12.177c0.53,0.751-0.705,1.461-1.229,0.718
				c-3.025-4.287-5.249-9.105-6.561-14.185c-0.003-0.011,0.001-0.02-0.001-0.03c-1.386-0.965-2.795-1.894-4.229-2.782
				c0.99,3.224,2.298,6.335,3.951,9.281c0.45,0.8-0.78,1.517-1.229,0.718c-1.965-3.499-3.494-7.233-4.547-11.106
				c-2.212-1.299-4.48-2.499-6.797-3.597c1.956,2.494,3.381,5.366,4.728,8.242c1.584,3.381,3.137,6.837,5.52,9.748
				c2.379,2.905,5.354,5.259,8.599,7.127c7.093,4.082,15.211,5.697,23.191,7.11C426.03,351.755,424.158,348.202,422.007,344.814z"/>
		</g>
		<g>
			<path style="fill:#FFFFFF;" d="M215.827,337.028c-1.592-0.376-3.136-0.912-4.696-1.401c-4.216-1.32-8.435-2.629-12.627-4.018
				c-0.418-0.139-0.837-0.282-1.254-0.422c-0.021,0.001-0.035,0.01-0.056,0.009c-3.726-0.178-7.453-0.347-11.18-0.507
				c-10.298-0.441-20.598-0.786-30.901-1.081c-1.038,2.369-2.129,4.714-3.202,7.068c-0.056,0.123-0.108,0.248-0.164,0.371
				c1.439-0.022,2.878-0.048,4.318-0.056c21.791-0.124,43.583,0.307,65.354,1.243C219.549,337.855,217.682,337.467,215.827,337.028z
				"/>
		</g>
		<g>
			<path style="fill:#FFFFFF;" d="M392.254,317.558c-0.138-0.146-0.284-0.283-0.416-0.434c-0.077-0.089-0.154-0.179-0.23-0.269
				c-0.869-0.572-1.715-1.169-2.533-1.767c-1.152-0.841-2.263-1.733-3.367-2.633c-3.853-0.628-7.756-0.877-11.66-0.859
				c-14.797,0.069-29.614,3.44-44.363,1.062c0.64,1.439,1.271,2.882,1.944,4.306c5.802,1.66,11.839,2.073,17.85,1.906
				c10.952-0.305,21.793-2.493,32.769-2.222C385.61,316.73,388.942,317.072,392.254,317.558z"/>
		</g>
		<g>
			<path style="fill:#352E4F;" d="M154.534,138.599c0.641-0.913,1.444-1.494,2.329-1.82c-0.77,0.865-1.256,2.033-1.476,3.209
				c-0.474,2.536-0.4,5.251,0.746,7.604c0.987,2.026,2.839,3.709,5.106,4.095c2.307,0.393,4.502-0.487,5.824-2.428
				c1.373-2.013,1.43-4.456,1.103-6.795c0.174,0.167,0.35,0.33,0.529,0.486c0.002,0.07,0.002,0.14,0.03,0.219
				c0.974,2.772,0.111,5.947-2.127,7.849c-0.699,0.594,0.311,1.597,1.006,1.006c2.234-1.898,3.298-4.999,2.83-7.873
				c0.999,0.502,2.12,0.734,3.443,0.498c0.9-0.161,0.518-1.533-0.379-1.372c-2.027,0.362-3.675-1.016-5-2.43
				c0.314-0.122,0.619-0.267,0.897-0.455c0.806-0.544,1.399-1.28,1.769-2.176c0.142-0.345-0.154-0.797-0.497-0.875
				c-0.415-0.094-0.723,0.128-0.876,0.497c0.071-0.171-0.001-0.003-0.013,0.024c-0.015,0.032-0.031,0.063-0.047,0.095
				c-0.044,0.086-0.092,0.171-0.142,0.253c-0.046,0.075-0.095,0.148-0.146,0.22c-0.007,0.009-0.001,0.004-0.006,0.011
				c-0.009,0.025-0.083,0.101-0.095,0.115c-0.115,0.134-0.239,0.26-0.37,0.377c-0.058,0.052-0.119,0.105-0.182,0.152
				c-0.02,0.014-0.04,0.028-0.047,0.033c-0.036,0.025-0.073,0.05-0.11,0.074c-0.147,0.097-0.302,0.184-0.46,0.262
				c-0.04,0.019-0.08,0.037-0.12,0.056c-0.007,0.003-0.003,0.002-0.008,0.004c-0.008,0.003-0.003,0-0.017,0.005
				c-0.083,0.03-0.165,0.06-0.249,0.087c-0.111,0.034-0.224,0.056-0.336,0.079c-0.351-0.39-0.711-0.768-1.078-1.137
				c0.272-0.203,0.528-0.426,0.745-0.685c0.621-0.739,0.993-1.594,1.103-2.552c0.042-0.371-0.358-0.727-0.712-0.712
				c-0.411,0.018-0.65,0.301-0.704,0.682c0.002-0.021,0.003-0.029-0.008,0.028c-0.008,0.047-0.016,0.093-0.026,0.14
				c-0.017,0.085-0.038,0.169-0.06,0.252c-0.024,0.083-0.049,0.166-0.079,0.247c-0.015,0.044-0.033,0.087-0.049,0.13
				c-0.002,0.004-0.001,0.001-0.003,0.006c-0.079,0.164-0.162,0.324-0.259,0.477c-0.046,0.073-0.097,0.144-0.146,0.215
				c-0.005,0.007-0.002,0.003-0.005,0.008c-0.03,0.036-0.059,0.072-0.09,0.108c-0.113,0.132-0.235,0.256-0.364,0.372
				c-0.035,0.032-0.071,0.063-0.107,0.093c-0.014,0.012-0.038,0.028-0.057,0.04c0.012-0.008,0.024-0.015,0.053-0.033
				c-0.079,0.05-0.153,0.112-0.231,0.163c-0.022,0.014-0.045,0.024-0.067,0.037c-0.302-0.256-0.607-0.508-0.933-0.737
				c0.109-0.13,0.232-0.248,0.327-0.389c0.393-0.585,0.606-1.248,0.698-1.941c0.022-0.167-0.096-0.39-0.208-0.503
				c-0.124-0.123-0.326-0.216-0.503-0.208c-0.184,0.008-0.375,0.069-0.503,0.208c-0.137,0.149-0.182,0.305-0.208,0.503
				c0.032-0.239-0.003-0.002-0.015,0.054c-0.013,0.067-0.029,0.134-0.047,0.2c-0.032,0.123-0.072,0.244-0.117,0.363
				c0,0.001-0.001,0.003-0.002,0.006c-0.003,0.007-0.004,0.015-0.007,0.022c-0.01,0.026-0.022,0.051-0.031,0.076
				c0.006-0.018,0.008-0.022,0.013-0.035c-0.029,0.061-0.058,0.122-0.089,0.182c-0.064,0.122-0.134,0.24-0.211,0.353
				c-0.031,0.046-0.063,0.09-0.095,0.135c-0.018,0.022-0.035,0.044-0.054,0.066c-0.049,0.057-0.103,0.109-0.154,0.163
				c-0.001,0-0.002-0.001-0.003-0.001c-3.293-1.707-7.594-1.421-9.852,1.799C152.778,138.632,154.01,139.344,154.534,138.599z
				 M158.159,146.272c-0.021-0.027-0.041-0.055-0.061-0.083c0.031-0.001,0.06-0.001,0.092-0.005
				C158.176,146.212,158.172,146.243,158.159,146.272z M161.461,136.976c-0.032-0.017-0.063-0.034-0.096-0.05
				c0.072,0.025,0.144,0.045,0.215,0.072C161.539,136.993,161.503,136.979,161.461,136.976z M157.247,138.655
				c1.4-0.208,2.903,0.695,3.406,2.014c0.538,1.411-0.243,3.014-1.508,3.736c-0.642,0.366-1.413,0.238-2.035,0.591
				c-0.123,0.07-0.217,0.154-0.296,0.243c-0.174-0.733-0.271-1.486-0.28-2.227C156.519,141.839,156.626,140.016,157.247,138.655z"/>
		</g>
		<g>
			<path style="fill:#352E4F;" d="M165.544,137.398C165.517,137.414,165.523,137.411,165.544,137.398L165.544,137.398z"/>
		</g>
		<g>
			<path style="fill:#352E4F;" d="M163.788,135.122c0.001-0.002,0.001-0.004,0.002-0.006c0.001-0.004-0.008,0.018-0.026,0.069
				c0-0.001,0.001-0.002,0.001-0.003C163.773,135.163,163.783,135.135,163.788,135.122z"/>
		</g>
		<g>
			<path style="fill:#352E4F;" d="M416.74,335.509c-2.562-2.798-5.452-5.317-8.658-7.352c-3.316-2.104-6.977-3.614-10.748-4.684
				c-4.054-1.151-8.225-1.801-12.402-2.308c-0.108-0.049-0.213-0.102-0.322-0.15c-2.441-1.085-4.933-2.043-7.464-2.886
				c0.769-0.027,1.536-0.068,2.306-0.076c5.446-0.059,10.856,0.507,16.21,1.482c6.078,1.106,12.059,2.674,18.03,4.242
				c0.887,0.233,1.265-1.14,0.379-1.372c-10.427-2.738-20.984-5.49-31.823-5.757c-10.977-0.27-21.817,1.918-32.769,2.222
				c-6.011,0.167-12.048-0.246-17.85-1.906c-0.673-1.425-1.304-2.867-1.944-4.306c14.749,2.379,29.566-0.992,44.363-1.062
				c4.383-0.02,8.766,0.267,13.077,1.085c0.895,0.17,1.279-1.202,0.378-1.372c-15.121-2.868-30.345,0.679-45.528,0.806
				c-4.347,0.036-8.696-0.225-12.978-0.997c-1.316-3.02-2.586-6.06-3.759-9.138c-1.411-3.702-2.707-7.445-3.909-11.219
				c1.473,2.741,2.883,5.515,4.22,8.324c0.251,0.526,1.206,0.427,1.301-0.17c1.462-9.27,0.508-18.866-2.842-27.641
				c-3.143-8.234-8.367-15.633-14.911-21.524c-0.62-0.558-1.268-1.084-1.913-1.615c2.714,0.965,5.512,1.689,8.355,2.149
				c3.196,0.516,6.43,0.709,9.664,0.555c0.642-0.031,1.049-1.014,0.359-1.326c-16.319-7.376-28.861-20.613-40.407-33.926
				c-6.113-7.048-12.08-14.232-18.565-20.946c-3.229-3.343-6.586-6.567-10.132-9.575c-3.349-2.84-6.86-5.641-10.847-7.535
				c-3.943-1.872-8.323-2.765-12.613-1.644c-3.281,0.857-6.219,2.818-7.908,5.724c-0.095,0.075-0.181,0.167-0.236,0.299
				c-0.029,0.07-0.045,0.145-0.074,0.216c-2.092-8.964-0.196-18.651,4.916-26.293c1.521-2.274,3.334-4.332,5.38-6.147
				c0.559-0.495-0.04-1.342-0.692-1.189c-2.042,0.477-3.991,1.245-5.811,2.26c1.271-2.223,2.892-4.214,4.834-5.924
				c0.519-0.457-0.028-1.438-0.692-1.189c-1.843,0.689-3.685,1.378-5.528,2.067c1.696-1.721,3.392-3.442,5.088-5.163
				c0.594-0.603-0.154-1.45-0.862-1.118c-2.436,1.141-5.213,1.41-7.816,0.814c3.355-1.143,6.294-3.287,8.429-6.158
				c0.29-0.39-0.033-0.917-0.425-1.045c-3.836-1.256-7.87-1.651-11.86-1.221c2.423-2.321,5.15-4.283,8.16-5.803
				c0.621-0.314,0.338-1.37-0.359-1.326c-2.176,0.137-4.352,0.274-6.528,0.41c1.129-0.87,2.258-1.739,3.387-2.609
				c0.435-0.335,0.495-1.162-0.17-1.301c-2.375-0.497-4.801-0.444-7.122,0.162c0.964-1.491,1.927-2.983,2.891-4.474
				c0.403-0.623-0.376-1.296-0.974-0.974c-1.21,0.654-2.42,1.307-3.63,1.96c0.91-2.45,1.448-5.007,1.562-7.641
				c0.022-0.5-0.637-0.94-1.071-0.615c-1.565,1.175-2.98,2.496-4.27,3.942c0.296-2.436,0.172-4.902-0.4-7.315
				c-0.121-0.51-0.833-0.704-1.19-0.314c-2.22,2.427-4.963,4.247-7.783,5.915c0.825-1.475,1.46-3.071,1.934-4.657
				c0.813-2.717,1.316-5.704,0.849-8.531c-0.18-1.092-0.561-2.47-1.934-2.421c-1.111,0.04-1.877,1.341-2.477,2.126
				c-0.853,1.116-1.653,2.272-2.53,3.37c-0.35,0.44-0.71,0.88-1.114,1.272c-0.092,0.088-0.402,0.458-0.587,0.331
				c-0.202-0.14,0.016-0.577,0.064-0.738c1.297-4.331,2.325-8.845,3.015-13.313c0.086-0.553,0.59-3.56-0.997-2.628
				c-0.38,0.223-0.641,0.755-0.879,1.109c-0.48,0.715-0.947,1.439-1.422,2.158c-1.543,2.334-3.147,4.68-4.865,6.937
				c1.397-2.89,2.171-6.04,2.188-9.284c0.016-3.124-0.617-6.216-1.589-9.174c-0.216-0.659-1.169-0.693-1.372,0
				c-1.253,4.271-3.4,8.181-6.012,11.767c-0.33,0.453-0.679,0.891-1.024,1.332c0.729-1.218,1.411-2.466,1.981-3.789
				c2.225-5.169,2.632-10.744,0.325-15.968c-1.805-4.086-4.936-7.459-8.319-10.301c-0.613-0.515-1.466,0.197-1.188,0.777
				c-0.116,0.114-0.199,0.268-0.204,0.476c-0.058,2.64-0.583,5.266-1.221,7.82c-0.854,3.417-1.991,6.772-3.374,10.011
				c-1.494,3.502-3.236,7.005-5.518,10.066c-2.311,3.099-5.171,5.814-8.236,8.157c-2.721,2.079-5.51,4.004-8.066,6.298
				c-2.519,2.262-4.867,4.714-7.024,7.324c-4.299,5.201-7.861,11.002-10.526,17.201c-2.928,6.807-4.768,14.031-5.408,21.413
				c-9.013-1.061-18.198,0.724-26.133,5.141c-0.111,0.023-0.222,0.04-0.334,0.065c-0.237,0.054-0.379,0.192-0.451,0.359
				c-0.607,0.399-0.245,1.215,0.395,1.297c10.995,1.402,21.246,7.059,28.414,15.478c0.003,0.006,0.001,0.012,0.004,0.018
				c8.344,17.525,4.153,37.501,1.193,55.767c-0.893,5.51-1.689,11.04-2.074,16.611c-0.039,0.561,0.627,0.856,1.071,0.614
				c0.628-0.342,1.212-0.743,1.755-1.189c-2.576,8.552-2.425,17.892,0.474,26.369c1.016,2.971,2.364,5.82,4.023,8.485
				c0.222,0.357,0.814,0.511,1.118,0.144c0.751-0.909,1.334-1.912,1.745-2.978c1.762,13.031,9.356,24.774,19.231,33.293
				c10.282,8.87,22.721,14.581,35.431,19.122c-11.534-0.527-23.072-0.981-34.613-1.328c-3.728-0.112-7.457-0.214-11.187-0.307
				c-0.917-0.023-0.916,1.4,0,1.423c13.082,0.327,26.16,0.769,39.234,1.329c3.727,0.159,7.453,0.329,11.18,0.507
				c0.021,0.001,0.035-0.008,0.056-0.009c0.418,0.14,0.836,0.284,1.254,0.422c4.193,1.389,8.412,2.699,12.627,4.018
				c1.56,0.488,3.104,1.025,4.696,1.401c1.855,0.439,3.721,0.827,5.591,1.205c-21.771-0.936-43.563-1.366-65.354-1.243
				c-6.498,0.037-12.996,0.122-19.494,0.252c-0.915,0.018-0.917,1.442,0,1.423c19.607-0.394,39.22-0.335,58.825,0.128
				c-3.249,2.175-6.058,4.838-8.704,7.683c-0.356-0.093-0.791,0.072-0.915,0.489c-11.264,5.471-23.568,9.193-32.778,18.078
				c-9.118,8.796-14.515,20.861-16.495,33.261c-1.265,7.927-1.243,15.997-0.332,23.96c0.08,0.701,0.904,0.968,1.326,0.359
				c3.606-5.205,9.494-8.059,15.123-10.541c3.049-1.345,6.134-2.635,9.042-4.273c2.541-1.432,4.91-3.159,7.055-5.136
				c9.018-8.312,13.698-20.206,15.916-32.031c1.395-7.438,1.947-14.996,2.456-22.537c0.115-0.125,0.229-0.249,0.344-0.373
				c0.099-0.049,0.202-0.092,0.301-0.142c0.261-0.131,0.353-0.345,0.348-0.561c2.946-3.118,6.118-5.978,9.888-8.166
				c0.002-0.001,0.003-0.003,0.005-0.004c2.687,0.069,5.375,0.117,8.062,0.202c6.496,0.205,12.989,0.459,19.481,0.757
				c0.44,0.02,0.662-0.299,0.679-0.64c8.761,1.728,17.546,3.348,26.352,4.834c7.157,1.207,14.378,2.596,21.652,2.682
				c1.969,0.023,3.919,0.175,5.824,0.673c5.462,2.166,11.013,4.118,16.555,6.088c8.302,9.168,15.304,19.421,21.436,30.145
				c6.533,11.428,12.094,23.376,17.453,35.39c2.778,6.229,5.505,12.481,8.292,18.706c1.406,3.138,2.827,6.27,4.278,9.387
				c1.033,2.22,2.163,4.778,4.382,6.063c2.113,1.224,4.526,0.617,6.234-0.997c2.004-1.894,3.026-4.68,3.732-7.28
				c1.059-3.901,1.311-7.977,1.161-12.032c0.493,0.829,1.031,1.633,1.644,2.388c0.999,1.229,3.295,3.949,5.04,2.354
				c0.757-0.692,0.992-1.965,1.25-2.906c0.334-1.221,0.572-2.463,0.742-3.717c0.354-2.616,0.391-5.26,0.236-7.893
				c-0.177-2.997-0.561-5.983-1.094-8.946c1.636,1.978,3.714,3.653,6.049,4.507c1.742,0.637,3.488,0.046,4.407-1.587
				c0.984-1.749,0.737-4.046,0.584-5.964c-0.379-4.766-1.679-9.345-3.531-13.712c0.689,0.837,1.393,1.661,2.113,2.471
				c1.425,1.602,2.909,3.152,4.432,4.662c1.469,1.457,2.938,3.066,4.634,4.263c1.404,0.992,3.332,1.534,4.767,0.281
				c1.186-1.036,1.425-2.791,1.359-4.278c-0.194-4.351-1.815-8.613-3.919-12.38c-1.181-2.115-2.558-4.104-4.018-6.032
				c2.727,2.296,5.533,4.499,8.43,6.581c2.195,1.578,4.437,3.091,6.722,4.536c0.979,0.62,2.079,1.473,3.295,1.487
				c0.972,0.011,1.785-0.643,1.967-1.597c0.194-1.01-0.309-2.01-0.73-2.894c-0.561-1.181-1.161-2.344-1.794-3.488
				c-1.239-2.234-2.61-4.392-4.089-6.475c-5.911-8.324-13.406-15.368-21.263-21.827c-8.057-6.624-16.572-12.666-24.628-19.292
				c-8.045-6.618-15.736-13.864-21.612-22.524c-0.443-0.653-0.855-1.326-1.275-1.993c9.638,2.287,19.665,1.429,29.438,0.429
				c3.443-0.353,6.889-0.704,10.342-0.946c0.009,0.003,0.013,0.009,0.022,0.011c3.318,0.93,6.555,2.084,9.706,3.428
				c0.029,0.112,0.079,0.222,0.183,0.324c5.441,5.314,6.869,13.248,11.405,19.203c4.794,6.294,12.053,10.101,19.488,12.381
				c4.907,1.505,9.971,2.408,15.018,3.294c0.626,0.11,1.085-0.464,0.803-1.045C426.158,348.672,422.223,341.498,416.74,335.509z
				 M178.259,386.708c-2.386,5.202-5.555,10.083-9.65,14.105c-2.101,2.063-4.43,3.871-6.968,5.367
				c-2.828,1.667-5.849,2.97-8.852,4.286c-5.629,2.466-11.398,5.211-15.38,9.993c-1.251-12.905-0.12-26.273,5.301-38.174
				c2.493-5.473,5.821-10.582,9.991-14.926c4.348-4.53,9.562-7.94,15.158-10.734c5.338-2.665,10.893-4.856,16.31-7.349
				c-2.589,2.958-5.102,6.002-7.808,8.839c-0.143-0.026-0.298-0.017-0.46,0.074c-4.416,2.49-9.355,3.924-14.419,4.174
				c-0.912,0.045-0.917,1.469,0,1.423c3.888-0.192,7.701-1.048,11.284-2.512c-3.102,2.893-6.031,5.969-8.758,9.217
				c-0.044,0.02-0.088,0.028-0.133,0.061c-3.319,2.441-7.437,3.498-11.521,2.967c-0.906-0.118-0.897,1.307,0,1.423
				c3.115,0.405,6.312-0.103,9.167-1.385c-3.593,4.623-6.802,9.544-9.567,14.707c-1.581,2.953-3.007,5.984-4.301,9.073
				c-0.354,0.844,1.023,1.212,1.372,0.378c3.531-8.43,8.216-16.371,13.847-23.57c-1.254,4.903-1.215,10.088,0.152,14.983
				c0.246,0.881,1.62,0.507,1.373-0.378c-1.559-5.578-1.316-11.491,0.666-16.93c0.057-0.156,0.044-0.289,0.007-0.409
				c0.913-1.088,1.846-2.16,2.804-3.209c1.643-1.8,3.37-3.517,5.136-5.195c0.069,0.006,0.139-0.005,0.21-0.021
				c-0.669,5.11-0.183,10.316,1.464,15.221c0.29,0.864,1.665,0.493,1.373-0.378c-1.755-5.224-2.168-10.805-1.177-16.225
				c3.836-3.618,7.166-7.799,10.669-11.781C184.691,362.349,183.548,375.177,178.259,386.708z M233.616,177.199
				c3.881-0.95,7.868-0.082,11.412,1.625c3.922,1.889,7.372,4.644,10.667,7.453c3.457,2.948,6.735,6.102,9.89,9.369
				c12.256,12.691,22.688,27.079,35.732,39.019c6.301,5.767,13.205,10.93,20.841,14.778c-7.016-0.146-13.969-1.929-20.217-5.119
				c-1.363-0.87-2.76-1.685-4.203-2.418c-1.175-0.764-2.318-1.581-3.419-2.45c-2.453-1.936-4.696-4.124-6.703-6.519
				c-0.589-0.703-1.591,0.308-1.006,1.006c2.768,3.303,6.004,6.194,9.565,8.612c0.057,0.107,0.139,0.205,0.281,0.275
				c0.256,0.126,0.502,0.272,0.755,0.402c1.382,0.888,2.805,1.714,4.27,2.457c12.867,8.272,21.952,22.242,24.112,37.398
				c0.621,4.36,0.649,8.802,0.156,13.179c-4.874-9.917-10.588-19.414-17.105-28.338c-1.938-2.654-3.947-5.256-6.015-7.809
				c-0.577-0.712-1.578,0.301-1.006,1.006c6.149,7.587,11.699,15.654,16.606,24.096c-0.017,0.098-0.015,0.205,0.019,0.323
				c2.941,10.172,6.633,20.12,11.034,29.75c4.418,9.667,9.553,19.007,15.352,27.914c2.902,4.458,5.999,8.782,9.223,13.013
				c-6.202-1.422-11.663-5.021-16.003-9.654c-5.308-5.666-8.772-12.749-11.401-19.986c-1.562-4.297-2.856-8.684-4.145-13.069
				c-0.258-0.877-1.632-0.504-1.373,0.378c2.785,9.467,5.881,19.501,11.34,27.804c-10.3-8.659-18.72-19.476-24.53-31.625
				c-1.792-3.748-3.322-7.614-4.596-11.567c-0.28-0.868-1.655-0.497-1.373,0.378c2.765,8.574,6.768,16.721,11.801,24.177
				c-9.035-3.925-16.104-11.279-21.324-19.515c1.092,0.182,2.204,0.265,3.334,0.215c0.571-0.025,0.997-0.788,0.503-1.215
				c-3.062-2.648-5.938-5.494-8.617-8.513c-2.879-6.175-5.2-12.584-7.507-18.989c-0.308-0.855-1.684-0.486-1.373,0.378
				c1.771,4.916,3.553,9.833,5.579,14.649c-2.989-3.776-5.697-7.775-8.062-11.987c-0.449-0.799-1.679-0.082-1.229,0.718
				c3.22,5.734,7.05,11.108,11.398,16.028c0.012,0.025,0.022,0.051,0.034,0.076c0.072,0.153,0.177,0.238,0.29,0.295
				c2.225,2.49,4.596,4.846,7.079,7.084c-6.697-0.559-12.24-5.53-16.538-10.386c-3.055-3.451-5.854-7.125-8.44-10.942
				c-0.01-0.027-0.038-0.052-0.052-0.079c-1.863-2.754-3.631-5.572-5.239-8.479c-2.204-3.984-4.16-8.103-5.854-12.33
				c-0.336-0.84-1.714-0.473-1.372,0.378c2.33,5.813,5.129,11.429,8.386,16.772c-8.25-6.837-17.656-12.156-26.118-18.731
				c-2.776-2.158-5.438-4.461-7.905-6.969c-0.644-0.654-1.65,0.353-1.006,1.006c8.765,8.91,19.82,14.946,29.777,22.35
				c2.828,2.103,5.557,4.336,8.119,6.759c0.193,0.285,0.366,0.582,0.562,0.864c2.334,3.376,4.852,6.626,7.542,9.726
				c2.489,2.87,5.193,5.589,8.329,7.756c1.98,1.368,4.15,2.457,6.439,3.114c0.012,0.024,0.011,0.048,0.026,0.072
				c0.331,0.546,0.673,1.087,1.02,1.624c-2.823,0.188-5.541-0.693-8.12-1.81c-2.696-1.167-5.342-2.463-7.959-3.797
				c-5.298-2.702-10.451-5.683-15.442-8.917c-0.771-0.499-1.485,0.732-0.719,1.229c5.178,3.355,10.529,6.437,16.037,9.219
				c2.673,1.35,5.376,2.676,8.143,3.826c0.475,0.198,0.958,0.382,1.443,0.558c0.028,0.18,0.125,0.352,0.316,0.479
				c4.179,2.773,8.093,5.923,11.686,9.422c1.78,1.733,3.48,3.548,5.093,5.438c0.749,0.878,1.524,1.758,2.195,2.698
				c0.303,0.425,0.796,1.148,0.467,1.692c-0.454,0.751-1.657-0.116-2.172-0.389c-9.095-4.83-17.884-10.234-26.301-16.167
				c-4.824-3.401-9.521-6.978-14.086-10.718c-0.703-0.576-1.716,0.425-1.006,1.006c8.811,7.218,18.105,13.839,27.824,19.778
				c0.93,0.568,1.882,1.1,2.819,1.655c0.018,0.194,0.111,0.383,0.327,0.515c9.603,5.871,18.117,13.462,25.035,22.342
				c0.885,1.136,1.741,2.295,2.57,3.473c0.303,0.43,1.088,1.285,0.772,1.819c-0.33,0.558-1.496-0.092-1.917-0.285
				c-2.689-1.234-5.238-2.757-7.689-4.411c-5.16-3.482-10.009-7.439-14.941-11.232c-5.881-4.524-11.763-9.047-17.643-13.571
				c-0.726-0.558-1.435,0.678-0.719,1.229c5.694,4.38,11.389,8.76,17.083,13.14c5.324,4.095,10.551,8.402,16.161,12.103
				c2.52,1.662,5.243,3.415,8.102,4.432c0.439,0.156,0.935,0.238,1.404,0.201c0.024,0.025,0.035,0.054,0.066,0.078
				c1.628,1.261,3.162,2.637,4.576,4.136c0.635,0.674,1.247,1.37,1.833,2.088c0.017,0.022,0.039,0.046,0.057,0.068
				c0.015,0.197,0.101,0.392,0.298,0.537c0.146,0.108,0.279,0.23,0.424,0.34c0.44,0.55,0.851,1.14,1.01,1.775
				c0.256,1.031-0.55,1.302-1.366,1.134c-0.851-0.175-1.585-0.654-2.3-1.122c-1.652-1.082-3.348-2.096-5.076-3.051
				c-6.85-3.783-14.169-6.625-21.51-9.291c-7.463-2.711-15.005-5.245-22.271-8.464c-7.097-3.144-13.838-7.024-20.065-11.664
				c-7.02-5.231-13.339-11.389-18.791-18.237c-0.57-0.716-1.571,0.297-1.006,1.006c6.331,7.953,13.827,14.898,22.167,20.638
				c0.016,0.017,0.02,0.035,0.038,0.051c4.505,4.087,9.051,8.16,13.891,11.852c-15.133-2.491-28.256-11.618-39.153-22.061
				c-3.356-3.216-6.56-6.586-9.699-10.014c-0.62-0.677-1.625,0.332-1.006,1.006c2.496,2.726,5.061,5.425,7.708,8.045
				c-8.265-5.738-16.268-11.855-24.054-18.224c-9.587-7.842-19.007-15.986-27.84-24.674c-8.666-8.524-16.659-17.905-22.167-28.814
				c-2.689-5.326-4.758-10.987-5.911-16.849c-0.968-4.924-1.204-10.477,0.935-15.143c2.247-4.899,7.027-7.604,12.301-7.944
				c5.876-0.379,11.396,2.022,16.341,4.97c1.26,0.751,2.494,1.543,3.721,2.348c0.768,0.504,1.482-0.728,0.718-1.229
				c-3.598-2.362-7.4-4.659-11.489-6.09c0.917-0.13,1.823-0.379,2.687-0.78c1.314-0.611,2.504-1.535,3.426-2.652
				c0.427-0.517,0.81-1.071,1.12-1.665c0.243-0.464,0.525-1.755,1.06-1.978c0.586-0.245,1.179,0.973,1.459,1.337
				c0.461,0.602,0.993,1.125,1.6,1.581c1.158,0.871,2.53,1.443,3.964,1.654c2.769,0.408,5.567-0.655,7.426-2.741
				c0.929-1.043,1.573-2.262,1.928-3.61c0.132-0.502,0.274-1.639,0.94-1.692c0.607-0.048,1.217,1.037,1.535,1.43
				c2.058,2.547,5.512,3.793,8.724,3.199c2.71-0.501,4.997-2.327,6.287-4.713c1.496,1.986,4.273,2.943,6.619,1.789
				c1.43-0.703,2.598-2.107,3.282-3.693c0.442,1.264,1.019,2.483,1.747,3.618c0.493,0.769,1.726,0.056,1.229-0.718
				c-2.756-4.295-3.276-9.69-1.504-14.452C227.472,179.886,230.45,177.974,233.616,177.199z M146.902,202.06
				c-0.73,2.902-2.833,5.746-5.924,6.332c-2.71,0.514-5.765-1.186-6.319-3.962c-0.001-0.009-0.008-0.014-0.01-0.023
				c0.124-1.729,0.206-3.46,0.238-5.194c1.484,1.943,4.118,2.992,6.567,2.659c3.167-0.431,5.564-2.903,6.772-5.764
				c1.176,1.861,3.06,3.256,5.264,3.668c2.793,0.523,5.758-0.586,7.576-2.764c0.425-0.509,0.756-1.059,1.061-1.646
				c0.129-0.248,0.317-0.77,0.59-0.887c0.486-0.209,0.89,0.436,1.141,0.747c0.951,1.175,2.041,2.152,3.405,2.83
				c2.657,1.322,5.744,1.409,8.441,0.156c1.314-0.611,2.504-1.535,3.426-2.652c0.427-0.517,0.809-1.071,1.12-1.665
				c0.243-0.464,0.525-1.755,1.06-1.978c0.587-0.245,1.179,0.973,1.459,1.337c0.461,0.602,0.994,1.125,1.6,1.581
				c1.158,0.871,2.531,1.443,3.964,1.654c2.769,0.408,5.567-0.655,7.426-2.741c0.929-1.043,1.573-2.262,1.928-3.61
				c0.133-0.502,0.274-1.639,0.941-1.692c0.606-0.048,1.216,1.037,1.534,1.43c2.059,2.547,5.512,3.793,8.724,3.199
				c2.709-0.501,4.997-2.327,6.286-4.713c1.457,1.937,4.131,2.901,6.451,1.865c0.729-0.325,1.391-0.858,1.957-1.496
				c0.008,0.702,0.057,1.399,0.147,2.095c0.418,2.11-1.026,4.748-2.801,5.849c-2.004,1.242-4.859,0.082-5.66-2.073
				c-0.247-0.664-1.131-0.683-1.373,0c-0.955,2.706-3.481,4.824-6.364,5.125c-1.452,0.151-2.956-0.132-4.26-0.788
				c-1.345-0.676-2.2-1.671-3.152-2.792c-0.735-0.866-1.865-1.567-2.978-0.895c-1.053,0.636-1.158,2.005-1.51,3.057
				c-0.892,2.669-3.502,4.711-6.331,4.806c-1.439,0.049-2.867-0.353-4.088-1.111c-0.575-0.357-1.09-0.794-1.541-1.299
				c-0.473-0.529-0.8-1.186-1.318-1.677c-0.875-0.829-2.097-0.808-2.858,0.152c-0.379,0.479-0.563,1.053-0.817,1.601
				c-0.322,0.696-0.738,1.349-1.238,1.929c-1.933,2.239-4.941,3.375-7.86,2.788c-1.461-0.294-2.853-0.962-3.974-1.947
				c-0.923-0.811-1.609-2.342-2.914-2.574c-1.607-0.287-2.117,1.468-2.802,2.512c-0.885,1.348-2.314,2.327-3.865,2.742
				c-3.22,0.863-6.636-1.069-7.751-4.172C148.049,201.434,147.085,201.335,146.902,202.06z M160.551,204.97
				c0.425-0.509,0.756-1.059,1.061-1.646c0.129-0.248,0.317-0.77,0.591-0.887c0.486-0.209,0.889,0.435,1.141,0.747
				c0.758,0.937,1.613,1.741,2.617,2.375c-2.261-0.152-4.567,0.047-6.749,0.661C159.701,205.853,160.157,205.442,160.551,204.97z
				 M198.238,87.477c-0.003,0.008-0.003,0.019-0.006,0.028C198.222,87.494,198.276,87.37,198.238,87.477z M127.187,152.43
				c0.085,0.012,0.163-0.001,0.238-0.014c2.41,0.533,4.801,1.304,6.995,2.439c0.738,0.382,1.398,0.847,1.851,1.492
				c-4.943,2.598-10.993,2.539-16.337,1.562c-5.038-0.921-10.114-2.352-15.23-2.247C111.725,152.56,119.557,151.379,127.187,152.43z
				 M108.004,158.086c-1.267-0.392-2.548-0.723-3.842-0.999c5.733-0.28,11.423,1.612,17.067,2.475
				c5.125,0.784,10.864,0.516,15.571-1.894c0.192,1.072,0.01,2.202-0.224,3.247c-1.015,4.53-3.238,8.719-6.353,12.149
				c-0.124-0.153-0.256-0.299-0.383-0.45c-0.057-0.119-0.134-0.198-0.219-0.257C123.951,165.679,116.376,160.679,108.004,158.086z
				 M130.699,174.626c0.016-0.02,0.031-0.04,0.044-0.061c0.044-0.03,0.09-0.048,0.131-0.092c3.68-3.896,6.468-8.981,7.296-14.318
				c0.402-2.59-0.194-4.897-2.559-6.273c-2.277-1.325-4.908-2.174-7.484-2.762c1.146-13.501,6.51-26.577,15.012-37.113
				c2.126-2.635,4.443-5.115,6.936-7.408c2.568-2.363,5.366-4.353,8.145-6.447c2.995-2.256,5.785-4.813,8.132-7.743
				c2.343-2.925,4.14-6.237,5.695-9.637c1.66-3.629,3.028-7.401,4.036-11.263c0.698-2.671,1.261-5.434,1.391-8.203
				c4.696,4.191,8.644,9.61,8.513,16.162c-0.098,4.893-2.368,9.374-4.956,13.406c-1.156,1.801-2.434,3.528-3.516,5.376
				c-0.45,0.769,0.691,1.456,1.182,0.771c0.183,0.025,0.377-0.029,0.539-0.226c2.181-2.636,4.495-5.146,6.513-7.916
				c2.228-3.059,4.104-6.366,5.416-9.91c1.009,3.932,1.279,8.03,0.145,11.987c-0.981,3.424-2.928,6.428-5.227,9.112
				c-1.058,1.233-2.183,2.405-3.267,3.614c-0.609,0.68,0.393,1.69,1.006,1.006c0.037-0.041,0.074-0.082,0.112-0.123
				c0.109-0.023,0.218-0.065,0.321-0.148c4.517-3.653,8.106-8.422,11.385-13.176c0.783-1.134,1.539-2.286,2.297-3.435
				c-0.669,3.991-1.595,7.984-2.702,11.869c-0.267,0.937-0.682,1.947,0.205,2.706c0.954,0.816,1.981,0.203,2.712-0.552
				c1.698-1.754,2.873-3.947,4.508-5.754c0.154-0.17,0.375-0.529,0.644-0.367c0.172,0.103,0.241,0.749,0.281,0.934
				c0.143,0.682,0.189,1.379,0.192,2.075c0.008,1.523-0.21,3.038-0.554,4.518c-0.673,2.895-1.789,6.03-3.844,8.248
				c-0.331,0.357-0.197,0.802,0.09,1.046c0.025,0.024,0.054,0.04,0.083,0.059c0.035,0.023,0.069,0.047,0.109,0.064
				c0.052,0.024,0.108,0.035,0.165,0.045c0.026,0.004,0.05,0.009,0.076,0.009c0.07,0.002,0.142-0.013,0.217-0.036
				c0.008-0.003,0.017-0.005,0.025-0.008c0.043-0.015,0.085-0.018,0.129-0.043c3.425-1.96,6.94-3.957,9.795-6.713
				c0.445,2.675,0.354,5.391-0.338,8.034c-0.215,0.822,0.842,1.176,1.3,0.548c1.259-1.724,2.728-3.285,4.357-4.664
				c-0.28,2.506-0.937,4.951-2.008,7.246c-0.295,0.631,0.314,1.33,0.974,0.974c0.976-0.527,1.953-1.055,2.93-1.582
				c-0.825,1.277-1.65,2.553-2.475,3.829c-0.315,0.487,0.22,1.282,0.803,1.045c2.138-0.867,4.407-1.211,6.676-1.001
				c-1.3,1.001-2.598,2.002-3.898,3.002c-0.497,0.383-0.428,1.376,0.359,1.326c1.912-0.12,3.824-0.24,5.735-0.361
				c-2.677,1.664-5.121,3.684-7.262,6.01c-0.501,0.544,0.001,1.318,0.692,1.189c4.095-0.762,8.284-0.533,12.275,0.604
				c-2.361,2.796-5.638,4.692-9.241,5.385c-0.571,0.11-0.726,1.057-0.17,1.301c2.694,1.18,5.619,1.46,8.419,0.852
				c-1.758,1.784-3.516,3.568-5.274,5.352c-0.469,0.476-0.001,1.449,0.692,1.189c1.848-0.691,3.696-1.382,5.545-2.073
				c-1.626,1.864-2.981,3.955-3.974,6.236c-0.247,0.57,0.325,1.439,0.974,0.974c1.491-1.069,3.099-1.911,4.79-2.563
				c-6.128,6.527-9.552,15.481-9.448,24.436c0.032,2.812,0.42,5.616,1.152,8.33c0.01,0.04,0.034,0.064,0.049,0.098
				c0.527,1.947-0.711,4.244-2.423,5.188c-1.995,1.101-4.726-0.088-5.5-2.169c-0.247-0.664-1.131-0.683-1.373,0
				c-0.955,2.706-3.481,4.824-6.364,5.124c-1.452,0.151-2.956-0.132-4.26-0.788c-1.345-0.676-2.199-1.671-3.151-2.792
				c-0.735-0.866-1.865-1.567-2.978-0.895c-1.054,0.636-1.159,2.005-1.511,3.057c-0.892,2.669-3.502,4.711-6.331,4.806
				c-1.439,0.049-2.866-0.353-4.087-1.111c-0.575-0.357-1.09-0.794-1.541-1.299c-0.473-0.529-0.801-1.186-1.318-1.677
				c-0.876-0.829-2.097-0.808-2.858,0.152c-0.38,0.479-0.564,1.053-0.817,1.601c-0.322,0.696-0.738,1.349-1.239,1.929
				c-1.932,2.239-4.94,3.375-7.859,2.788c-1.461-0.294-2.853-0.962-3.974-1.947c-0.923-0.811-1.609-2.342-2.914-2.574
				c-1.607-0.287-2.117,1.469-2.803,2.512c-0.885,1.348-2.314,2.327-3.865,2.742c-3.219,0.863-6.636-1.069-7.751-4.172
				c-0.224-0.626-1.19-0.725-1.373,0c-0.73,2.902-2.833,5.746-5.924,6.332c-2.71,0.514-5.765-1.186-6.318-3.962
				c-0.042-0.212-0.154-0.347-0.293-0.427c-0.057-2.892-0.252-5.79-0.672-8.7C133.576,182.969,132.409,178.697,130.699,174.626z
				 M271.651,345.254c-1.218-0.053-2.434-0.19-3.644-0.333c-3.81-0.45-7.603-1.053-11.39-1.669
				c-9.361-1.524-18.695-3.23-28.005-5.038c-3.466-0.673-6.93-1.355-10.38-2.104c-3.872-0.84-7.603-2.127-11.382-3.315
				c-15.067-4.736-30.326-9.891-43.313-19.136c-11.766-8.376-21.464-20.582-23.999-35.09c-0.3-1.719-0.48-3.454-0.559-5.197
				c-0.023-0.491-0.443-0.71-0.823-0.673c-0.418-0.142-0.971,0.072-0.966,0.644c0.015,1.787-0.502,3.496-1.468,4.974
				c-5.222-8.941-6.84-19.82-4.576-29.921c0.478-2.133,1.135-4.219,1.953-6.243c0.475-0.805,0.865-1.666,1.133-2.58
				c0.222-0.757-0.942-1.287-1.3-0.548c-0.39,0.804-0.743,1.623-1.079,2.449c-0.662,1.109-1.535,2.074-2.581,2.85
				c1.01-12.411,3.965-24.718,5.143-37.108c1.491,1.91,4.097,2.942,6.524,2.612c3.166-0.431,5.564-2.903,6.772-5.764
				c1.177,1.861,3.061,3.256,5.264,3.668c0.852,0.159,1.718,0.15,2.564,0.022c-0.975,0.561-1.901,1.212-2.732,2.006
				c-3.757,3.592-4.999,8.92-4.938,13.958c0.07,5.776,1.649,11.555,3.7,16.919c4.474,11.701,11.984,21.924,20.509,30.997
				c8.81,9.375,18.604,17.887,28.455,26.143c9.986,8.369,20.301,16.379,31.075,23.713c1.308,0.89,2.623,1.77,3.945,2.638
				c0.139,0.091,0.273,0.111,0.4,0.103c7.567,6.686,15.895,12.43,25.454,15.993c2.395,0.893,4.847,1.607,7.333,2.168
				c0.043,0.035,0.076,0.075,0.133,0.103c2.064,1.007,4.154,1.948,6.261,2.852C273.981,345.312,272.82,345.305,271.651,345.254z
				 M281.106,346.28c-0.079-0.082-0.175-0.152-0.309-0.191c-0.145-0.042-0.291-0.071-0.436-0.108
				c-2.135-0.852-4.258-1.731-6.357-2.665c0.229,0.029,0.455,0.073,0.685,0.099c0.777,0.087,0.862-0.964,0.359-1.326
				c-3.395-2.443-6.606-5.127-9.753-7.886c3.015,1.734,6.113,3.327,9.294,4.754c15.194,6.816,31.733,10.585,46.183,19.054
				c1.761,1.032,3.479,2.504,5.433,3.144c1.553,0.508,3.56,0.075,3.653-1.885c0.003-0.069-0.018-0.134-0.02-0.202
				c4.072,3.746,7.239,8.423,9.196,13.602c-12.254-9.702-26.949-15.173-41.595-20.39c-0.131-0.145-0.257-0.294-0.389-0.438
				c-0.296-0.323-0.676-0.257-0.929-0.031c-3.27-1.163-6.534-2.32-9.763-3.516C284.598,347.642,282.849,346.968,281.106,346.28z
				 M350.712,340.628c7.539,6.598,15.659,12.474,23.547,18.637c7.77,6.072,15.373,12.472,21.836,19.954
				c3.238,3.749,6.164,7.773,8.596,12.092c0.594,1.054,1.158,2.125,1.69,3.211c0.256,0.523,1.373,2.432,0.616,2.895
				c0.161-0.254,0.203-0.594-0.028-0.889c-4.418-5.648-9.282-10.931-14.547-15.798c-0.672-0.621-1.681,0.383-1.007,1.006
				c5.17,4.779,9.947,9.963,14.301,15.495c-0.246-0.138-0.482-0.295-0.678-0.416c-0.575-0.355-1.145-0.718-1.714-1.083
				c-1.138-0.73-2.264-1.478-3.38-2.241c-8.701-5.958-16.704-12.931-23.812-20.722c-0.876-0.96-1.737-1.934-2.587-2.918
				c-0.6-0.694-1.603,0.316-1.006,1.006c2.947,3.413,6.066,6.67,9.328,9.778c0.026,0.102,0.071,0.204,0.152,0.3
				c5.177,6.123,10.613,12.604,12.306,20.663c0.347,1.649,0.749,3.634,0.212,5.287c-0.174,0.536-0.437,0.892-0.753,1.113
				c-0.006-0.096-0.033-0.196-0.085-0.298c-2.463-4.793-5.341-9.359-8.603-13.648c-0.547-0.72-1.784-0.011-1.229,0.718
				c3.217,4.23,6.056,8.731,8.497,13.452c-0.659-0.127-1.347-0.487-1.918-0.943c-1.468-1.174-2.798-2.579-4.129-3.904
				c-1.341-1.332-2.65-2.696-3.915-4.099c-2.881-3.194-5.509-6.601-7.804-10.24c-0.589-0.976-1.198-1.938-1.823-2.885
				c-2.853-4.324-6.038-8.414-9.216-12.5c-0.562-0.722-1.562,0.292-1.006,1.006c3.755,4.829,7.535,9.696,10.721,14.927
				c0.01,0.019,0.009,0.038,0.021,0.057c0.033,0.051,0.068,0.1,0.1,0.152c1.011,1.672,1.965,3.378,2.833,5.135
				c1.772,3.587,3.184,7.365,4.03,11.281c0.425,1.968,0.701,3.965,0.797,5.977c0.069,1.453,0.265,3.665-0.942,4.762
				c-1.472-5.665-3.614-11.137-6.377-16.297c-0.433-0.808-1.662-0.09-1.229,0.718c2.725,5.089,4.823,10.477,6.266,16.066
				c0.004,0.016,0.015,0.025,0.02,0.041c-0.789-0.019-1.6-0.486-2.25-0.86c-0.866-0.498-1.683-1.076-2.434-1.735
				c-1.422-1.246-2.575-2.728-3.477-4.383c-1.241-5.45-3.024-10.783-5.292-15.862c-2.252-5.047-5.009-9.858-8.211-14.362
				c-0.527-0.74-1.761-0.03-1.229,0.718c5.127,7.21,9.093,15.211,11.7,23.667c0.606,1.965,1.133,3.954,1.592,5.959
				c-0.005,0.117,0.01,0.24,0.077,0.367c0.007,0.014,0.016,0.027,0.023,0.04c0.481,2.149,0.876,4.318,1.182,6.498
				c0.648,4.625,1.001,9.417,0.23,14.049c-0.122,0.736-0.281,1.464-0.463,2.187c-1.253-7.836-3.25-15.537-5.979-22.992
				c-0.312-0.853-1.688-0.485-1.373,0.378c3,8.194,5.123,16.685,6.337,25.326c-0.182,0.117-0.425,0.123-0.778-0.068
				c-0.524-0.284-0.972-0.781-1.381-1.207c-1.643-1.712-2.872-3.814-3.751-6.011c-0.088-0.987-0.186-1.971-0.303-2.946
				c-1.447-12.106-5.471-23.885-11.778-34.323c-0.8-1.324-1.639-2.623-2.508-3.902c-0.512-0.753-1.746-0.042-1.229,0.718
				c6.701,9.853,11.28,21.073,13.385,32.802c0.427,2.375,0.773,4.795,1.001,7.228c-0.099,0.144-0.134,0.333-0.047,0.559
				c0.036,0.093,0.081,0.182,0.117,0.275c0.275,3.364,0.311,6.748-0.044,10.073c-0.319,2.983-0.988,6.097-2.345,8.793
				c-0.107,0.212-0.227,0.43-0.355,0.648c-2.414-11.728-6.221-23.151-11.348-33.973c-1.519-3.206-3.156-6.354-4.899-9.444
				c-0.45-0.798-1.68-0.081-1.229,0.718c6.071,10.766,10.793,22.267,14.014,34.201c0.898,3.325,1.674,6.681,2.341,10.059
				c-1.106,1.246-2.571,2.119-4.273,1.549c-2.363-0.792-3.512-3.637-4.475-5.705c-1.404-3.013-2.779-6.039-4.14-9.072
				c-2.697-6.014-5.334-12.055-8.013-18.077c-5.189-11.663-10.544-23.272-16.775-34.422c-5.857-10.481-12.494-20.565-20.324-29.685
				c-0.236-0.275-0.484-0.54-0.722-0.813c9.13,3.27,18.187,6.705,26.72,11.378c4.928,2.699,9.635,5.802,13.921,9.442
				c0.51,0.433,1.409,0.035,1.189-0.692c-2.238-7.431-6.809-13.971-12.951-18.691c-0.562-0.727-1.133-1.45-1.744-2.136
				c-1.533-1.719-3.228-3.278-5.036-4.703c0.056-0.078,0.115-0.153,0.162-0.247c0.603-1.222-0.393-2.497-1.064-3.443
				c-3.479-4.906-7.423-9.481-11.769-13.639c-2.091-2-4.291-3.881-6.556-5.681c0.425,0.201,0.855,0.375,1.294,0.456
				c1.009,0.186,1.965-0.268,2.323-1.253c0.402-1.103-0.102-2.166-0.763-3.047c-1.609-2.145-3.418-4.166-5.268-6.105
				c-3.55-3.718-7.471-7.065-11.651-10.054c1.273,0.221,2.567,0.295,3.876,0.124c0.068-0.009,0.121-0.038,0.179-0.06
				c5.505,8.114,12.797,15.112,22.014,18.781c0.232,0.093,0.424,0.051,0.57-0.056c2.921,4.126,6.143,8.041,9.682,11.66
				c2.947,3.013,6.099,5.821,9.423,8.412c0.24,0.187,0.511,0.189,0.742,0.1c2.622,3.32,5.711,6.279,9.462,8.67
				c3.407,2.172,7.218,3.7,11.219,4.313c0.729,0.112,1.14-0.612,0.692-1.189c-6.445-8.309-12.269-17.101-17.419-26.269
				c-1.155-2.056-2.264-4.137-3.351-6.23C339.747,330.307,345.062,335.683,350.712,340.628z M404.609,348.244
				c-3.245-1.868-6.22-4.221-8.599-7.127c-2.383-2.91-3.936-6.367-5.52-9.748c-1.348-2.875-2.773-5.748-4.728-8.242
				c2.317,1.098,4.585,2.299,6.797,3.597c1.053,3.872,2.582,7.606,4.547,11.106c0.448,0.799,1.678,0.082,1.229-0.718
				c-1.653-2.946-2.96-6.057-3.951-9.281c1.434,0.888,2.844,1.817,4.229,2.782c0.002,0.011-0.001,0.019,0.001,0.03
				c1.312,5.08,3.536,9.898,6.561,14.185c0.524,0.743,1.759,0.032,1.229-0.718c-2.627-3.723-4.63-7.827-5.947-12.177
				c3.161,2.313,6.191,4.812,9.066,7.474c3.12,2.888,6.081,5.942,8.942,9.084c0.618,0.679,1.622-0.33,1.006-1.006
				c-5.794-6.364-12.092-12.26-19.025-17.271c2.627,0.099,5.218,0.696,7.603,1.835c0.823,0.393,1.546-0.834,0.719-1.229
				c-3.21-1.533-6.754-2.25-10.309-2.029c-0.009,0.001-0.015,0.005-0.024,0.006c-3.006-2.06-6.132-3.95-9.386-5.638
				c6.082,0.961,12.1,2.514,17.424,5.679c6.476,3.851,11.529,9.67,15.533,15.974c2.152,3.388,4.024,6.94,5.793,10.54
				C419.82,353.941,411.702,352.327,404.609,348.244z"/>
		</g>
		<g>
			<path style="fill:#352E4F;" d="M334.601,391.662c-0.177-0.328-0.658-0.459-0.974-0.255c-0.333,0.215-0.445,0.623-0.256,0.974
				c0.457,0.845,0.914,1.69,1.37,2.534c0.177,0.328,0.658,0.459,0.974,0.255c0.333-0.214,0.445-0.623,0.256-0.974
				C335.514,393.352,335.058,392.507,334.601,391.662z"/>
		</g>
		<g>
			<path style="fill:#352E4F;" d="M338.433,399.28c0.088-0.089,0.149-0.193,0.183-0.314c0.008-0.063,0.017-0.126,0.026-0.189
				c-0.001-0.128-0.033-0.248-0.097-0.359c-0.113-0.226-0.226-0.452-0.339-0.678c-0.044-0.083-0.106-0.149-0.183-0.2
				c-0.069-0.063-0.149-0.105-0.242-0.127c-0.095-0.03-0.189-0.034-0.284-0.013c-0.095,0.004-0.183,0.033-0.265,0.085
				c-0.048,0.037-0.096,0.074-0.144,0.111c-0.088,0.089-0.149,0.194-0.183,0.314c-0.009,0.063-0.017,0.126-0.026,0.189
				c0.001,0.128,0.033,0.248,0.097,0.359c0.113,0.226,0.226,0.452,0.338,0.678c0.045,0.083,0.106,0.15,0.183,0.2
				c0.069,0.063,0.149,0.105,0.242,0.127c0.095,0.03,0.19,0.034,0.284,0.013c0.095-0.004,0.183-0.032,0.265-0.084
				C338.337,399.354,338.385,399.317,338.433,399.28z"/>
		</g>
		<g>
			<path style="fill:#352E4F;" d="M339.354,399.962c-0.076-0.154-0.264-0.283-0.425-0.327c-0.17-0.047-0.398-0.026-0.548,0.072
				c-0.152,0.098-0.286,0.244-0.327,0.425c-0.044,0.194-0.017,0.37,0.072,0.548c0.225,0.452,0.45,0.904,0.676,1.357
				c0.076,0.154,0.264,0.283,0.425,0.327c0.17,0.047,0.397,0.026,0.548-0.072c0.152-0.098,0.286-0.244,0.327-0.425
				c0.044-0.194,0.017-0.37-0.072-0.548C339.805,400.866,339.579,400.414,339.354,399.962z"/>
		</g>
		<g>
			<path style="fill:#352E4F;" d="M356.976,396.424c0.178,0.327,0.657,0.459,0.973,0.255c0.332-0.214,0.447-0.624,0.256-0.974
				c-0.339-0.621-0.678-1.243-1.017-1.864c-0.178-0.327-0.657-0.459-0.973-0.255c-0.332,0.214-0.446,0.624-0.256,0.974
				C356.298,395.181,356.637,395.802,356.976,396.424z"/>
		</g>
		<g>
			<path style="fill:#352E4F;" d="M359.366,400.817c0.045,0.083,0.106,0.15,0.183,0.2c0.069,0.063,0.149,0.105,0.242,0.127
				c0.095,0.03,0.19,0.034,0.284,0.013c0.095-0.004,0.183-0.032,0.264-0.084c0.049-0.037,0.096-0.074,0.145-0.111
				c0.088-0.089,0.149-0.193,0.183-0.314c0.008-0.063,0.017-0.126,0.026-0.189c-0.001-0.128-0.033-0.248-0.097-0.359
				c-0.17-0.226-0.338-0.452-0.508-0.679c-0.044-0.083-0.106-0.15-0.183-0.2c-0.069-0.063-0.149-0.105-0.243-0.127
				c-0.095-0.03-0.189-0.034-0.284-0.013c-0.095,0.004-0.183,0.032-0.265,0.084c-0.048,0.037-0.096,0.074-0.144,0.111
				c-0.088,0.089-0.149,0.193-0.183,0.314c-0.008,0.063-0.017,0.126-0.026,0.189c0.001,0.128,0.033,0.248,0.097,0.359
				C359.028,400.365,359.197,400.591,359.366,400.817z"/>
		</g>
		<g>
			<path style="fill:#352E4F;" d="M360.644,404.046c0.281,0.678,0.564,1.357,0.845,2.035c0.074,0.179,0.153,0.323,0.327,0.425
				c0.152,0.089,0.377,0.127,0.548,0.072c0.172-0.056,0.338-0.162,0.425-0.327c0.083-0.157,0.143-0.376,0.072-0.548
				c-0.281-0.678-0.564-1.357-0.845-2.035c-0.074-0.179-0.153-0.323-0.327-0.425c-0.152-0.089-0.377-0.127-0.548-0.072
				c-0.172,0.056-0.338,0.162-0.425,0.327C360.632,403.655,360.572,403.874,360.644,404.046z"/>
		</g>
		<g>
			<path style="fill:#352E4F;" d="M368.419,391.157c0.268-0.292,0.272-0.715,0-1.006c-0.075-0.08-0.146-0.164-0.216-0.248
				c-0.007-0.009-0.014-0.019-0.021-0.028c-0.033-0.045-0.065-0.091-0.097-0.138c-0.121-0.181-0.228-0.37-0.321-0.566
				c-0.015-0.031-0.029-0.065-0.044-0.098c-0.008-0.02-0.016-0.041-0.024-0.061c-0.04-0.105-0.076-0.211-0.107-0.319
				c-0.063-0.215-0.109-0.435-0.14-0.658c0.002,0.012,0.003,0.024,0.005,0.036c-0.022-0.181-0.067-0.34-0.202-0.475
				c-0.123-0.123-0.326-0.216-0.503-0.208c-0.352,0.016-0.754,0.315-0.712,0.712c0.122,1.15,0.583,2.21,1.375,3.059
				C367.667,391.43,368.166,391.433,368.419,391.157z"/>
		</g>
		<g>
			<path style="fill:#352E4F;" d="M368.622,393.363c0.402,0.958,0.803,1.916,1.205,2.874c0.075,0.179,0.152,0.323,0.327,0.425
				c0.152,0.089,0.377,0.127,0.548,0.072c0.172-0.056,0.338-0.162,0.425-0.327c0.083-0.157,0.144-0.377,0.072-0.548
				c-0.402-0.958-0.803-1.916-1.205-2.873c-0.075-0.179-0.152-0.323-0.327-0.425c-0.152-0.089-0.377-0.127-0.548-0.072
				c-0.172,0.056-0.338,0.162-0.425,0.327C368.611,392.971,368.55,393.191,368.622,393.363z"/>
		</g>
		<g>
			<path style="fill:#352E4F;" d="M376.467,385.746c0.063,0.107,0.148,0.192,0.255,0.255c0.339,0.226,0.678,0.452,1.017,0.678
				c0.082,0.052,0.17,0.08,0.265,0.084c0.095,0.021,0.189,0.017,0.284-0.013c0.165-0.045,0.344-0.173,0.425-0.327
				c0.088-0.165,0.131-0.365,0.072-0.548c-0.024-0.057-0.048-0.113-0.072-0.17c-0.063-0.107-0.148-0.192-0.255-0.255
				c-0.339-0.226-0.678-0.452-1.017-0.678c-0.082-0.052-0.17-0.08-0.265-0.084c-0.095-0.021-0.189-0.017-0.284,0.013
				c-0.165,0.045-0.344,0.173-0.425,0.327c-0.088,0.165-0.131,0.365-0.072,0.548C376.42,385.633,376.443,385.689,376.467,385.746z"
				/>
		</g>
		<g>
			<path style="fill:#352E4F;" d="M379.624,389.149c0.916,0,0.917-1.423,0-1.423C378.708,387.726,378.707,389.149,379.624,389.149z"
				/>
		</g>
		<g>
			<path style="fill:#352E4F;" d="M380.81,391.353c0.916,0,0.917-1.423,0-1.423C379.894,389.929,379.893,391.353,380.81,391.353z"/>
		</g>
		<g>
			<path style="fill:#352E4F;" d="M383.358,374.704c0.227,0.226,0.452,0.452,0.678,0.678c0.064,0.069,0.14,0.118,0.229,0.147
				c0.085,0.045,0.177,0.065,0.275,0.061c0.098,0.004,0.189-0.017,0.274-0.061c0.088-0.029,0.165-0.078,0.229-0.147
				c0.037-0.048,0.074-0.096,0.111-0.144c0.065-0.111,0.097-0.231,0.097-0.359c-0.008-0.063-0.017-0.126-0.026-0.189
				c-0.033-0.121-0.095-0.225-0.183-0.314c-0.226-0.226-0.452-0.452-0.678-0.678c-0.064-0.069-0.14-0.118-0.229-0.147
				c-0.085-0.045-0.177-0.065-0.275-0.061c-0.098-0.004-0.189,0.017-0.274,0.061c-0.088,0.029-0.165,0.078-0.229,0.147
				c-0.037,0.048-0.074,0.096-0.111,0.144c-0.064,0.111-0.097,0.231-0.097,0.359c0.008,0.063,0.017,0.126,0.026,0.189
				C383.209,374.51,383.27,374.615,383.358,374.704z"/>
		</g>
		<g>
			<path style="fill:#352E4F;" d="M386.912,377.455c0.916,0,0.917-1.423,0-1.423C385.996,376.031,385.994,377.455,386.912,377.455z"
				/>
		</g>
		<g>
			<path style="fill:#352E4F;" d="M389.455,379.827c0.915,0,0.917-1.423,0-1.423C388.539,378.404,388.537,379.827,389.455,379.827z"
				/>
		</g>
	</g>
</g>
</svg>
