<?xml version="1.0" encoding="utf-8"?>
<!-- Generator: Adobe Illustrator 27.5.0, SVG Export Plug-In . SVG Version: 6.00 Build 0)  -->
<svg xmlns="http://www.w3.org/2000/svg" xmlns:xlink="http://www.w3.org/1999/xlink" viewBox="0 0 500 500" width="595" height="842" preserveAspectRatio="xMidYMid meet" data-scaled="true">
<g id="BACKGROUND">
	<rect style="fill:#FFFFFF;" width="500" height="500"/>
</g>
<g id="OBJECTS">
	<g>
		<g>
			<path d="M239.574,424.693c-33.43,1.652-58.33-4.837-75.137-12.241c-8.607-3.647-16.057-9.679-22.664-14.934
				c-6.386-5.08-10.356-12.09-13.208-19.697c-0.28-0.747-0.479-1.527-0.672-2.302c-0.547-2.19-1.309-4.17-3.205-5.687
				c-1.793-1.435-2.605-3.6-3.147-5.812c-0.266-1.087-0.479-2.187-0.736-3.276c-0.202-0.86-0.718-1.336-1.638-1.457
				c-2.534-0.331-3.991-2.034-4.703-4.265c-0.723-2.266-1.382-4.622-1.571-6.978c-0.628-7.855,0.035-15.651,1.53-23.388
				c1.4-7.242,3.223-14.345,6.213-21.12c0.433-0.982,0.831-2.213,0.628-3.203c-1.11-5.402,0.74-10.079,3.291-14.607
				c1.901-3.374,4.337-6.323,7.308-8.824c0.732-0.616,1.469-1.243,2.087-1.965c0.197-0.23,0.17-1.043-0.013-1.15
				c-6.093-3.587-5.554-9.22-4.414-14.853c0.697-3.442,2.156-6.695,3.992-9.726c3.942-6.507,9.214-11.875,14.895-16.818
				c1.893-1.647,4.374-2.615,6.581-3.903c1.123-0.656,1.215-1.27,0.319-2.278c-0.744-0.836-1.634-1.561-2.274-2.467
				c-1.101-1.559-2.112-3.189-3.059-4.848c-0.896-1.571-0.532-3.605,1.596-4.228c0.153-0.045,0.309-0.095,0.448-0.17
				c1.268-0.689,1.324-0.888,0.423-2.109c-0.855-1.158-1.868-2.214-2.615-3.434c-1.581-2.584-3.112-5.205-4.512-7.89
				c-1.052-2.017-1.335-4.268-1.257-6.531c0.076-2.197,1.082-3.238,3.183-3.448c0.317-0.032,0.641-0.041,0.958-0.018
				c3.636,0.268,2.962-0.696,1.932-3.21c-1.103-2.693-1.927-5.447-2.211-8.311c-0.186-1.88-0.031-3.819,0.182-5.707
				c0.286-2.528,1.58-4.141,4.385-4.061c0.811,0.023,1.114-0.535,1.029-1.247c-0.133-1.109-0.461-2.202-0.508-3.311
				c-0.105-2.485,1.165-3.768,3.754-3.91c0.636-0.035,1.278,0.055,1.918,0.066c0.787,0.014,1.131-0.403,1.078-1.172
				c-0.011-0.16-0.043-0.318-0.044-0.478c-0.005-2.158-0.491-3.785-2.883-4.733c-4.393-1.742-4.285-4.781-1.128-7.766
				c2.067-1.955,4.546-3.498,6.938-5.077c1.322-0.874,2.854-1.428,4.271-2.167c0.252-0.132,0.507-0.44,0.562-0.707
				c0.038-0.187-0.211-0.544-0.42-0.651c-1.134-0.579-2.371-0.987-3.431-1.673c-1.64-1.061-1.928-2.928-0.944-4.643
				c1.043-1.82,2.77-2.671,4.668-3.07c2.805-0.59,5.651-1.004,8.491-1.406c1.93-0.273,2.03-0.318,2.306-2.346
				c0.301-2.215,0.417-4.487,1.007-6.625c0.93-3.373,4.087-5.236,7.434-4.489c1.195,0.267,2.348,0.977,3.373,1.697
				c3.027,2.126,6.216,3.919,9.697,5.178c0.719,0.26,1.253-0.191,1.168-0.925c-0.201-1.739-0.55-3.483-0.516-5.218
				c0.021-1.044,0.5-2.164,1.044-3.091c0.711-1.213,2.14-1.6,3.356-0.953c1.831,0.974,3.574,2.112,5.363,3.166
				c0.894,0.526,1.556,0.234,1.528-0.829c-0.085-3.355,1.428-5.819,4.038-7.736c1.815-1.332,3.577-1.265,5.14,0.399
				c0.861,0.917,1.59,2.011,2.158,3.136c0.935,1.852,1.695,3.792,2.524,5.698c0.842,1.935,1.086,2.132,2.556,0.848
				c2.205-1.926,4.142-1.366,5.949,0.346c1.254,1.188,2.25,2.678,3.216,4.13c0.611,0.92,1.038,1.989,1.4,3.042
				c0.539,1.567,1.513,2.18,3.198,2.31c5.253,0.405,10.52,0.808,15.727,1.578c5.715,0.845,11.158,2.753,16.393,5.22
				c1,0.471,2.051,0.845,3.102,1.19c0.156,0.051,0.664-0.35,0.64-0.465c-0.196-0.934-0.435-1.864-0.746-2.766
				c-0.802-2.321-0.861-4.71-0.68-7.114c0.047-0.621,0.253-1.248,0.48-1.835c0.387-0.999,1.843-1.485,2.846-1.009
				c1.661,0.787,2.79,2.139,3.693,3.66c1.387,2.335,2.667,4.734,4.002,7.101c0.78,1.382,1.031,1.514,2.699,1.085
				c6.065-1.561,12.065-0.974,18.006,0.606c1.364,0.363,2.671,1.088,3.877,1.848c0.776,0.489,1.441,1.269,1.943,2.055
				c1.077,1.684,0.686,3.454-0.975,4.612c-1.883,1.314-4.031,1.921-6.307,2.04c-1.755,0.092-3.515,0.108-5.272,0.169
				c-0.136,0.005-0.39,0.122-0.385,0.161c0.036,0.289,0.03,0.703,0.212,0.833c0.777,0.556,1.636,0.994,2.425,1.535
				c4.48,3.075,9.167,5.902,13.351,9.339c3.306,2.716,6.02,6.161,8.928,9.345c0.965,1.057,1.822,2.247,2.541,3.485
				c1.155,1.99,2.595,3.035,5.047,2.576c1.221-0.229,2.56-0.033,3.814,0.168c2.964,0.474,4.016,1.563,4.34,4.738
				c0.166,1.629,0.416,2.148,2.474,1.725c2.034-0.419,4.067-0.886,6.125-1.133c1.237-0.148,2.558-0.089,3.772,0.185
				c2.21,0.5,3.138,1.949,2.911,4.263c-0.258,2.625-1.059,5.006-3.307,6.659c-0.385,0.284-0.758,0.59-1.109,0.916
				c-0.522,0.485-0.379,1.167,0.321,1.479c1.75,0.781,3.564,1.44,5.252,2.335c2.164,1.148,2.467,3.377,0.799,5.215
				c-1.545,1.702-3.603,2.609-5.663,3.504c-0.978,0.425-1.092,1.134-0.224,1.604c2.949,1.594,5.92,3.146,8.905,4.67
				c0.705,0.36,1.528,0.483,2.248,0.82c3.989,1.868,5.132,6.543,2.419,10.047c-0.677,0.874-1.567,1.59-2.397,2.336
				c-1.07,0.962-2.189,1.87-3.269,2.823c-0.678,0.599-0.768,1.229-0.305,2.095c1.278,2.39,2.495,4.816,3.63,7.277
				c0.462,1.002,0.824,2.116,0.915,3.205c0.09,1.075-0.021,2.257-0.393,3.263c-0.729,1.974-2.822,2.757-4.742,1.895
				c-0.869-0.39-1.644-0.984-2.488-1.438c-0.262-0.141-0.801-0.263-0.881-0.153c-0.246,0.338-0.482,0.805-0.45,1.2
				c0.127,1.593,0.369,3.176,0.544,4.766c0.317,2.884,0.297,5.76-0.494,8.572c-0.255,0.908-0.63,1.818-1.133,2.611
				c-0.752,1.188-1.949,1.651-3.327,1.349c-0.768-0.169-1.668-0.354-2.204-0.857c-2.59-2.43-4.674-0.478-6.849,0.678
				c-0.157,0.083-0.271,0.607-0.164,0.76c0.452,0.652,1.05,1.204,1.493,1.86c1.486,2.203,1.044,4.316-1.255,5.695
				c-0.949,0.57-2.028,0.925-3.056,1.36c-0.814,0.345-0.671,0.839-0.345,1.482c1.534,3.025,1.47,3.766-0.555,5.886
				c-0.66,0.691-1.37,1.365-2.159,1.896c-2.534,1.706-2.411,1.77-0.332,4.318c3.378,4.141,6.038,8.663,6.783,14.076
				c0.173,1.255,0.509,2.659,0.134,3.782c-0.746,2.229-0.006,4.082,0.804,5.997c4.666,11.033,6.868,22.605,7.46,34.51
				c0.143,2.869,0.089,5.766-0.13,8.63c-0.157,2.054-0.584,4.122-1.171,6.1c-0.805,2.716-2.228,4.956-5.424,5.421
				c-0.474,0.069-0.937,0.718-1.255,1.198c-0.251,0.379-0.318,0.903-0.388,1.375c-0.539,3.6-1.865,6.777-4.822,9.088
				c-0.96,0.75-1.185,1.829-1.46,2.928c-1.457,5.814-4.125,11.055-7.546,15.953c-2.588,3.706-5.534,7.034-9.335,9.543
				c-0.666,0.44-1.317,0.911-1.934,1.418c-7.874,6.474-16.863,10.928-26.307,14.566C276.612,420.411,250.331,424.3,239.574,424.693z
				 M231.873,422.332c2.718,0,5.445,0.148,8.151-0.035c3.984-0.269,7.974-0.627,11.923-1.21c6.788-1.002,13.563-2.111,20.309-3.364
				c3.605-0.669,7.134-1.743,10.702-2.615c2.322-0.568,4.737-0.876,6.966-1.692c8.733-3.198,17.111-7.112,24.481-12.917
				c1.381-1.088,2.786-2.155,4.247-3.129c2.561-1.708,4.735-3.835,6.597-6.24c2.744-3.545,5.226-7.285,6.985-11.432
				c0.872-2.055,1.588-4.183,2.259-6.314c0.471-1.493-0.1-2.168-1.909-2.574c-1.256-0.282-1.545-0.083-1.833,1.428
				c-0.24,1.256-0.461,2.519-0.598,3.789c-0.495,4.603-2.455,8.556-5.25,12.166c-1.113,1.437-2.505,2.414-4.184,3.088
				c-1.277,0.512-2.449,0.666-3.61-0.226c-0.957-0.735-1.423-0.108-1.724,0.707c-0.887,2.403-1.806,4.779-3.377,6.851
				c-1.587,2.093-3.486,3.725-6.051,4.492c-2.512,0.751-4.076-0.061-4.482-2.74c-0.282-1.863-0.082-3.804-0.038-5.709
				c0.071-3.032,0.341-6.066,0.251-9.092c-0.109-3.673-0.479-7.34-0.782-11.006c-0.437-5.271-1.534-10.43-2.671-15.584
				c-0.381-1.725-1.305-2.751-2.915-3.486c-1.423-0.649-2.885-1.496-3.936-2.624c-4.073-4.369-7.381-9.23-8.934-15.122
				c-0.814-3.089-1.735-6.151-2.653-9.211c-0.174-0.58-0.427-1.344-0.881-1.596c-1.665-0.923-3.39-2.189-5.167-2.323
				c-1.627-0.122-1.99,2.245-3.07,3.376c-0.33,0.346-0.571,0.775-0.9,1.122c-3.503,3.693-7.557,5.87-12.841,4.622
				c-0.156-0.037-0.312-0.073-0.47-0.099c-2.382-0.387-2.381-0.387-3.696,1.921c-0.633,1.111-1.108,2.359-1.93,3.305
				c-3.163,3.639-6.428,7.203-11.851,7.088c-1.08-0.023-1.785,0.443-2.277,1.399c-1.434,2.789-3.897,4.623-6.245,6.538
				c-2.568,2.094-5.291,2.079-7.95,0.183c-1.028-0.732-2.034-1.591-2.786-2.591c-1.05-1.394-1.891-2.953-2.745-4.484
				c-0.496-0.889-0.951-1.599-2.172-1.376c-2.368,0.431-4.031-0.787-5.234-2.622c-1.046-1.597-2.021-3.273-2.774-5.024
				c-1.135-2.638-2.055-5.367-3.054-8.063c-0.64-1.729-0.803-1.896-2.732-1.442c-3.705,0.872-6.916,0.078-9.812-2.409
				c-1.721-1.478-3.207-3.108-4.409-5.021c-0.326-0.519-0.696-1.237-1.443-0.848c-0.276,0.144-0.372,0.845-0.365,1.289
				c0.084,5.54-1.695,10.691-3.175,15.923c-1.286,4.548-3.481,8.577-6.335,12.279c-1.956,2.538-3.942,5.052-7.202,6.094
				c-1.321,0.422-2.026,1.488-2.299,2.842c-0.663,3.289-1.523,6.552-1.958,9.87c-0.602,4.593-0.844,9.231-1.319,13.842
				c-0.461,4.473-0.627,8.927,0.12,13.39c0.32,1.911,0.247,3.824-0.454,5.676c-0.588,1.554-1.778,2.246-3.386,1.913
				c-2.802-0.58-4.943-2.168-6.648-4.401c-1.569-2.055-2.661-4.347-3.456-6.807c-0.436-1.35-0.531-1.282-2.385-0.763
				c-0.729,0.204-1.585,0.375-2.284,0.189c-1.88-0.501-3.519-1.461-4.764-3.043c-2.821-3.582-4.877-7.488-5.444-12.085
				c-0.195-1.585-0.468-3.162-0.765-4.732c-0.177-0.939-0.624-1.108-1.817-0.83c-1.756,0.408-2.197,1.062-1.794,2.661
				c0.039,0.155,0.078,0.31,0.124,0.463c2.217,7.315,5.965,13.764,11.1,19.401c1.07,1.176,2.275,2.258,3.542,3.219
				c2.674,2.029,5.454,3.918,8.149,5.92c6.748,5.014,14.431,8.158,22.19,11.15C193.272,420.781,221.015,421.994,231.873,422.332z
				 M306.87,292.979c-0.865-0.071-2.298-0.202-3.734-0.299c-0.799-0.054-1.146,0.411-0.793,1.201c0.391,0.877,0.983,1.707,0.53,2.7
				c-0.506,1.111-1.527,1.686-2.649,1.857c-1.57,0.24-3.213,0.553-4.752,0.329c-3.468-0.504-6.99-1.013-10.308-2.084
				c-4.087-1.319-8.14-2.872-11.743-5.351c-1.319-0.908-1.372-0.83-2.758,0.298c-2.327,1.895-3.109,1.979-5.532,0.513
				c-3.326-2.012-6.094-4.66-8.488-7.69c-1.585-2.005-3.043-4.111-4.553-6.174c-0.775-1.059-0.858-1.076-2.282-0.34
				c-2.132,1.102-3.187,1.017-4.723-0.412c-1.547-1.44-2.697-3.175-3.452-5.135c-0.918-2.383-1.727-4.809-2.59-7.213
				c-0.268-0.745-0.396-1.622-0.883-2.185c-0.638-0.738-1.447,0.125-2.191,0.155c-1.303,0.053-2.34-0.661-2.851-2.107
				c-1.245-3.521-1.7-7.143-1.174-10.863c0.201-1.422,0.402-2.843,0.581-4.268c0.016-0.132-0.097-0.368-0.205-0.409
				c-0.268-0.101-0.683-0.264-0.837-0.144c-1.003,0.78-2.017,1.566-2.908,2.467c-2.551,2.58-5.704,4.073-9.094,5.127
				c-2.466,0.767-2.904,0.581-4.54-1.973c-0.541-0.844-1.127-0.994-1.969-0.733c-1.373,0.426-2.719,0.984-4.122,1.259
				c-2.654,0.521-5.239,1.474-8.017,1.301c-1.46-0.091-2.854-0.282-4.087-1.152c-1.203-0.849-1.272-2.12-1.38-3.407
				c-0.064-0.759-0.624-1.049-1.312-1.072c-1.278-0.041-2.558-0.085-3.836-0.058c-3.214,0.069-6.413-0.109-9.51-0.979
				c-2.295-0.645-4.545-1.477-6.761-2.361c-1.309-0.522-1.885-1.688-1.807-3.099c0.035-0.633,0.149-1.271,0.311-1.885
				c0.196-0.745-0.051-1.12-0.737-1.472c-2.556-1.308-5.094-2.654-7.598-4.059c-1.933-1.084-3.804-2.277-5.703-3.422
				c-2.118,1.103-4.284,2.125-6.338,3.338c-1.225,0.723-2.354,1.661-3.386,2.649c-2.078,1.99-4.174,3.983-6.053,6.156
				c-2.191,2.535-4.351,5.137-6.173,7.939c-2.731,4.198-4.453,8.839-4.869,13.893c-0.163,1.977,0.128,3.835,1.43,5.418
				c1.298,1.579,2.974,2.386,5.026,2.283c1.865-0.094,2.732-1.408,3.422-2.921c1.834-4.022,5.016-6.979,8.025-10.064
				c0.428-0.438,1.031-0.736,1.603-0.986c0.211-0.092,0.647,0.058,0.828,0.246c0.172,0.179,0.297,0.664,0.181,0.819
				c-1.428,1.914-2.799,3.888-4.393,5.659c-2.634,2.928-4.352,6.306-5.357,10.061c-2.319,8.663-0.145,16.099,6.24,22.346
				c1.572,1.538,3.409,2.327,5.642,2.039c1.012-0.131,1.783-0.821,1.907-1.837c0.271-2.22,0.525-4.443,0.743-6.669
				c0.238-2.428,0.997-4.697,2.156-6.812c0.442-0.806,1.193-1.456,1.864-2.115c0.142-0.139,0.637-0.118,0.809,0.024
				c0.202,0.167,0.378,0.592,0.306,0.825c-0.374,1.215-0.815,2.41-1.263,3.601c-1.495,3.967-1.925,8.077-1.56,12.269
				c0.629,7.214,7.387,15.233,14.337,17.089c0.463,0.124,0.937,0.207,1.405,0.313c2.018,0.457,3.795-0.174,5.423-1.287
				c1.157-0.79,1.41-1.646,1.045-2.848c-1.021-3.361-2.041-6.736-2.764-10.167c-0.421-1.999-0.287-4.117-0.352-6.184
				c-0.006-0.197,0.353-0.564,0.549-0.569c0.25-0.006,0.63,0.22,0.737,0.448c0.266,0.569,0.449,1.187,0.594,1.802
				c0.733,3.108,1.375,6.239,2.175,9.33c1.508,5.831,4.545,10.906,8.168,15.623c1.047,1.363,2.515,2.457,3.946,3.45
				c0.882,0.613,2.031,0.985,3.108,1.149c3.052,0.463,4.816-1.37,4.461-4.414c-0.278-2.377-0.577-4.757-0.701-7.145
				c-0.047-0.906,0.33-1.849,0.604-2.747c0.066-0.217,0.501-0.452,0.754-0.44c0.21,0.011,0.549,0.354,0.58,0.583
				c0.363,2.691,0.577,5.405,1.025,8.081c1.088,6.491,2.766,12.818,5.906,18.659c0.672,1.25,1.551,2.405,2.451,3.51
				c0.646,0.793,1.998,0.573,2.42-0.341c0.261-0.566,0.305-1.23,0.519-1.824c0.1-0.276,0.342-0.631,0.579-0.685
				c0.191-0.044,0.6,0.26,0.695,0.496c0.654,1.63,1.246,3.285,1.869,4.928c0.919,2.423,2.207,4.634,4.114,6.397
				c2.109,1.951,4.214,1.994,6.475,0.261c3.257-2.496,5.809-5.491,6.621-9.662c0.549-2.819,1.08-5.642,1.584-8.47
				c0.168-0.94,0.194-1.906,0.364-2.845c0.042-0.232,0.475-0.616,0.595-0.572c0.405,0.151,0.983,0.393,1.082,0.724
				c0.755,2.519,0.387,5.07,0.024,7.604c-0.18,1.261-0.479,2.505-0.68,3.764c-0.095,0.595,0.608,1.263,1.184,1.172
				c0.471-0.074,0.998-0.079,1.394-0.303c3.22-1.823,6.173-3.872,7.989-7.324c2.949-5.604,4.685-11.525,5.329-17.797
				c0.114-1.108,0.221-2.218,0.405-3.315c0.034-0.204,0.408-0.475,0.641-0.491c0.268-0.018,0.694,0.138,0.803,0.348
				c0.287,0.555,0.531,1.164,0.632,1.779c0.474,2.892,0.08,5.74-0.588,8.555c-0.332,1.398-0.798,2.764-1.151,4.159
				c-0.325,1.285,0.3,2.196,1.576,2.411c4.344,0.733,7.938-0.66,10.609-4.087c3.8-4.876,6.435-10.288,6.897-16.58
				c0.129-1.752,0.25-3.506,0.466-5.248c0.042-0.338,0.47-0.676,0.799-0.897c0.084-0.056,0.553,0.283,0.695,0.528
				c0.234,0.404,0.44,0.867,0.494,1.325c0.358,3.034,0.433,6.07-0.422,9.042c-0.53,1.841-1.144,3.658-1.762,5.471
				c-0.312,0.914-0.007,1.564,0.758,2.008c4.387,2.544,10.159,2.273,13.668-1.457c2.006-2.132,3.78-4.335,4.829-7.066
				c0.802-2.088,1.508-4.212,2.286-6.31c0.349-0.941,1.432-1.767,1.607-1.364c0.243,0.56,0.514,1.232,0.413,1.792
				c-0.338,1.878-0.78,3.742-1.294,5.581c-0.3,1.071-0.925,2.055-1.183,3.131c-0.123,0.511,0.099,1.299,0.457,1.7
				c2.799,3.138,7.102,2.4,9.674,0.658c2.754-1.865,5.229-4.264,6.245-7.67c0.502-1.682,0.879-3.402,1.338-5.098
				c0.415-1.535,0.841-3.069,1.327-4.582c0.066-0.206,0.515-0.405,0.779-0.396c0.216,0.008,0.603,0.333,0.601,0.516
				c-0.014,1.753-0.085,3.505-0.159,5.257c-0.077,1.841,1.053,3.049,2.903,2.896c0.758-0.063,1.632-0.298,2.196-0.765
				c0.969-0.802,1.886-1.752,2.563-2.808c3.3-5.139,2.354-10.366,0.09-15.552c-0.377-0.864-1.205-0.883-2.038-0.501
				C317.342,292.855,312.449,293.304,306.87,292.979z M305.654,290.198c0.004,0.062,0.008,0.125,0.012,0.187
				c3.19-0.123,6.383-0.194,9.569-0.388c2.099-0.127,4.074-0.771,5.878-1.891c1.337-0.83,1.45-2.1,0.181-3.104
				c-0.743-0.587-1.56-1.128-2.424-1.503c-1.013-0.439-2.13-0.636-3.171-1.02c-0.393-0.145-0.962-0.487-0.999-0.793
				c-0.098-0.815,0.661-0.949,1.272-1.108c0.308-0.08,0.637-0.074,0.947-0.149c3.726-0.9,7.47-1.734,11.168-2.737
				c3.279-0.889,6.276-2.374,8.652-4.903c0.978-1.041,0.846-1.88-0.402-2.705c-0.924-0.61-1.978-1.108-2.705-1.902
				c-0.445-0.486-0.585-1.475-0.463-2.167c0.069-0.391,0.913-0.794,1.47-0.92c1.708-0.386,3.467-0.556,5.16-0.988
				c0.708-0.181,1.572-0.67,1.881-1.269c0.397-0.768-0.371-1.441-0.979-1.965c-0.846-0.729-1.732-1.413-2.558-2.164
				c-0.585-0.531-0.525-1.608,0.106-2.12c0.489-0.396,1.011-0.781,1.577-1.046c1.283-0.602,2.853-0.851,3.843-1.752
				c1.305-1.188-0.353-2.661-0.258-4.044c0.019-0.279,0.184-0.65,0.402-0.787c0.229-0.143,0.625-0.136,0.908-0.055
				c1.189,0.339,1.763,1.351,2.278,2.334c0.93,1.776,2.262,3.071,4.099,3.866c0.964,0.417,2.07,0.062,2.356-0.882
				c0.276-0.911,0.51-1.85,0.615-2.793c0.574-5.161,0.03-10.216-1.597-15.148c-0.3-0.91-0.782-1.767-1.014-2.69
				c-0.139-0.551,0.045-1.182,0.084-1.777c0.432,0.162,0.93,0.235,1.284,0.501c2.043,1.532,4.043,3.119,6.076,4.664
				c0.505,0.384,1.063,0.708,1.622,1.011c0.683,0.371,1.76-0.336,1.677-1.129c-0.081-0.781-0.168-1.595-0.449-2.317
				c-1.218-3.122-2.315-6.296-4.387-9.023c-0.915-1.204-0.76-2.402,0.27-3.479c0.991-1.038,2.111-1.952,3.174-2.921
				c0.945-0.862,1.93-1.683,2.825-2.594c1.574-1.602,1.522-4.908-1.254-5.915c-0.902-0.327-1.833-0.613-2.67-1.068
				c-2.663-1.447-5.311-2.924-7.912-4.479c-0.804-0.481-1.501-1.191-2.133-1.898c-1.002-1.121-0.896-2.473,0.249-3.349
				c0.885-0.677,1.853-1.248,2.795-1.851c0.94-0.602,1.914-1.152,2.833-1.784c0.835-0.575,0.803-1.428-0.039-1.875
				c-1.984-1.053-3.974-2.029-6.332-1.969c-1.1,0.028-2.244-0.14-3.296-0.457c-0.485-0.146-0.941-0.81-1.134-1.339
				c-0.115-0.313,0.193-0.967,0.509-1.217c0.871-0.689,1.843-1.251,2.781-1.854c1.075-0.691,2.184-1.332,3.228-2.066
				c1.222-0.86,1.959-2.068,2.333-3.522c0.451-1.751-0.374-2.936-2.111-2.824c-1.109,0.072-2.208,0.315-3.31,0.493
				c-2.836,0.457-5.661,1.012-8.511,1.347c-1.688,0.198-2.406-0.704-2.099-2.291c0.151-0.783,0.469-1.533,0.622-2.315
				c0.255-1.298-0.356-2.04-1.753-2.31c-2.585-0.499-5.146-0.189-7.583,0.594c-4.256,1.367-8.441,2.954-12.649,4.469
				c-1.298,0.467-2.586,1.949-3.922,1.022c-1.698-1.179,0.188-2.539,0.375-3.834c0.103-0.709-0.285-1.223-1.023-1.215
				c-2.813,0.027-5.331,1.081-7.696,2.425c-2.916,1.656-5.72,3.512-8.559,5.303c-1.08,0.681-2.093,1.474-3.199,2.107
				c-0.33,0.189-1.014,0.173-1.283-0.052c-0.296-0.247-0.476-0.874-0.402-1.281c0.226-1.253,0.67-2.466,0.896-3.719
				c0.375-2.075-0.397-2.992-2.534-3.027c-1.114-0.018-2.274-0.039-3.339,0.234c-4.653,1.193-9.224,2.588-13.184,5.502
				c-2.704,1.989-5.502,3.854-8.306,5.701c-1.556,1.025-2.469,0.577-2.514-1.184c-0.075-2.878-0.252-5.773-0.043-8.635
				c0.383-5.248-0.896-10.172-2.606-15.011c-0.573-1.621-1.602-3.102-2.559-4.557c-0.634-0.964-1.6-0.994-2.477-0.276
				c-0.493,0.403-0.946,0.856-1.423,1.279c-1.031,0.913-1.612,3.019-3.133,2.53c-1.957-0.629-0.901-2.755-0.993-4.226
				c-0.17-2.711-0.058-5.44-0.229-8.151c-0.121-1.907-0.383-3.829-0.831-5.685c-0.37-1.535-1.073-2.994-1.692-4.461
				c-0.307-0.727-1.063-0.82-1.504-0.226c-0.475,0.638-0.8,1.413-1.358,1.956c-0.4,0.389-1.155,0.779-1.605,0.652
				c-0.47-0.133-0.913-0.834-1.102-1.379c-0.256-0.741-0.235-1.574-0.375-2.36c-0.903-5.049-2.26-9.976-4.075-14.771
				c-0.74-1.956-1.726-3.778-3.323-5.207c-0.901-0.806-1.686-0.868-2.477-0.045c-0.662,0.69-1.231,1.469-1.889,2.164
				c-0.924,0.976-2.151,0.936-2.805-0.2c-0.793-1.376-1.405-2.857-2.106-4.288c-1.193-2.436-2.34-4.897-3.616-7.289
				c-0.531-0.996-1.574-1.009-2.45-0.312c-1.181,0.94-2.006,2.084-2.073,3.623c-0.063,1.434-0.021,2.873-0.018,4.309
				c0.003,1.276,0.067,2.554,0.007,3.827c-0.043,0.902-1.546,1.548-2.244,0.934c-0.949-0.834-1.861-1.742-2.632-2.739
				c-1.1-1.421-2.356-2.63-3.981-3.379c-0.675-0.311-1.474-0.476-2.205-0.445c-0.163,0.007-0.395,1.116-0.396,1.718
				c-0.003,1.598,0.165,3.197,0.152,4.794c-0.02,2.608-1.084,3.493-3.588,3.016c-0.775-0.148-1.518-0.467-2.268-0.732
				c-3.032-1.072-5.87-2.525-8.529-4.334c-0.79-0.538-1.564-1.138-2.43-1.515c-1.706-0.743-3.699,0.07-4.372,1.803
				c-0.399,1.029-0.615,2.146-0.777,3.244c-0.209,1.422-0.211,2.876-0.428,4.296c-0.429,2.803-1.272,3.404-4.047,3.713
				c-3.167,0.353-6.328,0.843-9.449,1.478c-0.807,0.164-1.857,0.969-2.088,1.702c-0.366,1.164,0.908,1.404,1.776,1.732
				c0.598,0.226,1.187,0.48,1.794,0.679c2.122,0.697,4.254,1.364,6.37,2.078c0.263,0.089,0.642,0.403,0.631,0.593
				c-0.014,0.245-0.325,0.596-0.582,0.683c-1.053,0.357-2.132,0.637-3.204,0.936c-5.481,1.525-10.426,4.063-14.579,7.98
				c-2.285,2.155-1.818,3.821,1.266,4.78c0.896,0.278,1.878,0.313,2.827,0.372c0.954,0.059,1.934-0.105,2.866,0.049
				c0.555,0.091,1.3,0.489,1.507,0.951c0.511,1.143-0.628,1.152-1.281,1.442c-0.438,0.194-0.909,0.316-1.339,0.524
				c-1.203,0.58-1.563,1.363-1.252,2.724c0.283,1.237,0.724,2.453,0.867,3.704c0.182,1.593-0.836,2.376-2.366,1.975
				c-1.082-0.283-2.141-0.659-3.229-0.909c-1.328-0.304-2.244,0.654-1.758,1.96c0.722,1.938,1.687,3.785,2.421,5.72
				c0.188,0.496,0.1,1.347-0.224,1.721c-0.344,0.397-1.19,0.688-1.691,0.554c-1.214-0.324-2.352-0.927-3.526-1.406
				c-0.692-0.283-1.691,0.208-1.86,0.965c-0.173,0.776-0.31,1.569-0.364,2.361c-0.234,3.416,0.466,6.682,1.681,9.852
				c1.372,3.582,2.768,7.154,4.121,10.743c0.094,0.249-0.003,0.812-0.14,0.86c-0.365,0.127-0.959,0.23-1.183,0.031
				c-1.802-1.609-3.64-3.114-6.063-3.714c-1.355-0.336-2.165,0.267-2.215,1.637c-0.072,1.986,0.612,3.766,1.364,5.54
				c1.902,4.486,5.042,8.137,8.017,11.899c0.792,1.002,1.637,1.964,2.389,2.995c0.581,0.797,0.035,2.132-0.917,2.248
				c-0.946,0.116-1.91,0.072-2.864,0.132c-0.997,0.063-1.474,0.778-1.031,1.552c0.395,0.691,0.782,1.403,1.286,2.012
				c5.293,6.392,11.678,11.327,19.412,14.444c0.59,0.238,1.175,0.494,1.749,0.769c0.801,0.384,0.908,0.822,0.324,1.404
				c-0.338,0.337-0.781,0.571-1.106,0.918c-1.03,1.102-0.942,2.142,0.335,2.639c1.926,0.751,3.873,1.546,5.886,1.959
				c5.998,1.229,12.037,1.539,18.08,0.192c0.286-0.064,0.662-0.007,0.912,0.139c0.208,0.121,0.464,0.521,0.402,0.682
				c-0.224,0.576-0.54,1.127-0.887,1.643c-0.517,0.768-1.621,1.365-1.279,2.402c0.449,1.362,1.838,1.069,2.873,1.014
				c1.588-0.084,3.179-0.335,4.74-0.655c4.903-1.004,9.449-2.929,13.751-5.466c0.672-0.396,1.41-0.699,2.15-0.946
				c0.185-0.062,0.523,0.23,0.741,0.418c0.084,0.072,0.104,0.366,0.029,0.455c-0.609,0.726-1.158,1.546-1.897,2.11
				c-1.312,1.001-2.297,2.216-2.947,3.706c-0.083,0.189,0.094,0.525,0.218,0.756c0.05,0.094,0.293,0.148,0.428,0.12
				c0.463-0.095,0.925-0.211,1.373-0.361c3.261-1.094,5.766-3.31,8.403-5.415c5.457-4.358,4.503-2.503,4.48-9.968
				c-0.002-0.479-0.034-0.959-0.076-1.437c-0.113-1.294-0.77-1.708-1.91-1.074c-4.942,2.749-10.234,4.464-15.777,5.46
				c-1.322,0.238-2.4,0.727-2.911,2.126c-0.712,1.948-2.288,2.462-4.215,2.461c-3.224-0.001-6.333-0.368-9.387-1.579
				c-2.569-1.018-5.152-2.597-8.17-1.066c-0.541,0.275-1.579-0.144-2.258-0.493c-0.986-0.508-1.883-1.208-2.769-1.89
				c-4.357-3.353-8.062-7.276-10.707-12.153c-0.765-1.41-0.971-1.371-2.544-0.417c-1.996,1.211-3.307,1.142-4.456-0.675
				c-1.007-1.593-1.969-3.368-2.327-5.186c-0.613-3.12-0.848-6.329-1.032-9.513c-0.129-2.227,0.061-4.476,0.161-6.712
				c0.073-1.647,0.179-3.063-1.946-3.782c-1.516-0.513-1.564-2.305-1.532-3.754c0.094-4.206,0.997-8.25,2.768-12.071
				c1.621-3.497,3.596-6.782,6.201-9.65c0.667-0.735,0.683-1.366-0.074-2.001c-0.245-0.205-0.551-0.347-0.762-0.579
				c-1.691-1.855-1.637-3.858,0.213-5.387c0.731-0.604,1.577-1.091,2.425-1.526c1.131-0.579,2.702-0.759,3.382-1.647
				c0.931-1.217-0.608-2.553-0.759-3.922c-0.194-1.765,0.878-3.118,2.754-3.148c0.954-0.016,1.909,0.162,2.865,0.215
				c0.982,0.054,1.505-0.499,1.488-1.426c-0.05-2.687,0.858-5.036,2.509-7.085c2.439-3.026,5.251-3.423,8.413-1.25
				c0.52,0.357,0.917,0.887,1.403,1.3c0.945,0.802,1.289,0.749,1.608-0.39c0.74-2.648,1.69-5.163,3.696-7.157
				c1.749-1.739,3.724-3.025,6.245-3.25c1.521-0.135,2.882,0.691,3.398,2.127c0.323,0.898,0.539,1.845,0.707,2.787
				c0.544,3.041,0.8,3.582,3.445,1.784c0.521-0.355,1.13-0.596,1.72-0.833c2.715-1.088,5.549-0.268,7.166,2.115
				c0.627,0.924,1.191,1.901,1.691,2.9c1.918,3.84,4.931,6.639,8.402,9.034c2.369,1.634,4.745,3.267,7.023,5.024
				c1.383,1.066,2.765,2.226,3.836,3.588c4.493,5.715,7.728,12.132,9.932,19.038c1.321,4.14,1.851,8.425,1.537,12.793
				c-0.126,1.754-0.164,3.515-0.208,5.273c-0.019,0.778,0.69,1.217,1.271,0.795c1.293-0.938,2.589-1.875,3.828-2.88
				c3.018-2.448,6.427-4.175,10.046-5.513c6.538-2.417,13.343-3.157,20.262-3.223c3.24-0.031,6.357,0.462,9.377,1.663
				c2.524,1.004,5.086,1.913,7.632,2.861c3.184,1.186,6.446,1.841,9.869,1.555c1.593-0.133,3.197-0.218,4.794-0.202
				c2.88,0.028,5.219,1.988,5.777,4.769c0.125,0.624,0.202,1.273,0.182,1.907c-0.1,3.193,0.501,2.933,2.944,1.996
				c0.894-0.343,1.741-0.817,2.649-1.112c2.287-0.744,4.095,0.226,4.801,2.593c1.125,3.769,0.456,7.283-1.721,10.508
				c-0.71,1.052-1.605,1.978-2.357,3.004c-0.096,0.131,0.098,0.704,0.259,0.755c0.757,0.239,1.569,0.305,2.325,0.547
				c3.823,1.224,5.429,4.101,4.053,7.823c-0.647,1.75-1.885,3.3-2.974,4.858c-0.441,0.631-1.269,0.98-1.777,1.579
				c-0.222,0.262-0.255,0.93-0.074,1.238c0.48,0.822,1.169,1.52,1.693,2.321c1.325,2.027,0.792,3.603-1.508,4.515
				c-0.441,0.175-0.939,0.202-1.393,0.353c-1.808,0.6-1.744,0.6-1.46,2.745c0.228,1.731,0.485,3.499,0.365,5.225
				c-0.149,2.141-1.835,3.216-4.072,2.915c-0.31-0.042-0.6-0.219-0.908-0.301c-0.926-0.247-1.538,0.082-1.778,1.027
				c-0.952,3.752-2.592,7.222-4.475,10.571c-2.232,3.968-5.293,7.197-9.13,9.672c-1.145,0.738-2.483,1.175-3.598,0.342
				c-1.547-1.156-2.611-0.557-3.771,0.465c-3.757,3.31-8.113,5.66-12.578,7.84c-2.198,1.073-4.483,1.677-6.942,1.543
				c-2.009-0.109-2.71-0.713-3.224-2.794c-0.499-2.019-0.498-2.034-2.4-2.062c-1.119-0.016-2.24,0.018-3.36,0.042
				c-4.884,0.103-9.484-1.199-14.021-2.825c-1.741-0.624-3.242-1.468-3.313-3.605c-0.03-0.922-0.64-1.405-1.281-1.891
				c-1.02-0.773-1.964-1.676-3.067-2.301c-3.177-1.801-5.242-4.624-7.257-7.526c-1.213-1.747-1.618-3.454-0.102-5.24
				c0.555-0.654,0.709-1.363,0.303-2.2c-1.823-3.759-3.03-7.727-4.024-11.775c-0.475-1.935-1.063-2.17-2.578-1.152
				c-1.734,1.165-3.494,2.225-5.526,2.825c-0.499,0.147-1.089,0.74-1.225,1.24c-1.077,3.947-1.107,7.9,0.289,11.795
				c0.075,0.21,0.448,0.455,0.662,0.437c0.262-0.021,0.598-0.246,0.739-0.48c0.843-1.403,1.101-2.953,1.205-4.576
				c0.047-0.739,0.492-1.469,0.845-2.157c0.065-0.126,0.791-0.105,0.813-0.032c0.226,0.748,0.457,1.514,0.523,2.288
				c0.478,5.616,1.633,11.07,3.907,16.245c0.574,1.307,1.31,2.558,2.108,3.743c0.314,0.467,1.012,0.952,1.515,0.931
				c0.43-0.018,0.942-0.686,1.214-1.179c0.3-0.544,0.337-1.226,0.544-1.829c0.204-0.593,0.416-1.329,1.221-1.187
				c0.36,0.064,0.721,0.521,0.939,0.886c0.325,0.543,0.48,1.186,0.782,1.746c3.296,6.133,7.458,11.55,13.188,15.617
				c2.65,1.88,3.044,1.661,3.797-1.724c0.179-0.807,0.718-1.137,1.315-0.754c0.941,0.603,1.821,1.305,2.783,1.87
				c6.85,4.029,14.159,6.647,22.161,7.032c1.099,0.053,2.211-0.181,3.317-0.283c0.334-1.379-1.019-1.832-1.519-2.754
				c-0.151-0.278-0.4-0.5-0.571-0.77c-0.658-1.037,0.086-2.397,1.358-2.346C300.551,289.841,303.102,290.039,305.654,290.198z
				 M252.246,195.518c0.16-3.077-0.349-6.216-1.109-9.345c-1.261-5.195-3.749-9.844-6.282-14.473
				c-2.258-4.126-5.167-7.681-9.209-10.225c-1.487-0.935-2.881-2.018-4.332-3.013c-5.871-4.024-12.584-4.197-19.329-4.193
				c-0.309,0-0.618,0.155-0.928,0.234c-3.399,0.874-6.896,1.478-10.179,2.669c-10.924,3.965-18.973,11.201-23.209,22.11
				c-3.13,8.062-3.742,16.44-1.738,24.977c1.333,5.681,3.229,11.158,6.901,15.667c5.653,6.943,12.628,12.136,21.479,14.546
				c7.462,2.032,7.439,2.167,14.939-0.007c2.298-0.666,4.606-1.364,6.799-2.306c1.896-0.814,3.682-1.92,5.422-3.044
				c0.775-0.5,1.683-1.265,1.897-2.077c0.747-2.833,2.805-4.102,5.245-5.145c1.314-0.562,2.463-1.528,3.792-2.035
				c2.773-1.057,4.286-3.257,5.528-5.712C250.868,208.345,252.461,202.212,252.246,195.518z M288.978,193.066
				c-3.955,0.49-7.937,0.826-11.859,1.505c-6.387,1.107-12.24,3.587-17.389,7.58c-2.531,1.963-4.914,4.114-6.474,6.965
				c-1.146,2.094-2.029,4.332-3.169,6.43c-0.979,1.803-1.308,3.52-0.335,5.434c0.575,1.133,1.045,2.342,1.391,3.565
				c1.453,5.132,1.06,9.819-3.467,13.423c-0.125,0.099-0.229,0.223-0.354,0.323c-1.271,1.02-1.478,2.28-1.156,3.852
				c0.869,4.237,2.079,8.37,3.671,12.378c0.517,1.301,1.323,2.605,2.318,3.58c6.343,6.214,13.134,11.707,22.382,12.923
				c0.625,0.082,1.216,0.444,1.841,0.512c2.376,0.256,4.78,0.757,7.138,0.608c14.502-0.912,25.931-7.555,34.116-19.415
				c5.361-7.768,7.087-16.595,5.833-26.014c-0.405-3.042-1.367-5.893-2.164-8.814c-1.417-5.196-4.013-9.667-7.6-13.672
				c-3.048-3.403-6.483-6.127-10.84-7.612c-1.661-0.566-3.32-1.147-4.954-1.787C295.043,193.706,292.096,193.124,288.978,193.066z
				 M299.735,140.973c2.212-0.157,5.24-0.316,8.255-0.617c0.918-0.092,1.814-0.531,2.689-0.888c0.655-0.267,0.731-1.051,0.284-1.574
				c-1.093-1.276-2.55-1.869-4.112-2.291c-5.607-1.515-11.248-2.536-16.995-0.797c-1.812,0.548-3.184,0.012-4.158-1.468
				c-1.315-1.999-2.479-4.096-3.753-6.123c-0.572-0.91-0.863-2.089-2.109-2.427c-0.704-0.191-1.062,1.307-0.603,3.376
				c0.344,1.55,0.879,3.067,1.436,4.558c0.501,1.344,1.199,2.615,1.695,3.961c0.126,0.343-0.109,0.892-0.328,1.257
				c-0.102,0.171-0.609,0.256-0.849,0.164c-2.674-1.033-5.373-2.017-7.987-3.189c-6.158-2.759-12.469-4.899-19.238-5.566
				c-2.853-0.281-5.675-0.866-8.518-1.261c-1.104-0.153-2.227-0.207-3.343-0.228c-1.255-0.024-1.683,0.521-1.42,1.832
				c0.251,1.251,0.576,2.488,0.9,3.723c0.489,1.861,0.499,1.937,2.791,1.999c1.463,0.04,2.432,0.721,3.121,1.868
				c1.752,2.917,2.83,6.069,3.101,9.477c0.215,2.708,0.419,5.418,0.655,8.124c0.066,0.763,0.566,1.222,1.283,0.874
				c3.19-1.55,5.173,0.054,6.813,2.537c0.613,0.928,1.241,1.891,1.612,2.928c1.893,5.284,3.504,10.621,3.007,16.364
				c-0.179,2.065-0.12,4.152-0.133,6.229c-0.005,0.731,0.734,1.148,1.32,0.737c1.828-1.283,3.668-2.553,5.423-3.932
				c4.661-3.66,10.216-5.146,15.792-6.579c0.757-0.194,1.591-0.131,2.388-0.118c3.635,0.063,4.511,0.708,5.768,4.373
				c0.277,0.808,0.676,0.998,1.352,0.598c2.06-1.222,4.066-2.539,6.158-3.702c3.238-1.8,6.652-3.115,10.417-3.271
				c1.527-0.063,2.746,0.342,3.664,1.748c1.122,1.718,1.228,1.668,2.896,1.07c2.404-0.862,4.796-1.759,7.199-2.621
				c0.695-0.249,1.187-0.664,0.657-1.352c-4.677-6.082-9.409-12.115-15.67-16.721c-6.324-4.652-12.799-9.016-20.382-11.424
				c-0.555-0.176-1.045-0.655-1.47-1.087c-0.137-0.14-0.066-0.769,0.083-0.848c0.4-0.214,0.9-0.365,1.349-0.339
				C293.486,140.503,296.193,140.717,299.735,140.973z M138.752,280.135c0-1.276,0.008-2.553-0.003-3.829
				c-0.006-0.663-0.825-1.095-1.368-0.644c-2.206,1.832-4.535,3.559-6.506,5.623c-3.12,3.267-5.528,7.076-6.633,11.503
				c-0.494,1.978-0.515,4.096-0.569,6.155c-0.036,1.373,0.845,2.354,1.985,3.086c0.712,0.457,1.703,0.346,2.111-0.336
				c0.409-0.682,0.778-1.392,1.119-2.112c1.04-2.191,2.365-4.179,4.207-5.773c0.454-0.393,1.076-0.598,1.636-0.855
				c0.116-0.053,0.368-0.008,0.443,0.084c0.175,0.216,0.431,0.523,0.383,0.73c-0.104,0.449-0.29,0.939-0.595,1.273
				c-3.993,4.385-5.777,9.898-7.745,15.294c-0.651,1.784-1.007,3.711-1.245,5.604c-0.399,3.178,0.555,6.031,2.733,8.384
				c0.624,0.674,1.513,1.144,2.351,1.566c0.621,0.313,1.323,0.085,1.595-0.583c0.358-0.879,0.537-1.83,0.819-2.742
				c1.061-3.434,3.166-6.25,5.407-8.969c0.204-0.247,0.989-0.344,1.208-0.16c0.251,0.212,0.347,0.887,0.203,1.235
				c-0.425,1.028-0.881,2.083-1.538,2.969c-3.314,4.47-3.854,9.704-4.309,14.987c-0.266,3.085,0.925,5.666,2.787,7.93
				c1.959,2.382,4.492,4.091,7.409,5.119c0.866,0.305,1.874,0.307,2.813,0.285c1.115-0.026,1.783-0.737,1.806-1.815
				c0.051-2.397-0.028-4.8,0.102-7.192c0.142-2.611,0.981-4.996,2.878-6.903c0.098-0.098,0.365-0.177,0.443-0.118
				c0.212,0.16,0.537,0.425,0.51,0.601c-0.12,0.78-0.267,1.574-0.551,2.307c-1.19,3.071-1.213,6.274-0.997,9.467
				c0.222,3.268,1.458,6.21,3.525,8.762c1.655,2.043,4.171,2.272,6.474,2.773c3.934,0.856,7.183-0.527,9.834-3.491
				c6.455-7.216,8.956-16.077,10.455-25.32c0.304-1.871,0.12-3.831,0.067-5.747c-0.045-1.638-0.493-2.016-2.026-1.54
				c-4.318,1.343-8.174,0.358-11.843-2.038c-4.667-3.047-8.415-6.855-10.411-12.173c-0.494-1.318-1.127-2.086-2.837-1.759
				c-3.018,0.577-5.801-0.416-7.919-2.537C141.717,293.987,137.914,288.018,138.752,280.135z M328.417,298.829
				c0.582,4.033-0.765,7.723-3.449,10.901c-2.209,2.616-4.86,4.246-8.39,2.292c-0.75-0.415-1.356-0.036-1.557,0.53
				c-1.05,2.967-3.059,5.186-5.294,7.29c-4.205,3.957-9.016,4.407-13.861,1.203c-1.492-0.986-1.568-1.058-2.779,0.234
				c-2.671,2.849-5.471,5.372-9.667,5.631c-0.67,0.041-0.855,0.883-0.673,1.55c0.715,2.617,1.537,5.207,2.18,7.84
				c1.327,5.428,4.29,9.923,7.784,14.151c1.051,1.272,2.341,2.118,3.821,2.794c3.895,1.778,7.5,0.548,11.048-1.036
				c0.686-0.306,1.325-0.954,1.731-1.604c0.841-1.347,1.68-2.739,2.219-4.222c1.465-4.025,1.354-8.141,0.316-12.256
				c-0.31-1.228-0.634-2.452-0.926-3.684c-0.028-0.118,0.117-0.391,0.207-0.403c0.267-0.036,0.627-0.077,0.806,0.065
				c0.365,0.29,0.685,0.667,0.936,1.064c1.317,2.077,1.96,4.357,1.966,6.816c0.004,1.918-0.019,3.836,0.006,5.754
				c0.021,1.561,0.819,2.346,2.36,2.319c0.631-0.011,1.302-0.035,1.883-0.249c3.848-1.417,7.093-3.599,9.17-7.282
				c0.967-1.714,1.557-3.47,1.428-5.469c-0.35-5.462-0.964-10.823-4.327-15.459c-0.732-1.009-1.137-2.264-1.624-3.435
				c-0.082-0.196,0.118-0.646,0.32-0.784c0.206-0.141,0.581-0.072,0.874-0.035c0.138,0.018,0.288,0.152,0.384,0.273
				c2.298,2.882,4.483,5.831,5.513,9.454c0.217,0.763,0.37,1.554,0.68,2.277c0.297,0.695,1.001,0.845,1.608,0.527
				c0.832-0.435,1.714-0.913,2.333-1.592c2.287-2.507,3.189-5.506,2.652-8.865c-0.998-6.244-3.578-11.903-6.605-17.378
				c-0.457-0.826-1.139-1.547-1.807-2.228c-0.283-0.289-0.798-0.35-1.207-0.515c-0.058,0.31-0.167,0.62-0.165,0.929
				C328.317,297.025,328.372,297.823,328.417,298.829z M281.002,279.16c1.743-0.204,3.482-0.452,5.231-0.56
				c0.241-0.015,0.772,0.69,0.737,1.015c-0.064,0.596-0.431,1.166-0.706,1.73c-0.391,0.801-1.44,1.62-0.488,2.466
				c0.466,0.414,1.511,0.302,2.272,0.223c0.781-0.081,1.565-0.343,2.298-0.648c3.54-1.474,7.062-2.987,10.106-5.397
				c2.756-2.182,5.515-4.362,8.3-6.506c1.168-0.899,2.144-1.04,2.546-0.505c0.59,0.786,0.102,1.493-0.159,2.221
				c-0.051,0.144-0.098,0.359-0.028,0.461c0.147,0.218,0.472,0.58,0.549,0.541c0.702-0.359,1.451-0.698,2.029-1.217
				c6.166-5.541,9.982-12.356,11.083-20.628c0.185-1.393,0.767-1.726,1.895-1.085c1.086,0.616,2.159,1.919,3.414,1.149
				c1.452-0.89,0.733-2.574,0.571-3.924c-0.112-0.938-0.538-1.834-0.768-2.762c-0.153-0.617-0.379-1.293-0.258-1.878
				c0.108-0.522,0.573-1.264,1.009-1.369c1.228-0.295,2.526-0.286,3.79-0.449c0.726-0.093,1.088-0.834,0.695-1.399
				c-0.82-1.178-1.703-2.313-2.519-3.494c-0.673-0.974-0.593-1.814,0.27-2.547c0.728-0.618,1.543-1.132,2.298-1.72
				c1.591-1.239,2.415-2.953,2.869-4.857c0.388-1.628-0.574-3.329-2.159-3.774c-0.758-0.213-1.581-0.179-2.36-0.332
				c-1.244-0.243-2.514-0.438-3.702-0.855c-1.612-0.566-1.823-1.826-0.573-2.861c0.983-0.814,2.06-1.523,2.988-2.394
				c1.935-1.817,3.051-4.09,3.3-6.737c0.353-3.745-0.762-4.561-4.244-3.211c-1.189,0.461-2.395,0.887-3.62,1.238
				c-0.6,0.172-1.26,0.187-1.892,0.179c-0.983-0.012-1.848-1.036-1.559-1.948c0.487-1.537,0.923-3.056,0.64-4.692
				c-0.36-2.092-1.837-3.49-3.946-3.391c-2.225,0.104-4.444,0.413-6.654,0.724c-0.677,0.096-0.515,0.772-0.258,1.135
				c0.552,0.776,1.18,1.507,1.837,2.199c3.713,3.91,6.176,8.508,7.628,13.677c0.302,1.076,0.681,2.131,1.004,3.202
				c3.354,11.15,2.229,21.947-3.618,31.9c-6.333,10.78-15.804,17.875-28.002,21.019c-5.269,1.358-10.611,2.388-16.077,0.892
				c-2.462-0.674-4.952-1.241-7.432-1.848c-2.508-0.614-4.795-1.705-6.998-3.044c-4.138-2.514-7.671-5.725-10.974-9.223
				c-0.485-0.513-1.136-0.823-1.598-0.159c-0.314,0.451-0.42,1.198-0.312,1.753c0.114,0.589,0.573,1.119,0.912,1.655
				c2.63,4.156,6.567,6.893,10.469,9.679c0.6,0.429,1.549,1.131,1.486,1.589c-0.211,1.529,0.615,1.948,1.755,2.341
				C269.566,278.626,275.141,279.886,281.002,279.16z M166.725,208.352c0.305,2.661,0.559,6.011,1.121,9.308
				c0.26,1.523,1.08,2.961,1.727,4.401c0.29,0.646,1.207,0.693,1.588,0.177c0.189-0.255,0.36-0.523,0.551-0.776
				c0.645-0.855,0.509-2.484,1.869-2.555c1.671-0.087,1.662,1.643,2.186,2.695c2.989,5.997,7.232,10.901,12.705,14.75
				c0.641,0.451,1.383,1.132,2.143,0.594c1.29-0.913,2.309-0.365,3.543,0.116c2.226,0.867,4.572,1.419,6.826,2.219
				c2.477,0.879,5.02,0.874,7.581,0.815c0.315-0.007,0.749,0.004,0.918-0.183c0.397-0.439,0.769-0.964,0.933-1.518
				c0.054-0.185-0.513-0.743-0.867-0.826c-1.71-0.403-3.451-0.676-5.17-1.044c-10.207-2.185-17.789-8.341-24.267-16.131
				c-0.708-0.852-1.265-1.852-1.775-2.844c-5.702-11.075-7.557-22.56-4.304-34.819c3.024-11.394,10.076-19.374,20.022-25.133
				c3.488-2.019,7.367-3.021,11.199-4.159c4.826-1.434,9.67-2.08,14.659-1.048c0.779,0.161,1.583,0.214,2.379,0.278
				c1.152,0.092,1.577-0.424,1.071-1.331c-0.935-1.673-1.876-3.346-2.891-4.972c-1.508-2.413-3.767-2.947-6.048-1.328
				c-1.02,0.724-1.796,1.787-2.7,2.678c-0.704,0.694-1.869,0.529-2.512-0.274c-1.253-1.566-1.55-3.488-2.011-5.338
				c-0.92-3.693-2.035-4.097-4.957-1.653c-2.04,1.706-3.3,3.896-3.676,6.537c-0.158,1.104-0.128,2.233-0.224,3.348
				c-0.168,1.943-1.378,2.626-2.874,1.55c-0.893-0.642-1.652-1.479-2.43-2.27c-0.557-0.567-0.981-1.275-1.575-1.794
				c-1.437-1.255-3.479-1.138-4.743,0.259c-1.316,1.455-2.19,3.143-2.35,5.135c-0.077,0.954-0.015,1.927-0.176,2.864
				c-0.146,0.847-0.783,1.442-1.653,1.483c-1.432,0.066-2.87-0.024-4.305-0.012c-0.603,0.005-1.144,0.834-0.879,1.394
				c0.473,1.001,1.03,1.963,1.544,2.945c0.542,1.035,0.274,1.843-0.829,2.278c-1.039,0.41-2.14,0.668-3.161,1.114
				c-1.16,0.507-2.301,1.085-3.379,1.748c-0.94,0.579-0.818,1.717,0.196,2.312c0.545,0.32,1.138,0.558,1.713,0.826
				c1.836,0.854,1.989,1.426,0.625,2.61c-6.372,5.53-9.49,12.683-10.449,20.911c-0.054,0.466-0.065,1.012,0.133,1.405
				c0.113,0.224,0.762,0.382,1.044,0.266c0.413-0.17,0.673-0.676,1.07-0.927c0.768-0.485,1.731-0.051,1.757,0.795
				c0.039,1.275,0.066,2.558-0.033,3.828C167.366,201.917,167.063,204.777,166.725,208.352z M328.128,363.407
				c-0.114-1.964-0.209-4.836-0.468-7.693c-0.23-2.538-0.551-5.076-1.003-7.583c-0.437-2.429-0.751-2.915-2.993-1.594
				c-2.788,1.642-5.637,3.03-9.042,1.835c-0.731-0.257-1.475,0.698-1.308,1.553c0.183,0.936,0.427,1.861,0.662,2.786
				c1.696,6.675,2.63,13.442,2.6,20.342c-0.01,2.39-0.01,4.802,0.296,7.164c0.325,2.51,0.968,4.984,1.571,7.449
				c0.27,1.103,1.266,1.378,2.248,0.749c0.533-0.342,1.142-0.65,1.528-1.126c2.118-2.61,3.984-5.34,4.798-8.711
				C328.152,373.868,328.212,369.1,328.128,363.407z M138.728,345.809c-0.239,0.157-0.611,0.264-0.692,0.48
				c-0.277,0.743-0.529,1.511-0.651,2.292c-1.109,7.109-1.662,14.267-1.363,21.455c0.118,2.851,0.638,5.697,1.131,8.518
				c0.595,3.415,2.608,6.13,4.75,8.722c0.483,0.584,1.257,0.963,1.956,1.32c0.623,0.318,1.273,0.155,1.618-0.495
				c0.295-0.557,0.484-1.176,0.676-1.781c1.421-4.481,1.334-9.129,1.384-13.739c0.072-6.575,0.895-13.034,2.5-19.402
				c0.234-0.927,0.509-1.844,0.716-2.777c0.321-1.444-0.327-2.286-1.7-1.909c-2.687,0.738-5.031,0.027-7.319-1.269
				c-0.693-0.393-1.388-0.785-2.1-1.143C139.358,345.942,139.033,345.897,138.728,345.809z M313.522,365.426
				c-0.376-3.789-1.135-7.54-1.758-11.303c-0.125-0.751-0.653-1.156-1.328-0.649c-2.103,1.583-4.595,2.189-7.051,2.804
				c-2.176,0.545-2.565,1.052-2.172,3.346c0.135,0.785,0.203,1.583,0.369,2.36c2.409,11.29,3.145,22.693,2.328,34.203
				c-0.056,0.791-0.084,1.591-0.034,2.381c0.112,1.782,1.434,2.36,3.033,1.379c2.114-1.297,3.603-3.175,4.606-5.368
				c1.734-3.788,2.996-7.73,2.851-11.976C314.269,379.74,313.803,368.264,313.522,365.426z M149.753,381.395
				c-0.305,4.25,0.8,8.227,2.346,12.106c0.897,2.25,2.215,4.253,4.152,5.757c0.611,0.474,1.362,0.791,2.087,1.089
				c0.704,0.289,1.695-0.323,1.758-1.102c0.088-1.103,0.112-2.215,0.083-3.322c-0.085-3.187-0.388-6.379-0.285-9.559
				c0.268-8.291,0.69-16.577,2.704-24.685c0.268-1.079,0.366-2.202,0.516-3.309c0.121-0.897-0.214-1.499-1.135-1.785
				c-2.275-0.708-4.607-1.297-6.788-2.233c-2.75-1.179-2.829-1.329-3.269,1.33c-0.598,3.613-1.084,7.253-1.39,10.901
				C150.319,369.117,149.924,379.009,149.753,381.395z M341.31,355.696c-0.506-4.714-1.021-9.151-1.448-13.597
				c-0.435-4.52-1.934-8.701-3.873-12.755c-0.395-0.826-1.051-1.115-1.961-0.829c-0.892,0.281-1.958,0.314-1.935,1.658
				c0.018,1.117-0.037,2.238,0.036,3.351c0.154,2.327-0.521,4.408-1.729,6.355c-0.42,0.677-0.765,1.414-1.263,2.028
				c-0.888,1.097-1.007,2.243-0.666,3.582c1.026,4.028,1.639,8.119,1.835,12.28c0.112,2.389,0.503,4.765,0.586,7.154
				c0.06,1.722,0.785,2.996,3.116,3.705c1.862,0.567,3.566-0.021,4.574-1.666c0.658-1.074,1.287-2.257,1.536-3.472
				C340.659,360.843,340.95,358.145,341.31,355.696z M122.768,355.266c0.402,2.799,0.655,5.506,1.226,8.144
				c0.295,1.358,1.061,2.652,1.791,3.868c0.712,1.187,1.937,1.593,3.311,1.506c2.57-0.163,3.876-1.51,4.113-4.265
				c0.56-6.511,0.819-13.061,2.521-19.422c0.315-1.176,0.011-2.165-0.712-3.123c-2.406-3.189-3.532-6.748-3.008-10.769
				c0.061-0.467-0.014-0.953-0.047-1.429c-0.01-0.155-0.044-0.4-0.14-0.444c-0.702-0.321-1.408-0.644-2.141-0.881
				c-0.747-0.242-1.275,0.231-1.505,0.83c-1.139,2.972-2.648,5.889-3.215,8.974C123.928,343.891,123.463,349.633,122.768,355.266z
				 M115.109,341.572c0,1.912-0.173,3.843,0.045,5.729c0.255,2.2,0.728,4.397,1.358,6.52c0.297,1.002,1.121,1.88,1.829,2.71
				c0.229,0.267,0.909,0.371,1.272,0.241c0.377-0.135,0.763-0.599,0.888-0.999c0.184-0.592,0.144-1.253,0.193-1.886
				c0.149-1.903,0.267-3.809,0.45-5.709c0.642-6.688,1.634-13.284,4.888-19.322c0.717-1.329,0.667-2.685-0.267-4.043
				c-2.732-3.972-2.925-8.312-1.602-12.811c0.583-1.98,1.248-3.937,1.799-5.926c0.202-0.73-0.341-1.155-0.981-1.394
				c-0.74-0.276-1.644-0.701-2.088,0.245c-1.012,2.16-2.053,4.336-2.754,6.607C117.119,321.316,115.199,331.301,115.109,341.572z
				 M349.12,340.742c-0.07-7.466-1.568-15.591-3.537-23.661c-0.987-4.046-2.394-7.921-4.154-11.679
				c-0.182-0.388-0.559-0.935-0.874-0.955c-0.592-0.037-1.241,0.177-1.799,0.434c-0.682,0.314-0.732,0.942-0.505,1.613
				c0.508,1.507,1.049,3.006,1.498,4.531c1.454,4.943,1.552,9.749-1.607,14.173c-0.729,1.021-0.677,2.102-0.244,3.18
				c0.474,1.181,1.093,2.307,1.536,3.498c0.719,1.937,1.566,3.863,1.971,5.873c1.068,5.309,1.887,10.665,2.016,16.099
				c0.015,0.634,0,1.294,0.179,1.888c0.121,0.404,0.534,0.978,0.855,1.005c0.548,0.046,1.395-0.101,1.645-0.479
				c0.776-1.171,1.482-2.436,1.941-3.76C349.263,348.975,349.099,345.279,349.12,340.742z M235.647,234.68
				c0.158,2.428,0.299,4.818,0.48,7.204c0.047,0.618,0.886,1.025,1.451,0.767c0.144-0.066,0.292-0.124,0.43-0.201
				c3.693-2.024,6.406-5.238,9.536-7.941c1.086-0.938,1.47-2.411,1.661-3.884c0.41-3.16-0.6-5.994-1.892-8.773
				c-0.494-1.062-1.28-1.361-2.334-0.807c-2.399,1.259-4.759,2.592-7.151,3.865c-1.261,0.671-1.81,1.719-1.868,3.102
				C235.866,230.246,235.751,232.479,235.647,234.68z M322.661,281.906c1.412,2.116,2.773,4.013,3.046,6.494
				c0.13,1.186,1.018,2.309,1.651,3.409c0.208,0.362,0.663,0.748,1.055,0.81c3.067,0.486,4.354,2.968,5.835,5.182
				c0.79,1.181,1.311,2.539,2.009,3.787c0.48,0.857,1.613,0.903,2.483,0.276c1.45-1.045,1.857-2.514,1.835-4.174
				c-0.095-6.976-3.562-12.377-8.168-17.198c-0.45-0.471-1.49-0.727-2.149-0.586C327.786,280.439,325.357,281.177,322.661,281.906z"
				/>
			<path d="M236.986,143.209c-0.287,0.743-0.552,1.465-0.858,2.17c-0.035,0.08-0.299,0.087-0.454,0.08
				c-0.124-0.006-0.275-0.054-0.357-0.138c-0.107-0.109-0.213-0.268-0.227-0.414c-0.557-5.905-2.081-11.595-3.784-17.249
				c-0.497-1.65-0.317-3.069,0.279-2.915c1.086,0.281,1.366,1.249,1.688,2.138C235.177,132.155,236.212,137.622,236.986,143.209z"/>
			<path d="M225.599,132.986c-0.205,0.462-0.331,0.749-0.458,1.036c-0.354-0.245-0.923-0.419-1.029-0.744
				c-1.976-6.063-3.902-12.143-5.814-18.227c-0.083-0.263,0.046-0.608,0.129-0.899c0.033-0.116,0.198-0.23,0.327-0.271
				c0.144-0.047,0.408-0.076,0.462-0.001c0.64,0.895,1.406,1.743,1.842,2.734c1.997,4.547,3.305,9.316,4.322,14.167
				C225.541,131.553,225.54,132.361,225.599,132.986z"/>
			<path d="M332.274,176.941c0.212,0.106,0.475,0.239,0.739,0.372c-0.157,0.264-0.251,0.644-0.483,0.771
				c-0.826,0.45-1.681,0.861-2.557,1.203c-4.718,1.844-9.452,3.646-13.832,6.243c-0.213,0.126-0.583-0.012-0.88-0.026
				c0.068-0.391,0.068-0.814,0.227-1.163c0.121-0.264,0.428-0.461,0.684-0.643c0.643-0.46,1.276-0.947,1.965-1.331
				c4.167-2.319,8.616-3.963,13.142-5.413C331.565,176.862,331.906,176.941,332.274,176.941z"/>
			<path d="M285.77,180.089c-0.05,0.151-0.055,0.362-0.16,0.443c-0.371,0.286-0.742,0.628-1.172,0.771
				c-4.01,1.331-7.381,3.718-10.643,6.309c-0.739,0.587-1.575,1.062-2.408,1.511c-0.163,0.088-0.529-0.156-0.773-0.295
				c-0.048-0.027,0.015-0.283,0.056-0.424c0.043-0.149,0.086-0.322,0.188-0.428c3.36-3.494,7.229-6.262,11.777-7.98
				c0.832-0.314,1.847-0.155,2.779-0.184C285.53,179.809,285.651,179.992,285.77,180.089z"/>
			<path d="M259.398,182.555c-0.2,1.083-0.33,1.846-0.493,2.602c-0.023,0.108-0.202,0.245-0.318,0.254
				c-0.143,0.011-0.316-0.071-0.438-0.163c-0.113-0.086-0.226-0.228-0.252-0.362c-0.965-4.987-1.92-9.976-2.872-14.965
				c-0.029-0.154-0.06-0.34-0.001-0.471c0.167-0.37,0.381-0.719,0.577-1.076c0.325,0.32,0.718,0.597,0.958,0.972
				c0.25,0.391,0.417,0.863,0.509,1.322C257.876,174.713,258.658,178.765,259.398,182.555z"/>
			<path d="M246.347,157.186c-0.276,0.707-0.43,1.149-0.627,1.572c-0.054,0.115-0.251,0.258-0.354,0.238
				c-0.245-0.048-0.658-0.155-0.68-0.291c-0.713-4.387-1.402-8.778-2.038-13.177c-0.048-0.333,0.052-1.032,0.777-0.804
				c0.278,0.087,0.6,0.276,0.738,0.514c0.233,0.402,0.409,0.867,0.484,1.326C245.242,150.173,245.807,153.787,246.347,157.186z"/>
			<path d="M344.606,182.648c0.292,0.185,0.53,0.336,0.769,0.487c-0.188,0.243-0.331,0.553-0.574,0.715
				c-0.39,0.259-0.829,0.469-1.276,0.613c-3.767,1.218-7.537,2.426-11.314,3.611c-0.595,0.187-1.228,0.293-1.85,0.333
				c-0.221,0.014-0.476-0.264-0.679-0.449c-0.032-0.029,0.088-0.327,0.202-0.401c0.526-0.343,1.038-0.76,1.621-0.955
				c3.903-1.307,7.819-2.575,11.74-3.825C343.685,182.637,344.183,182.683,344.606,182.648z"/>
			<path d="M308.062,179.299c-0.221,0.421-0.293,0.811-0.523,0.957c-3.089,1.97-6.188,3.924-9.323,5.819
				c-0.296,0.179-0.848-0.064-1.282-0.111c0.092-0.274,0.105-0.626,0.287-0.809c2.738-2.76,5.945-4.804,9.602-6.114
				C307.151,178.924,307.619,179.198,308.062,179.299z"/>
			<path d="M223.9,186.229c0.686,1.083,1.089,2.363,1.089,3.74c0,3.871-3.138,7.008-7.008,7.008c-3.669,0-6.675-2.821-6.978-6.412
				c-3.221,3.002-5.248,7.27-5.248,12.021c0,9.082,7.363,16.445,16.445,16.445c9.083,0,16.445-7.363,16.445-16.445
				C238.644,194.078,232.183,187.08,223.9,186.229z"/>
			<path d="M286.976,219.138c-1.281-0.05-2.591,0.243-3.782,0.934c-3.349,1.941-4.49,6.229-2.549,9.578
				c1.84,3.175,5.788,4.36,9.047,2.822c-0.982,4.293-3.658,8.186-7.768,10.569c-7.858,4.555-17.92,1.877-22.475-5.981
				c-4.555-7.858-1.877-17.92,5.981-22.475C272.792,210.318,282.086,212.398,286.976,219.138z"/>
			<g>
				<path d="M152.164,238.953c-8.152,1.905-16.177,15.289-10.562,22.732c0.619,0.82,1.901,0.076,1.379-0.845
					c-2.684-4.738-0.076-10.845,3.003-14.668c1.942-2.411,4.512-3.826,6.86-5.741C153.553,239.853,153.117,238.73,152.164,238.953z"
					/>
				<path d="M169.402,245.839c-7.078,1.181-10.342,11.17-10.94,17.297c-0.677,6.939,4.381,8.386,9.8,5.328
					c0.536-0.303,0.1-1.164-0.469-0.961c-8.654,3.097-7.348-2.828-6.6-6.291c0.415-1.921,1.023-3.841,1.836-5.63
					c1.56-3.432,3.586-6.07,6.899-7.936C170.815,247.147,170.539,245.649,169.402,245.839z"/>
				<path d="M201.077,294.756c-9.437,7.653-12.523-6.714-13.132-13.027c-0.624-6.477-0.626-12.959,0.227-19.413
					c0.165-1.25-1.734-1.389-1.939-0.166c-1.046,6.249-1.167,12.467-0.659,18.779c0.351,4.359,0.629,9.182,2.858,13.066
					c2.766,4.818,10.915,8.224,14.029,1.855C202.859,295.039,201.772,294.193,201.077,294.756z"/>
				<path d="M213.453,284.144c-12.835,5.28-10.548-18.47-8.774-24.701c0.254-0.89-1.039-1.281-1.365-0.425
					c-2.614,6.857-3.745,15.261-0.736,22.209c1.971,4.551,7.378,8.241,11.815,4.522C215.199,285.073,214.46,283.729,213.453,284.144
					z"/>
				<path d="M233.498,323.919c-7.872,7.317-12.77-5.967-14.24-11.733c-1.837-7.207-1.818-14.685,0.273-21.854
					c0.331-1.136-1.337-1.86-1.738-0.702c-3.573,10.291-2.754,21.97,2.132,31.75c1.594,3.192,3.967,6.287,7.659,7.018
					c3.026,0.599,6.164-0.404,7.329-3.385C235.221,324.22,234.206,323.261,233.498,323.919z"/>
				<path d="M238.473,278.665c-0.668-0.684-1.761,0.28-1.263,1.063c2.403,3.772,4.612,7.566,6.088,11.81
					c0.932,2.679,1.584,5.396,2.003,8.213c0.129,0.933,0.24,1.868,0.334,2.805c0.399,2.133-0.95,3.147-4.047,3.04
					c-0.358-0.594-1.33-0.03-1.053,0.593c2.43,5.48,7.178,0.295,7.25-3.633C247.935,294.235,244.269,284.6,238.473,278.665z"/>
				<path d="M269.752,297.648c-0.435-0.883-1.857-0.641-1.737,0.432c0.455,4.064-0.153,7.824-1.361,11.721
					c-0.837,2.701-2.388,5.428-2.617,8.263c-0.03,0.366,0.398,0.467,0.616,0.23c2.6-2.838,3.91-7.394,4.874-11.042
					C270.353,304.121,271.244,300.676,269.752,297.648z"/>
				<path d="M174.747,229.18c-2.922-1.351-6.092-1.446-9.033-3.065c-2.5-1.377-4.709-3.233-6.578-5.38
					c-0.597-0.686-1.795,0.274-1.247,1.008c1.966,2.633,4.251,4.787,7.141,6.395c2.71,1.508,6.437,3.235,9.569,2.529
					C175.272,230.515,175.368,229.467,174.747,229.18z"/>
				<path d="M193.758,241.241c-2.097-0.597-4.398-0.336-6.562-0.544c-2.519-0.243-4.977-0.751-7.409-1.441
					c-1.44-0.408-1.877,1.86-0.455,2.275c4.128,1.205,10.247,2.901,14.434,1.206C194.451,242.46,194.559,241.469,193.758,241.241z"
					/>
				<path d="M291.384,291.204c-5.067-1.11-9.524-3.216-13.63-6.374c-1.011-0.778-2.112,0.82-1.134,1.61
					c4.171,3.369,9.121,5.549,14.417,6.368C292.071,292.968,292.426,291.432,291.384,291.204z"/>
				<path d="M313.881,285.878c-6.016,0.6-11.396-0.563-17.31-1.153c-0.936-0.094-1.452,1.204-0.522,1.638
					c5.36,2.5,12.397,2.293,18.102,1.371C315.348,287.54,315.081,285.759,313.881,285.878z"/>
				<path d="M224.561,380.04c-0.103-0.755-1.161-1.127-1.546-0.342c-1.193,2.431-1.456,5.474-4.152,6.825
					c-4.143,2.076-5.678-2.395-6.461-5.47c-0.181-0.71-1.072-0.695-1.45-0.23c-0.459-0.149-1.032,0.089-1.264,0.568
					c-0.845,1.75-1.283,3.518-3.563,3.575c-2.321,0.059-3.48-2.066-4.197-4.045c-1.264-3.49-1.483-7.248-2.01-10.89
					c-0.091-0.63-0.902-0.961-1.326-0.617c-0.417-0.063-0.859,0.083-1.054,0.504c-0.758,1.63-1.81,2.901-3.794,1.985
					c-1.334-0.616-2.299-1.992-2.914-3.277c-1.175-2.459-1.306-5.17-0.629-7.773c0.258-0.992-1.41-1.452-1.747-0.482
					c-1.565,4.511-0.775,10.302,3.374,13.237c1.675,1.185,4.529,1.245,6.276,0.128c0.035,4.962,1.316,11.126,5.283,13.321
					c2.549,1.41,6.616,0.055,7.96-2.468c0.87,2.878,2.783,5.238,6.362,4.78C221.949,388.826,225.127,384.176,224.561,380.04z"/>
				<path d="M287.625,366.599c-0.226-1.145-2.012-0.98-2.037,0.191c-0.071,3.363,0.079,6.755-0.363,10.099
					c-0.104,0.786-0.165,1.665-0.461,2.407c-0.14,0.65-0.482,1.199-1.027,1.647c-0.595,1.653-1.54,1.703-2.834,0.152
					c-2.206-1.221-2.573-2.158-3.456-4.39c-0.039-0.099-0.106-0.17-0.181-0.225c-0.024-0.108-0.035-0.221-0.062-0.328
					c-0.238-0.941-1.493-0.588-1.692,0.16c-1.181,4.442-0.656,9.187-2.197,13.613c-1.015,2.916-3.733,3.985-6.049,1.627
					c-0.925-0.942-1.487-2.224-1.931-3.513c-0.092-1.048-0.243-2.045-0.473-2.95c-0.274-1.077-1.747-1.02-1.927,0.086
					c-0.701,4.304-0.421,8.563-1.455,12.86c-0.357,1.486-0.766,3.043-1.327,4.469c-0.884,2.25-5.734,9.405-8.524,3.228
					c-0.462-1.023-2.018-0.477-1.65,0.607c1.761,5.18,8.088,4.047,10.815,0.38c2.57-3.455,4.201-9.079,4.561-14.288
					c1.668,2.675,4.196,4.474,7.536,2.482c2.202-1.313,2.867-4.067,3.411-6.377c0.499-2.115,1.003-4.409,1.213-6.696
					c0.414,0.768,0.986,1.46,1.815,2.024c1.821,1.237,4.085,1.213,5.776-0.221C289.299,380.085,288.56,371.33,287.625,366.599z"/>
			</g>
			<g>
				<path d="M211.243,422.494c-0.194-1.423-2.451-1.341-2.249,0.095c0.121,0.856,0.25,2.013,0.302,3.264
					c-2.987,1.016-5.788,0.44-8.586-0.756c0.244-1.779,0.574-3.411,0.704-4.456c0.06-0.484-0.636-0.579-0.854-0.227
					c-0.623,1.007-1.182,2.39-1.586,3.922c-2.247,0.75-5.029,0.033-7.2-1.147c0.016-0.059,0.026-0.119,0.042-0.178
					c0.378-1.364,1.06-2.393,1.057-3.804c-0.001-0.554-0.568-0.91-1.043-0.569c-1.134,0.814-1.889,2.228-2.342,3.866
					c-2.798,0.487-5.128-0.043-7.71-0.961c0.396-1.367,0.974-2.693,1.66-3.96c0.525-0.97-0.928-1.65-1.585-0.925
					c-3.388,3.744-3.72,10.862-0.792,14.964c2.34,3.277,6.695,4.464,9.866,1.924c2.157,2.224,5.92,2.238,8.577,0.527
					c0.83,1.385,2.146,2.367,4.111,2.609c2.557,0.315,4.939-1.029,6.342-3.122C212.161,430.276,211.748,426.204,211.243,422.494z
					 M181.486,422.746c2.335,1.35,4.994,2.47,7.597,1.863c-0.113,0.937-0.155,1.894-0.12,2.819
					c-2.554,0.725-5.197,0.378-7.597-0.699C181.156,425.375,181.23,424.045,181.486,422.746z M181.683,428.148
					c2.218,1.38,4.847,1.734,7.456,1.19c0.132,0.863,0.327,1.649,0.577,2.3c0.09,0.235,0.197,0.453,0.309,0.665
					C186.328,434.024,182.85,431.715,181.683,428.148z M191.247,427.531c-0.026-1.107,0.076-2.222,0.289-3.313
					c2.015,1.446,4.713,2.533,7.03,2.057c-0.131,0.826-0.213,1.667-0.227,2.497c-1.95,0.771-4.985,0.555-7.047-0.433
					C191.27,428.07,191.253,427.8,191.247,427.531z M194.588,433.141c-1.992-0.462-2.842-2.01-3.167-3.783
					c1.995,1.259,4.789,1.772,6.994,1.156c0.083,0.772,0.232,1.515,0.465,2.2C197.474,433.069,196.006,433.469,194.588,433.141z
					 M203.892,434.49c-1.891-0.26-2.813-1.58-3.209-3.326c2.305,1.227,4.967,1.765,7.544,1.333
					C207.421,433.919,206.074,434.79,203.892,434.49z M200.459,429.655c-0.071-1.057-0.01-2.193,0.104-3.31
					c2.644,1.592,5.756,2.415,8.732,1.565c-0.039,0.845-0.126,1.688-0.3,2.475C205.98,430.953,203.205,430.893,200.459,429.655z"/>
				<path d="M252.327,433.747c1.403,2.093,3.784,3.437,6.342,3.122c1.965-0.242,3.281-1.224,4.111-2.609
					c2.657,1.711,6.421,1.697,8.578-0.527c3.172,2.539,7.527,1.353,9.866-1.924c2.928-4.102,2.596-11.221-0.792-14.965
					c-0.657-0.725-2.11-0.045-1.585,0.925c0.686,1.267,1.264,2.593,1.66,3.96c-2.582,0.917-4.912,1.448-7.71,0.961
					c-0.453-1.638-1.208-3.052-2.342-3.866c-0.475-0.341-1.042,0.015-1.043,0.569c-0.003,1.411,0.679,2.44,1.057,3.804
					c0.016,0.059,0.027,0.119,0.042,0.177c-2.171,1.18-4.953,1.897-7.2,1.147c-0.404-1.533-0.963-2.915-1.586-3.922
					c-0.218-0.352-0.915-0.257-0.854,0.227c0.13,1.045,0.46,2.678,0.704,4.456c-2.797,1.197-5.598,1.773-8.586,0.756
					c0.052-1.251,0.181-2.408,0.302-3.264c0.202-1.435-2.055-1.518-2.249-0.095C250.538,426.39,250.124,430.461,252.327,433.747z
					 M280.919,426.914c-2.399,1.076-5.043,1.424-7.597,0.699c0.035-0.925-0.007-1.881-0.12-2.818
					c2.603,0.607,5.261-0.513,7.597-1.863C281.056,424.23,281.13,425.56,280.919,426.914z M272.26,432.49
					c0.112-0.211,0.219-0.43,0.309-0.665c0.25-0.651,0.446-1.438,0.577-2.3c2.609,0.544,5.238,0.19,7.456-1.19
					C279.435,431.901,275.958,434.21,272.26,432.49z M270.994,428.525c-2.061,0.988-5.097,1.205-7.047,0.433
					c-0.014-0.83-0.096-1.671-0.227-2.497c2.316,0.476,5.014-0.61,7.03-2.057c0.213,1.09,0.315,2.206,0.289,3.313
					C271.033,427.986,271.016,428.256,270.994,428.525z M263.405,432.9c0.234-0.685,0.383-1.428,0.465-2.2
					c2.205,0.616,4.999,0.103,6.994-1.156c-0.325,1.773-1.174,3.322-3.167,3.783C266.28,433.655,264.812,433.255,263.405,432.9z
					 M254.059,432.683c2.576,0.433,5.238-0.105,7.543-1.333c-0.396,1.746-1.317,3.065-3.209,3.326
					C256.211,434.976,254.865,434.105,254.059,432.683z M253.292,430.571c-0.174-0.788-0.261-1.63-0.3-2.475
					c2.976,0.849,6.088,0.026,8.732-1.565c0.114,1.118,0.175,2.253,0.104,3.31C259.081,431.079,256.306,431.139,253.292,430.571z"/>
			</g>
		</g>
		<g>
			<g>
				<path d="M181.253,427.205c-14.616-4.724-24.138-5.407-39.288-7.757c-11.501-1.784-23.884-3.248-35.318-0.278
					c0.655-1.718-0.324-4.064-1.489-6.109c-2.679-6.082-5.847-12.303-10.183-17.355c10.488,5.374,22.122,9.084,33.278,12.187
					c12.896,3.587,26.587,6.652,39.986,7.308c1.597,0.078,1.913-2.264,0.297-2.49c-14.211-1.99-28.153-4.006-41.987-7.997
					c-12.388-3.574-24.02-8.765-36.012-13.325c-1.512-1.069-3.425-1.773-5.139-0.642c-2.375,1.567-1.37,4.71-0.573,6.855
					c1.548,4.168,4.282,8.017,6.744,11.684c2.515,3.746,5.496,7.938,9.349,10.419c1.387,0.893,3.572,1.866,5.022,0.52
					c13.955-0.779,27.316-0.102,41.186,2.294c13.338,2.304,20.318,3.331,33.463,6.54
					C181.79,429.352,182.483,427.603,181.253,427.205z M91.169,405.152c-5.46-8.454-5.942-14.11-1.694-11.59
					c4.248,2.52,15.784,21.365,14.565,24.623C101.68,420.145,92.351,406.983,91.169,405.152z"/>
				<path d="M155.07,417.904c-6.643-1.949-13.78-2.561-20.651-3.206c-6.895-0.647-13.857-1.207-20.775-0.629
					c-0.136,0.011-0.143,0.189-0.008,0.211c6.821,1.115,13.744,1.508,20.603,2.336c6.853,0.827,13.713,2.285,20.6,2.711
					C155.662,419.377,155.859,418.135,155.07,417.904z"/>
				<path d="M134.024,410.67c-9.591-2.708-19.758-5.29-29.672-6.401c-0.29-0.033-0.451,0.401-0.151,0.513
					c9.37,3.479,19.566,5.694,29.353,7.662C134.561,412.646,135.034,410.955,134.024,410.67z"/>
				<path d="M252.532,430.395c-14.051,0.38-28.1-0.541-42.13-0.213c-0.827,0.019-0.977,1.192-0.119,1.307
					c13.852,1.854,28.294,1.416,42.234,1.039C253.884,432.491,253.909,430.357,252.532,430.395z"/>
				<path d="M384.582,405.743c0.421-2.235-0.363-5.346-2.532-6.171c-1.491-0.567-3.763,0.333-5.329,0.398
					c-3.139,0.13-7.65-0.521-8.493-4.23c2.926-5.554,16.249-25.991,3.108-27.242c-0.501-0.048-1.138,0.222-1.304,0.746
					c-2.938,9.315-7.083,19.389-16.774,23.372c-7.473,3.071-16.094,2.287-22.45,7.946c-2.622,2.335-4.538,5.285-6.858,7.893
					c-3.599,4.046-8.147,6.455-13.314,7.942c-10.047,2.891-18.884,1.09-29.207,1.491c-0.997,0.039-1.054,1.685-0.043,1.766
					c12.158,0.98,24.479,2.223,35.758-3.068c4.645-2.179,7.844-5.499,11.014-9.423c4.706-5.826,9.425-8.342,16.7-9.852
					c10.137-2.105,17.622-5.829,22.745-15.235c1.306-2.397,1.943-6.341,3.59-8.385c0.117-2.123,0.743-2.309,1.876-0.558
					c1.509,0.754,1.892,1.966,1.149,3.636c-0.24,1.787-0.841,3.536-1.382,5.242c-1.247,3.939-4.479,7.924-5.296,12.063
					c-0.039,0.026-0.076,0.06-0.104,0.115c-1.866,3.623,1.884,6.657,5.106,7.546c1.721,0.475,3.518,0.51,5.286,0.382
					c1.794-0.13,3.294-1.083,4.301,0.994c0.352,0.726,0.418,1.655,0.522,2.529c-5.058,3.463-11.5,1.468-16.693-0.856
					c-3.007-1.346-8.188-6.452-8.814-6.399c-4.405,0.376-9.373,2.6-12.627,5.613c-1.652,1.53-3.063,3.436-3.763,5.599
					c-0.994,3.075-0.262,6.223-2.864,8.675c-1.975,1.861-8.707,4.142-8.411,7.671c0.003,0.033,0.013,0.063,0.016,0.095
					c-0.022,0.091-0.016,0.19,0.042,0.289c0.003,0.005,0.007,0.01,0.01,0.015c0.323,1.54,1.689,2.483,3.251,2.989
					c3.188,1.601,7.454,1.423,10.886,1.214c6.864-0.419,13.357-2.472,19.357-5.747c1.844,4.757,3.167,10.871-2.31,13.197
					c-3.395,1.442-7.909,1.806-11.545,2.245c-8.135,0.983-16.369,0.813-24.503-0.088c-8.008-0.887-16.115-2.298-23.833-4.63
					c-6.935-2.096-12.017-5.324-18.326-8.792c-0.357-0.196-1.219,1.704-0.883,1.996c4.771,4.137,14.879,8.422,23.439,10.538
					c9.899,2.446,20.171,3.921,30.371,4.115c9.015,0.171,18.332-0.572,26.972-3.288c6.981-2.195,4.853-11.486,2.734-16.83
					c-0.234-0.589-0.728-0.789-1.208-0.729c-0.283-0.209-0.661-0.275-1.062-0.044c-4.732,2.722-9.773,4.664-15.175,5.558
					c-3.051,0.505-7.943,1.187-12.008,0.464c-3.706-1.903-4.343-3.611-1.893-5.122c1.011-0.751,2.063-1.441,3.154-2.068
					c0.768-0.506,1.578-0.943,2.3-1.52c1.467-1.173,2.517-2.463,2.964-4.32c1.186-4.923,0.723-7.836,5.304-11.074
					c2.912-2.058,6.343-2.666,9.453-4.194c1.931,1.433,3.308,3.484,5.25,4.93c2.36,1.757,5.268,2.744,8.069,3.557
					c4.891,1.42,9.746,1.825,13.961-1.435C384.801,406.849,384.824,406.214,384.582,405.743z"/>
				<path d="M366.87,372.144c-0.293-5.046-1.127-9.984-2.262-14.904c-0.12-0.519-0.882-0.342-0.801,0.176
					c1.287,8.256,2.55,17.691,0.469,25.871c-0.17,0.668,0.662,1.232,1.124,0.607C367.774,380.681,367.091,375.945,366.87,372.144z"
					/>
				<path d="M395.598,388.248c-4.861,0.685-9.538-0.155-13.581-2.936c6.48-6.79,7.855-19.789,7.968-28.06
					c0.01-0.762-1.114-0.959-1.209-0.158c-1.38,11.657-2.854,28.842-17.361,30.762c-1.072,0.142-1.03,1.931,0.086,1.927
					c3.794-0.014,6.818-1.252,9.234-3.274c4.436,3.078,9.755,4.228,15.028,2.725C396.299,389.081,396.175,388.166,395.598,388.248z"
					/>
				<path d="M389.758,424.713c-11.412-1.137-20.529-7.797-24.052-18.868c-0.397-1.248-2.382-0.832-2.011,0.457
					c3.368,11.718,13.762,19.837,26.072,19.348C390.382,425.626,390.347,424.772,389.758,424.713z"/>
				<path d="M361.549,338.343c-0.1-0.087-0.212-0.116-0.325-0.119c-0.382-0.182-0.887-0.106-1.162,0.395
					c-4.547,8.269-9.925,32.111,6.16,32.283c0.109,0.001,0.196-0.038,0.267-0.094c0.293,0.065,0.614-0.006,0.889-0.298
					C377.184,360.106,370.801,346.401,361.549,338.343z M365.898,368.973c-0.242,0.254-0.323,0.543-0.298,0.817
					c-13.155-3.887-7.713-20.482-4.178-29.815C368.785,347.699,374.561,359.871,365.898,368.973z"/>
				<path d="M390.874,340.885c-0.082-0.076-0.168-0.13-0.255-0.176c0.032-0.669-0.871-1.151-1.421-0.594
					c-8.484,8.59-17.858,29.49-3.832,37.843c0.451,0.268,1.046-0.104,1.094-0.536C402.735,372.232,401.937,351.054,390.874,340.885z
					 M386.061,376.759c-4.541-4.244-6.525-9.568-5.649-15.841c1.011-7.238,5.637-12.323,9.192-18.264
					C399.318,352.971,400.268,369.981,386.061,376.759z"/>
				<path d="M410.966,395.352c-2.572-10.641-17.811-19.141-24.986-7.475c-0.177,0.287-0.1,0.606,0.084,0.826
					c-0.564-0.155-1.296,0.469-1.094,1.154c1.244,4.203,4.26,8.251,8.545,9.677c4.848,1.614,13.131,0.428,16.915-3.085
					c0.134-0.125,0.156-0.282,0.117-0.426C410.832,395.956,411.056,395.723,410.966,395.352z M393.546,397.433
					c-3.65-1.513-5.364-5.069-7.042-8.357c-0.033-0.064-0.078-0.101-0.118-0.148c0.198,0.067,0.422,0.045,0.62-0.143
					c9.28-8.799,17.951-2.304,22.751,6.907c0.008,0.016,0.022,0.025,0.031,0.039C406.065,398.055,397.719,399.163,393.546,397.433z"
					/>
				<path d="M400.17,424.265c-5.664-6.158-18.743-11.795-26.053-5.448c-0.092-0.174-0.39-0.141-0.448,0.074
					c-1.615,5.95,2.061,11.69,7.765,13.777c7.232,2.647,15.692-0.936,19.727-7.26C401.602,424.716,400.818,424.113,400.17,424.265z
					 M384.146,431.441c-6.157-1.046-9.778-6.069-9.971-12.028c0.097,0.054,0.214,0.076,0.336,0.036
					c8.907-2.945,17.453-0.063,24.136,6.106C394.629,429.329,390.033,432.44,384.146,431.441z"/>
			</g>
			<g>
				<g>
					<path d="M422.937,145.202c6.34,20.078,1.843,41.004-6.58,59.75c-6.069,13.508-13.995,26.102-19.438,39.907
						c-5.905,14.977-9.473,32.5-1.398,47.401c3.864,7.131,9.305,13.521,13.79,20.276c5.117,7.706,9.93,15.679,13.558,24.207
						c3.822,8.984,6.51,18.934,5.037,28.753c-1.682,11.211-8.894,20.679-18.594,26.294c-1.67,0.966,0.072,3.411,1.734,2.449
						c15.352-8.886,22.578-25.69,19.449-42.965c-3.083-17.019-12.978-32.266-22.662-46.248
						c-5.551-8.015-11.848-15.486-13.501-25.398c-1.686-10.11,0.581-20.485,3.985-30.003c5.284-14.777,13.722-28.054,20.241-42.263
						c9.088-19.807,13.914-41.917,7.191-63.206C425.168,142.315,422.356,143.361,422.937,145.202L422.937,145.202z"/>
				</g>
				<g>
					<path d="M114.669,327.691c-7.759-6.005-14.916-12.976-21.511-20.218c-12.361-13.574-23.585-29.465-27.046-47.821
						c-2.676-14.19-3.794-30.803,9.453-39.946c8.748-6.038,24.116-8.615,26.473-20.739c1.312-6.749-0.798-14.334-2.375-20.852
						c-1.875-7.748-5.095-15.097-6.953-22.849c-3.918-16.347,2.065-32.905,14.817-43.804c9.065-7.747,20.077-13.229,31.011-17.794
						c15.681-6.547,32.171-11.166,48.84-14.384c49.935-9.639,101.814-6.794,150.864,6.222c1.869,0.496,2.397-2.459,0.542-2.951
						c-45.834-12.162-94.116-15.457-141.04-8.114c-29.928,4.684-62.465,13.029-87.425,31.038
						c-11.021,7.952-19.883,19.894-21.68,33.645c-2.197,16.809,7.336,32.68,10.023,48.933c1.211,7.324,1.15,13.824-5.316,18.516
						c-5.574,4.045-12.346,6.108-18.157,9.791c-11.147,7.063-14.394,18.43-13.657,31.155c1.952,33.696,25.372,62.473,51.209,82.469
						C114.265,331.169,116.2,328.876,114.669,327.691L114.669,327.691z"/>
				</g>
				<g>
					<g>
						<path d="M435.597,109.195c-0.28,21.429-13.807,40.872-34.156,47.994c-20.172,7.06-43.236,0.417-56.581-16.254
							c-13.181-16.465-14.794-39.977-3.954-58.083c11.079-18.505,33.278-28.095,54.354-23.64
							C418.83,64.194,435.286,85.375,435.597,109.195c0.025,1.931,3.014,1.66,2.989-0.262c-0.295-22.573-14.512-43.227-35.98-50.756
							c-21.224-7.444-45.44-0.727-59.713,16.677c-14.29,17.425-16.111,42.594-4.567,61.931
							c11.659,19.53,35.091,29.734,57.337,25.102c25.048-5.216,42.592-27.633,42.923-52.953
							C438.611,107.005,435.622,107.28,435.597,109.195z"/>
					</g>
					<g>
						<path d="M398.357,102.215c-5.857-1.409-18.494-4.905-18.707-12.861c-0.181-6.766,9.836-7.246,14.414-6.689
							c7.046,0.858,18.02,4.399,20.111,12.323C416.563,104.033,403.536,103.314,398.357,102.215
							c-1.893-0.402-2.429,2.551-0.542,2.951c6.075,1.289,15.719,2.009,18.886-4.902c2.696-5.884-2.216-11.915-6.809-15.046
							c-6.77-4.615-16.704-7.214-24.783-5.066c-4.909,1.305-9.367,5.208-8.271,10.718c1.761,8.854,13.549,12.509,20.977,14.296
							C399.696,105.619,400.228,102.665,398.357,102.215z"/>
					</g>
					<g>
						<path d="M385.045,117.227c-1.818-0.389-7.991-1.608-7.817-4.507c0.135-2.253,4.141-2.618,5.701-2.58
							c2.699,0.066,8.038,1.206,8.661,4.496C392.213,117.937,386.836,117.562,385.045,117.227c-1.901-0.355-2.441,2.597-0.542,2.951
							c3.279,0.612,7.915,0.512,9.625-2.973c1.518-3.095-0.683-6.215-3.282-7.825c-3.413-2.113-8.14-2.898-12.007-1.686
							c-2.464,0.772-4.931,2.814-4.566,5.653c0.573,4.463,6.657,6.065,10.23,6.831C386.395,120.584,386.93,117.631,385.045,117.227z
							"/>
					</g>
					<g>
						<path d="M411.161,122.675c-2.137-0.366-8.851-1.375-8.606-4.726c0.185-2.526,4.181-3.467,6.116-3.583
							c3.126-0.188,7.653,0.957,8.671,4.396C418.462,122.549,413.747,123.041,411.161,122.675c-1.909-0.27-2.456,2.681-0.542,2.951
							c3.536,0.5,8.017,0.008,9.498-3.808c1.3-3.35-0.875-6.815-3.679-8.569c-3.419-2.138-8.155-2.516-11.905-1.033
							c-2.579,1.02-5.272,3.299-4.96,6.358c0.5,4.898,7.197,6.392,11.046,7.052C412.523,125.953,413.065,123.002,411.161,122.675z"
							/>
					</g>
				</g>
			</g>
		</g>
	</g>
</g>
</svg>
