<?xml version="1.0" encoding="utf-8"?>
<!-- Generator: Adobe Illustrator 27.5.0, SVG Export Plug-In . SVG Version: 6.00 Build 0)  -->
<svg xmlns="http://www.w3.org/2000/svg" xmlns:xlink="http://www.w3.org/1999/xlink" viewBox="0 0 2500 2500" width="595" height="842" preserveAspectRatio="xMidYMid meet" data-scaled="true">
<path d="M1794.115,743.005c-45.497-11.912-89.091-26.528-133.086-39.789c-43.697-13.17-87.278-26.723-130.909-40.113
	c-46.497-14.269-92.983-28.573-139.506-42.757c-3.383-1.031-6.727-2.873-11.175-2.224c-0.282,2.039-0.741,3.903-0.763,5.771
	c-0.089,7.666-0.049,15.333-0.049,22.999c-0.009,246.997-0.003,493.994-0.039,740.992c-0.005,36.991-0.258,73.982-0.308,110.974
	c-0.038,28.642,0.098,57.284,0.086,85.926c-0.006,14.323-0.144,28.646-0.272,42.969c-0.055,6.219-2.214,8.513-8.239,8.826
	c-1.992,0.104-3.998-0.069-5.997-0.069c-21.333-0.008-42.666-0.007-63.999-0.008c-2.972,0-5.943,0-8.382,0
	c-3.587,3.486-3.002,7.301-3.271,10.872c-0.649,8.621-1.078,17.263-1.941,25.862c-0.914,9.111-6.552,14.465-15.717,14.946
	c-6.316,0.331-12.66,0.156-18.992,0.156c-58.333,0.009-116.665,0.003-174.998,0.02c-3.606,0.001-7.211,0.151-11.29,0.242
	c-1.879,6.713-0.596,13.043-0.917,19.231c-0.31,5.968-0.067,11.964-0.067,17.417c3.275,3.429,6.803,2.356,9.984,2.365
	c28.333,0.081,56.666,0.046,84.999,0.051c2.666,0,5.333,0.027,7.999,0.061c3.3,0.042,5.602,1.534,7.164,4.504
	c2.36,4.484,4.045,9.041,3.992,14.247c-0.077,7.661,0.151,15.327,0.349,22.988c0.05,1.944,0.478,3.879,0.813,6.428
	c3.188,0.199,6.097,0.554,9.004,0.533c20.653-0.146,41.282-0.327,61.946-1.313c38.952-1.858,75.45,7.7,108.512,28.583
	c50.483,31.887,81.123,77.565,90.226,136.504c16.274,105.373-54.056,201.659-155.578,221.14c-15.121,2.901-30.41,3.745-45.791,3.035
	c-5.325-0.246-10.657-0.47-15.986-0.471c-107.999-0.027-215.998-0.115-323.996,0.005c-123.647,0.137-247.294,0.447-370.941,0.745
	c-8.971,0.021-17.939,0.694-26.911,0.815c-12.633,0.17-25.27,0.122-37.905,0.14c-19.288,0.028-38.575,0.001-57.863,0.057
	c-18.971,0.054-37.932-0.245-56.857-1.635c-89.814-6.599-160.994-75.243-176.042-159.823
	c-16.198-91.042,33.898-183.51,123.243-217.128c26.249-9.877,53.411-13.49,81.474-11.821c14.596,0.868,29.292,0.099,43.942-0.031
	c6.301-0.056,12.6-0.53,18.899-0.532c39.993-0.014,79.987,0.024,119.98,0.103c15.59,0.031,31.179,0.254,46.768,0.286
	c2.272,0.005,4.545-0.57,6.352-0.813c2.264-2.383,1.589-4.808,1.612-7.041c0.075-7.333,0.009-14.666,0.04-22
	c0.01-2.331-0.025-4.683,0.267-6.987c0.782-6.172,3.095-10.049,11.026-10.029c21.987,0.053,43.975-0.372,65.963-0.513
	c13.997-0.09,27.996,0.008,41.993-0.032c1.934-0.005,3.867-0.318,6.294-0.533c1.016-12.685,0.801-24.88,0.582-37.62
	c-2.562-0.456-4.758-1.179-6.956-1.186c-27.989-0.097-55.979-0.088-83.969-0.113c-30.313-0.027-60.625-0.083-90.938-0.083
	c-17.304,0-34.608,0.163-51.911,0.112c-24.948-0.074-49.895-0.313-74.843-0.409c-15.628-0.061-31.257,0.032-46.886,0.018
	c-16.297-0.014-32.594-0.083-48.891-0.108c-21.298-0.034-42.597-0.057-63.895-0.07c-27.325-0.017-54.651-0.024-81.976-0.026
	c-29-0.002-57.999,0.011-86.999,0.006c-9.158-0.001-11.909-2.559-12.382-11.539c-0.105-1.995-0.031-3.999-0.031-5.999
	c-0.002-61.665,0.026-123.331-0.016-184.996c-0.027-39.991-0.174-79.983-0.233-119.974c-0.044-29.659-0.077-59.318-0.035-88.977
	c0.048-33.326,0.186-66.653,0.285-99.979c0.004-1.333-0.066-2.674,0.048-3.999c0.56-6.505,2.999-9.507,9.483-11.176
	c2.862-0.736,5.86-0.943,9.335-1.473c0.225-2.692,0.62-5.271,0.628-7.851c0.055-18.333,0.029-36.666,0.033-54.999
	c0-2.333-0.089-4.673,0.051-6.998c0.368-6.134,4.602-10.611,10.553-11.245c0.99-0.105,1.998-0.048,2.998-0.059
	c18.32-0.209,36.64-0.506,54.961-0.594c11.991-0.057,14.412,2.429,14.673,14.627c0.142,6.664,0.035,13.333,0.036,19.999
	c0.003,12.333-0.023,24.665,0.021,36.998c0.011,2.955,0.254,5.908,0.421,9.518c2.18,0.268,4.036,0.682,5.895,0.697
	c17.315,0.132,34.631,0.286,51.946,0.26c39.305-0.059,78.609-0.262,117.914-0.319c40.993-0.06,81.987-0.023,122.98-0.02
	c14.665,0.001,29.329,0.055,43.994,0.012c2.609-0.008,5.217-0.37,8.31-0.606c0.435-2.499,1.139-4.704,1.155-6.914
	c0.189-26.994,0.356-53.989,0.375-80.984c0.047-67.333,0.012-134.665,0.019-201.998c0.002-14.33-0.023-28.661,0.076-42.991
	c0.214-30.987,0.498-61.973,0.764-92.959c0.02-2.331-0.004-4.673,0.211-6.99c0.507-5.472,5.384-10.914,11.408-10.29
	c2.638,0.273,5.328,0.029,7.995,0.029c89.332-0.001,178.665,0.109,267.997-0.046c46.641-0.08,93.282-0.631,139.923-0.952
	c7.989-0.055,15.98,0.094,23.966-0.068c4.785-0.097,9.15,0.83,13.43,3.082c17.198,9.049,33.008,20.032,47.31,33.193
	c3.605,3.318,7.3,6.539,10.886,9.743c2.958-2.148,1.952-4.669,1.958-6.803c0.071-26.666,0.048-53.332,0.048-79.999
	c0-39,0.047-77.999-0.03-116.999c-0.022-10.995-0.312-21.992-0.639-32.983c-1.389-46.716,6.334-91.615,26.793-133.934
	c11.288-23.35,26.074-44.145,45.798-61.217c19.435-16.822,41.748-27.208,67.395-30.101c14.507-1.636,28.591,0.615,42.321,5.158
	c40.164,13.292,80.273,26.752,120.428,40.073c152.082,50.454,304.174,100.879,456.261,151.32c7.266,2.41,14.594,4.663,21.755,7.354
	c39.821,14.962,67.52,41.806,80.64,82.794c2.964,9.258,4.532,18.824,4.886,28.491c0.202,5.514,1.629,10.309,4.169,15.148
	c29.269,55.758,58.407,111.585,87.58,167.394c62.05,118.705,124.099,237.409,186.152,356.112c1.842,3.523,3.727,7.022,5.643,10.629
	c3.805,0.823,7.352,1.632,10.916,2.357c52.131,10.605,93.234,53.14,102.128,105.519c1.57,9.248,2.505,18.527,1.97,27.861
	c-0.303,5.273,1.131,9.635,3.804,14.078c16.042,26.66,28.798,54.838,38.215,84.501c16.64,52.413,23.077,106.023,18.139,160.842
	c-9.563,106.162-52.995,195.983-131.612,268.063c-57.81,53.004-125.943,85.893-203.683,96.771
	c-110.669,15.486-210.178-12.227-297.941-81.358c-37.842-29.808-68.703-65.963-93.318-107.31
	c-6.444-10.824-11.256-22.626-16.704-34.033c-1.432-2.997-0.567-5.92,2.058-7.998c1.025-0.811,2.284-1.338,3.469-1.93
	c1.132-0.566,2.306-1.048,3.785-1.713c-2.038-4.595-4.117-8.757-5.759-13.085c-4.518-11.908-7.193-24.257-7.8-36.981
	c-0.416-8.732-1.805-17.23-5.015-25.361c-5.495-13.917-6.954-28.381-6.19-43.182c0.509-9.854,3.854-18.895,8.19-27.573
	c2.973-5.952,6.392-11.685,9.717-17.455c3.244-5.627,4.931-11.598,4.704-18.125c-0.799-22.925,5.268-44.143,16.156-64.12
	c4.861-8.918,7.869-18.338,8.321-28.526c0.368-8.306,0.654-16.616,1.152-24.914c2.191-36.54,16.378-66.973,46.195-89.119
	c21.22-15.76,45.12-20.517,71.006-16.009c4.263,0.742,8.592,1.26,12.757,2.377c8.927,2.394,16.465-0.218,23.128-5.998
	c4.528-3.928,8.793-8.159,13.165-12.265c11.635-10.926,24.788-19.123,40.66-22.256c13.262-2.618,26.522-1.98,39.684,0.75
	c6.192,1.285,12.335,2.85,18.431,4.539c12.364,3.424,24.336,3.198,35.915-2.963c3.224-1.716,6.673-3.025,10.073-4.387
	c11.609-4.649,23.473-6.294,36.1-5.129c14.423,1.331,28.076,5.407,41.883,9.141c2.568,0.694,5.135,1.435,7.747,1.904
	c1.84,0.33,3.967-2.136,3.321-3.991c-0.86-2.472-1.997-4.895-3.338-7.146c-9.381-15.745-18.838-31.444-28.285-47.15
	c-87.434-145.353-174.871-290.705-262.312-436.054C1799.376,751.553,1796.747,747.31,1794.115,743.005z M2162.287,1415.571
	c-12.084,11.366-23.507,22.067-34.884,32.817c-93.024,87.902-186.037,175.815-279.057,263.72
	c-30.038,28.386-60.104,56.743-90.102,85.172c-2.325,2.204-5.569,3.815-6.254,9.086c1.431,1.106,3.679,2.591,5.637,4.392
	c81.828,75.305,177.964,110.019,289.144,101.565c54.015-4.107,104.49-20.221,151.538-46.909
	c107.564-61.018,184.865-174.522,195.278-311.593c2.891-38.061,0.448-75.929-7.608-113.346
	c-7.833-36.383-20.412-71.024-37.937-103.857c-1.361-2.551-3.058-4.922-5.319-8.525c-11.62,39.266-33.82,68.555-69.639,86.207
	C2236.801,1432.183,2199.86,1431.683,2162.287,1415.571z M1363.874,1621.147c0-4.17,0-7.474,0-10.778
	c0-21.666,0.023-43.333-0.004-64.999c-0.076-61.641-0.127-123.281-0.287-184.922c-0.046-17.638-0.531-35.274-0.632-52.912
	c-0.12-20.983-0.05-41.967-0.053-62.951c-0.005-37.992-0.005-75.984-0.005-113.975c-0.001-122.998-0.001-245.995-0.003-368.993
	c-0.001-37.666-0.078-75.332,0.009-112.998c0.087-37.62-0.366-75.243,1.215-112.855c0.671-15.966,0.414-31.973,0.42-47.962
	c0.002-4.987-0.168-10.022-0.85-14.954c-3.163-22.88-8.912-45.096-18.076-66.338c-9.996-23.169-23.168-44.257-41.444-61.897
	c-11.141-10.754-23.642-19.512-38.087-25.256c-16.441-6.538-33.357-8.804-50.964-5.805c-17.862,3.042-33.572,10.636-47.742,21.642
	c-18.481,14.354-32.308,32.577-43.423,52.977c-13.21,24.244-21.367,50.207-25.845,77.364c-2.77,16.8-4.337,33.725-3.877,50.77
	c0.485,17.973,1.556,35.936,1.724,53.909c0.307,32.655,0.162,65.314,0.155,97.972c-0.007,33.32,0.045,66.641-0.23,99.959
	c-0.047,5.768,1.719,9.913,5.606,14.129c11.728,12.722,23.117,25.766,34.393,38.894c16.759,19.511,31.09,40.768,44.331,62.778
	c22.585,37.542,39.575,77.729,55.545,118.363c11.716,29.812,19.817,60.778,28.053,91.674c7.211,27.047,12.464,54.519,17.47,82.045
	c7.813,42.956,12.928,86.248,15.653,129.793c1.289,20.593,1.644,41.268,1.713,61.909c0.103,30.652-0.36,61.307-0.725,91.959
	c-0.099,8.316-0.654,16.628-1.101,24.937c-0.803,14.945-1.852,29.878-2.486,44.83c-0.789,18.623-1.185,37.262-1.91,55.888
	c-0.284,7.31-1.294,14.598-1.411,21.905c-0.072,4.532-1.766,9.132-0.25,13.741c1.258,0.398,2.176,0.94,3.096,0.943
	c21.666,0.063,43.331,0.079,64.997,0.055C1360.117,1621.985,1361.382,1621.577,1363.874,1621.147z M865.879,792.103
	c0,2.91-0.01,4.555,0.002,6.201c0.234,32.624,0.519,65.248,0.689,97.872c0.113,21.629,0.073,43.259,0.081,64.888
	c0.031,82.961,0.056,165.923,0.077,248.884c0.007,26.985-0.028,53.969,0.026,80.954c0.005,2.555,0.515,5.109,0.848,8.2
	c10.149,0.818,19.767,0.308,29.356,0.463c9.991,0.162,19.984,0.18,29.976,0.201c9.656,0.021,19.311-0.026,28.967-0.057
	c9.653-0.032,19.306-0.102,28.96-0.119c9.981-0.018,19.963,0.006,29.944,0.015c9.645,0.009,19.29-0.011,28.935,0.043
	c9.648,0.054,19.296,0.203,28.944,0.278c9.983,0.078,19.965,0.15,29.948,0.164c9.654,0.013,19.308-0.074,28.962-0.078
	c9.987-0.004,19.974,0.028,29.961,0.062c9.661,0.033,19.322,0.106,28.983,0.129c9.663,0.023,19.326,0.005,28.989,0.005
	c9.996,0,20.003,0.295,29.985-0.082c9.554-0.361,19.093,2,28.753,0.499c0.25-1.4,0.628-2.35,0.552-3.262
	c-1.375-16.573-2.393-33.191-4.328-49.7c-2.285-19.491-5.388-38.886-8.111-58.327c-7.505-53.568-20.809-105.808-36.89-157.335
	c-10.827-34.693-25.637-67.876-41.035-100.759c-11.18-23.875-24.578-46.476-39.333-68.319
	c-14.584-21.588-31.432-41.325-48.694-60.74c-3.724-4.188-7.803-8.059-10.777-11.11c-19.68,0.254-37.961,0.571-56.244,0.704
	c-18.635,0.136-37.272,0.155-55.908,0.109c-18.305-0.045-36.618-0.631-54.913-0.255C904.022,792.01,885.431,790.983,865.879,792.103
	z M1378.944,603.226c3.451,1.143,6.551,2.235,9.689,3.2c26.42,8.124,52.847,16.222,79.271,24.332
	c98.371,30.19,196.748,60.365,295.107,90.595c11.494,3.533,23.159,6.288,35.072,7.754c36.911,4.543,70.219-3.995,98.662-28.514
	c33.495-28.876,46.219-73.704,32.366-114.144c-11.125-32.476-33.446-54.791-64.7-68.183c-12.53-5.369-25.42-9.985-38.364-14.288
	c-129.879-43.177-259.803-86.216-389.714-129.298c-36.349-12.054-72.682-24.156-109.061-36.12
	c-3.351-1.102-6.635-3.186-10.486-2.305c0.028,0.577-0.078,0.98,0.078,1.189c1.174,1.582,2.304,3.211,3.623,4.667
	c14.898,16.455,26.578,34.986,35.486,55.267c18.863,42.948,25.833,87.948,22.987,134.616c-0.365,5.982-0.844,11.967-0.91,17.955
	c-0.109,9.984-0.003,19.972,0.158,29.956C1378.331,587.525,1378.68,595.14,1378.944,603.226z M1938.871,1488.667
	c11.017-8.389,152.467-137.039,157.252-142.927c-2.212-9.017-5.034-17.938-6.465-27.077c-1.436-9.165-2.096-18.556-1.971-27.833
	c0.124-9.197,1.651-18.375,2.585-27.784c-7.822-2.002-15.167-4.02-22.582-5.74c-7.453-1.729-14.908-3.761-22.48-4.6
	c-15.137-1.677-29.841-0.54-43.232,8.187c-7.351,4.791-15.692,6.959-24.663,6.891c-7.065-0.054-13.856-1.156-20.707-2.734
	c-9.713-2.237-19.505-4.251-29.357-5.738c-22.371-3.377-41.277,3.938-57.206,19.583c-4.276,4.2-8.178,8.791-12.56,12.871
	c-9.099,8.471-19.812,11.848-32.202,9.555c-7.525-1.392-15.105-2.489-22.632-3.87c-11.454-2.101-22.551-0.697-33.37,3.278
	c-19.839,7.289-34.866,20.592-46.249,38.066c-14.08,21.614-17.88,45.647-15.094,70.853c1.174,10.617,0.016,20.568-4.949,30.029
	c-2.475,4.716-4.838,9.501-7.528,14.094c-7.195,12.284-11.108,25.633-12.81,39.635c-0.473,3.893-0.246,8.041,0.559,11.884
	c1.583,7.564,0.215,14.628-2.843,21.393c-1.767,3.91-4.332,7.47-6.648,11.119c-5.178,8.157-10.544,16.161-12.132,26.047
	c-2.55,15.869-0.954,31.262,5.5,45.926c3.432,7.797,5.038,15.684,5.26,24.155c0.404,15.441,3.804,30.337,9.841,44.571
	c1.137,2.681,2.887,5.101,4.643,8.141c4.56-0.991,8.747-1.782,12.872-2.818c23.045-5.786,43.295-16.495,60.97-32.649
	c54.119-49.463,108.571-98.561,162.912-147.782c2.208-2,4.589-3.808,6.661-5.518c-2.735-7.484-8.255-9.8-13.975-11.72
	c-6.937-2.328-9.293-1.545-13.741,4.101c-0.616,0.782-1.068,1.701-1.728,2.438c-2.78,3.1-5.133,3.654-8.87,1.972
	c-2.731-1.229-5.274-2.967-8.093-3.891c-6.871-2.25-12.911,1.543-14.029,8.613c-0.31,1.962-0.035,4.02-0.371,5.975
	c-0.818,4.751-3.654,6.813-8.426,6.292c-0.983-0.107-1.924-0.629-2.905-0.709c-4.768-0.393-8.587,1.833-10.256,6.2
	c-0.702,1.835-0.845,3.88-1.28,5.82c-0.363,1.614-0.583,3.299-1.219,4.804c-1.104,2.611-4.224,4.49-6.364,3.914
	c-2.405-0.647-4.025-2.264-4.787-4.66c-0.201-0.629-0.304-1.296-0.396-1.953c-1.839-13.133,8.418-25.034,18.482-25.567
	c1.614-0.086,3.207-0.571,4.904-0.889c2.906-7.691,5.551-15.191,13.721-18.99c7.997-3.719,15.527-1.258,22.861,1.013
	c1.177-0.979,1.945-1.603,2.697-2.246c10.948-9.343,19.707-6.679,27.578-2.232c2.297,1.298,4.401,2.999,6.414,4.724
	C1933.223,1483.251,1935.813,1485.818,1938.871,1488.667z M800.026,2150.12c144.654,0,289.308-0.001,433.963,0.007
	c4.331,0,8.709-0.291,12.985,0.223c16.106,1.934,31.997,0.212,47.666-3.12c93.012-19.781,156.568-108.406,141.569-204.136
	c-10.46-66.758-48.106-113.681-109.799-140.841c-20.535-9.041-42.17-14.732-65.112-12.125c-1.317,0.15-2.664,0.022-3.997,0.03
	c-103.967,0.619-207.934,0.096-311.905,0.714c-182.312,1.083-364.636,0.31-546.954,0.266c-5.981-0.001-11.965-0.466-17.941-0.832
	c-6.953-0.425-13.949-1.749-20.833-1.288c-9.27,0.62-18.593,1.957-27.647,4.05c-91.03,21.048-152.599,108.732-138.405,203.811
	c11.804,79.069,75.197,141.86,154.58,152.615c3.939,0.534,7.973,0.542,11.959,0.504c5.656-0.054,11.309-0.568,16.963-0.558
	c111.305,0.198,222.61,0.456,333.915,0.669C740.697,2150.167,770.361,2150.119,800.026,2150.12z M644.485,792.379
	c-0.177,10.169-0.482,19.448-0.472,28.727c0.028,25.958,0.293,51.915,0.266,77.873c-0.032,30.643-0.216,61.287-0.458,91.93
	c-0.068,8.633-0.76,17.261-0.828,25.894c-0.141,17.623-0.038,35.247-0.062,52.871c-0.038,27.323-0.121,54.645-0.109,81.968
	c0.001,2.542,0.55,5.083,0.864,7.794c2.978,0.311,5.265,0.616,7.561,0.771c1.992,0.135,4.018-0.078,5.99,0.172
	c5.955,0.756,8.296,4.035,7.948,10.265c-0.315,5.645-0.414,11.309-0.419,16.964c-0.029,32.322-0.047,64.643,0.057,96.965
	c0.016,4.922-0.72,9.981,1.535,15.452c3.134,0.058,6.42,0.191,9.704,0.169c14.983-0.101,29.965-0.267,44.948-0.369
	c19.314-0.132,38.628-0.193,57.941-0.384c2.188-0.022,4.369-0.687,7.005-1.13c0-167.75,0.002-334.935-0.031-502.12
	c0-1.253-0.462-2.505-0.701-3.719c-1.281-0.394-2.201-0.924-3.122-0.925c-44.316-0.063-88.632-0.086-132.948-0.069
	C647.886,791.477,646.62,791.952,644.485,792.379z M843.469,1669.885c-1.099-3.832-3.305-6.252-5.23-8.879
	c-9.844-13.432-19.816-26.776-29.371-40.412c-29.62-42.271-59.231-84.55-88.519-127.051c-13.6-19.735-26.815-39.759-39.511-60.085
	c-9.518-15.237-17.595-31.371-26.997-46.687c-3.711-6.045-4.914-11.999-4.875-18.821c0.36-61.948,0.57-123.897,0.773-185.846
	c0.006-1.869-0.538-3.74-0.805-5.478c-15.983-1.28-66.34-0.613-74.558,1.024c-0.214,1.413-0.606,2.989-0.669,4.578
	c-0.985,24.6-0.295,479.756,0.755,488.071c1.819,0.281,3.74,0.784,5.672,0.835c4.327,0.115,8.661,0,12.991-0.011
	c29.971-0.072,59.943-0.132,89.914-0.215c11.968-0.033,23.935-0.168,35.902-0.157c12.94,0.011,25.879,0.202,38.819,0.192
	c7.633-0.005,15.267-0.394,22.899-0.352c18.245,0.099,36.488,0.401,54.733,0.484
	C837.965,1671.088,840.539,1670.338,843.469,1669.885z M1280.181,1387.739c-3.697,0-7-0.064-10.299,0.013
	c-7.652,0.177-15.303,0.61-22.955,0.613c-123.625,0.04-247.251,0.028-370.876,0.029c-2.999,0-6.003-0.092-8.995,0.051
	c-1.889,0.09-3.761,0.537-5.967,0.873c-0.219,3.144-0.615,5.752-0.544,8.348c0.289,10.647,0.963,21.289,1.054,31.936
	c0.332,38.961,0.571,77.923,0.685,116.886c0.11,37.653-0.003,75.307,0.064,112.961c0.006,3.546-0.773,7.264,1.098,10.977
	c1.748,0.21,3.347,0.578,4.943,0.566c7.617-0.057,15.234-0.316,22.851-0.319c12.921-0.006,25.842,0.142,38.763,0.19
	c5.627,0.021,11.255,0.005,16.882-0.087c7.63-0.125,15.26-0.52,22.888-0.476c12.924,0.074,25.846,0.561,38.77,0.577
	c12.925,0.015,25.851-0.43,38.777-0.502c20.894-0.116,41.788-0.106,62.683-0.124c21.614-0.018,43.229-0.12,64.842,0.019
	c28.894,0.186,57.786,0.597,86.68,0.813c2.203,0.016,4.413-0.747,7.036-1.223c0.691-8.693,1.888-16.947,1.849-25.195
	c-0.038-8.143,3.175-16.344,0.031-25.042c-3.504-0.066-6.799-0.17-10.094-0.183c-24.283-0.095-48.567-0.087-72.849-0.284
	c-16.946-0.138-33.89-0.771-50.836-0.799c-61.979-0.1-123.958-0.022-185.937-0.072c-5.32-0.004-10.663-0.224-15.952-0.768
	c-5.898-0.606-10.503-5.092-11.424-10.873c-0.416-2.61-0.363-5.314-0.335-7.974c0.43-41.303-0.99-82.619,0.855-123.913
	c0.356-7.98,0.399-15.975,0.83-23.949c0.402-7.444,3.784-10.705,11.283-11.248c2.321-0.168,4.663-0.067,6.996-0.067
	c96.301,0,192.602-0.001,288.903,0.02c3.995,0.001,7.988,0.262,11.984,0.301c11.322,0.112,22.644,0.196,33.965,0.203
	c0.876,0,1.753-0.694,2.506-1.012C1281.736,1430.338,1281.758,1397.864,1280.181,1387.739z M1865.665,736.087
	c1.721,3.279,3.304,6.511,5.076,9.637c58.967,104.054,117.954,208.097,176.935,312.143c24.808,43.763,49.593,87.54,74.447,131.277
	c1.742,3.066,2.959,6.622,5.685,8.581c9.268-6.356,17.824-12.664,26.818-18.267c9.087-5.661,19.03-9.737,29.505-11.999
	c10.286-2.221,20.732-3.704,31.767-5.625c-1.639-3.422-2.959-6.405-4.466-9.29c-25.445-48.721-50.912-97.43-76.376-146.142
	c-51.545-98.605-103.092-197.209-154.636-295.814c-10.339-19.78-20.634-39.583-31.056-59.32c-0.94-1.781-1.226-4.768-3.809-4.297
	c-4.138,9.921-7.735,19.601-12.172,28.879c-4.326,9.044-10.411,17.045-17.142,24.498c-6.956,7.702-14.569,14.741-23.358,20.237
	C1884.216,726.005,1875.12,730.741,1865.665,736.087z M937.969,1456.085c0,3.938-0.05,6.565,0.008,9.188
	c0.578,26.271,1.314,52.54,1.715,78.814c0.264,17.312,0.021,34.632,0.091,51.948c0.01,2.546-0.737,5.41,2.539,7.869
	c1.968,0,4.611,0.003,7.255,0c40.927-0.058,81.855-0.062,122.782-0.208c13.948-0.05,27.894-0.638,41.842-0.676
	c43.29-0.117,86.58-0.086,129.87-0.115c7.659-0.005,15.319,0.05,22.976-0.077c1.869-0.031,3.729-0.67,6.123-1.131
	c2.334-47.207,4.653-93.973,6.929-140.742c0.079-1.617-0.269-3.256-0.404-4.721c-3.308-2.161-6.735-1.471-9.988-1.417
	c-14.967,0.249-29.931,0.942-44.896,0.957c-91.243,0.095-182.487,0.045-273.73,0.058
	C947.142,1455.833,943.203,1455.98,937.969,1456.085z M627.642,1158.365c1.873-3.026,1.162-6.438,1.142-9.689
	c-0.152-24.612-0.415-49.223-0.632-73.834c-0.334-37.97-0.83-75.939-0.945-113.91c-0.169-55.324-0.075-110.65-0.039-165.975
	c0.002-3.645,0.048-7.378,0.805-10.914c1.231-5.749,3.961-7.881,9.735-8.122c10.303-0.429,20.613-0.895,30.922-0.957
	c26.643-0.16,53.288-0.133,79.932-0.137c103.65-0.014,207.3-0.011,310.95-0.017c2.666,0,5.338,0.076,7.995-0.087
	c1.128-0.069,2.224-0.665,4.431-1.374c-4.128-3.981-7.363-7.208-10.712-10.313c-12.269-11.375-25.268-21.707-40.757-28.494
	c-4.629-2.028-9.298-3.236-14.462-3.243c-46.229-0.062-92.458-0.327-138.687-0.458c-23.216-0.066-46.432,0.094-69.648,0.011
	c-12.285-0.044-24.568-0.489-36.853-0.575c-14.997-0.106-29.995-0.025-44.993-0.025c-43.993,0-87.987-0.016-131.98,0.031
	c-3.574,0.004-7.269-0.586-11.134,0.981c-1.118,6.755-0.267,13.365-0.222,19.943c0.379,55.642,0.973,111.283,1.117,166.925
	c0.195,75.321,0.049,150.643,0.05,225.965c0,3-0.082,6.003,0.049,8.997c0.083,1.893,0.491,3.771,0.726,5.463
	C584.83,1160.106,620.045,1159.916,627.642,1158.365z M2102.052,1359.28c-3.408,1.742-6.07,4.76-8.98,7.396
	c-58.755,53.217-117.48,106.468-176.21,159.712c-51.081,46.309-102.243,92.529-153.191,138.984
	c-13.775,12.56-29.284,21.961-46.883,27.724c-10.73,3.514-21.812,5.952-32.712,8.96c-1.453,0.401-2.765,1.315-4.69,2.259
	c8.003,17.951,17.74,34.124,28.738,49.584c13.834,19.446,26.506,34.223,34.514,40.111c0.954-0.686,2.1-1.327,3.026-2.202
	c134.134-126.718,268.253-253.452,402.345-380.214c0.676-0.639,0.975-1.677,1.224-2.123c-8.664-7.582-17.787-14.423-25.476-22.612
	C2115.88,1378.469,2109.408,1368.759,2102.052,1359.28z M398.368,1177.349c-1.842,3.362-1.312,6.749-1.258,10.007
	c0.166,9.979,0.714,19.955,0.728,29.933c0.091,64.624,0.126,129.248,0.091,193.872c-0.043,78.587-0.161,157.173-0.288,235.76
	c-0.01,5.989-0.451,11.977-0.474,17.967c-0.007,1.845,0.709,3.693,1.049,5.322c10.568,1.536,43.928,1.327,51.7-0.335
	c0.18-2.449,0.527-5.048,0.539-7.65c0.329-71.223,0.581-142.445,0.943-213.668c0.181-35.634,0.553-71.266,0.841-106.9
	c0.011-1.332,0.034-2.664,0.056-3.996c0.054-3.215,1.596-5.6,3.902-7.76c3.702-3.467,8.088-4.158,12.921-4.112
	c27.305,0.261,54.611,0.413,81.916,0.562c0.959,0.005,1.921-0.412,3.161-0.697c0.34-1.206,0.942-2.439,0.998-3.696
	c0.3-6.648,0.625-13.303,0.641-19.956c0.039-16.298-0.093-32.597-0.146-48.896c-0.075-23.293-0.115-46.586-0.255-69.879
	c-0.013-2.175-0.637-4.346-1.006-6.704c-51.21,0-101.769-0.006-152.327,0.035C400.836,1176.561,399.573,1177.083,398.368,1177.349z
	 M665.687,1370.136c3.996,1.984,8.323,0.994,12.563,0.848c4.987-0.172,9.975-0.63,14.957-0.567
	c13.293,0.17,26.583,0.796,39.875,0.811c72.618,0.085,145.237,0.294,217.854-0.031c72.923-0.326,145.853,1.29,218.773-0.932
	c18.956-0.578,37.945-0.108,56.919-0.069c2.988,0.006,5.974,0.319,8.963,0.428c5.978,0.218,12.01,0.971,17.92,0.421
	c5.761-0.536,11.193-0.231,16.716,1.363c3.451,0.996,7.106,1.618,11.065-0.986c0.028-6.176,0.191-12.46,0.045-18.737
	c-0.139-5.98-0.422-11.969-0.973-17.924c-0.567-6.138,1.123-12.514-1.619-18.959c-3.528,0-6.836-0.035-10.143,0.006
	c-17.973,0.22-35.946,0.652-53.919,0.661c-122.918,0.059-245.835,0.031-368.753,0.031c-56.296,0-112.591-0.006-168.887,0.015
	c-3.597,0.001-7.194,0.219-10.612,0.331C665.05,1323.211,664.624,1358.354,665.687,1370.136z M2210.364,1414.016
	c23.396-0.137,39.856-3.694,55.41-11.178c72.559-34.916,90.107-130.276,35.337-189.137c-43.036-46.251-113.167-49.593-160.205-8.139
	c-40.856,36.005-52.527,95.603-27.31,143.958C2135.157,1390.864,2170.141,1411.737,2210.364,1414.016z M851.186,1298.181
	c0-5.099-0.018-9.707,0.003-14.315c0.068-14.597,0.176-29.195,0.218-43.792c0.022-7.642-0.133-15.286-0.076-22.927
	c0.052-6.972,0.43-13.944,0.401-20.915c-0.057-13.945-0.432-27.891-0.416-41.835c0.016-14.296,0.441-28.59,0.508-42.886
	c0.099-21.295,0.044-42.591,0.051-63.887c0.012-39.297-0.034-78.594,0.05-117.891c0.08-37.612,0.288-75.225,0.456-112.837
	c0.028-6.32,0.227-12.641,0.165-18.959c-0.018-1.854-0.666-3.702-1.111-5.997c-6.122-0.111-11.735-0.235-17.348-0.308
	c-5.325-0.069-10.653-0.18-15.976-0.095c-5.513,0.088-11.149-1.037-17.189,1.059c0,15.638,0.002,30.909,0,46.181
	c-0.002,15.317-0.096,30.634,0.014,45.95c0.11,15.287,0.52,30.571,0.617,45.858c0.098,15.268-0.039,30.538-0.053,45.807
	c-0.014,15.265,0.068,30.53-0.023,45.794c-0.094,15.643-0.412,31.285-0.512,46.929c-0.097,15.313-0.069,30.627-0.046,45.941
	c0.023,15.315,0.15,30.63,0.153,45.944c0.003,15.317-0.105,30.634-0.139,45.952c-0.034,15.32-0.109,30.64-0.032,45.959
	c0.077,15.203-0.481,30.42,0.084,45.49C810.783,1299.979,842.19,1299.895,851.186,1298.181z M555.818,1670.334
	c0-14.472,0.074-28.091-0.02-41.709c-0.108-15.627-0.521-31.253-0.515-46.88c0.007-16.958,0.45-33.915,0.507-50.873
	c0.053-15.959-0.232-31.919-0.215-47.879c0.018-16.638,0.339-33.276,0.305-49.914c-0.034-16.964-0.379-33.927-0.509-50.891
	c-0.082-10.639,0.027-21.28-0.051-31.92c-0.019-2.599-0.44-5.195-0.699-8.046c-1.992-0.336-3.581-0.834-5.171-0.837
	c-25.983-0.043-51.966-0.042-77.948,0.027c-1.534,0.004-3.066,0.662-4.922,1.091c-0.124,2.788-0.355,5.066-0.307,7.339
	c0.33,15.312,0.951,30.621,1.04,45.934c0.181,31.309,0.025,62.621,0.125,93.931c0.088,27.614,0.394,55.227,0.497,82.84
	c0.113,30.306,0.09,60.612,0.173,90.917c0.006,2.23,0.392,4.458,0.594,6.61c1.47,0.449,2.403,0.981,3.338,0.983
	c26.315,0.061,52.63,0.078,78.945,0.058C552.263,1671.114,553.541,1670.715,555.818,1670.334z M670.775,1389.065
	c-0.817,2.271,0.887,3.788,1.849,5.37c7.086,11.659,13.944,23.479,21.547,34.797c18.74,27.901,37.666,55.681,56.846,83.281
	c18.423,26.51,37.234,52.752,55.925,79.076c11.558,16.278,23.199,32.499,34.852,48.71c0.644,0.896,1.74,1.468,3.615,2.998
	c0.175-3.547,0.374-5.779,0.382-8.011c0.218-60.256,0.409-120.512,0.624-180.768c0.042-11.648,0.062-23.298,0.274-34.943
	c0.152-8.304,0.685-16.601,0.873-24.905c0.042-1.857-0.646-3.731-0.964-5.412C838.204,1388.172,678.923,1388.064,670.775,1389.065z
	 M117.941,1380.142c5.295,0,9.239,0.078,13.18-0.02c4.985-0.123,9.966-0.563,14.95-0.568c58.934-0.053,117.868-0.049,176.802-0.062
	c2.331,0,4.676,0.142,6.988-0.069c1.879-0.172,3.718-0.774,5.623-1.196c0.2-2.113,0.497-3.757,0.491-5.4
	c-0.108-30.953-0.238-61.906-0.441-92.859c-0.008-1.203-0.779-2.401-1.356-4.065c-64.73,0-129.265-0.008-193.8,0.012
	c-6.649,0.002-13.297,0.17-19.945,0.28c-0.308,0.005-0.644,0.146-0.91,0.315c-0.274,0.174-0.479,0.458-1.622,1.607
	C117.768,1311.028,117.745,1344.855,117.941,1380.142z M118.711,1493.81c7.849,1.082,192.525,1.798,211.266,0.847
	c1.578-0.08,3.135-0.554,5.321-0.96c0.7-8.236,0.292-16.182,0.36-24.102c0.072-8.328,0.011-16.656,0.021-24.985
	c0.009-7.994,0.179-15.992,0.014-23.982c-0.17-8.207,1.101-16.487-0.602-24.782c-4.22-1.622-8.247-1.049-12.175-1.051
	c-61.296-0.036-122.592-0.011-183.888-0.055c-4.983-0.004-9.964-0.508-14.95-0.583c-1.862-0.028-3.732,0.507-5.441,0.762
	C117.509,1404.482,117.55,1485.535,118.711,1493.81z M334.693,1512.393c-3.501-1.923-7.227-1.127-10.793-1.13
	c-64.28-0.045-128.56-0.021-192.84-0.011c-2.331,0-4.671-0.099-6.992,0.064c-1.875,0.132-3.728,0.59-6.036,0.978
	c-0.164,6.169-0.646,11.791-0.37,17.375c0.285,5.771-1.744,11.813,1.344,17.635c2.912,0.133,5.542,0.428,8.16,0.342
	c8.965-0.293,17.923-0.97,26.888-1.043c20.315-0.165,40.633-0.061,60.949-0.055c2.33,0.001,4.688-0.141,6.986,0.151
	c5.93,0.754,10.357,5.112,10.767,11.163c0.584,8.617,0.928,17.265,0.975,25.902c0.14,25.978,0.065,51.957,0.136,77.935
	c0.008,2.867,0.414,5.734,0.621,8.412c8.098,1.276,76.926,1.977,95.484,1.031c1.595-0.081,3.169-0.576,4.703-0.869
	c0.373-1.332,0.859-2.258,0.86-3.185c0.032-50.623,0.028-101.245-0.017-151.868C335.517,1514.29,334.988,1513.36,334.693,1512.393z
	 M116.928,1176.373c0,3.843-0.045,6.487,0.007,9.13c0.291,14.638,0.66,29.275,0.89,43.914c0.126,7.993-0.037,15.99,0.088,23.983
	c0.029,1.845,0.704,3.679,1.202,6.105c70.753,0,140.997,0.003,211.241-0.021c1.599-0.001,3.198-0.315,5.33-0.539
	c1.565-25.246,2.004-50.095,1.825-74.962c-0.016-2.241-0.452-4.478-0.732-7.079c-2.376-0.357-4.283-0.879-6.194-0.892
	c-10.98-0.073-21.961-0.032-32.941-0.017c-28.953,0.04-57.906,0.138-86.858,0.114c-27.977-0.023-55.953-0.182-83.93-0.238
	C123.934,1175.865,121.011,1176.158,116.928,1176.373z M1809.932,744.575c2.476,4.294,4.076,7.176,5.774,10
	c66.072,109.878,132.152,219.751,198.231,329.624c28.148,46.803,56.286,93.611,84.476,140.389c1.271,2.11,2.067,4.811,5.038,5.788
	c5.01-7.311,9.879-14.414,14.671-21.406c-3.158-7.709-259.446-460.106-265.758-469.046c-6.545,1.034-13.359,2.358-20.234,3.126
	C1825.269,743.816,1818.347,744.023,1809.932,744.575z M1162.494,1743.7c-2.429-0.216-5.017-0.625-7.608-0.651
	c-36.307-0.355-72.615-0.898-108.923-0.929c-130.994-0.11-261.988-0.044-392.982-0.043c-3,0-6.009-0.127-8.996,0.065
	c-1.871,0.121-3.71,0.73-6.009,1.213c0.797,10.618-0.181,20.818,0.397,31.144c3.99,0.246,7.292,0.628,10.594,0.625
	c19.236-0.018,38.472-0.272,57.706-0.169c25.607,0.138,51.212,0.743,76.819,0.774c91.329,0.11,182.658,0.061,273.987,0.08
	c4.665,0.001,9.331,0.099,13.996,0.126c28.656,0.168,57.311,0.349,85.967,0.45c1.86,0.007,3.723-0.613,5.373-0.904
	C1164.175,1765.013,1164.04,1751.53,1162.494,1743.7z M351.083,1176.734c-1.118,5.456-0.737,10.098-0.594,14.696
	c0.217,6.985,0.875,13.961,0.931,20.945c0.322,39.971,0.583,79.942,0.751,119.914c0.331,78.638,0.587,157.275,0.87,235.913
	c0.007,1.999-0.05,3.999-0.067,5.998c-0.122,14.306-0.299,28.612-0.341,42.918c-0.027,9.321,0.114,18.643,0.237,27.963
	c0.109,8.283,0.298,16.564,0.449,24.68c8.086,1.958,19.545,1.93,27.256-0.009c1.213-3.374,0.696-7.036,0.591-10.641
	c-0.097-3.328-0.526-6.649-0.551-9.975c-0.156-20.31-0.326-40.62-0.332-60.93c-0.035-112.982-0.031-225.965-0.02-338.947
	c0.001-9.331,0.092-18.662,0.255-27.992c0.209-11.975,0.591-23.947,0.768-35.922c0.043-2.92,0.695-6.046-1.993-9.252
	c-5.427,0-11.387-0.065-17.345,0.026C358.645,1176.171,355.348,1176.483,351.083,1176.734z M116.951,1670.539
	c3.917,0.285,6.511,0.612,9.108,0.636c7.987,0.072,15.974,0.028,23.962,0.027c20.301,0,40.602,0.033,60.903-0.042
	c2.855-0.01,6.048,0.851,8.841-2.593c0-5.345-0.037-11.317,0.006-17.289c0.198-27.277,0.436-54.553,0.6-81.83
	c0.015-2.568,0.669-5.369-2.373-8.208c-15.84,0-32.464-0.369-49.063,0.103c-16.868,0.48-33.708-2.544-50.543-0.645
	c-0.535,1.319-1.21,2.214-1.219,3.117C116.815,1599.029,116.702,1634.244,116.951,1670.539z M764.078,1701.184
	c4.083,1.419,8.097,0.812,12.027,0.814c80.29,0.039,160.58,0.059,240.87-0.011c9.31-0.008,18.62-0.538,27.926-0.917
	c1.26-0.051,2.499-0.634,3.792-0.983c1.075-3.814,1.291-7.296,0.083-10.203c-0.883-0.698-1.125-1.052-1.406-1.085
	c-1.649-0.192-3.306-0.434-4.96-0.433c-92.272,0.059-184.545,0.14-276.817,0.233c-0.305,0-0.633,0.158-0.909,0.314
	c-0.286,0.161-0.523,0.409-1.118,0.893C762.262,1693.444,763.254,1697.256,764.078,1701.184z M1048.807,1715.973
	c-1.235-0.482-2.139-1.143-3.043-1.144c-92.531-0.076-185.062-0.105-277.592-0.096c-1.272,0-2.543,0.523-4.197,0.885
	c-0.7,3.688-1.348,7.205,0.161,10.696c0.375,0.243,0.631,0.474,0.932,0.589c0.607,0.234,1.228,0.531,1.86,0.579
	c1.657,0.124,3.323,0.175,4.985,0.173c91.528-0.081,183.057-0.171,274.585-0.27c0.317,0,0.664-0.104,0.943-0.256
	c0.284-0.155,0.502-0.432,1.288-1.143c0.14-1.038,0.517-2.625,0.527-4.215C1049.267,1719.832,1048.969,1717.892,1048.807,1715.973z
	 M189.372,1092.109c-18.827,0.535-36.285-2.229-54.137-0.071c-0.317,2-0.783,3.581-0.786,5.163
	c-0.042,19.255-0.042,38.511,0.039,57.766c0.007,1.55,0.687,3.096,1.156,5.071c17.506,0.453,34.689,0.195,52.514-0.461
	c2.665-13.006,0.492-25.929,1.432-38.686C190.266,1111.719,190.219,1102.473,189.372,1092.109z M2330.436,1450.159
	c-0.973,0.891-1.985,1.869-2.59,3.012c-3.574,6.757-7.793,13.302-10.354,20.435c-3.813,10.621-7.012,21.545-9.404,32.572
	c-2.889,13.319-4.785,26.861-6.892,40.341c-3.862,24.708-6.311,49.537-5.586,74.593c0.366,12.657,1.099,25.27,4.254,37.622
	c1.417,5.55,3.429,10.856,6.832,15.441c5.726,7.714,14.864,8.104,21.462,1.122c3.724-3.94,6.059-8.678,7.979-13.716
	c5.115-13.42,8.666-27.28,11.833-41.246c4.644-20.476,7.545-41.245,10.24-62.047c2.792-21.555,2.05-43.218,2.036-64.858
	c-0.001-1.946-0.401-4-1.112-5.809c-0.908-2.311-2.792-3.676-5.47-3.525c-2.377,0.134-4.553,1.732-5.041,4.114
	c-0.396,1.935-0.497,3.957-0.507,5.941c-0.101,21.984-1.541,43.882-4.193,65.7c-3.337,27.457-7.944,54.679-15.876,81.23
	c-1.993,6.673-4.602,13.167-7.085,19.683c-0.558,1.463-1.515,3.035-4.163,2.588c-0.75-1.832-1.789-3.869-2.433-6.024
	c-3.473-11.618-3.712-23.648-4.035-35.608c-0.785-29.043,2.044-57.865,6.247-86.549c3.234-22.072,6.769-44.096,14.093-65.319
	c2.061-5.971,3.387-12.175,8.693-16.052C2336.7,1448.24,2333.728,1447.142,2330.436,1450.159z M2035.552,1862.047
	c24.015-1.02,47.469-5.795,70.893-10.714c3.624-0.761,6.9-2.448,9.442-5.263c2.151-2.382,1.07-6.396-1.996-7.279
	c-3.928-1.131-7.84-0.818-11.819,0.069c-20.451,4.564-41.041,8.018-61.991,9.677c-24.926,1.975-49.741,2.057-74.655-0.074
	c-28-2.395-55.261-7.961-81.735-17.306c-16.961-5.987-33.681-12.557-48.334-23.365c-0.796-0.587-1.692-1.412-2.56-1.435
	c-1.191-0.031-2.738,0.264-3.505,1.039c-0.767,0.776-1.439,2.817-0.981,3.437c2.34,3.163,4.63,6.636,7.739,8.898
	c5.627,4.094,11.566,7.939,17.825,10.951c24.385,11.733,49.878,20.368,76.438,25.621c24.528,4.852,49.328,7.065,74.361,7.013
	C2014.968,1862.895,2025.26,1862.484,2035.552,1862.047z M2290.805,1695.877c-5.68-0.457-10.236,2.372-14.793,5.15
	c-18.139,11.061-33.197,25.486-45.713,42.542c-4.312,5.875-8.037,12.211-11.672,18.541c-2.656,4.626-4.425,9.694-4.715,15.119
	c-0.446,8.329,3.924,13.568,12.14,13.781c3.903,0.101,8.1-0.384,11.697-1.794c5.212-2.043,10.315-4.714,14.909-7.913
	c12.709-8.85,22.658-20.447,31.376-33.141c0.748-1.089,1.463-2.235,1.973-3.447c1.139-2.704,0.459-5.763-1.473-7.284
	c-1.869-1.472-5.251-1.302-7.344,0.664c-1.435,1.348-2.481,3.098-3.797,4.584c-6.603,7.46-12.94,15.187-19.95,22.244
	c-6.115,6.156-13.305,11.06-21.962,13.212c-1.465,0.364-3.042,0.277-5.109,0.442c1.122-7.904,4.513-13.935,8.392-19.696
	c11.202-16.637,24.425-31.509,39.69-44.52c6.293-5.363,12.605-10.809,21.392-12.379
	C2295.983,1697.147,2293.745,1696.113,2290.805,1695.877z M1304.972,465.179c-0.274,24.462-6.843,44.957-22.009,62.281
	c-10.17,11.617-22.702,19.521-37.953,22.493c-21.845,4.257-40.865-1.965-57.165-16.671c-12.45-11.232-20.386-25.318-24.523-41.53
	c-6.569-25.745-3.37-50.165,10.172-73.115c4.788-8.114,10.937-15.072,18.33-20.91c24.747-19.542,57.54-19.415,81.98,0.506
	c17.352,14.144,26.617,32.888,30.071,54.705C1304.603,457.527,1304.718,462.212,1304.972,465.179z M1291.956,467.243
	c-0.661-20.439-6.546-38.717-21.064-53.538c-21.981-22.44-54.632-22.692-76.451-0.197c-19.421,20.023-24.356,44.405-19.246,71.127
	c2.748,14.37,9.416,26.917,20.025,37.198c21.679,21.009,52.705,21.139,74.364,0.186
	C1285.068,507.039,1291.295,488.22,1291.956,467.243z M1322.426,650.144c-3.902,3.738-7.075,8.082-8.658,13.263
	c-2.72,8.902-5.617,17.799-7.532,26.889c-3.999,18.987-4.359,38.337-4.438,57.657c-0.039,9.657,0.041,19.338,0.673,28.968
	c0.87,13.273,2.287,26.51,3.518,39.758c1.174,12.625,3.81,25.001,6.615,37.335c0.659,2.896,1.765,5.77,3.148,8.399
	c1.215,2.309,2.849,4.542,4.759,6.31c3.255,3.014,7.455,2.871,10.857,0.03c3.445-2.877,5.442-6.747,6.76-10.901
	c1.409-4.44,2.824-8.939,3.561-13.52c4.601-28.611,7.986-57.349,8.136-86.383c0.035-6.666,0.316-13.349-0.063-19.993
	c-0.682-11.954-1.66-23.895-2.793-35.815c-0.241-2.539-1.367-5.143-2.677-7.369c-0.696-1.182-2.61-2.125-4.065-2.271
	c-2.229-0.224-3.782,1.553-4.201,3.55c-0.464,2.206-0.382,4.568-0.261,6.848c0.778,14.618,1.982,29.222,2.384,43.85
	c0.715,26.024-2.188,51.85-5.391,77.617c-1.065,8.571-2.958,17.041-4.578,25.537c-0.214,1.12-0.249,2.751-3.364,2.822
	c-0.95-4.388-2.558-8.895-3.061-13.781c-0.716-6.951-1.357-13.919-2.369-20.83c-3.238-22.112-3.965-44.409-4.764-66.68
	c-0.357-9.954,0.869-19.955,0.915-29.937c0.073-15.78,3.12-31.111,6.577-46.367c1.757-7.756,3.897-15.505,8.932-21.754
	C1328.267,647.411,1326.095,646.628,1322.426,650.144z M1326.27,1007.976c-0.972-10.254-1.555-20.544-2.313-30.818
	c-1.135-15.372,0.25-30.552,3.279-45.632c1.044-5.198,1.275-10.571,7.077-13.396c1.805-0.879,1.417-3.549-0.15-5.232
	c-2.757-2.962-5.793-3.334-8.858-1.041c-3.024,2.263-4.822,5.393-6.407,8.757c-4.485,9.517-5.758,19.73-6.885,30.009
	c-1.568,14.305-0.65,28.616,0.242,42.875c0.558,8.923,2.357,17.789,3.934,26.621c0.881,4.934,2.834,9.606,5.957,13.612
	c3.939,5.053,10.356,5.4,14.733,0.75c1.571-1.669,3.043-3.651,3.865-5.761c1.923-4.938,3.86-9.944,4.992-15.098
	c1.565-7.128,2.778-14.382,3.453-21.646c1.106-11.912,1.771-23.871,2.352-35.823c0.124-2.541-0.66-5.221-1.481-7.685
	c-0.836-2.509-3.119-3.334-5.633-3.178c-2.328,0.145-4.318,1.94-4.666,4.467c-0.361,2.622-0.398,5.296-0.473,7.95
	c-0.468,16.644-1.754,33.211-4.859,49.59c-0.734,3.875-1.937,7.662-3.453,13.54
	C1327.017,1015.779,1326.629,1011.766,1326.27,1007.976z M1346.153,1419.047c0-4.662,0.033-9.324-0.005-13.986
	c-0.21-25.637-0.314-51.275-0.75-76.908c-0.101-5.933-1.239-11.864-2.195-17.748c-0.145-0.89-1.867-2.045-2.925-2.118
	c-1.042-0.072-2.6,0.819-3.155,1.75c-0.807,1.353-0.978,3.109-1.315,4.714c-2.34,11.146-2.452,22.521-2.582,33.79
	c-0.599,52.269-0.781,104.542-1.095,156.814c-0.016,2.661-0.188,5.385,0.303,7.968c0.42,2.208,1.389,4.457,2.653,6.323
	c1.81,2.672,5.457,2.641,7.914,0.431c3.081-2.772,3.136-6.401,3.135-10.109c-0.013-30.307-0.007-60.614-0.007-90.921
	C1346.137,1419.047,1346.145,1419.047,1346.153,1419.047z M1131.93,631.476c0.299,19.956,0.585,39.912,0.918,59.867
	c0.039,2.324,0.273,4.651,0.545,6.962c0.154,1.308,0.391,2.662,0.903,3.862c0.996,2.33,2.816,3.601,5.454,3.581
	c2.25-0.018,3.923-1.181,4.765-3.043c0.794-1.755,1.38-3.794,1.356-5.698c-0.12-9.313-0.445-18.624-0.752-27.933
	c-0.525-15.946-1.083-31.892-1.639-47.837c-0.51-14.615-1.038-29.228-1.554-43.843c-0.082-2.328,0.072-4.687-0.264-6.976
	c-0.481-3.266-1.166-6.522-2.054-9.701c-0.496-1.777-4.192-2.137-4.987-0.452c-1.1,2.334-2.184,4.879-2.372,7.401
	c-0.543,7.29-0.801,14.611-0.866,21.923c-0.124,13.96-0.036,27.922-0.036,41.884C1131.541,631.473,1131.736,631.474,1131.93,631.476
	z M1331.655,1571.899c0,4.626-0.24,9.269,0.081,13.873c0.229,3.275,3.048,5.839,5.663,5.993c2.468,0.146,5.401-2.348,6.342-5.429
	c0.192-0.627,0.374-1.286,0.386-1.933c0.155-8.294-0.381-16.517-2.809-24.511c-0.282-0.928-0.706-2.03-1.426-2.559
	c-1.244-0.914-2.746-1.941-4.187-2.017c-2.216-0.116-3.788,1.63-3.919,3.707c-0.268,4.277-0.081,8.582-0.081,12.875
	C1331.689,1571.899,1331.672,1571.899,1331.655,1571.899z M1171.995,1086.356c-8.703-12.708-15-26.68-20.854-40.833
	c-11.586-28.015-21.579-56.611-29.758-85.8c-4.396-15.689-7.729-31.627-9.731-47.865c-1.269-10.29-1.627-20.564-1.79-30.878
	c-0.083-5.279,0.048-10.56,0.084-16.017c2.185-0.577,3.832-0.796,5.28-1.452c1.629-0.739,2.593-2.245,1.89-4.059
	c-2.421-6.245-9.34-7.645-13.478-2.716c-3.312,3.944-4.627,8.777-5.639,13.705c-2.372,11.55-1.792,23.205-0.792,34.797
	c1.26,14.605,3.934,29.023,7.398,43.261c8.671,35.639,19.949,70.449,34.017,104.326c5.107,12.298,10.822,24.339,17.873,35.68
	c4.058,6.528,8.534,12.787,14.451,17.757c9.394,7.89,20.019,4.181,22.564-7.874c0.75-3.554,0.906-7.279,0.942-10.929
	c0.116-11.678-1.081-23.256-3.068-34.757c-6.127-35.463-14.305-70.411-25.508-104.652c-6.227-19.033-14.072-37.369-22.421-55.52
	c-0.827-1.798-1.819-3.576-3.033-5.129c-1.701-2.176-4.941-2.694-7.213-1.454c-2.458,1.342-3.995,4.114-3.313,6.65
	c0.511,1.902,1.459,3.693,2.279,5.503c6.597,14.558,12.721,29.298,17.851,44.453c12.089,35.718,20.68,72.311,27.212,109.391
	c2.36,13.399,4.515,26.928,2.424,41.738C1175.27,1092.065,1173.792,1088.981,1171.995,1086.356z M909.779,973.287
	c-0.558-1.202-1.067-2.453-1.383-3.737c-4.62-18.798-7.363-37.88-8.253-57.207c-0.861-18.699,0.475-37.28,4.215-55.622
	c2.04-10.004,2.29-20.555,8.584-29.401c1.478-2.077-1.515-5.328-4.31-5.082c-2.946,0.259-5.03,1.905-6.305,4.338
	c-2.31,4.407-4.625,8.85-6.435,13.475c-4.648,11.878-6.792,24.406-7.79,37.005c-0.971,12.251-1.134,24.6-0.997,36.898
	c0.227,20.39,3.469,40.419,8.985,60.032c1.243,4.42,3.191,8.836,5.713,12.661c5.036,7.638,13.781,7.553,18.811-0.156
	c2.32-3.556,3.796-7.754,5.16-11.826c3.942-11.775,4.758-24.125,5.98-36.353c2.022-20.228,2.318-40.546,1.807-60.851
	c-0.226-8.967-1.292-17.919-2.145-26.861c-0.218-2.287-0.82-4.622-1.715-6.736c-0.964-2.276-2.945-3.555-5.578-3.423
	c-2.237,0.112-3.948,1.349-4.514,3.334c-0.615,2.157-0.971,4.571-0.682,6.774c1.815,13.873,2.837,27.785,2.445,41.775
	c-0.261,9.305-0.651,18.607-1.107,27.905c-0.783,15.969-2.377,31.846-6.045,47.446c-0.586,2.492-1.633,4.875-2.593,7.677
	C910.634,974.269,910.042,973.854,909.779,973.287z M1201.826,1229.189c-7.074-21.729-7.402-43.821-2.904-66.083
	c0.676-3.347,1.943-5.944,5.867-7.196c3.346-1.068,3.343-4.984,0.529-7.086c-2.278-1.701-4.651-2.281-7.45-1.083
	c-2.92,1.25-5.198,3.222-6.385,6.024c-2.064,4.878-4.267,9.799-5.459,14.924c-3.203,13.77-2.867,27.809-1.448,41.738
	c1.324,13,4.899,25.463,11.462,36.934c2.184,3.817,4.738,7.266,8.468,9.662c5.096,3.272,10.239,2.676,14.348-1.769
	c1.328-1.437,2.648-3.165,3.188-4.991c1.5-5.074,3.106-10.212,3.692-15.434c0.589-5.25,0.364-10.668-0.152-15.949
	c-1.003-10.258-2.358-20.485-3.787-30.694c-0.456-3.262-1.302-6.55-2.54-9.594c-0.884-2.176-2.966-3.701-5.604-3.409
	c-2.623,0.291-4.14,2.168-4.75,4.524c-0.398,1.537-0.305,3.269-0.123,4.879c1.571,13.868,3.274,27.721,4.805,41.593
	c0.66,5.977-0.875,11.677-2.535,19.096C1205.098,1239.975,1203.539,1234.451,1201.826,1229.189z M985.596,823.205
	c15.282-0.659,30.569-1.212,45.847-1.944c1.901-0.091,3.947-0.69,5.597-1.631c2.071-1.181,3.477-3.153,2.979-5.818
	c-0.446-2.385-3.165-4.742-5.659-4.973c-0.653-0.061-1.321,0.05-1.983,0.08c-17.929,0.806-35.861,1.563-53.786,2.447
	c-5.633,0.278-11.27,0.729-16.863,1.439c-2.513,0.319-4.013,2.679-3.996,5.04c0.016,2.262,1.205,4.029,3.192,4.589
	c3.467,0.977,7.077,1.448,8.626,1.746C976.304,823.764,980.947,823.405,985.596,823.205z M1810.671,686.557
	c-19.926-0.568-39.31-11.76-52.769-32.968c-17.15-27.023-14.502-63.114,6.071-87.635c26.963-32.137,74.823-32.849,102.725-1.527
	c28.375,31.853,23.786,82.586-9.838,108.301C1844.828,681.93,1831.224,686.633,1810.671,686.557z M1872.152,617.401
	c0.088-18.354-4.919-32.125-15.281-43.809c-20.195-22.771-54.171-24.839-76.96-4.801c-27.256,23.965-26.604,68.402,1.343,91.554
	c20.867,17.286,50.002,17.02,70.414-0.814C1865.207,647.701,1871.637,632.513,1872.152,617.401z M1575.331,624.019
	c-14.432,0.541-28.591-1.662-42.597-4.605c-33.845-7.112-65.664-19.602-95.523-37.071c-1.134-0.663-2.337-1.35-3.594-1.612
	c-0.841-0.176-2.214,0.086-2.674,0.677c-0.736,0.945-1.531,2.557-1.191,3.474c0.665,1.794,1.787,3.699,3.269,4.858
	c4.974,3.888,9.84,8.138,15.385,11.027c11.502,5.993,23.149,11.881,35.213,16.59c24.904,9.721,50.524,16.619,77.489,18.066
	c9.458,0.508,18.573-0.582,27.74-2.086c2.556-0.419,5.116-1.606,7.366-2.954c6.159-3.69,7.262-9.169,3.445-15.308
	c-2.723-4.379-6.768-7.281-10.955-10.042c-10.634-7.012-22.335-11.892-34.028-16.722c-22.582-9.33-46.266-14.777-70.159-19.441
	c-3.844-0.75-7.294-0.26-10.214,2.459c-1.376,1.281-1.825,3.167-0.475,4.419c1.876,1.742,4.088,3.325,6.437,4.297
	c2.418,1.001,5.177,1.166,7.779,1.733c17.902,3.903,35.691,8.214,52.968,14.428c13.505,4.857,26.671,10.462,39.115,17.641
	c3.077,1.775,6.563,3.233,8.763,7.573C1583.935,623.635,1579.668,623.857,1575.331,624.019z M1664.44,497.318
	c0.794-2.388-0.451-5.271-3.025-6.715c-1.152-0.646-2.398-1.16-3.654-1.578c-1.576-0.524-3.219-0.84-4.808-1.325
	c-31.821-9.72-63.729-19.166-95.434-29.252c-39.316-12.507-78.447-25.594-117.701-38.298c-5.677-1.837-11.587-2.966-17.404-4.36
	c-1.282-0.307-2.707-0.691-3.921-0.411c-1.13,0.261-2.399,1.154-3.012,2.139c-1.01,1.623-0.197,3.271,1.182,4.356
	c1.019,0.803,2.288,1.353,3.523,1.802c2.813,1.023,5.676,1.911,8.516,2.858c35.353,11.789,70.749,23.451,106.047,35.402
	c38.778,13.131,77.728,25.702,117.093,36.964c2.225,0.637,4.511,1.061,5.638,1.322
	C1661.675,500.351,1663.788,499.276,1664.44,497.318z M1682.926,655.576c-14.766-2.553-29.336-5.843-42.6-13.319
	c-3.172-1.788-6.588-3.148-9.912-4.657c-2.088-0.948-3.962-0.379-5.364,1.284c-1.514,1.795-1.113,3.707,0.271,5.431
	c3.158,3.933,6.94,7.089,11.405,9.498c12.111,6.535,24.968,10.895,38.542,12.942c5.216,0.786,10.576,0.972,15.858,0.859
	c4.687-0.1,9.174-1.612,13.074-4.352c3.829-2.69,5.408-7.011,3.725-11.412c-1.039-2.716-2.545-5.576-4.644-7.493
	c-3.642-3.327-7.675-6.378-11.956-8.825c-9.929-5.676-20.903-8.496-32.098-10.34c-2.526-0.416-5.328-0.106-7.835,0.529
	c-3.824,0.968-4.814,6.186-1.817,8.791c0.97,0.842,2.177,1.591,3.4,1.924c2.555,0.695,5.198,1.066,7.798,1.603
	c10.806,2.232,21.29,5.349,30.458,11.764c1.438,1.006,2.405,2.686,5.156,5.864C1690.144,655.666,1686.438,656.183,1682.926,655.576z
	 M1718.031,508.09c-5.552-3.802-12.038-4.957-18.565-5.649c-1.987-0.211-4.757,2.45-4.659,4.391
	c0.075,1.498,0.647,3.605,1.733,4.312c5.271,3.432,11.169,5.54,17.396,6.402c3.074,0.425,5.967-2.364,6.091-6.116
	C1719.639,510.747,1719.198,508.889,1718.031,508.09z M1825.113,1332.953c-17.555-5.152-30.661,0.484-37.95,16.353
	c-0.939,2.044-1.319,4.444-1.486,6.714c-0.179,2.442,1.735,4.507,4.084,4.933c2.114,0.384,4.059-0.111,5.266-1.961
	c1.082-1.659,1.633-3.688,2.819-5.251c1.778-2.343,3.59-4.867,5.943-6.528c7.798-5.503,19.586-3.86,26.386,3.401
	c1.58,1.688,2.759,3.783,4.454,5.326c2.974,2.707,7.41,2.045,9.422-1.491c1.293-2.272,1.833-4.96,2.887-7.384
	c3.729-8.57,12.457-12.583,21.404-9.774c5.172,1.624,9.827,4.083,12.689,9.038c0.83,1.437,1.755,2.838,2.783,4.139
	c4.395,5.565,9.824,5.216,13.645-0.923c1.226-1.969,1.87-4.348,3.288-6.139c2.033-2.568,4.247-5.173,6.896-7.032
	c3.968-2.784,8.513-1.664,11.324,2.374c1.51,2.168,2.457,4.734,4.008,6.867c2.141,2.946,6.724,2.224,8.156-1.155
	c0.38-0.896,0.675-1.898,0.706-2.862c0.28-8.59-8.411-18.547-16.981-19.455c-7.12-0.755-13.037,1.856-17.991,6.799
	c-2.295,2.289-4.381,4.789-6.786,7.441c-3.53-2.73-6.601-5.177-9.746-7.525c-9.44-7.047-27.106-7.893-37.226,3.818
	c-1.716,1.986-3.463,3.945-5.433,6.187C1832.916,1336.583,1829.195,1334.151,1825.113,1332.953z M1767.341,1461.54
	c-9.971-0.551-16.624,3.398-20.684,12.289c-3.424,7.499-3.894,15.423-3.11,23.461c0.151,1.553,0.982,3.168,1.88,4.496
	c2.148,3.175,6.188,2.929,8.233-0.265c1.711-2.672,1.668-5.629,1.928-8.625c0.371-4.274,0.71-8.646,1.901-12.731
	c1.486-5.098,4.903-6.81,9.992-5.758c2.925,0.605,5.753,1.662,8.662,2.36c5.14,1.233,9.251-1.618,9.81-6.872
	c0.209-1.965-0.024-3.979-0.093-5.97c-0.081-2.319-0.461-4.66-0.263-6.952c0.761-8.787,7.259-12.728,15.575-9.443
	c2.138,0.845,4.074,2.208,6.091,3.353c1.443,0.819,2.785,1.884,4.314,2.468c4.937,1.886,9.474-0.777,10.361-6.04
	c0.274-1.629-0.049-3.376,0.335-4.964c0.931-3.856,1.678-7.849,3.299-11.424c2.722-6.005,6.802-7.781,12.981-5.938
	c3.137,0.936,6.094,2.55,9.032,4.053c1.458,0.745,2.622,2.048,4.042,2.891c2.343,1.392,4.772,1.187,6.462-0.337
	c1.678-1.514,1.73-3.869-0.037-6.315c-3.803-5.263-8.883-9.002-14.808-11.447c-9.494-3.918-18.671-1.527-24.984,6.578
	c-2.005,2.575-3.367,5.691-4.785,8.672c-1.116,2.347-1.867,4.868-2.767,7.278c-27.274-7.364-35.97,4.267-37.79,25.573
	C1770.611,1461.768,1768.978,1461.63,1767.341,1461.54z M1956.184,1376.336c-9.779-1.848-18.536,0.201-25.893,7.12
	c-4.712,4.432-7.851,9.942-9.836,16.008c-0.804,2.456-0.823,5.254-0.757,7.885c0.072,2.86,2.365,5.03,5.028,5.363
	c2.722,0.34,5.516-1.087,6.428-3.693c0.76-2.173,0.83-4.588,1.601-6.756c3.529-9.932,11.769-17.436,25.142-12.543
	c2.496,0.913,4.843,2.229,7.333,3.162c5.695,2.136,9.736-0.088,11.15-6.107c0.758-3.228,0.971-6.633,2.094-9.717
	c3.681-10.108,12.296-13.156,21.641-7.834c2.017,1.149,3.752,2.797,5.777,3.929c5.412,3.026,9.721,1.476,11.942-4.266
	c0.958-2.479,1.362-5.195,2.485-7.583c4.654-9.897,16.638-11.524,23.676-3.289c1.51,1.767,2.721,3.802,4.313,5.483
	c1.436,1.516,4.758,1.59,6.545,0.301c1.787-1.289,2.552-3.2,1.726-5.252c-3.243-8.062-8.211-14.833-17.118-16.701
	c-10.976-2.302-20.451,0.683-27.139,10.335c-1.458,2.105-2.995,4.155-4.383,6.074c-23.708-8.406-29.981-5.505-43.36,19.935
	C1961.885,1377.592,1959.051,1376.878,1956.184,1376.336z M1759.014,1560.199c-20.034,0.137-30.231,17.529-31.415,31.343
	c-0.083,0.974,0.081,1.991,0.266,2.962c0.495,2.596,2.829,4.964,5.228,5.406c2.313,0.426,5.509-0.956,6.664-3.437
	c0.954-2.049,1.378-4.379,1.819-6.627c1.987-10.129,9.44-16.17,19.655-15.781c1.32,0.05,2.627,0.395,3.948,0.521
	c5.133,0.491,9.046-1.31,11.564-5.989c1.253-2.328,2.64-4.619,4.246-6.712c1.569-2.045,3.891-2.631,6.261-1.557
	c2.396,1.086,4.531,2.852,6.999,3.627c1.223,0.385,3.14-0.487,4.373-1.331c1.517-1.037,1.708-3.038,0.792-4.498
	c-6.912-11.017-16.476-13.72-26.603-5.322c-2.262,1.876-3.969,4.42-6.576,7.391
	C1763.643,1560.197,1761.328,1560.183,1759.014,1560.199z M672.916,2076.528c-10.251-0.218-20.859-0.25-31.682,0.067
	c-2.311,2.719-2.502,6.126-3.462,9.217c-4.985,16.056-14.841,28.072-29.697,36.012c-17.407,9.303-44.997,10.185-64.653-6.819
	c-11.271-9.75-19.384-20.956-21.261-36.06c-0.076-0.61-0.59-1.167-1.228-2.364c-9.62,0-19.572,0-31.037,0
	c-1.512,1.575-4.004,4.182-6.507,6.779c-18.937,19.653-41.353,33.772-67.887,40.292c-50.513,12.411-95.198,0.325-133.244-34.747
	c-27.996-25.807-43.861-58.361-48.677-96.091c-5.997-46.981,5.365-89.396,35.336-126.228c22.719-27.921,52.025-45.537,87.668-51.526
	c12.097-2.032,24.53-2.883,36.81-2.891c239.325-0.154,478.649-0.102,717.974-0.094c18.333,0.001,36.666-0.124,54.998,0.006
	c28.981,0.204,57.974,0.151,86.94,0.967c52.777,1.488,92.991,25.865,121.228,69.725c38.102,59.182,32.975,138.306-11.974,192.37
	c-25.669,30.874-58.558,49.231-98.756,52.603c-42.948,3.602-79.941-10.665-111.184-40.15c-3.871-3.654-7.643-7.414-11.625-11.283
	c-10.706-1.034-33.938-0.807-41.391,0.437c-10.019,35.906-31.196,52.82-64.612,51.495c-14.029-0.556-25.479-6.971-35.643-16.135
	c-10.28-9.269-16.74-20.57-18.075-34.54c-1.084-0.385-2.006-0.993-2.931-0.999c-10.984-0.066-21.969-0.043-33.083-0.043
	c-2.599,2.593-2.648,6.068-3.609,9.148c-5.116,16.411-15.206,28.624-30.531,36.527c-17.243,8.893-44.279,9.574-63.793-7.082
	c-11.916-10.17-19.885-22.204-21.818-38.558c-10.877-0.285-21.48-0.251-32.289,0.017c-2.431,2.653-2.569,6.087-3.524,9.174
	c-4.971,16.064-14.807,28.091-29.663,36.046c-17.388,9.311-44.944,10.253-64.658-6.752c-11.271-9.723-19.465-20.899-21.242-36.053
	C674.06,2078.378,673.565,2077.813,672.916,2076.528z M442.835,1827.503c48.341,27.035,74.579,67.194,83.585,118.717
	c3.563,2.088,6.971,1.389,10.243,1.394c143.648,0.241,287.296,0.46,430.945,0.646c42.332,0.055,84.663,0.034,126.995-0.039
	c3.555-0.006,7.347,0.987,10.705-1.432c0.817-3.92,1.642-7.824,2.443-11.732c2.624-12.801,6.882-25.056,12.631-36.766
	c14.202-28.927,35.094-51.637,63.184-67.62c1.737-0.988,4.56-1.224,4.21-4.207c-246.859,0-493.481,0-740.102,0.024
	C446.785,1826.487,445.897,1826.845,442.835,1827.503z M503.345,2059.691c0.382,0.415,0.602,0.865,0.824,0.865
	c167.836,0.49,335.672,0.986,503.508,1.387c39.967,0.095,79.936-0.123,119.904-0.208c0.322-0.001,0.704-0.081,0.949-0.267
	c0.231-0.175,0.317-0.54,0.833-1.511c-2.266-4.209-4.86-8.766-7.199-13.45c-2.229-4.464-4.116-9.097-6.292-13.588
	c-2.282-4.712-2.658-10.309-6.672-14.64c-4.258,0-8.579,0-12.901,0c-168.889-0.001-337.779-0.001-506.668-0.004
	c-3.331,0-6.662,0.007-9.993-0.033c-17.309-0.209-34.618-0.47-51.928-0.603c-2.23-0.017-4.465,0.605-5.614,0.773
	C515.623,2032.662,509.58,2045.965,503.345,2059.691z M1117.047,1975.764c0.591,4.971,1.133,14.997,3.062,24.748
	c6.621,33.48,22.605,61.802,48.977,83.655c31.64,26.219,67.992,35.734,108.387,27.807c29.85-5.857,54.528-21.192,73.897-44.45
	c31.73-38.103,41.5-81.993,31.48-130.145c-6.652-31.97-22.777-58.835-47.856-79.936c-25.518-21.471-55.143-32.257-88.484-30.71
	c-37.902,1.759-69.252,17.971-93.885,46.658C1128.661,1901.299,1117.379,1934.07,1117.047,1975.764z M514.677,1969.992
	c-0.562-40.303-14.253-75.807-43.202-104.83c-24.057-24.118-53.397-37.262-87.48-38.515c-27.77-1.021-53.469,6.549-76.272,22.543
	c-37.16,26.063-57.549,62.271-61.724,107.171c-4.166,44.797,8.89,84.351,39.903,117.29c21.277,22.599,47.528,36.519,78.474,40.027
	c41.662,4.722,77.711-8.243,107.309-37.775C500.7,2046.951,514.224,2011.311,514.677,1969.992z M524.944,2004.833
	c4.135,1.364,7.812,0.945,11.414,0.907c40.946-0.433,81.909,1.121,122.839-1.069c144.909-0.007,289.818-0.014,434.728-0.021
	c2.332,0,4.675,0.134,6.992-0.05c1.868-0.148,3.705-0.682,5.792-1.091c-0.856-7.141-1.573-13.754-2.46-20.344
	c-0.916-6.799,0.891-13.852-1.687-21.138c-3.879,0-7.507,0-11.134,0c-35.311,0-70.623-0.077-105.934,0.016
	c-73.942,0.194-147.883,0.485-221.825,0.718c-16.638,0.052-33.276,0.034-49.914,0.039c-35.306,0.01-70.612,0.105-105.917-0.014
	c-20.632-0.069-41.263-0.493-61.895-0.734c-3.997-0.047-8.005-0.153-11.987,0.092c-1.854,0.114-3.66,1.003-5.652,1.589
	c-0.314,7.047-0.413,13.694-0.958,20.303C526.777,1990.921,525.778,1997.773,524.944,2004.833z M1083.606,2076.529
	c-1.357-0.346-1.996-0.65-2.635-0.652c-25.982-0.054-51.964-0.116-77.946-0.056c-2.543,0.006-5.084,0.783-8.018,1.268
	c-0.298,9.705,5.075,16.064,10.744,22.134c8.306,8.895,18.647,14.078,30.828,14.526
	C1058.718,2114.563,1080.239,2101.481,1083.606,2076.529z M688.278,2077.114c-1.602,9.565,4.24,15.438,9.416,21.289
	c8.516,9.629,19.406,14.951,32.344,15.402c23.625,0.824,45.644-16.888,45.502-36.398
	C768.287,2076.145,701.374,2075.846,688.278,2077.114z M927.545,2076.985c-9.521-1.261-19.098-0.426-28.635-0.567
	c-9.962-0.147-19.93-0.16-29.892,0.007c-9.527,0.16-19.107-0.777-28.786,0.691c-1.618,9.517,4.151,15.411,9.347,21.271
	c8.532,9.622,19.407,15.022,32.341,15.4C902.675,2114.393,925.472,2101.577,927.545,2076.985z M536.569,2077.172
	c-1.174,3.658-0.603,6.524,0.805,9.257c6.54,12.699,16.378,21.667,30.203,25.675c18.809,5.453,46.389-1.416,55.888-29.244
	c0.591-1.731,0.401-3.728,0.573-5.577C615.551,2076.136,546.147,2076.064,536.569,2077.172z M694.407,959.175
	c-1.154-6.181-2.416-12.345-3.44-18.547c-2.658-16.112-4.302-32.329-4.218-48.673c0.026-4.978,0.856-9.95,0.951-14.931
	c0.223-11.705,2.066-23.195,4.326-34.626c0.707-3.575,1.897-7.07,3.076-10.53c0.962-2.823,2.194-5.207,5.497-6.542
	c3.168-1.281,3.541-3.964,2.048-6.535c-1.452-2.499-4.274-3.892-6.774-2.536c-2.538,1.376-5.205,3.219-6.75,5.56
	c-2.352,3.566-4.072,7.632-5.56,11.669c-5.809,15.764-7.956,32.253-9.127,48.891c-1.007,14.31-0.288,28.594,1.266,42.83
	c1.554,14.242,3.917,28.359,7.85,42.152c0.989,3.467,2.373,7.011,4.4,9.953c4.102,5.954,10.538,5.904,14.966,0.251
	c1.015-1.296,1.934-2.763,2.501-4.298c1.494-4.048,3.202-8.09,4.044-12.291c1.764-8.799,3.288-17.665,4.448-26.563
	c3.888-29.842,2.783-59.811,1.798-89.759c-0.083-2.515-1.051-5.301-2.476-7.361c-0.871-1.26-3.403-1.881-5.183-1.868
	c-2.057,0.014-3.687,1.587-4.026,3.801c-0.301,1.963-0.412,3.979-0.375,5.967c0.155,8.321,0.53,16.639,0.579,24.96
	c0.092,15.64,0.289,31.291-1.708,46.859c-1.608,12.535-3.148,25.079-4.816,37.606c-0.205,1.539-1.015,2.997-1.544,4.492
	C695.574,959.129,694.99,959.152,694.407,959.175z M688.134,1083.756c-2.522-15.218-2.715-30.47,0.122-45.669
	c1.082-5.798,1.731-11.745,7.539-15.559c2.546-1.671,1.362-5.931-1.508-7.515c-2.216-1.223-4.593-1.432-6.58,0.149
	c-1.783,1.419-3.683,3.094-4.629,5.085c-2.558,5.384-5.253,10.83-6.784,16.549c-3.932,14.693-3.229,29.717-1.464,44.626
	c0.696,5.88,2.606,11.645,4.294,17.365c0.739,2.503,2.053,4.939,3.551,7.097c5.001,7.208,13.369,7.23,17.934-0.336
	c2.525-4.185,4.449-9.039,5.36-13.836c3.123-16.443,3.191-33.084,1.975-49.742c-0.227-3.105-1.323-5.786-3.496-8.039
	c-1.514-1.57-3.664-1.569-5.289-0.107c-2.713,2.441-3.425,5.577-3.426,9.019c-0.002,7.993,0.229,15.996-0.095,23.976
	c-0.282,6.957-1.085,13.901-1.899,20.823c-0.217,1.842-1.324,3.578-2.703,7.104C689.746,1089.937,688.654,1086.894,688.134,1083.756
	z M676.501,1491.532c1.216,0.412,3.234-0.33,4.326-1.233c0.629-0.52,0.661-2.833,0.044-3.592c-2.073-2.549-4.285-5.152-6.944-7.023
	c-5.267-3.706-10.475-2.153-13.126,3.642c-2.278,4.981-2.697,10.212-1.642,15.612c1.665,8.526,4.15,16.794,7.65,24.739
	c12.994,29.49,30.589,56.036,51.994,80.03c8.635,9.68,17.919,18.809,28.658,26.231c2.68,1.852,5.697,3.63,8.812,4.359
	c7.245,1.696,12.471-3.607,11.065-10.948c-0.559-2.917-1.496-5.84-2.75-8.533c-6.597-14.165-13.005-28.434-20.125-42.335
	c-12.377-24.164-29.817-44.819-46.778-65.769c-1.449-1.79-3.26-3.332-5.086-4.754c-1.001-0.78-2.344-1.238-3.606-1.543
	c-2.75-0.665-5.625,2.291-4.538,4.836c1.027,2.406,2.422,4.732,4.032,6.8c4.903,6.302,9.996,12.456,15.001,18.678
	c20.37,25.32,36.579,53.121,49.37,82.948c0.991,2.311,2.557,4.609,1.575,7.66c-1.111-0.426-2.201-0.537-2.832-1.133
	c-8.215-7.769-16.824-15.188-24.439-23.513c-17.821-19.481-32.912-41.001-44.931-64.534c-5.592-10.948-10.676-22.19-13.213-34.373
	c-0.67-3.218-1.216-6.333,0.366-10.305C672.097,1489.091,674.154,1490.737,676.501,1491.532z M604.08,1223.73
	c-0.156-3.916-1.099-7.863-2.22-11.635c-0.303-1.02-2.556-1.906-3.969-1.996c-0.946-0.06-2.675,1.254-2.863,2.192
	c-0.645,3.216-0.967,6.532-1.05,9.82c-0.368,14.637-0.702,29.275-0.875,43.915c-0.196,16.656-0.277,33.315-0.212,49.972
	c0.009,2.207,0.788,4.629,1.886,6.569c2.35,4.154,7.615,4.018,9.429-0.302c1.12-2.669,1.685-5.763,1.701-8.67
	c0.071-12.653-0.151-25.307-0.276-39.068C605.163,1258.326,604.77,1241.022,604.08,1223.73z M595.832,1362.128
	c0.367,2.537,2.41,4.146,4.815,4.219c2.295,0.07,4.549-1.446,5.206-3.831c1.363-4.953,0.508-9.879-0.983-14.603
	c-0.375-1.189-2.452-2.39-3.875-2.568c-1.987-0.25-4.054,0.818-4.641,2.972c-0.602,2.207-0.667,4.561-0.906,6.391
	C595.575,1357.513,595.503,1359.85,595.832,1362.128z M2017.54,856.879c-15.99-22.211-30.132-45.551-41.37-70.539
	c-5.878-13.07-10.783-26.528-13.461-40.691c-0.751-3.972-1.275-7.511,2.33-10.927c2.525-2.392-0.378-6.843-4.048-6.844
	c-2.56-0.001-4.764,1.117-5.87,3.189c-1.373,2.573-2.733,5.494-2.856,8.319c-0.214,4.939,0.078,9.998,0.949,14.865
	c1.942,10.848,5.506,21.276,9.87,31.367c13.149,30.41,29.656,58.862,50.546,84.643c4.386,5.413,9.376,10.376,14.417,15.202
	c2.348,2.248,5.288,4.171,8.306,5.36c4.909,1.935,9.663-1.09,10.246-6.271c0.292-2.597,0.189-5.374-0.412-7.909
	c-1.611-6.79-3.157-13.646-5.495-20.203c-10.194-28.598-23.202-55.947-37.482-82.703c-1.878-3.518-4.112-6.856-6.327-10.181
	c-2.168-3.253-5.093-5.028-8.911-4.242c-0.684,0.844-1.256,1.288-1.478,1.866c-1.466,3.819-0.008,7.008,1.917,10.33
	c15.72,27.14,28.952,55.471,40.065,84.79c1.976,5.213,4.196,10.404,4.341,16.978C2026.074,868.654,2021.76,862.741,2017.54,856.879z
	 M2137.028,1058.641c1.871,0.64,3.59-0.059,4.271-1.524c0.593-1.276,0.657-3.381-0.028-4.539c-1.151-1.947-2.947-3.594-4.714-5.079
	c-2.98-2.505-6.518-3.53-10.235-2.046c-4.089,1.632-6.28,5.027-6.274,9.343c0.005,3.946,0.293,7.985,1.167,11.822
	c3.582,15.731,11.033,29.87,18.726,43.863c5.315,9.668,12.012,18.379,19.871,26.097c2.528,2.483,5.732,4.597,9.013,5.915
	c4.224,1.696,7.745-0.42,9.643-4.614c1.593-3.521,1.473-7.129,0.669-10.741c-3.639-16.353-10.321-31.541-17.936-46.358
	c-0.592-1.152-1.497-2.223-2.479-3.075c-1.55-1.344-3.635-2.523-5.345-0.959c-1.309,1.196-2.564,3.432-2.387,5.045
	c0.28,2.532,1.794,4.926,2.773,7.383c4.42,11.102,8.891,22.185,13.197,33.331c0.669,1.732,0.581,3.757,1.074,7.31
	c-2.832-2.67-4.72-3.999-6.01-5.765c-2.349-3.214-4.359-6.676-6.481-10.053c-9.051-14.402-16.76-29.451-22.047-45.674
	c-1.129-3.464-2.272-6.887-1.371-11.15C2133.996,1057.729,2135.531,1058.129,2137.028,1058.641z M1240.261,1525.948
	c0.035-9.27,1.211-18.561,2.308-27.793c0.587-4.935,2.064-9.461,6.868-12.633c3.229-2.132,0.99-8.468-2.995-9.406
	c-2.7-0.636-5.474-0.474-7.325,1.878c-1.83,2.325-3.778,4.766-4.785,7.485c-1.843,4.972-3.493,10.105-4.409,15.314
	c-3.559,20.225-2.434,40.406,1.46,60.471c0.629,3.239,1.526,6.528,2.933,9.493c3.383,7.131,11.661,7.884,15.877,1.214
	c2.619-4.143,4.39-8.94,5.891-13.651c5.328-16.71,5.305-34.074,5.775-51.359c0.018-0.664-0.013-1.335-0.092-1.994
	c-0.524-4.347-2.547-6.878-5.662-7.117c-3.45-0.264-5.986,2.571-6.236,7.451c-0.221,4.317,0.042,8.657-0.125,12.978
	c-0.424,10.971-1.162,21.92-4.021,32.587c-0.384,1.435-1.409,2.698-3.325,6.231
	C1241.509,1545.068,1240.225,1535.506,1240.261,1525.948z M2006.087,1481.901c3.922-3.073,7.658-6.395,11.344-9.754
	c20.164-18.38,40.301-36.79,60.42-55.22c4.17-3.82,8.301-7.69,12.297-11.69c1.621-1.623,3.001-3.554,4.178-5.531
	c0.892-1.499,0.873-3.49-0.665-4.507c-1.214-0.803-3-1.175-4.461-1.03c-1.182,0.117-2.329,1.2-3.372,2.009
	c-4.732,3.673-9.583,7.216-14.097,11.143c-12.805,11.137-25.489,22.416-38.178,33.685c-10.448,9.279-20.903,18.552-31.203,27.994
	c-2.402,2.202-4.558,4.865-6.16,7.694c-1.78,3.143,0.872,7.014,5.401,7.148C2002.555,1483.444,2004.619,1483.052,2006.087,1481.901z
	 M1971.434,1499.773c-6.524,3.382-12.044,8.093-17.162,13.298c-0.684,0.695-1.24,1.55-1.714,2.409
	c-1.129,2.045-0.648,4.315,1.237,6.311c1.83,1.938,4.197,2.477,6.206,0.897c3.363-2.647,6.694-5.393,9.674-8.453
	c3.405-3.496,7.579-6.432,9.39-11.19C1975.744,1498.172,1975.12,1497.863,1971.434,1499.773z M1929.886,1553.549
	c5.034-3.811,9.677-8.034,13.006-13.491c1.15-1.885,1.137-3.768-0.536-5.405c-1.606-1.572-3.774-2.08-5.445-0.847
	c-4.768,3.519-9.452,7.201-13.775,11.24c-1.14,1.065-1.226,3.675-1.129,5.541c0.117,2.245,2.854,4.02,5.47,3.769
	C1928.035,1554.18,1929.146,1554.109,1929.886,1553.549z M459.404,1201.338c3.984,0,7.977,0.167,11.947-0.065
	c2.261-0.132,4.576-0.674,6.696-1.478c1.965-0.745,3.306-2.635,2.924-4.709c-0.264-1.436-1.442-3.3-2.695-3.828
	c-2.359-0.995-5.106-1.745-7.623-1.576c-13.607,0.915-27.132,0.089-40.663-1.206c-2.282-0.219-4.704-0.183-6.911,0.354
	c-2.365,0.575-3.888,2.46-4.229,5.001c-0.251,1.873,1.631,4.501,3.928,5.186c1.89,0.563,3.88,0.962,5.845,1.069
	c10.253,0.555,20.512,0.994,30.769,1.472C459.397,1201.484,459.401,1201.411,459.404,1201.338z M507.075,1201.715
	c3.233,0.014,6.173-2.447,6.128-5.121c-0.038-2.276-2.575-4.944-5.334-4.963c-2.938-0.02-5.967,0.23-8.78,1.003
	c-1.204,0.33-2.461,2.154-2.81,3.523c-0.558,2.194,0.934,3.847,2.998,4.422c2.2,0.613,4.529,0.766,5.408,0.903
	C506.418,1201.654,506.747,1201.713,507.075,1201.715z M2280.344,1290.919c0.191,39.016-23.899,66.494-57.178,69.868
	c-20.547,2.083-38.059-5.062-52.025-20.123c-26.361-28.429-21.771-74.317,9.85-96.683c20.181-14.274,42.134-16.207,64.195-5.037
	C2268.312,1250.651,2279.334,1270.57,2280.344,1290.919z M2217.252,1245.867c-27.575,0.005-49.747,22.507-49.853,50.595
	c-0.105,27.987,22.01,51.013,49.445,51.104c27.146,0.09,50.651-21.429,50.407-51.192
	C2266.99,1264.527,2241.134,1245.419,2217.252,1245.867z M2297.338,1236.504c-3.185-4.957-7.397-9.354-11.643-13.49
	c-2.279-2.219-5.515-3.63-8.551-4.808c-1.139-0.442-3.276,0.423-4.352,1.376c-1.624,1.438-1.601,3.655-0.383,5.453
	c0.91,1.344,2.138,2.554,3.443,3.534c5.155,3.87,8.87,8.945,12.049,14.412c7.62,13.109,12.278,27.121,12.771,42.42
	c0.105,3.266,0.566,6.657,1.634,9.722c1.561,4.482,6.8,5.138,9.274,1.26c1.183-1.854,1.822-4.208,2.136-6.418
	c0.273-1.914-0.26-3.943-0.616-7.942C2312.571,1266.648,2306.619,1250.947,2297.338,1236.504z M2308.411,1329.199
	c-2.041-3.711-6.258-4.017-8.897-0.689c-0.607,0.765-1.201,1.584-1.59,2.472c-1.58,3.608-3.165,7.218-4.581,10.892
	c-1.419,3.681-0.37,6.759,2.639,8.416c2.799,1.542,6.894,0.677,8.498-2.599c2.281-4.66,3.835-9.676,5.549-14.15
	C2309.324,1331.612,2309.026,1330.318,2308.411,1329.199z M536.45,1381.777c-0.054,13.171-10.342,23.918-22.962,23.986
	c-12.887,0.069-23.686-11.357-23.367-24.724c0.313-13.096,10.818-23.462,23.607-23.293
	C526.574,1357.916,536.505,1368.419,536.45,1381.777z M503.518,1381.608c-0.036,5.796,4.245,10.302,9.828,10.344
	c5.399,0.041,10.081-4.688,10.125-10.226c0.044-5.567-4.52-10.269-10.004-10.307
	C507.815,1371.381,503.555,1375.743,503.518,1381.608z M490.118,1637.678c0.161-13.047,10.644-23.714,23.292-23.699
	c13.147,0.016,23.409,11.056,23.044,24.792c-0.35,13.167-10.882,23.507-23.643,23.212
	C500.237,1661.692,489.957,1650.682,490.118,1637.678z M503.518,1637.174c-0.408,5.806,3.544,10.592,9.091,11.011
	c5.445,0.411,10.364-3.858,10.857-9.421c0.477-5.39-3.919-10.61-9.268-11.008C508.518,1627.333,503.924,1631.385,503.518,1637.174z
	 M185.616,1620.135c-12.636-0.109-23.061-10.927-23.085-23.956c-0.024-12.947,10.466-23.912,23.039-24.083
	c12.975-0.176,23.85,11.165,23.524,24.534C208.773,1609.816,198.356,1620.244,185.616,1620.135z M195.88,1595.996
	c-0.09-5.619-4.688-10.183-10.163-10.087c-5.574,0.098-9.864,4.643-9.805,10.388c0.059,5.746,4.462,10.133,10.098,10.064
	C191.521,1606.293,195.969,1601.621,195.88,1595.996z M1274.121,463.173c0.168,14.932-3.097,25.562-10.189,34.867
	c-16.098,21.119-44.144,21.34-60.618,0.562c-14.819-18.69-14.207-47.436,1.393-65.45c15.947-18.415,42.722-17.967,58.219,0.973
	C1270.125,442.927,1274.085,454.335,1274.121,463.173z M1205.832,466.041c-0.192,9.72,2.615,18.428,9.168,25.656
	c10.449,11.525,26.287,11.437,36.839-0.018c12.325-13.379,12.156-37.03-0.359-50.227c-10.351-10.914-25.893-10.949-36.161,0.069
	C1208.919,448.388,1205.968,456.698,1205.832,466.041z M1783.591,614.326c0.244-12.396,5.068-22.513,15.831-29.177
	c10.53-6.52,21.55-6.613,32.051-0.159c21.97,13.504,21.554,45.804-1.018,58.676c-18.761,10.698-42.551-1.381-46.281-23.292
	C1783.84,618.418,1783.785,616.416,1783.591,614.326z M1834.287,614.176c0.084-12.153-9.798-21.534-21.063-19.995
	c-9.898,1.352-17.635,11.51-16.518,21.684c1.152,10.483,9.406,18.267,19.202,18.108
	C1826.142,633.805,1834.212,625.113,1834.287,614.176z M904.043,1854.503c3.277-0.505,6.538-1.271,9.834-1.473
	c20.899-1.276,41.792-3.006,62.713-3.486c32.936-0.755,65.868-0.154,98.604,4.315c2.295,0.313,4.64,0.455,6.954,0.388
	c2.546-0.074,4.587-2.011,4.839-4.195c0.265-2.298-1.142-4.842-3.486-5.419c-3.217-0.792-6.516-1.317-9.808-1.728
	c-24.442-3.049-49.043-3.68-73.618-4.496c-7.942-0.264-15.921,0.687-23.885,1.015c-15.611,0.641-31.25,0.859-46.826,1.973
	c-11.581,0.829-23.102,2.646-34.602,4.342c-3.561,0.525-7.074,1.845-10.41,3.267c-2.52,1.075-4.367,3.222-4.079,6.271
	c0.24,2.536,1.916,4.351,4.192,5.172c3.739,1.348,7.538,2.81,11.435,3.387c14.132,2.091,28.28,4.18,42.488,5.613
	c14.872,1.501,29.806,2.535,44.738,3.249c19.262,0.922,38.546,1.548,57.827,1.864c11.633,0.191,23.279-0.435,34.919-0.731
	c1.316-0.033,2.662-0.165,3.932-0.492c2.361-0.607,4.13-3.183,3.647-5.226c-0.499-2.112-1.879-3.625-3.994-3.921
	c-1.948-0.273-3.974-0.052-5.961,0.04c-10.62,0.491-21.241,1.441-31.859,1.41c-13.284-0.039-26.566-0.885-39.85-1.367
	c-5.319-0.193-10.654-0.161-15.958-0.554c-14.91-1.105-29.823-2.211-44.705-3.634c-12.542-1.2-25.042-2.844-37.561-4.292
	C903.721,1855.365,903.882,1854.934,904.043,1854.503z M774.259,1856.625c2.732-0.721,5.424-1.719,8.202-2.112
	c8.864-1.256,17.779-2.155,26.638-3.439c11.002-1.594,21.803-1.288,32.467,2.174c3.419,1.11,6.285-0.336,7.397-3.141
	c0.991-2.498-0.677-5.484-3.995-7.063c-0.896-0.426-1.826-0.856-2.788-1.052c-3.247-0.66-6.5-1.612-9.779-1.741
	c-13.959-0.549-27.925-0.227-41.695,2.259c-7.488,1.352-14.826,3.582-22.182,5.596c-3.57,0.977-6.743,2.785-9.025,5.874
	c-1.787,2.418-1.698,4.958,0.184,7.289c2.231,2.763,5.313,4.118,8.604,4.584c7.212,1.021,14.467,2.227,21.721,2.349
	c12.277,0.207,24.574-0.199,36.849-0.693c4.927-0.198,9.861-1.109,14.69-2.161c1.055-0.23,2.138-2.382,2.331-3.771
	c0.119-0.856-1.298-2.63-2.242-2.802c-3.21-0.584-6.541-1.033-9.781-0.829c-14.249,0.895-28.49,1.986-42.778,1.412
	c-4.907-0.197-9.793-0.932-14.688-1.422C774.347,1857.499,774.303,1857.062,774.259,1856.625z M639.992,1929.432
	c17.329,0,34.659,0.01,51.988-0.011c2.661-0.003,5.34,0.006,7.979-0.279c2.624-0.283,4.665-2.437,4.635-4.442
	c-0.032-2.137-2.08-4.26-4.596-4.435c-2.655-0.184-5.328-0.139-7.993-0.131c-31.642,0.094-63.29-0.505-94.917,1.04
	c-8.31,0.406-16.636,0.489-24.94,0.98c-2.604,0.154-5.24,0.942-7.689,1.889c-0.891,0.344-1.617,1.951-1.765,3.068
	c-0.091,0.686,0.901,1.948,1.676,2.244c4.742,1.815,9.691,2.262,14.734,1.702c2.641-0.294,5.279-0.776,7.926-0.832
	c17.651-0.377,35.305-0.663,52.957-0.978C639.99,1929.308,639.991,1929.37,639.992,1929.432z M743.681,1928.036
	c2.272-0.284,4.175-2.67,4.102-4.844c-0.074-2.178-2.005-4.537-4.333-4.675c-3.612-0.214-7.252-0.2-10.866-0.008
	c-1.22,0.065-2.693,0.682-3.518,1.552c-1.029,1.085-2.191,2.775-2.035,4.05c0.158,1.295,1.649,3.073,2.912,3.451
	c2.467,0.739,5.181,0.65,6.903,0.818C739.734,1928.247,741.725,1928.28,743.681,1928.036z M773.527,1927.253
	c1.427-0.943,2.944-3.121,2.831-4.638c-0.114-1.536-1.933-3.79-3.433-4.215c-3.828-1.082-7.925-0.787-11.431,1.316
	c-1.157,0.694-2.06,2.644-2.154,4.08c-0.14,2.141,1.416,3.677,3.546,4.133c1.598,0.342,3.28,0.29,5.534,0.458
	C769.779,1928.128,772.022,1928.248,773.527,1927.253z M1350.518,1979.153c-0.117,19.001-8.887,43.572-27.559,64.26
	c-37.604,41.662-100.24,43.635-140.171,2.264c-41.969-43.483-39.056-115.754,6.084-155.844
	c36.149-32.105,89.697-32.123,125.906-0.042C1337.675,1910.078,1350.453,1938.904,1350.518,1979.153z M1251.643,1879.436
	c-17.831,0.068-33.98,5.44-48.381,16.115c-44.34,32.871-49.761,100.372-11.267,140.293c33.819,35.073,86.355,34.939,119.983-0.305
	c34.921-36.598,33.72-97.461-2.754-132.519C1293.192,1887.609,1274.068,1879.401,1251.643,1879.436z M1370.02,1937.338
	c-1.989-3.956-4.525-5.525-6.724-4.788c-2.687,0.9-3.585,4.111-1.689,8.588c5.795,13.682,5.934,27.741,3.296,42.042
	c-1.023,5.547-2.25,11.06-3.124,16.629c-0.348,2.214-0.348,4.616,0.134,6.791c0.552,2.494,2.75,4.053,5.19,3.803
	c1.743-0.179,3.736-1.358,4.909-2.708c1.234-1.419,1.917-3.506,2.335-5.413c2.133-9.725,4.194-19.473,4.31-31.838
	C1378.928,1960.195,1375.618,1948.47,1370.02,1937.338z M1141.282,1937.078c1.157-1.083,1.997-2.654,2.585-4.164
	c1.206-3.095,2.09-6.314,3.214-9.444c5.018-13.972,12.78-26.28,22.626-37.341c1.744-1.959,3.502-4.061,4.558-6.409
	c0.49-1.089-0.339-3.208-1.236-4.324c-0.553-0.688-2.394-0.586-3.6-0.424c-0.919,0.123-1.788,0.842-2.615,1.393
	c-7.546,5.03-14.062,11.105-19.434,18.47c-7.167,9.827-11.407,21.009-15.458,32.296c-0.553,1.543-0.943,3.231-0.968,4.858
	c-0.052,3.35,3.115,6.957,6.62,7.082C1138.463,1938.619,1140.146,1938.141,1141.282,1937.078z M1128.884,1978.466
	c2.672,3.068,7.307,2.629,9.063-1.001c0.427-0.882,0.955-1.883,0.904-2.8c-0.317-5.605-0.616-11.222-1.296-16.79
	c-0.25-2.048-2.154-3.631-4.25-3.506c-1.426,0.085-3.217,1.122-4.076,2.296c-2.446,3.344-2.794,7.354-2.626,11.133
	C1126.636,1971.689,1126.196,1975.38,1128.884,1978.466z M1359.638,2027.32c-1.66-1.389-3.886-1.039-5.576,0.229
	c-3.87,2.904-5.974,7.117-7.579,11.504c-1.042,2.848,0.65,6.045,3.421,7.539c2.177,1.174,5.203,0.57,7.195-1.69
	c3.183-3.611,4.589-8.025,5.575-13.316C1361.827,2030.345,1361.026,2028.482,1359.638,2027.32z M1134.229,2000.873
	c-1.177,5.187,0.889,9.745,3.865,13.889c1.65,2.298,4.002,2.936,6.038,1.875c2.678-1.396,4.025-3.969,2.997-6.52
	c-1.479-3.673-3.079-7.324-5.003-10.776c-0.687-1.232-2.464-1.857-4.26-3.122C1136.42,1997.999,1134.593,1999.27,1134.229,2000.873z
	 M281.323,1961.874c0.35-21.739,10.553-47.785,32.194-68.813c37.514-36.451,94.659-36.492,132.49-0.383
	c43.465,41.487,43.462,114.539-0.006,155.995c-43.655,41.634-111.825,34.016-146.027-16.375
	C287.259,2013.567,281.113,1992.8,281.323,1961.874z M374.032,2061.968c26.955,0.001,46.991-8.133,62.672-23.07
	c36.486-34.756,38.582-94.547,4.62-131.789c-31.89-34.971-83.607-37.176-117.859-5.026c-37.78,35.462-38.958,97.828-2.512,134.637
	C337.166,2053.093,356.77,2061.634,374.032,2061.968z M279.293,1894.645c-3.965,5.716-8.241,11.42-10.986,17.741
	c-8.629,19.879-11.509,40.905-10.643,62.474c0.078,1.932,0.576,3.999,1.446,5.715c1.992,3.932,7.467,4.171,9.925,0.532
	c0.723-1.07,1.277-2.378,1.48-3.645c0.259-1.618,0.107-3.306,0.091-4.964c-0.235-25.01,4.75-48.894,15.345-71.586
	c0.831-1.779,1.775-3.694,1.845-5.576c0.048-1.291-1.33-2.635-2.422-4.582C282.949,1892.248,280.448,1892.979,279.293,1894.645z
	 M435.022,2089.18c1.516-0.525,3.199-1.403,4.099-2.633c0.849-1.16,1.391-3.244,0.914-4.474c-0.46-1.187-2.422-2.555-3.676-2.51
	c-2.591,0.094-5.188,0.949-7.715,1.712c-15.947,4.817-31.943,9.28-48.704,10.385c-10.072,0.664-19.939,0.107-29.636-2.812
	c-1.573-0.473-3.247-1.032-4.827-0.916c-1.116,0.082-2.597,1.007-3.102,1.978c-0.505,0.972-0.414,2.703,0.144,3.69
	c1.56,2.761,4.288,4.22,7.322,4.714c7.855,1.28,15.742,2.361,23.616,3.522C393.14,2101.505,417.885,2095.115,435.022,2089.18z
	 M465.299,1894.616c1.016,2.427,2.352,4.744,3.758,6.978c4.291,6.814,7.368,14.099,9.091,21.975
	c0.78,3.565,1.705,7.104,2.712,10.612c0.454,1.58,1.116,3.148,1.957,4.558c1.286,2.154,4.993,2.561,7.069,0.912
	c2.002-1.591,2.846-3.665,2.236-6.173c-2.281-9.364-4.444-18.796-9.591-27.123c-2.959-4.787-6.136-9.449-9.431-14.011
	c-0.889-1.231-2.57-1.889-3.203-2.331C466.883,1889.545,464.416,1892.506,465.299,1894.616z M494.982,2001.616
	c-1.04-3.951-5.711-5.191-8.685-2.289c-0.938,0.915-1.87,1.969-2.402,3.142c-1.646,3.63-3.258,7.292-4.573,11.05
	c-1.02,2.915,0.54,6.2,3.161,7.609c3.062,1.646,6.662,0.727,8.697-2.435c2.565-3.986,3.766-8.464,4.414-13.195
	C495.401,2004.224,495.317,2002.887,494.982,2001.616z M496.895,1964.382c-1.165-2.174-4.171-2.616-6.104-1.262
	c-4.481,3.138-5.422,12.258-1.659,16.083c2.4,2.44,7.02,1.751,8.439-1.52c0.897-2.067,1.101-4.435,1.674-6.921
	C498.485,1968.63,497.957,1966.363,496.895,1964.382z"/>
</svg>
