<?xml version="1.0" encoding="utf-8"?>
<!-- Generator: Adobe Illustrator 27.5.0, SVG Export Plug-In . SVG Version: 6.00 Build 0)  -->
<svg xmlns="http://www.w3.org/2000/svg" xmlns:xlink="http://www.w3.org/1999/xlink" viewBox="0 0 500 500" width="595" height="842" preserveAspectRatio="xMidYMid meet" data-scaled="true">
<g id="BACKGROUND">
	<rect style="fill:#FFFFFF;" width="500" height="500"/>
</g>
<g id="OBJECTS">
	<g>
		<path d="M291.044,72.433c-2.994-3.446-3.726-8.217-5.376-12.338c-1.6-3.998-3.978-7.642-6.994-10.716
			c-6.551-6.677-16.015-10.202-25.342-9.449c-5.172,0.418-10.036,2.229-14.978,3.667c-5.108,1.485-10.207,1.952-15.51,1.947
			c-5.238-0.004-10.506-0.275-15.714,0.436c-4.332,0.591-8.47,1.891-12.343,3.926c-8.324,4.375-14.929,11.816-18.784,20.344
			c-0.791,1.75,1.861,3.156,2.66,1.39c3.298-7.297,8.61-13.669,15.447-17.894c3.379-2.088,7.074-3.594,10.966-4.398
			c5.011-1.035,10.192-0.879,15.28-0.824c4.975,0.053,9.96,0.011,14.848-1.025c4.809-1.019,9.382-2.906,14.184-3.955
			c9.054-1.978,18.729,0.373,25.686,6.55c3.502,3.109,6.27,7.038,7.937,11.42c1.729,4.547,2.713,9.344,5.987,13.113
			C290.263,76.083,292.299,73.878,291.044,72.433z"/>
		<path d="M217.398,195.569c-13.536-11.29-31.557-15.098-45.189-26.179c-7.165-5.824-12.367-13.657-15.061-22.485
			c-3.006-9.853-2.74-20.475,0.156-30.321c3.293-11.197,10.173-20.844,15.113-31.313c0.821-1.739-1.832-3.143-2.66-1.39
			c-4.485,9.504-10.468,18.281-14.099,28.185c-3.659,9.98-4.691,20.91-2.503,31.343c1.953,9.312,6.561,18.122,13.311,24.853
			c6.369,6.351,14.409,10.637,22.435,14.511c9.12,4.402,18.607,8.446,26.452,14.989
			C216.829,198.994,218.884,196.808,217.398,195.569z"/>
		<path d="M312.126,118.769c-0.423-4.623-1.718-9.058-3.58-13.298c-4.037-9.195-10.249-17.351-13.414-26.938
			c-0.606-1.834-3.48-0.974-2.874,0.862c2.784,8.432,7.848,15.777,11.836,23.641c1.977,3.9,3.651,7.975,4.522,12.274
			c1.028,5.071,0.799,10.345-0.025,15.426c-0.823,5.078-2.198,10.063-3.713,14.973c-1.444,4.682-3.422,8.912-6.65,12.637
			c-3.145,3.629-6.867,6.788-10.585,9.81c-3.862,3.139-7.88,6.086-12.03,8.832c-7.432,4.918-15.987,9.722-18.938,18.71
			c-0.602,1.832,2.328,2.483,2.927,0.659c2.592-7.896,10.686-12.278,17.199-16.56c4.223-2.776,8.308-5.761,12.235-8.94
			c3.718-3.01,7.439-6.119,10.668-9.66c3.294-3.611,5.651-7.653,7.262-12.261c1.674-4.786,3.032-9.755,4.036-14.723
			C312.026,129.154,312.598,123.926,312.126,118.769z"/>
		<path d="M194.817,49.587c-7.317,0.988-14.366-1.344-21.301-3.366c-6.385-1.861-14.335-4.525-20.654-1.194
			c-5.925,3.124-8.717,9.761-8.929,16.184c-0.221,6.716,1.819,13.576,4.761,19.556c3.17,6.443,7.807,12.169,13.453,16.604
			c1.503,1.181,3.604-0.964,2.085-2.157c-9.461-7.431-16.359-18.941-17.234-31.08c-0.438-6.078,1.202-12.829,6.762-16.17
			c2.88-1.73,6.115-1.664,9.339-1.161c3.292,0.513,6.512,1.402,9.706,2.333c7.162,2.088,14.509,4.471,22.064,3.45
			C196.762,52.331,196.73,49.329,194.817,49.587z"/>
		<path d="M174.793,63.012c-4.135-3.481-7.821-7.884-13.233-9.37c-4.358-1.197-9.732,0.272-11.664,4.684
			c-0.768,1.753,1.858,3.211,2.634,1.437c1.6-3.654,6.021-4.157,9.387-2.861c3.538,1.363,6.245,4.131,9.01,6.681
			c-3.577,1.429-7.045,3.112-10.36,5.082c-1.662,0.988-0.134,3.57,1.526,2.584c3.839-2.281,7.863-4.198,12.063-5.713
			C175.144,65.179,175.727,63.798,174.793,63.012z"/>
		<path d="M171.837,70.204c-0.47-0.719-1.304-0.907-2.055-0.529c-2.872,1.447-5.282,3.69-7.025,6.383
			c-0.427,0.66-0.091,1.698,0.599,2.036c0.775,0.379,1.578,0.108,2.036-0.599c0.094-0.145,0.189-0.289,0.287-0.431
			c0.055-0.079,0.11-0.157,0.166-0.236c0.218-0.282,0.438-0.562,0.671-0.833c0.462-0.536,0.958-1.042,1.485-1.515
			c0.128-0.115,0.259-0.229,0.391-0.34c0.066-0.056,0.132-0.111,0.199-0.165c0.007-0.006,0.046-0.037,0.084-0.068
			c-0.189,0.154,0.047-0.034,0.089-0.066c0.083-0.062,0.166-0.124,0.25-0.185c0.14-0.101,0.281-0.201,0.423-0.298
			c0.6-0.408,1.226-0.773,1.874-1.099C172.01,71.905,172.259,70.851,171.837,70.204z"/>
		<path d="M269.209,42.446c7.276,1.251,14.405-0.826,21.409-2.596c6.448-1.63,14.489-4.006,20.683-0.45
			c5.809,3.335,8.36,10.068,8.34,16.495c-0.021,6.719-2.306,13.502-5.462,19.372c-3.4,6.324-8.24,11.881-14.042,16.109
			c-1.545,1.126-3.567-1.093-2.006-2.231c9.722-7.086,17.031-18.34,18.342-30.439c0.657-6.058-0.739-12.864-6.175-16.403
			c-2.816-1.833-6.051-1.883-9.292-1.497c-3.309,0.394-6.558,1.166-9.783,1.982c-7.233,1.829-14.66,3.945-22.174,2.653
			C267.167,45.118,267.306,42.119,269.209,42.446z"/>
		<path d="M288.737,56.584c4.258-3.33,8.099-7.597,13.562-8.888c4.398-1.039,9.716,0.622,11.488,5.101
			c0.704,1.78-1.972,3.142-2.685,1.341c-1.467-3.709-5.868-4.371-9.278-3.197c-3.585,1.235-6.39,3.904-9.244,6.353
			c3.523,1.557,6.929,3.364,10.17,5.452c1.625,1.047,0.005,3.573-1.618,2.527c-3.754-2.418-7.706-4.478-11.85-6.144
			C288.308,58.736,287.775,57.335,288.737,56.584z"/>
		<path d="M291.432,63.877c0.495-0.702,1.336-0.86,2.073-0.454c2.818,1.55,5.146,3.877,6.791,6.631
			c0.403,0.675,0.03,1.7-0.672,2.013c-0.788,0.351-1.581,0.051-2.013-0.672c-0.089-0.148-0.178-0.295-0.271-0.441
			c-0.052-0.081-0.105-0.161-0.157-0.242c-0.208-0.29-0.417-0.578-0.64-0.856c-0.442-0.552-0.92-1.076-1.429-1.567
			c-0.124-0.12-0.25-0.238-0.378-0.354c-0.064-0.058-0.128-0.115-0.193-0.172c-0.007-0.006-0.044-0.039-0.081-0.071
			c0.183,0.161-0.046-0.036-0.087-0.069c-0.08-0.065-0.161-0.13-0.243-0.194c-0.136-0.106-0.273-0.211-0.412-0.313
			c-0.584-0.429-1.198-0.817-1.833-1.166C291.198,65.571,290.987,64.508,291.432,63.877z"/>
		<path d="M169.453,214.909c-5.682-5.374-9.638-12.824-11.867-20.268c-2.164-7.227-2.256-15-0.438-22.312
			c1.036-4.167,2.711-8.121,4.943-11.788c1.003-1.648-1.658-3.036-2.66-1.39c-4.192,6.888-6.423,14.867-6.557,22.922
			c-0.14,8.405,2.276,16.424,6.193,23.804c2.196,4.137,4.93,8,8.341,11.225C168.81,218.43,170.857,216.237,169.453,214.909z"/>
		<path d="M243.393,263.486c-4.863-8.82-13.845-14.075-22.843-17.883c-5.165-2.186-10.429-4.146-15.652-6.187
			c-4.469-1.746-8.979-3.432-13.263-5.605c-4.618-2.342-9.003-5.306-12.138-9.495c-1.149-1.535-3.713,0.026-2.556,1.572
			c5.659,7.559,14.402,11.415,22.947,14.772c5.212,2.047,10.442,4.052,15.646,6.12c4.927,1.958,9.841,4.064,14.308,6.949
			c4.474,2.891,8.41,6.636,10.996,11.328C241.771,266.752,244.323,265.171,243.393,263.486z"/>
		<path d="M275.876,218.849c-2.179,13.42-8.053,26.146-16.886,36.489c-2.506,2.935-5.241,5.665-8.167,8.181
			c-1.462,1.257,0.744,3.293,2.194,2.046c10.613-9.127,18.548-21.166,22.947-34.441c1.256-3.79,2.198-7.675,2.838-11.616
			C279.111,217.612,276.187,216.937,275.876,218.849z"/>
		<path d="M304.886,183.665c-2.755,9.009-7.165,17.372-11.66,25.612c-2.204,4.04-4.363,8.125-6.986,11.915
			c-2.631,3.802-5.707,7.291-9.073,10.456c-1.407,1.323,0.792,3.364,2.194,2.046c3.463-3.256,6.561-6.851,9.284-10.746
			c2.728-3.901,4.964-8.108,7.24-12.281c4.623-8.476,9.094-17.077,11.927-26.343C308.378,182.478,305.449,181.824,304.886,183.665z"
			/>
		<path d="M314.927,148.053c-1.785-2.778-3.859-5.513-6.884-7.013c-1.725-0.856-3.126,1.799-1.39,2.66
			c2.544,1.262,4.22,3.594,5.718,5.926c1.658,2.58,3.399,5.343,3.815,8.444c0.107,0.802,0.686,1.477,1.551,1.447
			c0.749-0.026,1.555-0.745,1.447-1.551C318.693,154.302,316.897,151.118,314.927,148.053z"/>
		<path d="M206.342,300.1c-4.995-6.248-11-11.657-17.699-16.013c-0.362-6.731,2.661-12.992,5.57-18.897
			c0.851-1.727-1.803-3.128-2.66-1.39c-2.845,5.776-5.746,11.911-5.943,18.421c-1.844-1.077-3.721-2.1-5.655-3.012
			c-2.556-1.206-5.183-2.247-7.855-3.164c-1.823-0.625-2.472,2.305-0.659,2.927c10.339,3.548,19.793,9.53,27.491,17.282
			c7.651,7.705,14.179,17.672,15.391,28.692c0.573,5.209-0.136,10.506-2.507,15.213c-2.205,4.379-5.643,8.042-9.661,10.818
			c-9.211,6.364-20.529,7.885-31.463,6.607c-6.377-0.745-12.633-2.301-18.774-4.142c-5.745-1.722-11.49-3.58-16.908-6.173
			c-9.815-4.698-17.407-12.243-22.271-21.969c-10.49-20.976-6.023-45.337,3.635-65.711c5.229-11.029,11.923-21.176,19.376-30.814
			c6.762-8.745,13.929-17.468,18.381-27.684c1.083-2.486,1.993-5.048,2.709-7.664c0.51-1.863-2.417-2.522-2.927-0.659
			c-3.1,11.324-10.216,20.878-17.3,30.022c-7.691,9.928-15.012,19.977-20.795,31.167c-10.858,21.012-16.866,46.231-7.457,68.912
			c4.196,10.114,11.136,18.903,20.59,24.56c5.315,3.181,11.155,5.369,17.023,7.285c6.274,2.048,12.642,3.902,19.146,5.066
			c11.651,2.085,23.856,1.768,34.534-3.795c9.394-4.894,16.622-13.632,17.699-24.394C218.496,320.164,213.341,308.855,206.342,300.1
			z"/>
		<path d="M395.22,194.319c-0.379-12.833-0.991-26.362-6.048-38.356c-2.2-5.218-5.253-10.115-9.489-13.927
			c-4.791-4.311-10.8-6.829-17.02-8.281c-6.721-1.569-13.896-2.334-20.711-0.93c-5.932,1.222-11.219,4.417-15.363,8.796
			c-8.978,9.486-11.917,22.538-13.234,35.129c-0.76,7.263-1.132,14.567-2.225,21.794c-1.085,7.175-2.771,14.259-5.032,21.154
			c-1.114,3.399-2.381,6.743-3.775,10.038c-0.746,1.764,1.905,3.174,2.66,1.39c5.447-12.871,8.744-26.404,10.086-40.304
			c1.249-12.931,1.485-26.548,7.569-38.349c2.52-4.887,5.978-9.434,10.513-12.614c5.246-3.679,11.433-4.958,17.769-4.736
			c6.443,0.225,13.257,1.541,19.143,4.219c5.197,2.365,9.498,6.067,12.661,10.814c6.412,9.623,8.133,21.605,8.947,32.894
			c0.523,7.248,0.655,14.517,0.762,21.781c0.111,7.485,0.23,14.972,0.146,22.458c-0.151,13.502-0.828,27.201-4.543,40.259
			c-1.731,6.084-4.158,12.009-7.491,17.398c-3.238,5.235-7.558,9.834-13.31,12.266c-3.034,1.282-6.264,2.053-9.487,2.685
			c-3.55,0.696-7.128,1.312-10.723,1.73c-6.319,0.735-12.6,0.618-18.741-1.147c-10.33-2.968-19.503-9.937-25.154-19.074
			c-1.401-2.266-2.574-4.651-3.506-7.147c-0.673-1.804-3.55-0.949-2.874,0.862c4.019,10.769,12.212,19.691,22.414,24.936
			c5.074,2.609,10.624,4.291,16.307,4.825c7.393,0.695,14.807-0.55,22.056-1.904c6.51-1.216,12.84-3.058,17.99-7.403
			c4.91-4.143,8.405-9.827,11.099-15.593c5.818-12.454,7.822-26.26,8.567-39.87C396.014,224.89,395.67,209.545,395.22,194.319z"/>
		<path d="M375.701,180.274c-1.042-10.233-10.654-15.989-19.658-18.518c-0.039-0.013-0.073-0.03-0.114-0.04
			c-0.022-0.005-0.044-0.008-0.066-0.013c-0.035-0.01-0.071-0.022-0.106-0.031c-0.118-0.032-0.23-0.05-0.338-0.057
			c-4.492-0.974-9.172-0.401-13.523,0.982c-4.176,1.327-8.231,3.495-11.172,6.803c-2.819,3.17-4.64,7.451-4.332,11.742
			c0.276,3.841,2.303,7.453,5.496,9.617c4.112,2.785,8.757,1.511,13.314,1c2.513-0.282,5.062-0.248,7.56,0.149
			c2.413,0.384,4.701,1.174,7.047,1.826c4.426,1.229,8.834,1.111,12.227-2.349C374.853,188.513,376.104,184.233,375.701,180.274z
			 M371.287,187.435c-0.851,1.487-2.151,2.835-3.732,3.544c-1.905,0.854-4.044,0.582-6.008,0.109
			c-1.964-0.473-3.865-1.173-5.828-1.648c-2.021-0.489-4.098-0.761-6.176-0.842c-2.12-0.083-4.215,0.097-6.309,0.418
			c-2.076,0.319-4.252,0.773-6.358,0.492c-3.352-0.447-5.982-3.022-7.019-6.174c-1.133-3.443-0.196-7.138,1.71-10.119
			c2.278-3.564,6.099-5.929,10.006-7.341c4.35-1.573,9.09-2.336,13.641-1.241c6.936,1.918,14.367,5.691,16.849,12.963
			C373.167,180.826,372.999,184.443,371.287,187.435z"/>
		<path d="M362.556,141.39c-1.089-1.844-2.814-3.389-5.021-3.562c-2.226-0.175-4.142,0.893-5.889,2.139
			c-0.271,0.056-0.538,0.207-0.773,0.481c-2.325,2.716-3.472,6.375-3.043,9.937c0.45,3.733,2.513,7.861,6.64,8.353
			c4.058,0.484,7.454-2.405,8.806-6.057C364.595,149.121,364.517,144.71,362.556,141.39z M360.805,150.562
			c-0.606,2.499-2.44,5.144-5.253,5.242c-2.863,0.1-4.269-2.736-4.678-5.204c-0.452-2.734,0.254-5.631,1.969-7.809
			c1.129-0.847,2.361-1.794,3.792-1.967c1.358-0.165,2.348,0.614,3.081,1.689C361.29,144.822,361.447,147.911,360.805,150.562z"/>
		<path d="M345.278,152.682c-0.234-3.191-1.914-6.451-4.787-8.021c-2.986-1.631-6.958-0.819-8.762,2.139
			c-0.123,0.202-0.172,0.429-0.172,0.657c-1.415,2.913-0.972,6.871,0.697,9.575c1.665,2.696,4.985,4.403,8.139,3.506
			C343.756,159.582,345.521,155.988,345.278,152.682z M340.077,157.459c-1.729,0.862-3.914-0.085-4.978-1.566
			c-1.414-1.969-1.94-5.14-0.758-7.33c0.098-0.181,0.147-0.357,0.17-0.528c0.803-1.082,2.634-1.539,4.065-0.968
			c1.947,0.777,3.113,2.766,3.568,4.774C342.614,153.918,342.064,156.467,340.077,157.459z"/>
		<path d="M331.844,161.278c-0.328-2.075-1.113-4.227-2.812-5.576c-1.184-0.94-2.912-0.929-4.32-0.506
			c-1.366,0.41-2.446,1.409-2.831,2.793c-0.04,0.144-0.044,0.293-0.031,0.441c-0.469,1.999-0.122,4.171,0.921,5.936
			c1.222,2.068,3.563,3.572,6.008,2.73c1.123-0.387,2.085-1.194,2.635-2.251C331.986,163.746,332.034,162.478,331.844,161.278z
			 M328.832,163.306c0.007-0.043-0.106,0.204-0.142,0.266c-0.011,0.02-0.054,0.08-0.083,0.122c-0.031,0.036-0.066,0.076-0.078,0.089
			c-0.071,0.078-0.371,0.323-0.132,0.151c-0.073,0.052-0.145,0.104-0.22,0.152c-0.017,0.011-0.114,0.063-0.175,0.098
			c-0.055,0.021-0.135,0.054-0.156,0.06c-0.06,0.019-0.12,0.035-0.18,0.051c-0.035,0.008-0.077,0.018-0.095,0.019
			c-0.1,0.007-0.197,0.008-0.297,0.013c-0.018,0.001-0.078-0.005-0.116-0.008c-0.08-0.013-0.159-0.03-0.238-0.046
			c-0.001,0-0.047-0.012-0.087-0.022c-0.051-0.025-0.218-0.092-0.242-0.104c-0.082-0.043-0.166-0.092-0.244-0.144
			c-0.02-0.017-0.034-0.03-0.068-0.06c-0.136-0.121-0.269-0.244-0.394-0.377c-0.017-0.018-0.09-0.1-0.13-0.143
			c-0.018-0.022-0.034-0.041-0.037-0.046c-0.124-0.17-0.244-0.342-0.353-0.522c-0.107-0.177-0.205-0.359-0.295-0.545
			c-0.006-0.016-0.007-0.018-0.015-0.039c-0.042-0.109-0.084-0.218-0.122-0.329c-0.068-0.199-0.127-0.401-0.176-0.606
			c-0.016-0.068-0.03-0.137-0.046-0.206c-0.009-0.038-0.012-0.047-0.013-0.044c-0.002-0.017-0.002-0.023-0.007-0.062
			c-0.05-0.419-0.064-0.835-0.045-1.257c0.013-0.106,0.027-0.211,0.045-0.316c0.04-0.231,0.095-0.457,0.159-0.683
			c0.024-0.087,0.036-0.175,0.04-0.264c0.018-0.004,0.133-0.143,0.19-0.204c0.008-0.003,0.003,0.002,0.014-0.003
			c0.076-0.033,0.162-0.09,0.23-0.139c0.002-0.001,0.001-0.001,0.003-0.002c0.107-0.04,0.215-0.078,0.325-0.108
			c0.259-0.071,0.57-0.099,0.98-0.101c0.108-0.001,0.216,0.003,0.324,0.004c0.005,0,0.059,0.004,0.103,0.007
			c0.015,0.011,0.014,0.006,0.037,0.027c0.14,0.125,0.279,0.247,0.408,0.383c0.055,0.057,0.107,0.116,0.159,0.176
			c0.012,0.017,0.015,0.021,0.033,0.046c0.217,0.307,0.408,0.623,0.58,0.958c0.002,0.004,0.017,0.036,0.032,0.067
			c0.021,0.05,0.059,0.141,0.067,0.16c0.061,0.154,0.117,0.31,0.169,0.468c0.126,0.383,0.225,0.775,0.302,1.171
			c0.009,0.047,0.018,0.095,0.027,0.142c0.003,0.027,0.019,0.129,0.021,0.147c0.024,0.215,0.048,0.429,0.056,0.645
			C328.964,162.758,328.963,162.925,328.832,163.306z"/>
		<path d="M379.943,153.053c-0.509-1.58-1.554-2.905-3.045-3.664c-3.335-1.698-7.255-0.209-9.385,2.671
			c-0.08,0.058-0.154,0.126-0.22,0.204c-2.069,2.431-2.685,5.885-1.279,8.796c1.262,2.613,4.369,4.246,7.233,3.814
			c3.198-0.482,6.093-3.557,6.975-6.59C380.702,156.636,380.463,154.667,379.943,153.053z M377.464,156.815
			c-0.091,1.053-0.667,2.022-1.334,2.814c-0.724,0.859-1.604,1.759-2.689,2.136c-1.591,0.552-3.522-0.227-4.419-1.499
			c-1.264-1.793-0.899-4.32,0.439-5.921c0.089-0.064,0.171-0.138,0.239-0.23c1.202-1.63,3.078-2.866,5.139-2.325
			c0.888,0.233,1.594,0.754,2.007,1.567C377.344,154.334,377.558,155.728,377.464,156.815z"/>
		<g>
			<polygon points="379.941,169.847 379.942,169.85 379.943,169.853 379.941,169.845 			"/>
			<path d="M386.038,164.654c-0.858-0.846-2.115-1.328-3.32-1.173c-0.907,0.117-1.738,0.48-2.484,0.982
				c-0.27,0.067-0.53,0.208-0.76,0.418c-0.775,0.711-1.551,1.47-2.027,2.423c-0.431,0.863-0.615,1.855-0.482,2.813
				c0.302,2.167,1.984,4.291,4.336,4.285c1.114-0.003,2.192-0.53,3.085-1.159c0.918-0.646,1.713-1.434,2.281-2.408
				C387.807,168.882,387.687,166.28,386.038,164.654z M384.275,168.909c0,0.002,0,0.002-0.001,0.004
				c-0.001,0.002-0.001,0.002-0.002,0.004c-0.05,0.098-0.089,0.202-0.139,0.301c-0.078,0.153-0.176,0.293-0.258,0.442
				c0.162-0.292-0.071,0.089-0.146,0.178c-0.109,0.129-0.224,0.253-0.344,0.372c-0.06,0.06-0.122,0.118-0.184,0.175
				c-0.025,0.022-0.136,0.108-0.179,0.142c-0.242,0.176-0.482,0.352-0.741,0.504c-0.147,0.087-0.298,0.169-0.453,0.242
				c-0.022,0.007-0.033,0.01-0.07,0.022c-0.109,0.034-0.224,0.06-0.331,0.098c-0.01,0.003-0.004,0.003-0.011,0.006
				c-0.008-0.001-0.003-0.003-0.014-0.003c-0.017-0.001-0.085,0.001-0.138,0.003c-0.051-0.009-0.13-0.019-0.148-0.019
				c-0.014,0-0.008,0.003-0.017,0.004c-0.074-0.036-0.149-0.068-0.222-0.108c-0.014-0.008-0.047-0.026-0.081-0.044
				c-0.032-0.021-0.07-0.046-0.087-0.06c-0.07-0.058-0.138-0.119-0.203-0.183c-0.004-0.004-0.055-0.052-0.098-0.096
				c-0.002-0.003-0.001-0.003-0.003-0.006c-0.083-0.121-0.165-0.24-0.236-0.368c-0.015-0.026-0.052-0.088-0.077-0.141
				c-0.004-0.018-0.006-0.036-0.013-0.053c-0.056-0.155-0.095-0.312-0.136-0.472c0.006,0.029,0.009,0.051,0.006,0.052
				c-0.002,0-0.005-0.024-0.008-0.058c-0.054-0.214-0.019-0.088,0-0.002c-0.008-0.091-0.018-0.258-0.018-0.268
				c-0.003-0.073,0-0.146-0.001-0.219c0-0.006,0-0.008,0-0.014c0.033-0.156,0.061-0.31,0.1-0.466c0.006-0.026,0.01-0.04,0.014-0.057
				c0.046-0.095,0.117-0.215,0.132-0.243c0.042-0.077,0.088-0.15,0.133-0.226c0.015-0.026,0.013-0.024,0.021-0.039
				c0.005-0.005,0.001,0.001,0.01-0.009c0.131-0.149,0.249-0.307,0.384-0.453c0.044-0.048,0.095-0.09,0.141-0.137
				c0.177-0.077,0.345-0.19,0.495-0.339c0.044-0.043,0.263-0.234,0.272-0.251c0.115-0.086,0.231-0.171,0.353-0.247
				c0.139-0.087,0.284-0.162,0.429-0.238c0.024-0.011,0.048-0.022,0.062-0.027c0.132-0.046,0.263-0.086,0.397-0.128
				c0.021-0.007,0.074-0.016,0.109-0.023c0.065-0.005,0.13-0.008,0.195-0.014c0.025-0.002,0.057,0,0.086,0.003
				c0.039,0.007,0.079,0.012,0.118,0.021c0.015,0.003,0.074,0.017,0.127,0.031c0.013,0.007,0.021,0.012,0.038,0.021
				c0.065,0.036,0.134,0.072,0.2,0.106c0.01,0.005,0.013,0.006,0.021,0.01c0.104,0.094,0.207,0.196,0.313,0.286
				c0.033,0.047,0.067,0.093,0.098,0.141c0.028,0.044,0.086,0.123,0.116,0.19c0.003,0.009,0.002,0.006,0.005,0.016
				c0.027,0.084,0.057,0.165,0.081,0.251c0.006,0.023,0.031,0.153,0.045,0.213c0.004,0.048,0.009,0.103,0.01,0.12
				c0.005,0.088,0.007,0.175,0.006,0.263c0,0.02-0.005,0.091-0.008,0.142c-0.008,0.05-0.017,0.114-0.02,0.132
				C384.371,168.57,384.316,168.736,384.275,168.909z"/>
		</g>
		<path d="M211.876,396.707c-11.563-21.279-33.22-34.16-55.464-41.915c-2.771-0.966-5.567-1.858-8.38-2.695
			c-0.315-0.094-0.592-0.081-0.831-0.002c-10.43-2.037-21.192,3.14-28.304,10.668c-8.302,8.787-12.701,20.698-13.291,32.674
			c-1.161,23.584,11.542,47.268,30.706,60.681c9.719,6.802,21.223,10.775,33.06,11.496c11.649,0.71,23.983-1.829,33.825-8.284
			c4.813-3.157,8.92-7.333,11.648-12.427c2.843-5.309,4.245-11.31,4.703-17.284C220.423,418.193,217.31,406.707,211.876,396.707z
			 M208.178,451.213c-7.415,8.211-18.87,12.274-29.659,13.266c-11.375,1.046-22.996-1.224-33.169-6.411
			c-19.445-9.913-33.346-30.153-36.256-51.721c-1.577-11.689,0.251-23.772,6.314-33.991c5.387-9.08,14.65-16.932,25.566-17.668
			c2.569-0.173,5.086,0.099,7.56,0.81c0.196,0.056,0.375,0.067,0.543,0.053c20.786,6.385,41.741,16.597,54.958,34.445
			c6.463,8.727,11.073,19.058,12.315,29.904C217.586,430.707,215.686,442.899,208.178,451.213z"/>
		<path d="M115.433,333.355c-10.372,19.067-17.707,40.717-13.907,62.626c1.042,6.005,2.972,11.81,5.773,17.224
			c0.889,1.718,3.438,0.133,2.556-1.572c-9.789-18.922-7.172-41.419,0.479-60.573c2.236-5.598,4.879-11.022,7.758-16.316
			C119.015,333.05,116.358,331.656,115.433,333.355z"/>
		<path d="M192.941,399.036c-5.264-5.287-12.419-8.189-19.799-8.755c-4.064-0.312-8.021,0.277-12.016,0.965
			c-3.849,0.663-7.687,1.468-11.062,3.531c-0.273,0.167-0.451,0.378-0.561,0.607c-4.679,3.656-7.586,9.272-9.458,14.811
			c-2.254,6.67-2.747,13.904-1.232,20.789c2.539,11.541,12.583,25.248,25.994,22.373c2.811-0.603,5.495-2.079,7.365-4.282
			c2.035-2.397,3.068-5.369,4.519-8.111c1.431-2.705,3.404-4.544,6.109-5.933c2.573-1.321,5.345-2.205,7.935-3.493
			c5.766-2.867,9.322-8.31,9.664-14.754C200.753,410.141,197.549,403.663,192.941,399.036z M191.044,427.942
			c-4.379,2.731-9.709,3.614-13.639,7.112c-2.019,1.797-3.266,4.205-4.4,6.615c-1.171,2.488-2.319,5.172-4.598,6.858
			c-4.498,3.33-10.539,2.568-15.058-0.259c-4.906-3.069-8.407-8.334-10.365-13.69c-2.429-6.647-2.632-13.86-0.904-20.701
			c1.605-6.354,4.816-13.406,10.538-17.039c0.074-0.047,0.135-0.101,0.196-0.154c2.463-1.236,5.169-1.847,7.883-2.339
			c3.201-0.581,6.423-1.142,9.685-1.166c6.104-0.045,12.291,1.661,17.265,5.264c4.767,3.453,8.501,8.603,9.526,14.474
			C198.177,418.664,196.113,424.782,191.044,427.942z"/>
		<path d="M177.686,376.502c-0.277-1.304-0.783-2.718-1.804-3.628c-1.257-1.121-3.108-1.18-4.673-0.811
			c-1.118,0.264-3.268,1.984-3.449,2.191c-0.499,0.569-0.803,1.396-1.062,2.095c-0.482,1.299-0.749,2.702-0.564,4.088
			c0.39,2.916,2.454,5.407,5.516,5.594c2.981,0.183,5.361-2.504,6.05-5.189C178.065,379.42,177.988,377.925,177.686,376.502z
			 M174.941,379.165c-0.085,1.53-0.954,3.242-2.39,3.763c-1.254,0.455-2.574-0.433-3.095-1.554c-0.38-0.817-0.469-1.675-0.335-2.551
			c0.073-0.481,0.212-1.025,0.371-1.445c0.089-0.235,0.196-0.465,0.306-0.692c0.018-0.036,0.037-0.075,0.057-0.112
			c0.105-0.062,0.884-0.993,0.928-1.039c0.023-0.024,0.019-0.023,0.027-0.032c0.005-0.004,0.002-0.001,0.007-0.005
			c0.143-0.108,0.296-0.195,0.449-0.287c0.037-0.022,0.053-0.032,0.076-0.044c0.114-0.05,0.234-0.09,0.353-0.128
			c0.162-0.052,0.327-0.094,0.493-0.128c0.042-0.007,0.112-0.019,0.124-0.02c0.104-0.01,0.208-0.02,0.312-0.026
			c0.335-0.018,0.743-0.011,0.972,0.07c0.078,0.028,0.17,0.078,0.247,0.127c0,0.004,0.01,0.016,0.054,0.059
			c0.013,0.013,0.098,0.106,0.141,0.152c0.026,0.041,0.077,0.115,0.074,0.11c0.226,0.405,0.308,0.575,0.458,1.054
			C174.846,377.326,174.993,378.232,174.941,379.165z"/>
		<path d="M160.962,367.084c-2.698-2.579-7.167-2.926-9.876-0.232c-0.27,0.117-0.515,0.325-0.696,0.649
			c-1.768,3.156-2.106,6.968-1.132,10.434c0.927,3.302,3.312,6.942,7.191,6.661c3.83-0.278,6.22-3.604,7.042-7.081
			C164.351,373.875,163.76,369.759,160.962,367.084z M160.728,376.039c-0.387,2.274-1.503,5.023-4.048,5.514
			c-2.463,0.475-3.821-2.141-4.438-4.105c-0.843-2.685-0.668-5.584,0.58-8.098c0.05-0.044,0.1-0.084,0.148-0.138
			c1.448-1.651,3.949-1.603,5.59-0.25C160.635,370.67,161.162,373.492,160.728,376.039z"/>
		<path d="M137.971,372.248c-4.331-0.862-8.747,1.628-9.801,5.818l-0.167,1.452c0.178,4.335,0.807,8.575,3.583,12.04
			c1.385,1.729,3.167,3.225,5.408,3.628c2.172,0.391,4.534-0.111,6.339-1.392C151.299,388.143,147.065,374.059,137.971,372.248z
			 M142.066,391.003c-1.196,1.009-2.859,1.521-4.411,1.255c-1.534-0.262-2.763-1.322-3.702-2.513
			c-2.153-2.729-2.917-6.233-3.154-9.646c0.074-0.169,0.124-0.357,0.133-0.571c0.134-3.083,3.428-4.885,6.228-4.381
			c3.419,0.616,5.784,3.513,6.83,6.682C145.018,384.947,144.727,388.758,142.066,391.003z"/>
		<path d="M132.838,397.578c-1.997-3.154-5.552-5.59-9.255-6.185c-2.157-0.347-4.261,0.159-5.782,1.788
			c-0.911,0.975-1.511,2.226-1.753,3.539c-0.276,0.37-0.381,0.854-0.292,1.349c0.694,3.848,2.443,7.567,5.787,9.778
			c3.046,2.013,7.14,2.207,10.064-0.134c1.391-1.114,2.429-2.684,2.646-4.48C134.496,401.238,133.904,399.262,132.838,397.578z
			 M129.889,405.271c-1.948,1.646-4.58,1.379-6.645,0.114c-2.396-1.468-3.637-4.098-4.302-6.757
			c0.001-0.058,0.008-0.112,0.003-0.173c-0.194-2.3,1.392-4.464,3.844-4.156c2.713,0.34,5.44,2.037,7.06,4.219
			C131.371,400.568,132.088,403.412,129.889,405.271z"/>
		<path d="M128.87,414.916c-2.093-2.13-5.78-3.284-8.654-2.289c-1.619,0.561-2.98,1.748-3.542,3.39
			c-0.451,1.319-0.252,2.745,0.47,3.894c1.007,2.549,2.946,4.694,5.632,5.48c2.441,0.714,5.425-0.168,6.97-2.22
			C131.674,420.608,131.038,417.123,128.87,414.916z M127.441,421.275c-0.008,0.012-0.009,0.015-0.013,0.023
			c-0.016,0.016-0.029,0.029-0.053,0.053c-0.067,0.069-0.126,0.145-0.192,0.214c-0.05,0.052-0.27,0.24-0.292,0.267
			c-0.156,0.114-0.315,0.222-0.483,0.318c-0.088,0.05-0.179,0.097-0.27,0.142c-0.031,0.012-0.126,0.052-0.174,0.07
			c-0.208,0.076-0.421,0.14-0.637,0.191c-0.072,0.017-0.146,0.032-0.22,0.045c-0.033,0.002-0.113,0.011-0.132,0.012
			c-0.222,0.011-0.441,0.028-0.664,0.02c-0.019-0.001-0.122-0.009-0.18-0.013c-0.065-0.013-0.273-0.049-0.315-0.058
			c-1.549-0.33-2.828-1.553-3.564-2.99c-0.012-0.391-0.173-0.779-0.465-1.077c-0.033-0.034-0.055-0.055-0.075-0.075
			c-0.006-0.01-0.01-0.019-0.023-0.038c-0.01-0.015-0.078-0.129-0.109-0.176c-0.016-0.067-0.113-0.359-0.129-0.366
			c-0.033-0.196-0.043-0.415-0.019-0.61c-0.019,0.154,0.131-0.362,0.114-0.368c0.293-0.649,0.853-1.124,1.53-1.358
			c1.036-0.359,2.123-0.229,3.157,0.076c0.811,0.239,1.716,0.724,2.34,1.292c0.67,0.609,1.142,1.32,1.312,2.296
			C128.017,419.917,127.89,420.587,127.441,421.275z"/>
		<path d="M299.019,429.343c0.458,5.974,1.86,11.975,4.703,17.284c2.728,5.094,6.834,9.27,11.648,12.427
			c9.841,6.456,22.176,8.994,33.825,8.284c11.836-0.722,23.341-4.695,33.06-11.496c19.164-13.413,31.866-37.097,30.706-60.681
			c-0.589-11.976-4.989-23.887-13.291-32.674c-7.112-7.528-17.875-12.706-28.304-10.668c-0.239-0.079-0.516-0.092-0.831,0.002
			c-2.813,0.837-5.608,1.729-8.38,2.695c-22.244,7.755-43.901,20.636-55.464,41.915C301.256,406.43,298.143,417.916,299.019,429.343
			z M302.217,419.622c1.242-10.846,5.852-21.176,12.315-29.904c13.217-17.848,34.172-28.06,54.958-34.445
			c0.168,0.014,0.347,0.004,0.543-0.053c2.474-0.71,4.991-0.983,7.56-0.81c10.916,0.736,20.179,8.588,25.566,17.668
			c6.063,10.219,7.891,22.302,6.314,33.991c-2.91,21.568-16.812,41.808-36.256,51.721c-10.173,5.187-21.793,7.457-33.169,6.411
			c-10.789-0.992-22.244-5.055-29.659-13.266C302.88,442.622,300.98,430.43,302.217,419.622z"/>
		<path d="M318.165,416.507c0.342,6.444,3.898,11.887,9.664,14.754c2.59,1.288,5.362,2.172,7.935,3.493
			c2.706,1.389,4.679,3.228,6.109,5.933c1.451,2.742,2.484,5.714,4.519,8.111c1.87,2.203,4.555,3.679,7.365,4.282
			c13.411,2.875,23.454-10.832,25.994-22.373c1.515-6.885,1.021-14.119-1.232-20.789c-1.872-5.539-4.778-11.155-9.458-14.811
			c-0.111-0.229-0.288-0.44-0.561-0.607c-3.375-2.063-7.213-2.869-11.062-3.531c-3.995-0.688-7.952-1.277-12.016-0.965
			c-7.381,0.566-14.535,3.468-19.799,8.755C321.017,403.386,317.813,409.864,318.165,416.507z M321.392,412.64
			c1.025-5.871,4.76-11.02,9.526-14.474c4.974-3.603,11.161-5.309,17.265-5.264c3.262,0.024,6.484,0.586,9.685,1.166
			c2.714,0.492,5.421,1.103,7.883,2.339c0.061,0.053,0.122,0.107,0.196,0.154c5.723,3.634,8.933,10.685,10.538,17.039
			c1.728,6.841,1.525,14.054-0.904,20.701c-1.957,5.356-5.459,10.621-10.365,13.69c-4.519,2.827-10.56,3.59-15.058,0.259
			c-2.279-1.687-3.427-4.37-4.598-6.858c-1.134-2.41-2.381-4.819-4.4-6.615c-3.931-3.498-9.261-4.382-13.639-7.112
			C322.453,424.505,320.389,418.387,321.392,412.64z"/>
		<path d="M340.866,380.564c0.689,2.686,3.07,5.372,6.05,5.189c3.062-0.188,5.126-2.679,5.516-5.594
			c0.185-1.386-0.082-2.789-0.564-4.088c-0.259-0.7-0.563-1.526-1.062-2.095c-0.181-0.207-2.331-1.927-3.449-2.191
			c-1.565-0.369-3.416-0.311-4.673,0.811c-1.02,0.91-1.527,2.324-1.804,3.628C340.578,377.648,340.501,379.143,340.866,380.564z
			 M343.997,376.162c0.15-0.479,0.232-0.649,0.458-1.054c-0.003,0.005,0.048-0.069,0.074-0.11c0.044-0.046,0.128-0.139,0.141-0.152
			c0.044-0.042,0.054-0.055,0.054-0.059c0.077-0.049,0.169-0.099,0.247-0.127c0.23-0.082,0.637-0.089,0.972-0.07
			c0.105,0.006,0.208,0.016,0.312,0.026c0.012,0.001,0.082,0.013,0.124,0.02c0.166,0.034,0.332,0.077,0.493,0.128
			c0.119,0.038,0.238,0.078,0.353,0.128c0.022,0.013,0.038,0.022,0.076,0.044c0.153,0.092,0.305,0.179,0.449,0.287
			c0.006,0.004,0.003,0.001,0.007,0.005c0.007,0.009,0.004,0.008,0.027,0.032c0.044,0.046,0.823,0.976,0.928,1.039
			c0.02,0.037,0.039,0.076,0.057,0.112c0.11,0.226,0.217,0.456,0.306,0.692c0.159,0.42,0.298,0.963,0.371,1.445
			c0.133,0.875,0.045,1.733-0.335,2.551c-0.521,1.12-1.841,2.009-3.095,1.554c-1.436-0.521-2.305-2.234-2.39-3.763
			C343.573,377.955,343.719,377.049,343.997,376.162z"/>
		<path d="M355.076,377.238c0.823,3.476,3.212,6.803,7.042,7.081c3.879,0.281,6.264-3.359,7.191-6.661
			c0.973-3.466,0.636-7.278-1.132-10.434c-0.181-0.324-0.426-0.532-0.696-0.649c-2.709-2.694-7.179-2.347-9.876,0.232
			C354.806,369.482,354.215,373.597,355.076,377.238z M360.005,368.684c1.642-1.353,4.142-1.401,5.59,0.25
			c0.047,0.054,0.098,0.094,0.148,0.138c1.248,2.514,1.423,5.413,0.58,8.098c-0.617,1.965-1.974,4.58-4.438,4.105
			c-2.545-0.49-3.661-3.24-4.048-5.514C357.404,373.215,357.931,370.393,360.005,368.684z"/>
		<path d="M375.231,393.516c1.805,1.281,4.167,1.783,6.339,1.392c2.241-0.403,4.023-1.898,5.408-3.628
			c2.777-3.465,3.406-7.706,3.583-12.04l-0.167-1.452c-1.054-4.189-5.47-6.68-9.801-5.818
			C371.501,373.782,367.267,387.866,375.231,393.516z M374.577,381.552c1.046-3.169,3.411-6.066,6.83-6.682
			c2.8-0.504,6.095,1.297,6.228,4.381c0.009,0.214,0.059,0.402,0.133,0.571c-0.237,3.412-1.001,6.917-3.154,9.646
			c-0.939,1.191-2.168,2.251-3.702,2.513c-1.552,0.265-3.216-0.247-4.411-1.255C373.839,388.481,373.548,384.67,374.577,381.552z"/>
		<path d="M384.311,402.956c0.218,1.796,1.255,3.367,2.646,4.48c2.924,2.341,7.019,2.147,10.064,0.134
			c3.344-2.21,5.093-5.93,5.787-9.778c0.089-0.495-0.016-0.979-0.292-1.349c-0.242-1.313-0.842-2.564-1.753-3.539
			c-1.521-1.629-3.625-2.134-5.782-1.788c-3.703,0.595-7.258,3.031-9.255,6.185C384.662,398.984,384.069,400.961,384.311,402.956z
			 M388.718,398.24c1.62-2.182,4.348-3.879,7.06-4.219c2.451-0.307,4.037,1.856,3.844,4.156c-0.005,0.061,0.002,0.115,0.003,0.173
			c-0.665,2.659-1.906,5.289-4.302,6.757c-2.065,1.265-4.698,1.532-6.645-0.114C386.478,403.135,387.195,400.291,388.718,398.24z"/>
		<path d="M388.82,422.893c1.544,2.052,4.529,2.934,6.97,2.22c2.686-0.786,4.625-2.931,5.632-5.48
			c0.722-1.149,0.922-2.575,0.47-3.894c-0.562-1.642-1.922-2.829-3.542-3.39c-2.875-0.995-6.561,0.158-8.654,2.289
			C387.527,416.846,386.892,420.331,388.82,422.893z M390.68,418.888c0.17-0.975,0.642-1.686,1.312-2.296
			c0.625-0.568,1.529-1.053,2.34-1.292c1.033-0.305,2.12-0.435,3.157-0.076c0.677,0.234,1.236,0.709,1.53,1.358
			c-0.017,0.006,0.133,0.522,0.114,0.368c0.025,0.195,0.015,0.414-0.019,0.61c-0.015,0.008-0.113,0.299-0.129,0.366
			c-0.031,0.047-0.099,0.16-0.109,0.176c-0.013,0.019-0.017,0.028-0.023,0.038c-0.02,0.02-0.042,0.04-0.075,0.075
			c-0.292,0.298-0.453,0.687-0.465,1.077c-0.736,1.437-2.015,2.659-3.564,2.99c-0.042,0.009-0.25,0.044-0.315,0.058
			c-0.058,0.004-0.161,0.012-0.18,0.013c-0.223,0.007-0.442-0.009-0.664-0.02c-0.018-0.001-0.099-0.01-0.132-0.012
			c-0.073-0.014-0.147-0.028-0.22-0.045c-0.216-0.051-0.428-0.115-0.637-0.191c-0.048-0.018-0.142-0.058-0.174-0.07
			c-0.091-0.045-0.182-0.092-0.27-0.142c-0.168-0.096-0.327-0.204-0.483-0.318c-0.022-0.027-0.242-0.214-0.292-0.267
			c-0.066-0.069-0.126-0.145-0.192-0.214c-0.024-0.025-0.037-0.037-0.053-0.053c-0.005-0.008-0.006-0.011-0.013-0.023
			C390.676,420.31,390.549,419.64,390.68,418.888z"/>
		<path d="M303.69,444.68c-23.128,4.613-46.899,5.927-70.398,3.944c-6.737-0.569-13.447-1.432-20.115-2.547
			c-1.896-0.317-2.571,2.607-0.659,2.927c23.753,3.972,48.048,4.59,71.965,1.749c6.729-0.799,13.424-1.873,20.069-3.198
			C306.448,447.176,305.568,444.305,303.69,444.68z"/>
		<path d="M219.957,372.085c-1.537-8.997-6.062-17.347-12.684-23.618c-1.402-1.328-3.449,0.865-2.046,2.194
			c6.271,5.938,10.403,13.78,11.856,22.286c0.138,0.805,1.157,1.211,1.868,1.006C219.808,373.706,220.092,372.88,219.957,372.085z"
			/>
		<path d="M408.282,354.822c-4.399-10.329-11.198-19.384-21.69-24.042c-3.815-1.694-7.755-2.774-11.748-3.339
			c-1.489-10.365-6.396-20-14-27.223c-1.4-1.33-3.447,0.863-2.046,2.194c6.885,6.541,11.519,15.305,12.977,24.695
			c-17.351-1.309-35.377,6.764-48.45,17.703c-8.948,7.488-16.206,17.068-20.545,27.927c-0.709,1.774,1.942,3.187,2.66,1.39
			c7.428-18.59,23.401-33.026,41.992-40.057c10.651-4.028,22.421-5.594,33.47-2.23c5.091,1.55,9.881,4.154,13.797,7.773
			c3.865,3.572,6.806,7.994,9.145,12.684c2.762,5.539,4.838,11.543,6.207,17.574c1.498,6.601,1.877,13.471,0.051,20.045
			c-0.517,1.861,2.411,2.519,2.927,0.659C416.326,378.709,412.978,365.85,408.282,354.822z"/>
		<path d="M209.375,318.234c-1.147-3.156-2.654-7.142-6.214-8.101c-1.865-0.502-2.524,2.425-0.659,2.927
			c1.313,0.354,1.861,1.479,2.463,2.6c0.742,1.38,1.349,2.82,1.837,4.308c0.973,2.97,1.421,6.042,1.378,9.165
			c-0.027,1.935,2.972,1.823,2.998-0.105C211.229,325.367,210.626,321.679,209.375,318.234z"/>
		<path d="M205.746,329.96c-0.304-1.696-0.909-3.324-1.728-4.838c-0.374-0.691-1.419-0.93-2.064-0.492
			c-0.704,0.478-0.892,1.324-0.492,2.064c0.142,0.262,0.27,0.53,0.396,0.8c0.463,1.068,0.808,2.182,1.014,3.329
			c0.064,0.358,0.436,0.739,0.742,0.899c0.32,0.167,0.779,0.228,1.126,0.107c0.372-0.129,0.727-0.375,0.899-0.742
			C205.814,330.71,205.818,330.366,205.746,329.96z"/>
		<path d="M243.632,148.219c-0.982,1.974-3,3.158-5.225,2.748c-2.274-0.418-4.341-2.518-6.159-3.843
			c-0.585-0.427-1.607-0.649-2.12,0.074c-1.121,1.579-2.366,3.464-4.204,4.273c-2.043,0.899-4.308-0.069-5.952-1.34
			c-1.514-1.172-3.575,1.011-2.046,2.194c1.38,1.067,2.964,1.925,4.643,2.29c1.43,3.604,4.854,7.122,8.979,6.963
			c4.425-0.171,7.384-3.871,8.962-7.645c0.001-0.002,0.001-0.005,0.002-0.007c2.481-0.404,4.64-2.027,5.78-4.318
			C247.15,147.884,244.495,146.484,243.632,148.219z M231.679,158.567c-2.479,0.196-4.657-1.799-5.824-3.946
			c0.072-0.016,0.144-0.02,0.216-0.038c2.34-0.605,4.033-2.382,5.456-4.258c1.784,1.381,3.64,2.82,5.775,3.42
			C236.157,156.055,234.402,158.352,231.679,158.567z"/>
		<path d="M245.888,120.23c-5.412-4.721-13.537-3.632-20.086-2.741c-3.331,0.453-6.694,1.023-9.287,3.341
			c-2.55,2.28-3.387,5.658-2.64,8.947c0.809,3.558,3.374,6.641,6.047,9.001c2.763,2.44,5.97,4.323,9.242,5.991
			c2.482,1.739,5.608,0.297,7.938-1.256c2.85-1.899,5.76-3.942,8.092-6.472C249.507,132.363,251.223,124.885,245.888,120.23z
			 M244.776,132.683c-1.515,2.522-3.906,4.442-6.241,6.166c-1.342,0.99-2.708,1.981-4.137,2.842
			c-1.161,0.699-2.609,1.44-3.791,0.629l-1.081-0.747c-4.281-2.254-8.537-5-11.211-9.112c-1.445-2.222-2.426-5.158-1.134-7.684
			c1.21-2.364,3.745-3.385,6.21-3.887c2.957-0.602,6.026-0.867,9.034-1.046c2.844-0.169,5.85-0.195,8.544,0.869
			c2.157,0.852,4.189,2.435,4.968,4.688C246.781,127.843,246.064,130.538,244.776,132.683z"/>
		<path d="M230.452,137.393c-0.969-3.871-4.02-6.958-7.784-8.175c-0.749-0.242-1.659,0.387-1.793,1.134
			c-0.154,0.859,0.333,1.534,1.134,1.793c0.085,0.028,0.198,0.048,0.28,0.093c0.014,0.007,0.029,0.016,0.041,0.021
			c0.193,0.078,0.383,0.163,0.57,0.253c0.359,0.173,0.707,0.369,1.043,0.585c0.076,0.049,0.15,0.099,0.224,0.149
			c0.015,0.011,0.031,0.022,0.046,0.034c0.153,0.115,0.302,0.233,0.449,0.356c0.319,0.268,0.622,0.556,0.906,0.86
			c0.071,0.076,0.141,0.153,0.21,0.232c0.011,0.012,0.028,0.027,0.043,0.041c0.121,0.116,0.226,0.292,0.319,0.421
			c0.234,0.323,0.449,0.66,0.644,1.009c0.102,0.182,0.194,0.368,0.287,0.554c0.007,0.014,0.009,0.017,0.014,0.028
			c0.039,0.095,0.079,0.189,0.116,0.285c0.152,0.388,0.275,0.786,0.376,1.19c0.191,0.763,1.127,1.263,1.868,1.006
			C230.244,138.984,230.656,138.207,230.452,137.393z"/>
		<path d="M244.246,128.821c-0.286-0.822-1.046-1.179-1.868-1.006c-1.885,0.396-3.483,1.693-4.668,3.161
			c-0.636,0.789-1.2,1.635-1.761,2.478c-0.56,0.841-1.069,1.732-1.249,2.741c-0.137,0.772,0.312,1.645,1.134,1.793
			c0.77,0.138,1.646-0.308,1.793-1.134c0.033-0.185,0.08-0.365,0.137-0.543c0.012-0.028,0.027-0.063,0.045-0.104
			c0.043-0.096,0.089-0.19,0.138-0.283c0.195-0.375,0.427-0.73,0.661-1.081c0.226-0.339,0.453-0.678,0.685-1.012
			c0.02-0.029,0.039-0.055,0.055-0.078c0.054-0.074,0.108-0.149,0.163-0.223c0.128-0.172,0.259-0.342,0.393-0.509
			c0.255-0.317,0.525-0.623,0.813-0.911c0.138-0.138,0.284-0.267,0.428-0.399c0.006-0.006,0.003-0.003,0.008-0.008
			c0.078-0.057,0.153-0.117,0.231-0.174c0.158-0.114,0.321-0.222,0.488-0.321c0.096-0.057,0.284-0.203,0.424-0.253
			c-0.049,0.021-0.07,0.044,0.053-0.002c0.091-0.034,0.18-0.069,0.272-0.1c0.203-0.068,0.408-0.121,0.617-0.165
			C244.01,130.527,244.497,129.542,244.246,128.821z"/>
		<path d="M264.007,135.063c-1.147-4.032-3.154-7.839-5.267-11.439c-4.342-7.398-9.585-14.241-13.118-22.101
			c-1.776-3.95-2.918-8.062-4.313-12.145c-1.259-3.685-3.199-7.286-6.752-9.195c-1.524-0.819-3.245-1.208-4.97-1.055
			c-0.05,0.004-0.094,0.018-0.141,0.027c-7.738,0.266-11.324,8.92-13.604,15.337c-2.82,7.939-4.449,16.226-6.736,24.321
			c-1.143,4.048-2.452,8.054-4.174,11.896c-1.692,3.776-3.947,7.341-5.054,11.358c-2.193,7.952,2.481,16.22,8.07,21.635
			c3.073,2.978,6.778,5.204,10.578,7.125c3.754,1.898,7.732,3.761,11.949,4.291c7.956,0.999,15.362-3.774,21.017-8.921
			c5.558-5.059,9.856-11.576,12.226-18.713C265.082,143.373,265.193,139.232,264.007,135.063z M259.016,151.14
			c-1.46,3.041-3.276,5.901-5.423,8.502c-2.186,2.647-4.678,5.053-7.443,7.09c-2.846,2.096-6.024,4.061-9.447,5.031
			c-3.848,1.091-7.807,0.29-11.453-1.145c-3.677-1.447-7.309-3.294-10.626-5.443c-3.115-2.018-5.875-4.583-8.019-7.619
			c-2.166-3.068-4.133-6.79-4.323-10.61c-0.189-3.777,1.563-7.273,3.219-10.554c1.71-3.387,3.24-6.81,4.494-10.394
			c2.561-7.319,4.136-14.928,6.172-22.398c1.012-3.711,2.129-7.403,3.56-10.977c1.316-3.286,2.846-6.999,5.876-9.076
			c1.164-0.798,2.526-1.363,3.94-1.424c0.051,0,0.097,0.006,0.15,0.002c0.069-0.006,0.135-0.004,0.204-0.008
			c0.168,0.003,0.335,0.007,0.504,0.026c0.145,0.016,0.279,0.008,0.409-0.01c2.922,0.278,5.147,2.661,6.453,5.225
			c1.784,3.503,2.512,7.523,3.904,11.191c2.813,7.411,6.97,13.999,11.259,20.62c2.089,3.225,4.146,6.48,5.898,9.904
			c1.755,3.43,3.345,7.159,3.546,11.055C262.066,143.969,260.654,147.73,259.016,151.14z"/>
		<path d="M205.269,108.819c-5.693,9.831-16.299,0.517-11.099-8.08C198.992,90.627,209.953,101.009,205.269,108.819z"/>
		<path d="M255.739,103.958c5.693,9.831,16.299,0.517,11.099-8.08C262.016,85.766,251.055,96.147,255.739,103.958z"/>
		<path d="M401.76,163.064c-2.701-11.638-6.103-24.374-16.909-31.108c-1.637-1.02-3.023,1.642-1.39,2.66
			c10.006,6.235,12.942,18.609,15.425,29.31C399.324,165.812,402.195,164.937,401.76,163.064z"/>
		<path d="M408.367,161.503c-0.651-4.73-2.095-9.261-4.328-13.484c-0.379-0.716-1.406-0.897-2.064-0.492
			c-0.729,0.449-0.872,1.345-0.492,2.064c1.975,3.736,3.309,7.828,3.886,12.017c0.11,0.802,0.684,1.477,1.551,1.447
			C407.667,163.029,408.478,162.31,408.367,161.503z"/>
	</g>
	<g>
		<path d="M103.6,425.319c-4.062-7.095-10.148-13.536-17.398-17.433c-1.71-0.919-3.771-1.367-5.415-0.064
			c-1.307,1.036-1.705,2.753-1.696,4.35c0.011,1.904,0.642,3.81,1.218,5.603c0.666,2.073,1.479,4.092,2.398,6.065
			c1.117,2.395,2.437,4.679,3.92,6.852c-2.368-1.156-4.76-2.262-7.207-3.243c-2.945-1.181-6.9-2.793-9.925-0.849
			c-1.331,0.856-1.988,2.339-1.773,3.895c0.309,2.23,2.295,4.135,3.598,5.853c2.507,3.304,5.014,6.608,7.522,9.911
			c-7.8,0.084-15.602,0.209-23.401,0.199c-6.997-0.009-15.628-0.985-18.931-8.189c-0.804-1.753-3.351-0.162-2.556,1.572
			c3.445,7.512,12.268,9.431,19.744,9.596c9.382,0.207,18.802-0.127,28.185-0.212c1.055-0.01,1.915-1.376,1.226-2.285
			c-2.581-3.401-5.162-6.802-7.743-10.203c-1.269-1.672-2.584-3.317-3.808-5.022c-0.612-0.853-1.481-2.15-0.166-2.728
			c1.061-0.467,2.464-0.266,3.546,0.006c1.802,0.453,3.559,1.283,5.26,2.019c3.74,1.62,7.37,3.478,10.997,5.334
			c1.578,0.808,2.808-1.204,1.718-2.427c-4.9-5.499-8.478-12.128-10.388-19.241c-0.324-1.208-0.68-2.605-0.282-3.843
			c0.543-1.691,2.472-0.367,3.439,0.216c2.986,1.801,5.73,3.976,8.2,6.436c2.81,2.799,5.193,5.961,7.163,9.401
			C102.006,428.57,104.558,426.992,103.6,425.319z"/>
		<path d="M475.191,450.571c-6.302,3.963-14.053,5.804-21.458,4.69c-1.481-0.223-2.964-0.583-4.27-1.34
			c-1.593-0.923-2.06-2.263-2.595-3.944c-1.027-3.223-3.585-5.352-6.83-6.184c-1.704-0.437-3.416-0.441-5.11-0.197
			c2.015-1.62,4.03-3.24,6.044-4.861c1.465-1.178,3.326-2.575,2.663-4.732c-0.475-1.547-2.136-2.323-3.62-2.539
			c-1.921-0.28-3.907,0.197-5.786,0.579c-2.248,0.456-4.465,1.067-6.63,1.825c-1.435,0.502-2.836,1.088-4.22,1.712
			c0.614-0.792,1.208-1.601,1.783-2.425c1.159-1.661,2.241-3.382,3.208-5.162c0.761-1.401,1.427-3.064,0.99-4.679
			c-1.067-3.941-7.003-2.05-9.659-1.236c-3.827,1.172-7.292,3.14-10.35,5.705c-1.476,1.238,0.731,3.273,2.194,2.046
			c2.363-1.981,5.11-3.539,8.021-4.551c1.46-0.508,2.97-0.907,4.498-1.147c0.429-0.067,1.984-0.477,2.355-0.122
			c0.251,0.24,0,0.981-0.078,1.231c-0.415,1.341-1.321,2.617-2.051,3.803c-0.841,1.365-1.739,2.695-2.703,3.977
			c-1.96,2.607-4.147,5.027-6.518,7.265c-1.227,1.158,0.487,3.25,1.883,2.301c6.131-4.168,13.163-7.018,20.514-8.085
			c0.592-0.086,3.055-0.461,3.343,0.435c0.007,0.021-0.986,0.904-1.22,1.092c-0.82,0.66-1.641,1.32-2.461,1.979
			c-3.282,2.639-6.563,5.278-9.845,7.917c-1.196,0.961-0.524,3.388,1.217,2.715c3.51-1.357,7.431-2.955,11.223-1.823
			c1.445,0.432,2.84,1.29,3.649,2.589c0.951,1.526,1.006,3.426,2.102,4.903c1.894,2.552,5.122,3.57,8.151,3.955
			c3.764,0.478,7.548,0.33,11.27-0.398c4.207-0.822,8.241-2.458,11.867-4.738C478.399,452.098,476.826,449.542,475.191,450.571z"/>
		<path d="M427.193,402.526c-5.098,3.331-9.576,7.581-13.119,12.535c-0.471,0.659-0.574,1.516,0.074,2.12
			c0.533,0.497,1.645,0.59,2.12-0.074c3.393-4.744,7.613-8.834,12.497-12.025C430.381,404.027,428.811,401.469,427.193,402.526z"/>
		<path d="M431.457,412.456c-0.252-0.724-1.084-1.301-1.868-1.006l-8.268,3.109c-0.733,0.276-1.284,1.067-1.006,1.868
			c0.252,0.724,1.084,1.301,1.868,1.006c2.756-1.036,5.512-2.073,8.268-3.109C431.185,414.049,431.736,413.257,431.457,412.456z"/>
		<path d="M101.926,413.397c-3.355-6.084-7.151-11.914-11.357-17.444c-0.49-0.644-1.326-0.947-2.064-0.492
			c-0.637,0.392-0.985,1.416-0.492,2.064c4.206,5.53,8.002,11.36,11.357,17.444C100.304,416.663,102.856,415.082,101.926,413.397z"
			/>
	</g>
</g>
</svg>
