<?xml version="1.0" encoding="utf-8"?>
<!-- Generator: Adobe Illustrator 27.5.0, SVG Export Plug-In . SVG Version: 6.00 Build 0)  -->
<svg xmlns="http://www.w3.org/2000/svg" xmlns:xlink="http://www.w3.org/1999/xlink" viewBox="0 0 500 500" width="595" height="842" preserveAspectRatio="xMidYMid meet" data-scaled="true">
<g id="BACKGROUND">
</g>
<g id="OBJECTS">
	<g>
		<g>
			
				<polygon style="fill:none;stroke:#222221;stroke-width:3;stroke-linecap:round;stroke-linejoin:round;stroke-miterlimit:10;" points="
				306.195,329.628 336.582,292.426 388.449,299.055 402.35,354.454 371.267,383.085 320.844,373.794 			"/>
			
				<polyline style="fill:none;stroke:#222221;stroke-width:3;stroke-linecap:round;stroke-linejoin:round;stroke-miterlimit:10;" points="
				358.474,305.929 380.082,308.691 390.531,350.331 367.168,371.851 329.268,364.867 318.258,331.671 341.098,303.708 			"/>
		</g>
		<g>
			
				<polyline style="fill:none;stroke:#222221;stroke-width:3;stroke-linecap:round;stroke-linejoin:round;stroke-miterlimit:10;" points="
				402.35,354.454 455.114,361.741 469.834,412.527 438.751,441.158 388.327,431.867 			"/>
			
				<polyline style="fill:none;stroke:#222221;stroke-width:3;stroke-linecap:round;stroke-linejoin:round;stroke-miterlimit:10;" points="
				390.541,404.216 385.741,389.744 407.509,365.762 446.747,371.377 458.015,408.404 434.652,429.924 396.752,422.94 			"/>
		</g>
		<g>
			
				<polyline style="fill:none;stroke:#222221;stroke-width:3;stroke-linecap:round;stroke-linejoin:round;stroke-miterlimit:10;" points="
				371.267,383.085 388.809,431.551 354.122,471.647 303.437,464.59 284.379,409.72 320.844,373.794 			"/>
			
				<polyline style="fill:none;stroke:#222221;stroke-width:3;stroke-linecap:round;stroke-linejoin:round;stroke-miterlimit:10;" points="
				349.629,459.235 311.768,453.963 297.533,412.976 324.771,386.14 362.437,393.08 375.54,429.283 360.403,446.781 			"/>
		</g>
	</g>
	<g>
		<g>
			<g>
				<path style="fill:none;stroke:#222221;stroke-width:3;stroke-linecap:round;stroke-linejoin:round;stroke-miterlimit:10;" d="
					M302.229,221.344c-6.546-0.285-11.852,0.926-11.852,0.926s-3.288-3.745-8.777-6.346"/>
				<path style="fill:none;stroke:#222221;stroke-width:3;stroke-linecap:round;stroke-linejoin:round;stroke-miterlimit:10;" d="
					M278.402,214.65c-8.308-2.693-20.152-1.801-32.977,14.153c-24.224,30.135,10,60.803,35.27,71.694
					c0,0,38.23-14.111,44.423-42.966c5.544-25.828-6.455-33.683-17.836-35.654"/>
			</g>
			<g>
				<g>
					<path style="fill:#222221;" d="M269.07,224.636c-6.354-3.363-19.841,3.309-18.479,18.254
						c1.908,20.937,23.827,17.135,27.012,5.399C280.788,236.553,276.927,228.794,269.07,224.636z"/>
					<path style="fill:none;stroke:#222221;stroke-width:3;stroke-linecap:round;stroke-linejoin:round;stroke-miterlimit:10;" d="
						M279.855,252.887c0,0-4.103,17.076-24.031,7.551"/>
				</g>
				<g>
					<path style="fill:#222221;" d="M311.159,235.987c6.821-0.465,15.921,11.146,8.919,24.221
						c-9.81,18.318-27.341,5.872-25.533-6.139C296.353,242.058,302.724,236.561,311.159,235.987z"/>
					<path style="fill:none;stroke:#222221;stroke-width:3;stroke-linecap:round;stroke-linejoin:round;stroke-miterlimit:10;" d="
						M290.514,256.387c-1.855,12.145,10.827,20.017,21.618,16.503"/>
				</g>
			</g>
			<g>
				<path style="fill:none;stroke:#222221;stroke-width:3;stroke-linecap:round;stroke-linejoin:round;stroke-miterlimit:10;" d="
					M276.911,218.028c0,0,20.82-40.341,29.034-44.916c8.214-4.575,76.773-15.915,74.277-10.124
					c-2.496,5.791-45.568,13.757-72.852,12.611c0,0-21.64,29.955-27.073,43.264C280.297,218.863,277.855,220.804,276.911,218.028z"
					/>
				<path style="fill:none;stroke:#222221;stroke-width:3;stroke-linecap:round;stroke-linejoin:round;stroke-miterlimit:10;" d="
					M300.192,224.834c0,0,23.243-36.079,32.038-39.405c8.794-3.326,75.361,6.907,72.046,12.271
					c-3.315,5.364-44.973-3.151-71.796-8.271c0,0-19.625,21.25-27.875,35.375C304.605,224.804,304.222,228.672,300.192,224.834z"/>
			</g>
		</g>
		<g>
			<g>
				<path style="fill:none;stroke:#222221;stroke-width:3;stroke-linecap:round;stroke-linejoin:round;stroke-miterlimit:10;" d="
					M78.2,361.896c0,0-34.694,58.291-33.641,58.745c1.053,0.454,49.87-44.259,49.87-44.259"/>
				<g>
					<g>
						<path style="fill:none;stroke:#222221;stroke-width:3;stroke-linecap:round;stroke-linejoin:round;stroke-miterlimit:10;" d="
							M219.161,319.32c1.695-5.958,2.632-11.135,2.681-17.45"/>
						<path style="fill:none;stroke:#222221;stroke-width:3;stroke-linecap:round;stroke-linejoin:round;stroke-miterlimit:10;" d="
							M149.348,383.692c27.972-6.524,53.067-25.761,64.876-51.696"/>
						<path style="fill:none;stroke:#222221;stroke-width:3;stroke-linecap:round;stroke-linejoin:round;stroke-miterlimit:10;" d="
							M188.121,202.441c0,0-50.781-26.047-92.785,24.099s-39.811,119.312-7.17,145.061c11.157,8.801,23.966,13.238,37.141,14.144"/>
					</g>
					<g>
						<g>
							
								<path style="fill:none;stroke:#222221;stroke-width:3;stroke-linecap:round;stroke-linejoin:round;stroke-miterlimit:10;" d="
								M217.574,309.572c2.772-0.377,3.376-0.804,3.376-0.804"/>
							
								<path style="fill:none;stroke:#222221;stroke-width:3;stroke-linecap:round;stroke-linejoin:round;stroke-miterlimit:10;" d="
								M194.118,308.62c3.855,0.855,7.507,1.279,10.804,1.437"/>
							
								<path style="fill:none;stroke:#222221;stroke-width:3;stroke-linecap:round;stroke-linejoin:round;stroke-miterlimit:10;" d="
								M166.688,197.054c0,0-41.608,24.203-16.945,74.159c9.602,19.449,22.521,29.447,34.718,34.404"/>
						</g>
						<g>
							
								<path style="fill:none;stroke:#222221;stroke-width:3;stroke-linecap:round;stroke-linejoin:round;stroke-miterlimit:10;" d="
								M162.108,340.826c18.977,7.31,36.831,6.339,45.219,3.895"/>
							
								<path style="fill:none;stroke:#222221;stroke-width:3;stroke-linecap:round;stroke-linejoin:round;stroke-miterlimit:10;" d="
								M124.022,203.387c0,0-39.383,28.338-12.181,87.696c8.914,19.451,20.831,32.427,33.339,40.899"/>
						</g>
						<g>
							
								<path style="fill:none;stroke:#222221;stroke-width:3;stroke-linecap:round;stroke-linejoin:round;stroke-miterlimit:10;" d="
								M135.632,367.186c23.221,9.582,44.596,4.852,54.27-3.758"/>
							
								<path style="fill:none;stroke:#222221;stroke-width:3;stroke-linecap:round;stroke-linejoin:round;stroke-miterlimit:10;" d="
								M74.355,261.054c0,0-8.024,41.939,28.647,82.401c5.191,5.728,8.994,9.734,14.353,13.599"/>
						</g>
					</g>
				</g>
			</g>
			<g>
				<g>
					<g>
						<path style="fill:none;stroke:#222221;stroke-width:3;stroke-linecap:round;stroke-linejoin:round;stroke-miterlimit:10;" d="
							M194.133,292.159c7.62,0.397,11.222-4.355,11.222-4.355"/>
						<path style="fill:none;stroke:#222221;stroke-width:3;stroke-linecap:round;stroke-linejoin:round;stroke-miterlimit:10;" d="
							M179.361,259.213c0,0-12.876,14.426,2.252,27.605c1.062,0.925,2.091,1.717,3.086,2.39"/>
					</g>
					<path style="fill:none;stroke:#222221;stroke-width:3;stroke-linecap:round;stroke-linejoin:round;stroke-miterlimit:10;" d="
						M193.119,285.728c0,0,3.234,21.827-1.589,26.25c-4.823,4.423-56.578,54.563-56.578,54.563s37.069,38.512,19.689,71.643
						c-1.286,1.536,12.639,4.518,14.521,13.689c1.882,9.17-23.3-9.113-23.3-9.113s-27.745-73.258-28.132-83.641
						c-0.387-10.384,69.602-55.452,69.602-55.452s-6.322-25.945-0.244-24.254C193.167,281.105,193.119,285.728,193.119,285.728z"/>
				</g>
				<path style="fill:none;stroke:#222221;stroke-width:3;stroke-linecap:round;stroke-linejoin:round;stroke-miterlimit:10;" d="
					M215.355,332.387c-6.56,13.335-21.538,49.409-21.538,49.409s38.309,12.624,32.59,51.941c0,0,8.8,0.34,11.614,6.65
					c2.814,6.31-16.362-1.204-16.362-1.204s-37.976-51.225-40.058-58.783c-0.605-2.196,2.032-7.953,6.079-15.017"/>
			</g>
		</g>
		<g>
			<g>
				<g>
					<g>
						<path style="fill:none;stroke:#222221;stroke-width:3;stroke-linecap:round;stroke-linejoin:round;stroke-miterlimit:10;" d="
							M220.176,299.567c5.658,3.919,12.006,7.855,21.52,11.276l1.767-5.065l1.894,6.226c0,0,17.064-0.969,28.784-14.645"/>
						<path style="fill:none;stroke:#222221;stroke-width:3;stroke-linecap:round;stroke-linejoin:round;stroke-miterlimit:10;" d="
							M299.323,179.773c-7.077-7.435-20.289-16.583-42.573-16.836l3.655,4.072c0,0-38.906-12.849-62.05,16.711l6.515,0.137
							c0,0-19.515,17.863-22.181,34.863l7.812-1.521c0,0-26.75,26.341-3.822,53.285l2.215-3.207c0,0,0.884,9.536,10.656,15.829
							l1.464-4.363c0,0,1.927,6.568,10.362,14.538"/>
						<path style="fill:none;stroke:#222221;stroke-width:3;stroke-linecap:round;stroke-linejoin:round;stroke-miterlimit:10;" d="
							M319.943,197.21c-2.681-3.895-6.506-8.063-11.952-12.189l-1.815,4.212c0,0-0.693-1.945-3.696-5.679"/>
						<path style="fill:none;stroke:#222221;stroke-width:3;stroke-linecap:round;stroke-linejoin:round;stroke-miterlimit:10;" d="
							M324.3,234.082c0,0,10.964-11.921,5.614-21.717l-3.872,4.157c0,0,1.367-5.764-3.812-14.968"/>
					</g>
					<g>
						<path style="fill:none;stroke:#222221;stroke-width:3;stroke-linecap:round;stroke-linejoin:round;stroke-miterlimit:10;" d="
							M283.206,182.662c0,0-7.504-11.557-25.173-9.184c0,0,6.868,3.376,10.42,8.652c0,0-4.411-2.317-11.739-1.73
							c0,0,2.548,5.676,11.473,9.106l-4.018,1.598c0,0,7.963,7.594,16.193,7.811"/>
						<path style="fill:none;stroke:#222221;stroke-width:3;stroke-linecap:round;stroke-linejoin:round;stroke-miterlimit:10;" d="
							M221.292,177.619c0,0-6.13,3.601-8.301,10.571c0,0,12.429,7.854,27.853-0.897c0,0-5.936,7.013-6.849,12.03
							c0,0,8.877,2.577,14.559-2.881c0,0-4.58,6.765-4.538,10.529c0,0,11.14,0.223,13.36-5.894"/>
						<path style="fill:none;stroke:#222221;stroke-width:3;stroke-linecap:round;stroke-linejoin:round;stroke-miterlimit:10;" d="
							M236.59,205.852c0,0-9.3,8.06-10.927,18.595c0,0,9.282,0.671,18.685-8.593l-1.47,7.273"/>
						<path style="fill:none;stroke:#222221;stroke-width:3;stroke-linecap:round;stroke-linejoin:round;stroke-miterlimit:10;" d="
							M197.343,208.08c0,0-3.225,6.517-0.024,11.642c0,0,3.661,1.162,10.51-10.868c0,0-0.811,3.812,2.391,8.937
							c0,0,6.68-2.947,8.447-8.012"/>
						<path style="fill:none;stroke:#222221;stroke-width:3;stroke-linecap:round;stroke-linejoin:round;stroke-miterlimit:10;" d="
							M200.951,235.437c0,0-14.691,18.638-4.622,27.139c0,0,11.049-4.394,16.591-15.322c0,0-5.24,10.226-1.445,19.769
							c0,0,5.422-0.993,10.062-12.726c0,0-0.266,7.376,3.389,11.448c0,0,8.344-6.808,3.939-12.036"/>
						<path style="fill:none;stroke:#222221;stroke-width:3;stroke-linecap:round;stroke-linejoin:round;stroke-miterlimit:10;" d="
							M230.733,273.033c0,0-8.701,9.567-0.943,19.569c0,0,7.428-0.336,9.297-6.605c0,0-0.968,7.074,1.029,12.096
							c0,0,7.08-1.943,9.548-6.705c0,0-1.01,3.31,2.79,9.942l1.718-5.918l3.256,3.068l2.565-3.056"/>
					</g>
				</g>
				<g>
					<g>
						<path style="fill:none;stroke:#222221;stroke-width:3;stroke-linecap:round;stroke-linejoin:round;stroke-miterlimit:10;" d="
							M260.47,344.528c0,0-43.396-18.078-44.649-31.103c0,0,9.021-31.069,9.056-48.532"/>
						<path style="fill:none;stroke:#222221;stroke-width:3;stroke-linecap:round;stroke-linejoin:round;stroke-miterlimit:10;" d="
							M216.373,264.348c0,0-1.034,27.021-11.235,46.345c-10.201,19.324,48.017,40.67,48.017,40.67
							c-0.608,2.859,3.622,14.046,3.622,14.046c7.302-0.286,4.565-5.523,4.565-5.523l1.757,6.063
							c4.524-3.98,1.111-9.821,1.111-9.821l3.223,7.007c6.566-8.718-1.471-16.864-6.962-18.607"/>
					</g>
					<g>
						<path style="fill:none;stroke:#222221;stroke-width:3;stroke-linecap:round;stroke-linejoin:round;stroke-miterlimit:10;" d="
							M290.831,335.153c0,0-40.401-12.208-42.457-23.859"/>
						<path style="fill:none;stroke:#222221;stroke-width:3;stroke-linecap:round;stroke-linejoin:round;stroke-miterlimit:10;" d="
							M238.55,309.592c-7.82,18.144,46.173,32.242,46.173,32.242"/>
						<path style="fill:none;stroke:#222221;stroke-width:3;stroke-linecap:round;stroke-linejoin:round;stroke-miterlimit:10;" d="
							M290.831,335.153c5.074,1.18,12.898,7.951,7.599,16.276l-3.403-6.087c0,0,3.492,5.022-0.303,8.931l-2.014-5.34
							c0,0,2.839,4.526-3.722,5.303c0,0-4.608-9.782-4.264-12.403"/>
					</g>
				</g>
			</g>
			<g>
				<g>
					<path style="fill:none;stroke:#222221;stroke-width:3;stroke-linecap:round;stroke-linejoin:round;stroke-miterlimit:10;" d="
						M215.355,168.387c0,0-11.217-114.174-58.9-131.781c-99.113-36.597-53.049,63.573,39.234,156.448"/>
					<g>
						<path style="fill:none;stroke:#222221;stroke-width:3;stroke-linecap:round;stroke-linejoin:round;stroke-miterlimit:10;" d="
							M120.709,67.488c0,0,32.501,16.374,54.856,50.391c22.355,34.017,28.456,58.841,28.456,58.841"/>
						<path style="fill:none;stroke:#222221;stroke-width:3;stroke-linecap:round;stroke-linejoin:round;stroke-miterlimit:10;" d="
							M163.238,62.221c0,0,6.088,20.43,4.117,43.833"/>
					</g>
				</g>
				<g>
					<path style="fill:none;stroke:#222221;stroke-width:3;stroke-linecap:round;stroke-linejoin:round;stroke-miterlimit:10;" d="
						M223.022,166.054c0,0-11.173-117.197,40.22-138.096c108.782-44.237-16.552,136.43-16.552,136.43"/>
					<g>
						<path style="fill:none;stroke:#222221;stroke-width:3;stroke-linecap:round;stroke-linejoin:round;stroke-miterlimit:10;" d="
							M290.69,47.054c0,0-51.668,39.333-56.335,116.667"/>
						<path style="fill:none;stroke:#222221;stroke-width:3;stroke-linecap:round;stroke-linejoin:round;stroke-miterlimit:10;" d="
							M258.023,51.054c0,0-5.333,22-4,41.333"/>
					</g>
				</g>
			</g>
		</g>
	</g>
</g>
</svg>
