<?xml version="1.0" encoding="utf-8"?>
<!-- Generator: Adobe Illustrator 27.5.0, SVG Export Plug-In . SVG Version: 6.00 Build 0)  -->
<svg version="1.1" id="Layer_1" xmlns="http://www.w3.org/2000/svg" xmlns:xlink="http://www.w3.org/1999/xlink" x="0px" y="0px"
	 viewBox="0 0 5000 3000" style="enable-background:new 0 0 5000 3000;" xml:space="preserve">
<rect x="4.348" y="6.261" style="fill:#FFFFFF;stroke:#000000;stroke-width:5;stroke-miterlimit:10;" width="2495.652" height="2995.652"/>
<rect x="2500" y="6.261" style="fill:#FFFFFF;stroke:#000000;stroke-width:5;stroke-miterlimit:10;" width="2495.652" height="2995.652"/>
<g>
	<g>
		<g id="XMLID_33_">
			<g>
				<path style="fill:#D7E0E5;" d="M2325.419,2117c0,0,27.419,283.846-284.323,254.758
					c69.144-54.361,135.545-138.287,177.866-267.872C2218.961,2103.887,2249.241,2149.069,2325.419,2117z"/>
				<path style="fill:#D7E0E5;" d="M1532.653,2460.572c0,0-46.135,7.629-50.904-30.28c-6.08,1.788-205.165,57.699-362.407-23.127
					c-28.611,28.73-69.501,58.772-120.763,68.19c-49.95,9.06-89.886,0.596-109.795-19.193c-15.617,22.412-73.316,25.869-94.655-7.51
					c-26.942-10.729-38.386-25.511-40.771-41.486c-36.36-16.213-40.89-41.963-28.015-66.044c-7.153-1.073-14.067-2.503-20.624-4.292
					c-101.927-26.704-128.273-122.432-128.273-122.432c64.494-26.584,94.536-115.875,161.295-141.983
					c71.647-28.253,211.603-159.984,230.439-372.779s-118.736-225.789-155.215-359.665c-6.914-25.631-9.656-49.593-9.418-72.243
					c0,0,197.774-129.704,487.223-163.56c289.568-33.856,573.295,56.149,720.523,186.926
					c147.109,130.657,323.425,440.253,211.126,802.065c-1.073,3.576-2.265,7.153-3.457,10.729
					c-42.321,129.584-108.722,213.51-177.866,267.872c-118.259,92.986-244.744,99.424-273.832,100.616
					c-44.943,1.907-134.353,47.447-150.804,11.563C1583.676,2502.177,1545.051,2490.137,1532.653,2460.572z"/>
				<path style="fill:#97D8E8;" d="M717.713,1696.656c0,0,85.595,185.376-129.823,166.54
					C592.182,1732.419,669.789,1702.497,717.713,1696.656z"/>
				<path style="fill:#D7E0E5;" d="M717.713,1696.656c-47.924,5.841-125.531,35.764-129.823,166.54
					C803.308,1882.032,717.713,1696.656,717.713,1696.656z M513.382,1282.152c21.816-1.55,41.724-1.311,59.964,0.239
					c0,0,0,0,0.119,0c2.503-0.477,33.737-7.987,33.737-114.206c0-110.51,62.348-502.006,85.833-581.997
					c23.485-79.992,130.538-82.257,205.761,78.8c75.223,161.057-9.418,302.205-25.869,376.236
					c-13.352,59.964-68.19,130.657-69.382,226.505c-0.239,22.65,2.503,46.612,9.418,72.243
					c36.479,133.876,174.051,146.87,155.215,359.665s-158.792,344.526-230.439,372.779
					c-66.759,26.108-96.801,115.398-161.295,141.983c-4.768,2.027-9.895,3.696-15.14,4.888
					c-37.194,8.703-72.005,15.855-103.358,8.464c-17.167,3.457-33.022,4.649-47.804,3.815
					c-192.052-10.968-189.072-361.454-189.072-361.454l2.623-1.431c0.358,0.358,0.477,0.477,0.477,0.477
					s32.545-50.546,27.657-108.961c-4.888-58.534-48.52-102.642-48.52-102.642c-2.861-284.68,79.992-216.371,104.669-328.312
					c24.677-111.822-119.69-461.712-64.136-643.511c55.553-181.681,145.082-240.095,209.099-88.456
					c64.017,151.639,58.414,320.563,31.83,460.877c-26.465,140.433,28.492,222.928,28.492,222.928L513.382,1282.152z"/>
				<path style="fill:#D7E0E5;" d="M421.23,2373.07c-125.174-17.047-11.087-141.506-11.087-141.506
					c14.782,0.834,30.638-0.358,47.804-3.815c31.353,7.391,66.163,0.239,103.358-8.464c5.245-1.192,10.372-2.861,15.14-4.888
					c0,0,26.346,95.728,128.273,122.432c0,0-102.165,88.218-198.37,82.257C454.968,2415.867,427.787,2398.104,421.23,2373.07z"/>
				<path style="fill:#97D8E8;" d="M251.829,1760.196c4.888,58.414-27.657,108.961-27.657,108.961s-0.119-0.119-0.477-0.477
					c-4.411-5.126-40.294-47.685-44.824-102.404c-5.007-58.533,24.439-108.722,24.439-108.722S246.941,1701.662,251.829,1760.196z"
					/>
			</g>
			<g>
				<path style="fill:none;stroke:#231F20;stroke-width:10;stroke-linecap:round;stroke-linejoin:round;stroke-miterlimit:10;" d="
					M468.796,2106.748c0,0-40.652,40.532-86.787,40.532c-3.1,0-6.08-0.238-9.06-0.715c-40.89-6.318-65.448-53.407-65.448-53.407"/>
				<path style="fill:none;stroke:#231F20;stroke-width:10;stroke-linecap:round;stroke-linejoin:round;stroke-miterlimit:10;" d="
					M573.346,1282.391c-18.24-1.55-38.148-1.788-59.964-0.239c-46.255,3.457-100.377,15.14-162.726,40.175"/>
				<path style="fill:none;stroke:#231F20;stroke-width:10;stroke-linecap:round;stroke-linejoin:round;stroke-miterlimit:10;" d="
					M723.555,1339.97c0,0-48.401-48.997-150.089-57.58"/>
				<path style="fill:none;stroke:#231F20;stroke-width:10;stroke-linecap:round;stroke-linejoin:round;stroke-miterlimit:10;" d="
					M573.346,1282.391c0,0,0,0,0.119,0c2.503-0.477,33.737-7.987,33.737-114.206c0-110.51,62.348-502.006,85.833-581.997
					c23.485-79.992,130.538-82.257,205.761,78.8c75.223,161.057-9.418,302.205-25.869,376.236
					c-13.352,59.964-68.19,130.657-69.382,226.505c-0.239,22.65,2.503,46.612,9.418,72.243
					c36.479,133.876,174.051,146.87,155.215,359.665s-158.792,344.526-230.439,372.779
					c-66.759,26.108-96.801,115.398-161.295,141.983c-4.768,2.027-9.895,3.696-15.14,4.888
					c-37.194,8.703-72.005,15.855-103.358,8.464c-32.068-7.51-60.679-30.042-84.999-81.184"/>
				<path style="fill:none;stroke:#231F20;stroke-width:10;stroke-linecap:round;stroke-linejoin:round;stroke-miterlimit:10;" d="
					M513.263,1281.079c0,0-54.957-82.495-28.492-222.928c26.585-140.314,32.188-309.238-31.83-460.877
					c-64.017-151.639-153.546-93.225-209.099,88.456c-55.553,181.8,88.814,531.69,64.136,643.511
					c-24.677,111.941-107.53,43.632-104.669,328.312"/>
				<path style="fill:none;stroke:#231F20;stroke-width:10;stroke-linecap:round;stroke-linejoin:round;stroke-miterlimit:10;" d="
					M221.072,1870.11c0,0-2.98,350.486,189.072,361.454c14.782,0.834,30.638-0.358,47.804-3.815"/>
				<path style="fill:none;stroke:#231F20;stroke-width:10;stroke-linecap:round;stroke-linejoin:round;stroke-miterlimit:10;" d="
					M203.309,1657.554c0,0-29.446,50.189-24.439,108.722c4.53,54.719,40.413,97.278,44.824,102.404
					c0.358,0.358,0.477,0.477,0.477,0.477s32.545-50.546,27.657-108.961C246.941,1701.662,203.309,1657.554,203.309,1657.554z"/>
				<path style="fill:none;stroke:#231F20;stroke-width:10;stroke-linecap:round;stroke-linejoin:round;stroke-miterlimit:10;" d="
					M754.907,1696.059c0,0-15.498-2.146-37.194,0.596c-47.924,5.841-125.531,35.764-129.823,166.54
					c-0.358,8.345-0.358,17.047,0,26.227"/>
				<path style="fill:none;stroke:#231F20;stroke-width:10;stroke-linecap:round;stroke-linejoin:round;stroke-miterlimit:10;" d="
					M717.713,1696.656c0,0,85.595,185.376-129.823,166.54"/>
				<path style="fill:none;stroke:#231F20;stroke-width:10;stroke-linecap:round;stroke-linejoin:round;stroke-miterlimit:10;" d="
					M803.546,1267.727c0,0,197.774-129.704,487.223-163.56c289.568-33.856,573.295,56.149,720.523,186.926
					c147.109,130.657,323.425,440.253,211.126,802.065c-1.073,3.576-2.265,7.153-3.457,10.729
					c-42.321,129.584-108.722,213.51-177.866,267.872c-118.259,92.986-244.744,99.424-273.832,100.616
					c-44.943,1.907-134.353,47.447-150.804,11.563c-0.596-1.192-1.073-2.623-1.431-4.053
					c-11.683-43.274,34.929-71.289,69.978-77.131"/>
				<path style="fill:none;stroke:#231F20;stroke-width:10;stroke-linecap:round;stroke-linejoin:round;stroke-miterlimit:10;" d="
					M1639.706,2348.035c0,0-95.132,20.624-108.961,75.223c-3.576,14.305-2.504,26.942,1.907,37.314
					c12.398,29.565,51.023,41.605,83.807,23.365c0.119,0,0.119-0.119,0.238-0.119"/>
				<path style="fill:none;stroke:#231F20;stroke-width:10;stroke-linecap:round;stroke-linejoin:round;stroke-miterlimit:10;" d="
					M1595.359,2327.411c0,0-48.281,2.503-82.019,30.161c-12.994,10.61-23.723,24.915-28.849,44.347
					c-2.98,11.564-3.696,20.862-2.742,28.373c4.769,37.91,50.904,30.28,50.904,30.28"/>
				<path style="fill:none;stroke:#231F20;stroke-width:10;stroke-linecap:round;stroke-linejoin:round;stroke-miterlimit:10;" d="
					M1166.073,2348.035c0,0-16.451,28.73-46.731,59.13c-28.611,28.73-69.501,58.772-120.763,68.19
					c-49.95,9.06-89.886,0.596-109.795-19.193c-22.293-21.816-19.789-57.699,21.22-98.589"/>
				<path style="fill:none;stroke:#231F20;stroke-width:10;stroke-linecap:round;stroke-linejoin:round;stroke-miterlimit:10;" d="
					M850.874,2319.901c0,0-66.044,38.267-64.852,100.377c0.238,11.445,3.219,20.862,8.106,28.373
					c21.339,33.38,79.038,29.922,94.655,7.51"/>
				<path style="fill:none;stroke:#231F20;stroke-width:10;stroke-linecap:round;stroke-linejoin:round;stroke-miterlimit:10;" d="
					M803.546,2316.205c0,0-56.507,49.116-50.189,90.959c2.384,15.975,13.829,30.757,40.771,41.486"/>
				<path style="fill:none;stroke:#231F20;stroke-width:10;stroke-linecap:round;stroke-linejoin:round;stroke-miterlimit:10;" d="
					M908.573,2230.849c0,0-3.696,43.99-81.303,49.95c-42.917,3.219-85.833,30.519-101.927,60.322
					c-12.875,24.081-8.345,49.831,28.015,66.044"/>
				<path style="fill:none;stroke:#231F20;stroke-width:10;stroke-linecap:round;stroke-linejoin:round;stroke-miterlimit:10;" d="
					M576.446,2214.397c0,0,26.346,95.728,128.273,122.432c6.557,1.788,13.471,3.219,20.624,4.292"/>
				<path style="fill:none;stroke:#231F20;stroke-width:10;stroke-linecap:round;stroke-linejoin:round;stroke-miterlimit:10;" d="
					M704.719,2336.829c0,0-102.165,88.218-198.37,82.257c-51.381-3.219-78.561-20.981-85.118-46.016
					c-5.961-21.697,3.815-48.877,26.346-76.654"/>
				<path style="fill:none;stroke:#231F20;stroke-width:10;stroke-linecap:round;stroke-linejoin:round;stroke-miterlimit:10;" d="
					M410.144,2231.564c0,0-114.087,124.458,11.087,141.506"/>
				<path style="fill:none;stroke:#231F20;stroke-width:10;stroke-linecap:round;stroke-linejoin:round;stroke-miterlimit:10;" d="
					M1964.561,1537.506c0,0-246.89-119.69-338.565,95.49c-91.556,215.298,164.156,636.597,164.156,636.597
					s-171.786-15.855-242.36,17.405c-70.455,33.38-34.453,70.574-34.453,70.574"/>
				<path style="fill:none;stroke:#231F20;stroke-width:10;stroke-linecap:round;stroke-linejoin:round;stroke-miterlimit:10;" d="
					M2218.961,2103.887c0,0,30.28,45.182,106.457,13.114c0,0,27.419,283.846-284.323,254.758"/>
				<path style="fill:none;stroke:#231F20;stroke-width:10;stroke-linecap:round;stroke-linejoin:round;stroke-miterlimit:10;" d="
					M1481.868,2430.292c0,0,0,0-0.119,0c-6.08,1.788-205.165,57.699-362.407-23.127"/>
			</g>
		</g>
	</g>
	
		<ellipse transform="matrix(0.5865 -0.81 0.81 0.5865 -1174.3568 1279.8188)" style="fill:#231F20;" cx="666.206" cy="1790.01" rx="59.258" ry="38.944"/>
	<path style="fill:#FFFFFF;" d="M652.305,1769.607c-7.975,9.375-8.74,21.823-1.708,27.804c7.031,5.981,19.195,3.23,27.17-6.145
		s8.739-21.823,1.708-27.804C672.443,1757.481,660.279,1760.232,652.305,1769.607z"/>
	
		<ellipse transform="matrix(0.9977 -0.0672 0.0672 0.9977 -117.5745 18.3069)" style="fill:#231F20;" cx="213.423" cy="1757.399" rx="23.264" ry="54.758"/>
	<ellipse style="fill:#FFFFFF;" cx="213.423" cy="1757.399" rx="14.613" ry="23.172"/>
</g>
<g id="XMLID_1_">
	<g>
	</g>
	<g>
		<path style="fill:none;stroke:#231F20;stroke-width:20;stroke-linecap:round;stroke-linejoin:round;stroke-miterlimit:10;" d="
			M2964.448,2106.748c0,0-40.651,40.532-86.787,40.532c-3.1,0-6.08-0.238-9.06-0.715c-40.89-6.318-65.448-53.407-65.448-53.407"/>
		<path style="fill:none;stroke:#231F20;stroke-width:20;stroke-linecap:round;stroke-linejoin:round;stroke-miterlimit:10;" d="
			M3068.998,1282.391c-18.24-1.55-38.148-1.788-59.964-0.239c-46.254,3.457-100.377,15.14-162.726,40.175"/>
		<path style="fill:none;stroke:#231F20;stroke-width:20;stroke-linecap:round;stroke-linejoin:round;stroke-miterlimit:10;" d="
			M3219.207,1339.97c0,0-48.401-48.997-150.089-57.58"/>
		<path style="fill:none;stroke:#231F20;stroke-width:20;stroke-linecap:round;stroke-linejoin:round;stroke-miterlimit:10;" d="
			M3068.998,1282.391c0,0,0,0,0.119,0c2.503-0.477,33.737-7.987,33.737-114.206c0-110.51,62.348-502.006,85.833-581.997
			c23.485-79.992,130.538-82.257,205.762,78.8s-9.418,302.205-25.869,376.236c-13.352,59.964-68.19,130.657-69.382,226.505
			c-0.238,22.65,2.503,46.612,9.418,72.243c36.479,133.876,174.051,146.87,155.215,359.665s-158.792,344.526-230.438,372.779
			c-66.759,26.108-96.801,115.398-161.295,141.983c-4.769,2.027-9.895,3.696-15.14,4.888c-37.195,8.703-72.005,15.855-103.358,8.464
			c-32.068-7.51-60.679-30.042-84.999-81.184"/>
		<path style="fill:none;stroke:#231F20;stroke-width:20;stroke-linecap:round;stroke-linejoin:round;stroke-miterlimit:10;" d="
			M3008.915,1281.079c0,0-54.957-82.495-28.492-222.928c26.584-140.314,32.188-309.238-31.83-460.877
			s-153.546-93.225-209.099,88.456c-55.553,181.8,88.814,531.69,64.136,643.511c-24.677,111.941-107.53,43.632-104.669,328.312"/>
		<path style="fill:none;stroke:#231F20;stroke-width:20;stroke-linecap:round;stroke-linejoin:round;stroke-miterlimit:10;" d="
			M2716.724,1870.11c0,0-2.98,350.486,189.072,361.454c14.782,0.834,30.638-0.358,47.804-3.815"/>
		<path style="fill:none;stroke:#231F20;stroke-width:20;stroke-linecap:round;stroke-linejoin:round;stroke-miterlimit:10;" d="
			M2698.961,1657.554c0,0-29.446,50.189-24.439,108.722c4.53,54.719,40.413,97.278,44.824,102.404
			c0.358,0.358,0.477,0.477,0.477,0.477s32.545-50.546,27.657-108.961C2742.594,1701.662,2698.961,1657.554,2698.961,1657.554z"/>
		<path style="fill:none;stroke:#231F20;stroke-width:20;stroke-linecap:round;stroke-linejoin:round;stroke-miterlimit:10;" d="
			M3250.56,1696.059c0,0-15.498-2.146-37.195,0.596c-47.924,5.841-125.531,35.764-129.823,166.54
			c-0.357,8.345-0.357,17.047,0,26.227"/>
		<path style="fill:none;stroke:#231F20;stroke-width:20;stroke-linecap:round;stroke-linejoin:round;stroke-miterlimit:10;" d="
			M3213.365,1696.656c0,0,85.595,185.376-129.823,166.54"/>
		<path style="fill:none;stroke:#231F20;stroke-width:20;stroke-linecap:round;stroke-linejoin:round;stroke-miterlimit:10;" d="
			M3299.198,1267.727c0,0,197.774-129.704,487.223-163.56c289.568-33.856,573.295,56.149,720.523,186.926
			c147.108,130.657,323.424,440.253,211.126,802.065c-1.073,3.576-2.265,7.153-3.457,10.729
			c-42.321,129.584-108.722,213.51-177.866,267.872c-118.259,92.986-244.744,99.424-273.832,100.616
			c-44.943,1.907-134.353,47.447-150.805,11.563c-0.596-1.192-1.073-2.623-1.431-4.053c-11.683-43.274,34.93-71.289,69.978-77.131"
			/>
		<path style="fill:none;stroke:#231F20;stroke-width:20;stroke-linecap:round;stroke-linejoin:round;stroke-miterlimit:10;" d="
			M4135.358,2348.035c0,0-95.132,20.624-108.96,75.223c-3.576,14.305-2.504,26.942,1.907,37.314
			c12.398,29.565,51.023,41.605,83.807,23.365c0.119,0,0.119-0.119,0.239-0.119"/>
		<path style="fill:none;stroke:#231F20;stroke-width:20;stroke-linecap:round;stroke-linejoin:round;stroke-miterlimit:10;" d="
			M4091.011,2327.411c0,0-48.281,2.503-82.019,30.161c-12.994,10.61-23.723,24.915-28.849,44.347
			c-2.98,11.564-3.696,20.862-2.742,28.373c4.769,37.91,50.904,30.28,50.904,30.28"/>
		<path style="fill:none;stroke:#231F20;stroke-width:20;stroke-linecap:round;stroke-linejoin:round;stroke-miterlimit:10;" d="
			M3661.725,2348.035c0,0-16.451,28.73-46.731,59.13c-28.611,28.73-69.501,58.772-120.763,68.19
			c-49.95,9.06-89.887,0.596-109.795-19.193c-22.293-21.816-19.789-57.699,21.22-98.589"/>
		<path style="fill:none;stroke:#231F20;stroke-width:20;stroke-linecap:round;stroke-linejoin:round;stroke-miterlimit:10;" d="
			M3346.526,2319.901c0,0-66.044,38.267-64.852,100.377c0.238,11.445,3.219,20.862,8.106,28.373
			c21.339,33.38,79.038,29.922,94.655,7.51"/>
		<path style="fill:none;stroke:#231F20;stroke-width:20;stroke-linecap:round;stroke-linejoin:round;stroke-miterlimit:10;" d="
			M3299.198,2316.205c0,0-56.507,49.116-50.188,90.959c2.384,15.975,13.829,30.876,40.771,41.486"/>
		<path style="fill:none;stroke:#231F20;stroke-width:20;stroke-linecap:round;stroke-linejoin:round;stroke-miterlimit:10;" d="
			M3404.225,2230.849c0,0-3.696,43.99-81.303,49.95c-42.917,3.219-85.833,30.519-101.927,60.322
			c-12.875,24.081-8.345,49.831,28.015,66.044"/>
		<path style="fill:none;stroke:#231F20;stroke-width:20;stroke-linecap:round;stroke-linejoin:round;stroke-miterlimit:10;" d="
			M3072.098,2214.397c0,0,26.346,95.728,128.273,122.432c6.557,1.788,13.471,3.219,20.624,4.292"/>
		<path style="fill:none;stroke:#231F20;stroke-width:20;stroke-linecap:round;stroke-linejoin:round;stroke-miterlimit:10;" d="
			M3200.371,2336.829c0,0-102.166,88.218-198.37,82.257c-51.381-3.219-78.561-20.981-85.118-46.016
			c-5.961-21.697,3.815-48.877,26.346-76.654"/>
		<path style="fill:none;stroke:#231F20;stroke-width:20;stroke-linecap:round;stroke-linejoin:round;stroke-miterlimit:10;" d="
			M2905.796,2231.564c0,0-114.087,124.458,11.087,141.506"/>
		<path style="fill:none;stroke:#231F20;stroke-width:20;stroke-linecap:round;stroke-linejoin:round;stroke-miterlimit:10;" d="
			M4460.213,1537.506c0,0-246.89-119.69-338.565,95.49c-91.555,215.298,164.156,636.597,164.156,636.597
			s-171.786-15.855-242.36,17.405c-70.455,33.38-34.453,70.574-34.453,70.574"/>
		<path style="fill:none;stroke:#231F20;stroke-width:20;stroke-linecap:round;stroke-linejoin:round;stroke-miterlimit:10;" d="
			M4714.614,2103.887c0,0,30.28,45.182,106.457,13.114c0,0,27.419,283.846-284.323,254.758"/>
		<path style="fill:none;stroke:#231F20;stroke-width:20;stroke-linecap:round;stroke-linejoin:round;stroke-miterlimit:10;" d="
			M3977.52,2430.292c0,0,0,0-0.119,0c-6.08,1.788-205.166,57.699-362.407-23.127"/>
	</g>
</g>
<ellipse transform="matrix(0.5865 -0.81 0.81 0.5865 -142.3377 3301.2251)" style="fill:none;" cx="3161.858" cy="1790.01" rx="59.258" ry="38.944"/>
<ellipse transform="matrix(0.6579 -0.7531 0.7531 0.6579 -259.6234 2989.3088)" style="fill:none;stroke:#000000;stroke-width:20;stroke-miterlimit:10;" cx="3160.688" cy="1780.436" rx="22.478" ry="16.57"/>
<ellipse transform="matrix(0.9977 -0.0672 0.0672 0.9977 -111.9339 185.9515)" style="fill:none;" cx="2709.075" cy="1757.399" rx="23.264" ry="54.758"/>
<ellipse style="fill:none;stroke:#000000;stroke-width:20;stroke-miterlimit:10;" cx="2709.075" cy="1757.399" rx="14.613" ry="23.172"/>

    <text x="10" y="832" font-size="12" fill="gray" opacity="0.6" font-family="Arial, sans-serif">
      twoja-kolorowanka.pl
    </text>
  
</svg>
