<?xml version="1.0" encoding="utf-8"?>
<!-- Generator: Adobe Illustrator 27.5.0, SVG Export Plug-In . SVG Version: 6.00 Build 0)  -->
<svg xmlns="http://www.w3.org/2000/svg" xmlns:xlink="http://www.w3.org/1999/xlink" viewBox="0 0 4000 4000" width="595" height="842" preserveAspectRatio="xMidYMid meet" data-scaled="true">
<g id="Background">
	<g>
		<g>
			<rect style="fill:#FFFFFF;" width="4000" height="4000"/>
		</g>
	</g>
</g>
<g id="Object">
	<g>
		<path d="M784.092,704.864c0.404,1.508,0.884,2.993,1.44,4.454c0.621,1.647,1.324,3.256,2.11,4.829
			c0.789,1.575,1.657,3.104,2.604,4.588c0.945,1.484,1.965,2.914,3.06,4.291c1.094,1.377,2.258,2.695,3.49,3.953
			c1.228,1.256,2.521,2.445,3.875,3.568c1.354,1.125,2.763,2.176,4.228,3.152c1.463,0.977,2.973,1.875,4.531,2.696
			c1.556,0.819,3.151,1.556,4.784,2.211c8.308,3.375,16.685,3.89,25.538,3.638c14.4-4.91,25.511-11.789,32.513-25.841
			c0.717-1.439,1.358-2.912,1.927-4.417c0.569-1.503,1.061-3.031,1.478-4.583c0.415-1.553,0.751-3.123,1.012-4.71
			c0.257-1.587,0.435-3.183,0.534-4.788c0.096-1.605,0.112-3.211,0.051-4.818c-0.062-1.607-0.205-3.206-0.429-4.799
			c-0.223-1.593-0.525-3.17-0.905-4.733c-0.38-1.562-0.839-3.101-1.376-4.617c-4.36-12.146-14.074-21.717-25.949-26.579
			c-9.175-3.757-18.331-4.18-28.106-3.709c-14.123,4.587-25.946,10.565-33.066,24.325c-0.706,1.394-1.336,2.821-1.896,4.279
			c-0.556,1.461-1.036,2.946-1.44,4.454c-0.402,1.511-0.724,3.037-0.967,4.58c-0.245,1.545-0.407,3.098-0.489,4.658
			c-0.083,1.56-0.083,3.12,0,4.68c0.081,1.56,0.243,3.113,0.485,4.658C783.371,701.826,783.691,703.353,784.092,704.864z"/>
		<path d="M1123.498,1035.996c7.328,2.369,15.414,1.891,23.023,1.78c13.815-4.988,24.87-13.155,31.364-26.683
			c0.712-1.476,1.349-2.983,1.911-4.521c0.561-1.54,1.045-3.104,1.45-4.691c0.407-1.587,0.735-3.19,0.982-4.81
			c0.248-1.619,0.415-3.246,0.502-4.88c0.087-1.637,0.09-3.274,0.015-4.911c-0.074-1.637-0.23-3.266-0.467-4.888
			c-0.237-1.619-0.554-3.224-0.953-4.814c-0.397-1.59-0.869-3.156-1.422-4.699c-0.521-1.466-1.117-2.9-1.791-4.302
			c-0.67-1.404-1.411-2.77-2.222-4.098c-0.809-1.327-1.686-2.61-2.629-3.849c-0.943-1.236-1.948-2.422-3.011-3.556
			c-1.065-1.135-2.186-2.212-3.363-3.231c-1.175-1.019-2.399-1.974-3.672-2.867c-1.275-0.893-2.591-1.718-3.949-2.474
			c-1.36-0.759-2.754-1.445-4.183-2.058c-9.346-4.127-18.606-4.228-28.622-3.204c-15.198,5.682-27.422,13.132-34.08,28.668
			c-5.076,11.856-4.668,25.693,0.646,37.405C1098.803,1022.048,1110.259,1031.713,1123.498,1035.996z"/>
		<path d="M2875.758,1332.623c0.809,1.353,1.684,2.66,2.625,3.924c0.945,1.26,1.951,2.471,3.02,3.631
			c1.065,1.159,2.189,2.259,3.371,3.3c1.181,1.043,2.414,2.023,3.697,2.937c1.281,0.917,2.606,1.766,3.976,2.544
			c1.37,0.779,2.777,1.485,4.22,2.118c1.441,0.635,2.913,1.194,4.414,1.676c9.256,2.971,19.444,3.193,28.927,1.168
			c14.764-7.414,26.79-17.241,32.012-33.533c0.467-1.446,0.86-2.912,1.18-4.399c0.321-1.486,0.568-2.984,0.738-4.495
			c0.17-1.51,0.266-3.026,0.285-4.547c0.02-1.521-0.037-3.037-0.17-4.55c-0.131-1.516-0.338-3.021-0.619-4.514
			c-0.28-1.494-0.635-2.97-1.065-4.428c-0.427-1.458-0.927-2.891-1.498-4.298c-0.571-1.409-1.211-2.786-1.92-4.131
			c-5.993-11.349-16.641-19.604-28.871-23.279c-9.324-2.8-18.584-2.433-28.122-1.131c-13.949,5.478-23.791,13.095-29.565,27.317
			c-5.185,12.776-4.677,28.048,1.157,40.516C2874.214,1329.88,2874.95,1331.27,2875.758,1332.623z"/>
		<path d="M2726.44,904.1c0.504,1.525,1.083,3.021,1.736,4.487c0.653,1.466,1.376,2.896,2.169,4.291
			c0.794,1.397,1.654,2.751,2.581,4.061c0.927,1.31,1.916,2.572,2.967,3.786c1.05,1.214,2.157,2.372,3.323,3.475
			c1.165,1.105,2.38,2.15,3.649,3.137c1.269,0.984,2.581,1.904,3.938,2.759c8.838,5.563,19.456,7.18,29.739,7.588
			c15.153-3.379,26.705-8.515,35.469-21.94c0.915-1.434,1.754-2.911,2.518-4.432c0.764-1.523,1.448-3.079,2.052-4.669
			c0.603-1.592,1.122-3.21,1.557-4.854c0.435-1.646,0.785-3.311,1.05-4.992c0.264-1.681,0.441-3.371,0.531-5.069
			c0.089-1.701,0.09-3.401,0.004-5.099c-0.084-1.701-0.257-3.392-0.52-5.073c-0.26-1.681-0.606-3.346-1.039-4.992
			c-3.267-12.353-11.574-22.526-22.722-28.656c-8.755-4.811-18.628-5.752-28.434-6.201c-14.293,2.971-27.232,9.012-35.58,21.569
			c-7.113,10.703-9.089,23.724-6.278,36.192C2725.503,901.033,2725.933,902.577,2726.44,904.1z"/>
		<path d="M537.301,1643.606c-7.236-2.236-15.001-1.591-22.467-1.269c-14.278,4.191-25.232,10.347-32.606,23.824
			c-0.828,1.538-1.575,3.113-2.244,4.725c-0.666,1.612-1.251,3.255-1.749,4.929c-0.5,1.671-0.913,3.365-1.239,5.081
			c-0.328,1.714-0.565,3.439-0.717,5.177c-0.152,1.741-0.215,3.484-0.188,5.229c0.027,1.746,0.141,3.485,0.344,5.218
			c0.206,1.733,0.498,3.451,0.876,5.155c0.377,1.704,0.842,3.383,1.394,5.04c0.489,1.489,1.054,2.949,1.695,4.383
			c0.637,1.431,1.347,2.828,2.128,4.188c0.779,1.359,1.626,2.677,2.541,3.953c0.915,1.273,1.891,2.497,2.93,3.671
			c1.038,1.177,2.133,2.297,3.281,3.36c1.153,1.063,2.356,2.066,3.609,3.008c1.257,0.942,2.555,1.818,3.899,2.629
			c1.342,0.811,2.722,1.552,4.138,2.221c10.447,4.858,20.354,4.881,31.541,3.393c15.254-6.653,27.76-14.478,34.212-30.733
			c4.717-11.883,4.062-25.726-1.193-37.323C561.682,1656.653,550.645,1647.738,537.301,1643.606z"/>
		<path d="M3220.315,830.797c0.344,1.726,0.774,3.429,1.291,5.11c3.843,12.401,12.428,22.637,24.232,28.17
			c9.958,4.669,20.671,4.828,31.408,3.835c13.454-3.812,23.954-9.501,31.26-21.918c6.611-11.237,7.917-25.107,4.394-37.575
			c-3.912-13.837-13.373-25.997-26.294-32.495c-8.722-4.387-17.489-5.351-27.117-5.092c-14.878,4.42-25.603,10.365-33.514,24.258
			c-0.861,1.535-1.641,3.109-2.341,4.721c-0.702,1.614-1.32,3.26-1.854,4.936c-0.534,1.676-0.982,3.375-1.345,5.096
			c-0.364,1.724-0.639,3.459-0.828,5.207c-0.185,1.751-0.282,3.505-0.293,5.263c-0.009,1.761,0.07,3.516,0.238,5.266
			C3219.718,827.331,3219.972,829.071,3220.315,830.797z"/>
		<path d="M3222.756,1928.307c-8.545-6.331-18.48-8.389-28.853-9.349c-16.492,2.956-30.07,8.337-39.961,22.574
			c-0.89,1.288-1.713,2.618-2.47,3.991c-0.756,1.375-1.441,2.783-2.054,4.224c-0.613,1.441-1.151,2.91-1.613,4.406
			c-0.465,1.499-0.852,3.015-1.161,4.551c-0.31,1.535-0.541,3.083-0.694,4.643c-0.154,1.56-0.228,3.123-0.223,4.688
			c0.007,1.568,0.092,3.13,0.255,4.688c0.166,1.56,0.409,3.107,0.731,4.639c2.953,13.904,12.209,25.47,24.399,32.535
			c7.458,4.321,16.24,6.605,24.762,7.617c15.079-1.917,27.266-5.292,37.234-17.523c8.207-10.069,11.37-23.301,9.876-36.089
			C3241.324,1949.702,3234.289,1936.848,3222.756,1928.307z"/>
		<path d="M3594.089,1701.675c0.406,1.674,0.894,3.323,1.465,4.948c0.574,1.622,1.231,3.209,1.973,4.762
			c0.744,1.55,1.566,3.058,2.466,4.524c0.903,1.463,1.881,2.876,2.934,4.239c1.05,1.362,2.17,2.664,3.36,3.906
			c1.191,1.243,2.444,2.42,3.756,3.53c1.316,1.11,2.685,2.148,4.109,3.111c1.424,0.967,2.896,1.854,4.414,2.663
			c1.518,0.808,3.074,1.535,4.668,2.181c9.013,3.716,18.054,3.969,27.615,3.074c15.409-5.834,28.52-13.243,35.591-28.971
			c5.356-11.909,5.033-25.549,0.083-37.531c-0.678-1.644-1.439-3.25-2.284-4.818c-0.844-1.565-1.765-3.084-2.763-4.558
			c-1.001-1.47-2.074-2.886-3.219-4.246c-1.147-1.362-2.36-2.661-3.639-3.898c-1.28-1.236-2.62-2.403-4.02-3.501
			c-1.399-1.098-2.851-2.121-4.357-3.071c-1.506-0.949-3.057-1.819-4.651-2.607s-3.225-1.494-4.891-2.114
			c-8.371-3.204-16.269-3.33-25.059-2.618c-14.564,4.788-26.034,11.893-33.34,25.871c-0.789,1.531-1.497,3.098-2.125,4.703
			c-0.63,1.602-1.177,3.232-1.639,4.891c-0.463,1.659-0.84,3.338-1.132,5.036c-0.292,1.696-0.495,3.403-0.612,5.122
			c-0.119,1.718-0.149,3.438-0.092,5.159c0.06,1.721,0.205,3.435,0.437,5.144
			C3593.368,1698.311,3593.686,1700.002,3594.089,1701.675z"/>
		<path d="M3578.056,2811.599c-0.309-1.617-0.697-3.214-1.164-4.792c-0.443-1.526-0.958-3.027-1.546-4.503
			c-0.591-1.473-1.252-2.915-1.984-4.324c-0.735-1.412-1.535-2.782-2.404-4.112c-0.867-1.33-1.799-2.615-2.792-3.854
			c-0.997-1.239-2.051-2.424-3.164-3.556c-1.113-1.135-2.277-2.212-3.493-3.23c-1.219-1.019-2.486-1.976-3.802-2.871
			c-1.313-0.895-2.667-1.722-4.061-2.481c-8.908-4.869-18.795-6.735-28.875-6.253c-15.602,3.861-28.393,10.466-36.652,24.874
			c-7.065,12.323-8.411,27.351-4.409,40.906c3.612,12.23,11.793,22.385,23.186,28.185c10.351,5.267,20.33,5,31.638,4.258
			c15.167-4.639,26.379-10.424,34.326-24.799c0.787-1.446,1.499-2.927,2.14-4.443c0.64-1.516,1.205-3.058,1.695-4.628
			c0.487-1.573,0.897-3.165,1.231-4.777c0.331-1.612,0.583-3.235,0.756-4.869c0.171-1.637,0.261-3.279,0.274-4.925
			c0.01-1.644-0.059-3.286-0.208-4.925C3578.599,2814.84,3578.368,2813.213,3578.056,2811.599z"/>
		<path d="M2929.34,551.473c0.292,1.771,0.674,3.521,1.146,5.251c0.474,1.731,1.038,3.432,1.688,5.103
			c0.65,1.674,1.384,3.308,2.203,4.903c0.744,1.444,1.56,2.848,2.447,4.209c0.887,1.36,1.842,2.673,2.863,3.939
			c1.021,1.263,2.102,2.473,3.245,3.627c1.145,1.154,2.344,2.247,3.597,3.279c1.256,1.034,2.561,1.999,3.912,2.896
			c1.355,0.9,2.751,1.728,4.188,2.484c1.439,0.759,2.911,1.443,4.417,2.051c1.508,0.606,3.043,1.135,4.602,1.588
			c7.951,2.318,16.883,3.096,25.104,1.973c14.278-4.921,25.381-11.734,32.599-25.519c6.479-12.387,7.124-27.518,2.247-40.568
			c-0.616-1.64-1.313-3.241-2.092-4.807c-0.781-1.565-1.641-3.087-2.581-4.565c-0.937-1.476-1.948-2.9-3.033-4.272
			c-1.085-1.372-2.239-2.685-3.46-3.938c-1.221-1.251-2.504-2.437-3.849-3.557c-1.345-1.12-2.743-2.168-4.195-3.145
			c-1.454-0.974-2.953-1.871-4.499-2.691c-1.544-0.82-3.128-1.557-4.75-2.214c-9.735-3.95-19.307-3.499-29.587-2.833
			c-15.383,6.414-27.455,13.898-33.663,30.341c-0.623,1.681-1.158,3.391-1.605,5.129c-0.448,1.738-0.804,3.495-1.068,5.27
			c-0.262,1.772-0.433,3.555-0.512,5.348c-0.082,1.793-0.068,3.585,0.041,5.377C2928.849,547.923,2929.048,549.703,2929.34,551.473z
			"/>
		<path d="M418.311,2885.091c1.566,0.739,3.167,1.396,4.801,1.969c1.635,0.573,3.294,1.061,4.978,1.461
			c8.509,1.988,16.819,1.161,25.183-0.979c14.747-7.532,26.052-16.566,31.492-32.806c0.5-1.538,0.92-3.097,1.26-4.677
			c0.344-1.58,0.608-3.174,0.791-4.78c0.183-1.607,0.284-3.22,0.308-4.836c0.022-1.615-0.038-3.228-0.179-4.84
			c-0.141-1.61-0.36-3.209-0.659-4.799c-0.302-1.59-0.681-3.16-1.139-4.71c-0.458-1.55-0.991-3.075-1.603-4.572
			c-0.61-1.496-1.293-2.959-2.05-4.388c-0.838-1.563-1.753-3.079-2.745-4.551c-0.991-1.471-2.053-2.887-3.185-4.25
			c-1.132-1.365-2.331-2.67-3.594-3.916c-1.262-1.244-2.584-2.422-3.964-3.534c-1.382-1.113-2.814-2.155-4.297-3.126
			c-1.487-0.969-3.015-1.862-4.59-2.678c-1.574-0.816-3.185-1.551-4.831-2.206c-1.648-0.658-3.325-1.23-5.029-1.717
			c-8.415-2.5-17.726-1.995-26.366-1.028c-15.184,7.725-26.264,16.37-31.456,33.273c-0.507,1.681-0.927,3.385-1.262,5.111
			c-0.337,1.723-0.583,3.459-0.744,5.21c-0.161,1.748-0.232,3.501-0.215,5.259c0.016,1.757,0.12,3.509,0.313,5.255
			c0.192,1.745,0.473,3.477,0.84,5.195c0.368,1.719,0.82,3.414,1.358,5.085c0.538,1.673,1.159,3.315,1.863,4.925
			c0.703,1.61,1.485,3.18,2.347,4.71c0.842,1.513,1.76,2.979,2.752,4.398c0.994,1.419,2.059,2.781,3.194,4.087
			c1.135,1.308,2.336,2.554,3.6,3.739c1.264,1.184,2.586,2.299,3.966,3.344c1.382,1.046,2.812,2.017,4.292,2.916
			C415.222,2883.534,416.746,2884.352,418.311,2885.091z"/>
		<path d="M3682.012,2298.212c-17.646-13.042-36.054-14.623-57.097-15.59c12.149-24.907,23.368-48.794,13.677-76.879
			c-0.353-1.048-0.732-2.088-1.135-3.119c-0.406-1.029-0.837-2.047-1.294-3.056c-0.458-1.009-0.939-2.004-1.446-2.986
			c-0.507-0.984-1.04-1.954-1.599-2.911c-0.556-0.957-1.135-1.898-1.739-2.822c-0.606-0.927-1.234-1.838-1.884-2.733
			c-0.65-0.895-1.324-1.772-2.021-2.633c-0.694-0.863-1.412-1.706-2.151-2.529c-0.736-0.823-1.494-1.628-2.273-2.415
			c-0.779-0.786-1.577-1.551-2.396-2.295c-0.818-0.747-1.655-1.471-2.511-2.173c-0.854-0.702-1.725-1.383-2.615-2.043
			c-0.89-0.658-1.796-1.293-2.719-1.907c-0.919-0.61-1.855-1.199-2.807-1.765c-0.952-0.564-1.917-1.104-2.896-1.621
			c-0.979-0.517-1.971-1.008-2.974-1.473c-17.897-8.2-40.175-9.053-58.544-1.843c-22.114,8.686-37.546,27.892-47.966,48.571
			c-9.965-23.768-21.54-45.078-46.669-55.651c-10.848-4.565-23.297-6.19-34.998-5.748c-21.317,3.89-41.04,11.356-53.489,30.325
			c-10.747,16.373-13.217,36.989-8.971,55.87c3.412,15.164,10.669,29.632,16.814,43.85c-28.044,2.062-51.505,8.296-70.734,30.67
			c-12.628,14.689-18.925,33.11-17.197,52.454c0.109,1.197,0.249,2.39,0.419,3.582c0.168,1.191,0.368,2.377,0.601,3.557
			c0.23,1.179,0.491,2.352,0.782,3.519c0.292,1.169,0.612,2.329,0.96,3.479c0.351,1.149,0.731,2.291,1.139,3.423
			c0.41,1.129,0.847,2.25,1.313,3.36c0.467,1.108,0.961,2.203,1.483,3.286s1.072,2.152,1.651,3.208
			c0.577,1.056,1.18,2.096,1.81,3.119c0.63,1.026,1.287,2.034,1.969,3.023c0.682,0.991,1.39,1.964,2.122,2.918
			c0.731,0.954,1.487,1.889,2.265,2.804c0.782,0.917,1.585,1.812,2.411,2.685c0.826,0.875,1.672,1.728,2.541,2.559
			c0.87,0.831,1.76,1.64,2.67,2.426c0.913,0.787,1.844,1.548,2.792,2.284c19.021,14.864,40.479,16.934,63.651,16.778
			c-8.741,25.964-15.528,51.104-2.941,77.376c0.969,2.039,2.038,4.026,3.208,5.96c1.169,1.933,2.433,3.803,3.79,5.611
			c1.357,1.807,2.801,3.542,4.332,5.203c1.53,1.661,3.141,3.242,4.832,4.743c1.689,1.498,3.449,2.909,5.281,4.231
			c1.832,1.325,3.724,2.554,5.678,3.687c1.956,1.132,3.962,2.164,6.019,3.097c2.059,0.932,4.159,1.759,6.301,2.481
			c18.227,6.242,37.182,4.387,54.26-4.324c16.737-8.541,29.647-22.066,41.629-36.244c16.796,22.181,35.187,41.473,64.255,45.678
			c6.012,0.868,11.798,1.224,17.849,0.779c19.801-4.636,37.349-12.649,48.838-30.284c11.527-17.697,13.781-39.24,8.678-59.456
			c-2.856-11.303-7.904-21.424-13.67-31.478c25.374-3.008,45.801-4.969,63.124-26.138c0.774-0.96,1.524-1.938,2.252-2.934
			c0.724-0.996,1.425-2.01,2.102-3.041c0.675-1.031,1.325-2.077,1.95-3.137c0.626-1.063,1.226-2.14,1.799-3.23
			c0.571-1.092,1.116-2.198,1.635-3.315c0.52-1.118,1.01-2.247,1.473-3.389c0.462-1.145,0.896-2.298,1.305-3.46
			c0.406-1.164,0.783-2.338,1.131-3.52c0.351-1.181,0.673-2.371,0.965-3.567c0.289-1.199,0.55-2.404,0.782-3.613
			c0.232-1.212,0.435-2.427,0.608-3.649c0.172-1.219,0.315-2.443,0.426-3.671c0.114-1.227,0.198-2.456,0.252-3.687
			c0.052-1.231,0.074-2.464,0.067-3.697c-0.008-1.234-0.046-2.465-0.115-3.694c-0.067-1.231-0.165-2.46-0.293-3.687
			C3708.662,2327.832,3697.762,2309.857,3682.012,2298.212z M3669.399,2372.595c-17.275,20.624-45.579,16.458-69.288,18.947
			c-7.065,0.742-15.246,2.314-19.381,8.808c-9.824,15.428,22.764,55.165,26.82,72.699c1.884,8.144,2.088,17.297-2.677,24.525
			c-6.549,9.935-16.236,12.52-27.25,14.99c-38.699-7.154-36.789-46.613-62.716-66.35c-4.505-3.43-9.601-4.817-15.16-3.36
			c-15.531,4.061-21.413,26.234-28.667,38.551c-6.973,11.838-16.055,23.282-30.196,26.346c-8.496,1.84-19.993,1.806-27.321-3.49
			c-9.342-6.754-10.837-19.029-12.794-29.524c4.81-15.684,26.76-57.976,24.64-69.64c-5.021-27.588-72.032-3.976-93.931-19.997
			c-6.09-4.458-9.008-11.53-9.972-18.817c-1.239-9.379-0.06-20.854,6.008-28.516c16.176-20.423,50.663-13.989,73.381-17.797
			c7.596-1.276,16.354-4.717,20.086-11.975c8.641-16.8-29.38-60.728-33.377-82.727c-1.335-7.332-0.931-13.885,3.619-20.079
			c6.709-9.13,20.928-13.803,31.542-15.609c9.55,1.283,16.77,4.733,25.126,9.209c9.824,19.007,23.783,55.362,41.991,66.906
			c25.682,16.284,49.54-64.232,79.379-69.35c9.627-1.65,18.517,2.922,25.797,8.815c39.692,32.124-30.147,71.654-23.193,104.263
			c5.218,24.473,65.271,2.092,86.384,17.3c8.125,5.853,16.94,15.669,18.12,26.031
			C3677.198,2360.06,3674.012,2367.084,3669.399,2372.595z"/>
		<path d="M1130.303,505.999c0.411,1.014,0.849,2.016,1.313,3.008c0.464,0.989,0.951,1.966,1.465,2.93
			c0.514,0.964,1.054,1.915,1.617,2.852c0.567,0.937,1.155,1.858,1.766,2.762c0.614,0.905,1.248,1.794,1.907,2.666
			c0.659,0.873,1.34,1.728,2.043,2.567c0.704,0.836,1.429,1.652,2.173,2.451c0.748,0.799,1.514,1.577,2.3,2.336
			c0.786,0.759,1.592,1.497,2.417,2.214c0.826,0.717,1.67,1.411,2.53,2.084c0.864,0.673,1.742,1.323,2.637,1.951
			c0.895,0.628,1.807,1.231,2.734,1.809s1.869,1.134,2.825,1.665c0.954,0.53,1.923,1.034,2.908,1.513
			c0.981,0.479,1.976,0.933,2.981,1.361c19.734,8.325,39.219,4.439,59.312,0.271c-9.703,22.967-16.051,45.07-6.434,69.591
			c6.483,16.537,18.918,31.041,35.516,37.935c16.281,6.761,36.323,6.372,52.536-0.423c17.934-7.517,29.066-21.662,39.081-37.682
			l1.9-0.375l6.215,8.463c18.514,18.739,35.922,33.511,63.933,33.711c17.719,0.13,36.262-6.116,48.771-18.985
			c12.605-12.965,17.694-31.018,17.341-48.794c-0.277-14.07-4.049-25.422-8.951-38.365c22.932,3.438,43.576,3.864,63.089-10.966
			c15.702-11.934,25.263-30.662,27.811-50.041c0.161-1.18,0.292-2.364,0.389-3.55c0.1-1.187,0.168-2.376,0.208-3.566
			c0.036-1.191,0.043-2.381,0.022-3.572c-0.023-1.191-0.078-2.38-0.163-3.568s-0.199-2.373-0.346-3.556
			c-0.145-1.182-0.32-2.359-0.525-3.533c-0.208-1.173-0.444-2.34-0.71-3.501c-0.266-1.161-0.563-2.314-0.889-3.46
			c-0.326-1.146-0.681-2.282-1.065-3.409c-0.382-1.128-0.795-2.245-1.239-3.35c-0.442-1.106-0.913-2.2-1.409-3.282
			c-0.5-1.082-1.025-2.15-1.575-3.205c-0.554-1.055-1.135-2.095-1.74-3.12c-0.609-1.025-1.24-2.034-1.898-3.026
			c-0.659-0.992-1.342-1.967-2.052-2.924c-0.71-0.957-1.443-1.896-2.2-2.815c-14.132-17.245-32.211-22.711-53.028-27.344
			c17.976-18.093,33.882-35.998,33.667-63.244c-0.152-19.04-7.855-37.926-21.996-50.849c-14.322-13.084-34.612-18.952-53.785-17.663
			c-19.24,1.292-32.917,9.6-47.433,21.332c-3.058-23.007-9.357-46.048-29.022-60.624c-15.584-11.549-33.082-13.381-51.768-13.925
			c-18.072,2.265-34.409,7.713-45.932,22.796c-10.284,13.456-12.754,29.423-15.26,45.651
			c-19.834-12.282-38.118-19.221-61.887-13.628c-1.173,0.27-2.341,0.569-3.504,0.899c-1.159,0.329-2.309,0.689-3.45,1.078
			c-1.141,0.39-2.273,0.809-3.393,1.257c-1.117,0.448-2.224,0.925-3.318,1.431c-1.096,0.506-2.178,1.039-3.245,1.601
			s-2.117,1.15-3.153,1.767c-1.039,0.616-2.059,1.259-3.06,1.929c-1.003,0.669-1.988,1.363-2.955,2.084
			c-0.967,0.72-1.914,1.465-2.845,2.234c-0.927,0.769-1.834,1.562-2.722,2.379c-0.887,0.817-1.753,1.656-2.597,2.517
			c-0.846,0.862-1.666,1.745-2.463,2.649c-0.799,0.904-1.574,1.828-2.325,2.772c-0.748,0.944-1.472,1.907-2.173,2.889
			c-0.699,0.982-1.373,1.982-2.021,2.998c-0.65,1.017-1.273,2.05-1.865,3.099c-8.886,15.818-10.61,34.399-5.644,51.771
			c6.041,21.14,19.885,34.447,35.67,48.599c-23.41,8.423-44.123,17.561-55.871,41.292c-8.254,16.67-8.486,36.716-2.318,54.113
			C1129.508,503.965,1129.893,504.987,1130.303,505.999z M1163.142,461.561c11.075-22.08,47.355-19.689,67.482-27.906
			c5.481-2.237,10.496-5.855,12.29-11.789c8.096-26.78-49.39-45.276-58.53-70.411c-2.97-8.17-1.497-16,2.559-23.522
			c4.971-9.205,13.686-19.424,24.292-21.975c28.448-6.845,48.883,34.409,69.887,46.398c5.36,3.059,9.444,3.524,15.45,1.825
			c15.492-11.431,0.831-58.17,6.245-78.352c3.011-11.234,9.384-16.489,19.01-22.278c11.801-0.191,23.906-0.329,34.293,6.225
			c25.011,15.78,8.366,59.703,13.949,83.499c1.617,6.894,4.721,11.158,10.751,14.856c22.081,3.744,46.323-42.185,68.542-50.682
			c7.846-3.002,16.198-3.052,23.816,0.694c9.038,4.444,18.814,14.819,21.873,24.499c10.117,31.993-45.805,51.749-57.575,75.714
			c-2.332,4.749-3.193,11.057-0.612,15.876c8.33,15.567,56.004,13.449,73.089,21.349c8.663,4.007,13.263,9.849,16.263,18.873
			c0.38,1.156,0.699,2.329,0.956,3.518c0.259,1.189,0.456,2.389,0.594,3.598c0.136,1.21,0.208,2.422,0.217,3.64
			c0.011,1.217-0.044,2.431-0.159,3.643c-0.116,1.212-0.292,2.414-0.529,3.607c-0.241,1.193-0.542,2.371-0.902,3.533
			c-0.362,1.163-0.781,2.303-1.257,3.423c-0.48,1.119-1.016,2.21-1.606,3.274c-25.189,45.43-71.881-6.312-102.361,7.118
			c-2.707,1.196-5.021,3.017-6.059,5.806c-5.742,15.391,16.692,40.483,23.559,54.349c5.806,11.712,10.923,25.597,5.891,38.517
			c-0.335,0.868-0.712,1.716-1.132,2.544c-0.422,0.831-0.885,1.637-1.387,2.418c-0.502,0.784-1.041,1.539-1.621,2.266
			c-0.578,0.73-1.192,1.427-1.84,2.091c-0.65,0.665-1.331,1.297-2.043,1.896c-0.712,0.596-1.454,1.155-2.226,1.676
			c-0.768,0.521-1.563,1.004-2.381,1.446c-0.818,0.443-1.657,0.842-2.513,1.198c-9.186,3.868-19.964,3.338-29.046-0.571
			c-22.13-9.539-30.786-41.462-39.148-62.337c-1.914-3.404-4.131-5.882-7.613-7.818c-25.956-14.43-35.358,63.395-65.342,72.113
			c-9.116,2.652-21.947-0.619-29.598-5.926c-36.342-25.204,18.671-72.747,13.32-103.455c-15.973-20.764-62.774,11.452-92.106,1.535
			c-8.082-2.733-15.617-7.975-19.025-16.036C1157.061,482.522,1158.856,470.104,1163.142,461.561z"/>
		<path d="M301.489,2238.263c0.699,1.001,1.425,1.985,2.175,2.952c0.75,0.964,1.525,1.909,2.325,2.833
			c0.8,0.925,1.622,1.829,2.47,2.711c0.848,0.882,1.717,1.741,2.608,2.577c0.891,0.836,1.805,1.648,2.738,2.437
			c0.934,0.789,1.889,1.553,2.863,2.292c0.972,0.739,1.965,1.454,2.977,2.144c1.01,0.687,2.039,1.347,3.084,1.98
			c1.047,0.633,2.108,1.239,3.183,1.817c1.078,0.579,2.169,1.13,3.276,1.654c1.105,0.522,2.224,1.014,3.355,1.476
			c1.132,0.462,2.274,0.896,3.428,1.302c1.154,0.403,2.318,0.776,3.491,1.12c1.173,0.344,2.356,0.656,3.546,0.934
			c1.19,0.282,2.385,0.533,3.589,0.753c15.982,3.037,30.531,0.326,45.934-3.746c-5.069,22.552-6.986,42.689,6.025,63.287
			c0.639,1.004,1.304,1.99,1.996,2.959c0.69,0.969,1.405,1.92,2.144,2.852c0.739,0.932,1.499,1.844,2.285,2.737
			c0.786,0.895,1.594,1.769,2.423,2.622c0.831,0.853,1.682,1.684,2.553,2.492c0.873,0.808,1.766,1.594,2.678,2.359
			c0.913,0.761,1.844,1.5,2.794,2.218c0.951,0.717,1.918,1.408,2.905,2.073c0.985,0.667,1.987,1.309,3.004,1.925
			c1.02,0.616,2.052,1.204,3.1,1.765c1.048,0.564,2.11,1.101,3.185,1.61c1.076,0.507,2.164,0.986,3.265,1.439
			c1.099,0.455,2.211,0.88,3.332,1.276c1.123,0.396,2.253,0.763,3.394,1.102c1.141,0.339,2.289,0.649,3.446,0.931
			c1.155,0.279,2.318,0.529,3.488,0.749c1.201,0.226,2.405,0.419,3.616,0.582c1.21,0.161,2.423,0.292,3.64,0.393
			c1.217,0.102,2.436,0.172,3.656,0.211c1.22,0.04,2.441,0.047,3.661,0.022c1.22-0.022,2.439-0.076,3.658-0.163
			c1.219-0.084,2.434-0.2,3.645-0.349c1.211-0.146,2.419-0.322,3.623-0.53c1.201-0.21,2.398-0.45,3.589-0.719
			c1.191-0.27,2.376-0.569,3.549-0.897c1.177-0.329,2.343-0.688,3.5-1.076c1.157-0.391,2.303-0.81,3.439-1.258
			c1.137-0.447,2.26-0.923,3.372-1.428c1.112-0.504,2.211-1.036,3.296-1.594c1.087-0.561,2.155-1.15,3.209-1.765
			c1.056-0.614,2.093-1.253,3.115-1.921c1.023-0.668,2.028-1.361,3.015-2.081c14.056-10.043,21.665-22.474,27.046-38.554
			c5.411,6.208,10.688,12.62,16.328,18.621c16.776,13.473,34.105,22.392,56.389,19.934c2.251-0.26,4.482-0.629,6.695-1.109
			c2.215-0.482,4.398-1.072,6.553-1.769c2.155-0.697,4.272-1.498,6.349-2.403c2.073-0.907,4.1-1.914,6.077-3.019
			c1.977-1.108,3.893-2.309,5.749-3.604c1.86-1.298,3.649-2.684,5.365-4.157c1.722-1.474,3.366-3.029,4.933-4.666
			c1.565-1.636,3.046-3.346,4.444-5.129c12.212-15.324,18.13-35.602,15.334-55.05c-1.88-13.077-7.577-23.257-14.01-34.497
			c25.841-2.117,46.131-5.518,63.917-26.635c0.779-0.913,1.534-1.844,2.262-2.792c0.73-0.952,1.434-1.921,2.115-2.908
			c0.677-0.986,1.329-1.991,1.958-3.015c0.628-1.021,1.23-2.057,1.804-3.108c0.572-1.053,1.117-2.12,1.635-3.201
			c0.518-1.08,1.009-2.173,1.469-3.279c0.462-1.107,0.894-2.225,1.297-3.352c0.406-1.13,0.781-2.268,1.125-3.416
			c0.344-1.147,0.657-2.303,0.942-3.468c0.288-1.164,0.541-2.335,0.764-3.512c0.224-1.177,0.418-2.359,0.578-3.546
			c0.165-1.189,0.297-2.381,0.398-3.575s0.172-2.389,0.21-3.586c0.038-1.199,0.045-2.396,0.023-3.594
			c-0.023-1.199-0.078-2.396-0.163-3.59c-0.085-1.197-0.201-2.389-0.35-3.578c-2.088-18.265-10.977-34.791-25.645-46.001
			c-15.497-11.849-32.783-14.705-51.775-15.176c16.964-23.29,33.147-46.224,28.086-76.727c-2.926-17.635-12.576-33.681-27.53-43.661
			c-16.035-10.707-36.63-13.755-55.29-9.427c-20.939,4.858-36.664,17.594-49.046,34.675c-4.469-24.874-11.37-48.03-33.249-63.302
			c-14.603-10.195-31.403-13.292-48.889-13.077c-20.097,3.008-36.126,10.551-48.293,27.536
			c-13.824,19.303-13.963,37.835-11.863,60.22c-22.822-8.003-43.072-11.842-66.05-1.131c-17.35,8.089-32.036,23.579-38.292,41.766
			c-5.751,16.718-3.96,34.538,4.279,50.099c7.674,14.497,22.657,24.811,35.342,34.771c-21.772,11.797-40.809,23.642-47.973,49.202
			c-5.121,18.272-1.648,39.593,8.294,55.666C300.118,2236.238,300.79,2237.259,301.489,2238.263z M397.394,2137.193
			c7.982-30.915-53.546-33.974-62.7-62.234c-2.675-8.259-0.531-17,3.173-24.569c3.857-7.881,9.548-15.379,18.25-18.101
			c22.192-6.946,46.417,14.337,65.621,22.919c5.9,2.636,14.077,4.866,20.162,1.531c21.85-11.975-7.73-61.247,0.031-83.332
			c4.098-11.664,13.281-16.522,23.843-21.573c6.508-0.208,13.206-0.757,19.338,1.836c30.866,13.05,23.405,60.761,33.767,86.755
			c2.778,6.969,6.2,11.2,13.179,14.178c22.764,0.627,43.098-44.38,62.36-57.097c6.896-4.554,15.503-7.012,23.677-4.717
			c7.647,2.148,16.18,8.266,20.008,15.313c17.344,31.934-35.384,68.883-44.425,98.311c0.592,3.782,0.17,4.168,2.91,7.224
			c11.305,12.59,36.908,8.856,52.563,9.687c13.121,0.694,27.257,4.091,35.989,14.634c0.666,0.799,1.291,1.631,1.872,2.496
			c0.581,0.865,1.115,1.758,1.604,2.678c0.489,0.919,0.927,1.861,1.318,2.826c0.389,0.967,0.73,1.949,1.019,2.948
			c0.288,1.001,0.525,2.016,0.708,3.041c0.185,1.024,0.317,2.054,0.393,3.093c0.076,1.039,0.1,2.078,0.067,3.119
			c-0.029,1.041-0.114,2.078-0.252,3.111c-7.122,54.832-78.648,11.426-102.028,33.37c-15.839,14.868,36.803,53.389,35.009,82.535
			c-0.549,8.907-4.435,17.326-11.359,23.064c-6.59,5.459-14.986,7.669-23.412,6.423c-25.245-3.735-41.099-39.626-54.423-58.614
			c-4.476-3.011-9.205-4.992-14.668-4.873c-20.575,0.448-25.074,51.338-41.859,69.388c-6.137,6.601-14.693,11.945-24.008,11.593
			c-9-0.338-16.692-6.078-22.597-12.428c-21.621-23.241,11.473-61.833,11.508-88.806c0.009-6.174-1.918-9.097-6.064-13.428
			c-22.646-8.838-47.685,16.488-69.482,21.788c-8.522,2.073-16.888,1.609-24.415-3.219c-8.757-5.619-18.702-18.335-20.147-28.849
			C319.389,2166.216,381.589,2158.495,397.394,2137.193z"/>
		<path d="M2996.039,1672.047c-8.593,23.642-19.303,52.047-20.215,77.405c-0.256,7.121,0.69,15.528,5.622,21.091
			c0.74,0.826,1.552,1.573,2.437,2.24c0.885,0.67,1.825,1.248,2.819,1.732c0.997,0.487,2.03,0.874,3.101,1.161
			c1.072,0.287,2.161,0.467,3.267,0.542c5.682,0.345,10.655-2.978,14.167-7.161c13.202-15.713,18.628-55.005,24.844-75.455
			c3.894-12.802,8.893-25.281,14.067-37.612c15.383-36.682,34.738-69.699,57.438-102.246
			c35.906-46.205,76.371-91.398,122.461-127.731c15.316,12.005,34.623,19.184,54.271,17.115
			c31.905-3.36,46.892-26.172,66.829-47.359c13.996,28.797,22.322,57.427,56.229,68.412c18.714,6.063,39.979,3.567,57.142-5.856
			c15.655-8.593,28.048-22.674,32.454-40.197c5.481-21.788,0.382-42.579-9.272-62.208c27.641,2.96,53.953,4.006,76.694-15.138
			c13.925-11.719,21.914-28.059,23.371-46.127c1.587-19.677-4.191-38.613-17.594-53.259c-15.494-16.926-36.14-23.787-58.054-27.592
			c17.045-22.174,30.411-43.372,26.235-72.844c-0.3-2.263-0.709-4.505-1.228-6.728c-0.521-2.222-1.152-4.414-1.888-6.575
			c-0.74-2.161-1.583-4.28-2.532-6.356c-0.95-2.074-1.999-4.098-3.149-6.071c-1.15-1.973-2.395-3.883-3.735-5.73
			c-1.34-1.849-2.768-3.627-4.283-5.333c-1.516-1.706-3.113-3.333-4.792-4.88c-1.679-1.548-3.429-3.009-5.251-4.384
			c-0.954-0.699-1.925-1.375-2.911-2.025c-0.989-0.65-1.993-1.276-3.011-1.876c-1.021-0.598-2.056-1.171-3.104-1.717
			c-1.048-0.549-2.111-1.069-3.186-1.561c-1.076-0.495-2.162-0.961-3.26-1.398c-1.1-0.438-2.209-0.848-3.327-1.231
			c-1.12-0.381-2.249-0.734-3.386-1.061c-1.137-0.324-2.282-0.619-3.434-0.886c-1.152-0.267-2.31-0.504-3.475-0.712
			c-1.164-0.208-2.333-0.386-3.509-0.534c-1.174-0.148-2.35-0.267-3.53-0.356c-1.18-0.089-2.361-0.149-3.541-0.178
			c-1.182-0.03-2.365-0.03-3.549,0c-1.183,0.032-2.363,0.093-3.542,0.182c-1.18,0.092-2.356,0.213-3.531,0.363
			c-1.172,0.148-2.34,0.328-3.504,0.538c-21.996,4.106-38.888,17.646-50.86,36.021l-1.368,2.136
			c-13.588-28.427-26.788-62.616-58.767-74.565c-9.164-3.427-19.132-4.209-28.837-4.188c-19.997,3.383-37.839,10.384-50.381,27.236
			c-12.769,17.156-16.125,39.808-12.943,60.576c1.476,9.653,5.117,18.992,8.381,28.159c-27.317-4.217-52.228-6.342-75.914,11.226
			c-0.96,0.7-1.901,1.424-2.822,2.173c-0.92,0.749-1.822,1.522-2.704,2.318c-0.88,0.796-1.741,1.614-2.581,2.455
			c-0.838,0.84-1.654,1.703-2.448,2.589c-0.794,0.883-1.564,1.784-2.311,2.707c-0.75,0.925-1.472,1.867-2.169,2.826
			c-0.697,0.962-1.37,1.941-2.018,2.937c-0.646,0.996-1.266,2.007-1.862,3.034c-0.593,1.029-1.161,2.072-1.702,3.13
			c-0.539,1.058-1.051,2.129-1.536,3.212c-0.484,1.085-0.941,2.182-1.368,3.289c-0.427,1.107-0.826,2.226-1.194,3.356
			c-0.371,1.127-0.711,2.265-1.021,3.412c-0.311,1.147-0.592,2.301-0.841,3.461c-0.25,1.162-0.47,2.329-0.66,3.5
			c-0.188,1.172-0.347,2.349-0.476,3.531c-0.269,2.269-0.425,4.546-0.467,6.831c-0.044,2.284,0.026,4.566,0.212,6.842
			c0.186,2.279,0.483,4.543,0.894,6.791c0.41,2.247,0.932,4.469,1.565,6.664c0.634,2.196,1.373,4.355,2.222,6.479
			c0.846,2.121,1.796,4.196,2.852,6.223c1.056,2.027,2.209,3.996,3.459,5.907c1.251,1.914,2.594,3.759,4.028,5.537
			c10.732,13.343,24.009,21.006,39.407,27.77c-14.078,18.257-29.076,36.47-26.406,61.128c1.561,14.404,8.6,26.635,17.734,37.527
			C3106.744,1481.178,3040.657,1549.301,2996.039,1672.047z M3198.676,1245.509c-5.325-7.18-6.093-15.732-4.691-24.336
			c1.591-9.739,5.63-19.964,14.115-25.675c15.609-10.499,38.032-3.29,54.747,0.686c10.666,2.537,30.333,9.031,39.997,1.417
			c24.172-19.044-21.291-66.818-16.344-92.477c2.247-11.667,11.533-20.497,21.116-26.646c5.485-0.349,11.141-0.834,16.6-0.011
			c37.142,5.619,31.972,56.2,50.34,78.648c4.417,5.396,10.421,8.133,17.338,8.341c21.413,0.645,37.698-24.847,51.917-37.772
			c6.761-6.141,14.953-11.404,24.454-10.799c9.646,0.616,19.203,7.495,25.281,14.649c31.424,36.978-42.01,65.808-40.301,97.391
			c1.369,25.244,67.968,14.642,87.059,36.578c5.889,6.768,7.98,15.832,7.469,24.625c-0.508,8.716-3.567,16.481-10.295,22.248
			c-21.25,18.228-54.015,2.518-78.199,0.797c-8.589-0.608-14.964,0.086-21.677,5.934c-10.517,20.427,21.758,54.691,20,81.697
			c-0.538,8.27-3.326,17.074-9.843,22.582c-9.916,8.378-23.642,8.248-35.72,6.746c-28.927-18.495-25.234-53.292-42.282-79.133
			c-3.312-5.018-7.554-8.678-13.755-9.494c-23.134-3.034-46.035,48.564-64.93,60.824c-6.363,4.127-13.695,5.83-21.158,4.15
			c-10.558-2.378-22.411-11.144-27.9-20.464c-19.767-33.551,43.19-61.703,47.129-90.282
			C3293.66,1262.924,3216.25,1269.206,3198.676,1245.509z"/>
		<path d="M429.109,1175.235c0.107,1.3,0.246,2.596,0.42,3.886c0.172,1.291,0.378,2.576,0.619,3.857
			c0.239,1.281,0.512,2.555,0.818,3.823c0.306,1.266,0.645,2.523,1.016,3.771c5.244,17.961,16.96,33.745,33.513,42.745
			c1.815,0.984,3.671,1.884,5.566,2.7c1.896,0.818,3.826,1.548,5.789,2.188c1.963,0.64,3.951,1.192,5.963,1.654
			c2.012,0.46,4.042,0.828,6.09,1.105c2.046,0.277,4.102,0.459,6.164,0.549c2.064,0.089,4.127,0.085,6.189-0.011
			c2.061-0.096,4.114-0.286,6.159-0.571c2.048-0.284,4.076-0.66,6.086-1.127c-4.561,25.678-5.61,48.63,10.503,71.042
			c0.715,1.004,1.452,1.988,2.215,2.952c0.762,0.967,1.55,1.912,2.361,2.837c0.811,0.927,1.644,1.833,2.501,2.719
			c0.855,0.882,1.733,1.744,2.633,2.584c0.9,0.841,1.82,1.658,2.762,2.451c0.94,0.794,1.899,1.564,2.879,2.311
			c0.978,0.744,1.976,1.465,2.991,2.162c1.018,0.694,2.05,1.364,3.098,2.006c1.047,0.645,2.112,1.263,3.193,1.854
			c1.081,0.588,2.175,1.151,3.281,1.687c1.108,0.534,2.229,1.041,3.365,1.521c1.135,0.479,2.28,0.929,3.433,1.35
			c1.157,0.422,2.325,0.816,3.502,1.179c1.175,0.361,2.359,0.693,3.553,0.998c1.193,0.304,2.394,0.578,3.6,0.819
			c1.208,0.243,2.417,0.455,3.634,0.638c19.696,2.837,38.967-2.76,54.421-15.216c9.835-7.929,17.319-17.656,23.838-28.389
			c12.725,20.334,27.825,38.347,52.183,44.496c19.66,4.958,38.978-0.189,55.942-10.57c5.758-3.523,10.713-7.751,15.676-12.294
			c83.419,70.752,137.862,131.855,181.53,233.585c10.077,22.684,18.248,46.036,24.51,70.055c3.794,14.374,5.909,31.816,12.01,45.182
			c1.965,4.306,5.161,6.449,9.471,7.977c4.596,1.628,9.498,1.766,13.938-0.504c5.239-2.677,8.069-8.122,9.119-13.688
			c6.838-36.222-38.848-142.065-56.742-175.157c-13.621-25.181-29.995-49.057-46.942-72.106
			c-37.62-51.156-82.42-92.247-129.775-134.069c2.262-15.479,0.616-26.439-6.22-40.498c24.883,0.734,45.32-0.107,64.348-18.635
			c14.005-13.633,21.663-32.858,21.869-52.313c0.004-1.306-0.027-2.609-0.089-3.909c-0.063-1.303-0.161-2.604-0.292-3.901
			c-0.132-1.298-0.297-2.591-0.498-3.879c-0.197-1.29-0.429-2.574-0.694-3.849c-0.264-1.278-0.561-2.548-0.894-3.809
			c-0.328-1.264-0.69-2.516-1.087-3.757c-0.395-1.244-0.822-2.476-1.282-3.697c-0.458-1.221-0.947-2.429-1.469-3.623
			c-0.521-1.197-1.074-2.377-1.659-3.542c-0.583-1.167-1.197-2.319-1.838-3.456c-0.643-1.135-1.315-2.253-2.014-3.353
			c-0.701-1.1-1.429-2.18-2.186-3.241c-0.755-1.063-1.539-2.106-2.351-3.13c-0.809-1.021-1.644-2.021-2.508-3
			c-0.862-0.979-1.749-1.934-2.662-2.867c-0.909-0.932-1.845-1.841-2.803-2.725c-10.726-10.039-23.246-15.628-36.671-20.976
			c15.95-18.128,27.488-35.069,25.957-60.491c-1.175-19.534-11.09-37.969-26.138-50.352c-14.78-12.164-33.571-18.039-52.617-15.487
			c-15.403,2.062-28.227,8.867-41.066,17.152c-3.048-26.913-7.859-53.441-30.574-71.29c-14.315-11.252-32.595-15.409-50.547-14.326
			c-21.154,3.779-39.426,11.534-51.804,30.081c-9.777,14.649-12.654,30.893-13.994,48.107
			c-22.659-10.714-44.851-17.471-69.721-8.726c-1.134,0.393-2.26,0.814-3.375,1.264c-1.114,0.45-2.216,0.929-3.303,1.435
			c-1.09,0.507-2.167,1.042-3.23,1.606c-1.061,0.564-2.106,1.154-3.138,1.769c-1.03,0.618-2.044,1.26-3.044,1.928
			c-1,0.67-1.979,1.365-2.941,2.084c-0.962,0.719-1.905,1.464-2.83,2.232c-0.925,0.769-1.827,1.56-2.711,2.374
			c-0.882,0.816-1.744,1.654-2.584,2.514c-0.842,0.858-1.659,1.738-2.452,2.64c-0.793,0.903-1.565,1.825-2.311,2.767
			c-0.746,0.939-1.469,1.899-2.166,2.877c-0.699,0.98-1.373,1.976-2.017,2.99c-0.646,1.013-1.266,2.044-1.858,3.089
			c-0.592,1.043-1.157,2.102-1.697,3.178c-0.538,1.076-1.048,2.163-1.53,3.264c-7.312,16.466-8.078,34.909-1.478,51.731
			c6.463,16.463,18.824,30.077,32.87,40.528c-21.88,5.818-38.936,12.917-51.29,33.303c-0.67,1.117-1.311,2.251-1.921,3.401
			c-0.612,1.151-1.193,2.318-1.744,3.497c-0.55,1.182-1.07,2.376-1.559,3.583c-0.489,1.209-0.947,2.429-1.373,3.661
			c-0.426,1.231-0.82,2.472-1.181,3.723c-0.362,1.254-0.692,2.514-0.987,3.783c-0.295,1.269-0.56,2.544-0.789,3.827
			c-0.23,1.283-0.426,2.571-0.59,3.864c-0.163,1.291-0.292,2.586-0.389,3.887c-0.096,1.3-0.158,2.602-0.186,3.905
			c-0.029,1.3-0.023,2.602,0.014,3.905C428.931,1172.636,429.004,1173.936,429.109,1175.235z M464.951,1160.059
			c10.327-30.314,46.75-27.451,70.764-39.37c3.763-1.869,8.473-4.929,9.583-9.223c6.403-24.829-43.688-44.818-53.619-66.317
			c-3.439-7.45-4.044-16.599-0.884-24.25c3.973-9.628,13.426-19.715,23.309-23.349c27.599-10.15,49.977,29.487,72.272,38.38
			c5.329,2.121,10.867,2.21,15.952-0.779c16.937-9.958,0.722-60.817,8.373-80.881c3.875-10.161,10.684-13.588,20.071-18.116
			c2.459-0.389,4.873-0.771,7.361-0.934c10.255-0.671,23.369,0.567,31.257,7.884c19.57,18.146,5.963,56.211,8.326,79.178
			c0.592,5.756,2.861,11.256,7.98,14.416c20.872,12.902,53.715-34.045,76.901-37.924c8.567-1.431,16.31,1.502,22.938,6.898
			c8.022,6.531,16.64,17.434,17.045,28.237c0.907,24.347-30.145,39.181-43.607,55.855c-4.235,5.24-7.209,11.574-5.938,18.48
			c3.35,18.138,53.094,20.757,68.435,30.444c7.265,4.584,12.781,10.907,14.282,19.559c1.891,10.881-1.965,26.509-8.634,35.265
			c-20.971,27.551-60.453-7.981-85.56-1.821c-4.947,1.212-9.076,3.668-11.535,8.285c-7.772,14.597,19.2,44.191,24.423,58.892
			c3.225,9.09,3.989,18.743-0.856,27.41c-5.382,9.624-17.275,17.619-27.8,20.412c-42.92,11.381-43.866-60.202-70.794-74.22
			c-0.482-0.252-0.974-0.489-1.465-0.734c-34.362,0.671-27.673,47.567-47.896,66.072c-6.505,5.952-14.595,7.577-23.173,6.709
			c-10.662-1.079-26.579-4.532-32.881-14.267c-15.263-23.575,19.081-58.091,24.98-80.335c1.447-5.452,1.97-11.13-1.583-15.958
			c-14.371-19.54-61.382,13.696-86.206,7.881c-8.408-1.969-14.186-7.054-18.366-14.478
			C463.504,1178.643,461.657,1169.716,464.951,1160.059z"/>
		<path d="M973.957,2165.645c10.164,34.326,31.021,64.247,60.817,84.411c2.182,54.17,4.064,108.35,5.641,162.539
			c1.009,40.987,0.905,82.149,3.115,123.088c-13.027,5.04-27.005,9.524-39.051,16.589c-16.964-19.125-34.12-36.363-61.393-37.82
			c-1.239-0.064-2.479-0.096-3.719-0.096c-1.239,0-2.477,0.031-3.716,0.093c-1.239,0.062-2.477,0.156-3.712,0.281
			c-1.233,0.126-2.465,0.284-3.69,0.475c-1.224,0.188-2.445,0.408-3.66,0.66c-1.215,0.25-2.421,0.531-3.62,0.845
			c-1.202,0.314-2.394,0.658-3.574,1.031c-1.184,0.373-2.358,0.778-3.52,1.213c-1.162,0.433-2.311,0.895-3.45,1.387
			c-1.137,0.495-2.262,1.016-3.374,1.566c-1.114,0.551-2.209,1.13-3.29,1.736c-1.083,0.606-2.149,1.239-3.2,1.899
			c-1.049,0.663-2.079,1.35-3.093,2.062c-1.018,0.715-2.014,1.454-2.99,2.218c-0.976,0.764-1.934,1.552-2.87,2.366
			c-0.938,0.813-1.853,1.65-2.745,2.511c-13.112,12.561-21.31,30.31-21.469,48.564c-0.065,7.736,0.561,15.55,1.05,23.268
			c-69.398,36.117-134.168,75.165-159.25,154.778c-6.935,22.01-8.627,46.146-18.405,67.144c-8.641,18.55-24.89,33.674-35.239,51.453
			c-24.452,42.003-22.074,110.085,0.078,152.608c11.796,22.648,31.648,41.406,56.567,48.486c16.265,4.617,32.494,3.237,49.097,2.073
			c-0.768,51.802-1.014,103.607-0.733,155.415c-95.259,27.469-287.422,76.853-337.296,168.225
			c-12.458,22.827-17.228,49.113-9.608,74.375c14.603,48.416,70.923,84.99,113.3,106.755
			c76.394,39.237,162.696,63.201,245.697,83.844c383.753,95.437,824.741,108.569,1219.298,109.559
			c80.941,0.02,161.838-1.872,242.689-5.674c18.314-0.897,42.459,0.856,59.857-4.068c4.806-1.361,9.512-4.057,12.09-8.489
			c3.222-5.541,2.67-11.437,1.097-17.364c-4.68-6.268-9.724-8.504-17.453-9.672c-18.809-2.844-39.837,0.605-58.825,1.573
			c-24.834,1.076-49.671,1.949-74.518,2.622c-87.525,2.138-175.064,3.076-262.616,2.814c-81.006-0.344-162.18-3.52-243.139-6.367
			c-230.166-8.1-459.656-25.263-686.714-65.104c-113.816-19.971-227.802-44.722-336.568-84.37
			c-53.269-19.422-128.339-47.429-163.341-93.694c-10.677-14.115-17.473-30.77-14.309-48.686
			c5.125-29.031,32.551-50.626,55.73-66.006c55.051-36.518,118.104-56.348,179.997-77.742c24.789-7.425,49.468-15.142,74.865-20.253
			c-0.442,62.898,3.218,110.609,49.97,157.893c21.746,21.995,49.438,35.699,79.555,42.026c33.883,7.12,70.711,6.534,105.298,8.422
			c49.747,2.801,99.463,6.047,149.151,9.739c257.647,19.114,515.301,38.576,773.819,38.339
			c145.824-0.331,291.578-3.711,437.261-10.139c145.683-6.431,291.167-15.905,436.452-28.423l128.896-10.636
			c33.396-2.515,68.949-2.752,101.474-10.892c33.403-8.363,62.26-24.47,86.617-48.831c46.005-46.016,52.666-95.467,52.429-157.945
			c79.56,21.006,264.437,81.1,304.986,153.691c8.055,14.419,10.974,29.628,5.83,45.597c-14.593,45.315-77.16,75.785-117.169,94.992
			c-73.259,35.168-156.12,55.673-235.05,73.849c-83.658,18.904-167.868,34.914-252.629,48.03
			c-84.76,13.113-169.871,23.302-255.332,30.566c-17.274,1.632-76.872-0.719-82.45,19.389c-1.773,6.386,1.766,14.378,5.815,19.274
			c3.397,4.109,7.288,5.147,12.428,5.351c17.59,0.694,36.325-2.288,53.863-3.912c32.322-2.981,64.622-6.174,96.902-9.576
			c193.94-20.434,643.294-81.759,778.46-215.609c21.269-21.065,38.025-48.505,38.266-79.275
			c0.256-32.821-17.705-59.845-40.354-81.967c-65.367-63.847-223.742-119.88-312.636-141.987c-0.98-21.951-0.917-43.88-0.913-65.846
			c40.89-6.197,72.919-21.799,98.07-55.543c1.404-1.906,2.761-3.845,4.068-5.818c1.307-1.973,2.566-3.978,3.776-6.012
			c1.209-2.035,2.367-4.099,3.475-6.193c1.107-2.092,2.162-4.209,3.164-6.354c1.003-2.146,1.953-4.314,2.848-6.504
			c0.895-2.193,1.736-4.406,2.521-6.638c0.784-2.233,1.514-4.484,2.188-6.754c0.675-2.269,1.294-4.554,1.854-6.853
			c0.561-2.3,1.065-4.612,1.509-6.939c0.447-2.324,0.837-4.658,1.168-7.001c0.331-2.344,0.605-4.695,0.82-7.054
			c0.215-2.356,0.371-4.718,0.471-7.083c0.099-2.364,0.138-4.73,0.118-7.098c-0.017-2.366-0.094-4.731-0.23-7.094
			c-0.136-2.364-0.33-4.723-0.582-7.076c-0.252-2.354-0.562-4.7-0.931-7.039c-6.349-39.77-28.883-70.911-59.656-95.755
			c4.116-77.476-8.411-156.921-62.446-216.336c-57.131-62.827-152.486-97.399-236.211-101.292
			c-12.216-0.567-24.573,0.041-36.733,1.268l-1.847-324.271c28.464-9.178,48.467-32.238,61.811-58.321
			c27.584-53.912,26.376-128.369,7.558-184.813c-1.343-3.966-2.783-7.896-4.321-11.79c-1.538-3.894-3.17-7.748-4.896-11.563
			c-1.729-3.815-3.549-7.584-5.462-11.308c-1.914-3.723-3.918-7.397-6.012-11.022c-2.097-3.627-4.28-7.198-6.55-10.714
			c-2.272-3.518-4.629-6.977-7.071-10.377c-2.443-3.402-4.967-6.741-7.573-10.017c-2.609-3.276-5.295-6.485-8.059-9.628
			c-2.767-3.142-5.609-6.216-8.526-9.219c-2.917-3.002-5.908-5.931-8.971-8.786c-3.064-2.856-6.195-5.633-9.394-8.333
			c-3.2-2.699-6.464-5.319-9.795-7.859c-3.327-2.539-6.717-4.995-10.169-7.369c-3.45-2.371-6.955-4.655-10.517-6.854
			c-3.563-2.198-7.179-4.307-10.848-6.327c-3.667-2.02-7.382-3.948-11.145-5.785c-9.987-4.939-20.249-9.086-31.074-11.793
			c-12.969-23.049-27.365-44.573-54.56-51.823c-20.857-5.556-44.671-0.175-62.727,11.177c-4.669,2.937-9.094,6.349-13.481,9.694
			l-31.942-1.076c-1.103-65.165-1.436-130.333-1.001-195.505c0.293-27.732-0.722-56.237,1.736-83.817
			c2.388-26.813,24.173-49.043,32.483-75.181c25.645-80.654-11.26-203.097-71.264-261.522
			c-44.296-43.127-96.294-52.614-155.683-57.757l-6.174-16.441c2.163-4.007,4.225-8.065,6.186-12.172
			c1.963-4.109,3.823-8.264,5.581-12.464c1.756-4.201,3.408-8.442,4.958-12.724c1.548-4.282,2.99-8.601,4.324-12.954
			c1.335-4.351,2.562-8.734,3.68-13.147c1.119-4.413,2.129-8.852,3.03-13.317c0.9-4.462,1.688-8.945,2.366-13.447
			c0.68-4.502,1.248-9.018,1.702-13.547c0.457-4.532,0.802-9.071,1.035-13.618c0.233-4.546,0.352-9.097,0.36-13.651
			c0.008-4.552-0.097-9.102-0.315-13.651c-0.217-4.547-0.546-9.086-0.986-13.618c-0.44-4.532-0.993-9.05-1.658-13.555
			c-0.663-4.504-1.437-8.991-2.322-13.458c-0.885-4.466-1.88-8.907-2.981-13.325c-1.106-4.419-2.318-8.806-3.639-13.162
			c-23.156-76.282-72.169-135.304-142.684-172.323c-22.871-12.009-46.454-20.683-71.372-27.329
			c7.573-130.349,56.875-270.725,155.868-359.439c17.067-15.294,37.52-27.315,57.654-38.081
			c13.32-7.124,37.215-14.958,47.295-25.578c2.822-2.97,3.624-6.439,3.727-10.483c0.134-5.368-1.602-12.282-5.659-15.986
			c-6.516-5.948-14.961-5.505-23.067-4.399c-21.206,9.008-42.107,18.16-61.644,30.523
			c-77.406,48.987-134.533,132.058-168.415,215.795c-8.814,21.502-16.348,43.444-22.604,65.824
			c-6.255,22.38-11.187,45.048-14.796,68.004c-3.68,22.719-5.416,46.828-10.726,69.132c-82.476-3.468-132.674,9.16-201.229,56.207
			c-2.499-101.403-93.451-156.55-129.292-243.613c-7.069-17.167-11.367-35.691-13.514-54.094
			c-1.097-9.417-1.058-19.668-3.652-28.795c-1.489-5.22-4.062-10.508-8.393-13.95c-4.087-3.248-8.082-3.71-13.087-2.892
			c-5.615,0.917-10.994,4.713-13.712,9.667c-6.211,11.322-2.747,28.647-4.94,41.383c-1.668,9.33-3.915,18.52-6.742,27.569
			c-2.823,9.049-6.202,17.885-10.135,26.509c-12.442,26.91-30.018,51.931-48.09,75.347
			c-38.297,49.617-98.091,108.684-74.371,177.052c3.142,9.052,7.39,17.916,11.385,26.627
			c-78.659,36.426-140.569,95.47-170.825,177.919c-10.514,28.664-16.211,57.535-17.779,88.023
			c-24.046,0.212-45.189,3.338-62.628,21.684c-12.06,12.691-18.791,28.749-25.819,44.495
			c-72.06,31.022-121.089,73.486-151.076,147.928c-20.111,49.921-25.716,112.759-4.254,163.196
			c8.752,20.571,21.603,36.144,40.508,48.33c1.543,101.207,5.949,202.641,5.364,303.84c-15.032-17.671-31.076-29.646-55.154-31.307
			c-1.219-0.094-2.439-0.157-3.661-0.189c-1.219-0.03-2.437-0.03-3.66,0c-1.222,0.03-2.441,0.09-3.66,0.182
			c-1.22,0.091-2.434,0.214-3.647,0.367c-1.211,0.153-2.417,0.336-3.618,0.549c-1.204,0.215-2.401,0.459-3.591,0.73
			c-1.192,0.274-2.374,0.579-3.549,0.913c-1.173,0.333-2.34,0.697-3.497,1.09c-1.157,0.393-2.303,0.815-3.439,1.265
			c-1.137,0.45-2.26,0.929-3.37,1.439c-1.114,0.507-2.211,1.041-3.294,1.602c-1.085,0.564-2.155,1.153-3.207,1.769
			c-1.056,0.615-2.095,1.258-3.116,1.928c-1.023,0.668-2.028,1.363-3.015,2.084c-0.985,0.72-1.954,1.463-2.903,2.229
			c-0.951,0.769-1.88,1.561-2.789,2.377c-15.195,13.547-21.132,29.406-26.128,48.401c-69.168,19.589-122.84,56.656-158.1,120.492
			C973.074,2028.85,954.88,2101.234,973.957,2165.645z M905.731,2576.422c4.983-13.674,14.811-19.704,27.454-25.53
			c6.943-0.441,14.481-0.4,20.946,2.444c1.139,0.492,2.253,1.04,3.337,1.643c1.083,0.603,2.135,1.261,3.153,1.973
			c1.016,0.709,1.994,1.469,2.934,2.281c0.942,0.811,1.84,1.667,2.693,2.566c0.853,0.902,1.657,1.844,2.414,2.826
			c0.757,0.984,1.463,2.004,2.119,3.059c0.652,1.053,1.249,2.139,1.794,3.256c0.543,1.115,1.029,2.255,1.458,3.42
			c0.417,1.177,0.773,2.371,1.067,3.583c0.295,1.211,0.527,2.435,0.695,3.671c0.167,1.236,0.272,2.479,0.311,3.727
			c0.042,1.246,0.018,2.491-0.067,3.734c-0.087,1.246-0.237,2.484-0.453,3.713c-0.216,1.229-0.492,2.444-0.831,3.645
			c-0.339,1.199-0.739,2.379-1.199,3.538c-0.458,1.162-0.978,2.295-1.554,3.401c-5.635,10.87-14.481,16.136-25.774,19.737
			c-5.686,0.063-11.66,0.356-17.163-1.276c-9.19-2.722-17.513-9.097-21.922-17.664
			C902.677,2595.503,902.415,2585.512,905.731,2576.422z M3085.234,3397.643c-2.495,2.561-5.08,5.03-7.755,7.406
			c-2.673,2.376-5.427,4.653-8.263,6.832c-2.838,2.178-5.75,4.251-8.737,6.219c-2.987,1.967-6.04,3.825-9.16,5.574
			c-3.12,1.748-6.298,3.381-9.535,4.899c-3.239,1.518-6.527,2.918-9.864,4.202c-3.341,1.281-6.722,2.44-10.144,3.479
			c-3.421,1.041-6.876,1.956-10.365,2.744c-31.241,7.254-64.978,7.191-96.946,9.802c-54.798,4.806-109.62,9.315-164.464,13.525
			c-254.979,21.391-510.403,33.333-766.268,35.825c-163.422,0.151-326.708-4.505-489.859-13.967
			c-109.023-7.068-217.995-14.846-326.918-23.334c-53.688-3.763-107.395-7.224-161.12-10.384
			c-33.258-1.854-69.48-1.209-102.104-7.795c-24.551-4.955-49.258-16.129-66.984-34.141c-15.269-15.517-27.081-36.318-32.265-57.479
			c-6.646-27.125-3.971-58.295-4.053-86.128c-0.154-45.801,0.127-91.599,0.842-137.392c15.245,31.801,34.878,59.549,66.921,76.212
			c20.026,10.409,42.681,14.314,65.108,13.269c107.125-4.999,98.555-111.602,169.106-133.083l2.53-0.749
			c9.06-0.549,18.031-0.942,26.891,1.424c41.209,11,55.391,68.802,74.954,101.745c18.398,30.974,45.99,60.246,82.176,69.162
			c55.785,13.744,94.364-20.579,131.439-56.375c11.582-11.181,23.445-23.624,37.468-31.753c15.327-8.878,34.326-14.011,51.764-8.878
			c51.163,15.06,67.522,100.666,90.934,141.808c15.209,26.724,36.919,47.329,67.225,55.555c18.206,4.944,37.649,4.235,55.763-0.894
			c84.859-24.028,83.95-132.522,140.198-162.328c11.144-5.908,24.481-7.688,36.555-3.72c35.758,11.749,52.117,64.196,66.715,94.625
			c16.136,33.632,39.73,70.525,77.087,82.709c25.73,8.389,55.813,4.498,79.311-8.648c42.037-23.517,54.461-71.914,66.858-114.788
			c7.738-26.75,17.661-61.963,44.329-75.737c53.163-27.462,81.997,47.302,101.849,82.271c9.988,17.601,21.039,35.172,35.539,49.45
			c12.928,12.728,29.461,21.718,46.847,26.691c1.859,0.539,3.729,1.03,5.611,1.473c1.884,0.445,3.777,0.842,5.678,1.19
			c1.903,0.349,3.814,0.65,5.733,0.905c1.916,0.252,3.839,0.457,5.768,0.616c1.928,0.155,3.859,0.264,5.793,0.326
			c1.933,0.059,3.868,0.071,5.804,0.033c1.933-0.037,3.865-0.122,5.793-0.256c1.93-0.134,3.857-0.315,5.777-0.545
			c1.921-0.23,3.834-0.509,5.741-0.834c1.906-0.327,3.803-0.7,5.692-1.12c1.89-0.421,3.766-0.889,5.63-1.406
			c1.865-0.514,3.715-1.076,5.552-1.684c1.837-0.608,3.656-1.262,5.459-1.962c1.804-0.697,3.59-1.441,5.354-2.229
			c1.768-0.789,3.514-1.622,5.237-2.499c1.726-0.875,3.428-1.794,5.107-2.756c54.528-31.497,54.416-89.577,69.24-143.233
			c3.493-12.646,9.73-27.822,22.013-34.249c37.553-19.644,92.663,81.919,114.885,105.769c16.385,17.586,34.883,31.445,57.888,39.129
			c59.448,19.859,106.24-21.855,136.758-68.082c20.078-30.414,34.764-71.123,69.684-87.823c18.835-9.012,34.838-4.272,53.381,2.206
			c29.973,13.036,58.585,24.177,90.149,32.962l0.334,90.601C3123.039,3306.13,3126.021,3356.167,3085.234,3397.643z
			 M2920.105,2625.368c52.859-4.465,125.577,24.755,170.098,51.717c2.8,1.681,5.555,3.43,8.267,5.247
			c2.713,1.817,5.378,3.7,7.997,5.648c2.617,1.95,5.186,3.964,7.706,6.041c2.517,2.079,4.981,4.219,7.395,6.42
			c2.414,2.2,4.77,4.459,7.069,6.776c2.3,2.317,4.54,4.689,6.72,7.117c2.183,2.43,4.303,4.913,6.36,7.447
			c2.059,2.534,4.054,5.117,5.982,7.751c1.931,2.633,3.795,5.312,5.593,8.036c1.794,2.727,3.522,5.496,5.181,8.307
			c1.659,2.811,3.247,5.663,4.765,8.556c1.518,2.89,2.962,5.816,4.332,8.778c1.372,2.962,2.67,5.957,3.894,8.986
			c1.221,3.026,2.367,6.082,3.438,9.167c1.073,3.083,2.067,6.191,2.981,9.323c0.917,3.135,1.756,6.289,2.514,9.464
			c4.298,17.905,12.498,61.837,2.447,78.106c-13.94,1.546-34.308-6.501-48.749-8.537c-11.263-1.587-22.759-1.494-34.115-1.535
			c-6.224-19.207-13.833-33.9-31.898-44.762c-17.101-10.276-38.421-12.739-57.653-7.721c-22.033,5.745-35.684,17.897-44.029,38.617
			c-2.014,4.999-4.017,11.823-7.281,16.021c-4.528,5.819-13.695,5.411-20.327,4.595c-21.425-2.64-41.076-11.596-60.721-19.982
			c-59.571-25.422-100.362-24.087-162.992-12.201c-7.785-8.44-17.078-15.898-27.303-21.168c-18.78-9.675-40.798-11.89-60.817-4.702
			c-25.493,9.153-38.454,29.149-49.027,52.584c-96.275,13.933-204.068,13.87-286.058,72.806
			c-8.104-18.654-18.651-33.77-36.923-43.891c-18.479-10.232-40.906-13.062-61.109-6.557c-25.449,8.192-40.072,26.501-52.121,49.09
			c-117.451-24.64-167.48-52.729-287.458-12.961c-4.199-7.267-9.076-14.045-14.631-20.335
			c-14.414-16.065-32.246-26.75-54.224-27.273c-28.819-0.686-47.777,15.528-66.943,34.542
			c-68.194-0.749-137.174-7.588-205.43-10.406c-0.263-0.846-0.516-1.698-0.789-2.544c-7.106-21.969-20.308-40.961-41.58-51.149
			c-17.697-8.474-37.984-8.593-56.134-1.365c-23.479,9.349-35.306,26.249-45.13,48.386c-93.839-25.778-152.767-49.736-244.996,5.83
			c-24.081,14.508-45.437,35.302-72.547,43.969c-0.782,0.252-1.572,0.486-2.358,0.727c-3.817-14.104-7.002-28.515-15.276-40.809
			c-10.829-16.092-28.242-27.855-47.507-30.748c-18.662-2.796-40.32,3.241-55.335,14.519
			c-15.495,11.637-23.992,29.164-25.976,48.222c-2.006,19.285,3.658,37.705,16.504,52.276
			c12.944,14.683,31.927,24.484,51.616,25.141c25.467,0.846,45.441-13.473,62.76-30.41l1.525-0.048
			c0.846-0.037,1.691-0.093,2.541-0.123c48.789-1.714,71.164-33.177,111.225-53.474c83.094-42.107,138.514-19.718,220.293,7.117
			c8.303,16.377,17.991,29.135,34.638,37.898c1.088,0.571,2.189,1.115,3.305,1.632c1.115,0.514,2.242,1.001,3.383,1.461
			c1.139,0.46,2.289,0.891,3.448,1.294c1.163,0.403,2.334,0.778,3.513,1.124c1.179,0.344,2.367,0.659,3.56,0.946
			c1.197,0.287,2.398,0.542,3.605,0.767c1.208,0.227,2.421,0.424,3.638,0.59c1.219,0.166,2.439,0.302,3.663,0.407
			c1.224,0.106,2.45,0.182,3.68,0.227c1.226,0.045,2.454,0.058,3.681,0.041c1.229-0.014,2.457-0.061,3.683-0.137
			c1.226-0.08,2.45-0.187,3.671-0.323c1.222-0.138,2.439-0.306,3.651-0.504c1.213-0.198,2.421-0.427,3.624-0.686
			c1.201-0.257,2.396-0.545,3.582-0.864c1.186-0.316,2.365-0.663,3.535-1.039c19.899-6.449,32.32-19.325,41.396-37.672
			c64.752,0.237,135.202,6.591,200.267,10.807c3.942,16.444,8.402,31.897,18.876,45.582c0.75,0.991,1.523,1.964,2.322,2.918
			c0.797,0.955,1.615,1.889,2.459,2.804c0.842,0.912,1.708,1.803,2.595,2.674s1.796,1.719,2.727,2.544
			c0.929,0.828,1.878,1.632,2.847,2.411c0.967,0.779,1.954,1.533,2.961,2.262c1.005,0.729,2.03,1.434,3.071,2.114
			c1.04,0.679,2.099,1.334,3.174,1.962c1.072,0.628,2.16,1.229,3.263,1.802c1.103,0.574,2.218,1.12,3.348,1.639
			c1.13,0.519,2.273,1.01,3.428,1.473c1.153,0.462,2.318,0.895,3.493,1.297c1.173,0.406,2.358,0.781,3.553,1.128
			c1.193,0.346,2.396,0.662,3.609,0.949c1.208,0.287,2.423,0.544,3.645,0.771s2.45,0.424,3.681,0.59
			c19.126,2.418,39.322-2.34,54.495-14.47c15.971-12.769,24.213-30.21,26.505-50.174c78.195-20.961,121.793-23.821,201.294-4.013
			c27.651,6.891,55.218,14.549,83.644,17.449c1.898,5.165,3.859,10.306,5.882,15.424c7.825,19.641,21.31,34.935,41.195,42.975
			c1.237,0.487,2.483,0.942,3.738,1.365c1.259,0.422,2.528,0.814,3.806,1.175c1.279,0.359,2.564,0.686,3.857,0.983
			c1.295,0.294,2.597,0.555,3.904,0.783c1.306,0.23,2.617,0.427,3.935,0.589c1.318,0.163,2.638,0.293,3.96,0.389
			c1.325,0.097,2.653,0.161,3.98,0.193c1.325,0.03,2.651,0.026,3.978-0.011c1.328-0.037,2.654-0.108,3.977-0.211
			c1.322-0.104,2.643-0.241,3.96-0.412c1.316-0.171,2.626-0.374,3.931-0.608c1.308-0.237,2.608-0.507,3.898-0.809
			c1.293-0.302,2.578-0.635,3.853-1.001c1.277-0.366,2.542-0.764,3.798-1.194s2.501-0.892,3.735-1.387
			c1.23-0.492,2.45-1.015,3.656-1.569c23.939-10.892,37.142-30.915,46.12-54.627c21.955-9.138,40.591-24.51,63.02-33.196
			c66.069-25.593,152.027-29.643,222.504-36.971c16.092,21.002,25.916,40.097,53.645,47.336c1.182,0.314,2.37,0.598,3.567,0.853
			c1.194,0.252,2.394,0.476,3.601,0.671c1.207,0.193,2.418,0.356,3.634,0.49c1.214,0.131,2.432,0.232,3.653,0.304
			c1.221,0.071,2.443,0.113,3.664,0.126c1.221,0.01,2.442-0.011,3.664-0.063c1.22-0.049,2.441-0.131,3.66-0.245
			c1.217-0.111,2.429-0.253,3.638-0.426c1.211-0.173,2.417-0.377,3.616-0.612c1.201-0.232,2.395-0.496,3.579-0.789
			c1.187-0.294,2.366-0.618,3.537-0.972c1.17-0.351,2.331-0.733,3.482-1.146c1.15-0.411,2.29-0.849,3.42-1.316
			c1.13-0.47,2.246-0.967,3.349-1.491c1.104-0.524,2.197-1.076,3.274-1.654c1.076-0.579,2.137-1.184,3.183-1.818
			c27.766-16.852,32.268-40.868,38.784-69.847c7.384-4.231,20.456-4.735,28.882-5.855c89.225-11.835,134.199,47.503,200.757,42.927
			c11.957,18.202,25.033,35.343,45.931,43.832c17.594,7.143,38.299,6.868,55.51-1.283c21.08-9.983,32.995-29.101,40.772-50.185
			c26.561-1.817,49.77,0.798,74.269,11.612c29.568,13.054,56.126,35.454,67.615,66.409c0.539,1.479,1.042,2.969,1.51,4.473
			c0.467,1.503,0.896,3.017,1.287,4.542c0.393,1.526,0.748,3.06,1.064,4.603c0.32,1.54,0.598,3.089,0.838,4.647
			c0.242,1.555,0.445,3.115,0.608,4.68c0.163,1.564,0.289,3.134,0.378,4.706c0.087,1.572,0.135,3.146,0.145,4.721
			c0.01,1.574-0.018,3.148-0.085,4.721c-0.067,1.573-0.172,3.143-0.315,4.71c-0.146,1.567-0.33,3.13-0.549,4.688
			c-0.221,1.56-0.479,3.113-0.775,4.658c-0.3,1.547-0.635,3.085-1.005,4.613c-0.374,1.531-0.784,3.05-1.231,4.558
			c-0.448,1.51-0.931,3.009-1.451,4.495c-0.521,1.486-1.079,2.958-1.672,4.417c-0.593,1.459-1.221,2.901-1.884,4.328
			c-1.12,2.433-2.328,4.821-3.623,7.165c-1.295,2.346-2.674,4.641-4.135,6.884c-1.461,2.244-3.002,4.432-4.624,6.564
			c-1.623,2.131-3.319,4.202-5.092,6.212c-1.773,2.007-3.616,3.947-5.53,5.819c-1.916,1.874-3.896,3.677-5.941,5.407
			c-2.045,1.728-4.151,3.38-6.32,4.955c-2.166,1.575-4.386,3.07-6.66,4.484c-84.549,52.925-145.878-52.198-236.997-18.465
			c-68.12,32.591-81.863,137.251-143.57,154.181c-76.408,20.964-111.726-109.073-170.84-141.575
			c-1.044-0.578-2.102-1.13-3.174-1.654c-1.073-0.524-2.159-1.021-3.256-1.488c-1.1-0.467-2.21-0.906-3.331-1.317
			c-1.119-0.41-2.251-0.791-3.394-1.142c-1.139-0.354-2.288-0.677-3.444-0.968c-1.157-0.292-2.322-0.554-3.494-0.787
			c-1.173-0.232-2.348-0.435-3.527-0.608c-1.183-0.171-2.368-0.312-3.556-0.423c-1.19-0.109-2.379-0.188-3.572-0.237
			c-1.194-0.049-2.386-0.068-3.579-0.056c-1.193,0.014-2.386,0.059-3.578,0.134c-1.192,0.074-2.381,0.179-3.567,0.315
			c-1.184,0.136-2.367,0.302-3.546,0.497c-1.177,0.198-2.348,0.425-3.512,0.682c-1.167,0.257-2.325,0.545-3.475,0.864
			c-1.153,0.317-2.294,0.662-3.427,1.039c-67.707,22.3-47.855,98.503-73.956,148.358c-10.599,20.241-27.874,34.867-49.999,41.057
			c-90.074,25.189-105.079-119.513-171.923-155.464c-20.238-10.881-45.278-12.394-67.114-5.615
			c-71.883,22.314-67.274,110.686-95.545,165.492c-8.741,16.94-21.513,31.69-40.39,37.079
			c-91.76,26.182-91.824-130.02-165.425-171.229c-20.008-11.204-45.6-13.599-67.491-6.931
			c-46.785,14.252-69.101,68.297-90.623,107.549c-13.288,24.239-29.891,52.035-58.593,59.508
			c-73.864,19.233-92.858-84.941-117.38-130.931c-12.627-23.676-30.741-46.432-54.586-59.538
			c-14.854-8.167-31.861-11.601-48.738-10.833c-76.564,3.486-98.882,84.044-161.171,99.487
			c-92.269,22.878-98.104-121.208-164.494-160.281c-15.457-9.097-35.565-13.069-53.414-12.517
			c-92.834,2.874-87.467,113.642-164.128,133.26c-22.043,5.641-47.84,2.793-67.243-9.416
			c-44.595-28.056-46.984-77.324-57.557-123.251c-1.97-8.541-4.284-16.477-12.009-21.195c-19.014-0.333-32.008,11.426-48.659,18.58
			c-13.726,5.901-28.03,6.005-41.814,0.193c-17.205-7.25-27.834-22.5-34.149-39.533c-13.152-35.472-11.95-78.44,8.897-110.657
			c12.535-19.37,28.271-36.366,37.49-57.809c9.854-22.923,8.801-48.616,20.542-73.782c25.381-54.412,78.999-97.117,134.755-117.139
			c18.695,11.427,36.226,20.739,59.058,18.343c23.724-2.485,39.711-17.034,53.957-34.761
			c64.002,2.766,142.858,12.449,205.437,26.668c5.978,13.221,11.508,24.058,22.51,34.093c0.913,0.84,1.845,1.659,2.799,2.455
			c0.954,0.794,1.928,1.564,2.923,2.311c0.994,0.744,2.006,1.462,3.037,2.155c1.032,0.694,2.079,1.362,3.142,2.003
			c1.063,0.64,2.142,1.253,3.238,1.839c1.096,0.586,2.206,1.143,3.33,1.673c1.123,0.529,2.258,1.029,3.408,1.499
			c1.15,0.472,2.311,0.915,3.482,1.328c1.17,0.413,2.35,0.794,3.542,1.146c1.192,0.354,2.39,0.676,3.598,0.968
			c1.206,0.292,2.419,0.552,3.642,0.783c1.22,0.229,2.446,0.429,3.674,0.597c1.231,0.166,2.466,0.302,3.705,0.408
			c1.237,0.103,2.475,0.177,3.716,0.219c1.242,0.042,2.484,0.053,3.729,0.033c1.24-0.022,2.481-0.075,3.719-0.159
			c22.018-1.483,40.378-12.201,55.02-28.237c59.518,4.818,119.419,5.411,178.82,11.519c1.347,15.201,2.119,26.16,10.159,39.741
			c10.57,17.846,28.852,30.573,49.026,35.065c2.334,0.526,4.688,0.938,7.062,1.235c2.376,0.294,4.759,0.472,7.149,0.534
			c2.394,0.059,4.782,0.002,7.169-0.171c2.387-0.176,4.759-0.467,7.117-0.875c2.356-0.408,4.688-0.931,6.995-1.569
			c2.307-0.638,4.576-1.387,6.809-2.247c2.233-0.861,4.417-1.83,6.553-2.908c2.139-1.076,4.218-2.253,6.236-3.534
			c19.311-12.483,27.977-30.451,32.552-52.169c105.178-0.315,210.384,1.94,315.577,2.318c11.356,23.264,27.166,42.575,52.395,51.442
			c18.699,6.568,38.982,5.697,56.76-3.241c20.553-10.328,31.601-27.273,38.448-48.504c29.732-4.636,62.441-3.108,92.632-4.266
			c50.437-1.932,100.799-5.188,151.218-7.465c11.544,16.978,24.306,29.899,44.091,36.96c19.555,6.975,42.527,6.534,61.296-2.674
			c20.127-9.879,32.335-26.839,39.385-47.604c28.998-4.947,59.171-5.956,88.45-9.234c38.74-4.335,77.294-10.744,115.807-16.733
			c10.907,13.303,22.1,24.718,37.921,32.131c1.113,0.534,2.238,1.038,3.375,1.513c1.139,0.477,2.291,0.923,3.452,1.339
			c1.16,0.415,2.33,0.8,3.512,1.157c1.181,0.353,2.372,0.677,3.571,0.971c1.199,0.292,2.405,0.553,3.616,0.786
			c1.211,0.23,2.429,0.429,3.653,0.597c1.222,0.166,2.446,0.3,3.676,0.404c1.228,0.104,2.459,0.177,3.693,0.219
			c1.234,0.039,2.467,0.047,3.701,0.022c1.234-0.024,2.466-0.08,3.698-0.167c1.229-0.089,2.455-0.209,3.679-0.359
			c1.226-0.154,2.446-0.338,3.66-0.553c1.214-0.215,2.422-0.461,3.626-0.738c1.202-0.277,2.396-0.586,3.583-0.927
			c1.184-0.339,2.36-0.708,3.528-1.109c1.167-0.403,2.322-0.834,3.467-1.294c22.563-9.334,34.375-27.611,43.505-49.132
			C2879.082,2634.873,2899.464,2629.433,2920.105,2625.368z M3065.793,2889.642c0.023,1.199-0.016,2.394-0.118,3.586
			c-0.101,1.194-0.265,2.379-0.49,3.553c-0.226,1.177-0.511,2.339-0.857,3.486c-0.347,1.145-0.75,2.27-1.213,3.375
			c-5.259,12.639-15.038,18.369-27.321,22.978c-6.126-0.067-12.101-0.396-17.805-2.866c-9.831-4.254-17.697-12.142-21.16-22.352
			c-0.389-1.135-0.719-2.286-0.99-3.453c-0.272-1.167-0.486-2.344-0.642-3.53c-0.156-1.19-0.253-2.384-0.289-3.583
			c-0.034-1.197-0.012-2.393,0.071-3.59c0.083-1.194,0.226-2.382,0.426-3.564c0.203-1.182,0.464-2.351,0.783-3.509
			c0.316-1.155,0.691-2.291,1.124-3.408c0.43-1.118,0.916-2.212,1.458-3.282c5.859-11.749,15.167-16.162,26.969-20.471
			c3.942,0.371,7.832,0.846,11.63,2.025c10.862,3.375,20.316,10.232,25.215,20.72c0.503,1.085,0.952,2.194,1.342,3.327
			c0.388,1.132,0.717,2.282,0.987,3.449c0.272,1.167,0.481,2.344,0.626,3.531
			C3065.686,2887.252,3065.771,2888.445,3065.793,2889.642z M2688.738,2899.651c-3.994,11.511-12.616,17.671-23.227,22.626
			c-6.545,0.842-13.351,1.606-19.804-0.159c-9.631-2.637-18.342-8.849-23.26-17.631c-4.958-8.849-5.8-18.821-2.759-28.441
			c3.864-12.239,12.472-17.193,23.297-22.845c5.922-0.364,12.39-1.128,18.242,0.082c10.139,2.088,19.67,9.739,24.71,18.654
			C2690.704,2880.37,2691.935,2890.443,2688.738,2899.651z M2256.989,2967.971c-0.05,1.25-0.162,2.494-0.338,3.73
			c-0.175,1.239-0.413,2.465-0.712,3.679c-0.302,1.214-0.664,2.409-1.086,3.586c-0.423,1.177-0.906,2.329-1.447,3.457
			c-0.539,1.127-1.135,2.224-1.787,3.289c-7.214,11.986-18.065,17.449-31.115,20.998c-8.277-0.219-15.655-1.146-22.878-5.496
			c-1.181-0.702-2.32-1.461-3.421-2.277c-1.103-0.816-2.162-1.685-3.178-2.607c-1.016-0.92-1.983-1.889-2.899-2.908
			c-0.92-1.019-1.787-2.081-2.6-3.186c-0.811-1.105-1.566-2.247-2.265-3.427c-0.697-1.179-1.336-2.392-1.914-3.638
			c-0.576-1.244-1.09-2.513-1.543-3.809c-0.451-1.296-0.835-2.61-1.153-3.942c-0.319-1.298-0.572-2.609-0.76-3.931
			c-0.185-1.323-0.304-2.653-0.355-3.991c-0.051-1.335-0.031-2.669,0.054-4.001c0.085-1.335,0.237-2.662,0.46-3.979
			c0.221-1.318,0.509-2.621,0.866-3.909c0.353-1.291,0.771-2.558,1.257-3.802c0.482-1.246,1.027-2.465,1.635-3.656
			c0.608-1.189,1.275-2.345,2.003-3.467c7.209-11.089,18.076-16.492,30.703-18.925c6.22,0.534,12.406,1.061,18.088,3.861
			c10.947,5.389,19.9,15.369,23.119,27.225c0.329,1.206,0.596,2.427,0.801,3.66c0.205,1.233,0.346,2.473,0.423,3.72
			C2257.023,2965.474,2257.039,2966.722,2256.989,2967.971z M1817.54,2968.316c-4.632,11.919-14.137,17.649-25.458,22.192
			c-6.935,0.208-14.19,0.749-20.786-1.791c-8.927-3.442-16.79-10.329-20.584-19.203c-0.474-1.105-0.889-2.232-1.246-3.382
			c-0.357-1.15-0.652-2.314-0.885-3.494c-0.235-1.179-0.409-2.368-0.52-3.568c-0.11-1.197-0.159-2.397-0.145-3.601
			c0.013-1.204,0.089-2.403,0.226-3.597c0.138-1.194,0.339-2.378,0.601-3.553c0.261-1.174,0.585-2.333,0.967-3.475
			c0.38-1.14,0.822-2.257,1.32-3.353c5.282-11.841,14.479-17.063,26.042-21.636c4.525,0.2,9.175,0.364,13.578,1.502
			c10.611,2.751,20.111,10.083,25.174,19.845C1820.18,2949.606,1820.994,2959.445,1817.54,2968.316z M1474.764,2923.575
			c-3.62,13.317-12.498,20.412-24.155,26.735c-6.208,0.516-12.402,1.116-18.49-0.553c-9.48-2.596-18.029-9.149-22.739-17.797
			c-4.757-8.738-5.465-18.646-2.262-28.026c4.272-12.506,13.755-17.445,25.065-22.804c5.166-0.531,10.34-1.072,15.492-0.126
			c9.494,1.747,18.284,7.376,23.409,15.591C1476.166,2904.74,1477.263,2914.367,1474.764,2923.575z M1008.807,2946.769
			c-0.042,1.011-0.136,2.016-0.279,3.015c-0.141,1.001-0.333,1.991-0.578,2.971c-2.915,11.478-10.722,18.157-20.64,23.757
			c-5.907,0.752-12.757,1.449-18.65,0.241c-8.044-1.65-16.062-7.332-20.515-14.181c-4.632-7.132-5.641-15.68-3.527-23.842
			c3.133-12.113,11.781-18.247,22.059-24.251c4.69-0.516,9.757-0.771,14.447-0.044c9.076,1.405,18.058,7.361,22.983,15.079
			c0.547,0.851,1.049,1.726,1.505,2.626c0.458,0.9,0.869,1.822,1.231,2.767c0.364,0.942,0.679,1.9,0.943,2.874
			c0.264,0.974,0.478,1.959,0.645,2.956c0.163,0.999,0.277,2.001,0.34,3.008C1008.834,2944.751,1008.847,2945.76,1008.807,2946.769z
			 M2795.063,2543.516c-1.256-0.126-2.513-0.22-3.775-0.281c-1.259-0.062-2.52-0.092-3.783-0.089c-1.261,0-2.521,0.032-3.779,0.096
			c-1.261,0.064-2.52,0.161-3.776,0.29c-1.256,0.128-2.507,0.288-3.753,0.478c-1.246,0.19-2.487,0.412-3.723,0.664
			c-1.237,0.255-2.467,0.539-3.691,0.853c-1.221,0.314-2.434,0.659-3.638,1.035c-1.204,0.376-2.398,0.781-3.583,1.216
			c-1.184,0.438-2.356,0.904-3.516,1.399c-1.162,0.494-2.311,1.017-3.445,1.568c-1.135,0.551-2.254,1.133-3.36,1.743
			c-1.105,0.608-2.195,1.243-3.267,1.906c-1.074,0.662-2.13,1.352-3.167,2.069c-1.039,0.717-2.059,1.458-3.06,2.225
			c-1.001,0.769-1.983,1.561-2.944,2.377c-17.667,14.719-25.989,33.254-28.459,55.711c-64.978,7.246-130.717,15.524-195.439,24.828
			c-1.172-2.896-2.336-5.785-3.634-8.626c-9.242-20.186-26.56-37.661-47.625-45.189c-1.163-0.407-2.333-0.785-3.513-1.131
			c-1.182-0.349-2.369-0.667-3.564-0.954c-1.197-0.289-2.4-0.547-3.612-0.775c-1.208-0.227-2.423-0.424-3.642-0.59
			c-1.219-0.166-2.441-0.301-3.667-0.404c-1.227-0.104-2.454-0.177-3.683-0.219c-1.231-0.042-2.461-0.053-3.69-0.033
			c-1.231,0.02-2.462,0.071-3.69,0.152c-1.226,0.082-2.451,0.194-3.675,0.338c-1.221,0.143-2.439,0.317-3.653,0.522
			c-1.211,0.206-2.418,0.441-3.62,0.708c-1.202,0.267-2.396,0.563-3.583,0.89c-1.187,0.326-2.364,0.682-3.53,1.068
			c-1.17,0.386-2.328,0.8-3.475,1.243c-1.147,0.445-2.283,0.918-3.408,1.42c-1.123,0.5-2.233,1.028-3.331,1.587
			c-25.111,12.78-36.147,35.202-44.109,60.799c-34.531,4.265-69.844,4.944-104.59,6.26c-43.007,1.815-86.031,3.053-129.069,3.716
			c-1.284-3.906-2.695-7.767-4.232-11.582c-7.225-17.468-24.214-32.409-41.611-39.215c-1.204-0.472-2.419-0.913-3.645-1.324
			c-1.226-0.41-2.463-0.789-3.708-1.135c-1.246-0.346-2.501-0.659-3.765-0.938c-1.26-0.282-2.528-0.53-3.805-0.746
			c-1.277-0.215-2.555-0.398-3.839-0.549c-1.286-0.148-2.573-0.263-3.864-0.345c-1.289-0.084-2.582-0.134-3.875-0.149
			c-1.293-0.014-2.584,0.004-3.875,0.056c-1.293,0.052-2.584,0.136-3.872,0.252c-1.287,0.119-2.573,0.271-3.853,0.456
			c-1.278,0.186-2.551,0.403-3.819,0.653c-1.269,0.252-2.532,0.535-3.786,0.849c-1.255,0.316-2.499,0.665-3.736,1.046
			c-1.235,0.381-2.461,0.792-3.674,1.235c-1.215,0.445-2.417,0.921-3.609,1.428c-1.19,0.507-2.365,1.043-3.527,1.609
			c-21.781,10.622-35.668,29.435-43.775,51.698c-105.792-1.958-212.458,0.437-318.038-5.738
			c-7.439-11.185-15.041-21.291-26.197-29.156c-16.431-11.582-35.932-15.869-55.736-12.386
			c-21.514,3.783-37.368,15.231-49.62,32.951c-59.004-3.031-117.934-7.106-176.793-12.224c-0.56-15.12-2.318-27.603-10.043-40.958
			c-9.938-17.182-26.913-30.992-46.319-35.784c-19.121-4.717-40.483-1.005-57.235,9.224c-15.349,9.371-28.173,23.924-32.372,41.584
			c-40.327-5.118-81.073-11.048-121.06-18.376c-3.026-57.386-3.759-115.044-4.965-172.498c17.064,6.142,33.173,15.891,50.218,22.519
			c66.744,25.964,143.99,29.576,214.727,37.375c136.111,14.802,272.592,24.214,409.447,28.237
			c80.962,2.084,161.937,2.806,242.923,2.166c142.864,1.078,285.59-2.853,428.178-11.793
			c121.998-7.016,313.312-17.178,422.682-65.185c-0.182,47.417,1.458,94.747,1.495,142.127c-0.801-1.113-1.606-2.229-2.445-3.315
			C2834.241,2557.308,2816.996,2545.826,2795.063,2543.516z M2815.984,2640.032c-6.75,9.33-14.419,12.271-25.426,14.174
			c-6.157-0.597-12.746-0.942-18.472-3.453c-9.098-3.987-16.741-11.797-20.149-21.15c-0.4-1.101-0.744-2.218-1.03-3.353
			c-0.284-1.137-0.512-2.284-0.683-3.441c-0.17-1.16-0.282-2.324-0.334-3.494c-0.05-1.169-0.041-2.339,0.026-3.508
			c0.067-1.169,0.193-2.332,0.379-3.486c0.185-1.157,0.427-2.302,0.726-3.434c0.302-1.13,0.661-2.243,1.076-3.338
			c0.413-1.095,0.882-2.167,1.406-3.215c6.018-12.072,16.451-17.849,28.845-21.662c8.392,0.082,17.097,1.902,24.169,6.572
			c1.043,0.693,2.047,1.437,3.011,2.233c0.966,0.794,1.89,1.635,2.77,2.525c0.88,0.891,1.714,1.823,2.5,2.797
			c0.784,0.977,1.516,1.989,2.196,3.037c0.683,1.051,1.308,2.134,1.877,3.249c0.571,1.112,1.083,2.252,1.535,3.419
			c0.456,1.167,0.848,2.354,1.18,3.56c0.332,1.207,0.6,2.427,0.809,3.661C2824.057,2621.67,2821.91,2631.836,2815.984,2640.032z
			 M2479.26,2658.801c0.012,1.184-0.036,2.366-0.145,3.545c-0.109,1.179-0.277,2.351-0.504,3.516
			c-0.227,1.162-0.513,2.31-0.856,3.441c-4.11,13.596-13.912,20.661-25.96,26.928c-6.408,0.946-13.177,1.483-19.53-0.104
			c-10.773-2.696-20.408-9.401-26.026-19.059c-0.641-1.075-1.223-2.182-1.748-3.319c-0.521-1.138-0.983-2.299-1.387-3.486
			c-0.4-1.187-0.738-2.391-1.012-3.612c-0.274-1.222-0.484-2.454-0.63-3.698c-0.146-1.243-0.225-2.491-0.237-3.742
			c-0.015-1.253,0.036-2.503,0.156-3.749c0.118-1.246,0.302-2.482,0.549-3.709c0.247-1.229,0.559-2.44,0.934-3.634
			c4.236-13.344,14.404-20.69,26.397-26.694c6.346-0.511,13.102-0.786,19.303,0.872c10.703,2.863,20.638,9.824,26.116,19.555
			c0.586,1.029,1.119,2.084,1.598,3.167c0.478,1.083,0.9,2.188,1.269,3.315c0.367,1.125,0.675,2.266,0.923,3.423
			c0.253,1.16,0.444,2.328,0.575,3.505C2479.175,2656.44,2479.247,2657.619,2479.26,2658.801z M2088.03,2703.056
			c-5.864,11.1-14.626,15.19-26.208,18.476c-5.456,0.501-10.899,0.694-16.277-0.623c-10.239-2.511-19.629-9.635-24.633-18.91
			c-0.65-1.212-1.235-2.455-1.753-3.731c-0.52-1.273-0.971-2.571-1.354-3.894c-0.382-1.32-0.694-2.657-0.934-4.012
			c-0.239-1.355-0.407-2.719-0.503-4.091c-0.098-1.372-0.121-2.746-0.074-4.12c0.049-1.377,0.172-2.746,0.366-4.105
			c0.194-1.363,0.458-2.711,0.795-4.046c0.335-1.335,0.741-2.648,1.215-3.939c4.844-13.358,14.364-20.245,26.643-26.294
			c8.375-0.838,15.312-1.531,23.164,1.973c10.407,4.643,18.108,13.733,21.685,24.488
			C2093.705,2680.889,2093.319,2693.039,2088.03,2703.056z M1622.094,2707.844c-6.037,11.426-14.842,16.14-26.735,19.923
			c-5.851-0.482-11.852-0.816-17.288-3.227c-8.971-3.976-16.419-11.519-19.626-20.861c-3.145-9.175-2.115-19.122,2.428-27.644
			c6.423-12.045,16.589-17.504,29.183-21.302c6.019,0.364,12.067,0.553,17.581,3.249c1.034,0.514,2.039,1.079,3.015,1.695
			c0.974,0.616,1.916,1.279,2.827,1.992c0.907,0.712,1.776,1.468,2.608,2.269c0.831,0.801,1.617,1.642,2.361,2.522
			c0.744,0.882,1.443,1.799,2.095,2.751c0.652,0.954,1.251,1.938,1.8,2.952c0.551,1.014,1.048,2.053,1.494,3.119
			c0.444,1.066,0.831,2.151,1.164,3.256C1627.957,2688.143,1626.778,2698.98,1622.094,2707.844z M1315.692,2633.501
			c0.029,1.184-0.002,2.368-0.092,3.553c-0.092,1.182-0.243,2.356-0.449,3.523c-0.21,1.167-0.478,2.32-0.806,3.46
			c-0.324,1.14-0.704,2.261-1.146,3.364c-4.739,11.957-13.413,17.709-24.729,22.793c-6.946,1.042-14.347,1.498-21.16-0.538
			c-1.161-0.346-2.298-0.749-3.417-1.209c-1.117-0.46-2.209-0.974-3.274-1.543c-1.065-0.571-2.099-1.194-3.1-1.869
			c-1.003-0.675-1.97-1.4-2.901-2.174c-0.929-0.771-1.816-1.588-2.662-2.451c-0.847-0.86-1.651-1.763-2.406-2.707
			c-0.755-0.942-1.461-1.921-2.119-2.937c-0.657-1.014-1.262-2.058-1.813-3.134c-0.572-1.147-1.083-2.322-1.532-3.523
			c-0.449-1.199-0.837-2.419-1.161-3.661c-0.324-1.241-0.581-2.496-0.771-3.764c-0.194-1.269-0.319-2.543-0.378-3.824
			c-0.06-1.281-0.052-2.561,0.018-3.842c0.074-1.281,0.214-2.554,0.42-3.82c0.206-1.263,0.48-2.514,0.815-3.753
			c0.337-1.236,0.735-2.453,1.199-3.649c4.636-11.99,13.002-17.234,24.131-22.585c7.042-0.716,14.65-1.231,21.498,0.875
			c9.739,2.996,18.436,10.347,22.668,19.651c0.493,1.078,0.927,2.18,1.309,3.305c0.38,1.122,0.704,2.261,0.971,3.415
			c0.264,1.157,0.471,2.323,0.619,3.498C1315.572,2631.133,1315.661,2632.314,1315.692,2633.501z M2844.863,2383.836
			c-7.569,15.094-31.608,23.49-46.895,28.274c-34.39,10.758-70.545,15.854-106.059,21.454
			c-88.535,13.963-176.818,21.936-266.224,27.321c-89.659,5.689-179.396,9.591-269.214,11.704
			c-89.815,2.117-179.636,2.444-269.466,0.983c-89.826-1.461-179.589-4.71-269.287-9.746
			c-89.701-5.036-179.265-11.855-268.691-20.457c-50.021-5.315-101.771-8.719-150.931-19.785
			c-42.068-9.469-78.845-26.231-116.695-46.176l-4.936-116.776c84.397-8.934,97.586-66.665,149.578-112.826l2.218-1.955
			c3.249,0.568,6.876,0.26,9.172,2.855c19.803,22.423,15.957,97.562,59.779,135.275c1.119,0.957,2.264,1.886,3.43,2.789
			c1.166,0.9,2.354,1.771,3.564,2.615c1.21,0.843,2.439,1.655,3.69,2.437c1.248,0.781,2.515,1.531,3.801,2.251
			c1.288,0.72,2.593,1.407,3.913,2.062c1.32,0.655,2.655,1.277,4.006,1.866c1.351,0.591,2.716,1.147,4.093,1.669
			c1.38,0.521,2.771,1.009,4.172,1.461c1.403,0.455,2.816,0.874,4.239,1.257c1.422,0.383,2.854,0.731,4.295,1.046
			c1.441,0.312,2.888,0.588,4.342,0.831c1.454,0.242,2.914,0.448,4.377,0.619c1.463,0.168,2.93,0.302,4.402,0.4
			c1.47,0.096,2.943,0.157,4.417,0.182c1.474,0.024,2.948,0.014,4.42-0.033c1.474-0.047,2.944-0.131,4.413-0.252
			c57.38-4.51,84.129-62.961,116.632-102.097c7.569-9.116,17.75-21.473,30.259-22.645c20.589,11.2,40.671,67.885,52.961,89.762
			c15.369,27.366,39.503,54.339,70.986,62.43c18.356,4.721,37.156,1.739,53.912-6.823c57.148-29.209,78.165-109.095,111.779-126.571
			c24.904-12.947,64.868,76.801,76.326,91.906c14.775,19.478,34.163,37.131,57.639,45.197
			c104.923,36.044,130.518-116.341,177.041-137.388c5.143-2.329,9.782-2.414,14.722,0.43
			c30.315,17.442,57.083,111.321,116.869,129.367c15.019,4.535,32.313,3.787,47.17-0.987
			c73.003-23.468,77.275-120.71,122.962-146.018c20.111-3.104,69.246,74.958,84.671,91.854
			c11.448,12.539,24.873,23.772,40.49,30.722c17.682,7.869,36.485,8.938,54.43,1.261c37.057-15.854,59.394-57.694,74.276-92.785
			c8.066-18.342,18.81-50.262,35.863-61.132c5.374,0.211,8.077,1.594,12.361,4.917c24.021,18.639,44.803,52.425,70.819,74.457
			c20.008,16.945,40.257,28.757,65.582,35.602C2850.652,2293.591,2855.966,2361.696,2844.863,2383.836z M2693.326,1865.187
			c6.665-11.393,17.315-15.75,29.624-18.632c5.592,0.471,11.567,0.727,16.814,2.863c8.707,3.545,16.277,10.651,19.781,19.418
			c3.56,8.911,2.937,18.795-1.272,27.369c-6.159,12.543-16.484,17.868-29.29,21.855c-6.75,0.23-14.181-0.724-20.275-3.798
			c-1.097-0.544-2.166-1.141-3.204-1.791c-1.038-0.653-2.041-1.356-3.008-2.11c-0.967-0.754-1.892-1.555-2.778-2.403
			c-0.885-0.848-1.724-1.739-2.518-2.674c-0.793-0.934-1.537-1.906-2.232-2.915c-0.697-1.011-1.34-2.055-1.928-3.13
			c-0.589-1.073-1.122-2.174-1.599-3.304c-0.477-1.13-0.895-2.281-1.253-3.453
			C2687.396,1883.24,2688.441,1873.538,2693.326,1865.187z M2144.288,762.009c17.601-2.192,36.296-0.964,54.022-0.471
			c-1.148,12.784-6.359,37.576,0.725,48.801c3.181,5.037,7.417,7.896,13.228,8.916c5.329,0.931,11.667,0.404,15.94-3.201
			c10.217-8.619,9.357-34.634,11.156-47.536c22.262,7.024,44.514,15.183,65.026,26.416c3.506,1.899,6.962,3.885,10.369,5.96
			c3.407,2.077,6.76,4.236,10.058,6.479c3.298,2.245,6.537,4.571,9.716,6.979c3.18,2.406,6.296,4.892,9.349,7.458
			c3.056,2.564,6.044,5.204,8.964,7.921c2.923,2.717,5.773,5.505,8.552,8.363c2.78,2.86,5.485,5.789,8.119,8.785
			c2.63,2.999,5.184,6.061,7.662,9.186c2.477,3.125,4.874,6.312,7.191,9.561c2.317,3.246,4.55,6.549,6.697,9.909
			c2.151,3.36,4.215,6.772,6.19,10.236c1.978,3.466,3.865,6.978,5.663,10.536c1.8,3.56,3.509,7.164,5.125,10.81
			c1.617,3.644,3.141,7.328,4.572,11.051c1.432,3.724,2.769,7.48,4.009,11.27c1.241,3.79,2.386,7.61,3.434,11.46
			c16.97,60.105,11.664,120.329-18.78,174.96c-4.558-1.547-9.241-2.982-13.933-4.046c-19.203-4.354-41.665,0.546-57.894,11.467
			c-18.929,12.739-27.066,31.186-30.878,52.855c-18.083,0.643-36.159,1.417-54.231,2.322c-20.226,1.004-40.461,1.77-60.706,2.299
			c-4.404-4.599-8.938-9.066-13.603-13.403c-14.74-13.826-32.356-23.839-52.969-24.447c-48.067-1.409-62.738,42.293-81.616,42.827
			c1.228-10.054,7.533-19.797,11.122-29.276c2.238-5.793,4.227-11.671,5.965-17.634c1.74-5.961,3.225-11.985,4.457-18.072
			c1.231-6.087,2.204-12.215,2.916-18.384c0.715-6.169,1.168-12.357,1.358-18.566c3.144-90.638-35.804-152-94.944-215.643
			C2011.466,810.518,2070.814,771.24,2144.288,762.009z M2405.973,1199.411c-4.216,11.704-12.512,16.789-23.267,21.906
			c-5.711,1.094-12.108,1.929-17.883,0.812c-9.408-1.817-18.198-7.74-23.249-15.887c-5.748-9.272-6.983-20.587-4.024-31.019
			c3.998-14.108,12.947-21.436,25.345-28.211c5.073-0.289,10.806-0.716,15.772,0.501c9.979,2.448,19.507,11.207,24.332,20.045
			C2408.255,1177.185,2409.724,1189.005,2405.973,1199.411z M2144.752,1236.011c-6.544,11.089-15.408,15.558-27.398,18.929
			c-7.021-0.89-14.141-1.98-20.386-5.519c-9.661-5.481-17.264-14.507-19.792-25.444c-2.166-9.379-0.494-18.925,5.04-26.821
			c8.306-11.86,19.219-14.13,32.702-16.262c6.282,0.011,12.48,1.083,18.094,3.983c7.76,4.005,13.478,10.551,16.069,18.903
			C2152.459,1214.676,2150.487,1226.298,2144.752,1236.011z M1800.225,611.326c13.529-18.948,23.999-38.481,32.765-60.013
			c9.695,10.807,22.4,40.449,31.731,54.798c27.51,42.296,84.607,100.584,94.276,148.569c6.454,32.024-17.581,59.501-34.69,84.014
			c-22.456-11.062-44.135-21.254-68.237-28.252c-46.25-10.484-85.605-8.474-132.086-1.621c-5.722-7.955-10.974-16.077-14.771-25.144
			C1688.196,733.491,1772.748,649.803,1800.225,611.326z M1595.192,933.65c45.716-55.287,107.935-85.342,179.01-91.809
			c51.697-6.086,105.298,13.276,147.182,42.589c3.191,2.26,6.322,4.596,9.398,7.01c3.075,2.415,6.09,4.904,9.042,7.465
			c2.953,2.561,5.844,5.193,8.667,7.895c2.823,2.703,5.581,5.473,8.27,8.311c2.687,2.838,5.304,5.741,7.852,8.708
			c2.546,2.967,5.018,5.994,7.413,9.082c2.398,3.088,4.717,6.233,6.961,9.434c2.245,3.202,4.409,6.457,6.494,9.765
			c2.081,3.308,4.083,6.664,6.005,10.069c1.918,3.407,3.752,6.859,5.503,10.354c1.749,3.496,3.413,7.033,4.987,10.61
			c1.577,3.578,3.066,7.191,4.465,10.841c1.4,3.649,2.709,7.332,3.928,11.048c1.219,3.713,2.347,7.455,3.383,11.226
			c1.032,3.771,1.976,7.563,2.825,11.378c0.849,3.817,1.604,7.652,2.267,11.504c8.692,52.295-0.304,101.793-31.13,145.128
			c-40.814,3.219-83.114-1.754-124.23-0.827c-2.827-4.172-5.652-8.444-8.808-12.375c-16.455-20.486-35.083-28.497-60.469-31.712
			c-5.878,0.704-11.788,1.432-17.523,2.963c-22.84,6.101-37.133,18.754-48.822,38.706c-55.355-4.127-110.491-12.209-165.778-17.479
			c-4.614-24.083-9.373-40.579-26.71-58.532C1541.003,1040.027,1552.503,985.281,1595.192,933.65z M1829.231,1222.501
			c-4.107,13.677-14.257,21.128-26.183,27.859c-5.112,0.567-10.908,1.049-15.97,0.074c-10.095-1.951-19.629-8.652-24.662-17.604
			c-0.596-1.058-1.134-2.146-1.613-3.264c-0.48-1.115-0.9-2.252-1.26-3.412c-0.358-1.16-0.655-2.335-0.891-3.526
			c-0.235-1.192-0.407-2.394-0.516-3.605c-0.109-1.209-0.152-2.421-0.129-3.635c0.018-1.216,0.103-2.427,0.252-3.63
			c0.148-1.207,0.36-2.401,0.637-3.582c0.275-1.184,0.61-2.35,1.009-3.498c4.346-12.765,14.297-20.134,26.016-25.7
			c5.203-0.594,10.496-1.306,15.658-0.078c10.38,2.462,20.218,8.715,25.325,18.242
			C1831.143,1205.048,1831.797,1213.96,1829.231,1222.501z M1449.197,1157.86c0.129-1.179,0.317-2.349,0.563-3.508
			c0.25-1.159,0.558-2.303,0.924-3.431c4.19-13.169,13.766-19.904,25.478-26.034c7.336-0.605,14.912-1.321,21.954,1.29
			c9.145,3.39,17.04,10.725,21.002,19.644c0.518,1.148,0.976,2.318,1.373,3.512c0.396,1.194,0.732,2.406,1,3.634
			c0.273,1.229,0.48,2.469,0.623,3.72c0.141,1.251,0.219,2.505,0.235,3.764c0.011,1.258-0.042,2.513-0.159,3.765
			c-0.119,1.253-0.301,2.497-0.547,3.73c-0.246,1.237-0.558,2.455-0.931,3.657s-0.808,2.381-1.3,3.538
			c-4.804,11.378-13.185,16.266-24.173,20.772c-6.416,0.527-13.014,1.183-19.318-0.464c-9.313-2.433-17.764-8.633-22.538-17.026
			c-0.578-1.036-1.103-2.098-1.572-3.186c-0.471-1.088-0.882-2.198-1.235-3.33c-0.357-1.133-0.654-2.28-0.891-3.442
			c-0.235-1.162-0.411-2.333-0.527-3.512c-0.116-1.18-0.172-2.362-0.167-3.549C1449,1160.221,1449.069,1159.04,1449.197,1157.86z
			 M1288.904,1446.529c-17.534-40.12-11.883-94.332,3.817-134.095c22.065-55.888,68.616-97.732,122.968-121.048l1.737,0.486
			c7.687,9.65,15.186,19.674,24.854,27.447c15.573,12.516,34.643,17.968,54.524,15.268c21.572-2.933,38.48-15.483,51.422-32.361
			c55.989,1.327,115.513,11.014,171.263,18.079c1.829,9.579,3.794,18.246,8.596,26.905c10.195,18.394,27.651,32.88,48.257,37.898
			c20.461,4.981,43.635,0.916,61.213-10.68c19.552-12.906,26.212-29.976,30.989-51.739c35.114-0.756,70.389,0.504,105.51,1.094
			c21.332,0.359,43.402-1.221,64.458,2.57c3.049,10.829,6.197,20.854,12.505,30.359c0.688,1.056,1.4,2.094,2.137,3.116
			c0.739,1.019,1.503,2.018,2.291,3c0.79,0.981,1.603,1.943,2.438,2.885c0.838,0.942,1.697,1.861,2.577,2.759
			c0.884,0.9,1.789,1.777,2.716,2.629c0.927,0.853,1.872,1.683,2.839,2.489s1.956,1.587,2.964,2.344
			c1.005,0.756,2.03,1.487,3.073,2.192c1.045,0.705,2.104,1.383,3.18,2.036c1.077,0.653,2.169,1.278,3.278,1.877
			c1.11,0.596,2.233,1.165,3.368,1.709c1.137,0.542,2.285,1.053,3.448,1.536c1.164,0.484,2.34,0.939,3.524,1.365
			c1.184,0.427,2.379,0.823,3.585,1.187c1.204,0.366,2.417,0.702,3.638,1.009c1.222,0.304,2.45,0.579,3.687,0.823
			c1.213,0.24,2.432,0.449,3.656,0.627c1.224,0.178,2.452,0.324,3.683,0.438c1.231,0.116,2.465,0.2,3.701,0.252
			c1.237,0.052,2.472,0.072,3.708,0.06c1.237-0.013,2.472-0.056,3.705-0.13c1.237-0.077,2.468-0.184,3.698-0.323
			c1.228-0.136,2.453-0.305,3.674-0.508c1.219-0.2,2.434-0.431,3.642-0.694c1.209-0.264,2.41-0.559,3.602-0.883
			c1.193-0.324,2.377-0.679,3.553-1.064c1.177-0.386,2.343-0.801,3.497-1.246c1.152-0.445,2.294-0.919,3.423-1.424
			c1.13-0.502,2.247-1.033,3.35-1.595c1.103-0.561,2.191-1.15,3.263-1.765c1.07-0.616,2.126-1.258,3.167-1.928
			c1.039-0.672,2.059-1.37,3.064-2.092c20.182-14.301,27.903-32.832,32.365-56.174c37.768-1.428,75.736-2.21,113.319-6.427
			c0.278,0.437,0.549,0.879,0.837,1.313c14.305,21.692,31.356,37.932,57.906,42.756c19.259,3.5,40.216-0.278,56.281-11.704
			c17.527-12.469,25.204-29.962,28.745-50.467c37.669,0.052,78.425,9.761,108.869,32.721c44.711,33.719,70.112,89.388,77.818,143.76
			c6.112,43.093,5.192,95.93-22.786,131.936c-13.325,17.152-31.612,29.094-53.511,31.159
			c-82.887,7.81-109.718-79.998-161.735-123.269c-8.371-5.582-16.425-10.113-26.153-12.902
			c-78.396-22.481-81.5,98.593-129.259,123.774c-65.693,34.63-102.053-90.204-158.086-105.899
			c-72.377-20.275-79.62,95.941-129.911,121.653c-78.746,40.257-97.414-106.474-160.393-123.963
			c-74.039-20.561-88.729,82.88-138.445,110.16c-10.284,5.641-22.59,7.573-33.908,4.016c-29.109-9.145-44.202-51.134-56.726-76.408
			c-10.927-22.044-23.592-47.039-48.905-54.865c-53.448-16.526-90.212,55.243-131.354,76.037
			c-17.123,8.652-39.067,12.843-57.628,6.513C1306.913,1475.452,1295.762,1462.22,1288.904,1446.529z M2594.14,1854.458
			c-56.467,6.984-113.231,22.185-170.013,25.334c-1.991-4.658-4.13-9.153-6.627-13.566c-9.135-16.147-23.338-28.126-41.44-32.869
			c-2.445-0.618-4.914-1.117-7.406-1.498c-2.492-0.38-4.998-0.64-7.517-0.779c-2.517-0.141-5.035-0.159-7.555-0.055
			c-2.522,0.103-5.031,0.327-7.528,0.671c-2.497,0.346-4.973,0.811-7.429,1.394c-2.453,0.584-4.872,1.283-7.258,2.099
			c-2.386,0.816-4.727,1.745-7.023,2.789c-2.297,1.04-4.539,2.19-6.724,3.449c-21.811,12.717-31.193,30.644-37.354,54.071
			c-31.767,1.346-63.502,4.624-95.266,6.386c-46.216,2.284-92.461,3.513-138.733,3.686c-8.375-15.78-19.727-29.961-34.994-39.552
			c-1.032-0.651-2.077-1.273-3.138-1.869s-2.137-1.164-3.227-1.706s-2.193-1.056-3.312-1.543c-1.114-0.484-2.242-0.941-3.381-1.369
			c-1.141-0.43-2.291-0.829-3.45-1.198c-1.163-0.371-2.331-0.712-3.508-1.024c-1.177-0.309-2.361-0.589-3.553-0.842
			c-1.193-0.25-2.389-0.47-3.591-0.66c-1.201-0.19-2.408-0.349-3.62-0.478s-2.425-0.226-3.638-0.293
			c-1.217-0.069-2.434-0.106-3.652-0.111c-1.217-0.005-2.432,0.021-3.649,0.078c-1.217,0.054-2.43,0.141-3.642,0.259
			c-1.212,0.119-2.421,0.267-3.624,0.445c-1.204,0.18-2.405,0.39-3.598,0.63c-1.193,0.24-2.381,0.509-3.56,0.808
			c-27.372,6.683-42.259,25.467-55.692,48.508c-60.735-0.07-121.729-3.219-182.411-5.859c-2.061-9.034-4.172-18.15-7.906-26.668
			c-7.91-18.024-22.786-33.055-41.432-39.767c-19.798-7.131-43.281-4.624-61.778,5.089c-22.043,11.57-32.22,30.359-39.605,53.017
			c-34.634-2.355-69.179-8.774-103.261-15.134c-42.815-8.444-84.003-17.738-126.014-29.721
			c-0.114-55.718-3.051-111.513-1.228-167.216c60.302,22.059,119.502,36.567,183.118,45.697
			c77.877,11.178,156.863,15.331,235.406,18.65c148.477,6.279,293.342,4.929,441.7-2.711c92.552-4.765,187.684-9.012,278.793-26.765
			c20.523-3.825,40.764-8.794,60.724-14.909c19.96-6.114,39.511-13.334,58.655-21.661
			C2598.85,1686.985,2593.98,1830.942,2594.14,1854.458z M2391.469,1904.665c0.052,1.207,0.043,2.413-0.03,3.62
			c-0.069,1.206-0.199,2.406-0.389,3.601c-0.188,1.194-0.436,2.376-0.745,3.545c-0.309,1.167-0.676,2.316-1.102,3.449
			c-4.558,12.034-12.861,17.419-24.146,22.481c-6.55,0.411-13.355,1.087-19.749-0.768c-9.569-2.774-18.131-9.987-22.83-18.717
			c-0.583-1.061-1.11-2.15-1.58-3.267c-0.467-1.118-0.876-2.256-1.228-3.416c-0.348-1.159-0.635-2.334-0.86-3.524
			c-0.225-1.192-0.387-2.39-0.489-3.597c-0.1-1.206-0.135-2.416-0.108-3.627c0.027-1.211,0.119-2.417,0.274-3.62
			c0.153-1.201,0.369-2.391,0.649-3.568c0.279-1.179,0.62-2.34,1.023-3.482c4.172-11.923,13.003-18.087,23.913-23.349
			c6.635-0.564,14.76-1.41,21.195,0.427c9.723,2.777,18.465,10.784,22.73,19.84c0.52,1.091,0.983,2.206,1.391,3.345
			c0.408,1.137,0.758,2.292,1.049,3.464c0.29,1.175,0.521,2.36,0.694,3.556C2391.306,1902.256,2391.418,1903.458,2391.469,1904.665z
			 M2009.371,1927.098c0.042,1.201,0.022,2.404-0.063,3.608c-0.082,1.202-0.226,2.396-0.433,3.583
			c-0.208,1.184-0.476,2.356-0.806,3.516c-0.328,1.159-0.717,2.298-1.164,3.415c-0.446,1.12-0.947,2.213-1.509,3.279
			c-6.146,11.968-16.779,18.102-29.143,22.163c-5.981,0.163-11.855,0.022-17.449-2.399c-10.334-4.469-18.604-12.921-22.146-23.665
			c-0.395-1.179-0.73-2.377-1.001-3.594c-0.275-1.214-0.485-2.439-0.63-3.675c-0.149-1.236-0.234-2.476-0.252-3.719
			c-0.024-1.244,0.018-2.486,0.125-3.728c0.107-1.241,0.277-2.472,0.512-3.694c0.232-1.224,0.525-2.432,0.882-3.623
			c0.357-1.194,0.771-2.366,1.246-3.516c0.478-1.15,1.012-2.273,1.603-3.368c6.171-11.422,16.801-17.282,28.876-20.724
			c5.74-0.022,12.194,0.753,17.531,2.974c10.012,4.165,18.183,12.32,21.788,22.57c0.407,1.133,0.755,2.284,1.045,3.453
			c0.288,1.169,0.514,2.351,0.679,3.545C2009.224,1924.695,2009.329,1925.894,2009.371,1927.098z M1674.122,1917.055
			c-5.025,12.182-13.985,17.853-25.533,23.097c-6.432,0.619-13.163,0.471-19.285-1.739c-10.273-3.712-18.592-11.326-22.782-21.447
			c-0.46-1.093-0.862-2.206-1.206-3.341c-0.342-1.135-0.628-2.283-0.853-3.445c-0.226-1.165-0.393-2.338-0.496-3.52
			c-0.105-1.179-0.147-2.362-0.127-3.549c0.018-1.184,0.098-2.365,0.237-3.542c0.141-1.177,0.342-2.344,0.601-3.501
			c0.263-1.155,0.583-2.295,0.962-3.419c0.38-1.123,0.817-2.223,1.307-3.301c5.089-11.43,14.186-16.151,25.209-20.775
			c7.142-0.29,14.689-0.865,21.495,1.713c8.949,3.386,16.64,10.124,20.461,18.969
			C1677.954,1898.148,1677.798,1908.147,1674.122,1917.055z M2596.172,1630.263c-21.365,15.572-46.336,24.513-71.494,32.049
			c-101.066,30.28-222.811,32.732-327.964,38.202c-200.005,10.407-692.054,24.414-861.293-66.383
			c-0.956-36.532-1.521-73.069-1.691-109.611c56.453-2.885,82.005-17.542,121.25-57.216c10.666-10.785,21.29-22.326,34.404-30.147
			c0.616-0.371,1.246-0.716,1.869-1.072c2.841-0.029,6.309-0.26,9.067,0.405c18.143,4.357,38.84,60.042,48.364,76.308
			c14.827,25.326,34.59,50.296,64.697,57.35c43.246,10.135,81.918-24.318,104.97-57.142c12.654-18.016,25.553-47.526,45.09-58.34
			c41.595-23.027,65.739,109.151,137.017,128.328c16.31,4.391,35.032,3.902,51.116-0.897
			c69.847-20.842,77.127-107.527,109.358-123.444c4.469-2.211,8.527-2.744,13.174-0.727c19.608,8.504,51.118,58.911,68.962,76.737
			c14.885,14.868,32.961,27.892,53.669,32.988c16.852,4.142,34.431,2.541,50.566-3.709c67.048-25.982,65.234-106.748,97.677-125.305
			c5.588-3.197,12.027-3.071,17.6,0.059c21.688,12.182,37.661,42.375,53.219,61.655c10.024,12.427,20.969,24.454,32.836,35.154
			c20.16,18.172,42.263,29.902,68.075,37.961c29.568,7.236,50.989,1.131,78.515-9.249
			C2597.27,1585.79,2596.109,1608.534,2596.172,1630.263z M1205.358,1845.431c4.543-12.019,12.779-18.001,24.138-23.019
			c6.189-0.453,12.268-0.927,18.302,0.867c8.522,2.537,15.939,8.764,20.118,16.585c0.569,1.075,1.083,2.178,1.539,3.308
			c0.456,1.13,0.853,2.28,1.191,3.449c0.339,1.169,0.616,2.354,0.829,3.553c0.219,1.196,0.373,2.403,0.464,3.619
			c0.092,1.214,0.121,2.429,0.091,3.646c-0.033,1.217-0.129,2.429-0.286,3.638c-0.156,1.206-0.375,2.403-0.655,3.59
			c-0.281,1.184-0.619,2.351-1.021,3.501c-4.283,12.587-13.369,19.444-25.047,24.751c-6.869,0.749-13.299,1.357-19.916-1.109
			c-1.038-0.378-2.053-0.807-3.048-1.287c-0.996-0.48-1.966-1.008-2.908-1.584c-0.942-0.576-1.853-1.198-2.733-1.866
			c-0.884-0.665-1.728-1.373-2.537-2.125c-0.811-0.751-1.583-1.541-2.314-2.366c-0.732-0.828-1.42-1.691-2.066-2.589
			c-0.645-0.895-1.244-1.821-1.798-2.777c-0.554-0.954-1.059-1.934-1.517-2.941
			C1202.06,1865.324,1201.883,1854.629,1205.358,1845.431z M1039.718,1991.498c29.471-50.478,73.085-84.356,129.521-99.049
			c10.436,13.502,21.862,24.232,37.772,30.97c1.143,0.479,2.296,0.931,3.464,1.354c1.164,0.422,2.34,0.816,3.528,1.179
			c1.186,0.363,2.379,0.697,3.582,1.001c1.204,0.302,2.414,0.573,3.631,0.816c1.213,0.243,2.436,0.454,3.663,0.634
			c1.228,0.181,2.457,0.33,3.691,0.449c1.237,0.119,2.474,0.206,3.712,0.263c1.239,0.054,2.477,0.079,3.716,0.074
			c1.242-0.008,2.481-0.046,3.721-0.115c1.239-0.07,2.474-0.169,3.709-0.301c1.229-0.131,2.459-0.294,3.685-0.49
			c1.224-0.193,2.443-0.417,3.656-0.671c1.215-0.254,2.421-0.541,3.62-0.856c1.201-0.317,2.39-0.663,3.573-1.039
			c1.181-0.376,2.352-0.781,3.515-1.216c1.163-0.435,2.313-0.899,3.45-1.391c19.439-8.315,32.751-24.188,40.193-43.646
			c28.933,6.453,57.286,17.26,86.224,24.376c58.559,14.408,117.97,23.29,177.842,30.043c6.802,11.782,16.459,22.671,27.68,30.381
			c1.07,0.744,2.16,1.46,3.267,2.147c1.11,0.688,2.236,1.346,3.379,1.977c1.141,0.631,2.296,1.231,3.471,1.802
			c1.172,0.569,2.359,1.108,3.56,1.617c1.201,0.509,2.414,0.988,3.638,1.435c1.226,0.448,2.463,0.863,3.708,1.246
			c1.246,0.384,2.503,0.733,3.768,1.049c1.262,0.319,2.535,0.606,3.815,0.861c1.278,0.252,2.564,0.471,3.853,0.656
			c1.291,0.188,2.586,0.342,3.886,0.464c1.298,0.119,2.598,0.205,3.902,0.259c1.302,0.052,2.606,0.072,3.91,0.059
			c1.304-0.015,2.609-0.063,3.911-0.145c1.3-0.082,2.599-0.195,3.895-0.341c1.295-0.148,2.586-0.33,3.875-0.545
			c1.286-0.215,2.564-0.462,3.837-0.742c21.462-4.691,37.117-17.415,48.413-35.869c64.217,7.502,130.215,7.743,194.863,8.162
			c8.451,21.135,22.118,39.278,43.283,48.979c1.088,0.504,2.189,0.979,3.301,1.424c1.115,0.447,2.24,0.864,3.375,1.249
			c1.134,0.389,2.278,0.747,3.43,1.076c1.155,0.326,2.316,0.624,3.486,0.894c1.17,0.267,2.345,0.503,3.524,0.708
			c1.182,0.205,2.369,0.381,3.56,0.526c1.19,0.143,2.381,0.256,3.578,0.338c1.197,0.082,2.396,0.132,3.594,0.152
			c1.199,0.02,2.397,0.007,3.596-0.037c1.199-0.042,2.396-0.117,3.591-0.223c1.193-0.104,2.385-0.24,3.571-0.408
			c1.19-0.168,2.372-0.367,3.549-0.597c1.177-0.227,2.347-0.487,3.508-0.779c1.164-0.29,2.321-0.609,3.468-0.961
			c1.148-0.351,2.285-0.732,3.412-1.142c1.126-0.411,2.24-0.85,3.346-1.317c23.229-9.753,37.553-27.774,46.913-50.418
			c80.499-3.523,160.208-4.632,240.605-11.478c9.979,18.824,23.557,31.608,44.273,38.054c20.208,6.286,41.9,5.155,60.509-5.31
			c19.36-10.889,29.094-26.691,34.946-47.389c41.005-5.863,82.464-11.011,123.073-19.185c34.041-6.853,67.545-16.307,101.722-22.477
			c1.45,9.505,2.778,19.574,6.361,28.549c0.457,1.152,0.942,2.293,1.457,3.423c0.512,1.127,1.052,2.243,1.621,3.345
			c0.569,1.102,1.164,2.19,1.788,3.263c0.623,1.073,1.272,2.13,1.947,3.171c0.673,1.041,1.372,2.064,2.1,3.071
			c0.724,1.006,1.473,1.994,2.247,2.963c0.773,0.969,1.571,1.919,2.392,2.848c0.818,0.93,1.66,1.839,2.525,2.726
			c0.865,0.887,1.753,1.754,2.663,2.599c0.907,0.843,1.835,1.664,2.785,2.463c0.949,0.799,1.918,1.574,2.904,2.325
			c0.987,0.751,1.992,1.477,3.015,2.177c1.021,0.703,2.06,1.379,3.115,2.029c1.058,0.65,2.13,1.273,3.215,1.869
			c1.087,0.599,2.189,1.168,3.304,1.71c1.115,0.544,2.244,1.059,3.383,1.546c18.046,7.565,39.534,7.209,57.565-0.249
			c21.495-8.889,33.66-25.615,42.015-46.498c43.445,18.016,82.219,50.989,105.884,91.702c1.817,3.061,3.556,6.165,5.218,9.312
			c1.661,3.15,3.241,6.34,4.739,9.568c1.499,3.229,2.916,6.494,4.25,9.794c1.335,3.298,2.585,6.63,3.75,9.994
			c1.164,3.363,2.244,6.754,3.238,10.173c0.993,3.417,1.9,6.857,2.722,10.321c0.82,3.464,1.553,6.947,2.196,10.45
			c0.643,3.501,1.198,7.016,1.665,10.543c0.465,3.528,0.84,7.068,1.127,10.618c0.287,3.548,0.484,7.101,0.59,10.658
			c0.107,3.557,0.123,7.116,0.052,10.673c-0.074,3.561-0.237,7.116-0.49,10.666c-0.254,3.551-0.598,7.092-1.031,10.625
			c-0.43,3.535-0.951,7.056-1.561,10.562c-0.611,3.506-1.311,6.995-2.099,10.469c-0.787,3.471-1.66,6.92-2.622,10.347
			c-6.075,22.422-18.985,54.405-40.573,65.757c-57.754,30.362-121.497-98.251-167.802-111.128
			c-73.983-20.571-83.151,123.236-136.569,151.303c-44.362,23.308-94.094-77.046-122.205-101.875
			c-12.501-11.044-25.237-17.03-41.095-21.699c-80.109,4.109-70.693,124.727-138.067,146.385
			c-63.695,20.475-89.518-101.923-142.135-126.659c-79.519-37.375-101.396,117.61-164.462,137.689
			c-63.691,20.279-94.891-112.73-146.281-136.876c-73.141-34.364-103.84,111.762-161.631,130.931
			c-69.795,23.149-84.247-123.277-137.774-149.126c-63.216-30.533-105.736,103.551-163.185,122.564
			c-9.331,3.089-18.492,3.112-27.251-1.624c-35.369-19.114-41.771-75.974-53.047-110.549c-5.449-16.696-14.353-37.783-31.316-45.453
			c-54.383-24.599-101.222,87.856-155.828,107.82c-13.275,4.851-27.054,3.969-39.54-2.696
			c-23.483-12.531-37.209-36.18-44.014-61.077C997.261,2098.553,1011.44,2039.935,1039.718,1991.498z"/>
	</g>
</g>
</svg>
