<?xml version="1.0" encoding="utf-8"?>
<!-- Generator: Adobe Illustrator 27.5.0, SVG Export Plug-In . SVG Version: 6.00 Build 0)  -->
<svg xmlns="http://www.w3.org/2000/svg" xmlns:xlink="http://www.w3.org/1999/xlink" viewBox="0 0 4200 4200" width="595" height="842" preserveAspectRatio="xMidYMid meet" data-scaled="true">
<path style="fill:#FFFFFF;" d="M0,0h4199.998v4199.998H0V0z"/>
<path d="M3691.563,1136.688c-2.241-8.803-9.764-14.914-17.35-19.181c-60.479-34.018-198.172-10.08-264.739,9.933
	c-18.127,5.352-35.903,11.687-53.327,19.005c14.475-26.121,28.935-52.136,41.089-79.436
	c23.916-53.721,77.928-202.048,61.897-258.683c-3.505-12.382-10.631-24.034-22.2-30.289c-15.516-8.385-34.255-6.559-50.402-1.173
	c-62.329,20.789-147.364,90.558-193.473,137c0.742-71.404-23.01-247.955-74.026-299.023c-10.125-10.135-22.289-15.742-36.666-15.425
	c-2.269,0.062-4.534,0.178-6.796,0.348c-35.321,10.751-57.342,53.777-73.879,84.685c-34.626,64.719-63.974,143.55-65.178,217.477
	c-35.562-30.456-111.972-106.232-159.963-101.847c-9.779,0.893-18.541,5.893-24.517,13.659c-0.82,1.071-1.582,2.181-2.286,3.329
	c-0.704,1.148-1.348,2.331-1.93,3.547c-0.583,1.214-1.101,2.456-1.556,3.726c-0.455,1.268-0.843,2.557-1.165,3.867
	c-0.32,1.308-0.573,2.63-0.759,3.966c-0.186,1.334-0.302,2.674-0.349,4.021c-0.045,1.349-0.021,2.695,0.07,4.04
	c0.092,1.344,0.253,2.68,0.483,4.008c3.736,22.034,24.697,35.395,37.517,52.034c39.242,50.936,40.488,139.799,30.219,200.976
	c-49.967-49.416-128.807-125.263-202.785-125.522c-13.409-0.045-27.802,3.438-37.312,13.493
	c-7.801,8.249-11.514,21.336-10.551,32.546c0.74,8.608,5.253,17.677,9.527,25.113c10.884,18.941,26.035,35.497,38.26,53.619
	c22.155,32.837,40.545,67.957,56.954,103.95c51.576,113.127,80.799,233.15,102.429,355.091
	c-9.143-19.757-17.385-39.844-27.209-59.291c-43.074-85.275-100.33-162.335-176.411-220.932
	c-19.796-15.25-41.957-32.597-65.665-41.032c-12.712-4.523-28.026-6.79-40.507-0.275c-8.723,4.552-14.677,13.384-17.081,22.802
	c-4.811,18.832,7.113,38.109,16.848,53.318c9.706,15.167,19.651,29.556,26.047,46.554c15.932,42.348,10.887,124.216,15.132,173.062
	c10.784,124.015,47.578,297.935,139.323,387.704c21.169,20.715,45.587,34.396,71.67,47.841
	c-19.213,15.82-41.022,33.145-62.262,46.083c-7.071-16.607-12.263-33.887-18.736-50.722c-9.364-24.341-20.606-48.398-32.565-71.571
	c-2.554-4.928-5.164-9.826-7.83-14.697c-2.666-4.868-5.384-9.706-8.156-14.514c-2.774-4.808-5.602-9.584-8.483-14.328
	c-2.879-4.744-5.812-9.456-8.8-14.136c-2.986-4.678-6.023-9.322-9.114-13.931c-3.092-4.612-6.235-9.187-9.427-13.727
	c-3.195-4.539-6.44-9.042-9.735-13.509c-3.293-4.467-6.637-8.896-10.032-13.288c-3.393-4.392-6.836-8.745-10.33-13.061
	c-3.491-4.315-7.031-8.59-10.618-12.824c-3.587-4.234-7.223-8.428-10.906-12.583c-3.681-4.153-7.409-8.264-11.185-12.334
	c-3.773-4.07-7.592-8.095-11.457-12.078c-3.867-3.984-7.777-7.925-11.729-11.822c-3.955-3.895-7.952-7.746-11.991-11.553
	c-4.04-3.805-8.121-7.565-12.244-11.281c-4.125-3.715-8.291-7.383-12.497-11.002c-4.206-3.622-8.453-7.195-12.74-10.72
	c-4.287-3.526-8.613-7.003-12.977-10.433c-4.366-3.427-8.77-6.806-13.211-10.135c-4.441-3.331-8.919-6.611-13.432-9.84
	c-4.514-3.229-9.063-6.406-13.649-9.533c-4.586-3.126-9.208-6.202-13.864-9.226c-4.654-3.022-9.342-5.991-14.063-8.908
	c-4.723-2.919-9.478-5.785-14.264-8.595c-4.785-2.811-9.601-5.568-14.45-8.272c-4.849-2.702-9.726-5.349-14.632-7.942
	c-4.908-2.593-9.844-5.132-14.808-7.615c-4.964-2.482-9.956-4.907-14.975-7.276c-5.019-2.371-10.064-4.686-15.135-6.943
	c-5.071-2.256-10.167-4.455-15.289-6.597c-5.12-2.143-10.263-4.228-15.429-6.255c-7.949-3.208-15.958-6.262-24.024-9.165
	c26.06-90.105,31.073-166.503,6.191-257.357c-8.249-30.116-20.676-62.099-21.633-93.438c-0.083-3.579-0.017-7.154,0.198-10.727
	c0.218-3.572,0.584-7.129,1.098-10.669c0.514-3.543,1.176-7.057,1.985-10.544c0.809-3.487,1.762-6.934,2.859-10.34
	c4.152-12.968,15.858-26.947,13.941-40.616c-2.471-3.419-3.355-5.103-7.945-5.698c-12.334-1.601-31.784,11.783-43.225,17.052
	c-81.702,37.633-158.007,78.645-221.758,143.407c-23.615,23.992-43.625,50.027-64.768,76.097
	c-23.973-159.41-82.141-311.408-182.906-438.403c-34.633-43.644-74.625-84.494-114.719-123.124
	c-13.635-12.905-27.033-26.051-40.197-39.438c-10.477-10.704-20.618-22.846-32.443-31.993c-4.728-3.656-8.304-5.84-14.415-6.029
	c-3.304,1.78-5.41,3.391-6.46,7.214c-2.708,9.854,8.87,37.402,10.461,49.768c3.06,23.81,0.221,46.969-6.786,69.844
	c-13.979,45.629-41.362,85.012-64.49,126.249c-57.963,103.351-77.409,205.547-78.287,323
	c-29.774-10.529-130.363-43.337-158.913-30.382c-4.661,2.116-7.846,6.079-10.868,10.08c-37.821-31.016-74.445-62.217-117.792-85.534
	c-81.504-43.843-164.599-55.44-245.088-94.497c-21.927-10.641-96.535-53.997-116.154-54.198c-4.979-0.051-6.089,1.767-9.257,5.058
	c-1.153,5.058-1.119,8.195,1.654,12.756c4.66,7.664,11.183,14.412,16.47,21.675c14.163,19.457,25.975,42.457,33.374,65.361
	c15.836,49.019,12.487,103.191,11.938,154.064c-1.397,129.504,9.175,227.196,69.356,343.624
	c11.559,22.36,25.254,43.09,37.671,64.884c-98.524,20.154-192.421,54.23-292.225,69.596c-10.586,1.629-29.003,1.415-35.64,10.756
	c-0.085,14.059,27.53,33.628,35.595,45.459c15.248,22.376,29.064,46.061,43.795,68.824
	c46.301,71.548,95.181,143.564,155.241,204.449c34.161,34.633,72.996,65.594,117.408,85.889
	c-5.612,13.298-11.178,26.582-18.57,39.019c-11.943,20.096-43.631,52.335-33.417,77.336c9.792,23.973,44,24.684,61.766,39.886
	c10.893,9.322,13.733,23.096,18.727,35.859c13.56,34.665,57.022,54.525,89.49,66.74c14.28,5.375,28.989,9.773,43.487,14.521
	c-94.276,108.956-146.051,220.973-174.432,361.928c-7.375,36.643-14.568,75.441-15.826,112.859
	c-2.884,29.057-8.275,112.206,1.719,136.361c3.435,2.772,4.094,2.446,8.579,2.625c8.723-3.659,11.681-11.662,15.1-19.889
	c15.839-38.109,35.769-61.145,74.167-77.291c48.692-20.477,106.745-25.068,158.43-35.433
	c103.662-20.788,204.875-61.487,290.969-123.422c21.243-15.279,40.462-33.186,61.202-49.089
	c2.071,42.146,9.447,76.312,27.997,114.514c-55.603-11.684-104.424-10.698-153.551,21.073c-15.881,10.272-43.692,29.921-48.1,49.144
	c-2.023,8.829,2.532,16.962,7.334,24.066c31.957,47.316,85.678,83.396,141.967,93.319c7.923,1.396,15.964,2.285,23.954,3.214
	c-39.066,49.525-62.963,108.589-55.434,172.496c1.466,12.43,4.315,36.973,13.963,45.792c9.415,8.604,40.507,2.637,52.021,0.432
	c58.958-11.291,113.662-53.459,146.627-102.657c9.245-13.8,16.39-28.106,22.433-43.542c26.835,36.784,61.045,60.005,106.713,67.025
	c30.478,4.687,72.125,2.811,97.82-16.274c13.019-9.671,20.391-24.101,22.648-39.982c4.485-31.566-7.548-65.54-22.84-92.621
	c23.477,19.527,48.055,34.473,74.874,48.951c-5.272,14.322-10.333,28.474-14.29,43.231c-8.979,1.069-17.933,1.194-24.828,7.705
	c-1.668,4.232-2.273,5.356-0.807,9.924c2.324,7.228,13.16,16.444,18.928,21.153c-3.105,12.699-17.571,46.205-15.154,57.166
	c13.291,13.598,38.785,17.407,55.364,26.979c14.504,8.371,27.04,20.545,40.068,30.993c31.595,25.343,70.236,40.558,110.906,40.929
	c19.6,0.179,39.194-2.919,58.328-6.937c-1.293,118.794,33.205,145.254,85.889,242.392c16.255-5.717,30.295-15.548,45.693-23.073
	c8.726,12.702,14.555,25.289,20.125,39.588l2.013-0.813c21.812-8.678,45.545-12.763,67.925-19.889
	c58.446-18.611,111.13-54.803,137.469-111.633c58.936,31.81,97.593,42.732,164.25,27.078l34.902,28.717
	c19.68-56.1,62.656-92.852,80.55-153.612c110.186,24.905,163.139-31.432,254.054-79.106
	c-19.969-42.786-14.207-70.489-16.447-115.381c-2.372-47.498-20.372-94.821-57.233-126.259
	c28.954-37.322,48.407-69.804,65.889-113.886c96.821-59.23,188.594-121.444,271.605-199.34
	c20.263-19.015,40.677-38.983,59.384-59.521c17.446-19.153,33.365-41.81,54.621-56.926c9.549-6.793,21.617-13.262,33.093-15.82
	c27.744-6.175,51.471,0.676,74.653-2.923c4.427-0.688,7.587-1.617,10.388-5.221c0.294-6.322-3.118-10.679-7.299-15.096
	c-13.419-14.184-31.941-26.272-48.337-36.97c-84.99-55.45-183.722-76.648-284.077-77.157c-76.241-0.39-158.273,6.889-231.508,28.762
	c36.768-111.402,43.935-201.565,25.532-317.257c23.157-4.232,45.798-8.435,68.04-16.418
	c84.394-30.289,142.072-100.262,191.373-171.689c39.515-57.249,70.332-119.991,110.192-177.054
	c32.984-8.425,71.846-16.697,105.925-15.24c22.725,0.973,47.095,7.199,69.663,3.867c11.476-1.693,23.182-6.713,29.159-17.184
	c5.938-10.407,4.949-24.476,1.217-35.436c-9.395-27.606-39.268-45.018-64.237-56.599c-42.994-19.946-94.369-33.311-141.903-33.897
	c3.856-3.218,7.792-6.336,11.809-9.354c4.014-3.018,8.103-5.93,12.267-8.739c4.164-2.811,8.396-5.513,12.696-8.108
	c4.3-2.593,8.664-5.076,13.093-7.449c4.426-2.373,8.91-4.632,13.451-6.777c4.543-2.145,9.137-4.173,13.781-6.085
	c4.644-1.912,9.334-3.705,14.072-5.378c4.736-1.673,9.51-3.225,14.325-4.655c15.28-4.4,30.834-7.36,46.663-8.88
	c29.252-2.737,84.612,2.507,88.991-38.225c1.754-16.294-6.265-32.226-16.588-44.284c-36.973-43.199-120.327-64.612-175.162-70.316
	c49.339-82.115,132.033-142.546,210.605-194.577c24.21-16.031,54.512-30.76,75.229-50.814
	C3684.681,1165.466,3695.084,1150.539,3691.563,1136.688z M3404.279,795.035c6.796-0.685,12.433-0.627,18.742,2.398
	c7.728,3.704,12.305,10.925,14.572,18.982c14.258,50.642-47.847,212.138-70.658,260.674c-13.79,29.342-30.292,56.919-46.384,85.003
	c-86.536,49.601-151.583,102.433-210.25,183.818l-0.679,0.285c-3.492-3.23-1.479-27.558-1.613-33.532
	c-1.655-73.559-10.919-128.72-31.573-198.55c3.69-8.154,7.58-16.211,11.671-24.172c21.467-41.317,48.599-79.138,78.905-114.402
	C3222.048,911.492,3322.983,820.603,3404.279,795.035z M2960.654,888.377c1.033-11.883,2.56-23.701,4.581-35.456
	c2.023-11.755,4.535-23.405,7.536-34.95c3-11.543,6.478-22.941,10.432-34.194c15.385-45.09,56.145-142.502,98.656-163.355
	c7.999,1.138,13.704,3.258,19.658,8.927c14.046,13.374,22.344,34.856,29.05,52.665c30.564,81.176,39.428,168.694,39.918,254.83
	c-11.095,13.774-23.358,26.71-34.579,40.427c-15.067,18.416-28.979,37.911-42.677,57.361c-10.052,14.28-15.948,33.061-27.385,45.738
	l-2.385-0.243l-2.993-5.803c-25.612-56.839-60.556-103.572-101.412-150.232C2959.087,912.164,2959.621,900.26,2960.654,888.377z
	 M2816.389,907.161c-9.67-19.504-49.323-55.677-49.272-71.638c0.022-6.694,3.688-9.648,8.371-13.557
	c8.902-0.099,15.647,1.911,23.778,5.394c24.434,10.464,46.352,27.923,67.176,44.207c78.162,61.122,142.338,135.455,179.625,228.333
	c3.794,9.578,7.322,19.254,10.583,29.028c3.263,9.772,6.255,19.626,8.976,29.562s5.168,19.941,7.34,30.014
	c2.173,10.071,4.067,20.194,5.682,30.369s2.952,20.387,4.008,30.635c1.054,10.248,1.828,20.517,2.321,30.808
	c0.491,10.292,0.699,20.59,0.624,30.891c-0.075,10.303-0.431,20.596-1.069,30.878c-0.951,15.458-1.389,33.177-6.281,47.902
	c-5.855,17.622-18.019,34.582-27.187,50.795c-9.721,16.945-18.342,34.431-25.862,52.46c-8.419,20.522-10.279,32.754-28.378,47.444
	c-0.531-160.396-66.859-299.423-166.593-421.86C2843.464,1054.96,2846.134,967.15,2816.389,907.161z M2670.962,1156.512
	c-14.271-27.939-30.712-55.748-48.635-81.497c-11.325-16.271-25.433-32.216-34.822-49.569c-3.07-5.672-4.273-13.256-1.805-19.418
	c2.641-6.594,7.625-8.477,13.752-10.855c3.792-0.19,7.586-0.24,11.38-0.15c62.355,1.453,133.269,64.951,174.548,108.301
	c118.615,124.559,192.893,285.674,188.524,459.307c-38.958,38.775-72.57,81.526-103.838,126.643
	c-19.885,30.484-37.178,62.982-52.681,95.88c-2.058-80.863-13-162.575-27.2-242.107
	C2766.384,1409.756,2732.91,1277.8,2670.962,1156.512z M2661.202,1905.726c-93.265-85.304-128.714-260.591-137.805-381.917
	c-3.787-50.52-0.535-104.558-11.172-154.095c-1.52-7.316-3.516-14.5-5.99-21.553c-2.473-7.051-5.404-13.907-8.79-20.567
	c-8.028-15.657-34.162-44.761-34.261-60.248c-0.042-6.879,2.961-10.641,7.526-15.247c5.896-0.042,11.069,0.692,16.71,2.484
	c18.554,5.89,35.184,17.744,50.779,29.041c71.545,51.826,131.073,124.508,171.958,202.618c50.36,96.21,97.144,228.458,81.561,337.68
	c-5.122,35.885-18.454,66.57-29.092,100.63c-8.278,8.624-19.053,16.041-28.352,23.631
	C2708.265,1936.85,2682.358,1925.08,2661.202,1905.726z M2669.759,2027.237c53.811-40.065,113.003-78.034,158.155-128.294
	c2.231,14.728-4.837,37.245-8.063,52.002c-28.119,128.589-72.871,251.611-117.062,375.229
	c-33.797-80.188-44.908-159.377-24.674-244.767c-6.812,9.248-12.052,19.367-16.29,30.017
	c-30.772,77.281-1.441,167.63,29.883,240.228c-7.481,20.75-14.719,41.599-23.57,61.811c-15.762,8.096-32.139,15.775-48.785,21.825
	c-12.58-9.968-24.46-21.489-34.207-34.255c-36.912-48.347-41.426-114.594-33.353-172.672c2.676-18.784,7.228-37.293,11.345-55.805
	c-25.676,35.443-32.86,82.605-28.516,125.321c5.183,50.943,26.79,111.489,67.579,144.691c-24.37,11.934-50.098,21.822-75.079,32.453
	c-22.533-56.241-51.691-80.342-104.564-106.966c2.574-20.174,5.794-40.161,12.036-59.566
	C2471.801,2192.786,2574.794,2097.943,2669.759,2027.237z M1558.633,2665.854c8.37-6.778,16.457-13.878,24.261-21.3
	c37.636-36.077,50.507-81.107,51.701-132.097c26.72,7.526,52.69,13.006,80.515,14.75c35.766,2.244,71.484,0.256,107.174,4.875
	c19.562,2.532,61.077,20.955,78.072,13.182c15.087-6.898,17.862-48.11,21.374-62.87c2.839-11.94,6.674-23.291,11.229-34.671
	c8.698,2.535,14.969,4.405,20.855,11.585c27.001,32.923,31.794,105.928,27.578,146.323c-17.014,14.629-42.866,31.96-64.727,38.029
	c-11.956,3.32-28.999,1.469-39.211,8.774c-4.389,3.14-7.635,8.989-7.945,14.392c-0.829,14.328,23.445,37.626,31.992,48.964
	c-1.524,4.219-2.98,9.786-5.615,13.426c-10.147,14.024-37.591,15.468-53.763,18.605c1.159-33.775,1.508-92.013-19.498-119.937
	c-4.61-6.124-10.369-9.126-17.974-9.844c-35.436-3.329-90.79,31.554-117.119,52.985c-4.319,3.773-8.498,7.696-12.536,11.771
	c-4.038,4.072-7.926,8.282-11.665,12.632c-3.737,4.351-7.313,8.83-10.73,13.435c-3.419,4.606-6.668,9.327-9.747,14.165
	C1610.152,2711.176,1580.734,2693.185,1558.633,2665.854z M1635.21,2744.253l-4.75,15.714l-1.521,1.438
	c-6.46-6.678-11.582-16.326-16.63-24.175L1635.21,2744.253z M1029.965,1488.847c87.189,12.622,161.173-5.346,240.507,47.792
	c-4.305,22.027-13.281,43.657-18.253,65.742c-16.38,72.726-7.875,147.943,18.886,217.135c-17.776-8.608-35.804-19.364-50.885-32.168
	c-10.98-9.325-31.938-38.042-43.071-42.437c-3.957-1.562-7.331-1.079-11.188,0.58c-5.823,2.5-10.426,8.864-12.763,14.533
	c-9.667,23.458,5.391,58.865,14.043,80.976c41.586,106.264,108.934,178.014,213.643,223.627
	c40.84,15.506,82.669,25.766,123.915,39.672c-20.041,4.381-40.263,7.639-60.664,9.773c-91.51,9.453-172.835-5.109-245.526-64.829
	c-94.654-77.768-178.485-211.36-189.846-333.771c-2.279-24.559-4.975-57.354,11.611-77.688c6.578-8.067,15.58-14.059,22.056-22.245
	C1068.33,1582.79,1034.264,1524.798,1029.965,1488.847z M2389.465,2777.878c3.47,14.45,9.639,28.503,13.963,42.76
	c-6.431,0.858-34.396-25.606-41.541-30.74c-26.054-18.71-53.174-35.6-80.319-52.649c10.784,13.253,22.465,25.648,34.101,38.148
	c22.216,24.12,45.994,46.467,69.74,69.048c-0.928,15.045-0.835,29.434,1.469,44.358c-57.598-29.316-106.533-40.222-170.777-31.224
	c-11.073-8.979-20.785-19.002-29.844-30.01c-22.833-27.741-39.489-60.972-49.726-95.33c-14.555-48.852-15.426-94.183,1.45-142.395
	c6.918-19.757,15.285-39.556,20.494-59.813c4.398-17.113,6.012-34.329,7.702-51.858c27.674,9.712,55.021,16.822,84.234,20.09
	c21.105,2.362,42.863,2.855,63.641,7.334c43.385,9.35,71.936,37.357,95.499,73.411
	C2382.071,2641.177,2373.45,2711.221,2389.465,2777.878z M2429.889,2948.968c1.351,12.628,4.126,24.2,7.673,36.361
	c-13.461,11.543-23.083,16.252-40.939,17.494c-5.887-0.618-11.287-1.53-16.899-3.496c-8.922-3.121-22.12-7.776-25.625-17.667
	c-1.492-4.212-0.81-7.862,1.117-11.764c6.38-12.936,25.66-20.478,38.372-25.327
	C2406.709,2943.465,2417.523,2943.625,2429.889,2948.968z M2415.542,2841.125c11.684,0.765,22.961,6.184,31.912,13.701
	c16.217,13.624,20.138,30.58,22.315,50.594l-14.152,8.438l-14.869,9.719c-0.474-0.157-0.948-0.311-1.421-0.474
	c-0.784-0.272-1.562-0.56-2.35-0.829c-2.993-1.018-6.104-1.901-8.909-3.39c-9.715-5.147-17.097-17.872-19.86-28.138
	C2403.56,2873.469,2406.892,2856.469,2415.542,2841.125z M1984.613,2461.111c36.086,2.843,69.778,2.567,105.791-0.992
	c2.494-0.339,5.458-0.919,7.958-0.685c12.008,1.133,34.041,26.505,42.438,35.177c-1.646,20.99-6.415,39.38-12.984,59.365
	c-38.298-0.243-67.973,6.697-102.359,23.65l-19.975,11.812C2005.827,2544.801,2000.077,2503.106,1984.613,2461.111z
	 M1998.967,2260.624c-4.658-29.326-14.664-54.166-29.486-79.737c61.007,28.919,114.917,46.16,182.951,49.714
	c-66.292-46.797-150.293-47.422-223.253-104.462c75.076,17.789,143.759,6.082,210.003-33.5
	c-52.662,16.633-105.96,25.337-161.215,23.909c59.845-11.892,110.842-37.357,160.479-72.048c3.797,0.647,7.728,1.93,11.428,3.06
	c94.756,28.9,112.414,97.5,164.662,169.311c12.792,17.577,50.251,57.959,57.291,74.986c0.829,2.004,1.741,4.014,0.557,6.015
	c-7.638,12.875-55.479,20.148-70.716,27.638c-42.553,20.916-40.862,71.609-99.635,91.082c-22.286,7.388-46.198,10.17-69.336,13.784
	c-59.576,9.302-132.738,22.395-188.889-5.852C1975.522,2368.774,2002.401,2327.361,1998.967,2260.624z M2375.54,2507.296
	c-13.163-9.177-27.222-17.161-42.7-21.672c-36.099-10.522-75.735-8.569-112.772-16.127c-13.874-2.833-44.784-16.895-57.198-14.177
	c-7.603,1.665-11.479,7.967-15.99,13.717l-15.045-15.628c49.864-7.798,105.407-11.534,137.639-55.991
	c11.511-15.877,20.282-34.486,34.905-47.822c0.461-0.419,0.931-0.826,1.396-1.239c15.074,3.352,29.626,15.73,44.211,21.627
	c23.15,9.357,47.959,14.075,70.892,24.341c42.722,19.126,69.512,48.932,86.149,92.234c-34.092,22.203-57.841,38.737-83.044,71.737
	C2409.623,2538.146,2395.073,2522.531,2375.54,2507.296z M2405.941,2329.458c-1.092,6.457-1.149,13.467-2.625,19.748
	c-1.002,4.257-2.388,5.919-6.114,7.897c-8.646-3.019-19.175-23.448-24.421-31.47c9.655-6.466,21.275-15.494,25.042-26.998
	c1.594-4.872,1.575-9.876-0.791-14.466c-9.027-17.526-41.749-50.149-55.815-69.372c-58.795-80.361-74.151-151.496-179.34-187.535
	c25.394-25.055,47.949-51.071,65.248-82.413c29.162,1.092,57.146,5.179,85.333,12.853c92.868,25.292,166.077,78.764,214.264,162.636
	C2472.038,2181.771,2423.765,2247.567,2405.941,2329.458z M2221.729,1893.148c-20.5,75.358-80.624,129.37-146.496,166.711
	c-85.185,44.14-136.515,47.553-228.352,27.235c40.014-52.643,77.521-117.766,93.293-182.189
	c14.309-58.456,16.15-136.458-2.638-193.815c-5.176-15.797-12.853-29.421-21.451-43.593c17.2-6.306,33.404-10.394,51.605-12.526
	c56.961-5.928,149.524,6.521,196.239,40.369c43.18,31.291,41.63,51.66,103.194,60.792c-8.989,19.777-19.306,38.458-26.127,59.198
	C2232.632,1840.749,2228.743,1867.366,2221.729,1893.148z M1908.036,1933.854c-30.808,83.485-96.2,178.805-178.549,216.034
	c-48.743,22.036-98.969,25.919-149.227,7.151c-19.194-8.38-36.528-18.067-51.634-32.738c37.277-5.234,69.551-17.757,100.182-39.771
	c24.588-17.67,46.09-40.27,64.762-63.997c56.858-72.249,77.153-144.527,91.968-233.195c38.048-36.182,60.031-84.215,106.469-112.596
	c1.584,0.103,3.518,0.733,5.077,1.092c4.789,5.186,8.012,10.477,10.938,16.896
	C1938.741,1760.084,1932.969,1866.288,1908.036,1933.854z M1510.018,1801.919c37.495,21.755,65.201,60.796,76.251,102.382
	c10.717,40.321,5.218,63.635-15.487,99.328c-34.54-47.37-70.265-70.149-113.784-106.114c-0.352-1.258-0.682-2.526-0.957-3.803
	c-7.19-33.135,3.822-76.183,21.473-104.629C1489.002,1791.372,1499.918,1796.058,1510.018,1801.919z M1507.681,1771.416
	c3.976-18.701,11.316-37.312,20.503-54.032c13.941,6.332,28.426,36.201,36.534,49.326c-3.94,10.637-7.321,22.597-13.329,32.216
	l-2.855-0.061C1535.796,1788.356,1521.913,1779.726,1507.681,1771.416z M1571.774,1820.195c5.173-20.398,14.037-38.843,23.262-57.62
	c8.874,6.572,15.884,23.295,20.244,33.234c25.43,57.982,20.846,70.738-0.874,126.364
	C1606.307,1878.273,1592.027,1858.208,1571.774,1820.195z M1463.963,1770.827c-8.867,3.886-11.716,11.742-15.189,20.148
	l-8.147,19.37c-15.862-15.948-32.975-28.627-51.311-41.493c5.451-15.497,12.583-30.26,16.082-46.385
	c29.758,5.817,55.002,26.464,77.019,45.955C1476.239,1768.478,1469.738,1768.298,1463.963,1770.827z M1432.634,1837.551
	c-2.602,13.105-3.143,25.871-3.079,39.191l-1.588,1.38c-13.675-3.607-30.091-14.507-42.066-22.062
	c-4.821-20.75-5.128-41.973-4.616-63.158C1401.676,1804.003,1417.115,1820.713,1432.634,1837.551z M1556.52,2028.569
	c-5.33,12.142-11.822,23.435-18.72,34.735l-13.864,21.998c-70.274-23.813-136.569-37.011-200.032-78.962
	c-76.792-50.763-132.696-140.702-150.818-230.836c20.82,17.04,36.643,38.343,60.485,52.101
	c32.203,18.589,70.425,24.863,105.339,36.73C1419.397,1891.692,1510.972,1956.553,1556.52,2028.569z M1725.959,1922.711
	c-29.06,64.586-83.697,138.935-152.204,164.733c-10.135,4.126-20.734,7.001-31.208,10.122
	c40.882-57.95,91.456-151.109,112.917-218.841c2.473-7.755,4.676-15.586,6.607-23.493c1.933-7.909,3.591-15.874,4.971-23.896
	c1.381-8.022,2.483-16.083,3.307-24.181c0.824-8.099,1.367-16.216,1.629-24.351c2.935-105.967-39.627-204.264-111.969-280.181
	c5.566-5.02,10.88-10.294,15.942-15.823c5.06-5.53,9.844-11.287,14.354-17.273c4.509-5.988,8.722-12.177,12.638-18.566
	c3.916-6.391,7.518-12.955,10.807-19.69c58.222,37.344,104.465,95.774,129.188,160.235
	C1780.634,1689.778,1768.748,1827.612,1725.959,1922.711z M1720.927,1485.626c-0.349,3.934-0.509,7.113-3.534,9.834
	c-7.33-4.552-12.932-14.78-18.771-21.332c-18.723-21.012-41.282-44.589-65.793-58.725c-7.199-4.149-17.997-9.223-26.489-5.996
	c-9.616,3.653-14.047,14.45-18.723,22.895c-12.081,21.095-27.744,37.501-45.888,53.513c-11.938-10.922-24.371-21.246-37.3-30.971
	c-12.93-9.727-26.296-18.812-40.097-27.254c-16.716-10.352-34.252-19.642-50.152-31.237
	c17.347-53.856,60.597-80.671,103.284-113.342c22.143-17.039,43.72-34.767,64.73-53.187l2.737,1.45
	c12.981,23.631,25.849,48.206,42.588,69.416C1675.858,1361.948,1728.725,1397.903,1720.927,1485.626z M1553.591,1530.666
	c71.923,77.749,97.052,170.677,93.406,274.839c-9.229-20.439-23.182-50.517-39.883-65.389c-4.302-3.835-9.658-6.982-15.641-5.967
	c-5.08,0.861-8.205,5.688-11.255,9.424c-11.87-15.327-24.85-36.282-39.627-48.647c-4.626-3.87-10.439-7.222-16.707-5.845
	c-11.889,2.612-17.379,17.036-22.382,26.652c-4.526,8.678-7.833,17.904-11.374,27.018c-19.652-17.936-59.97-44.585-87.628-43.615
	c-5.957,0.208-11.879,2.289-15.73,7.036c-8.204,10.115-9.421,27.626-13.355,39.957c-3.182,9.981-10.324,18-13.906,27.702
	c-7.67,20.762-2.03,51.186-0.311,72.883c-18.733-5.493-37.325-11.429-55.776-17.808c-3.88-6.396-7.407-13.147-10.548-19.933
	c-14.117-30.497-21.124-65.085-24.085-98.403c-7.036-79.205,16.854-154.256,50.811-224.789
	c15.119-31.403,31.205-61.929,43.353-94.679c17.718,9.098,34.223,22.133,50.978,33.023
	C1464.302,1456.848,1512.246,1485.972,1553.591,1530.666z M1517.217,2142.986c0.826,0.922,1.669,1.827,2.529,2.714
	c30.878,31.816,75.089,46.532,118.64,47.127c75.78,1.037,138.922-35.229,191.856-87.128c10.378,3.726,21.988,5.627,32.655,8.701
	c31.502,9.072,52.108,29.015,71.139,55.033c42.693,58.363,57.162,118,22.763,184.337c-15.1,29.121-33.612,56.228-46.58,86.498
	c-11.479,26.8-16.527,55.29-20.849,83.924c-26.505-5.483-51.839-14.034-78.959-16.79c-20.25-2.061-40.705-1.402-61.033-1.709
	c-45.053-0.682-85.86-6.953-127.267-25.145c-47.815-24.073-92.02-54.851-120.695-101.075
	c-21.214-34.198-30.798-74.788-20.926-114.366c4.232-16.963,11.255-33.586,16.748-50.207
	C1504.913,2191.211,1511.572,2167.24,1517.217,2142.986z M1905.804,2853.927c-15.391-10.535-32.059-15.846-49.854-20.836
	c-13.951-2.401-27.495-3.662-41.653-3.857c9.76-18.791,18.422-36.384,23.65-57.009c16.726-2.186,32.815-6.831,48.987-11.463
	c1.127,2.167,0.967,1.245,0.989,3.633C1888.256,2797.76,1893.33,2822.783,1905.804,2853.927z M1665.752,2733.827
	c27.056-46.957,77.938-78.258,129.258-91.731l6.287,0.192c2.612,1.79,4.152,3.172,5.845,5.925
	c15.698,25.529,12.321,92.144,6.514,121.752c-2.113,10.778-6.383,20.34-10.81,30.321c-18.679,42.114-43.99,41.512-78.463,64.88
	c23.826-63.549,64.435-116.652,73.6-185.771c-9.453,16.617-16.684,35.139-25.427,52.252
	c-28.72,51.839-61.032,101.405-89.058,153.731c-6.988-5.769-14.155-11.345-21.24-16.995
	C1650.784,2816.134,1636.094,2785.301,1665.752,2733.827z M1710.654,2954.522c-1.028-13.144-3.489-25.209-6.94-37.914
	c30.888-29.431,66.164-56.474,109.549-61.17c7.2-0.743,14.414-0.891,21.64-0.445c7.226,0.448,14.367,1.483,21.422,3.105
	c19.607,4.635,52.005,19.229,62.163,37.636c2.497,4.526,3.031,9.312,1.434,14.222c-6.297,19.328-47.901,45.101-65.649,54.243
	c-36.941,19.024-73.984,28.561-115.506,28.391c-11.793-0.048-23.868-0.022-35.203-3.601l-1.469-3.713
	c7.977-8.188,55.86-17.497,70.111-22.568c37.674-13.538,76.488-30.129,109.619-52.697
	C1825.623,2930.046,1768.633,2941.205,1710.654,2954.522z M1921.82,2729.541c9.975,5.189,19.21,10.964,28.525,17.254
	c-14.315-29.399-32.904-50.03-53.776-74.81c91.687-18.182,115.737-84.766,212.394-95.006c3.381-0.467,4.959-0.557,8.086,0.88
	c-6.508,22.325-13.627,45.968-14.815,69.298c-4.264,83.905,32.056,157.348,86.827,218.259
	c-55.2,22.689-91.181,64.829-119.623,115.97c-29.617-9.491-54.032-26.886-76.193-48.302c-6.191-6.144-12.144-12.512-17.859-19.104
	c-5.713-6.592-11.171-13.389-16.374-20.391c-5.205-7.002-10.139-14.188-14.802-21.559c-4.665-7.373-9.046-14.91-13.144-22.61
	C1908.244,2805.612,1907.389,2775.624,1921.82,2729.541z M2129.966,2934.662c34.047-38.112,74.282-55.709,124.876-58.334
	c51.106-0.323,95.992,15.641,137.888,44.275c-18.096,4.885-34.834,12.452-49.028,24.966c-9.014,7.945-17.369,18.704-17.693,31.237
	c-0.33,12.645,5.893,19.156,13.995,27.706c-51.711,24.261-105.375,48.334-152.031,81.629c26.23-8.518,52.258-17.267,78.126-26.838
	c34.867-12.907,73.447-30.843,110.304-35.459c7.942-0.996,16.377,1.2,24.156,2.756c-1.373,4.354-2.718,8.739-3.659,13.208
	c-5.708,27.123-2.641,52.543,12.452,76.104c8.432,2.016,16.576,2.522,25.183,2.977c-6.857,13.57-15.177,26.128-23.919,38.542
	c-24.575,29.93-53.145,56.436-89.321,71.439c-104.283,43.247-193.463-24.786-286.126-62.889
	c10.247-29.739,13.902-60.287,20.564-90.867C2066.552,3025.456,2096.21,2972.451,2129.966,2934.662z M2430.34,3093.742
	c-3.944-0.502-7.548-3.092-9.84-6.245c-6.479-8.909-4.952-24.726-2.936-35.104c4.072-20.961,15.199-33.983,32.424-45.398
	c7.286,2.286,15.09,3.06,22.625,4.216c5.013,14.382,7.779,27.376,3.291,42.511c-5.16,17.401-17.395,28.624-32.613,37.373
	C2439.294,3092.369,2434.588,3094.283,2430.34,3093.742z M2469.016,2983.514c-6.959-3.515-12.798-11.108-14.687-18.618
	c-1.841-7.327-0.896-14.53,3.028-21.002c5.695-9.396,14.437-12.417,24.543-15.119c7.814,0.186,15.756,1.168,22.472,5.477
	c6.079,3.902,10.897,10.596,12.404,17.68c1.594,7.488,0.288,14.914-3.883,21.336c-5.525,8.502-13.281,11.975-22.866,14.034
	C2483.015,2986.738,2475.396,2986.735,2469.016,2983.514z M2525.833,2994.024c18.141,13.989,47.802,33.122,54.083,56.189
	c1.405,5.16,1.255,9.984-1.585,14.658c-4.674,7.695-14.459,10.746-22.693,12.347c-1.816-0.23-3.625-0.512-5.426-0.845
	c-22.366-4.19-37.895-25.337-50.062-42.892c-0.131-7.5-0.992-15.065-1.585-22.549
	C2509.337,3007.043,2517.324,3001.482,2525.833,2994.024z M2567.704,2982.289c-10.909,0.237-21.127-1.066-31.791-3.217
	c3.611-13.416,4.699-23.925,2.452-37.716c18.669-6.739,37.338-13.861,56.932-17.357c7.25-0.957,13.39-1.011,19.418,3.64
	c7.138,5.506,13.237,14.104,13.848,23.323c0.4,6.092-2.026,12.094-6.031,16.623
	C2609.657,2982.141,2585.595,2981.274,2567.704,2982.289z M2525.218,2921.992c-10.701-10.775-20.094-16.758-35.017-20.125
	c1.178-11.297,3.025-21.003,7.904-31.422c7.568-16.156,18.077-25.468,34.642-31.464c8.691-0.759,19.13-0.874,26.432,4.77
	c3.339,2.58,5.26,6.521,5.685,10.663C2567.099,2876.248,2538.33,2906.601,2525.218,2921.992z M2524.594,2815.167
	c16.265-46.595,30.081-94.023,46.791-140.459c-11.799,17.83-20.858,36.733-29.694,56.132
	c-10.621,23.685-29.396,83.735-42.146,100.791c-5.199,6.956-13.054,12.929-18.82,19.706c-7.391-31.028-24.335-66.276-39.688-94.359
	c-0.326,23.672,3.79,46.096,7.894,69.298c-7.503-3.128-14.937-6.444-22.395-9.68c-20.074-60.732-30.885-116.745-13.701-179.689
	c36.935-135.318,167-146.275,271.356-206.319c2.292,1.898,1.681,1.008,3.041,3.614c37.04,70.78,109.651,208.083,85.224,287.554
	c-17.43,56.705-72.08,94.852-123.154,119.098c-19.427,9.222-40.065,16.089-58.929,26.448l-2.081,1.159
	c-0.035-15.173-2.801-30.244-14.302-41.186C2560.21,2814.162,2542.28,2814.332,2524.594,2815.167z M2256.333,1586.401
	c122.251,58.135,231.505,160.805,300.454,277.057c30.769,51.877,54.138,107.205,74.433,163.897
	c-13.605,11.761-28.045,22.334-41.499,34.38c-15.468,13.627-30.385,27.965-45.475,42.015
	c-45.402-66.692-90.051-115.064-166.007-147.559c-20.058-56.365-12.155-118.083-20.007-176.587
	c-11.165-83.172-61.343-152.313-127.136-202.423C2239.982,1578.231,2248.321,1582.591,2256.333,1586.401z M2339.521,1813.764
	c2.34,44.659,1.764,89.196,13.266,132.763c-17.43-6.303-35.135-11.303-53.087-15.865c-20.526-3.841-41.019-6.22-61.778-8.281
	c11.284-36.426,15.576-74.785,28.349-110.906c6.012-17.001,27.366-43.372,23.906-61.042c-0.294-1.508-0.835-3.297-1.514-4.61
	c-7.036-13.605-35.926-16.105-49.191-20.849c-22.078-7.891-37.687-28.032-54.938-43.09c-8.573-7.481-17.949-13.682-27.491-19.837
	c10.263-33.003,14.184-65.117,15.253-99.552C2265.428,1628.681,2333.167,1692.348,2339.521,1813.764z M2146.106,1159.602
	l0.967,1.018c1.786,14.533,0.105,29.258,2.67,43.999c4.638,26.688,14.729,54.029,21.393,80.438
	c19.133,75.834,18.49,151.215-3.969,226.252c-4.629-19.805-10.048-39.271-15.746-58.795c-8.396-23.298-17.92-46.557-24.495-70.44
	c-4.574-16.607-6.3-34.105-11.531-50.466c-1.773-5.557-5.637-16.819-11.079-19.149c-13.579-5.81-31.563,2.573-44.669,6.949
	C2080.886,1258.84,2107.562,1210.666,2146.106,1159.602z M1911.944,1291.597c61.919-71.878,135.343-113.986,218.784-156.08
	l1.78,0.365l-0.259,2.237c-42.418,47.079-79.1,123.493-96.242,183.565c-52.066-7.756-99.142-8.195-149.134,10.458
	c-2.97,1.028-4.696,1.581-7.827,1.072C1887.689,1318.419,1900.753,1304.59,1911.944,1291.597z M1974.776,1338.96
	c49.787-0.387,61.33,11.745,116.028-2.804l1.194,0.211c0.935,1.277,1.242,1.543,1.844,3.249c4.405,12.529,4.767,35.529,9.815,51.417
	c7.635,24.021,17.952,47.204,25.827,71.177c19.802,60.293,26.137,129.399,4.232,190.012
	c-55.952-15.839-120.813-26.403-178.619-19.392c-17.897,2.17-34.844,6.847-51.746,13.048
	c-50.767,18.624-72.262,48.084-104.53,89.456l-11.133,14.642c1.45-88.764-8.717-151.801-54.054-230.327
	c6.005-17.052,12.939-33.551,22.081-49.185C1799.783,1395.086,1886.633,1339.652,1974.776,1338.96z M1534.929,780.717
	c19.642,17.231,37.367,37.252,55.296,56.253c24.393,25.852,48.769,51.999,70.255,80.364
	c94.891,125.282,159.864,285.611,169.992,443.083c-37.424,24.921-60.341,49.89-86.728,85.963c-0.574-4.419-1.3-8.815-2.177-13.185
	c-0.877-4.369-1.904-8.703-3.079-13.003c-1.176-4.298-2.499-8.55-3.969-12.757c-1.468-4.208-3.081-8.36-4.837-12.456
	c-1.756-4.097-3.653-8.129-5.688-12.094c-2.034-3.965-4.202-7.856-6.505-11.671c-2.303-3.816-4.735-7.547-7.295-11.194
	c-2.561-3.649-5.244-7.205-8.051-10.666c32.408-41.131,48.35-83.437,58.801-134.127c-12.068,19.927-21.063,41.906-32.184,62.425
	c-7.033,12.98-24.825,48.779-39.204,53.03l-3.569-2.916c-17.043-16.307-32.808-32.68-47.089-51.554
	c3.297-4.571,6.477-9.223,9.539-13.957c3.06-4.731,6-9.538,8.819-14.421c2.819-4.881,5.512-9.83,8.08-14.847
	c2.567-5.02,5.005-10.1,7.315-15.241c2.311-5.141,4.49-10.337,6.537-15.589s3.959-10.552,5.737-15.9
	c1.78-5.35,3.422-10.741,4.927-16.172c1.504-5.431,2.871-10.898,4.101-16.399c12.609-57.489,11.198-126.46-22.011-177.336
	c-4.475-6.854-11.998-19.61-20.196-21.288c-0.198,0.89-0.592,1.761-0.599,2.673c-0.035,4.482,6.937,17.27,8.845,21.905
	c7.481,18.185,14.642,36.65,18.042,56.109c12.846,73.552-4.763,157.86-48.02,219.123l-1.421,1.991
	c-8.758-11.425-14.434-25.084-23.064-36.563c-4.936-6.569-11.198-12.715-19.767-13.621c-13.611-1.44-25.289,10.452-34.716,18.592
	c-1.703-12.198-3.528-24.38-5.474-36.544c9.072-22.315,19.61-45.93,21.332-70.204c3.64-51.365-10.769-101.309-15.526-152.111
	c-4.165-44.512-2.769-89.673-9.702-133.925c-3.227-20.583-8.899-39.835-16.355-59.26
	C1528.776,775.403,1531.862,778.028,1534.929,780.717z M1420.978,955.415c35.017-63.664,68.895-109.622,77.794-184.967
	c1.636,1.552,1.441,1.034,2.247,2.839c10.327,23.02,15.785,51.968,19.792,76.834c6.809,42.226,6.774,85.326,11.342,127.811
	c4.629,43.068,16.108,87.64,14.687,130.977c-0.762,23.208-6.924,44.403-15.128,65.962c-38.446-32.085-56.734-90.582-66.731-137.789
	c-3.294-15.551-4.882-32.402-9.27-47.546c-0.125-0.429-0.256-0.852-0.387-1.277c-1.258,21.7-1.549,42.729,1.805,64.317
	c8.006,51.512,30.059,110.247,73.6,142.216c2.443,14.005,4.472,28.055,7.081,42.04c-20.334,18.707-44.47,34.678-66.241,51.833
	c-6.373-7.484-11.438-15.5-16.633-23.816c-21.985-38.548-28.013-78.306-41.186-119.674c2.014,54.269,15.253,106.219,48.382,149.979
	c-15.253,12.379-29.39,25.234-42.677,39.726c-22.081-21.7-42.927-41.538-70.098-56.906
	C1345.102,1159.963,1363.537,1059.835,1420.978,955.415z M1176.87,1255.606c2.661,0.073,5.32,0.176,7.977,0.311
	c2.659,0.134,5.315,0.301,7.968,0.499c2.655,0.198,5.306,0.427,7.955,0.685c2.648,0.26,5.294,0.552,7.936,0.874
	s5.28,0.677,7.913,1.063c2.633,0.384,5.262,0.799,7.884,1.245c2.625,0.446,5.243,0.923,7.855,1.431s5.218,1.047,7.817,1.616
	c2.599,0.57,5.192,1.171,7.779,1.802c2.586,0.63,5.164,1.29,7.734,1.982c2.569,0.691,5.13,1.413,7.683,2.164
	c2.555,0.751,5.098,1.533,7.632,2.346c2.535,0.811,5.06,1.652,7.574,2.522c2.516,0.873,5.021,1.773,7.513,2.702
	c2.495,0.93,4.978,1.891,7.449,2.881c2.469,0.988,4.928,2.005,7.375,3.051c2.448,1.048,4.882,2.124,7.302,3.227
	c2.422,1.103,4.831,2.235,7.225,3.396c2.396,1.161,4.778,2.35,7.145,3.566c2.367,1.216,4.719,2.461,7.055,3.732
	c2.339,1.274,4.662,2.574,6.969,3.899c2.307,1.327,4.598,2.682,6.873,4.062c2.275,1.381,4.533,2.788,6.774,4.222
	c2.243,1.434,4.468,2.895,6.674,4.383c2.209,1.487,4.398,2.999,6.569,4.536c2.173,1.539,4.327,3.103,6.463,4.693
	c2.134,1.588,4.25,3.201,6.348,4.84c2.096,1.639,4.173,3.302,6.233,4.99c2.057,1.688,4.094,3.4,6.111,5.135
	c2.019,1.735,4.015,3.494,5.989,5.279c1.976,1.782,3.931,3.587,5.865,5.416c1.933,1.829,3.845,3.68,5.736,5.554
	c-3.985,9.325-8.893,18.317-13.505,27.354c-2.345-1.633-4.7-3.252-7.065-4.859c-10.452-7.097-19.316-13.387-32.434-10.871
	c-12.737,10.897-33.08,66.189-42.45,85.47c-10.451,20.771-20.721,41.632-30.811,62.582c-50.434-29.05-92.512-37.485-149.813-42.729
	C1126.427,1405.413,1153.147,1316.584,1176.87,1255.606z M822.766,1105.429c38.804,14.386,79.401,24.053,118.486,37.834
	c70.412,24.825,157.166,73.895,202.846,132.725c-19.53,70.095-37.469,119.796-36.378,194.888c-19.29-0.554-39.07-1.255-58.132-4.344
	c9.824-18.979,17.795-37.325,21.127-58.625c8.704-55.604-5.967-106.076-38.734-151.266c-18.583-25.372-42.585-46.34-71.542-58.773
	c29.882,30.046,57.69,61.314,76.19,99.859c22.289,46.445,30.18,98.454,12.353,147.661c-2.378,6.562-5.484,16.924-12.119,20.074
	c-18.72-9.581-39.822-46.048-52.579-63.565c-27.75-38.109-59.288-72.493-85.291-112.062
	c-54.899-83.53-69.701-144.768-148.927-216.681C763.536,1075.13,806.088,1099.244,822.766,1105.429z M750.577,1273.638
	c0.707-64.778,4.654-124.93-20.939-186.433c16.909,8.396,47.647,47.188,59.119,62.927c34.418,47.217,57.38,101.764,89.289,150.68
	c22.635,34.703,49.169,65.674,74.474,98.323c13.935,17.98,26.781,36.816,39.729,55.51c-20.43,5.919-41.083,6.37-61.554,0.419
	c-67.601-19.652-109.674-84.18-141.121-142.328c13.025,57.611,45.574,108.313,95.064,141.313
	c40.958,27.312,77.307,26.986,124.136,17.494c-0.515,21.467,0.624,39.742,6.85,60.431c4.783,12.513,9.501,25.929,11.54,39.217
	c1.866,12.155,1.092,24.521-6.831,34.479c-5.874,7.385-14.286,12.072-23.74,12.683c-36.784,2.388-101.975-52.454-130.394-76.5
	l0.781,1.658c21.035,43.836,77.688,79.996,122.155,95.838l-4.606,24.479c-41.144,2.18-82.054,4.238-122.91,9.917
	C772.613,1552.907,748.972,1420.567,750.577,1273.638z M707.015,1735.279c37.234-10.423,74.258-22.104,112.079-30.247
	c42.076-9.056,84.142-14.072,127.078-16.348c12.113-1.066,24.604-0.679,36.771-0.868c4.459,80.569,19.713,121.377,52.306,193.681
	c-14.565-3.86-29.463-6.786-44.172-10.061c-13.185-23.211-27.251-42.44-47.959-59.544c-31.163-25.74-91.168-55.123-132.395-51.311
	c0.397,2.206,16.239,7.67,18.752,8.656c59.906,23.464,98.556,46.339,137.498,98.665c-8.899-1.296-17.856-2.34-26.777-3.492
	c-126.707-19.815-252.36-45.549-371.049-96.063C615.615,1759.462,661.571,1748.439,707.015,1735.279z M605.451,1857.165
	c-14.017-21.809-31.256-42.902-42.822-66.055c22.5,4.942,44.495,17.379,66.383,24.959c46.392,15.995,93.472,29.608,141.241,40.84
	c40.124,9.518,80.575,17.349,121.353,23.493c52.78,7.798,107.212,12.475,157.998,29.655c13.486,17.043,25.548,35.715,38.122,53.472
	c-77.989,25.004-181.507,37.703-262.69,21.371c-24.415-4.914-47.136-13.774-70.249-22.77c10.549,8.432,21.807,14.77,33.753,20.98
	c61.257,26.781,125.9,29.732,191.658,26.345c-50.674,34.239-82.147,79.007-111.319,131.723
	C758.009,2092.072,669.209,1956.361,605.451,1857.165z M995.492,2403.244c-25.487-8.662-64.471-23.266-80.316-46.752
	c-4.91-7.282-7.727-16.761-10.929-24.914c-4.498-11.45-10.49-23.064-19.997-31.201c-12.712-10.875-49.787-17.177-55.456-31.371
	c-1.21-3.031,1.511-7.721,3.057-10.42c8.304-14.514,18.816-27.712,26.992-42.303c14.763-26.342,26.041-54.787,40.424-81.392
	c46.362-85.758,108.742-123.803,199.766-150.738c0.72-0.071,3.822,0.182,4.363,0.525c5.669,3.608,23.82,27.219,30.155,34.018
	c19.412,20.826,39.723,41.314,62.537,58.427c94.936,71.203,186.661,69.596,298.87,53.062
	c-9.219,53.529-27.773,113.159-56.468,159.307c-47.156,75.844-126.764,110.436-210.506,130.11
	C1151.293,2435.806,1069.396,2428.357,995.492,2403.244z M851.518,2959.836c7.596-160.222,45.597-322.545,142.495-453.516
	c16.947-22.91,35.968-43.753,55.402-64.551c54.765,11.172,105.135,9.696,160.437,4.226c-4.51,33.212-6.095,62.572-1.472,95.899
	c-26.493,4.667-51.791,11.684-76.593,22.203c-50.472,21.4-106.393,62.876-127.449,115.196c11.866-9.965,22.433-21.617,34.21-31.787
	c52.012-44.922,105.134-73.114,173.2-84.59c-6.853,14.798-14.183,29.355-21.992,43.673c-7.809,14.315-16.078,28.36-24.809,42.133
	c-8.731,13.776-17.903,27.249-27.517,40.42c-9.616,13.172-19.653,26.014-30.11,38.526c-8.272,10.047-16.91,19.769-25.913,29.166
	c-9.004,9.399-18.347,18.445-28.029,27.139c-9.682,8.697-19.678,17.016-29.988,24.959c-10.308,7.945-20.899,15.491-31.774,22.638
	c-29.476,19.389-61.247,36.409-87.099,60.671C883.177,2912.264,867.629,2935.658,851.518,2959.836z M1228.028,2850.614
	c-48.074,19.178-96.248,33.688-146.781,45.014c-67.694,15.173-138.58,16.879-198.07,56.023
	c46.576-60.664,77.214-69.794,135.603-110.634c88.297-61.762,160.943-155.027,206.274-252.377
	c6.028,8.39,11.546,17.226,17.235,25.853c-5.42,79.913-22.12,117.948-51.16,189.084c41.461-44.796,60.45-114.555,68.376-173.603
	c20.571,16.386,41.054,30.529,55.235,53.123c8.761,13.954,18.105,45.581,32.648,53.062c14.3,7.356,69.926-12.664,86.815-17.824
	C1375.862,2776.421,1303.379,2818.785,1228.028,2850.614z M1382.133,2709.492c-9.152,2.263-17.654,3.854-27.075,4.497
	c-7.939-20.317-16.06-39.274-30.033-56.26c-24.87-30.231-60.748-47.092-80.105-82.797c-22.184-40.92-21.355-90.413-8.102-133.906
	c88.466-21.908,163.36-56.548,217.401-132.59c5.298,15.487,5.154,33.368,10.596,49.227
	c22.353,65.133,86.997,114.827,146.605,144.089c0.749,32.572-2.772,64.615-18.743,93.617
	C1551.748,2669.702,1456.588,2687.449,1382.133,2709.492z M1471.803,2707.517c13.406-4.299,26.348-9.248,39.354-14.626
	c15.846,2.439,35.692,16.854,48.446,26.352c47.265,35.203,64.096,80.774,72.333,137.207c-17.558-4.05-32.21-2.782-49.63,0.979
	c-15.292-42.988-34.572-80.988-66.772-114.088c-3.528-3.627-7.827-8.986-12.891-9.114c17.024,44.54,39.259,87.221,57.057,131.543
	c-12.007,6.697-21.403,14.984-31.349,24.335c-13.774-9.991-25.273-19.767-34.361-34.354
	C1465.621,2810.219,1460,2758.856,1471.803,2707.517z M1405.341,3020.331c-46.835-12.609-90.918-45.005-115.436-87.003
	c30.535-34.694,67.265-53.02,113.237-57.053c42.604-4.594,78.856,10.176,112.599,34.646c-4.872,15.007-8.797,29.741-10.288,45.491
	c-46.512-10.408-93.509-17.679-140.99-21.812c43.612,29.047,89.362,37.412,140.123,45.834l2.513,0.067
	c4.837,4.498,7.359,12.104,10.115,18.054C1469.219,3019.217,1463.345,3035.946,1405.341,3020.331z M1599.652,3106.563
	c-7.913,23.342-18.97,43.34-34.656,62.371c-33.09,40.152-82.592,74.855-135.798,79.433c-6.473,0.557-11.025,0.74-16.098-3.547
	c-13.656-31.646-3.998-86.914,8.444-117.993c20.529-51.285,56.481-84.058,106.441-105.637c7.913,0.515,32.328,21.691,42.271,26.678
	c-22.648,61.5-74.436,108.159-110.676,161.321c46.57-28.823,84.526-64.608,112.894-111.636c8.105-13.432,13.63-29.998,22.453-42.61
	c1.505-2.148,2.33-1.607,4.76-1.946l2.686,2.852C1606.813,3071.558,1603.692,3091.014,1599.652,3106.563z M1610.498,3028.669
	c-18.157,1.348-36.646-3.72-51.026-15.042c-0.999-0.792-1.977-1.609-2.936-2.452c-0.956-0.841-1.891-1.706-2.804-2.596
	c-0.913-0.89-1.803-1.802-2.67-2.737c-0.866-0.935-1.709-1.891-2.529-2.868c-0.817-0.979-1.609-1.978-2.375-2.996
	c-0.768-1.018-1.509-2.055-2.222-3.112c-0.715-1.056-1.401-2.13-2.058-3.22c-0.66-1.093-1.291-2.2-1.895-3.323
	c-0.602-1.125-1.175-2.263-1.719-3.416c-0.544-1.153-1.06-2.319-1.546-3.499c-0.484-1.178-0.939-2.368-1.364-3.569
	c-0.422-1.204-0.815-2.417-1.178-3.64c-0.363-1.221-0.694-2.451-0.992-3.691c-0.301-1.24-0.569-2.486-0.803-3.739
	c-0.237-1.252-0.441-2.51-0.611-3.774c-0.173-1.263-0.313-2.53-0.419-3.8c-1.601-20.036,5.528-40.83,18.634-56.01
	c14.732-17.062,32.434-23.858,54.285-25.731c18.157-0.621,34.281,2.923,49.131,13.967c1.014,0.74,2.007,1.505,2.98,2.295
	c0.975,0.79,1.929,1.604,2.862,2.443c0.932,0.839,1.844,1.701,2.734,2.586c0.89,0.885,1.756,1.792,2.599,2.721
	c0.843,0.93,1.661,1.881,2.455,2.852c0.794,0.971,1.563,1.961,2.308,2.97c0.745,1.009,1.463,2.038,2.154,3.086
	c0.691,1.046,1.356,2.108,1.994,3.188c0.636,1.082,1.245,2.179,1.828,3.291c0.583,1.11,1.135,2.235,1.658,3.374
	c0.525,1.142,1.021,2.294,1.489,3.457c0.465,1.165,0.9,2.341,1.306,3.528c0.406,1.189,0.781,2.386,1.127,3.592
	c0.346,1.206,0.66,2.42,0.944,3.643c0.282,1.22,0.534,2.449,0.755,3.684c0.22,1.236,0.409,2.476,0.567,3.72
	c0.143,1.244,0.255,2.49,0.336,3.739c0.081,1.25,0.131,2.502,0.15,3.755c0.019,1.25,0.008,2.502-0.035,3.755
	c-0.041,1.25-0.113,2.5-0.218,3.749c-0.102,1.248-0.236,2.492-0.4,3.733c-0.166,1.242-0.362,2.479-0.586,3.71
	c-0.226,1.231-0.481,2.456-0.765,3.675c-0.286,1.221-0.602,2.433-0.948,3.636c-0.346,1.204-0.72,2.397-1.124,3.582
	c-0.403,1.186-0.836,2.361-1.297,3.524c-0.461,1.163-0.951,2.315-1.469,3.457c-0.519,1.139-1.064,2.265-1.636,3.377
	c-0.574,1.114-1.175,2.213-1.802,3.297c-0.627,1.082-1.281,2.149-1.959,3.201c-0.681,1.052-1.386,2.086-2.116,3.102
	c-0.732,1.018-1.487,2.017-2.266,2.996C1652.224,3018.42,1633.293,3026.362,1610.498,3028.669z M1745.178,3168.283
	c-9.114-1.274-18.259-2.529-27.178-4.859c-41.784-10.913-69.071-35.932-90.608-72.505c1.614-13.656,1.578-26.128,0.141-39.793
	c24.389-7.833,40.014-17.129,58.568-35.081c4.152,0.487,8.176,1.806,12.062,3.339c52.303,20.644,88.335,88.438,108.838,137.373
	C1786.62,3167.688,1767.724,3168.661,1745.178,3168.283z M1822.229,3132.043c-1.537,6.396-5.055,18.24-10.711,21.713
	c-2.087-3.031-1.738-5.848-1.741-9.376l0.013-1.63c-9.981-49.31-34.345-89.5-70.706-124.014c10.194-0.243,20.377-0.728,30.548-1.453
	c1.581-0.592,1.812-0.948,3.422-0.666c8.902,1.562,20.238,18.509,25.017,25.785
	C1813.401,3065.754,1829.051,3103.633,1822.229,3132.043z M1889.283,3058.107c-26.137-14.063-49.08-33.212-72.784-50.927
	c54.902-21.915,93.662-41.381,129.181-90.589c8.112,6.851,15.324,16.668,22.546,24.562c11.268,12.312,22.946,23.442,35.686,34.21
	c-40.145,24.124-69.5,52.39-93.53,92.688C1903.154,3065.188,1896.246,3061.558,1889.283,3058.107z M2130.971,3294.1
	c-25.522,9.065-49.313,12.055-76.228,10.263c-57.796-8.544-74.497-34.134-119.443-63.754c-14.844-9.782-32.047-16.572-48.331-23.567
	c18.029-36.115,16.483-79.247,33.932-118.205c21.86-48.814,54.624-85.268,105.013-104.619c11.761-1.194,20.407,3.403,30.135,9.456
	c-7.513,17.328-14.479,34.489-19.175,52.828c-10.119,39.509-12.814,75.956-25.225,116.892
	c46.375,23.605,93.924,40.869,138.042,69.388C2140.748,3259.48,2135.789,3275.879,2130.971,3294.1z M2450.958,3461.119
	c-37.719,55.652-99.664,77.71-163.04,89.788c-7.02-10.029-12.078-26.861-21.572-34.514c-2.41-1.943-2.971-1.124-5.861-0.746
	c-12.66,6.361-25.001,13.259-37.376,20.151c-13.262-27.779-31.691-52.729-45.136-80.463c-34.313-70.78-34.025-130.481-8.336-203.505
	c4.844,1.549,9.717,3,14.619,4.35c63.533,17.686,123.877,8.774,181.094-23.586c2.73,2.987,2.065,16.015,2.394,20.727
	c5.083,72.771,45.558,132.578,99.353,179.119C2462.57,3442.479,2457.19,3452.038,2450.958,3461.119z M2743.682,3342.773
	c-16.547,47.613-43.756,83.36-67.662,126.787c-8.938-6.825-17.427-13.502-25.26-21.598c-20.993,9.168-39.905,13.009-62.889,11.028
	c-57.896-4.99-108.284-39.46-144.499-83.376c-39.012-47.309-57.335-103.313-51.583-164.32c21.195-19.53,42.546-42.649,55.917-68.415
	c5.061-9.748,8.172-21.089,13.976-30.324c11.425-18.167,23.836-22.453,32.213-45.594c14.415,36.967,27.853,74.977,44.23,111.082
	c12.817,28.256,27.898,55.303,43.177,82.279c-13.073-55.274-31.903-108.995-49.566-162.924c9.526,3.044,18.339,4.702,28.352,3.22
	c15.65-2.321,27.146-11.29,36.246-23.759c5.282,1.144,10.54,2.387,15.775,3.729c3.09,0.785,6.159,1.648,9.206,2.59
	c3.045,0.941,6.066,1.958,9.063,3.051c2.996,1.09,5.962,2.257,8.899,3.499c2.938,1.242,5.843,2.556,8.713,3.944
	s5.704,2.845,8.502,4.373c2.798,1.53,5.556,3.13,8.275,4.799c2.717,1.669,5.39,3.404,8.019,5.205
	c2.632,1.803,5.215,3.672,7.75,5.605c2.538,1.931,5.024,3.926,7.459,5.983c2.437,2.057,4.821,4.174,7.151,6.351
	c2.328,2.177,4.601,4.411,6.818,6.703c2.22,2.292,4.378,4.637,6.476,7.036c2.1,2.401,4.138,4.852,6.114,7.353
	c1.976,2.503,3.889,5.053,5.74,7.65c1.848,2.6,3.629,5.243,5.343,7.929c1.716,2.689,3.363,5.418,4.943,8.188
	C2760.709,3223.835,2759.665,3285.499,2743.682,3342.773z M2948.938,3067.608c49.368,69.263,17.04,125.513,44.963,196.783
	c-19.922,8.933-39.525,18.517-58.811,28.752c-48.209,25.887-88.45,48.014-144.899,37.754l-17.686-4.542
	c2.078-12.199,4.037-24.402,5.173-36.73c5.262-56.977-10.292-116.783-47.165-161.042c76.049,2.779,144.403-34.268,200.031-83.684
	C2937.804,3049.314,2944.05,3060.748,2948.938,3067.608z M3011.033,2866.344c-32.158,97.061-81.257,167.502-174.385,213.954
	c-33.09,16.505-66.945,26.665-104.152,25.766c-7.212-0.173-17.021-0.5-23.615-3.393c-9.655-4.235-19.645-12.494-28.669-18.192
	c-17.344-10.951-35.437-19.13-54.874-25.583l-20.484-6.268c-3.726-17.321-9.728-30.356-20.116-44.476
	c9.94-1.425,20.647-2.593,30.065-6.191c16.864-6.444,25.715-18.208,32.936-34.105c54.147-7.327,105.858-18.573,158.724-32.12
	c-52.502-1.508-104.878,2.385-157.3,4.818c-4.158-11.937-8.701-22.382-18.919-30.558c-17.446-13.953-39.873-10.676-60.459-8.713
	c21.201-12.177,45.363-20.109,67.934-29.473c60.146-24.956,117.331-60.514,147.844-120.109
	c90.666-9.546,154.966,58.42,231.512,94.894C3015.259,2853.236,3013.245,2859.82,3011.033,2866.344z M3378.4,2584.924
	c-20.221,15.875-35.948,37.684-53.327,56.554c-22.033,23.928-45.613,47.335-69.416,69.503
	c-50.965,47.463-107.868,89.478-166.109,127.536c-23.003,15.032-47.002,28.439-69.922,43.606
	c5.061-17.853,10.106-36.246,13.147-54.553c-36.294-8.909-62.559-32.011-93.53-51.676c-19.636-12.468-39.78-23.243-60.696-33.388
	c6.783-3.217,13.854-5.996,20.753-8.966l51.692-24.674c28.122,11.204,53.222,20.142,83.661,22.261
	c51.042,3.547,118.592-9.242,158.244-43.522c-75.021,28.339-138.849,38.273-215.244,9.741c45.966-24.7,92.553-48.166,139.761-70.399
	c78.159-37.453,156.634-74.039,244.527-78.735c25.772-0.909,50.363,4.168,75.252,10.33
	C3415.748,2563.031,3395.715,2571.328,3378.4,2584.924z M3122.823,2471.351c18.948-2.209,39.367-1.55,58.459-1.245
	c89.395,1.408,178.594,18.496,256.032,65.296c-36.365-7.433-70.988-11.146-108.147-7.148
	c-112.951,12.148-263.677,97.471-366.644,149.124c1.227-5.154,2.676-10.246,4.347-15.276
	c26.092-78.114,89.478-119.812,159.842-154.759c-26.144-0.25-46.887,6.809-69.75,18.912c-7.231,4.213-14.396,8.489-21.233,13.33
	c-50.917,36.041-87.506,87.525-97.961,149.371c-30.571,14.635-61.109,30.449-92.938,42.156c-14.751-3.15-29.13-4.414-44.191-5.038
	c29.783-37.079,58.017-75.915,86.955-113.698c-31.95,23.262-61.128,54.093-85.009,85.492c-0.679-45.725-12.897-87.336-27.29-130.215
	C2882.614,2508.234,3001.216,2480.048,3122.823,2471.351z M2940.497,2410.052c-6.681,25.529-14.001,50.661-26.313,74.129
	c-52.345,15.673-99.571,36.278-148.567,60.114c-6.987-16.351-14.108-32.643-21.364-48.875c33.951-2.494,67.643-11.991,94.564-33.724
	c21.844-17.632,31.521-39.649,34.55-67.009c-7.017,15.304-13.595,30.171-25.052,42.805c-30.171,33.279-71.75,35.168-113.377,37.523
	c-10.922-22.497-24.424-43.583-34.729-66.426c15.775-4.322,31.243-8.634,46.384-14.882c8.908-4.304,17.627-8.962,26.16-13.973
	c62.111-36.377,125.337-99.193,143.513-170.844c10.557-41.608,6.181-77.999-15.766-114.741
	c12.209,61.375,11.284,97.506-21.921,153.123c-35.001,58.622-103.768,119.222-171.039,136.038
	c14.107-43.285,31.387-85.47,46.512-128.403c41.573-117.996,79.129-237.35,100.198-360.91c8.752,12.795,14.415,34.009,20.378,48.583
	c16.422,40.142,35.084,80.313,48.132,121.703C2958.18,2176.672,2970.603,2295.008,2940.497,2410.052z M3165.763,2017.746
	c-53.292,65.229-115.612,105.97-200.086,114.661c-2.99-13.944-6.578-27.594-10.452-41.317
	c-9.45-42.191-29.156-83.979-44.566-124.316c114.376-88.681,256.746-138.205,396.5-169.522c1.127,0.829,0.429,0.15,0.893,2.785
	C3259.7,1872.597,3221.293,1949.773,3165.763,2017.746z M3414.419,1672.86c32.046,7.737,91.562,28.736,108.835,59.224
	c3.031,5.355,4.667,11.607,2.433,17.571c-6.626,17.677-47.671,5.621-61.286,4.273c-102.221-10.1-332.222,63.955-427.615,109.133
	c-47.956,22.26-91.463,49.717-134.838,79.82c-10.491-23.176-20.529-46.548-30.113-70.117
	c118.393-127.001,239.741-194.846,413.959-209.43C3327.903,1658.656,3373.49,1662.978,3414.419,1672.86z M3423.085,1449.082
	c42.54,7.692,106.021,27.75,131.214,66.18c3.297,5.029,5.916,10.749,4.037,16.879c-3.028,9.866-17.782,13.326-26.64,14.427
	c-21.893,2.718-44.115,2.532-65.981,5.999c-45.562,7.228-87.973,28.775-124.959,55.581c-13.602,9.856-26.265,20.852-40.353,30.042
	c-140.376,5.295-267.851,60.735-373.939,151.138c-20.897,18.142-41.136,36.989-60.719,56.541l-0.644-1.361
	c-0.362-0.752-0.74-1.498-1.092-2.253c-1.242-2.647-2.334-5.493-3.992-7.913c-2.57-3.749-6.011-4.76-10.307-5.423
	c-18.077,4.046-38.605,48.814-52.089,65.495c32.05-97.919,89.001-205.746,159.038-281.564
	c99.353-107.551,213.649-166.324,361.407-172.201C3352.974,1439.559,3388.737,1442.872,3423.085,1449.082z M3667.683,1148.356
	c-6.303,14.162-104.772,73.914-125.628,88.607c-21.185,14.927-42.223,30.391-61.823,47.373
	c-45.802,39.675-84.522,81.222-115.977,133.333c-88.136-1.283-167.889,8.742-248.484,46.717
	c-24.428,11.326-47.201,25.855-70.041,40.03c33.256-72.003,73.392-142.216,127.609-200.653
	c105.103-113.278,242.05-172.71,395.329-178.431c20.186-0.803,41.714-0.102,61.705,2.65c11.969,1.646,29.902,3.723,37.565,13.871
	C3668.291,1144.636,3668.867,1145.683,3667.683,1148.356z"/>
</svg>
