<?xml version="1.0" encoding="utf-8"?>
<!-- Generator: Adobe Illustrator 27.5.0, SVG Export Plug-In . SVG Version: 6.00 Build 0)  -->
<svg version="1.1" xmlns="http://www.w3.org/2000/svg" xmlns:xlink="http://www.w3.org/1999/xlink" x="0px" y="0px"
	 viewBox="0 0 500 500" style="enable-background:new 0 0 500 500;" xml:space="preserve">
<g id="BACKGROUND">
	<rect style="fill:#FFFFFF;" width="500" height="500"/>
</g>
<g id="OBJECTS">
	<g>
		<g>
			<path style="fill:none;stroke:#000000;stroke-width:1.5;stroke-linecap:round;stroke-linejoin:round;stroke-miterlimit:10;" d="
				M219.892,35.621c15.446-2.537,31.224-3.712,46.803-2.189c25.492,2.494,44.394,30.196,60.626,38.891
				c8.508,4.558,18.653,5.778,28.119,3.893c9.466-1.885,18.232-6.782,25.191-13.47c-9.254,10.742-21.838,19.937-35.485,23.78
				c-13.647,3.843-28.676,3.094-41.566-2.811c-7.428-3.403-14.004-8.387-21.052-12.522c-7.047-4.135-14.932-7.496-23.094-7.118
				c-9.37,0.434-18.99,5.701-27.664,2.132c-4.429-1.822-7.707-5.72-9.994-9.927C218.548,50.345,217.855,42.065,219.892,35.621z"/>
			<path style="fill:none;stroke:#000000;stroke-width:1.5;stroke-linecap:round;stroke-linejoin:round;stroke-miterlimit:10;" d="
				M244.813,33.287c-3.949,10.599-1.306,23.355,6.53,31.512"/>
			<path style="fill:none;stroke:#000000;stroke-width:1.5;stroke-linecap:round;stroke-linejoin:round;stroke-miterlimit:10;" d="
				M265.697,64.312c-2.354-10.407,0.15-21.809,6.647-30.273"/>
			<path style="fill:none;stroke:#000000;stroke-width:1.5;stroke-linecap:round;stroke-linejoin:round;stroke-miterlimit:10;" d="
				M291,43.451c-8.161,6.85-11.23,15.627-11.08,26.281"/>
			<path style="fill:none;stroke:#000000;stroke-width:1.5;stroke-linecap:round;stroke-linejoin:round;stroke-miterlimit:10;" d="
				M292.72,77.751c2.401-8.643,7.392-16.104,15.15-20.607"/>
			<path style="fill:none;stroke:#000000;stroke-width:1.5;stroke-linecap:round;stroke-linejoin:round;stroke-miterlimit:10;" d="
				M315.837,63.845c-4.326,6.735-5.65,15.322-3.555,23.047"/>
			<path style="fill:none;stroke:#000000;stroke-width:1.5;stroke-linecap:round;stroke-linejoin:round;stroke-miterlimit:10;" d="
				M329.529,73.485c-0.718,5.251,0.171,10.71,2.517,15.462"/>
			<path style="fill:none;stroke:#000000;stroke-width:1.5;stroke-linecap:round;stroke-linejoin:round;stroke-miterlimit:10;" d="
				M347.12,76.965c0.134,2.737,1.216,5.418,3.018,7.482"/>
		</g>
		<path style="fill:none;stroke:#000000;stroke-width:1.5;stroke-linecap:round;stroke-linejoin:round;stroke-miterlimit:10;" d="
			M219.892,35.621c-15.446,3.205-29.679,11.76-39.445,24.149c-6.489,1.354-13.579,3.6-19.514,6.553
			c-5.935,2.952-11.317,7.383-14.366,13.269c-4.924,9.503-2.573,22.212,5.424,29.324c0.091-2.465,1.164-4.911,3.258-6.215
			c2.773-1.726,6.337-1.503,9.36-2.738c2.673-1.092,4.795-3.301,6.149-5.852c1.354-2.55,1.991-5.428,2.264-8.303"/>
		<path style="stroke:#000000;stroke-width:1.5;stroke-linecap:round;stroke-linejoin:round;stroke-miterlimit:10;" d="
			M149.421,91.164l6.967-8.039c0,0,1.876,2.144-0.268,6.163C153.976,93.308,149.421,91.164,149.421,91.164z"/>
		<path style="fill:none;stroke:#000000;stroke-width:1.5;stroke-linecap:round;stroke-linejoin:round;stroke-miterlimit:10;" d="
			M154.484,104.327c1.815,1.602,3.018,3.771,4.587,5.614c1.569,1.843,3.78,3.447,6.191,3.231c1.655-0.148,3.099-1.121,4.583-1.869
			c4.974-2.505,10.852-2.572,16.343-1.646c5.492,0.926,10.785,2.774,16.231,3.943c3.222,0.692,6.554,1.145,9.81,0.638
			c6.43-1.001,11.824-5.701,15.14-11.3c2.595,24.345,2.837,49.965,0.204,74.306"/>
		<g>
			<g>
				<path style="fill:none;stroke:#000000;stroke-width:1.5;stroke-linecap:round;stroke-linejoin:round;stroke-miterlimit:10;" d="
					M213.141,70.359c0,0-4.137,11.384-11.322,12.546s-14.697-8.34-14.697-8.34s4.137-11.384,11.322-12.545
					C205.628,60.858,213.141,70.359,213.141,70.359z"/>
				<g>
					<defs>
						<path id="SVGID_1_" d="M213.141,70.359c0,0-4.137,11.384-11.322,12.546s-14.697-8.34-14.697-8.34s4.137-11.384,11.322-12.545
							C205.628,60.858,213.141,70.359,213.141,70.359z"/>
					</defs>
					<clipPath id="SVGID_00000096751158656555505010000015219020136410914222_">
						<use xlink:href="#SVGID_1_"  style="overflow:visible;"/>
					</clipPath>
					
						<path style="clip-path:url(#SVGID_00000096751158656555505010000015219020136410914222_);stroke:#000000;stroke-width:1.5;stroke-linecap:round;stroke-linejoin:round;stroke-miterlimit:10;" d="
						M203.077,71.806c1.01,6.25-3.237,12.135-9.487,13.146c-6.25,1.01-12.135-3.237-13.146-9.487
						c-1.01-6.25,3.237-12.135,9.487-13.146C196.181,61.309,202.067,65.556,203.077,71.806z"/>
				</g>
				<path style="fill:#FFFFFF;" d="M205.644,71.391c0.229,1.418-0.734,2.753-2.152,2.982c-1.418,0.229-2.753-0.734-2.982-2.152
					c-0.229-1.418,0.734-2.753,2.152-2.982C204.08,69.01,205.415,69.974,205.644,71.391z"/>
			</g>
		</g>
		<path style="fill:none;stroke:#000000;stroke-width:1.5;stroke-linecap:round;stroke-linejoin:round;stroke-miterlimit:10;" d="
			M178.674,83.475c0,0,5.646-20.466,18.584-26.347c12.938-5.881,27.053,13.879,27.053,13.879s-9.41,15.055-20.23,18.584
			C193.259,93.12,178.674,83.475,178.674,83.475z"/>
		<path style="fill:none;stroke:#000000;stroke-width:1.5;stroke-linecap:round;stroke-linejoin:round;stroke-miterlimit:10;" d="
			M259.433,64.077c0,0,7.406,15.018,9.447,43.186c2.041,28.168,7.635,218.62,50.212,219.219
			c28.984,0.408,8.165-62.867,22.453-105.323c14.288-42.456,44.497-52.253,44.497-52.253s-18.779,19.595-15.513,54.295
			c3.266,34.699,27.351,104.099-16.737,147.779s-95.118,20.82-95.118,20.82"/>
		<path style="fill:none;stroke:#000000;stroke-width:1.5;stroke-linecap:round;stroke-linejoin:round;stroke-miterlimit:10;" d="
			M215.376,113.457c-0.228,11.175-0.713,22.345-1.454,33.498c-0.195,2.933-0.421,5.924-1.556,8.636
			c-1.213,2.897-3.378,5.274-5.502,7.587c-5.098,5.551-9.562,10.148-14.667,15.693"/>
		<g>
			<g>
				<path style="fill:none;stroke:#000000;stroke-width:1.5;stroke-linecap:round;stroke-linejoin:round;stroke-miterlimit:10;" d="
					M241.944,216.181c-18.544-2.685-34.888-14.742-45.622-30.1c-10.734-15.358-15.84-33.43-18.82-51.929
					c-49.782,1.512-99.733-2.585-148.604-12.187c0,0,32.637,13.567,74.329,18.778s67.75,1.303,67.75,1.303
					s4.343,21.28,19.543,46.469c15.2,25.189,51.246,32.137,51.246,32.137"/>
				<path style="fill:none;stroke:#000000;stroke-width:1.5;stroke-linecap:round;stroke-linejoin:round;stroke-miterlimit:10;" d="
					M35.926,123.04c-3.521-4.915-4.903-11.309-3.727-17.24c1.176-5.931,4.894-11.313,10.025-14.512
					c-3.372,6.043-4.483,13.408-2.583,20.061s6.913,12.448,13.398,14.86"/>
				<path style="fill:none;stroke:#000000;stroke-width:1.5;stroke-linecap:round;stroke-linejoin:round;stroke-miterlimit:10;" d="
					M56.236,126.237c-3.521-4.915-4.903-11.309-3.727-17.239c1.176-5.931,4.894-11.313,10.024-14.512
					c-3.372,6.043-4.482,13.407-2.583,20.061c1.899,6.654,6.913,12.448,13.398,14.86"/>
				<path style="fill:none;stroke:#000000;stroke-width:1.5;stroke-linecap:round;stroke-linejoin:round;stroke-miterlimit:10;" d="
					M28.899,121.965c0,0,20.734,16.884,22.324,44.451s-4.771,38.17-4.771,38.17s23.856,3.711,36.049,28.097
					c12.193,24.386,0.53,50.363,0.53,50.363s21.205,7.422,28.628,20.145c7.422,12.723,4.771,39.23,4.771,39.23
					c6.826-22.347,20.885-38.425,34.162-57.652c10.828-15.681,23.844-30.174,39.988-40.299
					c16.144-10.125,35.679-15.611,54.502-12.638"/>
				
					<line style="fill:none;stroke:#000000;stroke-width:1.5;stroke-linecap:round;stroke-linejoin:round;stroke-miterlimit:10;" x1="46.452" y1="204.586" x2="186.093" y2="181.159"/>
				<path style="fill:none;stroke:#000000;stroke-width:1.5;stroke-linecap:round;stroke-linejoin:round;stroke-miterlimit:10;" d="
					M83.032,283.047c0,0,85.352-75.81,157.451-57.785"/>
				<path style="fill:none;stroke:#000000;stroke-width:1.5;stroke-linecap:round;stroke-linejoin:round;stroke-miterlimit:10;" d="
					M83.961,137.541c1.956,0.95,3.395,2.693,4.683,4.446c11.054,15.045,15.361,34.862,11.549,53.138
					c18.711,11.247,29.524,33.559,27.723,55.315c4.934-0.395,9.152,2.638,12.773,6.013c6.88,6.412,11.08,15.614,11.42,25.012"/>
				<path style="fill:none;stroke:#000000;stroke-width:1.5;stroke-linecap:round;stroke-linejoin:round;stroke-miterlimit:10;" d="
					M126.976,142.425c5.34,6.251,8.324,14.273,9.477,22.413c1.153,8.14,0.566,16.434-0.595,24.573
					c14.437,10.239,22.76,27.995,22.557,45.694c8.688,3.225,14.883,12.382,15.767,21.606"/>
				<path style="fill:none;stroke:#000000;stroke-width:1.5;stroke-linecap:round;stroke-linejoin:round;stroke-miterlimit:10;" d="
					M154.215,142.851c11.148,10.192,17.036,25.857,15.363,40.868c12.909,9.199,16.971,26.17,18,41.988
					c6.767,0.762,14.081,5.727,14.447,12.527"/>
			</g>
			<g>
				<path style="fill:none;stroke:#000000;stroke-width:1.5;stroke-linecap:round;stroke-linejoin:round;stroke-miterlimit:10;" d="
					M276.818,210.769c11.28-5.494,21.057-14.341,28.287-24.687c10.734-15.358,15.84-33.43,18.82-51.929
					c49.782,1.512,99.733-2.585,148.604-12.187c0,0-32.637,13.567-74.329,18.778s-67.75,1.303-67.75,1.303
					s-4.343,21.28-19.543,46.469c-8.157,13.517-22.316,21.781-33.687,26.538"/>
				<path style="fill:none;stroke:#000000;stroke-width:1.5;stroke-linecap:round;stroke-linejoin:round;stroke-miterlimit:10;" d="
					M465.502,123.04c3.521-4.915,4.904-11.309,3.727-17.24c-1.176-5.931-4.894-11.313-10.025-14.512
					c3.372,6.043,4.483,13.408,2.583,20.061s-6.913,12.448-13.398,14.86"/>
				<path style="fill:none;stroke:#000000;stroke-width:1.5;stroke-linecap:round;stroke-linejoin:round;stroke-miterlimit:10;" d="
					M445.192,126.237c3.521-4.915,4.904-11.309,3.727-17.239c-1.176-5.931-4.894-11.313-10.024-14.512
					c3.372,6.043,4.483,13.407,2.583,20.061c-1.899,6.654-6.913,12.448-13.398,14.86"/>
				<path style="fill:none;stroke:#000000;stroke-width:1.5;stroke-linecap:round;stroke-linejoin:round;stroke-miterlimit:10;" d="
					M335.509,265.376c-7.326-7.99-15.488-15.152-24.661-20.905c-9.607-6.026-20.416-10.408-31.561-12.343"/>
				<path style="fill:none;stroke:#000000;stroke-width:1.5;stroke-linecap:round;stroke-linejoin:round;stroke-miterlimit:10;" d="
					M472.529,121.965c0,0-20.734,16.884-22.324,44.451c-1.59,27.567,4.771,38.17,4.771,38.17s-23.856,3.711-36.049,28.097
					s-0.53,50.363-0.53,50.363s-21.205,7.422-28.627,20.145c-7.422,12.723-4.771,39.23-4.771,39.23
					c-1.865-6.105-4.27-11.742-7.051-17.103"/>
				
					<line style="fill:none;stroke:#000000;stroke-width:1.5;stroke-linecap:round;stroke-linejoin:round;stroke-miterlimit:10;" x1="359.408" y1="188.553" x2="315.335" y2="181.159"/>
				
					<line style="fill:none;stroke:#000000;stroke-width:1.5;stroke-linecap:round;stroke-linejoin:round;stroke-miterlimit:10;" x1="454.976" y1="204.586" x2="374.036" y2="191.007"/>
				<path style="fill:none;stroke:#000000;stroke-width:1.5;stroke-linecap:round;stroke-linejoin:round;stroke-miterlimit:10;" d="
					M338.05,233.842c-18.883-7.409-39.379-12.294-59.478-11.198"/>
				<path style="fill:none;stroke:#000000;stroke-width:1.5;stroke-linecap:round;stroke-linejoin:round;stroke-miterlimit:10;" d="
					M418.396,283.047c0,0-17.473-15.52-43.286-30.845"/>
				<path style="fill:none;stroke:#000000;stroke-width:1.5;stroke-linecap:round;stroke-linejoin:round;stroke-miterlimit:10;" d="
					M417.467,137.541c-1.956,0.95-3.395,2.693-4.683,4.446c-11.054,15.045-15.361,34.862-11.549,53.138
					c-16.313,9.805-26.807,28.371-27.989,47.296"/>
				<path style="fill:none;stroke:#000000;stroke-width:1.5;stroke-linecap:round;stroke-linejoin:round;stroke-miterlimit:10;" d="
					M337.713,237.674c-5.478,4.366-9.802,12.096-10.467,19.036"/>
				<path style="fill:none;stroke:#000000;stroke-width:1.5;stroke-linecap:round;stroke-linejoin:round;stroke-miterlimit:10;" d="
					M374.452,142.425c-5.34,6.251-8.324,14.273-9.477,22.413c-0.852,6.016-0.754,12.117-0.176,18.176"/>
				<path style="fill:none;stroke:#000000;stroke-width:1.5;stroke-linecap:round;stroke-linejoin:round;stroke-miterlimit:10;" d="
					M347.213,142.851c-11.148,10.192-17.036,25.857-15.363,40.868c-12.909,9.199-16.971,26.17-18,41.988
					c-6.767,0.762-14.081,5.727-14.447,12.527"/>
			</g>
		</g>
		<g>
			<g>
				<path style="fill:none;stroke:#000000;stroke-width:1.5;stroke-linecap:round;stroke-linejoin:round;stroke-miterlimit:10;" d="
					M216.329,454.801c-7.869,1.579-16.029,1.594-23.771,3.709c-7.742,2.116-15.225,6.863-17.63,14.52c0,0,5.921-3.88,18.127-6.103
					c12.206-2.223,51.779-0.309,56.317-3.369c4.538-3.061,10.4-25.833,14.103-39.009c3.703-13.176-8.958-22.091-4.802-32.751
					c5.405-13.862,24.214-18.41,38.952-20.448"/>
				<path style="fill:none;stroke:#000000;stroke-width:1.5;stroke-linecap:round;stroke-linejoin:round;stroke-miterlimit:10;" d="
					M188.813,459.733c-3.246,0.262-10.553,2.399-13.677,3.321c-3.123,0.922-6.214,2.17-8.627,4.356
					c0.278-9.057,10.805-13.291,14.97-14.218c4.165-0.926,40.403-5.063,44.5-6.472c1.812-0.623,8.607-1.994,8.122-9.496
					c-0.35-5.4-4.311-16.855-6.652-21.734c-4.597-9.584-40.252-23.515-36.878-65.422c1.125-13.975,10.799-27.321,23.834-32.485
					c13.035-5.164,28.911-2.206,39.212,7.306"/>
				<path style="fill:none;stroke:#000000;stroke-width:1.5;stroke-linecap:round;stroke-linejoin:round;stroke-miterlimit:10;" d="
					M179,462.318c-0.823-3.218-2.854-4.202-5.809-5.719"/>
				<path style="fill:none;stroke:#000000;stroke-width:1.5;stroke-linecap:round;stroke-linejoin:round;stroke-miterlimit:10;" d="
					M188.135,467.862c-0.322-2.301-1.771-4.417-3.799-5.55"/>
			</g>
			<g>
				<path style="fill:none;stroke:#000000;stroke-width:1.5;stroke-linecap:round;stroke-linejoin:round;stroke-miterlimit:10;" d="
					M305.351,450.768c-6.222,5.07-13.431,8.892-19.29,14.377c-5.859,5.485-10.261,13.177-8.813,21.071
					c0,0,3.425-6.195,13.182-13.859c9.757-7.664,45.647-24.444,48.232-29.269c2.584-4.825-2.862-27.701-5.737-41.081
					c-1.068-4.968-3.856-8.363-7.007-11.251"/>
				<path style="fill:none;stroke:#000000;stroke-width:1.5;stroke-linecap:round;stroke-linejoin:round;stroke-miterlimit:10;" d="
					M283.32,467.974c-2.748,1.747-8.213,7.048-10.545,9.322s-4.482,4.82-5.596,7.879c-3.982-8.139,3.351-16.798,6.602-19.561
					c3.251-2.763,33.368-23.338,36.333-26.496c1.311-1.397,6.681-5.781,2.75-12.189c-2.83-4.613-11.681-12.893-16.028-16.115
					c-5.337-3.956-22.196-3.751-38.137-12.473"/>
				<path style="fill:none;stroke:#000000;stroke-width:1.5;stroke-linecap:round;stroke-linejoin:round;stroke-miterlimit:10;" d="
					M275.848,474.841c-2.23-2.462-4.485-2.383-7.807-2.346"/>
				<path style="fill:none;stroke:#000000;stroke-width:1.5;stroke-linecap:round;stroke-linejoin:round;stroke-miterlimit:10;" d="
					M286.514,475.479c-1.359-1.884-3.628-3.08-5.951-3.135"/>
			</g>
		</g>
		<g>
			<path style="fill:none;stroke:#000000;stroke-width:1.5;stroke-linecap:round;stroke-linejoin:round;stroke-miterlimit:10;" d="
				M236.029,177.998c-6.436-1.682-13.526-0.701-19.264,2.664c-5.739,3.365-10.055,9.074-11.73,15.512"/>
			<path style="fill:none;stroke:#000000;stroke-width:1.5;stroke-linecap:round;stroke-linejoin:round;stroke-miterlimit:10;" d="
				M200.96,239.195c-1.502,9.034-1.892,17.383-1.055,26.503"/>
			<path style="fill:none;stroke:#000000;stroke-width:1.5;stroke-linecap:round;stroke-linejoin:round;stroke-miterlimit:10;" d="
				M206.176,258.637c-14.829,16.405-29.682,32.835-45.88,47.89c-2.665,2.477-5.39,4.943-7.468,7.93
				c-2.077,2.984-3.442,6.393-4.887,9.73c-3.777,8.723-8.21,17.162-13.249,25.221c-1.043,1.667-2.138,3.388-2.401,5.337
				c-0.254,1.88,0.295,3.766,0.841,5.583c1.888,6.279,3.815,12.547,5.781,18.803c3.817-8.966,0.477-20.181,5.731-28.387"/>
			<path style="fill:none;stroke:#000000;stroke-width:1.5;stroke-linecap:round;stroke-linejoin:round;stroke-miterlimit:10;" d="
				M159.271,315.986c-4.354,10.261-8.709,20.522-13.063,30.782c-0.714,1.683-1.44,3.414-1.506,5.241
				c-0.067,1.863,0.556,3.674,1.171,5.434c1.18,3.375,2.36,6.75,3.54,10.126c1.884-4.215,3.344-8.62,4.35-13.126
				c0.962-4.311,6.312-13.628,8.591-17.412c2.415-4.01,14.107-11.977,16.012-13.392c19.277-14.318,35.166-24.053,54.443-38.371
				c0.975-0.725,1.97-1.469,2.651-2.475c0.939-1.389,1.179-3.119,1.404-4.78c1.752-12.905,4.13-25.726,7.12-38.402"/>
			<path style="fill:none;stroke:#000000;stroke-width:1.5;stroke-linecap:round;stroke-linejoin:round;stroke-miterlimit:10;" d="
				M157.384,309.018c-2.373,0.956-6.819,4.695-9.192,5.652c-0.479,0.193-0.967,0.391-1.364,0.721
				c-0.557,0.463-0.883,1.14-1.194,1.793c-5.778,12.136-12.218,23.956-19.283,35.391c-1.43,2.314-2.926,4.731-3.139,7.443
				c-0.144,1.835,0.317,3.662,0.848,5.424c1.294,4.293,3.03,8.453,5.172,12.393c1.182-5.891,1.989-13.971,3.171-19.862"/>
			<path style="fill:none;stroke:#000000;stroke-width:1.5;stroke-linecap:round;stroke-linejoin:round;stroke-miterlimit:10;" d="
				M124.343,365.33c2.1-1.334,4.924-1.438,7.116-0.261"/>
			<path style="fill:none;stroke:#000000;stroke-width:1.5;stroke-linecap:round;stroke-linejoin:round;stroke-miterlimit:10;" d="
				M134.942,366.063c1.749-0.998,3.877-1.311,5.839-0.858"/>
			<path style="fill:none;stroke:#000000;stroke-width:1.5;stroke-linecap:round;stroke-linejoin:round;stroke-miterlimit:10;" d="
				M145.648,356.129c2.412-1.18,5.376-1.161,7.773,0.049"/>
		</g>
		<path style="fill:none;stroke:#000000;stroke-width:1.5;stroke-linecap:round;stroke-linejoin:round;stroke-miterlimit:10;" d="
			M178.515,252.684c-1.118,9.908,1.624,20.201,7.522,28.24"/>
		<path style="fill:none;stroke:#000000;stroke-width:1.5;stroke-linecap:round;stroke-linejoin:round;stroke-miterlimit:10;" d="
			M195.003,311.564c1.017,7.02,1.497,14.118,1.434,21.211"/>
		<path style="fill:none;stroke:#000000;stroke-width:1.5;stroke-linecap:round;stroke-linejoin:round;stroke-miterlimit:10;" d="
			M205.687,304.605c0.296,5.903,0.429,11.814,0.397,17.725"/>
		<path style="fill:none;stroke:#000000;stroke-width:1.5;stroke-linecap:round;stroke-linejoin:round;stroke-miterlimit:10;" d="
			M283.276,71.654c14.633,13.618,23.986,32.771,25.726,52.685c-7.911-6.008-15.988-11.798-24.217-17.362
			c9.815,11.981,15.403,27.357,15.572,42.844c-4.69-4.611-9.794-8.801-15.232-12.501c7.428,11.025,11.583,24.228,11.807,37.52
			c-4.076-3.159-8.518-5.845-13.209-7.987c3.092,7.753,4.456,16.19,3.965,24.523c-2.983-1.867-5.967-3.733-8.95-5.6
			c1.845,4.571,2.961,9.435,3.295,14.353c-2.586-1.092-4.965-2.674-6.972-4.637"/>
		<path style="fill:none;stroke:#000000;stroke-width:1.5;stroke-linecap:round;stroke-linejoin:round;stroke-miterlimit:10;" d="
			M386.042,168.906c-16.785,12.638-25.923,34.345-27.732,55.278s1.66,41.908,3.355,62.851c1.695,20.943,1.461,42.783-7.195,61.928
			c-7.729,17.097-22.128,31.072-39.448,38.287c-17.32,7.216-37.382,7.597-54.964,1.045"/>
		<g>
			<path style="fill:none;stroke:#000000;stroke-width:1.5;stroke-linecap:round;stroke-linejoin:round;stroke-miterlimit:10;" d="
				M234.344,90.565c1.301,3.649,2.893,7.639,6.362,9.364c0.702,0.349,1.533,0.588,2.264,0.304c0.766-0.298,1.217-1.085,1.534-1.843
				c0.778-1.863,1.116-3.909,0.979-5.924c0.912,1.931,2.327,3.622,4.067,4.86c0.483,0.343,1.069,0.665,1.639,0.506
				c0.585-0.163,0.92-0.769,1.128-1.339c0.493-1.356,0.622-2.842,0.372-4.263c1.08,1.588,2.76,2.756,4.625,3.215"/>
			<path style="fill:none;stroke:#000000;stroke-width:1.5;stroke-linecap:round;stroke-linejoin:round;stroke-miterlimit:10;" d="
				M244.268,113.307c0.517,1.776,1.321,3.469,2.37,4.993c0.47,0.682,1.011,1.35,1.748,1.729c0.737,0.379,1.711,0.401,2.335-0.143
				c0.505-0.441,0.684-1.14,0.813-1.798c0.252-1.29,0.413-2.597,0.482-3.91c0.827,2.202,2.726,3.972,4.98,4.642"/>
			<path style="fill:none;stroke:#000000;stroke-width:1.5;stroke-linecap:round;stroke-linejoin:round;stroke-miterlimit:10;" d="
				M241.044,134.223c0.474,1.577,0.979,3.211,2.086,4.429c1.108,1.218,3.004,1.887,4.445,1.09c1.623-0.898,1.925-3.077,1.903-4.932
				c0.639,1.41,1.325,2.88,2.559,3.815c1.234,0.935,3.193,1.109,4.223-0.047"/>
			<path style="fill:none;stroke:#000000;stroke-width:1.5;stroke-linecap:round;stroke-linejoin:round;stroke-miterlimit:10;" d="
				M235.557,192.661c0.576,1.972,1.73,3.771,3.283,5.116c0.8,0.693,1.766,1.288,2.825,1.298c1.417,0.013,2.665-1.054,3.295-2.324
				c0.629-1.27,0.763-2.72,0.886-4.132c1.071,2.848,3.672,5.067,6.653,5.677"/>
			<path style="fill:none;stroke:#000000;stroke-width:1.5;stroke-linecap:round;stroke-linejoin:round;stroke-miterlimit:10;" d="
				M215.035,342.992c-0.592,1.755-0.943,3.591-1.039,5.44c-0.072,1.383,0.092,2.965,1.195,3.803c1.185,0.902,2.985,0.478,4.072-0.54
				c1.087-1.018,1.633-2.471,2.144-3.87c-0.254,1.815-0.155,3.804,0.938,5.275c1.092,1.472,3.435,2.095,4.809,0.883"/>
			<path style="fill:none;stroke:#000000;stroke-width:1.5;stroke-linecap:round;stroke-linejoin:round;stroke-miterlimit:10;" d="
				M224.568,361.135c0.055,1.555,0.406,3.1,1.029,4.526c0.279,0.64,0.635,1.281,1.214,1.672c1.161,0.783,2.833,0.242,3.754-0.813
				c0.92-1.055,1.275-2.474,1.601-3.836c0.062,1.668,0.345,3.424,1.412,4.707c1.067,1.283,3.13,1.856,4.448,0.833"/>
			<path style="fill:none;stroke:#000000;stroke-width:1.5;stroke-linecap:round;stroke-linejoin:round;stroke-miterlimit:10;" d="
				M204.88,356.898c0.171,1.826-0.179,3.714,0.338,5.473c0.518,1.759,2.451,3.336,4.107,2.551c1.316-0.624,1.675-2.297,1.873-3.74
				c-0.006,2.857,2.362,5.525,5.2,5.858"/>
			<path style="fill:none;stroke:#000000;stroke-width:1.5;stroke-linecap:round;stroke-linejoin:round;stroke-miterlimit:10;" d="
				M290.335,346.596c1.844,2.032,3.84,4.124,6.463,4.93c0.548,0.168,1.137,0.276,1.694,0.14c1.443-0.353,2.025-2.122,1.967-3.606
				c-0.058-1.484-0.495-3.004-0.065-4.426c0.845,1.812,2.505,3.225,4.43,3.768c0.697,0.197,1.467,0.278,2.127-0.018
				c0.939-0.42,1.423-1.52,1.421-2.549c-0.002-1.029-0.396-2.012-0.783-2.965c1.686,1.786,4.66,2.177,6.75,0.887"/>
			<path style="fill:none;stroke:#000000;stroke-width:1.5;stroke-linecap:round;stroke-linejoin:round;stroke-miterlimit:10;" d="
				M254.386,262.887c0.623,1.393,1.271,2.823,2.365,3.887c1.094,1.065,2.753,1.693,4.18,1.151c1.01-0.384,1.749-1.291,2.174-2.284
				c0.425-0.993,0.576-2.078,0.723-3.148c0.699,1.383,1.732,2.597,2.986,3.508c0.469,0.341,0.981,0.645,1.549,0.763
				c1.463,0.305,2.939-0.73,3.637-2.052c0.697-1.321,0.794-2.866,0.877-4.358"/>
			<path style="fill:none;stroke:#000000;stroke-width:1.5;stroke-linecap:round;stroke-linejoin:round;stroke-miterlimit:10;" d="
				M248.531,293.186c0.648,1.431,1.572,2.736,2.706,3.822c1.258,1.206,3.026,2.18,4.691,1.669c1.172-0.36,2.035-1.404,2.483-2.546
				c0.449-1.142,0.545-2.386,0.637-3.609c1.219,2.171,2.826,4.457,5.265,4.959c0.735,0.151,1.529,0.116,2.195-0.228
				c0.567-0.293,1.003-0.787,1.378-1.304c0.97-1.339,1.613-2.914,1.857-4.55"/>
			<path style="fill:none;stroke:#000000;stroke-width:1.5;stroke-linecap:round;stroke-linejoin:round;stroke-miterlimit:10;" d="
				M260.782,283.294c0.61,1.562,1.337,3.141,2.587,4.26c1.249,1.119,3.145,1.67,4.646,0.923c1.65-0.822,2.276-2.814,2.74-4.599
				c0.447,1.972,2.286,3.543,4.303,3.676c2.018,0.133,4.047-1.183,4.748-3.08"/>
		</g>
	</g>
	<g>
		<g>
			<path style="fill:none;stroke:#000000;stroke-width:1.5;stroke-miterlimit:10;" d="M118.053,58.976h-0.004
				c0-6.361-5.157-11.518-11.518-11.518v-0.004c6.361,0,11.518-5.157,11.518-11.518h0.004c0,6.361,5.157,11.518,11.518,11.518v0.004
				C123.21,47.458,118.053,52.615,118.053,58.976z"/>
			<g>
				
					<line style="fill:none;stroke:#000000;stroke-width:1.5;stroke-miterlimit:10;" x1="85.125" y1="86.334" x2="111.935" y2="86.334"/>
				
					<line style="fill:none;stroke:#000000;stroke-width:1.5;stroke-miterlimit:10;" x1="98.53" y1="72.929" x2="98.53" y2="99.739"/>
				
					<line style="fill:none;stroke:#000000;stroke-width:1.5;stroke-miterlimit:10;" x1="89.051" y1="76.855" x2="108.009" y2="95.813"/>
				
					<line style="fill:none;stroke:#000000;stroke-width:1.5;stroke-miterlimit:10;" x1="108.009" y1="76.855" x2="89.051" y2="95.813"/>
			</g>
			<polygon style="fill:none;stroke:#000000;stroke-width:1.5;stroke-miterlimit:10;" points="67.602,44.196 70.63,50.332 
				77.401,51.316 72.501,56.092 73.658,62.836 67.602,59.652 61.545,62.836 62.702,56.092 57.802,51.316 64.573,50.332 			"/>
		</g>
		<g>
			<path style="fill:none;stroke:#000000;stroke-width:1.5;stroke-miterlimit:10;" d="M434.325,364.923h-0.005
				c0-7.577-6.143-13.72-13.72-13.72v-0.005c7.577,0,13.72-6.143,13.72-13.72h0.005c0,7.577,6.143,13.72,13.72,13.72v0.005
				C440.467,351.203,434.325,357.345,434.325,364.923z"/>
			<g>
				
					<line style="fill:none;stroke:#000000;stroke-width:1.5;stroke-miterlimit:10;" x1="430.319" y1="410.879" x2="462.255" y2="410.879"/>
				
					<line style="fill:none;stroke:#000000;stroke-width:1.5;stroke-miterlimit:10;" x1="446.288" y1="394.91" x2="446.288" y2="426.847"/>
				
					<line style="fill:none;stroke:#000000;stroke-width:1.5;stroke-miterlimit:10;" x1="434.996" y1="399.587" x2="457.579" y2="422.17"/>
				
					<line style="fill:none;stroke:#000000;stroke-width:1.5;stroke-miterlimit:10;" x1="457.579" y1="399.587" x2="434.996" y2="422.17"/>
			</g>
			<polygon style="fill:none;stroke:#000000;stroke-width:1.5;stroke-miterlimit:10;" points="387.854,393.739 391.462,401.048 
				399.528,402.22 393.691,407.91 395.069,415.943 387.854,412.15 380.64,415.943 382.018,407.91 376.181,402.22 384.247,401.048 
							"/>
		</g>
	</g>
	<g>
		<path style="fill:none;stroke:#000000;stroke-width:1.5;stroke-miterlimit:10;" d="M167.783,437.859H44.07
			c-0.61-7.474,2.38-16.673,8.601-20.859c6.221-4.186,16.267-2.457,19.167,4.458c1.904-6.235,4.19-12.506,8.279-17.583
			c4.089-5.077,10.301-8.835,16.811-8.488c6.87,0.365,12.863,5.219,16.433,11.101c3.57,5.881,5.134,12.727,6.645,19.439
			c1.092-5.724,6.387-10.366,12.204-10.698c5.817-0.333,11.607,3.675,13.344,9.237c1.093-5.824,9.504-7.63,14.342-4.208
			C164.734,423.679,167.395,431.946,167.783,437.859z"/>
		<path style="fill:none;stroke:#000000;stroke-width:1.5;stroke-miterlimit:10;" d="M469.806,76.472h-72.142
			c1.032-5.678,1.479-11.185,6.764-13.504c5.285-2.319,12.388-0.58,15.056,4.538c1.142-6.24,2.329-12.609,5.434-18.141
			c3.105-5.532,8.532-10.171,14.86-10.602c7.621-0.519,14.361,5.008,18.92,11.137C464.061,57.106,468.362,67.606,469.806,76.472z"/>
	</g>
</g>

    <text x="10" y="832" font-size="12" fill="gray" opacity="0.6" font-family="Arial, sans-serif">
      twoja-kolorowanka.pl
    </text>
  
</svg>
