<?xml version="1.0" encoding="utf-8"?>
<!-- Generator: Adobe Illustrator 27.5.0, SVG Export Plug-In . SVG Version: 6.00 Build 0)  -->
<svg xmlns="http://www.w3.org/2000/svg" xmlns:xlink="http://www.w3.org/1999/xlink" viewBox="0 0 4000 2000" width="595" height="842" preserveAspectRatio="xMidYMid meet" data-scaled="true">
<g>
	<path style="fill:none;stroke:#000000;stroke-width:10;stroke-linecap:round;stroke-linejoin:round;stroke-miterlimit:10;" d="
		M510.047,1191.994c-71.421,27.115-91.598,92.43-85.744,96.142c5.851,3.706,24.86-16.936,24.86-16.936s-10.267,36.521,0.034,36.989
		c13.738,0.627,29.751-41.248,83.515-35.57"/>
	<path style="fill:none;stroke:#000000;stroke-width:10;stroke-linecap:round;stroke-linejoin:round;stroke-miterlimit:10;" d="
		M482.178,1284.055c0,0-3.458,24.333-11.637,27.687c-5.635,2.312-10.257-9.44-8.681-10.874"/>
	<path style="fill:none;stroke:#000000;stroke-width:10;stroke-linecap:round;stroke-linejoin:round;stroke-miterlimit:10;" d="
		M812.024,1223.953c0,0-10.51,38.806-63.611,62.04c-40.469,17.707-66.616,24.895-79.779,39.254
		c-16.142,17.618-25.131,26.238-31.009,22.961c-5.867-3.276-7.099-23.547,2.111-46.352c0,0-20.721,30.021-25.014,39.289
		c-4.292,9.266-7.899-24.872,5.268-49.654c0,0-22.572,23.48-23.023,33.362c-0.331,7.293-6.486-32.535,23.028-71.208
		c39.333-51.546,88.326-50.691,109.267-76.15"/>
	<path style="fill:none;stroke:#000000;stroke-width:10;stroke-linecap:round;stroke-linejoin:round;stroke-miterlimit:10;" d="
		M659.515,816.163C216.644,965.721-24.892,704.924,60.852,473.418c62.317-168.254,414.488-189.125,529.691-164.101
		c126.709,27.524,248.226,111.651,272.118,290.813c25,187.47,12.461,276.27,209.796,405.056
		c197.335,128.787,379.326,158.757,527.613-29.078c31.159-39.468,92.441-91.401,106.979,1.038
		c14.541,92.437-2.022,453.325-447.586,577.957"/>
	<path style="fill:none;stroke:#000000;stroke-width:10;stroke-linecap:round;stroke-linejoin:round;stroke-miterlimit:10;" d="
		M482.178,856.431c34.103,67.745,26.314,153.431,26.314,245.348s21.811,458.025,464.259,464.26"/>
	<path style="fill:none;stroke:#000000;stroke-width:10;stroke-linecap:round;stroke-linejoin:round;stroke-miterlimit:10;" d="
		M925.948,1371.239c-65.381-25.344-114.997-59.644-152.861-98.959"/>
	<path style="fill:none;stroke:#000000;stroke-width:10;stroke-linecap:round;stroke-linejoin:round;stroke-miterlimit:10;" d="
		M630.914,825.331c19.82,64.75,6.153,226.949,82.239,365.189"/>
	<path style="fill:none;stroke:#000000;stroke-width:10;stroke-linecap:round;stroke-linejoin:round;stroke-miterlimit:10;" d="
		M951.983,1298.049c-68.813,121.546,6.233,222.288,31.159,280.451c24.927,58.161-15.066,81.013-37.655,94.254
		c-22.589,13.243-57.642,38.948-56.865,131.646c0,0,193.962,21.811,285.879-4.673c82.161-23.675,100.485-124.634,92.695-191.626
		c-7.79-66.988-24.148-103.6,13.243-119.959s51.41-28.042,66.99-52.189"/>
	<path style="fill:none;stroke:#000000;stroke-width:10;stroke-linecap:round;stroke-linejoin:round;stroke-miterlimit:10;" d="
		M896.254,1737.804c29.759-31.553,74.792-16.597,65.519,72.517"/>
	<path style="fill:none;stroke:#000000;stroke-width:10;stroke-linecap:round;stroke-linejoin:round;stroke-miterlimit:10;" d="
		M962.586,1776.174c8.606-74.598,96.628-71.736,78.712,36.667"/>
	<path style="fill:none;stroke:#000000;stroke-width:10;stroke-linecap:round;stroke-linejoin:round;stroke-miterlimit:10;" d="
		M727.464,1511.347c1.213,37.037,32.898,72.284,28.218,112.854c-6.23,54.005-75.817,64.396-96.589,110.091
		c-20.774,45.7-8.311,70.63-8.311,70.63s138.156,9.346,237.853-7.271"/>
	<path style="fill:none;stroke:#000000;stroke-width:10;stroke-linecap:round;stroke-linejoin:round;stroke-miterlimit:10;" d="
		M660.751,1730.97c21.606-25.808,72.042-17.769,56.483,76.387"/>
	<path style="fill:none;stroke:#000000;stroke-width:10;stroke-linecap:round;stroke-linejoin:round;stroke-miterlimit:10;" d="
		M719.616,1762.823c29.836-64.881,88.125-34.541,72.483,43.766"/>
	<path style="fill:none;stroke:#000000;stroke-width:10;stroke-linecap:round;stroke-linejoin:round;stroke-miterlimit:10;" d="
		M1292.488,1482.633c139.327-36.033,375.313-163.864,417.266-478.006"/>
	<path style="fill:none;stroke:#000000;stroke-width:10;stroke-linecap:round;stroke-linejoin:round;stroke-miterlimit:10;" d="
		M73.485,687.47c15.927-37.487,54.874-7.887,76.686,13.924c21.811,21.81,87.243-98.149,113.728-98.149
		c26.484,0,63.232,107.617,88.801,100.798c30.38-8.103,56.085-82.104,74.779-82.104c23.421,0,16.748,71.664,65.433,65.433"/>
	<path style="fill:none;stroke:#000000;stroke-width:10;stroke-linecap:round;stroke-linejoin:round;stroke-miterlimit:10;" d="
		M234.67,488.719c-8.752,10.629-19.975,15.846-25.064,11.653c-5.093-4.193-2.126-16.207,6.625-26.835
		c8.751-10.628,19.97-15.845,25.063-11.652C246.384,466.078,243.421,478.092,234.67,488.719z"/>
	<path style="stroke:#000000;stroke-width:10;stroke-linecap:round;stroke-linejoin:round;stroke-miterlimit:10;" d="
		M638.318,511.846c0,31.55-23.947,57.125-53.489,57.125c-29.54,0-53.487-25.575-53.487-57.125c0-31.549,23.947-57.124,53.487-57.124
		C614.372,454.722,638.318,480.297,638.318,511.846z"/>
	<path style="fill:#FFFFFF;stroke:#000000;stroke-width:10;stroke-linecap:round;stroke-linejoin:round;stroke-miterlimit:10;" d="
		M576.602,496.488c0,8.481-6.877,15.358-15.361,15.358c-8.483,0-15.359-6.876-15.359-15.358c0-8.482,6.876-15.359,15.359-15.359
		C569.725,481.128,576.602,488.006,576.602,496.488z"/>
	<path style="fill:none;stroke:#000000;stroke-width:10;stroke-linecap:round;stroke-linejoin:round;stroke-miterlimit:10;" d="
		M338.054,312.835c13.608-41.947,53.112-55.979,78.022-9.496c25.946-77.11,87.224-81.58,115.267-1.449
		c40.505-70.468,115.16-58.688,111.069,22.146c46.801-53.147,110.619-26.967,88.576,45.628c54.815-32.304,103.936,0.426,68.99,67.67
		c51.259-12.73,89.661,20.884,44.495,85.089c72.197-3.305,93.343,55.722,22.012,107.739c63.687-6.145,79.833,72.698,13.078,102.863
		c68.266,7.317,64.596,62.234,25.405,96.571c61.555-24.863,104.38,9.181,59.599,89.269c71.543-30.001,93.73,12.48,79.521,67.055
		c47.068-35.781,91.384-22.965,79.61,50.602c45.353-40.683,86.121-21.131,84.433,41.278c60.627-47.688,93.809-17.246,94.876,27.252
		c33.259-42.743,76.842-43.091,90.364,1.746c2.095-56.954,63.408-70.589,87.8-27.94c-7.808-63.286,39.501-76.731,67.258-47.16
		c-12.748-60.786,23.71-78.187,55.333-60.141c-6.287-48.941,31.039-55.835,46.911-40.703"/>
	<path style="fill:none;stroke:#000000;stroke-width:10;stroke-linecap:round;stroke-linejoin:round;stroke-miterlimit:10;" d="
		M939.262,1025.757c-1.668,5.049-8.98,7.175-16.335,4.747c-7.354-2.429-11.961-8.49-10.295-13.541
		c1.666-5.048,8.979-7.172,16.332-4.747C936.318,1014.644,940.928,1020.706,939.262,1025.757z"/>
	<path style="fill:none;stroke:#000000;stroke-width:10;stroke-linecap:round;stroke-linejoin:round;stroke-miterlimit:10;" d="
		M825.524,707.689c-5.113,1.462-10.982-3.39-13.111-10.836c-2.13-7.446,0.291-14.665,5.403-16.125
		c5.113-1.466,10.983,3.387,13.112,10.833C833.054,699.009,830.64,706.229,825.524,707.689z"/>
	<path style="fill:none;stroke:#000000;stroke-width:10;stroke-linecap:round;stroke-linejoin:round;stroke-miterlimit:10;" d="
		M401.043,340.523c-0.393,5.303-6.971,9.137-14.693,8.568c-7.726-0.572-13.663-5.337-13.27-10.637
		c0.389-5.304,6.967-9.138,14.69-8.569C395.494,330.46,401.44,335.22,401.043,340.523z"/>
	<path style="fill:none;stroke:#000000;stroke-width:10;stroke-linecap:round;stroke-linejoin:round;stroke-miterlimit:10;" d="
		M331.036,362.298c-0.302,4.07-5.349,7.013-11.281,6.577c-5.93-0.44-10.489-4.097-10.184-8.166
		c0.298-4.071,5.349-7.013,11.277-6.578C326.774,354.571,331.339,358.227,331.036,362.298z"/>
	<path style="fill:none;stroke:#000000;stroke-width:10;stroke-linecap:round;stroke-linejoin:round;stroke-miterlimit:10;" d="
		M531.324,330.864c-0.393,5.303-6.972,9.137-14.693,8.567c-7.726-0.572-13.663-5.336-13.27-10.638
		c0.389-5.303,6.968-9.137,14.69-8.567C525.775,320.801,531.72,325.56,531.324,330.864z"/>
	<path style="fill:none;stroke:#000000;stroke-width:10;stroke-linecap:round;stroke-linejoin:round;stroke-miterlimit:10;" d="
		M804.148,596.19c-6.871,1.965-14.161-2.481-16.293-9.925c-2.131-7.446,1.718-15.072,8.584-17.037
		c6.871-1.966,14.161,2.482,16.293,9.924C814.856,586.6,811.019,594.229,804.148,596.19z"/>
	<path style="fill:none;stroke:#000000;stroke-width:10;stroke-linecap:round;stroke-linejoin:round;stroke-miterlimit:10;" d="
		M871.699,924.8c-3.447,4.047-9.986,4.141-14.606,0.203c-4.619-3.931-5.569-10.401-2.121-14.447
		c3.447-4.051,9.984-4.146,14.604-0.21C874.196,914.28,875.143,920.75,871.699,924.8z"/>
	<path style="fill:none;stroke:#000000;stroke-width:10;stroke-linecap:round;stroke-linejoin:round;stroke-miterlimit:10;" d="
		M809.169,745.015c-3.447,4.047-9.986,4.138-14.604,0.203c-4.619-3.927-5.569-10.398-2.122-14.447
		c3.449-4.049,9.984-4.142,14.604-0.208C811.667,734.496,812.614,740.965,809.169,745.015z"/>
	<path style="fill:none;stroke:#000000;stroke-width:10;stroke-linecap:round;stroke-linejoin:round;stroke-miterlimit:10;" d="
		M795.34,531.863c-4.744,2.405-10.812-0.031-13.556-5.443c-2.746-5.407-1.125-11.742,3.615-14.148
		c4.744-2.407,10.81,0.027,13.556,5.437C801.703,523.122,800.081,529.456,795.34,531.863z"/>
	<path style="fill:none;stroke:#000000;stroke-width:10;stroke-linecap:round;stroke-linejoin:round;stroke-miterlimit:10;" d="
		M752.619,464.521c-4.745,2.404-10.811-0.031-13.556-5.443c-2.745-5.407-1.126-11.743,3.614-14.149
		c4.744-2.407,10.812,0.027,13.557,5.437C758.981,455.778,757.359,462.113,752.619,464.521z"/>
	<path style="fill:none;stroke:#000000;stroke-width:10;stroke-linecap:round;stroke-linejoin:round;stroke-miterlimit:10;" d="
		M643.288,385.271c-4.744,2.404-10.812-0.031-13.556-5.444c-2.745-5.407-1.126-11.742,3.616-14.148
		c4.744-2.407,10.81,0.027,13.556,5.436C649.65,376.528,648.028,382.863,643.288,385.271z"/>
	<path style="fill:none;stroke:#000000;stroke-width:10;stroke-linecap:round;stroke-linejoin:round;stroke-miterlimit:10;" d="
		M830.04,832.454c-3.447,4.047-9.986,4.137-14.606,0.201c-4.618-3.929-5.567-10.398-2.12-14.449
		c3.448-4.045,9.983-4.141,14.601-0.208C832.538,821.93,833.484,828.4,830.04,832.454z"/>
	<path style="fill:none;stroke:#000000;stroke-width:10;stroke-linecap:round;stroke-linejoin:round;stroke-miterlimit:10;" d="
		M1030.877,1025.757c-1.667,5.049-8.979,7.175-16.334,4.747c-7.355-2.429-11.961-8.49-10.295-13.541
		c1.666-5.048,8.979-7.172,16.332-4.747C1027.934,1014.644,1032.544,1020.706,1030.877,1025.757z"/>
	<path style="fill:none;stroke:#000000;stroke-width:10;stroke-linecap:round;stroke-linejoin:round;stroke-miterlimit:10;" d="
		M1092.414,1072.673c-1.667,5.049-8.979,7.175-16.333,4.744c-7.353-2.427-11.96-8.488-10.293-13.537
		c1.663-5.049,8.976-7.173,16.331-4.746C1089.473,1061.562,1094.082,1067.624,1092.414,1072.673z"/>
	<path style="fill:none;stroke:#000000;stroke-width:10;stroke-linecap:round;stroke-linejoin:round;stroke-miterlimit:10;" d="
		M1170.347,1121.341c-1.666,5.048-8.98,7.172-16.333,4.744c-7.354-2.425-11.961-8.486-10.295-13.535
		c1.665-5.051,8.978-7.175,16.333-4.746C1167.404,1110.231,1172.014,1116.292,1170.347,1121.341z"/>
	<path style="fill:none;stroke:#000000;stroke-width:10;stroke-linecap:round;stroke-linejoin:round;stroke-miterlimit:10;" d="
		M1207.082,1164.218c-0.271,5.311-6.76,9.297-14.495,8.903c-7.735-0.398-13.782-5.022-13.51-10.335
		c0.271-5.311,6.761-9.293,14.492-8.896C1201.309,1154.284,1207.356,1158.91,1207.082,1164.218z"/>
	<path style="fill:none;stroke:#000000;stroke-width:10;stroke-linecap:round;stroke-linejoin:round;stroke-miterlimit:10;" d="
		M1265.951,1153.005c-0.24,4.727-6.021,8.276-12.904,7.925c-6.89-0.352-12.271-4.473-12.032-9.196
		c0.244-4.729,6.022-8.278,12.906-7.929C1260.81,1144.16,1266.196,1148.279,1265.951,1153.005z"/>
	<path style="fill:none;stroke:#000000;stroke-width:10;stroke-linecap:round;stroke-linejoin:round;stroke-miterlimit:10;" d="
		M935.211,952.03c-3.173,3.511-9.896,2.606-15.009-2.014c-5.118-4.626-6.686-11.22-3.516-14.731
		c3.177-3.511,9.895-2.61,15.011,2.011C936.815,941.921,938.388,948.515,935.211,952.03z"/>
	<path style="fill:none;stroke:#000000;stroke-width:10;stroke-linecap:round;stroke-linejoin:round;stroke-miterlimit:10;" d="
		M1375.445,1173.862c-0.271,5.31-6.762,9.295-14.498,8.896c-7.735-0.393-13.78-5.021-13.51-10.326
		c0.271-5.313,6.761-9.297,14.494-8.905C1369.669,1163.924,1375.718,1168.548,1375.445,1173.862z"/>
	<path style="fill:none;stroke:#000000;stroke-width:10;stroke-linecap:round;stroke-linejoin:round;stroke-miterlimit:10;" d="
		M1437.697,1154.139c0.9,4.025-3.121,8.357-8.989,9.663c-5.867,1.314-11.343-0.887-12.244-4.91
		c-0.902-4.029,3.122-8.355,8.983-9.671C1431.314,1147.911,1436.797,1150.109,1437.697,1154.139z"/>
	<path style="fill:none;stroke:#000000;stroke-width:10;stroke-linecap:round;stroke-linejoin:round;stroke-miterlimit:10;" d="
		M1553.226,1083.714c0.901,4.027-3.122,8.357-8.987,9.664c-5.868,1.317-11.345-0.887-12.245-4.908
		c-0.9-4.029,3.121-8.357,8.983-9.672C1546.841,1077.49,1552.324,1079.688,1553.226,1083.714z"/>
	<path style="fill:none;stroke:#000000;stroke-width:10;stroke-linecap:round;stroke-linejoin:round;stroke-miterlimit:10;" d="
		M1496.581,1130.563c2.009,5.075-0.889,10.982-6.475,13.194c-5.589,2.22-11.742-0.108-13.752-5.18
		c-2.014-5.077,0.889-10.984,6.475-13.198C1488.41,1123.168,1494.566,1125.488,1496.581,1130.563z"/>
	<path style="fill:none;stroke:#000000;stroke-width:10;stroke-linecap:round;stroke-linejoin:round;stroke-miterlimit:10;" d="
		M192.235,396.965c0,4.518-4.535,8.18-10.127,8.18c-5.593,0-10.126-3.662-10.126-8.18c0-4.516,4.534-8.179,10.126-8.179
		C187.7,388.787,192.235,392.449,192.235,396.965z"/>
	<path style="fill:none;stroke:#000000;stroke-width:10;stroke-linecap:round;stroke-linejoin:round;stroke-miterlimit:10;" d="
		M235.077,393.065c0,3.795-3.837,6.872-8.568,6.872c-4.732,0-8.569-3.077-8.569-6.872c0-3.793,3.837-6.87,8.569-6.87
		C231.24,386.195,235.077,389.272,235.077,393.065z"/>
	<path style="fill:none;stroke:#000000;stroke-width:10;stroke-linecap:round;stroke-linejoin:round;stroke-miterlimit:10;" d="
		M126.488,454.722c0,4.374-3.486,7.92-7.79,7.92c-4.302,0-7.79-3.546-7.79-7.92c0-4.374,3.488-7.918,7.79-7.918
		C123.002,446.804,126.488,450.348,126.488,454.722z"/>
	<path style="fill:none;stroke:#000000;stroke-width:10;stroke-linecap:round;stroke-linejoin:round;stroke-miterlimit:10;" d="
		M159.604,421.877c1.065,3.057-3.345,7.366-9.844,9.629c-6.502,2.262-12.631,1.621-13.696-1.435
		c-1.065-3.058,3.344-7.369,9.844-9.631C152.407,418.178,158.541,418.821,159.604,421.877z"/>
</g>
<g>
	<path style="fill:none;stroke:#000000;stroke-width:10;stroke-linecap:round;stroke-linejoin:round;stroke-miterlimit:10;" d="
		M2571.228,1076.476c0,0-11.906,66.738-94.815,112.87c-63.18,35.162-103.703,51.37-123.978,76.63
		c-26.121,32.548-37.84,48.604-47.178,42.764c-6.527-4.082-5.184-37.402,6.734-77.026c0,0-39.002,51.98-44.734,68.155
		c-5.731,16.175-16.047-40.842,2.008-84.319c0,0-20.524,38.608-32.884,59.227c-6.343,10.579-14.766-53.938,27.933-122.964
		c56.902-91.99,172.836-114.284,196.506-191.171"/>
	<path style="fill:none;stroke:#000000;stroke-width:10;stroke-linecap:round;stroke-linejoin:round;stroke-miterlimit:10;" d="
		M2156.577,1106.761c-2.251,2.068-36.346,40.238-37.912,55.368c-1.151,11.563-27.543-46.207,41.452-115.449
		c50.127-50.305,108.625-70.752,147.62-86.869"/>
	<path style="fill:none;stroke:#000000;stroke-width:10;stroke-linecap:round;stroke-linejoin:round;stroke-miterlimit:10;" d="
		M2156.694,1106.647c0,0,0,0.113-0.117,0.113c-23.034,38.047-20.453,92.264-12.751,78.024c7.366-13.89,40.979-57.075,43.103-59.812"
		/>
	<path style="fill:none;stroke:#000000;stroke-width:10;stroke-linecap:round;stroke-linejoin:round;stroke-miterlimit:10;" d="
		M2273.688,1137.958c-17.804,7.439-33.747,8.921-51.252,22.341c-30.054,23.038-37.968,41.829-43.019,37.753
		c-8.245-6.654-9.081-37.799,7.51-73.079c0.109-0.007,0.109-0.126,0.109-0.126"/>
	<path style="fill:none;stroke:#000000;stroke-width:10;stroke-linecap:round;stroke-linejoin:round;stroke-miterlimit:10;" d="
		M2331.163,1081.561c-6.136-28.032-11.212-55.508-16.523-82.102c-2.652-13.251-5.355-26.29-8.267-39.085
		c-6.846-30.121-14.824-58.886-25.929-85.797c-44.834-108.494-154.792-84.065-255.053-74.366
		c-100.193,9.689-197.111-23.715-241.137-58.725c-43.396-34.557-130.514-113.014-95.823-243.386
		c17.241-64.785,90.427-114.082,124.201-144.261c113.4-101.331,273.058-186.287,427.986-177.472
		c232.206,13.208,320.455,135.961,370.163,279.684c23.671,68.439,28.891,152.79,86.899,203.483
		c103.797,90.714,243.914,48.842,404.803,188.886c160.887,140.002,282.697,334.814,443.586,357.829
		c160.896,23.082,270.853-1.295,327.574-21.77c56.781-20.471,52.816,30.761,28.1,68.769
		c-16.66,25.592-186.04,311.319-702.998,287.496"/>
	<path style="fill:none;stroke:#000000;stroke-width:10;stroke-linecap:round;stroke-linejoin:round;stroke-miterlimit:10;" d="
		M2382.416,1240.845c2.272,4.604,7.655,13.784,10.091,18.398c120.973,229.047,335.072,252.276,441.603,266.992"/>
	<path style="fill:none;stroke:#000000;stroke-width:10;stroke-linecap:round;stroke-linejoin:round;stroke-miterlimit:10;" d="
		M1701.446,645.181c0,0,39.311,85.008,73.718-8.812l56.33,48.035l34.998-55.102l49.555,52.121l45.216-70.857l50.82,44.383
		l42.301-66.135l54.054,48.888l36.102-67.457l45.938,36.858c0,0,33.539-52.935,46.169-87.536"/>
	<path style="stroke:#000000;stroke-width:10;stroke-linecap:round;stroke-linejoin:round;stroke-miterlimit:10;" d="
		M2300.235,402.37c1.096,30.988-21.766,56.944-51.058,57.977c-29.288,1.035-53.919-23.249-55.011-54.238
		c-1.095-30.988,21.763-56.948,51.06-57.98C2274.517,347.093,2299.145,371.379,2300.235,402.37z"/>
	<path style="fill:#FFFFFF;stroke:#000000;stroke-width:10;stroke-linecap:round;stroke-linejoin:round;stroke-miterlimit:10;" d="
		M2252.87,385.44c0.364,10.257-7.657,18.868-17.916,19.232c-10.256,0.36-18.868-7.663-19.23-17.922
		c-0.359-10.256,7.667-18.866,17.924-19.226C2243.903,367.162,2252.51,375.182,2252.87,385.44z"/>
	<path style="fill:none;stroke:#000000;stroke-width:10;stroke-linecap:round;stroke-linejoin:round;stroke-miterlimit:10;" d="
		M1807.848,509.232c-3.81,15.766-13.263,27.012-21.106,25.111c-7.845-1.898-11.107-16.216-7.297-31.983
		c3.816-15.762,13.267-27.007,21.113-25.109C1808.403,479.148,1811.665,493.47,1807.848,509.232z"/>
	<path style="fill:none;stroke:#000000;stroke-width:10;stroke-linecap:round;stroke-linejoin:round;stroke-miterlimit:10;" d="
		M2723.604,740.039c-3.109,14.97-21.469,23.818-41.018,19.765c-19.548-4.055-32.877-19.482-29.77-34.454
		c3.107-14.974,21.474-23.822,41.019-19.763C2713.384,709.639,2726.714,725.063,2723.604,740.039z"/>
	<path style="fill:none;stroke:#000000;stroke-width:10;stroke-linecap:round;stroke-linejoin:round;stroke-miterlimit:10;" d="
		M3125.101,1007.574c3.836,12.494-2.483,25.523-14.129,29.094c-11.637,3.58-24.182-3.647-28.019-16.144
		c-3.836-12.487,2.483-25.513,14.129-29.088C3108.716,987.861,3121.26,995.087,3125.101,1007.574z"/>
	<path style="fill:none;stroke:#000000;stroke-width:10;stroke-linecap:round;stroke-linejoin:round;stroke-miterlimit:10;" d="
		M2990.097,934.897c4.424,12.292-1.28,25.61-12.731,29.733c-11.453,4.121-24.334-2.501-28.757-14.798
		c-4.428-12.296,1.272-25.599,12.733-29.729C2972.795,915.979,2985.669,922.599,2990.097,934.897z"/>
	<path style="fill:none;stroke:#000000;stroke-width:10;stroke-linecap:round;stroke-linejoin:round;stroke-miterlimit:10;" d="
		M2847.162,861.403c3.506,9.738-1.01,20.277-10.08,23.543c-9.071,3.268-19.27-1.979-22.774-11.721
		c-3.508-9.734,1.008-20.268,10.079-23.543C2833.458,846.414,2843.655,851.661,2847.162,861.403z"/>
	<path style="fill:none;stroke:#000000;stroke-width:10;stroke-linecap:round;stroke-linejoin:round;stroke-miterlimit:10;" d="
		M3219.422,1073.683c-6.509,11.327-23.779,13.614-38.571,5.104c-14.784-8.507-21.49-24.583-14.971-35.91
		c6.51-11.324,23.787-13.613,38.566-5.106C3219.239,1046.277,3225.94,1062.361,3219.422,1073.683z"/>
	<path style="fill:none;stroke:#000000;stroke-width:10;stroke-linecap:round;stroke-linejoin:round;stroke-miterlimit:10;" d="
		M2843.366,789.562c0.676,19.101-18.739,35.29-43.36,36.163c-24.616,0.86-45.128-13.917-45.804-33.019
		c-0.67-19.104,18.741-35.292,43.362-36.161C2822.181,755.676,2842.696,770.461,2843.366,789.562z"/>
	<path style="fill:none;stroke:#000000;stroke-width:10;stroke-linecap:round;stroke-linejoin:round;stroke-miterlimit:10;" d="
		M2995.687,860.952c-7.433,18.271-36.74,23.612-65.464,11.929c-28.726-11.685-45.987-35.964-38.556-54.238
		c7.431-18.267,36.739-23.608,65.464-11.922C2985.849,818.407,3003.116,842.685,2995.687,860.952z"/>
	<path style="fill:none;stroke:#000000;stroke-width:10;stroke-linecap:round;stroke-linejoin:round;stroke-miterlimit:10;" d="
		M3127.188,945.565c-10.814,16.5-40.602,16.084-66.536-0.916c-25.937-17.001-38.191-44.157-27.373-60.647
		c10.81-16.496,40.601-16.083,66.533,0.92C3125.741,901.915,3137.994,929.072,3127.188,945.565z"/>
	<path style="fill:none;stroke:#000000;stroke-width:10;stroke-linecap:round;stroke-linejoin:round;stroke-miterlimit:10;" d="
		M2853.658,1081.341c-258.665,128.707-162.382,372.67-47.925,430.653c45.447,23.022,71.963,32.867,72.993,62.071
		c1.024,29.208-2.284,66.266-30.79,87.277c-28.498,21.017-40.613,56.563-29.52,79.543c12.677,26.23,140.66,62.762,296.721,19.29
		c56.981-15.869,90.064-137.624,82.955-339.264"/>
	<path style="fill:none;stroke:#000000;stroke-width:10;stroke-linecap:round;stroke-linejoin:round;stroke-miterlimit:10;" d="
		M2530.499,1422.361c0,0,3.805,74.576-22.35,118.593c-26.148,44.024-54.384,72.723-49.787,115.658
		c4.589,42.938,67.01,52.536,146.947,49.717c84.55-2.982,207.037-29.531,182.633-186.607"/>
	<path style="fill:none;stroke:#000000;stroke-width:10;stroke-linecap:round;stroke-linejoin:round;stroke-miterlimit:10;" d="
		M2467.42,1607.823c0,0,45.563-28.95,17.78,83.816"/>
	<path style="fill:none;stroke:#000000;stroke-width:10;stroke-linecap:round;stroke-linejoin:round;stroke-miterlimit:10;" d="
		M2493.387,1647.65c15.749-49.778,83.901-43.161,43.806,57.091"/>
	<path style="fill:none;stroke:#000000;stroke-width:10;stroke-linecap:round;stroke-linejoin:round;stroke-miterlimit:10;" d="
		M2549.103,1661.048c16.166-51.525,80.021-36.011,56.207,45.281"/>
	<path style="fill:none;stroke:#000000;stroke-width:10;stroke-linecap:round;stroke-linejoin:round;stroke-miterlimit:10;" d="
		M2840.62,1667.459c25.607-11.379,49.91,13.984,3.234,91.796"/>
	<path style="fill:none;stroke:#000000;stroke-width:10;stroke-linecap:round;stroke-linejoin:round;stroke-miterlimit:10;" d="
		M2869.649,1697.009c31.584-41.112,93.898-20.46,46.832,80.072"/>
	<path style="fill:none;stroke:#000000;stroke-width:10;stroke-linecap:round;stroke-linejoin:round;stroke-miterlimit:10;" d="
		M2933.75,1721.427c32.567-51.425,90.938-23.731,56.896,58.502"/>
	<path style="fill:none;stroke:#000000;stroke-width:10;stroke-linecap:round;stroke-linejoin:round;stroke-miterlimit:10;" d="
		M2486.237,1183.586c72.303,99.493,154.345,147.49,207.85,170.546"/>
	<path style="fill:none;stroke:#000000;stroke-width:10;stroke-linecap:round;stroke-linejoin:round;stroke-miterlimit:10;" d="
		M2127.706,791.001c159.49-16.466,198.541,27.847,264.363,207.643c3.939,10.758,7.955,21.171,12.13,31.298"/>
	<path style="fill:none;stroke:#000000;stroke-width:10;stroke-linecap:round;stroke-linejoin:round;stroke-miterlimit:10;" d="
		M3198.83,1450.444c0,0,543.367,12.525,719.903-241.727"/>
</g>
</svg>
