<?xml version="1.0" encoding="utf-8"?>
<!-- Generator: Adobe Illustrator 27.5.0, SVG Export Plug-In . SVG Version: 6.00 Build 0)  -->
<svg version="1.1" xmlns="http://www.w3.org/2000/svg" xmlns:xlink="http://www.w3.org/1999/xlink" x="0px" y="0px"
	 viewBox="0 0 500 500" style="enable-background:new 0 0 500 500;" xml:space="preserve">
<g id="BACKGROUND">
	<rect style="fill:#FFFFFF;" width="500" height="500"/>
</g>
<g id="OBJECTS">
	<g>
		<path style="fill:none;stroke:#000000;stroke-width:1.5;stroke-linecap:round;stroke-linejoin:round;stroke-miterlimit:10;" d="
			M354.675,99.731c18.374-14.515,34.098-32.373,46.172-52.436c-19.191,15.518-41.588,27.312-62.204,40.879
			c-4.552,2.995-9.051,6.116-13.018,9.851c-9.299,8.754-15.383,20.85-16.868,33.535c-4.037,4.378-8.412,8.412-11.742,13.349
			c-3.33,4.937-5.956,10.446-6.894,16.327c-0.938,5.88-0.081,12.164,3.086,17.206c3.168,5.042,8.798,8.652,14.753,8.694
			c-2.05-3.979-1.33-8.995,1.577-12.398c1.723-2.017,4.13-3.408,5.644-5.586c1.611-2.317,2.015-5.427,1.049-8.078"/>
		<path style="stroke:#000000;stroke-width:1.5;stroke-linecap:round;stroke-linejoin:round;stroke-miterlimit:10;" d="
			M296.875,170.669l1.787-9.585c0,0,3.411,2.924,2.924,6.173C301.099,170.506,296.875,170.669,296.875,170.669z"/>
		<g>
			<g>
				<path style="fill:none;stroke:#000000;stroke-width:1.5;stroke-linecap:round;stroke-linejoin:round;stroke-miterlimit:10;" d="
					M339.389,122.859c0,0,3.308,11.652-1.839,16.799c-5.146,5.146-16.798,1.839-16.798,1.839s-3.308-11.652,1.839-16.798
					C327.737,119.552,339.389,122.859,339.389,122.859z"/>
				<g>
					<defs>
						<path id="SVGID_1_" d="M339.389,122.859c0,0,3.308,11.652-1.839,16.799c-5.146,5.146-16.798,1.839-16.798,1.839
							s-3.308-11.652,1.839-16.798C327.737,119.552,339.389,122.859,339.389,122.859z"/>
					</defs>
					<clipPath id="SVGID_00000036231601736941197240000003952080028617306037_">
						<use xlink:href="#SVGID_1_"  style="overflow:visible;"/>
					</clipPath>
					
						<path style="clip-path:url(#SVGID_00000036231601736941197240000003952080028617306037_);stroke:#000000;stroke-width:1.5;stroke-linecap:round;stroke-linejoin:round;stroke-miterlimit:10;" d="
						M332.075,129.923c4.477,4.477,4.477,11.735,0,16.212c-4.477,4.477-11.735,4.477-16.211,0c-4.477-4.477-4.477-11.735,0-16.212
						C320.34,125.446,327.599,125.446,332.075,129.923z"/>
				</g>
				<path style="fill:#FFFFFF;" d="M333.914,128.084c1.016,1.016,1.016,2.662,0,3.677c-1.015,1.015-2.662,1.015-3.677,0
					c-1.015-1.016-1.015-2.662,0-3.677C331.252,127.068,332.898,127.068,333.914,128.084z"/>
			</g>
			<path style="fill:none;stroke:#000000;stroke-width:1.5;stroke-linecap:round;stroke-linejoin:round;stroke-miterlimit:10;" d="
				M355.993,111.216c-2.635-1.318-5.765-1.614-8.601-0.813c-2.835,0.801-5.456,2.803-7.012,5.305
				c-3.182,0.442-6.36,0.919-9.511,1.54c-2.493,0.491-4.992,1.08-7.289,2.168c-2.297,1.088-4.4,2.715-5.683,4.909
				c-1.163,1.989-1.592,4.316-1.853,6.605c-0.519,4.555-0.451,9.166-1.076,13.708c-0.245,1.781-3.936,7.535-5.307,8.526
				c0,0,8.902-5.507,13.676-5.961c4.774-0.455,13.412,0.909,18.868-2.842c5.456-3.751,4.433-19.095,4.433-19.095
				c0.024-2.822,0.316-5.359,1.839-7.735C350.345,114.615,352.591,111.856,355.993,111.216"/>
		</g>
		<path style="fill:none;stroke:#000000;stroke-width:1.5;stroke-linecap:round;stroke-linejoin:round;stroke-miterlimit:10;" d="
			M307.335,179.766c1.982,0.127,3.797,1.088,5.655,1.788c1.859,0.7,4.009,1.129,5.778,0.226c1.38-0.705,2.257-2.08,3.222-3.292
			c3.571-4.488,8.927-7.203,14.363-9.032c5.436-1.829,11.109-2.91,16.495-4.881c5.386-1.971,10.627-4.991,13.834-9.745
			c2.368-3.51,3.464-7.71,4.29-11.862"/>
		<path style="fill:none;stroke:#000000;stroke-width:1.5;stroke-linecap:round;stroke-linejoin:round;stroke-miterlimit:10;" d="
			M329.021,95.154c17.73-16.556,34.234-34.709,49.727-53.375c-0.846,8.349-3.209,16.459-5.561,24.515"/>
		<path style="fill:none;stroke:#000000;stroke-width:1.5;stroke-linecap:round;stroke-linejoin:round;stroke-miterlimit:10;" d="
			M394.467,57.67c11.836-4.128,23.202-9.602,33.809-16.281c-4.405,9.989-10.04,20.206-17.093,28.538
			c14.112-0.947,27.44-4.507,40.176-10.658c-5.687,13.797-14.693,26.553-26.415,35.787c9.495,1.1,19.63,0.475,28.797-2.234
			c-6.004,14.134-15.654,27.468-27.463,37.283c3.014-0.062,6.721,0.487,9.083,2.361c2.362,1.874,4.043,4.588,4.668,7.538
			c-2.46-0.234-5.021-0.301-7.464,0.067c-2.444,0.368-6.292,3.97-7.861,5.879"/>
		<path style="fill:none;stroke:#000000;stroke-width:1.5;stroke-linecap:round;stroke-linejoin:round;stroke-miterlimit:10;" d="
			M379.891,97.551c7.807-3.3,15.614-6.6,23.421-9.901c-3.389,7.425-7.008,15.148-13.449,20.161c7.45,0.338,14.929,0.026,22.325-0.93
			c-4.3,5.754-9.323,10.967-14.913,15.479c6.978,0.058,13.961-0.515,20.836-1.709c-4.248,5.367-9.563,9.886-15.543,13.216
			c3.673,1.174,7.589,1.58,11.424,1.184"/>
		<path style="fill:none;stroke:#000000;stroke-width:1.5;stroke-linecap:round;stroke-linejoin:round;stroke-miterlimit:10;" d="
			M357.311,162.467c0.27,12.668-5.271,24.809-12.397,35.286c-4.374,6.432-9.383,12.43-14.932,17.881
			c-6.201,6.091-13.064,11.491-19.107,17.739c-16.391,16.945-26.201,40.099-26.974,63.661"/>
		<path style="fill:none;stroke:#000000;stroke-width:1.5;stroke-linecap:round;stroke-linejoin:round;stroke-miterlimit:10;" d="
			M421.092,133.546c10.328,31.077,9.685,64.729,6.069,97.277c-3.174,28.561-8.607,57.066-19.193,83.782
			c-10.586,26.716-26.181,51.466-48.125,70.021"/>
		<g>
			<path style="fill:none;stroke:#000000;stroke-width:1.5;stroke-linecap:round;stroke-linejoin:round;stroke-miterlimit:10;" d="
				M332.648,235.745c9.752,3.151,17.254,11.407,21.467,20.749c4.213,9.342,5.499,19.732,5.969,29.969
				c1.105,24.036-2.044,48.262-9.257,71.217c7.531,21.993,19.164,58.524,25.12,65.687c5.956,7.163,36.834,19.656,42.457,27.368
				c5.623,7.712,2.249,20.565,2.249,20.565l-4.177-6.105"/>
			<path style="fill:none;stroke:#000000;stroke-width:1.5;stroke-linecap:round;stroke-linejoin:round;stroke-miterlimit:10;" d="
				M368.072,430.527c5.708,6.22,13.232,10.446,20.791,14.206c7.559,3.76,15.356,7.201,22.129,12.24
				c1.37,1.019,2.712,2.122,3.677,3.53c1.447,2.112,1.924,4.731,2.185,7.278c0.278,2.709,0.352,5.439,0.221,8.159
				c-4.882-7.857-13.369-12.183-22.141-15.121c-8.772-2.938-17.996-4.42-26.669-7.638c-3.583-1.329-7.05-2.947-10.564-4.446
				c-8.476-3.617-11.565-7.938-27.268-7.515c-2.489,0.067-4.974,0.526-7.33,1.33c-2.356,0.804-4.995,1.797-6.523,3.763
				c-1.521-2.909-0.476-6.65,1.72-9.09c2.195-2.441,5.313-3.827,8.404-4.935c10.45-3.744,21.331-7.827,21.608-11.361
				c0.278-3.534-16.703-26.654-25.055-39.982c-1.53-2.441-3.072-4.908-4.015-7.63c-1.169-3.373-1.368-6.991-1.631-10.55
				c-0.609-8.25-1.609-16.472-2.997-24.627c-0.481-2.825-1.031-5.705-2.467-8.185c-2.567-4.433-7.486-6.856-12.125-9.029"/>
			<path style="fill:none;stroke:#000000;stroke-width:1.5;stroke-linecap:round;stroke-linejoin:round;stroke-miterlimit:10;" d="
				M321.898,434.247c2.815,1.48,5.144,3.866,6.555,6.716"/>
			<path style="fill:none;stroke:#000000;stroke-width:1.5;stroke-linecap:round;stroke-linejoin:round;stroke-miterlimit:10;" d="
				M406.645,465.882c1.48-2.865,4.638-4.779,7.863-4.765c2.29-1.775,3.257-4.909,6.111-4.409"/>
		</g>
		<g>
			<path style="fill:none;stroke:#000000;stroke-width:1.5;stroke-linecap:round;stroke-linejoin:round;stroke-miterlimit:10;" d="
				M425.942,243.077c5.126,10.647,1.202,25.996-0.732,36.06c-4.541,23.629-18.591,74.749-21.746,88.156
				c-3.155,13.408-5.301,34.627-1.183,42.983c4.118,8.356,37.594,33.399,41.26,42.212s-2.617,20.522-2.617,20.522l-2.636-6.912"/>
			<path style="fill:none;stroke:#000000;stroke-width:1.5;stroke-linecap:round;stroke-linejoin:round;stroke-miterlimit:10;" d="
				M369.96,411.753c5.469-0.98,11.76-2.678,12.391-4.621c1.095-3.371-11.223-33.529-11.223-33.529"/>
			<path style="fill:none;stroke:#000000;stroke-width:1.5;stroke-linecap:round;stroke-linejoin:round;stroke-miterlimit:10;" d="
				M399.323,421.08c4.098,7.382,10.426,13.248,16.897,18.67c6.471,5.422,13.249,10.589,18.658,17.071
				c1.094,1.311,2.142,2.697,2.751,4.291c0.913,2.392,0.765,5.05,0.425,7.587c-0.362,2.699-0.928,5.371-1.692,7.985
				c-2.912-8.781-7.096-12.797-14.939-17.703"/>
			<path style="fill:none;stroke:#000000;stroke-width:1.5;stroke-linecap:round;stroke-linejoin:round;stroke-miterlimit:10;" d="
				M428.571,464.468c2.108-2.44,5.626-3.563,8.758-2.797c2.641-1.191,4.314-4.012,6.972-2.859"/>
		</g>
		<g>
			<path style="fill:none;stroke:#000000;stroke-width:1.5;stroke-linecap:round;stroke-linejoin:round;stroke-miterlimit:10;" d="
				M310.875,233.373c0,0-61.794,36.321-92.498,58.555c-30.704,22.234-48.35,52.938-40.586,76.937
				c7.764,23.999,37.41,42.35,39.88,57.173c2.471,14.823-3.882,23.293,0.706,27.175c4.588,3.882,50.468,8.823,63.526,12.705
				c13.058,3.882,19.058,8.823,19.058,8.823c-1.711-8.645-9.313-14.719-17.511-17.952c-8.198-3.233-17.102-4.222-25.503-6.884"/>
			<path style="fill:none;stroke:#000000;stroke-width:1.5;stroke-linecap:round;stroke-linejoin:round;stroke-miterlimit:10;" d="
				M287.391,458.569c3.512,0.673,11.233,3.878,14.532,5.256c3.299,1.379,6.523,3.11,8.897,5.783
				c0.569-4.77,0.019-7.596-2.748-11.523c-2.698-3.83-6.999-6.255-11.434-7.763c-4.435-1.508-22.757-6.116-27.06-8.143
				c-1.903-0.896-9.157-3.203-7.732-11.333c1.026-5.853,4.793-10.576,7.93-15.623c6.161-9.913,13.048-19.416,18.203-29.888
				c7.111-14.444,10.765-30.576,10.573-46.674c-0.183-15.393-8.529-31.108-22.141-38.3c-13.612-7.191-31.294-5.856-43.671,3.297"/>
			<path style="fill:none;stroke:#000000;stroke-width:1.5;stroke-linecap:round;stroke-linejoin:round;stroke-miterlimit:10;" d="
				M297.794,462.561c1.282-3.414,4.078-6.228,7.484-7.532"/>
			<path style="fill:none;stroke:#000000;stroke-width:1.5;stroke-linecap:round;stroke-linejoin:round;stroke-miterlimit:10;" d="
				M287.162,467.522c0.626-2.473,2.46-4.61,4.809-5.605"/>
		</g>
		<path style="fill:none;stroke:#000000;stroke-width:1.5;stroke-linecap:round;stroke-linejoin:round;stroke-miterlimit:10;" d="
			M335.022,398.95c-20.2,13.76-44.507,21.407-68.946,21.689"/>
		<g>
			<path style="fill:none;stroke:#000000;stroke-width:1.5;stroke-linecap:round;stroke-linejoin:round;stroke-miterlimit:10;" d="
				M218.377,291.927c0,0-77.7,56.073-106.2,53.073s18.806-51.58,15.248-83.268c-3.558-31.689-32.248-54.232-32.248-54.232
				s19.5,32.5,7,56s-83.219,97.404-34,152.5c33.5,37.5,149.494,10.037,149.494,10.037"/>
			<path style="fill:none;stroke:#000000;stroke-width:1.5;stroke-linecap:round;stroke-linejoin:round;stroke-miterlimit:10;" d="
				M95.177,207.5c0,0-37.748-18.885-40.839-21.976s16.142,2.404,16.142,2.404s-29.536-43.961-25.071-44.991
				c4.465-1.03,36.748,37.092,36.748,37.092s-1.717-17.516,0.343-17.516C84.561,162.513,95.177,207.5,95.177,207.5z"/>
			<path style="fill:none;stroke:#000000;stroke-width:1.5;stroke-linecap:round;stroke-linejoin:round;stroke-miterlimit:10;" d="
				M95.177,207.5c0,0,23.146,21.178,16.944,55.08s-46.325,68.385-37.623,110.39c11.99,57.882,72.766,62.603,72.766,62.603"/>
		</g>
		<path style="fill:none;stroke:#000000;stroke-width:1.5;stroke-linecap:round;stroke-linejoin:round;stroke-miterlimit:10;" d="
			M297.399,415.977c2.721-0.651,4.999-2.47,7.076-4.345c8.545-7.712,15.408-17.279,19.975-27.844"/>
		<path style="fill:none;stroke:#000000;stroke-width:1.5;stroke-linecap:round;stroke-linejoin:round;stroke-miterlimit:10;" d="
			M360.79,283.458c10.568-31.953,11.92-66.949,26.954-97.059c0.996-1.996,2.64-4.279,4.841-3.915c0.95,0.157,1.74,0.805,2.419,1.486
			c1.754,1.761,3.105,3.922,3.919,6.27c1.042-1.958,2.246-3.994,4.223-5c1.977-1.006,4.911-0.413,5.604,1.694
			c1.51-3.777,3.795-7.241,6.673-10.115c0.781-0.78,1.8-1.573,2.874-1.323c0.728,0.169,1.259,0.78,1.716,1.372
			c1.512,1.961,2.79,4.103,3.796,6.366c1.077-1.904,3.006-3.305,5.149-3.741"/>
		<g>
			<path style="fill:none;stroke:#000000;stroke-width:1.5;stroke-linecap:round;stroke-linejoin:round;stroke-miterlimit:10;" d="
				M325.721,218.192c-18.985-0.171-36.914-11.021-48.368-26.163c-11.453-15.143-16.963-34.129-18.578-53.047
				c-1.614-18.917,0.438-37.942,2.815-56.778L42.304,38.468c0,0,2.516,5.536,8.555,8.555c6.039,3.019,196.769,41.266,196.769,41.266
				c-1.398,22.352-0.339,46.434,6.066,67.894c4.838,16.208,12.023,32.04,23.454,44.507
				C288.58,213.157,308.806,218.107,325.721,218.192z"/>
			<path style="fill:none;stroke:#000000;stroke-width:1.5;stroke-linecap:round;stroke-linejoin:round;stroke-miterlimit:10;" d="
				M50.859,47.023c0,0,31.201,13.588,38.75,41.769c7.549,28.182,0,50.325,0,50.325s36.234-1.007,51.834,26.169
				c15.601,27.175,4.529,62.906,4.529,62.906s24.156-6.542,40.26,11.071s6.542,43.279,6.542,43.279
				c10.452-6.065,25.604-4.91,34.809,2.919"/>
			
				<line style="fill:none;stroke:#000000;stroke-width:1.5;stroke-linecap:round;stroke-linejoin:round;stroke-miterlimit:10;" x1="192.774" y1="282.542" x2="296.554" y2="213.582"/>
			
				<line style="fill:none;stroke:#000000;stroke-width:1.5;stroke-linecap:round;stroke-linejoin:round;stroke-miterlimit:10;" x1="145.973" y1="228.191" x2="261.148" y2="176.566"/>
			
				<line style="fill:none;stroke:#000000;stroke-width:1.5;stroke-linecap:round;stroke-linejoin:round;stroke-miterlimit:10;" x1="89.609" y1="139.117" x2="246.967" y2="121.214"/>
			<path style="fill:none;stroke:#000000;stroke-width:1.5;stroke-linecap:round;stroke-linejoin:round;stroke-miterlimit:10;" d="
				M128.072,63.34c17.593,17.699,26.898,43.315,24.765,68.179c15.435,2.971,28.465,12.937,37.171,26.024
				c8.706,13.087,12.895,28.812,13.884,44.499c11.503-1.413,22.629,3.664,30.815,11.867c8.186,8.203,13.01,19.344,15.016,30.758
				c4.448-0.575,8.512,0.022,12.57,1.932s7.474,5.346,8.912,9.594"/>
			<path style="fill:none;stroke:#000000;stroke-width:1.5;stroke-linecap:round;stroke-linejoin:round;stroke-miterlimit:10;" d="
				M192.941,77.123c12.535,12.331,19.29,30.309,17.977,47.843c10.242,5.384,17.983,15.266,22.787,25.792
				c4.804,10.526,7.113,22.001,8.996,33.418c6.082-0.57,10.73,3.608,15.34,7.616c10.005,8.699,17.286,20.487,20.585,33.328
				c4.69,0.324,9.473,0.935,13.799,2.775c4.326,1.839,8.182,5.454,9.034,10.077"/>
		</g>
		<g>
			<g>
				<path style="fill:none;stroke:#000000;stroke-width:1.5;stroke-linecap:round;stroke-linejoin:round;stroke-miterlimit:10;" d="
					M377.813,164.438c0.597-0.963,0.91-2.076,1.453-3.07c0.542-0.995,1.423-1.923,2.55-2.042c0.882-0.094,1.74,0.327,2.457,0.849
					c1.292,0.941,2.307,2.257,2.89,3.746c0.638-0.944,1.081-2.009,1.727-2.947c0.646-0.938,1.57-1.776,2.699-1.93
					c1.173-0.16,2.344,0.465,3.139,1.341s1.285,1.982,1.761,3.066"/>
				<path style="fill:none;stroke:#000000;stroke-width:1.5;stroke-linecap:round;stroke-linejoin:round;stroke-miterlimit:10;" d="
					M394.45,159.337c0.479-1.974,2.331-3.532,4.358-3.666c2.027-0.134,4.068,1.166,4.803,3.06c0.298-1.881,1.828-3.504,3.687-3.915
					c1.859-0.41,3.93,0.419,4.992,1.999"/>
				<path style="fill:none;stroke:#000000;stroke-width:1.5;stroke-linecap:round;stroke-linejoin:round;stroke-miterlimit:10;" d="
					M374.726,151.831c1.271-1.413,3.303-2.096,5.17-1.737s3.5,1.749,4.154,3.533c0.601-1.682,1.955-3.168,3.697-3.564
					c1.742-0.395,3.792,0.552,4.315,2.26"/>
			</g>
			<g>
				<path style="fill:none;stroke:#000000;stroke-width:1.5;stroke-linecap:round;stroke-linejoin:round;stroke-miterlimit:10;" d="
					M343.645,308.416c-0.597-0.963-0.91-2.076-1.453-3.071c-0.542-0.995-1.423-1.922-2.55-2.042
					c-0.882-0.094-1.74,0.327-2.457,0.849c-1.292,0.941-2.307,2.257-2.89,3.746c-0.638-0.944-1.081-2.009-1.727-2.947
					c-0.646-0.938-1.57-1.777-2.699-1.931c-1.173-0.16-2.344,0.465-3.139,1.341c-0.796,0.877-1.285,1.982-1.761,3.066"/>
				<path style="fill:none;stroke:#000000;stroke-width:1.5;stroke-linecap:round;stroke-linejoin:round;stroke-miterlimit:10;" d="
					M327.008,303.316c-0.479-1.974-2.331-3.532-4.358-3.666c-2.027-0.134-4.068,1.166-4.803,3.06
					c-0.298-1.881-1.828-3.504-3.687-3.915s-3.93,0.419-4.992,1.999"/>
				<path style="fill:none;stroke:#000000;stroke-width:1.5;stroke-linecap:round;stroke-linejoin:round;stroke-miterlimit:10;" d="
					M346.732,295.81c-1.271-1.413-3.303-2.096-5.17-1.737c-1.866,0.36-3.5,1.749-4.154,3.533c-0.601-1.682-1.955-3.168-3.697-3.564
					c-1.742-0.395-3.792,0.552-4.315,2.26"/>
			</g>
			<g>
				<path style="fill:none;stroke:#000000;stroke-width:1.5;stroke-linecap:round;stroke-linejoin:round;stroke-miterlimit:10;" d="
					M257.522,414.18c-0.597-0.963-0.91-2.076-1.453-3.071c-0.542-0.995-1.423-1.922-2.55-2.042c-0.882-0.094-1.74,0.327-2.457,0.849
					c-1.292,0.941-2.307,2.257-2.89,3.746c-0.638-0.944-1.081-2.009-1.727-2.947c-0.646-0.938-1.57-1.777-2.699-1.931
					c-1.173-0.16-2.343,0.465-3.139,1.341c-0.796,0.877-1.285,1.982-1.761,3.066"/>
				<path style="fill:none;stroke:#000000;stroke-width:1.5;stroke-linecap:round;stroke-linejoin:round;stroke-miterlimit:10;" d="
					M240.884,409.079c-0.479-1.974-2.331-3.532-4.358-3.666s-4.068,1.166-4.803,3.06c-0.299-1.881-1.828-3.504-3.687-3.915
					c-1.859-0.41-3.93,0.419-4.992,1.999"/>
				<path style="fill:none;stroke:#000000;stroke-width:1.5;stroke-linecap:round;stroke-linejoin:round;stroke-miterlimit:10;" d="
					M260.608,401.573c-1.271-1.413-3.303-2.096-5.17-1.737c-1.866,0.36-3.5,1.749-4.154,3.533c-0.601-1.682-1.955-3.168-3.697-3.564
					c-1.742-0.395-3.792,0.552-4.315,2.26"/>
			</g>
			<g>
				<path style="fill:none;stroke:#000000;stroke-width:1.5;stroke-linecap:round;stroke-linejoin:round;stroke-miterlimit:10;" d="
					M184.113,417.652c-0.597-0.963-0.91-2.076-1.453-3.071c-0.542-0.995-1.423-1.922-2.55-2.042
					c-0.882-0.094-1.74,0.327-2.457,0.849c-1.292,0.941-2.307,2.257-2.89,3.746c-0.638-0.944-1.081-2.009-1.727-2.947
					c-0.646-0.938-1.57-1.776-2.699-1.931c-1.173-0.16-2.344,0.465-3.139,1.341c-0.796,0.877-1.285,1.982-1.761,3.066"/>
				<path style="fill:none;stroke:#000000;stroke-width:1.5;stroke-linecap:round;stroke-linejoin:round;stroke-miterlimit:10;" d="
					M167.475,412.551c-0.479-1.974-2.331-3.532-4.359-3.666s-4.068,1.166-4.803,3.06c-0.299-1.881-1.828-3.504-3.687-3.915
					c-1.859-0.41-3.93,0.419-4.992,1.999"/>
				<path style="fill:none;stroke:#000000;stroke-width:1.5;stroke-linecap:round;stroke-linejoin:round;stroke-miterlimit:10;" d="
					M187.199,405.045c-1.271-1.413-3.304-2.096-5.17-1.737c-1.866,0.36-3.5,1.749-4.155,3.533c-0.601-1.682-1.955-3.168-3.697-3.564
					c-1.742-0.395-3.792,0.552-4.315,2.26"/>
			</g>
			<g>
				<path style="fill:none;stroke:#000000;stroke-width:1.5;stroke-linecap:round;stroke-linejoin:round;stroke-miterlimit:10;" d="
					M204.185,346.821c0.597-0.963,0.91-2.076,1.453-3.071c0.542-0.995,1.423-1.922,2.55-2.042c0.882-0.094,1.74,0.327,2.457,0.849
					c1.292,0.941,2.307,2.257,2.89,3.746c0.638-0.944,1.081-2.009,1.727-2.947s1.57-1.777,2.699-1.931
					c1.173-0.16,2.343,0.465,3.139,1.341s1.285,1.982,1.761,3.066"/>
				<path style="fill:none;stroke:#000000;stroke-width:1.5;stroke-linecap:round;stroke-linejoin:round;stroke-miterlimit:10;" d="
					M220.822,341.72c0.479-1.974,2.331-3.532,4.358-3.666c2.027-0.134,4.068,1.166,4.803,3.06c0.298-1.881,1.828-3.504,3.687-3.915
					c1.859-0.41,3.93,0.419,4.992,1.999"/>
				<path style="fill:none;stroke:#000000;stroke-width:1.5;stroke-linecap:round;stroke-linejoin:round;stroke-miterlimit:10;" d="
					M201.098,334.214c1.271-1.413,3.304-2.096,5.17-1.737c1.866,0.36,3.5,1.749,4.154,3.533c0.601-1.682,1.955-3.168,3.697-3.564
					c1.742-0.395,3.792,0.552,4.315,2.26"/>
			</g>
			<g>
				<path style="fill:none;stroke:#000000;stroke-width:1.5;stroke-linecap:round;stroke-linejoin:round;stroke-miterlimit:10;" d="
					M344.878,226.706c0.597-0.963,0.91-2.076,1.453-3.071c0.542-0.995,1.423-1.923,2.55-2.042c0.882-0.094,1.74,0.327,2.457,0.849
					c1.292,0.941,2.307,2.257,2.89,3.746c0.638-0.944,1.081-2.009,1.727-2.947c0.646-0.938,1.57-1.777,2.699-1.93
					c1.173-0.16,2.343,0.465,3.139,1.341c0.796,0.877,1.285,1.982,1.762,3.066"/>
				<path style="fill:none;stroke:#000000;stroke-width:1.5;stroke-linecap:round;stroke-linejoin:round;stroke-miterlimit:10;" d="
					M341.791,214.099c1.271-1.413,3.303-2.096,5.17-1.737s3.5,1.749,4.155,3.533c0.601-1.682,1.955-3.168,3.697-3.564
					c1.742-0.395,3.792,0.552,4.315,2.26"/>
			</g>
			<g>
				<path style="fill:none;stroke:#000000;stroke-width:1.5;stroke-linecap:round;stroke-linejoin:round;stroke-miterlimit:10;" d="
					M247.19,379.854c0.597-0.963,0.91-2.076,1.453-3.071c0.542-0.995,1.423-1.922,2.55-2.042c0.882-0.094,1.741,0.327,2.457,0.849
					c1.292,0.941,2.307,2.257,2.89,3.746c0.638-0.944,1.081-2.009,1.727-2.947c0.646-0.938,1.57-1.777,2.699-1.931
					c1.173-0.16,2.343,0.465,3.139,1.341c0.796,0.877,1.285,1.982,1.762,3.066"/>
				<path style="fill:none;stroke:#000000;stroke-width:1.5;stroke-linecap:round;stroke-linejoin:round;stroke-miterlimit:10;" d="
					M244.103,367.247c1.271-1.413,3.303-2.096,5.17-1.737c1.866,0.36,3.5,1.749,4.154,3.533c0.601-1.682,1.955-3.168,3.697-3.564
					c1.742-0.395,3.792,0.552,4.315,2.26"/>
			</g>
			<g>
				<path style="fill:none;stroke:#000000;stroke-width:1.5;stroke-linecap:round;stroke-linejoin:round;stroke-miterlimit:10;" d="
					M147.509,366.423c0.597-0.963,0.91-2.076,1.453-3.071c0.542-0.995,1.423-1.922,2.55-2.042c0.882-0.094,1.74,0.327,2.457,0.849
					c1.292,0.941,2.307,2.257,2.89,3.746c0.638-0.944,1.081-2.009,1.727-2.947c0.646-0.938,1.57-1.777,2.699-1.931
					c1.173-0.16,2.344,0.465,3.139,1.341c0.796,0.877,1.285,1.982,1.761,3.066"/>
				<path style="fill:none;stroke:#000000;stroke-width:1.5;stroke-linecap:round;stroke-linejoin:round;stroke-miterlimit:10;" d="
					M144.422,353.817c1.271-1.413,3.303-2.096,5.17-1.737c1.866,0.36,3.5,1.749,4.154,3.533c0.601-1.682,1.955-3.168,3.697-3.564
					c1.742-0.395,3.792,0.552,4.315,2.26"/>
			</g>
			<g>
				<path style="fill:none;stroke:#000000;stroke-width:1.5;stroke-linecap:round;stroke-linejoin:round;stroke-miterlimit:10;" d="
					M253.106,323.226c0.597-0.963,0.91-2.076,1.453-3.071c0.542-0.995,1.423-1.922,2.55-2.042c0.882-0.094,1.741,0.327,2.457,0.849
					c1.292,0.941,2.307,2.257,2.89,3.746c0.638-0.944,1.081-2.009,1.727-2.947c0.646-0.938,1.57-1.777,2.699-1.931
					c1.173-0.16,2.344,0.465,3.139,1.341c0.796,0.877,1.285,1.982,1.761,3.066"/>
				<path style="fill:none;stroke:#000000;stroke-width:1.5;stroke-linecap:round;stroke-linejoin:round;stroke-miterlimit:10;" d="
					M250.019,310.619c1.271-1.413,3.304-2.096,5.17-1.737c1.866,0.36,3.5,1.749,4.154,3.533c0.601-1.682,1.955-3.168,3.697-3.564
					c1.742-0.395,3.792,0.552,4.315,2.26"/>
			</g>
			<g>
				<path style="fill:none;stroke:#000000;stroke-width:1.5;stroke-linecap:round;stroke-linejoin:round;stroke-miterlimit:10;" d="
					M108.667,392.905c0.597-0.963,0.91-2.076,1.453-3.071c0.542-0.995,1.423-1.922,2.55-2.042c0.882-0.094,1.741,0.327,2.457,0.849
					c1.292,0.941,2.307,2.257,2.89,3.746c0.638-0.944,1.081-2.009,1.727-2.947c0.646-0.938,1.57-1.777,2.699-1.931
					c1.173-0.16,2.344,0.465,3.139,1.341s1.285,1.982,1.761,3.066"/>
				<path style="fill:none;stroke:#000000;stroke-width:1.5;stroke-linecap:round;stroke-linejoin:round;stroke-miterlimit:10;" d="
					M105.581,380.298c1.271-1.413,3.304-2.096,5.17-1.737c1.866,0.36,3.5,1.749,4.154,3.533c0.601-1.682,1.955-3.168,3.697-3.564
					c1.742-0.395,3.792,0.552,4.315,2.26"/>
			</g>
		</g>
	</g>
	<g>
		<path style="fill:none;stroke:#000000;stroke-width:1.5;stroke-miterlimit:10;" d="M96.473,272.894
			c-6.344-15.697-13.768-33.647-20.113-49.344c-1.662,17.622-3.324,35.245-4.987,52.867c-4.557-11.671-11.701-22.324-20.768-30.97
			c0.782,25.276-1.818,50.654-7.709,75.246c-2.931-3.487-5.863-6.975-8.794-10.462c-4.96,17.388-9.944,34.904-11.518,52.917
			c-1.574,18.013,0.462,36.761,8.893,52.757c8.431,15.996,23.914,28.846,41.837,31.227c11.605,1.542,23.801-3.999,30.262-13.761"/>
		<path style="fill:none;stroke:#000000;stroke-width:1.5;stroke-miterlimit:10;" d="M426.701,273.578
			c5.71-19.361,13.628-46.186,19.338-65.548c1.176,34.193,2.353,68.385,3.529,102.578c3.179-9.578,6.357-19.156,9.536-28.735
			c-0.348,17.221,4.477,34.066,8.769,50.748c4.292,16.682,8.114,33.951,5.732,51.011c-2.382,17.059-12.204,34.068-28.207,40.439
			c-8.968,3.57-19.057,3.527-28.499,1.523"/>
		<path style="fill:none;stroke:#000000;stroke-width:1.5;stroke-miterlimit:10;" d="M417.671,313.702
			c5.979-8.433,11.408-17.256,16.239-26.395c3.473,18.911,5.964,38.003,7.458,57.173c3.985-5.19,7.02-11.107,8.91-17.371
			c3.019,10.657,5.047,21.595,6.048,32.626c1.02,11.241,0.89,22.987-3.782,33.262c-4.672,10.275-14.838,18.718-26.121,18.388
			c-10.549-0.309-19.446-7.83-26.383-15.783"/>
		<path style="fill:none;stroke:#000000;stroke-width:1.5;stroke-miterlimit:10;" d="M85.806,287.238
			c-1.587-4.263-3.368-8.454-5.336-12.556c-3.888,10.948-7.947,21.836-12.175,32.657c-1.288-8.192-2.782-16.352-4.478-24.47
			c-1.721,19.021-9.609,36.836-15.828,54.894c-6.219,18.058-10.846,37.681-5.875,56.122c3.135,11.631,10.099,22.195,19.551,29.661
			c3.163,2.498,6.669,4.69,10.583,5.651c3.914,0.962,8.298,0.564,11.592-1.759"/>
	</g>
	<g>
		<path style="fill:none;stroke:#000000;stroke-width:1.5;stroke-miterlimit:10;" d="M283.31,114.644
			c0.273-0.35,0.575-0.71,0.642-1.149c0.061-0.401-0.087-0.801-0.236-1.178c-1.53-3.869-3.533-7.627-4.103-11.748
			c-0.57-4.121,0.697-8.864,4.302-10.941c0.287-0.165,0.602-0.328,0.757-0.621c0.188-0.355,0.084-0.787-0.021-1.175
			c-2.829-10.452-2.994-21.614-0.473-32.145c1.033-4.317,2.567-8.63,5.421-12.03c2.854-3.4,7.231-5.763,11.644-5.284
			c4.413,0.479,8.482,4.35,8.325,8.786c0.844-5.776,3.075-11.344,6.453-16.104c1.957-2.758,4.462-5.354,7.713-6.29
			c4.831-1.391,10.2,1.461,12.766,5.784c2.566,4.323,2.724,9.727,1.625,14.632c-2.39,10.672-10.708,19.812-21.108,23.194
			c1.433,3.26-0.34,6.98-2.214,10.007c-3.303,5.334-7.452,10.682-13.417,12.628c0.64,4.437-1.367,9.155-5.007,11.771
			c-1.672,1.201-3.704,2.042-4.844,3.756c-2.412,3.629,0.443,9.045-1.957,12.683c-0.847,1.284-2.225,2.112-3.253,3.255
			c-2.587,2.877-2.017,6.662-0.428,9.766C279.971,129.227,279.63,119.375,283.31,114.644z"/>
		<path style="fill:none;stroke:#000000;stroke-width:1.5;stroke-miterlimit:10;" d="M293.789,103.963
			c4.768,6.971,3.71,17.326-2.371,23.188c2.538,1.174,2.354,5.014,0.756,7.309s-4.108,3.883-5.488,6.315
			c-1.581,2.786-2.402,5.338-0.445,7.873c-3.396-2.003-6.346-4.758-8.577-8.009c-0.95-1.385-1.789-2.912-1.958-4.583
			s0.469-3.51,1.909-4.374c-4.159-4.851-5.798-11.442-5.921-17.831c-0.051-2.642,0.167-5.402,1.517-7.674
			c1.35-2.272,4.111-3.887,6.654-3.168"/>
	</g>
</g>

    <text x="10" y="832" font-size="12" fill="gray" opacity="0.6" font-family="Arial, sans-serif">
      twoja-kolorowanka.pl
    </text>
  
</svg>
