<?xml version="1.0" encoding="utf-8"?>
<!-- Generator: Adobe Illustrator 27.5.0, SVG Export Plug-In . SVG Version: 6.00 Build 0)  -->
<svg xmlns="http://www.w3.org/2000/svg" xmlns:xlink="http://www.w3.org/1999/xlink" viewBox="0 0 4000 4000" width="595" height="842" preserveAspectRatio="xMidYMid meet" data-scaled="true">
<rect style="fill:#FFFFFF;stroke:#FFFFFF;stroke-miterlimit:10;" width="4000" height="4000"/>
<g>
	<path d="M2183.143,3475.312c-3.727,1.871-3.498,4.651-3.701,7.189c-5.091,63.622-23.358,123.724-48.962,181.789
		c-22.496,51.017-48.919,99.969-79.428,146.643c-10.143,15.517-21.237,30.426-32.247,45.354c-3.422,4.639-7.659,8.839-12.129,12.501
		c-5.748,4.711-11.753,4.282-17.18-0.78c-3.076-2.87-5.724-6.242-8.316-9.58c-31.296-40.298-58.36-83.311-82.633-128.158
		c-19.209-35.491-36.075-71.941-49.227-110.168c-15.242-44.299-26.765-89.313-30.024-136.206c-0.183-2.632-0.381-5.3-0.986-7.853
		c-0.45-1.898-2.187-1.879-3.628-1.055c-0.872,0.499-1.573,1.385-2.201,2.211c-21.911,28.82-36.087,60.952-41.607,96.834
		c-2.018,13.116-3.807,26.233-3.635,39.544c0.062,4.793-0.353,9.523-2.12,14.065c-2.22,5.707-7.052,7.921-12.668,5.901
		c-4.643-1.67-8.091-4.969-11.679-8.1c-34.36-29.987-61.854-65.47-83.181-105.635c-26.343-49.61-43.186-102.425-51.093-158.037
		c-1.192-8.381-1.25-16.917-2.175-25.344c-0.707-6.438-2.591-8.193-9.319-8.347c-19.083-0.435-38.182-0.305-57.257-0.936
		c-32.162-1.063-56.669-15.645-73.333-43.123c-8.155-13.446-11.922-28.221-11.822-43.964c0.159-24.921,0.393-49.842,0.439-74.763
		c0.033-18.028-0.409-36.06-0.181-54.083c0.085-6.724-2.076-10.928-8.514-13.376c-22.238-8.457-35.667-25.852-45.9-46.254
		c-5.79-11.543-8.93-23.767-8.397-36.814c0.151-3.699,0.065-7.421-0.168-11.116c-0.189-2.998-1.946-4.923-5.062-4.792
		c-5.291,0.223-10.603,0.458-15.848,1.138c-47.293,6.141-94.692,11.601-141.827,18.789c-59.17,9.023-118.193,19.075-177.144,29.456
		c-47.991,8.45-95.842,17.734-143.642,27.219c-36.882,7.319-73.59,15.53-109.73,26.029c-5.745,1.669-11.218,2.662-17.056,0.375
		c-7.006-2.745-10.453-6.78-10.335-14.246c0.066-4.181,0.944-8.408,1.907-12.508c7.271-30.962,15.591-61.652,25.244-91.95
		c19.952-62.624,41.375-124.743,67.324-185.171c35.783-83.331,75.142-164.849,121.11-243.189
		c63.468-108.165,135.371-210.327,214.293-307.675c47.822-58.987,98.998-114.843,154.661-166.527
		c9.705-9.011,19.643-17.828,30.037-26.02c5.625-4.433,7.758-9.32,7.704-16.282c-0.217-28.101,0.097-56.207-0.051-84.309
		c-0.759-143.705-0.139-287.408,1.323-431.104c0.485-47.711,3.923-95.343,7.81-142.912c2.849-34.869,5.972-69.701,9.937-104.471
		c5.406-47.422,13.257-94.454,20.927-141.531c15.966-97.995,40.889-193.836,69.059-288.898c5.115-17.263,10.624-34.463,17.04-51.277
		c24.367-63.864,49.103-127.579,77.575-189.785c17.449-38.124,37.037-75.099,57.815-111.458
		c30.534-53.43,62.531-106.059,100.44-154.568c39.818-50.951,81.068-100.855,128.61-145.045
		c19.067-17.723,39.865-33.259,61.432-47.823c23.756-16.043,49.973-20.017,77.547-15.388c14.764,2.479,28.094,9.607,40.216,18.323
		c13.766,9.897,27.565,19.872,40.394,30.924c40.643,35.016,78.615,72.736,112.029,114.822c15.82,19.926,31.498,39.978,46.733,60.354
		c38.814,51.911,71.913,107.397,102.767,164.334c47.363,87.404,85.485,178.685,116.729,272.966
		c20.838,62.879,41.845,125.696,56.422,190.416c14.789,65.661,28.438,131.561,38.505,198.129
		c7.053,46.639,13.432,93.378,17.388,140.421c2.665,31.687,6.198,63.299,9.005,94.974c4.589,51.792,6.011,103.727,6.528,155.698
		c1.442,145.286,1.357,290.575,1.033,435.866c-0.073,32.971-1.75,27.479,21.04,51.481
		c67.925,71.539,134.484,144.329,195.445,221.954c44.527,56.699,87.542,114.546,127.921,174.357
		c42.149,62.433,82.363,126.016,118.707,191.989c33.027,59.952,61.351,122.105,86.473,185.795
		c24.197,61.344,41.067,124.751,55.57,188.886c5.624,24.867,7.552,50.296,10.475,75.563c0.061,0.526,0.06,1.059,0.074,1.589
		c0.123,5.003-1.631,7.011-6.624,6.088c-14.052-2.599-28.063-5.453-42.029-8.487c-42.959-9.333-85.741-19.552-128.869-28.014
		c-50.933-9.994-102.124-18.689-153.26-27.621c-45.918-8.021-91.885-15.781-137.885-23.316
		c-38.163-6.251-76.404-12.018-114.615-17.973c-7.846-1.222-15.696-2.458-23.576-3.414c-3.04-0.368-4.986,1.58-5.27,4.588
		c-0.398,4.217-0.438,8.467-0.7,12.698c-1.847,29.819-14.233,54.019-38.773,71.426c-14.693,10.423-15.764,9.303-15.869,31.445
		c-0.158,33.406-0.23,66.812-0.379,100.218c-0.042,9.544-0.415,19.089-0.309,28.63c0.534,48.056-48.262,82.929-81.434,82.825
		c-15.373-0.048-30.753-0.251-46.118,0.129c-31.86,0.788-25.058-2.331-30.648,25.777c-12.2,61.341-32.738,119.567-63.538,173.934
		c-21.863,38.59-49.967,72.338-84.031,100.941c-2.013,1.691-4.136,3.356-6.455,4.557c-5.968,3.089-13.512-0.703-14.605-7.387
		c-0.509-3.113-0.373-6.34-0.423-9.516c-0.63-39.888-9.448-77.711-28.291-113.051
		C2195.52,3493.294,2190.276,3483.605,2183.143,3475.312z M1417.56,2002.949c0,71.997,0.128,138.805-0.028,205.613
		c-0.281,120.354-0.737,240.707-1.096,361.061c-0.018,5.83-0.021,11.673,0.352,17.486c0.391,6.084,1.922,7.551,7.611,7.858
		c4.232,0.229,8.481,0.182,12.722,0.179c151.114-0.088,302.228-0.185,453.342-0.291c3.181-0.002,6.371,0.018,9.538-0.216
		c5.712-0.423,6.921-1.754,7.589-7.943c0.17-1.58,0.163-3.177,0.286-4.763c3.995-51.811,9.206-103.468,18.895-154.589
		c6.431-33.93,15.065-67.192,28.729-99.013c4.209-9.803,9.296-19.117,16.347-27.14c18.366-20.898,36.821-22.147,55.923,0.428
		c6.901,8.156,11.756,17.606,16.066,27.33c12.314,27.78,19.747,57.042,25.947,86.635c10.563,50.413,16.317,101.471,19.896,152.805
		c0.516,7.403,1.181,14.797,1.869,22.187c0.28,3.007,2.01,4.822,5.107,4.958c3.173,0.14,6.354,0.155,9.532,0.15
		c153.765-0.202,307.53-0.41,461.294-0.624c3.711-0.005,7.432,0.083,11.131-0.152c4.881-0.309,6.199-1.777,6.439-7.108
		c0.167-3.703,0.034-7.421,0.003-11.132c-0.336-40.295-0.929-80.59-0.977-120.886c-0.242-204.667-0.213-409.334-0.549-614
		c-0.164-99.681-0.647-199.363-1.554-299.04c-0.313-34.445-1.369-68.945-3.84-103.294c-3.117-43.34-6.447-86.683-11.268-129.902
		c-4.35-38.989-9.265-77.885-15.557-116.595c-5.184-31.902-10.717-63.753-16.571-95.539
		c-14.885-80.826-32.987-160.878-57.848-239.311c-12.651-39.912-26.16-79.518-40.795-118.741c-1.85-4.959-3.889-9.851-5.962-14.722
		c-1.21-2.846-3.513-3.925-6.405-2.766c-3.929,1.576-7.784,3.346-11.61,5.164c-23.553,11.193-48.215,19.308-73.527,25.201
		c-43.38,10.1-87.304,17.342-131.563,22.26c-56.418,6.269-113.085,8.864-169.817,9.777c-44.003,0.708-87.972-0.198-131.975-1.893
		c-42.953-1.655-85.666-4.945-128.322-10.009c-62.767-7.452-124.339-20.357-184.967-38.168
		c-24.926-7.323-19.986-11.752-30.922,15.326c-17.474,43.266-32.045,87.611-44.804,132.445
		c-24.086,84.63-44.681,170.133-59.686,256.893c-8.038,46.478-15.579,93.042-20.364,139.993
		c-3.922,38.491-8.078,76.969-11.214,115.528c-3.395,41.739-6.568,83.532-7.205,125.425c-0.677,44.53-0.9,89.073-0.769,133.609
		C1417.334,1771.662,1415.733,1889.903,1417.56,2002.949z M831.282,2960.016c3.011,2.326,6.146,1.049,9.112,0.268
		c52.282-13.772,105.375-23.82,158.447-33.814c70.266-13.23,140.663-25.778,211.369-36.513
		c54.466-8.27,108.866-17.013,163.583-23.485c16.892-1.998,16.52,0.092,16.448-19.161c-0.219-58.841-0.611-117.683-0.524-176.523
		c0.12-81.104,0.686-162.208,0.932-243.313c0.193-63.612,0.179-127.224,0.281-190.835c0.069-42.938,0.195-85.875,0.257-128.813
		c0.008-5.299-0.143-10.602-0.375-15.897c-0.112-2.57-0.101-5.65-3.041-6.613c-2.145-0.702-3.812,1.307-5.415,2.696
		c-18.449,15.967-36.449,32.433-53.101,50.271c-23.51,25.184-47.123,50.292-69.944,76.094
		c-61.546,69.583-116.61,144.236-169.866,220.211c-26.768,38.187-50.26,78.526-74.464,118.391
		c-28.084,46.255-53.582,93.899-77.237,142.482c-24.575,50.474-47.321,101.802-67.722,154.17
		c-12.884,33.074-26.442,65.868-36.619,99.919C832.385,2952.964,830.087,2956.165,831.282,2960.016z M2610.252,2467.849
		c0.086,0,0.171,0,0.257,0c0,108.7-0.023,217.399,0.021,326.098c0.008,20.148,0.197,40.299,0.497,60.445
		c0.099,6.645,1.046,7.448,7.085,8.263c23.622,3.191,47.28,6.128,70.862,9.593c33.017,4.851,65.999,9.957,98.956,15.205
		c26.678,4.249,53.275,9.01,79.948,13.295c55.454,8.91,110.681,19.101,165.625,30.671c40.418,8.512,80.518,18.532,120.756,27.894
		c19.506,4.538,19.679,4.381,14.548-14.21c-0.141-0.512-0.293-1.02-0.436-1.53c-26.754-95.405-68.085-184.785-112.741-272.791
		c-17.056-33.613-38.199-64.826-57.042-97.384c-15.681-27.093-32.246-53.584-49.96-79.378c-9.003-13.109-17.789-26.367-26.872-39.42
		c-42.105-60.501-85.916-119.719-132.326-177.016c-53.427-65.961-108.928-130.062-168.672-190.412
		c-2.903-2.932-5.596-8.713-9.504-7.379c-5.567,1.9-2.622,8.292-2.607,12.648
		C2609.083,2217.577,2609.681,2342.713,2610.252,2467.849z M1967.188,647.595c56.572,0.309,98.41-0.423,140.251-2.12
		c62.028-2.517,123.56-9.193,184.644-20.133c26.646-4.772,52.555-12.289,77.935-21.632c6.064-2.232,6.875-4.003,4.597-9.435
		c-3.071-7.321-6.405-14.537-9.782-21.724c-26.887-57.215-59.999-110.85-95.177-163.189
		c-40.269-59.912-84.894-116.402-135.901-167.69c-21.318-21.434-42.966-42.467-67.004-60.878
		c-12.215-9.356-24.786-18.214-39.209-23.93c-21.388-8.476-42.418-8.342-62.577,3.641c-8.181,4.863-16.271,9.975-23.905,15.643
		c-18.735,13.91-36.494,29.026-53.117,45.417c-57.904,57.096-109.782,119.181-155.157,186.722
		c-22.191,33.031-41.166,67.936-61.181,102.243c-15.227,26.101-28.941,52.976-41.668,80.367
		c-8.231,17.716-8.219,17.731,11.186,22.345c4.121,0.979,8.238,2.005,12.4,2.783c20.807,3.889,41.615,7.78,62.449,11.525
		c35.474,6.377,71.26,10.823,107.138,13.488C1875.937,644.962,1928.87,647.784,1967.188,647.595z M2339.079,2610.869
		c0,0.063,0,0.126,0,0.189c-75.263,0-150.527-0.003-225.79,0.007c-4.24,0.001-8.486-0.028-12.717,0.192
		c-6.438,0.334-7.635,1.437-7.702,7.437c-0.059,5.295,0.252,10.594,0.415,15.891c1.205,39.199,2.932,78.391,3.511,117.599
		c1.102,74.722,2.228,149.454,0.172,224.184c-0.511,18.57,0.57,16.411,16.444,16.398c149.998-0.115,299.995-0.288,449.993-0.454
		c4.77-0.005,9.546,0.02,14.307-0.211c6.198-0.301,7.68-1.66,7.98-7.351c0.223-4.229,0.124-8.477,0.114-12.716
		c-0.266-114.486-0.538-228.972-0.809-343.458c-0.005-2.12,0.046-4.242-0.01-6.36c-0.284-10.554-0.696-11.018-10.578-11.31
		c-3.707-0.109-7.42-0.035-11.13-0.035C2488.546,2610.868,2413.813,2610.869,2339.079,2610.869z M1656.099,2992.637
		c74.232,0,148.463,0.007,222.695-0.014c5.299-0.001,10.607-0.052,15.894-0.368c3.657-0.219,5.87-2.566,6.03-6.166
		c0.282-6.35,0.304-12.717,0.264-19.076c-0.716-115.067-0.285-230.115,5.438-345.08c0.512-10.281,0.038-10.703-10.35-10.945
		c-3.179-0.074-6.362-0.005-9.544-0.004c-150.583,0.047-301.166,0.093-451.749,0.142c-3.712,0.001-7.429-0.101-11.133,0.071
		c-5.99,0.278-7.078,1.318-7.315,7.856c-0.481,13.246-0.993,26.499-1.045,39.751c-0.404,104.984-0.715,209.968-1.024,314.953
		c-0.06,20.567-0.776,18.839,19.144,18.855C1507.636,2992.669,1581.868,2992.634,1656.099,2992.637z M1843.813,3331.855
		c-0.891,8.015-2.448,16.34-2.631,24.696c-0.686,31.263-1.208,62.537-1.225,93.806c-0.011,20.672,0.935,41.371,5.086,61.712
		c14.712,72.092,38.695,140.954,73.73,205.7c17.146,31.686,36.081,62.387,56.307,92.243c4.754,7.018,9.68,13.927,14.757,20.715
		c8.541,11.419,8.879,11.358,17.688-0.304c0.958-1.268,1.858-2.581,2.797-3.864c50.418-68.886,89.79-143.699,119.252-223.717
		c18.47-50.164,28.724-101.879,27.165-155.635c-0.661-22.783-0.594-45.585-1.158-68.371c-0.341-13.774-1.134-27.541-1.98-41.295
		c-0.306-4.962-2.157-6.717-6.984-6.793c-10.598-0.167-21.203-0.064-31.804,0.056c-13.657,0.154-13.785,0.167-18.066,13.636
		c-9.662,30.395-29.709,49.454-61.05,56.2c-24.741,5.326-49.704,5.591-73.966-1.293c-28.67-8.135-50.084-24.992-57.451-55.746
		c-0.982-4.1-2.522-8.066-3.763-11.965C1887.772,3329.988,1857.197,3330.044,1843.813,3331.855z M2081.208,2782.594
		c-0.432-20.116-0.756-40.792-1.344-61.46c-2.168-76.296-3.181-152.656-12.996-228.523c-5.927-45.813-14.664-91.022-29.239-134.933
		c-3.495-10.529-8.079-20.717-12.514-30.907c-2.764-6.351-6.852-11.951-11.856-16.801c-10.486-10.16-16.943-10.149-26.803,0.323
		c-8.083,8.584-14.225,18.504-18.457,29.479c-3.428,8.889-6.474,17.939-9.374,27.018c-15.895,49.763-22.682,101.235-28.434,152.888
		c-5.461,49.036-7.236,98.325-9.329,147.564c-4.007,94.311-4.24,188.685-3.083,283.063c0.136,11.133,0.292,22.269,0.713,33.393
		c0.306,8.102,1.443,9.223,9.34,9.223c26.509-0.001,53.019-0.195,79.527-0.252c21.208-0.046,42.416,0.099,63.622-0.042
		c8.105-0.054,9.369-1.298,9.548-9.085c0.365-15.9,0.625-31.806,0.65-47.71C2081.257,2884.938,2081.208,2834.043,2081.208,2782.594z
		 M1617.519,619.977c-1.433,2.02-2.81,3.609-3.8,5.41c-13.298,24.209-23.864,49.612-32.892,75.679c-0.52,1.5-0.974,3.03-1.339,4.574
		c-1.125,4.751-0.334,7.059,4.035,8.954c5.812,2.521,11.756,4.813,17.796,6.72c53.172,16.797,107.667,27.452,162.878,34.672
		c53.638,7.014,107.573,10.708,161.595,12.088c93.271,2.384,186.498,1.734,279.428-8.432c40.573-4.439,80.852-10.492,120.669-19.532
		c30.563-6.94,60.103-16.947,88.817-29.432c8.129-3.535,8.829-4.814,5.155-13.248c-11.21-25.73-22.684-51.345-34.204-76.938
		c-2.36-5.242-4.563-6.04-10.175-3.68c-11.741,4.937-23.777,8.881-36.069,12.195c-60.117,16.208-121.762,22.79-183.49,28.043
		c-63.932,5.442-128.114,5.314-192.242,4.748c-46.637-0.412-93.185-2.794-139.693-6.649c-35.4-2.935-70.61-6.922-105.596-12.973
		C1684.532,636.319,1650.748,630.099,1617.519,619.977z M1689.983,3111.426c0-0.036,0-0.073,0-0.109
		c-65.199,0-130.398-0.002-195.597,0.006c-3.706,0.001-7.416-0.008-11.116,0.174c-3.104,0.153-4.712,2.172-5.009,5.08
		c-0.268,2.627-0.23,5.292-0.233,7.94c-0.04,37.105-0.073,74.21-0.074,111.316c0,3.708,0.1,7.424,0.347,11.124
		c2.34,35.224,32.884,58.355,56.738,59.112c7.94,0.252,15.877,0.867,23.816,0.883c108.135,0.211,216.27,0.346,324.404,0.499
		c2.65,0.004,5.302,0.056,7.951-0.016c10.505-0.284,11.228-1.027,11.533-12.183c0.116-4.238,0.06-8.48,0.034-12.721
		c-0.319-50.355-0.661-100.711-0.967-151.067c-0.132-21.676,1.651-20.039-19.411-20.038
		C1818.259,3111.427,1754.121,3111.426,1689.983,3111.426z M2314.813,3112.715c-67.876,0-135.753-0.001-203.629,0.002
		c-3.181,0-6.372-0.126-9.541,0.073c-4.738,0.298-6.089,1.863-6.484,7.095c-0.12,1.584-0.122,3.18-0.116,4.77
		c0.212,55.147,0.409,110.295,0.696,165.442c0.021,4.219,0.539,8.452,1.093,12.644c0.389,2.945,2.363,4.741,5.356,4.829
		c4.235,0.125,8.48,0.026,12.719-0.088c20.672-0.556,41.341-1.316,62.016-1.701c84.31-1.57,168.625-0.595,252.939-0.483
		c13.254,0.017,26.512-0.259,39.763-0.586c23.379-0.578,39.979-12.32,51.513-31.956c6.589-11.218,9.529-23.47,9.524-36.493
		c-0.016-37.65,0.062-75.3,0.083-112.95c0.002-2.116-0.125-4.236-0.278-6.347c-0.182-2.516-1.991-3.649-4.114-4.115
		c-1.514-0.332-3.15-0.133-4.731-0.133C2452.686,3112.712,2383.75,3112.713,2314.813,3112.715z M2611.61,2922.559
		c-0.021,0-0.042,0-0.063,0c0,11.132-0.167,22.268,0.047,33.396c0.214,11.143,1.253,12.118,12.697,14.013
		c2.09,0.345,4.216,0.46,6.313,0.766c16.772,2.444,33.576,4.692,50.303,7.413c36.589,5.95,73.138,12.146,109.705,18.237
		c33.957,5.656,67.958,11.068,101.862,17.024c38.6,6.781,77.142,13.9,115.658,21.141c38.507,7.24,76.997,14.589,115.406,22.329
		c21.798,4.392,43.405,9.724,65.126,14.502c5.05,1.111,7.298-0.939,6.355-5.817c-5.027-26.003-10.264-51.966-15.295-77.969
		c-1.502-7.76-6.003-11.5-13.726-12.964c-22.365-4.238-44.63-9.001-66.944-13.508c-36.847-7.441-73.706-14.82-110.552-22.267
		c-27.505-5.559-54.919-11.603-82.514-16.667c-31.25-5.735-62.634-10.748-93.998-15.841c-48.623-7.895-97.247-15.791-145.936-23.256
		c-15.685-2.405-31.564-3.613-47.384-5.034c-5.038-0.452-6.934,1.448-7.001,6.338
		C2611.494,2897.114,2611.61,2909.837,2611.61,2922.559z M1389.672,2927.794c0.183,0,0.366,0,0.548,0
		c0-11.131,0.049-22.263-0.031-33.394c-0.023-3.166-0.248-6.354-0.705-9.485c-0.326-2.235-1.836-3.809-4.26-3.771
		c-3.168,0.048-6.362,0.15-9.495,0.585c-25.184,3.497-50.384,6.894-75.526,10.675c-38.23,5.749-76.433,11.684-114.619,17.718
		c-47.075,7.439-94.21,14.531-140.931,24.069c-51.364,10.486-102.77,20.765-154.133,31.258c-18.67,3.814-37.39,7.417-55.673,12.978
		c-7.147,2.173-11.843,5.726-14.07,13.351c-7.125,24.402-14.861,48.625-22.263,72.947c-0.758,2.491-1.037,5.174-1.191,7.788
		c-0.105,1.783,1.389,2.971,2.991,2.826c3.128-0.282,6.26-0.852,9.311-1.618c39.553-9.937,79.221-19.378,119.286-27.033
		c48.374-9.243,96.698-18.791,145.203-27.296c52.688-9.238,105.464-18.078,158.378-25.891c49.777-7.351,99.785-13.134,149.69-19.614
		c6.104-0.793,7.323-1.783,7.425-7.932C1389.819,2953.237,1389.672,2940.514,1389.672,2927.794z M2078.547,3220.369
		c-0.073-0.001-0.146-0.001-0.219-0.002c0.41-30.172,0.83-60.344,1.219-90.516c0.055-4.232,0.12-8.475-0.128-12.696
		c-0.171-2.925-1.936-4.912-4.979-5.167c-3.153-0.264-6.331-0.328-9.498-0.317c-43.409,0.147-86.817,0.32-130.226,0.502
		c-3.172,0.013-6.351,0.045-9.514,0.253c-3.004,0.196-4.819,1.939-5.146,4.94c-0.229,2.098-0.232,4.228-0.232,6.344
		c0.022,61.408,0.027,122.815,0.127,184.223c0.014,8.469,1.011,16.829,2.675,25.202c4.631,23.306,19.056,37.626,41.164,43.652
		c21.651,5.901,43.85,6.208,66.114,2.423c29.324-4.987,46.408-31.625,47.83-52.468c0.468-6.858,0.759-13.742,0.779-20.615
		C2078.596,3277.541,2078.547,3248.955,2078.547,3220.369z M2341.995,3008.859c0-0.284-0.001-0.568-0.001-0.853
		c-52.492,0-104.985-0.094-157.476,0.039c-26.51,0.067-53.019,0.484-79.526,0.88c-6.365,0.095-7.458,1.054-7.734,7.471
		c-0.798,18.538-1.436,37.086-1.858,55.636c-0.358,15.703-0.186,15.774,15.539,15.789c128.316,0.117,256.631,0.21,384.947,0.292
		c5.301,0.004,10.606-0.074,15.902-0.294c36.176-1.505,67.534-30.952,72.325-64.835c2.042-14.441,1.609-15.457-13.067-15.379
		C2494.696,3008.011,2418.346,3008.439,2341.995,3008.859z M1657.384,3008.316c0,0.175,0,0.349,0,0.525
		c-75.801,0-151.602-0.001-227.404,0.003c-3.18,0-6.368-0.089-9.538,0.103c-4.779,0.29-6.254,2.115-6.093,7.205
		c0.05,1.588,0.126,3.187,0.367,4.754c4.747,30.972,30.103,57.729,60.498,64.574c11.482,2.585,23.138,2.633,34.805,2.628
		c124.573-0.059,249.147-0.12,373.72-0.184c3.18-0.002,6.366,0.058,9.54-0.099c6.924-0.342,8.335-1.551,8.362-8.577
		c0.064-16.962-0.034-33.927-0.293-50.888c-0.317-20.687,2-20.047-19.734-20.045
		C1806.871,3008.319,1732.127,3008.316,1657.384,3008.316z M2280.009,3328.745c0,0.14,0,0.28,0,0.42
		c-27.532,0-55.064-0.013-82.596,0.013c-4.234,0.004-8.478,0.034-12.698,0.327c-5.286,0.366-6.703,1.72-6.962,6.594
		c-0.196,3.695-0.08,7.41-0.033,11.115c0.281,22.765,1.01,45.535,0.683,68.292c-0.147,10.2,2.652,18.319,9.287,26.002
		c14.235,16.481,26.01,34.729,36.129,54.006c14.191,27.032,23.18,55.595,24.882,86.253c0.176,3.163,0.426,6.362,1.118,9.436
		c0.274,1.217,1.7,2.408,2.899,3.078c0.522,0.292,2.038-0.533,2.689-1.235c13.689-14.738,27.415-29.433,38.928-46.03
		c43.934-63.338,69.463-133.993,83.4-209.272c0.284-1.534,0.123-3.147,0.22-4.72c0.123-1.989-1.427-3.171-2.741-3.387
		c-3.624-0.596-7.34-0.848-11.019-0.856C2336.133,3328.717,2308.071,3328.745,2280.009,3328.745z M1816.784,3379.215
		c0.145,0.004,0.289,0.008,0.433,0.012c0.398-12.179,0.889-24.357,1.169-36.538c0.293-12.754,1.778-14.38-13.662-14.165
		c-1.06,0.015-2.12,0.002-3.179,0.011c-53.513,0.437-107.025,0.873-160.537,1.314c-2.119,0.018-4.243,0.004-6.356,0.144
		c-6.348,0.422-7.465,1.533-7.276,7.616c0.115,3.703,0.325,7.426,0.854,11.088c3.711,25.703,8.408,51.204,15.895,76.121
		c18.09,60.208,47.484,114.234,88.539,161.875c2.058,2.387,4.284,4.684,6.72,6.669c1.425,1.161,3.407,0.094,3.82-1.302
		c1.047-3.532,1.624-7.212,2.257-10.856c8.692-50.033,27.998-95.364,60.379-134.712c6.778-8.237,10.156-16.952,10.079-27.557
		C1815.822,3405.698,1816.463,3392.455,1816.784,3379.215z M1998.141,3088.015c0-0.079,0-0.157,0-0.236
		c22.754,0,45.51,0.113,68.263-0.044c12.675-0.087,12.745-0.324,12.966-12.13c0.327-17.459,0.603-34.919,0.889-52.378
		c0.034-2.116,0.089-4.238-0.027-6.348c-0.339-6.193-1.631-7.583-7.325-7.963c-1.581-0.105-3.174-0.074-4.761-0.072
		c-46.037,0.094-92.074,0.186-138.111,0.303c-2.637,0.007-5.287,0.104-7.907,0.383c-2.289,0.243-3.957,1.55-4.187,3.961
		c-0.25,2.62-0.343,5.269-0.289,7.901c0.365,17.987,0.781,35.973,1.198,53.96c0.049,2.113,0.127,4.231,0.333,6.334
		c0.349,3.575,2.134,5.897,5.942,6.085c3.168,0.156,6.343,0.231,9.515,0.234C1955.806,3088.024,1976.973,3088.015,1998.141,3088.015
		z"/>
	<path d="M3352.821,2032.705c-29.774,0.468-61.779-3.245-93.249-11.5c-38.236-10.03-74.067-25.58-106.963-47.482
		c-39.973-26.613-75.753-57.72-104.024-97.081c-37.535-52.259-61.434-109.779-69.317-173.752
		c-6.173-50.104-2.806-99.654,12.184-147.825c25.384-81.577,72.952-147.52,142.581-197.436
		c52.833-37.876,111.509-60.118,175.99-67.717c13.191-1.554,26.345-2.507,39.595-2.902c59.429-1.767,115.799,11.115,169.329,36.301
		c65.453,30.797,117.857,76.883,155.745,138.538c22.874,37.222,39.663,77.362,47.925,120.49
		c11.514,60.1,12.268,120.198-4.701,179.506c-11.459,40.053-30.495,76.842-53.642,111.274
		c-49.628,73.823-118.399,121.426-203.527,145.987C3426.381,2029.022,3391.299,2033.498,3352.821,2032.705z M3359.329,1302.436
		c-43.778-1.578-85.214,6.605-125.672,20.204c-37.045,12.452-70.345,32.093-101.388,55.502
		c-45.665,34.435-81.273,77.414-105.874,129.092c-21.67,45.522-33.576,93.392-34.751,144.142
		c-1.555,67.115,14.805,129.211,49.448,186.392c46.254,76.348,112.237,128.749,195.915,159.323
		c33.615,12.282,68.221,19.885,103.905,21.448c66.622,2.917,129.594-11.459,188.325-43.03
		c80.212-43.118,133.668-109.943,166.261-193.646c22.022-56.555,24.714-115.83,16.162-175.484
		c-8.745-61.009-32.98-116.026-68.794-165.816c-29.692-41.278-69.633-71.334-113.597-95.433
		C3476.369,1316.134,3419.32,1301.026,3359.329,1302.436z"/>
	<path d="M3253.083,308.313c-0.209,4.958-2.272,8.521-5.973,11.082c-6.186,4.283-13.126,6.981-20.395,8.553
		c-17.588,3.802-35.242,7.307-52.875,10.898c-2.074,0.423-4.214,0.528-6.282,0.972c-3.397,0.729-5.518,2.736-6.243,6.286
		c-1.058,5.187-2.199,10.362-3.521,15.487c-4.231,16.404-8.308,32.854-12.979,49.133c-1.878,6.547-4.372,13.094-9.499,18.114
		c-3.948,3.866-8.501,4.068-12.697,0.387c-6.219-5.455-9.714-12.649-11.73-20.379c-3.741-14.337-6.956-28.813-10.283-43.256
		c-1.652-7.172-3.066-14.399-4.589-21.601c-6.824-4.652-14.979-4.987-22.646-6.498c-19.238-3.792-38.332-8.054-56.987-14.123
		c-3.493-1.136-7.097-2.372-10.14-4.346c-5.263-3.413-5.616-10.814-0.906-15.067c5.178-4.677,11.406-7.5,17.955-9.876
		c16.528-5.997,33.769-8.861,50.942-12.023c26.349-4.852,21.066-1.466,26.404-25.512c4.135-18.626,8.6-37.14,15.433-55
		c1.704-4.454,3.318-8.948,6.71-12.503c3.688-3.865,9.475-3.802,12.262,0.737c2.748,4.475,5.038,9.318,6.887,14.241
		c7.086,18.861,13.361,38.063,16.961,57.862c2.253,12.397,7.845,17.466,20.564,18.803c18.911,1.987,37.491,6.762,55.5,13.211
		c4.469,1.601,8.897,3.422,13.114,5.591C3251.617,301.312,3253.324,304.593,3253.083,308.313z M3127.807,210.157
		c-3.655,4.485-4.521,9.238-5.463,13.88c-3.052,15.045-5.858,30.139-8.897,45.187c-4.629,22.919-2.554,22.737-26.541,25.453
		c-20.079,2.274-39.611,6.909-58.883,12.793c-0.66,0.202-1.054,1.28-1.861,2.324c5.125,4.544,11.779,4.851,17.717,6.508
		c17.861,4.981,36.018,8.63,54.435,11.054c9.624,1.266,10.226,2.478,11.938,11.735c3.177,17.183,6.311,34.381,9.937,51.472
		c1.519,7.161,2.993,14.539,7.395,20.702c3.844-1.314,4.37-4.516,5.243-7.563c5.255-18.353,9.445-36.941,12.544-55.78
		c0.687-4.176,1.708-8.297,2.379-12.475c0.895-5.57,4.249-7.697,9.646-8.69c22.91-4.213,45.753-8.794,68.6-13.341
		c3.317-0.66,7.159-0.779,8.83-4.714c-3.124-2.946-6.77-3.618-10.401-4.337c-21.291-4.213-42.506-8.895-63.912-12.401
		c-7.631-1.25-10.742-4.304-12.398-11.592c-4.693-20.651-10.138-41.13-15.323-61.668
		C3132.029,215.683,3131.837,212.308,3127.807,210.157z"/>
	<path d="M749.992,882.897c-0.269,6.704-2.268,9.286-5.305,10.531c-5.366,2.199-10.848,4.27-16.461,5.681
		c-17.457,4.388-35.002,8.426-52.505,12.629c-27.742,6.663-20.652,2.851-27.562,27.669c-4.828,17.339-8.706,34.941-13.459,52.301
		c-1.66,6.067-4.202,12.016-7.19,17.562c-2.916,5.414-9.453,5.309-13.098,0.26c-4.1-5.678-6.201-12.312-8.054-18.917
		c-5.437-19.375-11.041-38.723-15.683-58.295c-4.564-19.239-4.035-16.054-19.815-19.882c-19.027-4.615-38.437-7.602-57.236-13.25
		c-6.114-1.836-12.221-3.572-16.736-8.541c-4.234-4.659-3.881-9.911,1.118-13.675c6.482-4.882,14.139-7.181,21.749-9.43
		c18.305-5.411,36.997-9.163,55.763-12.551c1.562-0.282,3.152-0.458,4.737-0.551c5.536-0.326,8.528-3.256,9.802-8.63
		c3.177-13.397,6.447-26.776,9.976-40.084c2.171-8.185,4.659-16.306,7.431-24.308c2.405-6.938,4.324-15.492,13.284-16.033
		c9.733-0.587,11.001,8.641,13.388,15.33c5.52,15.466,10.252,31.199,13.726,47.278c1.119,5.177,2.33,10.337,3.34,15.535
		c1.353,6.961,4.759,11.278,12.412,12.241c10.495,1.32,20.971,3.075,31.302,5.343c11.878,2.608,23.619,5.867,35.358,9.069
		c5.637,1.538,10.981,3.918,15.616,7.608C748.516,879.879,750.011,882.564,749.992,882.897z M519.142,885.342
		c13.956,5.142,27.922,8.122,41.933,10.847c9.355,1.82,18.776,3.344,28.212,4.688c6.683,0.952,10.399,4.64,11.823,11.036
		c0.345,1.548,0.935,3.04,1.295,4.585c4.679,20.116,9.316,40.242,14.021,60.351c0.763,3.262,1.205,6.803,4.523,9.063
		c3.102-4.593,3.638-9.357,4.738-13.982c4.29-18.037,8.903-35.998,13.058-54.065c2.109-9.17,6.461-14.751,16.558-16.318
		c14.104-2.188,28.016-5.677,41.952-8.861c9.175-2.096,18.606-3.44,27.207-7.636c-1.218-3.171-3.622-4.186-6.252-4.823
		c-8.743-2.117-17.424-4.587-26.261-6.202c-14.579-2.665-29.239-4.912-43.909-7.031c-4.977-0.719-7.571-3.204-8.41-7.942
		c-0.276-1.564-0.761-3.106-0.891-4.679c-1.675-20.241-7.74-39.438-13.854-58.627c-0.655-2.055-1.396-4.006-3.992-4.547
		c-3.051,3.685-4.418,8.17-5.589,12.747c-3.939,15.394-8.218,30.711-11.735,46.201c-3.648,16.063-3.298,16.403-19.94,18.185
		c-19.556,2.094-38.769,5.639-57.513,11.639C523.625,880.77,520.904,881.169,519.142,885.342z"/>
	<path d="M3502.711,904.452c-1.724-0.895-4.326-1.716-6.235-3.348c-4.135-3.539-6.01-8.562-7.941-13.529
		c-7.696-19.8-13.784-39.971-15.697-61.279c-0.823-9.169-1.146-9.498-10.385-10.819c-17.338-2.481-34.279-6.563-50.852-12.083
		c-7.501-2.498-14.889-5.545-21.951-9.094c-8.162-4.102-8.584-14.405-0.838-19.108c4-2.428,8.646-3.97,13.18-5.306
		c16.255-4.791,32.864-8.043,49.576-10.77c21.731-3.545,17.622-1.107,22.719-19.755c3.759-13.754,8.57-27.233,13.241-40.72
		c1.721-4.969,4.08-9.783,6.676-14.369c6.183-10.924,13.377-10.878,19.808,0.259c2.89,5.007,5.245,10.416,7.143,15.885
		c5.555,15.999,10.578,32.147,12.24,49.15c0.636,6.505,0.966,6.869,7.708,7.673c21.64,2.578,42.557,8.163,63.233,14.784
		c6.04,1.935,12.087,4.002,17.046,8.208c3.89,3.301,3.985,8.993,0.199,12.547c-2.744,2.577-6.019,4.242-9.65,5.286
		c-23.336,6.712-46.054,15.823-70.609,17.775c-6.801,0.541-6.753,0.856-7.717,7.485c-3.047,20.975-6.816,41.787-15.47,61.328
		c-2.346,5.297-5.25,10.362-8.13,15.401C3508.648,902.429,3506.196,903.636,3502.711,904.452z M3407.355,785.735
		c7.712,4.74,15.026,6.282,22.171,8.017c13.896,3.373,27.952,5.928,42.25,7.123c10.637,0.889,12.242,2.476,14.598,13.214
		c1.135,5.17,1.899,10.427,2.694,15.665c2.23,14.698,5.649,29.114,10.179,43.265c0.752,2.349,1.339,5.024,4.496,5.501
		c2.899-1.993,3.491-5.203,4.569-8.172c6.373-17.548,9.521-35.779,11.902-54.216c1.438-11.132,3.914-13.345,14.811-15.138
		c7.835-1.288,15.805-2.015,23.489-3.911c12.721-3.139,25.97-4.653,38.308-10.879c-1.223-1.718-1.843-3.586-3.022-4.059
		c-3.414-1.366-6.991-2.642-10.614-3.116c-16.274-2.13-32.031-7.38-48.562-7.956c-2.078-0.072-4.12-0.949-6.195-1.375
		c-3.484-0.714-5.646-2.826-6.377-6.237c-1.555-7.249-2.854-14.555-4.495-21.783c-2.814-12.391-5.758-24.753-8.777-37.096
		c-0.59-2.409-0.375-6.016-3.555-6.383c-4.289-0.494-4.43,3.963-5.429,6.53c-5.003,12.852-8.853,26.068-11.25,39.68
		c-1.103,6.261-1.994,12.578-3.497,18.743c-1.577,6.468-4.392,8.867-11.299,8.769c-16.074-0.228-31.628,2.914-47.074,6.675
		C3420.657,780.063,3414.226,780.841,3407.355,785.735z"/>
	<path d="M393.023,2550.186c4.417-0.39,7.577,1.616,9.307,5.115c3.041,6.148,6.129,12.37,8.205,18.878
		c4.18,13.101,7.69,26.416,11.483,39.64c1.168,4.07,2.356,8.133,3.544,12.197c1.297,4.438,4.018,6.956,8.748,8.038
		c17.013,3.893,34.004,7.913,50.883,12.343c9.188,2.412,18.31,5.303,27.137,8.799c7.91,3.134,8.791,10.593,2.603,16.345
		c-3.63,3.375-8.223,4.734-12.83,5.941c-16.883,4.424-33.751,8.913-50.705,13.044c-7.725,1.882-15.125,4.482-22.511,7.364
		c-3.583,1.398-4.735,3.422-5.236,6.848c-2.767,18.921-7.345,37.376-14.588,55.124c-2.207,5.408-4.447,10.787-8.46,15.164
		c-5.546,6.05-12.651,5.929-17.49-0.838c-2.727-3.812-4.632-8.29-6.449-12.658c-6.316-15.186-10.869-30.945-14.76-46.903
		c-0.627-2.571-1.354-5.151-1.623-7.769c-0.977-9.496-6.657-13.444-15.638-14.861c-18.327-2.891-36.108-8.132-53.714-13.901
		c-5.003-1.64-9.947-3.605-14.66-5.943c-4.466-2.216-7.949-5.799-7.159-11.264c0.693-4.791,4.749-6.954,8.944-7.989
		c13.864-3.423,27.766-6.709,41.718-9.749c11.372-2.477,22.792-4.801,34.278-6.65c5.67-0.913,8.25-3.676,9.107-9.139
		c2.468-15.72,6.53-31.09,11.413-46.2c2.758-8.535,6.437-16.79,10.009-25.037C386.119,2552.574,389.019,2550.217,393.023,2550.186z
		 M295.276,2662.937c0.743,2.667,2.269,4.009,4.432,4.593c5.102,1.377,10.187,2.844,15.341,3.998
		c14.958,3.35,29.921,6.693,44.936,9.772c6.395,1.312,10.414,4.643,12.043,11.006c1.703,6.656,3.687,13.24,5.397,19.894
		c3.55,13.82,6.137,27.913,11.759,41.141c0.982,2.311,1.177,5.696,4.667,5.333c2.231-0.232,2.757-2.866,3.472-4.771
		c0.928-2.471,1.649-5.02,2.504-7.52c5.669-16.58,9.256-33.674,11.792-50.948c1.103-7.515,4.558-10.729,11.928-12.247
		c17.077-3.516,34.011-7.776,50.901-12.133c6.026-1.555,12.471-2.596,17.336-7.166c-1.061-3.003-3.714-3.624-6.085-4.259
		c-5.614-1.504-11.265-2.95-16.979-3.986c-15.604-2.828-31.264-5.35-46.872-8.159c-7.818-1.407-8.409-2.036-9.76-10.075
		c-3.343-19.887-9.113-39.123-15.327-58.247c-0.808-2.488-1.543-5.141-5.885-5.284c-5.602,20.005-12.461,39.866-13.986,61.12
		c-0.733,10.207-3.339,12.586-13.517,14.403c-12.495,2.23-25.126,3.772-37.529,6.408
		C315.628,2657.982,304.999,2658.704,295.276,2662.937z"/>
	<path d="M402.702,1803.536c3.646-0.06,6.323,1.561,8.449,4.058c3.516,4.13,5.245,9.21,6.751,14.266
		c4.683,15.721,9.175,31.5,13.66,47.28c2.526,8.886,2.64,8.946,11.573,10.176c21.504,2.961,42.905,6.476,63.871,12.277
		c4.618,1.278,9.222,2.582,13.122,5.411c6.58,4.773,6.476,12.876-0.49,16.921c-4.534,2.633-9.54,4.571-14.513,6.31
		c-18.498,6.467-37.305,11.89-56.484,15.969c-2.071,0.44-4.17,0.751-6.243,1.185c-5.097,1.068-8.286,3.465-9.059,9.315
		c-2.088,15.808-7.191,30.917-11.982,46.051c-2.227,7.034-4.87,14.046-8.277,20.57c-4.091,7.834-12.702,8.15-17.997,0.906
		c-2.457-3.36-4.196-7.33-5.799-11.214c-5.268-12.765-8.804-26.066-11.702-39.544c-0.779-3.623-1.79-7.237-2.118-10.908
		c-0.86-9.631-5.164-14.563-15.375-16.737c-18.595-3.958-36.784-9.837-55.106-15.046c-4.564-1.297-9.205-2.656-13.43-4.752
		c-8.547-4.241-9.031-13.98-0.745-18.734c4.496-2.58,9.752-4.122,14.856-5.302c19.074-4.408,38.145-8.925,57.393-12.436
		c7.338-1.339,11.202-3.866,12.634-11.424c2.264-11.948,5.326-23.76,8.431-35.53c2.023-7.67,4.584-15.213,8.807-22.055
		C395.265,1806.769,398.288,1804.045,402.702,1803.536z M403.975,1823.702c-5.421,6.371-5.964,11.718-7.216,16.651
		c-3.643,14.349-6.974,28.778-10.507,43.155c-1.749,7.122-2.438,8.512-10.457,9.111c-17.959,1.343-35.621,4.837-53.198,8.716
		c-4.131,0.912-8.345,1.507-11.631,4.538c1.03,3.693,4.257,4.241,7.226,5.175c17.686,5.562,35.643,9.945,53.998,12.686
		c11.844,1.768,11.697,2.033,14.176,13.292c3.98,18.067,8.286,36.062,12.561,54.062c0.701,2.952,0.803,6.494,5.534,7.812
		c1.025-2.703,2.215-5.449,3.118-8.287c5.938-18.673,10.921-37.601,14.049-56.953c1.104-6.825,4.454-9.959,11.346-10.757
		c18.954-2.193,37.399-7.012,55.845-11.734c3.947-1.01,8.256-1.281,10.966-5.102c-3.416-2.905-7.517-3.779-11.687-4.655
		c-19.165-4.028-38.384-7.634-57.947-9.214c-7.063-0.57-7.906-1.566-9.554-8.346c-0.749-3.08-1.075-6.262-1.799-9.349
		C414.936,1858.05,410.28,1841.832,403.975,1823.702z"/>
	<path d="M1014.286,513.991c-1.42,0.091-3.659-1.408-5.42-3.381c-2.874-3.221-4.109-7.291-5.369-11.369
		c-5.472-17.718-9.9-35.698-12.234-54.081c-1.505-11.851-0.426-13.045-13.552-14.181c-17.446-1.51-34.208-6.686-50.427-13.31
		c-3.876-1.583-7.724-3.583-11.042-6.106c-6.239-4.745-5.975-11.791,0.699-15.547c4.55-2.56,9.623-4.323,14.63-5.915
		c16.134-5.129,32.537-9.309,49.19-12.323c6.037-1.092,9.126-3.861,10.559-9.884c3.918-16.458,8.23-32.831,14.739-48.516
		c1.821-4.388,3.429-8.878,6.813-12.432c3.308-3.474,8.161-3.384,10.94,0.379c0.933,1.263,1.849,2.605,2.434,4.048
		c7.733,19.085,17.099,37.687,18.897,58.631c0.534,6.217,3.016,9.359,9.941,9.935c18.633,1.55,36.172,7.459,53.8,13.087
		c6.25,1.996,12.546,4.162,12.552,12.139c0.005,6.995-5.75,9.827-11.041,12.155c-13.159,5.79-27.217,8.574-41.309,10.789
		c-23.958,3.765-20.476,0.277-27.396,25.075c-3.834,13.741-7.838,27.436-11.845,41.129c-1.643,5.616-4.131,10.874-7.57,15.628
		C1020.694,512.13,1018.68,513.806,1014.286,513.991z M1098.948,404.241c-3.355-1.22-6.251-2.522-9.279-3.33
		c-13.296-3.544-26.729-6.53-40.466-7.64c-16.561-1.338-16.172-3.334-17.498-16.411c-1.494-14.734-4.376-29.292-8.764-43.495
		c-0.782-2.531-1.423-5.136-4.527-6.437c-6.365,18.329-12.879,36.523-14.608,56.069c-0.626,7.072-3.215,8.902-10.372,9.369
		c-2.105,0.137-4.25-0.222-6.344-0.018c-17.357,1.691-34.484,4.391-51.161,11.562c4.174,5.915,10.414,6.427,15.699,7.624
		c12.867,2.915,25.963,4.829,38.985,7.047c10.652,1.815,13.546,4.344,15.449,14.851c0.845,4.668,1.002,9.462,1.432,14.201
		c1.15,12.671,3.305,25.167,6.519,37.474c0.404,1.545,1.486,2.893,3.315,2.362c0.823-0.239,1.645-1.247,2.018-2.102
		c0.628-1.44,0.883-3.04,1.319-4.566c5.087-17.82,8.888-35.92,12.012-54.179c1.343-7.851,2.223-8.579,9.996-9.803
		c15.662-2.465,31.339-4.84,46.991-7.366C1092.687,408.968,1096.098,409.018,1098.948,404.241z"/>
	<path d="M3575.372,2783.645c-3.458,17.164-6.362,33.333-11.452,48.963c-2.458,7.544-4.685,15.244-9.762,21.587
		c-3.269,4.085-9.079,4.029-12.349-0.066c-1.308-1.637-2.467-3.479-3.286-5.402c-1.867-4.379-3.73-8.787-5.152-13.323
		c-4.439-14.148-8.73-28.333-11.11-43.034c-1.317-8.135-1.75-8.404-10.154-9.125c-18.623-1.595-36.341-6.877-53.927-12.805
		c-6.032-2.033-10.177-5.486-10.692-12.267c-0.398-5.25,1.341-9.626,6.056-11.977c4.225-2.107,8.799-3.61,13.343-4.964
		c15.795-4.707,32.063-6.911,48.375-8.877c7.269-0.876,7.418-1.034,8.829-8.646c2.706-14.589,5.417-29.191,10.154-43.275
		c2.01-5.977,4.578-11.894,7.793-17.303c3.073-5.169,10.105-4.433,12.937,1.031c1.694,3.267,2.821,6.842,4.062,10.329
		c5.693,15.997,9.981,32.367,13.212,49.039c1.593,8.22,1.89,8.599,10.147,9.544c15.814,1.81,31.428,4.611,46.784,8.741
		c4.565,1.228,9.187,2.771,13.301,5.043c8.403,4.642,8.832,13.355,1.192,19.405c-5.922,4.69-12.958,7.379-20.129,9.143
		C3608.171,2779.19,3592.95,2784.008,3575.372,2783.645z M3547.698,2689.34c-7.22,15.593-9.707,31.667-10.735,48.105
		c-0.506,8.085-1.798,9.748-9.358,9.365c-16.104-0.817-31.345,4.586-47.139,5.838c-2.574,0.204-5.111,1.32-7.567,2.269
		c-0.703,0.271-1.494,1.457-1.46,2.187c0.038,0.826,0.812,2.135,1.52,2.336c16.772,4.767,33.47,9.848,51.094,10.62
		c13.488,0.59,13.719,0.723,14.513,14.76c0.691,12.199,2.726,24.179,4.893,36.152c0.723,3.993,1.015,8.269,4.451,11.27
		c3.327-2.474,4.023-6.155,4.919-9.744c3.463-13.881,6.35-27.826,6.717-42.23c0.203-7.978,1.195-8.736,9.232-9.994
		c14.629-2.289,29.289-4.39,43.898-6.798c4.656-0.767,9.215-2.181,13.758-3.506c0.672-0.196,1.393-1.54,1.396-2.356
		c0.002-0.851-0.619-2.06-1.341-2.5c-4.634-2.828-9.889-3.442-15.162-4.101c-14.696-1.835-29.341-3.957-44.218-4.081
		c-6.74-0.056-8.387-2.041-8.348-8.744c0.09-15.565-5.236-30.096-8.305-45.054C3550.197,2691.878,3548.832,2690.85,3547.698,2689.34
		z"/>
	<path d="M929.454,1644.736c-77.58,1.347-126.121-87.779-88.07-154.667c22.304-39.207,56.688-59.092,101.247-55.455
		c87.641,7.154,115.202,94.309,87.809,151.523c-18.091,37.786-49.776,54.632-89.87,58.551
		C936.898,1645.047,933.161,1644.736,929.454,1644.736z M1027.153,1539.823c0-35.336-16.292-61.547-45.72-80.117
		c-8.54-5.389-17.878-8.886-28.045-10.489c-47.588-7.502-85.263,21.058-101.659,50.464c-3.096,5.552-5.508,11.4-7.156,17.603
		c-11.323,42.592,13.511,91.875,54.639,108.156c2.448,0.969,4.966,1.824,7.521,2.45c18.942,4.641,37.861,4.082,56.571-1.063
		c19.009-5.227,34.786-15.542,46.044-31.917C1020.693,1578.411,1027.811,1560.388,1027.153,1539.823z"/>
	<path d="M2941.966,951.542c0.717,37.636-30.545,58.832-60.315,64.636c-27.047,5.272-50.601-3.021-68.182-24.359
		c-17.462-21.192-21.612-45.709-11.994-71.537c8.249-22.15,24.537-36.621,47.188-43.464c6.015-1.817,12.4-2.523,18.664-3.379
		c24.453-3.341,43.25,6.81,58.202,25.224C2936.562,912.252,2942.103,927.968,2941.966,951.542z M2871.364,888.786
		c-31.84-1.463-58.232,24.629-59.288,57.552c-0.834,26.009,22.774,56.015,55.432,56.053c34.146,0.04,59.1-24.456,59.373-58.765
		C2927.125,913.072,2902.564,888.811,2871.364,888.786z"/>
	<path d="M2001.173,1556.092c-29.835-0.366-59.009-4.642-87.798-12.709c-93.515-26.203-165.936-104.106-190.237-196.475
		c-13.6-51.698-11.774-102.702,3.03-153.671c14.338-49.364,38.648-93.015,76.387-128.125c40.237-37.435,86.344-64.93,141.232-74.968
		c63.813-11.669,125.71-6.421,183.85,24.376c40.888,21.659,74.846,51.61,102.056,89.134c45.47,62.705,60.677,133.133,52.81,209.188
		c-3.302,31.924-12.934,62.266-27.993,90.577c-13.196,24.81-27.918,48.716-48.46,68.456c-42.746,41.076-93.27,67.329-151.145,79.609
		C2037.2,1555.243,2019.2,1556.003,2001.173,1556.092z M1729.057,1278.854c2.17,76.432,32.554,145.445,96.098,198.887
		c50.678,42.62,109.269,63.772,175.413,63.891c49.99,0.089,96.194-13.777,139.034-39.075c26.624-15.722,51.533-33.913,70.427-58.725
		c57.066-74.94,74.28-158.09,48.171-248.986c-15.523-54.042-47.153-97.966-90.018-133.918
		c-60.309-50.583-130.014-70.213-207.44-59.031c-64.738,9.349-119.415,39.538-162.123,89.335
		C1753.946,1143.319,1729.975,1203.827,1729.057,1278.854z"/>
	<path d="M2139.521,1896.875c0.198,55.019-33.193,120.062-107.322,136.181c-56.773,12.346-106.1-3.591-143.121-50.167
		c-21.152-26.612-32.85-56.938-29.56-91.503c4.072-42.779,22.786-78.146,57.286-103.986c26.598-19.922,57.042-30.054,90.577-29.305
		c43.027,0.96,77.696,18.979,103.846,52.856C2130.653,1836.119,2139.854,1865.018,2139.521,1896.875z M1998.516,2013.935
		c37.755,0.529,66.514-12.008,92.384-44.086c18.763-23.266,25.586-50.591,25.048-80.197
		c-1.081-59.429-54.85-121.143-132.558-107.428c-48.385,8.54-80.071,38.721-97.266,84.229c-4.918,13.015-5.754,26.767-4.901,40.723
		C1884.411,1959.335,1930.267,2015.527,1998.516,2013.935z"/>
	<path d="M1789.66,1269.011c-0.697-111.777,85.576-189.902,175.943-201.744c29.75-3.898,59.244-4.681,88.267,3.391
		c83.253,23.154,134.361,77.077,152.749,161.625c6.214,28.572,2.946,56.943-3.118,85.114
		c-14.11,65.556-52.778,112.308-111.494,142.718c-31.594,16.363-65.895,23.835-101.495,21.118
		C1870.473,1472.071,1788.668,1378.594,1789.66,1269.011z M1996.461,1082.781c-2.898,0.148-8.189,0.441-13.482,0.688
		c-32.017,1.493-61.201,11.374-87.703,29.381c-15.904,10.806-29.773,23.787-42.085,38.501
		c-38.256,45.717-51.036,98.389-39.366,156.149c16.896,83.624,87.364,144.769,174.373,151.373
		c53.354,4.049,100.459-12.142,139.802-48.878c50.908-47.534,70.179-106.728,58.468-174.493
		C2170.611,1143.762,2091.884,1080.938,1996.461,1082.781z"/>
</g>
</svg>
