<?xml version="1.0" encoding="utf-8"?>
<!-- Generator: Adobe Illustrator 27.5.0, SVG Export Plug-In . SVG Version: 6.00 Build 0)  -->
<svg xmlns="http://www.w3.org/2000/svg" xmlns:xlink="http://www.w3.org/1999/xlink" viewBox="0 0 281.762 309.272" width="595" height="842" preserveAspectRatio="xMidYMid meet" data-scaled="true">
<g>
	<g>
		<path style="fill:#ACD01F;" d="M134.984,44.95c-1.654-0.301-2.604-1.954-3.238-3.358c-0.431-0.956-0.793-1.874-0.965-2.91
			c-0.419-2.514-0.522-5.086-1.125-7.569c-0.19-0.783-0.422-1.899-1.072-2.412c-0.675-0.534-1.52,0.16-2.019,0.636
			c-0.068,0.065-0.207,0.049-0.274-0.008c-1.731-1.46-2.515-3.546-3.296-5.605c-0.864-2.279-1.903-4.323-3.961-5.749
			c-0.525-0.364-1.064-0.581-1.707-0.543c-0.74,0.044-1.464,0.188-2.208,0.2c-0.76,0.012-1.528,0.046-2.288,0.034
			c-0.305-0.005-0.535-0.051-0.765-0.257c-0.412-0.369-0.762-0.804-1.178-1.174c-0.7-0.622-1.417-1.225-2.121-1.842
			c-0.283-0.248-0.581-0.56-0.982-0.546c-0.536,0.019-1.115,0.287-1.63,0.416c-0.917,0.23-1.854,0.369-2.774,0.589
			c-0.512,0.123-1.04,0.265-1.572,0.201c-0.577-0.069-1.071-0.422-1.497-0.795c-0.753-0.659-1.432-1.435-2.042-2.227
			c-1.532-1.991-2.651-4.462-4.259-6.43c-1.491,0.012-2.784,0.178-3.697,0.515c-4.006,1.481-6.88-2.351-15.763,0
			c-8.883,2.351-6.103,7.708-7.823,9.644c-3.226,3.441-7.957,9.247-1.935,21.074c7.526,11.182,19.999,8.387,21.504,11.612
			c3.011,6.666,19.139,11.182,26.02,12.903c6.881,1.72,13.978,3.871,13.978,3.871c2.796,2.366,8.387,12.257,8.387,12.257
			l1.701,0.399c0,0-1.219-6.183-5.225-13.15c4.354-1.045,5.574-13.499,6.357-16.895c0.407-1.762,0.571-3.121,0.387-4.28
			C137.317,44.576,136.413,45.21,134.984,44.95z"/>
		<path style="fill:#709E05;" d="M136.384,78.241c-0.027,0-0.056-0.003-0.083-0.009l-1.701-0.399
			c-0.099-0.024-0.184-0.087-0.233-0.175c-0.056-0.098-5.515-9.728-8.249-12.111c-0.771-0.232-7.465-2.237-13.887-3.843
			c-10.463-2.615-23.512-7.013-26.264-13.106c-0.455-0.974-2.361-1.358-4.773-1.845c-4.683-0.946-11.761-2.375-16.701-9.714
			c-6.41-12.584-0.748-18.623,1.972-21.526c0.421-0.474,0.533-1.278,0.663-2.209c0.34-2.451,0.806-5.81,7.332-7.537
			c5.19-1.375,8.349-0.674,10.886-0.114c1.809,0.402,3.24,0.718,4.843,0.124c0.917-0.339,2.238-0.525,3.82-0.538
			c0.001,0,0.002,0,0.003,0c0.109,0,0.212,0.049,0.281,0.134c0.869,1.063,1.601,2.276,2.309,3.449
			c0.615,1.018,1.25,2.071,1.957,2.99c0.683,0.887,1.335,1.598,1.993,2.175c0.34,0.297,0.795,0.647,1.301,0.708
			c0.426,0.047,0.868-0.055,1.33-0.167l0.114-0.028c0.439-0.105,0.883-0.191,1.325-0.278c0.484-0.095,0.967-0.189,1.445-0.309
			c0.162-0.042,0.333-0.098,0.506-0.154c0.387-0.127,0.789-0.259,1.198-0.274c0.465,0.006,0.859,0.3,1.146,0.556l0.089,0.08
			c0.306,0.268,0.614,0.534,0.922,0.799c0.403,0.346,0.805,0.693,1.201,1.045c0.217,0.193,0.418,0.403,0.617,0.613
			c0.183,0.192,0.365,0.385,0.563,0.561c0.134,0.121,0.262,0.161,0.528,0.165c0.512,0.009,1.03-0.005,1.547-0.018l0.73-0.016
			c0.404-0.006,0.799-0.053,1.218-0.103c0.324-0.039,0.648-0.077,0.974-0.096c0.676-0.043,1.282,0.153,1.936,0.606
			c2.203,1.528,3.27,3.747,4.094,5.919c0.748,1.974,1.51,3.983,3.093,5.373c0.948-0.865,1.748-1.052,2.381-0.551
			c0.707,0.559,0.97,1.656,1.162,2.458l0.037,0.153c0.374,1.544,0.561,3.135,0.741,4.674c0.112,0.961,0.228,1.956,0.389,2.921
			c0.171,1.031,0.552,1.965,0.938,2.82c0.598,1.323,1.475,2.877,2.971,3.15l0,0c1.136,0.209,1.942-0.181,2.539-1.221
			c0.077-0.133,0.227-0.205,0.381-0.177c0.152,0.028,0.27,0.149,0.294,0.301c0.18,1.131,0.063,2.453-0.391,4.419
			c-0.139,0.603-0.296,1.517-0.477,2.578c-0.842,4.908-2.229,12.988-5.7,14.44c3.816,6.783,5.035,12.813,5.047,12.874
			c0.024,0.121-0.015,0.246-0.104,0.331C136.568,78.205,136.477,78.241,136.384,78.241z M134.92,77.16l0.98,0.23
			c-0.401-1.666-1.814-6.842-5.057-12.482c-0.057-0.099-0.064-0.22-0.019-0.325c0.046-0.105,0.138-0.183,0.249-0.209
			c3.337-0.801,4.811-9.39,5.603-14.004c0.184-1.071,0.342-1.997,0.486-2.618c0.31-1.343,0.456-2.36,0.453-3.209
			c-0.699,0.709-1.604,0.966-2.697,0.766c-1.829-0.333-2.833-2.081-3.504-3.567c-0.406-0.9-0.807-1.887-0.993-3
			c-0.164-0.982-0.28-1.985-0.394-2.956c-0.177-1.518-0.361-3.086-0.725-4.586l-0.038-0.155c-0.168-0.698-0.397-1.655-0.906-2.057
			c-0.122-0.096-0.494-0.386-1.543,0.614c-0.221,0.21-0.564,0.17-0.757,0.009c-1.796-1.516-2.607-3.655-3.391-5.724
			c-0.795-2.093-1.8-4.196-3.841-5.611c-0.518-0.361-0.984-0.498-1.478-0.479c-0.313,0.019-0.621,0.056-0.931,0.093
			c-0.419,0.049-0.852,0.101-1.293,0.108l-0.724,0.016c-0.527,0.013-1.056,0.028-1.576,0.018c-0.323-0.005-0.669-0.051-1.001-0.35
			c-0.212-0.189-0.408-0.395-0.605-0.602c-0.185-0.195-0.37-0.391-0.572-0.57c-0.393-0.349-0.793-0.693-1.193-1.037
			c-0.31-0.267-0.62-0.534-0.926-0.803l-0.096-0.085c-0.218-0.194-0.451-0.35-0.634-0.37c-0.307,0.011-0.658,0.126-0.998,0.238
			c-0.189,0.063-0.376,0.123-0.555,0.168c-0.491,0.123-0.987,0.221-1.482,0.318c-0.433,0.084-0.867,0.17-1.296,0.272l-0.113,0.028
			c-0.507,0.121-1.03,0.25-1.588,0.181c-0.705-0.084-1.275-0.515-1.694-0.882c-0.694-0.608-1.378-1.354-2.09-2.279
			c-0.733-0.952-1.379-2.022-2.003-3.058c-0.665-1.101-1.351-2.237-2.14-3.229c-1.42,0.024-2.593,0.193-3.399,0.491
			c-1.804,0.67-3.403,0.314-5.253-0.096c-2.46-0.545-5.523-1.224-10.543,0.106c-6.057,1.604-6.468,4.56-6.798,6.935
			c-0.145,1.048-0.271,1.952-0.846,2.599c-8.039,8.576-4.034,16.442-1.883,20.668c4.75,7.053,11.652,8.447,16.219,9.368
			c2.716,0.549,4.679,0.944,5.29,2.255c2.056,4.552,11.21,9.062,25.779,12.703c6.811,1.703,13.924,3.854,13.995,3.876
			c0.048,0.014,0.092,0.038,0.13,0.07C129.195,67.199,134.203,75.901,134.92,77.16z M126.314,29.074
			C126.314,29.074,126.314,29.074,126.314,29.074S126.314,29.074,126.314,29.074z"/>
	</g>
	<g>
		<path style="fill:#FFFFFF;" d="M13.828,117.907c0,0-27.956,51.61,13.333,108.382c43.009,59.352,55.911,76.555,79.566,77.846
			c23.655,1.29,28.428-7.175,36.146-6.975c7.717,0.2,14.174,6.76,32.023,6.115s36.772-9.032,74.19-62.793
			s30.966-100.64,17.633-128.596c-13.333-27.956-41.288-52.471-91.608-41.288c-31.396,5.591-57.201,1.72-76.985-1.29
			C78.341,66.296,37.913,68.017,13.828,117.907z"/>
		<path d="M111.486,304.633c-1.503,0-3.093-0.043-4.779-0.135c-23.318-1.271-35.8-17.22-79.84-77.996
			C5.473,197.084,2.976,169.084,4.649,150.775c1.794-19.63,8.64-32.63,8.854-33.033c25.04-51.856,67.551-51.4,84.677-48.795
			c19.143,2.914,45.361,6.903,76.867,1.292c56.805-12.625,82.026,20.575,92,41.49c5.529,11.594,11.796,30.513,10.249,54.8
			c-1.586,24.875-10.977,49.825-27.913,74.158c-35.824,51.473-55.056,62.248-74.475,62.95c-11.196,0.404-17.913-1.999-23.306-3.93
			c-3.163-1.133-5.894-2.111-8.74-2.184c-2.674-0.079-5.008,0.944-7.967,2.226C130.058,301.846,123.627,304.632,111.486,304.633z
			 M86.047,68.767c-20.238,0-51.752,7.582-71.891,49.298c-0.003,0.005-0.006,0.01-0.008,0.015c-0.07,0.129-6.983,13.09-8.777,32.794
			c-1.656,18.177,0.832,45.978,22.085,75.2c43.879,60.553,56.305,76.443,79.291,77.698c15.128,0.822,22.489-2.363,27.859-4.69
			c3.042-1.318,5.451-2.351,8.276-2.286c2.963,0.077,5.745,1.073,8.967,2.227c5.334,1.911,11.978,4.29,23.034,3.888
			c19.195-0.693,38.253-11.414,73.905-62.637c16.859-24.223,26.207-49.049,27.783-73.79c1.537-24.131-4.687-42.924-10.18-54.441
			c-9.88-20.719-34.866-53.607-91.201-41.09c-31.641,5.634-57.925,1.635-77.119-1.285C94.867,69.179,90.761,68.767,86.047,68.767z
			 M13.828,117.907h0.01H13.828z"/>
	</g>
	<path d="M155.929,74.476c-4.835,2.246-10,2.816-15.275,2.936c-5.203,0.119-10.841,0.361-15.564-2.193
		c-0.183-0.099-0.58,0.371-0.418,0.48c4.493,3.027,10.015,2.938,15.225,2.939c5.399,0.002,11.187-0.09,15.896-3.076
		C156.111,75.361,156.691,74.122,155.929,74.476z"/>
	<g>
		<g>
			<path style="fill:#FFFFFF;" d="M134.683,77.478c0,0-5.591-9.892-8.387-12.257c0,0-7.096-2.151-13.978-3.871
				s-23.01-6.236-26.02-12.903c-1.505-3.226-13.978-0.43-21.504-11.612c-6.021-11.827-1.29-17.634,1.935-21.074
				c1.72-1.935-1.06-7.292,7.823-9.644c8.883-2.351,11.757,1.481,15.763,0c4.006-1.48,15.153,0.174,19.682,4.964
				c1.916,2.351,1.829,2.613,4.529,1.829s5.225,1.219,8.796,5.051s2.787,2.961,5.312,4.441c2.525,1.481,3.919,5.312,5.051,9.58
				c1.132,4.267,0.871,6.88,2.7,8.709c1.829,1.829,1.916,3.745,1.132,7.141c-0.784,3.396-2.003,15.85-6.357,16.895
				c4.006,6.967,5.225,13.15,5.225,13.15L134.683,77.478z"/>
			<path d="M136.384,78.241c-0.027,0-0.056-0.003-0.083-0.009l-1.701-0.399c-0.099-0.024-0.184-0.087-0.233-0.175
				c-0.056-0.098-5.515-9.728-8.249-12.111c-0.771-0.232-7.465-2.237-13.887-3.843c-10.463-2.615-23.512-7.013-26.264-13.106
				c-0.455-0.974-2.361-1.358-4.773-1.845c-4.683-0.946-11.761-2.375-16.701-9.714c-6.41-12.584-0.748-18.623,1.972-21.526
				c0.421-0.474,0.533-1.278,0.663-2.209c0.34-2.451,0.806-5.81,7.332-7.537c5.19-1.375,8.349-0.674,10.886-0.114
				c1.809,0.402,3.24,0.718,4.843,0.124c4.259-1.576,15.565,0.289,20.073,5.056l0.453,0.559c1.464,1.823,1.465,1.824,3.71,1.17
				c2.867-0.834,5.535,1.258,9.163,5.153c2.849,3.058,2.872,3.07,4.083,3.73c0.297,0.161,0.661,0.36,1.147,0.645
				c2.725,1.598,4.119,5.654,5.218,9.8c0.377,1.418,0.6,2.649,0.797,3.735c0.385,2.127,0.663,3.663,1.809,4.81
				c2.019,2.018,1.989,4.185,1.229,7.479c-0.139,0.602-0.296,1.517-0.477,2.577c-0.842,4.909-2.229,12.99-5.7,14.442
				c3.816,6.783,5.035,12.813,5.047,12.874c0.024,0.121-0.015,0.246-0.104,0.331C136.568,78.205,136.477,78.241,136.384,78.241z
				 M134.92,77.16l0.98,0.23c-0.401-1.666-1.814-6.842-5.057-12.482c-0.057-0.099-0.064-0.22-0.019-0.325
				c0.046-0.105,0.138-0.183,0.249-0.209c3.337-0.801,4.811-9.391,5.603-14.006c0.184-1.07,0.342-1.996,0.486-2.617
				c0.818-3.547,0.566-5.2-1.035-6.801c-1.307-1.308-1.603-2.938-2.011-5.195c-0.194-1.072-0.414-2.289-0.783-3.678
				c-1.009-3.804-2.379-7.891-4.883-9.36c-0.477-0.28-0.836-0.475-1.127-0.634c-1.313-0.715-1.392-0.787-4.267-3.872
				c-3.435-3.687-5.915-5.683-8.428-4.95c-2.614,0.76-2.913,0.538-4.48-1.413l-0.432-0.534c-4.318-4.567-15.179-6.368-19.274-4.854
				c-1.802,0.668-3.402,0.314-5.253-0.096c-2.46-0.545-5.523-1.224-10.543,0.106c-6.057,1.604-6.468,4.56-6.798,6.935
				c-0.145,1.048-0.271,1.952-0.846,2.599c-8.039,8.576-4.034,16.442-1.883,20.668c4.75,7.053,11.652,8.447,16.219,9.368
				c2.716,0.549,4.679,0.944,5.29,2.255c2.056,4.552,11.21,9.062,25.779,12.703c6.811,1.703,13.924,3.854,13.995,3.876
				c0.048,0.014,0.092,0.038,0.13,0.07C129.195,67.199,134.203,75.901,134.92,77.16z"/>
		</g>
		<path d="M128.393,38.143c-0.462,3.235-1.24,6.443-2.19,9.567c-0.469,1.544-0.987,3.072-1.53,4.591
			c-0.27,0.755-0.531,1.513-0.795,2.27c-0.135,0.388-0.33,0.807-0.433,1.227c-0.436-0.724-0.881-1.439-1.317-2.138
			c-1.216-1.95-2.502-3.857-3.831-5.732c-0.767-1.082-1.551-2.153-2.344-3.218c0.269-0.154,0.498-0.475,0.605-0.706
			c0.654-1.414,0.999-3.026,1.352-4.538c0.37-1.589,0.697-3.191,0.97-4.8c0.552-3.25,0.918-6.524,1.149-9.811
			c0.025-0.355-0.576,0.194-0.61,0.406c-0.511,3.155-0.916,6.329-1.504,9.471c-0.305,1.632-0.65,3.258-1.102,4.855
			c-0.368,1.301-0.864,2.566-1.272,3.852c-0.453-0.406-0.933-0.776-1.426-1.13c-1.474-1.916-2.97-3.815-4.506-5.681
			c-0.49-0.595-0.983-1.192-1.475-1.789c0.135-0.11,0.251-0.239,0.293-0.303c0.915-1.404,0.837-3.659,0.995-5.293
			c0.174-1.8,0.272-3.607,0.328-5.414c0.11-3.576-0.09-7.152-0.523-10.702c-0.016-0.13-0.351,0.15-0.342,0.271
			c0.256,3.66,0.251,7.329,0.002,10.99c-0.129,1.892-0.354,3.776-0.647,5.649c-0.139,0.887-0.293,1.772-0.463,2.653
			c-0.081,0.421-0.243,0.9-0.292,1.361c-5.355-6.472-10.936-12.93-17.527-18.127c-4.312-3.401-8.964-6.278-13.752-8.95
			c-0.166-0.093-0.522,0.342-0.378,0.435c4.006,2.584,8.016,5.215,11.767,8.161c3.797,2.982,7.287,6.333,10.56,9.877
			c4.44,4.807,8.764,9.826,12.807,15.026c-4.54-2.136-9.948-2.901-14.678-3.459c-1.764-0.208-3.535-0.393-5.303-0.594
			c0.002-0.045-0.004-0.087-0.026-0.124c-0.367-0.626-1.343-0.9-1.962-1.258c-0.725-0.42-1.436-0.864-2.122-1.345
			c-1.4-0.98-2.657-2.155-3.833-3.392c-2.318-2.437-4.323-5.211-6.208-7.99c-0.037-0.055-0.206,0.121-0.177,0.181
			c1.501,3.13,3.409,5.964,5.777,8.508c1.165,1.252,2.435,2.396,3.745,3.494c0.636,0.533,1.292,1.044,1.976,1.513
			c0.038,0.026,0.078,0.055,0.118,0.083c-4.614-0.604-9.17-1.476-13.489-3.364c-3.462-1.513-6.699-3.686-9.063-6.661
			c-0.057-0.072-0.28,0.163-0.219,0.252c8.554,12.43,25.544,9.972,38.391,13.329c3.444,0.9,6.512,2.305,9.535,4.065
			c0.881,1.187,1.752,2.381,2.599,3.586c1.576,2.244,3.085,4.535,4.506,6.88c1.33,2.195,2.45,4.584,3.941,6.67
			c0.288,0.402,1.132-0.64,1.002-1.003c-0.404-1.127-0.96-2.218-1.57-3.281c0.108-0.067,0.206-0.151,0.258-0.217
			c0.918-1.167,1.27-2.946,1.719-4.356c0.497-1.562,0.976-3.131,1.408-4.713c0.851-3.12,1.474-6.257,1.635-9.491
			C128.938,37.48,128.42,37.959,128.393,38.143z"/>
	</g>
	<g>
		<g>
			<path style="fill:#FFFFFF;" d="M144.468,77.98c0,0-1.907-32.613,16.402-48.633c7.247-6.103,10.871-7.056,12.397-8.964
				c1.526-1.907-5.531-7.629-12.015-11.634c-6.484-4.005-11.062-4.959-11.062-2.098c0,2.861-3.051,14.495-4.768,18.309
				c-1.716,3.814-9.917,20.216-8.01,53.019H144.468z"/>
			<path d="M144.468,78.344h-7.056c-0.192,0-0.352-0.151-0.363-0.343c-1.219-20.964,1.408-38.688,7.808-52.679l0.233-0.511
				c1.726-3.834,4.735-15.375,4.735-18.159c0-0.996,0.493-1.48,0.907-1.71c1.681-0.942,5.589,0.336,10.71,3.498
				c4.353,2.688,11.857,8.03,12.37,10.996c0.08,0.462-0.008,0.857-0.262,1.175c-0.702,0.877-1.77,1.532-3.386,2.524
				c-2.1,1.288-4.976,3.052-9.061,6.492c-17.956,15.712-16.292,48.008-16.273,48.333c0.007,0.099-0.029,0.198-0.099,0.27
				C144.664,78.302,144.568,78.344,144.468,78.344z M137.755,77.617h6.332c-0.133-3.734-0.615-33.53,16.542-48.543
				c4.131-3.478,7.034-5.259,9.154-6.56c1.552-0.951,2.576-1.58,3.199-2.358c0.119-0.15,0.156-0.344,0.113-0.596
				c-0.39-2.254-6.35-6.99-12.036-10.5c-5.672-3.505-8.872-4.099-9.973-3.483c-0.359,0.201-0.533,0.552-0.533,1.075
				c0,2.841-3.05,14.571-4.8,18.458l-0.234,0.514C139.203,39.43,136.591,56.922,137.755,77.617z"/>
		</g>
		<g>
			<g>
				<path style="fill:#FFFFFF;" d="M161.251,8.75c-6.231-3.849-10.689-4.869-11.029-2.405c0.214,1.014,0.868,2.29,2.209,3.9
					c4.906,5.888,16.663,11.366,20.858,10.089C174.672,18.383,167.685,12.724,161.251,8.75z"/>
				<path d="M171.831,20.885c-5.232,0-15.303-5.156-19.679-10.407c-1.27-1.525-2.038-2.89-2.286-4.058
					c-0.009-0.041-0.009-0.083-0.004-0.124c0.09-0.654,0.437-1.141,1.003-1.408c1.735-0.819,5.593,0.474,10.577,3.552l0,0
					c4.301,2.656,11.74,7.948,12.347,10.928c0.093,0.458,0.025,0.854-0.204,1.177c-0.046,0.065-0.114,0.115-0.19,0.137
					C172.944,20.819,172.419,20.885,171.831,20.885z M150.593,6.334c0.237,1.038,0.949,2.274,2.118,3.678
					c4.937,5.924,16.378,11.029,20.338,10.012c0.061-0.137,0.069-0.306,0.027-0.511c-0.462-2.276-6.395-6.981-12.016-10.453
					c-5.535-3.419-8.735-4.057-9.885-3.513C150.85,5.7,150.659,5.958,150.593,6.334z"/>
			</g>
		</g>
		<g>
			<g>
				<path d="M151.683,16.673c-6.213,10.587-10.154,22.779-10.59,35.094c-0.016,0.451,0.749-0.208,0.774-0.506
					c1.036-12.147,4.225-23.877,10.106-34.599C152.119,16.394,151.767,16.53,151.683,16.673z"/>
				<path d="M154.869,19.287c-3.276,6.167-7.537,11.893-9.118,18.82c-0.863,3.782-0.991,7.693-1.72,11.502
					c-0.754,3.94-1.858,7.799-2.828,11.688c-0.119,0.478,0.557-0.039,0.63-0.276c1.15-3.721,2.183-7.485,2.944-11.307
					c0.745-3.74,0.926-7.562,1.676-11.297c1.393-6.94,5.569-12.947,8.689-19.188C155.27,18.972,154.936,19.162,154.869,19.287z"/>
				<path d="M156.823,22.792c-3.773,4.778-7.948,10.298-7.751,16.709c0.013,0.43,0.701-0.202,0.715-0.471
					c0.335-6.196,3.825-11.22,7.272-16.132C157.241,22.639,156.983,22.589,156.823,22.792z"/>
				<path d="M165.679,20.575c-2.204,2.488-4.953,4.408-7.494,6.523c-2.3,1.914-4.562,4.126-5.6,6.996
					c-0.173,0.478,0.547-0.004,0.64-0.198c1.361-2.851,3.584-4.981,6.017-6.929c2.411-1.93,4.908-3.706,6.68-6.282
					C166.109,20.412,165.85,20.381,165.679,20.575z"/>
				<path d="M140.057,58.918c0.144-4.522,0.386-9.04,0.788-13.546c0.008-0.094-0.165,0.054-0.173,0.119
					c-0.561,4.561-0.957,9.146-1.103,13.74c-0.071,2.239-0.102,4.479-0.091,6.719c0.011,2.303,0,4.627,0.228,6.92
					c0.022,0.223,0.362-0.102,0.363-0.239c0.027-2.331-0.092-4.663-0.103-6.994C139.955,63.397,139.986,61.157,140.057,58.918z"/>
				<path d="M143.336,61.529c0.023-0.104-0.125,0.011-0.137,0.065c-0.998,4.203-1.299,8.595-0.636,12.874
					c0.016,0.104,0.272-0.109,0.261-0.204C142.336,70.006,142.424,65.726,143.336,61.529z"/>
				<path d="M148.04,37.531c-0.451,3.53-0.709,7.103-1.27,10.616c-0.543,3.402-1.948,6.459-3.264,9.61
					c-0.138,0.33,0.267,0.109,0.349-0.056c1.544-3.096,2.87-6.312,3.397-9.75c0.534-3.488,0.738-7.043,0.995-10.56
					C148.256,37.275,148.05,37.455,148.04,37.531z"/>
				<path d="M161.282,19.136c-1.539,3.028-3.624,5.704-6.122,7.999c-0.136,0.125-0.148,0.381,0.068,0.203
					c2.692-2.205,4.841-5.078,6.274-8.244C161.597,18.885,161.334,19.033,161.282,19.136z"/>
				<path d="M154.569,15.245c-1.486,3.106-3.043,6.178-4.6,9.248c-0.169,0.333,0.277,0.115,0.37-0.058
					c1.624-3.01,3.088-6.099,4.455-9.233C154.887,14.988,154.621,15.136,154.569,15.245z"/>
			</g>
			<path d="M169.732,18.173c-1.816-0.408-3.524-0.931-5.195-1.763c-1.575-0.784-3.116-1.662-4.622-2.571
				c-1.467-0.885-2.908-1.86-4.09-3.112c-1.178-1.248-1.938-2.688-2.409-4.327c-0.027-0.093-0.212,0.107-0.203,0.182
				c0.445,3.454,3.562,5.985,6.333,7.682c1.558,0.954,3.155,1.88,4.791,2.695c1.596,0.794,3.32,1.553,5.123,1.627
				C169.602,18.591,169.926,18.217,169.732,18.173z"/>
			<path d="M166.174,15.963c-0.721-0.529-1.593-0.885-2.386-1.293c-0.81-0.417-1.624-0.825-2.438-1.233
				c-1.318-0.661-2.702-1.295-3.64-2.477c-0.035-0.043-0.164,0.096-0.129,0.149c0.837,1.285,2.181,2.051,3.498,2.763
				c0.797,0.431,1.593,0.862,2.394,1.284c0.785,0.414,1.563,0.908,2.403,1.2C166.005,16.399,166.303,16.058,166.174,15.963z"/>
			<path d="M166.106,13.63c-2.577-1.515-5.232-2.869-7.951-4.109c-0.086-0.039-0.279,0.22-0.2,0.26
				c2.664,1.351,5.29,2.801,7.85,4.342c2.211,1.33,4.166,2.818,5.708,4.907c0.096,0.131,0.447-0.242,0.373-0.376
				C170.638,16.389,168.273,14.904,166.106,13.63z"/>
			<path d="M160.985,9.875c-0.617-0.528-1.364-0.875-2.124-1.148c-0.79-0.283-1.618-0.427-2.454-0.476
				c-0.075-0.004-0.224,0.196-0.14,0.208c0.782,0.109,1.543,0.324,2.28,0.607c0.764,0.293,1.462,0.713,2.171,1.118
				C160.833,10.25,161.089,9.964,160.985,9.875z"/>
		</g>
	</g>
</g>
</svg>
