<?xml version="1.0" encoding="utf-8"?>
<!-- Generator: Adobe Illustrator 27.5.0, SVG Export Plug-In . SVG Version: 6.00 Build 0)  -->
<svg version="1.1" id="Layer_1" xmlns="http://www.w3.org/2000/svg" xmlns:xlink="http://www.w3.org/1999/xlink" x="0px" y="0px"
	 viewBox="0 0 4000 4000" style="enable-background:new 0 0 4000 4000;" xml:space="preserve">
<path d="M1992.036,1811.462c3.975,41.545,10.386,81.129,33.124,116.132c14.122,21.74,33.079,36.005,59.433,40.316
	c42.311,6.921,83.843,18.002,126.484,23.402c32.502,4.116,64.196,2.901,95.903-6.228c58.352-16.802,118.216-26.054,178.392-33.414
	c3.372-0.412,7.705,0.621,9.743-2.736c2.543-4.187-2.149-6.034-4.146-8.558c-112.472-142.156-27.501-301.254,100.55-346.081
	c11.87-4.156,24.236-6.913,36.416-10.155c5.585-1.486,9.649-2.056,8.218-10.652c-5.3-31.847,8.966-53.368,40.19-62.682
	c6.261-1.868,12.716-3.608,19.185-4.127c8.158-0.655,10.149-4.959,9.604-12.064c-0.733-9.56-1.283-19.134-1.895-28.704
	c-6.721-105.279,22.003-198.44,99.451-272.093c67.401-64.098,150.99-86.634,242.372-83.252
	c105.792,3.915,184.764,55.917,243.574,140.483c63.072,90.693,97.793,192.879,116.261,301.14
	c15.763,92.402,20.164,184.614-2.881,276.549c-3.789,15.116-8.332,30.042-12.788,45.993c34.995,0.185,48.637,23.593,57.262,51.583
	c27.89,90.512-7.916,197.518-86.167,258.581c-12.749,9.948-25.997,19.187-40.365,26.689c-5.213,2.722-8.734,5.309-7.43,12.687
	c11.167,63.161,10.33,127.737,22.191,190.856c1.245,6.625,3.208,12.474,6.798,18.142c10.818,17.082,18.423,34.923,10.801,55.661
	c-2.753,7.492,2.788,12.954,6.321,17.583c4.541,5.95,8.528-1.735,12.362-3.736c10.759-5.616,21.301-11.452,33.483-13.595
	c24.707-4.346,36.865,6.749,34.017,31.717c-0.795,6.965-2.832,13.787-4.368,21c4.816,2.848,9.518-1.448,14.246-0.401
	c3.388,0.75,8.664,0.439,9.843,2.481c6.855,11.874,14.414,20.689,27.428,28.401c13.368,7.921,5.616,27.827,4.351,42.72
	c-0.377,4.446-1.212,8.669,0.492,13.346c5.797,15.91,2.926,19.345-14.596,18.038c-83.066-6.194-166.125-12.477-249.189-18.698
	c-2.499-0.187-5.023-0.024-7.646-0.024c-2.44,5.75,2.083,8.797,4.998,11.343c18.868,16.485,21.08,37.11,14.869,59.479
	c-15.107,54.412-14.169,109.772-11.282,165.407c0.623,12.012,3.047,16.782,16.722,18.12c60.281,5.894,120.304,14.048,178.438,32.196
	c13.076,4.082,25.742,9.12,36.551,17.768c13.185,10.549,14.657,21.735,4.826,35.57c-8.613,12.12-21.29,18.691-34.869,22.842
	c-21.69,6.63-43.802,11.871-65.637,18.048c-9.684,2.74-19.137,6.306-28.68,9.54c-10.941,3.708-15.266,10.265-10.672,21.955
	c5.906,15.033-1.341,25.283-13.732,32.887c-21.769,13.359-45.786,20.972-70.409,26.863c-84.185,20.14-170.317,27.583-255.806,39.256
	c-38.49,5.256-77.097,10.156-114.555,21.066c-13.089,3.812-26.228,7.905-36.912,16.853c-10.416,8.723-9.827,15.206,1.975,21.964
	c6.541,3.746,13.605,6.606,20.533,9.639c13.861,6.069,28.001,11.554,40.821,19.76c10.488,6.713,20.927,14.419,19.522,28.295
	c-1.343,13.267-11.729,21.495-23.145,25.939c-36.157,14.079-72.206,28.566-110.742,35.525
	c-43.922,7.932-88.405,8.187-132.707,11.112c-73.545,4.857-147.068,10.043-220.6,15.089c-0.504,0.035-1.022,0.153-1.51,0.078
	c-5.723-0.876-15.277,4.574-15.691-5.494c-0.349-8.483,9.349-7.937,15.402-8.456c30.175-2.588,60.504-3.66,90.586-7.004
	c83.827-9.318,168.485-6.758,252.13-17.902c40.846-5.442,79.02-20.558,116.675-36.447c19.247-8.121,19.375-16.56,1.897-27.962
	c-6.723-4.386-14.077-7.871-21.353-11.326c-10.936-5.193-22.298-9.53-33.031-15.097c-11.225-5.823-23.319-12.016-22.827-27.295
	c0.467-14.475,11.172-22.267,22.538-28.12c35.643-18.357,75.021-23.041,113.79-29.41c84.151-13.823,169.519-19.308,253.177-36.571
	c33.628-6.939,67.051-14.493,98.191-29.861c10.909-5.384,16.79-10.291,10.814-24.173c-6.811-15.824-2.458-23.765,13.071-31.865
	c19.441-10.141,40.788-14.513,61.804-19.85c19.057-4.839,38.445-8.802,55.865-18.463c6.582-3.65,13.945-7.689,13.742-16.575
	c-0.206-9.011-8.096-12.399-14.763-15.645c-17.795-8.666-36.886-13.691-56.092-17.993c-46.843-10.495-94.34-16.943-141.965-22.679
	c-9.417-1.134-12.336,0.684-11.982,10.559c0.886,24.729-0.268,49.458-2.336,74.141c-3.284,39.196-20.346,58.647-58.843,65.574
	c-13.852,2.492-27.872,3.602-41.704,6.856c-10.049,2.364-21.316,1.985-29.694-6.716c-1.822-1.892-3.598-3.608-6.405-3.175
	c-17.396,2.689-34.986,4.54-52.113,8.424c-14.64,3.32-27.277,1.844-37.042-9.79c-4.457-5.31-8.973-6.973-15.542-6.846
	c-23.551,0.456-42.076-21.3-34.245-44.414c9.328-27.533,24.854-52.665,40.378-77.378c3.56-5.667,10.167-8.076,16.374-10.419
	c4.239-1.6,8.735-2.851,12.538-5.196c6.964-4.292,15.289-10.316,13.528-18.31c-1.325-6.016-11.502-3.389-17.75-4.03
	c-131.784-13.522-264.008-15.774-396.343-15.549c-31.448,0.053-31.397-0.537-42.678,28.433c-4.94,12.687-9.916,25.368-15.268,37.884
	c-9.146,21.388-25.059,33.601-48.711,34.898c-24.19,1.326-48.376,2.729-72.57,3.993c-4.5,0.235-11.163,1.257-12.667-2.714
	c-5.309-14.017-14.45-7.583-23.112-5.784c-29.97,6.223-58.302-1.235-85.733-11.985c-12.083-4.736-9.467-16.598-6.862-26.45
	c3.287-12.431,12.519-21.649,19.554-32.399c-27.194,2.762-35.138,9.435-41.969,34.573c-4.763,17.529-3.227,36.854-11.587,53.008
	c-8.863,17.127-12.229,32.611-7.036,52.157c4.576,17.224-5.41,33.396-17.26,46.567c-6.018,6.688-9.061,13.726-10.159,22.75
	c-3.757,30.887-3.808,61.382,5.051,91.535c9.103,30.985,0.187,54.862-27.063,73.084c-28.784,19.249-60.26,27.523-94.325,28.115
	c-4.69,0.082-10.216-0.136-12.817-3.482c-9.309-11.973-20.626-7.723-32.533-6.426c-25.551,2.783-51.368-0.037-77.067,3.155
	c-10.626,1.32-21.547-3.323-24.045-16.078c-1.333-6.808-5.01-5.983-9.748-5.86c-11.964,0.31-24.579,7.408-35.632,1.059
	c-11.957-6.869-4.377-21.814-9.053-31.919c-12.033-26.001-2.869-47.018,9.225-71.049c17.79-35.35,48.385-58.795,72.045-88.452
	c19.37-24.281,21.6-48.788,13.739-76.506c-1.13-3.983-2.055-7.58-8.077-5.454c-91.354,32.255-180.513,9.128-269.507-11.699
	c-24.958-5.841-49.376-14.558-73.372-23.71c-12.786-4.876-16.487,0.092-18.368,10.757c-1.639,9.296,1.591,17.953,3.917,26.704
	c7.935,29.842-0.417,44.66-30.491,49.955c-11.835,2.084-14.977,6.754-13.779,17.8c1.96,18.063,2.927,36.168,0.366,54.372
	c-5.183,36.837-28.357,63.014-64.674,71.173c-30.706,6.899-62.103,6.671-93.345,8.424c-27.481,1.542-54.847-4.503-82.566,2.232
	c-23.995,5.83-47.905-3.769-71.769-7.184c-6.259-0.896-11.606-5.46-13.964-10.834c-4.62-10.529-12.564-11.85-22.24-10.839
	c-15.531,1.623-23.452-6.577-26.58-20.8c-3.873-17.607-2.915-35.018,9.613-48.609c20.853-22.62,40.032-46.805,62.777-67.688
	c21.022-19.302,44.795-27.653,73.648-22.574c17.899,3.15,30.292-9.038,41.211-20.982c10.671-11.672,16.915-26.2,21.974-41.12
	c3.153-9.299,1.422-18.019-3.855-25.982c-7.522-11.35-15.167-22.629-23.095-33.698c-15.223-21.253-27.903-43.405-26.645-70.799
	c0.233-5.066-1.617-8.431-5.962-11.201c-70.797-45.123-113.239-111.995-143.803-187.926c-1.883-4.678-3.524-9.454-5.249-14.195
	c-9.784-26.884-9.803-27.027-38.501-22.511c-128.324,20.191-254.722,48.934-378.552,88.169
	c-79.981,25.342-155.847,61.186-232.334,95.306c-6.876,3.068-14.182,5.214-21.381,7.494c-2.225,0.705-4.759,0.437-9.226,0.768
	c4.508-11.291,13.241-15.277,21.219-19.624c57.71-31.44,118.1-57.063,179.24-80.827c145.02-56.367,294.892-94.203,449.073-114.702
	c13.088-1.74,13.677-5.876,9.171-15.853c-7.059-15.628-13.55-31.513-20.579-47.155c-8.167-18.174-12.475-37.296-14.382-56.988
	c-2.378-24.543-23.633-45.861-48.881-47.188c-16.319-0.858-32.309,1.803-44.535,14.189c-5.289,5.358-8.871,3.288-12.237-1.341
	c-3.257-4.477-5.794-9.47-8.905-14.063c-23.633-34.887-60.179-42.536-96.136-20.239c-12.18,7.552-21.708,17.989-31.358,28.333
	c-15.693,16.821-22.818,18.509-43.871,8.941c-19.756-8.979-39.065-18.55-61.192-21.129c-12.841-1.497-16.341,1.457-15.7,14.938
	c2.974,62.542,5.589,125.079,14.06,187.197c0.951,6.97,2.149,13.906,4.482,21.784c6.844-27.444,21.761-45.658,52.009-46.876
	c-1.978-6.553-3.738-11.748-5.112-17.042c-6.459-24.901,4.071-40.989,29.438-43.372c8.723-0.82,10.493-2.247,8.433-11.462
	c-5.299-23.703,8.519-36.774,32.802-32.123c6.385,1.223,12.683,3.383,18.708,5.869c6.006,2.48,11.62,5.91,18.491,9.488
	c1.137-5.621,1.897-10.796,3.248-15.813c6.696-24.859,32.66-33.964,52.038-17.271c21.725,18.715,29.576,45.107,35.824,71.903
	c0.681,2.921,0.339,6.475-3.184,7.627c-4.146,1.355-6.89-1.588-8.406-4.767c-4.984-10.456-9.585-21.094-14.295-31.68
	c-4.725-10.622-9.262-21.421-18.147-29.388c-5.008-4.491-10.952-7.819-17.946-5.383c-7.137,2.485-9.501,8.769-9.892,15.645
	c-0.543,9.557-0.399,19.153-0.926,28.712c-0.244,4.425-0.276,9.56-5.564,11.453c-5.486,1.964-8.193-2.13-10.971-5.838
	c-10.879-14.521-26.072-22.094-43.313-25.547c-11.756-2.354-16.439,2.92-12.89,14.412c2.661,8.616,6.948,16.725,10.435,25.091
	c1.9,4.559,5.235,9.457-0.284,13.601c-4.516,3.392-8.524,0.662-12.269-2.186c-2.001-1.522-3.973-3.159-6.181-4.321
	c-8.649-4.551-17.641-5.449-25.654,0.712c-7.905,6.079-5.074,14.645-2.937,22.381c2.161,7.823,6.165,14.88,10.867,21.523
	c2.71,3.828,4.934,8.047,1.819,12.535c-2.799,4.033-6.919,2.645-11.012,2.056c-29.326-4.223-42.753,4.451-47.982,35.501
	c-2.809,16.677-9.992,22.086-25.84,23.866c-29.62,3.327-58.743,7.384-88.742,1.445c-20.316-4.022-41.283,0.742-61.888,2.303
	c-35.307,2.675-70.624,2.622-105.969,2.183c-17.22-0.214-34.288,1.264-51.241,4.226c-5.188,0.906-12.02,4.588-13.836-3.392
	c-1.415-6.216,4.583-9.845,9.736-11.917c12.343-4.964,25.578-5.43,38.644-6.583c2.945-0.26,5.885-0.59,9.13-0.918
	c-0.081-7.784-5.608-12.015-9.265-17.146c-8.533-11.975-16.721-24.098-19.459-38.92c-4.29-23.224,5.132-34.456,28.517-31.1
	c14.787,2.122,18.832,0.405,15.784-15.846c-4.621-24.641,9.452-37.259,34.227-34.134c9.111,1.149,17.353,4.698,26.198,9.037
	c1.433-9.338,2.445-17.665,4.017-25.885c9.712-50.783,40.595-81.217,90.687-91.451c12.75-2.605,17.972-6.799,16.877-20.09
	c-1.238-15.025,4.491-33.307-2.258-44.448c-6.873-11.347-27.187-9.429-41.395-14.06c-27.002-8.8-52.366-20.791-76.662-35.582
	c-88.82-54.074-96.517-163.428-62.377-235.198c7.259-15.259,17.987-28.285,30.745-39.008c9.997-8.402,11.579-16.54,7.831-28.73
	c-15.347-49.922-19.984-100.876-11.137-152.621c4.811-28.143,13.029-55.007,32.178-77.278c10.283-11.96,22.574-21.006,38.764-20.64
	c10.328,0.234,10.271-3.043,7.986-11.105c-11.521-40.652-16.151-82.044-13.113-124.323c3.22-44.82,17.419-85.852,41.8-123.322
	c4.111-6.318,4.34-11.702,2.896-18.365c-7.496-34.586-13.285-69.468-14.215-104.9c-2.43-92.578,32.116-167.35,112.286-215.809
	c111.856-67.611,221.065-139.454,333.363-206.307c26.776-15.94,56.005-25.271,87.268-27.767
	c16.097-1.285,30.369-7.927,43.039-17.333c32.662-24.251,66.004-24.571,100.464-4.466c30.975,18.073,64.06,15.586,97.226,9.185
	c71.978-13.892,141.644-7.565,208.729,22.679c5.862,2.643,11.47,2.899,17.636,1.94c38.5-5.991,76.429-3.96,113.675,8.187
	c25.901,8.447,52.108,15.986,77.846,24.891c35.223,12.186,71.253,14.691,107.567,8.61c40.474-6.778,72.58,4.707,96.526,38.365
	c6.484,9.114,13.936,17.363,24.848,21.471c64.439,24.255,112.693,69.822,157.331,119.972c27.547,30.949,53.187,63.54,76.546,97.711
	c24.112,35.273,52.188,66.706,83.783,95.271c29.232,26.43,51.646,57.825,67.551,93.958c20.263,46.032,22.664,92.456,5.151,139.939
	c-11.022,29.883-23.499,59.117-38.341,87.229c-28.969,54.869-56.094,110.697-88.682,163.673
	c-37.478,60.926-88.732,106.702-149.849,142.401c-27.36,15.981-56.198,14.77-85.002,5.641
	c-60.382-19.139-105.553-57.773-139.043-110.851c-2.42-3.836-4.758-7.724-7.196-11.548
	C1995.516,1811.942,1994.826,1812.008,1992.036,1811.462z M2007.902,1445.012c17.777-44.073,31.467-89.377,39.334-136.256
	c3.419-20.373,6.711-41.299,1.753-61.721c-13.501-55.609-32.979-109.078-60.253-159.555c-1.75-3.239-6.001-5.906-2.996-11.49
	c29.155,33.415,43.8,74.103,61.371,113.445c-9.899-68.119-14.748-137.12-43.614-200.918c18.831,8.801,29.462,22.218,37.812,49.157
	c16.236,52.379,21.373,106.706,28.33,160.77c8.202,63.735,2.045,125.574-17.967,186.681
	c-17.578,53.674-38.07,106.441-51.387,161.491c-16.18,66.887-18.322,133.733-0.827,200.762
	c20.507,78.57,68.021,132.793,144.842,160.106c23.687,8.422,48.072,12.602,71.749-1.176
	c46.201-26.885,87.983-58.646,119.847-102.588c47.403-65.372,81.053-138.32,117.546-209.716
	c12.871-25.182,23.19-51.515,31.595-78.551c6.205-19.957,9.648-40.106,6.005-61.15c-8.951-51.699-33.52-95.083-71.683-130.225
	c-36.607-33.709-68.965-70.713-97.443-111.453c-22.271-31.861-46.543-62.269-72.282-91.438
	c-31.862-36.107-65.528-70.627-108.624-93.128c-30.178-15.757-59.255-31.585-81.462-58.532
	c-13.702-16.626-33.373-21.642-54.885-19.024c-17.516,2.131-34.953,4.649-52.737,4.663c-39.763,0.032-76.473-12.939-112.98-26.11
	c-47.688-17.204-95.977-27.558-146.88-19.615c-8.753,1.366-17.234-0.349-25.203-3.632c-65.073-26.808-132.307-29.825-200.887-18.696
	c-37.828,6.139-74.381,3.223-109.033-14.721c-28.486-14.752-55.486-11.589-80.832,7.792c-12.268,9.38-25.74,15.398-41.484,16.632
	c-33.906,2.657-65.069,14.023-93.477,32.42c-107.602,69.684-217.295,135.996-326.48,203.131
	c-39.043,24.006-67.906,56.792-83.619,100.426c-10.241,28.437-13.697,57.749-12.734,87.847
	c2.436,76.13,22.852,148.296,47.784,219.495c31.465,89.855,69.404,176.508,125.034,254.53
	c18.851,26.438,41.876,47.797,74.761,52.437c62.238,8.781,119.116-1.639,160.608-54.693
	c78.974-100.979,97.937-214.245,68.265-337.295c-18.019-74.724-24.383-150.616-17.161-226.971
	c9.09-96.098,47.165-183.103,90.501-267.919c10.62-20.785,28.081-35.505,49.101-45.668c5.851-2.829,11.751-6.587,20.001-4.756
	c-37.334,29.426-94.572,133.241-98.926,178.864c26.672-29.835,51.881-60.387,85.525-82.092
	c-23.56,27.398-46.079,55.588-70.207,82.289c-33.157,36.693-47.783,80.087-51.385,128.102
	c-6.656,88.723-1.295,176.382,22.072,262.733c6.516,24.077,15.717,45.484,34.027,62.789c12.053,11.392,20.614,25.464,21.657,42.229
	c1.748,28.104,5.25,56.246-0.605,84.432c-5.657,27.233-9.669,54.744-5.994,82.692c7.041,53.549,14.729,106.975,28.361,159.369
	c13.2,50.732,28.971,100.842,35,153.276c4.566,39.712,3.676,79.348,0.151,118.767c5.729,1.785,4.299-7.94,11.345-3.715
	c-15.925,48.22-5.126,92.914,21.463,135.239c-5.737-6.784-11.473-13.568-18.753-22.177c0.025,9.317,5.688,14.535,4.109,22.289
	c-12.017-11.897-18.93-25.699-23.389-40.841c-8.076-27.423-10.713-55.583-8.656-83.93c3.106-42.808,6.749-85.541,3.718-128.519
	c-2.7-38.286-10.396-75.336-26.84-110.604c1.833,46.85-1.334,93.273-6.266,139.663c-4.926,46.327-16.108,91.013-31.529,138.778
	c-5.938-19.166-1.35-34.517-1.829-50.923c-6.314,4.045-7.924,8.877-10.124,13.173c-39.177,76.527-48.694,158.345-43.066,242.817
	c1.047,15.719,4.132,31.164,10.834,45.427c19.137,40.724,33.477,83.24,48.659,125.497c21.788,60.643,61.224,106.039,120.117,133.771
	c5.618,2.646,12.514,4.031,17.04,12.476c-22.998-3.509-42.32-12.878-62.387-20.221c19.295,21.768,38.363,43.269,64.515,56.814
	c5.562,2.881,12.389,6.074,10.68,14.488c-4.254,20.943,4.111,38.685,14.631,55.462c8.832,14.087,19.236,27.18,28.708,40.876
	c10.031,14.504,13.323,30.579,8.594,47.595c-7.472,26.89-21.158,50.322-42.858,68.133c-12.162,9.983-25.801,15.984-42.791,10.92
	c-19.866-5.921-38.557-1.158-53.411,13.05c-22.226,21.258-43.455,43.562-64.902,65.621c-2.068,2.128-5.702,4.601-3.246,9.18
	c8.217-2.016,16.915-9.732,24.39,0.49c6.388,8.736-0.976,17.812-0.237,27.224c17.024-32.43,46.826-53.804,68.345-82.274
	c19.381-25.64,47.74-32.577,72.845-21.815c-14.134,5.579-28.951,7.964-40.833,16.451c-30.047,21.464-46.249,56.346-76.467,77.932
	c4.772-0.346,7.98-2.663,11.557-3.975c6.879-2.522,14.014-3.693,19.382,3.034c4.819,6.039,5.628,12.857,1.911,19.826
	c-1.414,2.652-2.983,5.347-5.019,7.517c-6.016,6.412-3.303,9.354,3.9,10.908c15.452,3.334,30.938,4.155,46.609,1.411
	c8.358-1.464,13.017-5.389,15.264-14.157c4.284-16.722,11.029-32.561,23.866-44.879c13.106-12.575,26.277-25.084,39.619-37.407
	c3.699-3.416,7.159-8.433,13.626-6.35c-6.741,33.853-41.004,48.615-52.866,78.258c3.76-1.588,6.186-4.195,8.978-6.322
	c7.193-5.48,14.661-12.745,24.325-7.249c9.793,5.569,13.226,14.829,8.945,25.936c-3.345,8.678,3.757,6.631,7.317,6.541
	c17.648-0.448,35.503,0.074,52.879-2.496c41.8-6.181,59.378-27.238,59.893-70.013c0.17-14.096-1.497-28.205-1.767-42.318
	c-0.224-11.743,2.899-22.301,14.989-27.271c7.339-3.017,8.738-9.063,9.77-15.701c1.482-9.534,3.056-19.054,4.591-28.581
	c1.349,0.139,2.699,0.277,4.048,0.416c0,9.408-0.183,18.822,0.097,28.221c0.101,3.377-2.391,9.223,4.617,8.49
	c4.495-0.47,9.336-2.492,9.514-8.025c0.125-3.898-0.903-8.028-2.262-11.746c-6.164-16.862-6.828-33.743,0.767-50.125
	c3.503-7.557-0.083-9.678-5.835-12.097c-39.349-16.55-74.957-39.48-108.946-64.968c-39.097-29.317-72.358-64.991-107.074-99.26
	c4.892,1.453,8.882,4.046,12.669,6.909c40.636,30.723,79.103,64.264,122.767,91.031c105.547,64.701,221.277,96.76,343.45,107.934
	c39.381,3.602,78.669,0.978,116.966-10.374c6.497-1.926,12.22-3.504,12.374-12.43c0.645-37.434,13.995-70.746,33.159-102.4
	c14.13-23.339,21.299-49.039,19.704-76.573c-0.955-16.485-2.836-17.389-17.788-11.429c-54.472,21.714-86.776,94.89-68.747,155.115
	c1.269,4.237,5.219,8.346,2.888,14.489c-12.939-10.311-14.296-26.174-22.918-40.669c0,11.673,0,20.537,0,30.82
	c-11.685-25.448-10.26-59.613,5.219-92.941c18.528-39.892,45.655-70.572,92.5-78.808c-48.098-27.887-97.785-11.675-147.118-5.654
	c36.248-18.366,73.743-30.112,114.749-25.986c36.624,3.685,57.691,26.185,58.718,62.643c0.756,26.864-4.651,52.644-18.472,75.532
	c-28.329,46.912-37.457,96.125-23.344,149.563c6.201,23.477,0.148,44.961-14.605,64.079c-5.642,7.311-11.206,14.683-18.502,24.252
	c47.479-4.545,89.792,1.456,128.275,25.816c-5.935,0.971-11.631,0.204-17.195-1.116c-28.475-6.758-56.866-13.977-86.227-15.851
	c-16.641-1.063-30.541-1.531-45.788,12.775c-22.263,20.891-34.421,46.861-49.579,71.571c-1.591,2.594-3.366,6.407-0.742,10.037
	c4.649,0.296,6.734-3.788,9.976-5.828c14.648-9.219,25.5-3.419,26.353,14.146c0.378,7.796-2.355,14.837-5.243,21.892
	c-1.028,2.512-3.38,5.977,0.426,7.918c4.439,2.265,6.066-1.481,7.774-4.702c17.032-32.119,39.458-61.03,55.684-93.652
	c2.698-5.425,4.715-12.28,13.314-13.918c0.59,7.995-1.971,14.492-4.259,21.087c-9.026,26.026-24.175,48.746-38.786,71.73
	c-8.11,12.758-12.212,26.532-12.511,41.647c3.662-4.865,6.206-10.183,8.775-15.488c3.554-7.338,7.722-14.278,14.549-19.044
	c7.605-5.309,15.879-7.325,23.845-1.282c7.904,5.996,6.569,13.983,2.958,21.89c-1.852,4.057-3.846,8.049-5.852,12.23
	c46.051,7.626,56.787,4.815,64.172-39.899c0.247-1.493,0.371-3.006,0.567-4.508c2.556-19.589,5.921-38.975,16.137-56.338
	c10.472-17.797,25.587-25.071,44.892-20.086c-15.215,1.339-25.461,7.552-30.615,19.451c-14.446,33.348-18.149,68.87-19.712,104.717
	c-0.015,0.346,1.248,0.747,2.893,1.675c0.528-3.353,0.848-6.206,1.438-9.002c4.085-19.374,14.68-31.656,26.906-29.454
	c17.902,3.225,18.897,16.98,17.61,31.527c-0.4,4.526,0.026,8.6,6.303,6.598c21.115-6.732,40.171-17.158,53.528-35.178
	c9.677-13.057,2.414-27.211-0.631-40.791c-1.104-4.922-2.924-9.721-3.631-14.688c-5.982-42.052-7.877-83.324,19.995-119.942
	c8.386-11.016,9.665-23.583,2.288-36.204c-8.097,2.636-9.726,13.543-20,13.195c5.379-14.531,12.191-26.81,20.539-38.263
	c7.213-9.896,14.19-20.594,15.272-32.596c3.705-41.076,21.537-77.461,35.818-115.107c8.844-23.313,15.654-47.253,17.048-72.876
	c-16.726,22.615-30.167,48.309-61.965,59.357c64.41-80.981,103.82-162.687,39.073-261.69c12.985,5.509,20.322,13.134,26.635,21.495
	c21.46,28.423,30.657,61.049,24.115,95.668c-10.905,57.707-3.151,118.374-30.318,174.198c8.894-0.105,13.616-4.173,18.545-7.077
	c43.908-25.866,87.168-52.87,131.569-77.85c76.072-42.796,152.961-84.066,225.065-133.63
	c35.963-24.721,75.936-41.952,118.275-52.941c22.706-5.894,45.78-9.33,69.126-1.063c-24.081,8.933-50.454,5.199-74.561,14.156
	c-24.332,9.04-48.603,17.934-70.619,32.911c63.639-20.309,125.426-17.794,185.385,14.27c-5.093-13.124-11.346-23.88-16.053-35.273
	c-4.544-10.999-10.284-22.332-5.385-35.487c5.048,2.69,5.97,6.875,7.863,10.298c22.255,40.257,51.525,74.621,86.843,103.975
	c15.178,12.615,32.259,20.53,52.062,22.203c23.131,1.954,46.316,3.443,69.369,6.085c14.599,1.673,30.201,1.04,44.699,12.984
	c-44.604,5.619-85.859-3.753-127.574-7.905c16.275,42.076,48.532,57.104,91.063,56.043c-10.626,7.619-21.354,9.93-32.482,8.555
	c-9.948-1.23-12.642,1.204-11.944,11.884c2.134,32.655-2.743,64.33-17.093,94.237c-5.813,12.114-14.266,20.303-27.332,24.15
	c-7.147,2.104-16.132,3.018-20.036,9.732c-12.506,21.508-23.896,43.664-35.716,65.569c7.805-2.689,10.052-10.458,17.99-11.544
	c9.375-1.283,11.685,6.156,14.79,14.089c11.617-27.613,20.618-54.016,38.98-75.626c8.525-10.032,18.113-12.822,32.098-6.312
	c-9.65,5.287-20.198,6.339-24.807,15.526c-12.414,24.745-27.453,48.308-34.513,75.492c-1.278,4.923-2.179,9.95,0.566,16.155
	c7.495-12.392,10.533-30.348,27.4-25.334c19.057,5.664,5.073,21.717,5.008,33.171c29.587,1.675,33.479-1.638,39.758-28.779
	c6.414-27.729,19.568-52.099,39.031-74.525c3.672,9.267-0.905,15.163-3.531,21.404c-6.844,16.265-14.224,32.323-20.506,48.8
	c-4.006,10.507-6.157,21.595,2.49,34.015c3.125-11.272,7.542-19.71,13.821-26.973c4.087-4.728,9.125-8.573,15.851-6.345
	c7.241,2.398,9.322,8.687,9.782,15.584c0.166,2.493,0.027,5.087-0.48,7.529c-1.412,6.8,1.006,8.563,7.946,8.445
	c33.324-0.569,45.56-10.97,49.113-44.299c4.506-42.265,5.018-84.668,1.991-127.06c-3.686-51.62-4.121-102.906,12.058-152.964
	c1.846-5.711,2.531-11.842,3.334-17.834c1.436-10.712-1.787-19.559-9.936-27.15c-31.829-29.653-49.118-67.226-58.049-109.099
	c-2.461-11.54-1.843-16.179,1.573-27.012c4.329,22.131,11.993,42.438,23.326,61.563c-3.441-44.159,3.759-87.675,3.762-131.383
	c0-5.548-0.392-11.096-0.628-16.643c-3.776-88.79-30.044-171.659-68.099-250.979c-25.292-52.716-61.016-97.905-110.536-129.996
	c-80.047-51.873-168.965-81.455-263.53-85.175c-116.014-4.564-232.24-0.115-347.063,20.969
	c-36.701,6.739-72.937,15.46-108.781,26.339c63.761,8.275,127.64,3.553,191.436,4.337c-53.81,9.675-108.006,11.791-162.481,11.528
	c-55.297-0.267-108.025-16.38-164.683-26.163c12.145,16.313,21.378,31.4,23.245,48.341c2.473,22.435,11.872,37.399,32.42,47.439
	c12.067,5.896,20.901,17.356,29.207,28.234c29.448,38.563,46.571,82.332,53.673,130.071c1.874,12.595,4.459,25.38,0.361,39.039
	c-19.911-74.295-46.159-144.769-108.829-199.035c-0.651,32.824,0.987,61.747-8.929,89.524c-0.355-5.876-0.709-11.753-1.331-22.048
	c-13.549,39.272-21.38,76.573-47.016,105.552c10.452-28.962,20.109-58.031,28.448-87.529
	c10.104-35.743,15.659-71.862,10.317-109.184c-5.986-41.824-35.14-79.321-69.879-84.208c-35.377-4.977-60.32-23.46-79.486-52.061
	c-1.381-2.061-1.633-6.214-6.359-5.07c-1.513,20.51-0.541,41.38-7.161,61.299c-1.542,4.64-2.081,12.271-7.58,11.667
	c-7.577-0.832-2.883-8.288-2.839-12.502c0.287-27.764,1.459-55.511-2.129-83.192c-6.612-51.016-16.187-101.733-15.056-153.528
	c0.966-44.232-5.393-88.193-3.655-133.645c-12.694,5.7-17.328,12.69-14.815,25.537c4.585,23.443,4.139,47.224-0.082,70.784
	c-2.349,13.108-4.76,17.394-11.668,23.697c3.234-32.939-1.733-65.127-4.659-100.198c-14.327,12.442-26.349,22.848-38.33,33.3
	c-9.506,8.293-18.869,16.947-33.517,7.778c-2.816,30.486-12.662,56.97-21.042,84.862c41.667-29.546,42.498-29.953,57.713-28.201
	c-8.978,6.197-20.594,8.055-27.28,18.669c11.27-0.283,20.58-5.769,33.033-3.954c-21.798,10.329-41.783,19.799-63.902,30.28
	c2.692-6.122,4.123-9.377,6.213-14.129c-11.107,2.775-11.586,11.587-14.303,17.784c-18.188,41.482-38.88,82.123-73.511,111.686
	c-25.234,21.541-42.436,47.846-60.567,74.329c-12.448,18.183-18.115,39.326-27.728,58.726
	c-21.464,43.319-53.999,74.788-102.305,81.794c-77.404,11.226-132.405-15.593-154.682-87.626
	c-4.761-15.393-8.135-31.216-12.132-46.845c-9.985-39.043-17.057-79.378-39.007-113.978c-26.104-41.147-41.047-85.27-42.356-133.913
	c-0.705-26.203-10.467-49.037-24.723-70.384c-2.88-4.313-5.775-8.617-11.067-16.512c17.063,9.127,21.102,24.381,32.471,34.74
	c2.597-27.369-7.425-52.451-2.365-78.8c6.362,4.068,6.809,9.916,8.362,14.925c5.253,16.942,7.548,34.471,9.446,52.042
	c4.225,39.11,4.883,78.776,15.351,116.959c20.055,73.156,68.111,134.717,162.36,128.622c7.736-0.5,15.708-0.209,22.043-7.535
	c-2.641-1.427-4.321-2.482-6.114-3.282c-91.669-40.939-110.379-120.199-88.963-208.347c6.621-27.252,26.557-41.905,52.609-49.047
	c2.931-0.803,10.406-4.157,7.51,3.082c-3.562,8.905,2.31,5.292,5.064,5.371c12.604,0.363,25.225,0.182,37.824,0.632
	c11.52,0.411,26.342,6.068,33.661,0.881c8.533-6.048,5.339-22.28,7.082-34.109c3.985-27.045,7.449-54.185,16.618-80.206
	c-1.43,35.378-3.355,70.658-6.54,105.824c-0.935,10.326,0.938,14.325,11.791,15.345c22.593,2.122,45.117,5.239,66.968,11.923
	c34.188,10.457,44.869,26.07,50.793,61.554c11.635,69.684-68.952,167.018-137.117,171.593c-4.641,0.311-12.024-1.114-12.977,4.67
	c-0.913,5.539,5.08,9.449,9.969,12.195c3.477,1.953,7.291,3.965,11.15,4.481c63.295,8.455,120.834-1.723,165.104-52.682
	c29.129-33.53,49.854-72.139,66.174-113.173c12.566-31.596,25.953-62.908,35.083-99.386c4.731,14.499,11.064,10.266,16.52,5.258
	c15.983-14.668,30.313-31.5,47.684-44.215c31.59-23.122,51.655-51.845,59.854-90.691c6.425-30.443,17.801-59.842,26.977-89.704
	C2006.911,1447.395,2007.406,1446.203,2007.902,1445.012z M2523.538,1944.448c-16.528-35.487-21.55-72.539-17.69-110.776
	c3.207-31.776,13.169-62.132,21.693-92.723c1.954-7.012,2.141-19.746,12.542-17.311c9.053,2.119,3.365,13.102,2.741,20.032
	c-6.284,69.784,2.64,135.03,53.207,188.953c7.943,8.47,15.659,12.258,27.314,11.766c25.71-1.085,51.503-0.152,77.219-1.139
	c45.806-1.758,91.032,2.37,134.649,16.176c27.396,8.672,53.169,12.461,79.347-2.4c6.484-3.681,16.502-2.411,14.645-14.864
	c-1.673-11.217,2.332-22.028-14.736-27.944c-72.149-25.008-135.602-64.375-186.893-121.831
	c-16.534-18.522-31.193-38.383-41.443-61.177c-2.081-4.628-4.342-9.795,0.255-14.018c5.173-4.751,10.588-2.02,15.098,1.4
	c11.258,8.537,22.284,17.385,33.32,26.212c54.778,43.815,115.593,77.358,179.299,106.136c10.916,4.932,13.729,2.896,13.434-8.897
	c-0.492-19.665-0.188-39.401,0.991-59.034c0.615-10.234-3.311-15.187-12.006-19.772c-51.268-27.032-97.044-61.653-138.055-102.535
	c-18.25-18.193-35.471-37.339-49.205-59.303c-2.97-4.75-5.936-10.489-1.094-15.241c4.983-4.89,10.553-1.518,14.976,1.906
	c8.773,6.791,17.3,13.909,25.767,21.085c45.541,38.596,92.137,75.51,148.298,98.152c9.666,3.897,13.044,3.477,12.792-8.246
	c-0.661-30.781-0.764-61.602,0.096-92.374c0.326-11.658-2.575-17.426-14.081-22.345c-47.658-20.373-87.459-51.829-121.182-91.034
	c-3.596-4.18-6.621-8.898-9.55-13.591c-2.502-4.01-3.879-8.721-0.349-12.632c3.77-4.176,8.629-2.29,12.53,0.019
	c5.627,3.331,10.825,7.387,16.198,11.146c33.905,23.721,67.723,47.535,105.731,64.604c9.888,4.441,12.875,2.674,13.233-8.482
	c1.165-36.319,3.138-72.617,5.245-108.898c0.492-8.473-1.105-13.309-9.941-17.157c-30.677-13.36-55.305-34.866-76.174-60.778
	c-2.51-3.116-4.61-6.642-6.413-10.223c-1.64-3.257-2.036-6.901,0.807-9.859c2.797-2.909,6.347-3.088,9.764-1.365
	c4.945,2.493,9.836,5.133,14.549,8.037c18.079,11.14,36.602,21.325,56.779,28.278c9.472,3.264,14.889,2.325,15.427-9.737
	c0.809-18.132,2.942-36.212,4.739-54.291c2.095-21.085,4.092-42.196,8.732-62.927c1.279-5.717,3.646-11.028,10.597-10.773
	c6.015,0.22,8.181,5.323,9.825,10.17c0.961,2.833,1.22,5.914,1.705,8.898c5.035,30.984,6.416,62.216,6.705,93.551
	c0.048,5.214-3.092,12.717,2.581,15.234c4.741,2.103,10.059-3.293,14.721-6.128c25.917-15.761,50.48-33.418,73.787-52.841
	c5.021-4.184,10.29-8.133,15.776-11.677c4.025-2.6,8.598-3.061,12.677,0.351c4.624,3.867,4.515,8.895,2.468,13.806
	c-1.537,3.688-3.658,7.247-6.085,10.432c-29.299,38.435-62.952,72.36-104.517,97.511c-7.25,4.387-9.544,8.606-9.251,16.574
	c1.354,36.826,2.603,73.667,2.992,110.512c0.146,13.747,4.693,14.554,16.042,9.767c44.614-18.822,84.084-45.744,121.865-75.495
	c6.717-5.29,12.985-11.383,21.359-14.06c4.898-1.566,10.019-2.298,13.761,2.667c3.186,4.226,2.408,8.68-0.112,12.749
	c-3.707,5.988-7.198,12.266-11.819,17.506c-42.205,47.865-91.691,86.373-149.093,114.425c-4.865,2.377-8.761,3.679-8.555,10.297
	c0.926,29.768,1.536,59.548,2.034,89.328c0.123,7.326,2.917,8.883,9.257,5.78c5.433-2.66,11.073-4.905,16.472-7.629
	c60.96-30.748,119.215-65.876,173.6-107.278c13.249-10.086,26.551-20.117,40.151-29.717c4.698-3.316,10.587-8.293,16.259-2.707
	c5.937,5.845,1.95,12.432-1.809,17.792c-5.204,7.418-10.766,14.664-16.841,21.38c-55.881,61.773-119.657,114.13-189.625,159.185
	c-14.24,9.17-36.197,11.987-42.09,26.479c-5.835,14.35,0.298,33.656,1.512,50.764c2.178,30.71,4.617,61.402,6.913,92.104
	c0.515,6.887,1.604,11.45,10.809,8.11c50.711-18.4,98.404-41.664,137.865-79.668c24.035-23.149,46.577-47.612,68.518-72.698
	c11.294-12.913,22.446-26.118,36.854-35.744c14.616-9.766,24.083-4.913,24.93,12.714c0.587,12.232-2.46,24.028-6.297,35.578
	c-18.267,54.992-50.547,101.898-85.461,147.185c-35.387,45.9-80.161,79.245-134.957,98.747c-8.744,3.112-17.533,6.096-27.382,9.515
	c13.283,12.285,26.028,22.405,36.66,34.397c9.736,10.982,19.824,16.114,34.203,11.608c4.29-1.344,8.992-1.313,13.376-2.424
	c142.429-36.105,230.507-127.479,267.971-267.797c25.268-94.639,18.519-190.206,0.158-285.282
	c-19.728-102.151-53.864-198.768-115.153-283.849c-60.114-83.449-140.242-129.547-245.578-128.631
	c-83.953,0.73-158.964,24.276-218.329,84.788c-68.223,69.542-94.762,155.369-88.981,251.882c0.814,13.591,1.172,27.221,1.323,40.837
	c0.123,11.187-4.461,17.864-17.004,18.223c-7.951,0.228-16.063,2.028-23.709,4.394c-26.755,8.28-35.454,26.911-24.449,52.429
	c4.949,11.475,2.058,16.716-10.473,18.367c-21.135,2.783-41.123,9.882-60.745,18.071
	c-95.029,39.657-153.639,150.934-117.763,242.357C2478.776,1890.599,2492.28,1922.782,2523.538,1944.448z M714.494,1761.324
	c-13.404-5.787-17.629-14.596-22.835-22.312c-13.651-20.233-30.527-22.011-47.158-4.135c-16.671,17.919-24.828,40.134-29.991,63.566
	c-12.882,58.465-3.511,115.305,12.193,171.824c2.381,8.571,11.731,23.254-10.306,21.569c-1.413-0.108-3.062,2.407-4.547,3.76
	c-65.335,59.56-58.976,185.92,12.089,239.513c31.887,24.047,67.935,39.347,106.08,50.224c23.601,6.73,22.77,6.738,24.377-18.239
	c0.911-14.16-2.744-21.921-16.046-29.329c-46.122-25.686-80.104-63.971-105.443-109.98c-3.415-6.201-10.144-13.927-2.415-20.465
	c8.085-6.838,13.607,1.817,19.098,6.443c24.479,20.623,51.183,37.62,80.618,50.286c27.813,11.968,27.455,11.986,28.903-18.714
	c0.487-10.318-1.753-15.363-12.575-19.723c-46.248-18.632-79.202-52.835-104.607-94.847c-2.737-4.526-6.047-10.317-0.017-14.963
	c5.419-4.175,10.55-1.404,15.106,2.208c10.282,8.151,20.341,16.587,30.732,24.594c18.491,14.248,38.525,25.573,60.651,33.506
	c11.376,4.079,14.281,0.458,14.277-10.217c-0.004-10.081,0.702-20.184,1.569-30.237c0.576-6.67-0.904-11.074-7.437-14.637
	c-39.456-21.516-66.449-55.142-88.253-93.354c-4.353-7.629-14.336-17.901-3.866-25.152c8.59-5.949,15.872,5.376,21.969,11.46
	c18.996,18.959,38.465,37.181,62.541,49.726c18.404,9.59,16.938,8.912,20.508-11.355c4.073-23.122-2.812-35.106-24.856-43.735
	c-23.226-9.092-41.164-27.12-56.395-46.993c-4.592-5.992-13.14-13.551-5.014-20.892c7.358-6.648,13.604,2.251,19.085,6.888
	c8.085,6.839,15.495,14.475,23.558,21.341c33.045,28.14,70.793,37.438,113.045,27.227c15.769-3.811,30.188-11.284,44.944-17.814
	c5.332-2.359,11.889-6.972,16.603-1.057c5.421,6.801-1.042,12.442-5.466,16.82c-14.734,14.578-34.104,20.896-52.587,28.967
	c-10.424,4.552-26.47-1.02-31.109,9.869c-4.346,10.203-0.722,23.801-0.604,35.904c0.01,1.009,0.134,2.028,0.039,3.026
	c-0.852,8.977,3.035,11.539,11.628,9.513c17.806-4.199,34.594-10.908,50.832-19.191c9.43-4.81,18.872-9.609,28.462-14.085
	c4.198-1.959,8.82-2.885,12.586,1.209c4.163,4.526,3.036,9.323,0.125,13.887c-2.161,3.388-4.433,6.783-7.138,9.733
	c-20.424,22.276-44.708,39.292-72.385,51.195c-23.044,9.911-23.217,9.509-23.029,34.319c0.015,2.019,0.222,4.058,0.019,6.054
	c-0.996,9.775,3.217,13.11,12.414,9.992c12.405-4.205,25.071-7.851,37.041-13.075c18.476-8.063,36.421-17.334,54.667-25.931
	c5.961-2.809,12.79-6.077,18.122-0.001c5.743,6.543,1.782,13.393-2.259,19.341c-3.106,4.571-6.602,8.96-10.431,12.944
	c-26.245,27.299-56.637,49.075-92.193,61.904c-13.945,5.031-17.786,11.899-15.913,24.88c0.429,2.974,0.43,6.071,0.173,9.072
	c-1.08,12.607,4.229,12.741,14.084,8.466c39.948-17.329,74.012-42.895,105.186-72.856c6.712-6.451,13.856-19.489,24.227-10.948
	c9.407,7.746,0.395,18.822-4.514,27.15c-25.86,43.867-59.154,82.388-104.642,104.588c-30.017,14.648-36.106,32.426-32.243,61.695
	c1.716,13.001,5.18,15.801,17.187,14.531c20.622-2.18,41.023-5.099,61.065-10.48c75.815-20.356,118.729-74.932,122.408-153.264
	c2.564-54.58-15.981-103.585-35.615-154.551c-4.603,6.905-7.791,12.014-11.329,16.869c-2.059,2.825-4.648,6.01-8.708,4.295
	c-4.7-1.986-2.451-5.94-1.544-9.145c1.234-4.359,2.661-8.682,4.313-12.901c11.612-29.663,19.709-60.376,27.766-91.128
	c2.087-7.966,0.765-10.871-7.866-11.081c-12.638-0.308-24.9-3.27-37.027-7.067c-39.021-12.216-63.964-40.858-85.987-72.953
	c-57.954-84.46-96.266-178.062-127.64-274.869c-6.012-18.552-11.733-37.198-18.57-58.921
	C655.569,1562.098,676.062,1660.432,714.494,1761.324z M1232.681,1550.978c0,7.58,0.11,12.5-0.017,17.415
	c-1.387,53.618-12.04,105.525-34.166,154.209c-35.966,79.137-85.281,143.828-181.263,151.886c-7.704,0.647-8.172,5.533-9.512,11.121
	c-5.173,21.571-10.22,43.194-16.336,64.505c-2.423,8.443-1.369,15.037,2.277,22.869c24.057,51.675,42.036,104.876,39.037,163.14
	c-3.609,70.132-35.774,122.086-99.143,152.753c-32.013,15.492-66.562,23.943-102.502,23.063
	c-11.788-0.288-15.089,3.347-13.845,14.537c1.11,9.993,0.625,20.166,0.783,30.26c0.08,5.106,1.253,9.081,7.628,8.601
	c30.175-2.273,56.363,9.06,81.217,24.338c7.862,4.833,12.224,2.389,17.509-4.146c12.427-15.365,26.621-28.881,44.159-38.639
	c38.606-21.481,90.613-11.077,110.015,26.514c4.579,8.872,9.769,7.296,17.09,4.04c27.02-12.016,52.943-10.644,77.058,7.772
	c2.169,1.656,4.287,4.675,8.451,1.643c0-2.523-0.108-5.537,0.016-8.541c3.198-77.248,19.291-150.911,59.881-217.935
	c16.922-27.941,28.851-57.652,30.26-90.917c0.875-20.669,2.875-41.289,3.809-61.957c3.005-66.515-10.484-131.676-17.27-197.345
	c-4.404-42.62-14.96-84.916-3.995-127.691c7.842-30.591,4.983-61.15,2.949-91.814
	C1255.728,1574.902,1249.669,1561.463,1232.681,1550.978z M2594.794,2844.578c4.291,0.268,7.253,0.582,10.218,0.62
	c68.094,0.888,136.21-1.294,204.292,1.741c74.083,3.303,148.152,6.755,221.809,15.844c8.013,0.989,11.718-0.914,13.814-9.139
	c4.787-18.787,7.329-37.624,4.929-56.918c-0.798-6.415-1.554-12.771-8.062-17.021c-18.42-12.027-29.367-30.136-38.639-49.418
	c-2.616-5.439-4.729-10.63-11.065-13.549c-19.005-8.756-35.112-21.672-49.495-36.782c-3.468-3.643-6.619-7.247-12.582-7.105
	c-18.682,0.445-35.462-6.696-52.165-13.924c-13.883-6.007-27.694-12.315-42.876-14.345c-63.165-8.444-119.262,12.252-173.145,42.096
	c-4.73,2.619-6.018,6.198-4.973,11.296c7.468,36.406-4.475,65.855-30.546,91.603
	C2611.292,2804.409,2600.842,2822.946,2594.794,2844.578z M3388.695,2009.736c-7.285,45.948-31.413,83.193-63.171,116.014
	c-32.231,33.309-72.677,52.782-118.419,65.236c12.346,7.473,23.057,13.127,32.814,20.112c8.513,6.094,16.313,7.301,26.656,4.468
	c93.001-25.479,166.329-112.883,174.253-209.176c2.478-30.111-2.409-59.412-13.706-87.396
	c-12.935-32.041-33.371-34.721-54.317-7.049c-8.188,10.817-14.818,22.815-22.129,34.295
	c-53.164,83.482-127.793,137.096-223.917,160.634c-9.402,2.302-19.119,3.313-30.369,5.205c15.021,20.737,27.328,40.329,37.683,61.08
	c1.695,3.397,3.857,5.823,7.903,6.032c13.535,0.698,26.894,3.394,40.648,0.762c87.611-16.766,149.993-65.763,188.209-146.101
	C3375.073,2024.94,3378.425,2015.325,3388.695,2009.736z M3338.151,2613.395c39.717,2.738,77.448,5.344,115.179,7.939
	c21.93,1.508,22.072,1.502,22.329-20.729c0.073-6.282,2.617-15.09-4.189-17.711c-5.345-2.058-7.087,6.987-10.901,10.645
	c-3.324,3.188-6.327,7.371-11.427,5.486c-5.203-1.923-5.092-7.11-4.616-11.658c0.575-5.497,2.228-10.915,2.443-16.406
	c0.179-4.562,6.234-10.226-0.005-13.462c-5.603-2.907-10.211,2.387-14.341,6.006c-1.882,1.649-3.296,3.821-5.092,5.582
	c-4.354,4.27-7.199,13.068-15.3,8.431c-7.713-4.415-4.459-12.488-3.081-19.269c0.696-3.425,2.309-6.656,3.402-10.01
	c3.432-10.522,7.199-20.958,10.034-31.64c1.205-4.54,2.245-10.107-5.069-12.05c-11.265-2.993-51.636,15.976-55.913,27.055
	c-2.324,6.02-4.458,12.145-12.269,10.229c-7.152-1.754-8.152-8.091-7.838-14.549c0.147-3.022,0.314-6.046,0.349-9.071
	c0.14-12.098-5.97-15.362-16.559-11.123c-12.742,5.102-24.291,12.095-33.879,22.2c-3.533,3.724-7.633,10.165-13.559,4.493
	c-4.864-4.656-1.587-10.733,1.575-15.209c9.476-13.411,23.53-20.296,38.671-24.945c19.35-5.94,24.976-16.556,17.689-35.648
	c-6.359-16.661-16.916-29.96-33.694-36.931c-12.879-5.351-26.078-11.88-39.776-1.119c-2.846,2.236-6.772,1.894-9.698-1.024
	c-3.421-3.412-2.763-7.411-1.058-11.225c4.522-10.118,9.471-20.049,13.81-30.242c2.927-6.878,6.86-14.399,0.966-21.331
	c-6.389-7.515-15.378-6.816-23.895-4.77c-14.175,3.406-24.706,13.164-36.133,21.428c-6.12,4.426-7.975,9.521-6.892,16.766
	c7.361,49.256,4.301,98.624,0.998,147.953c-1.322,19.75,0.027,39.249,2.605,58.806c1.217,9.235,5.222,12.218,14.656,12.466
	C3258.506,2609.838,3299.313,2611.821,3338.151,2613.395z M2505.636,2834.371c-74.851,74.515-80.059,82.564-71.448,109.858
	c10.43-29.68,19.074-40.012,32.491-36.683c19.183,4.76,15.037,20.302,12.788,33.805c42.883,5.524,52.901-0.282,68.297-38.612
	c2.443-6.082,4.967-12.138,7.171-18.306c16.181-45.284,33.89-89.619,67.308-125.823c11.429-12.382,14.775-28.194,13.659-45.139
	c-0.68-10.325-2.948-13.712-13.438-7.911c-40.161,22.211-80.627,43.87-121.041,65.621c-8.219,4.423-14.496,10.238-18.977,18.7
	c-9.847,18.597-25.289,28.335-46.882,26.764c-9.04-0.657-18.097,0.836-23.206,8.407c-21.94,32.511-51.12,58.313-77.981,86.293
	c-5.233,5.451-10.406,11.944-9.101,22.757c11.225-7.135,14.134-18.721,21.703-26.334c5.284-5.314,11.129-9.41,18.751-5.998
	c7.977,3.571,10.407,10.912,9.18,18.938c-0.886,5.793-3.386,11.341-5.378,17.671c11.512,0.962,22.54,1.249,33.478-0.631
	c4.789-0.823,10.149-1.388,11.34-8.021c7.762-43.206,39.5-67.531,72.167-90.974
	C2491.642,2835.078,2497.116,2830.501,2505.636,2834.371z M750.823,2491.54c0-31.275-0.212-62.552,0.143-93.823
	c0.093-8.214-2.086-10.463-10.426-8.683c-33.758,7.206-59.228,24.688-73.144,57.082c-8.315,19.354-11.982,39.466-9.611,60.571
	c0.648,5.773,3.51,13.294-3.503,16.263c-6.949,2.942-10.356-4.589-14.37-8.69c-6.777-6.923-13.546-13.351-23.586-15.482
	c-15.938-3.382-22.711,1.73-20.717,17.534c1.253,9.936,4.396,19.624,6.484,29.468c1.561,7.359,8.91,16.339-1.103,21.565
	c-8.402,4.385-11.21-5.675-15.829-10.431c-2.064-2.125-4.453-4.238-7.11-5.425c-7.933-3.544-16.963-7.254-24.213-0.723
	c-7.684,6.922-1.913,15.339,1.927,22.017c7.781,13.531,17.47,26.015,24.622,39.837c4.069,7.864,8.698,9.192,16.555,8.906
	c45.874-1.668,91.603-6.907,137.56-6.025c9.632,0.185,10.17-4.796,10.825-12.054C748.684,2566.208,748.627,2528.868,750.823,2491.54
	z M1544.742,2027.18c-6.213-6.565-5.626-12.359-6.356-17.747c-2.849-21.039-3.292-42.204-3.133-63.391
	c0.044-5.809,0.631-11.162-8.359-10.057c-22.722,2.794-45.358,0.793-67.705-3.486c-10.066-1.928-11.854,2.536-12.734,11.01
	c-7.298,70.319,51.811,129.996,121.902,122.765c60.375-6.228,94.174-48.493,83.264-103.752c-1.221-6.186-2.448-10.197-10.127-9.733
	c-32.718,1.979-65.327,2.834-93.869-20.577C1544.244,1964.688,1549.15,1994.986,1544.742,2027.18z M2965.964,1262.995
	c-0.879,6.956-2.154,13.887-2.578,20.871c-5.412,89.185-12.158,178.32-15.666,267.581c-4.719,120.069-3.87,240.264-3.462,360.421
	c0.039,11.548-3.718,27.832,2.25,33.434c7.365,6.914,22.311-2.317,34.118-2.561c11.35-0.234,14.011-4.725,12.945-15.99
	c-16.905-178.61-16.825-357.951-22.534-537.044C2969.688,1347.406,2972.363,1304.996,2965.964,1262.995z M789.052,1923.9
	c-1.137,6.714-2.004,9.955-2.197,13.237c-8.007,136.011-14.46,272.092-17.281,408.319c-1.556,75.164-1.534,150.361-5.017,225.485
	c-0.667,14.382-8.981,33.208-0.458,41.888c8.603,8.761,27.753,1.364,42.277,1.653c1.509,0.03,3.026-0.27,4.533-0.225
	c8.306,0.249,10.293-3.496,8.419-11.361c-2.214-9.297-3.572-18.828-4.816-28.321c-11.897-90.748-13.826-182.084-15.25-273.397
	c-1.834-117.56-2.657-235.135-4.094-352.702C795.081,1941.335,796.722,1933.533,789.052,1923.9z M3260.608,1780.935
	c-3.11,1.085-4.242,1.127-4.761,1.713c-9.358,10.577-18.649,21.214-27.939,31.851c-48.599,55.648-102.067,104.583-172.651,131.81
	c-30.958,11.942-62.867,17.971-95.287,23.109c-16.299,2.583-33.126,4.265-49.772,13.691c27.703,10.264,51.958,22.627,76.311,34.768
	c12.3,6.132,25.055,7.158,38.31,4.358c50.245-10.612,93.911-33.524,129.335-70.88c39.223-41.362,69.379-89.029,94.329-140.063
	C3253.03,1801.99,3256.222,1792.028,3260.608,1780.935z M3275.876,2398.943c10.152,2.294,19.997,4.261,29.692,6.802
	c6.267,1.642,9.601,1.134,8.565-6.653c-8.604-64.684-29.879-123.682-80.344-167.842c-24.313-21.275-54.871-30.172-89.052-35.846
	c21.234,54.661,40.499,106.88,50.544,163.279c8.259-5.34,14.469-9.552,20.869-13.454c14.091-8.592,28.909-14.365,45.875-10.735
	c18.203,3.896,26.742,15.898,23.055,34.198C3283.029,2378.865,3279.074,2388.655,3275.876,2398.943z M1535.361,1703.182
	c-22.081,1.308-45.056,0.586-65.765,11.868c-11.147,6.072-17.248,15.395-14.528,28.695c2.653,12.978,13.017,13.775,23.378,14.295
	c24.149,1.214,48.351,1.969,71.931,8.135c3.855,1.008,8.699,1.401,11.19,3.939c14.345,14.617,33.306,12.722,51.046,15.031
	c3.939,0.513,8.925-0.64,10.557-4.612c5.956-14.496,17.925-12.116,29.397-11.168c11.019,0.911,21.993,2.398,33.018,3.18
	c5.979,0.424,11.255-2.008,13.137-8.048c1.945-6.245-2.001-10.718-6.746-13.918c-4.135-2.789-8.643-5.291-13.33-6.95
	c-34.142-12.083-68.686-22.758-104.581-28.42c-1.885-0.297-5.657-0.383-4.921-2.031c5.898-13.19-5.9-7.057-9.218-7.774
	C1552.123,1703.718,1543.93,1703.835,1535.361,1703.182z M1392.235,1902.091c12.292,31.83,21.006,61.687,27.892,92.064
	c4.36,19.235,10.285,37.916,19.01,55.688c10.625,21.64,27.4,36.016,50.506,42.475c20.506,5.733,41.498,8.838,62.859,7.155
	c22.551-1.776,43.261-8.365,63.642-27.302c-11.364,3.257-18.443,5.28-25.519,7.316c-19.209,5.525-38.734,7.042-58.417,3.551
	c-64.763-11.483-110.312-76.418-102.048-145.091c0.553-4.593,4.42-10.109-2.501-13.145
	C1415.685,1919.549,1406.073,1910.545,1392.235,1902.091z M2721.214,1756.009c50.049,70.698,120.398,113.109,199.186,143.72
	c2.172,0.844,4.63,1.988,6.814-0.656c4.569-5.531-0.117-26.049-7.278-29.043C2848.939,1840.35,2781.783,1804.068,2721.214,1756.009z
	 M3194.647,1612.114c-61.383,41.005-122.61,81.584-191.128,109.589c-4.014,1.641-7.053,3.673-6.669,8.702
	c0.736,9.643-0.26,19.528,3.055,30.367C3073.433,1720.264,3137.025,1669.966,3194.647,1612.114z M2586.14,1945.499
	c-19.491-19.647-32.307-39.782-41.821-62.133c-9.593-22.536-13.083-46.703-18.873-70.293c-8.347,43.01-6.822,84.592,14.994,123.569
	c2.903,5.186,4.797,11.298,12.828,10.64C2563.092,1946.477,2572.958,1946.186,2586.14,1945.499z M666.866,2148.874
	c20.251,31.707,46.996,56.284,78.978,75.239c2.406,1.426,4.861,4.041,7.98,1.397c5.107-4.33,2.68-33.466-3.408-35.516
	C720.813,2180.027,694.198,2164.171,666.866,2148.874z M1668.552,1835.817c-22.734,4.279-42.227,7.444-54.586-14.349
	c-2.138-3.77-6.757-4.196-10.819-2.188c-4.7,2.323-5.567,6.889-5.708,11.478c-0.578,18.782,16.227,33.263,34.66,29.424
	C1646.201,1857.244,1657.965,1850.171,1668.552,1835.817z M2820.006,1672.306c-0.763,1.236-1.609,2.361-1.499,2.463
	c32.798,30.648,70.121,54.68,111.341,78.005c-2.582-11.42,5.238-22.319-8.505-27.285
	C2885.154,1712.411,2851.51,1694.359,2820.006,1672.306z M3095.537,1511.492c-19.288,11.093-37.705,23.387-57.775,32.739
	c-12.726,5.93-25.768,11.238-38.892,16.239c-11.628,4.431-5.664,13.611-5.641,20.628c0.02,6.121,4.795,3.061,7.614,1.453
	C3035.376,1562.845,3068.474,1541.191,3095.537,1511.492z M904.521,2149.119c-17.087,10.046-33.234,21.03-50.891,29.358
	c-10.868,5.126-22.194,9.276-33.275,13.958c-11.547,4.879-6.885,15.477-4.977,21.974c2.498,8.505,8.897,0.949,12.709-1.218
	C857.428,2196.512,883.362,2175.607,904.521,2149.119z M1456.745,1807.989c0.53,12.194,3.22,20.251,7.498,27.711
	c4.272,7.449,11.266,11.419,19.094,7.396c12.674-6.513,24.863-9.655,38.93-4.552c6.207,2.252,8.729-3.507,9.611-8.818
	c0.938-5.651-3.264-6.952-7.457-7.147c-9.569-0.445-19.204-1.122-28.729-0.478
	C1481.463,1823.062,1468.54,1821.031,1456.745,1807.989z M898.218,2064.586c-26.814,10.855-52.441,24.326-81.337,29.802
	c-8.936,1.694-4.58,12.267-3.532,18.321c1.566,9.046,8.292,2.963,11.674,1.457C852.211,2102.059,877.195,2086.461,898.218,2064.586z
	 M1943.033,3250.562c15.902-11.585,27.05-25.715,29.752-45.132c0.553-3.977,0.412-8.329-3.524-10.775
	c-3.882-2.413-6.902,0.156-8.857,3.148C1949.982,3213.747,1941.731,3230.495,1943.033,3250.562z M3049.143,1336.022
	c-17.273,10.618-34.334,21.602-51.888,31.734c-12.995,7.501-13.28,7.008-7.616,23.779
	C3011.576,1375.178,3032.44,1358.318,3049.143,1336.022z M697.025,2071.399c14.538,16.618,31.765,29.381,51.928,37.861
	c3.808,1.602,9.55,6.831,11.792-2.068c1.502-5.961,0.645-10.96-6.67-12.672C733.894,2089.799,715.488,2080.775,697.025,2071.399z
	 M3299.121,2273.06c0.958-0.178,1.916-0.356,2.874-0.534c-0.608-9.321-1.17-18.646-1.833-27.963
	c-1.326-18.641-1.281-18.353-19.423-14.061c-6.629,1.568-7,3.61-3.442,8.85C3284.816,2250.422,3291.874,2261.805,3299.121,2273.06z
	 M1702.399,1941.58c-36.302,6.332-39.079,10.35-27.787,39.028C1683.748,1967.776,1692.371,1955.665,1702.399,1941.58z
	 M2465.152,2912.941c-10.882,0.522-23.641,18.365-21.464,28.299c0.509,2.32,1.397,3.328,3.698,3.634
	c8.055,1.071,25.838-13.264,26.437-21.563C2474.317,2916.475,2470.781,2913.186,2465.152,2912.941z M1308.69,3176.819
	c9.566-10.875,17.201-19.247,24.452-27.938c3.235-3.876,6.294-8.783,1.197-13.167c-4.917-4.23-9.639-0.677-13.305,2.597
	C1310.635,3147.6,1306.582,3159.393,1308.69,3176.819z M765.175,2006.974c1.39-15.08,1.797-16.062-2.001-17.637
	c-16.225-6.729-31.101-16.063-46.64-24.282C729.867,1981.859,744.939,1996.149,765.175,2006.974z M3022.56,3032.41
	c-0.692,4.114-1.19,7.582,1.814,9.279c3.686,2.081,6.796-0.182,9.141-3.087c6.461-8.003,10.12-17.365,12.755-27.171
	c0.931-3.465,1.718-7.235-2.149-9.443c-4.632-2.645-7.785,0.649-10.206,3.775C3027.604,3013.911,3024.847,3023.66,3022.56,3032.41z
	 M1429.636,3183.283c14.75-8.259,21.007-20.501,29.343-30.706c2.288-2.802,6.441-6.23,1.615-10.069
	c-3.661-2.912-7.65-1.452-10.95,1.242C1438.013,3153.247,1430.63,3165.006,1429.636,3183.283z M2022.162,3251.299
	c12.775,1.888,18.021-4.55,19.507-14.861c0.858-5.959-2.138-9.657-8.52-9.798c-6.837-0.151-22.591,15.258-21.178,21.335
	C2013.509,3254.596,2019.556,3250.23,2022.162,3251.299z M2130.108,3259.958c9.528-3.236,16.594-7.699,22.754-13.547
	c4.094-3.886,5.224-8.538,1.416-13.261c-4.315-5.352-9.619-4.883-14.432-1.015
	C2131.406,3238.918,2128.562,3248.012,2130.108,3259.958z M1281.152,3122.221c-0.66-4.846-3.985-5.821-7.509-3.845
	c-10.971,6.153-17.309,16.188-21.437,27.716c-1.021,2.851,0.5,4.819,3.689,4.76
	C1259.975,3150.777,1281.385,3126.396,1281.152,3122.221z M2369.106,2920.17c-0.154-4.763,0.039-10.8-4.753-10.226
	c-9.771,1.171-13.017,10.471-15.889,18.178c-2.537,6.807,5.044,6.849,8.531,7.014
	C2367.74,2935.644,2366.664,2926.003,2369.106,2920.17z M848.853,1993.776c-10.638,2.176-21.257,4.445-31.919,6.493
	c-6.593,1.266-5.839,6.147-4.887,10.418c1.345,6.036,5.753,2.344,8.315,1.425C831.098,2008.255,841.027,2002.824,848.853,1993.776z
	 M3117.883,3036.167c2.514-9.395,10.705-12.911,16.842-18.463c4.194-3.794,5.561-9.012,1.345-13.343
	c-5.41-5.558-9.19-0.295-12.061,3.538C3117.886,3016.073,3115.48,3025.369,3117.883,3036.167z M2896.971,1369.017
	c11.638,11.474,22.405,16.944,32.969,22.66c3.228,1.746,7.391,5.347,9.63-1.095c1.826-5.252-0.208-8.154-5.918-9.734
	C2922.614,1377.795,2911.818,1373.871,2896.971,1369.017z M2979.676,3016.951c5.314-4.932,7.415-7.014,9.654-8.933
	c4.739-4.061,6.355-9.005,4.073-14.865c-0.408-1.048-2.389-2.496-3.123-2.244c-5.565,1.912-6.459,7.335-8.048,11.984
	C2981.134,3006.103,2980.953,3009.627,2979.676,3016.951z"/>
<path d="M2420.502,3388.659c-10.094-3.69-19.164-7.49-28.525-10.335c-27.508-8.361-55.132-16.343-82.71-24.473
	c-11.158-3.29-22.183-7-32.095-13.214c-23.486-14.725-23.669-33.275-0.385-48.074c19.913-12.656,42.112-19.287,65.112-23.41
	c47.028-8.43,94.545-7.161,141.983-6.494c59.567,0.838,119.046,2.202,178.47-4.965c53.687-6.475,65.764-14.703,82.704-64.671
	c7.515,4.77,6.791,11.949,6.14,18.376c-2.416,23.855-15.681,39.728-37.314,49.194c-16.436,7.193-33.98,9.273-51.509,11.444
	c-56.808,7.037-113.798,6.859-170.876,4.643c-50.507-1.961-100.996-1.98-150.952,7.304c-20.453,3.801-40.228,10.047-57.544,22.056
	c-11.527,7.994-11.279,14.086,0.372,21.722c11.134,7.297,23.821,10.768,36.524,14.161c38.519,10.29,76.806,21.404,113.782,36.414
	c8.183,3.322,21.359,5.281,18.934,17.719c-2.196,11.265-14.574,8.935-23.127,9.385c-242.123,12.748-484.229,20.65-726.38-0.142
	c-159.108-13.662-317.203-33.196-471.599-75.848c-30.167-8.334-59.811-18.315-88.06-32.018
	c-15.567-7.551-30.014-16.676-41.148-30.242c-18.742-22.837-20.529-44.228-5.954-69.854c1.443-2.538,2.845-5.1,5.311-9.526
	c-34.846-0.465-67.721-3.468-100.288-9.349c-36.275-6.55-72.61-13.155-106.695-27.752c-51.542-22.073-56.826-52.112-16.625-91.672
	c57.581-56.663,129.061-87.341,205.527-107.471c96.094-25.297,194.881-32.85,293.437-41.419c1.506-0.131,3.055-0.305,4.536-0.105
	c4.836,0.653,11.213-0.072,11.575,6.858c0.372,7.104-5.731,7.07-10.793,7.513c-21.118,1.848-42.268,3.385-63.35,5.575
	c-79.325,8.244-158.845,15.819-236.104,36.76c-71.908,19.491-138.913,49.071-193.169,102.267
	c-7.574,7.426-14.992,15.094-19.728,24.763c-6.229,12.718-4.12,23.346,8.188,31.436c14.072,9.248,29.534,15.363,45.513,20.137
	c63.23,18.892,127.716,29.476,193.875,28.467c3.051-0.047,6.23-0.904,8.101,2.188c1.903,3.146-0.178,5.824-1.984,8.199
	c-3.664,4.817-7.821,9.28-11.251,14.25c-16.793,24.342-13.854,47.963,8.525,67.232c16.725,14.4,36.781,22.853,57.131,30.485
	c69.748,26.16,142.368,41.092,215.312,54.745c191.66,35.872,385.537,46.924,579.955,53.108c123.349,3.924,246.254-5.365,369.35-9.01
	c20.69-0.613,41.378-1.357,62.057-2.272C2409.57,3392.532,2414.886,3393.953,2420.502,3388.659z"/>
<path d="M2747.795,707.272c9.905,1.174,23.054,1.973,35.862,4.5c9.689,1.911,14.445-0.495,17.923-9.982
	c17.249-47.05,48.935-79.215,98.136-92.562c46.423-12.594,87.856,0.202,126.079,26.152c10.686,7.255,13.371,5.313,17.65-6.139
	c18.473-49.451,71.635-62.489,111.773-28.053c25.931,22.247,34.975,53.404,44.138,84.478c1.867,6.333,1.629,14.746,13.119,8.728
	c41.149-21.553,83.548,0.68,100.795,40.181c5.3,12.139,11.563,18.514,25.174,21.608c24.641,5.603,45.835,18.493,59.286,41.153
	c12.348,20.803,9.837,42.189-6.949,59.64c-18.19,18.911-41.102,30.073-66.506,33.153c-30.951,3.753-53.649,13.557-72.24,42.509
	c-41.663,64.883-102.183,84.046-176.287,58.69c-25.791-8.825-51.985-16.292-75.599-30.301c-5.22-3.097-9.014-3.183-15.043-0.644
	c-59.722,25.145-121.153,28.982-183.481,11.472c-23.961-6.731-42.601-21.229-50.023-46.212c-2.508-8.44-7.933-7.555-13.818-7.685
	c-28.379-0.625-56.309-4.386-83.581-12.347c-14.073-4.108-27.691-9.424-40.011-17.603c-24.866-16.508-30.639-40.919-15.786-66.961
	c8.65-15.165,20.695-27.292,34.543-37.649c5.004-3.743,9.444-7.628,10.755-13.989c8.089-39.249,35.3-55.375,72.213-59.602
	C2725.433,708.719,2735.022,708.267,2747.795,707.272z M2739.626,721.713c-8.444,1.04-21.008,2.216-33.445,4.195
	c-27.47,4.372-44.576,20.142-49.906,47.639c-2.169,11.191-8.09,17.919-17.668,24.46c-18.67,12.75-35.594,29.61-32.987,54.165
	c2.448,23.05,24.245,28.715,42.527,35.988c3.274,1.302,6.675,2.308,10.061,3.301c28.251,8.282,57.127,12.403,86.535,13.197
	c6.827,0.184,14.94-1.104,17.088,8.467c6.532,29.114,28.212,42.265,54.143,49.089c57.428,15.112,113.2,4.474,167.714-14.603
	c8.063-2.821,13.464-3.514,20.764,0.338c34.216,18.058,71.039,28.645,108.751,36.219c15.823,3.178,31.786,5.093,48.016,0.987
	c43.658-11.045,67.602-45.352,92.973-78.024c1.13-1.456,1.451-3.818,1.514-5.778c0.369-11.528,7.509-15.34,17.703-16.664
	c13.003-1.688,25.973-3.753,38.864-6.152c23.638-4.398,45.809-12.358,64.054-28.768c17.675-15.897,19.174-29.521,5.803-49.18
	c-13.547-19.919-34.813-27.804-56.447-32.212c-12.961-2.64-18.72-7.754-23.043-19.426c-17.506-47.275-51.375-59.61-95.397-35.264
	c-9.866,5.456-15.047,2.476-17.832-7.545c-2.027-7.289-3.905-14.628-6.202-21.832c-7.049-22.107-13.236-44.781-28.733-62.86
	c-14.781-17.244-32.596-28.925-56.877-24.328c-23.082,4.37-34.925,20.433-41.901,41.291c-1.279,3.824-2.536,7.656-3.763,11.498
	c-5.618,17.582-10.643,18.144-24.747,6.409c-48.356-40.235-109.164-52.517-164.368-14.456
	c-26.216,18.075-39.902,43.643-50.593,71.605c-5.249,13.729-12.641,17.877-26.507,13.646
	C2772.151,722.975,2757.939,722.2,2739.626,721.713z"/>
<path d="M2760.856,3384.621c3.497-0.307,7.08-1.258,10.473-0.8c10.347,1.394,16.001-1.237,19.107-12.752
	c4.057-15.041,19.67-18.433,34.434-7.636c7.738,5.659,13.073,6.333,21.139,1.188c10.669-6.806,23.064-10.1,35.441-12.723
	c14.737-3.122,29.488-2.876,40.219-18.438c8.184-11.869,23.868-8.062,36.518-2.876c7.279,2.984,9.202,2.445,8.765-6.421
	c-1.45-29.369,7.344-43.372,33.288-54.458c4.64-1.983,7.653-4.048,8.944-8.963c16.507-62.86,77.267-93.096,146.147-90.278
	c66.032,2.702,112.689,52.313,115.697,120.561c0.941,21.352-2.525,42.259-7.207,62.971c-1.265,5.597-3.453,9.43,1.352,15.989
	c6.768,9.239-4.039,10.205-9.834,10.917c-27.04,3.322-54.091,7.618-81.25,8.674c-60.537,2.354-121.13,2.322-181.441-5.006
	c-6.949-0.844-18.485,0.435-17.664-8.973c0.856-9.799,12.191-5.08,19.134-5.958c1.967-0.249,4.119-0.146,6.022,0.384
	c15.369,4.281,25.186,0.792,25.451-17.307c0.042-2.876,1.53-5.831,2.765-8.561c1.208-2.671,2.632-5.927,6.469-4.765
	c2.739,0.829,3.06,3.697,3.444,6.218c1.317,8.651-0.882,17.007-2.559,26.303c61.892,2.64,123.315,5.161,184.544-3.935
	c0.499-0.074,1.048-0.052,1.487-0.259c8.595-4.034,24.555,4.128,26.137-7.749c2.733-20.516,4.556-43.638-14.362-59.03
	c-11.357-9.241-25.199-0.819-38.115,0.226c10.707-23.1,35.931-22.453,59.273,1.104c8.502-47.616-29.761-103.845-79.341-114.34
	c-35.657-7.547-70.369-2.38-102.822,14.624c-21.43,11.229-36.059,28.885-44.87,51.288c-2.719,6.913-5.708,13.656-2.635,21.832
	c2.687,7.15-1.424,13.355-8.961,10.865c-9.383-3.099-17.155-5.2-24.414,3.38c-8.26,9.762-12.301,20.875-10.448,33.592
	c1.088,7.462,3.339,14.746,4.808,22.162c0.901,4.551,1.218,9.656-3.039,12.503c-5.563,3.721-7.689-2.247-10.76-5.063
	c-4.991-4.579-11.186-6.775-17.433-8.737c-7.594-2.385-16.614-7.452-22.866-0.975c-6.643,6.882,4.338,11.729,5.893,18.058
	c1.116,4.542,6.334,9.603,0.322,13.507c-6.373,4.138-10.958-0.688-13.016-5.99c-3.487-8.981-9.052-7.837-16.852-6.691
	c-23.038,3.384-46.084,5.837-65.773,20.169c-7.804,5.681-14.115,0.461-20.473-3.966c-4.351-3.029-8.454-8.789-14.57-5.655
	c-6.072,3.112-7.331,9.239-5.785,15.729c1.768,7.419-1.347,9.139-8.023,7.271c-11.007-3.08-22.049-6.031-33.077-9.036
	C2760.647,3386.07,2760.751,3385.346,2760.856,3384.621z"/>
<path d="M689.626,3350.314c-8.675-2.405-16.644-7.007-19.483-15.385c-3.763-11.106-12.243-16.546-20.758-22.753
	c-5.372-3.916-9.988-9.183-17.304-4.444c-6.562,4.25-8.788,10.83-8.871,18.22c-0.027,2.45,0.57,5.052,1.494,7.337
	c1.659,4.101,2.063,7.989-1.425,11.127c-4.219,3.795-8.472,1.374-12.595-0.603c-10.601-5.085-19.554-14.123-33.486-14.321
	c-0.122,8.228,6.799,11.399,9.541,16.804c1.554,3.064,4.155,6.193,0.66,9.533c-3.305,3.157-6.469,1.218-9.601-0.561
	c-11.036-6.268-18.162-21.425-14.397-30.686c3.863-9.502,16.176-12.62,30.567-7.599c3.769,1.315,7.397,3.035,12.865,5.306
	c2.479-9.748,5.771-19.3,14.509-24.976c12.078-7.845,24.791-8.296,37.288-1.34c7.604,4.232,10.761,2.95,13.827-5.609
	c10.912-30.462,31.098-54.044,57.618-72.105c45.76-31.165,87.758-14.244,100.094,39.984c0.309,1.358,1.043,2.62,2.281,5.642
	c11.386-10.071,22.482-19.206,35.563-25.562c23.634-11.483,47.956-14.171,73.631-8.617c27.768,6.006,45.213,21.514,48.387,50.497
	c0.984,8.99,3.769,11.622,12.218,7.291c3.981-2.041,8.525-3.104,12.917-4.202c25.045-6.259,45.117,2.535,52.661,22.939
	c8.264,22.351-1.127,46.815-22.643,57.983c-13.199,6.851-27.696,10.066-42.31,10.643c-94.433,3.726-188.782,3.247-282.631-9.627
	c-10.671-1.464-24.206,0.333-29.48-13.841c7.069-3.582,14.212-3.189,21.981-2.015c94.757,14.332,190.19,11.702,285.524,10.39
	c15.021-0.207,30.181-3.725,43.28-12.137c12.863-8.26,17.202-23.217,11.481-37.205c-5.042-12.329-15.276-17.031-31.417-13.581
	c-7.358,1.573-14.418,4.51-21.651,6.705c-16.587,5.035-20.984,2.385-23.747-14.168c-5.563-33.325-12.433-40.307-45.768-46.425
	c-12.631-2.318-25.092-1.665-37.417,2.056c-21.783,6.577-40.831,17.166-54.271,36.245c-2.845,4.039-5.441,9.437-11.495,8.101
	c-5.473-1.208-7.641-6.638-9.009-11.354c-1.813-6.248-2.425-12.851-3.473-19.315c-5.715-35.238-32.529-49.897-64.468-34.013
	c-28.548,14.198-49.299,36.824-61.622,66.164c-6.091,14.502-8.823,30.152,0.331,45.157
	C691.806,3340.565,692.359,3345.417,689.626,3350.314z"/>
<path d="M869.102,857.059c-22.953-2.801-44.616-7.748-65.385-15.567c-10.137-3.816-17.805-2.488-26.679,3.086
	c-12.334,7.748-25.285,14.749-38.608,20.627c-19.091,8.424-29.348,2.746-33.933-17.895c-3.636-16.367-2.856-33.142-2.705-49.733
	c0.095-10.502-3.139-17.909-11.363-24.664c-15.155-12.447-31.028-24.314-43.057-40.118c-13.19-17.331-10.198-27.965,10.422-35.13
	c19.019-6.608,38.248-12.703,57.642-18.102c9.677-2.694,15.255-8.026,19.315-17.036c7.23-16.046,14.829-32.035,23.722-47.198
	c14.153-24.132,24.64-24.805,41.883-3.335c11.038,13.744,21.826,27.784,31.488,42.504c5.519,8.408,12.137,12.384,21.732,14.014
	c17.371,2.953,34.757,6.194,51.798,10.62c22.007,5.716,26.269,17.593,13.984,36.986c-9.743,15.379-21.629,29.161-34.131,42.322
	c-6.581,6.927-8.384,14.117-6.185,23.371c4.19,17.636,8.492,35.353,9.3,53.54C889.032,850.951,882.324,857.679,869.102,857.059z
	 M865.362,843.697c9.576,0.636,10.245-4.945,9.073-11.856c-3.122-18.395-6.132-36.813-9.543-55.155
	c-1.804-9.703,0.698-17.509,7.08-25.066c12.033-14.25,23.321-29.128,34.96-43.713c7.501-9.4,4.154-14.204-6.602-16.222
	c-18.34-3.441-36.625-7.181-54.992-10.463c-10.511-1.878-17.998-6.742-23.998-16.126c-10.31-16.123-22.411-31.091-33.405-46.792
	c-6.162-8.8-11.076-9.187-16,0.837c-8.89,18.097-18.324,35.941-26.689,54.275c-4.31,9.447-10.192,15.181-20.465,17.974
	c-18.96,5.155-37.61,11.472-56.317,17.528c-18.311,5.928-18.813,7.839-5.219,20.537c12.905,12.055,25.912,24.015,39.224,35.615
	c8.567,7.465,12.479,16.188,12.682,27.712c0.31,17.633,1.923,35.253,3.306,52.853c0.674,8.574,4.818,11.61,13.108,7.067
	c13.263-7.268,27.228-13.419,39.848-21.649c11.797-7.692,22.784-7.99,35.744-3.716C826.278,833.641,845.934,838.324,865.362,843.697
	z"/>
<path d="M751.901,3005.93c8.085-6.772,14.646-13.852,24.188-16.287c12.318-3.144,21.897,0.496,24.85,12.885
	c4.048,16.987,2.677,34.146-5.15,50.176c-2.243,4.595-6,9.387-11.774,6.992c-5.745-2.382-2.829-7.826-1.484-11.862
	c3.552-10.659,5.479-21.495,4.837-32.736c-0.672-11.774-6.542-12.493-14.925-6.695c-10.615,7.343-15.386,18.311-18.178,30.432
	c-0.997,4.327-1.371,10.071-7.1,10.147c-5.368,0.071-7.213-5.434-8.067-9.647c-1.593-7.859-2.486-15.92-2.93-23.938
	c-0.586-10.597-0.538-21.302-3.891-31.453c-5.057-15.31-14.521-26.964-31.14-29.762c-16.744-2.82-30.69,3.023-41.195,16.771
	c-6.845,8.958-11.602,18.917-14.94,29.552c-2.86,9.112-7.515,15.66-16.973,19.658c-11.793,4.985-20.379,33.909-11.868,42.281
	c7.725,7.6,20.084,3.947,30.432,4.627c8.049,0.529,5.765-6.416,6.715-10.898c0.606-2.858,0.415-6.591,4.137-7.235
	c2.808-0.486,4.893,2.18,5.298,4.458c3.255,18.304,16.73,14.708,29.032,13.927c29.758-1.888,30.649-3.16,19.113-31.14
	c-7.086-17.187-16.198-32.021-39.563-26.923c8.73-15.644,22.835-18.287,35.108-6.971c13.416,12.37,20.566,28.554,23.674,46.308
	c1.141,6.518-0.302,13.463,10.086,12.516c3.867-0.353,6.023,3.58,6.66,7.159c0.682,3.834-1.42,6.957-4.66,8.809
	c-2.586,1.479-5.507,2.884-8.408,3.221c-41.741,4.849-83.469,7.363-124.961-2.163c-2.43-0.558-4.723-1.721-7.073-2.621
	c-10.321-3.952-5.743-7.814,0.534-11.107c-3.325-4.064-8.089-2.969-11.43-5.002c-4.599-2.798-4.863-8.242,0.172-8.749
	c10.038-1.01,8.728-7.576,9.407-13.875c1.247-11.558,5.372-22.059,15.824-27.881c9.012-5.019,13.521-12.03,17.001-21.486
	c6.961-18.913,18.475-35.014,37.043-44.22c30.73-15.236,68.56,3.323,77.393,37.68
	C749.656,2988.498,750.349,2996.445,751.901,3005.93z"/>
<path d="M2328.408,825.303c-14.302-0.728-27.747-5.164-41.007-10.006c-6.353-2.32-11.226-1.724-16.645,2.506
	c-9.942,7.759-20.631,14.374-32.587,18.9c-12.426,4.704-19.545-0.215-22.882-11.888c-3.346-11.704-4.557-23.827-4.194-35.962
	c0.254-8.47-3.126-14.183-9.804-19.091c-12.188-8.959-24.506-17.926-34.279-29.635c-10.279-12.316-9.017-19.903,4.739-28.035
	c12.641-7.473,26.377-12.691,40.519-16.46c10.12-2.697,16.719-8.227,20.538-18.024c3.288-8.435,7.437-16.561,11.576-24.634
	c13.145-25.634,22.562-26.711,40.255-4.581c6.613,8.271,13.566,16.416,19.01,25.435c5.279,8.744,12.346,12.347,22.055,13.233
	c12.046,1.099,24.161,2.316,35.983,4.758c14.597,3.015,18.106,11.061,11.65,24.433c-5.558,11.512-13.688,21.346-22.861,29.941
	c-8.042,7.535-9.847,15.2-7.11,25.631c2.803,10.681,4.532,21.772,5.448,32.79C2350.092,820.011,2343.839,825.836,2328.408,825.303z
	 M2328.276,813.983c7.095,0.914,9.748-2.131,8.849-8.735c-0.952-6.995-1.366-14.186-3.349-20.897
	c-6.333-21.437-5.081-40.433,14.15-55.398c4.254-3.31,6.979-8.572,10.453-12.898c6.583-8.195,4.6-13.37-5.844-12.886
	c-36.809,1.706-60.791-15.944-78.152-47.246c-8.504-15.334-12.964-14.959-18.062,1.807c-10.028,32.977-30.818,50.976-63.791,59.8
	c-24.068,6.441-24.316,10.2-4.296,24.467c23.687,16.88,39.817,36.318,36.124,67.322c-0.4,3.36,1.325,6.921,1.622,10.427
	c0.624,7.353,3.944,8.493,9.863,4.792c9.831-6.147,20.075-11.713,29.449-18.487c8.205-5.929,15.844-6.86,25.37-3.316
	C2302.9,807.288,2315.711,810.304,2328.276,813.983z"/>
<path d="M1132.175,620.542c12.379,0.771,18.59,9.604,21.758,19.871c3.604,11.678,9.39,18.348,22.107,20.36
	c10.149,1.605,18.898,7.775,21.638,18.759c2.821,11.307-5.056,18.051-12.788,23.562c-8.866,6.32-13.143,13.34-13.537,24.831
	c-0.99,28.855-14.063,35.295-38.787,19.905c-6.2-3.859-11.18-4.946-17.954-1.499c-10.555,5.372-21.891,9.057-32.668,0.562
	c-10.47-8.253-8.815-19.965-6.075-30.665c2.11-8.241-0.694-12.93-6.021-18.419c-21.034-21.673-16.991-38.366,11.873-44.79
	c12.867-2.864,21.718-8.921,29.461-18.704C1116.459,627.648,1122.349,621.169,1132.175,620.542z M1089.894,724.408
	c-1.588,14.102,5.018,14.277,12.55,10.314c14.908-7.843,28.301-7.926,41.669,3.642c7.053,6.104,13.482,2.714,12.551-6.206
	c-1.956-18.742,5.53-31.743,20.288-42.202c9.527-6.752,6.751-13.617-3.299-15.118c-18.052-2.695-28.493-10.931-32.792-29.485
	c-2.953-12.745-9.927-13.469-16.858-1.962c-8.399,13.944-20.412,19.97-35.394,22.552c-3.438,0.593-6.797,1.812-10.1,2.999
	c-7.861,2.825-9.307,8.149-3.259,13.532C1088.893,694.615,1099.401,707.289,1089.894,724.408z"/>
<path d="M2653.774,1169.572c-12.931-5.614-23.545,1.116-34.798,11.646c-13.334,12.477-27.358,9.062-35.358-8.081
	c-7.025-15.054-12.491-29.194-30.208-36.395c-11.745-4.774-12.131-18.647-1.568-29.515c11.361-11.688,20.522-23.717,26.448-39.277
	c5.542-14.552,21.014-18.34,34.015-8.516c11.387,8.604,22.525,10.727,36.265,9.862c18.863-1.187,29.126,10.685,24.276,28.748
	c-3.778,14.071-0.423,25.044,5.823,37.131C2690.076,1157.246,2681.208,1170.242,2653.774,1169.572z M2654.894,1155.5
	c14.417,1.587,16.885-3.153,11.957-13.758c-7.262-15.625-17.999-30.287-8.005-49.54c3.637-7.008-4.499-11.37-10.947-9.367
	c-16.359,5.079-29.036,0.831-40.989-10.918c-7.401-7.275-15.925-5.559-18.069,5.256c-3.03,15.28-10.14,26.433-23.303,35.053
	c-9.63,6.307-7.372,13.597,3.113,17.408c10.055,3.655,17.734,9.215,21.107,19.901c1.816,5.754,4.26,11.329,6.699,16.862
	c3.544,8.039,9.63,9.741,15.122,3.024C2623.981,1154.25,2638.847,1149.544,2654.894,1155.5z"/>
<path d="M687.796,1026.858c-4.04,9.669-1,20.299,3.426,31.44c6.778,17.062-1.419,29.465-19.767,29.369
	c-11.278-0.059-19.791,2.84-28.638,9.897c-14.577,11.626-28.332,6.774-33.055-11.598c-2.294-8.923-6.784-13.406-14.408-17.485
	c-20.647-11.049-22.145-26.654-3.674-41.262c7.016-5.549,11.623-11.854,15.535-19.63c7.823-15.554,20.715-19.73,34.862-10.552
	c7.753,5.03,14.979,6.337,23.92,5.838C681.39,1002.017,688.277,1009.644,687.796,1026.858z M661.698,1073.32
	c18.901,0.75,21.291-2.57,12.625-18.229c-4.706-8.504-7.031-16.073-2.354-25.404c4.788-9.552,0.223-13.322-9.378-11.396
	c-9.756,1.957-17.535-0.469-24.457-7.702c-7.851-8.203-14.825-5.603-18.373,4.033c-3.776,10.255-9.245,17.892-18.73,24.032
	c-10.805,6.996-9.996,12.973,2,17.725c11.393,4.513,18.6,10.851,19.764,23.6c0.989,10.841,6.45,11.282,13.574,4.418
	C643.812,1077.226,651.497,1070.886,661.698,1073.32z"/>
<path d="M3325.118,3176.984c0.616,6.531,1.546,13.055,1.725,19.6c0.271,9.909-4.779,12.574-13.603,8.93
	c-2.28-0.942-4.28-2.76-6.615-3.332c-14.375-3.524-20.222,2.555-16.26,16.737c1.392,4.983,6.378,11.341-2.017,13.707
	c-6.87,1.936-8.947-5.031-11.133-10.028c-8.965-20.493-1.207-33.623,21.188-34.725c7.361-0.363,10.311-1.433,10.566-9.934
	c0.824-27.483,20.462-39.167,42.719-22.785c17.074,12.567,28.569,16.728,45.121,0.665c7.846-7.614,20.665-8.991,30.588,0.008
	c9.247,8.386,7.875,18.929,4.26,29.458c-2.94,8.562-5.878,17.131-9.103,25.588c-1.895,4.969-5.223,9.429-11.16,7.835
	c-6.924-1.859-7.449-7.746-5.432-13.51c2.828-8.081,6.44-15.885,9.38-23.931c1.704-4.663,4.316-10.459-0.516-13.994
	c-4.695-3.435-9.782,0.505-13.832,3.271c-6.232,4.257-12.192,8.979-17.883,13.944c-8.895,7.76-16.518,8.976-23.384-2.538
	c-4.214-7.068-10.474-12.281-17.982-15.719C3329.537,3160.64,3324.708,3163.826,3325.118,3176.984z"/>
<path d="M1091.446,2794.69c-0.618,8.092-2.057,16.031-5.216,23.525c-2.548,6.046-6.651,10.961-13.877,8.202
	c-7.17-2.737-4.808-8.714-3.205-14.153c1.986-6.736,4.516-13.459,5.322-20.361c1.266-10.843-5.051-15.206-14.908-12.421
	c-10.261,2.899-19.974,7.802-24.561,18.418c-5.116,11.841-11.796,13.9-22.051,5.538c-4.186-3.414-9.31-6.473-14.484-7.731
	c-15.822-3.849-27.448,8.378-24.343,24.673c1.648,8.648,6.28,15.846,10.493,23.295c1.857,3.282,2.647,6.975-0.843,9.537
	c-3.263,2.395-6.532,0.928-9.711-1.201c-13.741-9.205-21.293-36.608-14.182-52.002c7.53-16.3,27.811-25.4,46.223-17.839
	c10.559,4.336,16.085,1.887,23-5.221c6.737-6.925,15.563-11.251,25.036-13.438
	C1075.762,2758.519,1092.331,2772.503,1091.446,2794.69z"/>
<path d="M3371.88,3337.641c2.057-0.474,2.632-0.453,3.012-0.715c19.531-13.473,31.536-15.287,40.792-6.132
	c9.612,9.507,9.423,33.9-0.297,48.52c-2.388,3.593-5.097,6.606-9.82,4.891c-5-1.816-4.529-6.421-3.831-10.282
	c1.342-7.426,4.043-14.654,4.886-22.11c1.189-10.512-4.208-13.852-13.719-9.185c-8.035,3.943-13.168,10.73-17.621,18.208
	c-2.766,4.645-6.596,7.762-12.442,6.365c-6.594-1.575-6.179-6.764-6.211-12.007c-0.049-8.058-0.3-16.143-1.09-24.155
	c-0.375-3.795-0.811-8.654-5.578-9.773c-4.575-1.075-7.356,2.646-9.879,5.742c-12.238,15.023-16.927,32.943-19.752,51.618
	c-0.616,4.07,0.317,10.662-5.939,10.099c-4.577-0.411-4.072-6.424-4.23-10.269c-0.93-22.566,5.854-42.818,19.603-60.576
	c6.365-8.221,14.346-15.028,25.79-12.175c11.377,2.836,12.816,12.99,14.517,22.558
	C3370.596,3331.224,3371.208,3334.171,3371.88,3337.641z"/>
<path d="M1978.492,737.314c-11.722,1.859-21.633,3.591-31.601,4.888c-2.204,0.287-5.84-0.239-6.671-1.652
	c-1.891-3.213,0.926-5.786,3.608-7.108c5.387-2.656,10.883-5.272,16.602-7.04c21.173-6.546,21.214-6.414,19.468-31.061
	c-6.566,4.589-5.058,11.707-7.209,17.072c-1.138,2.837-1.595,6.42-5.445,5.942c-3.779-0.469-4.452-3.998-3.789-7.056
	c3.734-17.226,7.632-34.417,11.642-51.581c0.703-3.011,2.574-5.756,6.015-5.984c4.61-0.305,5.531,3.5,6.637,6.872
	c4.618,14.089,5.891,28.688,5.409,43.327c-0.34,10.342,2.617,13.394,13.089,10.471c7.372-2.058,19.119-8.967,21.938,2.013
	c2.253,8.779-10.684,10.352-18.092,11.634c-12.685,2.196-19.605,7.789-19.432,21.456c0.064,5.048,0.076,13.677-6.569,13.275
	c-8.271-0.501-4.937-9.274-5.541-14.793C1978.228,745.052,1978.492,742.052,1978.492,737.314z"/>
<path d="M2464.57,993.273c-8.42-5.382-22.742,4.74-28.57-5.641c-6.366-11.339-12.507-23.195-17.672-35.268
	c-2.038-4.765,29.023-37.974,34.162-36.55c10.853,3.008,23.29,5.384,31.262,12.372c9.206,8.069,8.04,22.952,12.105,34.642
	C2498.011,969.023,2472.666,993.097,2464.57,993.273z M2432.245,952.543c4.079,6.044,14.131,7.976,11.384,17.888
	c-0.946,3.412-0.698,9.722,2.915,7.661c7.654-4.365,18.146,6.747,21.245-2.054c3.035-8.619,10.231-9.881,15.573-14.48
	c-3.468-5.46-10.604-8.456-7.629-15.869c3.199-7.97-0.355-10.064-7.634-9.08c-4.308,0.582-7.884-0.538-10.803-3.926
	c-3.263-3.787-6.334-3.179-7.639,1.475C2447.091,943.313,2438.627,946.767,2432.245,952.543z"/>
<path d="M743.144,2826.233c6.196-16.28,15.758-23.729,27.381-27.289c54.116-16.574,107.164-11.821,158.917,10.063
	c4.288,1.813,9.343,4.11,10.632,11.996C874.949,2810.647,810.002,2788.319,743.144,2826.233z"/>
<path d="M1457.092,629.726c-4.109,7.095-3.594,16.419-4.026,25.816c-0.295,6.418-6.413,12.847-12.316,10.336
	c-12.823-5.455-27.607,24.231-37.706-2.213c-3.552-9.302-18.014-6.622-17.789-18.381c0.179-9.384,10.583-14.003,10.565-24.342
	c-0.022-12.899,9.318-18.211,20.78-14.49c10.442,3.39,20.453,7.78,31.465,9.618C1453.826,617.031,1457.79,621.328,1457.092,629.726z
	 M1440.68,627.182c-6.771-0.838-13.71,0.395-17.259-2.511c-12.702-10.401-10.657-1.627-15.337,7.335
	c-6.346,12.152,3.612,17.012,6.526,23.839c2.228,5.219,9.473-3.825,15.296-4.005c7.084-0.219,10.038-2.838,5.78-10.273
	C1432.547,636.085,1439.091,632.815,1440.68,627.182z"/>
<path d="M1652.224,617.544c13.199-0.352,32.722,24.714,28.358,36.215c-2.762,7.28-1.349,17.439-8.477,21.646
	c-10.234,6.04-21.76,9.997-32.975,14.205c-3.407,1.278-7.825-1.052-8.714-4.425c-1.944-7.371-7.36-10.049-13.394-12.789
	c-3.792-1.722-7.867-5.497-6.15-9.295c4.769-10.548,4.899-22.017,8.184-32.755c0.756-2.47,3.832-5.63,6.196-5.964
	C1635.089,622.989,1644.671,620.864,1652.224,617.544z M1655.528,631.207c-4.785,2.676-8.794,6.034-13.353,7.155
	c-4.576,1.125-13.417-9.174-13.039,3.692c0.192,6.518,0.249,12.209-2.442,17.984c7.907,1.65,10.068,11.808,15.348,13.195
	c5.012,1.317,17.534-5.81,17.293-8.31c-0.82-8.484,16.867-16.185,1.283-24.946C1658.079,638.552,1657.183,634.205,1655.528,631.207z
	"/>
<path d="M2579.001,1358.673c-16.569-1.041-26.963-7.101-36.989-14.046c-0.409-0.283-0.772-0.661-1.086-1.051
	c-4.99-6.197-4.166-13.189,0.751-17.924c9.801-9.435,0.601-34.026,25.064-31.366c2.898,0.315,5.422,2.559,8.7,1.193
	c15.827-6.596,21.341,1.947,27.958,15.351c7.453,15.098,7.086,23.883-8.667,31.456
	C2587.221,1345.896,2587.878,1360.449,2579.001,1358.673z M2586.901,1306.087c-27.559,15.941-27.559,15.941-33.721,27.892
	c18.139,25.424,28.376,0.844,39.345-7.354C2600.525,1320.646,2581.416,1315.872,2586.901,1306.087z"/>
<path d="M3433.954,1244.14c5.369,5.004,19.691,2.653,16.199,13.367c-2.678,8.219-13.293,1.806-20.223,0.819
	c-17.917-2.552-19.321-1.307-15.493,16.484c1.373,6.382,3.128,12.683,4.445,19.076c0.739,3.588,0.555,7.635-3.527,8.877
	c-3.877,1.179-6.848-1.735-8.368-4.982c-2.108-4.503-3.828-9.263-5.074-14.078c-2.106-8.133-1.158-17.522-14.659-17.137
	c-5.697,0.162-7.375-7.401-2.787-11.518c6.978-6.264,8.059-12.733,5.529-21.3c-1.554-5.262-1.588-11.942,4.836-14.28
	c6.881-2.505,10.522,3.423,12.011,8.526c3.652,12.516,10.77,10.203,19.431,6.172c4.255-1.98,9.821-6.205,13.735-1.049
	C3444.831,1239.468,3434.752,1239.757,3433.954,1244.14z"/>
<path d="M591.956,1408.353c1.344-1.557,2.373-2.648,3.289-3.827c2.797-3.602,3.66-11.283,10.196-8.042
	c6.024,2.988,2.213,9.101,0.398,13.402c-2.962,7.018-4.753,13.162,3.065,18.333c3.222,2.131,4.398,5.656,2.158,9.26
	c-1.725,2.776-5.066,4.547-7.759,3.04c-8.736-4.886-8.95,2.375-10.496,7.092c-2.031,6.197-3.348,12.626-5.071,18.928
	c-0.993,3.633-2.808,6.791-7.212,6.154c-4.433-0.641-5.599-4.437-5.1-7.973c1.244-8.808-0.873-13.018-10.918-11.279
	c-3.651,0.632-9.867-2.848-4.985-7.09c10.371-9.011,8.142-20.875,10.122-31.927c1.035-5.777,0.284-13.404,6.841-15.742
	C583.588,1396.148,585.916,1404.733,591.956,1408.353z"/>
<path d="M723.947,2817.904c-15.961,0-31.934,0.402-47.88-0.084c-33.205-1.012-64.142,5.715-91.809,24.958
	c-3.464,2.409-7.416,7.052-11.937,2.711c-4.817-4.625,3.254-7.075,3.146-11.561c-0.053-2.205,3.341-4.809,5.616-6.705
	C610.677,2802.554,689.481,2795.587,723.947,2817.904z"/>
<path d="M2522.14,671.948c7.75-13.576,20.641-14.499,30.402-21.473c-5.12-6.847-13.526-6.853-19.11-11.33
	c-2.34-1.876-5.593-3.667-4.627-7.012c1.396-4.83,5.808-3.588,8.842-2.365c12.167,4.906,20.116,4.245,19.235-12.006
	c-0.22-4.054,2.608-8.273,7.519-7.536c3.876,0.582,5.422,4.644,5.005,8.283c-1.491,13.01-0.186,22.109,16.262,25.521
	c8.12,1.685,1.246,9.755-3.671,11.045c-12.802,3.361-18.132,10.752-17.259,23.799c0.245,3.663-0.91,8.541-6.074,9.102
	c-4.217,0.458-7.375-3.097-7.07-6.337c1.753-18.636-9.525-12.979-19.172-10.844C2530.06,671.319,2527.594,671.358,2522.14,671.948z"
	/>
<path d="M1542.18,3320.74c36.193-34.833,127.939-36.447,157.881-2.98C1646.993,3299.167,1594.62,3307.66,1542.18,3320.74z"/>
<path d="M3252.852,1102.749c-19.644-1.549-28.148-8.023-27.4-20.86c1.149-19.718,16.936-33.536,35.651-31.206
	c6.463,0.805,20.436,21.425,20.007,29.526C3280.612,1089.62,3263.135,1103.56,3252.852,1102.749z M3254.971,1089.666
	c3.29-5.199,7.048-9.466,8.659-14.43c0.737-2.27-2.209-7.915-4.441-8.524c-4.969-1.355-11.92,0.605-14.002,4.345
	C3239.989,1080.394,3249.496,1083.782,3254.971,1089.666z"/>
<path d="M2914.971,3031.934c-4.879,3.663-9.524,2.356-13.832,2.014c-39.124-3.106-77.344,1.144-114.755,13.132
	c-4.267,1.367-10.899,5.683-13.242-0.322c-2.083-5.337,5.058-7.929,9.327-9.923c39.802-18.587,81.077-22.028,123.594-11.282
	C2909.453,3026.41,2912.948,3027.265,2914.971,3031.934z"/>
<path d="M3150.344,3351.363c0,2.515,0.255,5.062-0.059,7.537c-0.499,3.944-0.85,8.805-6.364,8.36
	c-5.001-0.403-5.996-4.762-5.937-9.035c0.188-13.484-4.178-25.8-10.052-37.571c-10.806-21.654-20.403-26.743-44.493-24.871
	c-3.538,0.275-8.924,3.215-10.006-2.618c-0.837-4.514,4.219-6.43,7.668-8.226c14.04-7.311,32.112-4.23,44.568,8.106
	C3141.804,3309.021,3149.176,3328.961,3150.344,3351.363z"/>
<path d="M2780.838,2932.943c0.002,4.589-3.252,5.182-6.084,5.794c-33.535,7.253-65.832,18.059-96.642,33.24
	c-2.64,1.301-6.174,2.649-8.036-0.679c-1.732-3.098,1.075-5.678,3.093-7.79c6.336-6.633,14.15-11.257,22.222-15.378
	c22.16-11.312,45.774-17.946,70.366-21.171C2771.859,2926.16,2777.945,2926.29,2780.838,2932.943z"/>
<path d="M1070,3361.932c19.849-6.494,39.943-7.342,60.231-1.489c5.337,1.54,10.301,4.104,14.031,8.396
	c3.686,4.242,7.897,9.303,3.062,14.501c-5.228,5.618-8.834-0.357-12.154-3.724c-11.186-11.345-25.713-12.715-40.322-13.523
	c-8.287-0.458-16.621-0.083-24.934-0.083C1069.942,3364.65,1069.971,3363.291,1070,3361.932z"/>
<path d="M3403.473,2736.962c-35.124-4.577-69.291,1.908-104.422,6.978C3313.323,2725.696,3377.179,2721.356,3403.473,2736.962z"/>
<path d="M1199.999,2791.06c18.818-16.929,53.013-19.208,69.741-5.518C1245.141,2787.488,1222.57,2789.274,1199.999,2791.06z"/>
<path d="M1249.75,2746.897c-22.188,8.084-44.376,16.168-66.564,24.253c-0.57-1.538-1.141-3.075-1.711-4.613
	c18.382-18.196,41.559-23.911,66.566-24.863C1248.611,2743.415,1249.18,2745.156,1249.75,2746.897z"/>
<path d="M1116.538,2830.494c-3.993,0.239-7.984,0.537-11.98,0.7c-3.696,0.15-9.192,2.631-9.693-3.126
	c-0.323-3.711,4.016-6.785,8.295-7.495c10.842-1.799,21.71-3.453,32.592-4.996c5.212-0.739,8.948,1.131,9.316,6.933
	c0.329,5.188-3.108,7.031-7.538,7.324c-6.983,0.462-13.984,0.656-20.977,0.964
	C1116.548,2830.696,1116.543,2830.595,1116.538,2830.494z"/>
<path d="M3360.533,2811.633c24.321-9.436,48.115-9.644,70.931,3.943C3407.878,2813.406,3384.244,2812.587,3360.533,2811.633z"/>
<path d="M2006.415,1448.587c-9.109,13.144-13.426,29.253-25.334,40.691c-3.883,3.73-7.358,7.886-12.851,10.79
	c13.305-25.427,25.9-50.649,26.903-80.345c-5.749-1.666-9.007,5.394-15.993,4.329c9.211-11.533,22.989-18.19,28.133-32.664
	c9.951,18.282,0.837,35.996,0.629,53.624C2007.406,1446.203,2006.911,1447.395,2006.415,1448.587z"/>
<path d="M1461.575,1213.442c-1.296,14.378,0.029,27.912-1.394,41.548c-4.226,40.493-24.212,63.081-64.188,71.425
	c-19.925,4.158-40.166,4.577-60.298,2.902c-30.518-2.538-54.842-27.275-60.649-60.576c-2.785-15.972-3.237-32.05-0.863-48.506
	c-20.543,15.205-24.143,74.948-5.966,101.944c23.641,35.111,75.285,61.673,155.748,11.821c-3.867,8.267-11.172,13.693-18.091,19.271
	c-30.746,24.785-64.954,33.265-101.632,16.232c-37.235-17.291-55.107-48.771-57.233-89.368c-1.3-24.835,2.367-48.978,13.544-74.716
	c-8.695,5.356-14.485,8.923-21.529,13.263c0.121-8.119,4.594-12.261,9.13-15.797c13.169-10.268,23.103-22.249,31.9-37.106
	c27.158-45.867,97.331-63.881,144.763-39.719c4.013,2.044,7.964,4.208,12.1,6.398c-5.313-12.471-18.057-21.923-36.169-26.97
	c-46.786-13.037-104.786,12.032-128.712,55.633c-11.104,20.236-20.131,27.564-45.109,35.483c2.589-3.884,3.794-6.947,6.007-8.816
	c20.228-17.088,36.131-38.337,51.701-59.114c30.285-40.411,71.068-46.966,115.949-40.47c30.535,4.42,52.563,22.975,63.12,52.534
	c13.996,39.189,20.48,80.036,23.707,121.389c1.114,14.27-1.685,28.211-7.304,41.364c-1.784,4.175-2.415,11.701-8.739,10.203
	c-4.88-1.156-2.952-7.819-2.726-12.009c1.533-28.351,0.24-56.475-5.776-84.291
	C1462.576,1216.045,1462.012,1214.757,1461.575,1213.442z M1377.786,1171.677c-18.589-10.244-43.281,4.741-57.53,29.731
	c-13.176,23.108-8.309,49.731,12.802,68.112c18.819,16.385,49.806,19.545,66.938,6.631c-21.028-0.748-41.878-3.09-50.072-26.171
	C1338.268,1217.145,1353.773,1192.618,1377.786,1171.677z M1398.856,1217.444c0,2.016,0.037,4.033-0.006,6.049
	c-0.364,16.995,6.091,21.448,21,14.206c11.722-5.693,19.136-14.726,19.772-28.181c0.563-11.922-5.464-20.261-15.67-25.493
	c-12.808-6.566-26.129-7.481-39.311-1.152c-2.846,1.367-6.819,6.542-1.107,7.329
	C1401.582,1192.689,1399.504,1205.236,1398.856,1217.444z M1441.047,1276.259c-29.083,11.995-56.522,30.224-90.097,20.458
	c-36.534-10.627-45.661-41.547-52.972-74.938c-11.478,32.935,6.132,75.72,34.6,83.235c28.37,7.489,57.025,6.868,84.003-6.69
	C1426.298,1293.442,1436.276,1288.3,1441.047,1276.259z M1377.669,1220.118c4.334-1.815,14.175,0.925,12.235-6.156
	c-2.638-9.629-14.918-7.346-22.849-10.516c-4.673-1.868-6.003,2.942-5.46,6.37
	C1363.011,1218.763,1370.377,1219.313,1377.669,1220.118z M1407.524,1138.406c-24.512-6.015-25.541-5.995-41.922,0
	C1378.599,1138.406,1391.09,1138.406,1407.524,1138.406z"/>
<path d="M1984.84,1324.499c-9.202,33.228-32.854,53.762-59.499,72.117c-13.011,8.963-26.471,10.955-41.645,7.982
	c-36.194-7.093-60.16-28.987-75.56-61.373c-5.326-11.2-7.118-23.066-3.863-35.374c4.215-15.94,8.336-31.904,11.762-48.129
	c-12.637,18.174-17.986,39.167-22.755,60.369c-1.659,7.376-2.897,14.85-4.694,22.189c-0.673,2.747-1.406,6.346-5.37,6.279
	c-4.997-0.085-4.986-4.143-5.167-7.613c-0.953-18.326,0.827-36.597,6.793-53.774c10.905-31.399,22.106-62.817,38.58-91.891
	c11.887-20.978,28.256-36.727,52.935-41.623c3.451-0.685,7.041-1.579,10.471-1.281c7.809,0.677,19.968-1.119,21.071,7.1
	c1.042,7.765-11.014,4.34-16.946,5.79c-22.723,5.555-40.327,17.315-52.57,37.405c1.281,0.672,2.308,1.563,2.662,1.347
	c50.007-30.456,91.468-10.718,124.299,24.348c22.811,24.363,34.647,55.362,47.666,85.452c1.094,2.529,2.135,8.09-1.261,7.111
	c-18.583-5.358-8.123,8.654-7.927,12.808c0.64,13.533-2.242,26.049-7.268,38.286c-28.498,69.388-111.743,87.097-164.273,34.981
	c-9.139-9.067-10.461-11.673-11.722-23.316c5.03-1.189,6.609,3.481,9.297,5.759c16.307,13.817,33.771,25.651,54.436,31.895
	C1941.186,1438.531,1999.758,1383.056,1984.84,1324.499z M1856.133,1250.966c12.993,11.301,17.944,24.39,17.376,39.642
	c-0.12,3.215,0.778,6.318,3.858,7.563c10.322,4.173,21.159,8.529,31.625,1.635c9.978-6.573,9.565-16.953,6.698-27.136
	C1908.702,1247.851,1888.983,1240.098,1856.133,1250.966z M1930.273,1264.259c6.661,45.047-1.945,61.386-41.526,80.342
	c-3.75,1.796-8.063,3.32-7.656,8.12c0.435,5.13,5.49,5.184,9.274,6.08c6.572,1.556,13.109,0.535,19.4-1.406
	c23.037-7.107,32.35-25.75,38.506-46.749C1953.881,1291.512,1948.682,1277.827,1930.273,1264.259z M1819.707,1330.465
	c4.68,25.335,34.533,49.209,67.163,53.711c17.745,2.448,49.684-17.935,59.63-38.054
	C1907.489,1387.11,1852.11,1372.578,1819.707,1330.465z M1829.085,1282.069c-0.404,12.699,15.094,30.837,26.533,32.382
	c3.458,0.467,7.156-0.614,5.568-4.315c-3.605-8.405,0.736-15.712,1.548-23.512c1.074-10.317-9.74-22.254-20.378-21.826
	C1830.808,1265.261,1830.214,1274.757,1829.085,1282.069z M1897.882,1203.943c7.069,21.659,28.274,18.839,44.826,24.966
	C1929.589,1216.18,1914.553,1207.135,1897.882,1203.943z"/>
<path d="M1143.285,1618.562c3.013-25.419,7.894-50.586,10.205-76.125c4.8-53.059-2.023-104.703-18.595-155.206
	c-5.503-16.771-10.395-33.748-16.147-50.43c-23.986-69.558-18.982-137.609,13.691-202.767
	c29.871-59.569,57.811-119.901,82.807-181.638c1.669-4.122,4.13-7.923,8.649-10.978c-3.043,8.702-6.401,17.309-9.077,26.123
	c-17.324,57.052-39.141,112.206-65.38,165.849c-22.89,46.796-36.819,96.105-28.854,149.32c4.957,33.118,15.568,64.674,26.023,96.255
	c20.459,61.801,30.441,124.433,16.226,189.137C1158.96,1585.726,1154.08,1603.064,1143.285,1618.562z"/>
<path d="M2674.915,2110.551c31.777,20.296,46.416,51.068,54.395,85.786c19.204,83.566,5.515,163.231-28.709,240.434
	c-19.356,43.662-44.02,84.043-76.576,119.077c-62.602,67.366-129.436,130.153-203.929,184.408
	c-6.838,4.98-14.029,9.475-22.954,12.168c3.18-3.004,6.254-6.129,9.555-8.993c69.727-60.495,140.456-120.148,203.25-187.862
	c77.242-83.295,116.996-182.42,113.58-297.321c-1.549-52.112-13.497-100.803-45.839-143.01
	C2676.591,2113.806,2675.831,2112.118,2674.915,2110.551z"/>
<path d="M2100.662,1056.834c3.847,56.752,14.95,109.169,21.609,162.208c6.793,54.108,0.864,106.791-15.253,158.472
	c-19.363,62.089-44.724,122.022-69.296,183.198c0.673-6.407,0.923-12.892,2.088-19.208c7.722-41.876,21.328-82.203,37.368-121.296
	c33.624-81.947,39.438-166.017,26.697-252.637c-4.4-29.912-7.622-60.109-7.148-90.483
	C2096.815,1071.311,2095.465,1065.19,2100.662,1056.834z"/>
<path d="M1529.748,2550.169c0,14.022,0,28.045,0,42.068c-11.056-35.454-14.662-71.699-4.045-107.222
	c19.034-63.689,18.353-126.086-5.184-188.333c-5.709-15.097-10.133-30.768-8.903-47.224c0.935-12.504,2.967-24.799,16.852-36.416
	c-12.304,32.013-3.536,59.111,5.241,85.833c20.504,62.426,25.763,124.963,6.102,188.76c-6.676,21.663,0.797,42.764,7.033,63.681
	c11.073,37.136,24.321,73.998,19.256,113.896c-0.506,3.988-1.005,7.983-1.745,11.93c-0.125,0.67-1.458,1.114-3.549,2.592
	C1561.424,2633.393,1545.966,2591.587,1529.748,2550.169z"/>
<path d="M1009.766,1499.029c-12.26-14.961-18.324-32.511-24.192-50.004c-23.883-71.199-50.458-141.676-63.284-216.059
	c-8.124-47.114-4.987-93.515,13.531-138.2c1.733-4.181,3.825-8.218,5.881-12.256c0.624-1.225,1.688-2.226,5.331-6.886
	c-6.994,22.701-11.976,41.43-14.672,60.762c-8.022,57.54,5.549,112.38,20.244,167.037c16.363,60.86,38.515,120.015,53.918,181.172
	C1007.728,1489.376,1008.691,1494.216,1009.766,1499.029z"/>
<path d="M1801.722,2553.432c36.971-14.463,72.837-31.268,108.774-47.927c40.076-18.578,76.678-42.408,109.741-71.679
	c10.892-9.643,21.407-19.618,26.541-34.174c2.685,13.07-2.526,23.866-9.773,33.771c-11.694,15.982-26.263,29.254-41.682,41.508
	c-54.171,43.05-115.731,72.995-178.797,100.209c-0.786,0.34-1.914-0.113-6.396-0.497c21.061-11.919,39.666-22.448,58.271-32.978
	C1845.575,2543.759,1825.193,2555.334,1801.722,2553.432z"/>
<path d="M2333.089,1240.629c14.617,34.858,10.995,70.146,4.071,105.323c-7.299,37.075-23.208,70.754-43.61,102.264
	c-29.123,44.978-53.828,92.162-73.23,142.118c-0.885,2.278-2.245,4.37-4.877,9.407c0.253-14.984,4.12-25.97,7.495-37.023
	c3.382-11.074,6.651-22.202,10.598-33.078c7.755-21.372,17.243-42.1,30.052-60.836
	C2310.613,1400.022,2341.085,1326.421,2333.089,1240.629z"/>
<path d="M1655.961,1024.045c6.882-31.71,15.857-62.979,5.271-95.321c7.987-1.159,8.8,3.714,10.233,7.018
	c8.303,19.143,9.368,39.022,4.839,59.218c-5.192,23.154-7.064,46.733-10.063,71.271c7.684-4.277,6.566-14.073,15.166-18.335
	c-10.927,37.131-15.032,74.723-30.392,111.941c-7.477-9.24-6.397-18.316-6.244-26.742c0.413-22.646,5.35-45.039,3.824-67.831
	c-1.202-17.952-1.557-35.985-7.812-53.793C1649.86,1012.486,1649.263,1022.362,1655.961,1024.045z"/>
<path d="M1423.184,1030.952c31.881-32.996,84.15-22.517,126.76,23.63c2.686-8.28-5.266-13.813-3.863-24.013
	c13.459,14.676,20.466,29.953,22.733,47.417c2.227,17.157,1.357,34.337-3.027,51.1c-7.177,27.441-17.605,54.128-17.634,83.327
	c-8.439-14.54-6.389-30.023-8.901-45.593c-1.61,4.764-3.22,9.527-6.208,18.364c-3.643-21.123,2.916-35.748,10.459-49.528
	c15.449-28.223,12.185-55.007-3.137-81.916c-7.997-14.044-19.226-22.854-34.942-26.529
	C1478.471,1020.906,1451.71,1019.595,1423.184,1030.952z"/>
<path d="M763.559,1197.793c-0.677,101.005-3.319,205.87,47.101,305.445C758.461,1473.419,728.281,1250.068,763.559,1197.793z"/>
<path d="M1653.664,1321.824c-7.404,58.679-40.456,109.995-48.137,168.884c-13.532-64.109-2.036-127.131,4.11-190.346
	c11.156,37.564,2.574,75.842,5.718,114.706C1628.125,1383.987,1640.894,1352.906,1653.664,1321.824z"/>
<path d="M1790.01,1483.692c-8.394-7.976-8.337-19.669-16.981-28.044c1.34,16.381,3.894,31.611,1.424,48.458
	c-27.032-73.479-46.714-169.511-39.855-202.341C1742.86,1365.681,1782.489,1419.823,1790.01,1483.692z"/>
<path d="M1782.555,1785.366c-10.047-10.981-13.007-25.128-9.087-37.544c12.017-38.061,2.374-73.385-8.412-109.447
	c-9.832-32.871-10.353-85.898-3.002-115.338c-0.748,51.63,9.97,101.01,27.148,149.421c7.398,20.849,7.011,42.67-0.716,63.921
	C1782.755,1752.136,1781.252,1768.453,1782.555,1785.366z"/>
<path d="M2995.948,2427.15c-13.14,80.955,8.083,146.679,70.413,199.024C2998.766,2612.928,2952.963,2486.475,2995.948,2427.15z"/>
<path d="M1373.2,1718.63c1.522-24.152-1.474-48.233-0.955-72.34c0.359-16.665,5.865-31.798,14.724-45.409
	c20.114-30.902,38.391-62.618,49.24-98.124c0.44-1.441,1.138-2.803,2.767-3.43c0.216,22.993-4.291,44.314-14.468,64.194
	c-6.646,12.984-13.281,26.039-20.978,38.405c-13.728,22.055-19.75,45.861-19.982,71.682
	C1383.409,1689.034,1381.59,1704.443,1373.2,1718.63z"/>
<path d="M2899.891,2369.685c0.424,10.323-3.481,15.628-6.387,21.134c-10.63,20.14-24.719,37.937-38.772,55.677
	c-26.03,32.858-49.073,67.453-64.678,108.113c-7.335-7.876-3.99-15.802-2.219-22.743c4.634-18.17,12.902-34.901,23.181-50.531
	C2836.705,2442.272,2867.554,2407.385,2899.891,2369.685z"/>
<path d="M2457.375,1462.077c-10.149,88.93-57.165,162.385-98.81,238.094c-1.509-0.631-3.018-1.263-4.527-1.894
	c12.518-28.871,25.154-57.691,37.515-86.629c9.313-21.803,19.752-43.006,31.394-63.67c13.934-24.733,24.815-50.651,28.204-79.21
	c0.333-2.8,1.696-5.477,2.581-8.212C2454.947,1461.063,2456.161,1461.57,2457.375,1462.077z"/>
<path d="M2123.191,2716.511c-28.233-38.348-70.813-52.844-112.793-68.297c3.248-7.3,11.297-6.722,15.701-11.638
	c-6.466-4.271-13.251,0.24-19.364-1.983c9.885-12.676,34.176-13.198,42.676-0.708c2.654,3.9,6.758,3.25,10.209,4.567
	c5.624,2.145,11.485,3.672,17.097,5.843c3.114,1.205,5.928,3.186,10.948,5.962c-11.118,3.268-19.44-2.748-30.354-1.238
	C2086.302,2666.261,2116.447,2679.999,2123.191,2716.511z"/>
<path d="M1236.289,1261.851c-2.485,21.539-1.511,43.007,2.05,65.016c-9.936-6.691-10.68-0.043-11.107,6.349
	c-1.964,29.435,0.413,58.309,11.684,85.955c1.828,4.485,3.734,8.938,6.036,14.44
	C1211.083,1417.885,1194.293,1326.154,1236.289,1261.851z"/>
<path d="M1760.29,1079.973c5.124,4.464-0.124,9.035,3.769,12.696c5.989-2.831,9.588-11.066,18.922-10.568
	c-4.373,6.563-8.445,12.047-11.858,17.913c-10.638,18.291-16.323,37.193-12.265,59.108c3.197,17.264,3.07,35.194-0.009,52.771
	c-0.973,5.55-1.314,5.941-7.763,4.358c-4.873-1.196-2.994,2.591-3.487,4.075c-2.793,8.405-4.795,17.142-12.455,23.595
	C1751.965,1190.872,1731.948,1132.165,1760.29,1079.973z"/>
<path d="M1987.829,2665.468c-36.647,6.668-67.647,21.686-96.851,40.831c-1.751,1.148-8.866,7.485-5.685-3.255
	c0.726-2.45-1.144-3.273-5.411-1.261c-5.874,2.769-11.497,6.067-17.5,9.284C1872.476,2675.424,1950.655,2645.848,1987.829,2665.468z
	"/>
<path d="M1924.062,1167.766c15.025-4.11,24.801,1.484,34.238,6.693c17.115,9.446,30.732,22.859,40.412,39.893
	c13.227,23.275,23.99,47.683,31.96,73.264c1.339,4.298,2.376,8.82,2.617,13.289c0.192,3.57,2.004,9.14-3.658,9.803
	c-3.951,0.463-5.028-4.298-6.067-7.576c-3.043-9.603-5.55-19.387-8.867-28.891c-14.959-42.858-39.928-77.708-80.633-99.825
	C1931.516,1173.031,1929.208,1171.208,1924.062,1167.766z"/>
<path d="M1852.552,2110.007c4.183-14.812,7.407-26.229,10.632-37.646c-1.205-0.962-2.41-1.924-3.615-2.886
	c-1.279,3.929-2.557,7.859-3.836,11.788c-1.291-1.046-2.582-2.092-3.873-3.137c2.837-13.745,11.173-25.605,16.801-41.846
	c-7.235,5.302-11.803,8.65-16.37,11.998c10.574-21.939,24.239-41.74,34.553-65.547
	C1898.065,2011.338,1877.676,2087.659,1852.552,2110.007z"/>
<path d="M1939.031,1066.149c-33.793-27.376-66.202-56.572-110.526-73.78c13.271-4.888,22.504,1.128,33.729,1.565
	c-7.396-9.243-16.992-12.121-25.678-17.117C1863.611,971.288,1902.021,1004.43,1939.031,1066.149z"/>
<path d="M1826.498,2722.986c2.741,7.369-3.774,8.226-4.518,11.986c5.603,2.553,11.406-2.504,18.737,4.333
	c-39.453,14.886-64.08,45.792-90.162,75.039C1763.696,2773.53,1779.282,2735.125,1826.498,2722.986z"/>
<path d="M1260.947,2457.742c11.259,75.289,74.136,107.198,128.218,151.054C1331.334,2590.207,1250.477,2525.137,1260.947,2457.742z"
	/>
<path d="M2090.573,2972.637c60.816,1.992,115.869-8.396,153.237-63.045c-4.632,35.67-31.774,50.648-61.084,61.741
	C2152.569,2982.747,2121.367,2990.697,2090.573,2972.637z"/>
<path d="M1497.093,933.875c-39.229,8.703-76.381,21.884-108.171,47.311c-2.755,2.203-5.452,4.512-8.396,6.436
	c-4.718,3.082-9.648,5.681-15.423,2.375C1377.892,956.625,1455.19,922.799,1497.093,933.875z"/>
<path d="M1936.435,1521.917c1.574,4.817-11.984,11.133,1.176,14.628c-1.574,1.77-2.959,3.764-4.752,5.274
	c-21.195,17.845-36.048,39.147-38.261,67.791c-0.736,9.53-8.212,15.097-13.601,23.707
	C1868.834,1598.074,1901.266,1535.478,1936.435,1521.917z"/>
<path d="M1618.242,2780.707c17.041,20.752,31.496,39.775,54.689,55.951c-6.908-14.166-12.002-24.61-17.095-35.055
	c0.886-0.513,1.772-1.027,2.658-1.54c12.685,17.418,25.381,34.828,38.049,52.258c4.018,5.528,0.632,6.978-4.236,7.387
	C1669.831,2861.597,1617.654,2809.234,1618.242,2780.707z"/>
<path d="M1889.708,2236.839c5.503-9.068,8.598-16.207,7.355-26.084c-11.886,14.655-23.459,27.963-44.929,32.59
	c9.299-10.156,16.821-17.508,23.326-25.669c10.818-13.573,14.97-29.337,13.149-46.641c-0.343-3.264-3.039-7.461,1.299-9.387
	c4.346-1.93,7.521,1.879,10.314,4.589C1917.504,2182.998,1913.141,2221.255,1889.708,2236.839z"/>
<path d="M1296.882,1564.79c0.619-9.978,2.017-20.01,1.34-29.9c-0.182-2.652,5.871-16.557-8.401-9.416
	c-2.98,1.491-2.014-2.518-1.617-3.803c7.06-22.881-7.397-40.46-14.589-59.818c-1.835-4.941-6.444-9.02-4.708-16.101
	c15.765,6.112,23.461,18.109,27.512,33.142c3.29,12.207,5.141,24.29,11.346,36.246
	C1316.551,1532.069,1309.258,1549.736,1296.882,1564.79z"/>
<path d="M1421.172,1404.861c20.751-39.133,60.106-60.365,88.249-92.359C1489.513,1352.231,1464.477,1387.144,1421.172,1404.861z"/>
<path d="M2909.118,2297.111c-3.787-45.995-6.577-92.091-30.126-137.291C2910.732,2182.61,2928.163,2265.14,2909.118,2297.111z"/>
<path d="M2113.71,2153.655c12.071-46.883,12.506-90.823-24.706-128.207c16.702,2.184,30.302,15.917,37.785,39.56
	C2136.821,2096.701,2134.684,2126.905,2113.71,2153.655z"/>
<path d="M2147.201,2741.103c-5.566,46.061,15.625,79.387,45.585,112.001C2148.597,2843.984,2122.026,2777.172,2147.201,2741.103z"/>
<path d="M1915.763,1881.52c3.263-40.492,5.359-81.23,20.125-119.953C1932.528,1802.043,1933.477,1843.165,1915.763,1881.52z"/>
<path d="M1579.164,2737.169c4.064-36.201-0.442-72.409,0.388-108.564c0.028-1.23,1.544-2.427,3.443-5.227
	C1593.284,2662.749,1594.464,2700.169,1579.164,2737.169z"/>
<path d="M1417.457,1074.397c26.321-11.272,57.789,14.786,56.067,45.506C1458.154,1100.047,1441.797,1084.019,1417.457,1074.397z"/>
<path d="M2452.631,2726.206c-18.853,31.528-47.971,50.076-81.51,63.036C2400.591,2771.138,2425.868,2747.733,2452.631,2726.206z"/>
<path d="M2287.596,2513.477c19.377,15.992,31.833,35.754,34.967,60.716C2305.871,2556.818,2296.274,2535.355,2287.596,2513.477z"/>
<path d="M1866.367,1092.733c-22.839-2.805-42.447-18.834-69.603-9.342C1820.622,1063.197,1851.361,1068.506,1866.367,1092.733z"/>
<path d="M2305.71,2387.27c15.993,20.998,19.212,44.009,9.056,68.92C2312.237,2433.199,2310.356,2410.107,2305.71,2387.27z"/>
<path d="M1931.492,1911.22c-1.186,22.736-6.958,43.283-28.51,56.295C1912.763,1948.882,1917.468,1927.826,1931.492,1911.22z"/>
<path d="M2331.386,2473.615c1.773-23.625-5.683-46.718-4.109-70.314C2339.14,2426.013,2340.954,2449.439,2331.386,2473.615z"/>
<path d="M1312.83,2577.698c22.601,17.596,46.264,33.846,69.721,50.392C1353.243,2619.846,1330.599,2602.231,1312.83,2577.698z"/>
<path d="M1837.017,1640.409c-8.477-21.615-10.072-43.514-2.265-65.802C1839.421,1596.379,1838.728,1618.373,1837.017,1640.409z"/>
<path d="M3186.637,2695.816c12.739,20.913,14.885,42.911,12.209,65.517c-1.317,0.177-2.634,0.354-3.951,0.532
	C3192.143,2739.848,3189.39,2717.832,3186.637,2695.816z"/>
<path d="M3115.813,2916.273c14.065-6.472,27.051-5.42,42.455,6.289C3140.969,2924.189,3127.897,2924.344,3115.813,2916.273z"/>
<path d="M1541.4,3085.868c-18.638-5.411-30.748-12.846-37.848-27.145C1518.868,3061.767,1530.957,3069.231,1541.4,3085.868z"/>
<path d="M2190.345,3001.828c14.252-11.748,29.038-22.878,41.276-36.895C2226.081,2986.039,2209.482,2995.325,2190.345,3001.828z"/>
<path d="M1432.747,2712.844c-19.288-10.579-28.462-22.671-33.15-42.064C1412.012,2686.534,1422.379,2699.689,1432.747,2712.844z"/>
<path d="M1385.25,2678.817c9.215,13.888,21.3,25.146,30.975,38.383C1398.786,2710.254,1390.702,2695.467,1385.25,2678.817z"/>
<path d="M1824.97,1139.636c9.978-14.404,24.554-16.931,42.364-8.085C1852.752,1128.531,1839.608,1133.811,1824.97,1139.636z"/>
<path d="M1483.285,1071.657c-11.838-3.218-22.584-8.401-34.199-10.938C1462.54,1057.547,1473.989,1061.613,1483.285,1071.657z"/>
<path d="M1358.374,1539.794c1.917-11.531,3.834-23.062,6.319-38.006C1371.573,1518.205,1365.664,1529.11,1358.374,1539.794z"/>
<path d="M2860.073,2728.856c-17.148,5.885-35.276,1.927-52.633,5.453c-17.109,3.476-33.879,7.965-51.009,16.59
	c0.461-13.309,8.993-17.446,17.9-20.396C2802.64,2721.13,2831.321,2723.584,2860.073,2728.856z"/>
<path d="M3010.173,2773.082c-22.589,5.023-45.094,1.643-67.545,2.311c-1.628,0.048-4.285-1.11-4.765-2.36
	c-1.223-3.185,1.927-4.688,4.061-5.09C2965.085,2763.584,2987.898,2764.717,3010.173,2773.082z"/>
<path d="M2574.59,2783.318c12.017-7.974,22.745-17.51,34.249-26.086C2602.811,2772.63,2591.733,2781.794,2574.59,2783.318z"/>

    <text x="10" y="832" font-size="12" fill="gray" opacity="0.6" font-family="Arial, sans-serif">
      twoja-kolorowanka.pl
    </text>
  
</svg>
