<?xml version="1.0" encoding="utf-8"?>
<!-- Generator: Adobe Illustrator 27.5.0, SVG Export Plug-In . SVG Version: 6.00 Build 0)  -->
<svg version="1.1" xmlns="http://www.w3.org/2000/svg" xmlns:xlink="http://www.w3.org/1999/xlink" x="0px" y="0px"
	 viewBox="0 0 500 500" style="enable-background:new 0 0 500 500;" xml:space="preserve">
<g id="BACKGROUND">
	<rect style="fill:#FFFFFF;" width="500" height="500"/>
</g>
<g id="OBJECTS">
	<g>
		<path style="fill:#232343;" d="M389.469,44.383c0.35-0.75,0.39-1.46,0.32-2.01c-0.2-1.62-1.46-2.98-3.14-3.37
			c-36.27-8.48-50.67,23.02-51.4,24.7c-3.51,6.51-6.59,13.75-9.17,21.53c-1-0.73-2.27-1.03-3.56-0.77c-2.11,0.42-3.59,2.15-3.68,4.3
			c-0.8,17.95-6.96,33.35-7.5,34.69c-9.4,16.56-18.83,23.83-22.81,26.36c-31.93-10.45-60.22-4.42-60.55-4.35
			c-4.76,0.86-9.37,2.08-13.83,3.63c-4.28-3.55-12.19-11.39-20.19-25.88c-0.85-1.62-8.04-15.82-8.04-32.01
			c0-2.34-1.56-4.42-3.72-4.96c-0.72-0.18-1.68-0.25-2.7,0.17c-0.1-0.36-0.2-0.73-0.3-1.1c-1.72-6.53-5-12.51-9.46-17.28
			c-0.85-1.06-20.11-24.37-53.34-6.3c-1.17,0.64-2.02,1.68-2.32,2.87c-0.24,0.93-0.12,1.81,0.34,2.56c0.34,0.55,0.86,1.01,1.55,1.37
			c-3.84,4.33-6.62,9.54-8.09,15.17c-4.63,17.77-3.38,34.27,3.71,49.02c9.6,19.98,29.79,35.99,59.99,47.61
			c-18.38,23.74-25.78,53.18-28.6,69.32c-1.01,5.74-3.84,11.05-8.2,15.35l-0.2,0.2c-3.71,3.77-3.44,8.66-1.51,12.03
			c-0.17,1.1-0.27,2.21-0.25,3.34c0.13,6.37,2.06,12.29,5.75,17.65c-10.97-5.96-25.05-10.94-38.53-7.94
			c-7.4,1.64-13.04,6.92-15.07,14.11c-2.01,7.11,0,14.46,5.37,19.65c9.15,8.86,23.82,13.6,43.67,14.15
			c-3.37,1.97-5.53,5.41-5.81,9.46c-0.35,5,2.26,9.47,6.82,11.67c4.84,2.34,10.3,3.27,15.91,3.27c9.45,0,19.34-2.64,27.44-5.6
			c0.01,0.86,0.03,1.71,0.08,2.56c-3.32,4.18-5.41,9.27-5.97,14.78c-0.88,8.6,2.23,17,8.52,23.04c6.95,6.67,14.31,8.89,17.06,9.53
			c-0.25,6.03-0.17,10.85-0.04,14.05c-2.41-3.1-5.04-5.66-7.85-7.64c-1-0.88-11.67-9.92-21.06-3.19c-0.53,0.38-0.88,0.94-0.98,1.57
			c-0.04,0.29-0.03,0.58,0.02,0.85c-1.84,2.19-2.48,4.16-2.37,7.18c-0.01,0.12-0.02,0.38-0.02,0.75c0,2.21,0.39,7.96,4.03,13.6
			c0.47,0.73,1.22,1.21,2.07,1.33c0.43,0.06,0.86,0.02,1.26-0.09l11.4,14.31c2.68,3.35,6.1,5.8,9.89,7.07
			c2.67,0.9,5.14,1.17,7.12,1.17c2.68,0,4.45-0.49,4.6-0.53c5.53-1.7,12.13-2.78,19.63-3.21c13.05-0.75,25.4,0.65,31.6,1.54
			c2.42,0.36,4.66,0.63,6.83,0.83c6.29,0.57,12.38,0.87,18.07,0.9c5.1,0.03,10.13-0.17,14.95-0.56c1.61,2.41,4.01,4.25,6.87,5.09
			l0.28,0.08c1.08,0.3,2.18,0.44,3.27,0.44c4.36,0,8.6-2.31,11-6.24c0.67-1.09,1.31-2.19,1.91-3.29c4.96-1.31,9.72-2.95,14.14-4.88
			c11.12-4.86,20.5-13.37,26.54-24.02c1.67,0.39,5.37,1.09,10.07,1.09c7.34,0,17.09-1.71,25.3-9.01c0.81-0.72,1.19-1.72,1.06-2.76
			c-0.08-0.59-0.31-1.13-0.65-1.57c0.74-1.3,1.29-2.69,1.65-4.14c1.41-5.78-1.43-11.7-6.64-13.99c15.27-5.6,19.47-13.97,20.6-18.73
			c0.26-1.13,0-2.29-0.72-3.19c-0.37-0.46-0.85-0.82-1.37-1.06c1.32-6.14,0.02-11.65-1.36-15.28c-2.31-6.09-7.76-10.28-13.89-10.67
			c-6.49-0.42-10.77,3.32-13.39,6.96c-0.01-0.53-0.04-1.08-0.1-1.63c-0.57-5.49-3.33-9.96-7.98-12.91
			c-0.67-0.43-1.49-0.55-2.25-0.31c-0.34,0.1-0.65,0.26-0.92,0.48c-3.29-1.43-6.9-1.64-10.25-0.59c-3.23,1.01-5.89,3.02-7.94,5.98
			c-4.7-6.57-10.35-12.56-16.81-17.85c24.06-11.71,35.15-24.81,37.02-27.18c0.73-0.16,1.45-0.35,2.15-0.56
			c3.98-1.23,7.15-4.33,8.48-8.27c1.29-3.83,0.7-7.89-1.61-11.13c-0.66-0.92-1.33-1.61-1.91-2.12c5.52-3.66,8.63-7.75,9.28-12.2
			c0.78-5.43-2.3-10.12-5.02-13.1c-1.33-1.44-3-2.74-5.09-3.97c-9.9-5.85-18.22-23.09-22.3-32.84c-4.08-9.77-9.34-18.77-15.61-26.84
			c41.55-16.11,70.73-54.36,74.52-97.91c0.05-0.52,0.09-1.04,0.13-1.57C417.059,68.103,406.819,51.493,389.469,44.383z
			 M113.849,131.643c-6.83-14.21-8.02-30.12-3.55-47.31c1.52-5.84,4.56-11.19,8.79-15.47l0.07-0.07c4.56,0,6.09-2.2,6.09-2.2
			c-2.52,0.62-4.48,0.56-5.63,0.42l-1.16-0.25c-1.4-0.3-1.81-0.74-1.92-0.92c-0.04-0.06-0.14-0.23-0.04-0.62
			c0.13-0.52,0.53-0.99,1.09-1.29c8.95-4.87,16.78-6.64,23.41-6.64c12.02,0,20.15,5.79,24.08,9.43l2.78,2.96
			c4.21,4.48,7.3,10.11,8.92,16.27c0.23,0.85,0.46,1.67,0.69,2.5c-0.82,1.21-1.7,3.26-1.86,6.57c0,0,1.04-2.47,2.7-4.47l1.31-1.26
			c0.63-0.61,1.25-0.81,1.97-0.63c1.06,0.27,1.83,1.33,1.83,2.54c0,16.83,7.48,31.56,8.34,33.19l0.01,0.02
			c7.5,13.59,14.99,21.53,19.6,25.59c-5.12,1.96-10.06,4.41-14.71,7.29c-0.47-3.1-1.85-7.35-5.75-9.62c-1.82-1.06-3.85-1.4-5.8-0.99
			c-10.02-10.66-23.15-26.46-30.01-42.22c-2.98-6.84-8.61-12.05-15.45-14.29c-0.29-0.1-0.6-0.19-0.9-0.28l-0.18-0.05
			c-5.55-1.56-11.47-0.52-16.24,2.87c-4.9,3.48-7.92,8.9-8.29,14.87c-0.45,7.43,0.69,18.85,8.69,30.98
			c8.99,13.63,24.61,25.28,46.41,34.62c1.23,1.86,3.05,3.08,5.27,3.53c-0.43,0.51-0.85,1.03-1.27,1.54
			C143.179,166.843,123.229,151.163,113.849,131.643z M178.659,155.243c0.01,0.17,0.03,0.35,0.05,0.53
			c0.01,0.07,0.02,0.15,0.03,0.22c0.04,0.25,0.09,0.5,0.15,0.75v0.01c0.21,0.82,0.51,1.59,0.89,2.3c-0.98-0.16-2.09-0.28-3.25-0.29
			h-0.05c-0.33,0-0.65,0.03-0.97,0.06c-0.08,0.01-0.16,0-0.24,0.01c-0.24,0.03-0.48,0.08-0.71,0.13c-0.16,0.03-0.32,0.04-0.47,0.08
			c-0.01,0-0.03,0.01-0.04,0.01c-2.25,0.56-4.04,1.92-5.21,3.97c-0.19,0.33-0.35,0.67-0.49,1.02c-0.04,0.1-0.08,0.19-0.11,0.28
			c-0.12,0.32-0.22,0.64-0.31,0.96c-0.01,0.05-0.03,0.09-0.04,0.14c-0.09,0.37-0.16,0.74-0.2,1.12c-0.02,0.09-0.03,0.19-0.04,0.29
			c-0.03,0.31-0.05,0.63-0.05,0.94v0.24c0,0.37,0.03,0.74,0.07,1.12c0.02,0.09,0.03,0.18,0.05,0.27c0.02,0.15,0.04,0.31,0.07,0.46
			c-21.19-9.48-53.25-29.35-51.25-62.13c0.32-5.21,2.96-9.94,7.24-12.98c2.89-2.05,6.26-3.12,9.67-3.12c1.48,0,2.97,0.2,4.43,0.61
			l0.17,0.05c0.27,0.08,0.54,0.16,0.81,0.25c6.17,2.02,11.25,6.73,13.95,12.92c6.84,15.72,19.73,31.4,29.78,42.19
			c-0.09,0.06-0.17,0.12-0.26,0.17c-0.07,0.05-0.14,0.09-0.21,0.14c-0.15,0.11-0.3,0.22-0.45,0.34c-0.04,0.03-0.08,0.06-0.12,0.09
			c-0.19,0.16-0.36,0.32-0.53,0.49c-0.04,0.03-0.07,0.06-0.1,0.1c-0.13,0.13-0.26,0.27-0.38,0.42l-0.15,0.18
			c-0.1,0.13-0.19,0.25-0.29,0.39c-0.04,0.06-0.09,0.13-0.14,0.2c-0.08,0.14-0.16,0.27-0.24,0.41c-0.04,0.07-0.08,0.14-0.12,0.21
			c-0.08,0.15-0.15,0.3-0.22,0.45c-0.03,0.06-0.06,0.12-0.09,0.19c-0.09,0.2-0.17,0.41-0.24,0.62c0,0.02-0.01,0.03-0.01,0.04
			c-0.08,0.23-0.14,0.46-0.2,0.7c-0.01,0.05-0.01,0.1-0.03,0.16c-0.03,0.18-0.07,0.36-0.09,0.55c-0.02,0.08-0.02,0.16-0.03,0.23
			c-0.02,0.17-0.03,0.33-0.04,0.5c-0.01,0.09-0.01,0.17-0.01,0.26v0.49C178.649,155.073,178.649,155.153,178.659,155.243z
			 M178.429,354.303c-22.35,8.37-35.34,6.14-42.33,2.77c-3.61-1.74-5.69-5.29-5.41-9.25c0.28-3.95,2.82-7.17,6.64-8.39
			c1.81-0.57,3.84-1.01,6.03-1.29v-0.01l8.53-2.72c-3.44,0.12-8.58,0.25-8.73,0.25v-0.01c-23.88,0.8-41.07-3.71-51.08-13.41
			c-4.7-4.54-6.46-10.96-4.71-17.17c1.78-6.29,6.72-10.91,13.21-12.35c15.41-3.42,31.87,4.28,42.97,11.34l9.75,6.2l-8.2-8.14
			c-6.33-6.3-9.62-13.56-9.78-21.6c-0.09-4.72,1.85-9.26,5.34-12.44c3.4-3.11,7.74-4.54,12.22-4.04
			c23.76,2.63,41.34,42.67,45.45,52.89c-0.16,0.11-0.31,0.24-0.46,0.36c-0.45,0.36-0.9,0.72-1.34,1.08
			c-0.2,0.17-0.39,0.34-0.59,0.51c-0.49,0.41-0.96,0.84-1.43,1.28c-0.16,0.14-0.31,0.29-0.46,0.43c-0.49,0.46-0.96,0.93-1.43,1.41
			c-0.14,0.15-0.28,0.29-0.42,0.44c-0.44,0.47-0.88,0.95-1.3,1.44c-0.16,0.18-0.32,0.35-0.47,0.53c-0.38,0.45-0.75,0.91-1.12,1.38
			c-0.18,0.23-0.37,0.46-0.55,0.69c-0.31,0.41-0.62,0.84-0.92,1.26c-0.21,0.29-0.42,0.58-0.62,0.87c-0.28,0.41-0.55,0.82-0.82,1.24
			c-0.19,0.29-0.39,0.59-0.57,0.89c-2.82-2.7-12.09-10.93-26.21-16.94c0.47,0.28,15.63,9.41,25.1,18.82
			c-0.09,0.18-0.19,0.35-0.28,0.53c-0.4,0.72-0.75,1.41-1.03,1.97c0,0.01,0,0.01,0,0.01c-0.03,0.06-0.06,0.12-0.09,0.17
			c-0.06,0.13-0.13,0.28-0.2,0.43l-0.15,0.33c-3.88,0.48-14.89,1.61-26.01,0.72c0,0,9.33,3,25.16,1.23
			c-0.25,0.6-0.48,1.21-0.71,1.83c-0.03,0.08-0.06,0.17-0.09,0.25c-0.26,0.73-0.51,1.47-0.74,2.22c-0.02,0.06-0.04,0.12-0.06,0.18
			c-0.49,1.61-0.89,3.23-1.22,4.88c-0.03,0.14-0.05,0.28-0.08,0.43c-0.12,0.66-0.23,1.32-0.33,1.99c-0.03,0.19-0.06,0.37-0.08,0.56
			c-0.11,0.8-0.2,1.61-0.27,2.42C178.489,353.283,178.459,353.793,178.429,354.303z M287.299,339.663c0.11,0.13,0.21,0.27,0.32,0.41
			l1.97,2.6c-3.91,5.73-8.84,10.04-14.09,13.47c-3.94,2.51-8.65,4.96-14.5,7.52c-0.06,0.03-0.61,0.3-1.38,0.83l-0.03,0.03
			c-0.07,0.04-0.13,0.09-0.2,0.14c-0.02,0.01-0.03,0.02-0.05,0.03c-0.01,0-0.02,0.01-0.03,0.02c-0.24,0.17-0.47,0.36-0.74,0.58
			c-0.08,0.07-0.15,0.14-0.22,0.21c-0.16,0.13-0.31,0.27-0.44,0.41c-0.14,0.14-0.28,0.28-0.41,0.43c-0.32,0.34-0.61,0.69-0.87,1.05
			c-0.04,0.06-0.09,0.12-0.14,0.18c-0.01,0.02-0.02,0.04-0.04,0.06c-0.8,1.13-1.4,2.41-1.75,3.72c-0.06,0.18-0.1,0.36-0.16,0.55
			c-0.06,0.21-0.14,0.43-0.2,0.64c0,0.03-0.01,0.06-0.01,0.09c-0.05,0.19-0.08,0.37-0.11,0.56c-0.06,0.26-0.12,0.52-0.15,0.78
			c-0.01,0.04-0.01,0.07-0.01,0.1c-0.02,0.15-0.02,0.3-0.04,0.45c-0.02,0.3-0.06,0.61-0.07,0.91c0,0.03,0.01,0.07,0.01,0.1
			c-0.01,0.12,0.01,0.24,0.01,0.36c0,0.34,0,0.68,0.03,1.02c0,0.03,0.01,0.07,0.01,0.1c0.01,0.09,0.03,0.18,0.04,0.26v0.03
			c0.04,0.37,0.09,0.74,0.16,1.11c0,0.03,0.01,0.06,0.02,0.09c0,0.01,0,0.01,0,0.01c0.03,0.18,0.09,0.36,0.13,0.55
			c0.07,0.29,0.13,0.58,0.21,0.88c0.11,0.38,0.25,0.76,0.39,1.14c0.05,0.14,0.09,0.27,0.14,0.41c0.21,0.52,0.44,1.05,0.7,1.57
			c0.08,0.18,0.19,0.35,0.31,0.5c0.02,0.03,0.05,0.05,0.07,0.07c0.11,0.12,0.21,0.24,0.34,0.34c0.02,0.02,0.06,0.03,0.08,0.05
			c0.13,0.09,0.26,0.19,0.41,0.26c0.12,0.06,0.26,0.09,0.39,0.13c0.05,0.02,0.1,0.05,0.15,0.06c0,0,0,0,0.01,0
			c0.2,0.05,0.4,0.07,0.6,0.07h0.03c0.19-0.01,0.37-0.02,0.55-0.07l0.33,0.27c0.19,0.18,0.4,0.32,0.63,0.47
			c0.22,0.16,0.44,0.31,0.58,0.38c0.13,0.08,0.25,0.15,0.37,0.22c0.03,0.01,0.06,0.03,0.09,0.05c0.2,0.11,0.4,0.21,0.59,0.3
			c0.02,0,0.03,0.01,0.05,0.02c0.04,0.02,0.07,0.03,0.11,0.05c0.17,0.08,0.34,0.16,0.51,0.23c0.01,0.01,0.02,0.01,0.03,0.02
			c0.01,0,0.02,0,0.03,0.01c0.3,0.12,0.59,0.24,0.87,0.33c0.09,0.03,0.2,0.06,0.29,0.09c0.13,0.04,0.25,0.08,0.37,0.12
			c-2.21,4.07-9.56,16.85-20.18,27.99l-25.8-9.18c-6.15-2.18-11.81-5.33-16.83-9.35c36.74-25.87,50.46-73.9,52.73-82.77
			c1.44,0.58,2.88,1.2,4.31,1.87c10.68,5.06,20.36,12.78,28.16,22.39l-0.14,0.03L287.299,339.663z M334.149,413.743
			c0.01,0.11,0.02,0.21,0.03,0.32c0.34,3.95-0.63,7.92-2.71,11.26c1.15-5.45,1.53-13.46-3.4-20.11c-0.13-0.17-0.25-0.34-0.38-0.51
			c-0.15-0.19-0.31-0.39-0.48-0.58c-0.24-0.28-0.49-0.56-0.75-0.84c-0.12-0.13-0.25-0.26-0.37-0.39c-0.42-0.42-0.86-0.84-1.34-1.24
			c-0.16-0.14-0.34-0.24-0.52-0.34c-0.04-0.02-0.07-0.05-0.1-0.07c-0.13-0.06-0.27-0.09-0.41-0.13c-0.1-0.03-0.19-0.08-0.29-0.1
			c-0.15-0.02-0.29-0.02-0.44-0.02c-0.1-0.01-0.19-0.03-0.29-0.02c-0.19,0.02-0.38,0.06-0.57,0.12c-0.05,0.01-0.1,0.01-0.15,0.03
			c-0.01,0-0.02,0-0.02,0c-0.01,0-0.02,0-0.02,0.01c-0.46,0.16-0.86,0.43-1.18,0.77c-0.89-0.41-1.79-0.72-2.68-0.95
			c-0.36-0.1-0.72-0.18-1-0.23c-0.3-0.07-0.61-0.12-0.94-0.17c-0.07-0.01-0.14-0.02-0.22-0.03l-0.2-0.02c-0.02,0-0.05,0-0.07-0.01
			l-0.68-0.06c-0.33-0.03-0.68-0.05-1.03-0.05h-0.39c-0.31,0-0.61,0.01-0.96,0.04l-0.09,0.01h-0.04l-0.12,0.02
			c-0.09,0-0.17,0.02-0.26,0.02c-0.22,0.03-0.44,0.05-0.66,0.08c-0.02,0-0.04,0-0.06,0.01c-0.29,0.04-0.57,0.09-0.84,0.15
			c-0.03,0.01-0.07,0.01-0.1,0.02h-0.18l-0.12,0.06c-0.27,0.06-0.53,0.13-0.83,0.22c-0.28,0.08-0.56,0.17-0.78,0.25
			c-0.03,0.01-0.06,0.02-0.09,0.03c-0.05,0.02-0.11,0.04-0.17,0.06c-0.07,0.03-0.15,0.06-0.23,0.09c-0.18,0.06-0.35,0.14-0.52,0.21
			c-0.05,0.02-0.1,0.04-0.16,0.07c-0.03,0.01-0.06,0.02-0.09,0.03c-0.16,0.07-0.3,0.15-0.45,0.22c-0.02,0.01-0.04,0.02-0.07,0.03
			c6.21-9.77,9.52-18.48,10.87-22.51l3.38,4.45c0.02,0.02,0.22,0.29,0.55,0.77c2.13,3.04,9.93,14.82,12.4,27.46
			c0,0.01,0,0.01,0,0.01C334.029,412.703,334.099,413.223,334.149,413.743z M301.289,405.613c-1.21,1.17-2.54,2.76-3.76,4.89
			c-4.95,6.04-11.09,12.02-18.62,17.14l-32.92-11.71c10.84-11.61,18.18-24.7,20.06-28.19c0.08,0.02,0.15,0.04,0.24,0.06l0.11,0.03
			c0.24,0.06,0.48,0.12,0.73,0.18h0.02c0.1,0.02,0.2,0.05,0.3,0.07l0.31,0.07c0.3,0.07,0.6,0.13,0.91,0.2h0.04
			c0.04,0.01,0.09,0.03,0.14,0.03c0.08,0.02,0.17,0.04,0.26,0.05c0.27,0.06,0.54,0.11,0.82,0.16l0.49,0.08
			c0.27,0.04,0.54,0.09,0.81,0.13l0.16,0.02c0.4,0.06,0.84,0.12,1.29,0.17l0.51,0.07c0.26,0.02,0.52,0.05,0.79,0.08l0.21,0.01
			c0.13,0.01,0.25,0.03,0.39,0.04c0.25,0.02,0.51,0.04,0.72,0.05c0.51,0.04,1.02,0.06,1.52,0.08h0.07l0.16,0.01
			c0.18,0.01,0.37,0.02,0.56,0.02l0.52,0.01h0.22c0.43,0,0.86,0,1.29-0.01h0.43l0.55-0.02c0.25,0,0.5-0.02,0.75-0.03l0.85-0.05
			c0.24-0.02,0.48-0.04,0.73-0.06h0.06c0.01,0,0.02,0,0.04-0.01c0.05,0,0.1,0,0.14-0.01l0.66-0.05c0.33-0.04,0.66-0.08,0.99-0.12
			l0.67-0.08c0.19-0.02,0.37-0.05,0.56-0.08c0.1-0.01,0.2-0.02,0.31-0.03l0.33-0.06c0.18-0.03,0.35-0.05,0.52-0.08
			c0.33-0.06,0.67-0.12,1.01-0.18l0.69-0.13c0.02-0.01,0.05-0.01,0.07-0.02c0.16-0.03,0.32-0.06,0.49-0.1
			c0.16-0.03,0.33-0.07,0.5-0.1l0.68-0.16c0.05-0.01,0.1-0.02,0.16-0.04c0.03,0,0.07-0.01,0.11-0.02c0.07-0.02,0.15-0.04,0.23-0.06
			c0.2-0.05,0.4-0.09,0.61-0.14l0.31-0.09c0.01,0,0.03-0.01,0.04-0.01l0.14-0.04l0.15-0.04c0.14-0.03,0.28-0.07,0.42-0.11l0.48-0.13
			c0.02-0.01,0.03-0.01,0.05-0.02c0.07-0.02,0.14-0.04,0.21-0.06l0.52-0.15c0.04-0.02,0.09-0.03,0.13-0.04l0.3-0.09
			c0.22-0.07,0.45-0.14,0.67-0.22c0.06-0.02,0.13-0.04,0.2-0.06l0.17-0.06c0.11-0.03,0.22-0.08,0.32-0.11
			c0.29-0.09,0.58-0.19,0.86-0.29c0.35-0.13,0.71-0.26,1.06-0.4c0.07-0.02,0.15-0.05,0.22-0.08c0.79-0.3,1.58-0.62,2.37-0.96
			l0.5-0.21c0.2-0.09,0.4-0.18,0.61-0.28c0.29-0.13,0.57-0.26,0.86-0.4l0.45-0.21c0.05-0.02,0.1-0.05,0.15-0.07
			c0.13-0.07,0.27-0.13,0.4-0.19c0.81-0.4,1.64-0.83,2.52-1.32c0.04-0.02,0.08-0.05,0.12-0.07c0.24-0.13,0.48-0.26,0.72-0.4
			c0.08-0.04,0.17-0.09,0.25-0.14c0.02-0.01,0.04-0.03,0.06-0.04c0.04-0.02,0.08-0.04,0.12-0.06c0.01-0.01,0.02-0.02,0.03-0.02
			c0.08-0.05,0.16-0.1,0.24-0.14c0.17-0.1,0.34-0.2,0.51-0.3c0.26-0.15,0.51-0.3,0.76-0.46c0.04-0.02,0.07-0.04,0.11-0.06
			c0.24-0.15,0.48-0.3,0.72-0.45c0.13-0.08,0.26-0.16,0.39-0.25h0.01c0.22-0.14,0.44-0.29,0.74-0.48c0.29-0.19,0.58-0.39,0.88-0.58
			c0.13-0.09,0.26-0.18,0.39-0.27l0.25-0.17c0.17-0.12,0.34-0.23,0.51-0.35c0.23-0.16,0.45-0.33,0.68-0.49
			c0.2-0.14,0.39-0.27,0.59-0.42l0.62-0.46c0.04-0.03,0.07-0.05,0.1-0.08c0.04-0.02,0.07-0.04,0.1-0.07
			c0.02-0.01,0.03-0.02,0.04-0.03c0.07-0.05,0.14-0.1,0.22-0.15l0.7,0.92C314.929,379.813,310.879,392.293,301.289,405.613z
			 M294.649,423.353c0.34,0.39,0.77,0.67,1.23,0.83c-0.16,1.29-0.3,2.57-0.42,3.82v0.05c-0.07,0.7-0.13,1.39-0.19,2.07
			c-0.01,0.15-0.02,0.29-0.03,0.43l-0.01,0.08c-0.03,0.37-0.05,0.72-0.07,1.08c-0.01,0.14-0.03,0.28-0.03,0.42
			c-0.01,0.06-0.01,0.12-0.02,0.18c-0.68-0.14-1.36-0.28-2.05-0.44c-0.6-0.14-1.21-0.28-1.83-0.43c-0.83-0.21-1.66-0.42-2.49-0.64
			c-1.58-0.42-3.17-0.87-4.78-1.37l-2.15-0.76c4.85-3.46,9.12-7.24,12.86-11.17c-0.09,0.33-0.18,0.67-0.26,1.01
			c-0.03,0.14-0.06,0.28-0.1,0.41c-0.06,0.27-0.12,0.55-0.18,0.83c-0.01,0.05-0.03,0.11-0.04,0.17c0,0.02,0,0.04-0.01,0.06
			c-0.05,0.27-0.11,0.53-0.16,0.81C293.749,421.703,294.029,422.663,294.649,423.353z M198.799,394.823
			c-1.66-1.47-3.26-3.05-4.75-4.71c0.02-0.21,0.07-0.42,0.11-0.63c0.03-0.14,0.05-0.27,0.09-0.41c0.06-0.25,0.15-0.51,0.23-0.76
			c0.05-0.13,0.08-0.26,0.13-0.39c0.1-0.26,0.21-0.51,0.33-0.77c0.05-0.12,0.1-0.25,0.16-0.38c0.12-0.25,0.26-0.49,0.39-0.74
			c0.07-0.12,0.13-0.25,0.2-0.38c0.13-0.22,0.26-0.43,0.39-0.65c0.09-0.14,0.18-0.29,0.27-0.44c0.1-0.14,0.2-0.28,0.29-0.43
			c0.6-0.88,1.22-1.7,1.81-2.41c0.07-0.08,0.14-0.16,0.21-0.24c0.19-0.23,0.39-0.46,0.6-0.7c0.09-0.1,0.18-0.21,0.28-0.32
			c0.32-0.35,0.65-0.7,1.01-1.05c0.02-0.02,0.04-0.04,0.07-0.07c0.81-0.79,1.72-1.55,2.73-2.16c5.29-3.24,8.81-7.07,10.45-11.4
			c0.25-0.65,0.43-1.32,0.56-2c0.05-0.21,0.1-0.42,0.13-0.63c0.03-0.2,0.04-0.41,0.06-0.61c0.03-0.24,0.06-0.48,0.07-0.73
			c0.01-0.29,0-0.58-0.01-0.86c0-0.12,0.01-0.23,0-0.34c0-0.03,0-0.07-0.01-0.1c0-0.13-0.01-0.25-0.02-0.38c0-0.01,0-0.01,0-0.02
			c-0.02-0.21-0.04-0.43-0.08-0.64c0-0.1-0.01-0.18-0.03-0.24c0-0.04-0.01-0.08-0.02-0.12c-0.02-0.13-0.05-0.26-0.07-0.38
			c-0.02-0.07-0.03-0.15-0.04-0.22l-0.06-0.27l-0.01-0.02c-0.03-0.15-0.07-0.28-0.11-0.42c-0.03-0.12-0.06-0.23-0.1-0.35
			c-0.07-0.25-0.15-0.5-0.27-0.79c-0.02-0.06-0.04-0.12-0.06-0.17c-0.02-0.03-0.03-0.06-0.04-0.09c-0.05-0.11-0.1-0.22-0.14-0.32
			c-0.05-0.11-0.09-0.22-0.14-0.32c-0.11-0.25-0.24-0.5-0.38-0.76c0.27-0.35,0.46-0.76,0.58-1.19c0.09-0.32,0.14-0.65,0.13-0.99
			c-0.02-1.07-0.5-2.01-1.31-2.64c-0.17-0.13-0.34-0.25-0.53-0.35c-0.81-0.41-1.61-0.77-2.41-1.07c-0.04-0.01-0.09-0.02-0.13-0.04
			c-0.35-0.13-0.7-0.25-1.05-0.36c-0.15-0.04-0.3-0.08-0.45-0.12c-0.24-0.07-0.48-0.14-0.72-0.2c-0.23-0.06-0.47-0.1-0.7-0.15
			c-0.15-0.03-0.3-0.07-0.45-0.1c-0.32-0.06-0.63-0.1-0.94-0.15c-0.06-0.01-0.13-0.02-0.2-0.03c-10.05-1.32-18.45,4.91-19.31,5.57
			c-1.04,0.66-2.02,1.39-2.95,2.16c-0.02,0.01-0.04,0.02-0.05,0.03c-0.06,0.05-0.11,0.1-0.17,0.15c-0.34,0.29-0.68,0.59-1.01,0.89
			l-0.18,0.17c-0.01,0-0.01,0.01-0.02,0.02l-0.3,0.27c0-0.55,0.01-1.09,0.03-1.64c0.03-0.74,0.07-1.49,0.14-2.24
			c0.06-0.79,0.16-1.57,0.26-2.35c0.03-0.17,0.05-0.34,0.08-0.5c0.1-0.7,0.21-1.38,0.34-2.07c0.02-0.08,0.03-0.17,0.05-0.25
			c0.32-1.62,0.73-3.22,1.21-4.79c0.02-0.06,0.04-0.12,0.06-0.19c0.49-1.58,1.07-3.13,1.72-4.64l0.06-0.12
			c0.32-0.74,0.66-1.48,1.02-2.2c0-0.01,0.01-0.03,0.02-0.04c0.29-0.6,0.61-1.18,0.93-1.76l0.61-1.08c0.24-0.41,0.48-0.81,0.73-1.21
			c0.18-0.28,0.35-0.55,0.53-0.82c0.28-0.42,0.56-0.85,0.86-1.27c0.17-0.25,0.34-0.49,0.52-0.74c0.33-0.45,0.67-0.9,1.01-1.34
			c0.15-0.19,0.3-0.39,0.46-0.57c0.4-0.5,0.81-0.99,1.22-1.46c0.12-0.14,0.24-0.27,0.35-0.41c0.48-0.52,0.96-1.04,1.46-1.55
			c0.08-0.08,0.16-0.17,0.24-0.26c0.54-0.54,1.09-1.07,1.66-1.58c0.05-0.06,0.11-0.11,0.17-0.17c0.59-0.54,1.2-1.06,1.82-1.57
			c0.04-0.04,0.08-0.07,0.12-0.11c0.66-0.54,1.34-1.07,2.04-1.58h0.01c6.47-4.76,14.07-7.85,22-8.94c9.29-1.26,18.9-0.11,28.57,3.4
			C249.209,320.593,235.739,369.203,198.799,394.823z M197.219,404.083c-3.14-0.93-9-3.25-14.49-8.52
			c-5.73-5.5-8.56-13.15-7.77-20.98c0.51-4.94,2.37-9.51,5.31-13.29l0.42-0.51c0.17-0.21,0.33-0.4,0.52-0.62
			c0.38-0.43,0.79-0.86,1.21-1.29c0.05-0.04,0.1-0.09,0.15-0.14l0.73-0.01v-0.7c0.21-0.19,0.43-0.37,0.65-0.56
			c0.08-0.07,0.16-0.14,0.25-0.21c0.42-0.35,0.85-0.68,1.28-1c0.01,0,0.02-0.01,0.03-0.02c0.38-0.27,0.75-0.52,1.11-0.76
			c0.09-0.05,0.18-0.12,0.27-0.18l0.16-0.09l0.07-0.07c0.09-0.06,0.21-0.15,0.35-0.26c1.6-1.12,7.51-4.91,14.64-4.91
			c2.76,0,5.7,0.58,8.64,2.09c0.07,0.04,0.12,0.09,0.17,0.13c0.27,0.24,0.32,0.55,0.32,0.69c0,0.07,0,0.15-0.02,0.22
			c-0.05,0.22-0.17,0.46-0.41,0.59l-1.17,0.66l0.01,0.01l-0.3,0.17l1.1,1.05c0.19,0.29,0.36,0.58,0.51,0.88
			c0.04,0.07,0.07,0.13,0.1,0.2c0.16,0.32,0.31,0.66,0.44,1c0,0.02,0.01,0.04,0.02,0.06c0.11,0.31,0.19,0.61,0.27,0.92
			c0.02,0.08,0.05,0.16,0.07,0.24l0.02,0.1c0.04,0.16,0.06,0.34,0.09,0.51l0.01,0.09c0.02,0.08,0.03,0.16,0.05,0.25
			c0.02,0.14,0.04,0.29,0.05,0.43c0.02,0.22,0.03,0.44,0.03,0.66c0.01,0.22,0.01,0.43,0.01,0.65c-0.01,0.18-0.02,0.36-0.04,0.55
			c-0.01,0.19-0.03,0.38-0.05,0.57c-0.03,0.2-0.07,0.39-0.11,0.59c-0.04,0.18-0.07,0.37-0.12,0.55c-0.05,0.19-0.12,0.39-0.18,0.58
			c-0.05,0.17-0.1,0.33-0.16,0.49c-1.44,3.8-4.61,7.22-9.42,10.15c-0.95,0.58-1.81,1.26-2.59,1.98c-1.15,1.04-2.13,2.14-2.92,3.1
			c-0.75,0.9-1.55,1.97-2.29,3.13c-0.06,0.09-0.12,0.17-0.18,0.26c-0.01,0.02-0.02,0.04-0.04,0.07c-1.29,2.08-2.36,4.47-2.53,6.84
			l-0.04,0.52c-0.01,0.08-0.05,0.47-0.05,1.06c0,1.27,0.17,3.45,1.15,5.36c0,0,0.14-1.5,0.44-3.09l0.12-1.22
			c1.71,1.61,4.29,3.85,5.2,4.64c0.21,0.18,0.33,0.28,0.33,0.28c-0.16,2.47-0.56,6.44-0.56,6.44L197.219,404.083z M205.419,454.933
			c-0.04,0.01-4.68,1.25-10.21-0.61c-3.33-1.12-6.35-3.28-8.73-6.26l-12.17-15.27c0.89-2.36-0.02-5.02-0.02-5.02
			c-0.17,3.3-1.29,4.65-1.83,5.12c-0.08,0.03-0.17,0.05-0.26,0.03c-0.13-0.02-0.23-0.08-0.3-0.2c-3.29-5.09-3.64-10.26-3.64-12.25
			c0-0.39,0.01-0.62,0.01-0.64l0.01-0.07v-0.07c-0.11-2.66,0.42-4.08,2.24-6.05l0.7-0.76l-0.58-0.78
			c8.01-5.66,17.81,3.03,17.91,3.12l0.12,0.09c3.61,2.53,6.91,6.11,9.82,10.63l2.47,3.86c1.95,3.46,4.15,7.79,5.13,11.23
			c0,0-0.6-6.53-5.34-16.24c-0.13-1.51-0.59-7.87-0.2-17.46l0.07-1.68c0.09-1.84,0.21-3.79,0.37-5.83c0.73,0.53,1.47,1.05,2.21,1.55
			c0.04,0.03,0.07,0.05,0.11,0.07c0.63,0.43,1.28,0.84,1.93,1.24c0.1,0.06,0.2,0.13,0.3,0.19c0.6,0.36,1.2,0.71,1.81,1.05
			c0.13,0.07,0.25,0.14,0.37,0.21c0.61,0.33,1.22,0.65,1.83,0.97l0.36,0.18c0.65,0.33,1.31,0.64,1.98,0.94
			c0.08,0.04,0.15,0.07,0.23,0.11c1.52,0.68,3.06,1.31,4.65,1.87l0.81,0.29c-2.69,20.67,3.86,37.92,6.2,43.26
			C216.839,452.253,210.659,453.323,205.419,454.933z M281.399,454.873c-0.64,0-1.28-0.02-1.92-0.03c-0.62-0.01-1.22-0.02-1.84-0.04
			c-0.82-0.02-1.65-0.06-2.47-0.1c-0.62-0.02-1.23-0.04-1.85-0.07c-0.91-0.05-1.83-0.11-2.75-0.17c-0.56-0.03-1.1-0.06-1.66-0.1
			c-1.49-0.1-2.98-0.22-4.5-0.36c-2.12-0.19-4.31-0.46-6.69-0.81c-0.37-0.05-0.76-0.11-1.17-0.17c-0.08-0.01-0.17-0.02-0.25-0.03
			c-0.34-0.05-0.7-0.09-1.07-0.14c-0.1-0.01-0.19-0.03-0.29-0.04c-0.41-0.05-0.84-0.1-1.28-0.16c-0.05,0-0.09-0.01-0.14-0.01
			c-1.56-0.19-3.3-0.37-5.18-0.54c-0.03-0.01-0.06-0.01-0.09-0.01c-2.54-0.23-5.33-0.42-8.29-0.55c-0.01,0-0.02,0-0.02,0
			c-2.1-0.08-4.29-0.14-6.53-0.14c-0.09,0-0.19,0.01-0.28,0.01c-0.95,0-1.91,0.01-2.88,0.03c-0.27,0.01-0.55,0.02-0.82,0.02
			c-0.85,0.03-1.71,0.06-2.57,0.1c-0.13,0.01-0.27,0.01-0.41,0.02c-1.7-3.74-9.01-21.36-6.47-42.23l63.19,22.46
			c0.94,0.29,1.87,0.57,2.79,0.83c0.12,0.03,0.24,0.07,0.35,0.1C285.429,440.573,283.779,448.003,281.399,454.873z M284.019,454.883
			c2.26-6.71,3.84-13.92,4.72-21.49c0.03,0,0.05,0.01,0.07,0.01c0.46,0.12,0.91,0.24,1.36,0.35c0.71,0.18,1.41,0.35,2.11,0.51
			c0.49,0.11,0.98,0.22,1.47,0.32c0.4,0.09,0.81,0.19,1.21,0.27c-0.32,6.62-0.13,12.12,0.1,15.64c0.09,1.36,0.39,2.69,0.89,3.94
			C292.079,454.723,288.079,454.873,284.019,454.883z M321.579,445.383c-0.16,0.32-0.31,0.64-0.46,0.97
			c-0.09,0.18-0.18,0.36-0.27,0.54c-0.18,0.38-0.36,0.76-0.56,1.14c-0.03,0.06-0.06,0.13-0.09,0.19c-0.51,1-1.04,2.01-1.59,3.03
			l-0.2,0.36c-0.61,1.1-1.24,2.19-1.91,3.28c-2.42,3.97-7.14,5.9-11.47,4.7l-0.25-0.07c-2.51-0.74-4.58-2.45-5.86-4.67
			c-0.16-0.28-0.3-0.57-0.44-0.86c-0.05-0.12-0.1-0.25-0.16-0.37c-0.08-0.22-0.17-0.44-0.24-0.67c-0.05-0.15-0.1-0.3-0.14-0.45
			c-0.07-0.25-0.13-0.5-0.19-0.76c-0.02-0.14-0.05-0.29-0.08-0.44c-0.03-0.21-0.05-0.42-0.07-0.63c-0.01-0.12-0.03-0.23-0.04-0.35
			c-0.24-3.82-0.39-9-0.11-15.05c0.01-0.12,0.01-0.24,0.02-0.37c0.01-0.15,0.02-0.31,0.02-0.46l0.02-0.01l0.03-0.55
			c0.01-0.42,0.04-0.83,0.06-1.26c0.06-0.92,0.13-1.87,0.21-2.83c0.03-0.34,0.06-0.69,0.1-1.04c0.02-0.25,0.04-0.51,0.07-0.77
			c0.06-0.69,0.14-1.37,0.22-2.09c0-0.01,0-0.03,0.01-0.04c0.07-0.62,0.15-1.25,0.23-1.88c0.03-0.27,0.06-0.52,0.09-0.79l0.24-1.76
			l-0.05,0.01l0.01-0.03l-1.76,0.4c-0.01,0.01-0.01,0.01-0.02,0.01c-0.28-0.28-0.43-0.67-0.43-1.07c0-0.09,0.01-0.17,0.02-0.26
			c0.03-0.15,0.06-0.3,0.09-0.45c0.04-0.2,0.09-0.4,0.13-0.6c0.06-0.23,0.12-0.46,0.17-0.69c0.74-2.84,1.71-5.12,2.73-6.91
			c1.21-1.49,2.35-2.98,3.43-4.46c0.42-0.4,0.82-0.74,1.19-1.03l2.38-1.46c0.24-0.14,0.48-0.28,0.72-0.41
			c0.03-0.01,0.06-0.03,0.09-0.04c0.11-0.06,0.22-0.11,0.34-0.17c0.97-0.47,1.99-0.84,3.04-1.07l0.07-0.01
			c0.28-0.06,0.56-0.11,0.85-0.16h0.01c0.26-0.04,0.51-0.06,0.76-0.08l0.15-0.02c0.3-0.02,0.59-0.03,0.89-0.04h0.35
			c2.32,0.03,4.64,0.65,6.72,1.79l1.51,0.83l0.26-1.41l0.07-0.29c0.02-0.13,0.15-0.27,0.3-0.32c0.01,0,0.01,0,0.01,0
			c0.16-0.04,0.26,0.01,0.33,0.07c0.13,0.11,0.25,0.23,0.37,0.34c0.2,0.17,0.39,0.35,0.58,0.53c0.12,0.12,0.24,0.24,0.35,0.36
			c0.19,0.2,0.38,0.39,0.56,0.59c0.08,0.09,0.16,0.18,0.24,0.28c0.22,0.25,0.43,0.51,0.63,0.77c0.03,0.04,0.05,0.07,0.08,0.11
			c6.54,8.73,2.66,20.52,1.62,23.26l-0.1,0.08l-0.11,0.35c-0.07,0.25-0.15,0.51-0.23,0.77c-0.01,0.04-0.02,0.09-0.04,0.13
			c-0.07,0.22-0.14,0.46-0.22,0.71c-0.04,0.13-0.08,0.26-0.13,0.39c-0.06,0.19-0.12,0.39-0.19,0.6c-0.07,0.2-0.14,0.4-0.2,0.61
			c-0.06,0.17-0.12,0.33-0.18,0.51c-0.09,0.29-0.2,0.59-0.3,0.89c-0.04,0.11-0.08,0.21-0.12,0.32c-0.3,0.86-0.63,1.76-0.99,2.71
			c-0.05,0.13-0.1,0.27-0.15,0.4c-0.13,0.34-0.27,0.68-0.4,1.03c-0.08,0.18-0.15,0.37-0.23,0.56c-0.12,0.3-0.24,0.61-0.37,0.92
			c-0.09,0.22-0.19,0.44-0.28,0.66c-0.12,0.29-0.24,0.57-0.36,0.86c-0.11,0.25-0.22,0.5-0.33,0.75c-0.11,0.26-0.23,0.53-0.35,0.79
			c-0.12,0.28-0.25,0.57-0.38,0.85C321.789,444.913,321.679,445.143,321.579,445.383z M361.129,339.083
			c3.03-0.95,6.33-0.64,9.27,0.87l1.18,0.6l0.54-1.22c0.02-0.06,0.09-0.11,0.16-0.13c0.09-0.03,0.14,0,0.18,0.02
			c1.36,0.87,6.97,4.92,7.04,12.82c0,0-0.23,2.17-0.78,4.94c-0.56,2.78-1.43,6.15-2.71,8.56c0.22-0.14,3.75-2.49,5.84-8.9
			l-0.03-0.07c4.18-9.42,11.72-9.47,13.29-9.37c5.15,0.33,9.75,3.88,11.71,9.06c1.35,3.53,2.6,9,0.98,14.99l-0.01,0.04
			c-0.53,1.32-1.66,3.17-4.01,4.06c0,0,3.17-0.16,5.58-2.47c0.22,0.07,0.43,0.2,0.58,0.4c0.14,0.17,0.35,0.54,0.23,1.04
			c-1.05,4.43-5.18,12.4-20.82,17.59c-1.66,0.51-5.23,1.55-7.37,1.75c0,0,1.62,1.64,5.2,1.5v0.02c0.02,0,1.51-0.17,3.46,0.59
			c4.34,1.68,6.74,6.52,5.58,11.25c-0.37,1.5-0.99,2.91-1.83,4.21c-0.96,1.1-2.69,2.59-4.8,2.33c0.32,0.11,2.54,0.76,5.44-0.25
			c0.07,0.1,0.12,0.21,0.14,0.33c0.03,0.22-0.05,0.42-0.24,0.58c-11.8,10.49-27.55,8.46-32.46,7.49c0.14-0.28,0.27-0.58,0.41-0.87
			c0.23-0.48,0.46-0.96,0.68-1.44c0.25-0.55,0.49-1.11,0.72-1.67c0.2-0.49,0.4-0.98,0.59-1.47c0.22-0.57,0.43-1.15,0.63-1.73
			c0.17-0.49,0.34-0.98,0.5-1.48c0.19-0.59,0.36-1.2,0.53-1.8c0.13-0.49,0.28-0.97,0.4-1.47c0.16-0.62,0.3-1.25,0.44-1.88
			c0.1-0.48,0.21-0.96,0.31-1.44c0.12-0.66,0.23-1.33,0.33-2c0.07-0.46,0.15-0.91,0.21-1.36c0.1-0.75,0.17-1.51,0.24-2.27
			c0.04-0.37,0.09-0.74,0.11-1.12c0.09-1.13,0.14-2.27,0.15-3.41c0-0.39,0.01-0.78,0.01-1.17c0-0.56-0.01-1.11-0.02-1.67
			c0-0.34-0.01-0.67-0.02-1.01c-0.02-0.7-0.05-1.4-0.08-2.11c-0.01-0.17-0.01-0.34-0.02-0.51c-0.04-1.08-0.11-2.2-0.21-3.39
			c0.13-0.04,0.26-0.11,0.39-0.17c0.03-0.02,0.07-0.03,0.11-0.05c0.14-0.07,0.27-0.16,0.4-0.24c0.03-0.02,0.06-0.04,0.09-0.06
			c0.13-0.1,0.26-0.21,0.38-0.32c0.02-0.01,0.04-0.03,0.06-0.04c0.13-0.13,0.26-0.27,0.38-0.41c0-0.01,0.01-0.01,0.01-0.02
			c0.01,0,0.01-0.01,0.02-0.02c0.15-0.2,0.28-0.41,0.39-0.63c0.03-0.05,0.06-0.09,0.09-0.13c0.11-0.23,0.18-0.47,0.25-0.72
			c0.01-0.05,0.04-0.09,0.05-0.14c0.05-0.23,0.07-0.48,0.08-0.72c0.01-0.06,0.02-0.12,0.02-0.18c0-0.18-0.03-0.35-0.05-0.52
			c-0.02-0.14-0.02-0.27-0.05-0.4c-0.05-0.26-0.11-0.5-0.17-0.76c-0.09-0.39-0.18-0.78-0.27-1.17c-0.09-0.35-0.18-0.69-0.26-1.03
			c-0.08-0.29-0.15-0.59-0.23-0.88c-0.1-0.38-0.21-0.76-0.31-1.13c-0.07-0.23-0.13-0.47-0.19-0.69c-0.12-0.42-0.25-0.84-0.37-1.25
			c-0.05-0.17-0.1-0.34-0.15-0.5c-0.15-0.46-0.29-0.92-0.44-1.37c-0.03-0.1-0.06-0.19-0.09-0.28c-4.96-15.22-12.37-25.15-14.5-27.81
			C355.809,341.923,358.199,340.003,361.129,339.083z M350.979,344.953l-0.09,0.13l0.66,0.65v0.01
			c0.12,0.13,10.63,12.51,16.01,32.37v0.03c0.14,0.5,0.27,1.01,0.4,1.52c0.04,0.18,0.09,0.35,0.13,0.53
			c0.08,0.31,0.15,0.62,0.22,0.93c0.08,0.36,0.17,0.72,0.25,1.09c0.02,0.08,0.02,0.15,0.02,0.23c0.01,0.08,0.03,0.16,0.02,0.23
			c0,0.01,0,0.01,0,0.02c-0.03,0.41-0.22,0.72-0.35,0.88c-0.08,0.1-0.17,0.18-0.26,0.26c-0.01,0-0.01,0.01-0.01,0.01
			c-0.1,0.07-0.19,0.13-0.29,0.18c-0.01,0.01-0.02,0.01-0.03,0.01c-0.2,0.1-0.43,0.16-0.65,0.16h-1.38l0.14,1.37
			c0.15,1.59,0.26,3.19,0.34,4.79c0.03,0.67,0.05,1.33,0.07,1.99c0.01,0.35,0.03,0.7,0.03,1.05c0.02,0.97,0.02,1.93,0.01,2.88
			c-0.03,2.24-0.19,4.48-0.49,6.7c-0.91,6.65-3.02,13.12-6.23,19l-0.01,0.02c-5.75,10.55-14.91,18.98-25.81,23.75
			c-3.63,1.58-7.5,2.97-11.52,4.14c0.06-0.12,0.12-0.24,0.18-0.36c0.15-0.3,0.31-0.6,0.46-0.91c0.14-0.28,0.27-0.56,0.41-0.85
			c0.12-0.25,0.25-0.51,0.37-0.76c0.23-0.48,0.45-0.96,0.66-1.43c0.09-0.19,0.17-0.38,0.25-0.57c0.16-0.35,0.32-0.69,0.47-1.04
			c0.07-0.18,0.15-0.35,0.23-0.53c0.16-0.38,0.32-0.75,0.47-1.12c0.06-0.13,0.11-0.26,0.16-0.38c0.43-1.03,0.82-2.01,1.18-2.96
			c0.03-0.08,0.06-0.16,0.09-0.24c0.16-0.4,0.3-0.79,0.44-1.17c0.04-0.09,0.07-0.19,0.11-0.29c0.14-0.38,0.27-0.76,0.41-1.13
			c0.02-0.06,0.04-0.12,0.06-0.18c0.15-0.42,0.29-0.84,0.43-1.23c0.02-0.08,0.05-0.15,0.07-0.23c0.1-0.29,0.2-0.58,0.29-0.85
			c0.06-0.18,0.11-0.35,0.17-0.52c0.04-0.14,0.09-0.28,0.13-0.41c0.16-0.5,0.31-0.97,0.44-1.4c0-0.01,0.01-0.03,0.01-0.03
			c0.07-0.06,0.12-0.12,0.19-0.18c0.01-0.01,0.02-0.01,0.03-0.02c0.12-0.11,0.24-0.23,0.36-0.34c0.18-0.18,0.37-0.35,0.55-0.53
			c0.1-0.11,0.2-0.22,0.3-0.33c0.22-0.23,0.44-0.47,0.65-0.71c0.04-0.05,0.07-0.09,0.11-0.13c4.03-4.77,5.75-11.14,4.54-17.36
			c-2.96-15.19-12.97-28.68-13.4-29.25l-5.94-7.82c8.33-6.75,11.04-16.54,11.04-16.54c-3.95,6.29-11.07,13.03-13.54,15.29
			l-0.05,0.04c-0.09,0.07-0.18,0.13-0.26,0.2c-0.35,0.27-0.69,0.53-1.03,0.78c-6.67,4.93-16.46,10.49-28.12,12.06
			c-0.41,0.05-0.83,0.11-1.25,0.15c-0.34,0.04-0.69,0.07-1.06,0.1c-0.17,0.02-0.33,0.03-0.51,0.04c-0.51,0.03-1,0.06-1.5,0.08
			c-0.38,0.02-0.75,0.02-1.13,0.03c-0.42,0.01-0.84,0.01-1.25,0.01c-0.14,0-0.29-0.01-0.43-0.01l-3.59-0.2
			c-0.29-0.02-0.57-0.05-0.86-0.08c-0.19-0.02-0.38-0.04-0.57-0.06l-0.04-0.01c-0.25-0.03-0.5-0.06-0.75-0.1l-0.54-0.07
			c-0.17-0.03-0.34-0.06-0.51-0.08c-0.49-0.08-0.97-0.17-1.45-0.26l-0.04-0.01h-0.03l-0.33-0.07c-0.51-0.1-1.03-0.22-1.54-0.34
			h-0.01c-0.56-0.12-1.1-0.26-1.61-0.41c-0.03-0.01-0.05-0.01-0.08-0.02c-0.08-0.03-0.17-0.05-0.25-0.07
			c-0.63-0.18-1.26-0.37-1.89-0.58c-0.05-0.02-0.1-0.03-0.16-0.05c-0.01,0-0.02-0.01-0.04-0.01c-0.26-0.09-0.51-0.2-0.76-0.3
			c-0.09-0.04-0.18-0.08-0.27-0.13c-0.05-0.02-0.1-0.04-0.14-0.06l-0.07-0.03c-0.03-0.02-0.06-0.04-0.1-0.06
			c-0.05-0.03-0.11-0.06-0.17-0.09l-0.14-0.07c-0.21-0.12-0.42-0.24-0.62-0.37c-0.02-0.01-0.04-0.03-0.05-0.04
			c-0.18-0.11-0.35-0.23-0.51-0.35c-0.11-0.08-0.21-0.17-0.37-0.3c-0.2-0.16-0.4-0.32-0.59-0.51l-0.35-0.36h-0.03l-0.41-0.39
			l-0.52,0.4h-0.1l-0.34,0.26c-0.04-0.01-0.06-0.03-0.07-0.07c-0.83-1.69-1.33-3.33-1.51-4.93c0-0.06-0.02-0.12-0.02-0.17
			c-0.03-0.29-0.03-0.57-0.04-0.86c0-0.11-0.01-0.22-0.01-0.33v-0.06c0-0.22,0.02-0.44,0.04-0.66c0.01-0.19,0.02-0.37,0.04-0.56
			v-0.01c0.02-0.16,0.06-0.32,0.09-0.48c0.04-0.24,0.08-0.48,0.13-0.72c0.01-0.01,0.01-0.02,0.01-0.02c0.02-0.1,0.06-0.2,0.08-0.29
			c0.08-0.29,0.16-0.58,0.27-0.86c0.01-0.04,0.02-0.08,0.04-0.12c0-0.03,0.01-0.05,0.02-0.08c0.07-0.22,0.14-0.43,0.22-0.65
			c0.07-0.17,0.14-0.35,0.22-0.53c0.03-0.06,0.05-0.12,0.08-0.18l0.05-0.1c0.13-0.26,0.26-0.52,0.42-0.77
			c0.13-0.22,0.26-0.43,0.4-0.62c0.03-0.04,0.06-0.08,0.1-0.13c0.07-0.1,0.14-0.19,0.22-0.29c0.22-0.27,0.44-0.52,0.67-0.76
			c0.1-0.1,0.21-0.2,0.31-0.29c0.14-0.13,0.28-0.26,0.41-0.37c0.13-0.11,0.26-0.21,0.4-0.32c0.04-0.03,0.08-0.06,0.12-0.09
			c0.02-0.01,0.03-0.02,0.05-0.04l0.22-0.14c0.48-0.34,0.83-0.52,0.91-0.57c0.02-0.01,0.05-0.02,0.05-0.02
			c3.12-1.34,6.34-2.82,9.53-4.53s6.35-3.67,9.32-5.94c0.23-0.18,0.47-0.35,0.69-0.52c0.13-0.09,0.27-0.19,0.34-0.26
			c4.4-3.46,7.76-7.19,10.29-11.42l0.43-0.72l-0.51-0.68l-0.03-0.02l-1.64-2.17c15.57-3.06,29.95-7.62,42.8-13.58
			C340.159,331.633,346.109,337.973,350.979,344.953z M336.349,184.683c0.59,0.7,1.18,1.42,1.76,2.14l0.56,0.7l0.05-0.02
			c6.35,8.05,11.63,17.07,15.73,26.87c5.12,12.24,13.31,28.07,23.28,33.96c1.89,1.11,3.38,2.27,4.55,3.54
			c2.38,2.6,5.07,6.64,4.42,11.17c-0.59,4.09-3.84,7.95-9.65,11.45l-1.79,1.1l1.87,0.96c0.01,0.01,1.34,0.71,2.61,2.51
			c1.87,2.62,2.35,5.9,1.3,9c-1.08,3.23-3.68,5.77-6.93,6.77c-0.76,0.23-1.56,0.43-2.36,0.6l-0.4,0.08
			c-1.52,0.18-4.49,0.4-7.14-0.14c0,0,1.56,1.83,5.46,2.18c-2.34,2.71-7.85,8.48-17.26,14.94c-4.79,3.29-11.02,7.04-18.77,10.72
			l-0.04-0.03l-0.7,0.33c-13.17,6.19-28.03,10.87-44.16,13.94c-8.16-10.39-18.45-18.71-29.85-24.12c-1.92-0.91-3.87-1.74-5.81-2.48
			c-10.42-3.96-20.79-5.27-30.83-3.91c-7.81,1.08-15.32,4.02-21.83,8.5c-5.55-13.71-22.89-51.18-47.26-53.89
			c-5.14-0.57-10.31,1.14-14.18,4.68c-2.17,1.98-3.8,4.42-4.84,7.09c-0.35-2.06,0.1-4.41,2.12-6.46l0.18-0.19
			c4.71-4.64,7.77-10.38,8.86-16.61c2.81-16.05,10.18-45.42,28.58-68.85l0.07,0.02l0.57-0.71c1.09-1.37,2.24-2.73,3.41-4.06
			l1.96-2.22l-3.18,0.16c-0.11,0-0.22,0.01-0.31,0.01c-3.02-0.02-4.57-1.57-5.34-2.87c-1.29-2.15-1.31-5.08-0.05-7.28
			c1.11-1.94,3.02-3.02,5.51-3c3.3,0.02,6.28,1.13,6.31,1.14l7.73,2.92l-6.52-5.07c-0.7-0.55-1.27-1.16-1.73-1.85
			c-0.45-0.68-0.79-1.44-1-2.26c0-0.01,0-0.01,0-0.02c-0.05-0.21-0.09-0.41-0.12-0.61c0-0.03,0-0.06-0.01-0.08
			c-0.02-0.18-0.04-0.36-0.05-0.54v-0.04c0-0.19,0-0.37,0.01-0.55v-0.07c0.04-0.55,0.16-1.08,0.34-1.56
			c0.01-0.01,0.01-0.02,0.02-0.03c0.38-1,1.04-1.84,1.83-2.45c0.11-0.08,0.22-0.16,0.33-0.23c0.03-0.02,0.06-0.04,0.09-0.06
			c0.42-0.28,0.87-0.49,1.33-0.64c1.5-0.47,3.13-0.27,4.57,0.57c3.65,2.13,4.52,6.72,4.71,9.33l0.18,2.42l3.42-2.14
			c5.12-3.18,10.59-5.82,16.27-7.83l2.1-0.74l-0.02-0.03c3.92-1.28,7.97-2.31,12.14-3.07c0.34-0.07,26.95-5.72,57.43,3.67
			l-0.01,0.01l2.54,0.85c8.63,2.89,16.85,6.82,24.42,11.7c0.23,0.15,0.47,0.3,0.7,0.45l1.48,0.99l0.43-1.73
			c0.1-0.44,0.23-0.89,0.36-1.37c0.63-2.15,1.38-4,2.25-5.49c1.33-2.27,3.58-3.34,6.04-2.87c1.63,0.31,3.06,1.25,3.93,2.58
			c0.86,1.31,1.1,2.89,0.71,4.57c-0.39,1.74-1.16,3.61-2.28,5.54l-2.58,4.45l4.32-2.77h0.01c0.05-0.03,4.75-2.94,10.47-1.22
			c2.08,0.63,3.67,1.9,4.61,3.69c0.62,1.17,0.92,2.5,0.9,3.85v0.05c0,0.06-0.01,0.11-0.01,0.16c-0.03,0.77-0.16,1.55-0.4,2.31
			c-0.96,3.03-3.43,5.06-6.62,5.44l-2.3,0.28L336.349,184.683z M346.649,173.753c-0.03-0.43-0.09-0.85-0.18-1.28
			c-0.02-0.11-0.05-0.22-0.07-0.33c-0.08-0.32-0.16-0.64-0.27-0.95c-0.04-0.12-0.07-0.24-0.12-0.36c-0.15-0.4-0.31-0.8-0.51-1.18
			c-1.26-2.39-3.37-4.09-6.11-4.91c-1.58-0.48-3.08-0.66-4.47-0.66c-1.83,0-3.45,0.32-4.75,0.72c0.43-1.06,0.77-2.1,1-3.11
			c0.54-2.36,0.18-4.61-1.05-6.5c-0.2-0.29-0.41-0.57-0.64-0.83c-0.07-0.08-0.13-0.15-0.2-0.22c-0.19-0.2-0.38-0.4-0.59-0.58
			c-0.06-0.05-0.12-0.11-0.19-0.17c-0.26-0.22-0.54-0.43-0.84-0.62c-0.05-0.04-0.11-0.07-0.17-0.1c-0.25-0.16-0.51-0.3-0.77-0.42
			c-0.05-0.03-0.09-0.06-0.14-0.08c11.12-12,25.48-31.68,33.54-59.3c1.74-5.99,4.81-11.29,8.87-15.33c0.28-0.28,0.58-0.57,0.87-0.85
			c5.45-5.03,13.15-6.38,20.1-3.52c7.11,2.93,11.73,9.48,12.06,17.1c2.05,46.6-32.78,72.91-55.36,84.99c0-0.06-0.01-0.12,0-0.19
			c0.02-0.36,0.01-0.73,0-1.1C346.649,173.903,346.649,173.833,346.649,173.753z M413.169,86.963c-0.03,0.5-0.07,1-0.12,1.52
			c-3.66,42.05-31.5,79.06-71.3,95.18c1.92-1.18,3.39-2.97,4.22-5.22c23.09-11.92,39.65-27.3,49.22-45.73
			c8.53-16.43,9.78-32.21,9.33-42.55c-0.37-8.6-5.59-15.99-13.61-19.3c-7.86-3.24-16.57-1.71-22.75,4c-0.32,0.3-0.64,0.61-0.94,0.91
			c-4.36,4.33-7.64,10.01-9.5,16.4c-8.15,27.93-22.84,47.58-33.88,59.27c-3.22-0.33-6.22,1.2-7.95,4.15
			c-0.94,1.62-1.76,3.58-2.43,5.85c-6.83-4.33-14.18-7.92-21.87-10.68c4.79-3.43,13.43-11.1,21.96-26.15l0.07-0.14
			c0.28-0.68,6.88-16.78,7.71-35.6c0.06-1.21,0.9-1.8,1.67-1.96c0.65-0.13,1.47,0.02,2,0.73c0.08,0.12,0.18,0.3,0.3,0.54v7.73
			l1.12-3.53c0.02,0.28,0.04,0.55,0.04,0.85l1.29-5.06c2.69-8.49,5.96-16.34,9.72-23.33l0.06-0.12
			c0.13-0.31,13.52-31.48,48.55-23.28c0.66,0.15,1.16,0.66,1.23,1.23c0.01,0.04,0.01,0.09,0.01,0.14c-0.39,0.83-1.85,3.1-6.23,3.9
			c0,0,2.95,0.79,5.74-0.67l0.2,0.08C400.739,51.163,414.809,64.543,413.169,86.963z"/>
		<path style="fill:#232343;" d="M305.601,215.841c-6.802-15.093-27.397-17.41-36.768-3.763c-7.05,10.268-7.067,24.944-6.316,33.489
			c0.581,6.608,4.253,12.66,10.086,15.82c0.326,0.177,0.652,0.343,0.978,0.5c7.941,3.832,17.309,2.586,24.529-2.474
			c1.769-1.24,3.297-2.611,4.617-4.041c6.228-6.752,8.691-16.176,7.088-25.22C308.776,224.295,307.296,219.602,305.601,215.841z"/>
		<path style="fill:#232343;" d="M203.798,218.512c-3.299-12.83-20.633-15.278-27.598-4.01c-2.459,3.978-4.598,9.523-5.741,17.249
			c-0.585,3.956-0.301,8.027,1.096,11.773c1.226,3.289,3.431,6.822,7.394,9.072c4.241,2.408,9.419,2.725,13.974,0.982
			c2.892-1.107,6.154-3.198,8.584-7.135c1.231-1.995,1.988-4.239,2.4-6.547C204.697,235.474,205.834,226.428,203.798,218.512z"/>
		<path style="fill:#232343;" d="M288.493,192.748c2.318,0.008,5.918,0.325,9.895,1.79c0.65,0.239,1.321,0.358,1.99,0.358
			c0.879,0,1.755-0.206,2.571-0.614c1.428-0.713,2.509-1.998,2.966-3.526c0.742-2.474-0.267-5.174-2.452-6.566
			c-2.945-1.875-7.998-4.015-15.325-3.563c-3.041,0.188-5.467,2.635-5.642,5.674l-0.009,0.145c-0.086,1.644,0.491,3.21,1.624,4.409
			C285.244,192.052,286.839,192.742,288.493,192.748z M284.851,186.454c0.107-1.865,1.584-3.357,3.433-3.472
			c6.696-0.413,11.261,1.511,13.912,3.198c1.299,0.827,1.899,2.43,1.459,3.897c-0.275,0.92-0.9,1.663-1.76,2.092
			c-0.849,0.425-1.805,0.478-2.691,0.152c-4.301-1.583-8.194-1.926-10.703-1.935c-1.024-0.004-1.974-0.413-2.674-1.154
			c-0.685-0.725-1.034-1.67-0.982-2.663L284.851,186.454z"/>
		<path style="fill:#232343;" d="M176.11,200.208c0.342,0.067,0.686,0.1,1.025,0.1c1.088,0,2.144-0.338,3.049-0.99
			c3.044-2.191,6.04-3.316,8.018-3.874c1.45-0.409,2.684-1.404,3.385-2.731c0.703-1.33,0.828-2.846,0.354-4.258l-0.04-0.12
			c-0.901-2.642-3.631-4.198-6.346-3.621c-6.428,1.366-10.27,4.424-12.362,6.748c-1.582,1.756-1.809,4.376-0.552,6.371
			C173.417,199.064,174.681,199.93,176.11,200.208z M174.947,193.042c1.858-2.064,5.292-4.785,11.099-6.019
			c0.216-0.046,0.433-0.068,0.647-0.068c1.316,0,2.531,0.842,2.975,2.142l1.117-0.381l-1.084,0.478
			c0.27,0.805,0.199,1.663-0.199,2.416c-0.407,0.77-1.095,1.324-1.939,1.562h-0.001c-2.161,0.609-5.434,1.838-8.756,4.23
			c-0.653,0.47-1.447,0.645-2.245,0.489c-0.804-0.157-1.487-0.624-1.923-1.316C173.942,195.471,174.069,194.017,174.947,193.042z"/>
		<path style="fill:#232343;" d="M211.51,263.357c0.848,0.54,1.702,1.006,2.518,1.403c2.656,1.293,5.843,0.844,8.07-1.097
			c1.824-1.589,4.086-3.061,5.699-4.035c1.615-0.976,2.92-2.418,3.598-4.179c0.029-0.075,0.057-0.15,0.084-0.225
			c1.881-5.141-1.428-10.689-6.813-11.677c-5.242-0.962-9.674-0.351-12.506,0.347c-2.909,0.717-5.441,2.655-6.571,5.43
			c-1.046,2.57-0.707,5.044,0.018,7.026C206.684,259.292,208.867,261.673,211.51,263.357z"/>
		<path style="fill:#232343;" d="M232.856,276.912l-5.424-1.597c-5.112-2.093-7.315-4.898-7.315-4.898
			c-2.965,11.971-14.195,13.338-14.195,13.338c1.677,0.242,3.191,0.251,4.564,0.099c0.23,1.079,0.99,3.891,3.124,6.991
			c2.434,3.537,6.272,5.523,10.423,5.523c0.896,0,1.808-0.093,2.723-0.282c5.043-1.047,8.785-4.808,9.765-9.813
			c0.374-1.911,0.479-4.04,0.344-6.321c5.883-0.177,8.562-2.756,8.562-2.756C240.423,277.81,236.264,277.574,232.856,276.912z
			 M234.206,285.821c-0.795,4.057-3.833,7.105-7.929,7.955c-4.201,0.873-8.31-0.763-10.722-4.268
			c-1.641-2.384-2.365-4.587-2.654-5.701l1.643-0.958c0.053-0.031,0.102-0.068,0.155-0.099c3.868-1.691,5.903-4.701,6.638-6.004
			l0.485-0.558c5.108,2.432,9.316,3.459,12.69,3.712C234.655,282.06,234.553,284.048,234.206,285.821z"/>
		<path style="fill:#232343;" d="M229.298,283.163c-1.528-0.595-3.402-0.723-5.283-0.359c-1.879,0.362-3.573,1.18-4.77,2.3
			c-1.337,1.253-1.942,2.812-1.659,4.276c0.283,1.466,1.424,2.689,3.132,3.353c0.958,0.373,2.051,0.561,3.197,0.561
			c0.683,0,1.384-0.066,2.086-0.202c1.879-0.362,3.573-1.18,4.769-2.3c1.337-1.253,1.942-2.811,1.659-4.277
			C232.146,285.049,231.005,283.827,229.298,283.163z M228.999,288.901c-0.832,0.779-2.104,1.38-3.489,1.646
			c-1.387,0.269-2.791,0.184-3.852-0.229c-0.86-0.335-1.417-0.855-1.527-1.429c-0.11-0.572,0.212-1.263,0.886-1.893
			c0.832-0.779,2.104-1.379,3.489-1.646c0.534-0.104,1.071-0.154,1.59-0.154c0.827,0,1.609,0.13,2.262,0.384
			c0.86,0.335,1.417,0.855,1.527,1.428l0.001,0.001C229.996,287.579,229.673,288.27,228.999,288.901z"/>
		<path style="fill:#232343;" d="M253.517,429.965c-0.406-0.406-1.113-0.406-1.52,0l-1.907,1.907l-1.907-1.907
			c-0.405-0.406-1.113-0.406-1.519,0c-0.203,0.202-0.314,0.473-0.314,0.76c0,0.286,0.112,0.557,0.314,0.759l1.907,1.907
			l-1.907,1.907c-0.203,0.203-0.314,0.473-0.314,0.76c0,0.287,0.112,0.557,0.314,0.759c0.406,0.407,1.114,0.406,1.519,0l1.907-1.906
			l1.907,1.906c0.203,0.203,0.473,0.315,0.76,0.315s0.557-0.111,0.76-0.315c0.418-0.418,0.418-1.1,0-1.518l-1.907-1.907l1.907-1.907
			C253.936,431.065,253.936,430.384,253.517,429.965z"/>
		<g>
			<path style="fill:#FFFFFF;" d="M288.358,230.284c-2.48,6.229-8.841,9.547-14.207,7.411c-5.366-2.137-7.705-8.919-5.225-15.148
				c2.48-6.229,8.841-9.547,14.207-7.41C288.499,217.272,290.838,224.054,288.358,230.284z"/>
		</g>
		<g>
			
				<ellipse transform="matrix(0.9447 -0.3279 0.3279 0.9447 -62.9248 76.0762)" style="fill:#FFFFFF;" cx="194.107" cy="224.613" rx="8.44" ry="9.589"/>
		</g>
		<g>
			<g>
				<g>
					<path style="fill:#232343;" d="M155.404,386.861c-6.435,3.81-11.807,2.739-14.249,1.881
						c-5.084-14.087-20.259-22.179-34.829-18.472c-15.691,3.992-25.203,19.998-21.211,35.689
						c3.99,15.681,19.996,25.194,35.686,21.202c11.572-2.944,20.055-12.375,21.784-24.136c13.351-4.611,14.606-14.548,14.65-14.977
						l0.277-2.437L155.404,386.861z M141.108,400.943l-0.745,0.24l-0.088,0.777c-1.356,11.105-9.232,20.075-20.076,22.834
						c-14.378,3.658-29.053-5.071-32.709-19.44c-3.658-14.378,5.059-29.06,19.438-32.718c13.526-3.441,27.632,4.219,32.106,17.431
						l0.177,0.536l0.521,0.204c2.195,0.89,7.643,2.421,14.348-0.53C152.847,393.285,149.585,398.225,141.108,400.943z"/>
				</g>
			</g>
			<g>
				<g>
					<path style="fill:#232343;" d="M129.845,391.549c-0.996-3.87-4.773-6.6-9.002-6.528c-3.818,0.072-6.251,2.34-7.575,4.496
						c-1.314-2.155-3.757-4.424-7.565-4.496c-4.249-0.072-8.016,2.659-9.012,6.528c-1.314,5.142,0.38,13.569,15.93,24.542
						l0.647,0.452l0.647-0.452C129.465,405.118,131.158,396.691,129.845,391.549z M113.268,413.801
						c-13.908-9.997-15.53-17.305-14.401-21.688c0.718-2.833,3.5-4.855,6.641-4.855h0.144c5.029,0.103,6.477,5.05,6.538,5.255
						l1.078,3.931l1.078-3.931c0.021-0.051,1.478-5.152,6.538-5.255h0.123c3.12,0,5.943,2.001,6.672,4.855
						C128.798,396.496,127.186,403.804,113.268,413.801z"/>
				</g>
			</g>
		</g>
	</g>
</g>

    <text x="10" y="832" font-size="12" fill="gray" opacity="0.6" font-family="Arial, sans-serif">
      twoja-kolorowanka.pl
    </text>
  
</svg>
