<?xml version="1.0" encoding="utf-8"?>
<!-- Generator: Adobe Illustrator 27.5.0, SVG Export Plug-In . SVG Version: 6.00 Build 0)  -->
<svg xmlns="http://www.w3.org/2000/svg" xmlns:xlink="http://www.w3.org/1999/xlink" viewBox="0 0 500 500" width="595" height="842" preserveAspectRatio="xMidYMid meet" data-scaled="true">
<g id="BACKGROUND">
	<rect style="fill:#FFFFFF;" width="500" height="500"/>
</g>
<g id="OBJECTS">
	<g>
		<g>
			<path style="fill:#333333;" d="M182.391,142.895c2.08-4.868,5.817-9.623,11.401-10.299c8.286-1.003,9.707,6.784,7.37,13.056
				c-0.129,0.345,0.397,0.54,0.578,0.244c3.24-5.299,2.505-13.589-4.665-14.623c-7.47-1.077-13.716,4.52-14.707,11.612
				C182.366,142.897,182.385,142.909,182.391,142.895L182.391,142.895z"/>
			<path style="fill:#333333;" d="M192.884,119.621c2.813,0.721,5.566,1.233,8.192,2.531c2.638,1.305,4.299,3.424,6.557,5.18
				c0.266,0.207,0.62-0.042,0.469-0.362c-2.404-5.112-9.691-8.518-14.973-9.162C192.085,117.681,191.896,119.368,192.884,119.621
				L192.884,119.621z"/>
			<path style="fill:#333333;" d="M182.516,146.894c2.057,5.452,14.049,7.129,16.994,1.775c0.088-0.159-0.09-0.349-0.253-0.253
				c-2.885,1.711-5.559,2.792-9,2.432c-3.253-0.34-5.248-2.08-7.724-3.969C182.526,146.873,182.513,146.884,182.516,146.894
				L182.516,146.894z"/>
			<path style="fill:#333333;" d="M192.636,138.001c0.504-2.465-3.201-1.406-4.273-0.716c-2.011,1.293-3.257,3.99-2.051,6.251
				c1.329,2.491,4.167,2.58,6.405,1.287c2.334-1.348,2.811-3.753,1.882-6.19c-2.111-5.538-10.645,1.09-6.575,4.719
				c1.742,1.553,4.976,0.218,5.627-1.894c0.561-1.818-0.551-4.891-2.89-3.833c-1.742,0.787-4.138,5.39-1.036,6.013
				c1.261,0.253,1.853-0.826,2.406-1.749c0.682-1.139,1.183-2.317,0.122-3.401c-0.463-0.473-1.115-0.371-1.591,0
				c-0.933,0.727-1.563,1.741-1.526,2.943c0.037,1.22,1.58,1.294,2.003,0.271c0.281-0.679,0.525-1.163,1.115-1.623
				c-0.53,0-1.061,0-1.591,0c0.004,0.004-0.665,0.894-0.715,1.07c-0.469,0.594-0.256,0.604,0.641,0.032
				c0.067-0.29,0.191-0.55,0.37-0.781c0.309-0.462,0.296-0.68,0.534-0.318c0.385,0.586-0.314,1.206-0.77,1.418
				c-1.07,0.496-1.847-0.018-1.358-1.122c0.228-0.515,0.717-0.885,1.185-1.16c1.215-0.715,1.786-0.574,2.132,0.776
				c0.292,1.138,0.197,2.125-0.854,2.809c-1.004,0.653-2.431,1.169-3.364,0.123c-0.887-0.994-0.523-2.539,0.29-3.446
				c0.671-0.749,2.214-1.702,3.226-1.21C192.22,138.387,192.575,138.305,192.636,138.001L192.636,138.001z"/>
		</g>
		<g>
			<path style="fill:#333333;" d="M268.351,170.075c14.891-12.998,31.973-22.936,50.984-28.54c9.91-2.921,20.1-4.738,30.148-7.103
				c10.534-2.479,20.952-5.419,31.354-8.397c15.669-4.485,32.221-8.921,45.179-19.304c0.849-0.68,3.82-4.199,4.691-4.212
				c3.757-0.056,2.406,6.442,1.929,8.146c-1.441,5.145-4.695,9.072-8.72,12.453c-6.099,5.122-13.254,8.693-20.601,11.663
				c-16.533,6.685-34.192,10.767-51.737,13.736c-0.592,0.1-0.341,1.002,0.249,0.902c18.918-3.207,38.125-7.642,55.726-15.44
				c7.621-3.377,15.41-7.689,21.018-14.004c4.357-4.906,8.181-13.576,3.237-19.241c-0.158-0.181-0.477-0.167-0.636,0
				c-10.421,10.867-24.365,16.526-38.496,20.893c-15.255,4.714-30.719,9.06-46.29,12.596c-14.749,3.349-29.501,6.207-43.402,12.382
				c-12.852,5.709-24.757,13.466-35.048,23.052C267.653,169.919,268.066,170.323,268.351,170.075L268.351,170.075z"/>
			<path style="fill:#333333;" d="M311.708,223.86c8.309,35.712,2.07,75.693-11.732,109.306
				c-12.3,29.954-32.514,56.326-57.982,76.275c-0.455,0.357,0.186,0.991,0.636,0.636c25.554-20.108,45.795-46.573,58.122-76.698
				c7.021-17.159,11.43-35.327,13.794-53.695c2.406-18.689,2.519-37.654-2.208-55.999
				C312.233,223.278,311.613,223.451,311.708,223.86L311.708,223.86z"/>
			<path style="fill:#333333;" d="M242.655,281.801c5.027,11.35,12.615,21.44,22.463,29.059c2.807,2.172,5.49,4.134,8.762,1.936
				c4.342-2.918,7.136-9.829,8.831-14.52c0.176-0.487-0.594-0.691-0.773-0.213c-1.946,5.202-6.226,16.285-13.742,13.97
				c-3.474-1.07-7.694-6.188-10.218-8.811c-6.148-6.389-10.962-13.785-14.546-21.876
				C243.198,280.819,242.422,281.276,242.655,281.801L242.655,281.801z"/>
			<path style="fill:#333333;" d="M161.836,175.059c6.78,20.217,29.958,25.332,48.07,30.131c6.834,1.811,13.161,3.608,16.408,10.51
				c2.635,5.601,3.987,11.967,5.231,18.001c2.528,12.264,3.881,24.735,7.168,36.842c0.152,0.558,1.019,0.322,0.868-0.239
				c-3.178-11.817-4.534-23.98-6.947-35.955c-1.786-8.868-3.408-21.661-12.181-26.498c-9.374-5.169-21.217-5.815-31.224-9.553
				c-11.598-4.333-22.055-11.521-26.641-23.445C162.412,174.391,161.674,174.575,161.836,175.059L161.836,175.059z"/>
			<path style="fill:#333333;" d="M261.935,308.033c-5.135,10.204-14.562,18.019-23.337,25.074
				c-9.757,7.844-20,13.255-31.301,18.426c-3.51,1.606-4.635,4.22-6.343,7.725c-1.506,3.092-4.389,8.046-3.736,11.559
				c0.439,2.359,2.217,2.511,4.378,2.987c5.579,1.228,11.344,2.02,17.054,2.187c0.561,0.016,0.561-0.854,0-0.872
				c-5.436-0.171-11.594-0.554-16.814-2.183c-3.303-1.03-3.974-2.431-3.007-5.888c0.787-2.812,1.991-5.532,3.307-8.132
				c1.7-3.36,3.356-5.421,6.962-7.107c1.54-0.721,3.162-1.287,4.712-1.992c4.296-1.953,8.44-4.232,12.433-6.744
				c7.354-4.626,14.19-10.046,20.639-15.857c6.068-5.468,12.446-11.228,15.432-19.022
				C262.398,307.974,262.04,307.824,261.935,308.033L261.935,308.033z"/>
			<path style="fill:#333333;" d="M279.701,303.616c0.889,3.162,2.383,6.206,3.632,9.242c0.581,1.411,0.721,2.234,2.202,2.618
				c4.553,1.181,9.289-3.623,11.914-6.534c0.092-0.102,0.004-0.286-0.14-0.241c-3.872,1.198-5.668,6.15-10.444,5.874
				c-2.571-0.148-3.204-3.342-4.092-5.417c-0.833-1.945-1.655-3.888-2.867-5.629C279.837,303.429,279.665,303.487,279.701,303.616
				L279.701,303.616z"/>
			<path style="fill:#333333;" d="M280.996,307.297c-9.951,22.817-29.957,39.818-48.176,56.038
				c-4.499,4.005-10.194,7.348-14.256,11.715c-2.632,2.83-3.426,8.113-3.131,11.851c0.263,3.331,1.464,4.557,4.664,5.474
				c4.558,1.305,9.623,1.843,14.346,1.948c0.579,0.013,0.579-0.887,0-0.9c-4.274-0.095-10.182-0.093-14.107-1.916
				c-4.551-2.114-4.186-6.896-3.255-11.138c0.815-3.714,3.82-6.056,6.708-8.295c8.078-6.262,15.468-13.372,22.963-20.305
				c13.488-12.475,28.41-26.532,34.744-44.262C281.6,307.219,281.121,307.011,280.996,307.297L280.996,307.297z"/>
			<path style="fill:#333333;" d="M288.405,314.968c-10.419,22.242-22.678,43.193-38.626,61.974
				c-3.671,4.323-7.499,8.514-11.496,12.539c-3.697,3.723-6.25,5.491-7.047,10.773c-0.401,2.655-1.724,6.465,0.347,8.579
				c2.339,2.388,8.016,2.479,10.841,1.333c0.492-0.2,0.293-1.004-0.224-0.814c-2.369,0.871-5.87,0.956-8.158-0.324
				c-3.667-2.051-2.648-7.76-1.489-11.122c1.588-4.606,7.169-8.515,10.465-12.028c6.331-6.747,12.229-13.898,17.722-21.342
				c11.191-15.165,21.314-31.751,28.031-49.416C288.852,314.912,288.502,314.762,288.405,314.968L288.405,314.968z"/>
			<path style="fill:#333333;" d="M293.519,271.83c5.056,16.372,4.298,33.757,1.539,50.521
				c-2.735,16.612-8.116,32.508-15.473,47.625c-0.145,0.298,0.291,0.561,0.449,0.263c8.172-15.352,13.493-32.238,16.171-49.401
				c2.47-15.832,3.969-33.963-2.36-49.097C293.764,271.546,293.453,271.616,293.519,271.83L293.519,271.83z"/>
			<path style="fill:#333333;" d="M160.904,140.982c7.382-12.745,15.945-23.999,28.822-31.649
				c6.338-3.765,13.288-6.474,20.517-7.931c3.936-0.793,7.949-1.218,11.965-1.248c2.027-0.015,4.051,0.074,6.069,0.263
				c1.558,0.146,10.349,0.05,5.599,4.968c-0.281,0.291-0.067,0.746,0.318,0.768c2.193,0.124,4.368,0.177,6.563,0.062
				c3.117-0.164,4.939,0.37,2.697,3.883c-0.156,0.244-0.002,0.577,0.265,0.652c21.95,6.175,24.39,33.562,36.115,49.538
				c0.296,0.404,0.978,0.015,0.68-0.397c-7.863-10.862-10.775-24.268-18.153-35.385c-2.707-4.08-5.964-7.854-9.993-10.678
				c-1.814-1.272-4.727-1.944-6.359-3.302c-1.68-1.398-0.239-2.997-0.141-5.206c0.01-0.218-0.213-0.474-0.444-0.444
				c-1.176,0.151-8.455,1.549-9.358,0.493c-0.824-0.965,0.26-1.073,0.375-2.369c0.211-2.388-1.712-2.526-3.74-2.911
				c-9.957-1.895-20.695-0.701-30.264,2.46c-18.785,6.206-33.441,20.576-42.008,38.158
				C160.277,141.019,160.725,141.291,160.904,140.982L160.904,140.982z"/>
			<path style="fill:#333333;" d="M266.379,132.63c6.117-4.529,12.385-8.87,19.018-12.616c6.404-3.617,13.417-6.103,19.722-9.848
				c11.695-6.947,23.743-14.271,33.976-23.29c2.467-2.175,4.83-4.472,7.013-6.933c0.963-1.086,1.949-2.96,3.137-3.805
				c0.36-0.465,0.711-0.937,1.052-1.416c1.399,0.12,2.17,0.821,2.311,2.104c3.767,6.282-2.495,16.789-6.082,21.802
				c-9.11,12.732-22.326,22.935-35.946,30.383c-0.493,0.27-0.055,1.018,0.44,0.753c12.982-6.967,25.072-16.514,34.296-28.067
				c5.824-7.295,13.402-20.288,5.858-28.869c-0.203-0.231-0.543-0.128-0.696,0.09c-10.321,14.687-25.85,23.923-40.754,33.323
				c-7.466,4.709-15.516,7.917-23.231,12.164c-7.229,3.978-14.076,8.556-20.382,13.878
				C265.921,132.443,266.176,132.781,266.379,132.63L266.379,132.63z"/>
			<path style="fill:#333333;" d="M160.881,140.193c-8.413,3.316-19.806,1.218-28.646,0.82c-9.152-0.413-18.305-0.871-27.466-0.994
				c-8.888-0.119-18.053-0.29-26.872,0.972c-4.433,0.635-10.999,2.545-12.027,7.719c-0.044,0.22,0.034,0.397,0.213,0.525
				c1.756,1.251,3.991,0.136,5.968-0.199c4.876-0.826,9.857-1.038,14.794-0.887c9.045,0.275,18.021,1.824,26.862,3.67
				c15.664,3.271,31.109,7.968,47.29,6.816c0.489-0.035,0.493-0.801,0-0.766c-15.835,1.113-30.933-3.414-46.237-6.711
				c-7.349-1.583-14.785-2.943-22.283-3.575c-3.741-0.315-7.497-0.456-11.25-0.333c-1.867,0.062-3.734,0.191-5.591,0.393
				c-1.25,0.136-3.578,0.91-4.748,0.683c-4.375-0.849-1.485-3.479,0.995-4.701c2.443-1.204,4.997-1.598,7.696-1.891
				c3.8-0.411,7.654-0.551,11.472-0.675c8.167-0.265,16.34-0.123,24.505,0.165c8.179,0.288,16.351,0.726,24.529,1.044
				c6.876,0.268,14.48,1.394,21.03-1.228C161.632,140.833,161.409,139.985,160.881,140.193L160.881,140.193z"/>
			<path style="fill:#333333;" d="M161.055,140.873c4.079,1.848,5.471,8.527,8.264,11.951c2.308,2.83,7.089,5.778,3.503,9.973
				c-1.082,1.265-3.137,2.288-4.363,3.483c-1.307,1.274-2.514,2.646-3.61,4.105c-2.466,3.285-2.563,4.316-7.072,3.745
				c-6.354-0.804-12.534-2.521-18.596-4.551c-11.535-3.863-22.779-8.426-34.457-11.881c-10.755-3.182-21.553-6.331-32.339-9.386
				c-0.558-0.158-0.797,0.71-0.239,0.868c13.515,3.828,27.157,7.591,40.526,11.912c14.3,4.622,28.16,11.351,43.121,13.633
				c4.391,0.67,6.112,1.556,8.516-2.016c2.186-3.248,4.81-6.128,7.95-8.475c0.968-0.724,2.291-1.287,2.858-2.448
				c1.797-3.678-3.234-7.231-5.161-9.6c-2.911-3.579-4.051-10.032-8.743-11.687C160.997,140.425,160.843,140.777,161.055,140.873
				L161.055,140.873z"/>
			<path style="fill:#333333;" d="M278.474,292.334c1.254,2.98,5.346,8.924,8.616,9.72c3.293,0.802,6.483-3.197,8.142-5.441
				c0.191-0.259-0.236-0.589-0.447-0.345c-2.742,3.161-6.334,6.703-10.331,2.631c-2.062-2.1-3.576-4.763-5.798-6.671
				C278.584,292.165,278.428,292.223,278.474,292.334L278.474,292.334z"/>
			<path style="fill:#333333;" d="M254.441,269.707c-3.428,0.566-9.767,0.851-9.8,5.65c-0.032,4.616,5.948,8.231,9.447,10.109
				c0.502,0.269,0.947-0.488,0.447-0.765c-2.743-1.521-6.747-3.806-8.19-6.773c-0.983-2.02-0.714-4.209,1.201-5.7
				c0.572-0.445,1.613-0.594,2.318-0.777c1.568-0.409,3.191-0.67,4.773-1.032C255.107,270.312,254.901,269.632,254.441,269.707
				L254.441,269.707z"/>
			<path style="fill:#333333;" d="M246.151,272.279c-5.97-2.149-13.635-5.801-20.103-5.586c-4.877,0.162-4.947,3.653-5.472,7.703
				c-0.399,3.073-1.834,8.791,0.524,11.371c1.086,1.188,3.643,1.683,4.941,0.513c1.225-1.105,1.355-4.618,1.556-5.937
				c0.151-0.995-0.019-2.555,0.319-3.404c0.6-1.503-0.791-1.036,1.128-0.349c0.912,0.327,4.591,1.724,5.358,2.279
				c0.99,0.716,0.924,1.432,1.236,2.401c0.432,1.343,1.846,5.349,1.678,6.796c-0.303,2.606-1.065,0.423-3.248,0.761
				c-1.197,0.185-2.011,0.958-2.592,1.969c-1.423,2.474-0.338,3.782,2.067,4.848c3.915,1.735,9.206,2.621,10.543-2.188
				c0.744-2.676,0.213-5.311-0.208-7.986c-0.138-0.874-0.79-2.631-0.214-3.422c0.612-0.84,0.649-0.044,1.606-0.409
				c0.898-0.343,1.531-0.296,2.443-0.721c0.424-0.198,0.055-0.813-0.366-0.625c-1.438,0.076-2.877,0.152-4.315,0.228
				c-0.232-0.064-0.516,0.121-0.498,0.379c0.225,3.096,1.446,6.613,1.165,9.654c-0.38,4.116-1.554,5.562-4.96,5.304
				c-1.236-0.044-2.456-0.227-3.66-0.55c-5.296-3.245-4.216-4.675,3.24-4.29c0.325,0.156,0.747-0.103,0.635-0.488
				c-1.147-3.953-2.491-7.732-2.697-11.888c-0.012-0.244-0.181-0.384-0.413-0.413c-3.342-0.409-5.941-1.707-8.303-4.086
				c-0.23-0.232-0.758-0.079-0.71,0.294c0.289,2.237,0.877,10.98-2.764,11.577c-4.536,0.744-2.991-8.078-2.728-10.275
				c0.352-2.935,0.439-7.438,4.707-8.083c1.987-0.3,4.685,0.826,6.585,1.355c4.468,1.244,8.881,2.655,13.291,4.087
				C246.45,273.27,246.66,272.462,246.151,272.279L246.151,272.279z"/>
			<path style="fill:#333333;" d="M230.731,277.196c-0.272,2.012-0.678,4.128-0.479,6.161c0.088,0.901,0.189,0.603-0.382,1.494
				c-0.564,0.88-0.727,0.853-1.64,0.589c-0.698-0.203-1.193-0.723-1.902-0.804c-0.16-0.018-0.237,0.158-0.217,0.285
				c0.254,1.585,3.527,2.042,4.607,1.083c0.826-0.732,0.502-1.746,0.368-2.699c-0.286-2.026,0.046-4.044-0.094-6.073
				C230.984,277.092,230.753,277.038,230.731,277.196L230.731,277.196z"/>
			<g>
				<path style="fill:#333333;" d="M244.845,220.06c0.949,0.686,1.898,1.373,2.848,2.059c0.143,0.104,0.418,0.038,0.489-0.128
					c0.751-1.764,1.821-3.66,2.256-5.53c0.076-0.327-0.358-0.513-0.54-0.228c-1.031,1.62-1.635,3.711-2.369,5.482
					c0.175-0.071,0.35-0.142,0.525-0.214c-0.955-0.677-1.909-1.354-2.864-2.031C244.829,219.216,244.493,219.806,244.845,220.06
					L244.845,220.06z"/>
				<path style="fill:#333333;" d="M250.877,194.598c0.851,0.878,2.477,3.359,3.897,2.129c0.703-0.609,1.131-1.734,1.499-2.558
					c0.446-0.997,0.806-2.089,0.676-3.19c-0.052-0.445-0.666-0.459-0.703,0c-0.128,1.556-0.592,2.848-1.329,4.221
					c-0.098,0.182-0.193,0.455-0.338,0.606c-0.808,0.835-1.2,0.27-1.644-0.155c-0.53-0.507-1.051-1.023-1.566-1.545
					C251.054,193.786,250.565,194.276,250.877,194.598L250.877,194.598z"/>
				<path style="fill:#333333;" d="M242.029,239.654c0.851,0.878,2.477,3.359,3.897,2.129c0.703-0.609,1.131-1.734,1.5-2.558
					c0.446-0.997,0.806-2.089,0.676-3.19c-0.052-0.445-0.666-0.459-0.703,0c-0.127,1.556-0.592,2.848-1.329,4.221
					c-0.098,0.182-0.193,0.455-0.338,0.606c-0.808,0.835-1.2,0.27-1.644-0.155c-0.53-0.507-1.051-1.023-1.566-1.545
					C242.206,238.842,241.718,239.332,242.029,239.654L242.029,239.654z"/>
				<path style="fill:#333333;" d="M245.156,234.232c0.296,0.58,0.974,0.945,1.494,1.312c0.56,0.395,1.129,0.6,1.808,0.369
					c1.192-0.406,1.854-2.076,1.993-3.228c0.021-0.176-0.225-0.251-0.336-0.139c-0.712,0.716-0.847,2.578-2.205,2.567
					c-0.987-0.008-1.527-1.276-2.593-1.161C245.174,233.967,245.087,234.098,245.156,234.232L245.156,234.232z"/>
				<path style="fill:#333333;" d="M265.338,221.916c0.296,0.58,0.974,0.945,1.494,1.312c0.56,0.396,1.129,0.6,1.808,0.369
					c1.192-0.406,1.854-2.076,1.993-3.228c0.021-0.176-0.225-0.25-0.336-0.139c-0.712,0.716-0.848,2.578-2.205,2.567
					c-0.987-0.008-1.527-1.276-2.593-1.161C265.356,221.651,265.269,221.782,265.338,221.916L265.338,221.916z"/>
				<path style="fill:#333333;" d="M230.062,176.212c0.502,0.43,1.367,0.432,2.003,0.519c0.611,0.084,1.203,0.022,1.67-0.423
					c0.399-0.38,0.62-0.896,0.659-1.44c0.052-0.714,0-1.721-0.274-2.38c-0.075-0.18-0.308-0.192-0.38,0
					c-0.366,0.976,0.399,2.512-0.716,3.234c-0.875,0.567-2.069-0.476-2.963,0.226C229.987,176.007,229.992,176.152,230.062,176.212
					L230.062,176.212z"/>
				<path style="fill:#333333;" d="M264.285,252.661c0.296,0.58,0.974,0.945,1.494,1.312c0.56,0.396,1.129,0.6,1.808,0.369
					c1.192-0.406,1.854-2.076,1.993-3.228c0.021-0.176-0.225-0.25-0.336-0.139c-0.712,0.716-0.848,2.578-2.205,2.567
					c-0.987-0.008-1.527-1.276-2.593-1.161C264.303,252.396,264.216,252.527,264.285,252.661L264.285,252.661z"/>
				<path style="fill:#333333;" d="M255.394,195.407c0.296,0.58,0.974,0.945,1.494,1.312c0.56,0.395,1.129,0.6,1.808,0.369
					c1.192-0.406,1.854-2.076,1.993-3.228c0.021-0.176-0.225-0.25-0.336-0.139c-0.712,0.716-0.847,2.578-2.205,2.567
					c-0.987-0.008-1.527-1.276-2.593-1.161C255.412,195.142,255.325,195.273,255.394,195.407L255.394,195.407z"/>
				<path style="fill:#333333;" d="M268.83,253.293c0.851,0.878,2.477,3.358,3.897,2.129c0.703-0.61,1.131-1.734,1.499-2.558
					c0.446-0.997,0.806-2.089,0.676-3.19c-0.052-0.445-0.666-0.459-0.703,0c-0.127,1.556-0.592,2.848-1.329,4.221
					c-0.098,0.182-0.193,0.455-0.338,0.606c-0.808,0.835-1.2,0.27-1.644-0.155c-0.53-0.507-1.051-1.023-1.566-1.545
					C269.007,252.482,268.518,252.971,268.83,253.293L268.83,253.293z"/>
				<path style="fill:#333333;" d="M271.956,247.871c0.296,0.58,0.974,0.945,1.494,1.312c0.56,0.396,1.129,0.6,1.808,0.369
					c1.192-0.406,1.854-2.076,1.993-3.228c0.021-0.176-0.226-0.25-0.336-0.139c-0.712,0.716-0.848,2.578-2.205,2.567
					c-0.987-0.008-1.527-1.276-2.593-1.161C271.974,247.606,271.887,247.737,271.956,247.871L271.956,247.871z"/>
				<path style="fill:#333333;" d="M206.114,192.354c0.668,0.791,2.229,0.763,3.199,0.89c1.01,0.132,2.122,0.117,2.898-0.646
					c0.619-0.609,0.71-1.398,0.419-2.186c-0.521-1.411-1.325-2.771-2.001-4.114c-0.26-0.518-1.037-0.062-0.777,0.454
					c0.442,0.879,0.88,1.759,1.309,2.644c0.555,1.145,1.195,2.641-0.671,2.946c-1.323,0.216-3.183-0.861-4.359-0.122
					C206.082,192.252,206.078,192.312,206.114,192.354L206.114,192.354z"/>
				<path style="fill:#333333;" d="M205.272,186.341c0.92,0.852,3.258,1.213,4.358,0.501c1.341-0.869,1.27-2.632,1.092-4.017
					c-0.073-0.567-0.975-0.573-0.9,0c0.153,1.165,0.379,3.011-1.084,3.452c-1.132,0.341-2.32-0.489-3.433-0.059
					C205.256,186.236,205.227,186.3,205.272,186.341L205.272,186.341z"/>
			</g>
			<path style="fill:#333333;" d="M337.15,136.76c1.731,1.284,3.743,2.009,5.532,3.202c4.501,3.002-1.194,7.049-3.656,8.78
				c-3.823,2.688-7.773,5.07-12.205,6.614c-0.531,0.185-0.302,1.036,0.234,0.848c3.472-1.221,6.669-2.916,9.747-4.93
				c2.518-1.648,6.066-3.577,7.806-6.133c3.244-4.766-3.756-7.632-7.45-8.401C337.146,136.738,337.14,136.753,337.15,136.76
				L337.15,136.76z"/>
			<path style="fill:#333333;" d="M332.633,153.757c1.151,1.451,6.38,5.049,5.587,7.248c-0.469,1.3-4.874,3.068-5.845,3.493
				c-4.842,2.118-10.668,3.173-15.902,3.439c-0.496,0.025-0.5,0.755,0,0.773c6.908,0.256,15.144-2.013,20.853-5.932
				c1.391-0.955,2.097-1.242,1.822-2.919c-0.432-2.626-4.332-5.008-6.336-6.334C332.661,153.425,332.536,153.636,332.633,153.757
				L332.633,153.757z"/>
			<path style="fill:#333333;" d="M323.252,168.013c1.242,3.332,8.227,8.412,3.355,11.562c-2.17,1.403-6.972,1.493-9.347,1.648
				c-3.132,0.204-6.238-0.085-9.366-0.034c-0.309,0.005-0.402,0.498-0.076,0.559c4.055,0.758,8.351,0.611,12.432,0.09
				c2.411-0.308,7.631-0.571,9.233-2.751c1.115-1.516-0.129-3.1-0.97-4.5c-1.279-2.131-2.79-5.531-5.111-6.689
				C323.33,167.862,323.219,167.923,323.252,168.013L323.252,168.013z"/>
			<path style="fill:#333333;" d="M318.287,181.885c1.184,1.804,2.531,3.493,3.683,5.32c2.101,3.332,0.187,5.499-3.292,6.176
				c-6.738,1.31-13.21-0.571-19.479-2.859c-0.4-0.146-0.684,0.513-0.292,0.694c3.654,1.689,7.567,2.848,11.577,3.296
				c3.519,0.393,9.823,0.63,12.93-1.514c3.816-2.633-2.594-9.435-4.784-11.377C318.454,181.465,318.144,181.667,318.287,181.885
				L318.287,181.885z"/>
			<path style="fill:#333333;" d="M307.435,193.907c0.806,2.213,1.123,4.399,1.354,6.741c0.041,0.417,0.439,2.368,0.269,2.784
				c-0.677,1.654-3.347,1.289-4.65,1.172c-6.408-0.573-11.642-3.586-16.136-8.013c-0.387-0.382-0.981,0.212-0.597,0.597
				c2.664,2.668,5.407,4.959,8.941,6.366c2.905,1.157,8.812,3.188,11.977,1.898c1.802-0.735,1.34-1.901,1.148-3.775
				c-0.266-2.597-0.177-5.886-2.018-7.936C307.611,193.614,307.376,193.745,307.435,193.907L307.435,193.907z"/>
			<path style="fill:#333333;" d="M342.175,147.448c1.778,0.528,3.638,0.83,5.468,1.125c0.53,0.085,1.816,0.075,2.284,0.363
				c1.763,1.087-0.263,3.6-1.013,4.385c-2.614,2.737-6.865,4.376-10.524,4.806c-0.595,0.07-0.602,1.012,0,0.942
				c4.673-0.543,10.386-2.839,12.722-7.207c0.659-1.233,1.096-2.763-0.33-3.607c-1.147-0.679-2.939-0.574-4.227-0.788
				c-1.441-0.24-2.852-0.486-4.318-0.469C341.977,147.002,341.926,147.374,342.175,147.448L342.175,147.448z"/>
			<path style="fill:#333333;" d="M341.516,158.158c1.596,1.351,3.178,2.718,4.77,4.075c0.326,0.278,1.696,1.075,1.841,1.545
				c0.729,2.364-2.798,4.075-4.327,4.942c-4.798,2.721-10.287,3.274-15.648,4.018c-0.608,0.084-0.348,1.004,0.254,0.922
				c6.086-0.828,16.381-1.565,20.184-7.439c0.897-1.386,0.838-2.085-0.025-3.287c-1.366-1.903-4.637-4.227-6.846-5.122
				C341.527,157.734,341.363,158.029,341.516,158.158L341.516,158.158z"/>
			<path style="fill:#333333;" d="M337.592,172.12c1.49,1.656,3.157,3.204,4.581,4.91c0.658,0.789,2.08,2.04,1.597,3.308
				c-0.432,1.134-4.407,2.678-5.24,2.971c-5.107,1.796-10.86,2.353-16.242,2.268c-0.607-0.009-0.606,0.93,0,0.942
				c6.661,0.133,16.026-0.374,21.395-4.863c1.19-0.995,1.839-1.688,1.292-3.107c-0.392-1.017-1.839-1.839-2.58-2.581
				c-1.446-1.449-2.813-2.952-4.41-4.241C337.71,171.505,337.348,171.849,337.592,172.12L337.592,172.12z"/>
			<path style="fill:#333333;" d="M290.767,200.008c4.004,6.324,9.195,12.425,14.313,17.87c4.856,5.166,10.627,10.287,17.261,13.027
				c3.044,1.258,7.92,3.174,9.498-0.901c1.426-3.682,1.135-9.926-0.163-13.581c-0.199-0.56-1.078-0.335-0.902,0.249
				c0.935,3.099,1.7,9.257,0.316,12.367c-3.045,6.839-15.486-2.944-18.83-5.707c-8.287-6.845-13.576-16.179-21.228-23.529
				C290.898,199.675,290.662,199.842,290.767,200.008L290.767,200.008z"/>
			<path style="fill:#333333;" d="M309.383,199.067c4.271,5.663,10.663,10.342,16.481,14.384c5.509,3.827,11.469,6.641,18.265,6.865
				c2.931,0.097,9.574,1.474,10.134-2.707c0.213-1.587-1.011-4.623-1.411-6.158c-0.837-3.211-1.892-6.344-3.927-8.999
				c-0.312-0.407-0.99-0.054-0.71,0.415c2.006,3.359,4.93,9.037,4.709,13.178c-0.276,5.174-10.986,3.435-14.461,2.555
				c-11.167-2.825-20.584-12.155-28.804-19.747C309.52,198.726,309.257,198.9,309.383,199.067L309.383,199.067z"/>
			<path style="fill:#333333;" d="M321.255,193.416c13.604,8.609,32.409,11.848,48.269,11.837c3.703-0.003,7.442,0.634,6.22-3.863
				c-1.214-4.468-3.418-10.019-6.531-13.479c-0.349-0.388-1.051,0.134-0.734,0.567c2.608,3.571,4.458,7.744,5.913,11.902
				c0.1,0.285,0.837,1.916,0.727,2.278c-0.473,1.564-4.409,1.645-5.595,1.648c-3.196,0.007-6.39-0.146-9.572-0.443
				c-13.795-1.285-25.737-6.036-38.589-10.704C321.208,193.103,321.125,193.334,321.255,193.416L321.255,193.416z"/>
			<path style="fill:#333333;" d="M337.571,184.657c14.657,4.486,32.063,5.183,47.067,2.312c4.136-0.791,8.215-1.908,12.154-3.399
				c1.239-0.469,4.329-1.042,4.869-2.535c1.395-3.856-7.019-8.891-9.535-10.529c-0.522-0.34-0.959,0.464-0.479,0.82
				c2.178,1.611,5.949,3.807,7.339,6.254c2.072,3.648-0.164,4.234-3.295,5.38c-1.412,0.517-2.84,0.989-4.283,1.414
				c-6.321,1.859-12.885,2.843-19.462,3.132c-11.645,0.511-22.85-1.755-34.345-3.068
				C337.471,184.421,337.454,184.621,337.571,184.657L337.571,184.657z"/>
			<path style="fill:#333333;" d="M339.867,174.078c13.191,2.534,27.236,1.245,40.442-0.561c7.814-1.069,15.358-3.326,22.8-5.882
				c5.798-1.991,12.117-3.773,15.847-8.987c0.116-0.162,0.072-0.448-0.075-0.579c-3.97-3.541-10.27-5.791-15.498-6.302
				c-0.332-0.033-0.357,0.454-0.075,0.552c3.833,1.332,7.779,2.263,11.413,4.134c5.82,2.997-2.635,6.842-5.715,8.076
				c-7.851,3.145-16.172,5.791-24.474,7.381c-6.716,1.286-13.742,2.107-20.586,2.384c-8.033,0.325-16.044-0.596-24.059-0.362
				C339.807,173.935,339.782,174.061,339.867,174.078L339.867,174.078z"/>
			<path style="fill:#333333;" d="M412.374,131.246c3.474,1.228,7.406,1.744,10.744,3.303c1.642,0.768,3.051,1.473,2.797,3.158
				c-0.156,1.037-2.621,3.208-3.417,3.992c-5.682,5.597-14.448,7.988-21.83,10.323c-17.041,5.391-34.782,9.39-52.679,10.177
				c-0.608,0.027-0.612,0.973,0,0.949c21.667-0.833,44.777-5.958,64.727-14.475c3.426-1.463,6.971-3.099,9.746-5.643
				c1.253-1.149,4.87-4.248,4.995-6.143c0.117-1.78-1.525-2.297-2.943-2.847c-3.65-1.413-8.184-2.961-12.12-2.945
				C412.305,131.095,412.294,131.218,412.374,131.246L412.374,131.246z"/>
			<path style="fill:#333333;" d="M303.817,110.472c1.667,0.65,6.506,0.488,7.619,1.574c1.718,1.677,1.298,4.764,0.3,6.532
				c-0.626,1.109-1.286,2.198-1.994,3.256c-3.119,4.661-6.961,8.661-11.34,12.143c-0.453,0.36,0.187,0.993,0.636,0.636
				c5.708-4.54,12.922-11.545,15.11-18.8c1.738-5.762-6.501-5.834-10.331-5.351C303.813,110.463,303.812,110.47,303.817,110.472
				L303.817,110.472z"/>
			<path style="fill:#333333;" d="M305.812,127.935c2.503,1.036,5.698,1.204,5.115,5.343c-0.208,1.479-1.806,3.495-2.577,4.758
				c-2.12,3.47-4.766,6.439-7.325,9.569c-0.278,0.34,0.151,0.788,0.487,0.487c4.213-3.77,9.22-10.139,10.808-15.629
				c1.116-3.858-3.311-4.521-6.472-4.798C305.681,127.651,305.682,127.881,305.812,127.935L305.812,127.935z"/>
			<path style="fill:#333333;" d="M344.468,102.762c2.346-0.93,4.862-2.454,7.369-2.822c4.296-0.63,2.083,3.792,0.578,6.304
				c-2.909,4.857-6.724,9.338-10.435,13.596c-7.258,8.326-15.546,15.607-24.992,21.358c-0.517,0.315-0.044,1.13,0.476,0.814
				c12.696-7.718,23.162-18.188,32.042-30.035c1.266-1.689,8.302-9.921,5.737-12.866c-2.066-2.372-9.06,2.104-10.941,3.26
				C344.106,102.491,344.234,102.855,344.468,102.762L344.468,102.762z"/>
			<path style="fill:#333333;" d="M340.652,122.475c1.843-0.275,3.657-0.988,5.464-1.461c2.331-0.609,4.957-1.619,3.248,2.872
				c-1.64,4.313-5.499,8.135-8.253,11.739c-0.279,0.365,0.33,0.827,0.635,0.49c2.387-2.638,4.551-5.551,6.469-8.545
				c1.03-1.608,3.805-4.871,2.744-6.997c-0.69-1.382-1.693-1.155-2.954-0.861c-2.429,0.567-5.345,1.159-7.425,2.589
				C340.487,122.365,340.546,122.491,340.652,122.475L340.652,122.475z"/>
		</g>
		<g>
			<path style="fill:#333333;" d="M218.525,207.384l-0.479-0.144c0.08-0.269,8.372-26.771,40.994-33.955
				c-22.919-15.457-40.752-15.007-56.509-14.609c-13.265,0.338-24.729,0.625-35.492-9.371l0.34-0.366
				c10.612,9.857,21.98,9.57,35.14,9.238c15.939-0.403,34.002-0.859,57.286,15.023c0.083,0.057,0.124,0.157,0.104,0.255
				c-0.02,0.098-0.096,0.175-0.193,0.196C226.919,180.586,218.605,207.117,218.525,207.384z"/>
			<path style="fill:#333333;" d="M251.203,295.991l-0.16-0.474c15.369-5.18,25.58-14.418,30.35-27.459
				c12.649-34.581-16.059-84.805-21.941-94.522l0.428-0.259c5.904,9.751,34.711,60.157,21.983,94.953
				C277.038,281.42,266.723,290.76,251.203,295.991z"/>
		</g>
		<g>
			<path style="fill:#333333;" d="M310.067,253.116c0.058,0.603,0.085,1.41,0.67,1.734c0.132,0.073,0.272,0.023,0.356-0.093
				c0.369-0.507,0.087-1.227-0.1-1.766C310.83,252.523,310.013,252.555,310.067,253.116L310.067,253.116z"/>
			<path style="fill:#333333;" d="M308.231,258.662c-0.044,0.155-0.053,0.311-0.031,0.47c0.013,0.092,0.035,0.187,0.104,0.256
				c0.025,0.026,0.058,0.044,0.089,0.061c0.05,0.026,0.246,0.039,0.268,0.063c0.027,0.031,0.07-0.014,0.045-0.045
				c-0.013-0.015,0.08-0.171,0.09-0.21c0.021-0.077,0-0.147-0.013-0.223c-0.012-0.075-0.013-0.145,0.004-0.22
				C308.87,258.454,308.332,258.303,308.231,258.662L308.231,258.662z"/>
			<path style="fill:#333333;" d="M311.49,259.782c0.068,0.203,0.153,0.393,0.247,0.586c0.068,0.138,0.258,0.186,0.391,0.128
				c0.149-0.066,0.212-0.212,0.181-0.369c-0.035-0.183-0.075-0.357-0.134-0.533c-0.059-0.176-0.247-0.309-0.437-0.248
				C311.563,259.402,311.427,259.593,311.49,259.782L311.49,259.782z"/>
			<path style="fill:#333333;" d="M309.077,265.677c-0.043,0.369-0.088,0.739-0.13,1.108c-0.042,0.375,0.004,0.64,0.105,1.003
				c0.045,0.161,0.284,0.203,0.366,0.048c0.18-0.339,0.283-0.586,0.325-0.972c0.043-0.396,0.081-0.792,0.121-1.188
				C309.916,265.171,309.135,265.181,309.077,265.677L309.077,265.677z"/>
			<path style="fill:#333333;" d="M237.646,364.884c-0.43,0.334-0.714,0.738-0.92,1.241c-0.059,0.144,0.153,0.201,0.231,0.098
				c0.27-0.358,0.621-0.692,0.982-0.957C238.221,365.06,237.925,364.668,237.646,364.884L237.646,364.884z"/>
			<path style="fill:#333333;" d="M232.451,369.336c-0.483,0.147-1.365,0.513-1.283,1.154c0.019,0.15,0.11,0.27,0.274,0.274
				c0.263,0.006,0.475-0.152,0.677-0.299c0.206-0.151,0.408-0.289,0.641-0.396C233.175,369.879,232.881,369.205,232.451,369.336
				L232.451,369.336z"/>
			<path style="fill:#333333;" d="M238.268,370.558c-0.773,0.52-1.894,1.35-1.907,2.386c-0.004,0.296,0.302,0.415,0.54,0.31
				c0.403-0.178,0.713-0.582,1.005-0.898c0.317-0.342,0.635-0.682,0.984-0.991C239.322,370.981,238.753,370.231,238.268,370.558
				L238.268,370.558z"/>
			<path style="fill:#333333;" d="M227.522,374.257c-0.218,0.234-0.438,0.467-0.645,0.711c-0.209,0.246-0.478,0.485-0.559,0.806
				c-0.071,0.283,0.193,0.591,0.493,0.493c0.321-0.105,0.533-0.367,0.768-0.597c0.229-0.224,0.445-0.458,0.664-0.692
				C228.69,374.499,227.971,373.776,227.522,374.257L227.522,374.257z"/>
			<path style="fill:#333333;" d="M280.659,168.837c0.293-0.283,0.637-0.481,1.01-0.64c0.34-0.145,0.804-0.178,1.055-0.47
				c0.133-0.155,0.176-0.422,0-0.572c-0.443-0.375-1.078-0.186-1.556,0.039c-0.503,0.237-0.892,0.655-1.188,1.118
				C279.711,168.734,280.312,169.173,280.659,168.837L280.659,168.837z"/>
			<path style="fill:#333333;" d="M288.017,166.084c0.367-0.114,0.72-0.258,1.07-0.415c0.314-0.141,0.688-0.337,0.851-0.653
				c0.131-0.255,0.018-0.554-0.261-0.64c-0.344-0.107-0.748,0.021-1.073,0.148c-0.358,0.14-0.707,0.292-1.045,0.474
				C286.97,165.314,287.371,166.285,288.017,166.084L288.017,166.084z"/>
			<path style="fill:#333333;" d="M293.561,160.348c0.348-0.172,0.695-0.343,1.042-0.518c0.352-0.177,0.091-0.659-0.252-0.598
				c-0.39,0.07-0.78,0.143-1.169,0.216c-0.293,0.055-0.424,0.415-0.319,0.664C292.982,160.396,293.296,160.479,293.561,160.348
				L293.561,160.348z"/>
			<path style="fill:#333333;" d="M286.82,172.553c0.285-0.138,0.573-0.273,0.854-0.42c0.257-0.135,0.598-0.314,0.725-0.584
				c0.098-0.209,0.036-0.536-0.237-0.584c-0.619-0.108-1.325,0.436-1.845,0.726C285.749,172.007,286.248,172.83,286.82,172.553
				L286.82,172.553z"/>
			<path style="fill:#333333;" d="M171.127,178.323c0.113,0.065,0.209,0.115,0.275,0.231c-0.015-0.112-0.029-0.223-0.044-0.335
				c-0.212,0.66,0.302,1.756,1.1,1.636c0.119-0.018,0.19-0.15,0.196-0.258c0.016-0.269-0.12-0.507-0.227-0.742
				c-0.109-0.24-0.16-0.5-0.274-0.741c-0.08-0.169-0.319-0.251-0.491-0.2c-0.127,0.037-0.227,0.01-0.354-0.022
				C171.053,177.828,170.891,178.188,171.127,178.323L171.127,178.323z"/>
			<path style="fill:#333333;" d="M177.382,178.231c0.076,0.363,0.202,0.861,0.542,1.061c0.239,0.14,0.586,0.015,0.651-0.265
				c0.092-0.395-0.171-0.82-0.389-1.134C177.901,177.483,177.277,177.731,177.382,178.231L177.382,178.231z"/>
			<path style="fill:#333333;" d="M177.189,184.818c0.101,0.158,0.201,0.304,0.329,0.442c0.134,0.146,0.271,0.327,0.492,0.308
				c-0.05-0.014-0.101-0.027-0.151-0.041c0.105,0.056,0.192,0.109,0.314,0.116c0.11,0.006,0.205-0.099,0.204-0.204
				c-0.001-0.12-0.057-0.215-0.107-0.322c0.014,0.05,0.027,0.101,0.041,0.151c0.029-0.216-0.159-0.366-0.295-0.504
				c-0.131-0.133-0.274-0.237-0.426-0.345C177.348,184.247,177.037,184.581,177.189,184.818L177.189,184.818z"/>
			<path style="fill:#333333;" d="M182.578,183.274c0.128,0.107,0.257,0.206,0.398,0.295c0.103,0.065,0.209,0.106,0.332,0.103
				c0.128-0.003,0.27-0.053,0.348-0.158c0.147-0.196,0.064-0.499-0.114-0.645c-0.134-0.11-0.271-0.212-0.42-0.301
				c-0.193-0.116-0.446-0.058-0.58,0.116C182.416,182.847,182.406,183.13,182.578,183.274L182.578,183.274z"/>
			<path style="fill:#333333;" d="M183,188.049c-0.006,0.4,0.165,0.764,0.427,1.059c0.13,0.147,0.296,0.297,0.484,0.361
				c0.191,0.065,0.398,0.057,0.579-0.045c0.134-0.076,0.185-0.234,0.154-0.378c-0.06-0.273-0.277-0.417-0.475-0.635
				c-0.146-0.161-0.258-0.378-0.357-0.582C183.617,187.423,183.007,187.641,183,188.049L183,188.049z"/>
			<path style="fill:#333333;" d="M191.079,183.948c0.364,0.214,0.71,0.476,1.152,0.421c0.129-0.016,0.275-0.133,0.217-0.285
				c-0.082-0.214-0.195-0.387-0.384-0.521c-0.178-0.126-0.372-0.231-0.558-0.344C191.039,182.937,190.61,183.673,191.079,183.948
				L191.079,183.948z"/>
		</g>
	</g>
	<g>
		<path style="fill:#333333;" d="M79.12,278.839c-0.045-4.654,2.8-8.903,7.2-10.552c4.697-1.761,7.728,0.99,12.215,1.392
			c4.8,0.431,9.191-2.408,12.351-5.76c5.059-5.366,8.518-11.789,14.353-16.502c4.014-3.242,9.241-6.988,14.518-4.721
			c4.393,1.886,6.678,6.392,8.085,10.706c1.326,4.067,1.786,12.719,6.399,14.945c1.105,0.533,2.043,0.627,3.158,0.086
			c0.66-0.32,0.864-0.915,1.375-1.329c3.152-2.555,6.704-3.834,9.931-0.546c2.235,2.277,5.301,10.953,1.023,11.982
			c-3.702,0.891-8.816,0.056-12.615,0.053c-8.032-0.007-16.063-0.078-24.094-0.166c-18.115-0.198-36.241-0.553-54.356-0.253
			c-0.854,0.014-0.857,1.336,0,1.329c31.242-0.238,62.482,0.665,93.722,0.28c0.344-0.004,0.637-0.288,0.636-0.636
			c-0.005-4.957-0.09-11.144-4.511-14.414c-3.471-2.568-6.619-1.856-9.79,0.35c-3.855,2.682-5.224,1.44-6.912-2.316
			c-0.904-2.012-1.293-4.336-1.873-6.454c-0.848-3.098-1.705-6.247-3.421-8.999c-2.41-3.865-6.375-7.048-11.15-6.553
			c-5.62,0.582-10.979,5.436-14.788,9.256c-5.778,5.796-9.434,15.361-17.745,17.971c-6.466,2.03-11.799-3.624-18.194-0.185
			c-4.146,2.23-6.581,6.358-6.43,11.037C78.225,279.425,79.126,279.429,79.12,278.839L79.12,278.839z"/>
		<path style="fill:#333333;" d="M416.929,293.274c-3.172-6.514-7.673-11.901-15.532-10.956c-6.279,0.756-11.265,2.518-15.431-3.66
			c-1.761-2.612-3.161-5.389-5.876-7.159c-5.258-3.428-12.643-2.316-17.485,1.305c-6.235,4.662-8.593,12.544-9.377,19.953
			c-0.036,0.341,0.314,0.612,0.621,0.621c20.936,0.604,41.881,0.828,62.825,0.693c0.832-0.005,0.834-1.299,0-1.294
			c-13.744,0.089-27.489,0.042-41.232-0.174c-3.272-0.051-6.544-0.112-9.816-0.181c-1.841-0.039-8.448,0.854-9.814-0.233
			c-2.102-1.673-0.193-6.338,0.51-8.308c1.31-3.671,3.364-7.077,6.384-9.578c4.871-4.035,12.601-5.24,17.738-0.993
			c3.288,2.718,4.41,7.438,8.005,9.841c3.144,2.102,6.628,1.389,10.097,0.777c4.461-0.787,8.113-1.228,11.91,1.81
			c2.608,2.086,4.361,4.947,5.963,7.836C416.605,293.908,417.094,293.612,416.929,293.274L416.929,293.274z"/>
	</g>
	<g>
		<path style="fill:#333333;" d="M287.39,359.729c25.809,6.964,51.312,12.83,78.163,13.418c27.708,0.607,55.243-2.761,82.697-6.068
			c0.306-0.037,0.311-0.521,0-0.485c-26.786,3.093-53.747,6.097-80.754,5.569c-27.408-0.536-53.466-6.425-79.808-13.512
			C286.992,358.464,286.695,359.542,287.39,359.729L287.39,359.729z"/>
		<path style="fill:#333333;" d="M51.785,341.507c57.094-10.161,114.487-7.395,171.311,3.24c0.703,0.132,1.005-0.947,0.297-1.078
			c-56.15-10.431-115.476-14.95-171.677-2.413C51.55,341.293,51.622,341.536,51.785,341.507L51.785,341.507z"/>
	</g>
	<g>
		<g>
			<path style="fill:#333333;" d="M106.795,409.016c8.472-3.256,15.652-9.758,20.385-17.441c2.85-4.627,4.283-9.83,6.805-14.609
				c3.09-5.855,7.76-10.266,12.259-14.992c0.354-0.372-0.174-0.882-0.557-0.557c-3.687,3.13-7.051,6.793-9.83,10.758
				c-3.111,4.439-4.646,9.325-6.876,14.196c-4.649,10.153-12.602,17.199-22.277,22.427
				C106.587,408.86,106.667,409.065,106.795,409.016L106.795,409.016z"/>
			<path style="fill:#333333;" d="M138.089,369.713c-1.484,4.281-0.627,8.412-0.224,12.812c0.572,6.243-1.067,12.084-3.063,17.932
				c-1.791,5.248-3.952,10.088-8.821,13.146c-1.368,0.859-2.802,1.549-4.091,2.539c-0.555,0.426-2.061,2.294-2.776,2.511
				c-0.556,0.777-0.703,0.712-0.439-0.195c0.083-1.223,0.497-2.357,1.241-3.402c0.203-0.403-0.204-0.805-0.606-0.606
				c-7.863,3.9-16.802,4.441-24.726,8.113c-2.056,0.953-4.188,3.478-4.922,0.151c-0.629-2.854,1.004-7.073,2.234-9.591
				c2.487-5.089,6.626-9.063,10.913-12.642c0.236-0.197,0.109-0.635-0.184-0.696c-0.586-0.165-1.18-0.286-1.781-0.364
				c-1.843,0.443-2.223-0.041-1.139-1.454c0.351-1.654,4.442-3.64,5.907-4.629c2.777-1.876,5.56-3.71,8.135-5.866
				c7.39-6.188,13.387-17.17,24.214-16.747c0.449,0.018,0.446-0.675,0-0.696c-8.786-0.422-14.034,6.284-19.623,12.016
				c-6.413,6.578-15.583,10.378-21.203,17.613c-0.203,0.262-0.117,0.81,0.315,0.762c0.926-0.386,1.787-0.323,2.583,0.187
				c1.357,0.261,1.229,0.761-0.385,1.499c-0.888,1.249-2.57,2.43-3.608,3.585c-1.719,1.914-3.258,3.986-4.47,6.259
				c-2.38,4.465-3.215,9.229-2.347,14.217c0.046,0.266,0.433,0.425,0.652,0.265c5.878-4.292,12.829-5.614,19.712-7.47
				c2.253-0.608,5.2-2.31,7.415-2.429c4.18-0.226,1.018-0.997,1.437-0.461c0.007,0.009-0.965,3.985-1.03,4.529
				c-0.05,0.414,0.537,0.601,0.798,0.331c3.434-3.558,7.863-5.431,11.352-8.762c2.672-2.551,4.236-5.982,5.51-9.392
				c1.66-4.445,3.263-9.163,3.809-13.895c0.738-6.393-1.624-12.629-0.058-18.968C138.939,369.436,138.248,369.254,138.089,369.713
				L138.089,369.713z"/>
			<path style="fill:#333333;" d="M107.851,400.24c3.638-0.59,7.386-2.006,11.115-1.806c2.498,0.134,3.111,1.458,3.412,3.738
				c0.287,2.176,0.098,4.288-0.456,6.41c-0.087,0.333,0.418,0.472,0.515,0.142c0.644-2.18,0.931-4.381,0.66-6.65
				c-0.132-1.11-0.302-3.571-1.337-4.316c-1.29-0.929-4.642-0.153-6.013,0.03c-2.76,0.368-5.502,0.979-7.927,2.382
				C107.78,400.193,107.809,400.247,107.851,400.24L107.851,400.24z"/>
			<path style="fill:#333333;" d="M120.232,387.297c2.585-0.124,6.182-1.854,8.503-0.378c2.429,1.545,2.259,5.983,2.711,8.583
				c0.007,0.038,0.066,0.035,0.075,0c0.444-1.745,0.275-3.38-0.159-5.12c-0.274-1.096-0.842-3.75-1.856-4.462
				c-0.933-0.655-2.85-0.273-3.889-0.178c-1.849,0.169-3.831,0.467-5.398,1.51C120.201,387.263,120.207,387.298,120.232,387.297
				L120.232,387.297z"/>
		</g>
		<g>
			<path style="fill:#333333;" d="M362.629,414.616c-15.967,0.109-33.149-6.46-44.411-18.105c-0.422-0.437-1.089,0.23-0.666,0.666
				c5.982,6.175,13.863,10.591,21.746,13.849c6.563,2.712,16.226,6.344,23.347,3.714
				C362.71,414.716,362.704,414.615,362.629,414.616L362.629,414.616z"/>
			<path style="fill:#333333;" d="M326.071,404.981c2.983,11.712,14.676,17.748,25.902,19.255
				c9.986,1.341,25.344-3.967,28.386-14.716c0.079-0.28-0.152-0.659-0.474-0.623c-6.216,0.694-10.35-3.655-15.533-6.153
				c-3.849-1.855-8.047-2.836-12.266-3.387c-8.861-1.156-18.124-0.672-25.67,4.548c-0.443,0.306-0.026,1.035,0.426,0.729
				c8.466-5.743,19.546-5.715,29.235-3.59c4.907,1.076,9.017,3.228,13.256,5.818c1.375,0.84,2.769,1.697,4.28,2.276
				c1.361,0.521,4.524,0.676,4.832,1.75c1.04,3.626-7.926,8.237-10.532,9.523c-5.953,2.939-11.746,3.674-18.254,2.439
				c-10.271-1.949-19.603-7.749-23.03-18.022C326.51,404.478,325.979,404.619,326.071,404.981L326.071,404.981z"/>
			<path style="fill:#333333;" d="M348.492,406.242c-1.744,0.787-3.428,1.665-5.244,2.289c-1.62,0.557-3.343,0.75-4.944,1.317
				c-0.301,0.107-0.26,0.557,0.077,0.566c3.396,0.095,7.677-1.842,10.294-3.935C348.819,406.365,348.635,406.178,348.492,406.242
				L348.492,406.242z"/>
			<path style="fill:#333333;" d="M356.784,419.559c-1.655-0.71-3.256-1.222-4.771-2.245c-1.65-1.115-2.944-2.579-4.507-3.779
				c-0.256-0.196-0.595,0.181-0.433,0.433c1.118,1.737,3.045,3.126,4.782,4.211c1.415,0.884,3.212,1.811,4.919,1.463
				C356.809,419.635,356.82,419.575,356.784,419.559L356.784,419.559z"/>
		</g>
	</g>
</g>
</svg>
