<?xml version="1.0" encoding="utf-8"?>
<!-- Generator: Adobe Illustrator 27.5.0, SVG Export Plug-In . SVG Version: 6.00 Build 0)  -->
<svg xmlns="http://www.w3.org/2000/svg" xmlns:xlink="http://www.w3.org/1999/xlink" viewBox="0 0 3000 3000" width="595" height="842" preserveAspectRatio="xMidYMid meet" data-scaled="true">
<path d="M1076,2022"/>
<g>
	<path d="M1028.088,458.285c-1.336-10.281-3.15-20.675-3.938-31.141c-1.233-16.365,6.086-30.181,22.331-33.866
		c41.226-9.352,56.054-39.839,67.347-73.924c4.175-12.6,7.14-25.607,11.868-37.994c2.526-6.616,6.258-14.443,11.925-17.867
		c6.905-4.173,17.299-7.181,24.483-5.121c4.584,1.315,8.423,12.693,8.536,19.622c0.35,21.478-3.592,43.218-1.352,64.409
		c1.86,17.598,8.346,35.326,15.889,51.648c15.823,34.237,11.559,65.396-12.704,93.421c-10.776,12.448-23.783,23.938-37.886,32.66
		c-41.418,25.615-50.833,63.403-46.15,106.925c2.318,21.546,6.474,42.906,9.799,64.35c1.8,0.606,3.601,1.213,5.401,1.819
		c7.98-7.204,16.168-14.204,23.905-21.645c50.77-48.821,91.742-105.284,133.159-161.359c3.023-4.092,4.504-10.439,4.075-15.529
		c-1.529-18.109,3.718-33.727,16.923-46.283c28.887-27.468,58.21-54.505,87.402-81.671c0.592-0.55,1.762-0.516,6.607-1.799
		c-1.542,5.577-1.372,10.432-3.794,12.864c-21.223,21.32-42.461,42.665-64.627,63.051c-13.087,12.036-31.479,22.952-29.157,41.441
		c3.37,26.823-14.748,41.656-27.524,59.553c-17.933,25.121-37.523,49.131-57.525,75.071c18.172-3.261,34.42-6.82,50.861-9.018
		c84.615-11.314,168.984-12.569,253.946-0.178c81.245,11.85,159.706,31.584,234.158,65.05
		c76.287,34.29,144.05,81.472,208.663,133.179c57.115,45.708,112.745,93.398,172.21,136.048
		c75.684,54.283,158.209,97.442,247.427,128.293c42.009,14.526,78.961,38.515,112.906,66.801c5.756,4.796,14.534,6.592,22.229,8.691
		c9.942,2.711,20.271,4.054,30.307,6.482c19.983,4.834,27.055-0.72,20.867-19.813c-8.031-24.781-17.046-49.547-28.692-72.888
		c-30.544-61.215-81.037-105.234-138.313-141.972c-126.176-80.931-254.139-159.425-388.895-226.13
		c-75.767-37.505-155.959-66.7-234.576-98.671c-44.901-18.26-89.322-36.986-127.94-66.42
		c-44.585-33.982-57.754-78.949-37.838-130.742c1.409-3.664,6.247-6.089,9.491-9.089c0.32,4.28,1.99,8.972,0.755,12.778
		c-16.866,51.99-6.512,90.691,51.932,130.255c52.252,35.373,112.889,54.468,171.776,76.908
		c113.109,43.102,221.604,95.283,324.354,158.567c80.371,49.501,161.899,97.243,242.113,146.978
		c58.529,36.29,108.395,81.813,138.385,143.639c15.072,31.071,24.534,64.698,37.879,100.815
		c113.898,12.886,232.475,26.302,353.861,40.036c-3.967,3.248-6.154,5.905-9,7.239c-40.462,18.956-76.073,43.505-104.373,78.152
		c-22.311,27.314-51.668,47.396-84.346,61.245c-84.199,35.685-140.079,98.547-183.895,174.102
		c-23.321,40.214-34.854,83.537-40.135,128.838c-1.031,8.841-3.974,14.161-14.863,13.912c-18.34-0.418-36.779-0.179-55.035,1.353
		c-6.102,0.512-13.991,4.382-17.299,9.164c-31.808,45.981-80.245,62.027-132.939,68.445c-21.675,2.64-44.175-0.79-66.277-1.895
		c-8.843-0.442-15.153,0.131-21.188,8.844c-25.11,36.247-62.886,51.664-106.194,53.814c-47.133,2.34-94.409,1.825-141.594,3.362
		c-20.65,0.673-41.23,3.351-60.207,4.978c7.711,6.146,19.387,11.241,23.312,19.711c4.323,9.328,3.878,22.303,1.312,32.717
		c-4.592,18.632-18.377,31.403-37.083,40.232c14.09,13.08,17.367,28.392,13.415,45.665c-2.17,9.483,2.906,14.657,11.965,17.007
		c22.721,5.895,45.531,11.49,68.127,17.807c49.019,13.706,93.333,36.624,134.579,67.165c12.464-58.374,4.445-110.507-38.287-155.567
		c-2.547,14.427-4.188,29.619-20.131,34.297c2.552-16.937,6.94-32.959,6.947-48.982c0.014-28.338-23.874-48.209-54.239-47.707
		c-25.989,0.429-46.309,21.415-47.828,48.306c-1.46,25.839,10.763,41.342,38.23,47.018c-16.536,7.024-34.152,0.059-42.276-14.932
		c-12.835-23.682-3.499-64.388,18.297-79.777c24.054-16.984,61.871-14.104,81.778,9.554c17.176,20.412,30.106,44.14,45.501,66.013
		c24.822,35.267,34.868,73.342,26.557,115.822c-1.817,9.285-0.815,19.264,0.153,28.802c0.406,3.995,3.124,9.037,6.456,11.294
		c49.134,33.298,74.294,81.431,90.279,135.41c0.464,1.567,1.921,2.857,3.694,5.388c8.797-49.057,16.994-96.945,38.331-141.117
		c29.995-62.098,76.847-105.508,147.926-120.946c15.088-3.277,30.282-7.04,44.57-12.636c26.268-10.288,52.9-10.172,80.174-6.429
		c42.79,5.872,85.543,3.032,127.979-2.82c37.623-5.188,70.336-21.81,100.031-44.625c7.629-5.862,17.196-9.352,25.873-13.931
		c1.186,1.39,2.372,2.779,3.558,4.169c-17.234,28.539-34.046,57.328-51.809,85.554c-22.771,36.185-50.03,70.373-56.634,113.813
		c-2.552,16.791-1.651,34.098-1.994,51.177c-0.934,46.481-14.781,88.513-48.213,122.548c-19.832,20.19-42.265,37.958-63.054,57.294
		c-9.492,8.828-19.016,18.029-26.42,28.464c-10.243,14.436-26.475,29.484-0.314,48.64c-17.785,9.006-32.533,16.576-47.375,23.97
		c-37.659,18.763-75.875,36.552-112.845,56.509c-21.296,11.496-42.542,21.509-66.973,23.867
		c-23.524,2.271-30.397,21.294-41.645,36.6c24.309,12.508,48.382,10.991,64.959-7.635c10.486-11.781,21.813-22.856,32.398-34.558
		c7.731-8.548,15.972-12.721,26.966-5.665c10.9,6.996,12.667,16.078,6.676,28.513c-3.505,7.275-14.126,14.749-0.604,23.815
		c11.941-6.402,23.848-13.613,36.451-19.398c48.712-22.361,100.604-29.9,153.995-29.893c1.884,0,4.161-0.348,5.58,0.512
		c4.868,2.948,9.436,6.363,14.119,9.6c-4.213,3.151-7.979,8.028-12.71,9.182c-42.629,10.394-62.998,40.541-75.015,78.217
		c-1.634,5.123-2.788,10.83-2.252,16.084c1.874,18.395-7.769,30.51-22.217,39.938c-25.985,16.957-53.617,28.511-86.118,23.152
		c-4.567-0.753-9.38-0.104-17.349,2.831c8.516,10.182,16.249,21.123,25.746,30.357c12.147,11.81,12.796,15.796-2.266,24.248
		c-29.193,16.38-59.874,17.349-91.254,6.213c-3.924-1.393-7.877-2.708-11.739-4.033c-14.809,27.552-42.063,40.124-75.452,34.837
		c-14.384-2.278-28.688-5.024-42.949-7.544c-6.275,19.107-11.285,23.477-32.347,22.367c-48.29-2.544-89.701-22.047-126.652-51.249
		c-10.961-8.662-21.271-18.099-33.684-28.727c-13.077,7.227-26.814,14.804-40.537,22.405
		c-40.634,22.506-76.318,53.816-122.374,66.586c-23.896,6.626-48.554,12.415-73.34-0.475c-14.006,12.416-29.474,12.963-46.002,3.293
		c-13.838,13.446-31.863,8.43-47.765,7.036c-58.652-5.143-117.034-12.412-173.758-29.14c-13.765-4.059-25.904-13.842-42.658-10.023
		c-5.436,1.239-14.773-6.016-19.646-11.589c-10.992-12.569-21.661-20.559-40.815-21.61c-32.526-1.784-58.074-21.866-84.047-39.42
		c-4.924-3.328-12.316-3.16-18.517-4.792c-9.637-2.535-20.438-3.331-28.611-8.219c-22.842-13.661-43.988-29.999-66.903-43.53
		c-38.568-22.773-77.911-44.318-117.099-66.091c-8.918-4.955-14.036-9.639-6.564-15.894c30.258,16.862,59.538,32.674,88.281,49.354
		c23.702,13.755,46.768,28.538,69.305,42.368c-15.707-32.93-76.132-103.856-113.198-132.139c0.621,6.201,1.195,11.925,1.924,19.196
		c-7.578-6.522-13.702-11.793-20.187-17.375c-3.328,7.528-6.11,13.821-10.075,22.791c-5.065-5.525-8.232-9.114-11.547-12.569
		c-8.641-9.008-16.816-18.541-26.281-26.655c-3.989-3.419-12.985-6.786-15.741-4.856c-4.21,2.947-5.894,10.351-6.964,16.155
		c-1.121,6.081-0.25,12.507-0.25,21.137c-24.469-8.245-46.843-15.784-71.664-24.148c5.675,13.225,10.369,24.161,15.978,37.232
		c-7.034,0.731-11.921,1.863-16.741,1.638c-30.894-1.443-59.401,8.25-87.867,17.748c-5.194,1.733-9.314,6.492-18.179,12.95
		c26.752,4.205,35.191,21.13,45.489,37.607c13.528,21.643,37.54,25.626,61.471,28.137c66.97,7.026,133.997,13.615,200.858,21.519
		c27.949,3.304,56.229,7.237,83.1,14.985c29.226,8.428,57.002,21.591,85.382,32.756c7.39,2.907,7.719,7.49,2.373,12.573
		c-2.307,2.194-5.126,4.677-8.098,5.299c-37.992,7.957-75.179,21.158-115.069,17.181c-1.877-0.187-4.397,0.597-5.577-0.324
		c-23.241-18.144-48.519-3.937-72.793-4.251c-20.132-0.26-40.284,1.243-60.43,1.318c-2.206,0.008-4.43-4.249-5.407-5.254
		c-31.094,7.418-61.991,15.101-93.07,22.012c-9.308,2.07-19.087,1.894-22.715-9.299c-18.218,21.981-43.437,29.5-70.058,31.148
		c-21.076,1.304-42.499-0.936-63.642-2.888c-19.997-1.846-19.925-2.583-25.185-25.271c-25.508,5.542-50.74,13.58-76.501,15.762
		c-18.534,1.57-37.924-3.997-56.584-7.935c-4.314-0.911-7.203-8.169-10.748-12.507c4.401-1.708,8.656-4.192,13.227-5
		c35.161-6.218,62.737-26.49,89.472-47.085c29.944-23.065,57.35-49.264,94.317-68.346c-9.772-1.263-17.209-2.327-24.672-3.172
		c-29.325-3.32-58.73-6.082-87.955-10.078c-12.334-1.687-20.516,0.225-28.973,10.531c-11.52,14.037-26.423,25.448-39.677,38.179
		c-3.593,3.451-6.798,7.391-9.615,11.473c-9.163,13.282-17.297,27.297-27.22,40.009c-23.356,29.919-58.388,40.234-93.35,50.319
		c-15.747,4.542-31.478,9.144-47.293,13.459c-63.55,17.339-128.196,25.144-194.147,19.458
		c-74.585-6.43-125.456-47.971-163.361-106.85c-12.187-18.931-21.614-39.668-30.931-60.166
		c-14.232-31.312-13.303-64.483-7.781-97.185c10.132-59.996,45.846-105.983,89.331-147.348
		c41.705-39.672,90.319-69.066,144.219-90.107c19.536-7.626,40.129-13.091,60.654-17.872c37.482-8.733,36.538-36.717,20.285-59.17
		c-62.081-85.764-111.604-177.825-148.889-276.354c-21.096-55.747-47.77-109.522-68.552-165.367
		c-15.28-41.062-29.078-83.424-36.111-126.351c-6.159-37.591-2.522-76.779-2.23-115.254c0.459-60.49,0.715-121.012,3.036-181.449
		c1.578-41.101,6.928-82.055,9.8-123.127c1.209-17.295,0.696-34.729,0.414-52.091c-0.769-47.187-2.008-94.367-2.509-141.556
		c-0.05-4.747,3.67-9.531,5.64-14.297c4.312,2.695,9.508,4.623,12.805,8.197c67.894,73.597,98.771,164.184,123.096,257.182
		c28.612,109.387,78.07,209.856,140.024,304.161c39.511,60.144,96.858,104.534,160.749,140.185
		c13.089,7.303,26.375,14.296,39.248,21.94c31.794,18.879,66.47,27.354,103.484,28.107c4.095,0.083,8.159,1.603,12.638,2.54
		c-27.435-52.393-21.902-104.712-3.427-157.383c6.053-17.258,15.276-33.117,8.139-53.6c-13.638-39.141-57.553-65.218-98.918-55.543
		c-9.142,2.138-18.114,4.992-27.298,6.922c-24.168,5.078-37.842-6.645-36.447-30.471c0.608-10.378,2.189-21.177,0.087-31.142
		c-7.31-34.647-35.956-48.613-69.334-34.5c-8.449,3.573-16.189,8.721-28.473,15.46c13.401,5.301,22.451,9.264,31.771,12.497
		c28.867,10.013,39.08,33.81,24.051,59.912c-6.3,10.942-14.568,21.439-24.092,29.849c-10.276,9.075-21.909,7.307-30.23-1.399
		c-22.118-23.141-24.073-87.737-2.511-110.656c16.832-17.892,39.368-24.221,63.169-20.498c22.343,3.495,39.203,16.854,44.721,39.04
		c2.802,11.265,2.432,23.581,1.655,35.307c-1.616,24.411,6.514,31.158,31.71,25.454c12.316-2.788,24.83-4.825,37.322-6.8
		c36.336-5.745,84.91,25.801,96.464,67.79c0.214,0.777,0.813,1.454,2.023,3.54c7.082-19.068,26.619-30.926,25.199-53.575
		c-0.513-8.18,4.603-16.626,6.782-25.04c9.073-35.039,33.177-41.261,68.299-35.266c53.341,9.104,64.622,50.837,48.941,98.345
		c-11.823,35.819-49.637,55.393-84.851,45.974c-23.221-6.211-31.485-24.313-38.01-43.938c-0.806-2.423-1.304-4.942-2.473-9.453
		c-25.124,45.632-47.385,89.678-51.551,140.44c-2.798,34.093,18.642,99.541,65.096,115.598c28.851,9.973,54.327,3.497,71.363-21.833
		c6.636-9.867,13.144-19.815,19.711-29.725c1.447-0.064,2.895-0.128,4.342-0.192c2.284,7.292,6.327,14.537,6.536,21.885
		c0.765,26.933-0.552,53.928,0.424,80.848c1.314,36.258,10.567,70.935,32.5,100.622c28.766,38.935,59.994,76.154,89.246,114.763
		c12.796,16.889,23.511,35.282,34.823,53.199c12.141,19.229,27.656,26.57,42.621,19.596c17.407-8.112,28.501-34.063,21.552-51.271
		c-8.057-19.951-16.005-39.973-25.086-59.489c-2.67-5.739-8.322-10.86-13.836-14.53c-12.18-8.106-20.223-18.681-20.237-32.837
		c-0.02-19.116-0.105-38.591,3.549-57.229c2.63-13.416,1.521-21.72-11.971-26.874c-3.006-1.149-5.636-3.223-8.323-4.802
		c-47.381,26.509-71.627-15.172-70.096-53.544c1.579-39.599,21.121-68.874,62.922-81.956c29.206-9.14,57.478-13.678,87.449,1.404
		c23.317-66.299,51.007-129.197,87.954-187.783c36.738-58.255,77.867-113.098,137.904-152.009c-0.587-1.058-1.174-2.116-1.761-3.174
		c-10.482,1.075-20.942,2.433-31.449,3.171c-29.602,2.078-59.208,5.215-88.841,5.532c-50.953,0.546-101.999,0.723-152.87-1.662
		c-47.044-2.206-94.04-6.939-140.813-12.493c-39.162-4.651-78.185-11.058-116.889-18.537
		c-63.104-12.194-126.15-24.873-188.727-39.352c-36.278-8.394-71.198-21.645-98.815-47.679
		c-26.425-24.91-34.787-55.314-28.983-90.347c8.482-51.196,34.915-93.208,70.038-130.738c20.237-21.624,41.539-42.312,62.389-63.45
		c-34.934-16.677-57.365-44.271-63.444-85.867c-19.849,19.577-43.311,29.105-68.568,34.708c-21.68,4.81-43.445,5.469-62.14-8.435
		c-28.008-20.83-29.331-52.818-2.887-83.281c-28.96-0.867-38.862-20.373-46.612-42.137c-17.066-47.924-40.035-92.798-72.995-132.531
		c-2.869-3.458-4.401-7.959-7.821-14.337c48.105,22.066,92.983,42.652,138.268,63.425c4.75-11.966,9.094-24.936,14.931-37.241
		c18.48-38.952,52.606-54.252,94.353-39.807c25.616,8.863,50.095,21.199,74.251,33.513c18.317,9.338,27.851,26.271,24.683,45.842
		c-5.66,34.972-11.429,70.343-22.422,103.926c-6.084,18.585-21.66,34.855-35.124,50.405c-15.07,17.404-18.763,35.987-7.484,56.04
		c11.281,20.058,28.333,34.126,49.243,43.735c3.471,1.595,10.233,0.475,13.386-1.947c20.672-15.875,40.184-33.202,61.183-48.638
		c38.699-28.449,78.23-55.832,117.26-83.861c10.56-7.583,20.567-15.891,28.326-21.922c-18.465-25.451-36.224-49.93-54.646-75.323
		c33.212-2.475,63.417-4.06,93.459-7.141c34.498-3.537,68.509-2.632,102.135,5.987c4.457,1.142,8.798,2.709,16.276,5.041
		c-8.218-12.82-16.089-23.217-21.96-34.585c-25.594-49.554-72.063-70.665-123.37-82.894
		c-68.452-16.316-137.711-29.421-206.441-44.678c-31.748-7.048-62.21-17.794-89.936-35.101c-17.14-10.7-19.698-15.479-15.838-35.091
		c1.198-6.089,1.479-12.348,2.28-19.414c-34.004,2.165-62.854,14.55-92.315,25.03c-11.384,4.049-23.18,7.67-35.11,9.426
		c-11.667,1.717-15.193-5.02-11.281-15.424c12.106-32.197,18.451-65.611,14.835-99.563c-2.436-22.874-9.6-45.355-15.591-67.775
		c-9.094-34.034-18.659-67.96-28.824-101.706c-2.413-8.01-8-15.122-12.128-22.646c-1.669-0.085-3.337-0.17-5.006-0.255
		c3.596-1.972,6.962-4.722,10.824-5.794c31.777-8.816,63.779-9.322,96.555-4.743c46.477,6.493,85.399,26.607,120.952,55.341
		c25.989,21.004,55.767,26.675,88.843,16.193c16.918-5.362,34.595-9.29,52.244-11.449c18.551-2.269,32.731,6.452,41.681,22.584
		c3.129,5.64,6.385,11.216,9.422,16.902c7.453,13.952,14.947,24.871,35.277,24.492c20.463-0.381,32.889,17.557,35.443,45.831
		c2.056,22.766,2.513,45.698,2.905,68.569c0.64,37.316,7.485,73.23,21.218,108.243c12.076,30.787,37.05,51.307,58.516,74.86
		c13.007,14.272,24.761,29.678,36.363,45.081c20.257,26.893,39.251,54.715,60.338,80.967c6.225,7.75,17.652,11.619,26.809,17.087
		c4.005,2.392,8.473,4.066,12.427,6.525c13.998,8.708,16.036,17.549,3.793,28.703c-8.553,7.792-19.632,14.267-30.773,17.814
		c-19.126,6.088-39.188,9.41-58.845,13.944c-2.695,0.622-6.613,0.718-7.772,2.443c-10.188,15.169-21.263,30.015-29.211,46.273
		c-4.975,10.176,0.916,20.592,10.403,27.502c24.621,17.934,57.774,11.715,73.61-14.029c5.046-8.203,9.55-16.9,12.904-25.862
		c8.385-22.406,17.468-44.031,33.113-63.174c11.803-14.442,15.429-30.991,3.406-49.086c-11.762-17.702-16.183-37.789-11.025-59.223
		c0.902-3.75-0.398-9.63-3.057-12.31c-48.725-49.101-79.196-107.453-95.633-173.323c-3.533-14.156-9.051-27.943-14.761-41.462
		c-4.516-10.692-1.064-18.326,8.198-23.059C1002.916,467.873,1015.235,463.61,1028.088,458.285z M1763.053,1817.874
		c-2.491-0.435-5.461-1.946-7.397-1.135c-17.029,7.138-32.348,17.386-35.988,35.856c-5.728,29.063-12.767,58.628-12.391,87.897
		c0.507,39.44,7.292,38.049,43.107,51.49c10.679-9.321,21.177-18.485,33.602-29.33c-8.412,0-14.02-0.483-19.508,0.099
		c-12.171,1.291-19.295-4.11-24.266-14.492c-17.635-36.833-6.412-101.044,23.207-130.614c-0.546,1.634-1.093,3.268-0.346,1.036
		c27.656-6.926,56.517-16.721,86.219-20.909c32.971-4.649,66.696-4.479,100.116-5.871c50.823-2.117,101.798-2.189,152.455-6.165
		c34.984-2.745,63.803-19.273,83.575-51.123c-23.333-3.51-45.197-5.763-66.577-10.207c-67.299-13.989-134.617-26.121-204.079-20.875
		c-37.474,2.83-69.438,15.109-93.381,44.049c-13.545,16.371-26.849,32.929-40.361,49.326
		C1775.226,1803.961,1769.156,1810.821,1763.053,1817.874z M1135.893,1873.092c4.636,0.299,9.285,0.982,13.905,0.83
		c20.139-0.658,40.466-3.629,60.356-1.861c26.419,2.349,52.003,9.726,71.698,28.822c18.19,17.636,21.309,41.352,9.252,63.029
		c-12.996,23.365-40.35,32.874-59.949,26.877c-23.913-7.317-46.285-6.192-69.215-0.524c-5.13,1.268-12.198,6.787-12.921,11.19
		c-3.161,19.258-4.19,38.837-6.235,58.276c-1.71,16.246-2.22,32.805-6.005,48.608c-6.134,25.608-29.05,35.139-53.636,24.42
		c-16.474-7.183-24.889-20.993-34.655-34.752c-26.72-37.646-55.155-74.148-82.911-111.104c-5.586,30.082-6.83,57.899-10.875,85.328
		c-8.418,57.083-8.077,113.778,3.795,170.31c16.314,77.685,58.317,140.804,118.03,193.552c25.05,22.128,50.962,43.342,76.588,64.853
		c1.388,1.165,3.761,1.229,9.413,2.931c-5.498-13.44-8.192-24.829-14.285-34.125c-33.362-50.893-47.631-107.524-50.212-166.479
		c-1.406-32.11,4.388-64.623,8.176-96.817c6.111-51.946,28.764-96.391,73.491-126.256c42.085-28.101,84.155-57.45,137.33-69.716
		c0-66.828,0-133.196,0-199.954c-22.583,19.007-44.065,19.217-63.753-1.227c-7.355-7.637-12.171-18.468-15.522-28.653
		c-7.64-23.223-0.505-49.53,14.766-60.644c17.78-12.94,43.483-13.018,63.734,0.101c4.34,2.812,8.056,6.529,12.427,10.133
		c12.717-107.471,25.286-213.689,38.154-322.432c-12.104,10.087-22.434,18.013-31.968,26.755
		c-48.125,44.129-87.547,95.071-117.561,151.961c-24.209,45.889-43.844,94.051-65.346,141.274
		c-6.136,13.475-4.663,22.643,10.688,31.843c31.871,19.099,40.39,60.245,21.919,89.193c-11.241,17.617-30.072,20.444-48.337,24.638
		c-9.991,2.288-20.144,4.064-29.936,6.977c-16.819,5.003-21.595,13.638-18.604,32.779
		C1103.993,1899.654,1119.943,1886.373,1135.893,1873.092z M1117.338,703.064c25.735-12.625,51.716-15.082,78.579-14.494
		c49.339,1.08,97.501,9.349,144.877,22.06c19.852,5.326,39.511,11.635,58.693,18.898c12.393,4.693,16.151,14.448,13.662,27.918
		c-4.354,23.572-18.865,36.593-41.247,43.963c-8.184,2.695-17.452,6.196-22.896,12.177c-35.472,38.97-70.162,45.548-115.957,19.582
		c-7.814-4.431-11.949-2.276-18.656,1.404c-7.819,4.29-17.9,9.058-25.897,7.666c-11.816-2.056-23.177-8.525-33.761-14.684
		c-9.263-5.391-18.24-6.9-25.952-0.102c-18.577,16.377-34.824,34.358-43.307,58.332c-5.451,15.406-12.33,31.096-22.237,44.016
		c-7.575,9.879-19.877,18.263-31.887,22.617c-21.88,7.93-42.442,0.716-60.633-12.761c-8.817,26.796-23.482,49.099-48.703,63.698
		c-13.21,7.647-20.155,4.874-23.407-9.528c-4.831-21.397-9.125-42.907-13.844-64.329c-5.213-23.663-1.361-44.578,17.378-58.995
		c-6.444-10.344-12.441-19.97-18.527-29.739c-72.253,50.392-145.944,99.999-213.762,159.192c5.179,2.222,8.073,3.711,11.134,4.724
		c5.801,1.921,11.583,4.174,17.572,5.239c64.5,11.471,128.77,22.994,195.043,12.078c55.702-9.174,112.074-14.494,167.837-23.364
		c63.109-10.038,125.615-23.825,188.862-32.804c52.182-7.408,104.972-11.746,157.657-14.672
		c98.862-5.49,197.339,3.086,295.555,12.751c79.273,7.801,158.312,17.891,237.388,27.481c37.354,4.53,74.806,8.98,111.759,15.784
		c47.153,8.681,93.834,19.76,140.741,29.706c52.9,11.217,106.625,20.349,154.876,45.664c30.988,16.258,60.455,35.229,90.756,52.736
		c5.647,3.263,12.017,5.351,18.053,7.981c0.569-1.139,1.138-2.278,1.707-3.418c-36.207-29.642-76.705-52.939-121.198-68.262
		c-89.694-30.889-171.183-76.382-246.587-131.402c-64.715-47.221-125.228-99.816-188.551-148.88
		c-73.658-57.072-152.916-105.25-242.682-135.335c-68.358-22.911-138.8-35.716-210.817-42.217
		c-89.081-8.041-177.058-5.142-263.667,18.178c-4.342,1.169-9.296,3.145-12.09,6.304
		C1154.297,659.605,1135.899,681.402,1117.338,703.064z M1481.807,1156.895c-13.833,0.858-24.658,1.659-35.497,2.164
		c-10.607,0.495-16.136,5.709-16.894,15.94c-2.906,39.21-6.313,78.391-8.707,117.629c-7.612,124.743-15.439,249.479-22.043,374.274
		c-4.818,91.041-7.944,182.167-11.556,273.266c-0.681,17.177-0.097,34.401-0.097,51.845c12.375-2.395,23.241-5.387,34.306-6.458
		c24.248-2.347,49.61-9.745,72.453,1.891c17.432,8.879,31.63,5.679,47.818-0.774c13.691-5.458,28.377-12.048,42.539-11.871
		c12.328,0.154,16.87-3.663,21.023-12.645c12.088-26.143,13.581-54.072,13.891-81.947c0.442-39.783,1.265-79.669-7.659-118.96
		c-0.694-3.054,1.782-6.783,2.978-10.859c2.398,1.726,3.604,2.13,3.815,2.82c1.592,5.223,3.661,10.421,4.337,15.775
		c4.221,33.423,13.713,64.763,34.066,92.801c10.766,14.831,10.138,32.124,4.294,48.809c-6.569,18.754-14.042,37.211-20.195,53.366
		c10.628,13.613,20.385,26.109,29.262,37.48c10.156-6.51,20.825-13.349,30.98-19.858c-1.38-17.501-4.342-35.226-3.761-52.842
		c0.692-20.956,4.566-41.805,6.805-62.725c2.205-20.604,11.541-37.325,28.231-50.189c14.388-11.09,29.13-21.778,43.018-33.426
		c2.819-2.365,4.479-8.797,3.362-12.385c-14.334-46.057-32.515-91.213-31.874-142.576c-30.739,44.779-33.258,96.957-55.663,143.165
		c4.476-0.322,7.702-0.668,10.937-0.768c16.3-0.503,23.762,8.341,18.69,23.528c-2.565,7.679-7.554,14.581-11.263,21.922
		c-6.391,12.653-12.355,25.517-19.092,37.992c-2.524,4.673-6.624,11.846-10.149,11.925c-5.065,0.115-12.821-4.063-14.917-8.439
		c-6.099-12.729-10.455-26.325-14.586-39.842c-9.07-29.68-9.654-28.728,19.27-40.252c6.456-2.573,7.615-5.239,6.787-12.102
		c-4.367-36.213-9.033-72.469-11.126-108.844c-2.525-43.891-1.764-87.953-3.889-131.875c-3.094-63.939-6.492-127.894-11.663-191.698
		c-3.988-49.205-10.505-98.236-16.87-147.226c-1.166-8.975-2.052-20.785-16.48-21.867c-41.134-3.084-82.255-6.346-127.747-9.876
		c0,19.221,0.223,34.142-0.036,49.054c-1.662,95.779-2.728,191.574-5.382,287.327c-2.157,77.789-6.257,155.528-9.512,233.288
		c-0.172,4.121,0.592,8.721-1.065,12.213c-1.548,3.263-5.74,5.347-8.271,7.522
		C1470.421,1546.121,1476.097,1352.08,1481.807,1156.895z M1660.652,2153.534c0.471-0.026,0.943-0.052,1.414-0.078
		c0-43.073,0.771-86.167-0.508-129.205c-0.347-11.661-5.766-23.652-10.945-34.56c-4.246-8.943-13.789-10.171-23.296-7.631
		c-30.832,8.236-53.394,26.061-71.495,51.923c-74.796,106.873-106.669,226.46-115.205,353.51
		c-4.342,64.63-3.012,129.07,5.941,193.191c5.412,38.762,12.604,77.32,20.149,115.758c3.46,17.625,11.891,32.169,32.46,37.544
		c63.075,16.483,126.967,27.395,192.375,28.882c14.476,0.329,20.348-7.838,18.188-22.079c-4.712-31.068-9.896-62.115-13.109-93.342
		c-8.423-81.852-17.387-163.695-23.324-245.732C1667.32,2319.108,1664.728,2236.27,1660.652,2153.534z M770.19,2240.682
		c0.594-1.255,1.187-2.509,1.781-3.763c-165.607-108.917-328.254-221.346-465.069-365.395c5.08-1.216,9.777-0.896,12.395,1.531
		c34.734,32.212,67.625,66.477,104.07,96.726c49.363,40.97,100.305,80.347,152.555,117.804
		c67.812,48.613,137.475,94.806,206.563,141.734c20.068,13.631,43.259,17.46,69.483,19.035c-2.755-4.526-3.788-7.074-5.551-8.991
		c-21.346-23.209-42.627-46.477-64.267-69.427c-30.511-32.358-64.404-61.324-91.935-96.826
		c-31.693-40.871-69.474-77.249-103.298-116.638c-49.201-57.297-96.78-115.906-146.22-173.004
		c-7.762-8.964-20.993-15.092-32.928-18.712c-24.561-7.449-51.321-9.222-74.703-18.93c-40.893-16.978-72.865-46.879-102.685-78.366
		c-20.502-21.647-43.316-39.191-74.725-45.876c0.32,3.529,0.184,6.668,0.931,9.595c13.578,53.195,29.541,105.569,53.269,155.569
		c12.984,27.362,25.589,55.066,35.679,83.512c28.748,81.05,63.861,159.21,108.625,233.151c14.799,24.446,30.588,48.352,46.714,72
		c3.404,4.993,9.774,9.765,15.64,11.115c9.312,2.143,19.9-0.49,28.977,2.097c25.052,7.14,51.685,12.297,64.956,38.956
		c1.943,3.903,10.026,6.599,15.459,6.935c40.03,2.473,80.089,4.995,120.179,5.95C687.43,2241.448,728.819,2240.682,770.19,2240.682z
		 M375.185,2743.446c-0.97-2.039-1.196-3.636-2.131-4.316c-28.295-20.557-41.516-49.515-51.304-81.429
		c-7.905-25.773-12.679-53.711-37.066-72.232c6.513-7.271,11.711-7.123,15.616,0.686c10.425,20.846,21.158,41.582,30.524,62.877
		c5.317,12.088,7.249,25.555,12.337,37.762c14.471,34.722,53.341,62.968,87.545,60.866c21.726-1.335,43.107-7.955,61.386-11.562
		c-20.385-13.849-42.507-26.794-62.069-42.698c-24.127-19.615-47.307-40.65-68.476-63.205c-8.838-9.416-14.252-23.931-16.199-36.84
		c-2.671-17.703,12.648-25.612,28.522-17.468c16.65,8.542,33.681,16.516,53.669,12.052c49.686-11.099,86.088-39.832,113.647-80.26
		c12.178-17.865,17.299-36.746,11.898-58.569c-3.25-13.131-4.132-27.375-2.713-40.785c0.682-6.448,8.232-13.629,14.617-17.299
		c2.137-1.228,13.342,6.417,15.161,11.702c6.199,18.015,13.754,36.705,14.186,55.281c1.99,85.555-58.991,150.234-127.737,177.901
		c-6.196,2.494-12.744,4.165-22.372,7.261c12.426,6.825,21.472,12.579,31.172,16.981c34.995,15.881,69.419,34.065,109.556,33.784
		c6.576-0.046,15.046-3.082,19.371-7.647c35.102-37.051,57.073-81.264,71.897-129.032c1.036-3.337,0.663-8.745-1.489-11.088
		c-16.425-17.88-22.612-39.056-19.643-62.022c4.89-37.821-8.036-70.493-28.838-100.867c-15.919-23.245-36.787-39.921-67.605-41.551
		c-13.064-0.691-22.098-8.9-29.382-19.22c-14.345-20.323-19.918-43.173-22.161-67.21c-0.498-5.335-1.089-11.457-4.024-15.643
		c-10.823-15.434-51.592-22.078-68.44-12.531c-19.389,10.988-39.237,21.215-58.826,31.875c-0.994,0.541-1.425,2.054-2.845,4.226
		c21.987,5.918,14.018,21.923,12.339,35.792c34.411,5.264,60.06,22.126,80.322,47.99c18.979,24.224,9.008,72.384-29.882,77.702
		c-4.75,0.649-10.224,5.431-12.874,9.737c-8.652,14.058-14.303,30.173-24.518,42.932c-16.368,20.446-37.607,39.702-64.585,40.6
		c-35.974,1.198-70.802-9.892-100.134-31.615c-22.658-16.78-26.683-35.626-17.092-61.488c4.901-13.214,11.174-26.748,11.974-40.404
		c1.156-19.732,4.652-37.972,15.312-54.861c2.753-4.363,4.707-9.199,7.029-13.817c-73.983,39.002-127.301,95.166-153.658,172.296
		c-9.664,28.281-12.51,58.751,2.221,86.074c6.863-22.073,13.211-45.433,21.603-68.081c3.524-9.512,10.153-18.708,17.594-25.879
		c7.664-7.387,18.415-10.045,28.23-2.069c9.417,7.653,2.832,16.094-0.331,23.603c-5.141,12.204-13.282,23.442-16.941,35.97
		c-13.097,44.854-5.364,88.707,9.676,131.831c7.779,22.305,16.897,43.847,38.823,57.132c11.846,7.178,23.77,14.236,35.658,21.347
		c-0.068-4.365-1.588-7.45-3.753-10.025c-48.528-57.736-36.193-119.369-12.041-181.523c3.195-8.223,10.913-13.612,20.541-10.066
		c9.141,3.366,11.649,11.089,9.765,20.374c-2.632,12.975-5.71,25.944-7.087,39.064c-2.52,24.013-7.57,49.347,11.921,69.212
		C286.506,2709.121,326.068,2733.666,375.185,2743.446z M1944.316,2529.399c-4.149-106.881-22.815-201.929-50.739-295.331
		c-25.052-83.795-72.632-155.328-131.975-219.879c-14.36-15.621-33.02-24.311-55.469-21.476
		c-9.094,1.149-18.326,3.882-18.324,15.169c0.001,12.298,0.459,24.677,1.968,36.875c2.517,20.347,6.526,40.522,9.014,60.872
		c4.428,36.228,8.369,72.515,12.178,108.81c3.763,35.849,7.274,71.725,10.604,107.614c4.977,53.639,9.24,107.344,14.665,160.938
		c4.951,48.911,10.527,97.776,16.8,146.543c4.878,37.922,11.042,75.695,17.08,113.468c1.918,11.998,9.074,17.788,22.717,16.788
		c34.548-2.531,66.559-12.062,95.484-30.537c5.74-3.666,12.189-8.454,14.777-14.216c11.232-25.011,25.494-49.794,30.532-76.12
		C1941.077,2599.991,1941.635,2559.827,1944.316,2529.399z M920.116,644.532c0.419-0.662,0.839-1.324,1.258-1.986
		c-12.062-10.098-24.041-20.292-36.202-30.276c-31.955-26.234-68.229-47.725-93.625-81.151
		c-10.051-13.229-19.802-27.001-31.798-38.45c-35.944-34.301-72.745-67.768-109.654-101.101c-7.871-7.109-10.604-13.049-3.57-19.858
		c11.423,10.297,22.606,20.756,34.203,30.763c41.293,35.629,82.19,71.634,115.093,115.11
		c29.214,38.601,69.105,64.922,106.739,89.715c-7.633-21.828-19.66-44.667-23.143-68.672c-6.545-45.116-8.758-90.87-11.607-136.427
		c-1.954-31.255-10.795-41.113-42.534-40.699c-10.681,0.139-16.763-4.122-20.844-12.812c-5.265-11.211-10.214-22.582-15.977-33.549
		c-6.302-11.991-16.538-19.661-30.796-17.079c-20.692,3.748-41.191,8.704-61.531,14.015c-21.863,5.709-43.098,5.516-62.829-5.711
		c-14.953-8.508-29.94-17.476-43.128-28.284c-38.52-31.568-84.548-40.538-132.679-42.898c-15.118-0.741-30.433,2.271-47.6,3.73
		c12.941,43.501,23.531,84.155,37.222,123.802c16.047,46.472,19.258,92.769,6.665,140.198c-2.69,10.13-4.516,20.475-7.319,33.39
		c14.456-5.076,25.37-9.127,36.435-12.748c24.974-8.172,49.711-17.267,75.138-23.82c20.645-5.321,27.838,1.601,25.099,20.081
		c-4.36,29.428-2.991,32.111,25.03,45.474c8.42,4.016,16.878,8.577,25.869,10.754C729.328,599.122,824.738,621.767,920.116,644.532z
		 M1349.702,1160.265c-8.407-15.459-21.095-22.941-30.362-19.202c-22.133,8.93-44.23,17.945-66.397,26.796
		c-86.773,34.646-177.157,56.501-269.871,68.752c-54.364,7.183-109.292,8.19-163.381-3.169
		c-55.545-11.664-110.557-25.741-166.168-37.069c-30.221-6.156-61.139-9.42-91.903-12.464c-5.865-0.58-14.731,4.448-18.388,9.494
		c-25.109,34.641-14.789,75.384,22.075,98.132c32.39,19.988,67.756,31.989,104.725,39.301
		c80.746,15.972,161.55,31.878,242.773,45.295c46.405,7.665,93.581,11.682,140.587,14.987c51.791,3.641,103.777,4.802,155.7,6.355
		c5.078,0.152,12.077-3.211,15.193-7.161c26.887-34.076,53.141-68.621,79.447-103.124c5.552-7.281,10.542-14.964,15.792-22.462
		c1.334,0.888,2.667,1.775,4.001,2.663c-20.39,47.332-50.736,88.54-89.669,127.819c13.479,0,23.308,0.776,32.911-0.317
		c5.048-0.575,11.184-3.254,14.293-6.974c22.865-27.359,44.173-55.981,67.738-82.742c32.93-37.396,29.567-82.261,32.244-126.236
		c-38.373,9.812-75.747,18.378-112.487,29c-53.229,15.389-105.734,33.15-159.043,48.257
		c-52.647,14.92-106.742,23.518-161.508,26.464c-89.242,4.802-177.004-5.629-263.28-27.706
		c-39.653-10.146-79.161-21.175-111.726-47.18c-3.143-2.51-4.671-6.922-6.948-10.451c1.362-1.091,2.723-2.182,4.084-3.272
		c6.734,3.862,13.337,7.962,20.228,11.54c16.555,8.594,32.453,19.183,50.014,25.01c84.983,28.2,173.064,41.056,262.514,43.627
		c59.67,1.715,118.387-7.349,176.459-21.254c73.338-17.56,145.337-38.398,213.463-70.646c10.926-5.172,22.994-8.035,34.382-12.343
		C1334.797,1167.11,1342.132,1163.562,1349.702,1160.265z M524.856,1191.631c1.374,0.806,2.748,1.612,4.122,2.418
		c14.496-27.012,38.336-41.699,66.576-51.837c71.48-25.661,146.513-32.512,221.31-40.783c46.327-5.123,92.972-8.147,139.001-15.07
		c74.934-11.271,148.628-28.277,220.597-51.89c50.487-16.565,101.125-31.256,155.818-26.887
		c53.964,4.311,98.803,24.288,129.306,68.073c14.44,20.727,23.871,44.732,36.981,69.964c29.064,0,62.706,0,95.708,0
		c5.263-10.211,9.953-21.657,16.642-31.873c24.913-38.051,62.908-58.476,106.236-69.989c60.862-16.172,123.54-19.507,186.229-22.354
		c30.435-1.383,60.822-3.768,91.231-5.7c-4.328-4.125-9.182-6.928-14.371-7.75c-30.568-4.844-61.105-10.153-91.857-13.572
		c-65.043-7.231-130.138-14.205-195.351-19.761c-63.446-5.406-127-10.6-190.621-12.876c-112.077-4.01-223.024,7.56-333.318,26.766
		c-85.625,14.91-171.608,27.886-257.353,42.165c-79.161,13.183-156.92,6.923-233.194-16.081
		c-14.356-4.329-23.867-3.607-35.115,6.353c-48.94,43.335-93.464,89.506-113.767,152.757
		C527.776,1179.593,526.446,1185.651,524.856,1191.631z M1572.383,1990.146c-0.613,0.083-4.282,0.222-7.746,1.111
		c-21.997,5.647-43.664,12.986-65.975,16.896c-44.395,7.78-77.505,32.382-105.508,64.244
		c-43.109,49.05-76.258,104.051-101.784,163.648c-22.688,52.972-40.974,107.184-45.84,164.37
		c-4.502,52.911-1.161,105.848,11.417,157.92c11.188,46.316,28.514,88.448,77.219,109.83c18.916,8.304,38.044,16.152,57.037,24.293
		c8.728,3.741,17.196,1.871,20.915-5.721c3.768-7.691,6.142-17.32,5.19-25.679c-6.821-59.896-15.771-119.577-21.858-179.534
		c-6.958-68.539-5.933-137.126,5.24-205.384c13.818-84.42,40.057-163.6,100.886-228.49c3.597-3.838,6.706-8.106,10.042-12.174
		c1.263,0.747,2.527,1.493,3.79,2.24c-2.738,5.343-4.915,11.05-8.312,15.966c-13.366,19.344-28.766,37.546-40.43,57.786
		c-43.898,76.172-58.299,160.045-62.288,245.585c-2.255,48.341,0.231,96.99,2.681,145.401c1.516,29.962,7.104,59.722,10.628,89.6
		c3.894,33.016,7.906,66.027,11.073,99.112c1.311,13.696,15.953,29.841,31.698,31.599c-1.666-7.297-3.177-14.354-4.894-21.363
		c-17.6-71.857-26.345-144.881-28.541-218.547c-1.927-64.634,2.61-129.043,13.925-192.841
		c12.295-69.323,31.99-136.527,67.544-198.27C1528.611,2056.802,1551.41,2023.311,1572.383,1990.146z M2433.848,1152.65
		c-69.152-56.014-148.335-83.882-236.4-86.706c-42.326-1.358-84.971-0.313-127.172,3.113
		c-83.169,6.752-166.319,14.47-249.101,24.656c-47.042,5.788-97.376,2.309-139.9,36.823c9.658-18.105,21.987-28.912,39.436-31.768
		c43.187-7.069,86.411-14.345,129.9-19.159c59.07-6.539,118.338-11.711,177.639-15.893c57.869-4.081,115.887-6.192,173.842-9.121
		c4.041-0.204,8.102-0.027,12.154-0.027c-9.97-3.197-19.998-4.956-29.921-7.158c-56.573-12.557-113.343-23.421-171.873-21.004
		c-30.676,1.267-61.514,0.788-92.01,3.725c-42.639,4.106-86.15,6.626-127.193,17.357c-38.12,9.967-73.556,29.674-110.047,45.368
		c-21.308,9.164-35.326,25.331-44.092,45.87c-6.07,14.222-4.05,17.484,11.064,20.668c39.166,8.252,78.14,17.493,117.528,24.576
		c39.802,7.157,79.847,13.702,120.08,17.789c52.007,5.283,104.26,8.988,156.505,11.003c18.583,0.716,38.431,1.969,56.11-9.535
		c26.35-17.145,56.146-6.666,67.282,22.324c2.333,6.074,4.669,12.147,8.331,21.672c8.325-12.944,14.61-22.904,21.09-32.743
		c7.01-10.644,15.359-17.569,30.199-14.891c12.876,2.324,27.195,6.091,36.425-8.738c1.191-1.914,4.951-2.381,7.573-3.393
		c35.771-13.797,71.54-27.596,107.353-41.288c1.962-0.75,4.303-0.568,10.5-1.29c-17.63,26.045-48.561,20.921-68.643,35.598
		C2361.067,1180.076,2398.063,1169.575,2433.848,1152.65z M2044.896,2583.051c1.504,0.857,3.009,1.715,4.513,2.572
		c3.183-3.283,7.679-6.049,9.31-9.942c5.477-13.074,12.116-26.211,14.381-39.933c7.657-46.384,14.655-92.922,19.847-139.617
		c3.069-27.599,5.902-56.041,2.419-83.334c-6.797-53.266-20.983-105.309-53.213-150.223c-19.828-27.631-45.432-51.576-63.571-80.088
		c-32.628-51.287-82.28-80.595-134.833-107.24c-19.86-10.07-39.653-8.674-59.139,2.052c-23.372,12.865-23.399,18.345-6.763,38.677
		c25.143,30.729,50.292,61.737,72.031,94.737c36.387,55.233,57.712,116.854,71.674,180.635
		c11.024,50.358,24.105,100.824,28.501,151.871c4.687,54.418,0.1,109.574,0.02,164.409c-0.007,4.971,1.81,12.595,5.351,14.501
		c27.501,14.803,57.547-0.45,69.327-24.638c17.571-36.078,25.566-75.293,30.35-114.867c6.325-52.323,10.477-104.707,4.596-157.449
		c-7.604-68.192-25.67-132.821-65.391-190.635c-4.165-6.063-6.427-13.353-10.89-22.89c5.038,2.158,6.59,2.401,7.47,3.278
		c2.629,2.617,5.025,5.458,7.46,8.253c43.773,50.234,59.11,111.355,69.213,173.966c7.685,47.623,8.043,95.747,3.065,143.788
		c-4.331,41.796-6.319,83.971-21.706,123.989C2046.715,2570.653,2046.195,2576.993,2044.896,2583.051z M1796.704,1226.353
		c1.243-0.698,2.486-1.396,3.729-2.095c3.667,2.754,7.364,5.472,10.996,8.269c42.402,32.642,87.24,62.48,121.42,104.291
		c25.676,31.407,26.992,31.674,57.585,3.642c29.968-27.459,63.894-45.668,104.705-52.833c15.552-2.73,30.568-9.054,45.392-14.797
		c28.948-11.215,28.69-20.488,17.261-48.177c-0.865-2.096-2.266-4.02-3.622-5.885c-15.72-21.619-42.525-19.899-54.919,3.328
		c-5.828,10.923-11.886,21.765-18.547,32.22c-2.56,4.017-7.088,6.854-10.72,10.229c-1.101-0.793-2.201-1.587-3.302-2.38
		c5.234-12.628,10.469-25.257,16.724-40.348c-152.985,9.925-298.131-20.436-444.378-54.2
		c24.866,76.374,18.817,153.025,30.193,229.073c61.05-6.651,121.604-13.248,183.894-20.034c-2.203-3.794-3.031-5.902-4.44-7.542
		c-19.61-22.835-39.479-45.465-58.835-68.5c-4.34-5.166-6.954-11.695-10.363-17.596c1.407-1.007,2.815-2.015,4.222-3.022
		c4.539,4.169,9.502,7.987,13.547,12.566c22.711,25.713,45.079,51.712,67.941,77.297c2.444,2.735,7.696,5.35,11.015,4.749
		c20.6-3.735,41.02-8.405,64.099-13.319c-17.223-17.995-32.012-35.857-49.333-50.998c-28.33-24.765-58.427-47.623-87.432-71.678
		C1800.138,1235.796,1798.928,1230.5,1796.704,1226.353z M1480.996,1144.734c-14.28-57.358-45.496-99.535-103.778-118.022
		c-52.034-16.505-104.609-12.335-155.683,4.225c-78.687,25.514-158.117,48.687-240.055,61.052
		c-79.033,11.927-159.018,17.845-238.177,29.097c-44.009,6.255-87.411,17.147-130.624,27.726
		c-16.837,4.122-32.403,13.126-48.547,19.906c0.376,1.215,0.753,2.429,1.129,3.644c3.94,0.763,7.853,2.003,11.825,2.215
		c49.354,2.637,96.227,16.729,143.926,27.671c51.166,11.738,103.03,22.643,155.229,27.657
		c81.712,7.848,161.909-7.276,240.005-29.457c68.693-19.51,136.096-43.287,204.069-65.179c-0.062-1.617-0.123-3.234-0.185-4.851
		c-16.805-5.215-34.098-9.311-50.287-15.941c-18.253-7.476-34.302-4.78-51.351,3.279c-24.985,11.812-50.14,23.626-76.173,32.944
		c-64.169,22.968-129.319,42.673-198.207,47.605c-45.253,3.24-90.854,6.719-135.224-3.728
		c-34.981-8.236-68.743-21.368-102.95-32.601c-2.597-0.853-4.422-3.914-9.537-8.679c18.595,1.928,32.631,5.25,46.43,4.495
		c65.47-3.58,131.047-6.625,196.251-13.058c58.106-5.733,114.599-19.923,169.633-39.628c56.05-20.069,112.013-40.439,171.648-49.434
		c71.78-10.826,138.855,27.115,144.692,96.482C1443.134,1149.757,1461.167,1147.364,1480.996,1144.734z M2484.375,1649.468
		c9.214-36.979,18.246-73.227,27.393-109.933c-71.97-28.719-145.368-60.433-227.663-65.587
		c-61.83-3.872-122.805-7.018-177.594,27.646c-45.964,29.08-91.199,59.244-136.757,88.928c0.659,1.08,1.318,2.159,1.978,3.239
		c4.964-1.124,10.121-1.747,14.862-3.454c33.723-12.144,68.64-10.775,103.478-8.186c57.353,4.262,111.812,21.395,166.009,38.304
		C2330.9,1643.769,2406.526,1658.191,2484.375,1649.468z M2121.744,2533.616c15.801-17.979,35.372-30.61,41.058-54.132
		c1.665-6.886,5.809-13.633,10.262-19.393c40.83-52.819,43.555-113.479,37.354-175.351c-2.396-23.907-12.521-47.156-14.273-71.039
		c-3.466-47.243-21.939-87.58-56.911-119.046c-26.368-23.725-57.011-43.062-86.309-63.606
		c-10.605-7.436-22.213-14.329-34.421-18.681c-55.053-19.625-110.664-37.586-168.937-42.292c1.409,0.8,3.639,2.297,6.059,3.406
		c41.513,19.013,82.593,38.724,111.924,74.751c15.745,19.34,30.32,39.585,46.324,58.714c31.952,38.193,61.35,77.767,74.844,126.092
		c12.286,43.999,25.925,87.794,35.002,132.436c7.231,35.563,10.628,72.22,11.51,108.487
		C2135.688,2492.772,2127,2511.79,2121.744,2533.616z M999.067,2372.523c0.687-0.743,1.374-1.486,2.06-2.229
		c-1.01-1.942-1.796-4.035-3.064-5.804c-46.309-64.614-60.265-138.412-60.767-214.67c-0.273-41.399,6.842-82.859,10.931-124.264
		c2.227-22.544,3.298-43.547-13.784-63.317c-10.412-12.05-15.921-29.04-20.517-44.672c-13.26-45.103-19.168-91.33-17.967-138.317
		c0.143-5.597,0.02-11.201,0.02-16.802c-14.402,18.47-28.237,34.119-56.355,36.114c-7.929,51.544-17.472,103.089-23.455,155.019
		c-8.175,70.962-0.489,141.111,15.896,210.713c6.57,27.91,23.615,49.576,38.559,72.565c10.74,16.52,23.318,32.242,37.049,46.541
		c25.656,26.718,52.726,52.161,79.258,78.086C990.835,2365.301,995.014,2368.851,999.067,2372.523z M1220.437,2571.458
		c-2.769-25.329-5.613-49.797-8.089-74.3c-5.084-50.318-6.81-100.674,2.912-150.65c17.363-89.255,56.006-169.38,113.675-240.657
		c37.834-46.762,81.652-86.553,142.948-103.196c5.27-1.431,10.382-3.41,15.567-5.134c-0.141-1.406-0.283-2.813-0.424-4.219
		c-10.169,0-20.641-1.547-30.454,0.265c-45.128,8.329-90.434,16.168-135.009,26.811c-104.395,24.926-187.965,112.811-184.15,232.817
		c0.971,30.528,5.137,60.986,8.465,91.412c3.121,28.535,7.453,56.945,10.582,85.479c5.77,52.632,42.719,92.756,59.59,140.906
		C1216.111,2571.16,1216.88,2571.095,1220.437,2571.458z M2401.511,1664.057c-18.858-3.121-36.313-4.733-53.04-9.016
		c-50.869-13.023-101.531-26.824-152.134-40.799c-52.678-14.548-105.793-27.126-161.021-22.826
		c-22.765,1.773-44.974,9.752-67.745,12.109c-15.649,1.62-25.682,8.411-35.373,19.263c-19.425,21.753-39.803,42.711-59.966,63.837
		c-5.155,5.402-10.977,10.207-18.871,17.477c59.825-14.271,116.883-14.771,173.654-7.27c62.441,8.251,124.451,19.58,186.632,29.67
		c39.346,6.385,77.638,2.856,115.587-9.132C2359.675,1707.756,2382.873,1689.973,2401.511,1664.057z M167.365,1220.855
		c-16.509,129.503-13.733,259.215-14.404,389.05c38.047,6.149,62.512,26.996,86.37,49.95c22.682,21.823,46.771,42.45,71.67,61.883
		c27.655,21.583,60.668,28.742,98.659,28.127C288.566,1589.642,220.737,1408.81,167.365,1220.855z M1105.298,2470.702
		c-4.972-3.959-7.536-5.983-10.081-8.03c-43.803-35.222-87.481-70.593-131.649-105.379c-3.324-2.618-10.448-2.37-15.276-1.271
		c-55.264,12.589-110.419,25.625-165.616,38.488c-16.215,3.778-32.472,7.384-48.599,11.044
		c14.99,72.929,4.034,98.282-19.742,166.135c1.57,0.695,3.126,1.834,4.815,2.065c32.124,4.386,64.236,8.889,96.445,12.593
		c2.933,0.337,8.398-4.005,9.443-7.178c3.478-10.565,8.172-18.009,21.423-15.374c0.841,0.167,2.226-2.241,3.731-3.85
		c-4.219-3.123-7.801-5.774-13.6-10.066c28.285-41.962,74.435-38.07,116.81-45.056c-1.652-3.181-2.282-6.066-4.112-7.634
		c-8.088-6.926-12.559-16.099-4.664-23.65c4.365-4.175,15.276-4.441,22.391-2.869c14.98,3.31,29.402,8.991,44.584,13.87
		c0.754-3.733,1.332-7.298,2.204-10.794c6.374-25.565,23.716-31.633,44.014-14.458c10.03,8.487,18.16,19.083,27.496,29.097
		C1086.745,2479.086,1085.207,2466.361,1105.298,2470.702z M690.25,1760.576c-1.452,55.089-5.302,107.691-3.489,160.109
		c1.634,47.246,9.865,93.436,32.075,137.586c28.253,56.163,68.535,102.101,115.208,147.984
		c-45.2-137.807-41.562-272.782-1.647-406.421c-16.817-5.632-35.914-7.989-49.761-17.516
		C754.977,1763.289,723.832,1765.747,690.25,1760.576z M1955.574,1375.311c-96.087,10.928-192.184,21.857-287.464,32.693
		c2.59,60.115,5.14,119.968,7.758,179.819c2.031,46.45,3.963,92.906,6.423,139.335c0.367,6.93,3.389,13.728,5.182,20.587
		c5.076-4.771,7.061-9.68,8.535-14.73c5.884-20.167,9.721-41.119,17.785-60.419c16.967-40.609,33.186-81.948,55.136-120.05
		c26.204-45.485,67.608-79.522,106.66-114.753c2.892-2.609,7.744-3.176,11.673-4.687c2.144,6.707,3.662,11.457,4.779,14.952
		C1913.608,1423.364,1934.734,1399.173,1955.574,1375.311z M2609.751,1401.047c-39.254-20.75-79.603-33.809-123.719-37.547
		c-45.974-3.896-90.454-2.126-132.933,16.616c-42.892,18.925-85.652,38.141-128.203,57.774
		c-14.408,6.648-28.001,14.958-44.458,23.856c5.622,0,7.978,0.097,10.324-0.014c69.337-3.291,137.925,1.227,204.147,22.67
		c36.165,11.711,71.438,26.065,106.884,39.781c12.664,4.9,20.378,3.509,26.613-9.709c6.62-14.035,15.418-27.307,24.713-39.909
		C2571.407,1449.77,2590.697,1425.668,2609.751,1401.047z M2507.618,2353.583c8.764-32.161,32.731-56.136,59.128-78.99
		c22.11-19.142,43.484-39.377,62.928-61.032c18.532-20.639,26.005-46.516,28.654-72.674
		c-45.093,12.789-89.086,25.822-133.422,37.651c-31.42,8.383-62.431,16.382-88.416,37.355
		c-48.204,38.907-97.283,76.795-145.9,115.223c-3.874,3.063-6.994,7.022-12.1,12.234c39.363-8.014,76.603-12.976,114.02-8.311
		C2430.138,2339.731,2467.426,2346.995,2507.618,2353.583z M1159.271,268.816c-1.919-0.637-3.838-1.275-5.757-1.912
		c-3.394,1.98-8.357,3.177-9.901,6.082c-5.538,10.417-11.01,21.087-14.545,32.246c-13.73,43.336-25.789,87.236-81.146,98.858
		c-10.914,2.291-14.082,12.505-11.987,23.393c2.725,14.16,5.168,28.372,7.827,43.083c-8.585,0.879-15.675,0.973-22.462,2.41
		c-28.087,5.946-29.445,8.386-21.089,34.516c0.279,0.872,0.338,1.814,0.657,2.669c15.036,40.27,28.802,81.053,45.733,120.56
		c7.442,17.366,21.334,32.135,32.297,48.083c1.319-0.786,2.637-1.572,3.956-2.358c-2.096-17.632-5.435-35.225-6.029-52.905
		c-1.253-37.239,1.475-73.851,34.012-100.373c11.537-9.404,24.024-17.728,36.225-26.348c28.676-20.26,49.385-62.247,24.849-101.958
		c-10.214-16.531-14.624-34.941-13.064-55.135C1160.663,316.211,1159.271,292.463,1159.271,268.816z M2620.317,1395.528
		c34.875-32.744,78.619-51.425,120.511-73.248c45.486-23.695,72.868-65.571,109.065-103.08c-20.415,3.332-36.993,6.311-53.661,8.704
		c-39.986,5.741-80.508,9.051-119.857,17.517c-27.691,5.958-53.927,18.49-80.61,28.593c-50.447,19.1-100.826,38.377-151.026,58.076
		c-7.73,3.033-14.358,8.708-22.848,14.005c36.39,4.651,69.917,8.514,103.298,13.32
		C2559.122,1364.302,2590.465,1376.325,2620.317,1395.528z M1421.73,1164.127c-7.737,2.39-13.3,4.936-19.117,5.734
		c-12.442,1.705-14.41,8.745-12.842,19.259c1.41,9.459,2.405,19.14,2.001,28.66c-1.275,30.114-2.843,60.232-5.134,90.288
		c-2.908,38.156-6.076,76.31-10.162,114.361c-4.439,41.344-10.41,82.531-15.08,123.854c-6.262,55.41-12.336,110.845-17.712,166.341
		c-5.068,52.316-10.131,104.667-13.307,157.111c-2.489,41.099-2.121,82.362-2.923,123.554c-0.074,3.806,0.569,7.625,0.9,11.699
		c16.512-3.923,31.391-7.458,47.466-11.276c0-4.148-0.086-8.659,0.013-13.167c1.071-48.952,1.306-97.94,3.493-146.845
		c2.494-55.758,6.748-111.441,10.216-167.159c4.266-68.528,8.813-137.04,12.665-205.59c2.904-51.673,4.495-103.416,7.443-155.087
		c2.263-39.65,5.654-79.241,8.735-118.844C1418.941,1179.898,1420.429,1172.846,1421.73,1164.127z M2266.003,2339.264
		c36.161-29.385,75.563-62.501,116.308-93.982c16.753-12.944,25.112-28.674,28.387-48.2c2.946-17.568,5.962-35.127,9.199-52.646
		c13.419-72.618,18.285-147.439,59.225-213.741c-28.527,3.915-53.099,13.959-69.988,35.688
		c-13.231,17.022-24.461,35.677-35.054,54.418c-25.784,45.616-38.454,95.948-53.875,145.26
		C2301.706,2225.215,2283.185,2284.362,2266.003,2339.264z M2436.782,1164.931c-2.633,0-4.27-0.487-5.312,0.07
		c-37.77,20.193-80.065,26.681-121.097,36.354c-24.49,5.773-50.21,8.991-75.377,8.992c-20.96,0-31.737,5.639-33.849,26.807
		c-2.625,26.307-3.539,52.969-8.783,78.793c-10.386,51.143-23.588,101.658-57.888,144.011c-3.443,4.251-5.562,9.509-8.296,14.299
		c1.048,0.872,2.096,1.744,3.145,2.616c6.618-4.675,12.791-10.154,19.938-13.873c20.741-10.792,41.623-21.393,62.928-31.081
		c17.84-8.113,31.155-19.076,37.006-38.256c3.309-10.851,9.332-20.969,14.539-31.223c23.775-46.816,52.419-90.067,96.176-122.105
		c19.169-14.036,39.069-27.241,57.27-42.368C2427.016,1189.794,2436.979,1179.897,2436.782,1164.931z M2620.84,1933.052
		c0.329,0.109-0.608-0.547-1.404-0.413c-38.06,6.427-75.862,4.325-113.532-3.024c-8.059-1.572-14.913-0.502-18.285,8.237
		c-12.161,31.524-27.527,62.252-35.921,94.683c-10.73,41.456-15.931,84.26-23.399,126.503c-2.85,16.122-5.381,32.297-8.057,48.448
		c1.64,0.873,3.28,1.746,4.921,2.619c33.86-32.84,68.904-64.631,101.191-98.865c24.087-25.539,44.782-54.109,66.565-81.643
		c3.881-4.906,6.709-11.1,8.284-17.127C2608.086,1986.134,2614.329,1959.64,2620.84,1933.052z M2191.045,1254.914
		c-1.266-0.241-2.531-0.483-3.797-0.724c-3.588,2.871-7.163,5.758-10.766,8.61c-27.375,21.668-59.355,32.961-93.598,39.375
		c-10.087,1.889-22.19,2.257-29.193,8.058c-4.798,3.975-2.322,16.148-3.215,24.645c-0.189,1.799-0.869,3.554-1.36,5.319
		c-15.932,57.226-31.928,114.436-47.766,171.686c-4.493,16.242-8.531,32.602-13.15,50.34c16.872-10.977,32.115-20.051,46.397-30.377
		c23.364-16.891,48.441-32.382,68.624-52.413c44.226-43.894,65.575-99.508,77.182-158.855
		C2184.657,1298.821,2187.537,1276.81,2191.045,1254.914z M167.229,1014.988c-0.628,9.126-0.971,14.899-1.432,20.663
		c-3.873,48.477-6.178,97.383,6.305,144.641c17.137,64.879,37.849,128.886,57.827,193.034c6.144,19.728,14.896,38.692,22.446,57.984
		c2.483-0.929,3.147-0.976,3.278-1.256c3.091-6.627,6.305-13.208,9.14-19.938c22.067-52.391,33.116-105.501,13.636-161.396
		c-9.636-27.649-17.656-55.837-26.024-83.888C235.999,1109.837,204.872,1062.768,167.229,1014.988z M2401.821,1951.684
		c-4.978,0.372-7.761,0.045-10.151,0.837c-51.268,16.998-89.891,48.782-117.472,93.826c-22.533,36.8-32.918,77.542-41.649,118.75
		c-8.095,38.208-16.398,76.197-9.396,116.056c3.649,20.77,1.26,42.628,0.688,63.972c-0.433,16.175-2.306,32.313-3.736,51.071
		c3.927-3.198,5.578-4.597,7.286-5.926c14.451-11.245,15.797-28.402,20.944-43.805c20.432-61.144,41.302-122.158,60.975-183.531
		c20.011-62.431,38.208-125.463,73.206-182.182C2388.247,1971.467,2394.59,1962.537,2401.821,1951.684z M594.582,2251.226
		c27.193,18.584,59.147,34.428,82.627,58.155c23.481,23.726,38.488,55.333,58.085,84.802c69.296-14.411,141.54-29.436,213.784-44.46
		c0.099-1.698,0.198-3.397,0.297-5.096c-6.755-3.715-13.237-8.039-20.32-11.02c-15.923-6.701-31.907-13.398-48.292-18.906
		c-34.454-11.583-65.366-29.077-90.476-54.391c-9.818-9.897-19.001-12.27-31.851-11.847c-41.993,1.382-84.014,1.974-126.027,2.726
		C618.857,2251.43,605.297,2251.226,594.582,2251.226z M2040.925,1316.45c-6.15,3.158-8.524,3.773-10.018,5.234
		c-38.848,37.989-78.726,75.072-115.93,114.523c-20.352,21.582-34.374,47.838-34.799,78.828
		c-0.463,33.743-1.556,67.478-1.967,101.221c-0.137,11.218,0.984,22.449,1.655,36.251c7.372-5.539,12.997-8.86,17.456-13.285
		c13.821-13.715,26.421-28.667,40.938-41.619c19.249-17.173,34.443-37.145,41.931-60.953c18.835-59.88,36.043-120.246,53.41-180.551
		C2036.975,1344.385,2038.112,1332.066,2040.925,1316.45z M469.837,851.366c-3.892,5.096-7.519,10.409-11.726,15.249
		c-12.984,14.937-22.589,30.539-13.749,51.029c6.508,15.086,24.603,26.662,44.986,25.069c31.169-2.437,59.587-13.225,83.289-33.466
		c3.765-3.216,6.769-10.608,5.781-15.189c-8.098-37.53-20.288-74.34-50.646-100.327c-21.981-18.816-47.59-34.29-73.364-48.135
		c-30.072-16.154-62.084-28.912-93.254-43.144c9.053,21.718,20.32,40.218,29.586,59.616c9.481,19.849,16.812,40.654,25.428,60.902
		C426.917,848.234,439.42,854.581,469.837,851.366z M681.727,1759.196c-39.124-19.17-78.018-38.228-117.17-57.411
		c0,19.895-1.885,40.967,0.338,61.624c8.108,75.329,29.291,146.672,72.484,210.856c10.271,15.263,18.633,31.745,29.072,46.889
		c13.466,19.536,28.139,38.291,42.292,57.382c1.458-0.474,2.916-0.949,4.374-1.423
		C666.029,1973.661,669.225,1866.051,681.727,1759.196z M2507.756,2375.538c0.206-1.57,0.412-3.139,0.618-4.709
		c-7.921-3.173-15.622-7.076-23.801-9.396c-45.522-12.919-92.011-18.148-139.476-16.966c-46.738,1.164-82.843,20.424-110.166,56.701
		c-8.311,11.035-17.915,21.146-26.684,31.867c-8.804,10.763-17.305,21.759-25.939,32.653c0.826,1.914,1.653,3.828,2.479,5.742
		c26.072,0,52.156,0.494,78.211-0.131c29.454-0.706,57.887-5.917,84.48-19.361c36.289-18.346,72.892-36.115,109.555-53.752
		C2473.7,2390.169,2490.834,2383.06,2507.756,2375.538z M1314.558,2692.22c0.097-1.053,0.194-2.107,0.291-3.161
		c-1.444-0.876-2.777-2.092-4.349-2.579c-40.155-12.448-77.81-30.62-120.212-38.531c-65.103-12.146-127.478-10.074-190.402,9.498
		c-59.555,18.524-119.901,34.665-179.977,51.596c-7.924,2.233-16.306,2.938-23.343,4.155c-4.564,18.498,5.341,23.66,20.052,24.805
		c15.979,1.243,31.976,3.849,47.921,3.56c30.253-0.548,57.801-8.379,76.37-34.129c2.128-2.951,3.527-6.395,5.265-9.609
		c1.482,0.881,2.964,1.763,4.446,2.644c2.228,6.153,4.455,12.306,7.89,21.792c40.749-11.802,80.868-23.421,121.627-35.226
		c-0.803,4.506-1.549,8.696-2.796,15.695c46.1-3.694,93.567,7.384,129.661-31.721c-1.125,5.663-2.775,9.845-4.48,14.006
		c-7.644,18.647-6.719,21.435,13.75,19.653C1249.152,2701.804,1281.807,2696.495,1314.558,2692.22z M612.605,1968.838
		c0.909-0.53,1.818-1.06,2.727-1.589c-3.472-7.78-6.767-15.638-10.444-23.326c-30.43-63.629-52.155-129.337-50.415-200.52
		c0.729-29.829-0.587-55.288-32.597-75.164c-30.449-18.907-53.884-48.427-82.322-75.078c2.633,41.53,4.335,82.517,8.067,123.329
		c3.836,41.947,12.33,82.444,47.964,112.155c8.444,7.041,14.478,16.806,21.581,25.35
		C548.988,1892.27,580.794,1930.556,612.605,1968.838z M2409.918,2691.395c-34.005-14.782-70.818-27.981-104.573-46.435
		c-22.767-12.447-38.978-11.479-61.262,0.965c-77.049,43.027-155.307,38.482-230.25-5.005c-15.047-8.731-25.002-9.585-42.062-1.497
		c42.73,24.346,69.882,65.294,117.663,86.257c-4.152-8.069-6.754-13.125-9.355-18.181c1.25-0.959,2.499-1.917,3.749-2.876
		c4.94,4.262,10.708,7.906,14.67,12.897c13.783,17.362,32.413,24.248,54.136,25.609c21.769,1.365,24.242-0.551,25.978-21.466
		c0.068-0.822,0.806-1.591,2.015-3.844c4.842,0.806,10.162,1.972,15.549,2.539c22.761,2.395,45.59,6.79,68.305,6.334
		c27.466-0.551,34.183-10.473,30.583-36.01c-0.155-1.099,0.757-2.339,1.515-4.484
		C2334.881,2703.692,2373.25,2717.851,2409.918,2691.395z M2257.388,1409.976c22.873-10.3,43.89-19.102,64.271-29.121
		c21.737-10.686,45.813-19.325,63.538-34.65c22.918-19.815,41.842-44.454,60.174-68.66c29.461-38.901,51.993-83.225,95.684-110.524
		c1.253-0.783,1.819-2.6,2.03-2.918c-30.353-9.278-60.911-9.169-86.818-6.933c-7.919,14.746-12.427,28.077-21.094,37.993
		c-10.173,11.64-23.364,21.118-36.301,30.106c-27.3,18.968-54.341,37.91-75.204,64.067
		C2294.939,1325.354,2271.881,1364.11,2257.388,1409.976z M617.096,867.43c2.991-3.791,6.69-7.237,8.862-11.427
		c21.44-41.359,29.363-85.762,27.982-131.456c-0.26-8.603-8.706-20.188-16.771-24.735c-21.861-12.325-45.166-22.506-68.609-31.862
		c-27.921-11.142-53.987-7.36-74.321,15.701c-6.848,7.766-11.966,17.47-15.893,27.052c-9.374,22.872-6.049,33.419,15.96,45.263
		c45.323,24.393,74.421,60.607,88.53,108.676c2.321,7.908,5.743,15.513,8.656,23.258c1.555-0.135,3.109-0.269,4.664-0.404
		c5.606-21.586,16.653-42.54,10.768-65.823c-7.96-31.492-17.69-62.561-26.417-93.876c-1.707-6.126-2.304-12.543-3.413-18.825
		c1.983-0.342,3.967-0.685,5.95-1.027C604.402,758.532,626.391,808.983,617.096,867.43z M1676.146,2028.324
		c0,81.71-0.661,159.985,0.262,238.244c0.507,42.975,2.902,85.972,5.885,128.865c2.692,38.704,7.345,77.279,11.129,115.912
		c2.982,30.452,5.638,60.938,9.015,91.35c4.228,38.075,8.704,76.132,13.788,114.107c1.833,13.69-0.671,29.393,11.83,39.534
		c4.492,3.644,12.92,5.222,18.704,3.994c3.823-0.812,8.355-8.154,8.692-12.833c0.845-11.778,0.332-23.802-1.131-35.552
		c-5.018-40.288-11.003-80.463-15.987-120.754c-3.813-30.823-6.668-61.758-9.952-92.643c-5.072-47.69-10.441-95.353-15.138-143.079
		c-4.88-49.583-8.475-99.29-13.833-148.821c-3.966-36.671-9.969-73.132-14.844-109.714
		C1681.687,2075.306,1679.236,2053.625,1676.146,2028.324z M1791.513,1764.828c18.79-24.594,34.947-48.124,53.701-69.513
		c14.311-16.322,21.262-33.872,21.487-54.76c0.463-42.984,0.851-85.972,1.878-128.945c0.451-18.873,2.39-37.713,3.653-56.567
		c-24.509,21.498-45.663,44.514-67.44,66.96c-25.665,26.454-40.375,55.984-43.497,93.614
		C1756.891,1668.696,1773.368,1715.993,1791.513,1764.828z M1409.449,1137.373c-9.443-43.608-58.354-76.546-104.206-72.884
		c-51.661,4.126-101.306,17.27-149.095,35.452c-109.733,41.75-223.56,61.313-340.878,64.757
		c-18.082,0.531-36.114,2.688-54.169,4.092c10.371,5.961,20.756,9.775,31.455,12.372c53.852,13.07,108.089,12.767,162.928,5.921
		c80.631-10.066,157.149-32.952,231.091-64.998c21.469-9.305,42.825-19.168,65.035-26.488
		C1302.766,1078.737,1372.827,1079.168,1409.449,1137.373z M641.963,2308.864c2.407-0.844,4.814-1.687,7.221-2.531
		c9.382,21.014,19.044,41.916,28.096,63.063c33.435,78.109,25.9,155.769-3.316,233.732c6.759-4.94,12.813-9.983,16.836-16.252
		c43.989-68.537,53.01-140.317,16.476-214.156c-19.726-39.868-44.816-76.302-89.569-95.208c-19.937-8.422-38.243-6.477-56.93,2.028
		c-10.147,4.618-13.212,11.643-10.018,22.345c4.932,16.526,14.557,28.503,31.433,34.505c19.121,6.8,35.409,17.696,47.371,33.584
		c24.163,32.093,41.056,66.538,36.712,108.097c-2.996,28.661,0.955,41.841,15.641,55.724c2.714-26.687,5.68-53.54,4.468-80.214
		c-1.79-39.384-18.37-75.267-33.111-111.412C648.848,2331.319,645.697,2319.98,641.963,2308.864z M1094.662,1976.875
		c13.216,2.598,25.661,6.899,38.193,7.152c33.89,0.684,67.82-0.205,101.729-0.758c23.908-0.39,42.991-11.602,49.247-28.337
		c8.138-21.767-1.275-45.814-25.802-57.142c-17.146-7.92-36.109-14.72-54.8-16.411c-46.898-4.243-99.593,9.988-118.306,67.022
		c-5.19,15.817-0.338,30.105,14.913,38.666C1097.723,1982.901,1095.988,1979.486,1094.662,1976.875z M1094.972,817.309
		c0.269-1.736,0.538-3.471,0.807-5.207c-15.892-8.307-31.732-16.71-47.688-24.9c-29.248-15.014-58.982-27.788-93.483-25.513
		c-38.028,2.508-76.135,3.897-116.431,5.883c10.208,15.155,19.73,30.134,30.269,44.407c3.033,4.108,8.615,7.298,13.704,8.941
		c8.92,2.88,12.989,8.577,13.529,16.987c0.833,13,8.969,20.912,20.831,22.565c16.921,2.357,35.317,5.982,51.183,1.984
		c37.573-9.469,74.094-22.92,110.863-35.257C1084.494,825.206,1089.523,820.669,1094.972,817.309z M1292.469,710.145
		c-2.9,32.136-34.603,38.375-51.066,59.138c16.02-7.228,32.04-14.457,48.06-21.685c-0.255,5.003-1.915,8.482-4.703,9.947
		c-11.935,6.273-23.72,13.291-36.441,17.583c-31.298,10.561-63.082,19.769-94.553,29.485c4.651,21.466,34.661,35.422,51.096,23.122
		c12.785-9.569,23.248-11.729,36.244-1.973c4.363,3.276,10.055,5.001,15.305,7.035c27.476,10.646,61.437,2.638,79.371-19.94
		c9.612-12.101,20.046-21.531,36.194-23.816c3.614-0.512,7.03-2.477,10.482-3.9c15.055-6.203,17.524-19.271,18.348-32.792
		c0.783-12.847-9.087-17.318-19.415-20.008C1352.515,724.822,1323.487,717.845,1292.469,710.145z M2676.445,1183.18
		c-3.898-1.854-5.794-3.339-7.88-3.661c-32.879-5.064-65.759-10.136-98.712-14.71c-3.707-0.515-8.602,1.014-11.673,3.243
		c-12.027,8.733-23.931,17.702-35.172,27.359c-27.945,24.004-46.476,54.953-65.802,85.285
		c-10.219,16.038-20.656,31.945-31.501,48.694c17.107-7.546,33.202-14.465,49.139-21.709c44.198-20.09,94.507-27.548,130.258-65.126
		C2625.925,1220.667,2651.855,1203.343,2676.445,1183.18z M2009.812,2629.679c7.335,4.576,11.184,8.366,15.77,9.614
		c31.212,8.493,62.127,20.304,93.985,23.813c76.404,8.417,135.982-30.302,193.785-72.412
		c-60.194,14.985-116.875,11.697-168.31-26.576C2102.152,2584.912,2057.813,2606.408,2009.812,2629.679z M369.621,1482.133
		c-9.001,25.036-18.925,49.415-26.446,74.472c-7.381,24.592-13.221,50.077,1.425,74.393c14.963,24.842,29.661,49.934,46.412,73.63
		c13.057,18.47,29.083,34.968,43.79,52.342c1.375-0.728,2.75-1.457,4.125-2.185c0-3.945,0.195-7.901-0.029-11.834
		c-2.943-51.531-5.843-103.064-9.088-154.577c-0.334-5.303-1.741-11.086-4.47-15.615
		C407.117,1542.513,388.399,1512.546,369.621,1482.133z M2159.018,2559.751c35.926,23.171,73.582,35.749,114.782,27.963
		c31.508-5.954,61.553-18.982,92.984-25.567c59.929-12.556,111.206-39.982,158.987-82.286
		c-30.239,8.878-57.759,15.938-84.436,25.264c-11.551,4.038-23.41,10.999-31.427,19.802c-9.233,10.138-14.777,6.93-21.498-0.382
		c-3.025-3.291-4.815-7.65-8.191-13.215c-16.612,29.793-39.932,50.178-76.464,51.31c2.778-3.611,6.35-6.311,10.387-7.42
		c16.321-4.483,30.315-12.112,40.449-25.677c9.653-12.922,19.762-25.541,28.906-38.789c2.284-3.31,1.625-8.529,2.319-12.871
		c-4.723,0.926-10.87,0.339-13.921,3.04c-13.21,11.691-25.577,24.285-38.134,36.661c-12.734,12.552-27.562,18.588-45.945,15.01
		c-21.821-4.247-42.788-13.05-66.25-6.479C2198.267,2532.641,2176.466,2540.505,2159.018,2559.751z M322.084,1589.411
		c12.381-37.599,23.85-71.227,34.336-105.14c2.531-8.187,5.035-18.57,2.048-25.809c-16.592-40.215-34.862-79.78-52.62-119.542
		c-1.647-3.688-3.726-7.194-4.542-8.755c-10.122,31.286-20.932,62.3-29.99,93.788c-4.04,14.046-9.852,30.711-5.641,43.288
		c10.991,32.832,26.889,64.141,41.246,95.88C310.556,1571.157,315.745,1578.532,322.084,1589.411z M1062.127,2634.611
		c-5.839-1.685-8.786-3.062-11.837-3.336c-37.516-3.363-75.041-6.641-112.587-9.662c-2.95-0.237-7.091,0.682-8.962,2.62
		c-13.773,14.268-32.573,18.221-50.656,22.549c-35.086,8.398-70.066,18.721-107.188,12.728c-3.843-0.62-9.007,3.743-12.902,6.626
		c-14.16,10.482-27.974,21.403-42.074,31.962c-3.693,2.766-7.951,4.823-12.149,7.324c15.694,2.821,29.812,5.527,44.004,7.795
		c3.643,0.582,7.688,0.415,11.266-0.475c54.663-13.588,109.673-26.058,163.786-41.478
		C968.034,2658.383,1011.895,2641.012,1062.127,2634.611z M2472.962,2179.193c0.54,0.954,1.08,1.908,1.621,2.863
		c61.336-17.546,122.672-35.092,180.649-51.677c3.939-34.581,7.298-64.068,10.835-95.121c-5.54,2.349-9.797,4.089-13.999,5.946
		c-20.986,9.275-41.603,19.472-63.086,27.49c-10.396,3.88-18.759,8.4-25.498,17.104c-9.049,11.688-18.712,23.046-29.143,33.588
		C2514.263,2139.678,2493.462,2159.296,2472.962,2179.193z M1283.016,710.058c-0.769-2.075-1.537-4.149-2.306-6.224
		c-37.357-1.332-74.8-4.634-112.033-3.109c-16.868,0.691-33.635,10.266-49.839,17.158c-9.399,3.998-13.36,12.398-10.844,22.881
		c2.121,8.834,3.013,18.014,5.863,26.6c5.8,17.474,16.796,25.618,35.641,25.382c9.178-0.115,19.734-1.1,27.223-5.553
		c31.96-19.006,63.251-39.11,94.165-59.691C1276.433,723.809,1279.047,715.978,1283.016,710.058z M1065.338,1870.589
		c7.67,2.463,14.669,7.268,20.316,6.073c21.986-4.656,43.902-10.211,65.156-17.357c19.893-6.688,31.971-20.676,31.261-42.409
		c-0.527-16.119-6.16-30.348-17.993-41.966c-32.924-32.324-84.11-39.24-125.715-16.592c21.928,10.287,47.79,15.705,53.659,43.814
		C1097.565,1828.703,1084.984,1848.887,1065.338,1870.589z M2285.625,2625.933c36.917,17.125,72.881,33.807,108.844,50.489
		c-0.84-6.369-4.058-9.485-5.389-13.232c-2.877-8.095-4.787-16.513-7.093-24.799c8.784-1.479,17.567-2.965,26.357-4.413
		c0.427-0.07,0.909,0.204,1.37,0.297c30.048,6.095,54.56-5.828,78.905-21.369C2423.76,2559.195,2363.069,2561.153,2285.625,2625.933
		z M847.677,1572.382c49.469,1.15,82.928-52.102,61.815-98.382c-8.821-19.337-20.736-24.174-40.615-15.121
		c-28.136,12.813-47.517,34.252-58.823,61.905C800.355,1544.508,820.897,1571.76,847.677,1572.382z M374.692,2590.829
		c-1.065,1.237-2.131,2.474-3.196,3.711c13.338,11.075,26.504,22.354,40.071,33.158c9.587,7.634,20.148,7.19,31.918,4.019
		c30.654-8.258,57.164-23.018,80.282-43.991c40.723-36.943,63.683-81.344,59.646-136.403c-1.312-17.899-6.673-35.13-20.406-49.384
		c-1.641,11.341-2.581,22.711,0.082,33.223c7.769,30.666,3.441,58.012-15.575,84.439
		C513.883,2566.334,445.566,2615.409,374.692,2590.829z M1273.391,2642.667c-83.174-196.629-30.111-371.521,77.302-539.417
		c-21.029,25.052-42.603,49.781-59.132,77.352c-40.758,67.985-65.708,141.917-71.444,220.276
		c-4.875,66.595,2.578,133.04,19.707,197.965C1244.308,2615.839,1250.438,2633.221,1273.391,2642.667z M374.93,2757.53
		c-5.243-2.989-6.702-4.419-8.354-4.674c-47.515-7.346-82.277-36.457-116.991-65.158c-14.046-11.613-22.268-27.153-20.64-45.976
		c2.006-23.193,4.5-46.349,6.352-69.553c0.399-4.999-1.04-10.135-1.632-15.208c-1.812-0.029-3.623-0.059-5.435-0.088
		c-5.179,17.332-11.413,34.446-15.267,52.05c-4.747,21.678-10.24,43.488-4.165,66.082c7.167,26.653,25.05,46.432,42.371,67.067
		c8.614,10.262,17.927,15.403,30.89,15.435C311.636,2757.58,341.211,2757.53,374.93,2757.53z M992.672,1821.024
		c4.918,14.36,8.753,27.356,13.86,39.863c3.663,8.97,11.186,12.341,21.63,11.319c20.87-2.043,45.582-22.399,52.452-44.319
		c7.741-24.699-0.795-42.566-25.088-51.557c-6.95-2.573-14.29-4.235-21.546-5.934c-10.785-2.525-19.837,0.045-24.533,10.43
		C1003.517,1793.941,998.328,1807.372,992.672,1821.024z M357.244,2595.892c0.329,1.96,0.516,4.573,1.223,7.044
		c5.126,17.924,16.733,31.353,31.359,42.831c28.159,22.1,55.276,45.58,84.627,66.061c12.751,8.898,30.691,17.665,44.959,15.985
		c19.357-2.279,37.451-14.643,55.872-22.589C492.214,2686.563,419.324,2651.73,357.244,2595.892z M2624.998,1242.308
		c78.916-19.271,158.685-12.451,233.03-40.37c-41.397-5.169-81.656-10.48-121.992-15.159c-46.552-5.399-46.478-5.057-79.746,27.568
		C2647.214,1223.247,2637.311,1231.355,2624.998,1242.308z M1244.528,1765.455c1.475,5.281,3.066,14.866,6.826,23.57
		c6.228,14.42,25.455,26.251,39.515,24.578c17.156-2.042,25.849-13.593,30.552-28.532c1.64-5.21,2.652-10.617,3.764-15.97
		c3.448-16.603-3.269-30.047-15.918-40.098c-13.676-10.866-29.287-10.845-45.053-3.19
		C1249,1733.198,1245.134,1746.205,1244.528,1765.455z M327.694,2511.424c0-6.729,0.159-11.121-0.028-15.499
		c-0.72-16.858-2.285-33.716-2.157-50.564c0.162-21.255,2.335-42.506,2.128-63.745c-0.051-5.244-6.84-15.206-9.013-14.826
		c-9.559,1.669-20.332,3.292-22.355,16.578c-1.911,12.546-4.411,25.439-9.492,37.007c-9.959,22.673-7.704,45.546-4.066,68.542
		c0.699,4.415,5.166,10.089,9.365,11.809C302.728,2505.088,314.214,2507.537,327.694,2511.424z M2566.755,2480.325
		c-2.101,0.25-4.529-0.078-6.252,0.839c-18.545,9.865-37.524,19.097-55.32,30.118c-30.082,18.63-57.427,41.908-93.596,49.683
		c-4.984,1.072-10.055,1.769-18.038,3.15c4.467,2.036,5.666,3.083,6.812,3.031c32.301-1.461,59.776,9.943,84.709,28.952
		c4.267,3.253,10.305,4.322,16.375,6.738C2503.196,2550.42,2524.05,2510.164,2566.755,2480.325z M1817.729,1885.163
		c-0.02,19.202,6.295,26.733,20.743,21.49c15.26-5.538,30.25-13.027,43.489-22.198c13.071-9.055,19.232-23.414,20.071-39.36
		c0.79-15.011-6.21-22.713-20.979-23.045C1845.343,1821.246,1817.768,1848.729,1817.729,1885.163z M1812.309,1813.953
		c-3.223,15.981-5.98,29.725-8.771,43.463c-2.906,14.303-7.128,28.492-8.408,42.928c-1.275,14.387-0.622,29.133,1.122,43.5
		c1.114,9.181,8.183,15.798,18.631,15.586c13.737-0.279,27.878,0.024,40.993-3.19c6.404-1.57,14.101-9.907,15.431-16.309
		c1.743-8.396,0.146-19.271-4.34-26.589c-5.55-9.054-14.053-1.47-21.01,1.762c-15.524,7.215-27.789,4.095-34.043-10.211
		c-6.93-15.851-8.787-32.22-1.275-48.907c8.149-18.102,20.457-31.834,40.583-38.385c-0.309-1.216-0.617-2.433-0.926-3.65
		C1837.33,1813.953,1824.364,1813.953,1812.309,1813.953z M786.753,2646.441c0.944,1.562,1.888,3.124,2.831,4.686
		c45.547-4.927,91.446-8.581,132.895-35.776c-27.984-7.486-42.649-24.875-47.966-50.487c-9.996,3.461-19.568,6.776-31.336,10.85
		c4.123,8.673,8.094,17.025,12.739,26.796c-12.877,5.913-26.274,10.481-37.807,17.807
		C806.68,2627.578,797.128,2637.619,786.753,2646.441z M1173.557,2097.285c-17.536,18.081-32.179,33.885-39.527,54.885
		c-22.758,65.039-33.32,131.328-18.968,199.437c5.657,26.846,14.923,52.977,22.545,79.433c1.602-0.398,3.203-0.796,4.805-1.194
		c-0.838-9.355-1.515-18.727-2.545-28.062c-3.359-30.459-6.177-60.994-10.437-91.336c-6.825-48.612-7.856-96.894,10.316-143.446
		C1148.645,2144.205,1161.083,2122.707,1173.557,2097.285z M2585.539,2054.759c4.239-0.328,6.055-0.06,7.509-0.642
		c24.739-9.892,49.521-19.694,74.057-30.042c4.51-1.902,9.269-5.381,11.71-9.392c10.938-17.967,21.079-36.39,31.075-53.891
		c-13.904,2.697-29.032,4.963-43.732,8.778c-6.854,1.779-14.62,5.15-18.986,10.217
		C2626.555,2003.714,2606.971,2028.478,2585.539,2054.759z M314.482,2282.495c-1.05-0.965-2.099-1.93-3.149-2.894
		c-6.951,3.794-14.168,7.2-20.806,11.453c-25.222,16.158-38.716,40.735-48.634,67.143c-2.105,5.604,2.049,13.417,3.319,20.213
		c5.555-1.247,11.186-2.24,16.648-3.794c11.876-3.379,23.453-8.45,35.554-10.179c11.117-1.587,15.448-4.58,11.803-15.681
		c-5.142-15.661-5.08-31.218,1.485-46.822C313.219,2295.951,313.294,2289.003,314.482,2282.495z M347.34,2270.823
		c-0.25-0.83-0.501-1.66-0.751-2.49c-7.114,2.473-19.011,3.393-20.496,7.693c-5.749,16.647-11.493,34.507-10.739,51.647
		c0.546,12.417,10.073,25.317,18.25,36.111c2.943,3.884,24.343-15.625,28.495-28.905c4.593-14.692,6.917-30.074,11.883-44.625
		c4.304-12.609-2.715-16.726-12.553-19.241C357.021,2269.887,352.053,2270.823,347.34,2270.823z M2104.502,2352.875
		c3.625,73.485-10.735,141.267-26.448,208.931C2126.909,2532.946,2143.129,2415.295,2104.502,2352.875z M1267.453,1102.298
		c0.219,0.312,0.382,0.827,0.668,0.902c1.793,0.47,3.687,0.65,5.413,1.276c36.839,13.344,81.508,16.633,90.088,68.105
		c14.942-6.375,28.817-12.295,42.58-18.167C1389.801,1106.291,1316.718,1079.37,1267.453,1102.298z M2274.961,2485.457
		c-21.848-1.679-43.979-3.599-66.151-4.8c-2.671-0.145-6.18,3.136-8.22,5.652c-3.455,4.262-5.401,9.745-9.104,13.736
		c-29.634,31.937-63.867,57.925-104.7,75.329c-5.573,2.375-10.561,6.042-15.819,9.112c0.64,1.177,1.281,2.354,1.921,3.53
		c20.427-8.648,40.948-17.101,61.217-26.085c4.979-2.207,9.299-5.958,13.648-9.331c22.41-17.373,43.776-35.774,75.642-35.433
		c11.277,0.121,23.927-3.928,33.541-9.788C2265.092,2502.408,2269.777,2492.086,2274.961,2485.457z M1294.669,1393.089
		c23.203-2.745,47.072-5.569,72.735-8.606c2.617-33.502,5.202-66.587,7.839-100.333
		C1348.063,1320.899,1321.708,1356.532,1294.669,1393.089z M388.176,2311.649c-7.767-2.742-10.643,1.241-12.169,10.078
		c-1.518,8.792-5.366,17.372-9.25,25.574c-5.528,11.676,0.317,27.29,13.116,30.324c8.61,2.041,17.76,2.613,26.669,2.611
		c9.53-0.002,30.483-37.304,26.065-45.458c-0.208-0.385-0.62-0.665-0.931-0.999C420.378,2321.682,407.902,2311.679,388.176,2311.649
		z M493.808,1427.228c-6.132,14.417-1.288,66.424,7.151,78.375c6.73,9.531,14.981,8.147,22.907,2.229
		c13.082-9.77,18.817-23.559,20.121-39.085c1.824-21.711-0.63-25.019-21.441-31.835
		C513.257,1433.87,504.022,1430.676,493.808,1427.228z M134.867,2663.479c1.315-0.59,2.63-1.18,3.945-1.77
		c-2.129-29.821-8.235-60.02-5.271-89.358c2.977-29.46,14.99-58.061,24.261-91.42c-7.09,4.926-13.007,7.254-16.155,11.507
		c-24.521,33.127-28.37,72.565-34.948,111.103c-0.43,2.521,0.492,5.486,1.499,7.972c4.307,10.624,8.399,21.372,13.526,31.626
		C125.302,2650.296,130.431,2656.725,134.867,2663.479z M959.411,905.802c-20.843,2.095-36.905,10.172-46.946,29.379
		c-11.277,21.571-5.713,41.341,2.14,62.698C953.485,966.208,967.021,938.171,959.411,905.802z M1739.374,1893.863
		c4.12,18.026,7.189,35.303,12.22,52.025c3.036,10.092,13.01,8.703,21.594,7.539c8.096-1.098,7.771-6.79,8.491-13.031
		c2.964-25.699,6.756-51.308,10.127-76.964c1.58-12.026,2.897-24.085,4.333-36.129c-2.115-0.455-4.23-0.911-6.345-1.366
		c-7.167,19.019-14.925,37.856-21.257,57.134c-3.233,9.844-6.549,16.121-18.487,10.911
		C1748.121,1893.139,1745.465,1893.863,1739.374,1893.863z M338.146,2475.137c16.026-17.777,25.112-43.035,30.478-68.641
		c3.958-18.887-4.166-30.307-16.386-41.644C333.234,2375.976,325.149,2440.982,338.146,2475.137z M799.509,2252.767
		c33.106,36.68,78.253,50.053,124.018,64.608C891.768,2277.795,854.485,2250.256,799.509,2252.767z M899.883,944.133
		c10.014-28.857,30.361-41.865,56.037-48.786c13.815-3.724,22.92-12.878,31.68-25.071c-4.435,0-7.117-0.195-9.76,0.031
		c-21.345,1.824-42.711,3.487-63.995,5.846c-3.476,0.385-7.45,3.303-9.708,6.155C889.527,900.76,894.141,920.908,899.883,944.133z
		 M284.346,2375.935c-40.705,10.177-61.144,32.655-61.816,67.05C280.826,2431.764,285.387,2418.145,284.346,2375.935z
		 M1681.225,1856.237c10.946-25.543,21.223-49.521,33.107-77.252c-19.893,4.668-36.193,7.941-52.013,12.71
		c-2.891,0.871-6.257,8.527-5.247,11.871c4.468,14.791,10.165,29.264,16.09,43.59
		C1674.657,1850.771,1678.639,1853.419,1681.225,1856.237z M2752.58,1892.317c-16.605,7.858-31.995,15.1-47.341,22.427
		c-5.411,2.584-12.573,4.087-15.71,8.327c-8.431,11.395-15.121,24-23.048,37.022c16.125-3.633,32.07-7.063,47.898-10.938
		c2.965-0.726,6.557-2.614,8.007-5.017C2732.672,1927.101,2742.476,1909.792,2752.58,1892.317z M444.977,2347.09
		c-8.684,12.488-16.756,24.189-24.929,35.823c-8.702,12.387,2.641,19.801,8.937,26.638c2.74,2.975,14.507,2.022,19.169-1.215
		C469.651,2393.41,468.303,2366.492,444.977,2347.09z M543.336,2321.849c0.628-14.528-11.423-29.208,2.265-39.938
		c10.696-8.385,24.336-13.242,36.221-19.434c-16.83-16.526-40.045-14.848-62.604-17.591
		C522.064,2286.302,525.963,2298.856,543.336,2321.849z M397.577,2455.084c20.05-22.158,21.874-40.52,5.919-59.58
		c-7.264-8.677-18.415-9.107-22.835-0.881C366.599,2420.793,371.679,2438.949,397.577,2455.084z M1634.655,1844.032
		c-7.755,44.525,0.442,88.662-18.862,129.713c7.768-6.533,14.037-13.675,17.476-21.926c5.773-13.853,8.824-28.779,14.679-42.593
		C1658.105,1885.261,1650.538,1865.256,1634.655,1844.032z M1948.459,2636.244c-5.676,21.302-10.715,40.215-15.755,59.128
		c1.384,0.859,2.767,1.718,4.151,2.577c17.626-10.285,35.251-20.571,54.095-31.567
		C1977.808,2657.062,1964.016,2647.279,1948.459,2636.244z M271.195,2439.997c-16.971,5.994-32.066,11.325-47.744,16.862
		c8.539,22.795,26.995,29.923,47.744,36.789C271.195,2475.764,271.195,2459.086,271.195,2439.997z M364.523,2447.59
		c-9.181,19.736-17.228,37.033-25.275,54.33c1.517,0.81,3.033,1.619,4.55,2.429c22.058-6.384,35.314-23.021,50.826-40.547
		C384.291,2458.236,375.838,2453.684,364.523,2447.59z M2619.719,1983.702c1.145,0.665,2.29,1.329,3.435,1.994
		c16.526-18.043,33.052-36.086,50.909-55.583c-12.378,0-21.868-1.13-30.847,0.457c-4.795,0.847-11.137,5.622-12.575,9.94
		C2625.958,1954.581,2623.211,1969.258,2619.719,1983.702z M1684.328,1070.885c-32.612,8.08-74.9,50.885-77.724,75.775
		c4.615,1.9,9.327,3.84,15.651,6.443C1628.757,1117.38,1655.057,1095.431,1684.328,1070.885z M865.318,1445.974
		c-39.16-4.17-59.331,12.386-56.281,47.186C827.87,1477.37,847.164,1461.195,865.318,1445.974z M1753.523,1884.276
		c10.14-22.31,19.54-42.993,28.86-63.5C1760.187,1828.969,1741.472,1866.767,1753.523,1884.276z M422.409,2191.893
		c0,10.543,0,18.036,0,24.292c16.378-2.498,31.924-4.869,51.278-7.821C455.233,2202.436,439.7,2197.447,422.409,2191.893z
		 M724.09,2726.077c0.116-1.429,0.232-2.858,0.348-4.288c-12.703-2.84-25.383-5.785-38.139-8.379
		c-1.465-0.298-3.333,1.404-5.049,2.098c-6.091,2.464-12.197,4.894-18.298,7.336c0.133,1.078,0.266,2.156,0.4,3.233
		C683.597,2726.077,703.844,2726.077,724.09,2726.077z M1140.436,1993.376c-12.826-0.742-24.18-1.398-32.937-1.904
		c6.297,9.006,13.144,18.798,21.563,30.837C1133.315,2011.491,1136.697,2002.887,1140.436,1993.376z M1125.573,820.201
		c8.99-4.281,14.827-7.06,20.664-9.839c-0.007-1.3-0.013-2.6-0.02-3.899c-5.298-1.978-10.595-3.956-16.517-6.166
		C1128.241,807.334,1127.272,812.009,1125.573,820.201z M2168.956,2506.12c1.016,0.315,2.031,0.629,3.046,0.944
		c3.397-3.599,7.691-6.762,9.863-10.957c1.363-2.633-0.461-6.817-0.856-10.305c-3.176,1.563-8.063,2.402-9.16,4.843
		C2169.747,2495.323,2169.798,2500.91,2168.956,2506.12z"/>
	<path d="M1573.218,1181.454c0,20.961,1.421,42.029-0.237,62.866c-8.943,112.441-11.494,225.056-11.732,337.773
		c-0.23,109.077-0.827,218.153-1.51,327.228c-0.066,10.477-1.019,21.118-3.216,31.349c-1.288,5.997-5.852,11.332-10.805,20.359
		c1.719-36.072,4.343-67.53,4.521-99.002c0.764-134.74-0.328-269.5,1.585-404.221c0.974-68.588,6.903-137.108,10.541-205.662
		c1.068-20.125,1.795-40.269,3.066-60.381c0.25-3.956,2.283-7.806,3.494-11.704
		C1570.356,1180.525,1571.787,1180.989,1573.218,1181.454z"/>
	<path d="M1523.11,1959.072c-9.412-22.167-4.471-523.024,4.191-539.873c0,178.486,0,359.189,0,539.892
		C1525.904,1959.085,1524.507,1959.078,1523.11,1959.072z"/>
	<path d="M1610.215,1182.462c0,18.972,0.219,37.947-0.036,56.915c-1.476,109.497-3.1,218.993-4.536,328.491
		c-0.102,7.767,1.487,15.573,1.143,23.313c-0.154,3.453-3.155,6.788-7.693,9.363c-0.98-140.074-6.262-279.462,3.58-418.543
		C1605.187,1182.154,1607.701,1182.308,1610.215,1182.462z"/>
	<path d="M1448.507,1192.425c1.18,3.972,3.418,7.953,3.385,11.916c-0.897,105.343-2.045,210.685-3.101,316.027
		c-0.156,15.56,0.142,31.127-0.275,46.678c-0.076,2.851-2.587,5.642-3.974,8.46c-2.119-2.723-6.084-5.45-6.079-8.169
		c0.076-37.549,0.853-75.095,1.152-112.645c0.624-78.319,0.997-156.641,1.679-234.959c0.077-8.893,1.467-17.775,2.248-26.662
		C1445.197,1192.855,1446.852,1192.64,1448.507,1192.425z"/>
	<path d="M1465.717,1878.934c12.986,27.082,10.209,56.53,10.953,85.45C1465.845,1936.978,1462.75,1908.412,1465.717,1878.934z"/>
	<path d="M1684.778,1898.554c4.22,19.744-7.707,53.888-22.524,59.062C1669.318,1939.095,1676.38,1920.574,1684.778,1898.554z"/>
	<path d="M1214.945,1249.673c-3.032,2.95-5.513,7.134-9.176,8.67c-75.311,31.567-151.414,60.348-233.496,71.779
		c-56.847,7.917-112.808,4.363-168.815-5.456c-6.453-1.131-13.334-0.373-19.591-2.016c-4.319-1.134-7.904-4.897-11.817-7.486
		c0.837-1.764,1.674-3.527,2.511-5.291c8.485,1.308,17.049,2.251,25.441,3.984c67.376,13.914,134.577,14.079,202.282,0.924
		c67.511-13.118,130.6-37.986,193.437-63.962c3.453-1.428,6.969-2.741,10.533-3.88c1.674-0.535,3.532-0.526,5.307-0.764
		C1212.688,1247.341,1213.817,1248.507,1214.945,1249.673z"/>
	<path d="M1339.694,1209.317c-32.966,65.222-78.341,120.797-138.678,164.401C1247.242,1318.918,1293.468,1264.118,1339.694,1209.317
		z"/>
	<path d="M1731.299,1141.651c7.069,1.987,11.702,4.09,16.495,4.515c56.985,5.057,113.862,5.482,170.696-2.673
		c48.869-7.012,97.795-13.904,146.899-19.004c19.008-1.974,38.804-0.407,57.843,2.235c38.355,5.322,75.104-0.75,111.556-11.096
		c10.081-2.861,19.936-6.47,29.894-9.735c-0.227-1.249-0.454-2.498-0.68-3.747c-29.937,2.199-59.909,4.048-89.797,6.76
		c-13.084,1.187-14.548,1.024-14.657-10.672c52.934,0,105.865,0,158.797,0c0.226,1.092,0.453,2.184,0.679,3.276
		c-2.035,1.59-3.835,4.062-6.14,4.638c-34.983,8.745-69.682,19.186-105.176,25.179c-28.054,4.737-57.469,7.495-85.626,4.774
		c-43.435-4.197-85.523,0.06-127.853,7.406c-76.014,13.191-152.446,19.795-229.657,12.651c-10.77-0.997-21.497-2.434-33.841-3.85
		C1730.906,1149.009,1731.098,1145.419,1731.299,1141.651z"/>
	<path d="M2213.731,1168.413c4.562-3.561,8.566-8.594,13.774-10.446c36.097-12.835,72.433-25.042,108.725-37.362
		c6.099-2.07,12.263-4.403,18.584-5.188c2.351-0.292,5.242,3.509,7.886,5.443c-2.279,1.726-4.292,4.22-6.877,5.064
		c-46.486,15.182-93.04,30.166-139.58,45.191C2215.406,1170.215,2214.569,1169.314,2213.731,1168.413z"/>
	<path d="M1895.772,1190.636c41.392-4.342,78.808-8.267,119.022-12.485c-2.005,2.68-3.649,7.444-6.351,8.099
		c-34.492,8.351-69.625,10.214-105.023,8.376C1902.25,1194.565,1901.138,1193.485,1895.772,1190.636z"/>
	<path d="M1665.381,1209.929c12.466,12.73,26.4,24.414,37.037,38.447c14.108,18.612,26.384,38.654,38.07,58.832
		c11.436,19.746,21.143,40.433,31.835,61.145c-3.758-2.185-9.639-4.005-12.994-7.88c-7.521-8.685-16.809-17.507-20.029-27.839
		c-12.431-39.887-38.037-71.035-66.102-101.016c-4.845-5.176-8.341-11.539-12.46-17.354
		C1662.285,1212.819,1663.833,1211.374,1665.381,1209.929z"/>
</g>
</svg>
