<?xml version="1.0" encoding="utf-8"?>
<!-- Generator: Adobe Illustrator 27.5.0, SVG Export Plug-In . SVG Version: 6.00 Build 0)  -->
<svg xmlns="http://www.w3.org/2000/svg" xmlns:xlink="http://www.w3.org/1999/xlink" viewBox="0 0 5000 5000" width="595" height="842" preserveAspectRatio="xMidYMid meet" data-scaled="true">
<g>
	<path d="M4383.694,1292.265c25.562-10.576,95.771-28.169,112.5-44.59c3.369-3.306,3.828-4.995,4.741-9.404
		c-5.2-8.091-11.943-10.635-21.186-12.715c-21.011-4.731-44.141-5.376-65.601-6.211c-123.311-4.766-241.821,34.878-344.033,102.349
		c-120.688,79.673-209.341,202.309-238.564,344.756c-18.306,89.233-12.446,178.95,9.297,267.011
		c50.044,202.695,183.462,379.804,110.84,599.028c-1.367,4.154-2.818,8.28-4.351,12.378c-1.536,4.095-3.156,8.156-4.858,12.182
		c-1.706,4.03-3.491,8.022-5.356,11.978c-1.868,3.955-3.817,7.869-5.845,11.743c-2.028,3.877-4.136,7.708-6.323,11.494
		c-2.185,3.789-4.447,7.531-6.787,11.226c-2.34,3.695-4.756,7.34-7.246,10.938c-2.49,3.597-5.053,7.14-7.69,10.63
		c-2.633,3.49-5.34,6.924-8.12,10.302c-2.776,3.379-5.622,6.699-8.535,9.961c-2.913,3.261-5.894,6.463-8.94,9.604
		c-3.043,3.138-6.152,6.212-9.326,9.223c-3.171,3.011-6.403,5.956-9.697,8.833c-3.294,2.877-6.646,5.687-10.054,8.428
		c-3.408,2.741-6.872,5.41-10.391,8.008c-3.519,2.598-7.09,5.122-10.713,7.573c-80.737,54.307-168.506,60.781-262.119,42.065
		c-158.027-31.597-317.539-132.876-438.184-237.612c-148.955-129.312-254.208-254.326-442.607-334.526
		c-94.526-40.244-197.226-61.655-299.199-71.587c-134.795-13.135-270.952,5.488-392.075-69.79
		c-4.788-3.011-9.492-6.147-14.111-9.409c-4.619-3.265-9.146-6.65-13.579-10.156c-4.437-3.509-8.778-7.134-13.022-10.874
		c-4.241-3.74-8.379-7.591-12.412-11.553c-4.033-3.965-7.959-8.034-11.777-12.207c-3.815-4.173-7.515-8.447-11.099-12.822
		c-3.587-4.372-7.053-8.838-10.396-13.398c-3.346-4.561-6.567-9.207-9.663-13.94c-16.553-25.322-28.184-52.373-38.872-80.566
		c11.963-19.118,23.665-38.395,35.107-57.832c155.434,31.099,304.394,57.437,462.295,22.788
		c48.604-10.664,96.221-26.035,138.018-53.701c32.69-21.636,61.631-51.723,70.22-91.216c8.1-37.221-4.087-69.067-21.138-101.343
		c62.749-28.042,115.469-62.314,140.556-129.155c31.167-83.032,11.968-241.797-24.883-322.168
		c-28.637-62.441-116.025-107.505-162.436-160.308c18.286-88.784,37.431-173.154-16.152-253.794
		c-21.035-31.65-49.834-57.085-70.747-88.311c5.83-50.542,6.572-125.297-26.357-167.983c-11.68-15.141-27.803-25.38-46.944-27.7
		c-34.038-4.126-62.612,15.999-88.491,35.047c-54.839-7.617-94.702-38.772-140.737-67.183
		c-100.059-61.755-225.869-120.142-346.206-106.027c-29.131,2.851-56.9,13.724-85.317,16.115
		c-22.109,1.86-45.488-1.454-67.642-2.287c-19.053-0.654-38.083-0.271-57.09,1.149c-19.01,1.42-37.887,3.87-56.631,7.349
		c-27.054,5.509-53.475,13.192-79.263,23.05c-19.746,7.436-40.952,19.049-61.933,21.844c-55.239,7.359-110.874-13.709-165.503,8.089
		c-37.3,14.881-67.187,53.521-92.056,83.79C918.881,655.18,804.731,946.923,832.192,1226.923
		c23.144,236.05,123.359,381.631,246.411,575.537c34.375,54.17,77.212,113.652,93.34,176.284
		c12.06,46.831,27.471,110.679,20.664,158.428c-3.281,22.988-17.412,45.459-25.361,67.295c-5.231,14.199-9.854,28.595-13.867,43.188
		c-4.014,14.59-7.406,29.324-10.176,44.204c-2.767,14.876-4.901,29.844-6.401,44.902c-1.504,15.059-2.368,30.155-2.593,45.288
		c-0.688,46.909,6.055,92.769,14.8,138.697c3.999,21.025,10.029,42.612,11.567,63.926c2.524,34.912-12.686,71.465-12.705,107.412
		c-0.034,66.836,15.391,131.704,19.37,198.066c-27.558-7.598-70.127-15.22-92.764-32.178c-12.007-8.999-20.942-22.016-33.706-30.005
		c-25.298-15.84-121.968-57.671-150.317-55.234c-8.164,0.703-17.275,5.039-24.697,8.457c-25.669,11.812-49.868,27.402-74.941,40.493
		c-23.74,12.393-48.887,22.28-72.251,35.327c-47.368,26.455-79.048,79.214-121.03,113.344
		c-18.164,14.766-43.115,19.673-59.17,37.056c-9.854,10.669-16.372,27.92-20.225,41.816c-8.091,29.165-9.141,65.4,6.103,92.339
		c4.107,7.261,9.678,13.911,14.849,20.435c-4.224,35.547-1.362,56.06,19.682,85.371c-0.088,82.827,23.589,161.621,82.974,221.699
		c4.414,4.385,8.975,8.612,13.682,12.681c4.707,4.066,9.549,7.966,14.526,11.699c4.977,3.73,10.076,7.285,15.298,10.664
		c5.225,3.379,10.56,6.572,16.006,9.58c5.446,3.008,10.99,5.823,16.631,8.448c5.641,2.623,11.366,5.048,17.173,7.275
		c5.811,2.227,11.689,4.25,17.637,6.069c5.951,1.816,11.956,3.426,18.018,4.829c-48.032-73.862-86.787-147.158-86.86-237.09
		c25.068-6.406,42.231-15.923,55.718-39.145c18.745-32.285,20.64-68.301,19.893-104.634l30.967-14.365
		c-4.697,35.488-14.971,96.143,8.955,126.358c18.828,23.764,22.793,48.066,34.565,75.127
		c34.722,79.79,99.141,125.42,185.762,133.383c16.05,1.475,32.036,1.382,48.135,1.084
		c-60.322-59.868-112.158-112.539-113.564-202.739c25.332-25.298,46.201-52.617,46.675-90.269
		c0.254-19.922-5.659-37.603-15.757-54.526c15.542-33.203,15.493-56.04,10.767-91.885c77.256,35.825,237.334,121.157,319.638,91.099
		c34.399-12.563,58.838-40.459,73.389-73.213c4.228-9.577,7.733-19.412,10.513-29.507c2.777-10.092,4.797-20.334,6.06-30.728
		c35.718,36.323,72.705,69.702,111.616,102.578c-22.529,29.053-29.38,54.238-28.447,90.723
		c-10.171,17.427-20.85,34.336-25.225,54.307c-5.21,23.789-0.317,48.286,0.415,72.314c1.211,40.073-2.876,75.254,7.603,114.76
		c14.824,55.908,44.814,93.847,94.375,122.851c-7.349-68.247-18.467-191.928,27.969-249.38c1.162-1.436,2.51-2.617,3.848-3.896
		l3.403,1.147c7.363,22.198,1.611,51.929,2.881,75.547c0.688,12.817,3.535,26.201,5.908,38.818
		c6.465,34.39,17.197,66.596,35.229,96.719c15.142,25.298,34.624,45.049,55.2,65.879c54.024,54.692,108.569,98.198,177.739,132.896
		c41.812,20.972,85.796,37.793,129.473,54.424c-50.439,142.636-150.923,246.137-286.353,311.025
		c-31.792,15.234-75.63,38.53-110.664,39.629c-22.427,0.703-44.253-3.579-66.45,1.655c-39.888,9.409-64.98,34.399-98.97,45.508
		c-23.33,7.627-49.189,5.444-72.808,12.759c-117.695,36.431-215.024,121.729-257.007,238.921
		c-14.497,40.483-20.483,82.485-13.447,125.073c76.577-69.404,158.686-121.44,265.703-122.388
		c-38.369,83.536-59.614,172.065-36.709,263.052l2.012-1.924c19.385-18.848,35.986-40.508,54.521-60.21
		c66.768-70.971,127.666-114.849,220.195-146.436c26.245,4.444,52.617,8.516,78.711,13.77
		c-22.837,90.2-41.333,187.529,5.405,273.818c41.543-69.067,92.91-139.312,160.444-184.799
		c59.224,16.977,124.57,18.618,180.068-11.641c21.66-11.812,39.653-31.279,61.396-41.958c16.47-8.091,36.914-11.675,54.409-17.657
		c56.733-19.394,95.063-56.826,111.68-114.868c19.438-67.9,16.147-142.192,22.52-212.07c3.711-40.761,12.387-81.04,22.983-120.532
		c13.442-50.102,33.13-99.858,54.99-146.865c17.935-38.559,46.216-79.58,53.447-121.577c4.995-28.989-5.313-59.624-19.585-84.78
		c-26.86-47.334-70.996-71.47-116.997-96.831c9.233-27.031,24.131-52.627,37.119-78.037c37.367,6.237,74.866,11.533,112.5,15.889
		c37.63,4.352,75.347,7.759,113.149,10.22c37.806,2.461,75.648,3.973,113.525,4.536c37.877,0.56,75.747,0.171,113.608-1.167
		c83.257,113.75,177.407,202.612,316.885,241.118c34.897,111.865-5.64,222.315-57.817,322.144
		c-14.863,28.433-31.235,56.626-50.205,82.524c-7.568,9.438-15.356,20.566-24.687,28.267
		c-32.246,26.626-77.407,28.594-110.459,57.661c-44.585,39.209-39.966,76.45-59.141,126.851
		c-7.447,19.57-24.761,37.368-34.932,55.918c-34.38,62.709-50,140.532-42.437,211.401c3.96,37.1,14.707,78.047,40.029,106.533
		c45.059-81.069,116.689-168.93,200.161-211.895c30.429,3.398,59.76,3.73,90.288,1.743l21.138,12.461
		c0.005,83.711,20.103,174.561,80.918,236.284c8.545,8.672,17.934,16.045,28.076,22.764
		c22.197-80.742,55.146-151.729,99.063-222.734c46.557-6.333,83.608-13.159,124.262-38.359c13.335,7.808,27.74,11.929,42.886,14.673
		c25.283,63.423,56.23,136.772,110.879,180.811c37.241-63.193,52.993-133.281,67.973-204.238
		c36.328-37.53,70.161-76.431,68.902-131.821c-2.222-97.476-48.609-189.985-83.457-279.17
		c-22.476-57.51-42.886-117.622-54.722-178.306c-10.332-55.635-16.39-111.73-18.174-168.286
		c-3.589-94.976,12.866-176.055-63.286-247.866c-11.978-11.289-25.22-21.748-38.208-31.861
		c47.393-0.263,95.649-8.564,142.173-17.153c7.106-1.309,14.199-2.687,21.279-4.136c7.08-1.446,14.146-2.959,21.196-4.541
		c7.051-1.582,14.085-3.231,21.104-4.946c7.018-1.719,14.02-3.503,21.006-5.352c6.982-1.852,13.948-3.771,20.898-5.757
		c6.947-1.986,13.874-4.037,20.781-6.152c6.91-2.119,13.799-4.303,20.664-6.553c6.865-2.25,13.709-4.564,20.532-6.943
		c6.823-2.383,13.621-4.829,20.396-7.339c6.777-2.513,13.529-5.089,20.254-7.729c6.726-2.64,13.425-5.345,20.098-8.115
		c6.677-2.77,13.323-5.604,19.941-8.501c6.621-2.897,13.213-5.857,19.775-8.882c6.563-3.021,13.096-6.107,19.6-9.258
		c6.504-3.147,12.977-6.357,19.419-9.629c6.442-3.275,12.852-6.61,19.229-10.005s12.721-6.852,19.033-10.371
		c6.312-3.516,12.59-7.093,18.833-10.732s12.451-7.337,18.623-11.094c6.172-3.757,12.308-7.571,18.408-11.445
		c6.1-3.877,12.162-7.811,18.184-11.802s12.007-8.039,17.954-12.144c5.947-4.105,11.854-8.266,17.72-12.485
		c5.866-4.222,11.691-8.498,17.476-12.827c5.781-4.33,11.522-8.716,17.222-13.159c5.7-4.44,11.357-8.936,16.973-13.487
		c5.615-4.548,11.185-9.15,16.709-13.809c5.524-4.655,11.004-9.364,16.441-14.126c5.436-4.762,10.825-9.575,16.167-14.438
		c5.341-4.866,10.637-9.782,15.884-14.746c5.25-4.967,10.452-9.983,15.605-15.049c5.149-5.069,10.252-10.184,15.308-15.347
		c161.704-163.291,270.381-363.228,268.876-598.032c-0.898-141.182-35.249-276.606-95.717-403.789
		c-24.395-51.608-51.83-101.546-82.305-149.814c-37.881-59.971-79.937-119.023-111.343-182.715
		c-78.486-159.189-81.953-330.952,49.072-463.061C4247.864,1358.271,4313.987,1321.108,4383.694,1292.265z M4111.316,1333.09
		l0.674,0.572l0.142,2.607c-11.377,11.221-23.535,22.134-34.443,33.774c-13.736,14.653-28.086,47.94-47.632,53.179l-10.396-6.533
		l-9.317-6.137C4017.161,1390.693,4090.789,1344.745,4111.316,1333.09z M3924.837,1522.709
		c14.482-27.983,38.115-66.567,69.302-76.846c7.993-0.918,15.098-1.436,23.115-0.649c0.361,1.226,1.113,2.402,1.079,3.682
		c-0.127,4.561-17.715,38.086-20.493,44.805c-7.148,17.314-12.441,35.049-17.622,53.022l-19.639-13.062
		c-13.477-3.33-25.728-3.262-39.472-3.086C3922.265,1527.913,3923.509,1525.291,3924.837,1522.709z M3895.691,1589.33
		c19.277-14.844,35.767-24.209,59.063-31.382c8.418-0.62,14.233-1.68,21.548,2.729c2.949,17.393-6.182,49.326-7.314,68.955
		c-1.396,24.214-0.044,48.452,1.104,72.647l-3.54-1.47c-28.501-11.748-50.708-14.365-79.722-2.236
		c-8.628,5.395-16.494,12.304-24.448,18.647C3868.416,1673.862,3878.245,1629.608,3895.691,1589.33z M3887.112,1943.148
		c-18.11-56.318-27.622-110.703-27.822-169.932c19.927-31.714,39.829-49.004,75.454-61.299c8.809-0.825,19.634-1.709,27.993,1.636
		c5.347,2.134,7.476,3.96,9.849,9.311c8.545,19.258,8.94,46.504,14.287,67.349c10.112,39.39,25.967,77.188,42.202,114.365
		c-4.067-2.734-7.92-5.186-12.471-7.061c-29.341-12.095-54.956-7.305-83.33,3.789
		C3913.289,1912.304,3900.74,1925.097,3887.112,1943.148z M3966.873,2157.323c-15.273-33.643-54.849-116.133-57.158-148.999
		c-1.499-21.304,8.511-40.991,22.1-56.753c26.274-30.479,58.354-41.035,97.075-43.677l2.954,0.991
		c32.764,56.523,61.494,115.752,90.034,174.487c24.214,49.834,49.478,99.492,67.891,151.85
		c11.831,33.638,19.731,69.199,28.604,103.745c-31.768-32.227-75.645-57.602-121.68-60.088c-35.864-1.933-64.57,8.853-90.786,32.656
		l-11.006-46.504c-4.141-15.454-7.251-30.889-10.088-46.631c10.527-25.112,21.738-48.623,39.829-69.258
		c29.429-33.564,62.866-43.394,106.104-46.338c-25.845-14.009-49.785-20.815-79.395-13.95
		C4011.829,2098.021,3987.371,2124.369,3966.873,2157.323z M3360.687,2722.489c13.353,26.081,25.249,52.811,35.688,80.191
		c10.439,27.38,19.362,55.244,26.768,83.594c7.578,33.877,11.016,68.696,13.281,103.286c29.37-86.294,34.214-148.799,7.383-236.841
		c21.763,7.07,43.618,14.194,65.903,19.429c21.03,4.937,45.278,7.573,65.151,15.972c30.996,13.105,76.489,56.685,96.26,84.033
		c36.406,50.361,38.52,108.521,29.087,167.979c15.522-25.85,27.676-52.217,33.042-82.094c11.64-64.82-8.887-116.133-45.459-168.662
		c40.386-7.07,78.335-20.103,116.909-33.53c32.188,7.368,64.434,14.79,94.16,29.673c57.632,28.848,78.535,74.39,97.607,132.705
		c7.681-38.809,9.243-78.779-8.477-115.205c-24.18-49.702-69.321-72.534-119.199-89.824c22.256-19.306,46.626-39.258,64.204-63.12
		c9.863-13.384,16.938-29.214,27.705-41.85c20.205-23.711,53.989-36.87,84.58-37.876c58.784-1.928,100.654,41.533,139.761,79.028
		c-18.101-41.401-39.697-76.689-78.413-101.699c-35.908-23.193-72.949-26.914-114.058-17.817
		c14.951-53.125,20.181-104.541,20.806-159.473c23.906-26.548,48.213-42.602,83.472-50.586c7.485-0.615,15.059-1.27,22.573-1.04
		c44.692,1.367,76.211,27.007,105.786,57.212c5.332,42.764,9.268,85.107,7.676,128.305
		c-7.075,192.466-104.063,370.093-244.189,498.818c-156.04,143.344-365.112,205.967-573.637,213.696
		c-44.824,1.66-89.663-0.635-134.443-2.471c2.031-32.515,5.821-64.903,7.329-97.471c5.894-127.192-1.938-262.959-48.847-382.588
		c-17.769-45.308-41.968-88.686-67.031-130.332C3230.672,2654.862,3295.301,2683.251,3360.687,2722.489z M2448.275,727.651
		c28.433,45.557,32.29,101.055,20.557,152.783l-0.464-8.237c-0.205-79.37-29.805-155.513-93.687-205.181
		c-14.312-11.128-38.174-20.356-48.872-34.395c0.552-13.608,13.53-23.813,22.588-33.047c0.488,0.083,0.991,0.093,1.465,0.249
		c15.254,5.073,17.412,23.906,24.023,36.763C2385.448,659.062,2429.935,698.266,2448.275,727.651z M2414.672,790.288
		c0.044-0.757,0.107-1.509,0.161-2.266c3.327,6.452,6.25,13.083,8.769,19.893c2.516,6.81,4.609,13.748,6.28,20.815
		c5.874,24.639,11.631,64.033-2.075,86.518c-8.281-5.635-16.025-12.241-23.877-18.457
		C2420.59,852.26,2412.089,834.111,2414.672,790.288z M2402.972,768.603c-2.939,6.333-6.572,12.524-9.858,18.696
		c-6.758,4.639-14.004,7.998-22.422,6.318c-21.865-4.37-44.507-46.563-58.521-63.325c-0.361-13.955,0.03-27.358,1.343-41.265
		C2352.855,704.018,2379.701,734.804,2402.972,768.603z M2240.292,532.959c13.818-35.703,44.849-58.709,78.491-73.884
		c5.205-0.236,11.074-0.762,16.074,0.952c12.759,4.371,20.698,21.481,25.059,33.054c6.88,18.252,16.245,55.122,7.861,72.905
		c-2.373-0.405-4.746-0.845-7.143-1.094c-1.816-0.202-3.64-0.311-5.469-0.327c-1.826-0.017-3.651,0.06-5.474,0.229
		c-1.82,0.167-3.626,0.425-5.42,0.777c-1.794,0.352-3.564,0.792-5.312,1.323c-1.751,0.531-3.47,1.15-5.156,1.856
		c-1.686,0.703-3.333,1.491-4.942,2.363c-1.605,0.873-3.162,1.823-4.673,2.852c-1.51,1.029-2.965,2.132-4.365,3.31
		c-33.608,27.886-40.948,87.217-44.199,127.681c0.4,6.65,1.274,12.7-1.309,19.028c-4.077-2.451-5.303-5.161-7.241-9.38
		C2245.048,666.694,2220.761,583.432,2240.292,532.959z M688.769,3463.172l-1.665,2.026c-27.085-18.452-52.143-52.539-67.187-81.548
		c-27.1-52.251-43.267-115.679-24.673-173.344c4.245,0.609,8.473,1.317,12.686,2.124c26.284,4.985,42.632,19.853,57.231,41.147
		c-1.479,3.501-2.905,6.963-4.175,10.542C638.335,3327.767,660.976,3404.891,688.769,3463.172z M983.642,3442.537l-29.214-12.09
		c-14.668-7.051-28.872-15.723-41.362-26.177c-36.558-30.605-57.959-75.161-62.466-122.221
		c14.238-6.763,27.617-11.616,43.032-14.922c5.557-0.542,14.248-1.308,19.609,0.171c9.409,2.593,9.57,13.096,10.61,21.377
		C932.573,3358.201,943.628,3384.676,983.642,3442.537z M988.935,2997.201c-0.107-17.061-1.294-33.618-3.164-50.571
		c-22.3,51.709-16.201,94.243-15.147,149.185c-2.598,5.186-5.786,13.438-10.596,16.851c-8.052,5.718-24.619,1.743-33.794,0.42
		l-2.905,2.183c3.682,4.683,12.134,8.384,17.212,11.958c14.956,10.522,27.852,28.936,30.596,47.222
		c3.97,26.469-9.917,47.559-25.283,67.393c-0.395-0.19-0.796-0.376-1.191-0.576c-11.02-5.474-20.469-9.897-32.935-11.191
		c-33.652-3.496-58.438,10.679-83.506,31.035c-40.474-85.112,10.947-129.741,34.185-205.879
		c15.615-51.162,20.938-108.559,20.82-161.855c-29.404,69.971-35.083,148.071-73.892,213.809
		c-18.227,10.107-34.663,22.202-53.638,31.211c-7.988-15.337-18.003-26.67-30.283-38.545c0.166,28.247,3.828,55.991,2.52,84.355
		c-0.039,11.167-1.03,22.51-3.682,33.379c-4.043,16.587-10.859,33.438-26.147,42.485c-9.253-10.586-7.627-32.851-19.453-47.466
		c-21.919-27.085-56.245-33.062-88.711-36.821c-0.977-28.438,1.675-54.727,20.4-77.783c19.956-24.565,41.68-26.924,70.732-30.073
		c-2.715-2.798-6.958-7.036-8.481-10.571c-2.271-5.249-1.128-8.228,1.333-13.096c27.466-54.385,92.041-110.063,124.429-169.248
		c-52.842,39.082-133.154,113.584-161.626,171.958c-25.859,11.221-49.985,30.586-65.019,54.6
		c-5.635,8.999-8.701,19.526-15.835,27.485c-7.266-5.864-9.937-21.855-10.591-30.908c-7.158-98.926,76.977-81.372,91.279-98.467
		c0.142-4.687,0.146-9.204-0.308-13.867l-0.439-4.302c27.896-34.365,64.043-75.732,102.227-98.237
		c24.282-14.312,50.796-24.839,75.723-38.013c24.854-13.135,48.335-28.545,73.955-40.254c11.299,0.742,21.401,2.944,32.017,6.806
		c30.659,11.157,90.273,29.702,112.412,51.753c5.815,5.796,9.399,14.624,12.905,21.963
		C1032.46,2926.815,1023.169,2967.958,988.935,2997.201z M1361.01,3028.348c-9.976,27.568-26.982,56.367-55.019,68.379
		c-50.576,21.665-170.278-34.81-220.171-55.767c-23.394-9.516-46.367-20.42-69.448-30.698c2.832-3.454,5.506-7.026,8.022-10.718
		c23.823-35.508,30.19-74.653,21.538-116.196c87.568,40.586,162.822,31.25,236.172,100.083c-2.744-6.919-5.401-13.872-8.452-20.664
		c-14.78-32.886-39.985-50.898-72.695-63.252c0.381-79.688-16.509-156.489-11.216-236.46c14.79,23.535,25.508,64.805,39.058,91.885
		c42.104,84.141,85.698,141.826,145.83,213.213C1372.182,2988.714,1368.071,3008.846,1361.01,3028.348z M1525.16,3467.274
		l-0.635,3.384c-1.152-0.82-2.446-1.475-3.457-2.466c-13.452-13.179-26.001-69.907-26.895-89.438
		c-2.437-53.125,6.997-111.211,44.048-151.728c11.66,15.102,23.335,29.599,36.601,43.325
		C1532.592,3328.944,1523.276,3396.908,1525.16,3467.274z M1681.708,3501.698c-22.105-18.74-35.806-65.376-43.403-92.158
		c-8.423-29.702-19.106-76.841-3.144-105.195c19.37,19.903,29.663,37.017,55.146,51.333
		C1682.587,3404.066,1681.254,3452.821,1681.708,3501.698z M1559.901,4160.486c25.161-1.89,41.04,4.238,62.876,15.698
		c-32.778,16.845-59.141,35.527-85.552,61.284c-6.016,5.723-13.979,10.039-20.977,14.541c-7.476-19.664-16.157-38.223-25.986-56.816
		C1511.269,4178.504,1533.876,4166.858,1559.901,4160.486z M1168.637,4447.283c-13.657,11.069-26.128,24.033-38.823,36.201
		c11.133-34.883,25.22-67.705,45.024-98.608c56.724-88.535,141.655-150.425,244.639-173.032c11.987-1.226,26.308-2.808,37.09,3.462
		c18.921,10.991,22.354,39.004,26.982,58.325c-13.159,16.729-30.22,31.416-44.834,46.934
		c-15.522,16.479-28.242,34.511-40.835,53.271C1312.885,4371.355,1236.157,4396.326,1168.637,4447.283z M1652.226,4433.24
		c-7.891-0.859-15.864-1.655-23.809-1.621c-84.019,0.352-171.563,63.813-228.101,120.479
		c-17.803,18.798-32.354,38.564-45.767,60.703c7.778-41.456,17.681-81.856,33.096-121.206
		c36.26-92.554,106.016-192.329,199.873-233.296c16.348-2.1,29.497-1.021,44.341,6.733c21.26,11.108,32.759,32.915,39.141,55.161
		C1683.178,4362.674,1673.017,4396.248,1652.226,4433.24z M1733.578,4633.049c-12.236,17.827-21.074,38.081-31.894,56.841
		c-2.822-75.546,10.678-140.527,42.148-209.492c23.203-50.86,56.05-106.753,110.864-127.3c4.063,0.122,7.368,0.39,11.333,1.133
		c22.007,4.126,39.629,17.075,51.875,35.64c19.946,30.234,24.058,67.637,17.119,102.476
		C1857.68,4515.145,1780.878,4567.698,1733.578,4633.049z M2291.903,3665.819c33.003,20.107,66.582,49.028,75.41,88.457
		c11.358,50.738-47.456,137.578-68.823,185.425c-28.125,62.969-50.029,130.581-61.499,198.691
		c-12.368,73.438-2.729,216.797-40.796,274.048c-26.514,39.882-74.106,51.289-117.817,61.04
		c-1.387-22.29-6.846-41.289-14.614-62.139c1.094,29.492-1.23,57.656-19.033,82.387c-27.266,37.886-75.537,45.586-118.477,51.875
		c12.256-6.519,24.546-13.164,33.267-24.277c17.715-22.574,20.728-49.712,17.51-77.432c-4.736-40.786-22.832-80.386-56.06-105.668
		c-26.03-19.805-49.077-22.622-80.239-18.198c7.178-7.061,14.258-13.716,22.988-18.843c34.854-20.474,82.329-27.559,121.343-16.87
		c38.955,10.674,56.06,36.318,74.268,69.604c-6.558-29.497-14.575-58.242-39.146-78.218c-30.728-24.99-72.231-25.439-109.614-22.373
		c11.23-11.65,21.733-23.77,32.202-36.099c45.132-60.947,64.565-129.873,76.025-203.784
		c-28.13,77.837-65.688,153.286-129.297,208.096c-29.048,25.029-60.591,48.691-85.034,78.433
		c-34.487,41.978-57.236,95.654-92.807,136.889c-7.407,3.277-13.169,3.252-21.055,3.204l0.342-4.722l0.62,4.668
		c-1.431-11.451,12.705-29.531,16.074-41.387c10.903-38.31,5.947-87.559-14.536-121.684c-15.351-25.576-37.739-44.98-66.929-52.1
		l-3.091-0.723c1.478-0.97,2.967-1.92,4.468-2.852c29.756-18.413,63.159-32.925,98.774-23.794
		c37.153,9.526,54.624,40.967,72.451,71.641c-1.294-30.918-4.077-55.698-17.627-84.082
		c68.623-41.772,118.682-95.698,151.953-169.195c-7.503,10.824-15.539,21.237-24.106,31.24
		c-34.331,40.054-108.97,101.187-161.582,110.83c-17.251,3.164-37.06,0.942-54.634,1.616c-16.787,0.64-33.745,3.594-50.571,4.868
		c19.443-13.008,44.814-19.775,66.572-28.745c35.112-14.473,70.224-30.566,102.676-50.342
		c108.423-66.059,200.103-178.945,230.684-303.271c48.569,17.754,92.012,29.444,143.994,29.297l-189.795-90.796
		c-101.763-49.404-195.298-93.101-274.604-177.153c-5.84-48.779-16.445-134.345,5.977-178.921
		c6.572-4.819,16.328-5.498,24.273-6.948l4.575,1.055c12.529,22.007,27.202,39.77,46.206,56.489
		c17.969,78.11,42.837,133.789,109.829,181.436c28.706,20.415,86.401,57.056,122.104,47.886c5.889-1.514,8.276-4.912,11.045-9.863
		c-1.919-14.482-17.061-22.397-27.803-30.991c-50.005-40-74.966-87.515-81.729-151.245c-1.929-18.208-4.8-40.078,7.471-55.225
		c2.334-1.152,4.438-3.027,7.007-3.457c4.687-0.786,62.544,34.654,73.398,39.536c81.113,36.445,161.938,66.494,248.74,86.211
		c-27.207,44.233-58.076,106.826-46.67,160.479c1.323,6.216,2.148,9.834,7.729,13.286c0.82-0.415,1.689-0.742,2.456-1.245
		c11.621-7.632,15.239-31.899,18.823-44.629C2267.845,3652.186,2280.287,3658.743,2291.903,3665.819z M1844.354,3370.716
		c21.768,3.623,44.966,20.835,61.89,34.536c-0.381,71.777,14.189,132.544,60.356,189.048l-2.793,1.294
		c-58.394-40.02-107.222-89.966-125.605-160.439C1831.845,3410.79,1831.527,3392.484,1844.354,3370.716z M2572.225,3510.13
		c-55.361-2.933-110.552-7.792-165.571-14.575c-171.401-25.728-275.83-53.51-429.927-132.642
		c9.697-35.869,13.535-64.272-2.339-99.297c24.17-47.188,33.862-85.742,37.432-138.349c66.06-39.311,272.52-130.337,301.201-190.805
		c13.847-29.185-12.403-86.997-21.948-116.128c91.221,38.384,189.35,109.082,269.189,168.081
		c22.432,186.914,93.13,360.322,178.15,526.709C2682.982,3514.061,2627.587,3513.063,2572.225,3510.13z M2973.734,4516.966
		c-89.804,28.769-158.735,96.064-208.652,174.282c-8.916,14.312-15.898,29.702-23.228,44.863
		c-2.261-70.273-1.977-134.042,23.989-200.571c25.962-66.504,75.708-141.187,143.311-170.552c2.881,0,5.405-0.122,8.291,0.464
		c11.646,2.363,25.439,17.451,31.904,26.763C2975.541,4429.925,2980.628,4472.654,2973.734,4516.966z M3044.305,4532.966
		l-37.866,2.402c7.666-28.203,9.312-52.534,5.391-81.494c-5.742-31.758-19.204-63.77-39.79-88.818
		c-14.458-17.588-33.203-31.841-56.606-33.481c-32.51-2.28-60.659,16.709-83.887,37.124c5.596-12.764,11.46-25.425,20.122-36.465
		c27.637-35.239,69.785-41.016,111.162-46.704c5.898-1.118,13.276-1.323,19.355-1.138c42.148,1.285,73.872,33.34,100.932,62.026
		C3050.77,4418.123,3040.448,4453.962,3044.305,4532.966z M3220.457,4610.149c-30.263,53.394-53.794,105.806-67.788,165.835
		c-1.944,10.425-3.359,20.981-4.985,31.465c-33.452-83.706-65.845-170.059-41.011-261.016
		c12.534-45.928,39.414-103.12,82.163-127.553c9.302,0.083,16.89,1.679,24.751,6.812c31.147,20.351,44.931,64.55,52.402,98.974
		C3253.651,4554.48,3236.336,4582.136,3220.457,4610.149z M3296.624,4579.739c12.759-52.471,3.306-92.949-21.494-139.98
		c-12.022-18.018-26.343-36.484-45.557-47.197c-16.289-9.078-34.692-10.576-52.388-4.834
		c-49.243,15.977-74.541,74.936-95.615,117.695c1.304-52.402,8.765-105.757,38.164-150.596
		c21.26-32.422,50.449-44.717,86.826-52.549c15.694-1.592,28.901-0.869,43.545,5.581c71.137,31.338,82.671,122.856,99.785,188.213
		c4.849,18.501,12.08,36.196,19.331,53.862C3346.869,4568.523,3324.388,4574.231,3296.624,4579.739z M3535.36,4735.745
		c-40.556-70.171-87.29-201.777-73.159-281.23c3.237-18.203,10.127-35.214,25.63-45.879c4.556,0.372,9.331,0.713,13.755,1.91
		c16.235,4.395,31.631,23.501,39.463,37.485C3581.116,4519.583,3556.868,4658.948,3535.36,4735.745z M3464.993,3657.21
		c18.726,43.594,11.177,159.214,13.814,213.139c2.563,52.52,7.763,104.717,18.486,156.245
		c11.446,54.995,29.233,112.285,50.635,164.233c29.204,70.903,70.425,146.547,81.548,222.764
		c5.518,37.822,2.207,69.146-20.933,100.552c-3.233-43.311-19.194-82.789-51.416-112.847
		c-17.256-16.103-38.321-27.988-62.603-26.542c-21.157,1.26-39.433,12.592-52.559,28.818
		c-33.877,41.871-30.483,95.86-25.146,145.884c-20.532-42.964-35.65-85.2-37.608-133.252c-1.421-34.961,1.069-75.293,26.572-101.924
		c13.643-14.243,31.016-21.558,50.718-21.616c47.348-0.147,82.89,33.774,113.803,65.283c-11.948-23.794-29.555-47.759-49.531-65.474
		c-20.781-18.428-46.929-30.405-75.156-27.788c-26.514,2.451-47.07,16.499-63.306,36.812c-1.47-32.856-4.717-65.401-7.988-98.12
		c-5.85-76.763-7.842-154.175-15.879-230.723c-3.125,41.714-6.646,82.427-7.065,124.351c-1.01,101.216,4.932,199.047-11.079,299.668
		c-8.135-22.949-15.615-46.875-26.875-68.496c-14.156-27.173-35.181-52.344-65.708-61.074c-30.122-8.614-59.219,0.61-85.327,15.635
		c43.139-118.491,61.108-214.18,75.117-337.939c-13.901,45.913-24.834,92.817-38.34,138.886
		c-26.196,89.37-60.884,171.895-107.72,252.417c-6.357-12.363-12.285-25.137-19.209-37.183
		c-17.666-30.723-41.201-42.686-74.316-51.123c23.56-28.047,43.237-56.958,60.503-89.282c59.76-111.88,97.207-217.31,59.067-342.876
		c32.183,13.819,69.98,22.051,103.93,9.736c28.823-10.459,51.04-34.609,64.063-61.841c20.039-41.894,18.921-82.959,3.809-126.147
		c-4.272,30.049-5.586,58.872-18.257,87.036c-11.182,24.868-30.122,48.159-56.582,57.339
		c-43.081,14.951-150.635-34.888-192.622-54.815c22.094-4.526,44.175-8.989,65.225-17.305
		c41.504-16.392,64.116-44.126,81.201-84.189c-40.058,34.937-80.581,58.296-134.033,65.694
		c-42.808,5.928-76.943,2.192-112.124-24.776c-159.966-122.646-297.402-485.512-323.877-680.839
		c-19.395-143.101-0.762-276.182,88.369-393.437c-12.637,9.697-24.368,20.387-35.195,32.07
		c-83.198,90.547-98.887,213.31-94.424,330.996c-75.078-71.221-177.163-123.452-272.304-162.197
		c-12.329-24.893-21.064-52.388-31.069-78.364c-32.495-84.404-68.936-158.472-134.438-222.632
		c5.415-37.012,3.75-77.144-8.604-112.661c-19.512-56.099-59.346-91.26-111.445-116.719c18.857,14.727,36.001,30.347,50.703,49.312
		c40.762,52.593,49.863,104.658,41.465,169.409c-14.492-7.339-29.307-12.813-44.575-18.281c11.25,9.831,22.35,19.826,33.301,29.985
		c30.283,28.193,56.47,59.023,78.296,94.18c40.844,65.786,120.366,263.071,122.983,337.47
		c-49.995,50.283-209.355,124.634-278.774,160.137c-12.295-23.408-24.282-42.686-45.981-58.482c1.078,2.825,2.132,5.657,3.164,8.496
		c26.709,73.54,24.976,141.035-7.949,211.928c-12.197-5.166-24.863-9.302-37.349-13.716c6.323,4.839,12.798,9.673,18.545,15.195
		c16.064,15.43,26.514,36.587,26.182,59.087c-0.396,26.499-14.126,46.221-32.837,63.579c-24.482-12.09-60.747-35.19-88.53-28.095
		c-13.642,3.481-19.238,12.427-26.245,23.867c-7.656-10.483-14.072-20.971-20.322-32.31c1.782-17.109,2.729-35.527,6.89-52.212
		c6.894-27.652,24.517-40.386,47.383-54.624c-3.486-3.418-6.626-7.139-9.853-10.801c-4.302-13.394,47.314-128.984,55.312-152.559
		c-26.064,30.669-47.065,67.373-65.889,102.896c-11.748,22.168-22.388,48.667-39.179,67.324c-8.887,3.257-15.225-0.781-24.273-3.11
		c-2.617,11.206,5.503,33.613,8.218,45.469c-4.038,12.969-7.422,26.665-16.636,37.046c-6.948,7.822-15.474,13.789-26.323,13.823
		c-34.116,0.103-51.714-33.008-74.126-52.314c-10.288-8.867-23.364-5.771-35.625-4.428c1.377-20.406,1.851-39.82,10.796-58.711
		c8.584-18.135,26.909-33.242,40.195-48.247c24.751-27.954,48.203-57.158,72.759-85.317c20.513-23.521,43.999-46.055,60.899-72.354
		c-58.76,31.938-103.682,83.394-148.169,132.124c-4.028-7.036-5.298-11.367-12.505-15.327l-4.287,2.832
		c-3.535,10.4-3.301,18.457-2.69,29.345c-23.076,23.643-36.777,44.883-44.961,77.3c-9.321-16.704-18.804-29.004-33.491-41.089
		c-11.328,2.495-22.202,6.04-33.218,9.619c-3.887-25.21-3.359-45.781,9.019-68.877c12.734-23.755,38.682-46.587,65.298-53.12
		c8.428-2.065,11.929-0.449,18.916,3.94l2.212,1.411c12.207-10.84,21.113-28.32,31.265-41.357
		c19.102-24.531,54.16-51.235,80.742-66.86c72.724-42.744,156.367-3.594,230.844,15.22c-8.882-13.071-18.491-22.955-30.073-33.545
		c25.259-27.027,80.62-71.802,113.408-88.072c40.532-20.112,94.009-8.784,134.702,5.137c-1.05-1.035-2.085-2.085-3.145-3.11
		c-35.84-34.795-77.383-40.918-124.893-39.902c-79.37-104.678-161.782-214.312-169.756-350.273
		c-10.727,49.639-10.474,88.95,4.307,137.734c-47.173-49.966-83.779-105.635-91.606-175.449
		c-9.976-89.023,24.424-164.927,78.999-232.822c-40.82,27.925-72.856,63.149-91.914,109.214
		c-42.188,101.987-16.47,221.562,55.176,303.242c23.511,26.802,53.252,45.625,76.846,71.445c15.049,16.46,26.636,37.896,39.37,56.26
		c21.23,30.61,49.111,61.572,63.057,96.304c0.435,1.079,0.845,2.173,1.265,3.257c-39.125,32.448-79.453,63.319-120.986,92.612
		c-32.065-10.942-65.752-21.919-100.058-20.981c-78.403,2.148-139.922,70.196-189.99,122.817
		c-23.55,5.727-40.557,12.944-60.825,26.245c-105.752-98.013-195.601-186.147-265.239-314.634
		c-66.479-122.656-110.41-273.76-96.513-413.34c5.19-52.104,18.667-101.474,33.511-151.45c0.758,3.776,1.593,7.536,2.505,11.279
		c28.867,120.469,100.161,231.816,207.002,296.885c-86.621-89.175-169.712-219.092-190.205-342.007
		c-7.876-47.222-5.776-96.045-13.398-143.672c27.92,46.484,58.486,91.353,88.911,136.221
		c-38.862-107.31-114.331-249.492-174.634-347.114c-82.549-133.633-176.694-261.806-223.467-413.838
		c-75.137-244.233-30.112-503.769,89.033-726.352c33.345-62.295,147.71-250.373,211.987-268.165
		c26.284-7.276,54.946-6.465,81.899-4.765c154.707,9.763,314.487,85.828,448.569,159.366
		c-78.862-86.105-204.863-143.859-313.55-180.081c24.014-7.88,48.4-14.352,73.159-19.415
		c202.705-40.056,324.453,51.773,483.056,158.797c-66.772-80.193-141.245-139.789-235.278-185.772
		c152.3,0.218,231.919,38.285,357.778,116.151c36.191,22.391,71.553,46.61,113.926,55.139
		c-14.595,28.228-20.591,55.239-19.111,86.909c1.621,34.707,9.995,68.706,20.122,101.801
		c35.093,114.673,102.349,206.406,196.943,279.6c48.647,37.642,101.88,67.329,147.642,108.994
		c-7.31,13.965-13.228,28.413-16.44,43.872c-7.886,37.935,4.331,77.568,26.079,108.945c5.268,7.598,12.9,17.852,22.25,19.57
		c7.627-10.61,2.495-38.589,0.952-51.357c-3.315-27.495-12.3-52.056-34.785-69.38c-0.742-0.571-1.494-1.123-2.241-1.689
		c4.707-7.124,10.708-16.919,17.564-22.031c4.195-3.13,7.734-4.18,12.964-2.686c11.656,3.33,20.044,19.624,24.654,29.614
		c35.386,76.699,50.029,224.175,19.521,304.653c-18.379,48.496-55.302,76.074-101.411,96.655
		c-124.375,55.508-394.555,85.586-529.433,65.679c-14.075-2.148-28.029-4.917-41.86-8.306c-13.831-3.388-27.484-7.384-40.957-11.987
		c-13.477-4.603-26.722-9.793-39.736-15.571c-13.011-5.781-25.742-12.127-38.193-19.038
		c-39.868-22.192-76.235-50.747-113.213-77.314c-74.751-53.701-151.245-104.902-237.568-138.101
		c28.506-14.438,52.349-18.389,83.105-23.852l0.625-3.926c-24.175-29.453-99.253,1.924-128.257,10.146
		c-21.875,6.206-43.96,11.88-66.382,15.723c-37.339,6.396-76.797,7.119-114.228,1.06c-85.732-13.882-154.033-62.08-204.267-131.489
		c19.976,54.917,53.306,93.857,103.047,125.132c93.872,59.019,179.829,48.232,282.578,24.824
		c174.648,57.813,223.955,215.142,367.192,298.301c150.039,87.109,369.004,115.713,536.65,70.679
		c46.909-12.603,102.954-39.751,128.872-83.003c7.9-13.189,11.372-28.75,19.126-42.266c4.79-1.362,5.307,0.254,9.516,2.524
		c6.465,8.735,8.442,16.719,9.917,27.451c4.272,31.099-0.215,57.007-19.956,82.109c-48.315,61.431-150.859,78.345-223.974,87.178
		c-190.928,23.062-374.209-42.822-560.391-72.192c-134.111-21.157-289.263-31.006-417.471-69.272
		c-63.638-18.994-120.024-46.943-172.178-88.203c-85.43-67.573-161.636-175.63-174.194-286.264
		c-4.634-40.85,2.212-85.874,29.053-118.408c42.437-51.44,110.479-50.288,170.728-55.747
		c-54.312-8.755-108.94-12.466-158.306,16.821c-34.629,20.542-55.781,55.825-64.727,94.321
		c-21.318,91.753,18.98,197.046,67.388,273.706c131.685,208.535,350.156,229.731,571.079,257.988
		c92.72,11.861,186.777,25.962,277.988,46.455c-70.918,122.702-147.629,241.67-230.132,356.904
		c74.907-53.75,150.796-171.484,204.023-246.45c11.079,19.175,21.06,38.799,31.025,58.564
		c-18.94,47.461-56.494,99.233-85.015,141.987c-57.65,87.929-118.735,173.405-183.257,256.426
		c-35.054,44.561-72.519,87.378-109.248,130.566c165.859-106.797,303.286-341.333,383.1-517.876
		c89.057,112.065,175.151,142.827,311.001,169.971c6.958,8.086,13.682,16.543,19.619,25.41
		c54.917,82.026,57.397,177.724,38.833,272.173c11.479-14.698,22.134-29.346,30.776-45.933
		c42.403-81.416,39.37-164.394,12.202-249.56c66.552,1.616,135.371,9.399,200.747,21.992c1.421,2.305,2.788,4.575,4.067,6.963
		c57.026,106.436,17.827,222.451-14.658,329.814c17.476-18.73,33.94-37.949,48.13-59.331
		c51.182-77.119,73.896-164.897,55.112-255.879c85.332,24.795,159.135,64.146,234.956,109.551
		c-9.033,63.73-35.943,115.034-67.939,169.868c13.145-7.523,25.924-15.625,38.34-24.306c12.412-8.679,24.408-17.901,35.986-27.666
		c11.576-9.766,22.689-20.034,33.34-30.805c10.648-10.771,20.788-22.002,30.42-33.691
		c85.659,56.699,177.285,164.663,234.355,250.146c48.594,72.783,89.355,153.266,111.333,238.281
		c59.634,230.615-5.366,554.941-51.255,786.567c53.11-53.252,70.84-149.956,88.432-220.825
		c22.403,56.478,46.828,112.065,73.277,166.763c26.606,53.994,56.113,106.787,78.979,162.534
		c18.96,46.231,26.865,94.893,43.281,141.738l1.284,3.613c-6.054-109.502-71.045-235.547-113.838-336.05
		C3370.819,3567.342,3447.503,3616.502,3464.993,3657.21z M2367.045,1610.878c16.328-3.818,32.677-7.542,49.048-11.172l3.496,0.801
		c3.726,10.22,0.132,29.189-3.404,39.316c-2.715,7.778-5.728,11.528-12.974,15.278c-7.134-1.543-7.627-3.032-12.617-8.53
		C2382.808,1634.631,2374.958,1622.733,2367.045,1610.878z M2371.639,1669.277l-32.251,10.898c-2.915,0.845-6.343,0.996-9.36,1.387
		l-1.328-3.213c5.483-15.362,16.319-29.551,25.215-43.208C2360.839,1646.2,2366.244,1657.431,2371.639,1669.277z M2081.054,1650.556
		c13.032,12.485,24.541,29.111,36.694,42.768l-26.064-1.875c-12.363-0.957-24.541-2.788-36.802-4.585
		C2063.983,1675.102,2072.396,1662.66,2081.054,1650.556z M2038.339,1663.442c-3.887,6.001-7.407,10.737-12.71,15.547
		c-4.565,1.118-6.792,2.383-11.455,1.065c-17.437-4.912-33.354-44.038-41.875-59.834c29.609,4.302,59.595,6.387,89.419,8.594
		C2054.447,1640.658,2046.215,1651.991,2038.339,1663.442z M2094.901,1628.188c22.617-0.215,45.288,0.249,67.905,0.39
		c-4.79,12.73-9.99,24.361-16.606,36.265l-10.151,13.731C2122.11,1661.962,2108.394,1645.167,2094.901,1628.188z M2192.724,1631.879
		c20.464,15.322,37.549,41.265,53.672,61.128l-36.528,2.969l-52.329-0.093C2171.635,1675.712,2182.484,1654.193,2192.724,1631.879z
		 M2225.014,1624.526c31.172-1.201,62.485-6.001,93.467-9.707c4.121-0.889,5.381-0.615,9.365,0.283l0.498,4.946
		c-8.965,24.258-30.02,51.792-49.004,69.028l-16.069-18.311C2251.024,1655.004,2237.777,1639.877,2225.014,1624.526z
		 M1944.042,1617.831c9.951,16.445,17.905,35.146,26.792,52.28l-26.89-7.188l-34.551-9.956
		C1921.908,1642.289,1932.831,1629.838,1944.042,1617.831z M1902.387,1619.921c-8.345,6.45-17.627,11.743-26.592,17.28
		c-7.891-18.315-17.168-37.744-18.56-57.866c21.172,6.172,42.002,16.25,62.432,24.629
		C1914.262,1609.574,1908.168,1614.692,1902.387,1619.921z M1833.188,1570.541l-11.602,11.533
		c-5.952,3.311-11.416,6.626-18.516,6.099c-11.045-0.825-22.744-9.531-28.521-18.584c-10.166-15.933-9.561-24.141-5.996-41.836
		C1788.72,1535.737,1817.607,1555.458,1833.188,1570.541z M1745.634,1524.867l-3.301,2.563c-5.303-0.488-3.511,0.615-6.343-2.012
		c-10.566-9.8-37.046-34.907-37.524-49.365c0.932,0.249,1.88,0.439,2.788,0.752c13.467,4.634,43.872,23.423,48.911,36.66
		C1751.493,1516.957,1747.392,1521.747,1745.634,1524.867z M4157.488,1390.239c-3.285,3.405-6.506,6.872-9.663,10.4
		c-3.158,3.525-6.249,7.109-9.272,10.752c-3.021,3.643-5.973,7.339-8.857,11.089c-2.888,3.753-5.702,7.559-8.442,11.416
		c-2.744,3.857-5.414,7.764-8.008,11.719c-2.598,3.958-5.121,7.962-7.568,12.012c-2.448,4.053-4.819,8.149-7.114,12.29
		c-2.295,4.137-4.512,8.317-6.65,12.539c-2.139,4.222-4.198,8.483-6.177,12.783c-1.979,4.3-3.877,8.634-5.693,13.003
		c-1.816,4.372-3.552,8.774-5.205,13.208c-1.654,4.437-3.224,8.901-4.712,13.394c-1.484,4.492-2.886,9.012-4.204,13.56
		c-1.319,4.544-2.55,9.113-3.697,13.706c-1.149,4.593-2.21,9.204-3.183,13.833c-0.977,4.632-1.865,9.281-2.666,13.945
		c-41.45,243.696,139.546,425.791,234.512,630.4c57.651,124.209,90.156,249.072,93.076,386.196
		c4.683,219.609-90.772,399.253-239.355,553.594c-6.168,6.533-12.418,12.99-18.75,19.37c-6.331,6.377-12.741,12.674-19.229,18.892
		c-6.488,6.221-13.053,12.358-19.697,18.413c-6.64,6.055-13.356,12.025-20.146,17.91c-6.791,5.886-13.654,11.687-20.591,17.403
		c-6.934,5.716-13.939,11.344-21.016,16.885c-7.073,5.54-14.217,10.991-21.431,16.353c-7.21,5.361-14.487,10.633-21.831,15.815
		c-7.344,5.179-14.751,10.267-22.222,15.264c-7.471,4.994-15.003,9.895-22.598,14.702c-7.591,4.808-15.242,9.52-22.954,14.136
		c-7.708,4.619-15.475,9.139-23.301,13.56c-7.822,4.424-15.7,8.749-23.633,12.974c-7.929,4.225-15.911,8.352-23.945,12.378
		s-16.118,7.952-24.253,11.777c-8.131,3.825-16.31,7.547-24.536,11.167c-8.223,3.62-16.491,7.137-24.805,10.552
		c-8.313,3.415-16.668,6.725-25.063,9.932c-8.395,3.203-16.829,6.302-25.303,9.297c-8.473,2.995-16.982,5.884-25.527,8.667
		c-8.545,2.783-17.124,5.459-25.737,8.027c-8.614,2.568-17.256,5.029-25.928,7.383c-8.675,2.35-17.376,4.593-26.104,6.729
		c-8.73,2.135-17.485,4.162-26.265,6.079c-8.779,1.917-17.583,3.724-26.411,5.42c-8.825,1.696-17.669,3.283-26.533,4.761
		c-8.864,1.475-17.746,2.84-26.645,4.097c-8.9,1.253-17.813,2.396-26.738,3.428c-8.929,1.031-17.868,1.952-26.816,2.759
		c-8.952,0.811-17.912,1.509-26.88,2.095c-8.968,0.583-17.941,1.055-26.919,1.416c-8.981,0.362-17.964,0.611-26.948,0.747
		c-1.211-0.161-2.466-0.132-3.642-0.479c-6.611-1.963-13.633-8.408-18.975-12.642c-45.903-36.401-58.54-88.696-87.93-136.67
		l-1.792-2.895c3.35-35.635,10.02-71.045,13.496-106.778c31.205,4.417,62.559,7.008,94.062,7.774
		c31.507,0.765,62.951-0.303,94.331-3.203c237.514-20.059,488.725-143.784,642.783-327.178
		c201.357-239.702,181.187-532.998,53.755-800.17c-64.18-134.565-152.612-265.361-165.518-417.544
		c-9.336-110.049,18.569-225.303,91.284-310.571c80.166-94.009,177.632-135.2,298.637-144.389
		c17.339-1.323,34.502,0.068,51.816,1.157C4335.364,1272.187,4232.737,1312.114,4157.488,1390.239z"/>
	<path d="M2229.755,3964.065l4.688-7.446c34.219-61.523,80.488-136.455,60.923-209.868c-4.243-15.933-15.571-39.063-29.033-49.146
		c8.208,24.385,15.259,47.485,15.679,73.403C2282.831,3821.844,2226.015,3948.001,2229.755,3964.065z"/>
	<path d="M2102.821,1212.539c-6.068-0.007-12.109,0.391-18.125,1.191c-11.089,7.275-19.429,13.823-22.036,27.505
		c-2.539,13.34,3.604,26.04,11.338,36.523c22.71,30.771,63.984,52.192,95.825,72.783l6.597,1.89
		c6.924-6.289,7.427-18.672,7.93-27.422c1.792-31.103-6.9-64.018-28.511-87.163
		C2142.382,1223.432,2122.865,1212.656,2102.821,1212.539z"/>
	<path d="M2058.554,1146.694c42.485-4.141,88.208,19.731,119.473,46.743c26.621,22.998,48.53,51.538,59.492,85.219
		c9.336,32.866,13.794,65.532,17.539,99.36c13.677-58.628,12.72-114.609-20.342-166.948c-1.758-2.803-3.586-5.56-5.483-8.271
		c-1.895-2.712-3.856-5.375-5.884-7.988c-2.028-2.617-4.12-5.181-6.274-7.69c-2.158-2.51-4.375-4.964-6.65-7.363
		c-2.279-2.399-4.616-4.741-7.012-7.026c-2.393-2.285-4.841-4.509-7.344-6.67c-2.507-2.162-5.064-4.26-7.671-6.294
		c-2.611-2.035-5.271-4.004-7.979-5.908c-2.705-1.901-5.458-3.735-8.257-5.503c-2.8-1.764-5.64-3.459-8.521-5.083
		c-2.884-1.625-5.806-3.177-8.765-4.658c-2.959-1.478-5.954-2.883-8.984-4.214c-3.031-1.328-6.09-2.582-9.18-3.76
		c-3.093-1.178-6.213-2.279-9.36-3.301c-3.148-1.025-6.318-1.971-9.512-2.837c-3.193-0.863-6.406-1.647-9.639-2.354
		c-14.824-3.174-30.054-4.883-45.19-3.242c-26.636,5.21-47.373,15.049-63.174,38.174c-8.447,12.373-13.125,25.879-17.271,40.151
		C2002.816,1171.591,2024.027,1150.058,2058.554,1146.694z"/>
	<path d="M1253.212,531.011c53.145-22.475,109.526-16.128,161.758,5.537c164.936,68.417,246.933,234.101,330.239,380.283
		c51.889,85.757,118.262,167.383,209.341,213.73c-49.531-49.956-98.257-98.257-137.598-157.129
		c-106.552-159.453-163.32-334.941-334.033-444.169c-48.203-30.84-104.297-52.746-162.148-53.436
		c-9.629-0.114-19.726-0.081-29.297,1.043c-54.927,8.245-95.151,34.429-128.398,78.896c-39.263,52.519-64.409,119.067-68.34,184.565
		C1125.517,663.378,1172.065,565.331,1253.212,531.011z"/>
	<path d="M1122.421,832.119c10.361-3.539,20.563-7.489,30.605-11.851c10.042-4.359,19.894-9.115,29.556-14.268
		c-8.852,59.331-4.829,109.902,13.067,167.012c-20.259,3.179-40.103,7.056-59.648,13.359c24.726,7.485,51.162,13.13,75.278,22.173
		c41.308,64.902,74.907,106.304,148.833,135.171c75.103,24.731,152.515,12.583,222.417-22.852
		c35.034-17.764,67.422-40.269,100.366-61.538c10.352,9.6,20.508,19.683,31.445,28.608
		c-35.058-135.132-111.426-327.9-235.039-401.582c-36.797-21.934-78.691-32.71-121.504-28.701
		c-99.311,11.597-164.917,79.204-236.958,142.046c-19.678,17.163-39.268,35.493-61.987,48.569
		c10.794-1.836,21.497-4.102,32.109-6.797C1101.573,838.774,1112.06,835.657,1122.421,832.119z M1511.655,964.287
		c0.356-12.559,7.241-18.96,16.03-26.782c2.837-0.249,5.674-0.479,8.525-0.537c7.739-0.161,15.664,2.256,20.849,8.32
		c5.078,5.938,7.168,12.495,6.157,20.288c-1.621,12.485-8.188,19.263-17.939,26.426c-9.224,0.215-18.862-1.489-25.664-8.262
		C1514.14,978.291,1511.43,972.08,1511.655,964.287z M1490.087,823.877c0.361,2.074,0.618,4.16,0.771,6.26
		c0.156,2.1,0.207,4.201,0.151,6.304c-0.052,2.106-0.21,4.203-0.474,6.289c-0.26,2.09-0.625,4.16-1.094,6.211
		c-0.469,2.054-1.037,4.079-1.704,6.074c-0.671,1.996-1.437,3.954-2.3,5.874s-1.818,3.793-2.866,5.615
		c-1.048,1.826-2.184,3.595-3.408,5.308c-13.003,18.027-28.867,23.106-49.629,26.758c-11.328-0.688-22.173-3.608-31.685-9.917
		c-15.576-10.337-25.547-25.547-28.32-44.102c-0.319-2.083-0.534-4.176-0.645-6.279c-0.107-2.106-0.109-4.211-0.005-6.313
		c0.104-2.106,0.313-4.201,0.625-6.284c0.316-2.083,0.735-4.146,1.26-6.186c0.524-2.041,1.149-4.051,1.875-6.03
		c0.729-1.976,1.554-3.913,2.476-5.81c0.921-1.894,1.937-3.737,3.047-5.527c1.11-1.794,2.306-3.525,3.589-5.195
		c13.223-16.968,29.102-22.119,49.771-24.648c11.445,1.372,20.918,3.955,30.713,10.259
		C1477.065,792.065,1487.05,806.42,1490.087,823.877z M1277.455,758.974c23.565-30.469,52.925-43.052,90.181-47.705
		c27.847-1.85,50.659,4.204,77.153,12.061c-7.075,0.606-14.15,1.294-21.113,2.759c-41.455,8.711-73.677,36.226-95.845,71.23
		c-31.621,49.927-42.236,114.775-28.486,172.3c10.283,42.998,34.839,81.724,73.14,104.795
		c37.857,22.803,81.899,23.428,123.652,12.686c59.673-15.352,102.837-57.598,133.379-109.375l14.692,33.638
		c6.764,14.375,13.252,28.875,19.463,43.501c-50.146,30.542-109.976,64.805-168.481,73.599
		c-54.438,8.184-107.148-6.563-150.903-39.404c-53.979-40.522-95.474-99.897-104.477-167.642
		C1232.392,865.605,1242.387,804.316,1277.455,758.974z"/>
</g>
</svg>
