<?xml version="1.0" encoding="utf-8"?>
<!-- Generator: Adobe Illustrator 27.5.0, SVG Export Plug-In . SVG Version: 6.00 Build 0)  -->
<svg xmlns="http://www.w3.org/2000/svg" xmlns:xlink="http://www.w3.org/1999/xlink" viewBox="0 0 3000 3000" width="595" height="842" preserveAspectRatio="xMidYMid meet" data-scaled="true">
<g>
	<g>
		<path d="M1625.558,1749.801c35.066-6.064,72.43-11.755,111.541-17.021c-3.215,5.258-6.447,10.493-9.711,15.683
			c-36.999,5.109-72.346,10.601-105.555,16.431c-0.481,0.084-0.954,0.17-1.434,0.254c-0.258-0.55-0.528-1.084-0.815-1.587
			C1623.115,1758.722,1625.103,1754.124,1625.558,1749.801z M1167.263,1496.72c134.474-15.09,271.233-20.783,406.499-16.92
			l103.588,8.202l-4.129-14.371l-98.527-7.802l-0.353-0.019c-135.973-3.89-273.459,1.828-408.639,16.997l-500.281,56.138
			c-121.445,13.627-244.406,12.069-365.468-4.632L0,1493v13.787l298.04,41.395c67.343,9.29,135.264,13.938,203.193,13.938
			c55.349,0,110.705-3.087,165.749-9.264L1167.263,1496.72z M1853.736,1501.969c1.874-4.517,3.738-9.048,5.585-13.602
			l-107.811-8.537c1.422,4.794,2.846,9.588,4.269,14.382L1853.736,1501.969z M1333.316,1856.06
			c30.883-26.272,99.226-51.386,199.76-73.684c2.024-5.426,4.333-10.777,6.921-16.034c-87.09,18.842-176.248,45.144-215.902,78.879
			c-12.621,10.736-20.032,22.052-22.028,33.631c-2.14,12.414,1.848,24.857,11.853,36.985c20.331,24.643,26.915,45.165,19.569,60.998
			c-27.065,58.337-228.71,60.802-362.143,62.434c-114.939,1.405-152.553,3.15-157.996,18.514c-1.312,3.702-1.257,9.46,6.453,15.864
			c25.543,21.219,74.943,41.786,122.717,61.675c29.73,12.377,57.811,24.068,78.648,35.242c27.99,15.01,30.742,22.82,30.626,25.482
			c-0.158,3.617-7.074,9.624-26.015,15.64c-35.839,11.382-77.946,19.611-118.667,27.569
			c-77.889,15.223-145.156,28.37-165.242,60.465c-5.972,9.544-7.441,20.256-4.367,31.841c3.269,12.314,17.316,26.154,44.209,43.556
			c22.074,14.283,52.182,30.541,92.045,49.701c72.696,34.942,163.103,72.373,242.866,105.396
			c46.87,19.405,91.14,37.734,123.649,52.253c35.28,15.756,48.339,23.403,53.139,26.996c-3.359,1.563-10.671,4.024-26.536,7.105
			c-17.054,3.312-39.73,6.558-63.738,9.993c-107.334,15.36-190.465,29.913-203.381,65.161c-4.173,11.389-0.646,23.518,10.482,36.049
			c5.786,6.515,7.947,11.894,6.426,15.987c-2.167,5.83-12.622,14.596-50.129,23.248c-29.64,6.838-68.753,12.073-110.163,17.616
			c-56.03,7.499-113.967,15.253-161.725,28.294c-56.535,15.438-88.155,36.078-96.669,63.103
			c-10.597,33.636,5.616,68.619,63.337,116.914c1.083,0.906,7.831,6.173,8.917,7.067h23.553
			c-5.642-4.343-10.021-6.703-15.659-11.421c-36.352-30.416-77.412-73.893-66.577-108.283
			c15.969-50.686,143.908-67.81,246.709-81.568c99.929-13.375,161.686-22.946,171.743-50.013c3.497-9.411,0.427-19.637-9.125-30.393
			c-11.123-12.525-8.592-19.434-7.76-21.703c3.166-8.642,17.553-21.596,68.108-34.239c37.355-9.342,83.348-15.925,123.927-21.731
			c71.194-10.189,96.668-14.7,102.968-25.304c1.683-2.832,1.985-6.067,0.852-9.111c-2.002-5.377-8.084-12.129-59.826-35.384
			c-33.008-14.836-78.703-33.755-127.08-53.783c-79.593-32.953-169.805-70.304-242.146-105.074
			c-39.318-18.898-68.914-34.869-90.479-48.823c-30.283-19.595-36.922-30.501-38.185-35.259c-2.053-7.733-1.177-14.484,2.675-20.641
			c16.81-26.862,87.523-40.683,155.909-54.048c41.114-8.036,83.627-16.345,120.245-27.974c15.096-4.794,35.245-12.974,35.924-28.583
			c1.031-23.692-44.176-43.737-118.022-74.48c-46.802-19.485-95.198-39.634-119.094-59.484c-0.24-0.199-0.454-0.385-0.644-0.558
			c3.807-1.695,14.297-4.449,43.072-6.168c26.354-1.574,60.574-1.992,100.196-2.477c69.84-0.854,156.758-1.917,227.783-10.584
			c39.227-4.786,69.775-11.303,93.39-19.922c28.408-10.368,45.975-23.507,53.705-40.169c9.849-21.228,2.615-46.812-21.5-76.043
			C1315.833,1895.793,1306.843,1878.58,1333.316,1856.06z M2611.157,1544.536c-1.243,4.638-2.506,9.3-3.784,13.98
			c132.212,2.115,263.306-12.664,392.627-44.319v-13.867C2872.887,1531.446,2741.952,1546.275,2611.157,1544.536z
			 M2774.667,2074.388c-34.041-4.949-61.84-12.987-82.624-23.891c-18.381-9.643-30.487-21.048-35.982-33.898
			c-9.637-22.533,2.592-48.481,33.549-71.19c12.284-9.011,23.406-17.162,33.501-24.56c66.66-48.852,89.117-65.309,104.813-79.501
			c37.096-33.543,29.22-58.44,16.08-73.421c-29.151-33.237-118.717-55.909-266.207-67.387c-4.271-0.332-8.587-0.653-12.942-0.965
			c-1.536,4.637-3.092,9.284-4.663,13.937c5.566,0.388,11.071,0.792,16.501,1.215c68.688,5.345,125.442,13.298,168.686,23.639
			c45.148,10.795,74.731,23.897,87.928,38.943c8.396,9.573,15.984,25.532-14.927,53.482c-15.153,13.702-37.461,30.05-103.681,78.578
			c-10.096,7.399-21.22,15.552-33.506,24.563c-17.739,13.013-30.17,27.203-36.947,42.175c-7.057,15.589-7.496,31.525-1.27,46.086
			c13.946,32.611,59.988,56.148,129.645,66.275c60.692,8.824,136.229,7.754,227.38-3.305v-14.164
			C2909.405,2082.104,2834.545,2083.092,2774.667,2074.388z"/>
		<path d="M314.501,429.906c25.04,4.307,49.358,6.76,49.601,6.784c2.777,0.278,3.852-3.514,1.343-4.735l0,0
			c-0.242-0.118-24.501-11.896-49.538-21.344c-47.101-17.774-56.291-12.341-59.106-6.71c-1.06,2.12-1.009,4.349,0.146,6.445
			C258.403,412.986,262.83,421.018,314.501,429.906z M261.273,406.137c0.48-0.96,2.157-2.633,7.957-2.633
			c7.07,0,20.266,2.485,44.885,11.773c13.106,4.945,26.005,10.538,35.297,14.733c-36.351-4.487-83.1-13.033-88.085-22.078
			C260.968,407.282,260.953,406.778,261.273,406.137z M753.308,345.44L753.308,345.44c0.308-0.287,31.136-29.079,58.999-60.316
			c16.44-18.431,28.672-34.127,36.359-46.651c10.532-17.162,12.716-28.723,6.676-35.342c-2.404-2.635-5.562-3.768-9.134-3.28
			c-4.624,0.634-18.696,2.563-60.627,72.855c-20.363,34.135-37.611,68.256-37.783,68.597
			C746.038,344.792,750.45,348.104,753.308,345.44z M791.592,276.293c34.983-58.645,49.83-68.72,55.566-69.506
			c0.229-0.031,0.446-0.047,0.651-0.047c0.949,0,1.663,0.344,2.362,1.11c2.571,2.818,7.065,16.381-43.061,72.585
			c-15.368,17.231-31.655,33.722-43.144,45.02C770.893,312.463,780.801,294.382,791.592,276.293z M600.144,312.685
			c0.283,2.777,4.213,3.072,4.909,0.369l0,0c0.067-0.261,6.757-26.385,11.008-52.805c7.997-49.702,0.836-57.621-5.245-59.254
			c-2.29-0.615-4.463-0.12-6.286,1.433c-2.295,1.953-9.28,7.897-7.656,60.302C597.661,288.125,600.12,312.443,600.144,312.685z
			 M607.771,206.235c0.397-0.338,0.757-0.496,1.175-0.496c0.179,0,0.367,0.029,0.574,0.085c2.301,0.618,9.215,6.309,1.609,53.603
			c-2.224,13.829-5.125,27.585-7.377,37.528C600.881,260.442,599.907,212.927,607.771,206.235z M862.459,442.426L862.459,442.426
			c0.264-0.053,26.685-5.453,52.306-13.175c48.199-14.527,52.193-24.428,51.004-30.612c-0.447-2.327-1.843-4.066-4.035-5.028
			c-2.761-1.213-11.16-4.896-57.585,19.466c-22.499,11.806-43.296,24.645-43.503,24.773
			C858.273,439.318,859.725,442.982,862.459,442.426z M956.654,397.673c1.241,0,2.273,0.166,3.071,0.517
			c0.681,0.299,0.999,0.689,1.134,1.393c0.45,2.339-1.647,11.045-47.509,24.872c-13.411,4.043-27.052,7.446-36.979,9.765
			C905.292,417.246,943.203,397.673,956.654,397.673z M753.811,809.058L753.811,809.058c-2.206-3.225-7.236-0.959-6.283,2.83v0
			c0.103,0.408,10.442,41.304,24.353,80.782c8.208,23.293,16.051,41.582,23.311,54.358c8.865,15.601,17.032,23.248,24.87,23.248
			c0.958,0,1.913-0.114,2.862-0.343c3.468-0.834,5.986-3.053,7.281-6.417c1.677-4.356,6.778-17.611-34.549-88.26
			C775.587,840.947,754.026,809.373,753.811,809.058z M823.673,961.002c-0.468,1.215-1.159,1.831-2.385,2.126
			c-3.705,0.892-17.756-1.714-42.791-72.746c-7.675-21.776-14.257-43.998-18.608-59.512c8.041,12.344,19.104,29.762,29.742,47.95
			C824.095,937.739,825.752,955.599,823.673,961.002z M901.793,813.518c-6.319-4.969-14.068-11.963-23.632-21.672
			c-18.78-19.063-35.878-39.917-36.048-40.126c-1.767-2.16,0.797-5.153,3.203-3.738h0c0.21,0.124,21.266,12.533,42.202,26.93
			c7.235,4.975,13.272,9.371,18.319,13.261c-0.726,1.619-1.317,3.274-1.805,4.957c-13.898-10.815-32.066-22.947-48.172-32.931
			c6.681,7.701,16.052,18.18,25.883,28.158c8.132,8.254,14.793,14.366,20.263,18.893c-0.071,1.952-0.084,3.923-0.07,5.904
			C901.889,813.275,901.841,813.396,901.793,813.518z M616.24,841.352L616.24,841.352c-0.277-2.777-4.207-3.081-4.908-0.379
			c-0.067,0.261-6.811,26.372-11.116,52.782c-8.099,49.686-0.955,57.619,5.123,59.265c0.643,0.174,1.276,0.26,1.896,0.26
			c1.586,0,3.08-0.566,4.393-1.68c2.299-1.948,9.296-7.878,7.78-60.286C618.674,865.917,616.264,841.595,616.24,841.352z
			 M608.396,947.786c-0.567,0.481-1.058,0.595-1.75,0.408c-2.299-0.622-9.202-6.328-1.5-53.605
			c2.252-13.825,5.181-27.576,7.454-37.514C615.398,893.594,616.275,941.109,608.396,947.786z M810.332,566.852
			c0-104.342-84.889-189.231-189.231-189.231S431.871,462.51,431.871,566.852c0,104.342,84.889,189.231,189.231,189.231
			S810.332,671.194,810.332,566.852z M621.102,741.503c-96.303,0-174.651-78.348-174.651-174.651
			c0-96.303,78.348-174.651,174.651-174.651s174.651,78.348,174.651,174.651C795.752,663.155,717.404,741.503,621.102,741.503z
			 M1001.145,627.37c-2.578-0.03-5.331-0.162-8.287-0.407c-14.644-1.213-34.17-5.056-58.033-11.419
			c-40.444-10.785-80.042-25.32-80.438-25.466c-3.666-1.35-2.7-6.782,1.208-6.784h0.01c0.806,0,38.83,0.027,78.254,2.795
			c59.298,4.164,79.781,11.469,87.568,16.629c-1.583,1.773-3.15,3.564-4.698,5.374c-7.838-4.825-28.738-11.182-83.327-15.018
			c-21.019-1.477-41.642-2.169-56.369-2.494c15.264,5.16,37.325,12.262,59.635,18.21c37.681,10.046,58.55,12.174,70.105,11.396
			C1004.883,622.564,1003.007,624.958,1001.145,627.37z M353.073,568.462c1.891-0.659,1.444-3.451-0.558-3.487l-9.555-0.172
			c-0.421-0.008-42.597-0.723-84.339,2.379c-24.629,1.831-44.333,4.618-58.563,8.284c-19.5,5.023-29.104,11.819-29.36,20.777
			c-0.102,3.565,1.381,6.576,4.29,8.706c1.808,1.324,5.388,3.945,17.362,3.945c12.969,0,35.786-3.076,76.862-14.21
			c38.363-10.398,74.477-22.951,74.837-23.076L353.073,568.462z M267.348,587.936c-65.883,17.857-83.553,14.784-88.225,11.364
			c-1.05-0.769-1.464-1.597-1.428-2.858c0.109-3.813,6.302-16.69,81.404-22.277c23.028-1.713,46.196-2.254,62.308-2.396
			C307.391,576.302,287.685,582.425,267.348,587.936z M362.877,726.784L362.877,726.784c-0.217,0.159-21.979,16.086-42.044,33.791
			c-37.747,33.307-37.247,43.971-33.588,49.096c1.351,1.891,3.294,2.888,5.627,2.888c0.046,0,0.092,0,0.138-0.001
			c3.013-0.051,12.183-0.205,44.218-41.71c15.524-20.114,29.071-40.458,29.207-40.661
			C367.978,727.863,365.131,725.138,362.877,726.784z M292.925,807.558c-0.746,0.023-1.195-0.21-1.611-0.794
			c-1.385-1.938-3.11-10.726,32.805-42.421c10.503-9.268,21.481-18.05,29.536-24.298
			C332.679,770.069,303.248,807.385,292.925,807.558z M487.391,354.806L487.391,354.806c2.736,2.79,7.293-0.321,5.692-3.885
			c-0.173-0.384-17.499-38.844-38.095-75.284c-12.152-21.501-23.07-38.138-32.451-49.449c-12.855-15.501-23.094-21.29-31.308-17.706
			c-3.269,1.427-5.36,4.052-6.047,7.591c-0.89,4.582-3.597,18.524,49.44,80.865C460.378,327.212,487.124,354.533,487.391,354.806z
			 M392.054,217.408c0.248-1.278,0.821-2.005,1.977-2.51c0.458-0.2,1.101-0.372,1.958-0.372c5.675,0,20.685,7.555,52.886,64.52
			c11.362,20.1,21.727,40.831,28.721,55.346c-10.067-10.741-23.993-25.947-37.641-41.989
			C395.706,240.393,390.95,223.091,392.054,217.408z M479.606,804.183L479.606,804.183c-0.268,0.326-27.031,32.93-50.533,67.567
			c-13.867,20.437-23.923,37.608-29.892,51.037c-8.178,18.401-8.819,30.149-1.959,35.915c1.941,1.631,4.159,2.461,6.529,2.461
			c0.964,0,1.954-0.138,2.958-0.414c4.5-1.238,18.195-5.005,50.494-80.212c15.685-36.521,28.285-72.619,28.411-72.979l0,0
			C486.899,803.867,482.088,801.165,479.606,804.183z M450.772,877.774c-26.947,62.745-40.337,74.689-45.919,76.225
			c-1.256,0.347-2.162,0.156-3.127-0.656c-2.92-2.455-9.163-15.307,33.117-77.629c12.962-19.107,26.933-37.6,36.832-50.314
			C466.522,839.19,459.083,858.42,450.772,877.774z"/>
	</g>
	<g>
		<path d="M1785.685,1647.252l-271.182-933.738c1.131-0.419,2.204-0.906,3.202-1.478l56.253,181.754l95.77,313.917
			c32.309,104.714,63.478,210.545,94.853,316.162l30.916,104.464C1792.255,1634.68,1788.987,1640.99,1785.685,1647.252z
			 M1604.119,1231.204l22.153,79.035l22.667,78.886l45.334,157.771l50.005,174.027c3.601-6.015,7.169-12.076,10.708-18.179
			L1470.053,726.6c-1.383,1.349-2.978,2.508-4.765,3.458c2.409,8.851,4.822,17.701,7.211,26.557
			c14.44,52.786,28.547,105.669,43.259,158.375L1604.119,1231.204z"/>
		<path d="M2157.689,502.341c-12.307-18.724-30.76-34.475-49.132-47.842c-105.42-76.701-233.26-120.217-363.057-132.429
			c-63.969-6.019-128.542-4.61-192.313,3.005c-31.941,3.814-63.634,7.456-95.081,14.224c-15.225,3.277-26.865,6.162-41.937,10.08
			c0,0,0,0,0,0c-18.231,4.069-82.815,21.054-175.403,73.967c0.05-0.026,0.103-0.053,0.153-0.079
			c-166.626,91.449-256.475,203.342-301.716,286.82c-57.909,106.853-61.268,189.594-61.381,193.062l-0.015,0.478
			c-1.412,19.017-0.157,39.973,3.734,62.296c0.049,0.281,0.11,0.634,0.193,1.043h0c0.001,0.004,0.002,0.009,0.003,0.013
			c0.046,0.225,0.099,0.468,0.159,0.724c6.002,27.54,18.236,61.672,39.811,73.296c8.731,4.703,21.725,6.683,41.073,6.341
			c36.787-0.652,96.531-9.704,193.523-24.396c29.425-4.457,62.205-9.424,98.677-14.811c29.273-4.324,37.586-18.65,39.404-29.907
			c1.59-9.86,1.412-25.702-0.208-44.096c15.264,25.897,33.936,47.006,51.052,50.3c0.662,0.126,1.541,0.179,2.646,0.159
			c17.647-0.313,90.639-19.014,175.042-43.972l-2.73-9.771c-93.089,26.087-162.678,39.065-171.931,37.861
			c-18.62-3.583-47.799-47.569-61.893-88.846c-0.06-0.305-0.123-0.608-0.183-0.912c62.944-16.178,131.356-35.289,203.893-57.684
			c-0.465-1.713-0.93-3.426-1.394-5.139c-228.431,70.54-415.982,108.513-519.922,124.561
			c39.503-23.242,99.232-57.37,190.701-103.545c7.399-3.734,14.549-13.128,12.035-47.694c20.91,22.023,48.178,23.278,49.518,23.254
			c10.062-0.178,16.961-2.685,17.347-2.83c52.868-17.957,137.422-45.426,228.263-74.894c-0.446-1.638-0.889-3.278-1.335-4.916
			c0.447-0.237,0.882-0.488,1.304-0.751c0.422-0.263,0.833-0.54,1.23-0.828c0.795-0.577,1.54-1.204,2.231-1.879v0v0l1.491,5.107
			l0.445,1.526c3.589-1.164,7.184-2.33,10.79-3.5l33.302-10.783l-1.579-5.436c0.565-0.209,1.116-0.436,1.651-0.681
			c0.534-0.246,1.052-0.51,1.551-0.796l0,0l0,0l1.562,5.047l0.236,0.761c270.183-87.291,332.018-103.47,336.677-115.875
			c4.042-10.763,6.506-20.748,7.772-29.964c2.642,7.313,5.598,14.969,11.708,19.757c7.929,6.215,18.975,5.987,29.031,5.378
			c67.357-4.076,134.469-12.163,200.871-24.176c-195.957,96.042-388.635,169.809-561.096,225.532l1.144,3.696l0.429,1.385
			c73.289-23.677,150.226-50.616,229.503-81.122l14.657-4.08c4.497,7.175,43.862,73.652,31.799,95.902
			c-6.607,9.542-79.238,47.38-229.932,95.118c-4.084,1.294-8.145,2.566-12.18,3.819l2.82,9.244
			c120.104-37.408,242.594-81.347,253.199-100.259c5.944-10.596,5.493-25.231,1.895-40.615c3.875,4.703,6.961,8.523,8.907,11.284
			c7.561,10.732,19.626,16.536,31.967,16.318c5.409-0.096,10.865-1.347,16.023-3.847c28.513-13.816,57.326-27.546,85.078-40.772
			c112.411-53.573,182.06-87.253,196.922-103.926C2197.767,636.994,2179.298,531.894,2157.689,502.341z M1270.646,882.91
			c7.948,40.087,10.36,77.729,7.932,92.762c-0.521,3.238-2.589,16.327-29.741,22.259c-36.038,7.874-69.747,13.461-99.187,17.921
			c-135.819,20.572-199.728,22.156-220.346,11.051c-11.758-6.335-21.567-23.322-28.355-48.648
			c8.674-2.489,21.758-10.26,46.58-25.004c2.846-1.691,5.839-3.469,8.979-5.33C1024.268,937.974,1133.861,917.518,1270.646,882.91z
			 M1152.241,822.849c-110.115,55.587-174.45,93.801-212.89,116.636c-19.669,11.684-35.678,21.193-42.122,23.194
			c-3.522-20.404-4.702-39.484-3.525-56.762c0.174-1.288,0.271-2.632,0.296-4.033l0.088-1.136
			c40.044-29.245,85.318-57.456,124.369-81.219c57.772-35.179,109.043-58.786,130.937-68.866c0.203-0.094,0.39-0.18,0.589-0.271
			C1162.277,807.042,1152.348,822.795,1152.241,822.849z M1149.119,733.069c-0.222,2.825-0.531,5.731-2.005,8.137
			c-1.943,3.172-5.528,4.88-8.908,6.433c-85.462,39.237-166.949,87.127-242.81,142.7c3.801-2.784,4.555-30.678,5.638-36.261
			c2.542-13.103,5.619-26.102,9.211-38.956c7.484-26.782,17.214-52.937,29.05-78.1c22.531-47.898,52.212-90.38,87.533-129.632
			c69.69-77.447,154.796-141.026,249.01-185.545c-82.104,79.605-117.935,196.685-126.678,310.71
			C1149.146,732.725,1149.133,732.897,1149.119,733.069z M1164.275,729.519c2.477-166.219,84.809-271.121,136.657-317.176
			c35.193-19.768,76.385-35.916,123.492-48.313c8.426-1.273,170.372-40.935,380.014,116.346
			c6.866,5.151,13.353,10.813,19.529,16.774l4.131,3.987c4.82,5.358,7.156,9.414,9.862,14.791
			c-43.978,12.313-186.705,52.76-339.628,101.309c-119.086,37.809-244.316,80.524-333.916,118.674
			C1164.297,733.781,1164.244,731.647,1164.275,729.519z M1845.499,582.798c-0.992,3.646-2.518,7.095-5.066,9.842
			c-3.896,4.2-9.587,6.138-15.031,7.922c-193.597,63.432-387.193,126.865-580.79,190.297c-10.133,3.32-20.662,6.684-31.255,5.445
			c-18.304-2.142-44.102-25.801-45.127-45.35c-0.716-13.659,8.896-12.911,22.148-17.885c15.08-5.661,30.172-11.291,45.287-16.858
			c58.135-21.409,116.559-42.036,175.249-61.873c117.38-39.675,235.828-76.193,355.172-109.498
			c6.337-1.768,74.896-21.672,75.304-20.556c6.063,16.589,7.929,34.693,5.377,52.17
			C1846.457,578.571,1846.065,580.717,1845.499,582.798z M1852.957,510.207c-7.864-13.741-16.674-20.613-16.674-20.613
			c-120.94-107.074-257.336-135.143-339.71-141.35c96.123-16.44,199.208-23.324,295.245-7.745
			c94.373,15.309,186.548,51.071,275.309,100.756c16.851,9.433,36.606,23.566,53.312,39.405
			c-24.113,1.639-92.85,6.525-157.823,13.02C1921.023,497.842,1876.419,505.517,1852.957,510.207z M1907.114,581.552
			c-0.066,0.005-0.132,0.009-0.198,0.014c-6.693,0.485-13.911,0.808-19.566-2.805c-4.395-2.808-7.108-7.556-9.538-12.171
			c-5.554-10.542-10.719-21.404-14.976-32.54c-6.65-17.395-5.735-17.267,12.224-20.477c27.149-4.853,54.646-8.308,82.014-11.651
			c52.329-6.393,104.897-10.832,157.558-13.303c4.118-0.193,8.364-0.356,12.236,1.059c4.024,1.47,7.265,4.511,10.124,7.702
			c12.022,13.421,19.293,31.015,20.255,49.007C2074.783,563.701,1991.154,575.458,1907.114,581.552z M2164.744,649.994
			c-13.468,15.108-57.462,41.235-149.202,84.955c-27.783,13.242-95.715,49.39-127.825,55.984
			c-10.704,2.198-21.586,1.709-27.923-7.282c-2.871-4.083-7.463-9.621-13.269-16.636c-8.059-9.735-36.973-51.794-39.874-56.663
			c103.387-40.703,210.42-87.465,318.291-140.998c10.172-1.962,20.326-4.014,30.461-6.161c3.126-0.662,6.365-1.41,9.141-2.905
			C2172.542,594.121,2174.849,638.648,2164.744,649.994z"/>
	</g>
	<g>
		<path d="M1691.72,2615.967c-7.694,5.097-16.868,8.148-26.76,8.324c-27.684,0.49-50.608-21.635-51.099-49.32l-1.568-88.541
			l4.299,1.869l1.534,86.596c0.449,25.336,21.425,45.58,46.759,45.131c9.141-0.162,17.612-3.007,24.694-7.754
			C1690.272,2613.518,1690.981,2614.753,1691.72,2615.967z M1303.133,2351.99l1.085,61.243c0.449,25.335-19.797,46.31-45.131,46.759
			s-46.308-19.795-46.756-45.131l-1.828-103.151l-4.298-1.869l1.862,105.096c0.49,27.684,23.412,49.81,51.096,49.32
			c27.686-0.49,49.81-23.414,49.32-51.098l-1.05-59.298L1303.133,2351.99z M2555.848,2353.843
			c-0.11,17.214-5.656,36.349-14.507,43.157c-17.703,13.618-41.191,6.468-48-10.213c-10.01-24.524-5.316-67.294-5.192-93.768
			c0.336-71.987,0.671-143.974,1.007-215.962c0.281-60.312,0.563-120.624,0.844-180.936c-3.631,8.314-7.319,16.617-11.074,24.902
			c-0.514,70.984-1.028,141.969-1.542,212.953c-0.396,54.656-0.792,109.312-1.187,163.968c-0.099,13.664-0.198,27.328-0.297,40.992
			c-0.087,12.07-2.232,26.161,0.217,38.01c3.597,17.404,16.851,34.872,34.683,38.832c16.538,3.673,34.998-4.184,43.817-18.648
			c7.69-12.613,8.005-28.216,8.095-42.988c1.343-220.092,2.686-440.183,4.028-660.275c-2.583,7.857-5.219,15.74-7.902,23.645
			C2558.015,1929.575,2557.2,2141.635,2555.848,2353.843z M2534.872,1042.787c-17.361-1.641-37.117,2.865-45.277,24.511
			c-5.612,14.887-4.958,35.226-4.896,51.922l8.919,0.851c0.038-8.219,0.077-16.438,0.115-24.657
			c0.043-9.305-0.389-18.096,3.885-26.361c13.311-25.746,54.956-17.713,61.424,2.213c1.939,5.975,2.743,22.119,2.723,25.215
			c-0.064,10.026-0.113,20.047-0.174,30.072l8.604,0.821c0.017-2.835,0.035-5.67,0.052-8.506
			C2570.313,1108.01,2578.106,1046.872,2534.872,1042.787z"/>
		<path d="M2271.749,1836.301c2.316-0.139,4.499-0.355,6.559-0.637c-0.536,1.246-1.068,2.5-1.606,3.743
			c-13.426,31.015-27.479,61.191-42.122,90.518c-0.32-0.385-0.623-0.773-0.946-1.157c-1.05-1.249-2.07-2.478-3.086-3.705
			C2245.169,1895.657,2258.886,1866.018,2271.749,1836.301z M2264.747,1427.303c-1.881,1.055-3.784,2.1-5.71,3.136
			c-16.15,61.873-35.3,125.696-57.998,189.969c1.058,1.55,2.139,3.066,3.242,4.547
			C2228.179,1557.726,2248.117,1491.217,2264.747,1427.303z M2202.278,1822.818c-1.584-0.718-3.084-1.444-4.5-2.174
			c-5.141,11.189-10.345,22.262-15.613,33.214c0.888,1.815,1.833,3.678,2.843,5.596
			C2190.84,1847.384,2196.599,1835.176,2202.278,1822.818z M2389.802,1962.677c-2.271,0.565-4.547,1.067-6.821,1.507
			c-36.14,73.426-77.887,145.41-126.109,213.489c-3.826,8.815-8.024,17.628-12.574,26.426c7.212-9.717,14.334-19.576,21.355-29.586
			C2310.759,2110.204,2352.269,2039.334,2389.802,1962.677z M2264.792,1672.724c39.403-104.513,74.095-217.557,103.97-338.856
			c-2.519,3.71-5.148,7.396-7.899,11.051c-29.088,116.296-62.641,224.908-100.571,325.574
			C2261.796,1671.259,2263.296,1672.002,2264.792,1672.724z M2276.15,2008.313c9.729-18.435,19.268-37.23,28.606-56.404
			c-1.25-0.977-2.478-2.007-3.678-3.088c-8.839,18.187-17.775,35.869-26.793,53.072
			C2274.947,2004.026,2275.564,2006.167,2276.15,2008.313z M2327.746,1906.035l0.575-15.575c-2.856,6.367-5.723,12.678-8.602,18.934
			c1.34,0.686,2.798,1.257,4.35,1.716C2325.344,1908.341,2326.479,1908.818,2327.746,1906.035z M1680.798,1881.112
			c47.54-62.002,92.318-130.559,133.945-205.205c43.512-78.028,83.864-163.251,120.845-255.066
			c-1.286-1.035-2.594-2.103-3.924-3.204c-71.97,179.183-156.695,332.559-253.582,459.056
			C1679.062,1878.058,1679.974,1879.53,1680.798,1881.112z M1665.498,1865.332c99.948-129.805,181.74-285.853,244.722-466.878
			c-4.117-3.973-8.312-8.199-12.544-12.685c-62.313,181.28-143.445,337.403-242.752,467.077c0.526,2.222,0.409,4.734-0.685,7.572
			C1654.239,1860.417,1659.399,1861.681,1665.498,1865.332z M1973.281,1465.277c-0.41-4.049-0.868-8.09-1.371-12.126
			c-54.721,145.628-129.089,297.992-229.795,434.951c3.284-0.957,6.572-2.03,9.861-3.218
			c25.589-35.206,50.133-72.325,73.597-111.375C1881.115,1681.073,1930.7,1577.569,1973.281,1465.277z M1917.683,2141.521
			c1.451-3.992,2.9-8.111,4.345-12.354c-43.32,51.717-91.073,100.215-143.693,144.289c-2.944,4.673-5.94,9.257-8.993,13.732
			C1821.984,2244.307,1871.453,2195.716,1917.683,2141.521z M1997.957,2452.129c21.124-15.496,41.798-31.897,62.015-49.165
			c-0.294-1.942-0.562-3.916-0.81-5.913c-26.43,22.724-54.105,44.319-83.102,64.598c-38.801,15.998-78.854,27.962-120.136,35.879
			c58.657-37.915,115.327-84.27,168.767-138.093c12.035-12.121,23.925-24.654,35.669-37.57c0.366-2.753,0.759-5.532,1.195-8.356
			c-74.923,83.158-149.625,143.138-218.619,186.368c-8.019,1.365-16.084,2.578-24.195,3.642c-3.223,5.816-5.844,11.525-7.819,17.109
			c91.126-10.516,176.637-39.437,256.3-86.585c-1.663-5.121-3.143-10.5-4.426-16.136
			C2041.6,2430.639,2019.989,2442.056,1997.957,2452.129z M2651.118,1171.745c-19.268-25.13-48.406-41.269-79.939-44.278
			l-147.184-14.037c0.177,5.358,0.255,10.728,0.227,16.107l28.834,2.75c-13.692,119.352-42.449,297.78-102.216,489.659
			c0.465-0.012,0.927-0.022,1.383-0.031c1.494-0.028,2.991-0.054,4.49-0.071c17.624-56.95,33.499-115.871,47.53-176.479
			c23.644-102.135,41.719-207.268,53.779-312.605l86.094,8.212c-36.46,213.079-83.569,395.279-137.52,551.102
			c-0.055,4.961-0.111,9.923-0.166,14.885c59.327-168.219,107.042-357.164,142.676-565.51l20.551,1.96
			c12.542,1.196,24.436,4.662,35.262,10.15c-15.339,144.891-53.468,388.218-147.058,636.999c1.068,2.495,2.074,5.014,3.004,7.559
			c42.434-111.933,77.609-233.67,104.56-361.939c19.427-92.463,34.292-186.63,44.238-280.047
			c10.985,6.364,20.733,14.903,28.751,25.359c16.803,21.919,23.522,48.992,18.917,76.228
			c-27.38,161.976-94.521,474.314-236.57,746.299c-78.511,150.324-168.46,267.411-269.259,350.841
			c-1.12,7.136-1.399,14.371-0.93,21.508c106.936-85.312,201.953-207.12,284.378-364.938
			c143.072-273.937,210.629-588.133,238.169-751.04C2678.477,1228.715,2670.663,1197.236,2651.118,1171.745z M1763.593,1985.673
			c2.184-1.204,3.419-1.803,3.419-1.803s-0.923,0.304-2.644,0.81C1764.11,1985.009,1763.852,1985.344,1763.593,1985.673z
			 M1668.677,1889.406c-0.121-0.033-0.241-0.068-0.362-0.101c-0.001,0.001-0.002,0.003-0.003,0.004
			C1668.434,1889.343,1668.556,1889.373,1668.677,1889.406z M1673.469,1890.612c-0.266-0.061-0.532-0.123-0.797-0.186
			c0.264,0.063,0.528,0.131,0.792,0.193C1673.466,1890.616,1673.468,1890.614,1673.469,1890.612z M1669.682,2148.906
			c-38.901,39.996-80.834,77.529-126.003,111.887c-0.009,0.081-0.011,0.154-0.021,0.235c0,0,2.313,0.655,5.053,2.249
			c42.131-32.18,82.491-67.901,121.009-107.107C1669.695,2153.739,1669.681,2151.317,1669.682,2148.906z M1591.292,2329.917
			c21.845-16.499,43.363-34.122,64.472-52.857c2.537-2.252,5.068-4.523,7.595-6.808c0.755-2.656,1.428-5.355,2.037-8.088
			c-25.605,23.356-50.999,44.343-76.002,63.212C1590.124,2326.798,1590.76,2328.316,1591.292,2329.917z M1530.369,2433.34
			c27.332-11.944,54.057-25.043,80.169-39.289c-3.099-0.083-6.206-0.291-9.321-0.626c-24.87,13.303-50.568,25.724-77.126,37.185
			l-53.165-23.119c22.681-12.189,45.156-25.616,67.364-40.187c-1.323-1.069-2.624-2.164-3.9-3.287
			c-23.659,15.413-46.819,28.992-69.305,40.934l-84.511-36.75c39.796-19.781,78.354-42.22,115.637-67.27
			c-0.422-1.733-0.809-3.485-1.15-5.254c-37.992,25.639-78.112,49.074-120.487,69.915l-66.764-29.033
			c54.543-18.333,123.836-49.177,200.293-101.001c2.01-2.112,4.056-3.585,5.999-4.099c50.362-34.694,103.718-78.499,157.932-133.804
			c0.674-0.688,1.344-1.386,2.018-2.076c0.69-3.228,1.483-6.387,2.392-9.473c-141.659,147.223-278.214,215.677-375.505,247.466
			l-86.112-37.446c170.583-58.531,321.018-159.941,449.5-302.719c-2.366-0.285-4.744-0.623-7.128-0.997
			c-117.838,130.478-265.163,238.676-449.195,300.749l-69.721-30.319c-0.18-0.078-0.337-0.168-0.508-0.25
			c85.504-17.84,243.417-71.739,412.375-234.37c17.842-17.174,35.395-35.18,52.65-53.979c-1.475-0.822-2.942-1.67-4.399-2.552
			c-16.92,18.368-34.156,36.023-51.718,52.928c-170.541,164.156-329.586,216.905-413.608,233.831
			c-1.656-2.736-1.658-5.629-1.574-6.794c0.283-3.878,2.632-8.58,8.375-10.131c85.425-23.13,254.106-87.602,424.036-259.549
			c6.67-6.749,13.273-13.598,19.815-20.538c-4.091-3.266-8.068-6.825-11.91-10.702c-6.369,6.753-12.799,13.415-19.291,19.984
			c-167.291,169.279-332.966,232.644-416.837,255.351c-11.387,3.084-19.3,12.67-20.157,24.424
			c-0.856,11.728,5.569,22.337,16.365,27.035l523.579,227.681c9.665,4.201,19.337,7.76,28.942,10.668
			c1.097-5.816,2.46-11.75,4.093-17.795c-0.953,0.463-1.893,0.94-2.848,1.401c-7.897-2.522-15.845-5.499-23.802-8.961l-41.72-18.142
			c34.685-15.39,69.03-33.746,102.787-54.903c1.829-3.208,3.723-6.436,5.673-9.677c-41.975,27.014-80.799,47.05-114.71,61.862
			L1530.369,2433.34z"/>
	</g>
	<g>
		<path d="M2068.277,1547.97c1.176-8.572-6.746-17.629-22.307-25.503c-14.781-7.479-34.947-13.246-56.78-16.239
			c-4.2-0.58-8.563-1.056-13.34-1.454l-2.745-0.229l0.037,2.755c0.076,5.594,0.025,11.296-0.153,16.946
			c-0.423,13.104-1.479,26.039-3.139,38.443l-0.318,2.376l2.36,0.418c2.916,0.516,5.931,0.987,8.96,1.401
			c10.508,1.44,20.813,2.16,30.49,2.16c10.439,0,20.146-0.838,28.576-2.509C2057.032,1563.144,2067.104,1556.55,2068.277,1547.97z
			 M1981.531,1561.931c-2.157-0.295-4.305-0.62-6.413-0.969c1.503-11.838,2.468-24.123,2.869-36.557
			c0.151-4.799,0.212-9.633,0.183-14.408c3.636,0.339,7.04,0.729,10.339,1.184c21.3,2.92,40.905,8.513,55.204,15.748
			c13.313,6.736,20.462,14.158,19.611,20.361v0.001c-0.851,6.211-9.735,11.438-24.377,14.34
			C2023.231,1564.745,2002.84,1564.851,1981.531,1561.931z M1755.844,1917.935c0.101-0.728,0.03-1.846-0.877-3.042
			c-2.549-3.361-10.646-5.539-17.372-6.457c-6.711-0.936-15.08-1.022-18.454,1.532c-1.205,0.913-1.578,1.979-1.678,2.712
			c-0.894,6.527,15.04,9.076,18.249,9.521c1.279,0.175,4.604,0.575,8.193,0.575
			C1749.305,1922.776,1755.305,1921.871,1755.844,1917.935z M1736.394,1917.248c-6.736-0.935-11.221-2.629-13.117-3.773
			c2.138-0.599,6.91-1.023,13.636-0.086h0.007c6.702,0.915,11.185,2.603,13.096,3.752
			C1747.872,1917.738,1743.105,1918.163,1736.394,1917.248z M1699.337,1895.08l2.083-3.591l-4.147-0.162
			c-10.897-0.427-21.762-2.308-32.287-5.59c-17.284-5.432-33.363-14.619-46.498-26.571l-1.319-1.201l-1.564,0.857
			c-7.482,4.098-11.904,9.68-12.786,16.142c-2.172,15.973,17.818,31.451,45.509,35.238c4.009,0.55,7.954,0.814,11.775,0.814
			C1678.24,1911.017,1693.559,1905.04,1699.337,1895.08z M1649.004,1905.249c-24.085-3.295-42.967-16.854-41.231-29.61
			c0.734-5.383,4.865-9.152,8.719-11.548c13.409,11.84,29.619,20.956,47.001,26.418c9.41,2.935,19.079,4.792,28.809,5.538
			C1684.403,1903.928,1667.245,1907.747,1649.004,1905.249z M1694.524,1934.568c-4.326-2.129-10.18-3.772-16.484-4.627
			c-10.559-1.453-20.007-0.399-24.066,2.685c-1.765,1.34-2.302,2.847-2.441,3.876c-0.935,6.92,11.656,11.836,23.745,13.475
			c3.023,0.416,6.131,0.644,9.108,0.644c8.936,0,16.694-2.052,17.425-7.229C1702.114,1941.152,1701.098,1937.804,1694.524,1934.568z
			 M1675.954,1945.022c-13.094-1.774-19.667-6.365-19.467-7.849c0.007-0.056,0.113-0.266,0.51-0.566
			c1.748-1.327,6.083-2.313,11.971-2.313c2.536,0,5.361,0.183,8.391,0.6l0.005,0.001c5.787,0.784,11.097,2.261,14.953,4.159
			c3.9,1.92,4.569,3.443,4.541,3.65C1696.649,1944.185,1689.063,1946.824,1675.954,1945.022z M2090.184,1895.701
			c2.007-0.239,8.113-0.968,8.678-5.087c0.565-4.12-5.118-6.466-6.986-7.237c-3.91-1.614-9.18-2.931-14.84-3.707
			c-5.659-0.777-11.089-0.929-15.289-0.427c-2.007,0.239-8.113,0.967-8.678,5.086c-0.566,4.12,5.118,6.467,6.986,7.238
			c3.91,1.613,9.18,2.93,14.84,3.706c3.47,0.477,6.853,0.718,9.919,0.718C2086.749,1895.991,2088.559,1895.895,2090.184,1895.701z
			 M2058.46,1885.07c2.054-0.908,8.322-1.76,17.896-0.447c9.574,1.314,15.38,3.823,17.114,5.251
			c-2.055,0.908-8.32,1.761-17.896,0.446S2060.193,1886.497,2058.46,1885.07z M2199.006,1974.888
			c-5.395-3.033-12.756-5.307-20.727-6.399c-7.971-1.094-15.673-0.888-21.685,0.58c-6.781,1.656-10.826,4.833-11.39,8.945
			c-0.565,4.112,2.475,8.261,8.559,11.683c5.396,3.033,12.756,5.306,20.727,6.399c3.374,0.463,6.7,0.693,9.87,0.693
			c4.318,0,8.348-0.427,11.815-1.273c6.78-1.656,10.825-4.833,11.39-8.945S2205.09,1978.31,2199.006,1974.888z M2202.612,1985.891
			c-0.255,1.854-3.176,3.682-7.623,4.768c-5.416,1.322-12.456,1.493-19.819,0.484c-7.363-1.011-14.095-3.072-18.955-5.805
			c-3.99-2.244-6.312-4.79-6.057-6.645s3.175-3.682,7.622-4.768c3.09-0.754,6.706-1.135,10.609-1.135c2.941,0,6.046,0.216,9.21,0.65
			c7.363,1.011,14.095,3.072,18.956,5.805C2200.546,1981.49,2202.866,1984.036,2202.612,1985.891z M2185.285,1939.638
			c1.811-13.201-25.168-24.16-51.471-27.77c-14.1-1.936-27.651-1.854-38.158,0.227c-11.536,2.285-18.067,6.66-18.89,12.652
			c-1.812,13.2,25.166,24.16,51.47,27.77c6.529,0.896,13.217,1.367,19.615,1.367
			C2167.229,1953.884,2183.923,1949.562,2185.285,1939.638z M2081.72,1925.427c0.483-3.523,6.057-6.674,14.907-8.427
			c5.146-1.02,11.087-1.53,17.495-1.53c6.016,0,12.444,0.45,19.013,1.352c29.056,3.988,48.194,14.867,47.197,22.137
			c-0.999,7.27-22.361,12.592-51.416,8.605C2099.859,1943.575,2080.723,1932.696,2081.72,1925.427z M2062.467,1605.383
			c9.665,0,18.441-2.742,19.3-8.871l0.002-0.014c1.03-7.671-11.241-13.566-23.312-15.22c-9.909-1.354-18.883-0.055-23.41,3.394
			c-1.805,1.374-2.893,3.101-3.145,4.979c-0.265,1.885,0.317,3.836,1.682,5.642c3.432,4.543,11.717,8.218,21.627,9.592
			C2057.613,1605.214,2060.067,1605.383,2062.467,1605.383z M2037.573,1592.279c-0.555-0.734-0.797-1.385-0.718-1.948
			c0.075-0.556,0.485-1.121,1.22-1.681c2.115-1.61,6.661-2.902,12.859-2.902c2.102,0,4.394,0.148,6.846,0.483
			c12.171,1.667,19.396,6.792,19.034,9.594c-0.404,2.789-8.745,5.774-20.921,4.106
			C2046.218,1598.591,2039.721,1595.122,2037.573,1592.279z M1789.1,2161.96c9.399,5.79,22.307,10.037,36.345,11.96
			c0.891,0.132,1.781,0.236,2.682,0.343l1.873,0.22l0.726-1.74c6.202-14.858,12.744-29.028,19.446-42.115l1.381-2.696l-2.91-0.845
			c-5.137-1.49-10.617-2.639-16.286-3.415c-14.041-1.934-27.62-1.327-38.233,1.715c-11.295,3.235-18.053,8.924-19.028,16.017
			S1779.092,2155.796,1789.1,2161.96z M1780.047,2142.084c0.68-4.938,6.312-9.273,15.452-11.893
			c6.104-1.748,13.29-2.634,21.019-2.634c4.883,0,9.981,0.354,15.158,1.066c4.365,0.598,8.607,1.425,12.65,2.465
			c-6.01,11.91-11.882,24.665-17.482,37.979c-0.228-0.03-0.455-0.062-0.682-0.096l-0.026-0.003
			c-13.369-1.831-25.591-5.831-34.414-11.266C1783.623,2152.715,1779.367,2147.021,1780.047,2142.084z M1843.121,2449.004
			c-11.506-1.578-22.667-0.882-31.424,1.958c-9.363,3.037-14.999,8.221-15.869,14.595l-0.001,0.001
			c-1.44,10.611,11.259,21.581,30.884,26.677l1.685,0.438l0.995-1.429c7.726-11.098,17.766-22.743,29.84-34.614l2.917-2.869
			l-3.884-1.287C1853.51,2450.896,1848.415,2449.729,1843.121,2449.004z M1826.303,2486.942
			c-15.909-4.509-26.558-13.08-25.521-20.711c0.589-4.305,5.129-8.136,12.458-10.514c8.055-2.613,18.428-3.238,29.201-1.761
			c3.549,0.487,6.998,1.183,10.3,2.075C1842.272,2466.586,1833.395,2476.964,1826.303,2486.942z M1864.166,2382.482
			c-8.283-1.149-17.536,0.048-18.288,5.414c-0.702,5.333,7.872,9,16.146,10.151c1.96,0.266,3.855,0.396,5.635,0.396
			c4.621,0,8.456-0.875,10.59-2.507c1.488-1.137,1.939-2.438,2.054-3.307c0.126-0.895,0.037-2.275-1.1-3.776
			C1876.949,2385.877,1871.188,2383.437,1864.166,2382.482z M1862.704,2393.094c-7.173-0.998-11.096-3.472-11.782-4.521
			c0.943-0.822,5.387-2.134,12.559-1.137l0.008,0.001c7.191,0.976,11.119,3.454,11.783,4.494
			C1874.348,2392.747,1869.892,2394.071,1862.704,2393.094z M1797.725,2205.521L1797.725,2205.521
			c0.478-3.485-1.749-6.954-6.269-9.769c-3.929-2.446-9.298-4.229-15.109-5.021c-13.072-1.808-23.637,1.829-24.583,8.483
			c-0.478,3.483,1.753,6.952,6.278,9.769c3.932,2.445,9.296,4.229,15.1,5.021c2.214,0.306,4.386,0.455,6.467,0.455
			c6.218,0,11.616-1.332,14.855-3.787C1796.329,2209.259,1797.456,2207.478,1797.725,2205.521z M1791.443,2206.688
			c-2.666,2.021-9.147,3.537-17.621,2.362c-5.052-0.688-9.841-2.261-13.139-4.313c-2.632-1.637-4.151-3.493-3.968-4.832
			c0.316-2.227,5.386-4.631,13.18-4.631c1.788,0,3.721,0.127,5.771,0.411c5.135,0.698,9.804,2.229,13.147,4.311
			c2.626,1.636,4.143,3.492,3.958,4.846C1792.686,2205.464,1792.239,2206.085,1791.443,2206.688z M1817.355,2426.527
			c7.792,0,14.346-1.444,17.85-4.107c2.182-1.658,2.843-3.498,3.013-4.75c0.173-1.256,0.031-3.208-1.623-5.395
			c-3.688-4.874-13.702-9.074-25.514-10.702c-11.815-1.627-22.598-0.28-27.477,3.428c-2.184,1.659-2.844,3.5-3.013,4.742
			c-0.175,1.258-0.034,3.22,1.632,5.416c3.706,4.89,13.718,9.085,25.504,10.688
			C1811.056,2426.306,1814.3,2426.527,1817.355,2426.527z M1786.208,2412.14c-0.348-0.459-0.744-1.126-0.662-1.717
			c0.077-0.568,0.632-1.098,1.084-1.44c2.237-1.701,7.482-3.099,14.781-3.099c2.726,0,5.739,0.195,8.988,0.643
			c11.947,1.646,19.887,5.698,22.208,8.767c0.344,0.454,0.737,1.117,0.657,1.695l-0.002,0.01c-0.077,0.569-0.631,1.098-1.083,1.44
			c-3.071,2.336-11.817,4.102-23.774,2.455C1796.484,2419.272,1788.542,2415.219,1786.208,2412.14z"/>
		<path d="M2455.783,1924.399c-22.779,36.875-68.552,49.476-104.587,48.27l0.092-2.481l-2.46-0.128
			c-7.238-0.374-14.084-1.325-20.347-2.826l-2.969-0.712l-0.093,2.529c-4.838-1.306-9.161-2.924-12.796-4.81
			c-27.785-14.423-47.776-45.91-29.805-83.743c10.272-21.629,30.756-35.125,47.189-35.7l-0.262,12.192
			c-11.908,1.597-28.045,13.578-35.37,28.995c-15.289,32.194,3.451,56.16,24.145,66.899c24.209,12.571,97.036,12.285,126.381-35.208
			c19.233-31.127,23.974-70.608,13.011-108.325c-8.834-30.387-27.245-56.476-51.796-74.152c0.057-5.106,0.114-10.213,0.171-15.319
			c30.507,19.243,53.421,49.811,63.912,85.899C2482.173,1846.967,2476.917,1890.203,2455.783,1924.399z M2328.479,1886.189
			l0.613-16.594c-0.166,0.101-0.726,0.496-0.885,0.592c-11.94,7.27-28.737,20.589-21.305,37.18
			c4.489,10.02,17.095,12.429,32.75,11.025c18.493-1.65,39.925-12.464,46.112-32.896c5.428-17.912,0.459-32.473-7.796-43.13
			c-4.825,1.019-9.813,1.121-14.845,0.937c6.964,8.492,14.574,24.693,10.395,38.486c-2.84,9.375-10.76,16.019-19.7,19.911
			l-0.103,2.777l-1.567,0.581c-4.371,1.621-9.009,2.687-13.413,3.08c-1.283,0.114-2.561,0.172-3.827,0.172
			c-1.675,0-3.329-0.101-4.948-0.3l-2.276-0.281l0.095-2.582c-4.718-0.996-8.219-3.059-9.695-5.951
			C2316.12,1895.354,2321.188,1891.264,2328.479,1886.189z M2310.169,2304.861c19.837,33.281,54.356,142.81-43.85,207.305
			c-31.515,20.698-70.539,27.635-107.054,19.148c-35.5-8.29-65.086-29.935-83.296-60.949
			c-27.526-46.855-32.412-110.417-14.527-188.915l5.44-19.243c-26.634,48.533-39.326,79.85-99.679,122.37
			c-97.244,68.512-154.742,116.792-154.475,162.488c0.054,9.224,2.478,17.893,7.21,25.975c6.224-7.821,12.401-11.407,18.787-10.846
			c3.058,0.258,5.551,1.43,7.527,2.904c3.089-2.65,6.228-3.589,8.715-3.833c4.146-0.423,7.965,0.95,11.069,2.757
			c2.264-3.998,5.17-6.44,7.654-7.913c5.809-3.44,12.347-3.614,17.199-3c1.958-5.733,5.335-8.634,8.188-10.101
			c4.977-2.554,10.453-1.947,14.61-0.742c3.743-6.681,8.595-8.983,12.376-9.659c11.256-2.064,25.002,8.009,31.077,13.559
			c0.139,0.109,0.282,0.212,0.417,0.326c3.892,3.284,8.025,9.976,5.611,23.232c-3.47,19.068-38.882,69.432-91.417,93.711
			c-25.906,11.97-52.855,16.075-79.866,12.369c-20.254-2.779-40.54-9.948-60.45-21.483c-28.319-16.401-46.909-42.024-53.758-74.094
			c-12.356-57.84,12.837-134.052,70.941-214.598c9.742-13.503,32.056-36.876,53.635-59.484
			c16.433-17.214,31.955-33.472,39.736-43.124c28.179-34.953,70.354-87.273,103.753-248.668
			c-22.403,16.054-72.65,61.768-115.828,170.364c-28.433,71.518-67.542,131.666-110.123,169.368
			c-48.815,43.22-100.745,56.395-150.16,38.049c-36.358-13.481-65.197-43.802-77.144-81.116
			c-8.668-27.073-7.299-50.848,4.071-70.661c4.353-7.583,11.346-16.478,19.937-15.774c-0.461-0.038-0.915-0.035-1.366-0.019
			c2.301-0.241,17.235-1.387,27.076,8.382c5.784,5.738,8.528,13.782,8.188,23.951c3.736,1.908,8.629,5.317,11.444,10.945
			c1.43,2.857,2.684,7.107,1.902,12.591c4.429,2.113,10.126,5.858,13.036,11.954c1.327,2.784,2.433,6.884,1.443,12.045
			c6.202,3.979,16.319,12.276,19.828,25.582c18.965-2.843,36.732-16.303,49.298-38.046c18.104-31.32,17.193-74.435,16.312-116.129
			c-0.794-37.625-1.614-76.532,11.975-106.294c15.288-33.485,39.185-57.212,58.319-72.146
			c-48.877,7.532-136.98,8.588-186.047-66.485c-33.896-51.854-34.391-121.275-1.261-176.854
			c12.927-21.688,28.561-39.76,45.214-52.265c6.852-5.141,16.391-4.577,22.193,1.318c0.002,0.002,0.004,0.003,0.005,0.005
			c0.01,0.009,0.018,0.02,0.027,0.029c0.157,0.161,0.312,0.327,0.466,0.497c6.348,6.617,6.933,20.675,3.421,30.09
			c2.796,1.96,5.727,4.99,7.038,9.491c1.784,6.13-0.039,12.955-5.422,20.335c3.121,5.456,4.778,13.768-0.219,23.512
			c5.981,2.397,13.059,6.681,15.249,13.944c1.574,5.223,0.395,10.711-3.507,16.385c5.711,3.542,11.144,9.101,11.758,16.698
			c5.275,2.031,13.044,6.061,16.713,13.051c1.491,2.845,2.17,5.91,2.031,9.069c7.754,3.233,21.094,10.886,27.003,26.722
			c0.458,1.229,0.851,2.408,1.213,3.565c68.801,7.03,144.553-45.195,207.077-144.63c61.794-98.276,82.232-185.98,68.081-292.666
			c-22.575-13.77-172.133-112.463-167.137-304.623c3.113-119.866,50.129-224.376,128.988-286.736
			c69.411-54.889,157.995-73.012,256.16-52.437c189.788,39.788,252.211,200.212,247.349,337.078
			c-5.742,161.387-79.453,265.629-225.352,318.63c-6.002,8.358-36.34,55.153-15.441,120.707
			c21.363,67.015,81.708,88.021,114.128,99.306c3.95,1.375,7.805,2.716,11.561,4.022c-1.202,3.928-2.7,7.686-5.317,10.722
			c-0.222,0.257-0.459,0.494-0.691,0.736c-3.189-1.109-6.432-2.237-9.759-3.395c-32.071-11.165-98.807-34.396-122.109-107.505
			c-18.348-57.547-0.984-101.187,10.487-121.496c-11.363,1.722-22.724,3.381-34.12,4.881c-8.131,1.07-16.274,2.076-24.443,2.894
			c-8.151,0.7-16.392,1.793-24.576,0.992c8.165-0.268,16.098-2.402,24.05-4.147c7.939-1.861,15.841-3.906,23.727-6.015
			c15.523-4.15,31.016-8.56,46.399-13.1c141.585-50.829,213.113-151.474,218.671-307.686
			c4.677-131.662-55.18-285.943-237.191-324.103c-94.323-19.747-179.26-2.502-245.597,49.952
			c-75.873,59.999-121.12,160.973-124.136,277.035c-5.167,198.846,161.687,293.836,163.375,294.772l0.274,0.152
			c4.367,2.288,8.992,4.51,13.585,6.598c4.941,2.226,9.94,4.365,15.017,6.293c10.156,3.84,20.56,7.197,31.5,8.553
			c-11.017,0.786-22.213-0.519-33.189-2.382c-5.504-0.94-10.963-2.105-16.409-3.376c-2.116-0.503-4.209-1.034-6.305-1.571
			c8.948,73.028,6.901,171.233-70.746,294.724c-33.375,53.08-71.773,91.48-111.282,115.216
			c-37.268,24.867-75.462,35.629-111.867,30.638c-7.076-0.971-14.074-2.536-20.994-4.705
			c-36.224-11.365-65.471-37.727-76.327-68.796c-10.061-28.795-4.302-60.392,16.651-91.384c1.208-1.787,2.39-3.742,3.403-5.738
			c0.448-4.827,0.091-9.966-2.389-11.826c-1.443-1.082-3.732-1.307-5.398-0.059c-15.328,11.509-29.819,28.308-41.902,48.582
			c-30.645,51.409-30.26,115.51,0.98,163.304c64.629,98.872,204.974,54.023,206.385,53.561l0.113,0.278l57.022-12.6l-52.377,24.054
			l0.041,0.1c-0.559,0.272-56.188,27.864-82.526,85.548c-12.375,27.1-11.621,62.857-10.822,100.71
			c0.917,43.452,1.867,88.385-18.026,122.805c-16.755,28.989-42.429,41.477-69.114,40.744c-0.958-0.02-1.916-0.072-2.877-0.138
			c-0.48-0.03-0.958-0.031-1.439-0.069c0.006-0.019,0.01-0.032,0.017-0.052c-0.696-0.065-1.389-0.088-2.086-0.178l-0.489-0.067
			c-25.707-3.523-45.85-23.183-53.941-52.683c-2.676-9.755-3.961-20.012-5.095-29.059c-0.993-7.927-1.853-14.775-3.377-18.852
			c-0.559-1.494-1.46-3.226-2.585-4.189c-1.13,0.232-4.78,4.789-5.978,6.695c-1.27,1.472-2.238,3.478-3.799,6.198
			c-9.508,16.566-10.512,36.885-2.986,60.393c10.759,33.599,36.706,60.899,69.407,73.025
			c105.742,39.204,197.496-83.313,243.947-200.149c54.355-136.717,119.025-176.679,132.002-183.559
			c0.945-2.299,1.822-4.984,2.628-7.566c1.074-3.541,2.052-7.166,2.95-10.82c1.789-7.314,3.293-14.742,4.526-22.217
			c1.212-7.479,2.096-15.016,2.425-22.58c0.175-7.504,0.332-15.31-2.915-22.309c4.229,6.52,5.239,14.597,6.112,22.21
			c0.742,7.727,0.915,15.499,0.749,23.253c-0.189,7.755-0.657,15.508-1.442,23.274c-0.397,3.883-0.881,7.769-1.493,11.689
			c-0.609,3.54-1.18,6.975-2.334,10.847l-0.028,0.142c-34.435,175.886-79.462,231.738-109.258,268.701
			c-8.118,10.064-23.819,26.512-40.442,43.927c-20.289,21.25-43.286,45.341-52.512,58.133
			c-55.962,77.573-80.399,150.178-68.807,204.44c6.161,28.844,22.195,50.95,47.658,65.698c43.312,25.088,86.56,27.971,128.536,8.566
			c51.734-23.906,79.226-73.737,84.197-84.385c1.646-3.524,3.285-6.939,2.137-11.695c-1.041-4.311-6.3-5.1-10.054-3.754
			c-0.024,0.009-0.047,0.017-0.071,0.026c-5.08,1.851-10.728,10.047-14.855,16.035c-0.95,1.379-1.928,2.584-2.618,3.731
			c-30.019,49.891-64.407,42.679-74.248,40.707c-15.893-3.185-27.807-15.665-34.626-23.944
			c-5.026-4.361-15.969-21.951-16.312-41.401c-0.901-51.074,60.759-105.589,163.02-178.177
			c94.254-66.905,133.085-210.102,137.727-226.252l0.392-1.384l0.057,0.016c4.209-13.635,8.201-27.449,11.748-41.317
			c1.859-7.342,3.623-14.713,5.041-22.14c0.702-3.714,1.339-7.442,1.743-11.192c0.183-1.873,0.349-3.757,0.323-5.634
			c-0.024-1.862-0.077-3.814-1.043-5.473c1.202,1.518,1.555,3.537,1.841,5.409c0.295,1.91,0.396,3.831,0.478,5.754
			c0.126,3.844,0.015,7.682-0.165,11.513c-0.372,7.663-1.097,15.29-1.921,22.902c-1.615,14.563-3.667,29.01-6.005,43.522
			l0.231,0.064c-0.087,0.314-0.268,0.966-0.525,1.873c-0.003,0.022-0.007,0.045-0.01,0.068l-0.008-0.002
			c-0.134,0.472-0.282,0.99-0.46,1.606l-38.561,136.316c-17.054,74.9-12.654,135.322,13.164,179.273
			c16.422,27.965,43.12,47.486,75.175,54.97c33.133,7.741,68.521,1.403,97.122-17.379c89.852-59.008,58.093-159.511,39.887-190.067
			c-4.474-7.5-10.277-10.886-14.015-10.911c-1.528-0.015-6.09,0.389-8.004,0.882c-1.069,4.256,0.192,9.131,1.684,13.846
			c14.18,44.822-2.173,82.895-13.18,101.597c-5.204,8.846-11.331,16.308-18.208,22.183c-18.986,16.227-39.841,19.433-58.272,9.771
			c-3.564-1.149-12.65-5.349-18.589-11.458c-29.717-30.569-39.434-87.408-5.924-127.54c70.943-84.96,173.601-246.94,64.053-377.208
			c-72.377-86.062-66.909-116.697-62.763-136.249c0.987-3.462,1.996-6.866,2.992-10.282c1.674-5.667,3.326-11.314,4.829-16.988
			c1.502-5.673,2.886-11.369,3.856-17.121c0.473-2.875,0.848-5.769,0.9-8.662c-0.052-2.791,0.029-6.042-2.252-8.066
			c1.336,0.699,2.19,2.133,2.716,3.535c0.526,1.424,0.908,2.916,1.13,4.408c0.49,2.993,0.644,6.012,0.696,9.018
			c0.08,6.016-0.271,12.005-0.74,17.962c-0.21,2.664-0.697,5.308-0.716,7.973c-0.173,25.094,5.577,38.928,61.502,49.137
			c22.621,4.111,35.808,2.635,46.379-0.233c0.314,0.521,0.642,1.036,0.994,1.54c2.524,3.606,5.882,6.414,9.691,8.562
			c-12.953,4.367-28.657,8.326-59.364,2.718c-35.336-6.451-53.234-17.625-62.286-26.994c0.719,16.423,10.84,50.409,62.224,111.511
			c85.644,101.835,62.904,241.634-64.021,393.641c-25.903,31.02-20.985,79.269,0.317,107.114c6.449-5.041,13.507-7.628,21.137-7.562
			c8.869,0.014,16.664,3.596,22.255,7.187c2.503-9.884,6.534-16.099,12.208-18.882c0.83-0.41,1.662-0.721,2.487-0.952
			c-1.631-16.575,3.366-28.69,6.667-34.664c-5.519-8.425-7.723-16.696-6.547-24.636c1.038-7.017,4.469-12.026,7.186-15.011
			c-1.809-7.604-0.847-14.681,2.88-21.087c10.299-17.718,36.428-22.424,42.186-21.783c0.001,0,0.002,0,0.003,0
			C2294.361,2287.772,2303.906,2294.349,2310.169,2304.861z M2274.777,2316.507c-1.44-4.555-2.655-9.271-2.175-13.807
			c-7.165,2.794-14.933,7.135-18.468,13.233l-0.072,0.126c-3.62,6.317-0.424,14.36,6.545,16.469l11.678,2.021l-16.466,2.325
			c-5.297,0.98-9.378,5.231-10.14,10.564l-0.027,0.188c-0.281,2.062-0.14,4.225,0.419,6.481c1.713,6.914,7.08,12.347,13.646,15.108
			l12.813,2.223l-5.979,0.65c-10.992,1.427-19.79,10.107-20.924,21.133c-0.502,4.888-0.349,10.611,1.063,17.063l4.077,15.994
			l-5.26-5.515c-2.167-1.949-2.957-2.686-6.175-4.051l-1.31-0.283c-0.054,0.001-4.649-0.553-7.057,1.214
			c-0.757,0.556-7.635,4.492-6.875,16.64l1.388,9.187l-4.193-3.741c-2.805-2.502-5.979-4.547-9.452-5.982
			c-4.105-1.696-9.822-3.432-15.965-3.418c-5.579-0.182-10.756,2.291-15.692,6.995c19.444,17.491,42.8,17.002,64.515-1.557
			c6.516-5.572,12.337-12.672,17.303-21.105C2272.64,2396.569,2288.462,2359.757,2274.777,2316.507z M1608.009,1742.887l-6.145-1.92
			c-15.538,26.914-19.213,53.932-10.569,78.661c10.419,29.828,38.613,55.166,73.577,66.136c4.059,1.275,8.157,2.291,12.276,3.134
			c-0.161-0.476-0.332-0.964-0.524-1.48c-1.689-4.53-4.278-8.146-7.139-11.006c-4.384-4.384-9.944-7.276-15.919-8.668
			c-4.562-1.063-9.322-0.938-13.947-0.199l-1.689,0.27l10.339-9.696c0.98-2.548,0.506-4.021-0.019-5.022
			c-0.749-1.427-2.125-2.724-3.756-3.851c-2.717-1.877-5.846-2.973-9.082-3.334c-3.697-0.413-7.427,0.447-10.851,1.902l-7.601,3.231
			l11.006-11.793c2.334-2.501,2.141-6.395-0.43-8.652c-3.885-3.412-9.183-4.729-14.213-3.533l-11.464,2.724l14.456-14.775
			c4.444-4.259,6.706-8.11,6.05-10.298c-0.523-1.747-2.766-3.427-5.546-4.792c-4.242-2.085-8.994-2.913-13.72-2.918l-9.717-0.011
			l10.941-10.397c2.078-2.464,3.427-4.688,4.257-6.67c2.352-5.616-2.081-11.791-8.168-11.88l-5.366-0.079l8.39-6.323
			c2.707-2.04,5.148-4.452,6.977-7.306c2.709-4.227,2.581-6.557,2.318-7.502C1612.113,1744.623,1609.036,1743.209,1608.009,1742.887
			z M1524.423,2237.732c1.438,4.542,2.263,11.104,3.205,18.61c1.116,8.906,2.381,19,4.977,28.463
			c7.623,27.792,26.449,46.296,50.408,49.583l0.454,0.062c0.83,0.107,1.657,0.148,2.485,0.212c-0.28-1.341-0.656-2.619-1.117-3.83
			c-4.334-11.372-16.663-17.604-28.68-15.677l0.446-0.846l8.13-9.482c2.052-3.317,0.835-6.208,0.506-6.905
			c-0.589-1.249-1.599-2.359-2.784-3.318c-3.763-3.046-8.882-3.836-13.572-2.632l-6.95,1.784l8.212-11.694
			c1.309-3.398,1.398-6.16,0.272-8.446c-0.615-1.25-1.574-2.325-2.644-3.221c-2.525-2.115-5.753-3.206-9.034-3.49l-3.254-0.282
			l1.821-6.354c1.009-8.396-0.375-14.53-4.114-18.242C1530.71,2239.565,1527.43,2238.335,1524.423,2237.732z M1822.362,2582.494
			c6.47,7.891,14.224,17.122,26.197,21.629c6.122,2.304,34.068,18.624,73.117-34.861c0.769-1.051,1.625-2.295,2.548-3.636
			c3.921-5.69,8.644-12.528,13.797-15.988c-3.576-2.848-7.242-4.869-9.714-4.435c-2.564,0.462-4.339,4.796-5.169,7.335
			l-0.969,13.245l-6.032-7.021c-2.151-2.504-5.096-4.327-8.377-4.692c-1.1-0.122-2.114-0.055-2.85,0.328
			c-1.383,0.72-2.377,3.245-2.724,6.934l2.875,15.373l-7.527-6.573c-3.565-3.113-8.239-4.91-12.941-4.375
			c-1.569,0.178-3.106,0.596-4.417,1.381c-2.531,1.515-4.101,4.367-4.801,8.712l-3.489,18.596l-7.771-15.552
			c-1.834-2.192-3.674-5.483-7.916-4.896c-0.519,0.072-1.327,0.47-2.222,1.067c-3.176,2.117-5.391,5.4-6.464,9.063l-3.654,11.359
			l-1.731-15.761c-0.422-0.88-1.419-3.242-4.067-4.677C1836.332,2574.248,1827.67,2572.896,1822.362,2582.494z"/>
		<path d="M2126.008,1306.534c-0.025-1.793-0.86-3.625-2.097-4.974c-1.786-1.949-30.117-16.382-42.145-20.475
			c-9.021-3.07-34.723-15.794-43.32-11.574c-13.872,6.808,7.916,40.851,29.332,47.83c18.217,5.936,39.039,6.092,54.559-5.143
			c1.26-0.912,2.524-1.931,3.186-3.339C2125.869,1308.122,2126.019,1307.332,2126.008,1306.534z M2113.125,1307.397
			c-14.188,7.645-31.63,9.654-46.586,3.724c-11.385-4.514-30.13-21.217-27.912-35.358c0.295-1.883,2.097-3.14,3.972-2.8
			c25.276,4.574,51.86,19.56,73.116,32.955C2114.865,1306.432,2114.001,1306.925,2113.125,1307.397z M2117.839,1308.321
			c0.075,0.099,0.135,0.189,0.174,0.266C2118.187,1308.86,2118.049,1308.952,2117.839,1308.321z"/>
		<path d="M2177.479,1002.669l9.054-5.104l-103.426-14.192l7.345,7.354c14.621,14.639,21.409,34.686,18.621,55.002
			c-1.572,11.46-4.535,22.782-8.804,33.649l-2.355,5.998l6.313-1.289c9.25-1.888,22.767-2.641,34.615,4.491l5.987,3.604l-0.7-6.953
			c-1.165-11.567-0.963-23.21,0.602-34.606C2147.52,1030.307,2159.456,1012.829,2177.479,1002.669z M2137.796,1049.67
			L2137.796,1049.67c-1.355,9.879-1.735,19.933-1.135,29.97c-6.785-2.852-13.731-3.845-20.113-3.845
			c-2.669,0-5.239,0.173-7.657,0.458c3.353-9.626,5.742-19.548,7.118-29.573c2.65-19.32-2.512-38.417-14.266-53.685l64.252,8.817
			C2150.563,1013.35,2140.447,1030.351,2137.796,1049.67z M2090.767,1001.662c-9.414-12.408-23.074-20.404-38.466-22.517
			l-118.841-16.308c-12.975-1.778-25.871,1.609-36.326,9.542c-10.455,7.933-17.193,19.444-18.974,32.414l-11.54,84.096
			c-2.314,16.865,2.093,33.641,12.408,47.237s25.285,22.359,42.15,24.673l23.69,3.251c6.416,0.88,12.823,1.316,19.191,1.316
			c30.23,0,59.529-9.815,84.084-28.445c29.729-22.554,48.887-55.28,53.946-92.151
			C2104.203,1029.379,2100.182,1014.07,2090.767,1001.662z M1884.604,1131.895c-9.186-12.107-13.109-27.042-11.049-42.055
			l11.54-84.097c1.525-11.117,7.304-20.986,16.27-27.788c7.406-5.62,16.241-8.58,25.357-8.58c1.919,0,3.853,0.131,5.786,0.397
			l25.987,3.566l-69.083,164.1C1887.711,1135.705,1886.098,1133.863,1884.604,1131.895z M1922.13,1153.865
			c-11.492-1.577-21.988-6.529-30.403-14.191l69.845-165.913l56.446,7.746l-72.824,175.523L1922.13,1153.865z M1948.28,1157.423
			l72.812-175.494l27.875,3.825l-67.931,171.507C1970.284,1158.658,1959.3,1158.729,1948.28,1157.423z M1984.456,1156.772
			l67.566-170.582c8.015,1.206,15.478,4.231,21.929,8.808c0.091,0.391,0.1,0.671,0.098,0.8l-57.925,151.799
			C2005.972,1151.986,1995.346,1155.063,1984.456,1156.772z M2095.155,1043.818L2095.155,1043.818
			c-4.805,35.019-23.003,66.103-51.241,87.526c-7.539,5.719-15.551,10.555-23.908,14.493l56.745-148.706
			c3.109,2.548,5.947,5.474,8.44,8.76C2093.475,1016.812,2097.014,1030.28,2095.155,1043.818z M2336.182,1018.1l-118.844-16.308
			c-15.386-2.111-30.699,1.909-43.107,11.322c-12.408,9.414-20.404,23.074-22.517,38.465
			c-10.46,76.231,43.047,146.761,119.277,157.221l23.69,3.251c2.935,0.403,5.865,0.602,8.778,0.602
			c13.827,0,27.228-4.489,38.458-13.01c13.598-10.315,22.359-25.284,24.674-42.148l11.54-84.097
			C2381.811,1046.586,2362.992,1021.779,2336.182,1018.1z M2158.649,1052.531c1.857-13.538,8.894-25.556,19.813-33.839
			c9.02-6.843,19.778-10.448,30.879-10.448c2.338,0,4.69,0.16,7.046,0.483l15.438,2.118l-42.282,146.111
			C2165.643,1129.146,2153.284,1091.631,2158.649,1052.531z M2204.181,1171.545l-7.442-6.85c-1.661-1.649-3.274-3.342-4.844-5.074
			l42.933-148.364l27.238,3.738l-45.496,165.911C2212.248,1178.022,2208.111,1174.895,2204.181,1171.545z M2219.211,1182.623
			l45.853-167.217l39.102,5.365l-46.274,178.387C2243.91,1195.683,2230.909,1190.033,2219.211,1182.623z M2295.633,1205.118
			l-23.69-3.251c-3.772-0.518-7.481-1.199-11.13-2.019l46.346-178.665l21.671,2.974c6.171,1.353,12.372,2.745,17.028,3.797
			c2.025,0.855,3.96,1.863,5.798,3.005l-45.875,174.63C2302.422,1205.727,2299.031,1205.584,2295.633,1205.118z M2371.196,1072.447
			l-11.54,84.097c-2.06,15.012-9.861,28.338-21.969,37.523c-8.504,6.453-18.406,10.296-28.749,11.306l45.354-172.645
			C2366.378,1041.571,2373.372,1056.6,2371.196,1072.447z M2398.202,1105.85l-9.06-0.889l2.915-29.72
			c2.269-16.659-2.091-33.224-12.279-46.654c-10.201-13.448-25.006-22.115-41.687-24.404l-402.723-55.262
			c-34.483-4.735-66.393,19.475-71.127,53.962l-4.802,34.998l-10.659-1.463c-8.287-1.132-15.941,4.677-17.078,12.957
			c-0.551,4.011,0.494,7.997,2.941,11.222s6.004,5.305,10.016,5.855l10.659,1.463l-2.616,19.065
			c-2.823,20.576,2.554,41.044,15.14,57.633c12.586,16.59,30.851,27.281,51.428,30.104l23.689,3.251
			c31.382,4.306,62.844-1.08,90.977-15.576c27.111-13.971,49.228-35.327,64.029-61.811c8.595-3.327,32.028-9.984,43.288,10.548
			l0.773,3.152c15.791,58.299,64.476,99.849,127.056,108.437l23.689,3.251c3.933,0.54,7.813,0.808,11.632,0.808
			c16.551,0,31.906-5.037,44.928-14.827c16.088-12.096,27.134-30.39,31.944-52.904l3.787-24.025l10.178,0.999
			c0.501,0.049,0.998,0.073,1.491,0.073c7.696,0,14.307-5.861,15.075-13.678C2412.622,1114.099,2406.52,1106.667,2398.202,1105.85z
			 M1855.402,1062.879l-10.063-1.381c-2.688-0.369-5.072-1.762-6.712-3.923c-1.641-2.162-2.34-4.833-1.972-7.52
			c0.698-5.083,5.064-8.778,10.058-8.778c0.458,0,0.922,0.031,1.388,0.095l10.063,1.381L1855.402,1062.879z M2385.113,1074.357
			l-3.986,40.675l-6.717,42.644c-9.032,42.088-41.453,66.742-80.688,61.359l-23.689-3.251
			c-59.746-8.199-106.207-47.793-121.229-103.25l-0.964-3.933l-0.206-0.386c-7.146-13.417-18.982-18.35-31.314-18.35
			c-7.516,0-15.217,1.833-22.148,4.695l-1.14,0.471l-0.594,1.082c-29.066,53.014-88.758,83.122-148.527,74.92l-23.689-3.251
			c-18.725-2.569-35.347-12.3-46.803-27.4c-11.456-15.1-16.35-33.727-13.78-52.451l11.54-84.096
			c4.207-30.663,32.566-52.188,63.24-47.979l402.723,55.262c14.827,2.035,27.989,9.741,37.061,21.7
			C2383.273,1044.775,2387.148,1059.528,2385.113,1074.357z M2406.83,1121.928c-0.549,5.575-5.529,9.662-11.102,9.117l-9.886-0.97
			l2.215-14.055l0.597-6.083l9.06,0.889C2403.287,1111.374,2407.377,1116.354,2406.83,1121.928z"/>
		<path d="M2328.481,1967.233l-2.969-0.712l-1.058,28.662c-0.219,5.902,5.229,11.011,12.401,11.631
			c0.463,0.04,0.923,0.061,1.378,0.061c3.399,0,6.563-1.102,8.833-3.108c1.987-1.757,3.133-4.1,3.225-6.597l0.996-26.982
			l-2.46-0.128C2341.59,1969.686,2334.744,1968.734,2328.481,1967.233z M2345.296,1996.986c-0.053,1.43-0.866,2.438-1.539,3.033
			c-1.532,1.354-3.955,2.026-6.469,1.814c-4.364-0.378-7.953-3.339-7.837-6.466l0.835-22.608c4.992,1.038,10.295,1.757,15.825,2.144
			L2345.296,1996.986z M2402.52,1639.532c-1.404-2.498-3.198-4.714-5.272-6.653c-4.698-4.392-10.831-7.364-17.118-8.975
			c-9.063-2.322-18.552-2.163-27.906-1.989c-7.46,0.138-16.199,0.663-21.788,6.264c-6.24,6.253-6.971,16.99-3.089,24.642
			c1.101,2.17,2.606,4.489,1.966,6.836c-0.6,2.202-2.832,3.45-4.596,4.898c-9.049,7.431-7.15,22.455-14.793,31.325
			c-5.592,6.49-14.783,8.037-23.51,7.995c-1.71-0.008-3.114,1.343-3.135,3.052l-1.138,90.598
			c-0.135,10.72-0.038,22.232,6.111,31.015c6.127,8.752,17.117,12.873,27.742,13.992c4.679,0.493,9.378,0.501,14.084,0.379
			l-2.393,64.82l2.276,0.281c1.619,0.199,3.273,0.3,4.948,0.3c1.267,0,2.544-0.058,3.827-0.172c4.404-0.394,9.042-1.459,13.413-3.08
			l1.567-0.581l2.272-61.556c9.093,0.562,18.228,1.168,26.704-1.886c7.827-2.82,14.479-8.765,18.156-16.228
			c4.282-8.69,4.476-18.753,4.584-28.44c0.485-43.419,0.97-86.838,1.455-130.257
			C2406.988,1657.023,2406.973,1647.455,2402.52,1639.532z M2307.755,1704.075c4.597-2.988,8.35-7.282,10.486-12.336
			c3.019-7.141,3.13-15.7,8.18-21.582c2.76-3.215,6.952-5.597,7.899-9.726c1.041-4.538-2.347-8.768-3.745-13.209
			c-2.652-8.427,2.181-17.394,10.765-19.466c3.438-0.83,7.022-0.749,10.559-0.663c7.294,0.177,14.588,0.354,21.881,0.531
			c2.057,6.566,3.363,13.367,3.884,20.227c0.333,4.383,0.3,8.996-1.727,12.896c-3.729,7.172-12.779,9.653-18.35,15.497
			c-0.635,0.667-1.208,1.404-1.582,2.246c-2.959,6.678,7.041,10.574,6.631,16.868c-0.196,3.011-2.728,5.24-4.505,7.678
			c-2.183,2.996-3.356,6.714-3.286,10.42c0.079,4.187,1.547,8.905-1.023,12.211c-2.766-1.763-6.335-3.592-9.027-0.601
			c-0.816,0.907-1.298,2.071-1.477,3.278c-0.747,5.026-1.08,10.114-0.994,15.194c0.046,2.734-0.471,6.359-3.177,6.756
			c0.392-2.442,0.784-4.884,1.176-7.326c1.093-6.813,2.124-14.182-2.819-19.943c-2.718-3.169-7.363-4.219-10.951-2.084
			c-4.238,2.522-4.731,8.254-5.316,13.126c-0.152,1.264-0.564,2.797-1.932,2.945c-0.807,0.087-1.579-0.38-2.014-1.066
			c-3.253-5.127,0.112-12.636-3.807-17.121c-1.119-1.281-2.678-2.079-4.197-2.846c-4.912-2.482-9.824-4.964-14.736-7.445
			C2299.25,1708.239,2303.813,1706.638,2307.755,1704.075z M2306.14,1835.615c-3.534-1.42-6.775-3.409-9.519-5.952
			c-0.065-0.06-0.128-0.122-0.193-0.182c-5.87-5.535-9.503-13.41-9.396-22.095l0.249-20.142l0.928-74.489
			c1.655,0.694,3.446,1.322,5.298,1.967c2.532,0.882,5.15,1.795,7.804,2.993l0.564,0.252l1.385,0.622
			c0.23,0.104,0.455,0.204,0.674,0.302l-0.319,81.659c-0.367,15.39,2.267,27.092,8.234,36.244c0.111,0.17-0.027,0.388-0.227,0.348
			C2310.548,1836.928,2308.055,1836.384,2306.14,1835.615z M2348.844,1900.923c-3.487,1.16-7.104,1.929-10.554,2.236
			c-1.836,0.163-3.656,0.193-5.438,0.095l2.229-60.404l15.897,0.196L2348.844,1900.923z M2400.158,1808.784
			c-0.201,16.343-13.561,29.499-29.86,29.499c-0.124,0-0.25-0.001-0.374-0.003l-32.843-0.407l-6.816-0.084v0l-7.358-0.091
			c-2.857-0.035-5.496-1.516-7.033-3.924c-5.271-8.256-7.6-18.954-7.261-33.155l0.31-79.335c0.402,0.237,0.71,0.452,0.915,0.65
			c0.365,0.354,0.45,0.749,0.645,3.005c0.056,0.687,0.092,1.465,0.13,2.295c0.24,5.183,0.683,14.779,8.517,14.779
			c0.088,0,0.179-0.002,0.27-0.004c5.924-0.185,6.626-5.776,7.14-9.859c0.32-2.553,0.652-5.192,1.894-6.463
			c0.864-0.888,1.965-1.067,3.267-0.539c2.23,0.903,4.636,3.873,4.649,8.247c0,2.584-0.533,5.563-1.049,8.442
			c-0.968,5.404-1.732,9.673,0.691,12.069c0.658,0.65,1.764,1.334,3.493,1.334c0.439,0,0.919-0.044,1.442-0.145
			c6.464-1.209,6.509-9.301,6.549-16.44c0.021-3.673,0.042-7.471,0.891-9.604c0.095-0.24,0.181-0.418,0.251-0.547
			c0.299,0.148,0.686,0.38,0.974,0.553c1.383,0.828,3.273,1.962,5.51,1.359c1.546-0.419,2.804-1.548,3.845-3.444
			c1.955-3.541,1.535-6.904,1.164-9.871c-0.483-3.869-0.94-7.523,3.276-12.638c7.709-9.32,3.789-14.293-0.749-20.051l-0.699-0.89
			c-1.477-1.887-1.575-2.499-1.549-2.675c0.161-1.071,3.84-3.634,8.098-6.601c1.899-1.323,4.113-2.866,6.663-4.703l0.004-0.002
			c11.643-8.418,7.425-28.084,4.107-41.19c5.884,1.428,11.22,4.618,15.354,9.315c4.991,5.672,7.499,13.111,7.406,20.666
			L2400.158,1808.784z"/>
	</g>
</g>
</svg>
