<?xml version="1.0" encoding="utf-8"?>
<!-- Generator: Adobe Illustrator 27.5.0, SVG Export Plug-In . SVG Version: 6.00 Build 0)  -->
<svg xmlns="http://www.w3.org/2000/svg" xmlns:xlink="http://www.w3.org/1999/xlink" viewBox="0 0 500 500" width="595" height="842" preserveAspectRatio="xMidYMid meet" data-scaled="true">
<g id="BACKGROUND">
	<g id="background">
		<rect style="fill:#FFFFFF;" width="500" height="500"/>
	</g>
</g>
<g id="OBJECTS">
	<g>
		<path style="fill:#1D3557;" d="M170.158,122.945c-0.47-5.783-13.627-8.432-13.14,6.853
			C154.745,133.198,170.617,128.597,170.158,122.945z M165.078,127.129c-3.872,2.187-7.226,2.253-7.654,2.384
			c0.194-1.716-0.207-9.181,6.03-9.892C167.402,119.171,172.179,123.118,165.078,127.129z"/>
		<path style="fill:#1D3557;" d="M165.065,120.517c-4.95-0.781-8.331,4.752-6.078,7.803c1.47,1.991,2.6,0.285,1.834,0.399
			c-0.976,0.146-1.409-2.087-1.27-3.109c0.868-6.4,11.361-3.359,4.909,1.185c-0.85,0.598,0.138,1.903,0.981,1.286
			C169.407,125.178,168.287,121.025,165.065,120.517z"/>
		<path style="fill:#1D3557;" d="M147.911,138.778c-2.779-2.241-6.315-3.998-9.937-2.878c-3.487,1.079-4.366,4.355-5.61,7.381
			c-1.993,4.848-10.37,9.831-5.127,18.98c0.742,1.296,1.185-3.071,6.176-6.616c4.321-3.069,11.064-3.245,13.472-8.137
			c0.91-1.848,0.832-4.152-0.462-5.775c2.974-2.312,1.889-4.649,6.1-6.487C153.469,134.832,150.773,134.069,147.911,138.778z
			 M138.23,144.179c-4.051,1.743-3.751,3.638-3.066,3.309c1.276-0.613,0.958-1.397,4.257-2.7c2.375-0.939,4.272-1.282,6.314-2.581
			c1.714,2.153,0.792,5.112-1.106,6.866c-4.509,4.168-11.934,2.54-17.022,11.973c-3.75-8.118,3.188-12.194,5.272-16.598
			c1.325-2.799,1.814-6.409,5.124-7.591c3.396-1.213,6.816,0.596,9.68,2.294C145.472,142.605,142.051,142.535,138.23,144.179z"/>
		<path style="fill:#1D3557;" d="M132.312,149.975c-1.746,0.273-1.546,3.602-0.988,2.344
			C131.99,150.82,133.195,149.837,132.312,149.975z"/>
		<path style="fill:#1D3557;" d="M140.335,147.061c-0.418,1.202-0.722,2.036-1.36,3.037c-0.172,0.27,0.357,0.702,1.465-2.071
			C140.944,146.768,140.396,146.886,140.335,147.061z"/>
		<path style="fill:#1D3557;" d="M141.721,147.239c-2.547,3.709-0.9,3.717,0.298,0.181
			C142.078,147.245,141.842,147.062,141.721,147.239z"/>
		<path style="fill:#1D3557;" d="M143.009,147.168c-0.239-0.045-0.482,0.679-1.055,1.981
			C141.421,150.361,143.685,147.295,143.009,147.168z"/>
		<path style="fill:#1D3557;" d="M144.537,147.243c-1.594,1.806-1.114,2.238-0.857,1.868
			C145.236,146.873,144.644,147.122,144.537,147.243z"/>
		<path style="fill:#1D3557;" d="M141.532,139.842c-1.32,2.434-0.548,3.088,0.159,0.588
			C141.932,139.576,141.586,139.742,141.532,139.842z"/>
		<path style="fill:#1D3557;" d="M142.938,139.772c-0.36-0.356-0.524,0.768-0.721,1.522c-0.052,0.202,0.295,0.303,0.359,0.097
			C143.023,139.963,143.08,139.912,142.938,139.772z"/>
		<path style="fill:#1D3557;" d="M144.081,139.332c-1.248,1.748,0.005,2.25,0.311,0.138
			C144.416,139.303,144.187,139.184,144.081,139.332z"/>
		<path style="fill:#1D3557;" d="M145.951,139.064c-0.701-0.51-0.631,2.141-0.136,1.168c0.048-0.094-0.015-0.216-0.027-0.38
			C145.766,139.308,146.202,139.247,145.951,139.064z"/>
		<path style="fill:#1D3557;" d="M272.422,231.248c-88.825-13.504-3.817-44.879-70.443-112.714
			c-12.407-12.632-23.104-21.221-40.642-17.458c-16.574,3.557-27.967,19.763-26.274,35.369c0.782,7.218-2.894-25.894,24.56-33.534
			c17.381-4.837,28.294,3.363,40.923,16.099c42.736,43.101,24.057,74.539,27.075,91.411c2.294,12.821,25.6,19.704,38.313,21.441
			C275.295,233.142,272.734,231.295,272.422,231.248z"/>
		<path style="fill:#1D3557;" d="M254.121,351.369c-11.509,8.199-30.734-0.023-39.132,12.43c-1.792,2.658-2.591,6.048-4.885,8.359
			c-1.949,1.965-5.544,3.28-7.577,0.692c-3.667-4.667,3.684-8.992-10.765-22.076c-13.229-11.979-30.861-18.829-46.267-28.176
			c-76.88-46.643-89.757-128.89-0.846-162.288c2.063-0.775,5.087-1.41,6.055-3.678c1.563-3.661-3.27-5.707-7.763-5.339
			c-0.544,0.044-0.458,0.872,0.083,0.84c2.056-0.124,5.632,0.177,6.714,2.297c1.58,3.097-4.244,4.39-6.089,5.071
			C97.4,176.58,68.425,215.431,87.174,260.759c26.032,62.935,101.667,76.082,112.227,100.854c1.961,4.6-0.606,12.001,4.87,13.47
			c6.365,1.708,9.49-7.286,10.877-9.703c7.899-13.765,27.482-4.573,39.547-13.127C255.249,351.862,254.675,350.975,254.121,351.369z
			"/>
		<path style="fill:#1D3557;" d="M223.1,397.983c-3.192-4.65-11.172-5.584-16.788-5.69c-4.07-0.077-4.325-1.837,4.205-19.065
			c0.294-0.594-0.613-1.082-0.91-0.486c-12.563,25.205-6.039,19.444,2.678,20.953c11.534,1.997,12.277,8.034,9.633,10.373
			c-0.179-8.073-11.305-8.724-19.378-8.564c-10.157,0.202-12.919,5.191-18.324,7.753c-3.466,1.643-11.639,3.696-12.835,9.935
			c-2.589-9.14,6.663-14.413,15.434-17.961c2.624-1.062-4.808-1.817-8.84-2.468c-5.184-0.837-13.194-2.941-15.92,1.659
			c-1.761-2.191-0.396-6.326,4.536-6.651c4.764-0.314,19.761,9.036,30.535-4.915c5.102-6.606,3.939-13.01,3.628-10.701
			c-1.472,10.875-11.778,21.01-27.6,15.737c-13.095-4.364-14.864,5.151-11.291,7.911c1.579,1.22-0.252-4.389,9.846-2.921
			c23.916,3.478,8.433-0.212,0.911,10.073c-6.319,8.642,0.593,16.259-0.13,12.739c-1.63-7.945,10.417-9.756,16.097-13.792
			c3.54-2.515,5.525-4.344,10.633-5.048c8.116-1.118,22.785-0.142,21.63,8.094C220.538,407.193,226.591,403.068,223.1,397.983z"/>
		<path style="fill:#1D3557;" d="M293.862,322.689c1.218-34.652-61.842-74.76-112.114-74.777c-0.486,0-0.48,0.726,0,0.75
			c60.357,2.978,106.479,42.58,110.866,67.081c0.939,5.247,1.076,14.181-4.048,14.899c-1.803,0.253,4.118,3.538,1.916,8.65
			c-2.364,5.49-8.628,1.182-6.996,3.368c2.734,3.661-0.264,10.287-6.853,11.181c-5.221,0.708-3.78,0.64-83.175-25.902
			c-16.879-5.643-32.578-10.997-46.278-28.439c-13.525-17.218-15.939-38.231-15.628-35.395c2.57,23.572,17.821,45.002,38.813,55.821
			c6.33,3.263,13.051,5.687,19.786,7.961c83.752,28.279,83.552,28.462,89.308,26.246c4.123-1.588,7.38-6.786,5.41-10.966
			c5.436,1.057,9.872-5.813,4.554-11.856C292.843,330.262,293.75,325.887,293.862,322.689z"/>
		<path style="fill:#1D3557;" d="M382.459,401.644c-12.061-14.199-11.579-9.449-5.888-10.732c0.994-0.224-1.415-8.11-7.874-12.395
			c3.209-0.513,6.358,2.472,9.615,0.91c12.646-6.067-61.29-58.782-85.225-68.429c-0.521-0.21-0.855,0.623-0.385,0.896
			c6.365,3.697,44.36,20.573,83.232,59.86c6.084,6.148,2.504,8.429-2.597,6.781c-5.273-1.703-6.618-0.337-5.772,0.163
			c4.317,2.547,7.406,6.762,8.549,11.636c-1.384,0.282-2.786,0.32-4.151,0.104c-49.476-48.959-93.127-63.976-83.042-58.872
			c33.478,16.946,64.416,40.068,90.624,68.594c18.397,20.024-60.879-10.305-84.174-21.938
			c-33.861-16.909-45.483-33.392-45.092-30.638c0.361,2.546,16.579,14.725,18.158,15.878
			C303.197,388.842,399.417,421.609,382.459,401.644z"/>
		<path style="fill:#1D3557;" d="M271.339,353.894c-3.004-3.154-5.086,8.493,94.143,48.235c4.316,1.729,8.711,3.761,13.231,4.875
			C388.698,409.464,289.423,372.875,271.339,353.894z"/>
		<path style="fill:#1D3557;" d="M382.807,405.171c-12.539-8.444-26.705-14.235-40.291-20.737
			c-13.569-6.494-26.486-14.223-39.984-20.851c-13.834-6.793-17.578-6.88-22.448-10.48c-0.437-0.323-4.469,0.555,8.63,5.713
			C299.696,363.141,385.847,407.219,382.807,405.171z"/>
		<path style="fill:#1D3557;" d="M223.867,250.845c-5.59,1.403-10.138-2.216-10.206-7.315c-0.019-1.456-3.898,3.125-8.117-1.441
			c-1.953-2.114-2.566-5.037-2.581-7.833c-0.001-0.229-0.343-0.186-0.35,0.035c-0.268,8.885,6.051,12.225,10.417,9.766
			c0.415,5.295,5.77,9.31,10.964,7.187C224.211,251.154,224.099,250.786,223.867,250.845z"/>
		<path style="fill:#1D3557;" d="M316.949,272.306c10.862-1.081,21.249-25.618-31.507-21.846c-0.449,0.032-0.521,0.774-0.044,0.813
			c8.465,0.682,19.476-0.248,25.871,0.602c18.488,2.458,15.008,21.081,3.54,19.279c-0.643-0.101-0.832,0.766-0.302,1.052
			c21.857,11.77,6.921,24.527-8.996,21.798c-3.977-0.682,8.106,3.782,4.488,12.969c-3.223,8.184-13.563,5.135-11.024,5.876
			c9.908,2.891,17.25-10.268,8.239-17.727C323.889,296.8,335.73,282.994,316.949,272.306z"/>
		<path style="fill:#1D3557;" d="M220.677,354.721c-2.004-0.256-8.007-0.061-15.38-4.018c-2.331-1.252,6.691,5.549,15.4,4.669
			C221.078,355.333,221.037,354.767,220.677,354.721z"/>
		<g>
			<path style="fill:#1D3557;" d="M292.235,311.119c0,0.002,0.001,0.004,0.001,0.006c-0.001-0.004-0.005-0.021-0.003-0.012
				C292.234,311.115,292.235,311.117,292.235,311.119z"/>
			<path style="fill:#1D3557;" d="M292.24,311.139L292.24,311.139c-0.001-0.005-0.002-0.009-0.003-0.014
				C292.238,311.13,292.236,311.121,292.24,311.139z"/>
			<path style="fill:#1D3557;" d="M387.038,341.565c-13.665-15.943-33.774-12.272-9.585-14.04c5.427-0.397,8.24-0.249,9.911-2.217
				c2.992-3.526-30.887-20.131-76.834-31.2c-0.645-0.155-0.871,0.844-0.227,1.006c19.114,4.83,61.498,16.573,75.939,29.855
				c-1.306,1.129-2.681,1.098-10.277,1.648c-14.103,1.021,1.021,3.421-83.815-16.818c-0.622-0.148-0.894,0.957-0.264,1.107
				c0.673,0.161,0.128-0.021,0.458,0.498c0.352,0.506,0.963,0.348,1.057-0.138c51.875,12.409,76.176,15.241,90.395,28.314
				c12.543,11.531,2.769,13.504-2.156,11.153c-1.783-0.854-4.335-1.13-6.211-1.562c-24.407-5.614-24.272-6.81-47.1-23.605
				c-2.35-1.728,6.801,6.969,17.997,13.965c10.462,6.538,19.5,8.337,28.316,10.395c5.828,1.361,6.466,0.143,14.502,10.12
				c-4.211,2.639-7.942-0.462-36.958-10.168c-0.242-0.081-0.385,0.281-0.144,0.372c24.521,9.259,49.972,19.822,30.948,1.928
				C386.787,353.135,396.241,352.304,387.038,341.565z"/>
		</g>
		<path style="fill:#1D3557;" d="M367.294,319.886c-32.53-20.327-63.738-17.215-56.28-16.768
			c19.897,1.192,38.713,7.033,56.035,17.168C367.309,320.437,367.551,320.046,367.294,319.886z"/>
		<path style="fill:#1D3557;" d="M373.097,341.876c-12.674-11.907-47.225-20.338-59.378-23.918
			c-13.034-3.839-14.01-4.906-18.716-6.305c-0.106-0.031-3.247-0.079,7.674,3.688c20.997,7.243,43.48,10.736,62.587,21.818
			C367.18,338.27,374.491,343.186,373.097,341.876z"/>
		<path style="fill:#1D3557;" d="M304.743,236.91c-2.002-2.413-5.303-2.193-8.073-1.499c3.362-14.199-14.558-10.818-15.629-1.736
			c-0.344,2.929,0.928-7.001,9.68-7.055c3.994-0.025,6.665,2.319,4.888,9.279c-0.502,1.963,13.251-4.696,7.763,9.161
			C302.309,247.743,308.151,241.02,304.743,236.91z"/>
		<path style="fill:#1D3557;" d="M305.534,275.81c-0.699-8.55-10.095-11.604-7.594-9.737c4.734,3.537,9.611,11.112,4.801,13.903
			c-2.393,1.388-6.697,0.778-5.066,1.706c6.235,3.548-7.391,12.47-13.207,8.318c-0.183-0.131-0.402,0.138-0.219,0.275
			c5.651,4.244,19.611-3.139,14.564-8.588C302.302,281.427,305.877,280.004,305.534,275.81z"/>
		<path style="fill:#1D3557;" d="M304.926,349.651c-0.202,0.064-0.091,0.37,0.11,0.309c3.815-1.16,5.836-1.097,7.904-1.323
			C314.005,348.522,311.771,347.481,304.926,349.651z"/>
		<path style="fill:#1D3557;" d="M318.04,350.627c-7.296-0.321-11.435,2.325-9.68,1.805
			C312.603,351.175,319.813,350.706,318.04,350.627z"/>
		<path style="fill:#1D3557;" d="M311.46,354.69c-0.3,0.045-0.193,0.499,0.103,0.457c3.679-0.517,3.42-0.481,4.941-0.694
			C318.247,354.21,321.093,353.23,311.46,354.69z"/>
		<path style="fill:#1D3557;" d="M351.174,375.764c-6.305-1.242-9.772-0.023-8.426-0.118
			C346.115,375.409,352.739,376.072,351.174,375.764z"/>
		<path style="fill:#1D3557;" d="M353.996,378.127c-0.78-0.238-3.453-0.167-4.188-0.133c-5.426,0.252-4.526,0.918-4.252,0.873
			C350,378.142,355.899,378.708,353.996,378.127z"/>
		<path style="fill:#1D3557;" d="M353.957,381.844c-6.412-0.463-5.317,0.695-0.018,0.325
			C354.119,382.156,354.147,381.857,353.957,381.844z"/>
		<path style="fill:#1D3557;" d="M310.575,324.521c-5.551-0.149-4.832,0.289-4.648,0.293
			C312.102,324.94,310.677,324.523,310.575,324.521z"/>
		<path style="fill:#1D3557;" d="M315.68,326.25c-8.299,0.714-7.246,1.277-6.96,1.244
			C317.596,326.478,315.784,326.241,315.68,326.25z"/>
		<path style="fill:#1D3557;" d="M317.983,327.599c-7.377,1.414-6.237,1.818-6.012,1.77
			C319.443,327.777,318.201,327.557,317.983,327.599z"/>
		<path style="fill:#1D3557;" d="M333.548,317.598c-0.747-1.018-0.745-0.934-5.539-6.569c-0.156-0.183-0.452,0.044-0.296,0.23
			c4.771,5.709,4.66,5.665,5.539,6.569C333.417,317.998,333.694,317.797,333.548,317.598z"/>
		<path style="fill:#1D3557;" d="M337.203,318.6c-4.844-8.356-6.849-8.144-0.201,0.159
			C337.095,318.875,337.274,318.723,337.203,318.6z"/>
		<path style="fill:#1D3557;" d="M340.503,319.037c-4.173-6.443-4.062-5.159-3.938-4.983
			C340.931,320.244,340.6,319.187,340.503,319.037z"/>
		<path style="fill:#1D3557;" d="M430.443,306.854c-7.338-27.991-27.299-30.789-48.759-33.87
			c-66.636-9.568-57.243-6.253-57.143-6.242c78.71,8.734,94.897,9.227,104.314,37.637c1.307,3.945,4.714,8.061-14.73,15.09
			c-1.513,0.547-6.221,2.657-6.906,0.031c-0.049-0.19-0.378-0.113-0.339,0.081c1.39,6.813,1.788-14.286-80.297-33.154
			c-0.718-0.165-0.825,0.978-0.114,1.143c17.454,4.051,35.079,8.044,51.537,15.309c20.004,8.831,38.455,24.442,35.54,27.605
			c-1.228,1.333-9.907,2.067-17.443-2.367c-12.809-7.536-11.113-4.98-10.938-4.943c7.78,1.63,11.529,9.451,23.875,9.007
			c9.597-0.346,5.93-4.689-1.018-11.139c2.841,1.267,12.624-3.492,15.2-4.908C429.133,312.883,431.644,311.436,430.443,306.854z"/>
		<path style="fill:#1D3557;" d="M425.865,256.603c1.671,0.71,14.204-7.399,12.835-21.921
			c-2.038-21.611-30.096-23.297-52.845-19.114c-27.631,5.081-53.374,19.057-77.883,32.56c-0.659,0.363-0.16,1.425,0.501,1.059
			c110.898-61.358,136.995-26.289,127.673-3.85c-3.726,8.971-10.749,10.567-10.348,11.2c-17.361-16.988-80.52-5.329-101.797,0.152
			c-0.759,0.195-0.479,1.382,0.283,1.186c23.63-6.087,47.807-9.018,72.045-8.733c9.627,0.113,26.45-0.28,33.906,15.479
			c5.929,12.532-1.942,22.088-10.478,21.002c-2.038-0.259,3.479,2.672,9.107-2.345C436.371,276.586,433.626,264.249,425.865,256.603
			z"/>
		<path style="fill:#1D3557;" d="M428.564,191.542c-4.127-9.672-18.232-15.899-28.312-14.512
			c-8.44,1.162-24.047,10.717-33.421,16.586c-45.654,28.585-68.797,57.295-61.919,50.797c38.01-35.893,80.884-64.486,95.944-66.317
			c7.63-0.928,18.049,2.9,23.56,8.983c7.973,8.801,4.492,22.323-4.745,27.251c-0.385,0.205-0.102,0.811,0.291,0.614
			C428.165,210.849,432.174,200.003,428.564,191.542z"/>
		<path style="fill:#1D3557;" d="M366.576,147.598c10.176-31.232-2.761-33.775-27.237-30.383
			c-57.151,7.92-72.955,56.02-68.367,113.775c0.051,0.643,1.059,0.635,1.008-0.014c-5.165-65.143,15.205-110.969,79.972-114.124
			c28.486-1.387,12.846,29.014,14.041,30.948c-19.891,6.934-22.932,11.378-34.422,27.595c3.498-8.311,1.538-18.51-3.111-26.112
			c0.691-0.228,2.466-6.645,11.039-13.806c0.135-0.113,16.21-12.344,13.605-10.742c-9.74,5.995-19.872,13.822-24.986,24.001
			c-10.32-16.114-28.216-16.087-36.85,11.256c-18.414,58.311-12.777,78.326-12.688,72.489c0.451-30.42,12.027-68.495,16.036-78.515
			c14.349-35.858,48.076,0.938,35.324,23.732c-1.118,1.965-17.24,23.408-33.332,57.541c-0.316,0.669,0.755,1.077,1.071,0.413
			c16.534-34.71,38.523-66.152,45.902-74.004c6.969-7.415,21.489-12.798,31.329-15.242c24.995-6.21,30.976,5.18,27.389,30.073
			C401.291,183.479,420.041,129.273,366.576,147.598z"/>
		<path style="fill:#1D3557;" d="M308.647,169.102c-16.054,46.76-16.904,61.32-15.867,57.344c2.125-8.144,1.772-9.948,7.279-28.849
			C301.206,193.659,309.989,165.194,308.647,169.102z"/>
		<path style="fill:#1D3557;" d="M389.419,157.285c-59.104,38.508-89.972,86.516-84.395,79.303
			C344.278,185.78,393.925,154.349,389.419,157.285z"/>
		<path style="fill:#1D3557;" d="M420.025,197.574c-40.835,9.503-67.052,30.387-60.383,26.242
			C390.659,204.537,424.613,196.507,420.025,197.574z"/>
		<path style="fill:#1D3557;" d="M320.008,253.65c-0.532,0.253-0.152,1.084,0.38,0.832c34.885-16.565,73.712-14.741,107.283-14.996
			C432.861,239.446,364.353,232.576,320.008,253.65z"/>
		<path style="fill:#1D3557;" d="M424.948,274.778c-6.859-2.503-8.45-2.223-73.753-5.956c-13.449-0.769-8.949,0.71-5.012,0.933
			C433.287,274.7,425.048,274.815,424.948,274.778z"/>
		<path style="fill:#1D3557;" d="M325.459,280.768c-0.741-0.13-0.826,1.039-0.087,1.169c36.671,6.439,62.374,11.354,92.326,26.724
			C419.947,309.815,406.149,294.902,325.459,280.768z"/>
		<path style="fill:#1D3557;" d="M399.008,322.37c-41.866-31.579-86.956-29.517-78.722-28.82
			C370.501,297.805,405.218,327.056,399.008,322.37z"/>
		<path style="fill:#1D3557;" d="M287.125,195.477c-0.162-0.492-1.207-1.072,2.389,8.547
			C289.551,204.124,290.637,206.149,287.125,195.477z"/>
		<path style="fill:#1D3557;" d="M288.024,190.85c-0.058-0.153-0.301-0.091-0.249,0.069
			C291.084,200.936,292.019,201.434,288.024,190.85z"/>
		<path style="fill:#1D3557;" d="M290.694,187.788c-2.172-5.773-2.322-4.38-2.24-4.198c1.923,4.291,2.33,6.383,3.211,8.868
			C291.723,192.621,292.917,193.699,290.694,187.788z"/>
		<path style="fill:#1D3557;" d="M334.549,121.011c-1.546,8.395-1.63,8.292-1.77,9.797c-0.022,0.232,0.344,0.325,0.409,0.089
			c0.201-0.725,1.672-9.116,1.806-9.858C335.044,120.756,334.6,120.733,334.549,121.011z"/>
		<path style="fill:#1D3557;" d="M331.679,121.393c-2.201,7.744-2.142,7.433-2.219,8.004c-0.034,0.248,0.318,0.3,0.409,0.089
			c0.222-0.513,0.066-0.054,2.233-7.954C332.177,121.257,331.758,121.116,331.679,121.393z"/>
		<path style="fill:#1D3557;" d="M325.357,131.239c-0.025,0.102,0.26,1.971,1.759-4.492
			C328.177,122.169,328.913,116.729,325.357,131.239z"/>
		<path style="fill:#1D3557;" d="M364.965,139.335c-2.649,0.701-3.446,2.72-21.327,7.091c-1.235,0.302,1.343,1.044,11.247-2.369
			C363.197,141.191,365.864,139.097,364.965,139.335z"/>
		<path style="fill:#1D3557;" d="M361.412,143.919c-7.778,3.38-13.015,4.027-15.049,4.616c-2.093,0.606,3.417,1.143,15.193-4.27
			C361.774,144.165,361.634,143.822,361.412,143.919z"/>
		<path style="fill:#1D3557;" d="M359.448,147.918c-6.02,2.339-8.803,2.645-12.13,3.583c-0.137,0.039-1.722,1.478,6.212-0.989
			C361.571,148.012,359.549,147.878,359.448,147.918z"/>
		<path style="fill:#1D3557;" d="M330.386,183.039c0.077-1.106-1.163,0.487-0.253,7.462c0.859,6.58,2.226,7.435,2.076,6.463
			C331.973,195.439,329.85,190.745,330.386,183.039z"/>
		<path style="fill:#1D3557;" d="M334.145,177.906c-0.018-0.859-1.4-0.448,0.567,11.724c0.195,1.205,0.297,2.569,0.74,3.71
			c0.091,0.236,0.503,0.248,0.485-0.057C335.82,191.298,334.34,187.446,334.145,177.906z"/>
		<path style="fill:#1D3557;" d="M337.914,173.219c0.007-1.249-1.288,5.175,0.562,13.083c0.073,0.312,0.533,0.189,0.478-0.12
			C338.188,181.885,337.883,177.581,337.914,173.219z"/>
		<path style="fill:#1D3557;" d="M399.094,169.87c-11.508,1.81-17.317,0.968-19.997,1.222c-0.529,0.05-1.976,1.201,9.886,0.442
			C401.167,170.754,399.514,169.804,399.094,169.87z"/>
		<path style="fill:#1D3557;" d="M396.26,172.871c-8.803,1.912-12.638,1.656-14.427,2.052c-0.26,0.058-1.637,1.142,7.324-0.226
			C398.578,173.259,396.365,172.848,396.26,172.871z"/>
		<path style="fill:#1D3557;" d="M377.664,178.864c-1.591,0.261,0.709,1.72,12.7-1.042
			C393.952,176.995,377.764,178.847,377.664,178.864z"/>
		<path style="fill:#1D3557;" d="M351.252,208.04c-4.311,9.762-2.215,16.603-2.188,14.128c0.054-4.804,0.739-9.514,2.56-13.985
			C351.721,207.944,351.355,207.806,351.252,208.04z"/>
		<path style="fill:#1D3557;" d="M357.412,202.921c-4.618,8.211-3.05,15.823-2.764,13.178c0.186-1.714-0.058-3.275,0.784-6.807
			C356.117,206.41,358.073,201.745,357.412,202.921z"/>
		<path style="fill:#1D3557;" d="M363.555,200.619c-5.045,8.183-4.876,14.391-4.372,12.235c0.985-4.204,2.521-8.285,4.746-11.992
			C364.076,200.617,363.706,200.374,363.555,200.619z"/>
		<path style="fill:#1D3557;" d="M420.201,211.655c-13.565-5.393-14.787-2.805-0.1,0.334
			C420.296,212.031,420.386,211.729,420.201,211.655z"/>
		<path style="fill:#1D3557;" d="M422.057,206.987c-3.841-1.569-6.051,0.191-4.743,0.086c1.678-0.135,2.61-0.155,4.601,0.311
			C422.175,207.445,422.315,207.092,422.057,206.987z"/>
		<path style="fill:#1D3557;" d="M381.533,220.319c-8.503,6.627-8.773,16.026-7.751,13.102c0.957-2.738,2.063-7.658,7.981-12.806
			C381.944,220.458,381.725,220.17,381.533,220.319z"/>
		<path style="fill:#1D3557;" d="M386.896,219.213c-9.623,9.085-10.732,13.247-9.614,11.896c2.699-3.26,4.308-6.131,9.845-11.6
			C387.295,219.343,387.074,219.046,386.896,219.213z"/>
		<path style="fill:#1D3557;" d="M392.024,219.193c-6.62,3.942-9.195,10.093-7.58,8.36c0.955-1.024,1.248-1.761,3.701-4.353
			C389.378,221.897,393.564,218.274,392.024,219.193z"/>
		<path style="fill:#1D3557;" d="M428.962,250.025c-2.736-0.487-5.292-1.443-7.857-2.483c-0.26-0.106-0.432,0.318-0.189,0.45
			C426.199,250.859,430.578,250.312,428.962,250.025z"/>
		<path style="fill:#1D3557;" d="M430.854,247.225c-4.541-0.712-8.255-2.014-7.089-1.235
			C427.334,248.373,432.147,247.428,430.854,247.225z"/>
		<path style="fill:#1D3557;" d="M434.674,245.184c-7.886-2.993-8.324-1.809-0.172,0.555
			C434.82,245.831,434.984,245.301,434.674,245.184z"/>
		<path style="fill:#1D3557;" d="M372.466,251.401c-9.363,9.366-10.96,14.148-9.973,12.837c2.753-3.656,5.2-7.328,10.272-12.507
			C372.964,251.528,372.67,251.197,372.466,251.401z"/>
		<path style="fill:#1D3557;" d="M378.362,250.614c-8.158,5.275-10.059,12.192-8.809,10.373c0.867-1.263,3.41-6.094,9.03-9.96
			C378.826,250.86,378.618,250.448,378.362,250.614z"/>
		<path style="fill:#1D3557;" d="M384.073,249.878c-8.496,4.832-10.379,9.792-9.044,8.297c2.723-3.051,5.78-5.77,9.31-7.855
			C384.624,250.151,384.362,249.714,384.073,249.878z"/>
		<path style="fill:#1D3557;" d="M390.686,292.452c-2.131,1.878,6.69-4.9,14.982-8.658
			C413.343,280.315,399.854,284.38,390.686,292.452z"/>
		<path style="fill:#1D3557;" d="M411.136,284.799c-9.237,2.858-12.731,7.122-10.948,6.085c1.515-0.881,4.476-3.314,11.11-5.721
			C411.542,285.075,411.376,284.725,411.136,284.799z"/>
		<path style="fill:#1D3557;" d="M414.872,287.821c-9.395,1.897-14.321,7.392-12.195,6.011
			C408.615,289.976,417.019,287.387,414.872,287.821z"/>
		<path style="fill:#1D3557;" d="M338.009,269.126c-8.282,5.298-9.919,8.475-8.846,7.526
			C332.551,273.653,339.879,267.931,338.009,269.126z"/>
		<path style="fill:#1D3557;" d="M340.629,271.118c-7.999,4.498-7.048,5.256-6.565,4.926c1.846-1.26,3.381-2.527,6.807-4.498
			C341.146,271.389,340.906,270.963,340.629,271.118z"/>
		<path style="fill:#1D3557;" d="M337.918,276.391c-0.101,0.065-1.206,1.667,4.644-2.097
			C348.119,270.719,349.704,268.724,337.918,276.391z"/>
		<path style="fill:#1D3557;" d="M288.243,239.17c-1.628-2.673-4.056,0.034-5.716,0.119c1.404-4.159-4.509-6.037-5.919-2.221
			c-0.535,1.443,1.293-2.734,4.047-1.422c2.772,1.32,0.517,4.092,1.392,4.233c2.098,0.336,3.959-2.392,5.457-0.659
			c1.977,2.288-1.42,4.812-2.096,5.678C284.075,246.607,290.529,242.923,288.243,239.17z"/>
		<path style="fill:#1D3557;" d="M232.051,380.996c4.684-13.834,7.657-5.309,15.488-25.917c0.225-0.591-0.725-0.853-0.949-0.263
			c-6.988,18.389-16.224,20.562-19.06,18.005c-2.611-2.354-0.608-8.396-5.227-13.841c-0.145-0.171-0.42,0.026-0.283,0.209
			c4.46,5.922,2.03,10.829,4.727,13.961c-0.641,1.539-0.925,3.734-3.209,7.644c-6.31,10.803-12.946,4.379-20.442,7.977
			c-0.651,0.313-0.224,1.353,0.43,1.039c7.682-3.688,16.723,3.759,22.658-12.901c1.47-4.126,0.485-3.492,1.658-2.87
			c2.05,1.086,4.858,0.164,6.934-0.848c-0.885,1.399-2.333,4.107-3.288,6.676c-4.65,12.506,0.787,6.591,5.501,11.766
			c1.822,2.001,2.768,4.713,2.405,7.386c-4.824-7.213-14.518-9.517-22.018-4.869c-3.544,2.197,13.498-8.471,21.899,5.968
			c1.199,2.061,2.634-8.452-5.344-11.549C231.002,387.433,229.31,389.093,232.051,380.996z"/>
		<path style="fill:#1D3557;" d="M334.667,356.638c-0.465-0.222-0.851,0.53-0.418,0.804
			C404.232,401.663,346.227,362.156,334.667,356.638z"/>
		<path style="fill:#1D3557;" d="M352.962,354.759c-2.491,0.579-4.265,0.852-6.94,0.116c-1.527-0.42,2.621,1.963,7.035,0.243
			C353.249,355.044,353.172,354.71,352.962,354.759z"/>
		<path style="fill:#1D3557;" d="M349.22,357.594c-0.262,0.024-0.222,0.484,0.043,0.463
			C356.247,357.491,360.177,356.574,349.22,357.594z"/>
		<path style="fill:#1D3557;" d="M357.179,359.036c-5.737,0.431-9.124,1.945-2.944,0.929
			C358.319,359.294,357.301,359.027,357.179,359.036z"/>
		<path style="fill:#1D3557;" d="M256.137,337.556c-1.675-0.851-3.575-1.394-6.439-3.778c-2.83-2.357-5.873-7.057-5.218-5.867
			C249.439,336.913,258.139,338.573,256.137,337.556z"/>
		<path style="fill:#1D3557;" d="M260.34,338.565c-3.281-2.234-5.728-3.807-9.275-7.49c-0.36-0.374-0.816,0.194,4.176,4.319
			C260.677,339.885,260.62,338.756,260.34,338.565z"/>
		<path style="fill:#1D3557;" d="M266.883,340.722c-1.551-0.771-3.03-1.077-5.599-3.31c-2.57-2.234-4.813-6.342-4.318-5.243
			C260.717,340.477,269.009,341.779,266.883,340.722z"/>
		<path style="fill:#1D3557;" d="M269.735,300.254c-6.579-5.393-15.717-2.905-12.746-3.148
			C264.666,296.475,271.637,301.812,269.735,300.254z"/>
		<path style="fill:#1D3557;" d="M254.617,294.293c-0.502,0.256,3.485-1.285,8.251,1.346
			C264.782,296.696,259.675,291.72,254.617,294.293z"/>
		<path style="fill:#1D3557;" d="M251.761,291.913c-1.113,0.757,2.86-1.88,7.439,0.342
			C261.125,293.189,256.603,288.625,251.761,291.913z"/>
		<path style="fill:#1D3557;" d="M169.932,314.383c-3.734-4.432-5.487-9.53-4.443-15.277c0.473-2.591-3.554,7.883,4.192,15.519
			C169.822,314.764,170.06,314.535,169.932,314.383z"/>
		<path style="fill:#1D3557;" d="M173.283,314.278c-2.394-3.335-4.159-6.937-4.817-11.021c-0.033-0.206-0.356-0.186-0.327,0.025
			C169.38,312.38,174.617,316.135,173.283,314.278z"/>
		<path style="fill:#1D3557;" d="M177.555,315.228c-2.156-3.373-3.652-5.703-4.987-10.1c-0.659-2.172,0.145,4.721,4.622,10.35
			C177.344,315.671,177.691,315.441,177.555,315.228z"/>
		<path style="fill:#1D3557;" d="M94.746,250.087c-4.699,7.375,0.476,14.046-0.255,12.532
			C91.204,255.807,95.281,249.247,94.746,250.087z"/>
		<path style="fill:#1D3557;" d="M96.928,252.526c0.554-1.692-2.371,3.069,0.09,7.935c0.078,0.154,0.331,0.027,0.271-0.132
			C96.339,257.792,96.074,255.13,96.928,252.526z"/>
		<path style="fill:#1D3557;" d="M101.005,258.469c-1.382-2.967-0.953-6.396-1.115-5.555
			C99.048,257.293,101.503,259.537,101.005,258.469z"/>
		<path style="fill:#1D3557;" d="M130.129,183.344c-6.863,6.873-5.776,14.634-5.503,12.738c0.713-4.941,2.17-8.812,5.755-12.43
			C130.56,183.472,130.311,183.162,130.129,183.344z"/>
		<path style="fill:#1D3557;" d="M130.125,188.543c-3.058,4.385-2.217,7.307-2.03,6.152
			C128.618,191.473,130.794,187.583,130.125,188.543z"/>
		<path style="fill:#1D3557;" d="M133.191,189.12c0.108-0.266-0.314-0.403-0.423-0.14c-1.208,2.916,0.01,4.855,0.02,3.839
			C132.793,192.222,132.452,190.937,133.191,189.12z"/>
		<path style="fill:#1D3557;" d="M156.778,151.624c-1.209-2.464-3.255-1.79-2.331-1.566c1.645,0.398,2.86,2.381,2.097,4.401
			C156.208,155.353,157.935,153.98,156.778,151.624z"/>
		<path style="fill:#1D3557;" d="M156.885,149.233c-0.243-0.073-0.389,0.293-0.143,0.372c2.678,0.861,1.14,3.528,2.046,2.806
			C159.209,152.075,158.732,149.786,156.885,149.233z"/>
		<path style="fill:#1D3557;" d="M161,148.959c-1.216-1.244-2.612-0.294-1.869-0.315c1.011-0.03,2.191,0.998,2.084,2.192
			C161.141,151.656,162.458,150.45,161,148.959z"/>
		<path style="fill:#1D3557;" d="M166.984,213.285c0.354-0.813-1.22,0.454-1.215,4.373c0.005,4.142,1.759,5.45,1.386,4.47
			C166.158,219.502,165.441,216.827,166.984,213.285z"/>
		<path style="fill:#1D3557;" d="M170.87,221.678c-0.795-1.611-1.261-2.767-1.273-4.651c-0.007-1.139-1.012,1.904,0.984,4.801
			C170.683,221.975,170.954,221.848,170.87,221.678z"/>
		<path style="fill:#1D3557;" d="M176.164,220.532c-0.516-0.661-1.966-1.77-2.882-4.507c-0.276-0.824-0.89,0.758,1.651,3.78
			C176.201,221.312,176.275,220.674,176.164,220.532z"/>
		<path style="fill:#1D3557;" d="M276.29,249.33c-1.519-0.818,4.565,2.69,4.522,7.115c-0.027,2.701-2.721,5.232-5.412,3.814
			c-0.276-0.146-0.474,0.194-0.302,0.41c2.783,3.503-0.346,10.459-8.856,8.841c-1.856-0.353,4.908,2.48,8.727-1.863
			c1.577-1.793,2.091-4.528,0.94-6.633C280.954,262.52,284.961,254.004,276.29,249.33z"/>
		<path style="fill:#1D3557;" d="M214.181,264.813c-8.226-2.583-16.296,0.292-13.575-0.172
			C207.92,263.396,216.089,265.412,214.181,264.813z"/>
		<path style="fill:#1D3557;" d="M201.971,261.595c-0.27,0.022-0.196,0.439,0.073,0.416c3.646-0.32,5.81,0.004,8.331,0.322
			C211.525,262.478,209.186,261.004,201.971,261.595z"/>
		<path style="fill:#1D3557;" d="M206.648,258.271c-1.173,0.008-0.998,0.043-7.915,0.518c-0.196,0.013-0.181,0.316,0.015,0.304
			c6.978-0.413,6.762-0.35,7.924-0.495C206.883,258.572,206.859,258.27,206.648,258.271z"/>
		<path style="fill:#1D3557;" d="M230.985,366.112c-4.126-6.052-5.333-5.512-0.201,0.159
			C230.882,366.378,231.068,366.233,230.985,366.112z"/>
		<path style="fill:#1D3557;" d="M233.317,364.242c-4.358-5.304-6.213-6.028-0.24,0.22
			C233.205,364.595,233.435,364.385,233.317,364.242z"/>
		<path style="fill:#1D3557;" d="M235.623,361.429c-2.66-2.628-4.4-3.285-1.609-0.915
			C235.939,362.149,235.737,361.542,235.623,361.429z"/>
		<path style="fill:#1D3557;" d="M209.032,368.938c-1.882-1.763-2.445-0.88-0.162,0.227
			C209.012,369.234,209.152,369.05,209.032,368.938z"/>
		<path style="fill:#1D3557;" d="M210.43,366.086c-0.799-0.523-1.324-0.981-1.701-1.873c-0.124-0.293-0.931-0.113,0.427,1.318
			C210.357,366.798,210.692,366.258,210.43,366.086z"/>
		<path style="fill:#1D3557;" d="M211.856,363.303c-1.443-1.025-1.495-1.134-1.641-0.942c-0.164,0.217,0.028,0.255,1.471,1.193
			C211.83,363.646,211.997,363.403,211.856,363.303z"/>
		<path style="fill:#1D3557;" d="M215.188,360.527c-0.04-0.117-0.955-1.286-1.204-1.051
			C213.672,359.77,215.417,361.21,215.188,360.527z"/>
		<path style="fill:#1D3557;" d="M216.3,168.929c-0.06-0.218-0.387-0.09-0.328,0.127c0.775,2.837,0.751,4.921,0.512,7.629
			C216.365,178.026,217.924,174.804,216.3,168.929z"/>
		<path style="fill:#1D3557;" d="M218.985,171.663c-0.153-0.224-0.472,0.053-0.32,0.275c0.663,0.97,0.845,2.208,0.596,3.347
			C219.011,176.432,220.798,174.317,218.985,171.663z"/>
		<path style="fill:#1D3557;" d="M222.555,171.014c-0.094-0.222-0.44-0.079-0.346,0.143c0.828,1.975,0.722,4.211-0.154,6.153
			C221.446,178.659,224.462,175.501,222.555,171.014z"/>
	</g>
</g>
</svg>
