<?xml version="1.0" encoding="utf-8"?>
<!-- Generator: Adobe Illustrator 27.5.0, SVG Export Plug-In . SVG Version: 6.00 Build 0)  -->
<svg version="1.1" id="Layer_1" xmlns="http://www.w3.org/2000/svg" xmlns:xlink="http://www.w3.org/1999/xlink" x="0px" y="0px"
	 viewBox="0 0 4000 4000" style="enable-background:new 0 0 4000 4000;" xml:space="preserve">
<rect style="fill:#FEFEFE;" width="4000" height="4000"/>
<path style="fill-rule:evenodd;clip-rule:evenodd;" d="M581.271,657.947c-91.97,12.627-140.036,44.573-163.301,108.535
	c-33.644,92.496,5.919,228.077,115.421,395.503c34.607,52.919,41.485,68.67,44.562,102.05c2.007,21.748,4.775,32.137,10.837,40.65
	c7.437,10.442,8.062,14.703,7.209,49.22c-1.091,44.061,5.429,68.069,28.453,104.79l13.843,22.075l-0.693,40.466
	c-0.785,46.158,4.399,64.328,22.761,79.78c10.403,8.755,10.823,10.229,11.359,39.961c0.65,35.953,7.184,54.575,38.487,109.689
	c37.833,66.605,72.766,100.583,137.542,133.765c45.625,23.375,99.702,40.743,161.664,51.931
	c88.442,15.968,91.725,16.184,238.054,15.758c128.642-0.377,140.438,0.064,124.357,4.655
	c-35.214,10.059-107.067,33.608-129.686,42.502c-40.402,15.893-121.308,56.077-159.887,79.418
	c-42.718,25.845-53.267,33.864-111.921,85.084c-65.174,56.916-86.961,80.914-104.577,115.172
	c-14.969,29.117-15.374,30.783-13.672,56.099c1.176,17.438,4.399,31.085,9.725,41.173c10.282,19.474,10.403,34.362,0.441,54.198
	c-10.638,21.187-21.606,59.101-21.581,74.604c0.043,28.428,13.743,51.867,40.594,69.462c5.18,3.393,13.75,13.537,19.044,22.544
	c9.479,16.127,9.611,17.197,8.708,71.444c-0.718,43.202,0.359,59.286,4.999,74.614c11.338,37.47,34.102,58.551,71.441,66.165
	c33.43,6.815,37.794,9.281,50.652,28.655c6.243,9.405,20.913,25.909,32.599,36.671c25.454,23.443,29.565,37.186,24.189,80.867
	c-6.061,49.249-33.924,94.838-104.729,171.371c-45.351,49.018-56.643,65.344-65.884,95.268c-8.438,27.319-8.573,32.287-1.624,58.981
	c6.563,25.191,15.765,38.739,34.241,50.403c33.853,21.372,77.936,17.786,103.39-8.407c12.706-13.075,30.968-47.12,31.036-57.854
	c0.021-3.031,1.443-7.028,3.159-8.883c1.72-1.858,5.127-9.771,7.575-17.587c12.134-38.739,50.961-104.573,77.726-131.786
	c17.893-18.195,48.723-32.368,80.423-36.976c37.662-5.472,73.356,1.176,131.207,24.43c23.546,9.469,51.434,19.247,61.969,21.734
	c33.026,7.792,82.321,0.323,109.849-16.643c71.874-44.299,91.267-70.727,152.042-207.181c5.656-12.702,16.013-34.287,23.013-47.966
	c33.747-65.952,43.543-106.353,61.962-255.57c9.636-78.064,21.087-140.967,35.943-197.443
	c12.439-47.291,43.876-145.213,47.298-147.33c1.567-0.966,3.72,29.789,4.789,68.346c2.622,94.678,14.23,157.46,46.634,252.234
	c28.108,82.207,28.78,83.298,55.062,89.601c14.091,3.383,19.3,3.077,31.59-1.841c14.973-5.99,22.31-17.165,36.078-54.934
	c2.49-6.84,6.651-17.278,9.241-23.201c7.66-17.517,25.429-82.48,33.011-120.697c13.118-66.129,15.765-88.677,17.922-152.781
	l2.153-63.955l13.079,39.083c38.707,115.68,58.831,201.856,70.119,300.232c1.904,16.611,6.058,52.585,9.227,79.944
	c9.266,80.007,21.588,122.417,55.808,192.07c10.506,21.382,22.91,48.471,27.568,60.196c4.655,11.725,12.972,30.311,18.48,41.301
	c5.51,10.99,10.016,20.995,10.016,22.239c0,1.243,9.018,15.95,20.035,32.681c38.721,58.792,71.857,87.114,123.23,105.33
	c45.55,16.152,80.491,13.384,133.871-10.606c38.632-17.36,65.707-25.831,95.037-29.736c95.964-12.777,156.536,40.26,213.726,187.135
	c19.428,49.899,29.38,66.328,46.481,76.728c37.478,22.789,92.994,10.815,113.868-24.562c4.093-6.936,9.799-21.823,12.684-33.086
	c4.676-18.241,4.64-23.095-0.313-44.452c-6.079-26.221-13.377-39.869-34.703-64.904c-7.714-9.053-16.71-19.659-19.989-23.567
	c-3.283-3.908-13.914-15.942-23.628-26.744c-9.71-10.798-22.455-25.767-28.318-33.264s-13.565-17.019-17.122-21.162
	c-22.86-26.641-43.514-70.979-48.734-104.616c-6.257-40.316-0.682-60.181,22.871-81.507c10.293-9.323,23.937-24.665,30.318-34.099
	c14.528-21.471,27.419-29.401,52.969-32.596c24.854-3.105,35.346-8.382,50.123-25.212c22.732-25.887,31.697-64.985,25.77-112.397
	c-6.42-51.391,4.828-84.054,36.205-105.127c38.639-25.951,42.878-65.667,14.052-131.662c-10.652-24.385-10.496-35.37,0.913-63.884
	c17.513-43.777,7.078-83.358-35.541-134.792c-12.482-15.065-33.629-36.184-46.993-46.932c-13.366-10.748-27.525-22.91-31.473-27.028
	c-47.181-49.245-142.555-110.447-229.235-147.092c-12.702-5.372-32.688-13.825-44.413-18.785
	c-19.986-8.456-95.481-33.349-122.118-40.263c-7.444-1.933,38.945-3.109,122.58-3.109c90.869,0,144.36-1.471,164.755-4.53
	c16.611-2.491,41.393-6.239,55.072-8.328c39.954-6.108,111.413-24.321,140.047-35.694c69.231-27.504,121.99-69.654,161.589-129.1
	c38.789-58.231,55.445-100.48,55.445-140.644c0-24.608,0.867-28.339,7.401-31.835c4.068-2.178,11.249-12.23,15.953-22.334
	c7.437-15.967,8.559-23.61,8.588-58.451l0.035-40.078l14.617-25.653c21.94-38.497,29.174-68.083,26.278-107.462
	c-2.157-29.38-1.752-32.617,4.857-38.597c7.412-6.704,12.887-27.618,16.579-63.315c1.84-17.786,6.008-26.424,33.839-70.109
	c17.456-27.401,31.739-50.684,31.739-51.736s3.855-8.019,8.57-15.484c27.764-43.98,73.783-146.652,85.874-191.591
	c7.93-29.476,10.677-98.444,5.01-125.87c-4.917-23.795-18.469-53.694-33.335-73.534c-32.205-42.985-115.9-67.867-211.793-62.967
	c-72.059,3.685-155.979,18.394-220.289,38.607c-31.242,9.821-122.722,44.097-134.447,50.375
	c-5.198,2.786-35.832,17.939-68.076,33.679c-32.244,15.736-69.018,35.015-81.72,42.839c-12.702,7.82-27.092,16.173-31.978,18.557
	c-18.028,8.797-116.526,76.081-149.228,101.94c-141.077,111.559-274.945,255.645-371.808,400.19
	c-32.713,48.819-107.853,169.843-107.853,173.715c0,0.629-7.781,14.66-17.289,31.185c-9.508,16.525-27.223,49.533-39.364,73.349
	c-12.144,23.816-23.152,43.301-24.459,43.301c-1.311,0-2.384-12.13-2.384-26.953c0-23.93-0.927-27.707-8.271-33.658l-8.271-6.708
	l13.555-21.954c12.759-20.672,13.555-23.642,13.601-50.727c0.039-24.313-1.481-31.878-9.813-48.844
	c-9.174-18.682-24.463-34.237-38.867-39.538c-5.447-2.007-4.761-5.159,6.523-29.941c16.326-35.861,46.015-95.794,54.198-109.416
	c3.525-5.863,17.243-31.444,30.489-56.849c13.246-25.404,25.33-47.788,26.854-49.743c3.844-4.921,63.902-124.552,63.902-127.284
	c0-1.219,5.667-13.85,12.595-28.069c16.87-34.617,39.286-107.739,44.271-144.392c8.126-59.755-6.85-99.972-37.229-99.972
	c-19.129,0-31.288,8.026-42.014,27.739c-14.848,27.277-11.921,46.875,6.999,46.875c6.783,0,9.003-3.262,13.896-20.43
	c7.412-26.008,9.135-27.643,18.572-17.595c16.255,17.3,13.793,89.096-5.102,148.915c-9.501,30.08-47.885,115.819-72.035,160.917
	c-8.371,15.633-26.498,50.009-40.281,76.39c-13.779,26.381-31.057,58.359-38.387,71.061c-7.333,12.702-23.081,43.88-34.994,69.284
	c-30.94,65.987-33.914,71.217-39.684,69.832c-9.472-2.274-44.129-1.659-52.198,0.924c-5.202,1.666-7.994,1.105-7.994-1.609
	c0-7.287-48.002-116.337-83.244-189.118c-18.703-38.625-34.006-71.089-34.006-72.141c0-1.055-3.027-8.627-6.729-16.824
	c-41.833-92.667-70.713-190.912-73.942-251.566c-2.249-42.21,1.233-77.993,6.285-64.648c3.88,10.243,4.726,38.305,1.691,56.149
	c-2.843,16.721,3.478,28.442,13.306,24.672c8.89-3.411,10.762-15.232,8.929-56.412c-1.329-29.853-3.088-38.888-9.629-49.476
	c-13.029-21.08-32.784-22.313-44.203-2.761c-20.37,34.88-6.882,126.023,36.873,249.193c29.078,81.859,38.764,104.456,91.008,212.362
	c16.34,33.747,29.707,62.878,29.707,64.736c0,1.855,3.34,9.323,7.422,16.593c4.083,7.266,10.553,21.307,14.376,31.196
	c3.823,9.892,11.043,26.477,16.042,36.859c4.999,10.379,8.524,19.371,7.831,19.975c-0.693,0.608-6.282,3.656-12.421,6.779
	c-12.13,6.165-29.064,26.253-36.404,43.194c-2.544,5.862-5.436,21.851-6.431,35.53c-1.457,20-0.298,28.872,5.919,45.301
	c4.253,11.238,9.16,20.43,10.904,20.43s4.893,3.216,6.996,7.149c3.198,5.973,2.192,8.559-6.09,15.697
	c-9.213,7.941-9.899,10.371-9.636,34.166c0.252,22.96-0.245,24.925-4.821,18.941c-2.807-3.667-7.451-12.095-10.314-18.728
	c-32.567-75.349-152.585-275.933-210.372-351.581c-10.965-14.354-22.334-29.568-25.266-33.803
	c-9.423-13.622-49.441-62.839-72.127-88.705c-21.052-23.997-129.771-134.088-155.456-157.414
	c-60.59-55.026-167.562-132.639-248.525-180.32c-48.467-28.542-140.672-74.305-182.982-90.816
	c-21.496-8.389-43.081-16.959-47.966-19.048c-23.798-10.165-127.096-39.45-170.546-48.35
	C711.813,655.872,629.248,651.359,581.271,657.947 M708.111,684.14c44.431,5.688,83.756,13.157,112.99,21.453
	c9.771,2.771,24.96,6.786,33.754,8.915c64.001,15.509,167.839,59.254,262.925,110.77c64.761,35.083,63.457,34.276,132.816,82.384
	c11.49,7.97,24.281,16.806,28.424,19.638c30.247,20.661,77.073,56.817,119.45,92.223c32.866,27.465,121.347,117.044,158.256,160.228
	c76.326,89.299,139.439,175.389,186.236,254.042c10.464,17.588,23.34,38.373,28.609,46.19c5.273,7.817,18.035,30.201,28.364,49.743
	c10.329,19.542,24.878,45.923,32.34,58.625c12.297,20.945,27.934,54.095,23.457,49.743c-1.002-0.977-21.823-32.155-46.264-69.284
	c-61.613-93.598-168.411-238.964-200.999-273.584c-7.358-7.817-24.331-28.602-37.719-46.19
	c-23.695-31.132-75.538-91.217-80.693-93.53c-1.414-0.636-10.442-11.029-20.064-23.095c-16.912-21.219-82.644-82.637-106.094-99.141
	c-6.314-4.441-25.031-17.993-41.599-30.112c-46.46-33.996-42.601-32.869-97.929-28.563c-36.483,2.835-49.021,5.088-52.372,9.398
	c-15.498,19.947-59.649,101.841-64.651,119.929c-6.612,23.887-8.229,24.697-25.585,12.809
	c-49.487-33.9-190.873-89.483-228.137-89.686c-15.978-0.089-33.317,9.064-36.66,19.346c-2.373,7.309-4.992,56.447-5.983,112.312
	c-0.483,27.17,0.423,31.878,8.343,43.44c11.021,16.092,34.33,29.053,68.186,37.922l25.969,6.804l-40.86,0.231
	c-57.008,0.32-134.916,6.307-189.8,14.585c-51.64,7.785-58.913,9.519-58.913,14.027c0,6.662,7.827,6.687,53.719,0.16
	c130.667-18.59,271.925-18.721,389.744-0.366c37.74,5.88,70.13,11.625,71.978,12.766c1.844,1.141,5.976,7.17,9.181,13.395
	c10.578,20.565,74.451,104.541,128.19,168.542c15.175,18.071,28.126,34.461,28.78,36.419c1.069,3.212-12.439,4.32-65.138,5.333
	c-270.12,5.209-420.343,19.19-517.721,48.19c-40.981,12.205-28.034,18.913,16.543,8.577
	c108.144-25.081,331.456-42.85,432.949-34.454c58.203,4.818,119.347,14.599,172.955,27.668c29.764,7.259,43.13,12.766,66.737,27.515
	c16.237,10.14,37.062,23.024,46.278,28.63c26.161,15.914,109.796,57.321,139.972,69.302c15.004,5.958,34.191,13.956,42.636,17.772
	c14.29,6.459,45.738,17.85,97.076,35.157c24.583,8.286,55.758,17.914,95.211,29.408l27.699,8.069l-1.052,18.057
	c-1.027,17.541-1.51,18.28-17.044,25.813c-19.343,9.384-77.712,23.699-126.133,30.936c-76.685,11.466-138.363,14.663-275.361,14.283
	c-247.068-0.689-387.221-18.287-428.412-53.8c-23.631-20.373-26.708-49.479-8.911-84.388c16.998-33.345,14.781-75.023-5.607-105.39
	c-21.89-32.599-55.15-40.867-130.887-32.542c-41.571,4.573-138.821,23.305-143.078,27.561c-4.061,4.061,3.116,13.278,8.68,11.142
	c27.582-10.585,136.561-26.904,179.667-26.904c53.594,0,82.502,24.747,87.014,74.49c1.475,16.28,0.291,23.002-6.317,35.843
	c-4.473,8.691-10.872,24.594-14.219,35.342l-6.083,19.542l-24.409,4.171c-68.904,11.775-143.433,33.857-143.433,42.494
	c0,7.813,18.575,5.141,53.296-7.66c16.209-5.98,22.803-7.415,79.943-17.399c41.35-7.227,39.901-7.408,42.693,5.305
	c3.35,15.246,20.984,34.106,41.709,44.609c46.275,23.45,180.061,39.112,391.705,45.859c64.573,2.057,146.489-1.201,231.243-9.202
	c72.66-6.857,198.818-32.745,206.556-42.384c3.759-4.683,4.349-4.456,4.491,1.716c0.089,3.908,1.009,10.304,2.043,14.212
	c1.556,5.884-1.404,8.435-17.243,14.834c-40.672,16.433-124.545,34.752-199.695,43.614c-29.732,3.507-53.665,5.269-200.747,14.791
	c-96.764,6.264-260.626,8.058-309.115,3.382c-99.265-9.572-149.015-18.238-197.194-34.354
	c-65.955-22.061-77.655-27.614-116.277-55.186c-38.515-27.497-47.128-37.577-87.625-102.555
	c-7.252-11.636-21.062-40.753-27.81-58.625c-3.51-9.309-5.163-24.917-4.782-45.23l0.579-31.018l-17.058-15.879l-17.058-15.882
	l-1.776-50.929l-1.777-50.933l-15.527-25.671c-23.084-38.16-25.617-48.154-24.516-96.614c0.913-40.11,0.561-42.502-7.518-51.121
	c-6.865-7.323-9.003-14.656-11.228-38.501c-3.347-35.889-5.955-42.924-27.849-75.161c-35.737-52.613-86.097-142.26-104.062-185.245
	c-3.265-7.817-8.645-20.608-11.952-28.424c-12.191-28.822-23.304-78.853-25.387-114.294c-2.185-37.154,0.7-57.424,12.055-84.676
	C474.037,696.679,570.924,666.574,708.111,684.14 M3437.918,686.908c39.691,9.487,47.444,12.016,66.371,21.677
	c21.61,11.029,34.767,26.623,51.288,60.789c11.796,24.392,12.02,25.724,11.644,69.284c-0.579,67.049-12.592,107.579-60.185,203.035
	c-12.318,24.708-37.307,68.328-55.527,96.934c-47.526,74.603-51.573,83.226-54.482,116.113
	c-1.826,20.629-4.495,30.585-10.109,37.723c-6.882,8.748-7.55,13.516-6.843,48.865c0.938,47.167-3.457,64.52-25.628,101.184
	L3338.433,1469v41.677c0,48.048-2.53,56.962-20.59,72.613l-13.164,11.409l0.863,28.748c0.988,32.837-3.194,48.25-24.701,91.036
	c-26.005,51.736-65.902,101.905-99.556,125.184c-50.339,34.82-133.576,65.092-207.039,75.293
	c-90.294,12.535-142.054,15.246-255.244,13.356c-62.85-1.048-138.256-3.567-167.568-5.596c-29.313-2.029-76.451-5.298-104.754-7.259
	c-117.147-8.115-191.321-20.799-271.087-46.349c-32.094-10.282-33.402-11.107-32.563-20.494c0.483-5.376,1.034-11.814,1.229-14.301
	c0.274-3.525,2.114-3.411,8.346,0.526c17.619,11.125,124.2,32.553,205.188,41.251c69.295,7.44,163.65,11.192,225.618,8.972
	c321.376-11.515,412.622-29.892,436.882-87.973c3.063-7.33,7.664-13.324,10.229-13.324c13.519,0,90.45,15.9,121.109,25.028
	c36.046,10.737,51.786,12.965,51.786,7.33c0-3.461-1.503-4.157-35.531-16.472c-27.657-10.009-97.791-26.445-114.33-26.794
	c-20.089-0.426-24.193-4.09-33.665-30.069c-4.967-13.615-11.412-31.15-14.329-38.966c-14.006-37.556,9.11-84.108,48.268-97.218
	c26.577-8.897,111.591-2.363,178.011,13.679c47.973,11.59,46.189,11.384,46.189,5.365c0-19.286-178.082-46.087-226.023-34.017
	c-38.099,9.597-62.235,41.546-64.729,85.689c-1.144,20.203,0.281,27.33,10.25,51.277c18.931,45.475,14.323,70.002-16.916,90.013
	c-40.274,25.799-125.131,38.721-310.152,47.223c-217.13,9.981-411.638-6.477-509.293-43.091l-18.333-6.875l-1.023-19.098
	l-1.02-19.098l22.338-6.072c30.396-8.257,70.546-19.975,79.19-23.109c3.908-1.418,23.095-7.795,42.636-14.173
	c89.586-29.234,197.979-78.568,269.463-122.637c19.229-11.856,37.616-23.173,40.86-25.152c3.244-1.979,9.895-6.296,14.781-9.597
	c8.783-5.933,50.055-16.774,90.859-23.862c11.586-2.011,39.449-6.872,61.922-10.801c108.535-18.97,319.301-9.337,472.555,21.592
	c28.335,5.72,55.278,11.398,59.872,12.62c6.726,1.791,8.108,0.981,7.106-4.157c-3.105-15.893-159.4-43.916-285.491-51.185
	c-35.175-2.029-122.313-5.486-193.641-7.682s-130.187-4.466-130.798-5.042c-0.611-0.579,8.293-11.21,19.783-23.624
	c11.491-12.418,31.178-35.907,43.749-52.205c65.724-85.206,88.759-116.462,96.277-130.635c6.371-12.009,10.755-16.021,18.952-17.35
	c63.177-10.233,85.579-13.271,131.466-17.826c98.934-9.824,237.489-4.225,361.522,14.61c20.469,3.109,17.531-6.879-3.553-12.07
	c-33.331-8.208-138.942-19.09-204.698-21.091l-67.021-2.039l29.714-8.563c36.06-10.389,46.964-16.472,61.311-34.216
	c10.659-13.178,11.018-14.752,10.549-46.19c-1.737-115.644-4.761-127.501-33.068-129.583
	c-17.144-1.261-77.478,14.845-117.997,31.501c-14.354,5.902-30.819,12.667-36.589,15.04c-17.829,7.326-70.936,35.076-76.568,40.004
	c-2.935,2.569-9.998,6.445-15.694,8.609c-11.444,4.353-16.12,0.796-16.223-12.336c-0.068-8.844-53.161-114.831-64.165-128.087
	c-2.924-3.525-11.675-5.163-27.813-5.212c-12.954-0.039-34.162-1.606-47.131-3.482c-33.882-4.9-43.965,0.657-134.461,74.124
	c-54.408,44.172-123.511,116.078-174.167,181.234c-12.702,16.337-35.189,44.31-49.97,62.161
	c-25.443,30.727-87.838,111.121-99.176,127.785c-2.885,4.239-13.345,18.103-23.24,30.805
	c-19.023,24.409-106.822,154.213-116.558,172.323c-3.155,5.862-9.025,14.656-13.05,19.542l-7.316,8.883l4.345-10.659
	c2.391-5.862,5.493-12.258,6.896-14.212c1.404-1.954,9.38-16.344,17.723-31.977c8.343-15.633,18.813-34.82,23.269-42.636
	c4.456-7.817,12.425-23.006,17.716-33.754c5.287-10.748,16.777-30.734,25.529-44.413c27.376-42.786,31.292-48.954,50.744-79.943
	c20.842-33.2,56.128-83.326,80.043-113.697c75.09-95.374,104.388-128.73,168.108-191.392
	c46.293-45.529,109.533-101.83,138.779-123.554c45.468-33.775,99.464-72.336,101.293-72.336c1.087,0,12.717-6.943,25.841-15.424
	c30.269-19.559,60.047-37.449,69.686-41.862c4.114-1.883,15.473-8.183,25.244-13.995c9.771-5.813,22.857-12.915,29.082-15.786
	c6.221-2.867,29.945-14.035,52.713-24.815c99.624-47.167,218.743-83.209,312.593-94.575c17.588-2.132,32.759-4.633,33.719-5.56
	C3324.419,676.266,3416.216,681.724,3437.918,686.908 M584.337,710.884c-28.229,3.297-74.561,13.903-79.279,18.145
	c-2.132,1.919-2.132,4.257,0,6.349c2.089,2.05,14.194,0.473,31.8-4.15c42.64-11.185,153.147-11.096,213.183,0.174
	c62.896,11.807,166.066,40.352,195.417,54.07c7.817,3.653,28.602,12.237,46.19,19.073c38.01,14.774,150.002,71.104,159.322,80.135
	c5.511,5.34,5.834,7.465,2.068,13.498c-2.459,3.937-8.886,9.767-14.28,12.951c-9.163,5.415-10.926,5.347-26.939-1.027
	c-9.423-3.752-34.72-15.552-56.216-26.225c-62.882-31.217-83.781-40.441-109.629-48.389c-47.227-14.521-73.353-6.911-73.353,21.368
	c0,7.774,2.32,18.614,5.152,24.097c23.07,44.612,161.077,111.825,190.265,92.667c4.736-3.113,4.736-3.887,0-7
	c-2.931-1.922-11.288-3.521-18.572-3.553c-35.477-0.146-134.348-52.454-154.106-81.532c-15.097-22.217-9.185-39.325,13.587-39.325
	c17.033,0,49.796,11.036,90.553,30.503c23.038,11.007,47.252,22.327,53.807,25.156c10.737,4.637,11.405,5.742,6.758,11.164
	c-12.709,14.823-10.176,27.678,8.414,42.69c5.667,4.58,10.194,11.7,10.162,15.989c-0.089,11.377-14.663,35.179-25.145,41.063
	c-8.083,4.537-10.478,4.409-21.265-1.126c-19.776-10.144-99.13-44.658-124.079-53.967c-98.032-36.575-137.89-44.413-236.899-46.609
	c-81.397-1.801-192.554,3.798-204.737,10.318c-15.058,8.062,0.032,10.474,42.288,6.769c23.248-2.039,80.825-3.724,127.952-3.745
	c76.017-0.032,90.855,0.942,131.463,8.623c48.307,9.138,130.049,35.125,179.621,57.104c16.276,7.216,35.992,15.904,43.809,19.3
	c7.817,3.393,22.31,9.764,32.208,14.152c27.451,12.166,35.758,9.611,55.676-17.129c21.816-29.288,22.292-39.57,2.714-58.561
	c-18.145-17.602-18.867-27.078-2.068-27.078c6.676,0,19.709,3.244,28.954,7.206c20.959,8.986,35.079,5.376,51.309-13.107
	c22.324-25.426,14.013-34.01-78.192-80.793c-68.648-34.834-138.199-62.068-213.421-83.571
	c-73.967-21.141-124.168-30.784-185.924-35.712C632.349,706.819,619.115,706.823,584.337,710.884 M3295.796,712.479
	c-115.104,12.62-243.689,53.605-385.505,122.871c-72.013,35.172-79.155,41.109-76.639,63.71c0.903,8.087,27.43,31.977,35.509,31.977
	c3.912,0,15.225-3.198,25.141-7.106c20.835-8.211,37.524-9.185,40.149-2.341c2.388,6.214-0.106,9.547-16.166,21.606
	c-16.788,12.606-17.463,24.921-2.768,50.542c21.972,38.309,35.243,40.622,87.746,15.296c17.261-8.328,38.579-17.95,47.373-21.389
	c105.351-41.173,118.984-45.667,179.429-59.148c23.983-5.351,45.916-6.342,140.345-6.342c61.556,0,124.31,1.18,139.457,2.619
	c22.31,2.125,27.536,1.691,27.536-2.285c0-2.697-2.754-5.958-6.122-7.252c-13.175-5.056-134.714-9.689-210.614-8.03
	c-71.974,1.578-83.471,2.69-115.353,11.185c-46.904,12.492-97.343,29.455-128.567,43.233c-6.157,2.718-12.354,4.942-13.768,4.942
	c-3.66,0-41.254,16.522-74.045,32.539c-15.37,7.508-30.343,13.651-33.274,13.651c-8.549,0-29.092-25.063-31.633-38.59
	c-1.933-10.311-0.885-13.693,6.178-19.979c20.018-17.797,21.965-21.734,17.467-35.363c-2.299-6.964-6.054-12.695-8.346-12.738
	c-7.302-0.135,79.595-43.084,105.454-52.116c31.455-10.99,57.158-14.287,64.417-8.261c7.376,6.122,6.74,24.587-1.261,36.724
	c-8.19,12.418-42.342,35.466-82.171,55.456c-34.994,17.559-57.104,25.01-74.614,25.138c-16.266,0.124-24.687,5.145-18.689,11.142
	c6.14,6.14,51.388-1.272,79.169-12.965c33.264-14.003,81.688-44.328,100.295-62.811c15.591-15.484,16.877-18.099,16.877-34.305
	c0-11.995-2.153-20.189-6.808-25.927c-6.001-7.394-9.686-8.357-31.089-8.115c-15.822,0.178-31.711,3.038-45.6,8.211
	c-29.586,11.022-82.619,35.463-98.565,45.433c-16.028,10.02-64.363,29.579-73.097,29.579c-3.443,0-11.512-4.399-17.932-9.771
	l-11.672-9.771l10.03-9.579c9.376-8.957,120.125-66.087,139.716-72.073c4.885-1.492,10.656-4.129,12.826-5.855
	c4.004-3.187,75.054-29.028,120.413-43.791c13.679-4.456,40.061-11.583,58.625-15.843c18.565-4.264,39.35-9.21,46.19-10.997
	c6.84-1.787,32.421-5.88,56.849-9.096c52.621-6.925,130.947-5.081,166.993,3.93c29.153,7.291,39.798,8.041,41.567,2.924
	c2.451-7.088-44.925-18.554-92.713-22.434C3351.113,706.577,3349.401,706.602,3295.796,712.479 M596.165,739.127
	c-6.957,2.988-8.034,5.72-7.106,18.021c1.094,14.503,6.751,20.373,25.159,26.094c5.386,1.677,5.642,3.006,1.784,9.185
	c-2.48,3.976-7.316,8.119-10.741,9.206c-9.209,2.924-7.55,11.686,2.704,14.262c10.616,2.665,17.95-2.565,21.077-15.036
	c1.848-7.358,3.841-8.691,10.503-7.017c4.519,1.133,21.855,3.109,38.522,4.391c30.24,2.324,30.318,2.31,36.731-7.479
	c3.734-5.699,6.509-16.667,6.623-26.179c0.192-15.967-0.156-16.493-14.017-21.304C690.062,737.254,607.667,734.184,596.165,739.127
	 M3310.008,738.921c-8.794,1.297-19.78,4.441-24.417,6.989c-7.5,4.125-8.193,6.363-6.282,20.295
	c4.488,32.741,18.511,40.149,58.725,31.029c26.772-6.072,31.473-4.86,36.444,9.401c3.702,10.62,10.297,13.15,22.288,8.549
	c6.921-2.654,7.465-12.055,0.7-12.055c-5.617,0-17.687-16.628-13.693-18.867c1.446-0.807,6.992-2.512,12.333-3.788
	c19.041-4.551,24.587-35.015,7.554-41.492C3393.896,735.268,3335.085,735.233,3310.008,738.921 M671.831,749.996
	c17.563,2.011,33.264,4.988,34.891,6.616c1.624,1.624,1.865,8.758,0.533,15.854c-2.359,12.589-2.807,12.898-18.607,12.898
	c-41.102,0-82.463-14.152-85.362-29.21c-0.856-4.445,2.15-6.207,12.411-7.273c7.447-0.774,15.939-1.663,18.87-1.975
	C637.498,746.592,654.265,747.984,671.831,749.996 M3400.138,753.268c10.46,10.46-43.397,32.095-79.89,32.095
	c-18.902,0-24.452-4.537-24.452-19.997c0-11.21,0.419-11.515,18.654-13.487c10.261-1.112,23.45-2.611,29.313-3.333
	C3360.746,746.46,3396.308,749.438,3400.138,753.268 M479,779.763c-3.354,7.365-3.066,9.501,1.638,12.134
	c10.087,5.646,19.417,0.696,18.216-9.664C497.352,769.281,484.507,767.683,479,779.763 M3503.159,776.48
	c-3.375,8.79,1.489,15.989,10.798,15.989c10.261,0,16.593-13.171,8.726-18.156C3515.147,769.541,3505.404,770.621,3503.159,776.48
	 M1755.818,835.283l-4.828,26.47l-0.384-20.664c-0.334-18.064,4.701-37.613,8.67-33.647
	C1760.029,808.198,1758.472,820.726,1755.818,835.283 M2277.757,820.715c2.981,5.767,5.347,14.162,5.255,18.654
	c-0.11,5.475-2.455,2.31-7.103-9.593c-7.667-19.638-7.643-19.542-5.259-19.542C2271.578,810.234,2274.776,814.952,2277.757,820.715
	 M610.25,829.978c-5.713,12.542,0.199,22.892,13.072,22.892c19.254,0,26.381-21.993,9.238-28.513
	C618.692,819.088,614.762,820.076,610.25,829.978 M3365.969,824.73c-6.616,3.852-8.136,16.053-3.013,24.143
	c1.702,2.686,7.454,4.885,12.784,4.885c10.545,0,15.85-5.674,15.935-17.055C3391.778,822.847,3379.232,817.006,3365.969,824.73
	 M475.031,837.084c-8.865,15.022-9.167,17.922-2.157,20.615c3.432,1.315,7.145-1.531,10.528-8.073
	c6.726-13.008,15.09-16.351,17.996-7.195c1.215,3.83,6.79,9.334,12.389,12.23c7.515,3.883,10.471,8.293,11.295,16.838l1.116,11.572
	l22.615,1.069c26.708,1.261,36.01-4.509,36.01-22.338c0-16.113-11.135-21.237-40.231-18.522
	c-21.784,2.036-23.159,1.684-32.777-8.357C497.547,820.033,484.646,820.79,475.031,837.084 M3488.307,833.329
	c-8.993,7.568-14.159,8.89-34.912,8.936c-30.166,0.067-34.774,2.75-34.287,19.943c0.501,17.591,8.037,22.64,33.79,22.64
	c19.197,0,20.995-0.7,24.338-9.494c1.983-5.223,2.793-11.618,1.798-14.212c-0.995-2.597-0.043-4.718,2.114-4.718
	c2.156,0,7.728-4.111,12.382-9.131c10.08-10.876,19.688-10.115,22.498,1.78c2.473,10.485,8.176,12.915,13.96,5.948
	c3.407-4.107,3.177-7.383-1.112-15.676C3519.83,821.849,3504.63,819.596,3488.307,833.329 M627.461,838.658
	c0,1.954-1.503,3.553-3.343,3.553s-4.331-1.599-5.539-3.553c-1.208-1.954,0.299-3.553,3.344-3.553
	C624.966,835.105,627.461,836.704,627.461,838.658 M3381.069,836.672c0,0.863-1.599,2.555-3.553,3.763
	c-1.954,1.208-3.553,0.501-3.553-1.567c0-2.068,1.599-3.763,3.553-3.763S3381.069,835.809,3381.069,836.672 M569.958,864.418
	c1.087,9.433,0.551,9.771-15.594,9.771c-15.42,0-25.855-5.894-26.275-14.841c-0.174-3.692,10.83-5.873,26.534-5.259
	C567.322,854.587,568.956,855.688,569.958,864.418 M3465.802,856.015c2.636,1.67,4.221,6.044,3.521,9.717
	c-0.991,5.227-4.946,6.914-18.149,7.763c-17.598,1.13-23.55-3.642-19.076-15.296C3434.35,852.323,3457.602,850.817,3465.802,856.015
	 M602.589,976.118c-46.861,7.184-51.267,9.7-52.585,30.048c-0.998,15.363-0.267,16.944,11.078,23.955
	c6.68,4.129,16.323,7.508,21.428,7.508c8.883,0,9.192,0.654,7.209,15.143c-2.427,17.691,5.415,30.141,19.975,31.729
	c17.129,1.865,65.852-4.818,78.167-10.727c10.18-4.882,12.652-8.218,13.633-18.391c0.696-7.255-1.439-17.335-5.138-24.225
	c-5.116-9.533-5.518-13.111-2.086-18.607c7.174-11.487,5.28-30.645-3.649-36.898C680.795,968.767,649.457,968.934,602.589,976.118
	 M752.435,978.343c-15.431,16.429-6.797,37.968,15.214,37.968c20.327,0,30.531-24.697,16.145-39.083
	C774.361,967.794,761.933,968.238,752.435,978.343 M3218.482,977.195c-9.867,9.192-10.226,22.636-0.853,32.009
	c14.475,14.475,39.083,5.141,39.083-14.83C3256.712,975.969,3231.809,964.777,3218.482,977.195 M3308.782,977.518
	c-7.035,10.044-7.394,19.677-1.176,31.686c4.015,7.756,3.557,10.865-3.606,24.512c-10.272,19.57-10.229,22.235,0.519,32.987
	c9.856,9.852,41.375,17.115,74.294,17.115c26.211,0,35.321-8.016,33.623-29.59c-1.13-14.369-0.817-14.855,10.236-15.925
	c14.799-1.432,33.011-18.273,33.011-30.524c0-10.673-10.425-22.477-22.118-25.038c-24.477-5.365-54.497-9.394-84.786-11.38
	C3315.743,969.197,3314.474,969.389,3308.782,977.518 M683.037,993.962c3.482,13.867-7.323,21.581-36.035,25.724
	c-40.53,5.848-70.748,4.786-80.143-2.821c-17.978-14.56,0.103-23.411,62.377-30.549
	C672.524,981.356,680.145,982.439,683.037,993.962 M775.008,988.042c2.867,4.637-4.633,14.056-11.189,14.056
	c-4.996,0-6.818-11.107-2.526-15.395C764.871,983.121,772.425,983.86,775.008,988.042 M3240.724,993.265
	c0,4.612-2.768,7.451-7.994,8.193c-5.887,0.835-7.994-0.647-7.994-5.628c0-3.716,1.123-7.881,2.491-9.252
	C3231.941,981.867,3240.724,986.216,3240.724,993.265 M3392.403,989.588c20.594,2.892,40.146,6.292,43.443,7.561
	c8.606,3.301,5.582,16.333-5.034,21.684c-11.05,5.571-49.522,5.863-81.304,0.611c-21.841-3.606-24.409-4.932-28.009-14.471
	C3312.986,982.425,3324.131,980.005,3392.403,989.588 M1304.603,1008.998c17.427,11.611,47.678,34.639,67.22,51.171
	c55.42,46.882,122.257,113.982,117.89,118.348c-1.194,1.194-13.818-6.729-28.055-17.612
	c-41.805-31.956-63.308-40.942-104.534-43.699c-19.275-1.286-40.434-4.53-47.025-7.206c-25.546-10.371-43.091-3.379-43.091,17.175
	c0,7.827,3.485,14.162,12.436,22.604c13.31,12.553,17.63,29.504,6.218,24.392c-3.418-1.535-11.704-2.903-18.412-3.045
	c-10.13-0.217-13.342,1.698-18.991,11.309c-3.741,6.36-7.646,20.92-8.684,32.35c-1.705,18.806-1.102,21.332,6.342,26.545
	c10.641,7.454,6.559,11.22-10.798,9.97c-18.767-1.357-28.513,4.402-28.513,16.849c0,28.293,49.647,50.855,69.945,31.786
	c10.553-9.917,10.386-17.328-0.661-29.245c-4.885-5.273-8.883-11.871-8.883-14.664c0-2.796,3.997-6.083,8.883-7.308
	c4.885-1.226,8.883-4.26,8.883-6.74s2.356-6.463,5.237-8.854c2.878-2.391,6.257-9.799,7.508-16.465
	c1.251-6.662,3.649-12.969,5.333-14.01c1.684-1.037,2.086-9.014,0.892-17.726l-2.171-15.832h16.39
	c13.583,0,17.392-1.528,22.239-8.925c3.93-5.998,5.116-12.564,3.624-20.032l-2.221-11.107l19.609,2.306
	c36.966,4.346,58.632,15.25,107.611,54.163c27.27,21.666,97.915,89.387,122.41,117.346c20.401,23.279,80.441,103.642,97.844,130.951
	c8.716,13.679,19.467,30.467,23.891,37.307c4.423,6.84,19.812,32.162,34.194,56.273c14.386,24.111,27.753,46.52,29.707,49.796
	c14.592,24.456,21.581,35.904,28.499,46.712c20.011,31.252,41.546,63.919,54.838,83.177c7.97,11.547,13.814,23.539,12.986,26.648
	c-0.828,3.105-2.533,10.236-3.787,15.846c-2.171,9.696-2.992,10.084-16.696,7.891c-21.055-3.365-156.945-49.53-212.632-72.23
	c-96.952-39.528-201.344-95.918-261.795-141.418c-36.088-27.159-83.12-72.507-99.784-96.206
	c-7.298-10.378-31.686-42.509-54.202-71.405c-22.516-28.893-46.744-61.475-53.846-72.404c-13.537-20.828-31.878-62.566-38.11-86.723
	c-20.714-80.277-20.54-88.322,2.956-136.792c18.906-39.002,31.96-62.711,43.422-78.881c7.245-10.215,12.386-11.146,70.812-12.826
	C1272.583,987.897,1273.358,988.181,1304.603,1008.998 M2799.972,990.188c19.634,2.693,22.15,6.005,58.867,77.496
	c27.245,53.05,29.26,66.467,17.691,117.808c-14.542,64.548-31.398,103.223-63.5,145.685
	c-106.108,140.352-155.531,193.375-218.96,234.895c-19.542,12.791-40.118,26.424-45.724,30.293
	c-12.961,8.947-116.085,61.574-137.257,70.052c-8.794,3.518-33.534,13.775-54.977,22.793c-21.442,9.014-40.547,16.39-42.459,16.39
	s-17.943,5.532-35.626,12.293c-33.896,12.962-128.29,41.002-138.028,41.002c-3.791,0-6.591-4.502-8.289-13.324
	c-3.997-20.767-2.857-24.47,15.331-49.885c21.784-30.443,64.754-95.239,72.354-109.114
	c30.464-55.605,100.104-165.323,128.51-202.474c4.463-5.834,18.504-24.221,31.207-40.856c12.702-16.635,26.172-34.244,29.934-39.133
	c19.236-24.985,119.723-118.757,148.325-138.409c35.932-24.69,50.119-30.695,80.753-34.159l21.116-2.388l-1.641,13.75
	c-2.217,18.568,2.178,23.674,22.384,25.994l17.126,1.968v14.774c0,8.122,1.197,15.985,2.665,17.467
	c1.468,1.485,2.665,5.788,2.665,9.565c0,12.706,11.231,30.666,23.823,38.096l12.5,7.376l-9.281,8.598
	c-17.289,16.024-8.812,40.917,13.935,40.917c15.925,0,35.143-8.712,43.969-19.933c8.932-11.359,9.337-18.405,1.674-29.345
	c-4.818-6.879-8.293-8.016-21.318-6.982c-16.536,1.315-18.714-1.446-10.116-12.816c7.046-9.316,6.445-29.138-1.403-46.399
	c-9.199-20.217-15.513-24.441-32.482-21.727c-18.202,2.91-18.621-2.501-1.759-22.686c13.69-16.387,15.484-26.275,6.555-36.138
	c-7.106-7.852-27.579-8.446-40.309-1.169c-4.885,2.793-16.877,5.145-26.648,5.23c-51.153,0.441-83.184,12.94-132.962,51.889
	c-14.073,11.011-26.182,19.421-26.914,18.689c-3.08-3.08,95.389-100.164,129.676-127.849c33.605-27.138,45.188-35.832,83.035-62.338
	c9.145-6.406,16.241-7.827,39.936-7.994C2770.198,987.978,2790.727,988.924,2799.972,990.188 M683.517,1036.055
	c10.332,7.234,10.041,17.772-0.682,24.797c-10.485,6.872-65.209,12.99-74.028,8.275c-7.806-4.171-8.076-18.426-0.469-24.74
	c5.219-4.331,42.327-12.684,60.078-13.523C672.382,1030.675,679.175,1033.013,683.517,1036.055 M3366.857,1036.474
	c26.257,2.853,31.977,6.275,31.977,19.133c0,14.827-9.948,17.829-44.793,13.523c-40.576-5.017-53.022-15.679-37.858-32.436
	c4.804-5.305,8.957-6.328,18.654-4.587C3341.701,1033.34,3356.109,1035.305,3366.857,1036.474 M874.397,1046.827
	c20.828,3.621,91.69,28.538,115.875,40.746c23.908,12.07,25.941,18.152,11.718,35.054c-9.711,11.544-22.047,14.02-37.712,7.575
	c-4.487-1.848-28.268-8.865-52.837-15.598c-43.56-11.935-73.466-24.147-78.739-32.151c-1.435-2.182-2.608-9.561-2.608-16.401
	c0-6.839,1.172-14.248,2.608-16.465c3.045-4.701,14.504-7.994,22.153-6.367C857.787,1043.846,866.58,1045.467,874.397,1046.827
	 M3162.088,1045.168c10.922,4.974,13.352,13.708,8.353,29.998c-5.28,17.204-3.496,16.408-103.17,46.051
	c-52.386,15.58-60.284,14.887-71.683-6.282c-6.442-11.967-6.577-13.654-1.485-18.746c7.024-7.021,60.419-27.561,111.605-42.928
	C3150.469,1039.824,3150.388,1039.835,3162.088,1045.168 M842.597,1108.107c1.855,1.634,16.966,7.06,33.576,12.052
	c16.611,4.996,43.791,13.239,60.402,18.32c16.61,5.077,35.26,10.222,41.439,11.423c15.733,3.066,31.086-6.96,41.041-26.801
	c4.466-8.904,8.524-16.856,9.018-17.673c1.137-1.894,14.5,4.889,42.992,21.823c12.414,7.38,23.756,13.416,25.205,13.416
	s5.354,13.992,8.684,31.089c3.325,17.101,11.402,46.808,17.943,66.023l11.896,34.934l-9.032-2.267
	c-4.967-1.247-41.173-7.696-80.455-14.329c-132.33-22.352-141.877-24.353-172.685-36.216c-41.581-16.017-52.304-33.37-48.25-78.092
	c1.307-14.443,3.28-28.606,4.377-31.466C830.961,1104.575,837.403,1103.537,842.597,1108.107 M2979.146,1119.31
	c4.647,15.513,24.42,32.016,38.358,32.016c4.321,0,21.937-4.637,39.147-10.307c17.211-5.667,43.283-13.85,57.939-18.181
	s31.686-10.087,37.844-12.787c6.157-2.704,12.819-4.914,14.805-4.914c4.829,0,11.306,31.324,11.306,54.674
	c0,31.078-18.885,49.899-65.731,65.515c-11.725,3.908-29.313,8.168-39.083,9.469c-9.771,1.3-25.76,4.551-35.53,7.227
	c-9.771,2.676-31.356,6.563-47.966,8.638c-16.611,2.071-38.195,5.163-47.966,6.865c-9.771,1.702-29.384,5.123-43.585,7.607
	c-14.201,2.48-26.687,3.642-27.745,2.583c-1.063-1.059,1.51-12.091,5.713-24.516c4.203-12.422,11.149-39.293,15.434-59.713
	l7.792-37.126l33.633-20.501c18.497-11.274,35.374-20.547,37.509-20.608C2973.151,1105.186,2976.807,1111.514,2979.146,1119.31
	 M686.086,1113.994c-1.954,0.654-12.677,3.922-23.83,7.262c-11.149,3.34-22.97,9.053-26.264,12.695
	c-5.649,6.239-5.429,7.891,3.859,28.872c16.309,36.845,21.738,39.851,62.011,34.315c33.143-4.555,39.297-12.201,39.297-48.854
	c0-16.664-1.681-29.195-4.264-31.778C733.085,1112.697,695.512,1110.839,686.086,1113.994 M3264.707,1116.154
	c-2.81,2.921-4.441,15.207-4.441,33.434c0,23.809,1.222,30.133,7.031,36.369c11.185,12.006,64.715,17.758,76.241,8.19
	c7.5-6.225,27.479-49.469,26.122-56.532C3366.942,1123.502,3275.611,1104.831,3264.707,1116.154 M1317.788,1132.594
	c15.537,10.663,16.131,19.957,1.382,21.652c-13.772,1.585-34.397-14.354-34.397-26.58c0-8.122,1.037-8.836,9.771-6.701
	C1299.917,1122.276,1310.377,1127.51,1317.788,1132.594 M2718.775,1123.467c4.224,6.833-24.968,31.412-37.307,31.412
	c-16.053,0-17.399-6.971-3.614-18.707C2696.643,1120.183,2713.509,1114.943,2718.775,1123.467 M726.946,1151.415
	c0,28.783-0.963,29.636-38.234,33.85l-21.133,2.391l-9.398-18.863c-5.17-10.375-9.401-20.892-9.401-23.368
	c0-9.231,28.328-17.818,61.29-18.579l16.877-0.391V1151.415 M3340.212,1134.687c7.817,2.704,14.102,6.356,13.974,8.115
	c-0.128,1.755-3.948,11.615-8.492,21.904c-9.654,21.873-16.056,24.662-43.244,18.831c-26.047-5.586-27.973-7.991-27.973-34.944
	v-23.18l25.763,2.175C3314.41,1128.789,3332.399,1131.98,3340.212,1134.687 M1281.167,1189.653c7.174,5.809,7.5,7.611,3.844,21.187
	c-5.141,19.094-16.34,27.781-26.723,20.721c-8.406-5.713-8.598-16.181-0.646-35.211
	C1263.697,1181.854,1269.499,1180.202,1281.167,1189.653 M2739.482,1191.298c2.878,4.399,6.292,14.638,7.589,22.757
	c1.986,12.439,1.261,15.346-4.601,18.483c-9.867,5.28-19.837-2.676-25.731-20.54c-4.292-13.008-4.125-15.164,1.673-21.574
	C2726.798,1181.161,2733.019,1181.42,2739.482,1191.298 M1254.974,1272.797c14.155,10.169,15.214,11.885,10.336,16.763
	c-4.647,4.651-7.099,4.761-16.969,0.782c-6.342-2.562-13.53-4.775-15.974-4.921c-2.441-0.146-4.441-3.194-4.441-6.779
	c0-3.582-1.599-6.513-3.553-6.513s-3.553-1.482-3.553-3.294c0-2.892,6.154-5.671,15.409-6.953
	C1237.863,1261.655,1246.298,1266.569,1254.974,1272.797 M2779.951,1271.117c-3.19,16.579-47.273,30.325-44.793,13.967
	c1.268-8.371,22.175-20.061,35.882-20.061C2778.654,1265.023,2780.839,1266.516,2779.951,1271.117 M787.347,1325.322
	c-91.487,17.168-111.068,34.511-77.279,68.435c8.307,8.343,19.449,18.444,24.761,22.452l9.664,7.284l-8.691,21.141
	c-11.125,27.06-11.157,38.703-0.135,49.721c7.515,7.518,11.995,8.723,32.407,8.723c29.014,0,93.342-9.057,115.673-16.284
	c9.053-2.931,19.261-8.424,22.686-12.208c8.737-9.654,5.344-29.732-8.492-50.229c-12.67-18.774-13.978-28.986-4.569-35.662
	c10.261-7.284,14.781-18.728,14.724-37.275c-0.06-19.144-1.851-23.127-13.036-29.014
	C883.717,1316.432,826.452,1317.985,787.347,1325.322 M3108.32,1321.744c-9.853,4.274-15.047,17.037-15.047,36.969
	c0,12.546,2.075,17.073,12.436,27.113c14.543,14.095,15.349,19.958,4.409,32.013c-22.772,25.095-26.495,44.395-11.281,58.494
	c12.539,11.622,63.983,23.042,115.24,25.578c38.341,1.901,41.461,1.546,50.631-5.766c12.276-9.796,12.542-20.64,1.269-51.7
	l-8.502-23.425l19.055-14.077c21.84-16.134,26.374-22.97,26.374-39.769c0-10.208-2.004-13.121-13.324-19.364
	C3255.991,1329.28,3132.04,1311.458,3108.32,1321.744 M885.944,1334.77c6.609,1.773,7.994,4.619,7.994,16.411
	c0,11.7-2.235,16.372-12.436,25.994c-17.346,16.362-16.88,29.576,1.929,54.61c7.902,10.514,13.893,21.574,13.313,24.58
	c-0.579,3.01-6.019,8.367-12.088,11.91c-14.166,8.275-81.02,20.59-111.772,20.59c-35.104,0-37.851-6.36-20.345-47.078
	c7.227-16.809,7.323-16.877,24.456-16.877c31.626,0,88.847-7.898,87.394-12.063c-1.752-5.01-77.574-3.613-93.918,1.73
	c-10.656,3.485-12.258,2.931-20.746-7.16c-5.063-6.012-11.146-10.933-13.519-10.933c-2.373,0-9.785-5.646-16.475-12.542
	c-15.228-15.715-12.4-21.766,14.624-31.281C774.78,1338.426,861.425,1328.2,885.944,1334.77 M3188.061,1336.116
	c39.108,5.042,86.986,17.641,94.785,24.939c9.487,8.886,5.06,18.412-16.554,35.619c-21.848,17.396-23.045,23.159-11.988,57.851
	l7.738,24.289l-8.389,6.801c-10.055,8.158-14.333,8.271-55.566,1.506c-68.535-11.249-83.898-15.836-90.876-27.124
	c-3.389-5.482,5.479-23.475,16.771-34.027c6.172-5.767,8.375-11.672,8.375-22.445c0-12.109-2.139-16.639-12.436-26.349
	c-9.817-9.259-12.436-14.472-12.436-24.747c0-10.183,1.745-13.722,7.994-16.234
	C3126.337,1331.831,3154.594,1331.799,3188.061,1336.116 M3139.69,1406.928c-4.292,2.718-4.342,4.143-0.316,8.989
	c2.629,3.169,6.854,4.967,9.391,3.994s23.226,0.657,45.984,3.621c22.754,2.967,42.203,4.558,43.223,3.539s1.02-4.029,0-6.69
	c-1.236-3.219-16.511-6.85-45.742-10.872C3141.722,1402.555,3146.248,1402.778,3139.69,1406.928 M2018.761,1448.947
	c2.111,1.435,8.385,12.205,13.942,23.93c11.885,25.067,15.786,30.737,19.556,28.407c3.148-1.947-2.945-30.176-7.625-35.335
	c-1.684-1.858-3.063-4.654-3.063-6.218c0-5.624,7.085-2.644,19.378,8.151c13.026,11.434,23.258,36.877,23.258,57.815
	c0,18.245-13.374,40.764-28.922,48.694c-15.548,7.934-24.392,6.143-16.148-3.269c6.005-6.857,17.079-43.148,14.464-47.383
	c-4.732-7.653-11.199-1.215-14.905,14.841c-2.253,9.757-8.335,24.146-13.516,31.977c-8.556,12.926-10.826,14.241-24.608,14.241
	c-14.106,0-15.95-1.158-26.012-16.351c-5.955-8.993-11.885-23.383-13.175-31.977c-2.242-14.951-9.377-21.034-13.121-11.185
	c-2.164,5.692,6.964,41.51,12.18,47.796c7.543,9.089-0.327,8.996-15.996-0.185c-33.935-19.89-36.65-75.385-5.081-103.905
	c16.319-14.742,22.484-15.658,15.672-2.331c-2.746,5.372-6.111,14.966-7.479,21.318c-4.214,19.563,4.218,13.288,17.449-12.986
	c6.797-13.494,14.411-25.358,16.923-26.367C1988.969,1445.799,2014.459,1446.022,2018.761,1448.947 M1338.588,1533.989
	c10.066,7.234,16.696,13.686,14.731,14.34c-1.965,0.654-28.183-3.656-58.263-9.579c-30.084-5.926-59.492-11.078-65.355-11.448
	c-11.491-0.728,36.728-4.715,70.165-5.799C1318.268,1520.906,1322.098,1522.143,1338.588,1533.989 M2768.169,1524.232l17.765,2.768
	l-14.212,0.696c-7.817,0.384-39.41,5.838-70.205,12.12c-30.798,6.282-55.58,10.297-55.072,8.925
	c0.504-1.375,8.115-8.197,16.909-15.164l15.989-12.667l35.53,0.277C2734.415,1521.34,2758.398,1522.711,2768.169,1524.232
	 M2208.565,1574.138c-2.093,3.908-4.601,7.106-5.578,7.106s-0.068-3.198,2.025-7.106c2.093-3.908,4.601-7.106,5.578-7.106
	C2211.567,1567.032,2210.657,1570.23,2208.565,1574.138 M1813.928,1601.664l7.575,13.334l-10.673-12.436
	c-5.87-6.84-10.716-13.729-10.769-15.31C1799.876,1581.663,1806.453,1588.496,1813.928,1601.664 M2032.401,1608.006
	c4.512,6.083,6.175,6.388,12.802,2.338c6.41-3.919,8.964-3.777,16.081,0.888c4.655,3.048,10.229,8.843,12.386,12.876
	c5.646,10.552-0.608,16.252-18.6,16.959c-16.607,0.65-26.314,7.6-22.932,16.415c1.997,5.205,3.173,5.227,12.77,0.267
	c10.169-5.259,10.911-5.099,19.655,4.317c13.892,14.951,36.135,63.525,42.711,93.278c12.723,57.559,10.474,118.597-6.001,162.69
	c-7.014,18.771-32.553,52.269-39.854,52.269c-2.121,0-4.839-8.03-6.037-17.84c-2.935-24.054-17.133-62.104-23.169-62.104
	c-6.627,0-6.232,3.425,4.299,37.193l9.149,29.352l-22.203,28.996c-12.215,15.946-23.383,28.556-24.822,28.016
	c-4.296-1.606-42.338-56.131-42.356-60.707c-0.007-2.324,4.232-15.893,9.423-30.155c6.786-18.646,8.353-27.017,5.582-29.789
	c-7.611-7.611-20.668,23.13-30.954,72.894l-2.082,10.066l-13.843-15.395c-7.614-8.47-17.037-21.794-20.942-29.611
	c-31.423-62.921-20.128-193.659,22.075-255.428c5.191-7.6,9.44-15.374,9.44-17.278c0-3.4,11.76-2.221,27.536,2.757
	c5.951,1.88,7.994,1.109,7.994-3.02c0-8.446-14.251-16.603-29.003-16.603c-15.804,0-19.233-4.25-13.871-17.19
	c5.102-12.315,17.325-20.441,22.686-15.079c5.802,5.802,12.269,4.658,20.568-3.642c6.491-6.491,10.73-7.302,31.906-6.104
	C2021.934,1600.711,2028.34,1602.523,2032.401,1608.006 M2165.928,1641.646c-2.093,3.908-4.601,7.106-5.578,7.106
	s-0.068-3.198,2.025-7.106c2.093-3.908,4.601-7.106,5.578-7.106S2168.021,1637.738,2165.928,1641.646 M866.143,1645.469
	c-26.246,4.58-48.829,20.608-51.871,36.809c-2.715,14.475,6.061,35.904,22.405,54.696c18.245,20.984,48.954,19.041,81.937-5.184
	c32.773-24.072,45.593-43.336,39.496-59.371c-4.964-13.061-24.129-27.216-36.909-27.259c-6.2-0.021-16.87-0.704-23.709-1.517
	C890.652,1642.833,876.547,1643.653,866.143,1645.469 M3080.169,1645.661c-20.096,3.574-36.639,18.582-36.639,33.239
	c0,10.851,15.079,32.67,33.754,48.844c13.938,12.07,42.231,24.047,56.806,24.047c12.503,0,16.568-2.125,28.876-15.1
	c7.877-8.303,17.005-19.442,20.281-24.747c7.98-12.919,7.529-31.81-1.016-42.676
	C3166.671,1649.488,3119.718,1638.629,3080.169,1645.661 M3148.345,1664.62c5.863,2.494,14.475,8.677,19.144,13.736
	c7.874,8.542,8.136,10.037,3.653,20.864c-7.106,17.147-27.558,38.359-36.987,38.359c-4.42,0-13.704-2.366-20.629-5.262
	c-16.095-6.722-55.783-43.308-55.783-51.42C3057.742,1659.877,3113.6,1649.843,3148.345,1664.62 M938.029,1668.304
	c9.568,8.868,9.579,8.922,3.183,19.94c-12.688,21.858-52.098,49.334-70.762,49.334c-11.284,0-28.122-15.392-37.598-34.365
	l-8.108-16.23l12.393-10.357c16.07-13.427,27.451-16.504,62.502-16.895C925.671,1659.443,929.352,1660.264,938.029,1668.304
	 M2134.601,1688.606c-2.548,2.548-4.203,2.757-4.203,0.533c0-4.743,4.203-8.947,6.573-6.573
	C2137.98,1683.575,2136.914,1686.293,2134.601,1688.606 M1863.102,1894.072c1.482,7.699-22.441,34.415-37.758,42.164
	c-7.12,3.599-24.893,10.833-39.496,16.074c-14.607,5.241-31.395,11.739-37.307,14.443c-15.925,7.273-55.392,23.201-67.604,27.284
	c-19.485,6.513-98.618,20.412-166.993,29.327c-75.42,9.835-125.554,17.289-165.217,24.562
	c-111.157,20.388-284.243,75.065-284.243,89.793c0,6.992,3.56,6.335,38.273-7.074c81.599-31.53,178.977-56.12,304.595-76.923
	c9.771-1.617,41.748-6.257,71.061-10.307c83.848-11.59,130.716-18.362,140.345-20.277c4.885-0.97-3.127,5.131-17.804,13.562
	c-14.681,8.428-36.266,22.075-47.966,30.329c-11.704,8.25-27.675,19.478-35.491,24.949c-12.574,8.797-27.717,15.484-90.603,40.011
	c-33.548,13.086-91.583,36.529-115.044,46.47c-13.445,5.695-26.438,10.357-28.879,10.357c-2.437,0-6.424,2.398-8.858,5.329
	c-2.434,2.931-6.79,5.33-9.682,5.33c-10.659,0-183.23,78.678-246.073,112.188c-80.388,42.867-88.89,48.332-88.89,57.133
	c0,6.196-0.202,6.242,18.096-3.894c64.086-35.502,262.04-128.279,307.935-144.325c10.279-3.592,23.07-8.936,28.424-11.871
	c5.351-2.935,32.116-14.394,59.474-25.465c27.358-11.071,68.02-27.913,90.361-37.424c22.342-9.511,41.13-16.785,41.748-16.163
	c0.622,0.622-9.455,12.191-22.391,25.706c-38.114,39.808-43.802,50.052-49.732,89.515c-2.842,18.92-7.458,37.896-10.261,42.171
	c-6.3,9.615-18.312,19.4-83.479,67.977c-84.346,62.878-106.975,81.322-165.217,134.657
	c-70.865,64.896-124.659,121.677-165.483,174.678c-35.09,45.55-33.455,42.757-26.559,45.401c3.802,1.46,7.749-0.267,10.901-4.765
	c11.764-16.799,68.648-83.099,91.867-107.078c39.858-41.162,96.138-93.512,130.134-121.052
	c12.702-10.286,24.694-20.625,26.648-22.974c4.658-5.596,70.109-58.099,90.603-72.681c8.794-6.257,26.758-19.727,39.922-29.934
	c51.821-40.188,58.771-42.434,75.182-24.299c8.904,9.842,5.841,28.151-8.598,51.381c-6.037,9.71-11.835,21.951-12.887,27.206
	c-1.624,8.119,0.036,10.698,11.064,17.208c7.134,4.21,16.081,7.653,19.876,7.653c3.798,0,6.904,0.814,6.904,1.805
	c0,0.991-18.788,30.485-41.748,65.539c-22.96,35.054-46.001,70.617-51.196,79.027c-24.768,40.093-59.837,99.109-59.837,100.704
	c0,0.977-4.157,8.367-9.241,16.418c-11.892,18.842-86.808,168.486-98.828,197.407c-10.446,25.141-11.096,29.419-4.466,29.419
	c2.594,0,12.247-15.591,21.45-34.642c26.353-54.571,80.537-155.41,127.43-237.166c34.319-59.826,43.5-74.614,91.089-146.719
	c20.256-30.691,38.202-59.403,39.883-63.798c2.551-6.68,5.724-7.995,19.307-7.995c17.879,0,32.493-6.236,51.43-21.944
	c26.793-22.224,53.349-42.011,56.383-42.011c3.194,0,5.418,5.61,11.075,27.909c3.429,13.527,3.486,13.356-28.389,91.118
	c-61.713,150.564-113.879,338.221-138.675,498.854c-8.19,53.054-8.897,72.639-2.544,70.524c4.239-1.41,12.183-35.981,20.615-89.718
	c9.213-58.693,52.933-234.76,75.879-305.562c4.434-13.679,11.686-36.863,16.117-51.519c4.431-14.656,11.082-33.427,14.784-41.709
	c3.702-8.286,6.733-16.035,6.733-17.225s11.48-31.185,25.507-66.659c23.667-59.844,27.319-66.673,50.613-94.696
	c13.811-16.61,38.927-44.591,55.818-62.178c16.888-17.588,39.712-41.571,50.716-53.296c20.16-21.478,22.047-19.57,7.934,8.019
	c-7.781,15.207-32.709,91.779-40.771,125.22c-38.174,158.405-50.471,258.96-56.163,459.231c-1.826,64.196-1.389,84.385,1.826,84.385
	c2.324,0,4.917-1.997,5.763-4.441c0.846-2.441,4.001-48.41,7.014-102.15c11.16-199.063,18.547-263.17,43.383-376.623
	c12.34-56.362,20.757-87.089,37.474-136.792c32.972-98.036,34.404-100.644,143.095-261.046c9.366-13.821,14.791-13.509,13.594,0.785
	c-5.489,65.628-9.394,86.488-22.306,119.215c-23.134,58.629-59.702,170.93-70.816,217.475
	c-11.995,50.229-29.075,158.146-43.29,273.545c-6.57,53.313-20.298,97.954-45.895,149.228c-9.266,18.565-24.164,50.542-33.1,71.061
	c-8.939,20.519-21.549,46.687-28.023,58.153c-6.474,11.462-15.043,26.651-19.044,33.754c-35.058,62.21-98.416,103.511-158.8,103.511
	c-16.934,0-26.392-2.622-49.988-13.857c-85.625-40.768-154.49-48.691-216.615-24.917c-52.948,20.263-101.322,85.984-139.325,189.292
	c-22.199,60.345-34.93,73.324-71.938,73.324c-34.276,0-54.234-23.926-54.234-65.021c0-18.76,1.99-26.868,10.62-43.272
	c5.841-11.107,13.686-22.86,17.431-26.122c3.748-3.262,16.92-17.921,29.273-32.578c12.354-14.656,28.09-32.784,34.976-40.284
	c22.075-24.058,52.827-67.181,63.795-89.455c33.16-67.359,27.38-139.095-13.424-166.584c-5.187-3.496-13.43-12.134-18.316-19.19
	c-24.594-35.537-52.095-54.002-80.42-54.002c-13.771,0-35.203-15.037-42.075-29.522c-9.053-19.076-12.592-51.416-10.201-93.289
	c1.855-32.539,1.141-42.644-4.136-58.625c-7.092-21.478-21.883-40.732-43.095-56.099c-25.326-18.348-26.719-41.219-5.678-93.345
	c16.596-41.113,17.563-54.237,6.019-81.532c-16.458-38.902-12.254-66.112,16.138-104.548c17.349-23.482,29.234-36.209,51.526-55.168
	c9.771-8.314,30.659-26.84,46.417-41.173c34.994-31.828,45.912-39.766,95.705-69.562c70.158-41.986,126.705-67.728,216.736-98.671
	c99.933-34.344,174.415-49.263,346.422-69.395c58.817-6.882,119.777-19.552,159.887-33.228
	C1854.539,1886.675,1861.55,1886.014,1863.102,1894.072 M2175.809,1897.216c45.6,14.653,126.591,30.411,201.525,39.208
	c113.204,13.289,151.8,19.382,204.3,32.248c16.611,4.072,36.596,8.826,44.413,10.563c35.452,7.881,159.72,55.687,209.303,80.523
	c39.677,19.872,108.581,64.363,137.716,88.918c16.941,14.28,31.331,27.152,31.977,28.609c0.65,1.457,13.171,12.077,27.827,23.606
	c14.656,11.526,28.435,23.134,30.62,25.795s8.904,10.819,14.93,18.127c22.189,26.9,27.92,34.927,35.424,49.636
	c10.372,20.33,10.816,47.518,1.137,69.665c-11.103,25.408-12.574,40.735-5.685,59.201c31.572,84.605,31.004,101.972-4.161,127.448
	c-16.219,11.746-26.992,25.503-35.679,45.557c-4.669,10.773-5.916,26.193-6.125,75.708c-0.234,55.861-1.037,63.862-7.92,78.757
	c-9.6,20.771-19.155,27.056-51.189,33.686c-31.16,6.449-44.104,14.6-61.652,38.813c-7.451,10.279-21.51,25.621-31.242,34.092
	c-26.698,23.237-29.043,29.682-28.89,79.354c0.135,44.626,6.612,71.26,23.023,94.703c3.635,5.188,6.605,10.4,6.605,11.586
	c0,5.657,30.037,43.823,67.348,85.575c49.125,54.973,67.668,77.599,67.668,82.569c0,2.018,2.388,8.247,5.308,13.846
	c6.907,13.246,6.832,45.063-0.142,59.762c-10.343,21.798-24.171,31.512-47.23,33.182c-14.806,1.07-24.026-0.195-32.183-4.413
	c-12.805-6.619-30.723-32.443-34.298-49.426c-1.29-6.14-4.456-15.96-7.031-21.823c-2.576-5.863-9.824-22.651-16.11-37.307
	c-21.205-49.455-42.931-82.935-73.164-112.734c-38.853-38.298-83.4-54.06-139.556-49.377
	c-30.794,2.569-79.648,15.459-103.276,27.249c-26.801,13.374-64.292,24.718-81.699,24.718c-47.405,0-108.371-37.872-140.135-87.05
	c-23.073-35.719-33.985-53.985-33.985-56.881c0-1.627-2.633-5.87-5.852-9.426c-3.219-3.557-13.495-25.664-22.839-49.124
	c-9.345-23.461-23.375-54.251-31.182-68.428c-27.27-49.515-38.785-95.36-51.988-206.975
	c-10.744-90.805-23.212-166.165-35.502-214.526c-8.637-33.999-55.634-178.885-75.63-233.158
	c-8.904-24.175-18.682-82.74-18.625-111.583c0.021-10.467,15.935,9.703,58.59,74.276c45.845,69.398,60.665,94.966,75.157,129.686
	c10.357,24.8,35.616,97.371,40.199,115.474c26.722,105.604,36.511,153.562,44.228,216.736
	c9.195,75.271,15.925,161.212,20.029,255.819c2.16,49.832,4.629,92.781,5.489,95.445c1.254,3.887,2.612,3.969,6.879,0.426
	c4.434-3.677,4.999-12.741,3.418-54.582c-8.577-226.489-21.325-344.659-49.487-458.772c-13.395-54.283-40.22-139.325-49.771-157.798
	c-3.312-6.396-5.365-12.283-4.566-13.082c2.164-2.167,78.007,76.604,115.595,120.061c29.391,33.974,34.162,41.51,45.003,71.061
	c6.672,18.177,19.172,51.441,27.778,73.914c35.52,92.749,73.829,221.948,101.663,342.869
	c11.697,50.819,24.448,113.58,29.238,143.898c6.463,40.931,6.964,42.636,12.5,42.636c6.03,0,6.069,0.654-4.583-76.39
	c-21.418-154.895-88.556-387.3-159.894-553.458c-8.609-20.05-8.677-20.931-3.141-39.972c6.079-20.913,11.132-23.766,21.595-12.201
	c3.617,3.997,20.856,17.897,38.312,30.894c28.666,21.343,33.662,23.773,51.708,25.155l19.979,1.531l16.291,25.312
	c20.398,31.693,53.733,84.246,73.136,115.303c25.021,40.046,70.464,118.036,87.309,149.839
	c8.797,16.611,21.862,40.594,29.028,53.296c7.17,12.702,26.68,50.677,43.358,84.385c28.503,57.602,32.738,64.268,37.701,59.304
	c7.479-7.479-71.299-168.02-139.052-283.373c-44.364-75.523-39.155-67.195-94.834-151.665
	c-17.392-26.381-32.034-48.812-32.542-49.846c-0.504-1.034,6.314-4.015,15.154-6.623c8.84-2.611,17.431-7.177,19.094-10.144
	c4.239-7.575-0.476-24.246-13.32-47.085c-13.1-23.287-13.935-35.314-3.127-45.042c17.712-15.946,10.275-19.464,100.199,47.405
	c129.896,96.596,268.07,225.59,330.515,308.557c19.449,25.845,28.108,33.541,32.638,29.014
	c7.827-7.827-70.13-102.207-143.163-173.324c-83.738-81.535-129.981-119.855-273.652-226.738
	c-26.179-19.478-32.628-31.505-36.877-68.755c-3.816-33.434-11.267-47.604-42.473-80.747c-31.974-33.96-31.22-32.659-15.583-26.893
	c7.564,2.792,32.94,13.292,56.39,23.333s54.628,23.002,69.284,28.801c14.656,5.795,41.038,16.788,58.625,24.424
	s45.568,19.41,62.178,26.161c31.377,12.752,73.576,32.169,140.345,64.576c21.496,10.432,44.754,21.265,51.683,24.072
	c6.928,2.807,29.991,14.958,51.246,27c27.664,15.676,39.737,20.807,42.473,18.06c2.736-2.746,1.293-5.763-5.056-10.581
	c-24.079-18.273-95.751-56.611-179.429-95.975c-55.662-26.189-66.676-31.139-103.038-46.314
	c-19.542-8.158-42.726-17.996-51.519-21.865c-26.481-11.65-144.715-59.613-187.323-75.985
	c-28.258-10.858-53.097-24.019-85.273-45.177c-24.971-16.422-52.997-34.237-62.278-39.592c-19.805-11.423-21.244-14.418-5.33-11.082
	c18.664,3.912,75.968,12.613,119.254,18.106c166.361,21.116,312.995,56.156,401.387,95.918c14.561,6.548,22.086,6.683,22.086,0.394
	c0-4.711-45.045-27.124-54.51-27.124c-2.59,0-5.767-1.063-7.064-2.359c-6.907-6.903-101.486-34.845-167.597-49.511
	c-43.422-9.632-140.665-25.422-227.395-36.92c-85.497-11.334-136.337-21.148-158.555-30.609c-10.993-4.679-20.995-8.51-22.231-8.51
	c-3.276,0-66.783-24.569-74.415-28.787c-3.571-1.976-16.362-6.648-28.424-10.386c-27.156-8.417-55.69-32.66-55.69-47.312
	c0-5.194,1.332-9.448,2.96-9.448S2157.998,1891.489,2175.809,1897.216 M2140.364,1926.103c4.221,6.758,4.015,7.021-2.697,3.425
	c-3.997-2.139-7.27-5.433-7.27-7.316C2130.398,1916.396,2135.564,1918.414,2140.364,1926.103 M1865.696,1925.889
	c-1.208,1.954-4.9,3.439-8.204,3.304c-4.9-0.206-4.694-0.814,1.098-3.304C1868.098,1921.803,1868.222,1921.803,1865.696,1925.889
	 M1874.231,1954.843c2.146,6.154,3.901,13.011,3.901,15.235c0,2.224-9.991,14.457-22.207,27.188
	c-12.212,12.727-39.005,40.647-59.535,62.043c-20.533,21.396-40.519,43.07-44.413,48.161
	c-18.543,24.235-64.751,87.259-91.462,124.744c-48.588,68.183-88.119,113.196-127.306,144.964
	c-19.801,16.049-40.231,31.387-45.401,34.084c-10.851,5.66-49.078,6.566-62.459,1.482c-9.018-3.429-12.592-15.285-5.863-19.446
	c1.787-1.105,7.515-13.167,12.727-26.808c13.42-35.118,10.133-44.456-23.898-67.828c-1.659-1.141-1.133-6.737,1.169-12.436
	c2.299-5.699,6.197-23.329,8.659-39.176c5.607-36.092,12.233-46.779,59.215-95.534c48.595-50.425,117.876-98.21,192.919-133.054
	c13.679-6.353,27.302-12.777,30.276-14.276c14.003-7.067,127.906-51.544,142.047-55.463
	C1867,1941.96,1869.938,1942.528,1874.231,1954.843 M2192.576,1961.612c15.633,6.062,42.015,15.868,58.625,21.798
	c39.954,14.265,93.989,39.115,123.568,56.831c29.448,17.641,69.458,42.956,71.85,45.468c0.977,1.027,8.172,6.232,15.989,11.572
	c17.324,11.835,76.707,69.451,95.165,92.337c17.648,21.879,23.841,37.492,23.955,60.373c0.053,10.322,2.981,25.163,6.509,32.979
	l6.413,14.212l-17.168,16.17c-10.588,9.973-17.165,19.215-17.165,24.122c0,4.374,5.791,20.618,12.869,36.102
	c7.078,15.48,12.009,30.382,10.965,33.111c-3.738,9.732-44.47,12.642-66.47,4.747c-16.632-5.969-78.697-56.245-105.376-85.358
	c-11.792-12.873-31.26-37.427-43.254-54.571c-99.13-141.678-130.01-179.823-212.824-262.872
	c-34.582-34.681-36.17-36.93-32.706-46.275C2131.29,1941.423,2140.222,1941.324,2192.576,1961.612 M1916.252,1974.225
	c-1.18,1.18-4.246,1.307-6.808,0.281c-2.835-1.133-1.993-1.975,2.146-2.146C1915.336,1972.207,1917.432,1973.045,1916.252,1974.225
	 M1966.915,1994.286c14.347,22.651,28.264,38.195,34.205,38.195c4.552,0,8.62-4.814,29.792-35.257
	c6.84-9.835,14.436-17.915,16.877-17.961c6.435-0.114,5.543,3.134-4.441,16.227c-17.929,23.503-7.532,26.353,15.104,4.139
	c12.794-12.557,15.975-14.198,18.959-9.771c1.972,2.924,2.722,13.31,1.67,23.08c-1.055,9.771-1.933,26.001-1.947,36.067
	c-0.028,16.966-0.899,18.813-11.878,25.294c-12.329,7.273-48.805,15.029-70.681,15.029c-14.681,0-59.364-12.908-65.657-18.966
	c-2.466-2.373-5.315-20.149-6.708-41.812c-2.974-46.239,0.146-50.496,20.796-28.36c8.46,9.071,16.031,14.234,19.13,13.043
	c3.919-1.503,4.249-3.606,1.403-8.925c-2.05-3.83-5.315-7.944-7.259-9.145c-3.155-1.951-5.276-19.531-2.356-19.531
	C1954.572,1975.632,1960.417,1984.024,1966.915,1994.286 M1886.965,1997.839c-1.3,6.993-0.014,16.635,3.258,24.442
	c5.113,12.183,5.003,13.256-1.993,19.542c-8.151,7.319-85.65,115.485-98.952,138.11c-14.731,25.053-34.571,48.414-92.027,108.368
	c-30.901,32.244-64.697,68.908-75.108,81.475l-18.923,22.846l-6.165-17.517c-8.09-22.985-8.122-30.922-0.131-35.914
	c8.812-5.5,50.339-59.556,107.337-139.716c52.94-74.454,69.839-95.083,125.138-152.781c21.542-22.473,42.416-45.255,46.392-50.631
	C1885.416,1983.054,1889.59,1983.719,1886.965,1997.839 M2214.218,2092.954c28.335,31.86,94.731,119.467,111.697,147.38
	c12.514,20.586,61.254,83.5,74.152,95.708c12.603,11.935,13.15,15.808,5.429,38.462c-6.147,18.046-10.918,18.824-20.107,3.272
	c-3.18-5.383-31.906-36.909-63.838-70.062c-31.931-33.15-65.212-69.068-73.957-79.815c-8.748-10.748-17.907-21.652-20.359-24.235
	c-2.448-2.58-8.776-12.173-14.056-21.318c-13.516-23.407-70.478-104.992-77.197-110.567c-3.074-2.551-5.586-6.673-5.586-9.163
	c0-2.49-5.724-9.55-12.72-15.694l-12.723-11.171l5.223-15.324c2.871-8.431,4.377-19.741,3.347-25.134
	c-1.506-7.891,6.449-1.219,40.689,34.12C2177.621,2053.572,2204.624,2082.167,2214.218,2092.954 M1929.388,2085.35
	c2.818,4.562,35.829,14.766,55.186,17.058c20.664,2.448,63.091-4.409,79.716-12.887c14.717-7.504,15.207-6.694,14.852,24.623
	l-0.263,23.038l-14.212,7.095c-20.039,10.009-98.203,10.467-123.454,0.725c-9.273-3.578-18.067-8.648-19.542-11.267
	c-3.553-6.314-1.148-51.512,2.743-51.512C1926.087,2082.223,1928.326,2083.63,1929.388,2085.35 M1112.121,2154.226
	c-9.796,5.781-39.169,22.668-66.375,38.163c-12.031,6.854-24.175,16.557-26.985,21.567c-11.149,19.862,5.479,38.831,33.999,38.799
	c16.507-0.021,88.787-24.608,103.834-35.324c11.949-8.506,14.241-21.013,6.836-37.264c-4.015-8.812-5.941-9.906-24.797-14.077
	c-5.273-1.169-10.158-5.18-11.213-9.213C1125.263,2148.626,1122.435,2148.136,1112.121,2154.226 M1934.426,2156.557
	c32.947,16.806,99.791,16.72,132.905-0.171c7.707-3.933,15.001-6.161,16.212-4.953c1.208,1.211,2.253,20.029,2.32,41.819
	l0.121,39.616l-24.871,7.994c-18.366,5.905-33.701,8.037-58.625,8.154c-35.42,0.167-52.518-2.963-76.895-14.084l-14.717-6.712
	l1.599-31.249c1.698-33.157,3.702-47.241,6.726-47.241C1920.218,2149.731,1927.071,2152.801,1934.426,2156.557 M2873.183,2156.464
	c-1.979,3.702-8.73,8.52-14.994,10.702c-33.349,11.626-33.054,41.301,0.583,58.867c15.516,8.104,61.947,23.045,78.796,25.354
	c41.024,5.621,63.749-21.18,38.199-45.045c-6.004-5.61-23.99-16.564-39.972-24.349c-15.981-7.781-34.564-18.224-41.293-23.205
	C2879.852,2147.948,2877.859,2147.731,2873.183,2156.464 M1112.945,2173.714c-0.313,3.951,1.45,5.667,4.836,4.711
	c15.697-4.43,26.388-1.844,31.789,7.693c8.005,14.134,2.629,20.018-32.159,35.203c-47.44,20.711-88.457,21.99-88.457,2.761
	c0-7.305,4.296-10.368,56.849-40.515c14.656-8.407,26.872-15.463,27.142-15.68
	C1113.215,2167.674,1113.215,2170.296,1112.945,2173.714 M2903.16,2178.116c1.183,1.915,13.665,9.234,27.735,16.266
	c38.853,19.417,49.931,32.347,34.702,40.498c-12.119,6.484-34.578,3.969-66.669-7.472c-30.648-10.926-54.369-24.811-54.369-31.828
	c0-1.944,4.079-7.614,9.06-12.595c8.975-8.975,14.063-9.366,32.042-2.469c5.042,1.936,5.848,0.931,4.231-5.251
	c-1.712-6.541-1.052-7.138,4.559-4.132C2898.061,2173.06,2901.98,2176.205,2903.16,2178.116 M982.765,2221.254
	c-15.474,9.38-17.644,12.674-17.712,26.872c-0.075,15.843,10.606,22.501,35.381,22.054c23.962-0.43,36.362-3.628,38.458-9.917
	c1.272-3.816-3.329-4.253-23.429-2.235c-30.428,3.056-39.805,0.633-39.805-10.275c0-10.197,9.092-18.352,23.983-21.517
	c12.468-2.65,14.916-6.943,5.927-10.393C997.432,2212.719,996.455,2212.954,982.765,2221.254 M2991.986,2220.835
	c-1.222,1.975,2.281,4.498,7.785,5.603c19.819,3.979,29.906,18.359,19.9,28.364c-4.811,4.814-10.272,5.376-32.237,3.315
	c-21.375-2.004-26.14-1.56-24.854,2.306c3.358,10.087,53.146,13.544,65.945,4.58c8.836-6.189,10.599-21.752,3.457-30.578
	C3020.336,2220.032,2997.315,2212.208,2991.986,2220.835 M2091.314,2279.346v37.232l-13.537,6.907
	c-39.258,20.028-99.809,23.315-139.237,7.561c-10.741-4.292-21.535-9.469-23.983-11.498c-4.878-4.054-6.566-73.885-1.784-73.882
	c1.467,0,11.459,3.383,22.207,7.518c37.822,14.557,115.083,12.4,140.626-3.923c5.71-3.649,11.576-6.751,13.043-6.893
	S2091.314,2258.866,2091.314,2279.346 M1933.996,2344.26c18.998,9.042,23.834,9.771,64.939,9.771
	c41.024,0,46.005-0.746,65.273-9.771c11.473-5.376,21.464-9.771,22.207-9.771c2.651,0,1.276,25.72-2.714,50.833
	c-2.53,15.928-6.715,28.499-11.107,33.367c-8.335,9.245-46.332,18.838-74.603,18.838c-18.931,0-53.935-8.332-61.748-14.699
	c-2.235-1.823-6.065-2.86-8.506-2.302c-2.441,0.558-5.717-3.784-7.277-9.646c-2.867-10.769-9.682-76.39-7.938-76.39
	C1913.044,2334.49,1922.705,2338.885,1933.996,2344.26 M1033.396,2340.395c-2.441,0.988-4.47,5.259-4.502,9.49
	c-0.046,5.887-6.104,10.954-25.76,21.528c-28.318,15.243-65.046,40.416-74.984,51.398c-8.041,8.883-11.427,32.606-6.083,42.59
	c5.393,10.08,22.167,18.433,31.899,15.889c11.011-2.878,8.026-12.844-3.997-13.367c-9.188-0.401-20.142-10.105-20.387-18.056
	c-0.142-4.608,10.247-19.826,17.488-25.614c3.02-2.416,15.886-11.458,28.588-20.093c44.846-30.485,61.4-36.188,72.578-25.01
	c14.969,14.969,8.073,42.299-13.953,55.292c-6.84,4.036-12.436,9.579-12.436,12.318c0,2.736-3.311,4.978-7.362,4.978
	c-24.015,0-61.67,40.785-65.831,71.302c-2.054,15.093-1.418,16.895,9.117,25.76c6.228,5.241,15.598,9.515,20.824,9.494
	c15.324-0.057,45.291-16.028,62.661-33.402c14.912-14.912,16.12-17.477,16.12-34.251c0-15.488-1.585-19.716-10.876-29.007
	l-10.876-10.872l12.727-10.492c17.982-14.82,24.505-28.925,21.645-46.801c-2.768-17.307-17.381-34.109-29.668-34.109h-8.613
	l8.065-6.531C1050.539,2344.122,1046.009,2335.306,1033.396,2340.395 M2959.031,2349.988c1.269,6.623-0.831,9.703-9.988,14.631
	c-14.681,7.909-20.65,22.143-18.241,43.514c1.88,16.692,3.891,19.4,26.726,36.035l9.376,6.833l-11.43,10.677
	c-10.08,9.416-11.43,12.894-11.43,29.434c0,17.786,0.874,19.577,16.877,34.599c17.78,16.689,47.057,32.528,60.235,32.585
	c24.043,0.107,37.95-22.263,29.59-47.593c-7.938-24.054-42.079-55.41-60.334-55.41c-4.58,0-7.284-2.316-7.284-6.243
	c0-3.603-6.776-10.336-16.01-15.914c-9.277-5.607-18.405-14.692-21.706-21.613c-5.234-10.979-5.227-12.841,0.114-23.169
	c3.194-6.175,6.964-11.348,8.382-11.501c1.414-0.149,5.77-0.899,9.678-1.67c13.008-2.565,30.29,5.941,65.852,32.407
	c34.617,25.763,41.336,34.525,38.355,50.013c-1.091,5.667-5.479,7.941-27.817,14.418c-4.385,1.272-4.125,2.43,1.464,6.545
	c9.025,6.644,23.105,3.169,33.559-8.279c11.736-12.851,8.847-32.734-7.206-49.59c-12.698-13.331-60.334-46.097-81.752-56.23
	c-7.863-3.72-13.907-9.508-15.168-14.528C2968.017,2338.554,2956.857,2338.597,2959.031,2349.988 M1943.863,2443.045
	c21.126,10.283,88.847,9.615,112.809-1.115l16.877-7.557v9.931c0,5.461-1.467,14.564-3.258,20.231
	c-1.794,5.664-4.175,14.514-5.298,19.663c-5.336,24.548-70.332,34.61-108.694,16.831l-19.542-9.053l-6.246-24.559
	c-6.783-26.655-7.66-34.791-3.525-32.663C1928.453,2435.51,1936.046,2439.24,1943.863,2443.045 M1033.804,2469.764
	c6.683,5.255,9.327,10.595,9.238,18.653c-0.188,16.842-6.936,26.122-30.293,41.649c-32.912,21.883-54.582,17.879-50.176-9.27
	c3.23-19.904,23.308-44.903,41.741-51.97C1024.318,2461.159,1022.804,2461.109,1033.804,2469.764 M3010.174,2476.878
	c45.45,35.949,35.481,84.783-12.329,60.391c-20.846-10.635-39.588-33.374-39.588-48.03
	C2958.257,2464.748,2986.376,2458.053,3010.174,2476.878 M1957.365,2518.274c15.847,8.545,70.535,8.406,86.872-0.217
	c6.353-3.354,11.547-5.191,11.547-4.086c0,8.744-16.39,49.668-21.979,54.87c-18.998,17.701-71.168,10.254-75.797-10.816
	c-1.24-5.649-3.731-11.185-5.536-12.3c-1.805-1.112-3.279-6.033-3.279-10.933c0-4.896-1.656-11.999-3.677-15.779
	C1940.992,2510.564,1942.85,2510.447,1957.365,2518.274 M1040.253,2545.128c-4.399,5.294-1.478,10.979,7.302,14.219
	c7.927,2.924,14.98-8.652,8.947-14.685C1051.133,2539.294,1044.947,2539.468,1040.253,2545.128 M2941.686,2546.134
	c-1.176,3.063-0.498,7.209,1.51,9.217c5.902,5.902,16.745,1.784,17.975-6.825c0.924-6.495-0.569-7.959-8.108-7.959
	C2947.949,2540.566,2942.869,2543.053,2941.686,2546.134 M2013.489,2592.039l17.3-2.381l-7.54,18.149
	c-11.906,28.648-35.452,30.172-46.52,3.013c-9.078-22.281-8.47-24.115,6.62-19.947
	C1990.408,2592.824,2003.974,2593.346,2013.489,2592.039 M1101.792,2599.873c-18.191,9.774-39.68,29.089-55.118,49.536
	c-32.674,43.276-36.788,74.23-12.791,96.224c17.133,15.701,25.845,15.257,54.696-2.803c11.526-7.216,14.845-0.26,13.953,29.249
	c-0.629,20.792,0.355,24.9,7.884,32.915c18.053,19.215,49.433,7.294,77.435-29.419c21.002-27.532,12.784-54.738-18.042-59.737
	c-14.862-2.412-15.324-3.386-6.378-13.381c10.091-11.274,18.305-35.843,18.305-54.752c0-19.211-8.25-30.076-26.225-34.539
	c-5.628-1.396-10.972-5.365-11.874-8.819C1140.687,2593.073,1118.804,2590.731,1101.792,2599.873 M2863.117,2599.394
	c-4.345,3.042-7.898,7.945-7.898,10.897c0,3.617-2.157,4.683-6.605,3.272c-9.842-3.123-17.293,0.981-25.301,13.935
	c-10.425,16.87-9.043,33.328,5.077,60.419l12.255,23.507l-7.813,2.967c-4.295,1.635-10.84,3.56-14.542,4.285
	c-3.702,0.725-9.902,5.571-13.779,10.769c-11,14.749-5.987,31.789,16.269,55.324c27.54,29.121,47.628,36.454,65.525,23.919
	c10.318-7.227,17.058-31.839,11.849-43.269c-4.601-10.098-4.775-15.374-0.718-21.773c2.427-3.834,6.985-2.892,23.216,4.782
	c23.478,11.11,33.434,10.037,48.719-5.248c8.922-8.925,10.204-12.826,10.204-31.1c0-28.599-11.931-51.242-43.795-83.131
	C2901.895,2595.038,2881.298,2586.66,2863.117,2599.394 M2896.37,2613.762c18.558,10.876,47.554,42.093,62.37,67.149
	c11.732,19.84,12.134,36.255,1.29,52.805c-7.827,11.942-19.457,12.098-36.54,0.49c-16.412-11.153-22.267-11.149-32.759,0.021
	c-8.25,8.78-8.467,8.808-15.722,2.15c-4.043-3.717-12.862-10.052-19.591-14.081c-9.963-5.966-11.117-7.756-6.218-9.636
	c8.108-3.109,7.593-7.063-2.658-20.504c-13.182-17.282-18.529-40.963-12.201-54.042c3.944-8.158,7.038-10.226,13.864-9.274
	c4.836,0.675,9.323,2.676,9.973,4.441c0.654,1.77,4.324,3.216,8.158,3.216c6.083,0,6.662-1.635,4.562-12.826
	c-1.716-9.146-0.998-13.715,2.505-15.932C2879.887,2603.632,2878.434,2603.252,2896.37,2613.762 M1130.216,2622.286
	c-2.572,15.221-0.082,17.278,10.869,8.996c9.991-7.557,18.408-6.605,24.559,2.782c4.811,7.341,4.811,10.428,0.021,28.826
	c-2.953,11.334-8.63,24.75-12.613,29.821c-4.58,5.816-6.516,12.123-5.266,17.112c1.524,6.079-0.686,9.778-9.568,16.013
	c-6.356,4.459-13.509,10.567-15.9,13.569c-3.78,4.754-5.543,3.962-13.58-6.086c-5.081-6.353-10.446-11.548-11.924-11.548
	c-1.478,0-10.179,4.964-19.339,11.032c-11.26,7.454-19.236,10.382-24.63,9.028c-9.654-2.423-20.338-19.432-20.338-32.379
	c0-18.06,18.018-47.095,46.307-74.625c24.185-23.535,29.075-26.754,40.647-26.754h13.157L1130.216,2622.286 M1179.707,2734.459
	c9.92,9.924,6.601,22.05-11.295,41.265c-9.284,9.963-21.674,20.167-27.536,22.672c-9.519,4.068-11.515,3.759-18.653-2.899
	c-16.799-15.669-3.464-43.354,28.499-59.176C1168.728,2727.406,1172.416,2727.172,1179.707,2734.459 M2847.292,2734.377
	c15.584,6.513,39.904,31.388,39.904,40.821c0,9.551-7.223,24.026-13.114,26.286c-9.185,3.525-27.71-7.369-44.722-26.289
	c-17.815-19.815-20.412-29.305-10.897-39.819C2825.636,2727.449,2830.323,2727.289,2847.292,2734.377 M2674.07,2771.908
	c-16.085,3.379-28.481,17.84-28.481,33.224v11.906l-12.876-3.955c-11.981-3.674-13.469-3.265-21.318,5.863
	c-24.082,27.994,3.709,105.532,39.25,109.515c8.648,0.967,11.207,3.635,15.292,15.95c7.245,21.83,20.178,34.479,32.177,31.466
	c5.269-1.322,10.73-4.264,12.134-6.534c1.919-3.102,3.653-3.031,6.964,0.281c2.427,2.427,11.448,4.413,20.046,4.413
	c13.043,0,17.637-2.004,27.714-12.08c11.501-11.501,12.081-13.31,12.081-37.648c0-30.737-7.028-56.703-25.01-92.394
	C2727.142,2782.489,2704.964,2765.417,2674.07,2771.908 M1291.993,2776.058c-11.828,5.983-33.903,35.129-46.342,61.187
	c-37.716,78.995-31.043,136.792,15.797,136.792c8.14,0,16.422-1.624,18.405-3.606c2.445-2.444,7.309-1.766,15.054,2.1
	c10.531,5.255,12.148,5.248,20.309-0.103c4.878-3.194,12.62-14.294,17.208-24.665c6.801-15.377,10.3-19.247,18.977-20.98
	c13.509-2.704,29.92-19.048,39.972-39.812c9.217-19.033,10.279-51.444,2.103-63.926c-6.378-9.732-21.041-13.974-30.609-8.854
	c-6.165,3.301-7.031,2.633-7.031-5.418c0-11.938-8.9-28.961-17.57-33.598C1328.899,2770.16,1302.652,2770.661,1291.993,2776.058
	 M1333.724,2791.258c6.655,4.658,7.898,8.854,7.898,26.648c0,22.935,4.697,26.744,19.332,15.673
	c10.634-8.044,19.492-6.364,23.61,4.473c5.937,15.612-2.953,41.972-24.207,71.8c-0.608,0.853-7.792,2.452-15.968,3.553
	c-14.472,1.954-15.09,2.594-23.34,24.214c-8.797,23.052-16.358,28.034-25.617,16.877c-2.434-2.931-6.431-5.33-8.883-5.33
	c-2.452,0-6.449,2.398-8.883,5.33c-2.434,2.931-9.707,5.33-16.166,5.33c-33.004,0-34.802-50.528-4.043-113.697
	c18.284-37.545,39.712-60.402,56.632-60.402C1320.546,2785.726,1329.382,2788.217,1333.724,2791.258 M2707.71,2793.422
	c20.885,16.429,47.604,69.87,55.349,110.709c3.706,19.552-0.348,41.102-9.451,50.205c-7.284,7.284-22.327,6.971-30.734-0.636
	c-6.41-5.802-7.344-5.795-17.641,0.11c-9.987,5.734-11.38,5.777-17.165,0.544c-3.461-3.131-9.682-13.576-13.825-23.205
	c-6.797-15.801-8.655-17.513-18.984-17.513c-28.151,0-54.124-67.547-32.781-85.259c4.079-3.39,7.053-2.74,14.596,3.194
	c5.209,4.097,12.454,7.451,16.099,7.451c5.688,0,6.626-2.853,6.626-20.149c0-13.764,1.865-22.21,5.88-26.648
	C2673.928,2783.111,2695.378,2783.722,2707.71,2793.422 M1523.922,2810.551c-10.464,4.324-18.401,17.175-28.172,45.61
	c-11.189,32.557-11.096,55.154,0.27,66.516c4.797,4.797,10.169,8.723,11.938,8.723c1.769,0,3.041,15.935,2.825,35.417
	c-0.373,33.939,0.007,35.814,9.163,45.003c11.604,11.647,27.486,12.606,41.212,2.491c30.926-22.786,61.226-116.387,52.585-162.438
	c-3.187-16.98-14.418-24.573-29.817-20.156c-8.68,2.487-11.355,2.153-11.355-1.432
	C1572.57,2815.394,1542.106,2803.033,1523.922,2810.551 M2446.619,2810.139c-5.12,1.372-11.142,7.145-14.212,13.619
	c-4.96,10.453-6.317,11.103-19.552,9.334c-11.38-1.521-15.544-0.437-20.849,5.422c-9.917,10.961-6.698,67.181,5.941,103.706
	c23.166,66.947,53.363,93.129,81.699,70.837c11.103-8.733,15.488-35.104,10.449-62.828c-3.18-17.499-2.956-18.419,4.957-20.405
	c9.849-2.469,19.076-18.721,19.076-33.594c0-5.859-4.157-23.805-9.234-39.883C2491.135,2812.8,2477.367,2801.882,2446.619,2810.139
	 M1554.805,2828.362c4.399,4.399,7.106,11.842,7.106,19.542c0,14.12,3.94,15.602,14.212,5.33
	c40.235-40.235,28.087,86.172-13.235,137.68c-13.541,16.884-24.416,19.393-34.713,8.012c-5.589-6.172-6.108-11.096-4.033-38.195
	c1.307-17.108,2.746-34.29,3.198-38.181c0.647-5.589-1.791-7.451-11.618-8.883c-10.588-1.538-12.61-3.347-13.619-12.18
	c-2.047-17.961,15.438-70.944,25.578-77.513C1535.107,2819.164,1547.635,2821.192,1554.805,2828.362 M2477.846,2829.99
	c9.604,12.212,22.832,55.239,21.446,69.764c-1.037,10.862-2.38,12.223-13.075,13.246l-11.917,1.141l2.547,38.998
	c2.253,34.525,1.826,39.794-3.734,45.937c-12.386,13.69-28.097,7.088-43.51-18.281c-20.977-34.525-37.41-104.125-29.498-124.936
	c4.569-12.016,19.894-13.732,23.418-2.626c1.24,3.908,5.344,7.106,9.121,7.106c5.625,0,6.868-2.53,6.868-13.96
	c0-7.952,2.402-16.358,5.582-19.542C2453.657,2818.279,2469.859,2819.839,2477.846,2829.99 M1353.17,2957.053
	c-10.968,5.291-11.252,25.65-0.44,31.438c10.421,5.575,23.553-0.863,26.609-13.047c1.88-7.483,0.586-10.876-6.118-16.031
	C1363.456,2951.905,1363.768,2951.944,1353.17,2957.053 M2626.477,2958.123c-7.529,7.532-7.294,16.785,0.679,26.63
	c7.571,9.352,19.677,7.344,25.905-4.296c3.126-5.841,2.519-9.177-3.045-16.635
	C2641.468,2952.36,2634.042,2950.562,2626.477,2958.123 M1365.811,2970.75c-0.7,2.1-2.793,3.82-4.647,3.82
	c-1.855,0-3.947-1.72-4.647-3.82c-0.7-2.1,1.389-3.82,4.647-3.82C1364.422,2966.931,1366.511,2968.651,1365.811,2970.75
	 M2642.036,2972.26c0,2.931-1.599,5.33-3.553,5.33c-1.954,0-3.553-2.398-3.553-5.33c0-2.931,1.599-5.33,3.553-5.33
	C2640.437,2966.931,2642.036,2969.329,2642.036,2972.26 M1023,3153.388c-13.53,12.347-31.665,31.604-40.292,42.789
	c-14.162,18.355-15.665,22.164-15.42,39.087c0.334,22.981,10.155,38.472,28.161,44.417c32.102,10.595,57.556-15.349,63.756-64.989
	c2.15-17.211,1.681-20.366-3.027-20.366c-5.422,0-12.947,19.101-12.99,32.979c-0.046,14.134-10.012,29.849-22.771,35.904
	c-15.161,7.195-24.051,5.259-34.006-7.394c-10.535-13.395-9.405-32.535,2.924-49.409c10.744-14.702,53.74-57.723,62.711-62.743
	c6.658-3.727,6.85-8.396,0.444-10.855C1049.69,3131.735,1037.091,3140.525,1023,3153.388 M2947.598,3138.227
	c0,2.37,13.391,17.25,29.757,33.075c31.736,30.68,41.851,45.863,42.345,63.528c0.675,24.335-23.567,41.119-41.972,29.06
	c-11.551-7.568-19.403-23.542-21.89-44.516c-2.437-20.597-5.724-26.776-12.798-24.061c-4.619,1.773-4.658,4.69-0.313,23.5
	c9.383,40.622,17.84,53.924,38.635,60.789c13.86,4.573,27.554,0.199,41.738-13.331c8.375-7.991,9.767-12.144,9.757-29.085
	c-0.018-25.397-6.679-36.34-45.024-73.949C2959.795,3135.736,2947.598,3128.154,2947.598,3138.227"/>

    <text x="10" y="832" font-size="12" fill="gray" opacity="0.6" font-family="Arial, sans-serif">
      twoja-kolorowanka.pl
    </text>
  
</svg>
