<?xml version="1.0" encoding="utf-8"?>
<!-- Generator: Adobe Illustrator 27.5.0, SVG Export Plug-In . SVG Version: 6.00 Build 0)  -->
<svg xmlns="http://www.w3.org/2000/svg" xmlns:xlink="http://www.w3.org/1999/xlink" viewBox="0 0 500 500" width="595" height="842" preserveAspectRatio="xMidYMid meet" data-scaled="true">
<g id="BACKGROUND">
	<rect x="-0.003" y="-0.003" style="fill:#FFFFFF;" width="500.005" height="500.005"/>
</g>
<g id="OBJECTS">
	<g>
		<path style="fill:none;stroke:#1D1D1B;stroke-linecap:round;stroke-linejoin:round;stroke-miterlimit:10;" d="M1.618,408.611
			c11.684,5.386,25.34-0.091,38.176,0.788c4.456,0.305,8.838,1.389,13.3,1.584c5.656,0.247,11.369-0.97,16.434-3.5
			c4.05-2.023,7.678-4.861,11.859-6.596c9.446-3.92,20.208-1.721,30.368-2.892c6.612-0.762,13.417-2.956,19.757-0.929
			c2.822,0.902,5.328,2.591,8.097,3.643c9.854,3.746,20.695-1.075,30.12-5.796c7.055-3.534,15.053-2.179,22.883-1.2
			c9.122,1.14,18.048,4.394,27.23,3.945c5.274-0.258,10.402-1.734,15.603-2.645c6.336-1.111,12.819-1.383,19.226-0.808
			c5.715,0.513,11.485-0.891,17.112-2.01c10.901-2.168,21.755-6.416,32.775-4.965c4.122,0.543,8.11,1.876,12.235,2.394
			c5.52,0.694,5.598,0.692,11.106-0.09"/>
		<path style="fill:none;stroke:#1D1D1B;stroke-linecap:round;stroke-linejoin:round;stroke-miterlimit:10;" d="M420.803,323.63
			c20.566-0.989,58.368-0.778,78.951-0.206"/>
		<path style="fill:none;stroke:#1D1D1B;stroke-linecap:round;stroke-linejoin:round;stroke-miterlimit:10;" d="M403.943,323.693
			c-11.089,0.077-5.992-0.078-17.065,0.517"/>
		<path style="fill:none;stroke:#1D1D1B;stroke-linecap:round;stroke-linejoin:round;stroke-miterlimit:10;" d="M500.003,374.151
			c-10.022-0.945-20.316,1.234-29.096,6.159c1.604,2.419,4.942,2.736,7.814,3.157c2.872,0.421,6.257,1.783,6.587,4.667
			c0.129,1.124-0.275,2.255-0.892,3.203c-2.38,3.663-7.309,4.547-11.674,4.718c-4.365,0.171-9.113,0.087-12.583,2.74
			c2.922,2.934,6.089,6.958,4.479,10.773c-1.409,3.337-5.612,4.276-9.207,4.724c-16.3,2.031-43.596,3.817-60.021,3.991"/>
		<path style="fill:none;stroke:#1D1D1B;stroke-linecap:round;stroke-linejoin:round;stroke-miterlimit:10;" d="M350.252,417.604
			c-14.058,4.026-13.298,5.693-27.558,2.452c-12.342-2.805-22.583-8.316-35.24-8.365"/>
		<g>
			<path style="fill:none;stroke:#1D1D1B;stroke-linecap:round;stroke-linejoin:round;stroke-miterlimit:10;" d="M277.176,413.373
				c-17.719,2.106-35.672,4.27-52.252,10.867c-12.268,4.881-24.417,12.283-37.566,11.085c-5.155-0.47-10.096-2.265-15.205-3.098
				c-14.639-2.387-29.223,3.202-43.488,7.266c-23.492,6.692-48.115,9.395-72.5,7.958c-18.718-1.103-38.518-4.436-55.457,3.604"/>
			<path style="fill:none;stroke:#1D1D1B;stroke-linecap:round;stroke-linejoin:round;stroke-miterlimit:10;" d="M38.23,458.153
				c-9.016-1.396-18.429-0.125-26.752,3.611c-1.733,0.778-3.598,1.879-4.026,3.729c-0.445,1.925,0.962,3.891,2.739,4.755
				s3.83,0.89,5.805,0.898c4.165,0.018,8.331,0.036,12.496,0.054c7.673,0.033,15.349,0.066,23.017-0.208
				c2.954-0.106,6.743-0.986,7.089-3.922c0.21-1.787-1.095-3.379-2.439-4.575c-2.79-2.481-6.141-4.329-9.728-5.365
				C43.902,456.401,40.831,458.556,38.23,458.153z"/>
			<path style="fill:none;stroke:#1D1D1B;stroke-linecap:round;stroke-linejoin:round;stroke-miterlimit:10;" d="M51.339,484.629
				c3.294-0.226,8.065-0.822,9.316-4.348c-7.44-1.928-17.814-4.21-25.387-1.917c-5.207,1.577-9.231,4.675-1.742,6.104
				C39.315,485.574,45.507,485.03,51.339,484.629z"/>
			<path style="fill:none;stroke:#1D1D1B;stroke-linecap:round;stroke-linejoin:round;stroke-miterlimit:10;" d="M156.43,446.212
				c-3.761,0.56-7.788,1.472-10.274,4.35c-0.622,0.72-1.115,1.835-0.507,2.567c0.33,0.397,0.875,0.526,1.381,0.631
				c16.803,3.497,34.174,7,50.987,3.548c1.822-0.374,3.997-1.227,4.186-3.078c0.54-5.303-14.238-8.311-18.286-8.816
				C174.918,444.29,165.366,444.881,156.43,446.212z"/>
			<path style="fill:none;stroke:#1D1D1B;stroke-linecap:round;stroke-linejoin:round;stroke-miterlimit:10;" d="M172.062,470.993
				c0.942,0.845,2.011,1.539,3.111,2.167c6.293,3.59,13.639,5.024,20.883,5.141c7.244,0.117,14.446-1.025,21.578-2.301
				c0.934-0.167,1.972-0.403,2.489-1.199c0.526-0.81,0.337-1.969,0.962-2.705c0.399-0.47,1.115-0.762,1.166-1.377
				c0.054-0.661-0.705-1.056-1.337-1.256C205.306,464.526,187.655,466.542,172.062,470.993z"/>
			<path style="fill:none;stroke:#1D1D1B;stroke-linecap:round;stroke-linejoin:round;stroke-miterlimit:10;" d="M148.136,484.525
				c-1.557,0.317-3.52,1.292-3.162,2.841c0.132,0.572,0.578,1.015,1.04,1.376c3.882,3.033,9.366,2.23,14.293,2.288
				c4.96,0.058,9.848,1.145,14.789,1.584c4.941,0.439,10.155,0.17,14.479-2.263c-0.089,0.05-8.498-4.118-9.605-4.431
				c-2.752-0.778-5.687-1.612-8.487-2.223C163.971,482.056,155.598,483.004,148.136,484.525z"/>
			<path style="fill:none;stroke:#1D1D1B;stroke-linecap:round;stroke-linejoin:round;stroke-miterlimit:10;" d="M220.999,487.831
				c-1.355,0.278-2.977,0.859-3.181,2.227c-0.264,1.775,2.017,2.706,3.791,2.971c6.393,0.954,12.831,1.6,19.286,1.935
				c2.046,0.106,4.113,0.18,6.13-0.179c3.423-0.609,6.495-2.422,9.482-4.202C246.193,483.539,232.494,485.47,220.999,487.831z"/>
			<path style="fill:none;stroke:#1D1D1B;stroke-linecap:round;stroke-linejoin:round;stroke-miterlimit:10;" d="M244.178,428.513
				c-0.598,0.096-1.287,0.273-1.529,0.829c-0.145,0.332-0.085,0.717,0.027,1.061c0.831,2.569,3.942,3.511,6.623,3.829
				c4.798,0.57,9.687,0.369,14.422-0.592c1.55-0.315-4.973-4.767-5.956-5.058C253.641,427.366,248.344,427.847,244.178,428.513z"/>
			<path style="fill:none;stroke:#1D1D1B;stroke-linecap:round;stroke-linejoin:round;stroke-miterlimit:10;" d="M244.316,442.002
				c-0.253,0.195-0.498,0.419-0.626,0.712c-0.323,0.738,0.218,1.58,0.865,2.06c1.321,0.981,3.055,1.152,4.695,1.289
				c4.706,0.393,9.915,1.504,14.626,1.18c5.324-0.366,3.528-4.263,0.09-6.342C259.557,438.238,248.228,438.985,244.316,442.002z"/>
			<path style="fill:none;stroke:#1D1D1B;stroke-linecap:round;stroke-linejoin:round;stroke-miterlimit:10;" d="M218.662,432.798
				c-0.122,0.128-0.237,0.272-0.282,0.443c-0.114,0.431,0.254,0.846,0.649,1.054c0.806,0.424,1.77,0.37,2.679,0.306
				c2.609-0.186,5.554-0.021,8.104-0.6c2.882-0.654,1.568-2.633-0.491-3.478C226.683,429.44,220.547,430.813,218.662,432.798z"/>
		</g>
		<path style="fill:none;stroke:#1D1D1B;stroke-linecap:round;stroke-linejoin:round;stroke-miterlimit:10;" d="M80.129,271.558
			c21.056-0.365,41.286-0.116,62.327,0.745"/>
		<path style="fill:none;stroke:#1D1D1B;stroke-linecap:round;stroke-linejoin:round;stroke-miterlimit:10;" d="M140.798,275.988
			c-3.14,0.637-8.504,1.43-11.69,1.085c-2.114-0.229-4.213-0.674-6.339-0.664c-8.051,0.039-15.216,6.527-23.234,5.797
			c-3.117-0.284-6.017-1.649-9.024-2.515c-3.007-0.866-6.448-1.175-9.091,0.5"/>
		<path style="fill:none;stroke:#1D1D1B;stroke-linecap:round;stroke-linejoin:round;stroke-miterlimit:10;" d="M135.381,290.728
			c-3.215-3.271-8.692-2.49-13.037-1.024c-4.346,1.466-8.328,4.01-12.822,4.923c-9.039,1.836-18.878-3.155-27.409,0.354"/>
		<path style="fill:none;stroke:#1D1D1B;stroke-linecap:round;stroke-linejoin:round;stroke-miterlimit:10;" d="M127.461,323.994
			c-6.13-2.699-13.429-2.596-19.48,0.275c-3.733,1.771-7.166,4.579-11.286,4.882c-2.093,0.153-4.167-0.367-6.239-0.7
			c-3.867-0.62-7.806-0.588-11.722-0.553c-4.361,0.038-8.802,0.089-12.953,1.428c-3.552,1.146-6.802,3.212-10.467,3.918
			c-4.542,0.875-9.188-0.426-13.806-0.699c-5.753-0.341-11.595,0.96-16.66,3.71c-2.037,1.106-3.982,2.454-6.211,3.089
			c-1.651,0.47-3.387,0.528-5.103,0.582c-4.034,0.128-8.067,0.256-12.101,0.383"/>
		<path style="fill:none;stroke:#1D1D1B;stroke-linecap:round;stroke-linejoin:round;stroke-miterlimit:10;" d="M125.308,308.518
			c-6.576-0.964-13.402-0.173-19.584,2.268c-4.187,1.653-8.375,4.099-12.849,3.605c-2.359-0.261-4.551-1.332-6.876-1.811
			c-9.096-1.874-17.721,5.455-27.009,5.503c-4.014,0.021-7.98-1.333-11.978-0.979c-4.315,0.382-8.175,2.695-12.162,4.386
			c-10.461,4.438-22.153,4.677-33.515,4.849"/>
		<path style="fill:none;stroke:#1D1D1B;stroke-linecap:round;stroke-linejoin:round;stroke-miterlimit:10;" d="M130.871,341.396
			c-4.392-0.751-8.927-1.175-13.281-0.231c-7.641,1.656-13.954,7.332-21.61,8.919c-2.174,0.451-4.564,0.525-6.485-0.589
			c-1.032-0.598-1.856-1.499-2.852-2.155c-2.403-1.584-5.501-1.578-8.362-1.26c-5.709,0.635-11.302,2.299-16.429,4.89
			c-3.531,1.784-6.861,4.011-10.592,5.328c-7.992,2.822-16.763,1.175-25.167,0.082c-8.404-1.093-18.657-1.396-25.56,3.52"/>
		<path style="fill:none;stroke:#1D1D1B;stroke-linecap:round;stroke-linejoin:round;stroke-miterlimit:10;" d="M95.115,365.866
			c5.367,1.182,10.969,2.364,16.298,1.021c3.258-0.821,6.272-2.562,9.602-3.003c4.732-0.627,9.691,1.427,14.232-0.044"/>
		<path style="fill:none;stroke:#1D1D1B;stroke-linecap:round;stroke-linejoin:round;stroke-miterlimit:10;" d="M348.827,406.132
			c-18.255,4.824-20.533,3.904-39.138,0.684c-13.514-2.339-27.199-6.8-40.653-4.134c-9.554,1.893-18.364,7.313-28.097,7.655
			c-6.245,0.22-12.343-1.682-18.511-2.685c-8.046-1.307-16.34-1.075-24.301,0.682c-4.453,0.982-8.86,2.444-13.42,2.493
			c-4.631,0.05-9.14-1.36-13.728-1.985c-26.71-3.638-50.665,19.124-77.619,19.531c-7.085,0.107-14.088-1.354-21.133-2.126
			c-12.454-1.366-58.513,3.047-70.696,5.967"/>
		<path style="fill:none;stroke:#1D1D1B;stroke-linecap:round;stroke-linejoin:round;stroke-miterlimit:10;" d="M499.773,335.159
			c-10.466-1.892-21.447-5.63-32.086-3.249c-3.851,0.862-7.539,2.351-11.385,3.238c-6.437,1.484-12.31-1.295-18.58,1.202
			c-6.159,2.453-12.865,3.146-18.549-0.921"/>
		<path style="fill:none;stroke:#1D1D1B;stroke-linecap:round;stroke-linejoin:round;stroke-miterlimit:10;" d="M404.494,332.973
			c-4.556-1.738-9.767-1.688-14.288,0.137c-2.344,0.946-3.571,2.364-6.09,2.579"/>
		<path style="fill:none;stroke:#1D1D1B;stroke-linecap:round;stroke-linejoin:round;stroke-miterlimit:10;" d="M499.758,353.884
			c-7.928-2.52-16.335-5.065-24.431-3.155c-4.904,1.157-9.575,3.928-14.596,3.513c-1.465-0.121-2.891-0.514-4.327-0.828
			c-7.468-1.631-15.216-1.122-22.842-0.604c-7.423,0.504-15.021,1.784-22.191-0.199"/>
		<path style="fill:none;stroke:#1D1D1B;stroke-linecap:round;stroke-linejoin:round;stroke-miterlimit:10;" d="M499.615,368.221
			c-11.841-2.335-24.261-4.647-35.802-1.116c-5.778,1.768-11.217,4.976-17.247,5.351c-2.139,0.133-4.282-0.099-6.424-0.176
			c-6.108-0.218-12.259,0.85-17.936,3.114c-4.608,1.838-9.553,0.3-14.291-1.172c-1.814-0.563-3.589-1.325-5.478-1.519"/>
		<path style="fill:none;stroke:#1D1D1B;stroke-linecap:round;stroke-linejoin:round;stroke-miterlimit:10;" d="M470.223,380.607
			c-5.777-0.001-11.553,1.163-16.878,3.404c-3.938,1.657-8.17,3.946-12.235,2.632c-1.229-0.398-2.346-1.111-3.598-1.429
			c-2.673-0.679-5.412,0.524-8.007,1.459c-4.779,1.722-14.792,1.244-19.871,1.21"/>
		<path style="fill:none;stroke:#1D1D1B;stroke-linecap:round;stroke-linejoin:round;stroke-miterlimit:10;" d="M460.308,398.246
			c-3.823-0.085-7.544,1.928-11.332,1.402c-1.88-0.261-3.621-1.134-5.477-1.535c-3.249-0.701-6.651,0.09-9.726,1.351
			c-2.105,0.863-4.136,1.951-6.347,2.487c-1.162,0.281-2.355,0.406-3.544,0.529c-4.258,0.443-23.699,0.885-27.958,1.328"/>
	</g>
	<g>
		<path style="fill:none;stroke:#1D1D1B;stroke-linecap:round;stroke-linejoin:round;stroke-miterlimit:10;" d="M238.092,290.031
			c2.675,9.543,7.518,18.482,14.104,25.891c2.9,3.263,6.182,6.272,10.08,8.239c3.98,2.008,8.451,2.853,12.894,3.227
			c14.863,1.25,30.483-2.905,41.54-12.915c8.886-8.045,14.282-19.139,21.394-28.788c5.108-6.93,12.185-13.194,20.363-16.173
			c8.655-3.153,17.785-1.662,25.063,3.906c11.541,8.831,16.474,23.891,19.604,37.477c2.817,12.228,3.904,26.329-2.739,37.57
			c-3.441,5.822-8.195,10.795-13.158,15.337c-0.629,0.576-6.348,6.309-6.568,6.269c6.556,1.184,13.856-1.82,19.165-5.463
			c10.523-7.22,17.279-19.137,19.88-31.632c2.601-12.495,1.339-25.542-1.779-37.918c-9.118-36.181-40.921-75.685-82.353-67.999
			c-17.671,3.278-34.18,12.859-47.921,24.169"/>
		<path style="fill:none;stroke:#1D1D1B;stroke-linecap:round;stroke-linejoin:round;stroke-miterlimit:10;" d="M400.849,347.665
			c-11.033,6.639-24.889,10.162-37.578,7.974c-18.658-3.217-34.321-15.854-52.412-21.439c1.194,4.512,0.116,9.263-0.457,13.894
			c-1.448,11.695,0.651,24.25,7.946,33.505c7.295,9.255,20.391,14.315,31.443,10.226c-1.792,4.481-1.392,9.498-0.963,14.305
			c0.785,8.799,1.723,18.038,6.743,25.306c7.181,10.397,20.621,14.009,32.927,16.877c-3.146-7.966-3.536-16.815-2.386-25.303
			c1.151-8.488,3.78-16.698,6.528-24.81c4.409-13.016,9.994-27.594,15.278-40.279"/>
		<g>
			<path style="fill:none;stroke:#1D1D1B;stroke-linecap:round;stroke-linejoin:round;stroke-miterlimit:10;" d="M261.168,124.963
				c-0.424,11.088,4.042,22.313,1.413,33.094c-2.328,9.546-10.412,17.317-19.929,19.762c-9.517,2.445-20.092-0.308-27.561-6.693
				c-7.469-6.385-11.794-16.142-12.049-25.964c-0.142-5.446,0.888-10.846,1.913-16.196"/>
			<path style="fill:none;stroke:#1D1D1B;stroke-linecap:round;stroke-linejoin:round;stroke-miterlimit:10;" d="M203.428,138.092
				c-0.117-2.586-2.704-6.931-5.282-7.166c-2.578-0.234-5.126,1.168-6.72,3.208c-1.594,2.04-2.335,4.634-2.598,7.21
				c-0.471,4.625,0.62,9.567,3.734,13.019c3.114,3.452,8.444,5.031,12.657,3.065"/>
			<path style="fill:none;stroke:#1D1D1B;stroke-linecap:round;stroke-linejoin:round;stroke-miterlimit:10;" d="M203.084,146.133
				c-0.622-2.389-1.802-6.198-2.977-8.368c-1.175-2.171-2.927-4.114-5.205-5.064"/>
			<path style="fill:none;stroke:#1D1D1B;stroke-linecap:round;stroke-linejoin:round;stroke-miterlimit:10;" d="M236.223,133.896
				c0.326,1.224,0.652,2.447,0.978,3.671c0.72,2.702,1.695,5.724,4.216,6.934c0.742,0.356,1.574,0.524,2.262,0.975
				c0.882,0.578,1.442,1.617,1.44,2.672c-0.002,1.055-0.565,2.092-1.449,2.667"/>
			<g>
				<path style="fill:none;stroke:#1D1D1B;stroke-linecap:round;stroke-linejoin:round;stroke-miterlimit:10;" d="M242.336,135.179
					c2.947-2.335,6.519-3.767,10.248-4.109c2.171-0.199,4.588,0.048,6.305,1.663"/>
				<path style="fill:#1D1D1B;" d="M252.669,135.41c-0.017,2.122-1.033,3.834-2.269,3.824c-1.236-0.01-2.223-1.739-2.206-3.861
					c0.017-2.122,1.033-3.834,2.269-3.824C251.699,131.559,252.686,133.288,252.669,135.41z"/>
				<path style="fill:none;stroke:#1D1D1B;stroke-linecap:round;stroke-linejoin:round;stroke-miterlimit:10;" d="M251.45,131.21
					c2.243-0.154,4.749-1.965,5.619-4.038"/>
				<path style="fill:none;stroke:#1D1D1B;stroke-linecap:round;stroke-linejoin:round;stroke-miterlimit:10;" d="M255.014,131.075
					c1.854-0.377,3.94-1.266,5.019-2.821"/>
				<path style="fill:none;stroke:#1D1D1B;stroke-linecap:round;stroke-linejoin:round;stroke-miterlimit:10;" d="M257.823,131.905
					c1.434-0.008,2.858-0.564,3.918-1.529"/>
			</g>
			<g>
				<path style="fill:none;stroke:#1D1D1B;stroke-linecap:round;stroke-linejoin:round;stroke-miterlimit:10;" d="M229.112,137.154
					c-2.947-2.335-6.519-3.767-10.248-4.109c-2.171-0.199-4.587,0.048-6.305,1.663"/>
				<path style="fill:#1D1D1B;" d="M218.78,137.386c0.018,2.122,1.033,3.834,2.269,3.824c1.236-0.01,2.223-1.739,2.206-3.861
					c-0.018-2.122-1.033-3.834-2.269-3.824C219.75,133.535,218.762,135.263,218.78,137.386z"/>
				<path style="fill:none;stroke:#1D1D1B;stroke-linecap:round;stroke-linejoin:round;stroke-miterlimit:10;" d="M219.998,133.186
					c-2.243-0.154-4.749-1.965-5.619-4.038"/>
				<path style="fill:none;stroke:#1D1D1B;stroke-linecap:round;stroke-linejoin:round;stroke-miterlimit:10;" d="M216.435,133.05
					c-1.854-0.377-3.94-1.266-5.018-2.82"/>
				<path style="fill:none;stroke:#1D1D1B;stroke-linecap:round;stroke-linejoin:round;stroke-miterlimit:10;" d="M213.625,133.88
					c-1.434-0.008-2.858-0.564-3.918-1.529"/>
			</g>
			<path style="fill:none;stroke:#1D1D1B;stroke-linecap:round;stroke-linejoin:round;stroke-miterlimit:10;" d="M219.368,157.019
				c5.282,2.773,11.382,3.692,17.346,3.539c5.964-0.153,11.849-1.328,17.691-2.54"/>
			<path style="fill:none;stroke:#1D1D1B;stroke-linecap:round;stroke-linejoin:round;stroke-miterlimit:10;" d="M233.926,165.726
				c1.099,1.025,2.672,1.414,4.174,1.372c1.502-0.042,2.963-0.471,4.404-0.897"/>
			<path style="fill:none;stroke:#1D1D1B;stroke-linecap:round;stroke-linejoin:round;stroke-miterlimit:10;" d="M221.268,155.122
				c-1.032,1.15-2.272,2.114-3.642,2.829"/>
			<path style="fill:none;stroke:#1D1D1B;stroke-linecap:round;stroke-linejoin:round;stroke-miterlimit:10;" d="M201.484,142.221
				c-2.278,0.944-3.73,3.559-3.329,5.992c0.126,0.765,0.501,1.588,1.237,1.832"/>
			<path style="fill:none;stroke:#1D1D1B;stroke-linecap:round;stroke-linejoin:round;stroke-miterlimit:10;" d="M247.414,106.289
				c-3.575,9.551-11.798,17.236-21.569,20.157c1.025-1.2,1.877-2.548,2.519-3.99c-3.538,1.877-7.077,3.755-10.689,5.484
				c-4.082,1.955-8.521,3.759-13.004,3.139"/>
			<path style="fill:none;stroke:#1D1D1B;stroke-linecap:round;stroke-linejoin:round;stroke-miterlimit:10;" d="M266.469,180.826
				c0.88-5.952,5.385-8.952,8.089-14.327c5.267-10.47,8.734-22.109,8.056-33.81c-0.678-11.7-5.898-23.444-15.348-30.377
				c-2.505-1.838-5.324-3.341-8.383-3.886c-3.059-0.545-5.988,0.1-8.494,1.938c-4.44-5.617-11.235-9.105-18.289-10.334
				c-7.054-1.229-14.355-0.333-21.226,1.681c-6.024,1.765-11.862,4.426-16.688,8.441c-7.493,6.234-12.145,15.507-13.686,25.132
				c-0.75,4.684-0.815,9.499-2.143,14.053c-2.274,7.8-8.397,14.377-16.015,17.202c2.799,1.497,6.283,1.643,9.198,0.387
				c-8.941,8.178-13.696,20.711-12.431,32.761c1.746-2.063,3.695-3.955,5.809-5.639c-0.24,6.122-5.538,9.637-9.438,14.361
				c-0.371,0.449,4.551,1.892,4.908,1.965c2.852,0.577,5.699,1.383,8.631,1.388c3.047,0.005,5.959-1.333,9.018-1.006
				c-1.135,2.492-3.018,4.637-5.341,6.086c1.521,0.909,2.433,1.136,4.124,0.607"/>
			<path style="fill:none;stroke:#1D1D1B;stroke-linecap:round;stroke-linejoin:round;stroke-miterlimit:10;" d="M247.283,106.899
				c0.333,5.604,2.813,11.055,6.82,14.987c-0.238-0.897-0.477-1.794-0.715-2.692c1.145,2.278,3.231,4.064,5.658,4.845
				c2.427,0.781,5.164,0.545,7.422-0.638"/>
			<path style="fill:#FFFFFF;stroke:#1D1D1B;stroke-miterlimit:10;" d="M203.462,158.797c0-2.03-1.645-3.675-3.675-3.675
				c-2.03,0-3.675,1.645-3.675,3.675c0,2.03,1.645,3.675,3.675,3.675C201.816,162.472,203.462,160.827,203.462,158.797z"/>
			<path style="fill:none;stroke:#1D1D1B;stroke-linecap:round;stroke-linejoin:round;stroke-miterlimit:10;" d="M222.169,175.667
				c0.101,3.887,0.059,7.778-0.125,11.662"/>
			<path style="fill:none;stroke:#1D1D1B;stroke-linecap:round;stroke-linejoin:round;stroke-miterlimit:10;" d="M247.944,175.891
				c0.039,2.591,0.521,4.871,0.637,7.46"/>
			<path style="fill:none;stroke:#1D1D1B;stroke-linecap:round;stroke-linejoin:round;stroke-miterlimit:10;" d="M264.338,99.853
				c5.049-2.285,9.474-5.93,12.684-10.448c-6.963-1.03-14.13-0.662-20.951,1.076c5.13-3.972,9.388-9.065,12.387-14.819
				c-8.694,0.966-17.122,4.224-24.204,9.358c6.273-7.631,10.686-16.78,12.752-26.439c-10.084,5.158-18.665,13.215-24.445,22.956
				c1.291-9.188,1.831-18.481,1.613-27.757c-7.785,7.707-13.698,17.291-17.095,27.706c-1.262-10.723-5.351-21.1-11.744-29.801
				c-4.597,11.322-5.95,23.94-3.857,35.979c-4.877-6.305-11.315-11.392-18.576-14.68c2.062,7.463,4.836,14.235,9.307,20.556
				c-4.94-3.928-11.66-4.529-17.956-4.973c3.844,6.432,8.411,12.431,13.589,17.847"/>
			<g>
				<g>
					<path style="fill:none;stroke:#1D1D1B;stroke-linecap:round;stroke-linejoin:round;stroke-miterlimit:10;" d="M247.209,211.77
						c-0.483,1.216-0.352,2.596-0.021,3.88c0.83,3.219,2.876,6.127,5.523,8.307c2.646,2.181,5.869,3.659,9.217,4.527
						c2.111,0.548,4.3,0.863,6.46,0.707c3.336-0.241,6.533-1.641,8.864-3.883c1.287-1.237,2.307-2.709,3.173-4.25
						c2.374-4.229,3.62-9.054,3.592-13.912c-0.006-1.032-0.076-2.097-0.54-3.041c-0.465-0.944-1.408-1.749-2.487-1.796
						c-1.47-0.064-2.555,1.198-3.314,2.382c-1.351,2.109-2.456,4.367-3.287,6.72c0.641-2.913,0.688-5.96,0.139-8.923
						c-0.222-1.195-0.553-2.406-1.275-3.416c-0.722-1.011-1.901-1.797-3.164-1.802c-1.163-0.004-2.229,0.655-2.918,1.532
						c-0.689,0.878-1.051,1.954-1.317,3.03c-0.554,2.242-0.737,4.576-0.542,6.892c-0.875-2.75-2.463-5.308-4.58-7.374
						c-1.264-1.234-3.067-2.362-4.731-1.803c-1.828,0.614-2.324,2.861-2.166,4.729c0.25,2.955,1.333,5.951,2.864,8.549
						c-1.39-1.05-5.024-4.173-6.929-3.456C248.618,209.785,247.648,210.665,247.209,211.77z"/>
					<path style="fill:none;stroke:#1D1D1B;stroke-linecap:round;stroke-linejoin:round;stroke-miterlimit:10;" d="M264.932,207.684
						c1.576,7.067,3.541,14.064,5.883,20.954c-0.002-2.672,0.677-5.279,1.351-7.853c0.904-3.448,1.319-5.925,2.223-9.373"/>
					<path style="fill:none;stroke:#1D1D1B;stroke-linecap:round;stroke-linejoin:round;stroke-miterlimit:10;" d="M255.858,212.087
						c2.368,3.261,12.248,12.276,14.616,15.536"/>
					<path style="fill:none;stroke:#1D1D1B;stroke-linecap:round;stroke-linejoin:round;stroke-miterlimit:10;" d="M266.88,229.206
						c-0.758,1.512-1.529,3.067-1.661,4.754c-0.066,0.841,0.247,1.933,1.126,2.047c0.603,0.079,1.116-0.373,1.478-0.829
						c0.7-0.881,1.198-1.911,1.451-2.999c-0.065,0.791,0.041,1.6,0.307,2.361c0.177,0.504,0.434,1,0.85,1.356
						c0.416,0.356,1.015,0.549,1.534,0.387c0.874-0.273,1.122-1.332,1.097-2.219c-0.023-0.814-0.161-1.629-0.41-2.414
						c0.186,1.348,1.384,2.535,2.786,2.764c0.644,0.105,1.399-0.029,1.725-0.557c0.442-0.715-0.131-1.621-0.68-2.294
						c-0.981-1.204-1.962-2.408-2.943-3.612"/>
				</g>
				<g>
					<path style="fill:none;stroke:#1D1D1B;stroke-linecap:round;stroke-linejoin:round;stroke-miterlimit:10;" d="M207.761,218.863
						c-0.415,1.242-0.212,2.625,0.184,3.905c0.993,3.209,3.175,6.06,5.915,8.157c2.74,2.097,6.014,3.466,9.38,4.218
						c2.122,0.474,4.31,0.71,6.444,0.474c3.296-0.365,6.393-1.891,8.587-4.232c1.211-1.292,2.146-2.811,2.923-4.394
						c2.132-4.343,3.114-9.244,2.83-14.132c-0.06-1.038-0.186-2.107-0.696-3.041c-0.51-0.933-1.488-1.708-2.561-1.716
						c-1.462-0.01-2.471,1.3-3.161,2.519c-1.229,2.172-2.206,4.485-2.906,6.883c0.482-2.955,0.369-6.023-0.332-8.984
						c-0.283-1.195-0.675-2.4-1.444-3.391c-0.769-0.991-1.98-1.739-3.233-1.697c-1.154,0.039-2.176,0.741-2.814,1.649
						c-0.637,0.908-0.94,2.005-1.146,3.097c-0.431,2.276-0.49,4.632-0.174,6.956c-1.012-2.735-2.723-5.251-4.931-7.253
						c-1.318-1.195-3.166-2.264-4.787-1.641c-1.78,0.685-2.154,2.964-1.899,4.838c0.404,2.965,1.636,5.94,3.291,8.498
						c-1.434-1.006-5.202-4.015-7.055-3.224C209.053,216.814,208.138,217.735,207.761,218.863z"/>
					<path style="fill:none;stroke:#1D1D1B;stroke-linecap:round;stroke-linejoin:round;stroke-miterlimit:10;" d="M225.123,214.101
						c1.936,7.053,4.253,14.023,6.939,20.87c-0.143-2.689,0.393-5.337,0.926-7.952c0.715-3.503,0.996-6.011,1.711-9.514"/>
					<path style="fill:none;stroke:#1D1D1B;stroke-linecap:round;stroke-linejoin:round;stroke-miterlimit:10;" d="M216.355,218.864
						c2.52,3.194,12.795,11.904,15.315,15.098"/>
					<path style="fill:none;stroke:#1D1D1B;stroke-linecap:round;stroke-linejoin:round;stroke-miterlimit:10;" d="M228.189,235.687
						c-0.672,1.549-1.355,3.143-1.397,4.845c-0.021,0.849,0.347,1.936,1.225,2.019c0.602,0.057,1.087-0.417,1.422-0.888
						c0.648-0.912,1.088-1.967,1.281-3.071c-0.023,0.799,0.124,1.608,0.429,2.364c0.202,0.5,0.483,0.99,0.915,1.333
						c0.432,0.343,1.036,0.516,1.542,0.333c0.852-0.307,1.043-1.382,0.971-2.274c-0.066-0.819-0.246-1.633-0.534-2.414
						c0.256,1.349,1.506,2.501,2.909,2.679c0.644,0.082,1.386-0.08,1.682-0.624c0.401-0.736-0.215-1.627-0.795-2.284
						c-1.036-1.176-2.073-2.351-3.109-3.527"/>
				</g>
				<path style="fill:none;stroke:#1D1D1B;stroke-linecap:round;stroke-linejoin:round;stroke-miterlimit:10;" d="M276.237,234.412
					c1.753,8.191,3.246,15.509,4.841,23.732"/>
				<path style="fill:none;stroke:#1D1D1B;stroke-linecap:round;stroke-linejoin:round;stroke-miterlimit:10;" d="M243.831,218.188
					c0.99-0.669,2.189-1.058,3.415-1.11"/>
				<path style="fill:none;stroke:#1D1D1B;stroke-linecap:round;stroke-linejoin:round;stroke-miterlimit:10;" d="M243.706,221.556
					c1.371-1.069,3.092-1.728,4.875-1.867"/>
				<path style="fill:none;stroke:#1D1D1B;stroke-linecap:round;stroke-linejoin:round;stroke-miterlimit:10;" d="M221.268,234.619
					c4.775,10.637,9.917,24.609,12.798,34.796c1.104,3.904,2.208,7.808,3.312,11.712"/>
				<path style="fill:none;stroke:#1D1D1B;stroke-linecap:round;stroke-linejoin:round;stroke-miterlimit:10;" d="M282.798,254.055
					c-1.916,6.626-4.621,14.321-7.272,20.689"/>
				<path style="fill:none;stroke:#1D1D1B;stroke-linecap:round;stroke-linejoin:round;stroke-miterlimit:10;" d="M289.553,278.397
					c-2.024-1.806-4.88-2.269-7.573-2.599c-8.089-0.993-16.286-1.473-24.388-0.588c-8.102,0.886-16.133,3.179-23.086,7.431"/>
				<path style="fill:none;stroke:#1D1D1B;stroke-linecap:round;stroke-linejoin:round;stroke-miterlimit:10;" d="M280.195,252.5
					c0.35-1.33,1.489-2.419,2.833-2.709c1.344-0.291,2.831,0.231,3.699,1.297c0.892,1.095,1.094,2.592,1.113,4.004
					c0.095,7.07-3.494,14.168-1.648,20.994"/>
				<path style="fill:none;stroke:#1D1D1B;stroke-linecap:round;stroke-linejoin:round;stroke-miterlimit:10;" d="M289.794,278.139
					c-3.824,0.051-7.647,0.235-11.458,0.552c-3.674,0.306-7.377,0.745-10.846,1.995c-3.395,1.224-6.466,3.189-9.704,4.783
					c-4.545,2.237-9.447,3.747-14.462,4.456c-2.639,0.373-5.387,0.516-7.916-0.324c-2.529-0.84-4.811-2.838-5.344-5.449
					c-0.258-1.263-0.098-2.58,0.248-3.822c0.731-2.627,2.462-5.133,5.026-6.062"/>
				<path style="fill:none;stroke:#1D1D1B;stroke-linecap:round;stroke-linejoin:round;stroke-miterlimit:10;" d="M245.783,263.071
					c4.793,3.415,9.15,7.441,12.932,11.95"/>
				<path style="fill:none;stroke:#1D1D1B;stroke-linecap:round;stroke-linejoin:round;stroke-miterlimit:10;" d="M270.587,265.113
					c0.526,1.158,1.258,2.222,2.151,3.127"/>
				<path style="fill:none;stroke:#1D1D1B;stroke-linecap:round;stroke-linejoin:round;stroke-miterlimit:10;" d="M205.046,211.555
					c2.653,3.925,0.64,1.639,2.994,5.75"/>
				<path style="fill:none;stroke:#1D1D1B;stroke-linecap:round;stroke-linejoin:round;stroke-miterlimit:10;" d="M222.045,187.329
					c-12.89-3.979-25.824,1.671-31.483,5.708c-5.659,4.037-9.983,9.645-14.006,15.313c-12.122,17.082-16.618,23.871-25.92,42.638
					c-1.024,2.066-2.049,4.169-2.471,6.436c-0.004,0.023-0.008,0.045-0.012,0.068c-0.603,3.351,7.708,11.658,14.026,16.774
					c9.29,7.524,38.051,22.726,38.051,22.726"/>
				<path style="fill:none;stroke:#1D1D1B;stroke-linecap:round;stroke-linejoin:round;stroke-miterlimit:10;" d="M207.248,220.622
					c-11.799,11.94-20.349,22.224-28.52,36.887"/>
				<path style="fill:none;stroke:#1D1D1B;stroke-linecap:round;stroke-linejoin:round;stroke-miterlimit:10;" d="M210.716,280.646
					c6.788,2.485,13.302,6.196,17.926,11.751c5.456,6.554,7.84,15.059,10.083,23.286c0.257,0.942-0.702,1.652-1.563,2.112"/>
				<path style="fill:none;stroke:#1D1D1B;stroke-linecap:round;stroke-linejoin:round;stroke-miterlimit:10;" d="M221.76,304.936
					c3.187,5.308,5.442,11.198,6.712,17.264c0.181,0.863-0.766,1.566-1.527,1.12c-3.104-1.821-5.065-5.62-6.161-8.8
					c-0.754-2.186-1.736-4.286-3.021-6.209c-0.452-0.676-0.953-1.401-1.683-1.796c-0.639-0.346-1.387-0.405-2.101-0.537
					c-3.378-0.628-6.329-3.182-7.434-6.435"/>
				<path style="fill:none;stroke:#1D1D1B;stroke-linecap:round;stroke-linejoin:round;stroke-miterlimit:10;" d="M225.196,302.38
					c2.161,3.241,4.015,6.682,5.405,10.324c0.839,2.197,2.063,4.438,2.185,6.833c0.048,0.932-0.062,2.451-1.114,2.872
					c-1.267,0.508-2.755-1.33-3.619-2.046"/>
				<path style="fill:none;stroke:#1D1D1B;stroke-linecap:round;stroke-linejoin:round;stroke-miterlimit:10;" d="M228.835,300.385
					c4.005,6.023,6.82,12.834,8.236,19.927c-0.984,1.061-3.175,0.543-4.019-0.633"/>
				<path style="fill:#FFFFFF;stroke:#1D1D1B;stroke-linecap:round;stroke-linejoin:round;stroke-miterlimit:10;" d="
					M212.36,278.634c-0.065-1.77-1.552-3.153-3.322-3.088c-1.77,0.065-3.152,1.552-3.088,3.322c0.065,1.77,1.552,3.153,3.322,3.088
					C211.043,281.891,212.425,280.404,212.36,278.634z"/>
				<path style="fill:#FFFFFF;stroke:#1D1D1B;stroke-linecap:round;stroke-linejoin:round;stroke-miterlimit:10;" d="
					M209.369,284.608c-0.065-1.77-1.552-3.153-3.322-3.088c-1.77,0.065-3.152,1.552-3.088,3.322c0.065,1.77,1.552,3.153,3.322,3.088
					S209.434,286.378,209.369,284.608z"/>
				<path style="fill:#FFFFFF;stroke:#1D1D1B;stroke-linecap:round;stroke-linejoin:round;stroke-miterlimit:10;" d="
					M208.107,291.073c-0.065-1.77-1.552-3.153-3.322-3.088c-1.77,0.065-3.153,1.552-3.088,3.322c0.065,1.77,1.552,3.153,3.322,3.088
					C206.789,294.33,208.172,292.843,208.107,291.073z"/>
				
					<circle style="fill:#FFFFFF;stroke:#1D1D1B;stroke-linecap:round;stroke-linejoin:round;stroke-miterlimit:10;" cx="203.438" cy="297.922" r="3.207"/>
				<path style="fill:none;stroke:#1D1D1B;stroke-linecap:round;stroke-linejoin:round;stroke-miterlimit:10;" d="M206.164,277.593
					c-12.55-6.484-23.619-17.354-34.765-26.033"/>
				<path style="fill:none;stroke:#1D1D1B;stroke-linecap:round;stroke-linejoin:round;stroke-miterlimit:10;" d="M173.093,213.251
					c1.94,2.473,19.892,17.2,25.063,16.798"/>
				<path style="fill:none;stroke:#1D1D1B;stroke-linecap:round;stroke-linejoin:round;stroke-miterlimit:10;" d="M163.641,227.27
					c4.662,8.63,12.869,14.682,22.104,17.987"/>
				<path style="fill:none;stroke:#1D1D1B;stroke-linecap:round;stroke-linejoin:round;stroke-miterlimit:10;" d="M173.189,213.512
					c0.609-1.319,1.9-2.301,3.334-2.537c0.217-0.036,0.455-0.052,0.643,0.063c0.24,0.146,0.32,0.453,0.357,0.731
					c0.176,1.34-0.207,2.745-1.039,3.811c1.018-0.452,1.845-1.265,2.869-1.703s2.455-0.333,2.957,0.661
					c0.383,0.759,0.054,1.684-0.397,2.406c-0.45,0.722-1.032,1.4-1.194,2.235c0.761-0.673,1.647-1.204,2.599-1.559
					c0.536-0.2,1.216-0.315,1.618,0.093c0.255,0.258,0.31,0.65,0.32,1.013c0.034,1.275-0.336,2.558-1.045,3.619
					c1.04-0.734,2.104-1.48,3.326-1.835c0.456-0.133,0.988-0.196,1.369,0.087c0.382,0.282,0.476,0.808,0.496,1.283
					c0.053,1.264-0.221,2.541-0.789,3.673c0.78-0.676,1.604-1.302,2.464-1.873c0.364-0.242,0.753-0.48,1.189-0.517
					c0.991-0.085,1.786,0.954,1.822,1.948c0.037,0.994-0.457,1.922-0.937,2.794c0.747-1.126,1.951-1.938,3.275-2.209
					c0.182-0.037,0.381-0.062,0.545,0.024c0.176,0.092,0.269,0.29,0.327,0.48c0.341,1.117-0.104,2.307-0.542,3.389
					c0.663-0.979,2.229-1.965,3.526-1.965"/>
				<path style="fill:none;stroke:#1D1D1B;stroke-linecap:round;stroke-linejoin:round;stroke-miterlimit:10;" d="M163.498,227.565
					c-0.872,0.758-1.521,1.768-1.849,2.876c-0.165,0.557-0.244,1.182,0.019,1.7c0.389,0.765,1.413,1.018,2.242,0.794
					c0.829-0.223,1.506-0.805,2.153-1.37c-0.501,0.846-1.014,1.728-1.109,2.707c-0.094,0.979,0.358,2.085,1.281,2.423
					c1.179,0.432,2.379-0.511,3.282-1.384c-0.436,0.981-0.648,2.061-0.616,3.134c0.014,0.469,0.096,0.982,0.449,1.292
					c0.223,0.197,0.524,0.281,0.818,0.322c1.158,0.164,2.385-0.272,3.178-1.132c-0.323,0.754-0.653,1.537-0.639,2.357
					c0.013,0.82,0.466,1.694,1.253,1.929c0.624,0.187,1.314-0.069,1.807-0.496c0.493-0.426,0.828-1.002,1.154-1.566
					c-0.229,1.006-0.307,2.047-0.233,3.076c0.029,0.4,0.091,0.824,0.349,1.131c0.557,0.665,1.687,0.395,2.296-0.221
					c0.609-0.617,0.751-1.379,1.3-2.05c-0.128,0.755-0.086,1.452,0.132,2.186c0.218,0.734,0.891,1.394,1.654,1.329
					c0.814-0.07,1.339-0.868,1.739-1.581c-0.176,0.796-0.012,1.662,0.443,2.338"/>
				<path style="fill:none;stroke:#1D1D1B;stroke-linecap:round;stroke-linejoin:round;stroke-miterlimit:10;" d="M170.834,216.643
					c-0.697,1.602-0.732,3.794,0.72,4.765c1.526,1.021,3.908,0.158,5.204,1.458c0.718,0.721,0.799,1.832,1.034,2.822
					c0.282,1.191,0.916,2.388,2.018,2.921c1.099,0.532,2.392,0.296,3.607,0.174c1.215-0.122,2.612-0.044,3.403,0.886
					c0.602,0.708,0.673,1.706,0.903,2.606c0.23,0.9,0.814,1.877,1.742,1.932c0.78,0.046,1.494-0.596,2.269-0.495
					c0.902,0.117,1.356,1.125,1.645,1.987"/>
				<path style="fill:none;stroke:#1D1D1B;stroke-linecap:round;stroke-linejoin:round;stroke-miterlimit:10;" d="M166.602,222.543
					c-0.277,1.098-0.435,2.256-0.184,3.36c0.251,1.104,0.97,2.15,2.028,2.554c1.718,0.656,3.955-0.427,5.349,0.772
					c1.242,1.068,0.821,3.128,1.64,4.547c0.478,0.827,1.398,1.381,2.353,1.416c0.854,0.031,1.668-0.321,2.498-0.523
					c0.83-0.203,1.804-0.222,2.433,0.355c0.614,0.563,0.69,1.484,0.821,2.307c0.131,0.823,0.475,1.759,1.275,1.991
					c0.588,0.171,1.199-0.109,1.785-0.286c0.586-0.177,1.339-0.199,1.688,0.305c0.368,0.532,0.492,1.143,0.464,2.535"/>
				<path style="fill:none;stroke:#1D1D1B;stroke-linecap:round;stroke-linejoin:round;stroke-miterlimit:10;" d="M203.298,276.303
					c-4.835,4.525-7.929,10.865-8.52,17.461"/>
				<path style="fill:none;stroke:#1D1D1B;stroke-linecap:round;stroke-linejoin:round;stroke-miterlimit:10;" d="M205.014,277.449
					c-4.293,4.868-7.245,10.908-8.448,17.287"/>
				<path style="fill:none;stroke:#1D1D1B;stroke-linecap:round;stroke-linejoin:round;stroke-miterlimit:10;" d="M333.863,120.277
					c0.49-3.17-0.875-6.559-3.424-8.506c-2.513-1.919-4.582-3.256-6.71-5.667c-2.006-2.272-4.094-2.499-6.64-1.126
					c0,0,4.077,6.361,5.435,8.209c1.758,2.391,2.014,5.633,3.756,8.036c1.318,1.819,3.465,3.013,5.706,3.172"/>
				<path style="fill:none;stroke:#1D1D1B;stroke-linecap:round;stroke-linejoin:round;stroke-miterlimit:10;" d="M329.054,110.565
					c-0.192-4.883,0.885-9.719,2.008-14.475c0.805-3.413,2.241-7.436,5.673-8.152c1.504-0.314,3.053,0.127,4.521,0.578
					c2.062,0.634,4.114,1.299,6.155,1.994c0.717,0.244,1.488,0.534,1.89,1.176c0.291,0.464,0.337,1.034,0.371,1.58
					c0.467,7.61-0.092,15.283-1.658,22.745c-0.499,2.378-1.114,4.771-2.341,6.868c-1.227,2.097-3.148,2.89-5.505,3.478"/>
				<path style="fill:none;stroke:#1D1D1B;stroke-linecap:round;stroke-linejoin:round;stroke-miterlimit:10;" d="M329.859,104.304
					c6.294,0.187,12.58,1.654,18.833,2.399"/>
				<path style="fill:none;stroke:#1D1D1B;stroke-linecap:round;stroke-linejoin:round;stroke-miterlimit:10;" d="M337.666,87.797
					c-1.662,5.485-2.746,11.145-3.228,16.855"/>
				<path style="fill:none;stroke:#1D1D1B;stroke-linecap:round;stroke-linejoin:round;stroke-miterlimit:10;" d="M342.579,89.163
					c-1.038,5.418-2.077,10.836-3.115,16.255"/>
				<path style="fill:none;stroke:#1D1D1B;stroke-linecap:round;stroke-linejoin:round;stroke-miterlimit:10;" d="M346.586,90.719
					c-0.46,5.107-1.212,10.187-2.251,15.208"/>
				<path style="fill:none;stroke:#1D1D1B;stroke-linecap:round;stroke-linejoin:round;stroke-miterlimit:10;" d="M330.317,124.988
					c-3.303,16.542-3.557,16.828-6.86,33.37c-1.368,6.851-3.247,13.991-2.759,22.014"/>
				<path style="fill:none;stroke:#1D1D1B;stroke-linecap:round;stroke-linejoin:round;stroke-miterlimit:10;" d="M343.141,125.269
					c-0.621,13.981,0.759,16.963,0.138,30.945c-0.363,8.17-0.73,16.382-2.396,24.388c-0.521,2.502-1.183,5.018-2.5,7.207
					c-1.221,2.029-2.639,5.221-4.462,6.733c-5.175,4.294-9.548,6.452-49.904,12.604"/>
				<path style="fill:none;stroke:#1D1D1B;stroke-linecap:round;stroke-linejoin:round;stroke-miterlimit:10;" d="M319.839,174.045
					c-11.748,2.273-25.175,4.535-38.531,6.327c-7.291,0.978-14.31,0.502-21.275,1.126c-3.987,0.357-6.958-0.311-11.451,1.852"/>
				
					<circle style="fill:#FFFFFF;stroke:#1D1D1B;stroke-linecap:round;stroke-linejoin:round;stroke-miterlimit:10;" cx="328.554" cy="133.702" r="2.845"/>
				<path style="fill:#FFFFFF;stroke:#1D1D1B;stroke-linecap:round;stroke-linejoin:round;stroke-miterlimit:10;" d="
					M337.283,135.187c0-1.571-1.274-2.845-2.845-2.845c-1.571,0-2.845,1.274-2.845,2.845c0,1.571,1.274,2.845,2.845,2.845
					C336.009,138.032,337.283,136.758,337.283,135.187z"/>
				<path style="fill:#FFFFFF;stroke:#1D1D1B;stroke-linecap:round;stroke-linejoin:round;stroke-miterlimit:10;" d="
					M224.889,187.329c0-1.571-1.274-2.845-2.845-2.845c-1.571,0-2.845,1.274-2.845,2.845c0,1.571,1.274,2.845,2.845,2.845
					C223.616,190.174,224.889,188.9,224.889,187.329z"/>
				<path style="fill:#FFFFFF;stroke:#1D1D1B;stroke-linecap:round;stroke-linejoin:round;stroke-miterlimit:10;" d="
					M229.636,190.083c0-1.571-1.273-2.845-2.845-2.845s-2.845,1.274-2.845,2.845c0,1.571,1.274,2.845,2.845,2.845
					S229.636,191.654,229.636,190.083z"/>
				<path style="fill:#FFFFFF;stroke:#1D1D1B;stroke-linecap:round;stroke-linejoin:round;stroke-miterlimit:10;" d="
					M235.622,191.348c0-1.571-1.274-2.845-2.845-2.845c-1.571,0-2.845,1.274-2.845,2.845c0,1.571,1.274,2.845,2.845,2.845
					C234.348,194.193,235.622,192.919,235.622,191.348z"/>
				<path style="fill:#FFFFFF;stroke:#1D1D1B;stroke-linecap:round;stroke-linejoin:round;stroke-miterlimit:10;" d="
					M241.059,191.348c0-1.571-1.274-2.845-2.845-2.845c-1.571,0-2.845,1.274-2.845,2.845c0,1.571,1.274,2.845,2.845,2.845
					C239.786,194.193,241.059,192.919,241.059,191.348z"/>
				<path style="fill:#FFFFFF;stroke:#1D1D1B;stroke-linecap:round;stroke-linejoin:round;stroke-miterlimit:10;" d="
					M246.676,189.473c0-1.571-1.274-2.845-2.845-2.845c-1.571,0-2.845,1.274-2.845,2.845c0,1.571,1.274,2.845,2.845,2.845
					C245.402,192.318,246.676,191.044,246.676,189.473z"/>
				<path style="fill:#FFFFFF;stroke:#1D1D1B;stroke-linecap:round;stroke-linejoin:round;stroke-miterlimit:10;" d="
					M251.426,185.547c0-1.571-1.274-2.845-2.845-2.845c-1.571,0-2.845,1.274-2.845,2.845c0,1.571,1.274,2.845,2.845,2.845
					C250.152,188.392,251.426,187.118,251.426,185.547z"/>
				<path style="fill:#FFFFFF;stroke:#1D1D1B;stroke-linecap:round;stroke-linejoin:round;stroke-miterlimit:10;" d="
					M343.866,135.187c0-1.571-1.274-2.845-2.845-2.845c-1.571,0-2.845,1.274-2.845,2.845c0,1.571,1.274,2.845,2.845,2.845
					C342.593,138.032,343.866,136.758,343.866,135.187z"/>
				<path style="fill:none;stroke:#1D1D1B;stroke-linecap:round;stroke-linejoin:round;stroke-miterlimit:10;" d="M288.764,179.8
					c-0.111,9.064,1.041,17.143,3.411,25.892"/>
				<path style="fill:none;stroke:#1D1D1B;stroke-linecap:round;stroke-linejoin:round;stroke-miterlimit:10;" d="M299.609,177.509
					c0.537,8.749,1.662,17.462,3.366,26.061"/>
				<path style="fill:none;stroke:#1D1D1B;stroke-linecap:round;stroke-linejoin:round;stroke-miterlimit:10;" d="M301.292,177.37
					c1.057-0.101,4.307,0.465,4.223,1.523c-0.084,1.058-0.773,1.959-1.456,2.771c1.157,0.502,1.971,1.71,2.002,2.97
					c0.031,1.26-0.723,2.507-1.853,3.065c1.212,0.266,2.058,1.542,1.995,2.781c-0.063,1.239-0.925,2.358-2.039,2.903
					c1.166,0.268,2.126,1.28,2.331,2.459c0.206,1.179-0.355,2.456-1.362,3.102c0.947,0.172,1.633,1.061,1.863,1.995
					c0.231,0.934,0.097,0.915-0.038,1.868"/>
				<path style="fill:none;stroke:#1D1D1B;stroke-linecap:round;stroke-linejoin:round;stroke-miterlimit:10;" d="M284.453,179.931
					c-1.115,1.857-0.714,4.484,0.905,5.923c-1.027,0.941-1.728,2.327-1.553,3.708c0.175,1.382,1.396,2.644,2.788,2.588
					c-0.969,0.681-1.482,1.954-1.255,3.116c0.226,1.162,1.18,2.15,2.333,2.417c-0.875,0.544-1.346,1.669-1.118,2.674
					c0.228,1.005,1.137,1.818,2.161,1.931c-0.868,1.211-0.723,3.041,0.326,4.1"/>
			</g>
			<path style="fill:none;stroke:#1D1D1B;stroke-linecap:round;stroke-linejoin:round;stroke-miterlimit:10;" d="M209.155,185.973
				c-1.358,0.944-3.948,3.869-2.909,5.155c0.411,0.51,1.043,0.78,1.569,1.17c1.2,0.888,1.83,2.484,1.562,3.952
				c-0.204,1.119-0.867,2.092-1.307,3.14c-0.44,1.049-0.626,2.349,0.064,3.254c0.799,1.048,2.419,1.123,3.305,2.099
				c1.013,1.116,0.662,2.849,0.388,4.331c-0.274,1.482,1.197,3.521,2.552,4.18"/>
			<path style="fill:none;stroke:#1D1D1B;stroke-linecap:round;stroke-linejoin:round;stroke-miterlimit:10;" d="M211.727,186.064
				c-1.29,0.935-2.311,2.691-1.539,4.084c0.446,0.805,1.355,1.229,1.963,1.919c0.728,0.826,0.972,2.051,0.617,3.093
				c-0.321,0.942-1.083,1.72-1.23,2.705c-0.169,1.133,0.524,2.214,1.303,3.055c0.779,0.841,2.535,4.271,2.996,5.32"/>
			<path style="fill:none;stroke:#1D1D1B;stroke-linecap:round;stroke-linejoin:round;stroke-miterlimit:10;" d="M261.303,182.086
				c-0.926,1.342-1.683,2.209-0.704,3.514c0.625,0.833,1.814,1.174,2.259,2.115c0.829,1.752-1.552,4.004-0.426,5.583
				c0.592,0.829,1.855,0.905,2.512,1.683c1.274,1.507-0.605,4.3,0.853,5.63"/>
			<path style="fill:none;stroke:#1D1D1B;stroke-linecap:round;stroke-linejoin:round;stroke-miterlimit:10;" d="M264.683,181.226
				c-0.735,0.931-0.947,2.25-0.54,3.365c0.457,1.252,1.632,2.295,1.553,3.626c-0.055,0.924-0.73,1.796-0.516,2.696
				c0.231,0.968,1.333,1.403,2.015,2.128c1.123,1.193,1.01,3.053,0.826,4.681"/>
			<path style="fill:none;stroke:#1D1D1B;stroke-linecap:round;stroke-linejoin:round;stroke-miterlimit:10;" d="M246.944,102.733
				c-3.599-5.592-10.847-7.443-17.457-8.164c-7.219-0.788-14.745-0.736-21.462,2.025c-7.607,3.126-13.683,9.769-16.12,17.623
				c-1.65,5.317-1.686,11.007-3.037,16.407c-3.091,12.358-13.567,22.558-26.003,25.319"/>
			<path style="fill:none;stroke:#1D1D1B;stroke-linecap:round;stroke-linejoin:round;stroke-miterlimit:10;" d="M245.542,106.453
				c-6.773-3.386-14.836-3.812-22.139-1.814s-13.861,6.305-19.13,11.742c-3.926,4.051-7.244,8.865-8.626,14.335"/>
			<path style="fill:none;stroke:#1D1D1B;stroke-linecap:round;stroke-linejoin:round;stroke-miterlimit:10;" d="M189.088,148.597
				c-1.77,7.56-5.98,14.529-11.849,19.613c-3.417,2.96-7.356,5.281-10.714,8.308c-3.358,3.027-6.202,7.029-6.418,11.545"/>
			<path style="fill:none;stroke:#1D1D1B;stroke-linecap:round;stroke-linejoin:round;stroke-miterlimit:10;" d="M194.448,156.786
				c-1.982,9.956-5.516,18.728-11.432,26.977s-15.887,13.507-27.537,14.647"/>
			<path style="fill:none;stroke:#1D1D1B;stroke-linecap:round;stroke-linejoin:round;stroke-miterlimit:10;" d="M209.345,165.901
				c-1.843,5.747-4.646,11.588-9.747,14.815c-2.443,1.546-5.271,2.395-7.738,3.902c-5.007,3.061-8.165,7.926-7.962,13.791"/>
			<path style="fill:none;stroke:#1D1D1B;stroke-linecap:round;stroke-linejoin:round;stroke-miterlimit:10;" d="M217.054,173.074
				c0.026,2.532-1.008,4.984-2.464,7.055c-1.456,2.072-3.321,3.816-5.173,5.543"/>
			<path style="fill:none;stroke:#1D1D1B;stroke-linecap:round;stroke-linejoin:round;stroke-miterlimit:10;" d="M264.33,124.826
				c-1.757,4.206-0.329,9.035,1.536,13.194c1.865,4.159,4.208,8.315,4.286,12.873c0.073,4.244-1.835,8.232-2.983,12.319
				c-1.148,4.087-1.369,8.96,1.504,12.085"/>
			<path style="fill:none;stroke:#1D1D1B;stroke-linecap:round;stroke-linejoin:round;stroke-miterlimit:10;" d="M258.778,167.122
				c-0.211,5.325,1.667,9.706,5.146,13.743"/>
			<path style="fill:none;stroke:#1D1D1B;stroke-linecap:round;stroke-linejoin:round;stroke-miterlimit:10;" d="M252.869,173.317
				c-0.004,3.253,0.901,5.502,2.586,8.284"/>
		</g>
		<path style="fill:none;stroke:#1D1D1B;stroke-linecap:round;stroke-linejoin:round;stroke-miterlimit:10;" d="M401.718,363.233
			c-9.059,7.933-16.06,22.25-19.292,33.85c-4.401,15.793-7.139,32.982-1.365,48.327"/>
		<path style="fill:none;stroke:#1D1D1B;stroke-linecap:round;stroke-linejoin:round;stroke-miterlimit:10;" d="M388.468,369.762
			c-8.689,9.119-15.615,22.194-18.262,34.509c-2.647,12.314-2.665,25.061-1.614,37.613"/>
		<path style="fill:none;stroke:#1D1D1B;stroke-linecap:round;stroke-linejoin:round;stroke-miterlimit:10;" d="M355.097,429.538
			c0.242-22.252,10.342-44.275,26.076-60.012c-9.301,5.658-21.274,8.573-31.715,11.655c-9.326,2.753-19.194,5.524-28.633,3.188"/>
		<path style="fill:none;stroke:#1D1D1B;stroke-linecap:round;stroke-linejoin:round;stroke-miterlimit:10;" d="M395.122,355.41
			c-27.458,9.367-58.709,6.992-84.437-6.415"/>
		<path style="fill:none;stroke:#1D1D1B;stroke-linecap:round;stroke-linejoin:round;stroke-miterlimit:10;" d="M388.468,362.659
			c-23.975,7.746-53.077,10.702-77.255,3.616"/>
		<path style="fill:none;stroke:#1D1D1B;stroke-linecap:round;stroke-linejoin:round;stroke-miterlimit:10;" d="M258.802,322.194
			c1.075-1.169,0.862-3.268-0.426-4.198c2.154-0.196,4.507-0.482,6.004-2.043c1.498-1.56,1.182-4.814-0.941-5.223
			c2.973,0.113,6.219-0.804,7.904-3.256s0.866-6.551-1.987-7.395c3.574-0.126,7.223-2.111,8.584-5.418
			c1.362-3.307-0.27-7.75-3.696-8.777c3.743,0.253,8.681-3.899,9.533-7.552"/>
		<path style="fill:none;stroke:#1D1D1B;stroke-linecap:round;stroke-linejoin:round;stroke-miterlimit:10;" d="M287.624,254.326
			c1.667,0.658,3.453,2.197,3.699,3.972c0.4,2.881-0.873,5.808-2.831,7.959c3.477,0.747,5.655,4.62,5.356,8.164
			c-0.299,3.544-2.556,6.662-5.268,8.961c3.622,0.761,6.088,4.697,5.692,8.377c-0.396,3.68-3.255,6.829-6.723,8.123
			c2.419,0.519,4.271,2.957,4.122,5.427c-0.149,2.47-2.281,4.667-4.745,4.891c2.089,0.729,3.262,3.232,2.783,5.392
			c-0.478,2.16-2.36,3.852-4.493,4.439c1.257,0.779,1.653,2.498,1.321,3.939c-0.332,1.441-0.972,2.755-3.173,3.559"/>
		<path style="fill:none;stroke:#1D1D1B;stroke-linecap:round;stroke-linejoin:round;stroke-miterlimit:10;" d="M288.398,250.746
			c1.632-1.692,7.802-2.9,9.03-0.895c1.229,2.005,0.533,4.841-1.279,6.339c4.094,0.056,7.566,3.855,7.896,7.936
			c0.33,4.081-2.059,8.082-5.458,10.364c2.458,0.244,4.777,1.636,6.149,3.69c1.372,2.054,1.769,4.73,1.053,7.093
			c-0.713,2.354-2.408,4.262-4.06,6.084c1.671,0.44,3.373,0.893,4.824,1.83c1.451,0.937,2.635,2.457,2.719,4.182
			c0.123,2.515-2.095,4.601-4.465,5.45c2.254,0.403,4.069,2.542,4.1,4.832c0.031,2.29-1.726,4.477-3.968,4.94
			c1.609-0.048,3.079,1.108,3.786,2.553c0.707,1.446,0.769,3.125,0.609,4.726"/>
		<path style="fill:none;stroke:#1D1D1B;stroke-linecap:round;stroke-linejoin:round;stroke-miterlimit:10;" d="M300.022,242.52
			c2.812-1.411,6.583-0.492,8.43,2.055c1.847,2.547,1.55,6.417-0.664,8.652c1.604-0.26,3.443-0.458,4.671,0.605
			c0.549,0.475,0.892,1.148,1.122,1.837c1.019,3.056-0.191,6.714-2.833,8.558c2.741-0.459,5.68,1.361,6.491,4.018
			c0.811,2.658-0.611,5.808-3.141,6.958c2.943-0.329,5.821,2.002,6.483,4.888c0.661,2.887-0.689,6.024-3.004,7.871
			c2.395-0.548,4.889,1.473,5.314,3.892c0.425,2.42-0.888,4.915-2.84,6.407c1.763,0.074,3.21,1.57,3.787,3.238
			c0.578,1.668,0.467,2.648,0.343,4.408"/>
		<path style="fill:none;stroke:#1D1D1B;stroke-linecap:round;stroke-linejoin:round;stroke-miterlimit:10;" d="M314.317,234.671
			c2.958-1.431,6.948-0.063,8.406,2.882c1.458,2.945,0.126,6.947-2.805,8.432c2.762-1.143,6.237,0.811,7.006,3.699
			s-0.989,6.124-3.703,7.377c2.728,0.048,6,0.456,7.182,2.915c1.203,2.502-0.646,5.411-2.739,7.235
			c2.172-0.298,4.745-0.203,6.07,1.544c1.017,1.341,0.91,3.291,0.13,4.782c-0.781,1.491-2.12,2.606-3.492,3.582
			c1.81-0.695,4.095,0.415,4.665,2.269c0.57,1.853-0.694,4.057-2.582,4.499c1.139-0.216,2.269,0.609,2.789,1.645
			c0.519,1.036,0.568,2.236,0.607,3.394"/>
		<path style="fill:none;stroke:#1D1D1B;stroke-linecap:round;stroke-linejoin:round;stroke-miterlimit:10;" d="M330.54,228.139
			c2.421-0.461,5.185,0.651,6.237,2.88c1.052,2.229-0.139,5.351-2.528,5.959c2.473-0.423,5.122,1.32,5.713,3.758
			c0.591,2.438-0.967,5.2-3.359,5.956c1.494,0.448,2.99,1.005,4.201,1.988c1.211,0.982,2.109,2.458,2.059,4.016
			c-0.049,1.559-1.241,3.103-2.794,3.237c2.423-0.082,4.964,1.277,5.813,3.548c0.849,2.271-0.497,5.243-2.875,5.712
			c1.806-0.167,3.643,1.078,4.157,2.817c0.514,1.739-0.352,3.783-1.958,4.624c1.405,0.348,2.222,2.156,1.554,3.44"/>
		<path style="fill:none;stroke:#1D1D1B;stroke-linecap:round;stroke-linejoin:round;stroke-miterlimit:10;" d="M350.428,226.166
			c1.651,1.05,2.749,2.922,2.86,4.876c0.11,1.953-0.77,3.938-2.293,5.166c2.147,0.79,4.599,1.915,5.075,4.153
			c0.443,2.083-1.197,4.139-3.155,4.975c1.122,0.59,2.252,1.219,3.112,2.151c0.859,0.932,1.417,2.228,1.168,3.471
			c-0.376,1.876-2.32,2.935-4.055,3.741c1.8,0.41,3.676,1.228,4.539,2.86c0.863,1.632,0.042,4.146-1.794,4.342
			c1.428,0.537,2.713,1.706,2.962,3.211c0.249,1.505-0.877,3.219-2.403,3.233c0.313,0.178,1.244,0.859,1.557,1.036"/>
		<path style="fill:none;stroke:#1D1D1B;stroke-linecap:round;stroke-linejoin:round;stroke-miterlimit:10;" d="M372.978,233.275
			c1.557,0.82,1.734,3.15,0.773,4.624c-0.961,1.474-2.67,2.261-4.328,2.852c1.973,0.712,3.111,3.052,2.689,5.106
			c-0.422,2.054-2.202,3.691-4.236,4.201c1.743,0.751,3.281,2.217,3.643,4.079c0.362,1.863-0.782,4.029-2.646,4.385
			c0.809,0.736,1.556,1.653,1.661,2.742c0.106,1.089-0.696,2.31-1.79,2.286c0.47,0.116,0.753,0.641,0.726,1.124
			c-0.027,0.483-0.298,0.92-0.615,1.285c-0.696,0.804-1.658,1.373-2.698,1.595"/>
		<path style="fill:none;stroke:#1D1D1B;stroke-linecap:round;stroke-linejoin:round;stroke-miterlimit:10;" d="M387.741,243.802
			c1.235,0.928,1.747,2.707,1.194,4.149c-0.553,1.442-2.124,2.423-3.663,2.286c1.224,1.082,1.463,3.044,0.71,4.493
			c-0.753,1.449-2.35,2.359-3.978,2.492c1.045,0.826,1.586,2.243,1.358,3.555c-0.228,1.312-1.216,2.463-2.478,2.888
			c0.969,0.582,1.049,2.054,0.441,3.006c-0.608,0.952-1.684,1.488-2.733,1.907c0.648,0.359,0.767,1.393,0.217,1.889"/>
		<path style="fill:none;stroke:#1D1D1B;stroke-linecap:round;stroke-linejoin:round;stroke-miterlimit:10;" d="M388.511,278.016
			c0.866,0.673,2.233-0.069,2.584-1.108c0.351-1.039,0.016-2.171-0.318-3.215c0.503,1.301,2.444,1.578,3.522,0.693
			c1.078-0.885,1.317-2.506,0.906-3.839c0.642,1.428,2.822,1.718,3.971,0.654c1.149-1.063,1.165-3.03,0.218-4.277
			c0.099,1.11,1.702,1.624,2.568,0.922c0.866-0.702,0.867-2.134,0.181-3.012c0.698,0.993,2.192,1.316,3.237,0.7"/>
		<path style="fill:none;stroke:#1D1D1B;stroke-linecap:round;stroke-linejoin:round;stroke-miterlimit:10;" d="M396.84,290.54
			c0.588,1.337,2.49,1.814,3.719,1.023c1.229-0.79,1.627-2.572,0.983-3.883c0.696,1.355,2.003,2.753,3.484,2.395
			c0.487-0.118,0.913-0.42,1.264-0.778c1.028-1.05,1.46-2.647,1.102-4.072c0.614,1.136,1.531,2.443,2.814,2.305
			c1.352-0.145,1.962-1.975,1.371-3.2c0.149,0.731,0.739,1.354,1.46,1.544c0.722,0.189,1.541-0.064,2.03-0.628"/>
		<path style="fill:none;stroke:#1D1D1B;stroke-linecap:round;stroke-linejoin:round;stroke-miterlimit:10;" d="M401.322,302.733
			c0.396,1.642,2.368,2.622,3.989,2.147c1.62-0.475,2.726-2.159,2.758-3.847c-0.052,1.706,1.79,3.11,3.474,2.829
			c1.684-0.28,2.937-1.953,2.994-3.659c0.096,0.687,0.229,1.442,0.768,1.879c0.539,0.437,1.589,0.188,1.588-0.506
			c0.3,0.425,0.62,0.868,1.089,1.092c0.469,0.224,1.132,0.135,1.372-0.326"/>
		<path style="fill:none;stroke:#1D1D1B;stroke-linecap:round;stroke-linejoin:round;stroke-miterlimit:10;" d="M405.038,321.228
			c0.142,1.128,1.273,2.035,2.404,1.929c1.132-0.106,2.075-1.207,2.005-2.341c0.125,0.63,0.255,1.271,0.569,1.831
			c0.314,0.56,0.85,1.034,1.488,1.107c1.126,0.129,1.982-0.948,2.595-1.901c0.155,0.967,1.117,1.735,2.095,1.669
			c0.978-0.065,1.83-0.953,1.855-1.933c0.37,1.162,1.533,2.024,2.753,2.04"/>
		<path style="fill:none;stroke:#1D1D1B;stroke-linecap:round;stroke-linejoin:round;stroke-miterlimit:10;" d="M405.494,333.361
			c-0.251,0.677-0.155,1.472,0.249,2.071c0.404,0.598,1.106,0.984,1.828,1.005c1.21,0.035,2.224-0.864,3.071-1.729
			c0.458-0.468,0.909-0.944,1.352-1.426c-0.217,0.781-0.436,1.598-0.279,2.393c0.157,0.796,0.815,1.556,1.626,1.539
			c0.935-0.019,1.539-0.965,1.968-1.797c-0.267,0.818,0.029,1.788,0.706,2.318c0.677,0.531,1.69,0.585,2.42,0.13"/>
		<path style="fill:none;stroke:#1D1D1B;stroke-linecap:round;stroke-linejoin:round;stroke-miterlimit:10;" d="M403.237,342.217
			c-0.55,1.518-0.76,3.198-0.24,3.994c0.52,0.796,1.486,1.249,2.437,1.242c0.951-0.007,1.872-0.439,2.563-1.092
			c-0.51,1.023-1.005,2.308-0.335,3.234c0.365,0.505,1.022,0.753,1.644,0.708c0.622-0.046,1.203-0.357,1.659-0.781
			c-0.347,0.494-0.336,1.211,0.026,1.694c0.362,0.483,1.047-0.034,1.618-0.228"/>
		<path style="fill:none;stroke:#1D1D1B;stroke-linecap:round;stroke-linejoin:round;stroke-miterlimit:10;" d="M398.272,352.053
			c-0.31,0.411-0.589,0.858-0.709,1.359c-0.12,0.5-0.063,1.064,0.249,1.473c0.197,0.258,0.478,0.437,0.752,0.61
			c0.605,0.382,1.336,0.777,1.997,0.505c-0.521,0.05-0.7,0.716-0.717,1.24c-0.014,0.429-0.01,0.859,0.014,1.288
			c0.032,0.566,0.125,1.188,0.554,1.559c0.372,0.322,0.921,0.372,1.397,0.249c0.477-0.122,0.899-0.393,1.313-0.66
			c-0.46,0.677,0.012,1.766,0.82,1.893"/>
		<path style="fill:none;stroke:#1D1D1B;stroke-linecap:round;stroke-linejoin:round;stroke-miterlimit:10;" d="M392.856,358.292
			c-0.728,0.304-1.371,2.457-0.942,3.029c0.429,0.572,1.355,0.81,2.146,0.645c-0.839,0.247-1.089,1.242-0.589,1.848
			c0.5,0.606,1.503,0.821,2.378,0.687c-0.51,0.709,0.048,1.767,1.022,1.938"/>
		<path style="fill:none;stroke:#1D1D1B;stroke-linecap:round;stroke-linejoin:round;stroke-miterlimit:10;" d="M387.158,364.273
			c-0.352,0.558-0.316,1.334,0.086,1.857s1.143,0.757,1.773,0.56c-0.282,0.24-0.439,0.619-0.408,0.988
			c0.068,0.809,0.9,1.297,1.633,1.647"/>
		<path style="fill:none;stroke:#1D1D1B;stroke-linecap:round;stroke-linejoin:round;stroke-miterlimit:10;" d="M240.038,295.268
			c0.544,1.591,2.015,4.767,3.643,5.187c1.628,0.42,3.381,0.149,4.928-0.508c3.353-1.425,5.825-4.738,6.238-8.357
			c1.816,1.709,4.776,2.053,6.935,0.804c2.159-1.248,3.338-3.985,2.762-6.411c0.709,1.303,2.712,0.931,3.929,0.083
			c2.183-1.521,3.657-4.018,3.936-6.664"/>
	</g>
	<g>
		<path style="fill:none;stroke:#1D1D1B;stroke-linecap:round;stroke-linejoin:round;stroke-miterlimit:10;" d="M187.733,264.577
			c10.907-0.241,33.027,1.399,43.937,1.396"/>
		<path style="fill:none;stroke:#1D1D1B;stroke-linecap:round;stroke-linejoin:round;stroke-miterlimit:10;" d="M176.203,328.483
			c2.121,12.872,4.156,40.276,4.669,53.311"/>
		<path style="fill:none;stroke:#1D1D1B;stroke-linecap:round;stroke-linejoin:round;stroke-miterlimit:10;" d="M125.524,311.621
			c3.874,20.414,7.012,38.65,10.886,59.064"/>
		<path style="fill:none;stroke:#1D1D1B;stroke-linecap:round;stroke-linejoin:round;stroke-miterlimit:10;" d="M134.636,282.917
			c0.812,5.875,1.354,9.809,2.534,15.622"/>
		<path style="fill:none;stroke:#1D1D1B;stroke-linecap:round;stroke-linejoin:round;stroke-miterlimit:10;" d="M259.587,330.898
			c1.309,13.042,4.748,36.936,7.172,49.817"/>
		<path style="fill:none;stroke:#1D1D1B;stroke-linecap:round;stroke-linejoin:round;stroke-miterlimit:10;" d="M341.022,282.917
			c6.645,0.623,32.753,6.093,39.398,6.716c2.699,0.253,5.511,0.543,7.806,1.985c2.296,1.443,3.874,4.416,2.836,6.92
			c-1.058,2.552-4.178,3.489-6.93,3.723c-2.753,0.234-5.734,0.146-7.986,1.746c1.327,1.182,2.653,2.364,3.979,3.546
			c-3.897,5.103-10.766,6.685-17.066,7.926c-3.026,0.596-6.053,1.192-9.079,1.789c-2.709,0.534-5.42,1.068-8.158,1.424
			c-2.755,0.358-5.533,0.535-8.311,0.53c-4.603-0.009-10.273-0.805-14.419,1.195c-2.521,1.216-4.604,3.188-7.061,4.527
			c-4.2,2.289-9.162,2.575-13.939,2.811c-39.745,1.965-79.172,6.021-119.036,4.677c-3.358-0.113-8.014-2.048-6.793-5.178
			c0.979-2.509,5.49-3.427,4.715-6.007c-15.357,0.603-30.781-0.508-45.893-3.306c-4-0.741-8.752-2.333-9.561-6.32
			c-0.432-2.132,0.495-4.331,1.811-6.064c5.531-7.283,16.192-7.526,24.518-11.308c1.18-0.536,2.496-1.44,2.406-2.732
			c-0.094-1.343-1.613-2.037-2.896-2.447c-4.671-1.491-9.341-2.983-14.012-4.475c-1.039-0.332-2.17-0.735-2.716-1.68
			c-1.144-1.979,1.106-4.168,3.102-5.282c6.346-3.543,13.464-4.504,20.52-6.247"/>
		<path style="fill:none;stroke:#1D1D1B;stroke-linecap:round;stroke-linejoin:round;stroke-miterlimit:10;" d="M391.47,298.23
			c-4.208,19.184-7.401,38.376-13.075,57.18"/>
		<path style="fill:none;stroke:#1D1D1B;stroke-linecap:round;stroke-linejoin:round;stroke-miterlimit:10;" d="M380.552,307.965
			c-4.167,17.277-7.661,30.987-11.828,48.265"/>
		<path style="fill:none;stroke:#1D1D1B;stroke-linecap:round;stroke-linejoin:round;stroke-miterlimit:10;" d="M136.508,370.44
			c11.607,7.578,25.793,9.844,39.528,11.717c26.378,3.597,53.403,6.376,79.451,0.878c4.48-0.945,8.958-2.138,13.536-2.162
			c2.811-0.014,5.603,0.414,8.394,0.758c16.638,2.053,22.647,2.948,38.96-0.916"/>
		<path style="fill:none;stroke:#1D1D1B;stroke-linecap:round;stroke-linejoin:round;stroke-miterlimit:10;" d="M186.497,333.06
			c1.536,8.12,2.364,16.374,2.473,24.637"/>
		<path style="fill:none;stroke:#1D1D1B;stroke-linecap:round;stroke-linejoin:round;stroke-miterlimit:10;" d="M195.777,333.534
			c0.689,3.7,1.107,7.45,1.252,11.211"/>
		<path style="fill:none;stroke:#1D1D1B;stroke-linecap:round;stroke-linejoin:round;stroke-miterlimit:10;" d="M133.875,318.788
			c1.676,8.435,2.904,16.958,3.676,25.523"/>
		<path style="fill:none;stroke:#1D1D1B;stroke-linecap:round;stroke-linejoin:round;stroke-miterlimit:10;" d="M142.063,319.653
			c1.301,5.833,2.119,11.774,2.444,17.742"/>
		<path style="fill:none;stroke:#1D1D1B;stroke-linecap:round;stroke-linejoin:round;stroke-miterlimit:10;" d="M211.43,332.65
			c1.365,8.446,2.361,16.952,2.986,25.485"/>
		<path style="fill:none;stroke:#1D1D1B;stroke-linecap:round;stroke-linejoin:round;stroke-miterlimit:10;" d="M221.719,332.182
			c0.732,8.076,1.464,16.151,2.196,24.227"/>
		<path style="fill:none;stroke:#1D1D1B;stroke-linecap:round;stroke-linejoin:round;stroke-miterlimit:10;" d="M270.606,330.194
			c1.703,12.243,3.405,23.486,5.108,35.729"/>
		<path style="fill:none;stroke:#1D1D1B;stroke-linecap:round;stroke-linejoin:round;stroke-miterlimit:10;" d="M279.081,333.468
			c1.388,7.761,2.589,15.556,3.6,23.375"/>
		<path style="fill:none;stroke:#1D1D1B;stroke-linecap:round;stroke-linejoin:round;stroke-miterlimit:10;" d="M349.893,318.391
			c-0.194,7.775-0.388,15.549-0.583,23.323"/>
		<path style="fill:none;stroke:#1D1D1B;stroke-linecap:round;stroke-linejoin:round;stroke-miterlimit:10;" d="M357.052,317.117
			c-0.468,6.045-0.936,12.927-1.404,18.972"/>
		<path style="fill:none;stroke:#1D1D1B;stroke-linecap:round;stroke-linejoin:round;stroke-miterlimit:10;" d="M366.151,315.337
			c-0.181,2.445-0.362,4.053-0.543,6.498"/>
	</g>
	<path style="fill:#FFFFFF;stroke:#1D1D1B;stroke-miterlimit:10;" d="M332.327,462.37"/>
	<g>
		<path style="fill:none;stroke:#1D1D1B;stroke-linecap:round;stroke-linejoin:round;stroke-miterlimit:10;" d="M146.941,273.077
			c-9.09-19.604-12.857-41.353-13.496-62.953c-0.638-21.6,1.758-43.167,4.51-64.601"/>
		<path style="fill:none;stroke:#1D1D1B;stroke-linecap:round;stroke-linejoin:round;stroke-miterlimit:10;" d="M133.762,133.732
			c1.569-3.674,3.575-7.459,7.067-9.4c3.04,9.232,5.219,18.85,5.149,28.57c-0.046,6.491-2.659,28.419-14.263,18.555
			C122.777,163.859,130.083,142.347,133.762,133.732z"/>
		<path style="fill:none;stroke:#1D1D1B;stroke-linecap:round;stroke-linejoin:round;stroke-miterlimit:10;" d="M114.531,170.433
			c-0.866-1.324-1.795-2.689-3.177-3.459c-1.382-0.77-3.35-0.732-4.328,0.512c-0.803,1.021-0.706,2.465-0.514,3.75
			c2.607,17.386,15.061,31.426,26.967,44.361c10.292-9.801,18.265-22.021,23.089-35.389c0.444-1.229,0.867-2.526,0.681-3.819
			c-0.186-1.293-1.177-2.567-2.482-2.626c-2.496-0.113-9.6,11.875-10.991,13.963c-1.972,2.961-5.587,13.104-9.507,13.341
			c-4.45,0.27-7.428-9.884-9.179-13.066C121.795,182.014,118.272,176.152,114.531,170.433z"/>
		<path style="fill:none;stroke:#1D1D1B;stroke-linecap:round;stroke-linejoin:round;stroke-miterlimit:10;" d="M104.646,192.811
			c-1.996-2.361-5.051-4.962-7.782-3.514c-2.409,1.277-2.434,4.717-1.745,7.355c2.143,8.216,7.772,15.021,13.458,21.327
			c4.602,5.104,9.347,10.078,14.228,14.916c2.969,2.943,9.763,11.208,13.91,12.61c4.839,1.636,6.771-3.974,10.227-7.14
			c8.653-7.927,13.442-20.744,16.581-32.061c0.463-1.669,0.25-4.206-1.483-4.204c-0.662,0.001-1.231,0.444-1.739,0.869
			c-5.28,4.418-10.214,9.25-14.745,14.433c-2.269,2.595-4.394,5.295-6.489,8.03c-2.641,3.446-2.884,4.788-6.305,2.005
			c-5.373-4.372-9.683-12.514-14.13-17.928C114.024,203.897,109.334,198.354,104.646,192.811z"/>
		<path style="fill:none;stroke:#1D1D1B;stroke-linecap:round;stroke-linejoin:round;stroke-miterlimit:10;" d="M168.822,237.306
			c-0.098,0.496-0.188,0.992-0.273,1.49c-0.002,0.598,0.032,1.195,0.09,1.79c0.04-0.084,0.079-0.17,0.118-0.256
			c-0.001-0.097-0.009-0.194-0.009-0.291C168.744,239.127,168.773,238.216,168.822,237.306z"/>
		<path style="fill:none;stroke:#1D1D1B;stroke-linecap:round;stroke-linejoin:round;stroke-miterlimit:10;" d="M155.479,241.483
			c-2.362,3.541-9.679,16.937-13.93,16.937c-5.316,1.487-12.655-7.732-16.58-10.751c-6.177-4.751-12.629-9.146-19.313-13.153
			c-2.86-1.714-7.452-2.873-8.773,0.189c-0.393,0.912-0.308,1.954-0.15,2.934c0.766,4.743,3.124,9.215,6.607,12.525
			c2.872,2.73,6.412,4.634,9.906,6.505c9.248,4.953,18.496,9.906,27.744,14.858c1.064,0.57,2.168,1.151,3.372,1.237
			c1.552,0.11,3.045-0.625,4.303-1.539c1.9-1.379,3.425-3.167,4.784-5.095"/>
		<path style="fill:none;stroke:#1D1D1B;stroke-linecap:round;stroke-linejoin:round;stroke-miterlimit:10;" d="M113.303,245.877
			c9.61,7.914,20.137,14.714,31.303,20.218c1.708-1.777,2.668-3.466,4.377-5.242"/>
		<path style="fill:none;stroke:#1D1D1B;stroke-linecap:round;stroke-linejoin:round;stroke-miterlimit:10;" d="M150.995,218.56
			c-4.239,7.015-9.542,13.386-15.672,18.827c-8.814-7.145-16.369-15.694-23.879-24.199"/>
		<path style="fill:none;stroke:#1D1D1B;stroke-linecap:round;stroke-linejoin:round;stroke-miterlimit:10;" d="M122.298,191.869
			c3.457,5.651,7.053,11.217,10.784,16.691c5.765-5.586,10.931-11.79,15.382-18.47"/>
	</g>
	<path style="fill:none;stroke:#1D1D1B;stroke-linecap:round;stroke-linejoin:round;stroke-miterlimit:10;" d="M-0.201,313.66
		c13.128,4.484,27.224,5.128,38.81-3.012"/>
	<g>
		<g>
			<path style="fill:#FFFFFF;stroke:#1D1D1B;stroke-miterlimit:10;" d="M380.678,499.935c-0.123-9.483-0.225-19.023,2.423-28.13
				c2.647-9.107,8.5-17.759,17.234-21.455c2.487-1.053,5.245-1.743,7.184-3.623c3.366-3.263,3.012-8.73,5.04-12.958
				c3.468-7.23,12.669-9.151,19.268-13.706c7.135-4.925,11.256-13.097,14.463-21.153c0.674,9.611,1.094,20.146-4.66,27.874
				c-3.912,5.253-10.696,9.514-10.38,16.056c0.074,1.531,0.564,3.01,0.761,4.529c0.543,4.194-1.212,8.425-3.845,11.734
				c-2.633,3.309-6.09,5.848-9.502,8.346c0,0-13.876,24.089-12.199,32.486"/>
			<path style="fill:#FFFFFF;stroke:#1D1D1B;stroke-miterlimit:10;" d="M278.314,499.935c0.208-3.725-3.207-7.214-6.68-8.576
				c-3.473-1.362-7.332-1.796-10.52-3.733c-3.132-1.903-5.305-5.074-8.332-7.14c-7.765-5.299-20.241-2.91-25.418-10.758
				c-3.194-4.841-1.824-11.302-3.273-16.917c-1.47-5.696-5.745-10.187-9.99-14.26c5.303-0.938,10.729,0.955,15.409,3.619
				c4.68,2.664,8.886,6.106,13.606,8.698c2.781,1.527,5.872,2.775,9.034,2.523c1.787-0.142,3.523-0.76,5.317-0.772
				c9.728-0.065,12.762,15.953,22.434,17.001c2.905,0.315,5.747-0.881,8.653-1.183c3.786-0.393,7.713,0.813,10.625,3.263
				c0,0,27.639,15.992,33.147,21.854c5.509,5.862,5.509,6.379,5.509,6.379"/>
			<path style="fill:#FFFFFF;stroke:#1D1D1B;stroke-miterlimit:10;" d="M367.088,499.935c0.791-11.306,1.419-23.237-4.195-33.082
				c-1.842-3.23-4.297-6.088-6.041-9.372c-4.605-8.672-4.093-19.931-10.724-27.173c-3.965-4.331-9.981-6.545-13.411-11.311
				c-2.874-3.994-3.477-9.146-5.389-13.679c-3.642-8.637-11.711-14.447-19.403-19.803c2.994,7.716,6.005,15.496,7.402,23.654
				c0.908,5.303,1.196,10.935,4.037,15.504c2.166,3.484,5.652,6.038,7.594,9.653c4.44,8.267-0.292,20.56,5.37,28.044l9.472,37.565"
				/>
			<path style="fill:#FFFFFF;stroke:#1D1D1B;stroke-miterlimit:10;" d="M359.867,499.935l3.487-32.235
				c3.833-5.038,5.441-11.708,4.325-17.938c-1.089-6.077-4.484-12.804-1.012-17.909c1.966-2.891,5.572-4.142,8.175-6.476
				c5.903-5.291,5.454-14.629,9.158-21.637c4.828-9.136,15.734-12.894,25.634-15.856c-3.96,3.374-7.939,6.82-10.948,11.064
				c-3.01,4.244-5.001,9.425-4.48,14.601c0.246,2.443,1.04,4.85,0.85,7.297c-0.407,5.254-5.103,9.122-6.85,14.094
				c-0.484,1.378-0.736,2.856-0.559,4.306c0.172,1.41,0.739,2.737,1.17,4.091c1.667,5.237,0.059,15.283-2.323,20.235l1.236,36.363"
				/>
			<path style="fill:#FFFFFF;stroke:#1D1D1B;stroke-miterlimit:10;" d="M399.949,499.935c2.513-11.19,5.649-22.591,14.905-29.363
				c3.469-2.538,7.542-4.091,11.557-5.625c11.069-4.23,23.069-9.384,28.329-20.002c2.064-4.167,2.878-8.835,4.584-13.161
				c5.387-13.667,18.748-22.227,31.354-29.771c-1.929,4.507-3.399,9.21-4.382,14.013c-1.38,6.745-1.795,13.661-3.206,20.4
				c-1.411,6.739-3.957,13.488-8.845,18.337c-4.537,4.501-10.645,6.958-16.253,10.024c-5.608,3.066-11.17,7.276-13.027,13.391
				c-0.873,2.877-0.87,6.03-2.227,8.712c-2.39,4.722-8.611,7.812-9.402,13.044"/>
		</g>
		<path style="fill:#FFFFFF;stroke:#1D1D1B;stroke-miterlimit:10;" d="M350.482,499.935c-0.538-6.835-1.093-13.945-3.313-20.431
			c-2.22-6.487-6.323-12.6-12.382-15.81c-3.737-1.98-8.055-2.787-11.587-5.113c-5.111-3.364-7.799-9.374-9.478-15.258
			c-0.952-3.337-1.758-6.912-4.149-9.427c-1.414-1.487-3.265-2.466-5.019-3.531c-6.487-3.937-12.047-9.389-16.112-15.796
			c-6.294-9.921-9.659-22.712-19.873-28.518c6.642,6.023,8.986,15.532,9.133,24.498c0.147,8.965-1.552,17.882-1.457,26.848
			c0.095,8.966,2.32,18.483,8.857,24.621c5.324,4.999,13.091,7.379,17.072,13.502c2.267,3.487,3.045,7.862,5.729,11.039
			c5.371,6.36,16.644,6.036,20.57,13.377"/>
		<path style="fill:none;stroke:#1D1D1B;stroke-linecap:round;stroke-linejoin:round;stroke-miterlimit:10;" d="M480.079,418.283
			c-5.358,7.813-6.593,17.773-11.272,26.01c-3.707,6.525-9.579,11.797-16.465,14.78c-3.339,1.446-7.066,2.478-9.479,5.201
			c-1.831,2.065-2.641,4.832-4.171,7.13c-3.876,5.823-11.573,7.711-16.652,12.52c-4.274,4.047-6.365,10.443-8.273,16.011"/>
		<path style="fill:none;stroke:#1D1D1B;stroke-linecap:round;stroke-linejoin:round;stroke-miterlimit:10;" d="M436.134,422.861
			c-4.789,3.037-9.796,6.307-12.374,11.358c-2.032,3.98-2.299,8.585-3.038,12.991c-0.739,4.407-2.198,9.053-5.781,11.723
			c-2.91,2.169-6.775,2.682-9.774,4.726c-3.205,2.185-5.046,5.843-6.525,9.429c-3.456,8.378-5.682,17.829-6.584,26.848"/>
		<path style="fill:none;stroke:#1D1D1B;stroke-linecap:round;stroke-linejoin:round;stroke-miterlimit:10;" d="M388.398,409.034
			c-0.075,7.67-2.587,15.298-7.086,21.511c-3.052,4.215-7.165,8.216-7.508,13.409c-0.344,5.208,3.311,10.13,2.684,15.311
			c-0.467,3.862-3.255,7.153-3.694,11.019c-0.276,2.43,0.403,4.853,0.717,7.279c0.932,7.218-1.383,15.461-3.666,22.371"/>
		<path style="fill:none;stroke:#1D1D1B;stroke-linecap:round;stroke-linejoin:round;stroke-miterlimit:10;" d="M354.872,499.935
			c0.947-9.771,1.804-20.649-2.396-29.522c-1.786-3.774-4.432-7.13-5.872-11.05c-1.383-3.766-1.585-7.869-2.782-11.698
			c-2.069-6.619-6.915-11.925-10.924-17.584c-4.619-6.522-8.24-13.749-10.7-21.353"/>
		<path style="fill:none;stroke:#1D1D1B;stroke-linecap:round;stroke-linejoin:round;stroke-miterlimit:10;" d="M285.17,425.512
			c0.176,11.668,7.298,22.968,17.749,28.16c3.577,1.777,7.641,2.995,10.237,6.03c3.123,3.651,3.292,8.949,5.422,13.254
			c1.966,3.973,5.699,7.029,9.981,8.172c2.354,0.628,4.857,0.708,7.115,1.623c6.197,2.512,8.328,10.634,9.676,17.184"/>
		<path style="fill:none;stroke:#1D1D1B;stroke-linecap:round;stroke-linejoin:round;stroke-miterlimit:10;" d="M304.408,499.935
			c-1.313-7.675-7.281-14.358-14.759-16.527c-6.234-1.808-13.972-1.101-18.004-6.187c-1.018-1.284-1.671-2.829-2.712-4.095
			c-2.134-2.594-5.612-3.679-8.95-4.049c-3.338-0.37-6.739-0.162-10.038-0.793c-8.16-1.559-14.632-8.126-18.324-15.569"/>
	</g>
	<g>
		<circle style="fill:#FFFFFF;stroke:#1D1D1B;stroke-miterlimit:10;" cx="101.757" cy="410.831" r="10.309"/>
		
			<ellipse transform="matrix(0.7071 -0.7071 0.7071 0.7071 -289.6157 187.727)" style="fill:#FFFFFF;stroke:#1D1D1B;stroke-miterlimit:10;" cx="81.799" cy="443.461" rx="10.309" ry="10.309"/>
		<circle style="fill:#FFFFFF;stroke:#1D1D1B;stroke-miterlimit:10;" cx="138.942" cy="435.821" r="10.309"/>
		<circle style="fill:#FFFFFF;stroke:#1D1D1B;stroke-miterlimit:10;" cx="152.372" cy="468.675" r="10.309"/>
		<circle style="fill:#FFFFFF;stroke:#1D1D1B;stroke-miterlimit:10;" cx="71.49" cy="482.499" r="10.309"/>
		<path style="fill:none;stroke:#1D1D1B;stroke-linecap:round;stroke-linejoin:round;stroke-miterlimit:10;" d="M106.422,419.799
			c7.742,25.811,10.154,53.208,7.039,79.975"/>
		<path style="fill:none;stroke:#1D1D1B;stroke-linecap:round;stroke-linejoin:round;stroke-miterlimit:10;" d="M142.871,471.876
			c-8.165,4.822-16.331,9.643-24.496,14.465c-1.703,1.005-3.445,2.027-5.381,2.429c-2.111,0.438-4.297,0.11-6.428-0.22
			c-8.502-1.315-17.005-2.631-25.507-3.946"/>
		<path style="fill:none;stroke:#1D1D1B;stroke-linecap:round;stroke-linejoin:round;stroke-miterlimit:10;" d="M133.246,444.839
			c-5.679,6.698-12.092,12.773-19.088,18.081c-7.992-4.098-15.767-8.62-23.282-13.539"/>
	</g>
	<g>
		<path style="fill:none;stroke:#1D1D1B;stroke-linecap:round;stroke-linejoin:round;stroke-miterlimit:10;" d="M494.655,323.021
			c0.907-2.13,1.813-4.26,2.72-6.39c-3.801,0.616-7.458,2.109-10.605,4.328c4.464-7.548,7.877-15.716,10.111-24.196
			c-7.475,3.765-14.359,8.699-20.325,14.569c2.877-18.609,4.066-37.479,3.548-56.302c-9.476,13.769-14.517,30.541-14.203,47.253
			c-9.775-18.089-20.482-35.673-32.064-52.662c1.088,24.184,9.206,47.428,17.241,70.264c0,0-28.077-33.938-27.304-32.379
			c2.99,6.03,4.032,12.164,6.58,18.403c2.21,5.41,5.055,13.186,9.202,17.55"/>
		<g>
			<path style="fill:none;stroke:#1D1D1B;stroke-linecap:round;stroke-linejoin:round;stroke-miterlimit:10;" d="M499.039,61.485
				c-23.584,0.108-48.848,4.151-65.975,20.364c-13.614,12.886-20.034,31.577-24.053,49.886c-8.471,38.588-9.182,85.893-9.062,125.4"
				/>
			<path style="fill:none;stroke:#1D1D1B;stroke-linecap:round;stroke-linejoin:round;stroke-miterlimit:10;" d="M402.674,170.961
				c-2.742-5.159-10.047-5.238-15.782-4.123c-9.965,1.937-20.021,5.576-27.058,12.894c-8.065,8.387-11.057,20.382-12.565,31.919
				c-1.124,8.6-0.859,4.965-0.683,13.636"/>
			<path style="fill:none;stroke:#1D1D1B;stroke-linecap:round;stroke-linejoin:round;stroke-miterlimit:10;" d="M442.401,74.683
				c-10.51,31.581-15.956,64.841-16.067,98.125"/>
			<path style="fill:none;stroke:#1D1D1B;stroke-linecap:round;stroke-linejoin:round;stroke-miterlimit:10;" d="M459.649,66.883
				c-11.666,42.693-18.422,85.888-20.092,130.115"/>
			<path style="fill:none;stroke:#1D1D1B;stroke-linecap:round;stroke-linejoin:round;stroke-miterlimit:10;" d="M470.8,64.625
				c-11.441,59.395-16.967,119.888-17.324,180.374"/>
			<path style="fill:none;stroke:#1D1D1B;stroke-linecap:round;stroke-linejoin:round;stroke-miterlimit:10;" d="M383.081,167.968
				c-3.627,19.828-5.612,39.118-5.929,59.273"/>
			<path style="fill:none;stroke:#1D1D1B;stroke-linecap:round;stroke-linejoin:round;stroke-miterlimit:10;" d="M374.727,171.018
				c-2.954,16.223-3.993,31.121-3.091,47.586"/>
			<path style="fill:none;stroke:#1D1D1B;stroke-linecap:round;stroke-linejoin:round;stroke-miterlimit:10;" d="M366.836,174.63
				c-2.102,7.979-3.734,15.082-4.885,23.253"/>
			<path style="fill:none;stroke:#1D1D1B;stroke-linecap:round;stroke-linejoin:round;stroke-miterlimit:10;" d="M378.911,168.071
				c-6.586-7.768-11.649-15.821-14.82-25.499c7.17,6.638,14.478,13.126,21.919,19.46c-1.129-6.263-2.258-12.525-3.387-18.788
				c-1.152-6.388-2.282-13.109-0.174-19.248c6.046,7.662,6.017,19.069,12.77,26.117c0.329-10.502,0.756-21.401,5.546-30.754
				c0.886,5.754,2.031,11.467,3.43,17.118c0.94-2.194,2.284-4.214,3.946-5.927c0.359,1.138-1.541,10.331-1.182,11.468"/>
		</g>
	</g>
	<g>
		<path style="fill:none;stroke:#1D1D1B;stroke-linecap:round;stroke-linejoin:round;stroke-miterlimit:10;" d="M342.827,15.332
			c-11.199,6.935-18.019,20.376-17.005,33.509c-5.014-4.821-13.245-5.89-19.324-2.509s-9.514,10.937-8.064,17.74
			c-2.731-3.048-7.953-2.443-11.099,0.175c-3.146,2.618-4.729,6.614-6.192,10.436c46.92-1.064,93.839-2.129,140.759-3.194
			c0.098-6.978-0.024-14.614-4.497-19.971c-4.473-5.357-14.975-5.578-17.146,1.054c3.533-4.001,6.043-9.703,4.023-14.643
			c-2.023-4.948-9.114-6.304-12.358-2.115c8.426-8.486-2.162-21.272-10.89-23.937C369.388,8.322,353.186,8.916,342.827,15.332z"/>
		<path style="fill:none;stroke:#1D1D1B;stroke-linecap:round;stroke-linejoin:round;stroke-miterlimit:10;" d="M122.38,38.637
			c-1.136-3.53-5.444-5.103-9.129-4.694c-6.225,0.69-11.627,6.021-12.4,12.236c-4.895-2.326-11.403-0.372-14.206,4.267
			c2.825,3.743,8.197,4.146,12.886,4.221c26.253,0.419,52.506,0.839,78.759,1.258c1.01-5,1.961-10.463-0.403-14.983
			c-2.364-4.52-9.583-6.566-12.532-2.405c6.874-9.7-11.904-20.64-19.084-21.122C132.541,16.492,120.477,23.111,122.38,38.637z"/>
	</g>
	<g>
		<path style="fill:none;stroke:#1D1D1B;stroke-linecap:round;stroke-linejoin:round;stroke-miterlimit:10;" d="M70.338,400.794
			c-2.717-20.416-0.401-42.975,6.406-62.414"/>
		<path style="fill:none;stroke:#1D1D1B;stroke-linecap:round;stroke-linejoin:round;stroke-miterlimit:10;" d="M63.878,400.606
			c-3.365-18.419-8.289-36.554-14.702-54.145"/>
		<path style="fill:#FFFFFF;stroke:#1D1D1B;stroke-miterlimit:10;" d="M68.005,359.879c0.359,1.915,1.246,4.192,3.182,4.411
			c0.838,0.095,1.667-0.255,2.377-0.71c2.39-1.531,3.787-4.196,4.863-6.822c3.15-7.685,4.452-16.12,3.767-24.398
			c-0.261-3.155-2.095-8.266-6.372-6.82c-3.039,1.027-4.677,6.711-5.66,9.378C67.244,342.846,66.447,351.568,68.005,359.879z"/>
		<path style="fill:#FFFFFF;stroke:#1D1D1B;stroke-miterlimit:10;" d="M53.329,371.544c1.079,1.622,2.786,3.371,4.653,2.815
			c0.808-0.241,1.435-0.886,1.91-1.583c1.601-2.344,1.846-5.342,1.809-8.18c-0.105-8.305-2.204-16.578-6.07-23.929
			c-1.474-2.802-5.159-6.789-8.531-3.787c-2.396,2.134-1.681,8.005-1.543,10.845C45.97,356.164,48.646,364.504,53.329,371.544z"/>
		<path style="fill:none;stroke:#1D1D1B;stroke-linecap:round;stroke-linejoin:round;stroke-miterlimit:10;" d="M69.531,383.723
			c2.515-7.307,6.046-14.262,10.459-20.605c1.189-1.708,2.684-3.517,4.754-3.728c2.065-0.211,3.886,1.247,5.446,2.616
			c5.948,5.218,11.896,10.435,17.843,15.653c-4.41,1.552-9.429,0.151-13.272-2.512c-3.843-2.663-9.558-11.012-12.389-14.733"/>
		<path style="fill:none;stroke:#1D1D1B;stroke-linecap:round;stroke-linejoin:round;stroke-miterlimit:10;" d="M85.666,365.76
			c-7.505,7.514-14.811,19.718-15.866,30.285"/>
		<path style="fill:none;stroke:#1D1D1B;stroke-linecap:round;stroke-linejoin:round;stroke-miterlimit:10;" d="M77.253,329.909
			c1.243-3.701,2.292-7.467,3.141-11.278"/>
		<path style="fill:none;stroke:#1D1D1B;stroke-linecap:round;stroke-linejoin:round;stroke-miterlimit:10;" d="M46.909,329.613
			c1.092,3.236,2.184,6.472,3.275,9.708"/>
		<path style="fill:none;stroke:#1D1D1B;stroke-linecap:round;stroke-linejoin:round;stroke-miterlimit:10;" d="M62.495,394.91
			c-4.373-8.768-10.777-16.516-18.565-22.462c-2.8-2.138-6.429-4.124-9.682-2.773c-1.978,0.821-3.282,2.692-4.514,4.444
			c-5.201,7.396-11.486,14.614-19.99,17.684c6.985,2.216,15.111,0.333,20.409-4.728c3.848-3.676,9.573-11.362,13.778-14.626"/>
		<path style="fill:none;stroke:#1D1D1B;stroke-linecap:round;stroke-linejoin:round;stroke-miterlimit:10;" d="M63.86,399.9
			c-6.682-8.724-15.135-15.9-23.518-23.004"/>
		<path style="fill:none;stroke:#1D1D1B;stroke-linecap:round;stroke-linejoin:round;stroke-miterlimit:10;" d="M56.661,398.552
			c6.413,4.028,15.378,3.458,21.23-1.35"/>
		<path style="fill:none;stroke:#1D1D1B;stroke-linecap:round;stroke-linejoin:round;stroke-miterlimit:10;" d="M76.477,367.81
			c-1.882,0.309-3.807,0.633-5.476,1.556c-2.042,1.129-3.61,3.107-5.837,3.803c-1.233,0.386-2.555,0.337-3.847,0.285
			c-0.489-0.02-0.977-0.039-1.466-0.059"/>
		<path style="fill:none;stroke:#1D1D1B;stroke-linecap:round;stroke-linejoin:round;stroke-miterlimit:10;" d="M54.236,372.84
			c-2.757-0.223-5.554,0.053-8.214,0.813"/>
		<path style="fill:none;stroke:#1D1D1B;stroke-linecap:round;stroke-linejoin:round;stroke-miterlimit:10;" d="M27.686,376.078
			c-7.372,2.419-15.419,0.042-23.145,0.742c-1.341,0.121-2.683,0.339-3.948,0.8"/>
	</g>
	<g>
		<g>
			<path style="fill:none;stroke:#1D1D1B;stroke-linecap:round;stroke-linejoin:round;stroke-miterlimit:10;" d="M47.437,87.282
				c-2.245,6.145-2.7,12.775-3.135,19.303c-3.563-2.267-8.079-3.47-12.063-2.066c-3.983,1.403-6.921,5.987-5.539,9.978
				c-0.236-1.79-2.894-1.761-4.507-0.95c-3.381,1.7-6.127,4.629-7.606,8.112c2.796,2.875,7.222,3.218,11.229,3.37
				c27.984,1.063,55.991,1.507,83.994,1.33c0.208-6.338-0.684-13.146-4.855-17.922c-4.171-4.776-12.481-6.258-16.783-1.601
				c0.851-2.2,1.714-4.465,1.703-6.824c-0.011-2.359-1.097-4.868-3.226-5.883c-2.129-1.015-5.207,0.167-5.553,2.5
				c1.729-1.467,2.036-4.331,0.656-6.13c-1.38-1.799-4.226-2.247-6.09-0.957c4.388-8.008,1.597-19.845-8.619-17.951
				C57.468,73.366,50.911,77.774,47.437,87.282z"/>
			<path style="fill:none;stroke:#1D1D1B;stroke-linecap:round;stroke-linejoin:round;stroke-miterlimit:10;" d="M49.689,126.156
				c-2.051,12.102-7.455,22.617-16.575,30.831c-9.121,8.215-21.06,13.239-33.31,14.018"/>
			<path style="fill:none;stroke:#1D1D1B;stroke-linecap:round;stroke-linejoin:round;stroke-miterlimit:10;" d="M57.892,126.092
				c0.582,14.796-7.109,29.124-18.194,38.941c-11.085,9.817-25.246,15.566-39.633,19.071"/>
			<path style="fill:none;stroke:#1D1D1B;stroke-linecap:round;stroke-linejoin:round;stroke-miterlimit:10;" d="M55.963,141.277
				c1.59,0.215,3.182-0.287,4.7-0.807c3.807-1.306,7.617-2.803,10.815-5.247c3.198-2.444,5.753-5.133,6.231-9.129"/>
			<path style="fill:none;stroke:#1D1D1B;stroke-linecap:round;stroke-linejoin:round;stroke-miterlimit:10;" d="M87.296,126.182
				c-2.012,7.634-7.349,14.146-13.931,18.506c-6.582,4.36-14.339,6.701-22.159,7.78"/>
		</g>
		<path style="fill:none;stroke:#1D1D1B;stroke-linecap:round;stroke-linejoin:round;stroke-miterlimit:10;" d="M0.066,209.526
			c12.702-10.201,23.613-5.698,30.179,2.534c6.566,8.232,8.508,19.169,9.462,29.655c2.083,22.912,0.493,45.981-1.098,68.933"/>
		<path style="fill:none;stroke:#1D1D1B;stroke-linecap:round;stroke-linejoin:round;stroke-miterlimit:10;" d="M39.58,306.186
			c3.068,1.349,6.389,2.03,9.712,2.469c10.918,1.441,22.041,1.155,32.463-2.401c0.135-14.797,0.228-29.891-4.291-43.982
			c-2.299-7.17-6.934-14.835-14.406-15.759c-3.596-0.445-7.183,0.81-10.465,2.345c-5.168,2.418-10.354,6.065-11.878,11.563"/>
		<path style="fill:none;stroke:#1D1D1B;stroke-linecap:round;stroke-linejoin:round;stroke-miterlimit:10;" d="M37.719,230.692
			c-0.069-9.08,1.582-18.169,4.842-26.644c1.549-4.028,3.58-8.07,7.021-10.674c0.605-0.458,1.34-0.885,2.082-0.724
			c1.062,0.23,1.51,1.483,1.679,2.556c1.601,10.184-5.193,19.727-6.611,29.939c5.768-10.227,14.307-18.874,24.461-24.771
			c0.741-0.43,1.581-0.861,2.415-0.668c2.076,0.479,1.58,3.589,0.52,5.437c-6.197,10.794-14.872,19.917-23.461,28.925
			c8.995-5.542,18.943-9.532,29.275-11.741c1.548-0.331,3.322-0.576,4.577,0.39c1.377,1.059,1.471,3.21,0.667,4.749
			c-0.805,1.54-2.277,2.602-3.72,3.569c-6.022,4.034-12.469,7.435-19.199,10.127c3.394-0.309,6.789-0.618,10.183-0.928
			c2.88-0.262,6.875,0.387,6.959,3.278c0.056,1.917-1.833,3.241-3.5,4.19c-1.567,0.893-3.134,1.785-4.701,2.678"/>
		<path style="fill:none;stroke:#1D1D1B;stroke-linecap:round;stroke-linejoin:round;stroke-miterlimit:10;" d="M23.571,206.585
			c2.019,3.483,2.311,8.668,2.555,12.686c1.028,16.908,2.055,33.817,3.083,50.725"/>
		<path style="fill:none;stroke:#1D1D1B;stroke-linecap:round;stroke-linejoin:round;stroke-miterlimit:10;" d="M54.649,248.656
			c-1.495,12.885-1.959,25.89-1.384,38.848"/>
		<path style="fill:none;stroke:#1D1D1B;stroke-linecap:round;stroke-linejoin:round;stroke-miterlimit:10;" d="M64.069,246.676
			c1.178,7.706,1.472,15.547,0.875,23.32"/>
		<path style="fill:none;stroke:#1D1D1B;stroke-linecap:round;stroke-linejoin:round;stroke-miterlimit:10;" d="M70.377,308.959
			c0.928-5.809,0.687-11.802-0.705-17.517"/>
	</g>
	<path style="fill:none;stroke:#1D1D1B;stroke-linecap:round;stroke-linejoin:round;stroke-miterlimit:10;" d="M350.818,273.96
		c-0.154,3.619,0.086,7.254,0.715,10.821"/>
</g>
</svg>
