<?xml version="1.0" encoding="utf-8"?>
<!-- Generator: Adobe Illustrator 27.5.0, SVG Export Plug-In . SVG Version: 6.00 Build 0)  -->
<svg xmlns="http://www.w3.org/2000/svg" xmlns:xlink="http://www.w3.org/1999/xlink" viewBox="0 0 2448 3168" width="595" height="842" preserveAspectRatio="xMidYMid meet" data-scaled="true">
<rect style="fill:#FFFFFF;" width="2448" height="3168"/>
<g>
	<g>
		<rect x="140.667" y="2808.026" width="2166.667" height="10.626"/>
	</g>
	<g>
		<rect x="140.667" y="2727.528" width="2166.667" height="10.627"/>
	</g>
	<g>
		<g>
			
				<rect x="340.109" y="2201.789" transform="matrix(-1 -1.224647e-16 1.224647e-16 -1 819.1796 4465.3384)" style="fill:#FFFFFF;stroke:#000000;stroke-width:10.6263;stroke-linejoin:round;stroke-miterlimit:10;" width="138.961" height="61.761"/>
			
				<rect x="304.082" y="2160.615" transform="matrix(-1 -1.224647e-16 1.224647e-16 -1 680.2183 4469.4561)" style="fill:#FFFFFF;stroke:#000000;stroke-width:10.6263;stroke-linejoin:round;stroke-miterlimit:10;" width="72.054" height="148.226"/>
			<g>
				<path style="fill:#FFFFFF;stroke:#000000;stroke-width:10.6263;stroke-linejoin:round;stroke-miterlimit:10;" d="
					M625.363,1535.769v424.083c0,39.226,31.499,70.992,70.395,70.992h530.396c12.747,0,24.698-3.397,35-9.389
					c21.129-12.254,35.395-35.23,35.395-61.603v-424.083c0-39.226-31.499-70.992-70.396-70.992H695.758
					c-17.567,0-33.613,6.46-45.961,17.249C634.805,1495.012,625.363,1514.259,625.363,1535.769z"/>
				<g>
					<path style="fill:#FFFFFF;stroke:#000000;stroke-width:10.6263;stroke-linejoin:round;stroke-miterlimit:10;" d="
						M1118.94,1952.198c11.021,1.921,24.262,5.253,27.424,15.984c1.781,6.045-0.574,12.725-4.643,17.538
						c-4.069,4.813-9.644,8.076-15.221,11.011c-25.3,13.315-53.115,21.83-81.532,24.961c-4.279,0.471-8.702,0.809-12.808-0.482
						c-6.364-2.001-10.914-7.555-14.506-13.176c-12.993-20.33-18.191-46.473-11.586-69.921c4.279-15.189,8.968-15.654,22.842-10.438
						c13.642,5.128,27.512,9.65,41.55,13.565C1086.426,1945.691,1102.612,1949.351,1118.94,1952.198z"/>
					<path style="fill:#FFFFFF;stroke:#000000;stroke-width:10.6263;stroke-linejoin:round;stroke-miterlimit:10;" d="
						M1267.14,1800.107c-12.503,106.281-163.415,95.814-239.73,80.105c-1.594,20.473,1.098,41.443,5.614,61.952
						c1.824,8.271,3.967,16.453,6.216,24.494c10.874,38.627,25.007,77.254,24.6,117.368c-0.62,63.475-39.547,123.23-93.476,156.685
						c-53.929,33.455-120.804,42.364-183.534,32.764c-59.543-9.121-115.721-33.916-167.223-65.298
						c-2.763-1.665-5.508-3.348-8.235-5.083c-30.303-19.039-59.596-40.681-81.929-68.646c-20.845-26.105-35.315-58.392-35.988-91.67
						c-0.071-3.471,3.33-5.986,6.606-4.835c14.611,5.154,29.222,10.29,43.851,15.426c7.19,2.533,14.399,5.065,21.607,7.598
						c9.723,3.418,19.464,6.836,29.187,10.272c0.496,0.159,0.956,0.336,1.435,0.496c7.686,2.674,15.745,5.313,23.856,7.367
						c9.44,2.391,19.021,4.02,28.319,4.091c9.617,0.053,18.933-1.559,27.505-5.703c1.735-0.85,3.471-1.789,5.154-2.852
						c7.74-4.906,13.619-11.423,18.171-18.968c9.794-16.258,13.478-37.316,16.967-57.311c0.62-3.489,1.222-6.943,1.859-10.325
						c0.088-0.46,0.177-0.903,0.266-1.364c1.594-8.554,3.347-17.002,5.295-25.379v-0.018c2.71-11.813,5.844-23.449,9.493-34.801
						c0.035-0.106,0.071-0.23,0.106-0.336c2.568-7.987,5.402-15.833,8.519-23.52c0.071-0.177,0.142-0.354,0.212-0.531
						c4.924-12.097,10.591-23.75,17.162-34.925c3.861-6.553,8.041-12.946,12.574-19.127c4.445-6.093,9.227-11.972,14.381-17.657
						c0.159-0.177,0.319-0.336,0.478-0.496c-3.028-10.13-5.827-20.332-8.324-30.533c-5.526-22.368-9.706-44.772-12.114-66.68
						c-2.267-20.633-2.993-40.823-1.789-60.145c1.913-30.816,8.731-59.366,21.908-83.753
						c25.007-46.313,72.932-77.661,153.816-81.291c191.433-8.625,206.948,144.854,206.948,144.854
						c35.97,6.305,77.413,14.186,100.242,45.693C1268.043,1726.874,1271.125,1766.298,1267.14,1800.107z"/>
					<path style="fill:#FFFFFF;stroke:#000000;stroke-width:10.6263;stroke-linejoin:round;stroke-miterlimit:10;" d="
						M843.008,1887.19c-1.01,6.553-7.155,10.095-12.628,12.22c-28.426,11.14-59.738,12.185-88.73,3.206
						c0.071-0.177,0.142-0.354,0.212-0.531c4.924-12.097,10.591-23.75,17.162-34.925c3.861-6.553,8.041-12.946,12.574-19.127
						c18.561,7.013,37.086,14.009,55.629,21.04C834.949,1871.977,844.389,1877.945,843.008,1887.19z"/>
					<path style="fill:#FFFFFF;stroke:#000000;stroke-width:10.6263;stroke-linejoin:round;stroke-miterlimit:10;" d="
						M824.589,1988.796c-1.984,6.553-9.422,9.227-15.922,9.705c-12.752,0.903-25.804-3.276-35.899-11.53
						c-6.482-5.26-13.07-12.557-21.164-11.405c-4.534,0.62-8.271,3.878-12.238,6.27c-6.446,3.879-13.796,5.349-21.128,4.835
						c1.594-8.554,3.347-17.002,5.295-25.379v-0.018c2.71-11.813,5.844-23.449,9.493-34.801c0.035-0.106,0.071-0.23,0.106-0.336
						c29.524,8.413,57.488,23.006,81.539,42.948C820.586,1974.007,826.873,1981.215,824.589,1988.796z"/>
					<g>
						<path d="M1171.284,1751.536c0.818-0.034,1.574-0.383,2.129-0.985c0.555-0.602,0.842-1.384,0.808-2.203
							c-0.296-7.186-5.782-13.912-12.759-15.646c-6.987-1.739-14.978,1.634-18.603,7.847c-0.853,1.459-0.358,3.339,1.1,4.191
							c0.707,0.412,1.534,0.523,2.321,0.317c0.794-0.207,1.458-0.712,1.87-1.418c2.307-3.948,7.389-6.094,11.832-4.99
							c4.438,1.102,7.927,5.38,8.115,9.947c0.066,1.649,1.41,2.941,3.061,2.941L1171.284,1751.536z"/>
						<path d="M1238.295,1721.068c-5.714-3.467-13.731-2.661-18.641,1.874c-4.914,4.533-6.358,12.458-3.36,18.433
							c0.524,1.044,1.574,1.691,2.741,1.691c0.479,0,0.941-0.109,1.375-0.326c1.505-0.757,2.117-2.599,1.363-4.112
							c-1.818-3.624-0.941-8.432,2.037-11.182c2.978-2.751,7.842-3.238,11.31-1.135c1.444,0.874,3.333,0.411,4.211-1.036
							C1240.203,1723.827,1239.738,1721.94,1238.295,1721.068z"/>
						<path d="M1218.753,1812.817c-0.739-0.361-1.57-0.409-2.344-0.144c-14.009,4.816-30.758,0.521-40.732-10.448
							c-1.136-1.241-3.077-1.337-4.324-0.203c-0.607,0.55-0.962,1.303-1.001,2.12c-0.038,0.819,0.244,1.603,0.794,2.209
							c8.193,9.013,20.665,14.393,33.363,14.393c4.824,0,9.499-0.765,13.895-2.276c1.595-0.55,2.447-2.297,1.901-3.889
							C1220.04,1813.803,1219.49,1813.177,1218.753,1812.817z"/>
					</g>
					<g>
						<g>
							<path d="M1033.339,1660.275c-6.343-9.099-18.861-11.333-27.96-4.989c-9.099,6.344-11.333,18.862-4.989,27.96
								c6.343,9.099,18.861,11.333,27.96,4.989C1037.449,1681.892,1039.683,1669.373,1033.339,1660.275z"/>
							<path style="fill:#FFFFFF;" d="M1030.594,1670.604c-1.586-2.274-4.715-2.833-6.99-1.247c-2.275,1.586-2.833,4.715-1.247,6.99
								c1.586,2.275,4.716,2.833,6.99,1.247C1031.622,1676.008,1032.18,1672.879,1030.594,1670.604z"/>
						</g>
					</g>
					<g>
						<g>
							<path d="M1125.06,1626.763c-5.803-8.323-17.255-10.367-25.578-4.564c-8.323,5.803-10.367,17.254-4.564,25.577
								c5.803,8.324,17.254,10.367,25.578,4.564C1128.819,1646.537,1130.863,1635.086,1125.06,1626.763z"/>
							<path style="fill:#FFFFFF;" d="M1122.549,1636.212c-1.45-2.081-4.313-2.592-6.394-1.141
								c-2.081,1.451-2.592,4.313-1.141,6.394c1.451,2.081,4.314,2.592,6.394,1.141
								C1123.489,1641.156,1124,1638.292,1122.549,1636.212z"/>
						</g>
					</g>
					<path style="fill:#FFFFFF;stroke:#000000;stroke-width:10.6263;stroke-linejoin:round;stroke-miterlimit:10;" d="
						M764.229,1672.526c17.263,1.19,34.87,1.156,52.254,0.811c6.795-0.121,13.848-0.363,19.729-2.381
						c5.863-2.017,10.088-6.415,7.622-10.209c-2.208-3.466-8.657-5.07-14.055-6.88c-5.398-1.793-10.916-5.139-9.122-8.692
						c1.552-3.138,7.864-4.38,13.313-4.673c11.313-0.638,22.764,0.62,34.008-0.242c11.261-0.862,23.178-4.69,25.799-11.313
						c3.76-9.501-12.83-17.159-27.454-21.488c-25.73-7.64-52.616-13.9-80.174-18.694
						C772.955,1613.151,766.144,1641.709,764.229,1672.526z"/>
					<path style="fill:#FFFFFF;stroke:#000000;stroke-width:10.6263;stroke-linejoin:round;stroke-miterlimit:10;" d="
						M766.023,1732.661c2.414,21.919,6.588,44.321,12.106,66.688c6.743-0.742,13.106-2.259,18.435-4.829
						c10.209-4.949,14.676-14.625,6.95-20.97c23.799-1.328,47.666-2.639,71.499-3.966c5.674-0.31,11.692-0.69,16.262-2.725
						c9.192-4.07,8.019-13.141,0.448-18.28c-7.519-5.157-19.194-7.295-30.283-8.933
						C830.279,1735.057,798.151,1732.73,766.023,1732.661z"/>
					<path style="fill:#FFFFFF;" d="M987.16,1942.21c8.892,3.283,18.983,7.283,22.194,16.201
						c3.931,10.919-4.91,22.194-14.169,29.189c-32.037,24.203-74.286,28.848-114.257,32.642c-4.051,0.385-8.345,0.728-11.995-1.071
						c-5.928-2.922-7.965-10.215-9.359-16.675c-4.439-20.578-8.711-41.732-5.518-62.54c1.982-12.917,7.308-25.721,16.059-35.533
						c10.852-12.168,18.442-14.497,31.711-5.693C928.507,1916.436,957.112,1931.115,987.16,1942.21z"/>
					<g>
						<path d="M875.945,2025.864c-3.013,0-6.282-0.408-9.362-1.929c-2.632-1.299-3.713-4.485-2.414-7.115
							c1.299-2.634,4.486-3.713,7.115-2.414c2.229,1.102,5.329,0.91,9.142,0.548c35.535-3.374,79.76-7.572,111.556-31.594
							c7.871-5.944,15.253-15.147,12.373-23.148c-2.297-6.38-10.315-9.798-19.035-13.016c-30.018-11.085-59.099-25.9-86.431-44.036
							c-4.203-2.788-7.603-4.229-10.396-4.402c-2.928-0.182-5.156-2.703-4.974-5.631c0.181-2.93,2.698-5.157,5.631-4.974
							c4.772,0.296,9.734,2.25,15.612,6.152c26.649,17.681,54.991,32.123,84.238,42.922c8.438,3.115,21.19,7.823,25.353,19.387
							c4.106,11.405-1.863,24.573-15.965,35.226c-34.198,25.838-80.087,30.193-116.959,33.693
							C879.798,2025.687,877.927,2025.864,875.945,2025.864z"/>
					</g>
				</g>
				<path style="fill:#FFFFFF;stroke:#000000;stroke-width:10.6263;stroke-linejoin:round;stroke-miterlimit:10;" d="
					M1040.586,376.625c68.458-47.836,162.734-31.12,210.572,37.339c21.189,30.322,29.658,65.701,26.633,99.874
					c35.391,2.316,69.452,20.027,91.347,51.361c38.27,54.767,24.898,130.188-29.869,168.458
					c-20.285,14.174-43.403,21.227-66.416,21.754c-10.087,14.915-22.882,28.348-38.523,39.277
					c-68.458,47.838-162.735,31.122-210.573-37.336c-6.549-9.373-11.774-19.257-15.937-29.411
					c-51.241,21.068-111.996,4.732-145.055-42.574c-38.27-54.767-24.895-130.188,29.871-168.458
					c25.352-17.715,55.11-24.233,83.579-20.833C977.629,449.97,999.869,405.077,1040.586,376.625z"/>
				<polygon style="fill:#FFFFFF;stroke:#000000;stroke-width:10.6263;stroke-linejoin:round;stroke-miterlimit:10;" points="
					1578.636,1712.718 1618.876,2044.553 1840.064,2044.553 1846.264,1993.311 1880.304,1712.718 				"/>
				<path style="fill:#FFFFFF;stroke:#000000;stroke-width:10.6263;stroke-linejoin:round;stroke-miterlimit:10;" d="
					M1572.455,1757.968h314.032c17.411,0,31.526-14.115,31.526-31.527v-12.364c0-17.412-14.116-31.527-31.527-31.527h-314.03
					c-17.412,0-31.527,14.115-31.527,31.527v12.362C1540.927,1743.854,1555.042,1757.968,1572.455,1757.968z"/>
				
					<ellipse style="fill:#FFFFFF;stroke:#000000;stroke-width:10.6263;stroke-linejoin:round;stroke-miterlimit:10;" cx="1959.338" cy="2300.042" rx="157.549" ry="291.853"/>
				<path style="fill:#FFFFFF;stroke:#000000;stroke-width:10.6263;stroke-linejoin:round;stroke-miterlimit:10;" d="
					M1968.842,2401.39l-1.757-393.203l-407.717-7.284c-70.045-7.851-125.782-62.349-135.182-132.238l-57.287-425.436
					c-9.762-72.886-71.957-127.228-145.462-127.228H613.297c-54.497,0-102.02,29.651-127.331,73.713
					c-12.397,21.54-19.474,46.49-19.474,73.093v940.545c0,105.531,85.593,191.125,191.126,191.125h1312.05L1968.842,2401.39z
					 M1296.549,1959.852c0,26.373-14.266,49.349-35.395,61.603c-10.302,5.992-22.254,9.389-35,9.389H695.758
					c-38.896,0-70.395-31.766-70.395-70.993v-424.083c0-21.51,9.443-40.757,24.434-53.742c12.347-10.789,28.394-17.25,45.961-17.25
					h530.396c38.897,0,70.396,31.767,70.396,70.992V1959.852z"/>
				<path style="fill:#FFFFFF;stroke:#000000;stroke-width:10.6263;stroke-linejoin:round;stroke-miterlimit:10;" d="
					M447.303,1429.646h963.012c22.211,0,40.216-21.419,40.216-47.842v-39.51c0-26.423-18.005-47.843-40.216-47.843
					c-138.059-24.807-300.127-43.016-481.505-43.016c-181.378,0-343.447,18.208-481.506,43.016c-2.678,0-16.924,0.32-28.436,14.013
					c-7.279,8.658-11.779,20.618-11.779,33.83v39.51C407.088,1408.226,425.093,1429.646,447.303,1429.646z"/>
				<path style="fill:#FFFFFF;stroke:#000000;stroke-width:10.6263;stroke-linejoin:round;stroke-miterlimit:10;" d="
					M432.022,2591.896h1659.82c28.76,0,52.076-23.315,52.076-52.076v-45.65c0-28.76-23.315-52.075-52.075-52.075H432.023
					c-28.76,0-52.075,23.315-52.075,52.075v45.651C379.948,2568.581,403.262,2591.896,432.022,2591.896z"/>
				
					<ellipse transform="matrix(0.7071 -0.7071 0.7071 0.7071 -1507.8196 1275.5961)" style="fill:#FFFFFF;stroke:#000000;stroke-width:10.6263;stroke-linejoin:round;stroke-miterlimit:10;" cx="785.871" cy="2457.897" rx="319.379" ry="319.379"/>
				
					<circle style="fill:#FFFFFF;stroke:#000000;stroke-width:10.6263;stroke-linejoin:round;stroke-miterlimit:10;" cx="785.871" cy="2457.897" r="143.006"/>
				<path style="fill:#FFFFFF;stroke:#000000;stroke-width:10.6263;stroke-linejoin:round;stroke-miterlimit:10;" d="
					M843.074,2457.897c0,31.592-25.61,57.202-57.203,57.202c-31.591,0-57.201-25.611-57.201-57.202s25.61-57.202,57.201-57.202
					C817.463,2400.696,843.074,2426.306,843.074,2457.897z"/>
				
					<ellipse transform="matrix(0.7071 -0.7071 0.7071 0.7071 -1412.5657 1715.7435)" style="fill:#FFFFFF;stroke:#000000;stroke-width:10.6263;stroke-linejoin:round;stroke-miterlimit:10;" cx="1364.803" cy="2562.99" rx="215.066" ry="215.066"/>
				
					<ellipse transform="matrix(0.7071 -0.7071 0.7071 0.7071 -1412.5658 1715.7434)" style="fill:#FFFFFF;stroke:#000000;stroke-width:10.6263;stroke-linejoin:round;stroke-miterlimit:10;" cx="1364.803" cy="2562.99" rx="96.298" ry="96.298"/>
				<path style="fill:#FFFFFF;stroke:#000000;stroke-width:10.6263;stroke-linejoin:round;stroke-miterlimit:10;" d="
					M1403.321,2562.99c0,21.274-17.245,38.519-38.519,38.519c-21.274,0-38.52-17.245-38.52-38.519
					c0-21.274,17.246-38.52,38.52-38.52C1386.076,2524.469,1403.321,2541.715,1403.321,2562.99z"/>
				
					<ellipse transform="matrix(0.7071 -0.7071 0.7071 0.7071 -1270.3479 2059.0879)" style="fill:#FFFFFF;stroke:#000000;stroke-width:10.6263;stroke-linejoin:round;stroke-miterlimit:10;" cx="1850.365" cy="2562.99" rx="215.066" ry="215.066"/>
				
					<ellipse transform="matrix(0.9975 -0.0709 0.0709 0.9975 -177.0323 137.6182)" style="fill:#FFFFFF;stroke:#000000;stroke-width:10.6263;stroke-linejoin:round;stroke-miterlimit:10;" cx="1850.365" cy="2562.99" rx="96.298" ry="96.298"/>
				<path style="fill:#FFFFFF;stroke:#000000;stroke-width:10.6263;stroke-linejoin:round;stroke-miterlimit:10;" d="
					M1888.884,2562.99c0,21.274-17.245,38.519-38.519,38.519s-38.52-17.245-38.52-38.519c0-21.274,17.246-38.52,38.52-38.52
					S1888.884,2541.715,1888.884,2562.99z"/>
				<path style="fill:#FFFFFF;stroke:#000000;stroke-width:10.6263;stroke-linejoin:round;stroke-miterlimit:10;" d="
					M1627.995,1352.176c0-33.541,27.191-60.731,60.732-60.731c14.067,0,26.978,4.826,37.273,12.852
					c13.92-17.099,35.118-28.036,58.885-28.036c41.928,0,75.916,33.988,75.916,75.915c0,22.355-9.724,42.391-25.101,56.283
					c20.78,9.646,35.221,30.641,35.221,55.058c0,33.541-27.19,60.732-60.731,60.732c-20.249,0-38.135-9.949-49.169-25.183
					c-8.329,3.141-17.319,4.94-26.747,4.94c-41.926,0-75.914-33.989-75.914-75.915c0-7.533,1.135-14.794,3.177-21.664
					C1641.667,1396.445,1627.995,1375.931,1627.995,1352.176z"/>
				<path style="fill:#FFFFFF;stroke:#000000;stroke-width:10.6263;stroke-linejoin:round;stroke-miterlimit:10;" d="
					M1446.071,826.2c12.551,0,24.485,2.616,35.322,7.292c18.741-35.303,55.837-59.37,98.592-59.37
					c56.073,0,102.353,41.403,110.269,95.277c44.011,14.953,75.721,56.527,75.721,105.593c0,61.633-49.961,111.596-111.593,111.596
					c-21.389,0-41.299-6.123-58.275-16.557c-15.943,14.844-37.258,23.997-60.76,23.997c-49.305,0-89.275-39.971-89.275-89.276
					c-49.306,0-89.276-39.97-89.276-89.276C1356.795,866.169,1396.765,826.2,1446.071,826.2z"/>
			</g>
		</g>
		<g>
			<path style="fill:#FFFFFF;stroke:#000000;stroke-width:10.6263;stroke-linejoin:round;stroke-miterlimit:10;" d="
				M1007.371,1502.343c-0.719,2.12-2.062,4.069-3.964,5.567c-26.946,21.291-62.158,45.197-105.87,66.518
				c-43.338,21.089-83.557,34.026-116.809,42.124c-7.934,1.929-15.375-4.222-15.167-12.245c0.008-0.244-0.002-0.517,0.035-0.779
				c0.776-8.973,1.551-17.946,2.327-26.918l1.008-11.749l1.499-17.195l3.292-37.643l0.615-7.239l2.506-28.943l0.278-3.282
				l3.601-41.582l1.143-13.267l1.375-15.723l2.043-23.712l4.174-48.117c0.832-9.526,11.56-14.343,19.144-9.119
				c0.405,0.267,0.828,0.563,1.193,0.895l32.41,28.225l27.684,24.139l15.457,13.42l23.004,20.063l10.666,9.294l17,14.815
				l4.715,4.133l33.7,29.339l0.065,0.04l21.68,18.891l5.987,5.219l1.672,1.475
				C1007.849,1492.439,1008.978,1497.798,1007.371,1502.343z"/>
			<polygon style="fill:#FFFFFF;stroke:#000000;stroke-width:10.6263;stroke-linejoin:round;stroke-miterlimit:10;" points="
				842.205,1348.158 785.284,1376.274 783.241,1399.986 781.866,1415.709 869.889,1372.297 			"/>
			<polygon style="fill:#FFFFFF;stroke:#000000;stroke-width:10.6263;stroke-linejoin:round;stroke-miterlimit:10;" points="
				936.017,1429.89 773.723,1510.023 774.338,1502.784 776.844,1473.84 777.122,1470.558 908.351,1405.78 919.017,1415.074 			"/>
			<path style="fill:#FFFFFF;stroke:#000000;stroke-width:10.6263;stroke-linejoin:round;stroke-miterlimit:10;" d="
				M1002.163,1487.512l-236.601,116.795c0.008-0.244-0.002-0.517,0.035-0.779c0.776-8.973,1.551-17.946,2.327-26.918l1.008-11.749
				l205.565-101.459l21.68,18.891L1002.163,1487.512z"/>
			<path style="fill:#FFFFFF;stroke:#000000;stroke-width:10.6263;stroke-linejoin:round;stroke-miterlimit:10;" d="
				M849.528,1276.776c-1.26-4.542-9.224-6.503-19.315-5.319c6.851-7.624,9.872-15.34,6.861-19.001
				c-2.645-3.215-9.255-2.467-16.786,1.318c2.48-8.141,2.095-14.853-1.551-16.916c-4.102-2.321-11.12,1.925-17.419,9.897
				c-0.547-10.235-3.866-17.828-8.584-18.287c-4.144-0.403-8.289,4.799-10.937,12.802c-4.003-7.51-9.021-11.984-13.058-10.864
				c-4.542,1.26-6.502,9.224-5.319,19.315c-7.624-6.851-15.339-9.872-19-6.861c-3.216,2.645-2.468,9.254,1.318,16.786
				c-8.141-2.48-14.852-2.095-16.915,1.551c-2.321,4.102,1.924,11.12,9.896,17.419c-10.235,0.547-17.827,3.865-18.286,8.584
				c-0.404,4.144,4.799,8.289,12.802,10.938c-7.511,4.003-11.984,9.021-10.864,13.058c1.259,4.541,9.224,6.502,19.314,5.319
				c-6.85,7.624-9.872,15.339-6.861,19.001c2.645,3.215,9.255,2.468,16.786-1.318c-2.48,8.142-2.095,14.853,1.551,16.916
				c4.102,2.32,11.121-1.925,17.419-9.897c0.547,10.235,3.866,17.828,8.584,18.287c4.144,0.403,8.289-4.799,10.937-12.802
				c4.003,7.51,9.021,11.984,13.059,10.864c4.541-1.259,6.502-9.224,5.319-19.314c7.624,6.851,15.34,9.872,19,6.861
				c3.216-2.645,2.468-9.254-1.318-16.786c8.141,2.48,14.852,2.095,16.915-1.552c2.321-4.102-1.924-11.12-9.896-17.418
				c10.235-0.547,17.828-3.866,18.287-8.584c0.403-4.144-4.799-8.289-12.802-10.938
				C846.174,1285.831,850.647,1280.812,849.528,1276.776z"/>
		</g>
	</g>
</g>
</svg>
