<?xml version="1.0" encoding="utf-8"?>
<!-- Generator: Adobe Illustrator 27.5.0, SVG Export Plug-In . SVG Version: 6.00 Build 0)  -->
<svg xmlns="http://www.w3.org/2000/svg" xmlns:xlink="http://www.w3.org/1999/xlink" viewBox="0 0 4000 4000" width="595" height="842" preserveAspectRatio="xMidYMid meet" data-scaled="true">
<path style="fill:#FFFFFF;" d="M0,0h4000v4000H0V0z"/>
<path d="M2641.231,145.508c104.027-7.428,209.008,8.976,310.32,31.051c21.27,4.634,55.004,9.182,72.48,22.09
	c5.074,3.747,7.34,6.821,7.723,13.175c1.641,27.054-12.023,81.984-17.387,109.651c-38.371,197.955-116.516,366.522-254.89,514.83
	c-4.328,4.708-8.708,9.37-13.137,13.984c-4.427,4.617-8.904,9.185-13.43,13.703c-4.523,4.521-9.096,8.992-13.719,13.414
	c-4.62,4.424-9.287,8.798-14,13.121c-4.714,4.323-9.473,8.595-14.277,12.816c-4.805,4.224-9.654,8.395-14.547,12.512
	c-4.894,4.12-9.829,8.186-14.809,12.199c-4.979,4.016-10.001,7.977-15.066,11.883c-5.063,3.906-10.167,7.759-15.313,11.559
	s-10.332,7.543-15.559,11.23s-10.491,7.319-15.793,10.895s-10.643,7.095-16.023,10.559c-5.378,3.464-10.79,6.869-16.238,10.215
	c-5.45,3.346-10.936,6.636-16.457,9.867c-5.521,3.229-11.076,6.4-16.664,9.512c-5.589,3.112-11.208,6.165-16.859,9.16
	c-5.654,2.992-11.337,5.923-17.051,8.793c-5.716,2.872-11.462,5.684-17.238,8.434c-5.773,2.75-11.577,5.438-17.41,8.063
	c-5.831,2.628-11.69,5.191-17.578,7.691c-5.885,2.5-11.798,4.939-17.738,7.317c-5.938,2.375-11.9,4.686-17.887,6.934
	c-5.99,2.25-12.001,4.435-18.035,6.555c-6.034,2.12-12.09,4.176-18.168,6.168c-6.078,1.992-12.177,3.919-18.297,5.781
	c-6.117,1.862-12.255,3.659-18.414,5.391c-6.156,1.732-12.331,3.397-18.523,4.996c-6.193,1.599-12.402,3.133-18.629,4.602
	c-6.224,1.469-12.463,2.87-18.719,4.203c-6.255,1.336-12.525,2.604-18.809,3.805c-6.281,1.203-12.574,2.339-18.879,3.406
	c-6.307,1.068-12.625,2.068-18.953,3c-51.453,7.5-103.348,9.066-155.238,10.82c3.18,53.219,5.816,106.68,2.477,159.957
	c173.641-113.852,376.25-147.828,580.328-124.266c260.797,30.113,522.965,161.32,687.18,369.035
	c179.531,227.09,237.895,499.539,204.621,783.434c-13.328,113.727-39.164,228.543-72.105,338.07
	c-13.164,44.747-27.768,89.018-43.813,132.813c-16.047,43.797-33.5,87.025-52.359,129.684
	c-110.703,245.547-279.254,477.098-491.426,644.527c-40.566,32.012-81.801,63.707-125.129,91.918
	c-40.266,26.219-82.516,48.953-125.274,70.793c-136.633,69.797-277.777,118.035-430.898,133.926
	c-69.25,7.188-137.293,5.387-206.691,5.406c-72.738,0.02-142.887,2.406-215.422-6.188c-18.63-2.623-37.197-5.637-55.699-9.043
	c-18.503-3.404-36.924-7.197-55.266-11.379c-18.344-4.182-36.591-8.75-54.742-13.703c-18.148-4.95-36.186-10.283-54.113-15.996
	c-17.924-5.711-35.721-11.798-53.391-18.262c-17.667-6.461-35.19-13.293-52.57-20.496c-17.38-7.2-34.602-14.766-51.664-22.695
	c-17.063-7.927-33.949-16.211-50.66-24.852c-132.859-68.469-237.797-147.227-344.934-250.621
	c-194.223-187.441-330.395-402.883-427.641-653.898c-13.813-35.656-28.156-71.152-39.813-107.59
	c-112.152-350.512-151.566-702.156,22.988-1040.109c116.25-225.063,337.105-382.137,574.933-457.766
	c216.809-68.945,453.945-70.141,666.875,13.82c42.906,16.922,82.277,39.418,123.148,60.512
	c-1.012-165.031-25.082-301.957-73.547-459.191c-22.84-74.094-49.73-147.313-87.008-215.504
	c-15.927-28.526-33.822-55.759-53.684-81.699c-14.769-19.25-32.75-38.398-44.02-59.918c-8.988-17.164-8.84-37.391-2.539-55.465
	c7.328-21.02,21.242-35.359,41.371-44.514c1.167-0.534,2.345-1.039,3.535-1.514c1.193-0.475,2.396-0.919,3.609-1.333
	c1.213-0.414,2.437-0.797,3.672-1.149c1.234-0.352,2.477-0.673,3.727-0.962c1.247-0.289,2.503-0.546,3.766-0.772
	c1.263-0.226,2.531-0.419,3.805-0.58c1.273-0.161,2.549-0.29,3.828-0.387c1.279-0.097,2.559-0.161,3.84-0.193
	c1.284-0.032,2.566-0.031,3.848,0.002c1.284,0.033,2.565,0.098,3.844,0.196c1.279,0.098,2.553,0.228,3.824,0.391
	c1.273,0.163,2.542,0.357,3.805,0.584c1.263,0.227,2.52,0.485,3.77,0.775c1.247,0.29,2.488,0.612,3.723,0.965
	c1.232,0.353,2.456,0.737,3.672,1.152c1.214,0.415,2.415,0.861,3.605,1.336c25.145,9.855,44.109,34.213,61.086,54.295
	c64.836,76.684,104.023,147.879,145.297,238.91c24.985-97.828,66.317-189.691,132.699-266.855
	C2252.133,229.845,2429.074,160.549,2641.231,145.508z"/>
<path style="fill:#FFFFFF;" d="M3432.996,2609.039c-0.297,27.883-66.742,216.16-82.754,237.383l-3.039,0.269
	c-7.179-7.063-11.937-15.621-17.156-24.152c-9.875-17.969-19.809-35.844-28.629-54.363
	C3354.074,2721.191,3394.66,2667.973,3432.996,2609.039z"/>
<path style="fill:#FFFFFF;" d="M556.918,2583.566c15.352,14.754,30.57,47.16,44.004,66.145
	c28.488,40.258,61.297,79.426,96.246,114.219l-29.797,43.602c-7.547,10.797-15.523,20.875-24.063,30.906
	c-11.699-25.293-20.52-52.051-29.895-78.269C592.508,2701.691,573.805,2643.344,556.918,2583.566z"/>
<path style="fill:#FFFFFF;" d="M2973.191,249.851l4.156-0.115l2.316,2.241c2.191,24.412-14.465,80.548-20.418,107.108
	c-48.797-9.921-96.574-13.884-146.261-16.445l-28.449-0.885C2846.004,307.671,2907.184,274.377,2973.191,249.851z"/>
<path style="fill:#FFFFFF;" d="M2425.57,1005.035c6.188-0.844,12.391-0.867,18.625-1.016l0.59-0.367l-3.805,3.543
	c-9.761,2.18-21.551,9.371-31.238,12.992c-21.918,8.195-44.691,15.379-66.918,22.719c-78.039,25.762-163.309,38.559-245.305,40.941
	c-7.352-0.039-14.734-0.664-22.074-1.098c2.93-3.698,5.931-7.337,9.004-10.918c14.219-16.453,39.797-23.113,59.941-29.219
	C2241.305,1013.242,2325.992,1012.012,2425.57,1005.035z"/>
<path style="fill:#FFFFFF;" d="M944.215,3060.039c4.188,29.063,2.805,59.664,5.164,89.027
	c8.019,99.848,33.613,185.023,82.684,272.898c-15.457-12.383-29.223-26.254-42.93-40.496
	c-45.918-48.945-89.844-100.461-127.234-156.304C898.918,3174.137,925.027,3119.922,944.215,3060.039z"/>
<path style="fill:#FFFFFF;" d="M3056.68,3063.766c10.293,14.309,16.445,38.961,23.711,55.359
	c8.013,18.57,17.133,36.58,27.359,54.027c10.224,17.451,21.478,34.209,33.762,50.277c-37.098,54.398-82.879,107.887-127.633,156.109
	c-14.32,14.828-28.637,29.391-43.965,43.195C3029.945,3302.223,3057.586,3199.492,3056.68,3063.766z"/>
<path style="fill:#FFFFFF;" d="M2069.289,540.363c4.422,15.039-3.25,56.109-2.711,74.762
	c3.687,127.816,28.484,267.195-12.199,391.977c-1.125-9.078-2.739-18.09-4.242-27.113c-8.063-45.832-18.121-91.469-27.394-137.074
	c-4.891-24.074-11.621-49.105-13.16-73.652c-1.129-18.074,2.035-36.316,4.984-54.086
	C2026.082,645.707,2043.067,604.465,2069.289,540.363z"/>
<path style="fill:#FFFFFF;" d="M3284.887,2784.938c19.383,21.438,26.777,58.391,54.293,83.918
	c-18.074,59.598-47.055,118.07-80.855,170.18c-5.922-7.383-11.621-14.969-17.414-22.461
	c-25.898-37.207-62.859-104.516-75.082-147.953C3207.574,2845.637,3248.953,2816.168,3284.887,2784.938z"/>
<path style="fill:#FFFFFF;" d="M714.992,2781.418c17.894,8.48,36.254,28.07,52.305,40.308
	c24.326,18.596,49.908,35.264,76.746,50.004c-26.016,50.203-49.117,86.41-83.695,131.48c-7.758,10.172-15.609,19.973-24.258,29.406
	c-30.906-53.129-57.094-111.152-81.508-167.457C673.988,2836.684,696.465,2810.605,714.992,2781.418z"/>
<path style="fill:#FFFFFF;" d="M2306.754,1234.656l3.48,0.004c-0.953,6.117-75.812,89.648-86.039,102.441
	c-61.27,76.652-115.309,159.844-168.613,242.195l-0.824,0.805l-1.422-0.602c10.973-77.711,13.949-157.238,18.621-235.508
	c21.914-10.641,42.234-26.844,63.551-39.059C2189.801,1273.824,2246.434,1251.109,2306.754,1234.656z"/>
<path style="fill:#FFFFFF;" d="M1676.762,1236.012c16.91,1.078,35.699,7.387,51.992,12.207
	c70.613,20.891,142.32,50.035,201.711,94.465c-0.285,74.949,1.039,149.672,2.148,224.602l-0.672,0.293
	c-5.148-0.996-14.523-19.422-17.762-24.59c-16.964-27.617-34.655-54.758-53.074-81.422c-18.422-26.667-37.547-52.818-57.375-78.453
	c-19.828-25.638-40.331-50.724-61.508-75.258C1721.046,1283.322,1699.225,1259.374,1676.762,1236.012z"/>
<path style="fill:#FFFFFF;" d="M872.773,2886.898c25.393,12.359,51.128,23.96,77.203,34.801
	c-8.383,23.453-12.984,49.008-19.262,73.145c-15.582,59.922-35.453,123.063-68.32,175.895c-5.84,9.391-12.363,22.629-20.996,29.477
	l-3.008-2.07c-29.906-43.716-57.922-88.613-84.047-134.691C802.051,3011.156,847.867,2953.805,872.773,2886.898z"/>
<path style="fill:#FFFFFF;" d="M3144.406,2880.668c7.039,6.766,24.598,59.125,31.531,73.004
	c19.883,39.797,43.523,75.676,70.406,111.082c-13.91,31.309-64.926,109.848-87.395,136.949
	c-46.719-54.137-93.855-210.398-103.914-282.113C3085.656,2908.508,3115.129,2894.867,3144.406,2880.668z"/>
<path style="fill:#FFFFFF;" d="M2668.02,190.182c82.129-1.127,210.418,11.468,287.559,37.91
	c-32.855,15.439-66.441,29.35-98.965,45.5c-51.797,25.718-100.574,54.721-149.398,85.532
	c-59.789,37.059-115.055,78.766-172.352,119.196c9.09-23.984,24.277-45.871,33.996-69.777
	C2598.93,334.555,2618.824,255.001,2668.02,190.182z"/>
<path style="fill:#FFFFFF;" d="M2798.941,366.066c50.906-2.132,104.973,2.383,154.93,12.473
	c-13.66,72.754-46.563,144.785-81.617,209.684c-53.535-29.82-121.727-43.152-182.328-50.664
	c-68.262-8.641-131.078-0.105-198.09,11.902c54.11-51.019,176.281-149.832,242.406-173.395
	C2754.765,368.754,2777.395,367.763,2798.941,366.066z"/>
<path style="fill:#FFFFFF;" d="M1730.438,410.313c5.008-0.316,14.168-1.738,18.898-0.219c21.629,6.953,64.18,66.266,78.117,86.859
	c58.395,86.293,106.906,194.555,136.317,294.418c18.742,63.637,29.73,129.68,39.414,195.203
	c8.047,54.473,16.668,109.309,20.707,164.242c10.465,142.351-0.934,335.004-27.637,474.914c-0.805,5.566-0.75,9.578-4.219,14.195
	c-11.063-15.879-13.293-113.578-13.465-138.156c-0.996-142.93,2.734-288.359-16.66-430.297
	c-11.211-82.035-31.438-164.258-54.445-243.73c-6.575-23.372-13.87-46.517-21.883-69.434c-8.013-22.919-16.729-45.568-26.148-67.945
	c-9.419-22.375-19.524-44.438-30.313-66.188c-10.789-21.75-22.242-43.144-34.359-64.184c-13.094-22.758-27.121-44.426-43.59-64.898
	c-10.504-13.059-22.687-25.613-32.242-39.324c-2.832-4.066-5.203-8.074-5.625-13.121
	C1712.192,429.391,1722.496,419.598,1730.438,410.313z"/>
<path style="fill:#FFFFFF;" d="M2320.703,803.543c93.293-13.594,254.973,25.313,343.906,55.801
	c-40.055,35.183-108.992,98.547-160.055,113.887c-29.398,8.832-61.465,9.637-91.957,11.113
	c-120.156,4.035-190.773,7.168-306.738,45.207c22.137-33.449,42.906-67.734,65.371-101.012
	c26.535-39.297,54.765-77.668,80.133-117.711C2274.113,810.398,2297.977,805.832,2320.703,803.543z"/>
<path style="fill:#FFFFFF;" d="M1458.277,1207.933c32.758-1.16,66.934,0.496,99.535,3.91c18.434,1.93,45.465,4.117,61.543,14.078
	c15.117,9.363,34.528,36.371,47.246,50.504c69.742,77.512,127.516,154.746,186.77,240.266
	c24.301,35.066,44.156,73.492,71.027,106.68c-37.911-21.377-76.039-42.363-114.383-62.957
	c-183.676-98.891-355.473-217.25-527.75-334.398C1338.758,1212.633,1400.375,1209.762,1458.277,1207.933z"/>
<path style="fill:#FFFFFF;" d="M2632.789,192.289c1.57,1.191,0.625,0.24,1.414,3.771c-18.395,35.145-35.922,69.439-50.66,106.351
	c-25.555,64.005-44.406,131.074-83.86,188.613c-27.855,40.629-65.152,75.176-99.895,109.852
	c-43.016,42.938-86.574,87.938-122.336,137.191l-1.527-1.465c2.754-27.445,11.336-54.707,14.297-82.547
	c3.98-37.426,5.133-75.078,8.621-112.543c6.574-70.617,22.789-141.734,50.66-207.045c11.555-27.07,25.367-56.062,44.977-78.332
	c4.668-5.302,9.863-10.852,16.035-14.383C2455.984,215.729,2579.621,195.325,2632.789,192.289z"/>
<path style="fill:#FFFFFF;" d="M2484.5,1205.906c66.09-6.145,164.477,2.48,229.313,15.715
	c-68.879,46.859-136.02,96.383-205.191,142.891c-46.113,31.004-93.898,59.77-140.871,89.457
	c-48.25,30.492-95.598,61.164-145.89,88.269c-50.977,28.492-103.391,54.621-153.422,84.727
	c13.039-17.715,23.879-37.152,35.961-55.543c24.984-37.526,50.219-74.884,75.703-112.074
	c57.348-82.914,121.973-162.961,188.262-238.824C2404.961,1210.043,2446.641,1208.668,2484.5,1205.906z"/>
<path style="fill:#FFFFFF;" d="M2354.676,265.528l3.285,0.331c-0.086,3.78,0.398,2.572-1.262,5.659
	c-49.098,91.311-73.09,185.818-82.059,288.939c-5.66,65.109-8.125,130.984-30.059,193.246
	c-22.293,63.285-85.515,138.207-123.688,195.609c-16.48,24.781-29.793,53.102-47.031,76.961l-1.82-1.457
	c26.285-81.336,31.285-166.973,27.922-251.867c-2.984-75.262-22.82-214.934,2.414-282.699c6.91-18.559,21.105-35.074,33.332-50.488
	c7.252-9.271,14.772-18.32,22.559-27.148c7.784-8.828,15.82-17.42,24.109-25.776c8.289-8.357,16.816-16.463,25.582-24.319
	c8.766-7.857,17.754-15.449,26.965-22.778c9.208-7.329,18.625-14.382,28.25-21.158c9.625-6.776,19.44-13.264,29.445-19.465
	c10.005-6.2,20.184-12.102,30.535-17.705C2333.508,275.809,2344.014,270.514,2354.676,265.528z"/>
<path style="fill:#FFFFFF;" d="M1237.324,1238.719c5.801-0.871,14.73,8.219,19.101,11.57c30.399,23.297,62.508,43.535,94.254,64.887
	c49.012,32.973,97.797,65.859,147.496,97.809c106.973,68.766,213.899,135.16,325.883,195.563
	c32.672,17.621,65.179,35.852,98.691,51.836c-42.867-8.807-85.546-18.447-128.035-28.918c-11.402-2.004-22.855-5.144-34.129-7.805
	c-212.422-50.18-464.055-112.633-620.356-275.656c-19.012-19.824-38.519-40.391-52.98-63.824
	C1136.027,1263.457,1185.449,1249.188,1237.324,1238.719z"/>
<path style="fill:#FFFFFF;" d="M2761.488,1232.664c51.742,9.598,101.406,26.313,150.227,45.609
	c-28.41,37.875-61.34,72.977-96.004,105.152c-100.656,93.438-190.828,131.059-320.32,171.488
	c-94.453,29.488-190.746,52.156-286.847,75.609c-46.305,10.211-92.776,19.599-139.414,28.164
	c56.528-26.59,112.844-53.34,167.488-83.688c65.848-36.57,127.98-77.348,191.223-118.051c38.426-24.734,77.965-48.02,115.977-73.332
	C2617.34,1334.652,2688.945,1283.012,2761.488,1232.664z"/>
<path style="fill:#FFFFFF;" d="M2602.813,557.481c66.129-7.574,200.336,19.996,259.109,50.426
	c-45.762,88.172-106.41,162.102-175.941,232.441c-40.719-13.07-82.719-23.09-123.942-34.562
	c-95.363-22.25-196.953-37.957-294.148-17.926c28.234-39.832,61.219-76.48,93.469-113.082c23.309-26.461,50.16-59.016,78.961-79.203
	C2476.566,570.164,2559.121,560.207,2602.813,557.481z"/>
<path style="fill:#FFFFFF;" d="M2012.281,2007.805c9.98,32.227,17.066,65.344,27.012,97.61
	c12.34,40.027,28.961,78.594,46.141,116.738c86.262,191.567,241.242,405.852,424.918,514.071
	c37.945,22.359,77.906,37.414,118.933,52.934c-18.766,8.633-39.797,14.082-59.449,20.504
	c-56.73,18.363-106.637,39.66-161.598,62.035c-73.605-30.367-137.328-83.039-191.316-140.961
	c-5.776-6.253-11.44-12.604-16.992-19.055c-5.552-6.451-10.989-12.998-16.309-19.641c-5.323-6.641-10.527-13.374-15.613-20.199
	c-5.086-6.826-10.05-13.737-14.891-20.735c-4.844-7-9.564-14.082-14.16-21.246c-4.594-7.164-9.06-14.407-13.398-21.73
	c-4.341-7.32-8.552-14.715-12.633-22.184c-4.081-7.469-8.029-15.008-11.844-22.617c-3.815-7.607-7.496-15.278-11.043-23.015
	c-3.547-7.737-6.956-15.534-10.227-23.391c-3.273-7.857-6.407-15.77-9.402-23.738c-2.995-7.966-5.849-15.983-8.563-24.051
	s-5.284-16.18-7.711-24.336c-2.43-8.156-4.715-16.353-6.855-24.59c-2.141-8.24-4.135-16.513-5.984-24.82
	c-1.852-8.307-3.556-16.645-5.113-25.012c-9.996-52.449-14.305-106.129-18.156-159.305
	C2013.168,2143.965,2009.992,2075.059,2012.281,2007.805z"/>
<path style="fill:#FFFFFF;" d="M1987.34,1995.996c4.684,31.828,0.691,68.238,0.121,100.617
	c-2.137,121.477-4.379,240.168-40.879,357.332c-42.5,136.445-128.531,261.434-244.766,345.461
	c-35.918,25.965-75.488,47.031-114.637,67.641c-45.629-26.703-92.547-46.738-143.406-61.399
	c-22.526-6.234-45.104-12.278-67.734-18.133c34.969-17.188,69.977-31.281,103.637-51.434
	c198.348-118.754,381.031-363.832,462.68-577.754C1962.398,2105.813,1973.715,2050.391,1987.34,1995.996z"/>
<path style="fill:#FFFFFF;" d="M2790.25,3193.605c1.789-0.227,3.82,0.301,5.609,0.551c3.578,21.199-43.512,140.461-55.449,164.359
	c-29.558,59.195-72.508,118.031-120.738,163.57c-93.027,87.84-234.625,157.453-353.313,202.371
	c-55.383,20.961-112.082,38.395-168.277,57.008c-4.043,0.898-2,0.902-6.121-0.078c1.117-5.48,4.332-10.414,7.18-15.168
	c11.801-19.715,25.742-38.555,38.633-57.594c32.223-47.586,64.844-93.605,100.234-138.902
	C2398.492,3364.301,2535.457,3257.805,2790.25,3193.605z"/>
<path d="M2480.871,3457.336c6.344,0.566,12.379,1.383,18.367,3.676c9.66,3.695,18,11.414,21.93,21.055
	c0.471,1.156,0.883,2.333,1.234,3.531c0.352,1.198,0.639,2.41,0.863,3.637c0.227,1.227,0.389,2.462,0.488,3.707
	c0.096,1.245,0.13,2.491,0.102,3.739c-0.031,1.248-0.126,2.49-0.285,3.726c-0.159,1.24-0.38,2.466-0.664,3.68
	c-0.286,1.216-0.634,2.414-1.043,3.594c-0.406,1.18-0.874,2.335-1.403,3.465c-5.617,12.258-15.035,17.832-27.129,22.539
	c-7.145,0.008-13.695-0.23-20.273-3.379c-1.307-0.623-2.578-1.311-3.813-2.066c-1.234-0.755-2.426-1.573-3.574-2.453
	c-1.151-0.88-2.251-1.818-3.301-2.813c-1.052-0.995-2.049-2.042-2.992-3.141c-0.94-1.099-1.822-2.245-2.645-3.438
	c-0.823-1.19-1.581-2.42-2.273-3.691c-0.695-1.271-1.322-2.574-1.879-3.91c-0.557-1.336-1.043-2.697-1.457-4.082
	c-2.922-9.527-2.188-20.117,2.695-28.887C2459.766,3465.141,2469.508,3460.379,2480.871,3457.336z"/>
<path style="fill:#FFFFFF;" d="M1199.523,3199.098c40.535,8.688,81.242,18.66,120.508,32.035
	c189.246,64.473,334.766,188.496,453.445,347.164c18.574,24.836,35.414,50.977,52.883,76.594
	c27.676,40.594,60.992,82.227,82.586,126.352c-140.816-41.664-287.27-88.64-413.934-164.16
	c-122.899-73.273-200.313-167.934-254.84-298.965C1224.145,3279.613,1209.723,3239.547,1199.523,3199.098z"/>
<path d="M1510.926,3447.531c6.652-0.313,12.828-0.191,19.109,2.328c1.206,0.484,2.383,1.031,3.531,1.641
	c1.148,0.609,2.262,1.277,3.34,2.004c1.078,0.729,2.115,1.512,3.109,2.348c0.992,0.839,1.939,1.726,2.84,2.664
	c0.899,0.94,1.746,1.925,2.543,2.953c0.794,1.029,1.532,2.096,2.215,3.203c0.682,1.107,1.303,2.246,1.863,3.418
	c0.563,1.172,1.06,2.371,1.492,3.598c0.526,1.513,0.971,3.05,1.336,4.609c0.367,1.56,0.652,3.134,0.855,4.723
	c0.206,1.589,0.328,3.184,0.367,4.785c0.039,1.602-0.003,3.2-0.125,4.797c-0.125,1.599-0.332,3.186-0.621,4.762
	c-0.289,1.575-0.658,3.132-1.105,4.668c-0.448,1.539-0.975,3.049-1.582,4.531c-0.604,1.485-1.282,2.933-2.035,4.348
	c-6.863,12.957-16.617,18.578-30.281,22.641c-6.621-0.176-12.844-0.563-18.969-3.324c-10.684-4.809-19.07-13.785-22.57-25.016
	c-0.45-1.411-0.827-2.841-1.129-4.289c-0.305-1.45-0.532-2.913-0.683-4.387c-0.154-1.474-0.23-2.951-0.23-4.43
	c0-1.482,0.075-2.96,0.226-4.434s0.378-2.936,0.68-4.387c0.302-1.448,0.677-2.879,1.125-4.293c0.448-1.411,0.969-2.795,1.562-4.152
	c0.591-1.357,1.25-2.681,1.977-3.972C1487.004,3456.004,1497.188,3451.27,1510.926,3447.531z"/>
<path style="fill:#FFFFFF;" d="M2049.855,1719.703c23.531,4.582,47.25,12.125,70.481,18.262
	c106.035,28.016,209.711,63.781,305.531,118.148c138.695,78.695,234.156,172.933,310.457,312.344
	c25.805,47.152,48.008,95.422,62.32,147.391c-10.559-0.875-20.992-2.512-31.414-4.41
	c-210.883-38.398-390.172-159.691-524.996-323.34c-26.59-32.273-49.356-66.66-73.633-100.605
	C2128.346,1832.039,2088.764,1776.109,2049.855,1719.703z"/>
<path d="M2469.629,1998.219c9.309-0.531,18.852-0.063,27.605,3.398c9.84,3.891,17.82,11.105,21.871,20.957
	c4.461,10.848,3.445,23.27-1.148,33.891c-7.184,16.605-20.426,25.844-36.805,32.098c-8.734,0.703-17.43,0.688-25.789-2.309
	c-11.055-3.965-19.965-11.449-24.605-22.356c-4.68-11-3.949-23.547,0.922-34.339
	C2439.285,2012.715,2453.172,2004.539,2469.629,1998.219z"/>
<path style="fill:#FFFFFF;" d="M1940.484,1724.934l3.758-0.383l0.031,2.645c-167.039,227.051-284.082,446.227-566.735,546.141
	c-55.957,19.781-114.059,31.672-171.863,44.605l-3.453-0.133l-1.641-3.148c3.74-15.891,8.125-31.6,13.156-47.129
	c5.034-15.529,10.695-30.825,16.984-45.891c6.289-15.063,13.185-29.843,20.688-44.34c7.505-14.497,15.592-28.661,24.262-42.492
	c30.902-49.543,66.965-98.238,108.285-139.613c22.477-22.508,47.59-42.102,72.777-61.449
	C1600.133,1823.598,1766.059,1765.305,1940.484,1724.934z"/>
<path d="M1515.188,1994.445c7.527-0.398,15.578,0.258,22.77,2.582c13.828,4.473,25.965,14.496,31.945,27.867
	c4.793,10.719,5.672,22.879,1.035,33.801c-5.887,13.879-16.375,19.281-29.836,24.309c-12.695,1.254-21.758,0.984-33.012-5.598
	c-13.105-7.664-23.398-20.805-26.926-35.652c-2.398-10.094-1.469-20.836,4.191-29.707
	C1492.465,2000.906,1502.902,1997.305,1515.188,1994.445z"/>
<path style="fill:#FFFFFF;" d="M2594.809,1569.152c39.961-4.207,83.719,1.148,122.727,9.602
	c147.5,31.961,273.488,126.84,353.949,252.988c2.531,3.995,5.014,8.018,7.449,12.07c2.435,4.055,4.819,8.138,7.152,12.25
	c2.336,4.112,4.621,8.251,6.855,12.418c2.234,4.169,4.417,8.363,6.547,12.582c2.133,4.221,4.214,8.467,6.242,12.738
	c2.031,4.271,4.009,8.567,5.934,12.887c1.925,4.318,3.796,8.659,5.613,13.024c1.82,4.365,3.587,8.75,5.301,13.156
	c1.714,4.409,3.373,8.837,4.977,13.285c1.607,4.448,3.158,8.914,4.652,13.398c1.498,4.487,2.94,8.991,4.328,13.512
	c1.388,4.518,2.72,9.055,3.996,13.609c1.276,4.552,2.497,9.12,3.664,13.703c1.167,4.58,2.277,9.176,3.332,13.785
	c1.055,4.609,2.053,9.232,2.996,13.867c0.943,4.633,1.828,9.277,2.656,13.934c0.828,4.654,1.6,9.318,2.316,13.992
	c0.716,4.675,1.376,9.357,1.981,14.047c0.601,4.69,1.146,9.387,1.633,14.09c0.49,4.703,0.922,9.411,1.297,14.125
	c0.372,4.714,0.688,9.431,0.949,14.152c0.258,4.721,0.459,9.445,0.605,14.172c0.144,4.727,0.229,9.454,0.258,14.184
	c0.031,4.729,0.004,9.457-0.082,14.183c-0.086,4.729-0.228,9.456-0.426,14.18c-0.2,4.724-0.458,9.445-0.773,14.164
	c-0.315,4.716-0.688,9.43-1.117,14.141c-0.43,4.708-0.915,9.411-1.457,14.109c-0.544,4.695-1.146,9.384-1.805,14.066
	c-0.656,4.685-1.37,9.36-2.141,14.023c-0.771,4.667-1.599,9.322-2.484,13.965c-0.883,4.646-1.823,9.28-2.82,13.902
	c-6.039,27.078-13.977,64.105-28.336,88.008c-21.313,35.488-71.543,65.977-106.184,88.051c3.652-15.949,5.84-32.39,8.535-48.535
	c0.508-5.112,1.043-10.222,1.605-15.328c0.599-5.641,1.129-11.289,1.59-16.945c0.461-5.654,0.852-11.312,1.172-16.977
	c0.32-5.667,0.57-11.335,0.75-17.004c0.18-5.672,0.289-11.344,0.328-17.016c0.042-5.674,0.012-11.347-0.09-17.019
	s-0.273-11.342-0.516-17.012c-0.24-5.667-0.55-11.331-0.933-16.992c-0.38-5.661-0.831-11.316-1.352-16.965
	c-0.521-5.648-1.112-11.29-1.774-16.926c-0.661-5.635-1.392-11.262-2.191-16.879c-0.8-5.617-1.669-11.223-2.609-16.816
	c-0.94-5.597-1.948-11.18-3.024-16.75c-1.078-5.57-2.224-11.126-3.438-16.668c-1.216-5.542-2.499-11.068-3.847-16.578
	c-1.352-5.51-2.771-11.003-4.258-16.477c-1.49-5.477-3.045-10.932-4.664-16.367c-1.622-5.438-3.313-10.853-5.07-16.246
	c-1.755-5.396-3.578-10.768-5.469-16.117c-1.888-5.351-3.842-10.677-5.863-15.977c-2.021-5.302-4.108-10.578-6.262-15.828
	c-2.151-5.25-4.367-10.471-6.648-15.664c-2.281-5.195-4.626-10.362-7.035-15.5c-2.406-5.136-4.877-10.241-7.414-15.317
	c-2.536-5.076-5.134-10.12-7.793-15.133c-2.659-5.01-5.38-9.987-8.164-14.93c-2.784-4.945-5.628-9.854-8.531-14.726
	c-2.906-4.875-5.871-9.712-8.895-14.512c-3.023-4.8-6.107-9.561-9.25-14.285c-3.14-4.724-6.341-9.409-9.602-14.055
	c-3.258-4.643-6.573-9.246-9.945-13.809c-3.37-4.563-6.797-9.083-10.281-13.562c-3.484-4.477-7.023-8.91-10.617-13.301
	c-117.48-143.238-286.98-239.605-471.859-257.398C2460.66,1596.816,2533.848,1574.184,2594.809,1569.152z"/>
<path style="fill:#FFFFFF;" d="M1397.351,1567.207c8.719-0.754,17.563-1.57,26.27-0.258c20.848,3.152,41.941,12.098,61.992,18.625
	c32.294,10.703,64.853,20.531,97.676,29.484c-40.469,5.922-81.875,12.891-121.078,24.649
	c-133.223,39.957-255.461,126.848-340.195,236.5c-3.609,4.7-7.16,9.444-10.652,14.23c-3.495,4.789-6.93,9.62-10.305,14.492
	c-3.372,4.87-6.686,9.781-9.942,14.734c-3.255,4.953-6.448,9.947-9.578,14.981c-3.133,5.031-6.202,10.1-9.207,15.207
	c-3.008,5.107-5.952,10.25-8.832,15.43c-2.88,5.177-5.697,10.391-8.449,15.641c-2.755,5.247-5.444,10.529-8.066,15.844
	c-2.622,5.315-5.18,10.66-7.672,16.035c-2.492,5.378-4.918,10.785-7.277,16.223c-2.359,5.435-4.651,10.9-6.875,16.395
	c-2.227,5.492-4.384,11.012-6.473,16.559c-2.091,5.544-4.112,11.115-6.063,16.711c-1.953,5.596-3.837,11.215-5.652,16.855
	c-1.815,5.641-3.561,11.303-5.238,16.988c-1.674,5.685-3.28,11.389-4.816,17.113c-1.537,5.724-3.003,11.466-4.398,17.227
	c-1.393,5.76-2.718,11.536-3.973,17.328c-1.253,5.792-2.433,11.599-3.543,17.422c-1.112,5.82-2.151,11.654-3.117,17.5
	c-0.969,5.849-1.865,11.707-2.688,17.574c-0.826,5.87-1.577,11.749-2.254,17.637c-0.68,5.885-1.288,11.78-1.824,17.684
	c-0.534,5.901-0.996,11.809-1.387,17.723c-0.388,5.914-0.705,11.832-0.949,17.754c-0.245,5.922-0.417,11.845-0.516,17.77
	c-0.099,5.927-0.125,11.853-0.078,17.777c0.047,5.927,0.165,11.852,0.356,17.773c0.193,5.924,0.457,11.845,0.793,17.762
	c0.339,5.917,0.749,11.828,1.23,17.734c0.482,5.909,1.036,11.81,1.664,17.703c0.628,5.893,1.327,11.777,2.098,17.652
	c2.176,13.77,5.289,27.434,8.121,41.082c-20.113-14.824-40.199-29.68-59.23-45.887c-18.082-15.406-38.73-32.465-51.207-52.918
	c-21.004-34.43-33.973-117.84-37.211-158.18c-12.356-153.887,33.695-312.516,134.844-430.508
	C1086.816,1633.246,1227.899,1580.371,1397.351,1567.207z"/>
<path style="fill:#FFFFFF;" d="M1052.488,1297.004c19.313,18.563,32.82,44.203,51.316,64.09
	c8.729,9.451,17.707,18.656,26.934,27.617c9.229,8.964,18.693,17.67,28.391,26.121c9.7,8.45,19.622,16.632,29.766,24.543
	c10.143,7.914,20.492,15.547,31.047,22.899c10.557,7.351,21.305,14.413,32.242,21.184c10.94,6.771,22.055,13.24,33.344,19.406
	c11.289,6.169,22.736,12.027,34.34,17.574c11.607,5.547,23.356,10.776,35.246,15.687c-8.37,0.706-16.723,1.582-25.059,2.629
	c-8.336,1.044-16.647,2.258-24.933,3.641c-8.286,1.38-16.542,2.928-24.766,4.644c-8.221,1.719-16.406,3.602-24.555,5.649
	c-8.146,2.047-16.247,4.259-24.305,6.637c-8.06,2.375-16.066,4.913-24.02,7.613c-7.956,2.703-15.853,5.564-23.691,8.582
	c-7.839,3.021-15.613,6.199-23.324,9.535c-7.708,3.336-15.348,6.827-22.918,10.473c-7.568,3.646-15.059,7.443-22.473,11.391
	c-7.414,3.948-14.746,8.046-21.996,12.293c-7.247,4.245-14.407,8.635-21.48,13.172c-7.07,4.536-14.046,9.213-20.926,14.031
	c-6.883,4.818-13.664,9.774-20.344,14.867c-6.68,5.094-13.254,10.32-19.723,15.68c-6.469,5.359-12.827,10.848-19.074,16.465
	c-125.082,114.059-183.75,277.145-191.547,443.23c-2.895,49.172,6.336,98.563,16.273,146.477
	c-32.527-46.281-59.606-97.52-82.332-149.254c-63.855-145.355-95.766-318.25-67.633-475.844c4.336-24.27,8.852-51.258,18.035-74.129
	c9.606-23.918,30.906-45.563,48.129-64.383c5.573-5.992,11.225-11.909,16.957-17.75c5.729-5.844,11.538-11.608,17.426-17.293
	c5.885-5.685,11.845-11.292,17.879-16.82c6.036-5.526,12.145-10.97,18.324-16.332c6.182-5.365,12.435-10.645,18.758-15.84
	c6.323-5.195,12.714-10.304,19.172-15.328c6.461-5.026,12.987-9.964,19.578-14.813c6.591-4.852,13.246-9.612,19.965-14.281
	c6.719-4.672,13.499-9.254,20.34-13.746c6.844-4.49,13.745-8.887,20.703-13.191c6.958-4.305,13.974-8.517,21.047-12.637
	c7.073-4.117,14.199-8.139,21.379-12.066c7.18-3.927,14.41-7.756,21.691-11.488c7.284-3.734,14.616-7.37,21.996-10.906
	c7.377-3.536,14.803-6.974,22.277-10.313C1037.417,1303.38,1044.931,1300.142,1052.488,1297.004z"/>
<path style="fill:#FFFFFF;" d="M2943,1291.355c55.695,21.641,111.672,52.707,161.348,85.949
	c65.191,43.625,121.582,92.883,172.59,152.48c14.398,16.824,29.484,34.078,39.485,53.988c6.094,12.133,8.668,25.641,11.261,38.855
	c43.769,222.777-20.414,475.852-145.922,662.527c8.926-43.785,15.477-88.609,16.559-133.301
	c-2.793-150.594-48.426-290.469-146.418-406.692c-103.641-122.91-240.941-197.207-401.488-210.699
	c98.707-44.969,165.254-95.52,238.578-175.543C2907.922,1338.262,2929.504,1315.965,2943,1291.355z"/>
<path style="fill:#FFFFFF;" d="M628.019,1663.566c2.535,14.063-5.219,84.906-5.285,109.027c-0.057,15.034,0.253,30.06,0.93,45.078
	c0.674,15.018,1.716,30.012,3.125,44.98c1.406,14.966,3.178,29.889,5.316,44.769c2.135,14.883,4.633,29.703,7.492,44.461
	c2.859,14.76,6.077,29.441,9.652,44.043s7.505,29.108,11.789,43.52c4.284,14.409,8.917,28.705,13.898,42.891
	c4.982,14.185,10.306,28.24,15.973,42.164c69.004,166.566,178.734,326.559,351.309,397.117
	c147.969,60.496,329.098,42.344,474.313-18.348c181.188-75.722,312.664-221.316,392.594-398.292
	c23.867-52.844,40.344-108.199,62.234-161.668c-17.793,83.891-44.328,163.883-76.68,243.215
	c-20.055,50.453-46.953,96.645-75.211,142.863c-92.117,150.652-285.293,384.211-464.984,426.52
	c-36.766,8.66-76.68,10.832-114.117,5.598c-82.875-11.586-190.781-64.465-262.211-108.66
	c-49.68-30.742-96.375-68.266-139.559-107.543c-50.949-46.348-99.762-97-141.09-152.195
	c-76.34-101.957-139.199-236.57-168.195-360.742c-5.809-24.859-14.398-54.629-13.207-80.137c0.938-20.07,9.477-41.445,15.254-60.668
	C555.68,1810.613,583.094,1735.723,628.019,1663.566z"/>
<path style="fill:#FFFFFF;" d="M3369.625,1659.82c19.383,20.266,48.363,86.84,60.836,114.266
	c22.695,49.914,56.781,133.293,56.711,186.77c-0.066,51.391-35.242,143.32-53.383,191.766
	c-25.676,68.578-61.457,132.051-102.172,192.758c-108.871,162.328-250.461,287.621-429.008,368.496
	c-107.215,48.563-196.465,66.117-309.769,22.836c-209.93-80.195-393.922-344.602-483.16-542.145
	c-34.293-71.211-64.504-169.035-79.082-246.379c19.344,41.125,30.125,86.133,47.688,128.098
	c53.668,128.258,138.918,253.086,250.887,337.055c140.68,105.496,323.32,163.438,498.949,137.453
	c155.23-22.965,287.777-114.797,379.387-240.012C3331.566,2141.215,3401.598,1867.594,3369.625,1659.82z"/>
<path style="fill:#FFFFFF;" d="M2002.613,2380.355c6.355,33.059,14.226,65.066,24.981,96.98
	c43.297,128.461,120.973,257,228.281,341.527c37.234,29.332,76.707,51.902,119.043,72.859
	c-26.176,17.328-53.117,32.234-78.184,51.336c-134.867,102.781-216.742,241.32-264.192,402.223
	c-8.246,27.961-14.695,55.988-20.254,84.609c-2.851,14.676-4.059,31.449-8.754,45.539l-1.305-1.547
	c-52.691-260.5-166.93-426.043-378.836-584.465c126.125-74.516,201.844-131.571,281.766-258.633
	c22.586-35.906,44.019-73.309,58.762-113.191C1980.594,2472.48,1988.965,2426.145,2002.613,2380.355z"/>
<path d="M1981.898,2740.77c34.953-2.25,65.465,1.199,96.566,18.449c35.766,19.84,61.059,53.082,72.012,92.379
	c0.688,2.518,1.312,5.054,1.875,7.606c0.563,2.549,1.061,5.112,1.496,7.688c0.435,2.575,0.805,5.162,1.109,7.758
	c0.305,2.594,0.544,5.193,0.719,7.797c0.174,2.607,0.285,5.216,0.332,7.828c0.044,2.612,0.024,5.223-0.063,7.832
	s-0.237,5.216-0.453,7.82s-0.496,5.201-0.84,7.789c-0.346,2.589-0.756,5.167-1.23,7.734c-0.474,2.568-1.011,5.122-1.613,7.664
	c-0.602,2.542-1.267,5.068-1.996,7.578c-0.727,2.508-1.517,4.996-2.371,7.465c-0.851,2.469-1.764,4.915-2.738,7.34
	c-0.977,2.422-2.012,4.819-3.105,7.191c-1.094,2.37-2.246,4.712-3.457,7.027c-1.211,2.315-2.479,4.598-3.805,6.848
	c-23.926,41.344-62.035,63.52-107.055,75.863c-40.563,6.125-81.18-2.074-114.863-25.977c-2.047-1.471-4.055-2.991-6.023-4.559
	c-1.971-1.57-3.902-3.188-5.793-4.852c-1.893-1.664-3.742-3.374-5.547-5.129c-1.807-1.755-3.57-3.554-5.289-5.395
	c-1.719-1.844-3.391-3.728-5.016-5.652c-1.625-1.924-3.203-3.888-4.734-5.89c-1.529-2.003-3.007-4.041-4.434-6.113
	c-1.43-2.076-2.806-4.185-4.129-6.328c-1.326-2.143-2.596-4.318-3.813-6.524c-1.219-2.206-2.381-4.44-3.488-6.703
	c-1.107-2.263-2.158-4.552-3.152-6.867c-0.995-2.313-1.932-4.65-2.812-7.012c-0.88-2.359-1.702-4.74-2.465-7.141
	c-0.76-2.401-1.462-4.82-2.105-7.258c-0.643-2.435-1.227-4.885-1.75-7.352c-0.521-2.463-0.982-4.939-1.383-7.426
	c-6.726-40.707,1.367-84.34,25.766-117.949C1902.539,2768.078,1938.094,2747.809,1981.898,2740.77z"/>
<path style="fill:#FFFFFF;" d="M1992.027,2776.066c3.557-0.299,7.12-0.444,10.688-0.434c3.568,0.008,7.129,0.17,10.684,0.488
	c3.557,0.315,7.092,0.785,10.606,1.41c3.513,0.623,6.994,1.395,10.441,2.317c3.448,0.924,6.849,1.996,10.203,3.215
	c3.354,1.216,6.65,2.576,9.887,4.078c3.237,1.502,6.404,3.143,9.5,4.922c3.096,1.776,6.109,3.682,9.039,5.719
	c1.578,1.133,3.127,2.305,4.648,3.516c1.521,1.211,3.011,2.458,4.469,3.742c1.461,1.284,2.888,2.603,4.281,3.957
	c1.393,1.354,2.753,2.741,4.078,4.16c1.325,1.422,2.616,2.876,3.871,4.363c1.253,1.485,2.468,2.999,3.645,4.543
	c1.18,1.547,2.32,3.121,3.422,4.723c1.102,1.601,2.163,3.229,3.184,4.883c1.018,1.654,1.996,3.332,2.933,5.035
	c0.938,1.701,1.833,3.425,2.688,5.172c0.852,1.747,1.66,3.514,2.426,5.301c0.766,1.786,1.486,3.59,2.16,5.41
	c0.677,1.823,1.308,3.661,1.895,5.516c0.583,1.852,1.122,3.718,1.617,5.598c0.492,1.88,0.938,3.772,1.336,5.676
	c0.401,1.901,0.754,3.811,1.058,5.73c5.051,31.258-4.473,66.129-23.074,91.59c-18.922,25.898-46,42.11-77.687,46.969
	c-31.359,2.656-58.254-1.246-84.527-20.355c-27.199-19.777-45.266-48.078-50.121-81.508c-0.289-1.979-0.527-3.965-0.715-5.957
	c-0.188-1.989-0.327-3.984-0.418-5.984c-0.089-1.997-0.128-3.996-0.117-5.996c0.01-2,0.072-3.999,0.184-5.996
	c0.109-1.998,0.27-3.991,0.48-5.98c0.208-1.987,0.467-3.969,0.777-5.945c0.31-1.976,0.668-3.944,1.074-5.902
	c0.406-1.958,0.862-3.905,1.367-5.84c0.505-1.935,1.057-3.857,1.656-5.766c0.602-1.909,1.25-3.801,1.945-5.676
	c0.695-1.875,1.436-3.732,2.223-5.57c0.789-1.838,1.622-3.656,2.5-5.453c0.878-1.797,1.799-3.57,2.766-5.32
	c0.969-1.752,1.979-3.479,3.031-5.179c1.055-1.701,2.15-3.374,3.285-5.02c1.138-1.646,2.315-3.262,3.531-4.848
	C1929.895,2793.855,1958.516,2780.75,1992.027,2776.066z"/>
<path style="fill:#FFFFFF;" d="M974.102,2930.492c68.172,24.566,140.285,35.621,211.102,49.406
	c120.059,23.367,239.676,58.891,343.414,125.48c233.711,150.027,357.59,393.641,415.207,658.484
	c-26.574-35.074-49.512-73.504-74.285-109.886c-62.156-91.281-128.012-180.594-208.418-256.828
	c-125.535-119.027-251.664-185.129-420.387-225.73c-25.32-6.094-64.601-19.086-89.348-18.445
	c20.5,86.496,47.715,170.125,88.875,249.164c134.273,257.859,400.348,330.773,657.523,411.719
	c-229.082-9.437-421.863-70.078-617.207-191.219c-48.969-30.367-100.598-63.938-142.527-103.578
	c-25.691-24.289-44.031-57.242-61.82-87.523c-80.246-136.574-90.922-240.922-96.914-395.137
	C977.941,3001.07,975.172,2965.824,974.102,2930.492z"/>
<path style="fill:#FFFFFF;" d="M3007.594,2932.055c12.52,12.133,17.446,100.137,18.352,122.262
	c5.332,130.043-33.344,260.777-94.543,374.614c-13.086,24.336-26.262,50.695-45.262,71.004
	c-30.781,32.898-71.238,60.047-107.773,86.125c-17.961,12.641-36.246,24.793-54.855,36.457
	c-18.607,11.667-37.512,22.831-56.715,33.492c-19.2,10.659-38.672,20.801-58.414,30.426c-19.742,9.625-39.727,18.717-59.953,27.277
	c-154.555,65.969-285.051,94.133-453.207,100.563c31.715-6.52,63.336-17.684,94.117-27.633
	c115.809-37.426,230.172-83.043,334.344-146.559c128.961-78.629,225.574-193.949,277.281-336.285
	c15.465-42.57,25.957-86.261,36.559-130.238l5.219-25.695c-20.615,3.568-41.134,7.619-61.559,12.152
	c-356.043,78.555-535.094,312.672-721.98,604.859c29.324-130.344,72.348-260.887,140.414-376.484
	c123.727-210.121,301.438-332.25,535.012-394.383C2824.785,2970.027,2917.207,2955.481,3007.594,2932.055z"/>
<path style="fill:#FFFFFF;" d="M3500.531,2067.703c6.137,21.203,5.273,48.602,5.5,70.746c0.93,90.246-6.859,176.211-22.238,265.117
	c-12.652,73.133-68.445,173.738-113.516,233.809c-87.273,116.328-203.707,204.32-341.926,250.961
	c-80.813,27.273-166.246,40.996-249.477,58.844c-125.453,26.898-253.66,72.84-359.086,147.363
	c-161.844,114.402-270.508,281.785-338.816,465.625c-23.672,63.707-43.336,130.281-54.82,197.332
	c-0.77-0.672-0.785-0.574-1.293-1.855c-4.211-10.609-1.856-43.867-2.176-56.602c-3.27-130.637,12.043-254.191,53.363-378.746
	c9.922-29.91,22.582-58.191,35.836-86.715c12.547-26.988,24.977-53.711,40.621-79.105
	c112.039-181.848,295.156-276.316,495.141-331.68c45.766-12.672,92.723-21.156,138.785-32.781
	c15.188-3.75,30.258-7.923,45.211-12.52c14.951-4.599,29.762-9.615,44.434-15.047c14.669-5.432,29.173-11.273,43.512-17.523
	c14.341-6.253,28.495-12.903,42.461-19.949c207.273-104.117,378.453-287.156,477.434-496.199
	C3464.188,2176.605,3482.43,2122.402,3500.531,2067.703z"/>
<path style="fill:#FFFFFF;" d="M498.852,2056.289c1.063,1.359,32.836,104.629,37.891,117.422
	c55.523,140.469,141.215,263.563,247.359,370.375c110.535,111.223,250.766,197.871,401.625,241.832
	c64.406,18.77,130.238,25.563,195.25,40.813c36.879,8.652,74.465,18.715,109.578,33.035c119.754,48.836,225.828,139,306.543,238.84
	c121.711,150.547,173.809,317.406,187.332,508.406c2.234,31.547,2.008,63.16,3.047,94.75c1.32,40.078,9.867,92.484,5.773,130.785
	c-8.899-30.617-10.996-63.602-17.52-94.863c-13.344-63.934-33.961-129.676-58.242-190.328
	c-115.797-289.273-311.836-498.719-619.543-580.02c-74.711-19.738-150.531-30.258-225.707-47.148
	c-164.957-37.059-294.949-115.863-406.125-242.496c-49.797-56.719-105.559-133.777-132.578-204.125
	c-10.898-28.379-15.5-59.465-20.355-89.359C495.465,2275.082,491.637,2166.359,498.852,2056.289z"/>
<path style="fill:#FFFFFF;" d="M1639.726,1643.73c67.793-5.926,129.035,9.48,194.606,24.078
	c33.336,7.418,66.699,13.976,100.141,20.836c-98.859,19.27-200.641,50.84-292.734,91.434
	c-39.375,17.355-77.316,38.922-113.992,61.348c-149.188,91.23-273.426,216.027-337.777,380.98
	c-10.027,25.703-42.871,113.641-32.898,136.399c7.813,5.047,17.504,3.652,26.281,2.258c30.281-4.824,61.133-14.039,91.098-20.992
	c42.109-9.773,84.066-20.129,124.727-34.961c290.91-106.109,417.082-345.617,588.477-581.945l1.934-0.109l-1.512,12.129
	c-9.958,50.789-22.214,101.017-36.766,150.684c-14.552,49.669-31.34,98.57-50.363,146.703
	c-81.195,199.918-195.774,351.199-398.91,436.734c-114.887,48.375-248.059,68.226-370.367,40.57
	c-36.578-8.27-70.855-21.336-105.461-35.422c-6.438-29.031-11.977-58.199-14.852-87.824
	c-16.524-170.32,32.355-360.789,142.652-493.688C1282.476,1738.149,1440.942,1662.141,1639.726,1643.73z"/>
<path style="fill:#FFFFFF;" d="M2332.738,1645.453c63.676,0.418,125.23,8.25,186.137,27.281c5.401,1.719,10.781,3.505,16.141,5.359
	c5.359,1.852,10.695,3.77,16.008,5.754c5.31,1.982,10.595,4.03,15.855,6.145c5.26,2.112,10.495,4.289,15.703,6.531
	s10.388,4.548,15.539,6.918c5.151,2.37,10.272,4.803,15.363,7.301c5.091,2.495,10.15,5.052,15.176,7.672
	c5.029,2.62,10.023,5.301,14.984,8.043c4.964,2.742,9.892,5.546,14.785,8.41c4.893,2.865,9.75,5.788,14.57,8.77
	c4.823,2.984,9.607,6.027,14.352,9.129c4.747,3.099,9.456,6.258,14.125,9.476c4.669,3.216,9.298,6.49,13.887,9.82
	c4.586,3.331,9.132,6.718,13.637,10.16c4.505,3.44,8.968,6.936,13.387,10.488s8.794,7.159,13.125,10.82
	c4.331,3.659,8.616,7.371,12.855,11.137c4.237,3.766,8.428,7.582,12.574,11.449c4.146,3.867,8.243,7.785,12.293,11.754
	c4.047,3.969,8.046,7.987,11.996,12.055s7.85,8.184,11.699,12.348c3.849,4.161,7.646,8.371,11.391,12.629
	c3.745,4.255,7.437,8.557,11.078,12.906c3.641,4.347,7.227,8.737,10.758,13.172c3.531,4.435,7.008,8.913,10.43,13.433
	c3.419,4.521,6.784,9.083,10.094,13.688c3.31,4.604,6.563,9.249,9.758,13.934c3.195,4.682,6.332,9.404,9.41,14.164
	c3.078,4.763,6.097,9.561,9.058,14.395c2.961,4.836,5.862,9.707,8.703,14.613c2.841,4.906,5.622,9.846,8.344,14.82
	c2.719,4.977,5.376,9.984,7.973,15.024c70.414,135.781,91.98,308.516,45.426,454.844c-32.73,13.875-65.289,27.297-99.832,36.125
	c-152.48,38.973-319.816,0.691-453.508-78.527c-201.859-119.602-292.344-304.504-360.004-521.188
	c-14.152-45.324-28.621-90.316-40.422-136.332c-3.645-17-5.801-33.871-6.75-51.223c26.832,42.496,56.031,83.645,84.57,125.016
	c75.113,108.887,152.762,215.465,252.578,303.527c111.5,98.367,265.008,170.906,410.937,197.344
	c22.25,4.031,49.145,11.82,71.484,9.711c6.313-0.598,9.219-2.012,13.172-6.883c5.875-43.914-68.601-191.145-92.668-231.883
	c-151.813-256.945-409.172-359.449-684.637-430.367C2158.277,1671.859,2235.016,1648.402,2332.738,1645.453z"/>
</svg>
