<?xml version="1.0" encoding="utf-8"?>
<!-- Generator: Adobe Illustrator 27.5.0, SVG Export Plug-In . SVG Version: 6.00 Build 0)  -->
<svg xmlns="http://www.w3.org/2000/svg" xmlns:xlink="http://www.w3.org/1999/xlink" viewBox="0 0 500 500" width="595" height="842" preserveAspectRatio="xMidYMid meet" data-scaled="true">
<g id="BACKGROUND">
	<rect style="fill:#FFFFFF;" width="500" height="500"/>
</g>
<g id="OBJECTS">
	<g>
		<g>
			<path style="fill:none;stroke:#381757;stroke-linecap:round;stroke-linejoin:round;stroke-miterlimit:10;" d="M430.132,383.24
				c16.977-10.993,28.84-6.191,19.744,16.365c2.45,2.959,5.322,4.964,6.484,8.626c1.163,3.662,0.675,8.119-2.197,10.67
				c-3.042,2.702-7.6,2.504-11.654,2.15c-0.776,2.128-7.333,11.655-13.668,10.822c-6.395-0.84-8.288-7.911-9.376-13.858
				c-9.36,4.451-30.454-7.847-7.232-20.909c-2.157-4.07-3.493-12.073-0.971-14.492c4.784-4.586,13.13-1.648,18.157,1.07
				C429.432,383.69,429.708,383.515,430.132,383.24z"/>
			<path style="fill:none;stroke:#381757;stroke-linecap:round;stroke-linejoin:round;stroke-miterlimit:10;" d="M434.827,411.608
				c-4.603,1.059-9.193-1.813-10.253-6.416c-1.059-4.603,1.813-9.193,6.416-10.253c4.603-1.059,9.193,1.813,10.252,6.416
				C442.303,405.958,439.43,410.548,434.827,411.608z"/>
		</g>
		<g>
			<path style="fill:none;stroke:#381757;stroke-linecap:round;stroke-linejoin:round;stroke-miterlimit:10;" d="M73.681,164.216
				c-19.762,4.305-29.171-4.37-12.71-22.274c-1.25-3.633-3.231-6.521-3.029-10.357c0.202-3.836,2.229-7.836,5.817-9.211
				c3.799-1.456,7.995,0.335,11.664,2.094c1.476-1.717,10.97-8.323,16.605-5.311c5.688,3.04,4.969,10.324,3.891,16.273
				c10.328-0.867,25.735,18.076-0.601,22.117c0.584,4.569-0.985,12.53-4.199,13.904c-6.093,2.606-12.868-3.085-16.615-7.4
				C74.495,164.042,74.175,164.109,73.681,164.216z"/>
			<path style="fill:none;stroke:#381757;stroke-linecap:round;stroke-linejoin:round;stroke-miterlimit:10;" d="M81.248,135.672
				c4.681,0.631,7.964,4.936,7.334,9.617c-0.631,4.681-4.936,7.964-9.617,7.334c-4.681-0.631-7.964-4.936-7.334-9.617
				C72.262,138.324,76.568,135.041,81.248,135.672z"/>
		</g>
		<path style="fill:none;stroke:#381757;stroke-linecap:round;stroke-linejoin:round;stroke-miterlimit:10;" d="M67.83,361.945
			c-8.176,0.956-28.899-6.988-27.76-17.932c0.822-7.908,12.707-10.01,18.802-2.504c-2.626-19.005,22.523-19.674,17.521,3.241
			C75.661,348.107,72.593,361.388,67.83,361.945z"/>
		<path style="fill:none;stroke:#381757;stroke-linecap:round;stroke-linejoin:round;stroke-miterlimit:10;" d="M415.669,191.916
			c-5.959-5.679-13.088-26.696-3.941-32.813c6.609-4.42,15.819,3.379,13.939,12.865c12.943-14.162,29.525,4.757,8.701,15.55
			C431.318,189.098,419.141,195.224,415.669,191.916z"/>
	</g>
	<g>
		<g>
			<g>
				<path style="fill:none;stroke:#381757;stroke-linecap:round;stroke-linejoin:round;stroke-miterlimit:10;" d="M310.063,75.641
					c55.465,37.172,56.12,126.639-25.529,151.08c-59.962,17.949-147.431-19.145-130.87-92.951
					C167.925,70.206,252.952,37.366,310.063,75.641z"/>
				<path style="fill:none;stroke:#381757;stroke-linecap:round;stroke-linejoin:round;stroke-miterlimit:10;" d="M177.576,157.27
					c-4.247-34.899,49.74-42.723,48.9-13.153C225.948,162.704,181.125,186.427,177.576,157.27z"/>
				<path style="fill:none;stroke:#381757;stroke-linecap:round;stroke-linejoin:round;stroke-miterlimit:10;" d="M271.613,130.07
					c-29.546,16.158,6.32,57.36,30.475,41.863C327.529,155.611,293.572,118.06,271.613,130.07z"/>
				<path style="fill:none;stroke:#381757;stroke-linecap:round;stroke-linejoin:round;stroke-miterlimit:10;" d="M248.044,189.401
					c-11.037,6.308-13.823,7.133-21.062,0.802c-2.825-2.47-8.461-5.881-8.057-10.171c0.187-1.988,1.577-3.813,3.444-4.522
					c2.248-0.854,28.905,1.465,30.932,3.884C254.844,181.236,254.627,185.638,248.044,189.401z"/>
				<path style="fill:none;stroke:#381757;stroke-linecap:round;stroke-linejoin:round;stroke-miterlimit:10;" d="M203.045,189.796
					c-4.845,13.194,16.965,20.053,26.503,11.989c2.355-1.991,3.996-4.396,5.121-7.267c0.801,3.439,1.332,6.403,3.691,9.03
					c8.77,9.764,32.271,6.52,32.372-5.921"/>
				<path style="fill:none;stroke:#381757;stroke-linecap:round;stroke-linejoin:round;stroke-miterlimit:10;" d="M219.282,210.818
					c6.584,5.824,16.539,7.519,24.68,4.203"/>
				<path style="fill:none;stroke:#381757;stroke-linecap:round;stroke-linejoin:round;stroke-miterlimit:10;" d="M171.691,97.438
					c-18.361-1.333-25.395-43.221,5.993-55.54c20.992-8.239,40.212,5.638,41.732,23.325"/>
				<path style="fill:none;stroke:#381757;stroke-linecap:round;stroke-linejoin:round;stroke-miterlimit:10;" d="M184.849,84.334
					c-5.732,0.21-10.907-6.705-7.812-15.036c3.488-9.39,22.516-12.374,24.976,3.502"/>
				<path style="fill:none;stroke:#381757;stroke-linecap:round;stroke-linejoin:round;stroke-miterlimit:10;" d="M342.782,115.662
					c18.047,3.634,37.929-33.866,10.987-54.142c-18.018-13.561-40.385-4.368-46.587,12.266"/>
				<path style="fill:none;stroke:#381757;stroke-linecap:round;stroke-linejoin:round;stroke-miterlimit:10;" d="M334.829,100.569
					c5.466,1.738,12.975-3.623,12.225-12.478c-0.846-9.981-18.437-17.523-25.061-2.886"/>
			</g>
			<g>
				<g>
					<path style="fill:#381757;stroke:#381757;stroke-linecap:round;stroke-linejoin:round;stroke-miterlimit:10;" d="
						M192.402,156.665c-8.436-3.396-10.279-13.564-10.279-13.564c5.31,4.485,9.16,5.452,14.81,5.112L192.402,156.665z"/>
					<path style="fill:#381757;stroke:#381757;stroke-linecap:round;stroke-linejoin:round;stroke-miterlimit:10;" d="
						M192.408,159.293c-3.139-5.411-0.345-12.338,4.859-15.403c5.151-3.197,12.306-3.427,17.286,0.246
						c3.209,2.303,5.081,6.408,4.454,10.225c-3.149-5.846-8.685-8.26-15.067-7.064C197.554,148.451,193.236,152.71,192.408,159.293
						L192.408,159.293z"/>
				</g>
				<g>
					<path style="fill:#381757;stroke:#381757;stroke-linecap:round;stroke-linejoin:round;stroke-miterlimit:10;" d="
						M293.866,163.577c8.904-1.846,12.522-11.526,12.522-11.526c-6.021,3.472-9.982,3.741-15.482,2.404L293.866,163.577z"/>
					<path style="fill:#381757;stroke:#381757;stroke-linecap:round;stroke-linejoin:round;stroke-miterlimit:10;" d="
						M293.394,166.163c4.049-4.768,2.528-12.081-2.05-16.021c-4.502-4.06-11.503-5.555-17.056-2.824
						c-3.567,1.697-6.137,5.405-6.197,9.272c4.136-5.195,10.012-6.589,16.081-4.28C290.253,154.579,293.747,159.538,293.394,166.163
						L293.394,166.163z"/>
				</g>
			</g>
			<path style="fill:none;stroke:#381757;stroke-linecap:round;stroke-linejoin:round;stroke-miterlimit:10;" d="M228.662,158.671
				c9.599-5.541,19.162-2.38,24.595,1.754"/>
		</g>
		<g>
			<path style="fill:none;stroke:#381757;stroke-linecap:round;stroke-linejoin:round;stroke-miterlimit:10;" d="M217.994,248.927
				c-2.028,2.416-3.395,5.383-3.912,8.495"/>
			<path style="fill:none;stroke:#381757;stroke-linecap:round;stroke-linejoin:round;stroke-miterlimit:10;" d="M221.966,254.834
				c-0.907,1.807-1.379,3.83-1.367,5.852"/>
			<path style="fill:none;stroke:#381757;stroke-linecap:round;stroke-linejoin:round;stroke-miterlimit:10;" d="M230.322,254.132
				c-1.037,2.463-1.234,5.271-0.551,7.854"/>
			<path style="fill:none;stroke:#381757;stroke-linecap:round;stroke-linejoin:round;stroke-miterlimit:10;" d="M289.208,259.987
				c0.896,2.732,1.064,5.699,0.482,8.514"/>
			<path style="fill:none;stroke:#381757;stroke-linecap:round;stroke-linejoin:round;stroke-miterlimit:10;" d="M294.947,260.671
				c1.31,1.649,2.004,3.776,1.919,5.88"/>
			<path style="fill:none;stroke:#381757;stroke-linecap:round;stroke-linejoin:round;stroke-miterlimit:10;" d="M300.785,258.742
				c1.367,1.054,2.14,2.833,1.979,4.552"/>
			<path style="fill:none;stroke:#381757;stroke-linecap:round;stroke-linejoin:round;stroke-miterlimit:10;" d="M127.314,331.622
				c-2.16,2.781-3.272,6.356-3.07,9.871"/>
			<path style="fill:none;stroke:#381757;stroke-linecap:round;stroke-linejoin:round;stroke-miterlimit:10;" d="M132.711,334.346
				c-0.66,2.092-0.9,4.314-0.704,6.499"/>
			<path style="fill:none;stroke:#381757;stroke-linecap:round;stroke-linejoin:round;stroke-miterlimit:10;" d="M139.141,334.981
				c0.062,1.894,0.768,3.761,1.974,5.222"/>
		</g>
		<g>
			<g>
				<g>
					<path style="fill:none;stroke:#381757;stroke-linecap:round;stroke-linejoin:round;stroke-miterlimit:10;" d="M272.32,456.498
						c13.966,27.103,68.872,0.642,60.951-36.443c-3.574-16.733-19.083-27.988-31.814-27.488
						C275.088,393.605,264.007,440.366,272.32,456.498z"/>
					<path style="fill:none;stroke:#381757;stroke-linecap:round;stroke-linejoin:round;stroke-miterlimit:10;" d="M305.082,445.993
						c0.18-5.706-3.762-11.297-9.197-13.044c-10.452-3.359-22.102,8.875-16.325,18.959
						C285.557,462.376,304.69,458.382,305.082,445.993z"/>
					<path style="fill:none;stroke:#381757;stroke-linecap:round;stroke-linejoin:round;stroke-miterlimit:10;" d="M321.997,427.124
						c-7.233-2.921-13.458,11.243-4.206,10.851C323.365,437.74,329.099,429.993,321.997,427.124z"/>
					<path style="fill:none;stroke:#381757;stroke-linecap:round;stroke-linejoin:round;stroke-miterlimit:10;" d="M305.528,413.72
						c-2.313,2.031-5.435,8.733-2.57,11.218c3.409,2.957,10.71-1.26,11.713-5.158C315.922,414.923,309.524,410.213,305.528,413.72z"
						/>
					<path style="fill:none;stroke:#381757;stroke-linecap:round;stroke-linejoin:round;stroke-miterlimit:10;" d="M288.998,407.765
						c-1.519,2.784-3.478,9.133,0.951,10.556c2.37,0.762,4.573-1.502,5.887-3.617C299.544,408.74,293.17,400.121,288.998,407.765z"
						/>
				</g>
				<path style="fill:none;stroke:#381757;stroke-linecap:round;stroke-linejoin:round;stroke-miterlimit:10;" d="M281.234,404.754
					c9.033-32.37,44.131-66.542,64.453-73.631c29.544-10.305,50.564,12.321,44.95,46.049c-5.438,32.676-31.891,63.774-64.042,71.748
					"/>
			</g>
			<g>
				<g>
					<path style="fill:none;stroke:#381757;stroke-linecap:round;stroke-linejoin:round;stroke-miterlimit:10;" d="M221.144,456.498
						c-13.966,27.103-68.872,0.642-60.951-36.443c3.574-16.733,19.083-27.988,31.814-27.488
						C218.376,393.605,229.457,440.366,221.144,456.498z"/>
					<path style="fill:none;stroke:#381757;stroke-linecap:round;stroke-linejoin:round;stroke-miterlimit:10;" d="M188.382,445.993
						c-0.18-5.706,3.762-11.297,9.197-13.044c10.452-3.359,22.102,8.875,16.325,18.959
						C207.907,462.376,188.774,458.382,188.382,445.993z"/>
					<path style="fill:none;stroke:#381757;stroke-linecap:round;stroke-linejoin:round;stroke-miterlimit:10;" d="M171.467,427.124
						c7.233-2.921,13.458,11.243,4.206,10.851C170.099,437.74,164.365,429.993,171.467,427.124z"/>
					<path style="fill:none;stroke:#381757;stroke-linecap:round;stroke-linejoin:round;stroke-miterlimit:10;" d="M187.936,413.72
						c2.313,2.031,5.435,8.733,2.57,11.218c-3.409,2.957-10.71-1.26-11.713-5.158C177.542,414.923,183.94,410.213,187.936,413.72z"
						/>
					<path style="fill:none;stroke:#381757;stroke-linecap:round;stroke-linejoin:round;stroke-miterlimit:10;" d="M204.465,407.765
						c1.519,2.784,3.478,9.133-0.951,10.556c-2.37,0.762-4.573-1.502-5.887-3.617C193.92,408.74,200.294,400.121,204.465,407.765z"
						/>
				</g>
				<path style="fill:none;stroke:#381757;stroke-linecap:round;stroke-linejoin:round;stroke-miterlimit:10;" d="M178.633,460.036
					c-30.684-1.223-62.117-32.953-70.132-51.199c-16.985-38.665,23.708-80.29,72.26-55.494c16.355,8.353,40.987,24.24,46.86,54.162
					c4.009,20.424,3.146,24.85-3.845,37.644"/>
			</g>
			<path style="fill:none;stroke:#381757;stroke-linecap:round;stroke-linejoin:round;stroke-miterlimit:10;" d="M337.67,188.555
				c20.314,72.303-110.307,116.087-63.76,168.913c16.872,19.147,31.755-3.127,37.222-8.281
				c34.079-32.124,49.204-33.326,59.682-52.653c15.187-28.013-6.931-63.564-30.176-113.237"/>
			<path style="fill:none;stroke:#381757;stroke-linecap:round;stroke-linejoin:round;stroke-miterlimit:10;" d="M160.289,184.945
				c-19.128,26.115-46.168,62.91-37.127,102.374c6.052,26.417,29.953,49.704,52.823,63.342c51.844,30.913,93.024-2.571,38.16-58.542
				c-13.135-13.4-30.551-24.059-39.126-41.303c-9.269-18.64-14.386-37.555-9.16-57.5"/>
			<path style="fill:none;stroke:#381757;stroke-linecap:round;stroke-linejoin:round;stroke-miterlimit:10;" d="M230.014,426.964
				c11.293-5.345,30.128-5.805,41.793-1.328"/>
			<path style="fill:none;stroke:#381757;stroke-linecap:round;stroke-linejoin:round;stroke-miterlimit:10;" d="M390.538,356.09
				c-0.204-18.926-9.956-44.628-18.706-61.576"/>
			<path style="fill:none;stroke:#381757;stroke-linecap:round;stroke-linejoin:round;stroke-miterlimit:10;" d="M108.541,372.731
				c-1.96-24.492,4.911-52.593,18.922-72.778"/>
			<path style="fill:none;stroke:#381757;stroke-linecap:round;stroke-linejoin:round;stroke-miterlimit:10;" d="M270.079,352.576
				c0.628-8.744,5.799-16.952,12.593-20.622"/>
			<path style="fill:none;stroke:#381757;stroke-linecap:round;stroke-linejoin:round;stroke-miterlimit:10;" d="M284.711,364.721
				c1.297-5.976,5.263-11.657,10.909-14.007"/>
			<path style="fill:none;stroke:#381757;stroke-linecap:round;stroke-linejoin:round;stroke-miterlimit:10;" d="M208.987,344.709
				c4.047,7.269,12.661,11.921,20.797,13.664"/>
			<path style="fill:none;stroke:#381757;stroke-linecap:round;stroke-linejoin:round;stroke-miterlimit:10;" d="M223.889,329.117
				c3.876,6.031,9.245,10.847,16.145,12.794"/>
		</g>
	</g>
</g>
</svg>
