<?xml version="1.0" encoding="utf-8"?>
<!-- Generator: Adobe Illustrator 27.5.0, SVG Export Plug-In . SVG Version: 6.00 Build 0)  -->
<svg xmlns="http://www.w3.org/2000/svg" xmlns:xlink="http://www.w3.org/1999/xlink" viewBox="0 0 2400 2400" width="595" height="842" preserveAspectRatio="xMidYMid meet" data-scaled="true">
<path d="M2392,8v2384H8V8H2392 M2400,0H0v2400h2400V0L2400,0z"/>
<g>
	<g>
		<path style="fill:#FFFFFF;" d="M0,0"/>
	</g>
	<g>
		<path style="fill:none;stroke:#000000;stroke-width:4;stroke-miterlimit:10;" d="M0,0"/>
	</g>
</g>
<g>
	<path d="M1372.291,1701.451l-3.764-1.355c107.896-299.483,163.504-606.328,165.278-912.01c0.311-53.365-1.031-107.476-3.987-160.83
		l3.994-0.222c2.96,53.435,4.304,107.628,3.993,161.075C1536.028,1094.247,1480.341,1401.539,1372.291,1701.451z"/>
</g>
<g>
	<path d="M1553.394,1708.574l-3.936-0.713c35.547-196.04,56.934-396.277,63.566-595.149c5.185-155.437,1.435-312.913-11.144-468.053
		l3.986-0.323c12.591,155.292,16.345,312.921,11.155,468.51C1610.383,1311.911,1588.975,1512.344,1553.394,1708.574z"/>
</g>
<g>
	<path style="fill:#FFFFFF;" d="M47.941,1874.462c336.627-48.748,739.253-80.434,1192.793-62.957
		c421.633,16.248,795.66,71.455,1111.324,138.408c-12.374-15.059-27.815-30.828-46.933-45.341
		c-74.525-56.574-156.326-57.185-193.131-54.745c16.393-25.82,9.904-59.501-9.61-73.906c-21.549-15.907-57.074-6.896-70.959,24.635
		c1.143-3.986,14.327-52.012-7.603-76.643c-23.114-25.961-82.51-22.872-126.713,30.11c36.176-52.703,38.195-114.974,14.27-142.137
		c-28.731-32.619-107.91-29.409-160.177,41.576c2.662-11.745,8.534-44.378-5.018-81.334c-11.231-30.626-30.083-48.627-39.144-56.246
		c-24.293,2.905-58.85,10.294-96.302,30.11c-61.995,32.801-97.685,81.535-114.042,107.471
		c-24.833-76.594-60.89-113.871-88.027-133.624c-124.013-90.266-231.737,61.707-537.936,59
		c-67.95-0.601-160.709-8.952-263.563,46.533c-40.915,22.072-71.06,47.573-90.134,65.675c-23.242-59.296-56.13-74.27-65.723-77.992
		c-63.131-24.494-160.477,33.655-214.145,160.13c28.926-116.514,16.174-132.369,10.137-135.495
		c-15.462-8.006-52.529,33.498-72.227,69.8c-16.112,29.695-21.803,58.122-24.076,76.643c-20.311-49.784-35.702-56.522-44.35-56.114
		C74.607,1729.532,54.893,1832.989,47.941,1874.462z"/>
	<path d="M2357.228,1953.054l-5.584-1.185c-365.302-77.482-739.092-124.035-1110.986-138.366
		c-83.438-3.215-167.107-4.821-250.797-4.821c-314.677,0-630.349,22.681-941.632,67.76l-2.712,0.393l0.453-2.703
		c11.196-66.79,30.795-146.703,60.588-148.11c13.988-0.635,28.62,16.354,43.462,50.612c3.88-25.179,11.704-48.729,23.299-70.099
		c19.352-35.663,57.211-79.78,74.904-70.622c13.513,6.998,12.069,46.498-4.268,117.511c24.62-50.64,58.09-92.279,95.588-118.556
		c39.298-27.538,80.299-36.167,112.492-23.678c15.521,6.021,44.468,23.933,65.767,76.384c27.176-25.454,56.91-46.966,88.417-63.962
		c92.844-50.086,176.124-48.442,243.039-47.122c7.499,0.147,14.583,0.288,21.491,0.349c143.735,1.27,242.652-31.297,322.127-57.466
		c43.897-14.455,81.81-26.938,116.583-29.65c37.736-2.942,69.63,6.112,100.386,28.499c38.31,27.884,67.714,71.818,87.433,130.619
		c20.866-32.15,56.832-75.151,112.524-104.617c30.348-16.058,62.983-26.261,97-30.327l0.861-0.104l0.663,0.559
		c12.399,10.426,29.358,28.793,39.735,57.088c10.83,29.535,9.541,56.841,6.713,74.123c27.336-33.779,63.535-53.886,100.416-55.499
		c24.255-1.064,45.278,6.411,57.689,20.501c12.188,13.838,17.981,36.79,15.896,62.972c-1.734,21.757-8.707,44.345-19.963,65.164
		c21.961-20.546,47.799-32.256,72.958-32.66c0.414-0.006,0.831-0.01,1.243-0.01c17.541,0,32.905,5.998,42.303,16.553
		c16.242,18.244,14.003,48.343,10.933,65.65c7.4-10.03,17.667-17.216,29.427-20.345c13.643-3.628,27.451-1.286,37.896,6.423
		c18.564,13.705,27.295,45.817,12.068,73.291c50.995-2.802,124.224,4.917,190.693,55.377c17.192,13.052,33.097,28.415,47.27,45.665
		L2357.228,1953.054z M989.861,1804.682c83.766,0,167.437,1.606,250.95,4.824c370.19,14.266,742.275,60.442,1105.99,137.25
		c-13.021-15.218-27.426-28.854-42.886-40.592c-67.144-50.97-141.363-57.688-191.789-54.342l-3.935,0.26l2.113-3.328
		c7.481-11.783,10.454-25.941,8.37-39.865c-1.973-13.186-8.344-24.615-17.479-31.359c-9.464-6.985-22.036-9.09-34.492-5.776
		c-14.693,3.91-26.885,14.701-33.45,29.608l-3.753-1.357c0.592-2.06,14.229-50.722-7.174-74.762
		c-8.843-9.933-23.638-15.507-40.493-15.203c-29.261,0.47-59.582,16.969-83.19,45.265l-3.185-2.413
		c37.185-54.173,36.436-114.686,14.418-139.683c-11.605-13.177-31.479-20.145-54.513-19.149
		c-38.048,1.664-75.427,23.748-102.553,60.588l-5.678,7.712l2.117-9.34c3.49-15.398,7.488-46.294-4.946-80.203
		c-9.891-26.969-25.93-44.639-37.893-54.844c-33.215,4.076-65.086,14.097-94.74,29.786c-56.994,30.154-93.063,74.706-113.286,106.77
		l-2.277,3.611l-1.316-4.061c-19.451-59.996-48.823-104.617-87.302-132.623c-64.835-47.192-123.923-27.734-213.364,1.716
		c-78.235,25.761-175.253,57.7-315.229,57.703c-2.717,0-5.435-0.012-8.184-0.036c-6.93-0.062-14.024-0.201-21.535-0.35
		c-66.444-1.312-149.143-2.942-241.061,46.643c-32.028,17.277-62.211,39.27-89.708,65.366l-2.154,2.045l-1.084-2.767
		c-20.834-53.154-49.407-70.969-64.583-76.857c-30.925-11.995-70.564-3.533-108.75,23.226
		c-41.479,29.066-77.999,77.302-102.832,135.82l-3.782-1.263c27.601-111.177,16.998-130.213,11.158-133.236
		c-13.503-6.997-49.53,32.084-69.549,68.978c-12.461,22.967-20.485,48.515-23.848,75.933l-0.935,7.625l-2.901-7.112
		c-14.894-36.507-29.585-55.511-42.403-54.871c-20.653,0.976-41.164,52.712-56.376,142.073
		C360.93,1827.251,675.941,1804.682,989.861,1804.682z"/>
</g>
<g>
	<path style="fill:#FFFFFF;" d="M966.932,695.176c43.275-155.665,178.026-262.441,324.362-263.809
		c171.406-1.603,272.606,142.217,280.781,154.253c-13.759-8.844-51.306-30.364-102.76-28.148
		c-67.971,2.927-110.655,45.141-120.07,54.927c17.276-26.796,34.552-53.591,51.828-80.387c-13.251,4.866-35.547,14.994-56.98,35.664
		c-19.423,18.731-30.052,38.323-35.625,50.787c0.672-12.243,3.031-29.805,10.675-49.468c8.973-23.081,21.481-39.421,30.313-49.252
		c-19.294,8.402-46.505,22.821-74.09,47.187c-27.305,24.118-44.872,49.058-55.586,67.047c8.883-19.323,17.905-43.511,24.128-72.087
		c3.453-15.857,5.523-30.67,6.695-44.088c-14.255,8.036-35.105,22.08-54.553,45.158c-23.875,28.332-34.45,57.004-39.291,74
		c5.831-40.18,11.663-80.359,17.494-120.539c-10.034,20.978-22.766,44.347-38.941,68.863c-17.659,26.765-35.714,49.28-52.346,67.803
		c5.055-26.06,10.11-52.121,15.164-78.181c-22.876,27.104-51.077,56.367-85.489,85.153
		C997.075,673.08,981.748,684.74,966.932,695.176z"/>
	<path d="M963.505,700.036l1.5-5.395c43.034-154.795,177.201-263.88,326.27-265.273c39.471-0.372,78.465,6.99,115.794,21.876
		c30.213,12.048,59.504,29.059,87.058,50.559c47.469,37.042,74.638,75.384,79.602,82.694l5.502,8.102l-8.237-5.296
		c-17.537-11.273-54.043-29.866-101.593-27.832c-62.577,2.695-103.867,38.882-118.715,54.315l-3.122-2.471l48.483-75.2
		c-18.701,7.704-36.082,19.032-50.565,33c-14.884,14.354-26.723,31.231-35.188,50.164l-4.417,9.877l0.594-10.804
		c0.946-17.217,4.583-34.067,10.809-50.083c6.053-15.572,14.396-30.001,24.854-43.003c-23.741,11.247-45.72,25.74-65.443,43.161
		c-21.763,19.223-40.332,41.621-55.191,66.571l-3.536-1.859c10.568-22.99,18.641-47.106,23.991-71.676
		c2.861-13.143,4.978-26.579,6.3-40.001c-19.272,11.355-36.306,25.734-50.675,42.786c-17.817,21.143-31.268,46.475-38.897,73.258
		l-3.903-0.835l15.674-107.997c-10.032,19.838-21.262,39.204-33.472,57.71c-15.744,23.863-33.417,46.754-52.527,68.038l-4.828,5.376
		l15.094-77.817c-24.75,28.684-51.901,55.439-80.796,79.61c-14.714,12.309-30.137,24.158-45.84,35.219L963.505,700.036z
		 M1294.185,433.353c-0.959,0-1.911,0.004-2.872,0.014c-145.535,1.36-276.721,106.696-320.889,256.875
		c14.009-10.043,27.757-20.695,40.934-31.718c30.652-25.641,59.332-54.208,85.244-84.908l4.955-5.87l-15.234,78.54
		c17.127-19.573,33.024-40.434,47.32-62.103c14.437-21.881,27.493-44.97,38.806-68.624l5.671-11.858l-16.32,112.449
		c7.992-19.773,19.107-38.324,32.721-54.478c15.5-18.393,34.038-33.739,55.1-45.612l3.305-1.863l-0.33,3.779
		c-1.297,14.862-3.562,29.781-6.732,44.34c-3.823,17.559-9.021,34.887-15.512,51.747c12.625-17.822,27.261-34.119,43.691-48.632
		c22.267-19.668,47.371-35.656,74.615-47.521l8.434-3.673l-6.147,6.843c-12.9,14.361-22.973,30.726-29.936,48.641
		c-4.772,12.276-7.984,25.055-9.59,38.115c8.161-15.458,18.653-29.416,31.286-41.599c16.346-15.764,36.291-28.248,57.679-36.102
		l5.607-2.059l-46.182,71.628c20.567-17.662,57.95-42.013,109.42-44.229c42.032-1.807,75.634,12.153,95.562,23.42
		c-10.925-14.606-35.604-44.66-73.124-73.938C1430.771,457.437,1364.339,433.353,1294.185,433.353z"/>
</g>
<g>
	<path style="fill:#FFFFFF;" d="M2271.856,450.019c-107.421-152.813-295.557-216.947-455.496-161.77
		c-187.339,64.63-241.887,260.486-246.131,276.763c11.563-14.962,44.131-52.944,101.04-70.455
		c75.176-23.132,138.021,6.323,152.066,13.337c-29.196-22.499-58.392-44.999-87.587-67.498c16.319,0.169,44.529,2.568,75.881,16.785
		c28.412,12.883,47.577,30.109,58.474,41.529c-5.473-13.076-14.844-31.294-30.785-49.753
		c-18.712-21.669-38.665-34.624-52.093-41.914c24.272,1.681,59.497,6.851,98.981,22.711c39.084,15.699,67.878,36.064,86.515,51.511
		c-17.16-17.61-36.354-40.464-54.199-69.183c-9.903-15.937-17.893-31.271-24.366-45.434c18.64,3.233,46.792,10.458,76.914,28.067
		c36.979,21.617,59.602,48.756,71.457,65.395c-21.911-41.511-43.823-83.022-65.734-124.532
		c19.054,18.967,41.973,39.493,69.086,59.935c29.6,22.317,57.988,39.852,83.279,53.589c-15.598-26.431-31.196-52.862-46.794-79.293
		c35.416,20.667,77.468,41.623,126.1,59.655C2230.464,437.621,2251.675,444.388,2271.856,450.019z"/>
	<path d="M1565.823,573.985l2.471-9.478c2.576-9.879,17.317-62.132,54.653-120.818c21.673-34.067,46.974-63.917,75.198-88.722
		c34.868-30.643,74.422-53.726,117.563-68.609c162.798-56.163,351.043,10.665,457.784,162.51l3.222,4.582l-5.395-1.505
		c-21.384-5.966-42.766-12.899-63.551-20.605c-41.184-15.271-81.456-34.094-119.815-55.995l46.6,78.964l-6.35-3.449
		c-29.047-15.777-57.149-33.861-83.527-53.749c-20.968-15.809-41.162-32.997-60.17-51.206l59.791,113.272l-3.397,2.094
		c-18.707-26.256-43.202-48.674-70.838-64.83c-22.46-13.129-46.824-22.25-72.471-27.136c6.711,14.319,14.314,28.337,22.631,41.721
		c15.357,24.716,33.503,47.878,53.933,68.843l-2.709,2.936c-25.876-21.447-54.806-38.671-85.984-51.195
		c-28.682-11.521-58.729-18.851-89.449-21.83c16.872,10.22,31.919,22.929,44.82,37.87c12.965,15.013,23.434,31.933,31.115,50.289
		l4.177,9.979l-7.469-7.826c-16.58-17.375-36.044-31.199-57.853-41.088c-21.523-9.76-45.243-15.401-68.968-16.44l82.722,63.748
		l-2.114,3.374c-22.186-11.078-81.267-34.543-150.585-13.215c-52.66,16.204-85.285,50.667-100.045,69.767L1565.823,573.985z
		 M1934.332,270.643c-39.592,0-79.154,6.331-117.319,19.497c-77.904,26.876-142.063,79.26-190.69,155.696
		c-30.265,47.571-45.54,90.823-51.498,110.361c17.113-20.014,48.558-48.999,95.857-63.553c58.183-17.903,109.28-4.872,138.152,6.599
		l-79.038-60.909l5.973,0.062c26.296,0.272,52.813,6.138,76.687,16.963c18.968,8.6,36.197,20.114,51.353,34.3
		c-6.942-14.206-15.662-27.422-26.003-39.396c-14.55-16.849-31.888-30.799-51.534-41.463l-8.085-4.389l9.178,0.636
		c34.24,2.372,67.747,10.061,99.588,22.85c24.292,9.757,47.237,22.335,68.46,37.508c-14.25-16.401-27.18-33.911-38.588-52.269
		c-9.079-14.612-17.317-29.974-24.485-45.658l-1.576-3.451l3.737,0.648c27.506,4.772,53.607,14.296,77.582,28.311
		c21.813,12.751,41.702,29.337,58.411,48.604l-61.604-116.706l9.316,9.274c21.493,21.396,44.668,41.5,68.88,59.756
		c24.282,18.308,50.033,35.077,76.64,49.912l-46.985-79.618l6.634,3.871c40.13,23.418,82.451,43.439,125.787,59.507
		c18.909,7.012,38.316,13.379,57.767,18.957C2186.093,334.637,2060.154,270.643,1934.332,270.643z"/>
</g>
<g>
	<path style="fill:#FFFFFF;" d="M2176.867,1082.181c56.448-201.271-21.101-409.753-182.125-509.354
		c-188.61-116.663-397-25.34-414.114-17.5c21.154-0.565,77.13,0.788,132.585,37.729c73.256,48.799,92.198,124.124,96.057,141.264
		c-1.158-41.233-2.316-82.465-3.474-123.698c11.403,14.266,29.287,40.42,39.151,77.659c8.939,33.747,7.57,62.552,5.382,80.081
		c7.463-13.999,16.623-35.016,21.344-61.898c5.542-31.557,2.652-58.022-0.533-74.823c15.72,22.231,36.168,56.426,50.363,101.88
		c14.05,44.992,16.775,84.366,16.574,111.455c3.121-27.338,9.35-60.153,21.617-95.946c6.807-19.863,14.445-37.642,22.143-53.277
		c10.389,18.448,24.049,47.965,30.102,86.54c7.431,47.356-0.085,86.174-6.12,108.227c20.478-48.373,40.956-96.745,61.435-145.118
		c-2.958,29.941-4.531,64.336-3.064,102.307c1.602,41.455,6.491,78.473,12.481,110.12c11.874-32.227,23.748-64.455,35.622-96.682
		c7.149,45.328,18.743,96.613,37.529,151.534C2158.321,1037.525,2167.466,1060.701,2176.867,1082.181z"/>
	<path d="M2177.28,1088.114l-2.245-5.131c-9.959-22.754-19.078-46.189-27.105-69.655c-16.001-46.778-28.232-95.301-36.392-144.345
		l-35.487,96.317l-1.344-7.099c-6.878-36.334-11.088-73.483-12.515-110.415c-1.153-29.846-0.506-60.009,1.924-89.842
		l-56.455,133.356l-3.771-1.308c9.531-34.83,11.632-71.964,6.073-107.389c-4.542-28.942-13.963-56.684-28.014-82.515
		c-7.751,16.09-14.595,32.755-20.364,49.59c-10.562,30.82-17.803,62.959-21.521,95.525l-3.987-0.242
		c0.279-37.635-5.266-74.928-16.482-110.844c-10.422-33.373-25.541-64.927-44.991-93.924c3.236,22.173,2.918,44.539-0.96,66.617
		c-3.834,21.836-11.084,42.862-21.549,62.493l-5.089,9.548l1.34-10.736c3.332-26.7,1.538-53.388-5.331-79.322
		c-6.844-25.836-18.914-50.641-35.047-72.106l3.302,117.577l-3.95,0.496c-6.103-27.1-27.596-94.994-95.215-140.039
		c-51.367-34.217-104.384-38.112-131.423-37.394l-9.79,0.261l8.903-4.079c10.381-4.756,66.077-28.944,143.343-38.107
		c44.849-5.318,88.608-4.512,130.064,2.398c51.21,8.536,99.186,26.477,142.592,53.326c163.81,101.324,239.062,311.7,182.999,511.595
		L2177.28,1088.114z M2113.073,853.247l1.196,7.587c8.103,51.376,20.7,102.246,37.445,151.198
		c7.38,21.577,15.688,43.127,24.727,64.142c52.698-196.542-21.945-402.18-182.751-501.647
		c-78.48-48.543-169.352-67.099-270.081-55.153c-63.757,7.561-112.657,25.406-133.237,33.913
		c29.338,0.522,77.305,7.033,123.949,38.104c57.587,38.361,82.301,92.986,92.472,125.95l-3.163-112.634l3.729,4.666
		c18.353,22.962,32.02,50.071,39.522,78.396c6.07,22.921,8.252,46.422,6.51,70.004c7.696-16.443,13.172-33.771,16.313-51.655
		c4.314-24.566,4.137-49.498-0.527-74.104l-1.714-9.039l5.312,7.511c22.162,31.341,39.199,65.807,50.639,102.438
		c8.934,28.606,14.309,58.075,16.05,87.897c4.138-24.649,10.28-48.924,18.34-72.441c6.237-18.203,13.72-36.206,22.24-53.512
		l1.675-3.403l1.861,3.305c15.316,27.196,25.522,56.539,30.336,87.211c4.487,28.597,4.061,58.291-1.163,87.032l57.784-136.498
		l-1.292,13.081c-3.338,33.783-4.365,68.112-3.056,102.033c1.326,34.311,5.067,68.809,11.129,102.66L2113.073,853.247z"/>
</g>
<g>
	<path style="fill:#FFFFFF;" d="M1908.585,143.492c-135.793-27.513-269.828,33.901-327.824,145.191
		c-67.932,130.355,2.582,263.659,8.597,274.59c-1.404-13.956-3.235-51.023,18.483-89.479c28.69-50.8,77.559-66.989,88.701-70.375
		c-27.199,2.773-54.398,5.546-81.598,8.319c8.875-8.232,25.292-21.328,49.428-29.661c21.873-7.552,40.98-8.05,52.673-7.457
		c-9.617-4.251-23.955-9.283-41.955-11.095c-21.129-2.126-38.483,1.073-49.433,3.996c13.93-11.474,35.537-26.655,64.892-38.252
		c29.056-11.478,54.951-15.196,72.867-16.383c-18.223-0.732-40.217-3.251-64.475-9.617c-13.461-3.533-25.586-7.716-36.295-12.043
		c11.688-7.766,30.535-18.232,55.739-24.112c30.942-7.218,56.967-4.14,71.838-1.225c-32.972-11.181-65.945-22.362-98.917-33.543
		c19.936,0.497,42.748-0.138,67.776-2.957c27.324-3.077,51.556-8.112,72.184-13.613c-21.881-6.28-43.762-12.559-65.643-18.839
		c29.614-6.933,62.951-17.094,98.339-32.186C1879.97,157.926,1894.844,150.753,1908.585,143.492z"/>
	<path d="M1592.328,572.817l-4.722-8.58c-3.658-6.646-22.403-42.371-32.241-93.094c-5.712-29.449-7.313-58.479-4.758-86.282
		c3.156-34.354,12.705-67.024,28.38-97.103c59.139-113.482,194.841-173.61,329.995-146.227l5.488,1.112l-4.951,2.617
		c-14.564,7.696-29.628,14.874-44.774,21.333c-29.402,12.54-60.074,22.791-91.284,30.516l65.301,18.74l-6.981,1.862
		c-23.71,6.323-48.094,10.921-72.476,13.667c-18.329,2.064-36.919,3.11-55.425,3.122l86.985,29.497l-1.027,3.856
		c-23.396-4.585-47.947-4.167-71,1.211c-18.406,4.293-35.832,11.6-51.853,21.733c10.601,4.123,21.502,7.663,32.463,10.538
		c20.842,5.469,42.391,8.684,64.048,9.553l0.052,3.994c-24.821,1.644-49.135,7.11-72.265,16.248
		c-20.578,8.129-39.85,19.017-57.4,32.419c13.644-2.731,27.533-3.411,41.408-2.013c14.692,1.478,29.013,5.265,42.563,11.255
		l9.896,4.374l-10.806-0.547c-17.722-0.897-35.193,1.575-51.92,7.351c-15.991,5.521-31.126,14.164-44.108,25.151l75.423-7.69
		l0.784,3.903c-17.538,5.329-61.177,22.763-87.54,69.444c-20.025,35.458-20.021,70.54-18.234,88.295L1592.328,572.817z
		 M1843.749,138.967c-110.315,0-212.324,56.826-261.215,150.641c-28.194,54.102-36.014,114.923-23.242,180.774
		c7.548,38.916,20.374,68.852,27.425,83.369c-0.686-19.709,2.012-50.18,19.384-80.939c21.177-37.497,53.191-56.614,74.746-65.78
		l-71.642,7.304l4.379-4.062c14.353-13.313,31.689-23.716,50.136-30.085c13.764-4.752,28.017-7.332,42.5-7.703
		c-10.132-3.555-20.629-5.892-31.329-6.969c-16.367-1.647-32.757-0.322-48.718,3.939l-8.888,2.372l7.101-5.849
		c19.692-16.22,41.706-29.196,65.429-38.567c16.816-6.644,34.251-11.378,52.048-14.148c-14.677-1.632-29.216-4.327-43.43-8.057
		c-12.365-3.245-24.658-7.324-36.536-12.123l-3.518-1.421l3.16-2.099c17.299-11.493,36.271-19.7,56.391-24.393
		c16.932-3.95,34.652-5.286,52.16-3.993l-91.875-31.155l13.14,0.328c22.472,0.562,45.181-0.431,67.503-2.944
		c21.764-2.452,43.529-6.391,64.809-11.726l-65.98-18.935l7.479-1.751c33.529-7.849,66.505-18.642,98.012-32.079
		c13.296-5.67,26.527-11.898,39.41-18.546C1882.88,140.731,1863.186,138.967,1843.749,138.967z"/>
</g>
<g>
	<path style="fill:#FFFFFF;" d="M948.732,239.216c149.317-112.229,348.062-115.207,483.184-13.389
		c158.27,119.261,149.749,322.393,148.766,339.185c-6.384-17.799-25.65-63.975-74.383-98.185
		c-64.376-45.191-133.242-36.556-148.766-34.216c34.712-12.397,69.424-24.794,104.136-37.191
		c-15.575-4.873-43.15-11.292-77.358-7.438c-31,3.492-54.544,13.966-68.432,21.468c9.24-10.751,23.773-25.19,44.63-37.832
		c24.483-14.841,47.459-21.01,62.481-23.803c-23.607-5.887-58.709-11.834-101.161-8.926c-42.02,2.879-75.692,13.369-98.185,22.315
		c21.755-11.458,47.063-27.279,72.895-49.093c14.335-12.105,26.666-24.227,37.191-35.704c-18.729-2.674-47.736-4.484-81.821,2.975
		c-41.844,9.158-71.734,27.995-88.144,40.167c33.647-32.728,67.294-65.457,100.94-98.185
		c-23.975,12.165-52.107,24.621-84.204,35.704c-35.041,12.099-67.452,20.023-95.747,25.29c22.99-20.331,45.98-40.663,68.97-60.994
		c-40.063,8.735-86.529,15.699-138.352,17.852C991.93,240.189,969.667,240.084,948.732,239.216z"/>
	<path d="M1582.107,574.907l-3.308-9.219c-8.15-22.723-28.558-65.57-73.649-97.224c-59.362-41.671-122.799-37.571-147.318-33.875
		l-0.971-3.861l98.351-35.125c-22.887-6.329-47.191-8.278-70.677-5.634c-23.797,2.681-46.576,9.827-67.705,21.241l-9.519,5.142
		l7.052-8.206c12.971-15.092,28.147-27.958,45.109-38.239c16.88-10.232,35.114-17.68,54.316-22.199
		c-30.141-6.641-60.986-8.938-91.822-6.824c-33.522,2.297-66.354,9.758-97.582,22.178l-1.671-3.628
		c25.9-13.642,50.306-30.078,72.536-48.851c12.041-10.168,23.598-21.159,34.396-32.707c-25.902-3.261-51.893-2.102-77.308,3.46
		c-31.271,6.844-61.486,20.613-87.379,39.819l-2.586-3.04l91.813-89.308c-23.698,11.459-48.21,21.581-73.03,30.15
		c-31.228,10.783-63.539,19.317-96.034,25.366l-7.104,1.322l68.684-60.741c-43.244,9.002-87.359,14.486-131.245,16.309
		c-22.149,0.92-44.625,0.92-66.807,0l-5.596-0.232l4.477-3.365c148.373-111.521,348.053-117.025,485.59-13.388
		c36.446,27.463,66.951,61.622,90.668,101.525c19.198,32.301,34.058,68.499,44.167,107.59
		c17.412,67.333,15.319,121.591,14.724,131.784L1582.107,574.907z M1388.15,428.4c31.459,0,76.414,6.685,119.299,36.79
		c40.501,28.431,61.475,65.703,71.581,90.02c0.357-20.425-0.832-66.284-14.947-120.865
		c-22.682-87.708-67.554-157.327-133.37-206.922c-134.715-101.512-329.754-97.164-476.219,10.009
		c20.222,0.694,40.646,0.623,60.796-0.215c46.18-1.918,92.613-7.91,138.009-17.808l7.505-1.636l-69.253,61.244
		c29.882-5.905,59.553-13.915,88.298-23.84c28.66-9.896,56.905-21.872,83.952-35.597l11.722-5.948l-94.595,92.014
		c21.836-13.174,45.872-22.815,70.554-28.217c27.128-5.937,54.897-6.946,82.531-3.002l3.756,0.536l-2.564,2.796
		c-11.652,12.706-24.227,24.777-37.375,35.88c-16.512,13.943-34.213,26.611-52.827,37.818c24.868-7.887,50.573-12.774,76.69-14.563
		c34.233-2.349,68.479,0.675,101.782,8.98l8.925,2.226l-9.044,1.681c-21.979,4.085-42.774,12.008-61.81,23.546
		c-13.53,8.201-25.9,18.083-36.886,29.454c18.788-8.818,38.73-14.457,59.427-16.788c26.046-2.936,53.082-0.335,78.179,7.517
		l5.701,1.783l-93.97,33.561C1378.317,428.575,1383.057,428.4,1388.15,428.4z"/>
</g>
<g>
	<ellipse style="fill:#FFFFFF;" cx="1572.625" cy="591.355" rx="62.11" ry="65.829"/>
	<path d="M1572.625,659.184c-35.35,0-64.109-30.428-64.109-67.829c0-37.401,28.76-67.829,64.109-67.829
		c35.351,0,64.11,30.428,64.11,67.829C1636.735,628.756,1607.976,659.184,1572.625,659.184z M1572.625,527.526
		c-33.145,0-60.109,28.634-60.109,63.829c0,35.195,26.965,63.829,60.109,63.829s60.11-28.633,60.11-63.829
		C1632.735,556.16,1605.77,527.526,1572.625,527.526z"/>
</g>
<g>
	<path style="fill:#FFFFFF;" d="M429.363,1209.104c-130.986,50.159-251.81,41.214-305.341-24.546
		c-21.127-25.953-26.764-54.603-31.241-77.358c-23.14-117.607,49.928-219.57,85.54-269.266
		c18.226-25.433,47.976-62.153,92.978-99.673c-8.801-38.982-24.983-135.477,18.596-241
		c74.388-180.127,258.164-229.791,286.373-236.909c37.697-9.512,167.545-40.103,297.903,33.472
		c88.789,50.113,133.541,123.563,151.369,157.319c26.321,0.511,63.847,2.239,108.599,7.81c39.202,4.88,80.865,10.067,113.887,20.771
		c65.665,21.285,170.584,88.188,181.785,193.451c10.476,98.458-66.604,178.172-77.978,189.552
		c-18.83,18.841-49.811,42.743-53.556,45.621c-33.335,25.623-63.295,43.913-84.92,56.035c9.704,18.912,28.201,48.692,61.118,74.878
		c20.005,15.915,39.559,25.907,54.919,32.233c-11.861,12.283-24.07,26.281-36.076,42.15c-4.624,6.111-8.956,12.155-13.017,18.1
		c21.642,15.293,71.242,54.785,98.185,124.963c3.385,8.815,45.43,123.979-18.968,233.19c-54.838,93-165.129,144.822-280.051,131.657
		c4.938,18.108,11.918,38.955,21.943,61.366c10.179,22.756,21.253,42.108,31.613,58.019c-15.289,5.053-31.966,9.806-49.96,13.885
		c-35.92,8.141-68.85,11.725-97.317,12.893c-4.835,73.267-9.67,146.534-14.505,219.801c10.369,1.915,32.293,7.468,52.068,25.662
		c8.781,8.079,27.064,24.9,23.803,36.448c-3.425,12.124-31.559,21.822-135.005,13.761c-6.323-95.21-12.645-190.42-18.968-285.63
		l-53.556-1.116l-14.505,286.745c-49.537-7.521-81.869-6.668-103.02-4.091c-6.703,0.817-21.861,2.973-26.778-4.463
		c-5.509-8.332,4.908-24.065,8.182-29.009c16.243-24.533,43.582-35.484,63.597-40.539c-4.835-72.027-9.67-144.055-14.505-216.082
		c-46.861-6.074-93.722-12.149-140.583-18.224c18.373-37.706,36.926-82.462,52.44-133.889
		c23.984-79.503,33.544-151.21,36.82-208.644c-11.921-23.901-17.755-45.156-20.827-60.994
		c-9.852-50.782-6.113-122.152,26.034-138.352c8.432-4.25,16.856-5.185,16.856-5.185c18.824-2.092,25.685,8.983,44.51,7.045
		c4.455-0.459,13.829-1.55,21.571-8.554c11.765-10.642,11.16-27.154,10.971-30.497c-19.809,4.734-41.495,8.995-64.899,12.273
		c-34.529,4.837-66.296,6.626-94.466,6.695c-4.318,15.35-9.217,32.683-14.629,51.696c-26.284,92.338-30.511,104.274-43.142,117.029
		c-31.118,31.423-84.945,39.245-93.79,26.14c-3.918-5.805,0.74-16.088,6.514-25.272c-16.899,0.784-39.568,0.083-65.457-5.827
		c-20.436-4.665-37.437-11.333-50.58-17.604c11.579-12.974,28.966-35.88,39.795-68.804
		C427.401,1244.804,429.251,1224.002,429.363,1209.104z"/>
	<path d="M977.38,2068.334c-18.332,0-40.187-0.983-65.428-2.95l-1.726-0.135l-18.961-285.527l-49.782-1.037l-14.518,287.015
		l-2.186-0.332c-40.174-6.1-74.652-7.473-102.478-4.083l-0.718,0.088c-7.316,0.903-22.539,2.779-27.97-5.435
		c-6.239-9.435,4.616-25.828,8.183-31.216c16.01-24.181,42.852-35.601,63.158-40.955l-14.284-212.788l-141.715-18.37l1.219-2.502
		c20.944-42.983,38.548-87.93,52.323-133.592c20.294-67.271,32.643-137.133,36.708-207.649
		c-9.725-19.603-16.711-40.132-20.764-61.028c-5.245-27.034-6.273-57.989-2.75-82.807c2.977-20.967,10.571-47.999,29.847-57.713
		c8.111-4.087,16.122-5.209,17.536-5.376l-0.001-0.012c9.908-1.103,16.678,1.288,23.226,3.598c6.365,2.245,12.378,4.363,21.3,3.447
		c3.896-0.401,13.021-1.342,20.434-8.048c9.077-8.211,10.353-20.46,10.376-26.499c-20.646,4.855-41.722,8.803-62.685,11.739
		c-30.756,4.308-62.112,6.564-93.227,6.708c-4.7,16.705-9.482,33.602-14.221,50.25c-26.731,93.91-30.811,104.928-43.645,117.888
		c-22.809,23.034-59.346,34.647-81.496,32.577c-7.565-0.709-12.881-3.035-15.372-6.726c-3.438-5.093-1.955-13.045,4.539-24.248
		c-20.965,0.652-41.887-1.367-62.269-6.019c-17.549-4.007-34.707-9.979-50.996-17.75l-2.406-1.147l1.775-1.989
		c17.853-20.002,31.104-42.913,39.387-68.097c5.897-17.929,9.098-36.618,9.526-55.594
		c-131.887,49.738-251.331,39.543-304.848-26.199c-21.44-26.339-27.102-55.112-31.651-78.231
		c-23.308-118.459,50.437-221.366,85.876-270.82c26.038-36.334,57.117-69.725,92.386-99.26
		c-6.947-31.188-10.353-63.077-10.126-94.809c0.366-51.156,10.154-100.345,29.091-146.202
		c17.178-41.595,41.587-79.483,72.549-112.61c25.315-27.085,55.179-51.197,88.763-71.668
		c53.364-32.527,102.113-47.674,126.421-53.807c136.917-34.549,238.375-0.76,299.375,33.669
		c80.228,45.281,126.666,110.204,151.603,157.086c35.74,0.735,71.944,3.359,107.629,7.801
		c39.852,4.961,81.055,10.091,114.256,20.853c38.7,12.545,80.587,37.089,112.045,65.656c41.521,37.704,66.11,82.48,71.112,129.486
		c10.304,96.84-63.627,176.243-78.552,191.177c-18.384,18.394-48.001,41.374-53.752,45.794
		c-26.455,20.335-54.53,38.915-83.475,55.245c14.89,28.451,34.968,52.843,59.698,72.517c16.481,13.112,34.796,23.861,54.436,31.949
		l2.722,1.121l-2.045,2.118c-12.772,13.228-24.857,27.348-35.919,41.968c-4.042,5.342-8.022,10.853-11.851,16.404
		c31.487,22.58,73.318,62.295,97.291,124.736c1.335,3.478,13.13,35.253,16.063,79.531c3.784,57.11-8.051,109.392-35.175,155.391
		c-49.605,84.127-143.702,134.674-246.189,134.68c-10.879,0.001-21.845-0.569-32.871-1.728
		c5.564,19.852,12.641,39.429,21.055,58.239c8.937,19.978,19.522,39.405,31.463,57.744l1.417,2.175l-2.465,0.815
		c-16.431,5.43-33.302,10.118-50.146,13.936c-31.355,7.106-63.603,11.433-95.882,12.864l-14.27,216.251
		c13.982,2.814,33.67,9.59,51.31,25.818c9.776,8.995,27.969,25.733,24.373,38.464c-2.246,7.951-12.594,13.147-31.634,15.886
		C1006.85,2067.575,993.472,2068.334,977.38,2068.334z M913.988,2061.529c103.247,7.91,128.356-2.382,131.199-12.444
		c2.928-10.363-15.402-27.229-23.229-34.43c-17.69-16.275-37.541-22.67-51.08-25.169l-1.75-0.323l14.74-223.37l1.795-0.073
		c32.636-1.339,65.257-5.661,96.958-12.845c15.879-3.599,31.783-7.979,47.314-13.027c-11.478-17.868-21.683-36.732-30.35-56.109
		c-8.898-19.892-16.315-40.637-22.047-61.656l-0.777-2.85l2.934,0.336c114.397,13.106,223.561-38.191,278.101-130.686
		c26.707-45.293,38.358-96.802,34.629-153.095c-2.894-43.691-14.492-74.942-15.806-78.362
		c-24.024-62.574-66.267-101.995-97.473-124.047l-1.607-1.136l1.11-1.626c4.202-6.15,8.602-12.267,13.074-18.178
		c10.572-13.974,22.071-27.494,34.209-40.226c-18.967-8.092-36.685-18.642-52.703-31.385
		c-25.673-20.424-46.416-45.836-61.652-75.531l-0.88-1.715l1.682-0.942c29.373-16.464,57.863-35.264,84.68-55.876
		c5.716-4.393,35.152-27.231,53.359-45.45c14.7-14.708,87.516-92.894,77.403-187.926
		c-11.617-109.191-123.092-173.181-180.413-191.76c-32.839-10.645-73.85-15.751-113.511-20.688
		c-35.944-4.475-72.412-7.098-108.395-7.796l-1.179-0.023l-0.551-1.043c-24.55-46.484-70.604-111.371-150.583-156.512
		c-60.364-34.071-160.792-67.499-296.431-33.274c-49.145,12.4-214.938,66.046-285.014,235.733
		c-38.812,93.981-31.479,182.276-18.493,239.796l0.269,1.193l-0.939,0.783c-35.395,29.51-66.562,62.92-92.633,99.302
		c-35.112,48.998-108.176,150.956-85.204,267.714c4.464,22.687,10.019,50.917,30.829,76.481
		c25.834,31.734,68.101,50.757,122.231,55.012c54.124,4.255,116.657-6.491,180.844-31.071l2.737-1.048l-0.022,2.931
		c-0.152,20.397-3.44,40.499-9.77,59.745c-8.18,24.869-21.105,47.567-38.434,67.502c15.305,7.097,31.361,12.587,47.765,16.331
		c21.237,4.848,43.082,6.788,64.919,5.778l3.823-0.177l-2.038,3.239c-8.822,14.031-8.431,20.3-6.549,23.088
		c1.773,2.628,6.188,4.396,12.43,4.981c21.213,1.986,56.304-9.216,78.281-31.409c12.178-12.298,16.163-23.154,42.639-116.169
		c4.875-17.126,9.796-34.517,14.627-51.69l0.409-1.455l1.511-0.004c31.429-0.076,63.12-2.322,94.194-6.675
		c21.65-3.033,43.422-7.15,64.711-12.238l2.327-0.556l0.134,2.389c0.348,6.172-0.088,21.655-11.626,32.092
		c-8.385,7.585-18.422,8.619-22.708,9.061c-9.815,1.013-16.54-1.36-23.041-3.653c-6.404-2.26-12.457-4.398-21.453-3.394
		l-0.016,0.001c-0.418,0.051-8.347,1.045-16.161,4.982c-17.733,8.937-24.844,34.681-27.686,54.703
		c-3.464,24.4-2.449,54.861,2.716,81.482c4.018,20.711,10.966,41.06,20.653,60.481l0.237,0.476l-0.03,0.531
		c-4.05,71.011-16.466,141.364-36.901,209.106c-13.57,44.981-30.838,89.271-51.343,131.687l139.457,18.077l14.727,219.386
		l-1.618,0.408c-19.792,4.997-46.687,15.941-62.419,39.703c-8.6,12.987-11.353,22.005-8.181,26.801
		c4.063,6.147,17.625,4.475,24.143,3.671l0.725-0.089c27.679-3.372,61.774-2.104,101.376,3.771l14.491-286.479l57.329,1.194
		L913.988,2061.529z"/>
</g>
<g>
	<path d="M272.621,739.763l-2.643-3.003c0.716-0.63,73.08-63.786,201.793-130.444c75.575-39.139,155.527-71.828,237.634-97.158
		c102.635-31.663,208.947-51.852,315.983-60.007l0.304,3.988c-241.671,18.413-433.547,95.357-551.955,156.664
		C345.417,676.24,273.334,739.135,272.621,739.763z"/>
</g>
<g>
	<path d="M262.603,660.807l-2.853-2.804c0.664-0.675,67.799-68.308,190.815-134.361c72.229-38.783,149.332-69.463,229.168-91.189
		c99.79-27.157,204.141-40.321,310.195-39.124l-0.045,4c-239.232-2.69-424.218,69.075-537.28,129.759
		C330.07,592.857,263.264,660.135,262.603,660.807z"/>
</g>
<g>
	<path d="M537.869,1157.833c-27.975,0.002-60.916-5.821-91.383-25.904c-39.16-25.814-59.079-65.784-70.981-89.666
		c-7.499-15.046-13.68-30.891-18.381-47.109l-13.035-2.234l-13.631-49.806l1.309-0.778c54.264-32.285,112.477-57.712,173.024-75.574
		c59.462-17.542,121.026-27.738,182.982-30.309c21.395-12.118,44.262-21.526,67.978-27.969c22.925-6.228,46.592-9.667,70.351-10.223
		c13.782-8.515,28.157-16.523,42.736-23.807c75.63-37.785,142.94-48.887,183.156-55.52c39.445-6.506,80.003-10.102,120.548-10.688
		l1.117-0.016l0.6,0.943c3.556,5.594,6.538,11.557,8.861,17.724c3.993,10.595,6.08,21.795,6.203,33.288l0.003,0.289l-0.079,0.278
		c-0.601,2.123-1.598,4.069-2.963,5.784c-1.305,1.639-2.932,3.024-4.763,4.066c6.993,35.731,10.572,89.355-10.93,144.674
		c-5.432,13.974-14.522,37.361-36.094,60.878c-16.675,18.178-46.262,42.071-92.518,52.666
		c-59.17,13.553-99.187,0.076-122.337-13.617c-36.067-21.334-54.041-56.181-86.67-119.442
		c-7.211-13.981-13.953-28.349-20.049-42.726c-16.466-1.288-32.822,0.449-48.638,5.168c-16.527,4.931-31.73,12.886-45.21,23.654
		c4.33,19.529,6.757,39.517,7.215,59.428c0.847,36.809,2.006,87.221-30.088,135.415c-28.711,43.114-69.569,62.566-91.369,70.324
		C599.839,1148.796,572.707,1157.831,537.869,1157.833z M347.275,989.407l13.003,2.229l0.345,1.21
		c4.675,16.406,10.887,32.432,18.462,47.633c12.48,25.043,31.341,62.889,69.602,88.11c66.791,44.026,145.993,17.797,154.805,14.662
		c21.332-7.591,61.31-26.621,89.381-68.772c31.396-47.146,30.253-96.829,29.418-133.106c-0.461-20.061-2.948-40.199-7.39-59.856
		l-0.273-1.209l0.962-0.783c14.126-11.496,30.125-19.96,47.552-25.16c16.685-4.977,33.954-6.733,51.325-5.221l1.201,0.105
		l0.468,1.11c6.18,14.655,13.041,29.311,20.39,43.561c33.342,64.643,50.077,97.088,85.153,117.835
		c22.524,13.323,61.524,26.422,119.407,13.161c45.253-10.365,74.172-33.71,90.464-51.47c21.063-22.962,29.983-45.911,35.313-59.623
		c21.453-55.191,17.519-108.731,10.441-143.927l-0.315-1.569l1.461-0.652c1.282-0.572,3.138-1.666,4.705-3.634
		c0.975-1.226,1.703-2.608,2.165-4.114c-0.151-10.92-2.15-21.558-5.943-31.623c-2.097-5.565-4.753-10.957-7.902-16.044
		c-39.973,0.632-79.945,4.204-118.831,10.618c-39.993,6.597-106.929,17.637-182.019,55.152
		c-14.635,7.312-29.062,15.358-42.882,23.917l-0.464,0.288l-0.546,0.012c-23.617,0.509-47.147,3.906-69.934,10.097
		c-23.547,6.397-46.248,15.758-67.472,27.826l-0.422,0.24l-0.485,0.02c-61.793,2.524-123.193,12.674-182.498,30.169
		c-59.742,17.624-117.197,42.651-170.802,74.398L347.275,989.407z"/>
</g>
<g>
	<path d="M545.023,1135.982c-30.063,0-77.037-6.975-115.918-43.692c-23.513-22.204-39.727-51.381-46.889-84.377
		c-4.157-19.15-7.747-35.689-2.23-53.035c2.542-7.996,8.139-17.905,30.373-30.773c27.992-16.202,76.015-32.958,142.733-49.802
		c91.475-23.095,115.073-20.787,130.839-7.396c19.079,16.206,20.87,41.886,22.767,69.073c3.136,44.952-1.276,127.135-66.057,172.486
		l-1.147-1.638l1.147,1.638c-34.778,24.348-71.033,26.424-84.681,27.205C552.647,1135.861,548.979,1135.982,545.023,1135.982z
		 M651.456,860.88c-17.939,0-46.933,4.563-97.384,17.3c-158.201,39.941-167.288,68.519-170.274,77.909
		c-5.192,16.329-1.708,32.384,2.328,50.974c6.991,32.205,22.802,60.67,45.726,82.318c42.906,40.518,96.028,43.892,123.88,42.296
		c13.338-0.764,48.768-2.792,82.616-26.488c63.167-44.223,67.438-124.822,64.36-168.931c-1.836-26.324-3.57-51.188-21.366-66.303
		C675.39,864.9,668.291,860.88,651.456,860.88z"/>
</g>
<g>
	<rect x="395.898" y="993.361" transform="matrix(0.3845 -0.9231 0.9231 0.3845 -590.5407 1104.9996)" width="274.997" height="4"/>
</g>
<g>
	<rect x="414.815" y="993.889" transform="matrix(0.3892 -0.9212 0.9212 0.3892 -575.5572 1123.7939)" width="289.579" height="4"/>
</g>
<g>
	<rect x="436.964" y="994.014" transform="matrix(0.4023 -0.9155 0.9155 0.4023 -561.2052 1132.3842)" width="299.434" height="4"/>
</g>
<g>
	<path d="M1009.073,1010.638c-29.298,0-75.08-6.978-112.965-43.711c-16.184-15.691-24.908-34.873-42.288-73.089l-1.469-3.23
		c-2.767-6.082-5.914-13.685-8.27-23.963c-0.193-0.847-4.687-20.855-2.514-37.891c2.382-18.683,25.079-42.773,175.359-79.8
		c89.987-22.171,111.634-21.207,127.494-7.376c18.584,16.206,20.328,41.879,22.175,69.06c3.053,44.945-1.245,127.117-64.343,172.468
		c-33.891,24.359-69.224,26.438-82.524,27.22C1016.499,1010.518,1012.928,1010.638,1009.073,1010.638z M1113.24,735.726
		c-17.845,0-46.146,4.989-95.356,17.113c-65.912,16.239-111.47,30.943-139.277,44.952c-21.187,10.673-31.695,20.673-33.072,31.47
		c-2.083,16.34,2.259,35.678,2.445,36.493c2.277,9.93,5.328,17.299,8.012,23.199l1.469,3.23
		c17.172,37.757,25.791,56.708,41.431,71.873c41.772,40.499,93.487,43.87,120.601,42.279c12.984-0.764,47.476-2.792,80.424-26.475
		l1.167,1.624l-1.167-1.624c61.526-44.222,65.684-124.833,62.687-168.949c-1.789-26.33-3.478-51.2-20.813-66.316
		C1135.463,739.076,1127.862,735.726,1113.24,735.726z"/>
</g>
<g>
	<rect x="860.767" y="868.018" transform="matrix(0.376 -0.9266 0.9266 0.376 -183.5684 1467.4496)" width="273.953" height="4"/>
</g>
<g>
	<rect x="879.045" y="868.545" transform="matrix(0.3806 -0.9247 0.9247 0.3806 -171.1998 1485.5026)" width="288.452" height="4"/>
</g>
<g>
	<rect x="900.55" y="868.67" transform="matrix(0.3935 -0.9193 0.9193 0.3935 -163.824 1493.0172)" width="298.188" height="4"/>
</g>
<g>
	<path d="M770.16,985.212c2.203-4.461,5.409-8.393,9.126-11.795c3.737-3.378,8.18-6.151,13.135-7.738
		c4.929-1.638,10.411-1.799,15.4-0.463c4.994,1.358,9.432,4.095,12.92,7.599c-4.465-2.143-8.957-3.887-13.556-4.519
		c-4.585-0.635-9.191-0.238-13.551,1.194c-4.367,1.395-8.514,3.638-12.39,6.375C777.35,978.594,773.693,981.756,770.16,985.212z"/>
</g>
<g>
	<path d="M759.563,1064.057c16.49,22.818,46.4,30.59,70.103,19.34c20.351-9.659,32.932-31.825,31.241-55.539
		C827.125,1039.924,793.344,1051.991,759.563,1064.057z"/>
</g>
<g>
	<path style="fill:#FFFFFF;" d="M783.549,1069.512c2.897-2.002,7.231-4.614,12.893-6.694c6.042-2.22,11.198-4.115,16.86-2.975
		c10.062,2.026,15.27,12.337,16.364,14.629c-3.332,1.979-9.774,5.161-18.348,5.455
		C796.304,1080.44,786.004,1071.714,783.549,1069.512z"/>
</g>
<g>
	<polygon style="fill:#FFFFFF;" points="826.195,1052.156 836.856,1064.801 849.749,1043.974 	"/>
</g>
<g>
	<path d="M431.278,1209.68l-3.83-1.152c12.311-40.914-6.813-97.917-7.007-98.488l3.786-1.291
		C425.038,1111.128,443.962,1167.524,431.278,1209.68z"/>
</g>
<g>
	<path d="M1212.661,966.26c-0.917-0.34-22.584-9.308-33.707-94.829l3.967-0.516c10.641,81.821,30.928,91.519,31.13,91.594
		L1212.661,966.26z"/>
</g>
<g>
	<path d="M285.934,1208.006c-11.332,0-23.812-0.534-36.733-2.03c-47.523-5.5-82.898-21.785-105.142-48.401
		c-62.303-74.55-2.4-207.897,26.247-261.768c38.228-71.89,90.17-114.027,150.315-162.818
		c68.642-55.684,144.615-102.697,225.809-139.734c18.244-8.321,115.694-51.412,242.93-82.609
		c73.812-18.098,144.158-28.849,209.083-31.954c80.181-3.837,152.562,4.023,215.133,23.354
		c25.985,8.029,56.261,18.066,86.731,35.638c37.85,21.827,65.63,49.968,82.568,83.644c2.452,4.874,14.835,30.658,17.886,59.72
		c4.583,43.655-12.656,91.581-49.854,138.598c-36.024,45.535-88.862,88.051-152.801,122.953l-1.917-3.511
		c63.471-34.647,115.887-76.808,151.582-121.924c36.536-46.18,53.484-93.104,49.013-135.698
		c-3.041-28.971-16.012-55.42-17.48-58.341c-39.122-77.776-125.431-104.441-166.908-117.256
		c-269.296-83.199-624.67,72.949-664.305,91.027c-80.886,36.896-156.57,83.731-224.949,139.202
		c-59.807,48.516-111.457,90.417-149.304,161.589c-28.266,53.156-87.453,184.639-26.708,257.325
		c33.421,39.992,97.632,55.954,185.688,46.157c34.433-3.831,68.024-13.899,99.84-29.927l1.8,3.572
		c-32.243,16.242-66.291,26.446-101.198,30.329C324.913,1206.069,307.504,1208.006,285.934,1208.006z"/>
</g>
<g>
	<path d="M425.337,1124.152c-6.155-2.394-12.246-5.166-18.103-8.239c-49.003-25.714-72.846-67.533-87.092-92.519
		c-9.327-16.357-31.935-61.156-40.412-123.702c-6.253-46.136-3.7-92.859,7.587-138.87l3.885,0.953
		c-11.167,45.521-13.693,91.743-7.508,137.38c8.382,61.851,30.711,106.103,39.922,122.257
		c14.029,24.606,37.509,65.788,85.476,90.958c5.725,3.004,11.678,5.713,17.694,8.053L425.337,1124.152z"/>
</g>
<g>
	<path d="M1187.758,902.336l-3.712-1.491c14.315-35.63,43.289-130.122,3.262-237.757
		c-41.463-111.497-129.141-164.01-164.912-181.413l1.75-3.597c25.735,12.52,51.502,29.845,74.517,50.103
		c42.167,37.118,73.252,82.038,92.395,133.512C1231.57,770.638,1202.246,866.275,1187.758,902.336z"/>
</g>
<g>
	<path d="M343.36,1109.571c-8.913,0-18.583-1.576-28.344-5.901c-13.206-5.852-26.132-16.556-34.577-28.633
		c-9.737-13.927-12.546-28.17-7.909-40.105c8.271-21.288,36.304-27.076,41.839-28.02l0.673,3.943
		c-5.163,0.88-31.294,6.249-38.783,25.525c-9.394,24.178,17.186,53.357,40.377,63.633c28.857,12.786,57.041,0.098,64.992-4.095
		l1.866,3.538C377.815,1102.452,362.299,1109.571,343.36,1109.571z"/>
</g>
<g>
	<path d="M347.447,1084.273c-32.453-12.414-47.692-23.079-46.589-32.604c1.359-11.735,26.845-15.523,29.747-15.917l0.538,3.964
		c-9.771,1.329-25.555,5.875-26.311,12.414c-0.478,4.134,4.609,13.322,44.045,28.406L347.447,1084.273z"/>
</g>
<g>
	<path d="M1199.626,861.789l-0.59-3.956c0.461-0.069,46.302-7.314,59.673-44.38c7.356-20.393,6.451-55.275-14.43-64.999
		c-13.058-6.08-28.624,0.773-34.711,4.001l-1.875-3.534c8.221-4.357,24.118-10.685,38.275-4.093
		c23.015,10.718,24.366,48.184,16.502,69.983C1248.298,854.099,1201.606,861.494,1199.626,861.789z"/>
</g>
<g>
	<path d="M1218.737,827.431l-3.57-1.805c21.254-42.03,18.368-51.191,16.141-53.18c-1.528-1.362-6.101-2.325-19.588,6.54
		c-1.226,0.806-1.967,1.294-3.048,0.708l-1.051-1.767l4,0.008l-2-0.004l1.008-1.725c-0.778-0.454-1.556-0.247-1.893-0.054
		c0.134-0.077,0.403-0.257,0.787-0.509c4.468-2.938,18.066-11.875,24.448-6.181C1238.136,773.18,1241.087,783.233,1218.737,827.431z
		"/>
</g>
<g>
	<path d="M357.823,931.737l-3.484-1.965c36.688-65.064,50.04-132.493,54.78-177.602c5.141-48.924,1.545-82.882,1.507-83.22
		l3.977-0.436c0.037,0.341,3.678,34.637-1.494,83.959C408.336,797.989,394.871,866.036,357.823,931.737z"/>
</g>
<g>
	<path d="M444.329,891.243l-3.452-2.022c48.182-82.283,54-147.478,50.395-187.681c-3.902-43.524-19.379-67.944-19.535-68.186
		l3.359-2.172c0.655,1.013,16.097,25.307,20.135,69.724c2.365,26.011,0.268,53.527-6.231,81.784
		C480.889,817.951,465.859,854.473,444.329,891.243z"/>
</g>
<g>
	<path d="M755.316,812.168c-62.916-34.353-116.605-91.28-150.566-132.987c-36.769-45.155-58.994-82.718-59.214-83.092l3.447-2.029
		c0.219,0.372,22.321,37.721,58.913,82.649c33.726,41.411,87.012,97.918,149.338,131.948L755.316,812.168z"/>
</g>
<g>
	<path d="M732.133,820.024c-87.681-9.168-148.168-38.138-183.472-60.828c-38.343-24.643-55.647-46.8-56.365-47.732l3.167-2.443
		c0.173,0.224,17.712,22.648,55.543,46.926c34.916,22.408,94.754,51.023,181.542,60.097L732.133,820.024z"/>
</g>
<g>
	<rect x="456.59" y="805.477" transform="matrix(0.2234 -0.9747 0.9747 0.2234 -383.7131 1133.3623)" width="125.573" height="4"/>
</g>
<g>
	<path d="M853.929,753.447c-31.577,0-63.079-2.918-94.302-8.757c-48.562-9.08-95.594-25.15-139.791-47.764l1.822-3.561
		c43.853,22.438,90.52,38.383,138.704,47.393c61.294,11.461,123.714,11.583,185.527,0.364l0.714,3.935
		C915.795,750.65,884.826,753.447,853.929,753.447z"/>
</g>
<g>
	<path d="M1077.692,719.024c-33.504-7.948-67.917-14.575-102.283-19.696c-50.967-7.594-86.454-9.577-114.968-11.169
		c-32.814-1.833-56.522-3.157-85.581-11.512c-56.728-16.311-109.1-53.444-155.661-110.369l3.096-2.532
		c46.036,56.283,97.738,92.975,153.67,109.057c28.625,8.231,52.146,9.545,84.699,11.363c28.596,1.597,64.185,3.585,115.335,11.207
		c34.477,5.137,69.002,11.786,102.617,19.76L1077.692,719.024z"/>
</g>
<g>
	<path d="M1139.815,712.241c-13.79-25.016-31.632-46.265-53.033-63.157c-12.674-10.004-31.619-22.297-76.027-37.614
		c-41.097-14.175-69.045-18.876-93.705-23.023c-26.512-4.459-49.409-8.311-79.107-23.196
		c-23.717-11.888-45.778-27.766-65.571-47.193l2.802-2.855c19.496,19.135,41.217,34.771,64.562,46.471
		c29.162,14.617,50.705,18.24,77.979,22.828c24.813,4.173,52.935,8.904,94.346,23.187c44.974,15.512,64.263,28.043,77.201,38.256
		c21.821,17.225,40.008,38.88,54.057,64.366L1139.815,712.241z"/>
</g>
<g>
	<path d="M432.221,1355.629l-3.484-1.964c0.179-0.317,18.035-32.202,32.145-73.82c12.967-38.247,25.34-92.777,10.648-135.357
		l3.781-1.305c15.066,43.667,2.517,99.154-10.664,138.012C450.415,1323.152,432.401,1355.309,432.221,1355.629z"/>
</g>
<g>
	<path d="M640.935,1192.879c-5.137-0.118-126.175-3.354-158.979-44.097l3.115-2.509c31.643,39.301,154.716,42.578,155.956,42.606
		L640.935,1192.879z"/>
</g>
<g>
	<path d="M497.386,1361.85l-2.9-2.754c20.24-21.309,35.613-45.979,45.691-73.325c15.504-42.073,14.458-80.438,10.849-105.213
		l3.958-0.576c3.675,25.233,4.741,64.311-11.054,107.172C533.663,1315.014,518.003,1340.146,497.386,1361.85z"/>
</g>
<g>
	<path d="M800.841,1173.851l-0.989-3.876c70.981-18.112,138.096-43.334,199.482-74.967c57.117-29.432,89.5-54.357,115.499-88.899
		c10.671-14.178,19.953-29.583,27.587-45.789l3.618,1.705c-7.75,16.452-17.174,32.093-28.009,46.489
		c-26.396,35.069-59.161,60.316-116.863,90.05C939.513,1130.333,872.114,1155.664,800.841,1173.851z"/>
</g>
<g>
	<path d="M1292.484,1115.464c-0.333-0.153-33.681-15.585-68.261-42.589c-32.037-25.018-71.746-65.385-78.982-115.621l3.959-0.57
		c7.043,48.895,45.988,88.431,77.417,112.987c34.219,26.734,67.205,42.007,67.534,42.158L1292.484,1115.464z"/>
</g>
<g>
	<path d="M876.953,1467.251l-3.719-1.097c-31.994-9.436-61.216-26.467-84.508-49.251c-15.092-14.764-50.435-49.337-55.378-98.992
		c-0.942-9.467-0.67-18.229-0.356-28.373c0.534-17.198,1.138-36.689-4.006-66.854c-1.061-6.224-2.298-12.475-3.674-18.576
		l3.902-0.881c1.392,6.171,2.642,12.491,3.715,18.785c5.211,30.559,4.6,50.264,4.06,67.648c-0.31,10.006-0.578,18.646,0.338,27.854
		c4.799,48.209,39.413,82.07,54.194,96.529c21.925,21.447,49.22,37.695,79.139,47.144c-19.81-60.117-20.073-125.705-0.669-185.142
		c19.663-60.234,58.666-111.812,109.824-145.23c43.527-28.434,94.866-43.526,148.468-43.644c0.209,0,0.423-0.001,0.632-0.001
		c53.321,0,106.009,14.814,152.418,42.863l-2.068,3.424c-93.46-56.484-210.142-56.206-297.262,0.707
		c-105.611,68.991-149.329,204.454-106.314,329.421L876.953,1467.251z"/>
</g>
<g>
	<path d="M1126.099,1090.918c-29.693-16.55-30.085-60.042-30.087-61.885l4-0.006c0.001,0.428,0.406,42.998,28.035,58.397
		L1126.099,1090.918z"/>
</g>
<g>
	<path d="M1068.483,1097.493c-15.034,0-22.981-25.619-23.33-26.768l3.828-1.161c0.08,0.262,8.131,26.196,21.275,23.763l0.727,3.934
		C1070.129,1097.418,1069.295,1097.493,1068.483,1097.493z"/>
</g>
<g>
	<path d="M902.216,1204.439c-4.836,0-10.643-0.948-16.076-4.294c-9.628-5.931-12.612-15.757-15.245-24.427
		c-2.396-7.892-3.256-16.148-2.556-24.542l3.986,0.332c-0.658,7.888,0.148,15.642,2.396,23.046
		c2.427,7.992,5.177,17.048,13.516,22.185c7.634,4.702,16.276,3.917,20.747,3.03l0.778,3.924
		C907.832,1204.076,905.21,1204.439,902.216,1204.439z"/>
</g>
<g>
	<path d="M835.475,1268.727c-25.756,0-48.817-8.483-64.753-24.746c-8.856-9.035-15.325-20.314-19.228-33.526l3.836-1.133
		c3.716,12.577,9.856,23.297,18.248,31.859c23.45,23.93,63.287,30.151,103.964,16.236l1.295,3.785
		C864.062,1266.255,849.375,1268.727,835.475,1268.727z"/>
</g>
<g>
	
		<rect x="795.808" y="1255.644" transform="matrix(0.0922 -0.9957 0.9957 0.0922 -588.9035 1991.5573)" width="4" height="126.232"/>
</g>
<g>
	
		<rect x="797.568" y="1289.863" transform="matrix(0.0663 -0.9978 0.9978 0.0663 -598.7974 2056.7927)" width="3.999" height="116.955"/>
</g>
<g>
	<path d="M1149.004,1249.747c-40.169,0-72.85-32.681-72.85-72.85c0-40.169,32.68-72.85,72.85-72.85s72.85,32.68,72.85,72.85
		C1221.854,1217.066,1189.173,1249.747,1149.004,1249.747z M1149.004,1108.048c-37.964,0-68.85,30.886-68.85,68.85
		s30.886,68.85,68.85,68.85s68.85-30.886,68.85-68.85S1186.968,1108.048,1149.004,1108.048z"/>
</g>
<g>
	<path d="M948.479,1575.885c-2.513,0-4.736-0.215-6.077-0.345c-14.725-1.427-23.724-8.721-34.143-17.167
		c-6.056-4.908-12.92-10.473-21.813-15.536c-8.324-4.74-13.068-6.006-20.25-7.922c-4.786-1.277-10.742-2.866-19.467-5.938
		c-13.849-4.877-49.784-19.201-84.266-46.814c-24.838-19.892-46.017-44.347-62.948-72.688l3.434-2.051
		c16.686,27.929,37.55,52.024,62.015,71.615c34.003,27.23,69.438,41.355,83.094,46.164c8.579,3.021,14.451,4.588,19.17,5.847
		c7.483,1.996,12.426,3.315,21.199,8.311c9.178,5.227,16.177,10.9,22.352,15.906c10.326,8.37,18.482,14.981,32.005,16.292
		c11.625,1.121,15.252-1.055,16.25-3.078c1.45-2.944-1.363-8.024-4.212-11.48l-3.712-4.501l5.693,1.277
		c17.662,3.958,30.297-1.365,31.582-6.93c0.968-4.19-4.491-11-12.979-16.191l-4.545-2.779l5.251-0.898
		c11.554-1.977,20.05-7.971,20.661-14.577c0.415-4.489-2.996-8.358-3.684-9.088c-4.012-4.261-9.213-4.521-17.831-4.954
		c-6.004-0.302-13.476-0.677-22.781-2.66c-4.102-0.875-8.177-1.979-12.112-3.281l-3.935-1.301l3.467-2.271
		c13.036-8.538,20.179-19.692,17.775-27.757c-1.432-4.803-5.984-7.464-6.498-7.751c-6.659-3.725-13.988-0.723-24.132,3.435
		c-8.63,3.535-19.372,7.936-33.188,9.452c-6.727,0.738-13.548,0.738-20.272,0l0.437-3.977c6.435,0.708,12.961,0.706,19.398,0
		c13.257-1.455,23.71-5.736,32.108-9.177c10.761-4.408,19.26-7.891,27.601-3.225c1.076,0.601,6.535,3.915,8.379,10.1
		c2.722,9.132-3.512,20.576-16.017,29.873c2.575,0.747,5.193,1.405,7.823,1.967c8.991,1.917,16.286,2.283,22.147,2.577
		c8.956,0.45,15.426,0.774,20.542,6.206c1.256,1.333,5.314,6.154,4.755,12.199c-0.696,7.531-8.271,14.095-19.342,17.129
		c6.535,4.88,12.298,11.662,10.869,17.85c-1.754,7.597-14.512,13.241-31.498,10.824c1.96,3.352,3.698,7.901,1.838,11.677
		C960.313,1574.935,953.759,1575.885,948.479,1575.885z"/>
</g>
<g>
	
		<rect x="936.326" y="1523.643" transform="matrix(0.5197 -0.8544 0.8544 0.5197 -869.0821 1543.6494)" width="4.001" height="42.225"/>
</g>
<g>
	<rect x="951.389" y="1498.717" transform="matrix(0.2644 -0.9644 0.9644 0.2644 -767.1409 2039.4636)" width="4" height="47.819"/>
</g>
<g>
	
		<rect x="769.847" y="1438.688" transform="matrix(0.0909 -0.9959 0.9959 0.0909 -814.0347 2152.2266)" width="4.001" height="166.611"/>
</g>
<g>
	
		<rect x="795.244" y="1437.124" transform="matrix(0.0597 -0.9982 0.9982 0.0597 -799.1924 2254.7476)" width="3.999" height="228.937"/>
</g>
<g>
	<path d="M872.592,1738.215c-80.947,0-161.701-10.337-240.488-30.813l1.006-3.871c88.239,22.932,178.956,33.093,269.635,30.203
		c70.373-2.242,140.712-12.404,209.066-30.203l1.008,3.871c-68.641,17.874-139.277,28.078-209.946,30.33
		C892.78,1738.054,882.683,1738.215,872.592,1738.215z"/>
</g>
<g>
	<path d="M880.478,1710.218c-0.99,0-1.977-0.002-2.967-0.006c-78.845-0.298-156.999-12.45-232.29-36.119l1.199-3.816
		c74.908,23.549,152.664,35.639,231.107,35.936c74.703,0.275,148.983-10.156,220.783-31.028l1.116,3.842
		C1028.209,1699.727,954.56,1710.218,880.478,1710.218z"/>
</g>
<g>
	<path style="fill:none;stroke:#000000;stroke-width:4;stroke-miterlimit:10;" d="M890.164,1700.774"/>
</g>
<g>
	<path d="M859.45,1378.962l-3.442-2.038c0.233-0.395,23.791-39.888,63.249-81.12c23.194-24.236,47.276-44.342,71.577-59.757
		c30.447-19.314,61.332-31.284,91.794-35.575l0.558,3.961c-67.751,9.544-124.935,56.425-160.977,94.072
		C883.049,1339.41,859.682,1378.57,859.45,1378.962z"/>
</g>
<g>
	<path d="M1086.257,1143.098c-37.181-32.252-73.459-27.523-73.822-27.472l-0.571-3.959c1.549-0.224,38.377-5.107,77.014,28.41
		L1086.257,1143.098z"/>
</g>
<g>
	<path d="M1331.682,1181.513c-34.769-24.905-118.729-34.339-119.573-34.432l0.436-3.977c3.488,0.382,85.854,9.646,121.468,35.156
		L1331.682,1181.513z"/>
</g>
<g>
	<path d="M1368.419,1469.514c-10.45-107.014-51.359-174.732-83.838-212.698c-35.192-41.138-68.35-57.19-68.681-57.347l1.716-3.613
		c0.337,0.16,34.123,16.48,69.855,58.186c20.955,24.458,38.51,52.759,52.178,84.116c17.069,39.161,28.088,83.225,32.75,130.968
		L1368.419,1469.514z"/>
</g>
<g>
	<path d="M1079.219,1623.54c-0.649-0.081-65.535-8.638-119.653-52.624l2.522-3.104c53.239,43.271,116.99,51.679,117.627,51.759
		L1079.219,1623.54z"/>
</g>
<g>
	<path d="M1029.828,1609.39l-2.413-3.189c30.979-23.428,59.665-92.92,82.958-200.964c17.658-81.907,26.064-157.727,26.147-158.482
		l3.977,0.436c-0.083,0.758-8.508,76.754-26.207,158.858C1090.455,1516.617,1062.038,1585.031,1029.828,1609.39z"/>
</g>
<g>
	<path d="M1547.21,1441.029c-21.099,0-51.551-5.639-90.374-27.462l1.961-3.486c45.528,25.593,79.102,28.484,99.247,26.407
		c21.75-2.244,32.944-10.608,33.055-10.692l2.435,3.174c-0.479,0.368-11.99,9.04-34.742,11.462
		C1555.314,1440.802,1551.45,1441.029,1547.21,1441.029z"/>
</g>
<g>
	<path d="M1566.079,1358.657c-18.832,0-36.466-4.785-49.972-9.923c-23.352-8.884-39.236-20.36-39.901-20.845l2.354-3.233
		c0.635,0.462,64.073,45.894,120.812,24.073l1.436,3.732C1589.229,1356.916,1577.435,1358.657,1566.079,1358.657z"/>
</g>
<g>
	<path d="M1581.117,1268.723c-20.104,0-47.803-6.508-85.024-27.257c-1.133-0.632-2.027-1.131-2.447-1.338l1.773-3.586
		c0.508,0.251,1.349,0.72,2.622,1.43c56.602,31.555,90.233,29.545,108.476,22.303l1.477,3.719
		C1601.174,1266.699,1592.326,1268.723,1581.117,1268.723z"/>
</g>
<g>
	<path d="M1579.707,1177.64c-23.106,0-47.477-6.596-72.773-19.731l1.844-3.55c34.482,17.904,67.104,23.372,96.958,16.254
		c2.122-0.506,4.262-1.085,6.361-1.722l1.16,3.828c-2.175,0.66-4.394,1.26-6.594,1.785
		C1597.893,1176.595,1588.899,1177.64,1579.707,1177.64z"/>
</g>
<g>
	<path d="M1586.131,1096.626c-31.454,0-67.121-11.868-69.143-12.55l1.279-3.79c0.656,0.222,66.085,21.993,96.607,7.087l1.756,3.595
		C1608.178,1095.096,1597.423,1096.626,1586.131,1096.626z"/>
</g>
<g>
	<path d="M1603.681,1028.982c-7.427,0-18.7-0.828-35.959-3.246c-21.992-3.082-43.341-7.312-43.554-7.354l0.779-3.923
		c41.218,8.194,86.37,13.667,90.589,8.647l3.063,2.572C1617.683,1026.77,1615.823,1028.982,1603.681,1028.982z"/>
</g>
<g>
	<path d="M1586.236,939.51c-26.802,0-53.999-7.474-55.604-7.921l1.076-3.853c0.544,0.152,54.794,15.056,84.611,3.056l1.494,3.711
		C1608.634,938.197,1597.47,939.51,1586.236,939.51z"/>
</g>
<g>
	<path d="M1584.634,828.379c-22.968,0-47.76-6.92-49.329-7.365l1.092-3.849c0.566,0.161,56.953,15.9,76.882,0.348l2.461,3.153
		C1608.316,826.46,1596.727,828.379,1584.634,828.379z"/>
</g>
<g>
	<path d="M1582.207,747.927c-23.503,0-46.113-10.208-47.461-10.828l1.669-3.635c0.456,0.209,45.793,20.66,73.256,3.592l2.111,3.397
		C1602.885,745.983,1592.459,747.927,1582.207,747.927z"/>
</g>
<g>
	<path d="M1583.649,682.174c-24.475,0-49.284-10.873-50.668-11.489l1.626-3.655c0.438,0.194,44.064,19.302,71.228,6.933l1.658,3.641
		C1600.201,680.924,1591.943,682.174,1583.649,682.174z"/>
</g>
<g>
	<path style="fill:none;stroke:#000000;stroke-width:4;stroke-miterlimit:10;" d="M1603.874,644.497"/>
</g>
<g>
	<path d="M1087.568,2066.229l24.074-2.953l24.116-2.611c8.045-0.808,16.104-1.48,24.156-2.227c8.057-0.688,16.125-1.242,24.188-1.87
		c32.269-2.271,64.613-3.533,96.97-3.786c32.356-0.212,64.726,0.544,97.036,2.437c32.325,1.74,64.537,5.059,96.714,8.164
		c32.181,3.127,64.368,6.039,96.613,8.037c32.243,1.996,64.54,3.03,96.832,2.895l12.109-0.087l6.055-0.044l6.052-0.178l24.206-0.746
		c16.117-0.918,32.25-1.625,48.324-3.145c16.107-1.133,32.123-3.192,48.171-4.92l23.977-3.364l11.984-1.711
		c3.986-0.628,7.967-1.278,11.942-1.957c7.949-1.354,15.88-2.802,23.752-4.47c7.866-1.677,15.699-3.533,23.31-5.926
		c3.794-1.207,7.549-2.548,11.047-4.238c1.738-0.847,3.422-1.791,4.845-2.895c1.422-1.08,2.522-2.451,2.56-3.501
		c0.141-1.004-0.771-2.321-2.158-3.424c-1.371-1.11-3.056-2.044-4.795-2.873c-3.504-1.652-7.285-2.929-11.096-4.078
		c-7.649-2.273-15.518-3.998-23.409-5.572c-7.898-1.562-15.848-2.926-23.815-4.205c-15.937-2.545-31.946-4.735-47.966-6.88
		c-16.021-2.144-32.061-4.207-48.086-6.493c-8.012-1.149-16.021-2.349-24.016-3.731c-3.997-0.695-7.99-1.434-11.976-2.273
		c-3.985-0.848-7.962-1.771-11.921-3.018c-1.98-0.646-3.951-1.332-5.927-2.411c-0.976-0.576-2.009-1.148-2.934-2.46
		c-0.22-0.35-0.422-0.75-0.537-1.235c-0.114-0.479-0.121-1.017-0.021-1.499c0.221-0.957,0.706-1.597,1.155-2.1
		c0.927-0.992,1.89-1.581,2.849-2.139c0.962-0.54,1.929-0.992,2.901-1.406c1.944-0.824,3.905-1.488,5.874-2.097
		c7.884-2.375,15.879-3.916,23.899-5.237c16.049-2.571,32.207-4.085,48.381-5.09c32.356-1.948,64.802-1.709,97.125,0.237
		c32.323,1.98,64.54,5.726,96.415,11.418c63.721,11.523,125.987,30.947,184.807,57.856c-14.804-6.503-29.774-12.622-44.943-18.206
		c-15.153-5.622-30.471-10.795-45.935-15.478c-30.925-9.387-62.441-16.755-94.268-22.24c-31.832-5.468-63.982-9.043-96.223-10.827
		c-32.238-1.758-64.586-1.811-96.782,0.311c-16.09,1.09-32.16,2.691-48.032,5.327c-7.918,1.348-15.839,2.877-23.438,5.191
		c-1.891,0.587-3.762,1.228-5.539,1.986c-0.887,0.379-1.751,0.787-2.551,1.239c-0.787,0.446-1.548,0.967-1.997,1.464
		c-0.226,0.241-0.328,0.465-0.334,0.5c0.016,0.01-0.027-0.043,0.077,0.146c0.232,0.366,0.96,0.916,1.728,1.328
		c1.576,0.863,3.438,1.529,5.298,2.127c3.757,1.177,7.666,2.081,11.588,2.907c3.927,0.819,7.886,1.544,11.855,2.226
		c7.941,1.358,15.926,2.539,23.92,3.67c15.993,2.25,32.031,4.283,48.066,6.398c16.035,2.116,32.072,4.279,48.074,6.803
		c8,1.269,15.991,2.624,23.958,4.184c7.964,1.574,15.913,3.297,23.772,5.615c3.925,1.178,7.834,2.479,11.652,4.267
		c1.904,0.91,3.795,1.925,5.578,3.354c0.885,0.72,1.754,1.552,2.471,2.654c0.714,1.076,1.247,2.547,1.113,4.052
		c-0.095,1.511-0.784,2.784-1.52,3.783c-0.757,1.007-1.624,1.784-2.504,2.484c-1.774,1.377-3.644,2.409-5.531,3.338
		c-3.784,1.834-7.664,3.219-11.567,4.47c-7.813,2.472-15.73,4.359-23.671,6.068c-7.943,1.695-15.918,3.179-23.907,4.537
		c-3.996,0.674-7.995,1.32-11.996,1.942l-12.029,1.695l-24.065,3.33c-16.105,1.705-32.179,3.74-48.34,4.847
		c-16.129,1.494-32.313,2.174-48.482,3.064l-24.279,0.703l-6.07,0.167l-6.072,0.032l-12.143,0.065
		c-32.381,0.075-64.758-1.022-97.062-3.082l-24.216-1.705l-24.188-2.015l-24.159-2.281l-24.138-2.434
		c-32.176-3.287-64.304-6.781-96.561-8.7c-32.245-2.08-64.562-2.99-96.878-2.999
		C1216.436,2054.582,1151.805,2058.759,1087.568,2066.229z"/>
</g>
<g>
	<path d="M99.092,2234.813l24.074-2.953l24.116-2.611c8.045-0.808,16.104-1.48,24.156-2.227c8.057-0.688,16.125-1.242,24.188-1.87
		c32.269-2.271,64.613-3.533,96.97-3.786c32.356-0.212,64.726,0.544,97.036,2.437c32.325,1.74,64.537,5.059,96.713,8.164
		c32.181,3.127,64.368,6.039,96.613,8.037c32.243,1.996,64.54,3.03,96.832,2.895l12.109-0.087l6.055-0.043l6.052-0.178l24.206-0.746
		c16.117-0.918,32.249-1.625,48.324-3.145c16.107-1.133,32.123-3.192,48.171-4.92l23.977-3.364l11.984-1.711
		c3.986-0.628,7.967-1.278,11.942-1.957c7.95-1.354,15.88-2.802,23.752-4.47c7.866-1.677,15.699-3.533,23.31-5.926
		c3.794-1.207,7.549-2.548,11.046-4.238c1.738-0.847,3.422-1.791,4.845-2.895c1.422-1.08,2.523-2.45,2.56-3.501
		c0.142-1.003-0.771-2.321-2.158-3.424c-1.371-1.11-3.056-2.044-4.795-2.873c-3.504-1.652-7.285-2.929-11.096-4.078
		c-7.649-2.273-15.518-3.998-23.409-5.572c-7.898-1.562-15.848-2.926-23.815-4.205c-15.937-2.545-31.946-4.734-47.966-6.879
		c-16.021-2.145-32.061-4.207-48.086-6.493c-8.012-1.149-16.021-2.349-24.016-3.731c-3.997-0.695-7.991-1.434-11.976-2.273
		c-3.985-0.848-7.962-1.771-11.92-3.018c-1.98-0.646-3.951-1.332-5.927-2.411c-0.976-0.576-2.008-1.148-2.934-2.46
		c-0.22-0.351-0.422-0.75-0.538-1.236c-0.114-0.479-0.121-1.017-0.021-1.499c0.221-0.957,0.706-1.597,1.155-2.1
		c0.927-0.992,1.89-1.581,2.849-2.139c0.961-0.54,1.929-0.992,2.901-1.406c1.944-0.824,3.905-1.488,5.874-2.096
		c7.884-2.375,15.879-3.916,23.899-5.237c16.049-2.571,32.207-4.085,48.381-5.09c32.355-1.948,64.802-1.709,97.125,0.237
		c32.323,1.98,64.54,5.726,96.415,11.418c63.721,11.523,125.987,30.947,184.807,57.856c-14.803-6.503-29.774-12.622-44.943-18.207
		c-15.153-5.622-30.471-10.795-45.935-15.478c-30.925-9.387-62.442-16.754-94.268-22.24c-31.832-5.468-63.982-9.043-96.223-10.827
		c-32.238-1.758-64.586-1.811-96.783,0.311c-16.09,1.091-32.16,2.691-48.032,5.327c-7.918,1.348-15.839,2.877-23.438,5.191
		c-1.891,0.588-3.762,1.228-5.539,1.986c-0.887,0.379-1.751,0.788-2.551,1.239c-0.787,0.446-1.548,0.967-1.997,1.464
		c-0.227,0.241-0.328,0.465-0.334,0.5c0.016,0.01-0.028-0.043,0.077,0.146c0.232,0.366,0.96,0.916,1.728,1.328
		c1.576,0.863,3.438,1.529,5.298,2.127c3.757,1.177,7.666,2.081,11.588,2.907c3.927,0.819,7.886,1.544,11.855,2.227
		c7.941,1.358,15.926,2.539,23.92,3.67c15.993,2.251,32.031,4.283,48.066,6.398c16.035,2.116,32.072,4.279,48.074,6.803
		c8,1.269,15.991,2.624,23.958,4.184c7.964,1.574,15.913,3.296,23.772,5.615c3.925,1.178,7.834,2.479,11.652,4.267
		c1.904,0.91,3.795,1.925,5.578,3.354c0.885,0.72,1.754,1.552,2.471,2.654c0.714,1.076,1.247,2.547,1.113,4.052
		c-0.095,1.511-0.784,2.784-1.52,3.784c-0.757,1.007-1.624,1.784-2.504,2.484c-1.774,1.377-3.644,2.409-5.531,3.338
		c-3.784,1.834-7.664,3.219-11.567,4.47c-7.813,2.472-15.73,4.359-23.671,6.068c-7.943,1.695-15.918,3.179-23.907,4.537
		c-3.996,0.674-7.995,1.32-11.996,1.942l-12.029,1.695l-24.065,3.33c-16.105,1.705-32.179,3.74-48.34,4.847
		c-16.129,1.494-32.313,2.174-48.482,3.064l-24.279,0.704l-6.07,0.167l-6.072,0.032l-12.143,0.065
		c-32.381,0.075-64.758-1.022-97.062-3.082l-24.215-1.705l-24.188-2.015l-24.159-2.281l-24.138-2.434
		c-32.176-3.287-64.304-6.781-96.561-8.7c-32.245-2.08-64.562-2.99-96.878-2.999C227.96,2223.166,163.329,2227.343,99.092,2234.813z
		"/>
</g>
<g>
	<path d="M388.526,1964.394c-37.407,0-78.341-2.469-122.333-9.53c-48.326-7.754-54.858-14.085-54.875-19.255
		c-0.033-10.281,32.588-15.454,86.317-22.75c24.417-3.315,54.641-7.42,58.48-10.979c-6.105-6.346-91.091-20.843-192.63,0.093
		c-37.633,7.76-74.673,20.016-110.093,36.429l-1.682-3.629c35.698-16.542,73.033-28.896,110.967-36.718
		c41.334-8.522,87.284-12.259,129.385-10.519c32.511,1.343,59.807,5.92,66.378,11.129c1.202,0.953,1.827,2.017,1.858,3.161
		c0.161,6.001-15.974,8.729-62.126,14.996c-20.15,2.736-40.987,5.565-57.094,8.907c-23.917,4.963-25.765,8.807-25.762,9.867
		c0.005,1.655,3.735,7.651,51.508,15.317c103.678,16.641,190.451,7.637,253.809,1.062c11.087-1.15,21.559-2.237,31.354-3.112
		c70.931-6.337,144.419-4.741,218.424,4.746l-0.509,3.967c-73.719-9.447-146.917-11.04-217.559-4.729
		c-9.766,0.872-20.225,1.958-31.297,3.106C484.312,1959.767,439.725,1964.394,388.526,1964.394z"/>
</g>
<g>
	<path d="M1116.449,1919.99c16.457-4.875,33.23-8.648,50.12-11.766c8.443-1.589,16.94-2.878,25.456-4.055
		c8.523-1.129,17.08-2.021,25.661-2.699c17.158-1.217,34.475-1.541,51.657,0.477c4.288,0.522,8.569,1.152,12.807,2.03
		c4.233,0.894,8.433,1.972,12.544,3.338c4.098,1.393,8.123,3.038,11.919,5.118c3.796,2.069,7.366,4.568,10.447,7.559
		c-6.762-5.323-14.767-8.592-22.935-10.797c-8.188-2.238-16.633-3.418-25.095-4.141c-8.472-0.681-16.988-0.922-25.504-0.774
		c-8.516,0.104-17.036,0.514-25.541,1.178c-8.511,0.596-17.006,1.468-25.489,2.46c-8.49,0.955-16.952,2.157-25.416,3.375
		C1150.161,1913.818,1133.289,1916.726,1116.449,1919.99z"/>
</g>
<g>
	<path d="M1390.76,2010.707c16.006,5.196,32.157,9.8,48.423,13.862c8.148,1.968,16.301,3.895,24.519,5.484
		c8.205,1.643,16.448,3.085,24.73,4.173c8.273,1.157,16.588,1.956,24.914,2.344c4.162,0.196,8.327,0.279,12.489,0.223
		c4.161-0.069,8.315-0.282,12.456-0.643c8.272-0.752,16.499-2.229,24.368-4.896c7.869-2.627,15.364-6.581,21.706-12.139
		c-5.727,6.21-13.153,10.776-21.02,13.979c-7.907,3.174-16.279,5.119-24.713,6.158c-8.438,1.122-16.955,1.295-25.429,1.102
		c-8.477-0.279-16.92-1.06-25.307-2.167c-8.378-1.18-16.707-2.65-24.961-4.437c-8.248-1.816-16.445-3.839-24.551-6.177
		C1422.174,2022.92,1406.191,2017.456,1390.76,2010.707z"/>
</g>
<g>
	<path d="M1477.383,1886.55c14.417-3.697,29.095-6.328,43.857-8.328c7.381-1.019,14.8-1.761,22.233-2.376
		c7.437-0.576,14.897-0.913,22.368-1.028c14.925-0.089,29.987,0.703,44.677,4.057c7.316,1.708,14.554,4.088,21.177,7.762
		c3.284,1.864,6.414,4.045,9.122,6.677c2.714,2.618,4.99,5.685,6.563,9.06c-3.927-6.373-10.006-10.905-16.589-13.994
		c-6.601-3.143-13.732-5.044-20.917-6.451c-7.218-1.309-14.528-2.192-21.882-2.6c-7.347-0.479-14.728-0.625-22.109-0.514
		c-7.383,0.037-14.77,0.357-22.152,0.799c-7.387,0.394-14.761,1.05-22.14,1.698
		C1506.842,1882.719,1492.111,1884.479,1477.383,1886.55z"/>
</g>
<g>
	<path d="M219.232,2117.596c1.492,0.694,3.032,1.265,4.579,1.801c1.545,0.542,3.102,1.045,4.676,1.487
		c3.144,0.894,6.309,1.688,9.512,2.3c6.39,1.284,12.869,2.027,19.352,2.427c6.489,0.344,12.992,0.378,19.476-0.025
		c1.619-0.131,3.243-0.155,4.86-0.328l4.852-0.438c3.224-0.413,6.454-0.767,9.656-1.333c3.221-0.44,6.408-1.101,9.607-1.686
		c1.593-0.327,3.177-0.702,4.767-1.05c1.591-0.343,3.176-0.713,4.752-1.121l4.741-1.182c1.577-0.407,3.136-0.885,4.706-1.324
		c3.145-0.863,6.246-1.874,9.365-2.841c12.436-3.998,24.621-8.836,36.696-14.073c-11.32,6.721-23.277,12.417-35.671,17.021
		c-12.391,4.601-25.223,8.17-38.345,10.206c-13.103,2.078-26.499,2.629-39.717,1.274c-6.606-0.678-13.16-1.869-19.553-3.626
		c-3.189-0.903-6.341-1.937-9.416-3.157C225.059,2120.7,222.038,2119.324,219.232,2117.596z"/>
</g>
<g>
	<path d="M468.387,1854.746c6.929,4.483,13.996,8.61,21.252,12.286c3.646,1.799,7.312,3.53,11.076,4.989
		c3.748,1.482,7.541,2.85,11.426,3.788c3.863,1.009,7.797,1.673,11.737,1.889c0.983,0.026,1.971,0.104,2.954,0.092l2.946-0.129
		c0.974-0.102,1.94-0.263,2.916-0.38c0.493-0.039,0.969-0.148,1.445-0.261l1.435-0.321c3.799-0.959,7.448-2.559,10.777-4.782
		c3.328-2.246,6.182-5.155,8.935-8.245c-2.021,3.594-4.559,6.974-7.735,9.799c-3.233,2.735-7.018,4.906-11.116,6.227
		c-4.081,1.392-8.431,1.867-12.695,1.784c-4.275-0.113-8.491-0.799-12.595-1.802c-8.175-2.172-15.86-5.662-23.003-9.923
		C481.013,1865.482,474.297,1860.534,468.387,1854.746z"/>
</g>
<g>
	<path d="M542.331,2091.283c-0.652,4.176-0.962,8.357-0.949,12.523c-0.027,4.161,0.268,8.302,0.874,12.375
		c1.226,8.138,3.753,16.037,7.808,23.103c0.948,1.803,2.094,3.49,3.209,5.194l1.824,2.455c0.584,0.838,1.312,1.562,1.939,2.368
		c1.252,1.619,2.744,3.03,4.133,4.538l2.261,2.092c0.375,0.352,0.739,0.717,1.124,1.058l1.188,0.988
		c6.315,5.311,13.443,9.724,20.939,13.641c-8.119-2.372-15.913-6.116-22.868-11.187c-1.797-1.192-3.38-2.668-5.047-4.04
		c-1.536-1.517-3.174-2.943-4.582-4.596c-2.929-3.198-5.458-6.771-7.604-10.551c-2.097-3.808-3.835-7.819-5.083-11.976
		c-1.192-4.17-2.025-8.436-2.33-12.736c-0.362-4.293-0.227-8.604,0.266-12.846C539.968,2099.451,540.822,2095.247,542.331,2091.283z
		"/>
</g>
<g>
	<path d="M88.339,2100.209c3.248-4.234,6.875-8.16,10.595-11.992c3.756-3.797,7.658-7.46,11.745-10.917
		c4.056-3.497,8.331-6.735,12.696-9.857c4.381-3.102,8.971-5.915,13.661-8.555c2.347-1.319,4.78-2.483,7.193-3.682
		c2.466-1.095,4.902-2.254,7.442-3.184c5.052-1.892,10.212-3.591,15.548-4.546c5.311-1.013,10.724-1.58,16.124-1.371
		c5.391,0.256,10.735,1.123,15.805,2.781c-5.279-0.792-10.549-1.108-15.786-0.817l-3.914,0.311
		c-1.299,0.144-2.591,0.375-3.882,0.556c-1.294,0.162-2.571,0.455-3.85,0.713c-1.279,0.261-2.559,0.502-3.814,0.873
		c-5.059,1.274-10.01,2.98-14.821,5.016c-2.423,0.975-4.789,2.095-7.162,3.193c-2.332,1.192-4.677,2.354-6.953,3.658
		c-4.604,2.505-9.094,5.24-13.46,8.173c-4.401,2.884-8.65,6-12.877,9.161C104.24,2086.13,96.129,2092.948,88.339,2100.209z"/>
</g>
<g>
	<path d="M1654.305,1055.74C1654.304,1055.74,1654.304,1055.74,1654.305,1055.74c-4.507,11.3-10.293,29.042-12.117,51.329
		c-6.011,73.459,36.802,125.776,51.01,143.138c3.47,4.24,38.911,47.049,52.962,39.721c0.901-0.47,3.712-2.188,5.793-13.24
		c4.661-24.756-4.957-39.945-7.448-65.374c-0.775-7.915-1.184-20.129,1.655-35.583c0,0,0,0,0,0
		C1715.541,1135.734,1684.923,1095.737,1654.305,1055.74z"/>
</g>
<g>
	<path style="fill:#FFFFFF;" d="M1654.477,1061.609c0.3-1.216,0.804-2.988,1.642-5.036c1.408-3.44,3.409-7.229,11.701-15.545
		c10.217-10.247,18.505-17.038,22.007-19.863c3.468-2.798,5.951-4.655,7.049-5.515c29.262-22.933,16.272-77.509,50.019-121.738
		c20.173-26.439,47.577-36.77,59.986-41.447c42.195-15.906,83.805-9.42,110.3,0.623c60.077,22.772,101.861,86.352,107.026,161.275
		c2.232,15.084,4.065,37.02,1.103,63.076c-3.036,26.705-10.181,49.584-20.596,73.925c-10.994,25.693-35.923,77.069-95.993,147.115
		c-35.259,41.114-49.192,49.676-84.591,96.36c-28.861,38.061-49.03,71.182-40.457,104.452c2.46,9.547,6.699,16.826,9.93,21.516
		c5.122-12.399,14.682-31.06,32.486-47.763c60.65-56.902,157.215-35.038,179.36-30.024c37.592,8.511,63.261,22.993,86.614,36.411
		c25.459,14.628,123.016,74.287,175.987,196.031c10.813,24.851,17.206,46.4,20.964,61.053c-2.069-0.322-4.138-0.644-6.207-0.965
		c-0.916,14.349-1.671,28.894-2.253,43.629c-0.132,3.35-0.255,6.691-0.368,10.022c-2.49-2.379-5.007-4.861-7.54-7.448
		c-4.199-4.288-8.117-8.531-11.769-12.689c-4.113,8.546-7.354,10.218-9.557,10.16c-6.198-0.163-8.946-14.147-19.498-34.434
		c-5.217-10.03-10.369-17.808-13.976-22.895c-5.612,2.487-15.346,5.904-27.768,5.793c-18.211-0.164-31.372-7.816-36.779-11.401
		c-5.208,4.05-12.806,9.041-22.803,12.873c-13.477,5.165-25.461,5.98-33.101,5.885c-7.994,2.935-16.584,5.794-25.745,8.459
		c-10.994,3.198-21.461,5.723-31.262,7.723c-2.187,6.229-5.742,14.264-11.631,22.665c-4.149,5.918-8.466,10.605-12.275,14.206
		c15.97,36.539,28.91,57.499,38.066,70.064c7.743,10.626,13.406,22.75,21.777,32.889c5.125,6.208,10.793,12.211,11.875,21.728
		c0.179,1.574,0.937,9.438-3.208,16.888c-5.956,10.704-19.792,16.524-34.858,14.834c-8.419,3.183-20.172,7.633-34.204,12.964
		c-3.343,1.27-48.988,18.662-114.75,46.066c-32.027,13.346-36.54,15.612-42.48,21.791c-16.607,17.277-10.257,29.655-27.797,63.44
		c-1.048,2.019-15.947,30.113-42.818,52.321c-1.04,0.859-14.592,11.814-34.204,15.999c-7.103,1.515-10.888,1.266-13.792-0.736
		c-5.976-4.119-5.754-13.954-5.509-24.833c0.222-9.874,0.345-15.296,3.854-20.957c4.1-6.616,8.746-6.976,17.93-14.619
		c6.728-5.599,11.28-11.268,14.068-15.171c-5.609-1.931-11.218-3.862-16.826-5.793c10.117-5.132,31.86-17.949,47.169-43.859
		c9.215-15.596,12.811-30.372,14.344-40.273c17.386,2.655,49.379,4.966,85.143-8.275c16.814-6.225,30.165-14.298,40.089-21.516
		c-1.103-57.007-2.207-114.014-3.31-171.021c-4.24-2.561-9.298-6.178-14.344-11.218c-8.519-8.509-13.327-17.402-15.999-23.538
		c-55.311-6.026-96.659-22.751-121.922-35.308c-40.183-19.973-64.287-41.64-70.049-46.927
		c-17.058-15.654-38.357-35.617-52.425-68.926c-0.959-2.272-10.417-25.102-12.689-51.858c-6.086-71.688,42.572-134.344,78.339-180.4
		c23.467-30.218,60.212-71.324,114.198-111.44c91.916-85.624,139.286-175.96,111.992-228.396
		c-4.017-7.718-10.096-15.467-19.309-22.619c-7.359,11.115-19.87,27.639-39.169,43.031
		c-52.984,42.258-111.277,38.437-131.852,73.374c-12.692,21.55-18.806,46.481-18.806,46.481c-0.847,4.091-1.694,8.182-2.542,12.273"
		/>
	<path d="M1746.354,2160.055c-3.083,0-5.386-0.676-7.397-2.063c-6.864-4.731-6.626-15.317-6.374-26.524
		c0.224-9.88,0.357-15.842,4.153-21.966c2.708-4.368,5.701-6.294,9.492-8.732c2.484-1.598,5.3-3.409,8.858-6.37
		c4.471-3.722,8.538-7.962,12.117-12.632l-18.713-6.441l4.213-2.138c13.608-6.903,32.697-19.983,46.351-43.093
		c7.162-12.121,11.902-25.432,14.089-39.561l0.306-1.973l1.973,0.302c28.756,4.389,57.85,1.563,84.147-8.175
		c13.708-5.075,26.744-12.02,38.764-20.647l-3.27-168.882c-5.004-3.121-9.635-6.796-13.778-10.935
		c-6.659-6.65-12.02-14.413-15.946-23.092c-43.06-4.821-83.916-16.722-121.451-35.378c-36.127-17.957-59.684-37.308-70.511-47.244
		c-16.201-14.869-38.391-35.232-52.915-69.622c-1.073-2.541-10.558-25.604-12.839-52.468
		c-6.152-72.465,42.92-135.654,78.751-181.794c32.478-41.821,70.997-79.419,114.497-111.754
		c93.717-87.331,137.485-176.01,111.499-225.934c-3.989-7.664-9.73-14.594-17.082-20.624
		c-10.846,15.996-23.747,30.009-38.375,41.676c-25.562,20.387-52.054,30.05-75.427,38.574
		c-25.457,9.285-45.564,16.619-55.948,34.251c-12.388,21.034-18.526,45.696-18.587,45.942l-2.526,12.203l-3.916-0.812l2.542-12.273
		c0.077-0.323,6.347-25.536,19.04-47.09c11.112-18.868,32.853-26.797,58.025-35.979c23.086-8.42,49.251-17.963,74.303-37.943
		c14.852-11.845,27.889-26.168,38.749-42.572l1.191-1.798l1.703,1.323c8.619,6.691,15.3,14.522,19.856,23.275
		c13.516,25.967,9.616,61.781-11.277,103.57c-20.211,40.422-55.179,84.412-101.125,127.212l-0.171,0.143
		c-43.244,32.134-81.536,69.5-113.811,111.062c-35.429,45.619-83.947,108.096-77.926,179.004
		c2.229,26.248,11.489,48.768,12.537,51.249c14.186,33.588,36.004,53.611,51.936,68.231c10.671,9.794,33.9,28.872,69.587,46.609
		c37.444,18.611,78.237,30.424,121.248,35.11l1.153,0.126l0.464,1.064c3.764,8.645,9.005,16.356,15.577,22.921
		c4.176,4.171,8.874,7.845,13.965,10.921l0.944,0.57l3.352,173.167l-0.843,0.613c-12.549,9.127-26.198,16.452-40.571,21.774
		c-26.338,9.75-55.398,12.738-84.182,8.664c-2.389,13.906-7.188,27.025-14.278,39.025c-12.819,21.697-30.252,34.854-43.89,42.447
		l15.012,5.168l-1.559,2.182c-4.149,5.808-9,11.038-14.416,15.546c-3.747,3.118-6.8,5.082-9.253,6.66
		c-3.628,2.334-6.024,3.875-8.256,7.476c-3.222,5.197-3.333,10.126-3.555,19.946c-0.228,10.1-0.442,19.637,4.645,23.144
		c2.021,1.392,4.871,1.998,12.24,0.426c19.324-4.123,32.783-15.118,33.347-15.584c26.802-22.15,41.697-50.505,42.317-51.701
		c7.861-15.142,10.901-26.062,13.344-34.835c2.997-10.765,5.364-19.268,14.787-29.069c6.142-6.391,10.578-8.679,43.151-22.252
		c65.093-27.124,109.913-44.229,114.809-46.089c14.034-5.332,25.789-9.782,34.208-12.967l0.451-0.17l0.479,0.054
		c14.409,1.614,27.317-3.808,32.888-13.818c3.665-6.586,3.199-13.674,2.969-15.689c-0.921-8.097-5.371-13.422-10.081-19.061
		c-0.452-0.54-0.902-1.079-1.349-1.62c-4.84-5.86-8.819-12.419-12.669-18.762c-2.891-4.764-5.88-9.689-9.183-14.223
		c-12.425-17.05-25.306-40.749-38.283-70.44l-0.563-1.288l1.021-0.966c4.458-4.215,8.5-8.892,12.012-13.901
		c4.779-6.818,8.609-14.28,11.382-22.179l0.375-1.07l1.112-0.228c10.419-2.126,20.884-4.711,31.103-7.685
		c8.593-2.498,17.211-5.329,25.614-8.416l0.346-0.127l0.369,0.005c11.171,0.147,22.038-1.796,32.36-5.752
		c7.994-3.064,15.494-7.298,22.291-12.584l1.135-0.883l1.198,0.795c7.494,4.971,19.77,10.925,35.69,11.068
		c9.295,0.089,18.338-1.809,26.94-5.621l1.496-0.663l0.946,1.335c5.202,7.338,9.952,15.119,14.118,23.128
		c3.728,7.166,6.517,13.614,8.758,18.796c3.638,8.412,6.267,14.49,9.019,14.563c0.018,0,0.035,0,0.053,0
		c2.102,0,4.885-3.283,7.65-9.028l1.311-2.723l1.994,2.27c3.769,4.291,7.703,8.533,11.694,12.609
		c1.401,1.431,2.829,2.861,4.271,4.278c0.067-1.841,0.138-3.686,0.211-5.532c0.57-14.475,1.329-29.17,2.254-43.677l0.14-2.187
		l5.359,0.834c-5.214-19.701-11.968-39.134-20.094-57.81c-49.459-113.674-138.963-174.304-175.148-195.095
		c-22.495-12.926-47.992-27.575-86.06-36.195c-97.261-22.021-150.237,3.905-177.551,29.532
		c-13.61,12.77-24.379,28.605-32.006,47.068l-1.406,3.404l-2.09-3.033c-4.782-6.942-8.221-14.396-10.219-22.151
		c-8.385-32.537,9.395-64.743,40.799-106.159c21.515-28.373,34.884-42.454,50.364-58.759c10.049-10.585,20.439-21.529,34.303-37.695
		c43.63-50.875,75.818-100.199,95.672-146.6c11.404-26.651,17.711-49.277,20.448-73.365c2.354-20.701,1.985-41.749-1.095-62.557
		l-0.017-0.155c-5.139-74.519-46.644-137.143-105.74-159.542c-16.571-6.281-60.353-18.917-108.886-0.622
		c-12.748,4.805-39.275,14.805-59.102,40.789c-16.601,21.758-21.767,46.357-26.325,68.061c-4.747,22.603-8.847,42.123-24.05,54.038
		c-0.293,0.23-0.684,0.53-1.165,0.899c-1.324,1.017-3.326,2.553-5.861,4.598c-7.412,5.979-14.762,12.614-21.847,19.718
		c-8.1,8.124-9.95,11.679-11.266,14.891c-0.631,1.542-1.153,3.143-1.552,4.757l-3.883-0.958c0.444-1.803,1.027-3.592,1.733-5.315
		c1.475-3.602,3.512-7.551,12.135-16.199c7.186-7.206,14.644-13.938,22.167-20.007c2.572-2.076,4.598-3.629,5.938-4.658
		c0.468-0.359,0.849-0.651,1.134-0.875c14.055-11.015,18.016-29.874,22.603-51.711c4.645-22.119,9.91-47.188,27.06-69.665
		c20.521-26.896,48.797-37.554,60.871-42.105c49.809-18.775,94.718-5.818,111.714,0.625c60.53,22.943,103.037,86.895,108.308,162.93
		c3.12,21.127,3.49,42.497,1.101,63.517c-2.783,24.491-9.182,47.463-20.745,74.487c-20.014,46.776-52.418,96.446-96.313,147.63
		c-13.93,16.243-24.356,27.225-34.439,37.846c-15.398,16.219-28.696,30.226-50.077,58.421
		c-30.683,40.465-48.096,71.768-40.113,102.745c1.589,6.164,4.148,12.132,7.625,17.787c7.737-17.517,18.318-32.64,31.486-44.994
		c28.02-26.289,82.199-52.922,181.169-30.517c38.656,8.753,65.556,24.209,87.17,36.628
		c36.531,20.989,126.889,82.199,176.824,196.968c8.614,19.799,15.702,40.441,21.067,61.354l0.754,2.94l-7.041-1.096
		c-0.86,13.764-1.57,27.678-2.111,41.395c-0.132,3.347-0.254,6.684-0.367,10.012l-0.152,4.463l-3.229-3.085
		c-2.564-2.451-5.117-4.974-7.587-7.495c-3.36-3.432-6.682-6.979-9.898-10.575c-3.212,5.812-6.462,8.648-9.887,8.649
		c-0.056,0-0.11-0.001-0.165-0.003c-5.304-0.14-8.044-6.476-12.585-16.973c-2.216-5.123-4.974-11.499-8.635-18.538
		c-3.833-7.368-8.169-14.539-12.904-21.339c-8.675,3.61-17.784,5.411-27.083,5.314c-16.076-0.145-28.64-5.863-36.666-10.956
		c-6.805,5.126-14.261,9.259-22.182,12.294c-10.685,4.096-21.972,6.096-33.473,6.021c-8.381,3.068-16.969,5.886-25.531,8.376
		c-9.962,2.897-20.155,5.432-30.315,7.535c-2.859,7.848-6.725,15.271-11.498,22.081c-3.397,4.845-7.269,9.393-11.521,13.533
		c12.671,28.827,25.214,51.839,37.29,68.41c3.402,4.669,6.437,9.669,9.37,14.503c3.775,6.221,7.679,12.653,12.333,18.29
		c0.441,0.535,0.888,1.068,1.334,1.603c4.882,5.843,9.929,11.885,10.986,21.172c0.339,2.967,0.681,10.669-3.447,18.088
		c-6.293,11.31-20.521,17.521-36.345,15.899c-8.385,3.172-19.971,7.558-33.756,12.795c-4.89,1.859-49.655,18.942-114.69,46.042
		c-31.885,13.287-36.183,15.479-41.807,21.332c-8.725,9.075-10.86,16.749-13.817,27.371c-2.492,8.952-5.594,20.094-13.646,35.605
		c-0.637,1.226-15.898,30.278-43.319,52.94c-1.489,1.231-15.131,12.16-35.062,16.413
		C1751.14,2159.711,1748.549,2160.055,1746.354,2160.055z"/>
</g>
<g>
	<path style="fill:#FFFFFF;" d="M1945.868,966.367c0,0-4.413,29.791-11.034,43.031"/>
	<path d="M1936.624,1010.292l-3.578-1.789c6.4-12.801,10.8-42.135,10.844-42.429l3.957,0.586
		C1947.664,967.89,1943.31,996.92,1936.624,1010.292z"/>
</g>
<g>
	
		<ellipse transform="matrix(0.2298 -0.9732 0.9732 0.2298 480.8174 2527.8279)" style="fill:#FFFFFF;" cx="1837.433" cy="960.144" rx="41.882" ry="41.882"/>
	<path d="M1837.433,1004.026c-24.196,0-43.882-19.686-43.882-43.882c0-24.196,19.686-43.882,43.882-43.882
		s43.882,19.685,43.882,43.882C1881.314,984.341,1861.629,1004.026,1837.433,1004.026z M1837.433,920.263
		c-21.991,0-39.882,17.891-39.882,39.882c0,21.991,17.891,39.882,39.882,39.882s39.882-17.891,39.882-39.882
		C1877.314,938.154,1859.424,920.263,1837.433,920.263z"/>
</g>
<g>
	<path d="M1832.777,940.71c-16.626,0-30.105,13.478-30.105,30.105c0,16.626,13.478,30.105,30.105,30.105
		c16.626,0,30.104-13.478,30.104-30.105C1862.882,954.188,1849.404,940.71,1832.777,940.71z M1844.819,966.795
		c-4.079,0-7.386-3.307-7.386-7.386c0-4.079,3.307-7.386,7.386-7.386s7.386,3.307,7.386,7.386
		C1852.205,963.489,1848.899,966.795,1844.819,966.795z"/>
</g>
<g>
	<path d="M1721.776,1111.287c1.564-8.92,4.495-17.575,8.095-25.911c3.62-8.338,8.071-16.342,13.327-23.808
		c5.288-7.432,11.35-14.38,18.332-20.281c6.901-5.976,14.746-10.869,23.111-14.29c-7.595,4.904-14.675,10.355-21.007,16.596
		c-1.612,1.526-3.102,3.176-4.661,4.75c-1.475,1.658-2.996,3.271-4.386,5.001c-1.445,1.68-2.822,3.419-4.2,5.157
		c-1.327,1.778-2.676,3.538-3.924,5.374c-2.596,3.6-5.006,7.337-7.278,11.161c-2.32,3.798-4.426,7.723-6.504,11.673
		C1728.617,1094.655,1724.932,1102.826,1721.776,1111.287z"/>
</g>
<g>
	<path style="fill:#FFFFFF;" d="M1798.889,1098.327c-0.92-4.739-1.891-12.181-0.872-21.072c1.84-16.059,8.808-24.964,17.487-43.807
		c3.393-7.367,8.026-18.376,12.328-32.529"/>
	<path d="M1796.927,1098.708c-1.411-7.26-1.713-14.555-0.896-21.681c1.372-11.976,5.602-20.271,10.956-30.771
		c2.023-3.97,4.318-8.469,6.702-13.645c4.724-10.257,8.839-21.115,12.231-32.273l3.826,1.163
		c-3.444,11.332-7.625,22.362-12.425,32.784c-2.417,5.249-4.73,9.786-6.771,13.789c-5.373,10.538-9.256,18.152-10.545,29.41
		c-0.771,6.72-0.484,13.604,0.848,20.463L1796.927,1098.708z"/>
</g>
<g>
	<path style="fill:#FFFFFF;" d="M1715.62,982.739c20.451,14.427,45.022,17.492,63.293,7.228
		c9.696-5.447,15.453-13.431,18.669-19.153"/>
	<path d="M1754.756,998.074c-13.326,0-27.451-4.645-40.289-13.701l2.307-3.268c19.884,14.027,43.891,16.821,61.161,7.119
		c7.341-4.124,13.365-10.311,17.904-18.389l3.486,1.96c-4.903,8.727-11.441,15.428-19.432,19.917
		C1772.301,995.977,1763.708,998.074,1754.756,998.074z"/>
</g>
<g>
	<path d="M1722.529,1042.361c0,3.682-2.984,6.666-6.666,6.666c-3.682,0-6.666-2.984-6.666-6.666c0-3.682,2.984-6.666,6.666-6.666
		C1719.544,1035.695,1722.529,1038.679,1722.529,1042.361z"/>
</g>
<g>
	<g>
		<path style="fill:#FFFFFF;" d="M1841.049,1542.323c0.168,12.138,2.307,49.343,30.343,75.58
			c15.52,14.524,47.806,33.952,65.65,21.516c8.122-5.661,10.711-16.152,11.585-23.722c31.686,20.596,62.767,23.855,76.099,10.453
			c2.686-2.7,5.884-7.315,7.205-15.418c30.115,19.067,61.216,21.446,76.684,7.172c3.15-2.907,7.021-7.768,9.379-15.999
			c33.33,25.24,69.459,24.078,82.752,7.724c8.794-10.819,6.49-26.929,4.734-34.733"/>
	</g>
	<g>
		<path d="M1841.049,1542.323c0.421,15.342,3.447,30.671,9.608,44.681c3.092,6.983,6.91,13.659,11.621,19.652
			c2.416,2.941,4.843,5.88,7.621,8.483l2.021,2.01c0.704,0.639,1.403,1.281,2.131,1.895c1.433,1.251,2.925,2.436,4.422,3.611
			c6.04,4.635,12.483,8.772,19.284,12.137c6.785,3.341,13.986,6.024,21.369,6.845c1.839,0.171,3.684,0.276,5.501,0.142
			c1.821-0.086,3.612-0.385,5.33-0.873c3.448-0.953,6.553-2.827,8.969-5.412c2.438-2.571,4.171-5.81,5.396-9.235
			c1.208-3.445,1.935-7.094,2.32-10.792l0.327-3.146l2.749,1.699l0.005,0.003c6.85,4.434,14.05,8.329,21.568,11.423
			c7.512,3.07,15.357,5.416,23.343,6.332c3.985,0.458,8.003,0.569,11.93,0.126c3.922-0.421,7.761-1.42,11.177-3.157
			c3.401-1.756,6.328-4.271,8.338-7.489c2.035-3.205,3.24-6.97,3.878-10.848l0.491-2.981l2.553,1.613
			c7,4.422,14.421,8.184,22.175,11c7.75,2.78,15.854,4.673,24.006,4.982c8.103,0.331,16.392-1.01,23.232-5.019
			c3.399-2.003,6.363-4.661,8.626-7.886c2.283-3.211,3.923-6.9,5.03-10.764l0.804-2.805l2.326,1.762
			c8.272,6.265,17.427,11.375,27.172,14.806c9.725,3.385,20.139,5.127,30.276,3.988c2.523-0.298,5.02-0.761,7.446-1.445
			c2.417-0.705,4.76-1.619,6.955-2.782c4.404-2.306,8.138-5.698,10.454-9.995c1.154-2.148,2.033-4.464,2.614-6.884
			c0.555-2.427,0.862-4.929,0.964-7.456c0.194-5.061-0.448-10.195-1.553-15.208l3.902-0.878c1.165,5.292,1.856,10.729,1.648,16.235
			c-0.111,2.75-0.445,5.509-1.07,8.233c-0.652,2.719-1.651,5.382-2.999,7.882l-1.079,1.842l-1.26,1.731
			c-0.859,1.138-1.833,2.191-2.867,3.162c-2.07,1.948-4.411,3.561-6.882,4.87c-2.473,1.31-5.075,2.321-7.729,3.094
			c-2.661,0.75-5.371,1.253-8.092,1.573c-10.921,1.219-21.87-0.649-32.049-4.186c-10.194-3.59-19.703-8.908-28.267-15.394
			l3.13-1.044c-1.208,4.213-3.02,8.329-5.616,11.981c-2.572,3.669-6.007,6.753-9.854,9.013c-3.852,2.272-8.092,3.752-12.393,4.612
			c-4.309,0.866-8.689,1.127-13.022,0.959c-8.68-0.332-17.154-2.327-25.218-5.218c-8.065-2.928-15.734-6.821-22.953-11.381
			l3.044-1.368c-0.704,4.263-2.041,8.551-4.449,12.349c-2.379,3.822-5.946,6.885-9.888,8.903c-3.966,2.016-8.274,3.11-12.562,3.574
			c-4.299,0.483-8.601,0.357-12.829-0.128c-8.468-0.975-16.625-3.428-24.407-6.606c-7.783-3.204-15.193-7.215-22.228-11.769
			l-0.005-0.003l3.077-1.448c-0.496,3.928-1.356,7.85-2.774,11.627c-1.436,3.756-3.469,7.41-6.394,10.369
			c-2.891,2.973-6.657,5.121-10.639,6.121c-1.985,0.518-4.016,0.805-6.033,0.858c-2.02,0.102-4.021-0.056-5.999-0.284
			c-7.91-1.063-15.264-4.026-22.154-7.597c-6.896-3.601-13.35-7.95-19.391-12.796c-1.498-1.229-2.988-2.467-4.421-3.774
			c-0.727-0.641-1.428-1.313-2.131-1.98l-2.02-2.096c-2.774-2.718-5.186-5.767-7.575-8.81c-4.658-6.199-8.379-13.05-11.347-20.167
			C1843.825,1573.116,1841.138,1557.671,1841.049,1542.323z"/>
	</g>
</g>
<g>
	<g>
		<path style="fill:#FFFFFF;" d="M1916.629,1561.08c0,0,9.93,35.308,31.997,54.617"/>
	</g>
	<g>
		<path d="M1916.629,1561.08c1.689,5.064,3.726,9.999,5.951,14.833c2.237,4.829,4.717,9.536,7.423,14.092
			c2.711,4.555,5.756,8.886,9.016,13.007c3.307,4.089,6.989,7.819,10.925,11.18l-2.634,3.01c-3.959-3.824-7.54-7.956-10.682-12.378
			c-3.092-4.452-5.914-9.059-8.372-13.845c-2.453-4.787-4.653-9.685-6.596-14.675
			C1919.729,1571.311,1917.999,1566.242,1916.629,1561.08z"/>
	</g>
</g>
<g>
	<g>
		<path style="fill:#FFFFFF;" d="M1998.278,1561.08c0,0-0.552,28.136,33.653,49.651"/>
	</g>
	<g>
		<path d="M1998.278,1561.08c0.328,5.189,1.828,10.215,3.833,14.943c2.028,4.734,4.711,9.145,7.788,13.228
			c1.652,1.958,3.202,3.989,5.05,5.763c0.909,0.897,1.734,1.871,2.707,2.701l2.874,2.525c0.487,0.41,0.935,0.863,1.453,1.238
			l1.532,1.146l3.056,2.289c2.108,1.429,4.292,2.75,6.425,4.127l-2.13,3.386c-2.135-1.576-4.306-3.091-6.394-4.712l-3.021-2.579
			l-1.506-1.288c-0.508-0.422-0.949-0.923-1.426-1.381l-2.804-2.803c-0.946-0.92-1.745-1.988-2.621-2.972
			c-1.783-1.95-3.257-4.154-4.818-6.27c-2.898-4.404-5.346-9.093-7.097-14.033
			C1999.452,1571.455,1998.272,1566.286,1998.278,1561.08z"/>
	</g>
</g>
<g>
	<path style="fill:#FFFFFF;" d="M2076.617,1551.702c0,0,9.142,33.653,41.376,50.203"/>
	<path d="M2117.08,1603.685c-32.645-16.762-42.01-50.049-42.393-51.458l3.859-1.05c0.09,0.328,9.328,33.016,40.359,48.949
		L2117.08,1603.685z"/>
</g>
<g>
	<g>
		<path style="fill:#FFFFFF;" d="M2008.208,1650.453c0,0,15.079,54.984,89.189,84.591"/>
	</g>
	<g>
		<path d="M2008.208,1650.453c1.636,5.021,3.928,9.797,6.448,14.417c2.541,4.614,5.372,9.063,8.466,13.316
			c6.179,8.518,13.39,16.238,21.23,23.199c7.902,6.897,16.432,13.057,25.493,18.303c9.04,5.279,18.526,9.767,28.294,13.499
			l-1.484,3.715c-9.831-4.117-19.345-8.992-28.366-14.649c-9.041-5.624-17.504-12.153-25.283-19.389
			c-7.718-7.3-14.751-15.329-20.702-24.104c-2.98-4.381-5.685-8.945-8.089-13.657
			C2011.831,1660.386,2009.686,1655.525,2008.208,1650.453z"/>
	</g>
</g>
<g>
	<g>
		<path style="fill:#FFFFFF;" d="M2087.099,1643.393c0,0,27.584,51.562,66.202,72.894"/>
	</g>
	<g>
		<path d="M2087.099,1643.393c4.17,7.177,8.805,14.068,13.679,20.766c4.892,6.687,10.099,13.131,15.597,19.299
			c5.546,6.127,11.46,11.891,17.695,17.244c6.327,5.246,13.069,9.927,20.197,13.835l-1.934,3.501
			c-7.273-4.37-14.001-9.47-20.239-15.078c-6.138-5.712-11.888-11.79-17.232-18.193c-5.296-6.443-10.266-13.13-14.904-20.033
			C2095.34,1657.819,2090.978,1650.734,2087.099,1643.393z"/>
	</g>
</g>
<g>
	<g>
		<path style="fill:#FFFFFF;" d="M2149.99,1630.041c0,0,57.927,41.928,67.857,91.855"/>
	</g>
	<g>
		<path d="M2149.991,1630.041c7.869,5.686,15.299,11.977,22.414,18.602c7.111,6.634,13.83,13.706,20.057,21.215
			c3.092,3.773,6.065,7.65,8.867,11.659c2.771,4.03,5.391,8.174,7.784,12.462c2.35,4.311,4.495,8.748,6.334,13.331
			c1.784,4.605,3.264,9.342,4.362,14.196l-3.923,0.78c-0.887-4.65-2.147-9.241-3.715-13.744c-1.624-4.485-3.558-8.868-5.707-13.155
			c-2.193-4.266-4.622-8.419-7.212-12.478c-2.621-4.039-5.424-7.967-8.354-11.804c-5.905-7.64-12.337-14.897-19.188-21.743
			C2164.853,1642.523,2157.658,1635.992,2149.991,1630.041z"/>
	</g>
</g>
<g>
	<g>
		<path style="fill:#FFFFFF;" d="M2245.432,1708.38c0,0,12.137,22.067,15.447,60.685"/>
	</g>
	<g>
		<path d="M2245.432,1708.38c2.553,4.592,4.61,9.452,6.493,14.367c1.866,4.926,3.472,9.952,4.908,15.031
			c0.657,2.554,1.38,5.097,1.94,7.678c0.291,1.288,0.608,2.572,0.879,3.865l0.775,3.888c0.272,1.295,0.509,2.596,0.713,3.902
			l0.653,3.915c0.402,2.615,0.717,5.243,1.08,7.869l-3.985,0.342c-0.193-2.592-0.337-5.192-0.569-7.785l-0.397-3.885
			c-0.119-1.298-0.271-2.592-0.457-3.881l-0.519-3.876c-0.186-1.29-0.417-2.573-0.624-3.861c-0.39-2.581-0.943-5.13-1.432-7.697
			c-1.098-5.104-2.371-10.178-3.911-15.18C2249.422,1718.079,2247.686,1713.121,2245.432,1708.38z"/>
	</g>
</g>
<g>
	<path style="fill:#FFFFFF;" d="M1937.041,1790.028c0,0,37.146,19.125,79.442-1.931"/>
	<path d="M1974.953,1799.909c-22.688,0-38.583-7.977-38.827-8.103l1.829-3.558c0.363,0.188,36.797,18.388,77.637-1.941l1.783,3.58
		C2002.156,1797.464,1987.513,1799.909,1974.953,1799.909z"/>
</g>
<g>
	<path d="M1941.02,1962.935l-1.336-3.77c11.662-4.131,23.443-8.037,35.018-11.611c7.485-2.312,14.229-4.285,20.178-6.026
		c26.725-7.821,38.921-11.391,45.987-23.591c3.342-5.771,4.116-11.122,4.532-13.996c2.347-16.203-5.293-28.493-16.857-47.098
		c-2.406-3.871-4.894-7.873-7.521-12.275c-9.183-15.379-17.685-31.732-25.271-48.604l3.648-1.641
		c7.522,16.732,15.953,32.947,25.056,48.194c2.61,4.371,5.089,8.358,7.485,12.215c11.596,18.655,19.975,32.134,17.419,49.781
		c-0.455,3.142-1.302,8.989-5.03,15.428c-7.868,13.586-21.388,17.543-48.324,25.426c-5.937,1.737-12.664,3.707-20.122,6.01
		C1964.359,1954.934,1952.63,1958.823,1941.02,1962.935z"/>
</g>
<g>
	<path d="M1972.221,1951.081c-12.358-17.184-9.737-148.129-9.62-153.694l4,0.084c-0.794,37.544-0.747,137.906,8.868,151.274
		L1972.221,1951.081z"/>
</g>
<g>
	<path style="fill:#FFFFFF;" d="M2037.297,1925.767c0,0-0.585,13.399,12.839,18.732"/>
	<path d="M2049.397,1946.357c-14.577-5.79-14.105-20.529-14.099-20.677l3.996,0.168c-0.018,0.49-0.307,12.07,11.579,16.792
		L2049.397,1946.357z"/>
</g>
<g>
	<path d="M1815.454,2263.926c-9.577-19.487-6.284-41.774,8.008-54.198c11.694-10.165,26.385-9.702,32.162-9.027l0.492,0.057
		l0.409,0.281c3.417,2.35,34.157,22.558,60.852,8.969c8.849-4.504,14.214-11.193,16.625-14.78
		c7.204-10.717,6.996-20.865,6.494-45.385c-0.146-7.074-0.31-15.092-0.329-24.661c-0.018-8.556,0.097-11.287,0.208-13.929
		c0.117-2.797,0.228-5.438,0.184-14.754c-0.157-33.068-1.93-69.296-5.268-107.676l3.984-0.346
		c3.348,38.487,5.125,74.825,5.283,108.002c0.044,9.409-0.068,12.096-0.188,14.94c-0.109,2.599-0.222,5.286-0.204,13.754
		c0.02,9.532,0.184,17.53,0.328,24.587c0.505,24.672,0.735,35.933-7.173,47.698c-2.628,3.909-8.478,11.199-18.131,16.113
		c-27.859,14.181-59.29-5.453-64.511-8.951c-5.545-0.575-18.411-0.726-28.594,8.127c-12.924,11.234-15.82,31.555-7.043,49.415
		L1815.454,2263.926z"/>
</g>
<g>
	<path d="M1974.452,1974.076c-2.811,23.763-5.257,47.568-7.316,71.408c-2.044,23.84-3.754,47.711-5.049,71.604
		c-1.316,23.892-2.231,47.806-2.797,71.727c-0.547,23.922-0.721,47.853-0.526,71.78l0.016,1.985l-1.984,0.031l-139.171,2.207
		l-3.815,0.061l2.073-3.097l0-0.001c1.879-2.915,4.239-5.403,6.786-7.567c2.556-2.163,5.303-4.028,8.149-5.67
		c5.714-3.252,11.757-5.723,17.9-7.769c6.151-2.03,12.407-3.656,18.716-4.972c6.31-1.309,12.666-2.372,19.06-3.059
		c-6.348,1.017-12.627,2.405-18.83,4.032c-6.201,1.632-12.318,3.568-18.267,5.88c-5.939,2.325-11.718,5.057-17.018,8.45
		c-5.234,3.421-10.086,7.575-13.076,12.749l0,0.001l-1.742-3.037l139.171-2.207l-1.968,2.017
		c-0.195-23.97-0.021-47.942,0.527-71.906c0.566-23.964,1.483-47.919,2.801-71.854c1.297-23.935,3.01-47.848,5.057-71.73
		c2.063-23.881,4.513-47.729,7.328-71.534L1974.452,1974.076z"/>
</g>
<g>
	<g>
		<path style="fill:#FFFFFF;" d="M1926.559,2230.271c-20.259,10.597-40.518,21.195-60.777,31.792"/>
	</g>
	<g>
		<polygon points="1926.559,2230.271 1866.709,2263.835 1864.855,2260.291 		"/>
	</g>
</g>
<g>
	<g>
		<path style="fill:#FFFFFF;" d="M1859.806,2221.72c0,0-24.274-8.087-42.204-1.699"/>
	</g>
	<g>
		<path d="M1859.806,2221.72c-3.458-0.915-6.973-1.57-10.496-2.075c-3.525-0.495-7.068-0.797-10.599-0.899
			c-3.534-0.063-7.05,0.119-10.502,0.564c-3.442,0.517-6.789,1.369-9.935,2.595l-1.343-3.768c3.639-1.047,7.327-1.609,11-1.814
			c3.674-0.13,7.318,0.027,10.919,0.428c3.596,0.44,7.148,1.082,10.646,1.911C1852.99,2219.501,1856.446,2220.487,1859.806,2221.72z
			"/>
	</g>
</g>
<g>
	<g>
		<path style="fill:#FFFFFF;" d="M1801.052,2073.593c0,0-37.836,66.281-64.018,79.344"/>
	</g>
	<g>
		<path d="M1801.052,2073.593c-4.155,7.5-8.544,14.873-13.08,22.158c-4.553,7.274-9.264,14.458-14.246,21.465
			c-2.482,3.51-5.044,6.968-7.689,10.368c-2.637,3.407-5.375,6.743-8.248,9.979c-2.877,3.232-5.854,6.394-9.106,9.325
			c-3.255,2.92-6.727,5.685-10.755,7.838l-1.786-3.579c3.618-1.753,7.022-4.22,10.242-6.898c3.227-2.688,6.256-5.661,9.198-8.719
			c2.941-3.063,5.772-6.25,8.511-9.519c2.747-3.262,5.423-6.594,8.025-9.985c5.221-6.77,10.194-13.744,15.016-20.822
			C1791.94,2088.115,1796.609,2080.925,1801.052,2073.593z"/>
	</g>
</g>
<g>
	<path style="fill:#FFFFFF;" d="M1737.034,2113.206c0,0,29.898,1.233,51.647-19.466"/>
	<path d="M1738.195,2115.225c-0.688,0-1.116-0.015-1.244-0.021l0.163-3.996c0.295,0.01,29.337,0.928,50.188-18.917l2.758,2.898
		C1770.218,2114.073,1744.225,2115.225,1738.195,2115.225z"/>
</g>
<g>
	<path style="fill:#FFFFFF;" d="M1657.155,1072.658c-0.119,1.515-0.318,3.784-0.644,6.528c-1.365,11.515-3.146,16.167-3.758,22.061
		c-0.485,4.672-0.37,11.411,2.563,19.959c1.835-5.162,3.11-9.524,3.954-12.643c5.996-22.167,2.956-28.719,1.958-30.614
		C1659.901,1075.431,1658.257,1073.686,1657.155,1072.658z"/>
</g>
<g>
	<line style="fill:#FFFFFF;" x1="1655.004" y1="1059.701" x2="1743.52" y2="1184.372"/>
	
		<rect x="1697.262" y="1045.588" transform="matrix(0.8154 -0.5789 0.5789 0.8154 -335.8589 1190.8838)" width="4" height="152.898"/>
</g>
</svg>
