<?xml version="1.0" encoding="utf-8"?>
<!-- Generator: Adobe Illustrator 27.5.0, SVG Export Plug-In . SVG Version: 6.00 Build 0)  -->
<svg version="1.1" id="Layer_1" xmlns="http://www.w3.org/2000/svg" xmlns:xlink="http://www.w3.org/1999/xlink" x="0px" y="0px"
	 viewBox="0 0 2073.857 2933.027" style="enable-background:new 0 0 2073.857 2933.027;" xml:space="preserve">
<rect style="fill:#FFFFFF;" width="2073.857" height="2933.027"/>
<g>
	<g>
		
			<path style="fill:none;stroke:#000000;stroke-width:12.3586;stroke-linecap:round;stroke-linejoin:round;stroke-miterlimit:10;" d="
			M605.013,967.633c0,0,3.123,120.233,56.213,212.36c53.09,92.127,49.967,146.778,18.738,248.274
			c-31.229,101.496,0,182.692,0,182.692s-187.377-37.475-246.713-64.02c-59.336-26.545-145.217-184.254-42.16-390.368
			s193.622-201.82,193.622-201.82s71.828-143.265,182.692-183.863c110.865-40.598,149.901-76.512,154.586-109.303
			c0,0,20.299,31.229,10.93,85.881c0,0,50.533-68.941,217.045-40.598c146.778,24.984,171.762,90.565,171.762,90.565
			s198.307,15.615,368.507,302.926s-249.835,455.95-249.835,455.95s54.651-43.721-7.807-184.254s-103.057-163.954-93.688-326.347
			c9.369-162.393-17.176-196.745-17.176-196.745"/>
		
			<path style="fill:none;stroke:#000000;stroke-width:12.3586;stroke-linecap:round;stroke-linejoin:round;stroke-miterlimit:10;" d="
			M837.672,1364.247c0,0,46.844-73.389,190.5-103.057c143.655-29.668,252.958,51.529,252.958,51.529"/>
		
			<path style="fill:none;stroke:#000000;stroke-width:12.3586;stroke-linecap:round;stroke-linejoin:round;stroke-miterlimit:10;" d="
			M675.609,1443.967c0,0,57.988-119.031,224.794-134.509"/>
		
			<path style="fill:none;stroke:#000000;stroke-width:12.3586;stroke-linecap:round;stroke-linejoin:round;stroke-miterlimit:10;" d="
			M1173.225,1264.946c0,0,118.828-33.399,234.381,54.031"/>
		
			<path style="fill:none;stroke:#000000;stroke-width:12.3586;stroke-linecap:round;stroke-linejoin:round;stroke-miterlimit:10;" d="
			M668.315,1558.162c0,0,41.316,66.851,294.275,90.273"/>
		
			<path style="fill:none;stroke:#000000;stroke-width:12.3586;stroke-linecap:round;stroke-linejoin:round;stroke-miterlimit:10;" d="
			M937.607,1603.299c0,0,29.174,94.398,149.901,95.103c96.811,0.565,120.233-140.24,120.233-140.24"/>
		
			<path style="fill:none;stroke:#000000;stroke-width:12.3586;stroke-linecap:round;stroke-linejoin:round;stroke-miterlimit:10;" d="
			M1455.302,1436.247c0,0-19.649,110.514-266.33,181.65"/>
		
			<path style="fill:none;stroke:#000000;stroke-width:12.3586;stroke-linecap:round;stroke-linejoin:round;stroke-miterlimit:10;" d="
			M937.607,1254.67c0,0,51.529-35.639,163.955-32.516"/>
		
			<path style="fill:none;stroke:#000000;stroke-width:12.3586;stroke-linecap:round;stroke-linejoin:round;stroke-miterlimit:10;" d="
			M1053.156,1429.829c0,0-101.945-25.813-115.549-79.635c-13.604-53.822,87.443-61.833,135.067-61.365
			c47.625,0.468,67.924,8.275,61.678,53.558C1128.106,1387.669,1053.156,1429.829,1053.156,1429.829z"/>
		
			<path style="fill:none;stroke:#000000;stroke-width:12.3586;stroke-linecap:round;stroke-linejoin:round;stroke-miterlimit:10;" d="
			M882.955,1523.517c0,0,50.748,51.529,121.014,14.053s49.186-107.742,49.186-107.742s7.667,85.1,82.297,86.662
			c74.63,1.561,101.175-47.625,101.175-47.625"/>
		
			<path style="fill:none;stroke:#000000;stroke-width:12.3586;stroke-linecap:round;stroke-linejoin:round;stroke-miterlimit:10;" d="
			M888.081,1639.502c0,0-66.804,24.938-128.873,90.52l38.646-11.711c0,0-57.384,38.646-85.491,110.084
			c-28.106,71.437-4.684,104.228-4.684,104.228s2.342-78.464,35.133-97.202c0,0-30.449,51.529-23.422,126.479
			c7.027,74.951-24.593,101.886-29.278,236.563c-4.684,134.677-17.567,215.483-32.791,286.92
			c-15.224,71.437-31.62,133.506,45.673,155.757"/>
		
			<path style="fill:none;stroke:#000000;stroke-width:12.3586;stroke-linecap:round;stroke-linejoin:round;stroke-miterlimit:10;" d="
			M981.913,1546.775c0,0,38.842,48.57,90.761,46.228s72.877-76.649,72.877-76.649s-11.98,15.834-33.841,10.718
			s-26.545-1.561-44.502,7.375c0,0-21.332-11.711-35.133,1.562C1018.338,1549.221,981.913,1546.775,981.913,1546.775z"/>
		
			<path style="fill:none;stroke:#000000;stroke-width:12.3586;stroke-linecap:round;stroke-linejoin:round;stroke-miterlimit:10;" d="
			M1200.811,1614.4c0,0,85.394,60.58,141.607,135.531l-37.475-23.422c0,0,60.897,59.726,70.266,118.281
			c9.369,58.555,0,90.175,0,90.175s-10.54-44.502-25.764-64.411c0,0-7.027,44.502,4.684,128.821
			c11.711,84.32,30.579,153.415,25.244,231.878c-5.335,78.464,1.692,145.217,27.456,220.167s56.213,167.468-57.384,189.719"/>
		
			<path style="fill:none;stroke:#000000;stroke-width:12.3586;stroke-linecap:round;stroke-linejoin:round;stroke-miterlimit:10;" d="
			M720.562,2479.528c0,0-49.186,158.099,0,176.837s126.479,0,126.479,0"/>
		
			<path style="fill:none;stroke:#000000;stroke-width:12.3586;stroke-linecap:round;stroke-linejoin:round;stroke-miterlimit:10;" d="
			M836.501,2509.977c0,0-14.053,143.135,25.764,154.716c39.818,11.581,85.491,8.068,87.833-66.883
			c2.342-74.951-25.764-118.281-25.764-118.281"/>
		
			<path style="fill:none;stroke:#000000;stroke-width:12.3586;stroke-linecap:round;stroke-linejoin:round;stroke-miterlimit:10;" d="
			M905.596,2330.798c0,0,100.715,112.426,118.281,207.285c17.566,94.859-92.432,117.199-92.432,117.199"/>
		
			<path style="fill:none;stroke:#000000;stroke-width:12.3586;stroke-linecap:round;stroke-linejoin:round;stroke-miterlimit:10;" d="
			M905.596,2403.406c0,0-133.431-56.448-244.723,64.878"/>
		
			<path style="fill:none;stroke:#000000;stroke-width:12.3586;stroke-linecap:round;stroke-linejoin:round;stroke-miterlimit:10;" d="
			M950.237,1982.59c0,0-31.368,149.901,12.353,307.61c43.721,157.709,47.747,202.841,47.747,202.841"/>
		
			<path style="fill:none;stroke:#000000;stroke-width:12.3586;stroke-linecap:round;stroke-linejoin:round;stroke-miterlimit:10;" d="
			M1137.475,2349.536c0,0-83.263,115.549-91.599,184.254c-8.336,68.705,24.455,105.399,77.545,107.351"/>
		
			<path style="fill:none;stroke:#000000;stroke-width:12.3586;stroke-linecap:round;stroke-linejoin:round;stroke-miterlimit:10;" d="
			M1126.935,2479.528c0,0-53.871,167.645,36.304,175.754c90.175,8.109,169.81,2.254,189.719-24.682
			c19.909-26.936,25.764-108.913-9.369-151.073"/>
		
			<path style="fill:none;stroke:#000000;stroke-width:12.3586;stroke-linecap:round;stroke-linejoin:round;stroke-miterlimit:10;" d="
			M1232.334,2493.04c0,0,40.41,87.075,4.688,165.603"/>
		
			<path style="fill:none;stroke:#000000;stroke-width:12.3586;stroke-linecap:round;stroke-linejoin:round;stroke-miterlimit:10;" d="
			M1148.015,2406.92c0,0,117.11-63.24,258.814,44.502"/>
		
			<path style="fill:none;stroke:#000000;stroke-width:12.3586;stroke-linecap:round;stroke-linejoin:round;stroke-miterlimit:10;" d="
			M1374.591,2127.77c0,0,40.435-56.957,110.701-13.626c70.266,43.331,21.08,222.51-18.738,267.012c0,0,85.491-28.106,148.73,15.224
			s77.293,146.954-33.962,179.462c-111.255,32.508-152.36,0-152.36,0"/>
		
			<path style="fill:none;stroke:#000000;stroke-width:12.3586;stroke-linecap:round;stroke-linejoin:round;stroke-miterlimit:10;" d="
			M1548.532,2440.882c0,0,49.327,51.826,11.196,140.681"/>
		
			<path style="fill:none;stroke:#000000;stroke-width:12.3586;stroke-linecap:round;stroke-linejoin:round;stroke-miterlimit:10;" d="
			M1615.286,2440.882c0,0,35.569,39.694,11.343,113.535"/>
		
			<path style="fill:none;stroke:#000000;stroke-width:12.3586;stroke-linecap:round;stroke-linejoin:round;stroke-miterlimit:10;" d="
			M1347.465,1919.689c0,0,107.416,126.531,171.808,213.193c64.393,86.662,91.131,172.611,72.492,250.845"/>
		
			<path style="fill:none;stroke:#000000;stroke-width:12.3586;stroke-linecap:round;stroke-linejoin:round;stroke-miterlimit:10;" d="
			M693.561,2144.013c0,0-33.148-56.957-103.415-13.626c-70.266,43.331-21.08,222.51,18.738,267.012c0,0-85.491-28.106-148.73,15.224
			s-77.293,146.954,33.962,179.462s152.361,0,152.361,0"/>
		
			<path style="fill:none;stroke:#000000;stroke-width:12.3586;stroke-linecap:round;stroke-linejoin:round;stroke-miterlimit:10;" d="
			M526.907,2457.125c0,0-49.327,51.826-11.196,140.681"/>
		
			<path style="fill:none;stroke:#000000;stroke-width:12.3586;stroke-linecap:round;stroke-linejoin:round;stroke-miterlimit:10;" d="
			M460.154,2457.125c0,0-35.569,39.693-11.343,113.535"/>
		
			<path style="fill:none;stroke:#000000;stroke-width:12.3586;stroke-linecap:round;stroke-linejoin:round;stroke-miterlimit:10;" d="
			M717.044,1935.932c0,0-96.485,126.531-160.878,213.193c-64.393,86.662-91.131,172.61-72.492,250.845"/>
		
			<path style="fill:none;stroke:#000000;stroke-width:12.3586;stroke-linecap:round;stroke-linejoin:round;stroke-miterlimit:10;" d="
			M675.609,1146.812c0,0,2.793-63.24,57.835-115.939c55.042-52.7,96.031-32.791,96.031-32.791l8.198,32.791
			C837.672,1030.873,753.622,1041.413,675.609,1146.812z"/>
		
			<path style="fill:none;stroke:#000000;stroke-width:12.3586;stroke-linecap:round;stroke-linejoin:round;stroke-miterlimit:10;" d="
			M1324.937,1040.065c0,0-30.798-55.304-103.604-77.802c-72.806-22.497-100.552,13.649-100.552,13.649l7.343,32.993
			C1128.124,1008.906,1208.005,980.719,1324.937,1040.065z"/>
		<g>
			
				<ellipse transform="matrix(0.9971 -0.0761 0.0761 0.9971 -83.2957 94.185)" style="fill:none;stroke:#000000;stroke-width:12.3586;stroke-linecap:round;stroke-linejoin:round;stroke-miterlimit:10;" cx="1194.419" cy="1140.25" rx="72.013" ry="100.353"/>
			
				<ellipse transform="matrix(0.9983 -0.0589 0.0589 0.9983 -66.0709 72.0087)" style="fill:none;stroke:#000000;stroke-width:12.3586;stroke-linecap:round;stroke-linejoin:round;stroke-miterlimit:10;" cx="1188.268" cy="1156.6" rx="43.842" ry="62.62"/>
			<path d="M1188.38,1129.846c4.681,1.189,8.807,4.344,12.019,8.706c-7.253-0.956-12.971,1.222-13.379,5.474
				c-0.47,4.899,6.282,10.684,15.081,12.919c1.79,0.455,3.502,0.684,5.137,0.787c0.2,2.431,0.218,4.913-0.022,7.416
				c-1.578,16.453-12.57,27.323-24.55,24.28c-11.98-3.043-20.414-18.848-18.836-35.302
				C1165.408,1137.674,1176.401,1126.803,1188.38,1129.846z"/>
		</g>
		<g>
			
				<ellipse transform="matrix(0.9745 -0.2242 0.2242 0.9745 -248.7746 215.7053)" style="fill:none;stroke:#000000;stroke-width:12.3586;stroke-linecap:round;stroke-linejoin:round;stroke-miterlimit:10;" cx="825.316" cy="1203.153" rx="72.013" ry="100.353"/>
			
				<ellipse transform="matrix(0.9705 -0.241 0.241 0.9705 -268.6184 237.3371)" style="fill:none;stroke:#000000;stroke-width:12.3586;stroke-linecap:round;stroke-linejoin:round;stroke-miterlimit:10;" cx="836.056" cy="1216.929" rx="43.842" ry="62.62"/>
			<path d="M827.983,1191.423c-4.115,2.529-7.114,6.77-8.881,11.89c6.639-3.072,12.746-2.695,14.402,1.243
				c1.907,4.537-2.816,12.069-10.55,16.823c-1.573,0.967-3.139,1.696-4.67,2.282c0.533,2.38,1.255,4.754,2.229,7.072
				c6.405,15.237,20.135,22.341,30.665,15.869c10.53-6.472,13.876-24.072,7.471-39.309
				C852.244,1192.055,838.513,1184.95,827.983,1191.423z"/>
		</g>
		
			<path style="fill:none;stroke:#000000;stroke-width:12.3586;stroke-linecap:round;stroke-linejoin:round;stroke-miterlimit:10;" d="
			M1135.453,1970.098c0,0,12.366,299.501-78.687,522.942"/>
		
			<line style="fill:none;stroke:#000000;stroke-width:12.3586;stroke-linecap:round;stroke-linejoin:round;stroke-miterlimit:10;" x1="1025.531" y1="2550.973" x2="1044.609" y2="2551.737"/>
	</g>
	<g>
		<path style="fill:none;stroke:#000000;stroke-width:6.8479;stroke-linecap:round;stroke-linejoin:round;" d="M853.009,427.293
			c0,83.667-58.649,144.776-150.927,144.776H587.657V282.928h114.425C794.36,282.928,853.009,342.397,853.009,427.293z
			 M695.93,501.116c46.344,0,75.464-26.248,75.464-73.823c0-47.986-29.12-74.642-75.464-74.642h-27.888v148.464H695.93z"/>
		<path style="fill:none;stroke:#000000;stroke-width:6.8479;stroke-linecap:round;stroke-linejoin:round;" d="M1027.7,574.939
			c-82.025,0-148.466-61.518-148.466-148.464s66.441-148.057,148.466-148.057c82.436,0,148.056,61.11,148.056,148.057
			S1109.725,574.939,1027.7,574.939z M1027.7,500.297c41.422,0,66.44-29.121,66.44-73.823c0-45.525-25.018-74.234-66.44-74.234
			c-41.833,0-66.44,28.709-66.44,74.234C961.26,471.176,985.867,500.297,1027.7,500.297z"/>
		<path style="fill:none;stroke:#000000;stroke-width:6.8479;stroke-linecap:round;stroke-linejoin:round;" d="M1482.92,378.077
			h-86.539c-9.021-15.174-25.429-23.787-47.574-23.787c-40.603,0-65.209,28.301-65.209,72.592c0,49.628,25.426,76.284,73,76.284
			c27.89,0,48.397-13.124,60.291-38.142h-80.794v-57.826H1486.2v77.925c-17.227,42.241-61.929,88.996-137.393,88.996
			c-88.588,0-146.826-60.698-146.826-147.237c0-86.124,57.83-146.826,146.415-146.826
			C1421.399,280.056,1471.435,317.79,1482.92,378.077z"/>
	</g>
	
		<rect x="108.994" y="108.379" style="fill:none;stroke:#000000;stroke-width:6.3577;stroke-miterlimit:10;" width="1855.868" height="2716.268"/>
</g>

    <text x="10" y="832" font-size="12" fill="gray" opacity="0.6" font-family="Arial, sans-serif">
      twoja-kolorowanka.pl
    </text>
  
</svg>
