<?xml version="1.0" encoding="utf-8"?>
<!-- Generator: Adobe Illustrator 27.5.0, SVG Export Plug-In . SVG Version: 6.00 Build 0)  -->
<svg xmlns="http://www.w3.org/2000/svg" xmlns:xlink="http://www.w3.org/1999/xlink" viewBox="0 0 500 500" width="595" height="842" preserveAspectRatio="xMidYMid meet" data-scaled="true">
<g id="BACKGROUND">
	<rect style="fill:#FFFFFF;" width="500" height="500"/>
</g>
<g id="OBJECTS">
	<g>
		<path d="M345.382,149.466c1.585-0.076,3.118-0.739,4.237-1.872c2.284-2.311,2.242-6.063,0.079-8.436
			c-0.836-0.917-1.955-1.459-3.139-1.663c-0.478-0.156-0.983-0.251-1.513-0.257c-1.647-0.021-3.352,0.743-4.407,2.013
			c-1.005,1.209-1.635,2.753-1.555,4.347c0.08,1.58,0.76,3.111,1.938,4.182C342.197,148.849,343.77,149.543,345.382,149.466z"/>
		<path d="M355.051,141.67c0.254,1.103,0.185,2.254,0.064,3.374c-0.114,1.056-0.51,2.084-1.054,2.992
			c-0.456,0.76-1.163,1.546-1.832,2.041c-0.411,0.304-0.857,0.568-1.313,0.797c-0.443,0.223-1.057,0.331-1.569,0.652
			c-1.198,0.75-0.724,2.659,0.725,2.675c0.751,0.008,1.525-0.371,2.189-0.689c0.632-0.303,1.202-0.692,1.753-1.122
			c1.037-0.81,1.925-1.828,2.568-2.979c0.734-1.312,1.095-2.777,1.189-4.272c0.093-1.469-0.372-2.881-1.004-4.191
			C356.287,139.956,354.821,140.673,355.051,141.67z"/>
		<path d="M332.677,143.99c0.095,0.235,0.192,0.502,0.328,0.72c0.168,0.271,0.431,0.427,0.707,0.565
			c0.579,0.29,1.361-0.056,1.341-0.77c-0.006-0.212,0.017-0.436-0.04-0.642c-0.057-0.208-0.185-0.402-0.277-0.599
			c-0.012-0.028-0.026-0.064-0.037-0.093c-0.028-0.079-0.057-0.159-0.082-0.239c-0.051-0.161-0.095-0.324-0.131-0.489
			c-0.033-0.149-0.057-0.299-0.081-0.449c-0.006-0.035-0.011-0.078-0.014-0.106c-0.007-0.071-0.014-0.141-0.018-0.212
			c-0.023-0.34-0.012-0.677,0.018-1.016c0.007-0.062,0.007-0.067,0-0.016c-0.02,0.125-0.009,0.046,0.031-0.236
			c0.007-0.066,0.012-0.133,0.019-0.2c0.002-0.022,0.003-0.032,0.005-0.048c0.002-0.006,0.004-0.018,0.008-0.044
			c0.014-0.084,0.029-0.168,0.047-0.251c0.068-0.326,0.156-0.658,0.288-0.965c0.227-0.526,0.663-1.035,1.112-1.429
			c0.594-0.521-0.203-1.583-0.855-1.108c-1.252,0.911-2.378,2.423-2.666,3.973c-0.16,0.863-0.185,1.724-0.019,2.588
			C332.429,143.29,332.538,143.645,332.677,143.99z"/>
		<path d="M331.837,143.594c0.248,0.051,0.563-0.171,0.454-0.454c-0.381-0.993-0.907-1.651-1.089-2.715
			c-0.002-0.012-0.013-0.096-0.015-0.106c-0.005-0.043-0.009-0.085-0.012-0.128c-0.01-0.129-0.015-0.258-0.014-0.387
			c0.002-0.279,0.016-0.433,0.063-0.662c0.103-0.512,0.266-0.896,0.559-1.324c0.196-0.286,0.054-0.712-0.23-0.878
			c-0.328-0.192-0.669-0.048-0.878,0.23c-0.726,0.969-1.018,2.25-0.874,3.445C329.945,141.799,330.52,143.321,331.837,143.594z"/>
		<path d="M393.083,150.474c0.335,0.069,0.67,0.139,1.004,0.208c0.403,0.084,0.808,0.193,1.219,0.221
			c0.223,0.015,0.52-0.114,0.67-0.277c0.144-0.156,0.232-0.332,0.261-0.544c0.027-0.202,0.001-0.428-0.113-0.604
			c-0.125-0.195-0.327-0.396-0.566-0.435c-0.158-0.026-0.317-0.058-0.478-0.058c-0.082,0-0.165,0.001-0.247-0.001
			c-0.171-0.004-0.343-0.008-0.514-0.013c-0.343-0.008-0.686-0.017-1.029-0.025c-0.387-0.009-0.714,0.303-0.764,0.674
			C392.478,149.981,392.703,150.395,393.083,150.474z"/>
		<path d="M293.779,141.962c1.447,0.772,2.877,1.316,4.52,1.484c1.621,0.165,3.26,0.063,4.859-0.24
			c1.562-0.296,3.08-0.824,4.485-1.568c1.151-0.609,3.526-1.78,3.428-3.332c-0.03-0.474-0.347-0.746-0.802-0.802
			c-0.732-0.091-1.349,0.455-1.889,0.867c-0.542,0.414-1.122,0.781-1.719,1.111c-1.25,0.693-2.59,1.21-3.981,1.539
			c-2.691,0.637-5.756,0.508-8.432-0.174C293.595,140.681,293.153,141.628,293.779,141.962z"/>
		<path d="M308.63,142.992c2.613-0.109,5.338-1.047,7.143-3.008c0.432-0.469,0.886-1.218,0.937-1.87
			c0.024-0.303-0.127-0.595-0.439-0.672c-0.406-0.1-0.787,0.251-1.083,0.483c-0.975,0.765-1.844,1.683-2.855,2.362
			c-1.189,0.798-2.437,1.372-3.85,1.634C307.88,142.033,308.02,143.017,308.63,142.992z"/>
		<path d="M346.894,131.984c2.911,0.196,5.929,1.376,8.451,2.808c1.245,0.707,2.412,1.549,3.471,2.513
			c0.559,0.509,1.054,1.067,1.574,1.614c0.508,0.535,1.195,1.234,1.984,1.21c0.401-0.012,0.698-0.262,0.827-0.63
			c0.538-1.527-1.588-3.293-2.575-4.173c-1.239-1.105-2.611-2.054-4.086-2.816c-1.481-0.765-3.023-1.323-4.657-1.653
			c-1.647-0.332-3.317-0.331-4.99-0.253C346.002,130.646,346.01,131.925,346.894,131.984z"/>
		<path d="M365.429,137.617c0.085,0.189,0.176,0.376,0.255,0.568c-0.051-0.124,0.062,0.172,0.072,0.199
			c0.036,0.095,0.071,0.19,0.107,0.285c0.165,0.44,0.35,0.865,0.552,1.29c0.212,0.447,0.511,0.975,0.97,1.205
			c0.254,0.127,0.507,0.155,0.771,0.044c0.221-0.094,0.466-0.305,0.502-0.562c0.047-0.342,0.027-0.693-0.109-1.015
			c-0.097-0.23-0.2-0.461-0.323-0.679c-0.204-0.362-0.421-0.707-0.658-1.048c-0.488-0.702-0.916-1.442-1.358-2.174
			c-0.202-0.334-0.678-0.488-1.02-0.268c-0.369,0.238-0.439,0.638-0.268,1.02C365.09,136.861,365.26,137.239,365.429,137.617z"/>
		<path d="M236.602,216.363c0.087-0.392-0.319-0.732-0.683-0.525c-1.656,0.94-2.821,2.718-4.06,4.122
			c-1.322,1.497-2.695,2.955-4.122,4.352c-2.825,2.767-5.844,5.459-8.972,7.878c-0.531,0.411,0.15,1.255,0.709,0.919
			c3.535-2.12,6.738-4.488,9.719-7.341c1.445-1.383,2.824-2.828,4.127-4.347C234.575,219.959,236.173,218.3,236.602,216.363z"/>
		<path d="M239.111,226.531c-0.367,0.199-0.606,0.497-0.885,0.8c-0.263,0.285-0.517,0.57-0.763,0.869
			c-0.505,0.615-1.016,1.226-1.533,1.83c-1.02,1.19-2.095,2.343-3.222,3.433c-0.49,0.473,0.178,1.402,0.748,0.97
			c1.301-0.985,2.534-2.033,3.681-3.194c0.561-0.567,1.088-1.155,1.588-1.776c0.279-0.346,0.537-0.696,0.775-1.072
			c0.229-0.364,0.474-0.706,0.553-1.135C240.155,226.711,239.628,226.251,239.111,226.531z"/>
		<path d="M259.197,215.114c-0.644,0.32-1.035,1.08-1.408,1.672c-0.432,0.686-0.781,1.436-1.183,2.141
			c-0.832,1.458-1.69,2.902-2.606,4.309c-0.889,1.367-1.865,2.671-2.772,4.024c-0.953,1.423-1.942,2.808-3.024,4.135
			c-0.492,0.603,0.306,1.454,0.873,0.873c1.201-1.229,2.399-2.47,3.532-3.763c1.128-1.287,2.109-2.707,3.064-4.125
			c0.938-1.393,1.834-2.816,2.648-4.285c0.417-0.753,0.847-1.511,1.205-2.295c0.319-0.699,0.693-1.565,0.531-2.338
			C259.975,215.072,259.514,214.957,259.197,215.114z"/>
		<path d="M293.673,202.958c0.81-0.973,1.52-2.022,2.086-3.155c0.544-1.088,1.246-2.538,0.775-3.761
			c-0.123-0.32-0.509-0.468-0.777-0.205c-0.861,0.841-1.082,2.181-1.536,3.259c-0.435,1.033-1.026,2.054-1.694,2.977
			C292.045,202.74,293.142,203.595,293.673,202.958z"/>
		<path d="M303.487,176.654c-0.817,0.649-1.109,1.686-1.51,2.618c-0.419,0.975-0.835,1.95-1.227,2.937
			c-0.718,1.809-1.676,3.687-1.949,5.629c-0.075,0.532,0.557,1.084,1.005,0.585c1.337-1.488,2.174-3.438,3.112-5.187
			c0.465-0.868,0.91-1.744,1.351-2.625c0.503-1.005,1.174-2.009,1.136-3.163C305.371,176.403,304.233,176.062,303.487,176.654z"/>
		<path d="M356.313,159.989c-0.993-0.123-2.18,0.731-2.995,1.21c-0.972,0.571-1.931,1.142-2.957,1.614
			c-0.967,0.445-1.978,0.731-2.984,1.068c-1.105,0.37-2.201,0.642-3.361,0.763c-0.927,0.097-0.969,1.444,0,1.476
			c1.21,0.039,2.443,0.005,3.646-0.132c1.238-0.141,2.466-0.529,3.626-0.975c1.139-0.438,2.287-0.954,3.296-1.648
			c0.89-0.613,2.238-1.677,2.235-2.871C356.818,160.196,356.586,160.023,356.313,159.989z"/>
		<path d="M363.606,156.189c-0.177,0.075-0.328,0.181-0.472,0.311c-0.149,0.135-0.27,0.31-0.389,0.467
			c-0.031,0.041-0.144,0.179-0.015,0.021c0.147-0.178-0.019,0.024-0.041,0.051c-0.146,0.183-0.296,0.363-0.45,0.539
			c-0.291,0.333-0.609,0.64-0.896,0.977c-0.378,0.442-0.831,0.83-1.182,1.291c-0.015,0.02-0.069,0.08-0.08,0.105
			c-0.012,0.015-0.023,0.03-0.035,0.044c-0.08,0.1-0.161,0.199-0.244,0.298c-0.033,0.039-0.067,0.077-0.099,0.117
			c-0.041,0.054-0.083,0.107-0.124,0.161c-0.013,0.017-0.016,0.021-0.023,0.031c-0.026,0.025-0.111,0.108-0.1,0.098
			c-0.054,0.053-0.108,0.105-0.163,0.158c-0.445,0.426,0.011,1.233,0.609,1.046c0.09-0.028,0.25-0.048,0.321-0.104
			c0.012-0.004,0.024-0.008,0.035-0.012c-0.092-0.003-0.078-0.009,0.044-0.018c0.072-0.01,0.14-0.02,0.211-0.039
			c0.225-0.06,0.446-0.139,0.665-0.217c0.479-0.17,0.894-0.433,1.312-0.717c0.455-0.309,0.885-0.64,1.272-1.031
			c0.31-0.313,0.607-0.641,0.887-0.981c0.225-0.273,0.448-0.538,0.586-0.865c0.126-0.3,0.236-0.877,0.125-1.218
			c-0.178-0.55-0.699-0.85-1.269-0.72c-0.142,0.033-0.332,0.142-0.474,0.205c-0.011,0.005-0.022,0.01-0.033,0.014
			C363.809,156.103,363.816,156.101,363.606,156.189z"/>
		<path d="M367.677,155.971c-0.489,0.609-1.032,1.175-1.556,1.753c-0.228,0.252-0.267,0.673,0,0.919
			c0.276,0.253,0.643,0.237,0.919,0c0.297-0.255,0.593-0.51,0.89-0.765c0.148-0.127,0.297-0.255,0.445-0.382
			c0.004-0.004,0.022-0.02,0.039-0.036c0.011-0.008,0.061-0.051,0.07-0.058c0.08-0.061,0.161-0.122,0.241-0.183
			c0.342-0.26,0.678-0.525,1.011-0.795c0.153-0.124,0.293-0.255,0.434-0.393c0.224-0.218,0.469-0.459,0.533-0.777
			c0.065-0.321,0.008-0.637-0.232-0.876c-0.244-0.243-0.551-0.288-0.876-0.231c-0.307,0.054-0.547,0.291-0.762,0.5
			c-0.141,0.137-0.279,0.272-0.406,0.421C368.173,155.365,367.922,155.665,367.677,155.971z"/>
		<path d="M371.981,156.468c0.173,0.091,0.383,0.137,0.575,0.075c0.059-0.025,0.119-0.05,0.178-0.075
			c0.112-0.066,0.201-0.156,0.268-0.268c0.235-0.307,0.493-0.607,0.702-0.931c0.105-0.162,0.21-0.325,0.315-0.487
			c0.052-0.081,0.108-0.161,0.154-0.245c0.092-0.171,0.098-0.356,0.118-0.544c0.022-0.21-0.133-0.432-0.306-0.533
			c-0.205-0.12-0.417-0.094-0.623,0c-0.131,0.06-0.253,0.11-0.354,0.223c-0.064,0.071-0.12,0.151-0.18,0.226
			c-0.12,0.151-0.24,0.301-0.36,0.452c-0.273,0.345-0.508,0.722-0.754,1.087c-0.104,0.155-0.123,0.4-0.075,0.575
			C371.686,156.195,371.82,156.383,371.981,156.468z"/>
		<path d="M378.899,117.908c0.047,0.217,0.126,0.422,0.213,0.633c0.117,0.285,0.245,0.544,0.408,0.804
			c0.305,0.489,0.628,0.961,0.958,1.433c0.319,0.456,0.639,0.912,0.958,1.369c0.192,0.275,0.38,0.555,0.602,0.808
			c0.234,0.267,0.575,0.588,0.931,0.641c0.446,0.066,1.033-0.106,1.121-0.637c0.076-0.46-0.039-0.84-0.263-1.245
			c-0.143-0.26-0.339-0.49-0.518-0.726l-1.015-1.336c-0.369-0.486-0.737-0.969-1.131-1.435c-0.329-0.388-0.747-0.84-1.221-1.086
			c-0.115-0.103-0.23-0.207-0.345-0.311c-0.49-0.445-1.142,0.108-0.882,0.68C378.777,117.636,378.839,117.772,378.899,117.908z"/>
		<path d="M386.1,126.866c0.188,0.257,0.336,0.532,0.467,0.822c0.077,0.208,0.128,0.432,0.233,0.624
			c0.089,0.163,0.188,0.321,0.277,0.484c0.099,0.18,0.315,0.271,0.511,0.245c0.21-0.028,0.358-0.171,0.427-0.368
			c0.103-0.295,0.17-0.632,0.111-0.941c-0.053-0.276-0.155-0.549-0.27-0.805c-0.21-0.468-0.514-0.896-0.868-1.265
			c-0.265-0.276-0.769-0.286-1.032,0c-0.277,0.302-0.276,0.731,0,1.032C386.005,126.749,386.052,126.808,386.1,126.866z"/>
		<path d="M238.408,263.968c-1.51,0.141-2.907,1.164-4.129,1.986c-1.343,0.903-2.714,1.766-4.109,2.587
			c-1.351,0.795-2.726,1.553-4.095,2.318c-1.451,0.811-2.839,1.719-4.272,2.56c-0.605,0.355-0.208,1.344,0.482,1.143
			c1.588-0.462,3.162-0.932,4.674-1.608c1.528-0.683,3-1.457,4.453-2.287c1.405-0.803,2.786-1.647,4.14-2.533
			c1.309-0.855,2.838-1.877,3.458-3.375C239.159,264.401,238.781,263.933,238.408,263.968z"/>
		<path d="M170.005,266.589c-2.332,0.028-4.827,1.798-6.781,2.93c-2.274,1.317-4.512,2.709-6.666,4.216
			c-4.286,2.999-8.135,6.428-11.778,10.173c-0.498,0.512,0.239,1.213,0.771,0.771c3.921-3.258,8.114-6.247,12.355-9.071
			c2.068-1.377,4.162-2.708,6.313-3.951c1.075-0.621,2.169-1.208,3.245-1.828c1.043-0.601,2.24-1.175,2.999-2.131
			C170.795,267.283,170.616,266.582,170.005,266.589z"/>
		<path d="M151.118,271.127c2.158-1.844,4.446-3.492,6.799-5.076c1.144-0.77,2.284-1.546,3.438-2.3
			c0.558-0.365,1.149-0.694,1.676-1.102c0.524-0.406,1.12-0.784,1.363-1.421c0.128-0.335-0.192-0.595-0.48-0.629
			c-0.629-0.076-1.308,0.331-1.853,0.611c-0.625,0.322-1.209,0.76-1.792,1.153c-1.174,0.792-2.307,1.623-3.407,2.515
			c-2.197,1.78-4.262,3.736-6.278,5.716C150.234,270.939,150.753,271.439,151.118,271.127z"/>
		<path d="M246.972,186.25c-0.771,0.247-1.361,0.864-1.937,1.414c-0.7,0.668-1.315,1.411-1.948,2.14
			c-1.232,1.42-2.441,2.86-3.656,4.294c-1.182,1.396-2.331,2.818-3.479,4.244c-1.184,1.472-2.199,3.034-3.285,4.57
			c-0.249,0.352,0.285,0.725,0.579,0.447c1.327-1.254,2.695-2.437,3.946-3.776c1.281-1.371,2.556-2.745,3.802-4.147
			c1.211-1.363,2.428-2.722,3.622-4.1c0.587-0.677,1.186-1.343,1.723-2.06c0.518-0.692,1.181-1.455,1.331-2.325
			C247.742,186.55,247.421,186.106,246.972,186.25z"/>
		<path d="M317.756,318.745c-0.597,0.656-1.079,1.377-1.632,2.067c-0.382,0.476,0.08,1.081,0.641,0.831
			c0.803-0.357,1.608-0.663,2.355-1.13c0.69-0.431,1.326-0.973,1.96-1.481c1.332-1.069,2.587-2.271,3.781-3.492
			c1.17-1.196,2.274-2.463,3.335-3.756c0.556-0.677,1.106-1.356,1.587-2.089c0.458-0.698,1.101-1.611,0.879-2.469
			c-0.097-0.374-0.503-0.719-0.905-0.689c-0.873,0.065-1.46,0.811-2.013,1.435c-0.555,0.627-1.065,1.286-1.595,1.933
			c-1.038,1.266-2.131,2.479-3.249,3.674c-1.119,1.196-2.28,2.339-3.447,3.487C318.887,317.622,318.289,318.16,317.756,318.745z"/>
		<path d="M335.185,300.447c-0.53,0.64-1.06,1.28-1.591,1.92c-0.238,0.287-0.302,0.732,0,1.009c0.271,0.249,0.745,0.298,1.009,0
			l1.675-1.887c0.275-0.309,0.562-0.611,0.824-0.932c0.156-0.191,0.289-0.4,0.428-0.603c0.054-0.079,0.116-0.156,0.163-0.239
			c0.091-0.16,0.105-0.334,0.121-0.512c0.035-0.382-0.391-0.631-0.721-0.549c-0.275,0.068-0.461,0.217-0.663,0.406
			c-0.15,0.14-0.313,0.275-0.451,0.427C335.703,299.795,335.449,300.128,335.185,300.447z"/>
		<path d="M331.758,314.001c-1.312,1.209-2.647,2.396-4.036,3.516c-0.799,0.644-1.639,1.237-2.433,1.888
			c-0.785,0.644-1.52,1.335-2.325,1.958c-0.458,0.354,0.124,1.01,0.593,0.768c0.804-0.414,1.638-0.796,2.422-1.244
			c0.786-0.449,1.511-1.004,2.234-1.546c1.439-1.078,2.863-2.197,4.182-3.42c0.543-0.504,1.704-1.322,1.422-2.195
			C333.475,312.668,332.223,313.572,331.758,314.001z"/>
		<path d="M343.767,303.898c-0.137,0.112-0.287,0.219-0.408,0.348c-0.122,0.13-0.228,0.277-0.341,0.415
			c-0.213,0.259-0.427,0.518-0.64,0.778c-0.464,0.564-0.861,1.189-1.279,1.787c-0.193,0.276-0.059,0.725,0.23,0.878
			c0.326,0.172,0.675,0.066,0.878-0.23c0.395-0.576,0.823-1.142,1.171-1.747l0.507-0.881c0.09-0.156,0.19-0.31,0.267-0.472
			c0.081-0.171,0.132-0.36,0.193-0.539c0.049-0.143-0.032-0.316-0.158-0.389C344.044,303.761,343.887,303.799,343.767,303.898z"/>
		<path d="M246.737,314.528c0.589,0.17,1.254-0.174,1.796-0.379c0.679-0.257,1.296-0.595,1.915-0.974
			c1.199-0.735,2.327-1.609,3.431-2.477c1.089-0.856,2.136-1.761,3.139-2.716c0.485-0.461,0.999-0.92,1.424-1.438
			c0.44-0.536,0.9-1.378,0.715-2.085c-0.08-0.305-0.34-0.44-0.627-0.477c-0.627-0.081-1.375,0.43-1.824,0.827
			c-0.501,0.444-0.94,0.974-1.415,1.447c-0.954,0.951-1.947,1.866-2.972,2.741c-0.991,0.846-2.035,1.612-3.065,2.409
			c-0.538,0.416-1.082,0.811-1.574,1.281c-0.421,0.402-1.044,0.825-1.186,1.417C246.452,314.287,246.553,314.475,246.737,314.528z"
			/>
		<path d="M263.286,299.445c0.702,0,0.703-1.091,0-1.091C262.584,298.354,262.583,299.445,263.286,299.445z"/>
		<path d="M256.613,313.718c-0.163,0.197-0.209,0.462-0.04,0.674c0.146,0.183,0.453,0.285,0.662,0.132
			c0.891-0.651,1.819-1.26,2.663-1.972c0.419-0.353,0.895-0.694,1.231-1.129c0.331-0.429,0.858-0.953,0.808-1.536
			c-0.017-0.199-0.143-0.455-0.371-0.487c-0.341-0.048-0.609,0.017-0.909,0.189c-0.225,0.128-0.441,0.275-0.655,0.421
			c-0.493,0.336-0.892,0.791-1.301,1.221C257.954,312.013,257.303,312.884,256.613,313.718z"/>
		<path d="M378.397,210.356c0.292,1.632,0.398,3.297,0.348,4.954c-0.046,1.536-0.68,3.451,0.155,4.837
			c0.187,0.31,0.688,0.51,1.01,0.265c1.423-1.089,1.343-3.13,1.366-4.781c0.025-1.873-0.163-3.754-0.525-5.592
			c-0.713-3.628-2.457-6.941-4.677-9.872c-0.465-0.615-1.494-0.073-1.066,0.623C376.803,203.713,377.796,206.995,378.397,210.356z"
			/>
		<path d="M316.147,175.128c-0.381,0.168-0.759,0.343-1.137,0.517c-0.433,0.199-0.792,0.456-1.161,0.756
			c-0.648,0.527-1.22,1.13-1.743,1.78c-0.55,0.684-1.049,1.393-1.465,2.166c-0.452,0.841-0.958,1.75-0.906,2.725
			c0.044,0.812,1.111,1.413,1.725,0.715c0.158-0.18,0.346-0.359,0.467-0.566c0.064-0.109,0.109-0.242,0.158-0.357
			c-0.001,0.002,0.056-0.135,0.084-0.202c0.153-0.359,0.324-0.712,0.507-1.056c0.371-0.697,0.794-1.375,1.258-2.013
			c0.047-0.064,0.094-0.127,0.141-0.191c-0.105,0.139,0.115-0.145,0.112-0.142c0.125-0.154,0.252-0.307,0.383-0.456
			c0.248-0.283,0.499-0.566,0.758-0.839c0.566-0.598,0.993-1.209,1.625-1.792c0.241-0.223,0.25-0.625,0.052-0.874
			C316.785,175.021,316.46,174.99,316.147,175.128z"/>
		<path d="M315.423,181.43c-0.332,0.461-0.833,0.956-0.803,1.563c0.017,0.349,0.297,0.517,0.619,0.472
			c0.579-0.081,0.979-0.671,1.359-1.066c0.42-0.438,0.772-0.936,1.138-1.419c0.68-0.898,1.36-1.797,2.04-2.695
			c0.171-0.227,0.058-0.59-0.149-0.745c-0.221-0.165-0.56-0.171-0.758,0.045c-0.764,0.833-1.529,1.667-2.293,2.5
			C316.176,180.52,315.77,180.949,315.423,181.43z"/>
		<path d="M370.141,198.231c-0.105-0.312-0.255-0.688-0.419-0.98c-0.082-0.145-0.22-0.253-0.304-0.389
			c-0.061-0.1-0.116-0.248-0.176-0.359c-0.35-0.651-1.464-0.372-1.42,0.385c0.007,0.122,0.03,0.268,0.027,0.383
			c-0.004,0.153-0.067,0.336-0.07,0.506c-0.003,0.237,0.017,0.483,0.038,0.721c0.007,0.011,0.087,0.68,0.055,0.434
			c0.019,0.15,0.037,0.301,0.054,0.452c0.031,0.281,0.05,0.562,0.08,0.843c0.06,0.566,0.128,1.129,0.165,1.697
			c0.037,0.567,0.019,1.141,0.068,1.706c0.051,0.59,0.39,1.185,1.012,1.329c0.26,0.06,0.473,0.073,0.733,0
			c0.598-0.167,0.994-0.719,1.012-1.329c0.018-0.607-0.073-1.235-0.144-1.837c-0.075-0.637-0.149-1.285-0.278-1.913
			C370.461,199.328,370.319,198.764,370.141,198.231z"/>
		<path d="M361.693,194.326c0.069,0.948,0.051,1.921-0.087,2.855c-0.071,0.479-0.181,0.951-0.277,1.425
			c-0.111,0.545-0.263,1.204,0.001,1.723c0.162,0.318,0.609,0.408,0.903,0.237c0.515-0.301,0.73-1.039,0.834-1.592
			c0.101-0.534,0.141-1.084,0.158-1.628c0.034-1.069-0.069-2.141-0.272-3.19C362.817,193.452,361.641,193.604,361.693,194.326z"/>
		<path d="M276.381,149.914c0.122-0.472-0.507-0.899-0.858-0.499c-0.075,0.085-0.149,0.17-0.224,0.255
			c-0.097,0.111-0.138,0.127-0.244,0.234c-0.138,0.14-0.247,0.312-0.378,0.459c-0.315,0.352-0.563,0.752-0.826,1.143
			c-0.238,0.355-0.453,0.725-0.676,1.089c-0.107,0.176-0.221,0.349-0.323,0.528c-0.223,0.393-0.297,0.767-0.181,1.212
			c0.126,0.48,0.704,0.854,1.195,0.679c0.414-0.148,0.713-0.366,0.912-0.765c0.092-0.185,0.171-0.378,0.257-0.566
			c0.201-0.443,0.408-0.883,0.592-1.333c0.158-0.387,0.337-0.772,0.439-1.178c0.049-0.195,0.126-0.385,0.169-0.58
			C276.282,150.381,276.319,150.156,276.381,149.914z"/>
		<path d="M279.776,151.842c-0.634,0.606-1.269,1.212-1.903,1.818c-0.345,0.33-0.653,0.663-0.943,1.044
			c-0.267,0.351-0.539,0.69-0.729,1.089c-0.229,0.48,0.232,0.943,0.713,0.713c0.388-0.185,0.719-0.448,1.06-0.708
			c0.391-0.298,0.734-0.611,1.072-0.965c0.606-0.634,1.212-1.269,1.818-1.903c0.278-0.291,0.311-0.803,0-1.089
			C280.552,151.554,280.087,151.544,279.776,151.842z"/>
		<path d="M341.658,361.694c0.004-0.002,0.007-0.002,0.011-0.004c0.005-0.002,0.009-0.006,0.014-0.009
			C341.604,361.696,341.582,361.728,341.658,361.694z"/>
		<path d="M119.379,409.756c-0.016,0.021-0.039,0.042-0.061,0.062c0.012-0.001,0.041-0.025,0.073-0.07
			C119.387,409.75,119.383,409.753,119.379,409.756z"/>
		<path d="M459.205,323.866c-8.062,1.209-16.07,2.482-23.97,4.536c-3.862,1.004-7.687,2.151-11.463,3.439
			c-1.702,0.581-3.466,1.156-5.204,1.801c-0.14-0.019-0.287-0.022-0.446,0.006c-6.484,1.155-12.911,2.763-19.355,4.129
			c-6.534,1.386-13.076,2.734-19.619,4.075c-13.006,2.665-26.066,5.064-39.131,7.419c-7.309,1.317-14.679,2.388-21.863,4.295
			c-0.11,0.029-0.191,0.089-0.259,0.159c-2.89-2.813-5.623-5.784-8.173-8.911c-1.724-2.114-3.366-4.292-4.919-6.535
			c-0.742-1.072-1.452-2.164-2.181-3.244c-0.064-0.095-0.127-0.196-0.191-0.294c2.912,0.357,5.881,0.379,8.712,0.219
			c5.729-0.324,11.362-1.56,16.743-3.541c10.232-3.769,19.446-9.917,27.638-17.048c16.123-14.035,27.694-32.993,32.897-53.72
			c1.553-6.187,2.555-12.522,3.005-18.885c0.231-3.269,0.321-6.55,0.261-9.826c-0.052-2.829-0.098-5.722-0.597-8.518
			c0.003-0.96-0.033-1.92-0.094-2.878c-0.143-2.25-0.405-4.494-0.779-6.719c0.26-0.072,0.501-0.226,0.666-0.496
			c1.864-3.044,2.463-6.933,2.796-10.587c1.097-0.841,2.015-2.046,2.664-3.092c1.243-2.002,2.034-4.366,2.455-6.675
			c0.354-1.943,0.441-3.92,0.352-5.89c1.03-1.06,1.309-3.184,1.551-4.478c0.388-2.078,0.685-4.199,0.794-6.311
			c0.193-3.715-0.08-7.426-0.867-11.052c3.869-1.276,7.631-2.979,11.403-4.498c3.673-1.479,7.414-2.847,10.896-4.74
			c1.523-0.358,3.042-0.735,4.551-1.149c3.664-1.005,7.95-2.242,9.741-5.947c0.397-0.821,0.116-1.988-0.898-2.208
			c-6.502-1.414-13.002-2.836-19.513-4.207c-3.173-0.668-6.346-1.336-9.521-1.997c-2.236-0.465-4.45-0.798-6.685-1.083
			c0.04-0.161,0.056-0.334,0.009-0.53c-0.712-2.964-2.345-5.813-3.834-8.454c-1.47-2.608-3.088-5.132-4.844-7.556
			c-3.507-4.842-7.515-9.317-11.99-13.283c-9.641-8.543-21.348-14.662-33.878-17.669c-3.619-0.868-7.3-1.497-11.009-1.815
			c-3.651-0.312-7.36-0.444-10.958,0.36c-0.123,0.028-0.226,0.086-0.316,0.159c-1.289,0.129-2.585,0.39-3.834,0.7
			c-2.894,0.718-5.728,1.902-8.235,3.532c-0.223,0.145-0.365,0.326-0.47,0.519c-1.277,0.211-2.55,0.443-3.809,0.723
			c-3.609,0.804-7.164,1.888-10.563,3.352c-3.205,1.379-7.227,3.178-9.133,6.228c-0.215,0.345-0.126,0.733,0.107,0.998
			c-0.3,0.245-0.599,0.493-0.888,0.751c-2.883,2.584-5.096,5.819-6.594,9.379c-1.133,2.692-2.24,6.127-1.766,9.165
			c-0.714,1.038-1.399,2.096-2.035,3.183c-1.404,2.401-3.469,5.844-2.937,8.735c0.048,0.263,0.187,0.437,0.365,0.551
			c-0.896,1.364-1.714,2.781-2.444,4.24c-0.289,0.577-0.648,1.241-0.993,1.947c-9.826,6.268-18.587,14.163-27.283,21.875
			c-9.731,8.631-19.452,17.274-29.178,25.912c-9.389,8.339-18.819,16.637-27.939,25.273c-4.466,4.228-8.85,8.544-13.099,12.99
			c-3.434,3.594-8.721,8.065-7.267,13.672c0.132,0.507,0.336,0.965,0.574,1.395c-1.334,0.544-2.607,1.417-3.789,2.147
			c-1.588,0.981-3.128,2.029-4.627,3.142c-3.05,2.265-5.928,4.732-8.616,7.417c-5.316,5.308-9.976,11.376-13.626,17.948
			c-1.003,1.806-1.964,3.646-2.779,5.545c-0.515,1.2-1.056,2.453-1.42,3.74c-1.208,1.9-2.233,3.907-3.08,5.991
			c-3.101,1.654-6.034,3.667-9.043,5.475c-3.281,1.971-6.597,3.876-9.965,5.694c-6.824,3.682-13.801,7.07-20.786,10.431
			c-13.968,6.721-28.091,13.276-41.025,21.892c-3.57,2.378-7.037,4.911-10.37,7.611c-2.591,2.099-5.116,4.251-6.453,7.196
			c-0.729,1.089-1.226,2.377-1.496,3.642c-0.339,1.591-0.314,3.209-0.019,4.804c0.292,1.579,0.891,3.616,2.213,4.611
			c0.142,0.107,0.286,0.174,0.429,0.213c-0.092,0.38-0.17,0.761-0.208,1.14c-0.095,0.946,0.099,1.943,0.274,2.871
			c0.078,0.414,0.345,0.6,0.65,0.635c0.19,1.676,0.721,3.303,1.68,4.703c1.738,2.537,4.898,4.602,8.067,4.643
			c-0.22,0.882-0.389,1.783-0.503,2.704c-0.132,1.068,1.078,1.638,1.936,1.475c15.622-2.97,30.398-8.951,44.124-16.92
			c14.216-8.253,27.184-18.471,39.533-29.274c4.307-3.767,8.542-7.615,12.751-11.49c7.756-0.656,15.453-2.995,22.78-5.466
			c2.842-0.959,5.655-2.006,8.441-3.124c0.023,0.188,0.114,0.368,0.314,0.483c0.936,0.537,1.755,1.137,2.741,1.608
			c0.985,0.47,2,0.893,3.009,1.308c2.044,0.84,4.163,1.534,6.275,2.18c4.163,1.272,8.4,2.263,12.694,2.975
			c8.347,1.383,16.845,1.791,25.283,1.153c0.08,0.091,0.178,0.174,0.312,0.23c0.751,0.316,1.506,0.622,2.266,0.918
			c0.542,1.464,1.351,2.833,2.061,4.222c0.863,1.69,1.696,3.395,2.481,5.122c1.625,3.574,3.075,7.237,4.327,10.958
			c1.209,3.594,2.224,7.25,3.042,10.953c0.426,1.926,0.799,3.863,1.119,5.81c0.296,1.806,0.46,3.657,0.978,5.412
			c-0.571,1.136-1.071,2.321-1.536,3.522c-0.145-0.008-0.299,0.005-0.466,0.057c-11.913,3.725-23.781,7.587-35.682,11.347
			c-5.91,1.867-11.818,3.737-17.73,5.598c-5.741,1.807-11.51,4.023-17.415,5.225c-1.695,0.345-3.408,0.525-5.139,0.481
			c-1.441-0.037-2.911-0.215-4.32,0.194c-1.866,0.541-3.234,2.179-3.191,3.993c-5.306,1.36-10.615,2.707-15.922,4.064
			c-2.792,0.714-5.584,1.424-8.365,2.184c-2.228,0.609-4.495,1.179-6.647,2.03c-0.14-0.033-0.281-0.069-0.422-0.092
			c-0.306-0.051-0.614-0.03-0.922-0.006c-0.548,0.043-1.092,0.117-1.606,0.318c-0.999,0.391-1.914,1.073-2.377,2.069
			c-0.51,1.097-0.468,2.355,0.287,3.332c0.613,0.793,1.54,1.361,2.535,1.522c0.778,0.126,1.535,0.102,2.31-0.049
			c0.348-0.068,0.729-0.174,1.042-0.338c0.024-0.013,0.042-0.033,0.065-0.048c1.37,0.054,2.755,0.186,4.12,0.413
			c-7.642,2.629-15.254,5.343-22.928,7.88c-4.208,1.391-8.471,2.676-12.614,4.254c-3.679,1.401-7.177,3.187-10.1,5.863
			c-0.896,0.821-0.178,2.33,0.969,2.341c14.772,0.133,29.558-2.034,43.64-6.495c-0.409,0.951-0.599,1.996-0.482,3.084
			c0.082,0.764,0.54,1.238,1.316,1.316c0.462,0.046,0.925,0.093,1.387,0.139c-0.735,1.513-1.133,3.159-1.203,4.878
			c-0.031,0.766,0.655,1.339,1.372,1.372c5.524,0.256,11.007-0.721,16.334-2.11c5.508-1.437,10.95-3.143,16.411-4.748
			c10.999-3.234,21.994-6.479,32.988-9.731c3.089-0.914,6.177-1.83,9.266-2.747c4.997,2.527,11.575-0.099,16.552-1.492
			c7.305-2.045,14.615-4.074,21.93-6.084c14.713-4.043,29.461-7.948,44.153-12.066c4.022-1.127,8.038-2.273,12.055-3.418
			c3.343-0.953,6.865-1.718,10.164-2.914c0.144,0.162,0.35,0.265,0.626,0.236c5.17-0.551,10.272-1.527,15.385-2.447
			c5.301-0.954,10.603-1.909,15.904-2.863c10.518-1.893,21.038-3.776,31.549-5.703c2.943-0.54,5.885-1.079,8.828-1.619
			c1.513-0.278,3.027-0.555,4.54-0.833c1.506-0.276,3.06-0.451,4.489-1.018c0.351-0.139,0.573-0.404,0.695-0.702
			c3.563-0.79,7.083-1.847,10.586-2.822c4.681-1.302,9.358-2.613,14.024-3.968c9.414-2.734,18.822-5.484,28.229-8.242
			c1.827-0.536,1.039-3.1-0.772-2.799c-1.69,0.28-3.382,0.548-5.074,0.815c-0.548-0.025-1.109,0.006-1.703,0.019
			c-1.377,0.029-2.754,0.051-4.131,0.066c-2.835,0.03-5.671,0.027-8.506-0.007c-1.377-0.017-2.754-0.03-4.131-0.055
			c-0.988-0.018-2.233,0.103-3.135-0.378c-0.957-0.511-0.788-1.59-0.308-2.401c8.113-3.263,16.267-6.422,24.375-9.699
			c1.278-0.516,1.059-2.202-0.319-2.361c-2.276-0.262-4.552-0.513-6.829-0.765c-1.138-0.126-2.277-0.248-3.414-0.38
			c-0.888-0.104-1.97-0.131-2.791-0.544c-2.381-1.197,0.399-3.507,1.692-4.162c2.03-1.029,4.169-1.873,6.249-2.795
			c8.703-3.857,17.49-7.62,26.053-11.779C461.815,325.661,460.633,323.651,459.205,323.866z M319.148,358.371
			c0.751,0.699,1.744,0.242,2.077-0.464c0.948,0.069,1.969-0.287,2.871-0.504c1.229-0.296,2.445-0.607,3.69-0.832
			c0.859-0.156,1.723-0.281,2.589-0.393c-0.154,0.233-0.291,0.477-0.392,0.734c-0.173,0.442-0.248,0.944-0.194,1.416
			c0.007,0.066,0.024,0.12,0.034,0.181c-2.112-0.332-4.249-0.471-6.259-0.47c-1.816,0.001-1.82,2.828,0,2.823
			c0.733-0.002,1.463,0.026,2.19,0.069c-0.125,0.147-0.248,0.296-0.357,0.456c-0.254,0.371-0.45,0.787-0.591,1.214
			c-0.08,0.24-0.138,0.477-0.111,0.732c0.002,0.022,0.009,0.044,0.012,0.066c-1.259-0.135-2.52-0.219-3.785-0.246
			c0.022-0.073,0.044-0.147,0.069-0.22c0.021-0.06,0.045-0.12,0.068-0.18c0.002-0.004,0.001-0.004,0.003-0.007
			c0.008-0.019,0.016-0.037,0.024-0.055c0.102-0.226,0.221-0.444,0.355-0.652c0.065-0.101,0.133-0.202,0.202-0.3
			c0.028-0.04,0.058-0.079,0.087-0.119c0.018-0.022,0.035-0.043,0.053-0.065c0.082-0.098,0.167-0.193,0.256-0.284
			c0.119-0.123,0.252-0.23,0.341-0.38c0.146-0.246,0.111-0.612-0.105-0.811c-0.232-0.213-0.532-0.239-0.811-0.105
			c-0.147,0.071-0.274,0.216-0.387,0.335c-0.093,0.098-0.181,0.199-0.266,0.304c-0.192,0.238-0.377,0.483-0.525,0.751
			c-0.274,0.494-0.48,1.032-0.596,1.585c-0.014,0.065-0.012,0.133-0.007,0.199c-0.309,0.002-0.618-0.002-0.928,0.007
			c-0.518,0.015-4.174,0.074-4.173,1.16c-0.187,0.048-0.372,0.155-0.538,0.345c-0.961,1.103-1.957,2.258-2.799,3.501
			c-0.21-0.155-0.465-0.258-0.717-0.309c-0.294-0.059-0.599-0.09-0.898-0.068c-0.255,0.019-0.505,0.061-0.748,0.125
			c0.415-0.675,0.858-1.333,1.323-1.966c0.829-1.128,1.928-2.239,2.729-3.455c0.19-0.161,0.326-0.378,0.382-0.636
			c0.104-0.192,0.202-0.386,0.285-0.584c0.274-0.648-0.214-1.4-0.884-1.253c-1.121-2.273-2.565-4.456-3.957-6.538
			c-0.348-0.519-0.724-1.02-1.083-1.531c0.244-0.046,0.491-0.075,0.733-0.142c0.441-0.121,0.863-0.325,1.26-0.55
			c0.548-0.311,1.043-0.712,1.502-1.15C313.685,352.996,316.342,355.76,319.148,358.371z M331.322,358.222
			c0.013-0.091,0.026-0.182,0.037-0.273c-0.026,0.2,0.012-0.045,0.025-0.099c0.023-0.102,0.052-0.203,0.087-0.302
			c0.003-0.01,0.008-0.025,0.012-0.04c0.017-0.038,0.036-0.076,0.055-0.113c0.039-0.074,0.081-0.147,0.126-0.218
			c0.022-0.034,0.046-0.067,0.069-0.1c0.062-0.064,0.119-0.134,0.183-0.197c0.029-0.028,0.058-0.055,0.088-0.082
			c0.013-0.012,0.027-0.023,0.04-0.035c0.06-0.023,0.16-0.113,0.2-0.137c0.077-0.047,0.157-0.09,0.238-0.13
			c0.167-0.083,0.337-0.172,0.501-0.262c0.17-0.095,0.346-0.189,0.471-0.342c0.005-0.006,0.006-0.013,0.01-0.019
			c0.638-0.039,1.277-0.065,1.917-0.075c0.724-0.012,1.449-0.002,2.174,0.021c-0.738,0.58-1.288,1.379-1.621,2.261
			c-0.203,0.539-0.299,1.124-0.283,1.7c0.003,0.105,0.017,0.209,0.026,0.314c-1.395-0.58-2.879-1.011-4.398-1.324
			c0.017-0.073,0.039-0.144,0.04-0.224c0.001-0.105-0.002-0.209,0.005-0.314C331.329,358.185,331.348,358.039,331.322,358.222z
			 M339.539,355.94c0.853,0.1,1.713,0.325,2.268,1.017c0.291,0.363,0.469,0.804,0.585,1.265c-0.163,0.119-0.25,0.351-0.193,0.538
			c0.041,0.135,0.085,0.257,0.164,0.375c0.034,0.051,0.066,0.101,0.095,0.154c0.009,0.016,0.017,0.034,0.026,0.051
			c0.026,0.102,0.064,0.202,0.092,0.303c0.005,0.017,0.008,0.034,0.011,0.051c0.007,0.19,0.01,0.376,0.013,0.554
			c-0.005,0.038-0.011,0.074-0.014,0.111c-0.001,0.005-0.001,0.001-0.002,0.007c-0.027,0.12-0.053,0.24-0.091,0.357
			c-0.006,0.019-0.028,0.076-0.043,0.115c-0.012,0.026-0.024,0.05-0.03,0.061c-0.057,0.11-0.117,0.219-0.185,0.323
			c-0.012,0.018-0.024,0.037-0.037,0.055c-0.025,0.031-0.051,0.062-0.078,0.09c-0.045,0.048-0.091,0.094-0.139,0.137
			c-0.1,0.052-0.198,0.123-0.298,0.177c0.016-0.003,0.016-0.01,0.037-0.01c-0.014,0-0.032,0.01-0.051,0.018
			c-0.002,0.001-0.003,0.002-0.005,0.003c-0.006,0.003-0.001-0.001-0.006,0.001c-0.015,0.007-0.031,0.012-0.043,0.016
			c-0.07,0.024-0.141,0.044-0.213,0.061c-0.037,0.008-0.074,0.015-0.111,0.022c-0.057,0.005-0.115,0.011-0.171,0.013
			c-0.16,0.007-0.321,0.009-0.481-0.001c-0.018-0.001-0.057-0.005-0.097-0.009c-0.04-0.008-0.152-0.026-0.184-0.033
			c-0.199-0.043-0.395-0.099-0.586-0.168c-0.022-0.008-0.089-0.034-0.14-0.053c-0.057-0.028-0.115-0.055-0.172-0.083
			c-0.172-0.087-0.341-0.183-0.504-0.285c-0.076-0.048-0.151-0.097-0.225-0.149c-0.042-0.029-0.082-0.061-0.125-0.089
			c-0.04-0.027-0.027-0.015-0.002,0.005c-0.258-0.199-0.508-0.324-0.841-0.339c-0.18-0.008-0.352,0.037-0.509,0.112
			c0-0.001,0-0.003-0.001-0.004c0.003-0.007,0.006-0.014,0.01-0.047c0.008-0.054,0.005-0.113,0.007-0.168
			c0.006-0.238-0.024-0.475-0.012-0.715c0.002-0.046,0.006-0.091,0.01-0.137c0.003-0.032,0.041-0.251,0.004-0.055
			c0.021-0.112,0.041-0.224,0.065-0.336c0.052-0.237,0.119-0.466,0.202-0.694c0.007-0.019,0.029-0.065,0.039-0.085
			c-0.005,0.01-0.013,0.027-0.031,0.063c0.026-0.051,0.048-0.104,0.073-0.156c0.051-0.103,0.106-0.204,0.165-0.303
			c0.065-0.109,0.137-0.212,0.208-0.316c0.008-0.011,0.006-0.009,0.01-0.016c0.003-0.002,0,0.001,0.004-0.003
			c0.039-0.04,0.073-0.089,0.111-0.131c0.142-0.16,0.298-0.302,0.462-0.439c0.029-0.022,0.069-0.053,0.08-0.061
			c0.047-0.032,0.095-0.063,0.143-0.093c0.107-0.066,0.218-0.126,0.331-0.181C339.449,356.684,339.598,356.285,339.539,355.94z
			 M338.842,368.396c-0.289,0.72-0.927,1.676-1.73,1.892c-1.11,0.299-1.293-1.017-1.684-1.79c-0.409-0.808-0.958-1.473-1.591-2.039
			c0.114-0.161,0.224-0.328,0.336-0.489c0.13-0.186,0.237-0.388,0.368-0.574c0.025-0.035,0.051-0.07,0.077-0.105
			c0.004-0.006,0.036-0.048,0.063-0.081c0.072-0.088,0.146-0.174,0.223-0.258c0.154-0.168,0.316-0.327,0.488-0.478
			c0.072-0.063,0.146-0.124,0.221-0.183c0.025-0.019,0.06-0.046,0.076-0.057c0.05-0.036,0.101-0.072,0.152-0.106
			c0.188-0.127,0.383-0.247,0.58-0.358c0.139-0.078,0.277-0.146,0.411-0.22c0.153,0.082,0.32,0.147,0.467,0.236
			C338.932,364.781,339.561,366.603,338.842,368.396z M334.982,362.736c-0.447,0.329-0.863,0.691-1.221,1.116
			c-0.371,0.44-0.747,0.934-0.96,1.474c-0.037,0.094-0.063,0.19-0.09,0.286c-1.934-1.209-4.37-1.738-6.573-2.045
			c-0.093-0.013-0.185-0.021-0.278-0.033c0.091-0.18,0.148-0.367,0.218-0.557c0.015-0.041,0.032-0.082,0.047-0.123
			c-0.055,0.153,0.005-0.008,0.016-0.033c0.037-0.079,0.076-0.157,0.117-0.234c0.092-0.17,0.197-0.33,0.309-0.488
			c0.005-0.007,0.003-0.005,0.006-0.009c0.027-0.033,0.053-0.066,0.081-0.099c0.062-0.073,0.127-0.144,0.194-0.213
			c0.128-0.132,0.269-0.25,0.404-0.373c0.039-0.035,0.078-0.07,0.117-0.103c0.007-0.006,0.037-0.032,0.058-0.049
			c0.004-0.003,0.003-0.003,0.009-0.007c0.046-0.035,0.091-0.07,0.137-0.106c0.018-0.015,0.031-0.033,0.046-0.048
			c1.091,0.125,2.177,0.296,3.258,0.533C332.205,361.915,333.632,362.256,334.982,362.736z M309.288,368.969
			c0.078-0.004,0.206-0.018,0.296,0.003c0.007,0.001,0.003,0,0.015,0.002c0.028,0.005,0.056,0.01,0.084,0.015
			c0.056,0.011,0.111,0.024,0.167,0.039c0.055,0.015,0.11,0.031,0.165,0.049c0.018,0.006,0.108,0.048,0.142,0.054
			c0.059,0.026,0.119,0.052,0.179,0.076c-0.193-0.083-0.006,0,0.033,0.019c0.051,0.026,0.1,0.056,0.151,0.082
			c0.004,0.002,0.007,0.002,0.01,0.004c-0.58,1.038-1.022,2.141-1.221,3.331c-0.046,0.272-0.073,0.549-0.097,0.826
			c-0.008-0.001-0.017-0.003-0.025-0.004c-0.151-0.018-0.302-0.024-0.453-0.017c-0.345,0.018-0.684,0.086-1.005,0.216
			c-0.361,0.146-0.673,0.328-0.974,0.575c-0.061,0.05-0.097,0.114-0.148,0.169c0.103-1.238,0.391-2.465,0.814-3.593
			c0.202-0.538,0.447-1.058,0.709-1.571c0.119,0.026,0.246,0.013,0.366-0.051c0.051-0.027,0.103-0.052,0.154-0.077c0,0,0,0,0,0
			c0.024-0.009,0.048-0.018,0.073-0.027c0.108-0.038,0.219-0.068,0.331-0.091c0.032-0.006,0.216-0.055,0.063-0.014
			C309.17,368.97,309.233,368.972,309.288,368.969z M306.971,375.621c0.028-0.025,0.185-0.152,0.079-0.073
			c0.048-0.035,0.096-0.07,0.146-0.102c0.087-0.056,0.168-0.118,0.248-0.184c-0.003,0.001-0.001,0.001-0.004,0.002
			c0.023-0.008,0.047-0.034,0.067-0.048c0.114-0.078,0.233-0.147,0.358-0.207c0.024-0.012,0.053-0.021,0.075-0.035
			c-0.005,0.003-0.006,0.004-0.011,0.007c0.061-0.023,0.123-0.045,0.186-0.064c0.119-0.035,0.24-0.051,0.36-0.08
			c0.024-0.002,0.047-0.005,0.071-0.007c0.069-0.006,0.137-0.01,0.206-0.011c0.062-0.001,0.124,0.001,0.186,0.004
			c0.028,0.002,0.056,0.005,0.084,0.007c0.059,0.011,0.117,0.024,0.176,0.037c0.043,0.624,0.148,1.243,0.347,1.836
			c0.475,1.414,1.314,2.306,2.386,3.288c0.44,0.403,0.64,0.692,0.359,1.265c-0.258,0.526-0.739,0.854-1.321,0.874
			c-1.556,0.055-2.789-1.442-3.452-2.679c-0.616-1.149-0.892-2.422-0.94-3.717C306.718,375.749,306.858,375.725,306.971,375.621z
			 M271.057,368.997c-0.002-0.022-0.004-0.043-0.005-0.053c-0.018-0.194-0.022-0.391-0.014-0.586
			c0.004-0.097,0.024-0.195,0.024-0.291c0,0.021,0,0.025-0.001,0.04c0.001-0.013,0.002-0.026,0.003-0.037
			c0.007-0.039,0.014-0.077,0.022-0.116c0.042-0.201,0.099-0.399,0.171-0.592c0.017-0.044,0.041-0.091,0.053-0.136
			c-0.023,0.088-0.054,0.123-0.002,0.015c0.037-0.079,0.078-0.155,0.12-0.231c1.466,0.366,2.869,0.893,4.12,1.693
			c1.494,0.955,2.777,2.405,3.257,4.138c0.168,0.607,0.43,1.82-0.093,2.349c-0.721,0.728-1.831-0.372-2.331-0.896
			c-1.737-1.816-3.571-3.248-5.7-4.237c0.09-0.063,0.172-0.139,0.226-0.239c0.068-0.127,0.114-0.257,0.141-0.397
			c0.038-0.122,0.044-0.243,0.016-0.365C271.06,369.021,271.059,369.017,271.057,368.997z M271.896,364.407
			c-1.607-0.367-3.261-0.574-4.86-0.727c-2.924-0.279-5.876-0.397-8.811-0.258c-2.654,0.126-5.444,0.274-8.026,0.994
			c-0.597-1.259-1.484-2.469-2.144-3.649c-0.884-1.58-1.744-3.174-2.581-4.78c-1.636-3.142-3.148-6.348-4.574-9.589
			c-1.454-3.305-2.8-6.658-4.048-10.046c-0.599-1.628-1.154-3.272-1.745-4.904c-0.194-0.534-0.383-1.277-0.633-1.997
			c2.092,0.631,4.193,1.231,6.292,1.811c6.374,1.763,12.866,3.195,19.418,4.112c9.391,1.314,19.017,1.519,28.357-0.156
			c0.059,0.053,0.127,0.1,0.187,0.148c0.193,0.156,0.388,0.294,0.6,0.421c0.357,0.214,0.723,0.398,1.089,0.596
			c0.073,0.039,0.142,0.086,0.214,0.126c1.703,1.843,3.722,3.44,5.5,5.197c1.999,1.975,3.892,4.054,5.682,6.22
			c1.821,2.203,3.528,4.493,5.11,6.874c0.264,0.397,0.509,0.803,0.759,1.208c-0.622,0.053-1.242,0.206-1.869,0.323
			c-1.158,0.215-2.314,0.443-3.47,0.667c-2.23,0.432-4.459,0.866-6.69,1.292c-3.149,0.602-9.799,2.694-11.15-1.79
			c-0.363-1.204-2.17-0.978-2.194,0.297c-0.028,1.441-0.057,2.881-0.055,4.321c-3.352,0.957-6.709,1.922-10.011,3.033
			C272.08,364.207,271.975,364.301,271.896,364.407z M269.333,369.509c-0.743-0.263-1.515-0.487-2.339-0.647
			c-1.895-0.368-3.786-0.454-5.673-0.381c0.022-0.08,0.062-0.151,0.064-0.24c0.002-0.1,0.001-0.199,0.008-0.299
			c0.003-0.037,0.007-0.074,0.01-0.112c0.017-0.093,0.034-0.186,0.057-0.279c0.024-0.097,0.051-0.193,0.082-0.288
			c0.012-0.035,0.061-0.245,0.094-0.256c-0.045,0.105-0.055,0.129-0.03,0.072c0.011-0.025,0.022-0.05,0.034-0.075
			c0.019-0.041,0.04-0.082,0.06-0.123c0.046-0.089,0.095-0.177,0.147-0.262c0.047-0.078,0.097-0.154,0.15-0.228
			c0.004-0.006,0.008-0.013,0.012-0.02c0.019-0.036,0.056-0.07,0.081-0.099c0.052-0.061,0.109-0.116,0.165-0.172
			c0.371,0.011,0.743,0.008,1.114,0.024c2.034,0.088,4.229,0.177,6.355,0.53c-0.021,0.044-0.049,0.084-0.069,0.129
			c-0.213,0.496-0.343,0.98-0.406,1.517C269.207,368.669,269.199,369.129,269.333,369.509z M259.702,368.58
			c-2.489,0.208-4.972,0.639-7.45,1.03c-0.205,0.032-0.374,0.102-0.518,0.192c-0.812-0.113-1.701,0.52-1.383,1.474
			c0.309,0.926,0.82,1.814,1.389,2.675c-0.657,0.239-1.272,0.615-1.766,1.079c-0.376,0.353-0.702,0.766-0.915,1.237
			c-0.225-0.273-0.439-0.556-0.669-0.824c-1.258-1.464-2.563-2.888-4.229-3.877c0.152-0.978-1.112-1.642-1.839-0.92
			c-0.413,0.41-0.777,0.893-1.114,1.409c-0.4-0.106-0.822-0.163-1.234-0.147c-0.273,0.01-0.531,0.052-0.784,0.117
			c0.354-0.96,0.68-1.928,0.949-2.904c0.104-0.144,0.185-0.314,0.202-0.527c0.008-0.093,0-0.186,0.005-0.28
			c0.119-0.496,0.225-0.994,0.304-1.495c0.053-0.335-0.13-0.605-0.375-0.714c-0.05-0.474-0.113-0.947-0.189-1.42
			c0.417,0.147,0.862,0.269,1.294,0.25c0.532-0.024,1.071-0.107,1.584-0.25c1.05-0.292,2.016-0.852,2.817-1.589
			c0.105-0.097,0.199-0.204,0.296-0.308c0.653,1.372,1.315,2.859,2.288,3.938c0.621,0.688,1.633,0.389,2.072-0.272
			c2.025-0.024,4.048-0.262,6.072-0.341c1.26-0.049,2.524-0.065,3.788-0.058c-0.398,0.669-0.627,1.434-0.66,2.212
			C259.634,368.377,259.662,368.481,259.702,368.58z M255.804,385.718c0.065-0.027,0.133-0.05,0.196-0.082
			c0.109-0.056,0.201-0.143,0.295-0.221c0.012-0.009,0.149-0.13,0.047-0.04c-0.095,0.084,0.026-0.019,0.049-0.035
			c0.266-0.195,0.551-0.37,0.844-0.521c0.066-0.034,0.132-0.066,0.199-0.098c0.021-0.01,0.042-0.019,0.063-0.028
			c0.15-0.044,0.299-0.108,0.447-0.158c0.227-0.076,0.506-0.256,0.699-0.484c1.934,2.659,4.102,5.643,3.675,8.905
			c-0.114,0.873-0.429,1.816-1.069,2.448c-0.695,0.685-1.494,0.818-1.916-0.161c-0.744-1.728-1.225-3.582-1.96-5.323
			c-0.562-1.331-1.189-2.632-1.852-3.913c0.071-0.073,0.137-0.15,0.209-0.221c0.011-0.011,0.037-0.038,0.061-0.062
			c0.004-0.002,0.008-0.004,0.012-0.005c0,0,0,0,0,0.001C255.802,385.719,255.803,385.719,255.804,385.718z M257.411,382.81
			c-0.717,0.274-1.367,0.644-1.943,1.155c-0.137,0.121-0.273,0.249-0.394,0.387c-0.105,0.12-0.166,0.248-0.223,0.387
			c-0.824-1.496-1.713-2.956-2.679-4.367c-0.666-0.974-1.372-1.923-2.099-2.855c0.077-0.155,0.154-0.309,0.251-0.454
			c0.03-0.045,0.06-0.089,0.091-0.133c0.015-0.02,0.014-0.02,0.02-0.029c0.003-0.004,0.001-0.001,0.005-0.006
			c0.065-0.079,0.126-0.161,0.188-0.244c0.011-0.014,0.021-0.029,0.032-0.043c0.051-0.068,0.043-0.057-0.025,0.032
			c0.023-0.078,0.155-0.184,0.21-0.244c0.073-0.079,0.149-0.155,0.228-0.228c0.076-0.071,0.178-0.132,0.245-0.21
			c-0.008,0.009-0.009,0.01-0.015,0.017c0.008-0.008,0.016-0.016,0.025-0.022c0.044-0.031,0.088-0.062,0.132-0.092
			c0.179-0.119,0.366-0.224,0.561-0.314c0.032-0.015,0.065-0.03,0.098-0.044c-0.031,0.013-0.062,0.026-0.093,0.04
			c0.01-0.023,0.12-0.046,0.15-0.057c0.101-0.036,0.203-0.068,0.306-0.095c0.073-0.019,0.148-0.033,0.222-0.048
			c0.32,0.449,0.636,0.892,0.925,1.33c1.243,1.881,2.509,3.747,3.765,5.62c0.102,0.152,0.209,0.306,0.316,0.46
			C257.608,382.761,257.504,382.775,257.411,382.81z M239.122,356.463c0.136-0.024,0.279-0.019,0.413-0.053
			c0.19-0.049,0.378-0.136,0.559-0.212c0.786-0.329,1.497-0.763,2.151-1.31c0.33,0.711,0.651,1.427,0.988,2.135
			c0.654,1.373,1.335,2.733,2.023,4.089c-0.038,0.047-0.079,0.09-0.115,0.139c-0.004,0.006-0.031,0.04-0.045,0.059
			c-0.032,0.04-0.065,0.079-0.098,0.118c-0.078,0.091-0.158,0.179-0.242,0.264c-0.153,0.158-0.392,0.375-0.513,0.47
			c-0.307,0.244-0.798,0.53-1.216,0.719c-0.185,0.083-0.396,0.166-0.678,0.251c-0.271,0.082-0.548,0.145-0.828,0.189
			c0.037-0.006,0.121-0.012-0.052,0.007c-0.074,0.008-0.149,0.013-0.223,0.02c-0.177,0.017-0.34,0.047-0.511,0.085
			c-0.26,0.059-0.511,0.077-0.782,0.081c-0.023,0-0.039,0.009-0.061,0.012c-0.039-0.22-0.078-0.44-0.116-0.659
			c-0.343-1.94-0.738-3.871-1.186-5.789c-0.041-0.177-0.089-0.352-0.131-0.528c0.173-0.02,0.347-0.023,0.518-0.052
			c0.049-0.009,0.099-0.017,0.148-0.027C239.207,356.453,239.139,356.46,239.122,356.463z M291.45,334.629
			c1.258-0.281,2.51-0.592,3.754-0.948c0.352-0.101,0.714-0.213,1.071-0.319c1.18,0.413,2.398,0.736,3.639,0.985
			c0.332,0.658,0.745,1.292,1.09,1.884c0.189,0.326,0.394,0.643,0.592,0.964c-0.196,0.177-0.387,0.355-0.587,0.496
			c-0.513,0.363-1.065,0.664-1.643,0.91c-0.48,0.205-1.083,0.389-1.636,0.497c-0.328,0.064-0.652,0.115-0.971,0.189
			c-0.954-0.921-1.947-1.853-2.997-2.694c-0.017-0.113-0.048-0.227-0.098-0.342c-0.14-0.323-0.345-0.542-0.636-0.744
			c-0.165-0.114-0.342-0.215-0.515-0.316C292.167,334.991,291.811,334.805,291.45,334.629z M306.086,343.756
			c0.621,0.839,1.245,1.677,1.89,2.498c0.697,0.886,1.418,1.753,2.143,2.615c-0.128,0.141-0.262,0.277-0.402,0.407
			c-0.133,0.124-0.273,0.24-0.414,0.356c-0.016,0.013-0.032,0.026-0.041,0.032c-0.043,0.032-0.086,0.063-0.13,0.094
			c-0.079,0.056-0.159,0.109-0.239,0.162c-0.322,0.209-0.665,0.382-1.003,0.564c-0.084,0.045-0.168,0.088-0.255,0.128
			c-0.025,0.012-0.051,0.023-0.076,0.034c0.003-0.001-0.071,0.031-0.086,0.037c-0.181,0.072-0.365,0.135-0.551,0.193
			c-1.082-1.493-2.195-2.963-3.374-4.38c-0.209-0.251-0.436-0.488-0.648-0.736c0.079-0.012,0.159-0.017,0.238-0.032
			c0.478-0.092,0.954-0.323,1.373-0.566C305.115,344.811,305.664,344.326,306.086,343.756z M302.546,338.69
			c0.223,0.339,0.445,0.68,0.671,1.017c0.577,0.862,1.179,1.708,1.782,2.552c-0.095,0.15-0.18,0.307-0.282,0.453
			c-0.016,0.022-0.115,0.17-0.041,0.06c0.073-0.108-0.028,0.035-0.046,0.057c-0.065,0.079-0.132,0.155-0.202,0.23
			c-0.139,0.149-0.281,0.297-0.431,0.435c-0.075,0.069-0.153,0.134-0.231,0.2c-0.005,0.004-0.003,0.002-0.007,0.006
			c-0.04,0.029-0.08,0.059-0.12,0.087c-0.329,0.23-0.684,0.396-1.043,0.571c-0.045,0.022-0.09,0.043-0.136,0.064
			c-0.012,0.006-0.009,0.005-0.018,0.009c-0.004,0.001,0.001-0.001-0.008,0.002c-0.097,0.034-0.191,0.072-0.289,0.104
			c-0.086,0.028-0.175,0.043-0.263,0.065c-1.204-1.354-2.443-2.674-3.734-3.944c0.641-0.095,1.276-0.249,1.879-0.488
			c0.653-0.259,1.277-0.584,1.853-0.987C302.088,339.035,302.32,338.868,302.546,338.69z M412.578,158.032
			c-3.639,1.361-7.263,2.773-10.923,4.074c-3.202,1.139-6.73,2.173-10.073,0.982c-1.312-0.467-2.597-1.295-3.454-2.405
			c-0.4-0.518-0.588-1.108-0.763-1.697c8.494,0.518,17.023,0.186,25.449-1.043C412.736,157.973,412.657,158.003,412.578,158.032z
			 M399.428,140.719c2.38,0.789,4.75,1.519,7.215,2.111c3.232,0.776,6.465,1.544,9.699,2.313c5.663,1.346,11.334,2.65,17.006,3.957
			c-2.181,2.075-5.757,2.739-8.509,3.474c-4.44,1.185-8.967,2.073-13.519,2.702c-8.588,1.186-17.294,1.369-25.922,0.564
			c2.052-6.633,7.003-12.268,13.534-14.816C399.129,140.948,399.289,140.841,399.428,140.719z M32.952,360.038
			c-0.097-0.173-0.19-0.347-0.267-0.525c-0.243-0.561-0.421-1.156-0.557-1.752c-0.269-1.18-0.299-2.43-0.116-3.627
			c0.075-0.49,0.203-0.961,0.353-1.423c1.388-3.14,4.508-5.619,7.059-7.743c2.883-2.4,5.881-4.656,8.962-6.795
			c6.203-4.307,12.727-8.132,19.375-11.708c13.462-7.24,27.457-13.426,40.924-20.655c3.747-2.011,7.451-4.104,11.081-6.319
			c2.574-1.571,5.24-3.206,7.65-5.1c-0.756,2.22-1.381,4.691-0.616,6.894c-14.063,6.974-27.811,14.639-41.632,22.067l-22.825,12.268
			c-6.803,3.656-13.872,7.096-19.855,12.047c-3.004,2.486-5.67,5.414-7.713,8.744C34.072,357.559,33.458,358.78,32.952,360.038z
			 M43.311,374.309c-0.094-0.044-0.193-0.079-0.3-0.095c-1.211-0.188-2.401-0.364-3.525-0.97c-1.026-0.553-1.955-1.306-2.66-2.23
			c-0.789-1.033-1.271-2.269-1.514-3.539c-0.121-0.633-0.148-1.273-0.205-1.914c-0.042-0.473-0.113-0.95-0.149-1.425
			c0.803-2.126,1.61-4.239,2.789-6.226c1.704-2.873,3.918-5.393,6.408-7.611c5.591-4.979,12.378-8.374,18.92-11.901
			c14.603-7.872,29.204-15.749,43.792-23.651c6.973-3.777,13.959-7.536,20.828-11.5c-0.139,0.308-0.294,0.61-0.427,0.92
			c-1.134,2.648-2.168,5.964-0.977,8.594c-6.411,3.426-12.635,7.221-18.83,11.016c-6.612,4.05-13.199,8.142-19.762,12.271
			c-12.242,7.703-25.01,15.185-35.367,25.413C48.58,365.169,45.209,369.424,43.311,374.309z M109.105,346.592
			c-12.582,9.725-26.158,18.397-40.893,24.483c-7.392,3.053-15.063,5.478-22.924,6.973c1.283-5.369,4.776-9.973,8.595-13.865
			c4.849-4.941,10.38-9.2,16.05-13.148c5.857-4.078,11.924-7.845,17.953-11.661c6.41-4.058,12.811-8.132,19.246-12.151
			c6.797-4.245,13.679-8.372,20.4-12.737c0.132,0.125,0.262,0.251,0.412,0.37c3.073,2.426,7.716,1.741,11.303,1.287
			c1.982-0.251,3.939-0.613,5.879-1.04C133.451,325.967,121.735,336.831,109.105,346.592z M226.025,324.441
			c1.357-0.159,2.712-0.339,4.063-0.548c2.366-0.366,5.036-0.606,7.12-1.874c1.001-0.609,0.501-1.976-0.563-2.077
			c-2.075-0.198-4.214,0.445-6.246,0.796c-2.121,0.366-4.253,0.662-6.395,0.884c-4.175,0.434-8.377,0.612-12.574,0.538
			c-8.582-0.151-17.105-1.398-25.395-3.615c-2.284-0.611-4.548-1.297-6.789-2.051c-1.082-0.364-2.17-0.71-3.251-1.078
			c-1.024-0.349-2.064-0.584-3.093-0.872c4.78-1.973,9.471-4.165,14.047-6.558c4.246-2.221,8.829-4.434,12.241-7.868
			c0.52-0.523-0.001-1.572-0.757-1.3c-3.934,1.415-7.448,3.77-11.11,5.75c-3.739,2.022-7.554,3.901-11.434,5.636
			c-7.805,3.49-15.862,6.271-24.057,8.682c-3.022,0.889-6.068,1.668-9.093,2.519c1.937-1.792,3.871-3.588,5.803-5.386
			c0.608-0.566,0.561-1.279,0.2-1.804c5.676-1.549,11.182-3.719,16.55-6.154c8.534-3.871,16.853-8.253,25.014-12.855
			c4.584-2.585,9.119-5.264,13.572-8.069c2.227-1.403,4.454-2.814,6.602-4.336c2.159-1.53,4.461-3.009,6.242-4.982
			c0.631-0.699,0.028-2.158-1.014-1.742c-3.956,1.578-7.54,4.308-11.114,6.599c-3.626,2.324-7.281,4.603-10.981,6.808
			c-7.47,4.451-15.112,8.598-22.913,12.439c-7.753,3.818-15.688,7.399-24.092,9.53c-3.993,1.013-8.141,1.772-12.271,1.836
			c-1.46,0.023-3.217-0.044-4.412-1.001c-1.471-1.178-1.105-3.238-0.63-4.818c1.224-4.077,3.369-8.007,5.682-11.559
			c2.394-3.677,5.147-7.296,8.305-10.346c0.688-0.665-0.32-1.618-1.032-1.032c-1.651,1.358-3.297,2.682-4.783,4.222
			c-1.401,1.453-2.695,3-3.92,4.603c-1.606,2.102-3.024,4.365-4.28,6.71c-0.034,0.017-0.067,0.033-0.1,0.049
			c0.796-1.843,1.089-3.936,1.73-5.82c0.852-2.508,1.978-4.921,3.34-7.192c1.338-2.231,2.874-4.343,4.626-6.266
			c1.854-2.035,3.823-4.087,6.043-5.723c0.653-0.481,0.098-1.504-0.648-1.108c-2.012,1.068-3.932,2.218-5.692,3.63
			c1.483-2.619,3.095-5.165,4.855-7.607c4.256-5.904,9.367-11.165,15.016-15.744c1.564-1.268,3.184-2.466,4.829-3.626
			c1.474-1.04,3.211-1.947,4.592-3.143c0.974,0.757,2.189,1.215,3.51,1.32c2.815,0.225,5.585-0.968,8.138-2.006
			c-0.533,0.808-1.017,1.642-1.328,2.541c-0.61,1.765-0.392,4.062,1.272,5.196c1.749,1.193,4.17,0.767,6.09,0.313
			c2.405-0.569,4.699-1.592,6.922-2.651c0.942-0.449,1.873-0.919,2.8-1.395c-1.045,1.528-2.012,3.085-2.026,5.018
			c-0.013,1.736,0.804,3.424,2.35,4.285c1.754,0.977,3.852,0.549,5.615-0.152c2.043-0.812,4.016-1.857,5.942-2.911
			c1.15-0.629,2.274-1.302,3.386-1.994c-1.244,2.111-1.756,4.864,0.667,6.402c1.492,0.947,3.275,0.556,4.837,0.027
			c1.667-0.564,3.304-1.222,4.915-1.928c3.68-1.613,7.184-3.603,10.471-5.905c-0.105,1.071,0.166,2.218,0.742,3.146
			c1.728,2.781,5.331,2.768,8.162,2.024c5.918-1.554,11.695-4.473,16.923-7.6c10.542-6.307,19.671-14.905,26.662-25.001
			c1.961-2.832,3.776-5.784,5.336-8.857c1.605-3.162,3.222-6.447,3.759-9.983c0.151-0.997-1.108-1.672-1.7-0.717
			c-1.479,2.382-2.544,4.967-3.803,7.465c-1.206,2.393-2.513,4.743-3.925,7.02c-2.863,4.618-6.181,8.936-9.896,12.9
			c-7.476,7.978-16.485,14.48-26.468,18.953c-2.819,1.263-5.875,2.727-8.94,3.244c-1.337,0.225-3.023,0.238-3.984-0.884
			c-0.682-0.796-1.149-2.417-0.165-3.164c0.299-0.227,0.395-0.538,0.353-0.819c1.465-1.168,2.88-2.4,4.232-3.7
			c1.428-1.372,2.74-2.878,3.984-4.418c1.022-1.266,2.681-3.029,2.835-4.687c0.034-0.363-0.422-0.733-0.771-0.588
			c-0.77,0.32-1.219,0.921-1.777,1.521c-0.649,0.697-1.319,1.375-1.971,2.07c-1.311,1.397-2.686,2.719-4.085,4.027
			c-2.762,2.58-5.74,4.913-8.914,6.965c-3.165,2.047-6.523,3.826-10.022,5.232c-0.888,0.357-1.785,0.69-2.688,1.006
			c-0.773,0.27-1.999,0.883-2.777,0.389c-1.592-1.012-0.299-3.802,0.124-5.074c0.048-0.146,0.03-0.283-0.028-0.401
			c1.829-1.225,3.608-2.525,5.336-3.89c1.708-1.349,3.391-2.751,4.943-4.279c1.412-1.39,3.303-3.052,4.03-4.927
			c0.314-0.809-0.696-1.327-1.331-1.023c-1.484,0.71-2.811,2.29-4.031,3.385c-1.298,1.165-2.598,2.333-3.937,3.451
			c-2.752,2.298-5.671,4.394-8.718,6.283c-2.887,1.79-5.979,3.785-9.2,4.909c-1.54,0.538-3.286,0.708-3.981-1.085
			c-0.707-1.825,0.218-3.943,0.993-5.592c0.16-0.34,0.036-0.64-0.184-0.809c3.003-1.593,5.932-3.316,8.783-5.178
			c2.022-1.321,4.03-2.682,5.948-4.15c1.847-1.414,3.772-2.875,5.175-4.752c0.447-0.598-0.384-1.145-0.911-0.911
			c-1.943,0.865-3.687,2.2-5.448,3.378c-1.66,1.11-3.308,2.234-4.998,3.297c-3.577,2.249-7.277,4.307-11.038,6.232
			c-3.523,1.803-7.597,4.13-11.65,4.279c-0.741,0.027-1.565-0.058-1.839-0.841c-0.277-0.791,0.183-1.877,0.51-2.587
			c0.521-1.132,1.175-2.148,1.269-3.3c3.68-1.601,7.269-3.397,10.647-5.546c1.78-0.636,3.454-1.813,5.036-2.787
			c1.901-1.17,3.737-2.443,5.556-3.736c3.557-2.53,6.996-5.212,10.318-8.043c3.342-2.848,6.603-5.813,9.656-8.969
			c1.557-1.61,3.059-3.261,4.51-4.967c0.642-0.754,1.271-1.518,1.871-2.306c0.631-0.829,1.526-1.697,1.722-2.743
			c0.081-0.434-0.286-0.956-0.779-0.779c-0.973,0.347-1.606,1.185-2.331,1.893c-0.745,0.728-1.475,1.469-2.206,2.211
			c-1.463,1.485-2.94,2.958-4.426,4.419c-3.135,3.081-6.326,6.102-9.659,8.968c-3.298,2.837-6.705,5.558-10.203,8.143
			c-1.739,1.286-3.514,2.522-5.272,3.781c-0.271,0.194-0.56,0.385-0.844,0.576c-4.975,2.518-9.883,5.171-14.997,7.403
			c-2.791,1.218-11.313,5.713-12.462,0.272c-0.534-2.532,1.109-4.815,2.69-6.609c1.893-2.148,3.897-4.208,5.89-6.264
			c4.056-4.184,8.224-8.256,12.462-12.255c8.539-8.059,17.365-15.809,26.144-23.605c9.115-8.095,18.23-16.19,27.345-24.285
			c8.597-7.635,17.258-15.128,26.359-22.137c-0.054,0.614-0.002,1.209,0.211,1.761c0.228,0.591,0.928,1.036,1.543,0.628
			c1.909-1.267,2.435-4.076,3.384-6.046c1.072-2.226,2.356-4.322,3.734-6.37c2.669-3.967,6.05-7.675,9.751-10.702
			c0.745-0.609-0.211-1.777-1.011-1.31c-2.934,1.712-5.557,3.715-7.913,6.044c0.231-0.419,0.459-0.839,0.697-1.255
			c1.438-2.507,3.093-4.902,4.915-7.146c1.837-2.263,3.871-4.366,6.008-6.345c2.143-1.985,4.364-4.031,6.781-5.673
			c0.756-0.514,0.108-1.608-0.712-1.219c-2.843,1.349-5.541,2.715-8.054,4.634c-2.206,1.685-4.222,3.583-6.084,5.636
			c0.254-0.875,0.541-1.74,0.884-2.581c1.276-3.132,3.264-6.032,5.71-8.364c2.484-2.368,5.478-4.169,8.696-5.35
			c1.539-0.565,3.136-0.989,4.753-1.264c1.749-0.298,3.644-0.644,5.415-0.537c0.737,0.045,0.925-1.196,0.177-1.308
			c-1.873-0.279-3.597-0.68-5.508-0.577c-0.211,0.011-0.422,0.035-0.634,0.051c2.104-0.712,4.244-1.318,6.411-1.808
			c3.883-0.877,7.813-1.469,11.759-1.975c4.084-0.523,8.181-1.023,12.272-1.478c0.862-0.096,0.909-1.367,0-1.379
			c-4.274-0.06-8.498-0.158-12.772,0.092c-0.537,0.031-1.074,0.081-1.611,0.123c0.793-0.339,1.596-0.66,2.42-0.935
			c1.282-0.429,2.585-0.733,3.898-1.044c0.229-0.054,0.454-0.108,0.679-0.162c2.844,0.37,5.71,0.504,8.564,0.796
			c3.11,0.318,6.214,0.804,9.271,1.458c6.186,1.324,12.249,3.359,17.947,6.114c10.715,5.18,20.185,12.821,27.5,22.212
			c2.015,2.587,3.859,5.312,5.53,8.132c1.352,2.282,2.449,4.733,3.76,7.039c-7.882,3.224-13.991,10.202-15.731,18.603
			c-0.213,1.03,0.443,1.827,1.463,1.921c0.16,0.015,0.32,0.023,0.48,0.037c0.01,1.184,0.645,2.503,1.216,3.359
			c0.88,1.319,2.115,2.427,3.509,3.182c3.152,1.706,6.769,1.457,10.128,0.546c0.186,3.349,0.191,6.724-0.139,10.056
			c-0.147,1.486-0.352,2.962-0.603,4.431c-0.359-1.326-0.759-2.645-1.117-3.993c-0.218-0.82-1.631-0.686-1.528,0.207
			c0.296,2.566,0.358,5.161,0.529,7.74c0.166,2.495,0.234,4.992-0.183,7.469c-0.316,1.877-0.884,3.692-1.745,5.385
			c0.023-3.463-0.332-6.903-0.992-10.322c-0.183-0.949-1.65-0.706-1.654,0.224c-0.021,4.329-0.31,8.672-0.779,12.975
			c-0.227,2.085-0.562,4.146-0.952,6.206c-0.164,0.868-0.338,1.743-0.493,2.621c-0.75-2.827-1.72-5.582-2.871-8.275
			c-0.646-1.512-1.34-3-2.133-4.441c-0.878-1.596-2-2.983-3.01-4.49c-0.411-0.612-1.301-0.085-0.983,0.575
			c0.744,1.545,1.241,3.215,1.87,4.811c0.602,1.527,1.183,3.066,1.703,4.623c1.02,3.057,1.813,6.2,2.442,9.359
			c0.629,3.158,1.07,6.354,1.258,9.569c0.096,1.649,0.118,3.301,0.207,4.95c0.083,1.541-0.04,3.298,0.53,4.754
			c0.102,0.261,0.294,0.456,0.517,0.573c0.002,0.061,0.007,0.121,0.008,0.182c0.073,2.809,0.037,5.62-0.122,8.426
			c-0.311,5.476-1.053,10.918-2.22,16.277c-2.269,10.419-6.097,20.478-11.391,29.737c-9.991,17.476-25.092,33.09-43.571,41.51
			c-5.644,2.572-11.704,4.369-17.869,5.11c-3.056,0.367-6.129,0.446-9.202,0.286c-1.277-0.066-2.543-0.209-3.806-0.372
			c4.257-1.551,8.439-3.636,11.497-6.783c0.634-0.652,0-2.07-0.967-1.662c-5.07,2.139-9.754,4.917-15.037,6.582
			c-5.309,1.672-10.833,2.652-16.382,3.046c-12.212,0.868-24.381-1.116-36.194-4.09
			C237.602,327.607,231.854,325.832,226.025,324.441z M233.387,339.366c-0.007-0.001-0.005-0.001-0.015-0.003
			c-0.084-0.014-0.167-0.035-0.251-0.048c-0.102-0.016-0.204-0.02-0.307-0.024c-0.645-1.527-1.32-3.041-2.041-4.535
			c-0.856-1.774-1.756-3.527-2.719-5.245c-0.505-0.901-1.01-1.827-1.582-2.703c1.974,0.723,3.972,1.389,5.98,2.02
			c0.099,1.067,0.6,2.256,0.85,3.118c0.481,1.663,1.045,3.304,1.611,4.94c0.226,0.654,0.475,1.299,0.709,1.95
			c-0.026,0.025-0.053,0.05-0.079,0.074c-0.028,0.019-0.055,0.039-0.084,0.057c-0.079,0.052-0.16,0.101-0.243,0.146
			c-0.066,0.036-0.135,0.068-0.203,0.1c-0.044,0.015-0.087,0.032-0.132,0.047c-0.171,0.057-0.344,0.096-0.521,0.13
			c-0.028,0.003-0.055,0.006-0.082,0.008c-0.085,0.007-0.171,0.01-0.256,0.011c-0.181,0.001-0.358-0.02-0.537-0.035
			C233.48,339.373,233.426,339.369,233.387,339.366z M236.178,347.781c-0.065-0.002-0.13,0.001-0.195,0
			c-0.248-0.759-0.498-1.518-0.762-2.272c-0.519-1.481-1.078-2.947-1.661-4.402c0.356,0.048,0.718,0.046,1.032,0.006
			c0.525-0.066,1-0.197,1.479-0.427c0.065-0.031,0.122-0.076,0.184-0.111c0.758,2.045,1.544,4.079,2.374,6.095
			c-0.067,0.079-0.132,0.161-0.204,0.233c-0.069,0.07-0.141,0.137-0.215,0.2c-0.007,0.006-0.027,0.022-0.047,0.039
			c-0.025,0.018-0.061,0.046-0.071,0.053c-0.161,0.113-0.331,0.213-0.507,0.299c-0.041,0.02-0.083,0.039-0.125,0.058
			c-0.007,0.003-0.004,0.001-0.014,0.004c-0.093,0.033-0.185,0.067-0.28,0.095c-0.094,0.028-0.19,0.052-0.286,0.073
			c-0.038,0.008-0.077,0.016-0.116,0.023c-0.029,0.005-0.058,0.01-0.087,0.015c-0.057,0.009-0.039,0.007,0.056-0.007
			c-0.019,0.032-0.255,0.022-0.294,0.024C236.354,347.784,236.266,347.784,236.178,347.781z M238.229,355.329
			c-0.022,0.007-0.045,0.01-0.068,0.017c-0.511-2.038-1.078-4.063-1.703-6.069c0.416-0.001,0.838-0.053,1.235-0.167
			c0.457-0.132,0.91-0.335,1.302-0.606c0.104-0.072,0.207-0.15,0.308-0.23c0.718,1.698,1.461,3.385,2.225,5.063
			c-0.243,0.243-0.482,0.483-0.753,0.699c-0.036,0.027-0.073,0.054-0.11,0.081c-0.081,0.058-0.163,0.115-0.247,0.17
			c-0.167,0.11-0.338,0.213-0.513,0.309c-0.186,0.102-0.376,0.195-0.57,0.281c-0.009,0.004-0.006,0.003-0.011,0.005
			c-0.006,0.002-0.003,0.001-0.014,0.005c-0.058,0.023-0.117,0.045-0.175,0.068c-0.131,0.053-0.248,0.119-0.371,0.186
			c0.076-0.041-0.026,0.013-0.039,0.018c-0.058,0.024-0.117,0.044-0.176,0.064C238.443,355.262,238.336,355.297,238.229,355.329z
			 M237.409,376.629c0.403-1.073,0.842-2.157,1.268-3.25c0.087-0.028,0.176-0.053,0.265-0.074c0.041-0.01,0.083-0.018,0.124-0.027
			c0.01-0.002,0.085-0.015,0.11-0.02c0.022-0.002,0.066-0.008,0.073-0.009c0.087-0.01,0.173-0.022,0.26-0.034
			c0.015-0.002,0.029-0.004,0.04-0.005c0.046-0.005,0.093-0.009,0.14-0.012c0.095-0.007,0.191-0.009,0.286-0.009
			c0.085,0.001,0.17,0.004,0.255,0.011c-0.003,0,0.079,0.008,0.108,0.01c0.024,0.004,0.06,0.009,0.066,0.01
			c0.037,0.006,0.072,0.02,0.108,0.028c-0.86,1.687-1.458,3.614-1.962,5.237c-0.268,0.863-0.492,1.738-0.695,2.62
			c-0.533-0.091-1.082-0.105-1.613,0.02c-0.209,0.049-0.417,0.13-0.619,0.224C236.219,379.775,236.818,378.203,237.409,376.629z
			 M237.221,382.721c0.01,0.005,0.027,0.006,0.039,0.01c0.008,0,0.016,0.001,0.023,0.002c0.09,0.005,0.03,0.006-0.021-0.001
			c0.069,0.021,0.166,0.026,0.226,0.04c0.005,0.001,0.01,0.003,0.015,0.004c-0.279,1.539-0.465,3.095-0.551,4.654
			c-0.04,0.717-0.055,1.435-0.051,2.153c-0.715-0.399-1.514-0.62-2.352-0.618c-0.518,0.001-1.052,0.082-1.542,0.254
			c-0.059,0.021-0.123,0.049-0.185,0.073c0.311-1.196,0.72-2.373,1.141-3.52c0.294-0.8,0.598-1.597,0.898-2.395
			c0.056-0.053,0.111-0.107,0.169-0.158c0.068-0.009,0.135-0.023,0.214-0.06c0.02-0.01,0.024-0.011,0.028-0.014
			c0.029-0.011,0.058-0.023,0.087-0.033c0.117-0.041,0.231-0.082,0.345-0.133c0.005-0.002,0.018-0.009,0.033-0.016
			c0.012-0.005,0.053-0.025,0.065-0.029c0.163-0.06,0.328-0.11,0.497-0.145c0.045-0.009,0.091-0.014,0.136-0.025
			c0.001,0,0,0,0.001-0.001c0.071-0.007,0.143-0.017,0.213-0.027c0.002,0-0.001,0,0.002,0c0.165-0.005,0.327-0.022,0.493-0.014
			c0.038,0.002,0.075,0.005,0.112,0.008C237.244,382.728,237.229,382.725,237.221,382.721z M233.174,390.721
			c-0.111,0.045,0.037-0.012,0.057-0.02c0.045-0.016,0.09-0.032,0.135-0.047c0.204-0.066,0.414-0.115,0.627-0.148
			c0.006,0,0.003,0,0.017-0.001c0.06-0.005,0.119-0.011,0.179-0.014c0.108-0.006,0.216-0.008,0.324-0.006
			c0.096,0.002,0.192,0.007,0.288,0.016c0.034,0.003,0.078,0.009,0.09,0.01c0.033,0.005,0.065,0.01,0.098,0.017
			c0.212,0.04,0.421,0.096,0.623,0.169c0.031,0.011,0.063,0.024,0.094,0.036c0.011,0.005,0.052,0.023,0.082,0.037
			c0.086,0.041,0.171,0.086,0.253,0.134c0.085,0.05,0.167,0.107,0.247,0.164c0.016,0.012,0.038,0.029,0.055,0.044
			c0.046,0.039,0.09,0.079,0.134,0.12c0.135,0.124,0.312,0.192,0.492,0.216c0.094,1.616,0.286,3.227,0.593,4.816
			c0.239,1.237,0.851,2.654,0.706,3.933c-0.157,1.381-1.165,1.073-2.094,0.45c-0.68-0.916-1.737-1.442-2.406-2.41
			c-0.705-1.019-1.134-2.22-1.34-3.436c-0.216-1.275-0.165-2.543,0.034-3.795c0.114-0.044,0.216-0.092,0.338-0.135
			C232.929,390.828,233.05,390.772,233.174,390.721z M417.733,364.048c1.041,0.041,2.083,0.053,3.125,0.075
			c-1.828,0.27-3.656,0.541-5.483,0.814c-4.398,0.658-8.796,1.316-13.194,1.974c-2.199,0.329-4.398,0.658-6.597,0.987
			c-1.184,0.177-2.367,0.349-3.546,0.554c-0.444,0.077-0.869,0.19-1.29,0.312c0.186-0.074,0.372-0.147,0.558-0.221
			c0.556-0.221,1.111-0.445,1.666-0.668c0.952-0.384,1.903-0.767,2.855-1.151c2.062-0.831,4.124-1.662,6.186-2.493
			c3.552-1.432,7.104-2.863,10.657-4.295c-0.009,0.077-0.038,0.153-0.042,0.23C412.469,363.119,415.339,363.955,417.733,364.048z
			 M434.985,334.962c-1.924,0.901-3.848,1.803-5.772,2.704c-1.627,0.762-3.439,1.439-4.726,2.746
			c-2.277,2.313-1.855,6.021,1.363,7.102c1.914,0.643,4.157,0.627,6.149,0.864c0.857,0.102,1.714,0.201,2.571,0.302
			c-5.738,2.331-11.473,4.673-17.207,7.016c-0.999,0.052-2.006,0.484-2.84,1.158c-8.001,3.274-15.999,6.558-23.987,9.861
			c-1.111,0.459-2.996,1.273-2.489,2.846c0.026,0.079,0.071,0.146,0.107,0.218c-0.354,0.519-0.094,1.377,0.688,1.378
			c1.213,0.001,2.346,0.094,3.552-0.057c1.054-0.132,2.105-0.286,3.156-0.443c2.284-0.342,4.567-0.683,6.851-1.025
			c4.398-0.658,8.796-1.316,13.194-1.974c2.537-0.38,5.073-0.764,7.61-1.148c-3.129,0.934-6.26,1.86-9.389,2.797
			c-4.738,1.419-9.46,2.886-14.182,4.358c-3.501,1.092-7.055,2.132-10.494,3.435c-2.612-0.035-5.328,0.77-7.889,1.238l-7.82,1.429
			c-5.297,0.968-10.593,1.939-15.887,2.924l-31.506,5.862c-5.017,0.933-10.055,1.8-15.021,2.975
			c-0.148-0.71-0.921-1.389-1.752-1.277c-3.677,0.495-7.314,1.857-10.881,2.867c-3.526,0.999-7.056,1.986-10.578,3.001
			c-7.127,2.053-14.261,4.079-21.359,6.231c-14.032,4.253-28.105,8.379-42.193,12.442c-3.737,1.078-7.462,2.27-11.239,3.197
			c-2.139,0.525-4.385,0.876-6.567,0.668c0.506-0.15,1.012-0.3,1.518-0.451c1.589-0.472,3.127-0.857,4.505-1.803
			c0.743-0.51,0.485-1.69-0.465-1.719c-2.755-0.083-5.562,1.146-8.183,1.91c-2.69,0.785-5.381,1.568-8.07,2.355
			c-5.46,1.598-10.921,3.197-16.381,4.795c-10.875,3.183-21.715,6.5-32.619,9.583c-5.533,1.565-11.156,2.87-16.918,2.868
			c0.259-1.428,0.839-2.744,1.706-3.963c0.644-0.905-0.245-1.945-1.161-2.023c-0.806-0.068-1.611-0.136-2.417-0.204
			c0.013-1.062,0.384-2.065,1.042-2.888c0.218-0.075,0.437-0.145,0.655-0.22c1.549-0.541,0.883-3.021-0.682-2.475
			c-13.736,4.796-28.134,7.354-42.663,7.484c2.187-1.389,4.583-2.45,7.008-3.376c4.065-1.551,8.2-2.939,12.309-4.37
			c8.682-3.024,17.432-5.848,26.123-8.843c1.196-0.412,1.204-2.03,0-2.441c-1.777-0.606-3.627-1.023-5.504-1.149
			c-1.011-0.068-1.955,0.002-2.888,0.161c-0.032-0.028-0.061-0.063-0.094-0.087c-0.174-0.129-0.385-0.169-0.596-0.188
			c-0.067-0.006-0.203-0.042,0.017,0.014c-0.042-0.011-0.089-0.014-0.132-0.021c-0.234-0.035-0.417-0.052-0.649-0.021
			c-0.159,0.021-0.316,0.052-0.474,0.079c-0.118,0.02-0.237,0.036-0.356,0.055c-0.05,0.008-0.358,0.049-0.178,0.033
			c0.182-0.016-0.129,0.013-0.178,0.017c-0.134,0.011-0.269,0.017-0.404,0.016c-0.101,0-0.202-0.004-0.303-0.011
			c-0.014-0.001-0.038-0.006-0.061-0.01c-0.155-0.038-0.309-0.07-0.461-0.124c-0.06-0.033-0.123-0.062-0.183-0.097
			c-0.07-0.04-0.136-0.085-0.202-0.129c-0.01-0.01-0.004-0.006-0.022-0.023c-0.055-0.05-0.107-0.103-0.157-0.158
			c-0.004-0.004-0.005-0.005-0.009-0.009c-0.036-0.059-0.075-0.116-0.108-0.176c-0.007-0.013-0.014-0.026-0.021-0.039
			c-0.016-0.058-0.034-0.116-0.049-0.175c0-0.003,0-0.003,0.001-0.006c0.001-0.045,0.003-0.103,0.005-0.157
			c0.009-0.042,0.018-0.083,0.029-0.125c0.012-0.043,0.028-0.087,0.044-0.13c0.015-0.028,0.029-0.057,0.045-0.084
			c0.037-0.067,0.081-0.129,0.122-0.193c0.024-0.029,0.048-0.062,0.066-0.083c0.07-0.077,0.177-0.157,0.263-0.24
			c-0.013,0.001-0.005-0.02,0.046-0.053c0.005-0.003,0.01-0.006,0.015-0.01c0.008-0.01,0.022-0.019,0.029-0.029
			c-0.006,0.01-0.011,0.013-0.017,0.021c0.025-0.016,0.049-0.033,0.074-0.048c0.087-0.054,0.176-0.104,0.267-0.151
			c0.041-0.021,0.085-0.039,0.125-0.061c0.006-0.003,0.006-0.004,0.01-0.006c0.007-0.002,0.009-0.003,0.017-0.006
			c0.102-0.037,0.204-0.075,0.307-0.113c0.219-0.081,0.443-0.149,0.67-0.207c0.21-0.054,0.433-0.078,0.64-0.141
			c0.234-0.071,0.464-0.191,0.692-0.283c0.145-0.058,0.269-0.144,0.368-0.25c2.128-0.271,4.228-0.798,6.315-1.274
			c2.894-0.66,5.775-1.368,8.658-2.076c5.681-1.395,11.359-2.801,17.042-4.19c0.827-0.202,1.018-1.089,0.72-1.77
			c-0.454-1.037,1.08-1.844,1.835-1.993c1.361-0.269,2.817,0.011,4.195-0.023c2.664-0.066,5.303-0.625,7.86-1.343
			c5.482-1.54,10.887-3.399,16.315-5.116c2.029-0.642,4.061-1.276,6.091-1.916c-0.255,0.252-0.479,0.531-0.642,0.855
			c-0.691,1.369,0.084,2.868,1.365,3.52c1.644,0.837,3.86,0.134,5.552-0.166c4.373-0.775,8.723-1.682,13.041-2.719
			c4.354-1.045,8.904-1.962,13.107-3.524c1.253-0.466,0.779-2.334-0.559-2.026c-3.518,0.809-6.969,1.984-10.475,2.862
			c-3.431,0.86-6.894,1.601-10.367,2.274c-1.697,0.329-3.397,0.639-5.101,0.928c-0.72,0.122-5.091,1.215-4.588-0.357
			c0.162-0.505,1.176-0.917,1.596-1.158c0.85-0.488,1.697-0.978,2.543-1.473c0.86-0.503,1.708-1.023,2.558-1.542
			c6.227-1.95,12.457-3.891,18.693-5.814c5.804-1.79,11.589-3.644,17.377-5.489c-0.224,0.606-0.449,1.209-0.681,1.799
			c-1.356,3.46-2.838,6.902-3.999,10.433c-0.981,2.984-1.595,6.278-0.76,9.371c0.593,2.197,2.4,5.718,5.021,5.837
			c0.476,0.465,1.058,0.807,1.821,0.918c1.281,0.185,2.496-0.475,3.055-1.635c0.592-1.228,0.343-2.697,0.067-3.971
			c-0.384-1.774-0.717-3.537-0.85-5.351c-0.264-3.6,0.026-7.226,0.885-10.733c0.407-1.664,0.932-3.302,1.58-4.888
			c0.498-1.221,1.204-2.377,1.756-3.581c1.028,1.415,2.259,2.665,3.385,4.008c1.392,1.66,2.672,3.409,3.846,5.229
			c2.357,3.656,4.289,7.587,5.687,11.708c0.565,1.666,0.977,3.785,3.002,4.177c1.762,0.341,3.409-0.896,4.264-2.341
			c2.233-3.775,0.244-8.148-1.811-11.49c-1.514-2.46-3.118-4.866-4.691-7.289c-0.773-1.19-1.552-2.376-2.337-3.558
			c-0.274-0.412-0.542-0.85-0.816-1.287c4.618-1.035,9.509-1.807,14.109-0.4c2.07,0.633,3.967,1.707,5.439,3.309
			c1.406,1.531,3.011,3.323,5.34,2.814c4.595-1.005,2.354-7.311,0.349-9.599c-1.381-1.577-3.117-2.607-5.009-3.306
			c3.123-0.624,6.23-1.347,9.33-2.071c0.491-0.115,0.81-0.603,0.826-1.085c0.02-0.626,0.025-1.253,0.031-1.879
			c2.307,1.59,5.733,1.475,8.531,0.996c2.647-0.453,5.29-0.934,7.935-1.395c1.411-0.246,2.822-0.492,4.233-0.739
			c1.166-0.204,2.651-0.245,3.694-0.859c0.348,0.605,0.695,1.209,1.043,1.814c-0.133-0.127-0.294-0.228-0.491-0.273
			c-0.953-0.221-1.733,0.122-2.64,0.399c-0.912,0.279-1.823,0.559-2.735,0.837c-1.693,0.516-3.395,1.007-5.093,1.508
			c-3.53,1.04-7.002,2.275-10.491,3.443c-0.821,0.275-0.492,1.489,0.358,1.299c3.591-0.802,7.201-1.536,10.76-2.468
			c1.712-0.448,3.423-0.906,5.139-1.338c0.925-0.233,1.85-0.464,2.774-0.695c0.901-0.226,1.762-0.332,2.451-1
			c0.31-0.301,0.397-0.742,0.3-1.135c0.173,0.297,0.353,0.591,0.53,0.886c-0.915,0.884-1.723,1.945-2.444,2.88
			c-1.172,1.522-2.235,3.128-3.015,4.888c-1.405,3.171-1.914,6.915-0.662,10.228c1.116,2.951,4.428,6.577,7.925,4.892
			c1.255-0.604,2.226-1.96,2.253-3.374c0.014-0.71-0.203-1.379-0.627-1.946c-0.523-0.698-1.358-1.066-1.879-1.768
			c-2.723-3.668,0.978-8.174,3.311-10.864c0.286-0.329,0.343-0.702,0.264-1.039c0.143,0.008,0.289,0.013,0.439,0.021
			c1.181,0.065,2.365,0.006,3.547,0.035c2.291,0.056,4.605,0.24,6.862,0.644c1.582,0.283,3.191,0.692,4.575,1.537
			c0.669,0.409,1.276,0.933,1.706,1.594c0.451,0.694,0.648,1.515,1.097,2.209c2.14,3.305,6.146,0.317,7.026-2.419
			c0.557-1.731,0.315-3.376-0.453-4.782c0.617-0.022,1.218-0.147,1.816-0.422c0.626-0.288,1.136-0.802,1.485-1.41
			c0.136-0.021,0.266-0.057,0.366-0.125c1.046-0.709,0.817-2.006,0.7-3.125c-0.115-1.092-0.354-2.186-0.927-3.137
			c-1.433-2.375-4.205-2.57-6.71-2.646c-2.908-0.088-5.846,0.1-8.714,0.593c-1.516,0.261-3.019,0.615-4.498,1.037
			c-1.077,0.307-2.65,0.704-3.526,1.525c-0.599-0.543-1.183-1.101-1.77-1.656c6.361-0.498,12.625-1.669,18.908-2.761
			c6.583-1.144,13.158-2.335,19.727-3.557c13.056-2.429,26.102-4.926,39.115-7.578c3.39-0.691,6.802-1.345,10.207-2.032
			c-6.016,2.24-12.135,4.2-18.36,5.768c-4.73,1.192-9.55,2.096-14.371,2.831c-2.552,0.389-5.113,0.684-7.681,0.95
			c-2.387,0.248-4.946,0.377-7.246,1.095c-0.628,0.196-0.758,1.289,0,1.408c3.749,0.584,7.807-0.258,11.512-0.842
			c3.884-0.612,7.749-1.329,11.584-2.194c7.748-1.748,15.407-3.992,22.848-6.771c2.327-0.869,4.612-1.809,6.874-2.806
			c0.253,0.355,0.68,0.58,1.218,0.437c3.822-1.015,7.478-2.813,11.209-4.139c3.761-1.336,7.573-2.532,11.423-3.584
			c4.811-1.314,9.719-2.471,14.67-3.291C445.381,330.059,440.182,332.528,434.985,334.962z"/>
		<path d="M375.574,353.252c6.798-1.037,13.53-2.422,20.25-3.877c3.274-0.709,6.557-1.405,9.813-2.19
			c1.71-0.412,3.415-0.843,5.119-1.278c1.477-0.377,3.047-0.588,4.221-1.624c0.254-0.224,0.129-0.709-0.205-0.777
			c-1.463-0.299-2.842,0.236-4.25,0.604c-1.701,0.445-3.405,0.882-5.111,1.309c-3.33,0.835-6.647,1.709-9.99,2.495
			c-6.68,1.57-13.408,2.925-20.117,4.362C374.658,352.416,374.946,353.348,375.574,353.252z"/>
		<path d="M379.906,369.638c-1.517-0.343-3.131,0.136-4.635,0.412c-1.67,0.307-3.34,0.618-5.009,0.927
			c-3.422,0.633-6.852,1.235-10.267,1.909c-6.739,1.329-13.458,2.7-20.137,4.303c-0.763,0.183-0.621,1.506,0.19,1.402
			c6.742-0.867,13.44-1.952,20.142-3.087c3.35-0.567,6.688-1.202,10.031-1.81c1.671-0.304,3.342-0.608,5.013-0.912
			c1.604-0.292,3.531-0.382,4.913-1.298C380.83,371.033,380.802,369.841,379.906,369.638z"/>
		<path d="M416.129,351.633c-1.964,0.439-3.926,0.887-5.886,1.345c-4.001,0.934-7.986,1.939-11.959,2.986
			c-7.961,2.097-15.832,4.401-23.664,6.935c-0.371,0.12-0.22,0.689,0.162,0.588c7.86-2.088,15.753-4.1,23.659-6.01
			c3.914-0.946,7.838-1.852,11.762-2.754c1.962-0.451,3.926-0.892,5.893-1.324c0.983-0.216,1.97-0.415,2.951-0.641
			c0.809-0.186,1.469-0.224,1.838-1.003c0.072-0.152,0.079-0.365-0.063-0.486C419.703,350.314,417.397,351.349,416.129,351.633z"/>
		<path d="M209.445,396.174c0.442-0.156,0.264-0.775-0.192-0.696c-5.183,0.901-10.262,2.349-15.362,3.652
			c-5.097,1.302-10.192,2.612-15.282,3.945c-5.096,1.334-10.212,2.535-15.348,3.703c-5.01,1.14-10.263,1.999-14.978,4.038
			c-0.842,0.364-0.428,1.84,0.474,1.749c5.112-0.521,10.123-2.346,15.053-3.798c5.051-1.488,10.098-2.937,15.194-4.261
			c5.092-1.323,10.177-2.667,15.261-4.02C199.349,399.133,204.486,397.918,209.445,396.174z"/>
		<path d="M169.329,402.398c0.985-0.206,1.97-0.412,2.955-0.617c0.509-0.106,1.021-0.201,1.52-0.348
			c0.365-0.108,1.108-0.426,0.971-0.934c-0.137-0.508-0.943-0.423-1.323-0.343c-0.509,0.107-1.005,0.262-1.504,0.408
			c-0.964,0.282-1.928,0.563-2.892,0.844C168.418,401.595,168.686,402.533,169.329,402.398z"/>
		<path d="M172.061,416.672c-3.235,0.406-6.362,1.524-9.501,2.386c-3.152,0.865-6.31,1.704-9.476,2.516
			c-3.165,0.813-6.328,1.632-9.5,2.416c-3.072,0.759-6.422,1.344-9.204,2.882c-0.338,0.187-0.161,0.664,0.186,0.688
			c3.184,0.211,6.508-0.746,9.6-1.46c3.185-0.735,6.367-1.486,9.533-2.297c3.166-0.81,6.326-1.647,9.478-2.509
			c3.131-0.856,6.4-1.542,9.342-2.934C173.303,417.989,172.949,416.56,172.061,416.672z"/>
		<path d="M210.351,404.249c-1.193-0.154-2.278,0.337-3.398,0.695c-1.189,0.38-2.383,0.739-3.574,1.113
			c-2.223,0.698-4.432,1.434-6.673,2.074c-4.628,1.322-9.337,2.422-14.032,3.476c-0.754,0.169-0.426,1.274,0.315,1.145
			c4.847-0.844,9.623-1.92,14.415-3.024c2.35-0.541,4.709-1.061,7.035-1.697c1.122-0.307,2.241-0.631,3.357-0.958
			c1.15-0.337,2.241-0.58,3.137-1.413C211.517,405.118,211.003,404.333,210.351,404.249z"/>
		<path d="M294.731,382.905c-1.485-0.494-3.35,0.498-4.756,0.961c-1.579,0.52-3.156,1.043-4.729,1.581
			c-3.219,1.1-6.369,2.329-9.54,3.555c-0.737,0.285-0.465,1.407,0.333,1.206c3.345-0.839,6.673-1.668,9.984-2.639
			c1.652-0.485,3.298-0.987,4.945-1.491c1.444-0.442,3.302-0.707,4.248-1.983C295.546,383.649,295.178,383.054,294.731,382.905z"/>
		<polygon points="237.261,382.731 237.26,382.731 237.263,382.731 		"/>
		<path d="M271.061,368.106C271.056,368.172,271.06,368.232,271.061,368.106L271.061,368.106z"/>
		<path d="M307.451,375.257c-0.002,0.002-0.005,0.004-0.007,0.005C307.533,375.229,307.5,375.217,307.451,375.257z"/>
		<path d="M307.93,374.981c-0.003,0.001-0.006,0.002-0.009,0.003C307.873,375.003,307.826,375.046,307.93,374.981z"/>
	</g>
</g>
</svg>
