<?xml version="1.0" encoding="utf-8"?>
<!-- Generator: Adobe Illustrator 27.5.0, SVG Export Plug-In . SVG Version: 6.00 Build 0)  -->
<svg xmlns="http://www.w3.org/2000/svg" xmlns:xlink="http://www.w3.org/1999/xlink" viewBox="0 0 2000 2000" width="595" height="842" preserveAspectRatio="xMidYMid meet" data-scaled="true">
<rect style="fill:#FFFFFF;" width="2000" height="2000"/>
<g>
	<path d="M1035.948,729.827c11.516,0,19.94-3.621,25.097-10.804c8.094-11.284,5.758-28.514,2.016-41.718
		c11.526,8.603,27.88,17.832,42.333,14.861c10.149-2.075,17.74-9.51,22.567-22.102c4.866-12.704,4.197-23.333-2.007-31.592
		c-7.958-10.6-23.692-14.686-37.069-16.16c12.204-6.66,25.854-16.867,29.537-30.414c2.85-10.513-0.523-21.205-10.014-31.772
		c-9.19-10.222-19.078-14.468-29.353-12.539c-16.761,3.087-30.206,22.519-38.136,37.176c-2.462-15.612-8.337-36.764-22.354-45.193
		c-8.977-5.404-19.679-5.007-31.796,1.144c-12.069,6.112-18.641,14.458-19.552,24.811c-1.464,16.814,13.281,34.728,24.981,46.133
		c-15.278-1.677-36.594-1.575-48.004,9.388c-7.28,7.009-9.597,17.09-6.883,29.969c2.792,13.208,9.19,21.884,19.019,25.781
		c14.405,5.7,32.882-0.688,45.794-7.018c-5.37,11.982-10.227,28.51-4.304,41.412c4.692,10.237,14.996,16.354,30.633,18.176
		C1031.081,729.672,1033.582,729.827,1035.948,729.827z M1010.104,634.168c0-14.366,11.691-26.057,26.057-26.057
		c14.366,0,26.057,11.691,26.057,26.057c0,14.366-11.691,26.057-26.057,26.057C1021.794,660.225,1010.104,648.534,1010.104,634.168z
		 M1118.016,644.429c4.071,5.424,4.294,12.651,0.679,22.088c-3.577,9.34-8.579,14.55-15.278,15.922
		c-14.216,2.934-33.881-11.751-44.032-21.015c7.741-6.605,12.76-16.306,12.76-27.255c0-0.916-0.204-1.776-0.271-2.676
		C1085.225,631.192,1109.461,633.032,1118.016,644.429z M1080.859,557.349c6.776-1.241,13.368,1.837,20.163,9.408
		c7.203,8.012,9.752,15.384,7.823,22.533c-3.996,14.736-26.729,26.231-39.455,31.133c-4.337-10.45-13.485-18.334-24.646-21.09
		C1051.24,584.946,1065.378,560.199,1080.859,557.349z M977.115,566.384c0.591-6.795,5.215-12.297,14.134-16.819
		c8.996-4.546,16.257-5.055,22.189-1.493c13.484,8.098,18.076,35.835,19.09,50.48c-10.091,1.031-18.906,6.162-24.782,13.797
		C996.016,602.58,975.724,582.17,977.115,566.384z M959.986,667.568c-6.63-2.637-10.876-8.725-12.961-18.607
		c-1.987-9.427-0.669-16.218,4.052-20.755c10.626-10.225,36.742-7.775,51.002-5.044c-1.132,3.49-1.902,7.143-1.902,11.006
		c0,8.059,2.758,15.429,7.249,21.433C995.831,662.595,973.759,673.033,959.986,667.568z M1006.847,707.066
		c-5.683-12.364,3.153-32.285,9.34-42.996c5.719,3.833,12.586,6.082,19.974,6.082c4.614,0,8.993-0.95,13.053-2.539
		c4.876,12.088,11.528,34.826,3.766,45.628c-3.955,5.501-11.788,7.619-23.382,6.267
		C1017.655,718.112,1009.997,713.929,1006.847,707.066z"/>
	<path d="M1044.973,540.235c0.019,0,0.039,0,0.058,0c1.386-0.015,2.695-0.611,3.626-1.638
		c19.766-21.908,35.383-59.171,26.164-81.167c-2.928-6.965-9.607-15.399-24.884-16.053c-12.68-0.519-22.577,5.409-27.763,16.766
		c-9.878,21.632-0.911,59.263,19.194,80.537C1042.307,539.672,1043.606,540.235,1044.973,540.235z M1031.198,462.267
		c3.335-7.304,9.103-10.998,17.148-10.998c0.378,0,0.766,0.01,1.163,0.024c8.201,0.349,13.484,3.616,16.15,9.975
		c6.349,15.137-3.053,44.509-20.706,66.379C1030.122,508.773,1023.549,479.023,1031.198,462.267z"/>
	<path d="M1127.739,616.045c13.823,5.889,31.059,9.471,47.005,9.471c15.365,0,29.528-3.33,38.262-11.119
		c5.632-5.026,11.439-14.09,7.096-28.742c-3.625-12.209-12.466-19.601-24.894-20.813c-23.343-2.249-56.331,18.404-69.922,44.335
		c-0.64,1.226-0.737,2.666-0.271,3.97C1125.48,614.451,1126.469,615.503,1127.739,616.045z M1194.248,574.721
		c8.375,0.819,13.872,5.448,16.334,13.755c2.336,7.867,0.969,13.92-4.178,18.51c-12.253,10.92-43.079,11.584-69.515,1.997
		C1149.918,588.83,1175.966,572.922,1194.248,574.721z"/>
	<path d="M1085.658,706.94c-1.318-0.015-2.743,0.431-3.722,1.391c-0.999,0.964-1.541,2.302-1.512,3.684
		c0.727,29.503,15.026,67.295,36.837,76.911c2.908,1.28,6.466,2.293,10.469,2.293c5.545,0,11.943-1.934,18.632-7.75
		c9.607-8.356,12.67-19.465,8.628-31.277C1147.281,729.701,1114.885,708.554,1085.658,706.94z M1139.846,775.975
		c-6.185,5.385-12.272,6.66-18.573,3.868c-15.016-6.616-28.403-34.408-30.633-62.428c23.75,3.5,48.983,20.575,54.954,37.995
		C1148.319,763.368,1146.39,770.289,1139.846,775.975z"/>
	<path d="M970.398,698.162c-29.305,3.441-65.608,21.157-73.179,43.773c-2.394,7.164-2.937,17.914,8.114,28.471
		c5.884,5.617,12.631,8.472,19.698,8.472c4.013,0,8.133-0.916,12.253-2.772c21.685-9.752,39.745-43.957,38.659-73.198
		c-0.058-1.386-0.679-2.685-1.735-3.587C973.16,698.419,971.774,697.997,970.398,698.162z M933.212,767.056
		c-7.658,3.441-14.735,2.176-21.016-3.824c-5.933-5.671-7.755-11.604-5.564-18.147c5.206-15.564,31.641-31.447,59.336-36.25
		C964.678,732.798,950.011,759.495,933.212,767.056z"/>
	<path d="M950.254,597.705c1.318-0.412,2.404-1.357,3.005-2.608c0.591-1.25,0.63-2.695,0.116-3.979
		c-11.012-27.375-37.641-57.766-61.449-59.133c-7.561-0.47-18.06,1.876-25.34,15.311c-6.078,11.192-5.051,22.669,2.879,32.314
		c11.032,13.421,34.161,21.549,56.719,21.549C934.492,601.161,942.731,600.055,950.254,597.705z M877.133,573.31
		c-5.351-6.5-5.962-13.659-1.822-21.283c3.703-6.829,8.608-10.164,14.967-10.164c0.349,0,0.717,0.01,1.076,0.034
		c16.392,0.94,38.659,22.281,50.563,47.742C918.429,594.695,888.833,587.536,877.133,573.31z"/>
	<path d="M1491.908,966.857c-0.022-0.153-0.102-0.281-0.137-0.43c-0.057-0.243-0.13-0.466-0.222-0.694
		c-0.136-0.346-0.305-0.659-0.511-0.96c-0.132-0.193-0.257-0.376-0.414-0.548c-0.262-0.287-0.561-0.519-0.883-0.738
		c-0.176-0.119-0.328-0.253-0.52-0.349c-0.443-0.225-0.926-0.362-1.434-0.445c-0.103-0.017-0.185-0.079-0.29-0.09
		c-0.015-0.001-0.027,0.006-0.041,0.005c-0.019-0.002-0.036-0.013-0.056-0.014c-1.888-0.168-3.646,0.829-4.607,2.424
		c-0.085,0.134-0.143,0.275-0.213,0.417c-0.104,0.218-0.254,0.404-0.327,0.639c-23.556,75.927-110.432,129.297-232.381,142.766
		c-25.318,2.797-47.662,8.12-67.692,15.09c-0.225,0.03-0.444-0.01-0.669,0.052c-0.344,0.096-0.618,0.302-0.923,0.462
		c-38.935,13.815-68.364,34.302-90.583,56.91c-0.229,0.148-0.484,0.239-0.692,0.428c-0.468,0.428-0.836,0.927-1.104,1.467
		c-19.569,20.374-33.464,42.21-43.182,62.324c11.16-117.932,20.255-249.375,19.5-302.978c16.738,20.191,38.117,37.841,62.873,50.962
		c25.621,13.581,51.891,20.362,76.698,20.357c23.651,0,45.932-6.248,65.048-18.568c0.131-0.089,0.255-0.145,0.376-0.247
		c1.346-0.875,2.719-1.697,4.033-2.633c13.47-9.6,24.996-20.602,34.566-32.63c0.339-0.319,0.62-0.663,0.858-1.063
		c23.088-29.54,34.121-65.331,30.834-102.982c-4.575-52.327-34.849-99.9-82.737-131.977c54.964,7.246,111.741-9.476,151.282-46.089
		c36.003-33.336,52.707-79.061,47.362-127.783c-0.007-0.158-0.044-0.305-0.064-0.461c-0.739-6.567-1.847-13.184-3.394-19.835
		c-3.374-14.498-8.659-27.938-15.636-40.176c-0.032-0.058-0.066-0.109-0.101-0.165c-20.438-35.742-55.466-61.101-100.657-71.724
		c-57.271-13.47-117.373-0.32-157.855,32.828c20.406-53.525,26.425-124.983-4.866-178.052
		c-23.103-39.177-63.323-62.079-116.685-67.185c-0.766-0.245-1.554-0.302-2.348-0.163c-4.925-0.42-9.791-0.921-14.936-1.037
		c-9.43-0.198-18.318,0.232-26.932,0.972c-0.858-0.147-1.704-0.005-2.511,0.29c-47.361,4.632-82.243,23.506-103.344,56.91
		c-31.078,49.201-25.989,119.763-6.379,175.648c-40.21-41.025-95.3-62.923-147.657-57.034
		c-43.724,4.926-79.255,28.756-102.219,67.791c-0.121,0.15-0.186,0.333-0.291,0.496c-4.127,7.071-7.893,14.578-11.17,22.623
		c-4.862,11.929-8.068,24.12-9.837,36.357c-0.233,0.642-0.334,1.302-0.291,1.987c-5.574,42.574,7.252,85.617,37.135,120.413
		c33.938,39.527,83.677,61.847,133.814,61.847c0.049,0,0.107,0,0.155,0c-41.092,22.815-72.423,65.264-83.765,116.205
		c-11.015,49.463-1.754,96.719,24.667,132.598c0.134,0.218,0.28,0.411,0.445,0.606c7.27,9.765,15.748,18.727,25.529,26.59
		c7.874,6.328,16.206,11.713,24.847,16.284c0.162,0.132,0.345,0.177,0.522,0.287c41.96,21.991,91.711,23.244,138.138,2.317
		c22.958-10.346,42.964-25.164,59.329-42.797c-0.4,110.711-7.636,181.405-17.548,277.674c-4.595,44.655-9.81,95.276-15.045,157.448
		c-0.834,9.901-1.544,19.822-2.186,29.738c-0.029,0.187-0.123,0.354-0.131,0.546c-0.006,0.149,0.061,0.278,0.068,0.425
		c-0.49,7.623-0.94,15.241-1.323,22.844c-8.739-22.017-23.006-49.291-46.005-75.138c-0.228-0.787-0.581-1.542-1.2-2.155
		c-0.526-0.522-1.152-0.86-1.81-1.1c-21.021-22.77-48.99-44.143-86.057-59.507c-0.509-0.46-1.098-0.839-1.791-1.061
		c-0.361-0.116-0.717-0.094-1.077-0.128c-19.601-7.857-41.653-14.068-66.567-17.898c-121.27-18.651-205.801-75.67-226.109-152.528
		c-0.041-0.153-0.138-0.276-0.194-0.422c-0.11-0.32-0.24-0.612-0.41-0.897c-0.111-0.184-0.242-0.344-0.376-0.511
		c-0.231-0.293-0.465-0.569-0.761-0.8c-0.225-0.181-0.481-0.298-0.734-0.436c-0.237-0.124-0.448-0.28-0.711-0.364
		c-0.571-0.196-1.174-0.304-1.807-0.258c-0.019,0.001-0.036,0.01-0.056,0.012c-0.018,0.001-0.031-0.008-0.051-0.007
		c-0.118,0.007-0.213,0.072-0.328,0.087c-0.496,0.064-0.971,0.174-1.412,0.374c-0.191,0.087-0.348,0.211-0.525,0.32
		c-0.339,0.208-0.653,0.432-0.932,0.715c-0.158,0.157-0.282,0.326-0.416,0.503c-0.229,0.303-0.418,0.62-0.574,0.974
		c-0.096,0.214-0.174,0.423-0.239,0.651c-0.043,0.151-0.131,0.28-0.16,0.437c-26.183,143.566-14.735,336.052,103.685,406.066
		c15.28,9.032,29.902,16.601,44.017,23.146c0.141,0.088,0.288,0.122,0.436,0.196c86.394,39.945,151.487,36.994,200.849,34.652
		c39.444-1.865,68.034-3.144,89.974,17.981c3.046,101.995,11.381,176.555,11.521,177.787c0.174,1.483,0.998,2.816,2.259,3.621
		c0.911,0.582,14.076,8.734,34.888,8.734c14.589,0,32.949-4.008,53.481-17.449c1.105-0.722,1.871-1.847,2.142-3.136
		c6.5-31.014,1.306-97.381-5.169-174.985c0-0.008-0.003-0.015-0.003-0.023c-0.267-3.185-0.531-6.356-0.8-9.578
		c-2.065-24.677-4.191-50.161-6.105-75.87c-0.002-0.029-0.005-0.056-0.007-0.084c-1.306-17.566-2.496-35.228-3.509-52.827
		c0.003-0.194-0.012-0.379-0.033-0.574c-0.716-12.497-1.327-24.939-1.816-37.293c19.967-17.727,46.257-14.749,82.565-10.557
		c49.309,5.68,114.373,13.053,204.623-24.207c0.075-0.038,0.153-0.049,0.225-0.09c14.344-5.931,29.266-12.885,44.924-21.264
		C1492.344,1303.238,1511.964,1111.407,1491.908,966.857z M1471.548,1208.4l-92.019-11.519
		c28.286-19.734,49.206-43.043,64.743-67.543l41.922-4.522C1483.545,1153.536,1478.775,1181.759,1471.548,1208.4z
		 M1426.207,1306.776l-154.363-64.351c37.891-8.585,69.11-21.437,94.824-37.149l102.149,12.787
		C1458.923,1251.179,1444.99,1281.507,1426.207,1306.776z M1037.644,1349.744c0.359-22.37,1.407-43.91,3.451-64.061
		c0.189-1.87,0.378-3.77,0.567-5.653c0.652-1.961,1.429-4.051,2.171-6.108c3.822,1.021,9.518,2.155,16.233,2.155
		c11.972,0,26.949-3.621,39.26-17.958c16.732-19.47,12.757-42.338,6.708-57.785c14.434,7.566,36.313,14.076,57.669,1.44
		c20.473-12.108,25.485-34.113,25.951-51.024c10.169,12.806,27.831,25.955,55.846,20.924c33.919-6.107,42.789-32.489,44.941-49.303
		c10.915,11.938,31.515,28.049,58.58,20.018c27.831-8.259,35.741-35.528,36.362-54.543c10.935,5.375,31.369,11.536,53.656-1.454
		c28.455-16.603,23.942-51.879,22-61.879c6.56-7.836,12.294-16.074,17.207-24.667c-5.014,36.124-14.806,80.449-39.827,121.407
		c-0.38,0.41-0.66,0.88-0.885,1.395c-32.77,52.799-91.146,99.754-197.966,115.85
		C1113.789,1257.455,1057.965,1319.36,1037.644,1349.744z M827.937,1579.188c-41.17,0.451-91.588-3.935-153.42-30.728
		l179.143-96.792c33.861,18.656,56.856,40.071,71.847,57.989l-97.434,69.387C828.017,1579.083,827.99,1579.146,827.937,1579.188z
		 M753.469,1406.027c-106.073-20.633-162.404-70.06-192.891-124.232c-0.199-0.494-0.441-0.953-0.783-1.358
		c-23.26-41.984-31.164-86.681-34.641-122.987c4.543,8.792,9.92,17.267,16.141,25.373c-2.366,9.923-8.368,44.958,19.343,62.746
		c21.734,13.94,42.391,8.642,53.539,3.732c-0.184,19.029,6.563,46.608,34.025,56.04c26.639,9.165,47.956-6.049,59.375-17.507
		c1.435,16.892,9.161,43.632,42.798,51.174c27.851,6.243,45.988-6.18,56.68-18.535c-0.252,16.916,3.81,39.115,23.76,52.085
		c20.803,13.528,42.924,7.954,57.688,1.013c-6.708,15.176-11.652,37.855,4.227,58.023c12.554,15.932,28.684,19.664,41.034,19.664
		c6.279,0,11.522-0.96,14.88-1.775c1.243,3.718,2.323,7.209,3.218,10.364c0.036,0.13,0.131,0.222,0.178,0.347
		c-0.81,22.771-1.211,45.262-1.273,67.137C932.001,1495.915,878.957,1430.437,753.469,1406.027z M525.285,1375.855l102.614-8.428
		c25.021,16.79,55.661,30.957,93.147,41.146l-156.967,57.726C546.391,1440.253,533.759,1409.361,525.285,1375.855z
		 M511.893,1281.951l41.702,6.305c14.482,25.137,34.39,49.314,61.807,70.233l-92.436,7.592
		C516.88,1339.157,513.319,1310.757,511.893,1281.951z M624.194,1248.265c23.674,11.893,50.38,21.695,79.836,28.977
		c-8.316,9.668-27.635,27.279-52.609,18.717C626.324,1287.335,623.864,1260.929,624.194,1248.265z M945.311,1440.135
		c-8.566,2.008-29.672,4.494-44.787-14.681c-16.938-21.518-4.783-46.693,2.062-57.599
		C924.184,1393.047,937.412,1419.354,945.311,1440.135z M960.704,1541.691c15.228,4.674,61.331,21.669,80.449,60.496
		c1.003,12.021,1.973,23.767,2.874,35.138c-26.366-41.004-69.644-52.616-82.85-55.266
		C960.91,1568.951,960.751,1555.449,960.704,1541.691z M960.684,1531.311c0.024-22.674,0.405-46.035,1.232-69.708
		c14.182,3.319,51.411,15.577,72.339,55.256c1.61,21.579,3.364,42.956,5.106,63.856
		C1013.622,1547.649,971.697,1534.341,960.684,1531.311z M962.291,1451.478c0.482-11.96,1.081-23.979,1.819-36.019
		c12.922,1.847,48.015,10.289,66.578,47.908c0.629,10.88,1.316,21.774,2.068,32.662
		C1008.378,1463.674,974.76,1454.024,962.291,1451.478z M964.769,1405.54c0.568-8.413,1.179-16.827,1.887-25.225
		c2.064-24.472,4.12-47.098,6.139-68.331c10.764,1.232,38.496,7.003,55.003,33.721c-0.148,7.446-0.22,14.981-0.213,22.605
		c-0.024,0.273-0.023,0.532-0.001,0.802c0.039,23.91,0.786,48.583,2.003,73.553C1007.786,1414.047,976.89,1407.175,964.769,1405.54z
		 M991.777,1118.801c10.731,0.446,38.76,3.996,51.913,27.289c-0.932,11.742-1.902,23.577-2.906,35.426
		c-16.637-18.7-41.55-22.923-52.526-23.805C989.514,1144.6,990.697,1131.684,991.777,1118.801z M997.737,1022.17
		c11.304,1.281,39.556,6.815,52.645,30.096c-1.522,24.553-3.387,51.113-5.494,78.489c-16.601-18.287-41.279-21.449-52.308-21.891
		C994.809,1080.969,996.572,1052.763,997.737,1022.17z M1051.324,1036.584c-16.976-18.812-42.447-23.326-53.214-24.398
		c0.419-12.684,0.734-25.826,0.939-39.553c11.51,0.7,40.957,4.964,54.133,28.412
		C1052.678,1012.111,1052.051,1024.031,1051.324,1036.584z M981.691,1223.046c1.987-19.313,3.864-37.584,5.605-55.364
		c10.899,0.962,39.016,5.76,52.176,29.118c-2.54,29.22-5.25,58.211-8.013,85.564c-16.659-20.798-42.025-25.546-53.118-26.628
		C979.486,1244.47,980.606,1233.576,981.691,1223.046z M1030.015,1298.587c-0.795,10.101-1.364,20.499-1.759,31.115
		c-18.782-21.474-43.642-26.496-54.509-27.64c1.218-12.622,2.417-24.739,3.594-36.408
		C988.369,1266.805,1016.987,1272.353,1030.015,1298.587z M1092.006,1193.767c6.259,11.062,17.594,37.166-0.202,57.886
		c-15.325,17.844-35.393,15.353-44.405,13.025C1056.255,1242.868,1070.23,1217.447,1092.006,1193.767z M1178.905,1135.62
		c1.612,12.842,2.848,43.945-20.262,57.607c-23.176,13.703-48.464-1.101-58.348-8.161
		C1120.194,1165.682,1145.905,1148.139,1178.905,1135.62z M1294.425,1111.936c29.719-6.017,56.804-14.668,80.951-25.533
		c-0.309,12.675-4.058,39.015-29.186,46.466C1320.859,1140.389,1302.313,1121.954,1294.425,1111.936z M1487.016,1114.744
		l-36.336,3.919c20.985-37.057,30.724-75.861,35.941-108.26C1489.286,1044.337,1489.648,1079.779,1487.016,1114.744z
		 M1452.272,1034.157c0.955,12.376-0.422,33.264-18.236,43.655c-18.021,10.529-34.663,5.739-43.741,1.392
		C1414.706,1066.578,1435.592,1051.472,1452.272,1034.157z M1250.957,1118.706c10.368-1.145,20.398-2.674,30.262-4.378
		c-0.149,12.16-4.023,41.55-37.484,47.574c-33.612,6.091-49.148-18.99-54.22-29.885
		C1207.866,1125.941,1228.114,1121.23,1250.957,1118.706z M1132.052,984.781c-28.333-15.016-51.952-36.214-68.841-60.273
		c-0.127-0.241-0.301-0.434-0.465-0.65c-6.914-9.945-12.692-20.355-17.132-31.046c5.395,8.258,11.97,15.609,19.996,20.219
		c5.971,3.432,12.292,5.152,18.884,5.152c4.711,0,9.568-0.877,14.541-2.632c11.39-4.028,19.523-11.424,24.157-21.991
		c3.037-6.924,4.174-14.618,4.319-22.323c42.056,81.683,102.285,111.942,126.792,121.287
		C1219.205,1010.398,1175.554,1007.84,1132.052,984.781z M1265.905,756.747c2.656,9.612,0.591,19.116-6.33,29.067
		c-6.194,8.899-13.465,13.508-22.247,14.095c-13.884,0.938-28.759-8.617-38.606-16.567c-2.598-2.428-5.286-4.874-8.007-7.326
		c3.773-4.108,7.408-8.324,10.85-12.722c0.911-0.605,1.544-1.512,1.9-2.538c9.839-12.971,18.283-27.032,24.933-42.1
		c0.257,0.13,0.511,0.263,0.768,0.394C1239.157,724.503,1260.758,738.157,1265.905,756.747z M1114.09,889.592
		c-3.538,8.051-9.548,13.484-18.37,16.601c-9.18,3.233-17.43,2.675-25.156-1.764c-20.372-11.688-30.831-46.289-34.298-60.151
		c18.182-0.009,35.738-2.576,52.573-6.948c0.067,0.003,0.125,0.065,0.191,0.065c0.875,0,1.708-0.302,2.477-0.754
		c6.268-1.716,12.401-3.716,18.423-5.985c0.395,1.099,0.797,2.186,1.2,3.27C1115.286,846.398,1121.901,871.808,1114.09,889.592z
		 M861.057,730.954c2.873-8.677,15.771-43.14,46.253-67.249c1.609-1.28,2.268-3.422,1.648-5.39c-0.62-1.968-2.394-3.344-4.45-3.456
		c-29.867-1.682-59.935-18.361-68.389-23.394c0.704-52.356,21.618-99.835,55.268-135.159c9.878,0.765,47.481,5.071,74.173,27.506
		c0.911,0.771,2.045,1.163,3.189,1.163c0.96,0,1.919-0.276,2.763-0.838c1.832-1.226,2.637-3.524,1.968-5.627
		c-8.506-26.771-1.28-64.382,0.984-74.69c19.456-6.323,40.162-9.836,61.697-9.836c27.863,0,54.398,5.753,78.525,16.083
		c2.972,8.586,13.722,43.957,2.767,79.227c-0.572,1.847-0.019,3.853,1.406,5.152c0.931,0.843,2.123,1.284,3.335,1.284
		c0.649,0,1.309-0.126,1.929-0.393c33.196-14.033,69.888-11.617,79.412-10.677c20.682,31.5,32.814,69.092,32.814,109.506
		c0,5.99-0.38,11.888-0.899,17.745c-7.489,5.049-36.78,23.319-72.687,26.057c-1.987,0.15-3.684,1.474-4.323,3.359
		s-0.087,3.97,1.396,5.293c22.054,19.682,31.534,60.583,33.635,70.946c-25.96,33.022-62.009,57.625-103.521,69.236
		c-8.997-7.311-43.799-36.622-51.579-58.627c-0.678-1.9-2.433-3.204-4.449-3.301c-1.948-0.131-3.887,1.037-4.731,2.869
		c-10.903,23.514-48.952,49.173-58.547,55.374C923.811,806.826,884.806,773.75,861.057,730.954z M836.436,643.108
		c11.195,6.186,32.612,16.589,55.955,20.379c-20.5,19.303-31.919,41.901-37.396,55.277
		C844.13,695.593,837.635,670.057,836.436,643.108z M963.496,447.843c-2.496,13.058-6.032,37.785-2.549,60.315
		c-21.746-13.895-46.308-19.002-60.33-20.868C918.809,470.487,940.051,457.021,963.496,447.843z M1195.993,514.145
		c-14.389-0.704-40.448-0.308-66.548,8.563c5.911-27.174,1.272-52.598-2.56-66.755
		C1154.142,469.887,1177.718,489.87,1195.993,514.145z M1201.304,747.099c-3.702-15.004-12.025-41.76-27.636-60.39
		c26.518-4.011,48.304-14.968,60.095-21.977C1229.107,694.91,1217.886,722.928,1201.304,747.099z M1033.253,780.575
		c10.748,18.959,32.932,39.194,44.827,49.288c-13.531,2.896-27.535,4.493-41.919,4.493c-18.484,0-36.311-2.72-53.316-7.432
		C996.128,817.829,1020.39,799.698,1033.253,780.575z M1183.425,783.799c6.845,8.786,22.097,30.92,19.994,51.439
		c-1.037,10.082-6.039,18.292-15.297,25.102c-8.744,6.437-17.371,8.468-26.348,6.286c-20.098-4.913-36.05-29.597-41.914-39.842
		C1143.657,816.403,1165.17,801.768,1183.425,783.799z M1233.46,705.725c5.828-16.017,9.977-32.833,11.742-50.383
		c0.007-0.045,0.001-0.088,0.007-0.134c0.691-6.923,1.066-13.938,1.066-21.04c0-2.297-0.271-4.526-0.344-6.806
		c3.587-0.082,7.015-0.279,10.498-0.438c14.774,1.993,36.356,6.994,47.883,19.525c5.855,6.359,8.375,13.843,7.716,22.868
		c-0.737,10.145-4.75,17.997-12.263,24.012C1281.196,708.199,1247.07,706.93,1233.46,705.725z M1224.403,541.404
		c11.087-3.818,39.215-11.829,57.72-2.27c8.337,4.309,13.562,11.599,15.975,22.296c2.53,11.23,0.931,20.658-4.876,28.82
		c-11.691,16.421-37.181,22.69-47.923,24.667C1242.904,588.705,1235.566,563.96,1224.403,541.404z M1219.496,531.825
		c-2.678-4.777-5.489-9.469-8.518-14.007c-0.177-0.349-0.347-0.688-0.599-0.985c-11.209-16.588-24.743-31.473-40.096-44.24
		c10.113-8.354,36.447-27.892,58.369-24.944c9.277,1.255,16.567,6.393,22.286,15.714c5.836,9.505,7.367,18.796,4.702,28.403
		C1250.192,511.394,1228.56,526.308,1219.496,531.825z M1160.162,464.932c-12.016-8.827-24.933-16.456-38.693-22.601
		c-0.499-0.365-1.035-0.626-1.629-0.785c-10.125-4.416-20.713-7.897-31.589-10.686c0.27-0.915,0.531-1.827,0.791-2.738
		c3.719-11.467,12.648-33.575,28.527-42.766c7.775-4.503,16.15-5.307,25.514-2.457c9.859,2.991,16.615,8.632,20.687,17.245
		C1173.511,420.8,1164.568,452.132,1160.162,464.932z M1077.917,428.252c-13.501-2.734-27.46-4.194-41.756-4.194
		c-13.095,0-25.861,1.362-38.3,3.665c0.174-10.643,2.135-34.227,15.374-48.359c7.135-7.615,16.79-11.477,28.684-11.477
		c11.652,0,20.279,3.572,26.396,10.915C1080.221,393.104,1079.062,417.732,1077.917,428.252z M969.862,434.947
		c-0.911,0.074-1.735,0.385-2.445,0.897c-16.959,5.897-33.003,13.75-47.682,23.561c-4.605-10.746-13.867-36.556-6.144-55.732
		c3.8-9.437,11.119-15.893,22.383-19.737c10.556-3.601,19.456-3.02,27.191,1.779c15.815,9.809,22.172,34.456,24.139,44.313
		C981.395,431.442,975.567,433.042,969.862,434.947z M910.325,466.31c-8.334,6.264-16.293,12.987-23.605,20.395
		c-1.055,0.512-1.844,1.375-2.256,2.482c-9.141,9.563-17.389,19.956-24.614,31.103c-8.956-7.064-30.341-25.849-33.319-46.283
		c-1.27-8.753,0.998-16.61,6.941-24.026c6.592-8.235,14.269-12.355,23.459-12.592c0.281-0.01,0.562-0.01,0.853-0.01
		C879.028,437.378,901.726,457.756,910.325,466.31z M828.727,602.369c-11.18-4.244-37.198-15.877-46.477-35.19
		c-4.362-9.064-4.459-18.501-0.32-28.854c4.197-10.479,10.586-16.984,19.543-19.877c18.845-6.122,43.472,5.669,52.907,10.838
		C841.552,551.43,832.743,576.093,828.727,602.369z M818.641,611.693c2.827,0.472,5.581,0.986,8.481,1.413
		c-0.693,6.93-1.066,13.952-1.066,21.062c0,14.915,1.616,29.452,4.586,43.496c-12.855,1.662-47.167,4.447-63.942-10.251
		c-6.776-5.942-9.8-14.046-9.248-24.778c0.543-10.295,4.246-17.88,11.332-23.178C782.279,609.371,804.611,610.01,818.641,611.693z
		 M833.608,689.166c4.232,15.569,10.021,30.498,17.528,44.415c0.115,0.273,0.228,0.53,0.39,0.777
		c4.814,8.838,10.43,17.148,16.418,25.164c-1.66,1.092-3.34,2.176-4.957,3.283c-11.709,7.11-32.936,17.811-50.744,14.818
		c-8.724-1.473-15.5-5.991-20.725-13.809c-5.564-8.318-7.125-16.727-4.799-25.708C792.61,715.368,821.626,696.232,833.608,689.166z
		 M945.573,823.458c-8.58,9.527-30.183,30.951-53.027,33.451c-10.314,1.129-19.407-1.682-27.821-8.589
		c-8.511-6.979-12.951-15.248-13.571-25.291c-1.352-21.783,15.937-45.21,23.646-54.51
		C894.042,791.593,918.218,810.31,945.573,823.458z M955.849,828.254c4.006,1.665,8.136,3.079,12.263,4.497
		c0.681,0.496,1.478,0.74,2.304,0.845c17.07,5.644,35.11,9.021,53.787,10.08c-2.61,13.042-11.24,47.604-31.045,59.321
		c-7.823,4.638-16.47,5.08-26.387,1.362c-9.839-3.684-16.199-9.684-19.456-18.346C939.852,866.162,951.115,838.423,955.849,828.254z
		 M1267.796,984.378c-0.744,0.531-1.526,0.984-2.28,1.494c-13.067-4.128-85.638-30.852-132.021-124.991
		c7.371,7.005,16.109,12.982,25.895,15.382c11.846,2.908,23.517,0.252,34.607-7.925c11.497-8.458,17.982-19.262,19.301-32.116
		c1.051-10.322-1.469-20.643-5.229-29.92c74.302,75.508,89.12,136.37,91.416,148.407
		C1290.651,965.615,1280.09,975.616,1267.796,984.378z M1329.924,856.652c2.755,31.527-5.287,61.7-22.611,87.533
		c-5.729-22.009-24.528-73.305-83.651-136.052c4.693,1.259,9.49,2.025,14.306,1.682c11.827-0.78,21.84-6.951,29.75-18.331
		c8.599-12.365,11.206-24.952,7.745-37.414c-0.448-1.614-1.02-3.179-1.643-4.719C1306.224,778.364,1326.37,816.009,1329.924,856.652
		z M1401.61,670.438c-34.819,32.245-83.784,48.051-132.444,44.55c13.081-1.818,26.645-5.786,36.784-13.893
		c9.665-7.726,15.035-18.176,15.985-31.049c0.853-11.754-2.617-21.961-10.324-30.332c-6.325-6.869-14.904-11.731-23.892-15.234
		c91.173-10.718,141.023-47.162,159.005-63.356C1448.763,603.078,1433.243,641.148,1401.61,670.438z M1445.53,548.451
		c-8.802,8.974-60.942,57.026-169.507,67.191c9.488-4.431,18.893-10.674,25.265-19.609c7.455-10.455,9.636-22.829,6.485-36.783
		c-3.054-13.542-10.15-23.275-21.094-28.936c-9.42-4.868-20.527-6.007-31.125-5.417c93.24-42.439,161.472-31.203,173.411-28.685
		c6.026,10.938,10.637,22.862,13.62,35.682C1443.882,537.466,1444.818,542.98,1445.53,548.451z M1333.598,427.243
		c38.24,8.99,68.67,29.206,88.304,57.597c-24.627-3.615-86.212-6.774-167.212,29.462c4.571-5.904,8.462-12.498,10.508-19.846
		c3.412-12.253,1.454-24.458-5.807-36.289c-7.27-11.851-17.168-18.699-29.411-20.352c-4.356-0.591-8.8-0.431-13.235,0.213
		C1251.247,422.212,1293.128,417.728,1333.598,427.243z M1164.595,277.395c24.281,41.17,24.637,94.278,13.239,140.261
		c-0.465-7.587-1.932-15.05-5.077-21.729c-5.254-11.148-14.269-18.729-26.784-22.529c-12.03-3.65-23.256-2.501-33.405,3.383
		c-5.836,3.384-10.776,8.114-15.011,13.367c14.49-90.285-17.111-151.29-31.835-173.847
		C1110.697,222.913,1144.681,243.618,1164.595,277.395z M1052.606,214.835c8.557,11.215,53.451,76.211,33.944,181.019
		c-1.789-8.339-4.995-16.647-10.587-23.376c-8.007-9.631-19.456-14.517-34.045-14.517c-14.764,0-26.862,4.929-35.954,14.647
		c-7.186,7.684-11.455,17.364-14.083,26.772c-16.727-111.023,15.784-173.476,22.405-184.737c7.883-0.62,16.026-0.955,24.656-0.748
		C1043.651,214.002,1048.096,214.462,1052.606,214.835z M914.784,267.445c18.098-28.655,47.454-45.819,87.366-51.446
		c-10.794,20.957-33.429,78.514-21.724,172.547c-3.378-4.359-7.285-8.319-12.006-11.25c-10.295-6.393-22.296-7.329-35.644-2.753
		c-13.969,4.764-23.517,13.315-28.393,25.422c-1.134,2.817-1.895,5.742-2.479,8.702
		C890.037,359.636,890.915,305.231,914.784,267.445z M753.459,390.62c42.907-4.805,89.25,11.302,125.743,41.733
		c-7.224-3.05-14.865-5.024-22.513-4.892c-12.127,0.31-22.548,5.802-30.972,16.315c-7.648,9.544-10.673,20.197-9.006,31.66
		c0.931,6.389,3.308,12.534,6.434,18.28c-71.199-44.874-135.64-48.174-159.779-47.554
		C684.753,414.298,715.855,394.855,753.459,390.62z M647.863,475.407c2.73-6.699,5.809-13.009,9.166-18.986
		c14.403-0.908,89.663-2.622,170.484,52.073c-9.517-2.005-19.705-2.525-29.074,0.497c-11.778,3.805-20.435,12.432-25.718,25.64
		c-5.167,12.912-4.973,25.316,0.591,36.871c5.25,10.91,14.628,19.423,24.315,25.974c-105.508-23.865-151.728-79.467-158.96-89.038
		C640.409,497.388,643.41,486.334,647.863,475.407z M673.213,623.956c-25.834-30.076-38.092-65.535-36.063-101.651
		c16.399,18.711,59.881,59.299,142.99,81.317c-6.239,1.659-12.218,4.092-17.278,7.873c-9.481,7.076-14.628,17.381-15.316,30.628
		c-0.717,13.77,3.529,24.787,12.612,32.755c1.544,1.353,3.209,2.565,4.948,3.683C730.157,670.997,697.424,652.155,673.213,623.956z
		 M725.569,810.63c9.733-43.696,34.98-80.664,68.434-103.174c-7.689,8.209-14.189,17.735-16.892,28.138
		c-3.044,11.72-0.979,23.067,6.146,33.735c6.737,10.082,15.947,16.165,27.356,18.084c7.201,1.214,14.672,0.604,21.913-0.984
		c-60.933,53.499-83.104,114.927-89.978,139.862C722.509,893.929,716.096,853.185,725.569,810.63z M750.048,937.213
		c2.875-13.592,22.627-92.359,102.991-154.841c-6.802,11.848-12.694,26.587-11.793,41.248c0.785,12.772,6.563,23.667,17.178,32.377
		c10.44,8.564,22.238,12.195,35.227,10.775c15.207-1.674,29.473-10.129,40.641-18.999C878.994,944.1,807.354,971.302,795.06,975.354
		c-7.704-4.201-15.178-9.09-22.31-14.823C764.127,953.6,756.58,945.754,750.048,937.213z M925.951,978.106
		c-40.215,18.129-81.752,18.988-118.539,3.318c23.939-9.717,80.032-39.303,127.698-115.591c-0.554,8.032,0.106,16.191,2.9,23.648
		c4.265,11.361,12.767,19.494,25.272,24.176c5.555,2.079,10.915,3.117,16.063,3.117c6.669,0,12.98-1.745,18.874-5.23
		c2.512-1.486,4.808-3.327,7.009-5.306C987.895,936.902,960.275,962.638,925.951,978.106z M1029.191,874.813
		c4.668,18.624,13.196,36.879,24.823,53.814c0.938,10.797,0.795,30.664-0.176,56.577c-17.328-18.478-43.626-21.885-54.679-22.488
		c0.104-9.751,0.17-19.724,0.161-30.137C1012.905,915.161,1023.27,895.627,1029.191,874.813z M894.47,1358.846
		c-10.427,6.745-35.866,19.93-58.246,5.391c-22.378-14.554-19.967-45.316-17.813-58.203
		C850.578,1320.054,875.382,1338.818,894.47,1358.846z M808.045,1301.776c-5.438,10.677-21.843,35.097-55.497,27.548
		c-33.029-7.412-35.729-36.95-35.396-49.124c9.775,2.12,19.725,4.073,30.026,5.657
		C769.797,1289.335,789.992,1294.828,808.045,1301.776z M609.57,1240.421c-9.288,3.911-26.153,7.966-43.562-3.207
		c-17.354-11.138-17.844-32.056-16.364-44.382C565.555,1210.817,585.752,1226.779,609.57,1240.421z M516.332,1167.624
		c3.838,32.593,11.921,71.78,31.315,109.697l-36.147-5.465C510.358,1236.809,512.227,1201.414,516.332,1167.624z M570.034,1474.686
		l168.159-61.842c4.416,1.001,8.78,2.032,13.375,2.926c36.49,7.098,66.621,17.915,91.499,30.341l-179.95,97.228
		c-13.318-6.234-27.108-13.426-41.477-21.92C601.26,1509.37,584.188,1493.471,570.034,1474.686z M861.409,1578.045
		c-5.066,0.239-10.364,0.471-15.774,0.677l86.066-61.291c13.318,17.568,18.371,30.217,18.504,30.573
		c0.124,0.325,0.429,0.486,0.608,0.768c0.098,14.998,0.327,29.667,0.675,43.839C927.621,1574.964,897.948,1576.304,861.409,1578.045
		z M1046.834,1771.447c-37.699,23.779-66.229,12.505-73.867,8.628c-1.543-14.511-9.141-89.88-11.55-187.757
		c16.111,3.739,64.297,18.939,84.351,70.078c0.038,0.094,0.137,0.132,0.179,0.223
		C1049.382,1710.549,1050.825,1749.645,1046.834,1771.447z M1038.252,1412.064c-0.466-14.337-0.717-28.477-0.748-42.369
		c1.556-3.171,7.212-13.853,18.81-27.814l81.855,63.701c-5.407-0.569-10.697-1.159-15.753-1.741
		C1088.208,1399.915,1060.548,1396.78,1038.252,1412.064z M1156.488,1407.269l-93.632-72.867
		c15.693-17.13,39.618-37.498,74.465-54.68l175.061,104.438C1248.33,1408.756,1197.581,1410.339,1156.488,1407.269z
		 M1366.353,1359.39c-14.725,7.881-28.803,14.501-42.341,20.157l-175.84-104.903c25.411-11.286,56.027-20.775,92.868-26.327
		c4.631-0.698,9.039-1.543,13.496-2.356l165.365,68.938C1404.961,1333.066,1387.226,1348.222,1366.353,1359.39z"/>
</g>
</svg>
