<?xml version="1.0" encoding="utf-8"?>
<!-- Generator: Adobe Illustrator 27.5.0, SVG Export Plug-In . SVG Version: 6.00 Build 0)  -->
<svg version="1.1" xmlns="http://www.w3.org/2000/svg" xmlns:xlink="http://www.w3.org/1999/xlink" x="0px" y="0px"
	 viewBox="0 0 500 500" style="enable-background:new 0 0 500 500;" xml:space="preserve">
<g id="BACKGROUND">
	<rect style="fill:#FFFFFF;" width="500" height="500"/>
</g>
<g id="OBJECTS">
	<g>
		<path style="fill:none;stroke:#000000;stroke-linecap:round;stroke-linejoin:round;stroke-miterlimit:10;" d="M122.596,130.519
			c-3.208-6.405-6.472-12.999-7.135-20.131c-0.22-2.368-0.051-5.01,1.597-6.725c1.56-1.623,4.064-1.968,6.287-1.615
			c2.223,0.354,4.305,1.293,6.477,1.885c3.51,0.957,7.269,0.99,10.796,0.092c2.525-0.643,5.019-1.761,7.615-1.542
			c3.02,0.255,5.609,2.298,7.544,4.631c3.001,3.617,4.898,8.172,5.166,12.864c0.391,6.847-2.672,13.553-7.126,18.768
			c-4.454,5.215-10.218,9.129-16.061,12.719c-3.088,1.897-6.745,3.788-10.174,2.614c-1.701-0.582-3.078-1.861-4.215-3.253
			c-3.904-4.781-5.784-11.51-4.488-17.545"/>
		<path style="fill:none;stroke:#000000;stroke-linecap:round;stroke-linejoin:round;stroke-miterlimit:10;" d="M118.879,133.281
			c6.608,2.155,13.748,4.32,20.376,2.226c6.295-1.989,10.791-7.406,14.915-12.56"/>
		<path style="fill:none;stroke:#000000;stroke-linecap:round;stroke-linejoin:round;stroke-miterlimit:10;" d="M122.959,130.317
			c4.356-1.849,9.199-1.487,13.905-0.982c4.861,0.522,13.433-0.072,16.664-6.006"/>
		<path style="fill:none;stroke:#000000;stroke-linecap:round;stroke-linejoin:round;stroke-miterlimit:10;" d="M127.286,129.462
			c0.091,0.747,0.217,1.102,0.309,1.849"/>
		<path style="fill:none;stroke:#000000;stroke-linecap:round;stroke-linejoin:round;stroke-miterlimit:10;" d="M127.471,131.399
			c5.07,0.707,16.232,1.887,21.441-3.322"/>
		<path style="fill:none;stroke:#000000;stroke-linecap:round;stroke-linejoin:round;stroke-miterlimit:10;" d="M150.692,121.554
			c2.372,0.034,4.648,1.621,5.499,3.835"/>
		<path style="fill:none;stroke:#000000;stroke-miterlimit:10;" d="M120.16,110.077c-0.246-0.422-0.441-0.89-0.445-1.378
			c-0.004-0.488,0.214-0.999,0.635-1.246c0.59-0.346,1.346-0.09,1.939,0.251c0.924,0.532,4.491,3.7,3.498,5.041
			C124.606,114.338,120.721,111.037,120.16,110.077z"/>
		<path style="fill:none;stroke:#000000;stroke-miterlimit:10;" d="M141.84,112.113c-0.713,0.041-1.566-0.049-1.911-0.675
			c-0.387-0.702,0.153-1.563,0.771-2.074c1.555-1.286,3.663-1.684,5.68-1.752c1.817-0.062,3.51,1.237,1.665,2.67
			C146.449,111.522,143.797,112.002,141.84,112.113z"/>
		<path style="fill:none;stroke:#000000;stroke-miterlimit:10;" d="M137.641,104.673c4.6-2.338,8.462-6.102,10.917-10.64
			c2.455-4.538,3.492-9.831,2.932-14.96"/>
		<path style="fill:none;stroke:#000000;stroke-miterlimit:10;" d="M151.332,79.505c6.458-4.038,14.032-6.269,21.647-6.377"/>
		<path style="fill:none;stroke:#000000;stroke-linecap:round;stroke-linejoin:round;stroke-miterlimit:10;" d="M167.741,25.733
			c1.566,2.897,1.131,6.508-0.116,9.556c-1.246,3.048-3.221,5.735-4.779,8.637c-2.632,4.902-4.053,10.761-2.397,16.072
			c1.008,3.232,3.081,6.04,5.457,8.451c1.97,1.998,4.24,3.806,6.917,4.645c1.971,0.617,4.066,0.681,6.13,0.739
			c6.439,0.183,13.322,0.249,18.74-3.236"/>
		<path style="fill:none;stroke:#000000;stroke-linecap:round;stroke-linejoin:round;stroke-miterlimit:10;" d="M159.512,75.04
			c-8.578-7.34-12.859-19.377-10.842-30.485"/>
		<path style="fill:none;stroke:#000000;stroke-linecap:round;stroke-linejoin:round;stroke-miterlimit:10;" d="M148.666,44.707
			c4.113,3.589,7.887,7.566,11.255,11.861"/>
		<path style="fill:none;stroke:#000000;stroke-linecap:round;stroke-linejoin:round;stroke-miterlimit:10;" d="M148.531,45.209
			c2.59,11.8,10.679,22.272,21.441,27.761"/>
		<path style="fill:none;stroke:#000000;stroke-linecap:round;stroke-linejoin:round;stroke-miterlimit:10;" d="M167.862,26.047
			c6.415,5.667,10.246,14.152,10.252,22.712"/>
		<path style="fill:none;stroke:#000000;stroke-linecap:round;stroke-linejoin:round;stroke-miterlimit:10;" d="M168.339,26.28
			c5.736,1.914,10.857,5.626,14.461,10.481c3.604,4.856,5.673,10.833,5.843,16.877"/>
		<path style="fill:none;stroke:#000000;stroke-linecap:round;stroke-linejoin:round;stroke-miterlimit:10;" d="M178,31.59
			c8.275,3.543,15.072,10.406,18.536,18.715"/>
		<path style="fill:none;stroke:#000000;stroke-linecap:round;stroke-linejoin:round;stroke-miterlimit:10;" d="M199.361,74.505
			c-2.586-12.558-3.307-25.498-2.13-38.266"/>
		<path style="fill:none;stroke:#000000;stroke-linecap:round;stroke-linejoin:round;stroke-miterlimit:10;" d="M197.231,36.239
			c2.61,0.379,4.469,1.871,6.235,3.829c1.767,1.958,2.983,4.355,3.914,6.822c3.721,9.857,2.974,21.305-1.998,30.594"/>
		<path style="fill:none;stroke:#000000;stroke-linecap:round;stroke-linejoin:round;stroke-miterlimit:10;" d="M197.769,36.363
			c8.325,6.521,5.922,36.42,3.995,39.722"/>
		<path style="stroke:#000000;stroke-width:1.3355;stroke-linecap:round;stroke-linejoin:round;stroke-miterlimit:10;" d="
			M190.979,78.475c-3.154,0.705-6.309,1.409-9.463,2.114c-1.4,0.313-2.838,0.627-4.259,0.43c-1.421-0.198-2.846-1.02-3.349-2.364
			c0.159-0.804,0.73-1.508,1.475-1.848c0.745-0.34,1.579-0.425,2.397-0.474C182.372,76.062,186.715,76.748,190.979,78.475z"/>
		<path style="fill:none;stroke:#000000;stroke-linecap:round;stroke-linejoin:round;stroke-miterlimit:10;" d="M157.86,102.013
			c2.4-1.01,4.354-3.034,5.278-5.468"/>
		<path style="fill:none;stroke:#000000;stroke-linecap:round;stroke-linejoin:round;stroke-miterlimit:10;" d="M153.311,139.404
			c5.163-3.77,11.785-4.907,18.172-5.191c6.387-0.284,12.835,0.17,19.14-0.886c2.744-0.46,5.472-1.218,7.884-2.605
			c6.163-3.547,9.452-10.894,9.594-18.003"/>
		<ellipse style="fill:none;stroke:#000000;stroke-miterlimit:10;" cx="185.835" cy="93.791" rx="9.824" ry="10.615"/>
		
			<ellipse style="fill:none;stroke:#000000;stroke-width:0.5;stroke-miterlimit:10;" cx="188.407" cy="93.725" rx="6.857" ry="8.044"/>
		<path d="M188.802,99.637c-2.678,0-4.857-2.712-4.857-6.044c0-3.333,2.179-6.044,4.857-6.044c2.678,0,4.857,2.711,4.857,6.044
			C193.659,96.926,191.481,99.637,188.802,99.637z"/>
		<path style="fill:none;stroke:#000000;stroke-linecap:round;stroke-linejoin:round;stroke-miterlimit:10;" d="M207.083,73.88
			c9.699,16.165,12.497,35.562,12.808,54.411c0.311,18.849-1.653,37.715-0.57,56.535c0.543,9.448,1.895,18.994,5.722,27.649
			c3.827,8.655,10.378,16.402,19.085,20.107"/>
		<path style="fill:none;stroke:#000000;stroke-miterlimit:10;" d="M209.181,53.778c10.08,7.068,16.177,18.523,20.41,30.084
			c13.856,37.842,10.852,81.514-8.053,117.104"/>
		<path style="fill:none;stroke:#000000;stroke-linecap:round;stroke-linejoin:round;stroke-miterlimit:10;" d="M229.05,82.644
			c1.722,10.872-0.927,22.374-7.232,31.397"/>
		<path style="fill:none;stroke:#000000;stroke-linecap:round;stroke-linejoin:round;stroke-miterlimit:10;" d="M232.901,94.134
			c-1.065,9.759-4.893,19.201-10.926,26.945"/>
		<path style="fill:none;stroke:#000000;stroke-linecap:round;stroke-linejoin:round;stroke-miterlimit:10;" d="M236.077,109.747
			c0.019,8.244-3.082,16.458-8.544,22.633"/>
		<path style="fill:none;stroke:#000000;stroke-linecap:round;stroke-linejoin:round;stroke-miterlimit:10;" d="M238.176,131.718
			c-3.217,11.815-8.981,22.929-16.784,32.365"/>
		<path style="fill:none;stroke:#000000;stroke-linecap:round;stroke-linejoin:round;stroke-miterlimit:10;" d="M149.717,285.693
			c-6.118-8.656-6.786-19.939-6.697-30.538c0.345-41.205,8.934-82.325,25.113-120.223"/>
		<path style="fill:none;stroke:#000000;stroke-linecap:round;stroke-linejoin:round;stroke-miterlimit:10;" d="M167.943,134.668
			c0.358,5.928,0.438,11.872,0.24,17.807"/>
		<path style="fill:none;stroke:#000000;stroke-linecap:round;stroke-linejoin:round;stroke-miterlimit:10;" d="M190.139,259.963
			c-0.173-23.125,5.91-45.774,11.441-68.228c5.531-22.454,10.586-45.51,8.317-68.523"/>
		<path style="fill:none;stroke:#000000;stroke-linecap:round;stroke-linejoin:round;stroke-miterlimit:10;" d="M144.765,227.676
			c-5.574,2.877-12.744,1.488-17.603-2.479c-4.859-3.967-7.59-10.1-8.498-16.307c-1.366-9.335,1.188-19.181,6.92-26.674"/>
		<path style="fill:none;stroke:#000000;stroke-linecap:round;stroke-linejoin:round;stroke-miterlimit:10;" d="M121.481,195.964
			c0.436,2.794,0.881,5.621,1.984,8.224s2.948,5.004,5.514,6.191c3.563,1.649,7.901,0.655,11.164-1.53
			c3.263-2.184,5.672-5.398,8.016-8.548"/>
		<path style="fill:none;stroke:#000000;stroke-linecap:round;stroke-linejoin:round;stroke-miterlimit:10;" d="M129.569,210.516
			c-6.111-7.598-7.867-18.471-4.458-27.606"/>
		<path style="fill:none;stroke:#000000;stroke-miterlimit:10;" d="M143.624,236.86c-6.501,12.82-9.374,27.455-8.201,41.781"/>
		<path style="fill:none;stroke:#000000;stroke-miterlimit:10;" d="M135.506,278.174c-11.139,16.881-19.879,35.343-25.877,54.658"/>
		<path style="fill:none;stroke:#000000;stroke-linecap:round;stroke-miterlimit:10;" d="M109.563,332.895
			c-5.201,2.629-8.61,8.453-8.356,14.275c0.254,5.822,4.158,11.327,9.568,13.493"/>
		<path style="fill:none;stroke:#000000;stroke-linecap:round;stroke-miterlimit:10;" d="M111.076,360.535
			c2.231,12.451,3.857,25.01,4.871,37.618"/>
		<path style="fill:none;stroke:#000000;stroke-linecap:round;stroke-linejoin:round;stroke-miterlimit:10;" d="M115.896,397.375
			c-1.106,2.372-0.666,5.253,0.622,7.531c1.288,2.278,3.325,4.037,5.46,5.55c2.482,1.758,5.305,3.293,8.346,3.312
			c4.188,0.026,8.162-3.233,8.956-7.346"/>
		<path style="fill:none;stroke:#000000;stroke-linecap:round;stroke-linejoin:round;stroke-miterlimit:10;" d="M139.392,407.2
			c3.398-2.078,7.324-3.285,11.303-3.476"/>
		<path style="fill:none;stroke:#000000;stroke-linecap:round;stroke-linejoin:round;stroke-miterlimit:10;" d="M139.869,400.32
			c0.093-3.438-2.482-6.763-5.834-7.533"/>
		<path style="fill:none;stroke:#000000;stroke-linecap:round;stroke-linejoin:round;stroke-miterlimit:10;" d="M134.107,393.262
			c-4.612-12.046-6.986-24.946-6.964-37.845"/>
		<path style="fill:none;stroke:#000000;stroke-linecap:round;stroke-miterlimit:10;" d="M126.903,355.769
			c3.955-4.728,5.995-11.013,5.571-17.163"/>
		<path style="fill:none;stroke:#000000;stroke-linecap:round;stroke-miterlimit:10;" d="M132.381,343.952
			c5.659,1.037,11.264-2.141,15.524-6.006c4.261-3.865,7.827-8.561,12.659-11.682c4.831-3.12,10.59-4.442,16.27-5.339"/>
		
			<path style="fill:none;stroke:#000000;stroke-width:0.9645;stroke-linecap:round;stroke-linejoin:round;stroke-miterlimit:10;" d="
			M136.848,393.596c2.775-1.866,5.341-3.991,7.646-6.333"/>
		<path style="fill:none;stroke:#000000;stroke-linecap:round;stroke-linejoin:round;stroke-miterlimit:10;" d="M144.066,387.505
			c1.007-3.283,2.013-6.565,3.02-9.848c0.809-2.64,1.811-5.527,4.215-6.884c2.624-1.481,6.106-0.49,8.284,1.592
			s3.309,5.014,4.181,7.899c1.769,5.856,2.741,11.952,2.88,18.067c0.04,1.751-0.009,3.589-0.864,5.118
			c-1.35,2.417-4.435,3.423-7.187,3.124c-2.752-0.299-5.264-1.648-7.696-2.971"/>
		<path style="fill:none;stroke:#000000;stroke-miterlimit:10;" d="M150.752,404.042c2.736-4.34,4.015-9.582,3.585-14.694
			c-0.429-5.112-2.565-10.067-5.986-13.89c-0.221,0.221-0.442,0.441-0.663,0.662"/>
		<path style="fill:none;stroke:#000000;stroke-linecap:round;stroke-linejoin:round;stroke-miterlimit:10;" d="M149.874,296.142
			c11.716,18.241,31.97,30.733,53.529,33.015"/>
		<path style="fill:none;stroke:#000000;stroke-linecap:round;stroke-linejoin:round;stroke-miterlimit:10;" d="M185.082,283.644
			c-0.748,10.419,3.246,20.634,8.433,29.701c5.187,9.067,11.619,17.398,16.467,26.651c2.597,4.958,4.772,10.584,3.557,16.048"/>
		<path style="fill:none;stroke:#000000;stroke-linecap:round;stroke-linejoin:round;stroke-miterlimit:10;" d="M215.399,351.632
			c-5.274,10.05-4.038,23.16,3.021,32.048"/>
		<path style="fill:none;stroke:#000000;stroke-linecap:round;stroke-linejoin:round;stroke-miterlimit:10;" d="M218.413,383.487
			c2.523,9.728,3.461,19.866,2.766,29.892"/>
		
			<path style="fill:none;stroke:#000000;stroke-width:1.0134;stroke-linecap:round;stroke-linejoin:round;stroke-miterlimit:10;" d="
			M222.618,411.461c-3.573,4.202-5.475,9.861-5.185,15.432c0.29,5.571,2.767,10.99,6.755,14.778"/>
		
			<path style="fill:none;stroke:#000000;stroke-width:0.9963;stroke-linecap:round;stroke-linejoin:round;stroke-miterlimit:10;" d="
			M223.578,441.389c-0.17,10.6-4.381,21.088-11.602,28.899c-1.674,1.81-3.54,3.536-4.553,5.778
			c-1.013,2.242-0.913,5.219,0.992,6.789c1.12,0.924,2.632,1.197,4.073,1.404c9.686,1.391,19.591,1.263,29.237-0.379
			c2.551-0.434,5.359-1.153,6.743-3.324c1.115-1.748,0.987-4.046,0.242-5.977c-0.745-1.932-2.031-3.6-3.199-5.313
			c-6.346-9.311-9.479-20.738-8.76-31.957"/>
		
			<path style="fill:none;stroke:#000000;stroke-width:1.0077;stroke-linecap:round;stroke-linejoin:round;stroke-miterlimit:10;" d="
			M235.941,438.498c5.445-7.368,5.865-18.185,1.007-25.969"/>
		<path style="fill:none;stroke:#000000;stroke-linecap:round;stroke-linejoin:round;stroke-miterlimit:10;" d="M237.058,412.786
			c-0.747-10.02-1.495-20.041-2.242-30.061"/>
		<path style="fill:none;stroke:#000000;stroke-linecap:round;stroke-linejoin:round;stroke-miterlimit:10;" d="M234.673,383.049
			c3.487-4.134,5.591-9.414,5.902-14.813c0.311-5.399-1.172-10.886-4.161-15.393"/>
		<path style="fill:none;stroke:#000000;stroke-linecap:round;stroke-linejoin:round;stroke-miterlimit:10;" d="M238.599,356.898
			c-2.032-5.956-1.057-12.585,1.215-18.453c2.272-5.868,5.763-11.167,8.93-16.605c4.449-7.641,8.321-15.709,10.367-24.31
			c2.046-8.602,2.188-17.804-0.696-26.162"/>
		<path style="fill:none;stroke:#000000;stroke-width:1.007;stroke-miterlimit:10;" d="M216.494,464.505
			c1.853-3.202,6.006-4.564,9.719-4.131c3.713,0.433,7.073,2.329,10.198,4.352c3.126,2.023,6.19,4.24,9.719,5.458"/>
		<path style="fill:none;stroke:#000000;stroke-linecap:round;stroke-linejoin:round;stroke-miterlimit:10;" d="M242.698,332.375
			c11.001-2.203,22.057-4.421,32.569-8.342c10.512-3.922,20.547-9.657,28.073-17.978c6.906-7.635,11.527-17.226,19.068-24.234"/>
		<path style="fill:none;stroke:#000000;stroke-linecap:round;stroke-linejoin:round;stroke-miterlimit:10;" d="M248.179,331.174
			c3.22,11.923,9.941,22.879,19.11,31.152"/>
		<path style="fill:none;stroke:#000000;stroke-linecap:round;stroke-linejoin:round;stroke-miterlimit:10;" d="M267.263,362.067
			c-0.439,3.246-0.656,6.597,0.201,9.759s2.953,6.135,6.006,7.325"/>
		<path style="fill:none;stroke:#000000;stroke-linecap:round;stroke-linejoin:round;stroke-miterlimit:10;" d="M272.864,378.815
			c1.656,10.923,2.727,21.935,3.207,32.972"/>
		<path style="fill:none;stroke:#000000;stroke-linecap:round;stroke-linejoin:round;stroke-miterlimit:10;" d="M276.073,411.582
			c-2.614,5.062-1.825,11.681,1.906,15.987"/>
		<path style="fill:none;stroke:#000000;stroke-linecap:round;stroke-linejoin:round;stroke-miterlimit:10;" d="M277.987,427.602
			c1.827,5.823,2.538,11.994,2.081,18.08"/>
		<path style="fill:none;stroke:#000000;stroke-miterlimit:10;" d="M280.078,445.435c-2.901,4.051-5.352,8.424-7.293,13.013
			c-0.639,1.511-1.205,3.319-0.347,4.717c0.641,1.044,1.89,1.521,3.069,1.853c8.105,2.281,16.801,0.907,24.885-1.446
			c0.821-0.239,1.708-0.538,2.169-1.258c0.677-1.057,0.118-2.446-0.489-3.545c-2.731-4.951-6.305-9.435-10.523-13.202
			c0.07,0.174,0.14,0.347,0.21,0.521"/>
		<path style="fill:none;stroke:#000000;stroke-linecap:round;stroke-linejoin:round;stroke-miterlimit:10;" d="M291.078,445.959
			c-1.648-6.264-2.729-12.678-3.225-19.136"/>
		<path style="fill:none;stroke:#000000;stroke-linecap:round;stroke-linejoin:round;stroke-miterlimit:10;" d="M287.861,427.176
			c2.393-5.807,1.387-12.877-2.53-17.786"/>
		<path style="fill:none;stroke:#000000;stroke-linecap:round;stroke-linejoin:round;stroke-miterlimit:10;" d="M285.881,409.646
			c-2.032-6.885-1.678-14.269-0.441-21.34c1.236-7.072,3.328-13.967,4.75-21.003c0.299-1.48,0.566-3.032,0.147-4.483
			c-0.42-1.451-1.739-2.756-3.246-2.644"/>
		<path style="fill:none;stroke:#000000;stroke-linecap:round;stroke-linejoin:round;stroke-miterlimit:10;" d="M285.597,362.737
			c4.483-12.03,8.545-24.216,12.177-36.529"/>
		<path style="fill:none;stroke:#000000;stroke-linecap:round;stroke-linejoin:round;stroke-miterlimit:10;" d="M294.547,314.019
			c4.994,18.797,11.407,37.216,19.167,55.05"/>
		<path style="fill:none;stroke:#000000;stroke-linecap:round;stroke-linejoin:round;stroke-miterlimit:10;" d="M313.627,368.371
			c-4.124,14.606-7.092,29.539-8.867,44.612"/>
		<path style="fill:none;stroke:#000000;stroke-linecap:round;stroke-linejoin:round;stroke-miterlimit:10;" d="M304.769,412.266
			c-1.889,3.845-2.521,8.739-0.05,12.239c1.463,2.072,3.825,3.37,6.274,4.03c2.449,0.66,5.011,0.746,7.546,0.829"/>
		<path style="fill:none;stroke:#000000;stroke-linecap:round;stroke-linejoin:round;stroke-miterlimit:10;" d="M318.415,429.522
			c5.538,1.194,11.143,2.082,16.779,2.66"/>
		<path style="fill:none;stroke:#000000;stroke-linecap:round;stroke-linejoin:round;stroke-miterlimit:10;" d="M322.26,406.641
			c1.222,1.332,1.979,3.083,2.112,4.885"/>
		<path style="fill:none;stroke:#000000;stroke-linecap:round;stroke-linejoin:round;stroke-miterlimit:10;" d="M322.474,406.904
			c1.826-9.309,4.515-18.448,8.022-27.262"/>
		<path style="fill:none;stroke:#000000;stroke-linecap:round;stroke-linejoin:round;stroke-miterlimit:10;" d="M330.358,379.982
			c2.659-5.807,5.318-11.613,7.977-17.42c1.223-2.67,2.475-5.562,1.916-8.445c-0.649-3.347-4.006-5.943-7.408-5.729"/>
		<path style="fill:none;stroke:#000000;stroke-linecap:round;stroke-linejoin:round;stroke-miterlimit:10;" d="M324.124,411.207
			c4.206,1.825,8.638,3.13,13.163,3.876"/>
		<path style="fill:none;stroke:#000000;stroke-linecap:round;stroke-linejoin:round;stroke-miterlimit:10;" d="M334.762,432.189
			c1.496,4.221,3.78,8.161,6.699,11.556c1.35,1.57,2.982,3.102,5.029,3.414c2.016,0.307,4.067-0.676,5.48-2.146
			c1.413-1.47,2.283-3.373,2.994-5.284c1.825-4.9,4.476-24.642,0.124-27.016"/>
		<path style="fill:none;stroke:#000000;stroke-linecap:round;stroke-linejoin:round;stroke-miterlimit:10;" d="M336.836,415.008
			c8.89-0.975,16.368-4.023,18.648-2.03"/>
		<path style="fill:none;stroke:#000000;stroke-miterlimit:10;" d="M228.729,219.605c9.99,5.794,21.535,8.478,33.046,9.398
			c11.512,0.92,23.083,0.15,34.61-0.546c10.722-0.647,22.28-1.021,31.269,4.861c5.16,3.377,8.913,8.503,12.127,13.767
			c3.679,6.026,6.836,12.461,8.369,19.353c1.533,6.892,1.357,14.302-1.431,20.789"/>
		<path style="fill:none;stroke:#000000;stroke-linecap:round;stroke-linejoin:round;stroke-miterlimit:10;" d="M346.837,286.765
			c-7.347,20.106-11.665,40.344-13.995,61.623"/>
		
			<path style="fill:none;stroke:#000000;stroke-width:0.9983;stroke-linecap:round;stroke-linejoin:round;stroke-miterlimit:10;" d="
			M343.569,296.242c-1.703,13.795-2.273,27.915,0.695,41.492c2.968,13.578,9.757,26.663,20.686,35.205
			c10.929,8.543,26.285,11.897,39.125,6.676c10.184-4.141,17.859-13.118,22.464-23.128c4.605-10.01,6.454-21.058,7.704-32.011
			c0.688-6.029,1.204-12.181-0.008-18.127c-1.212-5.946-4.385-11.742-9.593-14.827c-3.424-2.028-7.609-2.848-10.461-5.628
			c-4.544-4.43-3.854-12.126-0.875-17.736c1.123-2.115,2.698-4.222,4.998-4.867c2.3-0.646,5.264,1.009,5.086,3.399"/>
		<path style="fill:none;stroke:#000000;stroke-linecap:round;stroke-linejoin:round;stroke-miterlimit:10;" d="M418.911,263.141
			c1.582-0.015,3.032,1.42,3.032,3.002c0,1.582-1.449,3.018-3.031,3.003"/>
		<path style="fill:none;stroke:#000000;stroke-linecap:round;stroke-linejoin:round;stroke-miterlimit:10;" d="M419.143,269.285
			c2.597,1.331,6.101-0.412,7.026-3.18s-0.471-5.983-2.879-7.633c-2.408-1.649-5.592-1.881-8.41-1.124
			c-2.819,0.757-5.319,2.409-7.558,4.28c-3.768,3.15-7,7.091-8.628,11.724c-1.629,4.634-1.505,10.009,0.997,14.235
			c2.498,4.218,6.995,6.872,9.88,10.835c4.543,6.241,4.394,14.947,1.597,22.142c-1.727,4.443-4.501,8.649-8.578,11.118
			c-4.077,2.469-9.601,2.871-13.522,0.161c-3.305-2.284-4.968-6.264-6.078-10.125c-3.48-12.096-3.135-25.262,0.972-37.159"/>
		<path style="fill:none;stroke:#000000;stroke-linecap:round;stroke-linejoin:round;stroke-miterlimit:10;" d="M336.01,242.367
			c4.41-5.909,10.704-10.564,17.888-12.229c7.183-1.665,15.224-0.093,20.749,4.789c6.933,6.125,8.917,15.998,10.174,25.163
			c1.16,8.46,1.991,17.355-1.144,25.298"/>
		<path style="fill:none;stroke:#000000;stroke-width:1.004;stroke-linecap:round;stroke-linejoin:round;stroke-miterlimit:10;" d="
			M341.678,250.365c8.417-4.994,19.417-5.399,28.185-1.037c8.767,4.362,15.018,13.35,16.017,23.029"/>
		
			<path style="fill:none;stroke:#000000;stroke-width:1.0018;stroke-linecap:round;stroke-linejoin:round;stroke-miterlimit:10;" d="
			M344.232,254.285c10.604-0.612,20.891,5.417,27.145,13.971c6.255,8.554,8.882,19.302,9.359,29.875"/>
		
			<path style="fill:none;stroke:#000000;stroke-width:1.0078;stroke-linecap:round;stroke-linejoin:round;stroke-miterlimit:10;" d="
			M348.951,276.937c10.157,4.244,16.746,13.998,21.591,23.758c4.844,9.76,8.684,20.245,15.931,28.436"/>
		
			<path style="fill:none;stroke:#000000;stroke-width:1.0056;stroke-linecap:round;stroke-linejoin:round;stroke-miterlimit:10;" d="
			M345.857,290.461c7.68,10.976,8.337,25.257,11.868,38.22c2.934,10.77,8.144,21.111,16.201,28.754
			c8.057,7.644,19.16,12.348,30.158,11.283c10.998-1.065,21.521-8.463,25.057-19.047"/>
		<path style="fill:none;stroke:#000000;stroke-width:0.996;stroke-linecap:round;stroke-linejoin:round;stroke-miterlimit:10;" d="
			M407.28,327.725c4.403-6.243,8.882-12.639,10.973-19.97c2.092-7.331,1.388-15.903-3.725-21.589"/>
		<path style="fill:none;stroke:#000000;stroke-width:1.0181;stroke-miterlimit:10;" d="M274.6,454.58
			c1.375-2.666,4.507-4.192,7.593-4.415c3.086-0.223,6.143,0.667,9.012,1.785c2.868,1.118,5.648,2.478,8.631,3.272"/>
		<path style="fill:none;stroke:#000000;stroke-width:1.0166;stroke-miterlimit:10;" d="M338.742,439.929
			c0.498-4.741,3.145-8.938,5.557-13.05c2.411-4.112,4.719-8.612,4.426-13.37"/>
		<path style="fill:none;stroke:#000000;stroke-linecap:round;stroke-linejoin:round;stroke-miterlimit:10;" d="M123.65,216.334
			c2.379,3.251,6.098,5.489,10.084,6.067c3.986,0.578,8.188-0.51,11.393-2.951"/>
		<path style="fill:none;stroke:#000000;stroke-linecap:round;stroke-linejoin:round;stroke-miterlimit:10;" d="M169.245,76.96
			c-0.201,1.17,0.066,2.414,0.728,3.4c0.662,0.986,1.713,1.702,2.873,1.959"/>
		<polygon style="fill:#FFFFFF;" points="180.231,89.967 189.066,92.802 180.692,98.407 		"/>
	</g>
</g>
</svg>
