<?xml version="1.0" encoding="utf-8"?>
<!-- Generator: Adobe Illustrator 27.5.0, SVG Export Plug-In . SVG Version: 6.00 Build 0)  -->
<svg xmlns="http://www.w3.org/2000/svg" xmlns:xlink="http://www.w3.org/1999/xlink" viewBox="0 0 500 500" width="595" height="842" preserveAspectRatio="xMidYMid meet" data-scaled="true">
<g id="BACKGROUND">
	<rect style="fill:#FFFFFF;" width="500" height="500"/>
</g>
<g id="OBJECTS">
	<g>
		<g>
			<path d="M442.123,72.754c0.501-4.521,0.962-9.106,0.326-13.636c-0.806-6.284-3.598-13.584-10.164-15.651
				c-3.999-1.255-8.252-1.262-12.394-0.929c-4.498,0.268-8.965,0.861-13.429,1.459c-20.799,2.777-41.409,7.059-61.527,13.036
				c-9.294,2.659-18.55,5.49-27.581,8.95c-14.069,5.197-27.748,11.34-41.371,17.594c-13.578,6.231-27.154,12.506-40.34,19.538
				c-8.867,4.577-17.536,9.548-25.687,15.319c-2.275,1.615-4.506,3.29-6.706,5.002c-3.02-1.467-4.975-3.678-7.487-6.368
				c-4.328-4.57-8.092-9.734-12.981-13.738c-6.037-4.897-13.185-8.391-20.708-10.315c-2.111-0.507-4.264-0.872-6.427-1.059
				c-3.01-0.332-3.786,1.722-3.795,3.6c0.173,2.421,1.007,4.73,1.802,7.004c1.011,2.671,2.023,5.346,3.197,7.95
				c2.033,3.986,3.652,6.572,4.678,10.929c0.747,3.405,0.519,8.253,1.615,12.49c0.677,2.946,1.736,5.785,2.477,8.714
				c0.978,4.16,1.372,7.11,1.111,11.566c-0.052,1.797-0.403,3.361-0.487,4.107c-0.058,0.739-0.343,1.511-0.165,2.04
				c-2.051,2.626-4.032,5.304-5.91,8.057c-3.278,5.046-6.104,10.379-8.682,15.813c-3.046,6.456-5.569,13.14-7.995,19.849
				c-5.012,13.432-9.061,27.239-11.73,41.332c-1.357,6.854-1.63,13.858-1.597,20.829c0.031,0.719-0.02,1.451-0.017,2.173
				c-0.474,0.244-0.953,0.478-1.443,0.693c-4.153,1.864-11.483,4.163-16.725,6.143c-10.77,4.259-21.442,8.765-31.963,13.61
				c-11.275,5.115-21.148,11.621-30.582,18.863c-8.939,6.414-18.394,14.333-24.54,22.631c-0.552,0.807-1.351,1.516-1.627,2.462
				c-0.073,0.451,0.271,0.907,0.703,1.031c0.173,0.044,0.351,0.029,0.519-0.022c0.279,0.23,0.678,0.31,1.034,0.092
				c3.783-2.099,8.219-3.151,12.94-4.154c4.45-0.93,8.873-1.982,13.331-2.873c17.642-3.439,34.098-5.66,51.769-7.255
				c11.176-1.079,22.361-2.05,33.538-3.117c2.321-0.18,4.645-0.368,6.967-0.586c8.136,7.846,16.413,15.605,25.595,22.23
				c8.005,5.734,16.802,10.295,25.86,14.122c7.639,3.196,15.542,5.696,23.504,7.949c1.173,0.343,2.35,0.672,3.528,0.998
				c3.075,5.139,7.14,9.65,11.709,13.505c3.45,2.888,6.782,5.417,11.335,7.388c5.326,2.387,2.071-4,1.124-6.228
				c-1.01-2.32-0.94-1.976-1.259-2.951c-0.037-0.143-0.063-0.29-0.101-0.433c-0.008-0.055-0.019-0.113-0.031-0.155
				c-0.025-0.121-0.053-0.228-0.075-0.3c-0.005-0.021-0.015-0.04-0.021-0.061c0.57,0.382,1.147,0.754,1.737,1.106
				c2.705,1.635,5.681,2.737,8.606,3.903c3.029,1.276,6.149,2.294,9.286,3.264c4.218,1.447,9.921,2.891,13.42,3.188
				c0.452,0.015,1.492,0.301,2.481,0.216c1.674-0.375,0.8-2.249,0.079-3.151c-1.801-2.161-4.174-3.764-6.121-5.789
				c-1.866-1.831-3.622-3.77-5.41-5.677c2.005,0.121,4.011,0.227,6.018,0.329c1.55,2.285,3.334,4.42,5.457,6.194
				c0.901,0.687,1.764,1.521,2.835,1.924c0.913,0.231,1.556-0.474,1.962-1.2c0.734-1.38,0.961-2.32,1.433-3.28
				c0.261-0.637,0.819-1.456,1.066-1.789c0.011-0.012,0.109-0.134,0.176-0.23c0.024-0.033,0.049-0.065,0.074-0.098
				c0.034-0.022,0.361-0.382,0.395-0.52c0.037-0.073,0.056-0.15,0.065-0.228c1.838,0.134,3.675,0.284,5.51,0.466
				c7.887,0.835,15.465,1.318,22.6,2.666c2.298,0.462,4.608,0.861,6.886,1.418c0.621,0.147,1.241,0.295,1.862,0.444
				c3.28,1.721,4.962,3.344,7.876,6.447c3.188,3.394,6.019,6.8,8.357,9.984c4.679,6.468,9.088,13.149,13.117,20.041
				c4.814,8.416,9.187,17.118,14.767,25.07c4.641,6.982,10.54,12.986,17.072,18.211c4.014,3.203,7.938,6.582,12.412,9.138
				c0.542,0.296,1.065,0.691,1.687,0.777c0.806,0.097,1.434-0.724,1.281-1.496c-0.519-2.148-2.179-4.571-2.575-5.906
				c-3.45-9.583-3.827-18.478-4.49-28.63c-0.412-7.144-1.206-14.257-2.328-21.323c-1.331-8.461-2.52-16.958-4.329-25.333
				c-0.597-2.438-1.279-4.855-2.111-7.224c-0.448-1.421-1.141-2.768-1.472-4.223c0.634-4.794,4.576-14.819,7.102-21.177
				c1.847-4.859,3.46-9.803,4.956-14.78c1.632-5.37,3.124-10.793,4.18-16.308c0.251-1.32,0.541-2.631,0.781-3.953
				c0.051-0.374,0.177-0.756-0.003-1.104c3.612,1.725,7.067,3.776,10.755,5.334c4.767,1.743,8.42,0.027,10.062-4.91
				c0.463-1.226,0.813-2.512,0.824-3.831c-0.02-1.709-0.47-3.383-0.982-5.003c-2.008-5.797-5.472-10.93-8.99-15.904
				c-1.873-2.48-3.824-4.912-5.858-7.273c0.016-0.17,0.026-0.33,0.017-0.3c0.011-0.113,0.017-0.227,0.028-0.34
				c0.019-0.223-0.017,0.083-0.03,0.177c0.109-0.844,0.199-1.692,0.242-2.543c0.377-5.46,0.564-10.948,0.102-16.409
				c-0.156-1.253-0.299-2.585-1.031-3.65c-0.674-0.915-2.079-1.091-2.87-0.225c-0.683,0.733-1.004,1.711-1.405,2.611
				c-0.271,0.642-0.969,2.313-1.691,3.624c-1.151,2.271-2.83,4.591-4.023,6.241c-0.34-0.297-0.673-0.602-1.018-0.894
				c-4.386-3.6-9.073-6.82-13.671-10.142c-3.852-2.758-7.58-5.693-11.579-8.242c-2.423-1.607-5.119-2.727-7.723-4.002
				c-0.59-0.25-1.129-0.603-1.69-0.91c1.204-1.048,2.398-2.108,3.572-3.189c5.817-5.335,11.111-11.199,16.614-16.848
				c8.177-8.368,16.096-17.209,21.815-27.48c2.853-5.761,4.992-11.866,7.021-17.958c2.631-8.586,4.573-17.375,6.365-26.168
				c0.104-0.703,0.193-1.408,0.278-2.113c0.192,0.014,0.386-0.019,0.556-0.124c0.7-0.764,5.462-6.72,8.158-10.644
				c3.046-4.598,5.807-9.383,8.428-14.234c3.255-6.047,6.129-12.615,6.48-19.557c-0.004-2.338-0.424-4.652-0.487-6.988
				c-0.097-3.124,0.013-6.253,0.092-9.377C440.447,85.606,441.442,79.193,442.123,72.754z M164.374,126.938
				c-0.113-3.885-0.807-7.611-2.404-11.172c-0.706-1.845-1.74-3.531-2.655-5.273c-1.203-2.42-1.62-3.615-2.639-6.149
				c-1.165-3.104-2.793-6.753-2.745-9.294c0.094-0.622,0.144-0.846,0.402-1.028c0.941-0.186,1.977,0.003,3.423,0.244
				c7.086,1.31,12.537,3.546,18.603,7.168c4.928,2.962,8.326,6.216,12.274,10.696c3.456,3.708,6.723,7.644,10.601,10.923
				c0.765,0.628,1.628,1.112,2.503,1.567c-7.262,5.767-14.122,12.035-20.604,18.673c-4.45,4.532-8.728,9.248-12.747,14.171
				c0.34-1.89,0.538-3.126,0.639-5.215c0.105-4.185-0.693-8.355-1.849-12.362C165.702,135.323,164.563,131.055,164.374,126.938z
				 M48.27,310.801c4.212-3.077,8.366-6.234,12.714-9.12c11.492-7.82,25.26-13.489,37.184-18.57
				c5.274-2.112,10.501-4.347,15.822-6.339c5.277-1.914,10.663-3.531,15.802-5.808c2.69-1.146,5.048-2.909,7.475-4.511
				c3.041-2.084,5.809-3.994,8.986-6.721c4.964-3.999,9.402-8.574,13.52-13.43c1.03-1.236,2.086-2.465,3.099-3.717
				c0.845,5.228,4.586,11.619,8.676,15.79c3.037,3.018,6.672,5.327,10.23,7.673c0.461,0.303,0.762,0.505,0.988,0.693
				c-0.255,0.133-0.516,0.256-0.772,0.386c-1.599,0.811-3.034,1.294-5.109,1.964c-8.532,2.634-17.4,4.061-25.813,7.113
				c-7.487,2.454-14.823,5.352-22.354,7.676c-6.354,1.941-12.846,3.384-19.219,5.263c-8.144,2.254-15.998,5.406-23.862,8.471
				c-7.894,3.252-15.553,7.055-23.211,10.82c-8.981,4.602-18.193,8.821-26.781,14.141c-1.809,1.138-3.732,2.587-5.559,4.093
				C35.492,320.726,42.141,315.269,48.27,310.801z M246.629,380.483c-0.905-0.429-2.414-1.192-3.521-1.848
				c-5.333-3.24-9.334-6.574-13.787-11.181c-1.765-2.085-3-3.598-4.365-5.583c3.862,1.023,7.75,1.943,11.658,2.77
				c0.046,0.079,0.098,0.156,0.171,0.224c2.384,2.414,4.939,4.681,7.721,6.627c-0.233,0.019-0.458,0.139-0.58,0.353
				c-0.183,0.436-0.08,0.283-0.097,0.968c0.075,1.001,0.054,1.12,0.507,2.238C245.139,377.043,246.187,378.942,246.629,380.483z
				 M272.072,374.948c1.881,2.022,5.59,4.993,7.126,6.658c-1.168-0.223-2.337-0.448-3.5-0.698c-9.122-2.058-18.654-5.304-26.304-9
				c-3.416-1.874-5.469-3.482-8.199-5.84c-0.242-0.208-0.474-0.428-0.709-0.643c4.233,0.82,8.488,1.529,12.762,2.107
				c4.421,0.635,8.862,1.039,13.311,1.344c0.281,0.319,0.621,0.636,0.877,0.948C268.971,371.542,270.473,373.29,272.072,374.948z
				 M285.499,371.924c-0.646,1.139-1.026,2.424-1.722,3.532c-1.213-0.747-1.648-1.144-2.728-2.078
				c-1.531-1.39-2.541-2.541-3.551-3.887c3.112,0.158,6.223,0.321,9.331,0.527C286.31,370.593,285.869,371.245,285.499,371.924z
				 M403.359,264.952c0.82-1.436,1.329-3.035,2.145-4.469c0.327,0.841,0.557,3.45,0.571,5.445c0.215,4.444-0.042,8.884-0.328,13.319
				c-0.002,0.084-0.008,0.169-0.012,0.254c-2.3-2.543-4.704-4.99-7.237-7.295C400.331,269.941,401.996,267.529,403.359,264.952z
				 M370.416,254.065c3.485,2.294,6.792,4.838,10.167,7.287c4.734,3.42,9.852,6.963,13.735,10.145
				c5.804,4.831,10.843,10.512,15.599,16.357c4.006,5.324,9.598,13.081,11.169,20.005c0.775,2.451-0.142,5.038-1.345,7.416
				c-1.448,2.719-4.735,2.681-8.816,0.43c-3.385-1.707-6.717-3.518-10.168-5.093c-4.432-2.128-7.714-3.545-12.4-5.176
				c-4.197-1.375-8.453-2.567-12.66-3.914c-9.562-2.901-19.217-5.643-29.205-6.555c-9.307-1.18-18.722-0.503-28.071-1.006
				c-10.698-0.31-21.408-0.357-32.103,0.073c-5.608,0.214-10.027-0.279-15.19,1.755c-0.287,0.105-0.524,0.199-0.745,0.289
				c3.617-2.673,7.5-5.008,11.757-7.4c8.898-5.131,17.959-9.112,26.847-12.755c6.555-2.68,13.351-4.73,19.875-7.487
				c6.043-2.574,11.77-5.858,17.154-9.613c4.74-3.353,9.352-6.907,13.78-10.67C362.459,249.597,367.251,251.777,370.416,254.065z
				 M277.673,300.908c-0.795-0.873-1.83-1.614-3.041-1.697c-1.831,0.018-3.659,0.197-5.493,0.152
				c-0.827,0.01-1.464-0.009-2.038-0.048c0.04-0.017,0.084-0.035,0.138-0.06c0.909-0.351,1.832-0.661,2.742-1.009
				c1.375-0.513,2.751-1.058,4.194-1.352c1.733-0.376,4.67-0.586,7.783-0.584c6.558-0.021,13.109-0.471,19.669-0.35
				c8.276-0.042,16.543,0.275,24.816,0.43c4.82,0.13,9.646,0.002,14.462,0.288c3.921,0.21,8.199,0.843,11.231,1.241
				c5.86,0.887,11.585,2.415,17.273,4.068c-0.045,0.045-0.088,0.088-0.128,0.136c-0.034,0.032-0.064,0.061-0.096,0.091
				c-0.471,0.294-0.914,0.835-1.405,1.26c-1.345,1.352-2.731,2.664-4.001,4.088c-3.705,4.088-6.335,8.961-8.991,13.757
				c-3.082,5.133-6.178,10.275-9.646,15.16c-3.335,4.471-7.844,10.571-12.359,11.632c-0.629,0.116-0.985,0.223-1.264,0.26
				c-0.358-0.169-0.817-0.246-1.223-0.347c-1.096-0.283-2.464-0.842-2.726-0.973c-3.741-1.926-7.423-3.978-11.121-5.986
				c-4.965-3.029-9.873-6.164-14.69-9.422c-3.052-2.12-4.746-3.597-7.64-5.755c-4.157-2.948-7.919-5.731-11.376-8.53
				c-2.008-1.657-4.009-3.325-6.068-4.918c0.449,0.103,0.968-0.051,1.207-0.491c0.237-0.414,0.422-2.483,0.68-4.437
				C278.783,305.323,279.229,302.714,277.673,300.908z M275.869,311.133c-0.029,0.234-0.041,0.473,0.074,0.683
				c0.014,0.039,0.039,0.069,0.057,0.104c-0.65-0.493-1.303-0.982-1.969-1.455c-2.207-1.638-4.573-3.046-6.794-4.665
				c-1.481-1.03-2.484-2.053-4.182-3.362c0.091-0.099,0.184-0.2,0.282-0.305c0.402-0.405,0.807-0.799,1.215-1.187
				c2.967,0.605,8.047,0.611,9.84,0.447c0.956,0.157,1.337,0.704,1.739,1.117c0.626,0.725,0.463,3.179,0.149,5.453
				c-0.14,1.274-0.223,1.541-0.413,3.162C275.868,311.132,275.868,311.134,275.869,311.133z M435.79,120.043
				c-3.06,6.993-7.061,13.554-11.069,20.038c-2.848,4.37-5.728,7.771-8.08,10.95c-0.572-0.239-1.33,0.162-1.311,0.852
				c-0.264,3.042-1.341,6.918-2.214,10.564c-1.211,4.825-2.332,9.674-3.698,14.458c-1.268,4.571-2.864,9.042-4.594,13.456
				c-1.666,4.462-3.263,8.205-6.178,12.479c-5.903,9.139-13.229,16.795-21.141,24.946c-7.005,7.446-14.016,14.949-22.071,21.286
				c-6.491,5.283-13.437,10.529-21.458,14.627c-6.217,3.334-12.152,5.207-19.077,7.721c-10.463,3.83-20.769,8.218-30.584,13.501
				c-6.923,3.775-13.778,7.776-19.728,12.997c-2.745,2.398-5.187,5.178-6.991,8.356c-0.333,0.619-0.667,1.238-0.956,1.878
				c-0.163,0.288-0.278,0.612-0.178,0.942c0.158,0.626,0.942,0.944,1.494,0.608c0.298-0.158,0.421-0.478,0.562-0.764
				c0.304-0.597,0.628-1.183,0.965-1.762c0.953-1.549,1.602-2.471,2.459-3.483c0.01,0.011,0.018,0.022,0.029,0.032
				c5.419,5.152,11.145,8.384,15.946,12.516c5.509,4.778,12.44,9.59,17.478,13.42c4.788,3.858,10.024,7.083,15.195,10.391
				c3.453,2.315,7.112,4.28,10.79,6.208c2.129,1.143,4.183,2.454,6.466,3.28c0.875,0.313,1.765,0.609,2.685,0.753
				c0.16,0.025,0.32,0.05,0.48,0.065c-0.094-0.013-0.188-0.025-0.283-0.038c0.164,0.037,0.327,0.074,0.491,0.031
				c0.121-0.007,0.235-0.047,0.342-0.102c1.709-0.074,3.443-0.55,4.32-1.042c3.683-2.023,6.36-5.416,8.964-8.63
				c4.269-5.476,7.816-11.465,11.424-17.384c1.628-2.722,3.012-5.588,4.747-8.246c2.049-3.143,3.449-4.995,6.08-7.664
				c1.006-0.957,1.947-1.98,2.934-2.956c0.117-0.125,0.257-0.233,0.39-0.348c0.486-0.337,0.971-0.677,1.457-1.013
				c0.075-0.065,0.16-0.125,0.247-0.183c1.646,0.486,3.29,0.976,4.934,1.457c3.6,1.183,7.275,2.127,10.872,3.318
				c4.55,1.544,7.699,2.88,11.998,4.89c0.309,0.132,0.613,0.275,0.919,0.413c-0.17,0.037-0.331,0.115-0.459,0.248
				c-0.358,0.349-0.272,0.885-0.397,1.333c-1.432,7.069-3.451,14.007-5.532,20.909c-2.31,8.017-5.385,15.772-8.248,23.599
				c-0.934,2.671-1.76,5.381-2.547,8.099c-0.318,1.548-1.055,3.17-0.62,4.756c1.303,4.001,2.721,7.976,3.569,12.108
				c1.673,8.171,2.864,16.433,4.151,24.671c1.104,7.066,1.739,13.095,2.19,20.538c0.621,9.51,1.174,19.23,4.462,28.261
				c0.496,1.397,1.647,3.568,2.297,4.766c-0.216-0.133-0.432-0.265-0.645-0.404c-3.619-2.315-5.977-4.371-9.381-7.132
				c-3.917-3.159-7.701-6.489-11.155-10.153c-4.359-4.706-7.742-9.86-11.341-15.731c-4.558-7.635-8.537-15.601-13.212-23.166
				c-6.224-9.677-12.522-19.476-20.881-27.477c-1.541-1.439-6.07-4.743-6.872-4.934c-2.222-0.573-4.453-1.102-6.705-1.544
				c-8.264-1.811-16.731-2.319-25.126-3.205c-14.532-1.41-30.498-1.243-43.932-3.513c-9.207-1.354-18.305-3.348-27.276-5.809
				c-0.109-0.138-0.25-0.249-0.421-0.297c-0.186-0.057-0.367-0.033-0.527,0.037c-1.714-0.477-3.425-0.965-5.13-1.476
				c-14.852-4.243-28.026-9.41-41.133-17.605c-9.07-5.728-16.359-11.952-24.395-19.289c-1.754-1.555-3.471-3.175-5.21-4.747
				c6.739-0.7,13.438-1.727,19.946-3.672c3.308-0.98,6.453-2.455,9.358-4.314c0.635-0.393,1.248-0.818,1.869-1.231
				c0.361-0.207,0.588-0.644,0.505-1.053c-0.042-0.517-0.528-0.914-1.038-0.917c-0.511,0.001-0.889,0.411-1.312,0.645
				c-0.959,0.621-1.926,1.228-2.911,1.808c-2.543,1.458-4.052,2.085-6.917,2.987c-12.701,3.798-24.911,3.858-38.245,5.278
				c-22.439,2.025-44.916,3.934-67.102,7.977c-6.096,1.022-12.139,2.329-18.165,3.703c-3.607,0.834-7.258,1.494-10.797,2.599
				c-1.106,0.329-2.207,0.679-3.284,1.09c2.16-1.934,4.215-3.713,6.645-5.297c8.339-5.539,17.593-9.525,26.475-14.097
				c7.598-3.795,15.221-7.555,22.993-10.982c4.745-1.959,11.281-4.514,16.923-6.503c9.637-3.419,19.695-5.409,29.44-8.461
				c10.603-3.413,20.928-7.713,31.741-10.454c6.345-1.565,13.856-3.174,19.114-5.52c1.875-0.837,5.189-1.836,2.124-4.11
				c-3.547-2.463-6.998-4.444-9.795-7.027c-3.286-3.005-6.118-7.082-7.803-11.064c3.013,1.879,5.989,1.257,8.88-0.863
				c2.314-1.548,4.485-3.518,5.649-6.096c1.056-2.451,1.348-5.152,2.115-7.698c1.291-4.534,2.612-9.279,4.483-12.859
				c0.525-0.869,0.433-0.823,0.969-1.304c0.005-0.003,0.008-0.005,0.012-0.008c0.881-0.286,2.56-0.135,4.018-0.254
				c5.177-0.317,10.434-1.328,15.058-3.757c3.383-1.772,6.317-4.249,9.497-6.34c2.309-1.571,5.07-2.078,8.183-2.995
				c2.934-0.955,5.823-2.159,8.496-3.708c5.327-3.017,9.647-7.443,13.761-11.91c4.508-4.887,8.907-9.874,13.456-14.723
				c10.248-10.382,21.34-20.899,32.444-29.087c4.101-3.114,8.6-5.629,13.057-8.185c6.806-4.104,13.26-6.844,20.261-9.572
				c3.823-1.493,7.604-3.119,11.114-5.263c5.19-3.048,9.98-6.714,15.041-9.963c8.648-5.459,17.767-10.127,26.751-15
				c6.16-3.405,12.223-6.388,18.293-8.537c6.208-2.374,11.755-3.637,18.056-3.75c5.828-0.037,10.413,0.169,14.932,3.004
				c3.101,1.783,5.91,3.496,6.691,5.844c0.053,0.07,0.107,0.14,0.162,0.209l-0.142-0.184c0.056,0.074,0.11,0.148,0.17,0.219
				c0.081,0.092,0.181,0.163,0.279,0.237c0.134,0.113,0.298,0.178,0.471,0.197c-0.048,2.386-0.054,4.772,0.018,7.156
				c0.082,2.245,0.476,4.473,0.453,6.723C438.793,111.637,436.877,117.559,435.79,120.043z M438.468,89.202
				c-0.04,0.913-0.074,1.827-0.105,2.742c-0.998-1.474-3.054-3.207-4.646-4.172c-2.237-1.386-4.519-2.808-7.064-3.549
				c-3.099-0.883-6.357-1-9.562-1.052c-6.861-0.073-13.657,1.323-20.033,3.824c-6.651,2.372-12.981,5.536-19.151,8.949
				c-8.478,4.582-17.051,9.021-25.256,14.085c-5.265,3.289-10.182,7.108-15.509,10.301c-3.997,2.467-7.328,3.89-11.318,5.456
				c-7.269,2.811-14.435,5.933-21.101,9.998c-4.376,2.486-8.764,4.981-12.776,8.035c-8.257,6.088-15.95,12.917-23.307,20.058
				c-3.788,3.759-7.752,7.34-11.302,11.333c-4.026,4.373-7.966,8.825-12.004,13.188c-4.096,4.415-7.888,8.213-12.745,11.012
				c-2.99,1.721-5.043,2.581-8.204,3.628c-2.789,0.848-5.728,1.422-8.218,3.008c-3.222,2.096-6.148,4.637-9.522,6.499
				c-3.342,1.903-7.712,3.009-11.251,3.423c-1.616,0.213-3.247,0.262-4.875,0.277c-1.446,0.006-3.144-0.165-4.079,1.175
				c-1.373,1.772-2.108,3.939-2.905,6.01c-1.124,3.059-2.093,6.173-2.945,9.319c-0.591,2.04-0.91,4.159-1.6,6.168
				c-0.022,0.056-0.044,0.112-0.065,0.168c-0.115,0.255-0.236,0.507-0.364,0.756c-0.108,0.189-0.202,0.387-0.322,0.569
				c-0.152,0.255-0.327,0.495-0.503,0.734c-0.088,0.107-0.203,0.25-0.246,0.312c-2.539,2.93-5.918,5.12-8.307,4.962
				c-0.279-0.012-0.544-0.078-0.796-0.19c-0.029-0.013-0.058-0.026-0.084-0.038c-0.771-0.302-1.413-0.92-2.201-1.15
				c-0.239-0.054-0.482,0.03-0.67,0.184c-0.308-0.925-0.552-1.836-0.71-2.715c-0.129-0.678,0.043-1.582-0.611-2.005
				c-0.055-0.033-0.112-0.047-0.169-0.067c-0.057-0.08-0.125-0.151-0.211-0.199c-0.268-0.162-0.644-0.113-0.862,0.111
				c-7.146,8.674-15.534,16.732-24.253,22.608c-2.237,1.483-4.415,3.099-6.725,4.478c0.015-6.524,0.072-13.015,1.096-18.905
				c2.352-13.383,6.08-26.511,10.655-39.298c4.293-12.014,8.306-22.87,14.655-33.996c4.639-8.207,9.845-14.629,15.82-21.531
				c12.621-14.196,26.274-26.757,41.765-36.913c6.018-3.999,12.317-7.543,18.726-10.873c8.159-4.411,16.478-8.513,24.864-12.473
				c20.256-9.522,39.523-18.608,60.234-26.273c8.333-3.109,16.849-5.701,25.398-8.148c16.757-4.981,33.844-8.8,51.099-11.596
				c7.886-1.236,14.605-2.264,22.684-2.932c5.623-0.412,10.958-0.627,15.177,1.844c1.484,0.938,2.807,2.472,3.831,4.443
				c3.169,5.73,3.276,13.263,2.343,20.645C439.658,77.354,438.748,83.25,438.468,89.202z"/>
			<polygon points="416.289,151.503 416.32,151.463 416.32,151.463 			"/>
		</g>
		<path d="M412.678,51.87c-0.694,0.012-1.389,0.019-2.081,0.077c-2.359,0.225-4.723,0.5-7.039,1.009
			c-3.528,0.785-6.879,2.136-10.166,3.613c-7.043,3.009-13.659,6.925-19.91,11.338c-9.921,6.919-18.848,15.219-26.214,24.826
			c-2.807,3.63-5.714,7.294-7.756,11.409c-0.133,0.75,0.976,1.161,1.355,0.468c3.195-5.513,5.997-8.852,9.882-13.616
			c5.184-6.29,11.013-12.019,17.445-17.03c9.407-7.507,21.505-14.927,33.074-18.688c3.506-1.034,6.276-1.452,9.624-1.762
			c0.63-0.056,1.262-0.095,1.894-0.131c0.311,0.01,0.632-0.166,0.736-0.467C413.772,52.383,413.257,51.765,412.678,51.87z"/>
		<path d="M313.072,90.59c-0.477-1.226-1.395-2.219-2.398-3.045c-1.04-0.905-2.143-1.774-3.408-2.342
			c-0.57-0.216-1.176-0.552-1.797-0.49c-0.769,0.048-1.216,1.018-0.815,1.658c0.177,0.322,0.479,0.452,0.801,0.548
			c-0.484,0.153-0.95,0.376-1.418,0.564c-2.101,0.977-3.82,2.996-4.372,5.257c-0.484,2.18-0.213,4.453,0.523,6.546
			c0.55,1.663,1.364,3.272,2.691,4.451c2.309,2.262,6.1,1.381,8.076-0.887c1.073-1.119,1.629-2.592,2.163-4.02
			C314.071,96.208,314.038,93.204,313.072,90.59z M308.975,89.012c-0.035,0.338,0.101,0.654,0.313,0.92
			c0.003,0.006,0.008,0.014,0.012,0.02c0.016,0.049,0.034,0.097,0.046,0.147c0.005,0.073,0.011,0.145,0.007,0.218
			c-0.025,0.116-0.059,0.23-0.1,0.341c-0.056,0.11-0.163,0.315-0.243,0.412c-0.58,0.715-0.972,1.065-1.674,0.842
			c-0.102-0.056-0.198-0.12-0.293-0.186c-0.066-0.06-0.155-0.143-0.222-0.219c-0.065-0.094-0.122-0.193-0.172-0.296
			c-0.011-0.033-0.021-0.063-0.037-0.116c-0.007-0.031-0.013-0.056-0.018-0.08c-0.01-0.839,0.143-0.883,1.745-1.912
			c0.049-0.03,0.088-0.063,0.129-0.096c0.151-0.002,0.299-0.014,0.445-0.048C308.935,88.976,308.953,88.993,308.975,89.012z"/>
		<path d="M277.085,265.362c-0.344-0.579-0.973-0.455-1.524-0.318c-0.68,0.123-1.351,0.289-2.029,0.423
			c-4.549,0.771-5.296,0.835-9.974,1.307c-3.589,0.338-7.202,0.526-10.806,0.368c-4.318-0.19-8.601-0.819-12.884-1.366
			c-7.83-1.345-18.723-2.834-27.653-3.69c-5.688-0.692-10.319-0.626-15.649-2.658c-3.972-1.66-8.884-5.448-9.994-9.939
			c-0.732-2.33-0.524-4.326-0.063-6.624c0.496-2.407,1.203-4.796,1.426-7.244c-0.036-0.663-1.1-0.745-1.244-0.085
			c-0.532,4.545-2.775,9.007-1.787,13.637c0.668,4.104,3.64,7.305,6.917,9.642c3.906,2.859,8.759,3.891,13.488,4.401
			c11.921,1.227,22.497,2.464,34.215,4.518c4.615,0.613,9.231,1.329,13.89,1.49c5.111,0.177,10.224-0.301,15.288-0.959
			c2.251-0.321,4.505-0.665,6.708-1.236C276.251,266.78,277.646,266.598,277.085,265.362z"/>
		<path d="M265.622,271.606c-0.386-1.095-1.704-0.366-2.528-0.338c-1.066,0.193-4.275,0.722-4.445,0.733
			c-8.8,1.296-17.685,0.1-26.469-0.747c-8.924-1.007-19.669-1.785-27.722-2.595c-3.663-0.391-8.26-1.703-11.003-2.91
			c-1.013-0.483-2.013-1.006-2.937-1.645c-0.602-0.343-1.112-0.91-1.762-1.131c-0.684-0.134-1.064,0.902-0.428,1.239
			c9.337,7.292,21.767,6.412,32.916,7.788c5.813,0.551,11.617,1.178,17.43,1.729c6.469,0.674,13.03,1.035,19.495,0.137
			c1.853-0.235,3.687-0.59,5.519-0.95C264.474,272.712,265.861,272.765,265.622,271.606z"/>
		<g>
			<path d="M385.575,168.278c-0.001,0.007-0.003,0.016-0.004,0.023c-0.002,0.013-0.002,0.024-0.004,0.037
				C385.569,168.313,385.572,168.296,385.575,168.278z"/>
			<path d="M385.575,168.278C385.593,168.172,385.594,168.143,385.575,168.278L385.575,168.278z"/>
			<path d="M405.65,161.1c-0.071-0.264-0.275-0.429-0.521-0.512c-1.553-0.582-2.183-0.807-3.65-1.348
				c-1.404-0.539-3.675-1.889-5.689-2.576c-3.392-1.239-7.013-1.627-10.577-2.061c-5.387-0.551-10.848-0.644-16.242-0.15
				c-6.109,0.62-12.206,1.579-18.36,1.569c-2.967-0.038-5.909-0.501-8.873-0.612c-4.678-0.055-9.411,0.004-14.022,0.861
				c-5.359,1.328-9.207,5.383-14.083,4.817c-3.2-0.304-6.429-0.757-9.629-0.191c-4.866,0.74-9.117,3.566-12.927,6.537
				c-1.257,1.011-2.515,2.023-3.705,3.113c-0.346,0.343-0.869,0.609-0.866,1.152c0,0.009,0.004,0.016,0.004,0.025
				c-0.136,0.435,0,0.952,0.452,1.173c0.104,0.222,0.309,0.391,0.607,0.38c3.348-0.118,5.763,0.306,8.76,0.705
				c4.161,0.54,8.332,1.071,12.531,1.182c7.861,0.186,15.717,0.007,23.56-0.538c7.076-0.298,14.147-0.724,21.193-1.457
				c6.105-0.586,12.212-1.2,18.338-1.517c8.774-0.316,17.587-0.689,26.249-2.21c1.045-0.285,2.247-0.334,3.128-1.003
				c0.042-0.025,0.082-0.051,0.119-0.081c0.005-0.004,0.009-0.006,0.005-0.005c0.172-0.144,0.291-0.345,0.338-0.563
				c0.647-0.715,1.063-1.644,1.609-2.436c0.72-1.187,1.414-2.389,2.119-3.585C405.636,161.569,405.721,161.333,405.65,161.1z
				 M303.064,173.038c-1.75-0.139-3.503-0.354-5.258-0.564c0.143-0.051,0.288-0.096,0.428-0.154c1.2-0.979,2.685-2.613,3.646-3.345
				c0.405,0.701,0.552,1.653,0.742,2.803c0.053,0.536,0.48,1.136,1.08,0.956c0.497-0.153,0.777-0.631,1.119-0.989
				c0.755-0.857,1.829-2.306,2.426-3.142c0.453,0.74,1.205,2.085,1.612,2.788c0.381,0.535,0.711,1.417,1.472,1.431
				c0.824-0.028,1.021-1.003,1.377-1.586c0.879-1.54,1.589-4.003,2.414-4.696c0.025,0.017,0.049,0.034,0.068,0.049
				c0.288,0.429,1.271,1.461,1.866,2.445c0.606,0.693,1.584,3.141,2.728,2.108c0.545-0.877,0.474-1.343,0.836-1.961
				c0.506-1.148,1.025-2.29,1.54-3.433c0.792,0.965,1.908,2.524,2.502,4.019c-0.18-0.402,0.285,0.777,0.382,0.994
				c0.289,0.502,1.069,0.494,1.324-0.035c0.621-1.477,0.851-3.067,1.112-4.639c0.405,0.545,0.851,1.191,1.281,1.895
				c0.398,0.648,0.76,1.317,1.125,1.984c0.262,0.99,0.545,1.974,0.831,2.956c-3.559,0.192-7.12,0.362-10.682,0.454
				C313.711,173.378,308.373,173.552,303.064,173.038z M331.216,172.84c0.279-0.467,0.279-1.079,0.432-1.594
				c0.14-0.606,0.26-1.217,0.383-1.827c0.04-0.093,0.08-0.179,0.117-0.251c0.495-1.199,0.993-3.211,1.187-4.654
				c0.492,0.662,0.958,1.396,1.528,2.281c0.589,0.842,1.105,1.766,1.715,2.607c0.008,0.018,0.014,0.037,0.022,0.055
				c0.534,1.193,0.637,1.41,1.075,2.54c0.014,0.031,0.026,0.063,0.039,0.094c0.013,0.113,0.028,0.227,0.052,0.338
				c0.004,0.015,0.012,0.027,0.016,0.041C335.594,172.593,333.405,172.718,331.216,172.84z M343.673,172.151
				c-1.398,0.069-2.796,0.144-4.193,0.222c0.026-0.147,0.02-0.303-0.012-0.448c-0.007-0.017-0.016-0.033-0.022-0.05
				c0.001-0.001,0.006,0.007,0.006,0.004c-0.013-0.036-0.03-0.073-0.046-0.11c0.061-0.435,0.111-0.872,0.16-1.309
				c0.031-0.266,0.096-0.67,0.178-1.148c0.006-0.02,0.013-0.04,0.018-0.06c1.017-2.93,1.703-6.973,2.018-9.878
				c1.699,2.306,2.273,4.269,3.089,7.08c0.283,0.879,0.429,1.832,0.718,2.72c0.221,1.079,0.433,2.049,0.595,2.78
				C345.345,172.023,344.509,172.09,343.673,172.151z M350.732,171.558c0.405-1.363,1.387-3.567,2.126-5.579
				c0.244,0.812,0.555,1.494,0.781,2.121c0.507,1.194,0.693,1.957,1.408,3.052C353.608,171.289,352.17,171.426,350.732,171.558z
				 M359.418,170.736c0.149-0.341,0.243-0.708,0.365-1.061c0.065-0.262,0.122-0.514,0.173-0.758c0.766-1.97,1.263-4.063,1.795-6.101
				c0.175-0.687,0.308-1.644,0.409-2.415c1.203,1.735,1.961,3.941,2.621,6.38c0.307,1.02,0.589,2.053,1.017,3.029
				c0.04,0.119,0.092,0.234,0.149,0.344C363.769,170.331,361.593,170.531,359.418,170.736z M370.598,169.833
				c1.467-2.278,2.184-4.982,2.898-7.573c0.071-0.332,0.241-1.042,0.378-1.616c0.358,0.627,0.593,1.22,0.797,1.879
				c0.186,1.158,0.355,2.149,0.535,3.115c0.047,0.254,0.217,2.78,0.328,3.618c-0.003,0.006-0.006,0.033-0.009,0.094
				c-0.002,0.077,0.013,0.149,0.03,0.219C373.887,169.653,372.226,169.738,370.598,169.833z M383.576,168.387
				c-0.014,0.28-0.021,0.548,0.036,0.766c-2.044,0.117-4.116,0.22-6.182,0.322c0.105-0.324,0.135-0.682,0.2-1.012
				c0.155-1.024,0.377-2.036,0.558-3.056c0.082-0.419,0.161-0.839,0.24-1.258c0.609-1.845,1.151-3.709,1.511-5.619
				c0.253,0.207,0.531,0.488,1.013,0.991c0.034,0.048,0.12,0.151,0.178,0.218c1.125,1.581,1.413,2.717,1.947,4.665
				c0.162,0.674,0.288,1.357,0.385,2.044c0.032,0.244,0.072,0.533,0.159,0.79c-0.023,0.307-0.05,0.615-0.081,0.921
				C383.542,168.242,383.557,168.317,383.576,168.387z M385.379,169.047c0.005-0.017,0.015-0.03,0.019-0.048
				c0.012-0.051,0.023-0.102,0.033-0.153c0.065-0.173,0.114-0.406,0.139-0.545c0.058-0.365,0.095-0.713,0.119-1.05
				c0.069-0.24,0.145-0.511,0.248-0.85c0.114-0.5,0.215-0.97,0.309-1.426c0.665-1.917,0.814-4.354,0.982-5.898
				c0.442,0.474,0.47,0.659,1.004,1.429c0.589,0.946,1.034,1.977,1.687,2.884c0.679,0.966,2.353,2.841,2.616,3.181
				c0.47,0.532,0.711,1.227,1.177,1.753c0.017,0.014,0.033,0.023,0.049,0.036C391.114,168.651,388.285,168.866,385.379,169.047z
				 M400.438,164.165c-0.038,0.728-0.11,1.454-0.146,2.181c-0.024,0.188-0.029,0.41-0.01,0.634
				c-0.054,0.048-0.103,0.101-0.146,0.161c-0.008,0.008-0.008,0.009-0.014,0.016c-0.018,0.01-0.034,0.023-0.051,0.032
				c-0.076,0.041-0.153,0.079-0.233,0.113c0.29-0.132,0.135-0.058-0.041,0.02c-0.003,0.001-0.014,0.005-0.042,0.016
				c-1.209,0.368-2.462,0.566-3.71,0.749c-0.335,0.045-0.68,0.085-1.022,0.127c0.347-0.332,0.639-0.82,0.86-1.149
				c0.816-1.2,1.581-2.432,2.317-3.682c0.475-0.766,0.91-1.557,1.359-2.338c0.371,0.597,0.819,1.486,0.883,2.361
				C400.443,163.549,400.453,164.035,400.438,164.165z"/>
		</g>
	</g>
</g>
</svg>
