<?xml version="1.0" encoding="utf-8"?>
<!-- Generator: Adobe Illustrator 27.5.0, SVG Export Plug-In . SVG Version: 6.00 Build 0)  -->
<svg xmlns="http://www.w3.org/2000/svg" xmlns:xlink="http://www.w3.org/1999/xlink" viewBox="0 0 4000 3000" width="595" height="842" preserveAspectRatio="xMidYMid meet" data-scaled="true">
<g id="Layer_3">
	<rect style="fill:#FFFFFF;" width="4000" height="3000"/>
</g>
<g id="Layer_2">
	<g>
		<path style="fill:none;" d="M401.91,1577.479c-0.497,38.893,4.96,134.394,15.176,263.846
			c9.96,126.214,19.705,223.884,23.136,242.301c6.634-0.911,24.008-5.335,42.27-17.278c9.575-6.263,20.418-15.355,29.39-28.069
			c-22.79,16.975-53.765,31.695-58.642,33.972c-0.672,0.313-1.394,0.469-2.114,0.469c-0.93,0-1.855-0.259-2.666-0.77
			c-1.439-0.906-2.318-2.482-2.335-4.183l-4.956-517.535c-5.884-1.307-10.418-2.103-12.939-2.24
			C416.522,1547.388,405.382,1568.809,401.91,1577.479z"/>
		<path style="fill:none;" d="M553.396,1669.89l-101.107-2.753l0.172,17.91l100.126,1.384
			C552.874,1680.739,553.144,1675.215,553.396,1669.89z"/>
		<path style="fill:none;" d="M451.193,1552.625l0.229,23.879h73.384c-7.202-2.985-15.929-6.282-26.477-9.87
			C481.812,1561.016,464.655,1556.029,451.193,1552.625z"/>
		<path style="fill:none;" d="M516.712,2021.359l-61.016,1.511l0.353,36.911C473.08,2051.293,501.516,2035.55,516.712,2021.359z"/>
		<path style="fill:none;" d="M454.653,1914h82.965c0.399-4.736,0.798-9.574,1.195-14.5h-84.298L454.653,1914z"/>
		<path style="fill:none;" d="M455.6,2012.87l69.626-1.724c0.133-0.244,0.265-0.487,0.384-0.728
			c1.491-4.78,2.686-9.878,3.543-15.291l-73.697,2.713L455.6,2012.87z"/>
		<path style="fill:none;" d="M455.36,1987.836l75.185-2.767c0.546-4.304,1.1-9.012,1.66-14.068h-77.006L455.36,1987.836z"/>
		<path style="fill:none;" d="M455.103,1961h78.171c0.43-4.163,0.863-8.514,1.298-13.033l-79.607-1.397L455.103,1961z"/>
		<path style="fill:none;" d="M454.419,1889.5h85.19c0.4-5.092,0.798-10.263,1.194-15.5H454.27L454.419,1889.5z"/>
		<path style="fill:none;" d="M454.869,1936.567l80.642,1.415c0.416-4.527,0.833-9.192,1.251-13.982h-82.013L454.869,1936.567z"/>
		<path style="fill:none;" d="M1480.958,1804.558c-28.309-45.483-60.808-69.505-97.028-71.574
			c-65.041-3.716-211.404-8.807-348.043-7.577c-75.476,0.676-137.235,3.181-183.562,7.446c-72.154,6.643-88.88,16.066-92.722,19.81
			c-3.179,3.098-7.745,9.114-13.927,20.69c20.888-17.054,51.402-35.62,87.23-38.09c30.186-2.081,155.595-6.942,286.855-6.668
			c163.911,0.361,264.026,8.304,297.564,23.607C1442.034,1763.476,1463.476,1783.365,1480.958,1804.558z"/>
		<path style="fill:none;" d="M1315.69,1791.822l13.92-23.376c-58.938-0.365-397.095-2.457-465.545-2.874l14.044,18.099
			L1315.69,1791.822z"/>
		<ellipse style="fill:none;" cx="1364.625" cy="2047.5" rx="89.5" ry="87.125"/>
		<polygon style="fill:none;" points="2494.534,1802.375 2485.864,1599.761 1562,1604.194 1562,1802.375 		"/>
		<path style="fill:none;" d="M452.194,1657.131l101.665,2.768c0.26-5.758,0.495-11.24,0.703-16.399H452.063L452.194,1657.131z"/>
		<path style="fill:none;" d="M545.684,1586.505h-94.166l0.177,18.495h103.977c0.031-5.458-0.075-9.062-0.336-10.454
			C555.053,1593.142,552.378,1590.408,545.684,1586.505z"/>
		<path style="fill:none;" d="M822.05,1982.186c-8.802,1.428-30.833,17.388-79.481,108.237
			c-13.786,25.745-26.428,51.459-35.769,71.059c61.359,1.904,475.236,14.159,662.443,4.525
			c55.625-2.863,93.387-20.333,112.237-51.926c33.554-56.234-2.583-140.55-6.947-150.257c-5.912-4.924-52.208-41.883-107.186-44.957
			c-45.148-2.51-89.457,31.571-108.38,46.13c-1.702,1.309-3.147,2.42-4.412,3.374c-0.528,2.097-1.487,6.18-2.478,11.691
			l-0.038,2.187c-0.049-0.001-0.174-0.003-0.342-0.006c-2.134,12.626-4.178,31.587-2.159,51.607
			c3.157,31.303,14.802,54.999,34.72,70.839c-12.022-16.054-19.131-35.825-19.131-57.189c0-53.555,44.636-97.125,99.5-97.125
			s99.5,43.57,99.5,97.125s-44.636,97.125-99.5,97.125c-18.476,0-35.788-4.947-50.63-13.547
			c-43.787-13.629-69.526-46.987-74.436-96.504c-2.019-20.37-0.151-39.356,1.989-52.499
			C1179.143,1981.065,858.959,1976.201,822.05,1982.186z"/>
		<path style="fill:none;" d="M968.763,1532.377c174.36,4.824,734.534,6.636,1220.614,6.636c330.818,0,627.289-0.839,744.567-2.138
			c116.542-1.29,190.199-4.26,238.939-6.226c81.275-3.277,100.587-4.056,147.182,8.651c66.028,18.008,162.902,46.837,182.645,52.73
			c6.122-12.609,15.732-23.196,30.458-30.955c48.191-25.393,116.132-28.507,127.523-28.072c6.372,0.245,11.078,3.801,14.479,8.154
			c11.82-77.018-6.332-144.799-21.081-199.792c-4.481-16.711-8.715-32.495-11.737-47.103c-1.886-9.115-3.832-20.673-5.785-33.809
			c-4.361,112.13-54.32,126.999-56.644,127.624l-2.6-9.656c0.09-0.026,13.559-4.119,26.286-24.487
			c11.998-19.202,25.71-56.994,22.893-127.987c-2.295-57.83-25.401-101.145-70.754-130.767
			c14.874,13.355,27.177,28.809,36.575,46.102c19.027,35.013,25.677,77.09,18.724,118.479c-6.46,38.448-24.137,73.846-49.774,99.675
			c-27.938,28.146-63.098,43.167-101.678,43.437c-0.688,0.005-1.375,0.007-2.06,0.007c-36.595,0-69.238-6.866-97.055-20.417
			c-22.774-11.095-42.351-26.651-58.184-46.239c-10.134-12.536-17.397-25.038-22.532-35.834c-0.614,4.994-1.237,9.643-1.881,13.82
			c-2.534,16.448-5.112,28.19-15.27,29.459c-4.357,0.544-523.246,57.383-660.157,61.946c-116.389,3.88-566.396,5.266-894.977,6.278
			c-53.711,0.165-104.48,0.322-150.448,0.478c-2.82,0.01-5.695,0.014-8.535,0.015c-306.576,0.005-728.979-55.09-784.777-62.555
			c-31.063,44.62-82.133,73.791-139.761,73.791c-94.449,0-171.289-78.354-171.289-174.664c0-76.346,48.289-141.399,115.355-165.092
			c4.515-2.419,9.659-4.902,15.439-7.302c22.79-9.465,60.105-19.299,110.74-14.234c0.587-1.287,1.229-2.547,1.971-3.756
			c2.178-3.549,4.857-6.459,7.754-8.858c-40.643,1.424-72.553,2.568-90.989,3.277c-58.435,2.248-101.031,41.393-126.474,73.835
			c-25.995,33.145-39.938,66.276-41.836,70.941c-9.97,84.535-34.197,290.705-41.05,355.875c6.211-8.518,14.744-16.197,25.188-15.641
			c10.628,0.575,44.007,9.366,72.888,19.197c16.787,5.715,31.107,11.448,41.413,16.582c14.147,7.048,20.961,12.882,22.093,18.917
			c0.175,0.936,0.296,2.593,0.367,4.885c12.852-6.691,42.432-20.392,91.058-33.674
			C717.511,1547.271,821.126,1528.287,968.763,1532.377z"/>
		<path style="fill:none;" d="M2844.106,755.292c-59.448-75.631-78.383-85.664-82.77-86.938
			c-4.866-1.413-38.591-10.896-103.935-22.129l140.817,263.679c42.686-34.022,83.753-66.547,101.666-80.134
			C2889.915,815.861,2868.054,785.758,2844.106,755.292z"/>
		<path style="fill:none;" d="M1359.259,1017.466c-9.819-7.812-23.648-18.853-39.591-31.693l-82.952,35.803
			C1291.239,1019.744,1334.877,1018.282,1359.259,1017.466z"/>
		<path style="fill:none;" d="M454.175,1864h87.376c0.342-4.625,0.681-9.29,1.018-13.989l-88.542-1.43L454.175,1864z"/>
		<path style="fill:none;" d="M2067.854,606.875c-191.214,1.997-379.428,12.562-529.97,29.748c-1.853,0.212-3.689,0.424-5.52,0.636
			c-20.755,36.086-108.637,190.523-114.422,228.126c-2.631,17.104,1.053,31.446,11.264,43.845
			c29.757,36.135,115.214,57.297,253.996,62.898c91.666,3.7,206.919,5.536,322.576,5.536c215.68,0.001,432.893-6.38,502.078-18.959
			c76.508-13.91,124.411-51.12,143.731-81.303c7.113-11.113,10.364-21.613,8.696-28.085
			c-5.027-19.509-75.067-147.73-114.989-219.278C2402.691,612.849,2242.184,605.051,2067.854,606.875z"/>
		<ellipse style="fill:none;" cx="3459.561" cy="1252.809" rx="128.207" ry="116.821"/>
		<path style="fill:none;" d="M3385.895,1054.409c0.551,9.302,1.368,23.318-6.873,35.938c-0.056,0.091-0.109,0.182-0.168,0.271
			c-0.012,0.018-0.021,0.036-0.033,0.054c-0.05,0.075-0.107,0.145-0.158,0.218c-0.089,0.126-0.177,0.253-0.272,0.375
			c-1.168,1.548-2.735,2.852-4.991,4.042c-13.316,9.521-71.559,53.142-79.728,93.071c-4.239,20.725-7.363,50.853-10.12,77.434
			c-0.489,4.717-0.972,9.365-1.452,13.888c4.306,12.307,12.791,31.563,28.26,50.592c33.768,41.537,83.257,62.589,147.116,62.589
			c0.682,0,1.364-0.002,2.049-0.007c81.87-0.573,130.823-70.262,141.66-134.769c11.133-66.268-13.384-156.918-119.108-194.339
			c-27.924-7.521-60.019-12.613-96.41-15.332C3385.639,1050.059,3385.763,1052.18,3385.895,1054.409z M3597.768,1252.809
			c0,69.929-61.999,126.821-138.207,126.821c-76.207,0-138.206-56.892-138.206-126.821s61.999-126.821,138.206-126.821
			C3535.769,1125.988,3597.768,1182.88,3597.768,1252.809z"/>
		<path style="fill:none;" d="M704.67,1063.855c-1.491,2.442-2.533,5.155-3.152,8.117l-0.16,1.236
			c-0.023-0.003-0.045-0.005-0.068-0.008c-0.104,0.632-0.185,1.277-0.252,1.931c77.783,0.092,991.909,1.153,1750.052,1.153
			c391.705,0,741.637-0.283,913.321-1.129c2.302-6.206,1.894-13.224,1.518-19.565c-0.174-2.94-0.323-5.734-0.22-8.391
			c-21.043-1.038-43.408-1.353-67.125-0.95c-180.625,3.058-551.244-15.693-614.949-19.012c-0.979,0.786-1.938,1.557-2.871,2.307
			c-1.776,1.427-3.986,2.205-6.265,2.205H1380.75c-2.249,0-4.432-0.758-6.198-2.152c-0.45-0.356-1.542-1.218-3.2-2.531
			c-64.147,2.146-433.922,14.527-639.033,21.661C730.909,1048.861,712.615,1050.839,704.67,1063.855z"/>
		<path style="fill:none;" d="M2670.98,1011.75c13.099-10.524,66.406-53.329,119.288-95.508l-145.323-272.116
			c-23.548-3.885-50.762-7.927-81.772-11.879c-1.858-0.237-3.734-0.465-5.598-0.698c25.918,46.605,106.538,192.558,112.391,215.272
			c2.419,9.386-1.117,22.161-9.957,35.971c-20.456,31.957-70.698,71.267-150.365,85.751c-50.813,9.239-182.534,15.88-361.392,18.221
			c-45.64,0.597-92.483,0.889-138.972,0.889c-119.741,0-237.228-1.931-326.483-5.533c-76.722-3.097-138.076-11.032-182.355-23.585
			c-38.263-10.848-64.09-24.896-78.956-42.949c-12.125-14.724-16.518-31.643-13.429-51.723
			c5.816-37.8,85.723-179.45,111.923-225.144c-35.193,4.228-66.022,8.578-92.501,12.877L1280,927.725
			c47.002,38.59,92.772,74.948,104.228,84.025H2670.98z"/>
		<path style="fill:none;" d="M2845.055,1024.925l-101.643-45.626c-17.797,14.249-34.326,27.503-48.063,38.531
			C2723.479,1019.272,2778.131,1021.993,2845.055,1024.925z"/>
		<path style="fill:none;" d="M453.452,1788.5h93.273c0.302-4.744,0.599-9.475,0.891-14.188h-94.3L453.452,1788.5z"/>
		<path style="fill:none;" d="M453.678,1812.114l91.359,2.247c0.353-5.283,0.701-10.574,1.044-15.861h-92.534L453.678,1812.114z"/>
		<path style="fill:none;" d="M1308.872,681.282c-26.057,20.173-94.413,120.177-124.018,165.245
			c20.946,19.392,53.953,47.264,87.27,74.72l142.913-267.578C1353.309,664.2,1317.943,674.259,1308.872,681.282z"/>
		<path style="fill:none;" d="M453.931,1838.579l89.347,1.443c0.366-5.2,0.727-10.429,1.085-15.676l-90.589-2.228L453.931,1838.579z
			"/>
		<path style="fill:none;" d="M1504.448,1226.528c-27.627-8.168-56.526-19.857-82.643-36.611
			c-13.391-8.59-79.879-26.207-374.719-47.673c-68.467-4.985-136.062-9.201-192.315-12.457c1.826,8.999,5.62,22.693,13.377,37.295
			c17.847,33.599,47.153,55.865,87.102,66.181c100.879,26.05,405.799,59.488,462.887,53.886
			C1459.254,1283.118,1491.269,1244.931,1504.448,1226.528z"/>
		<path style="fill:none;" d="M451.967,1633.5h102.978c0.253-6.97,0.445-13.182,0.568-18.5H451.79L451.967,1633.5z"/>
		<path style="fill:none;" d="M452.702,1710.222h98.641c0.253-4.682,0.497-9.283,0.732-13.796l-99.518-1.376L452.702,1710.222z"/>
		<path style="fill:none;" d="M452.956,1736.75h96.906c0.321-5.587,0.633-11.102,0.934-16.528h-97.998L452.956,1736.75z"/>
		<path style="fill:none;" d="M453.22,1764.313h95.01c0.359-5.905,0.709-11.764,1.05-17.563h-96.228L453.22,1764.313z"/>
		<path style="fill:none;" d="M1381.125,1875c-53.986,0-87.719,12.968-106.511,23.846c-17.07,9.882-25.216,19.865-27.394,22.821
			c-0.474,6.32-0.9,29.601,0.425,39.383c1.552-1.154,3.402-2.578,5.223-3.979c19.805-15.236,66.19-50.892,115.036-48.188
			c48.755,2.726,89.715,29.478,106.325,41.969c-0.45-10.934-3.584-30.169-16.509-46.268
			C1441.959,1884.953,1416.189,1875,1381.125,1875z"/>
		<circle style="fill:none;" cx="2072.998" cy="2240.667" r="12.625"/>
		<path style="fill:none;" d="M1970.971,2237.736c0-9.109,5.413-16.972,13.189-20.556c-7.776-3.584-13.189-11.447-13.189-20.556
			c0-9.81,6.277-18.178,15.024-21.308c-6.501-2.326-11.633-7.548-13.841-14.104c-6.301,0.163-15.791,0.337-22.882,0.458
			c1.423,26.461,4.193,78.009,6.373,118.829h15.33c0-0.05-0.004-0.099-0.004-0.148c0-9.81,6.277-18.178,15.024-21.308
			C1977.248,2255.914,1970.971,2247.546,1970.971,2237.736z"/>
		<path style="fill:none;" d="M2053.937,2252.832c-2.683,4.189-6.705,7.441-11.46,9.143c4.756,1.702,8.777,4.953,11.46,9.143
			c2.683-4.19,6.705-7.441,11.46-9.143C2060.641,2260.273,2056.62,2257.021,2053.937,2252.832z"/>
		<path style="fill:none;" d="M2027.274,2261.975c-6.353-2.273-11.401-7.309-13.689-13.655c-2.632,4.952-7.049,8.814-12.388,10.725
			c6.353,2.273,11.401,7.309,13.689,13.655C2017.518,2267.748,2021.935,2263.885,2027.274,2261.975z"/>
		<path style="fill:none;" d="M2025.439,2220.111c-5.484-2.527-9.792-7.182-11.855-12.903c-2.324,4.372-6.04,7.893-10.553,9.973
			c5.484,2.527,9.792,7.182,11.855,12.903C2017.21,2225.712,2020.926,2222.191,2025.439,2220.111z"/>
		<path style="fill:none;" d="M2053.937,2211.72c-2.33,3.639-5.671,6.568-9.626,8.391c3.955,1.823,7.296,4.752,9.626,8.391
			c2.331-3.639,5.671-6.568,9.626-8.391C2059.608,2218.289,2056.267,2215.359,2053.937,2211.72z"/>
		<circle style="fill:none;" cx="2034.875" cy="2240.667" r="12.625"/>
		<path style="fill:none;" d="M3694.508,2158.892l-16.124,138.97l1.145,3.121c3,0.587,5.916,0.972,7.991,1.054
			c3.969-12.431,11.133-57.501,12.988-103.441C3701.179,2181.969,3698.331,2168.834,3694.508,2158.892z"/>
		<path style="fill:none;" d="M3652.146,1292.237c2.963,14.324,7.16,29.972,11.603,46.539
			c15.785,58.859,35.431,132.111,19.16,216.422l-0.811-0.156c0.494,1.604,0.742,2.69,0.785,2.887
			c0.093,0.423,0.13,0.855,0.111,1.288c-0.796,18.459-19.526,452.377-21.511,477.183c-2.133,26.661-27.252,42.615-40.438,42.615
			c-0.275,0-0.544-0.007-0.809-0.021c-11.81-0.622-63.572-27.592-75.118-48.584c-11.729-21.325-44.192-268.164-48.604-325.525
			c-0.299-3.886-0.613-7.761-0.926-11.615c-2.728-33.628-5.362-66.122,3.33-91.933c-21.655-6.462-116.542-34.675-181.485-52.387
			c-45.104-12.301-64.121-11.534-144.148-8.307c-48.798,1.968-122.543,4.941-239.23,6.233
			c-91.479,1.013-292.006,1.745-532.805,2.019v41.273l321.225-1.541l0.049,10l-226.654,1.088l8.778,205.114l39.033,29.908
			c13.708-49.439,44.44-122.986,106.695-128.447c40.983-3.595,174.389-8.753,318.449-10.818
			c97.684-1.398,268.917-2.225,318.204,7.988c23.015,4.769,46.864,27.406,70.887,67.284
			c26.782,44.459,53.457,109.944,73.185,179.665c14.467,51.127,27.385,114.524,20.254,139.127
			c-11.285,38.933-26.532,71.276-33.958,85.931l220.08-1.451l38.55-43.817c-0.429-1.286-0.612-2.663-0.489-4.067
			c15.37-176.151,44.027-516.556,42.478-544.068c-0.181-3.22-0.412-7.438-0.688-12.495c-2.775-50.75-10.148-185.558-18.726-245.143
			c-9.656-67.091-34.102-149.899-72.655-246.129C3631.557,1137.367,3642.647,1246.323,3652.146,1292.237z"/>
		<circle style="fill:none;" cx="1993.596" cy="2237.736" r="12.625"/>
		<path style="fill:none;" d="M3343.293,2393.12l18.406-161.354c-11.774,8.921-33.638,24.634-60.821,40.237
			c-38.101,21.869-94.807,48.026-148.584,48.448l-0.002-0.211c-8.678,4.186-17.771,8.091-27.249,11.646
			c21.911,7.309,58.809,19.397,96.866,30.889C3294.573,2384.717,3328.022,2391.383,3343.293,2393.12z"/>
		<path style="fill:none;" d="M2126.99,2161.115l-31.908,0.725c-1.691,7.625-7.237,13.814-14.483,16.407
			c8.747,3.13,15.024,11.498,15.024,21.308c0,9.109-5.413,16.972-13.189,20.556c7.776,3.584,13.189,11.447,13.189,20.556
			c0,9.81-6.277,18.178-15.024,21.308c7.802,2.792,13.634,9.752,14.803,18.185l24.864-1.71
			C2123.308,2234.779,2126.668,2182.618,2126.99,2161.115z"/>
		<path style="fill:none;" d="M3251.062,1979.161c-46.639-8.916-374.204-13.483-420.913-14.092
			c0.653,9.286,1.461,29.129-1.028,53.018c-1.617,15.515-4.861,34.254-11.199,52.982l0.06,0.02
			c-0.094,0.281-0.208,0.532-0.329,0.769c-6.017,17.537-14.764,35.024-27.474,49.8c-22.129,25.728-52.657,39.512-90.737,40.971
			c-34.302,1.315-65.347-4.078-92.282-16.026c-21.633-9.598-40.644-23.405-56.505-41.041c-14.378-15.987-23.479-32.08-28.9-43.825
			l-19.079,119.758l378.321-2.494c0.003-0.083,0.004-0.142,0.005-0.156l4.152,0.128l485.494-3.2
			C3348.553,2119.018,3289.464,1986.502,3251.062,1979.161z"/>
		<path style="fill:none;" d="M2479.267,2053.974c15.782-13.282,32.843-70.993,44.658-123.684l-970.108-2.072
			c12.671,44.105,20.217,83.527,24.26,104.65c0.564,2.951,1.058,5.531,1.485,7.699c5.021,25.492,66.301,104.561,115.54,168.093
			c44.303,57.163,73.508,95.267,83.498,115.545l169.812,8.682c-1.365-26.182-6.512-122.095-9.404-175.861
			c-0.021-0.378,0.002-0.758,0.068-1.131c0.066-0.382,7.138-38.147,47.083-40.884c36.341-2.489,106.812-0.034,107.519-0.009
			c0.159,0.006,0.317,0.02,0.476,0.04c14.623,1.924,42.396,12.943,42.847,40.876c0.429,26.624-8.255,145.352-10.977,181.764
			l181.754-2.114C2331.299,2292.523,2448.238,2080.089,2479.267,2053.974z"/>
		<path style="fill:none;" d="M2796.2,2247.55c-26.845,39.551-55.117,68.267-84.176,85.544c1.657,2.087,3.398,4.269,5.202,6.513
			c91.246-20.401,154.303-104.969,162.011-115.736c0.658-14.667,1.128-26.877,1.416-34.867l-50.715,0.334
			C2826.117,2197.336,2814.442,2220.673,2796.2,2247.55z"/>
		<path style="fill:none;" d="M2093.061,2124.988c-4.746-0.163-71.509-2.379-106.219,0c-23.417,1.604-32.741,17.659-36.15,26.656
			c7.083-0.124,15.02-0.277,20.455-0.407c1.372-11.171,10.913-19.852,22.449-19.852c9.791,0,18.146,6.252,21.29,14.973
			c3.804-7.156,11.335-12.042,19.989-12.042c8,0,15.037,4.177,19.062,10.46c4.024-6.284,11.062-10.46,19.062-10.46
			c10.721,0,19.717,7.498,22.038,17.523l31.462-0.715C2122.53,2129.969,2096.016,2125.427,2093.061,2124.988z"/>
		<path style="fill:none;" d="M823.306,2400.645c46.632-8.015,103.867-42.208,128.598-58.121
			c-58.689-18.798-100.061-54.042-125.127-81.497c-29.187-31.966-42.755-59.717-43.744-61.78l-77.942-0.277
			c0.166,1.155,0.347,2.471,0.546,3.977c0.772,5.853,1.792,14.444,3.032,25.536c2.085,18.642,4.827,44.628,8.148,77.238
			c4.043,39.686,7.982,79.736,9.918,99.551c0.736,1.761,1.397,3.217,1.967,4.316
			C735.172,2410.549,758.004,2411.868,823.306,2400.645z"/>
		<path style="fill:none;" d="M1480.914,1865.271c-17.877-68.071-76.203-105.25-82.175-108.9
			c-42.541-11.347-138.026-17.466-279-17.776c-115.919-0.278-227.155,3.513-272.087,5.827l8.617,11.104
			c46.826,0.281,463.423,2.859,482.138,2.975c1.793,0.011,3.443,0.981,4.324,2.543c0.881,1.562,0.859,3.475-0.059,5.016
			l-19.875,33.375c-0.903,1.516-2.536,2.441-4.295,2.441c-0.031,0-0.063,0-0.094-0.001l-442.875-8.25
			c-1.512-0.028-2.93-0.739-3.857-1.934l-36.146-46.581c-0.678,0.044-1.332,0.087-1.935,0.128
			c-45.05,3.107-82.206,34.83-99.458,52.324c-11.943,27.44-27.762,70.443-48.233,137.818
			c-24.19,79.615-43.052,155.084-44.71,165.536c1.965,8.745,22.281,51.018,41.361,87.973l0.461,0.002
			c5.372-11.877,26.251-57.454,50.714-103.144c16.673-31.14,31.741-56.269,44.785-74.688c17.198-24.284,30.915-36.958,41.935-38.745
			c38.26-6.204,358.073-1.281,421.402-0.238c-0.445-0.327-0.862-0.71-1.233-1.164c-1.312-1.6-3.754-4.579-3.871-28.311
			c-0.049-9.911,0.374-21.954,0.725-23.708c0.118-0.591,0.342-1.155,0.661-1.667c1.331-2.132,33.848-52.228,142.992-52.228
			c71.89,0,93.44,40.367,99.888,64.429c2.452,9.15,3.113,17.141,3.236,22.232c0.097,4.017-0.041,6.741-0.334,8.632
			c2.67,5.962,11.564,26.965,17.149,53.982c8.688,42.03,4.885,78.313-10.996,104.93c-20.667,34.637-61.145,53.743-120.311,56.788
			c-51.873,2.67-121.091,3.664-195.376,3.664c-201.955,0-441.43-7.344-472.246-8.317c-3.44,7.322-6.212,13.338-8.153,17.59
			l856.911,3.048C1542.995,2152.68,1498.503,1932.245,1480.914,1865.271z"/>
		<circle style="fill:none;" cx="2072.998" cy="2283.282" r="12.625"/>
		<path style="fill:none;" d="M421.331,2246.05c2.184-1.954,5.116-2.854,8.019-2.458l243.518,33.163l-11.205-77.939L432.482,2198
			c-1.809-0.007-3.474-0.99-4.353-2.572l-24.265-43.677l9.474,152.141c3.045-8.544,5.161-29.98,4.665-50.144
			C417.931,2250.818,419.147,2248.004,421.331,2246.05z"/>
		<path style="fill:none;" d="M689.135,2285.072c7.494,26.969,16.1,56.102,23.568,79.656
			c-7.054-71.11-15.054-148.574-17.706-165.794l-23.225-0.083l11.45,79.642C686.066,2279.637,688.289,2282.03,689.135,2285.072z"/>
		<path style="fill:none;" d="M401.297,2307.93c0.711-0.074,1.466-0.158,2.258-0.252l-10.507-168.731
			c-0.461-0.231-0.91-0.485-1.331-0.784c-1.409,1.019-3.889,3.389-7.005,8.749C380.719,2156.064,385.979,2219.622,401.297,2307.93z"
			/>
		<polygon style="fill:none;" points="698.985,2198.948 698.987,2198.948 698.987,2198.948 		"/>
		<circle style="fill:none;" cx="2034.875" cy="2283.282" r="12.625"/>
		<circle style="fill:none;" cx="1993.596" cy="2280.352" r="12.625"/>
		<circle style="fill:none;" cx="2034.875" cy="2199.556" r="12.625"/>
		<circle style="fill:none;" cx="1993.596" cy="2154.01" r="12.625"/>
		<circle style="fill:none;" cx="2034.875" cy="2156.94" r="12.625"/>
		<path style="fill:none;" d="M2001.197,2175.317c6.353,2.273,11.401,7.309,13.689,13.655c2.632-4.952,7.049-8.814,12.388-10.725
			c-6.353-2.273-11.401-7.309-13.689-13.655C2010.953,2169.544,2006.536,2173.407,2001.197,2175.317z"/>
		<path style="fill:none;" d="M2053.937,2187.391c2.683-4.19,6.705-7.441,11.46-9.143c-4.756-1.702-8.777-4.953-11.46-9.143
			c-2.683,4.189-6.705,7.441-11.46,9.143C2047.232,2179.95,2051.253,2183.201,2053.937,2187.391z"/>
		<circle style="fill:none;" cx="1993.596" cy="2196.625" r="12.625"/>
		<circle style="fill:none;" cx="2072.998" cy="2156.94" r="12.625"/>
		<circle style="fill:none;" cx="2072.998" cy="2199.556" r="12.625"/>
		<path style="fill:none;" d="M719.489,2427.863c-5.229-1.961-8.443-6.438-16.072-27.679c-3.994-11.119-8.95-26.348-14.73-45.262
			c-7.206-23.578-13.943-47.181-17.041-58.15l-233.661-31.82c-0.108,5.593-0.384,12.612-1.025,19.755
			c-1.599,17.8-5.282,38.563-19.702,41.138c-14.703,2.625-23.875,2.655-24.258,2.655c-4.848,0-8.997-3.477-9.845-8.25
			c-0.071-0.396-7.102-40.062-12.69-81.54c-11.706-86.887-5.906-96.905-3.119-101.72c6.388-11.034,12.867-16.182,18.498-18.287
			c-0.051-0.353-0.102-0.709-0.154-1.07c-12.995-90.375-22.642-166.789-29.728-231.333c-0.749,142.761-0.866,303.654,1.902,353.941
			c2.51,45.592,5.104,92.734,24.117,126.762c20.584,36.84,58.866,56.032,120.477,60.398c63.336,4.488,148.845,7.152,229.255,7.152
			c0.898,0,1.788,0,2.685-0.001c97.355-0.071,133.476-3.827,139.403-5.888c4.457-3.151,10.915-15.315,16.693-29.389
			c-20.805,9.437-43.041,17.513-63.799,21.081C794.113,2425.956,736.861,2434.378,719.489,2427.863z"/>
		<path style="fill:none;" d="M3317.704,940.504c41.72,1.701,140.794-6.029,167.265-8.189c0.889-4.295,5.147-29.324-11.234-49.515
			c-1.91-2.354-15.425-14.631-94.12-25.138c-45.997-6.141-89.088-8.291-98.75-7.697c-0.807,0.403-8.395,5.042-17.578,39.488
			c-4.416,16.561-7.218,32.763-8.098,38.152C3265.386,932.119,3286.11,939.215,3317.704,940.504z"/>
		<path style="fill:none;" d="M3659.389,2246.058l11.348,30.948l15.533-133.874c-1.423-2.055-2.752-3.732-3.875-5.032
			l-37.363,42.468l8.673,59.651C3656.279,2241.247,3658.386,2243.324,3659.389,2246.058z"/>
		<path style="fill:none;" d="M2995.578,818.969c-1.887-0.93-11.959-1.832-35.628,5.061c-18.178,5.293-34.584,12.391-40.793,16.381
			c-9,5.787-95.726,74.85-166.971,131.865l119.885,53.815c138.256,5.872,317.149,12.016,426.344,10.159
			c107.149-1.814,186.132,10.729,241.384,38.355c30.125,15.063,53.5,35.012,69.476,59.292c6.133,9.321,11.241,19.397,15.328,30.174
			c-5.059-46.429-9.209-90.786-11.125-111.858c-43.295-76.879-121.62-107.025-122.489-107.351c-1.554-0.583-2.878-1.519-3.922-2.682
			c-22.312,1.844-106.996,8.569-155.375,8.569c-5.272,0-10.112-0.08-14.395-0.255c-33.968-1.387-56.028-9.09-66.952-14.063
			c-0.148,0.094-0.29,0.198-0.444,0.285c-2.688,1.511-5.926,1.697-8.77,0.503C3200.819,920.3,3004.013,823.135,2995.578,818.969
			L2995.578,818.969z"/>
		<polygon style="fill:none;" points="3635.428,2184.029 3416.461,2185.472 3413.107,2259.258 3643.566,2240.003 		"/>
		<path style="fill:none;" d="M3383.884,2329.388c8.505-30.975,13.84-61.07,13.893-61.371c0.552-3.139,2.545-5.736,5.247-7.139
			l3.424-75.34l-29.433,0.194l-23.711,207.865c1.159-0.086,1.819-0.237,2.174-0.357
			C3356.668,2392.742,3368.209,2386.475,3383.884,2329.388z"/>
		<path style="fill:none;" d="M448.939,1161.309c-0.079,0.665-0.317,2.675-0.692,5.851c7.103-13.137,17.117-29.593,30.188-46.29
			c16.961-21.667,35.531-39.147,55.195-51.954c24.771-16.133,51.326-24.851,78.929-25.913
			c77.765-2.991,395.141-13.726,596.791-20.507l101.521-43.818c-54.589-44.086-128.253-104.749-154.064-131.482
			c-36.19-37.483-69.53-19.193-69.862-19.004l-0.001-0.001c-0.573,0.327-1.181,0.599-1.817,0.808
			c-0.378,0.124-38.947,13.06-86.099,44.334c-49.93,33.117-131.561,52.354-135.011,53.156c-2.29,0.532-4.665,0.228-6.729-0.802
			c-13.844,5.9-62.437,25.839-95.699,29.778c-7.849,0.929-18.963,1.301-31.69,1.301c-38.569,0-92.015-3.404-114.858-4.993
			c-1.298,0.414-2.681,0.567-4.069,0.424c-18.096-1.873-52.664,11.43-89.091,45.369c-15.131,14.098-33.318,34.256-51.604,62.105
			L448.939,1161.309z"/>
		<path style="fill:none;" d="M1107.086,803.564c15.704-0.256,39.297,4.574,63.164,28.786
			c22.704-34.394,95.685-143.121,126.378-166.883c3.797-2.939,15.351-11.885,77.778-24.603
			c41.703-8.496,97.448-16.834,161.209-24.113c151.204-17.262,340.149-27.873,532.03-29.877
			c462.615-4.83,689.822,59.529,699.268,62.271c10.683,3.102,31.941,16.204,92.965,93.846
			c24.645,31.356,47.091,62.317,56.875,75.981c9.959-4.854,24.009-10.187,37.605-14.146c10.313-3.003,18.528-4.74,25.088-5.652
			c-36.39-47.66-145.665-182.917-232.875-209.614c-120.086-36.761-561.96-93.843-1039.224-59.213
			c-253.019,18.36-407.167,97.267-491.928,160.229c-60.734,45.114-95.472,88.688-112.096,113.148
			C1104.546,803.643,1105.798,803.585,1107.086,803.564z"/>
		<path style="fill:none;" d="M621.998,942.213c34.16,2.274,109.933,6.696,138.414,3.322c30.402-3.6,76.053-21.954,91.358-28.382
			c-0.004-0.098-0.019-0.195-0.02-0.293c-0.036-2.387-1.398-58.95-46.08-59.861c-47.255-0.965-158.539,30.657-183.818,39.405
			c-0.058,9.418,0.017,28.461,0.147,45.771C622,942.188,621.998,942.2,621.998,942.213z"/>
		<path style="fill:none;" d="M2813.677,2049.5h-25.028c-0.404,4.878-1.153,9.659-2.232,14.315
			c9.294,0.347,18.419,0.645,23.128,0.732C2811.13,2059.543,2812.495,2054.51,2813.677,2049.5z"/>
		<path style="fill:none;" d="M2558.389,2099.206c34.115,37.722,81.442,55.701,140.67,53.431
			c35.177-1.348,63.275-13.956,83.517-37.473c10.342-12.016,17.946-26.06,23.517-40.694c-2.854-0.073-6.269-0.18-9.693-0.295
			c-4.826-0.163-9.635-0.341-12.829-0.462c-13.512,39.257-50.744,67.536-94.446,67.536c-55.071,0-99.875-44.903-99.875-100.097
			s44.804-100.097,99.875-100.097c31.859,0,60.281,15.028,78.581,38.382c9.19-8.448,30.136-27.605,39.036-34.951
			c-1.252-2.666-2.766-5.321-4.607-7.906c-12.284-17.245-35.631-26.863-69.39-28.589c-87.605-4.463-129.398,43.219-151.863,68.841
			c-3.245,3.702-6.049,6.899-8.571,9.458c-6.676,6.773-14.176,10.232-22.291,10.282c-0.057,0-0.114,0-0.171,0
			c-6.768,0-12.661-2.432-16.928-4.928l-8.061,50.597C2526.501,2047.547,2535.444,2073.834,2558.389,2099.206z"/>
		<path style="fill:none;" d="M2532.068,1890.505l-989.936,0.447c3.134,9.161,6.044,18.283,8.743,27.259l975.242,2.082
			C2528.345,1909.904,2530.347,1899.841,2532.068,1890.505z"/>
		<ellipse style="fill:none;" cx="2689.125" cy="2041.153" rx="89.875" ry="90.097"/>
		<path style="fill:none;" d="M2707.815,1864.49c-71.916,4.542-114.584,24.88-137.714,41.143
			c-12.094,8.503-20.235,16.797-25.428,23.107c-1.703,7.843-3.613,16.266-5.704,24.94l-4.326,27.156
			c4.837,3.829,17.653,11.517,30.547-1.564c2.317-2.352,5.031-5.446,8.174-9.031c11.24-12.819,28.227-32.192,53.802-47.598
			c30.523-18.386,66.221-26.676,106.09-24.637c36.964,1.889,62.879,12.915,77.024,32.773c4.708,6.608,7.612,13.473,9.422,19.944
			c-0.112-14.075-2.868-31.439-12.105-47.099C2790.449,1874.559,2756.878,1861.385,2707.815,1864.49z"/>
		<path style="fill:none;" d="M406.955,2125.058c0.171,1.218,0.298,2.146,0.378,2.771c0.416,3.224-0.21,5.589-1.244,7.337
			l29.359,52.845l224.603,0.799c-4.146-8.157-10.369-20.513-16.547-33.207c-22.379-45.97-22.379-51.374-22.379-54.603
			c0-7.745,21.663-92.188,44.725-168.412c33.168-109.621,60.015-174.976,79.796-194.25c7.662-7.466,26.867-18.222,104.845-25.401
			c46.875-4.315,109.19-6.849,185.216-7.53c137.124-1.229,284.058,3.878,349.363,7.61c52.923,3.024,97.934,43.443,133.986,120.229
			l32.944-28.173v-200.83l-236.101,1.133l-0.048-10l384.649-1.846v-45.153c-325.002-0.889-615.138-2.769-732.013-6.003
			c-146.048-4.043-248.458,14.638-308.647,31.02c-55.307,15.052-86.039,30.959-94.271,35.55
			c-0.874,67.921-16.512,317.768-26.244,385.889c-6.489,45.426-34.907,70.604-57.603,83.725
			c-17.563,10.154-35.679,15.162-43.805,15.163c-1.412,0-2.52-0.151-3.274-0.452c-3.123-1.249-3.672-4.489-4.504-9.394
			c-0.598-3.522-1.317-8.67-2.139-15.3c-1.583-12.776-3.53-30.854-5.787-53.731c-4.466-45.263-9.771-105.736-14.558-165.915
			c-4.528-56.933-19-245.771-15.133-285.413c5.937-60.848,46.107-400.182,46.511-403.603c0.017-0.147,0.042-0.294,0.072-0.439
			l15.528-73.964c-13.163,23.553-25.935,51.402-37.173,84.23c-54.819,160.13-56.377,254.368-59.205,425.446l-0.257,15.483
			c-1.193,71.013,6.077,216.117,47.487,504.118C406.128,2119.253,406.625,2122.713,406.955,2125.058z"/>
		<path style="fill:none;" d="M3282.971,1723.042c-80.244-16.627-542.201-4.606-630.847,3.17
			c-41.537,3.643-66.846,48.708-81.349,89.418c2.998-4.275,6.198-8.644,9.601-13.031c32.231-41.547,65.043-62.944,97.523-63.599
			c6.624-0.134,16.399-0.357,28.759-0.642c129.925-2.981,525.299-12.055,584.856,6.876c16.93,5.38,32.515,16.929,46.255,30.925
			C3313.079,1736.677,3294.426,1725.416,3282.971,1723.042z"/>
		<path style="fill:none;" d="M2820.463,1986.601c-1.652,0.413-3.375,0.069-4.722-0.948c-2.613-1.974-2.711-5.014-2.889-10.532
			c-0.16-4.989-0.414-12.476-2.527-20.601c-8.492,7.298-24.804,22.114-36.809,33.161c9.524,15.044,15.153,32.795,15.462,51.821
			h26.831c3.783-19.835,4.853-38.671,4.934-52.972C2820.646,1986.554,2820.552,1986.578,2820.463,1986.601z"/>
		<path style="fill:none;" d="M3194.856,1774.538c3.336-1.162,11.737-13.46,19.322-27.93c-89.533-4.34-252.616-3.912-487.484,1.302
			l22.451,33.553C2900.728,1779.395,3184.4,1775.347,3194.856,1774.538z"/>
		<path style="fill:none;" d="M3173.761,2308.917c86.69-11.217,176.711-80.824,189.522-91.04l3.659-32.079l-64.684,0.426
			c-6.008,9.689-21.502,32.862-47.111,59.198C3236.022,2265.093,3208.781,2288.833,3173.761,2308.917z"/>
		<path style="fill:none;" d="M2987.916,2310.947l75.326-33.026c1.587-0.697,3.425-0.519,4.853,0.467
			c0.531,0.367,53.17,36.333,90.298,27.573c38.984-20.55,68.925-46.298,89.357-67.275c20.953-21.511,35.136-41.168,42.549-52.382
			l-375.585,2.476l-7.109,115.082l75.081,5.162C2984.579,2309.154,2986.39,2309.826,2987.916,2310.947z"/>
		<path style="fill:none;" d="M2705.221,2325.482c59.081-34.232,101.525-112.159,113.523-136.07l-317.664,2.094l-20.566,129.095
			l219.639,3.4C2701.968,2324.029,2703.711,2324.557,2705.221,2325.482z"/>
		<path style="fill:none;" d="M2875.668,2290.133c1.083-16.813,1.996-33.515,2.742-48.674c-8.03,9.983-20.777,24.612-37.657,40.152
			c-26.008,23.942-66.752,54.179-116.546,66.614c13.602,16.662,28.397,33.999,34,38.434c2.934,2.323,20.595,9.176,49.939,15.234
			c21.309,4.399,40.477,6.511,53.173,6.002C2864.246,2401.086,2870.085,2376.751,2875.668,2290.133z"/>
		<path style="fill:none;" d="M3104.748,2325.042c0.096,0.033,1.817,0.624,4.894,1.667c9.107-3.001,17.873-6.348,26.277-9.982
			c-31.057-3.654-62.38-22.817-71.168-28.548l-67.945,29.789c31.714,25.103,72.95,57.636,80.619,63.402
			c2.589,0.547,7.622,1.152,11.429,1.342c1.286-9.578,2.326-30.57,2.648-48.393c0.058-3.197,1.642-6.176,4.262-8.01
			C3098.385,2324.474,3101.724,2324.004,3104.748,2325.042z"/>
		<path style="fill:none;" d="M2904.691,2188.846l-14.028,0.092c-0.659,18.317-2.303,59.742-5.018,101.852
			c-4.607,71.473-9.477,101.76-13.243,115.192c5.176-3.369,11.9-16.53,16.05-44.859c3.498-23.884,3.548-47.391,3.548-47.625
			c0.001-2.771,1.151-5.418,3.178-7.308c0.71-0.663,1.511-1.205,2.365-1.63L2904.691,2188.846z"/>
		<path style="fill:none;" d="M1587.604,1242.927c-19.697-2.141-45.38-6.125-72.897-13.51c-5.089,7.461-13.944,19.305-25.899,31.041
			c14.168,4.033,44.348,12.22,77.009,18.594C1573.999,1265.196,1582.063,1251.949,1587.604,1242.927z"/>
		<path style="fill:none;" d="M3695.868,2123.209c8.274,8.996,26.342,33.67,24.624,76.195c-0.944,23.36-3.575,51.213-7.038,74.504
			c-1.653,11.12-3.424,20.682-5.12,27.651c-2.73,11.219-5.139,15.816-9.545,18.22c-7.864,4.287-21.807,1.443-29.421-0.632
			c-3.124-0.852-5.643-3.164-6.757-6.205l-19.376-52.843l-227.181,18.98c-2.146,11.084-6.627,32.791-12.849,55.472
			c-16.787,61.193-30.932,73.354-40.109,77.179c-6.036,2.518-20.178,8.41-145.732-29.438c-24.875-7.498-49.311-15.27-69.519-21.841
			c5.874,21.434,19.842,56.827,48.726,61.422c47.721,7.593,384.938,1.317,451.582-11.202c26.234-4.928,47.355-43.021,61.08-110.159
			c12.846-62.838,19.665-152.691,20.267-267.065c0.485-92.185-1.61-185.967-4.133-262.533
			C3714.008,1914.162,3698.714,2090.508,3695.868,2123.209z"/>
		<path style="fill:none;" d="M2119.56,2288.522l-25.038,1.722c-2.943,9.079-11.477,15.664-21.524,15.664
			c-8,0-15.037-4.177-19.062-10.46c-4.024,6.283-11.062,10.46-19.062,10.46c-9.791,0-18.146-6.252-21.29-14.973
			c-3.804,7.156-11.335,12.042-19.989,12.042c-8.828,0-16.485-5.085-20.212-12.477h-17.205c1.031,19.329,1.874,35.232,2.29,43.29
			c0.782,0.266,1.533,0.621,2.232,1.075c0.129,0.084,13.842,8.9,26.975,12.184c4.132,1.031,17.51,1.031,33.888,0.507
			c-2.242-3.579-3.563-7.928-3.563-12.618c0-12.165,8.859-22.063,19.75-22.063s19.75,9.897,19.75,22.063
			c0,4.05-0.986,7.846-2.698,11.112c22.433-1.254,43.314-2.836,49.876-3.711c6.139-0.818,8.733-2.065,9.28-2.36
			c0.604-0.489,1.262-0.898,1.955-1.231C2116.68,2328.479,2118.044,2310.007,2119.56,2288.522z"/>
		<path style="fill:none;" d="M1553.042,2201.986l-308.565-1.098c13.957,25.506,71.14,122.448,138.954,132.728
			c0.163-0.229,0.327-0.457,0.511-0.676c1.9-2.266,4.727-3.44,7.683-3.44h191.618L1553.042,2201.986z"/>
		<path style="fill:none;" d="M1279.355,2271.386c-25.619-31.814-42.419-63.135-46.253-70.538l-67.2-0.239l11.634,123.033
			c2.766,1.263,4.88,3.77,5.59,6.892c0.159,0.697,14.978,65.892,18.546,80.859c11.953,2.196,66.267-6.968,102.789-13.129
			c70.813-11.944,77.06-45.08,77.336-54.778C1348.271,2338.435,1313.876,2314.254,1279.355,2271.386z"/>
		<path style="fill:none;" d="M1574.682,2077.15c-8.047-13.623-13.151-24.629-14.744-32.717c-0.433-2.198-0.934-4.813-1.506-7.805
			c-5.717-29.87-18.57-97.013-43.119-160.994c-3.857-7.386-8.205-15.232-13.037-23.271c-13.759-22.89-33.717-50.908-58.491-71.435
			c16.904,17.873,37.269,45.509,46.8,81.801c19.195,73.089,70.163,327.523,71.3,333.205l31.734,133.99
			c2.672,0.802,4.939,2.698,6.17,5.3c9.258,19.574,31.294,66.148,38.281,80.854c3.253,0.172,8.197,0.236,14.281,0.223
			L1574.682,2077.15z"/>
		<path style="fill:none;" d="M1155.854,2200.573l-361.527-1.286c4.959,9.114,18.014,31.155,40.073,55.259
			c25.287,27.631,67.729,63.452,128.343,80.812c0.924-0.632,1.443-0.994,1.504-1.037c2.916-2.052,6.705-2.396,9.941-0.901
			c3.237,1.493,5.435,4.597,5.768,8.146c0.45,4.803,4.288,45.992,4.531,56.956c1.521,1.484,6.286,3.446,12.039,3.835l-7.392-114.285
			c-0.115-1.783,0.73-3.493,2.218-4.484c1.488-0.99,3.392-1.112,4.993-0.317c37.667,18.684,79.377,37.854,96.584,43.76
			c0.152-0.143,0.307-0.288,0.459-0.431c1.817-1.714,4.209-2.685,6.706-2.724l67.319-1.036L1155.854,2200.573z"/>
		<path style="fill:none;" d="M2047.5,2334.938c0-6.651-4.374-12.063-9.75-12.063s-9.75,5.411-9.75,12.063
			c0,6.333,3.968,11.531,8.988,12.015c0.737-0.033,1.476-0.067,2.217-0.102C2043.892,2345.977,2047.5,2340.975,2047.5,2334.938z"/>
		<path style="fill:none;" d="M999.673,2296.061l6.779,104.807c11.154-6.131,46.554-36.693,78.371-66.252
			C1061.052,2325.807,1019.147,2305.612,999.673,2296.061z"/>
		<path style="fill:none;" d="M1679.293,2220.912c-36.58-47.199-67.398-87.454-88.629-118.774l71.929,314.086
			c14.816-0.174,33.361-0.607,50.736-1.016l8.813-0.206c34.449-0.802,39.12-67.773,39.666-79.51
			C1754.74,2318.26,1716.405,2268.797,1679.293,2220.912z"/>
		<path style="fill:none;" d="M2517.184,2026.865c-8.25,21.241-16.547,35.264-25.039,42.411
			c-22.162,18.652-111.185,173.937-167.225,276.625c11.689,22.695,41.996,37.412,59.678,44.352
			c28.57,11.214,52.155,13.868,58.025,13.151c5.551-6.354,15.369-40.447,21.403-74.643c0.625-3.547,3.075-6.371,6.272-7.597
			L2517.184,2026.865z"/>
		<path style="fill:none;" d="M3629.042,2003.799l-0.06-12.924h-83.466c0.983,5.277,1.925,10.081,2.816,14.336L3629.042,2003.799z"
			/>
		<path style="fill:none;" d="M1556.966,1392.375c4.77-0.016,9.603-0.032,14.474-0.049c-16.574-6.195-27.787-14.159-33.808-23.973
			c-6.346-10.343-6.677-22.39-0.985-35.806c4.122-9.716,13.622-26.852,23.775-44.297c-37.301-7.442-70.463-16.972-80.23-19.866
			c-16.334,14.034-37.099,26.366-61.079,28.717c-4.341,0.426-10.111,0.629-17.089,0.629c-85.674,0-355.419-30.549-449.273-54.784
			c-53.491-13.813-80.448-46.542-93.642-71.566c-8.973-17.019-12.939-32.66-14.663-42.187c-42.636-2.439-78.013-4.289-101.208-5.46
			c32.059,31.759,52.013,76.159,52.013,125.228c0,29.701-7.316,57.689-20.194,82.203
			C857.085,1341.967,1263.501,1393.4,1556.966,1392.375z"/>
		<path style="fill:none;" d="M3503.88,1626.001l123.382-4.583l-0.077-16.502l-120.625,5.808
			C3505.324,1615.57,3504.456,1620.673,3503.88,1626.001z"/>
		<path style="fill:none;" d="M3628.269,1837.579l-105.791,2.271c0.762,5.659,1.537,11.345,2.32,17.034l103.546-3.087
			L3628.269,1837.579z"/>
		<path style="fill:none;" d="M3627.139,1594.907l-0.106-22.664l-103.591,7.972c-6.042,5.837-10.43,12.671-13.558,20.339
			L3627.139,1594.907z"/>
		<path style="fill:none;" d="M3255.587,1324.333c2.824-9.985,5.819-38.87,8.071-60.584c2.805-27.04,5.983-57.688,10.42-79.378
			c5.944-29.06,31.791-57.982,54.415-78.512c-4.068,0.665-8.391,1.345-12.977,2.038c-31.794,4.807-76.453,10.339-129.151,15.999
			c-1.164,0.125-2.342,0.249-3.511,0.374c-1.854,11.459-6.046,32.303-14.585,54.852c-16.889,44.599-42.874,74.029-75.146,85.107
			c-57.189,19.632-269.91,26.875-384.19,30.767c-31.601,1.076-58.92,2.006-62.384,2.646c-0.628,0.188-1.358,0.386-2.464,0.386
			c-4.311,0-14.328-3.018-46.256-21.469c-19.271-11.136-37.582-22.786-37.765-22.902l2.045-3.211
			c-20.324,16.896-40.345,33.169-45.305,35.925c-0.87,0.483-1.86,1.032-13.615,1.656c9.462,21.763,18.185,44.876,19.538,58.738
			c0.975,9.995-1.191,18.061-6.624,24.659c-5.442,6.61-13.983,11.881-27.7,16.34c49.748-0.614,88.96-1.318,113.389-2.132
			C2731.198,1381.317,3204.014,1330.016,3255.587,1324.333z"/>
		<path style="fill:none;" d="M3626.986,1562.217l-0.08-17.073c-25.131,2.972-59.337,9.639-87.153,23.786L3626.986,1562.217z"/>
		<path style="fill:none;" d="M3532.139,1908.378l96.449-2.059l-0.079-17.018l-98.688,3.218
			C3530.593,1897.861,3531.367,1903.155,3532.139,1908.378z"/>
		<path style="fill:none;" d="M3517.988,1805.75h110.133l-0.088-18.797l-111.896,4.241
			C3516.737,1795.968,3517.354,1800.824,3517.988,1805.75z"/>
		<path style="fill:none;" d="M2435.778,1388.343c38.115-5.268,63.35-12.034,72.605-23.275c3.71-4.506,5.104-10.014,4.391-17.333
			c-1.309-13.413-10.573-37.218-20.311-59.236c-26.027,0.974-81.086,2.116-199.251,3.456c-124.482,1.411-281.75,2.602-408.117,3.558
			c-123.022,0.932-220.193,1.667-240.204,2.231c-1.718,0.048-3.468,0.072-5.243,0.072c-20.756,0-45.233-3.222-68.802-7.564
			c-10.654,18.202-20.836,36.401-24.994,46.2c-4.418,10.414-4.319,19.138,0.303,26.672c6.028,9.826,22.653,21.795,65.691,29.07
			c30.45-0.097,62.449-0.196,95.572-0.298C1943.91,1391.168,2243.321,1390.246,2435.778,1388.343z"/>
		<path style="fill:none;" d="M472.671,1248.961c0,85.282,67.868,154.664,151.289,154.664c83.421,0,151.289-69.382,151.289-154.664
			s-67.868-154.665-151.289-154.665C540.54,1094.296,472.671,1163.679,472.671,1248.961z M618.664,1130.396
			c72.281,0,131.086,56.827,131.086,126.677s-58.805,126.677-131.086,126.677s-131.086-56.827-131.086-126.677
			S546.382,1130.396,618.664,1130.396z"/>
		<path style="fill:none;" d="M2644.077,1287.952c3.303-0.791,16.788-1.325,64.515-2.95c105.656-3.598,325.508-11.083,381.285-30.23
			c58.076-19.937,77.36-99.643,82.609-129.403c-99.91,10.494-215.159,20.143-297.539,24.865
			c-103.887,5.956-194.835,28.95-270.319,68.345c-3.141,1.639-5.41,2.824-7.066,3.56c-0.979,0.435-2.082,0.873-3.276,1.313
			c-7.724,6.528-17.341,14.627-27.177,22.832c32.066,20.328,69.941,41.669,76.936,41.669
			C2644.056,1287.952,2644.066,1287.952,2644.077,1287.952z"/>
		<path style="fill:none;" d="M1644.609,1287.748c20.114-0.567,117.33-1.303,240.41-2.235c210.66-1.594,514.326-3.893,603.033-6.808
			c-6.202-13.542-12.134-25.602-15.852-33.014c-56.919,1.918-182.747,2.419-298.592,2.419c-44.931,0-88.342-0.075-125.662-0.172
			c-215.948-0.562-428.338-2.426-449.257-3.932c-5.014,8.138-13.542,22.081-22.397,37.009
			C1600.243,1285.307,1624.737,1288.311,1644.609,1287.748z"/>
		<path style="fill:none;" d="M3395.509,2174.144c0.218-0.394,22.153-40.21,36.637-90.178
			c7.891-27.226-20.002-154.251-65.414-253.211c-18.137-29.673-45.889-65.706-78.247-75.99c-10.17-3.232-31.333-5.76-63.382-7.584
			c-1.763,3.485-4.934,9.558-8.645,15.771c-10.851,18.168-16.404,21.071-20.406,21.517c-9.136,1.015-431.508,6.785-449.483,7.03
			c-0.022,0-0.046,0-0.068,0c-1.667,0-3.227-0.831-4.155-2.22l-27.504-41.104c-2.642,0.06-5.293,0.12-7.953,0.181
			c-12.372,0.283-22.157,0.508-28.787,0.642c-53.905,1.085-99.302,69.534-117.956,102.267c-4.364,17.711-6.18,30.185-6.24,30.612
			c-0.014,0.101-0.039,0.198-0.055,0.297l0.01,0.002c-0.035,0.206-1.936,11.314-5.289,27.951c4.22-3.891,9.203-8.002,15.052-12.161
			c24.215-17.218,68.778-38.733,143.563-43.457c93.799-5.931,116.136,46.868,121.104,78.864c1.255,8.089,1.516,15.528,1.355,21.687
			c46.163,0.584,375.004,5.046,423.295,14.278c22.764,4.352,51.458,40.927,85.285,108.71c22.324,44.732,39.76,89.01,43.114,97.654
			l16.779-0.111L3395.509,2174.144z"/>
		<path style="fill:none;" d="M2571.171,1229.842c-14.32,3.294-32.317,6.772-51.788,10.534c-5.913,1.143-11.854,2.29-17.705,3.438
			c-2.792,0.548-9.168,1.029-18.497,1.452c4.118,8.282,9.857,20.104,15.695,33.035c7.084-0.308,11.719-0.623,13.534-0.944
			C2518.444,1273.622,2544.792,1251.964,2571.171,1229.842z"/>
		<ellipse style="fill:none;" cx="618.664" cy="1257.073" rx="121.086" ry="116.677"/>
		<path style="fill:none;" d="M627.221,1074.339c22.899,0.438,44.711,5.481,64.585,14.258c-1.076-5.938-1.229-11.443-0.466-16.501
			C666.465,1069.777,645.048,1071.195,627.221,1074.339z"/>
		<path style="fill:none;" d="M2451.214,1096.284c-746.979,0-1645.252-1.03-1746.179-1.148c4.115,2.264,8.126,4.697,12.031,7.285
			c21.843,1.038,174.336,8.435,331.437,19.873c99.271,7.228,180.958,14.632,242.792,22.009
			c106.196,12.668,131.508,22.493,141.31,28.78c57.128,36.647,129.316,47.655,167.262,50.955c16.657,1.448,234.44,3.344,448.132,3.9
			c262.188,0.682,434.552-0.755,449.831-3.75c5.87-1.151,11.829-2.302,17.76-3.448c31.2-6.027,63.462-12.26,73.85-16.877
			c1.082-0.481,3.225-1.599,5.937-3.014c12.815-6.688,42.826-22.351,89.116-37.126c57.271-18.281,120.966-29.537,189.312-33.455
			c84.206-4.827,199.919-14.543,301.981-25.355c31.785-3.367,58.972-6.495,82.006-9.359
			C3068.09,1096.092,2773.711,1096.284,2451.214,1096.284z"/>
		<path style="fill:none;" d="M3627.309,1631.423l-124.177,4.612c-0.229,5.194-0.248,10.567-0.116,16.092l124.356-7.11
			L3627.309,1631.423z"/>
		<path style="fill:none;" d="M3584.573,1957.344c25.76-0.103,38.099-0.101,44.253,0.07l-0.085-18.316
			c-13.586,0.142-58.226,1.193-91.62,2.029c0.891,5.673,1.771,11.176,2.637,16.477
			C3546.726,1957.552,3565.691,1957.418,3584.573,1957.344z"/>
		<path style="fill:none;" d="M3628.936,1980.875l-0.063-13.468c-12.679-0.253-55.868-0.054-87.459,0.184
			c0.78,4.631,1.544,9.07,2.29,13.284H3628.936z"/>
		<path style="fill:none;" d="M3628.695,1929.13l-0.06-12.809l-95.01,2.029c0.652,4.337,1.302,8.613,1.948,12.814
			C3597.415,1929.608,3620.156,1929.193,3628.695,1929.13z"/>
		<path style="fill:none;" d="M3620.763,2069.007c1.897,0.085,5.021-0.771,8.572-2.538l-0.245-52.669l-78.517,1.374
			c1.269,5.157,2.385,8.738,3.309,10.418C3564.059,2044.096,3612.957,2068.596,3620.763,2069.007z"/>
		<path style="fill:none;" d="M2391.251,1590.214v-41.31c-212.135,0.228-454.512,0.102-680.751-0.502v45.078L2391.251,1590.214z"/>
		<path style="fill:none;" d="M3651.516,2035.602c1.934-24.17,20.588-455.938,21.459-476.121
			c-1.212-4.786-5.579-16.212-12.667-16.484c-0.591-0.022-1.341-0.035-2.238-0.035c-4.211,0-11.668,0.283-21.167,1.14l2.4,515.464
			C3645.396,2053.967,3650.689,2045.935,3651.516,2035.602z"/>
		<path style="fill:none;" d="M1528.035,1853.567c2.397,5.76,4.695,11.566,6.9,17.389l1000.563-0.452
			c1.083-6.048,2.836-14.853,5.428-25.282l-42.868-32.847h-939.212l-35.477,30.339
			C1524.942,1846.262,1526.498,1849.875,1528.035,1853.567z"/>
		<path style="fill:none;" d="M3628.463,1879.298l-0.072-15.497l-102.212,3.047c0.733,5.256,1.472,10.5,2.215,15.714
			L3628.463,1879.298z"/>
		<path style="fill:none;" d="M3627.986,1776.948l-0.074-15.837l-115.078,3.167c0.653,5.472,1.341,11.135,2.061,16.956
			L3627.986,1776.948z"/>
		<path style="fill:none;" d="M3506.417,1703.266l121.209-3.508l-0.088-18.889l-122.46,5.679c0.157,1.96,0.316,3.929,0.477,5.91
			C3505.847,1696.046,3506.138,1699.652,3506.417,1703.266z"/>
		<path style="fill:none;" d="M3627.492,1670.86l-0.074-15.829l-124.024,7.091c0.239,4.728,0.555,9.55,0.914,14.452
			L3627.492,1670.86z"/>
		<path style="fill:none;" d="M3627.742,1724.578l-0.069-14.817l-120.407,3.484c0.446,4.827,0.992,10.286,1.626,16.28
			L3627.742,1724.578z"/>
		<path style="fill:none;" d="M3627.866,1751.109l-0.077-16.523l-117.816,4.905c0.521,4.701,1.085,9.653,1.686,14.816
			L3627.866,1751.109z"/>
		<path style="fill:none;" d="M3628.222,1827.577l-0.055-11.827h-108.884c0.609,4.667,1.23,9.381,1.861,14.126L3628.222,1827.577z"
			/>
		<path d="M618.664,1383.75c72.281,0,131.086-56.827,131.086-126.677s-58.805-126.677-131.086-126.677
			s-131.086,56.827-131.086,126.677S546.382,1383.75,618.664,1383.75z M618.664,1140.396c66.767,0,121.086,52.341,121.086,116.677
			s-54.319,116.677-121.086,116.677s-121.086-52.341-121.086-116.677S551.896,1140.396,618.664,1140.396z"/>
		<path d="M3738.049,1599.804l-0.491,0.028c0.439-9.291,0.601-15.799,0.426-18.894c-0.182-3.211-0.411-7.418-0.688-12.462
			c-2.788-50.992-10.196-186.441-18.898-246.9c-9.903-68.798-34.839-153.346-74.116-251.297
			c-21.802-54.37-60.331-90.629-88.814-111.473c-21.16-15.485-39.845-24.917-49.825-29.438c1.399-12.817,1.144-37.572-16.377-59.167
			c-4.067-5.014-16.445-20.271-107.005-32.362c-44.893-5.994-90.951-8.634-102.941-7.815c-14.405,0.982-25.11,16.985-34.711,51.887
			c-3.235,11.761-5.676,23.362-7.272,31.787c-53.952-24.452-210.18-101.45-230.692-111.57
			c-7.241-9.925-40.095-54.231-83.179-101.228c-66.042-72.042-123.587-115.935-171.037-130.461
			c-56.131-17.183-195.04-41.278-378.844-56.373c-153.682-12.622-394.271-23.504-667.683-3.663
			c-114.083,8.278-218.246,29.307-309.592,62.501c-73.303,26.638-138.583,61.131-194.026,102.522
			c-83.394,62.258-118.951,120.727-127.306,135.951c-11.323,4.157-45.742,17.923-87.004,45.291
			c-36.483,24.198-93.474,41.1-117.366,47.502c-1.045-7.057-3.044-16.316-6.867-25.659c-10.888-26.607-30.827-40.96-57.661-41.508
			c-30.547-0.637-82.185,10.68-120.124,20.272c-25.463,6.438-44.864,12.138-54.163,14.963c-6.899,2.096-12.751,3.977-16.924,5.44
			c-6.352,2.227-11.838,4.15-12.768,10.659c-0.111,0.774-0.431,3.012-0.17,43.917c-26.938,2.263-61.659,20.843-93.685,50.682
			c-32.135,29.94-77.253,85.529-109.707,180.328c-55.842,163.119-57.513,264.173-60.28,431.593l-0.257,15.478
			c-0.14,8.313-0.163,17.642-0.035,28.063l-0.088-0.001c-0.054,5.051-5.314,506.154,0.015,602.946
			c5.283,95.971,10.745,195.21,163.149,206.01c63.984,4.535,149.659,7.204,230.51,7.204c2.289,0,4.577-0.003,6.857-0.007
			c37.876-0.071,71.036-0.75,95.896-1.963c42.222-2.06,46.914-4.973,49.718-6.713c5.061-3.141,13.068-10.391,24.123-36.968
			c3.774-9.073,6.711-17.56,8.302-22.38c18.48-9.747,34.412-19.501,45.113-26.381c1.369,15.498,2.939,34.468,2.939,39.357
			c0,5.584,2.778,10.87,7.822,14.883c8.809,7.007,23.942,9.829,36.802,6.861c3.768-0.87,11.609-2.68,56.54-42.324
			c16.641-14.683,32.353-29.265,38.605-35.105l61.154-0.94c4.431,19.468,15.543,68.22,17.376,75.551
			c3.724,14.898,22.066,13.646,33.024,12.896c15.826-1.082,40.751-4.696,91.965-13.335c41.628-7.021,70.067-22.059,84.53-44.695
			c5.731-8.971,8.089-17.404,8.984-23.79h183.116c9.36,19.788,36.884,77.965,37.888,79.972c3.023,6.047,8.119,6.839,26.975,6.839
			c2.116,0,4.405-0.011,6.884-0.024c14.972-0.082,35.694-0.568,57.633-1.083l8.809-0.206c46.816-1.089,56.658-64.964,58.722-90.626
			l170.847,8.735c5.124,3.074,17.728,10.115,30.648,13.345c17.959,4.493,117.459-3.351,124.498-4.289
			c7.735-1.031,12.717-2.78,15.886-4.446l184.189-2.142c13.256,25.191,41.915,41.578,64.512,51.106
			c27.66,11.662,65.928,20.547,78.813,15.175c6.775-2.823,14.421-10.826,24.405-49.929c3.081-12.07,5.527-23.763,7.012-31.298
			l212.952,3.296c10.006,12.643,39.696,49.702,50.702,58.416c8.957,7.09,37.01,14.742,58.311,19.141
			c18.292,3.776,51.871,9.412,71.243,4.739c16.62-4.012,27.39-24.424,32.924-62.403c2.226-15.271,3.123-30.067,3.485-39.623
			l66.466,4.569c87.414,69.235,89.151,70.104,90.306,70.681c3.475,1.737,24.334,5.553,32.445,1.5
			c5.747-2.874,6.91-9.101,7.925-17.585c0.607-5.069,1.142-11.909,1.589-20.329c0.274-5.178,0.482-10.288,0.636-14.714
			c4.013,1.348,8.868,2.971,14.391,4.802c4.001,19.967,20.05,80.893,67.916,88.508c15.7,2.497,57.228,3.499,107.164,3.499
			c36.448,0,77.383-0.534,115.993-1.409c90.149-2.042,199.294-6.631,235.261-13.388c35.872-6.739,61.054-47.892,76.982-125.81
			c13.107-64.119,20.062-155.285,20.671-270.966C3750.613,1821.938,3738.175,1602,3738.049,1599.804z M3698.602,1324.425
			c8.577,59.584,15.95,194.393,18.726,245.143c0.276,5.058,0.508,9.275,0.688,12.495c1.55,27.513-27.107,367.917-42.478,544.068
			c-0.123,1.404,0.06,2.781,0.489,4.067l-38.55,43.817l-220.08,1.451c7.426-14.655,22.673-46.998,33.958-85.931
			c7.131-24.603-5.787-88-20.254-139.127c-19.728-69.721-46.402-135.206-73.185-179.665c-24.022-39.878-47.872-62.516-70.887-67.284
			c-49.287-10.213-220.521-9.387-318.204-7.988c-144.061,2.066-277.466,7.224-318.449,10.818
			c-62.255,5.461-92.987,79.008-106.695,128.447l-39.033-29.908l-8.778-205.114l226.654-1.088l-0.049-10l-321.225,1.541v-41.273
			c240.798-0.273,441.325-1.006,532.805-2.019c116.688-1.292,190.433-4.266,239.23-6.233c80.027-3.228,99.044-3.994,144.148,8.307
			c64.942,17.712,159.83,45.925,181.485,52.387c-8.692,25.811-6.059,58.305-3.33,91.933c0.313,3.854,0.627,7.729,0.926,11.615
			c4.412,57.361,36.875,304.2,48.604,325.525c11.546,20.992,63.309,47.962,75.118,48.584c0.265,0.014,0.533,0.021,0.809,0.021
			c13.187,0,38.306-15.954,40.438-42.615c1.984-24.806,20.715-458.724,21.511-477.183c0.019-0.433-0.019-0.865-0.111-1.288
			c-0.043-0.197-0.292-1.282-0.785-2.887l0.811,0.156c16.271-84.311-3.375-157.563-19.16-216.422
			c-4.442-16.567-8.64-32.214-11.603-46.539c-9.5-45.914-20.59-154.87-26.2-213.941
			C3664.5,1174.525,3688.945,1257.334,3698.602,1324.425z M3687.52,2302.037c-2.075-0.082-4.991-0.467-7.991-1.054l-1.145-3.121
			l16.124-138.97c3.823,9.942,6.671,23.077,6,39.704C3698.652,2244.536,3691.488,2289.606,3687.52,2302.037z M3125.043,2331.885
			c9.478-3.556,18.57-7.461,27.249-11.646l0.002,0.211c53.777-0.422,110.483-26.579,148.584-48.448
			c27.183-15.603,49.047-31.316,60.821-40.237l-18.406,161.354c-15.271-1.737-48.72-8.403-121.384-30.345
			C3183.853,2351.283,3146.954,2339.195,3125.043,2331.885z M2885.154,2178.974l-4.152-0.128c0,0.014-0.002,0.072-0.005,0.156
			l-378.321,2.494l19.079-119.758c5.42,11.744,14.522,27.837,28.9,43.825c15.861,17.636,34.872,31.443,56.505,41.041
			c26.936,11.948,57.98,17.342,92.282,16.026c38.08-1.459,68.608-15.243,90.737-40.971c12.71-14.776,21.457-32.263,27.474-49.8
			c0.121-0.237,0.235-0.488,0.329-0.769l-0.06-0.02c6.337-18.727,9.582-37.467,11.199-52.982
			c2.489-23.889,1.682-43.731,1.028-53.018c46.709,0.608,374.274,5.176,420.913,14.092c38.403,7.341,97.492,139.857,119.587,196.613
			L2885.154,2178.974z M2879.238,2223.871c-7.708,10.767-70.765,95.335-162.011,115.736c-1.804-2.245-3.546-4.426-5.202-6.513
			c29.059-17.277,57.331-45.993,84.176-85.544c18.242-26.877,29.917-50.214,33.739-58.211l50.715-0.334
			C2880.365,2196.994,2879.896,2209.204,2879.238,2223.871z M2307.777,2335.569l-181.754,2.114
			c2.722-36.412,11.406-155.139,10.977-181.764c-0.45-27.933-28.224-38.952-42.847-40.876c-0.158-0.021-0.316-0.034-0.476-0.04
			c-0.707-0.025-71.178-2.48-107.519,0.009c-39.945,2.736-47.017,40.502-47.083,40.884c-0.065,0.373-0.088,0.753-0.068,1.131
			c2.892,53.766,8.04,149.678,9.404,175.861l-169.812-8.682c-9.99-20.278-39.195-58.382-83.498-115.545
			c-49.239-63.532-110.519-142.601-115.54-168.093c-0.427-2.168-0.921-4.748-1.485-7.699c-4.043-21.124-11.589-60.545-24.26-104.65
			l970.108,2.072c-11.815,52.691-28.876,110.402-44.658,123.684C2448.238,2080.089,2331.299,2292.523,2307.777,2335.569z
			 M2095.403,2280.159c-1.17-8.433-7.001-15.393-14.803-18.185c8.747-3.13,15.024-11.498,15.024-21.308
			c0-9.109-5.413-16.972-13.189-20.556c7.776-3.584,13.189-11.447,13.189-20.556c0-9.81-6.277-18.178-15.024-21.308
			c7.247-2.593,12.792-8.782,14.483-16.407l31.908-0.725c-0.322,21.503-3.682,73.663-6.724,117.334L2095.403,2280.159z
			 M2053.937,2271.118c-2.683-4.19-6.705-7.441-11.46-9.143c4.756-1.702,8.777-4.953,11.46-9.143
			c2.683,4.189,6.705,7.441,11.46,9.143C2060.641,2263.676,2056.62,2266.928,2053.937,2271.118z M2014.886,2272.699
			c-2.288-6.346-7.336-11.382-13.689-13.655c5.339-1.911,9.756-5.773,12.388-10.725c2.288,6.346,7.336,11.382,13.689,13.655
			C2021.935,2263.885,2017.518,2267.748,2014.886,2272.699z M1970.971,2280.352c0,0.05,0.003,0.099,0.004,0.148h-15.33
			c-2.18-40.82-4.95-92.369-6.373-118.829c7.091-0.12,16.581-0.294,22.882-0.458c2.208,6.556,7.34,11.778,13.841,14.104
			c-8.747,3.13-15.024,11.498-15.024,21.308c0,9.109,5.413,16.972,13.189,20.556c-7.776,3.584-13.189,11.447-13.189,20.556
			c0,9.81,6.277,18.178,15.024,21.308C1977.248,2262.174,1970.971,2270.542,1970.971,2280.352z M2095.036,2151.839
			c-2.321-10.025-11.317-17.523-22.038-17.523c-8,0-15.037,4.177-19.062,10.46c-4.024-6.284-11.062-10.46-19.062-10.46
			c-8.654,0-16.185,4.886-19.989,12.042c-3.144-8.721-11.5-14.973-21.29-14.973c-11.536,0-21.077,8.681-22.449,19.852
			c-5.435,0.131-13.372,0.283-20.455,0.407c3.409-8.997,12.733-25.052,36.15-26.656c34.71-2.379,101.473-0.163,106.219,0
			c2.956,0.439,29.469,4.981,33.437,26.135L2095.036,2151.839z M2060.373,2240.667c0-6.962,5.663-12.625,12.625-12.625
			s12.625,5.663,12.625,12.625s-5.663,12.625-12.625,12.625S2060.373,2247.629,2060.373,2240.667z M2053.937,2228.502
			c-2.33-3.639-5.671-6.568-9.626-8.391c3.955-1.823,7.296-4.752,9.626-8.391c2.331,3.639,5.671,6.568,9.626,8.391
			C2059.608,2221.934,2056.267,2224.864,2053.937,2228.502z M2022.25,2240.667c0-6.962,5.663-12.625,12.625-12.625
			s12.625,5.663,12.625,12.625s-5.663,12.625-12.625,12.625S2022.25,2247.629,2022.25,2240.667z M2014.886,2230.084
			c-2.063-5.722-6.371-10.376-11.855-12.903c4.514-2.08,8.229-5.601,10.553-9.973c2.063,5.722,6.371,10.376,11.855,12.903
			C2020.926,2222.191,2017.21,2225.712,2014.886,2230.084z M1980.971,2237.736c0-6.962,5.664-12.625,12.625-12.625
			c6.962,0,12.625,5.663,12.625,12.625s-5.663,12.625-12.625,12.625C1986.634,2250.361,1980.971,2244.698,1980.971,2237.736z
			 M2013.585,2164.593c2.288,6.346,7.336,11.382,13.689,13.655c-5.339,1.911-9.756,5.773-12.388,10.725
			c-2.288-6.346-7.336-11.382-13.689-13.655C2006.536,2173.407,2010.953,2169.544,2013.585,2164.593z M2053.937,2169.105
			c2.683,4.189,6.705,7.441,11.46,9.143c-4.756,1.702-8.777,4.953-11.46,9.143c-2.683-4.19-6.705-7.441-11.46-9.143
			C2047.232,2176.546,2051.253,2173.295,2053.937,2169.105z M2034.875,2212.181c-6.962,0-12.625-5.663-12.625-12.625
			s5.663-12.625,12.625-12.625s12.625,5.663,12.625,12.625S2041.837,2212.181,2034.875,2212.181z M2034.875,2169.565
			c-6.962,0-12.625-5.663-12.625-12.625s5.663-12.625,12.625-12.625s12.625,5.663,12.625,12.625
			S2041.837,2169.565,2034.875,2169.565z M1993.596,2166.635c-6.961,0-12.625-5.663-12.625-12.625s5.664-12.625,12.625-12.625
			c6.962,0,12.625,5.663,12.625,12.625S2000.558,2166.635,1993.596,2166.635z M2006.221,2196.625
			c0,6.962-5.663,12.625-12.625,12.625c-6.961,0-12.625-5.663-12.625-12.625s5.664-12.625,12.625-12.625
			C2000.558,2184,2006.221,2189.663,2006.221,2196.625z M2072.998,2212.181c-6.962,0-12.625-5.663-12.625-12.625
			s5.663-12.625,12.625-12.625s12.625,5.663,12.625,12.625S2079.96,2212.181,2072.998,2212.181z M2060.373,2156.94
			c0-6.962,5.663-12.625,12.625-12.625s12.625,5.663,12.625,12.625s-5.663,12.625-12.625,12.625S2060.373,2163.902,2060.373,2156.94
			z M1993.596,2267.727c6.962,0,12.625,5.663,12.625,12.625s-5.663,12.625-12.625,12.625c-6.961,0-12.625-5.663-12.625-12.625
			S1986.634,2267.727,1993.596,2267.727z M2034.875,2270.657c6.962,0,12.625,5.663,12.625,12.625s-5.663,12.625-12.625,12.625
			s-12.625-5.663-12.625-12.625S2027.913,2270.657,2034.875,2270.657z M2072.998,2270.657c6.962,0,12.625,5.663,12.625,12.625
			s-5.663,12.625-12.625,12.625s-12.625-5.663-12.625-12.625S2066.036,2270.657,2072.998,2270.657z M693.982,2188.93
			c1.941-4.252,4.713-10.268,8.153-17.59c30.816,0.973,270.29,8.317,472.246,8.317c74.285,0,143.503-0.994,195.376-3.664
			c59.166-3.045,99.644-22.151,120.311-56.788c15.881-26.616,19.684-62.899,10.996-104.93
			c-5.585-27.017-14.479-48.021-17.149-53.982c0.293-1.891,0.431-4.615,0.334-8.632c-0.123-5.092-0.784-13.082-3.236-22.232
			c-6.447-24.062-27.998-64.429-99.888-64.429c-109.144,0-141.661,50.096-142.992,52.228c-0.319,0.512-0.543,1.076-0.661,1.667
			c-0.351,1.754-0.773,13.797-0.725,23.708c0.117,23.731,2.559,26.711,3.871,28.311c0.371,0.453,0.788,0.837,1.233,1.164
			c-63.329-1.043-383.142-5.966-421.402,0.238c-11.021,1.787-24.738,14.461-41.935,38.745
			c-13.044,18.419-28.111,43.548-44.785,74.688c-24.463,45.69-45.342,91.267-50.714,103.144l-0.461-0.002
			c-19.08-36.955-39.396-79.228-41.361-87.973c1.658-10.452,20.52-85.921,44.71-165.536c20.471-67.375,36.29-110.378,48.233-137.818
			c17.253-17.494,54.408-49.218,99.458-52.324c0.603-0.042,1.257-0.085,1.935-0.128l36.146,46.581
			c0.927,1.194,2.345,1.905,3.857,1.934l442.875,8.25c0.031,0.001,0.063,0.001,0.094,0.001c1.76,0,3.393-0.926,4.295-2.441
			l19.875-33.375c0.917-1.541,0.94-3.454,0.059-5.016c-0.881-1.562-2.531-2.532-4.324-2.543
			c-18.715-0.115-435.312-2.693-482.138-2.975l-8.617-11.104c44.932-2.315,156.168-6.105,272.087-5.827
			c140.974,0.31,236.459,6.43,279,17.776c5.972,3.651,64.298,40.829,82.175,108.9c17.589,66.974,62.081,287.409,69.979,326.708
			L693.982,2188.93z M728.702,2409.588c-0.571-1.1-1.231-2.555-1.967-4.316c-1.937-19.814-5.875-59.865-9.918-99.551
			c-3.322-32.61-6.063-58.597-8.148-77.238c-1.241-11.092-2.261-19.684-3.032-25.536c-0.198-1.506-0.379-2.822-0.546-3.977
			l77.942,0.277c0.989,2.063,14.557,29.814,43.744,61.78c25.067,27.454,66.439,62.698,125.127,81.497
			c-24.73,15.912-81.965,50.106-128.598,58.121C758.004,2411.868,735.172,2410.549,728.702,2409.588z M413.338,2303.892
			l-9.474-152.141l24.265,43.677c0.878,1.582,2.544,2.565,4.353,2.572l229.181,0.815l11.205,77.939l-243.518-33.163
			c-2.903-0.396-5.835,0.504-8.019,2.458c-2.184,1.954-3.4,4.769-3.328,7.698C418.499,2273.912,416.383,2295.348,413.338,2303.892z
			 M384.711,2146.912c3.117-5.36,5.597-7.73,7.005-8.749c0.421,0.299,0.87,0.553,1.331,0.784l10.507,168.731
			c-0.792,0.094-1.547,0.178-2.258,0.252C385.979,2219.622,380.719,2156.064,384.711,2146.912z M683.221,2278.493l-11.45-79.642
			l23.225,0.083c2.652,17.22,10.652,94.684,17.706,165.794c-7.468-23.554-16.073-52.687-23.568-79.656
			C688.289,2282.03,686.066,2279.637,683.221,2278.493z M698.985,2198.948h0.002v0
			C698.986,2198.948,698.986,2198.948,698.985,2198.948z M1367.904,1908.883c-48.846-2.703-95.23,32.952-115.036,48.188
			c-1.82,1.4-3.67,2.824-5.223,3.979c-1.325-9.782-0.899-33.063-0.425-39.383c2.178-2.956,10.324-12.939,27.394-22.821
			c18.792-10.878,52.524-23.846,106.511-23.846c35.064,0,60.834,9.953,76.595,29.584c12.925,16.099,16.059,35.334,16.509,46.268
			C1457.619,1938.36,1416.659,1911.608,1367.904,1908.883z M1239.559,2034.574c4.909,49.518,30.649,82.875,74.436,96.504
			c14.842,8.6,32.154,13.547,50.63,13.547c54.864,0,99.5-43.57,99.5-97.125s-44.636-97.125-99.5-97.125s-99.5,43.57-99.5,97.125
			c0,21.364,7.109,41.135,19.131,57.189c-19.918-15.84-31.563-39.535-34.72-70.839c-2.019-20.02,0.025-38.982,2.159-51.607
			c0.168,0.003,0.293,0.005,0.342,0.006l0.038-2.187c0.991-5.511,1.95-9.594,2.478-11.691c1.265-0.954,2.71-2.065,4.412-3.374
			c18.924-14.559,63.232-48.64,108.38-46.13c54.979,3.074,101.275,40.033,107.186,44.957c4.364,9.707,40.501,94.022,6.947,150.257
			c-18.85,31.593-56.612,49.063-112.237,51.926c-187.206,9.635-601.083-2.62-662.443-4.525c9.34-19.6,21.983-45.314,35.769-71.059
			c48.648-90.85,70.679-106.81,79.481-108.237c36.909-5.985,357.093-1.121,419.498-0.11
			C1239.409,1995.218,1237.54,2014.204,1239.559,2034.574z M1275.125,2047.5c0-48.041,40.149-87.125,89.5-87.125
			s89.5,39.084,89.5,87.125s-40.149,87.125-89.5,87.125S1275.125,2095.541,1275.125,2047.5z M864.065,1765.572
			c68.451,0.417,406.607,2.509,465.545,2.874l-13.92,23.376l-437.581-8.151L864.065,1765.572z M1417.326,1752.201
			c-33.538-15.304-133.653-23.246-297.564-23.607c-131.26-0.274-256.669,4.587-286.855,6.668
			c-35.828,2.471-66.342,21.036-87.23,38.09c6.182-11.576,10.748-17.592,13.927-20.69c3.842-3.743,20.567-13.167,92.722-19.81
			c46.327-4.266,108.085-6.771,183.562-7.446c136.639-1.229,283.002,3.861,348.043,7.577c36.22,2.07,68.719,26.092,97.028,71.574
			C1463.476,1783.365,1442.034,1763.476,1417.326,1752.201z M2485.864,1599.761l8.67,202.614H1562v-198.181L2485.864,1599.761z
			 M565.531,1597.588c-0.071-2.292-0.191-3.949-0.367-4.885c-1.132-6.035-7.946-11.869-22.093-18.917
			c-10.306-5.134-24.626-10.867-41.413-16.582c-28.881-9.831-62.26-18.622-72.888-19.197c-10.444-0.557-18.976,7.123-25.188,15.641
			c6.853-65.171,31.08-271.34,41.05-355.875c1.898-4.665,15.841-37.796,41.836-70.941c25.443-32.442,68.038-71.587,126.474-73.835
			c18.436-0.709,50.346-1.854,90.989-3.277c-2.897,2.399-5.577,5.309-7.754,8.858c-0.742,1.209-1.384,2.469-1.971,3.756
			c-50.635-5.065-87.95,4.769-110.74,14.234c-5.78,2.401-10.924,4.883-15.439,7.302c-67.066,23.694-115.355,88.746-115.355,165.092
			c0,96.31,76.84,174.664,171.289,174.664c57.628,0,108.698-29.171,139.761-73.791c55.798,7.465,478.201,62.56,784.777,62.555
			c2.84,0,5.715-0.005,8.535-0.015c45.967-0.156,96.737-0.313,150.448-0.478c328.581-1.012,778.588-2.398,894.977-6.278
			c136.911-4.563,655.8-61.402,660.157-61.946c10.157-1.27,12.735-13.011,15.27-29.459c0.644-4.177,1.267-8.827,1.881-13.82
			c5.135,10.796,12.398,23.298,22.532,35.834c15.833,19.587,35.409,35.144,58.184,46.239c27.816,13.551,60.46,20.417,97.055,20.417
			c0.685,0,1.372-0.002,2.06-0.007c38.58-0.27,73.739-15.291,101.678-43.437c25.638-25.829,43.314-61.227,49.774-99.675
			c6.953-41.39,0.304-83.466-18.724-118.479c-9.398-17.293-21.701-32.747-36.575-46.102c45.353,29.622,68.46,72.936,70.754,130.767
			c2.817,70.993-10.895,108.785-22.893,127.987c-12.728,20.368-26.196,24.46-26.286,24.487l2.6,9.656
			c2.324-0.626,52.283-15.494,56.644-127.624c1.953,13.137,3.899,24.694,5.785,33.809c3.022,14.608,7.256,30.392,11.737,47.103
			c14.749,54.993,32.901,122.774,21.081,199.792c-3.401-4.353-8.107-7.909-14.479-8.154c-11.392-0.435-79.332,2.68-127.523,28.072
			c-14.727,7.759-24.337,18.346-30.458,30.955c-19.743-5.894-116.617-34.722-182.645-52.73
			c-46.595-12.707-65.906-11.929-147.182-8.651c-48.74,1.966-122.397,4.936-238.939,6.226
			c-117.278,1.299-413.749,2.138-744.567,2.138c-486.08,0-1046.254-1.812-1220.614-6.636
			c-147.637-4.09-251.253,14.895-312.174,31.537C607.963,1577.196,578.383,1590.897,565.531,1597.588z M555.671,1605H451.694
			l-0.177-18.495h94.166c6.694,3.903,9.369,6.637,9.652,8.041C555.596,1595.938,555.702,1599.542,555.671,1605z M553.858,1659.899
			l-101.665-2.768l-0.13-13.631h102.498C554.353,1648.66,554.118,1654.141,553.858,1659.899z M535.511,1937.982l-80.642-1.415
			l-0.12-12.567h82.013C536.344,1928.791,535.927,1933.455,535.511,1937.982z M525.61,2010.418
			c-0.119,0.241-0.251,0.484-0.384,0.728l-69.626,1.724l-0.144-15.031l73.697-2.713
			C528.296,2000.54,527.101,2005.638,525.61,2010.418z M516.712,2021.359c-15.196,14.191-43.632,29.934-60.663,38.422l-0.353-36.911
			L516.712,2021.359z M452.289,1667.137l101.107,2.753c-0.252,5.325-0.522,10.849-0.809,16.541l-100.126-1.384L452.289,1667.137z
			 M451.422,1576.505l-0.229-23.879c13.462,3.403,30.619,8.39,47.136,14.009c10.548,3.588,19.275,6.885,26.477,9.87H451.422z
			 M441.169,1550.232l4.956,517.535c0.017,1.7,0.896,3.276,2.335,4.183c0.81,0.511,1.736,0.77,2.666,0.77
			c0.72,0,1.442-0.155,2.114-0.469c4.877-2.277,35.853-16.997,58.642-33.972c-8.972,12.713-19.815,21.806-29.39,28.069
			c-18.263,11.943-35.636,16.367-42.27,17.278c-3.431-18.417-13.176-116.087-23.136-242.301
			c-10.216-129.452-15.673-224.953-15.176-263.846c3.473-8.67,14.613-30.091,26.32-29.486
			C430.751,1548.129,435.285,1548.925,441.169,1550.232z M530.545,1985.068l-75.185,2.767L455.199,1971h77.006
			C531.645,1976.056,531.091,1980.764,530.545,1985.068z M533.274,1961h-78.171l-0.138-14.43l79.607,1.397
			C534.138,1952.486,533.705,1956.837,533.274,1961z M537.618,1914h-82.965l-0.139-14.5h84.298
			C538.416,1904.426,538.017,1909.264,537.618,1914z M539.609,1889.5h-85.19l-0.148-15.5h86.533
			C540.407,1879.237,540.009,1884.408,539.609,1889.5z M541.551,1864h-87.376l-0.148-15.418l88.542,1.43
			C542.232,1854.71,541.893,1859.375,541.551,1864z M543.278,1840.022l-89.347-1.443l-0.158-16.461l90.589,2.228
			C544.005,1829.593,543.644,1834.822,543.278,1840.022z M545.037,1814.361l-91.359-2.247l-0.13-13.614h92.534
			C545.738,1803.787,545.39,1809.078,545.037,1814.361z M546.724,1788.5h-93.273l-0.136-14.188h94.3
			C547.324,1779.025,547.026,1783.756,546.724,1788.5z M548.23,1764.313h-95.01l-0.168-17.563h96.228
			C548.94,1752.548,548.59,1758.407,548.23,1764.313z M549.862,1736.75h-96.906l-0.158-16.528h97.998
			C550.495,1725.648,550.183,1731.163,549.862,1736.75z M551.343,1710.222h-98.641l-0.145-15.172l99.518,1.376
			C551.84,1700.938,551.596,1705.54,551.343,1710.222z M554.945,1633.5H451.967l-0.177-18.5h103.723
			C555.39,1620.318,555.198,1626.53,554.945,1633.5z M1184.854,846.527c29.606-45.068,97.961-145.071,124.018-165.245
			c9.071-7.023,44.437-17.082,106.165-27.614l-142.913,267.578C1238.807,893.791,1205.8,865.919,1184.854,846.527z M1427.48,651.598
			c26.479-4.299,57.309-8.649,92.501-12.877c-26.199,45.694-106.107,187.344-111.923,225.144
			c-3.089,20.08,1.303,36.999,13.429,51.723c14.866,18.053,40.693,32.101,78.956,42.949c44.28,12.553,105.633,20.488,182.355,23.585
			c89.255,3.602,206.742,5.533,326.483,5.533c46.488,0,93.332-0.292,138.972-0.889c178.857-2.341,310.579-8.982,361.392-18.221
			c79.667-14.485,129.909-53.794,150.365-85.751c8.84-13.811,12.376-26.586,9.957-35.971
			c-5.853-22.714-86.473-168.667-112.391-215.272c1.865,0.233,3.74,0.461,5.598,0.698c31.01,3.952,58.224,7.994,81.772,11.879
			l145.323,272.116c-52.882,42.179-106.189,84.984-119.288,95.508H1384.229c-11.456-9.077-57.226-45.435-104.228-84.025
			L1427.48,651.598z M2545.294,630.039c39.922,71.547,109.962,199.769,114.989,219.278c1.668,6.473-1.583,16.972-8.696,28.085
			c-19.32,30.184-67.224,67.393-143.731,81.303c-69.186,12.579-286.398,18.96-502.078,18.959c-115.657,0-230.91-1.836-322.576-5.536
			c-138.782-5.601-224.238-26.763-253.996-62.898c-10.211-12.399-13.896-26.741-11.264-43.845
			c5.785-37.603,93.667-192.041,114.422-228.126c1.831-0.212,3.667-0.424,5.52-0.636c150.542-17.186,338.756-27.751,529.97-29.748
			C2242.184,605.051,2402.691,612.849,2545.294,630.039z M2798.219,909.903l-140.817-263.679
			c65.344,11.234,99.069,20.717,103.935,22.129c4.387,1.273,23.321,11.307,82.77,86.938c23.948,30.467,45.809,60.57,55.778,74.477
			C2881.973,843.356,2840.905,875.881,2798.219,909.903z M2743.412,979.299l101.643,45.626
			c-66.925-2.932-121.576-5.654-149.706-7.095C2709.086,1006.802,2725.615,993.548,2743.412,979.299z M1359.259,1017.466
			c-24.381,0.816-68.02,2.278-122.543,4.11l82.952-35.803C1335.611,998.613,1349.44,1009.654,1359.259,1017.466z M1371.353,1027.067
			c1.658,1.313,2.749,2.175,3.2,2.531c1.766,1.394,3.949,2.152,6.198,2.152H2674.5c2.278,0,4.488-0.778,6.265-2.205
			c0.933-0.75,1.892-1.521,2.871-2.307c63.705,3.318,434.324,22.07,614.949,19.012c23.716-0.403,46.082-0.088,67.125,0.95
			c-0.103,2.657,0.046,5.451,0.22,8.391c0.376,6.341,0.784,13.359-1.518,19.565c-171.683,0.846-521.616,1.129-913.321,1.129
			c-758.143,0-1672.269-1.061-1750.052-1.153c0.066-0.654,0.148-1.299,0.252-1.931c0.023,0.003,0.045,0.005,0.068,0.008l0.16-1.236
			c0.619-2.963,1.661-5.675,3.152-8.117c7.945-13.017,26.239-14.994,27.65-15.128
			C937.431,1041.594,1307.205,1029.213,1371.353,1027.067z M3482.078,1063.768c105.724,37.421,130.241,128.07,119.108,194.339
			c-10.837,64.507-59.79,134.195-141.66,134.769c-0.685,0.005-1.367,0.007-2.049,0.007c-63.859,0-113.349-21.052-147.116-62.589
			c-15.469-19.029-23.954-38.284-28.26-50.592c0.48-4.524,0.963-9.171,1.452-13.888c2.757-26.581,5.881-56.709,10.12-77.434
			c8.168-39.93,66.412-83.55,79.728-93.071c2.256-1.19,3.823-2.494,4.991-4.042c0.095-0.122,0.183-0.249,0.272-0.375
			c0.051-0.073,0.108-0.143,0.158-0.218c0.012-0.018,0.021-0.036,0.033-0.054c0.059-0.089,0.112-0.181,0.168-0.271
			c8.241-12.62,7.424-26.636,6.873-35.938c-0.132-2.229-0.255-4.35-0.227-5.972
			C3422.059,1051.155,3454.154,1056.246,3482.078,1063.768z M1418.137,1287.149c-57.088,5.602-362.008-27.836-462.887-53.886
			c-39.949-10.316-69.255-32.582-87.102-66.181c-7.756-14.602-11.55-28.296-13.377-37.295
			c56.253,3.255,123.848,7.472,192.315,12.457c294.839,21.466,361.328,39.083,374.719,47.673
			c26.117,16.754,55.016,28.443,82.643,36.611C1491.269,1244.931,1459.254,1283.118,1418.137,1287.149z M1514.707,1229.417
			c27.517,7.385,53.201,11.369,72.897,13.51c-5.541,9.022-13.605,22.269-21.788,36.125c-32.661-6.373-62.841-14.56-77.009-18.594
			C1500.763,1248.722,1509.617,1236.878,1514.707,1229.417z M1598.688,1244.006c20.919,1.506,233.309,3.37,449.257,3.932
			c37.32,0.097,80.731,0.172,125.662,0.172c115.845,0,241.674-0.501,298.592-2.419c3.718,7.412,9.65,19.472,15.852,33.014
			c-88.707,2.915-392.373,5.213-603.033,6.808c-123.08,0.932-220.296,1.667-240.41,2.235c-19.872,0.563-44.366-2.441-68.317-6.733
			C1585.147,1266.086,1593.675,1252.143,1598.688,1244.006z M2483.181,1245.265c9.329-0.423,15.704-0.904,18.497-1.452
			c5.852-1.147,11.792-2.295,17.705-3.438c19.471-3.761,37.468-7.239,51.788-10.534c-26.379,22.122-52.727,43.78-58.761,47.514
			c-1.814,0.321-6.449,0.636-13.534,0.944C2493.038,1265.369,2487.299,1253.546,2483.181,1245.265z M2594.285,1223.451
			c1.194-0.44,2.297-0.877,3.276-1.313c1.656-0.736,3.926-1.921,7.066-3.56c75.484-39.395,166.433-62.389,270.319-68.345
			c82.379-4.722,197.628-14.371,297.539-24.865c-5.249,29.76-24.533,109.466-82.609,129.403
			c-55.777,19.147-275.629,26.633-381.285,30.23c-47.727,1.625-61.212,2.16-64.515,2.95c-0.011,0-0.021,0-0.033,0
			c-6.995,0-44.87-21.341-76.936-41.669C2576.944,1238.078,2586.562,1229.979,2594.285,1223.451z M3175.784,1104.911
			c-102.063,10.813-217.775,20.528-301.981,25.355c-68.346,3.917-132.04,15.173-189.312,33.455
			c-46.29,14.775-76.301,30.438-89.116,37.126c-2.712,1.415-4.854,2.533-5.937,3.014c-10.388,4.617-42.649,10.85-73.85,16.877
			c-5.931,1.146-11.89,2.297-17.76,3.448c-15.279,2.996-187.644,4.432-449.831,3.75c-213.692-0.556-431.475-2.452-448.132-3.9
			c-37.946-3.3-110.134-14.307-167.262-50.955c-9.801-6.288-35.113-16.112-141.31-28.78
			c-61.833-7.376-143.521-14.781-242.792-22.009c-157.101-11.437-309.595-18.835-331.437-19.873
			c-3.904-2.588-7.916-5.021-12.031-7.285c100.928,0.119,999.201,1.148,1746.179,1.148c322.497,0,616.876-0.192,806.576-0.732
			C3234.757,1098.416,3207.569,1101.544,3175.784,1104.911z M691.807,1088.596c-19.874-8.777-41.686-13.819-64.585-14.258
			c17.827-3.143,39.244-4.562,64.119-2.244C690.578,1077.154,690.73,1082.658,691.807,1088.596z M623.961,1094.296
			c83.421,0,151.289,69.382,151.289,154.665s-67.868,154.664-151.289,154.664c-83.421,0-151.289-69.382-151.289-154.664
			S540.54,1094.296,623.961,1094.296z M795.25,1248.961c0-49.069-19.954-93.469-52.013-125.228
			c23.195,1.171,58.572,3.021,101.208,5.46c1.724,9.526,5.69,25.168,14.663,42.187c13.194,25.024,40.15,57.753,93.642,71.566
			c93.854,24.235,363.6,54.784,449.273,54.784c6.978,0,12.748-0.203,17.089-0.629c23.98-2.351,44.745-14.683,61.079-28.717
			c9.768,2.894,42.929,12.424,80.23,19.866c-10.153,17.445-19.653,34.58-23.775,44.297c-5.691,13.416-5.36,25.463,0.985,35.806
			c6.021,9.814,17.233,17.778,33.808,23.973c-4.871,0.016-9.705,0.032-14.474,0.049c-293.465,1.025-699.881-50.408-781.91-61.211
			C787.934,1306.65,795.25,1278.662,795.25,1248.961z M1611.848,1392.195c-43.038-7.275-59.663-19.244-65.691-29.07
			c-4.622-7.534-4.721-16.258-0.303-26.672c4.157-9.799,14.34-27.999,24.994-46.2c23.569,4.341,48.046,7.564,68.802,7.564
			c1.775,0,3.525-0.024,5.243-0.072c20.01-0.564,117.181-1.3,240.204-2.231c126.367-0.956,283.635-2.146,408.117-3.558
			c118.165-1.339,173.223-2.481,199.251-3.456c9.738,22.018,19.002,45.823,20.311,59.236c0.714,7.319-0.681,12.826-4.391,17.333
			c-9.255,11.241-34.489,18.007-72.605,23.275c-192.457,1.903-491.868,2.826-728.358,3.554
			C1674.297,1391.999,1642.297,1392.098,1611.848,1392.195z M2516.103,1371.423c5.433-6.598,7.599-14.664,6.624-24.659
			c-1.352-13.862-10.076-36.974-19.538-58.738c11.755-0.624,12.745-1.173,13.615-1.656c4.96-2.756,24.981-19.028,45.305-35.925
			l-2.045,3.211c0.183,0.116,18.493,11.766,37.765,22.902c31.928,18.451,41.945,21.469,46.256,21.469
			c1.105,0,1.836-0.199,2.464-0.386c3.464-0.64,30.783-1.57,62.384-2.646c114.28-3.891,327.001-11.134,384.19-30.767
			c32.272-11.078,58.258-40.508,75.146-85.107c8.539-22.549,12.731-43.393,14.585-54.852c1.168-0.125,2.347-0.249,3.511-0.374
			c52.698-5.66,97.357-11.192,129.151-15.999c4.586-0.693,8.909-1.373,12.977-2.038c-22.624,20.53-48.471,49.452-54.415,78.512
			c-4.437,21.69-7.615,52.338-10.42,79.378c-2.252,21.714-5.247,50.599-8.071,60.584c-51.573,5.683-524.389,56.983-653.795,61.297
			c-24.429,0.814-63.641,1.518-113.389,2.132C2502.119,1383.304,2510.661,1378.033,2516.103,1371.423z M3522.478,1839.85
			l105.791-2.271l0.076,16.218l-103.546,3.087C3524.015,1851.195,3523.24,1845.509,3522.478,1839.85z M3627.262,1621.419
			l-123.382,4.583c0.576-5.328,1.443-10.432,2.68-15.276l120.625-5.808L3627.262,1621.419z M3628.12,1805.75h-110.133
			c-0.633-4.926-1.251-9.782-1.851-14.556l111.896-4.241L3628.12,1805.75z M3628.589,1906.319l-96.449,2.059
			c-0.772-5.223-1.546-10.517-2.317-15.859l98.688-3.218L3628.589,1906.319z M3626.907,1545.144l0.08,17.073l-87.233,6.713
			C3567.57,1554.783,3601.776,1548.116,3626.907,1545.144z M3523.442,1580.215l103.591-7.972l0.106,22.664l-117.255,5.646
			C3513.011,1592.886,3517.4,1586.052,3523.442,1580.215z M3503.132,1636.035l124.177-4.612l0.063,13.594l-124.356,7.11
			C3502.884,1646.602,3502.903,1641.229,3503.132,1636.035z M3627.418,1655.031l0.074,15.829l-123.184,5.713
			c-0.359-4.902-0.675-9.724-0.914-14.452L3627.418,1655.031z M3627.539,1680.87l0.088,18.889l-121.209,3.508
			c-0.28-3.614-0.57-7.22-0.862-10.807c-0.161-1.98-0.32-3.95-0.477-5.91L3627.539,1680.87z M3627.673,1709.762l0.069,14.817
			l-118.85,4.948c-0.634-5.994-1.18-11.453-1.626-16.28L3627.673,1709.762z M3627.789,1734.586l0.077,16.523l-116.207,3.198
			c-0.601-5.163-1.165-10.115-1.686-14.816L3627.789,1734.586z M3627.913,1761.111l0.074,15.837l-113.091,4.286
			c-0.719-5.821-1.407-11.484-2.061-16.956L3627.913,1761.111z M3628.167,1815.75l0.055,11.827l-107.078,2.299
			c-0.631-4.744-1.252-9.458-1.861-14.126H3628.167z M3628.391,1863.801l0.072,15.497l-100.069,3.263
			c-0.743-5.213-1.482-10.457-2.215-15.714L3628.391,1863.801z M3628.635,1916.321l0.06,12.809
			c-8.538,0.064-31.28,0.478-93.121,2.034c-0.646-4.201-1.296-8.477-1.948-12.814L3628.635,1916.321z M3628.741,1939.098
			l0.085,18.316c-6.155-0.171-18.493-0.173-44.253-0.07c-18.882,0.074-37.848,0.208-44.815,0.26
			c-0.866-5.301-1.746-10.804-2.637-16.477C3570.515,1940.291,3615.155,1939.24,3628.741,1939.098z M3628.873,1967.407l0.063,13.468
			h-85.233c-0.746-4.213-1.51-8.652-2.29-13.284C3573.005,1967.353,3616.194,1967.154,3628.873,1967.407z M3628.982,1990.875
			l0.06,12.924l-80.71,1.412c-0.891-4.256-1.833-9.059-2.816-14.336H3628.982z M3629.089,2013.799l0.245,52.669
			c-3.551,1.767-6.675,2.624-8.572,2.538c-7.806-0.411-56.704-24.911-66.882-43.416c-0.924-1.68-2.04-5.261-3.309-10.418
			L3629.089,2013.799z M3639.302,2059.565l-2.4-515.464c9.499-0.857,16.956-1.14,21.167-1.14c0.897,0,1.647,0.013,2.238,0.035
			c7.088,0.272,11.455,11.698,12.667,16.484c-0.871,20.183-19.525,451.951-21.459,476.121
			C3650.689,2045.935,3645.396,2053.967,3639.302,2059.565z M2391.251,1548.905v41.31l-680.751,3.267v-45.078
			C1936.739,1549.006,2179.115,1549.133,2391.251,1548.905z M1558.846,1812.375h939.212l42.868,32.847
			c-2.592,10.429-4.345,19.234-5.428,25.282l-1000.563,0.452c-2.205-5.823-4.502-11.628-6.9-17.389
			c-1.537-3.692-3.093-7.305-4.666-10.853L1558.846,1812.375z M3381.337,2175.703c-3.353-8.644-20.79-52.922-43.114-97.654
			c-33.827-67.783-62.521-104.358-85.285-108.71c-48.291-9.232-377.133-13.694-423.295-14.278c0.16-6.159-0.1-13.598-1.355-21.687
			c-4.968-31.996-27.305-84.795-121.104-78.864c-74.785,4.724-119.349,26.239-143.563,43.457
			c-5.849,4.159-10.832,8.269-15.052,12.161c3.354-16.636,5.254-27.744,5.289-27.951l-0.01-0.002c0.017-0.1,0.042-0.197,0.055-0.297
			c0.06-0.427,1.876-12.901,6.24-30.612c18.655-32.733,64.051-101.182,117.956-102.267c6.63-0.134,16.415-0.358,28.787-0.642
			c2.66-0.061,5.311-0.121,7.953-0.181l27.504,41.104c0.929,1.389,2.488,2.22,4.155,2.22c0.022,0,0.046,0,0.068,0
			c17.976-0.245,440.348-6.016,449.483-7.03c4.002-0.445,9.556-3.349,20.406-21.517c3.711-6.213,6.882-12.286,8.645-15.771
			c32.049,1.823,53.212,4.352,63.382,7.584c32.357,10.283,60.11,46.316,78.247,75.99c45.411,98.959,73.304,225.985,65.414,253.211
			c-14.483,49.968-36.419,89.784-36.637,90.178l2.608,1.449L3381.337,2175.703z M1542.132,1890.953l989.936-0.447
			c-1.721,9.336-3.723,19.399-5.951,29.789l-975.242-2.082C1548.176,1909.236,1545.266,1900.114,1542.132,1890.953z
			 M2810.279,1930.78c-14.146-19.858-40.061-30.885-77.024-32.773c-39.869-2.039-75.566,6.251-106.09,24.637
			c-25.575,15.405-42.562,34.778-53.802,47.598c-3.143,3.585-5.856,6.68-8.174,9.031c-12.894,13.081-25.709,5.393-30.547,1.564
			l4.326-27.156c2.091-8.674,4.001-17.098,5.704-24.94c5.194-6.31,13.334-14.604,25.428-23.107
			c23.13-16.263,65.798-36.601,137.714-41.143c49.063-3.105,82.634,10.068,99.78,39.136c9.237,15.659,11.993,33.023,12.105,47.099
			C2817.892,1944.253,2814.987,1937.389,2810.279,1930.78z M2549.849,1996.574c0.057,0,0.114,0,0.171,0
			c8.115-0.05,15.615-3.509,22.291-10.282c2.522-2.559,5.326-5.756,8.571-9.458c22.465-25.622,64.258-73.304,151.863-68.841
			c33.759,1.726,57.105,11.344,69.39,28.589c1.841,2.584,3.355,5.24,4.607,7.906c-8.9,7.346-29.845,26.503-39.036,34.951
			c-18.3-23.354-46.722-38.382-78.581-38.382c-55.071,0-99.875,44.903-99.875,100.097s44.804,100.097,99.875,100.097
			c43.702,0,80.934-28.279,94.446-67.536c3.194,0.121,8.003,0.299,12.829,0.462c3.424,0.115,6.839,0.221,9.693,0.295
			c-5.571,14.634-13.176,28.678-23.517,40.694c-20.241,23.517-48.34,36.125-83.517,37.473
			c-59.228,2.271-106.555-15.709-140.67-53.431c-22.945-25.372-31.888-51.659-33.529-56.962l8.061-50.597
			C2537.187,1994.142,2543.081,1996.574,2549.849,1996.574z M2779,2041.153c0,49.68-40.317,90.097-89.875,90.097
			s-89.875-40.417-89.875-90.097s40.317-90.097,89.875-90.097S2779,1991.474,2779,2041.153z M2788.65,2049.5h25.028
			c-1.183,5.01-2.548,10.043-4.132,15.047c-4.709-0.087-13.834-0.385-23.128-0.732
			C2787.497,2059.159,2788.246,2054.378,2788.65,2049.5z M2815.81,2039.5h-26.831c-0.309-19.025-5.938-36.776-15.462-51.821
			c12.005-11.046,28.316-25.863,36.809-33.161c2.114,8.125,2.367,15.612,2.527,20.601c0.178,5.519,0.275,8.559,2.889,10.532
			c1.347,1.018,3.069,1.361,4.722,0.948c0.089-0.022,0.183-0.046,0.28-0.072C2820.662,2000.829,2819.593,2019.665,2815.81,2039.5z
			 M2726.694,1747.911c234.867-5.214,397.95-5.642,487.484-1.302c-7.585,14.47-15.986,26.768-19.322,27.93
			c-10.456,0.809-294.129,4.856-445.711,6.926L2726.694,1747.911z M3291.515,1745.235c-59.558-18.931-454.932-9.858-584.856-6.876
			c-12.359,0.284-22.135,0.508-28.759,0.642c-32.48,0.654-65.292,22.052-97.523,63.599c-3.403,4.386-6.603,8.756-9.601,13.031
			c14.502-40.711,39.812-85.775,81.349-89.418c88.646-7.776,550.603-19.797,630.847-3.17c11.455,2.374,30.108,13.635,54.799,53.119
			C3324.03,1762.165,3308.445,1750.616,3291.515,1745.235z M3366.942,2185.799l-3.659,32.079
			c-12.811,10.216-102.832,79.823-189.522,91.04c35.021-20.084,62.261-43.825,81.387-63.494
			c25.609-26.336,41.102-49.509,47.111-59.198L3366.942,2185.799z M3377.014,2185.732l29.433-0.194l-3.424,75.34
			c-2.702,1.403-4.694,3.999-5.247,7.139c-0.053,0.301-5.388,30.396-13.893,61.371c-15.675,57.087-27.216,63.354-28.406,63.853
			c-0.355,0.119-1.015,0.271-2.174,0.357L3377.014,2185.732z M3416.461,2185.472l218.967-1.443l8.138,55.974l-230.459,19.254
			L3416.461,2185.472z M3653.703,2240.218l-8.673-59.651l37.363-42.468c1.124,1.3,2.453,2.978,3.875,5.032l-15.533,133.874
			l-11.348-30.948C3658.386,2243.324,3656.279,2241.247,3653.703,2240.218z M3280.864,849.965c9.662-0.594,52.753,1.556,98.75,7.697
			c78.695,10.507,92.21,22.784,94.12,25.138c16.382,20.192,12.123,45.22,11.234,49.515c-26.471,2.159-125.545,9.89-167.265,8.189
			c-31.594-1.29-52.318-8.385-62.516-12.899c0.88-5.389,3.683-21.591,8.098-38.152
			C3272.47,855.007,3280.058,850.369,3280.864,849.965z M3241.13,937.221c2.844,1.194,6.081,1.008,8.77-0.503
			c0.154-0.087,0.296-0.19,0.444-0.285c10.924,4.973,32.984,12.676,66.952,14.063c4.282,0.175,9.122,0.255,14.395,0.255
			c48.379,0,133.063-6.725,155.375-8.569c1.044,1.163,2.369,2.099,3.922,2.682c0.869,0.326,79.194,30.471,122.489,107.351
			c1.916,21.072,6.066,65.429,11.125,111.858c-4.087-10.777-9.195-20.853-15.328-30.174c-15.976-24.281-39.351-44.23-69.476-59.292
			c-55.252-27.626-134.234-40.17-241.384-38.355c-109.195,1.857-288.088-4.288-426.344-10.159l-119.885-53.815
			c71.245-57.015,157.971-126.078,166.971-131.865c6.209-3.991,22.615-11.089,40.793-16.381c23.669-6.893,33.741-5.991,35.628-5.061
			l0,0C3004.013,823.135,3200.819,920.3,3241.13,937.221z M1215.421,690.578c84.76-62.962,238.909-141.869,491.928-160.229
			c477.264-34.629,919.138,22.452,1039.224,59.213c87.21,26.697,196.485,161.953,232.875,209.614
			c-6.56,0.912-14.775,2.648-25.088,5.652c-13.597,3.959-27.646,9.292-37.605,14.146c-9.784-13.664-32.231-44.625-56.875-75.981
			c-61.023-77.642-82.282-90.744-92.965-93.846c-9.445-2.742-236.652-67.101-699.268-62.271
			c-191.881,2.004-380.826,12.614-532.03,29.877c-63.761,7.279-119.506,15.618-161.209,24.113
			c-62.427,12.718-73.981,21.663-77.778,24.603c-30.693,23.762-103.675,132.489-126.378,166.883
			c-23.868-24.213-47.46-29.043-63.164-28.786c-1.288,0.021-2.54,0.079-3.761,0.161
			C1119.949,779.265,1154.687,735.692,1215.421,690.578z M621.852,896.403c25.279-8.749,136.564-40.371,183.818-39.405
			c44.682,0.912,46.044,57.474,46.08,59.861c0.001,0.099,0.016,0.195,0.02,0.293c-15.305,6.428-60.956,24.782-91.358,28.382
			c-28.482,3.374-104.254-1.048-138.414-3.322c0-0.013,0.002-0.025,0.002-0.038C621.87,924.865,621.794,905.822,621.852,896.403z
			 M521.879,997.566c36.427-33.939,70.995-47.242,89.091-45.369c1.387,0.143,2.77-0.01,4.069-0.424
			c22.844,1.589,76.29,4.993,114.858,4.993c12.727,0,23.841-0.372,31.69-1.301c33.262-3.939,81.855-23.878,95.699-29.778
			c2.064,1.031,4.439,1.334,6.729,0.802c3.45-0.803,85.082-20.039,135.011-53.156c47.152-31.274,85.721-44.21,86.099-44.334
			c0.635-0.209,1.243-0.481,1.817-0.808l0.001,0.001c0.332-0.189,33.672-18.479,69.862,19.004
			c25.811,26.733,99.475,87.396,154.064,131.482l-101.521,43.818c-201.649,6.781-519.026,17.517-596.791,20.507
			c-27.603,1.062-54.158,9.78-78.929,25.913c-19.664,12.807-38.234,30.287-55.195,51.954c-13.07,16.697-23.085,33.153-30.188,46.29
			c0.376-3.176,0.613-5.187,0.692-5.851l21.337-101.637C488.562,1031.823,506.748,1011.665,521.879,997.566z M357.999,1610.668
			l0.257-15.483c2.828-171.078,4.386-265.316,59.205-425.446c11.238-32.828,24.01-60.678,37.173-84.23l-15.528,73.964
			c-0.03,0.146-0.054,0.292-0.072,0.439c-0.405,3.42-40.575,342.755-46.511,403.603c-3.867,39.642,10.605,228.48,15.133,285.413
			c4.786,60.179,10.092,120.652,14.558,165.915c2.257,22.877,4.204,40.955,5.787,53.731c0.822,6.63,1.541,11.777,2.139,15.3
			c0.832,4.904,1.381,8.145,4.504,9.394c0.753,0.301,1.862,0.452,3.274,0.452c8.126-0.001,26.242-5.009,43.805-15.163
			c22.696-13.121,51.114-38.299,57.603-83.725c9.732-68.121,25.37-317.968,26.244-385.889c8.232-4.591,38.963-20.498,94.271-35.55
			c60.189-16.382,162.599-35.063,308.647-31.02c116.876,3.234,407.011,5.114,732.013,6.003v45.153l-384.649,1.846l0.048,10
			l236.101-1.133v200.83l-32.944,28.173c-36.052-76.786-81.062-117.205-133.986-120.229c-65.305-3.732-212.239-8.839-349.363-7.61
			c-76.026,0.682-138.341,3.215-185.216,7.53c-77.978,7.18-97.183,17.936-104.845,25.401
			c-19.781,19.274-46.628,84.629-79.796,194.25c-23.063,76.225-44.725,160.667-44.725,168.412c0,3.229,0,8.633,22.379,54.603
			c6.179,12.694,12.401,25.05,16.547,33.207l-224.603-0.799l-29.359-52.845c1.034-1.748,1.66-4.113,1.244-7.337
			c-0.08-0.625-0.208-1.553-0.378-2.771c-0.33-2.345-0.827-5.805-1.469-10.271C364.075,1826.785,356.805,1681.681,357.999,1610.668z
			 M873.8,2428.664c-5.927,2.061-42.047,5.816-139.403,5.888c-0.897,0.001-1.787,0.001-2.685,0.001
			c-80.41,0-165.919-2.664-229.255-7.152c-61.611-4.366-99.893-23.559-120.477-60.398c-19.012-34.027-21.607-81.17-24.117-126.762
			c-2.768-50.287-2.651-211.18-1.902-353.941c7.086,64.544,16.733,140.958,29.728,231.333c0.052,0.361,0.104,0.718,0.154,1.07
			c-5.63,2.105-12.11,7.253-18.498,18.287c-2.788,4.814-8.587,14.833,3.119,101.72c5.588,41.479,12.62,81.145,12.69,81.54
			c0.848,4.773,4.998,8.25,9.845,8.25c0.383,0,9.555-0.03,24.258-2.655c14.42-2.575,18.103-23.338,19.702-41.138
			c0.641-7.143,0.917-14.162,1.025-19.755l233.661,31.82c3.097,10.97,9.835,34.572,17.041,58.15
			c5.78,18.914,10.736,34.143,14.73,45.262c7.629,21.241,10.843,25.718,16.072,27.679c17.372,6.515,74.625-1.907,107.205-7.508
			c20.759-3.568,42.995-11.644,63.799-21.081C884.715,2413.349,878.257,2425.513,873.8,2428.664z M1006.452,2400.867l-6.779-104.807
			c19.474,9.551,61.379,29.747,85.149,38.555C1053.006,2364.174,1017.605,2394.736,1006.452,2400.867z M1100.096,2323.876
			c-2.497,0.039-4.889,1.01-6.706,2.724c-0.152,0.143-0.307,0.288-0.459,0.431c-17.208-5.906-58.917-25.076-96.584-43.76
			c-1.602-0.795-3.505-0.673-4.993,0.317c-1.488,0.991-2.333,2.701-2.218,4.484l7.392,114.285
			c-5.753-0.389-10.518-2.351-12.039-3.835c-0.243-10.964-4.081-52.153-4.531-56.956c-0.333-3.55-2.531-6.653-5.768-8.146
			c-3.236-1.494-7.025-1.15-9.941,0.901c-0.06,0.042-0.58,0.405-1.504,1.037c-60.614-17.36-103.056-53.181-128.343-80.812
			c-22.059-24.104-35.114-46.145-40.073-55.259l361.527,1.286l11.562,122.267L1100.096,2323.876z M1304.462,2398.265
			c-36.522,6.161-90.836,15.325-102.789,13.129c-3.569-14.968-18.388-80.162-18.546-80.859c-0.71-3.122-2.824-5.629-5.59-6.892
			l-11.634-123.033l67.2,0.239c3.834,7.402,20.634,38.723,46.253,70.538c34.52,42.868,68.916,67.05,102.442,72.101
			C1381.522,2353.185,1375.275,2386.32,1304.462,2398.265z M1391.625,2329.5c-2.957,0-5.783,1.175-7.683,3.44
			c-0.183,0.219-0.348,0.447-0.511,0.676c-67.814-10.279-124.997-107.221-138.954-132.728l308.565,1.098l30.201,127.514H1391.625z
			 M1638.071,2416.078c-6.987-14.705-29.022-61.279-38.281-80.854c-1.231-2.602-3.497-4.498-6.17-5.3l-31.734-133.99
			c-1.137-5.683-52.105-260.117-71.3-333.205c-9.531-36.293-29.896-63.928-46.8-81.801c24.774,20.527,44.732,48.545,58.491,71.435
			c4.832,8.038,9.18,15.884,13.037,23.271c24.549,63.981,37.402,131.124,43.119,160.994c0.572,2.992,1.073,5.606,1.506,7.805
			c1.593,8.088,6.697,19.094,14.744,32.717l77.669,339.152C1646.268,2416.314,1641.323,2416.25,1638.071,2416.078z
			 M1722.143,2415.003l-8.813,0.206c-17.376,0.408-35.921,0.842-50.736,1.016l-71.929-314.086
			c21.23,31.32,52.049,71.575,88.629,118.774c37.112,47.885,75.447,97.348,82.516,114.581
			C1761.262,2347.23,1756.592,2414.201,1722.143,2415.003z M2028,2334.938c0-6.651,4.374-12.063,9.75-12.063s9.75,5.411,9.75,12.063
			c0,6.038-3.608,11.039-8.294,11.913c-0.741,0.034-1.48,0.068-2.217,0.102C2031.968,2346.469,2028,2341.271,2028,2334.938z
			 M2104.678,2342.338c-6.562,0.875-27.443,2.457-49.876,3.711c1.712-3.266,2.698-7.062,2.698-11.112
			c0-12.165-8.859-22.063-19.75-22.063s-19.75,9.897-19.75,22.063c0,4.69,1.321,9.039,3.563,12.618
			c-16.378,0.525-29.755,0.525-33.888-0.507c-13.133-3.283-26.846-12.1-26.975-12.184c-0.698-0.454-1.45-0.809-2.232-1.075
			c-0.416-8.058-1.259-23.961-2.29-43.29h17.205c3.727,7.392,11.384,12.477,20.212,12.477c8.654,0,16.185-4.886,19.989-12.042
			c3.144,8.721,11.5,14.973,21.29,14.973c8,0,15.037-4.177,19.062-10.46c4.024,6.283,11.062,10.46,19.062,10.46
			c10.047,0,18.581-6.585,21.524-15.664l25.038-1.722c-1.516,21.485-2.88,39.957-3.647,50.224c-0.693,0.334-1.352,0.743-1.955,1.231
			C2113.411,2340.272,2110.816,2341.52,2104.678,2342.338z M2464.027,2328.762c-6.034,34.195-15.853,68.288-21.403,74.643
			c-5.87,0.717-29.455-1.938-58.025-13.151c-17.682-6.94-47.989-21.657-59.678-44.352
			c56.04-102.688,145.063-257.973,167.225-276.625c8.492-7.147,16.789-21.171,25.039-42.411l-46.885,294.3
			C2467.102,2322.391,2464.653,2325.215,2464.027,2328.762z M2480.515,2320.601l20.566-129.095l317.664-2.094
			c-11.998,23.911-54.443,101.838-113.523,136.07c-1.51-0.925-3.253-1.453-5.067-1.481L2480.515,2320.601z M2808.146,2401.894
			c-29.345-6.059-47.006-12.911-49.939-15.234c-5.603-4.436-20.398-21.772-34-38.434c49.793-12.435,90.538-42.672,116.546-66.614
			c16.88-15.54,29.627-30.169,37.657-40.152c-0.747,15.159-1.659,31.861-2.742,48.674c-5.583,86.618-11.422,110.953-14.348,117.763
			C2848.624,2408.405,2829.455,2406.292,2808.146,2401.894z M2892,2313.498c0,0.234-0.05,23.741-3.548,47.625
			c-4.15,28.329-10.874,41.49-16.05,44.859c3.766-13.432,8.636-43.719,13.243-115.192c2.715-42.11,4.358-83.535,5.018-101.852
			l14.028-0.092l-7.148,115.714c-0.854,0.426-1.655,0.967-2.365,1.63C2893.151,2308.08,2892.001,2310.728,2892,2313.498z
			 M2907.605,2303.862l7.109-115.082l375.585-2.476c-7.413,11.214-21.596,30.87-42.549,52.382
			c-20.432,20.977-50.373,46.725-89.357,67.275c-37.128,8.76-89.768-27.206-90.298-27.573c-1.428-0.985-3.266-1.164-4.853-0.467
			l-75.326,33.026c-1.526-1.121-3.337-1.793-5.231-1.923L2907.605,2303.862z M3091.502,2334.319
			c-0.322,17.822-1.362,38.814-2.648,48.393c-3.807-0.189-8.84-0.795-11.429-1.342c-7.669-5.766-48.905-38.3-80.619-63.402
			l67.945-29.789c8.788,5.731,40.111,24.893,71.168,28.548c-8.404,3.635-17.169,6.982-26.277,9.982
			c-3.077-1.043-4.798-1.634-4.894-1.667c-3.024-1.038-6.363-0.568-8.984,1.268
			C3093.144,2328.144,3091.56,2331.122,3091.502,2334.319z M3729.5,2033.447c-0.602,114.374-7.421,204.228-20.267,267.065
			c-13.725,67.139-34.846,105.231-61.08,110.159c-66.644,12.52-403.861,18.795-451.582,11.202
			c-28.884-4.595-42.851-39.988-48.726-61.422c20.208,6.572,44.644,14.344,69.519,21.841
			c125.555,37.848,139.696,31.955,145.732,29.438c9.178-3.824,23.322-15.985,40.109-77.179
			c6.222-22.681,10.703-44.388,12.849-55.472l227.181-18.98l19.376,52.843c1.114,3.041,3.633,5.354,6.757,6.205
			c7.614,2.075,21.557,4.919,29.421,0.632c4.406-2.403,6.814-7.001,9.545-18.22c1.696-6.97,3.467-16.531,5.12-27.651
			c3.463-23.291,6.094-51.144,7.038-74.504c1.718-42.525-16.35-67.199-24.624-76.195c2.846-32.701,18.14-209.047,29.499-352.294
			C3727.89,1847.48,3729.985,1941.262,3729.5,2033.447z"/>
		<path d="M3321.354,1252.809c0,69.929,61.999,126.821,138.206,126.821c76.208,0,138.207-56.892,138.207-126.821
			s-61.999-126.821-138.207-126.821C3383.354,1125.988,3321.354,1182.88,3321.354,1252.809z M3459.561,1135.988
			c70.693,0,128.207,52.406,128.207,116.821s-57.514,116.821-128.207,116.821s-128.206-52.406-128.206-116.821
			S3388.867,1135.988,3459.561,1135.988z"/>
	</g>
</g>
</svg>
