<?xml version="1.0" encoding="utf-8"?>
<!-- Generator: Adobe Illustrator 27.5.0, SVG Export Plug-In . SVG Version: 6.00 Build 0)  -->
<svg version="1.1" xmlns="http://www.w3.org/2000/svg" xmlns:xlink="http://www.w3.org/1999/xlink" x="0px" y="0px"
	 viewBox="0 0 750 500" style="enable-background:new 0 0 750 500;" xml:space="preserve">
<g id="BACKGROUND">
	<rect style="fill:#FFFFFF;" width="750" height="500"/>
</g>
<g id="OBJECTS">
	<g>
		<path d="M456.311,198.412c0.805,1.324,1.717,3.165,3.072,4.182c0.014,0.516,0.02,1.031,0.054,1.547
			c0.11,1.639,0.22,3.279,0.33,4.918c-0.071,0.074-0.15,0.139-0.217,0.217c-0.408,0.468-0.817,0.937-1.225,1.405
			c-0.831,0.953-1.599,1.968-2.393,2.953c-0.259,0.322-0.441,0.635-0.441,1.064c0,0.369,0.164,0.81,0.441,1.064
			c0.287,0.263,0.663,0.459,1.064,0.441c0.422-0.019,0.737-0.177,1.064-0.441c0.194-0.157,0.354-0.393,0.482-0.639
			c0.668-0.908,1.354-1.809,1.98-2.746c0.126-0.188,0.252-0.377,0.378-0.566c0.084,0.136,0.167,0.273,0.249,0.408
			c0.261,0.427,0.551,0.825,0.848,1.228c0.593,0.803,1.186,1.605,1.78,2.408c0.256,0.346,0.525,0.587,0.937,0.721
			c0.472,0.153,0.988,0.012,1.367-0.281c0.34-0.263,0.533-0.597,0.59-1.023c0.071-0.53-0.108-0.911-0.431-1.317
			c-0.621-0.781-1.242-1.562-1.864-2.343c-0.302-0.38-0.6-0.753-0.935-1.105c-0.109-0.114-0.218-0.229-0.327-0.344
			c0.149-0.25,0.236-0.535,0.21-0.848c-0.144-1.724-0.288-3.449-0.433-5.173c-0.029-0.351-0.081-0.699-0.121-1.048
			c0.412-0.14,0.815-0.326,1.211-0.518c1.059-0.515,2.116-1.037,3.173-1.556c2.226-1.092,4.448-2.192,6.665-3.303
			c0.353-0.177,0.568-0.422,0.71-0.688c0.482-0.346,0.698-1.009,0.645-1.604c0.252-0.178,0.513-0.344,0.746-0.544
			c1.512-1.293-0.418-3.556-2.059-2.669c-1.666,0.9-3.138,1.732-5.021,2.132c-1.719,0.364-3.507,0.366-5.245,0.147
			c-1.759-0.222-3.477-0.775-5.059-1.568c-0.814-0.408-1.602-0.884-2.325-1.438c-0.742-0.569-1.419-1.276-2.266-1.688
			c-0.756-0.367-1.665,0.238-1.442,1.108c0.144,0.56,0.425,1.082,0.781,1.571c0.082,1.006,0.689,2.021,1.176,2.858
			C455.062,196.369,455.689,197.389,456.311,198.412z"/>
		<path d="M511.339,179.997c1.993,0.526,3.736-0.629,4.841-2.2c0.275-0.391,0.496-0.826,0.685-1.279
			c0.582-0.986,0.889-2.15,0.819-3.301c-0.097-1.581-0.734-3.154-2.003-4.155c-0.82-0.647-1.724-1.067-2.787-1.105
			c-0.333-0.012-0.654,0.041-0.968,0.12c-0.801,0.114-1.564,0.444-2.161,1.046c-0.567,0.57-0.853,1.258-0.951,2.025
			c-0.05,0.141-0.111,0.277-0.152,0.419c-0.289,0.324-0.545,0.67-0.715,1.051c-0.709,1.591-0.45,3.238,0.61,4.583
			C508.991,178.509,509.969,179.635,511.339,179.997z"/>
		<path d="M441.678,161.483c-0.333-0.012-0.654,0.041-0.968,0.12c-0.8,0.114-1.564,0.444-2.161,1.046
			c-0.567,0.57-0.853,1.258-0.951,2.025c-0.05,0.141-0.111,0.277-0.152,0.419c-0.289,0.324-0.545,0.67-0.715,1.051
			c-0.709,1.591-0.451,3.238,0.61,4.583c0.434,1.308,1.412,2.434,2.783,2.795c1.993,0.526,3.736-0.629,4.84-2.2
			c0.275-0.391,0.496-0.826,0.685-1.279c0.582-0.986,0.889-2.15,0.819-3.301c-0.096-1.581-0.734-3.154-2.003-4.155
			C443.644,161.942,442.74,161.522,441.678,161.483z"/>
		<path d="M520.979,159.699c0.511,0.731,1.012,1.466,1.575,2.158c0.163,0.201,0.542,0.34,0.794,0.329
			c0.254-0.011,0.479-0.085,0.68-0.241c0.4-0.309,0.627-1.001,0.289-1.449c-1.028-1.363-2.212-2.617-3.335-3.903
			c-0.295-0.337-0.849-0.327-1.182-0.07c-0.33,0.255-0.49,0.792-0.232,1.161C520.039,158.355,520.509,159.027,520.979,159.699z"/>
		<path d="M524.887,156.818c0.2,0.498,0.406,0.991,0.63,1.479c0.101,0.22,0.202,0.44,0.303,0.66c0.16,0.347,0.351,0.551,0.662,0.774
			c0.382,0.273,1.068,0.007,1.144-0.466c0.058-0.362,0.066-0.639-0.064-0.986c-0.091-0.243-0.182-0.486-0.273-0.729
			c-0.188-0.503-0.396-0.995-0.609-1.488c-0.399-0.923-0.798-1.846-1.197-2.769c-0.185-0.428-0.789-0.548-1.175-0.385
			c-0.391,0.165-0.72,0.674-0.545,1.11L524.887,156.818z"/>
		<path d="M446.035,148.648c-0.31,0.041-0.617,0.075-0.918,0.165c-0.242,0.072-0.483,0.144-0.725,0.217
			c-0.493,0.147-0.986,0.294-1.479,0.442c-0.4,0.119-0.693,0.566-0.559,0.983c0.134,0.413,0.551,0.676,0.983,0.558
			c0.496-0.135,0.993-0.271,1.489-0.406c0.243-0.066,0.487-0.133,0.73-0.199c0.302-0.082,0.58-0.21,0.863-0.339
			c0.242-0.11,0.37-0.409,0.378-0.658c0.004-0.129-0.031-0.276-0.104-0.384C446.556,148.822,446.303,148.612,446.035,148.648z"/>
		<path d="M448.51,143.278c-0.554-0.127-1.111-0.236-1.667-0.351c-0.25-0.052-0.527-0.011-0.708,0.187
			c-0.131,0.143-0.214,0.318-0.214,0.515c0,0.187,0.081,0.383,0.214,0.515c0.192,0.193,0.449,0.241,0.708,0.187
			c0.556-0.115,1.113-0.225,1.667-0.351C448.857,143.901,448.858,143.358,448.51,143.278z"/>
		<path d="M517.185,194.59c9.587,1.096,19.174,2.069,28.697,3.663c4.647,0.778,9.284,1.639,13.896,2.603
			c4.58,0.957,9.165,2.051,13.807,2.645c0.902,0.115,0.915-1.189,0.199-1.47c-4.47-1.753-9.244-2.809-13.938-3.78
			c-4.721-0.977-9.463-1.835-14.229-2.56c-9.401-1.432-18.915-2.578-28.432-2.738C516.106,192.934,516.163,194.474,517.185,194.59z"
			/>
		<path d="M550.914,204.463c-1.977-0.756-4.146-1.122-6.214-1.566c-2.092-0.449-4.193-0.865-6.289-1.297
			c-4.192-0.865-8.384-1.729-12.577-2.594c-1.231-0.254-1.76,1.626-0.522,1.892l12.79,2.749c2.091,0.449,4.179,0.919,6.275,1.346
			c2.079,0.423,4.2,0.954,6.321,1.059C551.671,206.101,551.714,204.769,550.914,204.463z"/>
		<path d="M711.894,312.152c-0.529-3.768-2.983-6.883-6.303-8.545c0.35-3.102-0.775-6.31-3.243-8.333
			c-2.221-1.82-5.034-2.388-7.731-1.869c-0.752-3.698-4.037-6.819-7.926-6.923c-3.946-0.105-7.383,2.953-8.276,6.663
			c-2.749-0.353-5.66,0.507-7.595,2.546c-0.702,0.74-1.269,1.638-1.688,2.6c-6.068-20.937-19.411-39.368-35.401-53.935
			c-9.153-8.339-19.097-15.84-29.773-22.115c0.188-0.825,0.361-1.655,0.49-2.498c1.159-7.581,0.342-15.282-1.264-22.746
			c4.06,5.733,8.435,11.239,13.215,16.396c9.904,10.685,21.587,19.616,34.788,25.843c6.274,2.96,13.435,6.31,20.544,5.964
			c6.268-0.305,11.536-4.199,13.098-10.358c1.639-6.463-0.409-13.509-4.087-18.892c-3.525-5.158-8.164-9.469-11.806-14.516
			c5.337-0.501,10.137-2.557,12.241-7.718c2.042-5.008-0.132-10.556-2.875-14.838c-2.855-4.457-6.634-8.394-10.237-12.248
			c-7.362-7.876-15.333-15.191-23.793-21.873c-16.777-13.251-35.377-24.099-55.216-32.076
			c-19.888-7.996-40.968-13.108-62.357-14.704c-2.665-0.199-5.282-0.146-7.944,0.037c-0.482,0.033-0.779,0.505-0.76,0.919
			c-9.967-2.927-20.83-2.537-30.941,0.2c-15.181,4.109-28.22,13.34-38.334,25.24c-10.69,12.578-18.138,27.419-24.319,42.626
			c-2.721,6.694-5.368,13.48-7.482,20.405c-3.14-0.657-6.296-1.238-9.467-1.73c-10.653-1.654-21.892-2.855-32.655-1.72
			c-0.693,0.073-0.711,1.04,0,1.092c5.301,0.39,10.62,0.482,15.924,0.88c5.504,0.412,10.998,1.051,16.449,1.918
			c3.054,0.486,6.093,1.057,9.12,1.688c-0.179,0.622-0.362,1.242-0.531,1.866c-0.746,2.758-1.369,5.564-1.836,8.393
			c-2.235,0.223-4.469,0.468-6.704,0.735c-4.274,0.511-8.539,1.085-12.79,1.762c-2.175,0.346-4.35,0.692-6.503,1.16
			c-2.21,0.481-4.586,0.871-6.678,1.746c-0.597,0.25-0.575,1.178,0.161,1.192c2.155,0.041,4.37-0.423,6.504-0.698
			c2.081-0.268,4.148-0.612,6.219-0.941c4.457-0.709,8.923-1.377,13.398-1.969c2.018-0.267,4.039-0.516,6.061-0.757
			c-0.66,5.017-0.754,10.092,0.102,15.11c2.485,14.557,13.437,24.479,26.279,30.358c-1.54,1.626-2.541,3.969-3.492,5.946
			c-1.074,2.23-1.977,4.572-2.759,6.92c-1.621,4.863-2.697,9.888-3.328,14.972c-1.257,10.119-0.513,20.503,2.203,30.334
			c1.123,4.066,2.51,8.512,4.8,12.219c0.904,9.862,4.552,19.612,8.608,28.525c2.289,5.029,4.925,9.885,7.887,14.549
			c1.48,2.329,3.037,4.608,4.671,6.832c0.801,1.091,1.622,2.168,2.455,3.235c0.63,0.805,1.156,1.6,1.983,1.98
			c0.478,2.688,0.946,5.378,1.376,8.074c0.522,3.277,1.06,6.552,1.545,9.835c0.419,2.836,0.68,5.737,1.225,8.559
			c-1.239,0.308-2.457,0.779-3.533,1.248c-1.903,0.83-3.663,2.072-4.975,3.693c-2.673,3.301-2.899,7.546-0.885,11.247
			c4.016,7.38,14.095,9.722,21.34,6.007c2.147-1.101,4.306-2.896,5.897-5.028c0.982,1.667,2.357,3.161,3.9,4.335
			c8.183,6.229,20.486,4.346,26.065-4.362c1.766-2.757,3.193-6.752,2.996-10.39c0.646,0.147,1.297,0.276,1.947,0.331
			c1.057,0.089,2.105,0.079,3.163,0.015c0.446-0.027,0.888-0.063,1.33-0.1c-0.481,0.888-0.828,1.848-0.977,2.9
			c-0.258,1.83,0.089,3.769,1.102,5.336c0.562,0.869,1.52,1.755,2.569,2.116c0.248,5.4,5.45,8.826,10.505,8.987
			c1.637,0.052,3.31-0.199,4.879-0.656c0.4-0.117,0.834-0.256,1.271-0.423c0.819,1.288,1.899,2.411,3.175,3.223
			c6.34,4.027,14.7-0.214,17.584-6.483c0.906-1.97,1.395-4.051,1.617-6.202c0.08-0.77,0.13-1.643,0.096-2.522
			c4.154-0.172,8.422-1.603,12.411-2.646c4.334-1.134,8.631-2.397,12.901-3.756c8.532-2.714,16.952-5.804,25.219-9.243
			c14.432-6.004,29.485-13.775,36.924-28.289c0.207-0.403,0.408-0.817,0.607-1.237c0.489,0.46,1.18,0.622,1.87,0.093
			c4.329-3.323,7.19-8.936,9.475-13.807c0.44-0.937,0.836-1.892,1.234-2.845c3.596,2.825,9.245,2.631,12.367-0.776
			c3.935,2.17,8.837,2.406,12.818,0.007c3.718-2.24,5.799-6.231,6.007-10.421c4.201,0.206,8.478-1.811,10.741-5.431
			c2.378-3.803,2.102-8.888-0.373-12.544C710.977,319.312,712.415,315.866,711.894,312.152z M653.279,235.655
			c-22.457-10.478-39.364-28.412-52.784-48.771c-2.892-9.095-7-17.778-12.106-25.837c1.644,1.669,3.492,3.143,5.249,4.697
			c2.578,2.282,5.152,4.57,7.68,6.906c4.992,4.614,9.83,9.395,14.503,14.331c9.375,9.903,18.148,20.364,26.145,31.413
			c2.238,3.091,4.418,6.225,6.538,9.399c1.034,1.549,2.058,3.104,3.067,4.669c0.717,1.112,1.375,2.34,2.187,3.415
			C653.599,235.804,653.437,235.729,653.279,235.655z M681.151,230.192c0.021,5.525-3.119,10.237-8.928,10.771
			c-5.04,0.464-10.276-1.41-15.04-3.518c0.484-0.332,0.785-0.917,0.612-1.674c-0.375-1.647-1.36-2.926-2.27-4.326
			c-1.015-1.562-2.043-3.116-3.089-4.657c-1.884-2.775-3.817-5.517-5.793-8.228c-4.04-5.542-8.262-10.954-12.658-16.218
			c-8.837-10.583-18.398-20.536-28.612-29.798c-2.898-2.628-5.831-5.228-8.86-7.705c-2.907-2.378-5.817-5.103-9.277-6.642
			c-0.201-0.089-0.457-0.032-0.63,0.101c-1.75-2.593-3.593-5.124-5.553-7.565c-0.665-0.829-1.345-1.631-2.035-2.419
			c-0.013-0.06-0.044-0.117-0.114-0.146c-0.009-0.004-0.018-0.007-0.027-0.011c-0.156-0.177-0.325-0.341-0.483-0.517
			c-0.525-0.963-1.057-1.922-1.59-2.88c17.265,11.2,30.617,27.405,46.976,39.857c8.86,6.744,18.813,12.493,29.693,15.203
			c2.912,0.725,6.583,1.435,10.319,1.658C669.831,210.88,681.105,218.146,681.151,230.192z M421.464,226.648
			c-4.405-7.81-4.923-16.485-3.632-25.111c5.342-0.597,10.691-1.135,16.037-1.647c0.864-0.083,0.901-1.398,0-1.376
			c-5.246,0.129-10.469,0.452-15.685,0.898c0.553-3.026,1.308-6.036,2.177-8.992c0.809,0.185,1.62,0.367,2.427,0.56
			c5.253,1.261,10.387,3.153,15.672,4.232c0.791,0.162,1.404-0.99,0.585-1.387c-4.796-2.32-10.232-3.572-15.379-4.876
			c-0.884-0.224-1.773-0.429-2.661-0.638c1.02-3.254,2.152-6.43,3.275-9.47c5.423-14.683,11.612-29.243,20.328-42.311
			c8.347-12.513,19.182-23.377,32.896-29.855c12.721-6.01,27.54-8.313,41.23-4.44c3.407,0.964,6.69,2.33,9.798,4.023
			c1.31,0.714,2.405-1.183,1.164-1.992c-2.788-1.816-5.735-3.249-8.779-4.368c4.257,0.619,8.534,1.028,12.804,1.604
			c5.086,0.686,10.148,1.512,15.176,2.541c10.057,2.059,19.983,4.815,29.658,8.243c19.384,6.868,37.823,16.477,54.536,28.463
			c8.353,5.991,16.272,12.623,23.639,19.792c3.68,3.581,7.23,7.297,10.636,11.14c3.399,3.835,7.051,7.75,9.159,12.485
			c0.866,1.945,1.309,4.034,1.108,5.951c-0.955,2.583-4.478,4.115-7.009,4.925c-3.318,1.063-6.711,1.725-10.155,1.889
			c-0.24-0.039-0.481-0.067-0.72-0.114c-0.358-0.07-0.669-0.226-0.929-0.44c-10.414-1.845-19.872-6.797-28.475-12.803
			c-18.071-12.616-31.857-30.401-50.339-42.51c-2.302-1.508-4.668-2.905-7.106-4.184c-2.704-1.418-5.1,2.646-2.4,4.105
			c0.236,0.127,0.46,0.268,0.694,0.397c-1.647-0.037-2.988,1.944-1.588,3.568c3.923,4.55,7.837,9.084,11.36,13.932
			c3.498,7.091,7.26,14.057,11.215,20.875c0.489,0.843,0.994,1.678,1.492,2.516c0.284,0.732,0.567,1.464,0.834,2.203
			c2.64,7.295,4.706,14.987,5.433,22.728c0.408,4.341,0.389,8.813-0.439,13.097c-0.465,0.307-0.676,0.988-0.333,1.525
			c-0.679,2.803-1.731,5.507-3.271,8.021c-7.678,12.537-23.974,16.488-37.332,19.456c-17.601,3.911-35.646,5.72-53.673,5.422
			c-16.959-0.28-34.328-2.082-50.708-6.636C441.58,244.585,428.172,238.54,421.464,226.648z M667.435,331.873
			c-0.83,6.033-2.417,12.009-4.743,17.638c-1.119,2.707-2.448,5.335-3.938,7.857c-0.568,0.961-1.195,1.888-1.827,2.813
			c1.313-5.301,1.41-10.955-1.045-15.672c-0.604-1.161-2.593-0.648-2.507,0.679c0.227,3.53,0.631,6.86,0.127,10.405
			c-0.502,3.529-1.449,6.955-2.992,10.178c-3.232,6.748-8.396,12.228-14.421,16.588c-6.111,4.423-12.931,7.757-19.828,10.757
			c-7.842,3.411-15.848,6.436-23.968,9.117c-4.448,1.469-8.932,2.823-13.433,4.116c-4.297,1.235-8.979,2.001-13.108,3.756
			c-0.156-0.437-0.347-0.852-0.605-1.215c-0.592-0.833-1.731-0.673-2.089,0.273c-0.526,1.391-0.393,3.027-0.538,4.49
			c-0.142,1.44-0.363,2.845-0.803,4.228c-0.789,2.482-2.258,4.808-4.503,6.197c-1.961,1.213-4.413,1.815-6.685,1.237
			c-1.68-0.427-2.985-1.51-3.829-2.922c0.298-0.71,0.052-1.511-0.744-1.749c-0.003-0.001-0.007-0.001-0.01-0.002
			c-0.04-0.14-0.089-0.277-0.121-0.421c-0.665-2.955,0.797-6.198,3.377-7.724c0.967-0.572,0.317-2.348-0.795-1.886
			c-3.395,1.41-5.838,4.33-6.213,8.031c-0.081,0.794-0.029,1.587,0.103,2.366c-0.305,0.09-0.605,0.179-0.896,0.254
			c-1.413,0.368-2.833,0.566-4.294,0.48c-2.038-0.12-4.197-1.148-5.362-2.851c-3.326-4.862,2.674-10.007,6.21-12.532
			c1.01-0.722,0.128-2.333-0.99-1.695c-2.368,1.352-4.846,2.643-6.763,4.622c-0.918,0.947-1.7,2.063-2.254,3.276
			c-0.188-0.237-0.351-0.499-0.462-0.812c-0.531-1.492-0.031-2.951,0.823-4.205c2.065-3.035,5.76-5.3,8.672-7.435
			c6.617-4.851,13.831-9.457,21.541-12.355c1.435-0.539,0.879-2.796-0.645-2.341c-1.76,0.525-3.466,1.142-5.15,1.799
			c-0.079-0.898-0.148-1.783-0.383-2.714c-0.345-1.37-0.671-2.743-0.951-4.128c-0.54-2.664-0.942-5.351-1.193-8.057
			c-0.508-5.464-0.515-10.962,0.014-16.424c1.053-10.869,4.27-21.683,9.331-31.358c2.839-5.427,6.126-10.952,10.058-15.655
			c0.765-0.914-0.482-2.221-1.33-1.331c-4.016,4.218-7.696,8.512-10.672,13.541c-2.914,4.924-5.314,10.158-7.207,15.555
			c-3.807,10.857-5.343,22.71-4.546,34.182c0.22,3.168,0.631,6.332,1.206,9.454c0.301,1.634,0.652,3.259,1.053,4.871
			c0.181,0.728,0.372,1.45,0.636,2.153c0.178,0.473,0.425,0.888,0.679,1.298c-6.397,2.887-12.305,6.656-17.99,10.983
			c-1.264,0.962-2.643,1.971-3.9,3.099c-0.582,0.087-1.179,0.286-1.759,0.4c-0.93,0.182-1.881,0.362-2.822,0.459
			c-1.015,0.104-2.034,0.164-3.051,0.254c-0.679,0.06-1.349,0.148-2.022,0.226c0.814-2.367,1.411-4.856,2.121-7.136
			c1.313-4.216,2.539-8.459,3.796-12.692c1.226-4.13,2.432-8.264,3.625-12.404l1.788-6.209c0.58-2.014,1.349-4.246,1.175-6.364
			c-0.099-1.201-1.472-1.518-2.168-0.587c-1.205,1.611-1.743,3.801-2.293,5.71c-0.596,2.07-1.192,4.139-1.788,6.209
			c-1.222,4.243-2.431,8.488-3.618,12.741c-1.158,4.148-2.35,8.288-3.453,12.451c-0.441,1.665-0.876,3.332-1.304,5.001
			c-0.787-0.39-1.775,0.406-1.866,1.253c-0.209,1.941,0.048,3.919-0.171,5.868c-0.21,1.869-0.795,3.72-1.69,5.373
			c-1.911,3.529-5.077,6.072-9.016,6.937c-3.819,0.838-7.952,0.001-11.191-2.164c-1.735-1.159-3.352-2.857-4.044-4.857
			c-0.666-1.926-0.155-3.605,1.031-5.175c1.147-1.518,2.548-2.822,3.787-4.26c1.428-1.658,2.094-3.253,2.408-5.395
			c0.063-0.427-0.112-0.754-0.374-0.937c0.005-1.044-0.051-2.084-0.041-3.019c0.029-2.66,0.035-5.32,0.016-7.98
			c-0.036-5.319-0.23-10.642-0.482-15.955c-0.509-10.734-1.38-21.487-2.794-32.141c-0.784-5.905-1.751-11.761-2.882-17.61
			c-0.162-0.839-1.604-0.662-1.51,0.204c1.457,13.502,2.747,27.053,3.396,40.62c0.325,6.799,0.538,13.606,0.558,20.413
			c0.01,3.404,0.011,6.81-0.029,10.214c-0.02,1.702-0.05,3.405-0.089,5.107c-0.028,1.203-0.074,2.395,0.246,3.525
			c-0.688,0.63-1.405,1.211-1.99,1.723c-1.622,1.419-3.283,2.772-4.389,4.661c-0.852,1.457-1.196,2.956-1.172,4.43
			c-0.609,1.337-1.251,2.616-2.263,3.759c-1.22,1.377-2.679,2.504-4.348,3.287c-3.638,1.708-8.057,1.399-11.534-0.556
			c-3.215-1.808-6.391-5.717-4.945-9.618c0.688-1.855,2.243-3.218,3.907-4.193c1.536-0.9,3.333-1.365,4.962-2.089
			c0.863,0.008,1.742-0.476,2.011-1.355c0.121-0.253,0.15-0.528,0.08-0.784c-0.092-3.219-0.72-6.467-1.182-9.648
			c-0.476-3.283-0.968-6.566-1.548-9.833c-1.159-6.529-2.468-13.033-3.913-19.504c-2.886-12.923-6.162-25.909-10.948-38.268
			c-0.431-1.112-2.087-0.703-1.815,0.5c2.909,12.855,6.314,25.577,8.944,38.499c0.271,1.331,0.511,2.667,0.77,4
			c-0.019-0.026-0.039-0.051-0.059-0.076c-1.531-2.072-2.996-4.192-4.394-6.357c-2.942-4.557-5.592-9.312-7.939-14.202
			c-2.329-4.854-4.268-9.857-5.998-14.952c-1.011-2.979-1.884-6-2.768-9.017c0.48-0.125,0.879-0.632,0.738-1.185
			c-1.172-4.596-3.404-8.931-4.806-13.48c-1.448-4.696-2.442-9.538-2.93-14.427c-0.96-9.616-0.165-19.361,2.498-28.657
			c0.745-2.599,1.615-5.165,2.615-7.676c0.537-1.35,1.065-2.704,1.655-4.032c0.506-1.138,1.11-2.262,1.404-3.476
			c0.095,0.04,0.188,0.086,0.283,0.126c6.719,2.822,13.769,4.712,20.905,6.138c9.32,1.862,18.76,3.157,28.236,3.886
			c18.878,1.452,37.917,0.595,56.601-2.461c8.786-1.437,17.623-3.229,26.112-5.948c7.07-2.264,13.995-5.346,19.681-10.206
			c4.655-3.98,7.944-9.145,9.753-14.89c8.235,5.971,16.477,11.965,24.092,18.715c8.597,7.621,16.536,16.134,23.05,25.615
			C662.885,287.418,670.494,309.635,667.435,331.873z M705.791,332.636c-1.962,3.048-5.824,4.15-9.185,3.113
			c-1.071-0.331-2.585,0.609-2.423,1.846c0.457,3.492-0.929,7.111-3.996,9.015c-3.058,1.897-7.268,1.6-10.046-0.688
			c-0.977-0.805-2.608-0.869-3.28,0.423c-1.408,2.707-6.008,3.506-7.917,0.829c-0.134-0.188-0.287-0.334-0.447-0.462
			c1.013-2.938,1.852-5.935,2.475-8.988c2.185-10.722,2.064-21.816-0.133-32.523c0.278-0.156,0.478-0.442,0.471-0.852
			c-0.042-2.256,0.079-4.689,1.8-6.365c1.719-1.675,4.149-1.943,6.324-1.105c1.047,0.403,2.168-0.623,2.158-1.644
			c-0.026-2.727,2.239-5.38,5.098-5.274c2.885,0.107,4.898,2.934,4.702,5.655c-0.1,1.386,1.478,1.949,2.535,1.455
			c4.695-2.194,9.55,2.203,8.28,7.074c-0.232,0.892,0.295,1.699,1.132,1.994c5.992,2.108,7.39,10.441,1.977,14.082
			c-0.942,0.633-1.052,1.757-0.336,2.608C707.257,325.532,707.741,329.606,705.791,332.636z"/>
		<path d="M473.386,278.964c-0.021-0.107-0.051-0.211-0.074-0.317c-0.012-0.058-0.022-0.116-0.033-0.174
			c-0.016-0.226-0.028-0.449-0.022-0.677c0.003-0.121,0.014-0.24,0.02-0.361c0.001-0.01,0-0.006,0-0.014
			c0.009-0.055,0.018-0.11,0.028-0.165c0.044-0.226,0.104-0.448,0.181-0.665c0.014-0.041,0.03-0.081,0.046-0.122
			c0.006-0.015,0.014-0.036,0.03-0.068c0.046-0.099,0.096-0.195,0.149-0.29c0.059-0.105,0.122-0.207,0.19-0.307
			c0.033-0.05,0.069-0.098,0.104-0.146c0.001-0.002,0,0,0.001-0.002c0.009-0.01,0.009-0.009,0.027-0.029
			c0.16-0.182,0.328-0.352,0.515-0.507c0.295-0.245,0.283-0.744,0.061-1.023c-0.229-0.287-0.676-0.419-1.005-0.201
			c-1.02,0.679-1.745,1.692-2.104,2.862c-0.173,0.564-0.253,1.172-0.21,1.761c0.022,0.31,0.047,0.647,0.144,0.944
			c0.058,0.178,0.135,0.371,0.229,0.534c0.157,0.274,0.421,0.396,0.701,0.503c0.307,0.117,0.787-0.072,0.925-0.377
			c0.09-0.198,0.186-0.393,0.186-0.617C473.476,279.331,473.42,279.139,473.386,278.964z"/>
		<path d="M476.043,275.598c-0.321-0.135-0.82-0.038-0.973,0.319c-0.328,0.765-0.657,1.53-0.985,2.295
			c-0.179,0.418-0.335,0.841-0.49,1.268c-0.069,0.191-0.152,0.382-0.209,0.577c-0.085,0.288-0.031,0.536,0.048,0.813
			c0.1,0.35,0.514,0.525,0.832,0.339c0.224-0.131,0.438-0.256,0.569-0.493c0.098-0.176,0.165-0.377,0.246-0.561
			c0.188-0.428,0.381-0.854,0.544-1.292c0.29-0.781,0.579-1.562,0.869-2.343C476.629,276.153,476.372,275.737,476.043,275.598z"/>
		<path d="M525.362,278.579l-0.153-1.112c-0.102-0.742-0.204-1.483-0.306-2.225c-0.047-0.342-0.462-0.541-0.766-0.5
			c-0.324,0.044-0.627,0.338-0.605,0.686c0.046,0.735,0.092,1.469,0.138,2.204c0.023,0.36,0.045,0.72,0.068,1.08
			c0.026,0.417,0.018,0.851,0.159,1.248c0.113,0.32,0.402,0.6,0.766,0.583c0.318-0.014,0.717-0.233,0.766-0.583
			c0.046-0.327,0.049-0.54,0.004-0.868C525.41,278.922,525.386,278.751,525.362,278.579z"/>
		<path d="M529.225,274.987c-0.022-0.164-0.059-0.292-0.172-0.415c-0.125-0.136-0.316-0.185-0.493-0.161
			c-0.346,0.047-0.581,0.389-0.488,0.732c0.099,0.368,0.199,0.735,0.298,1.103c0.056,0.207,0.099,0.425,0.188,0.622
			c0.075,0.165,0.155,0.328,0.232,0.492c0.062,0.132,0.244,0.19,0.377,0.153c0.146-0.04,0.238-0.174,0.245-0.322
			c0.009-0.185,0.033-0.377,0.026-0.562c-0.006-0.179-0.046-0.363-0.069-0.54C529.322,275.722,529.273,275.354,529.225,274.987z"/>
		<path d="M646.423,273.398c1.461,0.62,2.71,1.638,3.576,2.938c0.219,0.329,0.438,0.659,0.632,1.004
			c0.193,0.343,0.366,0.7,0.478,0.991c0.141,0.368,0.26,0.748,0.379,1.123c0.16,0.503,0.23,1.014,0.715,1.319
			c0.257,0.162,0.65,0.112,0.858-0.111c0.443-0.474,0.327-1.066,0.232-1.65c-0.073-0.45-0.211-0.868-0.382-1.29
			c-0.368-0.903-0.832-1.758-1.466-2.503c-1.185-1.391-2.78-2.456-4.516-3.024C646.234,271.969,645.731,273.105,646.423,273.398z"/>
		<path d="M648.382,281.302c-0.676-1.02-1.352-2.039-2.029-3.059c-0.378-0.571-1.294-0.049-0.926,0.541
			c0.657,1.055,1.314,2.109,1.971,3.164c0.659,1.057,1.416,2.031,2.195,3.001c0.279,0.348,0.769-0.095,0.588-0.454
			C649.629,283.4,649.061,282.326,648.382,281.302z"/>
	</g>
	<g>
		<g>
			<path style="fill:#E3E4E8;" d="M107.74,200.691c0.805,1.324,1.717,3.165,3.072,4.182c0.014,0.515,0.02,1.031,0.054,1.547
				c0.11,1.639,0.22,3.279,0.33,4.918c-0.071,0.074-0.15,0.139-0.217,0.216c-0.408,0.469-0.817,0.937-1.225,1.405
				c-0.831,0.953-1.599,1.968-2.392,2.953c-0.259,0.322-0.441,0.635-0.441,1.064c0,0.369,0.164,0.81,0.441,1.064
				c0.287,0.263,0.663,0.459,1.064,0.441c0.423-0.019,0.737-0.177,1.064-0.441c0.194-0.157,0.354-0.393,0.482-0.639
				c0.668-0.909,1.354-1.81,1.98-2.746c0.126-0.189,0.252-0.377,0.379-0.566c0.084,0.136,0.167,0.273,0.249,0.408
				c0.261,0.427,0.551,0.825,0.848,1.228c0.593,0.803,1.186,1.605,1.779,2.408c0.256,0.346,0.526,0.587,0.937,0.721
				c0.472,0.153,0.988,0.012,1.367-0.281c0.34-0.263,0.533-0.597,0.59-1.023c0.071-0.529-0.108-0.911-0.431-1.317
				c-0.621-0.781-1.243-1.562-1.864-2.343c-0.302-0.38-0.601-0.753-0.935-1.105c-0.109-0.114-0.218-0.229-0.327-0.344
				c0.149-0.25,0.236-0.534,0.21-0.848c-0.144-1.724-0.288-3.449-0.433-5.173c-0.029-0.351-0.081-0.699-0.121-1.048
				c0.412-0.14,0.815-0.326,1.211-0.518c1.06-0.515,2.116-1.037,3.173-1.556c2.226-1.092,4.448-2.192,6.665-3.302
				c0.353-0.177,0.567-0.422,0.71-0.688c0.482-0.346,0.698-1.009,0.645-1.604c0.252-0.178,0.513-0.344,0.746-0.544
				c1.512-1.293-0.418-3.556-2.059-2.669c-1.666,0.9-3.138,1.732-5.021,2.132c-1.719,0.364-3.507,0.366-5.245,0.147
				c-1.759-0.222-3.477-0.775-5.059-1.568c-0.814-0.408-1.602-0.884-2.325-1.438c-0.742-0.569-1.419-1.276-2.266-1.688
				c-0.756-0.367-1.665,0.238-1.442,1.108c0.144,0.56,0.425,1.082,0.781,1.571c0.082,1.006,0.689,2.021,1.175,2.858
				C106.491,198.647,107.118,199.668,107.74,200.691z"/>
			<path style="fill:#E3E4E8;" d="M162.768,182.275c1.993,0.526,3.736-0.629,4.841-2.2c0.275-0.391,0.496-0.826,0.685-1.279
				c0.582-0.986,0.889-2.15,0.819-3.301c-0.096-1.581-0.734-3.154-2.003-4.155c-0.82-0.647-1.724-1.067-2.787-1.105
				c-0.333-0.012-0.654,0.041-0.968,0.12c-0.801,0.114-1.564,0.444-2.161,1.046c-0.567,0.57-0.853,1.258-0.951,2.025
				c-0.05,0.141-0.111,0.277-0.152,0.419c-0.29,0.324-0.545,0.67-0.715,1.051c-0.709,1.591-0.45,3.238,0.61,4.583
				C160.42,180.788,161.398,181.913,162.768,182.275z"/>
			<path style="fill:#E3E4E8;" d="M93.107,163.762c-0.333-0.012-0.654,0.041-0.968,0.12c-0.8,0.114-1.563,0.445-2.161,1.046
				c-0.567,0.57-0.853,1.258-0.95,2.025c-0.05,0.141-0.111,0.277-0.152,0.419c-0.289,0.324-0.545,0.67-0.715,1.051
				c-0.709,1.591-0.451,3.238,0.61,4.583c0.434,1.308,1.412,2.434,2.783,2.795c1.993,0.526,3.736-0.629,4.84-2.199
				c0.275-0.391,0.496-0.826,0.685-1.279c0.582-0.986,0.889-2.15,0.819-3.301c-0.097-1.581-0.734-3.155-2.003-4.155
				C95.073,164.22,94.169,163.8,93.107,163.762z"/>
			<path style="fill:#E3E4E8;" d="M172.408,161.977c0.512,0.731,1.012,1.465,1.575,2.158c0.163,0.201,0.542,0.34,0.794,0.329
				c0.254-0.011,0.479-0.085,0.68-0.241c0.4-0.309,0.627-1.001,0.289-1.449c-1.028-1.363-2.212-2.617-3.335-3.903
				c-0.295-0.337-0.85-0.327-1.182-0.07c-0.33,0.255-0.49,0.792-0.232,1.161C171.468,160.634,171.938,161.305,172.408,161.977z"/>
			<path style="fill:#E3E4E8;" d="M176.316,159.096c0.2,0.498,0.406,0.991,0.63,1.479c0.101,0.22,0.202,0.44,0.303,0.66
				c0.16,0.347,0.351,0.552,0.662,0.774c0.382,0.273,1.068,0.007,1.144-0.466c0.058-0.362,0.066-0.639-0.064-0.986
				c-0.091-0.243-0.182-0.486-0.273-0.729c-0.188-0.503-0.396-0.995-0.609-1.488c-0.399-0.923-0.798-1.846-1.197-2.769
				c-0.185-0.428-0.789-0.548-1.175-0.385c-0.391,0.165-0.72,0.674-0.545,1.11L176.316,159.096z"/>
			<path style="fill:#E3E4E8;" d="M97.464,150.926c-0.31,0.041-0.617,0.075-0.918,0.165c-0.242,0.072-0.483,0.144-0.725,0.216
				c-0.493,0.147-0.986,0.295-1.48,0.442c-0.4,0.119-0.693,0.566-0.558,0.983c0.134,0.413,0.551,0.676,0.983,0.558
				c0.496-0.136,0.993-0.271,1.489-0.406c0.243-0.066,0.487-0.133,0.73-0.199c0.302-0.082,0.579-0.21,0.863-0.339
				c0.243-0.11,0.37-0.409,0.378-0.658c0.004-0.129-0.032-0.276-0.104-0.385C97.985,151.1,97.731,150.891,97.464,150.926z"/>
			<path style="fill:#E3E4E8;" d="M99.939,145.557c-0.554-0.127-1.111-0.236-1.667-0.351c-0.25-0.052-0.527-0.011-0.708,0.187
				c-0.131,0.143-0.213,0.318-0.213,0.515c0,0.187,0.081,0.383,0.213,0.515c0.192,0.193,0.449,0.241,0.708,0.187
				c0.556-0.115,1.113-0.225,1.667-0.351C100.286,146.18,100.287,145.636,99.939,145.557z"/>
			<path style="fill:#E3E4E8;" d="M168.614,196.869c9.587,1.096,19.174,2.069,28.697,3.663c4.647,0.778,9.284,1.639,13.896,2.603
				c4.58,0.957,9.165,2.051,13.807,2.645c0.902,0.116,0.915-1.189,0.199-1.47c-4.47-1.753-9.244-2.809-13.938-3.78
				c-4.721-0.977-9.463-1.834-14.229-2.56c-9.401-1.432-18.915-2.578-28.432-2.738C167.535,195.212,167.592,196.752,168.614,196.869
				z"/>
			<path style="fill:#E3E4E8;" d="M202.343,206.742c-1.977-0.756-4.146-1.122-6.214-1.566c-2.092-0.449-4.193-0.865-6.289-1.297
				c-4.192-0.865-8.384-1.729-12.577-2.594c-1.231-0.254-1.76,1.626-0.521,1.892l12.79,2.749c2.091,0.449,4.179,0.919,6.275,1.346
				c2.079,0.423,4.2,0.954,6.321,1.059C203.1,208.379,203.143,207.047,202.343,206.742z"/>
			<path style="fill:#F7C99A;" d="M304.708,237.934c-22.457-10.478-39.364-28.412-52.784-48.771
				c-2.892-9.095-7-17.778-12.106-25.837c1.644,1.669,3.492,3.143,5.249,4.697c2.578,2.282,5.152,4.569,7.68,6.906
				c4.992,4.614,9.83,9.395,14.503,14.332c9.375,9.903,18.148,20.364,26.145,31.413c2.238,3.091,4.418,6.225,6.538,9.399
				c1.034,1.548,2.058,3.104,3.067,4.669c0.717,1.112,1.375,2.34,2.187,3.416C305.028,238.083,304.866,238.007,304.708,237.934z"/>
			<path style="fill:#BCBCBC;" d="M332.58,232.471c0.021,5.524-3.119,10.237-8.927,10.771c-5.04,0.463-10.276-1.41-15.04-3.518
				c0.484-0.332,0.784-0.917,0.612-1.674c-0.375-1.647-1.36-2.926-2.27-4.326c-1.015-1.562-2.043-3.116-3.089-4.657
				c-1.884-2.775-3.817-5.517-5.793-8.228c-4.04-5.542-8.262-10.954-12.658-16.218c-8.837-10.583-18.398-20.537-28.613-29.798
				c-2.898-2.628-5.831-5.228-8.86-7.705c-2.907-2.378-5.817-5.103-9.277-6.642c-0.201-0.089-0.457-0.032-0.63,0.101
				c-1.75-2.593-3.593-5.124-5.553-7.565c-0.665-0.829-1.345-1.631-2.035-2.419c-0.014-0.06-0.044-0.117-0.114-0.146
				c-0.009-0.004-0.018-0.007-0.027-0.011c-0.156-0.177-0.325-0.341-0.483-0.517c-0.525-0.963-1.057-1.922-1.59-2.88
				c17.265,11.2,30.617,27.405,46.976,39.857c8.86,6.744,18.813,12.494,29.693,15.203c2.912,0.725,6.583,1.435,10.319,1.658
				C321.259,213.158,332.534,220.425,332.58,232.471z"/>
			<path style="fill:#E3E4E8;" d="M72.893,228.926c-4.405-7.81-4.923-16.485-3.632-25.111c5.342-0.597,10.691-1.135,16.037-1.647
				c0.864-0.083,0.901-1.398,0-1.376c-5.246,0.129-10.469,0.452-15.685,0.897c0.553-3.026,1.308-6.036,2.177-8.992
				c0.809,0.185,1.619,0.367,2.427,0.56c5.253,1.261,10.387,3.153,15.672,4.232c0.791,0.162,1.404-0.99,0.585-1.387
				c-4.796-2.32-10.232-3.572-15.379-4.876c-0.884-0.224-1.773-0.429-2.662-0.638c1.02-3.254,2.152-6.43,3.275-9.47
				c5.423-14.683,11.612-29.243,20.329-42.31c8.347-12.513,19.182-23.377,32.895-29.856c12.722-6.01,27.54-8.313,41.23-4.44
				c3.407,0.964,6.69,2.33,9.798,4.023c1.31,0.714,2.405-1.183,1.164-1.992c-2.788-1.816-5.735-3.249-8.779-4.368
				c4.257,0.618,8.534,1.028,12.804,1.604c5.086,0.686,10.148,1.511,15.176,2.541c10.057,2.059,19.983,4.815,29.658,8.243
				c19.384,6.868,37.823,16.477,54.536,28.463c8.353,5.991,16.272,12.623,23.639,19.792c3.68,3.581,7.23,7.297,10.636,11.14
				c3.399,3.835,7.051,7.75,9.159,12.484c0.866,1.945,1.309,4.034,1.108,5.951c-0.955,2.583-4.478,4.115-7.009,4.925
				c-3.318,1.063-6.711,1.725-10.155,1.889c-0.24-0.039-0.481-0.067-0.719-0.114c-0.358-0.07-0.669-0.226-0.929-0.44
				c-10.414-1.844-19.872-6.797-28.475-12.803c-18.071-12.616-31.857-30.401-50.339-42.51c-2.302-1.508-4.668-2.905-7.106-4.183
				c-2.704-1.419-5.1,2.646-2.4,4.105c0.235,0.127,0.46,0.268,0.694,0.397c-1.648-0.037-2.988,1.944-1.588,3.568
				c3.923,4.55,7.837,9.084,11.36,13.932c3.498,7.091,7.26,14.057,11.215,20.875c0.489,0.843,0.994,1.678,1.492,2.516
				c0.284,0.732,0.567,1.464,0.834,2.203c2.64,7.295,4.706,14.987,5.433,22.728c0.408,4.341,0.389,8.812-0.439,13.097
				c-0.465,0.307-0.676,0.988-0.333,1.525c-0.679,2.803-1.731,5.507-3.27,8.021c-7.678,12.537-23.974,16.488-37.332,19.456
				c-17.601,3.911-35.646,5.72-53.673,5.422c-16.959-0.28-34.328-2.082-50.708-6.636C93.009,246.864,79.601,240.819,72.893,228.926z
				"/>
			<path style="fill:#E3E4E8;" d="M318.858,334.151c-0.82,6.037-2.415,12.006-4.739,17.634c-1.116,2.711-2.449,5.342-3.941,7.86
				c-0.558,0.968-1.185,1.891-1.823,2.814c1.31-5.297,1.413-10.958-1.048-15.674c-0.604-1.162-2.586-0.649-2.506,0.684
				c0.228,3.531,0.638,6.858,0.125,10.4c-0.501,3.531-1.447,6.96-2.984,10.184c-3.235,6.744-8.395,12.223-14.421,16.586
				c-6.117,4.42-12.929,7.757-19.832,10.753c-7.837,3.417-15.845,6.436-23.967,9.124c-4.443,1.469-8.931,2.814-13.43,4.112
				c-4.294,1.23-8.976,2.005-13.111,3.759c-0.159-0.444-0.342-0.854-0.604-1.219c-0.592-0.832-1.732-0.672-2.085,0.273
				c-0.535,1.39-0.399,3.03-0.547,4.488c-0.137,1.447-0.365,2.848-0.798,4.226c-0.786,2.483-2.256,4.807-4.5,6.197
				c-1.971,1.219-4.42,1.823-6.686,1.242c-1.686-0.421-2.985-1.515-3.828-2.927c0.296-0.706,0.046-1.504-0.752-1.743
				c0,0,0,0-0.011,0c-0.034-0.148-0.08-0.285-0.114-0.422c-0.672-2.962,0.797-6.197,3.372-7.723
				c0.968-0.569,0.319-2.347-0.798-1.891c-3.395,1.413-5.832,4.329-6.208,8.031c-0.08,0.797-0.034,1.595,0.103,2.369
				c-0.308,0.091-0.604,0.182-0.9,0.251c-1.413,0.376-2.825,0.569-4.294,0.478c-2.039-0.114-4.192-1.139-5.354-2.848
				c-3.326-4.864,2.665-10.001,6.208-12.53c1.002-0.718,0.125-2.335-0.991-1.697c-2.369,1.355-4.852,2.643-6.766,4.625
				c-0.911,0.945-1.697,2.062-2.255,3.281c-0.182-0.239-0.353-0.501-0.456-0.82c-0.535-1.492-0.034-2.95,0.82-4.203
				c2.062-3.03,5.764-5.297,8.669-7.427c6.618-4.853,13.829-9.466,21.541-12.359c1.435-0.535,0.877-2.802-0.638-2.347
				c-1.766,0.524-3.474,1.151-5.149,1.8c-0.08-0.889-0.148-1.777-0.387-2.711c-0.342-1.367-0.672-2.745-0.957-4.124
				c-0.536-2.666-0.934-5.354-1.185-8.065c-0.512-5.456-0.524-10.958,0.011-16.415c1.048-10.879,4.272-21.689,9.329-31.36
				c2.836-5.434,6.128-10.958,10.059-15.652c0.763-0.923-0.479-2.233-1.333-1.333c-4.01,4.215-7.689,8.509-10.674,13.533
				c-2.905,4.932-5.308,10.161-7.199,15.56c-3.816,10.856-5.342,22.714-4.545,34.185c0.216,3.167,0.627,6.333,1.207,9.455
				c0.296,1.629,0.649,3.258,1.048,4.864c0.182,0.729,0.376,1.458,0.638,2.153c0.171,0.478,0.421,0.888,0.672,1.299
				c-6.391,2.893-12.303,6.664-17.987,10.981c-1.264,0.968-2.643,1.971-3.896,3.098c-0.581,0.091-1.185,0.296-1.766,0.41
				c-0.923,0.182-1.88,0.353-2.814,0.456c-1.025,0.103-2.039,0.159-3.053,0.251c-0.683,0.057-1.355,0.148-2.027,0.228
				c0.82-2.369,1.412-4.853,2.119-7.131c1.321-4.226,2.54-8.464,3.805-12.701c1.219-4.124,2.426-8.259,3.622-12.405l1.788-6.208
				c0.581-2.005,1.344-4.237,1.173-6.356c-0.102-1.207-1.469-1.526-2.164-0.592c-1.208,1.617-1.743,3.805-2.301,5.707
				c-0.592,2.073-1.185,4.146-1.788,6.208c-1.219,4.249-2.426,8.498-3.611,12.747c-1.162,4.146-2.358,8.293-3.452,12.451
				c-0.444,1.663-0.877,3.338-1.31,5.001c-0.786-0.387-1.777,0.41-1.868,1.253c-0.205,1.936,0.057,3.918-0.171,5.866
				c-0.205,1.868-0.786,3.725-1.686,5.377c-1.914,3.531-5.081,6.072-9.022,6.937c-3.816,0.832-7.951,0-11.186-2.164
				c-1.732-1.162-3.349-2.859-4.044-4.853c-0.661-1.936-0.159-3.611,1.037-5.183c1.139-1.515,2.54-2.814,3.782-4.26
				c1.424-1.652,2.096-3.246,2.404-5.388c0.068-0.433-0.103-0.763-0.365-0.945c0-1.037-0.057-2.085-0.046-3.019
				c0.034-2.654,0.034-5.32,0.011-7.974c-0.034-5.32-0.228-10.639-0.478-15.959c-0.513-10.73-1.378-21.484-2.791-32.135
				c-0.786-5.912-1.754-11.767-2.882-17.611c-0.16-0.843-1.606-0.661-1.515,0.205c1.458,13.499,2.757,27.043,3.395,40.621
				c0.33,6.789,0.547,13.601,0.558,20.413c0.011,3.395,0.011,6.801-0.023,10.207c-0.023,1.709-0.046,3.406-0.091,5.103
				c-0.023,1.207-0.068,2.404,0.251,3.531c-0.695,0.627-1.412,1.207-1.993,1.72c-1.618,1.424-3.281,2.779-4.386,4.659
				c-0.854,1.458-1.196,2.962-1.173,4.431c-0.615,1.344-1.253,2.62-2.267,3.759c-1.219,1.378-2.677,2.506-4.351,3.292
				c-3.634,1.709-8.053,1.401-11.528-0.558c-3.212-1.811-6.391-5.718-4.944-9.614c0.684-1.857,2.244-3.224,3.907-4.192
				c1.538-0.9,3.326-1.367,4.955-2.096c0.866,0.011,1.743-0.478,2.016-1.355c0.125-0.251,0.148-0.524,0.08-0.786
				c-0.091-3.212-0.718-6.459-1.185-9.648c-0.478-3.281-0.968-6.561-1.549-9.831c-1.162-6.527-2.461-13.032-3.907-19.502
				c-2.893-12.918-6.162-25.904-10.947-38.263c-0.433-1.116-2.096-0.706-1.823,0.501c2.916,12.849,6.322,25.573,8.942,38.491
				c0.273,1.333,0.513,2.665,0.775,3.998c-0.023-0.023-0.034-0.046-0.057-0.068c-0.535-0.729-1.071-1.458-1.595-2.199
				c-0.957-1.367-1.891-2.757-2.802-4.158c-2.939-4.556-5.593-9.318-7.94-14.205c-2.324-4.853-4.26-9.853-5.992-14.957
				c-1.014-2.973-1.891-5.992-2.768-9.01c0.479-0.125,0.877-0.638,0.74-1.185c-1.173-4.602-3.406-8.931-4.807-13.487
				c-1.447-4.693-2.449-9.534-2.939-14.421c-0.957-9.614-0.16-19.365,2.506-28.66c0.74-2.597,1.606-5.16,2.609-7.678
				c0.535-1.344,1.071-2.7,1.663-4.033c0.501-1.139,1.105-2.255,1.401-3.474c0.091,0.046,0.182,0.091,0.285,0.125
				c4.921,2.062,10.001,3.634,15.185,4.875c1.891,0.467,3.804,0.877,5.718,1.264c9.318,1.857,18.761,3.155,28.239,3.884
				c18.875,1.458,37.91,0.592,56.603-2.46c8.783-1.435,17.622-3.224,26.109-5.946c7.063-2.267,13.988-5.342,19.684-10.206
				c4.648-3.976,7.94-9.147,9.751-14.888c8.236,5.969,16.472,11.961,24.092,18.716c8.589,7.621,16.529,16.13,23.044,25.607
				C314.313,289.691,321.923,311.915,318.858,334.151z"/>
			<path style="fill:#FFFFFF;" d="M356.415,325.106c2.267,2.7,2.757,6.778,0.809,9.808c-1.971,3.053-5.832,4.147-9.193,3.11
				c-1.071-0.33-2.586,0.615-2.415,1.845c0.456,3.497-0.934,7.12-3.998,9.022c-3.064,1.891-7.267,1.595-10.047-0.695
				c-0.98-0.797-2.609-0.866-3.281,0.422c-1.413,2.711-6.003,3.508-7.917,0.832c-0.137-0.182-0.285-0.33-0.444-0.456
				c1.014-2.939,1.845-5.935,2.472-8.988c0.57-2.779,0.98-5.57,1.23-8.384c0.752-8.054,0.262-16.21-1.367-24.149
				c0.285-0.148,0.478-0.433,0.478-0.843c-0.045-2.255,0.08-4.693,1.8-6.368c1.72-1.675,4.147-1.948,6.322-1.105
				c1.048,0.399,2.164-0.626,2.153-1.652c-0.023-2.723,2.244-5.377,5.103-5.274c2.882,0.114,4.898,2.939,4.705,5.661
				c-0.103,1.39,1.47,1.948,2.529,1.458c4.693-2.199,9.557,2.198,8.281,7.074c-0.228,0.889,0.296,1.697,1.128,1.993
				c2.347,0.82,3.987,2.586,4.796,4.659c1.253,3.235,0.49,7.199-2.814,9.421C355.8,323.135,355.698,324.252,356.415,325.106z"/>
			<path style="fill:#E3E4E8;" d="M124.815,281.242c-0.021-0.107-0.051-0.211-0.074-0.317c-0.012-0.058-0.022-0.116-0.033-0.174
				c-0.016-0.226-0.028-0.449-0.022-0.676c0.003-0.121,0.014-0.24,0.021-0.361c0.001-0.01,0-0.006,0-0.013
				c0.01-0.055,0.018-0.11,0.029-0.165c0.044-0.226,0.104-0.448,0.181-0.665c0.014-0.041,0.03-0.081,0.046-0.122
				c0.006-0.015,0.014-0.036,0.03-0.069c0.046-0.099,0.096-0.195,0.149-0.29c0.059-0.105,0.122-0.207,0.19-0.307
				c0.033-0.05,0.068-0.098,0.104-0.146c0.001-0.002,0,0,0.001-0.002c0.009-0.01,0.009-0.009,0.027-0.029
				c0.161-0.182,0.328-0.352,0.515-0.507c0.295-0.245,0.283-0.744,0.061-1.023c-0.229-0.287-0.676-0.419-1.005-0.201
				c-1.02,0.679-1.745,1.692-2.104,2.862c-0.173,0.564-0.253,1.172-0.21,1.761c0.022,0.31,0.048,0.647,0.145,0.944
				c0.058,0.178,0.135,0.371,0.229,0.534c0.157,0.274,0.421,0.396,0.701,0.503c0.307,0.117,0.787-0.073,0.925-0.377
				c0.09-0.198,0.186-0.393,0.186-0.617C124.904,281.609,124.849,281.417,124.815,281.242z"/>
			<path style="fill:#E3E4E8;" d="M127.472,277.876c-0.321-0.135-0.819-0.038-0.972,0.319c-0.328,0.765-0.657,1.53-0.985,2.295
				c-0.179,0.418-0.335,0.84-0.49,1.268c-0.069,0.191-0.152,0.382-0.209,0.577c-0.085,0.288-0.031,0.536,0.048,0.813
				c0.1,0.35,0.514,0.525,0.832,0.339c0.224-0.131,0.438-0.256,0.569-0.493c0.098-0.176,0.165-0.377,0.246-0.561
				c0.188-0.428,0.381-0.854,0.544-1.292c0.29-0.781,0.579-1.562,0.869-2.343C128.058,278.431,127.801,278.015,127.472,277.876z"/>
			<path style="fill:#E3E4E8;" d="M176.791,280.858l-0.153-1.112c-0.102-0.742-0.204-1.483-0.306-2.225
				c-0.047-0.342-0.462-0.541-0.766-0.5c-0.324,0.043-0.627,0.338-0.605,0.686c0.046,0.735,0.092,1.469,0.138,2.204
				c0.023,0.36,0.045,0.72,0.068,1.08c0.026,0.417,0.018,0.851,0.158,1.248c0.113,0.32,0.402,0.6,0.766,0.583
				c0.318-0.014,0.717-0.233,0.766-0.583c0.046-0.327,0.049-0.54,0.004-0.868C176.839,281.2,176.815,281.029,176.791,280.858z"/>
			<path style="fill:#E3E4E8;" d="M180.654,277.265c-0.021-0.164-0.059-0.292-0.172-0.415c-0.125-0.136-0.316-0.185-0.493-0.161
				c-0.346,0.047-0.581,0.389-0.488,0.732c0.099,0.368,0.199,0.736,0.299,1.103c0.056,0.207,0.099,0.425,0.188,0.622
				c0.074,0.165,0.155,0.328,0.232,0.492c0.062,0.132,0.244,0.19,0.377,0.153c0.146-0.04,0.238-0.175,0.245-0.322
				c0.009-0.185,0.033-0.377,0.026-0.562c-0.006-0.179-0.046-0.363-0.069-0.54C180.751,278,180.702,277.633,180.654,277.265z"/>
			<path style="fill:#E3E4E8;" d="M297.852,275.677c1.461,0.62,2.71,1.638,3.575,2.938c0.219,0.329,0.438,0.659,0.632,1.004
				c0.193,0.343,0.366,0.7,0.478,0.991c0.141,0.368,0.26,0.748,0.379,1.123c0.16,0.503,0.23,1.014,0.715,1.319
				c0.257,0.162,0.649,0.112,0.858-0.111c0.443-0.474,0.327-1.066,0.232-1.65c-0.073-0.45-0.21-0.868-0.382-1.29
				c-0.368-0.903-0.832-1.758-1.466-2.503c-1.185-1.391-2.78-2.456-4.516-3.024C297.663,274.247,297.16,275.383,297.852,275.677z"/>
			<path style="fill:#E3E4E8;" d="M299.811,283.58c-0.676-1.02-1.352-2.039-2.029-3.059c-0.378-0.571-1.294-0.049-0.926,0.541
				c0.657,1.055,1.314,2.109,1.971,3.164c0.658,1.057,1.416,2.031,2.194,3.001c0.279,0.348,0.768-0.095,0.588-0.454
				C301.058,285.678,300.49,284.604,299.811,283.58z"/>
		</g>
		<path style="fill:#EA997D;" d="M183.912,194.763c-1.174-1.213-2.809-1.597-4.418-1.825c-1.019-0.145-2.04-0.238-3.063-0.28
			c-2.572-0.719-5.768-0.281-8.131,0.138c-0.682,0.121-1.353,0.282-2.018,0.464c-2.086,0.415-4.122,1.106-5.973,2.124
			c-1.023,0.562-2.177,1.279-2.879,2.273c-1.234,1.016-2.066,2.354-1.9,4.19c0.112,1.235,0.651,2.175,1.426,2.904
			c0.852,2.064,3.129,3.297,5.481,3.802c6.309,1.355,14.317,1.462,18.877-3.833c0.524-0.395,1.028-0.816,1.488-1.287
			C184.96,201.219,186.389,197.323,183.912,194.763z"/>
		<path style="fill:#EA997D;" d="M91.78,194.638c0.132-1.76-0.756-3.614-2.332-4.442c-0.254-0.134-0.517-0.24-0.784-0.324
			c-0.919-0.812-1.948-1.506-3.07-1.911c-2.831-1.909-6.542-2.888-9.497-0.742c-1.877,1.363-2.771,3.415-2.461,5.72
			c0.305,2.273,1.777,4.046,3.559,5.379c1.63,1.219,3.579,2.094,5.536,2.631c1.815,0.498,3.997,0.903,5.839,0.297
			c2.277-0.75,3.48-2.801,3.138-5.122C91.825,195.635,91.846,195.135,91.78,194.638z"/>
		<path style="fill:#BCBCBC;" d="M111.425,365.784c-0.957-1.367-1.891-2.757-2.802-4.158c-2.939-4.556-5.593-9.318-7.94-14.205
			c-2.324-4.853-4.26-9.853-5.992-14.957c-1.014-2.973-1.891-5.992-2.768-9.01c0.479-0.125,0.877-0.638,0.74-1.185
			c-1.173-4.602-3.406-8.931-4.807-13.487c-1.447-4.693-2.449-9.534-2.939-14.421c-0.957-9.614-0.16-19.365,2.506-28.66
			c0.74-2.597,1.606-5.16,2.609-7.678c0.535-1.344,1.071-2.7,1.663-4.033c0.501-1.139,1.105-2.255,1.401-3.474
			c0.091,0.046,0.182,0.091,0.285,0.125c4.921,2.062,10.001,3.634,15.185,4.875c-5.548,3.019-10.412,7.347-13.146,12.997
			c-2.096,4.329-2.836,9.215-2.882,14.023c-0.057,6.596,1.128,13.123,2.301,19.604c1.561,8.555,3.11,17.109,4.67,25.664
			c0.797,4.431,1.606,8.874,2.779,13.225C104.567,349.54,108.189,357.594,111.425,365.784z"/>
		<path style="fill:#BCBCBC;" d="M116.795,340.091c-1.346-5.771-2.916-11.479-4.779-17.105c-0.755-2.28-4.354-1.32-3.621,0.998
			c0.909,2.877,1.747,5.77,2.536,8.675c-0.573-1.619-1.177-3.229-1.796-4.836c-0.254-0.894-0.599-1.762-1.017-2.593
			c-0.05-0.123-0.095-0.247-0.145-0.37c-0.045-0.11-0.109-0.196-0.176-0.276c-0.418-1.028-1.286-1.85-2.445-2.066
			c-0.667-0.124-1.217,0.277-1.264,0.963c-0.19,2.793,0.743,5.48,2.357,7.714c0.217,0.832,0.448,1.66,0.705,2.48
			c0.403,1.286,0.823,2.603,1.423,3.812c0.48,0.967,0.991,1.94,1.67,2.775c1.309,4.911,2.577,9.833,3.727,14.78
			c2.318,9.968,4.259,20.036,5.754,30.161c0.849,5.751,1.559,11.524,2.138,17.308c0.232,2.322,3.887,2.359,3.668,0
			C123.584,381.59,121.577,360.594,116.795,340.091z"/>
		<path style="fill:#BCBCBC;" d="M128.947,420.218c-0.115-0.768-0.838-1.613-1.707-1.507c-0.367,0.045-0.756,0.092-1.155,0.137
			c-0.104-0.118-0.22-0.233-0.368-0.337c-4.162-2.938-5.848-8.516-4.45-13.322c0.031-0.106,0.045-0.206,0.057-0.305
			c0.093-0.021,0.184-0.051,0.279-0.067c0.908-0.147,0.575-1.403-0.201-1.486c-0.331-0.035-0.656-0.042-0.975-0.026
			c-0.679-0.328-1.569-0.259-2.086,0.37c-0.133,0.057-0.266,0.129-0.393,0.235c-0.062,0.052-0.124,0.102-0.186,0.153
			c-0.935,0.502-1.759,1.228-2.447,2.097c-1.077,1.01-2.034,2.12-2.703,3.548c-1.201,2.562-1.492,5.593,0.001,8.108
			c1.253,2.11,3.451,3.545,5.775,4.221c1.868,0.543,3.805,0.588,5.734,0.46c1.176,0.122,2.381,0.026,3.579-0.374
			C128.519,421.853,129.079,421.096,128.947,420.218z"/>
		<path style="fill:#BCBCBC;" d="M158.38,418.62c-0.273-1.231-1.905-2.173-3.101-1.019c-0.147,0.142-0.316,0.257-0.474,0.385
			c-3.986-0.848-8.169-2.448-9.248-6.535c-0.84-3.179,0.402-6.595,1.332-9.613c1.023-3.319,1.808-6.621,2.139-10.086
			c0.684-7.154-0.26-14.352-0.998-21.462c-0.786-7.57-1.554-15.147-2.46-22.704c-0.997-8.313-1.943-16.627-3.302-24.886
			c-0.152-0.924-1.66-0.703-1.626,0.22c0.587,15.72,2.255,31.432,3.783,47.089c0.727,7.452,1.731,15.052,0.805,22.533
			c-0.458,3.694-1.705,7.127-2.695,10.692c-0.429,1.545-0.795,3.174-0.931,4.809c-0.838-0.083-1.74,0.323-2.013,1.293
			c-1.307,4.652,0.609,9.891,4.728,12.48c1.872,1.176,4.04,1.664,6.183,1.55c2.818,0.377,5.762-0.153,8.277-1.514
			C160.02,421.18,159.893,418.879,158.38,418.62z"/>
		<path style="fill:#BCBCBC;" d="M209.39,338.937c1.162-3.945,2.579-7.798,4.068-11.63c1.509-3.885,3.452-7.613,5.145-11.421
			c0.397-0.894-0.723-1.549-1.306-0.764c-4.079,5.493-7.032,11.899-9.498,18.26c-2.476,6.386-4.292,12.983-5.499,19.724
			c-1.206,6.735-1.823,13.563-1.803,20.405c0.01,3.458,0.181,6.915,0.514,10.356c0.12,1.237,0.377,2.604,0.506,3.969
			c-0.146,0.04-0.291,0.097-0.434,0.192c-4.69,3.13-9.7,5.763-14.979,7.754c-2.584,0.975-5.217,1.781-7.882,2.499
			c-2.353,0.634-5.476,0.733-7.363,2.371c-0.219,0.19-0.175,0.631,0.097,0.755c0.068,0.031,0.142,0.044,0.211,0.071
			c-0.417,0.517-0.735,1.126-0.928,1.826c-0.332,1.206,0.448,2.052,1.384,2.286c0.333,0.918,1.245,1.627,2.296,1.241
			c3.362-1.232,6.634-2.639,9.83-4.184c-0.375,0.44-0.699,0.916-0.998,1.407c-0.175,0.135-0.359,0.257-0.529,0.399
			c-0.227,0.189-0.439,0.397-0.657,0.596c-0.69,0.384-1.232,0.962-1.639,1.64c-0.039,0.043-0.082,0.083-0.12,0.127
			c-0.738,0.832-1.515,1.739-2.016,2.738c-0.526,1.048-0.846,2.292-0.38,3.42c0.375,0.909,1.178,1.462,2.079,1.608
			c0.06,1.633,0.484,3.277,1.414,4.906c1.497,2.621,4.021,4.061,6.994,4.291c2.595,0.201,5.866-1.061,8.318,0.037
			c1.372,0.614,1.913,2.389,3.012,3.354c1.184,1.039,2.765,1.451,4.317,1.333c2.994-0.226,6.582-1.892,8.783-3.919
			c2.328-2.142,3.098-6.08,0.53-8.364c-2.447-2.177-5.959-1.131-8.82-0.702c-2.209,0.331-4.619,0.47-6.885,0.057
			c-0.493-0.59-1.196-0.71-1.828-0.481c-0.532-0.186-1.055-0.398-1.552-0.671c-2.344-1.289-4.343-3.877-4.242-6.656
			c0.171-4.729,6.461-6.59,9.795-8.603c1.998-1.206,3.969-2.736,5.06-4.852c1.633-3.167,0.919-6.579,0.565-9.953
			c-0.757-7.208-0.795-14.484-0.156-21.702C205.509,354.604,207.106,346.691,209.39,338.937z M176.05,401.884
			c0.007-0.121,0.005-0.239-0.01-0.358c0.689-0.143,1.361-0.306,1.998-0.455C177.377,401.347,176.717,401.622,176.05,401.884z
			 M200.714,392.857c-1.079,1.731-3.031,2.792-4.768,3.743c-1.949,1.067-3.97,2.024-5.759,3.356
			c-0.44,0.328-0.854,0.682-1.251,1.052c-0.16-0.078-0.346-0.104-0.552-0.028c-0.266,0.097-0.524,0.215-0.786,0.322
			c-0.177-0.124-0.373-0.231-0.587-0.299c4.887-2.572,9.568-5.518,14.033-8.83C200.943,392.404,200.851,392.638,200.714,392.857z"/>
		<path style="fill:#BCBCBC;" d="M198.951,324.74c-0.471-0.19-0.898-0.002-1.189,0.39c-0.093,0.125-0.208,0.211-0.313,0.328
			c-0.159,0.177-0.269,0.384-0.409,0.574c-0.021,0.016-0.319,0.375-0.357,0.434c-0.092,0.144-0.159,0.303-0.231,0.458
			c-0.351,0.758-0.662,1.524-0.894,2.326c-0.241,0.832-0.386,1.66-0.493,2.52c-0.043,0.344-0.091,0.694-0.105,1.041
			c-0.012,0.309,0.012,0.624,0.104,0.921c0.161,0.52,0.458,0.788,0.875,1.108c0.436,0.335,1.232,0.292,1.674,0
			c0.704-0.466,0.945-1.072,1.016-1.879c0.031-0.346,0.039-0.694,0.068-1.041c0.029-0.347,0.076-0.69,0.114-1.036
			c0.022-0.196,0.041-0.392,0.06-0.588c0.008-0.062,0.012-0.098,0.015-0.121c0.004-0.027,0.007-0.053,0.011-0.08
			c0.104-0.69,0.216-1.384,0.357-2.067c0.052-0.254,0.106-0.496,0.131-0.756c0.01-0.093,0.017-0.187,0.02-0.281
			c-0.007-0.06-0.011-0.097-0.017-0.143c0.003-0.024,0.007-0.051,0.011-0.091c0.031-0.152,0.054-0.306,0.069-0.461
			c0.01-0.155,0-0.279,0.032-0.431C199.602,325.402,199.405,324.923,198.951,324.74z"/>
		<path style="fill:#BCBCBC;" d="M202.46,324.158c-0.464-0.127-0.891,0.157-1.04,0.591c-0.336,0.977-0.672,1.954-1.007,2.931
			c-0.348,1.013-0.613,2.034-0.675,3.107c-0.043,0.75,1.02,0.981,1.377,0.373c0.541-0.922,0.881-1.937,1.152-2.969
			c0.262-0.997,0.523-1.994,0.785-2.992C203.166,324.757,202.904,324.28,202.46,324.158z"/>
		<path style="fill:#BCBCBC;" d="M186.231,326.477c-0.407,1.367-0.725,2.759-0.942,4.169c-0.217,1.413-0.356,3.015,0.019,4.41
			c0.18,0.67,1.149,0.651,1.339,0c0.195-0.671,0.25-1.36,0.343-2.051c0.094-0.698,0.201-1.391,0.286-2.09
			c0.162-1.328,0.434-2.643,0.774-3.936C188.36,325.802,186.577,325.313,186.231,326.477z"/>
		<path style="fill:#EAEAEA;" d="M356.415,325.106c2.267,2.7,2.757,6.778,0.809,9.808c-1.971,3.053-5.832,4.147-9.193,3.11
			c-1.071-0.33-2.586,0.615-2.415,1.845c0.456,3.497-0.934,7.12-3.998,9.022c-3.064,1.891-7.267,1.595-10.047-0.695
			c-0.98-0.797-2.609-0.866-3.281,0.422c-1.413,2.711-6.003,3.508-7.917,0.832c-0.137-0.182-0.285-0.33-0.444-0.456
			c1.014-2.939,1.845-5.935,2.472-8.988c0.57-2.779,0.98-5.57,1.23-8.384c0.376,0.399,0.843,0.706,1.367,0.866
			c1.72,0.513,3.748-0.729,4.078-2.506c1.538,2.028,4.705,2.586,6.835,1.208c2.13-1.39,2.916-4.511,1.686-6.732
			c2.29,0.353,4.773-0.387,6.333-2.107c1.561-1.709,2.016-4.42,0.9-6.448c1.538,1.902,4.454,2.529,6.641,1.413
			c2.176-1.116,3.383-3.85,2.734-6.208c0.376,1.481,2.142,2.142,3.668,2.153c0.558,0,1.139-0.057,1.686-0.182
			c1.253,3.235,0.49,7.199-2.814,9.421C355.8,323.135,355.698,324.252,356.415,325.106z"/>
		<path style="fill:#BCBCBC;" d="M331.048,188.987c-0.712,0.501-1.391,1.04-2.069,1.577c0.04-0.132,0.066-0.266,0.07-0.403
			c0.211-0.744,0.357-1.51,0.399-2.298c0.201-3.821-1.935-7.419-5.116-9.421c-0.83-0.523-2.191-0.225-2.634,0.691
			c-2.051,4.24-5.638,7.452-9.826,9.291c-8.135,0.344-16.776-3.222-23.45-7.381c-6.516-4.06-12.641-8.757-18.819-13.303
			c-6.172-4.542-12.341-9.086-18.525-13.612c-0.084-0.095-0.171-0.187-0.254-0.282c-0.267-0.304-0.576-0.48-0.897-0.564
			c-0.052-0.038-0.105-0.077-0.157-0.115c-7.425-5.429-14.78-11.126-22.579-16.008c-0.405-0.253-0.992-0.167-1.322,0.171
			c-0.911,0.931-1.822,1.861-2.733,2.792c-0.604,0.617,0.217,1.801,0.96,1.244c0.837-0.628,1.674-1.256,2.511-1.884
			c6.293,5.355,13.09,10.199,19.711,15.131c0.334,0.249,0.669,0.495,1.003,0.744c0.003,0.32,0.084,0.65,0.286,0.972
			c4.145,6.62,9.58,12.173,15.689,16.916c-0.072,0.42,0.044,0.881,0.461,1.295c7.973,7.908,16.445,15.931,26.583,20.997
			c8.256,4.126,17.727,6.057,26.848,4.324c0.402,0.511,1.046,0.815,1.865,0.591c2.587-0.709,4.978-1.938,7.035-3.61
			c2.803-1.458,5.356-3.412,6.909-5.906C333.72,189.773,332.233,188.153,331.048,188.987z"/>
		<g>
			<path d="M107.74,200.691c0.805,1.324,1.717,3.165,3.072,4.182c0.014,0.515,0.02,1.031,0.054,1.547
				c0.11,1.639,0.22,3.279,0.33,4.918c-0.071,0.074-0.15,0.139-0.217,0.216c-0.408,0.469-0.817,0.937-1.225,1.405
				c-0.831,0.953-1.599,1.968-2.392,2.953c-0.259,0.322-0.441,0.635-0.441,1.064c0,0.369,0.164,0.81,0.441,1.064
				c0.287,0.263,0.663,0.459,1.064,0.441c0.423-0.019,0.737-0.177,1.064-0.441c0.194-0.157,0.354-0.393,0.482-0.639
				c0.668-0.909,1.354-1.81,1.98-2.746c0.126-0.189,0.252-0.377,0.379-0.566c0.084,0.136,0.167,0.273,0.249,0.408
				c0.261,0.427,0.551,0.825,0.848,1.228c0.593,0.803,1.186,1.605,1.779,2.408c0.256,0.346,0.526,0.587,0.937,0.721
				c0.472,0.153,0.988,0.012,1.367-0.281c0.34-0.263,0.533-0.597,0.59-1.023c0.071-0.529-0.108-0.911-0.431-1.317
				c-0.621-0.781-1.243-1.562-1.864-2.343c-0.302-0.38-0.601-0.753-0.935-1.105c-0.109-0.114-0.218-0.229-0.327-0.344
				c0.149-0.25,0.236-0.534,0.21-0.848c-0.144-1.724-0.288-3.449-0.433-5.173c-0.029-0.351-0.081-0.699-0.121-1.048
				c0.412-0.14,0.815-0.326,1.211-0.518c1.06-0.515,2.116-1.037,3.173-1.556c2.226-1.092,4.448-2.192,6.665-3.302
				c0.353-0.177,0.567-0.422,0.71-0.688c0.482-0.346,0.698-1.009,0.645-1.604c0.252-0.178,0.513-0.344,0.746-0.544
				c1.512-1.293-0.418-3.556-2.059-2.669c-1.666,0.9-3.138,1.732-5.021,2.132c-1.719,0.364-3.507,0.366-5.245,0.147
				c-1.759-0.222-3.477-0.775-5.059-1.568c-0.814-0.408-1.602-0.884-2.325-1.438c-0.742-0.569-1.419-1.276-2.266-1.688
				c-0.756-0.367-1.665,0.238-1.442,1.108c0.144,0.56,0.425,1.082,0.781,1.571c0.082,1.006,0.689,2.021,1.175,2.858
				C106.491,198.647,107.118,199.668,107.74,200.691z"/>
			<path d="M162.768,182.275c1.993,0.526,3.736-0.629,4.841-2.2c0.275-0.391,0.496-0.826,0.685-1.279
				c0.582-0.986,0.889-2.15,0.819-3.301c-0.096-1.581-0.734-3.154-2.003-4.155c-0.82-0.647-1.724-1.067-2.787-1.105
				c-0.333-0.012-0.654,0.041-0.968,0.12c-0.801,0.114-1.564,0.444-2.161,1.046c-0.567,0.57-0.853,1.258-0.951,2.025
				c-0.05,0.141-0.111,0.277-0.152,0.419c-0.29,0.324-0.545,0.67-0.715,1.051c-0.709,1.591-0.45,3.238,0.61,4.583
				C160.42,180.788,161.398,181.913,162.768,182.275z"/>
			<path d="M93.107,163.762c-0.333-0.012-0.654,0.041-0.968,0.12c-0.8,0.114-1.563,0.445-2.161,1.046
				c-0.567,0.57-0.853,1.258-0.95,2.025c-0.05,0.141-0.111,0.277-0.152,0.419c-0.289,0.324-0.545,0.67-0.715,1.051
				c-0.709,1.591-0.451,3.238,0.61,4.583c0.434,1.308,1.412,2.434,2.783,2.795c1.993,0.526,3.736-0.629,4.84-2.199
				c0.275-0.391,0.496-0.826,0.685-1.279c0.582-0.986,0.889-2.15,0.819-3.301c-0.097-1.581-0.734-3.155-2.003-4.155
				C95.073,164.22,94.169,163.8,93.107,163.762z"/>
			<path d="M172.408,161.977c0.512,0.731,1.012,1.465,1.575,2.158c0.163,0.201,0.542,0.34,0.794,0.329
				c0.254-0.011,0.479-0.085,0.68-0.241c0.4-0.309,0.627-1.001,0.289-1.449c-1.028-1.363-2.212-2.617-3.335-3.903
				c-0.295-0.337-0.85-0.327-1.182-0.07c-0.33,0.255-0.49,0.792-0.232,1.161C171.468,160.634,171.938,161.305,172.408,161.977z"/>
			<path d="M176.316,159.096c0.2,0.498,0.406,0.991,0.63,1.479c0.101,0.22,0.202,0.44,0.303,0.66
				c0.16,0.347,0.351,0.552,0.662,0.774c0.382,0.273,1.068,0.007,1.144-0.466c0.058-0.362,0.066-0.639-0.064-0.986
				c-0.091-0.243-0.182-0.486-0.273-0.729c-0.188-0.503-0.396-0.995-0.609-1.488c-0.399-0.923-0.798-1.846-1.197-2.769
				c-0.185-0.428-0.789-0.548-1.175-0.385c-0.391,0.165-0.72,0.674-0.545,1.11L176.316,159.096z"/>
			<path d="M97.464,150.926c-0.31,0.041-0.617,0.075-0.918,0.165c-0.242,0.072-0.483,0.144-0.725,0.216
				c-0.493,0.147-0.986,0.295-1.48,0.442c-0.4,0.119-0.693,0.566-0.558,0.983c0.134,0.413,0.551,0.676,0.983,0.558
				c0.496-0.136,0.993-0.271,1.489-0.406c0.243-0.066,0.487-0.133,0.73-0.199c0.302-0.082,0.579-0.21,0.863-0.339
				c0.243-0.11,0.37-0.409,0.378-0.658c0.004-0.129-0.032-0.276-0.104-0.385C97.985,151.1,97.731,150.891,97.464,150.926z"/>
			<path d="M99.939,145.557c-0.554-0.127-1.111-0.236-1.667-0.351c-0.25-0.052-0.527-0.011-0.708,0.187
				c-0.131,0.143-0.213,0.318-0.213,0.515c0,0.187,0.081,0.383,0.213,0.515c0.192,0.193,0.449,0.241,0.708,0.187
				c0.556-0.115,1.113-0.225,1.667-0.351C100.286,146.18,100.287,145.636,99.939,145.557z"/>
			<path d="M168.614,196.869c9.587,1.096,19.174,2.069,28.697,3.663c4.647,0.778,9.284,1.639,13.896,2.603
				c4.58,0.957,9.165,2.051,13.807,2.645c0.902,0.116,0.915-1.189,0.199-1.47c-4.47-1.753-9.244-2.809-13.938-3.78
				c-4.721-0.977-9.463-1.834-14.229-2.56c-9.401-1.432-18.915-2.578-28.432-2.738C167.535,195.212,167.592,196.752,168.614,196.869
				z"/>
			<path d="M202.343,206.742c-1.977-0.756-4.146-1.122-6.214-1.566c-2.092-0.449-4.193-0.865-6.289-1.297
				c-4.192-0.865-8.384-1.729-12.577-2.594c-1.231-0.254-1.76,1.626-0.521,1.892l12.79,2.749c2.091,0.449,4.179,0.919,6.275,1.346
				c2.079,0.423,4.2,0.954,6.321,1.059C203.1,208.379,203.143,207.047,202.343,206.742z"/>
			<path d="M363.323,314.43c-0.529-3.768-2.983-6.883-6.303-8.545c0.35-3.102-0.775-6.31-3.243-8.333
				c-2.221-1.82-5.034-2.388-7.731-1.869c-0.752-3.698-4.037-6.819-7.926-6.923c-3.946-0.105-7.383,2.953-8.276,6.663
				c-2.749-0.353-5.66,0.507-7.594,2.546c-0.702,0.74-1.269,1.638-1.688,2.6c-6.068-20.938-19.411-39.368-35.401-53.935
				c-9.153-8.338-19.097-15.84-29.773-22.115c0.189-0.825,0.361-1.655,0.49-2.498c1.159-7.581,0.342-15.282-1.264-22.746
				c4.06,5.733,8.435,11.239,13.215,16.396c9.904,10.685,21.587,19.616,34.788,25.843c6.274,2.96,13.435,6.31,20.544,5.964
				c6.268-0.305,11.536-4.199,13.098-10.358c1.639-6.463-0.409-13.51-4.087-18.892c-3.525-5.157-8.164-9.469-11.806-14.516
				c5.337-0.501,10.137-2.557,12.241-7.718c2.042-5.008-0.132-10.556-2.875-14.838c-2.855-4.457-6.634-8.394-10.237-12.248
				c-7.362-7.876-15.333-15.191-23.793-21.873c-16.777-13.251-35.377-24.099-55.216-32.076
				c-19.888-7.996-40.968-13.108-62.357-14.704c-2.664-0.199-5.282-0.146-7.944,0.037c-0.482,0.033-0.779,0.505-0.76,0.919
				c-9.967-2.927-20.83-2.537-30.941,0.2c-15.181,4.109-28.22,13.34-38.334,25.24c-10.69,12.578-18.138,27.419-24.319,42.626
				c-2.721,6.694-5.368,13.48-7.482,20.405c-3.14-0.657-6.296-1.238-9.467-1.73c-10.653-1.654-21.892-2.855-32.655-1.72
				c-0.693,0.073-0.711,1.04,0,1.093c5.301,0.39,10.62,0.482,15.924,0.88c5.504,0.412,10.999,1.051,16.449,1.918
				c3.054,0.486,6.093,1.057,9.12,1.688c-0.179,0.622-0.362,1.242-0.531,1.866c-0.746,2.758-1.368,5.564-1.836,8.393
				c-2.235,0.222-4.469,0.468-6.704,0.735c-4.274,0.511-8.539,1.085-12.79,1.762c-2.175,0.346-4.35,0.692-6.503,1.161
				c-2.21,0.481-4.586,0.871-6.678,1.746c-0.597,0.25-0.575,1.178,0.161,1.192c2.155,0.041,4.37-0.423,6.504-0.698
				c2.081-0.268,4.148-0.612,6.219-0.941c4.457-0.709,8.924-1.377,13.398-1.968c2.018-0.267,4.039-0.516,6.061-0.757
				c-0.66,5.017-0.754,10.092,0.102,15.11c2.485,14.557,13.437,24.479,26.279,30.358c-1.54,1.626-2.541,3.969-3.493,5.946
				c-1.074,2.23-1.977,4.572-2.758,6.919c-1.62,4.863-2.696,9.888-3.328,14.972c-1.257,10.119-0.512,20.503,2.203,30.334
				c1.123,4.066,2.51,8.512,4.8,12.219c0.904,9.862,4.551,19.612,8.608,28.525c2.289,5.029,4.925,9.885,7.887,14.549
				c1.48,2.329,3.037,4.608,4.671,6.832c0.801,1.091,1.622,2.168,2.455,3.235c0.629,0.805,1.155,1.6,1.983,1.98
				c0.478,2.688,0.946,5.378,1.376,8.074c0.522,3.277,1.06,6.552,1.545,9.835c0.419,2.836,0.68,5.737,1.225,8.56
				c-1.239,0.308-2.457,0.779-3.533,1.248c-1.903,0.83-3.662,2.072-4.976,3.693c-2.673,3.301-2.899,7.546-0.885,11.247
				c4.016,7.38,14.095,9.722,21.34,6.007c2.147-1.101,4.306-2.896,5.897-5.028c0.982,1.667,2.357,3.161,3.9,4.335
				c8.183,6.229,20.486,4.346,26.064-4.362c1.766-2.757,3.193-6.752,2.996-10.39c0.646,0.147,1.297,0.276,1.947,0.331
				c1.057,0.089,2.106,0.079,3.163,0.015c0.446-0.027,0.888-0.063,1.33-0.1c-0.481,0.888-0.828,1.848-0.977,2.9
				c-0.258,1.83,0.09,3.769,1.103,5.336c0.562,0.869,1.52,1.755,2.569,2.116c0.248,5.4,5.45,8.826,10.505,8.987
				c1.636,0.052,3.31-0.199,4.879-0.656c0.4-0.116,0.835-0.256,1.271-0.423c0.819,1.288,1.899,2.411,3.176,3.222
				c6.34,4.027,14.7-0.214,17.584-6.483c0.906-1.969,1.395-4.051,1.618-6.202c0.08-0.77,0.13-1.643,0.096-2.522
				c4.154-0.172,8.422-1.603,12.411-2.646c4.334-1.134,8.631-2.397,12.901-3.756c8.532-2.715,16.952-5.804,25.219-9.243
				c14.432-6.004,29.485-13.775,36.924-28.289c0.207-0.403,0.408-0.817,0.606-1.237c0.488,0.46,1.18,0.622,1.87,0.093
				c4.329-3.323,7.19-8.936,9.475-13.807c0.44-0.937,0.836-1.892,1.234-2.845c3.596,2.825,9.245,2.631,12.367-0.776
				c3.935,2.171,8.837,2.406,12.818,0.007c3.718-2.24,5.798-6.231,6.007-10.421c4.201,0.206,8.478-1.811,10.741-5.431
				c2.378-3.803,2.102-8.888-0.373-12.544C362.406,321.59,363.844,318.144,363.323,314.43z M304.708,237.934
				c-22.457-10.478-39.364-28.412-52.784-48.771c-2.892-9.095-7-17.778-12.106-25.837c1.644,1.669,3.492,3.143,5.249,4.697
				c2.578,2.282,5.152,4.569,7.68,6.906c4.992,4.614,9.83,9.395,14.503,14.332c9.375,9.903,18.148,20.364,26.145,31.413
				c2.238,3.091,4.418,6.225,6.538,9.399c1.034,1.548,2.058,3.104,3.067,4.669c0.717,1.112,1.375,2.34,2.187,3.416
				C305.028,238.083,304.866,238.007,304.708,237.934z M332.58,232.471c0.021,5.524-3.119,10.237-8.927,10.771
				c-5.04,0.463-10.276-1.41-15.04-3.518c0.484-0.332,0.784-0.917,0.612-1.674c-0.375-1.647-1.36-2.926-2.27-4.326
				c-1.015-1.562-2.043-3.116-3.089-4.657c-1.884-2.775-3.817-5.517-5.793-8.228c-4.04-5.542-8.262-10.954-12.658-16.218
				c-8.837-10.583-18.398-20.537-28.613-29.798c-2.898-2.628-5.831-5.228-8.86-7.705c-2.907-2.378-5.817-5.103-9.277-6.642
				c-0.201-0.089-0.457-0.032-0.63,0.101c-1.75-2.593-3.593-5.124-5.553-7.565c-0.665-0.829-1.345-1.631-2.035-2.419
				c-0.014-0.06-0.044-0.117-0.114-0.146c-0.009-0.004-0.018-0.007-0.027-0.011c-0.156-0.177-0.325-0.341-0.483-0.517
				c-0.525-0.963-1.057-1.922-1.59-2.88c17.265,11.2,30.617,27.405,46.976,39.857c8.86,6.744,18.813,12.494,29.693,15.203
				c2.912,0.725,6.583,1.435,10.319,1.658C321.259,213.158,332.534,220.425,332.58,232.471z M72.893,228.926
				c-4.405-7.81-4.923-16.485-3.632-25.111c5.342-0.597,10.691-1.135,16.037-1.647c0.864-0.083,0.901-1.398,0-1.376
				c-5.246,0.129-10.469,0.452-15.685,0.897c0.553-3.026,1.308-6.036,2.177-8.992c0.809,0.185,1.619,0.367,2.427,0.56
				c5.253,1.261,10.387,3.153,15.672,4.232c0.791,0.162,1.404-0.99,0.585-1.387c-4.796-2.32-10.232-3.572-15.379-4.876
				c-0.884-0.224-1.773-0.429-2.662-0.638c1.02-3.254,2.152-6.43,3.275-9.47c5.423-14.683,11.612-29.243,20.329-42.31
				c8.347-12.513,19.182-23.377,32.895-29.856c12.722-6.01,27.54-8.313,41.23-4.44c3.407,0.964,6.69,2.33,9.798,4.023
				c1.31,0.714,2.405-1.183,1.164-1.992c-2.788-1.816-5.735-3.249-8.779-4.368c4.257,0.618,8.534,1.028,12.804,1.604
				c5.086,0.686,10.148,1.511,15.176,2.541c10.057,2.059,19.983,4.815,29.658,8.243c19.384,6.868,37.823,16.477,54.536,28.463
				c8.353,5.991,16.272,12.623,23.639,19.792c3.68,3.581,7.23,7.297,10.636,11.14c3.399,3.835,7.051,7.75,9.159,12.484
				c0.866,1.945,1.309,4.034,1.108,5.951c-0.955,2.583-4.478,4.115-7.009,4.925c-3.318,1.063-6.711,1.725-10.155,1.889
				c-0.24-0.039-0.481-0.067-0.719-0.114c-0.358-0.07-0.669-0.226-0.929-0.44c-10.414-1.844-19.872-6.797-28.475-12.803
				c-18.071-12.616-31.857-30.401-50.339-42.51c-2.302-1.508-4.668-2.905-7.106-4.183c-2.704-1.419-5.1,2.646-2.4,4.105
				c0.235,0.127,0.46,0.268,0.694,0.397c-1.648-0.037-2.988,1.944-1.588,3.568c3.923,4.55,7.837,9.084,11.36,13.932
				c3.498,7.091,7.26,14.057,11.215,20.875c0.489,0.843,0.994,1.678,1.492,2.516c0.284,0.732,0.567,1.464,0.834,2.203
				c2.64,7.295,4.706,14.987,5.433,22.728c0.408,4.341,0.389,8.812-0.439,13.097c-0.465,0.307-0.676,0.988-0.333,1.525
				c-0.679,2.803-1.731,5.507-3.27,8.021c-7.678,12.537-23.974,16.488-37.332,19.456c-17.601,3.911-35.646,5.72-53.673,5.422
				c-16.959-0.28-34.328-2.082-50.708-6.636C93.009,246.864,79.601,240.819,72.893,228.926z M318.864,334.151
				c-0.83,6.033-2.417,12.009-4.743,17.638c-1.119,2.707-2.448,5.335-3.937,7.857c-0.568,0.961-1.195,1.888-1.827,2.813
				c1.313-5.301,1.41-10.955-1.045-15.672c-0.604-1.161-2.593-0.649-2.507,0.679c0.227,3.53,0.631,6.861,0.126,10.405
				c-0.502,3.529-1.449,6.955-2.992,10.178c-3.232,6.748-8.396,12.228-14.421,16.588c-6.111,4.423-12.931,7.757-19.828,10.757
				c-7.842,3.411-15.848,6.436-23.968,9.117c-4.447,1.469-8.932,2.823-13.433,4.116c-4.297,1.235-8.979,2.001-13.108,3.756
				c-0.156-0.437-0.347-0.852-0.605-1.215c-0.591-0.834-1.731-0.673-2.089,0.273c-0.527,1.391-0.393,3.027-0.538,4.49
				c-0.142,1.439-0.363,2.845-0.803,4.228c-0.789,2.482-2.258,4.808-4.503,6.197c-1.961,1.213-4.413,1.815-6.685,1.237
				c-1.68-0.427-2.985-1.51-3.829-2.922c0.298-0.71,0.052-1.511-0.744-1.749c-0.003-0.001-0.007-0.001-0.01-0.002
				c-0.04-0.141-0.089-0.277-0.122-0.421c-0.665-2.955,0.797-6.198,3.377-7.724c0.966-0.572,0.317-2.348-0.795-1.886
				c-3.395,1.41-5.838,4.33-6.213,8.031c-0.081,0.794-0.029,1.587,0.103,2.366c-0.305,0.09-0.605,0.179-0.896,0.254
				c-1.413,0.368-2.833,0.566-4.294,0.48c-2.038-0.12-4.197-1.148-5.362-2.851c-3.326-4.862,2.674-10.007,6.21-12.532
				c1.01-0.721,0.128-2.333-0.99-1.695c-2.368,1.352-4.846,2.643-6.763,4.622c-0.918,0.947-1.7,2.063-2.254,3.276
				c-0.188-0.237-0.351-0.499-0.462-0.812c-0.531-1.492-0.031-2.951,0.823-4.205c2.065-3.035,5.76-5.3,8.672-7.435
				c6.617-4.851,13.831-9.458,21.541-12.355c1.435-0.539,0.879-2.796-0.645-2.341c-1.76,0.525-3.466,1.142-5.149,1.799
				c-0.079-0.898-0.148-1.783-0.383-2.714c-0.345-1.37-0.671-2.743-0.951-4.128c-0.54-2.663-0.942-5.351-1.193-8.057
				c-0.508-5.464-0.515-10.962,0.014-16.424c1.053-10.869,4.27-21.683,9.331-31.358c2.839-5.427,6.126-10.952,10.058-15.655
				c0.765-0.914-0.482-2.221-1.33-1.331c-4.016,4.218-7.696,8.512-10.672,13.541c-2.913,4.923-5.314,10.158-7.207,15.555
				c-3.807,10.857-5.343,22.71-4.546,34.182c0.22,3.168,0.631,6.332,1.206,9.454c0.301,1.634,0.652,3.259,1.053,4.871
				c0.181,0.728,0.372,1.45,0.636,2.153c0.178,0.473,0.425,0.887,0.679,1.298c-6.397,2.887-12.305,6.656-17.99,10.983
				c-1.264,0.962-2.643,1.971-3.9,3.099c-0.582,0.087-1.179,0.287-1.76,0.4c-0.93,0.182-1.881,0.362-2.822,0.459
				c-1.015,0.104-2.034,0.165-3.051,0.254c-0.679,0.06-1.349,0.148-2.022,0.226c0.814-2.367,1.411-4.856,2.121-7.136
				c1.313-4.216,2.539-8.459,3.796-12.692c1.226-4.13,2.432-8.264,3.625-12.404l1.788-6.209c0.58-2.014,1.349-4.246,1.175-6.363
				c-0.099-1.201-1.472-1.518-2.168-0.587c-1.205,1.611-1.743,3.801-2.293,5.71c-0.596,2.07-1.192,4.139-1.788,6.209
				c-1.222,4.243-2.431,8.489-3.618,12.741c-1.158,4.148-2.35,8.288-3.453,12.452c-0.441,1.665-0.876,3.332-1.304,5.001
				c-0.787-0.39-1.775,0.406-1.866,1.253c-0.209,1.941,0.048,3.919-0.171,5.868c-0.21,1.869-0.795,3.72-1.69,5.373
				c-1.911,3.529-5.077,6.072-9.016,6.937c-3.819,0.839-7.952,0.001-11.191-2.164c-1.735-1.159-3.353-2.857-4.044-4.857
				c-0.666-1.926-0.155-3.605,1.031-5.175c1.147-1.518,2.548-2.822,3.787-4.26c1.428-1.658,2.094-3.253,2.408-5.395
				c0.063-0.427-0.112-0.754-0.374-0.937c0.005-1.044-0.051-2.084-0.041-3.019c0.029-2.66,0.035-5.32,0.016-7.98
				c-0.036-5.319-0.23-10.642-0.482-15.955c-0.509-10.734-1.38-21.487-2.794-32.141c-0.784-5.905-1.751-11.761-2.882-17.61
				c-0.162-0.839-1.604-0.662-1.51,0.204c1.457,13.502,2.747,27.053,3.396,40.62c0.325,6.799,0.538,13.606,0.558,20.413
				c0.01,3.405,0.011,6.81-0.029,10.214c-0.02,1.702-0.05,3.405-0.089,5.107c-0.028,1.203-0.074,2.395,0.246,3.525
				c-0.689,0.63-1.405,1.211-1.99,1.723c-1.622,1.419-3.283,2.772-4.389,4.661c-0.852,1.457-1.196,2.956-1.172,4.43
				c-0.609,1.337-1.251,2.616-2.264,3.759c-1.219,1.377-2.679,2.504-4.348,3.287c-3.638,1.708-8.057,1.399-11.534-0.556
				c-3.215-1.808-6.391-5.717-4.945-9.618c0.688-1.855,2.243-3.218,3.907-4.193c1.536-0.9,3.333-1.365,4.962-2.089
				c0.863,0.008,1.742-0.476,2.011-1.355c0.121-0.253,0.15-0.528,0.08-0.783c-0.092-3.219-0.72-6.467-1.182-9.648
				c-0.476-3.283-0.968-6.566-1.548-9.833c-1.159-6.529-2.468-13.033-3.913-19.505c-2.886-12.922-6.162-25.909-10.948-38.268
				c-0.431-1.112-2.087-0.703-1.815,0.5c2.909,12.855,6.314,25.577,8.944,38.499c0.271,1.33,0.511,2.667,0.77,4
				c-0.019-0.026-0.039-0.05-0.059-0.076c-1.531-2.072-2.996-4.192-4.394-6.357c-2.942-4.556-5.592-9.312-7.939-14.202
				c-2.329-4.854-4.268-9.857-5.998-14.952c-1.011-2.979-1.884-6-2.768-9.017c0.48-0.125,0.879-0.632,0.738-1.185
				c-1.172-4.596-3.404-8.931-4.806-13.48c-1.448-4.696-2.442-9.538-2.93-14.427c-0.96-9.616-0.165-19.361,2.498-28.657
				c0.745-2.599,1.615-5.165,2.615-7.676c0.538-1.35,1.065-2.704,1.655-4.032c0.506-1.138,1.11-2.262,1.404-3.476
				c0.095,0.04,0.188,0.086,0.283,0.126c6.719,2.822,13.769,4.712,20.905,6.138c9.32,1.862,18.76,3.157,28.236,3.886
				c18.878,1.452,37.917,0.595,56.601-2.461c8.786-1.437,17.623-3.23,26.111-5.948c7.07-2.264,13.995-5.345,19.681-10.206
				c4.655-3.979,7.944-9.145,9.752-14.89c8.235,5.971,16.477,11.965,24.093,18.715c8.597,7.621,16.536,16.134,23.05,25.615
				C314.314,289.696,321.923,311.913,318.864,334.151z M357.22,334.914c-1.962,3.049-5.824,4.15-9.185,3.113
				c-1.071-0.331-2.585,0.609-2.423,1.846c0.457,3.492-0.929,7.112-3.996,9.015c-3.058,1.897-7.268,1.6-10.046-0.688
				c-0.977-0.805-2.608-0.869-3.28,0.423c-1.408,2.707-6.008,3.506-7.917,0.829c-0.134-0.188-0.287-0.334-0.447-0.462
				c1.013-2.938,1.852-5.935,2.475-8.988c2.185-10.722,2.064-21.816-0.133-32.523c0.278-0.156,0.478-0.442,0.471-0.852
				c-0.042-2.256,0.079-4.689,1.8-6.365c1.719-1.675,4.149-1.943,6.324-1.105c1.047,0.403,2.168-0.623,2.158-1.644
				c-0.026-2.727,2.239-5.38,5.098-5.274c2.884,0.107,4.898,2.935,4.702,5.655c-0.1,1.386,1.478,1.949,2.535,1.455
				c4.695-2.194,9.55,2.203,8.28,7.074c-0.232,0.892,0.295,1.699,1.132,1.994c5.992,2.108,7.39,10.441,1.977,14.082
				c-0.942,0.633-1.052,1.757-0.336,2.608C358.686,327.811,359.17,331.885,357.22,334.914z"/>
			<path d="M124.815,281.242c-0.021-0.107-0.051-0.211-0.074-0.317c-0.012-0.058-0.022-0.116-0.033-0.174
				c-0.016-0.226-0.028-0.449-0.022-0.676c0.003-0.121,0.014-0.24,0.021-0.361c0.001-0.01,0-0.006,0-0.013
				c0.01-0.055,0.018-0.11,0.029-0.165c0.044-0.226,0.104-0.448,0.181-0.665c0.014-0.041,0.03-0.081,0.046-0.122
				c0.006-0.015,0.014-0.036,0.03-0.069c0.046-0.099,0.096-0.195,0.149-0.29c0.059-0.105,0.122-0.207,0.19-0.307
				c0.033-0.05,0.068-0.098,0.104-0.146c0.001-0.002,0,0,0.001-0.002c0.009-0.01,0.009-0.009,0.027-0.029
				c0.161-0.182,0.328-0.352,0.515-0.507c0.295-0.245,0.283-0.744,0.061-1.023c-0.229-0.287-0.676-0.419-1.005-0.201
				c-1.02,0.679-1.745,1.692-2.104,2.862c-0.173,0.564-0.253,1.172-0.21,1.761c0.022,0.31,0.048,0.647,0.145,0.944
				c0.058,0.178,0.135,0.371,0.229,0.534c0.157,0.274,0.421,0.396,0.701,0.503c0.307,0.117,0.787-0.073,0.925-0.377
				c0.09-0.198,0.186-0.393,0.186-0.617C124.904,281.609,124.849,281.417,124.815,281.242z"/>
			<path d="M127.472,277.876c-0.321-0.135-0.819-0.038-0.972,0.319c-0.328,0.765-0.657,1.53-0.985,2.295
				c-0.179,0.418-0.335,0.84-0.49,1.268c-0.069,0.191-0.152,0.382-0.209,0.577c-0.085,0.288-0.031,0.536,0.048,0.813
				c0.1,0.35,0.514,0.525,0.832,0.339c0.224-0.131,0.438-0.256,0.569-0.493c0.098-0.176,0.165-0.377,0.246-0.561
				c0.188-0.428,0.381-0.854,0.544-1.292c0.29-0.781,0.579-1.562,0.869-2.343C128.058,278.431,127.801,278.015,127.472,277.876z"/>
			<path d="M176.791,280.858l-0.153-1.112c-0.102-0.742-0.204-1.483-0.306-2.225c-0.047-0.342-0.462-0.541-0.766-0.5
				c-0.324,0.043-0.627,0.338-0.605,0.686c0.046,0.735,0.092,1.469,0.138,2.204c0.023,0.36,0.045,0.72,0.068,1.08
				c0.026,0.417,0.018,0.851,0.158,1.248c0.113,0.32,0.402,0.6,0.766,0.583c0.318-0.014,0.717-0.233,0.766-0.583
				c0.046-0.327,0.049-0.54,0.004-0.868C176.839,281.2,176.815,281.029,176.791,280.858z"/>
			<path d="M180.654,277.265c-0.021-0.164-0.059-0.292-0.172-0.415c-0.125-0.136-0.316-0.185-0.493-0.161
				c-0.346,0.047-0.581,0.389-0.488,0.732c0.099,0.368,0.199,0.736,0.299,1.103c0.056,0.207,0.099,0.425,0.188,0.622
				c0.074,0.165,0.155,0.328,0.232,0.492c0.062,0.132,0.244,0.19,0.377,0.153c0.146-0.04,0.238-0.175,0.245-0.322
				c0.009-0.185,0.033-0.377,0.026-0.562c-0.006-0.179-0.046-0.363-0.069-0.54C180.751,278,180.702,277.633,180.654,277.265z"/>
			<path d="M297.852,275.677c1.461,0.62,2.71,1.638,3.575,2.938c0.219,0.329,0.438,0.659,0.632,1.004
				c0.193,0.343,0.366,0.7,0.478,0.991c0.141,0.368,0.26,0.748,0.379,1.123c0.16,0.503,0.23,1.014,0.715,1.319
				c0.257,0.162,0.649,0.112,0.858-0.111c0.443-0.474,0.327-1.066,0.232-1.65c-0.073-0.45-0.21-0.868-0.382-1.29
				c-0.368-0.903-0.832-1.758-1.466-2.503c-1.185-1.391-2.78-2.456-4.516-3.024C297.663,274.247,297.16,275.383,297.852,275.677z"/>
			<path d="M299.811,283.58c-0.676-1.02-1.352-2.039-2.029-3.059c-0.378-0.571-1.294-0.049-0.926,0.541
				c0.657,1.055,1.314,2.109,1.971,3.164c0.658,1.057,1.416,2.031,2.194,3.001c0.279,0.348,0.768-0.095,0.588-0.454
				C301.058,285.678,300.49,284.604,299.811,283.58z"/>
		</g>
		<path style="fill:#F2F2F2;" d="M107.512,157.718c-0.13-0.305-0.261-0.611-0.391-0.916c-0.265-0.621-0.53-1.242-0.795-1.863
			c-0.168-0.394-0.863-0.108-0.699,0.295c0.255,0.626,0.509,1.251,0.763,1.877c0.125,0.307,0.249,0.615,0.375,0.922
			c0.123,0.3,0.282,0.707,0.626,0.804c0.093,0.026,0.204-0.017,0.251-0.102C107.818,158.419,107.641,158.02,107.512,157.718z"/>
		<path style="fill:#F2F2F2;" d="M108.981,156.567c-0.06-0.189-0.158-0.374-0.236-0.556c-0.148-0.346-0.296-0.691-0.444-1.037
			c-0.066-0.155-0.294-0.189-0.426-0.112c-0.16,0.094-0.178,0.271-0.112,0.426c0.145,0.339,0.291,0.679,0.436,1.018
			c0.071,0.165,0.131,0.341,0.216,0.499c0.088,0.163,0.199,0.317,0.297,0.474c0.133,0.212,0.47,0.077,0.407-0.171
			C109.073,156.929,109.037,156.744,108.981,156.567z"/>
		<path style="fill:#F2F2F2;" d="M148.77,155.677c-0.431,0.964-0.695,1.962-0.787,3.015c-0.042,0.48-0.05,0.969,0.006,1.448
			c0.033,0.285,0.083,0.583,0.167,0.858c0.116,0.377,0.335,0.602,0.695,0.748c0.182,0.074,0.48-0.006,0.602-0.159
			c0.223-0.278,0.307-0.554,0.26-0.908c-0.038-0.281-0.053-0.376-0.084-0.632c-0.054-0.439-0.108-0.812-0.11-1.309
			c-0.004-0.884,0.146-1.721,0.439-2.561C150.197,155.491,149.072,155.001,148.77,155.677z"/>
		<path style="fill:#F2F2F2;" d="M151.367,155.278c-0.261,0-0.406,0.201-0.436,0.436c-0.071,0.542-0.168,1.087-0.209,1.631
			c-0.021,0.271-0.034,0.544-0.051,0.816c-0.008,0.124-0.027,0.252-0.024,0.376c0.004,0.16,0.07,0.312,0.12,0.461
			c0.084,0.251,0.446,0.329,0.586,0.077c0.072-0.13,0.169-0.27,0.204-0.415c0.034-0.139,0.037-0.295,0.054-0.437l0.101-0.847
			c0.065-0.548,0.063-1.111,0.091-1.662C151.815,155.478,151.594,155.278,151.367,155.278z"/>
		<path style="fill:#F2F2F2;" d="M235.35,180.783c-0.235-0.269-0.476-0.533-0.714-0.799c-0.503-0.564-1.03-1.106-1.551-1.653
			c-1.027-1.08-2.04-2.173-3.055-3.264c-0.206-0.222-0.584-0.209-0.793,0c-0.233,0.233-0.19,0.556,0,0.793
			c0.939,1.168,1.88,2.334,2.807,3.511c0.457,0.58,0.907,1.167,1.381,1.733c0.23,0.274,0.46,0.549,0.69,0.823
			c0.119,0.142,0.243,0.295,0.381,0.42c0.256,0.233,0.536,0.26,0.861,0.204c0.25-0.043,0.429-0.28,0.503-0.504
			C236.034,181.529,235.665,181.145,235.35,180.783z"/>
		<path style="fill:#F2F2F2;" d="M233.091,172.407c-0.104-0.188-0.197-0.389-0.329-0.559c-0.135-0.174-0.288-0.336-0.433-0.502
			c-0.291-0.333-0.576-0.67-0.882-0.989l-1.807-1.882c-0.384-0.4-0.965,0.195-0.604,0.604l1.729,1.96
			c0.284,0.322,0.586,0.625,0.885,0.933c0.148,0.153,0.291,0.317,0.448,0.461c0.169,0.155,0.378,0.272,0.568,0.399
			C232.934,173.013,233.234,172.666,233.091,172.407z"/>
		<path style="fill:#F2F2F2;" d="M240.18,190.031c-0.12-0.737-0.24-1.475-0.359-2.213c-0.06-0.369-0.537-0.607-0.876-0.497
			c-0.403,0.13-0.556,0.48-0.497,0.876c0.111,0.74,0.221,1.48,0.332,2.22c0.056,0.373,0.133,0.727,0.232,1.092
			c0.102,0.376,0.255,0.717,0.416,1.071c0.08,0.177,0.327,0.253,0.502,0.204c0.204-0.056,0.304-0.232,0.327-0.429
			c0.044-0.376,0.073-0.729,0.056-1.108C240.294,190.835,240.246,190.437,240.18,190.031z"/>
		<path style="fill:#F2F2F2;" d="M238.7,198.665c-0.027-0.197-0.055-0.394-0.082-0.591l-0.165-1.182
			c-0.032-0.231-0.312-0.366-0.518-0.338c-0.211,0.028-0.435,0.23-0.409,0.463l0.131,1.186c0.022,0.198,0.043,0.396,0.066,0.593
			c0.026,0.23,0.095,0.438,0.162,0.659c0.061,0.2,0.251,0.328,0.459,0.3c0.21-0.028,0.353-0.201,0.363-0.411
			C238.718,199.114,238.731,198.895,238.7,198.665z"/>
		<path style="fill:#F2F2F2;" d="M283.242,257.552c-0.503-0.522-1.102-0.947-1.668-1.397c-0.629-0.5-1.25-1.01-1.893-1.492
			c-0.579-0.434-1.143-0.883-1.768-1.25c-0.649-0.38-1.353-0.595-2.04-0.885c-0.368-0.155-0.744,0.367-0.523,0.68
			c0.421,0.596,0.776,1.224,1.276,1.764c0.51,0.55,1.082,1.022,1.651,1.51c0.55,0.473,1.124,0.921,1.688,1.378
			c0.621,0.504,1.225,1.049,1.907,1.468C282.982,260.007,284.124,258.467,283.242,257.552z"/>
		<path style="fill:#F2F2F2;" d="M276.275,256.277c-0.169-0.223-0.345-0.439-0.538-0.641c-0.396-0.414-0.843-0.756-1.349-1.026
			c-0.983-0.525-2.081-0.814-3.197-0.815c-0.288,0-0.534,0.246-0.534,0.534c0,0.31,0.245,0.509,0.534,0.534
			c0.934,0.081,1.789,0.406,2.559,0.912c0.408,0.268,0.682,0.478,1.039,0.808c0.182,0.168,0.354,0.348,0.514,0.537
			c0.176,0.209,0.394,0.326,0.618,0.475c0.361,0.241,0.703-0.156,0.654-0.503C276.532,256.782,276.467,256.53,276.275,256.277z"/>
		<path style="fill:#F2F2F2;" d="M283.508,265.369c-0.091-0.143-0.182-0.285-0.274-0.428c-0.178-0.279-0.362-0.548-0.559-0.813
			l-1.194-1.618c-0.148-0.201-0.401-0.302-0.633-0.166c-0.201,0.117-0.312,0.429-0.166,0.633c0.39,0.544,0.78,1.088,1.17,1.633
			c0.204,0.284,0.413,0.559,0.635,0.828c0.217,0.264,0.417,0.528,0.682,0.744c0.118,0.096,0.271,0.134,0.41,0.053
			c0.12-0.07,0.209-0.244,0.155-0.382C283.669,265.683,283.606,265.522,283.508,265.369z"/>
		<path style="fill:#F2F2F2;" d="M287.795,266.049c-0.25-0.556-0.488-1.12-0.752-1.67c-0.261-0.546-0.58-1.07-0.87-1.601
			c-0.127-0.233-0.469-0.327-0.694-0.182c-0.237,0.152-0.318,0.445-0.182,0.694c0.29,0.531,0.558,1.083,0.875,1.598
			c0.319,0.517,0.662,1.02,0.993,1.529c0.107,0.165,0.323,0.234,0.499,0.131C287.849,266.44,287.876,266.229,287.795,266.049z"/>
		<path style="fill:#F2F2F2;" d="M290.44,149.588c-0.134-0.421-0.403-0.675-0.732-0.942c-0.49-0.397-0.997-0.83-1.566-1.108
			c-0.51-0.25-1.02-0.506-1.537-0.742c-0.626-0.286-1.305-0.564-1.983-0.695c-0.658-0.126-1.324-0.231-1.986-0.333
			c-0.59-0.09-0.839,0.711-0.251,0.91c1.089,0.367,2.108,0.978,3.09,1.57c0.46,0.278,0.898,0.529,1.296,0.872
			c0.254,0.219,0.513,0.426,0.783,0.625c0.202,0.149,0.345,0.263,0.587,0.468c0.295,0.249,0.576,0.548,0.958,0.651
			c0.397,0.107,0.849,0.123,1.16-0.188C290.55,150.384,290.558,149.959,290.44,149.588z"/>
		<path style="fill:#F2F2F2;" d="M289.964,154.155c-0.036-0.131-0.133-0.232-0.219-0.332c-0.139-0.161-0.271-0.296-0.443-0.424
			c-0.287-0.214-0.597-0.385-0.906-0.565l-1.815-1.061c-0.233-0.136-0.546-0.053-0.682,0.179c-0.15,0.256-0.036,0.518,0.179,0.682
			c0.552,0.422,1.105,0.844,1.658,1.266c0.276,0.21,0.544,0.432,0.841,0.612c0.176,0.107,0.363,0.175,0.558,0.241
			c0.204,0.069,0.372,0.089,0.578,0.014c0.152-0.055,0.281-0.188,0.274-0.36C289.984,154.322,289.986,154.234,289.964,154.155z"/>
		<path style="fill:#F2F2F2;" d="M296.04,159.887c-0.087-0.18-0.197-0.353-0.294-0.527c-0.21-0.375-0.406-0.763-0.638-1.125
			c-0.465-0.727-0.951-1.442-1.426-2.163c-0.377-0.571-1.256-0.068-0.922,0.539c0.416,0.755,0.823,1.517,1.249,2.266
			c0.213,0.374,0.465,0.729,0.7,1.089c0.11,0.168,0.213,0.343,0.33,0.506c0.144,0.201,0.339,0.351,0.523,0.513
			c0.304,0.267,0.783,0.012,0.684-0.398C296.189,160.35,296.147,160.107,296.04,159.887z"/>
	</g>
</g>

    <text x="10" y="832" font-size="12" fill="gray" opacity="0.6" font-family="Arial, sans-serif">
      twoja-kolorowanka.pl
    </text>
  
</svg>
