<?xml version="1.0" encoding="utf-8"?>
<!-- Generator: Adobe Illustrator 27.5.0, SVG Export Plug-In . SVG Version: 6.00 Build 0)  -->
<svg xmlns="http://www.w3.org/2000/svg" xmlns:xlink="http://www.w3.org/1999/xlink" viewBox="0 0 2000 2000" width="595" height="842" preserveAspectRatio="xMidYMid meet" data-scaled="true">
<g>
	<path style="fill:#FFFFFF;" d="M2000,2000c-666.757,0-1333.424,0-2000,0C0,1333.243,0,666.576,0,0c666.757,0,1333.424,0,2000,0
		C2000,666.757,2000,1333.424,2000,2000z M661.429,1513.981c-3.884-5.392-6.236-8.846-8.778-12.155
		c-15.482-20.149-30.773-40.532-53.078-53.928c-17.749-10.659-35.592-10.565-53.762-0.531c-2.916,1.61-7.802,1.748-10.956,0.496
		c-22.684-8.999-43.763-8.898-62.573,8.909c-1.681,1.591-4.344,2.882-6.617,2.996c-25.107,1.263-40.326,12.019-48.157,35.177
		c-2.258,6.677-4.992,11.641-11.761,15.257c-5.026,2.685-9.306,8.29-11.993,13.573c-14.047,27.629,2.675,68.458,31.707,78.87
		c2.894,1.038,6.109,2.455,8.051,4.678c34.577,39.579,75.481,71.619,119.448,99.878c30.774,19.78,62.968,36.774,99.374,43.931
		c42.011,8.26,70.786-11.146,78.826-53.125c1.466-7.657,1.832-15.528,3.371-23.166c3.009-14.931,3.28-31.55,10.37-44.31
		c21.618-38.909,52.143-69.961,93.56-88.195c46.653-20.539,96.375-26.301,146.757-27.424c3.432-0.076,8.316,3.344,10.203,6.518
		c7.136,12.005,12.978,24.771,19.914,36.903c18.956,33.157,39.298,65.37,69.064,90.21c24.002,20.031,51.137,31.659,82.886,25.02
		c11.671-2.441,22.519-8.815,32.276-12.797c3.696,27.444,7.092,56.135,11.583,84.654c2.503,15.896,8.21,30.875,20.314,42.413
		c9.227,8.796,19.723,11.692,32.297,7.536c4.828-1.596,10.609-2.1,15.58-1.145c15.544,2.987,25.746-2.338,31.499-17.266
		c0.956-2.479,2.684-5.486,4.874-6.53c14.128-6.733,21.183-18.771,25.518-32.895c7.517-24.49,7.433-49.361,3.444-74.421
		c-7.773-48.829-29.16-92.278-54.483-133.796c-11.427-18.735-24.97-36.57-39.847-52.697c-14.459-15.674-33.213-19.825-53.299-8.738
		c-1.276,0.704-2.911,0.758-4.783,1.212c-2.228-9.712-4.352-18.877-6.404-28.059c-0.197-0.883,0.057-1.867,0.099-2.755
		c0.749-0.266,1.35-0.645,1.965-0.671c3.902-0.162,7.809-0.211,11.712-0.361c64.24-2.469,121.042-23.752,167.901-68.359
		c21.422-20.392,41.359-42.36,61.708-63.861c28.156-29.749,55.213-60.597,84.379-89.31c19.45-19.147,43.214-32.542,71.446-34.982
		c8.574-0.741,17.266-0.115,27.352-0.115c-6.05-10.617-15.834-12.63-25.001-14.503c-28.811-5.887-55.487,2.527-81.335,14.01
		c-40.256,17.882-71.867,47.505-104.074,76.569c-29.899,26.981-59.616,54.67-92.394,77.827
		c-41.963,29.647-90.252,37.102-140.812,26.495c-3.731-0.783-8.831-2.721-10.235-5.609c-6.514-13.404-11.949-27.333-17.885-41.344
		c2.475-2.357,5.083-4.347,7.086-6.826c12.431-15.388,24.897-30.754,36.948-46.438c3.01-3.917,4.691-8.086-2.649-11.274
		c-37.958-16.487-62.014-60.407-56.837-102.701c0.876-0.329,1.763-0.754,2.697-1c77.469-20.442,151.803-48.337,219.654-91.845
		c2.229-1.429,6.476-0.675,9.447,0.2c8.68,2.557,16.99,6.77,25.802,8.4c28.441,5.262,54.773-2.524,80.239-14.585
		c3.119-1.477,7.064-3.606,9.931-2.837c21.336,5.721,39.053-3.093,56.095-13.656c25.053-15.528,31.357-33.086,23.901-61.537
		c-1.33-5.076-1.292-10.797-0.627-16.061c2.582-20.444-1.745-38.557-18.47-51.576c-6.357-4.948-8.465-9.693-8.56-17.583
		c-0.425-35.253-36.296-57.215-68.1-42.2c-2.536,1.197-5.06,2.418-7.705,3.683c-3.177-4.214-5.745-7.965-8.656-11.426
		c-19.535-23.221-48.814-26.836-71.674-7.068c-10.081,8.717-18.642,20.081-25.256,31.74c-15.523,27.366-22.267,57.632-22.861,88.898
		c-0.182,9.553-3.687,13.686-11.785,15.588c-35.084,8.245-70.018,17.277-105.365,24.191c-19.092,3.734-38.905,3.777-58.393,5.484
		c9.42-6.352,19.295-10.291,28.837-14.916c43.38-21.027,82.361-47.475,108.016-89.799c29.785-49.139,18.797-90.706-30.949-119.041
		c-2.645-1.506-4.696-5.557-5.318-8.754c-0.897-4.609-0.229-9.522-0.229-14.286c1.481,0,2.162-0.15,2.744,0.028
		c1.866,0.57,3.703,1.241,5.538,1.908c62.007,22.541,121.641,16.375,178.632-15.818c131.243-74.137,191.038-231.876,174.95-355.56
		c-15.341-117.943-115.692-191.683-233.322-172.884c-50.824,8.122-92.502,33.423-129.329,67.921
		c-38.33,35.906-67.669,78.923-96.23,122.548c-14.226,21.73-28.859,43.194-43.408,64.929c-17.455-9.236-33.726-18.001-50.135-26.498
		c-45.318-23.465-92.061-44.488-131.6-77.775c-2.658-2.238-6.665-2.874-10.045-4.255c-0.851,3.913-2.991,8.064-2.318,11.694
		c2.266,12.221,5.532,24.256,8.307,35.906c-8.014-1.372-16.722-2.381-25.135-4.541c-3.392-0.871-7.219-3.621-8.995-6.615
		c-9.452-15.934-17.59-32.679-27.527-48.288c-25.976-40.804-59.136-74.317-102.943-96.015
		c-32.486-16.091-66.726-24.384-103.048-17.73c-41.242,7.556-72.715,31.27-97.145,64.027
		c-55.741,74.741-73.87,158.92-58.135,250.191c9.274,53.796,33.589,100.307,74.858,136.964
		c28.385,25.213,62.206,39.831,98.561,49.351c2.899,0.759,6.79,3.176,7.538,5.637c1.935,6.365,2.369,13.187,3.293,19.122
		c-11.8,3.809-22.958,6.416-33.284,10.927c-34.156,14.922-48.932,43.121-42.598,79.791c3.848,22.279,13.71,41.954,26.819,60.064
		c32.93,45.492,77.784,75.087,128.98,96.11c7.227,2.967,14.521,5.769,22.551,8.951c-15.49,8.162-30.4,14.821-44.072,23.443
		c-45.661,28.795-90.86,58.324-136.31,87.455c-3.102,1.988-7.375,4.965-10.166,4.175c-22.678-6.423-46.559-7.485-68.432-18.116
		c-17.124-8.323-35.94-13.335-54.274-18.937c-11.143-3.405-22.687-6.165-34.245-7.412c-25.272-2.726-39.38,16.366-30.287,39.946
		c0.921,2.39,1.857,4.774,2.786,7.16c-0.761-0.305-1.521-0.611-2.282-0.916c-5.198,9.039-12.447,17.511-15.138,27.244
		c-4.606,16.66,6.074,33.78,23.53,42.755c2.707,1.392,6.857,3.377,7.144,5.516c1.735,12.955,11.396,17.032,21.657,19.415
		c13.493,3.133,27.314,4.858,41.551,7.284c-1.417,2.88-3.785,5.877-4.352,9.183c-1.724,10.05-5,20.545-3.587,30.274
		c3.011,20.734,18.948,28.338,38.388,20.32c14.372-5.928,25.784-15.514,32.742-29.344c3.775-7.505,9.036-11.988,16.383-15.468
		c16.588-7.857,32.19-17.483,43.26-32.527c4.312-5.86,9.352-7.915,16.062-9.129c27.839-5.036,55.587-10.568,83.361-15.961
		c3.617-0.702,7.185-1.651,12.287-2.836c-2.323,5.364-4.035,8.833-5.357,12.446c-11.046,30.198-23.758,59.925-32.584,90.763
		c-11.566,40.407-2.417,58.704,34.311,79.503c0.545,0.309,0.969,0.831,2.101,1.828
		C684.905,1408.286,670.986,1459.15,661.429,1513.981z"/>
	<path d="M661.429,1513.981c9.557-54.83,23.476-105.694,56.519-148.984c-1.132-0.996-1.556-1.519-2.101-1.828
		c-36.728-20.799-45.877-39.097-34.311-79.503c8.827-30.838,21.538-60.565,32.584-90.763c1.321-3.612,3.034-7.082,5.357-12.446
		c-5.101,1.185-8.67,2.134-12.287,2.836c-27.774,5.393-55.523,10.925-83.361,15.961c-6.71,1.214-11.75,3.268-16.062,9.129
		c-11.07,15.044-26.672,24.671-43.26,32.527c-7.347,3.48-12.608,7.963-16.383,15.468c-6.958,13.83-18.37,23.416-32.742,29.344
		c-19.44,8.018-35.377,0.414-38.388-20.32c-1.413-9.729,1.863-20.224,3.587-30.274c0.567-3.306,2.935-6.304,4.352-9.183
		c-14.237-2.426-28.057-4.151-41.551-7.284c-10.261-2.383-19.922-6.46-21.657-19.415c-0.286-2.139-4.437-4.124-7.144-5.516
		c-17.455-8.976-28.136-26.095-23.53-42.755c2.691-9.732,9.94-18.204,15.138-27.244c0.761,0.305,1.521,0.611,2.282,0.916
		c-0.929-2.386-1.865-4.771-2.786-7.16c-9.093-23.58,5.015-42.673,30.287-39.946c11.558,1.247,23.102,4.006,34.245,7.412
		c18.333,5.603,37.15,10.614,54.274,18.937c21.873,10.631,45.754,11.693,68.432,18.116c2.791,0.791,7.065-2.187,10.166-4.175
		c45.451-29.131,90.649-58.66,136.31-87.455c13.672-8.622,28.582-15.28,44.072-23.443c-8.03-3.182-15.324-5.984-22.551-8.951
		c-51.196-21.023-96.049-50.618-128.98-96.11c-13.109-18.109-22.971-37.784-26.819-60.064c-6.334-36.67,8.442-64.869,42.598-79.791
		c10.326-4.511,21.484-7.118,33.284-10.927c-0.924-5.934-1.358-12.756-3.293-19.122c-0.748-2.462-4.64-4.878-7.538-5.637
		c-36.355-9.521-70.176-24.138-98.561-49.351c-41.269-36.657-65.584-83.168-74.858-136.964
		c-15.735-91.272,2.394-175.45,58.135-250.191c24.43-32.757,55.903-56.471,97.145-64.027c36.323-6.655,70.563,1.639,103.048,17.73
		c43.806,21.698,76.966,55.211,102.943,96.015c9.937,15.609,18.075,32.354,27.527,48.288c1.776,2.994,5.603,5.745,8.995,6.615
		c8.413,2.16,17.121,3.168,25.135,4.541c-2.775-11.65-6.041-23.685-8.307-35.906c-0.673-3.63,1.467-7.782,2.318-11.694
		c3.38,1.381,7.387,2.017,10.045,4.255c39.539,33.287,86.282,54.31,131.6,77.775c16.41,8.497,32.68,17.262,50.135,26.498
		c14.55-21.735,29.183-43.199,43.408-64.929c28.56-43.625,57.899-86.642,96.23-122.548c36.827-34.498,78.505-59.799,129.329-67.921
		c117.63-18.799,217.981,54.94,233.322,172.884c16.088,123.684-43.708,281.423-174.95,355.56
		c-56.99,32.193-116.624,38.359-178.632,15.818c-1.835-0.667-3.672-1.338-5.538-1.908c-0.582-0.178-1.263-0.028-2.744-0.028
		c0,4.764-0.667,9.677,0.229,14.286c0.622,3.198,2.673,7.248,5.318,8.754c49.747,28.335,60.734,69.901,30.949,119.041
		c-25.654,42.325-64.636,68.772-108.016,89.799c-9.542,4.625-19.417,8.564-28.837,14.916c19.488-1.708,39.302-1.75,58.393-5.484
		c35.347-6.914,70.281-15.947,105.365-24.191c8.098-1.903,11.603-6.035,11.785-15.588c0.595-31.266,7.338-61.533,22.861-88.898
		c6.613-11.659,15.175-23.023,25.256-31.74c22.86-19.767,52.139-16.153,71.674,7.068c2.912,3.461,5.479,7.212,8.656,11.426
		c2.645-1.265,5.17-2.486,7.705-3.683c31.804-15.014,67.675,6.947,68.1,42.2c0.095,7.89,2.203,12.635,8.56,17.583
		c16.725,13.02,21.052,31.132,18.47,51.576c-0.665,5.264-0.703,10.984,0.627,16.061c7.456,28.451,1.152,46.008-23.901,61.537
		c-17.043,10.563-34.76,19.378-56.095,13.656c-2.866-0.769-6.812,1.36-9.931,2.837c-25.465,12.061-51.798,19.848-80.239,14.585
		c-8.813-1.631-17.123-5.843-25.802-8.4c-2.971-0.875-7.218-1.629-9.447-0.2c-67.851,43.509-142.184,71.403-219.654,91.845
		c-0.934,0.246-1.821,0.671-2.697,1c-5.177,42.294,18.878,86.214,56.837,102.701c7.34,3.188,5.659,7.357,2.649,11.274
		c-12.051,15.684-24.517,31.05-36.948,46.438c-2.003,2.479-4.611,4.47-7.086,6.826c5.936,14.012,11.371,27.941,17.885,41.344
		c1.404,2.888,6.503,4.827,10.235,5.609c50.56,10.607,98.849,3.152,140.812-26.495c32.778-23.158,62.495-50.846,92.394-77.827
		c32.208-29.065,63.818-58.687,104.074-76.569c25.849-11.482,52.525-19.897,81.335-14.01c9.167,1.873,18.95,3.886,25.001,14.503
		c-10.086,0-18.778-0.626-27.352,0.115c-28.232,2.439-51.996,15.834-71.446,34.982c-29.166,28.713-56.223,59.561-84.379,89.31
		c-20.349,21.501-40.286,43.469-61.708,63.861c-46.859,44.608-103.661,65.89-167.901,68.359c-3.903,0.15-7.81,0.199-11.712,0.361
		c-0.615,0.026-1.216,0.405-1.965,0.671c-0.042,0.888-0.296,1.872-0.099,2.755c2.052,9.181,4.175,18.346,6.404,28.059
		c1.872-0.454,3.507-0.507,4.783-1.212c20.086-11.088,38.84-6.936,53.299,8.738c14.877,16.127,28.421,33.962,39.847,52.697
		c25.322,41.518,46.709,84.967,54.483,133.796c3.989,25.06,4.073,49.931-3.444,74.421c-4.335,14.124-11.39,26.161-25.518,32.895
		c-2.19,1.044-3.918,4.051-4.874,6.53c-5.754,14.927-15.955,20.253-31.499,17.266c-4.971-0.955-10.752-0.451-15.58,1.145
		c-12.574,4.156-23.069,1.26-32.297-7.536c-12.104-11.538-17.81-26.517-20.314-42.413c-4.491-28.518-7.887-57.209-11.583-84.654
		c-9.756,3.981-20.605,10.356-32.276,12.797c-31.749,6.639-58.884-4.99-82.886-25.02c-29.767-24.841-50.108-57.053-69.064-90.21
		c-6.936-12.132-12.779-24.899-19.914-36.903c-1.887-3.175-6.771-6.595-10.203-6.518c-50.381,1.123-100.104,6.885-146.757,27.424
		c-41.417,18.234-71.942,49.286-93.56,88.195c-7.09,12.761-7.361,29.379-10.37,44.31c-1.539,7.638-1.905,15.509-3.371,23.166
		c-8.04,41.979-36.815,61.385-78.826,53.125c-36.405-7.157-68.6-24.152-99.374-43.931c-43.966-28.259-84.871-60.299-119.448-99.878
		c-1.942-2.223-5.158-3.64-8.051-4.678c-29.031-10.412-45.754-51.242-31.707-78.87c2.686-5.284,6.967-10.889,11.993-13.573
		c6.769-3.616,9.503-8.58,11.761-15.257c7.831-23.158,23.05-33.914,48.157-35.177c2.273-0.114,4.936-1.405,6.617-2.996
		c18.811-17.807,39.89-17.908,62.573-8.909c3.154,1.251,8.04,1.114,10.956-0.496c18.17-10.034,36.013-10.128,53.762,0.531
		c22.306,13.395,37.596,33.779,53.078,53.928C655.194,1505.134,657.545,1508.589,661.429,1513.981z M762.789,1574.826
		c0.696,0.496,1.392,0.992,2.088,1.488c39.347-42.514,90.046-61.754,145.742-71.187c-71.728-24.849-109.393-78.368-129.042-147.51
		c16.721,42.193,39.162,80.45,77.186,107.557c38.577,27.501,82.317,34.483,127.312,33.659c-4.097-25.611-7.962-49.767-11.826-73.924
		c1.202-0.212,2.405-0.424,3.607-0.636c0.363,1.442,0.757,2.876,1.084,4.326c7.674,34.039,16.931,67.477,35.85,97.397
		c16.154,25.548,31.039,51.983,48.496,76.6c17.465,24.63,38.7,45.761,69.372,54.272c32.619,9.051,60.318-3.449,73.573-34.392
		c4.577-10.685,8.433-21.985,10.461-33.389c3.747-21.058,5.9-42.4,8.718-63.624c0.628-0.106,1.256-0.213,1.884-0.319
		c1.395,13.296,2.789,26.591,4.451,42.44c3.199-7.717,5.35-12.905,7.501-18.092c0.734,5.515,0.931,11.421-1.803,15.215
		c-8.25,11.453-8.6,24.849-11.303,37.728c-1.067,5.084-1.932,10.396-4.114,15.026c-6.067,12.871-6.99,26.421-5.396,40.05
		c3.695,31.6,7.644,63.185,12.393,94.639c1.62,10.732,7.214,20.303,16.987,26.347c9.019,5.578,15.092,2.5,15.787-7.999
		c0.924-13.963,1.449-27.952,2.329-41.918c0.544-8.635,1.431-17.248,2.164-25.87c0.719,0.061,1.438,0.121,2.157,0.182
		c0,23.944,0,47.889,0,71.594c24.7,8.384,29.882,5.17,28.255-19.684c-1.087-16.607-4.696-33.048-7.081-48.935
		c11.78,13.188,15.396,31.087,21.928,49.13c5.74-6.647,12.464-13.392,13.948-21.141c3.272-17.088,6.807-34.971,5.106-52.018
		c-7.23-72.451-41.992-133.094-85.818-189.205c-4.366-5.59-11.375-9.942-18.051-12.735c-16.052-6.715-30.549,4.066-29.826,21.369
		c0.321,7.686,0.914,15.361,1.384,23.041c-2.815-2.124-4.59-4.676-5.561-7.504c-5.587-16.276-11.192-32.551-16.405-48.95
		c-12.494-39.308-24.636-78.729-37.245-118c-2.846-8.864-7.02-17.302-10.422-25.547c-1.349,0-1.75-0.126-1.988,0.019
		c-5.266,3.197-10.501,6.446-15.768,9.642c-42.234,25.628-86.526,46.272-135.083,57.071c-9.789,2.177-15.337-0.616-21.154-8.53
		c-19.984-27.188-36.45-56.056-45.642-88.96c-43.764,4.419-85.412-0.63-125.529-20.501c-4.498,26.669-8.875,51.976-13.012,77.324
		c-4.649,28.487-0.735,24.127-28.762,20.102c-6.312-0.906-9.153,0.81-12.618,5.513c-35.281,47.892-47.351,103.457-53.594,160.958
		c-0.291,2.678,0.334,5.962,1.722,8.238c17.93,29.388,30.553,60.971,39.573,94.092c1.026,3.768,2.366,7.451,3.56,11.174
		c13.657-52.682,39.191-98.737,65.067-144.638c0.734,0.291,1.468,0.582,2.202,0.873
		C779.35,1529.394,771.07,1552.11,762.789,1574.826z M1110.093,480.019c-31.923-16.6-62.052-31.873-91.804-47.848
		c-29.677-15.935-58.977-32.574-89.672-49.585c10.666,17.302,21.18,34.356,30.257,49.079c-19.652-6.705-40.513-16.172-62.395-20.645
		c-22.994-4.7-45.331,1.193-66.31,17.55c29.191,6.083,56.637,9.974,80.293,25.128c-66.065-1.079-119.323,31.288-137.138,51.438
		c25.507-0.763,44.667,10.197,58.894,30.97c-30.218-16.746-60.455-16.481-90.487-0.666c-5.101,2.686-9.932,7.352-12.948,12.288
		c-16.626,27.215-27.107,56.805-32.78,88.196c-6.985,38.652-6.05,77.066,2.646,115.312c0.583,2.565,2.235,4.886,3.39,7.321
		c0.954-0.388,1.907-0.775,2.861-1.163c-5.702-26.581-7.509-53.305-3.816-80.25c4.219-30.79,12.984-59.776,33.652-83.932
		c30.329-35.446,73.865-30.84,96.008,10.123c2.159,3.994,4.036,8.172,5.687,12.404c9.866,25.287,13.776,51.768,11.679,78.555
		c-1.837,23.464-6.608,46.698-9.898,68.787c16.099,1.524,34.572,1.193,51.891,5.501c17.114,4.257,33.062,13.202,49.647,20.143
		c-14.254-34.083-18.302-69.874-11.925-106.628c6.779-39.072,21.396-74.512,51.735-101.473
		c33.149-29.458,73.648-26.354,102.482,7.215c3.591,4.181,6.95,8.639,9.869,13.31c25.488,40.785,30.028,85.181,22.245,131.598
		c-1.321,7.878-3.189,15.664-4.724,23.104c20.815,0,40.987-1.182,60.955,0.333c19.94,1.512,39.675,5.723,60.079,8.839
		c0.904-29.817-2.522-59.805-8.4-89.487c-13.219-66.752-39.517-127.42-84.914-179.211c20.103,13.439,34.764,31.987,50.195,53.415
		c7.108-23.887,13.484-45.017,19.679-66.201c10.483-35.851,18.593-72.593,31.815-107.397
		c18.177-47.849,49.849-85.913,95.739-110.548c75.54-40.551,188.112-31.854,226.114,91.081
		c12.088,39.104,12.638,78.927,5.747,118.842c-14.657,84.9-54.416,155.132-126.211,204.24
		c-52.917,36.195-111.52,50.665-175.402,34.821c-7.645-1.896-15.083-4.628-22.916-7.066c1.077,22.843-1.68,18.833,17.145,25.95
		c57.2,21.627,112.463,16.042,165.361-13.833c58.849-33.235,101.717-81.87,131.385-141.841
		c31.399-63.472,46.163-130.809,35.854-201.607c-15.605-107.169-107.217-173.155-214.043-156.128
		c-51.784,8.254-92.985,35.282-129.41,71.223c-34.556,34.097-60.606,74.704-87.696,114.514
		C1143.509,430.775,1126.55,455.785,1110.093,480.019z M1349.119,446.67c-8.679-6.431-17.861-5.388-27.225-3.066
		c-32.749,8.121-60.779,25.428-88.939,43.325c-18.528,11.775-22.291,29.306-27.225,46.236c18.598-5.611,36.968-11.929,55.761-16.506
		c9.892-2.409,21.984-4.202,28.685,6.181c7.022,10.88,0.854,21.476-5.603,30.672c-14.911,21.238-35.83,34.58-59.654,43.826
		c-3.558,1.381-7.158,2.653-8.633,3.197c7.895,32.25,15.355,63.438,23.393,94.476c0.831,3.21,4.614,6.813,7.862,8.06
		c32.373,12.427,65.782,15.096,99.779,8.656c71.978-13.634,126.138-54.027,165.508-114.252
		c45.497-69.598,63.743-145.699,45.373-228.038c-15.287-68.52-64.404-109.803-130.873-111.769
		c-67.42-1.994-118.022,28.568-155.429,82.904c-22.499,32.681-34.02,69.99-43.231,108.103c-3.291,13.617-6.472,27.261-10.222,43.082
		c24.669-19.62,49.055-35.184,76.458-45.132c11.808-4.286,24.346-6.839,36.748-9.102
		C1338.93,436.196,1345.767,438.656,1349.119,446.67z M772.929,793.626c-30.488-18.378-62.225-30.116-98.439-24.167
		c-43.324,7.117-64.69,40.44-50.871,81.974c4.654,13.987,11.775,27.665,20.206,39.79c29.119,41.879,69.879,69.599,116.03,89.306
		c24.871,10.62,50.998,18.302,76.558,27.309c0.302-0.874,0.605-1.748,0.907-2.622c-3.369-7.176-6.738-14.353-10.107-21.529
		c5.708,3.187,9.068,7.893,13.124,11.894c9.936,9.803,19.45,20.251,30.473,28.69c23.49,17.984,47.958,18.365,72.023,1.602
		c23.022-16.036,45.479-32.883,68.184-49.374c0.378,0.038,0.755,0.076,1.133,0.114c-8.836,11.516-17.672,23.032-26.709,34.811
		c2.582-0.976,5.21-2.034,7.882-2.969c20.499-7.174,41.572-10.238,63.304-9.426c6.957,0.26,14.313,0.451,20.891-1.419
		c50.912-14.469,100.3-32.612,143.146-64.82c26.147-19.655,48.114-42.973,58.763-74.823c9.229-27.601,1.622-49.716-22.148-66.536
		c-21.085-14.92-45.138-21.036-70.338-23.893c-49.606-5.625-98.133,1.908-146.045,13.356c-27.652,6.607-54.602,16.151-82.922,24.69
		c3.662,4.539,5.846,7.245,8.029,9.951c-14.157-7.465-26.679-16.898-40.332-24.222c-13.354-7.164-27.405-14.058-41.993-17.604
		c-14.529-3.532-30.105-2.756-45.222-3.869c11.771,5.865,24.064,8.822,34.191,15.213c23.855,15.054,23.692,41.296,0.777,57.866
		c-27.85,20.138-77.298,10.752-95.779-18.232C771.674,815.323,769.743,805.253,772.929,793.626z M763.86,486.804
		c-0.284-50.457-3.56-100.5-26.208-146.566c-7.86-15.989-19.186-31.215-31.99-43.633c-25.115-24.36-55.355-26.29-83.371-5.33
		c-14.549,10.885-28.5,24.439-38.147,39.682c-41.869,66.151-54.018,138.724-39.953,215.378
		c8.339,45.447,26.231,86.588,62.661,117.237c19.478,16.387,42.4,24.083,68.988,25.216c0-5.312-0.164-9.482,0.026-13.637
		c1.608-35.104,8.62-69.069,22.914-101.227c3.657-8.227,3.546-13.71-2.056-21.483c-21.069-29.233-9.898-58.411,25.308-65.23
		C735.07,484.687,749.007,486.804,763.86,486.804z M1052.898,1012.384c-18.013,2.107-33.697,4.265-49.447,5.696
		c-16.926,1.539-27.016,8.857-34.118,25.753c-16.634,39.569-34.278,78.541-44.77,120.441
		c-18.828,75.192-8.974,144.425,39.765,206.488c3.999,5.092,7.278,6.472,13.773,4.855c54.426-13.548,103.513-38.131,148.699-70.92
		c16.221-11.771,29.16-26.606,40.187-43.815c-44.518-23.657-53.103-66.431-59.179-110.594c-15.588,2.908-29.811,5.561-45.094,8.412
		c8.988,11.911,21.063,12.302,34.398,11.966c-16.101,11.919-31.165,11.597-44.592-0.706c-18.416-16.874-27.715-38.383-28.962-63.047
		C1021.856,1073.212,1032.946,1043.067,1052.898,1012.384z M1456.076,1004.104c-20.264-3.568-30.841-15.307-28.075-37.374
		c0.229-1.828-2.584-4.037-3.984-6.069c1.13,33.807-4.119,50.822-18.317,55.276c9.088-11.884,15.079-24.083,10.395-39.78
		c-6.484-21.728-11.948-43.763-17.719-65.701c-4.408-16.755-6.524-34.531-21.495-46.574c9.261,1.876,15.585,7.616,19.57,15.643
		c4.005,8.067,7.111,16.58,10.795,25.335c3.163-1.174,5.986-1.954,8.568-3.222c28.708-14.09,32.857-36.687,10.891-59
		c-14.302-14.528-32.29-16.198-48.033-2.895c-7.538,6.37-14.216,14.489-19.181,23.037c-17.431,30.013-24.229,62.884-23.058,97.399
		c0.145,4.266,2.018,8.766,4.101,12.61c4.131,7.624,8.968,14.865,13.513,22.264c-6.761-4.016-11.959-8.952-16.243-14.584
		c-4.728-6.216-9.539-6.716-16.846-4.319c-20.057,6.581-40.238,13.075-60.778,17.84c-59.923,13.899-120.993,17.209-182.261,17.353
		c-7.938,0.019-13.014,2.246-16.499,8.981c-5.223,10.093-11.465,19.793-15.504,30.337c-10.754,28.07-14.98,56.467-1.494,85.26
		c3.473,7.414,7.498,9.95,15.733,8.501c95.704-16.836,186.068-48.255,270.208-97.281c10.12-5.896,17.813-11.344,13.216-24.416
		c-0.102-0.289,0.609-0.863,0.953-1.32c24.298,40.553,85.64,30.211,116.395,9.279
		C1459.32,1021.876,1457.767,1013.37,1456.076,1004.104z M446.648,1597.11c3.211,3.997,5.759,7.771,8.892,10.975
		c44.498,45.512,94.461,83.854,152.154,110.968c18.242,8.573,38.502,14.004,58.43,17.531c21.563,3.816,37.526-7.696,46.05-27.98
		c5.833-13.881,5.293-27.886,1.801-42.097c-16.957-68.999-50.852-129.101-96.505-182.922c-5.422-6.393-12.174-11.711-18.591-17.198
		c-27.068-23.142-58.194-3.808-65.764,21.354c-5.201,17.286-0.806,36.345,10.481,43.575c12.276,7.863,27.77,5.02,42.53-8.363
		c4.678-4.242,8.466-9.465,12.662-14.239c-5.487,21.48-25.831,34.293-46.809,32.895c-3.702-0.247-8.622,0.507-11.141,2.81
		c-10.137,9.271-21.84,12.114-35.109,11.483c-2.93-0.139-6.384,1.509-8.895,3.313c-14.107,10.132-29.632,18.512-40.308,32.971
		C454.828,1594.482,450.856,1595.1,446.648,1597.11z M868.916,392.981c-0.472-1.201-1.029-3.063-1.902-4.764
		c-4.455-8.673-8.623-17.521-13.562-25.914c-27.276-46.355-61.75-85.272-112.146-107.58
		c-64.743-28.658-119.59-17.111-165.694,34.956c-68.226,77.051-88.57,206.537-47.166,300.869
		c26.325,59.975,70.677,99.419,134.025,117.028c4.183,1.163,8.485,1.898,12.649,2.814c0-5.868,0-10.58,0-14.955
		c-10.921-2.137-21.369-3.251-31.183-6.365c-9.818-3.115-19.607-7.249-28.358-12.64c-36.383-22.412-56.086-57.426-68.481-96.591
		c-25.407-80.282-15.765-158.083,20.319-233.137c12.514-26.028,29.059-49.361,52.742-66.724c25.466-18.67,53.853-20.55,80.006-2.804
		c12.628,8.569,24.271,19.94,33.235,32.307c26.154,36.083,35.884,78.186,39.937,121.77c1.487,15.994,1.754,32.101,2.537,47.374
		c20.855-10.585,41.538-21.083,61.547-31.238c-6.115-2.051-13.742-3.893-20.719-7.135c-8.202-3.811-9.444-9.746-3.138-16.221
		c6.058-6.22,12.738-12.422,20.308-16.44C844.919,401.731,857.006,397.828,868.916,392.981z M907.528,1287.344
		c-13.162-61.171-0.55-118.203,18.971-175.406c-34.079,1.122-64.545-6.044-91.861-26.511c-3.333,11.582-6.5,22.101-9.384,32.697
		c-12.546,46.092-24.933,92.227-37.581,138.291c-2.098,7.641-1.534,12.881,7.254,15.514c9.931,2.975,19.381,7.659,29.388,10.26
		C851.25,1289.191,878.609,1290.93,907.528,1287.344z M755.187,1357.885c14.108-116.094,51.257-225.077,85.431-336.007
		c-10.875-2.083-20.328-4.208-29.888-5.6c-5.299-0.771-8.918,1.245-10.38,7.503c-9.223,39.495-26.258,76.032-42.696,112.865
		c-19.183,42.985-37.918,86.208-55.259,129.957c-5.621,14.182-6.989,30.254-8.882,45.637c-1.258,10.216,3.906,18.904,11.96,25.464
		C719.471,1349.106,735.898,1354.492,755.187,1357.885z M535.879,1218.165c-5.481,0.26-11.757,0.533-18.029,0.867
		c-3.154,0.168-8.296-0.66-9.135,0.851c-6.386,11.512-14.739,22.977-17.027,35.455c-2.846,15.528,8.153,21.823,21.885,13.208
		c8.751-5.491,17.141-13.44,22.313-22.267c6.174-10.539,13.831-17.24,24.758-21.84c14.25-5.999,26.924-14.583,35.97-27.533
		c20.791-29.765,6.476-61.143-29.242-64.636c-7.685-0.751-15.61-1.563-22.834-4.057c-25.804-8.909-51.191-19.041-77.075-27.695
		c-11.293-3.776-23.324-5.732-35.181-7.281c-6.783-0.886-13.301,1.908-13.865,10.322c-0.589,8.785,5.558,14.984,14.043,15.364
		c31.587,1.417,57.511,15.381,80.261,36.27c-8.269-3.371-16.01-7.868-24.078-11.668c-17.361-8.178-35.626-12.447-54.905-10.487
		c-16.769,1.704-28.583,12.072-28.509,24.359c0.076,12.654,13.689,24.683,29.592,26.148c0.324,0.03,0.659,0.003,0.972,0.075
		c11.33,2.625,23.054,4.173,33.904,8.12C491.821,1199.788,513.474,1209.13,535.879,1218.165z M1067.591,762.747
		c4.968-0.611,8.443-1.43,11.908-1.389c9.613,0.114,13.817-4.575,16.344-13.838c7.049-25.837,9.141-51.9,5.255-78.254
		c-3.948-26.771-12.747-51.829-31.242-72.36c-23.608-26.207-53.544-27.939-80.187-4.996c-3.196,2.752-6.301,5.668-9.089,8.825
		c-27.589,31.23-38.295,68.954-40.498,109.402c-1.689,31.009,4.728,60.579,20.524,88.406c6.292-2.835,12.122-5.463,18.415-8.298
		c-12.13-24.265-18.505-49.165-16.255-75.818c2.103-24.909,9.114-48.016,26.874-66.436c19.752-20.486,44.953-19.704,63.822,1.565
		c11.039,12.443,17.691,27.086,20.828,43.418C1078.765,716.267,1075.466,738.861,1067.591,762.747z M789.478,1022.25
		c-67.863,32.262-127.331,72.405-182.723,113.273c2.995,17.604,5.556,32.658,8.198,48.189
		c37.778-3.439,75.775-11.924,113.361-22.412c2.332-0.651,4.741-3.422,5.822-5.795c14.535-31.914,29.144-63.802,43.038-95.997
		C781.985,1048.359,784.882,1036.383,789.478,1022.25z M1166.248,1377.025c4.026,12.121,8.38,23.321,11.363,34.876
		c1.992,7.717,5.431,9.98,13.435,9.872c70.179-0.948,130.437-25.147,178.741-76.497c46.84-49.793,92.912-100.309,137.837-148.902
		c-0.891,0.436-4.589,1.659-7.619,3.819c-20.075,14.316-41.032,27.626-59.762,43.546c-34.427,29.263-66.403,61.471-101.438,89.944
		c-45.934,37.331-99.281,52.963-158.675,45.2C1175.685,1378.302,1171.245,1377.695,1166.248,1377.025z M1508.337,1001.954
		c-0.741-0.7-1.482-1.399-2.223-2.099c3.471-3.743,6.936-7.491,10.412-11.23c10.194-10.963,17.481-23.467,19.913-38.416
		c2.892-17.774-4.686-32.33-20.606-39.193c-19.67,29.052-45.013,49.946-81.519,52.869c-3.519,20.043,1.382,28.795,20.307,33.906
		c11.826,3.194,24.111,4.689,36.19,6.946c0.03,0.458,0.06,0.915,0.09,1.373c-9.409,0-18.818,0-28.078,0
		c-0.589,15.439,5.622,24.767,17.164,24.914c22.49,0.286,41.061-9.106,55.329-26.192c6.858-8.213,6.004-20.848,0.232-27.507
		C1526.489,985.525,1517.413,993.739,1508.337,1001.954z M746.343,772.239c-9.356-19.77-13.592-39.836-11.905-60.917
		c1.882-23.517,8.088-45.484,24.373-63.448c18.376-20.27,43.172-21.093,62.693-2.153c2.673,2.593,4.776,5.773,7.144,8.681
		c-0.714-21.693-6.214-40.889-19.995-56.619c-13.919-15.886-32.818-18.718-49.698-5.953c-9.342,7.065-18.143,16.349-23.807,26.516
		c-24.913,44.714-25.711,92.451-14.531,141.121c0.449,1.953,2.924,4.044,4.953,4.918
		C732.038,767.173,738.74,769.417,746.343,772.239z M1510.98,888.408c-0.339-0.069-0.677-0.139-1.016-0.208
		c0-1.949,0.184-3.919-0.03-5.845c-1.47-13.223-12.196-25.581-24.664-28.53c-11.54-2.731-31.842,3.722-34.736,14.404
		c-4.511,16.651-16.931,26.503-26.458,38.973c-7.098,9.291-8.783,20.049-6.61,31.465c2.611,13.716,9.598,19.456,23.306,17.143
		c30.32-5.115,52.366-21.872,65.581-49.641C1508.936,900.744,1509.49,894.353,1510.98,888.408z M528.404,1464.012
		c-21.153-12.652-45.044-4.838-53.3,17.28c-5.941,15.914-5.465,31.973,1.515,47.462c10.174,22.577,44.415,27.805,61.683,9.666
		C516.366,1518.961,513.371,1497.159,528.404,1464.012z M1211.583,595.976c28.976-9.458,53.707-23.756,69.872-49.471
		c3.424-5.447,5.784-14.396,3.58-19.584c-1.559-3.669-11.742-5.441-17.897-5.074c-22.846,1.36-43.802,10.136-62.936,21.768
		c-5.223,3.175-8.735,15.123-7.332,21.857C1199.037,575.868,1206.115,585.241,1211.583,595.976z M850.245,1024.171
		c-2.017,7.826-3.24,14.178-5.326,20.232c-2.241,6.504-0.495,10.449,4.956,14.771c24.685,19.57,53.004,25.082,83.442,22.429
		c3.396-0.296,7.666-3.329,9.525-6.334c9.379-15.164,18.103-30.734,27.017-46.184c0.522-0.906,0.696-2.012,1.032-3.026
		c-0.302-1.056-0.605-2.112-0.907-3.168C930.547,1054.519,891.065,1064.234,850.245,1024.171z M460.703,1476.823
		c-12.171,1.007-21.284,6.689-26.627,17.653c-8.454,17.348-8.676,35.344-1.036,52.917c10.216,23.501,44.435,26.976,60.807,6.561
		C462.302,1539.658,454.665,1522.142,460.703,1476.823z M1036.882,652.103c-9.899-9.71-24.997-10.453-36.578,0.416
		c-8.538,8.013-16.535,17.849-21.257,28.441c-12.868,28.862-11.772,59.079-2.085,88.566c7.486,22.787,4.12,19.855,26.271,11.862
		c0.421-0.152,0.615-0.932,0.907-1.406c-21.085-25.602-27.277-68.575-12.892-89.295c8.882,9.105,17.192,11.172,22.211,4.997
		c1.853-2.28,3.577-6.52,2.683-8.829c-2.613-6.74-6.576-12.957-10.509-20.311C1012.619,657.403,1022.132,649.772,1036.882,652.103z
		 M775.039,666.947c8.292-12.263,19.088-18.766,36.339-14.677c-11.054-8.929-21.788-12.013-32.282-6.021
		c-8.159,4.659-16.435,11.189-21.425,18.963c-20.962,32.659-20.198,67.383-6.827,102.669c3.573,9.431,10.643,15.109,19.393,19.482
		c5.82,2.909,8.888,1.548,10.537-4.281c-25.865-27.58-33.735-66.193-19.333-93.789c11.184,10.226,16.582,11.655,22.026,5.828
		C790.33,687.775,787.092,676.661,775.039,666.947z M758.397,492.363c-15.759-3.417-31.736-2.856-47.101,3.935
		c-10.328,4.565-18.249,11.493-18.885,23.797c-0.719,13.904,4.143,25.715,12.787,35.164
		C723.096,534.1,740.586,513.421,758.397,492.363z M935.38,1088.756c-34.478,2.509-66.527-3.385-93.044-27.688
		c-7.283,15.825-6.862,17.291,5.932,25.751c20.434,13.512,43.213,18.866,67.346,19.384
		C930.536,1106.523,932.134,1105.004,935.38,1088.756z M464.468,1575.262c-29.527-0.27-43.837-11.023-51.479-51.114
		c-2.694,4.248-5.324,7.133-6.535,10.525c-5.082,14.228,2.064,37.666,13.993,47.147
		C436.062,1594.232,454.251,1591.857,464.468,1575.262z M854.859,809.956c4.545-2.869,8.358-5.275,12.17-7.681
		c-2.369-3.533-3.984-8.275-7.276-10.331c-5.64-3.522-12.149-6.381-18.645-7.53c-3.883-0.687-8.435,2.41-12.687,3.806
		c1.601,3.889,2.123,9.337,5.025,11.345C839.609,803.829,847.01,806.303,854.859,809.956z M440.552,1195.946
		c-0.415,1.861-0.83,3.722-1.245,5.583c12.348,2.473,24.695,4.945,37.043,7.417c0.252-1.047,0.504-2.095,0.756-3.142
		C464.922,1202.519,452.737,1199.233,440.552,1195.946z M1046.62,718.486c0.939-1.811,1.878-3.621,2.818-5.432
		c-2.97-1.054-6.218-3.379-8.83-2.805c-2.629,0.578-5.833,3.739-6.476,6.34c-0.436,1.763,2.979,6.234,4.913,6.384
		C1041.44,723.159,1044.084,720.127,1046.62,718.486z M818.266,715.485c-3.531-2.926-5.915-6.379-7.94-6.18
		c-2.181,0.214-5.579,3.845-5.587,5.995c-0.008,2.217,3.23,5.941,5.415,6.23C812.157,721.795,814.648,718.357,818.266,715.485z"/>
	<path style="fill:#FFFFFF;" d="M762.789,1574.826c8.281-22.716,16.561-45.432,24.842-68.148c-0.734-0.291-1.468-0.582-2.202-0.873
		c-25.876,45.901-51.41,91.956-65.067,144.638c-1.194-3.722-2.534-7.405-3.56-11.174c-9.02-33.121-21.643-64.704-39.573-94.092
		c-1.388-2.276-2.013-5.56-1.722-8.238c6.243-57.501,18.313-113.066,53.594-160.958c3.464-4.703,6.306-6.419,12.618-5.513
		c28.027,4.026,24.113,8.386,28.762-20.102c4.136-25.347,8.514-50.655,13.012-77.324c40.117,19.871,81.765,24.92,125.529,20.501
		c9.192,32.904,25.658,61.772,45.642,88.96c5.817,7.914,11.365,10.707,21.154,8.53c48.557-10.799,92.849-31.443,135.083-57.071
		c5.267-3.196,10.502-6.445,15.768-9.642c0.238-0.144,0.64-0.019,1.988-0.019c3.402,8.245,7.576,16.683,10.422,25.547
		c12.609,39.271,24.751,78.692,37.245,118c5.212,16.398,10.817,32.674,16.405,48.95c0.971,2.828,2.746,5.381,5.561,7.504
		c-0.47-7.68-1.063-15.355-1.384-23.041c-0.723-17.303,13.775-28.084,29.826-21.369c6.675,2.793,13.685,7.145,18.051,12.735
		c43.825,56.11,78.587,116.754,85.818,189.205c1.701,17.047-1.834,34.931-5.106,52.018c-1.484,7.749-8.207,14.494-13.948,21.141
		c-6.532-18.043-10.148-35.942-21.928-49.13c2.386,15.887,5.994,32.329,7.081,48.935c1.627,24.855-3.555,28.069-28.255,19.684
		c0-23.705,0-47.65,0-71.594c-0.719-0.061-1.438-0.121-2.157-0.182c-0.733,8.623-1.619,17.236-2.164,25.87
		c-0.881,13.966-1.406,27.955-2.329,41.918c-0.694,10.5-6.768,13.578-15.787,7.999c-9.772-6.044-15.367-15.615-16.987-26.347
		c-4.749-31.454-8.698-63.039-12.393-94.639c-1.594-13.629-0.671-27.179,5.396-40.05c2.182-4.63,3.047-9.942,4.114-15.026
		c2.703-12.879,3.053-26.274,11.303-37.728c2.734-3.795,2.537-9.701,1.803-15.215c-2.151,5.188-4.301,10.375-7.501,18.092
		c-1.662-15.848-3.057-29.144-4.451-42.44c-0.628,0.106-1.256,0.213-1.884,0.319c-2.817,21.224-4.971,42.565-8.718,63.624
		c-2.028,11.403-5.884,22.704-10.461,33.389c-13.256,30.944-40.955,43.443-73.573,34.392c-30.672-8.511-51.907-29.642-69.372-54.272
		c-17.457-24.617-32.342-51.052-48.496-76.6c-18.919-29.92-28.175-63.358-35.85-97.397c-0.327-1.45-0.721-2.884-1.084-4.326
		c-1.202,0.212-2.405,0.424-3.607,0.636c3.865,24.157,7.729,48.313,11.826,73.924c-44.995,0.824-88.734-6.158-127.312-33.659
		c-38.024-27.107-60.465-65.364-77.186-107.557c19.649,69.142,57.314,122.661,129.042,147.51
		c-55.696,9.433-106.395,28.673-145.742,71.187C764.181,1575.818,763.485,1575.322,762.789,1574.826z"/>
	<path style="fill:#FFFFFF;" d="M1110.093,480.019c16.458-24.234,33.416-49.244,50.416-74.226
		c27.09-39.81,53.14-80.418,87.696-114.514c36.425-35.941,77.626-62.969,129.41-71.223
		c106.827-17.028,198.438,48.959,214.043,156.128c10.309,70.798-4.455,138.135-35.854,201.607
		c-29.668,59.971-72.535,108.606-131.385,141.841c-52.898,29.875-108.161,35.46-165.361,13.833
		c-18.825-7.117-16.068-3.107-17.145-25.95c7.833,2.438,15.271,5.169,22.916,7.066c63.883,15.844,122.485,1.373,175.402-34.821
		c71.796-49.108,111.554-119.34,126.211-204.24c6.891-39.915,6.341-79.738-5.747-118.842
		c-38.002-122.935-150.575-131.632-226.114-91.081c-45.891,24.635-77.563,62.7-95.739,110.548
		c-13.221,34.805-21.332,71.547-31.815,107.397c-6.194,21.184-12.571,42.314-19.679,66.201
		c-15.43-21.428-30.092-39.976-50.195-53.415c45.397,51.791,71.695,112.459,84.914,179.211c5.878,29.682,9.304,59.671,8.4,89.487
		c-20.404-3.116-40.139-7.327-60.079-8.839c-19.968-1.514-40.14-0.333-60.955-0.333c1.535-7.44,3.403-15.226,4.724-23.104
		c7.783-46.417,3.242-90.812-22.245-131.598c-2.919-4.671-6.278-9.129-9.869-13.31c-28.834-33.569-69.334-36.673-102.482-7.215
		c-30.339,26.961-44.956,62.401-51.735,101.473c-6.377,36.754-2.329,72.545,11.925,106.628
		c-16.585-6.941-32.533-15.886-49.647-20.143c-17.319-4.308-35.792-3.977-51.891-5.501c3.289-22.089,8.06-45.323,9.898-68.787
		c2.098-26.787-1.812-53.269-11.679-78.555c-1.651-4.232-3.528-8.41-5.687-12.404c-22.143-40.963-65.679-45.569-96.008-10.123
		c-20.668,24.155-29.433,53.142-33.652,83.932c-3.693,26.944-1.886,53.669,3.816,80.25c-0.954,0.388-1.907,0.775-2.861,1.163
		c-1.155-2.435-2.807-4.756-3.39-7.321c-8.695-38.246-9.631-76.66-2.646-115.312c5.673-31.391,16.154-60.981,32.78-88.196
		c3.016-4.936,7.847-9.602,12.948-12.288c30.032-15.815,60.269-16.08,90.487,0.666c-14.228-20.773-33.387-31.733-58.894-30.97
		c17.815-20.149,71.073-52.516,137.138-51.438c-23.656-15.154-51.102-19.045-80.293-25.128c20.978-16.357,43.316-22.25,66.31-17.55
		c21.882,4.473,42.743,13.939,62.395,20.645c-9.076-14.723-19.59-31.777-30.257-49.079c30.695,17.011,59.994,33.65,89.672,49.585
		C1048.041,448.146,1078.169,463.419,1110.093,480.019z M1126.088,564.884c-0.206-45.525-44.298-86.117-82.895-87.324
		c-33.2-1.039-73.457,26.518-75.416,52.188c10.808-7.33,21.662-15.661,33.405-22.456c26.072-15.085,51.707-14.445,76.892,3.178
		C1098.474,524.746,1114.694,542.363,1126.088,564.884z"/>
	<path style="fill:#FFFFFF;" d="M1349.119,446.67c-3.352-8.014-10.19-10.475-17.465-9.147c-12.403,2.263-24.941,4.815-36.748,9.102
		c-27.404,9.948-51.789,25.512-76.458,45.132c3.75-15.821,6.931-29.465,10.222-43.082c9.211-38.113,20.732-75.421,43.231-108.103
		c37.407-54.335,88.009-84.898,155.429-82.904c66.469,1.966,115.586,43.249,130.873,111.769
		c18.37,82.339,0.124,158.44-45.373,228.038c-39.369,60.225-93.53,100.618-165.508,114.252c-33.997,6.44-67.406,3.77-99.779-8.656
		c-3.248-1.247-7.031-4.85-7.862-8.06c-8.038-31.038-15.498-62.226-23.393-94.476c1.475-0.545,5.075-1.817,8.633-3.197
		c23.824-9.245,44.743-22.588,59.654-43.826c6.456-9.196,12.624-19.791,5.603-30.672c-6.701-10.383-18.793-8.591-28.685-6.181
		c-18.794,4.577-37.163,10.895-55.761,16.506c4.934-16.93,8.697-34.461,27.225-46.236c28.16-17.897,56.19-35.204,88.939-43.325
		C1331.258,441.282,1340.44,440.239,1349.119,446.67z"/>
	<path style="fill:#FFFFFF;" d="M772.929,793.626c-3.185,11.627-1.255,21.697,4.715,31.06c18.48,28.984,67.929,38.37,95.779,18.232
		c22.915-16.569,23.078-42.812-0.777-57.866c-10.127-6.391-22.42-9.348-34.191-15.213c15.117,1.113,30.693,0.337,45.222,3.869
		c14.588,3.546,28.639,10.44,41.993,17.604c13.653,7.324,26.174,16.757,40.332,24.222c-2.183-2.706-4.366-5.412-8.029-9.951
		c28.32-8.54,55.271-18.083,82.922-24.69c47.912-11.448,96.439-18.981,146.045-13.356c25.2,2.857,49.253,8.974,70.338,23.893
		c23.771,16.82,31.377,38.935,22.148,66.536c-10.649,31.85-32.616,55.168-58.763,74.823c-42.846,32.208-92.234,50.351-143.146,64.82
		c-6.578,1.87-13.934,1.679-20.891,1.419c-21.732-0.812-42.805,2.252-63.304,9.426c-2.672,0.935-5.3,1.993-7.882,2.969
		c9.037-11.779,17.873-23.295,26.709-34.811c-0.378-0.038-0.755-0.076-1.133-0.114c-22.705,16.491-45.162,33.337-68.184,49.374
		c-24.065,16.763-48.533,16.381-72.023-1.602c-11.023-8.439-20.537-18.887-30.473-28.69c-4.056-4.002-7.416-8.708-13.124-11.894
		c3.369,7.176,6.738,14.353,10.107,21.529c-0.302,0.874-0.605,1.748-0.907,2.622c-25.56-9.007-51.686-16.688-76.558-27.309
		c-46.151-19.707-86.912-47.428-116.03-89.306c-8.43-12.125-15.552-25.803-20.206-39.79c-13.819-41.534,7.547-74.857,50.871-81.974
		C710.704,763.51,742.441,775.248,772.929,793.626z M806.645,887.381c-0.67,7.931-2.12,15.344-1.588,22.612
		c0.3,4.099,2.949,10.23,6.126,11.512c10.712,4.32,14.204,12.475,17.128,22.599c3.313,11.474,7.602,22.947,13.424,33.323
		c4.301,7.665,10.749,14.982,17.945,20.02c35.712,25,79.482,18.754,107.349-14.726c15.383-18.482,26.268-39.534,33.007-62.545
		c5.005-17.091,8.998-34.479,13.46-51.804c42.398,4.892,57.514,4.369,72.076-3.179c-40.794,4.262-79.268-4.102-115.936-22.299
		c-0.316,0.802-0.632,1.604-0.948,2.406c4.955,3.817,9.909,7.634,16.177,12.462c-22.606,16.13-47.414,22.216-73.298,25.686
		c-26.87,3.602-50.992-4.402-74.685-16.187c2.286,2.839,4.571,5.677,7.004,8.698c-37.929,13.99-98.071-11.812-109.337-46.364
		c3.732-2.659,7.477-5.327,11.222-7.995c-0.216-0.299-0.432-0.597-0.649-0.896c-11.536,3.209-23.071,6.418-34.607,9.627
		c6.059,1.594,13.043-0.421,17.246,2.135c4.624,2.812,6.472,9.981,9.938,14.968c2.771,3.987,5.926,7.769,9.304,11.262
		C763.206,875.455,783.252,884.575,806.645,887.381z"/>
	<path style="fill:#FFFFFF;" d="M763.86,486.804c-14.853,0-28.79-2.117-41.828,0.408c-35.206,6.819-46.377,35.996-25.308,65.23
		c5.602,7.773,5.713,13.256,2.056,21.483c-14.294,32.157-21.306,66.123-22.914,101.227c-0.19,4.154-0.026,8.325-0.026,13.637
		c-26.588-1.133-49.51-8.828-68.988-25.216c-36.43-30.65-54.322-71.791-62.661-117.237c-14.065-76.654-1.916-149.227,39.953-215.378
		c9.648-15.243,23.598-28.797,38.147-39.682c28.017-20.96,58.256-19.03,83.371,5.33c12.804,12.418,24.129,27.645,31.99,43.633
		C760.3,386.303,763.576,436.347,763.86,486.804z"/>
	<path style="fill:#FFFFFF;" d="M1052.898,1012.384c-19.952,30.684-31.043,60.829-29.34,94.532
		c1.246,24.664,10.546,46.173,28.962,63.047c13.427,12.303,28.491,12.625,44.592,0.706c-13.335,0.336-25.409-0.056-34.398-11.966
		c15.283-2.851,29.506-5.505,45.094-8.412c6.076,44.163,14.661,86.937,59.179,110.594c-11.027,17.209-23.965,32.044-40.187,43.815
		c-45.186,32.789-94.273,57.371-148.699,70.92c-6.495,1.617-9.775,0.237-13.773-4.855c-48.739-62.063-58.593-131.296-39.765-206.488
		c10.492-41.9,28.136-80.872,44.77-120.441c7.103-16.897,17.193-24.214,34.118-25.753
		C1019.202,1016.648,1034.886,1014.491,1052.898,1012.384z"/>
	<path style="fill:#FFFFFF;" d="M1456.076,1004.104c1.691,9.266,3.244,17.772,4.852,26.582
		c-30.755,20.931-92.097,31.273-116.395-9.279c-0.344,0.457-1.054,1.032-0.953,1.32c4.597,13.072-3.097,18.52-13.216,24.416
		c-84.14,49.026-174.503,80.445-270.208,97.281c-8.235,1.449-12.261-1.087-15.733-8.501c-13.486-28.793-9.259-57.189,1.494-85.26
		c4.039-10.544,10.281-20.244,15.504-30.337c3.485-6.734,8.561-8.962,16.499-8.981c61.268-0.144,122.337-3.454,182.261-17.353
		c20.541-4.764,40.721-11.259,60.778-17.84c7.307-2.397,12.118-1.897,16.846,4.319c4.284,5.631,9.481,10.568,16.243,14.584
		c-4.545-7.399-9.382-14.641-13.513-22.264c-2.083-3.844-3.956-8.345-4.101-12.61c-1.17-34.515,5.627-67.387,23.058-97.399
		c4.965-8.548,11.643-16.668,19.181-23.037c15.742-13.303,33.73-11.633,48.033,2.895c21.966,22.313,17.818,44.91-10.891,59
		c-2.583,1.268-5.405,2.047-8.568,3.222c-3.684-8.755-6.79-17.268-10.795-25.335c-3.985-8.027-10.309-13.767-19.57-15.643
		c14.971,12.044,17.087,29.819,21.495,46.574c5.771,21.938,11.236,43.973,17.719,65.701c4.684,15.697-1.307,27.896-10.395,39.78
		c14.197-4.454,19.446-21.469,18.317-55.276c1.4,2.032,4.213,4.241,3.984,6.069
		C1425.235,988.797,1435.812,1000.536,1456.076,1004.104z"/>
	<path style="fill:#FFFFFF;" d="M446.648,1597.11c4.208-2.01,8.181-2.628,9.878-4.926c10.676-14.458,26.201-22.839,40.308-32.971
		c2.511-1.803,5.965-3.452,8.895-3.313c13.269,0.63,24.972-2.213,35.109-11.483c2.518-2.303,7.438-3.056,11.141-2.81
		c20.977,1.398,41.322-11.416,46.809-32.895c-4.196,4.774-7.984,9.998-12.662,14.239c-14.76,13.383-30.254,16.227-42.53,8.363
		c-11.287-7.229-15.682-26.289-10.481-43.575c7.571-25.162,38.697-44.495,65.764-21.354c6.417,5.487,13.168,10.805,18.591,17.198
		c45.653,53.821,79.548,113.923,96.505,182.922c3.492,14.21,4.033,28.216-1.801,42.097c-8.524,20.284-24.487,31.796-46.05,27.98
		c-19.928-3.527-40.187-8.957-58.43-17.531c-57.693-27.114-107.655-65.456-152.154-110.968
		C452.407,1604.881,449.859,1601.106,446.648,1597.11z"/>
	<path style="fill:#FFFFFF;" d="M868.916,392.981c-11.909,4.847-23.997,8.75-35.044,14.614c-7.57,4.018-14.25,10.221-20.308,16.44
		c-6.306,6.474-5.063,12.41,3.138,16.221c6.977,3.242,14.604,5.084,20.719,7.135c-20.008,10.155-40.692,20.653-61.547,31.238
		c-0.783-15.273-1.05-31.38-2.537-47.374c-4.053-43.584-13.783-85.688-39.937-121.77c-8.964-12.367-20.606-23.738-33.235-32.307
		c-26.153-17.746-54.54-15.866-80.006,2.804c-23.683,17.362-40.228,40.695-52.742,66.724
		c-36.084,75.054-45.726,152.855-20.319,233.137c12.395,39.165,32.097,74.18,68.481,96.591c8.752,5.391,18.54,9.525,28.358,12.64
		c9.814,3.114,20.262,4.228,31.183,6.365c0,4.374,0,9.086,0,14.955c-4.164-0.916-8.466-1.651-12.649-2.814
		c-63.348-17.609-107.7-57.053-134.025-117.028c-41.404-94.332-21.061-223.818,47.166-300.869
		c46.104-52.067,100.95-63.614,165.694-34.956c50.397,22.308,84.87,61.225,112.146,107.58c4.938,8.393,9.107,17.241,13.562,25.914
		C867.887,389.918,868.444,391.78,868.916,392.981z"/>
	<path style="fill:#FFFFFF;" d="M907.528,1287.344c-28.919,3.586-56.278,1.847-83.213-5.154
		c-10.007-2.601-19.456-7.285-29.388-10.26c-8.789-2.633-9.352-7.874-7.254-15.514c12.648-46.064,25.034-92.199,37.581-138.291
		c2.884-10.596,6.052-21.116,9.384-32.697c27.316,20.467,57.782,27.632,91.861,26.511
		C906.978,1169.141,894.367,1226.173,907.528,1287.344z"/>
	<path style="fill:#FFFFFF;" d="M755.187,1357.885c-19.289-3.393-35.717-8.779-49.714-20.181
		c-8.054-6.56-13.217-15.247-11.96-25.464c1.893-15.382,3.261-31.455,8.882-45.637c17.341-43.749,36.076-86.972,55.259-129.957
		c16.437-36.834,33.473-73.371,42.696-112.865c1.461-6.259,5.081-8.275,10.38-7.503c9.56,1.392,19.013,3.517,29.888,5.6
		C806.445,1132.808,769.296,1241.791,755.187,1357.885z"/>
	<path style="fill:#FFFFFF;" d="M535.879,1218.165c-22.406-9.035-44.059-18.377-66.183-26.425
		c-10.85-3.947-22.574-5.494-33.904-8.12c-0.313-0.072-0.648-0.045-0.972-0.075c-15.903-1.465-29.516-13.494-29.592-26.148
		c-0.074-12.287,11.74-22.654,28.509-24.359c19.279-1.959,37.544,2.309,54.905,10.487c8.069,3.801,15.81,8.297,24.078,11.668
		c-22.75-20.888-48.674-34.853-80.261-36.27c-8.485-0.381-14.632-6.579-14.043-15.364c0.564-8.414,7.082-11.208,13.865-10.322
		c11.857,1.548,23.888,3.505,35.181,7.281c25.884,8.654,51.271,18.786,77.075,27.695c7.224,2.494,15.149,3.306,22.834,4.057
		c35.718,3.493,50.034,34.871,29.242,64.636c-9.046,12.95-21.72,21.534-35.97,27.533c-10.927,4.6-18.584,11.301-24.758,21.84
		c-5.171,8.827-13.561,16.777-22.313,22.267c-13.732,8.615-24.732,2.319-21.885-13.208c2.288-12.479,10.641-23.943,17.027-35.455
		c0.838-1.511,5.981-0.683,9.135-0.851C524.123,1218.698,530.398,1218.425,535.879,1218.165z"/>
	<path style="fill:#FFFFFF;" d="M1067.591,762.747c7.875-23.886,11.174-46.48,6.699-69.774
		c-3.137-16.332-9.789-30.974-20.828-43.418c-18.869-21.269-44.07-22.051-63.822-1.565c-17.76,18.42-24.771,41.526-26.874,66.436
		c-2.25,26.653,4.125,51.553,16.255,75.818c-6.293,2.836-12.123,5.463-18.415,8.298c-15.795-27.827-22.213-57.397-20.524-88.406
		c2.203-40.448,12.909-78.172,40.498-109.402c2.789-3.157,5.894-6.073,9.089-8.825c26.643-22.942,56.578-21.211,80.187,4.996
		c18.495,20.531,27.295,45.588,31.242,72.36c3.886,26.354,1.794,52.417-5.255,78.254c-2.527,9.264-6.731,13.952-16.344,13.838
		C1076.034,761.317,1072.559,762.136,1067.591,762.747z"/>
	<path style="fill:#FFFFFF;" d="M789.478,1022.25c-4.596,14.133-7.493,26.109-12.304,37.259
		c-13.894,32.195-28.503,64.083-43.038,95.997c-1.081,2.373-3.49,5.144-5.822,5.795c-37.586,10.488-75.583,18.973-113.361,22.412
		c-2.642-15.531-5.203-30.585-8.198-48.189C662.147,1094.655,721.615,1054.512,789.478,1022.25z"/>
	<path style="fill:#FFFFFF;" d="M1166.248,1377.025c4.997,0.669,9.438,1.276,13.882,1.858c59.394,7.764,112.741-7.869,158.675-45.2
		c35.035-28.473,67.011-60.681,101.438-89.944c18.73-15.92,39.687-29.23,59.762-43.546c3.03-2.16,6.728-3.384,7.619-3.819
		c-44.926,48.593-90.998,99.109-137.837,148.902c-48.304,51.35-108.562,75.549-178.741,76.497
		c-8.004,0.108-11.442-2.155-13.435-9.872C1174.628,1400.347,1170.274,1389.146,1166.248,1377.025z"/>
	<path style="fill:#FFFFFF;" d="M1508.337,1001.954c9.076-8.215,18.153-16.43,27.211-24.628c5.772,6.658,6.626,19.294-0.232,27.507
		c-14.268,17.086-32.839,26.479-55.329,26.192c-11.542-0.147-17.753-9.475-17.164-24.914c9.26,0,18.669,0,28.078,0
		c-0.03-0.458-0.06-0.915-0.09-1.373c-12.079-2.257-24.364-3.752-36.19-6.946c-18.924-5.111-23.825-13.863-20.307-33.906
		c36.505-2.923,61.849-23.817,81.519-52.869c15.921,6.863,23.498,21.418,20.606,39.193c-2.432,14.949-9.719,27.453-19.913,38.416
		c-3.476,3.738-6.942,7.486-10.412,11.23C1506.855,1000.555,1507.596,1001.255,1508.337,1001.954z"/>
	<path style="fill:#FFFFFF;" d="M746.343,772.239c-7.603-2.822-14.305-5.065-20.773-7.853c-2.028-0.874-4.504-2.965-4.953-4.918
		c-11.181-48.669-10.382-96.407,14.531-141.121c5.665-10.167,14.465-19.451,23.807-26.516c16.88-12.765,35.779-9.934,49.698,5.953
		c13.781,15.729,19.281,34.926,19.995,56.619c-2.367-2.908-4.471-6.087-7.144-8.681c-19.521-18.94-44.317-18.117-62.693,2.153
		c-16.286,17.964-22.491,39.931-24.373,63.448C732.751,732.402,736.987,752.469,746.343,772.239z"/>
	<path style="fill:#FFFFFF;" d="M1510.98,888.408c-1.49,5.945-2.044,12.336-4.626,17.761
		c-13.215,27.769-35.261,44.526-65.581,49.641c-13.708,2.313-20.695-3.427-23.306-17.143c-2.173-11.416-0.488-22.175,6.61-31.465
		c9.527-12.47,21.947-22.322,26.458-38.973c2.894-10.682,23.195-17.135,34.736-14.404c12.468,2.95,23.193,15.307,24.664,28.53
		c0.214,1.926,0.03,3.896,0.03,5.845C1510.303,888.269,1510.641,888.339,1510.98,888.408z"/>
	<path style="fill:#FFFFFF;" d="M528.404,1464.012c-15.033,33.147-12.038,54.949,9.898,74.408
		c-17.268,18.139-51.509,12.911-61.683-9.666c-6.98-15.489-7.456-31.548-1.515-47.462
		C483.36,1459.174,507.251,1451.36,528.404,1464.012z"/>
	<path style="fill:#FFFFFF;" d="M1211.583,595.976c-5.468-10.734-12.546-20.107-14.713-30.504
		c-1.404-6.733,2.109-18.681,7.332-21.857c19.134-11.632,40.091-20.408,62.936-21.768c6.155-0.367,16.338,1.405,17.897,5.074
		c2.204,5.188-0.156,14.137-3.58,19.584C1265.29,572.22,1240.559,586.517,1211.583,595.976z"/>
	<path style="fill:#FFFFFF;" d="M850.245,1024.171c40.821,40.063,80.303,30.348,119.738-1.28c0.302,1.056,0.605,2.112,0.907,3.168
		c-0.336,1.013-0.509,2.12-1.032,3.026c-8.914,15.45-17.638,31.02-27.017,46.184c-1.859,3.005-6.129,6.038-9.525,6.334
		c-30.438,2.654-58.757-2.858-83.442-22.429c-5.451-4.322-7.196-8.267-4.956-14.771
		C847.005,1038.348,848.228,1031.997,850.245,1024.171z"/>
	<path style="fill:#FFFFFF;" d="M460.703,1476.823c-6.038,45.319,1.599,62.835,33.144,77.131
		c-16.372,20.415-50.591,16.94-60.807-6.561c-7.64-17.573-7.418-35.569,1.036-52.917
		C439.418,1483.512,448.532,1477.83,460.703,1476.823z"/>
	<path style="fill:#FFFFFF;" d="M1036.882,652.103c-14.75-2.331-24.263,5.301-31.249,14.441c3.932,7.354,7.896,13.571,10.509,20.311
		c0.895,2.308-0.829,6.549-2.683,8.829c-5.019,6.175-13.329,4.109-22.211-4.997c-14.385,20.72-8.193,63.693,12.892,89.295
		c-0.292,0.474-0.486,1.254-0.907,1.406c-22.151,7.993-18.785,10.926-26.271-11.862c-9.687-29.487-10.783-59.704,2.085-88.566
		c4.722-10.591,12.719-20.428,21.257-28.441C1011.885,641.65,1026.983,642.392,1036.882,652.103z"/>
	<path style="fill:#FFFFFF;" d="M775.039,666.947c12.053,9.715,15.291,20.829,8.428,28.174c-5.444,5.827-10.842,4.398-22.026-5.828
		c-14.402,27.596-6.532,66.209,19.333,93.789c-1.649,5.829-4.717,7.19-10.537,4.281c-8.749-4.373-15.819-10.051-19.393-19.482
		c-13.371-35.286-14.135-70.01,6.827-102.669c4.99-7.774,13.265-14.304,21.425-18.963c10.494-5.992,21.228-2.908,32.282,6.021
		C794.127,648.181,783.331,654.684,775.039,666.947z"/>
	<path style="fill:#FFFFFF;" d="M758.397,492.363c-17.81,21.057-35.301,41.737-53.198,62.896
		c-8.645-9.449-13.506-21.26-12.787-35.164c0.636-12.304,8.557-19.232,18.885-23.797
		C726.661,489.508,742.638,488.946,758.397,492.363z"/>
	<path style="fill:#FFFFFF;" d="M935.38,1088.756c-3.246,16.248-4.844,17.767-19.766,17.446
		c-24.133-0.518-46.912-5.872-67.346-19.384c-12.794-8.459-13.214-9.926-5.932-25.751
		C868.853,1085.371,900.902,1091.265,935.38,1088.756z"/>
	<path style="fill:#FFFFFF;" d="M464.468,1575.262c-10.217,16.595-28.406,18.97-44.021,6.558
		c-11.929-9.481-19.075-32.919-13.993-47.147c1.211-3.392,3.841-6.277,6.535-10.525
		C420.631,1564.239,434.941,1574.992,464.468,1575.262z"/>
	<path style="fill:#FFFFFF;" d="M854.859,809.956c-7.849-3.653-15.25-6.127-21.413-10.391c-2.902-2.008-3.424-7.456-5.025-11.345
		c4.251-1.396,8.804-4.493,12.687-3.806c6.496,1.149,13.005,4.008,18.645,7.53c3.292,2.056,4.907,6.797,7.276,10.331
		C863.217,804.681,859.404,807.087,854.859,809.956z"/>
	<path style="fill:#FFFFFF;" d="M440.552,1195.946c12.185,3.286,24.37,6.572,36.554,9.859c-0.252,1.047-0.504,2.095-0.756,3.142
		c-12.348-2.473-24.695-4.945-37.043-7.417C439.722,1199.668,440.137,1197.807,440.552,1195.946z"/>
	<path style="fill:#FFFFFF;" d="M1046.62,718.486c-2.536,1.642-5.181,4.673-7.575,4.487c-1.934-0.15-5.35-4.621-4.913-6.384
		c0.643-2.601,3.847-5.762,6.476-6.34c2.612-0.574,5.861,1.751,8.83,2.805C1048.499,714.864,1047.56,716.675,1046.62,718.486z"/>
	<path style="fill:#FFFFFF;" d="M818.266,715.485c-3.617,2.871-6.109,6.31-8.111,6.045c-2.185-0.289-5.423-4.013-5.415-6.23
		c0.008-2.15,3.406-5.781,5.587-5.995C812.351,709.107,814.735,712.559,818.266,715.485z"/>
	<path d="M1126.088,564.884c-11.394-22.521-27.614-40.138-48.015-54.414c-25.185-17.623-50.82-18.263-76.892-3.178
		c-11.743,6.795-22.597,15.126-33.405,22.456c1.96-25.67,42.216-53.227,75.416-52.188
		C1081.791,478.768,1125.882,519.359,1126.088,564.884z"/>
	<path d="M806.645,887.381c-23.394-2.806-43.439-11.926-59.644-28.686c-3.378-3.493-6.533-7.275-9.304-11.262
		c-3.466-4.987-5.314-12.156-9.938-14.968c-4.203-2.557-11.188-0.541-17.246-2.135c11.535-3.209,23.071-6.418,34.607-9.627
		c0.216,0.299,0.432,0.597,0.649,0.896c-3.745,2.668-7.49,5.336-11.222,7.995c11.266,34.552,71.408,60.354,109.337,46.364
		c-2.432-3.021-4.718-5.859-7.004-8.698c23.693,11.785,47.816,19.789,74.685,16.187c25.884-3.47,50.692-9.556,73.298-25.686
		c-6.268-4.828-11.222-8.645-16.177-12.462c0.316-0.802,0.632-1.604,0.948-2.406c36.668,18.197,75.143,26.561,115.936,22.299
		c-14.563,7.548-29.678,8.071-72.076,3.179c-4.462,17.325-8.455,34.713-13.46,51.804c-6.738,23.011-17.624,44.063-33.007,62.545
		c-27.866,33.48-71.637,39.726-107.349,14.726c-7.196-5.037-13.644-12.355-17.945-20.02c-5.822-10.375-10.111-21.849-13.424-33.323
		c-2.923-10.124-6.416-18.278-17.128-22.599c-3.177-1.282-5.826-7.413-6.126-11.512
		C804.525,902.725,805.976,895.312,806.645,887.381z M879.116,999.28c10.508-35.783,34.771-56.145,69.2-65.79
		c11.891-3.332,23.702-6.99,35.405-10.929c2.716-0.914,6.195-3.123,7.018-5.526c5.668-16.534,10.725-33.277,16.836-52.677
		c-8.245-0.415-16.877-3.491-20.14-0.569c-16.455,14.729-36.015,22.226-56.778,26.575c-15.426,3.231-31.392,3.883-47.413,5.718
		c-9.966,32.999-4.105,40.564-52.369,36.204C834.13,964.769,853.912,992.677,879.116,999.28z M884.118,1000.801
		c23.693,4.738,44.592,2.718,62.383-13.206c17.802-15.934,29.396-36.073,38.25-57.96c0.121-0.3-0.588-0.936-1.037-1.604
		C942.511,940.385,898.652,949.048,884.118,1000.801z M877.298,894.104c-1.709-0.801-2.552-1.218-3.412-1.596
		c-15.363-6.757-30.415-10.462-47.958-6.177c-9.622,2.35-14.471,4.184-14.285,14.195c0.066,3.545-1.045,7.152-0.694,10.638
		c0.221,2.198,1.623,5.183,3.407,6.174c14.838,8.246,30.435,13.338,47.485,7.897c3.02-0.964,6.668-3.559,7.754-6.301
		C872.776,910.906,874.81,902.424,877.298,894.104z"/>
	<path style="fill:#FFFFFF;" d="M879.116,999.28c-25.203-6.602-44.986-34.511-48.242-66.994
		c48.263,4.359,42.402-3.205,52.369-36.204c16.022-1.835,31.988-2.486,47.413-5.718c20.763-4.35,40.323-11.846,56.778-26.575
		c3.264-2.921,11.895,0.154,20.14,0.569c-6.111,19.399-11.168,36.143-16.836,52.677c-0.824,2.403-4.302,4.612-7.018,5.526
		c-11.703,3.939-23.513,7.597-35.405,10.929C913.887,943.135,889.624,963.497,879.116,999.28z"/>
	<path style="fill:#FFFFFF;" d="M884.118,1000.801c14.534-51.754,58.393-60.416,99.595-72.77c0.449,0.668,1.158,1.304,1.037,1.604
		c-8.854,21.886-20.448,42.026-38.25,57.96C928.711,1003.519,907.811,1005.54,884.118,1000.801z"/>
	<path style="fill:#FFFFFF;" d="M877.298,894.104c-2.488,8.321-4.522,16.802-7.703,24.829c-1.086,2.742-4.734,5.337-7.754,6.301
		c-17.05,5.441-32.647,0.35-47.485-7.897c-1.784-0.992-3.186-3.976-3.407-6.174c-0.351-3.486,0.761-7.092,0.694-10.638
		c-0.187-10.011,4.663-11.845,14.285-14.195c17.543-4.285,32.595-0.58,47.958,6.177
		C874.745,892.885,875.588,893.302,877.298,894.104z"/>
</g>
</svg>
