<?xml version="1.0" encoding="utf-8"?>
<!-- Generator: Adobe Illustrator 27.5.0, SVG Export Plug-In . SVG Version: 6.00 Build 0)  -->
<svg version="1.1" id="Layer_1" xmlns="http://www.w3.org/2000/svg" xmlns:xlink="http://www.w3.org/1999/xlink" x="0px" y="0px"
	 viewBox="0 0 4000 4000" style="enable-background:new 0 0 4000 4000;" xml:space="preserve">
<rect style="fill:#FFFFFF;" width="4000" height="4000"/>
<g>
	<path style="fill:none;stroke:#231F20;stroke-width:6;stroke-linecap:round;stroke-linejoin:round;stroke-miterlimit:10;" d="
		M1545.927,1539.88c0,0-104.736,80.862-33.561,281.776c0.196,0.549,0.353,1.113,0.533,1.669c0.534,1.646,1.086,3.289,1.647,4.927
		c0.915,2.677,1.857,5.345,2.816,8.005c1.316,3.646,2.668,7.281,4.048,10.901c1.733,4.559,3.514,9.1,5.331,13.624
		c2.173,5.411,4.401,10.8,6.678,16.167c2.629,6.201,5.322,12.378,8.076,18.528c3.104,6.938,6.284,13.841,9.534,20.712
		c3.6,7.614,7.284,15.188,11.05,22.721c4.113,8.229,8.322,16.412,12.623,24.547c4.646,8.787,9.399,17.521,14.254,26.196
		c5.198,9.287,10.512,18.513,15.94,27.667c5.769,9.73,11.664,19.383,17.686,28.956c6.358,10.114,12.855,20.139,19.488,30.073
		c6.968,10.438,14.085,20.773,21.348,31.006c7.596,10.702,15.353,21.293,23.265,31.764c0.994,1.313,2.521,2.502,3.08,4.095
		c0.243,0.685,0.231,1.531,0.304,2.254c0.2,1.956,0.416,3.909,0.643,5.864c0.761,6.563,1.646,13.109,2.66,19.641
		c1.293,8.332,2.791,16.643,4.637,24.873c1.797,8.031,3.884,16.039,6.781,23.75c0.697,1.852,1.444,3.686,2.267,5.486
		c0.375,0.822,0.766,1.64,1.177,2.448c0.185,0.362,1.316,1.919,1.22,2.261c-0.002,0.006-35.359,126.588,76.509,218.031
		c0,0,51.354,52.258,131.838,65.771c0,0,77.334,15.615,148.062-29.127c0.304-0.193,3.917,1.246,4.338,1.344
		c6.089,1.412,12.39,2.013,18.606,2.524c13.686,1.122,27.445,1.374,41.174,1.386c13.404,0.012,26.795-0.712,40.192-1.04
		c4.313-0.106,9.319-0.983,13.282,0.766c0.68,0.302,1.392,0.543,2.086,0.81c4.998,1.914,10.047,3.701,15.12,5.414
		c8.405,2.842,16.884,5.475,25.407,7.945c11.573,3.361,23.233,6.416,34.957,9.212c14.498,3.46,29.098,6.521,43.76,9.206
		c17.191,3.149,34.477,5.788,51.824,7.932c19.646,2.428,39.375,4.223,59.141,5.387c21.881,1.291,43.805,1.814,65.721,1.573
		c23.883-0.261,47.759-1.433,71.555-3.507c19.5-1.705,38.798-4.53,58.217-6.908c0,0,193.408-22.229,238.604-154.817
		c0,0,45.047,5.929,85.145-9.308c0,0-33.789,58.185-47.979,112.016c-0.229,0.873-0.444,1.746-0.644,2.627
		c-0.58,2.504-1.082,5.025-1.539,7.553c-0.711,3.951-1.305,7.923-1.801,11.904c-0.648,5.213-1.127,10.445-1.448,15.686
		c-0.381,6.291-0.536,12.594-0.462,18.893c0.081,7.188,0.458,14.372,1.136,21.527c0.751,7.908,1.87,15.785,3.368,23.586
		c1.619,8.461,3.69,16.838,6.213,25.077c2.708,8.843,5.941,17.528,9.689,25.989c1.436,3.234,2.943,6.436,4.527,9.6
		c0.795,1.592,1.607,3.173,2.439,4.743c0.422,0.796,0.846,1.585,1.275,2.374c0.729,1.338,1.526,2.5,2.479,3.673
		c0.789,0.962,1.603,1.904,2.432,2.831c1.165,1.296,2.363,2.559,3.592,3.794c1.555,1.565,3.154,3.087,4.794,4.565
		c1.96,1.773,3.976,3.484,6.035,5.139c2.382,1.914,4.823,3.754,7.318,5.518c2.819,1.991,5.704,3.891,8.644,5.699
		c3.271,2.008,6.61,3.902,10.014,5.687c3.736,1.96,7.547,3.784,11.416,5.478c4.223,1.847,8.517,3.536,12.863,5.073
		c4.727,1.669,9.515,3.161,14.354,4.474c5.246,1.426,10.547,2.648,15.885,3.68c5.783,1.116,11.605,2.006,17.454,2.688
		c6.334,0.737,12.696,1.231,19.065,1.503c6.904,0.291,13.814,0.322,20.722,0.119c7.485-0.22,14.964-0.717,22.415-1.457
		c8.082-0.801,16.135-1.891,24.147-3.229c8.696-1.449,17.34-3.196,25.926-5.196c2.166-0.505,4.321-1.089,6.489-1.562
		c0.039-0.007,290.721-63.231,412.643-263.229c0,0,83.489-112.321,100.309-307.261c-0.004,0.03,0.289,0.207,0.317,0.228
		c0.312,0.233,0.618,0.475,0.917,0.722c0.5,0.41,0.988,0.834,1.465,1.27c0.666,0.601,1.315,1.223,1.951,1.857
		c0.815,0.813,1.605,1.648,2.38,2.498c0.945,1.039,1.86,2.105,2.753,3.191c1.053,1.281,2.074,2.593,3.065,3.928
		c1.146,1.541,2.253,3.113,3.322,4.711c1.22,1.822,2.391,3.676,3.519,5.554c1.271,2.112,2.492,4.259,3.663,6.433
		c1.306,2.428,2.553,4.885,3.745,7.367c1.321,2.758,2.578,5.541,3.771,8.351c1.318,3.1,2.56,6.229,3.74,9.382
		c1.291,3.462,2.506,6.951,3.65,10.463c1.248,3.838,2.414,7.704,3.501,11.59c1.188,4.232,2.284,8.49,3.302,12.768
		c1.102,4.645,2.111,9.311,3.034,13.993c1.001,5.069,1.903,10.162,2.716,15.268c0.881,5.516,1.655,11.048,2.339,16.591
		c0.737,5.977,1.369,11.968,1.903,17.965c0.115,1.285,0.227,2.57,0.33,3.857c0.082,0.988-0.086,2.064,0.996,2.518
		c0.734,0.308,1.512,0.563,2.277,0.791c1.946,0.579,4.037,0.932,6.063,0.631c1.638-0.238,3.165-0.956,4.276-2.197
		c0,0,65.541-275.917-91.822-526.385c0.082,0.131,0.815,0.266,0.957,0.321c1.615,0.609,3.154,1.435,4.65,2.277
		c3.162,1.78,6.188,3.806,9.139,5.909c4.939,3.517,9.684,7.301,14.324,11.194c6.934,5.819,13.635,11.908,20.201,18.134
		c4.229,4.008,8.398,8.075,12.521,12.188c1.14,1.132,2.271,2.267,3.399,3.405c1.019,1.028,2.026,2.383,3.189,3.219
		c1.988,1.427,5.303,1.42,7.431,0.375c6.222-3.052,2.935-13.629,1.443-18.357c0,0-60.14-140.325-187.174-226.368
		c0,0,48.954,10.813,100.31,63.518c1.787,0.528,3.785,0.701,5.633,0.488c2.198-0.252,4.286-1.216,5.418-3.199
		c1.713-2.999,1.277-7.795-0.213-10.77c-0.344-0.686-0.803-1.335-1.205-1.985c-0.66-1.065-1.333-2.123-2.018-3.175
		c-0.931-1.439-1.881-2.869-2.847-4.289c-1.214-1.789-2.448-3.564-3.701-5.328c-1.505-2.114-3.034-4.211-4.584-6.29
		c-1.798-2.415-3.628-4.807-5.483-7.177c-2.104-2.69-4.242-5.353-6.408-7.989c-2.418-2.939-4.869-5.848-7.356-8.726
		c-2.737-3.163-5.515-6.291-8.329-9.384c-3.064-3.364-6.176-6.688-9.325-9.968c-3.398-3.54-6.848-7.032-10.341-10.477
		c-3.742-3.69-7.539-7.327-11.385-10.908c-4.094-3.815-8.242-7.57-12.446-11.266c-4.454-3.915-8.967-7.765-13.536-11.546
		c-4.818-3.992-9.703-7.907-14.643-11.751c-5.2-4.04-10.461-8.002-15.78-11.88c-5.581-4.067-11.229-8.044-16.937-11.933
		c-5.975-4.068-12.016-8.039-18.117-11.911c-6.373-4.043-12.818-7.98-19.32-11.811c-6.781-3.995-13.635-7.876-20.547-11.639
		c-7.199-3.923-14.467-7.716-21.797-11.39c-7.625-3.82-15.316-7.507-23.07-11.063c-8.057-3.696-16.18-7.25-24.365-10.662
		c-8.501-3.546-17.064-6.938-25.686-10.185c-8.951-3.37-17.963-6.578-27.027-9.63c-9.411-3.169-18.877-6.17-28.393-9.003
		c-9.879-2.941-19.809-5.707-29.782-8.298c-10.354-2.688-20.755-5.192-31.195-7.519c-10.838-2.41-21.718-4.63-32.63-6.659
		c-11.328-2.11-22.693-4.018-34.088-5.73c0,0-159.17-479.311-674.526-561.007c-0.237-0.489-0.481-0.976-0.723-1.461
		c-0.649-1.295-1.307-2.583-1.97-3.87c-1.053-2.045-2.121-4.085-3.197-6.116c-1.455-2.74-2.928-5.472-4.412-8.193
		c-1.85-3.381-3.719-6.749-5.611-10.104c-2.236-3.966-4.502-7.917-6.795-11.851c-2.621-4.498-5.273-8.975-7.963-13.431
		c-3.001-4.973-6.039-9.92-9.119-14.844c-3.371-5.394-6.789-10.758-10.254-16.092c-3.742-5.76-7.533-11.483-11.381-17.173
		c-4.102-6.069-8.268-12.098-12.489-18.087c-4.46-6.324-8.987-12.606-13.583-18.836c-4.811-6.527-9.699-13.002-14.66-19.416
		c-5.16-6.676-10.4-13.29-15.722-19.838c-5.505-6.769-11.093-13.464-16.774-20.084c-5.838-6.806-11.775-13.533-17.805-20.17
		c-6.172-6.791-12.446-13.488-18.825-20.086c-6.497-6.723-13.106-13.34-19.827-19.841c-6.82-6.598-13.758-13.077-20.814-19.425
		c-7.14-6.422-14.404-12.708-21.787-18.844c-7.454-6.19-15.037-12.229-22.748-18.098c-7.764-5.907-15.662-11.643-23.69-17.185
		c-8.07-5.57-16.275-10.947-24.618-16.106c-4.182-2.586-8.398-5.121-12.651-7.596c-2.127-1.239-4.266-2.465-6.411-3.676
		c-1.073-0.604-2.149-1.207-3.227-1.807c-0.979-0.541-1.641-1.229-2.82-1.145c-2.174,0.158-4.461,0.749-6.125,2.223
		c-2.9,2.566-2.457,6.746-1.365,10.082c0,0,59.881,63.669,65.586,74.779c-0.278-0.201-0.563-0.396-0.842-0.591
		c-1.268-0.882-2.549-1.744-3.836-2.599c-2.264-1.503-4.544-2.976-6.842-4.428c-3.225-2.038-6.475-4.034-9.748-5.993
		c-4.15-2.487-8.336-4.918-12.549-7.299c-5.045-2.851-10.129-5.629-15.248-8.341c-5.906-3.128-11.857-6.165-17.849-9.12
		c-6.731-3.319-13.513-6.53-20.343-9.638c-7.521-3.425-15.103-6.72-22.734-9.894c-8.281-3.444-16.629-6.739-25.025-9.889
		c-4.434-1.661-8.88-3.28-13.342-4.859c-2.284-0.809-4.576-1.606-6.869-2.393c-2.019-0.695-3.591-0.883-5.612,0.035
		c-2.292,1.037-4.464,2.715-5.297,5.177c-0.536,1.587-0.427,3.297,0.021,4.894c0.284,1.007,0.651,2.128,1.336,2.91
		c0.877,0.999,2.112,1.73,3.208,2.459c3.711,2.467,7.375,5.009,11.003,7.596c5.896,4.203,11.706,8.527,17.438,12.951
		c7.564,5.839,14.997,11.852,22.296,18.022c8.724,7.379,17.258,14.984,25.578,22.814c9.38,8.818,18.49,17.923,27.293,27.316
		c-0.137-0.147-0.342-0.262-0.498-0.385c-0.643-0.487-1.287-0.971-1.933-1.45c-1.114-0.826-2.235-1.641-3.358-2.452
		c-1.576-1.136-3.162-2.258-4.757-3.369c-2.03-1.421-4.073-2.821-6.127-4.211c-2.477-1.673-4.966-3.325-7.468-4.962
		c-2.912-1.899-5.841-3.778-8.784-5.632c-3.337-2.104-6.694-4.178-10.067-6.223c-3.756-2.278-7.529-4.521-11.326-6.73
		c-4.164-2.424-8.349-4.808-12.557-7.154c-4.561-2.544-9.147-5.042-13.758-7.496c-4.952-2.637-9.929-5.22-14.932-7.756
		c-5.329-2.7-10.689-5.344-16.077-7.931c-5.702-2.74-11.433-5.416-17.195-8.027c-6.063-2.75-12.158-5.431-18.285-8.04
		c-6.415-2.733-12.862-5.391-19.345-7.968c-6.76-2.69-13.552-5.296-20.38-7.816c-7.092-2.619-14.222-5.145-21.382-7.579
		c-7.42-2.523-14.876-4.943-22.363-7.263c-7.737-2.398-15.508-4.686-23.31-6.863c-8.045-2.245-16.123-4.372-24.23-6.38
		c-8.345-2.065-16.723-4.004-25.126-5.814c-8.634-1.859-17.3-3.582-25.988-5.167c-4.431-0.808-8.87-1.578-13.311-2.315
		c-2.243-0.371-4.487-0.732-6.734-1.086c-1.77-0.278-4.153-1.058-5.898-0.31c-0.458,0.194-0.906,0.593-1.302,0.889
		c-1.771,1.32-3.575,3.087-4.089,5.316c-0.777,3.365,2.073,6.007,4.624,7.664c0,0,88.97,56.535,120.204,100.683
		c0,0-334.256-148.058-584.121,137.244c0,0,0.074,8.861,15.239,6.982c0,0,44.372-28.905,63.894-36.861c0,0,2.777-1.654,0.3,6.566
		c0,0-151.361,203.055-189.651,471.991c0,0-25.679,160.822,24.325,308.73c0,0,29.507,94.449,111.42,86.49
		c0,0,81.836-1.951,145.804-110.967c0,0,65.021-104.063,88.147-123.883C1590.152,1260.357,1512.817,1398.654,1545.927,1539.88z"/>
	<path style="fill:none;stroke:#231F20;stroke-width:6;stroke-linecap:round;stroke-linejoin:round;stroke-miterlimit:10;" d="
		M1410.629,621.383c0,0,26.282-24.357,53.761-31.792"/>
	<path style="fill:none;stroke:#231F20;stroke-width:6;stroke-linecap:round;stroke-linejoin:round;stroke-miterlimit:10;" d="
		M1914.796,514.063c0,0,21.698,16.516,30.031,24.623"/>
	<path style="fill:none;stroke:#231F20;stroke-width:6;stroke-linecap:round;stroke-linejoin:round;stroke-miterlimit:10;" d="
		M2147.907,537.898c0,0,56.699,53.945,59.402,59.352"/>
	<path style="fill:none;stroke:#231F20;stroke-width:6;stroke-linecap:round;stroke-linejoin:round;stroke-miterlimit:10;" d="
		M2208.511,510.758c0,0,63.816,58.787,70.8,67.346"/>
	<path style="fill:none;stroke:#231F20;stroke-width:6;stroke-linecap:round;stroke-linejoin:round;stroke-miterlimit:10;" d="
		M2442.606,790.506c0,0,32.744-4.252,37.691-3.452"/>
	<path style="fill:none;stroke:#231F20;stroke-width:6;stroke-linecap:round;stroke-linejoin:round;stroke-miterlimit:10;" d="
		M3154.601,1347.405c0,0,18.463,40.663,13.732,57.78"/>
	<path style="fill:none;stroke:#231F20;stroke-width:6;stroke-linecap:round;stroke-linejoin:round;stroke-miterlimit:10;" d="
		M3526.468,1567.895c0,0-47.604-27.787-56.164-29.89"/>
	<path style="fill:none;stroke:#231F20;stroke-width:6;stroke-linecap:round;stroke-linejoin:round;stroke-miterlimit:10;" d="
		M3635.933,1755.287c0,0-45.051-55.262-92.801-72.679"/>
	<path style="fill:none;stroke:#231F20;stroke-width:6;stroke-linecap:round;stroke-linejoin:round;stroke-miterlimit:10;" d="
		M2934.987,2362.385c0,0,127.029-144.757,173.881-369.548c0.25-1.03,0.481-2.064,0.713-3.099c0.646-2.895,1.257-5.798,1.844-8.702
		c0.899-4.454,1.744-8.921,2.535-13.395c1.016-5.715,1.944-11.444,2.792-17.185c0.981-6.676,1.855-13.366,2.601-20.071
		c0.818-7.337,1.486-14.688,1.977-22.054c0.516-7.701,0.836-15.415,0.91-23.133c0.077-7.771-0.092-15.547-0.596-23.305
		c-0.486-7.558-1.291-15.102-2.537-22.574c-0.342-2.047-0.955-3.969-1.542-5.963c-0.91-3.079-1.804-6.163-2.685-9.253
		c-1.266-4.436-2.498-8.876-3.707-13.325c-1.467-5.391-2.892-10.795-4.27-16.208c-1.518-5.951-2.979-11.916-4.365-17.899
		c-1.418-6.113-2.764-12.245-3.996-18.399c-1.179-5.881-2.258-11.781-3.162-17.712c-0.801-5.252-1.475-10.529-1.863-15.831
		c-0.243-3.32-0.379-6.656-0.264-9.986c0,0,22.074-15.316,56.459,34.836c0,0-26.879-109.468-25.977-132.892
		c0,0,7.805-10.961,60.363,53.908c0,0,7.055-69.675-51.204-135.745"/>
	<path style="fill:none;stroke:#231F20;stroke-width:6;stroke-linecap:round;stroke-linejoin:round;stroke-miterlimit:10;" d="
		M3149.712,1749.579c0,0,13.665,30.856,15.691,49.778"/>
	<path style="fill:none;stroke:#231F20;stroke-width:6;stroke-linecap:round;stroke-linejoin:round;stroke-miterlimit:10;" d="
		M3184.099,1670.596c0,0,15.768,37.539,15.768,47.224"/>
	<path style="fill:none;stroke:#231F20;stroke-width:6;stroke-linecap:round;stroke-linejoin:round;stroke-miterlimit:10;" d="
		M1590.152,1260.357c0,0,149.559-203.617,388.01-245.661c0,0,51.508-10.81,18.622-25.378c0,0,57.061-7.956,36.938-31.983
		c0,0,98.955-3.307,47.374-33.037c0,0,26.354,1.654,60.593-7.508c10.415-4.6,32.433,0,32.433,0"/>
	<path style="fill:none;stroke:#231F20;stroke-width:6;stroke-linecap:round;stroke-linejoin:round;stroke-miterlimit:10;" d="
		M1996.784,989.318c0,0-23.725-3.905-27.705-2.477"/>
	<path style="fill:none;stroke:#231F20;stroke-width:6;stroke-linecap:round;stroke-linejoin:round;stroke-miterlimit:10;" d="
		M2033.723,957.336c0,0-27.854-7.36-35.513-6.346"/>
	<path style="fill:none;stroke:#231F20;stroke-width:6;stroke-linecap:round;stroke-linejoin:round;stroke-miterlimit:10;" d="
		M2081.097,924.299c0,0-56.196-21.285-57.1-22.187"/>
	<path style="fill:none;stroke:#231F20;stroke-width:6;stroke-linecap:round;stroke-linejoin:round;stroke-miterlimit:10;" d="
		M1545.927,1539.88c0,0,62.694-57.437,140.927-23.048c0,0,84.765,45.798,170.129,55.483c0,0,54.509,7.882,156.616,7.584
		c0,0,224.644-16.82,416.848,163.372c0,0,88.893,77.784,151.959,206.021c0,0,56.161,118.326,170.584,221.934
		c0,0,89.193,54.961,102.111,112.322c0,0,7.806,38.59-5.258,88.144"/>
	<path style="fill:none;stroke:#231F20;stroke-width:6;stroke-linecap:round;stroke-linejoin:round;stroke-miterlimit:10;" d="
		M2105.505,987.953c0.383-0.075,0.771-0.141,1.165-0.194c1.489-0.202,2.977-0.396,4.466-0.584c2.497-0.313,4.994-0.61,7.492-0.893
		c3.393-0.386,6.792-0.749,10.19-1.09c4.187-0.421,8.372-0.81,12.563-1.17c4.865-0.419,9.732-0.796,14.605-1.133
		c5.437-0.378,10.876-0.705,16.319-0.982c5.899-0.3,11.804-0.539,17.71-0.713c6.255-0.184,12.512-0.295,18.769-0.325
		c6.499-0.034,13.002,0.02,19.5,0.172c6.639,0.157,13.273,0.415,19.904,0.792c6.67,0.379,13.331,0.883,19.979,1.525
		c6.595,0.64,13.175,1.42,19.731,2.375c6.411,0.934,12.802,2.033,19.151,3.34c6.127,1.264,12.219,2.72,18.24,4.424
		c5.746,1.626,11.432,3.479,17.008,5.621c5.273,2.026,10.445,4.314,15.448,6.935c4.703,2.467,9.259,5.234,13.552,8.367
		c4.064,2.963,7.889,6.255,11.338,9.912c3.333,3.532,6.306,7.404,8.791,11.577c2.498,4.196,4.489,8.688,5.916,13.356
		c0.074,0.237,0.158,0.476,0.215,0.716c0.039,0.161,21.963,93.268-107.665,113.072c0,0-142.347,12.915-253.169-58.112
		c0,0-41.559-26.466-21.85-60.365c0.58-0.993,1.136-1.987,1.766-2.951c1.789-2.738,3.805-5.328,5.935-7.804
		c3.39-3.932,7.104-7.578,11.028-10.971c5.328-4.607,11.053-8.746,17.032-12.465c7.624-4.744,15.67-8.805,23.952-12.277
		c4.877-2.042,9.837-3.885,14.858-5.541c2.717-0.896,5.45-1.74,8.199-2.53c1.429-0.411,2.862-0.81,4.298-1.194
		C2103.153,988.521,2104.31,988.19,2105.505,987.953z"/>
	<path style="fill:none;stroke:#231F20;stroke-width:6;stroke-linecap:round;stroke-linejoin:round;stroke-miterlimit:10;" d="
		M2900.296,1366.219c0,0,64.718-27.478,145.057,145.956c0.039,0.078,0.08,0.156,0.121,0.231c0.442,0.836,0.874,1.675,1.301,2.517
		c0.859,1.685,1.7,3.378,2.529,5.077c1.191,2.445,2.357,4.904,3.499,7.373c1.445,3.12,2.854,6.257,4.228,9.407
		c1.615,3.709,3.186,7.437,4.705,11.185c1.708,4.205,3.354,8.437,4.938,12.691c1.719,4.619,3.359,9.267,4.919,13.942
		c1.647,4.944,3.204,9.92,4.649,14.929c1.502,5.183,2.89,10.401,4.141,15.651c1.273,5.339,2.408,10.711,3.376,16.114
		c0.971,5.411,1.771,10.853,2.366,16.317c0.59,5.399,0.977,10.821,1.109,16.252c0.132,5.313,0.019,10.632-0.398,15.931
		c-0.405,5.15-1.1,10.284-2.152,15.344c-1.023,4.927-2.391,9.783-4.155,14.495c-1.739,4.638-3.865,9.134-6.409,13.387
		c-2.558,4.285-5.541,8.321-8.902,12.013c-1.729,1.896-3.554,3.701-5.469,5.408c-2.307,2.061-4.543,4.101-7.561,5.006
		c-1.598,0.48-3.248,0.78-4.904,0.954c-2.439,0.26-4.904,0.246-7.348,0.046c-3.33-0.275-6.629-0.903-9.857-1.763
		c-4.26-1.131-8.404-2.67-12.432-4.458c-5.211-2.314-10.221-5.058-15.066-8.056c-6.172-3.817-12.076-8.055-17.775-12.545
		c-2.985-2.354-5.916-4.778-8.795-7.261c-4.658-4.014-9.434-8.07-13.53-12.647c-0.835-0.93-1.662-1.865-2.489-2.804
		c-1.15-1.305-2.295-2.617-3.433-3.935c-1.436-1.658-2.862-3.322-4.284-4.994c-1.684-1.985-3.36-3.981-5.027-5.985
		c-1.905-2.291-3.797-4.595-5.678-6.906c-2.091-2.572-4.168-5.157-6.229-7.755c-2.248-2.832-4.473-5.678-6.684-8.538
		c-2.368-3.065-4.713-6.146-7.038-9.246c-2.458-3.277-4.888-6.572-7.296-9.889c-2.512-3.465-4.997-6.951-7.45-10.46
		c-2.536-3.629-5.042-7.281-7.511-10.959c-2.529-3.771-5.021-7.567-7.471-11.39c-2.489-3.89-4.939-7.806-7.334-11.753
		c-2.42-3.982-4.789-7.995-7.1-12.041c-2.314-4.055-4.572-8.141-6.766-12.264c-2.179-4.102-4.294-8.24-6.329-12.414
		c-2.016-4.127-3.953-8.292-5.802-12.495c-1.816-4.129-3.547-8.298-5.17-12.507c-1.588-4.109-3.076-8.258-4.445-12.446
		c-1.33-4.069-2.543-8.175-3.617-12.317c-1.041-4.008-1.947-8.048-2.693-12.121
		C2842.634,1486.497,2828.671,1392.499,2900.296,1366.219z"/>
	<path style="fill:none;stroke:#231F20;stroke-width:6;stroke-linecap:round;stroke-linejoin:round;stroke-miterlimit:10;" d="
		M1772.822,1552.931c-0.808-1.425-1.55-2.885-2.275-4.351c-2.035-4.106-3.89-8.302-5.621-12.543
		c-2.675-6.553-5.049-13.229-7.158-19.984c-2.741-8.766-5.031-17.672-6.894-26.665c-2.227-10.762-3.836-21.65-4.822-32.594
		c-1.132-12.551-1.443-25.174-0.942-37.764c0.563-14.15,2.159-28.256,4.741-42.179c2.886-15.566,7.008-30.896,12.229-45.838
		c5.869-16.785,13.128-33.072,21.526-48.741c2.545-4.744,5.195-9.434,7.94-14.065c1.412-2.379,2.847-4.742,4.309-7.09
		c2.557-4.105,5.182-7.967,8.224-11.734c3.018-3.74,6.16-7.381,9.392-10.939c4.609-5.083,9.406-10,14.36-14.748
		c6.104-5.854,12.458-11.45,19.041-16.758c7.513-6.056,15.328-11.735,23.437-16.963c8.84-5.7,18.03-10.863,27.538-15.365
		c10.118-4.792,20.597-8.832,31.349-11.965c11.386-3.318,23.068-5.614,34.872-6.764c12.669-1.234,25.453-1.146,38.104,0.242
		c13.96,1.531,27.727,4.636,41.051,9.05c13.326,4.413,26.207,10.125,38.55,16.801c0,0,127.938,69.824,107.215,254.374
		c0,0-4.506,71.999-67.74,151.832"/>
	<path style="fill:none;stroke:#231F20;stroke-width:6;stroke-linecap:round;stroke-linejoin:round;stroke-miterlimit:10;" d="
		M1818.176,1565.632c0,0-66.453-93.548-8.189-230.192c0,0,91.595-190.855,267.733-89.498c0,0,115.775,68.474,68.625,245.663
		c0,0-15.019,54.808-51.204,92.522"/>
	<path style="fill:none;stroke:#231F20;stroke-width:6;stroke-linecap:round;stroke-linejoin:round;stroke-miterlimit:10;" d="
		M2084.357,1428.241c-2.835,59.956-53.883,106.261-114.027,103.421c-60.146-2.84-106.607-53.749-103.774-113.705
		c2.831-59.958,53.883-106.261,114.022-103.419C2040.722,1317.376,2087.186,1368.281,2084.357,1428.241z"/>
	<path style="fill:none;stroke:#231F20;stroke-width:6;stroke-linecap:round;stroke-linejoin:round;stroke-miterlimit:10;" d="
		M1996.481,1370.819c0,21.693-17.59,39.284-39.283,39.284c-21.696,0-39.287-17.591-39.287-39.284
		c0-21.696,17.591-39.286,39.287-39.286C1978.892,1331.533,1996.481,1349.123,1996.481,1370.819z"/>
	<path style="fill:none;stroke:#231F20;stroke-width:6;stroke-linecap:round;stroke-linejoin:round;stroke-miterlimit:10;" d="
		M2534.468,1866.576c0,0,63.107-225.563,283.84-207.994c0,0,182.152,18.621,167.133,264.283c0,0-32.438,213.828-243.805,237.855"/>
	<path style="fill:none;stroke:#231F20;stroke-width:6;stroke-linecap:round;stroke-linejoin:round;stroke-miterlimit:10;" d="
		M2552.896,1895.46c0,0,36.569-164.803,187.93-188.226c0,0,144.482-24.122,189.652,136.945c0,0,25.228,120.277-46.398,197.31
		c0,0-66.445,85.143-176.729,84.645"/>
	<path style="fill:none;stroke:#231F20;stroke-width:6;stroke-linecap:round;stroke-linejoin:round;stroke-miterlimit:10;" d="
		M2854.499,1909.882c0,60.278-48.862,109.14-109.139,109.14c-60.279,0-109.143-48.861-109.143-109.14
		c0-60.276,48.863-109.14,109.143-109.14C2805.637,1800.742,2854.499,1849.605,2854.499,1909.882z"/>
	<path style="fill:none;stroke:#231F20;stroke-width:6;stroke-linecap:round;stroke-linejoin:round;stroke-miterlimit:10;" d="
		M2835.201,1889.567c0,22.142-17.947,40.094-40.092,40.094c-22.146,0-40.093-17.952-40.093-40.094s17.947-40.09,40.093-40.09
		C2817.254,1849.478,2835.201,1867.426,2835.201,1889.567z"/>
	<path style="fill:none;stroke:#231F20;stroke-width:6;stroke-linecap:round;stroke-linejoin:round;stroke-miterlimit:10;" d="
		M2102.272,1713.313c0,0,169.154-20.045,300.693,166.454c0,0,55.184,73.428,11.713,132.891c0,0-81.535,107.517-264.734,53.758
		c0,0-92.046-35.736-122.229-153.313C2027.715,1913.103,1974.109,1737.866,2102.272,1713.313z"/>
	<path style="fill:none;stroke:#231F20;stroke-width:6;stroke-linecap:round;stroke-linejoin:round;stroke-miterlimit:10;" d="
		M2040.306,1749.558c0,0,77.057,204.989,368.786,269.464"/>
	<path style="fill:none;stroke:#231F20;stroke-width:6;stroke-linecap:round;stroke-linejoin:round;stroke-miterlimit:10;" d="
		M2305.536,1879.258c-13.391,20.988-69.627,9.051-125.604-26.667c-55.982-35.721-90.49-81.695-77.089-102.692
		c13.392-20.989,69.62-9.047,125.599,26.67C2284.416,1812.286,2318.933,1858.267,2305.536,1879.258z"/>
	<path style="fill:none;stroke:#231F20;stroke-width:6;stroke-linecap:round;stroke-linejoin:round;stroke-miterlimit:10;" d="
		M1645.561,1652.274c0,0,47.223-40.769,95.425-21.173"/>
	<path style="fill:none;stroke:#231F20;stroke-width:6;stroke-linecap:round;stroke-linejoin:round;stroke-miterlimit:10;" d="
		M2608.835,2265.379c0,0,40.546,36.038,17.796,92.574"/>
	<path style="fill:none;stroke:#231F20;stroke-width:6;stroke-linecap:round;stroke-linejoin:round;stroke-miterlimit:10;" d="
		M1698.239,1627.195c0.06,0.28,0.119,0.561,0.181,0.84c0.179,0.822,0.364,1.643,0.549,2.462c0.303,1.335,0.612,2.667,0.927,3.997
		c0.429,1.817,0.868,3.631,1.313,5.445c0.56,2.27,1.131,4.539,1.713,6.806c0.691,2.697,1.399,5.391,2.119,8.08
		c0.83,3.093,1.675,6.182,2.536,9.268c0.969,3.461,1.956,6.916,2.965,10.368c1.109,3.8,2.244,7.594,3.399,11.382
		c1.258,4.109,2.54,8.214,3.849,12.308c1.405,4.393,2.84,8.775,4.305,13.149c1.556,4.645,3.146,9.277,4.771,13.899
		c1.711,4.87,3.46,9.725,5.247,14.568c1.87,5.063,3.78,10.113,5.734,15.146c2.03,5.231,4.106,10.445,6.229,15.638
		c2.195,5.37,4.441,10.719,6.737,16.045c2.361,5.479,4.779,10.933,7.253,16.363c2.531,5.56,5.123,11.092,7.777,16.594
		c2.706,5.611,5.475,11.193,8.313,16.739c2.883,5.636,5.836,11.237,8.859,16.798c3.062,5.631,6.2,11.223,9.416,16.768
		c3.243,5.6,6.569,11.152,9.978,16.652c3.434,5.538,6.949,11.022,10.556,16.449c3.622,5.45,7.333,10.838,11.138,16.159
		c3.817,5.333,7.728,10.597,11.738,15.784s8.121,10.298,12.34,15.32c4.212,5.016,8.527,9.942,12.952,14.769
		c4.418,4.815,8.941,9.53,13.579,14.133c4.626,4.59,9.361,9.062,14.213,13.407c4.837,4.333,9.791,8.539,14.857,12.599
		c5.055,4.049,10.228,7.956,15.511,11.7c5.277,3.739,10.67,7.314,16.177,10.712c5.506,3.401,11.125,6.62,16.846,9.644
		c5.744,3.034,11.59,5.865,17.534,8.487c5.981,2.637,12.063,5.052,18.227,7.236c6.229,2.211,12.545,4.184,18.928,5.908
		c6.486,1.755,13.04,3.25,19.643,4.487c6.747,1.266,13.54,2.257,20.366,2.983c7.009,0.741,14.049,1.203,21.097,1.386
		c2.772,0.073,5.548,0.104,8.321,0.093c1.383-0.006,2.763-0.021,4.146-0.046c1.469-0.03,3.674-0.837,4.159,0.921
		c0.034,0.121,0.068,0.244,0.097,0.366c0.078,0.3,0.168,0.597,0.254,0.896c0.231,0.804,0.475,1.605,0.723,2.407
		c0.34,1.069,0.688,2.138,1.054,3.196c0.452,1.321,0.922,2.633,1.409,3.938c0.576,1.554,1.177,3.097,1.799,4.63
		c0.713,1.771,1.458,3.528,2.223,5.277c0.865,1.969,1.76,3.928,2.682,5.871c1.021,2.154,2.079,4.293,3.168,6.415
		c1.195,2.327,2.422,4.632,3.693,6.919c1.373,2.477,2.789,4.934,4.244,7.366c1.566,2.614,3.178,5.204,4.833,7.767
		c1.771,2.738,3.589,5.447,5.454,8.123c1.984,2.844,4.02,5.654,6.105,8.425c2.209,2.938,4.477,5.831,6.794,8.686
		c2.444,3.009,4.949,5.974,7.509,8.889c2.696,3.071,5.449,6.087,8.262,9.051c2.954,3.114,5.973,6.167,9.045,9.163
		c3.227,3.139,6.514,6.216,9.863,9.223c3.505,3.152,7.079,6.231,10.711,9.239c3.801,3.148,7.668,6.217,11.595,9.204
		c4.104,3.128,8.277,6.168,12.511,9.125c4.42,3.09,8.908,6.085,13.453,8.992c4.752,3.034,9.569,5.971,14.438,8.811
		c5.09,2.967,10.244,5.827,15.45,8.584c5.441,2.879,10.944,5.648,16.497,8.308c5.803,2.778,11.662,5.438,17.574,7.983
		c6.178,2.662,12.408,5.195,18.688,7.61c6.561,2.526,13.174,4.921,19.828,7.188c6.96,2.372,13.964,4.613,21.006,6.721
		c7.367,2.204,14.775,4.27,22.218,6.199c7.784,2.02,15.605,3.895,23.459,5.633c8.212,1.82,16.462,3.49,24.732,5.02
		c8.657,1.602,17.339,3.049,26.042,4.356c9.107,1.365,18.238,2.575,27.385,3.643c9.568,1.114,19.155,2.071,28.756,2.88
		c10.043,0.85,20.098,1.535,30.16,2.074c10.527,0.564,21.065,0.964,31.604,1.217c11.021,0.263,22.047,0.361,33.07,0.308
		c11.53-0.053,23.056-0.272,34.576-0.642c4.695-0.152,9.39-0.328,14.081-0.529"/>
	<path style="fill:none;stroke:#231F20;stroke-width:6;stroke-linecap:round;stroke-linejoin:round;stroke-miterlimit:10;" d="
		M1690.264,1629.019c0,0,8.602,164.707,79.477,347.305c0,0,6.31,11.712-4.503,123.729c0,0-27.63,36.941-55.786,129.738"/>
	<path style="fill:none;stroke:#231F20;stroke-width:6;stroke-linecap:round;stroke-linejoin:round;stroke-miterlimit:10;" d="
		M2065.859,2484.467c0,0,111.118-66.072,127.587-275.444"/>
	<path style="fill:none;stroke:#231F20;stroke-width:6;stroke-linecap:round;stroke-linejoin:round;stroke-miterlimit:10;" d="
		M1765.237,2100.053c0,0,66.97-89.794,128.487-103.302"/>
	<path style="fill:none;stroke:#231F20;stroke-width:6;stroke-linecap:round;stroke-linejoin:round;stroke-miterlimit:10;" d="
		M2143.45,2392.705c0,0,71.066-68.016,155.156-50.295c0,0,184.994,24.777,334.009-30.744"/>
	<path style="fill:none;stroke:#231F20;stroke-width:6;stroke-linecap:round;stroke-linejoin:round;stroke-miterlimit:10;" d="
		M1750.694,2124.664c0,0,70.098-37.225,115.748,17.434c0,0,32.888,37.539,32.436,186.797c0,0,178.391-113.068,212.04,113.043"/>
	<path style="fill:none;stroke:#231F20;stroke-width:6;stroke-linecap:round;stroke-linejoin:round;stroke-miterlimit:10;" d="
		M2578.077,2530.891c0,0,29.857,95.998,33.461,109.738c0,0,4.509,15.169,26.725,32.438c1.697,1.318,3.42,2.605,5.156,3.867
		c4.715,3.432,9.533,6.725,14.42,9.902c7.167,4.667,14.489,9.095,21.955,13.262c9.039,5.05,18.289,9.728,27.75,13.938
		c10.353,4.607,20.963,8.659,31.816,11.934c1.276,0.385,2.556,0.76,3.84,1.122c2.955,0.835,5.744,2.015,8.582,3.218
		c3.193,1.354,6.363,2.754,9.521,4.189c4.329,1.965,8.631,3.998,12.899,6.09c5.221,2.556,10.395,5.198,15.525,7.931
		c5.857,3.122,11.656,6.357,17.387,9.712c6.256,3.664,12.424,7.469,18.492,11.432c6.404,4.18,12.696,8.535,18.842,13.086
		c6.313,4.676,12.474,9.558,18.43,14.682c5.984,5.147,11.767,10.541,17.257,16.215c5.428,5.607,10.578,11.49,15.327,17.685
		c4.649,6.06,8.918,12.423,12.64,19.093c3.648,6.529,6.771,13.363,9.192,20.442c1.805,5.274,3.216,10.687,4.176,16.179
		c0,0,77.482,106.088,17.342,68.697c0,0,27.706,109.242,169.156,208.799c0,0,239.053,59.91,168.182,187.246
		c0,0-0.602,92.5-128.99,84.844c0,0-20.496,53.605-170.056,59.911c-0.171,0.014-0.343,0.026-0.512,0.036
		c-6,0.379-12.063,0.238-18.046-0.311c-4.521-0.416-9.031-1.096-13.432-2.235c-4.014-1.042-8.941-2.382-12.135-5.163
		c-0.707-0.615-1.413-1.227-2.121-1.834c-1.318-1.127-2.645-2.248-3.971-3.363c-4.8-4.036-9.662-8.004-14.585-11.889
		c-6.156-4.864-12.409-9.609-18.81-14.15c-6.27-4.45-12.679-8.74-19.383-12.518c-5.338-3.01-11.613-6.678-17.866-7.09
		c-1.948-0.129-3.896-0.252-5.849-0.365c-3.053-0.182-6.109-0.348-9.165-0.498c-3.8-0.191-7.597-0.357-11.397-0.498
		c-4.175-0.154-8.354-0.275-12.53-0.354c-4.194-0.077-8.39-0.114-12.583-0.077c-3.848,0.032-7.698,0.122-11.539,0.334
		c-1.68,0.091-3.361,0.208-5.037,0.365c-1.818,0.166-3.629,0.465-5.45,0.484c-0.575,0.006-1.151,0.004-1.726,0
		c-0.768-0.008-1.537-0.021-2.308-0.042c-0.948-0.028-1.899-0.065-2.849-0.114c-1.114-0.054-2.232-0.119-3.35-0.199
		c-1.27-0.092-2.537-0.198-3.804-0.319c-1.411-0.135-2.815-0.286-4.222-0.458c-1.533-0.188-3.064-0.394-4.592-0.623
		c-1.647-0.247-3.289-0.516-4.928-0.813c-1.742-0.313-3.48-0.655-5.214-1.021c-1.825-0.391-3.646-0.811-5.458-1.264
		c-1.898-0.471-3.789-0.978-5.666-1.52c-1.955-0.566-3.897-1.168-5.83-1.809c-1.994-0.663-3.977-1.369-5.945-2.117
		c-2.026-0.771-4.037-1.586-6.025-2.449c-2.045-0.888-4.068-1.822-6.063-2.808c-2.048-1.011-4.067-2.075-6.06-3.192
		c-2.033-1.142-4.039-2.341-6.007-3.594c-2.012-1.284-3.985-2.627-5.919-4.029c-1.975-1.432-3.903-2.927-5.783-4.482
		c-1.926-1.59-3.799-3.244-5.613-4.959c-1.86-1.758-3.661-3.582-5.395-5.463c-1.783-1.936-3.496-3.934-5.137-5.99
		c-1.689-2.121-3.305-4.305-4.836-6.543c-1.587-2.315-3.083-4.691-4.493-7.118c-1.464-2.521-2.833-5.096-4.107-7.718
		c-1.329-2.734-2.555-5.518-3.679-8.34c-1.182-2.957-2.25-5.956-3.213-8.992c-1.014-3.188-1.909-6.411-2.699-9.662
		c-0.833-3.426-1.546-6.883-2.146-10.357c-0.638-3.674-1.151-7.371-1.552-11.08c-0.426-3.932-0.725-7.876-0.913-11.824
		c-0.198-4.193-0.272-8.395-0.233-12.594c0.043-4.463,0.209-8.93,0.489-13.387c0.296-4.744,0.721-9.48,1.253-14.203
		c0.566-5.034,1.26-10.049,2.06-15.049c0,0-64.647,14.865-126.587-31.76c0,0-4.131,4.428-3.904,12.914
		c0,0-72.373-13.584-128.535-145.125c0,0-45.049-165.33-218.034-238.76c0,0-156.465,191.309-579.318,158.273
		c0,0,0.226,24.398-7.433,40.841c0,0-8.784,9.122-14.415-3.38c0,0-4.579-39.862-7.281-41.068c0,0-4.544-0.602-4.882,3.68
		c0,0-15.993,109.691-111.494,203.843c0,0,160.522,95.806,118.477,260.376c0,0-14.112,87.695-164.2,61.943
		c0,0,3.828,60.29-207.295,65.392c0,0-113.972,7.361-159.621-45.122c0,0-217.582,9.686-212.627-144.828
		c0,0,7.96-147.603,156.316-213.075c0,0-63.067-91.297-54.058-227.042c0,0-11.938,25.674-27.028,19.143
		c-12.614-15.542,15.618-130.564,25.227-145.882c0,0-29.057-21.921-39.867-42.646c0,0-55.032,86.197-165.552,117.13
		c-0.074,4.119-0.09,8.243-0.038,12.364c0.036,2.851,0.084,5.711,0.304,8.555c0.083,1.078,0.016,2.54,0.672,3.446
		c0.889,1.22,2.787,1.454,4.081,1.996c1.795,0.749,3.555,1.587,5.277,2.489c5.451,2.857,10.551,6.398,15.155,10.48
		c6.229,5.521,11.53,12.063,15.663,19.29c5.326,9.308,8.652,19.647,10.293,30.222c2.227,14.344,1.455,29.031-0.954,43.295
		c0,0-3.002,139.052-154.363,104.516c0,0-39.642,58.26-153.462,26.131c0,0-103.912,55.703-170.134-36.195
		c-44.598-77.033-30.182-232.6-30.182-232.6c0.27-2.209,0.537-4.418,0.807-6.627c1.526-12.571,3.045-25.143,4.558-37.715
		c2.297-19.094,4.581-38.187,6.844-57.283c2.404-20.291,4.787-40.59,7.118-60.891c1.857-16.177,3.704-32.355,5.388-48.553
		c1.228-11.826,2.077-23.521,4.065-35.232c1.778-10.484,3.879-20.916,6.243-31.283c3.243-14.223,6.994-28.33,11.287-42.271
		c5.011-16.273,10.76-32.329,17.408-48.008c7.078-16.701,15.179-32.994,24.601-48.496c9.485-15.607,20.331-30.443,32.875-43.738
		c12.403-13.145,26.502-24.754,42.221-33.727c16.267-9.282,34.135-15.575,52.643-18.463c21.287-3.323,43.064-2.171,64.141,2.044
		c0,0,46.85-250.468,241.458-373.897c0,0-100.006-72.078-102.407-290.71c0,0,5.216-7.734,13.212-0.863
		c0,0,7.207,8.522,22.225,39.754c0,0,3.564,2.591,3.114-13.628c0,0-24.438-174.223,110.706-383.246c0,0,9.763-6.081,11.862,3.381
		c0,0-1.951,75.904-0.15,79.811c0,0,122.531-235.15,354.979-249.566c0,0,10.586-0.753,1.352,16.591
		c0,0-108.865,126.36-154.516,311.958c0,0,2.026,3.098,6.308-0.619c0,0,22.823-45.178,40.992-27.312
		c0,0-113.971,268.487-34.688,425.249c0,0,268.488-16.663,539.529,61.738"/>
	<path style="fill:none;stroke:#231F20;stroke-width:6;stroke-linecap:round;stroke-linejoin:round;stroke-miterlimit:10;" d="
		M782.589,2027.977c0,0,114.422-73.88,272.989-89.201"/>
	<path style="fill:none;stroke:#231F20;stroke-width:6;stroke-linecap:round;stroke-linejoin:round;stroke-miterlimit:10;" d="
		M715.618,1776.157c0,0,16.818,46.247,20.423,49.253"/>
	<path style="fill:none;stroke:#231F20;stroke-width:6;stroke-linecap:round;stroke-linejoin:round;stroke-miterlimit:10;" d="
		M1042.966,1541.457c0,0-20.12,49.853-20.12,67.272"/>
	<path style="fill:none;stroke:#231F20;stroke-width:6;stroke-linecap:round;stroke-linejoin:round;stroke-miterlimit:10;" d="
		M841.15,1462.475c0,0-4.054,31.529-3.751,38.139"/>
	<path style="fill:none;stroke:#231F20;stroke-width:6;stroke-linecap:round;stroke-linejoin:round;stroke-miterlimit:10;" d="
		M2173.672,2850.551c0,0,57.063-59.158,88.597-128.233c0,0-6.459,58.267,12.762,51.206c0,0,49.705-39.791,69.824-123.883
		c0,0,6.307,22.07,20.721,4.502c14.418-17.568,26.431-100.607,21.675-120.912"/>
	<path style="fill:none;stroke:#231F20;stroke-width:6;stroke-linecap:round;stroke-linejoin:round;stroke-miterlimit:10;" d="
		M2344.854,2649.641c0,0,11.711-82.44-8.512-122.414"/>
	<path style="fill:none;stroke:#231F20;stroke-width:6;stroke-linecap:round;stroke-linejoin:round;stroke-miterlimit:10;" d="
		M2262.269,2722.317c0,0,11.186-43.623,11.186-48.805"/>
	<path style="fill:none;stroke:#231F20;stroke-width:6;stroke-linecap:round;stroke-linejoin:round;stroke-miterlimit:10;" d="
		M1594.354,3008.824c0.141-1.004,0.272-2.011,0.402-3.014c0.368-2.848,0.71-5.703,1.037-8.555c0.508-4.447,0.979-8.903,1.416-13.357
		c0.57-5.803,1.086-11.614,1.546-17.427c0.549-6.919,1.023-13.839,1.421-20.769c0.445-7.785,0.795-15.574,1.041-23.368
		c0.264-8.41,0.405-16.825,0.408-25.241c0.003-8.793-0.146-17.586-0.477-26.375c-0.335-8.936-0.857-17.863-1.614-26.776
		c-0.75-8.837-1.73-17.661-3.008-26.443c-1.239-8.513-2.757-16.987-4.653-25.377c-1.8-7.96-3.938-15.849-6.553-23.581
		c-0.737-2.181-1.514-4.351-2.333-6.502c-0.395-1.04-0.801-2.082-1.216-3.111c-0.997-2.472-2.647-4.361-4.233-6.443
		c-2.313-3.04-4.238-6.381-5.718-9.898c-1.826-4.34-2.957-8.965-3.292-13.664c0,0-15.168-109.918,82.136-201.815
		c0,0,80.037,3.607,123.332-89.699"/>
	<path style="fill:none;stroke:#231F20;stroke-width:6;stroke-linecap:round;stroke-linejoin:round;stroke-miterlimit:10;" d="
		M1563.361,3005.328c0,0,0.359-57.473-4.37-64.68"/>
	<path style="fill:none;stroke:#231F20;stroke-width:6;stroke-linecap:round;stroke-linejoin:round;stroke-miterlimit:10;" d="
		M1570.819,2739.971c0,0-32.026-75.016-49.444-77.719"/>
	<path style="fill:none;stroke:#231F20;stroke-width:6;stroke-linecap:round;stroke-linejoin:round;stroke-miterlimit:10;" d="
		M1650.664,2527.106c0,0,18.473-32.135,61.117-53.456"/>
	<path style="fill:none;stroke:#231F20;stroke-width:6;stroke-linecap:round;stroke-linejoin:round;stroke-miterlimit:10;" d="
		M1725.93,2373.4c0,0-40.427,24.869-44.932,24.418c0,0-2.854,12.768,10.512,14.416c0,0,24.925,5.256,54.434-6.022"/>
	<path style="fill:none;stroke:#231F20;stroke-width:6;stroke-linecap:round;stroke-linejoin:round;stroke-miterlimit:10;" d="
		M3107.968,3164.539c0,0,177.791,101.959,167.998,190.239"/>
	<path style="fill:none;stroke:#231F20;stroke-width:6;stroke-linecap:round;stroke-linejoin:round;stroke-miterlimit:10;" d="
		M3147.159,3436.629c0,0,65.322-139.5-153.311-251.217c0,0-8.018-4.148-8.748-8.035"/>
	<path style="fill:none;stroke:#231F20;stroke-width:6;stroke-linecap:round;stroke-linejoin:round;stroke-miterlimit:10;" d="
		M2854.799,2821.12c0,0,59.76,54.356,66.671,65.923"/>
	<path style="fill:none;stroke:#231F20;stroke-width:6;stroke-linecap:round;stroke-linejoin:round;stroke-miterlimit:10;" d="
		M2938.812,2955.74c0,0-23.049-29.355-26.2-34.463"/>
	<path style="fill:none;stroke:#231F20;stroke-width:6;stroke-linecap:round;stroke-linejoin:round;stroke-miterlimit:10;" d="
		M2524.146,3221.521c0,0-18.621-9.688-25.227-32.811"/>
	<path style="fill:none;stroke:#231F20;stroke-width:6;stroke-linecap:round;stroke-linejoin:round;stroke-miterlimit:10;" d="
		M2650.732,3253.281c0,0,15.991-16.33,15.991-19.708"/>
	<path style="fill:none;stroke:#231F20;stroke-width:6;stroke-linecap:round;stroke-linejoin:round;stroke-miterlimit:10;" d="
		M2613.826,2645.764c0,0-34.12-32.766-47.034-61.896"/>
	<path style="fill:none;stroke:#231F20;stroke-width:6;stroke-linecap:round;stroke-linejoin:round;stroke-miterlimit:10;" d="
		M1044.77,2373.042c0,0,40.992,81.989,3.151,211.277c-0.061,0.224-0.124,0.446-0.189,0.671c-0.578,1.976-1.275,3.917-2,5.842
		c-1.471,3.906-3.126,7.743-4.884,11.525c-2.654,5.715-5.559,11.313-8.631,16.813c-4.133,7.398-8.576,14.623-13.241,21.697
		c-5.908,8.957-12.177,17.677-18.715,26.186c-7.224,9.402-15.392,18.19-21.892,28.07c-2.702,4.108-5.339,8.258-7.926,12.438
		c-3.575,5.781-7.047,11.625-10.413,17.529c-3.986,6.994-7.822,14.07-11.474,21.244c-3.944,7.746-7.674,15.601-11.105,23.586
		c-3.458,8.041-6.62,16.218-9.31,24.548c-2.55,7.899-4.69,15.95-6.083,24.14c-1.252,7.364-1.916,14.881-1.427,22.35"/>
	<path style="fill:none;stroke:#231F20;stroke-width:6;stroke-linecap:round;stroke-linejoin:round;stroke-miterlimit:10;" d="
		M924.039,2843.644c0,0,25.227-59.536,47.977-65.618"/>
	<path style="fill:none;stroke:#231F20;stroke-width:6;stroke-linecap:round;stroke-linejoin:round;stroke-miterlimit:10;" d="
		M925.841,2970.383c0,0,5.856-31.236,18.92-31.087"/>
	<path style="fill:none;stroke:#231F20;stroke-width:6;stroke-linecap:round;stroke-linejoin:round;stroke-miterlimit:10;" d="
		M884.172,2800.998c0,0,238.979-272.99,63.855-454.983"/>
	<path style="fill:none;stroke:#231F20;stroke-width:6;stroke-linecap:round;stroke-linejoin:round;stroke-miterlimit:10;" d="
		M718.62,2918.128c0,0-108.115,28.378-196.859-123.437"/>
	<path style="fill:none;stroke:#231F20;stroke-width:6;stroke-linecap:round;stroke-linejoin:round;stroke-miterlimit:10;" d="
		M541.131,2401.874c0,0-36.337,161.876-29.13,254.973"/>
	<path style="fill:none;stroke:#231F20;stroke-width:6;stroke-linecap:round;stroke-linejoin:round;stroke-miterlimit:10;" d="
		M979.898,3197.425c0,0,77.934-28.984,106.764-26.13"/>
	<path style="fill:none;stroke:#231F20;stroke-width:6;stroke-linecap:round;stroke-linejoin:round;stroke-miterlimit:10;" d="
		M1448.849,3212.739c0,0-49.777-29.956-59.463-29.956"/>
	<path style="fill:none;stroke:#231F20;stroke-width:6;stroke-linecap:round;stroke-linejoin:round;stroke-miterlimit:10;" d="
		M1036.209,3555.328c0,0-61.716-112.242,25.379-208.347"/>
	<path style="fill:none;stroke:#231F20;stroke-width:6;stroke-linecap:round;stroke-linejoin:round;stroke-miterlimit:10;" d="
		M1403.125,3535.059c0,0,31.46-57.141-64.043-192.881"/>
	<path style="fill:none;stroke:#231F20;stroke-width:6;stroke-linecap:round;stroke-linejoin:round;stroke-miterlimit:10;" d="
		M461.248,3180.912c0.034-0.025,0.068-0.048,0.102-0.072c0.625-0.432,1.225-0.902,1.814-1.377c1.267-1.025,2.481-2.111,3.656-3.238
		c1.73-1.655,3.374-3.403,4.941-5.219c2.017-2.336,3.906-4.781,5.666-7.319c2.131-3.064,4.075-6.257,5.837-9.544
		c2.061-3.846,3.874-7.824,5.447-11.893c1.81-4.684,3.304-9.488,4.503-14.362c1.369-5.576,2.353-11.247,2.997-16.954
		c0.734-6.529,1.022-13.1,0.935-19.668c-0.102-7.525-0.693-15.042-1.685-22.502c-0.547-4.136-1.218-8.256-1.998-12.355
		c-0.41-2.159-0.85-4.311-1.319-6.457c-0.433-1.987-0.742-4.124-1.548-5.996c-0.483-1.127-1.004-2.236-1.536-3.34
		c-0.87-1.805-1.784-3.588-2.736-5.352c-1.258-2.332-2.581-4.633-3.962-6.894c-1.652-2.708-3.391-5.367-5.212-7.965
		c-2.055-2.932-4.216-5.79-6.486-8.562c-2.466-3.01-5.061-5.912-7.788-8.687c-2.89-2.938-5.928-5.732-9.116-8.343
		c-3.327-2.724-6.819-5.25-10.468-7.524c-3.788-2.366-7.747-4.462-11.846-6.24c-4.282-1.854-8.717-3.356-13.249-4.473
		c-4.814-1.187-9.732-1.935-14.679-2.243c-5.377-0.341-10.781-0.165-16.132,0.456c-5.962,0.696-11.853,1.95-17.613,3.636
		c-6.551,1.922-12.931,4.402-19.118,7.283c-7.132,3.325-14.009,7.18-20.647,11.401"/>
	<path style="fill:none;stroke:#231F20;stroke-width:6;stroke-linecap:round;stroke-linejoin:round;stroke-miterlimit:10;" d="
		M614.737,3154.751c0.753-0.839,1.45-1.729,2.13-2.626c1.685-2.23,3.232-4.565,4.685-6.949c2.238-3.67,4.246-7.481,6.063-11.378
		c2.41-5.167,4.483-10.494,6.256-15.915c2.202-6.73,3.942-13.607,5.271-20.563c1.6-8.355,2.607-16.824,3.104-25.318
		c0.589-10.053,0.467-20.145-0.244-30.186c-0.401-5.667-0.989-11.321-1.745-16.953c-0.403-2.99-0.853-5.972-1.345-8.946
		c-0.457-2.755-0.572-6.034-1.701-8.561c-0.536-1.204-1.068-2.394-1.699-3.554c-1.048-1.93-2.243-3.781-3.543-5.549
		c-1.758-2.395-3.714-4.641-5.82-6.734c-2.63-2.61-5.497-4.979-8.531-7.1c-3.677-2.57-7.602-4.78-11.676-6.655
		c-4.906-2.257-10.028-4.028-15.251-5.393c-6.311-1.649-12.769-2.708-19.259-3.318c-7.876-0.739-15.805-0.819-23.702-0.43
		c-9.582,0.474-19.125,1.638-28.575,3.275c-11.425,1.979-22.725,4.652-33.882,7.795"/>
	<path style="fill:none;stroke:#231F20;stroke-width:6;stroke-linecap:round;stroke-linejoin:round;stroke-miterlimit:10;" d="
		M1008.405,2550.861c0,0,22.397,22.42,40.24,30.962"/>
	<path style="fill:none;stroke:#231F20;stroke-width:6;stroke-linecap:round;stroke-linejoin:round;stroke-miterlimit:10;" d="
		M1982.568,2050.878c0,0,22.624,80.409-72.276,244.983c0,0,102.107-139.346,195.795-179.942"/>
</g>

    <text x="10" y="832" font-size="12" fill="gray" opacity="0.6" font-family="Arial, sans-serif">
      twoja-kolorowanka.pl
    </text>
  
</svg>
