<?xml version="1.0" encoding="utf-8"?>
<!-- Generator: Adobe Illustrator 27.5.0, SVG Export Plug-In . SVG Version: 6.00 Build 0)  -->
<svg xmlns="http://www.w3.org/2000/svg" xmlns:xlink="http://www.w3.org/1999/xlink" viewBox="0 0 2999 3999" width="595" height="842" preserveAspectRatio="xMidYMid meet" data-scaled="true">
<g>
	<path style="fill:#FEFEFE;" d="M0,0h3000.002v3995.599c-1.318,0.762-2.783,1.729-4.277,2.227
		c-13.682,4.6-131.74,1.201-154.181,1.201l-467.57,0.029l-2326.441-0.029c-12.962,0-36.429,2.93-47.534-3.428V0z"/>
	<path style="fill:#020202;" d="M1635.37,818.869c7.254-0.958,14.956-0.849,22.292-0.855c27.785-0.015,67.275,6.322,87.498,27.518
		c5.693,5.965,10.143,12.935,11.722,21.123c4.383,22.72,1.067,49.863,0.709,73.063l-0.897,113.719
		c-12.94,18.114-23.962,33.12-30.158,54.847c39.548,7.008,79.113,13.796,116.965,27.686c22.289,8.18,43.219,20.93,66.173,27.076
		c68.083,18.232,136.878,34.922,205.184,52.474c32.851,8.44,69.847,14.789,100.978,28.142c10.699,4.591,21.287,10.198,28.453,19.644
		c14.531,19.151,23.159,46.843,32.648,68.83c23.506,53.709,45.978,107.847,67.415,162.413
		c47.057,14.722,242.531,55.825,266.663,76.693c24.047,20.795,54.715,72.258,73.222,99.943
		c49.251,12.565,122.628,22.538,157.697,61.348c51.094,56.549,64.078,174.504,59.232,247.94
		c-1.482,22.471-7.515,41.596-24.621,56.777l0.386,2.968c10.187,83.265-12.237,179.816-51.589,253.319
		c-9.495,17.736-26.101,32.648-34.013,50.935c-6.516,15.059-10.114,32.271-15.223,47.921c-3.043,9.146-6.478,18.144-10.304,26.991
		c-3.824,8.845-8.026,17.51-12.606,25.992s-9.52,16.749-14.818,24.8c-5.301,8.052-10.94,15.859-16.919,23.42
		c-12.829,15.97-28.172,31.585-45.451,42.774c-23.156,14.991-48.487,27.615-72.489,41.268l-119.13,69.19l-362.479,212.326
		l-349.401,203.25c-45.363,26.162-90.199,53.965-136.403,78.545c-16.529,8.819-36.19,19.483-54.94,21.27
		c-18.044,1.699-36.448,2.256-54.246-1.699c-22.576-5.039-237.659-79.102-248.54-88.155c-9.425,1.611-139.468-46.494-154.887-53.086
		c-10.037-4.307-19.787-9.639-29.054-15.381c-67.825-42.129-91.846-104.335-109.462-178.664
		c-56.552-19.482-114.56-36.02-171.674-53.874c-29.036,28.084-62.024,50.572-101.698,60.437c-23.162,5.76-44.379,6.319-67.77,1.916
		c-46.978-8.848-106.632-33.779-154.163-49.459c-55.143-18.187-111.926-33.22-166.304-53.3c-9.606-3.548-18.823-7.767-27.53-13.181
		c-80.711-50.18-111.187-139.573-131.4-226.925c-15.793-6.035-36.308-11.73-48.851-23.338
		c-20.108-18.606-22.161-52.078-22.523-77.511c-1.068-75.073,25.022-157.673,69.982-217.834
		c18.439-24.674,41.3-47.168,62.739-69.249c-10.03-0.354-19.598-0.949-28.678-5.596c-26.496-13.559-43.426-45.527-52.103-72.706
		c-9.836-30.809-14.317-73.286,1.303-103.04c14.759-28.113,57.189-40.137,85.725-48.984c13.646-4.231,23.884-1.787,36.079,4.679
		c154.094-55.857,309.678-107.646,463.293-164.877c46.849-17.455,95.953-31.977,141.651-52.057
		c19.181-33.747,35.209-69.548,52.099-104.496l63.961-129.495c6.305-12.683,12.217-27.015,23.988-35.476
		c35.309-25.368,115.31-49.948,159.697-67.617c59.35-23.625,118.679-50.669,179.197-70.986c3.293-17.877,4.673-35.938,10.822-53.188
		c20.833-58.427,110.713-82.263,166.485-87.894c18.117-1.831,55.483-0.36,70.641-7.494l0.589-3.589
		c-8.247-17.291-32.136-22.442-44.332-37.966l-1.395-1.799c-2.224-30.979-0.284-63.472-0.255-94.588
		c0.026-29.754-2.124-61.351,0.773-90.911c0.794-8.098,2.276-19.816,7.222-26.417C1578.728,826.829,1610.509,821.79,1635.37,818.869
		z"/>
	<path style="fill:#FEFEFE;" d="M2650.757,2073.459l2.786,1.327c-1.447,9.067-4.623,17.868-7.327,26.628l-18.656-7.573l-8.027-1.509
		C2622.872,2084.668,2643.216,2077.194,2650.757,2073.459z"/>
	<path style="fill:#FEFEFE;" d="M1756.926,2885.513c13.983,14.912,26.197,31.219,40.515,46.022
		c-15.378-3.542-29.168-15.636-41.76-24.741L1756.926,2885.513z"/>
	<path style="fill:#FEFEFE;" d="M1950.163,2464.036l2.338,0.557c0.094,10.684-13.037,32.766-17.821,43.184
		c-8.021-2.822-15.686-4.878-24.053-6.404l-16.301-0.958C1897.346,2492.999,1940.902,2469.274,1950.163,2464.036z"/>
	<path style="fill:#FEFEFE;" d="M1695.23,2609.021l1.02,0.803c-9.979,17.605-21.024,34.614-30.961,52.316
		c-14.177-3.715-28.099-5.83-42.7-6.891l-3.647,0.094l-1.605-1.559C1632.813,2639.361,1674.725,2620.306,1695.23,2609.021z"/>
	<path style="fill:#FEFEFE;" d="M215.109,1909.039c4.387,1.342,8.405,2.991,12.315,5.394c23.383,14.37,35.337,39.747,41.086,65.748
		c6.535,29.558,4.348,55.263-11.912,80.959l-3.367,1.781l-2.336-1.295c3.739-13.934,9.579-29.704,9.431-44.212
		c-0.028-2.508-0.116-5.014-0.265-7.517c-0.148-2.504-0.357-5.002-0.625-7.494c-0.269-2.494-0.597-4.981-0.985-7.459
		c-0.388-2.476-0.835-4.943-1.341-7.4c-0.506-2.457-1.071-4.9-1.695-7.33c-0.624-2.428-1.305-4.84-2.044-7.236
		c-0.739-2.396-1.536-4.775-2.389-7.134c-0.854-2.358-1.763-4.694-2.729-7.011c-0.966-2.314-1.987-4.605-3.062-6.87
		c-1.076-2.266-2.205-4.504-3.388-6.715c-1.183-2.211-2.419-4.393-3.707-6.545c-1.288-2.152-2.627-4.272-4.017-6.36
		c-1.39-2.088-2.829-4.142-4.317-6.161c-1.488-2.02-3.024-4.002-4.607-5.947c-1.584-1.946-3.213-3.851-4.888-5.716
		C218.59,1912.65,216.872,1910.824,215.109,1909.039z"/>
	<path style="fill:#FEFEFE;" d="M2212.598,2317.728l1.031,0.867c0.779,6.823-20.49,45.454-24.894,54.855
		c-20.525-7.89-37.474-9.718-59.382-8.127c-2.092,0.756-4.808,0.431-6.996,0.44
		C2152.677,2350.18,2182.094,2333.038,2212.598,2317.728z"/>
	<path style="fill:#BFBFBE;" d="M2290.438,1819.932c16.198,7.652,31.816,13.632,49.755,15.776
		c28.573,3.413,49.582,2.821,72.536-15.12c2.745,3.92,1.131,11.997,0.952,16.893c-0.885,1.708-1.729,3.448-3.091,4.846
		c-8.449,8.669-31.881,11.531-43.409,12.407c-21.478,1.635-56.484-0.12-72.838-16.591
		C2289.512,1833.277,2290.651,1826.29,2290.438,1819.932z"/>
	<path style="fill:#FEFEFE;" d="M221.047,2558.197c52.104,11.686,103.278,32.569,154.214,48.568
		c17.862,5.613,66.126,16.661,78.454,24.475c3.817,2.417,3.724,7.175,4.67,11.303c-55.096-16.646-109.6-35.098-164.408-52.623
		c-16.497-5.274-57.341-14.921-69.116-22.74C221.41,2564.885,221.752,2561.949,221.047,2558.197z"/>
	<path style="fill:#BFBFBE;" d="M815.916,1970.539c38.109,10.201,75.278,24.44,113.048,35.936l-0.185,20.643
		c-21.829-3.094-89.578-27.366-110.162-37.45C815.286,1984.3,816.065,1976.712,815.916,1970.539z"/>
	<path style="fill:#BFBFBE;" d="M947.898,2016.245c20.03,2.672,103.814,28.154,122.432,37.969c3.428,5.426,2.318,12.29,2.197,18.495
		c-20.358-1.556-99.756-27.542-116.186-39.442C949.955,2028.637,949.272,2023.739,947.898,2016.245z"/>
	<path style="fill:#FEFEFE;" d="M2475.269,2175.579c0.938,6.504-25.157,55.943-29.807,65.707
		c-24.814-9.173-44.142-10.843-70.046-5.698l-5.9,1.447l-1.403-1.4c10.872-8.628,25.16-14.118,37.33-20.854
		C2428.821,2201.841,2451.564,2187.989,2475.269,2175.579z"/>
	<path style="fill:#FEFEFE;" d="M2330.021,1738.22c33.088-1.992,56.481-0.34,86.045,15.477c-11.279,4.688-22.354,8.063-34.21,10.984
		c-31.84,4.069-57.153-0.044-86.666-12.504C2305.537,1744.592,2317.713,1741.173,2330.021,1738.22z"/>
	<path style="fill:#FEFEFE;" d="M1028.86,2819.542c15.451-0.882,220.784,65.505,247.562,77.909c6.152,2.851,6.87,4.21,9.173,10.169
		c-5.985,0.229-11.76-1.193-17.467-2.862c-56.994-16.679-113.168-37.737-169.606-56.394c-18.401-6.085-49.732-12.721-65.754-21.273
		C1029.642,2825.425,1029.815,2822.803,1028.86,2819.542z"/>
	<path style="fill:#FEFEFE;" d="M2509.224,2505.805c20.842,7.834,40.192,17.555,61.594,24.237
		c-17.015,10.043-34.67,19.222-51.978,28.767c-14.508,8.113-29.129,16.017-43.864,23.71
		C2488.798,2557.435,2500.171,2532.995,2509.224,2505.805z"/>
	<path style="fill:#BFBFBE;" d="M1353.35,2038.713c4.248,4.866,2.024,20.736,1.857,27.079
		c-35.271,20.692-72.481,38.461-108.053,58.808l-2.344-1.518c-1.482-4.778-2.218-6.574-0.99-11.581
		C1247.444,2096.703,1334.723,2049.769,1353.35,2038.713z"/>
	<path style="fill:#FEFEFE;" d="M1070.266,2919.199c2.725,0.011,4.992,0.053,7.679,0.58c34.21,6.709,82.228,26.874,116.347,38.388
		l88.116,29.795c15.97,5.449,33.36,10.225,48.527,17.607c5.769,2.783,9.021,5.742,12.478,11.103
		c-3.595,0.908-7.055,0.059-10.547-0.967c-45.976-13.418-91.696-31.318-137.221-46.553c-28.518-9.58-98.467-28.945-119.974-41.695
		C1071.262,2924.844,1071.446,2923.904,1070.266,2919.199z"/>
	<path style="fill:#BFBFBE;" d="M1092.341,2062.651c18.905,4.986,125.906,36.035,133.761,43.23
		c2.452,6.686,1.02,13.664,0.316,20.604c-30.158-8.074-105.463-30.325-130.913-44.244
		C1091.89,2076.21,1092.508,2069.483,1092.341,2062.651z"/>
	<path style="fill:#FEFEFE;" d="M231.228,1896.842c2.032-0.337,4.004-0.63,6.054-0.82c12.367-1.16,23.31,4.45,32.534,12.284
		c21.997,18.68,33.548,52.157,35.906,80.104c2.329,27.58-3.176,52.225-21.044,73.585c-4.089,2.388-6.315,4.819-11.09,4.116
		c-0.34-10.286,8.301-22.573,11.369-32.54c3.526-11.455,2.443-28.582,1.32-40.48C282.296,1950.936,262.87,1923.092,231.228,1896.842
		z"/>
	<path style="fill:#FEFEFE;" d="M1413.359,2766.984l1.418,1.333c1.547,22.251-20.133,75.237-32.786,92.405
		c-5.016,6.809-9.208,11.127-17.757,12.501c-0.984-2.148-1.942-4.301-2.763-6.519c-8.733-23.587-1.579-55.811,8.766-77.771
		C1383.848,2779.822,1398.435,2773.584,1413.359,2766.984z"/>
	<path style="fill:#FEFEFE;" d="M1129.211,1557.066c4.415-0.314,8.938-0.665,13.362-0.393c19.802,1.216,39.803,15.223,52.424,29.672
		c23.921,27.381,34.436,64.163,31.623,100.11c-2.455,31.368-14.063,52.825-37.849,72.897c-0.835,0.404-1.854,0.161-2.783,0.167
		c7.084-10.4,13.749-20.654,18.021-32.572c11.854-33.097,7.529-70.482-7.383-101.912c-14.458-30.481-39.214-51.536-70.934-62.813
		l-2.247-0.788l0.188-1.96L1129.211,1557.066z"/>
	<path style="fill:#FEFEFE;" d="M2018.805,2773.81c25.468,15.58,47.751,24.99,77.232,30.331
		c-23.701,17.177-49.166,32.03-74.274,47.042c-15.302,9.981-31.761,19.84-48.475,27.234c5.172-8.033,10.011-16.262,14.517-24.686
		c4.506-8.424,8.665-17.016,12.478-25.775c3.81-8.76,7.263-17.659,10.356-26.698
		C2013.732,2792.219,2016.454,2783.07,2018.805,2773.81z"/>
	<path style="fill:#FEFEFE;" d="M2056.144,2406.037c-0.686,5.604-14.839,19.986-19.122,25.576
		c-26.291,34.333-43.931,68.944-53.994,111.246l-16.772-15.345l-17.063-12.478c6.879-23.068,17.909-44.614,28.702-66.035
		C2004.272,2435.214,2030.355,2420.893,2056.144,2406.037z"/>
	<path style="fill:#FEFEFE;" d="M2264.867,2628.954c25.825,14.651,52.494,23.619,81.434,29.695
		c-23.355,16.799-49.316,31.119-73.813,46.263c-17.584,9.888-34.694,20.543-51.861,31.125
		C2243.029,2701.35,2254.525,2668.555,2264.867,2628.954z"/>
	<path style="fill:#FEFEFE;" d="M2284.282,1767.078c46.896,17.06,87.709,16.497,134.983,3.061l2.361,1.565
		c1.608,9.225-2.285,19.819-6.829,27.721c-0.434,0.39-0.853,0.797-1.304,1.166c-17.687,14.44-45.363,17.944-67.447,16.535
		c-18.765-1.198-41.362-6.384-53.927-21.565C2284.637,1786.522,2283.415,1778.48,2284.282,1767.078z"/>
	<path style="fill:#FEFEFE;" d="M631.017,2651.695c39.729,10.254,79.635,25.954,117.949,40.623
		c-5.739,5.865-12.252,11.118-18.428,16.523c-8.613,6.422-18.82,12.319-29.224,15.214c-11.065,3.076-22.45,2.159-32.376-3.841
		C646.278,2706.518,637.495,2675.516,631.017,2651.695z"/>
	<path style="fill:#FEFEFE;" d="M1751.442,2922.626c26.156,21.038,54.085,28.538,86.561,33.313
		c-24.067,15.352-49.295,29.004-74.115,43.096c-13.819,8.086-43.474,30.586-59.441,29.209
		C1723.692,3015.237,1744.39,2946.008,1751.442,2922.626z"/>
	<path style="fill:#FEFEFE;" d="M1675.185,1094.579c1.318-0.214,2.575,0.513,3.814,0.955c1.766,6.694,2.71,65.2,2.514,75.026
		c-0.161,8.06-1.512,17.048-7.857,22.702c-9.024,8.042-22.796,5.859-33.952,5.569l-6.484-5.892
		c-7.954-20.895-3.076-73.679-2.777-97.796C1645.516,1095.669,1660.118,1095.745,1675.185,1094.579z"/>
	<path style="fill:#FEFEFE;" d="M182.17,1940.838c8.843-0.105,15.509,1.418,22.587,6.961c16.666,13.046,25.378,36.317,27.148,56.865
		c1.614,18.732-2.251,33.964-14.494,48.46c-3.311,1.538-6.768,1.922-10.337,2.49c-4.211-1.143-7.545-2.563-10.877-5.47
		c-16.579-14.455-24.894-46.269-26.062-67.453C169.253,1966.689,171.076,1953.221,182.17,1940.838z"/>
	<path style="fill:#FEFEFE;" d="M2336.524,2251.212l1.582,1.722c-57.557,42.809-79.978,103.767-96.035,170.587
		c-4.02-6.466-8.552-12.615-12.941-18.832c-7.02-9-16.479-16.084-25.204-23.379
		C2230.856,2299.238,2265.729,2288.791,2336.524,2251.212z"/>
	<path style="fill:#FEFEFE;" d="M2610.026,2107.645l0.305,1.954c-2.693,1.406-5.361,2.861-8.001,4.365
		c-65.962,37.424-89.232,102.516-108.146,171.618l-14.631-18.214c-6.759-6.079-14.028-11.716-21.041-17.505
		c7.576-24.015,19.324-49.303,33.677-69.882c6.577-9.431,14.209-17.786,23.265-24.888
		C2534.794,2139.922,2586.576,2111.899,2610.026,2107.645z"/>
	<path style="fill:#FEFEFE;" d="M1791.221,2558.284l0.82,2.335c-36.167,50.57-49.863,104.526-60.583,164.854
		c-6.531-9.141-13.155-18.214-19.872-27.22c-9.806-10.896-21.437-19.222-33.123-27.943
		C1705.75,2613.122,1738.205,2588.976,1791.221,2558.284z"/>
	<path style="fill:#FEFEFE;" d="M2756.604,2032.109c0.46-0.023,0.917-0.076,1.377-0.076c9.437-0.009,15.917,3.355,22.5,10.058
		c13.421,13.67,13.875,38.558,13.169,56.604c-0.066,2.24-0.188,4.477-0.366,6.709c-0.176,2.234-0.407,4.463-0.694,6.686
		c-0.285,2.223-0.625,4.437-1.02,6.642c-0.394,2.205-0.844,4.399-1.347,6.583c-0.502,2.184-1.057,4.353-1.664,6.51
		c-0.61,2.156-1.271,4.297-1.983,6.422c-0.715,2.123-1.48,4.229-2.297,6.316c-0.816,2.086-1.684,4.151-2.601,6.196
		c-0.918,2.043-1.886,4.063-2.904,6.059c-1.018,1.998-2.083,3.969-3.196,5.912c-1.114,1.945-2.274,3.861-3.483,5.748
		c-1.207,1.889-2.46,3.745-3.759,5.569c-1.299,1.826-2.642,3.62-4.028,5.382c-1.387,1.76-2.816,3.484-4.289,5.174
		c-1.471,1.692-2.983,3.345-4.535,4.96c-1.552,1.617-3.143,3.194-4.772,4.731c-3.725-8.225-7.382-16.479-10.971-24.765
		c4.614-3.589,8.698-7.154,11.865-12.138c3.272-5.15,4.939-11.672,3.252-17.672c-1.271-4.526-4.553-9.454-9.023-11.35
		c-5.106-2.165-7.799-1.184-12.768,0.325c-5.815,5.394-5.988,10.099-9.428,16.816c-5.643-3.732-9.697-11.218-13.573-16.731
		C2716.488,2092.941,2725.493,2054.709,2756.604,2032.109z"/>
	<path style="fill:#FEFEFE;" d="M2206.713,1290.449c5.766,5.03,8.355,11.813,11.578,18.595
		c-144.012,59.086-288.875,116.008-434.59,170.766c-63.317,24.278-127.693,46.207-190.187,72.548
		c-3.932-2.956-5.953-5.095-8.279-9.451c16.236-10.477,42.451-15.75,60.97-22.348c33.838-12.33,67.573-24.937,101.203-37.819
		c67.99-26.09,135.719-52.845,203.186-80.265C2036.82,1368.291,2124.646,1333.885,2206.713,1290.449z"/>
	<path style="fill:#FEFEFE;" d="M1431.177,1183.311l1.233,1.099c-0.682,1.655-1.33,3.325-2.024,4.978
		c-2.127,5.074-5.777,11.188-4.04,16.831c3.208,10.427,14.323,18.073,23.432,23.241c87.484,49.655,265.424,42.173,359.825,14.9
		c29.61-8.552,56.681-18.633,72.155-46.767c6.841,3.645,14.379,6.683,17.971,13.878c0.261,6.41-1.857,9.606-5.148,14.979
		c-2.232,2.021-4.462,3.879-6.935,5.607c-80.487,56.271-293.605,49.928-386.962,33.141c-28.544-5.133-81.56-13.787-98.095-39.797
		c-2.886-4.538-3.92-9.363-2.353-14.578C1403.981,1198.387,1420.302,1189.003,1431.177,1183.311z"/>
	<path style="fill:#FEFEFE;" d="M2794.49,1995.807c8.016-0.102,16.427,1.758,24.366,2.909c5.411,15.018,9.434,29.616,11.455,45.486
		c10.705,84.023-13.927,185.584-65.543,252.891c-0.035-31.137-3.062-59.165-10.172-89.499c25.081-18.885,36.349-40.617,46.82-69.568
		c7.195-31.061,9.794-67.008-4.884-96.445c-4.963-9.952-12.703-19.318-23.71-22.638c-9.583-2.892-19.755-0.63-28.093,4.611
		c-29.238,18.372-41.411,62.962-48.771,94.526c-11.768-5.795-23.619-10.479-35.918-14.988c3.263-10.406,6.363-21.185,11.165-31.008
		C2684.744,2044.396,2765.006,2005.557,2794.49,1995.807z"/>
	<path style="fill:#FEFEFE;" d="M971.131,1880.351c15.038-1.723,88.09,27.565,106.263,33.809
		c-34.972,20.145-72.246,37.321-108.484,55.055c-13.157,6.436-27.085,15.507-40.594,20.563
		c-38.328-12.478-76.524-25.349-114.589-38.61c15.873-9.768,34.078-17.01,51.041-24.724
		C899.893,1910.319,935.347,1894.954,971.131,1880.351z"/>
	<path style="fill:#FEFEFE;" d="M2720.674,1731.924c4.298,0.305,7.172,1.389,11.007,3.141l-1.315,2.206l-1.368-1.324l-7.371,1.931
		l1.049,3.425c-44.912,20.725-88.386,45.545-132.109,68.687l-203.174,106.635l-683.262,362.154
		c-84.604,45.299-168.712,91.38-253.843,135.686c-49.397,25.705-99.196,54.267-151.945,72.466
		c-70.978-28.497-146.127-50.341-218.798-74.37c-8.104-2.464-15.542-5.61-23.238-9.1c61.714,7.122,160.682,47.08,223.301,66.662
		c17.25,5.394,28.86,9.164,46.234,2.147c42.369-17.106,87.703-46.512,128.423-68.572l260.857-140.133L2720.674,1731.924z"/>
	<path style="fill:#FEFEFE;" d="M1112.415,1923.292c34.359,6.372,82.175,26.388,116.78,38.224
		c-18.516,10.775-144.694,76.137-155.654,76.433c-40.603-14.449-82.652-26.063-123.964-38.341
		C1003.296,1973.082,1058.122,1948.633,1112.415,1923.292z"/>
	<path style="fill:#FEFEFE;" d="M911.043,1829.545c7.028,1.939,27.281,34.951,33.211,42.694
		c-31.755,20.883-72.179,34.462-106.843,50.379c-10.415,4.784-24.193,9.574-32.889,17.06c-9.633,8.288-8.93,28.494-9.861,40.392
		c-26.892-6.993-53.581-15.105-80.315-22.699c-21.807-6.242-43.767-11.892-65.88-16.948
		C734.491,1899.256,823.178,1866.303,911.043,1829.545z"/>
	<path style="fill:#FEFEFE;" d="M1253.233,1970.064c20.563-3.688,79.392,22.632,101.282,30.659l-0.858,19.248
		c-36.987,26.197-77.833,48.525-116.634,72.006l-26.01-8.332c-36.891-12.098-73.978-23.562-111.261-34.392
		C1149.854,2020.514,1201.876,1996.346,1253.233,1970.064z"/>
	<path style="fill:#FEFEFE;" d="M1091.468,1578.119c5.903-0.193,11.561-0.132,17.388,0.92c25.5,4.611,46.002,17.15,60.838,38.522
		c17.435,25.113,25.506,57.92,20.039,88.146c-4.189,23.147-16.711,44.563-36.442,57.771c-23.063,15.439-48.308,14.821-74.493,9.548
		c-3.738-1.477-8.695-2.162-10.342-5.895c16.078-6.768,28.978-13.822,37.503-29.859c10.544-19.837,10.591-43.796,3.671-64.799
		c-5.76-17.484-17.25-34.471-34.371-42.437c-18.46-8.59-32.933-3.967-50.818,2.37c2.494-4.215,5.057-8.389,7.688-12.521
		C1047.716,1595.559,1063.305,1584.294,1091.468,1578.119z"/>
	<path style="fill:#FEFEFE;" d="M494.81,2603.554c14.771,3.527,29.856,10.157,44.276,15.22c25.424,8.927,50.988,17.44,76.222,26.9
		c5.634,27.287,14.115,56.684,33.964,77.259c10.529,10.913,24.308,17.807,39.718,17.49c30.275-0.621,53.036-22.55,72.501-43.134
		c11.887,4.156,23.732,8.43,35.537,12.82l-12.935,15.741c-19.069,20.78-40.362,39.082-67.31,48.618
		c-33.431,11.833-66.987,8.168-98.487-7.362C555.689,2736.242,516.545,2667.377,494.81,2603.554z"/>
	<path style="fill:#FEFEFE;" d="M1595.691,884.822c41.678,16.526,78.214,15.495,121.658,7.702
		c0.952,23.174,3.223,158.259-4.901,167.827c-13.5,7.362-28.292,11.323-43.538,12.724c-18.776,1.726-53.947,0.296-68.499-13.122
		c-3.513-3.243-5.192-7.096-5.933-11.745c-3.36-21.056-0.237-45.583,0.252-66.958
		C1595.249,949.109,1595.57,916.967,1595.691,884.822z"/>
	<path style="fill:#BFBFBE;" d="M964.996,1806.461c19.86,8.555,40.65,14.628,61.105,21.574l123.065,40.45l302.901,97.629
		c2.315,16.489,5.581,32.528,9.234,48.762l-24.765-7.696c-43.151-11.956-83.95-29.728-126.346-43.945
		c-66.902-22.438-134.698-42.358-201.733-64.526c-35.068-11.596-95.229-34.687-129.478-39.521c-6.504-0.92-12.36,0.246-18.688,1.646
		c-10.008-13.661-20.736-26.707-31.441-39.82C941.019,1816.462,953.068,1811.612,964.996,1806.461z"/>
	<path style="fill:#FEFEFE;" d="M1532.465,2700.55l1.104,1.746c-19.567,20.81-33.176,46.093-44.282,72.155
		c-32.783,76.928-47.64,177.416-14.988,256.84c6.665,16.23,20.127,44.853,37.468,52.207c-1.755,0.176-3.489,0.293-5.256,0.147
		c-37.977-3.164-99.439-67.5-122.988-97.178c-40.122-52.939-58.099-109.319-60.48-175.266c9.281-5.209,19.277-9.255,29.01-13.547
		c-5.763,23.76-12.771,49.436-3.911,73.307c3.053,8.227,5.944,14.786,14.291,18.601c7.096,0.63,11.54-0.947,17.426-5.001
		c31.819-21.923,45.542-90.214,51.856-127.207C1465.944,2739.732,1499.36,2720.182,1532.465,2700.55z"/>
	<path style="fill:#FEFEFE;" d="M1701.599,1147.554c42.038,2.865,124.702,15.337,159.006,39.492c1.805,3.27,2.98,4.579,2.402,8.461
		c-0.85,5.704-6.182,10.002-10.553,13.16c-18.85,13.62-44.221,20.396-66.612,25.79c-81.223,19.553-162.46,19.62-244.746,6.896
		c-26.856-4.421-67.441-13.696-89.956-29.344c-5.145-3.574-6.929-6.513-8.156-12.428c1.06-3.765,2.106-6.185,4.942-8.982
		c30.609-30.191,123.132-40.389,165.17-41.385c-0.352,13.863-4.98,48.97,4.38,58.96c9.026,9.633,25.837,11.991,38.473,11.842
		c12.519-0.149,30.894-2.648,39.677-12.463C1705.996,1195.97,1701.769,1162.366,1701.599,1147.554z"/>
	<path style="fill:#BFBFBE;" d="M2234.457,1588.592c11.95,2.068,25.825,8.848,37.808,12.357
		c-20.015,19.934-42.029,38.593-62.78,57.859c-22.805,21.17-45.976,46.846-71.985,63.741c-17.994,11.689-39.97,19.734-59.517,28.535
		l-107.587,48.094c-155.754,69.472-312.671,135.34-469.573,202.087l-20.763,9.419l-8.458-44.985
		c33.715-14.391,68.104-27.188,101.971-41.218l406.38-168.712l99.068-41.194c19.544-8.115,42.076-15.261,59.54-27.161
		C2165.366,1669.15,2207.164,1614.573,2234.457,1588.592z"/>
	<path style="fill:#FEFEFE;" d="M628.278,1950.746c44.666,12.337,89.95,22.896,134.115,36.94
		c-96.639,55.198-196.037,105.577-293.848,158.663c-2.124,1.277-4.368,2.701-6.677,3.604
		c-9.847,3.844-108.563-34.028-126.094-40.289c38.423-25.954,82.875-46.556,123.607-68.818
		C515.265,2010.306,570.434,1977.488,628.278,1950.746z"/>
	<path style="fill:#FEFEFE;" d="M1034.764,1421.313c30.126,3.053,60.182,11.868,89.546,19.031l133.67,32.736
		c69.621,16.623,139.071,33.931,208.351,51.923c27.694,7.04,56.517,11.959,83.751,20.496c7.275,2.282,13.544,7.21,16.579,14.394
		c2.646,6.261-2.666,23.616-4.52,30.082c-14.083,49.116-33.568,96.703-50.241,144.964c-23.206,67.181-44.429,135.167-66.351,202.784
		c-104.986-34.34-209.75-69.348-314.291-105.023c-42.287-14.361-85.934-25.89-127.667-41.543
		c11.171-4.412,22.608-8.089,33.999-11.88c36.478,23.461,107.927,45.41,151.395,58.887c31.146,9.445,205.708,55.541,224.909,46.822
		c4.667-5.203,7.479-11.256,10.227-17.605c18.838-43.55,33.425-89.388,50.408-133.711c15.079-39.351,33.393-79.336,45.648-119.575
		c2.318-7.605,5.631-18.861,1.693-26.144c-23.021-13.802-75.7-24.231-102.873-32.033c-73.818-21.818-147.928-42.598-222.328-62.338
		c-50.959-13.409-102.486-24.794-153.217-39.047c-40.395,53.057-73.11,129.955-77.03,196.582l-52.594,18.486
		c13.749-39.545,37.304-81.123,55.828-119.01C990.631,1507.692,1010.046,1462.068,1034.764,1421.313z"/>
	<path style="fill:#FEFEFE;" d="M2765.416,1741.56c1.605-0.393,1.562-0.46,3.516-0.489c12.56-0.196,29.622,10.453,37.992,19.357
		c45.439,48.34,52.758,154.26,50.686,217.746c-7.535-6.753-14.739-11.578-24.536-14.578c-45.448-13.907-83.558,10.626-121.21,32.394
		c-19.301,11.399-38.874,22.309-58.72,32.733c-22.79,13.374-46.157,25.682-69.469,38.112c-2.282-28.649-0.539-57.844-0.263-86.563
		c0.448-46.992,0.011-94.26-3.756-141.109C2639.958,1804.393,2703.301,1773.051,2765.416,1741.56z"/>
	<path style="fill:#FEFEFE;" d="M1471.832,2424.852c1.146,0.076,2.883,1.028,3.964,1.474c2.821,82.597,0.653,166.046,0.961,248.725
		c-52.809,27.148-105.973,53.58-159.492,79.295c-37.318,18.354-74.318,37.963-112.318,54.853
		c-15.293-43.972-2.707-90.51,11.001-133.354c13.553-42.357,56.977-139.04,90.422-165.533c21.111-16.719,50.868-27.65,75.015-39.495
		C1411.671,2455.767,1441.821,2440.445,1471.832,2424.852z"/>
	<path style="fill:#FEFEFE;" d="M1907.509,1238.046c2.156,13.081,2.077,27.454,1.975,40.723
		c-0.24,31.916-4.761,66.677-28.849,89.988c-55.978,54.17-201.583,60.111-275.362,58.479c-63.208-1.4-157.822-8.115-203.815-56.186
		c-15.926-31.869-8.49-94.931-6.58-130.119c55.74,38.693,119.751,47.121,185.877,51.53
		C1666.926,1298.207,1839.083,1297.864,1907.509,1238.046z"/>
	<path style="fill:#FEFEFE;" d="M259.351,2131.956c64.579,19.904,130.295,39.46,194.092,61.523
		c-70.298,64.029-95.238,141.932-106.456,233.936c-2.845,23.326-3.483,46.881-6.284,70.23l-2.807,1.931l-6.281-1.77
		c-24.419-7.778-48.404-17.979-72.591-26.554c-41.014-14.543-82.475-28.073-122.989-43.957c-2.139-16.354-3.465-32.461-2.729-48.979
		C137.862,2276.088,185.454,2199.207,259.351,2131.956z"/>
	<path style="fill:#FEFEFE;" d="M2652.43,2117.647c11.44,1.479,23.505,6.817,33.205,12.902
		c32.238,20.218,48.718,57.319,56.707,93.129c16.406,73.541-0.677,155.469-41.229,218.572
		c-24.047,37.415-53.291,65.968-97.772,75.554c-6.281-0.155-12.211-0.68-18.308-2.191c-28.975-7.178-49.216-29.165-64.043-53.824
		c4.134-55.913,4.886-102.492-16.078-155.997c10.881-53.845,28.664-112.813,68.039-152.822
		C2595.992,2129.562,2619.664,2117.923,2652.43,2117.647z"/>
	<path style="fill:#020202;" d="M2638.139,2175.444c7.84-0.46,15.281,0.703,22.532,3.756c20.159,8.496,32.754,26.112,40.608,45.94
		c19.582,49.436,13.069,113.394-7.998,161.344c-15.006,34.146-39.343,62.909-74.569,76.544c-11.306,2.101-20.786,1.38-31.222-3.806
		c-18.838-9.363-28.974-27.598-35.49-46.799c-17.953-52.898-6.269-125.353,18.671-174.364
		C2586.31,2207.331,2605.045,2186.231,2638.139,2175.444z"/>
	<path style="fill:#FEFEFE;" d="M2641.083,2191.349c4.547,0.651,9.369,1.274,13.664,2.986c16.608,6.63,28.652,23.49,34.863,39.609
		c17.232,44.725,10.479,102.15-8.687,145.134c-14.443,32.388-35.019,57.425-68.622,70.169c-7.192,1.523-14.235-0.604-20.467-4.257
		c-17.291-10.137-25.992-32.505-30.475-51.088c-12.451-51.613,1.995-118.553,29.775-163.178
		C2603.413,2211.002,2618.041,2196.646,2641.083,2191.349z"/>
	<path style="fill:#020202;" d="M2584.033,2299.514c6.469,1.213,11.912,3.647,15.99,8.994c3.729,4.884,5.033,11.136,3.882,17.127
		c-2.235,11.643-8.259,17.321-17.742,23.353c-6.776-1.626-12.442-4.441-16.119-10.594c-3.361-5.622-4.017-12.24-2.435-18.536
		C2570.153,2309.735,2575.403,2304.831,2584.033,2299.514z"/>
	<path style="fill:#FEFEFE;" d="M2390.686,2247.942c20.663-1.07,39.943,1.978,57.8,12.926c31.268,19.166,49.23,55.948,56.977,90.665
		c16.339,73.219-2.218,160.893-42.129,223.79c-21.656,34.128-47.968,58.978-88.017,67.898c-22.368,1.884-40.084-2.098-58.878-14.675
		c-54.855-36.715-40.148-67.028-47.212-119.145c-2.561-18.882-10.043-36.691-13.468-55.345
		c-7.105-38.669,24.92-115.24,46.884-146.104C2324.647,2277.031,2352.802,2254.517,2390.686,2247.942z"/>
	<path style="fill:#020202;" d="M2389.71,2300.381c10.491-0.351,19.301,0.776,28.816,5.487
		c19.705,9.759,31.541,27.876,38.405,48.238c18.483,54.841,8.631,124.037-17.186,174.952c-14.467,28.53-32.883,52.037-63.908,62.388
		c-10.96,1.614-21.038-0.073-30.911-5.065c-20.042-10.131-31.371-29.479-37.846-50.309c-17.842-57.405-8.062-125.593,19.775-178.16
		C2341.47,2330.319,2359.341,2309.773,2389.71,2300.381z"/>
	<path style="fill:#FEFEFE;" d="M2387.138,2315.952c6.554-0.507,13.184-0.512,19.45,1.682c16.438,5.751,27.794,18.718,34.702,34.26
		c19.749,44.446,13.166,106.257-4.087,150.387c-11.865,30.354-29.733,60.592-60.642,74.048c-5.613,0.642-11.39,0.785-16.831-0.949
		c-16.207-5.171-27.817-17.306-34.913-32.42c-20.886-44.487-14.341-105.832,1.951-150.645
		C2338.174,2360.94,2355.813,2330.393,2387.138,2315.952z"/>
	<path style="fill:#020202;" d="M2344.121,2422.962c0.536,0.103,1.072,0.196,1.608,0.305c7.638,1.55,13.362,4.175,17.578,11.042
		c4.022,6.557,4.301,14.396,1.995,21.595c-3.085,9.627-8.341,14.64-17.01,19.397c-0.929-0.211-1.863-0.404-2.789-0.63
		c-8.476-2.051-14.476-5.458-18.75-13.298c-3.475-6.372-3.703-13.761-1.271-20.552
		C2328.869,2431.358,2335.335,2426.987,2344.121,2422.962z"/>
	<path style="fill:#FEFEFE;" d="M2343.866,2437.543c0.378,0.117,0.765,0.205,1.131,0.354c5.2,2.106,6.973,4.699,8.959,9.706
		c-0.656,6.261-2.528,9.167-6.246,14.171c-5.669-2.238-7.269-3.732-9.955-9.202
		C2338.185,2446.147,2340.344,2442.84,2343.866,2437.543z"/>
	<path style="fill:#FEFEFE;" d="M2143.601,2379.014c19.764,0.867,37.591,6.592,53.792,18.164
		c32.379,23.127,49.919,64.737,56.139,102.885c12.451,76.368,0.899,165.094-45.592,228.677
		c-24.604,33.647-53.956,53.596-95.262,59.985c-4.875-0.381-9.683-0.917-14.479-1.872c-35.077-6.984-52.456-27.727-71.637-56.057
		c4.163-61.852-0.287-119.822-32.833-174.398c13.793-45.865,29.086-88.571,60.176-126.191
		C2077.915,2401.153,2105.679,2382.731,2143.601,2379.014z"/>
	<path style="fill:#020202;" d="M2138.267,2433.333c11.798-0.858,22.192,1.23,32.575,6.853
		c22.887,12.396,35.276,36.779,42.012,60.967c15.788,56.689,7.303,128.435-21.917,179.593
		c-14.684,25.705-33.844,45.152-62.821,53.016c-12.158,0.633-22.808-0.609-33.65-6.431c-22.28-11.959-35.077-35.687-41.953-59.18
		c-16.269-55.594-4.922-132.539,23.338-182.737C2090.647,2459.129,2108.969,2441.422,2138.267,2433.333z"/>
	<path style="fill:#FEFEFE;" d="M2139.942,2448.761c7.283-0.085,14.35,1.339,20.982,4.409c18.091,8.373,29.107,24.727,35.71,42.993
		c19.104,52.849,10.559,118.093-13.611,167.886c-12.179,25.084-27.401,45.009-54.293,54.36c-9.343,0.352-17.959,0.363-26.613-3.841
		c-17.186-8.347-27.173-24.861-33.401-42.261c-17.719-49.509-7.239-122.9,15.193-169.515
		C2096.34,2476.965,2112.567,2458.294,2139.942,2448.761z"/>
	<path style="fill:#020202;" d="M2087.934,2567.194c6.404,0.041,12.343,0.724,17.238,5.244c3.732,3.446,5.555,8.414,5.402,13.448
		c-0.372,12.264-7.134,20.76-15.847,28.444c-0.688,0.05-1.374,0.135-2.063,0.152c-5.525,0.126-10.187-0.888-14.276-4.816
		c-4.254-4.084-5.818-9.879-5.411-15.647C2073.854,2581.563,2078.949,2574.899,2087.934,2567.194z"/>
	<path style="fill:#FEFEFE;" d="M1033.486,2416.171c19.403,5.763,38.279,13.315,57.598,19.415
		c64.279,19.646,128.026,40.893,191.238,63.738c-11.883,24.273-28.043,46.96-41.156,70.676
		c-32.918,59.54-68.898,143.505-60.182,212.798c0.621,5.766,0.973,11.473,1.175,17.265l-2.49,1.541
		c-31.509-8.159-62.429-19.77-93.363-29.898L949.82,2728.42c-0.74-3.623-1.319-7.272-1.737-10.948
		c-2.279-20.306-0.322-42.214,1.453-62.52C956.916,2570.61,980.227,2483.363,1033.486,2416.171z"/>
	<path style="fill:#FEFEFE;" d="M2563.775,1847.002c9.65,36.624,4.221,178.389,4.418,225.51
		c-44.51,29.443-93.976,54.258-140.698,80.156c-69.255,38.391-138.167,77.693-209.323,112.483l-1.096-0.331
		c-3.946-5.405-0.847-210.548-0.817-233.874c27.958-13.951,54.894-29.792,82.512-44.385L2563.775,1847.002z"/>
	<path style="fill:#FEFEFE;" d="M1925.993,1210.126c85.23,27.313,173.215,46.573,259.321,71.054
		c-90.466,36.068-178.693,79.386-268.538,117.273c-84.155,35.49-169.5,65.355-255.674,95.376
		c-27.325,9.521-75.1,31.456-103.427,30.653c-28.11-0.794-72.838-15.592-102.035-22.404
		c-75.016-16.898-149.911-34.316-224.687-52.254c-55.483-14.318-111.252-27.418-167.309-39.299
		c98.798-44.159,202.6-77.531,301.682-121.345c0.139,2.74,0.303,5.479,0.492,8.215c2.268,32.32,7.204,77.619,33.803,100.078
		c53.953,45.56,209.643,55.635,278.728,50.139c65.476-5.209,179.382-20.646,224.068-73.925
		C1938.166,1331.067,1930.308,1261.647,1925.993,1210.126z"/>
	<path style="fill:#FEFEFE;" d="M2197.812,2040.541l1.418,1.055c3.193,8.968,1.825,215.678-1.764,232.377
		c-8.689,12.352-315.609,178.462-350.095,196.368l-1.714-0.416c-4.242-6.129,1.611-224.631,3.498-244.257
		c49.535-29.162,102.041-55.049,152.93-81.855C2067.379,2109.415,2132.12,2074.206,2197.812,2040.541z"/>
	<path style="fill:#FEFEFE;" d="M1828.381,2235.726c3.314,4.163,3.428,6,3.861,11.22c2.033,24.536-0.516,51.158-0.929,75.832
		c-0.711,52.953-1.759,105.899-3.143,158.839c-110.76,63.05-221.584,128.61-335.221,186.252c-2.786-2.903-2.593-4.819-2.853-8.786
		c-1.893-28.67-0.255-58.609-0.375-87.439l-1.623-153.595c63.735-33.311,127.667-67.705,190.731-102.319
		C1728.473,2288.483,1777.434,2260.525,1828.381,2235.726z"/>
	<path style="fill:#FEFEFE;" d="M1048.401,1473.262c17.001,1.825,34.723,8.004,51.275,12.366
		c47.449,12.501,93.864,27.129,141.003,40.565c89.066,25.389,180.056,45.706,268.081,74.449
		c-34.585,89.687-67.389,180.041-102.44,269.558c-52.84-7.822-105.425-21.325-157.313-33.885
		c-42.929-11.464-90.094-22.002-130.79-39.624c24.586-3.085,54.129-3.982,76.509-15.399c22.67-11.563,38.027-34.104,45.469-57.929
		c12.454-39.867,5.965-84.571-13.189-121.207c-14.13-27.018-35.344-49.339-65.101-58.43c-9.946-3.038-21.366-5.112-31.702-3.24
		c-12.062,2.183-20.481,10.922-31.479,15.337c-14.654,5.88-29.783,8.106-43.931,15.905c-26.766,14.757-40.758,38.174-49.292,66.674
		l-21.445,6.691C991.527,1582.604,1016.145,1526.79,1048.401,1473.262z"/>
	<path style="fill:#FEFEFE;" d="M1875.839,2515.432c19.187-1.729,35.086-0.785,53.112,6.695
		c33.158,13.76,54.58,40.936,67.644,73.582c27.791,69.457,20.938,154.676-8.669,222.61
		c-22.175,50.877-53.484,96.015-106.767,117.027c-14.616,2.959-26.379,4.775-40.974,0.967
		c-36.771-9.589-62.051-43.787-80.619-74.748c-0.021-22.192-0.829-45.258-4.77-67.125c-2.736-15.167-7.922-30.507-9.307-45.823
		c-3.671-40.594,18.255-105.856,36.621-142.23C1802.509,2565.981,1831.639,2530.051,1875.839,2515.432z"/>
	<path style="fill:#020202;" d="M1888.27,2568.028c12.905-0.958,23.769,1.822,34.778,8.367
		c22.928,13.629,34.436,39.287,40.412,64.271c14.628,61.125,3.888,135.8-29.291,189.411c-16.644,26.895-37.198,46.385-68.353,53.827
		c-12.258-0.144-21.422-2.309-31.966-8.701c-24.606-14.921-36.161-44.168-42.671-70.898
		c-14.443-59.312,1.474-134.253,33.155-185.461C1840.03,2593.473,1858.698,2574.823,1888.27,2568.028z"/>
	<path style="fill:#FEFEFE;" d="M1885.267,2583.503c8.355-0.615,16.034-0.176,23.824,3.246
		c18.044,7.925,28.995,24.384,35.526,42.345c19.476,53.552,12.014,123.185-12.196,174.041
		c-13.459,28.266-32.145,52.421-62.194,63.296c-7.342,0.36-14.115,0.756-21.012-2.253c-18.694-8.153-30.053-24.357-37.321-42.826
		c-20.182-51.261-10.983-117.495,10.623-167.165C1835.667,2623.956,1853.565,2595.907,1885.267,2583.503z"/>
	<path style="fill:#020202;" d="M1837.788,2710.218c3.258,0.018,6.668-0.032,9.888,0.498c4.576,0.756,9.065,4.579,11.441,8.432
		c3.384,5.479,3.595,11.74,1.933,17.804c-2.816,10.292-8.382,15.123-17.212,20.537c-2.634,0.079-5.335,0.167-7.954-0.158
		c-4.989-0.621-9.495-3.481-12.404-7.553c-3.349-4.69-3.885-10.427-2.906-15.973
		C1822.519,2722.769,1828.78,2716.218,1837.788,2710.218z"/>
	<path style="fill:#FEFEFE;" d="M1839.992,2722.593c4.398,1.781,6.006,2.851,8.918,6.592c0.891,6.357-2.499,10.597-5.64,15.782
		c-5.051-2.777-6.653-3.138-9.475-8.332C1833.872,2730.615,1836.617,2727.392,1839.992,2722.593z"/>
	<path style="fill:#FEFEFE;" d="M1625.439,2673.931c6.759,0.404,13.392,0.958,19.978,2.628c31.465,7.972,56.297,30.328,72.46,57.858
		c31.198,53.139,31.201,135.211,15.97,193.532c-15.495,59.338-49.386,124.553-103.866,155.989
		c-11.112,6.416-28.104,14.883-41.124,11.367c-1.978,1.523-3.627,2.431-6.138,2.783c-19.4,2.666-40.816-7.529-55.562-19.307
		c-34.485-27.539-49.397-75.088-53.985-117.363c-8.402-77.452,13.075-177.577,63.369-238.623
		C1559.907,2694.436,1588.829,2677.543,1625.439,2673.931z"/>
	<path style="fill:#020202;" d="M1608.045,2734.136c6.803-0.844,14.013-1.485,20.842-0.516
		c16.899,2.396,31.688,12.114,42.018,25.453c27.229,35.162,31.702,91.278,26.101,133.752
		c-6.519,49.433-27.548,104.013-68.335,135.097c-6.653,5.068-15.363,12.334-24.214,11.103c-1.995,1.699-4.365,3.223-6.797,4.189
		c-10.761,4.365-23.848,0.967-33.958-3.75c-20.813-9.668-33.114-30.381-40.471-51.27c-20.47-58.096-10.529-131.13,16.239-185.359
		C1554.643,2772.105,1574.658,2745.386,1608.045,2734.136z"/>
	<path style="fill:#FEFEFE;" d="M1618.642,2747.656c1.401,0.023,2.799,0.08,4.195,0.17c13.591,0.94,26.256,8.977,34.837,19.327
		c25.582,30.855,28.834,82.614,24.648,120.636c-4.819,43.775-23.071,96.158-58.667,124.547c-8.886,7.09-17.124,14.531-29.033,13.213
		c-1.515,0.82-2.045,1.201-3.844,1.758c-8.118,2.578-19.43-0.117-26.561-4.453c-18.217-11.045-28.353-39.844-32.824-59.502
		c-12.806-56.291,0.806-125.294,31.435-173.889C1576.393,2767.942,1593.584,2753.238,1618.642,2747.656z"/>
	<path style="fill:#020202;" d="M1559.111,2860.233c1.049,0.035,2.098,0.073,3.144,0.17c6.346,0.598,12.237,3.536,16.078,8.719
		c3.688,4.978,4.046,11.016,2.698,16.905c-2.751,12.035-9.308,17.543-19.119,23.801c-1.981,0.038-3.967,0.071-5.947-0.064
		c-5.089-0.346-9.48-2.57-12.732-6.539c-3.217-3.935-3.943-9.185-3.196-14.089
		C1542.039,2875.954,1549.082,2868.017,1559.111,2860.233z"/>
	<path style="fill:#FEFEFE;" d="M1560.769,2873.794c0.709,0.366,1.447,0.686,2.127,1.102c4.257,2.584,5.007,4.515,6.331,9.144
		c-1.474,6.413-3.984,9.24-8.467,13.957c-0.39-0.226-0.794-0.422-1.166-0.671c-4.626-3.091-5.845-5.93-6.935-11.262
		C1554.227,2880.354,1556.579,2877.884,1560.769,2873.794z"/>
	<path style="fill:#FEFEFE;" d="M1050.891,1644.496c8.2-0.483,15.261,1.163,22.061,5.859c11.757,8.124,17.754,21.188,20.475,34.813
		c4.216,21.1,0.478,38.707-11.373,56.572c-25.38,13.116-55.62,21.8-82.485,31.808l-167.326,62.139
		c-164.792,61.002-328.922,124.693-494.868,182.467c-5.505,2.147-10.031,4.081-16.002,4.031
		c-1.017-40.436-1.017-76.157-27.354-109.647c27.853-12.852,59.613-21.457,88.699-31.755l169.377-61.063
		c114.596-42.674,229.65-84.074,345.161-124.201C947.394,1678.203,999.276,1656.596,1050.891,1644.496z"/>
	<path style="fill:#FEFEFE;" d="M2308.194,1536.224c23.11,2.326,48.364,11.086,71.186,16.74
		c60.085,14.889,134.485,30.838,191.2,53.54l-1100.974,510.452l-75.642,33.17c-30.964-8.824-61.758-18.398-92.61-27.609
		c18.563-12.064,45.264-21.735,60.908-36.902c18.243-17.684,13.433-51.167,13.368-74.297c30.296,11.467,62.42,20.282,93.721,28.562
		c47.769-17.06,94.342-40.251,141.161-59.944c116.562-48.178,232.208-98.463,346.937-150.856l122.742-54.085
		c23.774-10.649,48.899-20.821,70.954-34.752c37.506-23.689,78.738-68.865,112.374-99.861
		c12.477-11.499,27.029-21.785,38.487-34.193c3.729-4.037,5.309-6.161,4.922-11.607c-7.77-11.036-24.656-14.619-36.946-18.964
		C2280.992,1561.22,2294.979,1548.549,2308.194,1536.224z"/>
	<path style="fill:#FEFEFE;" d="M377.801,2362.004c46.526,18.448,95.162,32.353,142.658,48.237
		c143.074,47.842,288.258,90.946,430.137,142.011c-15.946,55.995-21.466,114.231-20.382,172.315
		c-63.164-23.795-127.465-44.813-191.227-66.958l-207.539-72.739c-57.463-19.62-115.125-37.822-171.943-59.332
		c-0.441-6.879-0.732-13.763-0.873-20.654c-0.141-6.893-0.129-13.784,0.035-20.675c0.162-6.891,0.476-13.775,0.94-20.651
		c0.465-6.879,1.081-13.743,1.849-20.593c0.766-6.849,1.682-13.68,2.748-20.49c1.066-6.811,2.281-13.594,3.645-20.35
		c1.365-6.756,2.877-13.479,4.535-20.171C374.044,2375.266,375.85,2368.615,377.801,2362.004z"/>
	<path style="fill:#FEFEFE;" d="M490.905,2188.804c28.028,6.574,55.605,17.475,83.101,26.08
		c57.893,17.543,115.573,35.758,173.042,54.645c116.587,37.591,234.308,72.041,351.249,108.58
		c-22.166,19.529-42.299,8.54-66.331,20.121c-36.029,17.361-57.185,76.342-69.937,112.386l-6.592,22.556
		c-82.075-24.308-163.005-53.783-244.292-80.631l-329.991-107.464c8.546-44.487,35.792-93.211,68.189-124.14
		C462.015,2208.837,476.646,2198.92,490.905,2188.804z"/>
	<path style="fill:#FEFEFE;" d="M790.621,1995.473c6.065,0.911,18.457,16.638,25.104,21.068c9.706,6.463,17.619,9.495,28.819,12.694
		c23.212,6.639,45.835,15.844,68.821,23.303c108.044,35.068,214.84,75.366,323.684,107.672c17.241-6.697,33.173-17.203,49.11-26.505
		l85.987,26.303c-36.727,32.502-76.852,61.661-115.45,91.893c-48.035,37.62-95.288,76.248-143.859,113.18l-21.923-6.079
		c-139.711-47.877-282.539-88.374-423.408-132.949l-102.167-32.23c-21.621-6.826-44.634-12.914-65.364-22.169
		c-7.058-3.15-13.187-8.663-19.052-13.606c21.659-9.882,42.765-22.046,63.938-33.015
		C626.878,2082.547,707.353,2035.346,790.621,1995.473z"/>
	<path style="fill:#FEFEFE;" d="M2221.385,1325.855l1.427,0.372c10.398,11.552,60.387,135.246,66.794,155.027
		c-39.782,44.007-76.134,91.682-114.979,136.676c-13.869,16.064-28.21,35.927-44.936,48.935
		c-19.518,15.185-138.905,59.464-169.16,71.95l-441.765,182.496c-18.037,7.852-36.234,15.313-54.592,22.386
		c23.218-81.287,52.128-161.379,80.611-240.958c14.751-41.209,28.195-86.247,47.282-125.496
		c32.493-17.693,70.761-28.975,105.331-42.328l201.815-78.035c41.364-15.858,83.077-31.187,123.958-48.243
		C2089.341,1381.032,2154.298,1351.428,2221.385,1325.855z"/>
	<path style="fill:#020202;" d="M2081.805,1398.423c2.997,0.393,6.085,0.794,8.985,1.673c12.586,3.806,22.919,18.999,28.564,30.255
		c18.012,35.915,28.336,93.067,15.176,131.974c-4.5,13.307-10.239,21.524-23.024,28.005c-0.381-0.029-0.762-0.067-1.143-0.088
		c-4.535-0.252-9.773-0.149-14.016-1.933c-14.522-6.106-25.849-26.786-31.491-40.579c-14.338-35.039-21.525-93.627-5.851-129.167
		C2064.098,1407.013,2070.503,1402.659,2081.805,1398.423z"/>
	<path style="fill:#FEFEFE;" d="M2071.745,1418.028l3.788,1.248c3.771,7.198,0.472,55.049,1.799,68.578
		c2.549,26.03,10.573,51.375,15.167,77.054l-2.631,1.189c-12.894-18.135-20.376-36.527-24.718-58.403
		C2059.613,1479.813,2055.221,1443.022,2071.745,1418.028z"/>
	<path style="fill:#020202;" d="M1716.889,1554.013c3.056,0.243,6.079,0.542,9.085,1.169c13.717,2.874,24.729,13.942,32.136,25.327
		c21.557,33.147,28.491,86.025,19.898,124.216c-3.715,16.515-10.535,30.706-25.105,40.084c-3.999,0.372-8.71,0.788-12.665,0
		c-12.381-2.464-23.464-17.449-29.244-27.932c-19.093-34.643-29.95-93.091-18.275-131.555
		C1696.997,1571.231,1703.541,1560.983,1716.889,1554.013z"/>
	<path style="fill:#FEFEFE;" d="M1712.363,1570.882l2.812,1.697c4.14,9.896,5.49,77.528,7.758,95.241
		c1.834,14.326,10.992,38.127,7.77,51.847l-3.041-2.033c-3.406-6.113-6.529-12.367-9.369-18.762
		c-2.842-6.395-5.391-12.904-7.646-19.529c-2.254-6.623-4.206-13.335-5.856-20.136c-1.65-6.801-2.991-13.661-4.022-20.581
		C1697.143,1614.186,1697.149,1591.355,1712.363,1570.882z"/>
	<path style="fill:#FEFEFE;" d="M2592.617,1614.722c0.258,0.032,0.531,0.009,0.774,0.094c4.787,1.693,68.317,89.426,77.18,101.171
		l29.473,9.586c-27.469,15.993-57.319,29.569-85.559,44.271l-196.978,103.266l-717.97,381.076
		c-89.259,46.691-177.613,95.356-266.402,142.966c-36.079,19.348-86.221,50.786-123.112,63.527
		c-65.643-12.949-139.863-45.592-205.509-65.423l17.979-15.413l187.779-146.959c25.395-19.898,50.071-44.402,77.599-61.084
		c21.067-12.765,46.512-21.416,69.179-31.137c43.907-18.835,88.222-37.547,131.245-58.321l425.136-200.687
		c85.15-40.986,170.726-81.066,256.726-120.24c1.333,23.294-1.811,47.496,1.031,70.524c1.623,13.163,6.255,22.714,16.904,30.908
		c22.096,17.004,58.052,19.228,84.574,15.718c16.008-2.115,43.447-7.696,53.294-21.975c14.447-20.953,13.4-83.61,7.875-107.836
		c-24.981-20.268-53.833-21.129-84.642-22.866C2427.849,1684.742,2512.08,1652.248,2592.617,1614.722z"/>
	<path style="fill:#020202;" d="M1643.808,2095.95c23.751-1.002,52.664-1.031,72.677,13.881
		c11.153,8.309,16.096,20.335,17.78,33.738c2.985,23.745,1.963,69.41-13.966,88.128c-14.391,16.907-38.936,19.145-59.552,20.616
		c-22.802,0.595-56.859-0.346-75.794-14.028c-9.724-7.028-14.514-17.918-16.286-29.49c-3.287-21.478-5.218-70.649,9.094-88.614
		C1592.574,2101.59,1621.964,2098.379,1643.808,2095.95z"/>
	<path style="fill:#BFBFBE;" d="M1586.31,2191.634c6.888,3.738,13.843,7.511,21.255,10.113
		c35.912,12.592,69.568,10.025,103.321-6.516c2.109,4.069-0.392,11.224-1.263,15.858c-1.277,1.849-2.505,3.715-4.14,5.279
		c-11.892,11.362-42.662,12.8-58.134,12.516c-15.349-0.281-47.733-2.511-58.257-15.627
		C1584.839,2207.958,1586.228,2198.152,1586.31,2191.634z"/>
	<path style="fill:#FEFEFE;" d="M1641.511,2109.509c17.273-1.315,45.826-1.532,59.871,10.702c3.507,3.053,3.466,3.709,3.75,8.297
		c-8.004,10.392-28.295,11.276-40.579,13.462c-21.173,1.646-51.571,1.863-70.298-9.583c-2.648-1.62-2.344-1.096-3.088-4.4
		C1603.317,2114.471,1624.378,2111.747,1641.511,2109.509z"/>
	<path style="fill:#FEFEFE;" d="M1716.734,2142.476c0.437,0.691,0.987,1.324,1.307,2.077c2.868,6.779,2.566,17.903-1.45,24.185
		c-7.638,11.944-25.614,18.43-38.903,21.504c-1.828,0.434-3.667,0.821-5.517,1.16c-1.848,0.342-3.703,0.637-5.567,0.885
		c-1.863,0.248-3.731,0.449-5.605,0.604c-1.875,0.154-3.751,0.262-5.628,0.323c-1.879,0.058-3.759,0.071-5.64,0.038
		c-1.879-0.033-3.756-0.114-5.631-0.24c-1.875-0.129-3.746-0.304-5.613-0.524s-3.726-0.488-5.578-0.803
		c-1.854-0.314-3.698-0.675-5.534-1.081c-1.834-0.408-3.657-0.861-5.47-1.359c-1.813-0.498-3.611-1.041-5.396-1.629
		c-1.785-0.588-3.555-1.22-5.309-1.896c-1.754-0.676-3.49-1.396-5.209-2.159c-1.717-0.764-3.414-1.57-5.092-2.42
		c-1.676-0.848-3.33-1.737-4.963-2.669c-1.633-0.932-3.241-1.903-4.825-2.915c-0.369-0.349-0.747-0.688-1.107-1.043
		c-8.894-8.698-7.313-19.436-7.474-31.011C1627.498,2157.933,1672.528,2161.467,1716.734,2142.476z"/>
</g>
</svg>
