<?xml version="1.0" encoding="utf-8"?>
<!-- Generator: Adobe Illustrator 27.5.0, SVG Export Plug-In . SVG Version: 6.00 Build 0)  -->
<svg xmlns="http://www.w3.org/2000/svg" xmlns:xlink="http://www.w3.org/1999/xlink" viewBox="0 0 612 612" width="595" height="842" preserveAspectRatio="xMidYMid meet" data-scaled="true">
<g>
	<path d="M365.658,495.599c-3.362-4.129-3.169-8.345-1.353-12.555c2.171-5.035,6.241-7.575,11.635-8.208
		c1.67-0.196,3.896,1.001,4.859-0.44c0.827-1.237,0.389-3.336,0.46-5.057c0.113-2.72,0.177-5.442,0.274-8.163
		c0.053-1.501-0.488-2.276-2.142-2.487c-5.502-0.703-10.144-3.301-14.188-6.987c-10.525-9.592-18.32-21.043-23.297-34.401
		c-1.175-3.154-6.077-4.266-8.571-1.927c-1.732,1.624-3.555,3.145-5.605,4.307c-2.056,1.165-2.549,2.149-0.97,4.305
		c2.923,3.991,4.689,8.571,5.656,13.451c1.338,6.754,0.235,13.005-3.763,18.656c-1.098,1.552-2.137,3.287-3.605,4.414
		c-7.04,5.401-10.212,12.973-12.408,21.174c-0.492,1.837-1.158,3.633-1.829,5.416c-4.949,13.134-14.43,19.831-28.446,20
		c-4.371,0.053-8.684,0.512-13.006,1.11c-3.084,0.427-5.443,1.801-7.289,4.261c-0.868,1.157-1.792,2.318-2.885,3.25
		c-2.536,2.162-5.199,1.542-6.68-1.451c-0.319-0.646-0.433-1.396-0.769-2.03c-0.595-1.123,0.185-3.14-1.665-3.359
		c-1.926-0.228-3.972-0.499-5.787,0.776c-2.326,1.635-4.836,3.428-7.749,1.961c-3.113-1.568-3.378-4.781-3.21-7.833
		c0.123-2.226-0.901-2.651-2.756-2.505c-1.371,0.108-2.678,0.417-3.98,0.838c-2.831,0.914-3.918,0.176-4.093-2.723
		c-0.628-10.39,9.131-19.116,19.356-18.085c4.669,0.471,9.634,0.855,14.267-1.452c3.912-1.947,8.218-2.184,12.527-1.617
		c1.054,0.139,1.91,0.12,2.752-0.652c7.013-6.432,13.298-13.421,17.188-22.258c0.474-1.077,0.913-2.182,1.237-3.312
		c1.276-4.44,0.967-7.926-3.183-11.412c-11.491-9.652-18.911-21.907-20.859-37.083c-0.406-3.166-0.426-6.351-0.25-9.52
		c0.115-2.072-0.726-2.475-2.566-2.26c-6.488,0.759-12.983,1.459-19.484,2.093c-1.317,0.128-2.158,0.56-2.772,1.764
		c-2.095,4.106-5.057,7.508-8.659,10.378c-3.047,2.428-3.631,6.161-4.891,9.523c-0.142,0.378-0.097,0.989,0.123,1.315
		c1.839,2.723,0.737,5.228-0.544,7.686c-0.824,1.581-0.518,2.272,1.32,2.45c1.432,0.139,2.851,0.534,4.243,0.927
		c1.397,0.395,2.456,1.253,2.634,2.796c0.171,1.489-0.517,2.655-1.701,3.498c-2.33,1.658-5.023,2.418-7.792,2.962
		c-0.115,1.064,0.721,1.478,1.243,2.038c5.017,5.384,10.004,10.794,14.335,16.76c1.116,1.537,2.202,3.132,3.031,4.833
		c2.202,4.518-0.109,8.874-5.046,9.869c-2.244,0.452-3.603-0.721-4.836-2.295c-5.265-6.719-10.485-13.472-16.262-19.774
		c-5.776-6.3-11.92-12.222-18.212-17.995c-0.539-0.494-1.013-1.457-1.975-0.449c-4.579,4.801-10.517,4.67-16.286,3.873
		c-7.112-0.983-13.606-3.478-16.879-10.756c-0.441-0.98-1.455-1.336-2.3-1.844c-4.272-2.573-7.097-6.171-7.879-11.181
		c-0.152-0.974-0.611-1.667-1.289-2.308c-6.37-6.025-7.326-13.009-3.741-20.842c1.388-3.032,1.328-3.163-2.062-3.304
		c-10.941-0.453-21.7-1.874-31.999-5.807c-4.72-1.803-9.076-4.226-12.283-8.267c-4.099-5.164-2.947-9.049,3.348-11.063
		c6.265-2.004,12.729-1.766,19.171-1.246c5.228,0.422,10.423,1.141,16.091,2.523c-2.603-3.576-4.908-6.672-7.136-9.823
		c-2.359-3.336-4.94-6.562-6.884-10.131c-2.334-4.286-5.736-7.286-9.841-9.866c-1.503,5.064-3.328,10.197-9.729,10.359
		c-6.705,0.17-9.475-4.775-11.658-10.381c-1.859,1.717-3.596,3.411-5.873,4.375c-7.017,2.97-13.465-0.902-14.063-8.499
		c-0.127-1.617,0.485-3.864-0.357-4.704c-0.979-0.975-2.915,0.588-4.511,0.788c-4.214,0.529-8.148,0.091-10.71-3.663
		c-2.656-3.891-1.818-7.96,0.315-11.842c0.602-1.095,1.386-2.09,2.231-3.347c-5.592-0.557-11.297-1.22-12.456-7.886
		c-1.052-6.045,3.04-9.262,8.184-11.789c-4.547-3.683-8.787-7.632-5.227-13.919c3.115-5.501,8.696-5.921,14.701-5.643
		c-2.774-5.929-4.522-11.765,1.257-16.345c5.543-4.393,10.973-1.605,16.413,1.566c0.17-1.783,0.251-3.36,0.482-4.914
		c0.647-4.345,2.151-8.314,6.823-9.588c4.676-1.275,8.319,1.04,11.187,4.533c1.292,1.574,2.186,3.474,3.264,5.232
		c0.925-0.389,1.113-1.265,1.573-1.903c1.178-1.632,2.463-3.151,4.144-4.285c3.29-2.218,6.857-3.089,10.559-1.358
		c3.805,1.779,5.162,5.265,5.166,9.204c0.002,2.301,0.239,3.088,2.739,1.967c3.332-1.493,6.895-1.59,10.353-0.236
		c4.591,1.798,6.546,5.506,5.249,10.246c-0.42,1.534-0.247,2.022,1.34,2.304c10.476,1.858,10.018,11.577,5.129,16.871
		c-2.212,2.395-2.152,2.395,0.79,4.083c1.093,0.627,2.155,1.371,3.075,2.228c5.622,5.239,4.548,12.215-2.419,15.396
		c-1.958,0.894-5.07,0.832-5.882,2.235c-0.86,1.484,1.656,3.64,2.19,5.771c1.9,7.589-3.511,13.723-11.586,12.75
		c-2.23-0.269-2.953-0.141-2.218,2.307c0.82,2.731,0.276,5.409-1.351,7.792c-0.557,0.816-0.808,1.508-0.171,2.451
		c4.519,6.69,9.3,13.18,14.522,19.552c0.973-1.03,1.046-2.25,1.417-3.307c3.821-10.886,9.314-20.679,18.283-28.226
		c3.863-3.25,8.134-5.77,12.967-7.301c1.674-0.53,3.382-0.71,5.112-0.531c2.702,0.279,4.119,1.863,4.314,4.705
		c0.266,3.892-0.76,7.559-1.963,11.191c-4.4,13.283-12.816,23.9-22.424,33.72c-1.333,1.363-2.722,2.672-4.101,3.989
		c-0.762,0.727-1.807,1.206-0.864,2.635c0.87,1.318,1.752,1.204,2.987,0.725c9.315-3.619,18.801-6.725,28.468-9.255
		c4.299-1.126,8.638-2.112,12.983-3.043c1.707-0.366,2.674-1.147,3.07-2.905c1.596-7.08,3.289-14.139,4.945-21.206
		c0.213-0.907,0.166-1.773-0.213-2.656c-7.136-16.621-7.209-33.487-1.721-50.541c0.11-0.342,0.184-0.696,0.256-1.048
		c0.015-0.071-0.054-0.16-0.171-0.472c-1.848,0.878-3.67,1.786-5.527,2.619c-4.139,1.857-8.484,2.815-12.997,2.167
		c-7.593-1.089-12.301-5.727-14.958-12.708c-1.626-4.27-2.17-8.799-3.185-13.215c-1.264-5.501-5.022-8.554-10.553-8.232
		c-9.268,0.539-17.486-1.742-23.979-8.684c-4.838-5.173-6.942-11.62-8.042-18.445c-1.006-6.241-1.022-12.489,0.48-18.662
		c0.754-3.102,0.552-6.076-0.344-9.111c-0.847-2.868-1.587-5.789-1.749-8.795c-0.359-6.633,2.001-12.306,6.455-17.095
		c3.087-3.32,4.009-6.754,2.322-11.183c-2.705-7.103-3.226-14.445-1.417-21.946c0.452-1.873,0.064-3.972-0.071-5.959
		c-0.75-11.023,2.123-20.505,11.464-27.279c5.62-4.075,11.893-5.915,18.755-4.781c5.992,0.99,11.19-0.122,16.138-3.763
		c10.637-7.826,22.26-13.834,35.295-16.413c30.003-5.935,56.927,0.51,79.418,21.671c14.344,13.496,21.089,30.821,22.035,50.385
		c0.918,18.981-4.712,36.511-11.915,53.753c-4.208,10.073-9.65,19.519-14.094,29.457c-2.769,6.192-4.016,12.64-2.354,19.368
		c1.346,5.449,4.524,8.315,10.124,8.697c15.445,1.055,30.347,4.214,44.487,10.68c16.403,7.501,30.593,18.132,43.216,30.861
		c9.078,9.154,17.621,18.839,26.709,27.983c19.035,19.152,42.122,31.231,67.997,38.379c14.169,3.914,28.578,6.938,42.58,11.457
		c7.976,2.574,15.712,5.691,22.474,10.804c3.16,2.39,5.795,5.219,7.331,8.953c1.497,3.637,1.383,7.167-1.082,10.297
		c-2.373,3.014-5.692,3.237-9.18,2.469c-7.878-1.737-15.639-4.036-23.724-4.775c-4.157-0.38-8.302-0.815-12.485-0.915
		c-23.921-0.572-47.719,1.038-71.473,3.722c-9.554,1.079-19.094,2.493-28.747,2.352c-1.739-0.025-2.307,0.854-2.864,2.255
		c-0.554,1.393,0.099,1.991,1.083,2.643c9.505,6.302,12.047,15.935,10.186,26.091c-3.31,18.069-4.35,36.171-4.174,54.46
		c0.068,7.091-1.105,14.121-4.221,20.652c-2.719,5.698-6.872,9.777-13.14,11.352c-4.406,1.107-7.915,3.504-10.722,7.037
		c-1.689,2.126-3.639,4.029-6.65,3.335c-2.989-0.689-4.537-3.052-5.114-5.821c-0.52-2.493-1.909-3.005-4.169-3.235
		c-6.401-0.65-12.044,0.981-17.07,4.928c-2.16,1.696-4.493,2.966-7.266,1.665c-2.883-1.353-3.204-4.185-3.545-6.912
		c-0.194-1.551,0.046-3.1,0.443-4.588c0.535-2.003,0.065-2.827-2.174-2.604c-3.629,0.361-7.214,0.759-10.556,2.382
		c-1.218,0.591-2.503,1.074-3.799,1.47c-1.477,0.451-2.672-0.018-3.445-1.422c-1.537-2.79-2.309-5.699-1.56-8.897
		c2.242-9.574,12.857-18.984,22.36-18.47c0.621,0.034,1.356,0.064,1.862-0.219C354.388,495.698,359.771,495.283,365.658,495.599z
		 M383.655,520.842c6.106-4.136,10.988-2.151,15.346,2.574c1.073,1.163,2.117,1.087,3.406,0.488c3.778-1.755,6.022-4.85,7.608-8.536
		c2.673-6.213,3.429-12.754,3.283-19.445c-0.265-12.177,0.156-24.321,1.543-36.432c0.703-6.137,2.789-12.051,2.991-18.246
		c0.26-8-0.949-15.433-8.526-20.223c-1.689-1.068-2.551-1.298-3.758,0.691c-2.642,4.353-5.763,8.391-9.661,11.731
		c-0.882,0.755-1.921,2.338-3.18,1.165c-1.341-1.25,0.333-2.211,1.033-3.147c0.596-0.797,1.305-1.512,1.978-2.25
		c6.566-7.199,11.431-15.462,15.103-24.436c3.577-8.741,5.941-17.703,4.783-27.316c-0.379-3.144-0.26-6.348-0.345-9.526
		c-0.019-0.711-0.108-1.59,0.917-1.666c0.79-0.059,1.003,0.661,1.179,1.273c0.199,0.696,0.399,1.399,0.503,2.113
		c0.683,4.678,0.918,9.393,1.031,14.111c0.105,4.408,0.051,4.395,4.337,5.522c12.747,3.35,25.796,4.013,38.875,4.311
		c18.689,0.425,37.403-1.511,56.077,0.563c12.669,1.407,24.887,4.222,35.571,11.647c1.853,1.288,2.457,0.374,2.728-1.219
		c0.374-2.195-0.574-4.105-1.714-5.88c-1.754-2.73-4.246-4.715-6.944-6.432c-7.516-4.782-15.894-7.47-24.335-10.027
		c-1.517-0.46-2.125,0.399-2.992,1.183c-6.19,5.596-15.918,4.222-19.41-3.261c-1.706-3.657-3.998-5.216-7.611-5.692
		c-0.625-0.082-1.257-0.246-1.84-0.482c-2.249-0.913-4.059-0.922-5.391,1.629c-0.791,1.516-2.344,2.502-3.88,3.339
		c-6.324,3.449-12.3,0.767-12.404-6.361c-0.073-5.042-2.194-6.99-6.388-8.027c-0.262-0.065-0.533-0.158-0.757-0.304
		c-2.033-1.324-2.633-0.284-2.899,1.637c-0.21,1.52-0.482,3.064-0.993,4.503c-1.937,5.461-5.199,6.06-8.807,1.59
		c-3.122-3.869-5.374-8.316-6.423-13.109c-0.937-4.281-3.317-6.883-6.835-9.12c-2.833-1.802-5.189-3.732-9.048-2.826
		c-3.292,0.773-4.903-1.182-4.029-4.471c0.69-2.594-0.459-3.203-2.511-3.657c-3.188-0.705-6.37-1.453-9.515-2.327
		c-2.631-0.731-5.191-1.718-7.238-3.63c-2.542-2.375-2.661-5.098-0.382-7.684c0.419-0.475,0.916-0.88,1.357-1.337
		c0.472-0.488,1.315-0.861,0.673-1.765c-0.494-0.696-1.044-1.251-2.04-0.887c-0.679,0.248-1.397,0.389-2.099,0.574
		c-5.16,1.357-10.365,1.935-15.607,0.575c-4.2-1.09-5.261-3.367-3.576-7.34c1.192-2.81,3.024-5.155,5.271-7.195
		c2.642-2.399,2.591-2.35,0.028-4.933c-1.162-1.171-1.953-1.446-3.361-0.214c-1.902,1.663-4.025,3.122-6.208,4.405
		c-5.088,2.99-10.514,4.977-16.548,4.562c-5.873-0.404-9.395-5.588-7.68-11.215c0.868-2.848,2.5-5.255,4.596-7.306
		c2.139-2.092,4.44-4.019,6.654-6.035c0.435-0.396,1.424-0.866,0.91-1.417c-1.492-1.6-3.423-2.738-5.42-3.546
		c-1.232-0.499-1.723,1.062-2.38,1.836c-4.725,5.562-9.658,10.91-16.28,14.263c-5.604,2.838-8.382,1.114-8.687-5.192
		c-0.052-1.086-0.068-2.188,0.046-3.266c0.584-5.524,1.658-10.938,3.647-16.151c0.313-0.819,1.427-1.911,0.067-2.591
		c-1.131-0.565-2.462-1.384-3.818-0.329c-0.429,0.334-0.82,0.717-1.234,1.072c-7.893,6.775-16.254,12.825-26,16.715
		c-1.6,0.639-3.205,1.281-4.965,1.362c-3.016,0.139-4.207-1.072-3.835-4.103c0.142-1.156,0.516-2.298,0.895-3.409
		c1.934-5.679,5.421-10.443,8.978-15.167c0.382-0.507,1.238-0.861,0.818-1.848c-0.621-0.04-1.253-0.063-1.881-0.124
		c-6.499-0.631-11.672-3.229-14.32-9.614c-1.232-2.971-1.862-6.065-2.012-9.261c-0.135-2.886-0.097-2.865-2.603-1.432
		c-3.624,2.072-7.248,4.144-10.915,6.138c-1.02,0.555-2.223,1.054-3.315,0.109c-1.043-0.903-0.858-2.164-0.623-3.312
		c0.388-1.899,1.407-3.53,2.51-5.094c4.108-5.827,9.344-10.543,15.643-13.692c5.14-2.569,6.797-7.263,9.126-11.715
		c-0.834,0.442-1.542,0.995-2.229,1.574c-8.117,6.847-17.114,11.837-27.716,13.765c-5.305,0.965-10.168,3.289-14.799,6.054
		c-1.158,0.691-1.967,1.438-1.891,2.981c0.283,5.798-1.186,11.329-2.655,16.869c-1.789,6.747-4.034,13.429-4.45,20.446
		c-1.132,19.107,6.611,34.371,20.717,46.751c2.914,2.557,2.99,2.47,4.381-1.046c3.633-9.184,10.257-13.442,19.149-12.294
		c1.068,0.138,2.492,0.182,2.414,1.602c-0.081,1.478-1.508,0.93-2.407,0.921c-9.275-0.094-14.17,3.194-16.65,12.094
		c-2.677,9.607-4.427,19.462-7.37,29.009c-0.388,1.26,0.074,1.84,1.328,2.075c1.779,0.335,3.566,0.686,5.295,1.211
		c1.079,0.328,2.536,0.771,2.005,2.353c-0.436,1.298-1.711,1.092-2.815,0.85c-3.843-0.842-7.733-1.072-11.645-0.786
		c-6.91,0.505-13.669,1.886-20.281,3.897c-17.39,5.288-33.256,13.122-45.195,27.424c-3.456,4.14-3.263,5.25,1.559,7.741
		c0.402,0.208,0.831,0.365,1.237,0.567c1.824,0.907,3.027,0.645,4.155-1.337c2.971-5.223,6.65-9.963,10.74-14.372
		c0.603-0.65,1.26-1.516,2.279-0.7c1.001,0.802,0.391,1.639-0.161,2.373c-1.473,1.96-3.003,3.877-4.469,5.842
		c-4.88,6.541-8.815,13.541-10.361,21.676c-0.271,1.426-0.65,2.926,0.014,4.282c1.674,3.418,9.25,5.329,12.765,3.287
		c-0.482-0.864-1.433-1.074-2.187-1.533c-1.41-0.858-2.005-1.969-1.634-3.647c1.083-4.895,2.649-9.624,4.763-14.165
		c0.386-0.83,0.734-2.159,2.083-1.526c1.257,0.59,0.636,1.698,0.313,2.624c-1.196,3.427-2.486,6.823-3.583,10.281
		c-1.296,4.087-0.958,4.576,3.196,5.584c0.352,0.085,0.706,0.178,1.064,0.22c3.284,0.382,5.155-1.327,5.114-4.574
		c-0.009-0.706,0.18-1.445,0.418-2.119c1.765-4.987,3.608-9.911,8.457-12.914c0.977-0.605,1.765-1.568,2.523-2.464
		c5.87-6.944,5.996-8.813,1.217-16.57c-0.47-0.762-1.238-1.609-0.215-2.375c0.952-0.714,1.718,0.096,2.326,0.754
		c1.955,2.116,3.241,4.625,3.781,7.434c0.294,1.53,0.998,1.86,2.424,1.729c8.675-0.799,17.303-1.922,25.935-3.105
		c12.171-1.669,20.535-7.812,25.373-19.133c2.893-6.77,5.621-13.58,7.852-20.592c0.578-1.816,1.113-3.646,1.726-5.45
		c0.272-0.801,0.751-1.522,1.769-1.351c1.041,0.174,1.19,0.989,1.142,1.863c-0.034,0.634,0.018,1.316-0.201,1.888
		c-0.622,1.622-0.059,2.389,1.496,3.085c11.056,4.95,21.486,11.019,31.332,18.063c1.827,1.307,2.375,1.043,3.057-1.016
		c2.609-7.87,5.999-15.392,10.759-22.228c0.825-1.185,1.828-2.25,2.801-3.324c0.38-0.42,0.934-0.599,1.459-0.176
		c0.496,0.4,0.541,0.961,0.25,1.47c-0.539,0.944-1.146,1.85-1.733,2.767c-8.679,13.563-14.465,28.312-14.799,44.423
		c-0.517,24.957,9.668,45.615,27.948,62.332c5.181,4.738,11.483,6.235,18.497,5.094c6.886-1.121,12.927-4.098,18.736-7.74
		c0.897-0.562,1.988-1.409,2.837-0.088c0.755,1.175-0.406,1.837-1.153,2.396c-5.89,4.413-12.276,7.778-19.681,8.74
		c-1.624,0.211-2.159,0.81-2.129,2.4c0.077,3.995,0.097,7.994-0.019,11.987c-0.062,2.115,0.779,2.478,2.635,2.024
		c3.147-0.769,6.031,0.317,7.792,2.728c1.621,2.219,2.858,2.04,5.073,1.202c3.979-1.507,9.326,0.894,10.608,4.405
		c0.307,0.84,0.704,1.861-0.434,2.372c-1.022,0.459-1.366-0.473-1.821-1.157c-1.854-2.785-4.438-3.825-7.474-3.06
		c-2.805,0.707-3.937,2.955-3.968,8.066c-0.017,2.917,2.29,1.014,3.43,1.546c1.011,0.472,2.285,0.735,2.048,2.098
		c-0.258,1.484-1.575,0.882-2.465,0.733c-2.627-0.44-4.227,0.381-4.443,3.231c-0.047,0.624-0.246,1.246-0.441,1.848
		c-0.498,1.536,0.006,1.849,1.556,1.656c2.864-0.356,5.612,0.216,8.028,1.885c0.789,0.545,1.259,1.334,0.629,2.342
		c-0.575,0.919-1.373,0.76-2.15,0.392c-1.5-0.712-3.094-1.068-4.721-1.23c-3.708-0.369-5.965,0.75-7.463,3.693
		c2.196,0.087,4.416-0.194,6.396,0.908c0.796,0.443,1.7,0.99,1.247,2.095c-0.437,1.065-1.316,0.604-2.099,0.356
		c-0.604-0.191-1.232-0.421-1.852-0.428c-2.697-0.029-5.628-0.463-7.607,1.89C386.36,513.832,384.812,517.121,383.655,520.842z
		 M143.337,194.424c-1.362,4.173-2.672,8.413-3.412,12.798c-0.716,4.246-1.01,8.571,0.471,12.653
		c3.487,9.613,12.907,15.536,23.068,14.728c7.351-0.585,14.202-3.091,20.77-6.182c10.302-4.849,20.894-8.793,31.883-11.741
		c3.589-0.963,7.081-2.28,10.647-3.334c8.105-2.394,14.743-6.624,19.486-13.904c3.579-5.492,8.862-9.054,15.374-10.502
		c2.752-0.612,5.541-1.141,8.331-0.166c1.388,0.485,2.889,1.023,2.916,2.805c0.024,1.639-1.496,1.924-2.649,2.313
		c-7.339,2.475-12.979,7.186-17.469,13.338c-2.674,3.664-5.244,7.416-7.663,11.252c-7.988,12.669-15.756,25.479-23.872,38.066
		c-4.322,6.703-10.039,12.201-16.85,16.425c-6.039,3.745-15.319,3.952-17.964-6.919c-0.952-3.914-0.985-7.913-1.522-11.861
		c-0.102-0.748,0.539-2.223-0.882-2.052c-1.011,0.122-2.097,0.897-1.673,2.551c1.102,4.301,1.558,8.754,2.981,12.985
		c2.79,8.294,8.352,11.701,16.97,10.337c2.158-0.342,4.207-1.081,6.193-2.015c5.436-2.555,9.995-6.25,13.916-10.744
		c4.477-5.131,8.914-10.299,13.314-15.497c9.671-11.427,21.413-19.473,36.257-22.655c11.837-2.537,21.208-9.201,29.085-18.107
		c3.578-4.045,6.232-8.703,7.746-13.943c3.4-11.772-0.235-24.715-12.616-30.239c-3.145-1.403-6.067-3.261-8.875-5.295
		c-5.418-3.925-7.968-9.243-8.044-15.862c-0.043-3.719-0.007-7.437-0.61-11.136c-2.356-14.451-9.72-25.066-23.581-30.563
		c-6.736-2.671-13.793-3.826-21.073-3.435c-17.119,0.921-27.931,9.853-31.557,26.635c-1.967,9.104-2.1,18.369-0.675,27.615
		c1.679,10.893-0.493,15.475-10.006,20.827c-4.746,2.67-9.619,5.116-14.339,7.831c-9.897,5.694-14.871,14.093-13.734,25.714
		c0.265,2.707,0.575,5.409,0.835,8.117c0.074,0.766-0.082,1.533-0.973,1.704c-0.998,0.191-1.238-0.686-1.365-1.35
		c-0.406-2.137-0.772-4.286-1.026-6.446c-1.436-12.179,2.397-22.002,13.006-28.725c2.375-1.505,4.801-2.935,7.255-4.309
		c3.801-2.128,7.662-4.149,11.469-6.266c5.322-2.958,7.271-7.481,6.452-13.476c-1.284-9.39-1.636-18.856-0.213-28.231
		c2.592-17.074,11.06-26.791,25.333-30.746c6.941-1.923,14.015-2.002,21.062-0.786c17.818,3.075,29.944,12.74,34.784,30.594
		c1.533,5.654,1.682,11.479,1.781,17.291c0.089,5.256,2.145,9.421,6.396,12.599c3.665,2.739,7.804,4.623,11.724,6.901
		c5.972,3.471,9.701,8.602,11.498,15.223c0.651,2.398,0.905,4.852,1.231,7.352c1.167-3.09,2.208-6.174,3.052-9.311
		c3.386-12.588,4.714-25.314,2.363-38.263c-0.695-3.827-0.725-3.852-4.218-2.41c-3.107,1.282-6.224,2.566-9.556,3.125
		c-5.238,0.88-8.624-1.452-9.132-6.714c-0.845-8.754,1.642-16.363,8.79-21.945c1.382-1.079,1.472-1.758,0.334-2.959
		c-1.747-1.845-3.415-3.765-5.083-5.682c-0.93-1.068-1.953-1.46-3.376-1.012c-3.396,1.07-6.925,1.5-10.454,1.728
		c-6.748,0.435-13.485,0.298-19.77-2.604c-5.751-2.655-6.846-7.737-2.926-12.697c1.221-1.545,2.481-3.059,3.663-4.513
		c0.13,0.047-0.269-0.111-0.676-0.241c-8.737-2.775-17.71-3.777-26.848-3.703c-4.576,0.037-8.623,0.871-12.026,4.443
		c-2.927,3.073-6.477,5.572-10.32,7.495c-2.7,1.351-4.392,0.277-4.564-2.748c-0.064-1.131-0.01-2.269-0.01-3.647
		c-8.067,3.019-15.213,7.275-22.08,12.041c-2.466,1.712-4.919,3.493-7.766,4.466c-1.84,0.629-1.77,1.397-1.177,2.982
		c2.487,6.648,3.229,13.528,2.572,20.611c-0.948,10.216-4.466,19.591-9.07,28.624c-0.559,1.096-0.974,3.292-2.528,2.559
		c-1.846-0.871-0.221-2.586,0.31-3.749c3.28-7.197,6.467-14.418,7.827-22.281c1.495-8.635,1.496-17.171-1.921-25.434
		c-0.43-1.039-0.626-2.331-2.187-2.448c-3.797-0.287-7.574-0.981-11.402-0.563c-4.663,0.51-8.482,2.63-11.879,6.109
		c7.925,1.045,12.446,4.063,15.631,10.312c2.796,5.486,3.742,11.381,3.36,17.442c-0.691,10.958-4.234,20.909-10.903,29.725
		c-3.449,4.56-6.668,9.294-10.051,13.906c-1.085,1.479-1.144,2.667-0.254,4.41c3.745,7.331,2.714,14.982,1.006,22.607
		c-0.15,0.671-0.533,1.527-1.415,1.409c-1.174-0.156-0.921-1.208-0.839-1.962c0.263-2.433,0.663-4.852,0.917-7.286
		c0.505-4.842,0.135-9.533-2.467-14.008c-1.271,1.137-1.782,2.367-2.261,3.638c2.382,0.563,2.845,0.957,3.093,3.388
		c0.417,4.092-0.039,8.157-0.787,12.178c-0.228,1.227-0.622,2.718-2.244,2.652c-1.594-0.065-1.87-1.585-2.097-2.803
		C143.007,200.504,142.933,197.512,143.337,194.424z M295.364,446.011c-0.198,3.106-0.421,5.908-1.254,8.599
		c-0.359,1.158,0.055,1.646,1.15,1.926c1.422,0.363,2.749,0.96,3.675,2.184c0.449,0.594,0.901,1.258,0.329,1.965
		c-0.662,0.819-1.355,0.465-2.145,0.002c-4.121-2.414-4.854-2.133-7.031,2.077c-0.695,1.344-0.531,1.931,0.96,2.273
		c1.818,0.417,3.356,1.373,4.477,2.899c0.52,0.708,0.738,1.514,0.071,2.24c-0.775,0.843-1.386,0.289-2.072-0.276
		c-4.634-3.813-7.319-3.077-9.646,2.655c2.16,0.262,4.398,0.123,6.355,1.252c0.819,0.472,1.544,1.14,1.014,2.201
		c-0.504,1.009-1.299,0.533-2.111,0.309c-4.437-1.222-8.717-1.762-12.034,2.574c-0.923,1.207-2.295,2.059-3.372,3.161
		c-1.319,1.348-2.706,1.906-4.634,1.307c-3.327-1.035-6.621-0.52-9.893,0.514c-2.006,0.633-3.082,2.652-4.706,3.347
		c-1.696,0.725-3.797-1.363-5.954-0.787c-0.552,0.148-1.434-0.155-1.384,0.848c0.042,0.861,0.729,0.869,1.408,0.868
		c2.58-0.001,5.172,0.29,7.268,1.849c1.512,1.125,2.613,0.892,4.139,0.135c3.701-1.835,7.633-2.248,11.651-1.125
		c1.033,0.289,2.399,0.681,2.083,2.042c-0.328,1.41-1.594,0.679-2.526,0.531c-1.984-0.315-3.982-0.373-5.973-0.155
		c-5.687,0.625-10.186,5.323-10.118,10.517c5.798-3.483,7.004-3.417,12.709,0.965c0.806,0.619,1.541,0.376,2.31,0.282
		c4.142-0.506,8.271-1.028,12.461-1.089c11.079-0.162,19.144-5.005,23.231-15.579c1.634-4.226,2.991-8.561,4.428-12.862
		c1.872-5.605,4.683-10.494,9.239-14.487c4.194-3.676,7.66-8.074,8.473-13.899c0.9-6.446-1.493-12.129-4.383-17.651
		c-0.749-1.431-1.174-3.383-2.65-3.987c-1.382-0.566-2.427,1.254-3.731,1.811c-0.855,0.365-1.755,0.856-2.483-0.04
		c-0.898-1.106,0.056-1.865,0.77-2.51c2.024-1.829,4.242-3.404,6.547-4.869c2.316-1.473,4.692-2.884,6.929-4.943
		c-1.31-0.28-2.284-0.483-3.255-0.698c-17.896-3.954-34.965-9.764-49.08-22.096c-1.803-1.576-3.433-0.344-5.107,0.007
		c-1.602,0.336-1.263,1.76-1.306,2.898c-0.648,17.157,5.781,31.294,18.255,42.873c4.482,4.161,9.236,7.901,14.853,10.45
		c0.947,0.43,2.256,1.04,1.67,2.378c-0.626,1.429-1.884,0.641-2.829,0.234C299.982,448.203,297.869,447.173,295.364,446.011z
		 M250.807,242.101c-1.966,0.843-3.023,2.115-4.207,3.195c-6.598,6.02-11.534,13.579-17.853,19.78
		c-5.787,5.679-8.831,12.314-10.776,19.899c-2.3,8.97-3.692,17.964-2.014,27.172c3.262,17.905,11.363,33.542,22.551,47.727
		c1.105,1.401,2.149,1.232,3.539,0.851c5.872-1.612,11.834-2.79,17.928-3.018c1.826-0.068,2.479-0.859,2.966-2.451
		c2.199-7.202,4.117-14.473,5.8-21.811c0.435-1.898-0.007-2.979-1.645-4.266c-14.87-11.681-23.341-26.803-23.817-45.937
		c-0.208-8.356,2.311-16.295,4.475-24.256C249.226,253.566,250.563,248.129,250.807,242.101z M338.967,409.619
		c1.514,0.309,1.068-1.32,0.677-2.943c-2.839-11.804-2.429-23.586,0.397-35.315c0.462-1.919-0.082-2.977-1.615-4.057
		c-9.675-6.821-19.91-12.656-30.564-17.799c-2.088-1.008-2.915-0.717-3.628,1.555c-2.365,7.543-5.131,14.947-9.076,21.837
		c-3.101,5.416-6.67,10.47-12.511,13.264c-2.143,1.025-2.083,1.625-0.27,2.988c6.589,4.953,13.849,8.615,21.448,11.714
		C314.746,405.318,326.1,407.979,338.967,409.619z M220.064,338.215c-1.551,6.651-3.08,12.521-4.233,18.464
		c-0.521,2.684-1.884,3.958-4.377,4.423c-0.98,0.183-1.947,0.435-2.92,0.651c-12.95,2.881-25.617,6.683-37.965,11.551
		c-2.088,0.823-2.481,1.546-0.788,3.311c2.635,2.748,5.118,5.654,7.508,8.62c1.264,1.569,2.459,2.004,4.413,1.277
		c5.954-2.215,12.115-3.776,18.232-5.47c0.949-0.263,2.01-0.503,2.749-1.092c9.343-7.446,19.891-12.6,31.111-16.488
		c1.329-0.46,1.774-0.955,0.741-2.266C229.078,354.273,224.4,346.842,220.064,338.215z M549.355,406.435
		c-6.073-3.704-12.681-6.071-19.586-7.627c-15.937-3.592-32.125-2.954-48.263-2.573c-20.544,0.485-41.026,0.586-61.103-4.705
		c-1.446-0.381-1.896-0.017-2.206,1.358c-0.937,4.16-2.003,8.296-3.635,12.247c-0.712,1.723-0.215,2.361,1.562,2.275
		c3.443-0.167,6.901-0.165,10.327-0.498c9.388-0.911,18.759-1.984,28.142-2.946c12.098-1.24,24.228-2.045,36.381-2.452
		c12.977-0.435,25.944-0.505,38.864,1.203C536.404,403.585,542.788,405.297,549.355,406.435z M192.843,256.835
		c0,1.071-0.112,2.083,0.02,3.063c0.518,3.85,1.898,7.207,5.689,8.981c1.581,0.74,2.735,0.817,2.792-1.576
		c0.073-3.074,0.714-3.521,3.867-3.377c0.812,0.037,1.62,0.179,2.429,0.277c2.359,0.287,3.986-1.354,3.625-3.672
		c-0.181-1.164-0.462-2.317-0.57-3.486c-0.219-2.361,0.824-3.403,3.163-3.239c0.722,0.05,1.436,0.226,2.158,0.266
		c2.646,0.144,4.232-1.752,3.577-4.348c-0.332-1.314-0.877-2.574-1.269-3.875c-0.365-1.21-0.868-2.499,0.223-3.581
		c1.161-1.152,2.557-0.844,3.794-0.2c2.128,1.108,3.248,0.242,4.326-1.625c3.579-6.205,7.308-12.322,11.335-18.253
		c0.566-0.834,1.964-1.89,1.076-2.747c-0.881-0.85-1.799,0.685-2.62,1.221c-1.771,1.156-4.001,1.651-3.938,4.794
		c0.109,5.423-2.82,7.424-7.722,5.001c-4.339-2.145-8.118-1.445-12.208,0.108c-1.75,0.664-2.597,1.332-1.709,3.297
		c0.767,1.699,0.72,3.566,0.243,5.343c-0.619,2.307-2.12,3.047-4.329,2.084c-2.071-0.903-4.099-1.932-6.053-3.067
		c-0.968-0.562-1.637-1.2-2.89-0.451c-1.396,0.835-0.796,1.779-0.58,2.801c0.792,3.743,0.41,7.53-2.237,10.198
		C193.12,252.696,192.279,254.394,192.843,256.835z M351.972,522.007c0.809-0.646,1.127-0.913,1.457-1.163
		c6.758-5.117,12.788-3.719,16.502,3.824c0.704,1.429,8.277,2.288,9.19,1.03c0.152-0.209,0.222-0.498,0.267-0.761
		c1.315-7.693,5.487-14.04,10.103-19.978c3.029-3.897,4.62-8.183,5.5-12.782c0.74-3.867,1.917-7.786,0.931-11.818
		c-0.741-3.031-2.785-4.465-5.988-4.244c-3.663,0.252-4.055,0.732-4.537,4.588c-0.161,1.283,0.231,1.648,1.385,1.658
		c1.266,0.011,2.566-0.079,3.715,0.613c0.852,0.513,1.947,1.067,1.504,2.251c-0.485,1.295-1.523,0.41-2.331,0.238
		c-4.216-0.896-5.758-0.006-7.16,3.96c-0.457,1.291-0.31,1.886,1.183,1.801c1.55-0.089,3.113-0.081,4.509,0.724
		c0.966,0.557,1.989,1.269,1.29,2.572c-0.637,1.188-1.496,0.365-2.323,0.037c-4.458-1.767-8.031-0.442-10.041,3.723
		c1.928,0.746,4.061,1.115,5.486,2.811c0.57,0.678,0.811,1.452,0.259,2.243c-0.51,0.73-1.068,0.374-1.63-0.011
		c-6.384-4.369-8.611-1.85-12.546,2.886c1.707,0.252,3.273,0.663,4.524,1.757c0.721,0.631,1.328,1.404,0.675,2.355
		c-0.664,0.968-1.39,0.252-2.127-0.083c-2.705-1.23-5.86-2.021-8.392-0.844C358.182,511.806,354.239,515.798,351.972,522.007z
		 M141.908,228.488c2.871,7.387,7.464,12.366,14.725,14.63c4.987,1.555,10.058,1.223,15.098,0.31
		c8.96-1.624,17.134-5.316,24.955-9.832c7.031-4.059,14.35-7.4,22.196-9.56c7.29-2.007,13.58-5.821,19.622-10.333
		c9.443-7.053,15.782-17.838,27.294-22.416c-1.012-0.103-1.909-0.029-2.791,0.125c-7.107,1.241-12.106,5.535-16.033,11.265
		c-3.944,5.755-9.186,9.717-15.782,11.936c-2.666,0.897-5.288,1.936-7.979,2.75c-13.638,4.129-27.305,8.131-40.14,14.53
		c-3.875,1.932-8.136,3.095-12.356,4.211c-10.558,2.791-19.968,1.138-27.717-7.07C142.844,228.871,142.576,228.816,141.908,228.488z
		 M108.621,273.85c-7.742,0.32-14.075,3.283-18.051,10.192c-3.209,5.575-1.344,10.306,4.694,12.586
		c7.707,2.911,18.934-0.375,23.847-6.979c4.298-5.778,2.035-12.826-4.823-15.03C112.452,274.028,110.567,273.84,108.621,273.85z
		 M365.033,309.31c6.378-0.401,12.799-3.728,18.628-8.456c0.796-0.645,0.961-1.16,0.082-1.936
		c-4.285-3.786-8.617-7.508-13.314-10.784c-0.836-0.583-1.626-0.735-2.478-0.05c-3.894,3.13-7.868,6.227-10.408,10.629
		C354.208,304.491,357.14,309.388,365.033,309.31z M76.417,250.374c-3.667-0.09-5.767,2.15-5.426,5.818
		c0.217,2.333,1.191,4.357,2.629,6.177c4.793,6.069,11.572,9.547,17.847,13.682c0.602,0.397,1.117,0.306,1.758-0.028
		c5.445-2.836,5.461-2.828,2.273-7.944c-3.174-5.094-6.441-10.13-11.044-14.093C82.152,252.004,79.589,250.477,76.417,250.374z
		 M133.649,323.501c-0.027-1.604-0.739-3.572-1.748-5.402c-4.165-7.558-10.46-13.415-16.066-19.809
		c-1.604-1.83-3.009,0.69-4.547,1.019c-1.244,0.266-0.629,1.429-0.315,2.272c1.674,4.5,3.321,9.011,5.014,13.504
		c1.246,3.307,2.462,6.632,4.375,9.638c1.29,2.029,2.88,3.741,5.154,4.673C129.274,330.937,133.586,328.084,133.649,323.501z
		 M142.018,315.143c4.494,0.066,6.735-3.606,4.952-8.203c-1.093-2.817-3.267-4.744-5.636-6.465
		c-4.597-3.34-9.967-5.097-15.062-7.439c-3.044-1.399-5.201-1.438-7.385,1.454c-1.016,1.344-1.095,1.953-0.022,3.085
		c4.741,5.005,9.628,9.853,15.051,14.124C136.285,313.566,138.855,315.086,142.018,315.143z M159.242,363.547
		c14.185-11.828,25.711-25.418,29.096-44.311C173.613,330.69,164.485,345.827,159.242,363.547z M113.152,323.808
		c-0.076-7.564-2.252-14.665-4.724-21.709c-0.473-1.348-1.128-1.657-2.6-1.496c-1.999,0.219-2.792,0.993-3.033,2.987
		c-0.804,6.651-2.887,13.135-2.673,19.92c0.114,3.613,0.971,7.052,3.356,9.867c3.047,3.596,6.969,2.856,8.644-1.521
		C113.118,329.254,113.171,326.535,113.152,323.808z M331.832,269.288c-6.51-1.987-12.774-3.08-19.167-3.507
		c-0.811-0.054-1.341,0.403-1.821,0.99c-4.267,5.202-8.206,10.611-10.439,17.046c-0.363,1.047-1.231,2.307-0.272,3.316
		c1.037,1.091,2.478,0.383,3.581-0.03C314.189,283.182,323.178,276.904,331.832,269.288z M81.016,324.332
		c0.161,2.143,0.38,4.782,3.009,5.869c2.593,1.072,4.99-0.028,6.963-1.847c2.89-2.665,4.383-6.175,5.576-9.807
		c1.556-4.735,2.538-9.617,3.423-14.515c0.193-1.067,1.138-2.682-0.531-2.976c-1.757-0.31-3.834-2.016-5.497,0.123
		c-3.718,4.784-7.717,9.378-10.513,14.817C82.155,318.506,81.105,321.095,81.016,324.332z M106.348,264.785
		c-0.266-2.78-0.489-7.227-1.167-11.604c-0.681-4.397-1.8-8.772-5.127-12.054c-3.338-3.293-6.988-2.293-8.144,2.142
		c-0.294,1.128-0.472,2.314-0.503,3.479c-0.24,9.108,4.312,16.471,8.776,23.859c0.421,0.697,1.011,0.968,1.839,0.765
		C106.48,270.281,106.459,271.621,106.348,264.785z M168.994,136.916c0.436-7.066-0.313-13.491-3.862-19.357
		c-2.643-4.368-6.667-6.502-11.648-6.997c-2.208-0.219-3.802,0.603-4.885,2.64c-2.693,5.063-3.116,10.415-2.475,16.073
		C155.151,123.541,164.25,126.997,168.994,136.916z M336.127,291.075c0,1.088-0.094,2.186,0.019,3.262
		c0.272,2.613,1.395,3.301,3.876,2.427c0.765-0.27,1.52-0.61,2.218-1.022c6.033-3.559,10.79-8.515,15.178-13.881
		c0.988-1.208,0.569-1.844-0.63-2.497c-4.464-2.432-9.037-4.615-13.763-6.498c-1.813-0.722-2.838-0.41-3.513,1.505
		C337.601,279.789,336.249,285.307,336.127,291.075z M65.495,268.636c-1.084,0.215-2.706,0.428-4.262,0.872
		c-1.822,0.519-3.29,1.553-3.655,3.601c-0.371,2.078,0.776,3.44,2.274,4.597c2.329,1.798,4.981,2.918,7.794,3.718
		c4.906,1.395,9.984,1.639,14.987,2.396c3.295,0.499,5.208-0.26,6.579-3.327c0.66-1.478,0.765-2.186-0.713-2.977
		c-3.512-1.878-6.949-3.898-10.467-5.766C74.292,269.763,70.238,268.882,65.495,268.636z M297.501,129.97
		c-0.132,6.576,2.329,8.545,8.743,6.923c2.995-0.757,5.779-2.11,8.661-3.185c1.653-0.617,1.686-1.566,1.266-2.947
		c-1.829-6.012-4.36-11.698-7.652-17.059c-1.023-1.666-1.933-1.793-3.404-0.54C299.925,117.584,297.824,123.364,297.501,129.97z
		 M280.977,100.933c4.184-0.191,8.252-0.479,12.262-1.274c0.653-0.129,1.671-0.022,1.852-0.845c0.176-0.803-0.748-1.153-1.291-1.581
		c-6.165-4.855-12.895-8.719-20.169-11.687c-2.416-0.986-4.362-0.742-6.172,1.068c-0.769,0.769-1.609,1.474-2.327,2.286
		c-3.534,3.999-2.772,7.484,2.095,9.649C271.643,100.514,276.377,100.616,280.977,100.933z M181.981,403.861
		c-0.811-0.071-1.166-0.11-1.522-0.132c-4.888-0.301-7.039-2.373-7.17-7.204c-0.046-1.7-0.97-1.34-1.973-1.295
		c-5.67,0.255-10.849-1.126-14.907-5.24c-1.869-1.896-2.607-1.129-3.373,0.728c-0.241,0.583-0.47,1.178-0.632,1.786
		c-1.536,5.735,2.493,12.536,8.886,15.019C168.73,410.414,175.445,408.925,181.981,403.861z M138.35,283.239
		c-3.857-0.253-7.897,0.536-11.976,0.582c-2.671,0.03-1.848,2.452-2.526,3.827c-0.569,1.152,0.229,1.62,1.183,1.948
		c5.393,1.853,10.608,4.223,16.145,5.655c4.034,1.043,8.101,1.148,12.019-0.425c4.643-1.864,5.046-5.37,1.07-8.369
		c-1.393-1.051-2.97-1.703-4.639-2.191C146.009,283.208,142.308,283.112,138.35,283.239z M109.305,262.621
		c-0.139,1.948-0.332,3.486-0.329,5.023c0.002,1.046-0.721,2.635,1.129,2.816c1.814,0.178,3.878,1.66,5.373-0.814
		c3.147-5.208,6.16-10.474,8.019-16.314c0.891-2.8,1.339-5.657,0.979-8.58c-0.406-3.292-2.667-4.664-5.846-3.694
		c-2.516,0.767-4.107,2.563-5.371,4.734C110.155,251.125,108.892,256.89,109.305,262.621z M69.22,317.413
		c2.561,0.087,4.913-1.06,7.134-2.519c5.451-3.582,9.712-8.408,13.787-13.403c0.662-0.811,2.448-1.839,1.352-2.781
		c-1.365-1.173-2.513-3.587-4.888-2.76c-6.678,2.324-13.354,4.713-18.708,9.631c-1.843,1.694-3.273,3.658-3.693,6.185
		C63.555,315.661,65.091,317.433,69.22,317.413z M106.496,366.079c6.466,8.805,40.117,16.417,50.666,11.649
		C141.248,369.717,124.442,366.46,106.496,366.079z M146.393,265.09c-0.994,0.078-2.014,0.038-2.977,0.254
		c-7.627,1.713-13.912,6.009-20.077,10.523c-0.451,0.33-0.676,0.699-0.553,1.372c0.574,3.133,1.844,4.086,5.089,3.694
		c0.629-0.076,1.268-0.077,1.898-0.148c5.588-0.63,11.183-1.269,16.384-3.612c2.7-1.216,5.057-2.899,6.212-5.786
		c1.279-3.199-0.134-5.628-3.529-6.123C148.034,265.146,147.212,265.148,146.393,265.09z M86.121,290.254
		c-0.519-1.247,1.311-3.751-1.871-3.737c-5.354,0.025-10.719-0.144-16.058,0.148c-3.596,0.197-7.267,0.72-10.319,2.982
		c-1.526,1.132-2.605,2.695-2.288,4.655c0.33,2.043,2.014,2.901,3.86,3.369c2.495,0.632,5.017,0.614,7.569,0.357
		c5.729-0.577,11.192-2.196,16.629-3.99C85.56,293.405,87.138,292.79,86.121,290.254z M368.366,501.154
		c-3.985-1.206-7.734-1.303-11.478-0.415c-1.987,0.472-4.062,0.86-1.323,3.255c0.256,0.224,0.399,0.611,0.517,0.949
		c0.244,0.697,0.488,1.53-0.224,1.997c-0.768,0.504-1.4-0.105-1.791-0.735c-0.814-1.311-1.839-2.091-3.463-2.283
		c-8.78-1.038-17.305,4.288-20.17,12.704c-0.12,0.352-0.509,0.766,0.105,1.122c1.383-1.466,2.85-2.801,4.624-3.763
		c5.33-2.891,10.126-1.716,13.539,3.404c1.063,1.594,1.452,0.2,1.846-0.399c2.8-4.26,6.581-7.439,10.802-10.206
		C363.814,505.17,366.189,503.394,368.366,501.154z M137.851,251.629c-3.999,0.045-6.91,1.953-9.457,4.538
		c-4.043,4.103-7.061,8.962-9.958,13.888c-0.433,0.737-1.999,1.588-0.382,2.674c1.237,0.83,2.272,1.838,4.025,0.439
		c4.395-3.508,9.246-6.379,14.033-9.325c1.935-1.191,3.875-2.4,5.288-4.218c1.211-1.558,2.714-3.175,1.595-5.361
		C141.911,252.151,139.809,251.774,137.851,251.629z M176.46,389.433c-0.735-0.9-1.278-1.619-1.875-2.288
		c-8.398-9.411-16.62-18.967-24.384-28.915c-5.861-7.51-11.798-14.959-17.189-22.822c-0.467-0.681-0.812-1.815-2.058-1.082
		c-1.418,0.834-0.082,1.499,0.169,2.213c0.117,0.334,0.371,0.621,0.567,0.926c11.63,18.052,25.435,34.418,39.293,50.747
		C172.497,389.995,174.064,390.497,176.46,389.433z M202.433,425.844c0.237,0.382,0.378,0.716,0.61,0.967
		c0.862,0.932,1.71,1.884,2.64,2.745c11.284,10.453,21.54,21.832,30.832,34.087c0.677,0.893,1.212,2.647,2.891,1.445
		c1.558-1.116,0.354-2.317-0.268-3.3c-1.259-1.992-2.588-3.954-4.048-5.802c-6.76-8.553-14.19-16.516-21.554-24.544
		C210.507,428.141,206.932,426.361,202.433,425.844z M140.494,192.859c2.699-8.129,7.853-14.713,12.401-21.695
		c2.486-3.817-3.237-2.296-3.863-4.579c-0.326-1.191-1.4-0.735-1.968,0.248c-0.045,0.078-0.09,0.158-0.145,0.23
		c-1.328,1.722-2.591,3.498-3.997,5.153C137.536,178.552,137.782,185.548,140.494,192.859z M183.789,318.39
		c-2.649,0.555-4.868,1.774-6.916,3.263c-12.462,9.065-18.452,21.983-21.634,36.549c-0.178,0.816-0.196,1.925,0.72,2.087
		c0.997,0.176,1.004-1.049,1.26-1.74c3.59-9.663,8.335-18.689,14.586-26.916C175.423,326.873,179.362,322.42,183.789,318.39z
		 M393.29,321.033c2.855-0.316,5.625-0.649,8.354-1.375c1.73-0.46,1.575-1.047,0.568-2.114c-2.858-3.026-5.708-6.061-8.517-9.132
		c-0.933-1.02-1.771-1.026-2.785-0.163c-2.648,2.253-4.934,4.754-6.288,8.041c-0.827,2.009-0.112,3.056,1.771,3.704
		C388.657,320.772,391.03,320.704,393.29,321.033z M185.64,415.337c-2.546-0.206-4.925-0.42-6.089-2.222
		c-1.742-2.696-3.705-2.551-6.135-1.462c-0.4,0.179-0.896,0.129-1.336,0.236c-4.093,0.995-8.042-0.079-12.537-1.206
		c2.619,6.281,7.753,7.972,13.066,9.237C177.662,421.124,182.12,420.123,185.64,415.337z M145.361,140.164
		c3.83-2.657,7.557-3.805,11.68-2.988c1.015,0.201,2.418,0.172,2.736,1.378c0.264,1.002-1.045,1.325-1.63,1.967
		c-1.264,1.387-1.944,2.982-0.981,4.697c0.941,1.675,2.657,1.653,4.351,1.335c0.958-0.18,1.895-1.023,2.853-0.524
		c1.844,0.959,1.525-0.479,1.565-1.347c0.148-3.22-1.015-6.042-2.837-8.619c-2.419-3.422-5.556-5.598-9.923-4.735
		C148.802,132.191,146.283,135.054,145.361,140.164z M108.711,363.054c15.357,0.628,30.206,3.518,44.445,9.49
		c-2.281-2.341-3.679-5.516-7.108-6.523c-8.291-2.434-16.75-3.841-25.375-4.23C116.636,361.608,112.63,361.878,108.711,363.054z
		 M293.289,230.602c-7.693,2.537-18.577,13.744-17.983,18.622c5.17-2.393,9.781-5.588,14.61-8.39
		c0.22-0.128,0.453-0.365,0.523-0.598C291.391,237.079,292.315,233.914,293.289,230.602z M186.678,418.128
		c-4.582,5.974-10.421,5.453-16.415,4.954c5.581,6.567,19.468,8.76,23.014,3.74C189.346,425.647,186.863,423.184,186.678,418.128z
		 M444.766,355.127c2.073,6.306,3.83,11.799,7.88,16.18c1.751,1.893,2.666,1.751,3.782-0.57c1.114-2.317,1.393-4.846,1.772-7.348
		c0.112-0.742-0.137-1.227-0.765-1.559C453.457,359.723,449.477,357.619,444.766,355.127z M351.252,530.119
		c0.147,0.847-0.272,2.065,0.716,2.656c1.053,0.629,1.87-0.373,2.631-0.915c3.132-2.231,6.477-4.002,10.193-5.03
		c2.623-0.726,2.847-1.319,1.365-3.571c-0.73-1.11-1.704-1.889-2.967-2.259C358.125,519.519,351.254,524.715,351.252,530.119z
		 M382.425,530.553c0.017,0.231-0.025,0.704,0.1,1.127c0.374,1.269,0.374,3.007,1.854,3.362c1.246,0.299,1.883-1.201,2.613-2.063
		c2.318-2.733,4.997-4.99,8.315-6.379c1.574-0.659,1.66-1.289,0.467-2.477c-2.325-2.315-5.263-3.171-7.868-2.123
		C384.63,523.319,382.414,526.687,382.425,530.553z M238.596,498.318c5.959-1.812,7.793-1.083,12.601,4.935
		c0.893-3.217,1.758-6.322,3.516-9.066c0.854-1.333-0.239-1.743-1.133-2.172C248.345,489.502,240.871,492.54,238.596,498.318z
		 M471.819,370.67c0.259,2.641,0.144,5.732,3.133,6.928c3.117,1.247,6.029,0.139,8.448-2.146c0.328-0.309,0.61-0.666,0.93-0.984
		c1.428-1.417,1.329-2.272-0.781-2.852c-3.042-0.836-6.07-1.775-9.014-2.904C472.417,367.899,471.424,368.122,471.819,370.67z
		 M170.112,391.904c-3.223-3.737-6.12-6.952-8.842-10.309c-1.487-1.834-2.572-0.957-3.762,0.173
		c-1.263,1.199-2.811,2.457-1.154,4.313C159.833,389.978,164.131,392.151,170.112,391.904z M418.52,335.934
		c0.107-0.202,0.215-0.403,0.322-0.605c-3.105-3.245-6.232-6.47-9.303-9.747c-0.891-0.95-1.626-0.768-2.566-0.11
		c-2.898,2.03-2.998,4.533-0.053,6.468C410.443,334.255,414.488,335.112,418.52,335.934z M502.054,376.714
		c2.152,7.109,10.253,10.023,15.843,5.992c0.639-0.461,2.033-1.273,0.26-1.786C512.89,379.393,507.547,378.128,502.054,376.714z
		 M368.093,488.025c2.703-1.823,5.567-3.471,8.633-2.215c3.196,1.309,4.133-0.139,4.759-2.731c0.127-0.524,0.37-1.02,0.511-1.542
		c0.187-0.691,0.016-1.167-0.734-1.486C375.569,477.631,369.085,481.431,368.093,488.025z M187.29,249.862
		c0.382,3.982,0.718,7.656,1.091,11.326c0.266,2.618,0.709,5.205,2.041,7.527c1.949,3.399,4.834,4.467,8.217,3.094
		c-5.373-2.155-7.933-6.3-8.394-11.895c-0.185-2.25-0.369-4.508-0.369-6.762C189.874,251.484,189.332,250.399,187.29,249.862z
		 M230.7,490.9c4.415,1.307,8.619,2.489,12.287-1.307c0.45-0.466,1.536-0.364,1.355-1.382c-0.13-0.731-0.612-1.282-1.304-1.622
		C239.303,484.75,232.918,486.895,230.7,490.9z M194.685,243.475c0.065-3.392-0.344-3.661-3.438-2.29
		c-0.494,0.219-0.994,0.424-1.488,0.643c-4.031,1.794-4.062,1.828-0.793,4.898c1.073,1.008,2.137,2.822,3.692,2.257
		c1.723-0.626,1.776-2.737,2.02-4.429C194.728,244.202,194.685,243.835,194.685,243.475z M188.333,394.232
		c-3.137,0.758-6.24,1.172-9.362,1.524c-1.208,0.136-3.004-0.216-3.015,1.862c-0.011,1.961,1.525,2.473,3.058,2.863
		c1.172,0.298,2.369,0.28,3.409-0.38C184.78,398.604,186.867,396.802,188.333,394.232z M226.195,80.931
		c-2.817,0.7-5.643,1.364-8.447,2.109c-2.801,0.744-3.592,2.003-3.332,4.894c0.124,1.384,0.688,1.791,1.926,1.096
		C220.031,86.96,223.248,84.277,226.195,80.931z M221.564,424.672c-2.622-0.738-4.773-0.507-6.899,1.124
		c-1.085,0.832-1.351,0.983-0.304,2.04c3.526,3.56,7.714,4.672,12.677,3.832C219.282,428.594,219.282,428.594,221.564,424.672z
		 M331.308,521.744c4.685-2.032,8.793-2.899,13.09-2.844c0.603,0.008,1.388,0.093,1.583-0.684c0.179-0.715-0.45-1.148-0.961-1.491
		c-1.384-0.928-2.933-1.414-4.601-1.279C336.5,515.763,333.879,518.061,331.308,521.744z M256.473,511.377
		c2.311-2.819,4.682-5.232,7.74-6.922c1.365-0.754-0.007-1.285-0.661-1.563c-2.338-0.991-4.519-0.602-6.225,1.249
		C255.484,506.139,254.772,508.44,256.473,511.377z M196.062,419.781c-0.067-2.1-2.899-5.597-4.839-5.017
		c-2.035,0.609-1.223,2.75-1.31,4.216c-0.155,2.594,1.256,3.674,4.213,3.409C195.214,422.291,196.246,421.846,196.062,419.781z
		 M196.915,411.556c2.429-7.015,2.43-7.02-4.191-9.01c-0.743-0.223-1.661-0.834-2.223,0.054c-0.557,0.88,0.454,1.429,0.892,2.048
		C193.046,406.986,195.789,408.437,196.915,411.556z M247.755,503.626c-0.958-1.761-2.156-2.628-3.697-3.058
		c-2.944-0.823-6.155,1.704-5.85,4.615c0.127,1.21,0.558,1.953,1.904,1.099C242.36,504.854,244.897,504.198,247.755,503.626z
		 M190.186,410.596c-2.121-1.394-4.126-2.203-5.96-3.315c-1.459-0.884-3.226,0.279-3.96,1.431c-0.899,1.41,0.791,2.168,1.845,2.671
		C184.741,412.639,187.323,412.257,190.186,410.596z M368.028,495.59c3.463,0.976,4.555,0.433,6.766-3.192
		c0.271-0.444,0.794-0.883,0.48-1.433c-0.398-0.698-1.095-0.421-1.694-0.267C370.911,491.384,369.871,493.829,368.028,495.59z
		 M208.477,236.602c-0.337-1.173,0.229-3.212-1.467-3.231c-1.413-0.016-3.073,0.892-4.049,2.248
		c-0.296,0.412,3.715,2.994,4.581,2.898C208.819,238.376,208.284,237.337,208.477,236.602z M182.125,247.47
		c-0.186-0.811,0.409-2.289-1.113-1.901c-1.468,0.374-3.814,0.335-4.044,1.892c-0.155,1.048,1.835,2.516,3.334,2.715
		C182.204,250.429,181.686,248.495,182.125,247.47z M228.096,496.483c2.147,0.038,4.189-0.648,6.215-0.036
		c0.424,0.128,0.952,0.076,1.098-0.493c0.135-0.527-0.274-0.802-0.641-1.069C232.845,493.49,229.806,494.154,228.096,496.483z
		 M224.142,226.972c1.938,0.799,3.249,2.152,4.745,1.091c0.971-0.688,1.141-2.087,0.737-3.539
		C227.871,225.307,226.316,226.001,224.142,226.972z M154.285,150.097c-0.268-0.623-0.599-1.416-1.603-1.357
		c-1.003,0.058-1.363,0.782-1.327,1.701c0.037,0.942,0.527,1.622,1.499,1.527C153.743,151.879,154.254,151.222,154.285,150.097z
		 M429.705,344.138c-1.65-0.343-1.907-2.34-3.659-1.538c-0.514,0.235-0.701,1.15-0.274,1.716
		C426.784,345.657,427.946,345.129,429.705,344.138z"/>
	<path d="M289.323,266.639c1.255,0.503,3.989-1.098,4.085,1.168c0.081,1.905-2.685,0.853-4.137,1.289
		c-3.123,0.938-6.228,1.931-9.35,2.871c-2.092,0.63-4.234,1.079-6.417,1.125c-2.644,0.056-3.683-1.17-3.18-3.743
		c0.668-3.415,1.993-6.594,3.825-9.548c0.778-1.254,1.81-2.275,3.221-2.828c3.304-1.295,5.877,0.53,5.771,4.084
		C282.974,266.598,283.17,266.782,289.323,266.639z M282.877,268.405c-3.226-1.398-2.651-3.782-2.254-6.161
		c0.188-1.128,0.598-2.5-0.817-3.124c-1.524-0.672-2.641,0.284-3.444,1.44c-1.833,2.639-2.867,5.638-3.688,8.72
		c-0.289,1.085,0.094,1.617,1.204,1.45C276.797,270.292,279.747,269.94,282.877,268.405z"/>
	<path d="M212.08,137.066c2.444-6.229,6.218-11.122,12.268-14.109c13.398-6.615,30.107,0.895,35.399,15.958
		c5.045,14.36-2.074,28.997-16.486,33.902c-0.337,0.115-0.664,0.256-0.948,0.565c4.129-0.098,7.978-1.295,11.673-3.101
		c3.367-1.645,6.306-3.934,9.281-6.169c0.751-0.564,1.598-1.13,2.367-0.139c0.577,0.744,0.002,1.379-0.566,1.861
		c-9.917,8.42-21.021,13.002-34.162,9.648c-12.16-3.104-20.641-14.028-21.99-27.568c-0.987-9.903,0.867-19.266,4.871-28.347
		c6.226-14.117,19.068-17.452,30.456-16.795c1.355,0.078,2.726,0.221,4.042,0.532c0.944,0.223,2.559,0.109,2.241,1.702
		c-0.253,1.267-1.558,0.943-2.537,0.814c-3.071-0.405-6.153-0.406-9.241-0.294c-2.189,0.08-4.326,0.474-6.427,1.063
		c-6.521,1.829-11.487,5.551-14.671,11.66C214.352,124.581,212.01,131.909,212.08,137.066z M216.895,137.531
		c6.992-3.586,9.492-4.263,13.869-3.821c2.472,0.25,2.694,0.667,1.272,2.648c-1.133,1.578-1.78,3.284-0.796,5.064
		c1.072,1.938,3.057,1.651,4.871,1.463c0.71-0.074,1.489-0.218,2.078-0.584c1.892-1.177,2.742-0.307,3.379,1.443
		c2.794,7.668,2.527,15.101-1.54,22.296c-0.407,0.72-1.346,1.266-0.995,2.325c7.464,0.298,15.821-7.629,17.213-16.277
		c1.887-11.721-4.877-22.734-16.013-26.072C230.662,123.147,221.133,127.735,216.895,137.531z M227.287,150.964
		c0.997-0.099,1.716-0.524,1.801-1.601c0.091-1.155-0.458-1.903-1.618-2.031c-1.094-0.121-1.697,0.614-1.804,1.559
		C225.54,149.995,226.168,150.724,227.287,150.964z"/>
	<path d="M184.035,191.419c-10.269,5.055-15.753,19.267-11.45,29.249c0.366,0.849,1.272,1.958-0.135,2.53
		c-1.241,0.504-1.688-0.787-2.12-1.625c-1.92-3.729-2.682-7.618-1.872-11.832c1.703-8.867,6.594-15.555,13.819-20.691
		c1.096-0.779,2.368-1.605,3.746-0.648c1.259,0.874,0.99,2.284,0.758,3.509c-1.319,6.983-4.139,13.3-8.664,18.805
		c-0.846,1.029-1.883,2.356-3.395,1.53c-1.394-0.762-0.789-2.276-0.469-3.456c1.054-3.887,2.84-7.443,5.183-10.709
		c0.467-0.651,1.043-1.473,1.728-1.674C183.784,195.637,183.781,193.587,184.035,191.419z"/>
	<path d="M306.094,145.754c2.528,0.029,4.355,1.829,4.29,4.226c-0.067,2.448-1.665,4.479-3.485,4.428
		c-2.469-0.069-5.568-3.206-5.459-5.527C301.526,147.028,303.467,145.724,306.094,145.754z M308.049,150.149
		c-0.058-1.449-0.864-2.088-2.241-2.048c-0.94,0.027-1.947,0.25-1.783,1.444c0.188,1.365,1.252,2.226,2.534,2.397
		C307.65,152.087,307.977,151.107,308.049,150.149z"/>
	<path d="M249.089,83.48c0.742,0.064,2.491-0.393,3.153,1.281c0.699,1.77-0.827,2.778-1.941,3.79
		c-1.079,0.981-2.362,1.684-3.767,2.063c-2.197,0.592-3.427-0.646-4.159-2.492c-0.746-1.884,0.095-3.123,1.841-3.872
		C245.562,83.674,246.967,83.395,249.089,83.48z M249.114,85.964c-1.525-0.281-3.086-0.557-4.364,0.725
		c-0.394,0.395-0.201,1.182,0.319,1.393c1.855,0.753,2.953-0.557,4.084-1.684C249.192,86.36,249.141,86.232,249.114,85.964z"/>
</g>
<rect x="26.928" y="26.928" transform="matrix(-1.836970e-16 1 -1 -1.836970e-16 612 5.684342e-14)" style="fill:none;stroke:#231F20;stroke-width:4;stroke-miterlimit:10;" width="558.144" height="558.144"/>
</svg>
