<?xml version="1.0" encoding="utf-8"?>
<!-- Generator: Adobe Illustrator 27.5.0, SVG Export Plug-In . SVG Version: 6.00 Build 0)  -->
<svg xmlns="http://www.w3.org/2000/svg" xmlns:xlink="http://www.w3.org/1999/xlink" viewBox="0 0 2300 2000" width="595" height="842" preserveAspectRatio="xMidYMid meet" data-scaled="true">
<rect style="fill:#FFFFFF;" width="2300" height="2000"/>
<g>
	<path style="fill:#FFFFFF;" d="M2117.681,1345.146c-0.04,0.45-0.07,0.89-0.12,1.34c-2.43,27.37-11.06,50.6-23.97,69.84
		c-10.88,16.22-24.81,29.61-40.64,40.23c-16.52,11.1-35.1,19.19-54.45,24.34c-16.66,4.46-33.88,6.74-50.83,6.91
		c-20.06,0.22-39.74-2.52-57.66-8.12c-12.16-3.78-23.46-8.89-33.56-15.25l-0.04-0.03c-2.2-1.39-4.35-2.84-6.43-4.36
		c-80.43-58.6-85.02-83.87-85.02-83.87l71.23-82.73c0,0,12.47,31.72,35.43,59.63c11.53,14.01,25.69,27.05,42.25,34.65
		c9.07,4.16,18.87,6.68,29.34,6.83c0.7,0.01,1.41,0.01,2.13,0c15.7-0.26,32.06-7.2,45.64-18.88c2.02-1.73,3.97-3.56,5.85-5.5
		c7.72-7.93,14.21-17.51,18.72-28.3c1.52-3.65,2.82-7.43,3.85-11.34c3.23-12.14,3.96-25.44,1.31-39.41
		c-1.2-6.37-3.11-12.89-5.81-19.49c-5.64-13.79-14.72-27.97-28.03-42.1c-4.5-4.79-9.49-9.58-15-14.34
		c-5.91-5.11-12.41-10.19-19.54-15.23c-6.79-4.79-14.14-9.54-22.1-14.23c-2.16-1.28-4.37-2.55-6.63-3.82
		c-21.79-12.24-40.66-29.17-54.51-49.97c-68-102.11,53.76-103.91,124.41-51.26c1.81,1.35,3.59,2.74,5.33,4.16
		c3.39,2.77,6.63,5.66,9.7,8.69c8.14,8.01,16.78,16.3,25.51,25.16c15.35,15.58,30.96,32.93,44.53,53.63
		c8.88,13.53,16.89,28.5,23.38,45.35c8.21,21.25,14,45.49,16.11,73.61C2119.301,1307.836,2119.261,1325.726,2117.681,1345.146z"/>
	<g>
		<g>
			<path style="fill:#231F20;" d="M2012.275,1278.423l-2.002-4.894c-5.688-13.907-14.787-27.556-27.042-40.564l-4.79-5.085
				l6.358-2.895c32.518-14.803,62.998-33.819,90.595-56.521l4.301-3.538l3.056,4.656c9.828,14.975,17.635,30.118,23.866,46.297
				l1.328,3.448l-2.907,2.282c-27.23,21.368-56.834,39.719-87.988,54.541L2012.275,1278.423z M1995.135,1231.207
				c9.466,10.854,16.93,22.139,22.271,33.668c27.674-13.555,54.052-29.964,78.521-48.846c-5.069-12.563-11.174-24.511-18.547-36.297
				C2052.05,1200.006,2024.435,1217.288,1995.135,1231.207z"/>
		</g>
	</g>
	<g>
		<g>
			<path style="fill:#231F20;" d="M2121.493,1356.421l-7.179-6.133c-4.251-3.631-10.5-6.372-17.596-7.72
				c-12.702-2.404-27.916-0.91-42.628,0.533l-46.371,4.57l3.216-7.719c1.47-3.527,2.691-7.124,3.631-10.691
				c3.212-12.074,3.626-24.587,1.232-37.204l-1.02-5.371l33.432-3.296c18.103-1.778,38.542-3.785,59.703,0.233
				c3.947,0.747,7.86,1.719,11.627,2.886l3.252,1.008l0.255,3.396c1.291,17.25,1.163,35.633-0.383,54.639l-0.037,0.439
				c-0.028,0.348-0.058,0.693-0.097,1.045L2121.493,1356.421z M2081.199,1331.295c5.981,0,11.822,0.396,17.383,1.448
				c5.307,1.008,10.289,2.696,14.626,4.921c0.925-14.716,0.96-28.985,0.105-42.55c-2.383-0.644-4.813-1.202-7.263-1.665
				c-19.751-3.752-39.432-1.819-56.794-0.113l-22.764,2.244c1.635,12.276,0.879,24.442-2.26,36.241
				c-0.377,1.43-0.794,2.864-1.25,4.298l30.128-2.969C2062.455,1332.232,2071.993,1331.295,2081.199,1331.295z"/>
		</g>
	</g>
	<g>
		<g>
			<path style="fill:#231F20;" d="M2049.643,1464.797l-1.575-7.167c-0.696-3.172-1.585-6.679-2.794-11.037
				c-4.275-15.36-9.982-32.855-19.897-46.123c-8.284-11.085-19.273-18.153-29.396-18.907l-4.988-0.372l0.988-13.199l1.268-1.302
				c7.573-7.78,13.524-16.777,17.689-26.741c1.744-4.188,6.841-3.595,8.519-3.396c18.003,2.102,70.185,24.721,79.069,78.966
				l0.319,1.952l-1.102,1.642c-10.857,16.187-24.99,30.182-42.007,41.598L2049.643,1464.797z M2001.696,1372.321
				c11.419,2.489,22.97,10.493,31.689,22.162c10.903,14.59,16.998,33.176,21.522,49.432c0.425,1.532,0.813,2.967,1.168,4.322
				c12.755-9.446,23.571-20.532,32.238-33.048c-5.146-27.391-22.439-44.388-36.212-53.882
				c-14.594-10.061-28.017-13.954-33.143-14.746C2014.646,1356.04,2008.853,1364.685,2001.696,1372.321z M2020.166,1343.799
				c-0.001,0.004-0.003,0.008-0.005,0.012C2020.163,1343.807,2020.165,1343.803,2020.166,1343.799z"/>
		</g>
	</g>
	<g>
		<g>
			<path style="fill:#231F20;" d="M1942.026,1492.863l0.681-5.654c3.69-30.67-0.359-63.539-4.445-91.94l-0.833-5.793l5.852,0.082
				c0.655,0.008,1.318,0.009,1.993-0.001c14.396-0.238,29.477-6.515,42.447-17.671l6.877-5.914l1.33,8.972
				c4.515,30.452,10.134,68.352,7.562,106.291l-0.241,3.567l-3.454,0.925c-16.888,4.521-34.407,6.902-52.073,7.08L1942.026,1492.863
				z M1948.948,1399.397c3.632,25.954,6.846,55.146,4.291,83.275c13.712-0.52,27.292-2.434,40.491-5.71
				c1.739-32.278-2.444-64.698-6.441-92.059C1975.281,1393.404,1962.003,1398.44,1948.948,1399.397z"/>
		</g>
	</g>
	<g>
		<g>
			<path style="fill:#231F20;" d="M1892.079,1485.565l-3.553-1.104c-12.657-3.936-24.346-9.249-34.739-15.793l-0.737-0.535
				l-0.362-0.39l-12.896-14.395l3.724-3.336c2.966-2.657,5.545-13.409,6.393-16.942c6.327-26.399,10.361-53.509,11.993-80.585
				l0.302-4.996l11.896,0.729l1.383,1.68c12.907,15.683,26.524,26.881,40.476,33.284l3.32,1.523l-0.443,3.627
				c-2.404,19.694-5.965,39.45-10.58,58.719c-2.657,11.116-6.411,24.021-14.097,35.429L1892.079,1485.565z M1859.674,1460.555
				c8.515,5.297,17.978,9.72,28.182,13.176c5.496-9.339,8.476-19.812,10.673-29.006c4.252-17.749,7.59-35.917,9.935-54.063
				c-12.836-6.539-25.28-16.655-37.087-30.147c-1.917,25.182-5.86,50.335-11.742,74.877c-1.616,6.738-3.499,13.416-6.292,18.096
				L1859.674,1460.555z"/>
		</g>
	</g>
	<g>
		<g>
			<path style="fill:#231F20;" d="M1972.09,1221.995l-3.489-3.017c-11.622-10.05-25.386-19.784-40.908-28.935l-5.881-3.467
				l5.08-4.562c30.093-27.018,52.025-63.433,61.758-102.537l1.814-7.291l6.024,4.49c5.593,4.167,10.824,8.641,15.552,13.296
				c2.448,2.41,4.944,4.847,7.475,7.316c5.879,5.74,11.957,11.675,18.088,17.897l2.224,2.256l-1.091,2.975
				c-13.516,36.86-35.424,70.867-63.358,98.343L1972.09,1221.995z M1938.504,1184.883c12.213,7.518,23.305,15.402,33.084,23.521
				c24.611-25.106,44.109-55.549,56.65-88.463c-5.309-5.341-10.586-10.492-15.709-15.494c-2.54-2.479-5.045-4.926-7.505-7.347
				c-2.715-2.674-5.612-5.285-8.659-7.808C1985.954,1125.346,1965.682,1158.845,1938.504,1184.883z"/>
		</g>
	</g>
	<path style="fill:#231F20;" d="M1945.377,1492.819c-19.978,0-39.095-2.81-56.858-8.36c-12.649-3.933-24.338-9.246-34.732-15.791
		l-0.226-0.147c-2.298-1.457-4.494-2.949-6.53-4.438c-79.74-58.096-86.483-84.225-86.99-87.013l-0.426-2.348l78.192-90.816
		l3.036,7.709c0.123,0.311,12.482,31.352,34.639,58.284c12.906,15.682,26.524,26.88,40.475,33.283
		c8.934,4.098,18.128,6.242,27.326,6.375c0.651,0.008,1.315,0.009,1.99-0.001c14.396-0.238,29.477-6.515,42.447-17.672
		c1.922-1.644,3.775-3.389,5.519-5.188c7.581-7.787,13.532-16.784,17.697-26.748c1.468-3.522,2.689-7.119,3.629-10.686
		c3.212-12.074,3.626-24.588,1.232-37.204c-1.164-6.178-3.022-12.409-5.525-18.528c-5.688-13.905-14.785-27.553-27.042-40.565
		c-4.457-4.745-9.378-9.448-14.629-13.985c-5.844-5.053-12.288-10.075-19.157-14.93c-6.785-4.787-14.105-9.5-21.752-14.006
		c-2.036-1.206-4.172-2.438-6.542-3.769c-22.879-12.852-42.32-30.681-56.223-51.557c-30.183-45.323-22.135-68.478-10.069-79.921
		c12.553-11.905,35.863-16.037,63.948-11.337c27.132,4.541,55.446,16.648,77.681,33.218c1.846,1.375,3.697,2.819,5.504,4.294
		c3.579,2.925,6.96,5.954,10.052,9.006c2.444,2.406,4.94,4.843,7.471,7.313c5.879,5.74,11.957,11.675,18.088,17.898
		c13.202,13.399,30.265,31.691,45.151,54.397c9.826,14.972,17.633,30.115,23.864,46.294c8.893,23.018,14.421,48.264,16.431,75.033
		c1.292,17.253,1.162,35.636-0.384,54.64l-0.033,0.405c-0.028,0.34-0.057,0.679-0.094,1.022
		c-2.397,26.919-10.74,51.187-24.794,72.133c-10.857,16.185-24.99,30.181-42.007,41.597c-16.563,11.128-35.388,19.546-55.949,25.02
		c-16.881,4.519-34.401,6.9-52.066,7.078C1946.94,1492.816,1946.156,1492.819,1945.377,1492.819z M1859.294,1460.318
		c9.615,6.031,20.447,10.94,32.201,14.595c17.215,5.379,36.598,8.108,56.121,7.894c16.831-0.169,33.515-2.436,49.592-6.74
		c19.496-5.19,37.311-13.149,52.955-23.66c15.933-10.689,29.146-23.765,39.275-38.865c13.114-19.545,20.901-42.254,23.143-67.497
		l0.011-0.107c0.029-0.267,0.05-0.528,0.071-0.793l0.035-0.414c1.503-18.482,1.63-36.339,0.377-53.07
		c-1.936-25.789-7.247-50.075-15.788-72.182c-5.975-15.511-13.464-30.036-22.896-44.408c-14.405-21.973-31.034-39.793-43.912-52.864
		c-6.063-6.153-12.106-12.054-17.95-17.759c-2.54-2.479-5.045-4.926-7.505-7.347c-2.876-2.838-6.022-5.656-9.357-8.383
		c-1.691-1.38-3.427-2.733-5.154-4.021c-43.139-32.149-106.924-43.363-128.773-22.643c-13.116,12.44-9.028,36.278,11.512,67.122
		c13.031,19.568,31.288,36.299,52.798,48.382c2.438,1.37,4.64,2.639,6.73,3.878c7.872,4.638,15.423,9.5,22.434,14.447
		c7.137,5.044,13.84,10.269,19.928,15.532c5.512,4.762,10.685,9.707,15.374,14.698c13.097,13.904,22.859,28.586,29.014,43.632
		c2.757,6.741,4.808,13.624,6.095,20.456c2.675,14.094,2.207,28.099-1.391,41.621c-1.053,3.996-2.422,8.029-4.067,11.978
		c-4.653,11.135-11.299,21.182-19.752,29.864c-1.95,2.014-4.032,3.971-6.181,5.811c-14.729,12.67-32.067,19.805-48.81,20.082
		c-0.781,0.012-1.538,0.011-2.282,0.001c-10.6-0.152-21.148-2.603-31.356-7.285c-15.338-7.04-30.149-19.158-44.025-36.018
		c-16.694-20.293-27.851-42.274-32.988-53.497l-64.111,74.462c3.212,7.025,18.231,32.133,82.265,78.786
		c1.914,1.399,3.982,2.802,6.155,4.174L1859.294,1460.318z"/>
	<path style="fill:#FFFFFF;" d="M1872.259,1516.027c-18.54,41.43-108,67.78-108,67.78s-92.24,25.25-127.66,51.64
		c-3.11,2.32-5.79,4.64-7.92,6.96c-26.42,28.72-143.61,57.45-153.95,12.64c-74.69,13.78-79.28-35.62-79.28-35.62
		s-32.38-13.87-31.55-47.44c0.02-0.78,0.06-1.57,0.11-2.38v-0.01c0.22-3.14,0.73-6.44,1.57-9.91
		c-43.66,25.27-164.3,18.38-225.19,28.72c-1.13,1.85-2.35,3.66-3.66,5.43c-59.34,80.9-288.17,84.57-288.17,84.57
		s-26.43-3.83-54,22.59c-0.01,0.01-0.02,0.03-0.03,0.04c-71.22,87.28-118.32,91.87-152.78,58.56
		c-75.83,3.45-95.36-39.06-95.36-39.06s-34.43,7.04-49.69-15.03v-0.01c-0.73-1.05-1.41-2.17-2.05-3.35
		c-2.18-4.09-3.78-9.02-4.56-14.93c-4.6,2.3-60.9,21.83-68.94-3.45c-68.93,24.13-111.45,2.3-118.34-22.98
		c-34.47-8.04-50.55-27.57-39.06-89.61c11.49-62.05,97.66-62.05,97.66-62.05s0.14-0.21,0.43-0.61
		c5.13-7.09,56.26-75.21,184.55-156.05c40.21-247.43,153.95-272.1,153.95-272.1l426.26-65.28c0,0-12.64,37.91,97.66,93.06
		c113.74,52.85,250.47-42.51,290.68-61.92c40.21-19.41,97.66-44.93,198.76,12.52c181.54,105.7,122.94,361.91,125.24,383.74
		C1841.239,1464.317,1879.659,1470.647,1872.259,1516.027z"/>
	<path style="fill:#231F20;" d="M581.332,1364.152c-5.81-40.204,3.928-78.102,31.928-108.039c1.442-1.55,3.911,0.448,2.576,2.185
		c-11.807,14.436-20.765,31.222-24.736,49.437c-3.075,13.491-3.505,27.426-2.006,41.141c0.553,4.577,1.242,9.132,2.113,13.708
		C592.236,1369.296,582.466,1370.905,581.332,1364.152L581.332,1364.152z"/>
	<path style="fill:#231F20;" d="M619.607,1475.768c-10.824-44.555-7.95-86.621,12.372-128.009c0.425-0.895,1.495-1.275,2.39-0.849
		c0.866,0.412,1.246,1.437,0.883,2.313c-4.105,9.861-7.547,19.973-10.032,30.283c-5.066,20.566-5.767,41.943-2.683,62.838
		c1.504,10.432,3.853,20.747,6.753,30.922C630.91,1479.817,621.404,1482.341,619.607,1475.768L619.607,1475.768z"/>
	<path style="fill:#231F20;" d="M301.378,1665.628c-0.826-0.413-1.586-1.011-2.175-1.689c-2.162-2.559-3.389-5.66-4.562-8.646
		c-12.201-33.615-1.602-70.416,27.811-91.02c9.849-7.169,20.803-12.453,32.056-16.493c1.164-0.418,2.447,0.187,2.865,1.351
		c0.408,1.136-0.166,2.387-1.275,2.836c-10.79,4.351-21.108,9.868-30.101,16.969c-25.953,19.74-34.478,52.817-22.379,82.804
		c0.839,1.916,1.706,3.93,2.941,5.475c-0.212-0.242-0.584-0.491-0.915-0.632C311.53,1659.575,307.445,1668.269,301.378,1665.628
		L301.378,1665.628z"/>
	<path style="fill:#231F20;" d="M418.406,1689.086c-7.535-0.381-13.178-5.647-17.732-10.846
		c-7.959-9.638-12.698-21.456-13.839-33.81c-2.169-22.157,9.788-41.676,27.467-54.076c7.156-5.108,14.995-9.259,23.054-12.658
		c0.883-0.373,1.901,0.041,2.273,0.924c0.361,0.856-0.023,1.843-0.852,2.241c-5.128,2.456-10.099,5.208-14.806,8.313
		c-24.666,15.789-38.005,41.632-25.11,69.793c3.334,7.032,8.011,13.772,14.358,18.117c1.524,1.023,3.616,2.032,5.187,2.002
		C425.371,1678.989,425.395,1689.167,418.406,1689.086L418.406,1689.086z"/>
	<path style="fill:#231F20;" d="M549.543,1732.703c-8.021-22.931-12.184-48.38-4.647-72.058
		c5.467-17.631,18.132-32.96,34.766-41.056c5.45-2.734,11.3-4.62,17.287-5.674c0.897-0.158,1.751,0.441,1.909,1.338
		c0.156,0.882-0.424,1.723-1.292,1.901c-5.589,1.261-11.005,3.293-15.988,6.099c-14.981,8.185-26.049,22.799-30.306,39.274
		c-5.933,22.156-0.82,45.746,7.618,66.622C561.327,1735.532,552.014,1739.156,549.543,1732.703L549.543,1732.703z"/>
	<path style="fill:#231F20;" d="M648.313,1771.503c-10.29-5.924-16.848-16.905-21.201-27.464
		c-8.552-20.949-4.916-45.602,7.798-63.874c6.133-9.073,13.782-16.885,22.089-23.707c0.56-0.46,1.387-0.379,1.847,0.181
		c0.447,0.543,0.383,1.339-0.133,1.805c-7.756,7.153-14.71,15.169-20.021,24.097c-15.036,24.609-12.323,56.209,8.688,76.287
		c1.76,1.576,3.678,2.959,5.343,3.698C658.845,1765.551,654.489,1774.503,648.313,1771.503L648.313,1771.503z"/>
	<path style="fill:#231F20;" d="M1136.92,1585.617c11.079-28.743,15.471-60.26,16.421-91.068
		c0.898-30.786-6.566-62.543-25.276-87.436c-0.644-0.852-0.474-2.065,0.378-2.709c0.835-0.63,2.019-0.476,2.672,0.33
		c20.221,25.135,29.063,57.954,29.159,89.86c0.022,32-3.398,64.069-14,94.558c-0.929,2.601-3.791,3.956-6.392,3.027
		C1137.219,1591.235,1135.868,1588.239,1136.92,1585.617L1136.92,1585.617z"/>
	<path style="fill:#231F20;" d="M1397.802,1639.205c-3.363-13.874-6.727-28.876-4.324-43.343c2.46-14.542,8.305-27.711,15.25-40.509
		c10.389-18.877,27.008-35.771,48.539-40.876c7.055-1.772,14.5-2.05,21.66-0.773c0.881,0.157,1.467,0.998,1.31,1.879
		c-0.154,0.87-0.98,1.452-1.845,1.316c-6.709-0.913-13.589-0.386-20.085,1.528c-27.112,7.658-43.1,33.784-51.795,58.998
		c-4.664,12.799-6.644,25.852-3.954,39.276c1.169,6.62,3.025,13.243,4.923,19.993
		C1409.085,1643.201,1399.625,1645.751,1397.802,1639.205L1397.802,1639.205z"/>
	<path style="fill:#231F20;" d="M1478.896,1670.094c-4.953-6.455-6.765-13.371-8.365-20.838
		c-5.197-27.512,1.065-58.543,21.456-78.641c9.426-9.218,21.367-15.46,33.948-19.032c7.479-2.076,15.196-3.193,22.862-3.842
		c0.977-0.093,1.844,0.624,1.936,1.6c0.096,0.988-0.643,1.854-1.62,1.94c-8.247,1.069-16.438,2.536-24.216,5.402
		c-10.708,3.73-20.853,9.885-28.647,18.113c-17.838,19.006-22.446,47.669-16.732,72.516c1.345,5.606,3.483,12.157,7.031,16.341
		C1490.861,1668.848,1483.352,1675.268,1478.896,1670.094L1478.896,1670.094z"/>
	<path style="fill:#231F20;" d="M1759.458,1487.826c15.108,1.228,29.557-4.896,42.115-12.876
		c12.863-8.193,24.264-18.405,35.602-28.678c2.046-1.857,5.21-1.703,7.067,0.344c1.946,2.127,1.663,5.509-0.604,7.287
		c-18.271,14.311-37.658,29.765-60.702,36.022c-7.748,2.042-15.951,2.791-23.907,1.591c-1.015-0.153-1.714-1.1-1.561-2.115
		C1757.614,1488.43,1758.494,1487.75,1759.458,1487.826L1759.458,1487.826z"/>
	<g>
		<path style="fill:#231F20;" d="M528.833,1521.726c-1.411,0-2.812-0.595-3.799-1.746c-37.676-43.955-132.172-36.145-133.123-36.061
			c-2.757,0.257-5.178-1.789-5.422-4.539c-0.244-2.75,1.787-5.177,4.537-5.422c3.017-0.267,56.415-4.699,100.663,12.277
			c-35.747-27.162-71.817-32.405-72.293-32.47c-2.734-0.372-4.653-2.889-4.284-5.623c0.37-2.735,2.881-4.65,5.616-4.288
			c2.733,0.366,67.459,9.654,112.119,69.894c1.603,2.163,1.206,5.207-0.899,6.887
			C531.029,1521.368,529.928,1521.726,528.833,1521.726z"/>
	</g>
	<g>
		<path style="fill:#231F20;" d="M597.261,1559.574c-1.813,0-3.561-0.989-4.449-2.711c-0.321-0.598-9.095-16.482-74.509-97.508
			c-1.201-1.487-1.449-3.529-0.638-5.261c0.81-1.731,2.537-2.849,4.449-2.879c50.522-0.823,102.2,83.081,104.375,86.653
			c1.436,2.358,0.688,5.434-1.669,6.87c-2.36,1.438-5.435,0.688-6.871-1.668c-0.46-0.756-42.593-69.172-84.081-80.331
			c59.825,74.496,67.525,88.942,67.834,89.543c1.265,2.455,0.3,5.471-2.155,6.735
			C598.814,1559.396,598.032,1559.574,597.261,1559.574z"/>
	</g>
	<g>
		<path style="fill:#231F20;" d="M587.81,1477.669c-1.633,0-3.226-0.801-4.181-2.254c-23.251-35.361-109.322-63.068-110.189-63.345
			c-2.631-0.837-4.086-3.648-3.249-6.28c0.836-2.63,3.645-4.088,6.28-3.249c2.821,0.896,54.498,17.53,89.773,42.537
			c-17.209-25.245-41.375-50.605-62.974-56.434c-2.666-0.719-4.244-3.464-3.524-6.13c0.719-2.666,3.462-4.246,6.13-3.524
			c34.953,9.432,72.27,60.243,86.485,91.614c1.077,2.377,0.145,5.184-2.142,6.442
			C589.456,1477.468,588.628,1477.669,587.81,1477.669z"/>
	</g>
	<g>
		<path style="fill:#231F20;" d="M598.567,1407.564c-1.681,0-3.313-0.85-4.254-2.368c-0.947-1.529-1.912-3.04-2.892-4.532
			c-9.185-10.574-38.209-27.329-56.548-36.461c-2.472-1.23-3.478-4.232-2.247-6.704c1.232-2.471,4.232-3.476,6.704-2.248
			c4.38,2.181,16.875,8.54,29.723,16.354c-12.849-14.565-23.466-23.769-23.639-23.917c-2.093-1.802-2.33-4.958-0.528-7.052
			c1.802-2.092,4.958-2.33,7.052-0.528c1.155,0.994,27.361,23.714,48.05,55.381c1.444,1.8,2.543,3.545,3.213,5.203
			c0.972,2.407-0.06,5.158-2.375,6.332C600.102,1407.39,599.33,1407.564,598.567,1407.564z"/>
	</g>
	<g>
		<path style="fill:#231F20;" d="M579.727,1314.362c-0.164,0-0.33-0.008-0.497-0.024l-20.251-1.998
			c-2.749-0.271-4.756-2.719-4.485-5.467c0.271-2.747,2.722-4.753,5.467-4.484l20.251,1.998c2.749,0.271,4.756,2.719,4.485,5.467
			C584.442,1312.435,582.267,1314.362,579.727,1314.362z"/>
	</g>
	<g>
		<path style="fill:#231F20;" d="M583.227,1285.326c-1.379,0-2.751-0.566-3.739-1.678l-13.12-14.757
			c-1.835-2.063-1.649-5.225,0.414-7.059c2.064-1.837,5.225-1.65,7.059,0.414l13.12,14.757c1.834,2.063,1.649,5.225-0.415,7.059
			C585.595,1284.91,584.409,1285.326,583.227,1285.326z"/>
	</g>
	<g>
		<path style="fill:#231F20;" d="M638.357,1167.214c-2.359,0-4.458-1.677-4.909-4.079c-4.525-24.137-4.212-32.008-4.161-32.826
			c0.17-2.757,2.544-4.855,5.299-4.682c2.743,0.17,4.833,2.521,4.684,5.26c-0.008,0.221-0.234,7.782,4.007,30.404
			c0.509,2.715-1.279,5.327-3.993,5.836C638.974,1167.186,638.663,1167.214,638.357,1167.214z"/>
	</g>
	<g>
		<path style="fill:#231F20;" d="M625.167,1191.075c-1.712,0-3.38-0.88-4.312-2.462c-3.59-6.094-14.869-26.747-9.262-36.66
			c1.359-2.404,4.413-3.248,6.814-1.891c2.404,1.36,3.25,4.41,1.891,6.814c-1.67,2.952,2.703,15.66,9.174,26.661
			c1.4,2.38,0.606,5.444-1.773,6.845C626.902,1190.853,626.028,1191.075,625.167,1191.075z"/>
	</g>
	<g>
		<path style="fill:#231F20;" d="M792.322,1600.874c-1.287,0-2.561-0.496-3.524-1.451c-5.945-5.901-71.066-44.917-113.388-69.702
			c-2.383-1.396-3.183-4.458-1.788-6.841c1.396-2.384,4.458-3.183,6.841-1.788c8.823,5.167,73.368,43.035,102.187,61.833
			c-19.174-49.401-56.24-79.021-68.916-80.512c-2.743-0.322-4.705-2.808-4.382-5.55c0.323-2.743,2.816-4.703,5.55-4.382
			c10.86,1.277,27.066,12.692,42.294,29.79c18.088,20.309,32.267,45.951,39.923,72.202c0.639,2.189-0.285,4.532-2.244,5.698
			C794.082,1600.644,793.199,1600.874,792.322,1600.874z"/>
	</g>
	<g>
		<path style="fill:#231F20;" d="M871.852,1565.437c-1.926,0-3.738-1.119-4.562-2.954c-16.89-37.641-111.937-80.801-112.895-81.232
			c-2.518-1.134-3.64-4.094-2.506-6.611c1.134-2.518,4.096-3.639,6.612-2.507c3.179,1.432,62.551,28.396,96.917,59.785
			c-20.254-33.823-59.852-64.664-69.773-70.278c-2.403-1.36-3.249-4.411-1.889-6.814c1.36-2.403,4.411-3.249,6.814-1.889
			c15.577,8.815,79.06,59.866,86.225,106.744c0.378,2.473-1.129,4.845-3.528,5.552
			C872.797,1565.37,872.321,1565.437,871.852,1565.437z"/>
	</g>
	<g>
		<path style="fill:#231F20;" d="M972.6,1496.704c-1.446,0-2.87-0.626-3.85-1.807c-40.207-48.442-172.971-36.703-174.308-36.578
			c-2.75,0.258-5.186-1.766-5.441-4.515c-0.256-2.75,1.765-5.186,4.514-5.442c4.649-0.432,95.365-8.455,151.901,17.606
			c-21.107-16.974-55.345-31.194-101.666-28c-2.766,0.176-5.143-1.891-5.333-4.645c-0.19-2.755,1.889-5.142,4.644-5.332
			c42.691-2.945,73.117,8.433,91.124,18.496c20.328,11.359,36.411,27.539,43.022,43.279c0.96,2.284,0.102,4.927-2.017,6.212
			C974.384,1496.468,973.487,1496.704,972.6,1496.704z"/>
	</g>
	<g>
		<path style="fill:#231F20;" d="M1110.451,1506.917c-1.478,0-2.929-0.654-3.907-1.877
			c-29.538-36.922-114.554-117.492-265.649-68.325c-2.627,0.852-5.448-0.582-6.302-3.208c-0.854-2.626,0.581-5.447,3.207-6.302
			c67.127-21.843,129.246-21.108,184.629,2.188c31.186,13.117,54.949,31.33,71.538,47.207
			c-26.823-50.417-72.856-78.21-137.221-82.727c-56.684-3.981-107.062,12.519-107.564,12.686c-2.62,0.868-5.45-0.544-6.323-3.164
			c-0.872-2.619,0.542-5.45,3.162-6.323c2.117-0.705,52.515-17.241,111.137-13.194c34.687,2.395,64.932,11.577,89.896,27.292
			c31.3,19.703,54.216,49.675,68.111,89.085c0.811,2.3-0.156,4.85-2.288,6.033
			C1112.111,1506.713,1111.277,1506.917,1110.451,1506.917z"/>
	</g>
	<g>
		<path style="fill:#231F20;" d="M1114.3,1336.85c-1.73,2.09-4.81,2.42-6.95,0.74c-46.98-37.05-111.58-28.47-157.5-14.74
			c-43.64,13.04-79.06,33.01-87.99,38.27c-1.38,0.81-2.13,1.27-2.18,1.3c-0.82,0.51-1.73,0.75-2.63,0.75
			c-1.25,0-2.48-0.47-3.42-1.34c1.02-3.12,2.07-6.24,3.15-9.34c2-1.19,5.2-3.04,9.44-5.35c0,0,0,0,0-0.01
			c15.61-8.51,45.28-23.26,80.76-33.87c30.48-9.1,58.85-13.18,84.34-12.11c11.3,0.48,22.04,1.97,32.19,4.46
			c-64.67-38.13-127.07-34.47-186.09,11.07c-1.87,1.43-3.73,2.92-5.59,4.44c-1.01,0.83-2.25,1.19-3.46,1.11
			c2.42-5.72,4.95-11.38,7.62-16.99c3.18-2.33,6.37-4.55,9.57-6.65c34.92-22.94,71.26-32.39,108.3-28.12
			c39.24,4.53,79.57,24.52,119.86,59.41C1115.77,1331.66,1116.03,1334.75,1114.3,1336.85z"/>
	</g>
	<g>
		<path style="fill:#231F20;" d="M856.623,1680.287c-0.069,0-0.139-0.001-0.208-0.004c-2.759-0.113-4.904-2.442-4.79-5.201
			l3.063-74.682c0.093-2.276,1.714-4.202,3.941-4.683c2.229-0.482,4.498,0.607,5.521,2.642l36,71.617
			c1.24,2.468,0.246,5.474-2.222,6.714c-2.466,1.236-5.473,0.244-6.713-2.222l-27.328-54.366l-2.273,55.39
			C861.505,1678.182,859.29,1680.287,856.623,1680.287z"/>
	</g>
	<g>
		<path style="fill:#231F20;" d="M1004.277,1663.818c-1.091,0-2.162-0.357-3.043-1.032c-1.165-0.894-1.878-2.254-1.951-3.72
			c-3.404-68.563-67.104-112.088-67.748-112.52c-2.079-1.395-2.806-4.113-1.702-6.359c1.105-2.245,3.701-3.33,6.073-2.535
			c46.494,15.57,78.898,42.813,97.896,62.926c20.627,21.839,30.167,39.846,30.563,40.602c0.615,1.175,0.739,2.546,0.343,3.812
			s-1.278,2.323-2.453,2.938c-0.462,0.242-11.843,6.043-56.924,15.776C1004.983,1663.781,1004.629,1663.818,1004.277,1663.818z
			 M961.349,1558.994c3.361,3.399,6.878,7.196,10.423,11.379c21.541,25.413,34.279,53.757,37.066,82.327
			c24.519-5.456,37.574-9.482,43.844-11.697c-4.117-6.649-12.79-19.457-26.398-33.82
			C1012.303,1592.425,990.748,1573.644,961.349,1558.994z"/>
	</g>
	<g>
		<path style="fill:#231F20;" d="M1183.83,1357.786c-0.968,0-1.939-0.28-2.785-0.849c-1.852-1.242-2.656-3.56-1.974-5.682
			c23.391-72.761,22.139-142.43,16.97-188.062c-5.598-49.419-16.816-81.876-16.93-82.197c-0.912-2.606,0.462-5.459,3.068-6.371
			c2.61-0.908,5.459,0.463,6.371,3.068c0.475,1.358,11.703,33.849,17.427,84.374c4.702,41.508,6.225,102.503-10.404,167.944
			c31.318-54.662,40.032-176.63,39.323-209.946c-0.059-2.761,2.132-5.047,4.893-5.105c2.752-0.101,5.047,2.132,5.105,4.893
			c0.428,20.112-2.584,69.519-10.619,116.392c-10.717,62.516-26.605,103.013-47.225,120.366
			C1186.125,1357.391,1184.979,1357.786,1183.83,1357.786z"/>
	</g>
	<g>
		<path style="fill:#231F20;" d="M1301.171,1386.918c-0.598,0-1.204-0.107-1.791-0.333c-2.387-0.917-3.698-3.486-3.039-5.956
			c20.315-76.183,13.893-140.574,4.928-181.176c-9.685-43.857-24.219-69.882-24.364-70.14c-1.359-2.403-0.512-5.454,1.893-6.813
			c2.404-1.36,5.454-0.512,6.813,1.893c0.625,1.105,15.42,27.598,25.424,72.903c7.464,33.802,13.215,83.647,4.017,142.947
			c33.594-80.564,37.588-150.055,12.354-211.491c-1.049-2.554,0.171-5.476,2.726-6.524c2.552-1.052,5.475,0.171,6.524,2.726
			c17.284,42.081,21.303,89.027,11.944,139.533c-6.973,37.635-21.03,76.791-42.975,119.706
			C1304.746,1385.909,1302.999,1386.918,1301.171,1386.918z"/>
	</g>
	<g>
		<path style="fill:#231F20;" d="M1454.366,1335.537c-0.33,0-0.664-0.033-0.999-0.102c-2.461-0.5-4.169-2.748-3.991-5.254
			c5.051-71.129-12.931-125.6-28.904-158.77c-17.338-36.002-36.13-55.42-36.317-55.612c-1.931-1.973-1.898-5.138,0.072-7.069
			c1.969-1.932,5.132-1.904,7.065,0.066c0.806,0.82,19.933,20.517,37.987,57.857c13.264,27.434,27.863,68.933,30.533,122.018
			c10.929-59.039,12.226-145.849-32.121-194.448c-1.861-2.04-1.717-5.202,0.323-7.063s5.203-1.717,7.063,0.323
			c32.109,35.188,39.987,87.462,40.943,125.118c1.222,48.178-7.943,93.348-16.929,119.556
			C1458.39,1334.21,1456.464,1335.537,1454.366,1335.537z"/>
	</g>
	<g>
		<path style="fill:#231F20;" d="M1565.83,1168.21c0,2.5-1.84,4.62-4.32,4.96c-0.23,0.03-0.46,0.04-0.68,0.04
			c-2.21,0-4.2-1.46-4.81-3.64c-9.19-32.72-72.42-75.47-93.11-88.73c-3.98-2.55-6.39-4.01-6.53-4.1c-1.05-0.63-1.79-1.59-2.15-2.67
			c3.13-1.6,6.18-3.19,9.15-4.77c1.97,1.22,5.34,3.33,9.69,6.17c19.61,12.83,59.12,40.53,80.1,68.25
			c-7.92-36.91-32.05-68.65-52.78-83.33c-2.42-1.71-4.79-3.19-7.08-4.42c-0.88-0.47-1.56-1.16-2-1.97c1.51-0.84,2.96-1.66,4.36-2.44
			c1.79-1,3.49-1.94,5.12-2.84c3.04,1.81,6.12,3.95,9.2,6.37c11.58,9.11,23.16,22.22,32.52,37.11
			C1553.15,1109.11,1565.83,1136.02,1565.83,1168.21z"/>
	</g>
	<g>
		<path style="fill:#231F20;" d="M1674.702,1102.045c-1.63,0-3.174-0.797-4.113-2.159c-20.371-29.509-73.964-70.779-74.503-71.192
			c-2.191-1.681-2.604-4.819-0.924-7.011c1.681-2.189,4.819-2.604,7.01-0.925c2.006,1.539,44.416,34.197,68.676,63.092
			c-2.625-17.784-19.623-40.544-27.456-49.355c-1.834-2.064-1.648-5.225,0.415-7.06c2.065-1.834,5.225-1.648,7.06,0.415
			c0.388,0.437,9.596,10.847,17.784,24.495c11.497,19.161,15.108,34.792,10.734,46.456c-0.653,1.743-2.222,2.979-4.069,3.207
			C1675.11,1102.032,1674.905,1102.045,1674.702,1102.045z"/>
	</g>
	<g>
		<path style="fill:#231F20;" d="M1546.57,1232.39c1.61,0.85,3.59,0.75,5.13-0.32c0.18-0.12,0.35-0.26,0.52-0.41
			c0.53-0.48,1.06-0.95,1.59-1.4c35.92-31.09,87.11-26,123.98-16.14c44.99,12.04,94.66,38.4,132.88,70.52
			c0.93,0.78,2.07,1.17,3.22,1.17c1.04,0,2.09-0.33,2.98-0.99c1.86-1.38,2.53-3.86,1.61-5.99c-16.78-38.91-39.55-69.21-67.67-90.07
			c-22.6-16.76-48.62-27.46-77.37-31.81c-23.2-3.51-44.24-2.33-60.09-0.06c-1.73,0.24-3.39,0.5-4.98,0.77
			c-1.25,0.21-2.46,0.42-3.63,0.64c-1.7,1.32-3.39,2.68-5.06,4.06c-3.88,3.23-7.65,6.64-11.27,10.18c0.99-0.31,2.57-0.78,4.66-1.33
			c1.26-0.33,2.71-0.7,4.33-1.09c14.48-3.42,42.8-8.16,74.94-3.22c55.71,8.55,98.64,41.07,127.85,96.77
			c-36.4-26.91-79.88-48.52-119.82-59.21c-46.76-12.51-86.5-10.19-116.45,6.58c-0.92,0.51-1.82,1.03-2.72,1.57
			c-2.49,1.49-4.9,3.08-7.24,4.79L1546.57,1232.39z"/>
	</g>
	<g>
		<path style="fill:#231F20;" d="M1781.86,1351.84c-0.85,2.1-3.02,3.37-5.27,3.08c-122.86-15.8-205.72,1.65-234.22,49.16
			c-0.7,1.17-1.37,2.35-2,3.55c-0.89,1.7-2.63,2.67-4.42,2.67c-0.21,0-0.43-0.01-0.64-0.04c-1.1-2.82-2.14-5.66-3.1-8.54
			c1.83-3.35,3.89-6.58,6.17-9.67c15.85-21.48,42.29-36.61,78.83-45.05c37.45-8.66,84.75-10.1,140.82-4.3
			c-51.23-32.99-103.96-42.08-157-26.98c-33.38,9.5-57.41,26.41-67.16,34.1c-3.09,2.43-4.74,3.94-4.81,4
			c-1.07,0.92-2.19,1.3-3.23,1.32c0.02-1.13,0.07-2.26,0.12-3.39c0.12-2.91,0.24-5.79,0.37-8.65c2.02-1.64,4.69-3.71,7.99-6.08
			c12.78-9.15,34.84-22.55,63.54-30.8c27.13-7.78,54.76-9.49,82.13-5.07c34.1,5.51,67.83,20.58,100.24,44.81
			C1782.04,1347.32,1782.71,1349.73,1781.86,1351.84z"/>
	</g>
	<g>
		<path style="fill:#231F20;" d="M1618.32,1474.98c1.45-0.24,2.78-1.11,3.56-2.49c0.35-0.62,0.72-1.21,1.15-1.79
			c13.12-18.47,58.99-17.05,92.75-16c4.99,0.15,9.71,0.3,14.23,0.39h0.1c2.07,0,3.94-1.29,4.67-3.23c0.75-1.98,0.18-4.21-1.43-5.58
			c-24.43-20.77-49.33-29.67-74-26.46c-39.31,5.1-63.32,39.02-64.33,40.46c-0.08,0.12-0.16,0.25-0.24,0.39l-2.15,3.79l-0.08,0.14
			c-1.11,1.95-0.77,4.34,0.71,5.89c2.08,0.24,4.16,0.52,6.25,0.84c0.7-0.42,1.3-1.03,1.73-1.79l1.96-3.45l0.15-0.26
			c1.79-2.46,23.78-31.79,57.37-36.11c17.77-2.28,35.89,2.74,54.02,14.94c-39.23-1.22-87.39-2.42-101.59,22.95
			c-0.09,0.17-0.18,0.34-0.25,0.52c-0.91,2.16-0.18,4.66,1.74,6.01L1618.32,1474.98z"/>
	</g>
	<path style="fill:#231F20;" d="M1710.6,1524.9c-0.95,0.32-1.99-0.2-2.31-1.15c-8.8-24.03-35.97-32.54-58.31-39.67
		c-11.77-3.84-22.08-6.83-31.66-9.1c-1.24-0.29-2.47-0.57-3.68-0.84c-5.2-1.15-10.2-2.08-15.13-2.81c-2.09-0.32-4.17-0.6-6.25-0.84
		c-5.52-0.65-11.03-1.06-16.7-1.26c-2.65-0.1-5.34-0.15-8.08-0.16c-12.04-0.04-25.11,0.75-40.77,2.09
		c-32.6,2.58-66.49,5.02-95.78,20.18c-28.01,14.81-52.88,39.93-60.81,71.06c-1.74,6.32-11.18,4.11-9.68-2.5
		c9.23-33.87,36.02-60.44,66.67-76.07c30.83-15.35,65.6-17.39,99.12-19.49c11.99-0.75,24.15-1.46,36.31-1.48
		c4.33-0.01,8.66,0.07,12.98,0.27c5.39,0.24,10.76,0.67,16.11,1.33c3.42,0.42,6.84,0.94,10.24,1.57c0.11,0.02,0.22,0.04,0.33,0.06
		c3.25,0.6,6.49,1.29,9.7,2.04c3.4,0.78,6.78,1.64,10.13,2.57c1.49,0.4,2.96,0.81,4.44,1.24c8.08,2.32,16.05,4.91,23.98,7.52
		c17.88,5.95,36.86,12.43,50.27,26.47c4.48,4.74,7.98,10.44,10.04,16.65C1712.08,1523.54,1711.56,1524.58,1710.6,1524.9z"/>
	<path style="fill:#231F20;" d="M1650.44,1135.49c-13.16,5.65-25.61,12.87-37.09,21.4c-1.68,1.25-3.34,2.53-4.98,3.83
		c-3.78,2.99-7.44,6.13-10.97,9.4c-1.47,1.36-2.91,2.74-4.33,4.15c-3.55,3.48-6.96,7.11-10.22,10.87
		c-7.36,8.52-13.62,17.14-18.93,25.9c-0.94,1.54-1.84,3.08-2.72,4.63c-2.73,4.81-5.19,9.67-7.39,14.59
		c-0.73,1.62-1.43,3.24-2.11,4.87c-12.09,29.17-15.98,60.4-17.02,95.57c-0.11,3.12-0.24,6.24-0.37,9.38
		c-0.18,4.26-0.35,8.53-0.44,12.8c-0.19,8.7-0.07,17.38,1.01,25.92c0.8,5.51,1.98,10.95,3.5,16.31c1.14,4.06,2.48,8.07,3.99,12.03
		c7.78,20.4,20.09,39.35,34.02,55.82c0.05,0.06,0.09,0.11,0.13,0.17c1.65,2.11,1.31,4.47,0.04,6.1c-2.65-0.1-5.34-0.15-8.08-0.16
		c-1.69-2.04-3.34-4.11-4.94-6.21c-11.64-15.14-21.27-31.77-28.23-49.54c-1.1-2.82-2.14-5.66-3.1-8.54
		c-0.04-0.11-0.08-0.23-0.12-0.34c-5.05-14.73-6.7-30.74-6.26-46.24c0.02-1.13,0.07-2.26,0.12-3.39c0.12-2.91,0.24-5.79,0.37-8.65
		c1.81-40.48,4.75-76.98,19.23-111.4c0.33-0.79,0.67-1.58,1.02-2.37c1.44-3.32,3-6.61,4.67-9.89c0.87-1.71,1.78-3.41,2.72-5.1
		c5.75-10.38,12.75-20.6,21.31-30.7c3.02-3.58,6.18-7.09,9.47-10.48h0.01c1.2-1.24,2.42-2.47,3.66-3.68
		c3.62-3.54,7.39-6.95,11.27-10.18c1.67-1.38,3.36-2.74,5.06-4.06c0.59-0.46,1.18-0.9,1.77-1.35c13.11-9.95,27.47-18.24,42.68-24.47
		C1651.1,1131.8,1652.47,1134.48,1650.44,1135.49z"/>
	<path style="fill:#231F20;" d="M1119.345,1194.272c-14.4-6.125-29.469-10.874-44.892-13.71c-2.255-0.348-5.497-0.963-7.767-1.21
		c-2.823-0.407-6.935-0.815-9.773-1.063c-20.26-1.551-40.868,0.689-60.177,7.089c-39.729,13.208-73.169,41.904-95.249,77.063
		c-0.05,0.091-0.077,0.179-0.116,0.269c-8.05,10.335-14.792,21.654-20.832,33.25c-1.56,3.08-3.08,6.17-4.55,9.28
		c-2.67,5.61-5.2,11.27-7.62,16.99c-4.2,9.95-8.04,20.05-11.59,30.26c-1.08,3.1-2.13,6.22-3.15,9.34
		c-7.9,24.06-14.28,48.65-20.01,73.28c-58.12,12.37-107.76,47.49-155.18,81.45c-5.57,4.09-11.49,7.11-17.77,9.88
		c-38.04,16.16-77.69,28.99-115.76,45.32c-5.77,2.34-11.53,5.51-16.53,9.23c-6.04,4.54-11.4,10.11-15.95,16.13
		c-18.61,25.54-25.62,59.34-26.64,90.41c0.19,6.77,9.8,6.55,10,0.11c0.06-4.49,0.39-9.26,0.84-13.8
		c3.01-27.74,10.61-57.67,30.3-78.32c4.64-4.66,9.94-8.72,15.77-11.75c2.8-1.4,6.44-2.97,9.37-4.16
		c28.39-11.91,57.24-22.27,86.07-33.26c11.11-4.31,22.41-8.58,33.23-13.9c4.36-2.07,8.94-4.92,12.8-7.7
		c47.19-33.75,96.7-69.01,154.48-80.47c1.95-0.35,3.58-1.84,4.01-3.89c5.01-24.42,11.08-52,19.2-79.27
		c1.39-4.67,2.84-9.34,4.36-13.98c0,0,0,0,0-0.01c3.38-10.34,7.1-20.56,11.2-30.45c1.057-2.548,2.145-5.069,3.252-7.571
		c1.741,0.826,3.929,0.7,5.698-1.133c3.452-3.744,7.441-7.347,11.522-10.807c58.608-47.52,143.583-90.462,219.765-93.325
		C1122.894,1203.565,1124.152,1196.34,1119.345,1194.272z M891.426,1289.541c-0.754,0.641-1.501,1.292-2.249,1.942
		c4.693-8.929,19.744-30.804,21.28-32.957c0.423-0.525,0.834-1.068,1.262-1.586c0.185-0.212,0.32-0.453,0.407-0.705
		c3.843-5.176,8.018-10.136,12.339-14.87c30.102-33.276,73.227-56.076,118.671-55.015c8.607,0.079,17.465,0.963,25.941,2.488
		c8.964,1.593,17.768,3.933,26.393,6.832C1022.951,1204.884,946.227,1245.083,891.426,1289.541z"/>
	<g>
		<g>
			<path style="fill:#231F20;" d="M645.117,1539.163c-2.083,0-4.028-1.312-4.734-3.395c-0.194-0.572-19.788-58.261-52.031-148.441
				c-32.562-91.072,1.959-150.44,29.698-198.144c1.438-2.474,2.857-4.913,4.245-7.322c25.568-44.381,31.404-80.414,31.46-80.772
				c0.424-2.72,2.964-4.597,5.689-4.185l9.888,1.495c2.73,0.412,4.609,2.96,4.197,5.69c-0.412,2.731-2.958,4.61-5.691,4.197
				l-5.15-0.778c-2.511,11.648-10.627,42.716-31.728,79.345c-1.394,2.421-2.82,4.872-4.265,7.357
				c-26.698,45.913-59.924,103.054-28.926,189.749c32.271,90.257,51.891,148.022,52.085,148.596
				c0.887,2.615-0.513,5.454-3.128,6.341C646.192,1539.077,645.65,1539.163,645.117,1539.163z"/>
		</g>
	</g>
	<path style="fill:#231F20;" d="M1856.85,1460.34c-6.2-6.2-11.55-11.56-12.24-18.05c-0.25-2.42,0.64-10.42,1.66-19.68
		c7.54-67.97,30.46-274.81-129.4-367.89c-45.73-25.98-86.6-37.67-124.94-35.73c-34.31,1.75-60.88,14.57-78.46,23.06
		c-3.58,1.73-7.78,3.97-12.68,6.67c-1.63,0.9-3.33,1.84-5.12,2.84c-1.4,0.78-2.85,1.6-4.36,2.44c-0.1,0.05-0.19,0.11-0.29,0.16
		c-8.02,4.49-17.32,9.68-27.64,15.14c-2.97,1.58-6.02,3.17-9.15,4.77c-60.2,30.83-149.63,65.86-227.1,29.89
		c-1.27-0.64-2.52-1.27-3.76-1.9c-15.71-8.01-28.74-15.6-39.54-22.71c-56.22-37.04-52.06-61.07-51.76-62.42
		c0.62-1.65,0.28-3.39-0.82-4.77c-1.11-1.39-2.94-1.96-4.71-1.69l-426.26,65.28c-0.1,0.01-0.2,0.03-0.3,0.05
		c-1.19,0.26-28.31,6.47-60.83,40.79c-1.23,1.3-2.47,2.64-3.72,4.02c-19.79,21.93-37.25,49.95-51.9,83.27
		c-17.98,40.88-31.77,89.95-41.01,145.88c-121.59,76.96-173.78,142.42-183,154.75c-6.55,0.25-24.46,1.52-43.53,7.96
		c-31.89,10.76-51.41,30.86-56.46,58.12c-10.66,57.59,0.57,84.44,40.07,94.71c3.66,9.96,11.9,18.69,23.51,24.79
		c14.05,7.38,44.96,16.98,96.08,0.18c2.33,3.82,5.85,6.74,10.51,8.71c16.74,7.07,44.79-0.42,57.28-4.67
		c0.94,3.82,2.27,7.35,3.98,10.55c0.7,1.29,1.44,2.51,2.2,3.61c0.04,0.07,0.08,0.14,0.13,0.2c14,20.26,41.24,18.92,51.14,17.66
		c6.3,10.08,29.47,38.79,89.31,38.79c2.21,0,4.49-0.04,6.81-0.12c13.7,12.67,28.78,19.07,44.89,19.07c1.2,0,2.42-0.04,3.63-0.11
		c31.93-1.88,67.87-27.81,109.88-79.25c25.2-24,48.63-21.16,49.59-21.03c0.27,0.04,0.54,0.06,0.8,0.05
		c0.58-0.01,58.33-1.05,122.59-12.02c87.09-14.86,144.13-39.96,169.52-74.57c0.92-1.26,1.82-2.54,2.67-3.84
		c21.37-3.41,49.75-4.84,79.74-6.34c51.6-2.6,104.8-5.27,135.93-18.22c-0.03,0.28-0.05,0.55-0.07,0.83v0.11
		c-0.06,0.85-0.1,1.68-0.12,2.51c-0.77,31.17,23.9,46.67,32.05,50.93c1.2,5.61,5.17,18.15,17.81,27.71
		c14.59,11.04,35.61,14.47,62.54,10.2c3.05,7.46,10.08,15.72,25.82,19.88c40.09,10.6,113.68-11.35,135.24-34.8
		c1.83-1.98,4.26-4.12,7.23-6.33c34.25-25.52,125.08-50.58,126.08-50.85c3.75-1.11,91.89-27.5,111.15-70.54
		c0.18-0.39,0.31-0.81,0.37-1.24C1882.91,1486.41,1868.46,1471.96,1856.85,1460.34z M1868.13,1514.89
		c-17.98,38.52-103.72,64.19-104.49,64.42c-3.72,1.02-89.72,24.74-126.94,50.74c-0.82,0.56-1.62,1.13-2.39,1.71
		c-3.52,2.63-6.34,5.11-8.61,7.59c-19,20.65-89.53,41.35-125.33,31.89c-11.41-3.02-18.16-8.74-20.07-16.99
		c-0.53-2.3-2.55-3.86-4.82-3.88c-0.32-0.01-0.64,0.02-0.96,0.08c-26.02,4.8-45.83,2.29-58.87-7.47
		c-12.94-9.69-14.46-23.15-14.52-23.69c-0.17-1.82-1.33-3.41-3-4.13c-0.07-0.03-0.22-0.1-0.45-0.2
		c-3.83-1.79-28.78-14.53-28.08-42.52c0.02-0.72,0.05-1.45,0.1-2.2v-0.04c0.02-0.33,0.05-0.66,0.08-1c0.24-2.59,0.7-5.28,1.36-8.01
		c0.25-1.03,0.16-2.08-0.22-3.02c-0.32-0.85-0.89-1.6-1.65-2.17c-0.39-0.3-0.82-0.52-1.27-0.68c-1.37-0.51-2.92-0.39-4.22,0.36
		c-26.92,15.58-87.22,18.61-140.43,21.29c-30.02,1.5-58.45,2.94-80.29,6.37c-0.95,0.15-1.89,0.3-2.81,0.46
		c-0.09,0.01-0.18,0.03-0.26,0.06c-1.31,0.29-2.46,1.11-3.17,2.26c-1.05,1.72-2.2,3.43-3.42,5.08
		c-15.5,21.12-43.28,36.85-75.61,48.56c-17.03,6.17-35.33,11.23-53.75,15.37c-39.43,8.86-79.44,13.53-108.92,15.98
		c-17.05,1.41-30.58,2.08-38.43,2.38c-3.83,0.15-6.31,0.21-7.18,0.23c-3.85-0.42-29.27-2.13-55.97,22.36
		c-0.58,0.53-1.15,1.07-1.73,1.62c-0.18,0.17-0.35,0.36-0.51,0.56c-39.63,48.56-74.22,74.03-102.82,75.72
		c-15.4,0.91-29.32-4.87-42.55-17.65c-0.94-0.91-2.19-1.41-3.48-1.41h-0.23c-1.46,0.07-2.91,0.12-4.33,0.14
		c-34.77,0.79-56.16-8.74-68.1-17.06c-13.37-9.31-18.12-19.15-18.16-19.23c-0.47-1.02-1.25-1.82-2.19-2.32
		c-1-0.53-2.17-0.73-3.34-0.49c-0.32,0.06-31.23,6.04-44.47-12.8c-0.04-0.07-0.08-0.13-0.13-0.19c-0.59-0.86-1.18-1.83-1.74-2.85
		c-0.53-0.99-1.01-2.02-1.44-3.11c-1.22-3.03-2.08-6.42-2.57-10.12c-0.2-1.52-1.08-2.85-2.38-3.62c-0.08-0.06-0.16-0.11-0.24-0.15
		c-0.68-0.36-1.43-0.55-2.18-0.57c-0.82-0.03-1.65,0.15-2.4,0.52c-4.62,2.31-38.92,13.47-54.96,6.69c-3.69-1.56-5.91-3.84-6.98-7.19
		c-0.4-1.28-1.32-2.35-2.53-2.95c-1.21-0.61-2.61-0.7-3.88-0.25c-2.74,0.96-5.46,1.85-8.16,2.66c-33.44,10.19-63.8,9.97-84.27-0.79
		c-10.23-5.38-17.13-13-19.44-21.44c-0.48-1.78-1.9-3.14-3.68-3.56c-1.69-0.39-3.33-0.81-4.92-1.26v-0.01
		c-27.56-7.81-40.98-25.26-30.36-82.56c4.39-23.75,21.08-40.7,49.58-50.39c21.96-7.46,42.95-7.57,43.16-7.57
		c1.66,0,3.23-0.84,4.16-2.22c0.02-0.04,0.13-0.19,0.32-0.46c0.42-0.58,1.13-1.54,2.13-2.85c3.7-4.81,11.43-14.38,23.99-27.55
		c8.55-8.98,19.35-19.63,32.64-31.58c14.09-12.69,30.98-26.85,50.97-42.03c9.75-7.42,20.23-15.08,31.49-22.93
		c10.21-7.13,21.06-14.42,32.57-21.84c3.08-1.98,6.21-3.97,9.38-5.97c1.21-0.76,2.04-2.01,2.27-3.43c0.24-1.45,0.48-2.9,0.72-4.34
		c2.47-14.73,5.21-28.63,8.16-41.74c2.3-10.2,4.73-19.93,7.27-29.2c14.2-51.79,31.8-89.37,48.79-116.41
		c7.62-12.13,15.12-22.13,22.16-30.34c1-1.19,2.01-2.34,3.01-3.46c1.39-1.55,2.77-3.05,4.13-4.49c5.48-5.79,10.8-10.72,15.83-14.92
		c0.14-0.12,0.28-0.24,0.42-0.35c5.86-4.86,11.32-8.73,16.21-11.79c13.2-8.27,22.19-10.68,23.26-10.95l419.94-64.31
		c0.38,5.21,2.31,12.94,8.64,22.69c10.63,16.36,29.94,33.11,57.62,50c8.7,5.3,18.23,10.61,28.57,15.94c1.96,1,3.94,2.01,5.96,3.02
		c0.05,0.02,0.09,0.05,0.13,0.06c5.49,2.55,11.02,4.76,16.6,6.67c14.06,4.8,28.36,7.62,42.69,8.83c5.73,0.49,11.47,0.72,17.2,0.72
		c10.95,0,21.88-0.85,32.69-2.36c19.4-2.73,38.41-7.63,56.51-13.69c16.26-5.45,31.78-11.85,46.18-18.48
		c9.98-4.58,19.42-9.28,28.19-13.85c1.01-0.52,2.02-1.05,3.01-1.57h0.01c2.44-1.28,4.82-2.55,7.14-3.8
		c8.41-4.52,16.06-8.8,22.83-12.58c1.54-0.86,3.03-1.69,4.49-2.5c1.66-0.93,3.26-1.82,4.8-2.67c1.67-0.93,3.28-1.81,4.8-2.63
		c2.93-1.58,5.56-2.95,7.82-4.04c20.76-10.02,47.46-22.9,84.62-22.27c14.74,0.24,31.12,2.61,49.43,8.13
		c18.04,5.44,37.96,13.94,60.02,26.48c154.2,89.78,131.81,291.75,124.45,358.12c-1.37,12.38-2.01,18.48-1.66,21.82
		c0.35,3.38,1.37,6.4,2.84,9.2c2.87,5.48,7.48,10.09,12.27,14.88C1860.72,1478.35,1872.02,1489.66,1868.13,1514.89z"/>
	<g>
		<path style="fill:#FFFFFF;" d="M786.061,439.786c0,0-93.49,93.49-196.57,169.95c-12.89,9.56-25.93,18.86-38.96,27.67
			c-139.02-45.96-76.98-329.74,24.37-330.89c40.88-0.46,83.13,21.13,119,47.05C746.971,391.926,786.061,439.786,786.061,439.786z"/>
		<g>
			<path style="fill:#231F20;" d="M551.295,642.925l-2.333-0.772c-34.137-11.285-59.342-37.505-72.892-75.824
				c-11.579-32.745-14.354-73.988-7.813-116.132c11.394-73.413,51.664-148.058,106.588-148.681
				c36.281-0.403,77.345,15.74,121.985,47.997l10.488,7.579l-12.86,1.442c-1.798,0.202-3.668,0.419-5.04,0.664
				c-15.56,2.796-29.356,5.789-40.527,14.125c-7.025,5.238-12.694,12.512-18.176,19.546c-10.765,13.798-22.965,29.435-27.413,47.22
				c-5.337,21.354,0.62,44.207,6.38,66.307l0.639,2.452c6.063,23.287,11.765,50.145,2.602,74.17
				c-3.771,9.884-9.854,19.159-19.724,30.072l-0.332,0.368l-0.398,0.295c-13.502,10.014-26.67,19.366-39.138,27.796L551.295,642.925
				z M576.196,311.509c-0.414,0-0.826,0.002-1.238,0.007c-27.518,0.313-48.376,23.014-61.026,42.004
				c-17.277,25.933-29.988,60.812-35.793,98.211c-10.541,67.915,2.047,155.323,71.653,180.135
				c11.612-7.897,23.817-16.583,36.321-25.849c8.804-9.79,14.199-17.998,17.467-26.563c8.111-21.269,2.997-45.298-2.938-68.088
				l-0.637-2.447c-6.077-23.315-12.36-47.424-6.405-71.255c4.963-19.84,17.854-36.364,29.229-50.943
				c5.889-7.555,11.979-15.37,20.083-21.413c11.112-8.292,24.246-11.973,38.038-14.697
				C642.52,324.651,607.329,311.509,576.196,311.509z"/>
		</g>
		<g>
			<path style="fill:#FFFFFF;" d="M715.214,455.619c0,0-58.213-116.17-140.17-93.957c-81.957,22.213-101.106,199.149,0,248.17
				C693.001,504.896,715.214,455.619,715.214,455.619z"/>
			<path style="fill:#231F20;" d="M575.87,615.789l-3.007-1.458c-25.929-12.572-46.123-34.319-58.4-62.891
				c-10.801-25.137-15.215-55.357-12.43-85.093c2.446-26.113,10.046-50.126,21.98-69.445c12.906-20.893,30.1-34.747,49.724-40.066
				c35.4-9.595,71.972,4.251,105.763,40.043c25.015,26.496,39.578,55.288,40.185,56.5l1.065,2.126l-0.977,2.168
				c-0.925,2.052-24.001,51.45-141.405,155.894L575.87,615.789z M596.099,363.815c-6.586,0-13.168,0.889-19.747,2.672
				c-17.129,4.643-32.286,16.977-43.833,35.669c-10.97,17.758-18.261,40.886-20.531,65.122
				c-4.319,46.107,9.529,108.962,62.267,136.558c100.498-89.769,129.756-137.922,135.325-148.183
				c-3.889-7.199-17.322-30.739-37.503-52.069C647.049,377.131,621.57,363.815,596.099,363.815z"/>
		</g>
		<path style="fill:#231F20;" d="M551.296,642.925l-2.333-0.772c-34.137-11.286-59.343-37.505-72.893-75.825
			c-11.579-32.746-14.353-73.989-7.813-116.133c11.394-73.413,51.664-148.056,106.587-148.679
			c36.289-0.43,77.345,15.74,121.985,47.997c52.987,38.3,92.709,86.626,93.104,87.109l2.86,3.502l-3.197,3.197
			c-0.938,0.938-94.933,94.627-197.127,170.43c-13.502,10.014-26.67,19.366-39.138,27.796L551.296,642.925z M576.195,311.509
			c-0.414,0-0.826,0.002-1.238,0.007c-27.518,0.313-48.375,23.014-61.026,42.003c-17.276,25.932-29.988,60.811-35.793,98.211
			c-10.54,67.915,2.047,155.324,71.654,180.137c11.736-7.981,24.078-16.769,36.721-26.146
			c90.917-67.438,175.319-149.127,192.743-166.24c-9.999-11.628-44.539-50.242-88.284-81.862
			C648.624,327.018,610.016,311.509,576.195,311.509z"/>
	</g>
	<g>
		<path style="fill:#FFFFFF;" d="M1228.021,818.936c-6.49-13.36-12.69-26.16-18.61-38.44
			c-114.69-237.65-125.77-277.13-125.77-277.13s58.48-18.26,128.66-22.71c36.22-2.29,75.56-0.91,111.59,8.56
			c40.44,10.63,70.91,44.33,76.55,85.76C1416.831,695.216,1291.621,846.426,1228.021,818.936z"/>
		<g>
			<path style="fill:#231F20;" d="M1244.437,827.18c-6.571,0-12.74-1.208-18.398-3.654l-1.703-0.736l-0.811-1.669
				c-6.493-13.365-12.695-26.169-18.617-38.454l-0.601-1.247l0.125-1.378c0.319-3.508,1.058-6.988,2.194-10.342
				c1.926-5.676,4.895-10.632,7.767-15.425c5.268-8.808,10.539-17.618,15.809-26.419c14.275-23.872,30.456-50.933,32.613-80.179
				c1.438-19.564-3.39-39.205-8.059-58.199c-5.278-21.472-10.735-43.675-19.603-64.146c-6.68-15.407-14.841-28.573-24.254-39.129
				c-0.455-0.503-1.31-1.271-1.91-1.801l-9.024-7.977l12.021-0.76c42.806-2.707,80.881,0.226,113.178,8.714
				c42.835,11.26,74.328,46.556,80.232,89.922c11.474,84.175-45.192,184.669-104.273,229.504
				C1280.799,819.229,1261.293,827.18,1244.437,827.18z M1231.676,815.015c16.564,6.11,38.984-0.646,63.401-19.175
				c56.844-43.136,111.396-139.586,100.41-220.188c-5.356-39.343-33.958-71.373-72.867-81.6
				c-28.634-7.526-62.093-10.532-99.593-8.955c8.17,10.292,15.314,22.451,21.302,36.26c9.201,21.244,14.761,43.862,20.138,65.735
				c4.629,18.831,9.875,40.174,8.32,61.32c-2.331,31.61-19.158,59.751-34.005,84.579c-5.271,8.802-10.54,17.611-15.81,26.42
				c-2.604,4.346-5.294,8.836-6.876,13.5c-0.74,2.182-1.263,4.432-1.559,6.704C1220.01,790.963,1225.72,802.752,1231.676,815.015z"
				/>
		</g>
		<g>
			<path style="fill:#FFFFFF;" d="M1133.427,582.257c0,0,106.967-93.804,164.681-52.085
				c140.681,101.694-44.426,242.042-90.383,239.745C1161.767,767.619,1133.427,582.257,1133.427,582.257z"/>
			<path style="fill:#231F20;" d="M1208.808,774.943c-0.454,0-0.898-0.011-1.334-0.033c-21.758-1.088-41.042-33.261-58.954-98.358
				c-12.76-46.373-19.965-93.072-20.036-93.539l-0.414-2.708l2.059-1.807c1.109-0.973,27.563-24.038,61.629-42.333
				c20.207-10.852,38.87-17.712,55.474-20.391c21.422-3.458,39.526,0.024,53.805,10.346c60.451,43.699,59.244,92.414,47.587,125.586
				c-14.383,40.929-48.525,72.454-67.597,87.602C1253.949,760.817,1225.231,774.943,1208.808,774.943z M1138.808,584.25
				c1.732,10.619,8.524,50.311,19.374,89.724c21.484,78.042,40.418,90.481,49.792,90.95c11.556,0.567,38.23-10.726,66.833-33.445
				c18.229-14.478,50.831-44.525,64.382-83.087c15.313-43.576,0.506-81.987-44.01-114.167
				C1245.598,498.385,1153.793,571.744,1138.808,584.25z"/>
		</g>
		<path style="fill:#231F20;" d="M1244.437,827.18c-6.572,0-12.741-1.208-18.399-3.654l-1.703-0.736l-0.811-1.669
			c-6.492-13.364-12.694-26.169-18.616-38.453c-113.575-235.339-125.623-276.321-126.08-277.95l-1.313-4.676l4.636-1.448
			c0.59-0.184,59.863-18.49,129.833-22.927c42.802-2.706,80.881,0.226,113.179,8.714c42.835,11.26,74.328,46.556,80.232,89.921
			c11.474,84.175-45.193,184.669-104.273,229.504C1280.799,819.228,1261.293,827.18,1244.437,827.18z M1231.675,815.015
			c16.566,6.11,38.985-0.646,63.402-19.175c56.844-43.136,111.396-139.585,100.41-220.188
			c-5.356-39.343-33.958-71.372-72.867-81.599c-31.259-8.216-68.266-11.046-110.004-8.406
			c-57.185,3.626-107.075,16.667-122.547,21.047c5.815,15.951,30.577,78.37,123.844,271.629
			C1219.576,790.068,1225.493,802.286,1231.675,815.015z"/>
	</g>
	<path style="fill:#FFFFFF;" d="M1296.398,972.904c0,0-8.04-19.53-27.57-55.15c18.38,62.05-32.17,137.26-32.17,137.26
		s2.3-9.72,0-46.49c-6.84,55.86-72.87,93.24-73.9,93.82c0.09-0.16,1.8-3.04,10.33-26.43c-12.54,25.07-100.7,58.72-102.07,59.24
		c0.75-0.6,24.8-19.68,30.83-37.27c-31.66,30.13-114.89,43.28-132.64,42.51c7.92-2.3,5.49-3.96,24.64-18.25
		c-16.85,7.15-102.64,12.76-122.55,0c-111.07,53.1-200.68-7.54-243.18-52.34c-69.3-31.79-99.59-77.37-99.59-77.37
		s0.77,22.22,14.17,50.17c-60.51-37.53-60.51-115.65-60.51-115.65s-6.51,29.1-6.13,57.82c-50.17-46.37-27.16-128.19-26.81-129.43
		c-0.51,0.54-16.89,18-19.14,42.88c-29.11-60.13,24.51-129.83,24.51-129.83s-12.26,5.36-33.32,16.85
		c10.34-39.44,40.98-58.21,65.87-78.12c19.45-15.57,13.88-12.42,35.56-39.19c6.06-7.48,14.26-17.3,25.72-30.52
		c110.3-260.81,326.3-218.29,326.3-218.29s-16.47-9.58-25.15-18.77c38.07-10.52,59.93-2.85,60.74-2.56
		c-0.78-0.61-25.77-20.07-42.36-30.12c39.32-14.81,112.47,22.72,122.04,68.68c202.39,89.78,226.09,295.78,260.28,399.51
		c0.81,2.46,1.62,4.87,2.45,7.21C1299.848,922.354,1296.398,972.904,1296.398,972.904z"/>
	<g>
		<path style="fill:#231F20;" d="M734.718,600.695c-0.175,0-0.351-0.009-0.527-0.028l-0.58-0.061
			c-2.403-0.255-4.28-2.192-4.459-4.603l-0.252-3.342c-0.775-9.864-1.576-20.064-5.734-28.492
			c-7.483-15.155-17.608-23.647-30.092-25.241c-26.414-3.379-56.818,24.027-60.491,28.278c-5.048,5.84-9.812,12.083-14.161,18.557
			c-1.034,1.538-2.836,2.375-4.678,2.184l-0.433-0.046c-1.504-0.16-2.855-0.991-3.675-2.263c-0.82-1.271-1.02-2.845-0.544-4.28
			c0.829-2.505,20.807-61.54,64.852-79.024c11.094-4.403,23.48-3.297,33.133,2.96l0,0c36.328,23.549,32.8,87.977,32.632,90.708
			c-0.084,1.362-0.721,2.63-1.763,3.511C737.04,600.28,735.894,600.695,734.718,600.695z M687.793,509.668
			c-3.402,0-6.854,0.647-10.16,1.96c-19.306,7.664-33.759,24.988-43.534,40.823c12.584-10.359,36.471-26.478,60.24-23.442
			c11.556,1.475,21.394,7.27,29.381,17.274c-4.099-12.96-10.887-25.34-22.083-32.597
			C697.532,511.025,692.716,509.668,687.793,509.668z"/>
	</g>
	<path style="fill:#231F20;" d="M727.601,668.521c1.979,4.09,2.728,8.674,2.185,13.185c-6.074,50.505-15.721,97.796-16.631,98.659
		c-2.133,2.029-76.838-0.473-115.263-47.939c-4.026-4.974-5.938-11.308-5.3-17.675c5.232-52.224,36.296-92.346,73.843-92.346
		C691.747,622.405,714.111,640.641,727.601,668.521z"/>
	<path style="fill:#FFFFFF;" d="M729.958,693.467c-6.05,45.85-14.31,86.1-15.15,86.9c-2.1,1.99-74.26-0.39-113.22-45.51
		c-0.01-0.66-0.02-1.33-0.02-2c0-51.03,30.18-92.4,67.4-92.4C695.918,640.457,719.178,662.137,729.958,693.467z"/>
	
		<ellipse transform="matrix(0.1244 -0.9922 0.9922 0.1244 -115.3865 1298.3492)" style="fill:#231F20;" cx="677.938" cy="714.551" rx="58.297" ry="47.489"/>
	
		<ellipse transform="matrix(0.6632 -0.7485 0.7485 0.6632 -292.0851 735.6106)" style="fill:#FFFFFF;" cx="671.286" cy="692.338" rx="13.787" ry="13.787"/>
	<path style="fill:#231F20;" d="M575.667,684.451c8.936,36.12,40.519,61.793,73.855,75.15c16.838,6.805,33.862,13.321,51.596,17.451
		c3.579,0.819,7.191,1.498,10.912,2.06l0.059,0.998c-3.718,0.952-7.555,1.284-11.391,1.49c-19.116,0.347-38.283-4.384-55.31-13.003
		c-13.517-7.093-26.436-15.418-37.792-25.647c-16.806-15.151-29.77-35.822-32.911-58.308
		C574.685,684.641,575.667,684.451,575.667,684.451L575.667,684.451z"/>
	<g>
		<path style="fill:#231F20;" d="M1104.114,680.875c-2.296,0-4.34-1.583-4.868-3.88c-8.707-37.884-29.284-65.648-57.94-78.179
			c-13.609-5.95-29.574-4.896-42.703,2.82c-17.018,10.009-31.708,25.14-43.661,44.97c-0.859,1.423-1.753,2.964-2.815,4.851
			c-0.674,1.198-1.812,2.066-3.146,2.399c-1.334,0.332-2.747,0.102-3.905-0.639c-1.1-0.704-1.921-1.347-2.439-1.91
			c-1.323-1.441-1.684-3.521-0.925-5.323c1.627-3.862,40.489-94.539,95.817-90.777c25.661,1.745,43.733,13.945,55.247,37.296
			c9.298,18.857,14.336,44.49,16.337,83.113c0.134,2.589-1.733,4.852-4.301,5.21
			C1104.577,680.859,1104.345,680.875,1104.114,680.875z M1022.893,585.002c7.662,0,15.3,1.539,22.419,4.652
			c21.151,9.248,38.271,25.826,50.114,48.069c-2.635-16.999-6.456-30.325-11.62-40.798c-9.937-20.152-24.857-30.239-46.956-31.742
			c-23.824-1.611-45.007,18.827-60.37,40.031c5.404-4.623,11.093-8.693,17.054-12.2
			C1002.581,587.699,1012.757,585.002,1022.893,585.002z"/>
	</g>
	<path style="fill:#231F20;" d="M1076.751,778.094c0,9.824-1.342,19.299-3.834,28.207c-2.126,7.599-7.94,13.618-15.506,15.857
		c-0.036,0.011-0.073,0.022-0.109,0.032c-19.33,5.736-36.29,10.44-51.7,13.519c-0.31,0.056-0.62,0.122-0.92,0.178
		c-33.38,6.375-58.3,4.018-87.06-13.547c-0.01-0.009-0.02-0.009-0.03-0.019c-2.29-1.389-3.78-3.671-4.13-6.206
		c-0.37-2.732-0.59-5.314-0.59-5.314s0-0.141-0.01-0.413c-0.087-4.243-2.023-40.493,7.353-81.886
		c0.632-2.792,1.751-5.464,3.379-7.819c15.576-22.527,41.308-37.007,68.667-37.007
		C1038.921,683.677,1076.751,725.952,1076.751,778.094z"/>
	<path style="fill:#FFFFFF;" d="M1057.541,798.81c0,6.628-0.469,13.102-1.369,19.375c-0.159,0.048-0.309,0.106-0.469,0.154
		c-3.583,1.183-7.081,2.328-10.504,3.434c-18.503,6.022-34.315,10.842-48.486,13.853c-0.291,0.058-0.582,0.125-0.863,0.183
		c-31.305,6.532-54.676,4.117-81.648-13.881c-0.009-0.01-0.019-0.01-0.028-0.019c-1.351-0.895-2.41-2.155-3.086-3.617
		c-0.769-5.378-1.229-10.909-1.341-16.556c-0.009-0.038-0.009-0.077,0-0.106c-0.028-0.943-0.037-1.876-0.037-2.819
		c0-4.473,0.216-8.889,0.628-13.208c4.736-49.475,35.75-87.685,73.282-87.685C1024.445,697.917,1057.541,743.092,1057.541,798.81z"
		/>
	<ellipse style="fill:#231F20;" cx="994.79" cy="781.618" rx="47.489" ry="58.297"/>
	
		<ellipse transform="matrix(0.7071 -0.7071 0.7071 0.7071 -242.3465 915.2454)" style="fill:#FFFFFF;" cx="983.626" cy="750.161" rx="13.787" ry="13.787"/>
	<path style="fill:#231F20;" d="M911.949,817.724c23.816,6.465,47.634,10.348,72.116,12.123c16.136,1.464,32.485,0.325,48.395-2.871
		c24.208-4.685,47.3-14.082,67.869-27.99l0.727,0.954c-12.704,10.879-27.263,19.702-42.784,26.416
		c-15.596,6.702-32.147,11.182-49.013,13.37c-26.557,3.782-50.785,2.601-75.7-8.198c-7.856-3.386-15.381-7.524-22.136-12.725
		L911.949,817.724L911.949,817.724z"/>
	<g>
		<g>
			<path style="fill:#231F20;" d="M616.241,809.896c-0.175,0-0.352-0.009-0.529-0.028c-101.05-10.677-142.162-27.406-143.862-28.113
				c-2.516-1.046-3.731-3.914-2.733-6.449l21.191-53.817c0.592-1.504,1.875-2.628,3.443-3.02c1.568-0.39,3.228,0.001,4.458,1.05
				c0.723,0.618,72.826,61.983,119.879,80.731c2.32,0.925,3.602,3.419,3.003,5.844C620.535,808.346,618.515,809.896,616.241,809.896
				z M480.301,774.196c11.569,3.95,45.43,14.122,107.675,22.32c-36.669-20.868-76.622-53.055-90.908-64.9L480.301,774.196z"/>
		</g>
		<g>
			<path style="fill:#231F20;" d="M489.761,859.425c-2.06,0-3.971-1.281-4.701-3.303l-12.21-33.824
				c-0.58-1.606-0.3-3.397,0.743-4.75c1.042-1.352,2.703-2.079,4.403-1.929c2.862,0.254,70.435,6.328,101.338,14.989
				c2.288,0.641,3.809,2.804,3.637,5.174c-0.171,2.37-1.986,4.292-4.342,4.599c-33.491,4.353-87.028,18.725-87.565,18.87
				C490.63,859.369,490.192,859.425,489.761,859.425z M484.938,826.33l7.973,22.089c9.908-2.591,34.552-8.862,58.341-13.553
				C527.212,830.767,498.499,827.68,484.938,826.33z"/>
		</g>
		<g>
			<path style="fill:#231F20;" d="M1163.728,928.4c-38.328,0-87.814-18.776-125.248-42.48c-1.999-1.266-2.837-3.759-2.009-5.975
				c0.828-2.216,3.095-3.544,5.436-3.192c60.904,9.267,105.48-2.692,132.15-14.354c28.908-12.641,43.633-27.68,43.778-27.83
				c1.409-1.457,3.56-1.924,5.444-1.176c1.883,0.748,3.132,2.556,3.157,4.583c0.025,2.116,0.294,52.182-29.546,83.55
				c-0.456,0.479-1.003,0.863-1.608,1.13C1186.274,926.62,1175.529,928.4,1163.728,928.4z M1064.495,889.339
				c42.971,22.398,95.929,36.954,125.843,24.554c18.354-19.858,23.805-48.567,25.421-64.342
				c-7.632,5.917-19.986,14.205-37.17,21.778C1154.29,882.037,1115.858,892.999,1064.495,889.339z"/>
		</g>
		<g>
			<path style="fill:#231F20;" d="M1165.558,992.411c-0.317,0-0.638-0.03-0.957-0.092c-2.997-0.584-73.729-14.509-102.759-32.264
				c-1.971-1.206-2.859-3.605-2.149-5.804c0.71-2.199,2.838-3.62,5.139-3.447c38.861,2.974,122.356-2.375,123.196-2.43
				c1.912-0.112,3.705,0.844,4.655,2.493c0.951,1.65,0.882,3.696-0.177,5.278l-22.794,34.047
				C1168.772,991.596,1167.204,992.411,1165.558,992.411z M1089.225,961.688c27.226,10.089,63.168,17.901,74.042,20.155
				l15.321-22.885C1160.302,960,1120.88,961.972,1089.225,961.688z"/>
		</g>
	</g>
	<g>
		<path style="fill:#FFFFFF;" d="M871.021,878.046c4.534,31.53-108.852,64.103-126.956,62.701
			c-9.554-0.74-133.974-83.124-72.128-111.851c15.958-7.412,71.122,33.939,88.085,37.149
			C796.673,872.98,864.76,834.5,871.021,878.046z"/>
		<path style="fill:#231F20;" d="M745.086,945.781c-0.515,0-0.983-0.017-1.407-0.049c-6.462-0.501-30.429-16.472-47.54-30.417
			c-18.868-15.376-42.138-38.018-45.85-58.561c-1.773-9.813,0.178-23.398,19.542-32.393c11.317-5.257,31.351,5.178,60.625,21.698
			c12.191,6.88,24.798,13.994,30.497,15.073c12.234,2.313,29.147-1,45.504-4.204c23.194-4.544,45.099-8.835,58.591,0.741
			c5.982,4.246,9.656,10.862,10.922,19.666c0.944,6.565-1.721,13.25-7.919,19.869C843.146,923.796,764.026,945.779,745.086,945.781z
			 M744.641,935.775c0.285,0.017,0.597,0.025,0.929,0.025c16.764,0.002,92.956-21.701,115.182-45.432
			c4.021-4.293,5.81-8.199,5.32-11.611c-0.872-6.069-3.101-10.3-6.812-12.934c-9.993-7.094-30.781-3.021-50.88,0.918
			c-17.286,3.386-35.161,6.889-49.286,4.216c-7.318-1.385-19.476-8.245-33.553-16.189c-10.859-6.128-22.087-12.465-31.957-16.798
			c-13.6-5.972-18.195-5.164-19.54-4.54c-13.834,6.426-14.713,14.34-14.17,19.735c1.342,13.346,15.619,31.968,40.2,52.436
			C720.348,922.482,740.763,934.713,744.641,935.775z"/>
	</g>
	<path style="fill:#231F20;" d="M615.722,870.269c-11.781,12.41-17.781,29.627-17.581,46.625
		c-0.284,29.241,18.063,54.687,43.638,67.688c22.271,11.291,49.98,14.836,73.158,4.338c6.866-3.389,14.111-7.938,17.759-14.78
		c2.169-4.304,3.237-9.989,4.417-15.691c1.143-5.743,2.316-11.59,3.632-17.394c1.644-6.378,11.004-4.316,9.753,2.21
		c-1.406,5.679-2.672,11.374-3.948,17.18c-1.433,6.127-2.565,12.181-5.633,18.024c-7.454,13.463-25.721,21.383-40.285,23.692
		c-34.774,5.322-72.265-9.523-93.1-38.024c-14.032-19.169-18.358-44.742-11.849-67.536c3.153-10.953,8.927-21.231,16.953-29.366
		C614.691,865.254,617.68,868.18,615.722,870.269L615.722,870.269z"/>
	<path style="fill:#231F20;" d="M743.829,972.002c-0.421,4.32,1.354,8.507,3.454,12.367c2.379,4.238,5.565,8.201,9.113,11.819
		c18.469,18.711,45.585,26.05,71.18,28.172c27.42,2.211,56.391-4.042,77.871-21.904c7.103-5.919,13.372-12.815,18.535-20.512
		c5.969-8.773,10.677-18.431,14.271-28.503c0.321-0.903,1.313-1.375,2.216-1.055c0.889,0.316,1.359,1.286,1.068,2.178
		c-3.417,10.394-8.005,20.47-13.981,29.748c-8.914,14.008-21.35,25.899-35.988,33.81c-29.497,16.083-65.244,16.509-97.226,8.336
		c-16.451-4.176-31.971-11.843-44.39-23.727c-8.3-8.258-16.971-19.348-16.046-31.967
		C734.847,964.054,744.569,965.279,743.829,972.002L743.829,972.002z"/>
	<path style="fill:#231F20;" d="M627.696,1076.417c-10.721-21.909-25.892-48.456-15.548-73.527c0.935-2.172,4.219-1.001,3.536,1.287
		c-3.754,11.618-1.607,23.943,3.001,35.015c4.696,11.452,11.493,21.754,17.834,32.517
		C639.777,1077.768,630.945,1082.522,627.696,1076.417L627.696,1076.417z"/>
	<path style="fill:#231F20;" d="M1164.977,1070.185c12.559-20.941,24.038-36.919,26.241-62.214c0.08-1.021,0.984-1.784,2.004-1.687
		c0.952,0.089,1.666,0.897,1.667,1.833c0.026,11.847-2.236,23.752-6.374,34.871c-3.953,10.955-9.841,21.366-14.637,31.754
		C1170.77,1080.911,1161.786,1076.351,1164.977,1070.185L1164.977,1070.185z"/>
	<path style="fill:#231F20;" d="M1228.095,1004.104c3.898-14.354-1.757-30.021-6.895-43.863c-0.771-2.092,2.23-3.472,3.305-1.5
		c7.677,14.28,15.683,30.365,13.403,47.287C1236.755,1013.103,1226.49,1011.105,1228.095,1004.104L1228.095,1004.104z"/>
	<path style="fill:#231F20;" d="M1260.27,914.908c-5.836-15.296-22.547-28.59-36.162-37.276c-1.475-0.912-0.287-3.208,1.319-2.494
		c12.851,5.95,25.021,13.464,35.066,23.631c3.384,3.516,6.555,7.44,8.97,12.203c1.27,2.47,0.286,5.506-2.192,6.762
		C1264.598,919.115,1261.238,917.753,1260.27,914.908L1260.27,914.908z"/>
	<path style="fill:#231F20;" d="M520.203,990.766c-1.993-6.825-2.97-14.498-2.433-21.579c0.25-3.471,5.234-3.67,5.78-0.261
		c0.899,6.594,2.908,12.401,5.99,18.261C532.556,993.913,522.462,997.791,520.203,990.766L520.203,990.766z"/>
	<path style="fill:#231F20;" d="M473.774,926.677c-0.145-11.399,3.274-21.883,7.427-32.214c1.395-3.309,2.932-6.558,4.734-9.707
		c0.588-1.027,1.898-1.383,2.925-0.795c0.951,0.544,1.326,1.708,0.912,2.69c-2.5,6.274-4.192,12.972-5.343,19.625
		c-1.021,6.308-1.733,13.253-0.706,19.386C484.641,932.721,474.31,933.796,473.774,926.677L473.774,926.677z"/>
	<path style="fill:#231F20;" d="M440.057,852.069c2.779-5.722,6.597-11.05,10.883-15.644c4.2-4.536,8.558-8.533,12.633-12.807
		c0.765-0.802,2.035-0.832,2.837-0.067c0.721,0.687,0.819,1.784,0.275,2.58c-6.512,9.557-14.28,18.532-17.335,29.634
		C446.967,862.629,437.076,858.714,440.057,852.069L440.057,852.069z"/>
	<path style="fill:#231F20;" d="M446.233,762.623c9.019-6.189,17.282-13.959,26.423-20.309c2.016-1.374,4.3,1.378,2.582,3.102
		c-7.916,7.937-14.5,16.879-22.617,24.901C447.259,775.199,440.44,767.013,446.233,762.623L446.233,762.623z"/>
	<path style="fill:#231F20;" d="M724.956,784.653c39.777-35.318,113.718-23.015,139.799,23.504c1.714,3.124,3.086,6.423,4.115,9.833
		l-1.218,1.038c-4.276-4.797-9.03-9.147-14.117-13.045c-30.484-23.76-71.702-31.506-109.344-24.503
		c-6.327,1.114-12.587,2.665-18.703,4.682L724.956,784.653L724.956,784.653z"/>
	<path style="fill:#231F20;" d="M909.649,390.312c4.686,4.244,8.642,8.694,12.65,13.441c3.896,4.762,7.701,9.399,10.668,14.892
		c0.866,1.68-1.452,3.195-2.638,1.723c-3.606-4.413-8.231-8.271-12.657-11.938c-4.416-3.564-9.177-7.191-13.957-10.071
		C897.617,394.319,903.968,385.677,909.649,390.312L909.649,390.312z"/>
	<path style="fill:#231F20;" d="M874.007,411.478c8.034,5.178,15.381,11.438,21.098,18.884c0.581,0.756,0.438,1.84-0.318,2.421
		c-0.648,0.498-1.54,0.464-2.145-0.033c-6.932-5.543-14.866-9.479-23.044-12.295C862.641,417.61,867.491,407.71,874.007,411.478
		L874.007,411.478z"/>
	<path style="fill:#231F20;" d="M1253.64,837.49c-0.67-1.9-1.37-3.97-2.25-6.65c-4.77-14.47-9.41-31.24-14.27-49.05l-2.01-7.36
		v-0.01c-14.82-54.37-33.39-121.56-69.21-184.28c-42.32-74.12-99.66-126.74-175.23-160.8c-5.55-21.57-24.51-42.97-51.25-57.67
		c-27.35-15.04-56.81-19.69-76.86-12.13c-1.79,0.67-3.04,2.31-3.22,4.22c-0.17,1.9,0.75,3.74,2.39,4.73
		c7.92,4.8,17.9,11.87,26.14,17.92c-10.64-0.38-25.19,0.68-43.26,5.67c-1.69,0.46-3.01,1.78-3.48,3.47
		c-0.48,1.69-0.03,3.5,1.18,4.78c2.63,2.78,5.88,5.57,9.19,8.14c-22.09-1.3-59.94-0.41-103.74,13.78
		c-40.04,12.98-76.66,34.47-108.83,63.88c-39.92,36.49-73.03,85.32-98.43,145.15c-9.91,11.43-18.42,21.54-25.31,30.05
		c-6.43,7.94-10.51,13.3-13.49,17.22c-7,9.2-8.07,10.61-21.31,21.21c-3.28,2.62-6.59,5.17-10.1,7.88
		c-22.54,17.36-48.09,37.03-57.49,72.88c-0.5,1.93,0.19,3.97,1.76,5.2c1.57,1.23,3.72,1.41,5.48,0.46
		c6.48-3.54,12.13-6.5,16.84-8.89c-4.32,7.37-9.37,17.02-13.75,28.19c-13.3,33.96-13.7,65.59-1.18,91.46
		c0.98,2.03,3.19,3.15,5.4,2.75c2.21-0.41,3.88-2.24,4.08-4.47c0.63-6.95,2.44-13.27,4.68-18.73c-3.14,29.2-1.61,76.6,32.9,108.5
		c1.46,1.36,3.6,1.71,5.43,0.89c1.82-0.81,2.99-2.63,2.96-4.63c-0.1-7.83,0.32-15.73,0.99-23.03c0.83,3.37,1.8,6.89,2.93,10.52
		c10.26,32.85,29.31,58.67,55.09,74.66c1.88,1.17,4.32,0.95,5.97-0.53c1.65-1.49,2.13-3.88,1.17-5.89
		c-5.51-11.48-8.81-22-10.78-30.26c14.73,16.3,43.39,42.8,88.73,63.77c16.43,17.18,50.37,47.56,97.23,63.47
		c20.57,6.99,41.29,10.47,62.08,10.47c28.85,0,57.83-6.72,86.66-20.13c19.54,9.39,72.42,7.93,103.62,3.59
		c-3.13,2.84-3.7,3.31-6.93,4.24c-2.35,0.69-3.87,2.97-3.57,5.4c0.29,2.43,2.3,4.3,4.74,4.4c14.09,0.62,74.71-7.68,114.52-28.78
		c-5.47,5.98-11.37,11.26-15.61,14.64c-1.93,1.54-2.44,4.25-1.22,6.39c1.22,2.14,3.82,3.06,6.12,2.19
		c7.26-2.76,58.56-22.63,87.24-43.66c-1.19,2.88-1.6,3.66-1.64,3.73c-1.1,1.96-0.76,4.4,0.83,5.99c1.59,1.58,4.03,1.91,5.99,0.81
		c2.31-1.3,47.34-27.08,67.45-68.18c-0.07,11.39-0.87,15.32-0.87,15.34c-0.56,2.36,0.64,4.77,2.86,5.74
		c2.21,0.97,4.8,0.21,6.15-1.79c1.8-2.68,37.8-57,37.07-112.26c9.58,18.86,13.84,29.12,13.9,29.26c0.88,2.15,3.13,3.4,5.43,3.03
		c2.29-0.37,4.02-2.28,4.18-4.59C1297.88,967.66,1300.73,916.95,1253.64,837.49z M1269.55,911.89c-1.22-2.24-3.94-3.19-6.3-2.21
		s-3.6,3.59-2.87,6.04c12.29,41.49-8.03,90.02-21.36,115.45c-0.05-6.72-0.34-15.38-1.03-26.42c-0.16-2.57-2.26-4.6-4.84-4.68
		c-2.62-0.08-4.8,1.82-5.11,4.39c-4.65,37.92-38.94,67.54-58.26,81.43c1.22-3.21,2.65-7.07,4.35-11.72
		c0.91-2.49-0.29-5.26-2.72-6.31c-2.44-1.05-5.27-0.01-6.45,2.36c-7.25,14.5-46.02,34.08-75.16,46.84
		c5.49-6.38,10.62-13.72,13.12-21.01c0.75-2.18-0.09-4.59-2.03-5.83c-1.94-1.25-4.48-1.01-6.15,0.58
		c-23.89,22.75-80.87,35.92-111.69,39.88c2.47-2.08,5.71-4.69,10.13-7.99c2.03-1.51,2.61-4.3,1.35-6.49
		c-1.26-2.2-3.96-3.11-6.29-2.12c-16.23,6.89-100.19,11.75-117.9,0.4c-1.46-0.94-3.29-1.05-4.86-0.3
		c-120.49,57.6-212.17-24.68-237.39-51.27c-0.44-0.47-0.96-0.84-1.54-1.11c-67.04-30.75-97.22-75.15-97.51-75.59
		c-0.95-1.42-2.53-2.23-4.17-2.23c-0.51,0-1.02,0.07-1.53,0.24c-2.13,0.68-3.54,2.69-3.47,4.93c0.03,0.75,0.62,15.17,7.71,35.36
		c-16.67-14.48-28.95-34.07-36.62-58.46c-7.31-23.26-7.43-42.37-7.43-42.55c0-2.55-1.92-4.69-4.45-4.97
		c-2.54-0.29-4.87,1.39-5.43,3.87c-0.23,1.04-4.93,22.3-6.03,46.58c-36.67-44.62-18.08-112.67-17.22-115.74
		c0.63-2.21-0.34-4.57-2.34-5.7c-2.01-1.14-4.52-0.76-6.1,0.91c-0.57,0.6-10.77,11.56-16.65,28.43
		c-12.89-52.63,29.15-108.29,29.61-108.9c1.4-1.8,1.39-4.33-0.02-6.12c-1.41-1.8-3.85-2.42-5.94-1.5
		c-0.41,0.17-8.45,3.71-22.61,11.1c10.44-25.4,30.53-40.87,50.04-55.9c3.39-2.61,6.9-5.31,10.25-7.99
		c13.81-11.06,15.46-13.02,23.02-22.96c2.94-3.87,6.96-9.17,13.3-16.99c6.94-8.57,15.56-18.79,25.61-30.39
		c0.34-0.4,0.62-0.84,0.83-1.33c56.13-132.73,140.27-184.19,200.97-203.98c65.85-21.48,119.23-11.45,119.76-11.35
		c2.39,0.47,4.78-0.85,5.64-3.14c0.86-2.28-0.05-4.86-2.16-6.09c-0.13-0.07-9.38-5.48-17.34-11.84c30.74-6.68,47.95-0.74,48.73-0.46
		c2.31,0.83,4.87-0.14,6.06-2.29c1.18-2.15,0.64-4.84-1.3-6.35c-0.21-0.17-17.31-13.52-32.92-24.06
		c16.53-1.99,37.61,3.01,57.77,14.09c25.26,13.89,42.77,33.88,46.86,53.49c0.32,1.57,1.39,2.89,2.86,3.55
		c136.91,60.73,190.49,173.46,222.21,273.93c1.34,4.22,2.63,8.42,3.89,12.59c5.77,19.11,10.83,37.68,15.62,55.23
		c0.14,0.5,0.27,1,0.41,1.49c1.06,3.91,2.12,7.77,3.16,11.58c4.13,15.01,8.14,29.14,12.27,41.68c0.98,2.96,1.74,5.22,2.49,7.32
		c0.11,0.3,0.25,0.6,0.41,0.88c25.15,42.33,35.64,76.44,39.98,98.6C1280.77,932.83,1275.74,923.17,1269.55,911.89z"/>
	<path style="fill:#231F20;" d="M845.17,931.87c73.717-11.417,149.264-9.328,221.834,5.983c0.802,0.169,1.314,0.956,1.145,1.758
		c-0.166,0.786-0.927,1.293-1.712,1.154c-72.663-12.94-147.461-12.562-219.581,0.962C840.276,942.745,838.511,933.165,845.17,931.87
		L845.17,931.87z"/>
	<path style="fill:#231F20;" d="M851.436,962.749c54.518,15.578,106.434,39.502,153.414,70.574c0.626,0.414,0.798,1.257,0.384,1.883
		c-0.403,0.609-1.214,0.786-1.833,0.415c-48.039-28.87-100.364-50.232-154.505-63.2
		C842.422,970.636,844.826,961.133,851.436,962.749L851.436,962.749z"/>
	<path style="fill:#231F20;" d="M833.965,990.418c35.246,16.744,65.375,43.277,86.258,75.563c0.594,0.918,0.331,2.144-0.587,2.738
		c-0.887,0.574-2.065,0.342-2.679-0.502c-22.119-30.534-52.707-54.528-87.047-68.658
		C823.743,996.757,827.697,987.724,833.965,990.418L833.965,990.418z"/>
	<path style="fill:#231F20;" d="M646.49,916.51c-32.71-29.374-72.557-51.229-115.494-63.057c-0.716-0.197-1.137-0.938-0.94-1.654
		c0.19-0.691,0.891-1.107,1.583-0.957c43.929,9.565,85.838,29.518,121.324,58.046c2.155,1.729,2.5,4.877,0.771,7.032
		C651.951,918.155,648.612,918.426,646.49,916.51L646.49,916.51z"/>
	<path style="fill:#231F20;" d="M639.697,944.097c-39.144-17.034-81.996-26.12-125.133-26.354c-0.951-0.005-1.718-0.78-1.713-1.731
		c0.005-0.92,0.736-1.668,1.645-1.711c43.564-1.959,87.722,5.009,128.955,20.527c2.586,0.971,3.895,3.854,2.924,6.441
		C645.38,943.942,642.308,945.241,639.697,944.097L639.697,944.097z"/>
	<path style="fill:#231F20;" d="M649.193,965.81c-33.053-2.185-66.679,1.094-99.065,9.788c-0.695,0.187-1.41-0.225-1.597-0.921
		c-0.178-0.663,0.193-1.345,0.83-1.569c31.934-11.134,65.894-17.046,100.12-17.294c2.765-0.024,5.026,2.202,5.046,4.967
		C654.56,963.674,652.077,966.012,649.193,965.81L649.193,965.81z"/>
	<g>
		<path style="fill:#231F20;" d="M986.745,565.094c-1.829,0-3.558-1.007-4.434-2.691c-0.18-0.343-18.593-35.004-57.67-62.21
			c-52.197-36.341-114.66-42.913-185.653-19.534c-2.401,0.791-5.018-0.336-6.091-2.627c-1.074-2.291-0.267-5.022,1.878-6.362
			c0.935-0.584,23.262-14.427,55.58-25.514c30.029-10.303,74.546-19.928,116.084-7.27c33.352,10.161,58.69,34.369,73.278,70.006
			c10.906,26.644,11.984,50.014,12.025,50.996c0.097,2.34-1.444,4.434-3.706,5.038C987.605,565.039,987.172,565.094,986.745,565.094
			z M817.901,457.1c11.356,0,22.461,0.887,33.287,2.663c28.699,4.71,55.46,15.638,79.539,32.482
			c22.228,15.55,37.912,33.096,47.729,46.125c-1.702-7.631-4.264-16.634-8.11-25.976c-13.618-33.069-36.1-54.583-66.82-63.943
			c-42.338-12.897-88.833-1.216-121.373,11.452C794.31,458.035,806.238,457.1,817.901,457.1z"/>
	</g>
	<g>
		<path style="fill:#231F20;" d="M951.31,607.938c-1.254,0-2.496-0.471-3.448-1.378l-85.83-81.679l-112.249,21.974l-1.5,0.622
			c-2.062,0.854-4.445,0.238-5.833-1.513c-1.388-1.752-1.445-4.212-0.14-6.025l1.962-2.728c0.253-0.351,0.55-0.668,0.884-0.943
			c3.07-2.524,75.873-61.621,134.055-44.204c58.526,17.518,76.28,106.163,77.007,109.927c0.413,2.135-0.602,4.292-2.51,5.335
			C952.954,607.737,952.129,607.938,951.31,607.938z M863.606,514.478c1.271,0,2.509,0.485,3.447,1.378l74.977,71.35
			c-7.911-25.931-27.448-74.118-65.687-85.563c-38.667-11.576-86.881,15.888-110.48,31.874l96.783-18.946
			C862.965,514.509,863.287,514.478,863.606,514.478z"/>
	</g>
	<g>
		<path style="fill:#231F20;" d="M613.836,782.577c-0.971,0-1.95-0.282-2.808-0.865c-82.53-56.109-102.04-72.79-104.167-107.861
			c-0.066-1.09,0.227-2.172,0.833-3.08c18.592-27.835,36.147-42.193,36.886-42.791c1.435-1.163,3.394-1.438,5.093-0.719
			c1.701,0.719,2.866,2.316,3.032,4.155c0.092,0.998,8.643,87.877,64.629,142.584c1.852,1.81,2.016,4.736,0.376,6.741
			C616.727,781.944,615.29,782.577,613.836,782.577z M516.958,674.915c1.909,24.098,13.404,38.268,69.641,77.81
			c-16.183-23.577-26.285-48.542-32.362-67.777c-5.733-18.142-8.729-33.518-10.205-42.888
			C537.614,648.394,527.458,659.435,516.958,674.915z"/>
	</g>
	<g>
		<path style="fill:#231F20;" d="M1237.12,781.79c-1.28,3.39-3.91,6.93-7.5,10.5c-11.05,10.98-31.16,22.16-48.54,29.77
			c-20.08,8.79-59.31,22.99-103.29,22.99c-2.49,0-5-0.04-7.52-0.14c-2.49-0.09-4.53-2.01-4.78-4.49c-0.26-2.48,1.35-4.76,3.78-5.36
			c72.1-17.75,133.78-117.9,137.27-123.66c0.09-0.14,0.14-0.22,0.16-0.25c1.41-2.38,4.48-3.16,6.85-1.75
			c2.37,1.42,3.16,4.48,1.74,6.86c-0.21,0.35-1.88,3.15-4.86,7.73c-6.59,10.12-19.57,28.93-37.15,49.03
			c-24.62,28.14-49.05,48.48-72.93,60.78c32.77-3.56,60.9-13.97,76.71-20.9c28.21-12.36,44.51-25.09,49.4-32.19
			c0.79-1.16,1.28-2.16,1.47-2.99c0.62-2.69,3.31-4.37,6-3.74c0.42,0.1,0.81,0.25,1.18,0.44v0.01L1237.12,781.79z"/>
	</g>
	<path style="fill:#231F20;" d="M865.551,1114.144c7.068-2.602,12.887-8.123,17.69-14.075c5.078-6.291,9.381-13.465,13.845-20.582
		c1.077-1.693,3.711-0.299,2.882,1.553c-7.11,15.507-14.191,33.475-30.236,42.188
		C863.338,1126.432,858.947,1116.925,865.551,1114.144L865.551,1114.144z"/>
	<path style="fill:#231F20;" d="M984.538,1115.612c3.834-1.458,7.518-3.567,11.102-5.652c11.091-6.74,22.471-14.037,32.025-22.802
		c1.69-1.781,4.474,0.597,2.928,2.54c-5.95,7.094-12.72,12.852-19.643,18.826c-6.132,5.089-12.387,10.187-19.192,14.438
		c-0.981,0.642-2.174,1.248-3.314,1.856C981.928,1127.898,977.785,1118.216,984.538,1115.612L984.538,1115.612z"/>
	<path style="fill:#231F20;" d="M1094.709,1090.838c11.377-9.991,20.008-23.644,27.494-36.956c1.361-2.38,4.972-0.669,3.971,1.897
		c-6.258,14.996-13.48,29.999-24.511,42.247C1096.735,1102.987,1089.578,1095.618,1094.709,1090.838L1094.709,1090.838z"/>
</g>
</svg>
