<?xml version="1.0" encoding="utf-8"?>
<!-- Generator: Adobe Illustrator 27.5.0, SVG Export Plug-In . SVG Version: 6.00 Build 0)  -->
<svg xmlns="http://www.w3.org/2000/svg" xmlns:xlink="http://www.w3.org/1999/xlink" viewBox="0 0 5000 5000" width="595" height="842" preserveAspectRatio="xMidYMid meet" data-scaled="true">
<g>
	<path d="M4834.465,2644.144c-31.221-37.876-72.432-59.37-109.482-89.81c-0.244-0.996-0.498-1.983-0.732-2.979
		c-6.23-26.592-7.646-54.399-11.494-81.431c-5.595-38.688-14.188-76.701-25.776-114.038
		c-47.612-152.827-208.447-344.155-331.821-445.327c-41.357-33.921-87.422-60.225-130.005-92.114
		c40.327-178.305,58.97-362.656,68.96-544.941c5.073-92.597,10.546-200.234-5.229-291.45c-1.843-11.032-4.216-21.948-7.119-32.749
		c-2.904-10.801-6.325-21.434-10.264-31.9c-3.942-10.469-8.382-20.719-13.32-30.752c-4.938-10.036-10.352-19.808-16.24-29.316
		c-36.924-59.165-98.809-105.229-166.992-121.06c-28.335-6.577-61.211-9.336-90.044-5.435
		c-65.674,9.121-124.277,32.744-180.264,68.071c-107.173,67.627-199.321,163.809-287.47,253.823
		c-145.337,148.423-286.43,304.345-411.626,470.307l-2.28,3.022c-158.148-13.568-316.554-22.559-475.219-26.973
		c-158.669-4.411-317.331-4.238-475.986,0.518c-213.184,5.786-427.871,18.101-638.515,53.218
		c-34.727-47.256-63.232-96.299-87.471-149.678c-93.306-205.473-174.712-549.907-440.976-592.031
		c-51.836-8.198-101.162-0.601-144.16,30.674c-90.723,65.972-114.912,225.542-130.801,330.913
		c-8.997,61.185-15.985,122.598-20.962,184.238c-4.977,61.64-7.935,123.377-8.872,185.21
		c-73.354,14.126-138.921,55.185-181.201,117.5c-50.885,74.995-61.389,159.009-44.244,246.704l1.375,6.86
		c-77.01,43.149-155.56,83.218-232.263,126.919c-33.531,19.102-70.245,37.817-100.03,62.456
		c-14.594,12.07-27.804,26.323-33.371,44.858c-4.893,16.289-1.93,33.154,6.493,47.72c29.395,50.84,120.508,80.205,173.948,93.11
		c129.413,31.26,274.385,22.676,404.82,0.298c47.505-8.149,95.088-20.459,142.724-26.953
		c136.507,113.037,278.078,219.328,424.712,318.872c107.163,71.548,217.641,136.738,329.082,201.279
		c51.167,29.639,103.218,57.065,155.752,84.189c32.026,16.533,64.512,35.146,98.686,46.763
		c-117.661,123.33-236.636,246.44-348.125,375.41c-81.992,94.839-157.705,194.878-240.044,289.326
		c-104.961,136.045-257.734,325.844-233.706,508.037c9.155,69.419,42.3,132.539,98.301,175.039
		c98.403,74.683,234.302,75.21,351.43,58.344c149.604-21.547,294.253-70.766,433.701-127.9
		c405.063-165.957,771.357-417.363,1099.321-705.337c51.758-45.449,101.538-93.452,151.841-140.508
		c89.995,33.77,191.987,41.255,286.909,53.677c27.49,3.594,64.932,1.973,89.663,13.149c19.946,9.019,38.594,26.714,56.465,39.453
		c33.773,23.906,67.941,47.235,102.505,69.985c167.964,109.052,441.201,271.264,639.624,297.051
		c67.412,8.76,136.885,3.189,199.248-25.264c63.77-29.097,111.313-83.027,135.068-148.75
		c50.674-140.19,3.707-287.324-57.212-415.424c-14.253-29.976-30.322-59.033-46.279-88.13
		c32.177-26.538,65.698-58.892,100.986-80.796c18.726-11.621,41.411-16.665,60.586-27.881
		c74.78-43.725,169.731-140.815,178.965-230.859C4891.892,2744.51,4870.359,2687.684,4834.465,2644.144z M4197.19,1803.192
		l-37.925-16.123c-50.791-19.398-100.819-40.596-150.083-63.594c69.517-182.217,103.965-360.605,125.176-553.637
		c46.523,17.441,91.201,49.458,129.404,80.761C4254.725,1438.769,4231.355,1618.266,4197.19,1803.192z M3495.58,1121.63
		c90.503-98.394,263.74-272.021,384.301-327.095c43.154-19.717,87.72-29.58,134.966-31.787
		c64.57,1.148,123.389,22.803,168.604,69.985c100.771,105.156,85.63,265.908,82.075,400.43
		c-36.279-33.101-84.541-56.904-128.257-78.955c1.479-60.049,8.931-126.455-1.372-185.601
		c-7.168-41.118-30.488-80.884-65.391-104.448c-23.198-15.659-51.958-23.76-79.736-17.524c-9.58,2.153-23.521,6.592-29.082,15.225
		c11.216,4.336,30.61-0.855,42.837-1.475c27.856-1.411,51.812,8.013,72.241,27.08c37.905,35.376,45.757,80.449,47.925,129.99
		c2.178,42.822-0.127,86.641-2.866,129.414c-175.854-65.64-356.753-92.349-541.587-46.836c-30.708,7.563-60.757,18.579-90.688,28.73
		C3491.517,1126.337,3493.46,1123.93,3495.58,1121.63z M3280.609,1354.355c40.104-44.554,80.456-88.887,121.055-132.998
		c17.656-19.16,37.319-45.278,58.393-60.435c69.805-50.19,197.979-63.545,283.93-68.579c123.76-8.491,262.583,21.953,375.781,70.459
		c-1.577,33.857-6.704,67.881-11.143,101.475c-20.771,157.236-63.833,305.176-111.011,456.01
		c-119.619-44.18-237.412-85.439-361.289-116.518c-165.005-39.858-330.888-54.492-498.657-76.445
		C3181.937,1468.49,3231.673,1409.404,3280.609,1354.355z M828.037,894.233c28.105-35.112,62.681-50.708,106.943-55.923
		c13.032-0.596,25.537-0.215,38.477,1.523c265.772,35.679,346.85,421.831,446.572,620.771
		c19.458,38.813,43.359,72.402,69.443,106.855c-66.514,47.349-148.97,75.259-229.131,87.163
		c-179.766,21.338-393.916-5.112-549.951-101.348C718.735,1392.48,731.538,1014.804,828.037,894.233z M477.324,1814.95
		c0.221-4.349,0.547-8.691,0.979-13.027c0.432-4.333,0.968-8.652,1.61-12.959c0.642-4.306,1.388-8.595,2.238-12.866
		c0.85-4.271,1.805-8.519,2.862-12.744c1.057-4.225,2.216-8.421,3.478-12.588c1.26-4.17,2.622-8.306,4.087-12.407
		c1.462-4.101,3.022-8.166,4.683-12.192c1.66-4.027,3.418-8.01,5.273-11.948c1.852-3.942,3.801-7.835,5.845-11.68
		c2.044-3.848,4.18-7.642,6.406-11.382c42.632-70.796,103.633-104.887,182.104-124.345c15.459,5.825,30.596,14.995,45.415,22.437
		c26.558,13.335,53.467,25.62,81.514,35.527c158.599,56.016,368.916,74.096,532.138,27.578
		c26.099-7.442,52.832-18.867,76.763-31.607c25.581-13.623,54.219-38.545,82.954-43.139
		c90.146-14.409,182.656-20.928,273.652-28.027c168.613-13.145,335.415-20.908,504.575-22.549
		c139.652-2.337,279.264-0.871,418.838,4.399s278.9,14.338,417.979,27.202c79.78,7.324,158.73,17.007,238.13,27.607
		c43.213,5.771,86.382,10.473,129.209,18.799c185.625,36.094,362.1,91.255,536.606,163.979
		c34.98,14.575,70.947,28.232,105.156,44.511c-28.271-0.859-56.493-0.036-84.663,2.471
		c-238.608,21.709-455.576,145.103-608.3,328.301c-162.803,195.288-223.931,422.734-201.03,674.004
		c-181.079-73.481-375.415-112.031-566.679-149.107c-97.759-18.95-197.129-40.117-296.43-48.833
		c-40.908-3.589-85.059-1.68-125.552,5.205c-23.955,4.073-52.617,14.131-76.87,12.881c-23.076-1.186-47.949-11.87-69.888-18.945
		c-288.12-91.968-571.357-196.279-844.003-327.944c-70.327-33.965-142.544-66.377-209.282-107.119
		c41.772-13.94,84.185-26.387,125.63-41.24c32.031-11.475,64.219-28.252,78.608-61.108c8.091-18.477,9.297-42.749,1.182-61.431
		c-5.21-11.982-13.496-21.201-23.682-29.185c-36.03-28.237-81.807-49.683-121.743-71.865
		c-58.794-32.656-117.471-64.277-177.695-94.209c-24.99-12.417-50.107-26.147-76.045-36.46
		c-15.127-6.011-31.738-11.118-48.106-11.382c-86.826-1.397-244.302,88.745-327.967,124.78c-0.88-3.21-1.73-6.427-2.548-9.653
		c-1.04-4.229-1.977-8.48-2.81-12.754c-0.833-4.274-1.562-8.566-2.187-12.876c-0.625-4.31-1.144-8.633-1.558-12.969
		c-0.414-4.336-0.723-8.678-0.926-13.027c-0.203-4.352-0.3-8.704-0.292-13.057C476.99,1823.651,477.104,1819.299,477.324,1814.95z
		 M560.937,2273.597c-135.184,12.7-272.408,6.748-395.74-56.626c-18.578-9.546-42.807-23.106-48.717-44.648
		c-2.216-8.081-1.457-18.32,3.366-25.347c34.433-50.156,453.146-262.588,530.109-297.402
		c46.855-21.196,98.423-44.727,149.004-54.634c14.858-1.563,28.638-2.622,43.257,1.748
		c58.887,17.593,341.309,167.925,386.846,204.121c14.214,11.299,22.349,25.669,24.189,43.794
		c1.929,18.989-6.211,36.973-18.55,51.035c-28.53,32.534-86.724,44.526-126.909,57.72
		C931.728,2211.176,745.825,2257.338,560.937,2273.597z M1488.476,2697.02c-55.898-32.532-111.069-66.256-165.513-101.172
		c-54.447-34.912-108.114-70.983-161.001-108.213c-52.887-37.227-104.948-75.578-156.182-115.054
		c-51.234-39.476-101.592-80.037-151.074-121.684c58.789-15.854,118.398-33.604,175.005-56.06c7.896-0.22,14.014,3.823,21.074,7.124
		c30.903,14.434,60.483,31.646,90.991,46.875c76.051,37.191,152.506,73.535,229.365,109.033
		c182.181,80.895,367.406,154.085,555.674,219.57c76.108,26.128,153.789,47.617,229.883,73.647
		c-96.011,39.756-165.947,104.727-240.786,174.17c-22.705,20.83-44.243,43.33-66.206,64.971
		C1723.163,2831.581,1608.066,2767.977,1488.476,2697.02z M1402.802,3426.004c128.516-153.636,262.508-302.336,401.977-446.099
		c75.396-78.291,190.635-200.395,280.288-257.085c66.797-42.236,137.891-65.371,216.304-72.915
		c36.284-4.551,77.046-2.798,113.159,1.201c49.063,5.43,97.397,17.407,145.962,26.152
		c212.178,38.189,429.185,76.641,632.221,151.006c29.766,10.898,64.199,21.382,91.206,38.022
		c-188.969,225.283-412.949,413.115-647.324,589.258c-170.849,128.394-344.804,248.335-528.276,358.105
		c-75.654,46.528-154.448,89.605-232.134,132.671c-26.563-42.725-60.435-85.117-94.907-121.748
		c-134.199-142.588-336.357-204.766-527.373-210.069C1302.983,3551.346,1351.938,3487.733,1402.802,3426.004z M1414.741,4292.967
		c-100.728,10.767-215.62,5.967-297.612-60.957c-46.499-37.954-73.936-92.373-79.336-151.973
		c-11.641-128.481,49.282-237.202,120.415-338.706c27.783-39.648,55.972-78.237,87.031-115.405
		c62.236,4.189,122.9,10.225,183.935,23.784c5.527,1.194,11.04,2.458,16.538,3.789c5.498,1.332,10.978,2.729,16.44,4.194
		c5.462,1.468,10.905,3.003,16.328,4.604c5.423,1.605,10.827,3.275,16.211,5.01c5.381,1.738,10.74,3.542,16.079,5.41
		c5.339,1.869,10.653,3.804,15.942,5.806c5.29,2.002,10.553,4.069,15.791,6.201c5.241,2.132,10.453,4.329,15.635,6.592
		c5.186,2.262,10.342,4.588,15.469,6.978c5.124,2.389,10.218,4.842,15.283,7.358c5.068,2.516,10.103,5.094,15.102,7.734
		c5,2.644,9.968,5.346,14.902,8.11c4.935,2.764,9.834,5.589,14.697,8.476c4.863,2.887,9.691,5.833,14.482,8.838
		c4.792,3.008,9.544,6.073,14.258,9.194c4.717,3.125,9.393,6.309,14.028,9.551c4.635,3.239,9.23,6.535,13.784,9.888
		c4.554,3.356,9.066,6.767,13.535,10.234c4.469,3.467,8.895,6.988,13.276,10.562c4.382,3.578,8.717,7.209,13.008,10.894
		c4.29,3.681,8.535,7.417,12.734,11.206c4.199,3.789,8.351,7.63,12.456,11.524c4.102,3.893,8.156,7.837,12.163,11.831
		c4.004,3.991,7.959,8.032,11.865,12.124c3.906,4.092,7.76,8.23,11.562,12.417c3.802,4.189,7.552,8.423,11.25,12.7
		c3.695,4.281,7.337,8.607,10.928,12.979c3.591,4.371,7.126,8.786,10.606,13.242c3.48,4.46,6.904,8.962,10.273,13.506
		c3.369,4.541,6.681,9.124,9.937,13.75c3.255,4.625,6.452,9.292,9.59,13.999c3.138,4.704,6.217,9.447,9.238,14.229
		c-141.196,71.289-385.766,212.104-547.949,187.192c-44.892-6.895-86.216-26.631-113.374-63.979
		c-36.689-50.454-31.992-105.259-23.198-163.584c-17.129,28.491-23.667,57.618-19.961,90.718c0.313,2.715,0.692,5.422,1.138,8.12
		s0.957,5.383,1.533,8.052c0.579,2.673,1.224,5.329,1.934,7.969c0.706,2.644,1.479,5.265,2.319,7.866
		c0.837,2.601,1.737,5.181,2.7,7.739c0.967,2.559,1.994,5.091,3.081,7.598c1.09,2.51,2.241,4.988,3.452,7.437
		c1.211,2.451,2.482,4.871,3.813,7.261c1.331,2.389,2.72,4.743,4.165,7.061c1.445,2.321,2.948,4.604,4.507,6.851
		c1.559,2.246,3.172,4.451,4.839,6.616c1.667,2.168,3.387,4.293,5.161,6.377c1.771,2.08,3.592,4.116,5.464,6.108
		s3.792,3.937,5.762,5.835c1.966,1.897,3.979,3.747,6.04,5.547c2.057,1.797,4.158,3.543,6.304,5.239
		c50.859,40.293,114.341,47.339,176.777,39.712c130.317-18.052,256.919-78.974,373.408-137.207
		c27.949,50.967,53.813,103.711,80.19,155.547C1708.906,4225.496,1566.318,4276.766,1414.741,4292.967z M1886.522,4158.206
		l-23.647,8.018c-26.265-52.28-53.95-103.608-76.753-157.563c54.204-31.064,110.762-58.481,165.703-88.281
		c72.036-39.063,143.799-81.133,213.94-123.554c124.928-76.569,246.413-158.262,364.453-245.078
		c85.699-60.934,169.64-124.201,251.821-189.8c82.181-65.599,162.477-133.429,240.888-203.491
		c60.327-54.497,121.172-112.827,176.211-172.739c34.087-37.104,64.551-78.218,101.475-112.607
		c35.239,23.589,70.771,57.529,89.033,96.338c9.399,19.976,16.826,46.626,8.115,68.135
		c-11.924,29.439-118.398,128.311-146.968,157.974C2866.263,3594.852,2398.578,3942.054,1886.522,4158.206z M4047.234,3697.445
		c-167.329-75.298-321.025-174.648-470.547-280.049c35.859-0.825,72.031,1.396,107.92,1.919
		c49.876,0.801,99.723-0.086,149.541-2.661c3.882-0.425,5.435-0.694,8.833,1.46c25.918,16.44,50.361,37.187,76.333,54.17
		c105.224,68.818,210.478,121.211,321.806,178.232c-18.027,35.65-41.724,69.673-61.665,104.497
		C4135.071,3736.539,4090.997,3717.35,4047.234,3697.445z M4570.974,3264.471c49.59,110.327,89.205,231.675,54.248,352.739
		c-17.392,60.234-54.023,110.454-109.589,140.444c-104.673,56.484-211.245,32.945-318.584,0.24
		c17.642-35.025,39.434-68.506,59.248-102.378c13.388,4.75,26.833,9.333,40.332,13.75c56.553,18.589,117.671,38.266,174.355,9.063
		c42.827-22.061,73.843-62.666,87.969-108.33c1.07-3.366,2.057-6.757,2.959-10.171c0.901-3.415,1.717-6.85,2.446-10.308
		c0.729-3.457,1.37-6.93,1.923-10.42c0.554-3.486,1.019-6.985,1.396-10.498c0.381-3.512,0.672-7.031,0.875-10.557
		c0.198-3.529,0.311-7.059,0.336-10.59c0.023-3.532-0.042-7.063-0.195-10.591c-0.153-3.529-0.396-7.053-0.728-10.571
		c-0.329-3.516-0.747-7.021-1.255-10.518c-0.508-3.496-1.102-6.976-1.782-10.439c-0.684-3.467-1.452-6.914-2.305-10.342
		c-0.856-3.427-1.797-6.831-2.822-10.21c-1.025-3.382-2.136-6.735-3.33-10.059c-1.195-3.324-2.473-6.616-3.833-9.878
		c-1.36-3.258-2.801-6.481-4.321-9.668c-1.523-3.19-3.125-6.338-4.804-9.444l9.146,46.323
		c6.367,56.426,1.479,111.377-31.275,159.536c-20.278,29.819-54.819,57.368-90.908,63.545
		c-135.049,23.115-455.229-180.903-566.211-259.951c258.721-26.699,450.649-85.484,656.074-250.806
		c3.897,4.737,7.251,9.458,10.264,14.805C4545.95,3206.434,4558.162,3235.965,4570.974,3264.471z M4372.771,3234.149
		c-288.247,169.873-666.992,171.411-988.046,124.722c-73.511-10.688-146.65-21.587-218.716-39.975
		c47.446-44.165,91.577-91.47,137.441-137.227c29.492-29.424,61.543-56.953,89.541-87.754c11.88-13.071,25.654-28.472,32.51-44.902
		c11.128-26.655,6.411-59.365-3.926-85.61c-27.896-70.835-93.076-111.245-159.468-140.669c-3.662-22.241-4.688-45.527-6.089-68.027
		c-13.672-219.14,71.416-451.069,215.957-614.653c170.732-193.218,382.91-299.702,640.752-315.283
		c16.553-0.674,37.236-3.344,53.281,0.859c47.383,12.427,175.977,114.883,216.66,151.338
		c88.808,79.575,211.948,233.96,257.983,343.594c28.047,66.797,43.896,145.478,47.876,217.895
		c-61.284-29.458-126.967-52.807-195.136-58.862c-85.771-7.612-185.693,23.12-251.47,78.862
		c-62.529,52.988-107.417,135.557-113.433,217.696c-0.332,4.333-0.555,8.67-0.669,13.012c-0.117,4.343-0.127,8.685-0.029,13.027
		c0.101,4.343,0.31,8.68,0.625,13.013c0.313,4.333,0.734,8.654,1.265,12.964c0.531,4.313,1.167,8.61,1.909,12.891
		s1.59,8.539,2.544,12.774c0.954,4.238,2.012,8.45,3.174,12.636c1.162,4.186,2.429,8.34,3.799,12.461
		c1.367,4.124,2.837,8.211,4.409,12.261c1.572,4.049,3.244,8.056,5.015,12.021c1.771,3.968,3.639,7.889,5.605,11.763
		c1.966,3.874,4.026,7.697,6.182,11.47c2.155,3.773,4.401,7.489,6.738,11.147c2.34,3.659,4.771,7.259,7.29,10.801
		c2.516,3.539,5.121,7.013,7.813,10.425c2.688,3.411,5.462,6.753,8.32,10.024c62.241,70.62,160.513,109.775,253.101,115.815
		c-66.797,67.691-149.243,118.809-245.771,129.79c-4.938,0.557-9.886,0.993-14.844,1.309s-9.92,0.51-14.888,0.581
		c-4.971,0.072-9.938,0.023-14.902-0.146c-4.964-0.169-9.922-0.46-14.873-0.874c-4.951-0.413-9.889-0.948-14.814-1.602
		c-4.925-0.655-9.832-1.429-14.722-2.324c-4.886-0.892-9.748-1.904-14.585-3.037c-4.841-1.133-9.648-2.383-14.424-3.75
		c-4.775-1.364-9.515-2.847-14.219-4.448c-4.707-1.598-9.37-3.31-13.989-5.137c-4.619-1.826-9.193-3.765-13.721-5.816
		c-4.525-2.051-8.997-4.21-13.418-6.479c-4.421-2.269-8.783-4.644-13.086-7.124c-4.303-2.484-8.543-5.07-12.72-7.759
		c-4.18-2.689-8.29-5.478-12.329-8.369s-8.008-5.879-11.904-8.965c-58.696-46.704-89.258-109.273-98.032-183.223
		c31.109-17.515,61.465-24.287,94.834-35.371l0.347-2.593c-4.214-4.404-7.817-5.591-13.687-6.436
		c-35.874-5.161-82.793,9.541-111.45,31.289c-37.08,28.144-45.151,60.649-51.01,104.331c16.308-24.771,33.101-48.408,52.974-70.483
		c2.278,14.066,5.421,27.936,9.428,41.611c21.338,74.355,76.953,138.96,144.487,175.84c88.057,48.091,175.518,50.508,270.288,23.086
		c85.932-32.314,138.516-75.464,201.47-140.522c36.523-2.08,71.684-5.537,107.558-13.281
		C4517.581,3133.597,4449.158,3189.134,4372.771,3234.149z M4834.89,2866.893c-57.988,99.922-146.563,147.524-253.999,176.738
		c-13.125,2.847-26.352,5.654-39.648,7.568c-97.031,13.96-205.024-3.926-284.116-64.624
		c-55.122-42.305-94.805-103.11-103.462-172.842c-9.165-73.843,14.453-143.252,60.308-201.074
		c51.655-65.146,124.111-99.971,206.005-109.336c85-14.185,205.069,32.91,277.588,73.886
		c65.693,37.124,134.341,84.287,155.098,161.294C4864.846,2783.685,4858.269,2826.615,4834.89,2866.893z"/>
	<path d="M4194.959,2052.782c17.305,13.125,69.81,3.022,93.999,9.272c10.308,2.603,21.069,6.929,31.514,3.579
		c3.896-3.54,6.694-5.449,6.909-11.27c0.483-13.047-12.1-27.451-21.606-34.941c-18.008-14.175-42.456-20.2-65.146-19.302
		c-18.013,4.063-35.308,7.783-46.27,24.238c-3.892,5.84-6.914,12.002-5.659,19.194
		C4189.373,2047.45,4191.819,2050.404,4194.959,2052.782z"/>
	<path d="M3830.174,2131.869c0.362-9.502-8.008-20.796-15.049-26.431c-10.269-8.218-23.398-7.627-35.844-7.598
		c-31.191,5.288-55.444,18.721-73.662,45.405c-1.188,1.771-2.332,3.567-3.433,5.391c-1.1,1.826-2.156,3.677-3.169,5.552
		c-1.013,1.875-1.978,3.774-2.896,5.698c-0.921,1.92-1.795,3.864-2.622,5.83c-0.824,1.963-1.602,3.945-2.334,5.947
		c-0.729,2.005-1.409,4.025-2.041,6.059c-0.635,2.034-1.219,4.084-1.753,6.148c-0.531,2.064-1.013,4.139-1.446,6.226
		c-0.433,2.087-0.815,4.181-1.147,6.284c-0.332,2.106-0.614,4.219-0.845,6.338c-0.231,2.119-0.41,4.241-0.537,6.367
		c-0.127,2.129-0.202,4.259-0.224,6.392c-0.026,2.129,0.002,4.258,0.083,6.387c0.078,2.132,0.207,4.259,0.386,6.382
		c0.182,2.122,0.415,4.24,0.698,6.353c0.286,2.113,0.622,4.217,1.006,6.313c2.764,14.331,8.057,29.502,17.066,41.074l4.429,0.815
		c4.604-5.088,5.068-11.074,6.304-17.568c4.985-35.132,14.048-61.274,43.643-83.569
		C3773.704,2168.92,3829.305,2154.911,3830.174,2131.869z"/>
	<path d="M4160.325,2337.919c0.354,2.536,0.771,5.062,1.25,7.578c0.479,2.513,1.021,5.015,1.626,7.505
		c0.605,2.487,1.271,4.959,1.997,7.417c0.729,2.454,1.519,4.889,2.368,7.305c0.846,2.419,1.755,4.813,2.725,7.183
		c0.967,2.37,1.992,4.715,3.076,7.036c1.084,2.321,2.225,4.613,3.423,6.875c1.198,2.262,2.453,4.493,3.765,6.694
		c1.309,2.2,2.671,4.368,4.087,6.504c1.419,2.132,2.889,4.228,4.409,6.289c1.52,2.057,3.092,4.077,4.717,6.06
		c1.621,1.983,3.291,3.923,5.01,5.82c1.718,1.898,3.483,3.753,5.293,5.566c1.813,1.81,3.668,3.574,5.566,5.293
		c1.897,1.719,3.838,3.389,5.82,5.01c34.541,28.345,73.008,37.1,116.743,39.463c47.441-2.534,90.385-12.593,123.462-49.751
		c29.741-33.413,43.701-79.136,40.634-123.486c-3.198-46.304-23.349-90.215-58.75-120.6
		c-32.002-27.471-70.234-40.996-112.178-41.958c-48.965,3.652-90.151,20.757-122.671,58.486
		c-30.913,35.864-47.466,84.731-43.247,132.08C4159.679,2332.839,4159.97,2335.383,4160.325,2337.919z M4173.719,2307.943
		c0.117-2.65,0.298-5.294,0.542-7.935c0.248-2.64,0.558-5.272,0.933-7.896c0.377-2.624,0.818-5.238,1.323-7.842
		c0.504-2.604,1.072-5.194,1.704-7.769c0.635-2.575,1.331-5.134,2.09-7.676c0.759-2.539,1.579-5.059,2.461-7.559
		c0.882-2.5,1.826-4.978,2.832-7.432c1.006-2.455,2.07-4.883,3.193-7.285c1.126-2.399,2.31-4.771,3.55-7.114
		c1.243-2.344,2.542-4.655,3.896-6.934c1.354-2.279,2.765-4.523,4.233-6.733c1.465-2.207,2.985-4.378,4.561-6.514
		c1.572-2.136,3.197-4.23,4.873-6.284c27.544-33.906,65.542-53.896,108.735-58.628c37.979-0.454,70.61,10.049,101.05,32.759
		c33.896,25.288,54.839,61.392,60.752,103.218c5.952,42.129-3.218,84.316-29.619,118.208
		c-27.608,35.43-64.639,46.958-107.241,52.188c-42.061,0.806-82.505-7.681-116.089-34.272
		c-29.678-23.496-48.95-56.831-53.057-94.673c-0.277-2.637-0.487-5.28-0.63-7.929c-0.146-2.647-0.228-5.295-0.244-7.945
		C4173.554,2313.244,4173.604,2310.593,4173.719,2307.943z"/>
	<path d="M4283.895,2415.961c24.321,15.488,51.016,17.515,78.862,13.022c28.628-8.589,50.239-22.441,64.829-49.561
		c12.461-23.164,15.38-48.818,7.358-73.95c-10.136-31.763-35.292-60.42-65.175-75.063c-16.216-7.949-33.081-11.499-51.079-10.542
		c-26.777,4.814-48.853,17.026-64.707,39.663c-17.451,24.922-22.881,57.808-16.543,87.358
		C4243.377,2374.584,4259.813,2400.629,4283.895,2415.961z M4295.823,2264.501c5.347-12.734,15.733-17.456,27.706-22.773
		c8.145-0.508,16.328-1.084,24.36,0.742c9.141,2.075,17.778,7.29,22.241,15.771c3.842,7.3,3.823,15.596,1.411,23.345
		c-5.108,16.416-18.428,26.011-32.778,34.043c-6.997,1.089-12.891,1.279-19.712-1.04c-10.518-3.574-19.253-10.796-23.496-21.192
		C4291.849,2284.325,4292.044,2273.52,4295.823,2264.501z"/>
	<path d="M3806.834,2554.12c2.031,2.298,4.119,4.544,6.264,6.739c2.145,2.194,4.344,4.333,6.597,6.416
		c2.253,2.083,4.557,4.108,6.914,6.074c2.354,1.966,4.756,3.872,7.207,5.718c2.451,1.845,4.948,3.628,7.49,5.347
		c30.879,21.079,67.451,29.771,104.59,27.368c43.306-6.621,82.324-28.164,108.564-63.775c29.438-39.946,40.869-96.753,32.915-145.39
		c-7.212-44.092-30.581-84.526-67.148-110.625c-33.872-24.179-75.63-34.028-116.812-30.493
		c-45.063,7.603-82.7,28.462-109.614,66.094c-1.716,2.444-3.371,4.93-4.966,7.456c-1.592,2.526-3.122,5.09-4.59,7.69
		c-1.464,2.601-2.866,5.238-4.204,7.91c-1.335,2.669-2.603,5.371-3.804,8.105c-1.204,2.734-2.34,5.496-3.408,8.286
		c-1.065,2.79-2.061,5.604-2.988,8.442c-0.928,2.839-1.784,5.698-2.568,8.579c-0.788,2.884-1.503,5.784-2.144,8.701
		c-0.645,2.914-1.216,5.844-1.714,8.789c-0.498,2.946-0.923,5.901-1.274,8.867c-0.351,2.966-0.63,5.938-0.835,8.916
		c-0.205,2.978-0.337,5.962-0.396,8.95c-0.055,2.985-0.039,5.97,0.049,8.955c0.091,2.985,0.256,5.967,0.493,8.945
		c0.238,2.975,0.547,5.944,0.928,8.906c0.384,2.962,0.841,5.913,1.372,8.853c0.511,3.024,1.1,6.035,1.768,9.033
		c0.664,2.995,1.403,5.97,2.217,8.926c0.817,2.959,1.708,5.895,2.671,8.809c0.964,2.913,2,5.801,3.111,8.662
		c1.106,2.861,2.287,5.692,3.54,8.491c1.253,2.802,2.576,5.571,3.97,8.305c1.39,2.734,2.85,5.431,4.38,8.091
		c1.527,2.659,3.122,5.28,4.785,7.861c1.66,2.578,3.384,5.114,5.171,7.608c1.791,2.493,3.643,4.939,5.557,7.339
		C3802.832,2549.468,3804.802,2551.818,3806.834,2554.12z M3778.616,2462.504c-0.492-2.62-0.918-5.252-1.28-7.896
		c-0.361-2.643-0.659-5.293-0.893-7.949c-0.231-2.656-0.399-5.317-0.503-7.983c-0.104-2.663-0.142-5.329-0.112-7.998
		c0.026-2.666,0.117-5.33,0.273-7.993s0.379-5.319,0.669-7.969c0.287-2.653,0.636-5.296,1.05-7.93
		c0.417-2.633,0.897-5.256,1.44-7.866c0.543-2.611,1.151-5.207,1.822-7.788c0.671-2.582,1.404-5.145,2.202-7.691
		c0.794-2.546,1.652-5.07,2.573-7.573c0.918-2.503,1.898-4.984,2.939-7.441c1.039-2.455,2.137-4.883,3.296-7.285
		c1.159-2.403,2.375-4.776,3.647-7.119c1.276-2.341,2.608-4.65,3.994-6.929c1.387-2.279,2.829-4.521,4.326-6.728
		c24.336-35.366,59.936-56.734,101.826-64.297c33.261-1.822,63.716,3.486,92.802,20.429c2.213,1.273,4.393,2.599,6.538,3.98
		c2.142,1.38,4.25,2.816,6.323,4.306c2.073,1.488,4.106,3.027,6.099,4.619c1.995,1.592,3.949,3.234,5.859,4.927
		c1.911,1.689,3.776,3.428,5.596,5.215c1.823,1.787,3.601,3.618,5.332,5.493c1.729,1.875,3.41,3.794,5.044,5.757
		c1.63,1.96,3.211,3.96,4.741,6.001c1.53,2.041,3.008,4.121,4.434,6.24c1.426,2.116,2.796,4.266,4.111,6.45
		c1.319,2.187,2.578,4.406,3.779,6.655c1.204,2.249,2.351,4.528,3.438,6.836c1.087,2.308,2.115,4.642,3.086,7.002
		c0.97,2.363,1.878,4.748,2.725,7.153c0.849,2.406,1.637,4.832,2.363,7.28c0.726,2.445,1.388,4.907,1.987,7.388
		c11.489,45.928,4.922,98.013-20.171,138.477c-23.125,37.29-58.447,58.032-100.317,67.5c-36.211,1.313-67.046-4.311-97.622-24.468
		C3814.607,2548.636,3787.015,2506.483,3778.616,2462.504z"/>
	<path d="M3855.213,2480.917c0.596,1.501,1.227,2.983,1.895,4.448c0.67,1.465,1.379,2.912,2.124,4.341s1.527,2.838,2.344,4.229
		c0.821,1.387,1.675,2.752,2.563,4.097c0.888,1.344,1.812,2.664,2.769,3.96c0.957,1.299,1.946,2.57,2.969,3.813
		c1.022,1.247,2.076,2.464,3.164,3.652c1.084,1.191,2.199,2.354,3.345,3.486c1.149,1.133,2.324,2.235,3.525,3.306
		c1.205,1.074,2.435,2.114,3.691,3.12c1.257,1.009,2.539,1.984,3.848,2.925c1.308,0.944,2.64,1.853,3.994,2.725
		c1.354,0.872,2.731,1.709,4.131,2.51c1.396,0.801,2.814,1.566,4.253,2.295c1.436,0.729,2.891,1.419,4.365,2.07
		c18.94,8.35,38.159,8.858,58.418,6.768c27.71-8.174,50.576-20.645,64.844-47.027c15.156-28.027,14.565-62.402,4.937-92.139
		c-8.032-24.795-23.433-45.327-46.836-57.373c-19.019-9.785-37.402-11.875-58.403-10.19c-30.137,10.176-51.294,28.667-65.703,57.339
		c-13.643,27.129-17.949,58.081-7.896,87.109C3854.067,2477.907,3854.621,2479.419,3855.213,2480.917z M3900.154,2384.955
		c0.036-1.4,0.142-2.795,0.317-4.185c0.173-1.39,0.415-2.769,0.728-4.136c0.309-1.367,0.685-2.715,1.128-4.043
		c4.179-12.314,11.919-17.671,22.988-23.54c6.88-0.615,13.769-1.201,20.654-0.327c11.411,1.46,21.851,7.158,28.564,16.655
		c5.537,7.837,7.285,17.124,5.308,26.479c-3.271,15.488-13.726,23.985-26.274,32.314c-8.008,2.061-15.854,3.765-24.043,1.563
		c-10.747-2.896-19.8-10.64-24.805-20.508c-0.632-1.25-1.201-2.528-1.709-3.833c-0.505-1.305-0.944-2.633-1.318-3.984
		c-0.374-1.351-0.682-2.716-0.923-4.097c-0.241-1.38-0.412-2.769-0.513-4.165
		C3900.153,2387.753,3900.119,2386.355,3900.154,2384.955z"/>
	<path d="M2532.137,2089.481c0.173,2.653,0.41,5.299,0.713,7.939c4.409,41.621,24.511,81.875,57.612,107.959
		c32.837,25.884,69.526,34.868,110.781,34.322c43.564-4.478,84.082-24.307,111.924-58.643
		c26.909-33.184,37.153-77.964,32.646-119.995c-4.438-41.396-23.34-79.463-56.401-105.332
		c-31.973-25.02-70.019-33.604-109.99-33.394c-44.248,4.023-83.071,20.923-111.762,55.815c-1.677,2.064-3.301,4.168-4.873,6.313
		c-1.573,2.142-3.089,4.323-4.551,6.543c-1.462,2.22-2.868,4.476-4.219,6.768c-1.351,2.288-2.645,4.611-3.882,6.968
		c-1.234,2.354-2.409,4.736-3.525,7.148c-1.117,2.415-2.171,4.855-3.164,7.319c-0.996,2.464-1.93,4.953-2.803,7.466
		c-0.869,2.513-1.676,5.045-2.422,7.598c-0.745,2.552-1.426,5.12-2.041,7.705c-0.619,2.588-1.172,5.189-1.66,7.803
		c-0.485,2.611-0.906,5.234-1.265,7.871c-0.358,2.634-0.649,5.275-0.874,7.925c-0.225,2.65-0.385,5.303-0.479,7.959
		c-0.091,2.656-0.117,5.314-0.078,7.974C2531.864,2084.172,2531.968,2086.828,2532.137,2089.481z M2549.564,2074.242
		c0.101-2.399,0.26-4.793,0.479-7.183c0.221-2.389,0.5-4.771,0.835-7.144c0.336-2.376,0.729-4.743,1.182-7.1
		c0.449-2.357,0.957-4.7,1.523-7.031s1.19-4.647,1.87-6.948c0.677-2.302,1.411-4.585,2.202-6.851
		c0.792-2.266,1.638-4.51,2.539-6.733c0.898-2.223,1.852-4.424,2.861-6.602s2.07-4.33,3.183-6.455
		c1.114-2.125,2.277-4.222,3.491-6.289c21.372-35.562,55.063-54.609,94.097-64.541c35.112-3.618,69.297-0.005,100.229,18.188
		c1.881,1.133,3.735,2.31,5.562,3.53c1.823,1.224,3.616,2.49,5.381,3.799c1.764,1.309,3.494,2.66,5.19,4.053
		c1.696,1.396,3.358,2.832,4.985,4.307c1.627,1.475,3.218,2.988,4.771,4.541s3.068,3.143,4.546,4.771
		c1.475,1.628,2.908,3.29,4.302,4.985c1.396,1.699,2.749,3.429,4.058,5.19c1.309,1.764,2.575,3.558,3.799,5.381
		c1.221,1.826,2.398,3.68,3.531,5.562c1.133,1.882,2.218,3.791,3.257,5.728c1.038,1.933,2.03,3.893,2.974,5.879
		c0.941,1.982,1.834,3.988,2.68,6.016c0.846,2.025,1.642,4.071,2.388,6.138c0.745,2.067,1.439,4.15,2.08,6.25
		c0.645,2.1,1.237,4.214,1.777,6.343c0.602,2.337,1.147,4.689,1.635,7.056c0.491,2.363,0.923,4.738,1.294,7.124
		c0.375,2.386,0.688,4.78,0.942,7.183c0.257,2.399,0.456,4.805,0.596,7.217c0.137,2.412,0.217,4.824,0.24,7.236
		c0.019,2.415-0.018,4.831-0.113,7.246c-0.098,2.412-0.252,4.821-0.464,7.227c-0.215,2.406-0.488,4.803-0.82,7.192
		c-0.329,2.393-0.718,4.775-1.167,7.148c-0.446,2.373-0.95,4.735-1.514,7.085c-0.56,2.347-1.178,4.679-1.855,6.997
		c-0.674,2.321-1.405,4.623-2.192,6.904c-0.788,2.282-1.631,4.544-2.53,6.787c-0.898,2.24-1.851,4.458-2.856,6.655
		c-1.005,2.194-2.065,4.362-3.179,6.504c-1.113,2.145-2.277,4.261-3.491,6.348c-21.123,35.537-53.399,54.98-92.393,64.751
		c-36.348,5.059-70.552,0.352-102.364-18.78c-30.967-18.628-52.226-47.939-61.083-82.876c-0.596-2.324-1.133-4.662-1.612-7.012
		c-0.482-2.35-0.905-4.712-1.27-7.085c-0.365-2.37-0.672-4.748-0.923-7.134c-0.247-2.386-0.436-4.777-0.566-7.173
		c-0.134-2.396-0.207-4.793-0.22-7.192C2549.416,2079.035,2549.46,2076.638,2549.564,2074.242z"/>
	<path d="M1705.951,1897.079c0.247,2.695,0.563,5.384,0.947,8.066c0.381,2.682,0.828,5.353,1.343,8.013
		c8.145,40.645,31.265,77.505,66.118,100.386c33.765,22.163,71.289,28.091,110.976,24.702
		c45.234-8.311,80.503-27.935,107.119-66.196c25.796-37.09,34.526-80.098,26.313-124.453c-0.433-2.441-0.928-4.871-1.484-7.29
		c-0.553-2.418-1.167-4.821-1.841-7.207c-0.677-2.389-1.411-4.759-2.202-7.109c-0.794-2.35-1.646-4.679-2.554-6.987
		c-0.908-2.308-1.875-4.591-2.9-6.851c-1.022-2.259-2.101-4.492-3.237-6.699c-1.133-2.207-2.321-4.383-3.564-6.528
		c-1.243-2.148-2.541-4.263-3.892-6.343c-1.348-2.083-2.747-4.131-4.199-6.143c-1.452-2.011-2.953-3.986-4.502-5.923
		c-1.549-1.937-3.146-3.834-4.79-5.693c-1.644-1.859-3.333-3.674-5.068-5.445c-1.735-1.774-3.512-3.502-5.332-5.186
		c-1.823-1.686-3.685-3.325-5.586-4.917c-1.904-1.592-3.846-3.135-5.825-4.629c-1.982-1.494-3.999-2.938-6.05-4.331
		c-34.434-23.306-74.175-30.186-115.083-26.006c-43.413,7.896-81.128,27.856-106.465,64.932c-1.54,2.23-3.022,4.497-4.448,6.802
		c-1.426,2.301-2.793,4.639-4.102,7.012c-1.308,2.37-2.558,4.772-3.75,7.207c-1.191,2.432-2.321,4.893-3.389,7.383
		c-1.068,2.49-2.072,5.005-3.013,7.544c-0.944,2.539-1.825,5.101-2.642,7.686c-0.814,2.581-1.564,5.182-2.251,7.803
		c-0.687,2.621-1.307,5.257-1.86,7.91c-0.557,2.65-1.047,5.313-1.47,7.988c-0.423,2.676-0.779,5.362-1.069,8.057
		c-0.29,2.692-0.511,5.391-0.664,8.096c-0.156,2.705-0.244,5.412-0.264,8.12c-0.023,2.708,0.023,5.415,0.137,8.12
		C1705.523,1891.677,1705.704,1894.381,1705.951,1897.079z M1723.617,1873.373c0.117-2.402,0.293-4.8,0.527-7.192
		c0.238-2.396,0.534-4.783,0.888-7.163c0.358-2.379,0.775-4.75,1.25-7.109c0.472-2.357,1.004-4.702,1.597-7.036
		c0.592-2.331,1.244-4.647,1.953-6.948c0.71-2.298,1.475-4.578,2.295-6.841c0.824-2.259,1.703-4.497,2.637-6.714
		c0.938-2.217,1.929-4.409,2.974-6.577c1.045-2.168,2.143-4.308,3.296-6.421c1.152-2.113,2.357-4.194,3.613-6.245
		c22.666-36.889,56.309-55,97.168-64.014c35.522-2.646,66.694,0.625,97.475,20.22c1.944,1.224,3.857,2.497,5.742,3.818
		c1.881,1.318,3.729,2.684,5.542,4.097c1.813,1.413,3.591,2.869,5.332,4.37c1.742,1.501,3.446,3.042,5.112,4.624
		c1.663,1.585,3.288,3.211,4.873,4.878c1.582,1.667,3.123,3.371,4.624,5.112c1.501,1.741,2.956,3.519,4.365,5.332
		c1.413,1.816,2.778,3.666,4.097,5.547c1.322,1.882,2.594,3.796,3.818,5.742c1.224,1.943,2.399,3.917,3.525,5.923
		c1.126,2.002,2.202,4.032,3.228,6.089c1.025,2.057,1.999,4.139,2.92,6.245c0.921,2.106,1.791,4.233,2.607,6.382
		s1.58,4.316,2.29,6.504c0.71,2.188,1.364,4.39,1.963,6.606c0.599,2.22,1.143,4.453,1.631,6.699
		c7.754,37.002-0.439,77.974-21.006,109.614c-22.368,34.414-54.751,53.853-94.59,62.017c-33.989,3.389-64.39,0.327-94.346-17.705
		c-31.826-19.16-54.082-51.133-62.998-86.938c-0.602-2.331-1.144-4.675-1.626-7.031c-0.485-2.357-0.91-4.723-1.275-7.1
		c-0.368-2.379-0.674-4.765-0.918-7.158c-0.244-2.396-0.43-4.795-0.557-7.197c-0.124-2.402-0.188-4.806-0.195-7.212
		C1723.448,1878.184,1723.503,1875.779,1723.617,1873.373z"/>
	<path d="M2109.423,2000.263c0.234,2.64,0.532,5.273,0.894,7.9s0.788,5.243,1.279,7.847c8.218,42.964,35.039,81.074,71.392,105.083
		c33.696,22.256,70.464,27.554,110.078,24.385c45.547-9.102,82.734-28.345,108.99-67.983
		c23.032-34.775,31.836-80.146,22.934-120.918c-0.573-2.621-1.208-5.226-1.904-7.817c-0.7-2.591-1.462-5.163-2.285-7.715
		c-0.823-2.552-1.71-5.083-2.661-7.593c-0.947-2.51-1.955-4.995-3.022-7.456c-1.071-2.461-2.199-4.894-3.384-7.3
		c-1.188-2.406-2.435-4.78-3.74-7.124c-1.302-2.347-2.663-4.66-4.082-6.938c-1.416-2.279-2.886-4.52-4.409-6.724
		c-1.527-2.207-3.107-4.375-4.741-6.504c-1.631-2.132-3.312-4.222-5.044-6.27c-1.735-2.048-3.519-4.051-5.352-6.011
		c-1.829-1.959-3.708-3.874-5.635-5.742c-1.924-1.868-3.893-3.69-5.908-5.464c-2.012-1.771-4.068-3.493-6.167-5.166
		c-2.096-1.673-4.234-3.294-6.411-4.863c-2.177-1.566-4.391-3.079-6.64-4.541c-31.245-19.844-69.151-27.778-105.869-24.15
		c-46.074,8.32-82.979,26.265-110.254,65.654c-1.514,2.178-2.972,4.39-4.375,6.636c-1.403,2.249-2.749,4.533-4.038,6.851
		c-1.292,2.314-2.524,4.66-3.696,7.036c-1.175,2.376-2.29,4.78-3.345,7.212c-1.052,2.432-2.044,4.889-2.979,7.373
		c-0.931,2.48-1.8,4.982-2.607,7.505c-0.811,2.526-1.556,5.07-2.236,7.632s-1.299,5.138-1.855,7.729
		c-0.553,2.594-1.042,5.198-1.465,7.813c-0.427,2.617-0.786,5.243-1.079,7.876c-0.293,2.637-0.521,5.277-0.684,7.92
		c-0.166,2.646-0.264,5.294-0.293,7.944c-0.032,2.653,0.001,5.303,0.103,7.949
		C2109.027,1994.978,2109.192,1997.623,2109.423,2000.263z M2157.201,1898.769c25.327-32.422,57.622-46.929,97.363-52.339
		c33.833-1.758,65.444,4.854,93.99,24.082c31.675,21.328,55.083,58.354,61.172,95.913c5.835,36.006-3.921,74.58-24.912,104.175
		c-23.857,33.623-59.184,51.519-98.974,58.145c-36.948,1.04-68.447-3.408-99.214-25.869c-1.937-1.393-3.838-2.832-5.703-4.316
		c-1.868-1.488-3.696-3.021-5.483-4.6c-1.791-1.579-3.539-3.201-5.244-4.868c-1.709-1.667-3.374-3.376-4.995-5.127
		c-1.621-1.748-3.198-3.537-4.731-5.366c-1.533-1.829-3.019-3.696-4.458-5.601c-1.439-1.901-2.829-3.838-4.17-5.811
		c-1.341-1.973-2.632-3.978-3.872-6.016c-1.244-2.038-2.433-4.106-3.569-6.206c-1.139-2.096-2.223-4.22-3.252-6.372
		c-1.032-2.152-2.01-4.328-2.935-6.528c-0.921-2.201-1.787-4.422-2.598-6.665c-0.811-2.246-1.564-4.51-2.261-6.792
		c-0.697-2.282-1.336-4.579-1.919-6.89c-0.583-2.314-1.107-4.642-1.572-6.982s-0.873-4.691-1.221-7.051
		C2123.271,1969.765,2133.534,1929.071,2157.201,1898.769z"/>
</g>
</svg>
