<?xml version="1.0" encoding="utf-8"?>
<!-- Generator: Adobe Illustrator 27.5.0, SVG Export Plug-In . SVG Version: 6.00 Build 0)  -->
<svg xmlns="http://www.w3.org/2000/svg" xmlns:xlink="http://www.w3.org/1999/xlink" viewBox="0 0 2800 2000" width="595" height="842" preserveAspectRatio="xMidYMid meet" data-scaled="true">
<g>
	<g>
		<g style="opacity:0.38;">
			<g>
				
					<path style="fill:#FFFFFF;stroke:#000000;stroke-width:2.4972;stroke-linecap:round;stroke-linejoin:round;stroke-miterlimit:10;" d="
					M434.656,301.342l-12.527,5.688c-21.487,9.757-46.816,0.247-56.573-21.24l-0.158-0.347l75.058-34.081l7.097,15.63
					C453.477,280.038,447.703,295.418,434.656,301.342z"/>
				
					<polygon style="fill:#FFFFFF;stroke:#000000;stroke-width:2.4972;stroke-linecap:round;stroke-linejoin:round;stroke-miterlimit:10;" points="
					440.456,251.361 365.398,285.443 359.165,271.716 373.447,273.51 437.34,244.498 				"/>
			</g>
			<g>
				
					<path style="fill:#FFFFFF;stroke:#000000;stroke-width:2.4972;stroke-linecap:round;stroke-linejoin:round;stroke-miterlimit:10;" d="
					M424.131,264.122l-44.908-78.677l28.747-14.628l37.168,82.616c2.583,5.742,0.203,12.501-5.409,15.357v0
					C434.117,271.645,427.252,269.59,424.131,264.122z"/>
				
					<ellipse transform="matrix(0.801 -0.5987 0.5987 0.801 -66.4522 309.7022)" style="fill:#FFFFFF;stroke:#000000;stroke-width:2.4972;stroke-linecap:round;stroke-linejoin:round;stroke-miterlimit:10;" cx="432.613" cy="254.805" rx="7.045" ry="7.045"/>
			</g>
			<g>
				
					<path style="fill:#FFFFFF;stroke:#000000;stroke-width:2.4972;stroke-linecap:round;stroke-linejoin:round;stroke-miterlimit:10;" d="
					M403.387,194.28l-103.384,39.013l-12.111-37.433l106.644-28.935c7.412-2.011,15.098,2.152,17.462,9.46l0,0
					C414.363,183.693,410.573,191.569,403.387,194.28z"/>
				
					<path style="fill:#FFFFFF;stroke:#000000;stroke-width:2.4972;stroke-linecap:round;stroke-linejoin:round;stroke-miterlimit:10;" d="
					M401.967,179.631c1.461,4.515-1.015,9.36-5.531,10.821c-4.516,1.461-9.36-1.015-10.821-5.531
					c-1.461-4.516,1.015-9.36,5.531-10.821C395.661,172.639,400.506,175.115,401.967,179.631z"/>
			</g>
			
				<path style="fill:#FFFFFF;stroke:#000000;stroke-width:2.4972;stroke-linecap:round;stroke-linejoin:round;stroke-miterlimit:10;" d="
				M203.499,223.677h-10.548l-3.651-27.915c-0.173-1.323,0.857-2.497,2.191-2.497h6.09c1.11,0,2.047,0.823,2.191,1.923
				L203.499,223.677z"/>
			
				<path style="fill:#FFFFFF;stroke:#000000;stroke-width:2.4972;stroke-linecap:round;stroke-linejoin:round;stroke-miterlimit:10;" d="
				M208.329,238.883h-24.185v-27.84c0-1.42,1.151-2.572,2.572-2.572h19.042c1.42,0,2.572,1.151,2.572,2.572V238.883z"/>
			
				<rect x="191.301" y="258.117" style="fill:#FFFFFF;stroke:#000000;stroke-width:2.4972;stroke-linecap:round;stroke-linejoin:round;stroke-miterlimit:10;" width="22.775" height="28.638"/>
			
				<rect x="289.001" y="258.117" style="fill:#FFFFFF;stroke:#000000;stroke-width:2.4972;stroke-linecap:round;stroke-linejoin:round;stroke-miterlimit:10;" width="22.775" height="28.638"/>
			
				<path style="fill:#FFFFFF;stroke:#000000;stroke-width:2.4972;stroke-linecap:round;stroke-linejoin:round;stroke-miterlimit:10;" d="
				M330.165,323.925H177.006c-10.596,0-19.186-8.59-19.186-19.186l0,0c0-10.596,8.59-19.186,19.186-19.186h153.159
				c10.596,0,19.186,8.59,19.186,19.186l0,0C349.35,315.336,340.761,323.925,330.165,323.925z"/>
			
				<path style="fill:#FFFFFF;stroke:#000000;stroke-width:2.4972;stroke-linecap:round;stroke-linejoin:round;stroke-miterlimit:10;" d="
				M177.005,331.06c-3.55,0-6.998-0.697-10.247-2.071c-3.135-1.326-5.949-3.223-8.364-5.638c-2.415-2.415-4.312-5.229-5.638-8.364
				c-1.374-3.25-2.071-6.697-2.071-10.247c0-3.55,0.697-6.998,2.071-10.247c1.326-3.135,3.223-5.949,5.638-8.364
				c2.415-2.415,5.229-4.312,8.364-5.638c3.25-1.374,6.697-2.071,10.247-2.071h153.159c3.55,0,6.998,0.697,10.247,2.071
				c3.135,1.326,5.949,3.223,8.364,5.638c2.415,2.415,4.312,5.229,5.638,8.364c1.374,3.25,2.071,6.697,2.071,10.247
				c0,3.55-0.697,6.998-2.071,10.247c-1.326,3.135-3.223,5.949-5.638,8.364c-2.415,2.415-5.229,4.312-8.364,5.638
				c-3.25,1.374-6.697,2.071-10.247,2.071H177.005z"/>
			
				<path style="fill:#FFFFFF;stroke:#000000;stroke-width:2.4972;stroke-linecap:round;stroke-linejoin:round;stroke-miterlimit:10;" d="
				M330.165,323.925H177.006c-10.596,0-19.186-8.59-19.186-19.186l0,0c0-10.596,8.59-19.186,19.186-19.186h153.159
				c10.596,0,19.186,8.59,19.186,19.186l0,0C349.35,315.336,340.761,323.925,330.165,323.925z"/>
			
				<path style="fill:#FFFFFF;stroke:#000000;stroke-width:2.4972;stroke-linecap:round;stroke-linejoin:round;stroke-miterlimit:10;" d="
				M232.934,272.714h-64.384c-2.576,0-4.665-2.089-4.665-4.665v-31.901c0-7.533,6.107-13.639,13.639-13.639h55.409V272.714z"/>
			
				<path style="fill:#FFFFFF;stroke:#000000;stroke-width:2.4972;stroke-linecap:round;stroke-linejoin:round;stroke-miterlimit:10;" d="
				M328.861,272.714h-95.926v-82.936c0-2.481,2.011-4.492,4.492-4.492h51.027c3.585,0,6.85,2.065,8.386,5.304l35.985,75.858
				C334.205,269.358,332.082,272.714,328.861,272.714z"/>
			
				<path style="fill:#FFFFFF;stroke:#000000;stroke-width:2.4972;stroke-linecap:round;stroke-linejoin:round;stroke-miterlimit:10;" d="
				M240.511,235.651v-39.556c0-1.785,1.447-3.232,3.232-3.232h42.436c2.048,0,3.912,1.179,4.79,3.029l18.365,38.716
				c0.942,1.986-0.506,4.276-2.704,4.276h-62.887C241.958,238.883,240.511,237.436,240.511,235.651z"/>
			<g>
				
					<ellipse transform="matrix(0.7071 -0.7071 0.7071 0.7071 -159.7843 223.7254)" style="fill:#FFFFFF;stroke:#000000;stroke-width:2.4972;stroke-linecap:round;stroke-linejoin:round;stroke-miterlimit:10;" cx="190.168" cy="304.739" rx="14.277" ry="14.277"/>
				
					<circle style="fill:#FFFFFF;stroke:#000000;stroke-width:2.4972;stroke-linecap:round;stroke-linejoin:round;stroke-miterlimit:10;" cx="190.168" cy="304.739" r="8.034"/>
				
					<ellipse transform="matrix(0.7071 -0.7071 0.7071 0.7071 -147.4014 253.6204)" style="fill:#FFFFFF;stroke:#000000;stroke-width:2.4972;stroke-linecap:round;stroke-linejoin:round;stroke-miterlimit:10;" cx="232.446" cy="304.739" rx="14.277" ry="14.277"/>
				
					<circle style="fill:#FFFFFF;stroke:#000000;stroke-width:2.4972;stroke-linecap:round;stroke-linejoin:round;stroke-miterlimit:10;" cx="232.446" cy="304.739" r="8.034"/>
				
					<ellipse transform="matrix(0.9347 -0.3555 0.3555 0.9347 -90.3907 117.5747)" style="fill:#FFFFFF;stroke:#000000;stroke-width:2.4972;stroke-linecap:round;stroke-linejoin:round;stroke-miterlimit:10;" cx="274.724" cy="304.739" rx="14.277" ry="14.277"/>
				
					<ellipse transform="matrix(0.9475 -0.3197 0.3197 0.9475 -83.0171 103.8397)" style="fill:#FFFFFF;stroke:#000000;stroke-width:2.4972;stroke-linecap:round;stroke-linejoin:round;stroke-miterlimit:10;" cx="274.724" cy="304.739" rx="8.034" ry="8.034"/>
				
					<ellipse transform="matrix(0.9225 -0.386 0.386 0.9225 -93.0677 145.9967)" style="fill:#FFFFFF;stroke:#000000;stroke-width:2.4972;stroke-linecap:round;stroke-linejoin:round;stroke-miterlimit:10;" cx="317.002" cy="304.739" rx="14.277" ry="14.277"/>
				
					<ellipse transform="matrix(0.1606 -0.987 0.987 0.1606 -34.688 568.6911)" style="fill:#FFFFFF;stroke:#000000;stroke-width:2.4972;stroke-linecap:round;stroke-linejoin:round;stroke-miterlimit:10;" cx="317.002" cy="304.739" rx="8.034" ry="8.034"/>
			</g>
			
				<rect x="177.576" y="233.294" style="fill:#FFFFFF;stroke:#000000;stroke-width:2.4972;stroke-linecap:round;stroke-linejoin:round;stroke-miterlimit:10;" width="5.761" height="27.721"/>
			
				<rect x="191.113" y="233.294" style="fill:#FFFFFF;stroke:#000000;stroke-width:2.4972;stroke-linecap:round;stroke-linejoin:round;stroke-miterlimit:10;" width="5.761" height="27.721"/>
			
				<path style="fill:#FFFFFF;stroke:#000000;stroke-width:2.4972;stroke-linecap:round;stroke-linejoin:round;stroke-miterlimit:10;" d="
				M241.062,248.344L241.062,248.344c0-1.987,1.611-3.598,3.598-3.598h9.214c1.987,0,3.598,1.611,3.598,3.598l0,0
				c0,1.987-1.611,3.598-3.598,3.598h-9.214C242.673,251.942,241.062,250.331,241.062,248.344z"/>
		</g>
		<g style="opacity:0.38;">
			<g>
				
					<path style="fill:#FFFFFF;stroke:#000000;stroke-width:2.4972;stroke-linecap:round;stroke-linejoin:round;stroke-miterlimit:10;" d="
					M434.656,416.529l-12.527,5.688c-21.487,9.757-46.816,0.247-56.573-21.24l-0.158-0.347l75.058-34.081l7.097,15.63
					C453.477,395.225,447.703,410.605,434.656,416.529z"/>
				
					<polygon style="fill:#FFFFFF;stroke:#000000;stroke-width:2.4972;stroke-linecap:round;stroke-linejoin:round;stroke-miterlimit:10;" points="
					440.456,366.548 365.398,400.629 359.165,386.903 373.447,388.697 437.34,359.685 				"/>
			</g>
			<g>
				
					<path style="fill:#FFFFFF;stroke:#000000;stroke-width:2.4972;stroke-linecap:round;stroke-linejoin:round;stroke-miterlimit:10;" d="
					M424.131,379.309l-44.908-78.678l28.747-14.628l37.168,82.616c2.583,5.742,0.203,12.501-5.409,15.357l0,0
					C434.117,386.832,427.252,384.777,424.131,379.309z"/>
				
					<ellipse transform="matrix(0.6914 -0.7224 0.7224 0.6914 -133.8083 426.6955)" style="fill:#FFFFFF;stroke:#000000;stroke-width:2.4972;stroke-linecap:round;stroke-linejoin:round;stroke-miterlimit:10;" cx="432.613" cy="369.993" rx="7.045" ry="7.045"/>
			</g>
			<g>
				
					<path style="fill:#FFFFFF;stroke:#000000;stroke-width:2.4972;stroke-linecap:round;stroke-linejoin:round;stroke-miterlimit:10;" d="
					M403.387,309.467l-103.384,39.013l-12.111-37.433l106.644-28.935c7.412-2.011,15.098,2.152,17.462,9.46v0
					C414.363,298.88,410.573,306.756,403.387,309.467z"/>
				
					<path style="fill:#FFFFFF;stroke:#000000;stroke-width:2.4972;stroke-linecap:round;stroke-linejoin:round;stroke-miterlimit:10;" d="
					M401.967,294.818c1.461,4.516-1.015,9.36-5.531,10.821c-4.516,1.461-9.36-1.015-10.821-5.531
					c-1.461-4.515,1.015-9.36,5.531-10.821C395.661,287.826,400.506,290.302,401.967,294.818z"/>
			</g>
			
				<path style="fill:#FFFFFF;stroke:#000000;stroke-width:2.4972;stroke-linecap:round;stroke-linejoin:round;stroke-miterlimit:10;" d="
				M203.499,338.865h-10.548l-3.651-27.915c-0.173-1.323,0.857-2.496,2.191-2.496h6.09c1.11,0,2.047,0.823,2.191,1.923
				L203.499,338.865z"/>
			
				<path style="fill:#FFFFFF;stroke:#000000;stroke-width:2.4972;stroke-linecap:round;stroke-linejoin:round;stroke-miterlimit:10;" d="
				M208.329,354.07h-24.185v-27.84c0-1.42,1.151-2.572,2.572-2.572h19.042c1.42,0,2.572,1.151,2.572,2.572V354.07z"/>
			
				<rect x="191.301" y="373.304" style="fill:#FFFFFF;stroke:#000000;stroke-width:2.4972;stroke-linecap:round;stroke-linejoin:round;stroke-miterlimit:10;" width="22.775" height="28.638"/>
			
				<rect x="289.001" y="373.304" style="fill:#FFFFFF;stroke:#000000;stroke-width:2.4972;stroke-linecap:round;stroke-linejoin:round;stroke-miterlimit:10;" width="22.775" height="28.638"/>
			
				<path style="fill:#FFFFFF;stroke:#000000;stroke-width:2.4972;stroke-linecap:round;stroke-linejoin:round;stroke-miterlimit:10;" d="
				M330.165,439.112H177.006c-10.596,0-19.186-8.59-19.186-19.186v0c0-10.596,8.59-19.186,19.186-19.186h153.159
				c10.596,0,19.186,8.59,19.186,19.186v0C349.35,430.522,340.761,439.112,330.165,439.112z"/>
			
				<path style="fill:#FFFFFF;stroke:#000000;stroke-width:2.4972;stroke-linecap:round;stroke-linejoin:round;stroke-miterlimit:10;" d="
				M177.005,446.247c-3.55,0-6.998-0.697-10.247-2.071c-3.135-1.326-5.949-3.223-8.364-5.638c-2.415-2.415-4.312-5.229-5.638-8.364
				c-1.374-3.25-2.071-6.697-2.071-10.247c0-3.55,0.697-6.998,2.071-10.247c1.326-3.135,3.223-5.949,5.638-8.364
				c2.415-2.415,5.229-4.312,8.364-5.638c3.25-1.375,6.697-2.071,10.247-2.071h153.159c3.55,0,6.998,0.697,10.247,2.071
				c3.135,1.326,5.949,3.223,8.364,5.638c2.415,2.415,4.312,5.229,5.638,8.364c1.374,3.25,2.071,6.697,2.071,10.247
				c0,3.55-0.697,6.998-2.071,10.247c-1.326,3.135-3.223,5.949-5.638,8.364c-2.415,2.415-5.229,4.312-8.364,5.638
				c-3.25,1.374-6.697,2.071-10.247,2.071H177.005z"/>
			
				<path style="fill:#FFFFFF;stroke:#000000;stroke-width:2.4972;stroke-linecap:round;stroke-linejoin:round;stroke-miterlimit:10;" d="
				M330.165,439.112H177.006c-10.596,0-19.186-8.59-19.186-19.186v0c0-10.596,8.59-19.186,19.186-19.186h153.159
				c10.596,0,19.186,8.59,19.186,19.186v0C349.35,430.522,340.761,439.112,330.165,439.112z"/>
			
				<path style="fill:#FFFFFF;stroke:#000000;stroke-width:2.4972;stroke-linecap:round;stroke-linejoin:round;stroke-miterlimit:10;" d="
				M232.934,387.901h-64.384c-2.576,0-4.665-2.089-4.665-4.665v-31.901c0-7.533,6.107-13.639,13.639-13.639h55.409V387.901z"/>
			
				<path style="fill:#FFFFFF;stroke:#000000;stroke-width:2.4972;stroke-linecap:round;stroke-linejoin:round;stroke-miterlimit:10;" d="
				M328.861,387.901h-95.926v-82.936c0-2.481,2.011-4.492,4.492-4.492h51.027c3.585,0,6.85,2.065,8.386,5.304l35.985,75.858
				C334.205,384.545,332.082,387.901,328.861,387.901z"/>
			
				<path style="fill:#FFFFFF;stroke:#000000;stroke-width:2.4972;stroke-linecap:round;stroke-linejoin:round;stroke-miterlimit:10;" d="
				M240.511,350.838v-39.556c0-1.785,1.447-3.232,3.232-3.232h42.436c2.048,0,3.912,1.179,4.79,3.029l18.365,38.716
				c0.942,1.986-0.506,4.276-2.704,4.276h-62.887C241.958,354.07,240.511,352.623,240.511,350.838z"/>
			<g>
				
					<ellipse transform="matrix(0.2312 -0.9729 0.9729 0.2312 -262.3445 507.8715)" style="fill:#FFFFFF;stroke:#000000;stroke-width:2.4972;stroke-linecap:round;stroke-linejoin:round;stroke-miterlimit:10;" cx="190.168" cy="419.926" rx="14.277" ry="14.277"/>
				
					<circle style="fill:#FFFFFF;stroke:#000000;stroke-width:2.4972;stroke-linecap:round;stroke-linejoin:round;stroke-miterlimit:10;" cx="190.168" cy="419.927" r="8.034"/>
				
					<ellipse transform="matrix(0.2312 -0.9729 0.9729 0.2312 -229.8399 549.0042)" style="fill:#FFFFFF;stroke:#000000;stroke-width:2.4972;stroke-linecap:round;stroke-linejoin:round;stroke-miterlimit:10;" cx="232.446" cy="419.926" rx="14.277" ry="14.277"/>
				
					<circle style="fill:#FFFFFF;stroke:#000000;stroke-width:2.4972;stroke-linecap:round;stroke-linejoin:round;stroke-miterlimit:10;" cx="232.446" cy="419.927" r="8.034"/>
				
					<ellipse transform="matrix(0.1543 -0.988 0.988 0.1543 -182.5555 626.5832)" style="fill:#FFFFFF;stroke:#000000;stroke-width:2.4972;stroke-linecap:round;stroke-linejoin:round;stroke-miterlimit:10;" cx="274.724" cy="419.926" rx="14.277" ry="14.277"/>
				
					<ellipse transform="matrix(0.9475 -0.3197 0.3197 0.9475 -119.8477 109.8867)" style="fill:#FFFFFF;stroke:#000000;stroke-width:2.4972;stroke-linecap:round;stroke-linejoin:round;stroke-miterlimit:10;" cx="274.724" cy="419.927" rx="8.034" ry="8.034"/>
				
					<ellipse transform="matrix(0.1609 -0.987 0.987 0.1609 -148.4583 665.233)" style="fill:#FFFFFF;stroke:#000000;stroke-width:2.4972;stroke-linecap:round;stroke-linejoin:round;stroke-miterlimit:10;" cx="317.002" cy="419.926" rx="14.277" ry="14.277"/>
				
					<ellipse transform="matrix(0.1606 -0.987 0.987 0.1606 -148.3803 665.3811)" style="fill:#FFFFFF;stroke:#000000;stroke-width:2.4972;stroke-linecap:round;stroke-linejoin:round;stroke-miterlimit:10;" cx="317.002" cy="419.927" rx="8.034" ry="8.034"/>
			</g>
			
				<rect x="177.576" y="348.481" style="fill:#FFFFFF;stroke:#000000;stroke-width:2.4972;stroke-linecap:round;stroke-linejoin:round;stroke-miterlimit:10;" width="5.761" height="27.721"/>
			
				<rect x="191.113" y="348.481" style="fill:#FFFFFF;stroke:#000000;stroke-width:2.4972;stroke-linecap:round;stroke-linejoin:round;stroke-miterlimit:10;" width="5.761" height="27.721"/>
			
				<path style="fill:#FFFFFF;stroke:#000000;stroke-width:2.4972;stroke-linecap:round;stroke-linejoin:round;stroke-miterlimit:10;" d="
				M241.062,363.531L241.062,363.531c0-1.987,1.611-3.598,3.598-3.598h9.214c1.987,0,3.598,1.611,3.598,3.598l0,0
				c0,1.987-1.611,3.598-3.598,3.598h-9.214C242.673,367.129,241.062,365.518,241.062,363.531z"/>
		</g>
		<g style="opacity:0.38;">
			<g>
				
					<path style="fill:#FFFFFF;stroke:#000000;stroke-width:2.4972;stroke-linecap:round;stroke-linejoin:round;stroke-miterlimit:10;" d="
					M434.656,531.716l-12.527,5.688c-21.487,9.757-46.816,0.247-56.573-21.24l-0.158-0.347l75.058-34.081l7.097,15.63
					C453.477,510.412,447.703,525.792,434.656,531.716z"/>
				
					<polygon style="fill:#FFFFFF;stroke:#000000;stroke-width:2.4972;stroke-linecap:round;stroke-linejoin:round;stroke-miterlimit:10;" points="
					440.456,481.735 365.398,515.817 359.165,502.09 373.447,503.884 437.34,474.872 				"/>
			</g>
			<g>
				
					<path style="fill:#FFFFFF;stroke:#000000;stroke-width:2.4972;stroke-linecap:round;stroke-linejoin:round;stroke-miterlimit:10;" d="
					M424.131,494.496l-44.908-78.677l28.747-14.628l37.168,82.616c2.583,5.742,0.203,12.501-5.409,15.357l0,0
					C434.117,502.018,427.252,499.965,424.131,494.496z"/>
				
					<path style="fill:#FFFFFF;stroke:#000000;stroke-width:2.4972;stroke-linecap:round;stroke-linejoin:round;stroke-miterlimit:10;" d="
					M435.809,491.458c-3.468,1.765-7.709,0.384-9.474-3.084c-1.765-3.468-0.384-7.709,3.084-9.474
					c3.468-1.764,7.709-0.384,9.474,3.084C440.657,485.452,439.276,489.694,435.809,491.458z"/>
			</g>
			<g>
				
					<path style="fill:#FFFFFF;stroke:#000000;stroke-width:2.4972;stroke-linecap:round;stroke-linejoin:round;stroke-miterlimit:10;" d="
					M403.387,424.654l-103.384,39.014l-12.111-37.433l106.644-28.935c7.412-2.011,15.098,2.152,17.462,9.46l0,0
					C414.363,414.067,410.573,421.943,403.387,424.654z"/>
				
					<path style="fill:#FFFFFF;stroke:#000000;stroke-width:2.4972;stroke-linecap:round;stroke-linejoin:round;stroke-miterlimit:10;" d="
					M401.967,410.005c1.461,4.516-1.015,9.36-5.531,10.821c-4.516,1.461-9.36-1.016-10.821-5.531
					c-1.461-4.516,1.015-9.36,5.531-10.821C395.661,403.013,400.506,405.489,401.967,410.005z"/>
			</g>
			
				<path style="fill:#FFFFFF;stroke:#000000;stroke-width:2.4972;stroke-linecap:round;stroke-linejoin:round;stroke-miterlimit:10;" d="
				M203.499,454.052h-10.548l-3.651-27.915c-0.173-1.323,0.857-2.496,2.191-2.496h6.09c1.11,0,2.047,0.823,2.191,1.923
				L203.499,454.052z"/>
			
				<path style="fill:#FFFFFF;stroke:#000000;stroke-width:2.4972;stroke-linecap:round;stroke-linejoin:round;stroke-miterlimit:10;" d="
				M208.329,469.257h-24.185v-27.84c0-1.42,1.151-2.572,2.572-2.572h19.042c1.42,0,2.572,1.151,2.572,2.572V469.257z"/>
			
				<rect x="191.301" y="488.491" style="fill:#FFFFFF;stroke:#000000;stroke-width:2.4972;stroke-linecap:round;stroke-linejoin:round;stroke-miterlimit:10;" width="22.775" height="28.638"/>
			
				<rect x="289.001" y="488.491" style="fill:#FFFFFF;stroke:#000000;stroke-width:2.4972;stroke-linecap:round;stroke-linejoin:round;stroke-miterlimit:10;" width="22.775" height="28.638"/>
			
				<path style="fill:#FFFFFF;stroke:#000000;stroke-width:2.4972;stroke-linecap:round;stroke-linejoin:round;stroke-miterlimit:10;" d="
				M330.165,554.299H177.006c-10.596,0-19.186-8.59-19.186-19.186l0,0c0-10.596,8.59-19.186,19.186-19.186h153.159
				c10.596,0,19.186,8.59,19.186,19.186l0,0C349.35,545.709,340.761,554.299,330.165,554.299z"/>
			
				<path style="fill:#FFFFFF;stroke:#000000;stroke-width:2.4972;stroke-linecap:round;stroke-linejoin:round;stroke-miterlimit:10;" d="
				M177.005,561.434c-3.55,0-6.998-0.697-10.247-2.071c-3.135-1.326-5.949-3.223-8.364-5.638c-2.415-2.415-4.312-5.229-5.638-8.364
				c-1.374-3.25-2.071-6.697-2.071-10.247s0.697-6.998,2.071-10.247c1.326-3.135,3.223-5.949,5.638-8.364
				c2.415-2.415,5.229-4.312,8.364-5.638c3.25-1.374,6.697-2.071,10.247-2.071h153.159c3.55,0,6.998,0.697,10.247,2.071
				c3.135,1.326,5.949,3.223,8.364,5.638c2.415,2.415,4.312,5.229,5.638,8.364c1.374,3.25,2.071,6.697,2.071,10.247
				s-0.697,6.998-2.071,10.247c-1.326,3.135-3.223,5.949-5.638,8.364c-2.415,2.415-5.229,4.312-8.364,5.638
				c-3.25,1.374-6.697,2.071-10.247,2.071H177.005z"/>
			
				<path style="fill:#FFFFFF;stroke:#000000;stroke-width:2.4972;stroke-linecap:round;stroke-linejoin:round;stroke-miterlimit:10;" d="
				M330.165,554.299H177.006c-10.596,0-19.186-8.59-19.186-19.186l0,0c0-10.596,8.59-19.186,19.186-19.186h153.159
				c10.596,0,19.186,8.59,19.186,19.186l0,0C349.35,545.709,340.761,554.299,330.165,554.299z"/>
			
				<path style="fill:#FFFFFF;stroke:#000000;stroke-width:2.4972;stroke-linecap:round;stroke-linejoin:round;stroke-miterlimit:10;" d="
				M232.934,503.088h-64.384c-2.576,0-4.665-2.089-4.665-4.665v-31.901c0-7.533,6.107-13.639,13.639-13.639h55.409V503.088z"/>
			
				<path style="fill:#FFFFFF;stroke:#000000;stroke-width:2.4972;stroke-linecap:round;stroke-linejoin:round;stroke-miterlimit:10;" d="
				M328.861,503.088h-95.926v-82.936c0-2.481,2.011-4.492,4.492-4.492h51.027c3.585,0,6.85,2.065,8.386,5.304l35.985,75.858
				C334.205,499.732,332.082,503.088,328.861,503.088z"/>
			
				<path style="fill:#FFFFFF;stroke:#000000;stroke-width:2.4972;stroke-linecap:round;stroke-linejoin:round;stroke-miterlimit:10;" d="
				M240.511,466.025v-39.556c0-1.785,1.447-3.232,3.232-3.232h42.436c2.048,0,3.912,1.179,4.79,3.029l18.365,38.716
				c0.942,1.986-0.506,4.276-2.704,4.276h-62.887C241.958,469.257,240.511,467.81,240.511,466.025z"/>
			<g>
				
					<circle style="fill:#FFFFFF;stroke:#000000;stroke-width:2.4972;stroke-linecap:round;stroke-linejoin:round;stroke-miterlimit:10;" cx="190.168" cy="535.114" r="14.277"/>
				
					<circle style="fill:#FFFFFF;stroke:#000000;stroke-width:2.4972;stroke-linecap:round;stroke-linejoin:round;stroke-miterlimit:10;" cx="190.168" cy="535.114" r="8.034"/>
				
					<circle style="fill:#FFFFFF;stroke:#000000;stroke-width:2.4972;stroke-linecap:round;stroke-linejoin:round;stroke-miterlimit:10;" cx="232.446" cy="535.114" r="14.277"/>
				
					<circle style="fill:#FFFFFF;stroke:#000000;stroke-width:2.4972;stroke-linecap:round;stroke-linejoin:round;stroke-miterlimit:10;" cx="232.446" cy="535.114" r="8.034"/>
				
					<circle style="fill:#FFFFFF;stroke:#000000;stroke-width:2.4972;stroke-linecap:round;stroke-linejoin:round;stroke-miterlimit:10;" cx="274.724" cy="535.114" r="14.277"/>
				
					<ellipse transform="matrix(0.9475 -0.3197 0.3197 0.9475 -156.6783 115.9336)" style="fill:#FFFFFF;stroke:#000000;stroke-width:2.4972;stroke-linecap:round;stroke-linejoin:round;stroke-miterlimit:10;" cx="274.724" cy="535.114" rx="8.034" ry="8.034"/>
				
					<circle style="fill:#FFFFFF;stroke:#000000;stroke-width:2.4972;stroke-linecap:round;stroke-linejoin:round;stroke-miterlimit:10;" cx="317.002" cy="535.114" r="14.277"/>
				
					<ellipse transform="matrix(0.1606 -0.987 0.987 0.1606 -262.0724 762.071)" style="fill:#FFFFFF;stroke:#000000;stroke-width:2.4972;stroke-linecap:round;stroke-linejoin:round;stroke-miterlimit:10;" cx="317.002" cy="535.114" rx="8.034" ry="8.034"/>
			</g>
			
				<rect x="177.576" y="463.668" style="fill:#FFFFFF;stroke:#000000;stroke-width:2.4972;stroke-linecap:round;stroke-linejoin:round;stroke-miterlimit:10;" width="5.761" height="27.721"/>
			
				<rect x="191.113" y="463.668" style="fill:#FFFFFF;stroke:#000000;stroke-width:2.4972;stroke-linecap:round;stroke-linejoin:round;stroke-miterlimit:10;" width="5.761" height="27.721"/>
			
				<path style="fill:#FFFFFF;stroke:#000000;stroke-width:2.4972;stroke-linecap:round;stroke-linejoin:round;stroke-miterlimit:10;" d="
				M241.062,478.718L241.062,478.718c0-1.987,1.611-3.598,3.598-3.598h9.214c1.987,0,3.598,1.611,3.598,3.598l0,0
				c0,1.987-1.611,3.598-3.598,3.598h-9.214C242.673,482.316,241.062,480.706,241.062,478.718z"/>
		</g>
		<g style="opacity:0.38;">
			<g>
				
					<path style="fill:#FFFFFF;stroke:#000000;stroke-width:2.4972;stroke-linecap:round;stroke-linejoin:round;stroke-miterlimit:10;" d="
					M434.656,646.903l-12.527,5.688c-21.487,9.757-46.816,0.247-56.573-21.24l-0.158-0.347l75.058-34.081l7.097,15.63
					C453.477,625.599,447.703,640.979,434.656,646.903z"/>
				
					<polygon style="fill:#FFFFFF;stroke:#000000;stroke-width:2.4972;stroke-linecap:round;stroke-linejoin:round;stroke-miterlimit:10;" points="
					440.456,596.922 365.398,631.004 359.165,617.278 373.447,619.071 437.34,590.059 				"/>
			</g>
			<g>
				
					<path style="fill:#FFFFFF;stroke:#000000;stroke-width:2.4972;stroke-linecap:round;stroke-linejoin:round;stroke-miterlimit:10;" d="
					M424.131,609.683l-44.908-78.678l28.747-14.628l37.168,82.616c2.583,5.742,0.203,12.501-5.409,15.357l0,0
					C434.117,617.206,427.252,615.151,424.131,609.683z"/>
				
					<ellipse transform="matrix(0.3127 -0.9498 0.9498 0.3127 -272.9282 823.5378)" style="fill:#FFFFFF;stroke:#000000;stroke-width:2.4972;stroke-linecap:round;stroke-linejoin:round;stroke-miterlimit:10;" cx="432.613" cy="600.367" rx="7.045" ry="7.045"/>
			</g>
			<g>
				
					<path style="fill:#FFFFFF;stroke:#000000;stroke-width:2.4972;stroke-linecap:round;stroke-linejoin:round;stroke-miterlimit:10;" d="
					M403.387,539.841l-103.384,39.013l-12.111-37.433l106.644-28.935c7.412-2.011,15.098,2.152,17.462,9.46l0,0
					C414.363,529.254,410.573,537.13,403.387,539.841z"/>
				
					<path style="fill:#FFFFFF;stroke:#000000;stroke-width:2.4972;stroke-linecap:round;stroke-linejoin:round;stroke-miterlimit:10;" d="
					M401.967,525.192c1.461,4.516-1.015,9.36-5.531,10.821c-4.516,1.461-9.36-1.015-10.821-5.531
					c-1.461-4.516,1.015-9.36,5.531-10.821C395.661,518.2,400.506,520.677,401.967,525.192z"/>
			</g>
			
				<path style="fill:#FFFFFF;stroke:#000000;stroke-width:2.4972;stroke-linecap:round;stroke-linejoin:round;stroke-miterlimit:10;" d="
				M203.499,569.239h-10.548l-3.651-27.915c-0.173-1.323,0.857-2.497,2.191-2.497h6.09c1.11,0,2.047,0.823,2.191,1.923
				L203.499,569.239z"/>
			
				<path style="fill:#FFFFFF;stroke:#000000;stroke-width:2.4972;stroke-linecap:round;stroke-linejoin:round;stroke-miterlimit:10;" d="
				M208.329,584.444h-24.185v-27.84c0-1.42,1.151-2.572,2.572-2.572h19.042c1.42,0,2.572,1.151,2.572,2.572V584.444z"/>
			
				<rect x="191.301" y="603.678" style="fill:#FFFFFF;stroke:#000000;stroke-width:2.4972;stroke-linecap:round;stroke-linejoin:round;stroke-miterlimit:10;" width="22.775" height="28.638"/>
			
				<rect x="289.001" y="603.678" style="fill:#FFFFFF;stroke:#000000;stroke-width:2.4972;stroke-linecap:round;stroke-linejoin:round;stroke-miterlimit:10;" width="22.775" height="28.638"/>
			
				<path style="fill:#FFFFFF;stroke:#000000;stroke-width:2.4972;stroke-linecap:round;stroke-linejoin:round;stroke-miterlimit:10;" d="
				M330.165,669.486H177.006c-10.596,0-19.186-8.59-19.186-19.186v0c0-10.596,8.59-19.186,19.186-19.186h153.159
				c10.596,0,19.186,8.59,19.186,19.186v0C349.35,660.897,340.761,669.486,330.165,669.486z"/>
			
				<path style="fill:#FFFFFF;stroke:#000000;stroke-width:2.4972;stroke-linecap:round;stroke-linejoin:round;stroke-miterlimit:10;" d="
				M177.005,676.621c-3.55,0-6.998-0.697-10.247-2.071c-3.135-1.326-5.949-3.223-8.364-5.638c-2.415-2.415-4.312-5.229-5.638-8.364
				c-1.374-3.25-2.071-6.697-2.071-10.247c0-3.55,0.697-6.998,2.071-10.247c1.326-3.135,3.223-5.949,5.638-8.364
				c2.415-2.415,5.229-4.312,8.364-5.638c3.25-1.375,6.697-2.071,10.247-2.071h153.159c3.55,0,6.998,0.697,10.247,2.071
				c3.135,1.326,5.949,3.223,8.364,5.638c2.415,2.415,4.312,5.229,5.638,8.364c1.374,3.25,2.071,6.697,2.071,10.247
				c0,3.55-0.697,6.998-2.071,10.247c-1.326,3.135-3.223,5.949-5.638,8.364c-2.415,2.415-5.229,4.312-8.364,5.638
				c-3.25,1.374-6.697,2.071-10.247,2.071H177.005z"/>
			
				<path style="fill:#FFFFFF;stroke:#000000;stroke-width:2.4972;stroke-linecap:round;stroke-linejoin:round;stroke-miterlimit:10;" d="
				M330.165,669.486H177.006c-10.596,0-19.186-8.59-19.186-19.186v0c0-10.596,8.59-19.186,19.186-19.186h153.159
				c10.596,0,19.186,8.59,19.186,19.186v0C349.35,660.897,340.761,669.486,330.165,669.486z"/>
			
				<path style="fill:#FFFFFF;stroke:#000000;stroke-width:2.4972;stroke-linecap:round;stroke-linejoin:round;stroke-miterlimit:10;" d="
				M232.934,618.276h-64.384c-2.576,0-4.665-2.089-4.665-4.665V581.71c0-7.533,6.107-13.639,13.639-13.639h55.409V618.276z"/>
			
				<path style="fill:#FFFFFF;stroke:#000000;stroke-width:2.4972;stroke-linecap:round;stroke-linejoin:round;stroke-miterlimit:10;" d="
				M328.861,618.276h-95.926v-82.936c0-2.481,2.011-4.492,4.492-4.492h51.027c3.585,0,6.85,2.065,8.386,5.304l35.985,75.858
				C334.205,614.919,332.082,618.276,328.861,618.276z"/>
			
				<path style="fill:#FFFFFF;stroke:#000000;stroke-width:2.4972;stroke-linecap:round;stroke-linejoin:round;stroke-miterlimit:10;" d="
				M240.511,581.212v-39.556c0-1.785,1.447-3.232,3.232-3.232h42.436c2.048,0,3.912,1.179,4.79,3.029l18.365,38.716
				c0.942,1.986-0.506,4.276-2.704,4.276h-62.887C241.958,584.444,240.511,582.997,240.511,581.212z"/>
			<g>
				
					<ellipse transform="matrix(0.7071 -0.7071 0.7071 0.7071 -404.1329 324.938)" style="fill:#FFFFFF;stroke:#000000;stroke-width:2.4972;stroke-linecap:round;stroke-linejoin:round;stroke-miterlimit:10;" cx="190.168" cy="650.301" rx="14.277" ry="14.277"/>
				
					<circle style="fill:#FFFFFF;stroke:#000000;stroke-width:2.4972;stroke-linecap:round;stroke-linejoin:round;stroke-miterlimit:10;" cx="190.168" cy="650.301" r="8.034"/>
				
					<ellipse transform="matrix(0.7071 -0.7071 0.7071 0.7071 -391.75 354.8329)" style="fill:#FFFFFF;stroke:#000000;stroke-width:2.4972;stroke-linecap:round;stroke-linejoin:round;stroke-miterlimit:10;" cx="232.446" cy="650.301" rx="14.277" ry="14.277"/>
				
					<circle style="fill:#FFFFFF;stroke:#000000;stroke-width:2.4972;stroke-linecap:round;stroke-linejoin:round;stroke-miterlimit:10;" cx="232.446" cy="650.301" r="8.034"/>
				
					<ellipse transform="matrix(0.9347 -0.3555 0.3555 0.9347 -213.2409 140.1492)" style="fill:#FFFFFF;stroke:#000000;stroke-width:2.4972;stroke-linecap:round;stroke-linejoin:round;stroke-miterlimit:10;" cx="274.724" cy="650.301" rx="14.277" ry="14.277"/>
				
					<ellipse transform="matrix(0.9475 -0.3197 0.3197 0.9475 -193.5089 121.9806)" style="fill:#FFFFFF;stroke:#000000;stroke-width:2.4972;stroke-linecap:round;stroke-linejoin:round;stroke-miterlimit:10;" cx="274.724" cy="650.301" rx="8.034" ry="8.034"/>
				
					<ellipse transform="matrix(0.9225 -0.386 0.386 0.9225 -226.467 172.7834)" style="fill:#FFFFFF;stroke:#000000;stroke-width:2.4972;stroke-linecap:round;stroke-linejoin:round;stroke-miterlimit:10;" cx="317.002" cy="650.301" rx="14.277" ry="14.277"/>
				
					<ellipse transform="matrix(0.1606 -0.987 0.987 0.1606 -375.7646 858.7609)" style="fill:#FFFFFF;stroke:#000000;stroke-width:2.4972;stroke-linecap:round;stroke-linejoin:round;stroke-miterlimit:10;" cx="317.002" cy="650.301" rx="8.034" ry="8.034"/>
			</g>
			
				<rect x="177.576" y="578.855" style="fill:#FFFFFF;stroke:#000000;stroke-width:2.4972;stroke-linecap:round;stroke-linejoin:round;stroke-miterlimit:10;" width="5.761" height="27.721"/>
			
				<rect x="191.113" y="578.855" style="fill:#FFFFFF;stroke:#000000;stroke-width:2.4972;stroke-linecap:round;stroke-linejoin:round;stroke-miterlimit:10;" width="5.761" height="27.721"/>
			
				<path style="fill:#FFFFFF;stroke:#000000;stroke-width:2.4972;stroke-linecap:round;stroke-linejoin:round;stroke-miterlimit:10;" d="
				M241.062,593.905L241.062,593.905c0-1.987,1.611-3.598,3.598-3.598h9.214c1.987,0,3.598,1.611,3.598,3.598v0
				c0,1.987-1.611,3.598-3.598,3.598h-9.214C242.673,597.503,241.062,595.893,241.062,593.905z"/>
		</g>
		<g style="opacity:0.38;">
			<g>
				
					<path style="fill:#FFFFFF;stroke:#000000;stroke-width:2.4972;stroke-linecap:round;stroke-linejoin:round;stroke-miterlimit:10;" d="
					M434.656,762.09l-12.527,5.688c-21.487,9.757-46.816,0.247-56.573-21.24l-0.158-0.347l75.058-34.081l7.097,15.63
					C453.477,740.786,447.703,756.166,434.656,762.09z"/>
				
					<polygon style="fill:#FFFFFF;stroke:#000000;stroke-width:2.4972;stroke-linecap:round;stroke-linejoin:round;stroke-miterlimit:10;" points="
					440.456,712.109 365.398,746.191 359.165,732.464 373.447,734.258 437.34,705.246 				"/>
			</g>
			<g>
				
					<path style="fill:#FFFFFF;stroke:#000000;stroke-width:2.4972;stroke-linecap:round;stroke-linejoin:round;stroke-miterlimit:10;" d="
					M424.131,724.87l-44.908-78.677l28.747-14.628l37.168,82.616c2.583,5.742,0.203,12.501-5.409,15.357l0,0
					C434.117,732.393,427.252,730.339,424.131,724.87z"/>
				
					<path style="fill:#FFFFFF;stroke:#000000;stroke-width:2.4972;stroke-linecap:round;stroke-linejoin:round;stroke-miterlimit:10;" d="
					M435.809,721.833c-3.468,1.765-7.709,0.384-9.474-3.084c-1.765-3.468-0.384-7.709,3.084-9.474
					c3.468-1.765,7.709-0.384,9.474,3.084C440.657,715.826,439.276,720.068,435.809,721.833z"/>
			</g>
			<g>
				
					<path style="fill:#FFFFFF;stroke:#000000;stroke-width:2.4972;stroke-linecap:round;stroke-linejoin:round;stroke-miterlimit:10;" d="
					M403.387,655.029l-103.384,39.013l-12.111-37.433l106.644-28.935c7.412-2.011,15.098,2.152,17.462,9.46v0
					C414.363,644.441,410.573,652.317,403.387,655.029z"/>
				
					<path style="fill:#FFFFFF;stroke:#000000;stroke-width:2.4972;stroke-linecap:round;stroke-linejoin:round;stroke-miterlimit:10;" d="
					M401.967,640.379c1.461,4.516-1.015,9.36-5.531,10.821c-4.516,1.461-9.36-1.015-10.821-5.531
					c-1.461-4.516,1.015-9.36,5.531-10.821C395.661,633.387,400.506,635.864,401.967,640.379z"/>
			</g>
			
				<path style="fill:#FFFFFF;stroke:#000000;stroke-width:2.4972;stroke-linecap:round;stroke-linejoin:round;stroke-miterlimit:10;" d="
				M203.499,684.426h-10.548l-3.651-27.915c-0.173-1.323,0.857-2.497,2.191-2.497h6.09c1.11,0,2.047,0.823,2.191,1.923
				L203.499,684.426z"/>
			
				<path style="fill:#FFFFFF;stroke:#000000;stroke-width:2.4972;stroke-linecap:round;stroke-linejoin:round;stroke-miterlimit:10;" d="
				M208.329,699.631h-24.185v-27.84c0-1.42,1.151-2.572,2.572-2.572h19.042c1.42,0,2.572,1.151,2.572,2.572V699.631z"/>
			
				<rect x="191.301" y="718.865" style="fill:#FFFFFF;stroke:#000000;stroke-width:2.4972;stroke-linecap:round;stroke-linejoin:round;stroke-miterlimit:10;" width="22.775" height="28.638"/>
			
				<rect x="289.001" y="718.865" style="fill:#FFFFFF;stroke:#000000;stroke-width:2.4972;stroke-linecap:round;stroke-linejoin:round;stroke-miterlimit:10;" width="22.775" height="28.638"/>
			
				<path style="fill:#FFFFFF;stroke:#000000;stroke-width:2.4972;stroke-linecap:round;stroke-linejoin:round;stroke-miterlimit:10;" d="
				M330.165,784.673H177.006c-10.596,0-19.186-8.59-19.186-19.186l0,0c0-10.596,8.59-19.186,19.186-19.186h153.159
				c10.596,0,19.186,8.59,19.186,19.186l0,0C349.35,776.084,340.761,784.673,330.165,784.673z"/>
			
				<path style="fill:#FFFFFF;stroke:#000000;stroke-width:2.4972;stroke-linecap:round;stroke-linejoin:round;stroke-miterlimit:10;" d="
				M177.005,791.808c-3.55,0-6.998-0.697-10.247-2.071c-3.135-1.326-5.949-3.223-8.364-5.638c-2.415-2.415-4.312-5.229-5.638-8.364
				c-1.374-3.25-2.071-6.697-2.071-10.247s0.697-6.998,2.071-10.247c1.326-3.135,3.223-5.949,5.638-8.364
				c2.415-2.415,5.229-4.312,8.364-5.638c3.25-1.374,6.697-2.071,10.247-2.071h153.159c3.55,0,6.998,0.697,10.247,2.071
				c3.135,1.326,5.949,3.223,8.364,5.638c2.415,2.415,4.312,5.229,5.638,8.364c1.374,3.25,2.071,6.697,2.071,10.247
				s-0.697,6.998-2.071,10.247c-1.326,3.135-3.223,5.949-5.638,8.364c-2.415,2.415-5.229,4.312-8.364,5.638
				c-3.25,1.374-6.697,2.071-10.247,2.071H177.005z"/>
			
				<path style="fill:#FFFFFF;stroke:#000000;stroke-width:2.4972;stroke-linecap:round;stroke-linejoin:round;stroke-miterlimit:10;" d="
				M330.165,784.673H177.006c-10.596,0-19.186-8.59-19.186-19.186l0,0c0-10.596,8.59-19.186,19.186-19.186h153.159
				c10.596,0,19.186,8.59,19.186,19.186l0,0C349.35,776.084,340.761,784.673,330.165,784.673z"/>
			
				<path style="fill:#FFFFFF;stroke:#000000;stroke-width:2.4972;stroke-linecap:round;stroke-linejoin:round;stroke-miterlimit:10;" d="
				M232.934,733.463h-64.384c-2.576,0-4.665-2.089-4.665-4.665v-31.901c0-7.533,6.107-13.639,13.639-13.639h55.409V733.463z"/>
			
				<path style="fill:#FFFFFF;stroke:#000000;stroke-width:2.4972;stroke-linecap:round;stroke-linejoin:round;stroke-miterlimit:10;" d="
				M328.861,733.463h-95.926v-82.936c0-2.481,2.011-4.492,4.492-4.492h51.027c3.585,0,6.85,2.065,8.386,5.304l35.985,75.858
				C334.205,730.106,332.082,733.463,328.861,733.463z"/>
			
				<path style="fill:#FFFFFF;stroke:#000000;stroke-width:2.4972;stroke-linecap:round;stroke-linejoin:round;stroke-miterlimit:10;" d="
				M240.511,696.399v-39.556c0-1.785,1.447-3.232,3.232-3.232h42.436c2.048,0,3.912,1.179,4.79,3.029l18.365,38.716
				c0.942,1.986-0.506,4.276-2.704,4.276h-62.887C241.958,699.631,240.511,698.184,240.511,696.399z"/>
			<g>
				
					<circle style="fill:#FFFFFF;stroke:#000000;stroke-width:2.4972;stroke-linecap:round;stroke-linejoin:round;stroke-miterlimit:10;" cx="190.168" cy="765.488" r="14.277"/>
				
					<circle style="fill:#FFFFFF;stroke:#000000;stroke-width:2.4972;stroke-linecap:round;stroke-linejoin:round;stroke-miterlimit:10;" cx="190.168" cy="765.488" r="8.034"/>
				
					<circle style="fill:#FFFFFF;stroke:#000000;stroke-width:2.4972;stroke-linecap:round;stroke-linejoin:round;stroke-miterlimit:10;" cx="232.446" cy="765.488" r="14.277"/>
				
					<circle style="fill:#FFFFFF;stroke:#000000;stroke-width:2.4972;stroke-linecap:round;stroke-linejoin:round;stroke-miterlimit:10;" cx="232.446" cy="765.488" r="8.034"/>
				
					<circle style="fill:#FFFFFF;stroke:#000000;stroke-width:2.4972;stroke-linecap:round;stroke-linejoin:round;stroke-miterlimit:10;" cx="274.724" cy="765.488" r="14.277"/>
				
					<ellipse transform="matrix(0.9475 -0.3197 0.3197 0.9475 -230.3395 128.0275)" style="fill:#FFFFFF;stroke:#000000;stroke-width:2.4972;stroke-linecap:round;stroke-linejoin:round;stroke-miterlimit:10;" cx="274.724" cy="765.488" rx="8.034" ry="8.034"/>
				
					<circle style="fill:#FFFFFF;stroke:#000000;stroke-width:2.4972;stroke-linecap:round;stroke-linejoin:round;stroke-miterlimit:10;" cx="317.002" cy="765.488" r="14.277"/>
				
					<ellipse transform="matrix(0.1606 -0.987 0.987 0.1606 -489.4568 955.4508)" style="fill:#FFFFFF;stroke:#000000;stroke-width:2.4972;stroke-linecap:round;stroke-linejoin:round;stroke-miterlimit:10;" cx="317.002" cy="765.488" rx="8.034" ry="8.034"/>
			</g>
			
				<rect x="177.576" y="694.042" style="fill:#FFFFFF;stroke:#000000;stroke-width:2.4972;stroke-linecap:round;stroke-linejoin:round;stroke-miterlimit:10;" width="5.761" height="27.721"/>
			
				<rect x="191.113" y="694.042" style="fill:#FFFFFF;stroke:#000000;stroke-width:2.4972;stroke-linecap:round;stroke-linejoin:round;stroke-miterlimit:10;" width="5.761" height="27.721"/>
			
				<path style="fill:#FFFFFF;stroke:#000000;stroke-width:2.4972;stroke-linecap:round;stroke-linejoin:round;stroke-miterlimit:10;" d="
				M241.062,709.092L241.062,709.092c0-1.987,1.611-3.598,3.598-3.598h9.214c1.987,0,3.598,1.611,3.598,3.598l0,0
				c0,1.987-1.611,3.598-3.598,3.598h-9.214C242.673,712.69,241.062,711.08,241.062,709.092z"/>
		</g>
	</g>
</g>
<rect style="fill:#FFFFFF;" width="2800" height="2000"/>
<g>
	<g>
		
			<path style="fill:#FFFFFF;stroke:#000000;stroke-width:21.7924;stroke-linecap:round;stroke-linejoin:round;stroke-miterlimit:10;" d="
			M2572.653,1459.047l-109.326,49.641c-187.518,85.145-408.555,2.156-493.701-185.362l-1.376-3.031l655.021-297.422l61.934,136.399
			C2736.904,1273.133,2686.513,1407.347,2572.653,1459.047z"/>
		
			<polygon style="fill:#FFFFFF;stroke:#000000;stroke-width:21.7924;stroke-linecap:round;stroke-linejoin:round;stroke-miterlimit:10;" points="
			2623.27,1022.873 1968.249,1320.296 1913.859,1200.51 2038.489,1216.161 2596.075,962.981 		"/>
	</g>
	<g>
		
			<path style="fill:#FFFFFF;stroke:#000000;stroke-width:21.7924;stroke-linecap:round;stroke-linejoin:round;stroke-miterlimit:10;" d="
			M2480.8,1134.235l-391.901-686.607l250.874-127.659l324.357,720.977c22.544,50.111,1.768,109.095-47.205,134.016l0,0
			C2567.951,1199.883,2508.039,1181.957,2480.8,1134.235z"/>
		
			<ellipse transform="matrix(0.7071 -0.7071 0.7071 0.7071 3.7569 2114.9329)" style="fill:#FFFFFF;stroke:#000000;stroke-width:21.7924;stroke-linecap:round;stroke-linejoin:round;stroke-miterlimit:10;" cx="2554.828" cy="1052.932" rx="61.481" ry="61.481"/>
	</g>
	<g>
		
			<path style="fill:#FFFFFF;stroke:#000000;stroke-width:21.7924;stroke-linecap:round;stroke-linejoin:round;stroke-miterlimit:10;" d="
			M2299.776,524.738l-902.212,340.464l-105.686-326.674l930.667-252.512c64.686-17.551,131.755,18.783,152.386,82.554v0
			C2395.562,432.341,2362.484,501.074,2299.776,524.738z"/>
		
			<ellipse transform="matrix(0.9998 -0.0174 0.0174 0.9998 -6.9591 38.5463)" style="fill:#FFFFFF;stroke:#000000;stroke-width:21.7924;stroke-linecap:round;stroke-linejoin:round;stroke-miterlimit:10;" cx="2216.029" cy="419.978" rx="74.992" ry="74.992"/>
	</g>
	
		<path style="fill:#FFFFFF;stroke:#000000;stroke-width:21.7924;stroke-linecap:round;stroke-linejoin:round;stroke-miterlimit:10;" d="
		M555.386,781.282H463.34l-31.863-243.61c-1.51-11.546,7.478-21.787,19.123-21.787h53.146c9.684,0,17.867,7.182,19.123,16.785
		L555.386,781.282z"/>
	
		<path style="fill:#FFFFFF;stroke:#000000;stroke-width:21.7924;stroke-linecap:round;stroke-linejoin:round;stroke-miterlimit:10;" d="
		M597.537,913.98H386.476V671.025c0-12.394,10.047-22.442,22.442-22.442h166.178c12.394,0,22.442,10.047,22.442,22.442V913.98z"/>
	
		<rect x="448.934" y="1081.831" style="fill:#FFFFFF;stroke:#000000;stroke-width:21.7924;stroke-linecap:round;stroke-linejoin:round;stroke-miterlimit:10;" width="198.754" height="249.921"/>
	
		<rect x="1301.541" y="1081.831" style="fill:#FFFFFF;stroke:#000000;stroke-width:21.7924;stroke-linecap:round;stroke-linejoin:round;stroke-miterlimit:10;" width="198.754" height="249.921"/>
	
		<path style="fill:#FFFFFF;stroke:#000000;stroke-width:21.7924;stroke-linecap:round;stroke-linejoin:round;stroke-miterlimit:10;" d="
		M1660.773,1656.129H324.178c-92.47,0-167.431-74.961-167.431-167.431v0c0-92.47,74.962-167.431,167.431-167.431h1336.595
		c92.47,0,167.431,74.962,167.431,167.431v0C1828.204,1581.167,1753.243,1656.129,1660.773,1656.129z"/>
	
		<path style="fill:#FFFFFF;stroke:#000000;stroke-width:21.7924;stroke-linecap:round;stroke-linejoin:round;stroke-miterlimit:10;" d="
		M324.178,1718.393c-30.981,0-61.069-6.082-89.427-18.077c-27.359-11.572-51.917-28.125-72.992-49.2
		c-21.075-21.074-37.628-45.632-49.2-72.992c-11.994-28.359-18.076-58.446-18.076-89.427c0-30.981,6.082-61.068,18.076-89.427
		c11.572-27.359,28.125-51.917,49.2-72.992c21.074-21.075,45.633-37.628,72.992-49.2c28.359-11.995,58.446-18.076,89.427-18.076
		h1336.595c30.981,0,61.069,6.082,89.427,18.076c27.359,11.573,51.917,28.126,72.992,49.2c21.074,21.075,37.628,45.633,49.2,72.992
		c11.995,28.359,18.076,58.446,18.076,89.427c0,30.981-6.082,61.069-18.076,89.427c-11.572,27.359-28.125,51.917-49.2,72.992
		c-21.075,21.074-45.633,37.627-72.992,49.2c-28.359,11.994-58.446,18.076-89.427,18.076H324.178z"/>
	
		<path style="fill:#FFFFFF;stroke:#000000;stroke-width:21.7924;stroke-linecap:round;stroke-linejoin:round;stroke-miterlimit:10;" d="
		M1660.773,1656.129H324.178c-92.47,0-167.431-74.961-167.431-167.431v0c0-92.47,74.962-167.431,167.431-167.431h1336.595
		c92.47,0,167.431,74.962,167.431,167.431v0C1828.204,1581.167,1753.243,1656.129,1660.773,1656.129z"/>
	
		<path style="fill:#FFFFFF;stroke:#000000;stroke-width:21.7924;stroke-linecap:round;stroke-linejoin:round;stroke-miterlimit:10;" d="
		M812.261,1209.219H250.395c-22.483,0-40.709-18.226-40.709-40.709V890.119c0-65.737,53.29-119.027,119.027-119.027h483.548
		V1209.219z"/>
	
		<path style="fill:#FFFFFF;stroke:#000000;stroke-width:21.7924;stroke-linecap:round;stroke-linejoin:round;stroke-miterlimit:10;" d="
		M1649.397,1209.219H812.261V485.447c0-21.65,17.55-39.2,39.2-39.2h445.304c31.286,0,59.776,18.018,73.185,46.285l314.032,662
		C1696.031,1179.931,1677.508,1209.219,1649.397,1209.219z"/>
	
		<path style="fill:#FFFFFF;stroke:#000000;stroke-width:21.7924;stroke-linecap:round;stroke-linejoin:round;stroke-miterlimit:10;" d="
		M878.381,885.773V540.574c0-15.579,12.629-28.208,28.208-28.208h370.332c17.868,0,34.139,10.29,41.797,26.434l160.272,337.865
		c8.221,17.33-4.418,37.314-23.599,37.314H906.589C891.01,913.98,878.381,901.351,878.381,885.773z"/>
	<g>
		
			<circle style="fill:#FFFFFF;stroke:#000000;stroke-width:21.7924;stroke-linecap:round;stroke-linejoin:round;stroke-miterlimit:10;" cx="439.048" cy="1488.697" r="124.589"/>
		
			<ellipse transform="matrix(0.9001 -0.4356 0.4356 0.9001 -604.6529 339.9277)" style="fill:#FFFFFF;stroke:#000000;stroke-width:21.7924;stroke-linecap:round;stroke-linejoin:round;stroke-miterlimit:10;" cx="439.048" cy="1488.697" rx="70.108" ry="70.108"/>
		
			<circle style="fill:#FFFFFF;stroke:#000000;stroke-width:21.7924;stroke-linecap:round;stroke-linejoin:round;stroke-miterlimit:10;" cx="808" cy="1488.697" r="124.589"/>
		
			<ellipse transform="matrix(0.8994 -0.4371 0.4371 0.8994 -569.441 502.9284)" style="fill:#FFFFFF;stroke:#000000;stroke-width:21.7924;stroke-linecap:round;stroke-linejoin:round;stroke-miterlimit:10;" cx="808" cy="1488.697" rx="70.108" ry="70.108"/>
		
			<circle style="fill:#FFFFFF;stroke:#000000;stroke-width:21.7924;stroke-linecap:round;stroke-linejoin:round;stroke-miterlimit:10;" cx="1176.951" cy="1488.697" r="124.589"/>
		
			<ellipse transform="matrix(0.9106 -0.4132 0.4132 0.9106 -509.9738 619.3771)" style="fill:#FFFFFF;stroke:#000000;stroke-width:21.7924;stroke-linecap:round;stroke-linejoin:round;stroke-miterlimit:10;" cx="1176.951" cy="1488.697" rx="70.108" ry="70.108"/>
		
			<circle style="fill:#FFFFFF;stroke:#000000;stroke-width:21.7924;stroke-linecap:round;stroke-linejoin:round;stroke-miterlimit:10;" cx="1545.903" cy="1488.697" r="124.589"/>
		
			<ellipse transform="matrix(0.1414 -0.9899 0.9899 0.1414 -146.4549 2808.5305)" style="fill:#FFFFFF;stroke:#000000;stroke-width:21.7924;stroke-linecap:round;stroke-linejoin:round;stroke-miterlimit:10;" cx="1545.903" cy="1488.697" rx="70.108" ry="70.109"/>
	</g>
	
		<path style="fill:#FFFFFF;stroke:#000000;stroke-width:21.7924;stroke-linecap:round;stroke-linejoin:round;stroke-miterlimit:10;" d="
		M354.295,1107.12L354.295,1107.12c-13.884,0-25.139-11.255-25.139-25.139v-191.64c0-13.884,11.255-25.139,25.139-25.139l0,0
		c13.884,0,25.139,11.255,25.139,25.139v191.64C379.434,1095.865,368.179,1107.12,354.295,1107.12z"/>
	
		<path style="fill:#FFFFFF;stroke:#000000;stroke-width:21.7924;stroke-linecap:round;stroke-linejoin:round;stroke-miterlimit:10;" d="
		M472.432,1107.12L472.432,1107.12c-13.884,0-25.139-11.255-25.139-25.139v-191.64c0-13.884,11.255-25.139,25.139-25.139l0,0
		c13.884,0,25.139,11.255,25.139,25.139v191.64C497.571,1095.865,486.316,1107.12,472.432,1107.12z"/>
	
		<path style="fill:#FFFFFF;stroke:#000000;stroke-width:21.7924;stroke-linecap:round;stroke-linejoin:round;stroke-miterlimit:10;" d="
		M883.19,996.545L883.19,996.545c0-17.342,14.058-31.4,31.4-31.4H995c17.342,0,31.4,14.058,31.4,31.4v0
		c0,17.342-14.058,31.4-31.4,31.4h-80.41C897.249,1027.945,883.19,1013.887,883.19,996.545z"/>
</g>
</svg>
