<?xml version="1.0" encoding="utf-8"?>
<!-- Generator: Adobe Illustrator 27.5.0, SVG Export Plug-In . SVG Version: 6.00 Build 0)  -->
<svg version="1.1" id="Layer_1" xmlns="http://www.w3.org/2000/svg" xmlns:xlink="http://www.w3.org/1999/xlink" x="0px" y="0px"
	 viewBox="0 0 240.599 342.894" style="enable-background:new 0 0 240.599 342.894;" xml:space="preserve">
<g>
	<g>
		<g>
			<path style="fill:#FFFFFF;" d="M178.178,249.911c0,0,6.716-14.975,22.518-14.778c15.802,0.197,15.012,29.556,6.518,42.167
				c-8.494,12.611-18.765,19.704-18.765,19.704s20.74-8.473,31.209-0.985c10.271-2.167,16.197,5.714,16.987,12.611
				c0.79,6.897-2.963,19.704-13.629,17.734c-6.123,6.305-19.358,1.576-20.345,0.394c-6.321,4.729-19.358,3.744-24.098-3.153
				C173.832,316.708,178.178,249.911,178.178,249.911z"/>
			<path d="M192.541,329.924c-1.217,0-2.457-0.099-3.691-0.302c-4.61-0.758-8.429-2.902-10.477-5.881
				c-4.734-6.887-0.615-71.116-0.437-73.847c0.002-0.028,0.008-0.057,0.02-0.083c0.068-0.15,6.874-14.923,22.435-14.923
				c0.102,0,0.205,0.001,0.308,0.002c4.321,0.054,7.773,2.309,9.981,6.523c5.176,9.873,2.495,27.472-3.265,36.023
				c-6.613,9.818-14.387,16.363-17.47,18.755c5.061-1.78,20.986-6.605,29.768-0.43c4.15-0.849,7.967-0.128,11.051,2.094
				c3.339,2.406,5.628,6.423,6.123,10.747c0.545,4.751-1.034,11.815-5.033,15.548c-2.399,2.238-5.343,3.07-8.754,2.474
				c-2.236,2.238-5.675,3.334-9.965,3.174c-4.876-0.183-9.404-1.888-10.481-2.729C200.091,328.917,196.427,329.924,192.541,329.924z
				 M178.416,249.971c-0.132,2.06-4.232,66.82,0.356,73.496c1.973,2.87,5.675,4.94,10.156,5.677
				c5.13,0.846,10.34-0.145,13.598-2.581c0.102-0.076,0.248-0.063,0.331,0.039c0.516,0.618,5.263,2.523,10.297,2.712
				c2.925,0.108,6.991-0.342,9.689-3.119c0.056-0.058,0.135-0.087,0.219-0.07c3.304,0.613,6.152-0.172,8.461-2.328
				c3.883-3.625,5.414-10.505,4.883-15.139c-0.473-4.127-2.743-8.115-5.926-10.409c-2.994-2.158-6.72-2.846-10.77-1.992
				c-0.066,0.016-0.135,0.001-0.191-0.04c-10.243-7.325-30.771,0.927-30.977,1.013c-0.117,0.047-0.246,0-0.305-0.109
				c-0.059-0.109-0.027-0.244,0.076-0.315c0.102-0.07,10.334-7.216,18.702-19.64c5.685-8.44,8.337-25.798,3.238-35.527
				c-2.151-4.103-5.366-6.21-9.558-6.262c-0.1-0.001-0.202-0.002-0.301-0.002C185.534,235.373,178.809,249.137,178.416,249.971z"/>
		</g>
		<path d="M200.578,298.533c-2.961-1.142-6.166-1.067-9.089,0.144c-0.133,0.055-0.454,0.58-0.199,0.505
			c6.587-1.946,13.506,2.156,15.318,8.654c1.825,6.546,0.324,15-5.48,19.1c-0.425,0.3-0.879,1.472,0.009,1.001
			c5.143-2.732,7.331-9.016,7.584-14.515C209.007,307.198,206.755,300.915,200.578,298.533z"/>
		<path d="M228.105,308.889c-0.887-5.789-4.167-11.04-9.224-14.046c-0.226-0.134-0.73,0.434-0.527,0.606
			c4.044,3.422,7.141,8.088,8.232,13.308c0.584,2.797,0.536,5.728-0.075,8.515c-0.669,3.054-2.171,5.544-3.657,8.241
			c-0.255,0.463,0.252,0.557,0.54,0.268C227.546,321.63,228.971,314.534,228.105,308.889z"/>
	</g>
	<g>
		<path d="M203.762,263.52c-1.155,2.843-1.342,6.069-0.521,9.026c0.309,1.115,1.022,2.382,2.179,2.369
			c0.792-0.009,1.426-0.635,1.932-1.244c2.595-3.125,4.284-6.993,4.813-11.02c0.147-1.116,0.202-2.276-0.155-3.344
			C210.06,253.466,204.815,260.929,203.762,263.52z"/>
		<path d="M194.178,274.269c-1.142-0.045-2.257,0.404-3.211,1.034c-2.244,1.481-3.745,4.034-3.948,6.715
			c-0.047,0.623,0.001,1.321,0.449,1.757c0.403,0.392,1.017,0.459,1.579,0.446c2.135-0.05,4.236-0.98,5.707-2.528
			C196.684,279.664,198.668,274.446,194.178,274.269z"/>
		<path d="M207.167,294.265c-0.966,0.281-2.019,0.962-1.989,1.967c0.02,0.678,0.54,1.23,1.065,1.661
			c2.612,2.15,6.206,3.054,9.524,2.396c0.734-0.145,1.554-0.453,1.797-1.16c0.702-2.038-3.225-3.571-4.514-4.281
			C211.262,293.862,209.136,293.692,207.167,294.265z"/>
	</g>
	<g>
		<g>
			<path style="fill:#FFFFFF;" d="M86.226,249.911c0,0-6.716-14.975-22.518-14.778c-15.802,0.197-15.012,29.556-6.518,42.167
				c8.494,12.611,18.765,19.704,18.765,19.704s-20.74-8.473-31.209-0.985c-10.271-2.167-16.197,5.714-16.987,12.611
				c-0.79,6.897,2.963,19.704,13.629,17.734c6.123,6.305,19.358,1.576,20.345,0.394c6.321,4.729,19.358,3.744,24.098-3.153
				C90.571,316.708,86.226,249.911,86.226,249.911z"/>
			<path d="M71.862,329.924c-3.886,0-7.55-1.007-10.113-2.855c-1.076,0.841-5.605,2.546-10.48,2.729
				c-4.295,0.16-7.729-0.937-9.965-3.174c-3.414,0.596-6.355-0.236-8.754-2.474c-3.998-3.733-5.578-10.797-5.033-15.548
				c0.495-4.323,2.784-8.341,6.123-10.747c3.084-2.22,6.905-2.943,11.051-2.094c8.782-6.176,24.708-1.348,29.768,0.43
				c-3.083-2.392-10.857-8.936-17.471-18.755c-5.759-8.552-8.44-26.15-3.265-36.023c2.208-4.213,5.66-6.468,9.981-6.522
				c0.102-0.001,0.207-0.002,0.308-0.002c15.563,0,22.367,14.773,22.435,14.923c0.011,0.027,0.018,0.055,0.02,0.083
				c0.178,2.731,4.297,66.96-0.437,73.847c-2.048,2.979-5.867,5.123-10.477,5.881C74.319,329.826,73.079,329.924,71.862,329.924z
				 M61.732,326.514c0.051,0,0.101,0.016,0.145,0.048c3.256,2.436,8.467,3.427,13.598,2.581c4.48-0.737,8.183-2.807,10.156-5.677
				c4.589-6.675,0.488-71.435,0.356-73.496c-0.393-0.835-7.12-14.598-21.976-14.598c-0.1,0-0.2,0.001-0.301,0.002
				c-4.191,0.052-7.407,2.159-9.557,6.262c-5.1,9.728-2.448,27.086,3.237,35.527c8.372,12.428,18.6,19.57,18.702,19.64
				c0.102,0.071,0.135,0.207,0.076,0.315c-0.06,0.108-0.189,0.155-0.305,0.109c-0.207-0.084-20.737-8.336-30.977-1.013
				c-0.055,0.041-0.122,0.056-0.191,0.04c-4.053-0.854-7.776-0.166-10.77,1.992c-3.183,2.293-5.453,6.281-5.926,10.409
				c-0.53,4.634,1,11.514,4.883,15.139c2.309,2.156,5.159,2.941,8.461,2.328c0.083-0.018,0.162,0.012,0.219,0.07
				c2.698,2.777,6.765,3.229,9.689,3.119c5.034-0.189,9.781-2.094,10.297-2.712C61.594,326.544,61.663,326.514,61.732,326.514z"/>
		</g>
		<path d="M63.825,298.533c2.961-1.142,6.166-1.067,9.089,0.144c0.133,0.055,0.454,0.58,0.2,0.505
			c-6.587-1.946-13.506,2.156-15.318,8.654c-1.825,6.546-0.324,15,5.48,19.1c0.425,0.3,0.879,1.472-0.009,1.001
			c-5.143-2.732-7.331-9.016-7.584-14.515C55.396,307.198,57.648,300.915,63.825,298.533z"/>
		<path d="M36.298,308.889c0.887-5.789,4.167-11.04,9.224-14.046c0.226-0.134,0.73,0.434,0.527,0.606
			c-4.044,3.422-7.141,8.088-8.232,13.308c-0.584,2.797-0.536,5.728,0.075,8.515c0.669,3.054,2.171,5.544,3.657,8.241
			c0.255,0.463-0.252,0.557-0.54,0.268C36.857,321.63,35.433,314.534,36.298,308.889z"/>
	</g>
	<g>
		<path style="fill:#FFFFFF;" d="M99.98,168.413c0,0-11.612,6.129-15.483,28.708c-3.871,22.58-2.581,45.482-0.323,73.545
			c1.935,25.16,1.185,34.731,1.185,34.731s-13.767,1.788-12.873,16.807c1.252,11.264,10.728,15.019,16.092,13.052
			c6.079,4.291,16.986,1.43,18.774-0.179c12.873,2.861,17.452-5.992,16.437-13.41c7.731,2.108,21.083-0.078,21.083-0.078
			s-0.509,17.707,17.442,13.416c0,0,8.01,4.077,17.164-0.143c5.865,1.788,11.443-0.358,14.018-6.58
			c2.575-6.222,2.608-21.005-12.552-23.425c-0.645-29.515,2.258-60.642,3.548-86.125c1.29-25.483-7.243-41.35-16.323-47.768
			C168.169,170.965,135.732,192.316,99.98,168.413z"/>
		<path d="M97.094,337.751c-3.04,0-6.167-0.586-8.553-2.225c-2.79,0.973-6.368,0.427-9.378-1.436
			c-3.878-2.401-6.336-6.613-6.919-11.86c-0.47-7.882,3.115-12.104,6.204-14.261c2.925-2.041,5.893-2.649,6.682-2.782
			c0.089-1.473,0.568-11.545-1.198-34.501c-2.224-27.652-3.613-50.63,0.326-73.604c3.846-22.439,15.492-28.821,15.609-28.882
			c0.077-0.043,0.172-0.037,0.247,0.012c18.401,12.302,35.89,12.34,47.323,10.203c12.387-2.314,20.518-7.599,20.598-7.652
			c0.085-0.054,0.193-0.051,0.274,0.005c3.501,2.475,8.45,7.408,12.136,16.845c3.445,8.82,4.888,19.296,4.289,31.134
			c-0.345,6.798-0.799,13.92-1.279,21.46c-1.282,20.099-2.734,42.872-2.274,64.445c5.449,0.915,9.381,3.473,11.692,7.603
			c2.969,5.307,2.52,12.077,0.847,16.121c-2.501,6.042-7.949,8.621-14.224,6.745c-8.626,3.931-16.332,0.553-17.21,0.14
			c-5.46,1.289-9.777,0.681-12.836-1.806c-4.437-3.606-4.796-10.134-4.82-11.584c-1.943,0.292-13.453,1.905-20.557,0.12
			c0.488,4.297-0.859,8.355-3.639,10.914c-2.114,1.946-6.086,3.941-13.018,2.432C106.082,336.411,101.688,337.751,97.094,337.751z
			 M88.578,335.013c0.049,0,0.099,0.015,0.14,0.044c5.888,4.158,16.752,1.385,18.472-0.161c0.057-0.053,0.134-0.074,0.215-0.057
			c5.381,1.195,9.774,0.404,12.702-2.291c2.74-2.522,4.027-6.578,3.441-10.849c-0.01-0.08,0.02-0.162,0.081-0.215
			c0.061-0.054,0.145-0.074,0.223-0.052c7.591,2.07,20.848-0.062,20.981-0.084c0.066-0.01,0.143,0.008,0.198,0.057
			s0.085,0.117,0.083,0.19c-0.002,0.076-0.157,7.587,4.643,11.486c2.951,2.396,7.158,2.964,12.499,1.688
			c0.057-0.015,0.115-0.008,0.167,0.02c0.079,0.041,8.018,3.972,16.953-0.147c0.053-0.026,0.113-0.029,0.172-0.012
			c6.056,1.849,11.315-0.622,13.722-6.44c1.682-4.066,1.941-10.764-0.82-15.699c-2.264-4.045-6.148-6.532-11.545-7.393
			c-0.115-0.019-0.202-0.117-0.205-0.234c-0.474-21.653,0.984-44.517,2.271-64.688c0.48-7.539,0.934-14.659,1.278-21.455
			c0.851-16.788-2.936-38.041-16.088-47.465c-1.138,0.712-9.046,5.469-20.635,7.634c-11.491,2.148-29.065,2.117-47.556-10.193
			c-1.251,0.746-11.646,7.527-15.235,28.464c-3.928,22.919-2.541,45.867-0.32,73.484c1.915,24.891,1.194,34.674,1.186,34.769
			c-0.009,0.115-0.097,0.207-0.21,0.222c-0.034,0.005-3.437,0.471-6.68,2.74c-4.335,3.033-6.348,7.68-5.983,13.811
			c0.565,5.083,2.942,9.167,6.692,11.488c2.927,1.812,6.405,2.329,9.075,1.351C88.521,335.018,88.549,335.013,88.578,335.013z
			 M85.36,305.397h0.006H85.36z"/>
	</g>
	<g>
		<g>
			<path style="fill:#FFFFFF;" d="M135.139,168.366c23.559,0.3,30.086-6.678,30.611-8.403c0.525-1.726-0.29-7.552-0.29-7.552
				c-0.505-7.575-0.505-7.575-0.505-7.575s-11.279,27.271-62.958,4.209v3.03c0,0,0,2.486,0,4.137
				C101.998,157.862,106.629,166.715,135.139,168.366z"/>
			<path d="M136.559,168.617c-0.471,0-0.944-0.004-1.423-0.009c-0.004,0-0.008,0-0.011,0c-27.707-1.604-33.37-10.186-33.37-12.397
				v-7.167c0-0.082,0.042-0.159,0.111-0.204c0.067-0.044,0.154-0.053,0.23-0.018c20.714,9.245,38.03,11.591,50.077,6.784
				c9.548-3.807,12.53-10.794,12.558-10.864c0.043-0.104,0.156-0.163,0.263-0.147c0.112,0.019,0.196,0.111,0.203,0.224l0.505,7.575
				c0.032,0.223,0.816,5.882,0.28,7.639c-0.277,0.909-2.055,3.146-6.807,5.114C153.68,167.423,145.883,168.617,136.559,168.617z
				 M135.148,168.123c0.49,0.007,0.975,0.009,1.449,0.009c21.887,0,28.381-6.466,28.921-8.24c0.504-1.655-0.29-7.391-0.298-7.448
				l-0.447-6.709c-1.106,1.992-4.623,7.213-12.42,10.323c-12.279,4.896-29.137,2.665-50.113-6.64v6.794
				c0,0.691,1.057,3.253,5.755,5.865C112.092,164.355,120.127,167.253,135.148,168.123z"/>
		</g>
		<g>
			<path style="fill:#FFFFFF;" d="M165.461,152.411c0,0,0.815,5.826,0.29,7.552c-0.525,1.726-7.053,8.703-30.611,8.403
				c-28.511-1.651-33.141-10.504-33.141-12.154c0-1.651,0-4.137,0-4.137s-4.341,0.338-4.713,9.09
				c-0.337,7.912-0.505,11.615,8.417,16.16c8.922,4.545,34.004,8.417,50.501,3.872c9.427-3.367,13.635-6.228,13.804-11.952
				C170.174,163.521,171.858,154.094,165.461,152.411z"/>
			<path d="M138.826,183.445c-13.255,0-26.995-2.725-33.235-5.904c-9.051-4.61-8.883-8.537-8.55-16.358
				c0.378-8.893,4.752-9.335,4.937-9.35c0.072-0.007,0.134,0.018,0.184,0.064c0.049,0.046,0.078,0.111,0.078,0.178v4.137
				c0,0.691,1.057,3.253,5.755,5.865c4.097,2.278,12.135,5.177,27.159,6.046c0.491,0.007,0.977,0.009,1.452,0.009
				c21.878,0.001,28.372-6.466,28.913-8.24c0.504-1.655-0.29-7.391-0.298-7.448c-0.01-0.079,0.019-0.161,0.079-0.214
				c0.06-0.056,0.146-0.073,0.223-0.054c5.664,1.491,5.221,8.648,4.865,14.4c-0.059,0.952-0.115,1.851-0.138,2.675
				c-0.18,6.105-5.047,8.989-13.965,12.173C151.115,182.848,145.023,183.445,138.826,183.445z M101.755,152.373
				c-0.915,0.259-3.924,1.653-4.228,8.802c-0.336,7.881-0.489,11.465,8.284,15.934c9.091,4.631,34.228,8.292,50.326,3.854
				c11.281-4.029,13.494-7.23,13.626-11.725c0.025-0.832,0.08-1.735,0.139-2.691c0.337-5.448,0.754-12.197-4.153-13.797
				c0.172,1.327,0.694,5.765,0.232,7.284c-0.277,0.909-2.055,3.146-6.807,5.114c-5.773,2.39-14.091,3.583-24.039,3.46
				c-27.718-1.604-33.382-10.186-33.382-12.397V152.373z"/>
		</g>
	</g>
	<g>
		<path d="M93.664,200.467c-0.461,1.318-1.122,2.614-2.196,3.506c-1.074,0.892-2.63,1.304-3.907,0.741
			c-0.974-0.429-1.661-1.36-2.006-2.367c-0.345-1.007-0.385-2.092-0.357-3.156c0.076-2.937,0.644-5.86,1.675-8.611
			c0.362-0.967,0.792-1.931,1.478-2.704c0.976-1.099,2.684-1.802,4.025-0.895c0.969,0.656,1.617,1.959,1.911,3.02
			C95.278,193.581,94.913,196.899,93.664,200.467z"/>
		<path d="M111.317,209.217c-0.751,1.218-0.948,2.688-1.108,4.11c-0.114,1.002-0.217,2.02-0.057,3.016
			c0.16,0.996,0.616,1.984,1.429,2.581c0.813,0.597,2.018,0.709,2.821,0.098c0.73-0.556,0.978-1.527,1.179-2.422
			c0.348-1.55,0.698-3.115,0.709-4.704c0.007-1.113-0.159-3.76-1.279-4.414C113.75,206.749,111.925,208.229,111.317,209.217z"/>
		<path d="M130.136,203.172c-0.916,0.482-1.537,1.377-2.042,2.281c-1.028,1.841-1.735,3.897-1.777,6.005
			c-0.023,1.163,0.176,2.376,0.848,3.326c0.672,0.95,1.898,1.569,3.024,1.273c1.235-0.324,1.973-1.566,2.492-2.734
			c0.699-1.573,1.246-3.233,1.387-4.949C134.248,206.189,133.497,201.405,130.136,203.172z"/>
		<path d="M174.811,203.77c-1.36,2.232-1.951,4.923-1.653,7.52c0.087,0.762,0.255,1.529,0.641,2.192
			c0.386,0.662,1.018,1.211,1.771,1.357c1.353,0.261,2.601-0.799,3.406-1.918c1.876-2.609,2.859-6.52,1.899-9.669
			C179.842,199.863,176.215,201.464,174.811,203.77z"/>
		<path d="M89.337,236.125c-0.741,1.791-1.136,3.724-1.157,5.662c-0.016,1.414,0.318,3.06,1.583,3.693
			c1.235,0.617,2.733-0.061,3.787-0.952c2.688-2.275,4.325-6.727,3.134-10.178C95.196,230.044,90.476,233.371,89.337,236.125z"/>
		<path d="M91.451,262.65c-0.487,5.52,1.153,11.202,4.506,15.614c1.131,1.488,2.766,2.953,4.615,2.676
			c2.055-0.308,3.17-2.574,3.598-4.607c1.045-4.965-0.124-10.281-2.896-14.498c-1.078-1.64-3.286-4.872-5.449-5.044
			C92.865,256.555,91.649,260.399,91.451,262.65z"/>
		<path d="M158.363,251.69c0.362-0.212-0.28,15.792-0.559,19.845c-6.149,3.075-9.363-0.559-8.245-6.289
			C150.677,259.516,154.31,254.066,158.363,251.69z"/>
		<path d="M157.664,273.352l-1.537,11.32c0,0-4.612-1.398-4.332-5.73C152.074,274.609,156.127,273.212,157.664,273.352z"/>
		<path d="M171.384,232.973c-1.023,0.713-1.684,1.83-2.237,2.948c-2.62,5.297-3.476,11.448-2.402,17.259
			c0.277,1.498,0.725,3.056,1.834,4.101c1.567,1.477,4.131,1.499,6.026,0.476c1.895-1.023,3.201-2.889,4.095-4.847
			c1.893-4.145,2.076-8.976,0.753-13.315C178.482,236.414,175.733,229.942,171.384,232.973z"/>
		<path d="M155.715,318.653c-0.371,1.856,0.143,3.819,1.147,5.424c0.442,0.707,0.991,1.368,1.705,1.8
			c0.714,0.432,1.612,0.61,2.399,0.333c1.426-0.501,1.996-2.226,2.042-3.736c0.055-1.82-0.375-3.654-1.234-5.259
			c-0.612-1.144-1.965-2.943-3.409-2.285C156.973,315.565,156.003,317.212,155.715,318.653z"/>
		<path d="M169.063,308.81c2.193,2.325,5.327,3.736,8.521,3.837c0.85,0.027,1.797-0.078,2.363-0.713
			c0.632-0.708,0.543-1.806,0.228-2.702c-0.774-2.2-2.669-3.901-4.84-4.754c-1.718-0.675-4.678-1.336-6.47-0.502
			C166.795,304.942,167.91,307.589,169.063,308.81z"/>
	</g>
	<g>
		<path d="M122.976,315.742c-1.234-3.142-3.209-5.657-5.234-8.308c-4.274-5.595-5.646-12.477-6.352-19.335
			c-0.764-7.422-1.214-14.904-1.416-22.362c-0.194-7.124-0.063-14.272,0.752-21.357c0.928-8.062,2.688-16.063,5.869-23.55
			c0.124-0.291-0.235-0.085-0.301,0.063c-5.932,13.183-7.42,27.617-7.289,41.934c0.068,7.53,0.535,15.055,1.139,22.559
			c0.534,6.627,1.161,13.546,4.374,19.502c1.887,3.498,4.848,6.248,6.624,9.818c1.822,3.662,2.342,7.441,2.596,11.471
			c0.03,0.472,0.707-0.24,0.739-0.485C124.903,322.375,124.191,318.836,122.976,315.742z"/>
		<path d="M158.584,245.406c-0.684-7.52-2.042-15.02-4.596-22.141c-0.072-0.2-0.51,0.212-0.458,0.393
			c3.846,13.514,5.238,27.368,4.418,41.388c-0.419,7.156-1.344,14.274-2.624,21.325c-0.616,3.396-1.309,6.778-2.058,10.147
			c-0.374,1.682-0.755,3.362-1.147,5.04c-0.214,0.913-0.418,1.831-0.652,2.74c-0.264,1.028-0.804,1.658-1.551,2.374
			c-4.291,4.116-6.451,10.136-5.29,16.033c0.101,0.513,1.199-0.424,1.114-0.923c-0.518-3.043-0.252-6.169,0.893-9.046
			c0.524-1.317,1.23-2.557,2.036-3.721c0.813-1.175,2-1.971,2.86-3.086c0.742-0.963,0.918-2.207,1.197-3.36
			c0.443-1.829,0.876-3.66,1.282-5.497c0.777-3.514,1.491-7.043,2.123-10.586C158.549,272.948,159.833,259.142,158.584,245.406z"/>
		<path d="M108.97,308.251c-3.991,2.782-5.577,7.539-6.011,12.198c-0.457,4.909-0.085,10.875,3.78,14.426
			c0.413,0.379,1.372-0.737,1.014-1.167c-2.997-3.599-3.734-8.282-3.559-12.837c0.169-4.385,1.211-9.253,4.846-12.087
			C109.277,308.6,109.429,307.931,108.97,308.251z"/>
		<path d="M98.57,299.612c-7.431-0.973-13.095,5.987-14.679,12.526c-0.962,3.97-0.887,8.217-0.165,12.219
			c0.617,3.419,1.857,7.817,4.948,9.801c0.339,0.218,1.101-0.56,0.884-0.888c-0.897-1.359-1.918-2.638-2.649-4.1
			c-0.737-1.474-1.256-3.057-1.618-4.662c-0.779-3.447-0.988-7.142-0.535-10.648c0.449-3.477,1.677-6.932,4.095-9.534
			c2.441-2.627,5.816-4.215,9.415-4.262C98.417,300.062,98.763,299.637,98.57,299.612z"/>
		<path d="M167.422,317.946c-1.021-6.663-4.882-13.946-12.183-14.993c-0.256-0.037-0.773,0.623-0.465,0.7
			c6.564,1.642,10.225,8.305,11.26,14.559c0.988,5.969-0.28,12.072-4.402,16.617c-0.472,0.52-0.213,1.276,0.463,0.675
			C166.938,331.196,168.372,324.15,167.422,317.946z"/>
		<path d="M185.259,312.631c-0.889-3.947-2.733-7.516-6.23-9.716c-3.759-2.366-8.381-3.189-12.75-2.609
			c-0.154,0.021-0.491,0.513-0.297,0.513c4.062-0.017,8.305,0.786,11.805,2.934c3.382,2.076,5.219,5.351,6.149,9.132
			c1.824,7.421-0.239,14.744-4.531,20.878c-0.435,0.621,0.201,0.723,0.601,0.293C185.162,328.498,186.898,319.909,185.259,312.631z"
			/>
	</g>
	<g>
		<g>
			<path style="fill:#FFFFFF;" d="M139.573,186.449c-0.201,0-0.402-0.006-0.604-0.016l-14.444-0.79
				c-6.018-0.33-10.646-5.493-10.317-11.512c0.329-6.018,5.479-10.649,11.511-10.317l14.444,0.79
				c2.915,0.159,5.594,1.444,7.542,3.619c1.949,2.174,2.934,4.977,2.774,7.893C150.162,181.932,145.328,186.449,139.573,186.449z
				 M125.118,166.708c-4.224,0-7.77,3.315-8.004,7.582c-0.241,4.416,3.155,8.205,7.571,8.446l14.444,0.79
				c4.424,0.252,8.205-3.154,8.446-7.57c0.117-2.139-0.605-4.196-2.036-5.791c-1.429-1.596-3.395-2.539-5.534-2.656l-14.444-0.79
				C125.412,166.712,125.265,166.708,125.118,166.708z"/>
			<path d="M139.574,186.692c-0.205,0-0.41-0.006-0.617-0.016l-14.445-0.79c-6.152-0.337-10.882-5.616-10.546-11.768
				c0.163-2.976,1.476-5.714,3.697-7.707c2.224-1.995,5.101-3.001,8.07-2.839l14.444,0.791c2.98,0.163,5.719,1.477,7.71,3.699
				c1.991,2.222,2.998,5.087,2.836,8.068C150.398,182.053,145.502,186.692,139.574,186.692z M125.106,164.04
				c-2.633,0-5.142,0.959-7.119,2.732c-2.125,1.907-3.381,4.525-3.536,7.372c-0.323,5.885,4.203,10.934,10.087,11.256l14.444,0.79
				c5.908,0.326,10.934-4.225,11.255-10.087c0.156-2.851-0.807-5.592-2.713-7.717c-1.904-2.127-4.523-3.383-7.374-3.538
				l-14.444-0.791C125.506,164.046,125.306,164.04,125.106,164.04z M139.593,183.783c-0.159,0-0.318-0.005-0.478-0.013l-14.443-0.79
				c-4.55-0.249-8.048-4.153-7.8-8.702c0.248-4.53,4.084-8.04,8.702-7.8l14.445,0.791c2.203,0.12,4.229,1.092,5.702,2.736
				c1.473,1.644,2.217,3.763,2.097,5.967c-0.12,2.208-1.096,4.236-2.745,5.712C143.546,183.047,141.617,183.783,139.593,183.783z
				 M125.118,166.951c-4.126,0-7.536,3.229-7.762,7.353c-0.114,2.071,0.588,4.065,1.977,5.614c1.388,1.549,3.294,2.465,5.364,2.577
				l14.444,0.79c2.072,0.118,4.058-0.58,5.606-1.963c1.553-1.39,2.471-3.299,2.584-5.378c0.115-2.075-0.586-4.069-1.974-5.616
				c-1.387-1.548-3.292-2.462-5.366-2.575l-14.444-0.791C125.404,166.955,125.26,166.951,125.118,166.951z"/>
		</g>
		<g>
			<path style="fill:#FFFFFF;" d="M148.94,178.317h-6.055c-0.803,0-1.455-0.652-1.455-1.455s0.652-1.455,1.455-1.455h6.055
				c0.803,0,1.455,0.652,1.455,1.455S149.743,178.317,148.94,178.317z"/>
			<path d="M148.94,178.56h-6.055c-0.936,0-1.697-0.762-1.697-1.698c0-0.936,0.762-1.697,1.697-1.697h6.055
				c0.936,0,1.697,0.762,1.697,1.697C150.638,177.798,149.876,178.56,148.94,178.56z M142.885,175.65
				c-0.669,0-1.212,0.544-1.212,1.212c0,0.669,0.544,1.213,1.212,1.213h6.055c0.669,0,1.212-0.544,1.212-1.213
				c0-0.669-0.544-1.212-1.212-1.212H142.885z"/>
		</g>
	</g>
	<g>
		<path d="M61.865,274.623c-0.627,0.619-0.972,1.491-1.033,2.37c-0.078,1.114,0.29,2.253,1.005,3.11
			c0.715,0.857,1.77,1.424,2.88,1.546c0.915,0.101,1.913-0.126,2.535-0.804c1.597-1.741-0.075-3.758-0.938-5.327
			C65.396,273.847,63.381,273.126,61.865,274.623z"/>
		<path d="M77.57,287.128c-0.92,0.125-1.863,0.355-2.583,0.942c-0.72,0.586-1.153,1.608-0.817,2.473
			c0.24,0.618,0.805,1.039,1.343,1.427c0.645,0.465,1.328,0.945,2.118,1.04c0.939,0.113,1.894-0.37,2.468-1.122
			c0.574-0.752,0.792-1.735,0.729-2.678C80.713,287.483,79.104,286.92,77.57,287.128z"/>
	</g>
	<g>
		<path style="fill:#FFFFFF;" d="M144.921,24.495c0,0,9.918-14.767,19.836-15.428s19.836,20.497,37.688,27.77
			c17.852,7.273,26.888,10.359,27.109,24.684c0.22,14.326-28.21,48.046-30.415,56.421c-7.273-10.358-9.036-22.701-9.036-27.108
			c-0.441-3.086-13.885-6.392-17.411-11.681C169.165,73.864,162.553,35.735,144.921,24.495z"/>
		<path d="M199.139,118.185c-0.078,0-0.152-0.038-0.199-0.103c-7.448-10.609-9.08-23.266-9.08-27.248
			c-0.188-1.296-3.389-2.847-6.778-4.488c-4.076-1.974-8.696-4.212-10.593-7.058c-0.963-1.445-2.101-5.127-3.676-10.221
			c-4.183-13.534-11.184-36.183-24.023-44.367c-0.055-0.035-0.093-0.091-0.107-0.155c-0.013-0.063,0-0.13,0.036-0.185
			c0.026-0.037,2.535-3.753,6.227-7.5c3.423-3.474,8.595-7.687,13.794-8.033c5.065-0.329,10.108,4.865,15.969,10.89
			c6.047,6.216,12.903,13.262,21.827,16.897l2.064,0.839c16.632,6.753,24.981,10.142,25.195,24.065
			c0.139,9.089-11.018,25.712-19.983,39.068c-5.169,7.701-9.633,14.352-10.44,17.418c-0.025,0.092-0.099,0.16-0.192,0.177
			C199.167,118.184,199.153,118.185,199.139,118.185z M145.263,24.427c12.853,8.391,19.834,30.974,24.014,44.496
			c1.503,4.866,2.691,8.709,3.616,10.096c1.824,2.736,6.381,4.943,10.401,6.89c3.812,1.847,6.822,3.305,7.049,4.891
			c0.003,3.922,1.576,16.174,8.71,26.593c1.122-3.315,5.419-9.719,10.358-17.077c8.927-13.3,20.037-29.852,19.9-38.79
			c-0.209-13.602-8.458-16.951-24.893-23.624l-2.065-0.839c-9.018-3.673-15.91-10.758-21.991-17.008
			c-5.605-5.76-10.468-10.759-15.156-10.759c-0.145,0-0.289,0.005-0.433,0.014C155.719,9.913,146.504,22.651,145.263,24.427z"/>
	</g>
	<g>
		<g>
			<path style="fill:#FFFFFF;" d="M181.948,39.702c-8.098-16.028-23.934-12.426-30.921-9.855
				c13.13,14.898,18.579,44.676,21.665,49.305c3.526,5.289,16.971,8.595,17.411,11.681c0,0.648,0.044,1.486,0.133,2.446
				C189.973,84.69,191.85,59.301,181.948,39.702z"/>
			<path d="M190.235,93.523c-0.125,0-0.23-0.095-0.242-0.221c-0.087-0.953-0.134-1.807-0.134-2.469
				c-0.188-1.296-3.389-2.847-6.778-4.488c-4.076-1.974-8.696-4.212-10.593-7.058c-0.963-1.446-2.102-5.128-3.677-10.224
				c-3.539-11.45-8.888-28.753-17.968-39.056c-0.053-0.06-0.073-0.142-0.053-0.22c0.02-0.078,0.076-0.14,0.152-0.168
				c6.637-2.444,22.967-6.364,31.221,9.973c8.455,16.733,8.35,37.6,8.293,48.811c-0.01,1.929-0.018,3.595,0.021,4.869
				c0.004,0.131-0.097,0.241-0.227,0.25C190.245,93.523,190.24,93.523,190.235,93.523z M151.442,29.955
				c9.006,10.409,14.312,27.574,17.833,38.966c1.505,4.867,2.693,8.711,3.618,10.098c1.824,2.736,6.381,4.943,10.401,6.89
				c3.13,1.517,5.72,2.771,6.672,4.049c0.001-0.496,0.004-1.015,0.007-1.556c0.057-11.169,0.162-31.96-8.24-48.59
				C173.786,24.088,158.154,27.553,151.442,29.955z"/>
		</g>
	</g>
	<g>
		<path style="fill:#FFFFFF;" d="M64.704,110.248c0.347,1.996,0.728,4.028,0.446,6.034c-0.282,2.006-1.358,4.022-3.198,4.868
			c-2.249,1.035-5.023,0.015-6.713-1.794c-1.689-1.809-2.519-4.241-3.21-6.618c-2.857-9.824-4.138-20.23-2.561-30.338
			c0.759-4.861,2.204-9.627,4.35-14.057c1.094-2.257,2.369-4.427,3.83-6.466c0.729-1.018,3.178-5.117,4.687-4.879
			c1.343,0.212,0.176,5.66,0.082,6.939c-0.215,2.931-0.362,5.866-0.44,8.804c-0.157,5.875-0.041,11.757,0.348,17.622
			C62.765,97.028,63.559,103.668,64.704,110.248z"/>
		<path d="M59.999,121.814c-1.907,0-3.766-1.037-4.937-2.291c-1.761-1.885-2.609-4.455-3.266-6.716
			c-3.16-10.868-4.024-21.11-2.567-30.442c0.779-4.993,2.249-9.746,4.372-14.127c1.117-2.307,2.413-4.494,3.851-6.501
			c0.106-0.148,0.248-0.361,0.419-0.618c1.482-2.22,3.189-4.564,4.502-4.359c1.201,0.189,0.898,2.926,0.45,5.956
			c-0.078,0.527-0.145,0.982-0.164,1.24c-0.214,2.913-0.363,5.871-0.439,8.792c-0.156,5.839-0.04,11.76,0.347,17.599
			c0.44,6.641,1.24,13.322,2.378,19.858l0,0l0.043,0.243c0.334,1.92,0.68,3.905,0.404,5.867c-0.326,2.32-1.605,4.257-3.337,5.055
			C61.382,121.678,60.687,121.814,59.999,121.814z M62.196,57.231c-1.148,0-3.083,2.899-3.924,4.157
			c-0.174,0.262-0.32,0.48-0.428,0.631c-1.422,1.986-2.703,4.149-3.809,6.431c-2.101,4.337-3.557,9.044-4.328,13.988
			c-1.446,9.262-0.587,19.434,2.554,30.234c0.641,2.206,1.466,4.712,3.154,6.519c1.478,1.583,4.12,2.806,6.434,1.738
			c1.894-0.871,2.822-2.989,3.059-4.681c0.266-1.887-0.073-3.834-0.402-5.716l-0.042-0.243c-1.14-6.553-1.943-13.251-2.383-19.91
			c-0.388-5.854-0.505-11.791-0.349-17.645c0.078-2.929,0.226-5.895,0.441-8.815c0.02-0.275,0.085-0.716,0.168-1.275
			c0.213-1.443,0.78-5.275-0.046-5.406C62.264,57.233,62.23,57.231,62.196,57.231z"/>
	</g>
	<g>
		<path style="fill:#FFFFFF;" d="M64.415,48.184c0,0,10.421-19.31,35.249-26.053c24.827-6.743,51.034-5.824,64.98,17.471
			c10.268,17.011,9.348,28.046,11.034,37.394c1.686,9.349,8.429,17.011,20.536,18.544c-3.831,2.912-9.655,1.073-9.655,1.073
			s7.663,5.057-1.226,17.624c-8.889,12.567-11.954,13.946-16.245,24.827c-4.291,10.881-10.115,21.609-23.908,23.295
			c-13.793,1.686-28.505-5.824-38.007-9.349c-9.502-3.525-33.869-7.663-34.635-18.85c-1.839,1.992-1.533,4.291-1.533,4.291
			s-4.444-1.533-1.073-5.67c-2.605,0.46-6.437,0.46-9.655-2.146c4.751,0,8.736-9.808,5.364-20.23
			C62.269,99.984,50.009,73.931,64.415,48.184z"/>
		<path d="M141.13,162.841c-10.215,0-20.702-4.252-28.613-7.46c-1.938-0.785-3.769-1.528-5.429-2.144
			c-1.987-0.737-4.578-1.487-7.579-2.356c-10.982-3.178-25.935-7.505-27.154-16.128c-1.337,1.769-1.112,3.645-1.109,3.666
			c0.01,0.082-0.023,0.166-0.087,0.219c-0.066,0.053-0.154,0.067-0.232,0.042c-0.08-0.027-1.934-0.684-2.397-2.312
			c-0.278-0.974,0.007-2.067,0.845-3.254c-2.632,0.361-6.191,0.186-9.25-2.291c-0.08-0.064-0.111-0.172-0.076-0.269
			c0.034-0.098,0.126-0.162,0.228-0.162c1.322,0,2.605-0.801,3.708-2.318c2.373-3.261,3.831-10.158,1.425-17.594
			c-0.369-1.144-0.841-2.461-1.388-3.985c-4.435-12.379-12.689-35.423,0.181-58.427c0.152-0.28,10.81-19.493,35.397-26.171
			c21.476-5.831,50.227-7.517,65.252,17.581c8.128,13.467,9.288,23.361,10.218,31.31c0.254,2.16,0.493,4.201,0.847,6.166
			c1.849,10.258,9.259,16.945,20.327,18.346c0.098,0.012,0.178,0.082,0.204,0.178c0.026,0.095-0.008,0.196-0.087,0.256
			c-2.964,2.254-7.007,1.76-8.869,1.365c0.745,0.761,1.801,2.174,2.211,4.354c0.692,3.684-0.711,8.033-4.172,12.925
			c-2.85,4.03-5.145,6.964-6.988,9.322c-3.944,5.045-6.326,8.091-9.229,15.454c-4.411,11.186-10.385,21.77-24.104,23.447
			C143.859,162.764,142.496,162.841,141.13,162.841z M72.537,133.917c0.027,0,0.054,0.005,0.081,0.014
			c0.091,0.031,0.154,0.116,0.161,0.212c0.594,8.669,15.779,13.064,26.865,16.273c3.01,0.87,5.61,1.623,7.613,2.366
			c1.667,0.618,3.501,1.362,5.443,2.149c9.415,3.816,21.133,8.569,32.451,7.186c13.467-1.646,19.355-12.097,23.712-23.144
			c2.929-7.428,5.327-10.495,9.298-15.575c1.84-2.353,4.13-5.282,6.974-9.303c3.378-4.775,4.754-8.994,4.093-12.542
			c-0.605-3.247-2.78-4.726-2.802-4.741c-0.101-0.066-0.137-0.197-0.085-0.306c0.053-0.11,0.18-0.164,0.292-0.127
			c0.056,0.016,5.253,1.613,8.929-0.685c-10.949-1.599-18.267-8.37-20.122-18.657c-0.357-1.979-0.597-4.027-0.851-6.195
			c-0.925-7.903-2.077-17.738-10.153-31.117c-14.868-24.837-43.396-23.15-64.709-17.362C75.292,29.001,64.732,48.107,64.628,48.3
			c0,0.001-0.001,0.002-0.002,0.003c-12.764,22.814-4.557,45.722-0.148,58.029c0.548,1.528,1.02,2.847,1.393,3.999
			c2.471,7.639,1.03,14.56-1.495,18.029c-1.023,1.407-2.207,2.247-3.455,2.462c3.046,2.179,6.525,2.148,8.968,1.72
			c0.093-0.021,0.199,0.028,0.251,0.116c0.051,0.088,0.043,0.198-0.022,0.277c-1.014,1.245-1.392,2.355-1.125,3.298
			c0.282,0.996,1.231,1.585,1.748,1.84c-0.004-0.775,0.17-2.509,1.617-4.077C72.405,133.945,72.47,133.917,72.537,133.917z
			 M64.415,48.184h0.006H64.415z"/>
	</g>
	<g>
		<path d="M152.943,95.49c0,0-6.09-6.367-7.612-18.962c-0.969-8.581,0.969-15.64,8.581-17.578
			c7.612-1.938,14.948,4.706,17.716,13.287C174.396,80.819,175.503,93.552,152.943,95.49z"/>
		<g>
			<path d="M162.463,61.112c0,0,3.964-2.476,5.38-5.591c0.319,3.917-3.476,6.936-3.476,6.936L162.463,61.112z"/>
			<path d="M165.968,64.353c0,0,3.741-1.285,5.504-3.584c-0.484,3.291-4.191,5.056-4.191,5.056L165.968,64.353z"/>
		</g>
	</g>
	<g>
		<path d="M113.02,105.893c0,0-15.044,9.938-29.122,3.727c-8.557-19.461-1.242-30.916,5.659-33.263
			c6.901-2.346,17.667,2.208,20.979,11.732C113.848,97.612,113.02,105.893,113.02,105.893z"/>
		<g>
			<path d="M81.358,88.187c0,0-4.575,0.953-7.752-0.318c2.478,3.05,7.307,2.605,7.307,2.605L81.358,88.187z"/>
			<path d="M81.068,92.952c0,0-3.591,1.66-6.454,1.218c2.626,2.042,6.524,0.753,6.524,0.753L81.068,92.952z"/>
		</g>
	</g>
	<g>
		<path style="fill:#FFFFFF;" d="M53.019,37.906c-5.494-0.186-11.012,2.426-14.35,6.794c-4.421,5.785-4.763,13.6-7.056,20.511
			C27.525,77.539,17.362,86.663,9.347,96.882c-2.503,3.191-4.892,6.71-5.395,10.734c-0.886,7.102,4.321,13.562,10.107,17.774
			c7.683,5.592,16.753,8.872,25.42,12.769c8.667,3.897,17.32,8.715,22.926,16.388c4.25-10.395,2.992-22.237,0.131-33.097
			c-2.861-10.86-7.249-21.33-9.184-32.392c-1.131-6.464-1.331-13.444,1.736-19.246c2.273-4.299,6.116-7.53,8.984-11.458
			C71.267,48.502,64.837,38.306,53.019,37.906z"/>
		<path d="M62.405,154.79c-0.077,0-0.15-0.037-0.196-0.1c-5.794-7.931-14.792-12.695-22.829-16.31
			c-1.85-0.832-3.751-1.649-5.59-2.44c-6.789-2.92-13.81-5.941-19.874-10.354c-3.432-2.499-11.296-9.255-10.204-18.001
			c0.51-4.088,2.918-7.633,5.444-10.854c2.08-2.652,4.341-5.273,6.528-7.807c6.237-7.228,12.685-14.702,15.699-23.79
			c0.734-2.214,1.278-4.563,1.803-6.835c1.112-4.809,2.261-9.782,5.291-13.747c3.392-4.439,8.955-7.1,14.551-6.889l0,0
			c6.095,0.207,11.029,2.991,13.199,7.447c1.986,4.082,1.272,8.961-1.96,13.388c-1.119,1.532-2.4,2.976-3.64,4.374
			c-1.94,2.186-3.946,4.447-5.325,7.054c-2.553,4.829-3.113,11.075-1.712,19.09c1.188,6.791,3.342,13.48,5.424,19.948
			c1.305,4.051,2.654,8.242,3.757,12.425c3.547,13.465,3.5,24.341-0.142,33.25c-0.033,0.081-0.108,0.138-0.195,0.149
			C62.425,154.789,62.414,154.79,62.405,154.79z M52.462,38.139c-5.243,0-10.413,2.537-13.601,6.708
			c-2.966,3.882-4.104,8.803-5.203,13.562c-0.528,2.283-1.073,4.644-1.815,6.879c-3.045,9.178-9.525,16.69-15.792,23.953
			c-2.183,2.53-4.44,5.146-6.514,7.79c-2.483,3.166-4.848,6.643-5.344,10.615c-1.06,8.489,6.646,15.1,10.009,17.548
			c6.019,4.381,13.015,7.39,19.779,10.3c1.841,0.792,3.744,1.611,5.597,2.445c7.976,3.586,16.896,8.303,22.763,16.116
			c3.44-8.734,3.426-19.385-0.04-32.542c-1.099-4.17-2.446-8.354-3.748-12.4c-2.088-6.484-4.247-13.189-5.44-20.013
			c-1.421-8.126-0.845-14.472,1.761-19.401c1.405-2.658,3.431-4.941,5.39-7.149c1.232-1.389,2.507-2.825,3.611-4.338
			c3.123-4.277,3.821-8.974,1.915-12.889c-2.09-4.293-6.867-6.975-12.779-7.174l0,0C52.828,38.142,52.645,38.139,52.462,38.139z"/>
	</g>
	<g>
		<path style="fill:#FFFFFF;" d="M143.785,144.064c0,0,8.705,4.905,13.61-6.77c-2.003-0.345-4.629-0.76-7.323-3.938
			C150.348,137.915,148.413,141.577,143.785,144.064z"/>
		<path d="M148.022,145.334c-2.442,0-4.256-1.001-4.357-1.058c-0.077-0.044-0.124-0.125-0.123-0.214
			c0.001-0.088,0.05-0.169,0.128-0.211c4.367-2.346,6.44-5.872,6.159-10.48c-0.006-0.104,0.055-0.2,0.152-0.24
			c0.098-0.037,0.208-0.01,0.275,0.068c2.602,3.069,5.095,3.498,7.1,3.842l0.079,0.014c0.073,0.012,0.136,0.058,0.171,0.122
			c0.036,0.064,0.04,0.142,0.011,0.21c-1.677,3.992-3.978,6.513-6.838,7.493C149.815,145.21,148.88,145.334,148.022,145.334z
			 M144.312,144.049c0.97,0.425,3.543,1.321,6.316,0.369c2.655-0.912,4.815-3.245,6.423-6.939c-1.837-0.319-4.252-0.821-6.712-3.459
			C150.392,138.357,148.368,141.727,144.312,144.049z"/>
	</g>
	<g>
		<path style="fill:#FFFFFF;" d="M77.818,68.783c0,0,8.309-11.025,14.78-11.105s7.59-2.477,6.072-4.554
			c-1.518-2.077-5.592-4.554-12.863,1.678C78.537,61.033,77.818,68.783,77.818,68.783z"/>
		<path d="M77.818,69.025c-0.029,0-0.059-0.006-0.087-0.016c-0.101-0.04-0.164-0.141-0.154-0.249
			c0.008-0.078,0.812-7.919,8.073-14.142c3.44-2.948,6.534-4.289,9.193-3.978c2.2,0.255,3.465,1.576,4.024,2.341
			c0.677,0.926,0.83,1.879,0.429,2.679c-0.5,0.999-2.067,2.203-6.694,2.26c-6.278,0.078-14.507,10.899-14.59,11.008
			C77.965,68.991,77.893,69.025,77.818,69.025z M94.078,51.082c-2.363,0-5.088,1.31-8.113,3.904
			c-5.664,4.855-7.316,10.691-7.758,12.906c2.019-2.51,8.792-10.387,14.388-10.457c4.614-0.057,5.906-1.272,6.266-1.992
			c0.405-0.808,0.012-1.629-0.387-2.176c-0.512-0.701-1.672-1.912-3.688-2.146C94.554,51.095,94.318,51.082,94.078,51.082z"/>
	</g>
	<g>
		<path style="fill:#FFFFFF;" d="M149.416,42.515c0,0,4.951-1.528,9.229-0.428c4.278,1.1,4.339-1.222-0.978-3.912
			c-5.317-2.689-10.879-3.912-12.346-0.733C143.854,40.621,145.749,43.432,149.416,42.515z"/>
		<path d="M148.075,42.933c-1.145,0-2.109-0.403-2.745-1.172c-0.913-1.102-0.998-2.754-0.229-4.421
			c0.385-0.835,1.05-1.422,1.973-1.744c2.27-0.79,6.171,0.071,10.703,2.364c2.942,1.488,4.543,3.018,4.176,3.992
			c-0.273,0.728-1.471,0.857-3.369,0.37c-4.16-1.069-9.048,0.41-9.098,0.425c-0.004,0.001-0.008,0.002-0.012,0.003
			C148.987,42.873,148.518,42.933,148.075,42.933z M149.416,42.516h0.006H149.416z M149.024,35.79c-0.679,0-1.28,0.088-1.789,0.265
			c-0.796,0.277-1.365,0.778-1.694,1.488c-0.689,1.494-0.628,2.954,0.163,3.909c0.759,0.915,2.088,1.217,3.647,0.829
			c0.284-0.086,5.094-1.524,9.355-0.429c1.747,0.45,2.661,0.287,2.795-0.072c0.17-0.453-0.749-1.773-3.943-3.388
			C154.192,36.69,151.205,35.79,149.024,35.79z"/>
	</g>
	<g>
		<path style="fill:#FFFFFF;" d="M112.14,106.202c0,0-14.239,9.405-27.563,3.527c-8.099-18.419-1.176-29.261,5.356-31.482
			c6.532-2.221,16.721,2.09,19.856,11.104C112.923,98.364,112.14,106.202,112.14,106.202z"/>
		<path d="M93.988,111.888c-3.092,0-6.331-0.534-9.509-1.937c-0.056-0.025-0.1-0.068-0.124-0.124
			c-4.085-9.288-4.786-17.92-1.978-24.307c1.63-3.706,4.355-6.44,7.478-7.502c6.71-2.284,16.99,2.132,20.162,11.254
			c3.117,8.96,2.372,16.877,2.364,16.955c-0.008,0.073-0.047,0.138-0.108,0.179C112.165,106.477,103.824,111.888,93.988,111.888z
			 M84.76,109.545c12.451,5.429,25.87-2.678,27.149-3.483c0.078-1.003,0.526-8.365-2.35-16.632
			c-3.082-8.863-13.035-13.166-19.549-10.954c-2.993,1.018-5.614,3.657-7.19,7.24C80.076,91.955,80.766,100.416,84.76,109.545z
			 M112.14,106.202h0.006H112.14z"/>
	</g>
	<g>
		<path style="fill:#FFFFFF;" d="M153.288,95.49c0,0-5.748-6.009-7.185-17.896c-0.914-8.099,0.914-14.761,8.099-16.59
			c7.185-1.829,14.108,4.441,16.721,12.541C173.536,81.643,174.581,93.661,153.288,95.49z"/>
		<path d="M153.288,95.733c-0.066,0-0.129-0.027-0.175-0.075c-0.058-0.061-5.82-6.205-7.25-18.035
			c-1.075-9.512,1.711-15.183,8.28-16.855c5.78-1.475,13.713,2.478,17.011,12.701c2.029,6.29,1.831,11.129-0.605,14.794
			c-2.799,4.214-8.6,6.727-17.24,7.468C153.302,95.733,153.295,95.733,153.288,95.733z M156.583,60.954
			c-0.8,0-1.578,0.096-2.32,0.284c-6.296,1.603-8.961,7.097-7.918,16.328c1.319,10.913,6.357,16.903,7.042,17.672
			c8.419-0.742,14.057-3.178,16.759-7.243c2.348-3.534,2.527-8.237,0.547-14.377C167.913,65,161.792,60.954,156.583,60.954z"/>
	</g>
	<g>
		<path style="fill:#FFFFFF;" d="M92.911,29.132c0,0-6.946-10.661-0.646-20.191c-0.485,6.3,1.777,11.63,1.777,11.63
			s4.523-13.245,15.668-15.183c-7.269,7.269-5.169,13.083-5.169,13.083s4.684-12.922,19.383-7.753
			c-7.269,0.161-12.76,7.43-13.407,9.853c7.592-7.43,14.86-4.684,19.706-0.323c-6.784-0.646-15.022,3.392-16.799,6.784"/>
		<path d="M92.91,29.374c-0.079,0-0.156-0.039-0.203-0.11c-0.071-0.108-6.96-10.905-0.646-20.457
			c0.062-0.093,0.18-0.134,0.281-0.096c0.104,0.036,0.172,0.137,0.163,0.248c-0.382,4.973,0.983,9.385,1.536,10.931
			c1.061-2.631,5.843-13.041,15.625-14.742c0.106-0.024,0.208,0.033,0.257,0.127c0.049,0.094,0.031,0.208-0.044,0.283
			c-5.653,5.654-5.55,10.426-5.269,12.146c1.256-2.628,6.64-11.703,19.392-7.215c0.111,0.039,0.177,0.151,0.159,0.266
			c-0.019,0.116-0.118,0.202-0.234,0.205c-6.2,0.137-11.254,5.724-12.773,8.682c8.183-7.283,15.518-2.914,19.228,0.426
			c0.078,0.07,0.102,0.182,0.06,0.278c-0.043,0.096-0.149,0.155-0.244,0.144c-4.927-0.46-14.293,2.326-16.561,6.655
			c-0.062,0.118-0.208,0.166-0.328,0.102c-0.118-0.063-0.164-0.209-0.102-0.328c1.811-3.456,9.663-7.279,16.308-6.963
			c-3.86-3.245-10.992-6.884-18.831,0.789c-0.079,0.077-0.198,0.092-0.292,0.036c-0.095-0.055-0.14-0.167-0.112-0.272
			c0.574-2.154,5.461-9.044,12.399-9.94c-5.489-1.639-10.125-0.881-13.788,2.258c-2.933,2.511-4.113,5.695-4.124,5.726
			c-0.035,0.097-0.126,0.16-0.228,0.16l0,0c-0.102,0-0.193-0.064-0.228-0.16c-0.085-0.237-1.966-5.748,4.678-12.775
			c-5.261,1.197-8.917,5.002-11.089,8.057c-2.478,3.485-3.62,6.781-3.631,6.814c-0.032,0.095-0.12,0.16-0.221,0.164
			c-0.104,0-0.192-0.056-0.232-0.148c-0.022-0.051-2.054-4.92-1.848-10.789c-5.26,9.079,1.077,19.02,1.144,19.122
			c0.073,0.113,0.041,0.262-0.071,0.335C93.002,29.362,92.956,29.374,92.91,29.374z"/>
	</g>
	<g>
		<path d="M175.966,112.288c-0.117-0.218-0.263-0.441-0.442-0.614c-0.176-0.17-0.424-0.286-0.645-0.383
			c-0.43-0.187-0.933-0.221-1.396-0.186c-1.066,0.082-2.044,0.675-2.627,1.57c-0.066,0.102-0.19,0.341-0.035,0.423
			c0.151,0.079,0.376-0.124,0.457-0.224c0.032-0.039,0.064-0.078,0.099-0.115c0.014-0.015,0.013-0.015,0.019-0.022
			c0.005-0.004,0.008-0.006,0.029-0.023c0.009-0.008,0.062-0.052,0.069-0.06c0.025-0.019,0.051-0.037,0.077-0.054
			c0.02-0.013,0.04-0.026,0.061-0.039c-0.033,0.02-0.035,0.024-0.006,0.011c0.034-0.012,0.068-0.024,0.102-0.035
			c0.089-0.029,0.175-0.063,0.263-0.093c0.023-0.008,0.025-0.009,0.032-0.012c0.008-0.001,0.009-0.001,0.031-0.007
			c0.046-0.011,0.093-0.021,0.14-0.03c0.087-0.016,0.174-0.027,0.262-0.034c0.088-0.007,0.148-0.008,0.208-0.008
			c-0.051,7.42-0.531,16.183-6.626,21.322c-2.797,2.358-6.62,3.59-10.232,2.661c-2.92-0.751-5.405-2.871-6.574-5.646
			c-0.154-0.552-0.329-1.098-0.537-1.633c-0.063-0.163-0.415,0.188-0.372,0.335c0.677,2.295,0.904,4.666,0.808,7.042
			c-0.235,1.218-0.595,2.369-1.387,3.49c-1.284,1.819-3.228,3.069-5.258,3.911c-3.722,1.542-7.909,2.065-11.915,1.928
			c-7.878-0.27-15.673-3.077-21.808-8.251c-1.897-1.6-3.655-3.194-5.239-3.643c0.129-0.025,0.258-0.049,0.386-0.075
			c0.256-0.052,0.478-0.273,0.597-0.496c0.063-0.118,0.203-0.473-0.039-0.505c-1.331-0.176-2.814,0.293-3.815,1.193
			c-0.921,0.829-1.66,2.1-1.279,3.366c0.085,0.283,0.615-0.285,0.602-0.467c-0.033-0.489,0.07-0.935,0.295-1.368
			c0.098-0.189,0.19-0.321,0.322-0.469c0.007-0.008,0.061-0.064,0.081-0.086c0.025-0.023,0.073-0.067,0.08-0.073
			c0.044-0.039,0.09-0.077,0.137-0.113c0.014-0.01,0.051-0.037,0.069-0.049c0.087-0.06,0.185-0.098,0.277-0.149
			c1.898,0.671,4.713,2.485,4.713,2.485c1.636,1.315,3.101,2.799,4.817,4.021c3.205,2.282,6.837,4.005,10.629,5.052
			c3.805,1.051,7.797,1.455,11.736,1.174c4.036-0.288,8.316-1.198,11.763-3.407c1.846-1.183,3.433-2.756,4.503-4.679
			c0.733-1.316,1.46-3.128,1.268-4.729c1.323,1.499,3.155,2.562,5.164,2.989c3.59,0.762,7.36-0.674,10.141-2.914
			c6.557-5.282,7.331-14.243,7.374-22.094c0.039,0.012,0.081,0.016,0.119,0.029c0.094,0.033,0.184,0.072,0.274,0.113
			c0.038,0.017,0.076,0.034,0.114,0.052c0.006,0.004,0.077,0.041,0.083,0.045c0.321,0.185,0.643,0.435,0.879,0.722
			c0.082,0.1,0.299,0.058,0.392,0.02c0.154-0.063,0.285-0.162,0.402-0.279C175.789,112.997,176.118,112.57,175.966,112.288z"/>
		<path d="M116.221,73.413c-1.509-4.542-3.367-8.924-5.59-13.162c-0.089-0.17-0.462,0.206-0.394,0.354
			c3.227,7.085,5.774,14.5,7.444,22.107c1.724,7.851,2.934,16.371,0.847,24.271c-1.074,4.065-3.061,7.903-6.048,10.891
			c-0.373,0.373-0.367,1.147,0.216,0.599c5.432-5.102,7.687-12.524,7.875-19.816C120.791,90.191,118.88,81.415,116.221,73.413z"/>
		<path d="M150.286,91.378c-1.831-3.51-3.812-6.88-5.341-10.546c-1.501-3.597-2.735-7.329-3.582-11.135
			c-1.695-7.621-1.348-16.52,4.893-22.072c0.188-0.167,0.212-0.512-0.086-0.272c-6.121,4.935-7.295,13.276-6.141,20.626
			c0.69,4.4,2.016,8.725,3.647,12.863c1.533,3.888,3.348,7.936,5.833,11.32C149.712,92.438,150.434,91.66,150.286,91.378z"/>
	</g>
	<path d="M162.626,55.461c-3.044-2.848-8.057-2.567-11.485-0.623c-3.474,1.97-5.849,5.718-6.3,9.658
		c-0.03,0.261,0.432-0.126,0.461-0.262c0.762-3.565,2.806-6.989,6.164-8.638c3.401-1.671,7.222-1.118,10.414,0.723
		C162.213,56.511,162.92,55.736,162.626,55.461z"/>
	<path d="M91.926,72.189c-4.793,0.68-9.22,3.988-10.67,8.676c-0.074,0.24,0.276-0.044,0.318-0.149
		c1.91-4.824,6.801-8.399,12.07-8.218c2.361,0.081,4.677,0.832,6.729,1.984c2.103,1.179,3.642,2.824,5.219,4.608
		c0.103,0.116,0.431-0.252,0.366-0.372C103.344,73.891,97.196,71.442,91.926,72.189z"/>
	<path d="M77.851,125.818c0.012,1.336,0.543,2.637,1.353,3.699c0.901,1.181,2.198,2.109,3.665,2.343
		c1.467,0.234,3.09-0.316,3.938-1.536c0.664-0.955,0.8-2.205,0.586-3.349c-0.213-1.144-0.744-2.203-1.323-3.212
		c-0.675-1.176-1.776-2.687-3.304-2.637c-1.531,0.05-3.243,0.688-4.118,1.983C78.113,123.901,77.843,124.867,77.851,125.818z"/>
	<g>
		<defs>
			<path id="SVGID_1_" d="M112.14,106.202c0,0-14.239,9.405-27.563,3.527c-8.099-18.419-1.176-29.261,5.356-31.482
				c6.532-2.221,16.721,2.09,19.856,11.104C112.923,98.364,112.14,106.202,112.14,106.202z"/>
		</defs>
		<clipPath id="SVGID_00000036945271620315817450000009996812285745241266_">
			<use xlink:href="#SVGID_1_"  style="overflow:visible;"/>
		</clipPath>
		<g style="clip-path:url(#SVGID_00000036945271620315817450000009996812285745241266_);">
			<g>
				<path style="fill:#FFFFFF;" d="M113.695,95.329c1.185,7.32-3.891,14.01-11.336,14.943c-7.445,0.933-14.441-4.244-15.626-11.563
					c-1.185-7.319,3.891-14.01,11.336-14.943C105.514,82.833,112.51,88.01,113.695,95.329z"/>
				<path d="M100.628,110.633c-6.883,0-13.034-5.024-14.144-11.883c-0.579-3.579,0.284-7.128,2.431-9.995
					c2.183-2.914,5.423-4.776,9.123-5.239c7.575-0.951,14.703,4.334,15.907,11.774c0.578,3.58-0.285,7.13-2.432,9.996
					c-2.183,2.914-5.422,4.775-9.122,5.238C101.799,110.597,101.21,110.633,100.628,110.633z M99.802,83.91
					c-0.563,0-1.131,0.036-1.701,0.107c-3.563,0.447-6.682,2.237-8.781,5.041c-2.064,2.756-2.894,6.17-2.336,9.611
					c1.161,7.175,8.051,12.263,15.344,11.353c3.563-0.447,6.681-2.236,8.78-5.04c2.064-2.756,2.894-6.17,2.337-9.612l0,0
					C112.375,88.756,106.441,83.91,99.802,83.91z"/>
			</g>
			<path d="M110.847,95.686c0.934,5.773-3.069,11.051-8.941,11.787s-11.391-3.347-12.325-9.121
				c-0.934-5.774,3.069-11.051,8.942-11.787C104.395,85.829,109.913,89.913,110.847,95.686z"/>
			<g>
				<path style="fill:#FFFFFF;" d="M99.193,93.07c-1.344,2.459-4.461,3.594-6.963,2.535c-2.501-1.059-3.439-3.911-2.095-6.369
					c1.344-2.459,4.461-3.594,6.963-2.535C99.599,87.759,100.537,90.611,99.193,93.07z"/>
				<path style="fill:#FFFFFF;" d="M109.823,92.632c-0.563,1.03-1.868,1.505-2.916,1.062c-1.048-0.443-1.44-1.638-0.878-2.668
					c0.563-1.03,1.869-1.505,2.916-1.062C109.993,90.408,110.386,91.602,109.823,92.632z"/>
			</g>
		</g>
	</g>
	<g>
		<defs>
			<path id="SVGID_00000085216908621893394080000013455585856620668290_" d="M153.288,95.49c0,0-5.748-6.009-7.185-17.896
				c-0.914-8.099,0.914-14.761,8.099-16.59c7.185-1.829,14.108,4.441,16.721,12.541C173.536,81.643,174.581,93.661,153.288,95.49z"
				/>
		</defs>
		<clipPath id="SVGID_00000038396184575968131580000011779646519608215216_">
			<use xlink:href="#SVGID_00000085216908621893394080000013455585856620668290_"  style="overflow:visible;"/>
		</clipPath>
		<g style="clip-path:url(#SVGID_00000038396184575968131580000011779646519608215216_);">
			<g>
				<path style="fill:#FFFFFF;" d="M168.998,79.133c1.185,7.32-3.891,14.01-11.336,14.943c-7.445,0.933-14.441-4.244-15.626-11.563
					c-1.185-7.32,3.891-14.01,11.336-14.943C160.818,66.637,167.813,71.814,168.998,79.133z"/>
				<path d="M155.931,94.437c-6.883,0-13.034-5.024-14.144-11.883c-0.579-3.578,0.284-7.129,2.431-9.995
					c2.183-2.914,5.423-4.776,9.123-5.239c7.575-0.951,14.703,4.334,15.907,11.774c0.578,3.58-0.285,7.13-2.432,9.996
					c-2.183,2.914-5.422,4.775-9.122,5.238C157.103,94.401,156.513,94.437,155.931,94.437z M155.106,67.714
					c-0.563,0-1.131,0.035-1.701,0.107c-3.563,0.447-6.682,2.237-8.781,5.041c-2.064,2.756-2.893,6.17-2.336,9.611
					c1.161,7.175,8.051,12.263,15.343,11.353c3.563-0.447,6.681-2.236,8.78-5.04c2.064-2.756,2.893-6.17,2.337-9.612l0,0
					C167.678,72.56,161.745,67.714,155.106,67.714z"/>
			</g>
			<path d="M166.151,79.49c0.934,5.774-3.069,11.051-8.941,11.787c-5.873,0.736-11.391-3.347-12.325-9.121
				c-0.934-5.774,3.069-11.051,8.942-11.787C159.698,69.633,165.216,73.717,166.151,79.49z"/>
			<g>
				<path style="fill:#FFFFFF;" d="M154.496,76.874c-1.344,2.459-4.461,3.594-6.962,2.535c-2.501-1.059-3.439-3.911-2.095-6.369
					c1.344-2.459,4.461-3.594,6.962-2.535C154.902,71.563,155.84,74.415,154.496,76.874z"/>
				<path style="fill:#FFFFFF;" d="M165.127,76.436c-0.563,1.03-1.868,1.505-2.916,1.062c-1.048-0.443-1.44-1.638-0.878-2.668
					c0.563-1.03,1.869-1.505,2.916-1.062C165.297,74.212,165.69,75.406,165.127,76.436z"/>
			</g>
		</g>
	</g>
	<g>
		<g>
			<path style="fill:#FFFFFF;" d="M125.033,120.331c1.832,2.761,4.9,5.08,7.818,6.519c3.167,1.562,7.031,3.023,10.5,3.922
				c8.642,2.239,13.993-3.494,17.456-8.362c2.447-3.439,4.648-8.635,3.635-12.716c-0.969-3.905-4.426-6.742-8.683-7.368
				c-7.653-1.125-13.952,1.059-20.751,3.902c-3.461,1.447-7.447,3.932-9.692,6.927C123.333,115.8,123.635,118.225,125.033,120.331z"
				/>
			<path d="M147.078,131.509c-1.189,0-2.45-0.156-3.788-0.503c-3.428-0.889-7.272-2.325-10.547-3.939
				c-3.336-1.645-6.22-4.052-7.912-6.602l0,0c-1.651-2.488-1.553-4.996,0.291-7.456c1.99-2.654,5.65-5.273,9.792-7.005
				c6.516-2.725,13.016-5.076,20.88-3.919c4.42,0.65,7.907,3.614,8.883,7.55c1.053,4.243-1.319,9.609-3.672,12.915
				C158.149,126.564,153.755,131.509,147.078,131.509z M125.234,120.196c1.647,2.482,4.462,4.827,7.723,6.436
				c3.247,1.602,7.057,3.025,10.454,3.905c8.561,2.22,13.916-3.656,17.198-8.267c2.292-3.223,4.61-8.434,3.598-12.517
				c-0.929-3.745-4.26-6.567-8.484-7.188c-7.741-1.137-14.173,1.189-20.622,3.887c-4.066,1.7-7.651,4.261-9.591,6.85
				C123.802,115.578,123.71,117.898,125.234,120.196z"/>
		</g>
		<g>
			<path style="fill:#FFFFFF;" d="M164.29,114.975c-2.124-0.44-4.675,0.395-6.384,1.471c-0.895,0.563-1.767,1.297-2.148,2.251
				c-0.354,0.884-0.378,1.908-0.019,2.783c0.344,0.838,1.08,1.506,2.039,1.725c0.8,0.183,1.671-0.039,2.417-0.33
				c0.143-0.056,0.271-0.13,0.411-0.19c0.066-0.091,0.136-0.184,0.201-0.275C162.269,120.354,163.637,117.672,164.29,114.975z"/>
			<path d="M158.392,123.513c-0.234,0-0.457-0.024-0.668-0.072c-0.997-0.228-1.823-0.927-2.21-1.871
				c-0.375-0.914-0.368-1.995,0.018-2.964c0.344-0.858,1.078-1.632,2.246-2.366c1.577-0.994,4.24-1.982,6.562-1.503
				c0.064,0.013,0.12,0.052,0.155,0.108c0.035,0.056,0.046,0.123,0.031,0.187c-0.6,2.473-1.883,5.214-3.522,7.518l-0.203,0.278
				c-0.026,0.035-0.06,0.063-0.099,0.079c-0.055,0.024-0.109,0.05-0.163,0.077c-0.084,0.042-0.168,0.082-0.257,0.117
				C159.573,123.377,158.949,123.513,158.392,123.513z M163.056,115.096c-1.857,0-3.785,0.777-5.02,1.555
				c-1.077,0.677-1.749,1.375-2.053,2.135c-0.341,0.854-0.349,1.801-0.02,2.6c0.327,0.798,1.026,1.389,1.869,1.581
				c0.617,0.142,1.36,0.036,2.274-0.319c0.076-0.029,0.148-0.064,0.219-0.099c0.041-0.02,0.081-0.04,0.123-0.06l0.16-0.22
				c1.55-2.18,2.774-4.753,3.384-7.103C163.685,115.119,163.372,115.096,163.056,115.096z"/>
		</g>
		<g>
			<path style="fill:#FFFFFF;" d="M142.119,122.454c-0.703-1.083-2.043-1.782-3.367-2.026c-2.474-0.455-5.187,0.352-7.198,1.729
				c-0.967,0.662-1.75,1.507-2.336,2.451c1.171,0.877,2.412,1.64,3.632,2.242c1.034,0.51,2.146,1.007,3.291,1.479
				c1.789-0.892,3.72-1.659,5.239-2.911C142.376,124.597,142.85,123.58,142.119,122.454z"/>
			<path d="M136.142,128.571c-0.031,0-0.063-0.006-0.093-0.018c-1.18-0.487-2.292-0.986-3.306-1.485
				c-1.238-0.611-2.507-1.394-3.67-2.265c-0.101-0.076-0.127-0.215-0.062-0.322c0.628-1.013,1.438-1.862,2.406-2.524
				c2.252-1.542,5.009-2.203,7.378-1.768c1.523,0.28,2.842,1.077,3.527,2.132l0,0c0.718,1.106,0.439,2.272-0.788,3.283
				c-1.209,0.996-2.677,1.694-4.098,2.368c-0.398,0.189-0.796,0.378-1.187,0.572C136.216,128.562,136.179,128.571,136.142,128.571z
				 M129.544,124.549c1.089,0.799,2.265,1.518,3.413,2.083c0.975,0.48,2.043,0.962,3.175,1.43c0.362-0.179,0.729-0.353,1.097-0.528
				c1.393-0.661,2.834-1.345,3.996-2.305c1.041-0.857,1.273-1.747,0.69-2.645l0,0c-0.613-0.944-1.812-1.661-3.206-1.918
				c-2.245-0.413-4.868,0.219-7.017,1.69C130.84,122.939,130.118,123.675,129.544,124.549z"/>
		</g>
	</g>
</g>

    <text x="10" y="832" font-size="12" fill="gray" opacity="0.6" font-family="Arial, sans-serif">
      twoja-kolorowanka.pl
    </text>
  
</svg>
