<?xml version="1.0" encoding="utf-8"?>
<!-- Generator: Adobe Illustrator 27.5.0, SVG Export Plug-In . SVG Version: 6.00 Build 0)  -->
<svg xmlns="http://www.w3.org/2000/svg" xmlns:xlink="http://www.w3.org/1999/xlink" viewBox="0 0 4898.979 4898.979" width="595" height="842" preserveAspectRatio="xMidYMid meet" data-scaled="true">
<g>
	<rect x="24.495" y="24.495" style="fill:#FFFFFF;" width="4850.063" height="4850.063"/>
	<g>
		<g>
			<path style="fill:#070708;" d="M4569.829,601.767c0.663,5.233-0.956,10.498-4.443,14.455c-3.488,3.957-8.508,6.224-13.782,6.224
				h-970.397c-10.146,0-18.371-8.225-18.371-18.371c0-131.418,95.39-238.335,212.644-238.335c13.467,0,26.821,1.402,39.906,4.18
				c18.419-94.299,93.267-163.011,181.374-163.011c55.783,0,108.181,27.924,143.279,75.542
				c31.701-17.495,66.733-26.669,102.31-26.669c115.525,0,214.007,97.517,229.454,224.434
				C4522.933,494.679,4562.342,542.676,4569.829,601.767z M3600.302,585.704h928.629c-11.745-38.199-41.311-66.769-76.923-72.267
				l-14.454-2.231l-1.064-14.589c-8.354-114.443-93.632-204.093-194.141-204.093c-34.285,0-68.037,10.382-97.621,30.021
				l-15.914,10.567l-9.939-16.314c-27.898-45.802-73.551-73.147-122.115-73.147c-75.668,0-139.279,65.023-147.957,151.245
				l-2.302,22.872l-21.804-7.287c-15.878-5.307-32.437-7.999-49.217-7.999C3683.892,402.482,3608.428,483.125,3600.302,585.704z"/>
		</g>
		<g>
			<path style="fill:#070708;" d="M2413.052,736.301c0.736,5.266-0.844,10.592-4.333,14.603c-3.489,4.011-8.545,6.314-13.861,6.314
				h-658.953c-10.146,0-18.371-8.225-18.371-18.371c0-84.671,67.424-153.557,150.301-153.557c7.672,0,15.309,0.595,22.853,1.773
				c15.346-57.876,67.021-99.387,127.405-99.387c37.95,0,73.772,16.655,98.667,45.243c21.257-9.977,44.499-15.195,68.082-15.195
				c79.767,0,148.007,60.107,160.927,139.177C2380.944,667.583,2407.765,698.504,2413.052,736.301z M1755.678,720.475h614.059
				c-8.838-16.138-24.671-27.709-43.168-30.296l-14.589-2.042l-1.178-14.681c-5.361-66.724-60.69-118.991-125.961-118.991
				c-22.417,0-44.442,6.121-63.689,17.701l-14.957,8.997l-9.751-14.478c-17.824-26.469-47.115-42.268-78.353-42.268
				c-48.422,0-89.111,37.31-94.643,86.784l-2.449,21.906l-21.107-6.357c-10.393-3.13-21.179-4.718-32.059-4.718
				C1811.294,622.032,1764.272,664.763,1755.678,720.475z"/>
		</g>
		<g>
			<path style="fill:#070708;" d="M4874.484,3187.77c0.026-4.795,0.074-16.848,0-18.449h-423.281
				c-5.229-13.062-10.76-25.513-16.665-37.166c-75.872-149.718-207.674-240.439-402.683-277.035
				c-8.415-423.411-55.706-830.087-163.01-1142.809c-0.359-50.991-68.532-92.289-202.63-122.75
				c-34.885-7.924-103.734-20.71-160.121-29.476c-13.876-20.332-35.265-34.097-59.152-37.847
				c-15.38-97.422-45.66-289.224-48.268-305.764l-0.185-1.162c-10.935-69.378-79.177-132.783-152.13-141.342
				c-47.853-5.595-97.165,9.164-135.326,40.523c-35.311,29.019-56.6,68.449-59.947,111.026v0.015
				c-0.344,4.153-17.41,204.784-26.085,306.727c-23.263,1.223-44.571,11.763-59.91,28.755
				c-79.35,8.099-152.227,19.889-214.618,34.988c-133.657,32.344-201.241,74.597-200.883,125.588
				c0.033,4.675,0.648,9.267,1.82,13.778c-25.678,314.701-29.989,605.208-52.548,914.972
				c-7.11,97.618-14.445,197.356-22.304,298.001c-10.197-22.07-32.158-36.291-57.036-36.116l-0.216,0.001l-22.016,0.231
				l-27.478-211.421c-8.368-64.4-63.649-112.616-128.589-112.16l-3.091,0.021l-56.008-632.12
				c-4.967-56.014-53.49-99.444-110.419-99.169l-80.622,0.565c-37.606,0.267-71.29,19.054-91.092,48.83
				c-110.543-75.401-1286.512-877.123-1323.91-885.564c-13.066-2.946-25.818-3.082-38.228-0.793
				c0.003-0.009,0.003-0.017,0.005-0.026c-0.004,0.011-0.051,0.026-0.064,0.037c-1.826,0.339-3.648,0.706-5.459,1.15
				c-6.103,0.971-15.23,2.139-16.413,2.421c-22.534,5.381-41.362,17.852-56.73,35.06c-19.644,21.988-18.94,54.835-9.167,84.133
				c-11.211,14.368-23.656,34.246-36.35,65.068l-0.726,2.135c-15.181,55.658-9.428,110.968-3.862,164.456
				c0.958,9.219,1.868,18.432,2.718,27.644c-5.728,19.958-16.289,49.487-33.664,73.702c-29.138,40.606-55.649,61.402-121.77,52.438
				c-36.849-4.995-63.362-28.565-79.627-48.459c-1.911-4.099-3.742-8.327-5.427-12.764c-15.445-40.648-23.728-92.07-29.219-132.323
				l0-0.002c-1.038-7.612-6.758-13.746-14.279-15.313c-7.521-1.567-15.215,1.773-19.206,8.337
				c-12.001,19.742-20.841,42.929-27.816,72.985c-5.527,23.881-8.562,48.906-9.283,76.585
				c-1.32,60.898,13.032,115.813,42.723,163.322c8.334,13.133,18.14,25.804,29.257,37.768
				c33.589,35.54,79.181,60.837,128.378,71.227c19.083,4.034,38.219,5.958,57.152,5.825c48.542-0.342,95.693-14.225,136.758-40.823
				c15.285-10.094,29.088-21.51,41.069-33.973c12.749-13.347,23.86-28.093,33.106-43.978c15.893-27.895,27.135-58.946,32.481-89.673
				c5.184-28.543,5.864-59.046,2.021-90.659c-2.96-24.289-8.792-49.366-18.303-78.766c-5.206-16.617-12.49-32.595-19.535-48.047
				c-10.38-22.771-20.184-44.276-23.206-66.579c-1.323-9.446-1.562-20.203-0.954-31.873
				c154.289,174.777,762.39,863.658,932.743,1056.643l-16.393,0.115c-55.478,0.391-102.153,41.724-108.573,96.152l-24.842,211.42
				c-62.663,5.281-112.268,54.423-117.229,118.212l-16.42,210.965c-36.495,1.47-84.422,14.549-90.8,57.113
				c-6.197,41.36-12.324,108.281-18.094,187.031c-16.108-0.059-32.322,0.162-32.322,0.162l-996.038-0.173
				c0.172,8.359,0,19.095,0,19.095v19.095h1025.65c-15.15,220.323-27.393,510.244-31.161,606.034
				c-21.292,7.172-35.755,21.205-35.643,37.269l0.062,8.728c0.162,23.125,30.442,41.656,67.612,41.395l215.987-1.52l-0.68,4.216
				l109.16,19.326l0.119,16.882l-92.259,9.201l39.174,164.961l94.395-32.539l6.018,11.38l-76.118,45.908l98.796,136.896l63.3-58.856
				l16.287,10.095l-49.818,75.816l160.44,73.542l28.788-81.38l18.509,2.961l0.674,95.771l141.034-0.992l7.644-84.083l31.772-1.845
				l17.713,90.43l150.602-44.823l-34.371-90.911l20.973-10.673l45.821,89.724l130.653-106.215l-69.59-65.049l13.479-19.155
				l84.681,48.33l69.273-148.405l-85.42-29.713l3.51-20.101l100.035,19.271l9.224-135.902l879.316,2.027l-0.732,4.533
				l109.161,19.326l0.119,16.881l-92.26,9.201l39.175,164.962l94.395-32.54l6.019,11.38l-76.118,45.908l98.795,136.895
				l63.301-58.855l16.287,10.094l-49.818,75.816l160.44,73.542l28.789-81.38l18.509,2.962l0.674,95.77l141.034-0.992l7.643-84.083
				l31.772-1.844l17.713,90.43l150.602-44.824l-34.372-90.911l20.972-10.673l45.822,89.724l130.653-106.215l-69.59-65.049
				l13.48-19.154l84.681,48.33l69.273-148.406l-85.42-29.713l3.509-20.101l100.034,19.271l8.922-131.461l236.022,2.413
				c37.197-0.262,67.199-19.216,67.037-42.342l-0.062-8.728c-0.139-19.751-22.263-36.107-51.881-40.309
				c19.179-224.788,6.715-435.134-40.356-579.753l410.126,0.604C4874.67,3198.367,4874.443,3195.629,4874.484,3187.77z
				 M3989.291,2671.656c-164.414,31.157-493.775,72.938-771.062,43.131c-4.618-0.497-9.288-0.977-13.993-1.462
				c-49.777-5.125-101.251-10.43-138.344-38.102c-16.676-12.431-44.696-38.636-44.948-74.477l-3.819-542.859
				c-0.101-14.361,6.039-28.387,16.837-38.479c10.342-9.66,24.397-15.17,38.823-15.271c0.62-0.004,1.246-0.001,1.867,0.015
				c308.471,7.818,628.306-24.274,821.025-49.957C3947.154,2169.136,3976.547,2411.66,3989.291,2671.656z M3433.543,1557.456
				c21.431-0.095,40.981,13.953,48.891,35.252l30.155,81.277c-33.891,18.6-130.254,37.739-268.279,42.222
				c-129.434,4.236-244.013-6.926-295.175-28.059l32.14-85.111c7.533-19.963,25.212-33.382,45.319-34.57
				C3182.291,1593.587,3293.702,1579.788,3433.543,1557.456z M3087.271,1228.365c2.563-32.651,19.189-63.133,46.806-85.829
				c30.576-25.126,69.949-36.996,108.057-32.515c56.894,6.673,112.079,57.478,120.509,110.941l0.082-0.011
				c1.307,8.807,8.456,54.132,47.808,303.39c-119.787,18.769-219.842,29.908-349.493,12.506
				c23.178-272.44,25.893-304.401,26.219-308.483L3087.271,1228.365z M2943.692,1599.813l-34.3,90.842
				c-3.089,8.181,0.095,17.402,7.575,21.934c51.829,31.382,188.708,43.94,322.626,40.321
				c137.095-3.705,271.077-24.377,307.373-59.178c5.221-5.004,6.973-12.631,4.457-19.411l-26.873-72.441
				c196.055,25.121,308.706,72.661,308.974,110.682c0.389,55.3-236.572,134.107-623.373,136.828s-624.848-72.745-625.237-128.045
				C2584.623,1680.12,2716.425,1625.899,2943.692,1599.813z M3522.134,1595.369c0.052,0.14,0.105,0.28,0.156,0.421
				L3522.134,1595.369z M2586.348,1780.998c24.017,17.823,59.736,33.868,107.089,48.042c-4.7,90.846-21.258,405.274-68.5,1337.837
				l-79.218,0.557l-42.163-134.753c9.977-122.656,22.944-262.133,31.503-379.702
				C2556.565,2357.707,2569.47,2095.805,2586.348,1780.998z M3320.744,3317.778c-0.461-1.108-0.444-2.168,0.182-3.175
				C3320.761,3315.655,3320.704,3316.713,3320.744,3317.778z M3327.468,3303.926c-0.435,0.31-0.774,0.696-1.169,1.039
				l-805.117,4.963c-26.306,0.186-47.852-20.845-48.035-46.883l-0.078-11.147c-0.183-26.031,21.065-47.357,47.371-47.542
				l780.068-5.488l5.071-4.263c173.576-145.976,424.396-190.469,624.126-110.715c113.302,45.235,192.875,124.312,231.645,227.319
				c-73.065-46.228-222.433-120.598-422.952-120.598c-0.939,0-1.895,0-2.84,0.006
				C3506.195,3191.432,3369.765,3273.773,3327.468,3303.926z M477.463,1268.51c3.729,27.529,15.12,52.515,26.137,76.679
				c6.885,15.107,13.392,29.378,17.973,44.003c8.832,27.295,14.189,50.22,16.859,72.142c3.402,27.989,2.832,54.834-1.724,79.92
				c-4.661,26.773-14.44,53.765-28.2,77.914c-7.728,13.276-17.116,25.733-27.86,36.979c-10.084,10.492-21.816,20.179-34.732,28.712
				c-48.836,31.624-107.975,42.224-166.54,29.861c-42.044-8.881-80.931-30.421-109.392-60.535
				c-9.507-10.23-17.948-21.129-25.03-32.289c-25.814-41.31-38.313-89.489-37.151-143.119c0.653-25.129,3.388-47.789,8.356-69.256
				c0.258-1.113,0.519-2.216,0.783-3.308c5.103,25.417,11.679,51.233,20.449,74.32c17.187,45.26,45.364,75.318,68,96.455
				c26.274,24.511,56.146,37.983,91.33,41.186c68.248,6.16,123.534-31.148,144.329-97.331c9.234-29.363,11.683-67.123,7.491-115.441
				c-0.99-11.353-2.168-22.714-3.35-34.071c-5.42-52.096-10.543-101.317,2.486-150.071c7.167-17.259,14.099-30.393,20.705-40.859
				c2.642,3.822,5.367,7.432,8.176,10.614l0.42,0.473c0.505,0.571,1.615,1.83,3.053,3.458c-0.43,2.504-0.87,5.01-1.242,7.494
				C475.206,1227.694,474.774,1249.336,477.463,1268.51z M503.764,1166.991c-18.01-20.399-37.44-66.871-21.298-84.937
				c3.378-3.781,13.415-17.123,29.553-19.42c5.693-0.809,12.666-0.955,19.53-0.82l18.813,2.686l62.222,38.641l1246.052,922.208
				l-80.689,260.636l-291.155,2.047c1.813-0.438,3.603-0.946,5.453-1.268C591.738,1266.634,511.332,1175.546,503.764,1166.991z
				 M1356.731,2388.889c4.252-36.061,35.352-63.447,72.339-63.707l376.02-2.646l116.587-376.588
				c9.377-30.293,37.373-50.802,69.667-51.029l80.619-0.565c0.177-0.003,0.35-0.003,0.526-0.003
				c37.732,0,69.765,28.753,73.036,65.671l55.532,626.743l-868.295,6.106L1356.731,2388.889z M1305.89,2632.201l935.591-6.581
				c46.409-0.326,85.915,34.129,91.896,80.148l26.911,207.079l-1161.674,12.19l16.186-207.963
				C1218.537,2669.027,1257.697,2632.541,1305.89,2632.201z M2283.933,3884.335l-6.186,91.118l-95.95-18.486l-15.312,87.69
				l76.482,26.606l-35.196,75.396l-79.067-45.127l-51.12,72.632l62.174,58.116l-62.716,50.981l-41.85-81.941l-83.03,42.243
				l32.056,84.768l-73.987,22.025l-16.1-82.224l-95.389,5.545l-7.494,82.42l-70.978,0.5l-0.634-90.138l-79.458-12.712
				l-25.592,72.352l-85.013-38.968l47.043-71.599l-72.189-44.746l-53.373,49.624l-51.097-70.801l71.687-43.246l-36.966-69.889
				l-85.786,29.572l-20.094-84.612l83.78-8.364l-0.57-80.952l-103.652-18.36l13.229-81.982l92.702,17.905l19.6-71.865l-91.45-45.334
				l54.502-87.541l69.326,63.592l49.841-67.45l-57.885-68.636l71.343-61.567l57.155,79.914l64.688-40.015l-29.984-82.24
				l88.566-25.094l12.464,86.872l84.878-11.613l-3.445-80.842l89.578-0.63l-7.839,87.661l70.231,27.751l40.486-80.81l79.208,47.339
				l-44.082,71.303l54.471,50.773l60.76-69.734l60.363,62.847l-68.005,64.253l37.391,70.831l79.709-31.909l23.519,77.531
				l-93.681,21.328l13.719,83.849l63.981,3.108l0,0h0.001L2283.933,3884.335z M4210.829,3961.864l-95.95-18.486l-15.313,87.69
				l76.482,26.606l-35.196,75.397l-79.066-45.128l-51.121,72.632l62.174,58.116l-62.716,50.981l-41.85-81.941l-83.03,42.244
				l32.056,84.767l-73.986,22.026l-16.1-82.224l-95.389,5.545l-7.494,82.419l-70.978,0.5l-0.634-90.137l-79.458-12.711
				l-25.592,72.351l-85.013-38.968l47.043-71.599l-72.19-44.746l-53.373,49.624l-51.097-70.8l71.687-43.246l-36.965-69.889
				l-85.787,29.572l-20.094-84.612l83.779-8.364l-0.57-80.952l-103.652-18.36l13.229-81.982l92.701,17.905l19.601-71.866
				l-91.45-45.334l54.502-87.541l69.325,63.591l49.842-67.45l-57.886-68.636l71.343-61.567l57.154,79.914l64.689-40.015
				l-29.984-82.24l88.566-25.094l12.464,86.873l84.878-11.613l-3.445-80.842l89.578-0.63l-7.84,87.662l70.231,27.751l40.487-80.811
				l79.208,47.34l-44.082,71.303l54.47,50.772l60.76-69.733l60.362,62.847l-68.004,64.253l37.391,70.831l79.709-31.909
				l23.519,77.531l-93.682,21.327l13.72,83.85l84.22,4.09L4210.829,3961.864z M4466.284,3784.7l-206.931,3.806l-46.58-153.561
				l-86.191,34.503l-8.916-16.886l74.635-70.519l-113.835-118.543l-62.184,71.37l-4.626-4.309l47.842-77.381l-145.197-86.776
				l-43.146,86.115l-13.404-5.294l8.993-100.61l-168.102,1.182l3.639,85.446l-15.561,2.13l-13.244-92.321l-167.033,47.331
				l33.283,91.296l-10.027,6.2l-60.585-84.71l-129.317,111.6l62.595,74.225l-8.314,11.253l-71.848-65.906l-99.291,159.501
				l100.633,49.874l-2.682,9.838l-96.457-18.632l-9.41,58.322l-889.536,6.258l-45.793-150.968l-86.191,34.503l-8.916-16.885
				l74.635-70.519l-113.836-118.543l-62.184,71.37l-4.626-4.309l47.842-77.382l-145.197-86.776l-43.146,86.116l-13.403-5.294
				l8.992-100.611l-168.102,1.183l3.639,85.446l-15.561,2.13l-13.244-92.321l-167.033,47.331l33.283,91.295l-10.027,6.201
				l-60.585-84.71l-129.318,111.599l62.595,74.224l-8.315,11.254l-71.848-65.906l-99.291,159.5l100.633,49.874l-2.682,9.839
				l-96.456-18.632l-9.412,58.331l-225.556,1.587c5.656-142.176,27.592-668.109,50.463-820.751
				c3.284-21.935,44.808-26.131,63.649-26.264c2.354-0.016,4.357,0.029,5.885,0.113l0.591,0.031l1242.714-13.037l0.092,0
				c11.592-0.082,21.699,7.285,25.165,18.361l63.138,201.783c-40.788,6.157-72.047,41.299-71.75,83.492l0.078,11.146
				c0.325,46.298,38.474,83.694,85.017,83.366l815.828-4.041c1.323-2.058,1.35-4.075,0.649-6.047
				c3.825,0.438,7.801-0.451,11.167-2.823c15.198-10.709,44.948-29.633,88.634-48.438c60.813-26.175,161.866-57.475,297.988-57.96
				c0.891-0.006,1.746-0.006,2.631-0.006c206.642,0,379.513,96.698,448.961,141.993c12.11,7.898,27.754-2.585,24.999-16.778
				c-0.413-2.128-1.271-4.1-2.441-5.872c-17.168-72.569-75.032-221.638-266.505-296.93
				c-210.423-82.744-472.832-38.573-656.281,112.454l-625.733,4.402c7.669-147.42,56.641-1087.183,68.902-1327.536
				c7.135,1.785,14.448,3.54,22.002,5.255c122.708,27.874,285.426,42.556,458.184,41.34
				c172.758-1.215,335.252-18.184,457.557-47.781c84.736-20.506,142.875-45,174.021-73.173
				c16.825,50.59,32.083,103.201,45.865,157.669c-191.982,25.917-499.575,55.072-812.21,47.161
				c-24.786-0.645-49.291,8.535-67.063,25.137c-17.8,16.625-27.911,39.75-27.744,63.448l3.819,542.86
				c0.263,37.347,21.175,73.393,58.873,101.488c45.241,33.758,104.507,39.858,156.791,45.241c4.653,0.48,9.264,0.955,13.828,1.447
				c79.475,8.544,161.345,11.708,241.701,11.143c203.269-1.43,414.376-31.019,535.046-53.799
				c2.329,54.031,3.978,108.767,4.958,164.157l0.265,15.032l14.822,2.53C4375.133,2950.502,4509.701,3260.308,4466.284,3784.7z"/>
			<path style="fill:#070708;" d="M1809.846,3611.3c-0.377,0.002-0.745,0.005-1.121,0.008
				c-68.053,0.478-131.895,27.779-179.859,76.94c-48.13,49.335-74.521,114.797-74.313,184.329
				c0.437,143.698,115.679,260.264,256.893,259.845c0.37-0.003,0.735-0.005,1.107-0.008c68.059-0.479,131.904-27.78,179.883-76.953
				c48.145-49.347,74.539-114.821,74.319-184.359C2066.311,3727.434,1951.06,3610.886,1809.846,3611.3z M1966.135,4029.806
				c-41.07,42.091-95.67,65.464-153.851,65.867c-0.313,0.002-0.631,0.004-0.945,0.007c-120.959,0.36-219.669-99.774-220.044-223.218
				c-0.179-59.844,22.504-116.154,63.87-158.552c41.058-42.086,95.652-65.452,153.827-65.861c0.317-0.002,0.637-0.005,0.957-0.007
				c120.963-0.354,219.681,99.762,220.062,223.175C2030.201,3931.068,2007.517,3987.389,1966.135,4029.806z"/>
			<path style="fill:#070708;" d="M3734.805,3604.349c-0.371,0.002-0.735,0.005-1.107,0.008
				c-68.064,0.479-131.91,27.78-179.873,76.947c-48.135,49.341-74.521,114.802-74.307,184.34
				c0.437,143.681,115.685,260.24,256.902,259.827c0.371-0.002,0.735-0.005,1.106-0.007c68.059-0.479,131.905-27.78,179.88-76.947
				c48.153-49.341,74.545-114.815,74.319-184.359C3991.27,3720.477,3876.016,3603.93,3734.805,3604.349z M3891.109,4022.861
				c-41.071,42.085-95.668,65.458-153.848,65.861c-0.317,0.002-0.634,0.004-0.945,0.007
				c-120.962,0.354-219.678-99.774-220.056-223.199c-0.188-59.85,22.495-116.165,63.861-158.57
				c41.065-42.085,95.662-65.452,153.842-65.861c0.317-0.003,0.634-0.005,0.95-0.007c120.956-0.361,219.678,99.755,220.068,223.181
				C3955.176,3924.129,3932.494,3980.45,3891.109,4022.861z"/>
		</g>
	</g>
</g>
</svg>
