<?xml version="1.0" encoding="utf-8"?>
<!-- Generator: Adobe Illustrator 27.5.0, SVG Export Plug-In . SVG Version: 6.00 Build 0)  -->
<svg version="1.1" id="Layer_1" xmlns="http://www.w3.org/2000/svg" xmlns:xlink="http://www.w3.org/1999/xlink" x="0px" y="0px"
	 viewBox="0 0 192.776 353.133" style="enable-background:new 0 0 192.776 353.133;" xml:space="preserve">
<g>
	<g>
		<path style="fill:#FFFFFF;" d="M82.646,169.507c0,0,2.141,5.912-0.166,10.847c-2.295,4.934-16.932,33.21-21.045,54.088
			c0,0-7.553-4.611-14.461,6.733c-6.908,11.344-3.662,26.238,5.709,41.06c5.303,8.389,6.123,10.89,5.137,12.208
			c-0.986,1.311-15.781,9.371-22.844,10.358c-7.074,0.986-12.008-0.664-15.125,2.626c-3.127,3.295-1.318,7.233,1.641,7.397
			c0,0-0.496,5.589,7.728,4.116c0,0-1.088,2.238,1.145,4.765c3.293,3.718,11.453,1.477,18.703-6.075
			c7.285-7.599,23.223-14.313,24.541-22.862c0,0,9.037-0.655,12.984,0.166c3.938,0.82,14.137,4.278,17.256,3.781
			c3.125-0.489,8.547,9.868,13.15,16.441c4.602,6.575,16.775,17.265,23.186,18.906c6.408,1.642,9.535-0.331,10.191-3.292
			c0,0,5.754,1.65,6.242-3.947c0,0,4.936,0.332,5.266-4.436c0.324-4.768-11.178-3.446-21.865-11.176
			c-10.689-7.728-19.404-11.51-17.266-13.641c2.141-2.14,18.574-14.959,20.393-34.86c1.807-19.884-17.266-33.2-25.814-20.05
			c0,0,1.975-18.084-0.822-33.209c-2.793-15.125-12.162-41.917-15.455-48.99C97.771,153.396,82.646,169.507,82.646,169.507
			L82.646,169.507z"/>
		<path d="M144.381,335.04c-1.234,0-2.664-0.193-4.297-0.607c-6.613-1.726-18.713-12.395-23.396-19.054
			c-2.26-3.237-4.705-7.35-6.973-10.642c-2.232-3.314-4.445-5.739-5.645-5.656l-0.166,0.012c-0.23,0.035-0.479,0.055-0.766,0.055
			c-3.873-0.011-12.977-3.082-16.627-3.836c-1.467-0.305-3.736-0.407-5.939-0.407c-2.914,0-5.746,0.166-6.65,0.229
			c-1.771,8.763-17.486,15.3-24.578,22.763c-4.998,5.2-10.43,7.939-14.553,7.947c-1.916,0-3.588-0.608-4.711-1.888
			c-1.199-1.347-1.514-2.668-1.514-3.627c0-0.359,0.047-0.672,0.102-0.92c-0.728,0.11-1.393,0.154-1.992,0.154
			c-2.537,0.012-3.984-0.893-4.74-1.935c-0.672-0.942-0.813-1.938-0.83-2.455c-1.91-0.293-3.283-2.009-3.273-4.065
			c-0.01-1.274,0.525-2.676,1.734-3.947c3.393-3.478,8.393-1.733,15.356-2.739c3.439-0.481,8.908-2.731,13.584-5.025
			c4.666-2.261,8.695-4.704,9.01-5.183c0.176-0.249,0.275-0.518,0.285-0.939c0.02-1.424-1.373-4.429-5.439-10.831
			c-5.967-9.433-9.473-18.904-9.473-27.528c0-4.998,1.18-9.711,3.754-13.934c3.844-6.346,8.014-7.858,10.982-7.85
			c1.635,0,2.889,0.443,3.533,0.738c4.262-20.916,18.703-48.795,20.973-53.684c0.775-1.66,1.033-3.449,1.033-5.081
			c0-3.026-0.877-5.47-0.887-5.47l-0.072-0.222l0.156-0.174c0.064-0.01,10.08-10.874,15.926-10.958
			c1.309-0.018,2.482,0.629,3.119,2.02c3.31,7.12,12.67,33.894,15.482,49.083c1.164,6.299,1.504,13.096,1.504,18.895
			c0,5.856-0.352,10.709-0.545,12.996c2.326-2.924,5.285-4.271,8.348-4.262c8.42,0.029,17.439,9.84,17.447,23.065
			c0,0.876-0.037,1.762-0.119,2.666c-1.826,20.085-18.406,32.988-20.5,35.092c-0.168,0.165-0.203,0.284-0.213,0.441
			c-0.102,0.7,1.816,2.353,5.025,4.382c3.192,2.084,7.602,4.76,12.404,8.234c7.82,5.655,16.066,6.398,19.893,8.392
			c1.273,0.664,2.148,1.578,2.141,2.897l-0.01,0.228c-0.303,4.31-4.133,4.788-5.293,4.796c-0.441,3.434-3.043,4.216-4.787,4.172
			c-0.637,0-1.189-0.086-1.529-0.149c-0.648,2.194-2.713,3.809-6.199,3.809H144.381L144.381,335.04z M110.352,304.295
			c2.287,3.328,4.73,7.44,6.971,10.642c4.51,6.49,16.748,17.188,22.955,18.749c1.578,0.404,2.941,0.589,4.104,0.589
			c3.504-0.027,5.148-1.548,5.617-3.588l0.094-0.396l0.387,0.111c0,0,0.193,0.052,0.498,0.1c0.305,0.058,0.729,0.11,1.207,0.11
			c1.66-0.045,3.736-0.518,4.059-3.814l0.027-0.379l0.369,0.024c0,0,0.064,0,0.184,0c0.904-0.024,4.418-0.213,4.676-4.074
			l0.01-0.185c-0.01-0.94-0.555-1.579-1.734-2.215c-1.172-0.616-2.904-1.133-4.979-1.752c-4.15-1.228-9.678-2.85-15.006-6.695
			c-4.777-3.458-9.168-6.122-12.367-8.218c-3.193-2.14-5.275-3.485-5.377-5.025c0-0.37,0.156-0.718,0.443-0.986
			c2.186-2.167,18.48-14.912,20.271-34.612c0.082-0.886,0.117-1.752,0.117-2.601c0-6.437-2.203-12.026-5.402-16.001
			c-3.201-3.967-7.379-6.308-11.279-6.299c-3.191,0.01-6.225,1.53-8.541,5.091l-0.709-0.258c0-0.009,0.684-6.179,0.672-14.333
			c0.012-5.772-0.33-12.523-1.484-18.758c-2.775-15.059-12.154-41.887-15.43-48.896c-0.553-1.152-1.328-1.559-2.416-1.577
			c-2.508-0.028-6.436,2.628-9.627,5.329c-2.738,2.299-4.98,4.594-5.58,5.222c0.223,0.69,0.848,2.876,0.848,5.506
			c0,1.716-0.266,3.616-1.096,5.412c-2.316,4.944-16.934,33.202-21.02,53.998l-0.109,0.536l-0.461-0.287
			c-0.01,0.01-0.369-0.212-1.006-0.434c-0.627-0.221-1.521-0.433-2.611-0.433c-2.701,0.009-6.557,1.3-10.328,7.48
			c-2.49,4.095-3.643,8.66-3.643,13.537c0,8.411,3.441,17.764,9.352,27.114c4.066,6.454,5.533,9.397,5.56,11.245
			c0,0.56-0.166,1.03-0.441,1.398c-0.666,0.832-4.529,3.07-9.277,5.415c-4.732,2.305-10.191,4.583-13.824,5.089
			c-7.176,0.97-12.045-0.578-14.894,2.518c-1.1,1.152-1.531,2.353-1.531,3.414c0.008,1.827,1.264,3.236,2.912,3.339l0.398,0.02
			l-0.037,0.396c0,0,0,0.044,0,0.138c0.055,0.758,0.139,3.762,4.805,3.798c0.711,0,1.531-0.071,2.471-0.237l0.748-0.139
			l-0.332,0.683c0.018,0.009-0.229,0.451-0.229,1.225c0.008,0.805,0.246,1.902,1.316,3.118c0.969,1.078,2.371,1.623,4.141,1.631
			c3.781,0.011,9.104-2.609,14-7.718c7.406-7.646,23.268-14.47,24.43-22.648l0.047-0.305l0.305-0.02c0.01,0,3.43-0.248,7-0.248
			c2.23,0,4.519,0.091,6.096,0.422c3.717,0.777,12.883,3.829,16.471,3.817c0.248,0,0.471-0.017,0.646-0.044
			c0.09-0.008,0.184-0.027,0.285-0.027C106.025,298.391,108.027,300.983,110.352,304.295L110.352,304.295z"/>
		<path d="M106.375,265.881c-0.203-0.054-0.322-0.275-0.266-0.478c4.297-15.523,10.9-22.964,10.938-23.001
			c0.139-0.158,0.377-0.176,0.545-0.027c0.154,0.139,0.166,0.377,0.025,0.543c0,0-1.613,1.809-3.771,5.561
			c-2.166,3.754-4.869,9.445-6.99,17.138c-0.045,0.166-0.203,0.274-0.379,0.274L106.375,265.881L106.375,265.881z"/>
		<path d="M104.318,298.852c-0.184-0.461-0.275-0.887-0.275-1.29c0.102-2.491,3.061-3.166,6.086-4.299
			c1.551-0.525,2.49-2.822,3.238-5.838c0.756-3.007,1.365-6.631,2.617-9.729c0.859-2.103,1.117-3.441,1.117-4.261
			c-0.01-0.775-0.213-1.061-0.359-1.183c-0.139-0.12-0.232-0.12-0.232-0.12v0.011c-0.211,0-0.387-0.175-0.387-0.387
			c0-0.213,0.176-0.387,0.387-0.387c0.047,0,0.389,0.008,0.74,0.304c0.35,0.295,0.627,0.849,0.617,1.762
			c0,0.977-0.295,2.397-1.162,4.545c-1.217,2.987-1.836,6.587-2.602,9.63c-0.773,3.023-1.641,5.578-3.705,6.371
			c-3.174,1.108-5.682,1.966-5.58,3.58c0,0.284,0.063,0.616,0.211,1.014c0.084,0.193-0.019,0.415-0.211,0.498l-0.141,0.027
			C104.521,299.101,104.375,299.01,104.318,298.852L104.318,298.852z"/>
		<path d="M150.146,331.546c-0.193-0.085-0.287-0.314-0.205-0.508c-0.008-0.009,0.102-0.213,0.102-0.628
			c-0.018-0.903-0.496-2.747-4.795-4.334c-6.344-2.297-14.525-6.596-19.643-11.076c-0.156-0.138-0.176-0.379-0.037-0.544
			c0.137-0.158,0.387-0.175,0.543-0.036c4.99,4.378,13.143,8.668,19.404,10.938c4.455,1.595,5.303,3.79,5.293,5.053
			c0,0.553-0.146,0.896-0.154,0.932c-0.066,0.15-0.205,0.229-0.359,0.229L150.146,331.546L150.146,331.546z"/>
		<path d="M156.27,326.988c0,0-0.074-0.174-0.314-0.506c-0.238-0.343-0.617-0.813-1.199-1.346c-1.162-1.07-3.098-2.392-6.234-3.34
			c-6.463-1.974-16.074-8.281-16.092-8.292c-0.176-0.11-0.221-0.349-0.111-0.525c0.121-0.183,0.359-0.229,0.535-0.11
			c0.02,0,9.617,6.28,15.891,8.19c6.482,1.965,8.197,5.525,8.227,5.597v0.009c0.092,0.193,0.008,0.417-0.186,0.509l-0.166,0.035
			C156.473,327.209,156.334,327.126,156.27,326.988L156.27,326.988z"/>
		<path d="M102.621,164.159c-0.102,0.088-0.205,0.177-0.309,0.264c1.133,2.842,2.523,6.597,3.992,10.817
			c0.174,0.103,0.346,0.21,0.518,0.321C105.273,171.095,103.807,167.122,102.621,164.159L102.621,164.159z"/>
		<path d="M117.975,225.113c-0.123,0.226-0.246,0.452-0.375,0.678c0.014,0.847,0.021,1.679,0.018,2.489
			c0.01,7.532-0.572,13.37-0.662,14.225c0.057-0.066,0.09-0.102,0.092-0.104c0.072-0.084,0.178-0.129,0.283-0.129
			c0.014,0,0.027,0.002,0.041,0.002C117.537,240.588,118.162,233.544,117.975,225.113L117.975,225.113z"/>
		<path d="M126.203,237.4c-3.223,0-6.309,1.516-8.658,4.938c0.016,0.011,0.031,0.023,0.047,0.035
			c0.143,0.125,0.162,0.334,0.061,0.496l0.002,0.001c2.316-3.561,5.35-5.081,8.541-5.091c0.008,0,0.014,0,0.024,0
			c3.894,0,8.06,2.341,11.256,6.299c3.199,3.975,5.402,9.564,5.402,16.001c0,0.849-0.035,1.715-0.117,2.601
			c-1.791,19.7-18.086,32.445-20.271,34.612c-0.287,0.269-0.443,0.616-0.443,0.986c0.102,1.54,2.184,2.886,5.377,5.025
			c3.199,2.096,7.59,4.76,12.367,8.218c5.328,3.846,10.855,5.468,15.006,6.695c2.074,0.619,3.807,1.136,4.979,1.752
			c1.18,0.636,1.725,1.274,1.734,2.215l-0.01,0.185c-0.256,3.817-3.689,4.041-4.643,4.074c0.076,0.128,0.111,0.205,0.115,0.213
			v0.009c0.025,0.053,0.035,0.107,0.035,0.16c1.172-0.039,4.605-0.486,4.879-4.439c0.324-4.768-11.178-3.446-21.865-11.176
			c-10.689-7.728-19.404-11.51-17.266-13.641c2.141-2.14,18.574-14.959,20.393-34.86C144.451,248.342,134.854,237.4,126.203,237.4
			L126.203,237.4z"/>
		<path d="M117.33,242.273c-0.105,0-0.211,0.045-0.283,0.129c-0.002,0.002-0.035,0.037-0.092,0.104
			c-0.805,0.947-6.832,8.396-10.846,22.898c-0.057,0.203,0.063,0.425,0.266,0.478l0.102,0.009c0.176,0,0.334-0.108,0.379-0.274
			c0.912-3.31,1.932-6.247,2.971-8.821c0.842-2.451,1.941-5.021,3.445-7.294c0.193-0.354,0.387-0.695,0.574-1.022
			c2.158-3.752,3.771-5.561,3.771-5.561c0.014-0.014,0.023-0.031,0.035-0.047c0.102-0.162,0.082-0.371-0.061-0.496
			c-0.016-0.013-0.031-0.024-0.047-0.035c-0.07,0.105-0.143,0.212-0.213,0.32c0,0,0.014-0.132,0.039-0.385
			C117.357,242.275,117.344,242.273,117.33,242.273L117.33,242.273z"/>
		<path d="M156.23,326.908c-0.359,3.201-2.404,3.659-4.047,3.704c-0.479,0-0.902-0.053-1.207-0.11
			c-0.063-0.009-0.117-0.017-0.168-0.028c-0.002,0.147-0.016,0.276-0.033,0.387c0.33,0.064,0.834,0.136,1.414,0.136
			c1.666,0,3.943-0.603,4.387-3.789c-0.131-0.015-0.248-0.095-0.307-0.219C156.27,326.988,156.258,326.964,156.23,326.908
			L156.23,326.908z"/>
		<path d="M150.043,330.496l-0.045,0.191c-0.469,2.04-2.113,3.56-5.617,3.588c-1.162,0-2.525-0.185-4.104-0.589
			c-0.627-0.157-1.314-0.409-2.049-0.737c-0.49-0.092-0.99-0.202-1.492-0.324c1.254,0.664,2.426,1.181,3.449,1.438
			c1.6,0.409,2.996,0.595,4.199,0.595c3.186,0,5.025-1.291,5.754-3.115c-0.189-0.086-0.279-0.313-0.197-0.503
			C149.936,331.029,150.029,330.853,150.043,330.496L150.043,330.496z"/>
		<path d="M128.012,316.44c0,0-0.322,0-0.18,0.359c5.066,3.806,11.928,7.289,17.416,9.276c4.299,1.587,4.777,3.431,4.795,4.334
			c0,0.03,0,0.059,0,0.086c-0.014,0.357-0.107,0.533-0.102,0.542c-0.082,0.191,0.008,0.417,0.197,0.503
			c0.1-0.249,0.18-0.506,0.238-0.772c0,0,0.148,0.044,0.398,0.091c0.018-0.11,0.031-0.24,0.033-0.387c0-0.02,0-0.041,0-0.064
			c0.004-0.356-0.061-0.785-0.256-1.252c-0.494-0.313-0.91-0.68-1.172-1.018C148.422,326.914,131.01,319.97,128.012,316.44
			L128.012,316.44z"/>
		<path d="M133.85,313.817c-0.244,0-0.365,0.141-0.291,0.409c2.73,1.714,9.836,6.003,14.963,7.57c3.137,0.948,5.072,2.27,6.234,3.34
			c0.582,0.533,0.961,1.003,1.199,1.346c0.146,0.202,0.23,0.346,0.275,0.426c0.027,0.056,0.039,0.08,0.039,0.08
			c0.059,0.124,0.176,0.204,0.307,0.219c0.016-0.125,0.033-0.252,0.043-0.385c0,0,0.076,0.006,0.203,0.006
			c0.053,0,0.115,0,0.184-0.003c0-0.053-0.01-0.107-0.035-0.16v-0.009c-0.004-0.008-0.039-0.085-0.115-0.213
			c-0.184-0.317-0.613-0.953-1.404-1.714c-1.107-0.586-2.412-1.782-4.854-2.711c-4.619-1.772-13.197-5.578-15.373-7.491
			C134.67,314.047,134.16,313.817,133.85,313.817L133.85,313.817z"/>
		<path d="M105.623,295.12c-0.674,0.429-1.18,0.94-1.422,1.611C104.645,296.229,105.016,295.648,105.623,295.12L105.623,295.12z
			 M109.842,293.368c-0.35,0.129-0.697,0.251-1.037,0.373C109.195,293.639,109.537,293.517,109.842,293.368L109.842,293.368z"/>
		<path style="fill:#FFFFFF;" d="M121.076,216.439c0,0-3.781,13.668-10.854,16.379c-7.084,2.712-10.957-15.511-11.344-19.292
			c-0.389-3.781-7.176-4.262-8.531-12.7c-1.355-8.429-1.355-5.036-2.813-2.028c-1.457,2.997-6.983,1.836-5.912-4.943
			c1.07-6.787,7.654-9.988,7.654-9.988s-0.672-3.293,4.658-6.298c0,0,0.191-3.304,6.879-3.497
			c6.695-0.193,13.281,7.858,14.738,16.676c1.457,8.825-6.014,16.774-6.105,21.422c-0.102,4.658,2.416,10.957,6.105,2.324
			C119.232,205.871,120.883,215.075,121.076,216.439L121.076,216.439z"/>
		<path d="M101.295,224.768c-1.68-4.5-2.611-9.397-2.805-11.195c-0.129-1.632-1.797-2.685-3.762-4.354
			c-1.945-1.669-4.076-4.012-4.758-8.327c-0.406-2.629-0.758-4.17-0.951-4.769c-0.064,0.148-0.139,0.341-0.221,0.563
			c-0.23,0.618-0.517,1.457-0.914,2.277c-0.563,1.153-1.678,1.782-2.83,1.782c-1.955-0.011-3.947-1.782-3.957-5.248
			c0-0.527,0.045-1.099,0.146-1.708c0.998-6.242,6.412-9.48,7.627-10.143v-0.158c-0.018-1.051,0.508-3.752,4.713-6.168
			c0.193-0.813,1.311-3.496,7.223-3.625l0.248-0.009c6.928,0.046,13.391,8.161,14.875,16.995c0.131,0.813,0.193,1.605,0.193,2.39
			c-0.025,8.051-6.279,15.152-6.297,19.108v0.25c0,1.42,0.238,2.979,0.672,4.141c0.434,1.189,1.061,1.863,1.578,1.826
			c0.627,0.055,1.814-0.95,3.117-4.049c1.18-2.703,2.102-3.818,3.227-3.883c1.236,0.083,1.807,1.42,2.277,2.703
			c0.445,1.326,0.682,2.729,0.758,3.218l-0.379,0.055l0.379-0.055l0.01,0.073l-0.02,0.084c-0.037,0.018-3.707,13.731-11.086,16.637
			c-0.533,0.203-1.051,0.295-1.559,0.295C105.344,233.409,102.99,229.232,101.295,224.768L101.295,224.768z M89.637,195.616
			c0.111,0.23,0.203,0.544,0.314,0.968c0.211,0.858,0.451,2.195,0.773,4.187c0.674,4.115,2.619,6.235,4.502,7.857
			c1.863,1.633,3.779,2.711,4.029,4.861c0.176,1.715,1.107,6.602,2.758,11c1.643,4.446,4.066,8.283,6.787,8.219
			c0.406,0,0.83-0.073,1.283-0.248c3.357-1.273,6.068-5.295,7.875-9.021c1.652-3.395,2.574-6.511,2.721-7.026
			c-0.074-0.526-0.313-1.828-0.709-2.998c-0.398-1.273-1.09-2.26-1.551-2.186c-0.424-0.056-1.393,0.737-2.518,3.421
			c-1.365,3.136-2.527,4.465-3.826,4.519c-1.125-0.036-1.816-1.08-2.297-2.332c-0.471-1.282-0.719-2.906-0.719-4.408
			c0-0.093,0-0.185,0-0.268c0.156-4.519,6.316-11.371,6.289-19.091c0-0.747-0.055-1.503-0.176-2.26
			c-1.4-8.595-7.84-16.396-14.119-16.36l-0.23,0.01c-4.924,0.156-6.078,1.945-6.4,2.729c-0.101,0.267-0.109,0.398-0.109,0.398
			l-0.012,0.211l-0.183,0.102c-4.148,2.352-4.473,4.76-4.482,5.588c0,0.213,0.02,0.295,0.02,0.295l0.064,0.296l-0.268,0.13
			c0,0.009-1.596,0.774-3.338,2.389c-1.744,1.613-3.598,4.039-4.113,7.313c-0.094,0.572-0.139,1.098-0.131,1.588
			c0.02,3.189,1.715,4.463,3.184,4.471c0.885,0,1.707-0.451,2.139-1.336c0.563-1.162,0.885-2.38,1.217-3.016
			c0.129-0.194,0.213-0.443,0.627-0.498C89.416,195.153,89.527,195.411,89.637,195.616L89.637,195.616z"/>
		<path d="M88.691,196.353c-0.205-0.058-0.322-0.27-0.266-0.474c0.365-1.409,1.272-1.987,2.111-1.965
			c1.127,0.016,2.053,0.784,2.084,0.798c0.168,0.131,0.195,0.373,0.064,0.541c-0.133,0.165-0.373,0.192-0.541,0.061
			c-0.004,0.001-0.217-0.156-0.523-0.315c-0.311-0.164-0.711-0.325-1.084-0.316c-0.523,0.023-1.006,0.199-1.371,1.404
			c-0.047,0.17-0.201,0.279-0.369,0.279L88.691,196.353z"/>
		<path d="M114.748,216.951c-1.053,1.468-2.039,2.047-2.861,2.047c-0.34,0-0.654-0.099-0.934-0.275
			c0.318,0.269,0.688,0.432,1.123,0.446C112.996,219.131,113.846,218.454,114.748,216.951L114.748,216.951z"/>
		<path style="fill:#FFFFFF;" d="M83.469,179.863c0,0-15.293,12.165-18.74,23.177c-3.449,11.012,5.92,13.972,12.652,16.277
			c6.742,2.297,9.869,0.986,11.344,3.284c1.484,2.306,7.895,6.574,15.125,0.821c7.238-5.757,8.227-11.179,11.842-7.564
			c3.615,3.616,7.23,2.473,8.051-0.986c0.82-3.448-2.141-6.732-2.141-6.732s0.988-1.152,0-3.293c0,0-0.156-1.475-2.129-4.112
			c-1.975-2.628-4.445-4.105-13.65,0.986c-9.203,5.1-14.957,11.022-18.242,10.69c-3.291-0.333-12.33-1.808-13.971-9.205
			L83.469,179.863L83.469,179.863z"/>
		<path d="M96.406,226.687c-4.002-0.019-6.973-2.297-8.004-3.875c-0.637-0.994-1.607-1.225-3.422-1.476
			c-1.799-0.239-4.316-0.497-7.719-1.658c-5.699-1.956-13.623-4.428-13.66-12.257c0-1.348,0.24-2.842,0.756-4.491
			c3.543-11.214,18.852-23.343,18.871-23.37c0.166-0.129,0.404-0.102,0.533,0.064c0.141,0.166,0.111,0.406-0.055,0.534
			c-0.008,0.009-3.799,3.025-8.041,7.425c-4.232,4.398-8.891,10.173-10.57,15.568c-0.508,1.594-0.729,3.016-0.729,4.27
			c-0.037,7.146,7.35,9.555,13.143,11.527c3.33,1.143,5.754,1.383,7.57,1.633c1.791,0.238,3.127,0.497,3.967,1.816
			c0.85,1.329,3.68,3.531,7.359,3.514c2.15,0,4.601-0.719,7.203-2.785c2.775-2.213,4.619-4.371,6.068-5.995
			c1.457-1.612,2.481-2.784,3.873-2.821c0.795,0,1.568,0.442,2.406,1.281c1.494,1.494,2.943,2.103,4.141,2.103
			c1.588-0.009,2.814-1.061,3.275-2.903c0.092-0.398,0.129-0.785,0.129-1.163c0-1.383-0.535-2.692-1.088-3.671
			c-0.553-0.969-1.088-1.559-1.098-1.566l-0.221-0.25l0.221-0.259c-0.008,0,0.063-0.073,0.156-0.276
			c0.094-0.213,0.186-0.525,0.186-0.958c0-0.425-0.092-0.969-0.398-1.643l-0.027-0.056l-0.008-0.056
			c-0.01,0-0.029-0.304-0.305-0.968c-0.268-0.663-0.793-1.669-1.764-2.961c-1.004-1.318-1.998-2.24-3.99-2.25
			c-1.891-0.01-4.723,0.886-9.16,3.349c-8.953,4.925-14.479,10.661-18.158,10.743c-0.111,0-0.211-0.01-0.313-0.018
			c-3.301-0.342-12.543-1.78-14.305-9.5c-0.045-0.211,0.084-0.414,0.285-0.461c0.213-0.045,0.416,0.083,0.461,0.295
			c1.531,7.074,10.367,8.586,13.631,8.91l0.24,0.009c2.971,0.072,8.828-5.663,17.791-10.652c4.482-2.48,7.396-3.439,9.527-3.448
			c2.275-0.011,3.586,1.18,4.609,2.563c1.799,2.407,2.148,3.901,2.205,4.234c0.332,0.736,0.453,1.382,0.443,1.909
			c0,0.691-0.186,1.18-0.342,1.457c0.563,0.7,2.176,2.904,2.186,5.523c0,0.434-0.047,0.886-0.156,1.337
			c-0.48,2.111-2.037,3.504-4.014,3.496c-1.465,0-3.088-0.738-4.684-2.324c-0.785-0.783-1.373-1.061-1.863-1.061
			c-0.848-0.027-1.863,0.922-3.301,2.564c-1.439,1.622-3.32,3.826-6.162,6.087c-2.719,2.157-5.357,2.96-7.672,2.96H96.406
			L96.406,226.687z"/>
		<path d="M109.604,209.497c-0.184-0.104-0.248-0.344-0.146-0.527c0.35-0.498,2.666-5.35,5.504-5.469
			c0.158,0,0.307,0.02,0.461,0.055c2.713,0.619,6.42,4.289,6.449,4.307c0.156,0.148,0.156,0.388,0.008,0.545
			c-0.146,0.148-0.387,0.148-0.545,0c0,0.01-3.789-3.634-6.076-4.104c-0.092-0.02-0.195-0.029-0.297-0.029
			c-1.943-0.117-4.592,4.539-4.832,5.073c-0.074,0.13-0.203,0.202-0.342,0.202L109.604,209.497L109.604,209.497z"/>
		<path d="M121.354,205.134c-0.01,0-3.313-2.924-5.414-3.487c-0.166-0.046-0.342-0.073-0.508-0.073
			c-0.885-0.008-1.91,0.6-2.674,1.245c-0.775,0.636-1.291,1.264-1.291,1.272c-0.139,0.158-0.379,0.184-0.545,0.056
			c-0.164-0.138-0.193-0.378-0.055-0.544c0.047-0.01,2.158-2.749,4.564-2.795c0.232,0,0.471,0.028,0.711,0.093
			c2.426,0.691,5.689,3.652,5.719,3.661c0.156,0.139,0.174,0.387,0.027,0.543c-0.074,0.085-0.176,0.131-0.287,0.131L121.354,205.134
			L121.354,205.134z"/>
		<path d="M121.652,206.828c-0.018,0.291-0.08,0.52-0.146,0.692c0.227,0.211,0.359,0.339,0.365,0.342
			c0.012,0.012,0.023,0.025,0.033,0.039c0,0,0.002,0,0.004-0.002C122.107,207.716,121.988,207.32,121.652,206.828L121.652,206.828z"
			/>
		<path d="M110.387,208.083c-0.031,0.049-0.045,0.076-0.045,0.076C110.355,208.142,110.369,208.116,110.387,208.083L110.387,208.083
			z M114.961,203.501c-1.328,0.057-2.541,1.148-3.494,2.345c-0.582,0.999-0.924,1.938-1.08,2.237
			c0.342-0.564,2.588-4.145,4.686-4.305c0.035-0.003,0.07-0.004,0.105-0.004c1.053,0,2.399,1.053,3.611,2.105
			c1.219,1.051,2.313,2.104,2.887,2.104c0.09,0,0.166-0.025,0.229-0.082c-0.01-0.014-0.021-0.027-0.033-0.039
			c-0.006-0.003-0.139-0.131-0.365-0.342c-1-0.928-3.871-3.461-6.084-3.965C115.268,203.521,115.119,203.501,114.961,203.501
			L114.961,203.501z"/>
		<path d="M120.188,202.487c0.281,0.469,0.486,0.873,0.635,1.209c0.111,0.089,0.215,0.173,0.31,0.252
			C120.93,203.496,120.602,202.989,120.188,202.487L120.188,202.487z"/>
		<path d="M115.432,200.808c-2.406,0.046-4.518,2.785-4.564,2.795c-0.008,0.009-0.016,0.02-0.021,0.029
			c0.014,0.008,0.031,0.012,0.055,0.012c0.199,0,0.727-0.308,1.719-1.092c1.023-0.811,2.063-1.117,3.049-1.117
			c3.068,0,5.631,2.961,5.631,2.961c-0.039-0.141-0.096-0.291-0.166-0.447c-0.096-0.079-0.199-0.163-0.31-0.252
			c-1.164-0.933-3.102-2.347-4.68-2.796C115.902,200.836,115.664,200.808,115.432,200.808L115.432,200.808z"/>
		<path d="M97.309,186.523c-0.004,0.002-0.576-0.768-1.549-1.539c-0.971-0.777-2.313-1.527-3.791-1.525
			c-0.783,0.002-1.613,0.203-2.486,0.735c-0.182,0.111-0.418,0.057-0.529-0.127c-0.111-0.182-0.055-0.418,0.127-0.529
			c0.986-0.604,1.971-0.849,2.889-0.849c3.484,0.031,5.922,3.354,5.955,3.369c0.127,0.17,0.094,0.41-0.074,0.539l-0.232,0.078
			C97.5,186.675,97.385,186.622,97.309,186.523z"/>
		<path d="M103.35,181.319c0,0-0.861-0.908-2.203-1.822c-1.342-0.918-3.15-1.814-4.969-1.811c-0.82,0.002-1.641,0.174-2.451,0.605
			c-0.186,0.101-0.422,0.03-0.52-0.156c-0.102-0.189-0.029-0.422,0.16-0.521c0.926-0.495,1.881-0.697,2.81-0.697
			c4.135,0.028,7.695,3.859,7.731,3.875c0.146,0.154,0.139,0.396-0.016,0.543c-0.074,0.069-0.17,0.105-0.264,0.105
			C103.525,181.441,103.426,181.4,103.35,181.319z"/>
		<path d="M135.148,77.716c0-6.271,3.229-26.947,3.229-26.965c0.039-0.203,0.232-0.351,0.445-0.314
			c0.201,0.027,0.35,0.221,0.32,0.434c0,0.027-3.229,20.732-3.229,26.846c0,0.213-0.174,0.388-0.387,0.388
			C135.316,78.104,135.148,77.929,135.148,77.716L135.148,77.716z"/>
		<path style="fill:#FFFFFF;" d="M117.775,72.607c0,0,20.981-39.823,27.438-42.516c6.463-2.684,20.178,18.298,27.445,45.743
			c7.266,27.438-8.883,62.418-5.109,71.566c3.762,9.139-31.752-25.565-32.021-69.686c0,0-3.494-4.842-11.563,6.456
			C115.895,95.47,117.775,72.607,117.775,72.607L117.775,72.607z"/>
		<path d="M167.475,149.254c-1.254-0.091-3.506-2.103-6.723-5.726c-3.154-3.617-7.027-8.846-10.799-15.301
			c-7.527-12.884-14.656-30.674-14.805-50.363c-0.072-0.083-0.201-0.213-0.406-0.342c-0.33-0.23-0.836-0.451-1.557-0.461
			c-1.65-0.009-4.594,1.282-8.908,7.332c-1.633,2.259-2.859,3.265-4.031,3.292c-1.494-0.056-2.139-1.632-2.545-3.504
			c-0.396-1.919-0.508-4.335-0.508-6.475c0-2.804,0.195-5.128,0.195-5.136l0.008-0.084l0.037-0.064c0,0,5.248-9.961,11.307-20.262
			c6.105-10.32,12.818-20.889,16.324-22.42c0.424-0.176,0.877-0.268,1.346-0.268c3.764,0.074,8.549,5.201,13.447,13.484
			c4.877,8.299,9.738,19.818,13.17,32.775c1.373,5.192,1.918,10.643,1.918,16.139c-0.01,20.586-7.609,41.797-7.602,51.738
			c0,1.503,0.176,2.73,0.555,3.643c0.203,0.48,0.305,0.858,0.314,1.19c0,0.193-0.047,0.397-0.186,0.572
			c-0.139,0.165-0.359,0.238-0.535,0.238H167.475L167.475,149.254z M135.842,77.485l0.072,0.102v0.129
			c0.168,29.337,16.049,54.569,25.418,65.303c3.008,3.516,5.553,5.471,6.105,5.471l0.01-0.046c0-0.148-0.074-0.47-0.258-0.904
			c-0.434-1.051-0.609-2.37-0.609-3.929c0.018-10.227,7.6-31.301,7.6-51.738c0-5.44-0.545-10.826-1.891-15.945
			c-3.422-12.893-8.264-24.356-13.088-32.582c-4.805-8.236-9.73-13.17-12.791-13.096c-0.377,0-0.719,0.064-1.051,0.203
			c-2.951,1.161-9.951,11.842-15.955,22.096c-5.754,9.795-10.771,19.257-11.252,20.16c-0.035,0.426-0.184,2.518-0.184,4.999
			c0,2.112,0.111,4.501,0.488,6.317c0.369,1.863,1.053,2.961,1.789,2.896c0.646,0.028,1.836-0.755,3.404-2.97
			c4.369-6.123,7.471-7.645,9.535-7.654C134.965,76.306,135.814,77.448,135.842,77.485L135.842,77.485z"/>
		<path d="M120.283,76.167c-0.193-0.102-0.258-0.332-0.156-0.517c0-0.009,2.426-4.519,5.395-9.177
			c3.006-4.657,6.383-9.434,8.846-10.116c0.201-0.056,0.404,0.074,0.461,0.276c0.055,0.213-0.074,0.416-0.277,0.47
			c-1.855,0.397-5.469,5.165-8.383,9.786c-2.951,4.629-5.359,9.111-5.367,9.121h0.008c-0.072,0.129-0.211,0.203-0.342,0.203
			L120.283,76.167L120.283,76.167z"/>
		<path d="M134.26,56.858c-2.971,0.002-11.561,15.481-11.561,15.481c-0.248,0.29-0.26,0.425-0.092,0.425c0.004,0,0.01,0,0.014-0.001
			c0.945-1.646,2.189-3.745,3.547-5.874c2.914-4.621,6.527-9.389,8.383-9.786c0.063-0.016,0.117-0.047,0.162-0.087
			C134.582,56.909,134.43,56.858,134.26,56.858L134.26,56.858z"/>
		<path d="M171.02,118.472c-1.535,7.682-3.215,14.611-3.996,20.004C167.924,134.444,169.543,126.897,171.02,118.472L171.02,118.472z
			 M173.51,82.013c0.467,3.232,0.67,6.536,0.67,9.859c0,0.456-0.004,0.914-0.012,1.369c0.182-4.045,0.076-7.585-0.451-10.213
			C173.65,82.69,173.58,82.353,173.51,82.013L173.51,82.013z M160.242,45.169c3.238,5.836,6.436,13.072,9.162,21.164
			C167.053,59.011,164.031,51.688,160.242,45.169L160.242,45.169z"/>
		<path d="M133.186,76.296c-1.676,0.008-4.033,1.012-7.199,4.663c0.049,0.157,0.096,0.315,0.143,0.474
			c2.328-3.387,5.545-4.725,7.318-4.725c0.246,0,0.467,0.027,0.65,0.076c0.564,0.156,0.92,0.278,1.145,0.278
			c0.057,0,0.104-0.009,0.143-0.024C134.961,76.702,134.236,76.302,133.186,76.296L133.186,76.296z"/>
		<path style="fill:#FFFFFF;" d="M79.033,64.261c0,0,3.769,9.417,4.037,12.377c0.268,2.96,9.149-3.496,10.764-8.881
			c1.613-5.377-1.891-32.822-4.307-31.477C87.102,37.627,84.141,57.538,79.033,64.261L79.033,64.261z"/>
		<path d="M82.684,76.674c-0.24-2.813-3.992-12.256-4.012-12.266l-0.074-0.202l0.129-0.176c3.736-4.896,6.4-17.366,8.484-23.877
			c0.738-2.177,1.283-3.68,2.113-4.205c0.109-0.064,0.24-0.102,0.369-0.102c0.563,0.047,0.818,0.471,1.105,0.986
			c0.277,0.535,0.545,1.272,0.813,2.195c0.525,1.816,1.031,4.316,1.477,7.111c0.893,5.579,1.531,12.31,1.539,16.977
			c-0.008,2.066-0.121,3.716-0.434,4.749c-1.475,4.648-7.619,9.805-10.291,9.896l-0.076,0.009
			C83.246,77.771,82.701,77.319,82.684,76.674L82.684,76.674z M83.449,76.601c0.074,0.359,0.092,0.351,0.453,0.396
			c1.936,0.102,8.363-5.109,9.563-9.352c0.258-0.867,0.389-2.5,0.389-4.528c0-4.315-0.563-10.485-1.367-15.807
			c-0.766-5.294-1.9-9.869-2.691-10.606l-0.092-0.082c-0.361,0.146-1.098,1.641-1.754,3.771c-0.691,2.148-1.447,4.971-2.287,7.968
			c-1.67,5.894-3.633,12.441-6.197,15.955C80.01,65.69,83.182,73.76,83.449,76.601L83.449,76.601z"/>
		<path d="M91.887,71.906c-0.211-0.028-0.35-0.231-0.322-0.434c0.156-1.015,0.223-2.001,0.223-2.96c0-3.625-0.979-6.798-1.967-9.048
			c-0.976-2.259-1.943-3.578-1.953-3.587c-0.121-0.166-0.084-0.406,0.082-0.535c0.176-0.129,0.416-0.082,0.545,0.083
			c0.018,0.038,4.057,5.552,4.057,13.087c0,0.995-0.064,2.02-0.221,3.071c-0.037,0.193-0.193,0.331-0.387,0.331L91.887,71.906
			L91.887,71.906z"/>
		<path d="M88.176,55.269c-0.08,0-0.158,0.023-0.227,0.074c-0.166,0.129-0.203,0.369-0.082,0.535
			c0.01,0.009,0.977,1.328,1.953,3.587c0.561,1.275,1.117,2.847,1.494,4.629c0.049-0.499,0.098-1.018,0.145-1.549
			c-0.158-0.63-0.354-1.3-0.586-2.011c-0.439-1.336-0.857-2.408-1.25-3.245c-0.635-1.181-1.123-1.851-1.129-1.863
			C88.416,55.325,88.297,55.269,88.176,55.269L88.176,55.269z"/>
		<path style="fill:#FFFFFF;" d="M90.873,70.993c0,0,3.496-22.871-0.268-30.941c-3.771-8.069,0.803,19.367-20.453,39.546
			c-21.25,20.179-31.479,25.556-34.162,33.091c-2.693,7.534-12.377-15.604,6.188-47.348c18.557-31.744,44.656-47.893,49.766-46.813
			c5.119,1.079,9.416,12.376,9.146,23.673c-0.266,11.299-0.533,22.328,0,23.675C101.637,67.222,90.873,70.993,90.873,70.993
			L90.873,70.993z"/>
		<path d="M31.896,110.927c-0.719-2.205-1.227-5.368-1.227-9.315c0-8.89,2.572-21.765,11.166-36.466
			c18.096-30.839,43.016-46.979,49.572-47.053c0.221,0,0.424,0.01,0.619,0.057c5.367,1.244,9.404,11.998,9.461,23.037
			c0,0.342-0.01,0.683-0.01,1.023c-0.156,6.529-0.313,12.967-0.313,17.495c-0.01,3.274,0.1,5.653,0.285,6.032l0.045,0.238
			c-0.1,0.775-0.83,1.126-1.797,1.725c-0.986,0.545-2.27,1.135-3.561,1.67c-2.572,1.079-5.137,1.982-5.145,1.982l-0.602,0.213
			l0.094-0.637c0-0.019,1.475-9.647,1.475-18.583c0.01-4.814-0.443-9.425-1.705-12.137c-0.305-0.664-0.572-1.069-0.711-1.189
			l-0.027,0.046c-0.074,0.119-0.166,0.359-0.25,0.674c-0.184,0.645-0.367,1.623-0.6,2.849c-0.449,2.453-1.061,5.941-2.203,9.98
			c-2.279,8.078-6.658,18.398-16.047,27.308c-21.275,20.179-31.512,25.647-34.068,32.942c-0.369,1.015-0.904,1.669-1.678,1.688
			C33.482,114.431,32.643,113.094,31.896,110.927L31.896,110.927z M42.502,65.534c-8.531,14.59-11.066,27.335-11.066,36.077
			c0,3.884,0.508,6.973,1.189,9.075c0.664,2.121,1.631,3.127,2.047,3.053c0.23,0.019,0.617-0.249,0.949-1.18
			c2.822-7.775,13.041-13.061,34.271-33.238c16.203-15.401,17.281-34.98,18.629-39.785c0.23-0.664,0.322-1.219,1.006-1.319
			c0.701,0.101,0.912,0.683,1.42,1.669c1.365,2.942,1.779,7.6,1.779,12.46c0,7.654-1.061,15.77-1.383,18.067
			c0.82-0.296,2.389-0.877,4.021-1.551c2.359-0.949,4.934-2.223,5.32-2.821l0.037-0.056c-0.268-0.783-0.313-2.988-0.322-6.28
			c0-4.546,0.156-10.983,0.303-17.513c0.01-0.333,0.02-0.674,0.02-1.006c0.047-10.863-4.307-21.442-8.863-22.281
			c-0.119-0.027-0.275-0.047-0.451-0.047h-0.047C85.441,18.858,60.338,34.935,42.502,65.534L42.502,65.534z M91.252,71.049
			l-0.379-0.065L91.252,71.049L91.252,71.049z"/>
		<path d="M100.65,38.587c0.053,0.862,0.076,1.729,0.072,2.6c0,0.332-0.01,0.673-0.02,1.006c-0.146,6.529-0.303,12.967-0.303,17.513
			c0.004,1.825,0.021,3.315,0.08,4.415c0.131-0.026,0.262-0.053,0.393-0.078C101.109,57.081,101.281,46.741,100.65,38.587
			L100.65,38.587z M98.414,27.331c0.891,2.467,1.576,5.312,1.963,8.313C99.965,31.966,99.34,28.979,98.414,27.331L98.414,27.331z"/>
		<path style="fill:#FFFFFF;" d="M119.352,69.905c-0.176-0.194-0.35-0.379-0.525-0.563c-8.926-9.168-23.582-5.377-32.131,2.13
			c-19.461,17.089-38.402,60.085-24.982,86.792c13.408,26.699,50.232,14.682,61.014-31.779
			C126.592,109.838,132.641,84.356,119.352,69.905L119.352,69.905z"/>
		<path d="M61.371,158.431c-3.184-6.326-4.557-13.529-4.557-21.083c0.008-24.669,14.627-52.982,29.623-66.161
			c5.072-4.453,12.219-7.607,19.145-7.607c4.916-0.01,9.73,1.604,13.521,5.496c0.184,0.185,0.359,0.378,0.535,0.563l-0.287,0.259
			l-0.277,0.267c-0.174-0.185-0.35-0.368-0.525-0.553c-3.633-3.727-8.207-5.266-12.967-5.266c-6.686,0-13.705,3.08-18.639,7.414
			C72.143,84.744,57.57,112.982,57.58,137.348c0,7.462,1.355,14.544,4.475,20.743c4.674,9.286,12.125,13.777,20.334,13.777
			c15.135,0.018,32.998-15.447,39.959-45.477c2.076-8.936,4.779-20.408,4.779-31.31c0-9.397-2.002-18.343-8.053-24.919l0.277-0.267
			l0.287-0.259c6.234,6.787,8.254,15.945,8.254,25.444c0,11.021-2.723,22.54-4.797,31.485c-7.018,30.23-25.029,46.057-40.707,46.075
			C73.895,172.643,66.129,167.93,61.371,158.431L61.371,158.431z"/>
		<path style="fill:#FFF797;" d="M116.34,66.747c0.969,0.66,1.893,1.434,2.764,2.328c0.025,0.026,0.053,0.055,0.078,0.081
			c0.002-0.002,0.002-0.003,0.004-0.005c-0.029-0.029-0.057-0.057-0.082-0.086C118.232,68.172,117.309,67.402,116.34,66.747
			L116.34,66.747z"/>
		<path d="M119.186,69.151c-0.002,0.002-0.002,0.003-0.004,0.005c0.15,0.153,0.295,0.31,0.438,0.462
			C119.48,69.458,119.332,69.304,119.186,69.151L119.186,69.151z"/>
		<path d="M105.879,63.69c-1.447,0-2.906,0.141-4.354,0.404c0.396,0.131,0.791,0.273,1.182,0.433
			c0.959-0.12,1.922-0.183,2.875-0.183c4.76,0,9.334,1.539,12.967,5.266c0.176,0.185,0.352,0.368,0.525,0.553l0,0
			c6.051,6.576,8.053,15.521,8.053,24.919c0,2.995-0.205,6.034-0.543,9.052c0.018,0.279,0.025,0.561,0.025,0.844
			c0,0.784-0.074,1.587-0.211,2.389c-0.129,0.725-0.313,1.424-0.547,2.096c-0.971,6.076-2.336,11.905-3.504,16.93
			c-5.977,25.783-19.99,40.829-33.412,44.559c-1.316,0.463-2.711,0.771-4.184,0.916c0,0.004,0.002,0.01,0.002,0.014
			c14.904-1.339,31.568-16.9,38.25-45.672c3.863-16.646,9.914-42.128-3.375-56.58c-0.004-0.004-0.008-0.006-0.01-0.01
			c-0.143-0.152-0.287-0.309-0.438-0.462c-0.025-0.026-0.053-0.055-0.078-0.081c-0.871-0.895-1.795-1.668-2.764-2.328
			C113.188,64.61,109.574,63.69,105.879,63.69L105.879,63.69z"/>
		<path style="fill:#FFFFFF;" d="M126.021,107.302c-1.174,6.584-7.002,11.058-13.023,9.988c-6.031-1.061-9.969-7.268-8.799-13.861
			c1.172-6.586,7-11.059,13.023-9.988C123.252,94.51,127.191,100.717,126.021,107.302L126.021,107.302z"/>
		<path d="M112.924,117.668c-5.516-0.978-9.324-6.087-9.314-11.916c0-0.792,0.064-1.586,0.213-2.388
			c1.078-6.106,6.049-10.467,11.609-10.467c0.619,0,1.236,0.055,1.863,0.165c5.516,0.978,9.314,6.087,9.314,11.915
			c0,0.784-0.074,1.587-0.211,2.389c-1.08,6.096-6.061,10.467-11.621,10.467C114.17,117.833,113.541,117.778,112.924,117.668
			L112.924,117.668z M104.578,103.502c-0.139,0.757-0.203,1.503-0.203,2.25c0,5.497,3.578,10.265,8.688,11.159
			c0.572,0.102,1.143,0.158,1.715,0.148c5.146,0.01,9.84-4.058,10.865-9.822c0.127-0.766,0.193-1.521,0.193-2.26
			c0-5.506-3.57-10.255-8.678-11.158c-0.582-0.111-1.154-0.158-1.727-0.158h-0.01C110.287,93.661,105.592,97.738,104.578,103.502
			L104.578,103.502z"/>
		<path d="M115.332,93.283c-2.436,0-4.762,0.875-6.67,2.39l0,0c0.096-0.036,0.193-0.069,0.289-0.103
			c0.332-0.111,0.666-0.208,1.008-0.286c1.641-1.039,3.521-1.623,5.463-1.623h0.01c0.572,0,1.145,0.047,1.727,0.158
			c5.107,0.903,8.678,5.652,8.678,11.158c0,0.738-0.066,1.494-0.193,2.26c-0.723,4.059-3.262,7.275-6.5,8.821
			c-0.27,0.259-0.551,0.503-0.842,0.733c3.781-1.402,6.816-4.943,7.617-9.49c1.172-6.585-2.766-12.792-8.799-13.861
			C116.52,93.334,115.924,93.283,115.332,93.283L115.332,93.283z"/>
		<path d="M119.143,116.059c-1.359,0.648-2.842,1.003-4.365,1.001c-0.041,0-0.082,0.002-0.123,0.002
			c-0.139,0-0.275-0.006-0.412-0.012c-0.168,0.118-0.342,0.234-0.516,0.341c0.326,0.032,0.652,0.046,0.977,0.046
			c1.238,0,2.449-0.221,3.598-0.645C118.592,116.562,118.873,116.317,119.143,116.059L119.143,116.059z M109.959,95.284
			c-0.342,0.078-0.676,0.175-1.008,0.286c-0.096,0.033-0.193,0.066-0.289,0.103l0,0l0,0l0,0c-0.68,0.535-1.309,1.162-1.871,1.854
			c0.244-0.068,0.49-0.127,0.738-0.176C108.25,96.542,109.07,95.847,109.959,95.284L109.959,95.284z"/>
		<path style="fill:#D8D8D8;" d="M112.047,95.019c-0.709,0.018-1.408,0.107-2.088,0.266l0,0
			C110.639,95.126,111.338,95.036,112.047,95.019L112.047,95.019z"/>
		<path d="M108.662,95.673L108.662,95.673L108.662,95.673L108.662,95.673L108.662,95.673z M109.959,95.284
			c-0.342,0.078-0.676,0.175-1.008,0.286C109.283,95.459,109.617,95.362,109.959,95.284L109.959,95.284L109.959,95.284z"/>
		<path style="fill:#231F20;" d="M120.496,106.32c-0.604,3.402-3.504,5.733-6.48,5.206c-2.973-0.528-4.896-3.715-4.293-7.116
			c0.604-3.403,3.506-5.731,6.48-5.205C119.176,99.732,121.1,102.919,120.496,106.32z"/>
		<path style="fill:#FFFFFF;" d="M116.32,104.56c-0.254,1.433-1.443,2.418-2.654,2.204c-1.213-0.216-1.99-1.55-1.736-2.982
			c0.256-1.432,1.443-2.419,2.656-2.204C115.797,101.792,116.576,103.128,116.32,104.56z"/>
		<path style="fill:#FFFFFF;" d="M86.346,100.726c-3.709,5.535-10.053,7.783-14.166,5.026c-4.121-2.757-4.455-9.479-0.738-15.013
			c3.707-5.533,10.053-7.793,14.166-5.036C89.721,88.47,90.053,95.192,86.346,100.726L86.346,100.726z"/>
		<path d="M71.957,106.075c-2.322-1.559-3.486-4.307-3.486-7.35c0-2.656,0.877-5.562,2.648-8.199
			c2.691-4.021,6.75-6.381,10.467-6.381c1.514,0,2.969,0.396,4.234,1.244c2.332,1.559,3.486,4.298,3.486,7.341
			c0,2.665-0.877,5.57-2.639,8.208c-2.703,4.021-6.76,6.373-10.477,6.373C74.68,107.312,73.221,106.915,71.957,106.075
			L71.957,106.075z M71.754,90.95c-1.688,2.518-2.518,5.284-2.518,7.775c0.01,2.858,1.08,5.32,3.146,6.713
			c1.133,0.748,2.426,1.107,3.809,1.107c3.395,0.01,7.258-2.195,9.83-6.041c1.688-2.518,2.518-5.284,2.518-7.774
			c0-2.858-1.078-5.321-3.143-6.704c-1.135-0.756-2.426-1.117-3.811-1.117h-0.01C78.193,84.909,74.328,87.104,71.754,90.95
			L71.754,90.95z"/>
		<path d="M81.346,84.625c-0.18,0-0.361,0.007-0.543,0.018c0.205,0.081,0.406,0.171,0.606,0.27c0.055-0.001,0.111-0.003,0.168-0.003
			h0.01c1.385,0,2.676,0.361,3.811,1.117c2.064,1.383,3.143,3.846,3.143,6.704c0,2.49-0.83,5.257-2.518,7.774
			c-2.572,3.846-6.436,6.051-9.83,6.041c-0.604,0-1.191-0.068-1.754-0.209c-0.408,0.082-0.814,0.137-1.217,0.162
			c0.865,0.344,1.795,0.51,2.752,0.51c3.549,0,7.504-2.271,10.133-6.199c3.707-5.533,3.385-12.257-0.738-15.015
			C84.178,84.991,82.791,84.625,81.346,84.625L81.346,84.625z"/>
		<path d="M72.871,105.731c-0.207,0.103-0.418,0.199-0.627,0.289c0.314,0.184,0.637,0.35,0.977,0.479
			c0.402-0.025,0.809-0.08,1.217-0.162C73.893,106.202,73.369,106.001,72.871,105.731L72.871,105.731z M80.803,84.643
			c-1.088,0.073-2.205,0.351-3.301,0.812c0.1,0.064,0.203,0.111,0.303,0.175c0.033,0.024,0.068,0.048,0.104,0.071
			c1.174-0.494,2.361-0.764,3.5-0.788C81.209,84.813,81.008,84.724,80.803,84.643L80.803,84.643L80.803,84.643L80.803,84.643z"/>
		<path style="fill:#231F20;" d="M82.758,97.986c-1.676,2.87-4.764,4.188-6.9,2.942c-2.133-1.246-2.506-4.582-0.832-7.453
			c1.676-2.871,4.766-4.188,6.9-2.943C84.059,91.778,84.432,95.115,82.758,97.986z"/>
		<path style="fill:#FFFFFF;" d="M82.01,95.526c-0.637,1.092-1.813,1.593-2.623,1.119c-0.813-0.474-0.953-1.742-0.316-2.833
			c0.635-1.092,1.811-1.593,2.621-1.118C82.504,93.168,82.645,94.435,82.01,95.526z"/>
		<path style="fill:#FFFFFF;" d="M76.762,162.729c0.436-0.968-0.238,5.673,7.352,8.845c0.857,0.358-0.092,5.404-0.248,6.161
			c-0.988,4.729-5.451,3.153-8.348,0.995c-1.752,0.305-4.619-0.193-5.238-1.439c-0.627-1.254-0.193-10.145-0.193-10.145
			S74.457,167.847,76.762,162.729L76.762,162.729z"/>
		<path d="M80.598,181.2c-1.74-0.008-3.65-0.959-5.18-2.065c-0.324,0.046-0.656,0.065-1.016,0.065
			c-1.734-0.028-3.773-0.461-4.473-1.744c-0.332-0.736-0.369-2.525-0.379-4.556c0-2.776,0.147-5.772,0.147-5.772l0.019-0.425
			l0.424,0.065c0,0,0.166,0.027,0.48,0.027c1.162-0.018,4.039-0.369,5.791-4.225c0.064-0.064,0.01-0.248,0.424-0.322
			c0.379,0.056,0.369,0.258,0.416,0.304c0.027,0.084,0.047,0.157,0.064,0.25c0.045,0.185,0.092,0.423,0.166,0.72
			c0.139,0.59,0.359,1.4,0.793,2.295c0.867,1.799,2.535,3.948,5.994,5.396c0.6,0.368,0.535,0.977,0.582,1.724
			c0,1.726-0.5,4.327-0.609,4.878c-0.461,2.352-1.928,3.385-3.568,3.385H80.598L80.598,181.2z M75.738,178.417
			c1.467,1.096,3.367,2.028,4.859,2.02c1.375-0.037,2.408-0.638,2.889-2.777c0.109-0.516,0.6-3.126,0.6-4.722
			c0.008-0.508-0.074-0.921-0.139-1.014l0.01-0.011c-5.488-2.258-6.816-6.436-7.23-8.244c-1.918,3.459-4.879,3.91-6.105,3.892
			h-0.176c-0.037,0.896-0.129,3.191-0.129,5.34c-0.01,1.956,0.111,3.901,0.305,4.216c0.295,0.736,2.193,1.346,3.781,1.318
			c0.377,0,0.736-0.027,1.043-0.083l0.164-0.027L75.738,178.417L75.738,178.417z M77.086,162.866l-0.01-0.009h-0.008L77.086,162.866
			L77.086,162.866z M76.791,162.737l-0.029-0.009L76.791,162.737L76.791,162.737z"/>
		<path d="M75.555,178.97c-0.213,0-0.379-0.186-0.379-0.387c0.047-2.925,1.061-14.398,1.061-14.406v0.009
			c0.02-0.212,0.203-0.368,0.416-0.351c0.211,0.02,0.369,0.203,0.35,0.416c0,0.009-1.014,11.49-1.061,14.34
			C75.941,178.803,75.768,178.97,75.555,178.97L75.555,178.97z"/>
		<path style="fill:#C2C2C2;" d="M76.059,166.237c-0.027,0.33-0.059,0.689-0.09,1.072C76.012,166.808,76.043,166.431,76.059,166.237
			L76.059,166.237z M76.096,165.81c-0.008,0.093-0.016,0.186-0.023,0.285C76.125,165.944,76.131,165.853,76.096,165.81
			L76.096,165.81z"/>
		<path style="fill:#C2C2C2;" d="M84.039,173.929c-0.125,1.514-0.463,3.311-0.553,3.73c-0.063,0.283-0.137,0.537-0.219,0.768
			C83.572,178.146,84.189,175.773,84.039,173.929L84.039,173.929z"/>
		<path d="M71.268,167.515c-4.18-0.055-8.32-5.109-8.348-10.034c0-1.06,0.193-2.12,0.637-3.117c0.092-0.193,0.322-0.276,0.506-0.193
			c0.195,0.093,0.287,0.313,0.203,0.508c-0.406,0.896-0.58,1.835-0.58,2.803c0,2.251,0.986,4.593,2.443,6.346
			c1.467,1.77,3.375,2.923,5.139,2.915c0.783,0,1.547-0.223,2.268-0.721c3.088-2.131,3.68-6.049,3.67-8.622
			c0.01-1.421-0.166-2.381-0.176-2.39h0.01c-0.037-0.203,0.102-0.404,0.305-0.441c0.213-0.037,0.406,0.1,0.451,0.313
			c0,0.01,0.186,1.043,0.186,2.519c-0.01,2.665-0.582,6.861-4.004,9.259c-0.848,0.582-1.768,0.857-2.701,0.857H71.268
			L71.268,167.515z"/>
		<path d="M76.609,161.863v0.001c-0.014-0.213,0.146-0.396,0.359-0.41c0.209-0.015,0.394,0.146,0.41,0.356
			c0,0.002,0.652,9.311,8.678,9.255c0.326,0,0.67-0.016,1.027-0.045c9.064-0.752,9.922-11.216,9.918-11.574
			c0-0.213,0.172-0.383,0.385-0.383c0.211,0,0.385,0.17,0.385,0.383c-0.006,0.485-0.832,11.4-10.621,12.338
			c-0.377,0.033-0.742,0.05-1.094,0.05C77.248,171.78,76.617,161.873,76.609,161.863z"/>
		<path d="M34.584,140.357c-0.178-0.119-0.225-0.357-0.107-0.533c1.547-2.277,5.266-5.18,8.178-5.219
			c1.039-0.013,2.023,0.43,2.6,1.441c1.336,2.341,2.336,3.393,2.965,3.333c0.283,0.003,0.633-0.158,1.074-0.6
			c1.275-1.213,2.846-3.655,4.465-3.757c0.395-0.007,0.785,0.205,1.039,0.568c0.379,0.582,2.314,1.324,4.08,1.771
			c1.773,0.468,3.408,0.745,3.412,0.747c0.209,0.035,0.351,0.233,0.314,0.445c-0.035,0.206-0.236,0.349-0.445,0.312
			c0,0-1.666-0.283-3.48-0.764c-1.822-0.504-3.756-1.096-4.502-2.061c-0.162-0.21-0.264-0.243-0.418-0.25
			c-0.793-0.103-2.68,2.22-3.92,3.532c-0.51,0.508-1.039,0.822-1.619,0.822c-1.326-0.06-2.242-1.389-3.627-3.713
			c-0.457-0.766-1.086-1.05-1.938-1.061c-2.406-0.039-6.184,2.792-7.535,4.876c-0.074,0.112-0.197,0.173-0.32,0.173L34.584,140.357z
			"/>
		<path d="M37.805,150.974c-0.063-0.202,0.053-0.416,0.26-0.475c0.025-0.004,10.035-2.978,13.25-2.99
			c0.143,0,0.277,0.006,0.402,0.021c0.111,0.01,0.217,0.017,0.32,0.017c1.896,0.044,2.672-2.181,3.219-3.575
			c0.348-0.815,0.611-1.619,1.494-1.68c0.541,0.016,1.018,0.354,1.666,0.988c0.699,0.702,1.137,0.881,1.389,0.875
			c0.273,0.012,0.588-0.229,1.051-0.619c0.162-0.134,0.404-0.109,0.541,0.052c0.133,0.165,0.109,0.407-0.055,0.54
			c-0.436,0.354-0.861,0.783-1.537,0.795c-0.596-0.006-1.18-0.35-1.934-1.101c-0.59-0.601-0.988-0.778-1.121-0.763
			c-0.145-0.055-0.451,0.318-0.781,1.197c-0.527,1.277-1.328,4.017-3.932,4.061c-0.131,0-0.268-0.01-0.408-0.023
			c-0.084-0.012-0.191-0.017-0.314-0.017c-2.922-0.012-13.025,2.947-13.035,2.957l0.002,0.001l-0.107,0.016
			C38.006,151.251,37.852,151.142,37.805,150.974z"/>
		<path d="M136.297,151.338c-0.01,0.005-4.914-2.788-8.295-3.186c-0.156-0.019-0.305-0.028-0.451-0.028
			c-1.277-0.005-2.404,0.662-3.373,1.373c-0.992,0.697-1.697,1.471-2.574,1.52c-0.256,0.006-0.527-0.106-0.719-0.302
			c-1.166-1.186-3.727-4.967-5.395-5.843c-0.219-0.124-0.691-0.206-1.283-0.202c-2.736-0.006-7.842,1.494-7.852,1.5l0.004,0.001
			c-0.205,0.061-0.42-0.056-0.48-0.259c-0.061-0.205,0.057-0.418,0.26-0.48c0.02-0.002,5.111-1.524,8.068-1.532
			c0.652,0.006,1.207,0.065,1.646,0.295c1.988,1.096,4.49,4.912,5.572,5.974l0.178,0.079c0.285,0.051,1.137-0.622,2.119-1.372
			c1.008-0.735,2.275-1.519,3.828-1.522c0.18,0,0.361,0.012,0.545,0.034c3.652,0.448,8.559,3.276,8.584,3.284
			c0.184,0.105,0.246,0.341,0.143,0.525c-0.07,0.123-0.201,0.191-0.334,0.191L136.297,151.338z"/>
		<path d="M128.971,163.278c-2.76-5.402-5.264-7.035-7.49-7.031c-0.721,0-1.436,0.168-2.148,0.462
			c-0.936,0.38-1.768,0.601-2.535,0.601c-1.9,0.006-3.176-1.393-4.158-4.203c-0.516-1.395-1.58-1.773-2.873-1.793
			c-1.918-0.008-4.053,1.02-4.053,1.025l0,0c-0.189,0.092-0.42,0.012-0.516-0.178c-0.092-0.191-0.012-0.421,0.18-0.516
			c0.025-0.008,2.217-1.094,4.389-1.102c1.436-0.019,2.977,0.545,3.596,2.303c1.002,2.752,1.994,3.689,3.436,3.696
			c0.617,0,1.363-0.186,2.246-0.546c0.781-0.32,1.594-0.518,2.438-0.518c2.668,0.005,5.387,1.968,8.178,7.452
			c0.098,0.189,0.02,0.419-0.168,0.518l-0.174,0.041C129.174,163.489,129.041,163.411,128.971,163.278z"/>
		<path style="fill:#FFFFFF;" d="M70.869,143.389c1.992-1.512,5.637-1.548,7.848-1.061c3.303,0.729,8.117,2.288,8.965,6.005
			c0.703,3.1-4.213,7.6-10.264,6.611c-3.145-0.506-7.525-4.905-7.932-8.014C69.273,145.298,69.863,144.155,70.869,143.389
			L70.869,143.389z"/>
		<path style="fill:#231D10;" d="M77.352,155.322c-3.383-0.599-7.754-4.979-8.244-8.347c-0.037-0.229-0.045-0.459-0.045-0.69
			c-0.01-1.411,0.627-2.491,1.576-3.2c1.402-1.061,3.451-1.42,5.332-1.42c1.031,0,2.01,0.11,2.83,0.294
			c3.311,0.747,8.291,2.26,9.25,6.29c0.055,0.23,0.084,0.461,0.084,0.701c-0.057,3.063-3.994,6.492-9.029,6.512
			C78.533,155.462,77.943,155.425,77.352,155.322L77.352,155.322z M71.1,143.702c-0.783,0.602-1.264,1.402-1.271,2.583
			c0,0.184,0.008,0.387,0.035,0.6c0.314,2.84,4.703,7.267,7.611,7.683c0.553,0.092,1.096,0.129,1.631,0.129
			c2.342,0,4.428-0.82,5.912-1.965c1.494-1.144,2.35-2.601,2.342-3.781c0-0.184-0.02-0.359-0.057-0.535
			c-0.728-3.402-5.375-4.998-8.668-5.709c-0.754-0.166-1.688-0.276-2.664-0.276C74.18,142.43,72.271,142.799,71.1,143.702
			l-0.23-0.313L71.1,143.702L71.1,143.702z"/>
		<path style="fill:#171108;" d="M76.004,142.056c-0.686,0-1.391,0.049-2.072,0.161c0.471,0.048,0.932,0.111,1.336,0.204
			c0.037,0.008,0.07,0.016,0.105,0.021c0.199-0.007,0.398-0.013,0.598-0.013c0.977,0,1.91,0.11,2.664,0.276
			c3.293,0.711,7.939,2.307,8.668,5.709c0.037,0.176,0.057,0.352,0.057,0.535c0.008,1.181-0.848,2.638-2.342,3.781
			c-1.484,1.145-3.57,1.965-5.912,1.965c-0.119,0-0.238-0.002-0.357-0.006c-0.357,0.111-0.729,0.208-1.109,0.281
			c0.498,0.07,0.988,0.103,1.467,0.103c5.244,0,9.211-3.937,8.576-6.741c-0.848-3.717-5.662-5.275-8.965-6.005
			C77.943,142.159,76.994,142.056,76.004,142.056L76.004,142.056z"/>
		<path d="M67.441,244.519c-2.889-7.369-4.965-9.186-5.709-9.578c-0.184-0.099-0.256-0.117-0.283-0.119l-0.105-0.012l-0.074-0.027
			c-0.02-0.041-0.098,0.035-0.211-0.277c-0.045-0.234,0.156-0.402,0.205-0.412c0.111-0.044,0.139-0.041,0.154-0.039h0.02
			l0.092,0.011l0.002-0.001l0.002,0.001c0.596,0.093,2.975,0.903,6.625,10.174c0.078,0.198-0.02,0.421-0.219,0.499l-0.139,0.025
			C67.646,244.763,67.5,244.669,67.441,244.519z M61.701,234.716l0.039-0.041L61.701,234.716z M61.779,234.263l-0.02-0.033
			L61.779,234.263z M61.689,234.148l-0.053-0.038L61.689,234.148z M61.611,234.095l-0.004-0.002v0.001L61.611,234.095z"/>
		<path d="M73.545,295.153c-0.203-0.036-0.352-0.233-0.324-0.434c0-0.008,0.019-0.111,0.019-0.367c0-0.932-0.277-3.636-3.07-7.582
			c-2.031-2.851-2.74-6.557-2.74-10.006c0-2.925,0.508-5.672,1.209-7.608c0.865-2.408,1.041-4.482,1.041-5.737
			c0-0.849-0.072-1.301-0.072-1.301c-0.029-0.212,0.109-0.406,0.322-0.441c0.203-0.038,0.406,0.109,0.434,0.321
			c0.008,0.02,0.082,0.526,0.082,1.421c0,1.326-0.176,3.485-1.088,6.004c-0.664,1.825-1.162,4.51-1.162,7.342
			c0,3.346,0.699,6.898,2.602,9.563c2.877,4.059,3.217,6.935,3.209,8.025c0,0.295-0.02,0.449-0.02,0.469
			c-0.027,0.194-0.193,0.332-0.387,0.332H73.545L73.545,295.153z"/>
		<path d="M28.852,319.639c-0.193-0.092-0.285-0.313-0.201-0.509c0.055-0.119,1.299-2.933,9.783-7.864
			c8.449-4.917,12.008-6.465,14.092-7.941c0.176-0.13,0.416-0.083,0.535,0.092c0.131,0.165,0.084,0.406-0.082,0.536
			c-2.213,1.559-5.719,3.06-14.158,7.977c-6.307,3.671-8.512,6.115-9.184,7.065c-0.232,0.313-0.277,0.432-0.277,0.432v0.008
			c-0.064,0.142-0.203,0.233-0.359,0.233L28.852,319.639L28.852,319.639z"/>
		<path d="M21.346,315.186c-0.195-0.075-0.285-0.305-0.213-0.501c0.018-0.064,1.744-4.322,8.318-6.225
			c3.201-0.932,5.93-2.026,7.914-2.913c2.02-0.885,3.105-1.504,3.477-1.595c0.203-0.047,0.406,0.091,0.441,0.304
			c0.047,0.202-0.082,0.396-0.285,0.442l-0.045,0.027l-0.203,0.083c-0.166,0.083-0.396,0.193-0.684,0.332
			c-0.58,0.276-1.393,0.663-2.389,1.116c-2,0.885-4.768,2.002-8.014,2.944c-3.154,0.912-5.109,2.368-6.281,3.596
			c-1.162,1.217-1.531,2.167-1.531,2.167c-0.063,0.155-0.211,0.246-0.359,0.246L21.346,315.186L21.346,315.186z"/>
		<path d="M18.273,311.78c0.248,1.548,1.365,2.75,2.838,3.002c0.004-0.033,0.01-0.064,0.021-0.098
			c0.004-0.008,0.041-0.104,0.123-0.265c-1.316-0.193-2.338-1.235-2.596-2.632c-0.047,0.003-0.094,0.003-0.143,0.003
			C18.436,311.791,18.354,311.788,18.273,311.78L18.273,311.78z"/>
		<path d="M38.85,305.63c0,0-0.781,0.036-2.014,0.149c-1.928,0.84-4.459,1.829-7.385,2.681c-5.633,1.628-7.705,4.989-8.195,5.96
			c-0.082,0.16-0.119,0.257-0.123,0.265c-0.012,0.033-0.018,0.065-0.021,0.098c0.125,0.019,0.252,0.035,0.381,0.041
			c0,0-0.01,0.094-0.01,0.252c1.238-2.013,3.781-5.185,8.08-6.245C36.008,307.225,38.85,305.63,38.85,305.63L38.85,305.63z"/>
		<path d="M73.225,294.684l-0.004,0.028c-1.162,8.179-17.023,15.003-24.43,22.648c-4.896,5.108-10.219,7.728-14,7.718
			c-0.787-0.003-1.5-0.113-2.139-0.329c-0.447-0.011-0.873-0.077-1.272-0.204c0.939,0.608,2.107,0.906,3.434,0.906
			c3.957,0,9.314-2.67,14.254-7.822c7.176-7.485,22.742-14.111,24.471-22.479c-0.201-0.038-0.346-0.229-0.318-0.431
			C73.221,294.717,73.223,294.706,73.225,294.684L73.225,294.684z M75.039,294.3c-0.43,0.021-0.781,0.044-1.033,0.061
			c0,0.18-0.008,0.31-0.014,0.384c0.225-0.011,0.541-0.03,0.926-0.052C74.961,294.573,75.002,294.442,75.039,294.3L75.039,294.3z"/>
		<path d="M69.99,261.671c-0.019,0-0.041,0.001-0.06,0.006c-0.213,0.035-0.352,0.23-0.322,0.441c0,0,0.072,0.452,0.072,1.301
			c0,1.255-0.176,3.329-1.041,5.737c-0.701,1.936-1.209,4.684-1.209,7.608c0,3.449,0.709,7.155,2.74,10.006
			c2.793,3.946,3.07,6.65,3.07,7.582c0,0.176-0.01,0.281-0.016,0.331c-0.002,0.022-0.004,0.033-0.004,0.036
			c-0.027,0.201,0.117,0.393,0.318,0.431c0.025-0.127,0.049-0.257,0.07-0.384c0,0,0.139-0.008,0.383-0.022
			c0.006-0.074,0.014-0.204,0.014-0.384c0-0.006,0-0.006,0-0.008c0.008-1.09-0.332-3.967-3.209-8.025
			c-1.902-2.664-2.602-6.217-2.602-9.563c0-2.832,0.498-5.517,1.162-7.342c0.912-2.519,1.088-4.678,1.088-6.004
			c0-0.895-0.074-1.401-0.082-1.421C70.338,261.809,70.172,261.671,69.99,261.671L69.99,261.671z"/>
		<path d="M29.055,319.663c-0.014,0-0.027,0-0.041,0.003c-0.006,0.047-0.016,0.097-0.021,0.146
			C29.012,319.763,29.031,319.713,29.055,319.663L29.055,319.663z M22.654,317.869c0.76,0.735,2,1.315,4.033,1.315
			c0.6,0,1.271-0.049,2.018-0.16c0.047-0.094,0.133-0.237,0.273-0.437c-0.871,0.147-1.635,0.21-2.303,0.21
			c-1.623-0.011-2.693-0.384-3.396-0.896c-0.02,0-0.039,0-0.057,0C23.029,317.902,22.84,317.892,22.654,317.869L22.654,317.869z"/>
		<path d="M51.018,304.278c-2.254,1.305-5.879,3.087-12.584,6.987c-6.449,3.751-8.717,6.274-9.455,7.322
			c-0.141,0.199-0.226,0.343-0.273,0.437c0.166-0.027,0.34-0.055,0.516-0.085c0,0-0.127,0.27-0.207,0.727
			c0.014-0.003,0.027-0.003,0.041-0.003c0.779-1.785,2.994-4.215,8.375-7.292C46.229,307.338,50.484,304.897,51.018,304.278
			L51.018,304.278z"/>
	</g>
</g>

    <text x="10" y="832" font-size="12" fill="gray" opacity="0.6" font-family="Arial, sans-serif">
      twoja-kolorowanka.pl
    </text>
  
</svg>
