<?xml version="1.0" encoding="utf-8"?>
<!-- Generator: Adobe Illustrator 27.5.0, SVG Export Plug-In . SVG Version: 6.00 Build 0)  -->
<svg version="1.1" id="Layer1" xmlns="http://www.w3.org/2000/svg" xmlns:xlink="http://www.w3.org/1999/xlink" x="0px" y="0px"
	 viewBox="0 0 4000 4000" style="enable-background:new 0 0 4000 4000;" xml:space="preserve">
<rect style="fill:#FFFFFF;" width="4000" height="4000"/>
<g>
	<g>
		<g>
			<g>
				<path d="M1980.932,2950.759c-50.52,0.004-90.227-41.928-118.071-124.717c-29.393-87.373-47.159-165.043-54.315-237.447
					c-12.336-124.854,22.323-249.475,55.84-369.997c13.533-48.659,27.528-98.978,37.863-147.751
					c0.726-3.425,1.495-7.258,2.327-11.407c2.622-13.062,5.772-28.767,10.179-45.166
					c-99.386-35.613-168.186-135.952-168.607-247.923c-0.545-144.899,110.251-263.254,246.983-263.834c0.34,0,0.685,0,1.024,0
					c65.985,0,128.04,27.131,174.848,76.469c46.873,49.407,72.831,115.205,73.094,185.275
					c0.41,109.424-62.953,207.093-158.657,246.195c2.797,13.992,4.54,27.402,5.896,39.034
					c6.747,57.85,23.103,114.435,38.921,169.158c16.71,57.809,33.99,117.593,40.492,180.016l0,0
					c0.885,8.486,1.663,17.181,2.311,25.849c8.547,114.344-5.351,230.361-40.188,335.513c-1.38,4.168-2.816,8.596-4.319,13.23
					c-21.073,65.009-56.342,173.811-141.698,177.419C1983.543,2950.732,1982.233,2950.759,1980.932,2950.759z M1994.151,1524.656
					c-0.313,0-0.616,0-0.927,0.004c-124.53,0.526-225.435,108.909-224.938,241.608c0.401,106.197,67.532,200.885,163.249,230.261
					l10.505,3.226l-3.146,10.526c-5.704,19.084-9.533,38.176-12.61,53.514c-0.851,4.237-1.634,8.146-2.376,11.643
					c-10.478,49.449-24.566,100.103-38.19,149.094c-32.972,118.558-67.067,241.154-55.139,361.885
					c6.99,70.722,24.414,146.795,53.266,232.57c25.043,74.451,58.628,111.28,100.078,109.568
					c69.974-2.959,102.273-102.593,121.57-162.125c1.518-4.683,2.969-9.156,4.363-13.367
					c33.927-102.402,47.456-215.441,39.127-326.897c-0.633-8.451-1.392-16.933-2.254-25.205l0,0
					c-6.298-60.467-23.3-119.282-39.741-176.164c-16.067-55.589-32.684-113.069-39.642-172.743
					c-1.586-13.611-3.72-29.724-7.505-46.012l-2.222-9.565l9.233-3.348c91.964-33.332,153.493-125.274,153.106-228.782
					c-0.242-64.406-24.043-124.823-67.019-170.123C2110.361,1549.342,2053.996,1524.656,1994.151,1524.656z"/>
			</g>
		</g>
		<g>
			<g>
				<g>
					<path d="M321.991,855.326c0.033,1.569-0.796,3.257-2.96,5.172c-8.485,7.51-20.558,9.498-31.462,7.562
						c-7.232-1.284-24.505-6.471-22.565-16.568c1.459-7.595,18.464-8.787,24.078-9.317
						C297.527,841.378,321.712,841.978,321.991,855.326z"/>
				</g>
			</g>
			<g>
				<g>
					<path d="M293.024,924.862c7.717,5.85,1.128,18.078-4.808,22.292c-5.254,3.73-11.932,5.017-18.372,4.798
						c-7.422-0.252-14.993-2.532-20.462-7.555c-2.684-2.465-4.905-6.255-3.531-9.631c1.034-2.541,3.736-3.927,6.27-4.977
						C259.365,926.788,284.045,918.078,293.024,924.862z"/>
				</g>
			</g>
			<g>
				<g>
					<path d="M299.935,977.653c6.786,6.852,12.157,19.103,10.036,28.746c-0.604,2.744-2.218,5.532-4.895,6.383
						c-2.184,0.695-4.551-0.043-6.659-0.943c-12.847-5.476-22.714-17.462-25.621-31.121c-1.569-7.373,0.876-16.751,10.106-14.412
						C289.362,967.943,295.34,973.013,299.935,977.653z"/>
				</g>
			</g>
			<g>
				<g>
					<path d="M284.51,1039.41c-4.708-2.315-9.101-4.341-12.218-6.14c-3.604-2.08-7.651-4.237-11.716-3.348
						c-4.698,1.027-7.711,6.024-7.892,10.83c-0.181,4.806,1.861,9.406,4.176,13.622c3.872,7.053,8.635,13.616,14.142,19.483
						c10.427,11.111,30.843,14.741,38.205-2.663C315.61,1056.056,295.539,1044.833,284.51,1039.41z"/>
				</g>
			</g>
			<g>
				<g>
					<path d="M1141.549,1196.953c-16.089-33.313-79.199-66.077-111.339-63.773c-20.698,1.368-36.202,8.943-42.489,20.776
						c-3.281,6.249-5.546,16.559,2.538,30.422c12.38,21.244,36.397,39.014,65.804,48.659c0.429,0.156,30.071,9.217,54.165,9.217
						c5.038,0,9.842-0.39,14.099-1.366c4.218-0.976,7.889-2.461,10.701-4.726c0.702-0.547,1.367-1.172,1.953-1.835
						C1146.509,1223.821,1148.11,1210.543,1141.549,1196.953z M1126.709,1224.914l-0.429,0.39
						c-8.826,7.147-47.645,0.469-65.882-5.506c-26.204-8.592-47.409-24.095-58.109-42.45c-3.905-6.678-4.648-12.341-2.266-16.832
						c3.866-7.264,15.777-12.419,31.125-13.434c0.742-0.078,1.485-0.078,2.305-0.078c27.376,0,82.674,29.29,95.562,56.001
						C1133.192,1211.636,1132.45,1218.587,1126.709,1224.914z"/>
				</g>
			</g>
			<g>
				<g>
					<path d="M1048.721,1261.155c-6.287-26.245-27.805-44.013-63.967-52.799c-49.363-11.951-76.661-11.443-85.877,1.718
						c-3.945,5.545-7.264,14.997-0.976,28.274c13.551,28.43,65.296,59.087,104.505,61.86c1.913,0.116,3.788,0.194,5.584,0.194
						c16.754,0,29.368-5.74,36.632-16.714c3.241-4.882,4.921-10.271,4.921-15.817
						C1049.542,1265.646,1049.268,1263.421,1048.721,1261.155z M1033.022,1275.995c-6.482,9.803-19.682,11.013-29.64,10.311
						c-33.781-2.382-81.542-30.11-92.906-53.971c-4.14-8.709-1.172-12.887-0.195-14.293c0.742-1.054,4.218-4.375,18.042-4.375
						c10.544,0,27.142,1.914,53.15,8.241c15.309,3.71,27.494,9.139,36.476,16.245c8.982,7.108,14.762,15.895,17.222,26.244
						C1036.185,1268.575,1035.482,1272.246,1033.022,1275.995z"/>
				</g>
			</g>
			<g>
				<g>
					<path d="M878.53,1089.285c-0.547-8.553-2.343-16.676-5.311-24.174c-2.968-7.537-7.108-14.449-12.34-20.503
						c-16.675-19.331-46.395-28.586-72.325-22.415c-20.776,4.919-35.578,19.252-40.616,39.286
						c-6.834,27.298,2.968,45.848,12.38,56.626c14.215,16.207,37.881,25.853,62.406,25.853c3.436,0,6.873-0.195,10.349-0.586
						c15.425-1.718,27.064-6.95,34.64-15.464C875.835,1118.808,879.545,1105.452,878.53,1089.285z M857.324,1118.653
						c-5.232,5.897-13.942,9.568-25.813,10.895c-23.549,2.656-47.411-5.428-60.688-20.619
						c-10.388-11.872-13.629-27.064-9.373-44.051c5.116-20.307,21.167-26.985,30.305-29.134c4.256-1.014,8.669-1.483,13.122-1.483
						c8.591,0,17.339,1.797,25.228,5.156c7.928,3.359,14.996,8.2,20.229,14.293c8.475,9.841,13.395,22.416,14.294,36.436
						C865.174,1098.774,864.354,1110.724,857.324,1118.653z"/>
				</g>
			</g>
			<g>
				<g>
					<path d="M726.732,1152.042c-5.116-7.694-11.911-13.708-20.151-17.847c-22.885-11.442-54.752-10.311-77.559,2.773
						c-17.847,10.231-28.352,26.517-29.601,45.848c-0.508,8.084-0.664,36.007,19.018,56.274
						c13.2,13.551,32.101,20.385,56.197,20.385c1.64,0,3.32,0,4.999-0.078c20.347-0.742,38.037-12.965,48.543-33.428
						C740.596,1201.717,740.01,1171.998,726.732,1152.042z M715.758,1219.603c-8.123,15.895-21.479,25.306-36.67,25.893
						c-22.416,0.82-39.444-4.57-50.651-16.129c-15.699-16.128-15.543-39.013-15.114-45.652
						c1.211-18.628,12.966-29.133,22.651-34.678c10.271-5.898,22.729-8.865,34.991-8.865c10.427,0,20.698,2.147,29.407,6.483
						c6.014,3.046,10.974,7.458,14.762,13.122C725.522,1175.396,725.795,1200.037,715.758,1219.603z"/>
				</g>
			</g>
			<g>
				<g>
					<path d="M704.59,925.225c-26.713-16.754-59.634-26.478-95.25-28.119c-50.182-2.225-100.639,11.013-143.986,23.666
						c-6.834,1.992-15.387,4.492-22.299,10.037c-8.591,6.834-12.575,17.222-10.192,26.4c3.593,13.707,18.198,18.628,28.899,21.166
						c51.042,12.107,102.825,18.16,154.765,18.16c31.477,0,62.992-2.226,94.468-6.679c7.576-1.054,13.668-2.851,18.238-5.389
						c4.608-2.538,7.732-5.818,9.451-9.88C747.742,953.069,709.042,927.997,704.59,925.225z M725.834,969.198
						c-0.469,1.093-3.085,4.921-16.832,6.873c-81.659,11.559-163.786,7.771-244.04-11.248c-11.247-2.655-17.339-6.326-18.628-11.169
						c-1.132-4.335,1.992-9.256,5.429-11.989c4.765-3.827,11.521-5.78,17.496-7.537c40.771-11.872,84.08-23.354,128.287-23.354
						c3.71,0,7.421,0.078,11.169,0.274c33.195,1.485,63.812,10.466,88.493,25.971C716.306,949.007,728.061,963.886,725.834,969.198z
						"/>
				</g>
			</g>
			<g>
				<g>
					<path d="M713.493,1062.963c-12.262-29.641-51.549-75.606-176.244-50.729c-91.617,18.277-139.379,42.723-138.168,70.763
						c0.742,17.652,21.01,29.095,40.575,31.281c1.328,0.117,77.676,8.045,150.978,8.045c26.243,0,52.096-1.016,74.005-3.749
						c21.908-2.774,39.794-7.225,50.182-14.177C722.125,1099.516,720.016,1078.662,713.493,1062.963z M705.332,1093.893
						c-38.935,22.494-196.825,14.02-264.113,6.521c-15.23-1.679-27.884-9.763-28.235-18.041
						c-0.234-5.156,4.842-32.102,126.959-56.47c24.096-4.804,44.638-6.834,62.173-6.834c47.995,0,73.38,15.23,86.697,30.343
						C704.433,1067.063,706.23,1087.644,705.332,1093.893z"/>
				</g>
			</g>
			<g>
				<g>
					<path d="M345.684,796.232c0.608,0.879,1.071,1.974,1.354,3.342c1.587,7.697-6.824,17.006-13.091,19.89
						c-10.862,4.994-46.092-7.771-31.677-21.86c7.356-7.19,19.817-6.26,29.194-5.388
						C336.933,792.724,342.865,792.159,345.684,796.232z"/>
				</g>
			</g>
			<g>
				<g>
					<path d="M472.734,822.906c-5.428-3.787-11.325-6.404-17.066-7.498c-16.675-3.202-33.546,0.977-49.246,5.975
						c-5.702,1.835-17.535,5.584-22.064,16.012c-3.516,8.044-3.085,16.363,1.249,24.056c10.856,19.331,43.075,29.759,56.079,31.555
						c4.14,0.586,8.006,0.859,11.677,0.859c10.076,0,18.472-2.148,25.502-6.482c12.653-7.811,15.582-18.356,15.777-25.814v-0.977
						C494.643,847.041,486.129,832.318,472.734,822.906z M471.563,875.511c-6.717,4.178-15.855,5.389-27.962,3.71
						c-12.457-1.718-38.467-11.404-45.848-24.603c-2.187-3.905-2.382-7.615-0.624-11.677c1.757-4.062,7.537-6.366,13.512-8.279
						c12.145-3.867,22.729-6.483,32.726-6.483c3.281,0,6.522,0.313,9.685,0.898c3.788,0.742,7.849,2.539,11.677,5.233
						c9.685,6.834,16.285,17.847,16.011,26.869C480.545,867.037,477.459,871.878,471.563,875.511z"/>
				</g>
			</g>
			<g>
				<g>
					<path d="M641.324,853.056c-4.139-14.177-37.334-24.369-51.784-28.197c-54.79-20.112-86.502-10.543-93.648,0.274
						c-2.617,3.983-2.382,8.67,0.664,11.872c6.482,6.912,91.656,33.741,123.953,33.741h0.312c8.514-0.038,14.02-1.718,17.34-5.311
						C641.48,861.842,642.613,857.429,641.324,853.056z M512.295,830.131c9.45-3.554,32.647-6.873,72.754,7.928l0.625,0.195
						c20.347,5.351,40.497,14.254,42.451,17.534C617.659,862.779,536.195,839.816,512.295,830.131z"/>
				</g>
			</g>
			<g>
				<g>
					<path d="M962.766,996.417c-12.809-7.186-23.51-8.787-31.867-4.764c-9.997,4.842-11.95,15.464-12.145,16.636l-0.39,2.343
						l1.171,2.109c1.445,2.655,31.984,57.759,70.178,57.759c5.545,0,11.208-1.172,16.987-3.788
						c12.341-5.585,14.958-13.278,14.958-18.745C1021.775,1025.785,976.943,1003.056,962.766,996.417z M1000.921,1054.02
						c-30.07,13.668-60.844-33.975-67.756-45.496c0.664-1.484,1.836-3.398,3.867-4.335c3.944-1.874,10.74-0.274,19.135,4.491
						l0.468,0.234c24.72,11.56,51.159,29.954,51.12,38.974C1007.716,1050.544,1003.459,1052.887,1000.921,1054.02z"/>
				</g>
			</g>
			<g>
				<g>
					<path d="M828.035,953.81h-0.039c-30.383-15.581-49.401-18.55-59.945-9.411c-11.209,9.724-5.507,27.649-4.803,29.641
						l0.585,1.718l1.368,1.211c2.069,1.875,46.629,41.278,86.071,41.278c4.413,0,8.748-0.507,12.926-1.562
						c12.341-3.202,15.582-9.568,16.129-14.332C882.396,984.271,844.437,962.403,828.035,953.81z M860.722,1003.174
						c-31.281,8.161-76.114-27.962-84.783-35.304c-0.938-3.945-1.563-10.544,1.249-12.965c1.367-1.211,10.115-6.288,44.403,11.286
						c23.354,12.184,45.184,29.016,44.949,34.367C866.541,1000.557,865.565,1001.924,860.722,1003.174z"/>
				</g>
			</g>
			<g>
				<g>
					<path d="M1229.417,1203.201c-7.458-11.091-17.456-20.698-27.141-29.953l-7.186-6.912
						c-12.77-12.536-25.462-24.643-40.302-34.952c-7.029-4.921-17.886-11.56-30.773-12.731c-9.021-0.821-16.051,1.562-19.213,6.482
						c-1.485,2.304-3.359,7.186,0.546,13.942c12.185,21.166,34.718,39.521,57.251,56.157c13.044,9.685,27.415,19.448,43.818,25.423
						c2.343,0.859,7.85,2.616,13.238,2.616c4.218,0,8.396-1.054,11.052-4.413
						C1232.971,1215.971,1234.573,1210.894,1229.417,1203.201z M1211.18,1207.574c-14.723-5.35-28.079-14.489-40.302-23.509
						c-19.761-14.645-41.396-32.023-53.033-51.433c1.132-0.195,2.812-0.312,4.921-0.116c4.764,0.468,9.372,2.031,13.473,3.983
						c4.101,1.953,7.733,4.295,10.623,6.326c13.942,9.685,26.165,21.362,38.466,33.469c2.382,2.343,4.842,4.686,7.303,7.029
						c8.552,8.162,17.378,16.597,23.861,25.697C1214.929,1208.747,1213.094,1208.278,1211.18,1207.574z"/>
				</g>
			</g>
			<g>
				<g>
					<path d="M360.845,1030.079c10.824,6.791,17.448,21.351,19.142,34.836c0.502,3.995,0.531,8.314-1.599,11.733
						c-11.591,18.593-43.466-2.93-50.909-14.944c-4.23-6.829-6.516-15.627-3.099-22.897c2.417-5.143,7.373-8.755,12.717-10.693
						C346.409,1024.738,354.377,1026.022,360.845,1030.079z"/>
				</g>
			</g>
			<g>
				<g>
					<path d="M402.01,892.147c-2.187-2.461-4.921-4.374-8.162-5.662c-4.96-1.953-10.661-2.383-17.456-1.289
						c-23.744,3.788-43.7,23.823-47.41,47.566c-1.601,10.35,1.054,18.941,7.264,23.666c3.203,2.383,6.678,3.359,10.037,4.179
						c5.271,1.249,11.794,2.499,18.628,2.499c7.146,0,14.605-1.366,21.361-5.428c8.553-5.116,15.035-14.294,18.277-25.775
						C406.462,924.99,412.398,903.94,402.01,892.147z M391.115,928.115c-1.289,4.686-4.608,13.199-12.029,17.613
						c-6.795,4.099-16.167,4.53-29.562,1.327c-1.992-0.468-3.828-0.976-4.882-1.757c-2.343-1.757-2.499-6.521-1.914-10.388
						c2.773-17.652,18.199-33.117,35.851-35.967c1.718-0.274,3.28-0.391,4.686-0.391c2.109,0,3.944,0.274,5.467,0.898
						c1.172,0.469,2.109,1.094,2.812,1.914C394.004,904.137,395.918,911.048,391.115,928.115z"/>
				</g>
			</g>
			<g>
				<g>
					<path d="M473.138,1162.327c0.659,1.244,1.257,2.482,1.791,3.691c5.404,12.242,2.589,27.659-7.03,37.25
						c-12.255,12.218-29.196,4.924-39.382-6.214c-10.778-11.785-9.379-30.913-0.682-43.459c5.582-8.052,15.207-12.822,24.97-10.299
						C461.99,1145.669,468.884,1154.299,473.138,1162.327z"/>
				</g>
			</g>
			<g>
				<g>
					<path d="M345.845,1156.862c-2.878-3.257-5.588-6.729-8.055-10.176c-3.129-4.371-6.874-10.959-2.661-15.872
						c3.456-4.031,9.537-3.452,14.229-2.862c8.24,1.036,20.648,6.983,20.383,17.112c-0.157,6.01-1.124,15.992-6.299,20.019
						c-4.277,3.328-9.535-0.003-12.792-3.167C349.007,1160.32,347.401,1158.623,345.845,1156.862z"/>
				</g>
			</g>
			<g>
				<g>
					<path d="M421.576,1237.354c-8.135-4.149-17.146-6.576-26.266-7.056c-2.486-0.131-5.249-0.02-7.058,1.691
						c-1.505,1.423-1.976,3.688-1.672,5.737c0.303,2.049,1.277,3.932,2.31,5.727c6.489,11.275,16.374,21.056,28.74,25.094
						c5.801,1.894,12.756,2.273,17.45-1.627c11.538-9.586-2.357-23.321-11.018-28.228
						C423.243,1238.227,422.414,1237.781,421.576,1237.354z"/>
				</g>
			</g>
			<g>
				<g>
					<path d="M488.451,1339.555c12.295,4.324,14.964,15.921,15.341,27.37c0.253,7.65,1.725,12.102-4.09,15.889
						c-8.067,5.253-26.728-4.703-32.936-9.389c-11.407-8.611-22.271-36.743-1.016-36.92L488.451,1339.555z"/>
				</g>
			</g>
			<g>
				<g>
					<path d="M628.369,1308.646c3.058,5.232,1.757,12.077-6.075,17.92c-5.324,3.972-12.018,5.602-18.584,6.609
						c-16.189,2.484-32.909,1.717-48.709-2.601c-5.486-1.499-11.682-4.32-12.763-9.904c-0.699-3.612,1.143-7.354,3.877-9.816
						c2.734-2.462,6.246-3.859,9.73-5.041c18.711-6.349,38.94-7.851,58.522-5.214
						C620.986,1301.49,625.993,1304.581,628.369,1308.646z"/>
				</g>
			</g>
			<g>
				<g>
					<path d="M513.842,1432.247c-5.979-3.05-13.031-4.177-19.457-2.932c-5.049,0.978-10.023,3.456-12.893,7.724
						c-3.199,4.758-3.299,11.168-1.147,16.482c2.151,5.314,6.305,9.62,10.996,12.915c4.324,3.038,9.273,5.354,14.53,5.902
						c5.256,0.549,10.839-0.823,14.76-4.368c7.323-6.623,8.467-20.834,2.22-28.544
						C520.432,1436.442,517.318,1434.02,513.842,1432.247z"/>
				</g>
			</g>
			<g>
				<g>
					<path d="M636.435,1422.477c4.757,3.094,7.957,7.712,7.402,14.033c-1.588,18.048-23.242,16.966-36.198,13.554
						c-8.319-2.192-16.597-5.718-23.614-10.741c-4.751-3.401-16.425-13.486-4.555-15.732c11.401-2.158,22.875-3.936,34.344-5.693
						C620.522,1416.87,629.933,1418.248,636.435,1422.477z"/>
				</g>
			</g>
			<g>
				<g>
					<path d="M636.267,1541.374c-1.457,2.558-3.886,4.564-6.378,6.214c-8.784,5.816-17.204,13.794-27.664,16.499
						c-3.534,0.914-7.461,0.864-10.643-0.926c-8.25-4.642-12.107-17.041-10.789-25.938c1.318-8.893,8.256-12.51,16.272-14.224
						c8.334-1.782,25.196-6.933,32.918-1.671c2.411,1.643,4.172,4.092,5.502,6.689c1.789,3.494,2.879,7.613,1.673,11.349
						C636.93,1540.071,636.629,1540.739,636.267,1541.374z"/>
				</g>
			</g>
			<g>
				<g>
					<path d="M549.036,1585.823c2.855,3.025,6.364,6.122,6.732,10.503c1.089,12.98-16.562,18.705-26.288,13.916
						c-11.673-5.748-19.7-24.054-4.811-30.976c9.817-4.564,16.054-4.116,22.461,4.354
						C547.69,1584.361,548.344,1585.09,549.036,1585.823z"/>
				</g>
			</g>
			<g>
				<g>
					<path d="M556.812,1665.726c9.617,5.729,9.972,19.217,10.547,29.084c0.375,6.427,4.609,24.037-7.253,20.726
						c-11.921-3.328-26.464-10.407-33.428-21.068c-5.377-8.231-2.027-16.67,5.25-22.28
						C537.549,1667.855,549.785,1661.541,556.812,1665.726z"/>
				</g>
			</g>
			<g>
				<g>
					<path d="M644.205,1665.265c8.743,6.871,15.525,20.148,6.385,28.862c-4.692,4.473-10.711,3.814-16.26,1.67
						c-12.998-5.023-24.924-18.275-21.808-33.3c2.277-10.97,20.309-3.143,26.447-0.44
						C640.72,1662.828,642.5,1663.925,644.205,1665.265z"/>
				</g>
			</g>
			<g>
				<g>
					<path d="M1331.257,1327.147c-6.852-0.922-13.476-3.534-18.883-7.82c-7.041-5.582-11.861-14.067-12.437-23.035
						c-0.376-5.854,1.541-12.48,6.74-15.198c8.444-4.414,21.809,0.773,28.765,5.967c7.731,5.773,13.994,14.307,16.879,23.541
						c0.819,2.622,1.396,5.443,0.704,8.102c-1.612,6.198-9.117,8.722-15.52,8.816
						C1335.42,1327.549,1333.328,1327.425,1331.257,1327.147z"/>
				</g>
			</g>
			<g>
				<g>
					<path d="M1369.929,1651.916c-3.866-44.091-17.105-85.956-39.365-124.5c-40.615-70.295-106.379-120.439-185.227-141.176
						c-78.808-20.736-161.248-9.645-232.128,31.282c-70.842,40.927-121.688,106.769-143.089,185.422
						c-7.264,26.595-10.856,53.619-10.856,80.409c0,52.408,13.746,104.076,40.614,150.587c6.014,10.466,12.77,20.659,19.995,30.305
						l20.737,27.688l-3.007-34.484c-9.646-110.167,46.472-217.406,142.893-273.095c125.749-72.638,285.514-40.654,371.703,74.317
						l20.737,27.687L1369.929,1651.916z M970.616,1567.249c-92.75,53.58-150.587,151.759-153.711,256.732
						c-37.92-65.687-47.762-142.347-27.728-215.844c20.034-73.574,67.6-135.199,133.911-173.51
						c44.52-25.697,93.883-38.857,143.831-38.857c24.525,0,49.128,3.162,73.38,9.529c73.731,19.409,135.2,66.272,173.159,131.998
						c15.075,26.048,25.697,53.737,31.789,82.635C1249.608,1519.253,1094.608,1495.627,970.616,1567.249z"/>
				</g>
			</g>
			<g>
				<g>
					<path d="M1534.106,1502.266c-7.342-9.568-15.348-18.824-23.744-27.454l-24.174-24.76l7.459,33.781
						c23.9,108.019-17.808,221.624-106.184,289.379c-115.205,88.376-277.82,77.441-378.185-25.345l-24.174-24.759l7.459,33.781
						c9.568,43.192,28.118,82.987,55.22,118.29c59.477,77.597,149.65,118.291,241.072,118.251
						c65.257,0,131.178-20.737,187.024-63.539c64.944-49.792,106.769-121.688,117.782-202.449
						C1604.674,1646.683,1583.507,1566.703,1534.106,1502.266z M1574.096,1724.788c-10.31,75.566-49.479,142.816-110.246,189.445
						c-125.437,96.186-305.079,73.302-400.406-51.042c-18.315-23.9-32.452-49.949-42.255-77.793
						c107.902,87.36,264.698,90.602,378.302,3.514c84.979-65.218,129.576-170.074,118.993-274.578
						C1564.646,1574.552,1584.367,1649.299,1574.096,1724.788z"/>
				</g>
			</g>
			<g>
				<g>
					<g>
						<path d="M1238.674,1674.488c-54.049-1.679-57.095-4.374-64.789-57.914l-5.545,0.312c-1.68,54.049-4.374,57.095-57.916,64.788
							l0.313,5.545c54.048,1.679,57.094,4.374,64.787,57.915l5.546-0.313c1.679-54.048,4.373-57.094,57.914-64.788
							L1238.674,1674.488z M1176.892,1719.945c-5.741-26.556-14.254-34.171-41.279-36.905c26.517-5.74,34.171-14.254,36.905-41.278
							c5.741,26.517,14.254,34.171,41.279,36.904C1187.241,1684.407,1179.625,1692.921,1176.892,1719.945z"/>
					</g>
				</g>
			</g>
			<g>
				<g>
					<g>
						<path d="M914.498,1882.795l-5.155-1.992c-23.822,48.581-27.532,50.221-79.472,35.187l-1.992,5.194
							c48.582,23.783,50.222,27.492,35.186,79.471l5.155,1.992c23.783-48.581,27.532-50.221,79.472-35.226l1.992-5.155
							C901.103,1938.484,899.462,1934.774,914.498,1882.795z M874.664,1978.239c5.702-26.556,1.093-36.983-22.416-50.612
							c26.556,5.702,37.022,1.054,50.613-22.416c-5.663,26.517-1.055,36.983,22.416,50.612
							C898.759,1950.121,888.293,1954.768,874.664,1978.239z"/>
					</g>
				</g>
			</g>
			<g>
				<g>
					<g>
						<path d="M1719.704,1858.211l-2.187-5.077c-51.432,16.754-55.181,15.231-80.604-32.531l-5.077,2.149
							c16.754,51.471,15.23,55.22-32.531,80.604l2.148,5.115c51.432-16.753,55.221-15.23,80.605,32.531l5.115-2.187
							C1670.42,1887.384,1671.943,1883.634,1719.704,1858.211z M1623.479,1896.092c23.001-14.371,27.259-24.993,20.698-51.315
							c14.411,23.001,24.994,27.298,51.354,20.736c-23.041,14.372-27.298,24.994-20.737,51.316
							C1660.383,1893.827,1649.8,1889.532,1623.479,1896.092z"/>
					</g>
				</g>
			</g>
			<g>
				<path d="M1221.863,2054.448c-95.229-2.513-190.42-5.061-285.646-7.613l-7.448-0.198c-71.473-1.891-145.385-3.844-217.974-14.488
					c-35.191-5.148-71.698-13.039-100.286-35.708c-28.079-22.299-43.77-54.758-56.545-86.515
					c-34.486-85.801-53.911-177.643-72.695-266.462c-19.626-92.792-39.92-188.745-77.375-276.709
					c-34.049-80.016-82.907-154.677-130.634-223.439c-48.335-69.673-114.529-165.093-90.384-263.037
					c21.391-86.885,107.01-138.644,182.375-151.394c82.458-13.939,167.148,7.437,239.109,30.197
					c180.166,57.034,349.87,141.158,504.397,250.036c203.871,143.732,376.593,327.737,543.628,505.682
					c24.208,25.788,45.885,47.912,66.849,69.303c21.044,21.479,42.806,43.69,67.177,69.646l-16.14,15.156
					c-24.21-25.789-45.887-47.912-66.851-69.307c-21.044-21.475-42.806-43.686-67.177-69.643
					c-166.278-177.141-338.215-360.31-540.242-502.741C943.336,919.649,775.677,836.54,597.681,780.193
					c-69.437-21.964-150.908-42.645-228.738-29.476c-68.229,11.544-145.578,57.721-164.568,134.861
					c-21.754,88.238,41.146,178.914,87.075,245.116c48.398,69.73,97.986,145.54,132.815,227.39
					c38.298,89.947,58.819,186.972,78.664,280.801c18.59,87.891,37.811,178.773,71.578,262.785
					c11.637,28.927,25.721,58.335,49.763,77.43c24.484,19.412,57.597,26.44,89.732,31.143
					c71.288,10.45,144.527,12.387,215.354,14.26l7.454,0.202c95.223,2.548,190.412,5.099,285.637,7.608L1221.863,2054.448z"/>
			</g>
		</g>
		<g>
			<g>
				<g>
					<path d="M3677.996,871.414c-0.033,1.568,0.796,3.257,2.96,5.171c8.485,7.51,20.558,9.498,31.463,7.562
						c7.231-1.284,24.504-6.471,22.564-16.568c-1.459-7.595-18.464-8.787-24.078-9.317
						C3702.46,857.467,3678.275,858.066,3677.996,871.414z"/>
				</g>
			</g>
			<g>
				<g>
					<path d="M3706.963,940.95c-7.717,5.85-1.128,18.078,4.808,22.292c5.254,3.73,11.932,5.017,18.372,4.798
						c7.422-0.252,14.993-2.531,20.462-7.555c2.685-2.465,4.906-6.255,3.532-9.631c-1.034-2.541-3.736-3.927-6.27-4.977
						C3740.622,942.876,3715.942,934.166,3706.963,940.95z"/>
				</g>
			</g>
			<g>
				<g>
					<path d="M3700.052,993.741c-6.786,6.852-12.156,19.104-10.035,28.746c0.604,2.744,2.217,5.531,4.895,6.383
						c2.184,0.694,4.551-0.044,6.66-0.943c12.847-5.476,22.714-17.462,25.621-31.121c1.569-7.373-0.876-16.751-10.106-14.413
						C3710.625,984.031,3704.647,989.101,3700.052,993.741z"/>
				</g>
			</g>
			<g>
				<g>
					<path d="M3715.476,1055.498c4.708-2.315,9.101-4.341,12.219-6.14c3.604-2.08,7.651-4.237,11.716-3.348
						c4.698,1.027,7.711,6.025,7.892,10.83c0.181,4.806-1.861,9.406-4.176,13.622c-3.872,7.053-8.635,13.617-14.141,19.484
						c-10.427,11.111-30.844,14.74-38.205-2.663C3684.377,1072.144,3704.448,1060.922,3715.476,1055.498z"/>
				</g>
			</g>
			<g>
				<g>
					<path d="M3012.247,1170.045c-6.287-11.833-21.752-19.409-42.489-20.776c-32.14-2.303-95.25,30.461-111.339,63.773
						c-6.562,13.59-4.96,26.869,4.569,37.374c0.625,0.663,1.25,1.249,1.992,1.835c2.812,2.264,6.483,3.749,10.701,4.725
						c4.218,0.976,9.021,1.366,14.059,1.366c24.096,0,53.776-9.099,54.166-9.216c29.446-9.646,53.424-27.415,65.844-48.659
						C3017.793,1186.603,3015.567,1176.294,3012.247,1170.045z M2997.681,1193.438c-10.7,18.355-31.867,33.819-58.11,42.45
						c-18.238,5.976-57.017,12.654-65.882,5.507l-0.39-0.391c-5.741-6.326-6.483-13.277-2.304-21.908
						c12.887-26.712,68.147-56.002,95.562-56.002c0.781,0,1.562,0,2.304,0.078c15.309,1.015,27.259,6.171,31.086,13.434
						C3002.367,1181.098,3001.586,1186.76,2997.681,1193.438z"/>
				</g>
			</g>
			<g>
				<g>
					<path d="M3101.131,1226.164c-9.216-13.161-36.514-13.668-85.877-1.719c-36.202,8.787-57.72,26.556-64.007,52.799
						c-0.547,2.266-0.82,4.492-0.82,6.717c0,5.546,1.679,10.935,4.92,15.816c7.303,10.974,19.878,16.715,36.632,16.715
						c1.835,0,3.671-0.078,5.585-0.196c39.209-2.773,90.953-33.428,104.504-61.859
						C3108.395,1241.16,3105.036,1231.709,3101.131,1226.164z M3089.494,1248.424c-11.325,23.861-59.087,51.589-92.906,53.971
						c-9.92,0.703-23.119-0.508-29.602-10.311c-2.5-3.749-3.163-7.419-2.187-11.598c2.499-10.349,8.24-19.136,17.222-26.243
						c8.982-7.108,21.167-12.536,36.515-16.246c26.009-6.326,42.567-8.24,53.15-8.24c13.825,0,17.261,3.28,18.043,4.374
						C3090.705,1235.537,3093.633,1239.716,3089.494,1248.424z"/>
				</g>
			</g>
			<g>
				<g>
					<path d="M3252.031,1077.569c-5.038-20.035-19.8-34.367-40.576-39.287c-25.931-6.171-55.65,3.086-72.365,22.416
						c-5.233,6.053-9.372,12.966-12.34,20.503c-2.968,7.498-4.764,15.621-5.312,24.174c-1.015,16.168,2.734,29.524,10.818,38.624
						c7.576,8.513,19.253,13.747,34.679,15.465c3.437,0.391,6.912,0.585,10.349,0.585c24.486,0,48.191-9.646,62.367-25.852
						C3249.102,1123.417,3258.865,1104.867,3252.031,1077.569z M3229.185,1125.018c-13.278,15.191-37.178,23.275-60.688,20.62
						c-11.911-1.367-20.581-4.999-25.813-10.896c-7.068-7.928-7.889-19.877-7.342-28.508c0.898-14.02,5.858-26.595,14.332-36.436
						c5.233-6.093,12.302-10.935,20.191-14.294c7.888-3.358,16.636-5.154,25.267-5.154c4.412,0,8.826,0.469,13.082,1.484
						c9.139,2.148,25.228,8.826,30.305,29.133C3242.775,1097.915,3239.533,1113.146,3229.185,1125.018z"/>
				</g>
			</g>
			<g>
				<g>
					<path d="M3400.547,1198.906c-1.249-19.332-11.755-35.616-29.601-45.849c-22.768-13.082-54.674-14.254-77.559-2.773
						c-8.24,4.14-14.996,10.154-20.112,17.847c-13.278,19.956-13.864,49.675-1.446,73.926
						c10.466,20.464,28.157,32.687,48.542,33.429c1.68,0.078,3.359,0.078,4.999,0.078c24.096,0,42.958-6.834,56.158-20.385
						C3401.251,1234.911,3401.094,1206.989,3400.547,1198.906z M3371.57,1245.456c-11.248,11.559-28.235,16.948-50.69,16.128
						c-15.191-0.586-28.548-9.998-36.671-25.892c-10.036-19.565-9.763-44.208,0.664-59.828c3.749-5.663,8.709-10.075,14.762-13.122
						c8.669-4.334,18.979-6.482,29.367-6.482c12.301,0,24.759,2.968,35.03,8.865c9.646,5.546,21.44,16.051,22.612,34.679
						C3387.074,1206.443,3387.27,1229.327,3371.57,1245.456z"/>
				</g>
			</g>
			<g>
				<g>
					<path d="M3556.953,946.898c-6.951-5.545-15.465-8.044-22.338-10.036c-43.31-12.653-93.766-25.891-143.987-23.666
						c-35.577,1.64-68.537,11.365-95.25,28.118c-4.413,2.774-43.115,27.845-34.054,49.363c1.679,4.061,4.803,7.342,9.411,9.881
						c4.608,2.538,10.662,4.334,18.277,5.389c31.476,4.453,62.992,6.678,94.469,6.678c51.94,0,103.685-6.052,154.726-18.159
						c10.7-2.538,25.307-7.46,28.899-21.166C3569.528,964.121,3565.505,953.732,3556.953,946.898z M3553.633,969.744
						c-1.249,4.842-7.341,8.514-18.627,11.169c-80.253,19.018-162.381,22.807-244.04,11.246c-13.746-1.953-16.364-5.78-16.831-6.873
						c-2.226-5.31,9.567-20.19,28.664-32.179c24.681-15.504,55.26-24.486,88.454-25.969c3.749-0.195,7.459-0.273,11.208-0.273
						c44.208,0,87.478,11.481,128.288,23.353c5.936,1.758,12.731,3.711,17.496,7.538
						C3551.642,960.489,3554.766,965.41,3553.633,969.744z"/>
				</g>
			</g>
			<g>
				<g>
					<path d="M3462.759,1028.323c-124.696-24.876-163.982,21.088-176.284,50.729c-6.482,15.699-8.63,36.554-1.328,41.435
						c10.388,6.952,28.313,11.403,50.183,14.176c21.909,2.734,47.761,3.749,74.005,3.749c73.341,0,149.689-7.927,150.978-8.044
						c19.604-2.187,39.833-13.629,40.614-31.281C3602.137,1071.047,3554.337,1046.601,3462.759,1028.323z M3586.985,1098.461
						c-0.351,8.28-13.004,16.363-28.196,18.043c-67.288,7.498-225.177,15.972-264.151-6.522c-0.859-6.249,0.937-26.83,16.519-44.481
						c13.355-15.114,38.7-30.344,86.697-30.344c17.535,0,38.076,2.031,62.172,6.834
						C3582.142,1066.36,3587.219,1093.307,3586.985,1098.461z"/>
				</g>
			</g>
			<g>
				<g>
					<path d="M3654.303,812.32c-0.608,0.879-1.071,1.974-1.354,3.342c-1.588,7.697,6.824,17.006,13.091,19.89
						c10.862,4.994,46.092-7.771,31.678-21.86c-7.356-7.19-19.817-6.26-29.194-5.388
						C3663.053,808.813,3657.121,808.247,3654.303,812.32z"/>
				</g>
			</g>
			<g>
				<g>
					<path d="M3615.61,853.445c-4.491-10.388-16.363-14.137-22.064-15.972c-15.699-4.999-32.531-9.178-49.246-5.975
						c-5.741,1.094-11.637,3.71-17.027,7.498c-13.434,9.45-21.947,24.173-21.947,37.764v0.898
						c0.234,7.46,3.163,18.004,15.777,25.814c7.03,4.336,15.465,6.482,25.501,6.482c3.671,0,7.576-0.272,11.677-0.859
						c13.044-1.796,45.262-12.223,56.118-31.554C3618.696,869.847,3619.125,861.53,3615.61,853.445z M3602.255,870.708
						c-7.421,13.199-33.39,22.884-45.848,24.602c-12.146,1.68-21.246,0.469-27.962-3.71c-5.935-3.631-9.02-8.474-9.177-14.371
						c-0.274-8.982,6.326-19.995,16.011-26.83c3.828-2.694,7.85-4.49,11.639-5.232c3.202-0.586,6.404-0.898,9.685-0.898
						c9.997,0,20.581,2.616,32.726,6.482c5.975,1.914,11.755,4.218,13.512,8.279
						C3604.636,863.091,3604.442,866.802,3602.255,870.708z"/>
				</g>
			</g>
			<g>
				<g>
					<path d="M3504.076,841.222c-7.146-10.817-38.857-20.385-93.648-0.274c-14.449,3.827-47.644,14.02-51.784,28.196
						c-1.288,4.375-0.155,8.787,3.202,12.38c3.32,3.592,8.826,5.272,17.34,5.311h0.273c32.336,0,117.471-26.83,123.992-33.741
						C3506.458,849.892,3506.732,845.206,3504.076,841.222z M3371.844,871.878c1.953-3.28,22.143-12.223,42.45-17.534l0.665-0.196
						c40.107-14.8,63.265-11.481,72.715-7.927C3463.774,855.906,3382.31,878.869,3371.844,871.878z"/>
				</g>
			</g>
			<g>
				<g>
					<path d="M3081.214,1024.379c-0.156-1.172-2.109-11.794-12.146-16.637c-8.318-4.022-19.057-2.421-31.867,4.765
						c-14.176,6.638-59.009,29.367-58.891,51.549c0.039,5.468,2.656,13.122,14.996,18.746c5.78,2.616,11.443,3.749,16.949,3.749
						c38.193,0.038,68.733-55.065,70.217-57.72l1.133-2.109L3081.214,1024.379z M2999.047,1070.11
						c-2.539-1.133-6.795-3.476-6.795-6.132c-0.039-9.021,26.36-27.415,51.081-38.975l0.469-0.234
						c8.435-4.765,15.23-6.366,19.135-4.492c2.07,0.938,3.241,2.85,3.866,4.335
						C3059.93,1036.134,3029.118,1083.778,2999.047,1070.11z"/>
				</g>
			</g>
			<g>
				<g>
					<path d="M3231.918,960.489c-10.544-9.139-29.563-6.171-59.906,9.411h-0.04c-16.441,8.591-54.361,30.461-52.291,48.542
						c0.547,4.764,3.788,11.13,16.09,14.333c4.218,1.054,8.553,1.562,12.926,1.562c39.443,0,84.041-39.403,86.111-41.279l1.367-1.21
						l0.585-1.719C3237.425,988.138,3243.166,970.213,3231.918,960.489z M3224.03,983.96c-8.63,7.341-53.463,43.465-84.783,35.304
						c-4.843-1.25-5.78-2.617-5.819-2.617c-0.195-5.35,21.596-22.182,44.95-34.366c34.327-17.574,43.036-12.497,44.403-11.286
						C3225.631,973.415,3225.006,980.016,3224.03,983.96z"/>
				</g>
			</g>
			<g>
				<g>
					<path d="M2895.207,1141.225c-3.203-4.922-10.232-7.304-19.252-6.484c-12.849,1.172-23.706,7.811-30.774,12.731
						c-14.84,10.309-27.532,22.416-40.302,34.952l-7.146,6.913c-9.685,9.256-19.722,18.863-27.142,29.915
						c-5.194,7.732-3.593,12.809-1.328,15.699c2.655,3.358,6.834,4.413,11.052,4.413c5.427,0,10.895-1.757,13.277-2.616
						c16.402-5.975,30.735-15.738,43.817-25.423c22.533-16.637,45.028-34.992,57.251-56.158
						C2898.565,1148.41,2896.652,1143.528,2895.207,1141.225z M2829.13,1200.155c-12.224,9.022-25.58,18.159-40.342,23.51
						c-1.913,0.703-3.71,1.172-5.311,1.445c6.483-9.099,15.309-17.535,23.861-25.697c2.46-2.344,4.921-4.686,7.303-7.029
						c12.341-12.106,24.564-23.783,38.506-33.469c2.851-2.031,6.483-4.373,10.583-6.326c4.101-1.953,8.67-3.516,13.474-3.984
						c2.148-0.195,3.788-0.078,4.959,0.117C2870.486,1168.132,2848.891,1185.51,2829.13,1200.155z"/>
				</g>
			</g>
			<g>
				<g>
					<path d="M3639.142,1046.167c-10.825,6.791-17.448,21.351-19.142,34.836c-0.502,3.995-0.531,8.315,1.599,11.733
						c11.591,18.592,43.466-2.93,50.909-14.944c4.231-6.829,6.516-15.627,3.099-22.897c-2.417-5.143-7.374-8.755-12.717-10.693
						C3653.578,1040.826,3645.61,1042.11,3639.142,1046.167z"/>
				</g>
			</g>
			<g>
				<g>
					<path d="M3671.025,948.851c-3.749-23.744-23.666-43.778-47.409-47.566c-6.795-1.094-12.497-0.663-17.496,1.289
						c-3.203,1.289-5.975,3.203-8.123,5.662c-10.387,11.794-4.491,32.844-2.538,39.716c3.203,11.521,9.724,20.698,18.277,25.814
						c6.756,4.062,14.216,5.428,21.323,5.428c6.834,0,13.355-1.249,18.667-2.499c3.32-0.82,6.834-1.797,9.998-4.179
						C3669.971,967.792,3672.627,959.161,3671.025,948.851z M3655.326,961.387c-1.014,0.781-2.89,1.288-4.843,1.757
						c-13.395,3.203-22.806,2.773-29.601-1.328c-7.421-4.451-10.701-12.925-12.029-17.612c-4.803-17.066-2.89-23.978-0.429-26.751
						c0.742-0.821,1.64-1.445,2.811-1.914c1.563-0.625,3.359-0.898,5.507-0.898c1.406,0,2.968,0.116,4.647,0.39
						c17.691,2.851,33.077,18.317,35.851,35.968C3657.865,954.865,3657.67,959.63,3655.326,961.387z"/>
				</g>
			</g>
			<g>
				<g>
					<path d="M3526.85,1178.415c-0.66,1.244-1.257,2.482-1.791,3.692c-5.405,12.242-2.59,27.659,7.03,37.25
						c12.254,12.218,29.196,4.923,39.381-6.214c10.778-11.785,9.379-30.913,0.682-43.459c-5.582-8.052-15.208-12.822-24.97-10.299
						C3537.997,1161.757,3531.104,1170.387,3526.85,1178.415z"/>
				</g>
			</g>
			<g>
				<g>
					<path d="M3654.142,1172.951c2.879-3.257,5.588-6.729,8.056-10.176c3.129-4.371,6.873-10.959,2.661-15.873
						c-3.456-4.031-9.537-3.452-14.229-2.862c-8.241,1.036-20.648,6.983-20.383,17.112c0.158,6.01,1.124,15.992,6.299,20.019
						c4.277,3.328,9.535-0.003,12.791-3.166C3650.98,1176.408,3652.586,1174.711,3654.142,1172.951z"/>
				</g>
			</g>
			<g>
				<g>
					<path d="M3578.411,1253.442c8.135-4.149,17.146-6.576,26.266-7.057c2.487-0.131,5.249-0.02,7.058,1.691
						c1.505,1.423,1.976,3.688,1.672,5.737c-0.303,2.049-1.277,3.932-2.311,5.727c-6.489,11.275-16.374,21.056-28.74,25.094
						c-5.801,1.894-12.756,2.273-17.449-1.627c-11.538-9.586,2.356-23.321,11.018-28.228
						C3576.744,1254.315,3577.573,1253.869,3578.411,1253.442z"/>
				</g>
			</g>
			<g>
				<g>
					<path d="M3511.535,1355.643c-12.295,4.324-14.964,15.921-15.341,27.37c-0.252,7.65-1.724,12.102,4.09,15.889
						c8.067,5.253,26.729-4.703,32.936-9.389c11.407-8.611,22.271-36.744,1.016-36.92L3511.535,1355.643z"/>
				</g>
			</g>
			<g>
				<g>
					<path d="M3371.618,1324.734c-3.058,5.232-1.757,12.076,6.074,17.92c5.324,3.972,12.019,5.602,18.584,6.609
						c16.19,2.484,32.909,1.717,48.709-2.601c5.486-1.5,11.683-4.32,12.763-9.904c0.699-3.612-1.143-7.354-3.877-9.816
						c-2.734-2.462-6.246-3.859-9.73-5.041c-18.711-6.349-38.939-7.851-58.521-5.214
						C3379.001,1317.578,3373.994,1320.669,3371.618,1324.734z"/>
				</g>
			</g>
			<g>
				<g>
					<path d="M3486.145,1448.335c5.979-3.05,13.032-4.177,19.457-2.932c5.049,0.978,10.024,3.456,12.894,7.724
						c3.199,4.758,3.298,11.168,1.147,16.482c-2.151,5.314-6.305,9.62-10.996,12.915c-4.324,3.038-9.274,5.354-14.53,5.903
						c-5.256,0.549-10.839-0.823-14.76-4.368c-7.323-6.623-8.467-20.834-2.22-28.544
						C3479.554,1452.53,3482.668,1450.108,3486.145,1448.335z"/>
				</g>
			</g>
			<g>
				<g>
					<path d="M3363.551,1438.566c-4.757,3.094-7.957,7.712-7.401,14.033c1.588,18.047,23.242,16.966,36.198,13.554
						c8.32-2.192,16.597-5.718,23.615-10.742c4.752-3.401,16.425-13.485,4.554-15.732c-11.4-2.158-22.875-3.936-34.344-5.693
						C3379.464,1432.958,3370.053,1434.337,3363.551,1438.566z"/>
				</g>
			</g>
			<g>
				<g>
					<path d="M3363.719,1557.462c1.457,2.558,3.886,4.564,6.378,6.214c8.783,5.817,17.204,13.794,27.664,16.499
						c3.533,0.914,7.461,0.864,10.642-0.926c8.25-4.642,12.107-17.041,10.789-25.938c-1.318-8.893-8.256-12.511-16.272-14.224
						c-8.334-1.782-25.196-6.933-32.917-1.671c-2.411,1.643-4.173,4.092-5.502,6.689c-1.789,3.494-2.879,7.613-1.673,11.349
						C3363.057,1556.159,3363.358,1556.828,3363.719,1557.462z"/>
				</g>
			</g>
			<g>
				<g>
					<path d="M3450.951,1601.911c-2.855,3.025-6.364,6.122-6.732,10.504c-1.089,12.979,16.562,18.705,26.288,13.916
						c11.672-5.748,19.7-24.054,4.811-30.976c-9.817-4.564-16.055-4.116-22.461,4.354
						C3452.297,1600.45,3451.643,1601.178,3450.951,1601.911z"/>
				</g>
			</g>
			<g>
				<g>
					<path d="M3443.175,1681.814c-9.616,5.729-9.971,19.217-10.547,29.084c-0.375,6.427-4.609,24.037,7.253,20.726
						c11.921-3.328,26.464-10.407,33.427-21.068c5.377-8.231,2.028-16.67-5.25-22.28
						C3462.438,1683.943,3450.202,1677.629,3443.175,1681.814z"/>
				</g>
			</g>
			<g>
				<g>
					<path d="M3355.781,1681.353c-8.742,6.87-15.525,20.147-6.385,28.862c4.692,4.473,10.711,3.814,16.26,1.669
						c12.998-5.023,24.924-18.275,21.808-33.299c-2.277-10.97-20.309-3.143-26.447-0.44
						C3359.267,1678.917,3357.487,1680.013,3355.781,1681.353z"/>
				</g>
			</g>
			<g>
				<g>
					<path d="M2668.73,1343.235c6.852-0.922,13.476-3.534,18.883-7.82c7.042-5.582,11.862-14.068,12.437-23.035
						c0.376-5.854-1.541-12.48-6.74-15.198c-8.443-4.414-21.808,0.772-28.765,5.967c-7.731,5.773-13.994,14.307-16.879,23.541
						c-0.819,2.622-1.396,5.443-0.704,8.101c1.612,6.198,9.116,8.723,15.52,8.816
						C2664.567,1343.638,2666.659,1343.513,2668.73,1343.235z"/>
				</g>
			</g>
			<g>
				<g>
					<path d="M3229.848,1619.033c-21.401-78.651-72.208-144.495-143.088-185.422c-70.842-40.927-153.321-52.019-232.09-31.281
						c-78.847,20.737-144.65,70.88-185.266,141.175c-22.26,38.545-35.46,80.41-39.326,124.5l-3.007,34.445l20.737-27.689
						c86.189-115.01,245.954-146.955,371.665-74.317c96.46,55.689,152.539,162.928,142.932,273.096l-3.046,34.443l20.776-27.649
						c7.225-9.645,13.942-19.838,19.995-30.304c26.868-46.512,40.575-98.139,40.575-150.509
						C3240.705,1672.691,3237.113,1645.667,3229.848,1619.033z M3183.063,1840.071c-3.124-104.974-60.961-203.152-153.711-256.732
						c-123.992-71.623-278.992-47.996-374.632,52.682c6.132-28.9,16.754-56.587,31.79-82.635
						c37.959-65.726,99.467-112.589,173.159-131.999c24.252-6.365,48.894-9.529,73.38-9.529c49.949,0,99.35,13.161,143.832,38.858
						c66.35,38.31,113.916,99.935,133.95,173.51C3230.825,1697.725,3220.983,1774.384,3183.063,1840.071z"/>
				</g>
			</g>
			<g>
				<g>
					<path d="M2990.69,1763.958c-100.365,102.786-262.941,113.721-378.146,25.345c-88.415-67.757-130.084-181.361-106.223-289.38
						l7.498-33.78l-24.174,24.76c-8.435,8.63-16.441,17.885-23.782,27.453c-49.402,64.437-70.529,144.416-59.516,225.178
						c11.012,80.761,52.838,152.656,117.782,202.448c55.845,42.802,121.766,63.539,187.023,63.539
						c91.422,0.039,181.556-40.654,241.072-118.251c27.064-35.303,45.653-75.098,55.181-118.289l7.459-33.781L2990.69,1763.958z
						 M2936.563,1879.279c-95.367,124.344-275.009,147.229-400.445,51.042c-60.766-46.628-99.897-113.877-110.207-189.444
						c-10.31-75.488,9.45-150.235,55.572-210.454c-10.544,104.505,34.015,209.362,119.033,274.579
						c113.604,87.088,270.361,83.846,378.263-3.515C2968.977,1829.332,2954.84,1855.379,2936.563,1879.279z"/>
				</g>
			</g>
			<g>
				<g>
					<g>
						<path d="M2831.629,1632.975l-5.506-0.313c-7.732,53.541-10.739,56.235-64.827,57.915l-0.313,5.545
							c53.541,7.693,56.275,10.739,57.954,64.789l5.507,0.312c7.732-53.541,10.74-56.236,64.827-57.953l0.313-5.507
							C2836.042,1690.071,2833.308,1687.023,2831.629,1632.975z M2823.116,1736.035c-2.772-27.024-10.388-35.537-36.905-41.279
							c26.986-2.732,35.499-10.388,41.239-36.903c2.773,27.024,10.389,35.537,36.905,41.278
							C2837.37,1701.864,2828.856,1709.479,2823.116,1736.035z"/>
					</g>
				</g>
			</g>
			<g>
				<g>
					<g>
						<path d="M3172.129,1937.273l-1.992-5.194c-51.979,15.036-55.688,13.396-79.471-35.186l-5.194,1.991
							c15.036,51.979,13.395,55.69-35.187,79.472l1.992,5.155c51.979-14.996,55.689-13.356,79.472,35.226l5.193-1.992
							C3121.907,1964.766,3123.547,1961.056,3172.129,1937.273z M3074.692,1971.913c23.471-13.629,28.117-24.095,22.416-50.612
							c13.629,23.469,24.095,28.118,50.612,22.415c-23.47,13.63-28.118,24.057-22.416,50.613
							C3111.675,1970.858,3101.248,1966.211,3074.692,1971.913z"/>
					</g>
				</g>
			</g>
			<g>
				<g>
					<g>
						<path d="M2356.32,1833.882l-5.116-2.148c-25.384,47.761-29.172,49.285-80.604,32.531l-2.148,5.076
							c47.761,25.424,49.284,29.173,32.53,80.605l5.077,2.187c25.423-47.761,29.173-49.285,80.604-32.531l2.187-5.116
							C2341.089,1889.101,2339.566,1885.353,2356.32,1833.882z M2313.323,1927.96c6.599-26.322,2.303-36.944-20.698-51.355
							c26.322,6.601,36.944,2.305,51.314-20.698c-6.56,26.323-2.264,36.944,20.738,51.316
							C2338.355,1900.661,2327.733,1904.957,2313.323,1927.96z"/>
					</g>
				</g>
			</g>
			<g>
				<path d="M2085.595,2076.716c-2.146-0.16-4.289-0.362-6.432-0.568l2.109-22.036c1.999,0.191,3.993,0.378,5.99,0.53
					L2085.595,2076.716z"/>
			</g>
			<g>
				<path d="M2855.591,2068.467l-0.589-22.135l215.647-5.74c70.829-1.873,144.068-3.81,215.354-14.26
					c32.112-4.698,65.207-11.724,89.749-31.154c24.087-19.16,38.126-48.529,49.708-77.411
					c33.778-84.043,53.011-174.951,71.611-262.861c19.843-93.807,40.365-190.805,78.635-280.733
					c34.728-81.61,84.356-157.515,132.813-227.386c45.94-66.172,108.852-156.794,87.114-245.12
					c-18.993-77.14-96.339-123.317-164.566-134.861c-77.827-13.169-159.304,7.513-228.744,29.48
					c-178.032,56.344-345.69,139.453-498.317,247.023c-201.836,142.268-373.889,325.517-540.278,502.738
					c-24.459,26.071-46.304,48.369-67.43,69.936c-20.873,21.307-42.456,43.343-66.559,69.013l-16.14-15.156
					c24.261-25.842,45.929-47.961,66.884-69.349c21.044-21.482,42.803-43.694,67.103-69.597
					c167.15-178.029,339.987-362.114,543.667-505.685c154.489-108.878,324.192-193.002,504.394-250.032
					c71.958-22.764,156.634-44.156,239.114-30.201c75.363,12.749,160.981,64.509,182.376,151.397
					c24.122,98.036-42.084,193.402-90.427,263.033c-47.782,68.899-96.682,143.66-130.628,223.439
					c-37.428,87.944-57.721,183.871-77.35,276.64c-18.794,88.841-38.229,180.706-72.724,266.526
					c-12.101,30.182-28.279,64.067-56.489,86.511c-28.656,22.684-65.142,30.571-100.305,35.716
					c-72.587,10.644-146.497,12.597-217.976,14.488L2855.591,2068.467z"/>
			</g>
		</g>
		<g>
			<g>
				<g>
					<path d="M1058.579,2155.58c0.707,6.108-0.738,12.28-5.194,17.513c-7.082,8.317-17.971,12.14-28.328,15.613
						c-9.038,3.031-18.077,6.062-27.115,9.092c-6.475,2.171-13.075,4.364-19.903,4.494c-6.829,0.13-14.047-2.125-18.322-7.451
						c-5.408-6.738-4.832-16.637-1.638-24.665c7.284-18.309,25.459-29.882,43.643-37.473c9.109-3.802,18.862-6.973,28.682-5.978
						C1044.213,2128.125,1056.969,2141.684,1058.579,2155.58z"/>
				</g>
			</g>
			<g>
				<g>
					<path d="M901.828,2197.77c2.171,29.943-17.326,44.627-38.105,60.273c-10.593,7.976-22.388,17.381-26.724-4.831
						c-3.718-19.047,10.002-53.147,26.243-62.803c10.396-6.181,26.288-15.963,35.159-3.725L901.828,2197.77z"/>
				</g>
			</g>
			<g>
				<g>
					<path d="M779.292,2266.875c2.928,5.299,4.041,12.421,4.096,17.617c0.112,10.925-11.705,55.786-28.027,49.253
						c-22.866-9.161-12.001-68.322,9.553-73.708C771.885,2258.295,776.446,2261.724,779.292,2266.875z"/>
				</g>
			</g>
			<g>
				<g>
					<path d="M708.315,2373.263c6.14,15.565,2.463,49.915-13.849,59.413c-24.634,14.343-18.136-48.478-13.061-58.13
						c1.897-3.608,4.249-7.105,7.599-9.428c3.35-2.323,7.867-3.282,11.582-1.605c2.601,1.174,4.537,3.48,5.937,5.968
						C707.202,2370.686,707.797,2371.949,708.315,2373.263z"/>
				</g>
			</g>
			<g>
				<g>
					<path d="M660.164,2531.598c9.515,14.052,4.187,62.185-16.05,38.309c-6.218-7.337-7.706-20.718-7.575-29.909
						c0.204-14.238,9.369-19.377,21.236-10.94C658.655,2529.684,659.451,2530.545,660.164,2531.598z"/>
				</g>
			</g>
			<g>
				<g>
					<path d="M667.606,2638.065c1.39,1.034,2.612,2.717,3.464,5.145c1.935,5.509,4.936,33.407-7.474,26.205
						c-6.453-3.751-8.128-14.54-8.263-21.249C655.152,2639.212,662.513,2634.28,667.606,2638.065z"/>
				</g>
			</g>
			<g>
				<g>
					<path d="M708.253,2747.524c8.745,8.808,15.032,23.019,10.968,30.29c-4.71,8.426-20.712,0.158-26.364-5.813
						c-5.636-5.953-14.103-21.298-6.084-29.111C693.615,2736.228,702.866,2742.097,708.253,2747.524z"/>
				</g>
			</g>
			<g>
				<g>
					<path d="M727.97,2466.443c3.686,11.391,0.931,30.069-2.208,41.571c-4.15,15.205-16.023,2.277-17.664-6.421
						c-2.004-10.623-2.844-24.808,2.236-34.644c3.945-7.637,11.621-10.358,16.377-3.219
						C727.218,2464.491,727.634,2465.404,727.97,2466.443z"/>
				</g>
			</g>
			<g>
				<g>
					<path d="M785.566,2855.054c0.979,6.649,0.209,14.099-0.596,18.524c-1.091,5.997-2.677,14.014-9.306,16.246
						c-15.943,5.367-20.286-23.647-18.667-33.878c0.947-5.982,6.46-13.244,12.652-14.478
						C780.204,2839.363,784.315,2846.555,785.566,2855.054z"/>
				</g>
			</g>
			<g>
				<g>
					<path d="M851.365,2815.253c2.413,8.967,1.569,22.763,0.061,27.339c-0.765,2.322-1.751,4.641-3.444,6.405
						c-1.692,1.764-4.219,2.89-6.607,2.367c-3.087-0.677-4.989-3.726-6.344-6.581c-2.602-5.485-4.53-11.416-4.516-17.487
						c0.014-6.07,2.158-12.31,6.655-16.385C845.127,2803.702,849.365,2807.819,851.365,2815.253z"/>
				</g>
			</g>
			<g>
				<g>
					<path d="M845.259,2926.662c4.196,0.058,8.056,0.58,10.49,1.361c9.172,2.945,21.439,11.754,22.321,22.148
						c1.111,13.115-11.36,14.564-21.336,11.045c-8.82-3.11-24.847-10.615-30.259-18.874
						C818.334,2929.917,836.699,2926.543,845.259,2926.662z"/>
				</g>
			</g>
			<g>
				<g>
					<path d="M933.762,2984.689c3.93,3.969,7.436,10.084,9.264,13.697c2.549,5.04,7.679,16.177,1.648,20.942
						c-4.855,3.836-13.519-0.689-17.957-3.226c-8.553-4.888-15.627-13.014-16.881-22.975c-0.561-4.454-0.149-10.102,3.861-12.941
						c4.686-3.318,9.982-0.491,14.752,0.909C930.232,2981.619,932.038,2982.948,933.762,2984.689z"/>
				</g>
			</g>
			<g>
				<g>
					<path d="M997.518,3057.888c7.616,3.811,12.729,10.636,16.742,17.973c3.814,6.972,4.904,15.065-3.876,18.457
						c-10.622,4.104-22.329-12.443-26.793-19.723c-2.247-3.665-6.739-10.508-5.709-15.154c1.84-8.286,13.677-4.281,18.67-2.014
						C996.878,3057.575,997.2,3057.729,997.518,3057.888z"/>
				</g>
			</g>
			<g>
				<g>
					<path d="M955.712,2907.21c3.684,8.399,4.013,22.107,3.907,27.705c-0.066,3.531-0.267,7.293-2.325,10.164
						c-3.039,4.24-9.437,5.018-14.136,2.754c-4.699-2.265-7.872-6.875-9.863-11.696c-2.343-5.673-3.337-11.988-2.226-18.025
						c1.112-6.036,4.439-11.748,9.506-15.211C948.317,2897.611,952.955,2900.923,955.712,2907.21z"/>
				</g>
			</g>
			<g>
				<g>
					<path d="M1029.436,2994.174c5.865,3.425,8.28,13.738,5.592,20.173c-3.245,7.763-17.109,9.18-22.849,2.259
						c-6.76-8.152,0.49-18.767,8.603-22.515C1024.154,2992.533,1027.075,2992.795,1029.436,2994.174z"/>
				</g>
			</g>
			<g>
				<g>
					<path d="M1097.712,3100.269c0.753,0.251,1.494,0.574,2.22,0.985c5.222,2.956,9.245,9.443,10.81,15.105
						c2.113,7.646-3.602,11.008-10.541,12.037c-10.007,1.483-21.229-7.556-25.408-16.097
						C1068.198,3098.818,1089.883,3097.665,1097.712,3100.269z"/>
				</g>
			</g>
			<g>
				<g>
					<path d="M1214.062,3035.623c1.198,2.42,1.853,5.175,1.989,7.746c0.35,6.611-0.584,13.287-2.735,19.548
						c-0.717,2.086-1.804,4.357-3.902,5.036c-2.342,0.759-4.77-0.834-6.537-2.548c-6.667-6.467-10.135-16.084-9.131-25.318
						c0.305-2.802,1.046-5.659,2.831-7.839c1.822-2.226,4.685-3.56,7.561-3.524
						C1208.885,3028.784,1212.159,3031.779,1214.062,3035.623z"/>
				</g>
			</g>
			<g>
				<g>
					<path d="M1356.363,3092.305c0.121,1.784-0.002,3.617-0.398,5.449c-1.83,8.48-7.646,16.346-15.272,20.907
						c-17.12,10.241-34.805,1.282-35.31-18.927c-0.38-15.215,16.894-21.791,30.708-24.099
						C1347.267,3073.769,1355.682,3082.265,1356.363,3092.305z"/>
				</g>
			</g>
			<g>
				<g>
					<path d="M1470.987,3124.912c0.589,1.779,0.415,3.817-0.828,6.152c-1.551,2.913-4.421,4.868-7.306,6.47
						c-13.891,7.714-30.501,9.789-46.221,7.479c-6.989-1.027-14.243-3.109-19.071-8.267c-4.828-5.157-6.1-14.145-1.075-19.111
						c2.542-2.512,6.144-3.588,9.631-4.371c12.727-2.855,26.057-2.889,38.824-0.255
						C1450.781,3114.214,1468.377,3117.025,1470.987,3124.912z"/>
				</g>
			</g>
			<g>
				<g>
					<path d="M1422.142,3183.732c0.411,6.55-21.452,16.556-25.714,17.671c-2.821,0.738-5.771,1.254-8.646,0.766
						c-2.875-0.487-5.682-2.128-6.945-4.757c-1.452-3.025-0.604-6.7,1.049-9.62c2.289-4.039,6.085-7.201,10.472-8.721
						c7.7-2.668,19.778-2.118,27.089,1.493C1421.25,3181.456,1422.067,3182.537,1422.142,3183.732z"/>
				</g>
			</g>
			<g>
				<g>
					<path d="M1343.072,3170.881c1.106,6.804-5.415,14.647-10.66,19.399c-9.806,8.885-24.93,13.692-36.245,4.605
						c-5.224-4.196-9.47-9.665-6.496-16.633c1.635-3.831,4.942-6.753,8.615-8.716c9.517-5.086,28.101-12.291,38.496-6.487
						C1340.734,3165.256,1342.599,3167.974,1343.072,3170.881z"/>
				</g>
			</g>
			<g>
				<g>
					<path d="M1254.263,3157.912c-4.244,7.198-17.179-0.365-22.666-4.898c-5.327-4.4-9.867-8.835-11.47-15.38
						c-0.915-3.735-1.067-14.283,6.064-12.144c2.662,0.798,5.324,1.597,7.986,2.395c3.187,0.957,6.738,1.078,9.711,2.678
						c2.909,1.565,4.48,4.603,6.067,7.385C1252.88,3143.08,1257.735,3152.021,1254.263,3157.912z"/>
				</g>
			</g>
			<g>
				<g>
					<path d="M1172.182,3109.975c1.862,2.926,2.606,6.384,2.856,11.053c0.32,5.99-0.444,12.04-2.289,17.75
						c-0.418,1.294-0.94,2.641-2.015,3.474c-2.698,2.094-6.543-0.334-8.784-2.913c-7.394-8.509-11.321-19.947-10.712-31.203
						c0.137-2.525,0.613-5.275,2.525-6.929c3.267-2.829,8.992,0.836,11.84,2.643
						C1168.65,3105.784,1170.748,3107.722,1172.182,3109.975z"/>
				</g>
			</g>
			<g>
				<g>
					<path d="M1132.424,3026.16c3.795,2.276,7.121,5.257,10.021,9.889c4.119,6.578,8.768,16.206,6.132,24.111
						c-4.646,12.251-29.255,11.569-38.644,5.847c-9.636-5.873-17.493-17.943-18.57-29.228c-1.292-13.543,12.03-20.58,23.909-17.713
						C1121.043,3020.459,1127.329,3023.103,1132.424,3026.16z"/>
				</g>
			</g>
			<g>
				<g>
					<g>
						<path d="M1330.892,2208.4c-90.937,8.093-97.355,14.534-105.125,105.5c-8.093-90.938-14.534-97.355-105.499-105.125
							c90.937-8.093,97.355-14.533,105.125-105.499C1233.486,2194.212,1239.927,2200.63,1330.892,2208.4z"/>
					</g>
				</g>
			</g>
			<g>
				<g>
					<g>
						<path d="M1694.512,2217.144c-62.689,5.579-67.113,10.019-72.47,72.728c-5.579-62.689-10.019-67.114-72.728-72.47
							c62.689-5.579,67.114-10.019,72.47-72.728C1627.363,2207.363,1631.803,2211.787,1694.512,2217.144z"/>
					</g>
				</g>
			</g>
			<g>
				<g>
					<g>
						<path d="M1212.244,2802.432c-79.442,11.037-84.795,16.966-87.675,97.119c-11.036-79.442-16.966-84.795-97.12-87.675
							c79.442-11.037,84.795-16.966,87.675-97.119C1126.161,2794.199,1132.091,2799.552,1212.244,2802.432z"/>
					</g>
				</g>
			</g>
			<g>
				<g>
					<g>
						<path d="M1621.913,2894.625c-94.917,13.187-101.313,20.271-104.754,116.038c-13.187-94.917-20.271-101.313-116.038-104.754
							c94.917-13.187,101.313-20.271,104.754-116.038C1519.062,2884.788,1526.146,2891.183,1621.913,2894.625z"/>
					</g>
				</g>
			</g>
			<g>
				<g>
					<g>
						<path d="M1801.21,2514.877c-78.943,7.025-84.515,12.617-91.26,91.585c-7.025-78.944-12.617-84.515-91.585-91.26
							c78.943-7.025,84.515-12.617,91.26-91.585C1716.651,2502.561,1722.243,2508.132,1801.21,2514.877z"/>
					</g>
				</g>
			</g>
			<g>
				<g>
					<g>
						<path d="M1034.037,2512.899c-79.093,7.038-84.676,12.64-91.433,91.759c-7.039-79.093-12.641-84.676-91.759-91.434
							c79.093-7.039,84.676-12.641,91.434-91.759C949.317,2500.559,954.92,2506.142,1034.037,2512.899z"/>
					</g>
				</g>
			</g>
			<g>
				<g>
					<g>
						<path d="M1358.643,2334.398c-111.183,0-201.629,90.447-201.629,201.59c0,111.182,90.446,201.628,201.629,201.628
							c111.144,0,201.589-90.446,201.589-201.628C1560.232,2424.845,1469.786,2334.398,1358.643,2334.398z M1358.643,2717.857
							c-100.287,0-181.868-81.581-181.868-181.868c0-100.287,81.581-181.868,181.868-181.868
							c100.287,0,181.868,81.582,181.868,181.868C1540.511,2636.275,1458.93,2717.857,1358.643,2717.857z"/>
					</g>
				</g>
				<g>
					<g>
						<path d="M1369.304,2649.28c-51.393-13.473-87.322-60.063-87.322-113.292c0-53.19,35.929-99.78,87.322-113.292l36.28-9.529
							l-36.28-9.568c-11.364-2.969-23.08-4.492-34.874-4.492c-75.489,0-136.88,61.43-136.88,136.88
							c0,75.489,61.391,136.879,136.88,136.879c11.755,0,23.51-1.484,34.874-4.491l36.319-9.529L1369.304,2649.28z
							 M1217.272,2535.989c0-62.406,49.089-113.605,110.714-116.962c-39.99,24.369-65.725,68.303-65.725,116.962
							c0,48.698,25.735,92.633,65.725,117.001C1266.361,2649.632,1217.272,2598.434,1217.272,2535.989z"/>
					</g>
				</g>
			</g>
			<g>
				<path d="M1382.48,3275.547c-46.295,0.004-90.828-14.015-125.647-41.341c-7.015-5.507-13.682-11.548-20.129-17.387
					c-15.373-13.924-29.892-27.074-47.721-32.421c-20.095-6.033-41.699-1.399-64.57,3.513c-15.509,3.333-31.545,6.777-47.898,6.987
					c-40.683,0.633-83.685-19.916-120.869-57.442c-20.144-20.328-37.157-43.469-53.611-65.848
					c-8.73-11.876-17.757-24.152-27.055-35.724c-11.306-14.08-21.397-24.698-33.915-30.75c-14.542-7.014-31.707-7.383-49.882-7.776
					c-19.452-0.42-39.564-0.854-58.27-9.572c-39.695-18.497-53.789-64.654-58.621-100.118c-1.179-8.562-2.069-17.311-2.931-25.77
					c-2.866-28.123-5.574-54.689-18.1-77.476c-14.153-25.72-39.096-43.603-65.505-62.538
					c-30.786-22.074-62.623-44.899-76.698-81.652c-12.923-33.82-6.742-70.509,0.086-98.688
					c24.23-100.167,81.041-195.412,164.288-275.427c76.225-73.273,172.497-132.535,278.408-171.389
					c80.065-29.358,167.379-49.746,266.927-62.332c124.873-15.804,252.662-17.238,372.848-17.349
					c99.91-0.023,189.621,1.918,274.907,27.409c17.093,5.099,33.742,11.121,49.477,17.894l1.329,0.583
					c0.004,0.011,0.134,0.034,2.163,0.969l-9.155,20.159l-1.314-0.606c-0.332-0.137-0.896-0.377-1.892-0.82
					c-14.833-6.384-30.666-12.109-46.943-16.963c-82.417-24.636-170.359-26.608-268.554-26.483
					c-119.484,0.111-246.481,1.526-370.088,17.173c-97.876,12.372-183.603,32.375-262.081,61.149
					c-219.639,80.577-383.946,245.818-428.801,431.238c-6.075,25.075-11.668,57.458-0.927,85.572
					c11.697,30.54,39.493,50.471,68.921,71.569c27.251,19.541,55.429,39.743,72.002,69.864
					c14.696,26.734,17.763,56.809,20.728,85.897c0.841,8.272,1.712,16.822,2.839,25.014c4.09,30.014,15.396,68.773,46.039,83.052
					c14.486,6.754,31.442,7.12,49.395,7.506c19.738,0.427,40.149,0.869,59.031,9.977c17.219,8.325,30.144,22.615,41.549,36.821
					c9.593,11.933,18.763,24.408,27.632,36.471c15.978,21.734,32.501,44.208,51.499,63.381
					c18.907,19.08,57.391,50.894,103.676,50.894c0.398,0,0.793,0,1.192-0.004c14.135-0.187,28.41-3.253,43.522-6.498
					c24.604-5.278,50.047-10.743,75.586-3.07c22.615,6.781,39.699,22.253,56.218,37.214c6.449,5.843,12.539,11.357,18.939,16.384
					c52.233,40.994,133,47.919,200.976,17.246c75.348-33.95,128.979-104.821,175.71-176.351
					c70.697-108.192,133.256-223.172,185.94-341.749l20.232,8.993c-53.164,119.652-116.294,235.685-187.638,344.868
					c-48.57,74.341-104.614,148.137-185.143,184.421C1448.896,3268.522,1415.243,3275.547,1382.48,3275.547z"/>
			</g>
		</g>
		<g>
			<g>
				<g>
					<path d="M2929.664,2155.58c-0.707,6.108,0.739,12.28,5.194,17.513c7.082,8.317,17.971,12.14,28.328,15.613
						c9.038,3.031,18.077,6.062,27.115,9.092c6.475,2.171,13.075,4.364,19.903,4.494c6.828,0.13,14.047-2.125,18.322-7.451
						c5.408-6.738,4.832-16.637,1.638-24.665c-7.283-18.309-25.459-29.882-43.643-37.473c-9.109-3.802-18.862-6.973-28.682-5.978
						C2944.03,2128.125,2931.274,2141.684,2929.664,2155.58z"/>
				</g>
			</g>
			<g>
				<g>
					<path d="M3086.416,2197.77c-2.172,29.943,17.326,44.627,38.104,60.273c10.593,7.976,22.388,17.381,26.724-4.831
						c3.719-19.047-10.002-53.147-26.244-62.803c-10.396-6.181-26.288-15.963-35.159-3.725L3086.416,2197.77z"/>
				</g>
			</g>
			<g>
				<g>
					<path d="M3208.952,2266.875c-2.928,5.299-4.041,12.421-4.097,17.617c-0.112,10.925,11.705,55.786,28.028,49.253
						c22.865-9.161,12-68.322-9.553-73.708C3216.358,2258.295,3211.798,2261.724,3208.952,2266.875z"/>
				</g>
			</g>
			<g>
				<g>
					<path d="M3279.928,2373.263c-6.14,15.565-2.462,49.915,13.85,59.413c24.634,14.343,18.136-48.478,13.06-58.13
						c-1.897-3.608-4.249-7.105-7.598-9.428c-3.35-2.323-7.866-3.282-11.582-1.605c-2.601,1.174-4.537,3.48-5.937,5.968
						C3281.042,2370.686,3280.446,2371.949,3279.928,2373.263z"/>
				</g>
			</g>
			<g>
				<g>
					<path d="M3328.079,2531.598c-9.515,14.052-4.187,62.185,16.05,38.309c6.218-7.337,7.707-20.718,7.575-29.909
						c-0.204-14.238-9.37-19.377-21.236-10.94C3329.589,2529.684,3328.792,2530.545,3328.079,2531.598z"/>
				</g>
			</g>
			<g>
				<g>
					<path d="M3320.638,2638.065c-1.39,1.034-2.612,2.717-3.464,5.145c-1.935,5.509-4.936,33.407,7.474,26.205
						c6.452-3.751,8.128-14.54,8.263-21.249C3333.091,2639.212,3325.731,2634.28,3320.638,2638.065z"/>
				</g>
			</g>
			<g>
				<g>
					<path d="M3279.99,2747.524c-8.745,8.808-15.031,23.019-10.967,30.29c4.71,8.426,20.712,0.158,26.364-5.813
						c5.636-5.953,14.103-21.298,6.084-29.111C3294.628,2736.228,3285.378,2742.097,3279.99,2747.524z"/>
				</g>
			</g>
			<g>
				<g>
					<path d="M3260.273,2466.443c-3.686,11.391-0.931,30.069,2.208,41.571c4.15,15.205,16.023,2.277,17.664-6.421
						c2.004-10.623,2.844-24.808-2.236-34.644c-3.945-7.637-11.621-10.358-16.377-3.219
						C3261.025,2464.491,3260.609,2465.404,3260.273,2466.443z"/>
				</g>
			</g>
			<g>
				<g>
					<path d="M3202.677,2855.054c-0.979,6.649-0.209,14.099,0.597,18.524c1.091,5.997,2.676,14.014,9.306,16.246
						c15.943,5.367,20.286-23.647,18.666-33.878c-0.946-5.982-6.46-13.244-12.652-14.478
						C3208.039,2839.363,3203.928,2846.555,3202.677,2855.054z"/>
				</g>
			</g>
			<g>
				<g>
					<path d="M3136.878,2815.253c-2.413,8.967-1.569,22.763-0.061,27.339c0.765,2.322,1.751,4.641,3.444,6.405
						c1.693,1.764,4.219,2.89,6.607,2.367c3.087-0.677,4.989-3.726,6.344-6.581c2.602-5.485,4.531-11.416,4.516-17.487
						c-0.014-6.07-2.158-12.31-6.655-16.385C3143.117,2803.702,3138.878,2807.819,3136.878,2815.253z"/>
				</g>
			</g>
			<g>
				<g>
					<path d="M3142.984,2926.662c-4.196,0.058-8.055,0.58-10.489,1.361c-9.173,2.945-21.439,11.754-22.321,22.148
						c-1.112,13.115,11.359,14.564,21.335,11.045c8.82-3.11,24.847-10.615,30.259-18.874
						C3169.909,2929.917,3151.544,2926.543,3142.984,2926.662z"/>
				</g>
			</g>
			<g>
				<g>
					<path d="M3054.481,2984.689c-3.931,3.969-7.436,10.084-9.263,13.697c-2.55,5.04-7.68,16.177-1.648,20.942
						c4.855,3.836,13.519-0.689,17.958-3.226c8.552-4.888,15.627-13.014,16.881-22.975c0.56-4.454,0.148-10.102-3.862-12.941
						c-4.686-3.318-9.982-0.491-14.752,0.909C3058.011,2981.619,3056.205,2982.948,3054.481,2984.689z"/>
				</g>
			</g>
			<g>
				<g>
					<path d="M2990.726,3057.888c-7.616,3.811-12.729,10.636-16.742,17.973c-3.814,6.972-4.904,15.065,3.876,18.457
						c10.622,4.104,22.329-12.443,26.793-19.723c2.247-3.665,6.739-10.508,5.709-15.154c-1.84-8.286-13.677-4.281-18.67-2.014
						C2991.366,3057.575,2991.043,3057.729,2990.726,3057.888z"/>
				</g>
			</g>
			<g>
				<g>
					<path d="M3032.531,2907.21c-3.684,8.399-4.012,22.107-3.907,27.705c0.066,3.531,0.267,7.293,2.325,10.164
						c3.039,4.24,9.437,5.018,14.136,2.754c4.699-2.265,7.872-6.875,9.863-11.696c2.343-5.673,3.337-11.988,2.225-18.025
						c-1.111-6.036-4.439-11.748-9.506-15.211C3039.926,2897.611,3035.289,2900.923,3032.531,2907.21z"/>
				</g>
			</g>
			<g>
				<g>
					<path d="M2958.807,2994.174c-5.865,3.425-8.28,13.738-5.592,20.173c3.246,7.763,17.109,9.18,22.849,2.259
						c6.76-8.152-0.49-18.767-8.603-22.515C2964.09,2992.533,2961.168,2992.795,2958.807,2994.174z"/>
				</g>
			</g>
			<g>
				<g>
					<path d="M2890.531,3100.269c-0.753,0.251-1.494,0.574-2.22,0.985c-5.222,2.956-9.245,9.443-10.81,15.105
						c-2.113,7.646,3.602,11.008,10.54,12.037c10.007,1.483,21.229-7.556,25.408-16.097
						C2920.045,3098.818,2898.36,3097.665,2890.531,3100.269z"/>
				</g>
			</g>
			<g>
				<g>
					<path d="M2774.181,3035.623c-1.198,2.42-1.853,5.175-1.989,7.746c-0.35,6.611,0.584,13.287,2.735,19.548
						c0.716,2.086,1.803,4.357,3.901,5.036c2.342,0.759,4.77-0.834,6.537-2.548c6.666-6.467,10.135-16.084,9.131-25.318
						c-0.305-2.802-1.046-5.659-2.831-7.839c-1.822-2.226-4.685-3.56-7.561-3.524
						C2779.359,3028.784,2776.084,3031.779,2774.181,3035.623z"/>
				</g>
			</g>
			<g>
				<g>
					<path d="M2631.881,3092.305c-0.122,1.784,0.002,3.617,0.397,5.449c1.83,8.48,7.646,16.346,15.272,20.907
						c17.12,10.241,34.805,1.282,35.31-18.927c0.38-15.215-16.894-21.791-30.709-24.099
						C2640.976,3073.769,2632.561,3082.265,2631.881,3092.305z"/>
				</g>
			</g>
			<g>
				<g>
					<path d="M2517.256,3124.912c-0.589,1.779-0.416,3.817,0.828,6.152c1.551,2.913,4.421,4.868,7.306,6.47
						c13.89,7.714,30.501,9.789,46.22,7.479c6.989-1.027,14.243-3.109,19.071-8.267c4.827-5.157,6.1-14.145,1.075-19.111
						c-2.542-2.512-6.144-3.588-9.63-4.371c-12.727-2.855-26.057-2.889-38.824-0.255
						C2537.462,3114.214,2519.866,3117.025,2517.256,3124.912z"/>
				</g>
			</g>
			<g>
				<g>
					<path d="M2566.101,3183.732c-0.411,6.55,21.452,16.556,25.714,17.671c2.821,0.738,5.771,1.254,8.646,0.766
						c2.875-0.487,5.682-2.128,6.944-4.757c1.453-3.025,0.605-6.7-1.049-9.62c-2.289-4.039-6.085-7.201-10.472-8.721
						c-7.7-2.668-19.778-2.118-27.089,1.493C2566.993,3181.456,2566.176,3182.537,2566.101,3183.732z"/>
				</g>
			</g>
			<g>
				<g>
					<path d="M2645.171,3170.881c-1.106,6.804,5.415,14.647,10.66,19.399c9.806,8.885,24.93,13.692,36.245,4.605
						c5.224-4.196,9.47-9.665,6.496-16.633c-1.635-3.831-4.943-6.753-8.615-8.716c-9.517-5.086-28.102-12.291-38.497-6.487
						C2647.509,3165.256,2645.644,3167.974,2645.171,3170.881z"/>
				</g>
			</g>
			<g>
				<g>
					<path d="M2733.981,3157.912c4.244,7.198,17.179-0.365,22.666-4.898c5.327-4.4,9.867-8.835,11.47-15.38
						c0.915-3.735,1.067-14.283-6.063-12.144c-2.662,0.798-5.324,1.597-7.986,2.395c-3.187,0.957-6.738,1.078-9.711,2.678
						c-2.909,1.565-4.48,4.603-6.067,7.385C2735.364,3143.08,2730.508,3152.021,2733.981,3157.912z"/>
				</g>
			</g>
			<g>
				<g>
					<path d="M2816.061,3109.975c-1.862,2.926-2.606,6.384-2.856,11.053c-0.321,5.99,0.444,12.04,2.289,17.75
						c0.418,1.294,0.94,2.641,2.015,3.474c2.699,2.094,6.544-0.334,8.784-2.913c7.394-8.509,11.321-19.947,10.712-31.203
						c-0.137-2.525-0.613-5.275-2.525-6.929c-3.267-2.829-8.991,0.836-11.839,2.643
						C2819.594,3105.784,2817.496,3107.722,2816.061,3109.975z"/>
				</g>
			</g>
			<g>
				<g>
					<path d="M2855.819,3026.16c-3.795,2.276-7.121,5.257-10.021,9.889c-4.119,6.578-8.768,16.206-6.133,24.111
						c4.646,12.251,29.255,11.569,38.645,5.847c9.636-5.873,17.493-17.943,18.57-29.228c1.292-13.543-12.03-20.58-23.909-17.713
						C2867.2,3020.459,2860.915,3023.103,2855.819,3026.16z"/>
				</g>
			</g>
			<g>
				<g>
					<g>
						<path d="M2657.351,2208.4c90.938,8.093,97.356,14.534,105.125,105.5c8.093-90.938,14.534-97.355,105.5-105.125
							c-90.938-8.093-97.356-14.533-105.125-105.499C2754.757,2194.212,2748.316,2200.63,2657.351,2208.4z"/>
					</g>
				</g>
			</g>
			<g>
				<g>
					<g>
						<path d="M2293.731,2217.144c62.689,5.579,67.114,10.019,72.47,72.728c5.579-62.689,10.02-67.114,72.728-72.47
							c-62.689-5.579-67.114-10.019-72.47-72.728C2360.881,2207.363,2356.44,2211.787,2293.731,2217.144z"/>
					</g>
				</g>
			</g>
			<g>
				<g>
					<g>
						<path d="M2775.999,2802.432c79.442,11.037,84.795,16.966,87.675,97.119c11.037-79.442,16.966-84.795,97.12-87.675
							c-79.442-11.037-84.795-16.966-87.675-97.119C2862.082,2794.199,2856.153,2799.552,2775.999,2802.432z"/>
					</g>
				</g>
			</g>
			<g>
				<g>
					<g>
						<path d="M2366.33,2894.625c94.917,13.187,101.313,20.271,104.754,116.038c13.187-94.917,20.271-101.313,116.038-104.754
							c-94.917-13.187-101.313-20.271-104.754-116.038C2469.181,2884.788,2462.097,2891.183,2366.33,2894.625z"/>
					</g>
				</g>
			</g>
			<g>
				<g>
					<g>
						<path d="M2187.033,2514.877c78.943,7.025,84.515,12.617,91.26,91.585c7.026-78.944,12.617-84.515,91.585-91.26
							c-78.944-7.025-84.515-12.617-91.26-91.585C2271.592,2502.561,2266,2508.132,2187.033,2514.877z"/>
					</g>
				</g>
			</g>
			<g>
				<g>
					<g>
						<path d="M2954.206,2512.899c79.094,7.038,84.676,12.64,91.433,91.759c7.038-79.093,12.641-84.676,91.759-91.434
							c-79.094-7.039-84.676-12.641-91.433-91.759C3038.926,2500.559,3033.324,2506.142,2954.206,2512.899z"/>
					</g>
				</g>
			</g>
			<g>
				<g>
					<g>
						<path d="M2629.61,2334.398c-111.182,0-201.589,90.447-201.589,201.59c0,111.182,90.407,201.628,201.589,201.628
							c111.183,0,201.59-90.446,201.59-201.628C2831.199,2424.845,2740.792,2334.398,2629.61,2334.398z M2629.61,2717.857
							c-100.287,0-181.868-81.581-181.868-181.868c0-100.287,81.581-181.868,181.868-181.868
							c100.287,0,181.869,81.582,181.869,181.868C2811.479,2636.275,2729.897,2717.857,2629.61,2717.857z"/>
					</g>
				</g>
				<g>
					<g>
						<path d="M2653.823,2399.109c-11.794,0-23.549,1.523-34.874,4.492l-36.28,9.568l36.28,9.529
							c51.393,13.512,87.283,60.102,87.283,113.292c0,53.228-35.889,99.819-87.283,113.292l-36.358,9.567l36.358,9.529
							c11.364,3.007,23.08,4.491,34.874,4.491c75.489,0,136.879-61.391,136.879-136.879
							C2790.702,2460.539,2729.311,2399.109,2653.823,2399.109z M2660.266,2652.99c39.99-24.369,65.726-68.303,65.726-117.001
							c0-48.659-25.735-92.594-65.726-116.962c61.586,3.358,110.714,54.556,110.714,116.962
							C2770.98,2598.434,2721.852,2649.632,2660.266,2652.99z"/>
					</g>
				</g>
			</g>
			<g>
				<path d="M2605.772,3275.547c-32.77,0-66.414-7.025-98.108-21.326c-80.508-36.257-136.558-110.064-185.136-184.421
					c-75.107-114.946-141.115-237.454-196.188-364.128l20.304-8.824c54.579,125.533,119.99,246.935,194.419,360.84
					c46.739,71.545,100.372,142.424,175.7,176.347c67.982,30.681,148.751,23.752,200.988-17.246
					c6.396-5.022,12.486-10.537,18.935-16.38c16.519-14.961,33.603-30.433,56.226-37.214c25.541-7.681,50.98-2.212,75.58,3.074
					c15.103,3.245,29.366,6.308,43.494,6.495c0.397,0.004,0.795,0.004,1.192,0.004c46.253,0,84.775-31.818,103.709-50.902
					c19.032-19.202,35.578-41.722,51.581-63.502c8.829-12.017,17.959-24.446,27.506-36.341
					c11.392-14.187,24.311-28.469,41.575-36.818c18.87-9.111,39.285-9.553,59.025-9.98c17.948-0.385,34.903-0.751,49.365-7.501
					c30.689-14.298,42.001-53.053,46.085-83.044c1.11-8.123,1.968-16.597,2.803-24.789c2.967-29.171,6.033-59.331,20.762-86.129
					c16.571-30.121,44.742-50.323,71.988-69.856c29.427-21.101,57.221-41.032,68.903-71.583c10.777-28.107,5.187-60.49-0.889-85.565
					c-44.853-185.416-209.176-350.657-428.841-431.242c-54.14-19.873-110.9-35.323-173.525-47.237
					c-149.397-28.432-302.179-30.929-458.607-31.086c-112.583-0.29-213.016,2.7-304.115,38.782
					c-1.958,0.743-3.728,1.464-5.496,2.223l-8.722-20.35c2.057-0.881,4.117-1.724,6.218-2.517
					c94.59-37.462,197.345-40.315,312.138-40.28c157.519,0.16,311.439,2.688,462.72,31.478
					c63.827,12.143,121.729,27.909,177.013,48.202c105.915,38.854,202.192,98.119,278.425,171.385
					c83.261,80.023,140.078,175.264,164.307,275.431c6.831,28.191,13.009,64.887,0.046,98.692
					c-14.053,36.753-45.887,59.582-76.675,81.66c-26.402,18.931-51.336,36.814-65.489,62.53
					c-12.558,22.852-15.266,49.494-18.134,77.701c-0.854,8.378-1.735,17.047-2.895,25.544
					c-4.828,35.453-18.927,81.603-58.663,100.114c-18.68,8.718-38.797,9.153-58.247,9.572c-18.172,0.393-35.338,0.763-49.868,7.78
					c-12.566,6.075-22.657,16.685-33.944,30.742c-9.25,11.525-18.237,23.76-26.929,35.59
					c-16.477,22.425-33.515,45.616-53.703,65.985c-36.803,37.092-79.179,57.45-119.482,57.454c-0.473,0-0.94-0.004-1.413-0.011
					c-16.345-0.21-32.373-3.654-47.87-6.983c-22.869-4.92-44.478-9.568-64.565-3.516c-17.836,5.347-32.355,18.497-47.729,32.421
					c-6.447,5.839-13.114,11.88-20.125,17.387C2696.606,3261.528,2652.063,3275.547,2605.772,3275.547z"/>
			</g>
		</g>
		<g>
			<g>
				<g>
					<circle cx="1639.446" cy="1012.107" r="45.262"/>
				</g>
			</g>
			<g>
				<g>
					<path d="M1659.991,1038.978c58.526,36.119,111.323,82.191,151.911,137.938c20.329,27.921,37.617,58.06,51.257,89.796
						c16.242,37.791,27.125,77.728,35.851,117.847c10.038,46.149,17.243,92.852,26.636,139.13
						c1.499,7.384,12.794,4.259,11.297-3.115c-16.867-83.095-26.876-168.398-58.621-247.643
						c-26.151-65.28-66.992-123.779-118.039-172.044c-28.81-27.24-60.654-51.212-94.379-72.025
						C1659.47,1024.89,1653.58,1035.021,1659.991,1038.978L1659.991,1038.978z"/>
				</g>
			</g>
		</g>
		<g>
			<g>
				<g>
					<circle cx="2348.798" cy="1012.107" r="45.262"/>
				</g>
			</g>
			<g>
				<g>
					<path d="M2322.338,1028.861c-59.688,36.836-113.132,83.698-154.776,140.314c-20.915,28.435-38.637,59.197-52.594,91.623
						c-16.441,38.197-27.749,78.291-36.641,118.852c-10.244,46.731-17.513,94.047-27.028,140.923
						c-1.494,7.361,9.796,10.51,11.297,3.115c16.571-81.638,26.494-165.364,56.965-243.453
						c25.188-64.55,65.461-122.358,115.585-170.024c28.401-27.008,59.77-50.662,93.105-71.234
						C2334.656,1035.025,2328.779,1024.887,2322.338,1028.861L2322.338,1028.861z"/>
				</g>
			</g>
		</g>
	</g>
	<g>
		<g>
			<path d="M1988.085,1578.963c-6.715,0.847-13.281,2.122-19.682,3.791c60.684,21.704,108.238,79.948,117.497,153.313
				c11.776,93.303-42.518,178.306-123.697,199.468c22.577,8.075,46.97,11.094,71.887,7.949
				c91.89-11.598,156.083-102.599,143.379-203.259C2164.765,1639.565,2079.975,1567.366,1988.085,1578.963z"/>
		</g>
	</g>
	<g>
		<g>
			<path d="M1912.509,2285.99c-8.839,70.794-16.09,141.936-16.975,213.331c-0.864,69.703,4.397,139.944,21.024,207.795
				c9.395,38.34,22.566,75.693,39.673,111.279c3.265,6.792,13.371,0.857,10.116-5.913c-29.929-62.257-46.736-130.065-54.11-198.575
				c-7.492-69.599-5.928-139.896-0.449-209.58c3.11-39.546,7.522-78.977,12.436-118.335
				C1925.156,2278.527,1913.432,2278.595,1912.509,2285.99L1912.509,2285.99z"/>
		</g>
	</g>
</g>

    <text x="10" y="832" font-size="12" fill="gray" opacity="0.6" font-family="Arial, sans-serif">
      twoja-kolorowanka.pl
    </text>
  
</svg>
