<?xml version="1.0" encoding="utf-8"?>
<!-- Generator: Adobe Illustrator 27.5.0, SVG Export Plug-In . SVG Version: 6.00 Build 0)  -->
<svg version="1.1" xmlns="http://www.w3.org/2000/svg" xmlns:xlink="http://www.w3.org/1999/xlink" x="0px" y="0px"
	 viewBox="0 0 500 500" style="enable-background:new 0 0 500 500;" xml:space="preserve">
<g id="BACKGROUND">
	<rect x="-0.001" style="fill:#FFFFFF;" width="500" height="500"/>
</g>
<g id="OBJECTS">
	<g>
		<g>
			<path style="fill:#292236;" d="M324.577,194.014c-6.29,0-10.844-5.191-11.752-6.309c-0.952-0.014-4.125-0.292-5.406-3.277
				c-1.336-3.114-1.633-11.06-1.668-12.164c-0.747-1.427-9.045-17.287-12.067-22.896c-3.496-6.489-5.209-14.328-4.261-19.505
				c1.025-5.601,9.034-11.969,9.374-12.237c0.217-0.17,0.532-0.134,0.702,0.083c0.171,0.217,0.134,0.531-0.083,0.702
				c-0.081,0.063-8.053,6.402-9.01,11.631c-0.91,4.971,0.761,12.547,4.158,18.851c3.153,5.852,12.037,22.838,12.127,23.009
				c0.036,0.067,0.055,0.142,0.057,0.218c0.003,0.087,0.259,8.81,1.59,11.913c1.231,2.868,4.659,2.671,4.694,2.67
				c0.168-0.012,0.33,0.063,0.432,0.197c0.053,0.069,5.322,6.877,12.358,6.039c7.077-0.849,11.483-8.628,11.526-8.707
				c0.055-0.099,0.144-0.177,0.249-0.22c0.026-0.011,2.585-1.086,2.875-3.539c0.275-2.325-1.99-3.029-2.086-3.058
				c-0.225-0.067-0.374-0.282-0.357-0.516c0.005-0.071,0.533-7.2,1.495-12.706c0.882-5.051,3.535-8.698,8.123-13.663
				c6.877-7.441,6.885-17.776,6.81-19.871c-1.903-0.389-9.881-2.362-12.539-8.532c-2.931-6.8-1.749-16.661,7.344-23.651
				c-6.291-3.024-13.343,4.156-13.415,4.232c-0.141,0.146-0.357,0.191-0.545,0.117c-0.188-0.075-0.313-0.256-0.315-0.459
				c-0.002-0.208-0.023-4.86,2.19-8.032c-5.737-2.145-10.09,1.155-10.134,1.19c-0.219,0.17-0.532,0.13-0.702-0.088
				c-0.169-0.218-0.13-0.532,0.088-0.702c0.208-0.162,5.174-3.926,11.741-1.077c0.144,0.063,0.251,0.189,0.287,0.343
				c0.037,0.153-0.001,0.315-0.102,0.436c-1.665,2-2.16,5.04-2.307,6.712c2.322-2.042,8.599-6.678,14.397-3.166
				c0.144,0.087,0.234,0.24,0.241,0.407c0.007,0.167-0.07,0.327-0.206,0.425c-9.221,6.688-10.483,16.329-7.644,22.917
				c2.746,6.372,12.089,8.001,12.183,8.017c0.226,0.038,0.398,0.225,0.416,0.453c0.01,0.123,0.899,12.403-7.054,21.008
				c-4.458,4.824-7.033,8.349-7.872,13.156c-0.827,4.733-1.331,10.689-1.454,12.23c1.121,0.475,2.678,1.734,2.41,3.995
				c-0.317,2.677-2.672,3.965-3.328,4.275c-0.675,1.15-5.087,8.213-12.197,9.067C325.478,193.987,325.023,194.014,324.577,194.014z"
				/>
			<path style="fill:#292236;" d="M291.313,127.026c-0.147,0-0.291-0.065-0.388-0.185c-0.032-0.039-3.261-3.943-6.519-3.267
				c-0.27,0.053-0.535-0.118-0.591-0.389c-0.056-0.271,0.118-0.535,0.389-0.591c2.625-0.544,5.084,1.246,6.431,2.5
				c-0.402-2.246-1.691-6.371-5.756-6.964c-0.273-0.04-0.462-0.293-0.422-0.567c0.039-0.273,0.294-0.468,0.567-0.422
				c6.429,0.938,6.787,9.283,6.789,9.367c0.007,0.214-0.123,0.41-0.324,0.485C291.431,127.016,291.372,127.026,291.313,127.026z"/>
			<path style="fill:#292236;" d="M315.027,148.708c-0.089,0-0.179-0.024-0.258-0.072c-0.21-0.126-5.13-3.156-5.269-8.565
				c-0.14-5.468,5.46-8.025,5.699-8.131c0.149-0.067,0.322-0.057,0.462,0.028c0.052,0.031,5.168,3.188,4.366,8.853
				c-0.791,5.586-4.597,7.736-4.759,7.825C315.193,148.688,315.111,148.708,315.027,148.708z M315.366,132.973
				c-1.026,0.537-4.974,2.88-4.866,7.073c0.107,4.2,3.558,6.889,4.532,7.566c0.814-0.562,3.399-2.653,4.004-6.931
				C319.656,136.311,316.277,133.614,315.366,132.973z"/>
			<path style="fill:#292236;" d="M317.913,144.477c-1.524,0-4.886-0.321-5.546-3.09c-0.408-1.712,0.316-3.555,1.845-4.696
				c1.543-1.153,3.456-1.27,5.117-0.314c0.239,0.138,0.322,0.444,0.184,0.683c-0.138,0.239-0.443,0.321-0.683,0.184
				c-1.304-0.751-2.806-0.656-4.02,0.249c-1.208,0.902-1.786,2.34-1.47,3.663c0.64,2.686,5.181,2.302,5.227,2.298
				c0.267-0.03,0.518,0.178,0.543,0.452c0.025,0.275-0.176,0.518-0.451,0.544C318.611,144.454,318.331,144.477,317.913,144.477z"/>
			<path style="fill:#292236;" d="M316.361,141.511c-0.915,0-1.642-0.519-1.881-1.39c-0.19-0.694,0.028-1.393,0.6-1.917
				c0.697-0.64,1.749-0.88,2.556-0.581c0.665,0.246,1.084,0.811,1.179,1.59l0,0c0.144,1.183-0.895,2.04-1.945,2.247
				C316.695,141.495,316.525,141.511,316.361,141.511z M316.901,138.498c-0.394,0-0.841,0.164-1.145,0.443
				c-0.205,0.188-0.425,0.5-0.311,0.916c0.209,0.762,0.995,0.668,1.232,0.622c0.616-0.121,1.213-0.583,1.145-1.145c0,0,0,0,0-0.001
				c-0.049-0.406-0.223-0.658-0.532-0.772C317.172,138.518,317.04,138.498,316.901,138.498z"/>
			<path style="fill:#292236;" d="M313.654,152.353c-1.201,0-3.171-0.438-5.139-2.772c-0.178-0.212-0.151-0.527,0.06-0.705
				c0.211-0.179,0.526-0.15,0.704,0.06c2.62,3.109,5.112,2.348,5.215,2.313c0.261-0.083,0.544,0.057,0.63,0.318
				c0.087,0.261-0.052,0.542-0.312,0.63C314.766,152.213,314.333,152.353,313.654,152.353z"/>
			<path style="fill:#292236;" d="M301.242,149.458c-2.568,0-4.003-2.014-4.496-3.969c-0.565-2.244-0.065-5.118,1.974-6.023
				c2.652-1.178,4.27-0.449,5.159,0.368c1.711,1.573,1.892,4.561,1.194,6.575c-0.627,1.809-1.882,2.915-3.442,3.034
				C301.499,149.453,301.369,149.458,301.242,149.458z M301.282,139.856c-0.646,0-1.37,0.174-2.157,0.523l0,0
				c-1.483,0.658-1.882,2.99-1.41,4.865c0.203,0.804,1.09,3.412,3.839,3.201c1.145-0.087,2.082-0.949,2.573-2.364
				c0.698-2.015,0.3-4.384-0.926-5.511C302.685,140.095,302.037,139.856,301.282,139.856z M298.923,139.923h0.01H298.923z"/>
			<path style="fill:#292236;" d="M323.858,163.768c-0.232,0-0.44-0.163-0.489-0.399c-2.193-10.613,4.96-21.753,5.685-22.473
				c0.12-0.119,0.376-0.227,0.539-0.189c0.27,0.058,0.442,0.323,0.384,0.593c-0.031,0.145-0.123,0.263-0.243,0.331
				c-0.735,0.803-7.439,11.6-5.386,21.536c0.056,0.27-0.118,0.535-0.389,0.591C323.925,163.765,323.892,163.768,323.858,163.768z"/>
			<path style="fill:#292236;" d="M324.36,179.993c-0.018,0-0.035-0.001-0.053-0.003c-0.274-0.029-0.473-0.275-0.444-0.55
				c0.023-0.218,0.517-5.362-3.297-6.265c-2.88-0.673-4.902,3.758-4.922,3.803c-0.113,0.252-0.408,0.363-0.66,0.253
				c-0.253-0.113-0.365-0.408-0.253-0.66c0.096-0.214,2.376-5.242,6.066-4.368c3.738,0.885,4.29,5.19,4.06,7.344
				C324.829,179.802,324.612,179.993,324.36,179.993z"/>
			<path style="fill:#292236;" d="M321.479,182.908c-0.26,0-0.479-0.201-0.498-0.464c-0.193-2.66-0.871-5.646-1.574-5.85
				c-0.131-0.038-0.249-0.021-0.382,0.055c-0.617,0.35-1.173,1.731-1.379,2.519c-0.07,0.267-0.343,0.426-0.61,0.358
				c-0.267-0.07-0.427-0.342-0.358-0.609c0.065-0.251,0.668-2.464,1.852-3.137c0.367-0.209,0.766-0.259,1.156-0.146
				c1.712,0.498,2.187,5.283,2.292,6.738c0.02,0.275-0.187,0.515-0.462,0.535C321.503,182.908,321.491,182.908,321.479,182.908z"/>
			<path style="fill:#292236;" d="M342.172,140.472c-2.442,0-4.849-0.623-7.149-1.868c-10.832-5.86-11.092-13.933-11.098-14.273
				c-0.003-0.178,0.089-0.345,0.243-0.437c0.153-0.091,0.344-0.095,0.5-0.008l2.68,1.487c-2.203-3.059-6.156-9.059-5.686-12.11
				c0.01-0.063,0.031-0.123,0.063-0.177c2.578-4.393,2.539-9.249-0.115-14.433c-2.164-4.227-4.405-10.077-5.247-12.335
				c-1.504,2.387-5.688,9.518-6.306,15.865c-0.748,7.676,1.967,11.764,1.994,11.804c0.156,0.228,0.097,0.539-0.132,0.694
				c-0.228,0.156-0.54,0.096-0.694-0.132c-0.121-0.177-2.946-4.431-2.163-12.463c0.777-7.982,6.759-16.791,7.013-17.162
				c0.106-0.155,0.292-0.237,0.476-0.213c0.187,0.024,0.344,0.15,0.407,0.327c0.028,0.078,2.85,7.901,5.542,13.158
				c2.803,5.475,2.85,10.624,0.138,15.307c-0.358,3.116,4.843,10.515,6.899,13.128c0.147,0.187,0.142,0.452-0.012,0.633
				c-0.155,0.182-0.416,0.229-0.624,0.113l-3.856-2.14c0.415,2.232,2.267,8.057,10.455,12.486
				c10.234,5.536,18.885-3.908,18.971-4.004c0.185-0.206,0.501-0.222,0.706-0.038c0.206,0.185,0.223,0.501,0.038,0.706
				c-0.093,0.104-2.326,2.567-5.93,4.34C346.923,139.891,344.531,140.472,342.172,140.472z"/>
			<path style="fill:#292236;" d="M317.278,111.586c-0.064,0-0.128-0.012-0.19-0.038c-0.201-0.083-0.325-0.286-0.308-0.502
				c0.169-2.093-0.068-5.049-0.951-5.153c-0.076-0.01-0.182-0.003-0.333,0.117c-0.817,0.652-1.378,3.293-1.54,4.805
				c-0.025,0.237-0.215,0.423-0.453,0.445c-0.235,0.02-0.457-0.128-0.524-0.358c-0.108-0.367-2.575-9.103,2.182-18.49
				c0.09-0.179,0.274-0.285,0.478-0.273c0.2,0.013,0.373,0.144,0.439,0.333c0.296,0.841,0.598,1.67,0.896,2.486
				c2.359,6.467,4.397,12.053,0.687,16.451C317.563,111.523,317.422,111.586,317.278,111.586z M315.786,104.89
				c0.053,0,0.107,0.003,0.161,0.009c1.534,0.182,1.858,2.653,1.885,4.47c1.955-3.778,0.2-8.593-1.798-14.069
				c-0.164-0.45-0.329-0.904-0.495-1.362c-2.532,5.643-2.445,11.01-2.077,14.069c0.297-1.11,0.748-2.252,1.409-2.779
				C315.151,105.005,315.464,104.89,315.786,104.89z"/>
			<path style="fill:#292236;" d="M352.029,129.761l-0.635-0.772c0-0.001,45.249-37.144,53.784-44.169
				c7.545-6.211,14.377-14.515,14.333-17.421c-0.006-0.394-0.16-0.513-0.21-0.552c-3.072-0.488-49.791,30.589-64.703,41.001
				c-9.934,6.936-13.229,9.152-13.261,9.173c-0.229,0.154-0.54,0.093-0.694-0.136c-0.154-0.23-0.093-0.54,0.136-0.694
				c0.032-0.021,3.323-2.235,13.247-9.164c5.087-3.552,20.743-14.181,35.565-23.8c28.554-18.531,29.749-17.614,30.322-17.171
				c0.267,0.206,0.587,0.604,0.599,1.328c0.054,3.556-7.702,12.451-14.697,18.209C397.279,92.618,352.029,129.761,352.029,129.761z"
				/>
			<path style="fill:#292236;" d="M360.595,158.844c-0.373,0-0.752-0.015-1.139-0.048c-9.333-0.779-11.813-7.475-11.914-7.759
				c-0.092-0.26,0.043-0.544,0.303-0.637c0.259-0.093,0.545,0.043,0.639,0.302c0.094,0.26,2.389,6.374,11.055,7.098
				c6.762,0.56,11.239-4.42,12.924-6.706c-1.881,0.361-5.364,0.389-8.558-3.092c-2.881-3.138-0.41-6.261,2.206-9.568
				c1.86-2.351,3.968-5.016,4.747-8.169c1.801-7.287-6.368-10.642-6.717-10.781c-0.256-0.102-0.381-0.393-0.279-0.649
				c0.103-0.256,0.393-0.38,0.649-0.28c0.094,0.038,9.33,3.813,7.318,11.951c-0.831,3.363-3.011,6.118-4.934,8.549
				c-2.911,3.68-4.451,5.878-2.254,8.272c4.155,4.525,8.746,2.477,8.792,2.456c0.197-0.093,0.431-0.046,0.578,0.115
				c0.147,0.16,0.174,0.397,0.066,0.586C374.028,150.57,369.209,158.843,360.595,158.844z"/>
			<path style="fill:#292236;" d="M359.659,141.89c-0.114,0-0.226-0.039-0.316-0.113c-3.174-2.59-5.23-2.868-5.251-2.87
				c-0.273-0.033-0.469-0.281-0.438-0.554c0.032-0.272,0.267-0.466,0.55-0.439c0.088,0.01,2.088,0.256,5.197,2.636
				c2.926-9.772-3.585-13.924-3.87-14.099c-0.235-0.145-0.308-0.453-0.164-0.688c0.145-0.235,0.451-0.308,0.687-0.166
				c0.078,0.048,7.785,4.913,4.079,15.952c-0.052,0.156-0.178,0.276-0.336,0.321C359.752,141.884,359.705,141.89,359.659,141.89z"/>
			<path style="fill:#292236;" d="M362.815,102.112c-0.01,0-0.02,0-0.03-0.001c-0.275-0.016-0.486-0.252-0.47-0.528
				c0.007-0.118,0.592-11.641-6.309-16.215c-2.79,3.979-7.443,1.619-7.49,1.594c-0.241-0.125-0.337-0.42-0.218-0.664
				c0.082-0.167,8.035-16.79-4.501-24.861c-7.057-4.543-11.03-4.87-13.118-4.343c-1.657,0.417-2.206,1.38-2.229,1.42
				c-0.119,0.215-0.377,0.315-0.608,0.23c-0.231-0.083-0.369-0.319-0.323-0.56c0.08-0.428,1.838-10.509-9.214-12.61
				c-3.896-0.741-7.879-0.015-11.73,0.687c-7.14,1.302-13.896,2.533-16.8-7.272c-2.644,2.827-3.397,7.025-2.003,11.41
				c1.755,5.516,7.316,11.846,17.662,13.072c17.494,2.073,19.909,12.807,20.003,13.263c0.056,0.27-0.118,0.534-0.388,0.59
				c-0.269,0.058-0.535-0.117-0.591-0.387c-0.006-0.026-0.583-2.647-3.209-5.476c-2.431-2.619-7.169-5.959-15.932-6.997
				c-10.818-1.282-16.648-7.949-18.497-13.762c-1.616-5.08-0.541-9.953,2.876-13.035c0.13-0.117,0.312-0.157,0.479-0.108
				c0.167,0.05,0.296,0.185,0.34,0.354c2.533,9.796,8.422,8.724,15.882,7.364c3.942-0.718,8.02-1.461,12.096-0.686
				c9.451,1.796,10.247,9.186,10.141,12.341c0.424-0.3,0.993-0.596,1.739-0.792c2.283-0.6,6.559-0.313,13.966,4.456
				c5.509,3.547,8.091,9.208,7.468,16.37c-0.382,4.393-1.834,8.034-2.393,9.3c1.13,0.437,4.164,1.238,6.014-1.841
				c0.142-0.237,0.45-0.313,0.685-0.172c7.855,4.695,7.232,16.873,7.202,17.389C363.298,101.907,363.078,102.112,362.815,102.112z"
				/>
			<path style="fill:#292236;" d="M326.908,83.426c-0.192,0-0.375-0.111-0.458-0.298c-5.179-11.735,1.046-24.936,1.11-25.068
				c0.12-0.248,0.415-0.354,0.668-0.234c0.249,0.12,0.353,0.418,0.234,0.667c-0.061,0.128-6.086,12.923-1.096,24.231
				c0.111,0.252-0.003,0.548-0.256,0.659C327.044,83.413,326.975,83.426,326.908,83.426z"/>
			<path style="fill:#292236;" d="M302.711,79.889c-0.032,0-0.065-0.003-0.098-0.01c-0.271-0.054-0.447-0.317-0.393-0.588
				c2.535-12.718,15.266-11.947,15.394-11.94c0.275,0.02,0.482,0.259,0.462,0.534c-0.02,0.275-0.246,0.484-0.534,0.463
				c-0.483-0.03-11.981-0.704-14.342,11.138C303.154,79.725,302.944,79.889,302.711,79.889z"/>
			<path style="fill:#292236;" d="M280.47,75.412c-0.114,0-0.229-0.039-0.322-0.118c-0.211-0.179-0.237-0.494-0.059-0.704
				c8.021-9.48,23.747-11.166,24.413-11.233c0.278-0.017,0.52,0.173,0.548,0.447c0.028,0.275-0.172,0.52-0.447,0.548
				c-0.159,0.016-15.992,1.715-23.75,10.883C280.753,75.352,280.612,75.412,280.47,75.412z"/>
			<path style="fill:#292236;" d="M248.234,216.058c-0.117,0-0.233-0.041-0.328-0.122c-0.184-0.16-0.227-0.43-0.1-0.638
				c7.624-12.519-5.15-24.699-8.844-27.838l0.71,5.561c0.025,0.198-0.07,0.392-0.242,0.494c-0.171,0.103-0.387,0.092-0.549-0.026
				c-0.508-0.371-12.467-9.197-13.607-19.895c-0.461-4.322,0.937-8.34,4.153-11.943c4.247-4.757,6.246-9.542,5.94-14.223
				c-0.347-5.322-3.639-8.957-4.638-9.944c-0.712,0.542-2.452,1.996-3.559,3.998c-0.088,0.16-0.278,0.233-0.441,0.258
				c-0.183-0.001-0.351-0.103-0.438-0.264c-6.547-12.218-1.349-19.543,5.245-25.639c5.218-4.824,6.002-9.657,6.115-11.221
				l-5.191,0.431c-0.285,0.021-0.517-0.182-0.54-0.457c-0.022-0.262-1.996-26.192,14.17-29.041
				c12.829-2.262,16.855-6.905,17.849-8.41c-1-0.265-3.526-0.765-8.685-0.906c-0.16-0.004-0.308-0.085-0.398-0.216
				c-0.091-0.131-0.113-0.298-0.061-0.449c5.112-14.608,30.247-16.845,31.314-16.934c0.274-0.02,0.517,0.183,0.539,0.458
				c0.023,0.275-0.182,0.517-0.457,0.54c-0.251,0.02-24.776,2.202-30.21,15.624c6.795,0.237,8.814,1.098,8.899,1.136
				c0.247,0.109,0.363,0.395,0.261,0.646c-0.111,0.271-2.887,6.678-18.879,9.496c-14.066,2.48-13.561,23.913-13.378,27.475
				l5.24-0.434c0.138-0.017,0.27,0.033,0.371,0.122c0.102,0.09,0.163,0.217,0.17,0.352c0.012,0.256,0.222,6.352-6.453,12.524
				c-6.155,5.691-11.042,12.496-5.448,23.649c1.533-2.315,3.627-3.735,3.725-3.8c0.186-0.127,0.434-0.111,0.604,0.036
				c0.197,0.169,4.826,4.218,5.268,10.892c0.329,4.963-1.754,9.999-6.191,14.969c-3.02,3.383-4.334,7.142-3.905,11.171
				c0.911,8.55,9.386,16.116,12.256,18.452l-0.714-5.592c-0.025-0.199,0.071-0.394,0.244-0.496c0.173-0.102,0.39-0.089,0.551,0.032
				c0.185,0.138,17.411,13.244,11.266,27.592c16.132-14.727,12.82-31.327,9.28-40.106c-5.336-13.236-7.165-22.763-1.562-35.182
				c0.073-0.163,0.228-0.274,0.405-0.292c0.183-0.014,0.351,0.06,0.456,0.204c1.609,2.219,2.352,4.792,2.681,6.96
				c1.085-6.697,2.81-19.478,2.185-29.896c-0.906-15.104,15.108-27.157,15.27-27.277c0.16-0.119,0.375-0.131,0.549-0.031
				c0.172,0.1,0.269,0.294,0.246,0.491l-1.154,9.741c2.655-1.86,10.343-6.389,16.689-1.667c6.776,5.041,3.674,13.594,2.716,15.804
				c1.727,0.497,7.479,1.729,12.124-2.242c0.21-0.179,0.526-0.154,0.705,0.055c0.18,0.21,0.155,0.526-0.055,0.705
				c-5.965,5.1-13.332,2.37-13.643,2.253c-0.133-0.051-0.238-0.156-0.289-0.289c-0.051-0.133-0.042-0.281,0.022-0.407
				c0.205-0.397,4.927-9.79-2.179-15.076c-7.141-5.313-16.312,2.268-16.403,2.345c-0.157,0.132-0.379,0.156-0.559,0.057
				c-0.181-0.097-0.283-0.295-0.259-0.498l1.147-9.686c-3.379,2.815-14.677,13.206-13.93,25.663
				c0.895,14.9-2.969,34.544-3.008,34.741c-0.052,0.262-0.306,0.438-0.565,0.396c-0.264-0.04-0.45-0.28-0.423-0.545
				c0.006-0.061,0.556-5.798-2.182-10.267c-5.005,11.692-3.168,20.886,1.944,33.566c6.43,15.948,2.227,31.603-11.529,42.95
				C248.459,216.02,248.346,216.058,248.234,216.058z"/>
			<path style="fill:#292236;" d="M328.341,256.885c-0.065,0-0.13-0.013-0.193-0.039c-0.255-0.106-0.374-0.399-0.268-0.654
				c0.087-0.208,8.695-20.964,6.256-36.8c-0.037-0.236,0.1-0.465,0.325-0.546c0.224-0.082,0.476,0.008,0.599,0.214
				c1.113,1.863,2.125,2.8,2.775,2.575c1.296-0.452,1.894-4.757,1.639-6.679c-1.476-11.119-8.418-23.272-8.488-23.394
				c-0.138-0.239-0.056-0.545,0.184-0.683c0.239-0.139,0.545-0.056,0.683,0.184c0.071,0.123,7.111,12.443,8.613,23.761
				c0.213,1.602-0.075,6.979-2.301,7.755c-0.872,0.303-1.793-0.126-2.787-1.313c1.523,15.795-6.49,35.111-6.575,35.312
				C328.721,256.77,328.536,256.885,328.341,256.885z"/>
			<path style="fill:#292236;" d="M333.305,348.707c-0.017,0-0.035-0.001-0.052-0.003c-0.164-0.017-0.309-0.113-0.387-0.258
				l-2.682-4.929l-2.013,2.212c-0.11,0.12-0.273,0.181-0.434,0.159c-0.162-0.022-0.304-0.12-0.379-0.266
				c-0.251-0.484-6.161-11.933-6.102-18.247c0.06-6.387,3.033-9.578,3.159-9.711c0.047-0.05,0.103-0.089,0.165-0.115l10.131-4.324
				c-0.915-1.331-2.779-4.389-1.765-5.931c0.927-1.41,3.456-2.271,4.481-2.571c-0.457-3.286-3.565-24.41-9.095-32.872
				c-7.761,6.74-24.2,7.74-36.328,2.108c-11.993-5.564-14.046-18.959-14.065-19.094c-0.039-0.273,0.15-0.526,0.424-0.566
				c0.271-0.035,0.527,0.15,0.566,0.424c0.018,0.129,2.004,12.997,13.496,18.33c12.026,5.581,28.355,4.52,35.657-2.323
				c0.105-0.099,0.25-0.148,0.393-0.132c0.144,0.015,0.274,0.091,0.358,0.209c6.322,8.963,9.512,33.191,9.645,34.218
				c0.032,0.253-0.13,0.489-0.376,0.55c-0.939,0.231-3.544,1.09-4.319,2.269c-0.595,0.904,0.869,3.643,2.098,5.3
				c0.091,0.123,0.121,0.28,0.081,0.429c-0.04,0.147-0.145,0.268-0.286,0.329l-10.599,4.524c-0.418,0.49-2.77,3.496-2.821,8.96
				c-0.049,5.239,4.41,14.604,5.665,17.133l1.997-2.194c0.108-0.12,0.27-0.183,0.43-0.159c0.161,0.02,0.302,0.115,0.379,0.257
				l2.669,4.905c4.972-5.912,16.075-20.267,14.747-24.169c-0.959-2.814-0.047-7.192,1.106-12.734
				c1.062-5.101,2.265-10.881,2.378-17.07c0.232-12.674-3.416-21.31-3.453-21.395c-0.059-0.136-0.053-0.292,0.014-0.424
				c0.108-0.214,2.612-5.273-0.914-9.515c-1.723-2.071-4.88-2.389-9.25-2.827c-4.682-0.471-10.509-1.057-17.189-4.082
				c-13.044-5.909-14.681-24.635-14.696-24.823c-0.022-0.275,0.184-0.516,0.458-0.538c0.281-0.015,0.516,0.184,0.539,0.459
				c0.015,0.183,1.608,18.328,14.112,23.993c6.529,2.957,12.266,3.534,16.875,3.997c4.433,0.445,7.935,0.797,9.919,3.184
				c3.522,4.235,1.615,9.296,1.135,10.392c0.56,1.411,3.665,9.796,3.449,21.599c-0.115,6.283-1.328,12.113-2.399,17.257
				c-1.123,5.393-2.009,9.652-1.139,12.208c1.804,5.298-13.637,23.623-15.403,25.695C333.59,348.644,333.45,348.707,333.305,348.707
				z"/>
			<path style="fill:#292236;" d="M240.703,319.897c-3.554,0-5.302-0.279-5.491-0.312c-0.272-0.047-0.455-0.305-0.409-0.577
				c0.046-0.271,0.297-0.459,0.576-0.409c0.129,0.023,13.207,2.083,43.537-5.525c30.212-7.577,41.985-37.793,42.1-38.097
				c0.099-0.259,0.387-0.384,0.645-0.291c0.258,0.098,0.388,0.387,0.291,0.645c-0.117,0.309-12.064,31.007-42.793,38.714
				C259.466,318.982,247.132,319.897,240.703,319.897z"/>
			<path style="fill:#292236;" d="M345.042,323.379c-0.534,0-1.065-0.101-1.547-0.363c-0.996-0.543-1.573-1.646-1.722-3.284
				c-0.696,0.177-1.293,0.086-1.78-0.272c-1-0.733-1.176-2.412-1.172-3.538c-0.283,0.123-0.62,0.203-1.005,0.17
				c-1.005-0.084-1.939-0.893-2.775-2.407c-0.134-0.242-0.046-0.546,0.196-0.68c0.243-0.137,0.545-0.046,0.679,0.195
				c0.653,1.182,1.336,1.836,1.976,1.895c0.63,0.056,1.092-0.498,1.097-0.503c0.14-0.172,0.379-0.232,0.583-0.145
				c0.204,0.087,0.328,0.297,0.302,0.518c-0.089,0.757-0.149,3.061,0.71,3.69c0.326,0.238,0.811,0.216,1.447-0.071
				c0.153-0.067,0.331-0.055,0.473,0.033c0.142,0.09,0.229,0.245,0.232,0.413c0.031,1.632,0.447,2.679,1.237,3.109
				c1.273,0.693,3.399-0.29,4.11-0.728c0.236-0.144,0.543-0.072,0.689,0.163c0.145,0.235,0.072,0.543-0.163,0.688
				C348.514,322.319,346.77,323.379,345.042,323.379z"/>
			<path style="fill:#292236;" d="M324.898,325.967c-0.224,0-0.428-0.151-0.484-0.379c-0.486-1.942-0.258-3.466,0.676-4.527
				c1.657-1.881,4.894-1.522,5.031-1.506c0.274,0.032,0.469,0.28,0.437,0.555c-0.032,0.273-0.282,0.468-0.554,0.439
				c-0.028-0.004-2.858-0.313-4.165,1.176c-0.703,0.8-0.856,2.019-0.455,3.622c0.067,0.268-0.096,0.539-0.364,0.606
				C324.979,325.962,324.938,325.967,324.898,325.967z"/>
			<path style="fill:#292236;" d="M330.287,343.161c-0.121,0-0.242-0.044-0.338-0.132c-0.203-0.186-0.217-0.503-0.03-0.706
				c0.074-0.081,7.463-8.129,11.336-12.953c0.173-0.215,0.487-0.248,0.703-0.076c0.215,0.173,0.25,0.487,0.077,0.703
				c-3.893,4.849-11.305,12.922-11.379,13.002C330.556,343.106,330.422,343.161,330.287,343.161z"/>
			<path style="fill:#292236;" d="M341.644,300.046c-0.232,0-0.44-0.162-0.489-0.398c-0.052-0.251-0.109-0.827-0.204-1.78
				c-0.447-4.485-1.633-16.397-5.353-22.157c-0.15-0.232-0.083-0.542,0.148-0.691c0.232-0.152,0.541-0.083,0.691,0.148
				c3.852,5.963,5.055,18.051,5.508,22.601c0.082,0.826,0.147,1.477,0.188,1.677c0.056,0.271-0.118,0.535-0.389,0.591
				C341.711,300.043,341.677,300.046,341.644,300.046z"/>
			<path style="fill:#292236;" d="M364.722,271.079c-0.19,0-0.369-0.108-0.453-0.288l-1.538-3.28
				c-0.029,0.007-0.06,0.013-0.091,0.017c-0.878,0.125-2.051-0.652-3.614-2.378c-3.058-3.377-1.653-17.806-1.592-18.418
				c0.01-0.102,0.051-0.198,0.118-0.276c0.065-0.075,1.639-1.888,7.002-6.299c4.02-8.847,2.29-29.998,1.986-33.331
				c-0.522-0.017-1.425-0.077-2.436-0.28c-4.131,32.944-27.096,52.176-27.328,52.367c-0.213,0.177-0.528,0.145-0.704-0.068
				c-0.175-0.213-0.145-0.528,0.068-0.703c0.231-0.19,23.143-19.397,27.038-52.263c0.017-0.143,0.094-0.271,0.212-0.353
				c0.118-0.082,0.266-0.108,0.405-0.074c1.643,0.406,3.175,0.379,3.19,0.379c0.254,0.033,0.481,0.191,0.508,0.449
				c0.102,1.002,2.448,24.654-2.08,34.4c-0.032,0.068-0.078,0.128-0.136,0.176c-4.609,3.786-6.438,5.677-6.864,6.138
				c-0.403,4.176-0.908,14.986,1.354,17.484c2.079,2.296,2.758,2.057,2.766,2.05c0.083-0.174,0.218-0.297,0.436-0.257
				c0.193,0.001,0.351,0.141,0.433,0.315l1.583,3.377c1.432-0.525,6.463-2.732,10.701-9.03c4.967-7.382,2.354-19.744,2.326-19.868
				c-0.036-0.164,0.014-0.335,0.13-0.455c0.117-0.12,0.284-0.175,0.452-0.143c0.851,0.161,2.216,0.184,2.588-0.266
				c0.144-0.174,0.134-0.472-0.028-0.885c-0.459-1.166,0.057-3.334,0.838-6.616c1.136-4.775,2.692-11.315,1.849-18
				c-1.4-11.096-12.085-33.436-16.332-34.147c-3.165-0.534-19.466,14.233-29.658,24.284c-0.196,0.193-0.514,0.192-0.707-0.005
				c-0.194-0.197-0.192-0.513,0.005-0.707c2.633-2.596,25.853-25.319,30.525-24.558c4.976,0.833,15.805,24.276,17.159,35.009
				c0.866,6.865-0.714,13.507-1.868,18.356c-0.657,2.761-1.224,5.145-0.88,6.019c0.381,0.969,0.139,1.563-0.132,1.89
				c-0.625,0.755-1.979,0.778-2.828,0.705c0.502,2.786,1.962,13.154-2.608,19.947c-5.192,7.715-11.4,9.498-11.662,9.57
				C364.81,271.073,364.766,271.079,364.722,271.079z"/>
			<path style="fill:#292236;" d="M376.182,243.2c-0.09,0-0.182-0.007-0.274-0.021c-1.007-0.154-1.788-1.115-2.375-2.928
				c-1.002,0.848-2.06,1.213-3.166,1.078c-2.745-0.328-4.646-3.652-4.726-3.794c-0.136-0.24-0.05-0.545,0.19-0.68
				c0.241-0.137,0.545-0.05,0.681,0.189c0.017,0.03,1.735,3.026,3.976,3.291c0.997,0.123,1.98-0.339,2.93-1.357
				c0.125-0.134,0.314-0.188,0.488-0.144c0.177,0.045,0.315,0.183,0.361,0.359c0.475,1.827,1.111,2.891,1.791,2.996
				c0.795,0.127,1.75-1.07,2.019-1.498c0.147-0.233,0.457-0.304,0.689-0.158c0.234,0.146,0.305,0.454,0.159,0.688
				C378.792,241.436,377.645,243.2,376.182,243.2z"/>
			<path style="fill:#292236;" d="M362.95,267.298c-0.193,0-0.377-0.112-0.459-0.302c-0.11-0.253,0.007-0.547,0.26-0.657
				c0.097-0.042,9.683-4.305,12.426-14.72c0.07-0.268,0.344-0.428,0.611-0.356c0.267,0.07,0.426,0.344,0.356,0.61
				c-2.87,10.898-12.895,15.34-12.996,15.384C363.084,267.285,363.016,267.298,362.95,267.298z"/>
			<path style="fill:#292236;" d="M360.487,254.058c-0.256,0-0.474-0.195-0.498-0.455c-0.391-4.351,0.654-5.904,0.774-6.066
				c0.164-0.222,0.477-0.27,0.699-0.105c0.22,0.163,0.268,0.472,0.108,0.694c-0.024,0.036-0.94,1.443-0.586,5.387
				c0.024,0.275-0.178,0.519-0.453,0.543C360.517,254.057,360.502,254.058,360.487,254.058z"/>
			<path style="fill:#292236;" d="M306.252,222.888c-0.055,0-0.111-0.009-0.166-0.028c-0.26-0.092-0.397-0.377-0.305-0.638
				c2.716-7.695-5.661-15.413-5.746-15.49c-0.195-0.177-0.219-0.476-0.055-0.682c0.165-0.206,0.461-0.248,0.677-0.099
				c0.015,0.011,1.402,0.962,6.321,3.295c-10.707-12.765-3.134-21.396-3.052-21.485c0.186-0.204,0.5-0.219,0.705-0.034
				c0.205,0.185,0.22,0.501,0.036,0.706c-0.321,0.357-7.734,8.89,4.67,21.952c0.165,0.174,0.183,0.44,0.044,0.635
				c-0.139,0.195-0.398,0.264-0.615,0.164c-2.654-1.219-4.545-2.148-5.869-2.833c2.456,3.013,5.837,8.51,3.828,14.203
				C306.651,222.76,306.458,222.888,306.252,222.888z"/>
			<path style="fill:#292236;" d="M235.467,459.995c-0.137,0-0.277-0.004-0.421-0.011c-4.739-0.221-14.975-6.623-15.408-6.896
				c-0.23-0.145-0.303-0.447-0.162-0.681c2.607-4.331,6.088-11.762,4.33-13.261c-1.052-0.897-2.447-0.735-3.796-0.581
				c-1.672,0.19-3.754,0.43-4.106-2.326c-0.086-0.674-0.099-1.51-0.113-2.479c-0.075-4.991-0.215-14.281-11.18-25.038
				c-7.578-7.435-15.696-10.947-21.623-13.512c-4.52-1.956-7.786-3.369-9.028-5.63c-2.873-5.231,1.114-10.863,1.286-11.101
				c0.071-0.123,9.438-16.289,2.516-36.746c-2.934-8.67-7.604-14.534-12.12-20.205c-6.303-7.914-12.256-15.39-12.385-29.282
				c-0.111-11.925,0.812-21.326,5.68-28.451c5.097-7.462,14.507-12.199,29.614-14.909c12.838-2.303,25.078-7.054,36.379-14.12
				c14.852-9.288,22.832-19.416,22.911-19.517c0.169-0.218,0.483-0.257,0.702-0.087c0.218,0.17,0.257,0.484,0.087,0.702
				c-0.08,0.103-8.157,10.363-23.169,19.751c-11.41,7.135-23.769,11.931-36.732,14.257c-29.781,5.342-34.703,17.387-34.47,42.366
				c0.126,13.549,5.975,20.893,12.167,28.669c4.57,5.738,9.295,11.672,12.285,20.508c7.074,20.907-2.53,37.45-2.629,37.615
				c-0.062,0.09-3.811,5.398-1.244,10.071c1.077,1.96,4.373,3.387,8.548,5.192c6,2.597,14.216,6.151,21.926,13.717
				c11.258,11.044,11.402,20.602,11.48,25.736c0.014,0.938,0.026,1.749,0.105,2.366c0.217,1.705,1.076,1.679,3,1.46
				c1.414-0.162,3.177-0.365,4.558,0.813c2.752,2.347-2.489,11.754-3.869,14.112c1.982,1.21,10.543,6.303,14.508,6.488
				c4.124,0.196,4.557-2.848,4.573-2.978c0.02-0.158,0.115-0.299,0.255-0.375c0.14-0.078,0.31-0.082,0.453-0.016
				c0.052,0.024,5.279,2.426,6.834-0.881c1.614-3.432-2.288-14.521-5.015-19.221c-2.449-4.222-10.63-13.492-10.712-13.586
				c-0.024-0.027-0.045-0.057-0.063-0.089c-0.049-0.089-5.05-9.01-14.794-18.389c-9.872-9.501-16.648-23.738-16.715-23.882
				c-0.04-0.084-0.055-0.179-0.044-0.271l0.782-6.604c0.016-0.135,0.086-0.258,0.194-0.34c0.205-0.155,20.619-15.882,31.072-42.962
				c5.431-14.069,3.82-25.628,1.514-32.847c-2.503-7.833-6.344-12.397-6.382-12.443c-0.179-0.21-0.154-0.525,0.056-0.704
				c0.21-0.181,0.525-0.155,0.705,0.056c0.162,0.189,3.991,4.731,6.56,12.741c2.367,7.382,4.025,19.195-1.519,33.557
				c-10.049,26.033-29.222,41.68-31.23,43.267l-0.741,6.253c0.696,1.437,7.203,14.566,16.443,23.46
				c9.482,9.126,14.531,17.842,14.948,18.575c0.665,0.754,8.352,9.497,10.793,13.707c2.399,4.138,7.014,15.983,5.055,20.148
				c-0.833,1.77-2.54,2.557-4.933,2.272c-1.098-0.131-2.091-0.457-2.68-0.682C240.136,457.847,238.971,459.994,235.467,459.995z"/>
			<path style="fill:#292236;" d="M189.51,392.302c-0.059,0-0.119-0.011-0.177-0.032c-1.303-0.494-8.602-5.604-9.43-6.185
				c-0.205-0.144-0.272-0.416-0.157-0.639c0.64-1.239,2.845-5.297,4.348-5.489c0.279-0.033,0.524,0.16,0.56,0.433
				c0.035,0.274-0.159,0.524-0.433,0.56c-0.621,0.079-2.198,2.356-3.383,4.569c3.219,2.251,7.985,5.488,8.85,5.816
				c0.258,0.099,0.388,0.387,0.29,0.645C189.902,392.179,189.712,392.302,189.51,392.302z"/>
			<path style="fill:#292236;" d="M202.91,363.417c-0.113,0-0.227-0.038-0.321-0.117c-0.211-0.178-0.239-0.493-0.061-0.705
				c14.125-16.793,20.895-32.572,20.962-32.729c0.108-0.254,0.402-0.373,0.656-0.265c0.254,0.107,0.372,0.4,0.265,0.655
				c-0.067,0.158-6.89,16.068-21.117,32.983C203.195,363.356,203.053,363.417,202.91,363.417z"/>
			<path style="fill:#292236;" d="M227.761,430.031c-1.969,0.001-4.101-2.075-5.051-3.123c-0.452,0.69-1.325,1.711-2.676,2.02
				c-1.436,0.325-2.998-0.229-4.652-1.651c-0.209-0.18-0.233-0.495-0.053-0.705c0.18-0.209,0.496-0.232,0.705-0.053
				c1.396,1.201,2.667,1.686,3.771,1.436c1.566-0.354,2.354-2.095,2.361-2.112c0.07-0.159,0.219-0.271,0.391-0.294
				c0.175-0.023,0.346,0.045,0.455,0.18c0.836,1.03,3.377,3.625,5.076,3.271c0.733-0.152,1.288-0.89,1.649-2.19
				c0.054-0.194,0.22-0.337,0.42-0.362c1.083-0.136,1.773-0.509,2.05-1.107c0.509-1.102-0.382-2.875-0.768-3.465
				c-0.151-0.231-0.087-0.541,0.144-0.692c0.231-0.151,0.54-0.088,0.692,0.144c0.069,0.104,1.686,2.6,0.841,4.431
				c-0.398,0.863-1.241,1.411-2.508,1.634c-0.48,1.498-1.258,2.368-2.316,2.589C228.116,430.015,227.939,430.031,227.761,430.031z"
				/>
			<path style="fill:#292236;" d="M240.162,456.57c-0.02,0-0.039-0.001-0.059-0.004c-0.274-0.032-0.47-0.28-0.438-0.555
				c0.028-0.24,0.143-0.616,0.332-1.24c0.957-3.15,3.497-11.52-1.3-17.606c-0.171-0.217-0.134-0.531,0.083-0.702
				c0.218-0.17,0.532-0.133,0.702,0.083c5.121,6.496,2.47,15.228,1.472,18.516c-0.15,0.49-0.278,0.915-0.296,1.066
				C240.628,456.384,240.412,456.57,240.162,456.57z"/>
			<path style="fill:#292236;" d="M227.886,452.772c-0.067,0-0.136-0.014-0.202-0.043l-4.137-1.83
				c-0.126-0.056-0.223-0.16-0.269-0.29c-0.046-0.13-0.037-0.272,0.026-0.396l2.832-5.524c0.126-0.244,0.429-0.342,0.673-0.217
				c0.246,0.126,0.343,0.428,0.217,0.674l-2.59,5.053l3.652,1.616c0.253,0.111,0.367,0.407,0.255,0.659
				C228.261,452.661,228.078,452.772,227.886,452.772z"/>
			<path style="fill:#292236;" d="M301.219,429.954c-0.106,0-0.215-0.003-0.326-0.007c-4.355-0.179-15.88-4.126-16.369-4.294
				c-0.169-0.059-0.295-0.203-0.329-0.379l-2.423-12.689c-1.283-0.268-5.305-1.272-5.732-3.339
				c-0.384-1.858,0.702-5.647,1.059-6.811l-27.459-20.776c-0.837-0.255-6.493-2.153-5.989-6.877
				c0.455-4.259,3.268-11.951,3.836-13.474l-18.235-25.09c-0.163-0.224-0.113-0.536,0.11-0.698c0.224-0.162,0.536-0.113,0.698,0.11
				l18.394,25.308c0.099,0.137,0.123,0.313,0.063,0.472c-0.034,0.089-3.39,8.966-3.872,13.478c-0.443,4.15,5.301,5.819,5.359,5.836
				c0.06,0.017,0.117,0.045,0.166,0.083l27.812,21.044c0.17,0.128,0.24,0.35,0.174,0.554c-0.427,1.31-1.465,5.058-1.138,6.639
				c0.26,1.26,3.371,2.279,5.27,2.625c0.203,0.037,0.362,0.195,0.401,0.398l2.432,12.733c1.801,0.608,11.961,3.989,15.811,4.146
				c0.803,0.035,1.847-0.057,2.263-0.676c0.417-0.622,0.105-1.64-0.051-1.981c-0.071-0.156-0.058-0.339,0.036-0.482
				c0.095-0.145,0.265-0.232,0.428-0.227c3.172,0.066,6.917-0.059,7.431-0.359c0.423-0.778-1.07-7.786-3.696-14.191
				c-2.476-6.036-8.677-8.132-8.739-8.152c-0.062-0.021-0.119-0.053-0.168-0.094l-29.847-25.304
				c-0.041-0.035-0.076-0.076-0.104-0.122l-4.159-6.854c-0.041-0.066-0.065-0.142-0.071-0.219c-0.028-0.35-0.641-8.738,4.866-24.082
				c5.417-15.09,1.686-30.539,1.648-30.694c-0.066-0.268,0.097-0.539,0.365-0.605c0.267-0.065,0.539,0.098,0.606,0.364
				c0.039,0.157,3.845,15.891-1.677,31.273c-5.086,14.17-4.869,22.498-4.817,23.55l4.053,6.679l29.712,25.19
				c0.858,0.302,6.746,2.565,9.258,8.691c1.633,3.983,5.006,14.424,3.275,15.434c-0.881,0.515-5.151,0.532-7.25,0.507
				c0.147,0.611,0.223,1.501-0.264,2.231C303.529,429.574,302.584,429.954,301.219,429.954z"/>
			<path style="fill:#292236;" d="M252.659,379.357c-0.077,0-0.156-0.018-0.229-0.056c-4.338-2.241-2.893-8.087-1.521-10.866
				c0.122-0.247,0.422-0.349,0.669-0.226c0.248,0.122,0.35,0.422,0.228,0.669c-0.036,0.072-3.469,7.185,1.083,9.535
				c0.245,0.127,0.341,0.429,0.215,0.674C253.015,379.259,252.84,379.357,252.659,379.357z"/>
			<path style="fill:#292236;" d="M275.996,397.192c-0.094,0-0.189-0.026-0.274-0.082l-9.941-6.536
				c-0.23-0.152-0.294-0.462-0.143-0.692c0.152-0.231,0.462-0.295,0.693-0.143l9.941,6.536c0.23,0.152,0.295,0.462,0.143,0.692
				C276.318,397.113,276.158,397.192,275.996,397.192z"/>
			<path style="fill:#292236;" d="M281.571,406.357c-1.247,0-2.662-1.262-4.311-3.838c-0.149-0.232-0.081-0.542,0.151-0.69
				c0.233-0.15,0.542-0.081,0.69,0.151c2.026,3.165,3.145,3.456,3.639,3.359c0.861-0.185,1.303-1.88,1.389-2.459
				c0.027-0.183,0.154-0.336,0.328-0.397c0.173-0.06,0.369-0.022,0.505,0.103c0.73,0.67,2.948,2.308,4.423,1.86
				c0.716-0.219,1.225-0.941,1.514-2.146c0.037-0.152,0.142-0.278,0.285-0.342c0.144-0.063,0.308-0.055,0.445,0.021
				c1.561,0.87,2.79,1.082,3.652,0.623c1.204-0.638,1.374-2.431,1.375-2.448c0.024-0.275,0.264-0.474,0.541-0.456
				c0.274,0.023,0.478,0.265,0.456,0.539c-0.008,0.096-0.212,2.348-1.898,3.246c-1.061,0.565-2.426,0.451-4.058-0.341
				c-0.411,1.217-1.089,1.976-2.022,2.261c-1.695,0.513-3.722-0.77-4.741-1.546c-0.257,0.898-0.825,2.211-1.983,2.46
				C281.827,406.344,281.7,406.357,281.571,406.357z"/>
			<path style="fill:#292236;" d="M303.599,426.582c-0.245,0-0.458-0.18-0.494-0.429c-0.015-0.103-1.555-10.474-5.608-16.44
				c-0.155-0.228-0.096-0.54,0.133-0.695c0.229-0.153,0.54-0.097,0.694,0.133c4.184,6.159,5.707,16.426,5.77,16.86
				c0.04,0.273-0.15,0.526-0.423,0.566C303.647,426.58,303.623,426.582,303.599,426.582z"/>
			<path style="fill:#292236;" d="M129.683,428.076c-0.181,0-0.35-0.098-0.439-0.261c-0.105-0.193-0.072-0.433,0.083-0.59
				c3.75-3.815,5.153-8.123,3.95-12.129c-1.479-4.925-6.71-8.795-13.994-10.353c-10.408-2.227-15.742-11.096-17.859-15.708
				l0.631,13.081c0.011,0.222-0.127,0.425-0.336,0.497c-0.21,0.07-0.443-0.003-0.571-0.184c-0.221-0.311-21.857-31.273-2.769-47.223
				c18.188-15.196,11.594-30.635,0.669-56.211l-0.87-2.038c-7.321-17.167-6.33-38.373,2.466-52.77
				c6.875-11.251,17.87-17.72,31.795-18.706c12.017-0.856,21.386,1.831,27.846,7.974c9.339,8.88,9.181,22.065,9.178,22.197
				c-0.006,0.277-0.237,0.499-0.51,0.49c-0.276-0.006-0.496-0.234-0.49-0.51c0.003-0.128,0.146-12.89-8.875-21.46
				c-6.246-5.934-15.353-8.52-27.079-7.694c-13.589,0.963-24.313,7.267-31.012,18.23c-8.636,14.133-9.601,34.973-2.4,51.856
				l0.87,2.037c11.107,26.004,17.811,41.699-0.947,57.372c-16.011,13.378-2.058,38.03,1.948,44.364l-0.687-14.242
				c-0.012-0.253,0.166-0.475,0.415-0.517c0.248-0.052,0.49,0.105,0.563,0.348c0.045,0.149,4.651,14.932,18.233,17.837
				c7.646,1.636,13.158,5.764,14.743,11.043c1.181,3.934,0.093,8.1-3.063,11.873c6.534-1.986,11.799-7.635,13.95-15.104
				c2.671-9.274,0.125-18.785-6.813-25.441c-0.121-0.116-0.176-0.285-0.146-0.45c0.03-0.165,0.141-0.304,0.296-0.37
				c7.942-3.395,14.362-10.375,16.755-18.218c2.211-7.247,1.014-14.731-3.462-21.643c-3.231-4.989-6.955-9.345-10.556-13.558
				c-8.811-10.308-17.133-20.043-17.652-37.584c-0.878-29.733,10.733-37.318,15.767-39.199c7.157-2.676,15.309,0.194,21.275,7.486
				c0.175,0.214,0.144,0.528-0.07,0.703c-0.214,0.175-0.529,0.144-0.703-0.07c-5.688-6.951-13.411-9.704-20.152-7.183
				c-10.063,3.761-15.713,18.054-15.117,38.233c0.508,17.188,8.719,26.794,17.412,36.963c3.623,4.238,7.368,8.62,10.636,13.665
				c4.641,7.166,5.878,14.939,3.579,22.478c-2.408,7.893-8.748,14.938-16.641,18.546c6.708,6.804,9.22,16.663,6.554,25.919
				c-2.426,8.423-8.671,14.634-16.298,16.21C129.751,428.073,129.717,428.076,129.683,428.076z"/>
			<path style="fill:#292236;" d="M165.029,258.677c-0.258,0-0.478-0.199-0.498-0.461c-0.019-0.243-2.151-24.334-23.648-26.431
				c-0.275-0.027-0.476-0.271-0.449-0.546c0.027-0.274,0.275-0.478,0.546-0.449c22.339,2.179,24.529,27.097,24.549,27.348
				c0.021,0.275-0.185,0.516-0.46,0.537C165.055,258.676,165.042,258.677,165.029,258.677z"/>
			<path style="fill:#292236;" d="M105.751,285.266c-0.233,0-0.442-0.164-0.49-0.401c-0.072-0.361-6.939-36.195,18.102-45.322
				c14.942-5.447,27.822,1.113,38.283,19.494c0.379,0.667,0.708,1.242,0.833,1.388c0.181,0.209,0.159,0.524-0.05,0.706
				c-0.209,0.181-0.524,0.158-0.705-0.05c-0.183-0.211-0.437-0.652-0.948-1.55c-10.184-17.892-22.656-24.302-37.071-19.048
				c-24.234,8.833-17.535,43.833-17.464,44.186c0.054,0.271-0.122,0.534-0.392,0.588
				C105.816,285.263,105.783,285.266,105.751,285.266z"/>
			<path style="fill:#292236;" d="M113.921,318.064c-0.19,0-0.371-0.108-0.455-0.292c-8.162-17.858-13.096-33.287-13.145-33.441
				c-0.083-0.263,0.062-0.544,0.325-0.628c0.261-0.082,0.544,0.062,0.628,0.325c0.049,0.153,4.965,15.528,13.101,33.328
				c0.115,0.251,0.004,0.548-0.247,0.663C114.061,318.049,113.99,318.064,113.921,318.064z"/>
			<path style="fill:#292236;" d="M100.779,386.573c-0.23,0-0.438-0.16-0.488-0.395c-3.21-14.867,6.768-30.539,9.001-31.139
				c0.265-0.071,0.541,0.086,0.613,0.353c0.071,0.266-0.085,0.539-0.351,0.612c-1.653,0.567-11.461,15.258-8.286,29.963
				c0.058,0.27-0.113,0.536-0.383,0.594C100.849,386.569,100.814,386.573,100.779,386.573z"/>
			<path style="fill:#292236;" d="M119.387,404.755c-0.117,0-0.234-0.041-0.329-0.123c-14.74-12.877-8.334-23.43-0.917-35.649
				c7.313-12.047,15.601-25.7,5.691-45.134c-0.125-0.246-0.028-0.548,0.218-0.673c0.246-0.127,0.547-0.027,0.672,0.218
				c10.164,19.931,1.722,33.838-5.727,46.107c-7.48,12.322-13.388,22.055,0.72,34.377c0.208,0.182,0.229,0.498,0.047,0.706
				C119.665,404.697,119.526,404.755,119.387,404.755z"/>
			<path style="fill:#292236;" d="M357.454,123.052c-3.25,0-5.693-0.899-7.285-2.684c-3.13-3.511-1.761-9.087-1.701-9.322
				c0.068-0.268,0.34-0.432,0.607-0.361c0.268,0.067,0.43,0.339,0.362,0.607c-0.013,0.053-1.296,5.305,1.481,8.415
				c1.798,2.014,4.922,2.737,9.284,2.148c0.278-0.036,0.525,0.155,0.563,0.429c0.037,0.274-0.155,0.525-0.429,0.563
				C359.315,122.983,358.354,123.052,357.454,123.052z"/>
			<path style="fill:#292236;" d="M369.909,114.005c-10.891,0-11.824-9.366-11.832-9.464c-0.024-0.274,0.18-0.516,0.455-0.54
				c0.271-0.021,0.518,0.179,0.542,0.454c0.034,0.375,0.929,9.179,11.984,8.515c0.271-0.018,0.513,0.193,0.529,0.469
				c0.017,0.275-0.193,0.512-0.469,0.529C370.701,113.993,370.299,114.005,369.909,114.005z"/>
			<path style="fill:#292236;" d="M377.851,104.181c-7.172,0-11.17-5.042-11.221-5.108c-0.168-0.219-0.128-0.532,0.09-0.701
				c0.218-0.17,0.532-0.128,0.701,0.089c0.253,0.327,6.343,7.96,17.325,3.17c0.254-0.109,0.548,0.006,0.658,0.259
				c0.11,0.253-0.005,0.547-0.259,0.658C382.443,103.727,380.004,104.181,377.851,104.181z"/>
			<path style="fill:#292236;" d="M387.824,96.613c-6.156,0-11.183-3.999-11.251-4.054c-0.214-0.174-0.247-0.488-0.074-0.703
				c0.174-0.215,0.489-0.247,0.703-0.074c0.087,0.07,8.828,7.005,17.029,2.04c0.235-0.142,0.543-0.068,0.686,0.169
				c0.143,0.236,0.067,0.543-0.169,0.687C392.414,96.093,390.046,96.613,387.824,96.613z"/>
			<path style="fill:#292236;" d="M397.089,89.206c-5.678,0-9.239-4.089-9.286-4.144c-0.179-0.21-0.153-0.525,0.057-0.704
				c0.21-0.179,0.525-0.154,0.705,0.056c0.237,0.276,5.877,6.711,14.409,2.233c0.246-0.128,0.547-0.034,0.675,0.21
				c0.128,0.245,0.034,0.547-0.211,0.675C401.121,88.748,398.987,89.206,397.089,89.206z"/>
			<path style="fill:#292236;" d="M407.003,81.55c-4.61,0-8.348-3.311-8.397-3.355c-0.205-0.185-0.221-0.501-0.036-0.705
				c0.185-0.204,0.501-0.222,0.706-0.037c0.059,0.053,5.953,5.257,11.727,2.057c0.242-0.135,0.546-0.046,0.68,0.194
				c0.134,0.242,0.047,0.546-0.194,0.68C409.965,81.228,408.442,81.55,407.003,81.55z"/>
			<path style="fill:#292236;" d="M413.689,74.912c-3.392,0-5.695-2.531-5.725-2.564c-0.183-0.206-0.165-0.521,0.04-0.705
				c0.206-0.183,0.522-0.167,0.706,0.039c0.137,0.154,3.42,3.73,7.839,1.519c0.247-0.122,0.548-0.023,0.671,0.224
				c0.124,0.247,0.023,0.547-0.224,0.671C415.818,74.685,414.704,74.912,413.689,74.912z"/>
			<path style="fill:#292236;" d="M360.391,155.864c-7.676,0-10.08-8.545-10.105-8.637c-0.072-0.266,0.086-0.541,0.352-0.613
				c0.266-0.071,0.541,0.085,0.613,0.352c0.1,0.368,2.549,8.993,10.657,7.782c0.281-0.035,0.528,0.147,0.569,0.42
				c0.04,0.273-0.147,0.528-0.42,0.569C361.476,155.824,360.92,155.864,360.391,155.864z"/>
			<path style="fill:#292236;" d="M326.91,61.571c-0.273,0-0.496-0.219-0.5-0.493c-0.001-0.053-0.121-5.311-3.744-8.748
				c-2.254-2.138-5.399-3.14-9.332-2.999c-0.288,0.017-0.508-0.205-0.518-0.48c-0.011-0.276,0.205-0.508,0.48-0.519
				c4.227-0.161,7.607,0.944,10.065,3.279c3.928,3.733,4.045,9.221,4.048,9.453c0.003,0.276-0.217,0.502-0.493,0.506
				C326.915,61.571,326.912,61.571,326.91,61.571z"/>
			<path style="fill:#292236;" d="M238.17,104.57c-0.245,0-0.458-0.179-0.494-0.428c-0.081-0.557-1.929-13.701,3.18-19.274
				c0.187-0.203,0.503-0.217,0.707-0.031s0.217,0.503,0.031,0.706c-4.788,5.224-2.947,18.323-2.928,18.454
				c0.04,0.273-0.149,0.527-0.422,0.567C238.218,104.569,238.194,104.57,238.17,104.57z"/>
			<path style="fill:#292236;" d="M321.912,144.48c-0.082,0-0.165-0.02-0.242-0.063c-0.241-0.134-0.329-0.438-0.194-0.68
				c3.472-6.257-0.595-10.458-0.77-10.633c-0.195-0.196-0.194-0.512,0-0.707c0.195-0.195,0.51-0.195,0.706-0.001
				c0.048,0.048,4.784,4.893,0.937,11.826C322.259,144.387,322.088,144.48,321.912,144.48z"/>
			<path style="fill:#292236;" d="M315.402,132.896c-0.139,0-0.278-0.058-0.376-0.171c-0.038-0.043-0.921-1.076-0.736-2.278
				c0.109-0.711,0.552-1.309,1.317-1.778c0.235-0.145,0.543-0.071,0.688,0.165c0.145,0.235,0.07,0.543-0.165,0.688
				c-0.5,0.307-0.786,0.667-0.85,1.073c-0.117,0.741,0.497,1.468,0.503,1.476c0.179,0.21,0.155,0.525-0.053,0.705
				C315.634,132.856,315.518,132.896,315.402,132.896z"/>
			<path style="fill:#292236;" d="M317.237,134.451c-0.182,0-0.357-0.1-0.445-0.272c-0.037-0.072-0.896-1.779-0.289-3.069
				c0.293-0.625,0.855-1.034,1.667-1.215c0.27-0.061,0.537,0.109,0.597,0.379c0.06,0.27-0.109,0.537-0.379,0.597
				c-0.501,0.112-0.822,0.329-0.979,0.663c-0.331,0.701,0.085,1.819,0.273,2.191c0.125,0.246,0.027,0.547-0.219,0.672
				C317.391,134.433,317.313,134.451,317.237,134.451z"/>
			<path style="fill:#292236;" d="M236.089,124.603c-0.222,0-0.417-0.146-0.48-0.358c-0.063-0.214,0.023-0.443,0.211-0.563
				c0.607-0.388,1.177-0.741,1.718-1.077c5.014-3.112,7.531-4.673,15.254-18.237c3.257-5.72,7.004-9.104,11.137-10.059
				c4.318-0.996,7.404,1.068,7.534,1.156c0.228,0.156,0.286,0.466,0.131,0.694c-0.155,0.229-0.466,0.287-0.694,0.133
				c-0.028-0.019-2.881-1.909-6.767-1.003c-3.841,0.896-7.365,4.118-10.472,9.575c-7.849,13.784-10.438,15.391-15.596,18.591
				c-0.051,0.032-0.102,0.063-0.153,0.095c7.806-0.412,13.712-3.174,17.151-8.046c0.16-0.225,0.47-0.279,0.697-0.12
				c0.226,0.16,0.279,0.472,0.12,0.697c-3.896,5.519-10.739,8.466-19.788,8.522C236.09,124.603,236.089,124.603,236.089,124.603z"/>
			<path style="fill:#292236;" d="M255.69,161.812c-0.155,0-0.309-0.072-0.406-0.207c-8.911-12.364-5.923-24.749-5.892-24.873
				c0.067-0.268,0.337-0.43,0.607-0.362c0.268,0.067,0.43,0.339,0.363,0.607c-0.03,0.119-2.895,12.072,5.734,24.043
				c0.161,0.224,0.111,0.537-0.113,0.698C255.893,161.781,255.791,161.812,255.69,161.812z"/>
			<path style="fill:#292236;" d="M258.511,193.794c-0.015,0-0.03,0-0.045-0.002c-0.275-0.024-0.478-0.267-0.454-0.543
				c1.651-18.571-10.427-24.667-10.549-24.726c-0.248-0.121-0.352-0.42-0.231-0.668c0.121-0.248,0.42-0.351,0.667-0.232
				c0.128,0.062,12.824,6.427,11.11,25.715C258.986,193.598,258.767,193.794,258.511,193.794z"/>
			<path style="fill:#292236;" d="M347.755,202.378c-0.12,0-0.241-0.043-0.337-0.13c-0.204-0.186-0.219-0.503-0.033-0.707
				c0.394-0.432,9.676-10.601,12.195-11.798c0.251-0.118,0.547-0.012,0.667,0.237c0.119,0.249,0.012,0.548-0.237,0.666
				c-1.945,0.925-9.239,8.665-11.885,11.569C348.026,202.323,347.891,202.378,347.755,202.378z"/>
			<path style="fill:#292236;" d="M363.675,206.438c-0.177,0-0.349-0.095-0.44-0.261l-3.409-6.276
				c-0.132-0.243-0.042-0.546,0.201-0.678c0.244-0.131,0.546-0.041,0.678,0.201l3.409,6.276c0.132,0.243,0.042,0.546-0.201,0.678
				C363.838,206.418,363.756,206.438,363.675,206.438z"/>
			<path style="fill:#292236;" d="M278.203,264.002c-2.54,0-5.99-0.472-8.438-2.641c-0.207-0.183-0.226-0.499-0.042-0.706
				c0.183-0.208,0.499-0.226,0.706-0.042c3.875,3.435,10.876,2.143,10.947,2.129c0.27-0.05,0.533,0.127,0.585,0.397
				c0.052,0.271-0.126,0.533-0.397,0.585C281.434,263.749,280.063,264.002,278.203,264.002z"/>
			<path style="fill:#292236;" d="M254.522,312.314c-0.048,0-0.096,0-0.145,0c-11.229-0.029-18.249-3.238-18.542-3.375
				c-0.251-0.116-0.359-0.414-0.242-0.664c0.116-0.25,0.413-0.36,0.664-0.242c0.281,0.13,28.46,12.749,61.133-12.904
				c0.217-0.17,0.531-0.133,0.702,0.085c0.171,0.217,0.133,0.531-0.084,0.702C280.764,309.453,264.867,312.314,254.522,312.314z"/>
			<path style="fill:#292236;" d="M173.191,286.833c-3.041,0-4.838-1.6-5.649-2.57c-2.778-3.329-2.776-9.114,0.004-12.382
				c2.217-2.604,5.62-3.451,9.333-2.322c4.053,1.23,7.273,4.532,7.657,7.85c0.229,1.976-0.385,4.844-4.608,7.293
				C177.215,286.274,174.986,286.833,173.191,286.833z M173.761,270.073c-2.171,0-4.079,0.841-5.454,2.456l0,0
				c-2.49,2.925-2.489,8.108,0.002,11.093c1.399,1.676,4.703,3.934,11.117,0.214c2.972-1.724,4.396-3.906,4.117-6.313
				c-0.34-2.94-3.265-5.888-6.955-7.008C175.614,270.22,174.665,270.073,173.761,270.073z M167.927,272.205h0.01H167.927z"/>
			<path style="fill:#292236;" d="M188.119,265.057c-2.152,0-3.756-1.256-4.456-2.71c-0.748-1.557-0.598-3.719,1.427-5.043l0,0
				c3.145-2.056,5.167-1.397,6.093-0.823c1.396,0.866,2.158,2.614,1.938,4.451c-0.217,1.821-1.353,3.24-3.039,3.795
				C189.39,264.955,188.732,265.057,188.119,265.057z M185.637,258.142L185.637,258.142c-1.621,1.06-1.591,2.693-1.072,3.771
				c0.715,1.487,2.65,2.706,5.205,1.864c1.307-0.431,2.189-1.538,2.359-2.964c0.171-1.431-0.421-2.831-1.473-3.483
				C189.406,256.555,187.624,256.842,185.637,258.142z"/>
			<path style="fill:#292236;" d="M213.568,296.583c-1.619,0-2.828-0.948-3.355-2.046c-0.684-1.422-0.249-2.962,1.084-3.833l0,0
				c2.345-1.532,3.87-1.033,4.569-0.599c1.059,0.656,1.636,1.977,1.471,3.363c-0.164,1.376-1.023,2.447-2.299,2.867
				C214.519,296.507,214.027,296.583,213.568,296.583z M214.264,290.665c-0.705,0-1.531,0.296-2.42,0.877l0,0
				c-1.101,0.719-1.099,1.795-0.73,2.561c0.494,1.028,1.834,1.865,3.612,1.283c1.293-0.426,1.563-1.566,1.619-2.037
				c0.118-0.986-0.286-1.949-1.005-2.395C215.027,290.762,214.665,290.665,214.264,290.665z M211.57,291.123h0.01H211.57z"/>
			<path style="fill:#292236;" d="M205.272,287.331c-1.176,0-2.426-2.221-3.133-3.716c-1.096,1.178-3.129,3.213-4.122,3.248
				c-0.279,0.023-0.482-0.11-0.59-0.216c-0.747-0.727,0.214-3.111,1.261-5.158c-1.296-0.604-3.037-1.549-3.227-2.345
				c-0.057-0.24-0.004-0.475,0.149-0.661c0.606-0.739,3.178-0.627,4.893-0.459c2.331-5.801,2.847-5.661,3.266-5.551
				c0.343,0.091,0.857,0.228,1.061,5.818c2.281,0.076,4.812,0.425,4.969,1.587c0.162,1.196-2.209,2.172-3.932,2.719
				c0.304,1.15,0.781,3.368,0.221,4.264c-0.157,0.252-0.387,0.41-0.663,0.457C205.374,287.327,205.323,287.331,205.272,287.331z
				 M202.28,282.218c0.026,0,0.053,0.002,0.079,0.007c0.169,0.026,0.312,0.138,0.379,0.294c0.944,2.174,2.111,3.82,2.52,3.813
				c0.254-0.267,0.038-2.147-0.484-3.93c-0.077-0.265,0.074-0.542,0.339-0.62c1.838-0.542,3.599-1.396,3.695-1.791
				c-0.226-0.313-2.32-0.672-4.472-0.711c-0.266-0.005-0.482-0.218-0.49-0.484c-0.057-1.795-0.204-3.849-0.379-4.879
				c-0.542,0.961-1.452,3.011-2.175,4.828c-0.083,0.209-0.297,0.331-0.518,0.313c-1.798-0.197-3.619-0.193-4.23-0.007
				c0.399,0.4,1.691,1.151,3.033,1.744c0.127,0.056,0.225,0.162,0.271,0.293c0.046,0.131,0.035,0.275-0.03,0.398
				c-0.955,1.802-1.684,3.701-1.684,4.336c0.627-0.263,2.257-1.737,3.773-3.438C202.003,282.277,202.139,282.218,202.28,282.218z"/>
			<path style="fill:#292236;" d="M188.469,309.825c-0.012,0-0.023,0-0.035,0c-1.644-0.061-2.367-4.442-2.669-7.445
				c-1.556,0.427-5.11,1.272-6.229,0.435c-0.279-0.209-0.433-0.515-0.432-0.86c0.006-1.715,3.832-3.857,5.468-4.693
				c-1.003-1.306-3.196-4.339-3.013-5.698c0.05-0.37,0.241-0.579,0.393-0.69c1.204-0.876,4.802,1.561,7.061,3.281
				c1.002-0.943,3.553-3.215,4.865-3.215c0.017,0,0.032,0.001,0.048,0.001c0.365,0.017,0.585,0.186,0.706,0.327
				c0.904,1.05-0.569,4.37-1.449,6.118c6.382,4.252,6.059,4.952,5.885,5.332c-0.141,0.305-0.467,1.012-7.317,0.352
				C191.272,305.417,190.148,309.825,188.469,309.825z M186.206,301.233c0.099,0,0.197,0.029,0.281,0.086
				c0.124,0.085,0.204,0.221,0.217,0.37c0.352,3.963,1.239,7.09,1.767,7.136c0.002,0,0.004,0,0.005,0
				c0.534,0.001,1.687-2.78,2.38-6.391c0.049-0.254,0.281-0.43,0.542-0.402c2.554,0.257,5.528,0.397,6.552,0.232
				c-0.732-0.814-3.348-2.742-5.692-4.291c-0.213-0.141-0.286-0.421-0.167-0.647c1.269-2.439,2.119-5.015,1.783-5.405
				c-0.441-0.121-2.559,1.387-4.478,3.25c-0.179,0.174-0.459,0.19-0.655,0.037c-2.771-2.147-5.673-3.787-6.207-3.523
				c-0.211,0.478,1.273,3.03,3.199,5.438c0.095,0.119,0.13,0.275,0.097,0.423c-0.034,0.148-0.133,0.273-0.27,0.34
				c-2.622,1.269-5.454,3.186-5.457,4.073c0.627,0.499,3.572,0.008,5.958-0.705C186.11,301.24,186.158,301.233,186.206,301.233z"/>
			<path style="fill:#292236;" d="M143.741,376.772c-0.172,0-0.34-0.089-0.433-0.249c-0.139-0.239-0.057-0.545,0.182-0.684
				c5.631-3.265,8.093-8.495,7.317-15.545c-0.587-5.332-2.9-9.755-2.924-9.799c-0.129-0.244-0.036-0.547,0.208-0.676
				c0.245-0.132,0.546-0.036,0.676,0.207c0.097,0.184,9.523,18.387-4.775,26.678C143.912,376.75,143.826,376.772,143.741,376.772z"
				/>
			<path style="fill:#292236;" d="M105.769,342.884c-4.464,0-7.9-1.216-10.243-3.632c-4.195-4.324-3.308-10.843-3.267-11.118
				c0.032-0.224,0.21-0.397,0.434-0.425c0.22-0.029,0.44,0.1,0.524,0.309c0.017,0.042,1.716,4.172,4.252,4.615
				c1.109,0.188,2.263-0.372,3.433-1.678c4.794-5.348,0.331-26.741,0.285-26.957c-0.057-0.27,0.116-0.535,0.386-0.593
				c0.27-0.055,0.536,0.115,0.593,0.386c0.19,0.9,4.61,22.11-0.519,27.832c-1.417,1.581-2.879,2.255-4.352,1.994
				c-1.872-0.328-3.288-2.114-4.128-3.51c0.035,2.169,0.521,5.817,3.083,8.454c2.654,2.733,6.908,3.786,12.651,3.135
				c0.28-0.029,0.522,0.167,0.553,0.44c0.031,0.274-0.165,0.523-0.44,0.554C107.878,342.819,106.796,342.884,105.769,342.884z"/>
			<path style="fill:#292236;" d="M291.268,423.695c-0.011,0-0.021,0-0.032-0.001l-4.315-0.271c-0.275-0.017-0.485-0.255-0.468-0.53
				l0.249-3.982c0.017-0.275,0.251-0.499,0.53-0.468c0.275,0.018,0.485,0.255,0.468,0.53l-0.218,3.483l3.816,0.239
				c0.275,0.018,0.485,0.255,0.468,0.53C291.75,423.491,291.529,423.695,291.268,423.695z"/>
			<path style="fill:#292236;" d="M265.478,345.297c-0.05,0-0.102-0.008-0.152-0.023c-0.263-0.085-0.408-0.366-0.324-0.629
				c4.103-12.816,2.743-20.934,2.729-21.015c-0.048-0.272,0.133-0.531,0.405-0.579c0.277-0.044,0.531,0.133,0.58,0.404
				c0.06,0.338,1.425,8.418-2.761,21.494C265.886,345.162,265.69,345.297,265.478,345.297z"/>
			<path style="fill:#292236;" d="M257.335,308.235c-15.983,0-22.684-8.185-22.986-8.564c-0.171-0.217-0.136-0.53,0.08-0.702
				c0.217-0.172,0.531-0.137,0.703,0.079c0.078,0.097,7.98,9.691,26.719,7.974c0.28-0.02,0.519,0.177,0.544,0.452
				c0.025,0.275-0.177,0.519-0.452,0.544C260.329,308.167,258.792,308.235,257.335,308.235z"/>
			<path style="fill:#292236;" d="M260.793,215.133c-0.563,0-1.113-0.173-1.617-0.523c-1.256-0.873-1.783-2.578-1.199-3.882
				c0,0,0,0,0,0c0.573-1.28,1.634-2.005,2.921-1.971c1.398,0.031,2.767,0.944,3.255,2.173c0.406,1.022,0.134,2.104-0.746,2.97
				C262.579,214.716,261.669,215.133,260.793,215.133z M258.89,211.137c-0.388,0.865-0.003,2.054,0.856,2.652
				c0.875,0.607,1.954,0.39,2.961-0.602c0.596-0.586,0.775-1.24,0.518-1.888c-0.34-0.857-1.35-1.521-2.348-1.542
				C260.259,209.753,259.411,209.973,258.89,211.137L258.89,211.137z"/>
			<path style="fill:#292236;" d="M257.018,226.665c-2.443,0-3.638-1.405-4.109-2.176c-1.272-2.082-0.927-5.089,0.753-6.566l0,0
				c1.599-1.406,3.921-1.601,6.208-0.521c2.261,1.067,3.798,3.086,3.738,4.909c-0.036,1.09-0.624,2.605-3.221,3.629
				C259.064,226.46,257.95,226.665,257.018,226.665z M256.978,217.712c-1.009,0-1.931,0.323-2.656,0.961l0,0
				c-1.314,1.156-1.576,3.63-0.559,5.294c1.098,1.797,3.379,2.175,6.258,1.04c1.656-0.653,2.551-1.597,2.588-2.731
				c0.046-1.414-1.285-3.084-3.165-3.972C258.604,217.908,257.765,217.712,256.978,217.712z M253.992,218.297h0.01H253.992z"/>
		</g>
		<path style="fill:#292236;" d="M234.033,229.528c-0.128,0-0.255-0.048-0.353-0.145l-15.11-15.003
			c-1.697,1.401-8.854,6.983-12.415,4.555c-0.725-0.494-1.118-1.171-1.167-2.014c-0.13-2.176,2.227-5.041,3.941-6.821
			c-4.256,1.474-13.37,4.248-16.729,2.267c-0.781-0.46-1.237-1.138-1.355-2.015c-0.461-3.424,2.396-5.802,5.145-7.27
			c-10.505,1.752-34.378,4.896-37.35-2.117c-0.516-1.219-0.435-2.363,0.244-3.401c1.999-3.063,9.192-4.63,15.767-5.432
			c-4.542-0.14-9.91-0.391-15.274-0.837c-18.479-1.538-28.11-4.609-28.626-9.127c-0.121-1.059,0.23-1.999,1.045-2.792
			c4.942-4.819,27.36-3.288,40.281-1.947c-17.468-4.202-54.475-14.031-60.316-23.143c-0.727-1.133-0.975-2.249-0.739-3.316
			c0.242-1.094,0.937-1.951,2.064-2.547c9.139-4.83,47.068,8.646,62.564,14.505c-19.182-10.889-76.205-44.268-80.19-58.419
			c-0.377-1.338-0.288-2.509,0.264-3.478c1.306-2.295,5.121-2.35,11.663-0.167c17.926,5.979,51.706,27.389,65.398,36.316
			c17.416,11.356,43.064,29.114,42.804,31.164c-0.346,2.717-1.643,6.321-1.986,7.242l26.26,48.738
			c0.131,0.243,0.04,0.546-0.203,0.677c-0.244,0.133-0.546,0.04-0.677-0.203l-26.369-48.939c-0.069-0.128-0.079-0.281-0.027-0.416
			c0.016-0.042,1.601-4.188,1.997-7.136c-2.408-4.645-92.606-66.713-114.2-68.019c-1.982-0.117-3.256,0.296-3.791,1.236
			c-0.42,0.738-0.476,1.626-0.17,2.712c4.583,16.271,85.032,60.809,85.845,61.256c0.231,0.128,0.323,0.413,0.21,0.652
			c-0.113,0.239-0.392,0.35-0.638,0.251c-0.573-0.23-57.385-22.859-68.286-17.09c-0.868,0.458-1.377,1.073-1.555,1.878
			c-0.179,0.809,0.019,1.646,0.604,2.56c7.305,11.396,68.096,24.653,68.709,24.785c0.263,0.057,0.434,0.311,0.387,0.576
			c-0.047,0.265-0.299,0.447-0.562,0.408c-0.42-0.058-42.101-5.802-48.643,0.577c-0.589,0.575-0.835,1.217-0.749,1.963
			c0.918,8.035,39.982,9.402,54.963,9.246c0.285,0.043,0.502,0.219,0.505,0.494c0.003,0.276-0.218,0.502-0.494,0.506
			c0,0,0,0-0.001,0l0,0c-0.315,0.004-23.45,0.38-26.996,5.811c-0.492,0.753-0.544,1.559-0.16,2.465
			c2.845,6.715,30.643,2.743,41.113,0.645c0.267-0.053,0.524,0.114,0.585,0.377c0.061,0.263-0.098,0.527-0.359,0.596
			c-0.098,0.026-9.788,2.65-9.063,8.024c0.076,0.566,0.361,0.986,0.872,1.287c3.266,1.921,14.163-1.621,18.086-3.149
			c0.226-0.087,0.483-0.001,0.609,0.207c0.126,0.208,0.084,0.476-0.099,0.636c-1.527,1.331-5.458,5.305-5.317,7.662
			c0.031,0.524,0.271,0.932,0.733,1.247c2.769,1.888,9.278-2.814,11.551-4.784c0.198-0.171,0.495-0.161,0.68,0.023l15.435,15.325
			c0.196,0.195,0.197,0.511,0.003,0.707C234.29,229.479,234.161,229.528,234.033,229.528z"/>
		<path style="fill:#292236;" d="M222.641,210.268c-0.781,0-1.573-0.125-2.366-0.38c-2.855-0.917-5.155-3.438-5.473-5.9
			c-3.711,0.149-6.577-0.787-8.505-2.803c-2.623-2.742-2.697-6.6-2.639-7.902c-1.253-0.33-4.867-1.506-6.248-4.372
			c-0.79-1.639-0.708-3.529,0.242-5.625c-5.474-2.092-8.619-4.572-9.606-7.572c-0.888-2.697-0.102-5.822,2.475-9.819
			c-2.259-3.822-2.822-7.015-1.673-9.494c1.59-3.432,5.837-4.141,6.018-4.169c0.274-0.047,0.528,0.143,0.572,0.415
			c0.044,0.272-0.143,0.528-0.415,0.572c-0.039,0.006-3.909,0.661-5.271,3.608c-1.023,2.215-0.422,5.182,1.786,8.819
			c0.101,0.165,0.097,0.373-0.01,0.534c-2.531,3.848-3.336,6.777-2.532,9.22c0.917,2.784,4.03,5.119,9.517,7.14
			c0.134,0.049,0.241,0.154,0.293,0.287c0.052,0.133,0.045,0.282-0.02,0.41c-1.024,2.004-1.184,3.767-0.475,5.239
			c1.434,2.977,5.93,3.92,5.975,3.929c0.253,0.052,0.425,0.288,0.397,0.545c-0.005,0.046-0.468,4.618,2.341,7.549
			c1.799,1.878,4.56,2.707,8.207,2.464c0.138-0.007,0.271,0.039,0.373,0.132c0.101,0.093,0.159,0.224,0.161,0.361
			c0.028,2.215,2.144,4.622,4.816,5.48c1.779,0.572,5.231,0.895,8.365-3.364c0.163-0.223,0.476-0.269,0.699-0.106
			c0.222,0.164,0.27,0.477,0.106,0.699C227.777,208.847,225.272,210.268,222.641,210.268z"/>
		<path style="fill:#292236;" d="M215.699,195.679c-2.713,0-5.641-1.518-7.242-3.839c-1.417-2.054-1.636-4.383-0.64-6.62
			c-3.697-0.991-6.69-3.511-7.897-6.689c-0.998-2.628-0.648-5.384,0.979-7.806c-2.138-2.388-3-4.7-2.562-6.879
			c0.727-3.608,4.745-5.441,4.916-5.517c0.253-0.114,0.548-0.001,0.66,0.253c0.113,0.251,0,0.547-0.251,0.661
			c-0.038,0.017-3.724,1.705-4.345,4.806c-0.387,1.933,0.483,4.05,2.587,6.292c0.165,0.176,0.181,0.443,0.039,0.637
			c-1.622,2.219-2.008,4.775-1.088,7.198c1.155,3.042,4.141,5.424,7.792,6.217c0.154,0.034,0.283,0.138,0.349,0.281
			c0.065,0.143,0.06,0.309-0.015,0.447c-1.121,2.061-1.015,4.247,0.299,6.152c1.583,2.294,4.617,3.706,7.208,3.354
			c1.45-0.196,3.383-1.019,4.358-3.824c0.09-0.261,0.374-0.399,0.636-0.308c0.261,0.09,0.399,0.376,0.308,0.636
			c-0.891,2.563-2.726,4.157-5.169,4.487C216.32,195.659,216.01,195.679,215.699,195.679z"/>
		<path style="fill:#292236;" d="M243.397,221.335c-0.222,0-0.424-0.149-0.483-0.374l-8.126-31.106
			c-0.07-0.267,0.09-0.54,0.357-0.61c0.266-0.066,0.54,0.09,0.61,0.357l8.126,31.106c0.07,0.267-0.09,0.54-0.357,0.61
			C243.481,221.33,243.439,221.335,243.397,221.335z"/>
		<path style="fill:#292236;" d="M231.731,159.504c-0.171,0-0.338-0.088-0.431-0.246c-21.133-35.806-54.641-88.664-60.241-87.622
			c-0.26,0.049-0.428,0.189-0.544,0.453c-2.505,5.683,21.225,46.265,30.579,61.422c0.138,0.223,0.08,0.514-0.132,0.668
			c-0.213,0.153-0.506,0.117-0.675-0.083c-19.628-23.298-29.908-29.619-32.027-28.194c-0.131,0.089-0.312,0.257-0.359,0.688
			c-0.628,5.767,22.548,31.518,31.531,40.954c0.179,0.188,0.184,0.481,0.012,0.676c-0.172,0.193-0.464,0.225-0.673,0.07
			c-0.205-0.152-20.564-15.195-26.95-13.429c-0.709,0.197-1.181,0.604-1.444,1.244c-0.104,0.256-0.397,0.38-0.652,0.272
			c-0.255-0.105-0.378-0.397-0.273-0.652c0.382-0.931,1.089-1.546,2.101-1.827c5.055-1.405,17.352,6.332,23.777,10.729
			c-8.357-9.028-29.082-32.099-28.423-38.145c0.068-0.625,0.335-1.099,0.794-1.408c0.958-0.646,3.875-2.613,19.099,12.778
			c3.944,3.988,7.717,8.138,10.389,11.154c-3.189-5.302-8.417-14.134-13.448-23.244c-16.215-29.368-14.654-32.911-14.141-34.075
			c0.249-0.564,0.689-0.921,1.273-1.032c8.092-1.577,55.871,78.916,61.289,88.096c0.14,0.238,0.061,0.544-0.177,0.685
			C231.905,159.482,231.818,159.504,231.731,159.504z"/>
		<path style="fill:#292236;" d="M224.953,177.144c-1.708,0-3.175-0.79-4.156-2.282c-1.551-2.359-1.499-5.9,0.06-8.302
			c-2.848-2.081-4.548-5.19-4.08-7.546c0.219-1.099,0.992-2.498,3.392-3.124c-0.434-2.506-0.069-4.428,1.086-5.715
			c1.7-1.894,4.444-1.651,4.558-1.641c0.275,0.026,0.475,0.27,0.449,0.544c-0.026,0.274-0.262,0.479-0.544,0.451
			c-0.024,0-2.368-0.199-3.724,1.319c-1,1.119-1.254,2.909-0.754,5.32c0.027,0.131,0.001,0.267-0.073,0.378
			c-0.074,0.111-0.188,0.188-0.319,0.214c-1.798,0.358-2.837,1.183-3.089,2.449c-0.41,2.056,1.342,4.986,4.075,6.814
			c0.115,0.077,0.193,0.198,0.216,0.335c0.022,0.137-0.013,0.277-0.098,0.386c-1.604,2.075-1.744,5.399-0.318,7.568
			c1.031,1.568,2.671,2.158,4.616,1.66c0.266-0.069,0.54,0.092,0.608,0.36c0.068,0.268-0.093,0.54-0.36,0.608
			C225.967,177.077,225.449,177.144,224.953,177.144z"/>
		<path style="fill:#292236;" d="M227.11,165.195c-0.151,0-0.3-0.068-0.398-0.197c-1.422-1.87-1.954-3.738-1.58-5.555
			c0.646-3.14,3.762-4.932,3.895-5.007c0.24-0.132,0.545-0.051,0.681,0.189c0.136,0.24,0.052,0.545-0.188,0.682
			c-0.029,0.016-2.858,1.652-3.409,4.344c-0.311,1.519,0.159,3.114,1.398,4.742c0.167,0.22,0.124,0.534-0.095,0.701
			C227.322,165.162,227.215,165.195,227.11,165.195z"/>
	</g>
	<g>
		<path style="fill:#292236;" d="M409.777,440.914c-17.038,0-33.456-9.433-41.529-25.7c-5.498-11.077-6.354-23.629-2.413-35.345
			c3.942-11.717,12.212-21.197,23.288-26.694c8.373-4.155,17.661-5.677,26.855-4.401c0.217,0.03,0.389,0.198,0.425,0.414
			c0.035,0.217-0.074,0.431-0.271,0.528c-16.425,8.186-23.151,28.217-14.993,44.651c3.959,7.978,10.788,13.936,19.228,16.776
			c8.44,2.841,17.481,2.225,25.458-1.735c3.091-1.533,5.909-3.521,8.375-5.905c0.158-0.153,0.398-0.183,0.589-0.079
			c0.192,0.107,0.293,0.325,0.249,0.54c-2.901,14.048-11.926,25.759-24.761,32.13C423.687,439.364,416.68,440.914,409.777,440.914z
			 M409.644,349.335c-6.923,0-13.764,1.603-20.076,4.736c-10.836,5.378-18.928,14.652-22.784,26.116
			c-3.857,11.463-3.019,23.744,2.36,34.581c11.1,22.365,38.325,31.529,60.69,20.429c12.08-5.996,20.712-16.829,23.877-29.881
			c-2.246,1.975-4.742,3.649-7.44,4.988c-8.217,4.077-17.529,4.713-26.222,1.786c-8.693-2.926-15.726-9.063-19.804-17.278
			c-8.163-16.445-1.858-36.385,14.018-45.239C412.722,349.414,411.18,349.335,409.644,349.335z"/>
		<path style="fill:#292236;" d="M451.491,340.081c-1.63,0-2.618-4.3-3.105-7.263c-1.525,0.522-5.021,1.59-6.19,0.823
			c-0.292-0.19-0.464-0.485-0.484-0.831c-0.102-1.713,3.583-4.089,5.164-5.026c-1.083-1.239-3.461-4.131-3.363-5.499
			c0.026-0.372,0.205-0.593,0.349-0.713c1.147-0.946,4.89,1.258,7.251,2.834c0.953-1.016,3.404-3.489,4.703-3.514
			c0.395-0.006,0.596,0.149,0.725,0.281c0.969,0.991-0.295,4.398-1.063,6.197c6.635,3.845,6.357,4.564,6.206,4.954
			c-0.122,0.314-0.406,1.036-7.281,0.809c-0.334,2.388-1.19,6.904-2.888,6.947C451.507,340.081,451.499,340.081,451.491,340.081z
			 M448.786,331.646c0.088,0,0.176,0.023,0.254,0.069c0.129,0.076,0.217,0.207,0.24,0.355c0.598,3.932,1.679,6.997,2.21,7.011
			c0.532-0.014,1.513-2.867,1.982-6.526c0.033-0.257,0.281-0.433,0.515-0.436c2.565,0.101,5.542,0.051,6.554-0.176
			c-0.782-0.768-3.513-2.528-5.949-3.928c-0.222-0.128-0.312-0.402-0.208-0.637c1.115-2.513,1.802-5.137,1.442-5.505
			c-0.44-0.114-2.468,1.541-4.266,3.524c-0.168,0.185-0.446,0.216-0.651,0.078c-2.9-1.97-5.898-3.433-6.414-3.128
			c-0.181,0.49,1.459,2.944,3.532,5.227c0.102,0.112,0.148,0.266,0.124,0.416c-0.024,0.15-0.116,0.281-0.249,0.355
			c-2.538,1.429-5.244,3.52-5.191,4.406c0.656,0.458,3.566-0.215,5.903-1.075C448.67,331.655,448.728,331.646,448.786,331.646z"/>
		<path style="fill:#292236;" d="M42.599,222.808c-0.877,0-1.576-1.496-2.079-4.448c-1.183,0.395-3.06,0.899-3.797,0.418
			c-0.233-0.152-0.37-0.388-0.386-0.663c-0.065-1.088,1.857-2.429,3.104-3.18c-0.774-0.901-2.046-2.524-1.985-3.381
			c0.021-0.298,0.167-0.477,0.285-0.575c0.615-0.507,2.16,0.048,4.595,1.659c0.77-0.813,2.125-2.109,2.946-2.125
			c0.32,0.013,0.483,0.124,0.589,0.232c0.614,0.629,0.08,2.389-0.556,3.901c4.111,2.395,3.935,2.854,3.791,3.225
			c-0.118,0.305-0.295,0.758-4.535,0.629c-0.296,2.047-0.868,4.281-1.953,4.309C42.612,222.808,42.606,222.808,42.599,222.808z
			 M42.668,221.823h0.01H42.668z M40.919,217.189c0.088,0,0.176,0.023,0.254,0.069c0.129,0.077,0.217,0.207,0.24,0.355
			c0.291,1.907,0.827,3.761,1.189,4.152c0.344-0.367,0.813-2.083,1.039-3.847c0.033-0.257,0.267-0.462,0.515-0.436
			c1.306,0.048,2.816,0.038,3.625-0.046c-0.686-0.535-2.097-1.429-3.351-2.15c-0.222-0.128-0.312-0.402-0.208-0.636
			c0.557-1.256,0.955-2.598,0.935-3.099c-0.455,0.2-1.483,1.089-2.376,2.072c-0.167,0.185-0.444,0.217-0.651,0.078
			c-1.469-0.997-3.055-1.823-3.65-1.918c0.17,0.528,1.073,1.799,2.106,2.938c0.103,0.113,0.148,0.266,0.124,0.416
			c-0.024,0.15-0.116,0.281-0.249,0.355c-1.556,0.876-2.963,2.003-3.115,2.475c0.451,0.108,1.963-0.221,3.398-0.749
			C40.802,217.2,40.861,217.189,40.919,217.189z"/>
		<path style="fill:#292236;" d="M412.418,300.259c-0.475,0-1.768-0.621-6.087-8.026c-2.531,1.148-8.939,3.806-10.213,1.896
			c-1.263-1.893,4.049-6.914,6.352-8.952c-1.624-1.291-5.691-4.72-5.66-6.647c0.007-0.428,0.193-0.784,0.537-1.03
			c1.913-1.371,7.637,1.375,9.733,2.464c0.561-1.897,2.266-7.236,3.938-8.13c0.397-0.211,0.732-0.175,0.943-0.105
			c1.967,0.647,1.978,7.781,1.904,10.588c1.756,0.331,6.665,1.376,7.645,2.866c0.24,0.366,0.23,0.696,0.18,0.909
			c-0.436,1.829-5.818,2.864-8.075,3.22c0.409,10.643-0.655,10.852-1.059,10.931C412.518,300.25,412.474,300.259,412.418,300.259z
			 M412.469,299.263L412.469,299.263L412.469,299.263z M406.534,291.089c0.174,0,0.341,0.091,0.433,0.249
			c1.957,3.38,4.438,7.141,5.334,7.825c0.4-1.115,0.471-6.01,0.296-10.258c-0.011-0.256,0.174-0.479,0.427-0.516
			c3.547-0.518,7.484-1.659,7.692-2.53c0.002-0.011,0.011-0.045-0.043-0.127c-0.652-0.992-4.89-2.065-7.408-2.509
			c-0.246-0.043-0.422-0.26-0.413-0.509c0.156-4.604-0.291-9.736-1.205-10.037c-0.014-0.003-0.056-0.02-0.159,0.037
			c-1.166,0.623-2.837,5.306-3.617,8.111c-0.041,0.146-0.146,0.267-0.286,0.326c-0.14,0.06-0.299,0.052-0.434-0.021
			c-3.116-1.683-8.04-3.674-9.223-2.82c-0.086,0.061-0.118,0.125-0.12,0.234c-0.02,1.222,3.349,4.368,5.748,6.212
			c0.119,0.092,0.191,0.231,0.195,0.382c0.004,0.15-0.059,0.294-0.173,0.393c-3.672,3.18-7.212,7.17-6.631,8.041
			c0.583,0.876,5.32-0.553,9.375-2.438C406.392,291.103,406.464,291.089,406.534,291.089z"/>
		<path style="fill:#292236;" d="M180.643,52.449c-0.475,0-1.768-0.622-6.087-8.025c-2.532,1.148-8.939,3.805-10.213,1.895
			c-1.263-1.894,4.049-6.914,6.352-8.952c-1.624-1.292-5.691-4.72-5.659-6.647c0.007-0.427,0.193-0.784,0.537-1.03
			c1.911-1.372,7.637,1.376,9.732,2.463c0.561-1.897,2.266-7.236,3.938-8.13c0.396-0.212,0.731-0.174,0.943-0.104
			c1.967,0.647,1.978,7.782,1.904,10.588c1.756,0.331,6.666,1.376,7.645,2.867c0.24,0.366,0.23,0.696,0.18,0.909
			c-0.436,1.83-5.818,2.865-8.075,3.22c0.409,10.642-0.655,10.852-1.059,10.931C180.743,52.44,180.699,52.449,180.643,52.449z
			 M174.759,43.28c0.174,0,0.341,0.09,0.433,0.25c1.957,3.379,4.438,7.139,5.334,7.825c0.4-1.116,0.47-6.01,0.295-10.258
			c-0.011-0.256,0.174-0.478,0.427-0.515c3.547-0.519,7.484-1.659,7.692-2.531c0.003-0.011,0.011-0.045-0.043-0.127
			c-0.651-0.992-4.89-2.066-7.408-2.509c-0.245-0.043-0.421-0.26-0.413-0.509c0.155-4.604-0.292-9.736-1.205-10.036
			c-0.014-0.005-0.056-0.019-0.159,0.036c-1.166,0.623-2.837,5.307-3.617,8.112c-0.041,0.146-0.146,0.267-0.286,0.326
			c-0.14,0.061-0.299,0.052-0.434-0.02c-3.115-1.683-8.038-3.67-9.223-2.82c-0.085,0.061-0.118,0.125-0.12,0.234
			c-0.021,1.222,3.349,4.368,5.748,6.212c0.119,0.092,0.191,0.232,0.195,0.382c0.004,0.15-0.059,0.294-0.173,0.392
			c-3.671,3.179-7.212,7.169-6.63,8.041c0.585,0.877,5.32-0.552,9.374-2.437C174.617,43.295,174.689,43.28,174.759,43.28z"/>
		<path style="fill:#292236;" d="M66.921,273.535c-1.875,0.001-5.007-3.97-6.294-5.717c-9.256,5.264-9.933,4.417-10.19,4.096
			c-0.221-0.277-0.884-1.111,4.242-9.215c-2.186-1.718-7.495-6.184-6.387-8.192c1.097-1.996,8.002,0.407,10.872,1.515
			c0.398-2.037,1.568-7.227,3.293-8.086c0.383-0.191,0.784-0.19,1.162,0.001c2.098,1.066,2.297,7.413,2.297,9.774
			c1.942-0.377,7.466-1.32,9.03-0.251c0.371,0.255,0.492,0.569,0.527,0.789c0.332,2.044-5.996,5.341-8.521,6.567
			c0.516,1.712,1.85,6.55,0.978,8.106c-0.214,0.382-0.512,0.525-0.724,0.578C67.114,273.524,67.019,273.535,66.921,273.535z
			 M60.767,266.662c0.156,0,0.309,0.073,0.406,0.208c2.095,2.91,4.93,5.879,5.789,5.661c0.011-0.003,0.045-0.011,0.093-0.097
			c0.581-1.036-0.419-5.292-1.186-7.73c-0.075-0.238,0.037-0.494,0.262-0.602c4.159-1.983,8.507-4.743,8.353-5.692
			c-0.002-0.015-0.009-0.059-0.105-0.124c-1.091-0.75-6.017-0.074-8.866,0.526c-0.15,0.029-0.305-0.008-0.421-0.103
			c-0.117-0.097-0.184-0.242-0.182-0.395c0.059-3.54-0.444-8.824-1.745-9.485c-0.093-0.047-0.165-0.046-0.263,0.002
			c-1.094,0.544-2.334,4.985-2.866,7.964c-0.026,0.148-0.118,0.276-0.249,0.349c-0.131,0.073-0.289,0.084-0.428,0.028
			c-4.514-1.795-9.687-3.102-10.191-2.183c-0.509,0.924,2.941,4.468,6.482,7.199c0.205,0.157,0.255,0.446,0.117,0.664
			c-2.098,3.293-4.292,7.228-4.488,8.339c1.174-0.159,5.551-2.352,9.241-4.463C60.597,266.684,60.683,266.662,60.767,266.662z
			 M51.267,271.386L51.267,271.386L51.267,271.386z"/>
		<path style="fill:#292236;" d="M89.735,211.917c-1.8,0-3.265-1.465-3.265-3.265c0-1.8,1.464-3.265,3.265-3.265
			c1.8,0,3.265,1.465,3.265,3.265C93.001,210.452,91.536,211.917,89.735,211.917z M89.735,206.387c-1.248,0-2.265,1.016-2.265,2.265
			c0,1.249,1.016,2.265,2.265,2.265c1.249,0,2.265-1.016,2.265-2.265C92.001,207.403,90.984,206.387,89.735,206.387z"/>
		<path style="fill:#292236;" d="M35.819,321.893c-2.616,0-4.744-2.128-4.744-4.744c0-2.616,2.128-4.744,4.744-4.744
			s4.744,2.128,4.744,4.744C40.564,319.765,38.435,321.893,35.819,321.893z M35.819,313.404c-2.064,0-3.744,1.68-3.744,3.744
			c0,2.064,1.68,3.744,3.744,3.744c2.064,0,3.744-1.68,3.744-3.744C39.564,315.084,37.884,313.404,35.819,313.404z"/>
		<path style="fill:#292236;" d="M453.645,184.83c-1.338,0-2.426-1.088-2.426-2.426c0-1.338,1.088-2.426,2.426-2.426
			c1.338,0,2.426,1.088,2.426,2.426C456.071,183.742,454.983,184.83,453.645,184.83z M453.645,180.977
			c-0.787,0-1.426,0.64-1.426,1.426c0,0.787,0.64,1.426,1.426,1.426c0.787,0,1.426-0.64,1.426-1.426
			C455.071,181.617,454.431,180.977,453.645,180.977z"/>
		<path style="fill:#292236;" d="M439.328,156.704c-2.874,0-5.213-2.338-5.213-5.213c0-2.875,2.338-5.213,5.213-5.213
			c2.875,0,5.213,2.338,5.213,5.213C444.541,154.365,442.202,156.704,439.328,156.704z M439.328,147.278
			c-2.323,0-4.213,1.89-4.213,4.213c0,2.323,1.89,4.213,4.213,4.213c2.323,0,4.213-1.89,4.213-4.213
			C443.541,149.167,441.651,147.278,439.328,147.278z"/>
		<path style="fill:#292236;" d="M464.665,283.032c-2.171,0-3.938-1.767-3.938-3.938s1.767-3.938,3.938-3.938
			s3.938,1.767,3.938,3.938S466.836,283.032,464.665,283.032z M464.665,276.157c-1.62,0-2.938,1.317-2.938,2.938
			c0,1.62,1.318,2.938,2.938,2.938s2.938-1.317,2.938-2.938C467.602,277.475,466.284,276.157,464.665,276.157z"/>
		<path style="fill:#292236;" d="M92.512,449.574c-3.332,0-6.041-2.71-6.041-6.041c0-3.332,2.71-6.042,6.041-6.042
			c3.332,0,6.042,2.71,6.042,6.042C98.554,446.864,95.844,449.574,92.512,449.574z M92.512,438.491c-2.78,0-5.041,2.262-5.041,5.042
			c0,2.779,2.262,5.041,5.041,5.041c2.78,0,5.042-2.262,5.042-5.041C97.554,440.753,95.292,438.491,92.512,438.491z"/>
		<path style="fill:#292236;" d="M459.194,457.699c-2.274,0-4.123-1.85-4.123-4.124c0-2.273,1.85-4.123,4.123-4.123
			c2.273,0,4.123,1.85,4.123,4.123C463.318,455.85,461.468,457.699,459.194,457.699z M459.194,450.452
			c-1.722,0-3.123,1.401-3.123,3.123c0,1.723,1.401,3.124,3.123,3.124s3.123-1.401,3.123-3.124
			C462.318,451.853,460.917,450.452,459.194,450.452z"/>
		<path style="fill:#292236;" d="M334.916,383.013c-1.44,0-2.611-1.171-2.611-2.61c0-1.439,1.171-2.61,2.611-2.61
			c1.439,0,2.61,1.171,2.61,2.61C337.526,381.842,336.355,383.013,334.916,383.013z M334.916,378.792
			c-0.888,0-1.611,0.723-1.611,1.61c0,0.888,0.723,1.61,1.611,1.61c0.888,0,1.61-0.723,1.61-1.61
			C336.526,379.515,335.804,378.792,334.916,378.792z"/>
		<path style="fill:#292236;" d="M32.557,171.327c-0.817,0-1.482-0.665-1.482-1.482s0.665-1.482,1.482-1.482
			c0.817,0,1.482,0.665,1.482,1.482S33.375,171.327,32.557,171.327z M32.557,169.363c-0.266,0-0.482,0.216-0.482,0.482
			s0.216,0.482,0.482,0.482c0.266,0,0.482-0.216,0.482-0.482S32.823,169.363,32.557,169.363z"/>
		<path style="fill:#292236;" d="M47.391,131.265c-2.027,0-3.676-1.649-3.676-3.676c0-2.027,1.649-3.676,3.676-3.676
			c2.027,0,3.676,1.649,3.676,3.676C51.067,129.616,49.418,131.265,47.391,131.265z M47.391,124.914c-1.476,0-2.676,1.2-2.676,2.676
			c0,1.475,1.2,2.676,2.676,2.676s2.676-1.2,2.676-2.676C50.067,126.114,48.866,124.914,47.391,124.914z"/>
		<path style="fill:#292236;" d="M105.988,41.289c-1.728,0-3.134-1.406-3.134-3.134s1.406-3.134,3.134-3.134
			c1.728,0,3.134,1.406,3.134,3.134S107.716,41.289,105.988,41.289z M105.988,36.021c-1.177,0-2.134,0.958-2.134,2.134
			c0,1.177,0.957,2.134,2.134,2.134c1.177,0,2.134-0.958,2.134-2.134C108.123,36.978,107.165,36.021,105.988,36.021z"/>
		<path style="fill:#292236;" d="M114.34,66.466c-1.279,0-2.32-1.04-2.32-2.32c0-1.279,1.04-2.32,2.32-2.32
			c1.279,0,2.32,1.041,2.32,2.32C116.66,65.425,115.619,66.466,114.34,66.466z M114.34,62.826c-0.727,0-1.32,0.592-1.32,1.32
			c0,0.727,0.592,1.32,1.32,1.32c0.728,0,1.32-0.592,1.32-1.32C115.66,63.418,115.067,62.826,114.34,62.826z"/>
	</g>
</g>

    <text x="10" y="832" font-size="12" fill="gray" opacity="0.6" font-family="Arial, sans-serif">
      twoja-kolorowanka.pl
    </text>
  
</svg>
