<?xml version="1.0" encoding="utf-8"?>
<!-- Generator: Adobe Illustrator 27.5.0, SVG Export Plug-In . SVG Version: 6.00 Build 0)  -->
<svg xmlns="http://www.w3.org/2000/svg" xmlns:xlink="http://www.w3.org/1999/xlink" viewBox="0 0 500 500" width="595" height="842" preserveAspectRatio="xMidYMid meet" data-scaled="true">
<g id="BACKGROUND">
	<rect style="fill:#FFFFFF;" width="500" height="500"/>
</g>
<g id="OBJECTS">
	<g>
		<g>
			<path d="M440.327,151.002c-0.674,2.27-1.884,6.238-3.969,7.592c-2.586,0.394-5.172,0.788-7.759,1.182
				c-1.697-1.191-3.048-2.657-4.053-4.398c-1.761-2.541-3.036-5.294-5.186-7.562c-3.639-3.839-8.571-6.574-13.846-7.257
				c-5.757-0.746-13.096,0.987-17.642,4.73c-4.903,4.037-7.503,18.819-16.086,15.097c-0.855-0.371-1.618,0.83-0.751,1.285
				c5.26,2.758,9.415-0.851,11.933-5.456c3.203-5.858,5.234-10.628,12.176-12.903c7.216-2.365,14.255-1.536,20.33,3.103
				c5.249,4.008,8.074,15.149,15.708,15.797c5.926,0.503,9.095-6.136,10.013-10.971C441.302,150.679,440.494,150.44,440.327,151.002
				L440.327,151.002z"/>
		</g>
		<g>
			<path d="M370.783,161.029c-1.15,1.602-1.249,3.596-0.294,5.322c0.842,1.523,2.816,3.182,4.646,2.941
				c0.428-0.057,0.694-0.631,0.24-0.885c-1.315-0.734-2.648-0.951-3.583-2.288c-0.976-1.397-0.999-3.125-0.092-4.553
				C372.073,160.979,371.175,160.483,370.783,161.029L370.783,161.029z"/>
		</g>
		<g>
			<path d="M373.049,168.163c-0.369,0.961,0.148,1.981,0.892,2.614c0.592,0.504,2.033,1.297,2.785,0.801
				c0.158-0.104,0.2-0.284,0.119-0.453c-0.279-0.58-1.253-0.707-1.776-0.998c-0.72-0.402-1.186-1.001-1.197-1.852
				C373.865,167.778,373.212,167.736,373.049,168.163L373.049,168.163z"/>
		</g>
		<g>
			<path d="M375.971,171.129c6.488,8.943,14.014,14.428,25.342,14.908c11.625,0.493,18.865-5.215,23.888-15.277
				c0.421-0.843-0.803-1.579-1.274-0.745c-5.451,9.671-12.015,15.129-23.578,14.339c-4.726-0.323-9.533-1.547-13.591-4.058
				c-3.987-2.467-6.775-6.476-10.13-9.675C376.299,170.308,375.681,170.73,375.971,171.129L375.971,171.129z"/>
		</g>
		<g>
			<path d="M424.112,171.439c2.385-3.422,6.609-2.542,9.626-0.618c2.939,1.874,4.085,4.207,3.988,7.635
				c-0.014,0.512,0.788,0.778,1.013,0.274c3.349-7.476-11.558-15.726-15.307-7.688C423.218,171.501,423.821,171.857,424.112,171.439
				L424.112,171.439z"/>
		</g>
		<g>
			<path d="M377.921,169.571c1.849,0.414,4.534-0.546,5.669-2.088c0.831-1.13,2.111-3.891,0.187-4.598
				c-0.413-0.152-0.698,0.355-0.529,0.689c0.603,1.192-0.42,3.04-1.386,3.806c-0.927,0.735-2.648,1.418-3.819,1.296
				C377.53,168.622,377.423,169.46,377.921,169.571L377.921,169.571z"/>
		</g>
		<g>
			<path d="M385.111,159.602c0.331-1.458,0.856-3.027,2.035-4.025c0.401-0.34,1.076-0.771,1.618-0.616
				c0.694,0.198,0.902,1.098,0.957,1.692c0.071,0.767-0.065,1.534-0.012,2.298c0.039,0.559,0.822,0.7,0.995,0.135
				c0.57-1.873,0.284-5.842-2.571-5.313c-2.578,0.477-3.438,3.421-3.806,5.614C384.242,159.891,384.993,160.12,385.111,159.602
				L385.111,159.602z"/>
		</g>
		<g>
			<path d="M390.098,159.561c0.916-0.028,2.144,0.142,2.967-0.302c0.411-0.222,0.282-0.816-0.124-0.948
				c-0.46-0.15-0.931-0.046-1.404,0.021c-0.525,0.074-1.049,0.156-1.573,0.235C389.396,158.652,389.535,159.578,390.098,159.561
				L390.098,159.561z"/>
		</g>
		<g>
			<path d="M404.55,164.477c1.365-0.217,2.62-0.659,3.787-1.406c0.908-0.58,2.256-1.437,2.482-2.545
				c0.067-0.326-0.229-0.761-0.607-0.607c-0.987,0.402-1.638,1.424-2.537,2.018c-1.043,0.689-2.204,1.184-3.414,1.491
				C403.568,163.604,403.874,164.584,404.55,164.477L404.55,164.477z"/>
		</g>
		<g>
			<path d="M410.482,160.971c1.622-1.15,2.852-1.059,4.208,0.282c1.248,1.233,1.233,1.809,0.852,3.47
				c-0.293,1.277-0.442,1.843-0.417,3.174c0.041,2.201-0.668,4.082-3.033,4.737c-2.067,0.572-3.892-0.441-5.832-0.908
				c-0.399-0.096-0.752,0.419-0.42,0.721c3.662,3.33,10.908,1.574,10.703-3.974c-0.06-1.623,0.062-2.277,0.4-3.811
				c0.134-0.611,0.286-1.143,0.238-1.77c-0.089-1.169-0.675-2.34-1.593-3.079c-1.786-1.439-4.076-1.016-5.646,0.463
				C409.585,160.613,410.065,161.267,410.482,160.971L410.482,160.971z"/>
		</g>
		<g>
			<path d="M407.092,171.665c-0.954-0.679-1.83-1.495-1.837-2.72c-0.004-0.709,0.267-1.429,0.293-2.142
				c0.042-1.156-0.701-2.248-1.481-3.047c-0.332-0.34-0.921,0.008-0.794,0.462c0.276,0.983,0.99,1.742,0.986,2.775
				c-0.003,0.804-0.33,1.635-0.231,2.441c0.168,1.354,1.425,2.479,2.572,3.073C407.164,172.799,407.599,172.025,407.092,171.665
				L407.092,171.665z"/>
		</g>
		<g>
			<path d="M441.002,151.046c1.545-1.975,4.747-1.499,6.178,0.447c0.645,0.878,0.863,1.846,0.602,2.912
				c-0.179,0.728-0.337,1.129-0.195,1.858c0.092,0.475,0.728,0.377,0.868,0c0.906-2.447,0.967-4.956-1.44-6.595
				c-1.069-0.728-2.403-1.065-3.69-1.035c-1.472,0.035-2.233,0.697-3,1.891C440.065,150.927,440.697,151.436,441.002,151.046
				L441.002,151.046z"/>
		</g>
		<g>
			<path d="M447.904,155.357c-0.762,1.656-0.402,3.132,0.717,4.57c0.873,1.121,2.118,1.875,2.995,2.989
				c1.523,1.934,1.337,4.055,0.068,6.079c-0.354,0.566,0.475,1.222,0.933,0.72c1.452-1.597,1.94-3.749,1.206-5.815
				c-1.068-3.005-6.28-4.598-5.245-8.258C448.688,155.251,448.082,154.969,447.904,155.357L447.904,155.357z"/>
		</g>
		<g>
			<path d="M452.352,168.569c-1.101,1.333-2.385,1.607-3.892,2.231c-0.633,0.262-1.219,0.552-1.551,1.187
				c-0.467,0.893-0.065,1.596,0.116,2.481c0.557,2.71-1.039,2.867-2.291,4.581c-0.163,0.223,0.059,0.523,0.302,0.527
				c2.245,0.029,3.935-2.557,3.511-4.652c-0.189-0.93-0.91-1.777-0.02-2.729c0.344-0.368,1.451-0.548,1.929-0.77
				c1.129-0.525,2.027-1.206,2.524-2.371C453.14,168.679,452.67,168.184,452.352,168.569L452.352,168.569z"/>
		</g>
		<g>
			<path d="M445.696,178.584c-1.197-0.138-2.204-0.094-3.122,0.756c-0.639,0.592-1.208,1.262-2.178,1.235
				c-0.974-0.027-1.097-0.849-1.851-1.177c-0.151-0.066-0.283-0.054-0.409,0.053c-0.059,0.05-0.118,0.099-0.177,0.149
				c-0.233,0.197-0.232,0.561-0.104,0.81c0.596,1.159,1.872,1.648,3.137,1.415c0.671-0.124,1.287-0.428,1.799-0.879
				c0.274-0.241,0.483-0.549,0.774-0.773c0.649-0.498,1.358-0.482,2.131-0.438C446.448,179.777,446.414,178.667,445.696,178.584
				L445.696,178.584z"/>
		</g>
		<g>
			<path d="M438.757,180.119c0.116-0.514,0.221-1.06,0.174-1.588c-0.026-0.292-0.174-0.475-0.442-0.58
				c-1.003-0.393-0.774,1.59-0.825,2.02C437.589,180.595,438.62,180.725,438.757,180.119L438.757,180.119z"/>
		</g>
		<g>
			<path d="M435.963,162.347c0.619,1.033,0.889,2.19,0.766,3.394c-0.107,1.04-0.81,1.839-0.88,2.842
				c-0.025,0.36,0.377,0.492,0.649,0.372c1.08-0.474,1.399-2.148,1.479-3.215c0.106-1.411-0.321-2.763-1.128-3.911
				C436.474,161.298,435.618,161.771,435.963,162.347L435.963,162.347z"/>
		</g>
		<g>
			<path d="M435.737,169.352c-0.52,0.454,0.144,1.312,0.742,0.962C437.225,169.878,436.428,168.749,435.737,169.352L435.737,169.352
				z"/>
		</g>
		<g>
			<path d="M391.752,143.524c-0.074-3.916,0.211-8.131,2.51-11.458c3.013-4.358,10.108-6.427,12.322-0.249
				c0.217,0.607,1.197,0.555,1.179-0.16c-0.142-5.447-6.821-6.35-10.676-4.193c-5.792,3.24-6.797,10.022-6.547,16.06
				C390.571,144.301,391.766,144.308,391.752,143.524L391.752,143.524z"/>
		</g>
		<g>
			<path d="M406.576,131.125c-0.897,4.458,4.534,4.694,7.404,3.562c2.009-0.793,5.56-3.122,7.726-1.274
				c2.869,2.447,1.814,5.002,0.81,7.97c-0.652,1.929-1.003,3.785,0.724,5.163c0.421,0.336,1.086-0.079,0.785-0.606
				c-1.789-3.141,1.402-6.083,1.028-9.349c-0.167-1.458-0.771-2.888-1.899-3.857c-1.548-1.329-3.579-1.477-5.498-1.052
				c-3.268,0.723-8.921,5.54-10.454-0.557C407.127,130.824,406.64,130.806,406.576,131.125L406.576,131.125z"/>
		</g>
		<g>
			<path d="M422.547,145.212c0.393,1.05,0.799,1.347,1.549,2.079c0.346,0.147,0.695,0.288,1.046,0.423
				c0.399,1.342,0.797,2.684,1.196,4.026c-0.152,0.53-1.052,1.057-1.321,1.657c-1.463,3.263,3.038,4.39,2.745,7.382
				c-0.069,0.712,1.113,0.873,1.252,0.169c0.287-1.449-0.178-2.367-1.119-3.487c-1.093-1.301-2.53-1.612-1.224-4.24
				c0.363-0.731,1.175-1.107,1.48-1.934c0.313-0.849,0.274-1.797-0.081-2.628c-0.948-2.225-3.661-1.685-4.827-3.742
				C423.037,144.553,422.392,144.798,422.547,145.212L422.547,145.212z"/>
		</g>
		<g>
			<path d="M404.87,185.865c3.188,4.124,8.251,4.635,12.676,2.167c1.673-0.933,4.572-2.613,5.533-4.362
				c1.299-2.365-0.693-5.27-0.863-7.648c-0.041-0.57-0.868-0.737-1.031-0.14c-0.379,1.386-0.282,1.966,0.144,3.38
				c0.977,3.238-0.016,4.391-2.623,6.233c-4.29,3.03-9.232,3.9-13.075-0.39C405.157,184.576,404.459,185.333,404.87,185.865
				L404.87,185.865z"/>
		</g>
		<g>
			<path d="M399.527,131.543c-2.829,2.012-5.02,6.826-4.784,10.269c0.031,0.448,0.65,0.441,0.692,0
				c0.306-3.264,1.698-7.597,4.458-9.643C400.261,131.896,399.91,131.27,399.527,131.543L399.527,131.543z"/>
		</g>
		<g>
			<path d="M401.44,133.715c-1.116,1.679-2.629,4.295-2.379,6.389c0.027,0.228,0.353,0.385,0.481,0.13
				c0.449-0.89,0.556-1.926,0.891-2.868c0.412-1.16,0.96-2.256,1.604-3.303C402.272,133.682,401.685,133.347,401.44,133.715
				L401.44,133.715z"/>
		</g>
		<g>
			<path d="M403.862,135.814c-0.475,0.504-0.885,1.064-1.19,1.688c-0.256,0.523-0.598,1.187-0.424,1.774
				c0.057,0.194,0.335,0.298,0.48,0.127c0.354-0.416,0.414-1.002,0.645-1.491c0.269-0.567,0.624-1.078,1.049-1.538
				C404.767,136.001,404.213,135.442,403.862,135.814L403.862,135.814z"/>
		</g>
		<g>
			<path d="M406.303,137.399c-0.262,0.614-0.645,1.256-0.722,1.921c-0.03,0.258,0.364,0.417,0.526,0.218
				c0.423-0.518,0.616-1.241,0.874-1.854C407.142,137.301,406.467,137.013,406.303,137.399L406.303,137.399z"/>
		</g>
		<g>
			<path d="M409.656,138.9c-0.033,0.334-0.07,0.668-0.09,1.003c-0.025,0.415,0.676,0.521,0.737,0.1
				c0.053-0.366,0.089-0.735,0.128-1.103C410.484,138.406,409.704,138.405,409.656,138.9L409.656,138.9z"/>
		</g>
		<g>
			<path d="M412.201,140.305c-0.043,0.241-0.054,0.436,0.012,0.672c0.048,0.173,0.312,0.278,0.439,0.116
				c0.146-0.187,0.229-0.355,0.28-0.586C413.039,140.027,412.286,139.829,412.201,140.305L412.201,140.305z"/>
		</g>
		<g>
			<path d="M414.874,142.256c0.574,0,0.575-0.892,0-0.892C414.3,141.365,414.299,142.256,414.874,142.256L414.874,142.256z"/>
		</g>
		<g>
			<path d="M417.382,144.263c0.574,0,0.575-0.892,0-0.892C416.808,143.371,416.807,144.263,417.382,144.263L417.382,144.263z"/>
		</g>
		<g>
			<path d="M442.295,156.533c-1.066,1.605-2.474,2.619-3.974,3.773c-0.219,0.168-0.109,0.609,0.209,0.495
				c1.852-0.667,3.333-2.289,4.385-3.906C443.167,156.507,442.549,156.151,442.295,156.533L442.295,156.533z"/>
		</g>
		<g>
			<path d="M443.333,160.794c-0.547,0.423-1.139,0.786-1.77,1.069c-0.575,0.258-1.244,0.354-1.773,0.697
				c-0.261,0.17-0.136,0.519,0.149,0.551c0.685,0.078,1.408-0.287,2.015-0.579c0.683-0.329,1.304-0.75,1.891-1.226
				C444.211,161.01,443.694,160.514,443.333,160.794L443.333,160.794z"/>
		</g>
		<g>
			<path d="M443.679,164.841c-1.074,0.028-2.294-0.094-3.334,0.2c-0.292,0.082-0.319,0.551,0,0.619
				c1.06,0.226,2.258,0.031,3.334-0.01C444.197,165.63,444.201,164.828,443.679,164.841L443.679,164.841z"/>
		</g>
		<g>
			<path d="M442.69,167.699c-0.549-0.367-1.28-0.749-1.954-0.616c-0.29,0.057-0.338,0.499-0.083,0.632
				c0.531,0.278,1.11,0.342,1.629,0.682C442.719,168.684,443.12,167.987,442.69,167.699L442.69,167.699z"/>
		</g>
		<g>
			<path d="M441.24,169.957c-0.367-0.137-0.711-0.307-1.106-0.317c-0.305-0.008-0.49,0.408-0.256,0.619
				c0.293,0.264,0.651,0.376,1.012,0.529C441.492,171.042,441.859,170.189,441.24,169.957L441.24,169.957z"/>
		</g>
		<g>
			<path d="M445.076,168.523c0-0.033,0-0.066,0-0.098c0-0.023-0.036-0.023-0.036,0c0,0.033,0,0.066,0,0.098
				C445.04,168.546,445.076,168.546,445.076,168.523L445.076,168.523z"/>
		</g>
		<g>
			<path d="M446.042,165.39c0.023,0,0.023-0.036,0-0.036S446.02,165.39,446.042,165.39L446.042,165.39z"/>
		</g>
		<g>
			<path d="M445.444,158.771c-0.194,0.238-0.338,0.405-0.425,0.697c-0.085,0.289,0.244,0.521,0.496,0.381
				c0.235-0.131,0.352-0.276,0.518-0.489C446.358,158.945,445.787,158.352,445.444,158.771L445.444,158.771z"/>
		</g>
		<g>
			<path d="M444.959,155.802c0.606,0,0.607-0.942,0-0.942C444.353,154.86,444.352,155.802,444.959,155.802L444.959,155.802z"/>
		</g>
		<g>
			<path d="M412.261,162.497c-0.695,0.546-1.467,0.963-2.316,1.217c-0.714,0.214-1.481,0.184-2.171,0.455
				c-0.25,0.098-0.254,0.417,0,0.514c1.613,0.617,3.826-0.65,5.042-1.632C413.209,162.732,412.651,162.19,412.261,162.497
				L412.261,162.497z"/>
		</g>
		<g>
			<path d="M411.375,166.442c-0.534,0.078-1.072,0.106-1.611,0.081c-0.441-0.021-0.775-0.125-1.182,0.054
				c-0.173,0.076-0.193,0.353-0.061,0.471c0.379,0.338,0.864,0.312,1.358,0.327c0.578,0.018,1.149-0.036,1.72-0.121
				C412.133,167.173,411.905,166.364,411.375,166.442L411.375,166.442z"/>
		</g>
		<g>
			<path d="M410.717,169.239c-0.241-0.12-0.446-0.224-0.711-0.27c-0.324-0.056-0.623,0.329-0.345,0.592
				c0.196,0.185,0.384,0.291,0.627,0.412C410.776,170.217,411.207,169.484,410.717,169.239L410.717,169.239z"/>
		</g>
	</g>
	<g>
		<g>
			<path d="M301.385,132.759c-1.313,3.199-2.572,6.474-3.495,9.809c-0.205,0.742,0.869,1.007,1.133,0.312
				c1.23-3.236,2.274-6.56,3.362-9.846C302.6,132.387,301.632,132.159,301.385,132.759L301.385,132.759z"/>
		</g>
		<g>
			<path d="M297.906,143.848c-3.425,11.651-7.32,24.6-19.074,30.533c-11.581,5.846-23.907,1.701-31.895-7.802
				c-0.474-0.564-1.476,0.194-1.031,0.795c7.309,9.864,19.496,13.713,31.101,9.382c13.524-5.047,19.026-19.709,21.898-32.632
				C299.051,143.474,298.095,143.204,297.906,143.848L297.906,143.848z"/>
		</g>
		<g>
			<path d="M245.142,164.601c-0.295-0.69-0.866-1.466-1.706-1.329c-0.192,0.031-0.284,0.262-0.244,0.431
				c0.124,0.53,0.609,0.878,0.808,1.38C244.331,165.915,245.501,165.441,245.142,164.601L245.142,164.601z"/>
		</g>
		<g>
			<path d="M241.045,159.516c-0.219-0.128-0.402-0.24-0.65-0.295c-0.31-0.069-0.568,0.19-0.5,0.5
				c0.055,0.249,0.167,0.431,0.295,0.65C240.708,161.262,241.941,160.039,241.045,159.516L241.045,159.516z"/>
		</g>
		<g>
			<path d="M281.129,160.773c-3.879,0.382-10.013-1.372-11.545-5.319c-0.287-0.74-1.443-0.464-1.218,0.336
				c1.394,4.932,8.459,6.572,12.879,5.842C281.727,161.553,281.62,160.724,281.129,160.773L281.129,160.773z"/>
		</g>
		<g>
			<path d="M269.545,155.57c-0.066-0.259,0.227-0.398,0.323-0.62c0.113-0.261,0.056-0.691-0.303-0.744
				c-0.895-0.131-1.347,0.891-1.057,1.65C268.751,156.49,269.719,156.254,269.545,155.57L269.545,155.57z"/>
		</g>
		<g>
			<path d="M275.788,166.17c-0.676,0.096-1.439,0.212-2.112,0.058c-0.642-0.148-1.021-0.603-1.583-0.89
				c-0.498-0.254-1.193,0.293-0.828,0.828c1.121,1.637,3.125,1.562,4.842,1.162C276.878,167.147,276.53,166.064,275.788,166.17
				L275.788,166.17z"/>
		</g>
		<g>
			<path d="M236.432,144.663c4.249-0.691,6.227,3.793,5.303,7.323c-0.742,2.837-2.707,4.203-5.457,4.78
				c-0.753,0.158-0.498,1.186,0.17,1.252c9.01,0.903,9.422-16.572-0.338-14.524C235.336,143.656,235.676,144.786,236.432,144.663
				L236.432,144.663z"/>
		</g>
		<g>
			<path d="M297.296,149.907c2.091,1.199,2.905,3.584,2.809,5.906c-0.134,3.243-2.14,4.026-4.725,5.091
				c0.219,0.167,0.438,0.333,0.657,0.5c-0.099,0.113-0.198,0.227-0.296,0.34c0.173-0.043,0.274-0.206,0.284-0.374
				c0.001-0.016,0.002-0.031,0.003-0.047c0.013-0.221-0.216-0.474-0.446-0.446c-0.021,0.003-0.042,0.005-0.064,0.008
				c-0.445,0.053-0.686,0.528-0.367,0.886c0.049,0.056,0.099,0.111,0.149,0.167c0.16,0.18,0.429,0.228,0.654,0.173
				c3.104-0.76,5.257-2.6,5.466-5.933c0.181-2.875-0.908-5.892-3.499-7.339C297.225,148.45,296.604,149.51,297.296,149.907
				L297.296,149.907z"/>
		</g>
		<g>
			<path d="M247.054,168.343c-0.148,5.312-0.968,9.883-5.14,13.472c-0.493,0.424,0.135,1.111,0.659,0.854
				c4.973-2.435,5.685-9.475,5.531-14.326C248.083,167.667,247.073,167.666,247.054,168.343L247.054,168.343z"/>
		</g>
		<g>
			<path d="M242.585,181.228c-6.861,3.425-14.687,0.645-21.544,3.518c-0.484,0.203-0.509,1.111,0.14,1.031
				c7.201-0.879,15.432,0.043,21.947-3.621C243.736,181.815,243.2,180.921,242.585,181.228L242.585,181.228z"/>
		</g>
		<g>
			<path d="M222.919,184.355c-4.582,1.23-9.251,5.045-11.893,8.946c-3.838,5.668-4.457,12.369-9.154,17.73
				c-0.497,0.567,0.241,1.269,0.813,0.813c3.389-2.7,5.037-6.65,6.537-10.613c2.634-6.96,6.656-13.059,13.999-15.78
				C223.897,185.201,223.639,184.161,222.919,184.355L222.919,184.355z"/>
		</g>
		<g>
			<path d="M265.896,178.163c0.138,1.117,0.159,2.382,0.725,3.38c0.512,0.901,1.584,2.164,2.646,2.32
				c0.546,0.08,1.001-0.518,0.566-0.972c-0.688-0.716-1.654-1.238-2.117-2.161c-0.396-0.791-0.461-1.861-0.653-2.725
				C266.92,177.365,265.813,177.491,265.896,178.163L265.896,178.163z"/>
		</g>
		<g>
			<path d="M268.725,183.516c8.577,5.1,20.1-0.226,29.177,4.218c10.286,5.037,12.821,14.5,19.849,22.542
				c0.456,0.521,1.394-0.182,0.972-0.75c-5.769-7.752-9.098-16.554-17.737-21.674c-3.551-2.105-6.82-3.197-10.947-3.487
				c-6.609-0.465-14.631,1.01-20.746-1.821C268.647,182.246,268.091,183.14,268.725,183.516L268.725,183.516z"/>
		</g>
		<g>
			<path d="M317.065,209.346c6.589,8.002,15.991,15.791,25.179,20.643c0.444,0.234,0.973-0.365,0.561-0.727
				c-3.866-3.386-8.408-6.034-12.473-9.19c-4.49-3.486-8.667-7.29-12.612-11.381C317.298,208.256,316.694,208.895,317.065,209.346
				L317.065,209.346z"/>
		</g>
		<g>
			<path d="M298.741,217.353c7.814,6.633,15.68,13.262,23.771,19.557c5.842,4.545,12.277,10.098,19.965,10.554
				c0.528,0.031,0.636-0.797,0.125-0.921c-9.029-2.183-16.305-8.388-23.387-14.113c-6.552-5.297-13.016-10.697-19.616-15.934
				C298.999,216.02,298.138,216.842,298.741,217.353L298.741,217.353z"/>
		</g>
		<g>
			<path d="M342.161,230.001c0.41,0.579,0.971,0.89,1.676,0.987c0.608,0.083,1.538,0.038,1.843-0.585
				c0.132-0.269,0.049-0.73-0.318-0.781c-0.469-0.064-0.813,0.187-1.277,0.193c-0.469,0.006-0.898-0.206-1.283-0.455
				C342.422,229.114,341.888,229.615,342.161,230.001L342.161,230.001z"/>
		</g>
		<g>
			<path d="M345.916,230.346c5.648-5.112,12.257-8.146,18.784-11.911c5.884-3.394,10.632-7.776,15.152-12.822
				c0.566-0.632-0.342-1.557-0.937-0.937c-5.606,5.836-11.205,10.599-18.368,14.458c-5.524,2.976-11.083,5.799-15.48,10.363
				C344.528,230.057,345.345,230.863,345.916,230.346L345.916,230.346z"/>
		</g>
		<g>
			<path d="M392.334,208.918c-1.637,0.95-3.291,1.867-4.936,2.804c-1.216,0.692-2.733,1.363-3.496,2.569
				c-0.149,0.236,0.099,0.562,0.367,0.477c1.384-0.438,2.642-1.589,3.881-2.35c1.528-0.939,3.059-1.871,4.587-2.81
				C393.175,209.34,392.781,208.659,392.334,208.918L392.334,208.918z"/>
		</g>
		<g>
			<path d="M384.853,213.388c-6.615,4.761-11.957,11.658-17.96,17.185c-7.003,6.448-16.69,17.762-27.205,14.892
				c-0.866-0.236-1.216,1.065-0.369,1.338c8.449,2.721,15.208-3.483,21.214-8.62c8.78-7.51,16.052-16.749,24.843-24.119
				C385.747,213.754,385.252,213.101,384.853,213.388L384.853,213.388z"/>
		</g>
		<g>
			<path d="M379.68,205.532c0.695-0.712,1.464-1.314,2.344-1.783c0.826-0.441,1.725-0.648,2.568-1.031
				c0.531-0.241,0.259-1.108-0.293-1.083c-2.054,0.09-4.097,1.629-5.423,3.093C378.386,205.268,379.165,206.059,379.68,205.532
				L379.68,205.532z"/>
		</g>
		<g>
			<path d="M385.099,202.821c2.89-0.292,5.607-0.261,8.455,0.382c2.087,0.471,4.105,1.285,6.25,1.394
				c0.464,0.024,0.656-0.673,0.24-0.885c-4.409-2.254-10.269-2.981-15.1-2.045C384.301,201.791,384.437,202.888,385.099,202.821
				L385.099,202.821z"/>
		</g>
		<g>
			<path d="M393.177,209.743c1.804,0.19,3.63,0.285,5.419,0.604c1.387,0.247,2.708,0.695,4.129,0.661c0.836-0.02,0.837-1.328,0-1.3
				c-1.558,0.053-3.108-0.484-4.657-0.674c-1.624-0.199-3.256-0.261-4.891-0.254C392.545,208.783,392.574,209.679,393.177,209.743
				L393.177,209.743z"/>
		</g>
		<g>
			<path d="M403.343,210.951c2.403-0.608,4.379-3.48,5.982-5.254c1.996-2.21,3.999-4.577,5.542-7.132
				c0.343-0.568-0.502-1.265-0.942-0.727c-1.684,2.059-3.224,4.225-4.957,6.249c-1.707,1.995-3.665,4.728-5.995,5.984
				C402.484,210.334,402.822,211.083,403.343,210.951L403.343,210.951z"/>
		</g>
		<g>
			<path d="M414.642,198.72c1.574-1.881-1.022-2.813-2.627-2.556c-4.104,0.658-7.367,5.179-10.51,7.511
				c-0.332,0.247-0.246,0.809,0.221,0.815c1.786,0.023,3.06-1.715,4.335-2.821c0.98-0.85,1.943-1.724,2.969-2.52
				c0.621-0.482,1.195-0.904,1.912-1.236c0.071-0.033,3.772-1.118,2.935,0.215C413.588,198.589,414.282,199.151,414.642,198.72
				L414.642,198.72z"/>
		</g>
		<g>
			<path d="M401.249,203.437c-0.3,0.017-0.478,0.061-0.748,0.188c-0.331,0.156-0.331,0.719,0,0.874
				c0.27,0.127,0.448,0.171,0.748,0.188C402.053,204.732,402.054,203.393,401.249,203.437L401.249,203.437z"/>
		</g>
		<g>
			<path d="M385.01,202.309c4.052-1.722,7.745-1.819,12.041-1.727c0.346,0.007,0.575-0.475,0.296-0.715
				c-1.507-1.296-4.011-0.944-5.861-0.737c-2.511,0.282-4.818,1.037-7.056,2.186C383.756,201.662,384.349,202.591,385.01,202.309
				L385.01,202.309z"/>
		</g>
		<g>
			<path d="M397.113,200.676c1.346-0.011,2.692,0.01,4.036,0.085c1.188,0.066,2.419,0.343,3.585,0.087
				c0.391-0.086,0.52-0.744,0.119-0.914c-1.081-0.46-2.25-0.4-3.416-0.437c-1.442-0.046-2.883-0.034-4.325,0.017
				C396.368,199.54,396.362,200.682,397.113,200.676L397.113,200.676z"/>
		</g>
		<g>
			<path d="M414.784,198.339c0.818-0.708,1.654-1.45,2.616-1.961c1.236-0.656,2.299-0.545,3.63-0.298
				c0.471,0.087,0.999-0.537,0.529-0.909c-2.54-2.01-5.727,0.683-7.455,2.487C413.67,198.11,414.32,198.741,414.784,198.339
				L414.784,198.339z"/>
		</g>
		<g>
			<path d="M420.395,195.583c-0.057,1.065-1.29,2.188-1.876,3.008c-0.596,0.834-1.177,1.679-1.766,2.519
				c-1.257,1.793-2.59,3.558-3.699,5.446c-0.32,0.545,0.481,1.217,0.903,0.697c1.597-1.969,2.966-4.132,4.401-6.22
				c1.03-1.499,3.138-3.528,2.975-5.45C421.282,194.986,420.427,194.974,420.395,195.583L420.395,195.583z"/>
		</g>
		<g>
			<path d="M413.488,206.41c-0.947,0.788-1.841,1.106-3.079,1.03c-1.149-0.07-2.265-0.577-3.397-0.274
				c-0.362,0.097-0.431,0.613-0.104,0.8c1.862,1.062,6.183,1.375,7.288-1.011C414.412,206.486,413.889,206.076,413.488,206.41
				L413.488,206.41z"/>
		</g>
		<g>
			<path d="M203.797,209.467c-8.91,9.027-18.056,18.202-26.566,27.583c-0.346,0.382,0.12,1.096,0.583,0.756
				c10.017-7.353,18.608-18.277,26.593-27.729C204.76,209.659,204.193,209.066,203.797,209.467L203.797,209.467z"/>
		</g>
		<g>
			<path d="M181.873,232.67c0.034,0,0.034-0.053,0-0.053C181.839,232.616,181.839,232.67,181.873,232.67L181.873,232.67z"/>
		</g>
		<g>
			<path d="M177.346,237.052c-13.203,4.984-24.584,13.18-37.428,18.674c-0.533,0.228-0.14,1.022,0.381,0.903
				c6.047-1.389,11.303-5.902,16.666-8.882c6.702-3.723,13.656-6.924,20.714-9.906C178.123,237.652,177.803,236.879,177.346,237.052
				L177.346,237.052z"/>
		</g>
		<g>
			<path d="M224.737,209.767c-8.423,12.318-18.28,22.108-28.708,32.605c-0.392,0.394,0.131,1.137,0.613,0.795
				c11.677-8.289,21.488-20.79,28.882-32.94C225.833,209.721,225.065,209.288,224.737,209.767L224.737,209.767z"/>
		</g>
		<g>
			<path d="M197.895,240.654c-0.865,0.827-1.757,1.626-2.69,2.376c-0.91,0.732-2.042,1.335-2.791,2.236
				c-0.243,0.292-0.024,0.872,0.414,0.71c1.064-0.393,1.935-1.246,2.785-1.978c1.007-0.867,1.968-1.781,2.893-2.734
				C198.892,240.864,198.297,240.27,197.895,240.654L197.895,240.654z"/>
		</g>
		<g>
			<path d="M194.39,243.68c-15.179,11.045-34.619,15.058-52.02,21.331c-0.792,0.286-0.485,1.494,0.352,1.278
				c10.339-2.666,20.45-6.596,30.392-10.458c7.694-2.989,15.513-5.965,21.783-11.493C195.249,244.027,194.778,243.398,194.39,243.68
				L194.39,243.68z"/>
		</g>
		<g>
			<path d="M224.045,210.974c1.865,7.855,5.441,13.397,10.008,19.978c5.574,8.032,11.691,22.708,7.386,32.385
				c-0.266,0.597,0.54,1.107,0.896,0.524c4.262-6.984,0.563-18.262-2.329-25.137c-1.937-4.604-4.752-8.462-7.637-12.492
				c-3.49-4.876-5.569-9.815-7.264-15.551C224.905,210.002,223.881,210.285,224.045,210.974L224.045,210.974z"/>
		</g>
		<g>
			<path d="M289.34,199.355c8.815,10.442,9.645,22.571,3.459,34.63c-0.321,0.627,0.546,1.127,0.939,0.549
				c7.601-11.173,5.67-26.402-3.771-35.807C289.557,198.318,288.976,198.925,289.34,199.355L289.34,199.355z"/>
		</g>
		<g>
			<path d="M293.854,233.044c-5.259,9.055-7.559,20.2-5.706,30.563c0.107,0.601,1.106,0.466,1.068-0.145
				c-0.672-10.811,0.742-20.141,5.383-29.983C294.832,232.984,294.137,232.556,293.854,233.044L293.854,233.044z"/>
		</g>
		<g>
			<path d="M296.473,210.47c-0.996-1.99-2.059-3.976-3.575-5.626c-1.072-1.167-2.774-2.834-4.463-2.754
				c-0.326,0.016-0.509,0.408-0.27,0.651c0.531,0.54,1.184,0.776,1.816,1.191c0.83,0.545,1.566,1.234,2.221,1.978
				c1.349,1.532,2.37,3.316,3.429,5.052C295.96,211.502,296.753,211.028,296.473,210.47L296.473,210.47z"/>
		</g>
		<g>
			<path d="M289.06,202.011c-5.621-1.112-12.467,5.28-15.992,9.028c-0.402,0.427,0.148,1.245,0.659,0.854
				c3.946-3.017,9.518-9.821,15.094-9.014C289.379,202.96,289.639,202.125,289.06,202.011L289.06,202.011z"/>
		</g>
		<g>
			<path d="M273.641,210.99c-6.003-4.707-13.497-9.514-21.482-8.688c-0.648,0.067-0.67,0.987,0,1.025
				c8.231,0.471,14.262,3.819,20.845,8.488C273.486,212.156,274.111,211.359,273.641,210.99L273.641,210.99z"/>
		</g>
		<g>
			<path d="M253.067,202.456c-10.442,1.266-18.342,15.253-20.217,24.476c-0.118,0.581,0.708,0.816,0.892,0.246
				c2.967-9.175,9.337-21.09,19.441-23.862C253.641,203.19,253.57,202.395,253.067,202.456L253.067,202.456z"/>
		</g>
		<g>
			<path d="M297.621,220.775c-0.489-4.984-3.661-8.658-8.048-10.864c-0.432-0.217-0.984,0.378-0.553,0.717
				c1.611,1.267,3.397,2.307,4.767,3.858c1.592,1.801,2.564,4.056,3.023,6.399C296.899,221.335,297.667,221.24,297.621,220.775
				L297.621,220.775z"/>
		</g>
		<g>
			<path d="M288.285,209.867c-0.434-0.066-0.872-0.086-1.173,0.276c-0.162,0.195-0.047,0.439,0.195,0.469
				c0.294,0.037,0.583-0.046,0.88-0.021C288.596,210.625,288.698,209.929,288.285,209.867L288.285,209.867z"/>
		</g>
		<g>
			<path d="M286.314,210.181c-2.615,1.067-4.948,2.52-7.015,4.451c-1.862,1.74-4.217,4.219-4.818,6.763
				c-0.089,0.376,0.405,0.73,0.689,0.401c1.692-1.95,2.764-4.292,4.64-6.155c1.975-1.962,4.315-3.516,6.812-4.73
				C287.023,210.717,286.736,210.009,286.314,210.181L286.314,210.181z"/>
		</g>
		<g>
			<path d="M273.967,220.802c-5.388-5.061-13.378-10.032-21.036-9.981c-0.452,0.003-0.524,0.638-0.105,0.773
				c3.694,1.193,7.366,1.785,10.921,3.486c3.484,1.667,6.613,3.881,9.468,6.474C273.72,222.011,274.468,221.272,273.967,220.802
				L273.967,220.802z"/>
		</g>
		<g>
			<path d="M251.071,211.35c-0.353,0.087-0.624,0.162-0.92,0.376c-0.232,0.168-0.15,0.515,0.145,0.536
				c0.366,0.025,0.638-0.053,0.981-0.165C251.75,211.943,251.558,211.23,251.071,211.35L251.071,211.35z"/>
		</g>
		<g>
			<path d="M248.054,213.204c-6.238,4.182-10.479,10.411-12.403,17.646c-0.217,0.817,1.042,1.164,1.266,0.349
				c1.925-7.004,6.008-12.795,11.705-17.259C249.039,213.614,248.494,212.909,248.054,213.204L248.054,213.204z"/>
		</g>
		<g>
			<path d="M139.14,256.073c-0.312,0.156-0.617,0.244-0.963,0.29c-0.271,0.036-0.417,0.057-0.594,0.282
				c-0.128,0.163-0.147,0.359,0,0.522c0.504,0.558,1.509,0.045,2.042-0.262C140.167,256.593,139.69,255.798,139.14,256.073
				L139.14,256.073z"/>
		</g>
		<g>
			<path d="M138.03,256.288c-9.056,0.694-19.096-2.161-27.579-5.095c-0.274-0.095-0.455,0.335-0.198,0.468
				c7.783,4.048,18.975,6.343,27.777,5.639C138.674,257.249,138.681,256.238,138.03,256.288L138.03,256.288z"/>
		</g>
		<g>
			<path d="M110.377,251.152c-3.384,0.063-1.044,3.811,0.45,4.911c2.336,1.72,5.368,2.497,8.078,3.381
				c3.793,1.237,7.34,2.911,11.046,4.341c0.312,0.121,0.578-0.351,0.328-0.564c-2.385-2.034-5.459-2.98-8.419-3.887
				c-1.799-0.551-3.604-1.073-5.391-1.664c-0.992-0.328-1.982-0.642-2.932-1.083c-0.649-0.213-1.236-0.539-1.759-0.978
				c-1.288-0.608-1.756-1.756-1.403-3.445C111.026,252.196,111.032,251.14,110.377,251.152L110.377,251.152z"/>
		</g>
		<g>
			<path d="M130.334,264.455c0.607,0.245-0.404,1.072,0.257,1.442c0.158,0.088,0.381,0.107,0.538,0
				c1.032-0.706,0.562-2.122-0.509-2.479C129.951,263.195,129.709,264.203,130.334,264.455L130.334,264.455z"/>
		</g>
		<g>
			<path d="M130.535,265.088c-2.58,1.738-6.805,6.091-5.664,9.514c0.128,0.385,0.676,0.311,0.7-0.095
				c0.212-3.589,3.165-6.314,5.495-8.732C131.398,265.43,130.961,264.801,130.535,265.088L130.535,265.088z"/>
		</g>
		<g>
			<path d="M124.621,275.618c0.277,0.858,0.864,1.514,1.727,1.813c0.769,0.267,2.065,0.258,2.525-0.521
				c0.18-0.305-0.053-0.662-0.389-0.677c-0.617-0.028-1.083,0.332-1.738,0.143c-0.565-0.162-1.007-0.607-1.279-1.115
				C125.221,274.803,124.459,275.116,124.621,275.618L124.621,275.618z"/>
		</g>
		<g>
			<path d="M129.757,275.979c0.794-1.411,1.684-2.885,2.821-4.045c1.476-1.506,3.071-1.748,4.969-2.367
				c0.42-0.137,0.506-0.849,0-0.94c-4.164-0.748-7.09,3.728-8.513,6.93C128.82,276.037,129.487,276.46,129.757,275.979
				L129.757,275.979z"/>
		</g>
		<g>
			<path d="M137.565,269.581c1.144-0.427,1.996-1.163,2.867-1.999c0.817-0.784,2.343-1.857,2.536-3.01
				c0.05-0.299-0.18-0.6-0.507-0.508c-1.019,0.287-1.745,1.509-2.47,2.246c-0.862,0.875-1.739,1.731-2.826,2.323
				C136.66,268.907,137.005,269.79,137.565,269.581L137.565,269.581z"/>
		</g>
		<g>
			<path d="M116.994,258.512c-4.651,0.88-9.37,0.885-14.017,1.578c-0.48,0.072-0.291,0.723,0.105,0.774
				c4.61,0.588,9.659-0.503,14.118-1.604C117.689,259.138,117.479,258.42,116.994,258.512L116.994,258.512z"/>
		</g>
		<g>
			<path d="M102.667,260.217c-2.09,0.468-0.101,2.307,0.771,2.852c5.994,3.744,15.004-0.653,21.405,0.76
				c0.69,0.152,0.984-0.904,0.293-1.061c-3.305-0.747-6.618-0.217-9.949,0.127c-1.539,0.159-3.125,0.376-4.674,0.421
				c-1.422,0.033-2.838-0.06-4.248-0.28c-1.423-0.118-2.553-0.805-3.388-2.059C103.351,260.808,103.166,260.105,102.667,260.217
				L102.667,260.217z"/>
		</g>
		<g>
			<path d="M117.042,263.026c-1.841,0.292-3.179,1.562-4.756,2.466c-1.957,1.123-4.05,1.779-6.115,2.645
				c-0.355,0.149-0.371,0.792,0.101,0.749c1.748-0.161,3.438-0.797,5.017-1.548c2.016-0.959,3.831-2.891,6.038-3.275
				C118.011,263.943,117.717,262.918,117.042,263.026L117.042,263.026z"/>
		</g>
		<g>
			<path d="M106.255,267.971c-0.878,0.444-0.885,0.434-1.225,1.329c-0.067,0.176,0.015,0.387,0.136,0.515
				c1.473,1.563,4.961,0.888,6.827,0.428c3.721-0.917,6.569-3.68,10.112-5.041c0.603-0.232,0.372-1.071-0.266-0.964
				c-2.287,0.382-4.023,1.757-5.957,2.953c-1.323,0.819-2.699,1.482-4.211,1.883c-1.003,0.279-2.028,0.438-3.073,0.474
				c-0.785,0.223-1.392-0.004-1.819-0.682C107.372,268.557,106.849,267.671,106.255,267.971L106.255,267.971z"/>
		</g>
		<g>
			<path d="M114.156,269.631c2.287,0.369,4.548,0.402,6.826-0.08c2.807-0.594,5.313-2,8.222-2.148c0.882-0.045,0.884-1.427,0-1.375
				c-2.179,0.128-4.1,0.844-6.149,1.547c-2.89,0.991-5.721,1.256-8.745,0.914C113.665,268.416,113.509,269.526,114.156,269.631
				L114.156,269.631z"/>
		</g>
		<g>
			<path d="M271.353,291.978c-3.506-7.438-10.437-13.976-16.805-18.982c-5.314-4.178-11.719-10.251-18.907-9.796
				c-0.631,0.04-0.641,0.968,0,0.988c7.713,0.232,15.977,7.626,21.526,12.454c5.002,4.353,10.303,9.939,13.409,15.79
				C270.85,292.95,271.596,292.496,271.353,291.978L271.353,291.978z"/>
		</g>
		<g>
			<path d="M236.03,263.216c-2.323-0.117-3.67,2.084-3.951,4.153c-0.357,2.634,0.863,5.023,2.702,6.831
				c0.482,0.474,1.226-0.268,0.743-0.742c-1.288-1.265-2.291-2.814-2.441-4.662c-0.157-1.931,0.666-4.486,2.947-4.729
				C236.566,264.009,236.587,263.243,236.03,263.216L236.03,263.216z"/>
		</g>
		<g>
			<path d="M271.802,292.77c7.165-4.993,14.381-12.119,19.025-19.564c2.504-4.015,6.509-12.536,0.99-15.69
				c-0.465-0.266-0.964,0.362-0.576,0.746c9.193,9.116-12.977,28.654-19.912,33.699C270.849,292.31,271.303,293.118,271.802,292.77
				L271.802,292.77z"/>
		</g>
		<g>
			<path d="M291.922,257.983c-0.693-0.261-1.531-0.05-2.108,0.384c-0.468,0.352-1.1,1.101-0.595,1.666
				c0.07,0.079,0.193,0.104,0.292,0.077c0.436-0.12,0.555-0.579,0.875-0.851c0.42-0.356,0.884-0.413,1.414-0.367
				C292.354,258.939,292.376,258.154,291.922,257.983L291.922,257.983z"/>
		</g>
		<g>
			<path d="M288.43,263.603c-1.319,5.214-5.578,10.175-8.343,14.728c-2.902,4.777-6.174,8.921-9.581,13.321
				c-0.325,0.42,0.174,0.952,0.592,0.592c4.604-3.96,7.511-9.06,10.633-14.192c2.626-4.317,6.938-9.187,7.583-14.329
				C289.378,263.214,288.553,263.12,288.43,263.603L288.43,263.603z"/>
		</g>
		<g>
			<path d="M271.137,291.727c-9.647-8.823-21.391-17.567-34.696-19.342c-0.454-0.061-0.511,0.648-0.105,0.773
				c13.229,4.075,23.475,10.454,34.005,19.364C270.887,292.985,271.677,292.222,271.137,291.727L271.137,291.727z"/>
		</g>
		<g>
			<path d="M235.952,272.928c-0.045,0.139-0.122,0.257-0.232,0.355c-0.168,0.177-0.18,0.407-0.08,0.619
				c0.018,0.038,0.051,0.073,0.08,0.103c0.176,0.184,0.551,0.212,0.722,0c0.222-0.274,0.319-0.494,0.348-0.85
				C236.826,272.723,236.134,272.524,235.952,272.928L235.952,272.928z"/>
		</g>
		<g>
			<path d="M235.932,272.999c-9.635,11.588-13.695,26.35-13.236,41.289c0.286,9.307,2.213,18.506,5.002,27.366
				c2.75,8.737,7.471,17.213,8.678,26.348c2.659,20.118-12.014,38.746-28.416,48.54c-7.844,4.684-16.524,7.764-25.422,9.735
				c-8.816,1.952-17.726,1.892-26.566,3.286c-0.713,0.112-0.452,1.102,0.158,1.166c16.319,1.722,35.844-3.314,50.122-11.059
				c13.836-7.506,25.944-20.057,30.492-35.39c5.302-17.874-4.967-32.897-9.339-49.745c-5.355-20.638-4.559-43.543,9.278-60.785
				C237.105,273.224,236.373,272.469,235.932,272.999L235.932,272.999z"/>
		</g>
		<g>
			<path d="M154.671,429.665c-4.481-0.035-11.306,2.114-12.519,7.139c-1.267,5.247,4.62,8.056,8.64,9.284
				c0.788,0.241,1.087-0.941,0.336-1.217c-3.636-1.34-10.207-4.185-6.935-9.286c2.126-3.315,6.759-4.851,10.478-5.033
				C155.238,430.525,155.245,429.67,154.671,429.665L154.671,429.665z"/>
		</g>
		<g>
			<path d="M290.193,272.519c9.555,20.591,15.895,42.211,14.805,65.141c-1.001,21.052-9.005,41.389-21.435,58.292
				c-15.9,21.622-39.555,37.218-65.134,44.897c-20.768,6.234-42.338,6.898-63.758,4.422c-0.915-0.106-1.14,1.493-0.219,1.621
				c35.462,4.907,72.235-1.694,101.9-22.311c26.47-18.397,45.838-47.174,49.691-79.54c2.956-24.83-3.043-51.165-15.126-72.944
				C290.65,271.617,289.97,272.038,290.193,272.519L290.193,272.519z"/>
		</g>
		<g>
			<path d="M152.42,446.287c-0.003,0.002-0.007,0.004-0.011,0.007c0.711,0.156,1.004-0.957,0.299-1.084
				c-0.214-0.039-0.37-0.041-0.584,0.004C151.417,445.363,151.725,446.406,152.42,446.287L152.42,446.287z"/>
		</g>
		<g>
			<path d="M167.158,428.767c-16.824-8.088-20.906-27.676-32.451-40.813c-9.923-11.291-29.431-18.819-44.188-13.926
				c-0.428,0.142-0.39,0.885,0.113,0.835c20.65-2.041,38.215,4.753,49.368,22.845c7.375,11.964,13.105,25.755,26.608,31.999
				C167.238,429.997,167.793,429.072,167.158,428.767L167.158,428.767z"/>
		</g>
		<g>
			<path d="M91.44,373.774c-4.783,0.744-4.096,8.107-2.494,11.31c2.912,5.822,10.883,4.945,15.646,8.212
				c0.634,0.435,1.219-0.59,0.599-1.026c-2.854-2.005-6.111-2.419-9.352-3.504c-2.334-0.782-4.66-1.903-5.859-4.2
				c-1.233-2.364-2.255-9.152,1.722-9.84C92.331,374.617,92.059,373.678,91.44,373.774L91.44,373.774z"/>
		</g>
		<g>
			<path d="M104.415,393.015c1.795,4.052-5.283,7.925-2.347,12.323c2.39,3.58,7.68,1.132,11.018,1.699
				c0.78,0.132,1.129-1.037,0.332-1.205c-3.464-0.733-13.491,2.411-10.102-5.354c1.112-2.547,3.588-5.092,1.918-7.942
				C104.919,391.995,104.173,392.468,104.415,393.015L104.415,393.015z"/>
		</g>
		<g>
			<path d="M112.722,406.97c4.339,2.473-2.891,6.835,0.935,9.484c0.464,0.321,1.069-0.31,0.77-0.77
				c-0.633-0.973-0.794-1.582-0.233-2.692c0.21-0.415,0.521-0.774,0.727-1.195c0.362-0.739,0.576-1.539,0.543-2.368
				c-0.059-1.492-0.928-2.663-2.275-3.257C112.658,405.937,112.192,406.668,112.722,406.97L112.722,406.97z"/>
		</g>
		<g>
			<path d="M112.939,415.603c0.284,0.863,0.731,1.311,1.597,1.618c0.938,0.332,3.292,0.203,2.971,1.74
				c-0.131,0.626,0.701,1.018,1.051,0.443c0.574-0.942-0.009-2.084-0.891-2.606c-1.081-0.64-3.375-0.216-3.997-1.503
				C113.473,414.888,112.797,415.173,112.939,415.603L112.939,415.603z"/>
		</g>
		<g>
			<path d="M117.792,419.015c0.016,0.92,0.623,1.556,1.514,1.762c0.502,0.117,1.017,0.042,1.52-0.017
				c0.306-0.036,1.433-0.268,1.717,0.095c-0.026,0.293-0.052,0.586-0.078,0.879c-0.263,0.138-0.541,0.208-0.834,0.208
				c-1.228,0.166-2.31,0.162-3.16,1.201c-0.639,0.781-0.917,1.809-0.448,2.724c0.191,0.372,0.846,0.305,0.925-0.121
				c0.159-0.848,0.181-1.62,0.994-2.124c0.722-0.447,1.571-0.245,2.368-0.43c0.914-0.213,1.817-0.854,1.869-1.866
				c0.045-0.875-0.625-1.557-1.414-1.824c-1.135-0.385-3.622,0.795-4.163-0.598C118.444,418.497,117.783,418.517,117.792,419.015
				L117.792,419.015z"/>
		</g>
		<g>
			<path d="M118.138,425.142c-0.432,1.677-0.182,3.39,0.89,4.789c0.528,0.69,1.178,1.133,1.899,1.6
				c1.321,0.857,1.565,1.758,2.256,3.033c0.154,0.284,0.543,0.184,0.64-0.084c0.44-1.209-0.397-2.409-1.303-3.178
				c-0.739-0.627-1.677-0.989-2.37-1.677c-1.127-1.119-1.493-2.735-1.215-4.265C119.027,424.847,118.273,424.62,118.138,425.142
				L118.138,425.142z"/>
		</g>
		<g>
			<path d="M122.855,433.781c0.38,1.834-3.937,0.042-4.592,0.091c-0.704,0.053-1.491,0.475-1.258,1.27
				c0.057,0.195,0.236,0.267,0.423,0.24c0.522-0.074,0.687-0.361,1.325-0.276c0.351,0.047,0.69,0.259,1.025,0.36
				c0.728,0.22,1.548,0.341,2.303,0.22c1.088-0.174,1.999-0.961,1.594-2.131C123.496,433.038,122.744,433.243,122.855,433.781
				L122.855,433.781z"/>
		</g>
		<g>
			<path d="M117.572,433.966c-0.731,0.972-0.759,1.69-1.014,2.822c-0.711,3.148-0.893,6.095-5.587,5.204
				c-1.367-0.259-2.747-1.205-3.863-1.982c-3.269-2.274-6.18-4.319-10.31-3.405c-0.51,0.113-0.348,0.819,0.116,0.859
				c3.008,0.259,5.267,0.75,7.832,2.393c1.149,0.736,2.136,1.68,3.354,2.328c1.572,0.836,3.329,1.462,5.137,1.198
				c1.537-0.225,3.047-1.032,3.892-2.365c1.3-2.05-0.171-4.546,1.166-6.63C118.593,433.924,117.888,433.546,117.572,433.966
				L117.572,433.966z"/>
		</g>
		<g>
			<path d="M97.861,436.872c-1.562-0.385-2.908,0.105-4.118,1.112c-0.616,0.513-1.258,1.125-1.697,1.801
				c-0.334,0.515-0.426,2.42-0.901,2.609c-0.769,0.307-0.454,1.56,0.349,1.266c1.505-0.552,0.994-1.778,1.488-3.001
				c0.684-1.692,2.819-3.31,4.67-3.028C98.139,437.706,98.365,436.997,97.861,436.872L97.861,436.872z"/>
		</g>
		<g>
			<path d="M91.481,442.566c-0.666-0.009-1.446-0.889-2.126-1.076c-0.591-0.162-1.229-0.153-1.79,0.109
				c-0.948,0.444-1.917,1.861-1.628,2.926c0.095,0.349,0.51,0.422,0.763,0.201c0.935-0.814,0.711-2.647,2.547-2.015
				c0.877,0.302,1.511,1.286,2.487,0.786C92.189,443.264,91.956,442.573,91.481,442.566L91.481,442.566z"/>
		</g>
		<g>
			<path d="M86.176,443.906c-3.028,8.004-9.19-5.417-13.638-3.315c-0.473,0.223-0.175,0.84,0.24,0.885
				c4.365,0.476,5.99,5.901,10.344,6.539c2.628,0.385,3.867-1.598,3.963-3.986C87.106,443.476,86.35,443.446,86.176,443.906
				L86.176,443.906z"/>
		</g>
		<g>
			<path d="M72.792,441.064c0.034,0,0.034-0.053,0-0.053C72.758,441.01,72.758,441.064,72.792,441.064L72.792,441.064z"/>
		</g>
		<g>
			<path d="M73.117,440.433c-7.035,0.628-1.593,9.841,0.895,12.514c7.403,7.954,18.022,12.529,28.595,14.296
				c10.912,1.823,22.272,1.127,32.478-3.315c13.166-5.731,23.793-14.18,38.571-15.541c0.891-0.082,0.91-1.343,0-1.4
				c-18.266-1.15-32.104,15.349-49.349,18.65c-9.766,1.869-20.441,1.096-29.881-1.939c-4.258-1.369-8.344-3.253-12.091-5.699
				c-1.628-1.063-17.78-15.356-9.216-16.253C73.945,441.659,73.964,440.358,73.117,440.433L73.117,440.433z"/>
		</g>
		<g>
			<path d="M258.562,105.058c8.162-11.887,29.281-12.57,37.072,0.33c5.789,9.584,4.327,21.836,9.509,31.518
				c3.812,7.12,12.317,9.079,19.701,7.159c6.167-1.604,14.508-6.276,12.567-13.794c-0.128-0.496-0.828-0.362-0.859,0.116
				c-0.629,9.597-12.572,14.489-21.085,12.457c-8.031-1.917-9.97-8.455-11.606-15.461c-1.876-8.032-2.925-17.554-8.006-24.383
				c-8.809-11.84-30.855-11.648-38.253,1.496C257.246,105.128,258.161,105.642,258.562,105.058L258.562,105.058z"/>
		</g>
		<g>
			<path d="M336.424,134.91c2.737-5.578,2.838-12.33-1.443-17.217c-3.011-3.437-10.755-6.397-14.234-2.005
				c-0.234,0.295-0.031,0.892,0.42,0.721c5.169-1.965,10.467-1.618,13.767,3.457c2.92,4.489,2.419,9.882,0.668,14.698
				C335.428,135.04,336.199,135.368,336.424,134.91L336.424,134.91z"/>
		</g>
		<g>
			<path d="M321.397,116.58c2.456-0.192,5.179-0.147,7.315,1.247c2.594,1.693,2.958,4.12,3.204,6.961
				c0.03,0.352,0.581,0.614,0.757,0.205c1.134-2.637-0.205-5.858-2.326-7.622c-2.521-2.097-5.99-2.189-9.081-1.761
				C320.719,115.686,320.844,116.623,321.397,116.58L321.397,116.58z"/>
		</g>
		<g>
			<path d="M330.207,118.714c1.831,2.447,0.568,6.674-2.115,7.906c-3.006,1.38-5.698,0.62-8.325-1.114
				c-0.384-0.253-0.905,0.256-0.641,0.641c2.27,3.319,7.703,3.429,10.739,1.027c2.493-1.972,3.298-6.59,1-8.969
				C330.544,117.874,329.916,118.325,330.207,118.714L330.207,118.714z"/>
		</g>
		<g>
			<path d="M263.946,104.707c4.566-4.613,10.287-4.844,16.344-5.608c0.493-0.062,0.519-0.756,0-0.788
				c-6.097-0.378-12.664,1.25-16.945,5.794C262.97,104.504,263.559,105.097,263.946,104.707L263.946,104.707z"/>
		</g>
		<g>
			<path d="M282.719,99.496c0.374,0.063,0.697,0.135,1.073,0.082c0.331-0.047,0.335-0.526,0.088-0.674
				c-0.287-0.173-0.591-0.224-0.915-0.3C282.379,98.465,282.141,99.398,282.719,99.496L282.719,99.496z"/>
		</g>
		<g>
			<path d="M274.522,104.251c4.02-1.141,7.725-0.941,11.823-0.808c0.409,0.013,0.474-0.587,0.095-0.7
				c-3.893-1.16-8.334-0.5-12.157,0.64C273.729,103.548,273.963,104.409,274.522,104.251L274.522,104.251z"/>
		</g>
		<g>
			<path d="M285.651,105.612c0.612-0.037,1.226-0.032,1.834,0.059c0.528,0.078,1.047,0.258,1.584,0.225
				c0.299-0.019,0.557-0.434,0.274-0.661c-0.952-0.767-2.526-0.755-3.692-0.684C284.971,104.591,284.966,105.654,285.651,105.612
				L285.651,105.612z"/>
		</g>
		<g>
			<path d="M292.298,107.559c0.635,0,0.637-0.988,0-0.988C291.663,106.571,291.662,107.559,292.298,107.559L292.298,107.559z"/>
		</g>
		<g>
			<path d="M242.14,125.499c-1.078,2.066-2.166,4.171-2.382,6.526c-0.051,0.555,0.896,0.691,0.982,0.133
				c0.345-2.226,1.169-4.206,2.134-6.23C243.107,125.44,242.396,125.009,242.14,125.499L242.14,125.499z"/>
		</g>
		<g>
			<path d="M240.714,131.953c0.446-1.61-0.692-3.228-1.884-4.218c-0.914-0.759-2.971-2.01-4.128-1.24
				c-0.206,0.137-0.296,0.464-0.083,0.648c0.346,0.3,0.624,0.329,1.065,0.425c0.621,0.136,1.203,0.363,1.751,0.687
				c1.053,0.624,2.591,2.059,2.315,3.433C239.624,132.312,240.54,132.58,240.714,131.953L240.714,131.953z"/>
		</g>
		<g>
			<path d="M236.947,122.055c-3.941,3.535-4.893,8.143-4.147,13.284c1.106,7.633,4.205,14.034,3.036,21.966
				c-1.312,8.904-7.222,18.077-17.365,17.617c-12.145-0.55-17.935-19.942-4.941-24.085c0.522-0.167,0.466-1.064-0.136-1.007
				c-7.679,0.729-9.403,8.953-8.11,15.385c1.457,7.253,7.452,11.771,14.952,11.29c7.725-0.496,13.648-6.544,15.986-13.595
				c1.452-4.378,1.985-9.367,1.422-13.95c-1.063-8.652-7.876-18.813-0.05-26.26C238.021,122.293,237.382,121.665,236.947,122.055
				L236.947,122.055z"/>
		</g>
		<g>
			<path d="M212.951,150.256c-5.525,4.535-3.009,14.446,4.254,15.254c0.535,0.06,0.527-0.689,0.116-0.859
				c-6.041-2.508-8.037-8.451-3.707-13.731C213.998,150.451,213.42,149.872,212.951,150.256L212.951,150.256z"/>
		</g>
		<g>
			<path d="M210.593,156.728c0.612,2.19,1.377,3.923,3.614,4.796c1.867,0.729,4.712,1.521,6.198-0.323
				c0.294-0.364-0.062-0.807-0.485-0.628c-1.74,0.736-3.38,0.574-5.132-0.029c-1.979-0.682-2.715-2.156-3.375-4.042
				C211.234,155.992,210.444,156.195,210.593,156.728L210.593,156.728z"/>
		</g>
		<g>
			<path d="M323.112,143.523c-3.171,1.204-6.421,2.577-9.879,2.552c-1.76-0.013-7.155-0.42-8.351-1.762
				c-0.256-0.287-0.671,0.078-0.511,0.394c1.016,1.998,5.552,2.317,7.491,2.475c4.065,0.33,7.935-1.266,11.563-2.916
				C323.84,144.077,323.543,143.36,323.112,143.523L323.112,143.523z"/>
		</g>
		<g>
			<path d="M322.384,143.957c-5.669,6.246-14.611,8.777-22.718,6.095c-0.686-0.227-1.124,0.821-0.491,1.165
				c7.909,4.298,18.601-0.248,23.846-6.624C323.382,144.153,322.779,143.521,322.384,143.957L322.384,143.957z"/>
		</g>
		<g>
			<path d="M295.812,152.707c-2.595,12.721,0.368,26.312,9.74,35.665c5.289,5.279,12.331,8.487,18.204,13.06
				c7.839,6.104,19.488,15.043,15.89,26.469c-0.189,0.601,0.737,1.006,1.028,0.433c6.149-12.082-10.961-24.397-18.935-30.2
				c-7.523-5.476-15.474-9.204-20.467-17.48c-5.087-8.433-5.958-18.264-4.698-27.843
				C296.63,152.379,295.899,152.281,295.812,152.707L295.812,152.707z"/>
		</g>
		<g>
			<path d="M286.982,174.665c0.021,2.719,0.037,6.524,2.41,8.371c0.303,0.236,0.796-0.056,0.569-0.439
				c-0.718-1.215-1.381-2.307-1.715-3.702c-0.332-1.386-0.416-2.81-0.477-4.229C287.747,174.161,286.978,174.155,286.982,174.665
				L286.982,174.665z"/>
		</g>
		<g>
			<path d="M286.803,172.927c0.41,0,0.411-0.638,0-0.638C286.393,172.29,286.392,172.927,286.803,172.927L286.803,172.927z"/>
		</g>
		<g>
			<path d="M313.83,230.166c9.46,16.765,2.372,48.548-15.525,57.254c-0.689,0.335-0.203,1.426,0.515,1.222
				c10.094-2.857,15.561-15.808,18.175-24.97c3.108-10.894,3.958-24.078-2.387-33.961
				C314.296,229.226,313.544,229.658,313.83,230.166L313.83,230.166z"/>
		</g>
		<g>
			<path d="M301.611,236.221c1.693,8.343,0.116,15.506-2.535,23.393c-0.155,0.462,0.538,0.738,0.777,0.328
				c4.128-7.111,4.392-16.125,2.698-23.98C302.419,235.347,301.487,235.609,301.611,236.221L301.611,236.221z"/>
		</g>
		<g>
			<path d="M297.911,261.984c-0.05,0.165-0.063,0.238-0.05,0.408c0.017,0.223,0.257,0.406,0.47,0.27
				c0.163-0.104,0.243-0.195,0.357-0.351C299.033,261.841,298.103,261.354,297.911,261.984L297.911,261.984z"/>
		</g>
		<g>
			<path d="M301.422,233.248c0.692,0,0.693-1.075,0-1.075C300.73,232.173,300.729,233.248,301.422,233.248L301.422,233.248z"/>
		</g>
		<g>
			<path d="M275.472,66.303c8.816-3.264,20.878-2.302,28.653,3.191c9.354,6.61,9.012,17.369,7.481,27.492
				c-1.148,7.597-3.315,25.84,9.21,24.968c0.889-0.062,0.896-1.334,0-1.388c-13.313-0.797-7.608-20.975-6.866-28.642
				c0.632-6.53,0.101-13.344-3.927-18.775c-7.584-10.226-23.563-12.247-34.788-7.702C274.718,65.657,274.93,66.504,275.472,66.303
				L275.472,66.303z"/>
		</g>
		<g>
			<path d="M323.066,120.685c-0.235-0.058-0.365-0.067-0.598-0.006c-0.204,0.053-0.351,0.337-0.213,0.523
				c0.139,0.187,0.221,0.272,0.435,0.374C323.346,121.886,323.737,120.849,323.066,120.685L323.066,120.685z"/>
		</g>
		<g>
			<path d="M311.213,106.764c0.894,4.049,2.135,8.374,5.889,10.698c2.146,1.328,6.231,2.145,7.359-0.836
				c0.183-0.484-0.535-0.883-0.867-0.505c-2.318,2.634-6.026,0.679-7.907-1.486c-1.953-2.247-2.826-5.3-3.57-8.12
				C311.962,105.929,311.083,106.176,311.213,106.764L311.213,106.764z"/>
		</g>
		<g>
			<path d="M325.102,114.19c0.952-1.163,0.831-3.288,0.399-4.656c-0.413-1.31-1.412-2.481-2.815-2.715
				c-3.1-0.516-5.028,3.589-2.559,5.582c0.355,0.287,1.023-0.097,0.697-0.538c-0.56-0.757-0.926-1.68-0.565-2.612
				c0.384-0.992,1.574-1.574,2.595-1.21c0.929,0.332,1.462,1.305,1.676,2.21c0.213,0.901,0.398,2.599-0.134,3.393
				C324.115,114.064,324.777,114.588,325.102,114.19L325.102,114.19z"/>
		</g>
		<g>
			<path d="M320.658,111.513c-3.282-3.442,2.221-7.223,5.509-6.514c3.179,0.685,4.103,3.427,5.158,6.078
				c0.118,0.296,0.604,0.378,0.687,0c0.94-4.287-3.816-8.033-7.798-7.541c-3.769,0.465-8.114,5.507-4.334,8.756
				C320.412,112.748,321.153,112.032,320.658,111.513L320.658,111.513z"/>
		</g>
		<g>
			<path d="M325.705,104.606c7.873-0.869,14.419,4.97,15.143,12.761c0.541,5.826-1.208,10.583-4.138,15.456
				c-0.25,0.416,0.293,0.753,0.628,0.485c11.059-8.838,3.775-32.959-11.747-29.549C325.125,103.861,325.217,104.66,325.705,104.606
				L325.705,104.606z"/>
		</g>
		<g>
			<path d="M289.305,62.978c-6.6-8.62-20.481-9.296-30.193-6.735c-8.16,2.152-20.836,10.222-19.08,20.222
				c0.087,0.495,0.764,0.315,0.81-0.11c2.216-20.417,34.973-26.71,47.697-12.787C288.905,63.969,289.645,63.423,289.305,62.978
				L289.305,62.978z"/>
		</g>
		<g>
			<path d="M244.717,65.337c-10.993,0.652-21.65,10.147-20.089,21.915c0.08,0.606,0.906,0.63,0.963,0
				c0.486-5.389,1.464-10.267,5.243-14.399c3.61-3.948,8.599-6.084,13.884-6.466C245.385,66.339,245.395,65.297,244.717,65.337
				L244.717,65.337z"/>
		</g>
		<g>
			<path d="M224.942,87.044c-12.878-0.146-21.596,10.478-23.092,22.63c-0.916,7.441,1.355,14.826,0.612,22.26
				c-0.516,5.171-2.531,10.671-6.138,14.511c-1.993,2.122-4.801,4.207-7.732,4.674c-3.957,0.63-14.714-0.854-10.764-8.845
				c0.263-0.532-0.436-1.181-0.874-0.674c-3.412,3.948,0.446,9.028,4.457,10.759c6.752,2.915,14.17-1.329,18.04-6.881
				c5.77-8.277,4.906-17.328,4.071-26.869c-1.254-14.339,4.696-30.359,21.418-30.616C225.553,87.985,225.555,87.051,224.942,87.044
				L224.942,87.044z"/>
		</g>
		<g>
			<path d="M186.529,137.776c-4.468-2.904-9.894-0.426-11.798,4.323c-1.609,4.013-0.547,12.669,4.739,13.505
				c0.512,0.081,0.915-0.618,0.38-0.903c-8.317-4.432-3.653-21.401,6.206-16.115C186.59,138.872,187.034,138.105,186.529,137.776
				L186.529,137.776z"/>
		</g>
		<g>
			<path d="M177.581,142.861c0.132-0.8,0.167-1.586,0.425-2.364c0.278-0.838,0.697-1.219,1.259-1.845
				c0.225-0.251,0.094-0.776-0.305-0.736c-1.886,0.189-2.439,3.503-2.042,4.945C177.002,143.167,177.524,143.21,177.581,142.861
				L177.581,142.861z"/>
		</g>
		<g>
			<path d="M186.477,137.605c-3.495-2.932-8.686-1.318-11.909,1.313c-2.711,2.213-5.978,8.081-2.351,10.919
				c0.363,0.284,1.034,0.041,0.857-0.499c-1.163-3.534-0.616-6.504,2.228-9.102c2.847-2.6,7.127-3.988,10.66-1.964
				C186.367,138.504,186.858,137.924,186.477,137.605L186.477,137.605z"/>
		</g>
		<g>
			<path d="M172.29,149.649c-7.812,3.298-11.646,12.149-8.05,20.005c2.877,6.286,12.87,13.403,18.643,6.518
				c0.485-0.579-0.254-1.329-0.831-0.831c-7.456,6.434-16.449-3.127-17.503-9.975c-0.986-6.412,2.538-12.095,8.176-14.973
				C173.232,150.135,172.787,149.439,172.29,149.649L172.29,149.649z"/>
		</g>
		<g>
			<path d="M181.499,176.09c-2.363,6.083-9.349,10.742-15.361,11.837c-2.265,0.412-4.735,0.7-7.043,0.583
				c-5.15-0.26-13.284-4.328-7.388-11.462c0.286-0.346-0.064-0.84-0.485-0.628c-7.114,3.586-0.803,12.545,4.901,13.628
				c9.98,1.894,23.022-3.483,26.183-13.734C182.469,175.788,181.69,175.598,181.499,176.09L181.499,176.09z"/>
		</g>
		<g>
			<path d="M151.199,176.225c-19.878,6.049-7.034,33.91,9.647,34.485c0.786,0.027,0.955-1.188,0.186-1.375
				c-5.992-1.456-10.909-3.855-14.599-8.949c-5.796-7.999-5.218-19.183,5.046-23.149
				C152.094,176.999,151.858,176.024,151.199,176.225L151.199,176.225z"/>
		</g>
		<g>
			<path d="M163.189,210.845c1.29,0.049,3.034,0.124,4.151-0.628c0.396-0.266,0.215-0.799-0.23-0.85
				c-0.608-0.07-1.23,0.083-1.833,0.163c-0.694,0.092-1.386,0.138-2.087,0.14C162.43,209.672,162.435,210.816,163.189,210.845
				L163.189,210.845z"/>
		</g>
		<g>
			<path d="M171.283,209.993c2.316-0.364,5.134-1.068,6.941-2.654c0.25-0.22-0.014-0.672-0.328-0.564
				c-1.143,0.392-2.181,1.043-3.313,1.477c-1.134,0.435-2.307,0.779-3.489,1.054C170.639,209.412,170.841,210.062,171.283,209.993
				L171.283,209.993z"/>
		</g>
		<g>
			<path d="M170.344,155.941c-1.453,3.878,1.174,9.452,5.556,9.646c0.325,0.014,0.456-0.466,0.167-0.617
				c-1.583-0.829-3.084-1.136-3.949-2.903c-0.873-1.785-1.621-3.962-1.039-5.922C171.221,155.665,170.513,155.489,170.344,155.941
				L170.344,155.941z"/>
		</g>
		<g>
			<path d="M178.4,166.788c0.262,0.041,0.509,0.085,0.774,0.084c0.21,0,0.339-0.277,0.177-0.427
				c-0.192-0.177-0.396-0.312-0.613-0.457C178.187,165.62,177.776,166.691,178.4,166.788L178.4,166.788z"/>
		</g>
		<g>
			<path d="M158.771,209.323c-13.809,10.064-26.191,29.673-21.589,47.244c0.198,0.755,1.264,0.422,1.145-0.316
				c-2.82-17.582,7.547-35.506,20.959-46.261C159.659,209.691,159.162,209.038,158.771,209.323L158.771,209.323z"/>
		</g>
		<g>
			<path d="M139.361,267.429c2.786,19.777,22.062,37.419,42.637,35.515c0.582-0.054,0.575-0.837,0-0.9
				c-10.433-1.149-19.737-3.35-27.879-10.47c-7.383-6.456-11.592-14.988-13.89-24.384
				C140.087,266.612,139.283,266.873,139.361,267.429L139.361,267.429z"/>
		</g>
		<g>
			<path d="M181.473,301.929c-11.763-6.103-24.244-20.092-20.418-34.341c0.129-0.481-0.623-0.84-0.834-0.352
				c-6.059,14.054,9.271,29.954,20.697,35.643C181.548,303.193,182.104,302.257,181.473,301.929L181.473,301.929z"/>
		</g>
		<g>
			<path d="M160.3,267.576c3.135,13.488,12.896,22.84,24.269,29.957c14.401,9.012,30.568,16.799,39.902,31.694
				c0.537,0.857,1.901,0.067,1.36-0.795c-7.442-11.871-19.713-20.044-31.589-26.995c-6.421-3.758-13.044-7.364-18.727-12.219
				c-6.973-5.956-11.324-13.316-14.395-21.869C160.937,266.84,160.175,267.037,160.3,267.576L160.3,267.576z"/>
		</g>
		<g>
			<path d="M176.54,262.611c-1.221,8.643,1.625,16.645,7.092,23.365c7.111,8.74,17.432,13.328,25.543,20.883
				c0.478,0.445,1.082-0.209,0.698-0.698c-5.272-6.72-14.082-10.232-20.369-15.938c-7.873-7.146-13.27-16.603-12.155-27.502
				C177.397,262.263,176.605,262.151,176.54,262.611L176.54,262.611z"/>
		</g>
		<g>
			<path d="M211.482,308.798c0.12,0.125,0.24,0.25,0.36,0.375c0.343,0.357,0.811-0.095,0.638-0.492
				c-0.071-0.163-0.142-0.326-0.213-0.488C211.996,307.569,210.94,308.234,211.482,308.798L211.482,308.798z"/>
		</g>
		<g>
			<path d="M214.482,312.16c0.619,0,0.62-0.963,0-0.963C213.863,311.197,213.862,312.16,214.482,312.16L214.482,312.16z"/>
		</g>
		<g>
			<path d="M146.764,269.924c0.27,3.262,1.481,7.751,4.42,9.64c0.332,0.214,0.655-0.195,0.505-0.504
				c-0.709-1.454-1.841-2.661-2.539-4.145c-0.763-1.621-1.248-3.341-1.502-5.11C147.577,269.306,146.723,269.419,146.764,269.924
				L146.764,269.924z"/>
		</g>
		<g>
			<path d="M228.649,120.34c-2.919,3.05-3.704,7.501-3.545,11.596c0.023,0.602,0.842,0.57,0.913,0
				c0.492-3.974,0.346-7.878,3.189-11.039C229.543,120.521,229.002,119.971,228.649,120.34L228.649,120.34z"/>
		</g>
		<g>
			<path d="M225.903,134.357c0.684,0,0.685-1.063,0-1.063C225.219,133.295,225.218,134.357,225.903,134.357L225.903,134.357z"/>
		</g>
		<path d="M268.465,139.248c1.358,0.234,2.74,0.295,4.117,0.352c0.532,0.022,1.077,0.042,1.583-0.125
			c0.505-0.166,0.971-0.561,1.066-1.084c0.545,0.644,1.103,1.299,1.822,1.739c0.72,0.44,1.642,0.636,2.415,0.299
			c-1.083,1.39-3.212,1.831-4.758,0.988c0.124,0.595,0.551,1.119,1.108,1.361c-0.805,0.428-1.789,0.405-2.66,0.139
			c-0.872-0.266-1.656-0.753-2.43-1.235c-0.183,0.34-0.153,0.784,0.075,1.096c-0.911,0.004-1.597-0.777-2.336-1.309
			c-0.999-0.718-2.226-1.023-3.365-1.486c-1.537-0.624-2.948-1.559-4.123-2.73c-0.253-0.252-0.512-0.562-0.476-0.917
			c0.09-0.878,0.945-0.131,1.225,0.085c0.649,0.501,1.387,0.917,2.116,1.288C265.296,138.447,266.859,138.97,268.465,139.248z"/>
		<path d="M292.888,142.248c0.598,0.102,1.22,0.141,1.804-0.022c0.584-0.163,1.128-0.553,1.359-1.114
			c0.425,0.957,1.369,1.627,2.388,1.866c1.019,0.24,2.102,0.085,3.084-0.278c-0.114,0.527-0.553,0.941-1.051,1.148
			c-0.498,0.207-1.052,0.234-1.591,0.218c0.483,0.137,0.987,0.201,1.489,0.191c-0.695,0.659-1.665,1.017-2.621,0.968
			c-0.956-0.049-1.885-0.503-2.509-1.229c-0.127,0.51-0.041,1.069,0.233,1.518c-1.266,0.029-2.504-0.819-2.933-2.01
			c-0.119,0.291-0.239,0.583-0.358,0.874c-0.629-0.434-1.139-1.038-1.463-1.73c0.016,0.033-0.829-0.174-0.915-0.22
			c-0.248-0.134-0.625-0.369-0.786-0.603c-0.247-0.357-0.195-0.417,0.243-0.502C290.414,141.1,291.773,142.057,292.888,142.248z"/>
		<path d="M276.132,121.616c0.573,0.248,1.165,0.527,1.543,1.025c0.378,0.497,0.457,1.279,0.007,1.712
			c-0.5,0.48-1.312,0.306-1.973,0.097c-3.256-1.026-6.516-2.111-9.899-2.567c-0.54-0.073-1.093-0.132-1.588-0.362
			c-0.494-0.229-0.93-0.667-0.994-1.209c-0.086-0.73,0.546-1.393,1.255-1.585c0.913-0.247,1.805,0.123,2.694,0.288
			c1.041,0.194,2.08,0.341,3.11,0.596C272.29,120.106,274.241,120.797,276.132,121.616z"/>
		<path d="M294.996,125.34c-0.468-0.016-0.993,0.003-1.319,0.338c-0.323,0.332-0.332,0.85-0.314,1.313
			c0.009,0.223,0.027,0.467,0.178,0.632c0.089,0.097,0.212,0.153,0.335,0.199c1.239,0.464,2.638,0.095,3.936,0.35
			c0.45,0.089,0.928,0.25,1.352,0.075c1.015-0.421,0.91-2.086-0.023-2.481C298.018,125.289,296.196,125.381,294.996,125.34z"/>
		<path d="M288.709,150.079c0.785,0.728,1.782,1.325,2.166,2.324c0.346,0.898,0.09,1.951-0.486,2.721
			c-0.576,0.77-1.431,1.289-2.323,1.649c-1.294,0.522-2.708,0.744-4.1,0.644c1.918,0.716,4.181,0.751,5.922-0.327
			c1.741-1.078,2.735-3.42,1.918-5.297c-0.822-1.887-3.12-2.872-3.751-4.831c-0.099-0.307-0.157-0.638-0.35-0.897
			c-0.211-0.283-0.726-0.447-0.991-0.135c-0.263,0.308,0.081,1.063,0.191,1.377C287.271,148.359,287.892,149.322,288.709,150.079z"
			/>
		<g>
			<path d="M238.476,96.907c0.436-1.66,0.811-3.34,1.278-4.992c0.469-1.658,1.265-3.125,1.948-4.694
				c0.288-0.663-0.524-1.131-0.961-0.561c-2.112,2.751-2.607,6.663-3.338,9.951C237.249,97.307,238.294,97.603,238.476,96.907
				L238.476,96.907z"/>
		</g>
		<g>
			<path d="M241.063,88.078c1.869-2.79,3.191,0.481,3.547,1.595c0.185,0.58,0.307,1.18,0.419,1.777
				c0.303,1.615,0.468,3.254,0.819,4.86c0.155,0.71,1.363,0.569,1.289-0.174c-0.29-2.917-0.517-6.789-2.369-9.211
				c-1.498-1.959-3.573-1.48-4.677,0.586C239.748,88.153,240.661,88.677,241.063,88.078L241.063,88.078z"/>
		</g>
		<g>
			<path d="M246.492,97.596c3.274,0.254,7.042,0.797,10.28,0.128c0.508-0.105,0.53-0.961,0-1.049
				c-3.304-0.546-6.925-0.142-10.28-0.292C245.707,96.348,245.722,97.536,246.492,97.596L246.492,97.596z"/>
		</g>
		<g>
			<path d="M256.046,97.88c1.106-0.109,1.365,1.206,0.992,2.019c-0.147,0.322-0.765,0.649-1.03,0.843
				c-0.661,0.485-1.348,0.936-2.051,1.358c-1.329,0.798-2.809,1.328-4.12,2.137c-0.601,0.371-0.209,1.293,0.477,1.131
				c1.616-0.381,3.169-1.36,4.557-2.247c1.145-0.732,2.646-1.591,3.415-2.753c1.158-1.748-0.362-3.888-2.376-3.495
				C255.35,96.983,255.468,97.937,256.046,97.88L256.046,97.88z"/>
		</g>
		<g>
			<path d="M237.734,96.28c-1.593-0.165-3.136-0.013-4.722,0.162c-1.27,0.14-2.581,0.122-3.753,0.649
				c-0.311,0.139-0.227,0.666,0.096,0.731c1.293,0.263,2.676-0.079,3.981-0.222c1.466-0.161,2.923-0.29,4.399-0.219
				C238.452,97.415,238.425,96.352,237.734,96.28L237.734,96.28z"/>
		</g>
		<g>
			<path d="M229.621,96.998c-1.841,0.433-3.057,2.4-1.682,4.038c0.817,0.973,2.204,1.547,3.303,2.115
				c1.37,0.708,2.783,1.329,4.205,1.924c0.821,0.344,1.186-1.001,0.369-1.338c-1.403-0.578-2.776-1.214-4.136-1.885
				c-0.58-0.286-1.175-0.559-1.736-0.882c-0.354-0.177-0.685-0.39-0.993-0.639c-0.559-1.303-0.261-2.145,0.893-2.525
				C230.328,97.604,230.162,96.87,229.621,96.998L229.621,96.998z"/>
		</g>
		<g>
			<path d="M235.202,104.198c-0.99,3.677-2.493,7.104-3.126,10.902c-0.136,0.818,1.019,1.175,1.266,0.349
				c1.059-3.546,2.2-7.335,2.897-10.965C236.367,103.812,235.384,103.521,235.202,104.198L235.202,104.198z"/>
		</g>
		<g>
			<path d="M232.221,115.053c-0.577,2.424,0.852,4.719,3.576,4.063c1.493-0.36,2.602-1.604,3.606-2.68
				c1.391-1.491,2.753-3.042,3.913-4.721c0.412-0.596-0.537-1.339-1.011-0.78c-1.207,1.422-2.344,2.894-3.604,4.272
				c-1.596,1.746-5.22,4.969-5.645-0.041C233.018,114.715,232.339,114.557,232.221,115.053L232.221,115.053z"/>
		</g>
		<g>
			<path d="M249.682,104.951c0.633,3.768,1.05,7.501,1.445,11.296c0.086,0.822,1.309,0.863,1.313,0
				c0.016-3.839-0.68-7.898-1.817-11.556C250.433,104.082,249.579,104.341,249.682,104.951L249.682,104.951z"/>
		</g>
		<g>
			<path d="M251.32,115.607c-0.539,1.755-1.471,2.238-2.794,1.451c-0.443-0.239-0.842-0.54-1.196-0.901
				c-0.429-0.398-0.82-0.844-1.212-1.277c-1.103-1.216-2.027-2.52-2.956-3.869c-0.485-0.703-1.481-0.104-1.133,0.662
				c0.716,1.577,1.935,2.933,3.096,4.201c0.952,1.039,1.993,2.236,3.385,2.679c2.074,0.661,4.665-0.834,3.752-3.205
				C252.039,114.773,251.166,114.985,251.32,115.607L251.32,115.607z"/>
		</g>
		<g>
			<path d="M247.316,96.95c-0.002-2.943,0.948-5.777,3.117-7.832c0.806-0.763,1.764-1.407,2.773-1.874
				c0.89-0.412,3.911-1.576,4.907-0.926c0.544,0.355,1.017-0.317,0.804-0.804c-0.059-0.134-0.118-0.269-0.177-0.403
				c-0.104-0.237-0.384-0.333-0.617-0.354c-6.83-0.607-12.362,5.7-11.995,12.193C246.171,97.708,247.317,97.721,247.316,96.95
				L247.316,96.95z"/>
		</g>
		<g>
			<path d="M257.725,85.699c-1.012,2.61-2.609,4.958-4.74,6.787c-1.996,1.713-4.749,2.301-6.608,4.038
				c-0.374,0.349,0.019,0.936,0.48,0.825c5.62-1.35,10.097-6.018,11.965-11.348C259.067,85.303,257.985,85.028,257.725,85.699
				L257.725,85.699z"/>
		</g>
		<g>
			<path d="M235.354,103.871c-5.47-1.797-15.046,1.524-16.117,7.849c-0.169,0.995,1.287,1.443,1.543,0.425
				c1.353-5.377,9.311-8.566,14.252-7.105C235.784,105.263,236.091,104.114,235.354,103.871L235.354,103.871z"/>
		</g>
		<g>
			<path d="M219.785,112.368c4.359,2.192,16.051-1.073,15.257-7.349c-0.057-0.448-0.656-0.719-0.92-0.249
				c-1.409,2.507-2.436,4.256-5.266,5.333c-2.432,0.925-6.031,1.855-8.604,1.157C219.607,111.084,219.157,112.052,219.785,112.368
				L219.785,112.368z"/>
		</g>
		<g>
			<path d="M250.601,105.606c4.96-0.211,10.798,0.264,12.94,5.538c0.342,0.841,1.702,0.519,1.398-0.385
				c-2.04-6.082-8.825-6.856-14.339-6.315C249.87,104.515,249.841,105.639,250.601,105.606L250.601,105.606z"/>
		</g>
		<g>
			<path d="M263.958,110.569c-2.697,0.657-5.276,0.023-7.747-1.125c-0.898-0.417-5.691-2.81-4.846-4.193
				c0.187-0.307-0.051-0.766-0.426-0.743c-0.099,0.006-0.198,0.012-0.297,0.018c-0.217,0.013-0.466,0.112-0.565,0.324
				c-0.989,2.127,2.385,4.16,3.877,5.001c3.188,1.798,6.715,2.9,10.331,1.899C265.044,111.54,264.724,110.382,263.958,110.569
				L263.958,110.569z"/>
		</g>
		<g>
			<path d="M242.171,112.027c-1.4,1.714-2.977,3.872-3.046,6.18c-0.079,2.624,1.865,5.537,3.245,7.626
				c0.482,0.73,1.544,0.099,1.166-0.681c-0.932-1.924-2.161-3.707-2.725-5.78c-0.67-2.463,0.806-4.732,2.195-6.701
				C243.35,112.182,242.554,111.558,242.171,112.027L242.171,112.027z"/>
		</g>
		<g>
			<path d="M243.288,125.519c1.96-3.667,2.656-9.7-0.416-12.967c-0.374-0.398-1.126,0.012-0.94,0.547
				c0.635,1.832,1.539,3.209,1.542,5.269c0.003,2.075-0.323,4.666-1.146,6.589C242.054,125.596,242.942,126.167,243.288,125.519
				L243.288,125.519z"/>
		</g>
		<g>
			<path d="M252.408,101.279c-0.592,0.297-1.563,0.521-1.931,1.086c-0.09,0.139-0.007,0.374,0.164,0.404
				c0.715,0.124,1.539-0.503,2.153-0.828C253.233,101.71,252.847,101.059,252.408,101.279L252.408,101.279z"/>
		</g>
		<g>
			<path d="M232.286,101.494c0.42,0.174,0.842,0.327,1.253,0.522c0.331,0.157,0.523,0.257,0.883,0.203
				c0.165-0.025,0.275-0.245,0.224-0.395c-0.247-0.722-1.436-1.081-2.117-1.214C231.939,100.494,231.748,101.272,232.286,101.494
				L232.286,101.494z"/>
		</g>
		<g>
			<path d="M290.424,103.076c-0.25-0.026-0.439-0.04-0.684,0.01c-0.276,0.056-0.322,0.473-0.079,0.602
				c0.22,0.116,0.407,0.154,0.653,0.199C290.899,103.993,291.024,103.138,290.424,103.076L290.424,103.076z"/>
		</g>
		<g>
			<path d="M294.939,107.493c0.66,0,0.661-1.025,0-1.025C294.28,106.467,294.279,107.493,294.939,107.493L294.939,107.493z"/>
		</g>
		<g>
			<path d="M238.034,162.8c-0.628,3.67-3.043,5.967-4.79,9.057c-0.196,0.347,0.255,0.683,0.543,0.419
				c2.566-2.352,4.549-5.924,5.008-9.374C238.852,162.474,238.107,162.37,238.034,162.8L238.034,162.8z"/>
		</g>
		<g>
			<path d="M240.594,165.912c-0.029,0.904-0.192,1.772-0.515,2.618c-0.326,0.852-0.894,1.528-1.271,2.342
				c-0.133,0.287,0.169,0.724,0.49,0.49c1.581-1.152,2.109-3.607,2.096-5.45C241.39,165.396,240.61,165.398,240.594,165.912
				L240.594,165.912z"/>
		</g>
		<g>
			<path d="M243.613,171.454c0.59,0,0.591-0.917,0-0.917C243.023,170.537,243.022,171.454,243.613,171.454L243.613,171.454z"/>
		</g>
		<g>
			<path d="M244.395,172.577c0.023,0,0.023-0.035,0-0.035S244.372,172.577,244.395,172.577L244.395,172.577z"/>
		</g>
		<g>
			<path d="M237.36,173.421c-0.464,0.218-0.83,0.575-0.882,1.097c-0.028,0.284,0.326,0.438,0.546,0.313
				c0.257-0.146,0.447-0.372,0.725-0.488C238.414,174.063,238.027,173.108,237.36,173.421L237.36,173.421z"/>
		</g>
		<g>
			<path d="M230.991,174.66c-0.502,0.473-0.107,0.972,0.499,0.857C232.269,175.368,231.656,174.033,230.991,174.66L230.991,174.66z"
				/>
		</g>
		<g>
			<path d="M232.046,296.529c-0.496,2.543,0.53,5.329,3.2,6.13c1.942,0.582,4.979-0.641,4.84-3.016
				c-0.024-0.41-0.598-0.625-0.815-0.221c-0.849,1.582-1.942,2.813-3.935,2.135c-2.056-0.699-2.699-2.969-2.487-4.919
				C232.897,296.182,232.133,296.078,232.046,296.529L232.046,296.529z"/>
		</g>
		<g>
			<path d="M240.749,300.51c0.241,1.624,1.262,3.094,2.813,3.724c1.337,0.542,3.794,0.154,4.476-1.267
				c0.181-0.376-0.193-0.808-0.587-0.587c-1.197,0.67-2.423,1.41-3.803,0.714c-1.115-0.563-1.772-1.638-1.999-2.832
				C241.536,299.665,240.663,299.929,240.749,300.51L240.749,300.51z"/>
		</g>
		<g>
			<path d="M234.776,305.02c-0.523,5.205,6.742,7.535,9.718,3.486c0.342-0.465-0.435-1.07-0.805-0.621
				c-1.187,1.438-2.925,2.147-4.744,1.523c-1.886-0.647-3.496-2.303-3.378-4.388C235.597,304.505,234.826,304.522,234.776,305.02
				L234.776,305.02z"/>
		</g>
		<g>
			<path d="M262.865,305.442c-0.232,1.663,0.725,3.134,2.384,3.509c1.031,0.233,4.288,0.443,3.788-1.501
				c-0.051-0.2-0.321-0.331-0.502-0.204c-0.274,0.192-0.46,0.493-0.747,0.662c-0.593,0.35-1.517,0.211-2.159,0.094
				c-1.258-0.231-2.058-1.128-1.921-2.445C263.757,305.08,262.932,304.963,262.865,305.442L262.865,305.442z"/>
		</g>
		<g>
			<path d="M286.242,297.932c0.814,1.906,2.165,3.818,4.492,3.002c0.851-0.298,1.728-0.584,2.2-1.389
				c0.535-0.911,0.828-1.963,0.479-2.98c-0.207-0.604-1.164-0.351-0.964,0.266c0.564,1.746-1.032,3.247-2.684,3.271
				c-1.535,0.023-2.198-1.382-2.774-2.607C286.75,296.984,286.028,297.431,286.242,297.932L286.242,297.932z"/>
		</g>
		<g>
			<path d="M235.974,335.045c-0.539,5.714,6.409,8.516,10.234,4.426c0.468-0.501-0.279-1.253-0.754-0.754
				c-3.326,3.49-8.746,1.042-8.705-3.672C236.754,334.538,236.02,334.556,235.974,335.045L235.974,335.045z"/>
		</g>
		<g>
			<path d="M244.62,337.352c0.542,1.513,1.227,2.708,2.894,3.088c1.372,0.313,3.018,0.299,3.622-1.195
				c0.134-0.332-0.315-0.634-0.594-0.456c-0.573,0.365-0.812,0.755-1.583,0.824c-0.44,0.039-0.951-0.041-1.368-0.171
				c-1.196-0.372-1.678-1.222-2.119-2.324C245.265,336.601,244.425,336.809,244.62,337.352L244.62,337.352z"/>
		</g>
		<g>
			<path d="M242.427,348.218c0.572,2.04,3.432,3.577,5.46,3.57c1.649-0.005,4.571-1.223,4.424-3.189
				c-0.036-0.482-0.635-0.537-0.81-0.11c-0.613,1.498-2.604,2.389-4.146,2.174c-1.39-0.193-3.621-1.248-4.075-2.682
				C243.108,347.443,242.272,347.667,242.427,348.218L242.427,348.218z"/>
		</g>
		<g>
			<path d="M287.322,348.135c0.38,1.563,1.108,3.618,3.035,3.707c1.719,0.08,3.384-1.47,3.017-3.2
				c-0.139-0.656-1.086-0.365-0.988,0.273c0.216,1.414-1.721,2.404-2.83,1.641c-0.86-0.593-1.118-1.712-1.366-2.66
				C288.043,347.335,287.186,347.572,287.322,348.135L287.322,348.135z"/>
		</g>
		<g>
			<path d="M278.951,374.251c-0.288,1.644-0.595,4.505,1.587,5.009c1.804,0.416,4.027-0.709,4.767-2.394
				c0.249-0.566-0.458-0.984-0.828-0.484c-0.751,1.017-1.91,2.098-3.309,1.939c-1.849-0.21-1.627-2.577-1.465-3.969
				C279.753,373.928,279.025,373.826,278.951,374.251L278.951,374.251z"/>
		</g>
		<g>
			<path d="M267.541,395.498c-0.648,1.92-1.457,3.999,0.456,5.466c0.961,0.737,3.792,1.68,4.008-0.212
				c0.048-0.424-0.489-0.513-0.747-0.309c-0.986,0.776-2.785-0.016-3.344-1.042c-0.591-1.087,0.099-2.595,0.398-3.691
				C268.449,395.21,267.705,395.013,267.541,395.498L267.541,395.498z"/>
		</g>
		<g>
			<path d="M236.838,397.819c-1.052,2.015-0.908,4.871,1.438,5.918c1.504,0.672,5.652,0.222,5.553-2.065
				c-0.016-0.365-0.412-0.494-0.676-0.28c-0.528,0.427-0.811,0.899-1.47,1.174c-0.836,0.348-2.064,0.557-2.919,0.193
				c-1.802-0.768-1.839-2.908-1.063-4.436C237.992,397.752,237.137,397.246,236.838,397.819L236.838,397.819z"/>
		</g>
		<g>
			<path d="M241.721,404.304c0.148,0.572,0.827,1.185,1.414,0.773c0.238-0.167,0.283-0.54,0-0.698
				c-0.169-0.095-0.467-0.105-0.538-0.317C242.413,403.512,241.574,403.733,241.721,404.304L241.721,404.304z"/>
		</g>
		<g>
			<path d="M231.6,409.521c-0.133,1.474,0.296,2.751,1.921,2.984c1.041,0.149,2.992-0.074,3.214-1.383
				c0.054-0.319-0.26-0.632-0.575-0.442c-0.701,0.421-1.153,0.791-2.025,0.817c-0.493,0.015-1.118-0.041-1.42-0.49
				c-0.274-0.409-0.195-1.024-0.166-1.487C232.589,408.906,231.654,408.92,231.6,409.521L231.6,409.521z"/>
		</g>
		<g>
			<path d="M225.874,416.091c-0.699,1.07-1.157,2.561-0.118,3.589c0.446,0.441,1.069,0.572,1.678,0.558
				c0.712-0.017,1.633-0.106,2.24-0.49c0.363-0.23,0.202-0.757-0.212-0.784c-0.889-0.059-1.862,0.552-2.736,0.201
				c-1.132-0.454-0.604-1.913-0.16-2.67C226.827,416.048,226.154,415.663,225.874,416.091L225.874,416.091z"/>
		</g>
		<g>
			<path d="M176.39,433.201c-1.263,0.271-3.285,0.977-3.605,2.431c-0.278,1.265,1.346,2.513,2.484,2.549
				c0.442,0.014,0.495-0.531,0.204-0.753c-0.654-0.501-2.495-1.077-1.377-2.183c0.661-0.654,1.633-1.026,2.514-1.248
				C177.126,433.866,176.906,433.09,176.39,433.201L176.39,433.201z"/>
		</g>
		<g>
			<path d="M174.314,439.919c-1.289,1.362,2.233,2.333,3.07,1.797c0.173-0.111,0.227-0.366,0.067-0.517
				c-0.31-0.292-0.663-0.291-1.074-0.372c-0.194-0.038-1.28-0.397-1.409-0.254C175.363,440.132,174.726,439.484,174.314,439.919
				L174.314,439.919z"/>
		</g>
		<g>
			<path d="M101.35,386.075c0.998,0.462,1.998,0.917,3.055,1.225c0.373,0.109,0.632-0.461,0.27-0.64
				c-0.952-0.469-1.936-0.867-2.896-1.32C101.286,385.108,100.855,385.845,101.35,386.075L101.35,386.075z"/>
		</g>
		<g>
			<path d="M114.009,391.375c3.796,2.076,7.46,4.455,10.581,7.474c3.263,3.156,5.319,7.006,7.99,10.599
				c0.263,0.354,0.796,0.058,0.597-0.349c-4.022-8.251-10.726-14.23-18.803-18.35C113.961,390.538,113.597,391.149,114.009,391.375
				L114.009,391.375z"/>
		</g>
		<g>
			<path d="M133.82,411.862c0.286,0.24,0.524,0.48,0.881,0.599c0.21,0.07,0.381-0.146,0.338-0.338
				c-0.072-0.331-0.267-0.572-0.454-0.851C134.172,410.653,133.302,411.429,133.82,411.862L133.82,411.862z"/>
		</g>
		<g>
			<path d="M136.78,416.482c0.891,1.37,1.864,2.874,3.184,3.84c0.267,0.195,0.612-0.182,0.445-0.445
				c-0.852-1.336-2.022-2.486-2.945-3.794C137.175,415.672,136.499,416.05,136.78,416.482L136.78,416.482z"/>
		</g>
		<g>
			<path d="M141.686,423.04c0.058,0.059,0.115,0.118,0.173,0.178c0.271,0.279,0.651-0.019,0.599-0.349
				c-0.014-0.085-0.027-0.17-0.04-0.255C142.312,421.949,141.134,422.473,141.686,423.04L141.686,423.04z"/>
		</g>
		<g>
			<path d="M132.846,418.887c-1.048-0.652-2.076-1.331-3.086-2.039c-0.991-0.695-1.948-1.556-3.025-2.106
				c-0.34-0.174-0.642,0.232-0.399,0.517c1.55,1.821,4.049,3.151,6.068,4.384C132.886,419.937,133.323,419.184,132.846,418.887
				L132.846,418.887z"/>
		</g>
		<g>
			<path d="M122.805,410.699c-0.089-0.059-0.178-0.117-0.267-0.176c-0.279-0.184-0.646,0.183-0.462,0.462
				c0.059,0.089,0.117,0.178,0.176,0.267C122.615,411.802,123.359,411.064,122.805,410.699L122.805,410.699z"/>
		</g>
		<g>
			<path d="M138.017,428.772c-1.071-0.115-2.137-0.26-3.197-0.451c-0.754-0.136-1.479-0.39-2.241-0.25
				c-0.252,0.046-0.235,0.373-0.065,0.495c0.745,0.534,1.799,0.575,2.688,0.721c0.935,0.154,1.874,0.276,2.815,0.377
				C138.587,429.725,138.582,428.833,138.017,428.772L138.017,428.772z"/>
		</g>
		<g>
			<path d="M128.092,427.656c0.023,0,0.023-0.036,0-0.036S128.069,427.656,128.092,427.656L128.092,427.656z"/>
		</g>
		<g>
			<path d="M135.338,435.634c-1.019,0.059-2.024,0.004-3.028-0.182c-0.555-0.103-0.794,0.745-0.235,0.852
				c1.081,0.207,2.164,0.288,3.263,0.23C135.915,436.504,135.917,435.601,135.338,435.634L135.338,435.634z"/>
		</g>
		<g>
			<path d="M138.016,442.639c-6.765-0.886-13.181,2.618-19.736,3.77c-0.392,0.069-0.288,0.677,0.092,0.679
				c6.824,0.035,12.663-4.354,19.644-3.558C138.589,443.596,138.574,442.713,138.016,442.639L138.016,442.639z"/>
		</g>
		<g>
			<path d="M115.449,446.627c-0.307,0.066-0.604,0.133-0.901,0.237c-0.438,0.153-0.343,0.742,0.106,0.786
				c0.314,0.03,0.62,0.026,0.935,0.017C116.349,447.645,116.215,446.463,115.449,446.627L115.449,446.627z"/>
		</g>
		<g>
			<path d="M141.532,448.02c-5.225,1.424-10.053,3.872-15.16,5.642c-5.102,1.769-10.304,2.889-15.573,4.017
				c-0.543,0.116-0.296,0.882,0.224,0.812c11.015-1.484,20.237-6.652,30.739-9.635C142.298,448.703,142.072,447.873,141.532,448.02
				L141.532,448.02z"/>
		</g>
		<g>
			<path d="M105.525,457.413c-0.039,0.039-0.077,0.079-0.116,0.118c-0.135,0.137-0.135,0.363,0,0.501
				c0.039,0.039,0.077,0.079,0.116,0.118c0.319,0.324,0.889,0.08,0.889-0.368C106.415,457.334,105.844,457.089,105.525,457.413
				L105.525,457.413z"/>
		</g>
		<g>
			<path d="M100.287,456.689c-0.354-0.038-0.695-0.071-1.051-0.044c-0.291,0.022-0.437,0.415-0.156,0.575
				c0.342,0.194,0.702,0.322,1.074,0.451C100.803,457.897,101.052,456.771,100.287,456.689L100.287,456.689z"/>
		</g>
		<g>
			<path d="M94.561,455.512c-0.235-0.005-0.466-0.009-0.701,0c-0.332,0.012-0.368,0.444-0.075,0.557
				c0.222,0.085,0.444,0.158,0.67,0.229C94.997,456.47,95.164,455.526,94.561,455.512L94.561,455.512z"/>
		</g>
		<g>
			<path d="M92.346,454.775c-1.687-0.627-3.374-1.253-5.061-1.88c-0.49-0.182-0.695,0.595-0.215,0.78
				c1.682,0.645,3.364,1.291,5.046,1.936C92.635,455.81,92.867,454.968,92.346,454.775L92.346,454.775z"/>
		</g>
		<g>
			<path d="M114.529,451.012c-0.748,0.176-1.598,0.151-2.313,0.407c-0.363,0.13-0.38,0.631,0,0.755
				c0.789,0.258,1.799,0.01,2.584-0.182C115.435,451.837,115.166,450.862,114.529,451.012L114.529,451.012z"/>
		</g>
		<g>
			<path d="M106.826,452.105c-2.658-0.146-5.12-0.848-7.721-1.246c-0.399-0.061-0.754,0.526-0.305,0.724
				c2.436,1.072,5.391,1.32,8.026,1.464C107.432,453.08,107.43,452.138,106.826,452.105L106.826,452.105z"/>
		</g>
		<g>
			<path d="M153.691,448.59c-9.905,1.452-19.449,7.094-28.042,11.955c-0.452,0.255-0.055,0.891,0.4,0.684
				c9.142-4.166,17.769-10.271,27.831-11.955C154.332,449.197,154.135,448.525,153.691,448.59L153.691,448.59z"/>
		</g>
		<g>
			<path d="M121.318,461.683c-0.471,0.173-0.917,0.324-1.348,0.583c-0.273,0.164-0.187,0.699,0.177,0.652
				c0.498-0.064,0.936-0.204,1.413-0.36C122.116,462.377,121.864,461.483,121.318,461.683L121.318,461.683z"/>
		</g>
		<g>
			<path d="M113.722,462.973c-0.393-0.036-0.773-0.065-1.167-0.061c-0.377,0.004-0.475,0.582-0.091,0.671
				c0.419,0.097,0.831,0.152,1.258,0.206C114.236,463.855,114.248,463.022,113.722,462.973L113.722,462.973z"/>
		</g>
		<g>
			<path d="M106.479,462.877c-1.638-0.214-3.375-0.62-5.029-0.566c-0.324,0.011-0.39,0.469-0.076,0.565
				c1.582,0.483,3.364,0.542,5.002,0.762C106.93,463.713,107.04,462.95,106.479,462.877L106.479,462.877z"/>
		</g>
		<g>
			<path d="M97.832,462.079c-0.195-0.025-0.39-0.05-0.584-0.075c-0.246-0.032-0.287,0.363-0.058,0.426
				c0.191,0.052,0.382,0.105,0.573,0.157C98.116,462.683,98.214,462.129,97.832,462.079L97.832,462.079z"/>
		</g>
		<g>
			<path d="M88.456,459.099c-0.16-0.06-0.321-0.121-0.482-0.181c-0.302-0.114-0.464,0.342-0.212,0.503
				c0.147,0.094,0.293,0.187,0.44,0.28C88.589,459.948,88.921,459.275,88.456,459.099L88.456,459.099z"/>
		</g>
		<g>
			<path d="M95.275,443.756c0.757,0.722,2.161,1.543,3.247,1.308c0.323-0.07,0.389-0.565,0.093-0.716
				c-0.447-0.228-0.967-0.258-1.437-0.446c-0.503-0.202-0.953-0.493-1.398-0.8C95.388,442.831,94.936,443.433,95.275,443.756
				L95.275,443.756z"/>
		</g>
		<g>
			<path d="M100.636,445.492c0.574,0,0.575-0.892,0-0.892C100.063,444.6,100.061,445.492,100.636,445.492L100.636,445.492z"/>
		</g>
		<g>
			<path d="M103.004,377.595c13.507,2.737,23.575,9.771,33.04,19.465c0.174,0.178,0.504-0.059,0.353-0.273
				c-7.6-10.816-20.433-17.506-33.174-19.988C102.706,376.698,102.483,377.489,103.004,377.595L103.004,377.595z"/>
		</g>
		<g>
			<path d="M137.309,399.339c0.067,0.137,0.134,0.274,0.202,0.411c0.178,0.363,0.684,0.094,0.617-0.26
				c-0.029-0.153-0.058-0.306-0.087-0.46C137.938,398.495,137.036,398.783,137.309,399.339L137.309,399.339z"/>
		</g>
		<g>
			<path d="M141.117,404.15c0.467,0.926,0.98,1.887,1.543,2.758c0.091,0.14,0.341,0.054,0.282-0.119
				c-0.344-1.004-0.792-2.017-1.242-2.98C141.517,403.419,140.92,403.76,141.117,404.15L141.117,404.15z"/>
		</g>
		<g>
			<path d="M144.354,409.622c2.196,4.717,4.96,9.053,8.308,13.033c0.288,0.342,0.771-0.149,0.489-0.489
				c-3.278-3.95-6.014-8.251-8.2-12.893C144.762,408.87,144.168,409.221,144.354,409.622L144.354,409.622z"/>
		</g>
		<g>
			<path d="M146.921,422.372c0.625,0.864,1.249,1.728,1.874,2.592c0.558,0.771,1.07,1.665,1.784,2.3
				c0.268,0.238,0.619-0.057,0.478-0.369c-0.405-0.896-1.134-1.678-1.721-2.465c-0.601-0.806-1.202-1.611-1.804-2.417
				C147.264,421.655,146.652,421.999,146.921,422.372L146.921,422.372z"/>
		</g>
		<g>
			<path d="M143.561,418.333c0.568,0,0.569-0.883,0-0.883C142.993,417.45,142.992,418.333,143.561,418.333L143.561,418.333z"/>
		</g>
		<g>
			<path d="M109.328,400.021c0.386,0.128,0.747,0.266,1.157,0.275c0.244,0.005,0.366-0.308,0.197-0.477
				c-0.289-0.289-0.639-0.453-0.998-0.644C109.096,398.863,108.685,399.809,109.328,400.021L109.328,400.021z"/>
		</g>
	</g>
	<g>
		<g>
			<path d="M176.343,76.355c0.968,0,1.752,0.784,1.752,1.752c0,0.968-0.785,1.752-1.752,1.752c-0.968,0-1.752-0.785-1.752-1.752
				C174.591,77.14,175.376,76.355,176.343,76.355 M176.343,75.289c-1.554,0-2.819,1.265-2.819,2.819
				c0,1.554,1.265,2.819,2.819,2.819c1.554,0,2.819-1.265,2.819-2.819C179.162,76.553,177.898,75.289,176.343,75.289L176.343,75.289
				z"/>
		</g>
		<g>
			<path d="M320.092,20.949c0.53,0,0.959,0.43,0.959,0.959c0,0.53-0.43,0.959-0.959,0.959c-0.53,0-0.959-0.429-0.959-0.959
				C319.133,21.379,319.562,20.949,320.092,20.949 M320.092,19.882c-1.117,0-2.026,0.909-2.026,2.026
				c0,1.117,0.909,2.026,2.026,2.026c1.117,0,2.026-0.909,2.026-2.026C322.118,20.791,321.209,19.882,320.092,19.882L320.092,19.882
				z"/>
		</g>
		<g>
			<path d="M354.685,128.869c0.871,0,1.578,0.706,1.578,1.578c0,0.871-0.706,1.578-1.578,1.578c-0.871,0-1.578-0.706-1.578-1.578
				C353.107,129.575,353.814,128.869,354.685,128.869 M354.685,127.802c-1.458,0-2.645,1.186-2.645,2.645
				c0,1.458,1.186,2.645,2.645,2.645c1.458,0,2.645-1.186,2.645-2.645C357.33,128.989,356.144,127.802,354.685,127.802
				L354.685,127.802z"/>
		</g>
		<g>
			<path d="M357.111,149.475c1.34,0,2.426,1.086,2.426,2.426s-1.086,2.426-2.426,2.426c-1.34,0-2.426-1.086-2.426-2.426
				S355.771,149.475,357.111,149.475 M357.111,148.408c-1.926,0-3.492,1.567-3.492,3.492c0,1.926,1.567,3.492,3.492,3.492
				c1.926,0,3.492-1.567,3.492-3.492C360.603,149.975,359.037,148.408,357.111,148.408L357.111,148.408z"/>
		</g>
		<path d="M339.584,198.17c1.34,0,2.426,1.086,2.426,2.426c0,1.34-1.086,2.426-2.426,2.426c-1.34,0-2.426-1.086-2.426-2.426
			C337.158,199.256,338.244,198.17,339.584,198.17 M339.584,197.103c-1.926,0-3.492,1.567-3.492,3.493
			c0,1.926,1.567,3.492,3.492,3.492c1.926,0,3.493-1.567,3.493-3.492C343.076,198.67,341.509,197.103,339.584,197.103
			L339.584,197.103z"/>
		<path d="M342.952,284.616c0.52,0,0.942,0.422,0.942,0.942s-0.422,0.942-0.942,0.942s-0.942-0.422-0.942-0.942
			S342.431,284.616,342.952,284.616 M342.952,283.549c-1.108,0-2.009,0.901-2.009,2.009s0.901,2.009,2.009,2.009
			s2.009-0.901,2.009-2.009S344.059,283.549,342.952,283.549L342.952,283.549z"/>
		<path d="M328.72,279.246c0.885,0,1.603,0.718,1.603,1.603s-0.718,1.603-1.603,1.603c-0.885,0-1.603-0.718-1.603-1.603
			S327.835,279.246,328.72,279.246 M328.72,278.179c-1.472,0-2.67,1.198-2.67,2.67c0,1.472,1.198,2.67,2.67,2.67
			s2.67-1.198,2.67-2.67C331.391,279.377,330.193,278.179,328.72,278.179L328.72,278.179z"/>
		<path d="M316.453,322.495c1.124,0,2.036,0.911,2.036,2.036c0,1.124-0.911,2.036-2.036,2.036s-2.036-0.911-2.036-2.036
			C314.417,323.407,315.329,322.495,316.453,322.495 M316.453,321.429c-1.711,0-3.103,1.392-3.103,3.103s1.392,3.102,3.103,3.102
			s3.103-1.392,3.103-3.102S318.164,321.429,316.453,321.429L316.453,321.429z"/>
		<path d="M335.091,346.714c1.142,0,2.068,0.926,2.068,2.067c0,1.142-0.926,2.067-2.068,2.067c-1.142,0-2.067-0.926-2.067-2.067
			C333.024,347.639,333.95,346.714,335.091,346.714 M335.091,345.647c-1.728,0-3.134,1.406-3.134,3.134
			c0,1.728,1.406,3.134,3.134,3.134c1.728,0,3.134-1.406,3.134-3.134C338.226,347.053,336.82,345.647,335.091,345.647
			L335.091,345.647z"/>
		<path d="M166.862,324.531c0.946,0,1.713,0.767,1.713,1.712s-0.767,1.712-1.713,1.712s-1.712-0.767-1.712-1.712
			S165.916,324.531,166.862,324.531 M166.862,323.464c-1.533,0-2.779,1.247-2.779,2.779c0,1.532,1.247,2.779,2.779,2.779
			s2.779-1.247,2.779-2.779C169.641,324.711,168.394,323.464,166.862,323.464L166.862,323.464z"/>
		<path d="M185.299,364.434c1.142,0,2.067,0.926,2.067,2.067c0,1.142-0.926,2.067-2.067,2.067s-2.067-0.926-2.067-2.067
			C183.232,365.36,184.157,364.434,185.299,364.434 M185.299,363.367c-1.728,0-3.134,1.406-3.134,3.134
			c0,1.728,1.406,3.134,3.134,3.134c1.728,0,3.134-1.406,3.134-3.134C188.433,364.773,187.027,363.367,185.299,363.367
			L185.299,363.367z"/>
		<path d="M237.209,447.625c0.91,0,1.648,0.738,1.648,1.648s-0.738,1.649-1.648,1.649c-0.911,0-1.649-0.738-1.649-1.649
			S236.299,447.625,237.209,447.625 M237.209,446.558c-1.497,0-2.715,1.218-2.715,2.715s1.218,2.715,2.715,2.715
			s2.715-1.218,2.715-2.715S238.706,446.558,237.209,446.558L237.209,446.558z"/>
		<path d="M206.5,458.058c0.751,0,1.36,0.609,1.36,1.36c0,0.751-0.609,1.36-1.36,1.36c-0.751,0-1.36-0.609-1.36-1.36
			C205.14,458.667,205.749,458.058,206.5,458.058 M206.5,456.991c-1.338,0-2.427,1.089-2.427,2.427c0,1.338,1.089,2.427,2.427,2.427
			c1.338,0,2.427-1.089,2.427-2.427C208.927,458.08,207.838,456.991,206.5,456.991L206.5,456.991z"/>
		<path d="M253.361,454.194c0.534,0,0.966,0.433,0.966,0.966c0,0.534-0.432,0.966-0.966,0.966c-0.534,0-0.966-0.432-0.966-0.966
			C252.395,454.626,252.828,454.194,253.361,454.194 M253.361,453.127c-1.121,0-2.033,0.912-2.033,2.033
			c0,1.121,0.912,2.033,2.033,2.033c1.121,0,2.033-0.912,2.033-2.033C255.394,454.039,254.482,453.127,253.361,453.127
			L253.361,453.127z"/>
		<g>
			<path d="M149.45,100.904c4.237,0,7.672,3.435,7.672,7.672c0,4.237-3.435,7.672-7.672,7.672c-4.237,0-7.672-3.435-7.672-7.672
				C141.778,104.339,145.213,100.904,149.45,100.904 M149.45,99.837c-4.819,0-8.739,3.92-8.739,8.739
				c0,4.819,3.92,8.739,8.739,8.739s8.739-3.92,8.739-8.739C158.189,103.757,154.268,99.837,149.45,99.837L149.45,99.837z"/>
			<g>
				<path d="M147.286,102.49c-1.053,0.507-2.035,1.171-2.74,2.12c-0.494,0.664-1.101,1.662-0.702,2.487
					c0.059,0.121,0.253,0.144,0.34,0.044c0.509-0.583,0.594-1.422,1.059-2.061c0.621-0.853,1.513-1.439,2.442-1.906
					C148.143,102.944,147.742,102.27,147.286,102.49L147.286,102.49z"/>
			</g>
			<g>
				<path d="M143.511,108.855c0.07,0.415,0.211,0.75,0.54,1.02c0.331,0.271,0.744-0.059,0.576-0.444
					c-0.116-0.265-0.228-0.52-0.281-0.806C144.246,108.075,143.418,108.311,143.511,108.855L143.511,108.855z"/>
			</g>
			<g>
				<path d="M154.73,107.502c0.128,0.892-0.068,1.739-0.393,2.564c-0.249,0.631-0.657,1.199-0.724,1.88
					c-0.029,0.291,0.344,0.372,0.526,0.218c0.627-0.531,0.962-1.551,1.205-2.322c0.268-0.852,0.337-1.683,0.198-2.564
					C155.458,106.742,154.654,106.974,154.73,107.502L154.73,107.502z"/>
			</g>
			<g>
				<path d="M152.052,113.625c0.585,0,0.585-0.909,0-0.909C151.468,112.716,151.467,113.625,152.052,113.625L152.052,113.625z"/>
			</g>
		</g>
		<g>
			<path d="M174.591,106.639c3.151,0,5.706,2.555,5.706,5.706c0,3.151-2.555,5.706-5.706,5.706s-5.706-2.554-5.706-5.706
				C168.886,109.194,171.44,106.639,174.591,106.639 M174.591,105.572c-3.734,0-6.772,3.038-6.772,6.772
				c0,3.734,3.038,6.772,6.772,6.772s6.772-3.038,6.772-6.772C181.363,108.61,178.325,105.572,174.591,105.572L174.591,105.572z"/>
			<g>
				<path d="M173.314,108.238c-0.981,0.308-1.844,0.911-2.354,1.821c-0.469,0.837-0.813,2.18-0.25,3.039
					c0.126,0.192,0.518,0.208,0.556-0.073c0.111-0.82-0.072-1.563,0.284-2.362c0.375-0.843,1.08-1.47,1.937-1.798
					C173.869,108.717,173.721,108.11,173.314,108.238L173.314,108.238z"/>
			</g>
		</g>
		<g>
			<path d="M161.73,91.362c2.033,0,3.681,1.648,3.681,3.681c0,2.033-1.648,3.681-3.681,3.681c-2.033,0-3.681-1.648-3.681-3.681
				C158.049,93.01,159.697,91.362,161.73,91.362 M161.73,90.295c-2.618,0-4.748,2.13-4.748,4.748c0,2.618,2.13,4.748,4.748,4.748
				c2.618,0,4.748-2.13,4.748-4.748C166.478,92.425,164.348,90.295,161.73,90.295L161.73,90.295z"/>
			<g>
				<path d="M160.746,93.392c-0.529,0.353-1.273,1.146-0.91,1.825c0.084,0.157,0.311,0.177,0.432,0.056
					c0.38-0.382,0.353-0.911,0.84-1.261C161.476,93.746,161.136,93.133,160.746,93.392L160.746,93.392z"/>
			</g>
		</g>
		<g>
			<path d="M143.696,130.629c2.454,0,4.442,1.989,4.442,4.442c0,2.453-1.989,4.442-4.442,4.442c-2.453,0-4.442-1.989-4.442-4.442
				C139.254,132.618,141.243,130.629,143.696,130.629 M143.696,129.562c-3.038,0-5.509,2.471-5.509,5.509
				c0,3.038,2.471,5.509,5.509,5.509c3.038,0,5.509-2.471,5.509-5.509C149.205,132.033,146.734,129.562,143.696,129.562
				L143.696,129.562z"/>
			<g>
				<path d="M142.802,132.089c-1.428-0.093-2.609,2.375-1.845,3.497c0.151,0.221,0.576,0.234,0.632-0.083
					c0.084-0.476,0.001-0.924,0.153-1.398c0.148-0.464,0.487-1.222,1.06-1.2C143.33,132.926,143.322,132.123,142.802,132.089
					L142.802,132.089z"/>
			</g>
			<g>
				<path d="M141.568,136.956c0.66,0,0.661-1.025,0-1.025C140.908,135.931,140.907,136.956,141.568,136.956L141.568,136.956z"/>
			</g>
		</g>
		<g>
			<path d="M159.956,72.551c1.565,0,2.834,1.269,2.834,2.834s-1.269,2.834-2.834,2.834c-1.565,0-2.834-1.269-2.834-2.834
				S158.391,72.551,159.956,72.551 M159.956,71.484c-2.151,0-3.901,1.75-3.901,3.901s1.75,3.901,3.901,3.901
				c2.151,0,3.901-1.75,3.901-3.901S162.107,71.484,159.956,71.484L159.956,71.484z"/>
			<g>
				<path d="M158.903,73.416c-0.594,0.38-1.351,1.215-1.085,1.982c0.095,0.274,0.457,0.335,0.617,0.081
					c0.317-0.504,0.308-1.024,0.851-1.408C159.678,73.794,159.321,73.15,158.903,73.416L158.903,73.416z"/>
			</g>
			<g>
				<path d="M158.503,76.953c0.622,0,0.623-0.967,0-0.967C157.881,75.986,157.88,76.953,158.503,76.953L158.503,76.953z"/>
			</g>
		</g>
		<g>
			<path d="M111.694,170.589c1.705,0,3.087,1.382,3.087,3.087c0,1.705-1.382,3.087-3.087,3.087c-1.705,0-3.087-1.382-3.087-3.087
				C108.607,171.971,109.989,170.589,111.694,170.589 M111.694,169.522c-2.29,0-4.154,1.863-4.154,4.154
				c0,2.29,1.863,4.154,4.154,4.154c2.29,0,4.154-1.863,4.154-4.154C115.847,171.385,113.984,169.522,111.694,169.522
				L111.694,169.522z"/>
			<g>
				<path d="M111.187,171.934c-0.574,0.233-1.611,1.045-1.094,1.751c0.09,0.123,0.261,0.202,0.405,0.106
					c0.191-0.128,0.237-0.225,0.34-0.432c0.159-0.32,0.336-0.518,0.668-0.671C111.924,172.495,111.622,171.758,111.187,171.934
					L111.187,171.934z"/>
			</g>
		</g>
		<g>
			<path d="M320.082,32.468c4.649,0,8.417,3.769,8.417,8.417c0,4.649-3.769,8.417-8.417,8.417c-4.649,0-8.417-3.769-8.417-8.417
				C311.665,36.236,315.433,32.468,320.082,32.468 M320.082,31.401c-5.229,0-9.484,4.254-9.484,9.484
				c0,5.23,4.255,9.484,9.484,9.484s9.484-4.255,9.484-9.484C329.566,35.655,325.312,31.401,320.082,31.401L320.082,31.401z"/>
			<g>
				<path d="M319.205,33.574c-2.943,0.685-5.514,3.695-5.585,6.769c-0.009,0.383,0.604,0.597,0.769,0.208
					c0.516-1.221,0.738-2.493,1.489-3.623c0.842-1.268,2.068-2.184,3.542-2.575C319.924,34.219,319.711,33.456,319.205,33.574
					L319.205,33.574z"/>
			</g>
			<g>
				<path d="M317.661,37.705c-0.303,0.343-0.61,0.818-0.307,1.248c0.115,0.163,0.299,0.181,0.452,0.058
					c0.235-0.189,0.272-0.471,0.462-0.699C318.618,37.893,318.031,37.287,317.661,37.705L317.661,37.705z"/>
			</g>
			<g>
				<path d="M314.429,43.949c0.184,0.359,0.22,0.787,0.464,1.105c0.195,0.254,0.617,0.26,0.716-0.094
					c0.145-0.519-0.141-1.024-0.41-1.462C314.897,43.008,314.168,43.439,314.429,43.949L314.429,43.949z"/>
			</g>
			<g>
				<path d="M326.647,42.349c-0.228,0.601-0.713,0.82-1.111,1.261c-0.195,0.216-0.074,0.629,0.253,0.612
					c0.848-0.044,1.434-0.914,1.686-1.645C327.657,42.05,326.84,41.84,326.647,42.349L326.647,42.349z"/>
			</g>
		</g>
		<g>
			<path d="M301.398,30.991c1.797,0,3.254,1.457,3.254,3.254c0,1.797-1.457,3.254-3.254,3.254c-1.797,0-3.254-1.457-3.254-3.254
				C298.144,32.448,299.601,30.991,301.398,30.991 M301.398,29.924c-2.382,0-4.321,1.938-4.321,4.321s1.938,4.321,4.321,4.321
				c2.382,0,4.321-1.938,4.321-4.321S303.781,29.924,301.398,29.924L301.398,29.924z"/>
			<g>
				<path d="M302.836,35.218c-0.072,0.312-0.3,0.37-0.533,0.537c-0.249,0.179-0.195,0.506,0.081,0.617
					c0.624,0.252,1.178-0.352,1.296-0.921C303.793,34.903,302.964,34.666,302.836,35.218L302.836,35.218z"/>
			</g>
		</g>
		<g>
			<path d="M372.505,115.94c3.699,0,6.698,2.999,6.698,6.698c0,3.699-2.999,6.698-6.698,6.698c-3.699,0-6.698-2.999-6.698-6.698
				C365.807,118.939,368.806,115.94,372.505,115.94 M372.505,114.873c-4.281,0-7.765,3.483-7.765,7.765
				c0,4.281,3.483,7.764,7.765,7.764c4.281,0,7.764-3.483,7.764-7.764C380.269,118.356,376.786,114.873,372.505,114.873
				L372.505,114.873z"/>
			<g>
				<path d="M371.435,116.862c-1.382,0.085-2.597,1.075-3.516,2.054c-0.922,0.982-1.407,2.452-1.225,3.789
					c0.054,0.398,0.607,0.303,0.715,0c0.4-1.124,0.275-2.203,1.146-3.152c0.73-0.796,1.762-1.745,2.879-1.823
					C371.988,117.69,371.995,116.828,371.435,116.862L371.435,116.862z"/>
			</g>
			<g>
				<path d="M367.196,124.412c0.585,0,0.586-0.908,0-0.908C366.612,123.503,366.611,124.412,367.196,124.412L367.196,124.412z"/>
			</g>
			<g>
				<path d="M371.394,118.825c-0.916,0.255-2.277,1.167-2.093,2.27c0.046,0.272,0.404,0.313,0.578,0.153
					c0.276-0.254,0.375-0.631,0.615-0.922c0.296-0.36,0.665-0.605,1.106-0.753C372.069,119.414,371.879,118.689,371.394,118.825
					L371.394,118.825z"/>
			</g>
			<g>
				<path d="M371.628,121.389c0.579,0,0.58-0.9,0-0.9C371.048,120.489,371.047,121.389,371.628,121.389L371.628,121.389z"/>
			</g>
			<g>
				<path d="M368.462,125.989c0.386,0.769,1.533,1.909,2.493,1.511c0.303-0.126,0.37-0.489,0.09-0.686
					c-0.297-0.208-0.669-0.225-0.99-0.398c-0.375-0.203-0.639-0.497-0.844-0.865C368.937,125.061,368.213,125.493,368.462,125.989
					L368.462,125.989z"/>
			</g>
			<g>
				<path d="M369.89,123.659c0.058,0.009,0.115,0.019,0.173,0.029c0.166,0.027,0.344-0.041,0.389-0.221
					c0.012-0.049,0.025-0.099,0.037-0.148c0.103-0.409-0.343-0.771-0.716-0.551C369.44,122.965,369.458,123.587,369.89,123.659
					L369.89,123.659z"/>
			</g>
		</g>
		<g>
			<path d="M378.813,99.222c1.37,0,2.481,1.111,2.481,2.481c0,1.37-1.111,2.481-2.481,2.481c-1.37,0-2.481-1.111-2.481-2.481
				C376.332,100.333,377.443,99.222,378.813,99.222 M378.813,98.155c-1.956,0-3.547,1.591-3.547,3.548
				c0,1.956,1.591,3.548,3.547,3.548c1.956,0,3.548-1.591,3.548-3.548C382.361,99.747,380.769,98.155,378.813,98.155L378.813,98.155
				z"/>
			<g>
				<path d="M378.831,100.022c-0.612,0.153-1.418,0.593-1.428,1.304c-0.004,0.265,0.291,0.417,0.514,0.295
					c0.433-0.238,0.622-0.645,1.138-0.788C379.577,100.689,379.358,99.891,378.831,100.022L378.831,100.022z"/>
			</g>
		</g>
		<g>
			<path d="M338.045,293.847c2.773,0,5.021,2.248,5.021,5.021c0,2.773-2.248,5.021-5.021,5.021c-2.773,0-5.021-2.248-5.021-5.021
				C333.024,296.095,335.272,293.847,338.045,293.847 M338.045,292.78c-3.357,0-6.088,2.731-6.088,6.088
				c0,3.357,2.731,6.088,6.088,6.088c3.357,0,6.088-2.731,6.088-6.088C344.133,295.511,341.402,292.78,338.045,292.78
				L338.045,292.78z"/>
			<g>
				<path d="M337.294,294.856c-1.637,0.137-3.472,2.067-3.347,3.758c0.033,0.449,0.755,0.622,0.843,0.114
					c0.211-1.22,1.113-2.894,2.504-3.047C337.812,295.624,337.828,294.811,337.294,294.856L337.294,294.856z"/>
			</g>
			<g>
				<path d="M334.289,300.222c0.085,0.189,0.13,0.247,0.275,0.394c0.23,0.233,0.615,0.052,0.626-0.259
					c0.007-0.207-0.005-0.286-0.07-0.484C334.915,299.257,334.014,299.613,334.289,300.222L334.289,300.222z"/>
			</g>
			<g>
				<path d="M341.365,297.442c0.159,0.357,0.171,0.688,0.113,1.066c-0.079,0.516,0.662,0.753,0.804,0.222
					c0.159-0.597,0.06-1.155-0.204-1.704C341.845,296.543,341.152,296.965,341.365,297.442L341.365,297.442z"/>
			</g>
			<g>
				<path d="M341.498,300.676c0.601,0,0.602-0.933,0-0.933C340.897,299.742,340.896,300.676,341.498,300.676L341.498,300.676z"/>
			</g>
		</g>
		<g>
			<path d="M163.826,353.507c5.057,0,9.156,4.099,9.156,9.156c0,5.057-4.099,9.156-9.156,9.156s-9.156-4.099-9.156-9.156
				C154.671,357.606,158.77,353.507,163.826,353.507 M163.826,352.44c-5.637,0-10.222,4.586-10.222,10.222
				c0,5.637,4.586,10.223,10.222,10.223c5.637,0,10.223-4.586,10.223-10.223C174.049,357.026,169.463,352.44,163.826,352.44
				L163.826,352.44z"/>
			<g>
				<path d="M163.277,354.473c-2.068,0.129-4.852,2.091-5.656,3.998c-0.163,0.387,0.391,0.606,0.648,0.377
					c1.472-1.312,2.813-3.353,5.008-3.525C163.817,355.28,163.826,354.438,163.277,354.473L163.277,354.473z"/>
			</g>
			<g>
				<path d="M158.449,359.161c1.223-1.029,2.213,1.495,1.469,2.359c-0.861,1-2.168,0.552-3.224,0.311
					c-0.399-0.091-0.772,0.426-0.426,0.731c1.452,1.281,4.701,0.558,4.916-1.561c0.179-1.766-1.649-3.999-3.372-2.476
					C157.375,358.911,158.011,359.53,158.449,359.161L158.449,359.161z"/>
			</g>
			<g>
				<path d="M156.189,362.079c-0.575,1.3-0.765,3.522,0.486,4.534c0.291,0.236,0.789,0.026,0.669-0.389
					c-0.18-0.624-0.538-1.136-0.624-1.8c-0.09-0.697-0.001-1.362,0.246-2.018C157.134,361.96,156.385,361.638,156.189,362.079
					L156.189,362.079z"/>
			</g>
			<g>
				<path d="M161.755,356.428c-0.845,0.609-1.649,1.315-2.237,2.181c-0.253,0.372,0.331,0.83,0.628,0.485
					c0.624-0.726,1.23-1.421,1.996-2.004C162.527,356.798,162.16,356.136,161.755,356.428L161.755,356.428z"/>
			</g>
			<g>
				<path d="M161.295,358.245c-0.03,0.06-0.06,0.121-0.09,0.181c-0.156,0.315,0.158,0.63,0.473,0.473
					c0.06-0.03,0.121-0.06,0.181-0.09C162.479,358.502,161.605,357.621,161.295,358.245L161.295,358.245z"/>
			</g>
			<g>
				<path d="M157.497,364.488c0.023,0.159,0.049,0.226,0.142,0.355c0.171,0.237,0.469,0.237,0.64,0
					c0.093-0.129,0.119-0.197,0.142-0.355C158.534,363.715,157.383,363.71,157.497,364.488L157.497,364.488z"/>
			</g>
			<g>
				<path d="M170.958,363.403c0.103,2.106-1.253,3.518-2.718,4.822c-0.308,0.274,0.021,0.751,0.385,0.662
					c1.06-0.259,1.781-1.347,2.311-2.23c0.661-1.101,0.974-1.956,0.872-3.253C171.766,362.864,170.931,362.851,170.958,363.403
					L170.958,363.403z"/>
			</g>
			<g>
				<path d="M167.115,369.66c0.643,0,0.645-1,0-1C166.471,368.66,166.47,369.66,167.115,369.66L167.115,369.66z"/>
			</g>
		</g>
		<g>
			<path d="M151.912,328.83c4.367,0,7.908,3.54,7.908,7.908c0,4.367-3.541,7.908-7.908,7.908c-4.368,0-7.908-3.541-7.908-7.908
				C144.004,332.371,147.544,328.83,151.912,328.83 M151.912,327.763c-4.949,0-8.975,4.026-8.975,8.975s4.026,8.975,8.975,8.975
				c4.949,0,8.975-4.026,8.975-8.975S156.861,327.763,151.912,327.763L151.912,327.763z"/>
			<g>
				<path d="M149.972,330.519c-2.913,0.874-4.42,4.436-3.908,7.233c0.093,0.508,0.882,0.376,0.884-0.12
					c0.006-1.361-0.052-2.462,0.651-3.693c0.627-1.099,1.332-2.262,2.557-2.754C150.558,331.025,150.41,330.388,149.972,330.519
					L149.972,330.519z"/>
			</g>
			<g>
				<path d="M146.884,339.674c0.633,0,0.634-0.983,0-0.983C146.251,338.691,146.25,339.674,146.884,339.674L146.884,339.674z"/>
			</g>
			<g>
				<path d="M147.77,341.237c0.649,0,0.65-1.008,0-1.008C147.121,340.229,147.12,341.237,147.77,341.237L147.77,341.237z"/>
			</g>
			<g>
				<path d="M157.859,335.227c0.258,0.698,0.369,1.408,0.274,2.15c-0.089,0.695-0.455,1.268-0.604,1.934
					c-0.086,0.386,0.35,0.621,0.641,0.373c1.22-1.041,1.057-3.355,0.525-4.687C158.492,334.488,157.663,334.698,157.859,335.227
					L157.859,335.227z"/>
			</g>
			<g>
				<path d="M156.5,340.484c-0.022,0.008-0.045,0.016-0.067,0.024c-0.438,0.157-0.439,0.735,0,0.892
					c0.022,0.008,0.045,0.016,0.067,0.024C157.282,341.705,157.287,340.202,156.5,340.484L156.5,340.484z"/>
			</g>
		</g>
		<g>
			<path d="M177.21,336.738c3.326,0,6.021,2.696,6.021,6.021c0,3.326-2.696,6.021-6.021,6.021c-3.326,0-6.021-2.696-6.021-6.021
				C171.189,339.434,173.885,336.738,177.21,336.738 M177.21,335.671c-3.908,0-7.088,3.18-7.088,7.088
				c0,3.908,3.18,7.088,7.088,7.088c3.909,0,7.088-3.18,7.088-7.088C184.298,338.851,181.119,335.671,177.21,335.671L177.21,335.671
				z"/>
			<g>
				<path d="M176.231,338.243c-1.813,0.401-3.409,2.049-3.427,3.965c-0.004,0.456,0.738,0.585,0.819,0.111
					c0.271-1.599,1.176-2.912,2.819-3.313C176.938,338.885,176.727,338.133,176.231,338.243L176.231,338.243z"/>
			</g>
			<g>
				<path d="M173.465,343.858c0.601,0,0.602-0.934,0-0.934C172.864,342.924,172.863,343.858,173.465,343.858L173.465,343.858z"/>
			</g>
		</g>
		<g>
			<path d="M227.673,454.194c3.636,0,6.584,2.948,6.584,6.584s-2.948,6.584-6.584,6.584c-3.636,0-6.584-2.948-6.584-6.584
				S224.037,454.194,227.673,454.194 M227.673,453.127c-4.219,0-7.651,3.432-7.651,7.651c0,4.219,3.432,7.651,7.651,7.651
				c4.219,0,7.651-3.432,7.651-7.651C235.324,456.559,231.892,453.127,227.673,453.127L227.673,453.127z"/>
			<g>
				<path d="M225.772,455.782c-0.901,0.245-1.708,0.731-2.307,1.452c-0.485,0.584-1.132,1.569-0.934,2.362
					c0.083,0.333,0.502,0.334,0.678,0.089c0.195-0.272,0.23-0.604,0.364-0.91c0.152-0.348,0.358-0.673,0.607-0.959
					c0.49-0.564,1.111-0.977,1.823-1.199C226.533,456.453,226.314,455.635,225.772,455.782L225.772,455.782z"/>
			</g>
			<g>
				<path d="M222.971,461.694c0.638,0,0.639-0.992,0-0.992C222.333,460.702,222.332,461.694,222.971,461.694L222.971,461.694z"/>
			</g>
			<g>
				<path d="M227.996,455.508c-0.17,0.099-0.243,0.152-0.374,0.297c-0.221,0.245-0.06,0.602,0.259,0.626
					c0.196,0.015,0.291-0.001,0.484-0.047C229.031,456.225,228.616,455.148,227.996,455.508L227.996,455.508z"/>
			</g>
			<g>
				<path d="M232.272,459.431c0.176,0.302,0.267,0.634,0.227,0.985c-0.037,0.319-0.22,0.589-0.263,0.903
					c-0.042,0.307,0.237,0.592,0.545,0.419c0.921-0.518,0.704-1.989,0.204-2.723C232.689,458.581,232.002,458.967,232.272,459.431
					L232.272,459.431z"/>
			</g>
			<g>
				<path d="M231.445,463.21c0.023,0,0.023-0.036,0-0.036S231.422,463.21,231.445,463.21L231.445,463.21z"/>
			</g>
		</g>
	</g>
	<g>
		<g>
			<path d="M196.611,351.4c5.444,8.727,5.805,18.294,2.296,27.812c-0.055,0.149,0.19,0.254,0.259,0.109
				c4.32-9.11,3.078-19.709-2.209-28.123C196.819,350.981,196.474,351.181,196.611,351.4L196.611,351.4z"/>
		</g>
		<g>
			<g>
				<path d="M66.831,204.122c-21.511,30.19,16.03,60.742,38.214,75.797c29.724,20.172,66.626,30.609,90.92,58.206
					c0.21,0.238,0.555-0.111,0.348-0.348c-20.742-23.692-50.975-34.415-77.554-49.841c-15.321-8.892-30.656-19.497-42.707-32.589
					c-12.543-13.625-20.704-34.284-8.853-51.012C67.357,204.113,66.988,203.901,66.831,204.122L66.831,204.122z"/>
			</g>
			<g>
				<path d="M199.091,342.721c0.491,0.588,0.98,1.179,1.523,1.72c0.074,0.074,0.206-0.022,0.147-0.114
					c-0.421-0.659-0.905-1.275-1.385-1.892C199.219,342.233,198.923,342.521,199.091,342.721L199.091,342.721z"/>
			</g>
			<g>
				<path d="M203.368,348.991c0.271,0,0.271-0.421,0-0.421C203.097,348.57,203.097,348.991,203.368,348.991L203.368,348.991z"/>
			</g>
			<g>
				<path d="M195.862,384.606c-0.304,0.213-0.619,0.413-0.895,0.661c-0.154,0.138,0.042,0.345,0.207,0.268
					c0.321-0.149,0.616-0.351,0.917-0.538C196.342,384.843,196.1,384.439,195.862,384.606L195.862,384.606z"/>
			</g>
			<g>
				<path d="M393.716,272.187c5.737,4.587,8.871,11.233,11.979,17.725c3.329,6.954,6.277,14.138,8.202,21.617
					c3.728,14.487,3.489,31.15-5.003,44.023c-16.328,24.751-50.641,22.044-74.67,34.191c-0.309,0.156-0.037,0.618,0.271,0.464
					c25.412-12.618,63.972-9.784,77.716-39.554c5.68-12.302,5.502-26.347,2.177-39.259c-1.844-7.159-4.636-14.055-7.809-20.719
					c-3.267-6.862-6.517-13.946-12.61-18.741C393.79,271.793,393.535,272.043,393.716,272.187L393.716,272.187z"/>
			</g>
			<g>
				<path d="M329.411,392.39c-1.051,0.477-2.301,1.082-3.045,1.995c-0.083,0.102,0.019,0.253,0.144,0.186
					c0.527-0.282,0.995-0.678,1.502-0.995c0.513-0.32,1.047-0.598,1.596-0.848C329.838,392.624,329.639,392.286,329.411,392.39
					L329.411,392.39z"/>
			</g>
			<g>
				<path d="M322.982,396.816c0.244,0,0.244-0.379,0-0.379C322.738,396.437,322.738,396.816,322.982,396.816L322.982,396.816z"/>
			</g>
			<g>
				<path d="M314.713,403.428c0.011,0,0.012-0.018,0-0.018C314.701,403.411,314.701,403.428,314.713,403.428L314.713,403.428z"/>
			</g>
			<g>
				<path d="M316.072,383.084c-9.03,4.385-16.549,12.174-17.13,22.675c-0.492,8.896,4.888,17.185,13.658,19.384
					c0.255,0.064,0.36-0.317,0.109-0.394c-9.87-3.012-15.273-12.872-12.695-22.961c2.192-8.577,8.525-14.562,16.267-18.348
					C316.518,383.323,316.309,382.968,316.072,383.084L316.072,383.084z"/>
			</g>
			<g>
				<path d="M318.202,425.477c0.683,0.196,1.377,0.439,2.083,0.534c0.169,0.023,0.322-0.22,0.13-0.309
					c-0.662-0.304-1.39-0.476-2.088-0.68C318.035,424.938,317.91,425.393,318.202,425.477L318.202,425.477z"/>
			</g>
		</g>
	</g>
</g>
</svg>
