<?xml version="1.0" encoding="utf-8"?>
<!-- Generator: Adobe Illustrator 27.5.0, SVG Export Plug-In . SVG Version: 6.00 Build 0)  -->
<svg xmlns="http://www.w3.org/2000/svg" xmlns:xlink="http://www.w3.org/1999/xlink" viewBox="0 0 500 500" width="595" height="842" preserveAspectRatio="xMidYMid meet" data-scaled="true">
<g id="BACKGROUND">
	<rect style="fill:#FFFFFF;" width="500" height="500"/>
</g>
<g id="OBJECTS">
	<g>
		<path style="fill:#FFFFFF;stroke:#231F20;stroke-width:2;stroke-linecap:round;stroke-linejoin:round;stroke-miterlimit:10;" d="
			M431.718,163.24c5.089-18.995,22.778-35.428,42.357-37.256c-17.216-6.16-37.343-0.544-49.745,12.893
			c3.651-21.207,19.592-40.87,40.045-47.559c-11.797-2.407-24.521,0.119-34.504,6.85c-9.983,6.731-16.635,17.46-18.827,29.298
			c-10.328-20.492-8.296-47.586,6.206-65.371c-10.698,3.749-19.644,12.223-23.966,22.704c-4.322,10.48-3.695,22.815,1.251,33.016
			c-12.696-13.434-31.633-19.299-48.979-12.913c11.432,3.117,21.685,10.384,28.414,20.138c6.728,9.754,9.88,21.919,8.733,33.713
			C398.626,160.955,415.797,161.035,431.718,163.24z"/>
		<g>
			<path style="fill:#FFFFFF;stroke:#231F20;stroke-width:2;stroke-linecap:round;stroke-linejoin:round;stroke-miterlimit:10;" d="
				M405.979,220.145c-1.364,15.814,4.989,31.12,8.6,46.577s3.753,33.694-7.444,44.944c-11.035,11.087-28.634,11.216-44.265,10.616
				c-12.624-0.485-27.221-2.026-34.145-12.592c-4.801-7.326-4.274-16.821-3.172-25.509c2.945-23.204,8.762-46.042,17.276-67.828
				C362.297,219.834,386.217,220.921,405.979,220.145z"/>
			<path style="fill:#FFFFFF;stroke:#231F20;stroke-width:2;stroke-linecap:round;stroke-linejoin:round;stroke-miterlimit:10;" d="
				M389.592,119.368c35.973,4.568,59.679,41.619,75.493,99.565c3.529,12.929-4.459,26.258-17.572,29.024
				c-49.016,10.339-109.944,3.941-151.478-15.717c-12.224-5.786-16.939-20.737-10.334-32.539
				C314.312,148.58,361.555,115.522,389.592,119.368z"/>
			<g>
				<path style="fill:none;stroke:#231F20;stroke-linecap:round;stroke-linejoin:round;stroke-miterlimit:10;" d="M434.798,149.006
					c-6.51,7.17-14.52,12.92-23.83,15.28c-12.87,3.27-28.28-1.47-34.51-13.2c-3.78-7.12-3.78-15.84-1.29-23.5
					c0.91-2.8,2.12-5.48,3.56-8.04h0.01c3.85-0.57,7.49-0.64,10.85-0.18C407.528,121.636,422.418,132.006,434.798,149.006z"/>
				<path style="fill:none;stroke:#231F20;stroke-linecap:round;stroke-linejoin:round;stroke-miterlimit:10;" d="M447.518,247.956
					c-10.77,2.27-22.1,3.73-33.69,4.43c-0.85-8.51-0.29-17.13,2.49-25.17c3.83-11.1,12.35-20.95,23.55-24.48
					c6.8-2.14,14.5-1.53,20.89,1.51c1.51,4.73,2.95,9.63,4.33,14.69C468.618,231.866,460.628,245.196,447.518,247.956z"/>
				<path style="fill:none;stroke:#231F20;stroke-linecap:round;stroke-linejoin:round;stroke-miterlimit:10;" d="M319.538,208.246
					c-11.64,4.22-25.43,1.25-34.7-6.86c0.26-0.57,0.55-1.13,0.86-1.69c11.58-20.7,26.23-38.44,41.41-51.96
					c8.42,5.94,14.3,15.6,14.99,25.91C343.098,188.386,333.428,203.216,319.538,208.246z"/>
			</g>
			<g>
				<path style="fill:#231F20;" d="M362.897,191.604c-0.707,2.004-2.905,3.056-4.909,2.349c-2.004-0.707-3.056-2.905-2.349-4.909
					c0.707-2.004,2.905-3.056,4.909-2.349C362.552,187.401,363.604,189.599,362.897,191.604z"/>
				<path style="fill:#231F20;" d="M403.308,194.597c-0.707,2.004-2.905,3.056-4.909,2.349c-2.004-0.707-3.056-2.905-2.349-4.909
					c0.707-2.004,2.905-3.056,4.909-2.349C402.963,190.395,404.015,192.593,403.308,194.597z"/>
				<path style="fill:none;stroke:#231F20;stroke-width:2;stroke-linecap:round;stroke-linejoin:round;stroke-miterlimit:10;" d="
					M363.901,199.132c3.432,4.408,8.686,7.352,14.238,7.978c5.552,0.626,11.329-1.075,15.656-4.609"/>
			</g>
		</g>
	</g>
	<g>
		<g>
			<g>
				<g>
					<path style="fill:none;stroke:#231F20;stroke-width:2;stroke-linecap:round;stroke-linejoin:round;stroke-miterlimit:10;" d="
						M246.033,77.655c16.119,3.042,31.117,11.727,41.778,24.193c10.661,12.467,16.914,28.63,17.418,45.026"/>
					
						<path style="fill:#FFFFFF;stroke:#231F20;stroke-width:2;stroke-linecap:round;stroke-linejoin:round;stroke-miterlimit:10;" d="
						M282.339,95.585c-2.978-3.819-4.219-8.94-3.319-13.699c0.9-4.758,3.925-9.073,8.092-11.541
						c2.667,3.765,4.574,8.866,3.816,13.417C290.169,88.314,286.082,92.888,282.339,95.585z"/>
				</g>
				<g>
					
						<path style="fill:#FFFFFF;stroke:#231F20;stroke-width:2;stroke-linecap:round;stroke-linejoin:round;stroke-miterlimit:10;" d="
						M257.481,90.686c-10.195-6.148-21.853-9.835-33.72-10.735c-2.217-0.168-2.73-3.222-0.662-4.037
						c3.792-1.495,7.783-2.487,11.835-2.927l-7.714-9.639c-1.293-1.616,0.291-3.967,2.259-3.326
						c4.071,1.326,7.929,3.305,11.37,5.853c-1.843-4.134-2.592-8.74-2.215-13.249c0.17-2.031,2.824-2.701,3.885-0.96
						c5.289,8.676,11.974,16.501,19.728,23.07C263.349,81.307,261.194,85.152,257.481,90.686z"/>
					
						<path style="fill:#FFFFFF;stroke:#231F20;stroke-width:2;stroke-linecap:round;stroke-linejoin:round;stroke-miterlimit:10;" d="
						M263.722,87.551c-6.467-3.802-11.155-10.502-12.51-17.881c-1.356-7.378,0.644-15.307,5.338-21.16
						c7.144,3.069,11.685,9.922,13.216,17.545C271.296,73.679,269.127,81.962,263.722,87.551z"/>
					
						<path style="fill:#FFFFFF;stroke:#231F20;stroke-width:2;stroke-linecap:round;stroke-linejoin:round;stroke-miterlimit:10;" d="
						M264.788,85.869c-5.811-4.003-13.016-5.938-20.051-5.385c-7.035,0.553-13.849,3.589-18.964,8.45
						c4.164,3.239,8.593,6.033,13.606,7.674c5.014,1.641,10.538,2.027,15.562,0.418S262.964,90.818,264.788,85.869z"/>
				</g>
			</g>
			<g>
				<path style="fill:none;stroke:#231F20;stroke-width:2;stroke-linecap:round;stroke-linejoin:round;stroke-miterlimit:10;" d="
					M330.553,71.777c-8.919,27.77-14.625,56.571-16.968,85.645"/>
				<g>
					
						<path style="fill:#FFFFFF;stroke:#231F20;stroke-width:2;stroke-linecap:round;stroke-linejoin:round;stroke-miterlimit:10;" d="
						M316.183,88.021c1.56-14.133-0.28-28.62-5.247-41.94c-0.928-2.488,2.126-4.574,4.046-2.74c3.52,3.363,6.594,7.194,9.1,11.368
						l6.589-13.192c1.104-2.211,4.447-1.671,4.738,0.783c0.601,5.078,0.387,10.253-0.652,15.26c3.56-4.069,8.179-7.188,13.257-9.038
						c2.287-0.833,4.343,1.71,2.987,3.732c-6.759,10.08-11.896,21.248-15.135,32.945C329.292,89.686,324.043,89.275,316.183,88.021z
						"/>
					
						<path style="fill:#FFFFFF;stroke:#231F20;stroke-width:2;stroke-linecap:round;stroke-linejoin:round;stroke-miterlimit:10;" d="
						M322.708,93.218c0.884-8.917,5.801-17.355,13.123-22.52c7.322-5.165,16.921-6.967,25.617-4.81
						c0.25,9.284-4.906,17.639-12.406,23.117C341.543,94.483,331.475,96.28,322.708,93.218z"/>
					
						<path style="fill:#FFFFFF;stroke:#231F20;stroke-width:2;stroke-linecap:round;stroke-linejoin:round;stroke-miterlimit:10;" d="
						M325.067,93.532c1.43-8.306-0.08-17.088-4.203-24.439c-4.122-7.351-10.828-13.22-18.66-16.331
						c-1.427,6.137-2.239,12.339-1.507,18.597c0.731,6.258,3.08,12.442,7.341,17.084C312.298,93.085,318.786,94.032,325.067,93.532z
						"/>
				</g>
			</g>
		</g>
		<g>
			<g>
				<g>
					<path style="fill:none;stroke:#231F20;stroke-width:2;stroke-linecap:round;stroke-linejoin:round;stroke-miterlimit:10;" d="
						M192.127,127.858c-5.812-6.566-8.624-15.688-7.519-24.387"/>
					
						<path style="fill:#FFFFFF;stroke:#231F20;stroke-width:2;stroke-linecap:round;stroke-linejoin:round;stroke-miterlimit:10;" d="
						M180.243,97.701c-2.803,1.54-4.003,5.443-2.55,8.292c1.453,2.849,5.317,4.169,8.209,2.804
						C193.477,105.223,187.555,93.683,180.243,97.701z"/>
				</g>
				<g>
					<path style="fill:none;stroke:#231F20;stroke-width:2;stroke-linecap:round;stroke-linejoin:round;stroke-miterlimit:10;" d="
						M208.897,132.999c-1.338-9.185,0.936-18.848,6.229-26.474"/>
					
						<path style="fill:#FFFFFF;stroke:#231F20;stroke-width:2;stroke-linecap:round;stroke-linejoin:round;stroke-miterlimit:10;" d="
						M214.737,99.181c-2.22,0.508-3.959,2.576-4.184,4.843c-0.225,2.267,1.015,4.586,2.971,5.753
						c2.054,1.226,4.92,1.105,6.667-0.527C224.207,105.499,220.028,97.97,214.737,99.181z"/>
				</g>
			</g>
			<path style="fill:#FFFFFF;stroke:#231F20;stroke-width:2;stroke-linecap:round;stroke-linejoin:round;stroke-miterlimit:10;" d="
				M174.684,115.528c5.123-1.416,11.078,1.724,12.802,6.752c-0.057-5.899,5.574-11.217,11.46-10.824
				c5.886,0.393,10.759,6.412,9.919,12.251c2.183-4.479,8.084-6.431,12.801-4.823c4.717,1.608,8.061,6.174,9.007,11.067
				c0.946,4.893-0.254,10.015-2.492,14.467c-6.597,13.123-22.865,20.539-37.098,16.913c-10.043-2.559-18.33-10.423-22.172-19.952
				C165.797,133.656,164.08,118.459,174.684,115.528z"/>
			<g>
				<g>
					
						<path style="fill:#FFFFFF;stroke:#231F20;stroke-width:2;stroke-linecap:round;stroke-linejoin:round;stroke-miterlimit:10;" d="
						M196.323,155.426c3.086-3.107,6.375-6.099,10.254-8.059c3.879-1.96,8.449-2.807,12.551-1.478s7.535,5.132,7.728,9.536
						c0.141,3.232-1.43,6.394-3.728,8.639c-2.297,2.245-5.258,3.663-8.288,4.624c-5.199,1.65-10.763,2.01-16.114,1.134
						c-3.053-0.5-11.929-1.93-9.11-7.017C191.127,160.077,194.152,157.612,196.323,155.426z"/>
					<path style="fill:none;stroke:#231F20;stroke-width:2;stroke-linecap:round;stroke-linejoin:round;stroke-miterlimit:10;" d="
						M219.223,155.624c-9.731,0.849-19.301,3.76-27.93,8.495"/>
				</g>
				<g>
					
						<path style="fill:#FFFFFF;stroke:#231F20;stroke-width:2;stroke-linecap:round;stroke-linejoin:round;stroke-miterlimit:10;" d="
						M176.335,161.163c-3.853-2.081-7.652-4.39-10.629-7.557c-2.977-3.167-5.081-7.311-4.966-11.621
						c0.115-4.31,2.792-8.679,6.962-10.109c3.06-1.049,6.537-0.435,9.34,1.133c2.803,1.569,5,4.008,6.778,6.642
						c3.052,4.521,4.971,9.755,5.643,15.137c0.383,3.07,1.521,11.988-4.156,10.722C182.266,164.832,179.046,162.628,176.335,161.163
						z"/>
					<path style="fill:none;stroke:#231F20;stroke-width:2;stroke-linecap:round;stroke-linejoin:round;stroke-miterlimit:10;" d="
						M170.051,139.141c3.565,9.094,9.063,17.451,16.044,24.389"/>
				</g>
			</g>
		</g>
		<g>
			<path style="fill:#FFFFFF;stroke:#231F20;stroke-width:2;stroke-linecap:round;stroke-linejoin:round;stroke-miterlimit:10;" d="
				M234.082,427.044c29.102-0.087,59.044-0.99,88.146-1.076c5.075-3.717,8.08-10.092,7.718-16.372
				c-0.362-6.28-4.079-12.268-9.547-15.378c7.763-2.724,13.361-10.699,13.284-18.925c-0.077-8.226-5.822-16.096-13.634-18.674
				c7.882-3.622,13.304-12.053,13.331-20.727c0.026-8.674-5.344-17.138-13.204-20.808c7.681-2.447,13.268-10.329,13.033-18.387
				c-0.235-8.058-6.272-15.601-14.083-17.596c5.884-3.295,9.699-9.985,9.537-16.727c-0.162-6.742-2.887-14.994-8.923-18.003
				c8.133-2.295,14.093-10.687,13.58-19.122c-0.512-8.435-5.772-15.593-14.123-16.887c7.247-5.083,10.491-15.2,7.551-23.549
				c-2.94-8.349-10.386-14.003-19.218-13.425c4.303-2.619,7.186-7.299,8.005-12.269c0.819-4.97-0.332-10.169-2.802-14.559
				c-5.207-9.255-15.054-16.399-25.518-14.588c1.829-6.18,0.594-13.195-3.263-18.358c-3.857-5.163-10.252-8.34-16.696-8.26
				c-5,0.062-9.952,2.04-13.618,5.44c-4.688,4.347-7.071,10.632-8.546,16.852c-6.659-0.226-15.927,3.87-18.839,9.863
				c-2.912,5.993-1.957,13.661,2.336,18.757c-6.971,1.153-12.834,7.226-13.74,14.234c-0.906,7.008,3.22,14.372,9.669,17.26
				c-7.012,2.46-12.038,9.717-11.877,17.146c0.161,7.429,5.498,14.46,12.61,16.614c-7.686,3.981-13.013,12.176-13.532,20.817
				c-0.518,8.64,3.791,17.414,10.946,22.285c-6.638,4.1-10.98,11.684-11.156,19.484c-0.176,7.8,3.819,15.572,10.265,19.968
				c-7.631,3.862-12.873,12.059-13.176,20.606c-0.303,8.547,4.344,17.095,11.682,21.488c-7.916,2.857-13.462,11.251-12.986,19.654
				c0.476,8.402,6.934,16.116,15.122,18.062c-8.142,8.55-7.4,23.917,1.528,31.643c-3.548,1.265-5.149,6.206-3.017,9.311
				C223.061,425.943,231.627,429.901,234.082,427.044z"/>
			<g>
				<g>
					<path style="fill:none;stroke:#231F20;stroke-linecap:round;stroke-linejoin:round;stroke-miterlimit:10;" d="M260.965,118.084
						c-6.705,2.165-11.754,8.71-12.146,15.745c-0.392,7.035,3.898,14.101,10.321,16.997c-5.566,2.44-9.605,8.054-10.148,14.108
						c-0.543,6.053,2.431,12.297,7.474,15.689c-6.34,1.851-11.107,8.133-11.183,14.737c-0.076,6.605,4.543,12.995,10.839,14.992
						c-9.855,5.682-12.697,20.645-5.611,29.544"/>
					<path style="fill:none;stroke:#231F20;stroke-linecap:round;stroke-linejoin:round;stroke-miterlimit:10;" d="M288.289,167.833
						c6.417,2.108,11.529,7.787,12.953,14.39c1.424,6.603-0.891,13.884-5.868,18.451c5.568,3.889,8.911,10.763,8.532,17.544
						c-0.38,6.781-4.469,13.239-10.436,16.482c5.718,3.191,9.497,9.591,9.529,16.139c0.032,6.548-3.685,12.985-9.371,16.231
						c5.089,3.297,8.42,9.156,8.652,15.216c0.231,6.059-2.644,12.155-7.466,15.831"/>
					<path style="fill:none;stroke:#231F20;stroke-linecap:round;stroke-linejoin:round;stroke-miterlimit:10;" d="M253.581,283.833
						c-6.418,2.579-11.131,8.966-11.703,15.859c-0.572,6.893,3.024,13.969,8.93,17.571c-6.084,3.293-9.967,10.275-9.555,17.181
						c0.412,6.906,5.096,13.377,11.528,15.924c-5.982,2.655-9.966,9.257-9.527,15.787c0.439,6.53,5.27,12.539,11.554,14.37
						c-4.444,1.858-7.88,5.962-8.93,10.663c-1.049,4.702,0.317,9.876,3.549,13.448"/>
				</g>
				<g>
					
						<path style="fill:#FFFFFF;stroke:#231F20;stroke-width:2;stroke-linecap:round;stroke-linejoin:round;stroke-miterlimit:10;" d="
						M291.997,149.753c0.535,2.718-1.435,5.681-4.149,6.237c-2.714,0.557-5.691-1.391-6.269-4.1
						C280.145,145.172,290.668,143.007,291.997,149.753z"/>
					
						<path style="fill:#FFFFFF;stroke:#231F20;stroke-width:2;stroke-linecap:round;stroke-linejoin:round;stroke-miterlimit:10;" d="
						M257.198,189.936c-0.425,2.255,0.804,4.717,2.857,5.745c2.052,1.028,4.75,0.544,6.329-1.121
						c1.579-1.666,1.919-4.375,0.815-6.387C264.772,183.749,258.112,185.089,257.198,189.936z"/>
					
						<path style="fill:#FFFFFF;stroke:#231F20;stroke-width:2;stroke-linecap:round;stroke-linejoin:round;stroke-miterlimit:10;" d="
						M286.238,222.851c7.231,0.094,7.219-11.279,0.275-11.565C279.456,210.995,278.825,222.755,286.238,222.851z"/>
					
						<path style="fill:#FFFFFF;stroke:#231F20;stroke-width:2;stroke-linecap:round;stroke-linejoin:round;stroke-miterlimit:10;" d="
						M227.509,208.71c1.833,1.272,4.458,1.254,6.29-0.02c3.973-2.761,2.534-10.626-2.82-10.436
						C225.853,198.436,223.107,205.653,227.509,208.71z"/>
					
						<path style="fill:#FFFFFF;stroke:#231F20;stroke-width:2;stroke-linecap:round;stroke-linejoin:round;stroke-miterlimit:10;" d="
						M246.65,269.268c6.639,1.251,9.84-6.78,5.728-11.39c-3.859-4.325-11.102-0.623-11.087,4.865
						C241.299,265.779,243.65,268.703,246.65,269.268z"/>
					
						<path style="fill:#FFFFFF;stroke:#231F20;stroke-width:2;stroke-linecap:round;stroke-linejoin:round;stroke-miterlimit:10;" d="
						M275.145,302.466c0.677,2.035,2.488,3.679,4.6,4.047c1.866,0.325,3.839-0.34,5.255-1.597c3.43-3.046,4.086-11.117-1.59-12.197
						C278.472,291.779,273.628,297.908,275.145,302.466z"/>
					
						<path style="fill:#FFFFFF;stroke:#231F20;stroke-width:2;stroke-linecap:round;stroke-linejoin:round;stroke-miterlimit:10;" d="
						M304.77,338.691c6.205,0.613,8.601-7.035,4.451-10.986c-3.869-3.684-10.239,0.074-9.977,5.151
						C299.395,335.76,301.867,338.404,304.77,338.691z"/>
					
						<path style="fill:#FFFFFF;stroke:#231F20;stroke-width:2;stroke-linecap:round;stroke-linejoin:round;stroke-miterlimit:10;" d="
						M258.191,351.803c0.859,1.291,2.13,2.32,3.603,2.804c2.338,0.768,5.098,0.027,6.737-1.807
						c3.74-4.185,0.256-10.689-4.905-11.374C258.043,340.683,255.413,347.626,258.191,351.803z"/>
					
						<path style="fill:#FFFFFF;stroke:#231F20;stroke-width:2;stroke-linecap:round;stroke-linejoin:round;stroke-miterlimit:10;" d="
						M227.523,372.232c2.175,1.9,5.622,2.158,8.055,0.603c4.874-3.113,3.55-12.259-2.613-12.788
						C226.605,359.501,222.589,367.922,227.523,372.232z"/>
					
						<path style="fill:#FFFFFF;stroke:#231F20;stroke-width:2;stroke-linecap:round;stroke-linejoin:round;stroke-miterlimit:10;" d="
						M265.489,415.237c-0.415,2.862,1.235,5.855,3.798,7.195c2.562,1.34,5.848,1.042,8.239-0.584
						c1.425-0.969,2.574-2.431,2.883-4.126c0.419-2.3-0.813-4.703-2.709-6.072C273.585,408.678,266.348,409.312,265.489,415.237z"/>
				</g>
			</g>
		</g>
		<g>
			<g>
				<g>
					<path style="fill:none;stroke:#231F20;stroke-width:2;stroke-linecap:round;stroke-linejoin:round;stroke-miterlimit:10;" d="
						M165.974,190.842c-10.856,1.212-22.165-2.465-30.233-9.829"/>
					
						<path style="fill:#FFFFFF;stroke:#231F20;stroke-width:2;stroke-linecap:round;stroke-linejoin:round;stroke-miterlimit:10;" d="
						M126.733,181.321c-0.441,3.96,2.673,7.981,6.618,8.544c3.945,0.563,8.059-2.426,8.743-6.351
						C143.885,173.235,127.883,170.992,126.733,181.321z"/>
				</g>
				<g>
					<path style="fill:none;stroke:#231F20;stroke-width:2;stroke-linecap:round;stroke-linejoin:round;stroke-miterlimit:10;" d="
						M183.237,177.446c-10.316-5.224-18.529-14.47-22.501-25.33"/>
					
						<path style="fill:#FFFFFF;stroke:#231F20;stroke-width:2;stroke-linecap:round;stroke-linejoin:round;stroke-miterlimit:10;" d="
						M152.976,147.246c-1.075,2.626-0.215,5.88,1.933,7.734c2.148,1.855,5.399,2.255,7.991,1.099
						c2.721-1.213,4.654-4.219,4.244-7.17C166.203,142.13,155.537,140.988,152.976,147.246z"/>
				</g>
			</g>
			<path style="fill:#FFFFFF;stroke:#231F20;stroke-width:2;stroke-linecap:round;stroke-linejoin:round;stroke-miterlimit:10;" d="
				M140.905,199.768c2.232-6.234,9.7-10.048,16.059-8.199c-6.049-4.172-7.429-13.721-2.808-19.435
				c4.621-5.714,14.247-6.362,19.592-1.319c-2.998-5.436-0.754-12.846,4.266-16.498c5.02-3.652,12.07-3.783,17.732-1.238
				c5.662,2.545,10.02,7.44,12.95,12.913c8.636,16.131,4.525,38.02-9.375,49.918c-9.809,8.395-23.762,11.197-36.223,8.278
				C152.999,221.821,136.286,212.671,140.905,199.768z"/>
			<g>
				<g>
					
						<path style="fill:#FFFFFF;stroke:#231F20;stroke-width:2;stroke-linecap:round;stroke-linejoin:round;stroke-miterlimit:10;" d="
						M197.064,206.337c-0.952-5.371-1.641-10.867-0.856-16.224c0.785-5.357,3.2-10.62,7.495-13.845
						c4.295-3.226,10.631-3.996,15.255-1.034c3.394,2.174,5.487,6.042,6.127,9.992c0.64,3.95-0.039,7.982-1.233,11.758
						c-2.048,6.479-5.67,12.405-10.401,17.228c-2.699,2.751-10.52,10.767-13.681,4.247
						C198.076,214.965,197.734,210.116,197.064,206.337z"/>
					<path style="fill:none;stroke:#231F20;stroke-width:2;stroke-linecap:round;stroke-linejoin:round;stroke-miterlimit:10;" d="
						M213.688,183.152c-6.113,10.521-10.011,22.357-11.376,34.542"/>
				</g>
				<g>
					
						<path style="fill:#FFFFFF;stroke:#231F20;stroke-width:2;stroke-linecap:round;stroke-linejoin:round;stroke-miterlimit:10;" d="
						M188.575,230.811c-4.883,2.432-9.96,4.646-15.32,5.408c-5.361,0.762-11.091-0.067-15.399-3.275
						c-4.308-3.208-6.839-9.067-5.304-14.341c1.126-3.87,4.244-6.971,7.853-8.702c3.608-1.73,7.668-2.219,11.627-2.142
						c6.794,0.133,13.502,1.932,19.465,5.106c3.402,1.811,13.302,7.046,7.941,11.922C196.566,227.401,192.011,229.1,188.575,230.811
						z"/>
					<path style="fill:none;stroke:#231F20;stroke-width:2;stroke-linecap:round;stroke-linejoin:round;stroke-miterlimit:10;" d="
						M161.637,221.421c11.82,2.889,24.275,3.282,36.349,1.147"/>
				</g>
			</g>
		</g>
		<g>
			<g>
				<path style="fill:none;stroke:#231F20;stroke-width:2;stroke-linecap:round;stroke-linejoin:round;stroke-miterlimit:10;" d="
					M147.3,73.465c-14.311,6.617-28.207,14.389-40.444,24.406c-12.257,9.938-22.452,22.517-29.166,36.824
					c-3.343,7.148-5.785,14.741-6.98,22.548c-1.201,7.798-1.122,15.814,0.462,23.551c1.519,7.764,4.621,15.118,8.228,22.125
					c3.585,7.035,7.666,13.8,11.374,20.766c3.688,6.958,7.129,14.137,9.021,21.813l0.698,2.874l0.468,2.92
					c0.166,0.972,0.32,1.946,0.376,2.932c0.072,0.983,0.199,1.963,0.196,2.95c0.153,3.94-0.102,7.896-0.738,11.788
					c-1.254,7.796-3.794,15.332-6.932,22.563c-3.158,7.235-6.951,14.168-10.791,21.06c-3.839,6.893-7.715,13.779-11.074,20.926
					c-3.353,7.138-6.165,14.582-7.718,22.331c-1.545,7.739-1.693,15.785-0.199,23.542c0.764,3.87,1.939,7.677,3.68,11.227
					c1.735,3.547,3.995,6.843,6.738,9.683"/>
				<g>
					
						<path style="fill:#FFFFFF;stroke:#231F20;stroke-width:2;stroke-linecap:round;stroke-linejoin:round;stroke-miterlimit:10;" d="
						M168.399,85.89c-7.408,3.088-15.096,1.145-21.231-1.361c-3.074-1.286-5.713-2.708-7.604-3.827
						c-1.891-1.12-3.018-1.936-3.018-1.936s-0.023-1.378,0.209-3.58c0.231-2.203,0.724-5.246,1.788-8.488
						c2.08-6.537,6.546-14.012,14.631-17.38c3.683-1.53,7.767-2.062,11.837-1.956c16.503,0.508,23.944,20.571,12.636,31.946
						C174.879,82.119,171.799,84.477,168.399,85.89z"/>
					
						<path style="fill:none;stroke:#231F20;stroke-width:1.4496;stroke-linecap:round;stroke-linejoin:round;stroke-miterlimit:10;" d="
						M173.229,62.586c-12.432,4.907-24.815,10.009-36.683,16.18"/>
				</g>
				<g>
					
						<path style="fill:#FFFFFF;stroke:#231F20;stroke-width:2;stroke-linecap:round;stroke-linejoin:round;stroke-miterlimit:10;" d="
						M85.877,72.326c0.265,4.516,2.053,8.097,4.452,11.011c2.406,2.912,5.421,5.173,8.294,6.962
						c2.868,1.769,5.634,3.116,7.666,4.031c2.029,0.908,3.329,1.363,3.329,1.363s0.279-0.203,0.782-0.569
						c0.492-0.378,1.203-0.924,2.078-1.595c0.868-0.681,1.876-1.52,2.952-2.505c1.092-0.965,2.282-2.033,3.459-3.26
						c4.734-4.857,9.857-11.439,10.493-19.955c0.286-3.862-0.432-7.818-1.753-11.61c-1.338-3.85-3.77-6.772-6.904-8.696
						c-3.122-1.962-6.977-2.752-11-2.587c-2.019,0.142-4.082,0.548-6.109,1.203c-2.025,0.649-4.027,1.677-5.897,2.875
						c-1.871,1.177-3.621,2.774-5.151,4.49c-1.533,1.705-2.838,3.766-3.834,5.962c-0.491,1.085-0.931,2.17-1.311,3.248
						c-0.375,1.109-0.689,2.214-0.936,3.303C85.994,68.177,85.771,70.3,85.877,72.326z"/>
					
						<path style="fill:none;stroke:#231F20;stroke-width:1.4496;stroke-linecap:round;stroke-linejoin:round;stroke-miterlimit:10;" d="
						M108.842,54.541c-1.047,14.013-0.955,27.893,0.776,41.152"/>
				</g>
				<g>
					
						<path style="fill:#FFFFFF;stroke:#231F20;stroke-width:2;stroke-linecap:round;stroke-linejoin:round;stroke-miterlimit:10;" d="
						M43.208,131.795c2.381,3.945,5.844,6.166,9.409,7.37c3.592,1.21,7.318,1.454,10.739,1.448c3.437-0.012,6.507-0.321,8.705-0.592
						c2.198-0.274,3.533-0.54,3.533-0.54s0.129-0.32,0.402-0.879c0.263-0.563,0.627-1.381,1.034-2.407
						c0.752-2.084,1.942-4.859,2.861-8.157c0.539-1.606,1.022-3.34,1.396-5.175c0.404-1.816,0.788-3.674,0.959-5.641
						c0.149-1.985,0.304-3.918,0.144-5.967c-0.14-2.033-0.525-4.133-1.129-6.174c-1.144-3.764-3.223-7.263-5.822-10.345
						c-2.633-3.132-6.023-4.877-9.845-5.228c-1.902-0.173-3.931-0.023-5.952,0.49c-1.998,0.535-4.025,1.401-6.002,2.559
						c-2.007,1.127-3.827,2.684-5.563,4.425c-0.86,0.879-1.696,1.805-2.465,2.803c-0.746,1.023-1.445,2.098-2.087,3.213
						c-0.642,1.116-1.227,2.273-1.743,3.46c-0.508,1.196-0.898,2.476-1.237,3.746c-0.656,2.562-1.051,5.146-0.903,7.862
						c0.12,2.649,0.406,5.132,0.997,7.453C41.258,127.866,42.108,129.983,43.208,131.795z"/>
					
						<path style="fill:none;stroke:#231F20;stroke-width:1.4496;stroke-linecap:round;stroke-linejoin:round;stroke-miterlimit:10;" d="
						M56.439,102.3c4.528,13.93,10.992,26.603,19.154,37.181"/>
				</g>
				<g>
					
						<path style="fill:#FFFFFF;stroke:#231F20;stroke-width:2;stroke-linecap:round;stroke-linejoin:round;stroke-miterlimit:10;" d="
						M46.608,211.044c4.436,0.934,8.349,0.131,11.782-1.441c3.431-1.579,6.391-3.921,8.862-6.245
						c2.464-2.326,4.435-4.646,5.857-6.388c1.406-1.731,2.19-2.859,2.19-2.859s-0.122-0.323-0.342-0.904
						c-0.248-0.57-0.534-1.419-0.95-2.441c-0.865-2.035-2.039-4.824-3.505-7.914c-0.67-1.562-1.526-3.184-2.429-4.845
						c-0.811-1.675-1.771-3.374-2.905-5.056c-2.021-3.363-4.768-6.695-8.141-9.411c-3.155-2.478-6.935-4.245-10.791-5.297
						c-3.927-1.08-7.788-0.495-11.054,1.772c-1.646,1.123-3.168,2.646-4.517,4.507c-0.337,0.465-0.664,0.951-0.978,1.457
						c-0.288,0.515-0.563,1.05-0.825,1.604c-0.523,1.108-0.993,2.291-1.402,3.536c-0.409,1.245-0.758,2.552-1.042,3.905
						c-0.236,1.362-0.363,2.781-0.439,4.227c-0.135,2.893-0.048,5.905,0.648,8.895c0.314,1.494,0.706,2.981,1.177,4.439
						c0.241,0.722,0.477,1.466,0.777,2.147c0.302,0.679,0.623,1.348,0.963,2.006c0.679,1.316,1.432,2.587,2.256,3.792
						c0.407,0.619,0.846,1.172,1.309,1.685c0.46,0.524,0.936,1.031,1.429,1.519c0.971,0.962,1.955,1.861,2.948,2.684
						c0.99,0.839,2.015,1.449,3.027,2.069C42.546,209.671,44.581,210.619,46.608,211.044z"/>
					
						<path style="fill:none;stroke:#231F20;stroke-width:1.4496;stroke-linecap:round;stroke-linejoin:round;stroke-miterlimit:10;" d="
						M35.804,177.971c6.189,4.603,12.889,8.325,19.488,10.978c6.694,2.647,13.372,4.24,20.007,5.163"/>
				</g>
				<g>
					
						<path style="fill:#FFFFFF;stroke:#231F20;stroke-width:2;stroke-linecap:round;stroke-linejoin:round;stroke-miterlimit:10;" d="
						M68.05,254.769c3.686,0.145,7.578,0.048,11.326-0.483c3.741-0.524,7.303-1.535,10.357-2.896
						c3.098-1.347,5.503-3.027,7.197-4.408c1.689-1.38,2.628-2.43,2.628-2.43s-0.047-0.345-0.207-0.944
						c-0.178-0.594-0.45-1.449-0.828-2.485c-0.189-0.518-0.404-1.081-0.646-1.678c-0.271-0.587-0.586-1.203-0.923-1.844
						c-0.671-1.284-1.46-2.657-2.483-3.989c-3.947-5.415-10.476-10.389-18.825-10.503c-3.832-0.069-7.7,0.915-11.411,2.431
						c-3.769,1.536-6.596,4.074-8.544,7.01c-0.971,1.475-1.709,3.072-2.227,4.715c-0.57,1.567-0.922,3.171-1.052,4.76
						c-0.143,1.574-0.203,2.958,0.038,4.357c0.187,1.341,0.457,2.445,1.056,3.529c0.236,0.479,0.508,0.903,0.863,1.314
						c0.332,0.39,0.816,0.829,1.22,1.103c0.417,0.285,0.91,0.545,1.482,0.782c0.576,0.239,1.241,0.464,1.873,0.573
						c0.653,0.132,1.343,0.261,2.069,0.387c0.728,0.127,1.502,0.257,2.208,0.314C64.689,254.532,66.309,254.674,68.05,254.769z"/>
					
						<path style="fill:none;stroke:#231F20;stroke-width:1.4496;stroke-linecap:round;stroke-linejoin:round;stroke-miterlimit:10;" d="
						M61.183,241.702c12.732-0.41,25.453-0.669,38.375,2.85"/>
				</g>
				<g>
					
						<path style="fill:#FFFFFF;stroke:#231F20;stroke-width:2;stroke-linecap:round;stroke-linejoin:round;stroke-miterlimit:10;" d="
						M59.619,286.505c2.388,3.254,5.418,5.797,8.718,7.631c3.297,1.837,6.874,2.975,10.149,3.663
						c3.278,0.683,6.316,0.89,8.507,0.902c2.194,0.013,3.574-0.149,3.574-0.149s0.166-0.303,0.465-0.848
						c0.279-0.555,0.666-1.363,1.102-2.376c0.86-2.028,1.867-4.909,2.397-8.212c0.557-3.288,0.57-7.016-0.407-10.5
						c-0.944-3.488-3.013-6.703-6.261-9.01c-3.012-2.116-6.76-3.32-10.654-4.094c-3.961-0.775-7.734-0.671-10.944-0.356
						c-1.583,0.15-3.097,0.41-4.436,0.722c-1.303,0.288-2.551,0.711-3.551,1.17c-2.09,0.979-3.444,2.293-4.106,4.279
						c-0.65,1.973-0.512,4.554,0.661,7.737C55.958,280.214,57.458,283.513,59.619,286.505z"/>
					
						<path style="fill:none;stroke:#231F20;stroke-width:1.4496;stroke-linecap:round;stroke-linejoin:round;stroke-miterlimit:10;" d="
						M65.188,269.628c9.796,7.448,18.077,17.759,25.379,28.924"/>
				</g>
				<g>
					
						<path style="fill:#FFFFFF;stroke:#231F20;stroke-width:2;stroke-linecap:round;stroke-linejoin:round;stroke-miterlimit:10;" d="
						M33.02,344.205c2.762,3.967,6.331,5.825,10.024,6.676c3.676,0.836,7.461,0.678,10.877,0.306
						c3.411-0.389,6.393-1.012,8.59-1.461c2.179-0.467,3.495-0.848,3.495-0.848s0.113-0.327,0.317-0.914
						c0.204-0.587,0.483-1.438,0.783-2.5c0.65-2.109,1.437-5.043,2.112-8.369c1.271-6.669,2.063-15.028-2.183-22.349
						c-1.945-3.324-4.781-6.171-8.021-8.527c-3.289-2.395-6.909-3.516-10.513-3.471c-1.8,0.019-3.586,0.299-5.337,0.906
						c-0.873,0.296-1.731,0.656-2.569,1.076c-0.842,0.439-1.667,0.956-2.463,1.521c-3.182,2.276-5.985,5.664-7.848,9.967
						c-1.855,4.279-2.766,9.356-2.046,14.593C28.93,335.964,30.502,340.637,33.02,344.205z"/>
					
						<path style="fill:none;stroke:#231F20;stroke-width:1.4496;stroke-linecap:round;stroke-linejoin:round;stroke-miterlimit:10;" d="
						M42.682,314.683c3.378,6.171,6.925,12.255,10.764,18.029c3.845,5.789,8.024,11.273,12.559,16.167"/>
				</g>
				<g>
					<g>
						
							<path style="fill:#FFFFFF;stroke:#231F20;stroke-width:2;stroke-linecap:round;stroke-linejoin:round;stroke-miterlimit:10;" d="
							M115.387,136.256c-3.749-1.041-7.302-2.785-10.388-4.963c-3.092-2.172-5.717-4.792-7.768-7.425
							c-2.056-2.626-3.541-5.26-4.493-7.26c-0.486-1.006-0.797-1.815-1.016-2.395c-0.214-0.576-0.316-0.905-0.316-0.905
							s0.823-1.113,2.316-2.735c0.721-0.833,1.733-1.682,2.83-2.624c1.112-0.93,2.351-1.919,3.809-2.755
							c1.451-0.845,2.939-1.715,4.641-2.322c1.688-0.62,3.428-1.139,5.246-1.402c1.839-0.24,3.709-0.274,5.571-0.031
							c1.865,0.247,3.779,0.834,5.615,1.722c3.368,1.636,6.306,4.27,8.916,7.327c2.651,3.106,4.13,6.51,4.935,9.829
							c0.808,3.325,0.733,6.444,0.234,9.149c-0.266,1.345-0.753,2.534-1.276,3.625c-0.277,0.538-0.597,1.034-0.964,1.484
							c-0.183,0.225-0.378,0.439-0.585,0.642c-0.205,0.202-0.354,0.379-0.552,0.551c-0.748,0.693-1.738,1.135-2.872,1.465
							c-1.119,0.347-2.466,0.482-4.063,0.402C122.202,137.593,118.762,137.169,115.387,136.256z"/>
						
							<path style="fill:none;stroke:#231F20;stroke-width:1.4496;stroke-linecap:round;stroke-linejoin:round;stroke-miterlimit:10;" d="
							M127.959,125.427c-2.772-1.39-5.738-2.723-8.603-3.971c-2.861-1.243-5.84-2.411-8.905-3.468c-3.011-1-6.124-1.909-9.33-2.718
							c-3.186-0.791-6.384-1.409-9.714-1.962"/>
					</g>
					<g>
						
							<path style="fill:#FFFFFF;stroke:#231F20;stroke-width:2;stroke-linecap:round;stroke-linejoin:round;stroke-miterlimit:10;" d="
							M102.997,167.809c-3.568,1.055-7.446,1.794-11.215,1.993c-3.772,0.211-7.456-0.134-10.704-0.896
							c-3.22-0.748-6.115-1.902-7.978-2.918c-1.91-1.01-3.024-1.841-3.024-1.841s0.008-0.345,0.021-0.966
							c0.043-0.619,0.034-1.52,0.226-2.607c0.401-2.168,0.986-5.16,2.471-8.162c0.355-0.752,0.705-1.517,1.15-2.258
							c0.466-0.736,0.964-1.465,1.494-2.173c0.53-0.708,1.091-1.396,1.685-2.052c0.609-0.651,1.319-1.25,2.022-1.816
							c0.712-0.564,1.456-1.083,2.231-1.548c0.388-0.232,0.783-0.451,1.186-0.654c0.424-0.196,0.859-0.377,1.3-0.542
							c1.764-0.659,3.646-1.059,5.65-1.127c3.669-0.123,7.571,0.906,11.253,2.391c3.758,1.522,6.776,3.765,9.104,6.065
							c1.134,1.149,2.242,2.341,3.091,3.486c0.892,1.149,1.495,2.263,2.076,3.313c0.573,1.05,0.938,2.031,1.057,2.936
							c0.226,0.895,0.236,1.706-0.056,2.454c-0.242,0.741-0.615,1.384-1.399,2.009c-0.412,0.318-0.774,0.596-1.257,0.879
							c-0.479,0.281-1.044,0.559-1.696,0.838c-1.344,0.565-2.55,1.077-4.024,1.626C106.224,166.779,104.581,167.34,102.997,167.809z
							"/>
						
							<path style="fill:none;stroke:#231F20;stroke-width:1.4496;stroke-linecap:round;stroke-linejoin:round;stroke-miterlimit:10;" d="
							M106.725,155.219c-12.159,0.148-24.751,2.805-36.65,8.929"/>
					</g>
					<g>
						
							<path style="fill:#FFFFFF;stroke:#231F20;stroke-width:2;stroke-linecap:round;stroke-linejoin:round;stroke-miterlimit:10;" d="
							M117.643,203.742c-4.103,7.541-11.884,10.542-18.506,11.898c-6.632,1.331-12.145,0.996-12.145,0.996s-0.759-1.158-1.763-3.122
							c-1.005-1.962-2.254-4.741-3.175-7.969c-0.461-1.613-0.799-3.349-1.022-5.121c-0.188-1.784-0.189-3.62-0.005-5.426
							c0.253-1.819,0.731-3.606,1.472-5.294c0.797-1.692,1.905-3.274,3.307-4.696c0.646-0.65,1.331-1.255,2.084-1.815
							c0.766-0.557,1.573-1.072,2.412-1.548c1.677-0.954,3.483-1.759,5.35-2.463c3.791-1.419,7.514-1.925,10.704-2.11
							c1.605-0.081,3.2,0.011,4.574,0.155c0.694,0.077,1.346,0.176,1.951,0.298c0.655,0.161,1.281,0.359,1.853,0.578
							c0.573,0.22,1.099,0.467,1.573,0.743c0.491,0.291,1.015,0.685,1.442,1.071c0.438,0.395,0.824,0.823,1.153,1.283
							c0.394,0.525,0.734,1.083,1.016,1.676c0.298,0.61,0.472,1.179,0.704,1.918c0.221,0.726,0.381,1.485,0.474,2.275
							c0.143,1.521,0.232,3.452-0.08,5.356c-0.168,0.985-0.334,1.956-0.496,2.907c-0.187,0.987-0.415,1.959-0.689,2.909
							C119.268,200.103,118.577,202.013,117.643,203.742z"/>
						
							<path style="fill:none;stroke:#231F20;stroke-width:1.4496;stroke-linecap:round;stroke-linejoin:round;stroke-miterlimit:10;" d="
							M108.733,184.022c-8.385,9.322-15.012,21.08-21.74,32.613"/>
					</g>
					<g>
						
							<path style="fill:#FFFFFF;stroke:#231F20;stroke-width:2;stroke-linecap:round;stroke-linejoin:round;stroke-miterlimit:10;" d="
							M132.359,280.27c-4.213,2.166-8.218,2.225-11.904,1.349c-3.669-0.87-7.013-2.648-9.905-4.478
							c-2.882-1.835-5.285-3.717-7.045-5.118c-1.74-1.396-2.748-2.317-2.748-2.317s0.041-0.343,0.114-0.96
							c0.074-0.617,0.195-1.504,0.391-2.591c0.29-2.189,0.849-5.171,1.425-8.548c0.169-0.845,0.346-1.715,0.493-2.605
							c0.153-0.888,0.39-1.807,0.563-2.729c0.309-1.835,0.86-3.775,1.384-5.694c0.492-1.903,1.238-3.888,2.051-5.782
							c0.809-1.889,1.844-3.765,3.16-5.563c2.337-3.216,5.426-5.843,8.896-7.91c3.513-2.099,7.313-2.578,11.096-1.489
							c0.943,0.274,1.889,0.628,2.816,1.103c0.918,0.51,1.824,1.12,2.712,1.822c0.887,0.702,1.755,1.496,2.593,2.375
							c0.417,0.444,0.836,0.888,1.23,1.39c0.388,0.518,0.767,1.058,1.135,1.617c0.737,1.119,1.433,2.318,2.077,3.583
							c0.319,0.636,0.637,1.272,0.92,1.953c0.269,0.702,0.523,1.42,0.76,2.15c0.942,2.929,1.687,6.038,1.865,9.329
							c0.452,6.513-0.798,13.116-3.774,18.246c-0.697,1.301-1.491,2.463-2.295,3.566c-0.812,1.093-1.623,2.141-2.503,3.04
							C136.098,277.797,134.289,279.288,132.359,280.27z"/>
						
							<path style="fill:none;stroke:#231F20;stroke-width:1.4496;stroke-linecap:round;stroke-linejoin:round;stroke-miterlimit:10;" d="
							M134.775,243.293c-4.674,6.422-10.047,12.017-15.815,16.39c-5.818,4.38-11.977,7.639-18.203,10.022"/>
					</g>
					<g>
						
							<path style="fill:#FFFFFF;stroke:#231F20;stroke-width:2;stroke-linecap:round;stroke-linejoin:round;stroke-miterlimit:10;" d="
							M106.025,339.591c-8.129-0.085-15.171-4.444-20.001-9.129c-4.852-4.656-7.475-9.545-7.475-9.545s0.581-1.257,1.722-3.145
							c1.143-1.888,2.853-4.397,5.078-6.935c4.474-5.06,10.869-10.311,19.341-11.557c3.882-0.55,7.909-0.139,11.787,0.882
							c3.939,1.025,7.013,3.366,9.034,6.514c2.032,3.155,3.022,7.168,2.952,11.247c-0.215,8.385-4.237,16.102-11.44,19.212
							C113.435,338.725,109.773,339.599,106.025,339.591z"/>
						
							<path style="fill:none;stroke:#231F20;stroke-width:1.4496;stroke-linecap:round;stroke-linejoin:round;stroke-miterlimit:10;" d="
							M118.928,319.224c-13.772,1.386-27.013,1.262-40.38,1.693"/>
					</g>
					<g>
						
							<path style="fill:#FFFFFF;stroke:#231F20;stroke-width:2;stroke-linecap:round;stroke-linejoin:round;stroke-miterlimit:10;" d="
							M96.462,372.285c-3.455,1.375-7.101,2.641-10.798,3.5c-3.679,0.859-7.358,1.22-10.693,1.057
							c-3.344-0.142-6.194-0.837-8.297-1.521c-1.051-0.341-1.878-0.68-2.428-0.933c-0.559-0.253-0.863-0.415-0.863-0.415
							s-0.041-0.343-0.115-0.959c-0.068-0.617-0.151-1.511-0.115-2.615c0.007-1.103,0.058-2.411,0.295-3.842
							c0.174-1.433,0.573-2.981,1.061-4.558c1.066-3.145,2.822-6.382,5.42-8.841c2.632-2.495,5.953-4.287,10.008-4.796
							c3.672-0.47,7.601,0.133,11.439,1.245c3.9,1.133,7.09,3.11,9.623,5.262c1.287,1.066,2.396,2.184,3.33,3.286
							c0.997,1.068,1.731,2.165,2.39,3.139c0.323,0.49,0.592,0.968,0.803,1.432c0.26,0.387,0.485,0.713,0.63,1.044
							c0.131,0.321,0.267,0.642,0.32,0.946c0.057,0.304,0.015,0.594-0.016,0.876c-0.28,1.142-1.409,2.086-3.802,3.167
							c-0.624,0.283-1.239,0.561-1.842,0.835c-0.666,0.292-1.317,0.577-1.953,0.855c-0.357,0.156-0.71,0.31-1.058,0.462
							c-0.358,0.149-0.712,0.296-1.06,0.441C97.959,371.673,97.201,371.983,96.462,372.285z"/>
						
							<path style="fill:none;stroke:#231F20;stroke-width:1.4496;stroke-linecap:round;stroke-linejoin:round;stroke-miterlimit:10;" d="
							M98.508,361.506c-5.967,0.319-12.079,1.518-17.971,3.575c-5.904,2.059-11.771,4.99-17.154,8.893"/>
					</g>
				</g>
			</g>
		</g>
	</g>
	<g>
		<g>
			<g>
				
					<path style="fill:#FFFFFF;stroke:#231F20;stroke-width:2;stroke-linecap:round;stroke-linejoin:round;stroke-miterlimit:10;" d="
					M406.862,289.082c4.417-6.211,9.223-12.287,15.374-16.787c6.151-4.5,13.849-7.314,21.401-6.288
					c7.552,1.026,14.702,6.46,16.394,13.891c1.241,5.453-0.522,11.302-3.831,15.811c-3.309,4.509-8.028,7.809-13.008,10.355
					c-8.546,4.369-18.123,6.655-27.712,6.773c-5.47,0.068-21.367,0.306-18.024-9.193
					C399.246,298.554,403.755,293.452,406.862,289.082z"/>
				<path style="fill:none;stroke:#231F20;stroke-width:2;stroke-linecap:round;stroke-linejoin:round;stroke-miterlimit:10;" d="
					M446.801,282.533c-16.683,4.37-32.453,12.197-46.021,22.843"/>
			</g>
			<g>
				
					<path style="fill:#FFFFFF;stroke:#231F20;stroke-width:2;stroke-linecap:round;stroke-linejoin:round;stroke-miterlimit:10;" d="
					M417.234,318.143c5.401-0.768,10.917-1.268,16.244-0.3c5.327,0.968,10.504,3.561,13.58,7.964
					c3.077,4.403,3.63,10.762,0.511,15.282c-2.289,3.317-6.226,5.277-10.196,5.781c-3.97,0.504-7.976-0.313-11.709-1.635
					c-6.405-2.269-12.203-6.092-16.861-10.985c-2.657-2.791-10.401-10.882-3.776-13.818
					C408.576,318.859,413.434,318.683,417.234,318.143z"/>
				<path style="fill:none;stroke:#231F20;stroke-width:2;stroke-linecap:round;stroke-linejoin:round;stroke-miterlimit:10;" d="
					M439.836,335.55c-10.305-6.47-22.001-10.771-34.132-12.552"/>
			</g>
		</g>
		<g>
			<g>
				
					<path style="fill:#FFFFFF;stroke:#231F20;stroke-width:2;stroke-linecap:round;stroke-linejoin:round;stroke-miterlimit:10;" d="
					M274.544,315.492c-9.936-0.422-19.64-4.891-26.419-12.167c-9.713-10.425-12.821-26.664-7.208-39.76
					c5.614-13.096,19.844-22.111,34.058-21.13c14.214,0.981,27.235,12.179,29.89,26.178
					C291.228,281.395,278.833,297.3,274.544,315.492z"/>
				<g>
					
						<path style="fill:none;stroke:#231F20;stroke-linecap:round;stroke-linejoin:round;stroke-miterlimit:10;stroke-dasharray:5;" d="
						M244.394,263.074c0.448,8.579,3.809,16.979,9.401,23.5c5.592,6.521,13.382,11.122,21.793,12.873"/>
					
						<path style="fill:none;stroke:#231F20;stroke-linecap:round;stroke-linejoin:round;stroke-miterlimit:10;stroke-dasharray:5;" d="
						M247.884,259.119c6.643-3.448,14.458-4.584,21.808-3.171c7.35,1.413,14.186,5.367,19.077,11.033"/>
				</g>
			</g>
			<g>
				
					<path style="fill:#FFFFFF;stroke:#231F20;stroke-width:2;stroke-linecap:round;stroke-linejoin:round;stroke-miterlimit:10;" d="
					M395.931,370.786c8.692-22.808,16.916-47.154,12.601-71.177c-3.847-21.422-18.14-40.716-37.512-50.637
					c-19.373-9.921-43.381-10.242-63.012-0.843c-19.631,9.399-34.435,28.303-38.854,49.615
					c-5.289,25.508,3.658,51.489,10.108,76.729C318.19,377.423,357.472,377.49,395.931,370.786z"/>
				
					<path style="fill:none;stroke:#231F20;stroke-linecap:round;stroke-linejoin:round;stroke-miterlimit:10;stroke-dasharray:5;" d="
					M317.587,256.214c-16.462,13.037-27.969,32.183-31.755,52.838c-3.787,20.655,0.18,42.638,10.947,60.667"/>
				
					<path style="fill:none;stroke:#231F20;stroke-linecap:round;stroke-linejoin:round;stroke-miterlimit:10;stroke-dasharray:5;" d="
					M372.906,265.796c14.338,31.268,17.226,67.638,8.002,100.777"/>
				<g>
					<path style="fill:#231F20;" d="M316.949,314.038c-0.797,2.259-3.274,3.445-5.533,2.648c-2.259-0.797-3.445-3.274-2.648-5.533
						c0.797-2.259,3.274-3.445,5.533-2.648C316.561,309.301,317.746,311.779,316.949,314.038z"/>
					<path style="fill:#231F20;" d="M362.498,317.412c-0.797,2.259-3.274,3.445-5.533,2.648c-2.259-0.797-3.445-3.274-2.648-5.533
						c0.797-2.259,3.274-3.445,5.533-2.648C362.109,312.675,363.295,315.152,362.498,317.412z"/>
					
						<path style="fill:#FFFFFF;stroke:#231F20;stroke-width:2;stroke-linecap:round;stroke-linejoin:round;stroke-miterlimit:10;" d="
						M356.335,326.219c-13.051,1.223-26.317,0.115-38.985-3.253c0.537,10.203,8.708,20.401,18.876,21.408
						C346.393,345.38,353.807,336.119,356.335,326.219z"/>
				</g>
			</g>
			<g>
				
					<path style="fill:#FFFFFF;stroke:#231F20;stroke-width:2;stroke-linecap:round;stroke-linejoin:round;stroke-miterlimit:10;" d="
					M317.883,249.525c-3.551-6.349-5.651-13.607-5.337-20.874c0.314-7.268,3.162-14.518,8.372-19.595
					c5.21-5.077,12.841-7.762,19.992-6.426s13.494,6.922,15.132,14.01c5.025-4.965,12.766-6.941,19.621-5.233
					c6.855,1.708,12.648,7.171,14.755,13.914c1.873,5.994,0.913,12.592-1.452,18.41c-2.365,5.818-6.049,10.99-9.765,16.053
					c-15.906,5.862-34.306,2.694-51.575-5.874"/>
				<g>
					<g>
						<path style="fill:none;stroke:#231F20;stroke-linecap:round;stroke-linejoin:round;" d="M344.211,207.237
							c-0.724,0.414-1.431,0.856-2.121,1.324"/>
						<path style="fill:none;stroke:#231F20;stroke-linecap:round;stroke-linejoin:round;stroke-dasharray:5.1074,5.1074;" d="
							M338.093,211.734c-4.379,4.044-7.713,9.226-9.498,14.916c-2.039,6.501-2.038,13.614-0.08,20.136"/>
						<path style="fill:none;stroke:#231F20;stroke-linecap:round;stroke-linejoin:round;" d="M329.342,249.206
							c0.299,0.778,0.628,1.545,0.986,2.298"/>
					</g>
				</g>
				<g>
					<g>
						<path style="fill:none;stroke:#231F20;stroke-linecap:round;stroke-linejoin:round;" d="M367.298,214.964
							c0.683,0.48,1.341,0.993,1.974,1.536"/>
						<path style="fill:none;stroke:#231F20;stroke-linecap:round;stroke-linejoin:round;stroke-dasharray:5.0143,5.0143;" d="
							M372.752,220.099c3.666,4.562,5.896,10.293,6.12,16.148c0.256,6.689-2.11,13.416-6.372,18.565"/>
						<path style="fill:none;stroke:#231F20;stroke-linecap:round;stroke-linejoin:round;" d="M370.809,256.671
							c-0.589,0.589-1.207,1.151-1.851,1.682"/>
					</g>
				</g>
			</g>
			<g>
				
					<path style="fill:#FFFFFF;stroke:#231F20;stroke-width:2;stroke-linecap:round;stroke-linejoin:round;stroke-miterlimit:10;" d="
					M425.729,352.086c7.067,42.586-11.469,73.925-51.064,96.015h-84.137c-27.76-15.412-44.843-46.21-50.636-93.282
					c10.794-5.645,24.411-3.648,33.25,4.734c3.192-8.32,10.743-13.036,19.653-13.146c8.911-0.109,17.613,5.64,21.008,13.879
					c3.775-7.213,10.529-11.045,18.669-11.148c8.14-0.103,16.169,4.552,20.124,11.668c2.133-8.049,8.638-12.757,16.953-13.204
					c8.315-0.446,16.621,4.941,19.604,12.716C397.161,349.905,413.061,348.613,425.729,352.086z"/>
				<g>
					<path style="fill:#FFFFFF;stroke:#231F20;stroke-linecap:round;stroke-linejoin:round;stroke-miterlimit:10;" d="
						M274.013,365.132c-0.109,26.41,10.45,54.28,26.996,82.969"/>
					<path style="fill:#FFFFFF;stroke:#231F20;stroke-linecap:round;stroke-linejoin:round;stroke-miterlimit:10;" d="
						M313.504,365.132c-3.032,22.926,1.775,51.827,9.522,82.969"/>
					<path style="fill:#FFFFFF;stroke:#231F20;stroke-linecap:round;stroke-linejoin:round;stroke-miterlimit:10;" d="
						M354.069,365.132c3.013,20.998-2.444,50.949-9.858,82.969"/>
					<path style="fill:#FFFFFF;stroke:#231F20;stroke-linecap:round;stroke-linejoin:round;stroke-miterlimit:10;" d="
						M389.043,365.132c1.101,26.053-9.413,54.07-25.142,82.969"/>
				</g>
			</g>
		</g>
	</g>
	<g>
		<g>
			<g>
				
					<path style="fill:#FFFFFF;stroke:#231F20;stroke-width:2;stroke-linecap:round;stroke-linejoin:round;stroke-miterlimit:10;" d="
					M164.894,348.492c-4.81-18.395-9.63-36.845-12.188-55.686c-2.558-18.841-2.808-38.184,1.48-56.708
					c2.134-9.217,5.418-18.251,10.582-26.178c5.164-7.927,12.295-14.719,20.916-18.614c-4.308,7.852-1.617,19.812,3.138,27.402
					c4.755,7.59,11.19,14.25,14.337,22.636c3.998,10.657,2.102,22.658-1.586,33.426c-3.688,10.769-9.092,20.921-12.26,31.854
					c-3.168,10.933-3.879,23.253,1.605,33.227c-1.578,2.8-4.919,4.345-8.068,4.988C175.93,346.25,171.815,347.079,164.894,348.492z"
					/>
				<path style="fill:none;stroke:#231F20;stroke-linecap:round;stroke-linejoin:round;stroke-miterlimit:10;" d="M179.589,199.836
					c-8.035,10.145-11.006,24.112-7.796,36.65c2.143,8.37,6.807,15.915,9.068,24.253c6.914,25.5-9.638,52.501-4.699,78.456"/>
			</g>
			<g>
				
					<path style="fill:#FFFFFF;stroke:#231F20;stroke-width:2;stroke-linecap:round;stroke-linejoin:round;stroke-miterlimit:10;" d="
					M194.524,352.086c-3.567-14.428-7.146-28.923-8.492-43.725c-1.346-14.801-0.379-30.04,4.919-43.926
					c8.545-22.4,27.481-39.257,47.615-52.274c5.324,13.438,3.943,28.861-0.556,42.597c-4.499,13.736-11.413,26.57-16.185,40.214
					c-4.772,13.644-7.322,28.757-2.809,42.488C212.6,342.469,202.48,350.364,194.524,352.086z"/>
				<path style="fill:none;stroke:#231F20;stroke-linecap:round;stroke-linejoin:round;stroke-miterlimit:10;" d="M235.751,221.284
					c1.077,14.303-5.517,28.055-13.228,40.15c-7.71,12.095-16.804,23.545-21.743,37.012c-4.939,13.467-4.879,29.955,4.613,40.71"/>
			</g>
			<g>
				
					<path style="fill:#FFFFFF;stroke:#231F20;stroke-width:2;stroke-linecap:round;stroke-linejoin:round;stroke-miterlimit:10;" d="
					M170.06,337.035c-8.456-9.761-12.077-23.521-9.52-36.179c1.805-8.938,6.436-17.074,8.669-25.915
					c3.86-15.289-0.08-32.336-10.258-44.38c-10.178-12.044-27.241-20.016-42.96-18.759c-1.995,12.999,4.558,25.602,10.683,37.24
					c6.125,11.638,12.202,24.648,9.221,37.456c-1.789,7.687-6.704,14.369-8.474,22.061c-2.098,9.114,0.696,19.206,7.183,25.942
					C145.962,337.419,158.344,337.562,170.06,337.035z"/>
				<path style="fill:none;stroke:#231F20;stroke-linecap:round;stroke-linejoin:round;stroke-miterlimit:10;" d="M120.043,217.246
					c11.022,4.62,20.385,13.089,26.085,23.592c5.7,10.504,7.696,22.971,5.561,34.729c-1.803,9.934-6.403,19.161-8.603,29.014
					c-2.201,9.853-1.466,21.366,5.799,28.376"/>
			</g>
		</g>
		<g>
			<path style="fill:#FFFFFF;stroke:#231F20;stroke-width:2;stroke-linecap:round;stroke-linejoin:round;stroke-miterlimit:10;" d="
				M293.313,387.443c-26.524,28.994-52.799,57.052-73.855,65.512l-4.407-76.074c17.535-2.087,43.452-9.998,70.041-18.375
				c2.138-13.055,6.723-21.228,14.14-23.755l16.77,50.062C308.998,390.024,301.365,390.358,293.313,387.443z"/>
			<g>
				<path style="fill:#FFFFFF;stroke:#231F20;stroke-width:2;stroke-miterlimit:10;" d="M101.293,428.93
					c-11.325,0.001-23.107-6.543-29.901-17.417c-7.995-12.793-8.338-28.113-7.9-38.523c0.341-8.118,1.424-18.578,6.817-27.475
					c5.306-8.752,14.474-15.126,24.525-17.053c10.05-1.923,20.926,0.606,29.091,6.777c3.305,2.497,3.959,7.2,1.462,10.505
					c-2.497,3.305-7.2,3.961-10.505,1.462c-4.834-3.651-11.274-5.154-17.225-4.012c-5.951,1.141-11.38,4.915-14.521,10.097
					c-3.602,5.941-4.376,13.609-4.658,20.327c-0.562,13.38,1.228,22.896,5.634,29.946c4.337,6.942,13.499,12.462,21.325,9.686
					c3.904-1.386,8.191,0.656,9.576,4.56c1.385,3.903-0.657,8.191-4.561,9.576C107.511,428.432,104.419,428.93,101.293,428.93z"/>
			</g>
			<g>
				
					<path style="fill:#FFFFFF;stroke:#231F20;stroke-width:2;stroke-linecap:round;stroke-linejoin:round;stroke-miterlimit:10;" d="
					M232.373,341.065c12.345,43.986,16.97,76.054,10.213,90.553c-3.06,7.754-8.44,13.927-16.34,18.383
					c-8.081,4.557-19.842,6.164-28.887,7.676c-10.271,1.717-20.703,2.41-31.111,2.143c-14.147-0.363-28.468-1.622-42.127-5.507
					c-5.719-1.626-13.022-3.46-17.276-7.68c-3.539-3.511-8.23-11.316-8.337-16.377c-0.712-33.976,4.321-63.677,12.35-91.15
					L232.373,341.065z"/>
				
					<path style="fill:#FFFFFF;stroke:#231F20;stroke-width:2;stroke-linecap:round;stroke-linejoin:round;stroke-miterlimit:10;" d="
					M128.466,314.683c18.834,17.098,67.141,17.098,87.907,1.872c11.868,3.321,16.567,11.962,16,24.511
					c-29.277,20.44-96,16.681-121.515-1.958C113.27,327.486,118.203,318.403,128.466,314.683z"/>
				<path style="fill:none;stroke:#231F20;stroke-width:2;stroke-linecap:round;stroke-linejoin:round;stroke-miterlimit:10;" d="
					M98.508,430.257c36.28,20.755,116.55,19.237,144.657,0"/>
				<g>
					<path style="fill:#231F20;" d="M150.728,407.261c-0.575,2.33-2.929,3.753-5.259,3.178s-3.753-2.929-3.178-5.259
						c0.575-2.33,2.929-3.753,5.259-3.178C149.88,402.577,151.303,404.931,150.728,407.261z"/>
					<path style="fill:#231F20;" d="M196.469,406.196c-0.575,2.33-2.929,3.753-5.259,3.178c-2.33-0.575-3.753-2.929-3.178-5.259
						c0.575-2.33,2.929-3.753,5.259-3.178C195.621,401.511,197.044,403.866,196.469,406.196z"/>
					<path style="fill:none;stroke:#231F20;stroke-width:2;stroke-linecap:round;stroke-linejoin:round;stroke-miterlimit:10;" d="
						M152.682,415.611c4.34,4.578,10.567,7.31,16.875,7.405c6.307,0.095,12.613-2.45,17.089-6.895"/>
				</g>
			</g>
		</g>
	</g>
</g>
</svg>
