<?xml version="1.0" encoding="utf-8"?>
<!-- Generator: Adobe Illustrator 27.5.0, SVG Export Plug-In . SVG Version: 6.00 Build 0)  -->
<svg xmlns="http://www.w3.org/2000/svg" xmlns:xlink="http://www.w3.org/1999/xlink" viewBox="0 0 500 500" width="595" height="842" preserveAspectRatio="xMidYMid meet" data-scaled="true">
<g id="BACKGROUND">
	<rect style="fill:#FFFFFF;" width="500" height="500"/>
</g>
<g id="OBJECTS">
	<g>
		<path d="M200.004,130.427c0.206-4.463,1.773-8.242,3.057-12.094c0.13-0.388,0.328-0.779,0.587-1.093
			c0.571-0.692,1.439-0.694,2.025-0.007c0.265,0.311,0.47,0.695,0.621,1.078c2.217,5.621,1.919,11.119-0.862,16.479
			c-0.507,0.978-1.153,1.869-2.015,2.572c-0.413,0.337-0.544,0.689-0.393,1.224c1.318,4.672,2.583,9.362,5.184,13.542
			c0.155,0.249,0.213,0.595,0.714,0.659c0.336-0.916,0.351-1.915,0.478-2.872c1.01-7.606,1.624-15.253,2.286-22.895
			c0.45-5.2,0.757-10.409,1.076-15.617c0.131-2.134,0.145-2.169,2.361-2.147c2.243,0.022,4.487,0.104,6.728,0.2
			c1.218,0.052,1.306,0.199,1.177,1.403c-0.011,0.104-0.037,0.207-0.037,0.311c-0.002,3.335-0.002,6.67-0.002,9.94
			c0.486,0.305,0.808,0.065,1.128-0.074c1.917-0.834,3.778-1.778,5.486-2.994c0.409-0.291,0.884-0.519,0.693-1.228
			c-0.825-3.063,0.027-5.888,1.355-8.614c1.007-2.068,2.272-3.991,3.571-5.884c0.962-1.401,2.096-1.279,2.84,0.239
			c0.373,0.761,0.528,1.577,0.542,2.424c0.062,3.605-0.841,6.915-2.989,9.85c-0.175,0.24-0.484,0.421-0.389,0.905
			c0.501,0.178,1.072,0.081,1.616,0.064c4.362-0.136,8.157,1.524,11.759,3.737c1.435,0.881,1.431,2.116,0.049,3.138
			c-1.965,1.454-4.263,1.61-6.58,1.447c-3.579-0.252-6.585-1.854-9.271-4.142c-1.076-0.917-1.081-0.913-2.293-0.075
			c-2.028,1.403-4.215,2.516-6.509,3.392c-0.872,0.333-1.165,0.818-1.226,1.714c-0.311,4.529-0.631,9.059-1.05,13.579
			c-0.843,9.099-2.274,18.115-3.947,27.095c-0.966,5.182-2.18,10.307-3.453,15.42c-0.11,0.441-0.344,0.88-0.032,1.512
			c1.936-1.018,3.834-2.088,5.796-3.025c1.78-0.85,2.804-2.014,2.873-4.128c0.061-1.882,0.835-3.648,1.776-5.299
			c1.345-2.359,2.791-4.655,4.335-6.888c0.524-0.759,1.053-1.738,2.205-1.351c1.174,0.395,1.185,1.533,1.119,2.51
			c-0.281,4.214-1.581,8.066-4.259,11.393c-0.293,0.364-0.585,0.729-0.871,1.099c-0.026,0.034-0.008,0.102-0.011,0.177
			c0.423,0.345,0.965,0.318,1.46,0.364c3.561,0.327,6.72,1.852,9.889,3.322c1.273,0.591,1.317,1.699,0.186,2.585
			c-0.848,0.664-1.852,0.931-2.908,1.041c-2.909,0.303-5.595-0.359-8.095-1.848c-1.167-0.695-2.325-1.406-3.379-2.262
			c-0.525-0.426-0.951-0.455-1.533-0.075c-2.802,1.829-5.789,3.324-8.827,4.714c-0.593,0.271-0.889,0.659-1.04,1.25
			c-1.793,7.041-4.348,13.829-6.852,20.633c-0.126,0.343-0.222,0.697-0.362,1.034c-0.263,0.632-0.063,1.077,0.46,1.487
			c1.111,0.871,2.259,1.679,3.468,2.41c0.633,0.383,0.982,0.226,1.434-0.307c1.513-1.785,3.35-3.156,5.617-3.82
			c5.232-1.532,10.16,0.895,12.41,6.059c0.947,2.175,1.562,4.423,1.534,6.819c-0.068,5.881-0.838,11.647-2.809,17.216
			c-0.331,0.936-0.798,1.811-1.242,2.698c-1.378,2.75-3.7,4.169-6.61,4.752c-3.187,0.638-6.432,0.725-9.663,0.785
			c-5.847,0.109-11.693,0.016-17.5-0.801c-1.338-0.188-2.715-0.249-3.961-0.826c-0.651-0.301-0.85,0.176-1.131,0.499
			c-1.515,1.741-3.202,3.302-5.063,4.655c-4.036,2.933-8.484,4.669-13.566,4.414c-4.444-0.223-7.815-2.104-9.555-6.357
			c-0.36-0.881-0.837-0.845-1.579-0.667c-3.612,0.867-7.267,1.386-10.996,1.411c-2.574,0.017-5.108-0.244-7.611-0.788
			c-1.21-0.263-2.057-0.243-2.846,1.03c-1.187,1.915-3.169,3.037-5.244,3.796c-5.544,2.027-10.921,1.975-15.982-1.517
			c-2.204-1.521-4.256-3.202-6.033-5.198c-0.635-0.713-1.274-0.876-2.188-0.737c-9.028,1.373-18.09,1.418-27.167,0.598
			c-0.827-0.075-1.654-0.24-2.46-0.447c-2.535-0.651-4.532-1.994-5.829-4.363c-1.064-1.942-1.887-3.974-2.391-6.102
			c-1.217-5.142-2.103-10.344-1.672-15.658c0.288-3.546,1.66-6.683,4.212-9.196c2.795-2.752,7.777-3.298,11.39-1.355
			c1.062,0.571,2.033,1.277,2.917,2.097c0.461,0.428,0.837,0.903,1.597,0.417c0.713-0.456,1.179-0.846,1.03-1.844
			c-0.394-2.63-0.638-5.282-0.971-7.922c-1.717-13.629-4.581-27.044-7.46-40.461c-2.004-9.338-4.427-18.568-6.785-27.816
			c-0.211-0.826-0.565-1.539-1.101-2.209c-2.105-2.634-4.655-4.75-7.445-6.668c-0.521,0.712-0.953,1.362-1.444,1.963
			c-2.282,2.789-5.161,4.693-8.631,5.659c-1.404,0.391-2.833,0.73-4.273,0.947c-1.441,0.217-2.17-0.821-1.58-2.15
			c0.474-1.068,1.258-1.919,2.128-2.677c1.94-1.691,4.058-3.102,6.463-4.063c0.509-0.203,1.098-0.293,1.613-0.871
			c-4.476-1.333-7.841-4.233-11.192-7.15c-0.391-0.34-0.792-0.696-1.086-1.117c-0.578-0.828-0.344-1.62,0.559-2.065
			c0.473-0.233,0.99-0.309,1.518-0.336c1.85-0.097,3.648,0.136,5.368,0.842c4.314,1.769,7.845,4.516,10.439,8.421
			c0.229,0.345,0.376,0.757,0.738,0.998c2.035,1.356,3.919,2.914,5.826,4.456c0.43-0.377,0.202-0.727,0.108-1.037
			c-3.729-12.278-7.506-24.541-11.864-36.616c-0.371-1.028-0.832-2.026-1.29-3.021c-0.535-1.161-0.458-1.727,0.558-2.381
			c1.711-1.103,3.468-2.136,5.321-2.983c1.424-0.65,1.829-0.374,2.466,1.03c1.963,4.326,3.764,8.715,5.451,13.154
			c0.051,0.134,0.163,0.245,0.241,0.357c0.251-0.05,0.376-0.214,0.492-0.39c1.762-2.666,3.173-5.513,4.364-8.474
			c0.227-0.564,0.283-0.991-0.222-1.53c-2.63-2.804-3.966-6.214-4.404-9.99c-0.222-1.917-0.342-3.846-0.499-5.771
			c-0.025-0.31-0.044-0.631,0.006-0.934c0.16-0.981,0.847-1.42,1.82-1.169c0.681,0.176,1.193,0.63,1.676,1.111
			c2.306,2.294,3.516,5.137,4.12,8.277c0.267,1.388,0.383,2.789,0.367,4.204c-0.006,0.501-0.118,1.022,0.098,1.494
			c0.436,0.146,0.61-0.182,0.821-0.375c3.056-2.791,6.761-4.491,10.442-6.232c0.14-0.066,0.296-0.103,0.446-0.147
			c1.607-0.477,2.404,0.165,2.309,1.86c-0.06,1.076-0.497,2.014-1.061,2.908c-1.95,3.089-4.731,5.096-8.16,6.246
			c-1.488,0.499-3.016,0.865-4.588,0.924c-0.941,0.035-1.504,0.355-1.871,1.287c-1.112,2.825-2.637,5.445-4.28,7.99
			c-0.704,1.09-0.785,2.077-0.338,3.35c6.442,18.377,11.98,37.027,16.262,56.023c2.316,10.274,4.711,20.544,6.215,30.986
			c0.029,0.202,0.047,0.411,0.341,0.61c0.28-0.243,0.232-0.612,0.277-0.932c0.615-4.452,1.558-8.834,2.834-13.143
			c1.223-4.131,2.938-8.034,5.537-11.501c0.411-0.548,0.405-0.836-0.186-1.226c-1.262-0.832-2.508-1.697-3.706-2.618
			c-6.722-5.166-9.07-12.095-8.117-20.33c0.258-2.232,0.69-4.432,1.269-6.603c1.089-4.088,0.812-8.294,1.079-12.451
			c0.225-3.504,0.654-6.97,1.929-10.263c0.34-0.878,0.126-1.271-0.593-1.773c-7.412-5.177-8.327-15.935-3.529-22.463
			c5.013-6.822,14.251-7.337,19.932-1.065c1.274,1.406,2.29,2.983,2.941,4.768c0.259,0.71,0.595,0.819,1.288,0.546
			c2.425-0.955,4.869-1.865,7.317-2.761c3.258-1.192,6.623-1.758,10.094-1.957c7.658-0.44,15.225,0.169,22.73,1.663
			c2.459,0.49,4.847,1.249,7.2,2.115c1.089,0.401,1.101,0.391,1.535-0.709c1.375-3.484,3.649-6.22,6.976-7.942
			c7.881-4.079,16.286,0.782,18.579,7.549c2.271,6.703,0.759,12.827-4.04,17.96c-1.317,1.409-1.623,2.358-0.813,4.104
			c1.144,2.468,1.51,5.196,1.766,7.908c0.069,0.727,0.16,1.456,0.163,2.185c0.004,0.863,0.337,1.423,1.091,1.897
			c3.728,2.343,6.727,5.426,9.06,9.16C199.512,129.848,199.655,129.993,200.004,130.427z M165.481,191.448
			c0.051-0.734-0.176-1.426-0.313-2.123c-0.172-0.869-0.403-1.727-0.571-2.597c-0.122-0.633,0.046-1.173,0.761-1.313
			c0.621-0.122,0.982,0.243,1.158,0.801c0.125,0.397,0.228,0.803,0.324,1.209c1.052,4.443,1.456,8.946,1.368,13.51
			c-0.14,7.288-1.405,14.426-2.785,21.548c-1.072,5.533-2.66,10.944-4.017,16.41c-0.456,1.838-0.686,3.692-0.488,5.584
			c0.425,4.055,3.442,6.965,7.503,7.332c5.125,0.463,9.579-1.225,13.532-4.303c5.937-4.624,9.749-10.797,12.435-17.718
			c2.523-6.501,4.077-13.235,4.862-20.172c1.259-11.127-0.219-21.843-4.418-32.209c-1.816-4.483-4.092-8.679-7.331-12.308
			c-1.498-1.679-3.127-3.21-4.963-4.526c-0.82-0.588-1.5-0.722-2.378-0.052c-0.864,0.659-1.855,1.164-2.824,1.674
			c-8.573,4.516-17.756,7.219-27.23,8.987c-4.75,0.886-9.526,0.826-14.332,0.151c-5.41-0.759-10.563-2.435-15.753-3.99
			c-3.4-1.019-6.698-2.332-9.893-3.892c-1.161-0.567-1.259-0.535-2.164,0.369c-0.258,0.258-0.501,0.532-0.735,0.812
			c-2.448,2.93-4.016,6.311-5.196,9.915c-2.557,7.811-3.585,15.855-3.749,24.032c-0.125,6.218,0.279,12.411,0.899,18.596
			c0.658,6.571,2.489,12.789,5.553,18.628c2.838,5.406,6.751,9.878,11.813,13.34c4.513,3.087,9.266,3.099,14.178,1.229
			c3.869-1.473,5.829-4.425,6.196-8.453c0.293-3.213-0.241-6.352-1.25-9.4c-2.463-7.439-4.474-14.978-5.63-22.75
			c-0.962-6.473-1.668-12.936-1.021-19.482c0.061-0.622,0.123-1.248,0.257-1.856c0.116-0.529,0.543-0.786,1.061-0.715
			c0.51,0.069,0.861,0.399,0.835,0.961c-0.034,0.729-0.108,1.456-0.167,2.184c-0.088,1.066-0.219,2.133-0.087,3.24
			C142.274,190.148,153.728,189.436,165.481,191.448z M141.738,85.512c-8.01-0.164-9.777,0.147-15.461,1.859
			c-7.587,2.285-14.343,5.923-19.845,11.72c-3.949,4.161-7.075,8.77-8.052,14.567c-0.565,3.354-0.726,6.741-0.76,10.136
			c-0.029,2.935-0.398,5.823-1.133,8.668c-0.549,2.124-0.929,4.28-1.128,6.468c-0.644,7.06,1.574,12.926,7.178,17.42
			c3.161,2.535,6.68,4.444,10.345,6.119c4.763,2.178,9.797,3.56,14.799,5.034c7.934,2.338,15.976,3.108,24.119,1.322
			c7.756-1.702,15.366-3.901,22.545-7.383c3.061-1.485,5.945-3.253,8.578-5.425c4.412-3.64,6.645-8.335,6.874-14.018
			c0.125-3.107-0.398-6.138-1.14-9.133c-0.719-2.9-1.166-5.823-1.193-8.817c-0.017-1.93-0.131-3.86-0.241-5.787
			c-0.301-5.254-1.559-10.205-4.742-14.517c-5.358-7.259-12.132-12.575-20.872-15.198C154.501,86.416,147.194,85.73,141.738,85.512z
			 M154.306,192.198c-3.304-0.137-6.833,0.278-10.348,0.762c-3.934,0.542-7.82,1.326-11.493,2.913
			c-2.054,0.887-1.682,0.734-1.618,2.492c0.218,6.016,1.232,11.935,2.403,17.818c1.008,5.067,2.497,10.015,4.118,14.924
			c1.455,4.408,2.282,8.901,1.125,13.536c-0.179,0.716,0.272,0.758,0.75,0.874c6.28,1.52,12.528,1.123,18.768-0.261
			c0.627-0.139,0.888-0.382,0.831-1.044c-0.22-2.593,0.355-5.088,1.026-7.56c2.382-8.767,4.457-17.599,5.598-26.624
			c0.603-4.767,1.036-9.55,0.591-14.363c-0.219-2.371-0.233-2.368-2.608-2.832C160.514,192.26,157.545,192.143,154.306,192.198z
			 M189.732,242.562c1.008,0.188,1.719,0.341,2.438,0.45c6.681,1.021,13.41,1.068,20.141,0.869c2.236-0.066,4.481-0.191,6.701-0.56
			c2.864-0.476,5.087-1.796,6.227-4.598c0.275-0.676,0.611-1.329,0.848-2.017c1.832-5.331,2.581-10.828,2.578-16.453
			c-0.001-2.152-0.616-4.123-1.502-6.018c-2.401-5.137-7.863-6.596-12.566-3.433c-2.257,1.518-3.437,3.724-4.127,6.251
			c-0.246,0.903-0.366,1.84-0.546,2.76c-0.113,0.58-0.235,1.177-1.011,1.147c-0.578-0.023-0.802-0.525-0.687-1.49
			c0.037-0.309,0.113-0.615,0.187-0.918c0.259-1.063,0.511-2.128,0.793-3.185c0.154-0.576,0.034-0.98-0.488-1.33
			c-2.263-1.515-4.204-3.422-6.255-5.195c-0.254-0.219-0.443-0.611-0.998-0.449C200.117,220.548,197.159,232.208,189.732,242.562z
			 M96.324,207.101c-0.285,0.137-0.444,0.172-0.544,0.269c-2.143,2.06-4.249,4.162-6.755,5.797
			c-0.489,0.319-0.531,0.676-0.298,1.192c0.76,1.682,0.938,3.514,1.272,5.302c0.146,0.782-0.193,1.306-0.729,1.303
			c-0.645-0.004-0.866-0.453-0.971-1.018c-0.2-1.076-0.361-2.164-0.651-3.216c-0.845-3.068-2.6-5.414-5.54-6.797
			c-3.544-1.666-7.599-0.696-9.918,2.456c-1.614,2.194-2.473,4.683-2.64,7.405c-0.232,3.782,0.408,7.483,1.034,11.185
			c0.464,2.739,1.303,5.353,2.439,7.892c1.156,2.584,3.194,3.892,5.865,4.392c0.768,0.144,1.545,0.261,2.323,0.321
			c6.562,0.506,13.127,0.56,19.688,0.012c1.89-0.158,3.803-0.25,5.644-0.745c-0.01-0.633-0.418-0.933-0.675-1.307
			c-1.331-1.935-2.563-3.925-3.595-6.042c-2.983-6.12-4.671-12.585-5.223-19.358C96.809,213.186,96.575,210.227,96.324,207.101z
			 M190.18,129.574c-0.179,0.474-0.003,0.815,0.083,1.163c0.683,2.788,1.297,5.59,1.497,8.46c0.455,6.515-1.216,12.29-5.987,16.965
			c-0.372,0.365-0.747,0.728-1.14,1.071c-0.357,0.312-0.358,0.596-0.008,0.904c0.234,0.207,0.455,0.43,0.688,0.638
			c2.871,2.557,5.251,5.532,7.114,8.873c3.727,6.686,6.54,13.733,7.997,21.282c0.12,0.624,0.281,1.24,0.424,1.864
			c0.456-0.16,0.455-0.443,0.518-0.685c2.792-10.701,4.992-21.527,6.867-32.422c0.142-0.824-0.03-1.511-0.453-2.223
			c-1.146-1.925-2.313-3.841-3.245-5.887c-1.521-3.336-2.491-6.857-3.427-10.383c-0.239-0.899-0.653-1.327-1.519-1.505
			c-1.077-0.221-2.095-0.625-3.027-1.229c-2.224-1.442-4.049-3.269-5.423-5.544C190.875,130.48,190.724,129.958,190.18,129.574z
			 M172.429,91.393c0.867-1.76,2.071-3.043,3.712-3.847c1.992-0.976,4.032-1.178,5.936,0.164c1.948,1.373,2.781,3.29,2.5,5.703
			c-0.231,1.982-1.006,3.714-2.203,5.272c-0.448,0.583-0.487,1.032,0.02,1.639c0.867,1.039,1.651,2.151,2.421,3.265
			c0.372,0.538,0.622,0.685,1.199,0.189c4.56-3.911,6.409-11.695,4.049-17.214c-1.856-4.34-6.749-7.489-11.152-7.238
			c-5.605,0.32-9.505,4.555-10.95,8.56c-0.191,0.53-0.125,0.867,0.395,1.155C169.676,89.774,170.972,90.547,172.429,91.393z
			 M111.6,91.901c0.853-0.532,1.707-1.121,2.615-1.612c0.672-0.363,0.678-0.783,0.424-1.411c-0.613-1.513-1.394-2.916-2.476-4.145
			c-5.058-5.741-13.406-5.068-17.397,1.468c-2.602,4.261-2.816,8.761-0.903,13.355c0.923,2.215,2.367,4.034,4.313,5.46
			c0.606,0.444,0.965,0.405,1.352-0.271c0.517-0.904,1.109-1.768,1.715-2.617c0.319-0.447,0.366-0.823,0.041-1.273
			c-0.336-0.465-0.643-0.951-0.942-1.441c-1.263-2.061-1.86-4.294-1.713-6.716c0.29-4.765,4.635-7.249,8.885-5.082
			c1.342,0.684,2.342,1.72,3.152,2.969C110.944,91.015,111.047,91.568,111.6,91.901z M220,135.688
			c0.204-0.649-0.095-0.996-0.84-1.051c-1.767-0.13-3.534-0.269-5.298-0.434c-0.611-0.057-0.871,0.194-0.889,0.776
			c-0.008,0.26-0.034,0.52-0.054,0.78c-0.423,5.458-0.984,10.901-1.783,16.318c-0.243,1.65-0.493,3.299-0.744,4.947
			c-0.088,0.579-0.033,1.007,0.707,1.101c1.654,0.208,3.307,0.438,4.947,0.733c0.712,0.128,0.925-0.129,1.015-0.769
			c0.21-1.496,0.467-2.986,0.704-4.478C218.704,147.689,219.451,141.743,220,135.688z M216.556,161.319
			c0.15-0.685-0.322-0.833-0.806-0.902c-1.495-0.212-2.992-0.411-4.493-0.583c-1.278-0.146-1.291-0.129-1.524,1.096
			c-0.565,2.967-1.082,5.944-1.688,8.903c-0.846,4.132-1.755,8.251-2.639,12.376c-0.316,1.473-0.32,1.478,1.173,1.838
			c1.063,0.256,2.128,0.504,3.197,0.737c1.407,0.308,1.428,0.305,1.775-1.058c1.171-4.592,2.335-9.186,3.293-13.828
			C215.433,167.042,215.986,164.179,216.556,161.319z M221.406,117.825c0-1.413-0.02-3.551,0.011-5.688
			c0.011-0.753-0.163-1.152-1.026-1.141c-1.458,0.019-2.917-0.089-4.376-0.094c-1.645-0.005-1.668,0.018-1.74,1.622
			c-0.115,2.552-0.155,5.107-0.299,7.657c-0.199,3.539-0.469,7.074-0.699,10.611c-0.102,1.567-0.093,1.581,1.516,1.778
			c1.396,0.172,2.796,0.316,4.195,0.458c1.221,0.124,1.276,0.086,1.402-1.224C220.813,127.395,221.127,122.975,221.406,117.825z
			 M82.054,158.989c1.956-0.454,3.726-0.874,5.5-1.272c0.668-0.15,1.032-0.445,0.771-1.191c-0.102-0.293-0.132-0.61-0.208-0.913
			c-1.301-5.15-2.604-10.301-3.908-15.45c-0.101-0.397-0.137-0.828-0.554-1.118c-1.461,0.476-2.953,0.931-4.424,1.448
			c-1.46,0.513-1.449,0.54-1.089,1.98c0.731,2.931,1.485,5.857,2.183,8.795C80.926,153.796,81.464,156.339,82.054,158.989z
			 M77.516,139.227c1.423-0.416,2.872-0.812,4.303-1.266c1.569-0.498,1.622-0.641,1.22-2.222c-1.091-4.287-2.438-8.499-3.711-12.732
			c-0.285-0.946-0.564-1.894-0.851-2.84c-0.15-0.493-0.425-0.644-0.938-0.415c-1.282,0.572-2.599,1.068-3.87,1.66
			c-1.123,0.523-1.126,0.57-0.755,1.767c1.509,4.871,2.78,9.807,4.044,14.745C77.072,138.373,77.102,138.855,77.516,139.227z
			 M95.193,192.992c-0.303-2.273-0.567-4.552-0.918-6.818c-0.414-2.677-0.885-5.346-1.368-8.012
			c-0.183-1.009-0.272-1.035-1.232-0.821c-1.322,0.294-2.647,0.576-3.96,0.908c-1.518,0.384-1.515,0.406-1.251,1.879
			c0.175,0.975,0.369,1.946,0.535,2.922c0.628,3.699,1.247,7.4,1.872,11.1c0.192,1.139,0.196,1.132,1.288,0.854
			c1.413-0.359,2.826-0.72,4.246-1.051C94.944,193.827,95.256,193.589,95.193,192.992z M72.163,120.126
			c1.445-0.563,2.9-1.121,4.348-1.696c1.253-0.497,1.275-0.513,0.859-1.808c-1.578-4.915-3.173-9.824-4.762-14.735
			c-0.048-0.149-0.109-0.294-0.151-0.444c-0.162-0.586-0.495-0.679-1.061-0.49c-1.294,0.433-2.505,1.031-3.69,1.694
			c-1.146,0.641-1.179,0.644-0.726,1.911c1.686,4.715,3.135,9.506,4.596,14.294C71.712,119.296,71.757,119.781,72.163,120.126z
			 M92.232,174.996c-0.077-0.387-0.135-0.694-0.2-0.999c-0.786-3.716-1.574-7.432-2.361-11.149
			c-0.215-1.018-0.418-2.039-0.646-3.054c-0.078-0.347-0.16-0.785-0.68-0.641c-1.754,0.487-3.561,0.775-5.272,1.426
			c-0.419,0.159-0.572,0.411-0.497,0.83c0.064,0.359,0.126,0.718,0.202,1.074c0.841,3.918,1.685,7.835,2.527,11.753
			c0.153,0.712,0.298,1.426,0.454,2.138c0.08,0.365,0.318,0.526,0.684,0.447c1.729-0.373,3.457-0.749,5.183-1.133
			C92.024,175.599,92.271,175.363,92.232,174.996z M64.915,82.772c-1.663,0.6-3.287,1.301-4.746,2.322
			c-0.476,0.333-0.103,0.765,0.062,1.115c0.755,1.602,1.373,3.259,1.979,4.921c1.139,3.127,2.265,6.259,3.409,9.385
			c0.387,1.058,0.418,1.08,1.423,0.564c1.159-0.595,2.326-1.153,3.572-1.55c1.048-0.333,1.077-0.377,0.707-1.415
			c-0.996-2.792-1.999-5.582-3.056-8.351c-0.798-2.089-1.677-4.146-2.538-6.21C65.579,83.197,65.506,82.706,64.915,82.772z
			 M203.673,206.964c0.4-0.191,0.435-0.521,0.539-0.81c1.355-3.773,2.748-7.532,4.052-11.322c0.812-2.361,1.508-4.764,2.218-7.159
			c0.292-0.982,0.249-1.028-0.744-1.254c-1.37-0.312-2.761-0.538-4.123-0.882c-0.753-0.19-1.028,0.063-1.189,0.764
			c-0.349,1.522-0.704,3.046-1.16,4.538c-1.178,3.85-2.046,7.731-1.562,11.798c0.018,0.154,0.021,0.316-0.007,0.468
			C201.355,204.932,202.443,205.987,203.673,206.964z M100.466,93.095c0.022,2.44,0.872,4.368,2.127,6.152
			c0.273,0.388,0.555,0.42,0.881,0.062c0.526-0.578,1.049-1.16,1.593-1.721c1.345-1.387,2.824-2.627,4.297-3.871
			c0.415-0.35,0.79-0.656,0.474-1.299c-0.948-1.932-2.363-3.296-4.509-3.771c-1.768-0.391-3.338,0.361-4.194,1.962
			C100.685,91.45,100.432,92.344,100.466,93.095z M90.817,208.395c0.175-0.022,0.305,0.002,0.368-0.052
			c1.539-1.335,2.913-2.834,4.288-4.333c0.255-0.279,0.412-0.605,0.386-0.992c-0.152-2.29-0.305-4.58-0.465-6.87
			c-0.037-0.528-0.3-0.702-0.841-0.59c-1.381,0.286-2.735,0.667-4.07,1.115c-1.107,0.371-1.13,0.391-0.997,1.534
			c0.253,2.176,0.518,4.35,0.826,6.518C90.485,205.948,90.47,207.202,90.817,208.395z M180.421,97.842
			c1.458-1.58,2.213-3.21,2.35-5.033c0.198-2.633-2.015-4.712-4.56-4.192c-1.766,0.361-3.12,1.385-4.052,2.954
			c-0.324,0.546-0.304,0.939,0.281,1.289c1.535,0.916,2.778,2.197,4.126,3.348C179.194,96.743,179.695,97.43,180.421,97.842z
			 M190.362,122.997c0.373,2.807,1.514,5.274,3.008,7.595c1.088,1.69,2.54,3.02,4.226,4.092c0.773,0.491,1.58,0.951,2.794,0.904
			C198.34,130.183,195.027,126.067,190.362,122.997z M202.458,135.236c3.082-2.804,4.364-11.575,2.126-14.881
			C202.687,125.113,201.387,129.904,202.458,135.236z M247.054,121.199c-3.612-2.84-9.947-4.228-12.927-2.945
			C237.475,121.85,243.697,123.202,247.054,121.199z M62.174,121.611c-0.011-0.711-0.322-0.941-0.553-1.203
			c-2.349-2.665-5.219-4.574-8.526-5.841c-0.83-0.318-1.7-0.481-2.582-0.548c-0.312-0.024-0.731-0.238-0.962,0.371
			C53.217,117.639,56.852,120.958,62.174,121.611z M80.255,85.105c1.509,0.209,2.633-0.192,3.745-0.537
			c3.121-0.968,5.748-2.648,7.533-5.464c0.308-0.486,0.726-0.967,0.549-1.765C87.792,79.392,83.451,81.126,80.255,85.105z
			 M74.118,69.617c0.139,4.97,0.434,9.632,3.708,13.667C78.907,78.694,77.138,72.057,74.118,69.617z M231.682,115.88
			c3.529-2.648,5.881-8.723,4.632-11.873C233.978,107.653,231.323,111.005,231.682,115.88z M62.512,124.325
			c-4.413,0.943-8.025,2.754-11.166,5.963C55.555,130.18,60.426,127.588,62.512,124.325z M230.5,164.878
			c-3.208,3.166-6.232,9.243-5.794,11.583C228.144,173.386,229.751,169.492,230.5,164.878z M226.918,179.385
			c3.041,2.627,7.276,3.764,9.25,2.593C233.316,180.564,230.433,179.49,226.918,179.385z"/>
		<path d="M134.506,125.304c-0.21,6.468-2.06,11.887-6.062,16.488c-1.839,2.115-4.021,3.789-6.621,4.87
			c-5.829,2.424-11.952,0.839-15.883-4.098c-2.777-3.488-3.959-7.553-4.071-11.926c-0.152-5.926,1.478-11.34,5.125-16.066
			c2.45-3.174,5.485-5.582,9.442-6.59c4.896-1.247,9.202-0.092,12.8,3.457c3.02,2.979,4.49,6.722,5.037,10.861
			C134.423,123.434,134.453,124.585,134.506,125.304z M132.421,125.378c0-0.469,0.033-0.941-0.005-1.407
			c-0.318-3.941-1.446-7.58-4.133-10.585c-3.323-3.716-8.034-4.807-12.678-3c-2.487,0.968-4.572,2.511-6.27,4.542
			c-4.195,5.014-5.937,10.827-5.324,17.307c0.336,3.548,1.544,6.81,3.931,9.537c3.349,3.825,8.228,4.971,12.935,3.063
			c2.367-0.959,4.359-2.451,6.02-4.373C130.637,136.135,132.34,131.047,132.421,125.378z"/>
		<path d="M151.658,125.564c0.057-4.433,0.993-8.598,3.643-12.246c4.238-5.835,11.248-7.458,17.635-4.098
			c1.628,0.857,3.127,1.911,4.372,3.259c6.56,7.104,8.483,15.336,5.838,24.62c-0.576,2.024-1.629,3.832-2.945,5.479
			c-3.938,4.929-10.07,6.509-15.888,4.074c-2.852-1.194-5.187-3.085-7.123-5.471C153.497,136.631,151.805,131.366,151.658,125.564z
			 M182.277,129.422c-0.05-4.422-1.404-8.848-4.149-12.822c-1.938-2.807-4.417-4.991-7.641-6.237
			c-4.525-1.75-9.13-0.698-12.456,2.835c-1.194,1.268-2.096,2.725-2.77,4.324c-1.897,4.504-2.01,9.125-0.787,13.796
			c1.066,4.068,3.015,7.653,6.138,10.532c2.077,1.914,4.464,3.297,7.276,3.722c4.83,0.729,8.573-1.166,11.312-5.088
			C181.425,137.299,182.266,133.674,182.277,129.422z"/>
		<path d="M143.934,127.068c1.236-0.044,2.374,0.098,3.475,0.444c2.885,0.909,3.968,3.541,2.532,6.215
			c-0.842,1.568-2.114,2.736-3.798,3.32c-0.761,0.264-0.97,0.664-0.912,1.372c0.055,0.674,0.037,1.358,0.135,2.025
			c0.102,0.697,0.409,1.265,1.178,1.502c0.795,0.245,1.437,0.033,2.007-0.503c0.589-0.554,0.892-1.27,1.092-2.039
			c0.105-0.402,0.197-0.812,0.348-1.198c0.174-0.445,0.561-0.617,1.013-0.547c0.452,0.07,0.823,0.353,0.793,0.826
			c-0.124,1.957-0.809,3.67-2.463,4.836c-1.45,1.022-2.985,0.868-4.391-0.06c-0.603-0.398-0.886-0.377-1.43,0.073
			c-1.318,1.09-2.838,0.992-4.258,0.261c-1.536-0.791-2.409-2.115-2.465-3.896c-0.014-0.443,0.075-0.869,0.595-0.952
			c0.604-0.096,0.854,0.316,0.919,0.824c0.143,1.109,0.639,1.982,1.632,2.517c1.446,0.778,2.69,0.263,3.16-1.314
			c0.148-0.495,0.228-1.018,0.273-1.535c0.143-1.608,0.122-1.589-1.397-2.188c-1.414-0.557-2.757-1.233-3.784-2.416
			c-0.63-0.727-1.062-1.547-1.279-2.474c-0.417-1.789,0.096-2.873,1.712-3.76C140.303,127.479,142.084,126.977,143.934,127.068z
			 M143.966,128.914c-1.983-0.019-2.922,0.343-4.134,1.071c-1.284,0.771-1.12,1.548-0.57,2.624c0.633,1.24,1.806,1.826,3.012,2.346
			c2.42,1.044,5.238-0.192,6.125-2.678c0.437-1.225,0.086-2.127-1.094-2.711C146.256,129.048,145.122,128.913,143.966,128.914z"/>
		<path d="M226.172,224.499c-0.042,3.006-0.75,6.399-2.382,9.565c-0.722,1.401-1.619,2.678-2.907,3.633
			c-2.152,1.596-4.436,1.251-5.999-0.912c-0.942-1.304-1.385-2.809-1.588-4.368c-0.565-4.34,0.044-8.525,1.844-12.522
			c0.582-1.291,1.332-2.482,2.317-3.508c2.732-2.847,5.988-2.294,7.632,1.306C225.998,219.682,226.187,221.807,226.172,224.499z
			 M215.132,229.34c0,0.469-0.032,0.941,0.006,1.407c0.125,1.515,0.376,3.004,1.115,4.36c0.975,1.79,2.26,2.006,3.791,0.649
			c0.59-0.523,1.078-1.138,1.464-1.822c2.197-3.893,3.034-8.062,2.5-12.501c-0.138-1.146-0.422-2.256-0.979-3.277
			c-0.972-1.779-2.267-2.002-3.799-0.647c-0.873,0.772-1.48,1.746-1.996,2.778C215.809,223.136,215.176,226.173,215.132,229.34z"/>
		<path d="M85.134,229.461c0.028,1.684-0.191,3.333-0.668,4.944c-0.299,1.008-0.745,1.947-1.435,2.754
			c-1.452,1.698-3.439,2-5.326,0.801c-1.408-0.895-2.363-2.196-3.139-3.63c-1.697-3.136-2.422-6.529-2.55-10.066
			c-0.065-1.784,0.133-3.541,0.619-5.261c0.286-1.013,0.722-1.956,1.385-2.782c1.486-1.852,3.566-2.172,5.548-0.837
			c1.379,0.928,2.32,2.239,3.083,3.682C84.369,222.316,85.062,225.816,85.134,229.461z M83.108,229.453
			c-0.077-3.542-0.8-6.87-2.552-9.931c-0.575-1.005-1.26-1.926-2.278-2.527c-1.028-0.608-1.857-0.456-2.632,0.456
			c-0.552,0.65-0.899,1.425-1.079,2.236c-1.185,5.346-0.312,10.347,2.626,14.971c0.45,0.708,1.054,1.297,1.812,1.691
			c0.934,0.486,1.668,0.358,2.388-0.416c0.47-0.505,0.743-1.125,0.987-1.762C82.968,232.635,83.069,231.026,83.108,229.453z"/>
		<g>
			<path d="M119.844,120.647c-2.002-0.476-3.389,0.674-4.511,2.16c-1.503,1.988-2.069,4.294-2.164,7.09
				c0.046,0.437,0.055,1.229,0.223,1.988c0.397,1.8,1.125,3.458,3.1,3.957c2.067,0.522,3.523-0.618,4.631-2.196
				c1.962-2.794,2.535-5.916,1.842-9.237C122.596,122.647,121.745,121.1,119.844,120.647z"/>
			<path d="M170.952,121.174c-0.558-0.83-1.22-1.564-2.079-2.094c-1.761-1.087-3.655-0.626-4.706,1.154
				c-0.402,0.681-0.636,1.427-0.727,2.214c-0.341,2.948,0.22,5.708,1.746,8.26c0.54,0.903,1.203,1.704,2.074,2.313
				c1.996,1.397,4.154,0.82,5.18-1.4c0.49-1.06,0.626-2.199,0.652-3.486C172.991,125.715,172.394,123.317,170.952,121.174z"/>
		</g>
	</g>
	<g>
		<path d="M326.682,189.951c-3.795-0.698-6.886-2.53-9.934-4.463c-7.253-4.598-13.615-10.171-18.791-17.058
			c-4.188-5.572-7.452-11.571-8.672-18.533c-0.643-3.671-0.48-7.28,0.803-10.798c1.695-4.649,5.027-7.299,9.917-7.995
			c1.474-0.21,2.906-0.022,4.317,0.46c0.532,0.182,1.026,0.534,1.69,0.471c0.192-0.669,0.013-1.321-0.123-1.975
			c-0.691-3.318-1.597-6.588-2.135-9.94c-0.415-2.588-0.624-5.187-0.356-7.791c0.093-0.908-0.115-1.236-0.962-1.572
			c-7.577-3.003-11.787-11.261-9.815-19.128c1.557-6.21,6.678-10.276,12.83-10.058c3.967,0.141,7.178,1.973,9.837,4.838
			c0.529,0.57,0.992,1.201,1.522,1.848c2.164-1.504,4.326-2.936,6.409-4.475c2.707-1.999,5.611-3.587,8.801-4.662
			c8.81-2.968,17.826-4.755,27.153-4.733c1.354,0.003,2.711,0.121,4.059,0.255c0.788,0.078,1.089-0.155,1.168-0.974
			c0.233-2.419,1.018-4.658,2.306-6.739c4.115-6.648,12.478-8.177,18.975-3.679c3.885,2.689,5.678,6.579,6.144,11.127
			c0.42,4.099-0.273,7.997-2.583,11.521c-0.759,1.157-0.72,1.2,0.127,2.282c2.117,2.702,3.587,5.745,4.686,8.97
			c0.874,2.564,1.645,5.164,2.457,7.749c0.454,1.446,0.969,2.874,1.699,4.199c1.914,3.472,3.687,7.003,4.788,10.892
			c0.686-0.022,1.083-0.467,1.504-0.811c2.399-1.964,4.499-4.213,6.163-6.83c2.501-3.933,4.192-8.278,6.236-12.444
			c0.308-0.628-0.051-0.983-0.391-1.373c-2.025-2.32-3.963-4.712-5.9-7.105c-3.514-4.34-7.072-8.643-10.614-12.96
			c-0.562-0.685-1.064-1.425-1.771-1.977c-0.595-0.464-0.574-0.957-0.069-1.448c1.118-1.087,2.496-1.866,3.511-3.098
			c0.407-0.494,1.037-0.205,1.468,0.317c1.993,2.414,3.999,4.818,6.01,7.217c0.83,0.991,1.589,2.049,2.645,2.919
			c0.762-1.139,0.83-2.123,0.169-3.359c-2.298-4.294-3.127-8.926-2.794-13.775c0.044-0.638,0.094-1.3,0.791-1.573
			c0.717-0.281,1.327,0.022,1.845,0.525c0.682,0.662,1.192,1.454,1.615,2.295c1.186,2.353,2.031,4.802,2.056,7.478
			c0.003,0.354-0.073,0.732,0.174,1.088c0.433,0.154,0.629-0.241,0.871-0.454c2.222-1.959,4.816-3.288,7.498-4.473
			c0.69-0.305,1.411-0.554,2.055,0.013c0.629,0.554,0.526,1.314,0.366,2.047c-0.343,1.573-1.151,2.899-2.213,4.08
			c-1.539,1.711-3.463,2.841-5.616,3.58c-1.083,0.372-2.188,0.728-3.312,0.918c-0.917,0.154-1.241,0.662-1.612,1.429
			c-0.636,1.313-0.398,2.238,0.559,3.321c2.142,2.422,4.126,4.983,6.184,7.48c1.032,1.252,0.935,1.174,2.238,0.509
			c3.457-1.766,6.878-1.502,10.026,0.807c2.565,1.881,4.207,4.454,5.159,7.475c1.188,3.77,1.721,7.633,1.516,11.578
			c-0.05,0.966,0.211,1.667,0.847,2.385c3.427,3.866,6.813,7.768,10.2,11.669c0.821,0.945,1.628,1.906,2.378,2.908
			c0.709,0.947,0.689,1.643,0.011,2.57c-0.681,0.933-1.532,1.714-2.424,2.436c-0.722,0.585-1.223,0.543-1.912-0.167
			c-0.908-0.936-1.766-1.921-2.629-2.899c-2.004-2.268-3.996-4.548-5.999-6.817c-0.549-0.622-1.122-1.222-1.652-1.798
			c-0.567,0.134-0.54,0.551-0.631,0.876c-2.697,9.669-7.578,18.151-14.007,25.793c-1.828,2.173-4.004,3.955-6.278,5.633
			c-0.947,0.699-0.942,0.731-0.244,1.528c7.747,8.846,12.785,19.109,15.916,30.375c1.434,5.16,2.284,10.41,2.095,15.767
			c-0.283,8.008-1.891,15.728-5.45,22.972c-1.975,4.021-4.583,7.577-7.769,10.725c-5.86,5.789-12.656,9.943-20.565,12.398
			c-7.216,2.239-14.567,3.621-22.061,4.36c-5.403,0.533-10.75,1.45-16.104,2.324c-3.155,0.515-6.363,0.863-9.507,0.315
			c-6.285-1.095-11.447-4.153-14.88-9.662c-0.857-1.376-1.745-1.874-3.348-1.792c-4.326,0.221-8.644,0.571-12.969,0.797
			c-4.689,0.245-9.372,0.659-14.077,0.519c-2.468-0.073-4.878-0.482-7.238-1.183c-3.918-1.165-6.744-3.609-8.549-7.279
			c-2.373-4.826-3.443-9.929-3.388-15.288c0.014-1.363,0.19-2.707,0.492-4.032c1.494-6.552,6.934-9.083,12.58-8.407
			c2.684,0.321,5.142,1.376,7.2,3.182c0.595,0.522,1.045,0.642,1.778,0.259c3.899-2.039,7.105-4.921,10.065-8.116
			c0.372-0.401,0.551-0.889,0.658-1.399c0.945-4.515,2.567-8.806,4.303-13.06C326.366,190.894,326.489,190.497,326.682,189.951z
			 M333.746,234.318c0.291-0.662,0.134-1.179,0.128-1.678c-0.035-3.131,0.838-6.001,2.652-8.525
			c2.649-3.685,6.294-5.376,10.834-4.939c3.83,0.369,7.09,2.008,9.839,4.682c1.083,1.053,1.062,1.016,2.48,0.368
			c5.57-2.544,10.784-5.714,15.902-9.045c5.221-3.399,10.703-6.27,16.473-8.623c3.995-1.63,8.111-2.698,12.401-3.091
			c3.312-0.304,6.563,0.017,9.726,1.088c1.046,0.354,2.02,0.846,2.882,1.543c0.392,0.318,0.691,0.701,0.386,1.207
			c-0.326,0.54-0.775,0.388-1.21,0.102c-2.923-1.926-6.222-2.317-9.599-2.244c-3.947,0.084-7.779,0.884-11.446,2.326
			c-5.541,2.178-10.952,4.637-15.998,7.836c-6.079,3.855-12.107,7.801-18.69,10.787c-0.988,0.448-0.971,0.515-0.379,1.47
			c1.326,2.139,2.446,4.369,3.038,6.834c0.085,0.354,0.183,0.709,0.226,1.069c0.052,0.439-0.028,0.877-0.526,1.003
			c-0.495,0.125-0.78-0.191-0.928-0.63c-0.1-0.296-0.171-0.602-0.258-0.903c-0.879-3.053-2.405-5.762-4.355-8.251
			c-2.217-2.829-5.114-4.597-8.593-5.348c-3.871-0.836-7.318,0.106-9.919,3.143c-2.302,2.687-3.254,5.929-2.853,9.476
			c0.514,4.549,2.288,8.643,4.723,12.475c0.759,1.195,1.639,2.289,2.714,3.221c4.732,4.098,10.214,5.723,16.406,4.93
			c8.433-1.081,16.857-2.227,25.293-3.281c6.771-0.846,13.322-2.56,19.652-5.041c8.805-3.452,15.941-9.136,21.016-17.109
			c5.366-8.43,7.308-17.888,7.232-27.784c-0.042-5.417-1.305-10.635-2.8-15.82c-0.55-1.908-1.631-3.009-3.338-3.807
			c-2.809-1.314-5.751-2.182-8.759-2.852c-10.903-2.429-21.922-2.731-33.003-1.706c-7.707,0.713-15.258,2.269-22.743,4.216
			c-10.569,2.749-20.969,5.956-30.799,10.801c-1.17,0.576-2.339,1.153-3.514,1.719c-0.536,0.258-0.932,0.595-1.133,1.204
			c-1.555,4.705-3.078,9.424-3.854,14.33c-1.004,6.345,0.224,12.231,3.827,17.608C328.736,229.844,331.089,232.105,333.746,234.318z
			 M428.078,180.352c0.181-0.29,0.043-0.526-0.048-0.762c-2.908-7.495-6.742-14.459-11.894-20.662
			c-0.618-0.744-1.165-1.682-2.391-0.765c-0.382,0.285-0.935,0.057-1.181-0.44c-0.234-0.474-0.14-0.931,0.283-1.259
			c0.328-0.255,0.697-0.458,1.049-0.68c3.558-2.243,6.693-4.941,9.342-8.242c3.98-4.96,7.229-10.344,9.753-16.166
			c2.511-5.792,4.051-11.832,4.345-18.16c0.176-3.793-0.326-7.495-1.544-11.096c-0.804-2.38-2.108-4.429-4.089-5.991
			c-3.074-2.423-6.84-2.22-9.666,0.416c-1.747,1.63-3.045,3.558-4.051,5.703c-1.24,2.645-2.499,5.28-3.868,7.862
			c-2.414,4.554-5.663,8.369-9.93,11.281c-0.596,0.407-0.794,0.847-0.736,1.556c0.102,1.244,0.207,2.49,0.139,3.747
			c-0.234,4.325-1.977,8.052-4.511,11.463c-2.631,3.542-5.854,6.494-9.289,9.231c-3.68,2.933-7.736,5.292-11.717,7.774
			c-4.274,2.664-8.794,4.792-13.579,6.31c-4.808,1.525-9.799,2.034-14.821,2.081c-3.387,0.032-6.779-0.098-10.164-0.255
			c-6.229-0.289-12.319-1.32-18.197-3.501c-6.977-2.588-11.665-7.297-13.701-14.512c-0.841-2.98-1.105-6.054-1.181-9.132
			c-0.026-1.056-0.444-1.589-1.315-2.042c-4.039-2.104-9.447-0.69-11.864,3.191c-2.169,3.482-2.674,7.32-2.109,11.303
			c0.622,4.385,2.133,8.483,4.325,12.331c3.976,6.979,9.221,12.879,15.374,17.99c3.417,2.839,7.044,5.389,10.951,7.522
			c1.423,0.777,2.896,1.438,4.493,1.785c0.701,0.152,1.216,0.002,1.488-0.745c0.232-0.636,0.551-1.239,0.814-1.864
			c1.857-4.425,3.761-8.837,4.186-13.7c0.004-0.052,0.003-0.105,0.013-0.156c0.08-0.399,0.296-0.68,0.722-0.692
			c0.429-0.013,0.689,0.248,0.737,0.656c0.048,0.412,0.057,0.833,0.035,1.248c-0.082,1.52-0.474,2.983-0.854,4.448
			c-1.064,4.105-2.732,7.989-4.345,11.893c-0.228,0.551-0.581,1.092-0.52,1.766c0.652,0.114,1.063-0.259,1.513-0.465
			c7.829-3.591,15.787-6.788,24.117-9.107c12.496-3.48,25.053-6.412,38.097-6.802C404.559,174.345,416.555,175.544,428.078,180.352z
			 M345.938,161.445c9.761,0.277,16.956-0.786,24.931-4.69c6.051-2.962,11.747-6.533,17.124-10.579
			c3.754-2.825,7.17-6.029,9.928-9.893c3.35-4.692,4.404-9.803,3.145-15.422c-0.645-2.879-1.803-5.558-3.228-8.106
			c-1.768-3.162-3.108-6.47-4.087-9.95c-0.55-1.955-1.228-3.876-1.902-5.793c-1.703-4.845-4.564-8.857-8.648-12.002
			c-3.796-2.922-8.011-5.053-12.487-6.68c-4.426-1.608-9.055-1.985-13.711-1.872c-6.857,0.166-13.592,1.255-20.209,3.054
			c-2.967,0.806-5.938,1.606-8.566,3.314c-1.966,1.277-3.939,2.542-5.891,3.841c-6.572,4.373-11.197,10.354-14.483,17.435
			c-1.687,3.634-2.638,7.438-2.502,11.5c0.116,3.469,0.818,6.83,1.64,10.169c0.901,3.66,1.556,7.335,1.502,11.123
			c-0.028,1.933,0.247,3.852,0.604,5.75c1.297,6.9,5.029,11.883,11.554,14.69c4.205,1.809,8.624,2.77,13.125,3.402
			C338.123,161.344,342.505,161.442,345.938,161.445z M320.953,208.822c-0.578-0.016-0.785,0.406-1.062,0.683
			c-2.225,2.225-4.658,4.174-7.401,5.73c-1.052,0.597-1.068,0.634-0.476,1.773c0.635,1.222,0.966,2.529,1.192,3.869
			c0.084,0.494,0.265,1.132-0.413,1.339c-0.683,0.209-0.891-0.408-1.065-0.884c-0.394-1.079-0.847-2.129-1.326-3.172
			c-1.384-3.013-3.766-4.789-6.897-5.654c-5.885-1.625-10.855,1.439-12.04,7.42c-0.081,0.408-0.14,0.823-0.175,1.238
			c-0.47,5.591,0.597,10.883,3.006,15.942c1.555,3.266,4.033,5.371,7.477,6.395c3.494,1.039,7.07,1.295,10.685,1.099
			c7.551-0.41,15.101-0.846,22.651-1.28c0.402-0.023,0.841,0.077,1.266-0.302c-0.575-1.624-1.158-3.277-1.747-4.928
			c-0.116-0.325-0.418-0.444-0.695-0.59c-4.365-2.293-7.366-5.941-9.751-10.11c-2.484-4.341-3.665-9.061-3.46-14.089
			C320.784,211.813,320.875,210.327,320.953,208.822z M371.106,76.372c0.505-1.83,1.261-3.424,2.638-4.623
			c2.219-1.934,5.102-2.52,7.778-0.22c1.718,1.477,2.017,3.443,2.008,5.527c-0.006,1.375-0.418,2.668-0.876,3.947
			c-0.138,0.385-0.366,0.783,0.082,1.132c1.42,1.106,2.838,2.213,4.256,3.319c3.875-5.188,3.918-13.087,0.092-18.1
			c-2.057-2.695-4.875-4.23-8.225-4.637c-7.384-0.897-12.298,5.253-12.922,11.396c-0.064,0.626,0.168,0.969,0.793,1.121
			C368.141,75.578,369.544,75.963,371.106,76.372z M312.42,92.696c0.878-0.675,1.437-1.577,2.207-2.26
			c0.553-0.491,0.525-0.893,0.107-1.457c-1.197-1.612-2.615-2.967-4.373-3.946c-5.409-3.013-11.659-1.209-14.627,4.214
			c-2.536,4.634-1.873,10.926,1.579,15.291c1.454,1.838,3.221,3.248,5.385,4.141c1.102,0.455,1.174,0.401,1.538-0.685
			c0.297-0.888,0.548-1.797,0.919-2.653c0.282-0.65,0.148-1.09-0.372-1.492c-0.247-0.191-0.485-0.395-0.719-0.602
			c-1.932-1.704-3.24-3.784-3.806-6.311c-0.829-3.703,1.178-6.911,4.734-7.465c2.247-0.35,4.212,0.398,5.934,1.823
			C311.441,91.721,311.905,92.21,312.42,92.696z M306.116,102.331c0.377-0.123,0.488-0.346,0.602-0.59
			c1.012-2.174,2.345-4.154,3.699-6.122c1.106-1.609,1.088-1.761-0.411-2.983c-0.241-0.197-0.488-0.391-0.751-0.556
			c-1.286-0.803-2.696-1.094-4.184-0.868c-2.172,0.33-3.502,2.502-3.045,5C302.509,98.859,304.052,100.805,306.116,102.331z
			 M381.651,76.546c-0.061-0.567-0.069-1.145-0.193-1.698c-0.477-2.128-2.774-3.543-4.757-2.862c-2.007,0.689-3.234,2.15-3.78,4.203
			c-0.142,0.535-0.104,0.859,0.497,1.067c2.258,0.781,4.384,1.858,6.436,3.072c0.648,0.383,0.898,0.181,1.127-0.445
			C381.376,78.801,381.678,77.712,381.651,76.546z M416.18,91.214c-0.031-0.411-0.267-0.631-0.456-0.869
			c-0.907-1.142-1.815-2.284-2.736-3.414c-1.152-1.413-2.301-2.829-3.484-4.216c-0.661-0.775-0.702-0.75-1.489-0.084
			c-0.119,0.101-0.231,0.21-0.343,0.319c-0.897,0.874-0.907,0.883-0.089,1.868c1.998,2.403,4.001,4.801,6.017,7.19
			c0.242,0.287,0.431,0.843,0.96,0.549C415.19,92.207,415.784,91.782,416.18,91.214z M444.888,123.837
			c-0.616,0.725-1.104,1.325-1.62,1.901c-0.345,0.385-0.327,0.705,0.022,1.081c1.878,2.025,3.742,4.063,5.614,6.093
			c0.175,0.189,0.375,0.447,0.648,0.357c0.674-0.223,1.085-0.794,1.496-1.32c0.408-0.522-0.097-0.876-0.373-1.209
			C448.814,128.497,446.933,126.271,444.888,123.837z M405.633,82.474c0.235-0.128,0.339-0.163,0.415-0.229
			c0.316-0.273,0.625-0.553,0.934-0.834c0.826-0.751,0.848-0.769,0.188-1.605c-1.163-1.475-2.337-2.943-3.541-4.384
			c-1.582-1.894-1.055-1.9-3.151-0.191c-0.448,0.365-0.549,0.675-0.128,1.154C402.104,78.378,403.833,80.395,405.633,82.474z
			 M439.333,117.224c-0.554,0.566-0.357,1.203-0.561,1.709c-0.784,1.944-0.001,3.28,1.444,4.579
			c1.681,1.512,1.897,1.569,3.155-0.334c0.028-0.043,0.068-0.079,0.095-0.123c0.205-0.335,0.276-0.676-0.003-1.003
			C442.093,120.446,440.72,118.844,439.333,117.224z M415.895,78.366c3.972-0.538,7.583-3.227,8.022-5.886
			C420.848,73.838,418.074,75.447,415.895,78.366z M411.217,67.082c-0.41,3.495,0.322,6.774,1.869,9.899
			C413.904,73.409,413.105,70.142,411.217,67.082z M418.313,97.435c1.694-1.667,1.694-1.667,0.427-3.295
			c-0.127-0.163-0.25-0.33-0.377-0.493c-1.031-1.331-1.031-1.331-2.313-0.154c-0.038,0.035-0.076,0.071-0.119,0.1
			c-0.502,0.351-0.483,0.7-0.068,1.137C416.679,95.591,417.459,96.488,418.313,97.435z"/>
		<path d="M339.783,233.647c-0.012-1.173,0.147-2.304,0.544-3.391c0.923-2.532,3.181-3.646,5.76-2.876
			c1.226,0.366,2.298,1.019,3.209,1.881c4.257,4.029,6.509,8.958,6.52,14.856c0.002,1.105-0.239,2.178-0.702,3.182
			c-1.022,2.218-3.056,3.13-5.422,2.485c-1.29-0.352-2.399-1.031-3.359-1.922C342.197,244.024,340.091,239.242,339.783,233.647z
			 M353.832,243.053c-0.4-4.551-2.188-8.713-5.674-12.084c-0.829-0.802-1.793-1.428-2.941-1.701
			c-1.237-0.294-2.143,0.096-2.743,1.214c-0.557,1.036-0.753,2.178-0.672,3.329c0.344,4.871,2.225,9.049,5.771,12.439
			c0.682,0.652,1.479,1.158,2.372,1.476c1.604,0.571,2.741,0.052,3.399-1.514C353.737,245.279,353.785,244.292,353.832,243.053z"/>
		<path d="M393.425,116.889c-0.052,3.162-0.82,6.689-3.109,9.73c-3.467,4.609-8.16,6.173-13.692,5.064
			c-6.038-1.211-10.379-4.943-13.598-10.006c-3.027-4.762-4.471-9.997-3.7-15.662c0.716-5.266,3.118-9.493,8.164-11.763
			c3.444-1.549,7.008-1.506,10.529-0.242c5.96,2.141,10.076,6.324,12.855,11.906C392.501,109.185,393.358,112.659,393.425,116.889z
			 M391.369,116.786c0.257-5.046-2.234-11.377-6.063-15.485c-2.311-2.479-4.956-4.464-8.234-5.452
			c-4.707-1.418-9.003-0.804-12.468,2.945c-2.204,2.385-3.191,5.34-3.387,8.548c-0.365,5.965,1.601,11.159,5.355,15.721
			c2.758,3.351,6.153,5.734,10.47,6.639c5.711,1.197,10.781-1.466,13.077-6.832C390.953,120.922,391.272,118.88,391.369,116.786z"/>
		<path d="M312.079,125c0.142-5.702,1.738-10.872,5.646-15.164c2.09-2.296,4.652-3.853,7.721-4.449
			c4.92-0.956,9.031,0.705,12.511,4.109c3.325,3.252,5.091,7.343,5.863,11.848c0.943,5.499,0.246,10.806-2.419,15.767
			c-1.528,2.844-3.553,5.271-6.429,6.856c-5.001,2.757-9.888,2.492-14.552-0.773c-3.936-2.755-6.16-6.703-7.426-11.239
			C312.361,129.687,312.048,127.365,312.079,125z M314.128,125.183c-0.045,1.475,0.112,2.927,0.384,4.361
			c0.8,4.201,2.498,7.974,5.711,10.878c3.51,3.172,7.548,4.343,12.123,2.563c3.253-1.266,5.51-3.674,7.17-6.672
			c2.385-4.305,3.012-8.947,2.428-13.768c-0.487-4.021-1.971-7.66-4.619-10.756c-5.253-6.141-13.109-6.209-18.446-0.153
			C315.476,115.5,314.258,120.16,314.128,125.183z"/>
		<path d="M355.73,117.802c0.908-0.08,1.776,0.063,2.597,0.45c1.964,0.928,2.772,3.167,1.91,5.497
			c-0.512,1.383-1.249,2.676-2.537,3.478c-0.779,0.485-0.907,1.03-0.601,1.81c0.228,0.582,0.377,1.2,0.648,1.76
			c0.708,1.462,2.29,1.577,3.239,0.259c0.446-0.619,0.574-1.333,0.588-2.074c0.008-0.417-0.019-0.834-0.02-1.251
			c-0.002-0.612,0.301-1.004,0.906-1.072c0.639-0.072,0.97,0.329,1.066,0.905c0.639,3.867-1.951,7.48-5.797,5.953
			c-0.444-0.176-0.62,0.008-0.886,0.332c-2.043,2.493-5.557,2.201-7.185-0.576c-0.105-0.179-0.204-0.368-0.269-0.564
			c-0.182-0.542-0.475-1.18,0.263-1.484c0.639-0.263,0.894,0.298,1.132,0.784c0.576,1.172,1.473,1.868,2.833,1.836
			c1.205-0.029,1.822-0.592,1.96-1.781c0.079-0.681,0.024-1.358-0.098-2.026c-0.275-1.514-0.286-1.495-1.889-1.633
			c-1.741-0.149-3.371-0.608-4.773-1.729c-0.758-0.606-1.317-1.348-1.647-2.238c-0.507-1.371-0.141-2.524,0.922-3.536
			C350.24,118.857,352.817,117.926,355.73,117.802z M353.914,126.379c2.434,0.011,4.655-2.192,4.658-4.502
			c0.001-1.038-0.548-1.758-1.57-2.058c-2.174-0.637-5.923,0.592-7.352,2.411c-0.826,1.052-0.811,1.581,0.106,2.539
			C350.922,125.989,352.467,126.217,353.914,126.379z"/>
		<path d="M306.766,230.108c-0.009,1.356-0.085,2.705-0.441,4.024c-0.218,0.809-0.513,1.585-0.982,2.285
			c-1.376,2.055-3.496,2.461-5.546,1.064c-1.145-0.78-1.998-1.834-2.669-3.018c-2.443-4.311-3.341-8.933-2.62-13.843
			c0.19-1.296,0.621-2.529,1.457-3.577c1.282-1.607,3.086-1.962,4.87-0.935c1.495,0.861,2.475,2.205,3.31,3.665
			C305.775,222.621,306.741,226.465,306.766,230.108z M296.284,223.677c0.037,3.226,0.773,6.282,2.261,9.149
			c0.53,1.02,1.162,1.978,2.066,2.714c1.391,1.133,2.451,0.911,3.256-0.671c0.332-0.652,0.55-1.345,0.659-2.072
			c0.703-4.674-0.316-8.986-2.772-12.98c-0.322-0.523-0.757-1.001-1.217-1.411c-1.453-1.296-2.622-1.053-3.439,0.701
			C296.425,220.552,296.258,222.099,296.284,223.677z"/>
		<g>
			<path d="M375.344,104.746c-0.223-0.129-0.474-0.218-0.722-0.293c-2.267-0.686-3.893,0.234-4.511,2.516
				c-0.182,0.671-0.202,1.345-0.093,2.011c0.52,3.186,2.105,5.726,4.727,7.608c0.816,0.586,1.72,0.961,2.748,0.995
				c1.739,0.056,3.002-0.911,3.36-2.617c0.085-0.405,0.097-0.825,0.164-1.43C380.633,109.768,378.803,106.745,375.344,104.746z"/>
			<path d="M324.598,118.659c-1.035,1.518-1.369,3.241-1.371,4.396c-0.012,2.895,0.444,5.006,1.86,6.809
				c2.043,2.602,5.066,2.453,6.872-0.313c1.982-3.036,1.655-8.407-0.682-11.203C329.247,115.921,326.379,116.045,324.598,118.659z"
				/>
		</g>
	</g>
	<g>
		<path d="M417.228,317.051c0.526-0.632,0.997-1.248,1.52-1.818c2.645-2.88,5.839-4.715,9.812-4.88
			c5.276-0.218,9.694,2.59,11.96,7.494c3.746,8.109-0.36,18.349-8.67,21.622c-1.21,0.477-1.212,0.477-1.116,1.883
			c0.299,4.376-0.496,8.626-1.486,12.852c-0.689,2.944-1.477,5.866-1.551,8.92c-0.042,1.72-0.127,3.441-0.265,5.156
			c-0.215,2.659-0.677,5.273-1.63,7.783c-2.114,5.567-5.95,9.474-11.398,11.815c-1.148,0.493-2.313,0.964-3.505,1.331
			c-0.845,0.26-1.148,0.659-1.082,1.566c0.206,2.819,0.606,5.606,1.294,8.342c0.967,3.845,1.996,7.674,3.763,11.257
			c0.433,0.878,0.972,1.517,1.937,1.895c1.594,0.623,2.798,1.779,3.762,3.196c2.02,2.969,2.791,6.249,2.529,9.805
			c-0.123,1.678-0.894,2.961-2.24,3.94c-1.325,0.964-2.804,1.597-4.353,2.093c-3.16,1.011-6.425,1.362-9.716,1.516
			c-2.45,0.115-4.905,0.232-7.342-0.2c-0.513-0.091-1.023-0.196-1.533-0.301c-2.959-0.612-4.966-2.247-6.289-5.056
			c-3.447-7.318-6.878-14.637-9.707-22.222c-0.364-0.977-0.737-1.957-0.994-2.964c-0.221-0.864-0.653-1.004-1.468-0.842
			c-2.353,0.468-4.711,0.927-7.085,1.264c-3.309,0.47-6.644,0.664-9.988,0.687c-1.207,0.008-1.238,0.029-1.19,1.232
			c0.07,1.772,0.104,3.545,0.291,5.314c0.1,0.951,0.453,1.451,1.395,1.758c3.725,1.214,5.966,3.895,7.073,7.563
			c0.617,2.044,0.433,4.135,0.08,6.21c-0.822,4.826-2.628,6.5-7.517,7.052c-6.538,0.738-13.028,0.229-19.497-0.743
			c-1.905-0.286-3.552-1.133-4.898-2.568c-1.294-1.379-2.394-2.89-3.385-4.492c-3.307-5.345-5.941-11.013-8.136-16.893
			c-0.614-1.644-0.415-1.464-2.109-1.359c-1.719,0.106-3.434,0.266-5.152,0.383c-0.673,0.046-0.896,0.288-0.719,1
			c0.388,1.569,0.705,3.156,1.014,4.743c0.106,0.548,0.309,0.953,0.814,1.246c3.299,1.907,4.801,4.963,5.361,8.576
			c0.257,1.654,0.26,3.328,0.116,4.999c-0.187,2.169-1.363,3.541-3.399,4.227c-1.345,0.454-2.74,0.658-4.141,0.797
			c-4.427,0.44-8.859,0.356-13.292,0.094c-1.626-0.096-3.188-0.522-4.766-0.868c-0.95-0.208-1.725-0.709-2.41-1.381
			c-1.514-1.486-2.653-3.24-3.446-5.182c-2.216-5.426-4.047-10.966-4.465-16.868c-0.054-0.765-0.279-1.094-1.083-1.163
			c-2.391-0.204-4.774-0.498-7.162-0.744c-1.167-0.12-1.227-0.079-1.139,1.005c0.134,1.665,0.392,3.314,0.696,4.958
			c0.128,0.692,0.44,1.038,1.142,1.273c4.731,1.582,7.584,5.458,7.772,10.443c0.06,1.574-0.07,3.119-0.51,4.645
			c-0.584,2.029-1.789,3.468-3.694,4.407c-2.756,1.357-5.703,2.007-8.696,2.473c-5.68,0.884-11.336,0.709-16.958-0.522
			c-1.04-0.228-1.927-0.65-2.776-1.327c-3.895-3.107-6.836-7.014-9.498-11.156c-3.978-6.189-6.542-13.041-9.194-19.847
			c-2.167-5.563-3.721-11.288-4.564-17.206c-0.793-5.567-1.117-11.113,0.453-16.614c0.301-1.055,0.536-2.157,1.109-3.083
			c0.882-1.425,1.115-2.999,1.406-4.588c2.204-12.04,7.557-22.498,16.065-31.275c5.688-5.867,12.593-9.899,20.214-12.784
			c11.34-4.293,23.04-5.765,35.073-4.515c5.194,0.54,10.274,1.78,15.369,2.907c3.716,0.822,7.384,1.86,11.16,2.425
			c2.655,0.397,5.312,0.205,7.97,0.234c1.183,0.013,1.474-1.042,2.065-1.708c0.515-0.58-0.066-1.076-0.351-1.528
			c-3.136-4.987-3.499-10.298-1.688-15.775c2.488-7.522,10.892-11.492,18.068-8.513c4.724,1.961,7.188,5.808,8.241,10.68
			c0.162,0.749-0.11,1.783,0.534,2.177c0.514,0.315,1.406,0.023,2.129-0.017c10.314-0.563,20.229,1.404,29.968,4.619
			c4.242,1.401,7.789,3.941,11.366,6.466C414.726,315.243,415.946,316.13,417.228,317.051z M239.221,360.486
			c1.329-1.274,2.406-2.256,3.613-3.069c5.051-3.402,10.427-4.299,16.216-2.111c3.08,1.165,5.721,2.995,8.091,5.241
			c4.25,4.027,7.211,8.893,9.27,14.338c2.385,6.308,3.632,12.836,3.78,19.577c0.061,2.766,0.146,5.531,0.187,8.297
			c0.012,0.804,0.259,1.23,1.139,1.318c5.193,0.518,10.375,1.135,15.602,1.233c8.928,0.167,17.85,0.09,26.757-0.613
			c0.312-0.025,0.625-0.043,0.935-0.081c0.383-0.048,0.548-0.268,0.444-0.649c-0.069-0.251-0.162-0.496-0.242-0.744
			c-2.202-6.759-3.746-13.681-5.041-20.66c-1.277-6.886-1.978-13.842-2.348-20.831c-0.403-7.607-0.992-15.204-0.465-22.84
			c0.49-7.099,1.333-14.125,3.277-20.99c0.337-1.191,0.333-1.224-0.821-1.484c-4.176-0.94-8.374-1.802-12.643-2.156
			c-11.908-0.988-23.415,0.747-34.483,5.296c-6.74,2.77-12.846,6.531-17.906,11.812c-7.141,7.453-12.013,16.227-14.813,26.155
			C239.533,358.37,239.238,359.208,239.221,360.486z M388.699,390.218c3.429-0.077,6.662-0.134,9.876-0.507
			c5.038-0.584,9.98-1.565,14.689-3.541c6.305-2.644,10.095-7.37,11.569-13.977c0.556-2.495,0.783-5.046,0.774-7.613
			c-0.009-2.671,0.335-5.305,0.97-7.898c0.596-2.431,1.183-4.863,1.611-7.33c0.61-3.517,0.865-7.043,0.021-10.561
			c-1.803-7.518-5.796-13.793-11.24-19.14c-3.47-3.409-7.634-5.941-11.794-8.438c-1.489-0.893-3.08-1.509-4.728-2.025
			c-6.851-2.146-13.873-3.332-21.02-3.891c-9.089-0.711-17.495,1.306-25.216,6.15c-4.818,3.023-8.81,6.812-11.111,12.145
			c-1.117,2.589-2.027,5.252-2.779,7.966c-0.909,3.279-2.077,6.451-3.782,9.404c-1.099,1.904-2.01,3.895-2.743,5.959
			c-2.369,6.678-1.593,12.909,2.714,18.632c3.071,4.081,6.864,7.39,10.934,10.418c3.729,2.774,7.721,5.149,11.734,7.46
			c5.032,2.898,10.354,5.123,16.157,6.054C379.838,390.211,384.35,390.47,388.699,390.218z M270.535,433.843
			c2.443,0.116,5.079-0.263,7.699-0.73c2.418-0.431,4.78-1.053,7.002-2.159c1.256-0.625,2.048-1.568,2.46-2.879
			c0.758-2.411,0.855-4.852,0.008-7.23c-1.17-3.285-3.437-5.438-6.958-6.045c-1.603-0.277-3.222-0.244-4.818,0.144
			c-1.789,0.434-3.506,1.024-4.927,2.258c-0.44,0.382-0.93,0.595-1.346,0.05c-0.358-0.469-0.034-0.873,0.324-1.222
			c0.68-0.663,1.46-1.179,2.312-1.587c1.904-0.91,3.903-1.443,6.017-1.561c1.03-0.057,1.091-0.118,0.901-1.127
			c-0.846-4.486-0.848-9.027-0.946-13.565c-0.085-3.964-0.156-7.932-0.851-11.852c-1.102-6.211-2.957-12.166-6.258-17.585
			c-2.531-4.154-5.723-7.716-9.986-10.168c-3.235-1.861-6.689-3.009-10.478-2.225c-6.999,1.448-11.59,5.653-13.784,12.43
			c-1.089,3.361-1.394,6.844-1.159,10.362c0.3,4.484,0.958,8.916,2.075,13.275c1.859,7.255,4.852,14.091,7.747,20.962
			c1.238,2.938,2.722,5.754,4.432,8.443c1.962,3.084,4.061,6.061,6.679,8.654c1.315,1.302,2.819,2.089,4.612,2.442
			C264.268,433.514,267.261,433.894,270.535,433.843z M342.324,320.226c-0.245-0.206-0.508-0.193-0.766-0.181
			c-4.53,0.211-8.939-0.513-13.3-1.673c-1.561-0.415-3.149-0.731-4.731-1.065c-1.135-0.24-1.142-0.22-1.495,0.928
			c-0.092,0.299-0.165,0.604-0.24,0.907c-1.271,5.127-2.015,10.332-2.433,15.597c-0.888,11.181-0.082,22.323,0.754,33.459
			c0.638,8.497,2.201,16.854,4.229,25.126c2.6,10.603,6.432,20.706,12.112,30.068c0.705,1.163,1.494,2.26,2.332,3.33
			c1.324,1.689,3.029,2.678,5.15,2.961c5.906,0.788,11.822,1.347,17.785,0.7c1.09-0.118,2.164-0.301,3.217-0.636
			c1.13-0.36,1.865-1.077,2.314-2.156c0.735-1.763,1.033-3.605,1.038-5.5c0.02-7.618-8.045-11.253-13.402-8.221
			c-0.498,0.282-1.013,0.546-1.546,0.75c-0.5,0.191-0.931-0.004-1.201-0.464c-0.289-0.494-0.081-0.906,0.295-1.248
			c0.151-0.138,0.344-0.234,0.525-0.337c1.6-0.911,3.255-1.635,5.137-1.748c1.392-0.083,1.484,0.2,1.373-1.687
			c-0.159-2.71-0.252-5.422-0.226-8.137c0.043-4.492,0.444-8.963,0.845-13.432c0.081-0.909-0.191-1.369-0.988-1.833
			c-3.694-2.147-7.383-4.308-10.909-6.727c-4.923-3.378-9.448-7.194-13.106-11.962c-3.927-5.118-5.466-10.798-4.186-17.195
			c0.705-3.524,2.149-6.745,3.847-9.866c1.225-2.251,2.324-4.549,3.045-7.012c1.23-4.203,2.456-8.407,4.474-12.324
			C342.33,320.524,342.308,320.354,342.324,320.226z M412.828,411.145c0.12-0.579-0.257-1.001-0.435-1.474
			c-2.015-5.344-3.406-10.836-4.027-16.521c-0.105-0.96,0.389-2.251-0.429-2.797c-0.773-0.516-1.874,0.273-2.843,0.424
			c-0.704,0.109-1.406,0.221-2.035,0.705c-5.684,4.368-12.243,6.847-19.075,8.699c-1.887,0.511-1.909,0.438-1.245,2.347
			c0.137,0.394,0.292,0.782,0.447,1.169c1.494,3.728,3.035,7.434,4.822,11.035c1.946,3.923,3.921,7.835,5.724,11.824
			c1.062,2.349,2.82,3.508,5.234,3.917c0.565,0.096,1.13,0.207,1.699,0.261c3.763,0.357,7.512,0.099,11.233-0.439
			c2.427-0.351,4.789-1.013,6.975-2.21c1.573-0.861,2.335-2.099,2.342-3.918c0.01-2.629-0.593-5.061-1.954-7.306
			c-2.521-4.155-8.078-5.205-11.92-2.244c-0.459,0.354-0.917,0.617-1.357,0.088c-0.385-0.463-0.051-0.852,0.283-1.223
			c1.261-1.406,2.89-1.988,4.713-2.171C411.593,411.249,412.226,411.395,412.828,411.145z M304.49,407.292
			c-3.652,0.057-7.304,0.01-10.955-0.088c-1.526-0.041-1.533-0.024-1.448,1.551c0.028,0.52,0.065,1.044,0.155,1.556
			c0.803,4.535,2.133,8.919,3.851,13.187c0.429,1.066,0.979,2.07,1.585,3.05c1.124,1.816,2.525,3.161,4.806,3.32
			c0.931,0.065,1.844,0.407,2.773,0.451c4.012,0.191,8.03,0.298,12.041-0.014c1.554-0.121,3.115-0.294,4.61-0.816
			c1.139-0.398,1.868-1.126,2.014-2.346c0.38-3.176,0.148-6.278-1.519-9.089c-1.588-2.679-4.023-4.015-7.145-4.017
			c-1.754-0.001-3.402,0.4-4.873,1.432c-0.876,0.615-1.476,0.612-1.746,0.053c-0.378-0.781,0.35-0.954,0.774-1.278
			c2.199-1.682,4.721-2.087,7.399-1.864c1.025,0.085,1.085,0.046,0.917-0.974c-0.178-1.08-0.381-2.157-0.617-3.226
			c-0.284-1.284-0.306-1.313-1.675-1.203C311.793,407.267,308.141,407.233,304.49,407.292z M399.357,391.872
			c-3.752,0.221-7.492,0.28-11.231,0.404c-8.602,0.285-16.961-0.675-24.824-4.465c-0.446-0.215-0.892-0.557-1.539-0.41
			c-0.258,0.993-0.187,2.039-0.249,3.061c-0.195,3.176-0.451,6.35-0.427,9.535c0.008,1.07,0.11,1.194,1.167,1.182
			c1.564-0.017,3.128-0.101,4.689-0.209c8.003-0.554,15.814-2.101,23.38-4.766C393.461,395.101,396.544,393.817,399.357,391.872z
			 M347.083,314.237c1.203-0.949,2.335-1.86,3.487-2.746c1.145-0.882,1.184-0.882,0.667-2.288c-0.644-1.751-0.857-3.529-0.564-5.375
			c0.38-2.395,1.742-3.994,4.009-4.74c2.2-0.724,4.099,0.022,5.741,1.523c1.141,1.043,1.904,2.334,2.302,3.829
			c0.149,0.559,0.388,0.774,1.001,0.573c1.187-0.388,2.387-0.747,3.601-1.033c0.642-0.151,0.894-0.455,0.811-1.079
			c-0.607-4.56-2.646-8.184-6.821-10.405c-5.053-2.688-11.993-0.269-15.035,4.613C343.377,301.773,343.367,309.527,347.083,314.237z
			 M421.666,321.546c1.15-1.294,2.341-2.379,3.909-2.911c2.311-0.785,4.565-0.743,6.469,0.936c1.85,1.631,2.237,3.811,1.752,6.147
			c-0.421,2.027-1.386,3.781-2.781,5.331c-0.727,0.808-2.077,1.277-2.178,2.329c-0.096,0.996,0.569,2.063,0.895,3.101
			c0.45,1.435,0.468,1.449,1.809,0.893c0.335-0.139,0.664-0.299,0.982-0.474c5.594-3.081,8.545-9.81,6.937-15.994
			c-1.006-3.871-3.279-6.716-7.155-8.038c-4.787-1.632-10.164,0.709-13.145,5.143c-0.245,0.365-0.223,0.661,0.076,0.972
			C420.021,319.799,420.797,320.626,421.666,321.546z M432.13,324.45c-0.023-3.267-2.077-4.966-4.938-4.481
			c-1.499,0.254-2.731,0.95-3.764,2.033c-0.799,0.838-0.789,0.843-0.148,1.821c0.967,1.476,1.948,2.943,2.878,4.442
			c0.464,0.747,0.825,1.558,1.237,2.337c0.184,0.348,0.407,0.649,0.834,0.305C430.415,329.147,431.934,327.002,432.13,324.45z
			 M352.454,305.115c-0.052,1.422,0.26,2.517,0.662,3.602c0.202,0.546,0.42,0.773,1.018,0.426c2.118-1.23,4.284-2.368,6.621-3.143
			c0.403-0.134,0.514-0.402,0.453-0.851c-0.251-1.854-2.159-4.027-3.976-4.433c-1.126-0.251-2.156-0.048-3.109,0.647
			C352.746,302.369,352.425,303.79,352.454,305.115z"/>
		<path d="M375.009,337.532c-0.478,8.531-4.012,15.419-11.145,20.273c-3.13,2.13-6.648,3.267-10.482,2.948
			c-6.549-0.545-10.649-5.021-12.069-10.564c-1.576-6.155-0.264-11.892,2.85-17.267c2.778-4.795,6.674-8.404,12-10.171
			c5.426-1.8,10.422-0.993,14.563,3.173c2.393,2.408,3.572,5.457,4.028,8.789C374.882,335.641,374.926,336.58,375.009,337.532z
			 M372.909,337.348c0.023-1.052-0.092-2.248-0.337-3.422c-1.609-7.706-8.009-11.409-14.84-9.522
			c-4.254,1.175-7.567,3.682-10.168,7.125c-3.981,5.269-5.813,11.141-4.366,17.756c0.768,3.513,2.617,6.345,5.821,8.113
			c3.504,1.933,7.129,1.676,10.719,0.264C367.249,354.71,373.033,345.815,372.909,337.348z"/>
		<path d="M422.004,354.292c-0.124,5.406-1.582,10.833-5.626,15.239c-3.879,4.227-8.621,6.156-14.383,4.474
			c-3.162-0.923-5.644-2.861-7.605-5.479c-3.469-4.632-4.793-9.898-4.457-15.6c0.269-4.569,1.593-8.826,4.344-12.538
			c2.729-3.683,6.266-6.153,10.96-6.444c5.311-0.329,9.344,2.123,12.432,6.259C420.678,344.232,421.905,348.862,422.004,354.292z
			 M419.963,353.666c-0.137-5.052-1.526-9.982-5.373-13.931c-3.271-3.357-7.231-4.676-11.828-3.286
			c-2.945,0.891-5.204,2.82-6.946,5.315c-3.773,5.404-4.626,11.395-3.326,17.745c0.803,3.922,2.582,7.354,5.63,10.029
			c1.883,1.653,4.046,2.737,6.586,2.947c4.18,0.346,7.513-1.345,10.216-4.383C418.492,364.091,419.866,359.267,419.963,353.666z"/>
		<path d="M370.464,357.509c0.034-0.405,0.023-0.882,0.126-1.334c0.114-0.504,0.473-0.824,1.023-0.754
			c0.513,0.065,0.866,0.363,0.899,0.913c0.021,0.362-0.016,0.728-0.023,1.092c-0.012,0.684,0.062,1.357,0.356,1.982
			c0.387,0.821,0.994,1.292,1.955,1.28c0.881-0.01,1.306-0.538,1.601-1.254c0.158-0.385,0.306-0.776,0.431-1.172
			c0.468-1.477,0.445-1.456-0.697-2.432c-1.389-1.187-2.341-2.655-2.559-4.504c-0.316-2.678,1.252-4.669,3.934-4.765
			c3.367-0.121,6.362,0.924,8.747,3.406c1.023,1.064,1.166,2.362,0.42,3.744c-1.174,2.177-3.185,3.028-5.491,3.384
			c-0.154,0.024-0.311,0.029-0.467,0.04c-1.916,0.136-1.918,0.135-2.172,2.029c-0.042,0.309-0.078,0.622-0.081,0.934
			c-0.011,0.964,0.025,1.953,1.12,2.347c1.052,0.379,2.046,0.185,2.905-0.583c0.439-0.392,0.713-0.883,0.965-1.401
			c0.205-0.421,0.552-0.653,1.019-0.453c0.492,0.211,0.459,0.664,0.338,1.073c-0.486,1.644-1.639,2.665-3.239,3.087
			c-1.558,0.411-3.063,0.126-4.093-1.206c-0.494-0.638-0.809-0.774-1.61-0.531c-2.656,0.805-4.969-0.941-5.358-3.924
			C370.474,358.199,370.482,357.884,370.464,357.509z M378.351,348.416c-2.413-0.007-3.469,1.587-2.507,3.732
			c1.499,3.341,5.73,4.106,8.358,1.512c1.035-1.022,1.023-1.568,0.139-2.784c-0.385-0.53-0.848-0.893-1.39-1.212
			C381.519,348.82,379.934,348.565,378.351,348.416z"/>
		<g>
			<path d="M358.761,334.794c-0.972,0.106-1.788,0.551-2.5,1.176c-2.018,1.772-3.088,4.003-3.158,6.326
				c0.008,1.97,0.395,3.417,1.954,4.163c1.549,0.741,2.962,0.198,4.187-0.818c2.115-1.755,3.195-4.044,3.309-6.79
				c0.028-0.687-0.1-1.351-0.345-1.984C361.629,335.363,360.362,334.62,358.761,334.794z"/>
			<path d="M408.639,349.186c-0.535-1.248-1.431-2.228-2.897-2.319c-1.471-0.092-2.423,0.802-3.143,1.962
				c-0.3,0.482-0.543,1.011-0.734,1.546c-0.407,1.139-0.545,2.329-0.542,3.536c0.018,1.855,0.281,3.648,1.487,5.152
				c1.316,1.64,3.293,1.703,4.731,0.168c0.283-0.302,0.552-0.637,0.739-1.003C409.797,355.273,409.948,352.24,408.639,349.186z"/>
		</g>
	</g>
	<g>
		<path d="M68.763,339.733c-2.569-1.5-4.41-3.655-6.066-5.996c-0.234-0.331-0.48-0.667-0.643-1.034
			c-0.397-0.89-0.039-1.611,0.898-1.886c0.501-0.147,1.009-0.109,1.514-0.024c4.207,0.714,7.787,2.61,10.703,5.726
			c0.985,1.053,1.72,2.288,2.118,3.675c0.215,0.75,0.626,1.08,1.355,1.225c0.984,0.196,1.948,0.495,2.991,0.561
			c-0.016-0.75-0.509-1.099-0.829-1.528c-3.836-5.141-7.688-10.271-11.536-15.403c-0.214-0.285-0.442-0.561-0.637-0.858
			c-0.528-0.801-0.561-1.297,0.147-1.878c1.336-1.098,2.775-2.076,4.324-2.848c0.904-0.451,1.429-0.21,2.18,0.784
			c2.884,3.819,5.757,7.646,8.633,11.471c3.947,5.249,7.891,10.501,11.844,15.745c0.299,0.397,0.518,0.882,1.076,1.123
			c0.832-0.619,1.683-1.254,2.519-1.876c-0.1-0.62-0.581-0.885-0.928-1.234c-4.431-4.453-6.003-9.923-5.647-16.043
			c0.151-2.594,0.635-5.147,1.291-7.667c0.709-2.724,0.967-5.505,1.001-8.317c0.048-3.924,0.227-7.839,1.222-11.664
			c0.23-0.885,0.468-1.777,0.813-2.621c0.298-0.728,0.228-1.158-0.471-1.633c-5.754-3.908-7.964-11.712-5.456-18.371
			c1.81-4.805,5.142-8.037,10.4-8.817c4.004-0.594,7.419,0.766,10.314,3.51c1.535,1.456,2.659,3.202,3.468,5.158
			c0.407,0.982,0.431,0.97,1.429,0.596c2.429-0.913,4.846-1.857,7.29-2.726c2.697-0.958,5.476-1.538,8.343-1.72
			c8.539-0.541,16.99-0.01,25.322,2.006c1.781,0.431,3.535,0.974,5.234,1.661c0.76,0.307,1.07,0.123,1.333-0.628
			c0.934-2.665,2.587-4.83,4.8-6.567c5.016-3.937,11.996-3.584,16.632,0.81c4.438,4.205,5.192,9.366,3.877,15.03
			c-0.767,3.302-2.403,6.138-4.921,8.449c-1.076,0.988-1.021,0.999-0.464,2.426c1.285,3.296,2.002,6.682,1.986,10.261
			c-0.02,4.485,0.393,8.946,1.59,13.302c0.856,3.116,1.108,6.317,1.087,9.526c-0.033,5.009-1.536,9.508-4.955,13.278
			c-0.749,0.826-0.725,0.852,0.108,1.47c5.798,4.298,9.236,10.083,10.597,17.106c1.657,8.55,0.072,16.502-4.754,23.76
			c-0.631,0.949-0.748,1.746-0.404,2.815c0.671,2.084,1.086,4.246,1.325,6.419c0.129,1.171,0.568,1.703,1.721,2.087
			c4.885,1.624,8.296,4.871,9.979,9.774c1.19,3.469,1.103,7.007,0.212,10.539c-0.756,3-2.068,5.746-3.89,8.233
			c-4.715,6.436-10.917,10.598-18.828,11.992c-4.58,0.807-9.028,0.344-13.203-1.885c-1.213-0.647-2.572-0.951-3.779-1.633
			c-3.211-1.815-6.198-3.927-8.7-6.65c-0.788-0.858-1.562-1.073-2.684-0.839c-3.395,0.709-6.832,1.077-10.309,1.066
			c-3.59-0.012-7.11-0.489-10.518-1.61c-0.923-0.304-1.459-0.166-2.084,0.572c-3.568,4.21-8.025,7.202-13.168,9.111
			c-2.326,0.864-4.719,1.608-7.189,2.02c-3.498,0.583-6.912,0.102-10.251-0.92c-8.633-2.642-14.801-8.139-18.457-16.37
			c-1.714-3.859-2.208-7.934-1.269-12.1c1.429-6.341,6.47-10.897,13.298-12.078c0.251-0.043,0.504-0.073,0.757-0.096
			c0.541-0.049,0.821-0.306,0.812-0.882c-0.019-1.23,0.191-2.439,0.487-3.622c0.193-0.771-0.075-1.094-0.769-1.356
			c-1.673-0.63-3.234-1.482-4.687-2.535c-6.301-4.567-8.149-11.31-6.491-18.215c0.514-2.142,1.413-4.138,2.456-6.069
			c1.747-3.232,3.731-6.306,6.063-9.153c1.016-1.241,1.139-1.024,0.094-2.416c-1.986-2.647-3.994-5.278-5.943-7.952
			c-0.55-0.755-1.184-1.155-2.105-1.322c-1.549-0.28-3.078-0.683-4.605-1.075c-0.592-0.152-1.07-0.111-1.545,0.316
			c-2.297,2.065-5.092,2.94-8.092,3.194c-1.925,0.163-3.865,0.168-5.798,0.211c-0.719,0.016-1.449-0.05-1.843-0.812
			c-0.42-0.811-0.054-1.49,0.415-2.114c0.851-1.133,2.04-1.813,3.305-2.389C65.638,340.661,67.18,340.344,68.763,339.733z
			 M136.735,276.745c-3.439-0.215-7.547,0.326-11.525,1.779c-1.72,0.628-3.45,1.229-5.171,1.854
			c-7.422,2.697-13.172,7.583-17.891,13.778c-2.319,3.045-3.78,6.482-4.418,10.278c-0.568,3.379-0.653,6.788-0.744,10.194
			c-0.069,2.61-0.372,5.176-1.017,7.701c-0.467,1.827-0.825,3.673-1.058,5.544c-0.919,7.383,1.185,13.562,7.19,18.229
			c3.119,2.425,6.559,4.272,10.143,5.885c4.752,2.138,9.765,3.498,14.748,4.943c7.864,2.281,15.819,2.782,23.84,0.933
			c5.855-1.349,11.623-3.023,17.193-5.295c4.446-1.813,8.675-4.035,12.368-7.167c5.065-4.296,7.016-9.828,6.46-16.336
			c-0.2-2.335-0.628-4.635-1.215-6.908c-0.651-2.523-0.965-5.098-0.999-7.705c-0.032-2.393-0.117-4.784-0.342-7.168
			c-0.313-3.318-0.961-6.559-2.559-9.519c-3.59-6.648-8.957-11.553-15.444-15.238c-2.921-1.659-6.13-2.753-9.411-3.525
			C150.518,277.504,144.056,276.767,136.735,276.745z M193.287,370.029c-0.007-7.744-2.084-14.182-6.919-19.619
			c-1.052-1.183-2.216-2.241-3.517-3.153c-0.635-0.445-1.107-0.432-1.739,0.09c-4.087,3.377-8.769,5.718-13.679,7.616
			c-4.847,1.874-9.84,3.306-14.875,4.556c-3.858,0.958-7.808,1.499-11.789,1.484c-4.031-0.016-8.031-0.545-11.933-1.553
			c-5.911-1.527-11.743-3.294-17.425-5.583c-3-1.209-5.867-2.534-8.417-4.534c-1.941-1.521-1.965-1.492-3.933,0.079
			c-0.199,0.159-0.388,0.329-0.588,0.487c-0.397,0.313-0.43,0.651-0.103,1.041c0.196,0.234,0.364,0.49,0.548,0.734
			c3.242,4.313,6.509,8.608,9.707,12.953c0.618,0.84,1.273,1.15,2.29,1.119c2.646-0.08,5.298-0.076,7.924,0.334
			c3.533,0.552,6.674,1.81,8.734,4.973c1.236,1.898,1.781,3.966,1.704,6.226c-0.035,1.045,0.018,1.081,0.994,0.964
			c4.262-0.509,8.536-0.393,12.811-0.289c2.751,0.067,5.49,0.296,8.216,0.646c0.901,0.116,1.517-0.125,2.097-0.844
			c0.957-1.187,1.988-2.321,3.058-3.408c2.821-2.867,5.655-5.72,8.139-8.896c0.216-0.276,0.48-0.536,0.772-0.727
			c0.372-0.243,0.78-0.211,1.122,0.106c0.338,0.313,0.428,0.697,0.201,1.104c-0.147,0.264-0.354,0.494-0.538,0.737
			c-1.043,1.384-2.213,2.659-3.362,3.955c-2.432,2.744-5.117,5.244-7.569,7.974c-2.574,2.867-3.867,6.246-4.111,9.97
			c-0.23,3.515,0.77,6.707,3.961,8.725c3.557,2.249,7.434,3.217,11.661,2.616C184.056,397.445,193.645,381.711,193.287,370.029z
			 M119.599,433.106c0.182-0.071,0.376-0.123,0.546-0.217c2.827-1.579,5.253-3.653,7.473-5.994c0.513-0.541,0.475-0.909-0.064-1.366
			c-0.234-0.199-0.303-0.531-0.119-0.836c0.186-0.309,0.502-0.337,0.806-0.292c0.246,0.036,0.486,0.136,0.718,0.236
			c5.714,2.454,11.689,2.968,17.807,2.38c2.686-0.258,5.355-0.63,7.94-1.448c0.467-0.148,0.926-0.225,1.186,0.309
			c0.215,0.444,0.009,0.772-0.394,1.011c-0.625,0.371-0.173,0.661,0.097,0.932c1.404,1.412,2.95,2.654,4.596,3.771
			c0.257,0.175,0.506,0.488,0.979,0.285c-0.822-1.488-1.522-2.95-1.914-4.54c-1.118-4.538-0.481-8.903,1.391-13.108
			c2.412-5.42,6.301-9.559,11.285-12.712c0.462-0.292,0.919-0.593,1.378-0.89c-1.738,0.255-3.39,0.716-5.072,1.055
			c-4.867,0.979-9.404,0.112-13.677-2.331c-2.508-1.434-4.154-3.55-4.936-6.33c-0.589-2.091-0.677-4.208-0.294-6.348
			c0.315-1.76,0.833-3.458,1.52-5.108c0.422-1.015,0.405-1.038-0.718-1.179c-5.718-0.718-11.458-0.976-17.216-0.782
			c-1.066,0.036-2.129,0.185-3.192,0.289c-0.551,0.054-0.915,0.285-1.094,0.876c-0.672,2.224-1.843,4.185-3.325,5.958
			c-0.438,0.524-0.497,0.957-0.022,1.461c0.209,0.221,0.377,0.48,0.563,0.722c4.656,6.05,9.312,12.1,13.967,18.151
			c1.144,1.488,1.113,1.847-0.19,3.248c-0.766,0.824-1.609,1.553-2.519,2.212c-1.952,1.413-2.258,1.379-3.69-0.467
			c-4.867-6.272-9.74-12.541-14.594-18.824c-0.474-0.613-0.844-0.973-1.74-0.622c-5.065,1.98-10.297,2.217-15.619,1.331
			c-1.658-0.276-3.291-0.657-4.917-1.078c-1.135-0.294-1.154-0.291-1.368,0.876c-0.119,0.649-0.185,1.31-0.25,1.968
			c-0.146,1.487-0.111,1.473,1.378,1.614c11.418,1.077,19.565,6.89,24.486,17.178c1.822,3.809,2.283,7.891,1.47,12.075
			C121.807,428.902,120.8,430.993,119.599,433.106z M92.533,356.084c-0.235,0.149-0.393,0.203-0.481,0.313
			c-3.432,4.335-6.407,8.952-8.096,14.255c-2.284,7.171,0.453,14.022,6.969,17.784c0.703,0.406,1.43,0.787,2.181,1.093
			c5.356,2.181,10.903,3.288,16.7,2.785c3.815-0.331,7.384-1.47,10.541-3.687c3.368-2.365,5.696-5.506,6.67-9.542
			c1.07-4.434-1.026-8.721-5.458-10.279c-1.451-0.51-2.932-0.816-4.464-0.937c-5.605-0.445-11.184-0.181-16.749,0.556
			c-0.251,0.033-0.508,0.064-0.759,0.05c-0.38-0.022-0.69-0.194-0.827-0.57c-0.154-0.423-0.057-0.789,0.278-1.104
			c0.279-0.262,0.809-0.178,0.961-0.758C97.53,362.747,95.036,359.421,92.533,356.084z M95.398,399.267
			c-1.342,0.017-2.66,0.112-3.957,0.406c-4.75,1.075-8.398,3.578-10.359,8.164c-1.459,3.412-1.519,6.956-0.489,10.47
			c2.342,7.989,7.589,13.447,15.094,16.797c4.167,1.86,8.522,2.681,13.098,1.866c7.78-1.385,12.687-7.972,11.77-15.799
			c-0.558-4.766-2.574-8.876-5.708-12.428C109.688,402.899,103.253,399.597,95.398,399.267z M186.027,399.252
			c-0.964,0.071-1.94,0.067-2.889,0.226c-8.305,1.392-14.725,5.676-19.204,12.784c-2.274,3.608-3.535,7.57-3.18,11.893
			c0.413,5.033,2.79,8.86,7.295,11.258c2.238,1.191,4.653,1.798,7.182,1.849c7.215,0.145,13.293-2.627,18.477-7.466
			c4.06-3.79,6.733-8.39,7.561-13.959c1.101-7.407-3.071-13.861-10.261-15.89C189.378,399.488,187.721,399.274,186.027,399.252z
			 M182.681,295.108c4.369-3.988,6.163-8.804,5.319-14.485c-0.64-4.31-3.213-7.313-7.167-9.031
			c-6.615-2.875-13.198,1.746-15.22,7.57c-0.192,0.554,0.018,0.832,0.487,1.091c0.979,0.54,1.936,1.12,2.893,1.698
			c0.91,0.55,0.92,0.569,1.489-0.332c0.957-1.516,2.258-2.616,3.938-3.228c3.782-1.376,7.479,1.262,7.448,5.287
			c-0.014,1.778-0.508,3.408-1.469,4.9c-0.275,0.427-0.545,0.861-0.853,1.265c-0.335,0.44-0.274,0.792,0.061,1.219
			C180.612,292.338,181.575,293.645,182.681,295.108z M110.649,282.994c0.784-0.487,1.572-1.041,2.419-1.485
			c0.772-0.404,0.792-0.896,0.493-1.621c-0.851-2.061-2.058-3.855-3.792-5.271c-4.326-3.531-10.212-3.158-14.068,0.881
			c-5.178,5.426-4.569,15.09,1.25,19.818c1.345,1.093,1.345,1.092,2.233-0.322c0.189-0.302,0.337-0.646,0.581-0.894
			c1.142-1.157,1.093-2.184,0.109-3.531c-1.616-2.211-2.181-4.799-1.767-7.536c0.581-3.845,4.064-5.91,7.708-4.594
			c1.694,0.612,2.956,1.749,3.916,3.255C109.997,282.115,110.113,282.642,110.649,282.994z M135.533,411.215
			c0.633-0.547,1.275-1.113,1.929-1.665c1.061-0.895,1.071-0.897,0.201-2.028c-3.344-4.348-6.692-8.692-10.039-13.038
			c-0.155-0.201-0.316-0.398-0.464-0.604c-0.297-0.413-0.638-0.451-1.035-0.146c-0.563,0.433-1.141,0.849-1.693,1.296
			c-1.041,0.842-1.046,0.858-0.259,1.873c3.482,4.497,6.97,8.991,10.463,13.48C134.878,410.695,135.052,411.095,135.533,411.215z
			 M84.81,336.373c-0.1-0.408-0.407-0.69-0.648-1.011c-2.956-3.94-5.917-7.876-8.877-11.813c-1.518-2.019-1.518-2.019-3.496-0.519
			c-0.974,0.738-0.988,0.749-0.237,1.753c3.315,4.433,6.638,8.859,9.959,13.287c0.152,0.203,0.3,0.412,0.474,0.595
			c0.145,0.152,0.354,0.245,0.536,0.078c0.748-0.684,1.485-1.38,2.217-2.081C84.797,336.605,84.787,336.474,84.81,336.373z
			 M85.778,337.98c-0.118,0.084-0.291,0.187-0.438,0.318c-0.34,0.305-0.676,0.616-0.999,0.94c-1.11,1.115-1.112,1.121-0.191,2.351
			c2.618,3.498,5.229,7.002,7.872,10.48c0.512,0.674,0.807,1.814,1.642,1.873c0.78,0.056,1.401-0.9,2.131-1.349
			c0.629-0.387,0.793-0.708,0.252-1.407c-2.116-2.73-4.147-5.525-6.214-8.292c-1.095-1.465-2.195-2.926-3.301-4.383
			C86.355,338.279,86.217,337.972,85.778,337.98z M102.308,290.709c1.666-1.984,3.405-3.603,5.221-5.143
			c1.889-1.603,1.909-1.94,0.277-3.81c-0.199-0.228-0.409-0.457-0.648-0.64c-1.524-1.161-3.188-1.921-5.066-0.995
			c-1.879,0.926-2.349,2.685-2.269,4.621C99.915,286.951,100.831,288.837,102.308,290.709z M106.733,365.722
			c-0.057-0.643-0.479-0.975-0.771-1.367c-2.246-3.008-4.481-6.025-6.771-8.999c-1.961-2.546-1.056-2.491-3.902-0.409
			c-0.512,0.374-0.615,0.699-0.207,1.238c2.359,3.114,4.694,6.245,7.036,9.371c0.218,0.291,0.452,0.552,0.864,0.527
			C104.228,366.009,105.48,365.97,106.733,365.722z M177.776,288.747c1.58-1.554,2.42-3.623,2.279-5.596
			c-0.144-2.012-1.963-3.648-3.933-3.423c-1.935,0.221-3.391,1.249-4.416,2.916c-0.385,0.626-0.241,0.99,0.354,1.358
			c1.652,1.024,3.005,2.419,4.457,3.691C176.928,288.053,177.224,288.559,177.776,288.747z M177.676,398.684
			c0.47-0.123,0.942-0.243,1.411-0.371c1.322-0.362,2.656-0.652,4.021-0.819c1.72-0.211,3.439-0.295,5.161-0.064
			c0.611,0.082,1.025-0.021,0.916-0.762c-0.315-2.146-0.611-4.297-1.322-6.71C184.917,393.636,181.506,396.38,177.676,398.684z
			 M74.99,342.203c-3.944-1.228-10.314,0.117-12.387,2.632C66.95,344.818,71.139,345.08,74.99,342.203z M64.859,333.036
			c1.342,2.913,5.469,5.887,9.848,6.518C73.5,336.636,68.439,333.285,64.859,333.036z M122.421,394.445
			c0.18-0.094,0.326-0.147,0.446-0.236c0.818-0.603,1.63-1.215,2.446-1.82c0.311-0.231,0.31-0.488,0.089-0.776
			c-0.587-0.766-1.173-1.534-1.763-2.298c-0.227-0.294-0.484-0.306-0.785-0.085c-0.819,0.6-1.643,1.195-2.476,1.777
			c-0.4,0.28-0.331,0.571-0.079,0.895c0.561,0.722,1.116,1.45,1.686,2.166C122.104,394.216,122.277,394.323,122.421,394.445z"/>
		<path d="M181.57,320.021c0.011,3.097-0.551,6.07-1.833,8.897c-0.507,1.117-1.133,2.161-1.87,3.14
			c-4.069,5.402-10.698,6.955-16.749,3.915c-1.93-0.97-3.659-2.237-5.072-3.861c-5.809-6.676-7.589-14.327-5.361-22.888
			c0.543-2.087,1.543-3.976,2.862-5.689c4.05-5.266,10.545-6.784,16.517-3.854c2.705,1.327,4.893,3.273,6.685,5.673
			C179.996,309.702,181.509,314.624,181.57,320.021z M151.701,315.969c0.068,4.996,1.706,10.073,5.428,14.383
			c1.829,2.118,4.04,3.721,6.729,4.58c4.154,1.327,7.839,0.444,11.016-2.501c1.994-1.848,3.265-4.175,3.929-6.78
			c1.981-7.781,0.212-14.699-5.025-20.737c-1.311-1.512-2.93-2.673-4.753-3.52c-1.875-0.871-3.837-1.363-5.918-1.165
			c-3.892,0.371-6.733,2.413-8.764,5.655C152.54,308.765,151.807,311.961,151.701,315.969z"/>
		<path d="M132.938,315.654c-0.049,5.785-1.736,11.009-5.429,15.516c-1.9,2.318-4.19,4.144-6.986,5.284
			c-5.579,2.274-11.459,0.775-15.271-3.887c-2.398-2.933-3.646-6.352-3.974-10.07c-0.604-6.841,1.159-13.009,5.633-18.3
			c1.935-2.288,4.277-4.053,7.114-5.101c5.407-1.997,10.903-0.569,14.641,3.82c2.786,3.271,3.981,7.151,4.267,11.364
			C132.965,314.737,132.938,315.196,132.938,315.654z M131.029,315.643c-0.049-0.647-0.076-1.668-0.21-2.674
			c-0.44-3.292-1.541-6.323-3.753-8.862c-3.305-3.795-8.098-4.912-12.744-2.987c-2.956,1.225-5.274,3.253-7.072,5.86
			c-3.377,4.898-4.724,10.32-3.889,16.221c0.45,3.18,1.625,6.09,3.79,8.525c3.216,3.617,7.84,4.721,12.357,2.981
			c2.429-0.936,4.45-2.449,6.132-4.411C129.162,326.19,130.812,321.372,131.029,315.643z"/>
		<path d="M142.587,317.258c0.852,0.03,2.015,0.147,3.13,0.533c2.684,0.928,3.686,3.331,2.409,5.87
			c-0.807,1.604-2.083,2.767-3.773,3.374c-0.707,0.254-0.986,0.618-0.918,1.326c0.063,0.657,0.097,1.318,0.171,1.974
			c0.08,0.707,0.389,1.263,1.124,1.474c0.744,0.213,1.41,0.074,1.967-0.48c0.518-0.515,0.844-1.134,1.014-1.845
			c0.106-0.444,0.207-0.896,0.382-1.313c0.17-0.405,0.52-0.618,0.985-0.552c0.465,0.067,0.71,0.364,0.787,0.808
			c0.49,2.817-2.676,5.848-5.452,5.244c-0.72-0.157-1.248-0.826-1.887-0.884c-0.655-0.059-1.092,0.783-1.809,0.999
			c-2.309,0.695-5.341-0.984-5.529-4.171c-0.027-0.453,0.138-0.826,0.612-0.919c0.486-0.096,0.744,0.185,0.856,0.648
			c0.107,0.443,0.194,0.904,0.387,1.309c0.392,0.82,1.041,1.368,1.957,1.549c1.159,0.229,1.834-0.147,2.291-1.238
			c0.241-0.576,0.275-1.185,0.332-1.791c0.146-1.574,0.138-1.561-1.338-2.133c-1.383-0.537-2.691-1.196-3.689-2.353
			c-0.684-0.792-1.124-1.682-1.3-2.712c-0.257-1.504,0.157-2.448,1.448-3.215C138.445,317.748,140.288,317.25,142.587,317.258z
			 M142.016,319.06c-1.008,0.031-2.018,0.154-2.995,0.447c-1.878,0.563-2.315,1.847-1.216,3.493
			c0.651,0.976,1.637,1.492,2.668,1.951c2.396,1.065,5.057-0.02,6.031-2.465c0.499-1.253,0.16-2.204-1.057-2.771
			C144.37,319.214,143.205,319.085,142.016,319.06z"/>
		<path d="M111.822,421.038c-0.033,5.148-3.711,8.734-8.979,8.772c-4.766,0.035-8.593-2.047-11.647-5.606
			c-1.638-1.908-2.68-4.106-3.016-6.628c-0.658-4.937,2.525-9.147,7.479-9.745c4.935-0.596,8.997,1.246,12.378,4.709
			C110.381,414.942,111.778,417.807,111.822,421.038z M102.376,427.975c0.213,0,0.426,0.007,0.639-0.001
			c4.916-0.19,7.852-4.043,6.724-8.824c-1.303-5.524-7.406-10.008-13.082-9.614c-4.776,0.332-7.59,4.177-6.462,8.829
			C91.468,423.615,96.906,427.908,102.376,427.975z"/>
		<path d="M183.373,407.732c1.052-0.055,2.082,0.097,3.088,0.38c4.605,1.294,7.144,5.671,6.153,10.584
			c-1.407,6.974-8.788,12.295-15.855,11.43c-5.204-0.637-8.545-5.237-7.612-10.482c0.985-5.536,5.849-10.447,11.516-11.624
			C181.557,407.835,182.455,407.684,183.373,407.732z M178.41,428.566c5.489-0.008,11.109-4.408,12.441-9.743
			c0.386-1.544,0.418-3.082-0.093-4.612c-1.033-3.093-4.049-4.993-7.668-4.82c-5.197,0.247-10.2,4.009-11.871,8.932
			c-0.569,1.678-0.734,3.384-0.244,5.11C171.883,426.627,174.709,428.571,178.41,428.566z"/>
		<path d="M170.6,318.381c0.014,1.027-0.075,2.039-0.44,3.006c-0.97,2.574-3.356,3.226-5.5,1.505
			c-0.765-0.614-1.372-1.368-1.839-2.222c-1.461-2.672-2.12-5.488-1.466-8.528c0.119-0.553,0.316-1.073,0.612-1.554
			c1.043-1.689,2.766-2.123,4.474-1.125c0.806,0.471,1.438,1.131,1.969,1.888C169.89,313.46,170.558,315.824,170.6,318.381z"/>
		<path d="M121.99,317.142c-0.046,2.449-0.632,4.737-2.142,6.712c-1.068,1.398-2.391,2.479-4.279,2.061
			c-1.863-0.412-2.701-1.89-3.092-3.618c-0.695-3.073-0.16-5.963,1.468-8.646c0.287-0.474,0.653-0.914,1.046-1.307
			c2.31-2.313,5.219-1.695,6.44,1.354C121.875,314.803,122.02,315.957,121.99,317.142z"/>
	</g>
</g>
</svg>
