<?xml version="1.0" encoding="utf-8"?>
<!-- Generator: Adobe Illustrator 27.5.0, SVG Export Plug-In . SVG Version: 6.00 Build 0)  -->
<svg version="1.1" xmlns="http://www.w3.org/2000/svg" xmlns:xlink="http://www.w3.org/1999/xlink" x="0px" y="0px"
	 viewBox="0 0 500 500" style="enable-background:new 0 0 500 500;" xml:space="preserve">
<g id="BACKGROUND">
</g>
<g id="OBJECTS">
	<rect style="fill:#FFFFFF;" width="500" height="500"/>
	<path d="M392.872,375.444c-6.816,20.886-32.182,19.456-49.503,16.377c-9.481-1.686-19.135-3.668-28.811-2.698
		c-8.712,0.873-16.92,4.018-24.738,7.827c-17.172,8.368-35.245,21.941-55.47,18.575c-9.009-1.499-16.988-6.323-25.378-9.646
		c-8.812-3.491-18.233-5.454-27.702-5.833c-16.769-0.672-34.836,4.658-50.952,0.099c14.812-0.996,28.563-9.935,32.304-25.088
		c4.238-17.167-0.414-35.637-16.845-44.23c-8.58-4.488-18.82-5.63-28.124-2.861c-3.728,1.109-7.8,2.973-11.402,5.473
		c-3.794,2.195-7.234,4.97-10.07,8.47c-5.724,7.063-7.303,15.98-6.223,24.846c1.08,8.868,4.033,17.43,10.802,23.542
		c5.266,4.755,11.868,7.824,18.803,9.168c15.061,9.434,34.277,5.534,51.162,4.413c11.175-0.741,22.248,0.373,32.901,3.927
		c9.166,3.057,17.525,8.38,26.954,10.678c19.624,4.782,37.774-6.085,54.409-14.979c9.252-4.946,18.997-9.707,29.57-10.821
		c11.22-1.182,22.27,1.739,33.279,3.415c10.14,1.544,20.864,2.257,30.507-1.913c7.765-3.358,14.22-9.921,15.852-18.376
		C394.361,374.946,393.149,374.597,392.872,375.444z M148.602,388.727c-0.369-2.578-0.686-5.166-0.934-7.76
		c1.521-0.107,3.06-0.479,4.559-0.598c1.1-0.087,2.232-0.048,3.359-0.041C153.923,383.544,151.635,386.414,148.602,388.727z
		 M157.199,376.583c-1.803-0.097-3.716,0.24-5.418,0.488c-1.437,0.209-2.968,0.39-4.367,0.856c-0.14-1.914-0.236-3.831-0.284-5.749
		c3.733,0.101,7.584,0.148,11.314-0.133C158.127,373.595,157.716,375.112,157.199,376.583z M159.049,368.012
		c-3.97-0.271-8.152,0.369-11.958,1.542c-0.001-2.002,0.049-4.005,0.174-6.006c0.024-0.39,0.069-0.774,0.099-1.162
		c2.042-0.058,4.111-0.418,6.143-0.456c1.959-0.036,3.909,0.22,5.856,0.345C159.356,364.208,159.24,366.133,159.049,368.012z
		 M155.726,346.285c2.133,3.711,3.156,7.922,3.501,12.215c-3.61-0.66-8.033-0.538-11.529,0.545
		c0.767-6.304,2.196-12.411,3.518-18.63C152.96,342.172,154.491,344.135,155.726,346.285z M141.855,336.151
		c0.178-0.658,0.422-1.316,0.573-1.968c2.313,1.115,4.499,2.505,6.485,4.137c-7.13,15.66-7.417,36.044-3.161,52.333
		c-1.693,1.01-3.477,1.862-5.323,2.557c-0.037-0.052-0.068-0.106-0.113-0.157c-3.637-4.16-3.899-11.13-4.203-16.351
		c-0.311-5.356-0.111-10.768,0.506-16.096c0.665-5.738,1.862-11.375,3.228-16.982C140.459,341.116,141.183,338.643,141.855,336.151z
		 M114.687,333.64c1.538-0.634,3.124-1.154,4.738-1.565c-1.645,1.894-3.049,3.992-4.232,6.24c-2.459-0.601-5.481-0.54-8.442-0.043
		C109.226,336.365,111.916,334.783,114.687,333.64z M102.357,342.266c3.814-0.657,7.709-1.592,11.495-1.147
		c-0.626,1.441-1.18,2.921-1.671,4.427c-4.095-0.274-8.867-0.184-13.14,0.905C100.025,344.975,101.14,343.576,102.357,342.266z
		 M94.556,358.38c0.029-0.281,0.085-0.558,0.125-0.837c1.987,0.125,4.093-0.152,5.997-0.163c2.927-0.018,5.835,0.084,8.752,0.246
		c-0.182,1.203-0.347,2.397-0.486,3.566c-0.03,0.247-0.055,0.495-0.084,0.742c-2.644-0.608-5.542-0.44-8.196-0.261
		c-1.955,0.132-4.318,0.225-6.261,0.989C94.369,361.233,94.409,359.803,94.556,358.38z M95.595,371.616
		c-0.458-1.961-0.801-3.958-1.005-5.968c2.202,0.099,4.611-0.523,6.709-0.614c2.4-0.104,4.822,0.258,7.21,0.225
		c-0.561,5.889-0.762,11.858,0.005,17.711c0.288,2.196,0.66,5.299,1.556,8.054C102.988,386.972,97.631,380.325,95.595,371.616z
		 M110.011,354.165c-3.341-0.252-6.715-0.32-10.058-0.117c-1.491,0.09-3.1,0.118-4.635,0.368c0.409-1.465,0.959-2.892,1.619-4.274
		c4.772-0.492,9.367-1.315,14.253-1.206C110.733,350.673,110.34,352.423,110.011,354.165z M118.272,394.354
		c-0.099-0.071-0.199-0.134-0.297-0.206c-0.396-0.291-0.822-0.338-1.213-0.228c-0.495-0.153-0.984-0.319-1.468-0.493
		c-1.761-1.925-2.376-5.792-2.869-8.124c-0.56-2.644-0.813-5.343-0.916-8.041c-0.213-5.589,0.162-11.266,0.766-16.821
		c1.202-11.055,4.662-20.38,11.104-29.142c2.023-0.278,4.067-0.381,6.103-0.304c-2.651,3.01-3.898,8.437-4.747,11.845
		c-1.444,5.8-2.182,11.807-2.66,17.757c-0.537,6.687-0.713,13.473-0.018,20.156c0.504,4.838,1.083,10.273,3.354,14.711
		C122.962,395.326,120.57,394.953,118.272,394.354z M125.773,379.15c-0.414-5.64-0.31-11.303,0.1-16.94
		c0.394-5.42,0.905-10.863,1.988-16.194c1.042-5.125,3.09-9.798,4.564-14.77c0.001-0.003,0.001-0.007,0.001-0.01
		c2.218,0.279,4.406,0.771,6.519,1.503c0.278,0.096,0.552,0.202,0.827,0.306c-0.04,0.154-0.079,0.317-0.11,0.516
		c-0.048,0.115-0.097,0.229-0.145,0.344c-0.61,1.409-1.036,2.93-1.518,4.39c-0.972,2.944-1.87,5.91-2.607,8.922
		c-1.443,5.902-2.462,11.927-2.952,17.984c-0.716,8.852-1.443,21.671,4.65,29.082c-2.549,0.681-5.174,1.084-7.804,1.205
		C126.449,390.811,126.163,384.467,125.773,379.15z"/>
	<g>
		<path d="M172.142,120.014c0.583,0.481,1.655,0.05,1.378-0.802c-1.764-5.426-1.979-10.979-1.685-16.644
			c0.158-3.05,0.466-6.1,0.986-9.111c0.45-2.606,0.674-7.111,2.974-8.434c4.397-2.531,12.798,1.422,16.995,3.292
			c4.407,1.964,8.525,4.449,12.403,7.3c-0.753,0.457-1.447,0.985-2.03,1.634c-0.559,0.622-0.149,1.508,0.653,1.576
			c3.019,0.257,5.982-1.199,8.854-2.052c3.299-0.98,6.648-1.834,10.015-2.547c2.356-0.499,4.728-0.912,7.109-1.254
			c-0.503,6.122-0.101,12.464,0.196,18.581c0.261,5.357,0.465,9.752,3.806,14.089c0.506,0.657,1.558,0.304,1.374-0.579
			c-1.042-5.01-0.07-10.826-0.097-15.909c-0.029-5.546,0.118-11.246-0.6-16.752c1.909-0.192,3.824-0.334,5.741-0.428
			c-1.052,7.596-1.344,15.243-0.482,22.873c0.404,3.573,0.975,7.123,1.641,10.656c0.588,3.117,0.708,6.914,3.138,9.157
			c0.331,0.305,0.769,0.141,0.926-0.244c1.175-2.893-0.07-6.379-0.378-9.411c-0.368-3.631-0.461-7.293-0.423-10.942
			c0.076-7.353,0.586-14.642,1.531-21.933c0.013-0.103,0.003-0.195,0.005-0.293c2.622,0.01,5.237,0.114,7.841,0.309
			c-0.033,0.147-0.057,0.299-0.062,0.459c-0.164,4.889-0.353,9.523-0.999,14.404c-0.583,4.408-0.861,8.729,0.797,12.937
			c0.301,0.764,0.805,1.139,1.612,1.227c0.273,0.03,0.517,0.115,0.733-0.081c1.338-1.216,0.823-2.529,0.752-4.233
			c-0.13-3.112,0.237-6.155,0.768-9.219c0.858-4.949,2.082-9.952,1.553-14.988c9.003,1.095,17.85,3.276,26.384,6.498
			c2.245,0.847,3.274-2.521,1.369-3.623c3.843-2.814,7.922-5.268,12.284-7.212c4.197-1.87,12.598-5.824,16.995-3.292
			c2.299,1.323,2.523,5.828,2.974,8.434c0.52,3.01,0.828,6.06,0.986,9.111c0.294,5.656,0.079,11.2-1.677,16.618
			c-0.007-0.003-0.015-0.006-0.022-0.009c-3.756-1.556-7.695-2.254-11.739-2.411c-1.983-0.077-2.503,3.195-0.478,3.53
			c3.766,0.622,7.653,1.041,11.268,2.325c1.96,0.696,3.659,1.716,5.344,2.913c0.933,0.663,1.344,1.183,2.496,0.831
			c0.77-0.235,0.988-1.005,0.686-1.687c-0.947-2.14-3.691-3.742-6.02-4.821c4.85-4.224,4.04-13.136,3.723-18.897
			c-0.186-3.376-0.637-6.754-1.27-10.075c-0.498-2.615-0.763-6.861-2.837-8.837c-3.685-3.511-12.434-0.708-16.491,0.667
			c-7.061,2.393-13.606,5.991-19.531,10.498c-0.321,0.244-0.528,0.541-0.657,0.856c-12.71-4.324-26.103-6.446-39.547-6.168
			c-7.065,0.146-14.126,0.942-21.049,2.362c-3.622,0.743-7.19,1.67-10.705,2.817c-0.857,0.28-1.762,0.558-2.666,0.864
			c-0.132-0.268-0.324-0.52-0.602-0.731c-5.925-4.507-12.47-8.106-19.531-10.498c-4.057-1.375-12.806-4.178-16.491-0.667
			c-2.075,1.976-2.339,6.222-2.837,8.837c-0.633,3.321-1.085,6.699-1.27,10.075C167.933,106.789,167.096,115.854,172.142,120.014z"
			/>
		<path d="M190.754,96.81c3.223,1.519,5.938,3.83,8.082,6.667c1.171,1.55,3.829,0.047,2.648-1.548
			c-2.45-3.309-5.446-5.977-9.185-7.762c-2.89-1.38-7.701-3.147-10.96-2.286c-3.106,0.821-2.178,6.004-2.202,8.392
			c-0.047,4.601-0.202,9.757,1.624,14.051c0.198,0.466,0.992,0.333,1.085-0.142c0.559-2.861,0.242-5.653,0.214-8.553
			c-0.018-1.785,0.005-3.572,0.052-5.357c0.028-1.056-0.382-3.859,0.195-4.588C183.877,93.696,188.772,95.876,190.754,96.81z"/>
		<path d="M309.687,95.685c0.576,0.729,0.167,3.532,0.194,4.588c0.047,1.785,0.07,3.572,0.052,5.357
			c-0.029,2.9-0.346,5.692,0.214,8.553c0.093,0.475,0.887,0.608,1.085,0.142c1.826-4.294,1.67-9.451,1.624-14.051
			c-0.024-2.388,0.904-7.571-2.202-8.392c-3.259-0.861-8.07,0.906-10.96,2.286c-3.739,1.785-6.734,4.453-9.185,7.762
			c-1.181,1.594,1.477,3.098,2.648,1.548c2.143-2.837,4.859-5.148,8.082-6.667C303.22,95.876,308.114,93.696,309.687,95.685z"/>
		<path d="M163.769,132.228c2.485-0.995,4.123-3.949,6.372-5.506c2.594-1.796,5.565-2.426,8.265-3.907
			c1.501-0.823,0.71-2.94-0.824-3.041c-3.31-0.22-6.992,1.911-9.537,3.838c-2.161,1.636-5.778,4.588-5.654,7.568
			C162.418,131.814,163.077,132.505,163.769,132.228z"/>
		<path d="M176.735,128.145c-5.323,0.483-10.242,3.917-12.846,8.56c-0.304,0.543-0.271,1.383,0.234,1.815
			c0.084,0.075,0.172,0.145,0.263,0.211c0.013,0.008,0.027,0.015,0.04,0.023c0.565,0.319,1.357,0.252,1.815-0.234
			c3.171-3.367,6.648-5.42,10.941-7.071C178.801,130.826,178.779,127.96,176.735,128.145z"/>
		<path d="M317.491,126.869c-2.732-1.282-5.462-2.195-8.506-2.045c-1.678,0.083-1.96,2.335-0.39,2.882
			c2.498,0.87,5.107,1.349,7.586,2.27c2.432,0.903,4.519,2.31,6.8,3.499c0.25,0.13,0.62,0.127,0.819-0.106l0.239-0.279
			c0.346-0.404,0.467-0.96,0.186-1.439C322.895,129.387,319.789,127.948,317.491,126.869z"/>
		<path d="M230.317,155.152c0.741-0.424,1.015-1.28,0.846-2.079c-1.698-8.016-6.817-15.442-14.544-18.658
			c-5.991-2.494-12.608-1.929-17.835,1.384c-0.53,0.276-1.054,0.573-1.569,0.906c-1.92,1.24-3.71,2.464-3.646,4.913
			c0.057,2.174,1.434,4.327,2.749,5.956C203.765,156.792,219.878,161.123,230.317,155.152z M208.681,138.502
			c-1.444,3.62-1.986,9.038-0.47,13.168c-1.65-0.745-3.239-1.606-4.721-2.554c-3.77-2.41-8.598-6.488-3.69-10.59
			c0.593-0.495,1.277-0.918,2.022-1.275c2.632-0.919,5.477-1.226,8.255-0.939C209.478,136.901,209.02,137.652,208.681,138.502z
			 M217.969,139.064c4.765,3.075,7.816,8.086,9.285,13.527c-3.202,1.524-6.653,1.933-10.09,1.586
			c0.813-1.315,1.37-2.944,1.594-4.421C219.256,146.481,219.48,142.197,217.969,139.064z"/>
		<path d="M292.612,147.574c1.316-1.629,2.692-3.781,2.749-5.956c0.064-2.449-1.726-3.672-3.646-4.913
			c-0.515-0.333-1.04-0.63-1.569-0.906c-5.227-3.313-11.843-3.878-17.835-1.384c-7.727,3.216-12.846,10.642-14.544,18.658
			c-0.169,0.798,0.105,1.655,0.846,2.079C269.052,161.123,285.165,156.792,292.612,147.574z M287.108,137.25
			c0.745,0.357,1.429,0.78,2.022,1.275c4.908,4.102,0.08,8.181-3.69,10.59c-1.483,0.948-3.071,1.809-4.721,2.554
			c1.516-4.13,0.974-9.547-0.47-13.168c-0.339-0.85-0.797-1.601-1.396-2.191C281.631,136.024,284.476,136.331,287.108,137.25z
			 M261.676,152.592c1.469-5.441,4.52-10.452,9.285-13.527c-1.511,3.133-1.287,7.417-0.79,10.692
			c0.224,1.478,0.781,3.106,1.594,4.421C268.329,154.524,264.878,154.116,261.676,152.592z"/>
		<path d="M252.887,160.26c-1.718-1.319-4.711-1.777-7.101-1.788c-2.463-0.011-4.928,0.203-7.353,0.637
			c-0.976,0.175-2.094,0.402-2.928,0.97c-1.176,0.802-0.776,2.286-0.319,3.384c1.274,3.065,2.601,6.211,4.924,8.583
			c0.662,0.677,1.37,1.197,2.104,1.527c-0.003,0.21-0.006,0.419-0.013,0.622c-0.099,2.743-0.097,5.494-0.041,8.24
			c-1.643,1.857-3.272,3.736-4.816,5.673c-1.467,1.841-3.374,3.733-3.807,6.081c-0.106,0.577,0.38,1.275,1.038,1.038
			c2.214-0.796,3.43-2.505,5.014-4.239c1.547-1.694,3.028-3.455,4.488-5.229c2.383,2.904,4.564,5.977,6.652,9.096
			c1.319,1.971,4.54,0.091,3.189-1.864c-2.412-3.488-5.016-6.801-7.643-10.12c-0.042-2.894-0.147-5.793-0.358-8.678
			c-0.017-0.234-0.029-0.475-0.041-0.719c0.304-0.16,0.607-0.359,0.909-0.603C249.453,170.714,257.592,163.872,252.887,160.26z"/>
		<path d="M187.481,175.391c4.653-2.028,9.658-3.519,14.638-4.506c5.08-1.007,10.022-0.685,15.128-1.035
			c1.349-0.092,1.809-2.158,0.337-2.487c-10.313-2.303-22.089,1.426-30.821,6.799C185.961,174.653,186.659,175.749,187.481,175.391z
			"/>
		<path d="M189.278,188.097c9.122-5.484,18.358-10.011,28.869-12.128c1.788-0.36,0.999-2.965-0.743-2.696
			c-10.679,1.648-21.211,6.071-28.813,13.934C188.15,187.663,188.715,188.435,189.278,188.097z"/>
		<path d="M297.308,174.161c-8.732-5.372-20.508-9.101-30.821-6.799c-1.473,0.329-1.012,2.395,0.337,2.487
			c5.106,0.35,10.047,0.028,15.128,1.035c4.98,0.987,9.985,2.479,14.638,4.506C297.411,175.749,298.109,174.653,297.308,174.161z"/>
		<path d="M265.923,175.969c10.511,2.117,19.747,6.644,28.869,12.128c0.563,0.339,1.129-0.434,0.688-0.891
			c-7.602-7.863-18.134-12.286-28.813-13.934C264.924,173.004,264.135,175.608,265.923,175.969z"/>
		<path d="M189.104,225.459c6.367,0.245,12.447,6.109,16.731,10.255c4.59,4.442,9.057,9.008,13.356,13.733
			c4.708,5.174,14.709,17.312,21.999,8.438c1.081-1.316-0.316-3.652-1.966-2.548c-5.647,3.779-10.583-1.153-14.314-5.112
			c-4.031-4.277-8.129-8.478-12.387-12.531c-3.544-3.374-7.119-6.824-11.162-9.604c-4.175-2.871-7.329-3.443-12.256-3.58
			C188.492,224.492,188.494,225.436,189.104,225.459z"/>
		<path d="M251.797,252.44c7.063-2.814,13.359-7.274,19.438-11.795c6.1-4.537,12.348-9.268,17.47-14.911
			c1.285-1.415-0.605-3.155-2.042-2.042c-6.237,4.829-12.014,10.184-18.381,14.864c-5.732,4.214-11.829,7.932-17.312,12.462
			C250.331,251.546,251.017,252.751,251.797,252.44z"/>
		<path d="M410.273,242.934c-0.745-19.033-5.168-37.7-5.989-56.744c-0.4-9.257-0.228-18.54,0.513-27.775
			c0.784-9.776,2.646-19.454,3.147-29.251c0.713-13.934-2.178-30.78-15.109-38.725c-13.229-8.129-25.699,4.243-31.116,15.673
			c-6.63,13.991-6.864,29.993-5.048,45.09c2.114,17.58,6.325,34.996,11.622,51.873c6.13,19.532,15.452,39.567,13.434,60.53
			c-0.854,8.87-4.027,18.188-11.075,24.052c-5.328,4.433-13.039,5.788-19.379,3.292c-2.152-1.644-4.405-3.229-5.438-5.829
			c-1.146-2.884-1.331-6.194-1.807-9.235c-2.208-14.114-5.501-27.875-11.296-40.973c-4.68-10.578-10.774-21.08-18.471-29.954
			c7.708,6.7,17.733,10.291,28.198,9.608c1.72-0.112,2.821-2.221,1.464-3.535c-6.27-6.071-12.692-11.521-20.336-14.347
			c10.572-3.252,19.705-10.464,18.592-23.039c-0.115-1.3-1.364-2.741-2.841-2.164c-6.412,2.505-12.87,5.158-18.517,9.124
			c5.906-13.398,6.339-28.875-2.48-41.27c1.976,1.069,3.708,2.68,5.803,3.382c0.568,0.191,0.944-0.382,0.872-0.872
			c-0.457-3.13-4.048-5.505-6.698-6.731c-3.186-1.475-6.666-2.118-10.139-1.496c-2.204,0.395-1.62,3.802,0.517,3.821
			c1.664,0.015,3.274,0.087,4.852,0.343c-0.265,0.643-0.242,1.415,0.309,2.086c11.61,14.15,7.995,33.947-1.988,47.844
			c-9.907,13.789-25.019,23.665-40.875,29.288c-15.587,5.527-32.451,7.388-48.888,5.734c-17.224-1.733-35.274-7.511-47.158-20.726
			c-6.21-6.905-10.739-15.717-11.723-25.026c-1.12-10.601,2.865-20.562,7.541-29.867c0.349-0.694,0.01-1.336-0.509-1.622
			c0.295-0.144,0.59-0.281,0.888-0.397c2.872-1.116,5.853-1.39,8.841-2.019c1.575-0.331,1.634-2.955,0-3.243
			c-3.542-0.624-7.104,0.201-10.37,1.635c-2.772,1.217-6.662,3.278-7.443,6.439c-0.167,0.675,0.415,1.169,1.055,1.055
			c1.776-0.318,3.442-1.393,5.105-2.395c-4.883,8.251-9.115,16.767-9.32,26.585c-0.177,8.498,2.62,17.014,7.045,24.206
			c0.278,0.452,0.586,0.877,0.876,1.318c-6.94,12.52-10.395,27.241-12.507,41.28c-2.263,15.041-2.612,30.355-0.97,45.478
			c1.617,14.89,5.046,29.565,10.443,43.543c2.77,7.174,6.001,14.206,10.216,20.656c3.428,5.246,7.446,10.066,11.561,14.786
			c-6.373,2.639-9.024,10.967-4.839,17.111c4.363,6.404,13.272,6.412,18.041,1.203c2.208,2.877,5.736,4.613,9.559,4.368
			c4.296-0.276,7.721-2.887,9.859-6.374c3.321,3.084,8.365,3.752,12.537,0.788c3.511-2.494,4.981-6.22,4.884-10.049
			c3.755,1.521,8.42,1.849,12.413,0.948c0.036,2.106,0.739,4.242,2.228,6.06c4.439,5.419,11.827,4.841,16.289,0.414
			c2.466,2.262,5.881,3.322,9.352,2.84c4.073-0.566,7.255-3.056,9.479-6.294c4.65,5.609,13.621,6.285,18.013,0.41
			c0.919,1.768,2.612,3.09,5.229,3.458c3.609,0.508,6.81-1.054,8.974-3.593c0.775,1.762,2.141,3.126,4.511,3.506
			c3.235,0.518,5.743-1.02,7.343-3.369c1.897,2.172,4.783,2.974,7.826,0.447c2.075-1.724,2.977-4.281,3.025-6.937
			c15.628-9.105,37.538-25.457,24.666-60.682c7.682-1.939,15.51-4.031,22.155-8.511c5.5-3.708,10.039-8.672,13.51-14.309
			C408.616,273.048,410.853,257.736,410.273,242.934z M337.181,210.351c-8.952-0.751-17.352-4.815-23.359-11.597
			C323.169,199.18,330.426,204.202,337.181,210.351z M337.677,176.943c-1.11,11.664-14.058,16.582-24.84,17.585
			c0.24-0.372,0.484-0.744,0.749-1.109c2.072-2.849,4.691-5.419,7.475-7.566C326.074,181.987,331.832,179.306,337.677,176.943z
			 M212.421,225.646c32.32,5.935,70.143-1.555,94.142-25.107c0.095,0.13,0.19,0.259,0.286,0.389
			c-1.342,17.404-15.381,30.486-27.598,41.885c-6.937,6.472-14.181,12.627-21.717,18.392c-6.722,5.143-13.743,9.909-19.812,15.824
			l-40.461-37.135c-10.935-10.036-24.577-21.668-27.214-36.956C180.463,215.627,196.412,222.706,212.421,225.646z M331.793,372.065
			c-0.181-0.69-0.313-1.39-0.395-2.099c-0.301-1.979-3.681-1.972-3.99,0c-0.089,1.133-0.398,2.208-0.929,3.225
			c-1.218,2.203-2.562,2.517-4.032,0.941c-2.19-1.315-2.015-2.507-1.95-4.88c0.067-2.441-3.476-2.331-3.723,0
			c-0.367,3.466-3.371,6.459-6.944,6.493c-3.852,0.036-4.083-3.221-4.049-6.141c0.017-0.296,0.022-0.592,0.015-0.888
			c0.006-0.326,0.012-0.645,0.01-0.946c-0.001-0.17-0.056-0.318-0.132-0.454c-0.045-0.307-0.104-0.612-0.173-0.915
			c5.232-5.09,12.393-8.023,19.759-7.196c3.425,0.384,6.95,1.599,9.124,4.414c1.179,1.527,1.859,3.331,1.847,5.26
			c-0.205,0.567-0.221,1.083-0.055,1.454C335.91,372.11,334.453,372.691,331.793,372.065z M339.769,365.074
			c-0.497-1.585-1.256-3.059-2.224-4.238c-8.426-10.267-24.92-6.109-33.827,1.492c-0.758-1.112-1.698-2.101-2.802-2.887
			c-2.041-1.453-2.315-0.383-1.884-2.869c0.359-2.074,1.435-4.259,2.109-6.257c1.408-4.171,2.821-8.34,4.231-12.51
			c0.906-2.68-3.348-3.844-4.235-1.167c-1.731,5.221-3.46,10.443-5.197,15.663c-0.916,2.753-3.197,6.571-0.495,8.963
			c1.607,1.423,3.577,1.588,4.878,3.588c1.347,2.071,1.608,4.551,0.633,6.812c-2.709,6.283-11.468,5.345-13.553-0.841
			c-0.552-1.638-2.842-2.091-3.768-0.492c-2.896,5.001-10.973,10.461-14.844,3.153c-0.885-1.671-3.477-1.625-4.375,0
			c-1.934,3.502-6.574,5.515-9.734,2.212c-2.898-3.03-1.213-7.572,2.608-8.833c0.888-0.293,1.352-0.893,1.487-1.548
			c0.363-0.359,0.628-0.84,0.696-1.457c1.257-11.436,2.191-22.903,3.165-34.366c0.474-5.586,0.892-11.169,1.246-16.764
			c0.32-5.047,1.792-11.314,0.353-16.204c-0.241-0.818-1.497-1.085-1.916-0.25c-2.147,4.276-1.88,10.085-2.429,14.779
			c-0.686,5.864-1.333,11.725-1.894,17.602c-1.092,11.434-2.222,22.864-3.047,34.321c-2.579,0.736-4.524,2.461-5.666,4.616
			c-2.436,0.252-4.809,0.784-7.302,0.771c-2.265-0.011-4.515-0.262-6.771-0.38c-0.432-1.614-1.124-3.185-2.046-4.625
			c-0.276-0.431-0.625-0.709-1.003-0.874c-0.559-10.685-1.42-21.349-2.486-31.996c-0.557-5.564-1.217-11.113-1.944-16.657
			c-0.699-5.337-1.129-10.988-2.831-16.109c-0.432-1.299-2.298-1.056-2.371,0.321c-0.291,5.492,0.727,11.161,1.275,16.62
			c0.557,5.55,1.076,11.104,1.578,16.659c1.005,11.121,1.745,22.264,2.433,33.408c0.081,1.318,1.072,2.027,2.101,2.132
			c1.486,2.926,1.966,6.284-0.088,9.193c-2.403,3.402-7.914,4.141-9.796-0.409c-0.822-1.99-3.699-2.331-4.402,0
			c-0.993,3.291-3.313,6.301-6.921,6.844c-3.376,0.508-6.522-1.496-7.484-4.78c-0.663-2.265-3.491-1.933-4.278,0
			c-2.541,6.237-10.874,5.805-13.553-0.004c-2.069-4.487,0.498-8.654,4.158-11.137c0.35,0.398,0.7,0.796,1.05,1.193
			c2.125,2.411,5.643-1.127,3.525-3.525c-5.184-5.869-10.386-11.759-14.563-18.409c-3.994-6.358-7.088-13.236-9.698-20.264
			c-5.052-13.603-8.339-27.883-9.735-42.326c-1.397-14.452-1.01-29.092,1.199-43.444c1.718-11.159,4.939-21.779,8.157-32.484
			c2.46,12.884,12.249,23.176,22.12,32.25c15.461,14.212,30.971,28.371,46.457,42.557c0.952,0.872,2.501,0.986,3.442,0
			c6.966-7.292,15.468-12.798,23.372-18.987c8.031-6.289,15.763-12.984,23.089-20.085c10.591-10.267,21.577-22.479,24.485-37.154
			c5.673,7.91,10.997,15.968,15.283,24.822c5.809,12.002,9.532,24.839,11.989,37.917c1.105,5.885,1.218,12.516,3.388,18.129
			c2.047,5.294,7.207,7.702,11.049,11.535c8.347,8.326,11.774,19.956,12.079,31.759
			C364.587,343.266,350.253,355.867,339.769,365.074z M401.562,272.963c-2.715,7.582-6.948,14.721-12.974,20.134
			c-7.08,6.359-16.186,8.85-25.197,11.144c-0.04,0.01-0.071,0.028-0.11,0.04c-1.542-3.144-3.845-5.9-6.397-8.406
			c6.428,0.48,13.257-2.036,18.058-6.539c10.656-9.992,12.366-26.516,10.742-40.221c-1.997-16.858-8.777-32.625-13.722-48.733
			c-5.176-16.859-9.453-34.352-11.225-51.929c-1.551-15.39-0.841-31.978,7.718-45.389c4.196-6.575,11.898-13.388,20.162-9.783
			c7.155,3.12,11.521,10.957,13.521,18.154c4.729,17.019-1.066,35.483-2.075,52.688c-1.056,18.002,0.518,35.706,2.961,53.526
			C405.54,235.991,407.951,255.118,401.562,272.963z"/>
		<path d="M309.877,320.221c-1.046-0.287-2.046,0.214-2.636,1.073c-1.405,2.045-1.971,5.139-2.019,7.569
			c-0.026,1.322,1.827,2.217,2.745,1.137c1.772-2.083,3.279-4.783,3.624-7.528C311.716,321.474,310.776,320.468,309.877,320.221z"/>
		<path d="M178.669,253.853c-2.976,3.305-5.061,7.178-6.043,11.527c-0.633,2.803,3.469,3.951,4.312,1.189
			c1.133-3.716,2.501-7.31,4.217-10.798C181.905,254.248,179.943,252.439,178.669,253.853z"/>
		<path d="M188.612,260.673c-3.708,2.503-5.994,7.147-5.554,11.629c0.203,2.077,2.93,2.538,3.653,0.494
			c1.21-3.42,2.574-6.615,4.148-9.877C191.512,261.565,190.088,259.677,188.612,260.673z"/>
		<path d="M198.801,269.163c-1.769-0.098-3.23,1.803-3.983,3.195c-1.053,1.947-1.542,4.075-1.281,6.272
			c0.227,1.905,3.26,2.778,3.692,0.5c0.333-1.757,0.694-3.528,1.246-5.229c0.43-1.325,1.243-2.889,0.898-4.302
			C199.309,269.335,199.058,269.177,198.801,269.163z"/>
		<path d="M208.232,276.619c-3.136,2.205-3.234,7.808-3.317,11.29c-0.07,2.927,4.187,2.806,4.471,0
			c0.205-2.034,0.38-4.06,0.561-6.095c0.153-1.727,0.396-3.296-0.469-4.869C209.254,276.54,208.627,276.341,208.232,276.619z"/>
		<path d="M221.515,283.821c-0.378,2.601-0.605,5.278-0.3,7.892c0.312,2.666,3.842,2.671,4.155,0c0.305-2.612,0.077-5.293-0.3-7.892
			C224.815,282.061,221.771,282.06,221.515,283.821z"/>
		<path d="M244.136,290.817c-0.301-1.163-0.457-2.573-1.34-3.434c-0.295-0.287-0.767-0.285-1.063,0
			c-0.941,0.906-1.061,2.475-1.239,3.724c-0.229,1.608-0.223,3.209-0.031,4.817c0.395,3.308,5.031,2.738,4.547-0.615
			C244.791,293.798,244.519,292.296,244.136,290.817z"/>
		<path d="M254.773,281.851c-0.4-0.333-0.949-0.298-1.243,0.16c-1.581,2.463-0.875,5.46-0.35,8.191
			c0.469,2.44,4.694,1.921,4.391-0.594C257.239,286.834,257.042,283.737,254.773,281.851z"/>
		<path d="M366.963,134.199c0.143-1.847-2.394-1.86-2.981-0.403c-1.474,3.661-1.032,7.956,0.777,11.38
			c0.799,1.512,2.926,0.42,2.627-1.108C366.728,140.696,366.701,137.595,366.963,134.199z"/>
		<path d="M375.072,145.113c0.468-1.97,0.28-3.902,0.303-5.906c0.023-1.955,0.138-3.837-0.611-5.675
			c-0.195-0.478-0.866-0.826-1.279-0.338c-2.412,2.857-2.745,8.529-1.365,11.918C372.642,146.391,374.688,146.73,375.072,145.113z"
			/>
		<path d="M384.559,145.106c1.155-3.094-0.473-7.76-1.55-10.705c-0.243-0.665-1.255-0.59-1.269,0.172
			c-0.033,1.815-0.046,3.624-0.165,5.437c-0.112,1.718-0.471,3.42,0.058,5.096C382.106,146.6,384.043,146.486,384.559,145.106z"/>
		<path d="M393.45,143.573c-0.14-3.081-0.984-6.548-2.891-9.036c-0.341-0.446-1.09-0.337-1.106,0.3
			c-0.071,2.919,0.085,5.809-0.091,8.737C389.203,146.196,393.569,146.215,393.45,143.573z"/>
		<path d="M400.322,143.809c0.852-2.914,0.796-6.43-1.12-8.947c-0.271-0.356-0.816-0.337-0.964,0.126
			c-0.802,2.5-1.107,5.229-1.604,7.804C396.171,145.184,399.623,146.2,400.322,143.809z"/>
		<path d="M374.768,184.018c-0.175-1.246-2.06-1.074-2.354,0c-0.808,2.949-0.21,6.386,2.101,8.512
			c1.352,1.243,3.065-0.307,2.403-1.854C375.975,188.474,375.104,186.417,374.768,184.018z"/>
		<path d="M384.761,190.769c0.731-2.503-1.227-5.669-2.201-7.933c-0.35-0.812-1.435-0.288-1.5,0.406
			c-0.214,2.304-1.058,5.934,0.326,7.968C382.266,192.503,384.296,192.36,384.761,190.769z"/>
		<path d="M391.742,181.331c-0.569,3.128-0.712,6.339-0.715,9.511c-0.002,2.313,3.404,2.266,3.561,0
			c0.222-3.199-0.086-6.489-1.218-9.511C393.109,180.633,391.906,180.431,391.742,181.331z"/>
		<path d="M388.8,228.559c-0.095-1.585-0.379-3.087-0.732-4.632c-0.327-1.429-0.489-2.862-1.564-3.937
			c-0.573-0.573-1.731-0.519-2.113,0.272c-0.671,1.389-0.404,2.707-0.241,4.195c0.173,1.575,0.361,3.096,0.79,4.624
			C385.522,231.156,388.936,230.828,388.8,228.559z"/>
		<path d="M396.001,226.297c-0.113-2.721-0.923-5.185-2.442-7.462c-0.455-0.682-1.521-0.427-1.548,0.419
			c-0.084,2.553,0.039,5.005,0.467,7.52C392.818,228.771,396.084,228.3,396.001,226.297z"/>
		<path d="M388.639,270.01c-1.102,1.318-1.436,3.039-1.94,4.641c-0.855,2.722,3.471,3.917,4.273,1.178
			c0.464-1.583,1.02-3.459,0.452-5.084C391.049,269.668,389.504,268.976,388.639,270.01z"/>
		<path d="M396.792,272.121c-1.253,0.872-1.966,2.186-2.61,3.53c-0.514,1.072-0.211,2.335,0.952,2.825
			c1.122,0.473,2.323-0.149,2.688-1.291c0.456-1.429,0.865-2.919,0.548-4.423C398.235,272.118,397.343,271.737,396.792,272.121z"/>
		<path d="M269.715,272.621c-1.839-1.228-3.354,1.35-2.182,2.828c1.583,1.998,2.495,4.386,3.052,6.851
			c0.54,2.386,4.276,1.848,4.242-0.574C274.775,277.953,272.829,274.7,269.715,272.621z"/>
		<path d="M283.841,267.438c-0.8-0.732-1.672-1.393-2.664-1.836c-1.049-0.468-2.988-0.442-3.273,1.028
			c-0.38,1.963,1.513,2.849,2.594,4.151c1.039,1.251,1.557,2.851,2.801,3.942c1.031,0.904,3.079,0.713,3.362-0.888
			C287.111,271.285,285.664,269.107,283.841,267.438z"/>
		<path d="M294.632,258.474c-1.18-1.087-3.051-2.167-4.72-1.973c-0.952,0.11-1.714,1.055-1.145,1.996
			c0.606,1.003,1.526,1.84,2.212,2.797c0.746,1.041,1.348,2.172,2.056,3.24c1.092,1.644,4.319,1.226,4.086-1.107
			C296.922,261.438,296.114,259.839,294.632,258.474z"/>
		<path d="M306.262,252.449c-0.38-2.277-1.886-4.283-3.657-5.72c-1.286-1.044-4.969-3.003-5.35-0.061
			c-0.188,1.448,1.601,2.83,2.469,3.807c0.993,1.117,1.736,2.43,2.65,3.613C303.848,255.997,306.674,254.921,306.262,252.449z"/>
	</g>
</g>
</svg>
