<?xml version="1.0" encoding="utf-8"?>
<!-- Generator: Adobe Illustrator 27.5.0, SVG Export Plug-In . SVG Version: 6.00 Build 0)  -->
<svg xmlns="http://www.w3.org/2000/svg" xmlns:xlink="http://www.w3.org/1999/xlink" viewBox="0 0 612 612" width="595" height="842" preserveAspectRatio="xMidYMid meet" data-scaled="true">
<g>
	<path d="M197.853,246.873c-1.49-4.681-2.817-8.809-3.261-13.142c-0.982-9.567,0.826-18.271,7.855-25.345
		c0.694-0.699,1.107-1.215,0.462-2.278c-5.184-8.547-8.985-17.612-10.045-27.666c-0.016-0.151-0.201-0.285-0.379-0.523
		c-0.706,0.502-1.411,1.003-2.399,1.706c-2.253-15.702,0.283-30.383,6.404-44.565c-1.116-0.481-2.12-0.216-3.056-0.064
		c-2.085,0.337-2.782-0.21-2.284-2.434c1.338-5.977,3.011-11.794,6.753-16.785c1.485-1.98,3.273-3.676,5.407-4.925
		c1.247-0.73,1.313-1.274,0.496-2.491c-2.313-3.445-2.241-3.498,1.309-5.622c7.451-4.459,15.696-5.944,24.199-6.583
		c4.795-0.36,9.569-0.987,14.358-1.442c1.46-0.139,1.998-0.447,1.418-2.141c-1.41-4.121-1.271-4.544,3.062-5.665
		c14.587-3.772,29.123-3.52,43.449,1.315c4.991,1.684,9.072,4.906,12.724,8.664c0.61,0.628,1.057,1.448,2.184,1.387
		c4.438-0.24,8.848,0.398,13.692,0.107c-1.169-1.06-2.399-2.061-3.495-3.192c-2.273-2.347-4.507-4.734-6.689-7.166
		c-0.851-0.948-1.634-2.055-0.867-3.439c0.756-1.365,2.124-1.32,3.37-1.161c1.612,0.205,3.234,0.514,4.783,0.998
		c11.944,3.732,22.437,10.153,32.364,17.606c0.772,0.58,1.542,1.162,2.784,2.099c-1.548-3.597-2.889-6.628-4.152-9.693
		c-0.481-1.168-1.052-2.557-0.039-3.598c1.114-1.144,2.612-0.556,3.853-0.047c3.154,1.294,5.75,3.447,8.216,5.743
		c4.738,4.411,8.841,9.384,12.628,14.616c0.938,1.296,2.012,2.208,3.505,2.837c6.728,2.834,12.408,7.164,17.16,12.664
		c1.192,1.38,2.043,1.877,3.794,0.909c6.391-3.532,13.158-4.277,20.294-2.624c8.779,2.033,17.548,4.021,24.956,9.569
		c0.998,0.747,2.81,1.205,1.167,3.249c-0.712,0.885,0.793,1.857,1.477,2.598c7.341,7.957,14.06,16.419,20.355,25.213
		c7.135,9.968,14.179,20.006,20,30.828c2.328,4.328,4.237,8.837,5.247,13.683c0.24,1.15,0.447,2.291,0.181,3.812
		c-1.903-0.989-3.624-1.882-5.293-2.749c2.986,15.527,0.256,29.993-7.232,43.653c-1.621,2.958-3.727,5.595-6.437,7.677
		c-2.841,2.183-4.307,2.263-7.488,0.312c-1.353-0.83-1.34,0.581-1.611,1.045c-2.989,5.123-6.482,9.865-10.498,14.218
		c-4.723,5.119-10.077,9.401-16.478,12.288c-3.948,1.781-7.868,2.204-11.72-0.143c-1.054-0.642-1.474-0.275-2.171,0.534
		c-2.732,3.168-5.063,3.606-8.94,1.847c-4.72-2.142-7.955-5.985-11.003-9.946c-1.206-1.568-1.914-1.504-3.376-0.395
		c-2.744,2.081-5.623,4.006-8.575,5.782c-1.533,0.922-1.699,1.601-0.745,3.121c4.655,7.419,10.144,14.173,16.07,20.588
		c11.674,12.635,24.761,23.76,37.588,35.166c10.111,8.991,20.365,17.838,29.35,28.012c3.432,3.886,6.717,7.899,9.374,12.353
		c1.148,1.925,1.783,1.636,3.01,0.137c9.326-11.383,13.928-24.491,14.489-39.114c0.266-6.916-0.507-13.777-1.178-20.706
		c1.151,0.065,1.343,1.006,1.767,1.593c13.843,19.192,16.108,40.149,9.475,62.459c-2.708,9.106-6.515,17.714-11.667,25.7
		c-0.852,1.321-1.004,2.487-0.667,4.036c5.087,23.385,1.613,45.134-12.722,64.685c-2.244,3.061-3.21,6.188-2.451,9.929
		c0.487,2.398,0.774,4.845,1.009,7.283c0.682,7.1-1.894,11.429-8.48,14.143c-6.01,2.477-12.385,3.566-18.768,4.43
		c-24.482,3.312-49.046,4.33-73.588,1.048c-6.243-0.835-11.593-1.062-17.313,2.468c-5.52,3.407-12.362,3.352-18.786,3.84
		c-16.327,1.24-32.653,1.465-48.936-0.682c-2.699-0.356-5.411-0.802-7.611-2.644c-0.808-0.677-1.732-0.358-2.618-0.343
		c-13.901,0.233-27.791,0.148-41.572-2.002c-4.686-0.731-9.206-2.075-13.294-4.597c-4.615-2.847-7.122-6.956-7.07-12.406
		c0.054-5.763,1.633-11.143,4.941-15.889c2.764-3.967,6.56-5.913,11.507-5.036c0.623,0.11,1.172,0.305,1.797-0.141
		c5.71-4.072,12.281-4.76,18.975-4.419c2.667,0.136,3.045-0.8,3.133-3.126c0.912-24.029-0.952-47.925-3.137-71.819
		c-1.579-17.27-3.679-34.507-3.604-51.898c0.042-9.73,0.562-19.428,1.524-29.106c0.149-1.5,0.238-3.005,0.412-5.247
		c-4.112,4.36-7.892,7.964-12.901,9.888c-0.684,0.263-0.808,0.9-0.905,1.557c-0.507,3.453-1.763,6.661-3.32,9.752
		c-0.465,0.923-0.436,1.48,0.283,2.354c7.598,9.246,3.954,22.29-7.361,26.414c-1.349,0.492-2.242,0.935-2.588,2.596
		c-6.579,31.639-13.279,63.254-19.876,94.89c-3.113,14.93-6.064,29.894-9.088,44.843c-0.036,0.178-0.055,0.359-0.09,0.538
		c-0.522,2.637-1.043,5.31-4.306,5.904c-2.317,0.422-4.396-1.152-5.919-4.657c-11.686-26.885-23.366-53.772-34.983-80.687
		c-8.236-19.082-16.367-38.21-24.566-57.308c-0.474-1.103-0.748-2.21-2.399-2.568c-11.448-2.483-16.264-9.556-13.739-21.013
		c0.851-3.861,1.052-5.885-2.907-8.333c-6.187-3.827-8.21-13.469-5.776-21.769c1.446-4.933,4.011-9.153,8.292-12.123
		c1.165-0.808,1.344-1.661,1.232-2.956c-3.187-36.562,25.957-66.266,62.581-63.787C187.328,243.713,192.345,244.954,197.853,246.873
		z M344.984,501.286c-1.844-0.298-3.166-0.563-4.5-0.718c-6.173-0.717-10.092,1.31-12.941,6.813
		c-2.421,4.676-3.008,9.621-2.1,14.822c0.342,1.96,1.204,2.448,3.09,2.412c8.361-0.159,16.685-0.71,24.992-1.696
		c10.041-1.192,17.519-5.653,21.675-15.349c3.791-8.845,7.783-17.593,10.637-26.804c5.754-18.571,11.271-37.194,12.565-56.754
		c0.104-1.566,0.256-3.128,0.443-5.395c3.041,5.481,5.281,10.599,9.418,15.041c0.224-2.879-0.276-5.172-0.631-7.478
		c-1.289-8.383-4.493-16.263-6.429-24.476c-0.292-1.237-0.784-2.59,0.539-3.488c1.268-0.861,2.688-0.518,3.873,0.217
		c1.845,1.146,3.568,2.489,5.375,3.7c0.43,0.288,0.679,1.176,1.551,0.593c-3.388-7.785-10.047-13.666-12.59-21.922
		c6.569,6.191,12.759,12.654,16.646,20.933c0.741,1.579,1.022,3.296,0.777,5.054c-0.384,2.749-1.943,3.604-4.393,2.294
		c-1.675-0.896-3.247-1.983-5.353-3.286c2.046,6.645,3.889,12.72,4.914,18.992c0.644,3.94,1.44,7.909,0.375,11.885
		c-0.907,3.387-3.164,4.086-5.886,1.928c-1.97-1.562-3.556-3.523-5.51-5.783c-0.842,8.603-2.488,16.565-4.227,24.508
		c-0.173,0.789-0.295,1.483,0.724,1.667c5.46,0.984,10.624,2.853,15.728,5.523c0.526-8.793,2.173-17.051,5.051-25.018
		c4.72-13.067,12.249-23.97,25.049-30.272c10.658-5.247,21.325-5.419,31.58,1.335c1.06,0.698,2.173,1.392,3.016,3.191
		c-1.622-0.709-2.671-1.178-3.727-1.629c-11.798-5.039-22.992-4.086-33.543,3.364c-6.937,4.898-11.987,11.375-15.402,19.054
		c-7.417,16.673-8.812,33.916-4.535,51.667c0.538,2.233,1.411,3.205,3.74,3.737c6.993,1.595,13.821,3.811,20.314,6.927
		c1.049,0.503,2.297,0.831,3.053,2.148c-2.173,0.337-4.061,0.063-5.915-0.312c-7.114-1.442-14.204-3.007-21.325-4.413
		c-11.019-2.175-22.068-3.469-33.233-0.888c-1.483,0.343-2.364,0.857-2.867,2.385c-2.214,6.725-4.447,13.454-8.182,19.547
		c-0.22,0.358-0.684,1.006-0.176,1.144c1.647,0.45,3.348,0.856,5.043,0.923c1.208,0.048,0.982-1.321,1.199-2.119
		c1.408-5.195,3.353-10.172,5.997-14.86c1.009-1.79,2.092-3.563,4.418-5.047c-0.472,1.141-0.718,1.778-0.997,2.401
		c-2.602,5.805-4.966,11.696-6.633,17.849c-0.426,1.573-0.35,2.524,1.728,2.586c3.262,0.097,6.512,0.555,9.774,0.739
		c3.116,0.176,6.241,0.571,9.592,0.143c-3.272-5.329-3.159-10.571-0.208-15.648c2.887-4.966,10.499-5.988,13.978-1.966
		c-1.758,0-3.44-0.037-5.12,0.007c-3.898,0.103-6.555,2.022-7.753,5.713c-1.281,3.948-1.147,7.679,2.113,10.82
		c1.13,1.089,2.305,1.506,3.873,1.473c13.082-0.279,26.138-0.966,39.114-2.697c6.656-0.888,13.309-1.932,19.64-4.309
		c4.344-1.631,5.469-3.483,5.109-8.122c-0.161-2.079-0.32-4.197-0.848-6.2c-1.476-5.604-0.242-10.388,3.211-15.05
		c11.751-15.867,15.938-33.759,13.591-53.275c-1.384-11.509-3.434-22.797-9.735-32.872c-4.115-6.58-8.893-12.606-14.25-18.197
		c-12.461-13.007-26.204-24.621-39.644-36.567c-16.646-14.794-33.241-29.648-45.273-48.733c-0.695-1.102-1.26-1.43-2.586-0.727
		c-8.768,4.646-18.001,8.174-27.475,11.083c-1.037,0.319-1.693,0.793-2.112,1.846c-3.662,9.191-9.548,16.852-16.484,23.78
		c-3.083,3.079-6.379,5.955-9.096,9.385c-0.857,1.082-1.889,2.083-2.493,3.941c3.371-1.892,5.619-4.632,9.062-5.47
		c-7.193,7.024-9.897,16.482-13.961,25.195c0.868-6.467,4.078-12.15,6.291-18.565c-0.703,0.357-0.943,0.477-1.182,0.6
		c-0.86,0.445-1.905,1.456-2.673,0.654c-0.911-0.952,0.255-1.998,0.793-2.848c1.954-3.086,4.448-5.732,7.014-8.312
		c4.547-4.571,9.203-9.043,13.102-14.213c3.433-4.552,6.474-9.327,8.581-14.867c-0.608,0-0.975-0.072-1.303,0.01
		c-20.926,5.26-42.109,5.012-63.34,2.722c-4.214-0.455-7.958-0.369-11.58,2.073c-1.779,1.2-3.892,1.962-5.937,2.692
		c-1.666,0.595-2.334,1.527-2.594,3.31c-3.299,22.607-3.27,45.263-1.175,67.958c1.694,18.36,3.672,36.695,4.745,55.108
		c0.793,13.611,1.262,27.229,0.489,40.856c-0.1,1.763,0.351,2.588,2.155,2.979c2.303,0.499,4.452,1.547,6.517,2.706
		c1.967,1.103,3.888,2.27,5.229,4.175c-1.186-0.061-2.218-0.35-3.244-0.658c-8.449-2.529-17.039-3.564-25.834-2.469
		c-3.271,0.407-6.55,1.083-9.322,2.82c-6.78,4.248-11.909,16.779-10.377,24.526c0.183,0.927,0.595,1.43,1.428,1.77
		c4.736,1.934,9.639,3.051,14.823,3.26c-5.947-17.623,5.938-24.132,18.34-24.868c-1.333,1.359-2.909,1.582-4.213,2.229
		c-6.646,3.297-11.065,10.218-10.464,16.515c0.419,4.384,3.048,6.897,7.359,7.031c1.815,0.056,3.631,0.146,5.447,0.152
		c5.701,0.02,11.401,0.007,17.136,0.007c0-0.193,0.045-0.47-0.006-0.727c-2.975-14.83,1.861-24.745,15.556-31.629
		c1.261-0.634,1.619-1.576,1.958-2.702c4.591-15.237,8.187-30.689,10.189-46.498c0.186-1.467-0.085-2.292-1.271-3.187
		c-2.751-2.076-5.451-4.242-8.004-6.557c-7.849-7.119-13.964-15.498-17.805-25.424c-1.168-3.018-0.471-3.81,2.727-3.425
		c-4.728-6.786-6.946-14.421-8.144-22.807c-1.147,1.74-1.648,3.751-3.713,3.293c-1.838-0.409-1.641-2.389-2.129-3.79
		c-0.088-0.253-0.089-0.537-0.136-0.805c-1.01-5.806-0.452-11.565,0.621-17.366c-1.087,0.081-1.629,1.881-2.82,0.842
		c-0.902-0.787-0.823-1.955-0.682-3.059c0.023-0.18,0.053-0.36,0.09-0.538c1.702-8.189,5.317-15.404,11.035-21.525
		c1.142-1.223,2.464-2.243,4.289-2.459c-5.862,6.387-10.011,13.636-12.376,22.261c2.094-1.771,2.62-4.683,5.759-5.387
		c-2.926,9.392-5.032,18.518-3.12,28.541c1.907-2.858,1.915-6.228,4.635-8.647c0.178,1.17,0.309,1.771,0.357,2.378
		c0.901,11.356,3.754,22.004,11.15,31.026c0.338,0.413,0.589,0.918,0.792,1.417c0.247,0.609,0.314,1.267-0.236,1.768
		c-0.467,0.425-1.007,0.192-1.536,0.068c-1.071-0.25-1.917-1.209-3.421-1.163c0.847,1.517,1.486,2.818,2.264,4.03
		c10.889,16.939,26.472,27.862,44.972,35.017c3.334,1.289,3.333,1.224,3.352-2.315c0.108-20.91-2.49-41.485-7.535-61.77
		c-0.684-2.752-1.526-5.521-1.345-8.61c1.088,0.756,1.168,1.821,1.497,2.707c9.236,24.847,13.24,50.528,11.952,76.994
		c-0.595,12.231-2.814,24.18-7.839,35.441c-0.989,2.216-0.388,2.767,1.643,3.557c9.784,3.803,18.433,9.351,25.368,17.352
		c0.65,0.75,1.487,1.456,1.646,2.918c-0.805-0.584-1.321-0.938-1.815-1.32c-8.714-6.72-18.266-11.83-28.835-14.963
		c-10.688-3.169-21.415-4.136-32.041,0.116c-9.071,3.63-13.623,11.616-12.44,21.296c0.766,6.267,2.337,7.949,8.432,8.983
		c1.073,0.182,2.176,0.21,3.235,0.447c1.798,0.403,1.87-0.233,1.475-1.799c-2.19-8.679-0.651-16.932,3.163-24.857
		c0.718-1.492,1.469-3.034,3.407-4.276c-0.443,1.303-0.751,2.134-1.01,2.98c-2.501,8.165-3.961,16.411-2.075,24.949
		c0.528,2.392,1.521,3.945,4.356,3.707c1.794-0.151,3.623,0.159,5.438,0.22c4.299,0.144,4.215,0.141,3.864-4.058
		c-0.608-7.277,0.999-13.956,6.097-19.403C331.469,495.918,339.801,495.875,344.984,501.286z M395.14,143.021
		c1.093,1.937,1.301,4.059,1.395,6.206c0.417,9.579-0.9,19.039-2.016,28.506c-1.53,12.982-4.115,25.832-4.868,38.913
		c-1.044,18.123,1.843,35.478,10.176,51.747c3.205,6.258,6.957,12.163,12.357,16.792c4.807,4.12,6.007,3.797,8.425-1.96
		c0.975-2.321,1.873-4.673,2.991-7.474c0.773,2.075,0.575,3.63,0.676,5.145c0.326,4.903,2.977,6.757,7.728,5.263
		c2.973-0.934,5.631-2.516,8.112-4.377c13.527-10.141,21.921-23.732,26.659-39.772c0.29-0.982,0.589-1.962,1.098-3.652
		c1.92,6.753,1.753,12.885,1.779,19.053c12.848-18.533,16.719-37.908,5.747-58.897c2.356,1.394,4.712,2.789,7.725,4.572
		c-0.903-1.73-1.417-2.77-1.978-3.784c-8.34-15.059-18.344-28.998-28.947-42.503c-4.468-5.691-8.632-11.707-14.368-16.294
		c-0.653-0.522-0.896-0.967-0.165-1.452c1.869-1.241,0.379-1.641-0.521-2.069c-7.508-3.57-15.397-5.872-23.605-7.178
		c-4.737-0.754-9.219-0.042-13.561,1.85c-5.491,2.393-10.974,4.802-16.185,7.779c-0.77,0.44-1.555,0.852-2.333,1.277
		c1.847-3.466,4.537-5.862,7.464-8.028c0.663-0.491,1.788-0.825,0.788-2.045c-3.804-4.641-8.213-8.731-13.926-10.545
		c-2.832-0.899-4.421-2.577-5.975-4.57c-4.248-5.45-8.547-10.843-13.6-15.584c-0.458-0.43-0.956-0.818-1.435-1.226
		c2.506,4.996,5.566,9.552,7.249,14.908C346.06,105.655,333,92.702,315.209,87.51c6.514,7.181,14.88,11.837,20.876,19.225
		c-0.467,0.194-0.63,0.329-0.77,0.309c-0.627-0.09-1.25-0.213-1.87-0.344c-13.343-2.827-26.737-4.142-40.256-1.287
		c-2.627,0.555-5.227,1.254-7.659,2.99c1.982,1.42,3.987,1.349,5.945,1.398c6.446,0.161,12.892-0.558,19.334-0.044
		c2.602,0.207,5.259,0.383,7.781,1.863c-11.788,3.229-21.666,8.757-29.41,18.834c4.267,0.315,7.59-0.904,10.914-1.889
		c7.548-2.236,15.197-3.566,23.094-3.045c2.021,0.133,4.074,0.254,6.338,1.675c-4.875,0.663-9.276,1.151-13.636,1.88
		c-7.452,1.246-14.435,4.257-21.772,5.959c-2.058,0.477-4.118,0.765-6.203,0.349c-2.784-0.556-3.968-2.405-3.402-5.18
		c0.468-2.297,1.755-4.159,3.162-5.958c2.812-3.594,6.358-6.368,10.106-9.218c-2.549-0.329-5.054-0.253-7.553-0.349
		c-2.737-0.105-5.827-0.192-7.806-1.918c-2.171-1.894-3.745-1.039-5.572-0.223c-10.507,4.692-19.665,11.272-27.321,19.88
		c-3.172,3.567-5.975,7.411-8.258,11.846c10.989-2.984,21.016-0.611,23.148,5.528c-1.923-0.349-3.425-1.388-4.997-2.208
		c-5.778-3.015-11.742-3.513-17.935-1.512c-0.871,0.282-1.68,0.521-2.185,1.436c-3.665,6.64-6.003,13.715-7.344,21.282
		c8.725-2.218,14.126-0.345,17.829,6.061c1.906,3.297,2.709,6.9,2.88,10.676c0.491,10.897-2.466,20.834-8.41,29.902
		c-0.926,1.413-1.207,1.996,0.809,2.418c2.298,0.48,4.564,1.225,6.756,2.079c11.241,4.382,21.342,10.462,29.057,19.978
		c0.886,1.093,1.932,2.188,2.072,4.322c-7.552-8.161-16.056-14.139-25.691-18.438c-11.167-4.983-22.714-7.554-34.971-4.799
		c-9.042,2.032-15.055,7.229-17.343,16.415c-0.843,3.385-1.079,6.794-0.938,10.268c0.063,1.539,0.676,2.423,2.022,3.186
		c10.076,5.705,17.638,13.847,23.016,24.065c0.338,0.641,0.595,1.368,1.076,1.881c0.85,0.906,2.159,0.873,3.024,0.388
		c1.088-0.61-0.098-1.415-0.42-1.989c-3.11-5.55-3.415-11.41-1.904-17.423c0.398-1.584,0.168-2.486-1.05-3.695
		c-6.97-6.913-9.203-15.484-7.758-24.973c0.801-5.259,3.367-7.188,8.658-7.057c11.251,0.28,21.408,4.013,30.236,10.86
		c7.62,5.91,8.458,10.964-0.57,17.425c-7.325,5.242-15.672,7.46-24.718,6.594c-1.274-0.122-2.113-0.302-2.456,1.439
		c-1.677,8.496,1.423,16.499,8.857,20.57c14.077,7.708,32.464,7.649,47.068-5.542c-1.501-1.248-3.332-2.096-4.43-3.85
		c4.872,2.153,9.852,4.057,14.422,6.983c-0.674,0.791-1.318,0.638-1.713,0.429c-5.559-2.94-8.85-0.071-11.534,4.428
		c-0.092,0.154-0.234,0.277-0.347,0.419c-6.067,7.583-10.51,16.178-15.894,24.987c7.603-2.706,14.024-6.095,20.047-10.408
		c-1.427,1.825-2.855,3.649-4.433,5.667c0.797,0.133,1.307,0.243,1.822,0.3c21.62,2.367,43.124,2.515,64.363-3.141
		c7.826-2.084,14.491-6.131,20.393-11.542c3.765-3.452,4.994-7.721,3.507-12.629c-1.5-4.949-4.878-7.943-9.932-9.04
		c-0.922-0.2-1.844-0.403-3.117-0.682c1.915-1.429,4.171-1.142,5.749-2.579c-1.116-1.424-2.668-1.864-4.236-2.232
		c-2.597-0.609-5.234-0.421-7.866-0.34c-0.49,0.015-1.158,0.344-1.426-0.344c-0.229-0.588,0.225-1.052,0.617-1.403
		c1.053-0.943,2.156-1.832,3.565-3.016c-6.833-0.09-12.04,2.776-16.899,6.562c2.915-5.321,12.38-9.412,18.082-8.034
		c0.502,0.121,1.182,0.069,1.385,0.664c0.22,0.646-0.41,0.934-0.804,1.272c-0.919,0.788-1.861,1.55-3.25,2.7
		c3.358-0.31,6.049-0.126,8.645,0.765c3.82,1.311,4.214,3.014,1.327,5.589c11.454,4.593,13.619,16.023,4.603,24.46
		c-1.446,1.353-3.046,2.542-4.593,3.822c0.521,0.393,0.93,0.195,1.34,0.011c9.63-4.307,18.997-9.063,27.45-15.48
		c1.654-1.256,1.685-2.151,0.711-3.921c-6.23-11.333-10.198-23.407-11.738-36.295c-1.811-15.159-0.116-30.063,2.549-44.971
		C390.392,176.127,394.699,159.901,395.14,143.021z M177.099,248.404c-2.623,0.074-5.776,0.376-8.915,0.904
		c-26.555,4.468-45.977,29.56-43.595,56.358c0.086,0.971-0.049,2.248,1.292,2.359c4.48,0.371,8.939,1.357,13.381-0.707
		c7.54-3.504,9.203-2.95,13.87,3.78c2.212,3.19,5.686,3.399,8.228,0.448c0.646-0.75,1.176-1.614,1.679-2.472
		c1.186-2.023,2.987-2.774,5.249-2.75c3.154,0.033,5.405,1.556,7.416,3.899c4.234,4.936,13.135,5.105,16.835-0.028
		c2.69-3.732,5.914-4.187,9.743-3.308c6.427,1.475,11.48,0.163,14.47-6.269c0.714-1.536,1.988-2.494,3.94-2.289
		c6.492,0.682,8.851-1.947,7.643-8.406C223.857,265.982,202.408,248.409,177.099,248.404z M199.678,167.014
		c-0.29,1.539-0.549,2.839-0.779,4.144c-0.566,3.216-1.116,6.386-0.468,9.714c1.516,7.776,4.591,14.879,8.69,21.598
		c0.597,0.979,1.029,1.517,2.294,0.807c2.698-1.515,5.595-2.602,8.641-3.203c1.225-0.242,1.596-0.918,1.622-2.073
		c0.102-4.468,0.883-8.851,1.921-13.179c0.327-1.364,0.069-1.854-1.304-2.28c-3.646-1.133-7.224-2.489-11.149-3.868
		c4.026-1.975,7.848-1.41,12.321-0.682c-3.946-3.31-7.2-6.356-9.134-11.328c4.712,2.511,8.38,5.569,12.87,7.204
		c-1.287-2.466-2.774-4.7-4.234-6.953c-1.512-2.334-2.83-4.766-3.986-7.891c2.239,1.172,3.487,2.719,4.947,3.986
		c1.538,1.334,3.039,2.712,4.553,4.067c0.248-0.296,0.332-0.351,0.348-0.422c6.751-29.906,24.655-50.087,53.155-61.037
		c0.417-0.16,0.948-0.255,1.207-0.564c2.991-3.562,7.313-4.119,11.435-5.1c1.741-0.414,3.518-0.675,5.391-1.027
		c-6.725-8.133-34.49-12.241-46.802-7.016c0.514,0.75,1.014,1.476,1.511,2.204c1.68,2.465,1.547,3.084-1.303,4.051
		c-2.226,0.755-4.522,1.348-6.828,1.81c-6.875,1.377-13.921,1.189-20.839,2.17c-5.084,0.721-10.063,1.859-14.664,4.672
		c1.462,1.725,3.403,2.652,4.639,4.597c-8.354,2.636-13.56,7.949-15.601,16.6c3.046-0.593,5.796-1.339,8.748-0.972
		c-8.094,13.377-12.394,27.403-12.275,43.241C196.538,169.045,197.701,167.717,199.678,167.014z M223.746,358.194
		c-0.831,1.395-1.823,2.544-2.998,3.523c-0.768,0.64-1.053,1.041-0.057,1.84c4.128,3.31,11.239,3.517,16.476,0.371
		c4.431-2.662,6.744-8.087,5.716-13.406c-0.784-4.052-1.331-4.514-5.35-4.658c-0.791-0.028-1.847,0.26-2.283-0.491
		c-0.55-0.945,0.47-1.643,0.942-2.346c2.503-3.731,4.524-7.667,5.256-12.148c0.713-4.367,0.109-8.499-2.417-12.245
		c-0.708-1.05-1.292-1.928-2.741-0.763c-1.32,1.062-3.043,1.09-4.693,1.047c-4.634-0.121-4.634-0.128-6.35,4.015
		c-1.875,4.527-6.771,6.468-11.267,4.479c-1.693-0.749-3.2-1.796-4.316-3.243c-2.769-3.592-6.891-1.93-8.484,1.509
		c-0.809,1.746-1.085,3.644-1.468,5.51c-0.692,3.37-0.999,6.84-2.599,9.973c-3.001,5.878-8.483,6.278-12.095,0.801
		c-1.142-1.731-1.922-3.698-2.936-5.519c-0.877-1.575-1.994-1.525-2.891-0.077c-0.759,1.225-1.299,2.592-1.884,3.92
		c-0.931,2.116-2.203,3.967-4.054,5.377c-3.082,2.347-6.037,2.103-8.736-0.701c-2.226-2.313-2.921-5.2-2.891-8.267
		c0.037-3.841-1.905-6.294-5.147-7.962c-4.254-2.188-8.824-2.758-13.499-2.383c-6.583,0.529-9.305,2.975-10.823,9.432
		c-0.673,2.864-1.54,5.648-3.754,7.72c-4.349,4.07-5.281,9.349-5.057,14.871c0.206,5.092,3.161,8.194,7.984,9.883
		c3.781,1.324,11.741-0.811,13.526-3.733c-2.243-1.098-4.772-1.69-6.998-3.586c1.726-0.59,2.96-0.293,4.193-0.105
		c6.153,0.938,11.864,3.308,17.644,5.456c7.408,2.753,14.612,2.092,21.607-1.384c0.609-0.303,2.44-0.59,0.745-1.95
		c-0.557-0.447-1.352-0.774-0.889-1.699c0.45-0.899,1.331-0.862,2.148-0.777c2.211,0.232,4.176,1.238,6.123,2.181
		c7.682,3.722,15.191,4.343,22.815-0.355c2.667-1.644,5.808-2.527,8.759-3.692C221.798,358.301,222.623,357.817,223.746,358.194z
		 M231.699,299.584c-2.644,2.541-5.385,4.482-9.029,4.194c-1.585-0.126-2.433,0.443-3.218,1.8c-2.56,4.424-6.555,6.638-11.598,7.031
		c-2.378,0.185-4.721-0.198-7.031-0.663c-1.89-0.381-3.133,0.124-4.461,1.618c-6.709,7.546-18.01,7.419-24.66-0.136
		c-2.612-2.967-3.471-2.936-5.758,0.207c-4.989,6.858-13.259,6.495-17.634-0.775c-2.019-3.356-2.634-3.727-5.957-1.733
		c-4.597,2.759-9.48,3.407-14.418,2.014c-4.703-1.327-7.407,0.863-9.816,4.206c-1.825,2.532-3.132,5.332-3.666,8.425
		c-0.862,4.994-0.033,9.619,3.434,13.49c2.963,3.308,6.22,2.892,8.247-1.108c0.807-1.592,1.174-3.421,1.648-5.168
		c1.569-5.789,5.264-9.373,11.051-10.863c4.41-1.136,8.838-1.007,13.225-0.034c9.658,2.142,13.21,6.016,14.728,15.802
		c0.056,0.359,0.11,0.72,0.192,1.073c0.289,1.244,0.503,2.715,2.01,2.92c1.472,0.201,2.214-1.1,2.825-2.206
		c1.139-2.063,2.01-4.289,3.278-6.264c3.054-4.758,8.278-4.556,11.09,0.359c0.81,1.415,1.422,2.942,2.205,4.374
		c0.599,1.096,1.142,2.457,2.723,2.277c1.527-0.174,1.93-1.565,2.281-2.758c0.587-1.998,1.024-4.042,1.481-6.076
		c0.697-3.097,1.189-6.259,2.762-9.082c3.498-6.281,9.792-7.231,14.937-2.272c0.588,0.567,1.119,1.197,1.735,1.732
		c2.713,2.355,5.21,1.625,6.287-1.816c1.319-4.217,3.493-5.882,7.946-6.046c0.997-0.037,2.018-0.114,2.991,0.046
		c1.805,0.297,2.586-0.587,3.212-2.133C236.718,307.146,234.285,303.476,231.699,299.584z M166.287,391.943
		c-3.917,0.696-7.182,0.421-10.837-0.568c3.477,4.322,3.477,4.323-0.492,7.91c-0.471,0.426-0.904,0.913-1.426,1.262
		c-1.756,1.175-1.727,2.405-0.213,3.885c2.149-1.97,4.242-3.843,6.28-5.775c1.058-1.003,1.867-1.313,3.19-0.167
		c4.045,3.508,8.2,6.893,12.398,10.218c1.368,1.083,1.081,1.734-0.033,2.71c-2.389,2.094-4.708,4.269-7.032,6.436
		c-1.327,1.238-2.406,2.954-3.958,3.68c-1.804,0.844-2.783-1.888-5.339-2.098c2.466,2.56,1.435,6.896,5.82,7.541
		c0.31,0.046,0.576,0.422,0.854,0.655c3.822,3.212,7.608,6.469,11.485,9.614c1.223,0.993,1.364,1.681,0.15,2.758
		c-1.833,1.625-3.502,3.437-5.352,5.04c-1.089,0.943-1.083,1.983-0.291,2.812c0.886,0.927,1.357-0.389,1.861-0.814
		c1.942-1.638,3.832-3.343,5.663-5.105c1.122-1.079,2.002-1.138,3.252-0.093c3.969,3.318,7.998,6.568,12.094,9.727
		c1.281,0.988,1.025,1.6,0.056,2.524c-3.021,2.883-5.992,5.82-8.995,8.723c-2.996,2.897-3,2.886-6.51,0.411
		c-0.244-0.172-0.554-0.543-1.118,0.187c2.209,2.54,2.146,6.347,6.085,8.361c4.195,2.144,7.565,5.878,11.378,8.81
		c1.322,1.016,1.212,1.698,0.089,2.717c-1.815,1.646-3.495,3.442-5.319,5.076c-1.089,0.975-0.526,1.91,0.032,2.634
		c0.918,1.191,1.39-0.228,1.848-0.628c1.911-1.673,3.768-3.416,5.543-5.234c1.083-1.11,1.896-1.413,3.092-0.097
		c0.939,1.032,2.187,1.783,3.424,2.759c0.867-1.928,1.168-3.314-0.897-4.293c-2.269-1.076-2.024-2.363-0.124-3.702
		c2.628-1.852,4.561-4.126,3.801-8.087c-2.393,2.158-4.526,4.585-6.632,7.036c-0.731,0.85-1.275,1.256-2.401,0.314
		c-3.898-3.261-7.885-6.419-11.901-9.534c-1.541-1.196-1.191-2.089,0.016-3.241c3.545-3.385,7.071-6.794,10.515-10.283
		c1.322-1.339,2.211-1.244,3.597,0.005c2.842,2.563,5.897,4.89,8.911,7.352c1.186-2.049,0.643-3.222-0.813-4.298
		c-2.262-1.671-4.42-3.482-6.64-5.21c-0.832-0.647-1.815-1.356-0.594-2.331c4.592-3.665,7.47-9.3,13.273-11.56
		c0.446-0.174,0.407-0.552,0.467-0.885c0.346-1.931,0.676-3.864,1.026-5.883c-1.534,0.132-2.037,2.736-4.05,1.049
		c-3.754-3.147-7.673-6.102-11.592-9.044c-1.473-1.105-1.523-1.879-0.143-3.145c3.813-3.497,7.567-7.063,11.218-10.729
		c1.085-1.089,1.717-0.833,2.705-0.042c1.747,1.399,3.368,2.988,5.654,4.16c-0.115-1.429,1.296-2.638-0.5-3.81
		c-1.493-0.974-3.913-1.752-3.927-3.443c-0.013-1.588,2.34-2.558,3.556-3.894c0.671-0.738,1.338-1.509,2.128-2.104
		c1.903-1.432,2.164-3.444,2.508-6.188c-3.568,3.374-6.724,6.231-9.717,9.251c-1.151,1.161-1.878,1.209-3.138,0.183
		c-3.167-2.577-6.474-4.981-9.707-7.478c-3.733-2.882-3.725-2.893-1.015-6.844c-3.426,0.776-6.525,1.878-9.804,0.877
		c2.625,3.192,2.621,3.189-0.416,6.061c-3.034,2.87-6.152,5.659-9.044,8.666c-1.226,1.275-1.983,1.049-3.119,0.092
		c-3.539-2.984-7.134-5.904-10.698-8.858C163.399,395.439,163.404,395.433,166.287,391.943z M170.482,381.627
		c15.267-0.093,26.486-0.897,37.621-2.697c6.093-0.985,12.111-2.333,18.12-3.75c1.941-0.458,2.101-1.827,2.301-3.198
		c0.253-1.735-1.301-1.087-2.081-1.234c-3.174-0.597-6.235-1.606-8.702-3.646c-1.889-1.563-3.31-1.394-5.225-0.217
		c-5.894,3.624-12.179,4.536-18.788,2.173c-1.877-0.671-3.745-1.392-5.544-2.245c-0.957-0.454-1.584-0.435-2.417,0.263
		c-4.6,3.855-10.121,5.072-15.931,5.457c-6.488,0.43-12.313-1.848-18.065-4.385c-1.483-0.654-2.628-0.688-3.937,0.444
		c-2.005,1.734-4.439,2.8-6.883,3.799c-0.553,0.226-1.293,0.202-1.386,1.055c-0.207,1.894,2.815,5.718,4.786,6.002
		C154.341,380.885,164.383,381.605,170.482,381.627z M232.184,282.925c0.837,3.077,1.62,6.283,1.592,9.545
		c-0.015,1.723,0.523,2.826,1.647,4.009c3.82,4.022,5.581,8.844,5.13,14.413c-0.065,0.808-0.274,1.536,0.483,2.235
		c2.754,2.546,4.288,5.851,5.267,9.374c0.493,1.773,1.195,1.302,2.243,0.696c3.038-1.755,5.437-4.232,7.707-6.836
		c5.156-5.914,9.133-12.641,13.176-19.319c1.893-3.126,3.82-6.231,6.02-9.817c-7.066,2.149-13.733,2.427-20.417,1.319
		c-2.355-0.39-4.209,0.22-6.121,1.408c-2.879,1.79-5.407,4.038-8.179,6.003c2.128-3.274,5.16-5.656,8.191-8.271
		c-3.056-1.055-6.073-1.756-8.429-3.609C237.87,282.012,235.22,281.78,232.184,282.925z M308.631,485.433
		c5.732-0.742,11.055-0.85,16.391-0.171c5.914,0.753,5.832,0.656,8.213-4.952c1.102-2.594,1.076-4.774-0.109-7.449
		c-3.752-8.468-6.783-17.231-8.641-26.325c-0.542-2.654-1.626-4.285-4.094-5.417c-1.652-0.758-1.918-0.388-2.151,1.137
		C316.03,456.714,312.795,470.949,308.631,485.433z M504.984,348.027c-0.058,0.168-0.159,0.334-0.169,0.505
		c-0.918,16.927-6.064,32.175-17.799,44.795c-0.499,0.537-0.691,0.937-0.304,1.639c2.997,5.435,5.593,11.06,7.834,17.568
		C506.157,391.883,510.991,370.852,504.984,348.027z M388.619,487.581c8.968-1.389,17.45-1.158,25.901,0.215
		c1.614,0.262,1.631-0.267,1.299-1.557c-1.245-4.843-1.949-9.783-2.203-14.771c-0.074-1.456-0.641-2.302-1.846-3.011
		c-4.52-2.659-9.462-4.062-14.541-5.13c-1.153-0.243-1.63,0.03-1.91,1.169C393.436,472.147,391.234,479.709,388.619,487.581z
		 M144.502,384.211c0.397,3.741,2.36,5.265,6.081,5.311c4.069,0.051,8.123,0.812,12.196,1.07c19.777,1.249,39.353-0.22,58.73-4.417
		c4.69-1.016,5.205-1.55,4.938-6.715C199.447,386.786,172.092,388.072,144.502,384.211z M201.741,239.043
		c2.632-16.296,13.22-21.983,27.984-22.804c-4.86-0.77-7.482-3.314-8.27-8.056c-0.562-3.386-0.873-3.385-4.159-2.327
		C201.989,210.788,196.502,223.594,201.741,239.043z M208.492,466.353c0.222-0.925-0.345-1.476-1.004-2.018
		c-2.799-2.298-5.627-4.563-8.35-6.948c-1.077-0.943-1.662-0.502-2.457,0.289c-3.014,3.004-6.034,6.005-9.138,8.914
		c-1.046,0.98-1.179,1.501,0.058,2.454c3.37,2.595,6.666,5.291,9.91,8.042c1.045,0.886,1.626,0.609,2.454-0.233
		c2.286-2.323,4.613-4.609,7.003-6.825C208.071,469.005,208.376,467.763,208.492,466.353z M180.803,442.632
		c-0.35,0.19-0.703,0.304-0.956,0.53c-2.292,2.051-4.564,4.123-6.846,6.184c-0.451,0.408-0.632,0.868-0.34,1.441
		c2.251,4.414,3.234,9.634,8.274,12.251c1.157,0.601,1.661,0.538,2.468-0.263c2.954-2.931,5.899-5.875,8.952-8.7
		c1.21-1.12,0.757-1.646-0.27-2.452c-3.343-2.625-6.624-5.33-9.933-7.999C181.738,443.29,181.294,442.991,180.803,442.632z
		 M163.362,420.066c0.408-0.228,0.676-0.32,0.869-0.495c3.141-2.866,6.263-5.752,9.41-8.611c0.83-0.754,0.357-1.202-0.265-1.711
		c-3.709-3.037-7.431-6.059-11.095-9.149c-0.876-0.739-1.402-0.666-2.275,0.044c-6.435,5.235-6.451,5.214-3.318,12.93
		c0.238,0.586,0.357,1.236,0.677,1.77C158.81,417.261,161.4,418.321,163.362,420.066z M223.803,393.373
		c-0.058-0.312-0.064-0.493-0.126-0.653c-0.511-1.317-5.758-4.186-7.25-3.946c-3.658,0.589-7.297,1.346-10.976,1.742
		c-2.413,0.26-4.175,1.231-5.737,3.033c-0.891,1.028-0.906,1.485,0.188,2.268c3.529,2.526,7.037,5.086,10.465,7.746
		c1.17,0.908,1.87,0.844,2.921-0.182c3.106-3.031,6.334-5.935,9.506-8.899C223.178,394.124,223.504,393.704,223.803,393.373z
		 M218.525,418.535c0.139-1.41-5.192-6.369-6.314-6.052c-0.32,0.091-0.59,0.408-0.85,0.655c-3.287,3.125-6.554,6.27-9.86,9.374
		c-0.841,0.789-0.984,1.328,0.053,2.114c3.396,2.574,6.735,5.224,10.085,7.858c0.616,0.484,1.181,0.867,1.875,0.128
		c1.114-1.187,2.475-2.24,2.86-3.9C217.17,425.27,217.843,421.798,218.525,418.535z M177.596,392.607
		c-0.001-0.042-0.001-0.084-0.002-0.126c-2.717,0-5.437,0.072-8.151-0.025c-1.781-0.064-2.695,1.23-3.389,2.338
		c-0.797,1.273,0.906,1.702,1.611,2.305c3.097,2.648,6.325,5.142,9.443,7.766c1.162,0.978,1.923,1.143,3.117-0.111
		c2.37-2.49,4.962-4.77,7.49-7.107c2.851-2.635,2.812-2.968-0.444-5.026c-0.701-0.443-1.369-0.367-2.073-0.341
		C182.663,392.374,180.13,392.495,177.596,392.607z M199.083,511.521c0.185,0.004,0.369,0.009,0.554,0.013
		c1.145-5.746,1.999-11.571,3.538-17.208c1.017-3.727-0.063-5.893-3.11-7.758c-0.997-0.61-1.506-0.615-2.269,0.146
		c-1.986,1.979-3.991,3.941-6.045,5.848c-0.684,0.635-0.568,1.157-0.238,1.894C194.057,500.135,196.564,505.831,199.083,511.521z
		 M225.819,189.768c3.107-3.917,6.268-6.716,10.606-7.761c4.473-1.077,8.294,0.428,12.006,3.579
		c-0.359-3.161-1.179-5.634-2.55-7.902c-4.112-6.8-11.897-6.864-16.094-0.083C227.621,181.101,226.592,185.027,225.819,189.768z
		 M336.842,467.681c1.641-6.015,2.139-11.604,2.663-17.191c0.068-0.723-0.085-1.273-0.802-1.516
		c-2.859-0.967-5.724-1.914-9.05-3.023C331.43,453.565,333.927,460.395,336.842,467.681z M210.088,458.833
		c1.28-5.885,2.818-11.266,3.497-16.812c-0.221-0.1-0.441-0.201-0.662-0.301c-3.5,3.329-7.001,6.658-10.501,9.986
		c-0.776,0.738-0.059,1.068,0.41,1.438C205.095,454.929,207.367,456.702,210.088,458.833z M176.025,438.592
		c-3.48-3.018-7.096-6.159-10.721-9.289c-0.4-0.345-0.872-0.874-1.414-0.523c-0.752,0.486-0.178,1.159,0.046,1.68
		c1.819,4.239,3.695,8.454,5.507,12.696c0.494,1.158,1.019,1.354,1.908,0.394C172.882,441.895,174.443,440.266,176.025,438.592z
		 M182.436,472.293c-0.049,0.74-0.124,0.942-0.063,1.086c1.231,2.906,2.465,5.811,3.725,8.705c2.768,6.359,2.762,6.345,7.474,1.07
		c0.628-0.703,1.045-1.171,0.078-1.931C189.973,478.335,186.331,475.401,182.436,472.293z M255.584,237.464
		c-2.628-3.128-13.321-7.503-17.449-7.14C239.56,235.255,249.016,239.125,255.584,237.464z M239.628,491.548
		c-2.489-0.516-3.975,0.365-5.099,1.954c-3.037,4.295-4.291,9.129-4.059,14.339c0.052,1.177,0.186,2.476,1.546,3.633
		C231.835,503.716,235.169,497.576,239.628,491.548z M151.353,400.687c1.767-1.606,3.3-2.989,4.82-4.388
		c0.389-0.358,0.781-0.685,0.461-1.367c-0.937-2.002-6.038-4.511-8.384-4.154c-0.929,0.141-1.043,0.561-0.729,1.276
		C148.749,394.846,149.994,397.63,151.353,400.687z M238.422,193.828c1.406-0.113,2.373-0.781,2.315-2.354
		c-0.064-1.75-1.151-2.635-2.809-2.634c-1.576,0.001-2.64,0.937-2.556,2.529C235.463,193.093,236.713,193.799,238.422,193.828z
		 M221.412,403.477c-1.451,1.374-2.614,2.49-3.793,3.588c-0.675,0.629-1.096,1.232-0.067,1.917c0.808,0.537,1.492,1.7,2.454,1.427
		c0.832-0.235,0.703-1.527,0.889-2.357C221.204,406.671,221.829,405.31,221.412,403.477z M220.441,387.972
		c1.157,1.37,2.324,2.23,3.688,3.022c0.704-1.222,0.848-2.401,1.005-3.678C223.434,387.107,222.117,387.612,220.441,387.972z"/>
	<path d="M360.632,219.757c-5.13,1.155-9.456,2.431-14.134,2.691c2.42,1.214,5.036,2.012,7.256,3.55
		c2.209,1.53,4.539,2.944,6.229,5.701c-5.04-0.957-9.371-3.262-14.438-3.165c2.948,2.254,6.234,4.156,7.674,8.137
		c-2.717-0.773-5.144-1.406-7.53-2.167c-1.179-0.376-1.787-0.156-2.287,1.039c-4.019,9.589-11.339,15.568-20.61,19.931
		c-2.563,1.206-3.802,0.567-5.528-0.389c-8.687-4.811-17.714-8.796-27.344-11.3c-1.877-0.488-2.535-1.366-2.614-3.374
		c-0.34-8.705,0.183-17.276,3.467-25.448c4.381-10.9,11.831-18.566,23.744-20.611c13.657-2.345,26.255,5.977,30.181,19.623
		c0.65,2.26,1.586,3.164,3.95,3.396C352.405,217.737,356.256,217.881,360.632,219.757z M302.206,206.133
		c12.622-2.356,21.084,2.483,23.896,13.457c1.989,7.76,0.358,14.912-4.199,21.45c-2.202,3.159-5.148,5.511-8.591,7.72
		c1.865,1.172,2.954,2.843,5.438,2.153c14.437-4.011,23.75-17.794,21.514-32.673c-1.336-8.89-6.499-15.14-15.101-17.954
		C316.619,197.492,309.255,200.355,302.206,206.133z M313.363,220.948c1.986-0.214,3.304-1.209,3.267-3.259
		c-0.036-2.041-1.436-3.157-3.348-3.173c-1.983-0.017-3.238,1.255-3.239,3.25C310.043,219.821,311.425,220.757,313.363,220.948z"/>
	<path d="M356.454,199.018c-6.547-17.963-16.49-31.163-36.959-31.869c7.931-3.049,18.528-0.484,25.731,5.89
		C352.089,179.112,358.021,192.05,356.454,199.018z"/>
	<path d="M305.574,132.896c-5.177,3.677-10.655,6.997-14.135,12.644c6.471-4.552,13.129-8.613,21.301-9.566
		c0.015,1.305-0.824,1.254-1.319,1.409c-7.923,2.471-14.808,6.698-20.945,12.227c-0.831,0.749-1.692,1.967-3.01,0.974
		c-1.258-0.949-0.925-2.399-0.346-3.486C291.11,139.597,297.477,135.117,305.574,132.896z"/>
	<path d="M251.712,216.889c8.305,1.768,15.701,5.217,21.447,11.71C266.185,224.372,258.869,220.778,251.712,216.889z"/>
	<path d="M176.094,260.193c8.945,0.329,17.229,3.082,24.377,8.887c2.72,2.21,2.471,5.722-0.371,7.532
		c-1.64,1.045-3.233,0.93-4.808-0.194c-6.645-4.74-14.157-6.712-22.215-6.922c-3.072-0.08-4.636-1.357-4.842-3.959
		c-0.224-2.821,1.41-4.766,4.394-5.146C173.705,260.255,174.799,260.263,176.094,260.193z M176.038,261.825
		c-0.634,0-1.269,0.011-1.903-0.002c-2.276-0.045-4.306,0.34-4.378,3.199c-0.074,2.967,2.088,2.815,4.164,2.886
		c7.765,0.265,15.046,2.215,21.474,6.707c1.864,1.303,3.512,1.689,4.92-0.259c1.503-2.079,0.159-3.512-1.51-4.732
		C192.022,264.665,184.42,262.104,176.038,261.825z"/>
	<path d="M141.976,291.314c-3.235,0.011-5.258-2.196-4.901-4.975c0.386-3.011,1.618-5.757,2.995-8.421
		c2.359-4.563,5.541-8.52,9.286-12.004c2.133-1.984,4.855-2.041,6.629-0.361c1.863,1.765,1.98,4.727,0.043,6.854
		c-4.259,4.679-7.606,9.928-10.239,15.66C144.948,289.898,143.72,291.272,141.976,291.314z M155.891,268.855
		c-0.102-1.104-0.533-2.147-1.749-2.708c-1.339-0.617-2.531-0.2-3.508,0.698c-5.568,5.12-9.893,11.058-11.843,18.496
		c-0.472,1.8-0.426,3.544,1.733,4.226c2.062,0.651,3.218-0.511,3.98-2.296c2.442-5.723,5.905-10.788,10.025-15.418
		C155.273,271.019,155.905,270.169,155.891,268.855z"/>
	<path d="M194.701,397.023c0.53,0.37,0.983,0.665,1.413,0.99c4.12,3.112,8.221,6.248,12.363,9.331
		c1.09,0.811,1.433,1.458,0.273,2.54c-3.909,3.646-7.786,7.329-11.607,11.067c-0.97,0.949-1.632,0.723-2.533-0.007
		c-4.152-3.366-8.331-6.697-12.517-10.021c-0.739-0.586-1.188-1.114-0.312-1.942c4.014-3.799,8.014-7.612,12.03-11.409
		C194.052,397.344,194.385,397.214,194.701,397.023z M195.799,419.832c0.301-0.181,0.642-0.315,0.891-0.547
		c3.453-3.218,6.887-6.457,10.343-9.673c0.841-0.782,0.31-1.213-0.32-1.692c-3.686-2.798-7.384-5.582-11.036-8.425
		c-0.838-0.652-1.379-0.508-2.077,0.168c-3.195,3.095-6.405,6.174-9.654,9.211c-0.869,0.812-0.623,1.195,0.207,1.837
		c3.447,2.663,6.831,5.408,10.244,8.116C194.821,419.163,195.277,419.459,195.799,419.832z"/>
	<path d="M197.696,450.568c-0.479-0.32-0.949-0.583-1.362-0.916c-4.09-3.308-8.153-6.651-12.266-9.93
		c-1.105-0.881-1.205-1.43-0.071-2.469c3.677-3.371,7.245-6.862,10.818-10.344c0.926-0.903,1.629-1.085,2.748-0.17
		c3.931,3.216,7.945,6.331,11.956,9.447c0.896,0.696,1.547,1.268,0.463,2.342c-3.802,3.768-7.575,7.565-11.366,11.344
		C198.368,450.118,198.055,450.299,197.696,450.568z M197.625,448.607c0.315-0.222,0.627-0.383,0.866-0.618
		c3.223-3.172,6.411-6.381,9.666-9.52c0.996-0.961,0.253-1.307-0.398-1.81c-3.435-2.654-6.888-5.286-10.273-8.001
		c-0.938-0.752-1.548-0.879-2.473,0.037c-2.957,2.927-5.979,5.788-9.026,8.621c-0.899,0.836-1.205,1.36-0.006,2.263
		c3.539,2.666,6.987,5.451,10.474,8.185C196.804,448.039,197.176,448.286,197.625,448.607z"/>
	<path d="M193.874,424.059c-0.378,0.421-0.652,0.775-0.975,1.077c-3.706,3.473-7.444,6.912-11.113,10.422
		c-0.928,0.888-1.541,0.836-2.496,0.018c-3.926-3.362-7.883-6.69-11.919-9.918c-1.463-1.17-1.365-1.943-0.061-3.14
		c3.473-3.189,6.861-6.473,10.249-9.753c0.83-0.803,1.466-1.089,2.512-0.218c4.182,3.48,8.441,6.867,12.659,10.303
		C193.132,423.177,193.451,423.606,193.874,424.059z M178.907,413.608c-0.428,0.362-0.78,0.631-1.099,0.934
		c-2.885,2.743-5.712,5.552-8.671,8.213c-1.276,1.148-0.95,1.73,0.208,2.653c3.395,2.706,6.728,5.494,10.03,8.314
		c0.824,0.704,1.355,0.911,2.238,0.059c2.928-2.829,5.902-5.613,8.932-8.333c1.207-1.084,1.082-1.722-0.166-2.683
		c-3.44-2.648-6.781-5.426-10.163-8.15C179.804,414.284,179.379,413.97,178.907,413.608z"/>
</g>
<rect x="27" y="27" transform="matrix(-1.836970e-16 1 -1 -1.836970e-16 612 5.684342e-14)" style="fill:none;stroke:#231F20;stroke-width:4;stroke-miterlimit:10;" width="558" height="558"/>
</svg>
