<?xml version="1.0" encoding="utf-8"?>
<!-- Generator: Adobe Illustrator 27.5.0, SVG Export Plug-In . SVG Version: 6.00 Build 0)  -->
<svg version="1.1" xmlns="http://www.w3.org/2000/svg" xmlns:xlink="http://www.w3.org/1999/xlink" x="0px" y="0px"
	 viewBox="0 0 500 500" style="enable-background:new 0 0 500 500;" xml:space="preserve">
<g id="BACKGROUND">
	<rect style="fill:#FFFFFF;" width="500" height="500"/>
</g>
<g id="OBJECTS">
	<g>
		<path style="fill:#B5B5B5;" d="M498.118,353.246H1.882c-2.507,0-2.511,3.771,0,3.771h496.236
			C500.625,357.017,500.629,353.246,498.118,353.246z"/>
		<path style="fill:#B5B5B5;" d="M359.616,416.12v8.531c0,2.426,3.896,2.43,3.896,0v-8.531
			C363.512,413.694,359.616,413.69,359.616,416.12z"/>
		<path style="fill:#B5B5B5;" d="M373.694,416.12c-0.11-2.417-4.006-2.43-3.896,0c0.113,2.496-0.117,4.918-0.735,7.345
			c-0.6,2.356,3.156,3.361,3.757,1.002C373.517,421.728,373.822,418.938,373.694,416.12z"/>
		<path style="fill:#B5B5B5;" d="M419.796,386.038c-0.85,3.73-1.701,7.46-2.551,11.19c-0.539,2.365,3.216,3.375,3.757,1.002
			c0.85-3.73,1.701-7.46,2.551-11.19C424.092,384.676,420.337,383.666,419.796,386.038z"/>
		<path style="fill:#B5B5B5;" d="M138.509,423.469c-0.698,3.437-0.918,6.873-0.573,10.363c0.237,2.394,4.135,2.418,3.896,0
			c-0.311-3.147-0.197-6.257,0.434-9.361C142.747,422.101,138.993,421.087,138.509,423.469z"/>
		<path style="fill:#B5B5B5;" d="M147.393,422.684c-0.399,3.287-0.797,6.574-1.196,9.861c-0.292,2.405,3.607,2.385,3.896,0
			c0.399-3.287,0.797-6.574,1.196-9.861C151.581,420.279,147.683,420.299,147.393,422.684z"/>
		<path style="fill:#B5B5B5;" d="M71.785,388.578c-0.364-2.636-0.729-5.272-1.093-7.909c-0.141-1.017-0.795-1.874-1.948-1.885
			c-0.945-0.01-2.088,0.876-1.948,1.885c0.364,2.636,0.728,5.272,1.093,7.909c0.14,1.017,0.795,1.874,1.948,1.885
			C70.782,390.473,71.924,389.588,71.785,388.578z"/>
		<path style="fill:#B5B5B5;" d="M46.026,453.034l-1.858-11.183c-0.397-2.389-4.152-1.375-3.757,1.002
			c0.619,3.728,1.238,7.455,1.858,11.183C42.666,456.426,46.421,455.412,46.026,453.034z"/>
		<path style="fill:#B5B5B5;" d="M52.023,441.254c-0.976,4.254-1.058,8.5-0.299,12.791c0.422,2.387,4.177,1.375,3.757-1.002
			c-0.636-3.599-0.518-7.225,0.299-10.786C56.323,439.892,52.568,438.883,52.023,441.254z"/>
		<path style="fill:#B5B5B5;" d="M129.235,462.236c-0.736,2.734-1.032,5.529-0.842,8.349c0.162,2.409,4.059,2.427,3.896,0
			c-0.168-2.503,0.049-4.92,0.703-7.347C133.624,460.889,129.867,459.886,129.235,462.236z"/>
		<path style="fill:#B5B5B5;" d="M380.88,459.623c-0.548,2.385-1.096,4.771-1.645,7.156c-0.543,2.364,3.212,3.374,3.757,1.002
			c0.548-2.385,1.096-4.771,1.645-7.156C385.18,458.261,381.425,457.251,380.88,459.623z"/>
		<path style="fill:#B5B5B5;" d="M443.832,424.16c-0.767,4.36-1.535,8.72-2.302,13.08c-0.418,2.373,3.336,3.393,3.757,1.002
			c0.767-4.36,1.535-8.72,2.302-13.08C448.006,422.789,444.252,421.769,443.832,424.16z"/>
		<path style="fill:#B5B5B5;" d="M454.113,420.241c-0.848,4.937-1.429,9.906-1.716,14.904c-0.139,2.424,3.757,2.417,3.896,0
			c0.268-4.662,0.785-9.295,1.576-13.901C458.278,418.87,454.524,417.849,454.113,420.241z"/>
	</g>
	<g>
		<path style="fill:#B5B5B5;" d="M204.627,92.709c-0.686-4.051-2.728-7.794-5.981-10.242c2.878-4.039,2.588-10.14-1.208-13.573
			c-2.251-2.035-5.287-2.769-8.1-1.501c-2.135,0.962-3.705,2.713-5.433,4.246c-2.442-5.116-6.772-9.131-12.033-11.356
			c-2.93-1.239-6.106-1.919-9.295-1.859c-1.698,0.032-3.417,0.274-5.055,0.721c-0.854,0.233-1.688,0.535-2.497,0.894
			c-0.509,0.226-1.007,0.468-1.488,0.751c-0.004,0.002-0.01,0.005-0.014,0.008c-4.371-11.363-16.122-19.234-28.362-19.001
			c-14.408,0.274-27.095,10.385-31.469,23.94c-2.124,6.581-2.376,13.704-0.905,20.447c-7.11-3.964-16.041-4.457-22.686,0.941
			c-5.227,4.246-7.038,11.868-4.122,17.695c-5.312,0.08-10.162,4.556-9.464,10.517c0.806,6.877,8.188,10.187,13.861,7.34
			c1.874,7.165,7.194,13.381,13.961,16.394c7.576,3.372,16.325,2.428,23.199-2.169c3.334-2.23,6.137-5.198,8.045-8.712
			c6.916,6.399,15.817,10.786,25.309,11.313c8.925,0.496,17.876-2.956,23.994-9.518c2.823-3.028,4.957-6.649,6.092-10.616
			c7.642,3.548,16.889,1.746,23.618-3.164C202.021,110.783,206.185,101.905,204.627,92.709z M200.529,103.407
			c-2.555,7.393-9.7,12.779-17.246,14.241c-4.329,0.839-8.798,0.18-12.574-2.124c-0.848-0.518-2.199-0.059-2.401,0.977
			c-1.935,9.921-10.54,17.293-20.241,19.269c-11.223,2.286-22.844-2.828-30.845-10.526c-0.27-0.26-0.565-0.398-0.859-0.445
			c-0.606-1.008-2.142-1.405-2.721-0.065c-3.682,8.511-12.98,14.185-22.289,13.006c-9.309-1.179-16.888-9.062-18.297-18.214
			c-0.199-1.293-1.92-1.467-2.732-0.721c-3.786,3.475-10.063,1.263-10.585-3.903c-0.526-5.199,5.167-8.518,9.578-5.946
			c1.562,0.911,3.412-1.317,1.981-2.567c-5.474-4.78-4.052-13.263,1.552-17.272c6.602-4.724,15.087-2.811,21.184,1.771
			c0.244,0.183,0.487,0.278,0.719,0.306c1.134,0.497,2.776-0.358,2.281-1.858c-4.153-12.588-1.45-27.292,8.595-36.361
			c9.315-8.409,23.267-10.576,34.103-3.829c5.094,3.171,9.066,7.957,11.023,13.604c-0.011,0.439,0.126,0.88,0.391,1.237
			c0.078,0.272,0.159,0.544,0.228,0.82c0.495,1.978,3.475,1.225,3.188-0.687c0.785-0.452,1.543-1.026,2.241-1.302
			c3.285-1.3,6.988-1.435,10.409-0.637c6.477,1.51,12.219,6.171,14.448,12.514c0.32,0.909,1.481,1.631,2.401,0.977
			c2.937-2.089,6.625-7.724,10.655-4.797c3.223,2.341,3.447,7.491,0.78,10.309c-0.019,0.02-0.035,0.041-0.053,0.062
			c-1.081,0.492-1.578,2.171-0.233,2.893C202.019,87.795,202.828,96.756,200.529,103.407z"/>
		<path style="fill:#B5B5B5;" d="M152.841,241.527c-0.849-4.725-4.814-8.76-9.598-9.629c-5.32-0.966-10.594,1.728-13.654,6.007
			c-3.102-11.079-11.641-20.818-22.956-23.834c-11.924-3.179-25.001,1.251-31.793,11.695c-3.479,5.349-5.174,11.648-5.737,17.968
			c-10.954-2.716-23.354,2.62-28.099,13.069c-4.917,10.827-1.586,23.942,8.41,30.568c4.972,3.296,10.979,4.665,16.858,3.947
			c4.158,7.947,11.189,14.447,19.739,17.347c8.569,2.907,18.27,1.413,25.527-4.021c3.771-2.824,6.668-6.505,8.363-10.88
			c7.814,3.127,16.781,1.921,23.302-3.61c3.115-2.642,5.464-6.168,6.785-10.026c1.487-4.342,1.38-8.968,0.937-13.485
			c6.766-0.129,12.998-5.139,14.335-11.966C166.761,247.018,160.201,240.258,152.841,241.527z M161.31,254.947
			c-1.497,4.89-6.682,8.733-11.881,7.887c-0.564-0.092-1.05,0.045-1.433,0.309c-0.654,0.215-1.138,0.778-1.033,1.697
			c0.488,4.275,0.916,8.721-0.199,12.937c-0.907,3.429-2.813,6.527-5.386,8.958c-5.604,5.295-14.13,6.448-21.044,3.127
			c-1.092-0.524-2.117,0.031-2.592,0.849c-0.502,0.172-0.941,0.553-1.159,1.187c-3.266,9.489-13.616,15.136-23.366,14.439
			c-10.71-0.765-19.732-8.659-24.245-18.025c-0.381-0.791-1.35-1.012-2.129-0.866c-9.392,1.756-19.663-3.618-23.028-12.682
			c-3.524-9.492,0.171-20.446,9.112-25.355c4.716-2.59,10.294-3.331,15.499-1.961c0.323,0.085,0.619,0.087,0.886,0.03
			c0.939,1.114,3.312,0.712,3.394-1.203c0.471-10.987,4.864-22.515,15.511-27.265c9.998-4.461,21.757-1.866,29.452,5.721
			c4.327,4.266,7.264,9.693,8.654,15.592c0.265,1.126,1.231,1.486,2.109,1.3c0.653,1.161,2.47,1.638,3.238,0.124
			c1.949-3.844,6.082-6.873,10.573-6.213c4.055,0.596,7.213,4.37,6.984,8.44c-0.063,1.131,1.271,2.26,2.386,1.818
			C157.71,243.374,163.201,248.768,161.31,254.947z"/>
		<path style="fill:#B5B5B5;" d="M430.325,90.934c-1.234-6.512-8.157-9.537-14.272-9.201c-0.517-4.783-1.896-9.717-4.762-13.569
			c-2.727-3.665-6.878-5.707-11.375-6.159c-4.533-0.455-9.099,1.051-12.717,3.757c-1.791,1.34-3.351,2.903-4.703,4.685
			c-0.283,0.373-0.592,0.771-0.889,1.186c-1.768-8.898-4.106-17.944-9.765-25.185c-6.655-8.514-17.669-12.922-28.136-14.294
			c-20.79-2.725-41.575,7.004-52.254,25.127c-5.438,9.229-8.133,20.065-7.38,30.757c-0.287-0.278-0.667-0.478-1.144-0.537
			c-9.204-1.149-17.605,5.452-18.973,14.55c-1.323,8.801,3.789,17.048,11.526,20.975c-0.154,0.244-0.26,0.533-0.293,0.872
			c-0.678,6.833,1.932,13.963,5.048,19.944c3.033,5.822,7.354,10.829,12.83,14.47c10.539,7.007,24.122,8.377,35.964,4.082
			c6.478-2.35,12.33-6.15,17.151-11.059c11.949,6.433,26.335,10.815,39.721,6.482c12.501-4.047,21.707-14.701,26.428-26.663
			c2.908-7.369,4.087-15.388,3.543-23.284C423.392,105.517,432.058,100.075,430.325,90.934z M414.094,104.469
			c-0.655,0.189-1.047,0.613-1.22,1.109c-0.52,0.272-0.881,0.801-0.816,1.593c1.046,12.779-2.66,26.094-11.099,35.896
			c-3.79,4.403-8.486,8.122-13.892,10.33c-5.934,2.423-12.503,2.872-18.801,1.89c-7.381-1.15-14.376-4.011-20.891-7.591
			c-0.427-0.234-0.844-0.289-1.221-0.22c-0.605-0.252-1.321-0.185-1.913,0.445c-7.86,8.367-19.016,13.605-30.604,13.172
			c-11.703-0.437-22.654-6.635-28.745-16.666c-3.606-5.94-6.632-13.476-5.932-20.528c0.055-0.551-0.101-0.973-0.375-1.271
			c0.583-0.827,0.58-2.006-0.59-2.556c-6.511-3.06-11.269-9.512-10.406-16.941c0.892-7.681,7.759-12.804,15.34-11.858
			c0.774,0.097,1.294-0.231,1.567-0.727c0.924,1.506,3.707,1.242,3.49-0.843c-1.943-18.631,7.222-37.873,23.462-47.459
			c8.378-4.945,18.198-7.2,27.894-6.719c9.778,0.485,20.575,3.851,27.566,10.984c7.647,7.802,9.784,19.281,11.734,29.61
			c0.288,1.527,1.885,1.659,2.877,0.931c0.25,0.12,0.523,0.188,0.799,0.179c0.093-0.003,0.186-0.006,0.279-0.008
			c1.566-0.047,2.122-1.641,1.662-2.742c0.333-0.21,0.743-1.106,0.983-1.439c0.517-0.72,1.089-1.399,1.7-2.041
			c1.199-1.261,2.538-2.361,4.042-3.238c2.947-1.72,6.411-2.481,9.793-1.857c8.356,1.543,11.239,10.402,11.68,17.922
			c0.075,1.283,1.139,2.067,2.386,1.818c4.561-0.912,11.026,1.073,11.845,6.322C427.809,99.153,419.645,102.869,414.094,104.469z"/>
		<path style="fill:#B5B5B5;" d="M319.241,263.247c-0.544,7.896,0.635,15.915,3.543,23.284
			c4.721,11.962,13.927,22.616,26.428,26.663c13.386,4.334,27.772-0.049,39.721-6.481c4.821,4.909,10.673,8.709,17.151,11.059
			c11.842,4.296,25.425,2.925,35.965-4.082c5.477-3.641,9.798-8.648,12.83-14.47c3.116-5.981,5.726-13.111,5.048-19.944
			c-0.034-0.339-0.14-0.628-0.293-0.872c7.737-3.927,12.85-12.174,11.526-20.975c-1.368-9.098-9.768-15.699-18.973-14.55
			c-0.477,0.06-0.857,0.26-1.144,0.538c0.753-10.692-1.942-21.529-7.38-30.757c-10.679-18.123-31.464-27.852-52.254-25.127
			c-10.466,1.372-21.481,5.779-28.136,14.294c-5.659,7.241-7.997,16.288-9.765,25.185c-0.296-0.416-0.606-0.814-0.889-1.186
			c-1.352-1.782-2.911-3.345-4.703-4.685c-3.619-2.707-8.184-4.212-12.717-3.757c-4.497,0.451-8.648,2.493-11.375,6.159
			c-2.866,3.852-4.246,8.786-4.762,13.569c-6.115-0.336-13.038,2.689-14.272,9.201C303.058,255.452,311.725,260.894,319.241,263.247
			z M308.428,247.341c0.818-5.249,7.284-7.234,11.845-6.322c1.247,0.249,2.311-0.535,2.386-1.818
			c0.442-7.52,3.324-16.38,11.681-17.922c3.381-0.624,6.846,0.137,9.793,1.857c1.504,0.878,2.843,1.978,4.042,3.238
			c0.611,0.642,1.182,1.321,1.7,2.041c0.24,0.333,0.649,1.229,0.983,1.439c-0.46,1.1,0.096,2.694,1.662,2.741
			c0.093,0.003,0.186,0.006,0.279,0.008c0.276,0.008,0.549-0.06,0.799-0.179c0.991,0.728,2.589,0.596,2.877-0.931
			c1.949-10.328,4.086-21.808,11.734-29.61c6.991-7.133,17.788-10.499,27.566-10.984c9.697-0.481,19.516,1.774,27.894,6.719
			c16.24,9.586,25.405,28.828,23.462,47.459c-0.217,2.086,2.566,2.349,3.49,0.843c0.273,0.496,0.794,0.824,1.567,0.727
			c7.582-0.947,14.449,4.177,15.34,11.858c0.862,7.429-3.895,13.882-10.406,16.941c-1.17,0.55-1.173,1.729-0.59,2.556
			c-0.273,0.298-0.429,0.721-0.375,1.271c0.699,7.052-2.326,14.588-5.932,20.528c-6.09,10.032-17.042,16.229-28.745,16.666
			c-11.588,0.433-22.744-4.805-30.604-13.172c-0.592-0.63-1.308-0.697-1.913-0.445c-0.378-0.069-0.795-0.014-1.221,0.22
			c-6.515,3.58-13.51,6.441-20.891,7.591c-6.298,0.982-12.867,0.533-18.801-1.89c-5.406-2.208-10.102-5.927-13.892-10.33
			c-8.438-9.802-12.144-23.117-11.099-35.896c0.065-0.792-0.296-1.321-0.816-1.593c-0.173-0.497-0.566-0.921-1.22-1.109
			C315.471,258.246,307.308,254.53,308.428,247.341z"/>
	</g>
	<g>
		<path style="fill:#FFFFFF;" d="M339.6,281.444c11.481-15.975,17.549-34.85,17.549-54.587c0-27.894-12.215-53.96-33.572-71.826
			c9.806-12.64,17.283-26.958,21.987-42.259c2.423-7.881,4.079-15.982,4.993-24.175c0.886-7.943,1.354-16.236-0.17-24.129
			c-1.483-7.682-5.485-14.42-11.922-18.944c-6.126-4.306-13.714-5.908-21.085-4.82c-16.361,2.415-27.585,18.402-31.815,33.349
			c-2.728,9.639-3.284,19.99-3.816,29.946c-0.551,10.326-0.542,20.675-0.016,31.002c-5.97-1.177-12.089-1.779-18.22-1.779
			c-6.165,0-12.238,0.594-18.156,1.751c0.016-0.309-0.052-0.639-0.235-0.975c-8.423-15.539-17.777-30.743-29.801-43.788
			c-11.275-12.233-25.755-22.226-43.036-21.924c-15.238,0.266-29.744,9.828-33.579,25.046c-3.923,15.564,6.604,28.746,18.408,37.458
			c14.732,10.872,32.336,18.009,50.377,21.022c-3.57,2.677-6.977,5.623-10.189,8.835c-17.685,17.685-27.425,41.199-27.425,66.21
			c0,10.863,1.844,21.508,5.481,31.64c3.515,9.792,8.618,18.884,15.169,27.024c1.507,1.873,3.087,3.68,4.728,5.424
			c-6.032-2.29-14.174-4.479-23.544-4.675c-5.202-12.398-11.895-24.141-19.975-34.918c-0.011-0.015-0.024-0.025-0.035-0.039
			c5.827-7.612,8.606-17.154,8.492-26.73c-0.134-11.221-4.055-22.024-9.512-31.706c-0.779-1.383-2.466-0.998-3.134,0.028
			c-3.653-2.744-8.799-3.451-13.565-2.856c-4.825-5.922-13.624-7.132-20.368-4.035c-6.93,3.183-10.942,10.439-11.926,17.782
			c-0.1,0.092-0.192,0.191-0.267,0.304c-2.589,3.912-5.162,8.008-5.595,12.793c-0.179,1.977,0.066,3.895,0.715,5.645
			c-0.573,0.38-0.926,1.052-0.67,1.915c2.989,10.062,9.7,18.875,18.715,24.293c9.987,6.002,22.38,7.424,33.525,4.151
			c0.05-0.015,0.095-0.034,0.141-0.051c0.058,0.052,0.119,0.1,0.182,0.145c0.04,0.07,0.085,0.141,0.138,0.211
			c5.48,7.309,10.328,15.06,14.493,23.163c-0.333-0.149-0.674-0.281-1.019-0.404c-7.897-7.779-16.683-14.784-27.921-16.679
			c-11.831-1.995-23.79,0.756-35.258,3.544c-1.258,0.306-1.878,2.179-0.809,3.063c9.841,8.132,20.46,16.632,33.721,17.584
			c6.611,0.475,12.305-1.961,18.515-3.745c2.911-0.836,6.559-1.405,9.696-0.646c0.003,0.002,0.005,0.005,0.007,0.007
			c0.482,0.479,1.039,0.604,1.55,0.502c1.329,0.566,2.509,1.444,3.422,2.734c0.366,0.518,0.866,0.759,1.374,0.8
			c0.485,1.062,0.956,2.131,1.418,3.203c-8.097,0.576-13.707,5.147-15.477,12.69c-2.158,9.197,2.015,20.787,8.755,24.318
			c2.702,1.416,8.696,3.535,16.109,5.904c1.072,12.322,0.872,24.741-0.58,37.039c-0.276,2.337,3.391,2.318,3.665,0
			c1.407-11.919,1.616-23.923,0.67-35.856c18.491,5.758,43.192,12.486,49.511,14.194l-4.691,75.823
			c-11.112-1.217-19.275,1.072-24.283,6.813c-3.782,4.336-5.659,10.698-5.43,18.4c0.169,5.689,1.407,10.099,1.46,10.284
			c0.224,0.788,0.944,1.331,1.762,1.331h57.596c0.875,0,1.628-0.619,1.798-1.478l10.423-52.902c3.723,0.625,7.883,1.081,12.325,1.17
			c0.001,0.003,0.001,0.006,0.001,0.009l12.73,51.806c0.201,0.819,0.936,1.395,1.779,1.395h50.995c0.888,0,1.648-0.636,1.804-1.51
			c2.059-11.531,0.686-20.806-4.08-27.568c-4.338-6.154-10.23-8.366-12.744-9.064l-4.469-17.938
			c7.499-0.01,11.83-3.265,14.196-6.159c4.559-5.576,5.673-14.314,2.979-23.376c-3.745-12.598-22.51-60.15-26.016-69.007
			C326.582,296.807,333.681,289.679,339.6,281.444z"/>
		<g>
			<path style="fill:#222221;" d="M292.892,136.993c-0.199,0.696,0.008,1.462,0.868,1.878c4.645,2.246,9.29,4.491,13.935,6.737
				c0.958,0.463,1.863,0.067,2.369-0.6c0.581,0.033,1.163-0.227,1.52-0.918c5.702-11.044,10.578-22.517,14.522-34.305
				c3.64-10.881,8.105-23.413,4.289-34.841c-1.629-4.878-4.754-9.293-9.353-11.756c-4.315-2.31-9.48-2.845-13.993-0.789
				c-10.698,4.875-11.696,18.77-12.859,28.882c-1.698,14.76-2.284,29.634-1.808,44.483
				C292.397,136.292,292.596,136.702,292.892,136.993z M296.991,99.862c0.487-5.664,1.062-11.352,1.967-16.967
				c0.81-5.026,2.094-10.353,5.65-14.197c3.31-3.579,7.913-4.801,12.542-3.235c4.49,1.519,7.75,5.262,9.414,9.615
				c3.951,10.327-0.115,21.833-3.352,31.79c-3.927,12.078-8.842,23.807-14.654,35.098c-4.172-2.017-8.345-4.034-12.517-6.051
				c0.002-0.05,0.004-0.099,0.003-0.152C295.661,123.79,295.964,111.8,296.991,99.862z"/>
			<path style="fill:#222221;" d="M324.29,196.133c0-6.119-1.952-11.788-5.256-16.43c-2.573-4.558-6.661-7.988-11.5-9.467
				c-3.558-1.607-7.5-2.509-11.651-2.509c-15.663,0-28.406,12.743-28.406,28.406c0,15.663,12.743,28.406,28.406,28.406
				S324.29,211.796,324.29,196.133z M271.144,196.133c0-12.925,9.964-23.56,22.613-24.643c-5.108,2.631-9.015,7.574-10.583,13.592
				l20.702,8.105l-20.655,3.855c2.406,8.939,9.984,15.47,18.967,15.47c8.199,0,15.231-5.439,18.225-13.185
				c-1.572,12.138-11.968,21.548-24.528,21.548C282.243,220.874,271.144,209.775,271.144,196.133z"/>
			<path style="fill:#222221;" d="M270.06,217.714c-0.065-0.111-0.137-0.208-0.212-0.296c-0.38-1.745-3.43-1.541-3.635,0.578
				c-0.501,5.183-3.385,10.018-7.651,12.972c-2.604-4.02-5.28-8.006-8.349-11.686c2.194-1.772,4.241-3.71,6.084-5.849
				c1.72-1.996,3.665-4.226,4.285-6.856c0.565-2.397-0.07-5.109-2.156-6.571c-2.27-1.59-5.573-1.498-8.227-1.479
				c-4.568,0.034-12.47,0.188-13.734,5.856c-1.256,5.636,4.103,10.061,7.599,13.571c4.398,4.414,7.895,9.554,11.269,14.763
				c-5.064,2.054-10.972,1.556-15.716-1.17c-1.087-0.624-2.116-0.027-2.539,0.847c-0.704,0.495-1.128,1.421-0.627,2.402
				c4.518,8.83,12.996,16.563,22.817,18.884c4.599,1.087,9.807,0.87,13.58-2.283c4.28-3.576,5.088-9.468,4.323-14.687
				C276.192,230.041,273.454,223.498,270.06,217.714z M243.179,211.888c-1.539-1.659-4.05-4.556-3.023-7.051
				c0.991-2.405,5.522-2.409,7.649-2.556c1.592-0.11,3.193-0.12,4.787-0.035c1.283,0.068,3.386,0.001,4.196,1.237
				c1.556,2.372-1.68,5.732-3.083,7.359c-1.798,2.085-3.788,3.975-5.92,5.712C246.267,214.982,244.667,213.492,243.179,211.888z
				 M265.366,250.583c-1.368,0.12-2.734,0.041-4.082-0.191c0.001-0.124-0.008-0.251-0.032-0.384
				c-1.392-7.766,1.101-15.911,6.502-21.638c0.309-0.327,0.464-0.687,0.502-1.042c0.583,0.06,1.164,0.027,1.768-0.058
				c0.202-0.028,0.415-0.144,0.605-0.295c1.473,3.513,2.575,7.192,3.03,10.896C274.386,243.798,271.983,250.001,265.366,250.583z"/>
			<path style="fill:#222221;" d="M331.86,419.127l-4.469-17.938c7.499-0.01,11.83-3.265,14.196-6.159
				c4.559-5.576,5.673-14.314,2.979-23.376c-3.745-12.598-22.51-60.15-26.016-69.007c8.033-5.84,15.132-12.968,21.05-21.203
				c11.481-15.975,17.549-34.85,17.549-54.587c0-27.894-12.215-53.96-33.572-71.826c9.806-12.64,17.283-26.958,21.987-42.259
				c2.423-7.881,4.079-15.982,4.993-24.175c0.886-7.943,1.354-16.236-0.17-24.129c-1.483-7.682-5.485-14.42-11.922-18.944
				c-6.126-4.306-13.714-5.908-21.085-4.82c-16.361,2.415-27.585,18.402-31.815,33.349c-2.728,9.639-3.284,19.99-3.816,29.946
				c-0.551,10.326-0.542,20.675-0.016,31.002c-5.97-1.177-12.089-1.779-18.22-1.779c-6.165,0-12.238,0.594-18.156,1.751
				c0.016-0.309-0.052-0.639-0.235-0.975c-8.423-15.539-17.777-30.743-29.801-43.788c-11.275-12.233-25.755-22.226-43.036-21.924
				c-15.238,0.266-29.744,9.828-33.579,25.046c-3.923,15.564,6.604,28.746,18.408,37.458c14.732,10.872,32.336,18.009,50.377,21.022
				c-3.57,2.677-6.977,5.623-10.189,8.835c-17.685,17.685-27.425,41.199-27.425,66.21c0,10.863,1.844,21.508,5.481,31.64
				c3.515,9.792,8.618,18.884,15.169,27.024c1.507,1.873,3.087,3.68,4.728,5.424c-6.032-2.29-14.174-4.479-23.544-4.675
				c-5.202-12.398-11.895-24.141-19.975-34.918c-0.011-0.015-0.024-0.025-0.035-0.039c5.827-7.612,8.606-17.154,8.492-26.73
				c-0.134-11.221-4.055-22.024-9.512-31.706c-0.779-1.383-2.466-0.998-3.134,0.028c-3.653-2.744-8.799-3.451-13.565-2.856
				c-4.825-5.922-13.624-7.132-20.368-4.035c-6.93,3.183-10.942,10.439-11.926,17.782c-0.1,0.092-0.192,0.191-0.267,0.304
				c-2.589,3.912-5.162,8.008-5.595,12.793c-0.179,1.977,0.066,3.895,0.715,5.645c-0.573,0.38-0.926,1.052-0.67,1.915
				c2.989,10.062,9.7,18.875,18.715,24.293c9.987,6.002,22.38,7.424,33.525,4.151c0.05-0.015,0.095-0.034,0.141-0.051
				c0.058,0.052,0.119,0.1,0.182,0.145c0.04,0.07,0.085,0.141,0.138,0.211c5.48,7.309,10.328,15.06,14.493,23.163
				c-0.333-0.149-0.674-0.281-1.019-0.404c-7.897-7.779-16.683-14.784-27.921-16.679c-11.831-1.995-23.79,0.756-35.258,3.544
				c-1.258,0.306-1.878,2.179-0.809,3.063c9.841,8.132,20.46,16.632,33.721,17.584c6.611,0.475,12.305-1.961,18.515-3.745
				c2.911-0.836,6.559-1.405,9.696-0.646c0.003,0.002,0.005,0.005,0.007,0.007c0.482,0.479,1.039,0.604,1.55,0.502
				c1.329,0.566,2.509,1.444,3.422,2.734c0.366,0.518,0.866,0.759,1.374,0.8c0.485,1.062,0.956,2.131,1.418,3.203
				c-8.097,0.576-13.707,5.147-15.477,12.69c-2.158,9.197,2.015,20.787,8.755,24.318c2.702,1.416,8.696,3.535,16.109,5.904
				c1.072,12.322,0.872,24.741-0.58,37.039c-0.276,2.337,3.391,2.318,3.665,0c1.407-11.919,1.616-23.923,0.67-35.856
				c18.491,5.758,43.192,12.486,49.511,14.194l-4.691,75.823c-11.112-1.217-19.275,1.072-24.283,6.813
				c-3.782,4.336-5.659,10.698-5.43,18.4c0.169,5.689,1.407,10.099,1.46,10.284c0.224,0.788,0.944,1.331,1.762,1.331h57.596
				c0.875,0,1.628-0.619,1.798-1.478l10.423-52.902c3.723,0.625,7.883,1.081,12.325,1.17c0.001,0.003,0.001,0.006,0.001,0.009
				l12.73,51.806c0.201,0.819,0.936,1.395,1.779,1.395h50.995c0.888,0,1.648-0.636,1.804-1.51
				c2.059-11.531,0.686-20.806-4.08-27.568C340.265,422.036,334.373,419.824,331.86,419.127z M132.753,193.954
				c6.07-1.298,13.982-0.216,15.7,6.725c1.336,5.401-1.526,10.434-4.847,14.568c-0.821-5.371-3.75-10.274-8.28-13.417
				c-2.636-1.829-5.743-2.906-8.917-3.284c-0.862-0.103-2.022-0.209-3.225-0.201c0.165-0.148,0.328-0.298,0.496-0.443
				c1.223-1.056,2.521-2.015,3.866-2.911c0.955-0.636,2.09-1.499,3.283-1.807C131.215,193.759,131.891,194.138,132.753,193.954z
				 M118.112,222.065c-3.746-4.963-3.445-11.665-0.503-16.952c0.388-0.698,0.814-1.369,1.271-2.017
				c0.239,0.072,0.494,0.102,0.758,0.096c0.652-0.015,1.245-0.367,1.572-0.911c1.963-0.503,4.14-0.417,6.24,0.066
				c-2.697,7.636-2.518,16.11,0.55,23.611c-0.032,0.022-0.067,0.043-0.097,0.066c-0.06,0.013-0.12,0.028-0.182,0.048
				c-0.062-0.011-0.126-0.02-0.192-0.025c-3.278-0.26-6.362-1.15-9.144-2.548C118.542,223.072,118.494,222.571,118.112,222.065z
				 M128.644,229.62c0.229-0.078,0.422-0.187,0.586-0.316c0.235-0.028,0.479-0.108,0.727-0.254
				c4.547-2.672,9.502-5.079,13.712-8.262c0.303-0.229,0.507-0.506,0.63-0.802c0.126-0.086,0.249-0.192,0.365-0.325
				c1.052-1.199,2.086-2.477,3.043-3.816c2.306,7.181-1.502,14.979-8.227,18.39c-6.74,3.419-14.591,1.854-20.334-2.619
				C122.377,231.344,125.574,230.666,128.644,229.62z M130.911,203.533c1.126,0.52,2.17,1.139,3.064,1.828
				c3.864,2.979,6.093,7.68,6.202,12.523c0.007,0.302,0.073,0.564,0.183,0.789c-2.896,2.004-6.06,3.721-9.159,5.451
				C128.7,217.457,128.586,210.28,130.911,203.533z M105.157,205.817c0.384-6.606,3.725-13.411,9.86-16.428
				c4.312-2.12,9.639-1.819,13.59,0.758c-2.158,0.882-4.134,2.465-5.92,3.86c-3.121,2.437-5.929,5.327-7.953,8.751
				c-2.932,4.958-3.974,11.269-2.126,16.716c-3.716-3.462-6.384-8.052-7.518-13.237
				C105.125,206.106,105.149,205.967,105.157,205.817z M99.492,216.892c0.283-2.591,1.38-4.969,2.705-7.213
				c2.628,8.467,9.094,15.116,17.255,18.216c-1.353,0.138-2.716,0.206-4.091,0.183c-3.802-0.064-8.021-0.567-11.419-2.405
				C100.605,223.867,99.081,220.644,99.492,216.892z M148.498,249.501c-0.364-0.217-0.826-0.295-1.361-0.138
				c-10.233,3.005-21.528,1.74-30.701-3.782c-6.722-4.047-12.035-10.158-15.232-17.274c3.522,2.302,8.047,3.055,12.154,3.347
				c0.222,0.016,0.444,0.027,0.665,0.038c0.085,0.227,0.227,0.451,0.434,0.659c7.143,7.189,18.24,9.757,27.367,4.786
				c8.877-4.835,12.74-15.814,8.31-24.998c-0.018-0.038-0.039-0.072-0.059-0.108c1.164-2.223,2.003-4.571,2.276-7.002
				C157.942,219.752,158.847,236.659,148.498,249.501z M154.999,275.099c-0.249,0.019-0.496,0.051-0.743,0.079
				c0.111-0.801-0.263-1.606-1.306-1.778c-9.705-1.598-19.411-3.206-29.048-5.182c-2.302-0.472-3.287,3.06-0.974,3.534
				c8.561,1.755,17.176,3.22,25.798,4.646c-4.12,1.256-8.128,2.987-12.447,3.379c-12.686,1.151-23.501-6.592-32.93-14.265
				c9.719-2.32,19.88-4.37,29.803-2.697c8.935,1.507,16.119,6.368,22.616,12.243C155.51,275.068,155.254,275.079,154.999,275.099z
				 M210.749,148.64c-15.826-2.333-31.084-7.827-44.694-16.246c-11.496-7.112-24.886-17.861-24.546-32.79
				c0.336-14.731,13.413-26.007,27.443-27.453c16.247-1.674,30.433,6.93,41.397,18.142c12.958,13.251,22.749,29.222,31.541,45.431
				c-2.828,0.665-5.617,1.46-8.359,2.383c-15.96-16.974-33.197-34.452-55.454-42.83c-5.607-2.11-11.886-3.263-17.568-0.788
				c-4.682,2.039-8.064,6.369-7.997,11.604c0.07,5.478,3.385,10.421,7.107,14.182c4.07,4.114,8.955,7.358,14.044,10.068
				c6.001,3.196,12.328,5.75,18.572,8.422c7.025,3.006,14.051,6.012,21.076,9.017c-0.599,0.382-1.194,0.769-1.785,1.165
				C211.325,148.796,211.07,148.687,210.749,148.64z M216.723,145.711c-0.138-0.32-0.409-0.601-0.849-0.789
				c-11.266-4.82-22.643-9.442-33.791-14.528c-9.074-4.139-19.836-9.601-24.487-18.958c-2.304-4.635-1.768-9.964,2.896-12.827
				c5.022-3.083,11.079-1.842,16.288,0.079c10.134,3.738,19.436,9.806,27.783,16.587c9.052,7.353,17.218,15.71,25.21,24.184
				C225.27,141.194,220.911,143.287,216.723,145.711z M171.139,294.817c-2.302-1.403-4.621-2.78-6.933-4.167
				c1.389-0.419,2.99-0.677,4.843-0.717c0.07-0.001,0.139-0.002,0.209-0.003C169.91,291.549,170.542,293.176,171.139,294.817z
				 M160.611,292.373c0.131,0.323,0.374,0.62,0.753,0.848c2.002,1.205,4.004,2.41,6.006,3.614c1.084,0.652,5.354,2.436,5.071,4.066
				c-0.089,0.509,0.015,0.954,0.233,1.313c-0.584,0.632-1.104,1.291-1.539,1.975c-4.779-2.112-9.613-4.092-14.506-5.923
				c-0.098-0.037-0.193-0.062-0.287-0.082C157.089,296.079,158.388,293.945,160.611,292.373z M173.255,316.497
				c-5.171-2.561-10.436-4.917-15.787-7.079c-0.574-0.232-1.062-0.157-1.432,0.094c-0.603-2.552-0.809-5.25-0.51-7.768
				c0.042,0.019,0.083,0.038,0.128,0.055c4.788,1.791,9.519,3.722,14.191,5.798c-0.157,1.319,0.07,2.714,0.837,4.187
				c0.78,1.499,1.817,2.405,3.011,2.866C173.555,315.268,173.405,315.883,173.255,316.497z M157.259,313.271
				c4.995,2.041,9.906,4.271,14.734,6.681c0.104,0.052,0.207,0.091,0.31,0.123c-0.324,1.129-0.67,2.252-1.037,3.37
				c-3.873-1.334-6.88-2.492-8.526-3.355C160.485,318.909,158.57,316.372,157.259,313.271z M174.738,324.612
				c0.498-1.5,0.96-3.009,1.379-4.529c0.24,1.726,0.452,3.456,0.641,5.188C176.069,325.048,175.395,324.828,174.738,324.612z
				 M255.68,395.716c-0.02-0.14-0.057-0.286-0.117-0.439c-4.367-11.134-9.065-22.89-8.426-35.079
				c0.475-9.069,4.334-18.858,12.176-24c8.411-5.516,19.458-4.1,27.482,1.44c8.466,5.845,12.762,16.309,13.341,26.315
				c0.752,13.001-4.441,25.408-11.251,36.211C275.595,401.266,263.457,398.336,255.68,395.716z M345.328,453.603h-8.374
				c1.52-5.904,0.051-12.139-3.789-16.905c-1.48-1.837-4.058,0.771-2.591,2.591c3.242,4.025,4.089,9.437,2.564,14.314h-11.384
				c0.019-0.061,0.036-0.123,0.05-0.189c1.076-5.13,0.324-10.313-2.221-14.902c-1.144-2.063-4.31-0.217-3.164,1.85
				c2.053,3.702,2.721,7.929,1.851,12.079c-0.093,0.441-0.037,0.833,0.116,1.164h-21.063l-12.178-49.561
				c5.918-0.169,12.227-1.04,18.581-3.045c0.965-0.305,1.5-1.334,1.196-2.299c-0.305-0.965-1.334-1.501-2.299-1.196
				c-3.05,0.963-6.097,1.652-9.106,2.117c5.913-9.949,10.292-21.12,10.359-32.807c0.063-11.012-3.823-22.66-12.287-30.053
				c-7.932-6.928-19.759-9.972-29.756-5.978c-9.718,3.883-15.686,13.494-17.623,23.461c-2.658,13.678,2.048,27.179,6.966,39.821
				c-2.686-1.072-4.239-1.857-4.315-1.897c-0.898-0.465-2.004-0.114-2.47,0.784c-0.466,0.899-0.115,2.004,0.784,2.47
				c0.296,0.153,7.372,3.784,18.137,6.313c0.688,0.162,1.402,0.32,2.137,0.475l-10.125,51.395h-29.685
				c0.04-0.244,0.027-0.513-0.055-0.805c-1.217-4.328-0.284-8.723,2.429-12.284c1.429-1.875-1.752-3.703-3.164-1.85
				c-3.238,4.249-4.229,9.803-2.841,14.938H210.73c0.046-0.251,0.038-0.529-0.044-0.83c-1.041-3.811-0.711-7.763,1.047-11.315
				c1.043-2.107-2.117-3.966-3.164-1.85c-2.175,4.394-2.711,9.252-1.452,13.995h-6.439c-0.886-4.082-2.907-16.577,3.534-23.95
				c4.432-5.074,12.159-6.87,22.965-5.337c0.507,0.072,1.019-0.071,1.415-0.394c0.396-0.323,0.639-0.797,0.671-1.307l4.904-79.265
				c0-0.002,0-0.005,0.001-0.007l0.476-7.687c0.063-1.01-0.706-1.879-1.716-1.942c-1.009-0.063-1.88,0.705-1.942,1.716l-0.337,5.453
				c-7.415-2.012-32.277-8.819-50.102-14.408c-0.404-4.008-0.932-8.006-1.594-11.987c4.28-1.367,8.817-5.021,11.012-7.174
				c1.687-1.654-0.905-4.245-2.591-2.591c-1.894,1.857-12.012,10.286-13.651,4.827c-0.738-2.456,1.129-4.563,2.864-6.032
				c2.316-1.962,4.926-3.629,7.387-5.402c1.896-1.366,0.069-4.547-1.85-3.164c-1.704,1.228-4.075,2.699-6.283,4.417
				c-0.033-0.103-0.079-0.199-0.118-0.298c0.322-0.387,0.458-0.923,0.242-1.565c-0.852-2.529-1.771-5.032-2.742-7.514
				c17.845,0.854,30.967,9.321,31.106,9.413c0.007,0.005,0.016,0.007,0.023,0.012c11.038,8.993,24.051,15.444,37.951,18.664
				c0.139,0.032,0.278,0.048,0.415,0.048c0.833,0,1.587-0.572,1.783-1.419c0.228-0.986-0.386-1.97-1.372-2.199
				c-19.471-4.51-37.137-15.621-49.743-31.286c-6.295-7.822-11.199-16.557-14.575-25.964c-3.494-9.733-5.266-19.962-5.266-30.402
				c0-24.032,9.359-46.626,26.352-63.619c16.993-16.993,39.587-26.352,63.619-26.352c6.491,0,12.968,0.694,19.252,2.064
				c0.984,0.214,1.956-0.407,2.177-1.389c0.336-0.294,0.548-0.739,0.515-1.338c-0.945-17.221-0.775-34.876,1.733-51.97
				c1.212-8.264,3.717-15.939,8.179-23.032c3.998-6.356,9.175-12.283,16.278-15.176c13.975-5.693,30.111,1.436,34.408,16.084
				c2.145,7.314,1.812,15.242,1.197,22.758c-0.62,7.579-1.958,15.09-3.931,22.432c-4.462,16.599-12.241,32.301-22.871,45.818
				c-0.123,0.156-0.215,0.319-0.283,0.484c-0.232,0.114-0.444,0.275-0.617,0.49c-0.634,0.789-0.508,1.942,0.28,2.576
				c21.388,17.188,33.654,42.763,33.654,70.169c0,18.964-5.83,37.101-16.86,52.448c-5.923,8.241-13.076,15.327-21.19,21.064
				c-0.139,0.076-0.267,0.163-0.378,0.268c-6.578,4.599-13.78,8.317-21.469,11.043c-0.954,0.338-1.453,1.385-1.115,2.339
				c0.266,0.751,0.973,1.22,1.727,1.22c0.203,0,0.41-0.034,0.612-0.106c7.347-2.605,14.268-6.078,20.65-10.333
				c4.136,10.467,22.042,55.952,25.593,67.897c1.697,5.707,1.667,11.35,0.059,15.756c-0.895-2.182-1.79-4.364-2.685-6.546
				c-0.883-2.152-4.43-1.21-3.534,0.974c1.142,2.784,2.284,5.569,3.426,8.353c0.181,0.443,0.477,0.752,0.822,0.949
				c-0.129,0.176-0.255,0.356-0.392,0.524c-1.368,1.673-3.113,2.915-5.176,3.72c-0.943-3.499-1.886-6.997-2.829-10.495
				c-0.613-2.275-4.149-1.309-3.534,0.974c0.937,3.476,1.874,6.952,2.811,10.427c-1.12,0.155-2.304,0.212-3.549,0.166
				l-12.228-49.082c-0.245-0.982-1.24-1.579-2.221-1.335c-0.982,0.245-1.579,1.239-1.335,2.221l17.885,71.788
				c0.175,0.703,0.755,1.238,1.469,1.363c0.069,0.012,6.979,1.288,11.607,7.902C345.596,436.002,346.832,443.816,345.328,453.603z"
				/>
			<path style="fill:#222221;" d="M224.04,171.442c-3.386-3.205-7.573-5.263-12.224-5.657c-6.259-0.532-12.373,1.969-17.214,7.038
				c-4.739,4.961-7.698,11.817-8.333,19.305c-1.322,15.607,7.986,29.184,20.75,30.266c0.552,0.047,1.102,0.07,1.651,0.07
				c5.676,0,11.149-2.486,15.564-7.108c4.739-4.961,7.698-11.817,8.333-19.305c0.064-0.753,0.095-1.499,0.111-2.241
				c0.086-0.929,0.135-1.875,0.135-2.838C232.812,182.323,229.22,174.869,224.04,171.442z M207.329,218.742
				c-10.751-0.911-18.56-12.711-17.408-26.305c0.564-6.657,3.168-12.724,7.331-17.083c3.71-3.884,8.257-5.974,12.929-5.974
				c0.441,0,0.884,0.019,1.326,0.056c0.971,0.082,1.917,0.256,2.835,0.51c-4.739,1.493-8.642,6.134-10.569,12.298l16.37,8.728
				l-17.332,4.534c1.467,9.718,7.548,17.005,14.831,17.005c1.927,0,3.768-0.515,5.464-1.446c-0.481,0.613-0.989,1.2-1.522,1.759
				C217.523,217.075,212.459,219.176,207.329,218.742z"/>
		</g>
	</g>
</g>

    <text x="10" y="832" font-size="12" fill="gray" opacity="0.6" font-family="Arial, sans-serif">
      twoja-kolorowanka.pl
    </text>
  
</svg>
