<?xml version="1.0" encoding="utf-8"?>
<!-- Generator: Adobe Illustrator 27.5.0, SVG Export Plug-In . SVG Version: 6.00 Build 0)  -->
<svg xmlns="http://www.w3.org/2000/svg" xmlns:xlink="http://www.w3.org/1999/xlink" viewBox="0 0 1024 1024" width="595" height="842" preserveAspectRatio="xMidYMid meet" data-scaled="true">
<rect id="BG" x="-0.047" y="-0.233" style="fill:#FEFEFE;" width="1024" height="1024"/>
<g id="Design">
	<path style="fill:#010101;" d="M378.705,450.75c6.687,6.745,16.597,8.966,25.816,8.471c3.867,5.617,9.404,9.749,15.055,13.432
		c2.923,0.645,5.962,0.495,8.955,0.506c10.727-0.23,21.489-0.023,32.204-0.909c37.246-0.84,74.48-2.175,111.726-3.027
		c9.933-0.012,19.854-0.507,29.764-0.875c15.906-3.959,31.525-9.012,47.42-13.041c4.972-1.508,10.808-2.21,14.272-6.537
		c3.476-3.902,2.532-9.507,1.98-14.238c-4.04-19.221-8.932-38.27-13.743-57.273c1.646-1.013,3.223-2.532,5.294-2.509
		c41.573,0.495,83.147,1.37,124.732,1.83c4.535,9.208,8.782,18.565,13.052,27.911c1.036,3.096,3.384,6.284,2.198,9.668
		c-19.187,4.638-38.466,8.932-57.779,13.006c1.335-4.857,3.142-9.576,4.615-14.399c1.255-4.19,3.418-8.54,2.164-13.006
		c-1.727-4.938-6.584-8.368-11.648-9.185c-18.784-3.315-37.66-6.112-56.502-9.093c-4.305-1.105-9.07,1.588-10.531,5.732
		c-0.702,2.601-0.541,5.329-0.53,8.011c0.484,15.884,0.53,31.79,1.404,47.639c2.429,4.903,8.31,6.089,13.248,4.696
		c38.777-7.32,77.173-16.517,115.639-25.287c6.871-1.036,10.474-9.772,7.355-15.653c-5.859-12.477-10.923-25.333-17.403-37.499
		c-9.484-0.99-19.037-0.518-28.556-0.806c-34.529-0.253-69.036-1.151-103.554-1.151c-3.833-0.426-6.791,2.152-9.242,4.707
		c-4.581-1.738-9.438-2.624-14.307-3.016c-0.219-4.028,1.496-9.254-2.532-11.959c-6.837-5.248-13.766-10.485-21.178-14.894
		c-5.122-0.426-10.278,0.242-15.412,0.023c-0.99-3.821-4.8-5.582-7.896-7.424c-2.452-1.255-4.88-3.027-7.735-2.958
		c-14.997,0.23-29.994-0.115-44.98,0.127c-5.133,0.794-10.244,4.765-10.796,10.186c-3.695-0.011-7.401-0.265-11.084,0
		c-1.899,0.115-2.993,1.899-2.935,3.649c-0.299,6.284-0.207,12.592-0.23,18.899c-20.81,0.725-41.666,0.207-62.464,0.898
		c-8.299,1.819-16.77,2.751-25.068,4.523c-4.477,3.338-5.202,9.369-7.804,13.996c-9.427,0.829-18.094,5.766-24.965,12.085
		c-8.817,8.621-13.351,20.764-14.894,32.814C370.867,436.639,372.904,445.168,378.705,450.75z M730.617,429.18
		c-13.512,3.315-27.221,5.709-40.779,8.724c-4.431,0.898-8.851,2.325-13.42,2.003c-1.082-9.449-0.414-19.014-0.909-28.51
		c-0.046-7.401-0.852-14.802-0.368-22.202c18.335,2.348,36.555,5.605,54.821,8.494c3.246,0.587,7.228,0.483,9.07,3.775
		C737.028,410.914,733.54,419.984,730.617,429.18z M643.983,378.227c5.064,18.646,9.553,37.43,13.927,56.237
		c0.518,2.785,1.197,5.801,0.104,8.54c-1.703,3.016-5.513,3.05-8.425,4.109c-15.792,4.27-31.468,8.978-47.271,13.156
		c-20.28,1.266-40.653,0.886-60.956,1.934c-38.777,0.679-77.518,2.383-116.295,2.947c-1.427,0.115-2.797-0.334-3.821-1.312
		c-3.131-2.532-6.365-4.915-9.369-7.585c5.41-10.854,11.51-21.408,16.643-32.423c4.627-9.519,9.242-19.049,14.215-28.395
		c1.427-3.407,5.824-2.774,8.839-3.154c47.927-4.236,95.923-7.677,143.93-10.877C611.675,380.494,627.788,378.365,643.983,378.227z
		 M533.247,339.807c10.75-0.058,21.5-0.184,32.262-0.15c5.985,0.127,12.304-0.714,17.771,2.36
		c-18.105,0.207-36.233,0.207-54.338-0.012C529.966,340.67,531.509,339.772,533.247,339.807z M514.647,349.993
		c30.42-0.276,60.864,0.104,91.296-0.23c5.766,4.109,12.695,7.228,17.265,12.638c-14.986,0.817-29.995,0.104-44.98,0.852
		c-21.282-0.092-42.552,0.656-63.833,0.472C514.486,359.143,514.555,354.563,514.647,349.993z M423.466,377.191
		c0.288-0.138,0.863-0.414,1.151-0.553c7.159-0.76,14.203-2.279,21.27-3.603c32.227,0.092,64.466-0.207,96.682-0.599
		c22.191,0.081,44.37-0.829,66.55-0.219c-54.05,4.339-108.181,7.735-162.208,12.465c-7.182,0.437-11.268,6.894-14.076,12.718
		c-8.391,15.872-15.515,32.389-24.067,48.192c-0.575,0.944-1.024,2.279-2.337,2.325c-0.783-9.496-0.161-19.049-0.921-28.521
		C411.841,405.482,417.631,391.302,423.466,377.191z M381.179,421.55c2.981-10.704,9.634-21.051,19.808-26.127
		c2.555-1.301,5.214-2.325,7.884-3.372c-3.925,8.805-6.906,18.07-12.097,26.254c3.142,10.658-0.092,22.041,2.9,32.803
		c-5.732-0.702-11.901-2.083-15.757-6.756C378.302,438.17,379.361,429.031,381.179,421.55z"/>
	<path style="fill:#010101;" d="M291.161,438.503c0.967,3.994,4.051,7.884,8.379,8.276c17.299,2.348,34.575,4.949,51.806,7.838
		c5.387,1.416,11.717-1.772,13.029-7.355c3.073-11.084,5.87-22.248,8.494-33.448c1.565-5.11,0.311-11.705-4.788-14.318
		c-5.479-2.739-11.567-0.403-17.242,0.161c-18.22,2.532-36.371,5.433-54.579,8.034c-4.811,0.84-8.022,5.951-7.378,10.67
		C289.584,425.072,289.895,431.862,291.161,438.503z M296.882,415.864c20.004-3.798,40.284-6.066,60.403-9.254
		c2.29-0.46,4.638-0.541,6.975-0.368c0.334,0.645,1.001,1.957,1.335,2.613c-1.312,8.183-3.775,16.137-5.686,24.205
		c-1.278,4.581-2.141,9.369-4.316,13.639c-2.106,0.622-4.351-0.219-6.469-0.414c-16.597-3.131-33.482-4.627-50.068-7.769
		C297.365,431.137,296.605,423.414,296.882,415.864z"/>
	<path style="fill:#010101;" d="M953.826,535.75c6.031-15.055,12.914-29.799,18.68-44.957c1.393-3.833-0.495-7.654-3.649-9.852
		c-18.001-14.698-36.497-28.797-54.453-43.565c-43.415,2.67-86.853,5.444-130.199,9.173c-5.168,0.242-10.497,0.76-15.009,3.499
		c-2.924-0.437-5.836-0.035-8.69,0.518c-15.446,2.313-30.927,4.431-46.339,6.963c-11.188,1.865-22.64,2.785-33.424,6.538
		c-10.612,3.602-21.155,7.378-31.802,10.865c-2.417,0.679-4.961,0.357-7.424,0.38c-28.797-0.403-57.595-0.069-86.381-0.84
		c-49.872-0.092-99.732-0.863-149.604-0.495c-33.01,0.242-66.02-0.242-99.03-0.184c-2.785,0.058-5.628-0.322-8.345,0.357
		c-32.642,10.957-64.973,22.812-97.661,33.632c-1.416,0.449-2.843,0.967-4.351,0.932c-20.407,0.207-40.825,0.012-61.221,0.322
		c-9.311,11.142-17.529,23.215-26.542,34.622c-1.347,1.749-3.027,3.487-3.177,5.835c0,3.982,4.132,7.067,7.942,6.641
		c4.443-0.173,8.897-0.207,13.328-0.679c1.98-0.184,3.43-1.588,4.592-3.073c5.813-7.136,12.534-13.432,19.003-19.946
		c1.911-1.772,3.925-4.362,6.883-3.764c4.581,0.449,9.173,0.242,13.754-0.058c12.316-0.115,24.631-0.011,36.935,0.345
		c19.624,17.495,38.374,35.968,57.089,54.43c3.994,3.349,7.205,7.735,11.729,10.382c64.098-0.495,128.219-0.138,192.329-0.345
		c120.991,0.15,241.994-0.092,362.996,0.138c6.63-5.778,12.707-12.166,18.934-18.37c-1.116,7.125-1.232,14.525,0.679,21.535
		c3.453,13.812,13.8,25.77,27.002,31.099c8.506,3.58,18.036,3.994,27.048,2.359c-22.41,11.406-43.76,24.769-65.802,36.866
		c-9.714,5.122-18.865,11.28-28.682,16.206c-3.315,0.702-6.871,1.577-10.244,1.358c14.652-5.053,26.53-18.243,29.12-33.643
		c2.279-12.626-1.381-26.173-9.576-36.026c-6.066-7.804-15.193-12.833-24.723-15.055c-11.521-2.198-23.975,0.115-33.735,6.699
		c-10.462,7.01-17.518,18.853-18.611,31.41c-2.314,19.67,10.221,40.802,29.603,46.281c-25.46,0.403-50.919,0.173-76.379,0.069
		c14.629-4.351,25.667-17.61,28.775-32.366c3.004-14.088-1.439-29.592-11.682-39.766c-7.297-7.838-17.748-12.235-28.28-13.351
		c-11.683-0.449-23.837,3.223-32.538,11.222c-9.691,8.69-15.078,21.915-14.238,34.909c0.817,17.587,13.271,35.116,30.766,39.294
		c-36.521,0.472-73.041,0.207-109.55,0.046c11.475-3.683,21.12-12.58,25.851-23.653c4.512-10.428,5.11-22.651,0.978-33.298
		c-4.627-13.317-16.563-23.515-30.098-27.036c-19.175-5.502-41.136,4.443-50.183,22.099c-5.145,10.025-6.135,21.949-3.223,32.803
		c3.695,13.259,14.077,24.458,27.048,29.108c-39.214,0.288-78.428,0.092-117.653,0.058c22.571-6.273,35.738-33.068,28.176-54.994
		c-4.086-14.583-16.908-25.724-31.41-29.35c-18.646-4.823-39.985,4.385-49.066,21.42c-8.091,14.456-7.228,33.528,2.509,46.995
		c5.398,7.332,12.983,13.846,22.088,15.734c-27.934,0.437-55.88,0.437-83.803-0.023c21.776-5.824,34.483-31.456,28.464-52.692
		c-2.935-12.177-11.878-22.352-22.939-27.934c-10.221-5.11-22.375-5.997-33.275-2.659c-11.682,3.798-22.076,12.419-26.795,23.906
		c-4.73,10.693-4.995,23.215-0.909,34.161c4.662,11.556,14.215,21.247,26.058,25.368c-8.183-0.219-16.39,0.357-24.55-0.207
		c-2.636-1.059-4.454-3.43-6.676-5.122c-25.045-21.143-50.033-42.402-75.907-62.521c13.628,3.441,28.613,0.357,39.559-8.529
		c13.052-10.359,18.968-28.682,14.744-44.762c-4.938-20.188-26.231-34.518-46.776-31.986c-19.336,1.289-37.015,17.288-39.26,36.693
		c-1.669,11.533,0.368,23.791,6.733,33.655c5.49,8.886,13.996,15.181,21.754,21.938c25.678,21.167,51.311,42.379,76.851,63.695
		c2.452,1.727,4.167,5.202,7.516,5.087c73.306,0.057,146.612,0.023,219.929,0.057c114.707-0.104,229.436,0.196,344.143-0.253
		c2.498,0.322,4.431-1.496,6.549-2.486c11.498-6.445,22.927-13.006,34.345-19.601c16.471-9.806,33.413-18.784,49.999-28.395
		c9.622-5.663,20.522-9.645,28.475-17.783c10.992-10.808,15.93-26.99,13.547-42.16c2.187,4.42,3.453,9.53,7.102,13.064
		c4.684,2.394,10.267,0.932,15.331,1.117c4.132-0.196,10.336-3.487,8.276-8.46C966.717,570.187,959.639,553.176,953.826,535.75z
		 M140.291,577.081c-1.945-19.244,14.571-37.626,33.873-37.959c19.037-2.06,37.511,14.284,37.867,33.39
		c1.301,17.495-12.534,33.988-29.707,36.636C162.562,613.084,141.511,597.327,140.291,577.081z M259.429,666.904
		c-10.693-11.936-11.901-31.076-2.924-44.313c6.181-9.265,17.012-15.181,28.13-15.596c10.934-0.564,21.972,4.143,29.35,12.2
		c7.539,8.655,11.05,21.04,7.988,32.25c-3.257,13.225-14.525,23.987-27.957,26.427C281.62,680.693,267.992,676.215,259.429,666.904z
		 M378.267,672.647c-14.146-8.897-19.452-28.521-12.995-43.691c5.007-12.327,17.46-21.074,30.708-21.915
		c7.309-0.852,14.686,1.393,21.04,4.915c10.186,5.801,16.931,16.919,17.806,28.556c0.702,10.75-3.856,21.788-11.993,28.867
		C410.932,680.313,391.63,681.786,378.267,672.647z M542.57,678.655c-9.127-0.84-18.036-4.995-24.228-11.809
		c-8.379-9.38-11.061-23.204-7.366-35.151c4.109-13.57,17.322-23.445,31.318-24.539c16.528-1.68,33.355,9.737,37.764,25.793
		c3.326,10.831,0.829,23.054-6.146,31.928C566.591,674.27,554.367,679.277,542.57,678.655z M657.587,668.895
		c-12.362-11.245-15.078-31.663-5.674-45.556c5.099-7.804,13.386-13.294,22.421-15.4c16.689-4.385,35.116,5.801,41.366,21.627
		c4.765,11.464,2.647,25.31-4.949,35.07c-6.25,8.368-16.378,13.512-26.749,14.122C674.403,678.955,664.493,675.732,657.587,668.895z
		 M776.702,677.551c-11.947-3.43-21.73-13.467-24.7-25.563c-2.06-8.886-1.462-18.738,3.223-26.737
		c4.88-8.932,14.03-14.997,23.779-17.38c6.676-1.174,13.858-1.243,20.2,1.45c11.706,4.27,20.741,15.158,22.686,27.474
		c1.853,9.415-0.552,19.44-6.054,27.244C807.169,675.928,790.882,681.786,776.702,677.551z M773.088,457.506
		c0.576-2.06,3.108-2.187,4.823-2.739c44.704-3.787,89.5-6.664,134.273-9.553c1.634,1.266,3.234,2.59,4.799,3.971
		c-1.542,13.236-2.785,26.519-3.66,39.812c-19.072-9.208-38.339-17.978-57.733-26.473c-3.58-2.233-7.62-0.081-11.383,0.322
		c-26.001,4.339-51.99,8.793-77.921,13.57C769.439,470.443,770.51,463.698,773.088,457.506z M900.294,491.046
		c-11.429-1.485-22.997-1.634-34.449-2.889c-29.477-2.279-58.93-4.754-88.441-6.48c22.156-3.649,44.324-7.251,66.458-11.003
		c3.039-0.276,6.319-2.049,9.277-0.495c11.095,4.995,22.26,9.806,33.332,14.836C891.064,487.063,895.495,489.48,900.294,491.046z
		 M846.06,568.472c-5.801,5.49-10.52,12.235-16.977,16.931c-112.025,0.368-224.061-0.115-336.098,0.035
		c-71.441,0.092-142.883-0.127-214.324,0.184c-23.089-21.489-44.842-44.393-68.564-65.203c-16.954,0.161-33.908-0.23-50.862-0.104
		c-3.338,0.184-7.332-0.783-9.875,1.991c-9.047,8.126-17.311,17.057-25.84,25.713c-2.935,0.115-5.87,0.196-8.816,0.276
		c8.103-10.347,15.699-21.074,23.94-31.307c19.164-0.403,38.339,0.035,57.503-0.253c4.339,0.046,8.368-1.865,12.454-3.085
		c23.307-8.632,46.948-16.321,70.359-24.677c7.643-2.463,15.147-5.444,22.928-7.493c114.707,0.725,229.436,1.186,344.155,1.842
		c6.825-0.886,13.179-3.844,19.693-5.939c9.208-3.004,18.255-6.549,27.681-8.874c23.607-3.741,47.259-7.217,70.866-10.969
		c-2.348,7.009-4.408,14.123-6.883,21.098c-0.875,2.244-1.278,5.237,0.863,6.929c2.474,2.866,6.503,2.463,9.91,2.993
		c48.675,3.741,97.373,7.424,146.06,11.049c2.9,0.633,5.743-0.829,5.996-3.982c2.129-13.351,2.486-26.921,4.144-40.342
		c13.006,11.705,27.681,21.42,40.595,33.206c-5.985,14.433-11.982,28.855-17.944,43.3c-12.718-4.017-25.437-8.057-38.04-12.396
		c-86.208-11.291-173.142-16.171-259.408-26.864c-128.91,5.145-257.797,10.842-386.729,15.227
		c-6.584,0.414-13.455-0.748-19.808,1.358c-8.126,3.51-8.161,16.367-0.599,20.545c10.244,6.112,21.443,10.416,31.917,16.102
		c15.492,7.481,30.674,15.619,46.235,22.951c101.562-3.361,203.183-6.975,304.768-10.29c28.038-0.714,56.03-2.279,84.056-2.946
		c17.276-1.278,34.645-0.564,51.898-2.245c23.71-2.866,47.478-5.294,71.2-8.057c15.814-1.968,31.698-3.545,47.604-4.546
		C865.569,545.28,856.523,558.251,846.06,568.472z M562.148,505.985c25.598,2.693,51.299,4.351,76.92,6.745
		c77.058,6.641,154.036,14.468,231.163,20.361c-0.011,0.138-0.034,0.414-0.057,0.552c-39.456,3.557-78.762,8.862-118.183,12.741
		c-26.116,0.437-52.197,1.865-78.301,2.682c-53.67,2.221-107.386,3.384-161.057,5.421c-62.556,2.037-125.111,4.098-187.667,6.112
		c-1.657,0.207-3.223-0.057-4.696-0.794c-20.925-9.91-41.263-20.994-62.176-30.938c-4.259-2.256-8.863-3.936-12.788-6.745
		c-2.463-1.83-0.449-6.388,2.509-6.215c47.593-1.565,95.175-3.453,142.768-5.156c54.534-2.003,109.078-4.017,163.566-6.779
		C556.888,504.305,559.363,505.778,562.148,505.985z M909.94,619.932c-12.868,5.375-28.498,2.728-38.984-6.411
		c-13.075-11.049-16.735-31.134-9.127-46.315c4.799-10.175,14.468-17.863,25.494-20.165c19.923-4.719,41.999,9.841,45.418,30.029
		C936.688,594.404,926.387,613.383,909.94,619.932z M897.06,538.466c1.243-2.486,4.569-2.348,6.745-1.255
		c6.848,2.993,13.881,5.605,20.649,8.793c2.44,0.944,3.2,3.729,4.523,5.732C919.7,544.785,908.789,539.352,897.06,538.466z
		 M954.022,587.981c-4.42-9.714-8.897-19.394-13.501-29.028c-3.119-6.123-4.961-13.075-9.277-18.462
		c-8.345-3.464-16.781-6.733-25.08-10.29c-3.568-1.715-7.608-1.324-11.406-1.842c-16.827-2.475-33.793-3.614-50.689-5.398
		c-46.454-3.833-92.884-7.919-139.315-12.074c-35.554-2.924-71.05-6.526-106.661-8.575c17.15-0.691,34.322-1.174,51.472-1.922
		c49.93,5.905,100.009,10.405,150.076,15.009c22.951,1.6,45.809,4.431,68.702,6.791c10.359,0.863,20.66,2.383,30.996,3.58
		c5.191,0.196,10.06,2.164,14.963,3.706c10.808,3.672,21.777,6.814,32.55,10.589c5.72,15.953,12.166,31.652,17.76,47.651
		C961.078,587.693,957.544,587.82,954.022,587.981z"/>
	<path d="M273.309,441.968c11.268,0.012,15.412-15.573,8.609-23.146c-2.302-2.302-5.456-3.994-8.782-3.856
		c-70.21,0.012-140.42,0.115-210.606,0.023c-0.495,0.058-1.485,0.196-1.991,0.253c-8.678,1.6-12.327,12.27-8.77,19.659
		c2.555,3.994,6.94,7.539,11.936,7.102C133.569,441.853,203.445,442.083,273.309,441.968z M63.658,434.13
		c-5.559,0.207-7.24-7.102-3.453-10.439c1.899-0.391,3.821-0.702,5.778-0.61c68.299,0.046,136.61-0.081,204.921,0.046
		c2.06,0.069,4.799-0.322,5.997,1.853c1.186,2.854,1.059,7.194-2.106,8.713c-2.382,0.76-4.949,0.368-7.401,0.46
		C199.486,434.199,131.566,434.176,63.658,434.13z"/>
	<path style="fill:#040404;" d="M889.659,564.306c-11.682,2.728-18.37,17.023-13.409,27.819c3.856,9.611,15.561,15.63,25.494,11.993
		c9.265-2.878,15.469-12.707,14.33-22.306C915.154,569.496,901.307,560.657,889.659,564.306z M907.879,585.092
		c-0.449,7.032-7.194,13.121-14.318,11.89c-6.987-1.001-11.982-8.46-10.485-15.297c1.013-4.397,4.512-8.068,8.713-9.622
		C899.685,569.347,909.099,576.69,907.879,585.092z"/>
</g>
</svg>
