<?xml version="1.0" encoding="utf-8"?>
<!-- Generator: Adobe Illustrator 27.5.0, SVG Export Plug-In . SVG Version: 6.00 Build 0)  -->
<svg xmlns="http://www.w3.org/2000/svg" xmlns:xlink="http://www.w3.org/1999/xlink" viewBox="0 0 500 500" width="595" height="842" preserveAspectRatio="xMidYMid meet" data-scaled="true">
<g id="BACKGROUND">
	<rect y="0" style="fill:#FFFFFF;" width="500" height="500"/>
</g>
<g id="OBJECTS">
	<g>
		<g>
			<g>
				
					<path style="fill:#FFFFFF;stroke:#000000;stroke-width:1.5;stroke-linecap:round;stroke-linejoin:round;stroke-miterlimit:10;" d="
					M125.346,316.106c-24.6-34.428-26.464-54.669-26.464-54.669l-2.265-13.974l4.813,6.239c0,0,0.06,21.695,27.663,61.418"/>
			</g>
			<g>
				
					<path style="fill:#FFFFFF;stroke:#000000;stroke-width:1.5;stroke-linecap:round;stroke-linejoin:round;stroke-miterlimit:10;" d="
					M153.908,261.284c0,0,4.412,36.996-28.289,48.048C125.619,309.332,115.695,284.076,153.908,261.284z"/>
				
					<path style="fill:#FFFFFF;stroke:#000000;stroke-width:1.5;stroke-linecap:round;stroke-linejoin:round;stroke-miterlimit:10;" d="
					M153.908,261.284c0,0-21.584,24.591-28.289,48.048"/>
			</g>
			<g>
				
					<path style="fill:#FFFFFF;stroke:#000000;stroke-width:1.5;stroke-linecap:round;stroke-linejoin:round;stroke-miterlimit:10;" d="
					M138.939,232.562c0,0,4.566,38.286-29.275,49.723C109.664,282.285,99.394,256.149,138.939,232.562z"/>
				
					<path style="fill:#FFFFFF;stroke:#000000;stroke-width:1.5;stroke-linecap:round;stroke-linejoin:round;stroke-miterlimit:10;" d="
					M138.939,232.562c0,0-22.336,25.448-29.275,49.723"/>
			</g>
			<g>
				
					<path style="fill:#FFFFFF;stroke:#000000;stroke-width:1.5;stroke-linecap:round;stroke-linejoin:round;stroke-miterlimit:10;" d="
					M106.76,199.524c0,0,19.286,33.449-7.2,57.399C99.56,256.923,79.842,236.924,106.76,199.524z"/>
				
					<path style="fill:#FFFFFF;stroke:#000000;stroke-width:1.5;stroke-linecap:round;stroke-linejoin:round;stroke-miterlimit:10;" d="
					M106.76,199.524c0,0-10.421,32.292-7.2,57.399"/>
			</g>
			<g>
				
					<path style="fill:#FFFFFF;stroke:#000000;stroke-width:1.5;stroke-linecap:round;stroke-linejoin:round;stroke-miterlimit:10;" d="
					M64.963,301.798c0,0,27.167,21.954,50.743,1.506C115.705,303.305,100.3,282.831,64.963,301.798z"/>
				
					<path style="fill:#FFFFFF;stroke:#000000;stroke-width:1.5;stroke-linecap:round;stroke-linejoin:round;stroke-miterlimit:10;" d="
					M64.963,301.798c0,0,29.199-4.87,50.743,1.506"/>
			</g>
			<g>
				
					<path style="fill:#FFFFFF;stroke:#000000;stroke-width:1.5;stroke-linecap:round;stroke-linejoin:round;stroke-miterlimit:10;" d="
					M59.975,250.259c0,0,11.543,32.971,42.421,28.204C102.395,278.463,100.088,252.986,59.975,250.259z"/>
				
					<path style="fill:#FFFFFF;stroke:#000000;stroke-width:1.5;stroke-linecap:round;stroke-linejoin:round;stroke-miterlimit:10;" d="
					M59.975,250.259c0,0,27.44,11.382,42.421,28.204"/>
			</g>
		</g>
		<g>
			<g>
				
					<path style="fill:#FFFFFF;stroke:#000000;stroke-width:1.5;stroke-linecap:round;stroke-linejoin:round;stroke-miterlimit:10;" d="
					M357.79,311.046c16.22-26.289,17.61-41.382,17.61-41.382l2.265-13.974l-4.813,6.239c0,0-0.047,17.121-19.41,48.793"/>
			</g>
			<g>
				
					<path style="fill:#FFFFFF;stroke:#000000;stroke-width:1.5;stroke-linecap:round;stroke-linejoin:round;stroke-miterlimit:10;" d="
					M349.798,311.022c0.371-8.987-3.135-25.833-29.424-41.512c0,0-1.724,14.452,4.967,27.988"/>
				
					<path style="fill:#FFFFFF;stroke:#000000;stroke-width:1.5;stroke-linecap:round;stroke-linejoin:round;stroke-miterlimit:10;" d="
					M320.374,269.51c0,0,17.801,20.28,26.093,41.575"/>
			</g>
			<g>
				
					<path style="fill:#FFFFFF;stroke:#000000;stroke-width:1.5;stroke-linecap:round;stroke-linejoin:round;stroke-miterlimit:10;" d="
					M335.343,240.788c0,0-4.566,38.286,29.275,49.723C364.618,290.511,374.888,264.375,335.343,240.788z"/>
				
					<path style="fill:#FFFFFF;stroke:#000000;stroke-width:1.5;stroke-linecap:round;stroke-linejoin:round;stroke-miterlimit:10;" d="
					M335.343,240.788c0,0,22.336,25.448,29.275,49.723"/>
			</g>
			<g>
				
					<path style="fill:#FFFFFF;stroke:#000000;stroke-width:1.5;stroke-linecap:round;stroke-linejoin:round;stroke-miterlimit:10;" d="
					M384.445,208.793c0,0-28.57,25.972-10.651,56.86C373.794,265.653,398.672,252.622,384.445,208.793z"/>
				
					<path style="fill:#FFFFFF;stroke:#000000;stroke-width:1.5;stroke-linecap:round;stroke-linejoin:round;stroke-miterlimit:10;" d="
					M384.445,208.793c0,0,0.074,33.932-10.651,56.86"/>
			</g>
			<g>
				
					<path style="fill:#FFFFFF;stroke:#000000;stroke-width:1.5;stroke-linecap:round;stroke-linejoin:round;stroke-miterlimit:10;" d="
					M359.174,310.832c3.141-3.426,18.803-17.632,50.146-0.808"/>
				
					<path style="fill:#FFFFFF;stroke:#000000;stroke-width:1.5;stroke-linecap:round;stroke-linejoin:round;stroke-miterlimit:10;" d="
					M409.319,310.024c0,0-29.199-4.87-50.742,1.506"/>
			</g>
			<g>
				
					<path style="fill:#FFFFFF;stroke:#000000;stroke-width:1.5;stroke-linecap:round;stroke-linejoin:round;stroke-miterlimit:10;" d="
					M414.307,258.485c0,0-11.543,32.971-42.421,28.204C371.887,286.689,374.194,261.212,414.307,258.485z"/>
				
					<path style="fill:#FFFFFF;stroke:#000000;stroke-width:1.5;stroke-linecap:round;stroke-linejoin:round;stroke-miterlimit:10;" d="
					M414.307,258.485c0,0-27.44,11.382-42.421,28.204"/>
			</g>
		</g>
	</g>
	<g>
		<path style="fill:none;stroke:#000000;stroke-width:1.5;stroke-linecap:round;stroke-linejoin:round;stroke-miterlimit:10;" d="
			M55.784,317.807c0,0-8.471,25.788-5.835,60.8l9.318,1.694l0.188,5.553l-9.882,0.282c0,0-2.353,25.788,4.8,37.835"/>
		<path style="fill:none;stroke:#000000;stroke-width:1.5;stroke-linecap:round;stroke-linejoin:round;stroke-miterlimit:10;" d="
			M347.44,426.727l84.437,0.633c0,0-11.859-37.27-7.341-59.294l-35.576-4.518l34.447-5.082l0.565-16.376l-18.635-2.824l18.635-6.212
			c0,0,1.694-12.988,16.376-22.588c0,0-28.367,0.158-96.839,1.305"/>
		<path style="fill:none;stroke:#000000;stroke-width:1.5;stroke-linecap:round;stroke-linejoin:round;stroke-miterlimit:10;" d="
			M169.583,315.192c-34.146,0.748-71.993,1.614-113.799,2.615c0,0,6.776,25.976,2.824,40.094l25.976,2.259l-27.106,3.388
			c0,0,4.679,26.875,0.565,46.306c-2.541,12-2.823,14.682-2.823,14.682l70.306,0.527"/>
		<path style="fill:none;stroke:#000000;stroke-width:1.5;stroke-linecap:round;stroke-linejoin:round;stroke-miterlimit:10;" d="
			M440.348,310.466c0,0,16.565,1.506,14.306,58.729l-17.694-0.376l18.07,8.282c0,0-0.376,13.929-3.012,21.459l-12.423-4.518
			l11.294,10.541c0,0-6.777,22.965-19.012,22.776"/>
		<path style="fill:none;stroke:#000000;stroke-linecap:round;stroke-linejoin:round;stroke-miterlimit:10;" d="M105.855,398.989
			c-10.745-2.432-17.883-7.847-17.883-11.535c0-4.886,13.653-8.847,30.494-8.847c6.022,0,11.637,0.506,16.365,1.38"/>
		<path style="fill:none;stroke:#000000;stroke-linecap:round;stroke-linejoin:round;stroke-miterlimit:10;" d="M347.439,426.947
			c4.975,0.503,9.991,0.533,15.055-0.067c12.001-1.421,23.269-6.334,34.335-11.19c8.689-3.813,19.772-9.176,28.461-12.989"/>
		<path style="fill:none;stroke:#000000;stroke-linecap:round;stroke-linejoin:round;stroke-miterlimit:10;" d="M60.707,396.357
			c7.05-2.036,14.659,0.236,21.17,3.62c6.511,3.384,12.437,7.881,19.183,10.768c4.606,1.971,9.545,3.107,14.541,3.425"/>
		<path style="fill:none;stroke:#000000;stroke-linecap:round;stroke-linejoin:round;stroke-miterlimit:10;" d="M369.974,391.305
			c7.104-2.467,14.049-5.398,20.982-8.325c10.414-4.396,20.991-7.353,32.081-5.159"/>
		<path style="fill:none;stroke:#000000;stroke-linecap:round;stroke-linejoin:round;stroke-miterlimit:10;" d="M59.549,377.101
			c26.519-5.04,55.431-8.133,82.421-7.644c4.445,0.081,8.888,0.237,13.326,0.465"/>
		<path style="fill:none;stroke:#000000;stroke-linecap:round;stroke-linejoin:round;stroke-miterlimit:10;" d="M366.665,358.418
			c8.649,2.103,18.243-2.322,26.752-6.048c9.711-4.253,22.464-7.083,29.762,0.606"/>
		<path style="fill:none;stroke:#000000;stroke-linecap:round;stroke-linejoin:round;stroke-miterlimit:10;" d="M60.022,346.9
			c37.152,3.798,74.305,7.597,111.457,11.395"/>
		<path style="fill:none;stroke:#000000;stroke-linecap:round;stroke-linejoin:round;stroke-miterlimit:10;" d="M354.984,326.962
			c2.472,0.298,4.945,0.697,7.417,1.207c9.105,1.878,17.938,5.253,27.214,5.928c12.7,0.925,23.736-3.032,35.767-7.162"/>
		<path style="fill:none;stroke:#000000;stroke-linecap:round;stroke-linejoin:round;stroke-miterlimit:10;" d="M59.77,333.438
			c29.7-8.207,61.339-4.133,91.677,1.33c5.801,1.044,11.613,2.139,17.435,3.206"/>
		<path style="fill:none;stroke:#000000;stroke-linecap:round;stroke-linejoin:round;stroke-miterlimit:10;" d="M128.421,316.106
			c12.945,5.643,26.492,9.833,40.331,12.573"/>
		<path style="fill:none;stroke:#000000;stroke-linecap:round;stroke-linejoin:round;stroke-miterlimit:10;" d="M360.917,311.724
			c21.125,13.415,49.353,14.8,71.69,3.518"/>
		<path style="fill:none;stroke:#000000;stroke-linecap:round;stroke-linejoin:round;stroke-miterlimit:10;" d="M57.595,412.986
			c5.994-2.31,12.815-0.611,18.602,2.178c4.279,2.062,8.265,4.697,12.573,6.696c4.308,1.999,9.096,3.361,13.791,2.645"/>
		<path style="fill:none;stroke:#000000;stroke-linecap:round;stroke-linejoin:round;stroke-miterlimit:10;" d="M360.163,411.247
			c8.906,2.298,18.482,1.928,27.185-1.048c2.36-0.807,4.73-1.851,6.427-3.679s2.576-4.606,1.572-6.89
			c-0.819-1.863-2.725-3.067-4.701-3.552c-1.976-0.485-4.045-0.356-6.076-0.224c-5.332,0.346-10.664,0.692-15.997,1.039"/>
	</g>
	<g>
		<path style="fill:none;stroke:#000000;stroke-width:2.5;stroke-linecap:round;stroke-linejoin:round;stroke-miterlimit:10;" d="
			M284.489,256.254c0,0,6.023,16.941,15.812,25.223c9.788,8.282,58.353,33.882,56.47,52.329c0,0,26.729,51.576,6.024,71.153
			c0,0-12.424,28.612-29.741,28.235c0,0-43.294,37.647-109.553,35.388c-66.259-2.259-75.294-25.977-73.412-29.741
			c0,0-30.118-9.035-25.6-18.823c0,0-17.694-10.918-18.824-19.2c-1.129-8.282,10.541-10.541,35.388-23.718
			c24.847-13.176,33.882-18.071,91.859-5.647c57.976,12.423,68.141,11.294,83.2-5.271"/>
		<path style="fill:none;stroke:#000000;stroke-width:2.5;stroke-linecap:round;stroke-linejoin:round;stroke-miterlimit:10;" d="
			M164.207,110.937c0,0,29.365,17.506,37.082,36.518c0,0-7.153-5.647-10.353-3.576c-3.2,2.071,3.012,11.482,3.012,11.482
			s-7.341-2.824-9.035,0.188c-1.694,3.012,1.506,7.906,1.506,7.906"/>
		<path style="fill:none;stroke:#000000;stroke-width:2.5;stroke-linecap:round;stroke-linejoin:round;stroke-miterlimit:10;" d="
			M270.372,132.96c0,0,19.953,9.6,21.835,25.035c1.882,15.435-2.447,35.388-2.447,35.388"/>
		<path style="fill:none;stroke:#000000;stroke-width:2.5;stroke-linecap:round;stroke-linejoin:round;stroke-miterlimit:10;" d="
			M175.313,258.513c0,0-15.059,21.835-7.153,25.223c0,0-8.659,28.612,5.647,30.118c0,0,3.765,15.812,14.306,13.929
			c0,0,4.894,21.459,15.435,22.965c0,0,7.906,11.671,13.929,11.671s16.941-7.906,21.835-24.847c0,0,11.294-2.259,18.823-18.447
			c0,0,16.565,2.635,15.435-26.729c0,0,10.165,0.376,2.635-29.741"/>
		<g>
			<path style="stroke:#000000;stroke-width:2.5;stroke-linecap:round;stroke-linejoin:round;stroke-miterlimit:10;" d="
				M308.742,219.237c1.565-6.261,1.981-11.343,1.912-13.618c-0.275-9.08-3.2-16.188-16.188-13.176
				c-2.544,0.59-5.437,1.398-8.442,2.314C289.2,203.747,295.659,214.536,308.742,219.237z"/>
			<path style="fill:none;stroke:#000000;stroke-width:2.5;stroke-linecap:round;stroke-linejoin:round;stroke-miterlimit:10;" d="
				M165.148,173.807c0,0-24.847,34.259-19.2,42.917c2.635,4.894,9.788,1.882,9.788,1.882s-5.271,23.718,4.518,27.859
				c5.647,3.388,12.8-1.882,12.8-1.882s-0.603,9.938,4.518,15.059c5.271,5.271,20.329,7.906,41.035-7.529
				c10.747-8.012,15.511-17.038,20.634-25.736c7.332-12.448,18.783-21.94,32.387-26.804c4.445-1.589,9.567-3.344,14.396-4.816
				c3.176,8.99,9.635,19.78,22.718,24.48c-2.709,10.836-8.871,25.214-21.994,34.758c-21.149,15.381-39.529,17.694-70.212,9.788"/>
			<path style="fill:none;stroke:#000000;stroke-width:2.5;stroke-linecap:round;stroke-linejoin:round;stroke-miterlimit:10;" d="
				M212.584,138.419c-6.965-12.612-29.365-28.988-29.365-28.988s-21.082-17.694-28.235-7.529
				c-7.153,10.165-1.694,23.906-1.694,23.906c-12.8,4.141,3.953,41.412,11.859,48"/>
			<path style="fill:none;stroke:#000000;stroke-width:2.5;stroke-linecap:round;stroke-linejoin:round;stroke-miterlimit:10;" d="
				M268.301,135.972c0,0,3.765-3.953,1.318-7.718c-2.447-3.765-12.8,0.376-12.8,0.376c1.967-3.002,1.486-4.923,0.654-6.043
				c-0.568-0.765-1.43-1.27-2.357-1.492c-21.39-5.106-42.532,17.323-42.532,17.323"/>
		</g>
		<path style="fill:#FFFFFF;stroke:#000000;stroke-width:2;stroke-linecap:round;stroke-linejoin:round;stroke-miterlimit:10;" d="
			M182.842,285.901c0,0-3.106,15.812,2.541,17.224c5.647,1.412,7.624-7.906,7.624-7.906s0,20.612,7.059,22.871
			c7.059,2.259,7.341-14.4,7.341-14.4"/>
		<path style="fill:#FFFFFF;stroke:#000000;stroke-width:2;stroke-linecap:round;stroke-linejoin:round;stroke-miterlimit:10;" d="
			M231.125,290.136c0,0,1.896,14.001,6.212,13.835c7.341-0.282,7.059-19.2,7.059-19.2s3.106,14.118,7.906,12.988
			c4.8-1.129,3.388-20.894,3.388-20.894"/>
		<path style="fill:#FFFFFF;stroke:#000000;stroke-width:2;stroke-linecap:round;stroke-linejoin:round;stroke-miterlimit:10;" d="
			M218.701,325.148c0,0-0.282,11.294,3.953,10.165c4.235-1.129,5.082-14.965,5.082-14.965"/>
		<path d="M235.842,203.669c0.742,3.179,3.741,5.197,6.697,4.507c2.956-0.69,4.751-3.827,4.009-7.007
			c-0.742-3.179-3.741-5.197-6.697-4.507C236.895,197.352,235.1,200.489,235.842,203.669z"/>
		<path style="fill:none;stroke:#000000;stroke-width:2.5;stroke-linecap:round;stroke-linejoin:round;stroke-miterlimit:10;" d="
			M235.224,186.778c0,0-9.7,2.893-8.007,13.076"/>
		
			<ellipse transform="matrix(0.9252 -0.3795 0.3795 0.9252 -70.0877 106.1726)" style="fill:#FFFFFF;stroke:#000000;stroke-width:1.5;stroke-linecap:round;stroke-linejoin:round;stroke-miterlimit:10;" cx="234.231" cy="230.842" rx="13.553" ry="13.553"/>
		<path style="fill:none;stroke:#000000;stroke-width:2.5;stroke-linecap:round;stroke-linejoin:round;stroke-miterlimit:10;" d="
			M266.983,217.572c0,0,1.694,14.965,15.247,13.271"/>
		<path style="fill:none;stroke:#000000;stroke-width:2.5;stroke-linecap:round;stroke-linejoin:round;stroke-miterlimit:10;" d="
			M238.677,121.645c7.378-6.702,14.357-11.804,14.357-11.804s21.082-17.694,28.235-7.529s1.694,23.906,1.694,23.906
			c5.536,1.791,5.544,9.78,3.13,18.803"/>
		<path style="fill:none;stroke:#000000;stroke-width:2.5;stroke-linecap:round;stroke-linejoin:round;stroke-miterlimit:10;" d="
			M242.587,373.492c6.971,5.093,13.855,11.579,13.667,17.55c-0.376,11.931-19.953,11.931-38.023,10.696
			c0,0,17.694,2.88,18.447,11.931c0.753,9.051-18.071,6.171-18.071,6.171s31.624,2.468,31.624,12.753s-26.353,11.108-26.353,11.108
			s45.176,1.646,46.306,12.753c0.272,2.679-0.55,5.335-2.378,7.902"/>
		<path style="fill:none;stroke:#000000;stroke-width:2.5;stroke-linecap:round;stroke-linejoin:round;stroke-miterlimit:10;" d="
			M280.725,379.736c0,0-0.376-12.8,7.529-21.082c7.906-8.282,20.329-19.577,20.329-19.577"/>
		<path style="fill:none;stroke:#000000;stroke-width:2.5;stroke-linecap:round;stroke-linejoin:round;stroke-miterlimit:10;" d="
			M291.64,293.441c0,0,3.642,41.867-9.002,74.081"/>
		<path style="fill:none;stroke:#000000;stroke-width:2.5;stroke-linecap:round;stroke-linejoin:round;stroke-miterlimit:10;" d="
			M249.478,332.301c0,0-0.376,35.012,0,41.412"/>
		<path style="fill:none;stroke:#000000;stroke-width:2.5;stroke-linecap:round;stroke-linejoin:round;stroke-miterlimit:10;" d="
			M170.042,313.101c0,0-4.518,31.247,3.012,50.823"/>
		<path style="fill:none;stroke:#000000;stroke-width:2.5;stroke-linecap:round;stroke-linejoin:round;stroke-miterlimit:10;" d="
			M200.536,365.807c0,0-2.824-11.577-3.576-18.353"/>
		<g>
			<path style="fill:none;stroke:#000000;stroke-linecap:round;stroke-linejoin:round;stroke-miterlimit:10;" d="M319.946,421.75
				c-1.287,0.692-2.573,1.385-3.86,2.077"/>
			<path style="fill:none;stroke:#000000;stroke-linecap:round;stroke-linejoin:round;stroke-miterlimit:10;" d="M309.603,423.373
				c-1.035,0.533-2.07,1.066-3.104,1.6"/>
			<path style="fill:none;stroke:#000000;stroke-linecap:round;stroke-linejoin:round;stroke-miterlimit:10;" d="M316.985,428.837
				c-0.667,0.449-1.335,0.897-2.002,1.346"/>
			<path style="fill:none;stroke:#000000;stroke-linecap:round;stroke-linejoin:round;stroke-miterlimit:10;" d="M294.911,428.758
				c-1.858,0.731-3.716,1.463-5.573,2.194"/>
			<path style="fill:none;stroke:#000000;stroke-linecap:round;stroke-linejoin:round;stroke-miterlimit:10;" d="M296.079,436.122
				c-1.034,0.535-2.067,1.071-3.101,1.607"/>
			<path style="fill:none;stroke:#000000;stroke-linecap:round;stroke-linejoin:round;stroke-miterlimit:10;" d="M301.798,421.706
				c-1.766,0.71-2.708,1.223-4.474,1.933"/>
			<path style="fill:none;stroke:#000000;stroke-linecap:round;stroke-linejoin:round;stroke-miterlimit:10;" d="M303.277,429.77
				c-1.287,0.692-2.573,1.385-3.86,2.077"/>
			<path style="fill:none;stroke:#000000;stroke-linecap:round;stroke-linejoin:round;stroke-miterlimit:10;" d="M306.717,434.918
				c-1.212,0.605-2.424,1.21-3.636,1.815"/>
			<path style="fill:none;stroke:#000000;stroke-linecap:round;stroke-linejoin:round;stroke-miterlimit:10;" d="M286.078,436.553
				c-1.659,0.62-3.317,1.239-4.976,1.859"/>
		</g>
		<g>
			<path style="fill:none;stroke:#000000;stroke-linecap:round;stroke-linejoin:round;stroke-miterlimit:10;" d="M333.849,327.346
				c-0.988-1.475-1.975-2.949-2.963-4.424"/>
			<path style="fill:none;stroke:#000000;stroke-linecap:round;stroke-linejoin:round;stroke-miterlimit:10;" d="M326.558,323.55
				c-0.844-0.844-1.689-1.688-2.533-2.532"/>
			<path style="fill:none;stroke:#000000;stroke-linecap:round;stroke-linejoin:round;stroke-miterlimit:10;" d="M328.418,318.583
				c-1.348-1.404-2.696-2.807-4.044-4.211"/>
			<path style="fill:none;stroke:#000000;stroke-linecap:round;stroke-linejoin:round;stroke-miterlimit:10;" d="M318.581,310.469
				c-0.891-0.802-1.782-1.604-2.673-2.406"/>
			<path style="fill:none;stroke:#000000;stroke-linecap:round;stroke-linejoin:round;stroke-miterlimit:10;" d="M332.64,314.276
				c-1.268-1.222-2.537-2.444-3.805-3.666"/>
			<path style="fill:none;stroke:#000000;stroke-linecap:round;stroke-linejoin:round;stroke-miterlimit:10;" d="M331.791,333.022
				c-0.672-0.746-1.343-1.492-2.015-2.238"/>
			<path style="fill:none;stroke:#000000;stroke-linecap:round;stroke-linejoin:round;stroke-miterlimit:10;" d="M342.354,332.378
				c-0.732-1.282-1.465-2.565-2.197-3.847"/>
		</g>
	</g>
	<g>
		
			<path style="fill:#FFFFFF;stroke:#000000;stroke-width:1.5;stroke-linecap:round;stroke-linejoin:round;stroke-miterlimit:10;" d="
			M382.371,434.701c0,0,1.129-16.941,6.4-17.694c5.271-0.753,6.776,13.176,6.776,13.176s4.141-19.576,8.282-22.212
			c4.141-2.635,7.906,21.835,7.906,21.835s0.376-13.929,6.776-14.682c6.4-0.753,8.659,21.835,8.659,21.835"/>
		
			<path style="fill:#FFFFFF;stroke:#000000;stroke-width:1.5;stroke-linecap:round;stroke-linejoin:round;stroke-miterlimit:10;" d="
			M67.643,433.571c0,0-1.694-38.965,4.518-39.529c6.212-0.565,11.294,38.965,11.294,38.965s8.371-19.527,12.988-20.894
			c4.618-1.367,5.647,23.718,5.647,23.718"/>
	</g>
	<g>
		<g>
			
				<ellipse transform="matrix(0.3959 -0.9183 0.9183 0.3959 118.6819 418.2261)" style="fill:#FFFFFF;stroke:#000000;stroke-width:1.5;stroke-linecap:round;stroke-linejoin:round;stroke-miterlimit:10;" cx="377.228" cy="118.905" rx="36.483" ry="36.483"/>
			<g>
				<g>
					
						<path style="fill:#FFFFFF;stroke:#000000;stroke-width:1.5;stroke-linecap:round;stroke-linejoin:round;stroke-miterlimit:10;" d="
						M408.714,56.975c0.617,2.673,0.206,4.841-0.532,6.848c-0.816,1.969-1.867,3.822-2.921,5.674
						c-1.072,1.843-2.231,3.643-3.508,5.386c-1.277,1.742-2.659,3.433-4.297,4.998c-0.36,0.344-0.976,0.325-1.376-0.043
						c-0.237-0.218-0.344-0.516-0.317-0.789c0.238-2.253,0.732-4.38,1.332-6.455c0.6-2.075,1.317-4.092,2.121-6.067
						c0.822-1.966,1.648-3.93,2.708-5.779c1.138-1.811,2.603-3.46,5.097-4.605c0.549-0.252,1.25-0.021,1.566,0.517
						C408.647,56.761,408.689,56.87,408.714,56.975z"/>
				</g>
				<g>
					
						<path style="fill:#FFFFFF;stroke:#000000;stroke-width:1.5;stroke-linecap:round;stroke-linejoin:round;stroke-miterlimit:10;" d="
						M345.742,180.834c-0.617-2.673-0.206-4.841,0.532-6.848c0.817-1.969,1.867-3.822,2.921-5.674
						c1.072-1.843,2.231-3.643,3.508-5.386c1.277-1.742,2.659-3.433,4.297-4.998c0.361-0.344,0.976-0.325,1.376,0.043
						c0.237,0.218,0.344,0.515,0.317,0.789c-0.238,2.253-0.732,4.38-1.331,6.455c-0.6,2.075-1.317,4.093-2.121,6.067
						c-0.822,1.966-1.648,3.93-2.708,5.779c-1.138,1.81-2.603,3.46-5.097,4.605c-0.549,0.252-1.25,0.02-1.566-0.517
						C345.809,181.048,345.767,180.939,345.742,180.834z"/>
				</g>
			</g>
			<g>
				<g>
					
						<path style="fill:#FFFFFF;stroke:#000000;stroke-width:1.5;stroke-linecap:round;stroke-linejoin:round;stroke-miterlimit:10;" d="
						M439.158,150.391c-2.673,0.617-4.841,0.206-6.848-0.532c-1.969-0.816-3.822-1.867-5.674-2.921
						c-1.843-1.072-3.643-2.231-5.386-3.508c-1.742-1.277-3.433-2.659-4.998-4.297c-0.344-0.36-0.325-0.976,0.043-1.376
						c0.218-0.237,0.516-0.344,0.789-0.317c2.253,0.238,4.38,0.732,6.455,1.332c2.075,0.6,4.093,1.317,6.067,2.121
						c1.966,0.822,3.93,1.648,5.779,2.708c1.81,1.138,3.46,2.603,4.605,5.097c0.252,0.549,0.02,1.25-0.517,1.566
						C439.372,150.324,439.263,150.366,439.158,150.391z"/>
				</g>
				<g>
					
						<path style="fill:#FFFFFF;stroke:#000000;stroke-width:1.5;stroke-linecap:round;stroke-linejoin:round;stroke-miterlimit:10;" d="
						M315.299,87.419c2.673-0.617,4.841-0.206,6.848,0.532c1.969,0.816,3.822,1.867,5.674,2.921
						c1.843,1.072,3.643,2.231,5.386,3.508c1.742,1.277,3.433,2.659,4.998,4.297c0.344,0.36,0.325,0.976-0.043,1.376
						c-0.218,0.237-0.515,0.344-0.789,0.317c-2.253-0.238-4.38-0.732-6.455-1.331c-2.075-0.6-4.092-1.317-6.067-2.121
						c-1.966-0.822-3.93-1.648-5.779-2.708c-1.811-1.138-3.46-2.603-4.605-5.097c-0.252-0.549-0.02-1.25,0.517-1.566
						C315.084,87.486,315.194,87.443,315.299,87.419z"/>
				</g>
			</g>
			<g>
				<g>
					
						<path style="fill:#FFFFFF;stroke:#000000;stroke-width:1.5;stroke-linecap:round;stroke-linejoin:round;stroke-miterlimit:10;" d="
						M443.283,97.378c-1.454,2.327-3.277,3.569-5.219,4.466c-1.969,0.815-4.023,1.383-6.077,1.947
						c-2.061,0.545-4.154,0.998-6.289,1.328c-2.135,0.329-4.308,0.547-6.572,0.495c-0.498-0.011-0.92-0.46-0.943-1.003
						c-0.013-0.322,0.121-0.608,0.334-0.782c1.762-1.424,3.615-2.579,5.506-3.623c1.891-1.043,3.825-1.963,5.79-2.79
						c1.971-0.809,3.944-1.613,6.001-2.172c2.085-0.475,4.288-0.606,6.86,0.348c0.566,0.21,0.898,0.869,0.742,1.473
						C443.387,97.179,443.34,97.286,443.283,97.378z"/>
				</g>
				<g>
					
						<path style="fill:#FFFFFF;stroke:#000000;stroke-width:1.5;stroke-linecap:round;stroke-linejoin:round;stroke-miterlimit:10;" d="
						M311.173,140.432c1.454-2.327,3.277-3.569,5.219-4.466c1.969-0.815,4.023-1.383,6.078-1.947
						c2.061-0.545,4.154-0.998,6.288-1.328c2.135-0.329,4.308-0.547,6.573-0.495c0.498,0.011,0.92,0.46,0.942,1.003
						c0.013,0.322-0.121,0.608-0.334,0.782c-1.762,1.424-3.615,2.579-5.506,3.623c-1.892,1.043-3.825,1.963-5.79,2.79
						c-1.971,0.809-3.944,1.613-6.001,2.172c-2.085,0.475-4.288,0.606-6.86-0.348c-0.566-0.21-0.898-0.869-0.742-1.473
						C311.069,140.63,311.117,140.523,311.173,140.432z"/>
				</g>
			</g>
			<g>
				<g>
					
						<path style="fill:#FFFFFF;stroke:#000000;stroke-width:1.5;stroke-linecap:round;stroke-linejoin:round;stroke-miterlimit:10;" d="
						M398.755,184.96c-2.327-1.454-3.569-3.277-4.467-5.219c-0.815-1.969-1.383-4.023-1.947-6.078
						c-0.545-2.061-0.998-4.154-1.328-6.288c-0.329-2.135-0.547-4.308-0.495-6.573c0.011-0.498,0.46-0.92,1.003-0.942
						c0.322-0.013,0.608,0.121,0.782,0.334c1.424,1.762,2.579,3.615,3.623,5.506c1.043,1.891,1.963,3.825,2.79,5.79
						c0.809,1.971,1.613,3.944,2.171,6.001c0.475,2.085,0.606,4.288-0.348,6.86c-0.21,0.566-0.869,0.898-1.473,0.742
						C398.954,185.064,398.847,185.016,398.755,184.96z"/>
				</g>
				<g>
					
						<path style="fill:#FFFFFF;stroke:#000000;stroke-width:1.5;stroke-linecap:round;stroke-linejoin:round;stroke-miterlimit:10;" d="
						M355.701,52.85c2.327,1.454,3.569,3.277,4.466,5.219c0.815,1.969,1.383,4.023,1.947,6.077c0.545,2.061,0.998,4.154,1.328,6.289
						c0.329,2.135,0.547,4.308,0.495,6.573c-0.011,0.498-0.46,0.92-1.003,0.942c-0.322,0.013-0.608-0.121-0.782-0.334
						c-1.424-1.761-2.579-3.615-3.623-5.506c-1.043-1.891-1.963-3.825-2.79-5.79c-0.809-1.971-1.613-3.944-2.171-6.001
						c-0.475-2.085-0.606-4.288,0.348-6.86c0.21-0.566,0.869-0.898,1.473-0.742C355.502,52.746,355.61,52.793,355.701,52.85z"/>
				</g>
			</g>
		</g>
		<path style="fill:none;stroke:#000000;stroke-linecap:round;stroke-linejoin:round;stroke-miterlimit:10;" d="M179.949,68.664
			h62.291c0,0-0.285-17.118-9.986-16.833c-6.467,0.285-8.559,10.841-8.559,10.841s1.997-20.256-11.412-22.254
			c-13.409-1.997-14.55,19.971-14.55,19.971s-2.055-9.807-8.939-10.271C180.329,49.549,179.949,68.664,179.949,68.664z"/>
		<path style="fill:none;stroke:#000000;stroke-linecap:round;stroke-linejoin:round;stroke-miterlimit:10;" d="M398.254,224.631
			h53.388c0,0-0.245-14.671-8.558-14.427c-5.543,0.244-7.336,9.292-7.336,9.292s1.712-17.361-9.781-19.073
			c-11.493-1.712-12.471,17.117-12.471,17.117s-1.761-8.405-7.662-8.803C398.58,208.247,398.254,224.631,398.254,224.631z"/>
		<path style="fill:none;stroke:#000000;stroke-linecap:round;stroke-linejoin:round;stroke-miterlimit:10;" d="M129.714,158.994
			H39.53c0,0,0.413-24.783,14.457-24.37c9.362,0.413,12.392,15.696,12.392,15.696s1.592-24.23,16.43-23.691
			c13.791,0.501,15.044,22.567,15.044,22.567s-0.517-34.08,15.797-33.85C131.452,115.596,129.714,158.994,129.714,158.994z"/>
	</g>
</g>
</svg>
