<?xml version="1.0" encoding="utf-8"?>
<!-- Generator: Adobe Illustrator 27.5.0, SVG Export Plug-In . SVG Version: 6.00 Build 0)  -->
<svg xmlns="http://www.w3.org/2000/svg" xmlns:xlink="http://www.w3.org/1999/xlink" viewBox="0 0 1920 1080" width="595" height="842" preserveAspectRatio="xMidYMid meet" data-scaled="true">
<g>
	<path style="fill-rule:evenodd;clip-rule:evenodd;fill:#D22626;" d="M88.305,627.918c32.42-3.301,58.186,3.272,77.3,19.719
		c13.296,10.751,8.164,17.564-5.268,20.046c-38.88,7.18-72.281,19.165-110.028,0.529c-13.675-6.75-19.967-16.447-2.177-28.331
		C59.207,632.481,72.599,628.493,88.305,627.918L88.305,627.918z"/>
	<path d="M88.1,625.099c33.163-3.363,59.599,3.423,79.303,20.357c3.713,3.006,6.147,5.804,7.477,8.37
		c1.363,2.63,1.634,5.075,0.969,7.313c-0.658,2.212-2.185,4.061-4.436,5.548c-2.581,1.706-6.2,2.968-10.569,3.775
		c-6.056,1.118-12.116,2.385-18.074,3.63c-31.951,6.677-61.085,12.765-93.715-3.345c-5.489-2.71-9.928-5.932-12.414-9.653
		c-1.267-1.897-2.043-3.914-2.224-6.05c-0.181-2.141,0.238-4.355,1.36-6.63c1.725-3.494,5.174-7.136,10.78-10.88
		c5.786-3.866,12.158-6.835,19.114-8.906C72.555,626.578,80.032,625.402,88.1,625.099L88.1,625.099z M88.582,630.731l-0.177,0.011
		c-7.597,0.278-14.636,1.382-21.115,3.311c-6.434,1.916-12.297,4.641-17.586,8.175c-4.73,3.16-7.553,6.054-8.853,8.688
		c-0.639,1.295-0.882,2.516-0.784,3.663c0.098,1.152,0.542,2.278,1.272,3.37c1.891,2.83,5.566,5.429,10.222,7.727
		c30.88,15.246,59.106,9.348,90.061,2.879c5.91-1.235,11.92-2.491,18.207-3.652c3.622-0.669,6.526-1.651,8.465-2.933
		c1.14-0.753,1.877-1.567,2.133-2.426c0.247-0.833,0.08-1.872-0.571-3.127C158.057,633.666,109.72,628.579,88.582,630.731
		L88.582,630.731z"/>
	<path d="M1856.743,557.287l7.348-146.278c0.1-1.999-0.578-3.86-1.777-5.278c-1.197-1.415-2.914-2.391-4.894-2.623l-34.16-3.997
		c-1.563-0.183-3.053,0.086-4.336,0.74c-1.282,0.653-2.374,1.696-3.141,3.06l-52.958,94.147c-3.008,5.347-7.678,9.19-13.04,11.169
		c-5.355,1.977-11.397,2.089-17.156-0.019l-113.48-41.562l-0.166-0.066c-0.299-0.132-103.333-46.871-199.687,9.025l-1.395,0.376
		l-231.401,2.157c-0.132,0-45.937-0.264-70.309,8.179l0.001,0.004c-0.093,0.035-32.244,12.174-49.011,30.997
		c-1.441,1.619-2.131,3.647-2.08,5.652c0.051,2.002,0.843,3.991,2.364,5.533c2.828,2.866,7.201,6.428,13.958,10.517
		c6.885,4.166,16.146,8.821,28.6,13.76l1.462,1.307c0.15,0.284,50.55,99.298,208.227,91.837l1.479-0.071
		c13.596-0.662,18.47-0.899,28.846,12.843l28.099-2.534c-0.065-0.359-0.126-0.718-0.18-1.077c-0.597-3.946-0.495-7.918,0.821-11.274
		c1.434-3.656,4.191-6.496,8.83-7.745c0.632-0.17,1.289-0.308,1.969-0.411l39.634-5.964l0.841,5.603l-39.634,5.964
		c-0.488,0.074-0.937,0.167-1.349,0.278c-2.659,0.716-4.224,2.303-5.02,4.335c-0.914,2.332-0.952,5.31-0.489,8.373
		c0.189,1.247,0.458,2.494,0.785,3.709l0.872,3.24l-37.844,3.412l-0.942-1.283c-9.244-12.588-13.228-12.394-24.973-11.822
		l-1.479,0.071c-152.597,7.22-207.392-83.819-212.999-93.927c-12.357-4.949-21.587-9.605-28.478-13.774
		c-7.197-4.354-11.942-8.237-15.065-11.403c-2.561-2.595-3.895-5.962-3.981-9.364c-0.087-3.4,1.073-6.828,3.497-9.55
		c17.699-19.869,51.129-32.489,51.226-32.525l0.078-0.022c25.047-8.712,71.322-8.52,72.245-8.515l230.618-2.151
		c97.523-56.099,201.343-10.197,204.078-8.974l113.383,41.526c4.454,1.631,9.123,1.546,13.257,0.019
		c4.127-1.523,7.726-4.49,10.051-8.622l52.958-94.147c1.332-2.368,3.248-4.188,5.511-5.341c2.262-1.152,4.857-1.63,7.547-1.316
		l34.16,3.997c3.466,0.405,6.473,2.115,8.57,4.594c2.094,2.477,3.28,5.721,3.106,9.198l-7.348,146.278L1856.743,557.287
		L1856.743,557.287z M1612.594,602.097l210.064-31.609l0.841,5.603L1613.436,607.7L1612.594,602.097L1612.594,602.097z"/>
	<path d="M1355.645,591.978c0.01-0.008,3.703-2.798,10.631-6.603c12.02-6.603,34.145-16.526,65.078-21.277
		c30.847-4.738,70.502-4.341,117.702,9.628l0.343,0.122l64.224,28.341l0.321,0.166l397.852,239.926
		c1.314,0.792,2.361,1.848,3.101,3.1c0.736,1.245,1.154,2.672,1.214,4.211c0.06,1.53-0.247,2.983-0.886,4.29
		c-0.641,1.309-1.603,2.445-2.851,3.337c-3.417,2.445-7.929,5.475-13.352,8.684c-5.424,3.209-11.806,6.623-19.001,9.855
		c-6.001,2.696-12.534,5.249-19.498,7.427c-6.969,2.179-14.418,3.997-22.264,5.224c-8.267,1.293-16.14,1.313-23.796,0.031
		c-7.668-1.285-15.107-3.868-22.491-7.781l-539.89-286.008L1355.645,591.978L1355.645,591.978z M1369,590.336
		c-2.543,1.397-4.598,2.626-6.167,3.611l531.772,281.708c6.851,3.629,13.725,6.022,20.787,7.205
		c7.075,1.185,14.354,1.166,22.002-0.031c7.49-1.171,14.672-2.929,21.445-5.047c6.779-2.12,13.099-4.588,18.878-7.184
		c6.923-3.11,13.123-6.43,18.426-9.567c5.303-3.138,9.667-6.067,12.953-8.418c0.476-0.34,0.833-0.753,1.057-1.211
		c0.225-0.461,0.333-0.999,0.31-1.588c-0.023-0.579-0.174-1.105-0.439-1.554c-0.261-0.443-0.65-0.827-1.152-1.129l-397.701-239.835
		l-63.91-28.202c-46.172-13.633-84.928-14.021-115.066-9.392C1402.1,574.324,1380.643,583.94,1369,590.336L1369,590.336z"/>
	<polygon points="1932.257,868.359 1388.625,580.21 1391.26,575.205 1934.892,863.355 1932.257,868.359 	"/>
	<path d="M2013.273,852.063c-24.121-0.291-44.496,2.487-61.122,8.335c-16.4,5.768-29.134,14.535-38.201,26.301l-4.474-3.455
		c9.745-12.646,23.35-22.041,40.814-28.183c17.238-6.063,38.255-8.945,63.049-8.645L2013.273,852.063L2013.273,852.063z"/>
	<path d="M1418.986,470.555c16.978,7.213,34.514,16.206,52.608,26.976c18.108,10.779,36.675,23.272,55.698,37.476
		c1.589,1.186,3.195,2.061,4.864,2.64c1.694,0.587,3.497,0.899,5.456,0.95l65.709,1.724c3.194,0.084,6.175-0.588,8.792-1.938
		c2.616-1.349,4.887-3.385,6.667-6.03c5.232-7.776,8.457-17.002,9.672-27.674c1.234-10.839,0.405-23.16-2.486-36.961l5.536-1.151
		c3.018,14.399,3.876,27.311,2.575,38.733c-1.32,11.589-4.854,21.656-10.602,30.199c-2.327,3.459-5.315,6.13-8.771,7.912
		c-3.453,1.781-7.356,2.667-11.516,2.558l-65.709-1.724c-2.544-0.067-4.91-0.48-7.161-1.26c-2.276-0.79-4.393-1.928-6.414-3.437
		c-18.993-14.183-37.39-26.572-55.188-37.166c-17.812-10.602-35.127-19.477-51.944-26.622L1418.986,470.555L1418.986,470.555z"/>
	<path d="M1616.907,460.853c2.366,8.986,3.533,17.792,3.502,26.416c-0.031,8.657-1.266,17.103-3.705,25.336
		c-1.53,5.163-4.605,9.445-8.648,12.42c-4.034,2.969-9.029,4.628-14.408,4.554L1543,528.883c-2.644-0.036-5.09-0.44-7.392-1.231
		c-2.318-0.796-4.495-1.976-6.589-3.559c-16.576-12.538-33.242-23.83-49.75-33.261c-16.484-9.418-32.826-16.999-48.785-22.136
		l1.727-5.381c16.355,5.265,33.05,13.003,49.848,22.601c16.775,9.584,33.642,21.006,50.37,33.659
		c1.607,1.215,3.265,2.117,5.016,2.718c1.765,0.606,3.625,0.916,5.621,0.943l50.648,0.697c4.113,0.057,7.926-1.207,10.999-3.469
		c3.064-2.255,5.399-5.514,6.566-9.453c2.293-7.741,3.454-15.655,3.484-23.742c0.029-8.12-1.079-16.447-3.325-24.977
		L1616.907,460.853L1616.907,460.853z"/>
	<path d="M1173.135,477.93l-131.393-81.283c-1.538-0.952-2.674-2.299-3.325-3.849c-0.651-1.549-0.818-3.302-0.422-5.063
		c0.394-1.749,1.299-3.259,2.559-4.388c1.261-1.13,2.862-1.866,4.644-2.066c13.251-1.487,27.235-1.484,41.952,0.01
		c14.674,1.49,30.068,4.463,46.179,8.918l0.31,0.099l199.013,81.029l-2.126,5.249l-198.906-80.986
		c-15.729-4.339-30.738-7.235-45.024-8.685c-14.306-1.452-27.899-1.455-40.778-0.01c-0.591,0.066-1.107,0.297-1.499,0.648
		c-0.393,0.352-0.68,0.841-0.81,1.421c-0.128,0.569-0.075,1.134,0.134,1.63c0.209,0.498,0.573,0.93,1.066,1.235l131.393,81.283
		L1173.135,477.93L1173.135,477.93z"/>
	<path d="M1064.311,380.58c100.47,59.372,159.93,91.819,160.104,91.914l-2.702,4.961c-0.175-0.095-60.004-32.745-160.28-92.002
		L1064.311,380.58L1064.311,380.58z"/>
	<path d="M1121.931,479.215c9.699,3.234,16.266,9.528,20.109,17.227c4.307,8.63,5.142,19.009,3.094,28.749l-5.537-1.151
		c1.799-8.555,1.095-17.613-2.628-25.073c-3.209-6.43-8.699-11.688-16.809-14.392L1121.931,479.215L1121.931,479.215z
		 M1127.256,552.984c-2.689,1.749-5.618,3.119-8.76,4.018c-2.978,0.852-6.17,1.286-9.557,1.226l0.089-5.647
		c2.783,0.049,5.429-0.314,7.919-1.026c2.609-0.747,5.026-1.874,7.232-3.309L1127.256,552.984L1127.256,552.984z"/>
	<path d="M1143.554,475.644c8.749,5.751,14.046,14.518,16.405,24.431c2.571,10.806,1.635,23.004-2.131,34.07l-5.359-1.816
		c3.436-10.095,4.3-21.177,1.976-30.947c-2.044-8.588-6.565-16.14-13.991-21.021L1143.554,475.644L1143.554,475.644z
		 M1136.589,563.029c-3.086,1.981-6.435,3.536-10.022,4.571c-3.405,0.982-6.999,1.482-10.756,1.415l0.089-5.647
		c3.198,0.057,6.244-0.364,9.117-1.193c3.004-0.867,5.852-2.197,8.516-3.907L1136.589,563.029L1136.589,563.029z"/>
	<path d="M1240.04,628.953c-13.169-20.475-28.018-39.232-44.547-56.271c-16.263-16.765-34.162-31.878-53.696-45.34
		c-4.717,1.03-8.429,3.055-11.133,6.074c-2.741,3.06-4.525,7.223-5.351,12.486c12.571,14.434,27.396,28.958,44.474,43.569
		c17.482,14.956,37.328,30.005,59.538,45.145c4.667,3.181,8.975,4.835,11.935,4.835c0.889,0,1.556-0.15,1.943-0.452
		c0.248-0.194,0.401-0.565,0.432-1.125C1243.743,635.995,1242.682,633.061,1240.04,628.953L1240.04,628.953z M1199.545,568.74
		c16.803,17.322,31.89,36.375,45.255,57.156c3.337,5.187,4.653,9.286,4.482,12.287c-0.131,2.3-1.054,4.053-2.602,5.266
		c-1.41,1.104-3.261,1.648-5.42,1.648c-4.035,0.001-9.517-1.987-15.124-5.81c-22.364-15.245-42.373-30.419-60.025-45.521
		c-17.67-15.118-32.978-30.166-45.92-45.143l-0.83-0.96l0.155-1.232c0.878-7.002,3.192-12.596,6.94-16.781
		c3.782-4.223,8.938-6.92,15.467-8.091l2.093,0.443C1164.235,535.842,1182.745,551.421,1199.545,568.74L1199.545,568.74z"/>
	<path d="M1092.808,494.903c-13.167-16.575-25.787-30.387-37.86-41.434c-12.007-10.986-23.488-19.26-34.442-24.82
		c-1.559-0.791-2.94-0.992-3.99-0.731c-0.522,0.13-0.949,0.382-1.249,0.731c-0.313,0.366-0.517,0.866-0.575,1.475
		c-0.128,1.342,0.392,3.107,1.8,5.17c8.103,11.865,17.449,23.3,28.036,34.303c10.607,11.025,22.459,21.619,35.553,31.78
		l-3.455,4.474c-13.324-10.339-25.382-21.118-36.173-32.334c-10.813-11.239-20.358-22.918-28.633-35.034
		c-2.211-3.238-2.998-6.317-2.753-8.891c0.173-1.816,0.847-3.386,1.904-4.619c1.07-1.25,2.508-2.129,4.193-2.547
		c2.296-0.57,5.05-0.266,7.888,1.174c11.396,5.784,23.298,14.353,35.705,25.705c12.341,11.292,25.169,25.318,38.48,42.076
		L1092.808,494.903L1092.808,494.903z"/>
	<path d="M1351.058,660.066c5.169,7.655,8.451,19.079,9.844,34.27c1.365,14.881,0.935,33.473-1.291,55.773l-5.625-0.554
		c2.192-21.961,2.622-40.198,1.291-54.71c-1.303-14.203-4.274-24.741-8.914-31.612L1351.058,660.066L1351.058,660.066z"/>
	<path d="M1384.388,658.163c2.721,14.469,3.621,29.167,2.568,44.548c-1.051,15.349-4.047,31.379-9.121,48.546l-5.426-1.595
		c4.953-16.756,7.876-32.385,8.9-47.327c1.021-14.91,0.152-29.139-2.479-43.131L1384.388,658.163L1384.388,658.163z"/>
	<path d="M1340.451,803.996l54.267-4.01c25.749-5.206,39.116-11.123,43.805-16.967c3.038-3.786,1.351-7.794-3.356-11.547
		c-5.755-4.589-15.511-8.726-27.082-11.877c-31.131-8.478-74.666-9.73-88.495,6.49c-2.87,3.366-4.486,6.734-5.088,9.988
		c-0.667,3.607-0.093,7.141,1.392,10.417c1.536,3.388,4.046,6.514,7.179,9.185C1327.86,799.757,1334.051,802.744,1340.451,803.996
		L1340.451,803.996z M1395.246,805.623l-54.741,4.045l-0.709-0.044c-7.5-1.388-14.785-4.866-20.399-9.653
		c-3.747-3.195-6.774-6.988-8.663-11.156c-1.94-4.28-2.683-8.944-1.791-13.761c0.778-4.206,2.798-8.478,6.351-12.645
		c15.351-18.006,61.548-17.196,94.275-8.284c12.266,3.341,22.744,7.833,29.12,12.917c7.424,5.92,9.768,12.632,4.241,19.52
		c-5.47,6.817-19.983,13.497-47.329,19.006L1395.246,805.623L1395.246,805.623z"/>
	<path d="M1194.429,630.742c-7.597,0.278-14.636,1.382-21.115,3.311c-6.434,1.916-12.297,4.641-17.586,8.175
		c-4.73,3.16-7.553,6.054-8.853,8.688c-0.64,1.296-0.881,2.517-0.784,3.663c0.098,1.151,0.542,2.278,1.272,3.37
		c1.891,2.83,5.566,5.429,10.222,7.727c30.88,15.246,59.106,9.348,90.061,2.879c5.91-1.235,11.92-2.491,18.207-3.652
		c3.622-0.669,6.526-1.651,8.465-2.933c1.14-0.754,1.878-1.567,2.133-2.427c0.248-0.833,0.08-1.872-0.571-3.127
		c-0.98-1.89-2.934-4.08-6.021-6.576l3.543-4.407c3.728,3.015,6.17,5.82,7.504,8.392c1.363,2.63,1.634,5.074,0.969,7.313
		c-0.658,2.212-2.185,4.061-4.436,5.549c-2.581,1.706-6.2,2.968-10.569,3.775c-6.056,1.118-12.116,2.385-18.074,3.63
		c-31.951,6.677-61.085,12.765-93.715-3.345c-5.489-2.71-9.928-5.932-12.414-9.653c-1.267-1.897-2.042-3.914-2.224-6.05
		c-0.181-2.141,0.237-4.355,1.36-6.63c1.725-3.494,5.175-7.136,10.78-10.88c5.786-3.866,12.158-6.835,19.114-8.906
		c6.912-2.058,14.424-3.236,22.532-3.533L1194.429,630.742L1194.429,630.742z"/>
	<path d="M1220.947,676.521c0.017,0.208,0.036,0.542,0.054,0.996c0.019,0.467,0.029,0.801,0.029,0.986
		c0,6.516-2.641,12.416-6.912,16.686c-4.271,4.27-10.17,6.912-16.686,6.912c-6.516,0-12.416-2.642-16.686-6.912
		c-4.271-4.27-6.912-10.17-6.912-16.686c0-0.521,0.022-1.082,0.063-1.678v-0.011c0.04-0.556,0.1-1.116,0.18-1.676l5.603,0.797
		c-0.059,0.413-0.104,0.839-0.135,1.277c-0.028,0.385-0.042,0.815-0.042,1.29c0,4.951,2.007,9.434,5.251,12.678
		c3.244,3.244,7.727,5.251,12.678,5.251c4.951,0,9.434-2.007,12.678-5.251c3.244-3.244,5.251-7.727,5.251-12.678
		c0-0.4-0.002-0.651-0.007-0.765c-0.005-0.131-0.024-0.382-0.054-0.753L1220.947,676.521L1220.947,676.521z"/>
	<path d="M1398.655,802.866c-0.542,8.085-4.19,15.323-9.762,20.528c-5.532,5.169-12.959,8.333-21.121,8.333
		c-7.365,0-14.14-2.583-19.466-6.896c-5.414-4.383-9.32-10.563-10.817-17.638l5.537-1.151c1.22,5.77,4.415,10.818,8.845,14.405
		c4.335,3.509,9.867,5.611,15.901,5.611c6.678,0,12.75-2.584,17.268-6.805c4.547-4.248,7.526-10.159,7.968-16.763L1398.655,802.866
		L1398.655,802.866z"/>
	<path d="M1984.943,615.199l-169.864-74.103c-13.941-4.203-26.442-5.806-37.5-4.809c-8.999,0.812-17.07,3.354-24.211,7.624
		l191.62,72.448c8.067,2.237,15.605,3.176,22.614,2.819C1973.79,618.863,1979.57,617.536,1984.943,615.199L1984.943,615.199z
		 M1817.128,535.822l172.086,75.073c0.839,0.365,1.526,0.947,2.016,1.675c0.484,0.721,0.761,1.578,0.782,2.503
		c0.02,0.907-0.217,1.769-0.67,2.516c-0.455,0.749-1.115,1.361-1.94,1.766c-6.629,3.254-13.8,5.077-21.512,5.471
		c-7.635,0.389-15.795-0.623-24.478-3.038c-0.136-0.039-0.265-0.084-0.398-0.128l-201.618-76.228l4.155-3.086
		c9.028-6.706,19.542-10.601,31.541-11.683c11.836-1.067,25.079,0.612,39.725,5.038L1817.128,535.822L1817.128,535.822z"/>
	<path d="M1760.251,535.175c126.83,49.05,193.906,75.772,194.103,75.85l-2.082,5.249c-0.195-0.078-66.867-26.638-194.059-75.828
		L1760.251,535.175L1760.251,535.175z"/>
	<path d="M1942.382,616.783c6.646-5.032,13.942-8.004,21.886-8.914c7.854-0.9,16.301,0.231,25.341,3.393l-1.86,5.337
		c-8.215-2.873-15.828-3.909-22.838-3.105c-6.918,0.793-13.291,3.395-19.117,7.807L1942.382,616.783L1942.382,616.783z"/>
	<path d="M1537.456,544.244c-254.533-8.166-388.087-12.413-388.479-12.425l0.177-5.647c0.392,0.012,133.946,4.259,388.479,12.425
		L1537.456,544.244L1537.456,544.244z"/>
	<path d="M1603.276,540.32c89.454,0.809,143.833,1.47,143.992,1.472l-0.066,5.647c-0.159-0.002-54.593-0.664-143.97-1.472
		L1603.276,540.32L1603.276,540.32z"/>
	<polygon points="1816.032,535.589 1860.527,536.124 1860.461,541.771 1815.965,541.236 1816.032,535.589 	"/>
	<path d="M1738.591,503.951c23.461,8.341,45.453,8.072,65.974-0.809c20.7-8.959,40.028-26.682,57.983-53.168l4.673,3.167
		c-18.569,27.393-38.709,45.788-60.419,55.184c-21.89,9.473-45.255,9.794-70.092,0.963L1738.591,503.951L1738.591,503.951z"/>
	<path d="M1521.359,296.374c-42.397-32.751-59.704-73.537-58.169-110.18c0.735-17.541,5.788-34.131,14.479-48.45
		c8.705-14.343,21.043-26.397,36.33-34.839c30.729-16.97,73.347-19.362,122.198,3.643c14.712-41.718,42.249-63.667,70.952-69.766
		c12.785-2.716,25.791-2.277,37.999,0.969c12.209,3.247,23.625,9.305,33.225,17.825c21.125,18.746,33.448,49.335,26.056,88
		c33.445,7.808,57.199,21.152,71.259,40.032c14.635,19.653,18.648,45.051,12.038,76.191l-0.332,0.9
		c-9.721,18.517-21.445,32.144-35.173,40.88c-13.199,8.399-28.152,12.25-44.86,11.555c-2.344,5.526-4.823,10.734-7.433,15.622
		c-13.984,26.181-31.684,42.934-53.097,50.257c-21.362,7.305-46.218,5.133-74.567-6.517c-5.691-2.339-11.536-5.068-17.532-8.184
		c-17.468,20.01-38.419,28.505-58.619,28.621c-13.306,0.076-26.255-3.501-37.644-9.829c-11.373-6.319-21.203-15.39-28.285-26.308
		C1519.242,339.931,1514.837,318.691,1521.359,296.374L1521.359,296.374z M1470.248,186.47
		c-1.469,35.082,15.566,74.333,57.333,105.772l2.026,1.525l-0.781,2.392c-6.85,20.983-2.953,41.015,7.279,56.789
		c6.453,9.948,15.417,18.217,25.794,23.983c10.362,5.757,22.122,9.012,34.183,8.943c18.938-0.109,38.697-8.463,55.054-28.264
		l1.835-2.221l2.552,1.363c6.653,3.553,13.128,6.624,19.423,9.211c26.701,10.973,49.905,13.09,69.612,6.351
		c19.656-6.722,36.035-22.349,49.138-46.88c2.85-5.336,5.551-11.107,8.1-17.311l0.97-2.36l2.532,0.173
		c16.213,1.106,30.589-2.33,43.128-10.309c12.562-7.994,23.385-20.576,32.469-37.742c6.038-28.857,2.411-52.215-10.885-70.069
		c-13.466-18.083-36.964-30.78-70.495-38.091l-3.468-0.756l0.755-3.452c8.203-37.489-3.15-66.941-23.11-84.654
		c-8.762-7.776-19.189-13.307-30.346-16.275c-11.159-2.967-23.047-3.369-34.732-0.886c-27.292,5.799-53.531,27.395-66.989,68.856
		l-1.261,3.886l-3.666-1.81c-48.035-23.714-89.674-21.887-119.296-5.529c-14.196,7.839-25.64,19.011-33.7,32.291
		C1475.628,154.702,1470.932,170.135,1470.248,186.47L1470.248,186.47z"/>
	<path d="M1531.212,988.152c-24.44-19.221-34.427-43.061-33.528-64.527c0.437-10.428,3.443-20.296,8.614-28.815
		c5.185-8.543,12.53-15.721,21.627-20.745c17.899-9.884,42.552-11.448,70.757,1.389c8.857-23.761,24.935-36.336,41.696-39.897
		c7.647-1.625,15.427-1.362,22.729,0.58c7.303,1.942,14.133,5.567,19.878,10.666c12.365,10.973,19.691,28.696,15.847,51.041
		c19.03,4.656,32.636,12.474,40.815,23.457c8.757,11.759,11.172,26.889,7.245,45.39l-0.332,0.9
		c-5.762,10.977-12.737,19.07-20.921,24.278c-7.651,4.869-16.271,7.193-25.858,6.971c-8.866,20.442-20.844,33.179-35.934,38.209
		c-14.966,4.989-32.707,2.256-53.22-8.194c-10.283,11.339-22.521,16.173-34.347,16.241c-7.98,0.046-15.742-2.097-22.564-5.888
		c-6.806-3.782-12.691-9.212-16.931-15.75C1530.373,1013.575,1527.699,1001.192,1531.212,988.152L1531.212,988.152z
		 M1504.742,923.902c-0.833,19.904,8.873,42.205,32.666,60.114l2.026,1.525l-0.781,2.392c-3.822,11.708-1.651,22.882,4.054,31.676
		c3.611,5.567,8.63,10.196,14.44,13.424c5.795,3.22,12.368,5.041,19.103,5.002c10.569-0.061,21.618-4.749,30.798-15.861l1.835-2.221
		l2.553,1.363c19.8,10.576,36.532,13.587,50.195,9.033c13.588-4.529,24.451-16.695,32.589-36.498l0.97-2.36l2.532,0.173
		c9.086,0.62,17.127-1.296,24.123-5.748c7.019-4.467,13.093-11.514,18.218-21.141c3.356-16.217,1.326-29.307-6.092-39.268
		c-7.587-10.189-20.927-17.365-40.016-21.527l-3.468-0.756l0.755-3.451c4.629-21.159-1.731-37.741-12.935-47.684
		c-4.907-4.355-10.748-7.453-17-9.115c-6.253-1.663-12.915-1.888-19.462-0.497c-15.354,3.262-30.136,15.474-37.756,38.949
		l-1.261,3.886l-3.666-1.81c-27.375-13.514-51.041-12.509-67.832-3.236c-8.006,4.421-14.457,10.717-18.997,18.198
		C1507.778,905.969,1505.128,914.679,1504.742,923.902L1504.742,923.902z"/>
	<path style="fill-rule:evenodd;clip-rule:evenodd;fill:#FFA301;" d="M283.972,638.456l430.216-65.12l38.833-5.529l7.87-156.666
		c0.275-5.477-3.727-10.209-9.173-10.846l-34.16-3.997c-4.253-0.498-8.168,1.496-10.268,5.228l-52.958,94.147
		c-5.333,9.48-16.538,13.617-26.752,9.877l-113.48-41.562c0,0-104.628-47.46-202.245,9.169l-231.368,2.157
		c0,0-46.518-0.269-71.326,8.36c0,0-32.886,12.415-50.119,31.761c-3.866,4.341-3.699,10.912,0.384,15.05
		c5.951,6.032,18.236,14.888,43.533,24.919c0,0,51.368,100.89,210.862,93.344c14.037-0.664,18.342-1.428,28.866,12.902l32.898-2.966
		C273.244,649.989,273.649,640.018,283.972,638.456L283.972,638.456z"/>
	<path d="M283.551,635.655l430.215-65.12h0.022l36.526-5.2l7.752-154.326c0.1-1.999-0.578-3.86-1.777-5.278
		c-1.197-1.415-2.914-2.391-4.894-2.623l-34.16-3.997c-1.563-0.183-3.053,0.086-4.336,0.74c-1.282,0.653-2.374,1.696-3.142,3.06
		l-52.958,94.147c-3.008,5.347-7.678,9.19-13.04,11.169c-5.355,1.977-11.397,2.089-17.156-0.02l-113.48-41.562l-0.166-0.066
		c-0.299-0.132-103.333-46.871-199.687,9.024l-1.395,0.376l-231.401,2.158c-0.132,0-45.937-0.264-70.309,8.179l0.001,0.004
		c-0.093,0.035-32.245,12.174-49.011,30.997c-1.441,1.619-2.131,3.647-2.08,5.652c0.051,2.003,0.843,3.991,2.364,5.533
		c2.828,2.866,7.201,6.428,13.958,10.516c6.885,4.166,16.146,8.821,28.6,13.759l1.462,1.307c0.15,0.284,50.55,99.298,208.227,91.838
		l1.479-0.071c13.596-0.662,18.47-0.899,28.846,12.843l28.099-2.534c-0.066-0.359-0.126-0.718-0.18-1.077
		c-0.597-3.946-0.495-7.918,0.821-11.274c1.433-3.656,4.19-6.496,8.829-7.745C282.214,635.896,282.87,635.758,283.551,635.655
		L283.551,635.655z M714.607,576.135l0.001,0.003l-430.215,65.12c-0.488,0.074-0.937,0.167-1.349,0.278
		c-2.659,0.716-4.224,2.303-5.02,4.335c-0.914,2.332-0.952,5.31-0.489,8.373c0.189,1.247,0.458,2.494,0.785,3.709l0.872,3.24
		l-37.844,3.412l-0.943-1.283c-9.244-12.588-13.227-12.394-24.973-11.822l-1.479,0.071C61.357,658.791,6.561,567.752,0.954,557.644
		c-12.357-4.949-21.587-9.604-28.478-13.774c-7.196-4.354-11.943-8.238-15.065-11.403c-2.561-2.596-3.894-5.962-3.981-9.365
		c-0.087-3.4,1.073-6.828,3.497-9.55c17.698-19.869,51.129-32.489,51.226-32.525l0.078-0.022c25.047-8.712,71.323-8.52,72.245-8.515
		l230.618-2.151c97.523-56.099,201.342-10.197,204.077-8.974l113.383,41.526c4.454,1.631,9.123,1.546,13.257,0.02
		c4.127-1.523,7.726-4.49,10.051-8.623l52.958-94.147c1.332-2.368,3.248-4.188,5.511-5.341c2.262-1.152,4.857-1.63,7.547-1.316
		l34.16,3.997c3.466,0.406,6.473,2.115,8.57,4.594c2.094,2.476,3.28,5.72,3.106,9.198l-7.987,159.007L714.607,576.135
		L714.607,576.135z"/>
	<path style="fill-rule:evenodd;clip-rule:evenodd;fill:#91BB00;" d="M251.315,594.237c0,0,3.511-2.653,10.299-6.382
		c23.663-12.999,87.161-39.077,180.621-11.416l64.223,28.341L904.31,844.706c1.816,1.095,2.87,2.879,2.953,4.998
		c0.083,2.119-0.828,3.979-2.553,5.213c-6.705,4.796-17.747,11.92-31.866,18.262c-11.781,5.292-25.706,10.042-41.042,12.441
		c-15.916,2.49-30.302,0.079-44.538-7.462L251.315,594.237L251.315,594.237z"/>
	<path d="M249.621,591.978c0.01-0.008,3.703-2.798,10.631-6.603c12.019-6.603,34.144-16.526,65.078-21.277
		c30.847-4.738,70.502-4.341,117.702,9.628l0.343,0.122l64.224,28.341l0.321,0.166l397.852,239.926c1.314,0.792,2.361,1.848,3.1,3.1
		c0.736,1.245,1.154,2.672,1.214,4.211c0.06,1.53-0.247,2.983-0.886,4.29c-0.641,1.309-1.603,2.445-2.851,3.337
		c-3.418,2.445-7.929,5.475-13.352,8.684c-5.424,3.209-11.806,6.623-19.001,9.855c-6.001,2.696-12.535,5.249-19.498,7.427
		c-6.969,2.179-14.418,3.997-22.264,5.224c-8.267,1.293-16.14,1.313-23.796,0.031c-7.669-1.285-15.107-3.868-22.491-7.781
		l-539.89-286.008L249.621,591.978L249.621,591.978z M262.976,590.336c-2.544,1.397-4.598,2.626-6.166,3.611l531.772,281.708
		c6.85,3.629,13.725,6.022,20.787,7.205c7.074,1.185,14.354,1.166,22.002-0.031c7.49-1.171,14.672-2.929,21.444-5.047
		c6.778-2.12,13.099-4.588,18.878-7.184c6.923-3.11,13.123-6.43,18.425-9.567c5.303-3.138,9.666-6.067,12.953-8.418
		c0.476-0.34,0.833-0.753,1.057-1.211c0.226-0.461,0.333-0.999,0.31-1.588c-0.023-0.579-0.174-1.105-0.439-1.554
		c-0.261-0.443-0.65-0.827-1.151-1.129L505.147,607.296l-63.91-28.202c-46.172-13.633-84.928-14.021-115.066-9.392
		C296.075,574.324,274.619,583.94,262.976,590.336L262.976,590.336z"/>
	<polygon points="826.233,868.359 282.6,580.21 285.236,575.205 828.868,863.355 826.233,868.359 	"/>
	<path style="fill:none;stroke:#000000;stroke-width:5.6693;stroke-miterlimit:2.6131;" d="M907.282,849.239
		c-48.916-0.591-82.781,11.32-101.593,35.733"/>
	<path d="M312.962,470.555c16.978,7.213,34.514,16.206,52.608,26.976c18.108,10.779,36.675,23.272,55.698,37.476
		c1.589,1.186,3.194,2.061,4.863,2.64c1.694,0.587,3.497,0.899,5.456,0.95l65.709,1.724c3.194,0.084,6.175-0.588,8.792-1.938
		c2.616-1.349,4.888-3.385,6.667-6.03c5.232-7.776,8.457-17.002,9.672-27.674c1.234-10.839,0.405-23.16-2.487-36.961l5.537-1.151
		c3.018,14.399,3.876,27.311,2.575,38.733c-1.32,11.589-4.854,21.656-10.602,30.199c-2.327,3.459-5.315,6.13-8.771,7.912
		c-3.453,1.781-7.357,2.667-11.516,2.558l-65.709-1.724c-2.544-0.067-4.911-0.48-7.161-1.26c-2.276-0.79-4.393-1.928-6.414-3.437
		c-18.993-14.183-37.39-26.572-55.188-37.166c-17.812-10.602-35.127-19.477-51.943-26.622L312.962,470.555L312.962,470.555z"/>
	<path d="M510.883,460.853c2.366,8.986,3.533,17.792,3.502,26.416c-0.031,8.657-1.266,17.104-3.705,25.336
		c-1.53,5.163-4.605,9.445-8.648,12.42c-4.034,2.969-9.029,4.628-14.409,4.554l-50.648-0.697c-2.644-0.036-5.09-0.44-7.392-1.231
		c-2.318-0.796-4.495-1.976-6.589-3.559c-16.577-12.538-33.242-23.829-49.75-33.261c-16.484-9.418-32.827-16.999-48.785-22.136
		l1.727-5.381c16.355,5.265,33.05,13.003,49.848,22.601c16.775,9.584,33.642,21.006,50.37,33.659
		c1.607,1.215,3.265,2.117,5.016,2.718c1.765,0.606,3.625,0.916,5.621,0.943l50.648,0.697c4.113,0.057,7.925-1.207,10.998-3.469
		c3.064-2.255,5.399-5.514,6.566-9.453c2.293-7.741,3.455-15.655,3.484-23.742c0.029-8.12-1.079-16.447-3.325-24.977
		L510.883,460.853L510.883,460.853z"/>
	<path style="fill-rule:evenodd;clip-rule:evenodd;fill:#91BB00;" d="M68.594,475.527c104.647-1.043,156.971-1.565,156.971-1.565
		s-66.338-27.01-199.013-81.029c-31.915-8.826-60.938-11.772-87.068-8.839c-2.373,0.266-4.232,1.931-4.756,4.262
		c-0.524,2.331,0.442,4.631,2.473,5.889C-42.813,406.607,0.985,433.702,68.594,475.527L68.594,475.527z"/>
	<path d="M69.385,472.695l142.082-1.417L25.596,395.601c-15.729-4.339-30.738-7.235-45.024-8.685
		c-14.305-1.452-27.899-1.455-40.778-0.01c-0.591,0.066-1.107,0.297-1.499,0.648c-0.393,0.352-0.679,0.841-0.81,1.421
		c-0.128,0.569-0.075,1.134,0.134,1.63c0.209,0.498,0.573,0.93,1.066,1.235L69.385,472.695L69.385,472.695z M225.588,476.786
		L68.617,478.35l-1.506-0.421l-131.393-81.283c-1.539-0.952-2.674-2.299-3.325-3.849c-0.651-1.549-0.818-3.302-0.422-5.063
		c0.394-1.749,1.299-3.259,2.559-4.388c1.261-1.13,2.861-1.866,4.644-2.066c13.251-1.487,27.235-1.484,41.952,0.01
		c14.674,1.49,30.068,4.463,46.179,8.918l0.31,0.099l199.013,81.029L225.588,476.786L225.588,476.786z"/>
	<path d="M-41.713,380.58c100.47,59.372,159.93,91.819,160.104,91.914l-2.702,4.961c-0.175-0.095-60.004-32.745-160.281-92.002
		L-41.713,380.58L-41.713,380.58z"/>
	<path d="M15.907,479.215c12.417,4.14,19.693,13.277,22.684,23.947c1.829,6.525,2.04,13.607,0.833,20.433
		c-1.205,6.815-3.831,13.416-7.677,18.991c-6.481,9.393-16.397,15.863-28.831,15.641l0.089-5.647
		c10.326,0.185,18.623-5.277,24.092-13.205c3.37-4.884,5.678-10.709,6.747-16.755c1.067-6.034,0.893-12.251-0.7-17.931
		c-2.515-8.973-8.614-16.651-19.008-20.116L15.907,479.215L15.907,479.215z"/>
	<path d="M37.53,475.644c9.169,6.028,14.546,15.38,16.721,25.896c2.004,9.684,1.28,20.36-1.702,30.278
		c-2.986,9.934-8.257,19.166-15.341,25.943c-7.374,7.055-16.685,11.447-27.423,11.255l0.088-5.647
		c9.131,0.163,17.095-3.615,23.437-9.683c6.343-6.068,11.091-14.429,13.813-23.484c2.727-9.072,3.401-18.782,1.591-27.532
		c-1.886-9.114-6.483-17.179-14.285-22.308L37.53,475.644L37.53,475.644z"/>
	<path style="fill-rule:evenodd;clip-rule:evenodd;fill:#D22626;" d="M136.396,627.425c-26.536-41.256-59.869-75.618-99.998-103.085
		c-11.784,2.114-18.482,9.593-20.093,22.436c25.693,29.733,60.828,59.791,105.402,90.177
		C135.141,646.11,146.913,643.773,136.396,627.425L136.396,627.425z"/>
	<path d="M134.015,628.953c-13.169-20.475-28.018-39.232-44.547-56.271c-16.263-16.765-34.162-31.878-53.695-45.34
		c-4.717,1.03-8.429,3.055-11.133,6.074c-2.741,3.06-4.525,7.223-5.351,12.486c12.571,14.434,27.396,28.958,44.474,43.569
		c17.482,14.956,37.328,30.005,59.538,45.145c4.667,3.181,8.976,4.835,11.935,4.835c0.889,0,1.556-0.15,1.943-0.452
		c0.247-0.194,0.401-0.565,0.432-1.125C137.719,635.995,136.658,633.061,134.015,628.953L134.015,628.953z M93.521,568.74
		c16.804,17.323,31.889,36.375,45.255,57.156c3.337,5.187,4.653,9.286,4.482,12.287c-0.131,2.3-1.054,4.053-2.602,5.266
		c-1.41,1.104-3.261,1.648-5.42,1.648c-4.035,0.001-9.517-1.987-15.124-5.81c-22.364-15.245-42.373-30.419-60.025-45.521
		c-17.671-15.118-32.978-30.166-45.92-45.143l-0.83-0.96l0.154-1.232c0.878-7.002,3.192-12.596,6.94-16.781
		c3.782-4.223,8.938-6.92,15.467-8.091l2.093,0.443C58.21,535.842,76.72,551.421,93.521,568.74L93.521,568.74z"/>
	<path style="fill-rule:evenodd;clip-rule:evenodd;fill:#D22626;" d="M-27.67,503.615c11.112-6.982,16.668-10.473,16.668-10.473
		c-26.48-33.334-50.893-55.674-73.244-67.017c-7.441-3.777-13.375,2.34-7.622,10.764C-75.49,460.87-54.09,483.113-27.67,503.615
		L-27.67,503.615z"/>
	<path d="M-27.495,500.167l12.305-7.732c-12.456-15.483-24.419-28.473-35.888-38.966c-12.007-10.986-23.488-19.26-34.442-24.82
		c-1.559-0.791-2.94-0.992-3.99-0.731c-0.521,0.13-0.949,0.382-1.248,0.731c-0.313,0.366-0.517,0.866-0.575,1.475
		c-0.128,1.342,0.392,3.108,1.8,5.17c8.104,11.865,17.449,23.3,28.036,34.303C-51.309,480.186-39.975,490.376-27.495,500.167
		L-27.495,500.167z M-9.496,495.534L-27.84,507.06l-1.557-1.208c-13.324-10.339-25.382-21.118-36.174-32.334
		c-10.813-11.239-20.358-22.918-28.633-35.034c-2.211-3.238-2.998-6.317-2.752-8.891c0.173-1.816,0.847-3.386,1.903-4.619
		c1.071-1.25,2.508-2.129,4.194-2.547c2.295-0.57,5.05-0.266,7.887,1.174c11.395,5.784,23.298,14.353,35.705,25.705
		c12.341,11.292,25.169,25.318,38.481,42.076l1.965,2.473L-9.496,495.534L-9.496,495.534z"/>
	<path d="M245.033,660.066c5.169,7.655,8.451,19.079,9.844,34.27c1.365,14.881,0.934,33.473-1.291,55.773l-5.625-0.554
		c2.191-21.961,2.622-40.198,1.291-54.71c-1.302-14.203-4.274-24.741-8.914-31.612L245.033,660.066L245.033,660.066z"/>
	<path d="M278.364,658.163c0.195,1.036,0.652,1.992,0.828,3.03c2.283,13.466,2.718,27.237,1.74,41.518
		c-1.051,15.349-4.048,31.379-9.121,48.546l-5.426-1.595c4.953-16.756,7.876-32.385,8.9-47.327
		c1.021-14.91,0.151-29.139-2.479-43.131L278.364,658.163L278.364,658.163z"/>
	<path style="fill-rule:evenodd;clip-rule:evenodd;fill:#D22626;" d="M234.282,806.845c36.494-2.697,54.741-4.045,54.741-4.045
		c131.495-26.489-45.654-76.031-77.605-38.553C195.424,783.004,213.994,803.09,234.282,806.845L234.282,806.845z"/>
	<path d="M234.426,803.996l54.267-4.01c25.749-5.206,39.116-11.123,43.805-16.967c3.038-3.786,1.351-7.794-3.356-11.547
		c-5.755-4.589-15.511-8.726-27.082-11.877c-31.131-8.478-74.666-9.73-88.495,6.49c-2.87,3.366-4.486,6.734-5.088,9.988
		c-0.667,3.607-0.093,7.141,1.392,10.417c1.536,3.388,4.046,6.514,7.179,9.185C221.836,799.757,228.027,802.744,234.426,803.996
		L234.426,803.996z M289.222,805.623l-54.741,4.045l-0.709-0.044c-7.5-1.388-14.785-4.866-20.4-9.653
		c-3.747-3.195-6.774-6.988-8.663-11.156c-1.94-4.28-2.682-8.944-1.791-13.761c0.778-4.206,2.798-8.478,6.351-12.645
		c15.351-18.006,61.548-17.196,94.275-8.284c12.266,3.341,22.744,7.833,29.12,12.917c7.424,5.92,9.768,12.632,4.242,19.52
		c-5.47,6.817-19.983,13.497-47.329,19.006L289.222,805.623L289.222,805.623z"/>
	<path d="M114.923,676.521c0.017,0.208,0.036,0.542,0.054,0.996c0.019,0.467,0.029,0.801,0.029,0.986
		c0,6.516-2.642,12.416-6.912,16.686c-4.27,4.27-10.17,6.912-16.686,6.912c-6.516,0-12.416-2.642-16.686-6.912
		c-4.27-4.27-6.912-10.17-6.912-16.686c0-0.521,0.022-1.082,0.063-1.678v-0.011c0.039-0.556,0.1-1.116,0.18-1.676l5.603,0.797
		c-0.059,0.413-0.104,0.839-0.135,1.277c-0.027,0.385-0.041,0.815-0.041,1.29c0,4.951,2.007,9.434,5.251,12.678
		c3.244,3.244,7.727,5.251,12.678,5.251c4.951,0,9.434-2.007,12.678-5.251c3.244-3.244,5.251-7.727,5.251-12.678
		c0-0.4-0.003-0.651-0.007-0.765c-0.005-0.131-0.024-0.382-0.054-0.753L114.923,676.521L114.923,676.521z"/>
	<path d="M292.631,802.866c-0.542,8.085-4.19,15.323-9.762,20.528c-5.532,5.169-12.959,8.333-21.121,8.333
		c-7.365,0-14.14-2.583-19.466-6.896c-5.414-4.383-9.32-10.563-10.816-17.638l5.537-1.151c1.22,5.77,4.415,10.818,8.845,14.405
		c4.335,3.509,9.867,5.611,15.901,5.611c6.678,0,12.75-2.584,17.268-6.805c4.548-4.248,7.526-10.159,7.968-16.763L292.631,802.866
		L292.631,802.866z"/>
	<path style="fill-rule:evenodd;clip-rule:evenodd;fill:#91BB00;" d="M882.061,613.486
		c-114.725-50.048-172.087-75.073-172.087-75.073c-28.629-8.653-51.55-6.585-68.763,6.202
		c128.661,48.644,194.253,73.444,196.776,74.398c0.053,0.02,0.1,0.035,0.155,0.05c16.777,4.666,31.442,3.918,43.997-2.244
		c0.658-0.323,1.043-0.958,1.027-1.691C883.148,614.395,882.733,613.778,882.061,613.486L882.061,613.486z"/>
	<path d="M878.919,615.199l-169.863-74.103c-13.941-4.203-26.442-5.806-37.5-4.809c-8.999,0.812-17.07,3.354-24.211,7.624
		l191.62,72.448c8.067,2.237,15.605,3.176,22.613,2.819C867.765,618.863,873.546,617.536,878.919,615.199L878.919,615.199z
		 M711.104,535.822l172.087,75.073c0.838,0.365,1.526,0.946,2.016,1.675c0.485,0.721,0.762,1.578,0.782,2.503
		c0.02,0.907-0.217,1.77-0.67,2.516c-0.455,0.749-1.116,1.361-1.94,1.766c-6.629,3.254-13.8,5.077-21.512,5.471
		c-7.636,0.389-15.795-0.623-24.478-3.038c-0.136-0.039-0.264-0.084-0.398-0.128l-201.617-76.228l4.154-3.086
		c9.028-6.706,19.542-10.601,31.541-11.683c11.836-1.067,25.079,0.612,39.725,5.038L711.104,535.822L711.104,535.822z"/>
	<path d="M654.227,535.175c126.83,49.05,193.906,75.772,194.103,75.85l-2.082,5.249c-0.195-0.078-66.867-26.638-194.059-75.828
		L654.227,535.175L654.227,535.175z"/>
	<path style="fill:none;stroke:#000000;stroke-width:5.6693;stroke-miterlimit:2.6131;" d="M838.063,619.041
		c12.473-9.444,27.337-11.147,44.591-5.111"/>
	<path d="M431.432,544.244c-254.533-8.166-388.087-12.413-388.479-12.425l0.177-5.647c0.392,0.012,133.946,4.259,388.479,12.425
		L431.432,544.244L431.432,544.244z"/>
	<path d="M443.538,538.912c1.377,0.012,56.46,1.432,57.819,1.444c2.326,0.021,4.627,0.043,6.904,0.063
		c82.886,0.762,132.831,1.37,132.983,1.371l-0.066,5.647c-0.125-0.001-72.088-0.532-144.014-1.471
		c-19.667-0.257-34.479-1.234-53.67-1.408L443.538,538.912L443.538,538.912z"/>
	<path style="fill:none;stroke:#000000;stroke-width:5.6693;stroke-miterlimit:2.6131;" d="M709.974,538.413
		c29.664,0.357,44.495,0.535,44.495,0.535"/>
	<path d="M632.567,503.951c23.461,8.341,45.453,8.072,65.973-0.809c20.7-8.959,40.029-26.682,57.983-53.168l4.673,3.167
		c-18.569,27.393-38.709,45.788-60.419,55.184c-21.89,9.473-45.255,9.794-70.092,0.963L632.567,503.951L632.567,503.951z"/>
	<path style="fill-rule:evenodd;clip-rule:evenodd;fill:#1FD2FF;" d="M430.239,309.466c-124.499-93.715-34.536-256.338,112.8-183.6
		c39.458-121.567,186.708-78.124,162.001,34.8c68.779,14.996,96.78,52.596,84,112.8c-18.854,35.917-45.255,52.716-79.2,50.4
		c-29.467,71.702-79.867,88.502-151.2,50.4C502.462,442.271,406.862,381.072,430.239,309.466L430.239,309.466z"/>
	<path d="M415.334,296.374c-42.397-32.751-59.704-73.537-58.169-110.18c0.735-17.541,5.788-34.131,14.479-48.45
		c8.705-14.343,21.043-26.397,36.33-34.839c30.729-16.97,73.347-19.362,122.198,3.643c14.712-41.718,42.249-63.667,70.952-69.766
		c12.785-2.716,25.791-2.277,37.999,0.969c12.209,3.247,23.625,9.305,33.225,17.825c21.125,18.746,33.447,49.335,26.055,88
		c33.445,7.808,57.2,21.152,71.259,40.032c14.635,19.653,18.648,45.051,12.038,76.191l-0.332,0.9
		c-9.721,18.517-21.445,32.144-35.173,40.88c-13.198,8.399-28.152,12.25-44.86,11.555c-2.344,5.526-4.823,10.734-7.433,15.622
		c-13.984,26.181-31.684,42.934-53.097,50.257c-21.363,7.305-46.218,5.133-74.567-6.517c-5.691-2.339-11.536-5.068-17.533-8.184
		c-17.468,20.01-38.419,28.505-58.619,28.621c-13.306,0.076-26.255-3.501-37.644-9.829c-11.373-6.319-21.203-15.39-28.286-26.308
		C413.218,339.931,408.813,318.691,415.334,296.374L415.334,296.374z M364.224,186.47c-1.469,35.082,15.566,74.333,57.333,105.772
		l2.026,1.525l-0.781,2.392c-6.85,20.983-2.953,41.015,7.279,56.789c6.453,9.948,15.417,18.217,25.794,23.983
		c10.362,5.757,22.122,9.012,34.183,8.943c18.938-0.109,38.697-8.463,55.054-28.264l1.835-2.221l2.552,1.363
		c6.653,3.553,13.128,6.624,19.423,9.211c26.701,10.973,49.905,13.09,69.612,6.351c19.656-6.722,36.035-22.349,49.138-46.88
		c2.85-5.336,5.551-11.107,8.1-17.311l0.97-2.36l2.532,0.173c16.213,1.106,30.589-2.33,43.128-10.309
		c12.562-7.994,23.385-20.576,32.469-37.742c6.038-28.858,2.41-52.215-10.885-70.069c-13.466-18.083-36.965-30.78-70.495-38.091
		l-3.468-0.756l0.755-3.452c8.202-37.489-3.15-66.941-23.11-84.654c-8.762-7.776-19.189-13.307-30.346-16.275
		c-11.159-2.967-23.047-3.369-34.732-0.886c-27.292,5.799-53.531,27.395-66.988,68.856l-1.261,3.886l-3.666-1.81
		C482.639,90.921,441,92.748,411.378,109.106c-14.196,7.839-25.64,19.011-33.7,32.291
		C369.604,154.702,364.908,170.135,364.224,186.47L364.224,186.47z"/>
	<path style="fill-rule:evenodd;clip-rule:evenodd;fill:#1FD2FF;" d="M440.252,990.671
		c-72.222-54.364-20.034-148.701,65.435-106.506c22.89-70.521,108.309-45.319,93.976,20.188
		c39.899,8.699,56.142,30.511,48.729,65.435c-10.938,20.836-26.253,30.581-45.944,29.237c-17.094,41.594-46.331,51.34-87.711,29.237
		C482.149,1067.711,426.691,1032.209,440.252,990.671L440.252,990.671z"/>
	<path d="M425.187,988.152c-24.44-19.221-34.427-43.061-33.528-64.527c0.437-10.428,3.443-20.296,8.614-28.815
		c5.185-8.543,12.53-15.721,21.627-20.745c17.899-9.884,42.553-11.448,70.757,1.389c8.857-23.761,24.935-36.336,41.696-39.897
		c7.647-1.625,15.427-1.362,22.729,0.58c7.303,1.942,14.133,5.567,19.879,10.666c12.365,10.973,19.691,28.696,15.846,51.041
		c19.03,4.656,32.636,12.475,40.815,23.457c8.756,11.759,11.172,26.889,7.245,45.39l-0.332,0.9
		c-5.762,10.977-12.736,19.07-20.921,24.278c-7.652,4.869-16.271,7.193-25.858,6.971c-8.866,20.442-20.844,33.179-35.934,38.209
		c-14.966,4.989-32.707,2.256-53.22-8.194c-10.284,11.339-22.521,16.173-34.347,16.241c-7.98,0.046-15.742-2.097-22.564-5.888
		c-6.807-3.782-12.691-9.212-16.931-15.75C424.349,1013.575,421.675,1001.192,425.187,988.152L425.187,988.152z M398.718,923.902
		c-0.833,19.904,8.873,42.205,32.666,60.114l2.026,1.525l-0.781,2.392c-3.822,11.708-1.651,22.882,4.054,31.676
		c3.611,5.567,8.63,10.196,14.44,13.424c5.796,3.22,12.368,5.041,19.103,5.002c10.57-0.061,21.618-4.749,30.798-15.861l1.835-2.221
		l2.552,1.363c19.8,10.576,36.532,13.587,50.195,9.033c13.587-4.529,24.451-16.695,32.589-36.498l0.97-2.36l2.532,0.173
		c9.086,0.62,17.128-1.296,24.123-5.748c7.019-4.467,13.093-11.514,18.218-21.141c3.356-16.217,1.325-29.307-6.092-39.268
		c-7.587-10.189-20.927-17.365-40.016-21.527l-3.468-0.756l0.755-3.451c4.629-21.159-1.731-37.741-12.935-47.684
		c-4.907-4.355-10.748-7.453-17-9.115c-6.253-1.663-12.915-1.888-19.462-0.497c-15.354,3.262-30.136,15.474-37.756,38.949
		l-1.261,3.886l-3.666-1.81c-27.375-13.514-51.041-12.509-67.832-3.236c-8.006,4.421-14.457,10.717-18.997,18.198
		C401.753,905.969,399.104,914.679,398.718,923.902L398.718,923.902z"/>
	<path style="fill-rule:evenodd;clip-rule:evenodd;fill:#4E7500;" d="M647.345,543.911l74.823,28.289l116.797,44.159
		c0.716,0.199,1.428,0.387,2.136,0.565c0.9-0.575,1.811-1.111,2.734-1.61c-9.613-3.818-47.849-18.969-113.001-44.348
		c-22.633-8.816-48.514-18.867-77.572-30.106C651.223,541.754,649.251,542.771,647.345,543.911L647.345,543.911z"/>
	<path style="fill-rule:evenodd;clip-rule:evenodd;fill:#4E7500;" d="M824.76,867.579l-456.376-241.9l-84.659-44.873
		c-8.72,3.335-15.669,6.739-20.749,9.53c-2.544,1.397-4.598,2.626-6.166,3.611l71.383,37.816l460.389,243.893
		c6.291,3.333,12.602,5.622,19.06,6.89C812.459,876.819,818.166,871.83,824.76,867.579L824.76,867.579z"/>
	<path style="fill-rule:evenodd;clip-rule:evenodd;fill:#D22626;stroke:#000000;stroke-width:0.5;stroke-miterlimit:2.6131;" d="
		M273.26,661.727l-25.875,2.333c3.826,7.44,6.324,17.532,7.492,30.275c1.363,14.867,0.935,33.437-1.284,55.708h14.091l-1.299-0.382
		c4.953-16.756,7.876-32.385,8.9-47.327C276.244,688.32,275.533,674.907,273.26,661.727L273.26,661.727z"/>
	<path style="fill-rule:evenodd;clip-rule:evenodd;fill:#991C1C;" d="M320.3,772.138c-24.197,13.224-89.133,24.741-112.074,6.037
		c-0.157,2.874,0.448,5.678,1.644,8.314c1.536,3.388,4.046,6.514,7.179,9.185c4.787,4.082,10.978,7.07,17.378,8.321l54.267-4.01
		c25.749-5.206,39.116-11.123,43.805-16.967c3.038-3.786,1.351-7.794-3.356-11.547c-1.117-0.891-2.385-1.765-3.788-2.617
		C323.965,769.955,322.287,771.052,320.3,772.138L320.3,772.138z"/>
	<path style="fill-rule:evenodd;clip-rule:evenodd;fill:#991C1C;" d="M159.421,655.044c-31.951,6.677-61.085,12.765-93.715-3.345
		c-5.489-2.71-9.928-5.932-12.414-9.653c-0.333-0.498-0.631-1.004-0.894-1.518c-0.914,0.545-1.812,1.112-2.695,1.701
		c-4.73,3.16-7.553,6.054-8.853,8.688c-0.639,1.295-0.882,2.516-0.784,3.663c0.098,1.152,0.542,2.278,1.272,3.37
		c1.891,2.83,5.566,5.429,10.222,7.727c30.88,15.246,59.106,9.348,90.061,2.879c5.91-1.235,11.92-2.491,18.207-3.652
		c3.622-0.669,6.526-1.651,8.465-2.933c1.14-0.753,1.877-1.567,2.133-2.426c0.247-0.833,0.08-1.872-0.571-3.127
		c-0.562-1.084-1.208-2.129-1.93-3.135C165.075,653.862,162.237,654.456,159.421,655.044L159.421,655.044z"/>
	<path style="fill-rule:evenodd;clip-rule:evenodd;stroke:#000000;stroke-width:0.5;stroke-miterlimit:2.6131;" d="M109.272,680.043
		c-11.89,1.35-23.695,1.455-35.783-0.934c0.156,4.71,2.13,8.961,5.241,12.073c3.244,3.244,7.727,5.251,12.678,5.251
		c4.951,0,9.434-2.007,12.678-5.251C106.991,688.277,108.903,684.38,109.272,680.043L109.272,680.043z"/>
	<path style="fill-rule:evenodd;clip-rule:evenodd;stroke:#000000;stroke-width:0.5;stroke-miterlimit:2.6131;" d="M286.537,805.822
		l-48.573,3.589c1.584,4.362,4.338,8.166,7.882,11.036c4.335,3.509,9.867,5.611,15.901,5.611c6.678,0,12.75-2.584,17.268-6.805
		C282.783,815.733,285.473,811.073,286.537,805.822L286.537,805.822z"/>
	<path style="fill-rule:evenodd;clip-rule:evenodd;fill:#991C1C;" d="M127.032,620.56c-34.671-23.635-63.631-47.071-86.879-70.31
		c-3.461-3.459-6.794-6.914-10.002-10.365c-1.943-2.09-3.839-4.179-5.689-6.266c-2.64,3.041-4.365,7.136-5.173,12.284
		c0.89,1.021,1.79,2.043,2.702,3.065c2.995,3.356,6.11,6.717,9.348,10.083c9.713,10.097,20.521,20.238,32.424,30.421
		c13.52,11.567,28.454,23.189,44.803,34.866c1.423,1.016,2.856,2.032,4.3,3.049c2.048,1.442,4.117,2.885,6.208,4.329
		c1.399,0.966,2.809,1.933,4.228,2.9c4.667,3.181,8.976,4.835,11.935,4.835c0.889,0,1.556-0.15,1.943-0.452
		c0.247-0.194,0.401-0.565,0.432-1.125c0.039-0.683-0.077-1.505-0.366-2.472c-0.343-1.147-0.931-2.498-1.797-4.063
		c-0.413-0.746-0.89-1.541-1.433-2.386c-0.251-0.39-0.502-0.779-0.754-1.167c-1.229-1.895-2.472-3.776-3.73-5.641
		C128.708,621.662,127.873,621.133,127.032,620.56L127.032,620.56z"/>
	<path style="fill-rule:evenodd;clip-rule:evenodd;fill:#991C1C;" d="M-20.903,495.641c-25.399-20.019-46.056-41.681-61.972-64.985
		c-0.216-0.317-0.416-0.63-0.6-0.94c-0.683-0.365-1.364-0.721-2.043-1.065c-1.559-0.791-2.94-0.992-3.99-0.731
		c-0.521,0.13-0.949,0.382-1.248,0.731c-0.313,0.366-0.517,0.866-0.575,1.475c-0.128,1.342,0.392,3.108,1.8,5.17
		c8.104,11.865,17.449,23.3,28.036,34.303c10.158,10.558,21.457,20.72,33.895,30.486c0.035,0.028,0.071,0.056,0.106,0.083
		l6.864-4.312C-20.722,495.783-20.813,495.712-20.903,495.641L-20.903,495.641z"/>
	<path style="fill-rule:evenodd;clip-rule:evenodd;fill:#4E7500;" d="M-61.315,391.841l130.67,80.835l0.03,0.019l37.007-0.369
		c-0.045-0.025-0.091-0.05-0.137-0.076c-20.478-11.361-73.418-41.052-150.162-86.393c-5.555,0.103-10.987,0.453-16.299,1.049
		c-0.591,0.066-1.107,0.297-1.499,0.648c-0.393,0.352-0.679,0.841-0.81,1.421c-0.128,0.569-0.075,1.134,0.134,1.63
		C-62.171,391.104-61.807,391.536-61.315,391.841L-61.315,391.841z"/>
	<path style="fill-rule:evenodd;clip-rule:evenodd;fill:#FFC250;stroke:#000000;stroke-width:0.5;stroke-miterlimit:2.6131;" d="
		M709.758,402.911l-52.958,94.147c-2.735,4.862-6.845,8.481-11.6,10.585c18.765,4.268,36.545,2.768,53.34-4.5
		c20.529-8.884,39.708-26.388,57.535-52.51l1.99-39.624c0.1-1.999-0.578-3.86-1.777-5.278c-1.197-1.415-2.914-2.391-4.894-2.623
		l-34.16-3.997c-1.563-0.183-3.053,0.086-4.336,0.74C711.618,400.503,710.526,401.546,709.758,402.911L709.758,402.911z"/>
	<path style="fill-rule:evenodd;clip-rule:evenodd;fill:#BA7701;" d="M512.755,532.353c5.232-7.776,8.457-17.002,9.672-27.674
		c1.188-10.434,0.464-22.241-2.171-35.421l-7.131-2.612l-0.166-0.066c-0.015-0.006-0.286-0.129-0.799-0.349
		c1.508,7.129,2.25,14.143,2.225,21.04c-0.031,8.657-1.266,17.104-3.705,25.336c-1.53,5.163-4.605,9.445-8.648,12.42
		c-4.034,2.969-9.029,4.628-14.409,4.554l-50.648-0.697c-2.644-0.036-5.09-0.44-7.392-1.231c-2.318-0.796-4.495-1.976-6.589-3.559
		c-16.577-12.538-33.242-23.829-49.75-33.261c-16.114-9.206-32.092-16.657-47.71-21.786c-2.444,1.2-4.887,2.461-7.327,3.786
		c15.338,6.801,31.126,15.034,47.362,24.698c18.108,10.779,36.675,23.272,55.698,37.476c1.589,1.186,3.194,2.061,4.863,2.64
		c1.593,0.553,3.283,0.861,5.108,0.938c0.116,0.004,0.232,0.007,0.348,0.011c0.007,0,0.015,0.001,0.022,0.001l11.929,0.313
		l0.304,0.008c4.062,0.086,44.468,1.125,55.028,1.382c2.601-0.138,5.036-0.792,7.219-1.917
		C508.704,537.033,510.976,534.997,512.755,532.353L512.755,532.353z"/>
	<path style="fill-rule:evenodd;clip-rule:evenodd;fill:#FFF2DD;stroke:#000000;stroke-width:0.5;stroke-miterlimit:2.6131;" d="
		M505.255,511.011c2.293-7.741,3.455-15.655,3.484-23.742c0.027-7.675-0.961-15.533-2.965-23.573
		c-23.001-8.56-97.71-31.231-172.861,1.915c14.196,5.119,28.621,12.019,43.123,20.305c16.775,9.584,33.642,21.006,50.37,33.659
		c1.607,1.215,3.265,2.117,5.016,2.718c1.765,0.606,3.625,0.916,5.621,0.943l50.648,0.697c4.113,0.057,7.925-1.207,10.998-3.469
		C501.753,518.209,504.087,514.95,505.255,511.011L505.255,511.011z"/>
	<path style="fill-rule:evenodd;clip-rule:evenodd;fill:#991C1C;" d="M24.455,560.018c-1.811-1.923-3.584-3.845-5.318-5.766
		c-3.454,1.903-7.277,3.2-11.431,3.723c0.898,1.453,2.076,3.273,3.553,5.389C16.012,563.239,20.432,562.043,24.455,560.018
		L24.455,560.018z"/>
	<path style="fill-rule:evenodd;clip-rule:evenodd;fill:#991C1C;" d="M39.516,523.052c1.502,1.039,2.995,2.088,4.478,3.147
		c0.814,0.026,2.202,0.07,4.16,0.132c1.838-7.921,2.116-16.146,0.561-23.662c-1.817-8.783-6.152-16.591-13.447-21.737
		c-3.947,0.523-7.864,1.144-11.614,1.881c7.783,4.817,12.632,12.128,14.936,20.349C40.371,509.514,40.618,516.394,39.516,523.052
		L39.516,523.052z"/>
</g>
</svg>
