<?xml version="1.0" encoding="utf-8"?>
<!-- Generator: Adobe Illustrator 27.5.0, SVG Export Plug-In . SVG Version: 6.00 Build 0)  -->
<svg xmlns="http://www.w3.org/2000/svg" xmlns:xlink="http://www.w3.org/1999/xlink" viewBox="0 0 2492.666 2598.279" width="595" height="842" preserveAspectRatio="xMidYMid meet" data-scaled="true">
<g>
	<path d="M995.655,1010.759c6.578,49.893,65.909,41.338,61.429-8.451C1050.505,952.421,991.174,960.974,995.655,1010.759z"/>
	<path style="fill:#FFFFFF;" d="M1035.012,987.297c-8.648,1.928-4.086,29.033,4.968,27.459
		C1048.629,1012.828,1044.066,985.723,1035.012,987.297z"/>
	<path d="M1483.536,1021.678c6.578,50.369,65.909,41.732,61.43-8.532C1538.386,962.782,1479.055,971.417,1483.536,1021.678z"/>
	<path style="fill:#FFFFFF;" d="M1522.894,997.992c-8.637,2.038-4.145,29.198,4.968,27.721
		C1536.499,1023.675,1532.006,996.514,1522.894,997.992z"/>
	<g>
		<path d="M1525.843,1453.35c10.072-0.898,20.173-2.402,30.266-3.677c-5.661,6.354-11.631,12.485-17.335,18.805
			c-5.57-0.971-10.058,7.473-6.319,11.447c4.135,4.811,11.823-1.123,10.622-6.72c6.825-5.319,12.114-12.803,18.261-18.935
			c0.163,11.689-0.77,23.578-0.258,35.19c-6.824,3.89-6.304,16.667,3.037,15.692c7.329-0.672,11.67-12.501,4.495-16.324
			c0.875-11.662,0.363-23.567,0.642-35.292c5.762,4.366,10.941,10.034,17.193,13.566c-1.413,6.659,6.46,9.714,10.451,4.008
			c3.87-4.958-0.245-12.475-6.19-9.752c-5.76-4.738-11.612-9.398-17.33-14.163c10.382-1.585,20.903-2.856,31.195-4.942
			c3.61,9.001,15.527,2.891,14.879-5.506c-0.517-9.722-12.162-8.989-14.783-0.942c-10.358,1.486-20.706,3.377-31.053,4.808
			c5.559-6.295,11.292-12.454,16.565-18.959c5.702,1.007,9.714-7.861,5.755-11.657c-4.297-4.549-11.236,1.544-9.974,6.935
			c-6.257,5.084-10.929,12.402-16.713,18.229c-0.276-11.318,0.538-22.883-0.52-34.082c6.125-4.112,4.706-16.447-3.724-15.398
			c-7.073,0.751-10.361,13.001-3.383,16.355c-0.408,11.658,0.107,23.483-0.114,35.213c-5.953-4.466-11.128-10.432-17.424-14.207
			c1.24-6.276-6.029-9.681-9.99-4.167c-3.835,4.779-0.011,12.653,5.982,9.855c5.433,4.791,10.983,9.503,16.525,14.221
			c-10.163,1.516-20.412,2.557-30.546,3.99c-3.328-8.773-14.893-3.492-14.891,4.753
			C1510.953,1461.644,1522.97,1461.515,1525.843,1453.35z"/>
		<path d="M1691.139,1459.261c3.072-1.083,4.198-5.941,1.781-7.851c-2.739-2.492-7.293,1.089-6.937,4.53
			c-4.087,2.752-6.365,7.766-9.692,11.402c-0.543-6.382-1.199-12.728-1.708-19.107c-0.059-0.693-0.401-1.274-0.862-1.759
			c3.109-3.546,0.888-10.351-4.303-9.048c-4.415,0.885-6.719,8.147-2.626,10.804c-0.234,7.155,1.082,14.495,1.349,21.714
			c-3.838-2.032-7.072-5.653-11.304-6.651c-0.275-3.99-5.303-4.629-7.366-1.134c-1.994,2.974-0.304,7.281,3.273,6.62
			c3.397,2.834,7.462,4.992,11.112,7.566c-6.434,1.584-12.91,3.038-19.345,4.547c-3.561-4.133-10.08,0.524-9.603,5.417
			c0.324,6.113,7.948,5.821,9.97,0.902c9.35-1.422,18.559-4.209,27.839-6.266c0.3-0.038,0.578-0.134,0.872-0.22
			c9.177-2.302,18.473-4.458,27.563-7.066c3.829,3.726,10.012-1.248,9.296-6.038c-0.679-6.211-8.467-5.322-10.156-0.203
			c-6.274,1.133-12.429,3.175-18.654,4.579C1684.726,1467.715,1688.469,1463.755,1691.139,1459.261z"/>
		<path d="M1638.186,1380.577c5.972-0.77,11.817-2.83,17.725-4.126c-2.806,4.231-6.315,8.143-8.817,12.516
			c-3.003,1.069-3.923,5.801-1.677,7.74c2.663,2.609,7.016-0.945,6.622-4.304c3.999-2.752,6.052-7.852,9.172-11.536
			c1.127,6.513,0.66,14.989,2.706,20.944c-3.275,3.44-1.182,10.628,4.094,9.292c4.243-0.9,6.345-7.755,2.691-10.575
			c0.313-7.189-1.501-14.6-1.978-21.843c3.732,1.977,6.924,5.529,11.067,6.444c0.394,3.88,5.307,4.562,7.162,0.942
			c1.734-2.993-0.054-7.214-3.516-6.487c-3.435-2.733-7.43-4.87-11.037-7.405c5.959-1.558,11.919-3.146,17.851-4.818
			c3.611,4.233,9.718-0.718,8.774-5.649c-0.783-5.776-7.677-5.572-9.403-0.64c-17.44,4.12-34.717,9.248-52.125,13.278
			c-3.488-4.152-9.34,0.492-8.7,5.326C1629.297,1385.615,1636.379,1385.599,1638.186,1380.577z"/>
		<path d="M1305.96,1459.655c-1.62,9.725,9.938,11.539,13.94,3.831c9.848,0.625,19.814,0.652,29.731,0.909
			c-6.357,5.419-12.988,10.608-19.382,15.98c-5.345-1.77-10.74,5.945-7.717,10.371c3.365,5.424,11.616,0.547,11.292-5.056
			c7.283-4.358,13.445-10.811,20.207-15.97c-1.484,11.575-4.06,23.195-5.199,34.742c-7.162,2.836-8.414,15.542,0.722,15.962
			c7.254,0.426,12.988-10.693,6.641-15.459c2.487-11.405,3.665-23.231,5.581-34.774c4.95,5.183,9.131,11.541,14.685,15.995
			c-2.292,6.246,4.778,10.625,9.522,5.536c4.348-4.222,1.669-12.31-4.549-10.469c-4.853-5.613-9.934-11.093-14.784-16.704
			c10.236-0.002,20.556,0.326,30.775-0.17c2.29,9.445,14.465,5.281,15.115-3.179c0.87-9.583-10.395-10.808-14.122-3.175
			c-10.191-0.109-20.441,0.198-30.621,0.051c6.265-5.417,12.722-10.638,18.711-16.318c5.482,1.89,10.314-6.321,7.095-10.549
			c-3.556-5.187-11.055-0.109-10.583,5.33c-6.753,4.106-12.273,10.604-18.672,15.496c1.322-11.224,3.728-22.532,4.276-33.753
			c6.497-3.148,6.815-15.545-1.436-15.777c-7.004-0.316-11.757,11.376-5.551,15.648c-2.027,11.464-3.19,23.215-5.05,34.773
			c-5.12-5.316-9.249-11.952-14.813-16.659c2.078-5.9-4.37-10.536-9.052-5.62c-4.297,4.059-1.932,12.462,4.346,10.559
			c4.535,5.604,9.296,11.091,13.981,16.618c-10.021-0.034-20.06-0.535-30.042-0.641
			C1319.04,1448.04,1307.14,1451.465,1305.96,1459.655z"/>
		<path d="M1407.189,1512.516c-0.603,6.019,6.724,7.072,9.454,2.495c9.194,0.11,18.467-1.154,27.687-1.677
			c0.287,0.011,0.56-0.038,0.849-0.072c9.183-0.797,18.474-1.379,27.609-2.509c3.109,4.339,9.724,0.392,9.742-4.409
			c0.276-6.174-7.294-6.68-9.723-1.856c-6.189,0.095-12.409,1.107-18.596,1.48c3.598-3.72,7.787-7.031,11.005-11.015
			c3.168-0.606,4.877-5.193,2.863-7.447c-2.289-2.921-7.187-0.068-7.328,3.338c-4.349,2.056-7.255,6.618-10.987,9.66
			c0.419-6.378,0.722-12.746,1.171-19.11c0.045-0.688-0.198-1.317-0.571-1.872c3.508-2.986,2.378-10.064-2.8-9.618
			c-4.4,0.154-7.635,6.984-4.099,10.187c-1.305,7.033-1.099,14.486-1.916,21.656c-3.39-2.622-5.935-6.699-9.88-8.388
			c0.348-3.898-4.369-5.469-6.911-2.306c-2.332,2.585-1.41,7.109,2.169,7.056c2.844,3.33,6.437,6.13,9.565,9.258
			c-6.446,0.536-12.938,0.877-19.364,1.382C1414.353,1504.044,1407.457,1507.651,1407.189,1512.516z"/>
		<path d="M1425.945,1408.792c5.834,0.219,11.751-0.864,17.606-1.178c-3.308,3.698-7.261,7.009-10.292,10.895
			c-3.092,0.602-4.599,5.111-2.748,7.359c2.199,3.014,6.885,0.159,6.984-3.163c4.262-2.075,6.96-6.756,10.495-9.877
			c0.12,6.956-1.55,14.296-0.474,21.078c-3.647,2.855-2.695,10.279,2.564,9.824c4.251-0.19,7.205-6.688,4.126-9.977
			c1.372-7.049,0.7-14.629,1.307-21.843c3.294,2.561,5.81,6.556,9.675,8.155c-0.222,3.803,4.38,5.401,6.729,2.099
			c2.076-2.634,1.048-7.097-2.426-6.968c-2.888-3.244-6.413-6.01-9.499-9.097c5.964-0.588,11.96-1.111,17.903-1.852
			c2.814,4.804,9.327,0.891,9.149-4.092c0.098-5.734-6.487-6.811-8.918-2.177c-17.312,1.203-34.652,3.429-51.934,4.569
			c-2.733-4.659-9.034-1.024-9.13,3.84C1416.666,1412.254,1423.416,1413.509,1425.945,1408.792z"/>
		<path d="M1241.927,1497.022c2.341,3.67,5.49,6.918,8.14,10.429c-6.346-0.31-12.712-0.823-19.034-1.159
			c-2.114-5.013-9.276-2.364-10.158,2.438c-1.356,5.854,5.618,7.914,8.895,3.703c8.94,1.317,18.145,1.27,27.192,1.961
			c0.014,0.002,0.025,0.011,0.039,0.013c0.004,0,0.007,0.002,0.011,0.003c0,0,0,0,0,0c9.295,0.378,18.669,1.084,27.961,1.153
			c2.478,4.712,9.411,1.654,10.033-3.09c1.051-6.043-6.212-7.612-9.225-3.117c-6.032-0.72-12.217-0.531-18.287-0.974
			c3.97-3.209,8.478-5.952,12.102-9.475c3.198-0.2,5.388-4.517,3.726-7.005c-1.87-3.208-6.991-0.988-7.551,2.339
			c-4.5,1.488-7.895,5.616-11.913,8.142c1.215-6.269,2.314-12.536,3.556-18.788c0.131-0.68-0.026-1.333-0.317-1.93
			c3.788-2.497,3.585-9.672-1.51-9.904c-4.332-0.413-8.305,5.969-5.276,9.558c-2.164,6.813-2.903,14.215-4.607,21.223
			c-2.971-3.045-4.916-7.405-8.556-9.607c0.846-3.767-3.53-6.01-6.435-3.191C1238.128,1491.991,1238.412,1496.588,1241.927,1497.022
			z"/>
		<path d="M1252.282,1408.349c5.64,0.983,11.535,0.685,17.263,1.144c-3.681,3.237-7.951,5.999-11.382,9.448
			c-3.123,0.215-5.097,4.472-3.601,6.934c1.773,3.299,6.697,1.034,7.196-2.227c4.422-1.504,7.618-5.785,11.448-8.408
			c-0.76,6.913-3.312,13.968-3.121,20.835c-3.907,2.345-3.915,9.842,1.254,10.071c4.189,0.361,7.844-5.734,5.273-9.348
			c2.224-6.826,2.524-14.406,4.024-21.486c2.881,2.963,4.8,7.257,8.376,9.36c-0.704,3.689,3.543,5.959,6.278,2.969
			c2.328-2.316,1.939-6.876-1.48-7.223c-2.398-3.592-5.477-6.803-8.088-10.268c5.867,0.202,11.762,0.472,17.626,0.522
			c2.122,5.134,8.956,2.115,9.404-2.846c0.818-5.63-5.405-7.64-8.39-3.338c-8.32-0.92-16.867-0.496-25.235-1.065
			c-0.005-0.001-0.009-0.004-0.014-0.005c-0.021-0.003-0.043,0.004-0.064,0.002c-8.588-0.29-17.185-0.863-25.74-1.23
			c-2.068-4.972-8.653-2.206-9.363,2.609C1242.817,1410.525,1249.188,1412.719,1252.282,1408.349z"/>
		<path d="M1142.233,1449.028c9.525,1.885,19.241,3.204,28.877,4.743c-6.888,4.562-14.022,8.822-20.941,13.343
			c-5.057-2.449-11.223,4.552-8.856,9.284c2.617,5.836,11.272,2.008,11.661-3.548c7.666-3.398,14.49-8.981,21.74-13.227
			c-2.922,11.287-6.915,22.469-9.501,33.774c-7.359,1.891-10.182,14.34-1.335,15.92c7.075,1.354,14.012-8.974,8.448-14.465
			c3.887-10.996,6.537-22.564,9.878-33.765c4.136,5.795,7.435,12.525,12.212,17.745c-2.96,5.802,3.305,11.229,8.638,6.749
			c4.735-3.587,3.251-11.968-3.101-10.973c-4.013-6.196-8.265-12.291-12.275-18.478c9.972,1.322,19.981,2.996,29.997,3.826
			c0.931,9.591,13.497,7.129,15.121-1.183c2.063-9.331-8.686-12.109-13.345-4.987c-9.911-1.431-19.939-2.457-29.842-3.924
			c6.77-4.524,13.667-8.879,20.215-13.671c5.173,2.525,10.945-5.018,8.339-9.619c-2.834-5.643-10.796-1.453-11.081,3.904
			c-7.042,3.336-13.24,8.9-20.062,12.951c2.874-10.506,5.725-21.021,8.425-31.564c1.051-4.114-6.035-5.781-7.117-1.678
			c-2.912,11.045-5.918,22.082-8.98,33.111c-4.314-5.933-7.48-13.041-12.31-18.433c2.764-5.497-2.849-11.037-8.105-6.742
			c-4.672,3.426-3.526,12.101,2.889,11.036c3.708,6.135,7.648,12.2,11.512,18.291c-9.766-1.326-19.491-3.148-29.212-4.523
			c-0.737-9.307-12.783-7.474-14.995,0.509C1126.306,1452.808,1137.286,1456.188,1142.233,1449.028z"/>
		<path d="M946.893,1407.27c9.018,3.247,18.307,5.965,27.48,8.889c-7.393,3.502-14.99,6.698-22.409,10.151
			c-4.629-3.163-11.631,2.917-10.023,7.895c1.71,6.183,10.742,3.587,11.917-1.818c7.997-2.241,15.472-6.772,23.175-9.915
			c-4.519,10.74-10.068,21.217-14.264,32.024c-7.477,0.806-12.055,12.705-3.656,15.55c6.751,2.376,14.997-6.894,10.39-13.082
			c5.415-10.315,9.71-21.361,14.621-31.953c3.181,6.335,5.4,13.453,9.296,19.325c-3.723,5.249,1.511,11.608,7.433,7.934
			c5.158-2.851,4.92-11.394-1.432-11.411c-3.052-6.658-6.222-13.29-9.228-19.954c9.532,2.754,19.045,5.873,28.691,8.148
			c-0.507,9.613,12.088,9.03,14.911,1.034c3.376-8.869-6.639-13.282-12.276-6.879c-9.445-2.859-19.069-5.339-28.508-8.228
			c7.268-3.491,14.633-6.783,21.719-10.576c4.73,3.259,11.394-3.414,9.541-8.3c-1.953-6.033-10.327-2.962-11.372,2.251
			c-7.365,2.273-14.216,6.871-21.469,9.882c4.269-10.44,9.564-20.676,13.105-31.319c6.91-1.285,10.518-13.129,2.927-15.573
			c-6.526-2.195-13.981,7.893-9.391,13.559c-4.989,10.494-9.245,21.475-14.107,32.095c-3.296-6.499-5.402-13.878-9.214-19.983
			c3.414-4.976-1.17-11.412-6.984-7.887c-5.062,2.693-5.232,11.462,1.203,11.417c2.752,6.571,5.638,13.122,8.514,19.676
			c-9.334-2.732-18.56-5.941-27.844-8.719c0.656-9.292-11.363-9.261-14.72-1.673C930.781,1408.657,940.957,1413.659,946.893,1407.27
			z"/>
		<path d="M1027.408,1481.611c-2.13,5.587,4.372,8.618,8.186,4.884c8.557,2.526,17.567,3.739,26.313,5.666
			c0.004,0.001,0.008,0.004,0.012,0.005c0.014,0.003,0.022,0.014,0.037,0.018c0,0,0.001,0,0.001,0
			c0.219,0.068,0.444,0.075,0.672,0.113c8.805,1.654,17.644,3.541,26.487,4.864c1.772,5.006,8.966,2.936,10.223-1.682
			c1.854-5.814-4.988-8.406-8.58-4.356c-5.791-1.538-11.86-2.204-17.729-3.474c4.318-2.637,9.104-4.735,13.122-7.722
			c3.182,0.225,5.875-3.754,4.601-6.428c-1.395-3.453-6.705-1.919-7.695,1.282c-4.61,0.857-8.484,4.48-12.757,6.428
			c2.05-6.042,3.984-12.104,6.056-18.121c0.222-0.659,0.158-1.328-0.045-1.959c4.041-1.946,4.831-9.089-0.114-10.011
			c-4.197-1.017-8.928,4.81-6.47,8.745c-3.049,6.455-4.79,13.674-7.419,20.386c-2.484-3.421-3.779-7.99-7.037-10.692
			c1.34-3.578-2.602-6.451-5.852-4.037c-2.821,1.855-3.208,6.455,0.187,7.378c1.784,3.952,4.414,7.606,6.52,11.442
			c-6.161-1.181-12.313-2.549-18.448-3.754C1036.312,1475.329,1028.929,1476.976,1027.408,1481.611z"/>
		<path d="M1071.927,1386.489c5.369,1.738,11.164,2.259,16.691,3.497c-4.035,2.698-8.588,4.859-12.406,7.798
			c-3.105-0.202-5.585,3.739-4.47,6.376c1.285,3.515,6.406,1.926,7.33-1.214c4.532-0.895,8.231-4.687,12.33-6.765
			c-1.693,6.734-5.147,13.389-5.907,20.207c-4.135,1.786-5.173,9.212-0.159,10.15c4.059,0.949,8.442-4.635,6.43-8.535
			c3.109-6.464,4.438-13.926,6.875-20.729c2.406,3.34,3.68,7.829,6.888,10.419c-1.191,3.513,2.615,6.412,5.719,3.802
			c2.575-1.96,2.852-6.535-0.456-7.359c-1.839-3.882-4.409-7.489-6.478-11.277c5.697,1.002,11.405,2.088,17.12,2.936
			c1.368,5.371,8.437,3.333,9.557-1.525c1.563-5.427-4.193-8.328-7.727-4.458c-7.978-2.058-16.375-2.805-24.457-4.519
			c-0.028-0.021-0.068-0.011-0.101-0.019c-8.33-1.467-16.638-3.209-24.927-4.744c-1.337-5.203-8.142-3.373-9.5,1.303
			C1062.39,1387.314,1068.278,1390.419,1071.927,1386.489z"/>
		<path d="M788.415,1320.387c1.708,6.896,3.553,13.79,5.388,20.685c-8.721-4.049-17.267-8.558-25.936-12.641
			c2.041-9.072-9.726-10.806-14.158-3.781c-5.362,8.089,3.796,14.558,10.606,9.084c8.338,4.511,17.02,8.539,25.553,12.754
			c-7.75,2.4-15.66,4.452-23.431,6.798c-4.101-3.806-11.827,1.239-10.996,6.356c0.762,6.379,10,5.07,11.936-0.075
			c8.168-1.065,16.149-4.465,24.152-6.459c-6.02,9.963-13.014,19.524-18.732,29.601c-7.45-0.279-13.687,10.821-5.898,14.844
			c6.281,3.353,15.707-4.698,12.118-11.43c6.842-9.422,12.685-19.722,19.069-29.487c2.164,6.725,3.275,14.067,6.204,20.452
			c-4.392,4.602-0.295,11.687,6.088,8.914c5.437-2.057,6.534-10.528,0.299-11.495c-1.994-7.021-4.097-14.029-6.042-21.045
			c8.903,4.106,17.733,8.524,26.815,12.183c-1.926,9.406,10.45,10.687,14.407,3.167c4.604-8.233-4.457-14.107-10.963-8.567
			c-8.8-4.184-17.839-8.02-26.636-12.239c7.626-2.401,15.321-4.603,22.806-7.332c4.192,3.912,11.629-1.781,10.549-6.832
			c-1.023-6.274-9.67-4.379-11.442,0.595c-7.543,1.182-14.91,4.748-22.45,6.681c5.733-9.712,12.434-19.06,17.479-29.08
			c6.949-0.273,12.225-11.498,5.182-14.976c-6.077-3.12-14.831,5.842-11.191,12.052c-6.442,9.659-12.236,19.897-18.575,29.695
			c-2.254-6.903-3.207-14.479-6.026-21.079c4.059-4.384,0.612-11.444-5.649-8.802
			C783.624,1310.836,782.082,1319.487,788.415,1320.387z"/>
		<path d="M844.348,1400.97c-3.025,1.404-4.155,5.86-0.981,7.309c1.111,4.171,3.102,8.187,4.548,12.298
			c-5.815-2.103-11.591-4.404-17.378-6.525c-0.511-5.403-7.953-4.9-10.172-0.56c-2.949,5.155,2.863,9.193,7.207,6.077
			c7.942,3.797,16.535,6.376,24.747,9.617c0.014,0.006,0.021,0.019,0.036,0.026c0,0,0.001,0,0.001,0
			c8.534,3.01,17.041,6.345,25.655,9.064c0.943,5.215,8.259,4.259,10.21-0.1c2.706-5.424-3.494-9.076-7.664-5.61
			c-5.39-2.409-11.198-3.988-16.711-6.139c4.616-1.936,9.611-3.289,13.982-5.621c3.095,0.703,6.304-2.813,5.49-5.647
			c-0.821-3.635-6.242-2.901-7.688,0.093c-4.65,0.15-8.996,3.145-13.481,4.42c2.306-5.436,8.247-13.832,9.066-18.929
			c4.235-1.304,6.13-8.251,1.464-9.908c-3.945-1.646-9.449,3.424-7.669,7.647c-3.987,5.917-6.814,12.774-10.431,18.999
			c-1.882-3.756-2.411-8.456-5.172-11.626C851.278,1402.563,847.924,1399.072,844.348,1400.97z"/>
		<path d="M878.696,1326.364c4.941,2.535,10.498,3.933,15.674,5.998c-4.343,2.04-9.117,3.494-13.286,5.809
			c-3.022-0.669-6.011,2.869-5.349,5.615c0.705,3.682,5.949,2.86,7.321-0.087c4.56-0.189,8.735-3.366,13.045-4.796
			c-2.705,6.392-7.106,12.432-8.919,19.056c-4.301,1.139-6.477,8.308-1.75,9.997c3.823,1.555,8.938-3.335,7.594-7.448
			c4.041-5.921,6.499-13.069,9.935-19.421c1.815,3.665,2.339,8.274,5.056,11.34c-1.705,3.246,1.505,6.739,4.958,4.625
			c2.792-1.538,3.811-5.994,0.712-7.337c-1.177-4.114-3.107-8.07-4.522-12.125c5.374,1.863,10.748,3.793,16.162,5.509
			c0.487,5.511,7.664,4.58,9.513-0.049c2.357-5.087-2.72-8.877-6.798-5.58c-7.418-3.253-15.461-5.273-23.044-8.197
			c-0.004-0.002-0.006-0.005-0.01-0.007c-0.016-0.009-0.036-0.006-0.052-0.015c-7.87-2.718-15.681-5.708-23.501-8.488
			c-0.478-5.343-7.385-4.585-9.441-0.16C869.303,1325.705,874.491,1329.691,878.696,1326.364z"/>
		<path d="M692.011,1343.548c-1.357-3.972-1.254-8.683-3.558-12.19c2.277-3.009-0.553-6.915-4.341-5.494
			c-3.165,0.992-4.879,5.267-1.937,7.121c0.543,4.268,1.972,8.505,2.853,12.769c-5.456-2.839-10.847-5.864-16.274-8.714
			c0.216-5.416-7.196-5.882-9.963-1.873c-3.59,4.729,1.597,9.478,6.307,6.954c7.326,4.79,15.458,8.46,23.125,12.728
			c0.016,0.011,0.022,0.028,0.039,0.037c0.004,0.002,0.007,0.003,0.011,0.005c0.155,0.104,0.331,0.158,0.498,0.244
			c0.02,0.01,0.04,0.019,0.059,0.029c7.812,4.03,15.582,8.296,23.52,12.014c0.239,5.284,7.572,5.299,10.071,1.217
			c3.382-5.018-2.233-9.457-6.813-6.549c-4.988-3.079-10.499-5.394-15.646-8.237c4.805-1.33,9.91-2.018,14.521-3.766
			c2.969,1.098,6.581-1.992,6.155-4.887c-0.33-3.721-5.772-3.671-7.585-0.897c-4.608-0.455-9.281,1.948-13.871,2.636
			c3.014-5.124,9.926-12.585,11.442-17.585c4.308-0.666,7.122-7.472,2.755-9.627c-3.679-2.146-9.772,2.193-8.57,6.591
			C700.089,1331.42,696.403,1337.848,692.011,1343.548z"/>
		<path d="M727.861,1256.382c4.531,3.141,9.814,5.246,14.636,7.955c-4.545,1.481-9.442,2.281-13.847,4.047
			c-2.902-1.054-6.302,2.07-6.017,4.875c0.207,3.746,5.484,3.589,7.219,0.858c4.523,0.394,9.05-2.224,13.482-3.078
			c-3.511,5.994-8.643,11.4-11.308,17.734c-4.388,0.568-7.478,7.412-3.049,9.681c3.57,2.049,9.25-2.175,8.464-6.403
			c4.767-5.338,8.128-12.11,12.355-17.963c1.298,3.867,1.206,8.488,3.47,11.887c-2.098,2.975,0.576,6.868,4.268,5.218
			c2.942-1.167,4.55-5.437,1.672-7.179c-0.612-4.223-1.988-8.393-2.842-12.595c5.04,2.531,10.069,5.144,15.168,7.533
			c-0.252,5.515,6.928,5.525,9.361,1.17c2.984-4.724-1.48-9.149-5.947-6.401c-6.864-4.169-14.508-7.207-21.582-11.079
			c-0.01-0.013-0.029-0.014-0.043-0.022c-7.387-3.711-14.686-7.671-22.019-11.438c0.242-5.358-6.662-5.482-9.276-1.377
			C718.707,1254.49,723.261,1259.145,727.861,1256.382z"/>
		<path d="M614.055,1275.141c8.213,0.02,16.548-2.319,24.715-3.255c-7.266,9.096-15.444,17.652-22.427,26.896
			c-7.33-1.248-14.958,8.95-7.795,13.938c5.68,4.221,16.192-2.73,13.489-9.748c8.01-8.443,15.143-17.889,22.742-26.735
			c1.248,6.947,1.364,14.352,3.418,21.066c-4.938,3.968-1.865,11.535,4.826,9.621c5.626-1.332,7.857-9.578,1.818-11.349
			c-1.039-7.212-2.187-14.434-3.177-21.644c8.245,5.213,16.369,10.763,24.849,15.549c-3.147,9.058,8.883,11.951,13.789,4.999
			c5.621-7.55-2.497-14.553-9.673-9.904c-8.128-5.282-16.541-10.254-24.667-15.574c7.846-1.395,15.734-2.57,23.48-4.313
			c3.637,4.431,11.705-0.282,11.309-5.406c-0.181-6.362-8.964-5.58-11.362-0.892c-7.6,0.203-15.336,2.773-23.035,3.711
			c6.943-8.876,14.803-17.276,21.103-26.549c6.902,0.621,13.57-9.8,7.097-14.164c-5.596-3.872-15.409,3.887-12.639,10.494
			c-7.636,8.738-14.714,18.126-22.272,27.015c-1.308-7.137-1.248-14.754-3.149-21.665c4.573-3.798,2.141-11.253-4.412-9.457
			c-5.5,1.2-8.189,9.554-2.045,11.286c0.775,7.052,1.678,14.123,2.577,21.193c-8.075-5.147-15.923-10.722-23.943-15.901
			c3.22-8.722-8.176-11.981-13.493-5.594c-6.371,7.304,1.81,14.916,9.278,10.386c7.643,5.557,15.688,10.676,23.557,15.958
			c-7.975,1.372-16.065,2.386-24.057,3.689c-3.564-4.31-11.853-0.313-11.709,4.865
			C602.156,1280.088,611.465,1279.985,614.055,1275.141z"/>
	</g>
	<path d="M2098.051,551.455c-180.639-67.356-392.633,23.837-467.262,201.725c-25.817-33.696-56.212-63.328-90.225-88.793
		c20.087-19.662,8.651-45.098-5.866-64.076c-10.797-14.856-23.273-28.454-36.648-41.019c-10.155-9.539-21.007-19.488-33.115-26.511
		c-8.263-4.794-17.418-4.564-26.536-3.003c-81.343-117.877-218.645-185.68-354.834-218.711c4.391-15.536,5.441-32.447,3.068-48.529
		c-7.427-51.598-49.631-95.015-101.11-103.649c-121.279-21.667-194.355,104.305-109.992,195.677
		C776.7,439.058,714.224,575.032,691.17,701.414c-35.76,6.329-43.809,42.125-39.493,73.366c2.13,20.144,6.766,39.855,11.2,59.583
		c0.496,2.205,1.693,4.076,3.244,5.602c7.263,9.202,19.725,13.819,31.009,16.65c-23.525,81.529-29.913,167.6-25.75,252.07
		c-17.156-17.154-38.506-9.597-54.97,3.82c-17.286,13.843-29.008,34.362-35.743,55.193c-4.27,13.205-6.419,27.25-6.82,41.107
		c-0.461,15.938,3.117,31.586,1.958,47.517c-2.125,29.811-17.019,58.022-16.06,88.12c-0.769,16.465,9.937,31.403,21.191,42.502
		c-48.818,27.27-98.149,53.627-146.585,81.579c-26.127,15.075-52.077,30.542-77.121,47.369
		c-23.467,15.97-47.86,32.469-65.415,55.136c-84.746,111.024,160.173,149.917,229.908,158.97
		c-18.252,126.05-25.071,263.612,34.678,380.081c-47.972,8.935-89.653,67.575-67.579,114.756
		c14.642,30.819,52.454,35.589,79.813,19.721c11.633,41.879,55.843,57.557,91.611,33c43.414,67.416,120.708,20.886,107.831-50.47
		c64.392-2.607,129.38-15.16,192.695,1.139c91.938,23.7,168.016,84.69,256.522,116.871c-13.87,23.788-17.418,54.742-4.63,79.289
		c18.517,35.412,64.927,35.469,87.465,4.079c25.765,28.896,67.436,23.082,86.932-9.049c19.073,11.414,42.487,16.211,61.825,1.913
		c33.285-24.759,22.67-74.418-4.061-100.004c38.083-19.668,72.883-47.946,98.056-83.075
		c90.192-127.701,129.747-283.593,154.096-436.05c10.421,1.807,20.89,3.335,31.391,4.599c-4.021,18.679-8.301,37.308-12.247,55.999
		c-4.739,22.641,8.859,46.908,30.193,54.71c3.048,1.115,11.52,2.723,12.67,2.842c19.301,1.986,39.455-8.903,47.761-26.6
		c5.564-11.739,7.146-25.781,9.901-38.352c3.963-18.085,7.925-36.171,11.888-54.254c35.534-15.545,39.268-58.796,46.845-91.983
		c4.883-20.568,4.58-45.873-13.444-60.155c27.576-125.432,54.869-250.921,82.659-376.304
		c211.544,17.975,401.161-157.621,399.499-369.884C2346.336,748.682,2243.397,602.37,2098.051,551.455z M2226.634,667.366
		c32.523,35.225,57.067,76.918,72.55,122.222c-117.283-46.79-241.908,4.43-321.58,95.632
		c-4.359-118.593,54.817-240.497,172.271-280.218C2178.116,621.941,2204.006,642.859,2226.634,667.366z M1707.812,1594.431
		c-0.927-4.075-2.016-8.561-3.916-12.173c-3.206-9.63-6.884-19.082-10.814-28.435c3.902-1.791,7.808-3.576,11.627-5.524
		c21.008,26.999,42.268,53.802,62.52,81.377c-1.649,7.537-3.301,15.075-4.948,22.612
		C1744.719,1632.47,1726.423,1613.265,1707.812,1594.431z M1778.186,1579.741c-1.191,5.424-2.38,10.848-3.572,16.271
		c-15.663-20.647-31.71-41.004-47.648-61.441c15.37-12.294,24.874-31.255,19.286-50.932c-2.737-9.719-6.702-19.135-8.033-29.218
		c-0.704-7.298-0.666-14.675,0.273-21.955c2.035-20.367,13.729-38.349,16.941-58.259c3.277-24.899-8.688-52.655-26.047-70.31
		c-11.713-12.729-22.919-10.801-38.186-7.018c13.356-39.343,22.687-79.976,29.102-121.029c37.34,34.184,81.788,60.652,129.57,77.312
		C1825.977,1362.022,1802.081,1470.881,1778.186,1579.741z M1599.908,1309.818c-261.433,39.511-515.211-7.505-757.302-109.023
		c-31.175-121.404-22.992-278.884,92.487-353.248c48.648-7.097,97.071-15.782,145.238-25.656
		c120.486,27.688,172.28,146.812,139.327,260.419c-11.646,3.623-25.054,3.576-35.683,9.768c-2.041,0.845-3.491,2.732-3.139,5.713
		c-0.263,2.219,0.485,3.825,1.72,4.859c6.133,8.394,14.967,14.669,22.885,21.327c17.232,13.78,35.3,26.593,54.089,38.163
		c18.125,11.162,37.582,22.242,58.31,27.719c40.577,10.807,78.079-27.841,103.96-54.488c9.913-11.689,21.783-23.032,27.501-37.47
		c2.132-7.777-4.594-9.936-10.333-12.365c-8.476-3.589-16.814-7.522-25.037-11.673c-29.948-57.431-23.16-172.928,25.36-219.084
		c22.261-20.737,56.43-25.635,85.735-22.443c30.936,4.118,57.718,23.734,75.296,48.95c-4.081,71.539,13.712,143.97,49.15,205.764
		c1.056,33.623-0.583,67.507-6.798,100.659c-7.351,41.299-22.077,81.754-35.539,121.123
		C1604.755,1309.16,1602.278,1309.499,1599.908,1309.818z M1401.251,1081.968c0.704,0.722,1.628,1.245,2.766,1.485
		c9.591,5.178,19.301,9.18,29.138,13.973c-16.923,6.024-33.675,12.271-50.557,17.89c-14.677,4.589-29.571,10.33-44.841,10.574
		c-42.329-3.145-95.185-17.613-137.316-25.741c23.321-5.456,47.958-9.743,68.412-22.907c12.844-8.684,23.774-19.751,37.236-27.673
		c4.545-2.674,9.955-5.909,15.383-6.053c4.566-0.121,9.426,1.944,13.606,3.531
		C1358.417,1056.012,1379.135,1070.539,1401.251,1081.968z M1436.624,1094.676c-0.043,0.136-0.089,0.263-0.137,0.324
		c-0.005,0.008-0.011,0.021-0.016,0.032C1436.122,1095.386,1436.622,1094.575,1436.624,1094.676z M1191.502,1102.538
		c-0.001,0.003-0.007,0.01-0.008,0.013c0.003-0.006-0.006-0.004-0.003-0.01C1191.494,1102.54,1191.498,1102.538,1191.502,1102.538z
		 M1199.802,1100.304c44.844,15.055,90.302,30.084,137.772,34.242c16.747-0.019,32.396-6.474,47.614-12.158
		c16.848-6.832,33.214-14.626,49.004-23.512c-17.616,26.877-71.032,84.236-105.183,79.978c-17.669-2.372-34.699-11.74-49.968-20.386
		c-28.574-16.631-56.247-35.404-80.617-57.83C1198.884,1100.527,1199.342,1100.41,1199.802,1100.304z M1652.461,768.431
		c1.896-4.579,4.076-9.389,6.417-14.272c51.659,113.016,178.822,160.068,296.749,155.165
		c-79.807,81.561-203.634,136.064-315.366,90.598C1617.452,924.11,1621.951,841.615,1652.461,768.431z M1631.26,1278.584
		c19.605-54.383,31.548-111.624,31.85-169.562c10.26,15.432,21.71,30.198,34.289,43.848c-6.598,50.43-18.176,100.559-35.513,148.409
		c-13.414,1.753-26.811,3.645-40.207,5.528C1624.857,1297.48,1627.99,1288.094,1631.26,1278.584z M1736.063,1154.793
		c-41.428-38.609-72.269-86.322-90.721-139.221c114.654,42.091,238.942-15.127,320.213-97.549
		c-0.206,115.326-57.662,239.191-171.846,280.062C1772.981,1185.634,1753.681,1171.21,1736.063,1154.793z M1884.611,566.851
		c84.115-22.277,174.633-11.22,250.615,29.857c-118.881,45.662-175.077,169.091-170.384,291.017
		c-90.609-74.652-152.237-195.429-109.027-312.028C1865.285,572.383,1875.319,569.277,1884.611,566.851z M1836.675,583.04
		c1.132-0.483,2.339-0.971,3.53-1.458c-38.495,117.799,23.896,239.322,114.375,314.593
		c-115.178,5.874-242.078-44.399-288.212-156.792C1703.514,669.487,1763.442,614.294,1836.675,583.04z M1619.613,782.084
		c-8.832,26.005-14.795,52.947-17.727,80.257c-26.514-32.909-70.038-49.608-111.745-42.669
		c-49.766,4.838-78.946,37.026-94.131,82.684c-16.453,51.038-18.367,110.392-0.837,161.498
		c-12.782-7.194-25.273-14.875-38.441-21.388c-10.587-5.236-23.94-12.723-36.193-12.006c-14.542,0.851-28.258,11.944-39.296,20.403
		c-14.278,11.704-28.587,22.817-46.857,27.341c27.555-110.633-15.875-221.612-127.029-261.983
		c71.868-15.354,143.285-33.096,213.684-54.22c67.993-21.32,138.135-42.07,198.746-80.492
		C1558.114,709.196,1592.311,743.105,1619.613,782.084z M1133.109,351.801c106.692,35.144,211.01,92.31,277.771,184.184
		c-26.118,6.544-51.775,15.25-77.184,24.441c-37.504-52.724-79.34-103.178-129.291-144.493
		c-32.509-26.264-67.041-49.91-101.802-73.068C1112.836,345.621,1123.017,348.57,1133.109,351.801z M961.08,391.451
		c-3.504,33.292-6.259,66.693-7.209,100.154c-1.836,60.243,7.021,120.01,20.816,178.543c-47.291,8.171-95.023,14.004-142.818,18.659
		c2.585-42.94,7.74-86.028,17.209-127.947c14.379-62.34,40.481-121.354,66.625-179.498
		C930.058,387.296,945.501,390.652,961.08,391.451z M987.577,667.856c-8.687-36.556-15.594-73.717-18.967-111.123
		c-4.773-55.058,0.072-110.415,5.578-165.241c19.088-0.763,37.824-5.434,54.829-14.273c21.246,26.31,41.926,53.112,61.127,80.953
		c34.447,49.543,59.659,104.495,79.66,161.29C1110.409,640.317,1049.467,656.909,987.577,667.856z M1182.171,615.192
		c-12.862-36.092-27.478-71.725-45.238-105.661c-26.402-50.043-61.456-94.876-96.601-138.992
		c12.663-8.316,23.534-19.401,31.312-32.339c40.099,25.876,79.963,52.493,117.383,82.099
		c51.399,40.846,93.448,91.891,131.947,144.755C1274.759,581.97,1228.649,599.033,1182.171,615.192z M873.601,304.992
		c-3.977-9.014-6.535-18.625-7.356-28.501c-4.006-48.146,31.967-86.611,78.197-93.034c46.858-6.511,99.222,20.182,113.759,66.869
		c10.132,32.539-0.96,70.383-25.621,93.974c-25.264,24.169-74.079,25.347-104.873,13.03
		C903.813,347.773,883.925,328.395,873.601,304.992z M845.685,421.367c15.4-17.985,31.975-35.654,50.853-49.977
		c2.421,1.525,4.89,2.965,7.409,4.321c-25.329,56.298-50.229,113.323-65.531,173.281c-11.041,46.249-16.576,93.664-19.681,141.063
		c-33.516,3.178-67.135,5.348-100.643,8.612C737.794,598.288,780.574,500.445,845.685,421.367z M687.466,824.428
		c-3.368-14.882-6.799-29.782-9.034-44.884c-1.561-10.546-2.959-23.045-0.359-33.511c2.662-10.716,9.737-17.52,20.302-19.613
		c120.993-9.978,242.902-18.491,361.336-46.707c108.044-25.626,210.063-70.921,315.258-105.589
		c16.785-5.531,33.427-10.294,50.318-15.285c7.086-2.093,14.438-3.881,21.795-3.192c12.562,1.178,22.121,12.616,30.904,20.717
		c11.421,10.534,22.09,21.894,31.76,34.058c6.482,8.154,19.004,22.473,13.442,33.533c-2.767,5.503-8.015,9.267-13.145,12.676
		c-52.218,34.696-113.976,54.293-173.276,73.203c-62.568,19.952-126.211,36.375-190.248,50.869
		c-18.574,4.204-37.185,8.244-55.821,12.163c-17.637,3.709-37.921,11.02-55.913,11.414c-21.145,0.463-42.086,4.207-62.079,11.035
		c-59.955,9.945-120.351,18.13-181.109,20.856c-32.403,0.717-66.206,2.749-97.311-7.899
		C691.86,827.246,689.678,825.811,687.466,824.428z M711.076,909.428c3.356-16.274,7.39-32.397,12.079-48.335
		c61.464,5.451,123.282-1.662,184.268-9.643c-99.528,81.703-107.525,226.012-79.68,343.115
		c-44.472-19.214-88.2-40.046-128.978-66.155C693.547,1055.38,696.269,981.228,711.076,909.428z M592.973,1304.114
		c4.22-16.348,8.194-32.868,9.157-49.787c0.868-15.25-2.53-30.253-2.089-45.521c0.471-16.301,4.274-33.564,11.981-48.44
		c6.04-11.659,21.492-35.292,36.423-35.603c29.202,19.871,57.526,40.024,89.149,56.465c32.762,17.033,66.71,31.654,100.86,45.648
		c62.368,25.696,125.799,48.411,190.624,67.119c172.523,50.371,354.565,68.637,533.25,46.713
		c24.658-3.011,49.279-6.328,73.892-9.683c24.011-3.273,48.489-5.499,72.13-10.931c14.052,12.378,25.511,37.526,20.1,55.984
		c-2.137,7.069-5.538,13.785-7.949,20.782c-5.756,16.835-9.644,34.675-8.859,52.547c0.412,9.374,2.819,18.463,5.387,27.437
		c2.114,7.388,6.94,16.043,4.059,23.694c-1.706,4.532-5.079,8.235-8.683,11.469c-15.086,13.542-34.755,20.533-53.401,27.614
		c-21.953,8.337-44.814,14.658-67.689,19.879c-45.519,10.39-91.954,15.357-138.499,18.119
		c-173.191,10.278-345.721-21.354-512.149-66.915c-80.498-21.043-162.834-49.311-238.431-82.022
		c-35.643-15.942-71.221-32.766-100.88-58.64c-7.788-6.794-14.927-14.845-15.625-25.622
		C584.867,1331.08,589.535,1316.822,592.973,1304.114z M1549.071,1763.437c-20.495,119.846-65.817,299.535-153.664,386.317
		c-38.019,36.07-89.94,32.582-136.832,18.831c-30.049-8.274-59.262-19.381-88.51-30.068
		c-67.689-25.572-137.227-46.534-209.028-56.626c-54.974-9.53-112.838-11.434-164.415-34.431
		c-47.292-21.697-59.14-63.745-64.715-111.706c-15.787-148.915,21.83-300.201,80.152-436.557
		c240.292,77.861,497.708,133.301,750.374,92.492C1563.516,1649.156,1558.243,1706.76,1549.071,1763.437z M520.929,1703.718
		c-47.48-6.852-94.818-15.746-140.396-31.003c-21.327-7.139-42.231-16.203-60.518-29.462c-8.677-6.291-17.19-14.308-19.114-24.851
		c-1.342-7.352,0.789-14.999,4.434-21.522c11.672-20.889,34.119-37.063,53.441-50.349c77.547-53.318,162.092-95.282,243.783-141.701
		c2.663,1.874,5.35,3.711,8.073,5.478c-16,39.425-30.381,79.655-42.973,120.48c-55.827,15.005-113.079,25.55-167.176,46.451
		c-16.62,6.433-33.827,13.627-48.163,24.416c-76.748,63.766,143.388,80.786,176.909,84.17c-1.154,6.171-2.263,12.351-3.33,18.535
		C524.241,1704.149,522.586,1703.93,520.929,1703.718z M531.732,1672.965c-22.498-2.464-45.03-4.501-67.464-7.535
		c-27.79-3.759-56.034-8.232-82.609-17.466c-9.122-3.17-18.032-7.216-25.773-13.06c-2.46-1.857-4.891-4.029-5.891-6.944
		c-2.411-7.027,8.622-14.703,13.647-18.289c6.638-4.738,13.893-8.593,21.259-12.064c18.495-8.715,38.052-15.159,57.613-21.001
		c20.846-6.226,41.935-11.61,63.067-16.768c16.971-4.142,34.021-8,50.914-12.457c2.232-0.589,4.461-1.192,6.681-1.826
		C550.723,1587.517,540.19,1630.065,531.732,1672.965z M742.928,2245.633c-0.28,5.926-1.303,11.841-3.526,17.357
		c-5.223,12.958-17.609,22.484-32.028,20.51c-1.439-0.197-2.863-0.506-4.253-0.928c-13.725-4.173-22.109-19.435-27.484-31.713
		c-2.105-4.776-7.429-6.78-12.375-6.288c-6.204,0.617-8.053,3.919-12.074,7.973c-8.425,8.492-21.409,12.486-33.089,9.593
		c-18.634-4.616-26.301-21.998-26.764-39.592c-0.2-7.595-7.236-14.028-15.039-13.026c-4.176,0.536-7.555,4.415-10.865,6.76
		c-4.471,3.167-9.161,6.06-14.255,8.121c-8.765,3.546-20.017,4.982-28.449,0.705c-21.555-10.934-14.812-40.297-4.826-57.044
		c5.697-9.553,13.52-18.007,22.92-24.004c4.587-2.927,9.564-5.272,14.806-6.757c2.127-0.603,14.692-3.879,16.137-1.716
		c40.974,61.342,95.885,92.995,169.89,91.847c1.541-0.024,1.367,14.093,1.352,15.507
		C742.996,2243.835,742.971,2244.734,742.928,2245.633z M1441.207,2363.13c5.419,16.126,2.259,37.189-17.385,40.715
		c-11.973,2.149-23.6-5.695-32.268-13.1c-7.8-6.77-18.362-3.749-21.89,5.78c-5.038,13.606-16.197,25.093-31.645,24.625
		c-12.556-0.381-22.312-12.972-27.277-23.083c-4.261-8.412-18.439-8.688-22.617,0c-6.317,13.341-17.35,29.686-34.342,27.274
		c-13.923-1.977-20.378-14.641-22.408-27.23c-1.49-15.286,2.121-32.134,11.785-44.986c58.493,16.658,120.502,1.848,175.726-19.778
		C1429.051,2340.855,1437.331,2351.594,1441.207,2363.13z M1587.231,2106.323c-17.917,40.405-39.148,79.368-64.557,115.566
		c-0.608,0.76-1.114,1.571-1.533,2.433c0.036-0.133,0.072-0.265,0.108-0.398c-50.499,67.909-133.837,103.381-216.515,110.473
		c-83.334,1.417-153.972-51.08-225.715-86.56c-51.907-26.428-106.426-49.382-165.182-53.163
		c-80.066-7.265-182.804,25.604-255.274-10.914c-27.866-15.444-50.856-40.61-67.926-67.191c-0.23-0.372-0.436-0.755-0.712-1.102
		c-70.663-116.791-59.834-262.22-41.004-392.165c0.642-1.694,1.086-3.435,0.88-5.164c16.723-100.873,45.883-199.715,83.429-294.296
		c52.798,29.476,109.93,50.219,166.495,71.067c-54.605,126.591-89.008,264.921-84.131,403.419
		c3.421,47.572,7.42,105.567,44.083,140.187c40.101,35.315,96.314,40.491,146.98,48.57c71.611,9.337,142.914,22.304,211.102,46.68
		c60.144,19.652,118.353,47.84,181.526,56.447c50.571,6.729,92.397-11.089,124.018-50.92
		c103.165-131.181,154.958-384.604,152.178-549.962c31.808-6.036,63.252-14.107,93.604-25.515
		c3.926,9.158,7.277,18.46,10.427,27.919c6.798,21.45,10.603,43.133,8.766,65.685c-3.561,42.231-8.667,84.339-14.837,126.266
		c-0.185,0.716-0.281,1.452-0.321,2.205C1656.605,1895.269,1632.053,2004.768,1587.231,2106.323z M1728.435,1780.627
		c-9.238-1.133-18.457-2.605-27.624-4.234c5.518-39.16,10.125-78.447,13.56-117.844c1.177-13.531,0.428-26.903-1.588-40.311
		c15.755,16.264,31.169,32.869,46.025,49.927c-8.245,37.687-16.58,75.353-24.826,113.04
		C1732.134,1781.002,1730.28,1780.85,1728.435,1780.627z M1786.846,1869.166c-0.797,3.639-1.654,8.862-2.717,11.363
		c-3.572,9.201-13.289,14.411-22.826,13.895c-1.88-0.102-6.768-1.801-8.264-2.6c-6.294-3.362-10.638-9.715-11.649-16.951
		c-0.471-3.369,0.793-9.372,1.716-13.136c4.615-21.012,9.22-42.025,13.824-63.04c0.127-0.457,0.234-0.911,0.302-1.376
		c4.427-20.2,8.858-40.399,13.309-60.594c8.288,20.866,20.135,38.821,32.873,56.826
		C1797.892,1818.757,1792.369,1843.962,1786.846,1869.166z M1851.645,1696.283c-0.907,9.059-21.148,78.632-26.51,81.932
		c-1.699,1.045-20.932-32.591-22.241-35.569c-5.058-11.505-11.941-20.474-12.877-33.635c-0.868-12.204,2.92-24.92,11.302-33.833
		c10.904-11.593,41.204-19.314,48.634,0.326C1852.208,1681.463,1852.394,1688.803,1851.645,1696.283z M1912.87,1294.625
		c-25.183,114.405-49.985,228.888-75.435,343.233c-3.789-0.733-7.677-1.111-11.476-1.04c-1.728-0.249-3.63-0.124-5.687,0.496
		c-10.763,3.243-21.73,7.739-31.072,14.337c28.556-130.243,57.174-260.472,85.751-390.71c14.258,3.849,28.742,6.804,43.352,8.907
		C1916.492,1278.107,1914.681,1286.366,1912.87,1294.625z M2019.715,1244.335c-27.598,3.841-57.022,4.243-84.901,1.304
		c-42.675-4.28-88.85-18.511-126.686-39.367c115.357-46.401,170.925-172.907,170.28-291.499
		c94.569,76.035,148.834,196.764,102.854,315.023C2061.494,1236.366,2040.615,1241.319,2019.715,1244.335z M2130.659,1209.041
		c-10.901,5.64-22.145,10.667-33.671,15.12c41.626-119.128-14.074-241.028-107.895-317.53
		c120.432-7.149,239.62,44.554,285.87,161.757C2241.638,1128.615,2191.836,1177.387,2130.659,1209.041z M2313.75,955.811
		c-5.562,34.247-16.129,67.392-31.077,97.761c-50.561-116.414-173.917-167.505-295.352-159.944
		c77.688-89.519,203.797-138.338,316.85-88.108C2318.432,853.274,2321.535,907.113,2313.75,955.811z"/>
</g>
</svg>
