<?xml version="1.0" encoding="utf-8"?>
<!-- Generator: Adobe Illustrator 27.5.0, SVG Export Plug-In . SVG Version: 6.00 Build 0)  -->
<svg version="1.1" xmlns="http://www.w3.org/2000/svg" xmlns:xlink="http://www.w3.org/1999/xlink" x="0px" y="0px"
	 viewBox="0 0 500 500" style="enable-background:new 0 0 500 500;" xml:space="preserve">
<g id="BACKGROUND">
	<rect style="fill:#FFFFFF;" width="500" height="500"/>
</g>
<g id="OBJECTS">
	<g>
		<defs>
			<rect id="SVGID_1_" width="500" height="500"/>
		</defs>
		<clipPath id="SVGID_00000154396959065982258360000010645993709368749493_">
			<use xlink:href="#SVGID_1_"  style="overflow:visible;"/>
		</clipPath>
		<g style="clip-path:url(#SVGID_00000154396959065982258360000010645993709368749493_);">
			<path style="fill:#FFFFFF;stroke:#272726;stroke-width:2;stroke-linecap:round;stroke-linejoin:round;stroke-miterlimit:10;" d="
				M-74.547,377.334c0-181.814,147.389-329.203,329.203-329.203S583.859,195.52,583.859,377.334c0,12.875-0.765,25.569-2.203,38.058
				h45.548c1.263-12.515,1.913-25.211,1.913-38.058c0-206.809-167.652-374.461-374.461-374.461s-374.461,167.652-374.461,374.461
				c0,12.848,0.65,25.544,1.913,38.058h45.548C-73.783,402.903-74.547,390.208-74.547,377.334z"/>
			<path style="fill:#FFFFFF;stroke:#272726;stroke-width:2;stroke-linecap:round;stroke-linejoin:round;stroke-miterlimit:10;" d="
				M254.656,48.131c-181.814,0-329.203,147.389-329.203,329.203c0,12.875,0.765,25.569,2.203,38.058h54.529
				c-1.722-12.442-2.633-25.143-2.633-38.058c0-151.936,123.168-275.104,275.104-275.104c151.936,0,275.104,123.168,275.104,275.104
				c0,12.916-0.911,25.617-2.633,38.058h54.529c1.438-12.489,2.203-25.184,2.203-38.058
				C583.859,195.52,436.47,48.131,254.656,48.131z"/>
			<path style="fill:#FFFFFF;stroke:#272726;stroke-width:2;stroke-linecap:round;stroke-linejoin:round;stroke-miterlimit:10;" d="
				M27.674,377.334c0-125.358,101.623-226.981,226.981-226.981s226.981,101.623,226.981,226.981c0,12.971-1.104,25.682-3.194,38.058
				h48.684c1.722-12.442,2.633-25.143,2.633-38.058c0-151.936-123.169-275.104-275.104-275.104
				c-151.936,0-275.104,123.168-275.104,275.104c0,12.916,0.911,25.617,2.633,38.058h48.684
				C28.779,403.016,27.674,390.304,27.674,377.334z"/>
			<path style="fill:#FFFFFF;stroke:#272726;stroke-width:2;stroke-linecap:round;stroke-linejoin:round;stroke-miterlimit:10;" d="
				M254.656,150.352c-125.358,0-226.981,101.623-226.981,226.981c0,12.971,1.104,25.682,3.194,38.058h47.933
				c-2.643-12.269-4.047-24.999-4.047-38.058c0-99.357,80.545-179.902,179.902-179.902c99.357,0,179.902,80.545,179.902,179.902
				c0,13.059-1.404,25.789-4.047,38.058h47.933c2.09-12.376,3.194-25.088,3.194-38.058
				C481.637,251.975,380.014,150.352,254.656,150.352z"/>
			<path style="fill:#FFFFFF;stroke:#272726;stroke-width:2;stroke-linecap:round;stroke-linejoin:round;stroke-miterlimit:10;" d="
				M123.577,377.334c0-72.393,58.686-131.079,131.079-131.079c72.393,0,131.079,58.686,131.079,131.079
				c0,13.237-1.97,26.013-5.619,38.058h50.395c2.643-12.269,4.047-24.999,4.047-38.058c0-99.357-80.545-179.902-179.902-179.902
				c-99.357,0-179.902,80.545-179.902,179.902c0,13.059,1.404,25.789,4.047,38.058h50.395
				C125.547,403.346,123.577,390.571,123.577,377.334z"/>
		</g>
		
			<path style="clip-path:url(#SVGID_00000154396959065982258360000010645993709368749493_);fill:#FFFFFF;stroke:#272726;stroke-width:2;stroke-linecap:round;stroke-linejoin:round;stroke-miterlimit:10;" d="
			M330.832,500.21c-67.084,13.652-137.567,10.252-203.025-9.794c-9.638-2.952-19.46-6.424-26.926-13.197
			c-7.466-6.773-12.059-17.655-8.715-27.165c3.344-9.509,16.448-15.032,24.336-8.757c-11.771-7.967-15.819-25.442-8.749-37.773
			c7.07-12.331,24.195-17.667,37.018-11.534c-15.652-19.181-6.664-52.719,16.482-61.502s52.121,10.346,53.136,35.082
			c6.547-4.616,16.054-4.508,22.494,0.258c6.44,4.765,9.323,13.825,6.823,21.436c-0.884-19.985,18.338-38.431,38.269-36.725
			c19.932,1.706,35.739,23.151,31.471,42.695c10.124-7.504,24.538-8.721,35.777-3.022c11.24,5.7,18.774,18.047,18.703,30.649
			c13.562-7.341,32.226,0.198,38.876,14.112c6.65,13.914,2.137,31.603-8.796,42.479C387.073,488.328,370.736,492.089,330.832,500.21
			z"/>
		
			<path style="clip-path:url(#SVGID_00000154396959065982258360000010645993709368749493_);fill:#FFFFFF;stroke:#272726;stroke-width:2;stroke-linecap:round;stroke-linejoin:round;stroke-miterlimit:10;" d="
			M-72.493,503.159c-13.955-6.312-21.766-23.737-17.192-38.354s20.924-24.483,35.987-21.715c-5.619-9.407-4.392-22.399,2.889-30.587
			c7.281-8.189,20.041-10.926,30.04-6.444c-9.721-23.014,0.347-52.549,22.1-64.834s52.245-5.655,66.933,14.554
			c5.665-8.03,16.217-12.288,25.869-10.439c9.652,1.849,17.883,9.706,20.179,19.261c14.751-12.665,37.925-14.29,54.299-3.808
			c16.375,10.482,24.601,32.206,19.276,50.905c10.591-4.182,23.287-2.514,32.438,4.262c9.151,6.776,14.45,18.434,13.538,29.784
			c15.183,3.304,29.246,13.43,35.152,27.802c5.905,14.372,2.294,32.713-9.996,42.22c-10.577,8.182-24.948,8.867-38.316,9.212
			c-21.212,0.548-42.424,1.096-63.637,1.643c-45.028,1.163-90.056,2.325-135.084,3.488
			C-9.759,530.927-35.261,519.999-72.493,503.159z"/>
		
			<path style="clip-path:url(#SVGID_00000154396959065982258360000010645993709368749493_);fill:#FFFFFF;stroke:#272726;stroke-width:2;stroke-linecap:round;stroke-linejoin:round;stroke-miterlimit:10;" d="
			M320.942,536.753c67.084,13.652,137.567,10.252,203.025-9.794c9.638-2.952,19.46-6.424,26.926-13.197
			c7.466-6.773,12.059-17.655,8.715-27.165c-3.344-9.509-16.448-15.032-24.336-8.757c11.771-7.967,15.819-25.442,8.749-37.773
			c-7.07-12.331-24.195-17.667-37.018-11.534c15.652-19.181,6.664-52.718-16.482-61.502c-23.146-8.784-52.121,10.346-53.136,35.082
			c-6.547-4.616-16.054-4.508-22.494,0.258c-6.44,4.765-9.323,13.825-6.823,21.436c0.884-19.985-18.338-38.432-38.269-36.725
			c-19.932,1.706-35.739,23.151-31.471,42.695c-10.124-7.504-24.538-8.721-35.777-3.022c-11.239,5.7-18.774,18.047-18.703,30.649
			c-13.562-7.341-32.226,0.198-38.876,14.112c-6.65,13.914-2.137,31.603,8.796,42.479
			C264.701,524.87,281.038,528.632,320.942,536.753z"/>
		<g style="clip-path:url(#SVGID_00000154396959065982258360000010645993709368749493_);">
			<path style="fill:#FFFFFF;stroke:#272726;stroke-width:2;stroke-linecap:round;stroke-linejoin:round;stroke-miterlimit:10;" d="
				M263.728,319.565c2.278,15.924-8.806,30.66-20.967,41.189c-12.161,10.529-26.425,19.454-34.418,33.413
				c-7.684,13.42-8.44,13.142-5.294,28.283c3.147,15.141,9.884,29.26,16.383,43.181c-6.642,1.891-18.565,1.541-24.788-0.08
				c-7.331-12.352-8.486-24.622-11.099-38.745c-2.613-14.124-1.58-10.937-1.58-25.301c0-15.133,20.797-21.583,24.311-36.199
				c1.989-8.274,0.076-23.286,0-31.795c-0.076-8.509,3.566-24.853,8.967-31.429"/>
			<path style="fill:#FFFFFF;stroke:#272726;stroke-width:2;stroke-linecap:round;stroke-linejoin:round;stroke-miterlimit:10;" d="
				M366.071,61.819c1.461-12.108,13.333-21.664,25.529-21.596c12.196,0.068,23.519,8.927,27.646,20.403
				c3.047,8.473,2.537,17.78,4.292,26.612c1.755,8.832,7.021,18.158,15.855,19.899c3.023,0.596,6.646-0.048,8.254-2.676
				c1.608-2.629-0.702-6.999-3.675-6.187c6.595-0.548,12.788,5.215,13.521,11.792c0.733,6.577-3.423,13.166-9.323,16.162
				c-5.9,2.996-13.15,2.672-19.215,0.026c-6.066-2.646-11.025-7.412-14.812-12.839c-3.786-5.427-6.49-11.526-9.003-17.648
				c-3.303-8.045-7.298-17.173-15.584-19.815c-3.577-1.141-7.427-0.84-11.182-0.834c-3.755,0.006-7.736-0.376-10.757-2.607
				C364.599,70.281,363.093,65.637,366.071,61.819z"/>
			<path style="fill:#FFFFFF;stroke:#272726;stroke-width:2;stroke-linecap:round;stroke-linejoin:round;stroke-miterlimit:10;" d="
				M400.969,124.941c3.913,5.113,2.533,12.63-0.761,18.162s-8.191,9.959-11.594,15.425c-3.403,5.466-5.083,12.854-1.479,18.189
				c4.599,6.808,14.492,6.482,22.209,9.301c8.194,2.993,14.597,10.451,16.314,19.004c1.718,8.553-1.309,17.904-7.712,23.829
				c0.969-4.264-0.247-8.965-3.162-12.224c-2.915-3.259-7.451-4.991-11.796-4.503c6.058,8.047,5.318,19.846,0.094,28.458
				c-4.109,6.775-10.96,12.067-18.78,13.344c-8.586,1.402-17.504-2.158-23.864-8.094c-6.36-5.936-10.393-14.008-12.888-22.342
				c-5.667-18.928-22.963-77.558-13.935-95.133C342.643,110.783,377.895,134.457,400.969,124.941z"/>
			<path style="fill:#FFFFFF;stroke:#272726;stroke-width:2;stroke-linecap:round;stroke-linejoin:round;stroke-miterlimit:10;" d="
				M289.832,278.924c-0.228,14.84,1.975,30.866,12.163,41.658c8.092,8.571,20.178,12.493,31.958,12.922
				c11.777,0.428,17.998-1.285,30.503-3.524c24.544-4.395,1.318,38.044-2.677,43.32c-2.329,3.076-5.648,6.378-9.415,5.543
				c-3.354-0.743-5.37-4.536-8.725-5.279c-2.725-0.603-5.543,1.09-7.113,3.398c-1.569,2.308-2.158,5.124-2.712,7.859
				c-0.698,3.441-1.399,6.953-0.984,10.439c0.415,3.486,2.145,7.007,5.233,8.678c3.76,2.036,8.439,0.885,12.333-0.88
				c9.33-4.229,16.908-11.594,23.263-19.628c11.861-14.994,20.108-32.827,23.849-51.576c1.127-5.649,1.626-12.192-2.195-16.504
				c-2.552-2.879-6.477-4.066-10.231-4.911c-13.231-2.98-27.049-3.328-40.673-1.858c3.28-10.901,6.561-21.802,9.841-32.703"/>
			<path style="fill:#FFFFFF;stroke:#272726;stroke-width:2;stroke-linecap:round;stroke-linejoin:round;stroke-miterlimit:10;" d="
				M377.133,158.18c-5.887,36.993,19.422,73.489,14.318,110.598c-3.259,23.69-19.202,44.64-39.834,56.731
				c-20.632,12.091-42.48,12.791-68.212,7.77c-23.471-4.58-56.862-20.916-78.453-31.197v-78.52c0,0,88.495,32.007,111.96-10.239"/>
			<path style="fill:#FFFFFF;stroke:#272726;stroke-width:2;stroke-linecap:round;stroke-linejoin:round;stroke-miterlimit:10;" d="
				M180.962,228.407c-5.268-16.15-16.336-30.53-31.144-38.853c-14.808-8.323-33.3-10.239-49.163-4.163
				c-15.863,6.076-28.573,20.337-31.826,37.01c-2.273,11.652-0.095,23.638,0.733,35.48c0.828,11.842,0.002,24.633-7.198,34.072
				c-3.187,4.179-7.695,7.552-12.872,8.458c-5.177,0.906-10.985-1.031-13.867-5.426c-1.972,11.795,6.551,24.372,18.237,26.912
				c-12.708,9.163-18.349,27.018-13.212,41.819c5.137,14.801,20.626,25.322,36.279,24.642c-6.269,0.255-10.921-7.463-8.682-13.325
				c2.239-5.861,9.556-8.758,15.623-7.157c6.067,1.602,10.698,6.838,12.914,12.708c1.485,3.934,2.025,8.346,0.766,12.358
				c-1.259,4.012-4.525,7.514-8.642,8.365c22.378,3.649,46.424-9.157,55.885-29.762c9.461-20.605,3.5-47.189-13.854-61.782
				c6.992,3.241,15.467,3.083,22.333-0.415c6.866-3.498,11.976-10.262,13.464-17.823c-9.379,2.901-20.442-1.018-25.902-9.177
				c-5.46-8.159-4.866-19.88,1.392-27.444c6.258-7.564,17.66-10.344,26.639-6.371"/>
			<path style="fill:#FFFFFF;stroke:#272726;stroke-width:2;stroke-linecap:round;stroke-linejoin:round;stroke-miterlimit:10;" d="
				M228.239,289.372c3.843,17.27-5.583,34.88-17.585,47.88c-12.002,13-26.831,23.321-37.711,37.273
				c-11.666,14.96-18.213,33.512-20.52,52.342c-2.306,18.83-0.533,21.193,3.596,38.962c-8.507,2.384-24.052,1.083-24.052,1.083
				c-10.188-22.466-4.24-34.288,5.034-57.147c9.274-22.858,21.6-45.2,23.518-69.793c1.348-17.293-2.579-34.497-4.616-51.722
				c-2.037-17.225-1.956-35.626,6.585-50.721c13.187-23.305,43.747-32.223,70.107-27.515c12.012,2.145,23.503,6.592,35.45,9.073
				c11.948,2.48,24.965,2.826,35.758-2.867c11.905-6.279,19.266-19.081,22.171-32.222c2.905-13.142,1.956-26.791,0.412-40.703
				c-2.778-17.58-1.09-36.62,8.839-51.391c9.93-14.771,29.417-23.837,46.249-18.052c13.552,4.658,22.606,17.283,29.714,29.727
				c7.108,12.444,13.581,25.902,24.968,34.602c6.03,4.607,13.957,8.725,13.767,16.947c-0.093,3.992-2.205,7.612-5.236,10.211
				c-7.367,6.317-17.726,8.77-27.16,6.704c-7.884-1.727-15.036-6.592-20.545-12.587l-17.37-1.674
				c-10.968-1.057-20.631-8.055-24.561-18.349c-0.025-0.065-0.05-0.131-0.074-0.196l0.048,0.624"/>
			<path style="fill:#FFFFFF;stroke:#272726;stroke-width:2;stroke-linecap:round;stroke-linejoin:round;stroke-miterlimit:10;" d="
				M406.843,96.608l71.07-72.758c-24.558,13.551-65.506,39.876-90.742,54.133c-0.575,4.99,1.028,10.192,4.312,13.992
				C394.768,95.775,399.683,98.115,406.843,96.608z"/>
			<g>
				<defs>
					<path id="XMLID_00000093140608173764919530000002107348089466078388_" d="M384.415,123.729c-4.35-0.456-9.219-3.08-9.946-7.771
						c-0.468-3.022,0.957-6.508,3.785-7.895c3.692-1.811,8.28,0.251,10.921,3.404c1.557,1.858,2.697,4.178,2.668,6.602
						C391.789,122.653,388.261,124.132,384.415,123.729z"/>
				</defs>
				<use xlink:href="#XMLID_00000093140608173764919530000002107348089466078388_"  style="overflow:visible;fill:#FFFFFF;"/>
				<clipPath id="XMLID_00000061464065253759525370000006140208753143236262_">
					<use xlink:href="#XMLID_00000093140608173764919530000002107348089466078388_"  style="overflow:visible;"/>
				</clipPath>
				
					<path style="clip-path:url(#XMLID_00000061464065253759525370000006140208753143236262_);fill:#272726;stroke:#272726;stroke-width:2;stroke-linecap:round;stroke-linejoin:round;stroke-miterlimit:10;" d="
					M379.895,118.602c-4.35-0.456-9.219-3.08-9.946-7.771c-0.468-3.023,0.957-6.508,3.785-7.895
					c3.692-1.811,8.28,0.251,10.921,3.403c1.557,1.858,2.697,4.178,2.668,6.602C387.269,117.526,383.741,119.006,379.895,118.602z"
					/>
				
					<path style="clip-path:url(#XMLID_00000061464065253759525370000006140208753143236262_);fill:#FFFFFF;stroke:#272726;stroke-width:2;stroke-linecap:round;stroke-linejoin:round;stroke-miterlimit:10;" d="
					M330.493,61.684"/>
				
					<use xlink:href="#XMLID_00000093140608173764919530000002107348089466078388_"  style="overflow:visible;fill:none;stroke:#272726;stroke-width:2;stroke-linecap:round;stroke-linejoin:round;stroke-miterlimit:10;"/>
			</g>
			<path style="fill:#FFFFFF;stroke:#272726;stroke-width:2;stroke-linecap:round;stroke-linejoin:round;stroke-miterlimit:10;" d="
				M403.26,150.548c3.106,9.29,9.893,17.293,18.552,21.874"/>
			<path style="fill:#FFFFFF;stroke:#272726;stroke-width:2;stroke-linecap:round;stroke-linejoin:round;stroke-miterlimit:10;" d="
				M423.835,159.103c-1.097-0.605-1.565-1.966-1.569-3.218c-0.006-2.206,1.218-4.375,3.11-5.51c1.891-1.135,4.381-1.196,6.326-0.154
				c1.944,1.042,3.272,3.15,3.242,5.364"/>
			<path style="fill:#FFFFFF;stroke:#272726;stroke-width:2;stroke-linecap:round;stroke-linejoin:round;stroke-miterlimit:10;" d="
				M387.056,75.381c-6.887-17.445-28.926-38.758-53.293-32.783c-18.215,4.466-33.403,19.707-36.492,38.206
				c-1.174,7.027-0.812,14.216-1.479,21.309s-2.543,14.417-7.381,19.647c-4.837,5.23-13.266,7.623-19.33,3.884
				c-6.064-3.739-6.877-14.297-0.585-17.637c-7.189,1.214-13.301,7.267-14.585,14.444c-1.284,7.177,2.351,14.973,8.673,18.604
				c-12.757-0.586-26.02,2.859-35.668,11.226c-9.648,8.367-15.031,22.03-11.838,34.395c3.193,12.365,15.857,22.099,28.503,20.322
				c-3.194-1.649-6.467-3.357-8.848-6.051c-2.381-2.694-3.702-6.635-2.342-9.962c2.074-5.071,9.25-6.105,14.173-3.7
				c9.14,4.465,11.768,18.072,5.469,26.06c-6.299,7.988-19.408,8.961-27.3,2.541c7.144,23.641,30.727,41.278,55.423,41.45
				c24.697,0.172,48.522-17.136,55.993-40.676c5.166,7.469,3.367,18.868-3.848,24.384c10.54,1.881,21.231-5.536,25.52-15.346
				c4.289-9.81,3.172-21.259-0.366-31.364c-3.538-10.105-9.314-19.242-14.442-28.641c-7.657-14.034-14.06-29.375-13.828-45.36
				c0.232-15.985,8.465-32.689,23.166-38.973C361.966,77.252,387.056,75.381,387.056,75.381z"/>
			<path style="fill:#FFFFFF;stroke:#272726;stroke-width:2;stroke-linecap:round;stroke-linejoin:round;stroke-miterlimit:10;" d="
				M375.084,270.668c-0.88,16.531-6.747,32.317-11.543,48.163c-8.139,26.895-13.335,54.885-12.715,82.977
				c0.621,28.093,7.246,39.565,21.491,63.786c-9.068,2.742-18.796,3.271-27.069,1.595c-17.116-55.008-19.883-97.629-7.953-153.99"/>
			<path style="fill:#FFFFFF;stroke:#272726;stroke-width:2;stroke-linecap:round;stroke-linejoin:round;stroke-miterlimit:10;" d="
				M374.381,99.677c0,0-1.377,5.238,3.872,8.386"/>
			<path style="fill:#FFFFFF;stroke:#272726;stroke-width:2;stroke-linecap:round;stroke-linejoin:round;stroke-miterlimit:10;" d="
				M382.008,98.822c0,0-3.107,3.473,1.104,8.796"/>
			<path style="fill:#FFFFFF;stroke:#272726;stroke-width:2;stroke-linecap:round;stroke-linejoin:round;stroke-miterlimit:10;" d="
				M389.484,101.813c0,0-4.036,3.715-0.309,9.654"/>
			
				<circle style="fill:#FFFFFF;stroke:#272726;stroke-width:2;stroke-linecap:round;stroke-linejoin:round;stroke-miterlimit:10;" cx="428.987" cy="156.249" r="2.079"/>
			<path style="fill:#FFFFFF;stroke:#272726;stroke-width:2;stroke-linecap:round;stroke-linejoin:round;stroke-miterlimit:10;" d="
				M127.022,450.514c0,0,12.357,8.09,25.41,0"/>
			<path style="fill:#FFFFFF;stroke:#272726;stroke-width:2;stroke-linecap:round;stroke-linejoin:round;stroke-miterlimit:10;" d="
				M188.826,452.312c0,0,11.973,5.865,24.481,0"/>
			<path style="fill:#FFFFFF;stroke:#272726;stroke-width:2;stroke-linecap:round;stroke-linejoin:round;stroke-miterlimit:10;" d="
				M340.893,452.312c0,0,13.107,3.519,23.757,0"/>
			<path style="fill:#FFFFFF;stroke:#272726;stroke-width:2;stroke-linecap:round;stroke-linejoin:round;stroke-miterlimit:10;" d="
				M354.986,78.289c0,0,6.736,20.311,38.609,6.001c-3.404-27.616-28.188-42.558-49.526-42.668"/>
			<path style="fill:#FFFFFF;stroke:#272726;stroke-width:2;stroke-linecap:round;stroke-linejoin:round;stroke-miterlimit:10;" d="
				M341.75,94.895c-8.931-8.293-13.263-21.191-11.257-33.211c11.5,3.155,21.65,10.97,27.638,21.283"/>
			<path style="fill:#FFFFFF;stroke:#272726;stroke-width:2;stroke-linecap:round;stroke-linejoin:round;stroke-miterlimit:10;" d="
				M330.493,61.684c0,0,19.374,10.954,11.257,33.211"/>
			<path style="fill:none;stroke:#272726;stroke-width:2;stroke-linecap:round;stroke-linejoin:round;stroke-miterlimit:10;" d="
				M295.792,102.113c1.837-18.926,12.707-53.174,47.945-50.08c35.239,3.095,49.859,32.257,49.859,32.257S375,65.056,344.07,67.983"
				/>
			<path style="fill:none;stroke:#272726;stroke-width:2;stroke-linecap:round;stroke-linejoin:round;stroke-miterlimit:10;" d="
				M330.009,70.6c0,0-19.345,5.61-24.606,37.463c-5.261,31.853,81.649,118.994,26.9,132.98"/>
			<path style="fill:none;stroke:#272726;stroke-width:2;stroke-linecap:round;stroke-linejoin:round;stroke-miterlimit:10;" d="
				M337.115,218.253c0,0-11.597-25.732-24.903-55.129c-13.306-29.397-10.587-47.631-2.818-69.768"/>
			<path style="fill:none;stroke:#272726;stroke-width:2;stroke-linecap:round;stroke-linejoin:round;stroke-miterlimit:10;" d="
				M333.922,84.291c0,0-41.63,24.45,17.222,96.047"/>
			<path style="fill:none;stroke:#272726;stroke-width:2;stroke-linecap:round;stroke-linejoin:round;stroke-miterlimit:10;" d="
				M354.986,78.289c0,0,20.592-1.433,38.609,6.001"/>
			<path style="fill:none;stroke:#272726;stroke-width:2;stroke-linecap:round;stroke-linejoin:round;stroke-miterlimit:10;" d="
				M318.899,78.178c0,0-21.152,18.415-29.083,67.307c-7.931,48.892-28.161,99.026-65.082,70.4"/>
			<path style="fill:none;stroke:#272726;stroke-width:2;stroke-linecap:round;stroke-linejoin:round;stroke-miterlimit:10;" d="
				M294.521,109.729c0,0-2.114,14.715-8.613,23.998c-6.498,9.283-19.087,10.796-23.324,7.328"/>
			<path style="fill:none;stroke:#272726;stroke-width:2;stroke-linecap:round;stroke-linejoin:round;stroke-miterlimit:10;" d="
				M243.582,206.998c0,0-14.109,1.127-18.847-19.053c-4.738-20.18,13.829-32.962,34.252-32.141
				c20.423,0.821,29.603-5.124,35.534-32.013"/>
			<path style="fill:none;stroke:#272726;stroke-width:2;stroke-linecap:round;stroke-linejoin:round;stroke-miterlimit:10;" d="
				M232.393,190.985c0,0,0.884-12.079,17.607-22.291c16.723-10.212,23.285-8.154,33.001-19.24"/>
			<path style="fill:none;stroke:#272726;stroke-width:2;stroke-linecap:round;stroke-linejoin:round;stroke-miterlimit:10;" d="
				M255.013,207.01c0,0-0.109-31.648,13.536-47.359"/>
			<path style="fill:none;stroke:#272726;stroke-width:2;stroke-linecap:round;stroke-linejoin:round;stroke-miterlimit:10;" d="
				M304.203,138.92c0,0,14.57,63.813-21.203,87.331c-35.773,23.518-56.594-5.663-56.594-5.663"/>
			<path style="fill:none;stroke:#272726;stroke-width:2;stroke-linecap:round;stroke-linejoin:round;stroke-miterlimit:10;" d="
				M322.142,185.082c0,0,6.161,60.947-37.161,72.255"/>
			<path style="fill:none;stroke:#272726;stroke-width:2;stroke-linecap:round;stroke-linejoin:round;stroke-miterlimit:10;" d="
				M266.773,255.548c0,0,36.172-2.065,40.186-80.665"/>
			<path style="fill:none;stroke:#272726;stroke-width:2;stroke-linecap:round;stroke-linejoin:round;stroke-miterlimit:10;" d="
				M377.235,183.33c0,0,4.089,12.794,26.025,16.309c21.936,3.514,18.921,23.768,14.685,29.213"/>
			<path style="fill:none;stroke:#272726;stroke-width:2;stroke-linecap:round;stroke-linejoin:round;stroke-miterlimit:10;" d="
				M402.987,212.125c0,0-14.398,1.762-21.488-8.147"/>
			<path style="fill:none;stroke:#272726;stroke-width:2;stroke-linecap:round;stroke-linejoin:round;stroke-miterlimit:10;" d="
				M386.865,224.251c0,0,17.986,5.362,13.906,19.617"/>
			<path style="fill:none;stroke:#272726;stroke-width:2;stroke-linecap:round;stroke-linejoin:round;stroke-miterlimit:10;" d="
				M386.865,161.878c0,0-11.599,22.843,18.608,38.193"/>
			<path style="fill:none;stroke:#272726;stroke-width:2;stroke-linecap:round;stroke-linejoin:round;stroke-miterlimit:10;" d="
				M382.008,58.632c0,0,13.732-16.519,31.536,3.759"/>
			<path style="fill:none;stroke:#272726;stroke-width:2;stroke-linecap:round;stroke-linejoin:round;stroke-miterlimit:10;" d="
				M388.54,67.987c0,0,7.097-14.685,19.847-2.477"/>
			<path style="fill:none;stroke:#272726;stroke-width:2;stroke-linecap:round;stroke-linejoin:round;stroke-miterlimit:10;" d="
				M416.362,86.864c0,0,0.187,15.919,14.704,26.44c14.517,10.521,26.891,5.284,26.429-3.238"/>
			<path style="fill:none;stroke:#272726;stroke-width:2;stroke-linecap:round;stroke-linejoin:round;stroke-miterlimit:10;" d="
				M401.372,97.014c0,0-1.87-19.054,23.646-41.61"/>
			<path style="fill:none;stroke:#272726;stroke-width:2;stroke-linecap:round;stroke-linejoin:round;stroke-miterlimit:10;" d="
				M449.928,40.223c0,0-17.335,14.171-20.941,33.716"/>
			<path style="fill:none;stroke:#272726;stroke-width:2;stroke-linecap:round;stroke-linejoin:round;stroke-miterlimit:10;" d="
				M352.547,147.961c0,0,1.872,2.368,9.083,1.493"/>
			<path style="fill:none;stroke:#272726;stroke-width:2;stroke-linecap:round;stroke-linejoin:round;stroke-miterlimit:10;" d="
				M236.088,291.882c0,0-1.217,4.264-7.107,8.616"/>
			<path style="fill:none;stroke:#272726;stroke-width:2;stroke-linecap:round;stroke-linejoin:round;stroke-miterlimit:10;" d="
				M173.46,224.251c0,0-0.332-0.583-0.991-1.584c-27.24-41.368-91.675-17.514-85.897,31.679c1.09,9.283,3.231,18.004,4.696,25.128
				c4.642,22.59-9.519,47.711-37.406,42.422"/>
			<path style="fill:none;stroke:#272726;stroke-width:2;stroke-linecap:round;stroke-linejoin:round;stroke-miterlimit:10;" d="
				M170.257,227.258c0,0-22.361-20.992-48.044-6.048c-25.684,14.944-37.939,69.644,8.726,88.556"/>
			<path style="fill:none;stroke:#272726;stroke-width:2;stroke-linecap:round;stroke-linejoin:round;stroke-miterlimit:10;" d="
				M96.706,394.992c0,0,13.904-17.273-14.024-81.403"/>
			<path style="fill:none;stroke:#272726;stroke-width:2;stroke-linecap:round;stroke-linejoin:round;stroke-miterlimit:10;" d="
				M67.723,379.155c0,0-5.712-27.37,20.675-51.611"/>
			<path style="fill:none;stroke:#272726;stroke-width:2;stroke-linecap:round;stroke-linejoin:round;stroke-miterlimit:10;" d="
				M101.637,279.949c0,0,8.198,34.494,17.481,66.058c9.283,31.563,3.634,50.725-19.689,55.843"/>
			<path style="fill:none;stroke:#272726;stroke-width:2;stroke-linecap:round;stroke-linejoin:round;stroke-miterlimit:10;" d="
				M63.42,322.534c0,0-28.372,54.335,13.508,65.825"/>
			<path style="fill:none;stroke:#272726;stroke-width:2;stroke-linecap:round;stroke-linejoin:round;stroke-miterlimit:10;" d="
				M107.492,291.882c0,0,48.304,61.172,28.573,92.616"/>
			<path style="fill:none;stroke:#272726;stroke-width:2;stroke-linecap:round;stroke-linejoin:round;stroke-miterlimit:10;" d="
				M160.684,241.043c0,0-20.69-11.855-37.317,8.957s10.148,53.93,33.584,46.19"/>
			<path style="fill:none;stroke:#272726;stroke-width:2;stroke-linecap:round;stroke-linejoin:round;stroke-miterlimit:10;" d="
				M115.149,205.335c0,0-36.892,11.297-37.349,52.003c-0.457,40.705-9.64,61.911-33.982,59.354"/>
			<path style="fill:none;stroke:#272726;stroke-width:2;stroke-linecap:round;stroke-linejoin:round;stroke-miterlimit:10;" d="
				M118.875,270.668c0,0-7.958-14.71,5.271-31.42c13.229-16.71,41.893-7.115,41.893-7.115"/>
			<path style="fill:none;stroke:#272726;stroke-width:2;stroke-linecap:round;stroke-linejoin:round;stroke-miterlimit:10;" d="
				M67.841,235.413c0,0,20.463-66.895,89.514-40.86"/>
			<path style="fill:none;stroke:#272726;stroke-width:2;stroke-linecap:round;stroke-linejoin:round;stroke-miterlimit:10;" d="
				M91.081,297.34c0,0,44.048,89.338-2.174,103.97"/>
			<path style="fill:none;stroke:#272726;stroke-width:2;stroke-linecap:round;stroke-linejoin:round;stroke-miterlimit:10;" d="
				M90.398,371.364c0,0-15.375-14.083-7.717-37.978"/>
		</g>
	</g>
</g>

    <text x="10" y="832" font-size="12" fill="gray" opacity="0.6" font-family="Arial, sans-serif">
      twoja-kolorowanka.pl
    </text>
  
</svg>
