<?xml version="1.0" encoding="utf-8"?>
<!-- Generator: Adobe Illustrator 27.5.0, SVG Export Plug-In . SVG Version: 6.00 Build 0)  -->
<svg version="1.1" id="Layer_1" xmlns="http://www.w3.org/2000/svg" xmlns:xlink="http://www.w3.org/1999/xlink" x="0px" y="0px"
	 viewBox="-116 -116 1000 1000" style="enable-background:new -116 -116 1000 1000;" xml:space="preserve">
<g>
	<rect x="-116" y="-116" style="fill:#FFFFFF;" width="1000" height="1000"/>
	<g id="Group">
		<path d="M474.651-20.505c-9.259-3.633-3.581-15.364,4.609-15.585c36.732-4.297,74.219,9.622,101.796,33.763
			c6.876-13.581,24.154-8.151,35.104-3.398c27.188,10.026,45.026,34.752,57.07,59.974c24.232,1.979,41.406,22.382,50.352,43.398
			c5.481,16.406,20.196,26.927,36.628,30.573c12.591-11.471,30.51-1.315,37.486,11.367c13.334,23.633,11.159,53.633,0.444,77.826
			c-3.648,9.063-13.449,12.669-22.604,12.291c-10.586,18.034-28.557,30.977-48.008,38.047
			c-34.075,13.268-70.834,17.512-107.123,19.075c46.837,53.932,83.464,120.768,86.446,193.516
			c3.215,44.412-11.915,89.06-38.308,124.558c-2.669,2.838-0.273,6.665,0.286,9.854c8.633,33.411,19.336,66.381,33.894,97.721
			c3.893,9.428,13.255,14.636,20.819,20.797c10.587,7.383,14.389,22.018,11.199,34.088c-5.04,7.253-15.156,2.5-22.435,3.62
			c-1.887,2.644-3.1,6.9-6.861,7.227c-19.467,0.261-38.894-1.315-58.334-2.136c-0.911,6.274-0.273,15.988-8.346,17.526
			c-9.011,0.833-18.061-0.888-27.098-0.69c-1.406,10.039-11.628,9.622-19.337,7.838c-26.146-6.575-54.948,3.375-79.491-10.364
			c-17.059-10.703-10.808-34.258-19.531-50.271c-38.529,8.737-78.334,5.675-116.823-1.435c11.51,10.224,20.442,25.08,17.851,41.003
			c-1.004,6.367-8.816,3.919-13.257,3.935c-2.239,20.625-26.014,7.33-39.127,8.516c-2.734,13.383-18.229,6.966-27.227,4.896
			c-23.098-7.852-49.96,2.878-71.367-10.612c-13.75-9.18-10.208-26.38-4.57-39.18c-72.487,12.565-152.24,20.025-220.442-13.203
			c-59.635-28.255-89.922-104.479-64.636-165.677c8.958-27.424,31.979-50.262,31.953-80.262c0.456-10.378-8.854-24.557,1.615-32.123
			c13.372-3.111,20.989,11.276,26.901,20.769c19.115-0.065,11.836,24.924,3.347,34.142c17.982,2.212,9.987,25.951-5.638,23.319
			c-1.368,3.724-2.318,7.578-2.839,11.525c5.482-0.431,13.854,0.402,13.737,7.708c0.781,9.883-11.198,11.706-18.359,13.88
			c-0.82,3.047-1.368,6.146-1.68,9.284c5.299,0.13,11.641,1.432,13.88,6.913c1.667,9.492-9.584,12.475-16.38,15.055
			c0.495,6.471,1.667,12.864,3.398,19.114c5.377-1.106,12.76-2.748,16.497,2.552c4.831,8.021,0.143,17.227-1.745,25.418
			c6.458,9.44,16.224,15.884,25.912,21.626c4.583-7.681,10.807-18.411,21.224-16.979c11.993,4.779,12.813,19.467,15.377,30.313
			c8.138,0.808,16.328,1.536,24.519,1.21c0.521-10.128,2.5-23.749,13.255-27.862c11.55-0.443,18.919,10.453,26.849,17.253
			c9.466-3.308,18.255-8.516,25.872-15.026c-2.201-12.917-3.737-29.271,7.383-38.685c9.44-6.213,21.302-2.736,31.705-1.615
			c3.255-3.528,6.211-7.33,8.503-11.55c-6.55-15.69-16.615-35.859-4.649-51.432c9.428-12.058,25.626-10.495,38.815-13.49
			c-3.32-13.449-12.995-30.508-0.833-42.29c14.792-10.273,35.13-6.9,50.743-0.117c11.001-9.336,23.866-15.833,36.066-23.359
			c-43.463-5.053-90.976-23.229-132.291,0.144c-15.768,7.981-25.56,23.047-34.011,37.877c-1.992-1.158-5.208-2.239-4.518-5.183
			c4.387-28.409,3.841-58.305-6.042-85.56c-3.295-9.204-9.896-19.347-20.755-19.661c-12.669-0.768-22.123,9.609-27.968,19.661
			c-2.371,5.364-8.829,0.027-6.797-4.284c5.69-30.585,9.532-62.993-0.82-93.06c-7.539-23.19-24.427-45.495-49.258-51.159
			c-32.578-6.979-66.641,9.284-86.419,35.13c-5.742,5.573-7.343,14.544-14.375,18.75c-1.224-1.003-2.46-2.005-3.698-2.995
			c1.849-23.971,15.143-44.974,27.708-64.778c60.169-89.31,179.088-129.987,282.487-104.479
			c24.271,6.315,48.086,19.687,60.873,42.005c24.362,44.662,15.248,99.818,40.937,143.946
			c25.977,42.252,76.745,67.029,125.091,65.911c8.059-12.97,5.507-31.836-6.797-41.185c-12.228-4.531-20.052,16.237-32.553,8.047
			c-11.483-9.87-1.171-25.677-3.02-38.216c0.599-15.912-8.359-38.476-27.786-35.65c-9.456-0.365-22.594,12.76-28.75,0.651
			c-5.73-27.995,4.843-56.329,16.482-81.472c1.303-3.685,4.129-7.682,2.578-11.667c-9.349-20.313-36.745-24.088-44.063-45.898
			c-4.609-8.646,2.109-19.831,12.057-19.114c23.984,2.161,49.024-11.498,59.598-33.255c-28.75-14.961-62.227-15.313-91.929-27.761
			c-33.802-13.19-67.5-36.042-81.458-70.846c-4.505-11.38,10.13-17.331,17.734-9.844c49.74,32.604,111.484,12.005,165.494,29.83
			c-0.13-5.208,0.69-11.861,6.654-13.45c18.488-5.743,37.146,3.268,52.852,12.46c4.96,3.36,11.08,4.505,16.653,1.862
			C514.768,7.763,496.878-11.104,474.651-20.505 M477.359-27.823c11.94,5.339,23.438,11.799,32.436,21.472
			c4.791-5.651,8.424-12.226,13.709-17.474c1.783,8.685-6.641,14.128-11.274,20.183c8.059,10.195,14.477,21.758,21.497,32.435
			c19.829-0.821,39.766-0.534,59.414,2.76c-6.445-20.689-25.222-35.82-43.752-45.794c-1.456,13.724-14.75,21.51-27.096,23.867
			c7.148-8.659,23.502-12.123,22.435-26.719C523.778-25.18,499.769-34.151,477.359-27.823 M589.039,5.523
			c7.175,8.269,10.327,18.763,14.414,28.672c12.188,2.917,23.959,7.331,35.599,11.927C629.013,25.81,613.778,8.414,594.6-3.565
			C590.367-3.213,585.146,1.461,589.039,5.523 M600.055-2.588c19.57,9.231,32.656,27.526,42.213,46.328
			c3.906,9.023,14.819,9.519,22.594,13.411C654.352,28.857,630.133,4.052,600.055-2.588 M270.68,3.792
			c3.906,19.779,21.262,34.375,36.211,46.888c1.536-9.987,4.594-20.234,12.226-27.292C302.165,18.883,286.525,10.94,270.68,3.792
			 M456.552,22.998c0.039,1.028,0.132,3.099,0.169,4.127c1.823,0.156,3.648,0.299,5.497,0.442c-1.445,0.808-2.893,1.602-4.323,2.422
			c3.32,3.971,8.034,6.276,12.76,8.151c-0.519-5.195-1.861-10.885-7.539-12.539c8.686-1.745,10.275,7.578,11.719,13.867
			c2.633,1.38,5.312,2.669,8.049,3.88c6.198-2.825,12.668-4.961,18.983-7.5C489.392,26.265,472.241,19.847,456.552,22.998
			 M310.341,53.245c14.39,10.82,31.498,18.659,48.984,22.722c12.839-12.032,21.85-30.17,19.727-48.255
			c-15.705-0.365-31.498,0.3-47.059-2.188C316.369,21.669,314.195,42.763,310.341,53.245 M383.7,27.567
			c3.271,19.559-6.836,37.683-20.167,51.107c17.604,4.585,35.571,7.617,53.242,11.901c14.909-13.893,17.607-35.976,17.774-55.325
			C418.597,29.403,400.719,28.427,383.7,27.567 M438.869,35.237c1.864,20.377-1.652,43.737-19.049,56.875
			c16.288,5.781,30.977,15.013,46.614,22.057c23.83,2.409,44.767-24.844,40.705-47.162C487.268,51.695,463.01,41.825,438.869,35.237
			 M490.967,47.502c20.661,11.407,47.237,26.302,49.856,52.083c-8.463-10.625-15.547-22.383-25.939-31.393
			c4.428,32.878-37.954,67.656-67.042,44.935c-21.745,34.727-27.318,80.013-18.361,119.883
			c9.468,34.141,29.689,64.141,52.408,90.885c23.256,28.165,51.315,60.313,47.071,99.479c-1.536,20.781-29.233,34.048-44.102,17.189
			c-2.917,6.041-5.573,12.317-9.936,17.486c-1.028,0.104-3.073,0.325-4.102,0.43c0.808-8.112,1.057-16.276,0.442-24.401
			c-9.127,5.82-20.195,9.753-28.044,16.836c-3.998,17.786-27.397,24.505-39.95,11.082c-26.131,4.751-51.979,12.318-74.842,26.196
			c4.192,8.856,2.499,21.472-7.422,25.547c-6.796,1.628-10.561-5.571-14.089-10c-30.091,25.17-51.745,58.685-72.356,91.653
			c-2.552,8.556,2.084,19.076-4.415,26.68c-3.711,5.495-11.146,3.765-16.002,1.005c-11.706,13.372-22.903,27.485-37.2,38.268
			c-34.831,27.931-84.375,34.622-125.521,17.435c-31.758-11.925-54.336-43.033-57.461-76.55
			c-2.865-34.205,13.008-65.844,18.425-98.919c1.081-15.885-6.329-34.83-21.928-41.08c-2.812,8.267,2.839,16.341,2.5,24.739
			c1.224,25.612-16.107,46.264-26.042,68.477c-29.115,53.594-12.891,127.656,38.489,161.59
			c37.995,26.367,86.016,32.618,131.211,32.329c35.156-0.547,70.638-3.15,104.792-11.68c6.81-18.216,12.539-36.888,17.474-55.716
			c1.588-6.21,6.107-11.563,12.722-12.46c-5.118-26.627-7.344-53.918-4.271-80.937c2.461,27.485,3.62,55.584,12.865,81.888
			c3.867-1.016,7.604-2.487,11.29-4.023c-3.243,4.141-6.654,8.151-10.482,11.784c-4.557-1.926-12.044-2.878-13.463,3.424
			c-8.62,26.641-16.719,53.477-25.443,80.091c-4.193,9.584,4.115,19.583,13.268,21.759c14.909,3.152,30.248,1.538,45.352,2.435
			c10.963,1.55,21.341,6.236,32.46,6.916c3.034-12.306,0.743-32.318-14.453-34.754c-10.13,1.615-9.127,14.688-11.836,22.253
			c-9.428-9.778,1.495-31.952,15.846-29.49c6.458,1.718,10.782,7.252,14.27,12.591c6.94-8.555,17.656-19.153,29.648-14.557
			c11.042,4.712,9.753,20.858,18.502,26.171c0.756-9.844-3.059-19.713-10.859-25.897c-10.534-7.672-14.323-20.99-23.646-29.793
			c-7.472-3.724-16.927-2.84-23.37-8.71c17.563,0.221,35.909,2.994,52.706-3.725c24.987-7.891,41.081-33.425,42.656-58.853
			c4.428-33.478-11.093-64.608-25.572-93.619c22.083,24.362,33.347,57.787,34.31,90.403c9.322-4.309,20.21-6.133,28.685-11.666
			c5.143-25.287,8.725-51.067,15.847-75.951c-1.303,30.953-7.278,61.745-7.733,92.685c11.08,37.16,28.932,72.198,38.789,109.803
			c1.367,10.119,2.942,22.604,14.557,25.888c26.107,8.109,54.114,2.239,80.729,8.109c2.317-11.328-2.917-27.799-15.156-30.949
			c-10.769,2.46-5.091,17.708-11.941,24.242c-1.821-10.116-0.246-22.539,7.786-29.688c8.034-5.128,15.755,3.048,21.497,7.917
			c3.283-10.195,12.409-14.075,21.55-17.461c-6.001-5.859-14.842-8.867-18.54-16.888c-18.622-32.93-28.646-70.064-34.87-107.174
			c-6.433-32.149,5.404-63.83,10.924-95.185c1.771,26.641-6.43,52.942-5.039,79.507c20.391-17.658,36.044-40.573,46.172-65.521
			c21.315-57.305,12.839-122.317-14.842-175.964c-12.643-29.792-32.685-55.377-50.17-82.239c7.878,7.304,13.893,16.314,20.99,24.349
			c15.053,1.263,31.081,3.19,45.521-2.292c-4.635-6.432-9.883-12.396-14.544-18.815c-30.43-1.185-67.786-3.555-87.019-30.69
			c37.683,24.753,85.286,24.232,128.477,19.831c39.909-5.885,87.813-12.123,112.645-47.89c-29.09-0.508-55.052-13.868-79.154-28.555
			c-1.718,1.653-3.438,3.307-5.17,4.934c-5.076-11.393,10.079-19.597,19.753-15.938c-2.669,1.693-5.416,3.281-8.151,4.857
			c25.014,20.795,58.646,28.555,90.574,26.862c9.245-4.166,10.274-16.146,13.02-24.778c5.025-22.669,3.41-57.643-23.268-65.378
			c-14.715,9.375-34.519-0.69-46.03-11.979c-14.935-20.742-23.032-54.023-53.606-56.237c-1.444,1.549-2.891,3.099-4.349,4.623
			C615.563,37.828,549.599,24.938,490.967,47.502 M382.659,149.287c-5.208-1.302-13.267,1.002-10.18,7.877
			c7.641,19.987,33.344,23.581,42.864,42.604c3.995-22.201,7.331-44.531,13.54-66.289
			C414.273,140.575,399.834,151.461,382.659,149.287 M-15.844,267.815c10.898-9.882,19.453-22.083,31.107-31.236
			C79,177.971,172.998,157.919,256.227,178.492c18.477,4.935,38.451,14.87,45.104,34.18c14.832,39.231,12.917,81.979,17.215,123.086
			c2.826,35.56,8.67,70.832,11.873,106.328c-16.341-60.43-21.445-123.242-26.263-185.469c-0.949-9.727-1.665-19.622-4.803-28.945
			c-42.018,83.476-84.258,167.239-116.758,255c19.35-19.221,46.81-28.516,73.802-28.203c24.454-0.507,48.073,6.641,72.149,9.622
			c33.633,2.201,66.445-7.628,98.658-15.911c21.069-7.591,41.328-18.92,57.539-34.48c-61.511,0.378-124.648-40.584-140.742-101.588
			c-12.007-41.432-7.969-89.753-36.812-124.74c-20.183-21.498-50.69-28.542-78.919-31.876
			C135.341,145.198,32.789,185.511-15.844,267.815 M-5.948,259.651c-10.079,9.557-18.685,20.821-23.893,33.776
			c20.729-17.278,46.276-31.471,74.076-30.364c24.687,0.182,47.37,15.638,59.245,36.849c18.177,29.662,17.748,65.691,14.713,99.128
			c5.729-6.393,8.776-14.505,12.813-21.953c35.338-69.193,80.729-134.466,139.648-185.651c-5.026-2.018-10.443-3.333-15.834-1.992
			c-42.188,4.674-82.344,19.349-120.963,36.224c31.81-20.898,68.229-34.023,105.273-42.2
			C151.813,163.466,54.755,193.57-5.948,259.651 M249.287,221.956c-51.393,49.584-93.229,108.737-124.922,172.63
			c12.942-3.541,29.31-2.356,37.448,9.753c16.602,23.698,15.365,54.089,17.331,81.472c17.877-43.036,33.229-87.2,51.627-130.067
			c19.987-47.2,42.605-93.229,64.219-139.661c-3.565-7.344-8.553-14.076-15.182-18.932
			C268.219,203.505,258.896,213.062,249.287,221.956 M397.359,296.461c13.972-2.552,30.013-10.977,42.787,0.078
			c18.671,17.239,13.266,44.805,12.148,67.214c7.539,7.396,13.88-7.149,21.797-8.113c14.883-4.062,21.521,13.269,25.95,24.128
			c2.643-3.606,5.3-7.331,9.063-9.882c-16.251-26.615-39.469-48.034-56.484-74.115c-15.327-24.753-30.065-50.885-34.05-80.196
			C402.333,238.102,393.975,268.453,397.359,296.461 M581.266,310.523c11.523,17.344,21.407,35.664,30.899,54.167
			c17.016,1.485,34.739,3.464,51.341-1.64c-9.207-19.583-23.008-36.732-35.053-54.675
			C613.283,313.909,596.968,311.656,581.266,310.523 M612.555,367.138c10.925,20.717,18.178,43.178,23.321,65.977
			c18.515,4.023,37.745,8.737,56.742,5.573c-4.245-26.094-15.35-50.664-27.55-73.958
			C648.258,370.706,629.925,369.781,612.555,367.138 M512.541,377.594c-2.797,3.971-5.611,7.93-8.516,11.823
			c5.782,1.146,11.225,3.372,16.408,6.133C518.505,389.273,516.097,383.128,512.541,377.594 M503.714,393.402
			c-4.898,13.268-12.007,25.376-22.58,34.921c2.761,14.348,23.622,22.773,34.299,11.575
			C531.956,426.5,528.35,393.962,503.714,393.402 M636.188,435.523c2.526,19.232,3.997,38.62,3.229,58.032
			c19.141,5.888,38.789,12.891,59.153,10.963c2.058-21.078-0.352-42.538-5.064-63.123
			C674.183,444.82,654.833,440.263,636.188,435.523 M408.961,460.875c9.858,10.091,26.861,3.034,29.778-9.922
			C429.118,455.185,418.831,457.386,408.961,460.875 M19.039,493.74c0.313-2.696,0.508-5.392,0.573-8.086
			C14.495,485.692,16.903,491.461,19.039,493.74 M309.443,501.162c2.344,4.036,5.052,8.058,9.518,9.987
			c7.37-3.906,8.632-12.933,6.317-20.25C319.664,493.778,314.56,497.503,309.443,501.162 M638.831,495.927
			c-1.758,15.481-4.337,30.938-9.441,45.703c18.307,6.667,36.458,15.547,56.172,16.797c7.28-16.119,11.525-33.672,12.799-51.288
			C677.881,508.609,657.867,502.828,638.831,495.927 M254.82,506.045c-3.438,11.587,4.427,23.306,7.617,34.361
			c11.549-12.63,21.928-26.575,34.949-37.942C284.117,497.828,265.146,493.974,254.82,506.045 M15.028,521.37
			c-0.26,1.588-0.507,3.19-0.742,4.791c3.464-0.442,6.263-2.798,5.703-6.495C18.336,520.237,16.682,520.823,15.028,521.37
			 M629.025,543.57c-9.597,24.519-23.775,47.683-44.726,64.088c-2.408,2.162-6.641,4.05-5.442,8.009
			c1.797,13.854,4.867,27.5,8.293,41.043c21.08-7.671,38.973-21.966,56.093-36.108c-14.464-5.338-29.479-12.747-38.123-26.041
			c11.719,10.143,24.479,19.583,39.466,24.284c18.672-14.857,30.027-36.706,39.817-58.009
			C664.95,559.091,646.683,551.461,629.025,543.57 M218.18,560.602c-5.898,11.862,1.341,25.117,6.523,35.939
			c11.224-15.484,20.859-32.278,32.344-47.697C243.453,546.708,227.008,549.026,218.18,560.602 M7.424,554.325
			c-0.052,0.977-0.182,2.944-0.234,3.921c2.331-0.718,4.649-1.445,6.954-2.253C12.776,553.193,9.872,553.857,7.424,554.325
			 M0.667,583.74c-0.04,1.925-0.104,3.853-0.183,5.807C9.56,591.643,9.924,581.031,0.667,583.74 M216.031,620.289
			c12.161,6.758,16.224-9.151,13.841-18.125C226.018,608.753,220.979,614.508,216.031,620.289 M589.638,664.313
			c5.927,23.06,14.271,46.092,27.278,66.17c13.282,8.857,24.648,21.42,29.089,37.125c19.089,1.873,38.218,2.914,57.396,3.411
			c0.482-9.636-4.336-22.604-14.934-24.453c-9.194,0.677-5.703,12.474-7.841,18.632c-0.962,0.04-2.878,0.117-3.826,0.157
			c-4.896-12.891,6.511-32.761,21.185-22.188c2.41-6.041,7.723-9.7,13.568-12.031c-5.652-2.721-11.524-6.041-14.22-12.017
			c-16.731-32.669-26.042-68.387-37.147-103.15C639.208,635.394,616.67,653.974,589.638,664.313 M179.56,627.464
			c-3.633,7.709-2.084,16.667-1.992,24.909c10.481-9.362,19.427-20.287,28.971-30.573
			C197.672,622.425,185.497,618.792,179.56,627.464 M7.164,628.675c1.523,2.278,3.06,4.558,4.622,6.823
			c1.536-3.568,2.383-7.357,2.383-11.239C10.953,624.053,9,626.422,7.164,628.675 M430.458,647.307
			c0.039,6.603,5.875,10.586,10.054,14.833c10.196,6.888,17.864,22.992,30.403,22.799c-3.697-16.082-13.164-30.768-11.55-47.864
			C449.481,639.729,440.172,644.104,430.458,647.307 M429.717,654.482c-2.724,9.686-4.609,19.713-9.492,28.631
			c4.609,4.883,8.5,11.356,14.753,14.141c9.971-1.185,19.335-5.562,28.723-8.958C454.352,675.523,439.468,667.308,429.717,654.482
			 M50.211,670.692c7.123,3.283,14.622,5.638,22.24,7.502c-0.521-7.385-1.237-17.344-9.024-20.68
			C56.695,658.049,54.117,666.109,50.211,670.692 M112.893,681.396c8.529-1.813,17.11-3.516,25.417-6.185
			c-4.466-5.301-9.609-10.404-16.016-13.229C113.935,663.987,112.594,674.195,112.893,681.396 M419.3,684.925
			c-5.052,6.302-9.961,12.761-15.677,18.503c8.773-1.813,17.799-2.347,26.484-4.625C427.749,693.297,423.127,689.352,419.3,684.925
			 M360.185,720.85c3.229,3.307,6.992,6.302,11.614,7.317c38.568,9.959,79.258,11.977,118.464,4.542
			c-4.753-13.633-10.014-27.083-15.222-40.533C438.948,709.678,398.05,709.612,360.185,720.85 M708.01,737.802
			c6.225,4.388,8.829,11.747,9.48,19.089c-4.232-4.675-7.254-12.305-14.597-12.214c2.644,6.056,5.573,12.032,6.94,18.567
			c5.272,0.013,10.533-0.141,15.807-0.286C725.25,752.164,720.889,738.4,708.01,737.802 M626.292,753.935
			c7.513,7.266,13.358,17.394,11.563,28.2c-5.273-9.986-8.906-22.55-20.677-26.861c-8.347,6.354,0.182,16.838-2.331,25.209
			c-3.867-5.196-4.806-11.862-8.594-17.084c-0.561,7.462,2.042,14.623,3.203,21.914c9.412-0.351,18.841,0.326,28.24-0.534
			C641.201,774.403,640.21,754.677,626.292,753.935 M352.894,756.421c7.318,5.248,9.075,14.938,8.698,23.373
			c-5.847-6.001-5.807-15.3-11.575-21.393c-4.05,2.773-6.667,7.069-10.705,9.856c1.237,5.286,2.122,10.651,2.539,16.068
			c10.481-0.04,20.677,2.994,31.106,2.877C376.93,774.873,369.299,749.431,352.894,756.421z"/>
		<path d="M283.101,25.433c1.185-2.878,3.203-5.234,5.586-7.201c0.338,0.599,1.028,1.797,1.367,2.396
			C287.828,22.359,285.523,23.987,283.101,25.433z"/>
		<path d="M613.467,78.453c22.096-13.151,58.253,4.466,60.56,29.948C659.6,89.938,637.503,76.903,613.467,78.453z"/>
		<path d="M517.555,104.625c8.75,1.237,23.164,5.651,20.859,17.148c-1.328,6.432-9.271,8.06-14.284,4.805
			C539.47,121.162,525.458,109.3,517.555,104.625z"/>
		<path d="M638.453,113.753c21.771-2.37,37.864,24.713,29.18,43.594c-9.206,17.304-37.161,19.713-48.189,2.93
			C605.784,143.883,616.67,115.302,638.453,113.753 M648.778,125.263c-11.756,4.909-2.485,23.216,8.672,17.942
			C669.442,138.87,659.781,119.169,648.778,125.263z"/>
		<path d="M499.651,125.745c1.536-1.889,3.034-3.802,4.505-5.73c6.966,7.37,17.201,11.55,24.375,17.761
			c-14.713-3.06-31.653-10.312-45.99-2.904c-11.104,15.247,27.826,20.287,15.392,34.805c-4.806-12.591-22.37-15.507-24.935-28.984
			C473.167,126.617,489.56,127.164,499.651,125.745z"/>
		<path d="M753.596,156.135c0.171-10.951,14.597-9.362,20.367-3.711c-2.67,0.769-5.341,1.484-7.982,2.279
			c4.35,6.315,9.959,13.112,8.709,21.329C768.778,167.959,755.017,167.294,753.596,156.135z"/>
		<path d="M322.138,762.594c5.482,4.428,6.274,11.666,5.273,18.229C323.558,775.537,321.162,769.208,322.138,762.594z"/>
	</g>
</g>

    <text x="10" y="832" font-size="12" fill="gray" opacity="0.6" font-family="Arial, sans-serif">
      twoja-kolorowanka.pl
    </text>
  
</svg>
