<?xml version="1.0" encoding="utf-8"?>
<!-- Generator: Adobe Illustrator 27.5.0, SVG Export Plug-In . SVG Version: 6.00 Build 0)  -->
<svg xmlns="http://www.w3.org/2000/svg" xmlns:xlink="http://www.w3.org/1999/xlink" viewBox="0 0 3500 2100" width="595" height="842" preserveAspectRatio="xMidYMid meet" data-scaled="true">
<rect id="XMLID_1_" style="fill:#FFFFFF;" width="1900" height="2100"/>
<rect id="XMLID_2_" x="1600" style="fill:#FFFFFF;" width="1900" height="2100"/>
<g id="XMLID_3_">
	<g id="XMLID_293_">
		<path id="XMLID_1866_" style="fill:#231F20;" d="M1446.079,1678.088c5.471-7.928,10.359-16.471,14.516-25.578
			c31.783-69.63,10.571-147.761-47.283-174.173c-21.393-9.765-45.276-11.465-69.362-5.007c-5.693-5.658-12.009-10.758-18.741-15.447
			c5.735-12.795,10.419-25.964,13.874-39.327c16.525-63.903-1.582-123.303-52.362-171.769
			c-12.613-12.04-25.691-21.952-37.593-29.857c8-8.295,15.442-17.222,22.146-26.864c37.445-53.858,45.009-120.368,22.48-197.687
			c-10.007-34.341-22.07-65.621-36.127-93.807c46.922-21.858,77.93-71.06,73.985-125.681
			c-5.101-70.614-66.668-123.919-137.317-118.808c-48.88,3.533-89.445,34.146-108.103,76.073L823.532,415.815
			c0.878-0.787,1.785-1.533,2.628-2.371c12.573-12.499,19.524-29.15,19.574-46.881c0.05-17.729-6.808-34.416-19.309-46.988
			c-12.503-12.574-29.153-19.526-46.883-19.576c-0.064,0-0.127,0-0.191,0c-17.658,0-34.273,6.854-46.798,19.31
			c-12.573,12.499-19.524,29.15-19.574,46.881c-0.097,34.593,26.431,63.128,60.243,66.245l-46.88,263.506
			c-14.276-4.175-29.513-5.927-45.2-4.776c-70.613,5.101-123.909,66.701-118.808,137.312c0,0.003,0,0.003,0,0.003
			c2.472,34.207,18.118,65.404,44.053,87.843c13.969,12.086,30.03,20.822,47.214,25.953c-9.848,29.899-17.283,62.569-22.245,97.969
			c-9.231,65.845,0.834,121.419,29.817,165.774c-26.734-14.815-57.84-34.587-84.973-58.506
			c-36.234-31.944-75.764-42.927-108.439-30.15c-28.648,11.202-47.878,38.542-51.443,73.13
			c-4.156,40.339,16.338,90.615,54.817,134.49c31.267,35.646,88.758,83.798,185.896,112.498
			c-21.672,8.895-41.385,20.485-56.842,35.847c-24.085-6.461-47.969-4.76-69.362,5.007
			c-57.855,26.412-79.066,104.543-47.283,174.173c4.022,8.811,8.728,17.096,13.984,24.807
			c-25.776,10.589-39.954,22.29-39.954,34.665c0,49.355,225.477,88.018,513.321,88.018s513.321-38.662,513.321-88.018
			C1484.214,1699.906,1470.685,1688.474,1446.079,1678.088z M485.241,1597.346c-3.88-45.647,15.351-87.615,52.229-104.449
			c10.782-4.923,22.359-7.392,34.321-7.392c8.213,0,16.61,1.235,25.047,3.571c1.068,0.296,2.134,0.546,3.203,0.879
			c0.644,0.247,1.971,0.757,3.93,1.508c1.413,0.495,3.065,1.309,5,2.132c1.946,0.799,4.058,1.922,6.404,3.058
			c0.819,0.402,1.673,0.87,2.523,1.328c1.58,0.853,3.197,1.752,4.912,2.688c2.558,1.578,5.34,3.126,8.054,4.993
			c2.782,1.769,5.544,3.762,8.352,5.802c0.108,0.082,0.217,0.167,0.326,0.249c2.656,2.014,5.357,4.068,7.93,6.273l4.023,3.438
			c1.286,1.2,2.567,2.395,3.838,3.58c2.558,2.362,4.89,4.868,7.192,7.257c2.179,2.488,4.4,4.821,6.241,7.234
			c0.953,1.186,1.88,2.339,2.777,3.455c0.833,1.16,1.638,2.282,2.411,3.359c1.607,2.14,2.873,4.159,3.999,5.954
			c1.157,1.758,2.137,3.37,2.88,4.813c1.535,2.795,2.411,4.392,2.411,4.392c0.791,1.431,2.559,2.055,4.083,1.394
			c0.01-0.005,0.021-0.003,0.031-0.007c1.616-0.721,2.341-2.615,1.621-4.23c0,0-0.742-1.664-2.042-4.576
			c-0.6-1.45-1.482-3.229-2.593-5.287c-1.064-2.065-2.28-4.395-3.766-6.761c-0.725-1.206-1.48-2.464-2.262-3.765
			c-0.848-1.256-1.725-2.555-2.627-3.889c-1.749-2.72-3.871-5.367-5.971-8.197c-2.216-2.722-4.478-5.585-6.973-8.306
			c-1.244-1.367-2.499-2.746-3.757-4.13l-3.961-3.996c-2.645-2.672-5.444-5.186-8.204-7.659c-2.807-2.418-5.587-4.79-8.405-6.931
			c-2.746-2.236-5.59-4.154-8.215-6.081c-0.851-0.562-1.657-1.103-2.476-1.651c-1.794-1.201-3.545-2.365-5.229-3.374
			c-2.314-1.373-4.399-2.68-6.373-3.726c13.6-12.16,31.169-22.262,53.589-30.636c0.12,2.03,0.251,4.056,0.407,6.075
			c3.76,48.803,17.874,94.63,42.202,136.634c8.722,15.065,17.834,28.583,27.211,40.731c0.822,1.065,1.648,2.108,2.474,3.152
			c13.081,16.529,26.654,30.445,40.406,42.125v45.091l-139.764,0.208l-30.739,0.046c-0.635-0.122-1.286-0.172-1.972-0.131
			c-0.104,0.006-0.208,0.005-0.311,0.01c-35.042,1.836-70.265-17.163-94.54-49.224c-0.704-0.93-1.408-1.862-2.093-2.814
			c-5.663-7.864-10.68-16.463-14.893-25.694C490.793,1629.856,486.604,1613.376,485.241,1597.346z M432.235,1192.133
			c0.45-4.364,1.227-8.564,2.246-12.615c5.636-22.409,19.666-39.647,39.108-47.25c7.244-2.832,14.866-4.232,22.756-4.232
			c21.843,0,45.73,10.73,69.27,31.481c41.012,36.155,89.588,62.682,120.97,77.777c4.938,4.962,10.08,9.651,15.41,14.068
			c4.375,3.625,8.87,7.068,13.471,10.344c5.319,3.788,10.771,7.352,16.343,10.699c0.655,0.393,1.313,0.782,1.971,1.17
			c3.272,1.927,6.576,3.79,9.918,5.574l0,0c3.512,1.875,7.049,3.696,10.627,5.419c68.526,33.012,147.892,38.789,194.971,38.789
			c16.185,0,28.562-0.681,35.36-1.175c23.625-1.706,114.131-10.81,193.48-52.952c15.751-8.366,31.063-18.031,45.324-29.202
			c0.124-0.097,0.251-0.191,0.376-0.288c0.255-0.201,0.504-0.409,0.759-0.611c0.616-0.488,1.226-0.986,1.839-1.48
			c3.671-2.961,7.271-6.019,10.783-9.189c39.512,25.682,95.119,75.687,91.579,152.175c-0.499,10.781-2.145,22.076-5.207,33.916
			c-3.051,11.8-7.132,23.432-12.079,34.768c-1.054,2.416-2.146,4.819-3.28,7.206c-1.138,2.396-2.307,4.779-3.523,7.142
			c-1.595,3.1-3.265,6.166-4.99,9.206c-10.951,19.3-24.446,37.302-39.828,53.185c-3.911,4.039-7.945,7.936-12.088,11.687
			c-4.03,3.648-8.159,7.159-12.388,10.51c-13.692,10.849-28.365,20.083-43.685,27.258c-10.088,4.725-20.128,8.394-30.008,11.011
			c-2.681,0.71-5.347,1.327-8.001,1.881c0,0,0,0,0,0c-2.684,0.56-5.349,1.027-8.002,1.428c-22.091,3.338-42.995,1.126-61.363-6.682
			c-1.174-0.499-2.36-0.973-3.513-1.518c-1.286-0.608-2.511-1.268-3.753-1.914c-2.4-1.25-4.735-2.552-6.966-3.939
			c-25.602-15.922-39.882-40.683-39.562-69.458c0.023-2.055,0.124-4.099,0.292-6.129c0.223-2.699,0.614-5.361,1.083-8.001
			c0.481-2.706,1.074-5.378,1.802-8.002c6.375-23.01,21.942-42.511,42.572-51.71c4.91-2.19,9.512-4.287,13.875-6.326
			c8.991-4.203,16.881-8.139,23.745-11.984c4.798-2.687,9.09-5.333,12.957-8.002c3.801-2.623,7.171-5.273,10.158-8.001
			c7.531-6.879,12.621-14.291,15.929-23.206c0.245-0.661,0.477-1.336,0.703-2.014c0.002-0.005,0.003-0.01,0.005-0.015
			c0.551-1.652,1.053-3.351,1.495-5.113c0.256-1.021,0.496-2.06,0.718-3.12c0.711-3.394,1.248-7.004,1.641-10.853
			c0.093-0.911,0.187-1.821,0.264-2.76c0.304-3.713-1.988-7.012-5.346-8.183c-0.457-0.16-0.934-0.271-1.427-0.346
			c-14.268-19.129-42.445-31.656-81.243-21.846c-27.25,6.884-48.044,18.432-63.657,30.743c-10.341-0.303-20.67-0.5-30.978-0.545
			c-10.84-0.066-21.439,0.008-31.505,0.225c-1.947,0.041-3.896,0.111-5.844,0.161c-15.59-12.251-36.317-23.731-63.449-30.584
			c-46.463-11.737-77.7,8.527-88.051,33.816c-1.398,3.415-2.364,6.86-3.006,10.294c-9.281,1.385-18.554,2.88-27.82,4.469
			c-2.943,0.505-5.886,0.995-8.827,1.52c-3.001,0.536-5.999,1.106-8.999,1.664c-17.119,3.181-34.201,6.706-51.23,10.581
			c0.412-5.11,0.939-10.434,1.618-15.764c1.553-12.835,3.894-25.601,5.946-35.123c2.06-9.521,3.727-15.816,3.727-15.816
			c0.413-1.579-0.432-3.256-1.996-3.828c-0.051-0.019-0.104-0.008-0.156-0.024c-1.619-0.502-3.363,0.322-3.952,1.931l-0.016,0.044
			c0,0-2.269,6.204-5.247,15.674c-2.969,9.47-6.548,22.249-9.348,35.251c-2.88,12.985-4.923,26.181-6.124,36.136
			c-0.584,4.975-1.028,9.285-1.25,12.08c-0.247,2.858-0.387,4.491-0.387,4.491c-0.02,0.237-0.031,0.491-0.029,0.733
			c0,0.05,0.014,0.097,0.016,0.147c-0.047,1.714-0.047,3.416-0.07,5.124c-1.069-0.204-2.138-0.401-3.212-0.674
			C495.268,1374.78,425.588,1256.65,432.235,1192.133z M693.711,1221.714c-41.336-44.209-56.985-104.515-46.509-179.249
			c4.919-35.09,12.284-67.267,22.028-96.577c0.865-2.602,1.773-5.151,2.675-7.707c0.905-2.562,1.798-5.137,2.741-7.653
			c3.698-9.867,7.68-19.391,11.962-28.55c0.936-2.003,1.925-3.942,2.89-5.912c0.487-0.994,0.977-1.984,1.47-2.969
			c0.995-1.985,1.969-3.996,2.992-5.946c5.818-11.083,12.135-21.56,18.882-31.509c14.002,0.922,27.675,1.382,40.962,1.382
			c0.465,0,0.912-0.02,1.377-0.021c2.442-0.006,4.826-0.078,7.244-0.112c1.18-0.017,2.362-0.031,3.536-0.055
			c2.314-0.046,4.671-0.042,6.962-0.113c8.121-0.254,16.041-0.717,23.864-1.273c2.891-0.205,5.776-0.415,8.626-0.659
			c2.885-0.247,5.736-0.519,8.578-0.804c73.986-7.397,133.47-27.242,174.867-45.633c43.024-19.115,72.933-39.065,88.679-50.758
			c3.717-2.76,6.644-5.058,8.767-6.777c0.301,0.123,0.595,0.258,0.896,0.383l0,0c1.342,0.555,2.67,1.133,4.001,1.708
			c1.151,0.497,2.319,0.966,3.462,1.478c9.568,4.288,18.823,9.109,27.78,14.434c1.883,1.12,3.745,2.275,5.601,3.44
			c0.918,0.576,1.859,1.114,2.77,1.701c1.87,1.206,3.694,2.49,5.536,3.742c27.623,18.787,52.135,42.821,73.435,72.174
			c1.293,1.782,2.546,3.632,3.816,5.453c0.633,0.907,1.262,1.82,1.889,2.737c1.24,1.813,2.499,3.594,3.715,5.444
			c5.545,8.435,10.847,17.271,15.917,26.488c1.299,2.362,2.557,4.79,3.825,7.203c1.255,2.388,2.514,4.768,3.738,7.206
			c13.864,27.612,25.785,58.409,35.703,92.443c21.112,72.449,14.297,134.38-20.254,184.075c-6.75,9.708-14.505,18.76-23.033,27.224
			c-1.975,1.96-4,3.88-6.059,5.775c-2.087,1.921-4.218,3.806-6.387,5.661c-2.026,1.733-4.083,3.438-6.177,5.114
			c-0.557,0.446-1.117,0.89-1.678,1.332c-0.952,0.749-1.88,1.52-2.845,2.258c-1.119,0.855-2.276,1.673-3.411,2.513
			c-7.099,5.248-14.505,10.21-22.193,14.865c-61.848,37.453-140.626,56.051-202.85,60.548
			c-72.077,5.197-168.852-5.13-239.888-45.789c-3.1-1.774-6.146-3.611-9.144-5.502c-0.768-0.485-1.538-0.967-2.299-1.46
			c-0.757-0.49-1.537-0.954-2.287-1.452c-1.104-0.732-2.166-1.508-3.254-2.257c0,0,0,0,0,0c-3.816-2.627-7.549-5.341-11.158-8.18
			c0,0-0.001-0.001-0.001-0.001c-6.97-5.482-13.515-11.381-19.609-17.682C695.152,1223.166,694.409,1222.46,693.711,1221.714z
			 M578.296,827.325v0.003c-1.644-22.752,3.657-44.423,14.072-62.965c17.88-31.832,50.868-54.415,89.927-57.238
			c14.339-1.039,28.243,0.707,41.216,4.726l-1.277,7.176l-6.753,37.958c-5.483-0.868-11.142-1.148-16.913-0.731
			c-19.687,1.422-37.659,10.446-50.607,25.411c-12.946,14.962-19.293,34.048-17.871,53.733
			c1.422,19.688,10.447,37.661,25.411,50.607c4.93,4.266,10.317,7.792,16.015,10.583c-4.537,9.809-8.739,20.011-12.634,30.568
			c-15.305-4.463-29.611-12.191-42.027-22.934C594.154,884.581,580.459,857.272,578.296,827.325z M734.681,343.107
			c2.369-4.535,5.423-8.739,9.155-12.451c9.507-9.452,22.114-14.653,35.515-14.653c0.048,0,0.098,0,0.147,0
			c13.454,0.038,26.09,5.314,35.578,14.856c3.711,3.731,6.742,7.952,9.085,12.5c3.647,7.079,5.592,14.967,5.569,23.16
			c-0.037,13.456-5.314,26.09-14.854,35.579c-0.513,0.51-1.068,0.959-1.599,1.444c-1.988,1.82-4.065,3.507-6.273,4.969
			c-2.282,1.512-4.688,2.791-7.169,3.9c-2.345,1.049-4.766,1.911-7.257,2.583c-1.036,0.279-2.072,0.56-3.129,0.772
			c-0.072,0.014-0.141,0.039-0.213,0.053c-1.663,0.326-3.352,0.567-5.06,0.723c-1.637,0.149-3.292,0.221-4.964,0.209
			c-1.07-0.003-2.117-0.1-3.17-0.169c-26.291-1.724-47.135-23.64-47.06-50.347C729.005,358.043,730.995,350.166,734.681,343.107z
			 M1315.649,774.043c3.474,48.072-23.977,91.36-65.422,110.337c-5.375-9.888-11.002-19.381-16.905-28.437
			c5.239-3.581,10.094-7.797,14.361-12.727c12.946-14.966,19.293-34.047,17.871-53.733c-1.422-19.688-10.448-37.664-25.411-50.61
			c-14.964-12.946-34.06-19.301-53.734-17.869c-19.688,1.422-37.661,10.446-50.609,25.408c-2.214,2.559-4.22,5.247-6.042,8.03
			c-9.642-5.69-19.627-10.831-29.966-15.386c1.688-4.045,3.598-7.978,5.732-11.777c17.88-31.83,50.867-54.411,89.925-57.236
			c2.746-0.197,5.467-0.294,8.178-0.294c35.846,0,68.317,17.104,89.025,43.99C1305.634,730.594,1314.005,751.283,1315.649,774.043z
			 M665.973,873.907c-11.732-10.152-18.805-24.236-19.92-39.661c-1.116-15.422,3.86-30.378,14.011-42.108
			c10.151-11.734,24.235-18.807,39.658-19.923c1.416-0.1,2.823-0.15,4.22-0.15c2.966,0,5.869,0.289,8.728,0.727l-13.003,73.085
			c-0.043,0.24-0.031,0.482-0.051,0.723c-7.575,11.19-14.597,23.044-21.048,35.573C674.092,879.983,669.845,877.256,665.973,873.907
			z M1061.186,725.187l9.292,11.12l3.316,3.969c-1.464,1.139-3.257,2.495-5.242,3.966c-27.34,20.253-103.728,69.698-219.169,88.936
			c62.802-30.184,112.21-71.923,144.381-103.919c2.565-2.551,5.055-5.059,7.398-7.474c2.421-2.496,4.685-4.886,6.865-7.214
			c10.397-11.105,18.031-20.153,22.663-25.88L1061.186,725.187z M1147.901,756.883c10.151-11.73,24.235-18.804,39.66-19.92
			c1.422-0.103,2.837-0.153,4.249-0.153c13.903,0,27.21,4.951,37.861,14.165c11.732,10.149,18.805,24.236,19.92,39.661
			c1.116,15.422-3.86,30.378-14.011,42.109c-3.35,3.872-7.163,7.181-11.277,9.992c-23.281-32.626-50.305-59.262-80.95-79.76
			C1144.744,760.875,1146.225,758.821,1147.901,756.883z M845.478,467.035l45.123,54.002l2.118,2.535l43.098,51.578l2.099,2.512
			l43.286,51.804l2.101,2.514l22.213,26.584l23.083,27.625c-4.77,5.925-13.032,15.762-24.542,27.952
			c-2.202,2.332-4.552,4.766-6.988,7.256c-2.382,2.435-4.868,4.932-7.469,7.496c-33.756,33.271-85.796,76.454-151.849,106.136
			c-6.63,0.964-13.421,1.787-20.292,2.536c-2.72,0.297-5.458,0.577-8.215,0.838c-2.722,0.257-5.464,0.493-8.223,0.714
			c-7.807,0.626-15.767,1.093-23.863,1.409c-2.191,0.086-4.351,0.205-6.563,0.267c-1.072,0.03-2.177,0.022-3.254,0.046
			c-2.161,0.049-4.346,0.067-6.526,0.092c-11.997,0.138-24.287-0.089-36.869-0.713c-2.327-0.115-4.614-0.176-6.961-0.319
			l0.877-4.931l2.872-16.143l0.886-4.978c1.62-0.522,3.258-1.026,4.863-1.561c5.632-1.876,11.19-3.817,16.648-5.843
			c3.871-1.437,7.684-2.92,11.467-4.427c2.012-0.801,3.991-1.625,5.978-2.445c0.996-0.411,1.982-0.828,2.971-1.244
			c0.297-0.125,0.596-0.249,0.893-0.374c1.683-0.71,3.398-1.396,5.063-2.119c9.394-4.078,18.487-8.363,27.303-12.798
			c1.385-0.697,2.734-1.412,4.104-2.117c1.028-0.528,2.059-1.055,3.079-1.588c0,0,0,0,0,0c2.395-1.25,4.771-2.508,7.122-3.78
			c18.106-9.795,34.904-20.191,50.369-30.814c6.815-4.682,13.373-9.401,19.673-14.132c5.107-3.835,10.026-7.67,14.793-11.497
			c42.46-34.085,71.459-67.105,86.671-86.27l-2.161-2.428c-15.598,19.711-46.177,54.627-91.472,90.174
			c-5.207,4.087-10.621,8.179-16.216,12.259c-7.368,5.373-15.071,10.715-23.109,15.987c-12.417,8.143-25.642,16.096-39.652,23.689
			c-2.349,1.273-4.727,2.53-7.12,3.781l0,0c-1.12,0.586-2.247,1.168-3.377,1.749c-1.273,0.654-2.518,1.322-3.803,1.97
			c-7.128,3.592-14.476,7.059-21.985,10.421c-1.917,0.858-3.833,1.716-5.775,2.558c-1.975,0.856-3.983,1.689-5.983,2.527
			c-0.992,0.415-1.968,0.842-2.966,1.253c-1.994,0.821-4.014,1.621-6.033,2.423c-1.277,0.507-2.567,1.005-3.854,1.504
			c-5.919,2.296-11.917,4.529-18.047,6.649c-2.903,1.004-5.858,1.96-8.808,2.921l5.844-32.847l1.158-6.511l0.576-3.239l1.153-6.483
			l5.398-30.343c2.986-1.271,5.938-2.56,8.858-3.867c1.853-0.829,3.725-1.648,5.551-2.491c2.857-1.319,5.66-2.664,8.453-4.014
			l0.001,0c2.718-1.315,5.395-2.647,8.052-3.989c88.214-44.555,143.066-103.768,168.565-136.199l-2.162-2.429
			c-25.299,32.28-80.345,91.924-169.282,136.493c-2.72,1.363-5.469,2.711-8.252,4.045l0,0c-2.867,1.374-5.756,2.737-8.691,4.076
			c-2.051,0.936-4.126,1.86-6.21,2.779c-1.402,0.618-2.799,1.237-4.216,1.847l0.586-3.295l1.069-6.006l1.463-8.222l0,0l1.437-8.08
			l9.963-55.999c74.133-42.946,116.214-88.32,137.848-117.393l-2.177-2.447c-21.098,28.498-62.255,73.162-134.935,115.706
			l17.176-96.544c36.793-28.512,58.833-53.704,71.446-71.213l-2.184-2.454c-12.074,16.887-33.152,41.229-68.425,68.963
			l19.253-108.22c3.99-0.614,7.883-1.582,11.656-2.897c3.15-1.097,6.236-2.366,9.186-3.931l32.928,39.407L845.478,467.035z
			 M1458.896,1597.354c-1.363,16.027-5.552,32.504-12.859,48.512c-4.332,9.489-9.52,18.303-15.381,26.345
			c-0.688,0.943-1.38,1.881-2.086,2.803c-24.273,31.69-59.295,50.44-94.062,48.584c-0.103-0.005-0.207-0.005-0.31-0.01
			c-0.147-0.009-0.292-0.012-0.436-0.012c-0.508,0-1.005,0.05-1.488,0.144l-30.79-0.046l-139.764-0.208v-44.95
			c13.702-11.668,27.24-25.553,40.302-42.073c0.819-1.036,1.634-2.1,2.45-3.158c9.411-12.199,18.567-25.769,27.337-40.918
			c6.424-11.089,12.09-22.573,17.006-34.434c3.865-3.178,7.652-6.475,11.354-9.887c-0.12,0.232-0.261,0.49-0.378,0.716
			c-1.111,2.058-1.993,3.837-2.593,5.287c-1.299,2.912-2.041,4.576-2.041,4.576c-0.665,1.505-0.083,3.309,1.387,4.114
			c0.09,0.049,0.189,0.048,0.281,0.088c1.5,0.648,3.266,0.104,4.067-1.358c0,0,0.877-1.597,2.411-4.392
			c0.743-1.443,1.723-3.055,2.88-4.813c1.125-1.795,2.392-3.814,3.999-5.954c0.773-1.077,1.578-2.198,2.411-3.359
			c0.897-1.115,1.824-2.268,2.777-3.455c1.841-2.412,4.063-4.746,6.241-7.234c2.302-2.389,4.633-4.895,7.191-7.257
			c1.271-1.185,2.552-2.38,3.838-3.58l4.023-3.438c2.573-2.205,5.274-4.26,7.93-6.273c0.108-0.082,0.218-0.167,0.326-0.249
			c2.808-2.039,5.571-4.033,8.352-5.802c2.714-1.867,5.496-3.415,8.054-4.993c1.715-0.936,3.332-1.835,4.912-2.688
			c0.85-0.459,1.704-0.927,2.523-1.329c2.346-1.137,4.458-2.259,6.404-3.058c1.935-0.823,3.587-1.637,4.999-2.132
			c1.977-0.758,3.315-1.272,3.952-1.517c1.049-0.327,2.098-0.625,3.146-0.916c20.737-5.75,41.209-4.442,59.405,3.867
			C1443.547,1509.732,1462.779,1551.703,1458.896,1597.354z M1145.718,1723.442v0.28h-61.211h-27.274h-47.427v-0.482v-0.345v-13.104
			v-15.774v-15.773v-50.833v-3.207v-124.015h5.031c-0.139,1.976-0.255,3.957-0.277,5.951c-0.387,34.787,16.758,64.55,47.448,83.424
			c2.245,1.38,4.565,2.698,6.954,3.959c1.658,0.876,3.312,1.756,5.038,2.573c0.715,0.338,1.451,0.628,2.173,0.951
			c15.366,6.876,32.204,10.336,49.939,10.336c6.427,0,12.978-0.497,19.606-1.395v23.031v3.304v38.424v10.43v9.932V1723.442z
			 M798.418,1723.442v-32.508v-9.968v-10.377v-38.413v-3.296v-128.691h12.529h6.363h2.922h9.285H934.33v123.99v3.204v50.858v15.776
			v15.771v13.034v0.417v0.482h-46.504H860.21h-58.879h-2.913V1723.442z M915.672,1355.259c7.127,4.465,13.311,9.212,18.677,13.972
			c1.628,1.444,3.197,2.888,4.674,4.326c-0.895,0.757-1.757,1.54-2.587,2.356c-23.122-9.903-42.798-10.88-58.753-2.815
			c-12.373,6.257-19.555,16.9-22.611,25.064h-43.817c-11.946-8.01-14.55-21.11-11.801-32.421c0.278-1.143,0.612-2.265,0.996-3.365
			c0.21-0.604,0.423-1.207,0.663-1.794c0.475-1.161,1.028-2.318,1.639-3.466c8.592-16.16,30.615-30.257,67.682-20.895
			c15.707,3.967,29.003,9.621,40.225,16.041C912.376,1353.245,914.051,1354.244,915.672,1355.259z M1033.148,1352.533
			c11.306-6.553,24.725-12.313,40.556-16.311c36.684-9.267,58.606,4.446,67.388,20.394c-0.011,0.078-0.023,0.155-0.034,0.233
			c-0.283,1.954-0.618,3.825-1.019,5.618c-0.237,1.062-0.489,2.107-0.775,3.119c-3.685,13.035-11.642,22.118-29.472,32.577h-20.727
			c-3.055-8.164-10.238-18.807-22.611-25.064c-15.956-8.074-35.63-7.089-58.75,2.818c-0.796-0.781-1.619-1.535-2.474-2.262
			c1.688-1.645,3.497-3.298,5.38-4.95c5.138-4.506,10.988-8.994,17.675-13.226
			C1029.86,1354.481,1031.482,1353.499,1033.148,1352.533z M1055.411,1426.149c-18.889,13.382-32.655,34.354-38.17,58.037h-7.435
			v-58.037v-11.984h2.988h65.182c-2.629,1.2-5.333,2.423-8.183,3.695C1064.721,1420.122,1059.937,1422.943,1055.411,1426.149z
			 M961.102,1723.722h-7.105h-2.181h-1.482v-0.125v-2.392v-15.776v-78.189v-3.202v-123.848v-8.001v-8.002v-58.037v-11.984h11.039
			h10.696h21.734v11.984v58.037v8.002v8.001v123.863v3.202v78.177v15.774v2.417v0.101h-1.482h-9.285H961.102z M775.146,1439.371
			v-13.222v-2.553v-9.431h3.712h3.557h8.001h8.002h10.544h14.497h37.857h70.025h2.988v11.984v58.037H820.097h-1.643h-7.642h-9.286
			h-3.109h-8.002h-8.001h-7.269V1439.371z M987.648,1381.119c1.282,0.607,2.504,1.294,3.675,2.04
			c2.727,1.735,5.129,3.827,7.127,6.198c0.241,0.286,0.484,0.569,0.713,0.863c1.419,1.821,2.606,3.789,3.515,5.876
			c0.295,0.678,0.566,1.365,0.802,2.066h-1.675h-2.858h-15.238h-6.336h-0.201h-1.098h-8.011h-1.096h-0.202h-6.336h-15.239h-2.857
			h-1.675c0.236-0.701,0.507-1.388,0.802-2.066c0.909-2.088,2.096-4.055,3.515-5.877c0.229-0.294,0.472-0.577,0.713-0.863
			c1.998-2.371,4.4-4.463,7.127-6.198c1.171-0.745,2.394-1.433,3.676-2.04c2.534-1.2,5.272-2.105,8.152-2.69
			c2.39-0.485,4.871-0.759,7.428-0.759c2.557,0,5.038,0.274,7.428,0.759C982.376,1379.014,985.114,1379.92,987.648,1381.119z
			 M924.172,1398.162h-51.198c2.624-4.035,6.857-8.584,13.364-11.462c8.216-3.634,21.137-4.999,40.643,2.644
			C925.721,1392.152,924.784,1395.104,924.172,1398.162z M1017.154,1389.343c19.507-7.646,32.428-6.281,40.644-2.642
			c6.523,2.885,10.76,7.449,13.381,11.462h-51.216C1019.353,1395.104,1018.415,1392.151,1017.154,1389.343z M1182.539,1634.864
			c-6.839,8.017-13.794,15.309-20.818,21.948v-23.453v-3.327v-27.002c12.128-2.899,24.452-7.244,36.797-13.026
			c7.947-3.722,15.725-7.974,23.305-12.676c-1.27,2.349-2.522,4.707-3.861,7.018c-10.433,18.02-21.435,33.7-32.778,47.37
			C1184.305,1632.777,1183.423,1633.828,1182.539,1634.864z M990.943,1365.145c-5.808-2.237-12.185-3.477-18.875-3.477
			c-6.69,0-13.067,1.24-18.875,3.477c-3.453-3.562-7.316-7.177-11.585-10.757c0.701-0.016,1.403-0.043,2.103-0.058
			c10.039-0.217,20.607-0.291,31.422-0.225c9.049,0.039,18.116,0.21,27.192,0.449
			C998.135,1358.079,994.343,1361.639,990.943,1365.145z M789.395,1398.162h-22.25c-4.42,0-8.002,3.582-8.002,8.002v5.988v8.097
			v3.866v4.227v63.846c0,4.42,3.582,8.002,8.002,8.002h15.27v129.688v3.323v23.489c-7.06-6.654-14.046-13.965-20.91-22.001
			c-0.885-1.037-1.769-2.084-2.651-3.145c-11.323-13.629-22.293-29.255-32.682-47.197c-24.249-41.868-37.808-87.774-40.541-136.787
			c-0.06-1.083-0.12-2.167-0.17-3.253c-0.056-1.223-0.139-2.438-0.182-3.666c-0.053-1.54-0.056-3.093-0.088-4.639
			c-0.023-1.104-0.051-2.207-0.063-3.314c-0.018-1.658-0.031-3.318-0.025-4.983c0.004-1.04,0.03-2.086,0.043-3.128
			c0.025-1.971,0.022-3.934,0.081-5.914c0.001-0.023-0.005-0.044-0.005-0.066c-0.002-0.35-0.01-1.845-0.024-4.358
			c-0.034-2.933,0.016-6.796,0.134-11.619c0.136-4.75,0.399-10.293,0.826-16.226c16.686-3.81,33.422-7.286,50.195-10.428
			c3.054-0.572,6.107-1.155,9.164-1.705c2.974-0.535,5.951-1.037,8.927-1.551c9.435-1.63,18.877-3.161,28.327-4.579
			C781.493,1378.931,783.855,1389.427,789.395,1398.162z M1321.637,1484.021c-1.683,1.009-3.434,2.174-5.229,3.375
			c-0.818,0.548-1.625,1.088-2.475,1.651c-2.625,1.927-5.469,3.845-8.215,6.081c-0.603,0.458-1.2,0.961-1.8,1.439
			c2.864-4.338,5.596-8.759,8.209-13.242c2.104-3.61,4.127-7.262,6.059-10.955c3.485,2.539,6.756,5.181,9.826,7.926
			C1326.036,1481.34,1323.951,1482.648,1321.637,1484.021z M1332.467,1771.51c-96.566,16.308-224.977,25.29-361.575,25.29
			s-265.008-8.982-361.575-25.29c-94.403-15.942-148.546-37.639-148.546-59.528c0-10.912,13.463-21.777,38.656-31.904
			c26.281,36.913,65.64,59.653,105.559,59.651c1.417,0,2.844-0.028,4.262-0.084c0.383,0.053,0.694,0.109,1.166,0.081l178.057-0.266
			c0.626,0.157,1.27,0.266,1.944,0.266h151.915h59.473h151.915c0.675,0,1.319-0.108,1.945-0.266l178.059,0.266
			c0.366,0.091,0.771-0.028,1.146-0.084c1.427,0.059,2.855,0.088,4.282,0.088c39.641,0,78.73-22.437,105.01-58.902
			c24.013,9.914,36.852,20.512,36.852,31.156C1481.013,1733.871,1426.871,1755.568,1332.467,1771.51z"/>
		<path id="XMLID_1903_" style="fill:#231F20;" d="M577.974,1586.905c-11.981,6.036-20.524,17.08-24.056,31.097
			c-3.354,13.31-1.748,27.775,4.412,40.985c0.289,0.619,0.533,1.25,0.842,1.863c0.224,0.444,0.477,0.863,0.709,1.299
			c10.235,19.24,28.551,31.068,46.965,32.199c0.966,0.059,1.933,0.114,2.899,0.114c6.867,0,13.687-1.514,20.04-4.715
			c11.98-6.036,20.524-17.078,24.058-31.097c1.078-4.277,1.588-8.681,1.662-13.119c0.019-1.154,0.045-2.306-0.002-3.464
			c-0.366-8.895-2.683-17.865-6.914-26.263c-10.931-21.696-32.043-34.326-52.402-33.524
			C589.94,1582.527,583.762,1583.993,577.974,1586.905z M598.036,1585.386c18.601,0,37.653,11.927,47.694,31.859
			c4.069,8.078,6.29,16.702,6.599,25.237c0.042,1.164,0.002,2.323-0.027,3.483c-0.102,4.029-0.585,8.022-1.564,11.905
			c-3.302,13.103-11.255,23.409-22.395,29.02c-6.879,3.466-14.35,4.759-21.806,4.219c-16.913-1.224-33.705-12.101-43.383-29.693
			c-0.37-0.673-0.775-1.314-1.123-2.007c-0.189-0.375-0.334-0.761-0.515-1.139c-6.098-12.711-7.724-26.678-4.496-39.485
			c3.302-13.104,11.254-23.409,22.394-29.02c5.422-2.732,11.214-4.083,17.075-4.293
			C597.006,1585.454,597.519,1585.386,598.036,1585.386z"/>
		<path id="XMLID_1906_" style="fill:#231F20;" d="M538.941,1560.188c5.853,11.618,16.358,18.788,26.022,18.788
			c2.805,0,5.54-0.603,8.07-1.877c5.532-2.788,9.25-8.28,10.469-15.464c1.189-7.003-0.148-14.817-3.768-22
			c-3.618-7.183-9.1-12.909-15.436-16.122c-6.498-3.294-13.121-3.576-18.657-0.789c-11.246,5.667-14.253,22.472-6.703,37.464
			H538.941z M547.083,1525.584c4.602-2.319,10.201-2.041,15.769,0.784c5.731,2.907,10.711,8.13,14.025,14.708
			c3.313,6.576,4.546,13.689,3.471,20.024c-1.044,6.154-4.154,10.821-8.755,13.14c-9.674,4.862-23.037-2.08-29.795-15.494h0.002
			C535.042,1545.333,537.413,1530.455,547.083,1525.584z"/>
		<path id="XMLID_1909_" style="fill:#231F20;" d="M593.874,1557.975c3.602,7.505,10.075,12.56,16.91,12.56
			c0.422,0,0.845-0.019,1.269-0.058c3.96-0.364,7.481-2.354,10.182-5.754c3.82-4.812,5.437-11.73,4.437-18.982
			c-1.746-12.66-11.112-22.215-20.828-21.331c-3.96,0.364-7.481,2.354-10.182,5.754c-1.694,2.135-2.928,4.699-3.719,7.508
			c-0.993,3.523-1.274,7.439-0.718,11.474C591.664,1552.326,592.591,1555.302,593.874,1557.975z M598.169,1532.154
			c2.143-2.699,4.898-4.274,7.969-4.556c0.334-0.031,0.667-0.047,1-0.047c7.694,0,14.911,8.095,16.364,18.627
			c0.867,6.297-0.544,12.484-3.774,16.555c-2.143,2.699-4.898,4.274-7.969,4.556c-8.056,0.752-15.849-7.594-17.364-18.58
			C593.527,1542.412,594.938,1536.225,598.169,1532.154z"/>
		<path id="XMLID_1912_" style="fill:#231F20;" d="M533.176,1609.279c0.209,0,0.42-0.003,0.63-0.009
			c4.34-0.147,8.034-1.791,10.687-4.759c6.514-7.292,4.385-20.495-4.746-29.431c-5.232-5.121-11.79-7.936-17.896-7.731
			c-4.338,0.147-8.033,1.791-10.683,4.757c-6.515,7.294-4.387,20.496,4.746,29.432
			C520.964,1606.481,527.222,1609.279,533.176,1609.279z M513.555,1574.237c2.054-2.297,4.959-3.574,8.402-3.69
			c0.169-0.005,0.336-0.008,0.503-0.008c5.065,0,10.652,2.527,15.048,6.828c7.927,7.756,9.988,18.976,4.596,25.011
			c-2.054,2.299-4.96,3.576-8.405,3.691c-5.154,0.177-11.004-2.375-15.548-6.82C510.224,1591.494,508.161,1580.273,513.555,1574.237
			z"/>
		<path id="XMLID_1915_" style="fill:#231F20;" d="M1366.161,1586.907c-5.71-2.877-11.876-4.408-18.207-4.67
			c-6.953-0.288-14.106,0.964-21.101,3.845c-13.287,5.47-24.403,16.027-31.305,29.723c-4.279,8.494-6.613,17.572-6.938,26.567
			c-0.042,1.163,0,2.32,0.025,3.479c0.096,4.33,0.606,8.625,1.658,12.8c3.532,14.018,12.076,25.061,24.056,31.099
			c6.353,3.199,13.173,4.713,20.04,4.713c0.966,0,1.933-0.055,2.899-0.114c18.258-1.122,36.417-12.762,46.701-31.714
			c0.323-0.596,0.666-1.175,0.974-1.785c0.226-0.448,0.4-0.91,0.615-1.361c6.355-13.343,8.036-28.009,4.639-41.487
			C1386.686,1603.985,1378.142,1592.941,1366.161,1586.907z M1382.403,1658.751c-0.107,0.218-0.189,0.442-0.298,0.658
			c-0.43,0.853-0.921,1.648-1.383,2.471c-9.717,17.318-26.362,28.013-43.124,29.227c-7.458,0.54-14.929-0.752-21.807-4.217
			c-11.14-5.611-19.091-15.917-22.394-29.02c-0.953-3.78-1.438-7.665-1.559-11.586c-0.036-1.159-0.078-2.317-0.042-3.481
			c0.265-8.64,2.491-17.378,6.612-25.557c6.553-13.01,17.088-23.026,29.664-28.206c5.962-2.455,12.043-3.679,17.982-3.679
			c0.536,0,1.061,0.071,1.594,0.091c5.944,0.222,11.728,1.62,17.072,4.313c11.14,5.611,19.093,15.916,22.395,29.02
			C1390.384,1631.752,1388.692,1645.913,1382.403,1658.751z"/>
		<path id="XMLID_1918_" style="fill:#231F20;" d="M1360.632,1561.635c1.219,7.184,4.937,12.676,10.469,15.462
			c2.53,1.275,5.264,1.879,8.07,1.879c9.665,0,20.17-7.17,26.023-18.788h0.001c7.55-14.992,4.545-31.797-6.701-37.464
			c-5.534-2.786-12.159-2.508-18.659,0.789c-6.336,3.213-11.816,8.939-15.434,16.122
			C1360.782,1546.818,1359.444,1554.63,1360.632,1561.635z M1381.285,1526.368c3.071-1.558,6.153-2.341,9.07-2.341
			c2.372,0,4.635,0.517,6.698,1.557c9.671,4.871,12.04,19.748,5.284,33.163c-6.761,13.415-20.131,20.357-29.795,15.494
			c-4.601-2.319-7.709-6.986-8.755-13.14c-1.075-6.337,0.158-13.448,3.473-20.024
			C1370.572,1534.498,1375.552,1529.275,1381.285,1526.368z"/>
		<path id="XMLID_1921_" style="fill:#231F20;" d="M1332.084,1570.477c0.423,0.039,0.847,0.058,1.267,0.058
			c6.835,0,13.308-5.056,16.911-12.562c1.283-2.672,2.21-5.648,2.648-8.827c0.556-4.034,0.275-7.95-0.717-11.473
			c-0.791-2.809-2.025-5.375-3.719-7.51c-2.701-3.401-6.222-5.39-10.182-5.754c-9.747-0.916-19.08,8.674-20.826,21.331
			c-1,7.251,0.617,14.17,4.437,18.982C1324.603,1568.124,1328.124,1570.113,1332.084,1570.477z M1320.635,1546.178
			c1.453-10.532,8.669-18.627,16.363-18.627c0.333,0,0.667,0.016,1,0.047c3.071,0.281,5.826,1.857,7.969,4.556
			c3.23,4.071,4.641,10.258,3.774,16.555c-1.516,10.987-9.354,19.338-17.363,18.58c-3.071-0.281-5.826-1.857-7.969-4.556
			C1321.179,1558.662,1319.768,1552.475,1320.635,1546.178z"/>
		<path id="XMLID_1924_" style="fill:#231F20;" d="M1399.645,1604.51c2.651,2.966,6.344,4.612,10.683,4.757
			c0.209,0.008,0.42,0.011,0.633,0.011c5.953,0,12.21-2.797,17.263-7.741c9.132-8.936,11.26-22.139,4.746-29.432
			c-2.652-2.966-6.347-4.612-10.687-4.757c-6.12-0.213-12.664,2.612-17.893,7.731
			C1395.258,1584.016,1393.129,1597.218,1399.645,1604.51z M1421.676,1570.54c0.167,0,0.334,0.003,0.502,0.008
			c3.444,0.116,6.351,1.391,8.405,3.69c5.392,6.036,3.329,17.257-4.596,25.013c-4.542,4.446-10.369,6.998-15.55,6.82
			c-3.445-0.116-6.35-1.392-8.403-3.691c-5.393-6.036-3.332-17.255,4.596-25.011
			C1411.025,1573.065,1416.611,1570.54,1421.676,1570.54z"/>
		<path id="XMLID_1927_" style="fill:#231F20;" d="M1076.462,1133.984c34.024,30.687,73.507,46.692,107.847,46.692
			c24.721,0,46.78-8.302,62.197-25.394c36.834-40.838,19.849-114.173-38.667-166.953c-58.516-52.778-133.21-62.133-170.044-21.298
			C1000.961,1007.87,1017.946,1081.205,1076.462,1133.984z M1040.171,969.176c14.806-16.414,36.006-24.374,59.842-24.374
			c33.525,0,72.26,15.758,105.682,45.903c57.183,51.579,74.067,122.928,38.436,162.433c-35.629,39.502-108.339,30.05-165.524-21.529
			C1021.423,1080.03,1004.54,1008.681,1040.171,969.176z"/>
		<path id="XMLID_1928_" style="fill:#231F20;" d="M1082.081,1056.633c7.452-0.401,14.908-0.599,22.319-0.349
			c3.703,0.116,7.404,0.336,11.074,0.713c1.822,0.228,3.674,0.405,5.482,0.707c1.834,0.25,3.613,0.65,5.444,0.967
			c1.785,0.411,3.596,0.818,5.346,1.382c0.901,0.241,1.753,0.566,2.618,0.888c0.882,0.294,1.768,0.594,2.608,0.978
			c1.746,0.677,3.385,1.56,5.044,2.489c0.798,0.499,1.643,0.973,2.438,1.518l2.351,1.744c-0.92-1.741-2.035-3.408-3.31-4.986
			c-1.303-1.535-2.746-2.994-4.305-4.31c-1.524-1.379-3.206-2.565-4.938-3.648c-1.724-1.122-3.522-2.083-5.339-3.056
			c-3.663-1.826-7.484-3.3-11.363-4.512c-3.877-1.244-7.822-2.129-11.78-2.919c-7.927-1.474-15.926-2.248-23.902-2.422
			c-1.762-0.044-3.524-0.055-5.286-0.048l0.485-0.54l4.408-4.254c1.427-1.464,3.032-2.754,4.593-4.096
			c1.595-1.303,3.068-2.758,4.777-3.938l4.955-3.786l5.168-3.559c1.694-1.248,3.527-2.279,5.306-3.423
			c1.783-1.133,3.568-2.284,5.439-3.287c1.849-1.043,3.654-2.206,5.562-3.165c1.895-0.984,3.759-2.072,5.684-3.029
			c1.931-0.942,3.831-2.006,5.788-2.934l5.914-2.762c3.963-1.871,8.008-3.565,12.145-5.283c-4.483-0.14-8.974,0.216-13.425,0.798
			c-2.251,0.218-4.424,0.731-6.656,1.088c-2.214,0.415-4.413,0.91-6.621,1.41c-2.192,0.543-4.358,1.185-6.54,1.806
			c-2.186,0.613-4.295,1.441-6.458,2.158c-2.157,0.732-4.248,1.63-6.353,2.519c-2.113,0.872-4.211,1.786-6.241,2.856
			c-2.042,1.044-4.119,2.039-6.119,3.18l-5.926,3.594c-2.006,1.158-3.797,2.661-5.703,3.991c-1.875,1.377-3.804,2.691-5.508,4.304
			l-5.27,4.647c-1.685,1.635-3.241,3.41-4.857,5.121l-2.399,2.593l-2.172,2.803l-4.242,5.685c-1.177,1.586-1.77,3.634-1.477,5.744
			c0.592,4.275,4.537,7.26,8.812,6.668l0.313-0.044c1.649-0.228,3.577-0.444,5.396-0.625l5.555-0.566
			C1074.63,1057.138,1078.355,1056.848,1082.081,1056.633z"/>
		<path id="XMLID_1931_" style="fill:#231F20;" d="M866.773,1148.825c50.227-60.533,56.482-135.409,14.237-170.463
			c-20.37-16.902-48.474-21.625-79.13-13.315c-30.813,8.356-61.277,29.223-85.78,58.754c-24.505,29.531-39.392,63.322-41.923,95.146
			c-2.516,31.666,7.316,58.413,27.685,75.315c14.076,11.679,31.499,17.252,50.338,17.25
			C789.907,1211.511,833.28,1189.188,866.773,1148.825z M677.369,1119.2c2.477-31.172,17.107-64.327,41.194-93.355
			c24.086-29.029,53.973-49.524,84.155-57.71c9.594-2.602,18.916-3.888,27.807-3.888c18.562,0,35.226,5.612,48.441,16.578
			c40.863,33.907,34.426,106.804-14.656,165.955c-49.082,59.153-119.54,78.924-160.403,45.018
			C684.363,1175.582,674.937,1149.798,677.369,1119.2z"/>
		<path id="XMLID_1934_" style="fill:#231F20;" d="M830.35,1110.545c25.842-1.867,44.918-29.288,42.609-61.247
			c-2.309-31.959-25.13-56.352-50.972-54.485c-25.842,1.867-44.918,29.289-42.609,61.247
			C781.688,1088.019,804.508,1112.413,830.35,1110.545z M834.822,1012.859c7.397-0.535,13.826,5.028,14.361,12.425
			c0.534,7.397-5.028,13.826-12.425,14.36c-7.397,0.535-13.826-5.028-14.361-12.425
			C821.863,1019.823,827.426,1013.393,834.822,1012.859z"/>
		<path id="XMLID_1937_" style="fill:#231F20;" d="M900.225,1156.654c1.103,15.256,10.663,27.891,23.74,33.736
			c0.398,1.835,0.905,3.986,1.562,6.4c0.433,1.591,0.928,3.291,1.489,5.051c0.283,0.891,0.585,1.804,0.902,2.722
			c5.091,14.782,12.205,25.981,20.891,33.322c0.593,0.501,1.179,1.02,1.786,1.484c0.687,0.526,1.398,0.993,2.104,1.472
			c6.941,4.708,14.747,7.179,23.268,7.178c1.096,0,2.205-0.041,3.324-0.122c9.59-0.692,17.92-4.255,24.817-10.375
			c0.625-0.555,1.238-1.129,1.839-1.726c0.56-0.556,1.118-1.114,1.656-1.706c7.759-8.535,13.326-20.82,16.295-36.465
			c0.181-0.956,0.349-1.9,0.497-2.807c0.303-1.832,0.547-3.579,0.75-5.226c0.299-2.447,0.49-4.619,0.62-6.475
			c3.311-2.09,6.332-4.68,8.967-7.725c7.016-8.108,10.454-18.463,9.682-29.156c-0.319-4.407-4.117-7.742-8.558-7.405
			c-2.731,0.196-5.037,1.745-6.325,3.941c-0.79,1.348-1.2,2.938-1.079,4.614c0.464,6.433-1.604,12.659-5.821,17.535
			c-0.942,1.089-1.977,2.065-3.072,2.955c-2.339,1.902-4.997,3.326-7.858,4.233c-1.795,0.569-3.659,0.956-5.584,1.095
			c-9.25,0.622-17.653-4.02-22.238-11.37c-1.54-2.469-2.646-5.241-3.208-8.226c-0.169-0.898-0.301-1.809-0.369-2.742l-0.53-7.338
			c9.455-2.683,17.324-8.801,22.336-16.801c4.181-6.674,6.387-14.645,5.778-23.074c-1.535-21.246-79.166-15.636-77.631,5.61
			c1.339,18.533,15.684,33.043,33.554,35.419l0.531,7.34v0.001c0.067,0.927,0.067,1.848,0.03,2.763
			c-0.121,2.986-0.784,5.89-1.962,8.594c-0.965,2.214-2.263,4.296-3.888,6.174c-4.22,4.876-10.083,7.817-16.514,8.283
			c-1.938,0.133-3.832,0.01-5.668-0.296c-3.01-0.501-5.846-1.547-8.389-3.059c-6.556-3.901-11.167-10.81-11.759-18.981
			c0-0.001,0-0.002,0-0.002c-0.32-4.404-4.159-7.742-8.558-7.401C903.221,1148.415,899.906,1152.244,900.225,1156.654z
			 M978.136,1231.938c-17.47,1.231-27.631-13.649-33.4-28.081c7.069-9.091,17.813-15.269,30.186-16.163
			c12.405-0.896,23.919,3.679,32.229,11.654C1003.509,1214.462,995.552,1230.679,978.136,1231.938z"/>
	</g>
</g>
<g id="XMLID_4_">
	<g id="XMLID_36_">
		<g id="XMLID_291_">
			<path id="XMLID_292_" style="fill:#3A304E;" d="M2264.55,1431.914c-170.946-48.714-246.834-168.45-239.472-239.792
				c6.625-64.205,73.327-102.421,146.622-37.8c30.918,27.238,66.605,49.098,95.507,64.493c31.91,17.06,55.595,26.246,55.595,26.246
				c15.939,17.507,25.253,38.823,29.03,60.78C2363.514,1373.438,2323.058,1446.797,2264.55,1431.914z"/>
		</g>
		<g id="XMLID_289_" style="opacity:0.25;">
			<path id="XMLID_290_" d="M2264.55,1375.579c-157.384-36.725-234.133-122.721-239.585-181.728
				c-5.994,71.531,69.992,189.734,239.585,238.062c57.619,14.658,97.692-56.262,87.741-122.984
				C2344.724,1350.731,2310.117,1385.071,2264.55,1375.579z"/>
		</g>
		<g id="XMLID_287_" style="opacity:0.55;">
			<path id="XMLID_288_" style="fill:#FFFFFF;" d="M2025.077,1211.365c6.625-59.094,73.327-94.267,146.621-34.791
				c30.919,25.069,66.606,45.19,95.508,59.358c31.91,15.702,55.595,24.157,55.595,24.157c15.939,16.113,25.253,35.733,29.03,55.942
				c1.085,5.779,1.717,11.605,1.93,17.407c0.25-9.151-0.344-18.425-1.93-27.598c-3.777-21.958-13.091-43.273-29.03-60.781
				c0,0-23.685-9.186-55.595-26.246c-28.902-15.394-64.589-37.254-95.508-64.493c-73.294-64.621-139.996-26.405-146.621,37.8
				c-0.63,6.106-0.603,12.588-0.006,19.327C2025.075,1211.421,2025.075,1211.392,2025.077,1211.365z"/>
		</g>
		<g id="XMLID_285_" style="opacity:0.25;">
			<path id="XMLID_286_" d="M2351.832,1305.84c-34.791-20.228-64.973-48.33-84.625-87.026c31.91,17.06,55.595,26.246,55.595,26.246
				C2338.741,1262.568,2348.055,1283.884,2351.832,1305.84z"/>
		</g>
		<g id="XMLID_281_">
			<path id="XMLID_282_" style="fill:#231F20;" d="M2279.393,1441.831c-5.531,0-11.157-0.706-16.822-2.147
				c-100.033-28.515-158.862-77.672-190.637-113.898c-38.48-43.875-58.973-94.15-54.817-134.49
				c3.565-34.588,22.795-61.928,51.443-73.13c32.675-12.777,72.205-1.794,108.439,30.15c63.136,55.655,147.847,88.94,148.696,89.271
				c1.152,0.447,2.185,1.156,3.018,2.069c43.582,47.835,39.866,119.021,14.243,161.714
				C2327.278,1427.494,2304.306,1441.831,2279.393,1441.831z M2097.145,1128.836c-7.891,0-15.512,1.4-22.756,4.232
				c-22.956,8.977-38.416,31.359-41.354,59.865c-6.647,64.516,63.033,182.646,233.704,231.3c24.077,6.12,46.945-5.188,62.495-31.097
				c22.715-37.851,24.589-100.708-11.141-141.35c-13.125-5.276-90.771-37.776-151.677-91.469l0,0
				C2142.875,1139.567,2118.989,1128.836,2097.145,1128.836z"/>
		</g>
		<g id="XMLID_279_" style="opacity:0.25;">
			<ellipse id="XMLID_280_" cx="2571.693" cy="1712.782" rx="511.72" ry="86.417"/>
		</g>
		<g id="XMLID_218_">
			<g id="XMLID_249_">
				<g id="XMLID_277_">
					<path id="XMLID_278_" style="fill:#3A304E;" d="M2189.275,1502.009l21.927,230.516l345.822-0.515l-184.121-312.785
						C2290.414,1430.193,2219.701,1450.362,2189.275,1502.009z"/>
				</g>
				<g id="XMLID_275_" style="opacity:0.25;">
					<path id="XMLID_276_" d="M2299.589,1604.005l-107.201-106.951c-1.078,1.62-2.12,3.269-3.113,4.955l21.926,230.516h345.822
						l-62.741-102.209C2419.621,1626.61,2338.421,1659.732,2299.589,1604.005z"/>
				</g>
				<g id="XMLID_273_" style="opacity:0.55;">
					<path id="XMLID_274_" style="fill:#FFFFFF;" d="M2372.903,1423.034v-3.809c-82.488,10.968-153.202,31.137-183.627,82.784
						l13.284,21.829C2223.032,1478.311,2292.217,1432.608,2372.903,1423.034z"/>
				</g>
				<g id="XMLID_250_">
					<g id="XMLID_271_">
						
							<ellipse id="XMLID_272_" transform="matrix(0.9097 -0.4152 0.4152 0.9097 -468.9747 1054.0487)" style="fill:#3A304E;" cx="2189.266" cy="1605.418" rx="107.336" ry="130.811"/>
					</g>
					<g id="XMLID_269_" style="opacity:0.55;">
						<path id="XMLID_270_" style="fill:#FFFFFF;" d="M2145.835,1510.27c52.199-23.828,112.604-4.712,141.076,50.576
							c-0.861-2.12,0.961,2.107,0,0c-30-65.721-98.037-99.044-151.964-74.428c-53.928,24.616-73.326,97.849-43.326,163.571
							c0.961,2.106,1.965,4.177,3.003,6.216C2071.508,1598.473,2093.635,1534.098,2145.835,1510.27z"/>
					</g>
					<g id="XMLID_259_">
						<g id="XMLID_267_">
							
								<ellipse id="XMLID_268_" transform="matrix(0.8931 -0.4499 0.4499 0.8931 -501.7172 1167.1466)" style="fill:#FB7792;" cx="2204.68" cy="1639.127" rx="48.46" ry="55.978"/>
						</g>
						<g id="XMLID_265_">
							
								<ellipse id="XMLID_266_" transform="matrix(0.8931 -0.4499 0.4499 0.8931 -466.7023 1137.6619)" style="fill:#FB7792;" cx="2160.139" cy="1550.711" rx="21.239" ry="28.841"/>
						</g>
						<g id="XMLID_260_">
							<g id="XMLID_263_">
								
									<ellipse id="XMLID_264_" transform="matrix(0.9812 -0.1931 0.1931 0.9812 -257.383 455.857)" style="fill:#FB7792;" cx="2209.749" cy="1548.244" rx="16.168" ry="21.671"/>
							</g>
							<g id="XMLID_261_">
								
									<ellipse id="XMLID_262_" transform="matrix(0.7392 -0.6735 0.6735 0.7392 -515.0776 1848.2285)" style="fill:#FB7792;" cx="2128.63" cy="1589.109" rx="16.168" ry="21.671"/>
							</g>
						</g>
					</g>
					<g id="XMLID_257_" style="opacity:0.25;">
						<path id="XMLID_258_" d="M2090.511,1618.117c29.56,53.123,97.363,79.711,151.44,59.385
							c33.996-12.778,54.462-41.059,57.639-73.497c7.298,51.985-13.748,101.124-56.004,120.413
							c-53.927,24.616-121.964-8.707-151.964-74.428c-10.579-23.176-14.989-47.279-13.934-69.862
							C2079.365,1592.75,2083.552,1605.61,2090.511,1618.117z"/>
					</g>
					<g id="XMLID_253_">
						<path id="XMLID_254_" style="fill:#231F20;" d="M2205.788,1740.529c-49.085,0.003-97.326-34.379-121.445-87.218
							c-31.783-69.63-10.572-147.761,47.283-174.173c21.394-9.768,45.278-11.468,69.363-5.007
							c41.208-40.958,112.673-55.102,170.86-62.838c3.204-0.419,6.318,1.103,7.95,3.873l184.122,312.782
							c1.455,2.472,1.477,5.536,0.055,8.027c-1.422,2.491-4.07,4.032-6.937,4.035l-345.822,0.516
							c-0.472,0.028-0.783-0.028-1.166-0.081C2208.632,1740.5,2207.205,1740.529,2205.788,1740.529z M2172.592,1486.305
							c-11.962,0-23.539,2.469-34.321,7.392c-49.829,22.745-67.489,91.368-39.369,152.968
							c22.359,48.985,67.279,80.213,111.838,77.722c0.686-0.041,1.338,0.009,1.972,0.131l330.329-0.491l-174.335-296.157
							c-81.813,11.374-131.106,30.178-159.454,60.731c-2.097,2.263-5.307,3.119-8.258,2.194
							C2191.428,1487.799,2181.894,1486.305,2172.592,1486.305z"/>
					</g>
					<g id="XMLID_251_">
						<path id="XMLID_252_" style="fill:#231F20;" d="M2284.043,1562.268c0,0-0.876-1.597-2.411-4.392
							c-0.743-1.443-1.723-3.055-2.88-4.813c-1.125-1.795-2.392-3.814-3.999-5.954c-0.773-1.077-1.578-2.198-2.411-3.359
							c-0.897-1.115-1.823-2.269-2.777-3.455c-1.841-2.412-4.063-4.745-6.241-7.234c-2.302-2.389-4.634-4.895-7.192-7.257
							c-1.271-1.185-2.552-2.38-3.838-3.58l-4.023-3.437c-2.677-2.295-5.496-4.431-8.256-6.522c-2.808-2.039-5.57-4.033-8.352-5.802
							c-2.714-1.867-5.496-3.415-8.054-4.993c-2.637-1.439-5.093-2.868-7.434-4.016c-2.346-1.137-4.458-2.259-6.405-3.058
							c-1.935-0.823-3.587-1.637-4.999-2.132c-2.794-1.072-4.391-1.685-4.391-1.685l-0.336-0.129
							c-4.132-1.586-6.196-6.222-4.609-10.354c1.586-4.132,6.221-6.196,10.353-4.609c0.201,0.077,0.412,0.17,0.603,0.26
							c0,0,1.742,0.839,4.792,2.307c1.545,0.698,3.297,1.736,5.364,2.829c2.081,1.072,4.294,2.481,6.752,3.94
							c2.451,1.469,4.987,3.229,7.704,5.025c2.625,1.927,5.469,3.844,8.215,6.081c2.818,2.141,5.597,4.513,8.405,6.931
							c2.76,2.473,5.559,4.987,8.204,7.659l3.96,3.996c1.259,1.384,2.513,2.762,3.757,4.13c2.495,2.722,4.757,5.584,6.973,8.306
							c2.1,2.83,4.222,5.477,5.971,8.197c0.901,1.335,1.778,2.633,2.626,3.889c0.782,1.301,1.537,2.558,2.262,3.765
							c1.486,2.366,2.702,4.696,3.766,6.761c1.111,2.058,1.993,3.837,2.593,5.287c1.299,2.911,2.042,4.576,2.042,4.576
							c0.721,1.615-0.005,3.509-1.621,4.231C2286.628,1564.338,2284.84,1563.708,2284.043,1562.268z"/>
					</g>
				</g>
			</g>
			<g id="XMLID_219_">
				<g id="XMLID_247_">
					<path id="XMLID_248_" style="fill:#3A304E;" d="M2956.462,1502.009l-21.927,230.516l-345.822-0.515l184.121-312.785
						C2855.323,1430.193,2926.036,1450.362,2956.462,1502.009z"/>
				</g>
				<g id="XMLID_245_" style="opacity:0.25;">
					<path id="XMLID_246_" d="M2846.148,1604.005l107.201-106.951c1.078,1.62,2.12,3.269,3.113,4.955l-21.926,230.516h-345.822
						l62.741-102.209C2729.821,1630.402,2799.314,1656.205,2846.148,1604.005z"/>
				</g>
				<g id="XMLID_243_" style="opacity:0.55;">
					<path id="XMLID_244_" style="fill:#FFFFFF;" d="M2772.835,1423.034v-3.809c82.488,10.968,153.202,31.137,183.627,82.784
						l-13.285,21.829C2922.705,1478.311,2853.521,1432.608,2772.835,1423.034z"/>
				</g>
				<g id="XMLID_220_">
					<g id="XMLID_241_">
						
							<ellipse id="XMLID_242_" transform="matrix(0.4152 -0.9097 0.9097 0.4152 268.3372 3628.293)" style="fill:#3A304E;" cx="2956.471" cy="1605.418" rx="130.811" ry="107.336"/>
					</g>
					<g id="XMLID_239_" style="opacity:0.55;">
						<path id="XMLID_240_" style="fill:#FFFFFF;" d="M2999.902,1510.27c-52.199-23.828-112.604-4.712-141.076,50.576
							c0.861-2.12-0.961,2.107,0,0c30-65.721,98.037-99.044,151.964-74.428c53.928,24.616,73.326,97.849,43.326,163.571
							c-0.961,2.106-1.965,4.177-3.003,6.216C3074.229,1598.473,3052.103,1534.098,2999.902,1510.27z"/>
					</g>
					<g id="XMLID_229_">
						<g id="XMLID_237_">
							
								<ellipse id="XMLID_238_" transform="matrix(0.4499 -0.8931 0.8931 0.4499 154.0031 3528.2761)" style="fill:#FB7792;" cx="2941.057" cy="1639.127" rx="55.978" ry="48.46"/>
						</g>
						<g id="XMLID_235_">
							
								<ellipse id="XMLID_236_" transform="matrix(0.4499 -0.8931 0.8931 0.4499 257.4616 3519.4089)" style="fill:#FB7792;" cx="2985.598" cy="1550.711" rx="28.841" ry="21.239"/>
						</g>
						<g id="XMLID_230_">
							<g id="XMLID_233_">
								
									<ellipse id="XMLID_234_" transform="matrix(0.1931 -0.9812 0.9812 0.1931 849.929 4129.9956)" style="fill:#FB7792;" cx="2935.988" cy="1548.244" rx="21.671" ry="16.168"/>
							</g>
							<g id="XMLID_231_">
								
									<ellipse id="XMLID_232_" transform="matrix(0.6735 -0.7392 0.7392 0.6735 -189.6232 2748.886)" style="fill:#FB7792;" cx="3017.108" cy="1589.109" rx="21.671" ry="16.168"/>
							</g>
						</g>
					</g>
					<g id="XMLID_227_" style="opacity:0.25;">
						<path id="XMLID_228_" d="M3055.227,1618.117c-29.561,53.123-97.363,79.711-151.44,59.385
							c-33.997-12.778-54.462-41.059-57.639-73.497c-7.298,51.985,13.748,101.124,56.004,120.413
							c53.928,24.616,121.964-8.707,151.964-74.428c10.579-23.176,14.989-47.279,13.934-69.862
							C3066.372,1592.75,3062.186,1605.61,3055.227,1618.117z"/>
					</g>
					<g id="XMLID_223_">
						<path id="XMLID_224_" style="fill:#231F20;" d="M2939.951,1740.529c-1.427,0-2.855-0.028-4.282-0.088
							c-0.375,0.056-0.78,0.175-1.146,0.084l-345.821-0.516c-2.868-0.003-5.515-1.544-6.938-4.035
							c-1.422-2.491-1.4-5.554,0.055-8.027l184.12-312.782c1.63-2.769,4.754-4.288,7.95-3.873
							c58.187,7.736,129.653,21.879,170.861,62.838c24.086-6.458,47.969-4.757,69.362,5.007
							c57.854,26.412,79.066,104.543,47.283,174.173C3037.277,1706.147,2989.032,1740.529,2939.951,1740.529z M2934.563,1724.375
							c0.144,0,0.289,0.003,0.436,0.013c44.5,2.532,89.476-28.737,111.838-77.722c28.12-61.603,10.458-130.223-39.369-152.968l0,0
							c-19.166-8.752-40.857-9.752-62.724-2.901c-2.949,0.931-6.159,0.072-8.258-2.194c-28.348-30.553-77.641-49.357-159.456-60.731
							l-174.333,296.157l330.378,0.491C2933.558,1724.425,2934.055,1724.375,2934.563,1724.375z"/>
					</g>
					<g id="XMLID_221_">
						<path id="XMLID_222_" style="fill:#231F20;" d="M2855.959,1559.425c0,0,0.742-1.664,2.041-4.576
							c0.601-1.45,1.482-3.229,2.593-5.287c1.064-2.064,2.28-4.395,3.766-6.761c0.725-1.206,1.48-2.464,2.262-3.765
							c0.848-1.256,1.725-2.554,2.626-3.889c1.749-2.72,3.871-5.367,5.971-8.197c2.216-2.722,4.478-5.585,6.972-8.306
							c1.244-1.367,2.499-2.746,3.757-4.13l3.96-3.996c2.645-2.672,5.444-5.186,8.204-7.659c2.807-2.418,5.587-4.79,8.405-6.931
							c2.747-2.236,5.59-4.154,8.215-6.081c2.717-1.796,5.253-3.556,7.704-5.025c2.458-1.459,4.671-2.868,6.752-3.94
							c2.067-1.092,3.819-2.131,5.364-2.829c3.049-1.467,4.792-2.307,4.792-2.307c3.988-1.919,8.777-0.241,10.696,3.747
							c1.919,3.988,0.242,8.777-3.747,10.696c-0.194,0.093-0.389,0.178-0.587,0.255l-0.353,0.134c0,0-1.597,0.613-4.391,1.685
							c-1.413,0.495-3.065,1.309-5,2.132c-1.946,0.799-4.058,1.922-6.404,3.058c-2.342,1.149-4.797,2.577-7.434,4.016
							c-2.558,1.578-5.34,3.126-8.054,4.993c-2.782,1.769-5.544,3.763-8.352,5.802c-2.76,2.092-5.578,4.227-8.256,6.522
							l-4.023,3.437c-1.286,1.2-2.567,2.395-3.838,3.58c-2.558,2.362-4.89,4.868-7.192,7.257c-2.179,2.488-4.4,4.821-6.241,7.234
							c-0.953,1.186-1.88,2.339-2.777,3.455c-0.833,1.16-1.638,2.282-2.412,3.359c-1.607,2.14-2.873,4.159-3.999,5.954
							c-1.157,1.758-2.137,3.37-2.88,4.813c-1.534,2.795-2.411,4.392-2.411,4.392c-0.85,1.552-2.797,2.121-4.349,1.271
							C2855.875,1562.734,2855.294,1560.93,2855.959,1559.425z"/>
					</g>
				</g>
			</g>
		</g>
		<g id="XMLID_216_">
			<path id="XMLID_217_" style="fill:#F9F9F9;" d="M2825.688,1589.157c-86.353,149.151-209.45,143.485-252.083,143.293
				c-42.665,0.192-167.202,5.858-253.555-143.293c-41.961-72.462-46.826-146.173-39.144-205.833
				c1.6-12.643,3.777-24.677,6.305-35.911c6.881-30.95,16.26-56.011,23.237-72.174c5.569-12.931,9.602-20.132,9.602-20.132
				l481.89-31.11l14.146-0.896c0,0,2.176,4.225,5.633,11.939c0,0.032,0,0.032,0.032,0.032c2.817,6.337,6.497,15.011,10.498,25.637
				c11.266,29.798,25.221,74.895,30.79,126.522c0.673,6.017,1.185,12.13,1.6,18.308
				C2868.449,1464.012,2860.447,1529.145,2825.688,1589.157z"/>
		</g>
		<g id="XMLID_214_" style="opacity:0.25;">
			<path id="XMLID_215_" d="M2825.688,1528.587c-86.353,124.47-209.45,119.743-252.083,119.582
				c-42.665,0.161-167.202,4.888-253.555-119.582c-27.72-39.949-39.244-80.35-41.663-117.527
				c-2.862,54.005,5.993,116.499,41.663,178.097c86.354,149.15,210.89,143.485,253.555,143.293
				c42.633,0.192,165.73,5.857,252.083-143.293c33.276-57.452,41.998-119.582,39.342-176.087
				C2862.726,1451.223,2851.704,1491.102,2825.688,1528.587z"/>
		</g>
		<g id="XMLID_212_">
			<path id="XMLID_213_" style="fill:#3A304E;" d="M2863.039,1387.233c-94.835-21.956-190.566-33.511-287.098-33.927
				c-10.466-0.064-20.964,0-31.462,0.224c-87.09,1.824-174.883,12.739-263.381,33.351l-0.192-3.553
				c1.6-12.642,3.777-24.677,6.305-35.911c6.849-30.791,16.163-55.755,23.141-71.918c5.601-13.091,9.698-20.389,9.698-20.389
				l481.889-31.11c3.937,1.377,12.898,2.721,21.316,9.217c2.849,6.434,6.498,15.459,10.434,26.566
				C2844.507,1290.125,2857.502,1335.958,2863.039,1387.233z"/>
		</g>
		<g id="XMLID_210_" style="opacity:0.25;">
			<path id="XMLID_211_" d="M2833.689,1259.783c-72.239,64.973-181.349,87.954-242.417,92.627
				c-4.801,0.384-9.922,0.672-15.331,0.896c-9.698,0.384-20.26,0.513-31.462,0.224c-71.631-1.6-169.634-18.628-234.127-78.031
				c5.601-13.091,9.698-20.389,9.698-20.389l481.889-31.11c3.937,1.377,12.898,2.721,21.316,9.217
				C2826.103,1239.651,2829.752,1248.677,2833.689,1259.783z"/>
		</g>
		<g id="XMLID_208_">
			<path id="XMLID_209_" style="fill:#231F20;" d="M2270.034,1418.903c0,0,0.141-1.633,0.387-4.491
				c0.222-2.794,0.667-7.105,1.25-12.08c1.201-9.955,3.244-23.151,6.124-36.136c2.8-13.002,6.379-25.781,9.348-35.251
				c2.978-9.471,5.247-15.674,5.247-15.674l0.016-0.044c0.608-1.661,2.448-2.515,4.108-1.907c1.564,0.572,2.409,2.249,1.996,3.828
				c0,0-1.667,6.294-3.727,15.816c-2.052,9.521-4.394,22.288-5.946,35.123c-1.634,12.826-2.429,25.701-2.704,35.334
				c-0.118,4.823-0.168,8.685-0.134,11.619c0.016,2.868,0.025,4.507,0.025,4.507c0.025,4.423-3.541,8.03-7.965,8.055
				c-4.424,0.025-8.03-3.541-8.055-7.965C2270.004,1419.394,2270.015,1419.14,2270.034,1418.903z"/>
		</g>
		<g id="XMLID_206_">
			<path id="XMLID_207_" style="fill:#231F20;" d="M2561.383,1740.519c-51.642,0-166.823-6.698-248.258-147.352
				c-30.475-52.617-44.975-111.219-43.093-174.179c0.133-4.42,3.885-7.848,8.238-7.761c4.417,0.131,7.891,3.82,7.76,8.236
				c-1.791,59.94,11.985,115.683,40.944,165.683c81.412,140.613,198.448,139.7,242.477,139.328l4.12-0.028l4.193,0.028
				c43.659,0.344,159.599,1.269,241-139.328c32.327-55.808,44.526-122.372,36.257-197.846c-0.48-4.395,2.691-8.346,7.084-8.827
				c4.384-0.453,8.342,2.691,8.825,7.083c8.647,78.938-4.246,148.789-38.319,207.611
				c-86.067,148.658-208.747,147.649-254.977,147.311l-4.065-0.028l-3.993,0.028
				C2567.065,1740.497,2564.324,1740.519,2561.383,1740.519z"/>
		</g>
		<g id="XMLID_202_">
			<g id="XMLID_203_" style="opacity:0.25;">
				<g id="XMLID_204_">
					<polygon id="XMLID_205_" points="2473.388,1348.605 2473.388,1348.605 2473.381,1348.605 					"/>
				</g>
			</g>
		</g>
		<g id="XMLID_134_">
			<g id="XMLID_179_">
				<g id="XMLID_191_">
					<g id="XMLID_200_">
						<path id="XMLID_201_" style="fill:#FFF317;" d="M2572.869,1406.964c0,0,23.157-58.372,99.676-77.701
							c76.519-19.329,103.703,54.12,63.43,77.701h-52.355C2683.591,1399.154,2660.94,1342.691,2572.869,1406.964z"/>
					</g>
					<g id="XMLID_198_" style="opacity:0.25;">
						<path id="XMLID_199_" d="M2722.759,1387.635h-18.959c-10.162,0-19.894-3.623-25.695-10.03
							c-9.878-10.908-34.611-23.158-86.575,0.589c-13.492,15.763-18.661,28.769-18.661,28.769c88.072-64.273,110.722-7.81,110.751,0
							h52.355c14.726-8.622,20.396-23.912,17.969-38.896c-0.017,0.078-0.035,0.156-0.053,0.234
							C2751.243,1379.651,2737.774,1387.635,2722.759,1387.635z"/>
					</g>
					<g id="XMLID_196_" style="opacity:0.55;">
						<path id="XMLID_197_" style="fill:#FFFFFF;" d="M2672.544,1346.263c50.17-9.901,79.129,11.357,81.774,32.363
							c2.875-29.048-26.637-63.291-81.774-49.363c-76.519,19.328-99.676,77.701-99.676,77.701S2596.026,1361.363,2672.544,1346.263z
							"/>
					</g>
					<g id="XMLID_192_">
						<path id="XMLID_193_" style="fill:#231F20;" d="M2572.869,1414.966c-1.73,0-3.458-0.559-4.899-1.675
							c-2.818-2.182-3.852-5.964-2.538-9.277c1.007-2.538,25.58-62.406,105.153-82.507c46.455-11.746,77.698,8.524,88.051,33.816
							c9.264,22.63,1.608,46.706-18.618,58.546c-1.227,0.719-2.622,1.097-4.043,1.097h-52.354c-4.407,0-7.985-3.563-8.002-7.97
							c-0.205-1.763-4.257-13.85-17.019-19.495c-12.923-5.723-37.461-5.857-81.013,25.927
							C2576.179,1414.453,2574.524,1414.966,2572.869,1414.966z M2689.865,1398.963h43.817
							c13.818-9.264,15.152-25.343,10.144-37.576c-7.167-17.51-29.615-34.394-69.322-24.364
							c-36.286,9.164-59.912,27.577-74.428,43.603c26.804-13.484,49.315-15.766,67.178-6.726
							C2679.627,1380.156,2686.81,1390.799,2689.865,1398.963z"/>
					</g>
				</g>
				<g id="XMLID_180_">
					<g id="XMLID_189_">
						<path id="XMLID_190_" style="fill:#FFF317;" d="M2572.869,1406.964c0,0-23.157-58.372-99.676-77.701
							c-76.519-19.329-103.703,54.12-63.43,77.701h52.355C2462.147,1399.154,2484.798,1342.691,2572.869,1406.964z"/>
					</g>
					<g id="XMLID_187_" style="opacity:0.25;">
						<path id="XMLID_188_" d="M2422.979,1387.635h18.96c10.162,0,19.894-3.623,25.695-10.03
							c9.878-10.908,34.611-23.158,86.575,0.589c13.492,15.763,18.661,28.769,18.661,28.769c-88.071-64.273-110.722-7.81-110.751,0
							h-52.355c-14.727-8.622-20.396-23.912-17.969-38.896c0.017,0.078,0.035,0.156,0.053,0.234
							C2394.494,1379.651,2407.964,1387.635,2422.979,1387.635z"/>
					</g>
					<g id="XMLID_185_" style="opacity:0.55;">
						<path id="XMLID_186_" style="fill:#FFFFFF;" d="M2473.193,1346.263c-50.17-9.901-79.129,11.357-81.774,32.363
							c-2.875-29.048,26.637-63.291,81.774-49.363c76.519,19.328,99.676,77.701,99.676,77.701S2549.712,1361.363,2473.193,1346.263z
							"/>
					</g>
					<g id="XMLID_181_">
						<path id="XMLID_182_" style="fill:#231F20;" d="M2572.869,1414.966c-1.655,0-3.31-0.513-4.717-1.538
							c-43.551-31.781-68.092-31.644-81.015-25.927c-12.762,5.645-16.814,17.732-17.029,19.723
							c-0.017,4.407-3.585,7.742-7.992,7.742h-52.354c-1.421,0-2.816-0.378-4.043-1.097c-20.226-11.843-27.881-35.917-18.618-58.546
							c10.351-25.289,41.588-45.553,88.051-33.816c79.572,20.101,104.148,79.969,105.154,82.507c1.314,3.313,0.28,7.095-2.538,9.277
							C2576.33,1414.406,2574.6,1414.966,2572.869,1414.966z M2412.056,1398.963h43.817c3.055-8.164,10.238-18.807,22.611-25.064
							c17.944-9.071,40.585-6.733,67.554,6.914c-14.417-16.038-38.064-34.51-74.804-43.79c-39.7-10.027-62.155,6.854-69.32,24.361
							C2396.904,1373.62,2398.239,1389.698,2412.056,1398.963z"/>
					</g>
				</g>
			</g>
			<g id="XMLID_177_">
				<rect id="XMLID_178_" x="2391.217" y="1406.964" style="fill:#2382F9;" width="363.304" height="325.561"/>
			</g>
			<g id="XMLID_166_">
				<g id="XMLID_175_">
					<rect id="XMLID_176_" x="2391.217" y="1406.964" style="fill:#2382F9;" width="363.304" height="325.561"/>
				</g>
				<g id="XMLID_173_" style="opacity:0.55;">
					<polygon id="XMLID_174_" style="fill:#FFFFFF;" points="2391.217,1406.964 2391.217,1732.525 2401.56,1732.525 
						2424.832,1406.964 					"/>
				</g>
				<g id="XMLID_171_" style="opacity:0.25;">
					<path id="XMLID_172_" d="M2744.824,1406.964L2744.824,1406.964c0,27.449-4.046,54.046-11.593,79.363h-342.014v13.324
						l331.623,15.64c-48.855,115.942-173.825,208.835-320.31,208.835h-11.313v8.399h363.304v-217.234v-28.964v-79.363H2744.824z"/>
				</g>
				<g id="XMLID_167_">
					<path id="XMLID_168_" style="fill:#231F20;" d="M2754.52,1740.526h-363.303c-4.419,0-8.001-3.582-8.001-8.002v-325.56
						c0-4.42,3.582-8.002,8.001-8.002h363.303c4.42,0,8.002,3.582,8.002,8.002v325.56
						C2762.522,1736.943,2758.94,1740.526,2754.52,1740.526z M2399.219,1724.522h347.3v-309.556h-347.3V1724.522z"/>
				</g>
			</g>
			<g id="XMLID_155_">
				<g id="XMLID_164_">
					<rect id="XMLID_165_" x="2367.945" y="1406.964" style="fill:#2382F9;" width="409.848" height="86.025"/>
				</g>
				<g id="XMLID_162_" style="opacity:0.25;">
					<rect id="XMLID_163_" x="2367.945" y="1463.01" width="409.848" height="29.978"/>
				</g>
				<g id="XMLID_160_" style="opacity:0.55;">
					<rect id="XMLID_161_" x="2367.945" y="1406.964" style="fill:#FFFFFF;" width="409.848" height="19.986"/>
				</g>
				<g id="XMLID_156_">
					<path id="XMLID_157_" style="fill:#231F20;" d="M2777.792,1500.99h-409.847c-4.42,0-8.002-3.582-8.002-8.002v-86.024
						c0-4.42,3.582-8.002,8.002-8.002h409.847c4.42,0,8.002,3.582,8.002,8.002v86.024
						C2785.794,1497.408,2782.212,1500.99,2777.792,1500.99z M2375.947,1484.986h393.844v-70.02h-393.844V1484.986z"/>
				</g>
			</g>
			<g id="XMLID_144_">
				<g id="XMLID_153_">
					<rect id="XMLID_154_" x="2543.132" y="1406.964" style="fill:#FFF317;" width="59.473" height="325.561"/>
				</g>
				<g id="XMLID_151_" style="opacity:0.25;">
					<path id="XMLID_152_" d="M2580.626,1406.964v273.038c0,19.87-13.361,37.782-33.85,45.379l-3.644,1.351v5.792h59.473v-325.561
						H2580.626z"/>
				</g>
				<g id="XMLID_149_" style="opacity:0.55;">
					<polygon id="XMLID_150_" style="fill:#FFFFFF;" points="2543.132,1406.964 2543.132,1732.525 2554.607,1732.525 
						2562.364,1406.964 					"/>
				</g>
				<g id="XMLID_145_">
					<path id="XMLID_146_" style="fill:#231F20;" d="M2602.605,1740.526h-59.473c-4.419,0-8.001-3.582-8.001-8.002v-325.56
						c0-4.42,3.582-8.002,8.001-8.002h59.473c4.42,0,8.001,3.582,8.001,8.002v325.56
						C2610.607,1736.943,2607.025,1740.526,2602.605,1740.526z M2551.134,1724.522h43.47v-309.556h-43.47V1724.522z"/>
				</g>
			</g>
			<g id="XMLID_135_">
				<g id="XMLID_142_">
					<path id="XMLID_143_" style="fill:#FFF317;" d="M2572.869,1370.469c-22.493,0-40.727,16.339-40.727,36.495h81.453
						C2613.595,1386.808,2595.361,1370.469,2572.869,1370.469z"/>
				</g>
				<g id="XMLID_140_" style="opacity:0.55;">
					<path id="XMLID_141_" style="fill:#FFFFFF;" d="M2572.869,1385.566c22.492,0,40.726,9.579,40.726,21.397
						c0-20.156-18.234-36.495-40.726-36.495c-22.493,0-40.727,16.339-40.727,36.495
						C2532.142,1395.146,2550.376,1385.566,2572.869,1385.566z"/>
				</g>
				<g id="XMLID_136_">
					<path id="XMLID_137_" style="fill:#231F20;" d="M2613.595,1414.966h-81.452c-4.42,0-8.002-3.582-8.002-8.002
						c0-24.536,21.859-44.497,48.729-44.497c26.868,0,48.727,19.96,48.727,44.497
						C2621.596,1411.384,2618.014,1414.966,2613.595,1414.966z M2541.457,1398.963h62.824
						c-3.982-11.827-16.556-20.492-31.411-20.492C2558.015,1378.471,2545.439,1387.135,2541.457,1398.963z"/>
				</g>
			</g>
		</g>
		<g id="XMLID_132_">
			<path id="XMLID_133_" style="fill:#3A304E;" d="M2932.141,1417.351c-32.295,124.921-164.929,214.411-253.907,172.322
				c-81.392-38.472-63.149-137.5-4.385-163.713c58.764-26.213,73.775-38.312,76.784-74.735l16.227-46.57l36.103-103.508
				c0,0,26.309,10.562,55.723,32.55C2903.463,1267.208,2955.409,1327.381,2932.141,1417.351z"/>
		</g>
		<g id="XMLID_129_" style="opacity:0.55;">
			<g id="XMLID_130_">
				<path id="XMLID_131_" style="fill:#FFFFFF;" d="M2858.686,1233.698c-29.414-21.989-55.723-32.55-55.723-32.55l-4.613,25.592
					c0,0,25.634,9.885,54.292,30.463c43.627,31.361,94.239,87.675,71.568,171.875c-26.279,97.639-120.739,172.088-201.67,171.052
					c83.63,2.832,182.346-77.356,209.6-182.779C2955.409,1327.381,2903.463,1267.208,2858.686,1233.698z"/>
			</g>
		</g>
		<g id="XMLID_127_" style="opacity:0.25;">
			<path id="XMLID_128_" d="M2932.141,1386.692c-32.295,107.206-164.929,184.005-253.908,147.886
				c-29.165-11.831-45.479-30.341-51.778-50.251c-9.892,37.772,3.153,82.363,51.778,105.346
				c88.978,42.088,221.613-47.402,253.908-172.322c5.271-20.382,6.652-39.221,5.16-56.58
				C2936.501,1369.072,2934.85,1377.701,2932.141,1386.692z"/>
		</g>
		<g id="XMLID_125_" style="opacity:0.25;">
			<path id="XMLID_126_" d="M2858.686,1233.698c-24.837,30.374-57.26,53.547-91.826,70.958l36.103-103.508
				C2802.963,1201.147,2829.272,1211.71,2858.686,1233.698z"/>
		</g>
		<g id="XMLID_123_">
			<path id="XMLID_124_" style="fill:#231F20;" d="M2726.913,1608.183c-18.568,0-36.173-3.748-52.112-11.287
				c-38.209-18.069-59.875-50.857-59.44-89.956c0.425-38.261,22.622-73.74,55.233-88.28c58.674-26.168,69.45-36.348,72.057-68.092
				c0.361-4.404,4.256-7.708,8.63-7.317c4.404,0.359,7.681,4.223,7.32,8.63c-3.338,40.63-21.333,54.567-81.49,81.395
				c-27.005,12.043-45.39,41.718-45.748,73.843c-0.363,32.578,17.965,60.031,50.281,75.312
				c31.391,14.837,70.772,12.668,110.886-6.12c62.374-29.212,114.132-92.394,131.861-160.961
				c36.351-140.575-122.797-206.12-124.408-206.767c-4.103-1.641-6.095-6.298-4.453-10.402c1.643-4.101,6.298-6.095,10.404-4.451
				c1.771,0.706,43.795,17.782,81.588,53.858c50.781,48.466,68.887,107.865,52.362,171.769
				c-18.874,72.996-74.049,140.291-140.566,171.447C2774.632,1602.366,2750.029,1608.183,2726.913,1608.183z"/>
		</g>
		<g id="XMLID_37_">
			<g id="XMLID_84_">
				<g id="XMLID_104_">
					<g id="XMLID_121_">
						
							<ellipse id="XMLID_122_" transform="matrix(0.7071 -0.7071 0.7071 0.7071 267.7485 2212.2947)" style="fill:#3A304E;" cx="2804.35" cy="782.946" rx="120.394" ry="120.394"/>
					</g>
					<g id="XMLID_119_" style="opacity:0.25;">
						<path id="XMLID_120_" d="M2810.661,870.281c-63.129,4.562-117.922-34.344-126.67-88.157c-0.018,3.146,0.047,6.309,0.278,9.5
							c4.792,66.319,62.439,116.196,128.759,111.404c66.319-4.792,116.197-62.439,111.404-128.758
							c-0.231-3.191-0.62-6.331-1.091-9.441C2922.421,819.34,2873.79,865.719,2810.661,870.281z"/>
					</g>
					<g id="XMLID_117_" style="opacity:0.55;">
						<path id="XMLID_118_" style="fill:#FFFFFF;" d="M2796.878,679.541c64.87-4.688,121.153,39.371,127.756,99.055
							c-0.052-1.44-0.098-2.878-0.202-4.327c-4.792-66.319-62.439-116.197-128.759-111.404s-116.197,62.439-111.404,128.759
							c0.105,1.448,0.267,2.878,0.422,4.311C2682.644,735.921,2732.008,684.228,2796.878,679.541z"/>
					</g>
					<g id="XMLID_113_">
						<path id="XMLID_114_" style="fill:#231F20;" d="M2804.261,911.345c-66.626,0-123.097-51.664-127.974-119.143
							c-5.101-70.614,48.196-132.214,118.809-137.318c70.649-5.11,132.216,48.194,137.317,118.808s-48.196,132.214-118.808,137.315
							C2810.471,911.236,2807.354,911.345,2804.261,911.345z M2804.427,670.55c-2.711,0-5.432,0.097-8.178,0.294
							c-61.811,4.47-108.466,58.393-103.999,120.206c4.467,61.806,58.381,108.397,120.201,103.999
							c61.811-4.467,108.466-58.39,103.999-120.206l0,0C2912.183,715.778,2862.745,670.55,2804.427,670.55z"/>
					</g>
					<g id="XMLID_111_">
						<path id="XMLID_112_" style="fill:#FB7792;" d="M2797.299,861.446c-36.301,2.623-67.967-24.774-70.59-61.073
							c-2.623-36.299,24.776-67.966,61.076-70.589c36.298-2.623,67.965,24.776,70.588,61.075
							C2860.996,827.157,2833.597,858.823,2797.299,861.446z"/>
					</g>
					<g id="XMLID_109_" style="opacity:0.25;">
						<path id="XMLID_110_" d="M2789.596,754.839c34.181-2.47,64.063,19.153,69.412,49.065c0.033-2.274-0.022-4.568-0.189-6.883
							c-2.869-39.698-34.735-69.861-71.033-67.238c-36.301,2.623-63.5,37.055-60.631,76.752c0.167,2.315,0.443,4.593,0.802,6.839
							C2728.949,783.004,2755.412,757.31,2789.596,754.839z"/>
					</g>
					<g id="XMLID_105_">
						<path id="XMLID_106_" style="fill:#231F20;" d="M2792.445,869.621c-17.744,0-34.721-6.311-48.305-18.066
							c-14.964-12.946-23.989-30.919-25.411-50.607c-1.422-19.685,4.925-38.77,17.871-53.736
							c12.948-14.962,30.92-23.986,50.609-25.408c19.674-1.432,38.771,4.923,53.734,17.869
							c14.964,12.946,23.989,30.922,25.411,50.61c1.422,19.685-4.924,38.767-17.871,53.733
							c-12.948,14.962-30.92,23.986-50.607,25.408l0,0C2796.062,869.556,2794.247,869.621,2792.445,869.621z M2792.611,737.61
							c-1.413,0-2.827,0.05-4.249,0.153c-15.425,1.116-29.509,8.189-39.66,19.92c-10.15,11.734-15.126,26.687-14.011,42.112
							c1.114,15.425,8.188,29.509,19.92,39.658c11.732,10.152,26.677,15.147,42.112,14.012l0,0
							c15.424-1.116,29.508-8.189,39.658-19.92c10.15-11.73,15.126-26.687,14.01-42.108c-1.114-15.425-8.188-29.512-19.92-39.661
							C2819.821,742.561,2806.514,737.61,2792.611,737.61z"/>
					</g>
				</g>
				<g id="XMLID_85_">
					<g id="XMLID_102_">
						
							<ellipse id="XMLID_103_" transform="matrix(0.7071 -0.7071 0.7071 0.7071 91.2289 1860.3008)" style="fill:#3A304E;" cx="2291.196" cy="820.027" rx="120.394" ry="120.394"/>
					</g>
					<g id="XMLID_100_" style="opacity:0.25;">
						<path id="XMLID_101_" d="M2297.507,907.362c63.129-4.562,111.759-50.94,112.68-105.453c0.47,3.111,0.86,6.25,1.091,9.441
							c4.792,66.319-45.085,123.966-111.404,128.758c-66.319,4.792-123.966-45.085-128.759-111.404
							c-0.23-3.191-0.297-6.354-0.278-9.5C2179.584,873.018,2234.378,911.924,2297.507,907.362z"/>
					</g>
					<g id="XMLID_98_" style="opacity:0.55;">
						<path id="XMLID_99_" style="fill:#FFFFFF;" d="M2283.724,716.622c-64.87,4.688-114.234,56.38-112.187,116.394
							c-0.156-1.432-0.317-2.862-0.422-4.311c-4.792-66.319,45.085-123.966,111.404-128.759s123.966,45.085,128.759,111.404
							c0.105,1.448,0.15,2.887,0.202,4.327C2404.877,755.992,2348.594,711.934,2283.724,716.622z"/>
					</g>
					<g id="XMLID_94_">
						<path id="XMLID_95_" style="fill:#231F20;" d="M2290.997,948.431c-30.817,0-60.271-10.94-83.811-31.306
							c-25.935-22.439-41.58-53.636-44.053-87.843c0,0,0,0,0-0.003c-5.101-70.611,48.196-132.211,118.808-137.312
							c70.619-5.182,132.213,48.191,137.317,118.805c5.101,70.614-48.196,132.214-118.808,137.315
							C2297.289,948.315,2294.134,948.431,2290.997,948.431z M2179.096,828.125c2.163,29.947,15.858,57.255,38.561,76.897
							c22.705,19.645,51.704,29.29,81.64,27.105c61.811-4.466,108.466-58.39,103.999-120.202
							c-4.467-61.809-58.406-108.475-120.201-103.999c-61.811,4.466-108.466,58.39-103.999,120.202V828.125z"/>
					</g>
					<g id="XMLID_92_">
						<path id="XMLID_93_" style="fill:#FB7792;" d="M2309.459,896.697c36.301-2.623,63.699-34.289,61.076-70.588
							c-2.623-36.299-34.29-63.698-70.59-61.075c-36.298,2.623-63.697,34.29-61.073,70.589
							C2241.495,871.923,2273.162,899.32,2309.459,896.697z"/>
					</g>
					<g id="XMLID_90_" style="opacity:0.25;">
						<path id="XMLID_91_" d="M2301.756,790.091c-34.181,2.47-60.644,28.165-61.636,58.535c-0.36-2.245-0.635-4.524-0.802-6.839
							c-2.869-39.698,24.33-74.129,60.628-76.752c36.301-2.623,68.167,27.54,71.036,67.238c0.167,2.315,0.222,4.609,0.189,6.883
							C2365.822,809.244,2335.94,787.621,2301.756,790.091z"/>
					</g>
					<g id="XMLID_86_">
						<path id="XMLID_87_" style="fill:#231F20;" d="M2304.611,904.875c-17.744,0-34.723-6.314-48.308-18.069
							c-14.964-12.946-23.989-30.919-25.411-50.607c-1.422-19.685,4.924-38.77,17.871-53.733
							c12.948-14.966,30.92-23.989,50.607-25.411c40.727-2.944,76.206,27.781,79.149,68.476
							c2.94,40.699-27.781,76.203-68.481,79.147l0,0C2308.222,904.81,2306.413,904.875,2304.611,904.875z M2304.742,772.864
							c-1.397,0-2.804,0.05-4.22,0.15c-15.423,1.116-29.508,8.189-39.658,19.923c-10.151,11.731-15.126,26.687-14.011,42.109
							c1.115,15.425,8.188,29.509,19.92,39.661c11.73,10.149,26.68,15.116,42.11,14.012l0,0
							c31.899-2.31,55.977-30.134,53.672-62.034C2360.352,796.203,2334.84,772.864,2304.742,772.864z"/>
					</g>
				</g>
			</g>
			<g id="XMLID_82_">
				<path id="XMLID_83_" style="fill:#F9F9F9;" d="M2886.872,995.419c-72.357-248.311-235.046-279.303-344.907-274.313
					c-109.438,10.856-265.981,64.916-301.886,321.05c-35.905,256.134,235.152,280.77,344.802,272.846
					C2694.53,1307.08,2959.229,1243.73,2886.872,995.419z"/>
			</g>
			<g id="XMLID_80_" style="opacity:0.25;">
				<path id="XMLID_81_" d="M2580.724,1257.479c-96.683,6.986-318.572-8.062-343.885-170.553
					c0.152,214.271,245.151,235.512,348.042,228.077s342.289-63.679,311.635-275.746
					C2894.827,1203.699,2677.407,1250.493,2580.724,1257.479z"/>
			</g>
			<g id="XMLID_76_">
				<path id="XMLID_77_" style="fill:#231F20;" d="M2550.096,1324.157c-65.332,0-192.844-11.109-267.274-90.712
					c-44.8-47.913-61.847-112.645-50.667-192.398c16.211-115.655,58.679-202.319,126.224-257.586
					c48.155-39.405,109.656-63.06,182.796-70.314c0.141-0.016,0.283-0.025,0.427-0.031c73.415-3.335,137.684,11.23,191.004,43.302
					c74.789,44.984,129.276,124.644,161.948,236.764c22.53,77.319,14.966,143.829-22.479,197.687
					c-77.625,111.641-252.376,129.642-286.619,132.114C2578.658,1323.476,2566.281,1324.157,2550.096,1324.157z M2542.542,729.09
					c-168.573,16.803-267.671,122.506-294.539,314.176c-10.476,74.734,5.173,135.04,46.51,179.249
					c68.167,72.905,198.717,91.075,289.791,84.508c91.079-6.583,217.655-43.346,274.632-125.291
					c34.551-49.694,41.366-111.626,20.254-184.075l0,0C2825.042,811.841,2711.794,721.523,2542.542,729.09z"/>
			</g>
			<g id="XMLID_63_">
				<g id="XMLID_71_">
					<g id="XMLID_74_">
						
							<ellipse id="XMLID_75_" transform="matrix(0.6698 -0.7426 0.7426 0.6698 117.2306 2387.5237)" style="fill:#3A304E;" cx="2742.951" cy="1061.957" rx="96.474" ry="138.933"/>
					</g>
					<g id="XMLID_72_">
						<path id="XMLID_73_" style="fill:#231F20;" d="M2747.607,998.515c-4.137,1.718-8.182,3.412-12.146,5.283l-5.914,2.762
							c-1.958,0.928-3.857,1.993-5.788,2.934c-1.926,0.957-3.79,2.045-5.685,3.029c-1.907,0.96-3.712,2.122-5.561,3.166
							c-1.872,1.003-3.655,2.154-5.439,3.287c-1.779,1.143-3.612,2.175-5.306,3.423l-5.168,3.559l-4.955,3.786
							c-1.709,1.18-3.182,2.636-4.777,3.938c-1.562,1.342-3.167,2.632-4.593,4.096l-4.408,4.254l-4.07,4.527l-2.041,2.254
							l-1.805,2.43l-3.695,4.797l-7.647-12.368c2.178-0.266,4.088-0.448,6.111-0.614l5.985-0.331
							c3.984-0.19,7.972-0.208,11.961-0.108c7.977,0.173,15.975,0.947,23.903,2.422c3.958,0.79,7.903,1.675,11.78,2.919
							c3.879,1.212,7.701,2.686,11.363,4.512c1.817,0.973,3.615,1.934,5.339,3.056c1.733,1.082,3.414,2.268,4.939,3.648
							c1.559,1.315,3.002,2.775,4.305,4.309c1.276,1.578,2.391,3.245,3.31,4.986l-2.351-1.744c-0.795-0.545-1.641-1.02-2.438-1.518
							c-1.659-0.928-3.298-1.811-5.044-2.489c-0.84-0.384-1.726-0.684-2.608-0.977c-0.865-0.322-1.717-0.648-2.618-0.889
							c-1.75-0.564-3.561-0.971-5.346-1.382c-1.832-0.316-3.61-0.716-5.445-0.967c-1.808-0.302-3.66-0.479-5.482-0.707
							c-3.669-0.377-7.371-0.597-11.073-0.714c-7.411-0.251-14.867-0.052-22.32,0.349c-3.726,0.214-7.451,0.505-11.167,0.812
							l-5.555,0.566c-1.819,0.181-3.747,0.397-5.396,0.625l-0.313,0.044c-4.274,0.592-8.219-2.393-8.811-6.668
							c-0.293-2.111,0.3-4.159,1.477-5.744l4.242-5.686l2.172-2.803l2.4-2.594c1.615-1.711,3.171-3.487,4.856-5.121l5.27-4.647
							c1.705-1.613,3.633-2.927,5.509-4.304c1.906-1.33,3.697-2.833,5.703-3.991l5.926-3.595c2-1.14,4.077-2.136,6.119-3.18
							c2.029-1.07,4.127-1.984,6.241-2.856c2.104-0.889,4.196-1.787,6.353-2.519c2.163-0.717,4.272-1.546,6.458-2.158
							c2.182-0.62,4.349-1.263,6.54-1.806c2.208-0.5,4.407-0.995,6.621-1.41c2.232-0.357,4.405-0.87,6.656-1.088
							C2738.632,998.73,2743.123,998.375,2747.607,998.515z"/>
					</g>
				</g>
				<g id="XMLID_64_">
					<g id="XMLID_69_">
						
							<ellipse id="XMLID_70_" transform="matrix(0.6386 -0.7696 0.7696 0.6386 28.0353 2233.9175)" style="fill:#3A304E;" cx="2392.237" cy="1087.113" rx="138.673" ry="96.294"/>
					</g>
					<g id="XMLID_67_">
						
							<ellipse id="XMLID_68_" transform="matrix(0.9974 -0.0721 0.0721 0.9974 -69.6201 177.6709)" style="fill:#051031;" cx="2426.969" cy="1053.479" rx="46.912" ry="58.017"/>
					</g>
					<g id="XMLID_65_">
						
							<ellipse id="XMLID_66_" transform="matrix(0.9499 -0.3124 0.3124 0.9499 -198.9028 812.6147)" style="fill:#F9F9F9;" cx="2436.591" cy="1027.052" rx="13.428" ry="13.428"/>
					</g>
				</g>
			</g>
			<g id="XMLID_42_">
				<g id="XMLID_61_">
					<path id="XMLID_62_" style="fill:#051031;" d="M2618.831,1177.774c0,0,0.022,4.748-0.827,11.644
						c-0.178,1.521-0.412,3.175-0.705,4.897c-0.132,0.844-0.292,1.722-0.451,2.632c-0.514,2.669-1.143,5.506-1.964,8.357
						c-1.86,6.681-4.599,13.617-8.695,19.561c-5.806,8.474-14.29,14.96-26.676,15.855c-20.942,1.513-33.13-14.389-39.981-29.714
						c-1.261-2.797-2.329-5.576-3.259-8.236c-0.287-0.878-0.573-1.724-0.824-2.539c-0.539-1.662-1.007-3.265-1.402-4.744
						c-1.832-6.703-2.493-11.404-2.493-11.404s15.74-20.199,42.31-21.541C2600.35,1160.048,2618.831,1177.774,2618.831,1177.774z"/>
				</g>
				<g id="XMLID_59_">
					<path id="XMLID_60_" style="fill:#F44747;" d="M2614.169,1207.634c-1.817,5.939-4.366,11.964-7.996,17.232
						c-5.806,8.474-14.29,14.959-26.676,15.854c-20.048,1.449-32.071-13.053-39.036-27.729c6.178-13.538,19.395-23.35,35.262-24.497
						C2591.621,1187.346,2606.08,1195.158,2614.169,1207.634z"/>
				</g>
				<g id="XMLID_55_">
					<path id="XMLID_56_" style="fill:#231F20;" d="M2576.767,1248.82c-21.372,0.003-38.35-15.297-48.049-43.456
						c-0.317-0.919-0.619-1.832-0.902-2.722c-0.561-1.76-1.056-3.46-1.489-5.051c-1.938-7.114-2.657-12.193-2.687-12.406
						c-0.299-2.144,0.283-4.316,1.611-6.023c0.733-0.941,18.252-23.014,48.035-24.596c29.677-2.716,50.212,16.606,51.073,17.435
						c1.561,1.497,2.449,3.566,2.461,5.729c0.001,0.213,0.019,5.345-0.875,12.662c-0.203,1.647-0.447,3.394-0.75,5.226
						c-0.149,0.906-0.316,1.85-0.497,2.807c-5.839,30.766-21.681,48.619-44.607,50.273
						C2578.972,1248.779,2577.863,1248.82,2576.767,1248.82z M2540.136,1186.538c0.363,1.785,0.896,4.145,1.632,6.848
						c0.377,1.388,0.81,2.863,1.3,4.404c0.247,0.778,0.505,1.56,0.778,2.354c5.387,15.641,15.786,33.954,35.09,32.594
						c19.243-1.391,26.957-21.048,30.041-37.295c0.156-0.825,0.299-1.638,0.43-2.432c0.267-1.613,0.48-3.141,0.656-4.57
						c0.339-2.779,0.525-5.185,0.628-7.005c-5.431-4.085-18.962-12.527-36.076-10.921c-0.117,0.009-0.233,0.019-0.35,0.025
						C2557.096,1171.404,2544.94,1181.697,2540.136,1186.538z"/>
				</g>
				<g id="XMLID_53_">
					<path id="XMLID_54_" style="fill:#F9F9F9;" d="M2509.008,1156.877c1.279,17.704,16.668,31.019,34.372,29.74
						c17.704-1.279,31.019-16.669,29.739-34.373L2509.008,1156.877z"/>
				</g>
				<g id="XMLID_51_" style="opacity:0.25;">
					<path id="XMLID_52_" d="M2542.222,1170.589c-13.552,0.979-25.593-4.833-30.962-13.874l-2.252,0.163
						c1.279,17.704,16.668,31.019,34.372,29.74c17.704-1.279,31.019-16.669,29.739-34.373l-2.252,0.163
						C2566.854,1162.126,2555.773,1169.609,2542.222,1170.589z"/>
				</g>
				<g id="XMLID_49_">
					<path id="XMLID_50_" style="fill:#231F20;" d="M2541.038,1194.703c-20.832,0-38.488-16.153-40.013-37.248
						c-0.319-4.41,2.996-8.239,7.405-8.558c4.399-0.341,8.238,2.998,8.558,7.401c0.96,13.275,12.509,23.252,25.816,22.339
						c6.431-0.466,12.295-3.407,16.514-8.283c4.218-4.876,6.286-11.102,5.82-17.532c-0.319-4.41,2.996-8.239,7.405-8.558
						c4.392-0.341,8.239,2.997,8.558,7.401c0.772,10.696-2.665,21.051-9.68,29.159c-7.017,8.108-16.769,12.999-27.463,13.771
						C2542.979,1194.668,2542.004,1194.703,2541.038,1194.703z"/>
				</g>
				<g id="XMLID_47_">
					<path id="XMLID_48_" style="fill:#F9F9F9;" d="M2569.939,1108.238l3.18,44.006c1.279,17.704,16.669,31.019,34.374,29.74
						s31.019-16.669,29.739-34.372L2569.939,1108.238z"/>
				</g>
				<g id="XMLID_45_" style="opacity:0.25;">
					<path id="XMLID_46_" d="M2606.335,1165.956c-17.704,1.279-32.876-9.011-33.885-22.985l0.67,9.273
						c1.279,17.704,16.669,31.019,34.374,29.74s31.019-16.669,29.739-34.372l-1.793-1.049
						C2631.878,1156.867,2620.445,1164.936,2606.335,1165.956z"/>
				</g>
				<g id="XMLID_43_">
					<path id="XMLID_44_" style="fill:#231F20;" d="M2605.149,1190.071c-20.831,0.003-38.486-16.153-40.011-37.248l-3.18-44.006
						c-0.319-4.41,2.997-8.239,7.405-8.558c4.379-0.334,8.239,2.994,8.558,7.402l3.18,44.006
						c0.958,13.275,12.524,23.233,25.814,22.339c6.431-0.466,12.296-3.407,16.514-8.283s6.286-11.102,5.822-17.535
						c-0.317-4.407,2.998-8.239,7.405-8.555c4.442-0.338,8.239,2.998,8.558,7.405c0.772,10.693-2.666,21.048-9.682,29.156
						c-7.015,8.108-16.769,13-27.463,13.771C2607.091,1190.036,2606.115,1190.071,2605.149,1190.071z"/>
				</g>
			</g>
			<g id="XMLID_40_">
				<path id="XMLID_41_" style="fill:#051031;" d="M2608.684,1104.453c1.535,21.246-14.598,39.725-36.035,41.274
					c-21.437,1.549-40.06-14.418-41.595-35.664C2529.518,1088.816,2607.149,1083.207,2608.684,1104.453z"/>
			</g>
			<g id="XMLID_38_">
				<path id="XMLID_39_" style="fill:#FFFFFF;" d="M2580.125,1100.241c0.18,2.498-4.467,4.869-10.381,5.296
					s-10.854-1.251-11.034-3.749c-0.18-2.498,4.467-4.869,10.381-5.296C2575.005,1096.065,2579.945,1097.743,2580.125,1100.241z"/>
			</g>
		</g>
	</g>
	<g id="XMLID_5_">
		<g id="XMLID_34_">
			<path id="XMLID_35_" style="fill:#F9F9F9;" d="M2685.933,742.166c0,0-97.742,86.731-269.182,104.49l-0.023,0
				c-33.391,3.495-69.58,4.336-108.382,1.419l5.774-32.444l14.61-82.157l14.961-84.065l17.603-98.943l28.87-162.268l59.521,71.232
				l47.484,56.842l45.443,54.375l45.443,54.398l47.438,56.75L2685.933,742.166z"/>
		</g>
		<g id="XMLID_27_">
			<g id="XMLID_32_">
				<path id="XMLID_33_" style="fill:#2382F9;" d="M2685.933,742.166c0,0-97.742,86.731-269.182,104.49
					c136.017-51.976,218.741-164.86,218.741-164.86L2685.933,742.166z"/>
			</g>
			<g id="XMLID_30_">
				<path id="XMLID_31_" style="fill:#2382F9;" d="M2588.053,625.045c-24.962,33.149-117.063,142.786-273.934,190.586l14.61-82.157
					c123.013-49.988,192.311-133.463,213.881-162.826L2588.053,625.045z"/>
			</g>
			<g id="XMLID_28_">
				<path id="XMLID_29_" style="fill:#2382F9;" d="M2497.167,516.273c-18.021,27.119-62.761,82.366-153.477,133.136l17.603-98.943
					c54.061-40.222,78.751-74.706,88.391-91.036L2497.167,516.273z"/>
			</g>
		</g>
		<g id="XMLID_25_" style="opacity:0.55;">
			<path id="XMLID_26_" style="fill:#FFFFFF;" d="M2314.113,817.712l14.596-77.141l14.946-78.932l17.585-92.901l28.842-152.359
				l59.533,66.895l47.493,53.381l45.453,51.064l45.452,51.086l47.448,53.295l47.08,52.905c2.247-1.825,3.391-2.839,3.391-2.839
				l-50.441-60.37l-47.438-56.75l-45.443-54.398l-45.443-54.375l-47.484-56.842l-59.521-71.232l-28.87,162.268l-17.603,98.943
				l-14.961,84.065l-14.61,82.157l-5.774,32.444c0.006,0.001,0.012,0.001,0.019,0.001L2314.113,817.712z"/>
		</g>
		<g id="XMLID_23_" style="opacity:0.25;">
			<path id="XMLID_24_" d="M2542.587,792.609c-100.393,33.646-200.063-53.083-181.453-157.316v0l16.707-93.58l24.753-138.638
				l-12.431-14.877l-28.87,162.268l-17.603,98.943l-14.961,84.065l-14.61,82.157l-5.774,32.444
				c38.802,2.916,74.992,2.075,108.382-1.419l0.023,0c171.44-17.759,269.182-104.49,269.182-104.49l-9.577-11.462
				C2662.025,741.491,2610.548,769.833,2542.587,792.609z"/>
		</g>
		<g id="XMLID_19_">
			<path id="XMLID_20_" style="fill:#231F20;" d="M2354.605,857.825c-15.153,0-30.78-0.56-46.859-1.769
				c-2.257-0.172-4.335-1.288-5.721-3.076c-1.388-1.788-1.952-4.079-1.557-6.304l81.817-459.877
				c0.545-3.063,2.814-5.532,5.822-6.332c3.013-0.794,6.204,0.216,8.197,2.604l295.771,353.968
				c2.774,3.319,2.407,8.242-0.828,11.115c-1.463,1.297-36.561,32.113-101.586,61.003
				C2537.559,832.301,2456.899,857.825,2354.605,857.825z M2317.785,840.7c199.808,12.19,328.257-77.403,356.81-99.623
				l-279.563-334.571L2317.785,840.7z"/>
		</g>
		<g id="XMLID_17_">
			
				<ellipse id="XMLID_18_" transform="matrix(0.7071 -0.7071 0.7071 0.7071 437.4978 1790.569)" style="fill:#2382F9;" cx="2380.157" cy="367.178" rx="58.376" ry="58.376"/>
		</g>
		<g id="XMLID_12_" style="opacity:0.55;">
			<g id="XMLID_15_">
				<path id="XMLID_16_" style="fill:#FFFFFF;" d="M2380.322,308.802c-32.24-0.091-58.449,25.971-58.541,58.211
					c-0.005,1.684,0.078,3.347,0.213,4.995c2.607-25.18,27.726-47.189,58.282-47.103c30.556,0.086,55.55,22.237,58.015,47.431
					c0.144-1.648,0.237-3.31,0.241-4.994C2438.624,335.103,2412.562,308.893,2380.322,308.802z"/>
			</g>
			<g id="XMLID_13_">
				
					<ellipse id="XMLID_14_" transform="matrix(0.9987 -0.0515 0.0515 0.9987 -14.8498 121.8095)" style="fill:#FFFFFF;" cx="2357.346" cy="349.193" rx="11.162" ry="11.162"/>
			</g>
		</g>
		<g id="XMLID_10_" style="opacity:0.25;">
			<path id="XMLID_11_" d="M2380.068,398.81c-29.679-0.084-54.12-17.233-57.763-39.346c-0.327,2.473-0.516,4.989-0.524,7.549
				c-0.091,32.24,25.971,58.449,58.211,58.54s58.449-25.971,58.541-58.211c0.007-2.561-0.168-5.078-0.481-7.552
				C2434.284,381.883,2409.747,398.894,2380.068,398.81z"/>
		</g>
		<g id="XMLID_6_">
			<path id="XMLID_7_" style="fill:#231F20;" d="M2380.16,433.555c-0.064,0-0.126,0-0.191,0
				c-36.601-0.103-66.293-29.962-66.19-66.563c0.05-17.732,7.001-34.382,19.574-46.881c12.526-12.456,29.14-19.31,46.798-19.31
				c0.064,0,0.127,0,0.191,0c17.73,0.05,34.38,7.001,46.883,19.576c12.501,12.571,19.359,29.259,19.309,46.988l-8.002-0.022
				l8.002,0.022c-0.05,17.732-7.001,34.382-19.574,46.881C2414.434,426.701,2397.819,433.555,2380.16,433.555z M2380.152,316.803
				c-13.401,0-26.008,5.201-35.515,14.653c-9.541,9.489-14.817,22.123-14.854,35.579c-0.078,27.777,22.456,50.438,50.23,50.517
				c13.558,0.1,26.123-5.167,35.664-14.653c9.541-9.489,14.817-22.123,14.854-35.579c0.038-13.456-5.167-26.121-14.655-35.66
				c-9.488-9.542-22.123-14.819-35.577-14.856C2380.251,316.803,2380.201,316.803,2380.152,316.803z"/>
		</g>
	</g>
</g>
</svg>
