<?xml version="1.0" encoding="utf-8"?>
<!-- Generator: Adobe Illustrator 27.5.0, SVG Export Plug-In . SVG Version: 6.00 Build 0)  -->
<svg version="1.1" id="Layer_1" xmlns="http://www.w3.org/2000/svg" xmlns:xlink="http://www.w3.org/1999/xlink" x="0px" y="0px"
	 viewBox="0 0 5760 7200" style="enable-background:new 0 0 5760 7200;" xml:space="preserve">
<path style="fill:#1B1919;" d="M2057.782,4525.991c-1.63-2.331-2.868-5.109-4.946-6.928
	c-87.447-76.548-175.08-152.879-269.638-220.741c-10.7-7.68-21.824-14.767-34.286-23.163c4.296,27.153-2.294,51.479-7.912,75.505
	c-37.199,159.067-170.334,280.796-332.709,305.225c-220.99,33.247-424.963-116.176-460.699-337.922
	c-9.936-61.651-4.573-122.479,13.901-182.071c2.378-7.67,2.793-18.692,18.147-16.469c-42.419,127.337-29.78,248.122,46.3,359.528
	c54.717,80.124,130.267,133.293,224.313,156.5c120.332,29.693,232.479,8.35,332.153-66.357
	c98.485-73.817,148.135-175.139,158.024-299.343c0.887,1.125-0.123-1.032-1.818-2.182
	c-100.937-68.55-208.076-123.975-326.848-155.063c-98.455-25.77-198.356-33.023-299.362-22.618
	c-241.349,24.864-459.797,110.901-657.904,249.601c-66.421,46.503-124.913,102.021-176.145,164.979
	c-5.025,6.175-11.582,11.557-13.476,20.687c9.824,1.288,17.909,6.385,26.019,11.259c150.571,90.468,242.545,222.083,268.061,395.758
	c41.537,282.724-144.146,548.384-422.894,610.27c-40.596,9.013-81.833,12.24-123.342,12.363c-3.045,0.009-5.836-0.003-8.281,1.999
	c0-5.924,0-11.848,0-17.772c4.612,5.449,10.938,3.433,16.519,3.324c43.783-0.853,87.046-5.857,129.558-16.737
	C406.923,5460,591.162,5208.701,544.54,4923.784c-27.434-167.652-119-293.631-265.729-379.348
	c-7.061-4.125-14.304-7.8-18.876-17.295c-12.077,17.516-22.912,32.481-32.975,47.948c-51.961,79.874-89.046,166.83-119.843,256.505
	c-30.475,88.736-59.234,178.063-88.798,267.113c-3.229,9.725-5.309,20.102-13.875,27.127c0-14.81,0-29.62,0-44.43
	c9.463,1.833,7.991-6.431,9.523-11.021c14.739-44.153,29.276-88.375,43.648-132.65c24.87-76.617,50.863-152.771,82.403-227.019
	c68.411-161.047,175.234-290.7,318.463-390.313c172.604-120.043,363.517-196.765,570.153-233.431
	c235.567-41.8,454.092,5.083,656.979,130.543c99.807,61.718,192.104,133.275,280.923,209.516
	c86.523,74.269,171.88,149.901,258.654,223.873c89.666,76.436,183.359,147.519,286.15,205.817
	c86.702,49.172,177.9,86.844,275.921,106.745c27.538,5.59,55.34,9.897,82.83,15.701c24.759,5.226,48.43,13.784,68.581,29.708
	c5.52,4.362,11.552,6.502,17.993,7.896c40.729,8.808,57.971,71.654,26.155,100.494c-6.709,6.082-9.164,12.291-8.99,21.144
	c3.025,154.048-40.013,296.396-111.006,431.353c-65.319,124.169-147.631,235.56-251.902,330.086
	c-50.144,45.458-105.239,83.838-165.571,114.622c-7.232,3.69-14.539,7.236-21.729,11.007c-1.23,0.646-2.042,2.089-4.051,4.238
	c14.248,41.013,28.484,82.757,40.277,125.286c29.541,106.532,47.896,214.919,56.721,325.099
	c9.066,113.189,7.614,226.266-1.643,339.284c-3.622,44.223-8.483,88.372-15.513,132.241c-1.443,9.002-3.794,18.226-1.361,28.353
	c8.965-3.91,9.686-12.104,12.774-18.298c29.083-58.325,61.344-114.796,97.97-168.72c5.004-7.367,8.378-18.347,21.573-14.772
	c5.315,10.165-0.15,18.836-3.477,27.521c-28.6,74.656-51.619,150.992-69.348,228.931c-1.64,7.212-3.088,14.476-4.305,21.769
	c-0.176,1.05,1.458,2.401,4.351,6.805c11.211-23.013,21.332-44.538,32.121-65.723c10.733-21.078,21.67-42.081,33.373-62.629
	c12.074-21.2,24.845-42.024,37.928-62.621c13.088-20.604,26.696-40.889,40.524-61.006c13.412-19.512,27.138-38.818,41.193-57.871
	c14.252-19.319,27.698-39.406,43.637-56.198c12.228,5.902,9.226,12.117,6.108,18.277c-7.678,15.173-15.438,30.306-23.109,45.482
	c-35.723,70.678-66.623,143.434-92.932,218.098c-3.961,11.241-13.034,21.543-9.039,35.277c8.837-4.384,11.507-13.285,15.705-20.749
	c23.267-41.359,49.461-80.737,78.967-117.898c5.399-6.8,10.147-14.675,19.538-16.187c7.667,2.97,8.388,8.489,6.435,14.719
	c-2.204,7.03-4.614,14.023-7.42,20.833c-39.17,95.041-73.372,191.857-103.498,290.113c-1.457,4.753-6.257,9.924-1.605,15.595
	c-4.444,0-8.889,0-13.333,0c-0.503-7.755,1.06-14.986,3.353-22.525c25.605-84.175,55.094-166.974,86.976-248.95
	c2.237-5.752,6.755-11.227,4.003-18.854c-9.631,2.14-12.062,10.826-16.349,16.983c-51.485,73.949-90.681,153.961-118.243,239.776
	c-2.496,7.771-0.833,20.249-14.944,21.684c-5.641-8.33-1.429-15.854,0.375-23.417c29.415-123.353,71.4-242.32,124.684-357.349
	c2.796-6.037,5.402-12.163,7.979-18.297c0.142-0.336-0.808-1.132-1.467-1.999c-5.729-1.942-7.097,3.635-9.161,6.54
	c-79.13,111.415-148.712,227.874-189.298,359.582c-3.305,10.726-3.514,10.662-13.02,18.625c-9.281-5.833-5.133-14.284-4.05-21.925
	c13.31-93.942,35.846-185.7,65.294-275.836c3.127-9.573,8.395-18.706,8.033-29.247c-6.858-2.755-7.769,3.052-9.689,6.185
	c-39.497,64.411-74.222,131.295-102.219,201.5c-9.331,23.397-10.737,49.01-17.46,73.215c-5.735,20.644-11.507,41.282-16.854,62.027
	c-2.12,8.228-6,10.93-15.173,6.787c12.171-39.875,22.545-79.772,30.365-120.221c34.392-177.902,51.353-357.096,41.935-538.538
	c-9.074-174.819-40.749-344.856-102.92-508.757c-88.771-234.027-230.397-430.55-421.671-591.637
	c-2.83-2.384-5.638-4.802-8.587-7.031c-1.133-0.857-2.631-1.23-4.273-1.962c-8.929,1.654-15.263,8.329-22.435,13.281
	c-134.53,92.893-269.264,185.458-409.53,269.653c-163.196,97.957-331.784,184.768-511.451,248.905
	c-126.412,45.127-256.026,77.013-389.112,94.578c-20.526,2.709-41.218,4.203-61.852,6.049c-9.555,0.854-19.191,0.98-29.669,4.692
	c-48.509,112.256-124.997,208.193-191.414,310.373c-68.716,105.715-128.814,215.78-169.954,335.445
	c-39.885,116.015-59.173,234.991-50.609,357.817c2.982,42.77,10.232,84.94,21.314,126.625c-10.587,6.841-13.198,0.042-15.162-7.684
	c-7.114-27.983-12.195-56.344-15.644-85.003c-7.733-64.258-6.706-128.517,0.54-192.709c1.202-10.648,0.03-20.127-4.174-30.088
	c-15.745-37.301-32.228-74.212-52.699-109.676c22.944,141.24,40.157,282.874,46.295,425.404c-6.138,4.478-11.956,2.811-19.71,1.889
	c-17.478-61.052-33.084-123.542-56.221-184.259c-7.766,4.533-4.677,8.963-4.111,12.86c7.117,49.073,13.899,98.184,15.159,147.848
	c0.215,8.493,2.633,18.062-7.95,23.852c-9.451-1.273-12.249-9.083-15.273-16.552c-4.436-10.959-8.791-21.951-13.041-32.983
	c-1.646-4.272-3.361-8.257-8.652-8.879c0-11.848,0-23.696,0-35.544c9.252,2.066,9.129,10.956,11.964,17.286
	c5.892,13.157,10.806,26.752,16.122,40.167c2.598-3.559,2.991-6.35,2.828-9.107c-3.466-58.44-12.121-116.199-23.031-173.654
	c-0.966-5.087-2.302-10.16-7.882-12.425c0-23.696,0-47.392,0-71.088c6.875,6.045,10.065,14.202,13.288,22.463
	c27.135,69.557,51.135,140.162,71.464,212.012c1.71,6.043,1.954,12.932,8.431,18.016c1.099-32.05-3.136-62.873-6.048-93.652
	c-9.472-100.145-22.663-199.815-41.837-298.632c-1.498-7.722-3.808-16.008,2.065-23.858c13.065-3.956,16.22,6.902,20.47,14.8
	c17.514,32.544,33.201,65.987,48.201,99.762c2.104,4.738,2.39,11.861,11.835,11.882c28.027-152.928,90.727-292.18,169.871-424.017
	c-5.706-5.858-11.204-4.234-16.145-4.453c-75.464-3.357-150.464-11.095-225.25-21.752c-18.587-2.648-37.016-9.546-56.346-5.744
	c0-4.443,0-8.886,0-13.329c4.819-5.273,12.488,2.702,17.828-4.031c-5.973-11.967-6.831-26.343-17.828-35.956
	c0-13.329,0-26.658,0-39.987c6.619,4.567,7.978,11.924,10.649,18.841c8.209,21.263,14.239,43.447,25.748,63.932
	c86.8,13.198,173.661,23.264,265.629,25.337c-68.918-119.014-106.906-244.53-124.807-376.211
	c-35.431-7.271-68.244-15.796-100.932-24.874c-25.553-7.097-50.061-17.706-76.288-22.479c0-4.443,0-8.886,0-13.329
	c9.936-0.346,18.6,4.247,27.619,7.292c135.148,45.647,274.348,67.535,416.678,66.863c160.085-0.754,316.559-27.075,469.988-72.605
	c166.656-49.457,324.079-120.339,476.336-203.327c163.938-89.355,319.543-191.982,473.045-297.924
	c96.815-66.818,193.078-134.495,296.456-191.136c188.999-103.554,391.07-158.615,606.7-163.061
	c41.47-0.856,82.933,0.141,124.382,2.103c20.73,0.981,41.543,0.679,61.069-8.06c22.113-9.896,32.27-27.251,29.106-49.35
	c-3.589-25.072-18.726-39.643-44.011-42.087c-5.884-0.568-11.838-0.792-17.747-0.658c-113.365,2.578-226.172,11.049-337.51,33.681
	c-215.674,43.839-414.848,127.06-597.484,250.036c-91.533,61.633-179.332,128.368-267.997,193.918
	c-126.976,93.874-259.684,178.439-401.464,248.273c-237.829,117.144-486.955,198.27-750.391,232.961
	c-69.212,9.114-138.896,10.52-208.41,5.036c-85.721-6.762-169.589-24.828-253.005-45.24c-34.381-8.414-68.122-19.652-103.36-24.474
	c0-4.443,0-8.886,0-13.329c5.261-0.616,10.178,0.775,15.239,2.068c84.403,21.559,168.742,43.227,254.843,57.488
	c82.952,13.739,166.208,15.664,249.828,10.302c16.054-1.029,32.014-3.523,47.819-5.318c2.651-13.275-0.733-24.719-2.807-36.299
	c-44.817-250.223-342.781-364.27-543.35-207.992c-6.957,5.42-14.371,10.253-21.572,15.36c0-7.405,0-14.81,0-22.215
	c8.193,7.41,11.548-2.19,15.716-5.276c40.956-30.331,85.801-52.018,135.673-63.108c209.385-46.561,396.946,96.336,427.283,287.024
	c1.502,9.442,3.043,18.879,5.03,31.194c252.932-37.658,492.485-115.199,722.548-227.965c-41.7-99.985-45.598-200.337-7.532-300.847
	c30.844-81.442,84.21-145.443,157.633-192.311c145.659-92.977,353.569-85.327,498.054,62.838
	c8.637-0.446,14.306-6.963,20.841-11.371c172.24-116.168,359.338-197.94,562.064-244.02
	c106.421-24.189,214.167-37.176,323.129-41.063c15.91-0.567,31.793-1.891,52.409-3.154c-11.832-10.527-22.144-13.125-32.107-16.384
	c-31.074-10.164-63.604-13.228-95.472-19.505c-81.751-16.103-159.177-44.457-233.509-81.702c-3.938-1.974-7.945-3.812-12.692-6.083
	c-7.77,18.711-21.998,32.006-36.386,44.827c-91.183,81.242-196.421,105.29-311.323,65.533
	c-114.191-39.51-182.6-123.395-203.306-242.368c-13.562-77.925,3.123-151.579,47.22-218.092c3.675-5.542,5.566-14.792,15.961-11.998
	c5.677,9.619-2.941,14.998-6.89,21.277c-44.734,71.143-58.874,147.761-39.299,229.501
	c32.153,134.262,153.813,231.726,298.385,226.413c84.59-3.108,155.441-38.09,211.84-101.61c5.223-5.882,9.225-13.405,18.464-14.26
	c-3.594-6.01-9.716-7.506-14.794-10.273c-55.257-30.102-107.867-64.318-158.851-101.13
	c-94.889-68.513-182.955-145.311-270.949-222.221C2082.027,4544.967,2071.975,4532.888,2057.782,4525.991z M2850.809,5562.914
	c71.808-133.769,113.345-275.159,109.804-429.874c-44.82,12.938-88.606,3.345-131.426,5.723c-1.915,5.74,0.736,9.764,1.908,13.904
	c23.574,83.3,31.279,168.345,29.041,254.617c-1.325,51.075-7.646,101.667-13.07,152.364c-2.009,3.019-2.814,6.125-0.263,10.244
	C2848.3,5567.285,2849.554,5565.1,2850.809,5562.914z M1322.512,5734.207c6.207,0.59,9.138-1.873,12.409-3.533
	c104.359-52.988,204.81-112.616,300.037-180.605c103.575-73.951,205.995-149.518,308.881-224.432
	c1.036-0.754,1.567-2.202,2.328-3.331c-100.806-117.12-305.521-169.078-475.483-63.26
	C1297.751,5366.715,1249.859,5578.043,1322.512,5734.207z M2413.958,6015.128c64.395-29.878,120.885-67.295,173.124-111.455
	c7.549-6.382,10.074-14.265,11.999-22.864c24.467-109.261,40.463-219.539,40.957-331.799
	c0.555-126.158-17.755-249.021-62.537-367.397c-3.047-8.054-4.097-17.409-12.212-23.255c-83.41,15.806-164.946,38.06-243.575,70.322
	c1.2,3.912,1.713,6.089,2.522,8.148c45.014,114.486,69.446,233.631,79.302,355.869c9.37,116.205,4.529,232.116-10.215,347.675
	c-1.024,8.029-3.704,16.164-0.512,24.11C2399.393,5980.865,2406.391,5997.079,2413.958,6015.128z M2614.547,5873.227
	c10.961-1.586,15.321-9.018,20.832-14.467c68.213-67.449,125.809-143.217,176.146-224.708c8.294-13.427,14.272-27.096,15.961-43.094
	c2.246-21.274,6.535-42.325,9.474-63.536c13.887-100.212,15.538-200.412-2.305-300.326c-5.413-30.311-11.257-60.72-23.745-90.541
	c-76.606,1.362-152.221,4.735-228.671,19.436C2675.396,5392.048,2666.858,5631.293,2614.547,5873.227z M2089.545,5346.937
	c8.131,59.283,15.772,116.409,18.366,174.043c0.527,11.714,5.607,20.528,13.667,29.111
	c101.018,107.558,183.333,227.983,247.21,361.002c2.365,4.925,3.321,11.186,13.026,14.432
	c27.784-236.622,14.915-467.124-72.987-691.797C2230.821,5264.728,2159.765,5303.514,2089.545,5346.937z M446.576,6065.008
	c-84.785,0.976-166.767-7.42-250.748-22.058c17.868,130.383,55.624,250.949,120.362,362.74c5.55-2.488,7.001-6.824,9.394-10.394
	c30.848-46.015,61.778-91.975,92.542-138.046c16.815-25.182,33.393-50.522,49.984-75.852c3.586-5.475,6.673-10.452,4.458-18.261
	C463.538,6131.302,455.526,6099.178,446.576,6065.008z M2076.954,5354.145c-33.935,22.279-64.272,42.196-96.356,63.261
	c39.849,32.705,75.39,66.148,113.864,103.07C2091.833,5462.553,2085.121,5410.41,2076.954,5354.145z M530.11,6065.897
	c-23.747,0-45.404,0-69.23,0c8.09,30.188,12.791,58.231,24.039,87.638C502.516,6123.744,517.99,6096.387,530.11,6065.897z"/>
<path style="fill:#1B1919;" d="M5438.59,5661.407c24.124,49.862,50.521,98.63,71.986,149.771
	c17.42,41.508,35.67,82.644,46.766,126.555c30.615,121.163-51.051,226.512-176.143,227.262
	c-81.465,0.488-141.815-39.46-191.043-99.651c-45.292-55.377-65.976-121.016-75.168-190.906c-1.016-7.723-2.241-15.424-3.707-23.071
	c-0.183-0.955-2.454-1.509-3.758-2.248c-44.25,82.915-72.724,568.198-42.368,722.094c1.615-0.432,4.289-0.43,4.687-1.382
	c24.463-58.395,67.084-102.788,112.861-144.282c54.119-49.056,113.064-91.79,177.463-126.505
	c33.76-18.197,68.966-32.389,108.494-32.06c50.95,0.424,87.365,27.217,101.908,76.277c11.445,38.609,6.04,75.509-12.876,110.577
	c-21.883,40.568-53.187,73.172-91.291,98.072c-82.443,53.875-170.889,95.133-266.771,119.335
	c-18.507,4.672-37.364,7.318-56.444,8.187c-24.955,1.137-47.244-6.973-71.106-23.883c21.095,183.284,58.889,358.596,108.777,532.137
	c-12.776,6.35-19.582,3.93-23.144-9.939c-10.982-42.755-23.443-85.138-34.044-127.983c-29.31-118.464-52.252-238.214-67.505-359.281
	c-22.149-175.805-29.473-352.137-16.725-529.163c8.531-118.476,23.723-236.003,53.103-351.053
	c13.366-52.337,21.4-104.818,25.873-158.308c1.726-20.638,6.15-41.045,9.089-61.593c1.135-7.937,1.563-15.975-0.094-24.616
	c-13.162,22.199-28.134,43.04-32.571,68.9c-18.43,107.392-38.325,214.461-50.904,322.882
	c-22.248,191.75-25.677,383.729-14.499,576.156c9.502,163.564,32.699,325.3,68.061,485.238
	c12.493,56.502,27.017,112.557,40.777,169.491c-14.022,6.804-19.268,0.44-22.862-13c-23.693-88.618-44.104-177.961-60.47-268.214
	c-16.206-89.369-28.584-179.277-37.212-269.698c-0.143-1.494-1.464-2.875-2.612-5.008c-8.691-1.651-13.292,6.114-19.503,9.803
	c-117.809,69.975-238.704,76.148-362.052,16.358c-42.983-20.834-77.78-52.02-101.403-94.155
	c-28.463-50.771-29.545-100.395,8.373-147.61c1.058-1.317,2.048-2.728,2.807-4.229c0.349-0.691,0.06-1.705,0.054-2.557
	c-1.51-3.684-4.76-4.683-8.212-4.989c-93.585-8.323-181.405-36.166-265.098-78.068c-4.572-2.289-9.475-3.92-14.222-5.854
	c-2.49-2.124-5.197-4.415-8.068-0.938c-2.915,3.531,0.74,5.656,2.37,8.145c41.631,65.941,81.961,132.638,116.325,202.734
	c15.253,31.113,28.983,62.745,35.316,97.249c12.96,70.619-11.182,126.583-68.154,167.822
	c-62.669,45.362-131.164,51.495-202.03,21.287c-67.444-28.75-115.098-78.992-148.184-143.499
	c-17.833-34.768-30.303-71.536-37.645-110.007c-1.414-7.412-1.379-15.677-8.204-21.021c-8.77,2.036-6.064,9.487-6.699,14.722
	c-10.631,87.706-14.934,175.712-15.455,264.095c-0.733,124.237,12.565,247.29,26.906,370.339c0.118,1.012,2.707,1.736,4.142,2.595
	c-8.675,0-17.35,0-26.025,0c5.41-10.413,1.363-18.746-6.533-31.235c-3.414,13.739-4.397,22.564,1.328,31.235
	c-8.675,0-17.35,0-26.025,0c6.357-1.776,3.729-6.323,3.224-10.282c-16.191-127.07-27.46-254.465-29.557-382.683
	c-2.036-124.531,1.912-248.727,14.202-372.663c0.245-2.472-0.792-5.069-1.232-7.609c4.121-5.851,3.232-11.631,0.72-20.944
	c-4.456,5.902-7.112,8.741-6.798,13.351c-26.417,66.823-52.864,133.634-79.234,200.475c-9.54,24.182-19.02,48.4-31.505,71.253
	c-14.7,26.905-32.877,51.159-58.061,69.145c-44.3,31.636-91.168,35.121-139.361,9.778c-54.395-28.605-80.599-76.704-90.217-135.253
	c-9.522-57.972,1.349-113.966,19.308-168.745c27.215-83.013,73.77-154.439,133.959-217.229
	c18.969-19.789,38.715-38.834,61.338-61.452c-28.168,0.072-50.762,5.801-73.115,10.966
	c-68.982,15.941-137.449,34.165-206.581,49.395c-61.228,13.488-123.248,20.563-185.521,5.677
	c-77.37-18.495-121.391-72.253-121.439-150.423c-0.029-46.685,17.158-88.188,46.196-124.396
	c51.124-63.747,119.883-94.712,199.279-105.449c95.292-12.887,188.137,4.134,280.718,23.204
	c41.512,8.551,82.625,19.032,123.987,28.336c4.722,1.062,9.722,4.222,15.352,0.474c-0.421-9.674-6.886-17.127-10.488-25.625
	c-49.239-116.154-45.945-228.15,29.311-332.764c47.078-65.443,111.845-105.788,191.554-118.699
	c53.152-8.611,99.487,6.75,134.344,50.317c38.337,47.917,55.052,103.267,57.592,163.718c3.054,72.692-16.965,140.337-45.079,206.181
	c-7.44,17.425-15.608,34.54-23.209,51.285c7.548,9.771,12.667,3.188,17.779-1.064c34.729-28.887,71.15-55.334,110.609-77.474
	c121.638-68.248,251.766-100.082,391.366-91.106c13.733,0.882,27.405,2.706,42.625,4.245
	c44.95-116.59,125.557-204.134,227.411-279.298c-24.975-6.2-46.137-2.121-66.432,0.653c-71.929,9.832-143.478,22.445-215.412,32.228
	c-53.371,7.258-107.067,9.456-160.262-3.079c-4.212-0.991-8.512-1.65-12.673-2.814c-108.924-30.473-153.208-128.607-102.673-230.239
	c35.542-71.48,96.3-111.916,171.821-131.706c64.133-16.807,128.912-13.534,193.438-2.4c93.298,16.098,182.691,46.487,272.292,75.985
	c7.082,2.332,14.084,4.904,24.821,8.658c-4.701-13.676-8.429-23.904-11.745-34.263c-38.216-119.39-23.392-229.658,59.967-326.103
	c52.712-60.987,121.011-95.238,201.548-100.935c53.725-3.8,98.363,16.004,129.102,62.443
	c30.125,45.512,42.904,95.835,43.196,149.934c0.333,61.855-16.449,119.539-41.586,175.334
	c-15.314,33.991-34.268,65.983-53.024,98.096c-2.236,2.266-4.447,4.799-0.751,7.368c3.574,2.484,5.479-0.769,7.532-2.965
	c44.812-29.142,89.472-58.508,138.773-79.903c87.203-37.843,178.066-59.098,273.273-61.12c7.717-0.164,15.419-1.044,23.128-1.592
	c0,6.938,0,13.876,0,20.814c-130.359-0.621-251.508,32.603-363.482,99.194c-22.783,13.549-44.964,28.074-66.618,45.513
	c26.527,40.482,30.495,83.692,23.316,130.216c13.132-2.683,23.166-4.537,33.107-6.796c67.587-15.364,135.719-26.824,205.126-29.725
	c56.225-2.35,112.506-3.825,168.55-9.452c0,6.938,0,13.875,0,20.814c-27.445,1.599-54.88,3.424-82.339,4.731
	c-26.57,1.265-53.165,1.995-79.749,2.96c32.679,14.021,65.187,24.696,97.758,35.176c21.917,7.053,41.593,19.881,64.331,24.777
	c0,8.672,0,17.345,0,26.017c-6.832-3.68-13.5-7.71-20.521-10.984c-55.075-25.684-112.706-43.781-171.862-57.202
	c-23.489-5.329-46.617-13.04-71.46-8.685c-50.958,8.934-101.603,19.262-153.133,31.626c-10.467,29.649-32.028,51.975-53.002,74.821
	c80.946,89.08,173.384,158.688,283.033,204.903c60.17,25.362,122.86,40.873,186.945,51.708c0,6.938,0,13.875,0,20.813
	c-28.514-5.959-57.251-11.024-85.5-18.052c-77.668-19.324-150.288-50.817-218.361-92.861c-5.077-3.135-9.379-7.765-15.744-8.542
	c-3.111-5.02-7.02-6.827-12.792-2.792C5433.34,5655.152,5435.965,5658.279,5438.59,5661.407z M5155.634,5541.814
	c-16.243,90.313-28.322,177.578-26.051,266.292c1.314,51.32,7.756,101.814,24.739,150.447
	c25.501,73.028,68.718,131.981,139.38,167.093c65.357,32.475,129.313,27.522,188.991-14.159c40.737-28.45,63-67.772,62.204-119.075
	c-0.479-30.873-7.719-60.071-18.226-88.551c-35.737-96.871-80.405-189.547-132.734-278.537c-3.476-5.912-6.958-12.458-12.116-16.64
	c-37.741-30.614-70.896-66.071-106.711-101.122C5239.14,5530.715,5199.19,5540.393,5155.634,5541.814z M3960.214,6233.279
	c-1.575,3.348-2.791,4.826-2.939,6.403c-7.342,78.493-11.012,157.035-4.407,235.819c5.688,67.851,18.146,133.904,50.839,194.558
	c34.533,64.068,83.208,112.782,153.78,136.035c65.522,21.587,125.09,8.655,177.118-35.606
	c37.207-31.653,54.869-72.347,50.266-122.215c-3.088-33.458-14.768-63.992-28.997-93.628
	c-43.599-90.819-94.99-177.103-153.522-259.11c-3.991-5.592-7.999-11.862-13.512-15.569
	c-40.342-27.129-76.425-59.651-115.164-91.177C4039.572,6214.656,4000.663,6227.957,3960.214,6233.279z M5008.231,5245.673
	c-14.635-6.267-27.059-12.526-40.094-17.012c-66.194-22.787-132.806-44.388-200.668-61.628
	c-57.913-14.713-116.595-25.771-176.767-24.509c-64.54,1.354-125.255,15.744-177.475,56.042
	c-39.521,30.499-68.615,68.459-79.067,118.305c-14.277,68.084,15.4,124.234,79.209,151.304
	c27.347,11.601,56.031,17.175,85.592,18.909c57.402,3.368,114.086-3.655,170.444-12.916c85.306-14.02,170.269-30.326,257.323-28.721
	c12.375,0.228,25.071-0.286,36.928-4.738C4948.409,5380.563,4943.752,5327.526,5008.231,5245.673z M3786.874,5952.162
	c-14.168-4.741-24.607-8.944-35.411-11.737c-91.348-23.615-183.243-44.943-277.267-54.523
	c-67.659-6.894-135.181-5.694-199.945,18.963c-69.802,26.575-122.501,71.857-146.912,144.17
	c-28.899,85.604,12.762,159.56,100.33,180.488c21.853,5.223,44.174,7.698,66.871,6.893c60.009-2.132,118.302-14.319,176.281-28.728
	c70.454-17.508,140.024-39.097,212.723-46.311c24.7-2.451,49.409-4.841,75.149-10.611
	C3728.782,6079.842,3738.831,6014.735,3786.874,5952.162z M3913.874,6234.708c-66.306-9.44-77.28-14.291-136.306-59.499
	c-2.636-2.019-5.999-5.099-8.651-4.761c-17.739,2.259-37.159,1.031-51.662,13.096c-75.275,62.613-140.729,133.524-183.451,222.964
	c-29.096,60.915-47.631,124.45-45.464,192.685c1.291,40.664,10.925,79.219,37.662,110.931
	c48.962,58.072,126.036,78.775,191.253,2.661c5.052-5.895,9.416-12.412,13.779-18.857c16.145-23.848,26.952-50.359,37.344-76.964
	c45.658-116.881,91.057-233.864,136.418-350.861C3908.494,6256.566,3913.602,6247.346,3913.874,6234.708z M5009.256,6530.97
	c-16.314-281.18,0.864-555.62,51.114-828.366c-6.892,7.609-11.441,15.705-15.575,24.007c-35.51,71.326-70.7,142.813-106.521,213.983
	c-14.481,28.77-32.452,55.211-56.374,77.333c-63.88,59.075-147.798,53.979-203.596-12.711c-6.571-7.854-12.628-16.137-19.528-24.997
	c-44.824,15.606-89.576,28.55-136.03,34.968c-45.475,6.283-90.819,13.503-136.221,20.312c10.975,4.95,21.946,7.024,32.892,9.226
	c76.852,15.453,151.038,38.456,219.6,77.427c30.347,17.25,58.459,37.246,80.891,64.434c28.209,34.192,42.943,72.629,38.079,117.578
	c-2.224,20.547-11.6,38.595-21.2,57.333C4844.914,6389.074,4927.172,6454.329,5009.256,6530.97z M4090.091,6176.123
	c57.657,52.085,117.118,96.476,183.796,130.833c104.084,53.632,214.618,81.805,331.674,83.128
	c24.924,0.282,49.993-2.177,73.684-12.22c36.096-15.301,56.034-41.532,59.029-81.052c3.497-46.137-16.084-82.109-47.87-112.99
	c-26.388-25.637-57.623-44.175-90.434-60.207c-73.042-35.689-150.817-55.646-230.746-67.571
	c-27.111-4.045-54.282-10.959-82.299-3.78c-46.171,11.831-91.518,26.365-137.161,39.949c-7.198,2.141-12.796,5.004-15.238,12.343
	C4125.649,6131.24,4108.786,6153.145,4090.091,6176.123z M5299.781,5232.612c14.759-16.104,23.687-33.868,33.03-51.195
	c34.777-64.494,61.946-131.378,63.199-206.206c0.907-54.16-10.857-104.64-42.167-149.733c-22.931-33.024-54.5-49.663-94.527-50.16
	c-67.218-0.835-125.387,23.483-175.208,66.991c-82.253,71.829-112.148,163.968-98.873,270.732
	c5.142,41.352,17.817,80.846,40.861,118.221c40.759-30.715,85.192-47.982,135.724-46.093
	C5211.485,5187.025,5256.94,5201.706,5299.781,5232.612z M4075.393,5911.658c24.645-40.847,41.356-84.294,54.88-129.104
	c12.841-42.544,20.292-85.885,17.371-130.5c-3.835-58.591-20.931-112.079-61.688-156.124
	c-21.084-22.785-47.074-34.447-78.303-34.806c-65.105-0.75-119.837,25.112-167.3,67.113
	c-122.242,108.174-122.941,279.395-44.504,399.662c1.823,2.795,3.945,5.611,7.805,4.929
	C3887.926,5861.185,3978.091,5863.182,4075.393,5911.658z M4679.741,5970.52c39.524,72.581,118.832,89.361,181.003,40.082
	c10.238-8.114,19.144-17.529,27.313-27.731c16.905-21.111,29.879-44.594,41.827-68.682
	c57.349-115.621,114.673-231.254,171.752-347.008c4.071-8.257,9.621-16.283,9.896-25.636c-1.121-1.213-1.605-2.23-2.315-2.426
	c-4.947-1.362-9.927-2.605-14.92-3.792c-36.878-8.764-72.507-22.057-97.364-51.219c-17.23-20.214-34.632-24.781-58.682-19.074
	c-8.703,2.065-16.397,4.43-23.425,9.776c-15.175,11.545-30.822,22.491-45.728,34.368
	c-76.307,60.799-139.497,132.228-179.313,222.466c-3.053,6.921-6.671,13.614-6.985,22.726c18.625,6.69,36.151,13.958,51.228,25.873
	c55.413,43.795,56.388,110.061,2.25,155.241C4719.524,5949.466,4700.251,5959.397,4679.741,5970.52z M4144.228,6068.973
	c8.817,3.793,14.961-0.087,21.38-2.263c89.612-30.379,181.754-48.842,275.69-59.275c61.101-6.787,121.776-16.232,180.424-35.558
	c36.36-11.981,71.483-26.877,101.494-51.179c46.481-37.643,44.621-91.092-3.687-126.814c-11.983-8.861-25.331-14.966-39.454-19.318
	c-18.251-5.625-37.009-8.844-56.054-10.204c-93.609-6.683-184.803,4.751-273.339,36.35
	c-89.109,31.803-168.865,79.042-240.184,144.292C4138.282,5982.27,4149.602,6023.961,4144.228,6068.973z M5147.913,6658.719
	c7.57-0.555,19.584-0.396,31.604-3.07c100.963-22.448,192.628-66.2,278.85-122.019c29.313-18.977,53.08-44.31,72.775-73.268
	c19.207-28.242,27.469-59.099,24.159-93.369c-5.236-54.204-49.71-88.938-103.231-80.082c-29.339,4.856-56.808,15-82.695,29.255
	c-82.465,45.407-157.03,101.302-221.273,170.267c-26.606,28.562-51.192,59.286-61.459,97.966
	C5074.228,6631.163,5088.544,6661.483,5147.913,6658.719z M4799.383,6679.369c19.293,1.391,38.204-1.613,56.952-4.744
	c48.413-8.085,93.605-24.858,134.119-52.992c24.763-17.196,27.682-30.499,13.791-57.284c-8.923-17.206-22.034-31.059-35.847-44.222
	c-44.169-42.093-93.88-76.677-147.188-106.015c-28.909-15.911-59.531-27.787-92.61-32.342c-6.034-0.831-11.565-2.496-17.342,1.33
	c-36.548,24.205-78.192,25.831-119.918,26.032c-9.269,0.044-17.147,1.465-23.788,7.782c-25.896,24.639-39.939,53.729-34.744,90.479
	c5.93,41.947,28.972,73.916,60.029,100.232C4652.264,6657.98,4722.792,6677.878,4799.383,6679.369z M5152.462,5521.983
	c57.923-0.585,108.652-18.078,147.945-62.875c66.456-75.767,47.68-181.212-40.915-228.663
	c-20.005-10.715-41.366-17.498-63.567-21.82c-88.95-17.32-176.009,28.11-210.452,109.817c-32.078,76.1-3.843,149.603,71.188,183.699
	C5086.938,5515.9,5119,5522.66,5152.462,5521.983z M3934.49,5896.986c-67.137,1.679-124.065,38.875-157.632,108.77
	c-36.271,75.526-14.572,171.3,90.453,200.288c34.805,9.605,69.947,11.782,105.249,5.22c66.45-12.354,116.779-46.693,142.448-111.044
	c27.714-69.48,1.135-141.78-64.265-177.883C4018.214,5904.378,3982.959,5897.181,3934.49,5896.986z M3928.393,6261.101
	c-8.096,22.498-20.777,42.251-22.716,65.456c-6.764,80.939-15.57,161.717-19.635,242.878c-4.452,88.917-5.691,177.884-3.058,266.858
	c1.664,56.245,3.325,112.543,10.309,168.479c0.617,4.945-1.434,12.138,6.881,12.986c5.038-3.703,3.068-8.309,2.772-12.264
	c-6.729-89.747-9.472-179.581-5.74-269.541c3.837-92.497,11.24-184.635,28.305-275.792c2.215-11.83,5.083-23.453,4.897-35.865
	c-0.723-48.412-1.553-96.862,4.182-145.124C3935.219,6273.892,3937.096,6267.429,3928.393,6261.101z M3900.375,7030.873
	c-5.477,22.253-3.538,36.643,8.788,52.909C3907.878,7063.676,3909.259,7047.696,3900.375,7030.873z M3905.915,7089.579
	c-6.704,16.933-5.473,25.376,5.446,37.355C3913.829,7107.184,3913.829,7107.184,3905.915,7089.579z M3916.213,7158.28
	c1.209-8.28,4.994-17.097-8.935-22.708C3906.568,7145.36,3905.99,7153.173,3916.213,7158.28z M4103.609,5921.49
	c-1.051-2.719-2.471-5.022-5.368-3.486c-2.019,1.07-3.502,3.152-5.224,4.782c1.467,1.459,0.296,5.438,4.28,4.493
	C4100.613,5926.49,4103.288,5925.034,4103.609,5921.49z"/>
<path style="fill:#1B1919;" d="M2231.077,7200.72c6.701-66.003,9.296-132.279,12.289-198.497
	c6.782-150.069,7.582-300.235,3.739-450.394c-1.665-65.049-5.462-130.042-7.7-195.081c-0.422-12.263-4.33-20.218-15.011-27.036
	c-46.422-29.633-96.414-47.135-154.347-49.218c3.959,307.853-2.875,614.187-21.188,920.226c-4.444,0-8.889,0-13.333,0
	c9.019-131.284,13.676-262.758,17.792-394.269c5.235-167.263,5.048-334.554,3.896-501.859c-0.05-7.265,1.576-14.75-1.858-22.603
	c-19.474-2.722-37.709,3.178-55.484,9.992c-30.016,11.506-56.376,29.33-80.824,49.931c-52.499,44.237-96.037,96.325-133.996,153.32
	c-5.616,8.433-7.669,16.955-7.523,26.981c2.383,163.6,1.923,327.205-0.324,490.801c-0.772,56.24-2.589,112.466-4.262,168.689
	c-0.2,6.73,3.617,18.218-13.228,14.075c6.093-219.284,9.235-438.824,4.859-658.67c-7.929-0.309-8.302,6.132-10.381,10.038
	c-81.297,152.743-137.652,313.898-161.687,485.615c-6.873,49.106-9.872,98.66-8.213,148.381c0.202,6.049,3.971,15.47-9.558,16.476
	c-4.022-8.385-2.809-17.176-2.958-25.628c-1.368-78.05,6.985-155.163,23.588-231.347c31.047-142.462,80.864-278.034,151.043-405.947
	c11.653-21.24,24.882-41.616,38.119-63.616c-10.739-3.134-13.487,5.437-17.409,10.139
	c-44.719,53.612-82.806,111.663-115.206,173.478c-63.919,121.951-102.803,251.522-117.365,388.313
	c-4.781,44.91-6.848,90.044-4.757,135.267c0.266,5.76,1.565,11.699-0.526,17.022c-7.093,3.81-10.65,1.061-11.04-5.349
	c-1.035-16.979-2.453-34.009-2.104-50.986c4.193-203.623,58.817-392.459,167.677-564.968
	c64.728-102.575,146.095-188.712,246.289-258.625c84.876-59.225,170.371-59.423,260.191-19.077
	c56.841,25.533,100.612,66.897,135.593,118.047c37.583,54.955,62.074,115.782,80.943,179.131
	c32.057,107.62,53.015,217.043,50.348,329.883c-2.117,89.553-20.416,176.057-52.532,259.65
	c-4.342,11.301-4.452,11.259-15.945,13.527c-3.729-6.266,1.399-11.259,3.254-16.103c36.142-94.367,55.373-191.811,52.163-293.02
	c-4.314-136.015-33.537-266.723-87.508-391.664c-19.794-45.823-46.67-87.392-81.587-123.424c-4.633-4.781-9.479-9.361-14.361-13.889
	c-1.502-1.392-3.454-2.298-8.562-5.599c6.69,143.242,11.547,283.924,9.975,424.712c-1.577,141.238-7.014,282.313-17.647,423.172
	C2239.966,7200.72,2235.521,7200.72,2231.077,7200.72z M1782.835,6464.761c0.515,0.932,1.049,1.897,1.582,2.862
	c0.494-0.494,1.471-1.094,1.39-1.46c-0.233-1.045-0.896-1.996-1.39-2.983C1783.923,6463.673,1783.429,6464.167,1782.835,6464.761z"
	/>
<path style="fill:#1B1919;" d="M4357.678,7194.719c-1.667-6.595-0.243-11.348,5.342-16.397
	c17.411-15.738,31.587-34.35,43.825-54.356c19.1-31.224,28.599-64.466,21.958-101.432c-10.237-56.989-56.4-86.78-112.736-72.762
	c-45.706,11.374-83.259,37.638-119.784,65.418c-66.39,50.497-125.641,108.344-175.958,175.064c-0.833,1.105-0.672,2.96-0.975,4.465
	c-5.205,0-10.41,0-15.615,0c-3.308-12.167,4.969-19.898,11.241-28.076c38.684-50.439,83.067-95.426,131.695-136.264
	c29.892-25.104,60.293-49.655,94.078-69.387c27.71-16.186,56.381-30.119,89.284-33.087c59-5.324,102.145,26.011,116.61,83.782
	c9.375,37.441,2.446,72.048-13.824,105.723c-11.032,22.833-26.514,42.59-43.057,61.634c-4.187,4.82-10.674,8.205-11.266,15.675
	C4371.558,7194.719,4364.618,7194.719,4357.678,7194.719z"/>
<path style="fill:#1B1919;" d="M3805.945,7194.719c1.911-1.799,3.616-4.139,0.767-5.987
	c-65.857-42.715-133.851-80.348-214.993-83.126c-32.24-1.104-64.211,2.402-93.833,16.7c-32.385,15.633-60.127,36.186-71.908,72.413
	c-6.94,0-13.88,0-20.82,0c14.279-47.199,48.249-75.528,91.907-93.33c54.218-22.106,109.828-19.688,165.212-4.786
	c62.581,16.839,116.854,50.856,171.301,84.472c5.952,3.675,3.947,10.439,8.803,13.645
	C3830.235,7194.719,3818.089,7194.719,3805.945,7194.719z"/>
<path style="fill:#1B1919;" d="M511.103,7200.72c-3.06-6.891-1.625-14.058-1.426-21.184c0.585-20.984-3.452-41.052-13.295-59.655
	c-20.577-38.887-59.292-53.761-101.106-39.408c-30.303,10.401-50.642,31.756-65.822,58.934
	c-10.756,19.258-16.535,40.377-22.792,61.313c-2.963,0-5.926,0-8.889,0c-1.91-67.876,62.435-137.866,126.946-138.423
	c30.389-0.262,54.559,11.947,72.755,35.722c23.414,30.592,28.28,65.557,22.517,102.701
	C517.029,7200.72,514.066,7200.72,511.103,7200.72z"/>
<path style="fill:#1B1919;" d="M3468.989,4342.519c-7.45,4.585-7.769,19.094-20.121,14.231c-12.916-5.084-7.144-14.899-5.518-24.386
	c2.722-15.883-3.165-31.439-9.86-44.78c-22.228-44.286-43.355-89.119-65.883-133.223c-10.714-20.975-28.04-38.11-44.626-55.047
	c-19.155-19.562-38.858-38.591-58.49-57.679c-2.963-2.88-5.677-7.059-10.953-6.044c-12.045,90.237-67.381,154.024-129.904,213.014
	c-39.397,37.171-83.662,68.36-128.472,98.636c-8.295,5.604-17.816,15.051-27.958,8.052c-11.193-7.725-5.364-20.548-2.342-30.789
	c13.909-47.127,20.98-95.333,24.149-144.212c0.521-8.032,1.994-16.139-0.72-26.404c-21.66,6.331-42.888,13.602-64.64,18.597
	c-22.233,5.105-44.98,7.976-69.045,12.089c-1.517,30.984-4.069,61.876-9.955,92.351c-8.64,44.737-22.037,87.625-50.407,124.271
	c-61.422,79.341-153.148,91.845-232.379,30.203c-55.637-43.286-84.128-100.484-77.982-172.145
	c3.092-36.043,19.608-65.148,51.69-83.32c25.456-14.417,51.984-16.03,78.328-1.361c3.12,1.737,6.457,3.575,6.923,7.931
	c-3.071,5.705-7.421,2.71-11.212,1.271c-45.727-17.36-98.533,13.558-107.545,72.34c-4.866,31.744,0.923,62.133,14.763,90.705
	c23.684,48.896,59.925,84.835,113.423,98.875c55.202,14.488,102.621-0.045,138.892-45.316
	c24.104-30.084,36.922-65.57,46.107-102.417c9.149-36.699,14.121-74.035,15.48-111.989c-9.864-4.425-19.642-2.139-29.047-3.063
	c-11.2-1.101-23.104-1.569-28.27-13.647c-5.381-12.581,3.537-20.873,11.297-28.919c10.789-11.187,21.197-22.834,32.807-33.111
	c11.323-10.022,13.205-21.641,11.811-35.836c-6.146-62.609-10.979-125.349-17.437-187.923
	c-11.035-106.913-8.355-212.854,19.33-317.349c0.559-2.109,0.616-4.35,0.908-6.531c-18.154-2.298-18.356-2.38-25.256,14.729
	c-23.563,58.43-50.65,115.09-84.208,168.518c-14.966,23.829-30.822,47.024-48.383,69.062c-7.359,9.235-14.179,18.972-20.474,28.965
	c-10.117,16.06-11.743,33.262-4.601,50.994c14.178,35.199,3.057,64.573-20.985,90.84c-11.088,12.115-24.573,21.327-38.489,29.878
	c-7.562,4.646-15.077,9.415-22.909,13.57c-36.306,19.263-58.715,48.395-66.206,89.284c-3.185,17.388-7.392,34.797-14.605,51.117
	c-3.569,8.074-7.498,16.236-12.711,23.29c-13.476,18.233-32.029,17.154-41.937-2.938c-4.853-9.84-9.391-17.329-21.179-19.835
	c-9.387-1.996-16.143-9.249-27.132-11.36c-22.021-4.233-43.124-14.967-63.345-25.172c-12.34-6.228-13.38-22.239-12.007-35.999
	c1.107-11.086,4.446-21.738,8.481-32.111c11.264-28.958,22.816-57.804,33.887-86.835c11.372-29.82,27.815-55.51,56.085-72.158
	c1.646-0.969,2.621-3.079,5.597-6.73c-19.668-3.523-36.521-10.248-48.942-24.397c-6.654-7.58-16.382-15.334-11.55-26.829
	c4.976-11.839,17.137-9.39,27.341-9.41c34.802-0.069,69.604-0.026,106.113-0.026c12.264-14.094,19.174-32.818,26.531-51.208
	c9.086-22.712,15.512-46.301,21.298-70.021c9.115-37.37,18.063-74.775,29.14-111.633c1.218-4.053,3.776-8.099,0.051-14.598
	c-90.861,7.184-179.032-10.614-265.663-45.194c-1.296,11.648,5.489,16.216,9.449,21.664c19.679,27.068,36.776,55.527,48.214,87.089
	c3.009,8.302,5.706,16.888,7.087,25.575c4.109,25.846-5.884,42.728-30.433,52.259c-15.383,5.972-31.677,7.368-47.959,8.168
	c-210.152,10.332-407.085-35.3-590.168-139.481c-57.864-32.927-115.16-67.069-178.532-88.851
	c-33.528-11.525-67.378-22.113-100.113-32.808c-88.62,65.357-152.87,81.315-223.295,55.903c-6.007-12.968,1.916-16.169,12.638-18.62
	c37.604-8.596,67.14-29.907,91.492-59.142c2.382-2.859,4.69-5.623,4.161-11.813c-20.858-6.389-42.524-13.012-64.181-19.665
	c-10.616-3.261-21.261-6.473-30.104-13.653c-12.306-9.992-17.18-24.668-12.439-37.497c4.205-11.378,13.682-16.631,30.868-16.298
	c11.728,0.227,23.441,1.202,36.207,1.899c-1.495-10.323-10.124-10.817-15.72-14.115c-11.514-6.787-23.153-13.2-31.898-23.689
	c-7.732-9.274-10.721-19.603-5.837-30.927c4.995-11.581,15.432-15.122,27.06-16.27c10.415-1.029,20.024,4.466,31.456,4.66
	c0.093-11.675-9.691-14.676-15.162-20.419c-13.832-14.523-10.847-28.518,8.508-34.216c7.621-2.244,15.887-2.296,24.314-3.407
	c-1.119-9.523-9.001-13.562-14.017-19.519c-11.131-13.222-8.825-24.112,6.895-30.794c8.527-3.624,17.256-3.889,26.084-1.3
	c5.668,1.662,11.237,3.684,16.948,5.166c5.548,1.44,9.926,6.733,18.358,4.563c-0.6-7.72-4.292-14.562-7.635-21.439
	c-17.535-36.068-44.886-63.986-74.771-89.786c-4.592-3.965-10.011-5.93-15.885-7.422c-90.094-22.885-175.996-56.521-257.746-100.766
	c-2.516-1.362-5.362-2.145-8.112-3.016c-0.542-0.171-1.349,0.499-4.454,1.776c-0.287,76.563,9.381,150.059,76.347,201.708
	c32.777,25.28,70.45,36.925,112.556,29.986c17.197-2.834,32.464-9.572,46.466-19.785c5.859-4.274,10.462-10.441,19.089-12.963
	c1.91,8.144-2.781,14.51-5.051,20.819c-49.015,136.236-223.429,167.482-316.8,56.817c-34.996-41.478-51.79-90.716-60.281-143.442
	c-5.687-35.313-4.471-70.849-4.402-106.381c0.053-27.386-0.461-54.774-0.776-82.16c-0.165-14.403-4.245-25.856-20.408-29.677
	c-5.619-1.328-11.036-4.456-15.946-7.677c-18.672-12.247-36.276-15.054-59.618-8.184c-52.085,15.331-105.934-28.253-106.015-83.531
	c-0.021-14.431-4.885-22.602-14.874-31.58c-110.064-98.917-192.127-216.692-237.539-358.353
	c-23.276-72.608-33.304-147.065-25.588-223.414c1.644-16.273,4.941-32.138,9.55-47.792c4.637-15.746,12.589-29.936,21.365-44.672
	c-14.329-20.72-28.41-41.503-36.974-65.275c-24.357-67.614-23.238-133.412,14.434-196.454c3.073-5.142,5.61-10.187,6.518-16.251
	c18.992-126.763,71.702-240.328,137.435-348.633c81.37-134.069,180.421-252.862,304.569-349.78
	c28.577-22.309,58.601-42.553,89.875-63.046c-5.996-19.905-4.431-39.282,5.525-58.003c-38.243-48.689-60.421-103.987-70.13-164.032
	c-20.481-126.656,10.537-240.916,86.956-342.969c82.667-110.397,194.272-174.309,329.393-195.432
	c154.75-24.192,299.561,4.481,429.099,94.799c120.247,83.84,177.995,202.42,184.845,347.264
	c2.821,59.648-4.551,118.236-20.149,175.776c-3.205,11.823-4.746,22.208,2.707,33.559c10.691,16.281,9.1,35.187,6.392,54.903
	c107.343,34.566,209.196,79.456,304.447,138.795c94.542,58.898,178.672,130.159,255.009,217.017
	c3.482-19.068,6.083-33.348,8.7-47.626c17.818-97.242,50.759-189.887,85.467-282.029c30.766-81.676,62.345-163.106,82.882-248.2
	c14.117-58.495,23.447-117.535,21.018-178.026c-2.188-54.505-18.71-104.666-46.032-151.325
	c-15.201-25.959-37.462-45.658-61.931-62.812c-10.909-7.648-22-15.037-33.054-22.477c-6.141-4.133-12.728-7.824-14.163-16.932
	c6.601-13.559,18.343-11.941,30.106-8.784c38.646,10.37,76.341,23.505,112.79,40.065c173.412,78.786,305.231,201.812,390.966,372.12
	c58.711,116.626,105.355,238.071,133.947,365.899c12.474,55.768,19.858,112.181,20.64,169.397
	c0.067,4.909-1.546,10.241,1.933,14.603c3.863,2.122,5.571-1.055,7.376-2.865c55.447-55.618,109.117-112.723,153.847-177.681
	C3390.304,975.676,3427,846.388,3422.222,704.97c-0.399-11.818-0.414-23.682,0.159-35.488c0.375-7.731,3.693-14.795,11.585-17.457
	c8.327-2.809,14.086,2.69,19.052,8.329c3.895,4.423,7.627,9.13,10.613,14.193c60.288,102.219,114.101,207.383,147.148,322.071
	c27.452,95.274,37.729,193.045,42.282,291.556c7.084,153.246,5.872,306.497-4.671,459.54c-13.61,197.556-39.6,393.19-97.094,583.492
	c-22.291,73.783-49.981,145.484-84.407,214.52c-2.546,5.106-4.534,10.49-6.798,15.783c6.611,4.761,10.679,0.343,14.43-2.323
	c92.681-65.857,178.467-139.27,251.779-226.756c59.409-70.894,107.521-148.538,143.289-233.715
	c21.925-52.211,36.868-106.228,36.569-163.531c-0.115-21.969-4.843-42.607-17.712-60.813
	c-23.048-32.605-61.384-38.592-93.203-14.515c-15.691,11.873-26.469,27.602-35.159,45.068
	c-15.122,30.393-18.096,62.881-17.492,96.086c0.142,7.815,0.021,15.636,0.021,23.412c-5.86-0.251-6.21-3.492-6.556-6.074
	c-7.172-53.529-0.798-104.604,28.761-151.061c21.875-34.38,56.53-48.383,95.605-39.834c30.19,6.605,49.842,24.777,59.6,53.72
	c12.497,37.068,8.889,74.664,1.947,112.003c-19.125,102.858-62.583,195.324-121.384,281.14
	c-67.584,98.633-152.99,180.364-243.549,257.254c-7.2,6.113-15.573,11.025-21.039,18.846c1.45,6.916,6.784,4.913,10.666,4.84
	c50.789-0.945,100.49,6.643,148.962,21.028c14.402,4.274,23.609,0.942,33.674-8.446c58.201-54.283,90.017-118.426,77.153-200.119
	c-1.798-11.419-4.813-26.317,8.031-31.884c15.008-6.505,22.224,8.418,28.843,18.332c48.941,73.294,64.701,154.71,56.975,241.386
	c-1.766,19.815-5.68,39.438-8.916,61.246c72.928,37.569,143.302,82.36,228.888,88.91c36.094,2.762,70.915-2.267,103.618-18.405
	c41.512-20.484,65.55-54.086,73.568-99.423c1.546-8.746,2.896-17.526,4.427-26.275c0.967-5.528,3.288-9.947,9.797-10.048
	c6.655-0.104,8.655,4.78,9.976,9.961c5.301,20.797,10.258,41.646,12.036,63.142c6.781,81.993-15.104,156.913-56.865,226.549
	c-63.455,105.811-151.497,186.971-256.025,250.858c-70.633,43.171-145.714,75.487-228.245,88.484
	c-12.317,1.94-25.121,0.743-37.018,5.144c-1.289,7.662,4.759,10.689,8.564,14.674c115.733,121.215,255.978,196.688,421.457,224.316
	c52.298,8.731,104.937,8.779,156.81-3.045c71.041-16.192,127.85-54.222,166.011-116.825c42.691-70.033,24.567-154.1-41.049-198.319
	c-56.669-38.19-124.986-25.478-164.145,30.556c-21.881,31.31-31.181,66.62-33.697,104.251c-0.495,7.4,2.507,16.245-4.845,21.849
	c-7.216-1.024-6.899-5.986-7.189-10.281c-4.441-65.813,16.834-121.455,69.008-162.532c52.505-41.338,127.241-32.09,176.976,19.527
	c57.854,60.045,63.53,151.468,13.534,224.864c-42.008,61.67-102.754,94.838-173.941,109.618
	c-91.455,18.987-181.363,7.179-269.634-19.568c-89.526-27.126-170.498-70.963-243.93-128.814
	c-7.558-5.955-15.14-11.881-22.78-17.731c-4.78-3.66-9.391-4.003-13.566,1.46c0.285,8.778,7.118,14.169,11.723,20.597
	c56.501,78.868,129.357,139.764,210.556,191.59c39.929,25.485,79.446,51.618,118.952,77.756c5.047,3.34,10.595,5.121,15.757,7.849
	c10.028,5.298,10.26,17.114,0.569,22.795c-38.77,22.725-80.526,35.963-125.337,40.455c-39.273,3.937-78.393,2.688-117.576-0.397
	c-7.309-0.575-14.647-0.789-25.018-1.327c15.208,16.852,31.568,27.919,47.97,38.606c16.714,10.891,34.382,20.316,51.59,30.454
	c5.079,2.991,10.723,5.492,14.868,9.499c8.312,8.034,5.922,18.364-4.733,23.179c-1.989,0.899-4.216,1.476-6.388,1.733
	c-79.392,9.417-156.759,5.362-228.813-34.304c-12.739-7.013-23.595-17.266-37.312-22.198c-4.235,2.666-4.771,6.129-3.081,9.74
	c33.416,71.372,47.46,147.262,52.57,225.219c0.726,11.077,0.755,22.198,1.119,33.299c0.663,20.205,7.952,37.453,23.052,51.129
	c84.327,76.369,124.926,173.974,139.809,284.632c6.308,46.9,14.152,93.631,30.492,138.5
	c20.573,56.491,53.85,101.599,109.701,127.753c10.681,5.002,20.696,11.492,30.779,17.686c13.35,8.199,25.141,18.346,34.861,30.658
	c17.667,22.38,23.996,47.243,15.116,74.97c-3.833,11.969-8.174,23.777-12.379,35.624c-8.631,24.316-2.597,45.189,15.255,62.927
	c6.797,6.753,14.385,12.742,21.851,18.785c10.927,8.844,22.035,17.467,33.124,26.109c30.296,23.61,43.858,54.945,43.069,92.939
	c-0.78,37.531-10.418,73.186-24.131,107.726c-6.939,17.481-18.701,30.38-40.138,28.352c-3.875-0.367-7.362-0.065-10.011,3.148
	c-7.816,9.485-17.813,12.66-29.769,10.482c-3.051-0.556-6.2,0.229-8.108,2.586c-12.624,15.594-29.156,11.271-44.988,8.528
	c-16.094-2.789-30.438-4.736-44.885,7.981c-14.189,12.49-46.557,5.628-60.851-9.669c-10.47-11.204-16.298-24.968-19.18-39.49
	c-11.192-56.38-38.44-105.188-69.504-152.494c-42.246-64.333-84.507-128.671-125.656-193.706
	c-58.728-92.82-124.239-180.327-198.378-261.451c-37.463-40.99-73.073-83.609-105.13-129.062
	C3472.945,4346.617,3470.884,4344.67,3468.989,4342.519z M2014.149,3183.053c-7.219-4.762-15.239-4.978-23.447-4.133
	c-4.568,0.419-9.812-5.065-13.961,1.93c2.196,1.894,4.097,4.719,6.655,5.57c142.733,47.504,290.278,65.388,444.083,69.737
	c-75.374,24.458-315.851,9.886-512.549-61.429c123.512,101.384,261.523,176.781,413.183,228.352
	c-30.524,0.237-58.318-9.638-86.246-18.899c-29.498-9.781-58.66-20.442-87.276-32.607c-27.936-11.876-55.302-24.921-82.128-39.101
	c-27.494-14.532-54.341-30.214-80.104-47.616c-24.525-16.565-48.552-33.869-75.033-52.414c-1.711,14.1,6.444,18.088,11.745,23.174
	c24.035,23.058,48.237,45.953,72.739,68.514c73.736,67.898,151.677,130.083,241.393,176.111
	c90.913,46.642,186.475,75.043,289.614,73.346c11.709-0.192,23.712,0.674,36.021-5.015
	c28.959-94.658,75.446-181.957,126.988-268.537c-42.599-19.684-74.076-49.455-101.689-83.718
	c-13.006-16.137-25.802-32.444-38.581-48.762c-19.635-25.072-39.237-50.168-63.139-71.465
	c-17.703-15.773-36.98-28.755-60.862-35.433c-15.242,25.95-39.103,38.904-64.596,49.769
	c-35.409,15.091-71.253,29.054-107.944,40.684C2179.327,3176.368,2098.282,3191.662,2014.149,3183.053z M3454.947,3528.262
	c-1.686-1.069-4.162-3.446-4.926-2.985c-3.751,2.262-0.816,4.669,0.567,6.946c33.243,68.199,56.722,139.721,72.646,213.796
	c16.349,76.048,27.072,153.023,36.143,230.182c7.098,60.375,10.398,121.107,0.31,181.516c-2.485,14.881,0.344,27.254,6.226,40.408
	c36.239,81.041,86.061,153.42,140.697,222.836c45.786,58.171,91.762,116.245,129.98,179.871
	c67.454,112.3,130.784,226.961,194.611,341.328c20.318,36.406,34.777,75.122,40.816,116.73c1.37,9.439,4.611,18.647,7.46,27.815
	c1.352,4.351,2.068,9.918,8.101,10.244c8.75-21.385,2.021-45.133,9.865-67.015c9.471,4.3,8.927,10.698,9.712,16.426
	c2.222,16.204,2.023,32.415,1.108,48.743c-0.603,10.756,5.496,18.06,13.092,16.826c11.38-1.849,9.959-8.642,7.263-17.917
	c-3.71-12.764,4.549-42.642,12.584-52.912c6.611,10.317,5.202,21.532,4.953,32.437c-0.154,6.704-0.633,13.304,2.627,19.511
	c2.852,5.429,7.564,7.034,13.048,5.646c4.871-1.233,6.983-5.055,6.668-10.087c-0.185-2.956-0.671-5.913-0.601-8.858
	c0.362-15.112,9.116-44.549,16.469-54.124c14.373,18.235,0.855,38.547,4.461,56.807c16.875,1.753,21.745-0.543,28.052-17.15
	c11.6-30.538,20.322-61.977,22.061-94.773c1.84-34.705-9.711-63.957-38.045-85.523c-10.013-7.621-19.902-15.402-29.851-23.106
	c-11.721-9.075-23.243-18.354-32.619-29.991c-14.865-18.45-20.705-39.125-14.581-62.314c3.013-11.414,6.504-22.806,11-33.704
	c13.841-33.548,6.672-60.258-24.148-86.604c-5.05-4.317-10.494-8.221-16.011-11.937c-12.257-8.253-25.528-12.188-40.394-15.138
	c-20.714-4.111-40.186-14.527-60.139-22.373c-3.731-1.467-5.713-4.439-5.409-7.499c2.621-10.328,14.631-2.345,18.085-11.698
	c-48.124-49.888-68.187-112.81-80.193-179.206c-5.662-31.309-10.652-62.739-16.034-94.099
	c-15.209-88.617-51.637-166.79-117.659-228.838c-26.728-25.12-38.749-53.02-39.717-89.747
	c-3.334-126.455-42.252-242.555-108-350.093c-4.258-6.964-8.154-13.718-16.516-17.099
	C3567.417,3596.753,3510.683,3563.422,3454.947,3528.262z M910.794,1041.817c-32.08,19.407-61.149,39.805-89.16,61.692
	c-135.624,105.976-240.728,237.588-324.9,386.782c-40.14,71.148-73.224,145.225-95.333,224.081c-4.22,15.05-3.466,28.52,2.049,42.96
	c20.607,53.957,53.876,98.728,98.924,134.196c91.203,71.809,192.673,89.187,303.371,54.487
	c63.988-20.058,122.803-51.343,181.02-83.638c157.937-87.613,325.289-145.203,506.048-160.426
	c100.928-8.5,201.148-3.347,300.527,17.168c90.569,18.697,175.219,53.544,258.458,92.586
	c51.588,24.196,103.574,47.504,158.67,62.892c62.084,17.34,124.886,25.705,188.652,10.986
	c72.04-16.629,126.814-56.296,156.5-125.443c23.795-55.425,16.831-107.285-25.019-152.291
	c-34.733-37.351-94.683-61.611-148.913-29.226c-2.198,1.313-5.056,3.531-8.41,0.013c23.163-61.364,74.275-80.381,136.732-85.647
	c-152.892-260.43-382.27-413.962-659.563-504.169c-62.245,58.701-120.285,43.462-142.464-36.451
	c-15.374-3.734-30.964-8.025-48.338-8.727c-14.17,23.447-34.547,36.078-62.701,32.217c-29.458-4.04-43.909-24.537-52.116-50.16
	c-11.963-2.776-22.805-4.296-34.485-2.929c-16.247,26.965-39.475,41.761-71.618,39.605c-32.265-2.165-51.844-22.149-65.234-48.311
	c-13.228,0-24.986,0-36.256,0c-30.648,50.125-68.56,53.374-112.773,9.483c-9.441,1.572-19.541,3.785-29.759,4.829
	c-15.12,1.545-23.936,8.372-31.236,22.818c-17.566,34.759-60.617,47.023-95.664,29.78c-5.917-2.911-11.558-6.381-17.415-9.642
	c-11.85,5.013-24.098,8.105-34.371,15.972c3.89,29.456-4.232,53.666-31.047,68.056
	C957.927,1069.87,933.515,1062.248,910.794,1041.817z M2619.202,2092.901c18.902,15.759,35.266,31.602,47.361,51.367
	c21.744,35.533,32.454,74.44,35.153,115.597c4.566,69.621-7.159,137.139-28.018,203.303c-8.892,28.204-19.096,56.02-27.187,84.444
	c-8.839,31.05-10.995,62.794-1.326,94.186c14.749,47.884,62.179,74.8,109.828,62.962c45.616-11.333,74.563-57.875,66.112-106.094
	c-1.113-6.352-5.038-12.372-2.662-19.37c3.785-1.155,5.465,2.022,7.393,3.786c6.547,5.987,13.157,11.982,19.052,18.59
	c39.686,44.499,46.714,111.893,17.271,163.507c-30.808,54.006-92.761,81.668-153.211,69.086
	c-46.038-9.582-82.581-34.895-115.061-67.367c-6.549-6.548-13.039-13.156-20.451-20.641c-20.59,23.904-44.801,39.925-74.104,51.823
	c52.835,42.59,98.169,88.271,144.213,133.177c5.551,5.414,11.564,9.081,18.863,10.885c24.48,6.05,49.068,10.83,74.565,9.387
	c29.609-1.675,58.858-5.844,88.162-10.2c34.076-5.065,67.271-18.751,102.975-10.505c73.309-111.148,171.333-181.086,307.319-186.949
	c1.848-2.708,3.339-4.363,4.242-6.292c37.205-79.507,98.721-131.637,181.063-159.895c10.903-3.741,16.68-10.732,21.64-20.272
	c39.72-76.385,70.797-156.213,95.314-238.633c53.02-178.242,78.679-361.249,92.153-546.055
	c13.686-187.713,15.529-375.651,1.125-563.48c-6.068-79.121-19.568-156.97-43.754-232.819
	c-33.025-103.569-82.503-199.344-137.36-292.627c-2.104-3.577-3.709-7.899-10.124-9.091c-3.255,7.579-1.135,15.519-0.816,23.184
	c5.499,132.171-24.333,255.529-92.774,369.027c-40.741,67.562-92.251,126.675-147.071,182.963
	c-82.097,84.296-166.401,166.47-243.683,255.365c-58.747,67.573-115.936,136.386-169.28,208.348
	c-6.171,8.324-8.409,15.847-5.912,26.437c4.064,17.234,5.983,34.999,5.895,52.844c-0.442,89.518-37.021,164.669-92.679,232.103
	C2672.237,2050.656,2647.463,2072.675,2619.202,2092.901z M2066.17,2139.285c-0.514-2.372-0.432-3.463-0.862-3.731
	c-2.506-1.563-5.067-3.07-7.729-4.348c-135.897-65.253-277.834-83.473-425.964-55.38c-97.445,18.481-189.141,53.112-277.765,96.723
	c-97.218,47.84-187.457,107.167-276.922,167.815c-62.56,42.409-126.619,82.27-198.272,107.975
	c-66.659,23.914-134.867,33.018-205.196,19.884c-19.336-3.611-37.726-10.797-59.914-17.788c2.909,10.289,4.503,17.197,6.8,23.863
	c54.511,158.203,145.204,291.996,272.362,400.71c12.81,10.952,21.376,25.751,35.978,34.748
	c172.075,106.016,358.976,162.359,561.146,166.819c158.903,3.507,311.877-26.879,460.462-82.032
	c46.175-17.139,89.331-39.531,128.07-69.815c148.39-116,269.212-255.012,354.143-424.137c8.558-17.041,9.225-29.506-2.106-46.011
	c-65.216-94.992-145.207-175.219-238.065-242.954c-32.159-23.458-65.457-45.143-101.614-62.987
	c-3.392,9.369-9.289,11.325-17.859,9.318c-23.067-5.403-43.962,0.173-63.001,13.728c-4.474,3.186-8.964,5.353-13.93,0.974
	C2000.49,2153.194,2022.681,2142.572,2066.17,2139.285z M3640.729,3263.396c11.549-1.511,12.897,7.765,16.573,13.293
	c19.681,29.601,40.206,58.563,61.921,86.718c87.461,113.399,198.677,193.387,334.815,238.379c7.22,2.386,14.289,7.339,22.826,4.161
	c-1.622-8.6-9.008-10.235-14.239-13.747c-20.277-13.615-40.631-27.142-61.362-40.052
	c-101.65-63.308-184.071-145.742-248.193-246.847c-28.551-45.019-55.607-90.88-81.857-137.244
	c-38.646-68.262-76.593-136.949-122.235-200.956c-37.543-52.648-78.91-101.858-130.251-141.774
	c-68.444-53.213-145.411-74.337-231.405-59.695c-84.869,14.451-152.345,58.575-207.534,123.013
	c-14.319,16.719-28.286,33.899-38.136,54.119c25.123,36.021,45.039,73.895,59.284,114.577
	c49.674,141.87,39.276,283.951,1.122,426.089c-3.983,14.839-13.743,23.791-27.593,29.624c-12.106,5.098-25.282,7.887-36.717,15.388
	c2.345,32.152,12.352,61.51,24.581,90.127c48.489,113.465,115.536,214.742,200.53,304.215
	c42.891,45.152,90.384,85.402,135.693,127.974c68.615,64.471,122.326,138.494,150.732,229.274c0.85,2.715,1.647,5.793,7.594,4.957
	c1.712-13.063,4.093-26.613,5.173-40.266c4.805-60.715-5.405-119.456-24.228-176.967c-22.663-69.246-55.69-133.73-90.984-197.149
	c-27.705-49.783-55.716-99.397-83.251-149.274c-2.375-4.302-8.725-9.006-2.872-15.259c1.736,0.433,3.653,0.318,4.445,1.206
	c4.416,4.956,8.759,10.003,12.767,15.292c74.781,98.68,131.42,207.316,175.416,322.643c29.993,78.622,45.047,159.39,28.458,243.648
	c-0.589,2.993-0.224,5.726,2.808,7.237c3.733,1.385,5.54-1.171,7.157-3.497c8.89-12.785,16.66-26.215,23.185-40.372
	c30.906-67.055,37.523-137.965,33.178-210.526c-4.695-78.421-16.369-156.012-29.581-233.338
	c-18.046-105.617-46.997-207.716-100.84-301.499c-3.845-6.698-8.128-12.018-14.143-16.489
	c-43.978-32.692-86.001-67.836-128.336-102.584c-25.786-21.165-48.792-45.247-71.638-69.458c-4.851-5.141-7.787-11.473-7.511-20.26
	c10.155,12.349,25.645,15.317,37.005,25.217c30.121,26.249,60.568,52.132,91.195,77.791
	c49.421,41.406,102.98,77.275,155.657,114.244c12.248,8.596,19.645,21.417,32.534,29.097
	c147.794,88.05,307.172,133.738,479.628,131.779c35.762-0.406,70.736-6.415,104.516-18.358c4.965-1.755,11.806-2.05,13.284-9.175
	c-1.14-1.28-1.859-2.759-3-3.24c-3.387-1.43-6.878-2.708-10.437-3.622c-96.63-24.839-184.525-67.83-263.651-128.353
	c-80.022-61.208-144.672-135.311-186.396-227.946C3643.486,3279.008,3638.245,3272.971,3640.729,3263.396z M2474.886,2782.679
	c4.717,4.257,9.836,1.225,14.249-0.112c32.963-9.976,59.837-28.806,79.305-57.329c27.062-39.649,33.694-84.634,32.735-131.322
	c-1.226-59.7-12.994-117.736-31.391-174.178c-83.047-254.795-249.322-437.477-490.22-550.364
	c-225.539-105.69-461.799-118.298-703.083-64.51c-95.797,21.355-186.35,57.617-275.908,96.773
	c-81.976,35.842-163.301,73.27-248.418,101.465c-88.582,29.342-178.638,47.208-272.697,39.153
	c-60.256-5.16-114.502-22.625-156.436-68.785c-1.563-1.721-3.462-2.495-6.809-0.8c-9.549,21.601-9.234,45.378-7.37,68.772
	c6.7,84.08,27.167,164.763,63.16,241.211c11.702,24.854,26.935,47.662,44.311,68.968c63.722,78.135,146.003,112.772,246.413,105.309
	c40.19-2.986,78.939-12.203,116.519-26.271c63.496-23.769,121.019-58.707,177.099-96.185
	c64.602-43.172,128.668-87.162,196.086-125.963c98.462-56.667,200.696-104.502,310.854-134.089
	c145.392-39.05,289.975-40.377,432.07,13.298c190.426,71.932,338.626,197.458,452.165,364.801
	c36.931,54.431,61.751,114.667,70.913,180.311c7.729,55.375,5.315,108.375-43.28,147.541
	C2474.752,2780.699,2474.972,2781.796,2474.886,2782.679z M2513.281,338.972c0.975,9.591,8.936,12.025,14.427,16.224
	c25.652,19.615,47.115,42.893,61.843,71.696c26.316,51.464,41.801,105.728,41.315,164.088
	c-0.49,58.867-10.215,116.339-24.532,173.216c-23.177,92.073-58.391,180.052-91.628,268.682
	c-35.927,95.805-66.528,192.983-81.784,294.545c-2.156,14.352,0.182,25.02,9.501,36.383c26.781,32.654,51.2,67.262,71.054,104.501
	c10.349,19.412,22.716,30.994,45.273,31.536c7.857,0.189,15.786,3.743,23.405,6.521c87.276,31.836,145.857,93.125,181.769,177.541
	c2.448,5.753,4.418,11.708,6.533,17.363c8.41-2.295,10.71-8.224,14.226-12.706c13.245-16.885,26.037-34.125,39.342-50.962
	c90.512-114.536,187.708-223.116,291.593-325.675c9.53-9.408,14.238-18.866,14.343-32.794c0.442-58.762-5.33-116.809-17.563-174.185
	c-29.353-137.68-78.671-268.482-144.654-392.263c-95.256-178.692-241.046-300.77-431.516-369.469
	C2529.098,340.644,2522.004,335.89,2513.281,338.972z M1827.484,890.164c1.566-4.48,2.681-7.102,3.407-9.828
	c20.436-76.811,26.29-154.554,12.899-233.118c-19.033-111.663-72.577-203.621-165.873-268.27
	c-151.788-105.18-319.227-131.818-495.023-77.682c-172.927,53.253-285.519,170.009-326.46,348.216
	c-22.284,96.997-8.5,191.344,41.997,278.729c5.801,10.039,11.79,20.126,20.913,28.129c34.596-21.571,64.07-14.537,89.298,13.98
	c10.52-4.244,20.624-6.626,28.548-13.486c-19.985-53.349-5.854-94.684,37.649-110.817c19.005-7.048,37.791-6.064,56.117,2.321
	c28.2,12.903,40.101,37.294,44.381,67.064c15.915-3.074,30.152-5.823,43.976-8.493c2.283-43.228,19.37-66.309,51.491-70.939
	c13.646-1.967,26.575,0.484,38.522,7.31c20.26,11.575,27.545,31.357,31.41,53.39c5.672,0,10.108,0.322,14.475-0.086
	c4.895-0.457,10.466,1.768,14.423-3.034c7.169-50.903,34.999-79.167,76.889-77.973c19.445,0.554,35.681,8.675,49.661,21.787
	c19.3,18.102,23.115,41.591,21.421,66.165c9.925,3.759,18.472,4.97,27.043,3.981c18.028-38.482,37.644-53.029,68.362-48.52
	c38.119,5.594,51.777,32.339,53.115,67.477c8.746,1.771,15.913,3.656,23.202,4.577c7.18,0.907,14,5.223,21.492,2.703
	C1737.284,878.584,1771.891,865.183,1827.484,890.164z M3256.201,2742.291c3.154,1.768,4.346,2.815,5.704,3.118
	c2.878,0.643,5.83,1.026,8.772,1.294c46.649,4.256,89.228,20.144,128.494,45.242c48.552,31.034,88.634,71.304,124.958,115.565
	c58.011,70.688,103.242,149.652,148.051,228.887c15.599,27.583,31.392,55.058,47.02,82.449
	c53.148,0.777,103.327-7.707,151.806-24.614c140.609-49.038,256.604-133.145,349.327-249.227
	c41.008-51.338,72.623-108.034,88.317-172.431c9.947-40.813,13.738-82.097,5.449-124.346c-5.551,2.117-5.874,6.044-7.064,9.27
	c-19.537,52.966-58.471,84.322-111.871,98.231c-47.029,12.25-93.923,8.401-140.251-5.177
	c-47.178-13.828-90.512-36.317-133.617-59.279c-70.562-37.589-141.866-73.52-218.958-96.147
	c-74.776-21.947-150.484-31.757-227.911-15.467c-68.364,14.385-128.729,43.456-175.881,96.397
	C3280.891,2695.884,3266.955,2718.119,3256.201,2742.291z M2383.25,4139.519c29.265-96.122,32.325-102.892,51.072-113.356
	c0.208,1.439,0.935,3.038,0.547,4.293c-10.83,35.007-24.751,69.115-24.601,106.906c0.043,10.852,1.938,14.49,13.177,14.397
	c6.492-41.954,14.665-82.453,41.299-118.16c2.04,4.029,3.414,5.43,3.182,6.474c-8.298,37.324-18.313,74.277-21.506,112.63
	c-0.948,11.378-6.229,22.792,5.327,32.965c12.068-5.486,15.24-16.468,19.355-26.368c7.986-19.216,11.536-39.76,16.554-59.824
	c8.517-34.054,27.429-60.24,56.967-78.856c13.769-8.677,27.921-16.748,41.669-25.457c15.074-9.549,29.141-20.376,39.585-35.162
	c12.06-17.074,15.041-34.383,4.015-53.752c-11.614-20.403-26.867-36.965-45.807-50.473c-4.519-3.223-11.214-5.02-9.064-14.796
	c21.328-4.604,35.484,12.477,53.287,20.669c4.485-21.067,14.781-37.23,26.866-52.14c55.976-69.06,97.081-146.595,130.941-228.287
	c40.885-98.639,68.428-201.545,97.965-303.866c8.948-30.997,5.632-56.572-18.136-78.776c-1.077-1.006-2.01-2.176-2.954-3.315
	c-88.851-107.304-183.929-208.813-284.742-304.937c-26.767-25.522-53.345-51.288-82.341-74.407
	c-10.821-8.628-21.385-14.496-36.209-12.498c-10.831,1.46-22.165-0.743-32.814-4.26c-4.884-1.613-9.608-3.735-14.336-5.787
	c-6.739-2.925,1.134-11.937-6.981-15.189c-33.058-1.305-60.592,13.712-85.545,34.533c-22.864,19.079-41.297,42.219-58.9,66.132
	c-21.517,29.228-43.699,58.023-73.006,80.153c-29.675,22.409-59.975,22.306-89.835,0.045c-5.855-4.365-11.291-9.291-18.3-15.102
	c-47.377,35.597-100.998,59.35-158.136,78.04c38.929,43.755,40.323,65.395,9.803,124.877c4.83,1.849,9.515,3.948,14.383,5.462
	c62.789,19.538,126.641,20.974,191.134,10.99c81.78-12.66,159.081-39.691,234.405-73.064c22.809-10.106,42.554-23.365,49.238-50.012
	c38.085,8.798,68.715,27.299,96.104,51.728c26.601,23.726,49.482,50.911,72.238,78.219c24.163,28.997,48.166,58.183,76.849,82.989
	c12.791,11.062,25.717,22.039,42.118,28.472c26.513-27.204,55.74-47.55,95.52-47.36c0.549,8.689-4.841,9.315-8.494,10.733
	c-49.549,19.235-82.134,55.724-107.112,101.372c-51.365,93.871-91.722,192.028-119.962,295.243
	c-11.706,42.785-20.435,86.325-34.03,128.641c-19.986,62.207-52.786,113.913-113.463,143.863c-1.321,0.652-2.496,1.592-3.781,2.323
	c-21.403,12.155-36.793,29.769-45.894,52.466c-14.308,35.687-28.073,71.591-41.909,107.465c-3.766,9.764-6.015,19.987-4.072,30.456
	c1.976,10.643,7.454,17.34,19.557,14.763c19.575-86.066,26.87-103.071,50.965-117.052c1.353,12.893-3.927,23.64-8.346,34.205
	c-11.782,28.164-18.928,57.061-17.383,87.82C2370.105,4134.492,2373.468,4138.871,2383.25,4139.519z M1515.9,3202.693
	c3.465,36.486,17.375,68.33,26.005,101.694c-7.258,0.387-11.158-3.363-15.524-5.77c-29.142-16.07-58.001-32.662-87.336-48.37
	c-40.442-21.654-81.846-41.401-123.841-59.859c-10.827-4.759-22.08-10.534-36.039-3.66c13.986,17.956,29.994,30.983,44.921,45.16
	c16.841,15.995,38.584,24.251,56.751,38.061c22.137,16.826,43.818,34.088,64.854,56.136c-11.87,1.815-18.333-3.681-25.128-7.271
	c-23.617-12.48-45.154-28.226-66.75-43.796c-19.388-13.978-40.824-23.953-62.751-32.87c-9.915-4.032-20.635-8.044-32.372-0.922
	c48.283,58.422,119.563,85.211,176.158,133.001c-9.341,6.365-14.279,1.053-19.106-1.113c-29.722-13.339-58.429-28.668-86.314-45.523
	c-25.49-15.407-53.02-26.245-81.26-35.185c-8.75-2.77-19.322-6.481-26.291,3.604c-4.46,6.455,1.58,16.103,14.089,24.68
	c1.22,0.837,2.467,1.65,3.769,2.348c28.037,15.027,55.4,31.541,84.31,44.645c31.945,14.479,60.136,34.751,89.845,52.693
	c3.861,2.332,6.92,5.821,3.035,11.858c-4.565,1.635-9.315-0.255-14.15-1.96c-25.845-9.117-50.428-20.682-74.714-33.578
	c-35.889-19.058-75.331-24.659-115.821-22.255c-1.139,0.068-2.181,1.754-3.411,2.809c-3.831,11.269,1.63,18.614,11.113,23.27
	c7.253,3.561,15.062,6.123,22.812,8.517c97.48,30.112,196.252,56.089,292.173,91.148c7.339,2.682,12.665,1.304,18.715-1.863
	c14.816-7.757,23.079-20.132,26.808-36.188c1.184-5.099-1.236-12.667,9.006-14.284c12.787,27.171-3.422,46.889-18.533,66.973
	c45.688,20.983,87.764,45.786,130.186,69.916c156.968,89.284,325.788,135.03,506.238,138.11c32.574,0.556,65.279,0.632,97.56-3.813
	c39.198-5.398,49.033-21.236,33.959-58.005c-27.951-68.184-66.126-127.446-134.701-164.104
	c-81.372-43.499-151.67-103.018-218.609-166.023c-40.863-38.462-84.815-74.055-118.306-119.875
	c-1.066-1.458-3.752-1.733-6.192-2.777c-10.613,6.498-10.679,17.234-11.089,27.29c-1.124,27.59,8.101,52.376,22.143,75.567
	c32.847,54.248,73.703,101.74,121.438,143.425c14.658,12.8,30.803,21.713,49.805,27.555
	c68.553,21.074,130.907,54.505,187.202,99.026c4.048,3.201,9.441,5.74,11.121,12.604c-3.164-0.542-4.739-0.433-5.914-1.066
	c-80.738-43.543-168.079-72.431-250.225-112.993c-55.475-27.392-115.203-41.938-176.927-47.689
	c-28.733-2.677-57.545-4.791-86.152-8.473c-60.85-7.832-104.305-39.14-126.918-97.142c-7.786-19.972-15.06-40.143-22.536-60.235
	c-5.944-15.975-12.441-31.716-21.801-46.036C1543.718,3208.62,1534.768,3199.302,1515.9,3202.693z M2411.12,1547.511
	c8.896,0,14.04,0.087,19.18-0.013c90.122-1.747,164.859,81.647,153.399,171.094c-6.311,49.261-30.208,89.342-65.538,122.847
	c-49.846,47.271-110.896,66.144-178.33,67.687c-73.616,1.685-142.69-18.961-211.39-42.812c-4.218,6.033-0.438,8.628,4.64,11.321
	c13.61,7.216,27.283,14.361,40.516,22.233c95.063,56.554,177.906,127.473,247.815,213.153c9.087,11.137,18.441,14.941,32.078,14.626
	c34.358-0.794,67.69-5.796,99.796-18.618c65.637-26.213,114.835-72.042,154.1-129.344c34.429-50.246,58.77-104.92,61.182-166.633
	c3.98-101.823-36.769-184.51-114.511-248.464c-49.251-40.516-106.293-61.078-171.296-51.571
	C2456.85,1516.808,2432.894,1525.634,2411.12,1547.511z M1512.686,3269.287c-4.549-19.403-9.373-36.316-12.35-53.548
	c-4.298-24.885,13.101-38.305,36.485-28.782c13.492,5.495,23.382,15.146,30.74,27.684c12.057,20.542,20.097,42.78,28.119,65.046
	c7.768,21.559,15.101,43.284,26.468,63.358c14.833,26.195,36.175,44.382,64.674,54.476c19.701,6.978,39.959,11.014,60.67,12.374
	c68.125,4.472,135.601,12.291,200.257,35.975c2.71,0.992,5.569,1.958,8.33-0.4c-1.38-7.095-7.67-10.486-12.174-15.125
	c-31.56-32.509-59.53-67.795-83.334-106.369c-9.756-15.81-19.307-32.053-22.689-50.319c-5.635-30.443-12.787-61.961,17.89-84.528
	c-2.915-11.955-8.501-22.577-8.972-34.642c18.007-8.706,35.122-19.23,54.515-19.107c18.075,0.114,25.14-10.137,30.292-23.707
	c9.484-24.979,5.889-47.767-12.779-67.817c-10.113-10.861-20.345-13.923-35.51-9.158c-146.111,45.912-295.434,67.139-448.742,56.072
	c-5.305-0.383-11.044-1.755-17.172,1.546c5.277,8.208,9.663,14.948,13.967,21.739c23.62,37.269,41.267,77.324,47.807,120.891
	C1482.289,3255.663,1493.573,3262.906,1512.686,3269.287z M416.906,1941.729c3.534,3.367,5.334,4.667,6.612,6.361
	c30.937,41.014,72.012,64.521,122.573,73.107c54.621,9.276,109.098,8.471,163.602,0.302
	c74.349-11.143,145.486-33.937,214.682-62.491c83.403-34.417,165.957-70.882,249.161-105.786
	c137.161-57.539,280.125-89.84,428.852-94.704c133.691-4.372,264.241,14.281,391.058,57.563c7.138,2.436,14.123,7.658,22.903,4.239
	c-5.963-9.112-5.944-9.151-9.363-10.796c-110.007-52.899-225.929-83.661-347.718-91.46c-141.903-9.086-280.535,9.08-416.34,50.972
	c-97.417,30.051-188.335,74.305-277.294,123.261c-47.993,26.412-97.026,50.796-149.378,67.625
	c-50.551,16.25-102.293,25.745-155.268,17.244c-125.638-20.162-215.293-88.663-269.033-204.068
	c-1.851-3.975-1.331-10.455-9.127-10.243c0.874,12.699-6.423,24.684-0.425,37.347c2.117,4.471-2.235,8.105-4.438,11.868
	c-42.206,72.072-36.951,143.904,1.504,215.364c2.462,4.575,3.648,11.399,11.655,11.979
	C392.458,2005.439,390.609,1970.851,416.906,1941.729z M2821.278,3537.447c3.519,0.986,4.958,1.884,6.2,1.666
	c48.985-8.598,96.099-23.558,142.233-41.868c10.757-4.269,15.138-12.652,18.041-23.366
	c28.789-106.228,40.082-213.545,20.754-322.803c-11.583-65.483-33.748-127.042-69.831-183.211
	c-14.808-23.051-23.707-26.832-49.871-22.002c-15.271,2.819-30.488,5.926-45.75,8.791c-48.825,9.165-97.808,16.262-147.728,11.289
	c-4.559-0.454-9.451-2.63-15.761,0.885c21.812,23.131,42.534,45.027,63.169,67.004c50.155,53.415,97.804,109.019,144.846,165.173
	c16.998,20.291,23.832,42.125,15.505,67.854c-1.362,4.208-2.239,8.571-3.395,12.847
	C2876.357,3366.006,2852.26,3452.077,2821.278,3537.447z M4049.739,5117.231c-4.442-12.428-8.103-23.281-4.406-35.423
	c8.154-26.781,7.519-53.291-4.564-79.126c-5.948-12.718-10.496-26.125-16.907-38.588c-37.245-72.401-79.868-141.82-118.855-213.257
	c-62.532-114.58-132.379-224.192-215.2-325.467c-52.601-64.322-98.467-133.339-133.479-209.079
	c-1.532-3.315-2.723-7.035-8.134-5.842c-12.992,44.878-34.891,85.5-65.598,120.688c35.749,52.452,75.65,98.165,115.997,143.479
	c52.722,59.212,103.811,119.711,147.255,186.202c63.557,97.275,126.965,194.65,189.955,292.292
	c24.215,37.536,42.527,77.761,51.759,121.909c2.636,12.605,5.221,26.098,16.735,36.439c7.543-22.738,0.988-45.917,6.173-70.651
	c10.774,7.719,11.013,16.63,11.735,24.974c1.212,14.008,1.219,28.143,2.92,42.08
	C4026.908,5122.477,4032.647,5124.717,4049.739,5117.231z M3087.811,4032.797c1.66,0.335,3.321,0.669,4.981,1.004
	c0.899,1.95,2.348,3.834,2.591,5.862c0.704,5.868,1.328,11.799,1.273,17.698c-0.784,83.666-26.075,159.995-69.946,230.551
	c-3.548,5.706-7.033,10.325-4.854,17.189c1.804-0.188,3.579,0.163,4.608-0.556c54.772-38.253,105.931-80.53,147.415-133.439
	c22.492-28.688,41.856-59.252,53.91-93.909c12.232-35.167,7.57-63.458-22.53-91.188
	c-135.123-124.486-237.292-270.706-287.402-451.708c-9.207,0.866-19.182,4.23-28.987,9.4c2.167,17.461,7.513,32.792,12.972,48.034
	c9.737,27.183,18.058,54.758,25.148,82.755c27.603,109.007,56.477,217.731,70.768,329.591c9.984,78.15,12.948,156.388,2.236,234.716
	c-2.635,19.261-6.245,38.389-10.2,62.392C3050.866,4218.638,3069.44,4125.755,3087.811,4032.797z M862.099,2870.858
	c-24.96-23.429-48.128-46.228-69.713-70.569c-90.096-101.602-156.117-216.816-195.985-346.771
	c-2.633-8.583-5.08-16.079-13.722-21.515c-66.313-41.706-110.156-101.819-139.552-173.292
	c-20.612-50.115-33.36-102.492-43.567-155.56c-1.025-5.327,0.593-11.885-6.509-15.751c-11.258,18.024-16.618,37.875-19.665,58.378
	c-10.617,71.451-4.629,142.265,16.501,210.655c73.974,239.418,229.222,407.532,455.651,511.767
	C849.957,2870.235,854.259,2874.227,862.099,2870.858z M2447.41,2144.537c5.365,7.796,8.229,12.085,11.22,16.285
	c85.288,119.754,140.587,251.359,156.984,398.214c6.535,58.528,1.861,115.335-28.287,167.793c-0.997,1.734-0.735,4.191-1.177,7.069
	c31.648,36.926,67.24,68.547,115.571,82.142c68.53,19.276,139.173-19.226,157.56-86.47c9.977-36.488,4.366-71.017-17.204-104.3
	c-5.633,7.566-5.391,14.527-7.244,20.783c-13.582,45.864-51.446,75.98-97.353,77.39c-48.38,1.487-90.671-26.743-106.341-71.949
	c-8.594-24.793-10.869-50.291-6.994-76.587c5.443-36.938,18.751-71.467,30.547-106.484c19.756-58.65,31.344-118.714,31.414-180.736
	c0.041-36.545-4.537-72.387-18.979-106.382c-13.586-31.981-33.098-59.096-64.15-78.251
	C2555.991,2131.048,2505.063,2143.926,2447.41,2144.537z M1186.564,3202.142c-1.944-0.994-2.6-1.622-3.232-1.599
	c-2.14,0.077-4.347,0.1-6.394,0.648c-60.425,16.19-112.557-0.812-157.853-41.143c-38.211-34.023-55.009-79.398-63.98-128.45
	c-5.47-29.913-4.529-60.178-4.433-89.906c-33.77-17.427-60.905-44.113-100.666-51.282c4.281,37.649,2.229,73.689,2.063,109.731
	c-0.098,21.416,0.043,42.914,1.751,64.24c3.759,46.917,15.423,91.723,39.831,132.505c39.823,66.54,107.722,98.228,182.804,83.844
	C1124.686,3271.49,1160.611,3243.836,1186.564,3202.142z M2852.335,4058.375c47.441-55.823,79.666-117.396,94.223-187.367
	c4.102-19.718,3.079-39.403-2.173-59.256c-13.615-51.463-25.303-103.444-39.373-154.776c-10.083-36.783-22.77-72.852-34.144-108.763
	c-13.565-0.624-13.034,9.653-15.099,16.75c-16.21,55.723-24.126,112.644-25.303,170.694c-1.759,86.82,8.401,172.833,16.091,259.029
	C2848.452,4015.918,2850.407,4037.145,2852.335,4058.375z M2293.743,2809.462c3.021,0,3.995,0.308,4.437-0.047
	c5.753-4.618,11.315-9.479,17.146-13.993c37.016-28.66,77.802-43.482,124.164-28.216c15.592,5.135,25.438,0.662,35.599-8.932
	c12.713-12.005,21.022-26.724,25.209-43.55c4.485-18.021,6.433-36.365,4.724-54.993c-4.578-49.875-20.862-96.507-39.705-142.376
	c-2.661-6.476-5.325-13.456-10.794-18.15c-5.331,0.596-5.856,4.946-7.363,7.961c-36.136,72.308-78.829,140.427-129.702,203.327
	c-4.74,5.86-8.489,12.168-10.017,19.522C2302.038,2756.013,2296.561,2782.008,2293.743,2809.462z M3820.682,2355.365
	c19.109,98.404-20.442,169.89-88.072,231.824c50.008,17.433,95.38,38.438,140.668,60.08
	C3900.528,2560.065,3881.344,2423.828,3820.682,2355.365z M2869.239,4163.308c38.038-1.204,86.426-14.026,119.67-30.881
	c5.173-51.161-15.125-210.027-31.094-234.053c-29.624,98.795-85.711,179.581-160.906,252.084
	c46.148,5.123,77.71-11.406,101.88-43.774c17.063-22.851,26.783-49.192,34.261-76.461c1.664-6.07,0.883-13.26,9.719-19.334
	c3.807,14.307,0.97,27.313-1.506,39.547C2932.022,4096.068,2910.686,4134.761,2869.239,4163.308z M3675.83,3640.06
	c25.762,89.313,148.456,147.834,234.197,135.933c-22.105-7.843-43.18-16.623-63.082-27.973
	c-32.329-18.438-47.122-31.556-50.029-44.19c5.784-2.502,9.894,1.62,14.203,3.946c35.195,19.001,72.912,32.133,109.715,47.388
	c5.25,2.177,10.329,1.381,16.667,0.838c-2.621-3.337-3.639-5.466-5.322-6.651c-27.813-19.577-55.084-39.84-80.455-62.555
	c-3.404-3.047-7.44-4.493-11.991-5.194C3784.843,3673.143,3731.384,3658.84,3675.83,3640.06z M1289.881,3072.674
	c-1.194,3.777,0.458,5.467,1.972,6.96c29.897,29.5,53.321,63.037,64.447,104.092c1.986,7.328,6.931,10.528,13.163,13.6
	c28.441,14.015,56.681,28.439,85.068,42.564c2.246,1.117,5.193,3.204,7.525-0.23c-3.908-42.537-38.598-119.147-66.172-147.396
	c-4.611-4.724-9.709-5.881-15.66-6.719c-22.639-3.19-45.258-6.543-67.833-10.158
	C1304.758,3074.164,1297.332,3071.198,1289.881,3072.674z M2095.789,2932.627c27.8,31.449,54.527,34.71,84.479,11.617
	c5.836-4.5,11.299-9.526,16.65-14.609c28.03-26.632,48.787-59.285,73.253-88.871c2.239-2.708,3.929-6.472,4.396-9.944
	c3.333-24.808,6.282-49.667,9.893-78.872C2225.699,2819.359,2163.781,2878.126,2095.789,2932.627z M1501.648,888.379
	c-0.427-31.15-25.665-55.886-57.064-55.93c-32.531-0.046-58.094,25.636-57.416,57.683c0.662,31.285,25.809,56.102,56.989,56.239
	C1476.165,946.512,1502.086,920.365,1501.648,888.379z M1783.624,1007.942c32.944,0.057,57.455-24.575,57.205-57.488
	c-0.239-31.5-24.974-56.101-56.431-56.123c-31.462-0.022-56.882,24.451-57.529,55.385
	C1726.189,982.216,1751.212,1007.886,1783.624,1007.942z M1157.006,914.795c-0.255-32.547-25.926-57.568-58.219-56.746
	c-31.79,0.81-55.382,25.162-55.399,57.184c-0.017,32.47,25.481,57.357,58.05,56.658
	C1132.889,971.216,1157.252,946.183,1157.006,914.795z M1606.062,960.642c23.923-0.469,43.31-21.027,42.332-44.887
	c-0.951-23.206-20.366-41.739-43.468-41.495c-23.979,0.254-43.231,20.67-42.271,44.827
	C1563.581,942.374,1583.134,961.092,1606.062,960.642z M1280.349,937.494c23.103-0.508,42.111-19.966,41.938-42.935
	c-0.183-24.444-20.032-43.808-44.053-42.977c-23.481,0.813-41.979,19.739-41.96,42.928
	C1236.296,918.767,1256.046,938.028,1280.349,937.494z M957.067,1046.094c23.567,0.162,42.426-17.935,43.143-41.402
	c0.748-24.472-18.066-44.153-42.414-44.366c-23.435-0.205-42.413,18.077-43.03,41.453
	C914.112,1026.564,932.593,1045.926,957.067,1046.094z M1319.711,3449.366c-22.936,32.838-51.488,57.06-90.345,75.161
	c59.721,7.817,131.728-17.483,159.955-54.329C1365.84,3463.171,1342.844,3456.289,1319.711,3449.366z M745.738,2835.761
	c-33.723-20.465-63.975-42.874-95.772-65.742C651.55,2823.29,696.561,2854.455,745.738,2835.761z M2458.62,3856.424
	c-24.532-4.461-73.057-4.517-87.2-0.455C2389.691,3884.863,2436.408,3888.08,2458.62,3856.424z"/>
<path style="fill:#1B1919;" d="M930.465,6075.786c73.499-3.701,144.777,14.591,209.903,55.837
	c123.891,78.464,188.298,226.766,160.96,370.21c-27.71,145.392-141.042,260.317-286.468,286.289
	c-95.942,17.135-190.307,11.768-278.54-35.667c-131.815-70.866-203.249-212.85-187.967-354.984
	c17.258-160.511,136.297-280.206,275.077-312.514C857.67,6076.987,892.198,6075.149,930.465,6075.786z M953.317,6090.908
	c0.211,105.836-0.064,211.669,0.157,317.215c39.73,2.943,322.953,2.071,339.176-0.79
	C1277.556,6198.806,1087.585,6081.132,953.317,6090.908z M953.394,6780.769c178.979,4.722,334.671-154.492,337.923-318.489
	c-111.989,0-223.997,0-337.923,0c0,54.356,0,106.708,0,159.062C953.394,6674.478,953.394,6727.613,953.394,6780.769z
	 M899.927,6092.359c-172.846,20.721-294.638,175.675-297.187,316.035c98.908,0,197.82,0,297.187,0
	C899.927,6302.804,899.927,6198.594,899.927,6092.359z M900.16,6461.902c-100.868,0-199.051,0-297.224,0
	c2.392,156.127,144.806,303.847,297.224,315.13C900.16,6672.897,900.16,6568.799,900.16,6461.902z M944.355,6448.851
	c106.57,0,213.141,0.015,319.711-0.036c6.63-0.003,13.422,0.279,19.844-1.022c6.305-1.277,10.015-6.066,9.658-13.014
	c-0.354-6.882-4.114-11.012-10.859-11.789c-5.121-0.59-10.336-0.487-15.51-0.487c-213.141-0.023-426.282-0.024-639.422-0.011
	c-5.176,0-10.358,0.079-15.527,0.328c-6.953,0.334-11.038,4.538-11.865,10.981c-1.016,7.907,3.942,12.864,11.016,14.265
	c6.434,1.274,13.254,0.757,19.904,0.759C735.654,6448.858,840.004,6448.848,944.355,6448.851z M744.322,6135.075
	c-80.689,12.414-179.213,163.789-184.431,277.99c-3.864,84.567,17.736,161.117,68.061,229.124
	c31.338,42.348,70.011,76.302,119.19,97.346c-20.707-20.262-44.085-37.497-63.574-58.974c-19.987-22.025-37.7-45.629-51.955-71.729
	c-14.228-26.05-25.259-53.365-32.763-82.174c-7.502-28.798-11.57-58.02-12.117-87.683c-0.562-30.48,3.686-60.489,10.829-90.09
	c6.971-28.888,17.668-56.36,31.63-82.581c13.982-26.257,31.151-50.26,50.887-72.49
	C699.41,6172.04,722.345,6154.064,744.322,6135.075z M915.053,6463.557c-3.579,5.041-2.328,10.377-2.331,15.432
	c-0.071,92.37-0.083,184.74-0.024,277.11c0.012,18.125,4.117,25.805,13.48,26.311c10.18,0.548,14.96-7.882,14.97-27.174
	c0.048-92.371,0.046-184.74-0.051-277.111c-0.005-4.961,1.647-10.401-2.898-15.07
	C930.576,6461.657,922.634,6460.89,915.053,6463.557z M939.226,6408.619c0.974-3.283,1.736-4.656,1.737-6.03
	c0.105-97.447,0.16-194.895,0.158-292.342c0-3.659-0.087-7.455-1.026-10.948c-1.696-6.314-6.093-10.046-12.804-10.264
	c-7.859-0.256-12.617,4.116-14.014,11.415c-0.959,5.006-0.585,10.292-0.586,15.453c-0.026,91.543-0.047,183.086,0.052,274.63
	c0.006,5.765-1.449,11.825,2.116,17.527C922.596,6410.703,930.568,6409.618,939.226,6408.619z"/>
<path style="fill:#1B1919;" d="M2349.703,6782.756c30.74-0.399,55.111,23.097,55.706,53.708
	c0.614,31.557-24.201,57.12-55.239,56.904c-30.011-0.208-54.557-25.004-54.711-55.268
	C2295.302,6807.491,2319.156,6783.153,2349.703,6782.756z M2350.663,6795.771c-23.412-0.074-42.752,18.794-42.914,41.865
	c-0.157,22.511,19.809,42.582,42.526,42.749c22.878,0.167,42.593-19.362,42.735-42.335
	C2393.154,6814.73,2374.239,6795.846,2350.663,6795.771z"/>
<path style="fill:#1B1919;" d="M1582.065,4959.221c0.156,95.083-78.547,173.986-173.856,174.3
	c-95.882,0.316-173.792-77.087-174.261-173.128c-0.476-97.206,77.555-175.873,174.201-175.622
	C1503.193,4785.018,1581.91,4863.976,1582.065,4959.221z M1568.706,4960.461c0.299-88.991-71.166-161.896-159.39-162.604
	c-89.271-0.715-163.161,72.278-163.304,161.322c-0.141,87.915,72.884,161.237,160.915,161.57
	C1495.314,5121.084,1568.411,5048.66,1568.706,4960.461z"/>
<path style="fill:#1B1919;" d="M1019.067,5632.955c-0.213,89.393-71.349,160.403-160.836,160.547
	c-90.307,0.146-161.812-71.887-161.181-162.374c0.622-89.195,72.187-159.646,161.911-159.39
	C948.15,5471.993,1019.279,5543.615,1019.067,5632.955z M858.55,5780.538c81.981-0.166,147.91-66.052,147.993-147.897
	c0.083-81.58-66.066-147.826-147.9-148.116c-82.929-0.294-149.562,66.44-148.893,149.12
	C710.415,5715.763,776.198,5780.704,858.55,5780.538z"/>
<path style="fill:#1B1919;" d="M767.843,5042.619c0.031-80.187,63.677-143.866,143.613-143.688
	c79.65,0.178,143.462,64.758,142.894,144.614c-0.561,78.791-63.608,143.188-142.717,142.704
	C817.428,5185.672,764.961,5107.13,767.843,5042.619z M1042.009,5042.334c-0.164-72.196-59.334-130.7-131.788-130.304
	c-71.589,0.391-129.588,58.182-130.107,129.641c-0.521,71.777,58.732,131.692,130.559,132.02
	C982.164,5174.015,1042.172,5113.999,1042.009,5042.334z"/>
<path style="fill:#79ADAE;" d="M2014.149,3183.053c-8.329,1.552-16.181,0.403-23.441-4.132
	C1998.91,3178.075,2006.93,3178.291,2014.149,3183.053z"/>
<path style="fill:#1B1919;" d="M1228.022,2628.563c33.748,42.764,74.321,70.961,129.229,65.833c7-3.329,7.155-7.389,8.582-10.678
	c13.2-30.435,36.881-41.01,68.525-30.585c42.831,14.11,78.347,63.874,77.775,108.974c-0.534,42.071-33.222,64.839-72.891,50.28
	c-30.912-11.345-51.232-34.223-65.667-62.932c-2.943-5.854-5.192-12.055-8.638-20.158c-32.287,20.274-64.983,36.994-103.922,20.604
	c18.488,2.94,36.024-0.972,52.892-7.073c18.054-6.529,34.672-15.85,49.558-33.561
	C1297.938,2713.036,1256.948,2680.347,1228.022,2628.563z M1425.605,2663.788c-13.787-0.013-25.553,12.051-24.94,25.569
	c0.591,13.022,11.481,23.447,24.622,23.57c13.16,0.124,24.05-10.2,24.634-23.355
	C1450.559,2675.212,1439.798,2663.802,1425.605,2663.788z"/>
<path style="fill:#1B1919;" d="M2078.837,2193.973c32.619,49.05,36.891,96.809,18.024,147.769c5.932,5.58,11.314,7.181,19.387,2.722
	c26.745-14.773,47.028-34.74,56.617-64.652c1.548-0.802,0.124-0.567-0.094,1.353c-3.229,28.404-13.193,47.143-47.554,71.291
	c-1.678,8.657,6.321,10.993,10.577,15.441c24.635,25.747,38.218,56.016,37.432,91.846c-0.649,29.562-17.054,50.435-41.824,55.316
	c-13.004,2.563-24.898-0.819-36.378-6.359c-38.704-18.675-68.005-70.712-63.406-113.651c2.607-24.347,12.352-44.388,38.294-51.366
	c9.387-2.525,12.648-9.548,15.909-16.928c15.863-35.909,13.358-71.772-0.12-107.766
	C2083.233,2212.402,2077.49,2206.813,2078.837,2193.973z M2118.252,2383.385c-0.363-12.537-11.937-23.791-24.579-23.9
	c-13.442-0.117-25.802,12.344-25.313,25.52c0.456,12.292,12.363,23.929,24.67,24.113
	C2106.295,2409.316,2118.638,2396.723,2118.252,2383.385z"/>
<path style="fill:#1B1919;" d="M1814.18,2911.344c-14.042-1.168-31.045-2.137-47.544-6.82c-9.082-2.578-20.367-3.146-19.049-16.833
	c0.798-8.292,8.224-10.116,23.982-6.351c27.756,6.631,55.632,7.515,83.593,1.742c37.604-7.764,68.393-27.068,93.428-55.903
	c3.39-3.904,6.338-8.326,10.243-11.616c5.696-4.798,12.186-5.277,18.107-0.055c5.567,4.91,4.127,10.66,0.837,16.027
	c-2.306,3.761-5.133,7.254-8.052,10.582C1929.301,2888.185,1878.253,2910.934,1814.18,2911.344z"/>
<path style="fill:#1B1919;" d="M1784.111,2784.997c-5.229,0.297-10.848,0.494-11.908-6.419c-1.067-6.959,4.018-8.588,9.452-9.423
	c21.231-3.265,41.666-8.872,60.345-19.922c10.827-6.405,20.806-13.852,29.47-22.981c4.463-4.703,9.734-8.245,15.032-2.597
	c4.502,4.8,0.384,9.605-3.179,13.434c-18.485,19.865-41.153,33.118-66.841,41.224
	C1805.984,2781.625,1795.325,2784.722,1784.111,2784.997z"/>
<path style="fill:#1B1919;" d="M1270.507,2543.986c12.411-29.714,31.84-50.378,61.617-60.656c11.98-4.135,12.203-3.821,23.029,4.399
	c-1.191,6.057-6,7.783-11.074,9.056c-24.462,6.131-42.236,20.768-53.872,42.861
	C1286.216,2547.222,1282.055,2552.179,1270.507,2543.986z"/>
<path style="fill:#1B1919;" d="M3594.649,4184.889c4.787-11.398,14.618-14.588,20.671-21.456c2.554-2.898,6.675-2.429,9.7,0.55
	c3.014,2.969,2.823,6.371,0.967,9.894C3621.043,4183.263,3610.938,4187.178,3594.649,4184.889z"/>

    <text x="10" y="832" font-size="12" fill="gray" opacity="0.6" font-family="Arial, sans-serif">
      twoja-kolorowanka.pl
    </text>
  
</svg>
