<?xml version="1.0" encoding="utf-8"?>
<!-- Generator: Adobe Illustrator 27.5.0, SVG Export Plug-In . SVG Version: 6.00 Build 0)  -->
<svg version="1.1" xmlns="http://www.w3.org/2000/svg" xmlns:xlink="http://www.w3.org/1999/xlink" x="0px" y="0px"
	 viewBox="0 0 1280 1280" style="enable-background:new 0 0 1280 1280;" xml:space="preserve">
<g id="Слой_3">
	<rect x="3" y="1" style="fill:#FFFFFF;" width="1278" height="1278"/>
</g>
<g id="Слой_2">
	<g>
		<path d="M928.131,43.196c0.57,0,0.995,0.132,1.322,0.304c0.93,0.49,1.54,1.54,2,4c0.36,1.94,0.68,5.02,0,9
			c3.01,11.62,2.68,21.1,2,27c-0.97,8.5-3.31,15.17-5,20c-2.34,6.68-4.92,12.08-7,16c10.35,3.19,15.87,8.07,19,12
			c1.71,2.14,1.68,2.71,8,13c4.88,7.95,7.36,11.95,9,13c2.275,1.457,4.241,1.779,6.321,1.779c1.645,0,3.359-0.202,5.353-0.201
			c2.299,0,4.969,0.268,8.327,1.422c2.64,0.91,9.05,3.05,13,9c2.79,4.21,3.28,8.59,4,15c1.01,9-0.73,9.8,1,15
			c2.03,6.08,6.12,10.14,8,12c2.96,2.93,5.89,4.83,8,6c-0.001,0-0.001,0-0.002,0c-0.068,0-1.209,0.116-2.966,0.116
			c-3.46,0-9.306-0.449-14.032-3.116c-5-2.82-7.59-7.47-9-10c-1.91-3.42-2.78-6.57-4-11c-1.94-7.03-1.54-9.18-4-12
			c-0.73-0.84-3.07-3.44-7-4c-0.504-0.071-0.993-0.103-1.465-0.103c-3.365,0-5.842,1.621-6.535,2.103c5.64,6.58,7.37,12.6,8,16
			c0.77,4.13,0.51,7.51,0,14c-0.56,7.24-1.38,8.68-2,15c-0.44,4.47-1.04,10.58,0,18c1.31,9.28,4.54,15.99,7,21
			c2.69,5.47,4.72,9.6,9,14c3.69,3.8,7.48,6.17,12,9c7.61,4.77,8.53,3.82,12,7c5.44,4.98,7.89,10.64,9,14c1.07,3.25,3.55,10.8,1,17
			c-0.44,1.07-1.6,3.48-2,7c-0.24,2.11-0.13,3.86,0,5v21c-0.14,2.89-0.73,7.29-3,12c-3.92,8.14-10.44,12.17-15,15
			c-7.86,4.87-15.1,6.28-19,7c-4.341,0.802-8.109,1.009-10.987,1.009c-0.351,0-0.689-0.003-1.013-0.009c-1.44,1.9-4,4.78-8,7
			c-4.706,2.609-9.285,3.119-13.185,3.119c-1.362,0-2.642-0.062-3.815-0.119c-1.98-0.1-8.47-0.56-16-4c-8.23-3.76-13.05-8.96-14-10
			c-2.89-3.18-7.62-8.39-9-16c-0.6-3.32-0.28-5.52-2-9c-0.42-0.85-2.19-4.25-6-7c-3.71-2.68-7.32-3.28-12-4
			c-12.85-1.97-16.44-2.15-21-3c-4.32-0.8-10.59-2.41-18-6c-0.96,4.26-2.1,10.06-3,17c-1.02,7.92-2.59,20.64-1,37
			c0.71,7.3,1.72,17,6,29c2.87,8.05,6.26,14.45,9,19c3.41,1.73,7.99,4.31,13,8c4.21,3.1,14.01,10.45,22,23
			c5.36,8.42,8.92,17.62,11,23c3.04,7.85,4.15,12.53,9,18c2.36,2.66,6.58,7.28,13,8c0.557,0.062,1.096,0.091,1.619,0.091
			c3.089,0,5.662-1.005,8.381-2.091c6.67-2.67,10.76-6.34,16-11c5.65-5.02,11.38-9.95,17-15c10.52-9.46,15.77-14.18,18-16
			c8.28-6.76,10.15-7.44,14-12c2.93-3.47,4.11-5.75,8-9c1.77-1.48,5-4.13,10-6c1.769-0.662,5.829-2.014,11.088-2.014
			c0.3,0,0.604,0.004,0.912,0.014c5.96,0.18,9.88,2.07,15,4c4.4,1.66,10.26,3.1,22,6c5.68,1.4,6.06,1.26,27,5
			c25.192,4.498,26.284,5.004,29.425,5.004c0.183,0,0.373-0.002,0.575-0.004c0.182-0.002,0.363-0.003,0.545-0.003
			c5.758,0,11.515,1.136,17.255,1.136c1.067,0,2.134-0.039,3.2-0.132c0.357-0.031,0.883-0.081,1.518-0.081
			c1.234,0,2.877,0.19,4.482,1.081c2.26,1.26,3,3.1,5,6c0,0,0.94,1.36,6,7c4.24,4.72,8.96,7.5,15,11c10.83,6.27,11.74,4.81,20,10
			c2.57,1.61,8.06,5.26,14,11c3.53,3.41,6.35,6.94,12,14c3.05,3.81,5.66,7.26,10,13c2.5,3.31,4.56,6.07,6,8c0,0,0.82,0.52,1,1
			c0.14,0.37,0.01,0.97-1,2c-7.97,7.4-15.53,12.09-21,15c-3.41,1.81-7.79,4.11-14,6c-9.05,2.75-16.34,2.91-22,3
			c-0.496,0.008-1.008,0.012-1.537,0.012c-6.242,0-14.681-0.597-24.463-3.012c-1.33-2.21-2.74-4.88-4-8c-1.5-3.71-2.42-7.12-3-10
			c-0.12-5.2-1.12-9.27-2-12c-1.53-4.74-2.98-6.2-4-7c-0.516-0.405-2.615-2.038-5.293-2.038c-0.231,0-0.467,0.012-0.707,0.038
			c-1.48,0.16-2.99,1.11-6,3c-1.28,0.8-2.31,1.51-3,2c-1.69,0.9-3.24,1-4,1c-1.91,0-3.33-0.64-4-1c-1.39-0.94-3.47-2.33-6-4
			c-9.4-6.19-14.1-9.29-19-12c-8.28-4.58-15.07-6.94-21-9c-2.5-0.87-11.36-3.88-23-6c-4.678-0.851-6.806-1.013-8.251-1.013
			c-0.269,0-0.515,0.006-0.749,0.013c-7.29,0.25-13,3.05-17,5c-3.48,1.7-4.01,2.39-11,6c-2.51,1.3-4.6,2.32-6,3
			c0.274-0.007,0.565-0.011,0.871-0.011c3.342,0,8.513,0.473,14.129,3.011c2.13,0.96,6.9,3.18,11,8c1.87,2.2,1.93,2.98,4,6
			c3.24,4.73,6.44,7.72,10,11c1.43,1.31,6.86,6.24,16,12c8.85,5.57,10.45,5.18,19,11c7.56,5.15,10.25,8.14,11,9
			c3.15,3.6,3.08,4.77,8,12c3.18,4.67,5.77,7.93,9,12c2.46,3.1,6.12,7.69,11,13c7.14,7.76,7.51,6.86,12,12
			c6.92,7.92,10.71,15.41,13,20c1.15,2.3,4.32,8.89,7,18c1.48,5.05,2.41,9.5,3,13c0.14,0.37,0.77,2.07,0,4c-0.84,2.09-2.68,2.87-3,3
			c-1.16,0.52-2.88,1.25-5,2c-4.61,1.62-8.12,2.27-12,3c-15.72,2.94-14.53,2.81-16,3c-3.798,0.487-8.222,1.029-13.78,1.029
			c-0.72,0-1.46-0.009-2.22-0.029c-4.01-0.1-8.34-0.74-17-2c-8.74-1.27-12.96-2.23-16-3c-2.89-0.74-5.29-1.46-7-2
			c-0.34-0.05-1.24-0.24-2-1c-1.18-1.19-1.03-2.78-1-3c0.57-2.53,1.25-5.56,2-9c2.11-9.7,2.44-11.94,2-15c-0.36-2.46-0.94-6.47-4-9
			c-1.89-1.56-2.85-1.01-6-3c-1.88-1.19-4.69-2.97-6-6c-0.79-1.83-0.62-3.15,0-9c0.66-6.26,0.99-9.39,1-10c0.05-5.35-2.24-9.33-5-14
			c-2.8-4.74-10.59-17.92-27-25c-4.121-1.773-9.476-4.025-16.672-4.025c-0.435,0-0.878,0.008-1.328,0.025c-2.61,0.1-9.69,0.65-17,5
			c-6.22,3.7-6.73,6.66-15,16c-6.89,7.79-12.89,12.92-20,19c-3.91,3.34-9.73,8.29-18,14c-7,4.83-13.03,8.99-22,13
			c-4.89,2.18-12.03,5.32-22,7c-5.068,0.854-9.635,1.125-13.477,1.125c-1.647,0-3.161-0.05-4.523-0.125c-0.22,0.7-0.56,1.75-1,3
			c-1.55,4.42-6.14,16.53-18,32c-9.43,12.3-18.46,20.2-24,25c-11.02,9.54-20.21,15.35-34,24c-7.63,4.79-8.15,4.83-31,18
			c-28.92,16.67-33.59,19.76-46,26c-10.92,5.49-20.06,9.5-26,12c-2.99,15.34-6.79,27.85-10,37c-4,11.42-7.9,19.98-12,29
			c-4.17,9.16-7.12,15.6-12,24c-3.77,6.49-6.93,11.11-13,20c-5.68,8.31-6.79,9.48-14,20c-7.9,11.53-9.84,14.9-11,17
			c-4.08,7.37-6.41,11.58-8,18c-0.56,2.25-2.43,10.42-1,21c1.02,7.51,3.24,12.85,5,17c3.61,8.51,7.58,13.95,15,24
			c0.99,1.34,6.01,7.58,16,20c6.49,8.06,9.48,11.77,14,17c5.06,5.85,7.79,8.99,12,13c5.93,5.65,7.74,6.28,13,11
			c4.39,3.94,8.26,8.63,16,18c6.95,8.42,12.56,15.85,17,22c2.88,3.99,5.25,7.42,7,10c4.49,3.78,9.86,9.02,15,16
			c3.97,5.39,6.88,10.56,9,15c0.61,1.42,1.83,4.82,1,9c-0.44,2.2-1.3,3.89-2,5c-1.85,1.04-4.58,2.49-8,4c-4.61,2.03-12.38,5.01-31,8
			c-6.48,1.04-14.96,2.2-25,3c0.15,1.33,0.22,3.68-1,6c-1.17,2.22-2.98,3.39-4,4c-12.85,7.77-24,10-24,10
			c-8.099,1.878-14.6,2.001-22.342,2.001c-0.546,0-1.099-0.001-1.658-0.001c-12.37-0.01-21.26-1.51-24-2c-7.92-1.42-14.52-2.66-22-7
			c-7.83-4.54-10.36-8.85-11-10c-2.46-4.43-2.84-8.83-3-11c-0.11-1.45-0.14-3.27,1-11c1.73-11.69,2.47-11.95,2-15
			c-0.74-4.81-3.18-8.15-6-12c-1.1-1.5-4.41-5.82-10-10c-5.54-4.14-7.74-3.98-11-8c-1.04-1.28-3.21-4.02-4-8
			c-0.75-3.79,0.25-6.18,1-10c1.45-7.41,0.62-13.44,0-18c-0.53-3.89-2.02-7.93-5-16c-3.1-8.41-5.14-13.94-9-21
			c-2.69-4.92-4.92-8.14-9-14c-5.28-7.59-8.69-12.51-14-18c-1.81-1.87-2.5-2.43-14-12c-16.64-13.85-17.51-14.61-19-16
			c-8.71-8.1-14.5-14.96-17-18c-3.8-4.64-6.8-8.79-9-12c-0.64-0.63-2.56-2.69-3-6c-0.39-2.92,0.58-5.16,1-6
			c4.17-11.54,7.66-20.83,10-27c7.26-19.15,9.65-24.46,12-35c1.13-5.08,2.63-13.05,3-23c0.35-9.5,0.51-15.12-2-22
			c-2.18-5.99-5.33-10.01-10-16c-4.51-5.77-8.83-10.09-12-13c0.03,7.6-1.02,23.19-11,38c-3.62,5.37-9.26,13.51-20,18
			c-5.53,2.31-10.57,2.89-14,3c2.65-1.19,23.89-11.09,29-33c2.84-12.17-0.43-23.17-1-25c-1.95-6.28-4.83-10.99-7-14
			c-0.913,0.075-1.922,0.124-3.012,0.124c-0.939,0-1.938-0.036-2.988-0.124c-2.3-0.19-4.32-0.57-6-1c-3.75,1.35-9.25,2.84-16,3
			c-0.398,0.009-0.793,0.014-1.184,0.014c-8.817,0-15.756-2.31-19.816-4.014c3.39,1.55,25.51,12.1,31,35c1.07,4.47,4.24,17.67-3,30
			c-2.88,4.9-6.48,8.11-9,10c2.16-2.76,8.98-12.19,8-25c-0.85-11.12-7.11-18.44-11-23c-6.81-7.97-14.5-12.04-19-14
			c1.68,4.49,6.65,19.47,0,35c-4.69,10.96-13.07,17.28-18,21c-7.19,5.43-14.16,8.37-19,10c-13.18,10.1-22.21,20.4-28,28
			c-4.72,6.19-11.55,15.29-17,29c-3.31,8.34-5.04,15.69-6,21c-0.99-7.85-2-24.54,6-43c5.4-12.46,12.85-21,18-26
			c-11.89,2.94-27.41,9.01-37,23c-3.8,5.53-4.68,9.41-8,18c-8.26,21.35-17.91,36.47-24,46c-10.29,16.11-19.86,30.77-38,43
			c-4.78,3.22-9.01,5.51-12,7c12.35-15.11,28.07-38.44,38-70c4.24-13.48,6.66-26.01,8-37c-2.59,6.95-8.4,19.57-21,30
			c-12.23,10.12-24.7,13.08-37,16c-7.188,1.71-17.511,3.509-30.235,3.509c-3.722,0-7.651-0.154-11.765-0.509
			c8.22-0.89,22.12-3.46,37-12c12.65-7.26,21.06-15.99,26-22c-21.08,8.3-39.32,11.58-52,13c-6.915,0.773-14.018,1.539-21.949,1.539
			c-5.821,0-12.089-0.413-19.051-1.539c-5.67-0.91-23.15-4.13-43-15c-7.28-3.98-13-7.97-17-11
			c26.113,8.334,48.243,10.009,63.129,10.009c0.637,0,1.261-0.003,1.871-0.009c18.79-0.18,37.28-0.58,55-12
			c4.27-2.75,13.7-8.98,21-21c4.97-8.19,7.05-15.92,8-21c-2-2.33-4-4.67-6-7c-2.09,5.35-10.58,25.21-31,33
			c-5.04,1.92-9.83,2.74-14,3c5.83-3.59,13.65-9.57,20-19c2.94-4.36,6.84-10.3,8-19c0.55-4.11,0.32-7.6,0-10
			c-2.59-1.88-6.69-5.38-10-11c-0.79-1.34-4.44-7.74-5-17c-0.56-9.3,2.3-16.48,4-20c-7.06,2.4-15.81,4.72-26,6
			c-5.932,0.747-11.439,1.026-16.4,1.026c-0.884,0-1.752-0.009-2.6-0.026c10.04-3.85,29.4-12.96,45-33c7.62-9.79,12.2-19.44,15-27
			c-3.14,0.94-7.59,2.11-13,3c-6.019,0.985-11.163,1.279-16.097,1.279c-3.329,0-6.563-0.134-9.903-0.279c-9.66-0.42-14.63-0.68-21-3
			c-4.35-1.58-7.72-3.52-10-5c2.293,0.164,4.484,0.239,6.583,0.239c18.019,0,28.921-5.552,33.417-8.239c8.69-5.19,17-13,17-13
			c4.75-4.47,6.65-7.11,12-12c5.6-5.12,10.64-8.75,14-11c-12.72,4.08-23.53,5.48-31,6c-4.255,0.292-8.071,0.556-11.727,0.556
			c-5.471,0-10.585-0.59-16.273-2.556c-11.05-3.82-18.26-10.76-22-15c16.01,8.9,29.83,10,37,10c12.27,0,21.75-3.21,30-6
			c13.46-4.56,15.15-7.6,32-15c4.07-1.79,16.96-7.31,34-12c15.11-4.16,25.489-7.013,39.383-7.013c0.534,0,1.073,0.004,1.617,0.013
			c12.65,0.2,23.23,2.59,29,4c10.71,2.62,12.78,4.44,23,7c4.755,1.189,17.195,4.023,33.454,4.023c0.838,0,1.688-0.008,2.546-0.023
			c10.92-0.2,22.43-0.51,36-6c6.52-2.63,11.57-5.68,15-8c1.37-3.46,3.59-8.43,7-14c9.16-14.96,20.39-23.55,29-30
			c8.34-6.26,15.56-10.17,30-18c2.98-1.62,13.43-7.24,28-14c17.09-7.93,18.43-7.49,29-13c2.33-1.22,12.97-6.81,26-16
			c8.73-6.16,18.95-13.35,30-25c5.99-6.32,12.16-13.86,18-21c3.35-4.1,6.09-7.56,8-10c0.47-3.75,1.12-7.76,2-12
			c0.9-4.31,1.92-8.32,3-12c-1,0.33-2,0.67-3,1c-2.28,2-5.68,4.85-10,8c-6.25,4.56-11.37,7.51-14,9c-14.92,8.49-24.01,12.44-36,19
			c-11.8,6.46-17.96,9.82-26,16c-6.35,4.88-17.77,13.64-27,27c-0.21,0.31-0.11,0.16-12,18c-0.25,0.38-5.75,8.63-6,9
			c2.74-11.11,7.48-25.5,16-41c6.89-12.54,14.42-22.49,21-30c-12.61,3.39-21.35,8.22-27,12c-4.86,3.25-7.56,5.81-17,12
			c-10.37,6.8-13.92,8.17-17,9c-3.417,0.921-6.33,1.2-9.962,1.2c-2.045,0-4.318-0.088-7.038-0.2c-5.71-0.23-13.62-0.94-23-3
			c3.67-0.16,25.03-1.34,38-14c4.99-4.87,8-10,8-10c4.19-7.13,2.88-9.56,7-17c1.69-3.06,4.86-8.64,11-13c4.74-3.37,5.63-2.01,10-5
			c7.31-5,10.41-12.62,13-19c1.37-3.36,3.09-8.46,4-15c-2.9,2.46-6.94,5.65-12,9c-5.02,3.32-12.7,8.34-23,12
			c-10.68,3.79-19.18,4.35-29,5c-2.146,0.141-5.314,0.302-9.283,0.302c-5.314,0-12.064-0.289-19.717-1.302
			c-6.44-0.85-11.87-1.99-16-3c14.72-2.17,26.93-4.79,36-7c18.37-4.47,24.45-7.36,29-10c11.14-6.46,17.23-13.79,19-16
			c3.91-4.89,6.42-9.55,8-13c-14.23,1.62-24.81,5.06-32,8c-5.52,2.26-10.88,4.99-25,11c-5.03,2.14-9.2,3.86-12,5
			c5.44-5.74,12.05-11.93,20-18c4.47-3.42,8.84-6.4,13-9c-0.31-6.85,0.38-15.65,4-25c5.26-13.6,14.11-21.65,19-26
			c6.07-5.4,11.89-8.87,16-11c-0.67-1.33-1.33-2.67-2-4c2,0.67,4,1.33,6,2c7-3.39,14.67-6.78,23-10c9.54-3.68,18.59-6.63,27-9
			c-1.023-0.018-2.034-0.026-3.034-0.026c-15.434,0-28.044,2.035-36.966,4.026c-11.69,2.61-21.75,4.95-33,12
			c-9.15,5.74-15.89,12.6-19,16c-3.47,3.79-6.11,7.28-8,10c-0.17-4.17-0.32-19.83,11-34c13.77-17.23,33.74-18.8,37-19
			c-3.05,0.04-7.57,0.24-13,1c-11.3,1.59-19.77,4.68-26,7c-3.54,1.32-8.38,3.26-14,6c5.9-6.06,17.76-16.64,36-23
			c11.909-4.153,22.642-5.161,30.543-5.161c2.011,0,3.84,0.065,5.457,0.161c-9.74-1.93-18.25-2.71-25-3
			c-2.442-0.105-4.789-0.151-7.043-0.151c-11.915,0-21.138,1.302-26.957,2.151c-9.51,1.39-17.63,3.26-24,5
			c5.31-3.28,13.07-7.52,23-11c14.51-5.09,26.47-6.07,39-7c4.669-0.348,10.193-0.611,16.445-0.611
			c5.063,0,10.604,0.172,16.555,0.611c-3.6-1.76-8.7-4-15-6c-5.622-1.782-16.971-5.276-31.801-5.276
			c-2.317,0-4.721,0.085-7.199,0.276c-14.17,1.09-24.61,5.13-32,8c-7.13,2.76-12.89,5.7-17,8c1.54-2.93,4.04-6.99,8-11
			c4.52-4.58,10.07-8.22,23-13c8.11-3,19.24-6.49,33-9c5.93-5.52,15.53-13.19,29-19c10.66-4.6,19.42-6.17,30-8
			c8.925-1.545,21.101-3.041,35.805-3.04c1.376,0,2.776,0.013,4.195,0.04c-9.52-1.06-29.09-4.42-45-17c-9.46-7.48-12.21-13.94-13-16
			c-2.85-7.38-2.31-14.46-2-18c0.48-5.57,1.86-10.04,3-13c0.46,2.75,1.32,6.6,3,11c1.17,3.06,5.46,13.91,15,22
			c9.01,7.64,18.7,9.41,28,11c4.352,0.744,10.365,1.484,17.733,1.484c9.663,0,21.655-1.274,35.267-5.484
			c-1.668,0.105-3.677,0.186-5.965,0.186c-1.841,0-3.864-0.052-6.035-0.186c-6.46-0.4-15.06-1-25-5c-11.54-4.64-18.21-11.18-20-13
			c-6.34-6.47-7.6-11.12-8-13c-0.79-3.71-0.42-6.93,0-9c2.73,5.19,9.56,16.39,23,23c2.59,1.27,10.62,4.93,25,5
			c0.131,0.001,0.26,0.001,0.392,0.001c10.662,0,23.979-2.075,55.608-17.001c11.3-5.33,26.11-12.85,43-23
			c-8.19-1.219-15.711-1.699-22.505-1.699c-13.556,0-24.214,1.914-31.495,3.699c-16.42,4.02-32.49,11.5-40,15
			c-5.85,2.72-10.63,5.2-14,7c13.33-14.22,26.5-23.36,36-29c16.98-10.09,31.68-14.6,43-18c15.13-4.54,28.29-6.8,38-8
			c-10.45-2.12-17.75-6.17-22-9c-8.68-5.78-14.14-12.78-19-19c-3.12-3.99-5.44-7.51-7-10c2.01,1.19,5.12,2.98,9,5
			c6.26,3.26,21.03,10.41,40,15c6.93,1.679,11.909,2.028,15.318,2.028c0.61,0,1.17-0.011,1.682-0.028c3.79-0.12,6.9-0.6,9-1
			c3.23-1.16,8.18-3.09,14-6c9.28-4.64,10.42-6.6,17-9c7.232-2.639,13.484-3.057,16.886-3.057c0.93,0,1.648,0.031,2.114,0.057
			c6.03,0.32,10.86,1.79,14,3c0.91-3.68,2.42-8.56,5-14c1.77-3.74,5.24-10.92,12-18c6.62-6.94,8-4.99,14-12c5.98-6.99,10-12,10-12
			c1.31-1.63,3.37-4.23,7-6c1.181-0.576,3.05-1.489,4.897-1.489c0.719,0,1.434,0.138,2.103,0.489c0.92,0.48,1.98,1.48,3,5
			c1.42,4.87,1.12,8.93,1,11c-0.21,3.59-0.35,8.65,0,15c0.28,1.28,0.61,2.62,1,4c0.61,2.17,1.3,4.17,2,6c8.57-7.48,13.79-14.7,17-20
			c5.66-9.34,11.62-18.5,17-28c0,0,3.52-6.21,9-8C927.122,43.282,927.673,43.196,928.131,43.196 M468.453,439.5
			c4.82-2.68,10.16-5.39,16-8c5.24-2.34,10.27-4.32,15-6c0.51-3.22,1.87-9.03,6-15c4.87-7.04,10.99-10.53,14-12
			c-6.71,1.1-27.84,5.45-42,24C472.883,428.49,470.143,434.51,468.453,439.5 M270.453,902.5c5.66-4.77,12.64-9.99,21-15
			c7.93-4.75,15.42-8.32,22-11c2.39-12.84,0.74-22.17-1-28c-0.58-1.93-1.58-4.87-10-22c-3.32-6.75-6.11-12.27-8-16
			c-0.47,9.43-1.77,17.25-3,23c-1.29,6-2.66,12.27-6,20c-3,6.96-6.4,12.34-9,16c-0.26,5.05-0.85,10.77-2,17
			C273.353,892.48,271.933,897.83,270.453,902.5 M611.953,1103c-0.51-3.53-1.39-8.37-3-14c-0.56-1.95-2.98-10.24-9-22
			c-5.67-11.09-11.24-18.82-15-24c-3.79-5.21-10.24-14.02-20-24c-4.43-4.53-8.35-8.07-14-15c-6.73-8.25-8.27-11.91-9-14
			c-2.56-7.31-1.81-14.02-1-18c-3.3,10.29-3.4,18.64-3,24c0.79,10.52,4.2,18.03,11,33c2.93,6.46,5.85,12.88,11,21
			c7.34,11.57,14.61,19.31,20,25c6.89,7.27,12.85,12.42,17,16C602.753,1096,607.923,1100.01,611.953,1103 M928.131,38.196
			c-1.024,0-2.111,0.185-3.23,0.551c-7.117,2.325-11.34,9.479-11.798,10.287c-3.489,6.162-7.315,12.321-11.015,18.278
			c-1.947,3.134-3.96,6.375-5.911,9.596c-2.873,4.744-6.352,9.25-10.385,13.459c-0.129-0.512-0.252-1.029-0.368-1.547
			c-0.25-4.797-0.243-9.515,0.021-14.028l0.013-0.217c0.133-2.253,0.41-6.941-1.204-12.475c-1.22-4.21-2.913-6.69-5.487-8.033
			c-1.338-0.7-2.825-1.056-4.416-1.056c-2.999,0-5.657,1.297-7.086,1.993c-4.591,2.238-7.236,5.531-8.657,7.3l-0.051,0.063
			c-0.042,0.052-4.049,5.041-9.902,11.882c-2.658,3.105-4.106,4.049-5.94,5.245c-1.919,1.251-4.306,2.808-7.879,6.554
			c-7.459,7.812-11.273,15.871-12.901,19.312c-1.505,3.173-2.8,6.449-3.871,9.785c-3.385-0.904-6.846-1.454-10.344-1.639
			c-0.773-0.043-1.555-0.064-2.379-0.064c-4.283,0-10.987,0.583-18.6,3.36c-4.136,1.508-6.473,2.93-9.18,4.576
			c-2.075,1.262-4.428,2.692-8.342,4.649c-4.281,2.141-8.68,4.035-13.081,5.632c-2.608,0.477-5.244,0.761-7.842,0.843
			c-0.467,0.015-0.973,0.025-1.524,0.025c-4.276,0-8.901-0.617-14.141-1.887c-17.682-4.278-31.942-10.968-38.868-14.575
			c-2.971-1.547-5.919-3.184-8.762-4.868c-0.793-0.469-1.672-0.698-2.546-0.698c-1.314,0-2.614,0.517-3.581,1.509
			c-1.611,1.651-1.882,4.19-0.658,6.145c2.316,3.696,4.703,7.106,7.298,10.426l0.032,0.041c5.064,6.481,10.803,13.827,20.136,20.041
			c1.639,1.091,3.329,2.106,5.069,3.043c-6.643,1.385-13.238,3.057-19.735,5.006c-10.469,3.144-26.287,7.895-44.117,18.491
			c-13.593,8.07-26.074,18.123-37.094,29.879c-1.674,1.785-1.809,4.52-0.32,6.462c0.974,1.271,2.457,1.958,3.971,1.958
			c0.799,0,1.607-0.192,2.353-0.59c4.691-2.505,9.189-4.755,13.752-6.876c7.499-3.495,23.096-10.764,39.081-14.677
			c9.624-2.36,19.82-3.556,30.306-3.556c2.172,0,4.363,0.052,6.569,0.154c-9.596,5.358-19.371,10.388-29.197,15.023
			c-32.309,15.246-44.544,16.523-53.475,16.523l-0.367-0.001c-9.032-0.044-16.924-1.596-22.824-4.489
			c-10.942-5.382-17.338-14.303-20.776-20.838c-0.873-1.659-2.587-2.673-4.424-2.673c-0.235,0-0.472,0.017-0.709,0.051
			c-2.093,0.299-3.772,1.883-4.192,3.956c-0.758,3.734-0.754,7.447,0.01,11.035c1.073,5.041,4.208,10.242,9.319,15.458
			c3.292,3.348,10.481,9.626,21.706,14.139c0.734,0.295,1.462,0.574,2.182,0.836c-5.245-0.072-10.444-0.543-15.474-1.403
			c-8.591-1.469-17.475-2.987-25.609-9.885c-5.738-4.866-10.428-11.772-13.563-19.972c-1.251-3.276-2.173-6.654-2.739-10.039
			c-0.372-2.223-2.185-3.923-4.428-4.15c-0.17-0.017-0.339-0.026-0.506-0.026c-2.049,0-3.914,1.259-4.663,3.203
			c-1.776,4.611-2.891,9.445-3.316,14.368c-0.303,3.466-1.016,11.6,2.317,20.23c2.377,6.199,7.414,12.469,14.563,18.121
			c5.162,4.082,10.699,7.283,16.274,9.792c-3.03,0.389-6.04,0.842-9.026,1.359c-10.137,1.753-19.712,3.41-31.128,8.336
			c-10.704,4.617-20.57,10.985-29.344,18.938c-11.138,2.112-22.034,5.126-32.409,8.964c-12.432,4.596-19.161,8.439-24.824,14.177
			c-3.492,3.536-6.476,7.637-8.867,12.186c-1.03,1.96-0.649,4.363,0.937,5.908c0.958,0.933,2.217,1.418,3.49,1.418
			c0.835,0,1.675-0.209,2.44-0.637c5.255-2.941,10.76-5.532,16.363-7.701c7.219-2.804,17.099-6.641,30.579-7.677
			c2.255-0.174,4.548-0.261,6.815-0.261c5.401,0,10.346,0.498,14.669,1.201c-0.414,0.029-0.827,0.058-1.24,0.089
			c-12.199,0.905-24.815,1.842-40.283,7.268c-8.301,2.909-16.367,6.767-23.973,11.464c-2.115,1.306-2.949,3.967-1.958,6.247
			c0.809,1.862,2.636,3.008,4.585,3.008c0.437,0,0.879-0.058,1.319-0.177c7.602-2.076,15.477-3.717,23.406-4.876
			c3.397-0.496,8.772-1.28,15.561-1.737c-12.251,5.071-23.528,12.71-32.866,22.301c-1.695,1.741-1.893,4.449-0.469,6.418
			c0.967,1.337,2.491,2.07,4.054,2.07c0.739,0,1.487-0.164,2.189-0.506c3.996-1.948,7.996-3.685,12.186-5.292
			c-0.775,0.851-1.537,1.743-2.283,2.676c-11.689,14.632-12.349,30.977-12.09,37.325c0.087,2.146,1.536,3.997,3.598,4.597
			c0.462,0.135,0.932,0.2,1.397,0.2c1.609,0,3.155-0.779,4.106-2.147c2.287-3.292,4.838-6.48,7.582-9.477
			c3.788-4.142,9.979-10.129,17.969-15.141c3.315-2.077,6.518-3.717,9.69-5.065c-0.473,1.203-0.468,2.562,0.051,3.783
			c-4.53,2.697-8.794,5.817-12.721,9.311c-4.719,4.198-14.539,12.934-20.34,27.932c-2.957,7.636-4.434,15.731-4.403,24.102
			c-3.771,2.444-7.451,5.037-10.971,7.731c-7.268,5.549-14.197,11.785-20.591,18.531c-1.62,1.709-1.828,4.316-0.499,6.26
			c0.955,1.397,2.517,2.18,4.13,2.18c0.631,0,1.27-0.12,1.884-0.37c2.643-1.076,6.882-2.822,12.072-5.03
			c7.94-3.38,13.031-5.685,17.122-7.537c3.052-1.382,5.463-2.474,7.815-3.437c6.479-2.649,13.41-4.699,20.701-6.124
			c-0.792,1.156-1.626,2.282-2.5,3.375c-4.425,5.525-10.677,10.781-17.603,14.797c-4.106,2.382-9.624,5.075-27.674,9.467
			c-11.524,2.808-23.483,5.133-35.547,6.912c-2.366,0.349-4.154,2.324-4.265,4.713c-0.112,2.389,1.484,4.522,3.807,5.09
			c5.411,1.323,10.974,2.366,16.534,3.1c6.743,0.893,13.598,1.345,20.372,1.345c3.264,0,6.407-0.103,9.611-0.313
			c9.795-0.648,19.021-1.259,30.344-5.277c11.07-3.934,19.218-9.322,24.086-12.542c0.269-0.178,0.537-0.357,0.804-0.537
			c-0.063,0.16-0.128,0.319-0.192,0.478c-2.4,5.912-5.117,12.605-11.193,16.761c-1.523,1.042-2.294,1.299-3.462,1.689
			c-1.578,0.526-3.543,1.181-6.612,3.363c-7.213,5.122-10.904,11.804-12.48,14.658c-2.285,4.126-3.118,6.973-3.853,9.484
			c-0.675,2.306-1.258,4.298-3.081,7.4c-0.025,0.042-2.773,4.653-7.181,8.955c-11.014,10.751-29.364,12.349-34.726,12.583
			c-2.509,0.109-4.547,2.063-4.763,4.564c-0.216,2.502,1.456,4.776,3.909,5.315c7.958,1.748,15.989,2.795,23.871,3.112
			c2.908,0.119,5.132,0.204,7.239,0.204c4.386,0,7.649-0.398,11.264-1.372c4.106-1.106,8.261-2.971,18.44-9.646
			c5.802-3.804,9.182-6.319,11.898-8.339c1.775-1.32,3.307-2.46,5.139-3.685c2.933-1.962,6.05-3.745,9.338-5.342
			c-3.81,5.384-7.32,10.991-10.5,16.778c-7.296,13.273-12.838,27.475-16.472,42.21c-0.58,2.353,0.61,4.783,2.825,5.767
			c0.656,0.291,1.346,0.431,2.027,0.431c0.106,0,0.212-0.003,0.317-0.01c-6.043,3.037-10.477,5.407-12.703,6.617l-0.119,0.065
			c-14.57,7.901-21.884,11.866-30.494,18.329c-8.122,6.085-20.402,15.284-30.263,31.388c-2.607,4.258-4.886,8.724-6.787,13.297
			c-4.08,2.645-8.386,4.889-12.819,6.677c-12.973,5.249-24.262,5.455-34.221,5.638c-0.827,0.015-1.646,0.022-2.454,0.022
			c-10.955,0-22.104-1.34-32.242-3.874c-4.751-1.19-7.605-2.195-10.627-3.258c-3.277-1.153-6.665-2.346-12.397-3.748
			c-6.887-1.683-17.5-3.943-30.109-4.143c-0.572-0.009-1.137-0.013-1.697-0.013c-14.588,0-25.545,3.017-40.71,7.192
			c-15.918,4.381-28.564,9.552-34.686,12.244c-7.619,3.346-12.336,5.888-16.126,7.931c-4.844,2.611-8.344,4.497-15.465,6.91
			c-7.961,2.692-16.96,5.736-28.396,5.736c-11.589,0-23.543-3.24-34.571-9.37c-0.765-0.425-1.6-0.63-2.427-0.63
			c-1.473,0-2.92,0.651-3.898,1.865c-1.526,1.896-1.465,4.617,0.146,6.442c6.709,7.606,15.048,13.283,24.116,16.418
			c5.664,1.958,11.186,2.83,17.906,2.83c3.812,0,7.795-0.274,12.012-0.564l0.058-0.004c3.545-0.247,7.089-0.637,10.624-1.17
			c-1.649,1.609-2.965,2.997-4.252,4.353c-1.578,1.664-3.068,3.235-5.142,5.187c-0.076,0.071-8.035,7.51-16.137,12.349
			c-5.75,3.436-15.769,7.531-30.853,7.531c-2.032,0-4.127-0.076-6.227-0.226c-0.12-0.009-0.24-0.013-0.359-0.013
			c-2.134,0-4.051,1.362-4.738,3.41c-0.725,2.162,0.105,4.542,2.018,5.784c3.492,2.267,7.198,4.119,11.015,5.506
			c7.227,2.632,12.972,2.882,22.49,3.296c3.699,0.16,6.792,0.283,10.12,0.283c5.93,0,11.302-0.427,16.905-1.344
			c1.217-0.2,2.432-0.421,3.644-0.663c-2.894,5.911-6.373,11.487-10.397,16.658c-13.733,17.642-30.879,26.814-42.844,31.403
			c-2.233,0.856-3.547,3.174-3.135,5.531c0.412,2.356,2.436,4.09,4.827,4.137c0.881,0.017,1.781,0.026,2.699,0.026
			c5.685,0,11.413-0.358,17.024-1.065c5.854-0.735,11.692-1.862,17.445-3.364c-0.953,4.172-1.316,8.454-1.06,12.704
			c0.584,9.653,4.169,16.67,5.684,19.239c2.477,4.205,5.754,8.01,9.555,11.11c0.161,2.232,0.093,4.474-0.204,6.688
			c-1.031,7.735-4.591,13.013-7.19,16.868c-4.704,6.985-10.919,12.885-18.476,17.538c-1.954,1.203-2.838,3.582-2.144,5.769
			c0.662,2.087,2.598,3.489,4.764,3.489c0.104,0,0.209-0.003,0.313-0.01c5.363-0.334,10.568-1.451,15.469-3.318
			c14.463-5.517,23.538-16.53,28.833-25.516c-1.397,4.661-3.368,9.098-5.887,13.25c-6.858,11.292-15.67,16.967-19.433,19.39
			c-16.857,10.864-34.896,11.037-52.341,11.204c-0.593,0.005-1.202,0.009-1.823,0.009c-20.562,0-41.29-3.288-61.609-9.772
			c-0.503-0.16-1.015-0.237-1.52-0.237c-1.826,0-3.56,1.004-4.438,2.698c-1.122,2.162-0.522,4.818,1.419,6.288
			c5.567,4.216,11.495,8.052,17.621,11.401c18.858,10.327,36.042,14.175,44.606,15.55c6.664,1.078,13.157,1.602,19.844,1.602
			c8.459,0,16.246-0.87,22.504-1.57c10.709-1.199,21.375-3.265,31.898-6.171c-2.852,2.125-5.835,4.083-8.942,5.866
			c-10.788,6.191-22.58,10.016-35.049,11.365c-2.559,0.277-4.489,2.452-4.461,5.025c0.028,2.574,2.005,4.706,4.569,4.927
			c4.056,0.35,8.159,0.528,12.195,0.528c10.663,0,21.225-1.226,31.392-3.645c12.734-3.023,25.903-6.149,39.03-17.012
			c2.716-2.248,5.271-4.71,7.645-7.358c-0.798,3.025-1.666,6.029-2.602,9.005c-7.788,24.752-20.271,47.743-37.102,68.336
			c-1.492,1.825-1.506,4.443-0.036,6.285c0.975,1.22,2.427,1.88,3.909,1.88c0.754,0,1.516-0.171,2.228-0.525
			c4.296-2.141,8.523-4.606,12.563-7.328c19.364-13.055,29.56-29.018,39.42-44.455c5.98-9.358,15.989-25.021,24.449-46.887
			c0.797-2.061,1.456-3.857,2.037-5.441c1.851-5.042,2.87-7.82,5.421-11.531c4.134-6.03,9.928-10.987,17.312-14.826
			c-2.703,4.112-5.048,8.454-7.02,13.006c-7.763,17.913-7.751,34.692-6.373,45.614c0.309,2.449,2.359,4.307,4.827,4.372
			c0.045,0.001,0.09,0.002,0.135,0.002c2.411,0,4.487-1.725,4.918-4.11c1.237-6.843,3.164-13.587,5.727-20.045
			c5.314-13.367,11.942-22.06,16.329-27.813c7.52-9.871,16.407-18.806,26.425-26.57c7.1-2.482,13.695-6.003,19.612-10.472
			c5.026-3.792,14.372-10.845,19.583-23.023c4.122-9.626,4.32-19.043,3.196-26.669c2.725,2.054,5.216,4.387,7.406,6.95
			c3.632,4.257,9.091,10.658,9.816,20.133c0.767,10.03-4.026,17.799-6.952,21.538c-1.546,1.975-1.389,4.789,0.366,6.581
			c0.972,0.993,2.269,1.501,3.573,1.501c1.05,0,2.104-0.329,2.998-1c0.754-0.566,1.485-1.153,2.19-1.762
			c0.928,1.091,2.306,1.762,3.809,1.762c0.054,0,0.108-0.001,0.162-0.003c5.51-0.177,10.815-1.315,15.767-3.384
			c12.335-5.157,18.764-14.695,22.219-19.819c6.716-9.967,9.8-20.387,11.072-29.347c1.325,1.505,2.608,3.051,3.843,4.631
			l0.084,0.108c4.527,5.807,7.26,9.312,9.156,14.523c2.129,5.836,2.06,10.381,1.702,20.106c-0.274,7.378-1.218,14.607-2.884,22.099
			c-1.86,8.343-3.778,13.349-8.411,25.445c-0.997,2.602-2.116,5.524-3.383,8.868c-3.449,9.094-6.701,17.872-9.938,26.828
			c-0.784,1.664-1.855,4.771-1.342,8.607c0.552,4.149,2.651,7.011,4.078,8.522c2.827,4.104,5.857,8.133,9.01,11.984
			c5.229,6.358,11.102,12.578,17.463,18.493c1.604,1.496,2.526,2.298,19.206,16.182l1.249,1.039
			c9.987,8.31,10.803,8.989,12.358,10.596c4.985,5.154,8.137,9.685,13.358,17.191l0.13,0.187c3.942,5.662,6.113,8.781,8.717,13.543
			c3.688,6.745,5.68,12.15,8.696,20.331c2.85,7.718,4.28,11.591,4.737,14.946l0.007,0.055c0.59,4.341,1.325,9.743,0.04,16.31
			c-0.148,0.753-0.313,1.472-0.472,2.168c-0.648,2.828-1.319,5.752-0.526,9.763c1.05,5.291,3.937,8.844,5.024,10.182
			c2.538,3.13,4.736,4.396,7.062,5.735c1.401,0.807,2.85,1.641,4.825,3.117c3.421,2.558,6.604,5.738,8.961,8.952
			c2.632,3.593,4.534,6.191,5.09,9.804c0.141,0.916,0.153,0.991-0.389,3.882c-0.363,1.938-0.911,4.867-1.616,9.626
			c-1.198,8.123-1.183,10.216-1.039,12.11c0.151,2.055,0.556,7.542,3.614,13.049c2.388,4.29,6.835,8.403,12.863,11.898
			c8.381,4.863,15.786,6.19,23.626,7.596c5.276,0.943,13.872,2.07,24.878,2.078l1.662,0.001c8.073,0,14.927-0.156,23.413-2.117
			c1.205-0.251,12.535-2.756,25.517-10.606c0.96-0.574,3.945-2.359,5.836-5.948c0.61-1.16,1.054-2.411,1.328-3.724
			c7.018-0.657,14.077-1.552,21.041-2.67c18.358-2.948,26.59-5.881,32.223-8.361c2.886-1.274,5.722-2.693,8.435-4.218
			c0.724-0.407,1.336-0.989,1.779-1.691c1.298-2.059,2.198-4.309,2.673-6.687c1-5.036-0.16-9.28-1.309-11.954
			c-0.026-0.061-0.053-0.121-0.082-0.181c-2.641-5.531-5.832-10.85-9.486-15.811c-4.431-6.017-9.567-11.534-15.273-16.408
			c-2.163-3.178-4.415-6.389-6.699-9.553c-5.508-7.629-11.133-14.909-17.198-22.257l-0.085-0.103
			c-7.843-9.495-11.779-14.26-16.431-18.435c-2.422-2.173-4.141-3.517-5.804-4.818c-2.016-1.576-3.921-3.065-7.086-6.081
			c-3.949-3.761-6.431-6.596-11.667-12.651c-4.501-5.208-7.442-8.861-13.887-16.865l-0.289-0.36
			c-9.456-11.756-14.664-18.231-15.584-19.476c-7.611-10.308-11.115-15.195-14.418-22.981c-1.56-3.679-3.698-8.719-4.648-15.72
			c-1.182-8.747,0.055-15.734,0.897-19.119c1.433-5.786,3.596-9.693,7.523-16.786c0.904-1.636,2.581-4.673,10.75-16.596
			c3.733-5.447,5.782-8.317,7.762-11.092c1.797-2.518,3.495-4.896,6.241-8.913l0.151-0.221c5.942-8.702,9.214-13.495,13.045-20.089
			c5.089-8.759,8.239-15.679,12.227-24.44l0.094-0.206c4.13-9.085,8.031-17.667,12.074-29.213
			c3.956-11.275,7.204-23.065,9.666-35.083c7.981-3.419,15.996-7.149,23.861-11.103c9.1-4.576,14.002-7.425,27.101-15.041
			c4.958-2.883,11.128-6.47,19.15-11.094c8.377-4.828,13.691-7.857,17.571-10.068c6.66-3.796,8.671-4.941,13.59-8.029
			c13.418-8.416,23.113-14.498,34.614-24.454c5.167-4.477,14.782-12.808,24.695-25.738c8.369-10.916,14.788-22.288,18.586-32.923
			c0.324,0.004,0.647,0.005,0.969,0.005c4.791,0,9.605-0.402,14.307-1.194c10.751-1.812,18.547-5.287,23.205-7.364
			c9.398-4.201,15.61-8.488,22.804-13.451c8.614-5.948,14.745-11.185,18.408-14.314c7.185-6.144,13.38-11.441,20.498-19.489
			c3.004-3.393,5.009-5.959,6.619-8.021c2.802-3.588,3.962-5.073,7.191-6.994c5.845-3.478,11.678-4.188,14.635-4.301
			c0.384-0.015,0.763-0.022,1.136-0.022c6.285,0,10.949,2.006,14.696,3.618c14.915,6.435,22.003,18.433,24.671,22.95
			c2.679,4.534,4.325,7.515,4.306,11.352c-0.039,0.718-0.432,4.447-0.973,9.581l-0.053,0.502c-0.62,5.839-0.852,8.023,0.435,11.004
			c1.924,4.45,5.675,6.824,7.916,8.243c2.05,1.295,3.51,1.809,4.477,2.149c0.723,0.254,0.761,0.272,1.015,0.482
			c1.566,1.295,1.952,3.927,2.233,5.849c0.299,2.082,0.148,3.652-1.936,13.232c-0.747,3.425-1.424,6.443-1.992,8.964
			c-0.032,0.14-0.057,0.281-0.076,0.424c-0.277,2.028,0.21,4.983,2.404,7.196c1.513,1.513,3.224,2.106,4.339,2.34
			c2.299,0.72,4.643,1.387,6.971,1.983c3.39,0.859,7.728,1.827,16.521,3.104l0.515,0.075c8.556,1.245,12.851,1.87,17.079,1.976
			c0.8,0.02,1.583,0.03,2.344,0.03c6.075,0,10.896-0.618,14.416-1.069c0.875-0.113,1.058-0.148,2.813-0.489
			c1.751-0.34,5.396-1.046,13.47-2.556l0.161-0.031c3.944-0.742,7.67-1.443,12.577-3.167c1.809-0.64,3.596-1.354,5.321-2.125
			c1.291-0.542,4.211-2.122,5.66-5.728c0.902-2.262,0.975-4.762,0.221-7.11c-0.755-4.375-1.784-8.801-3.062-13.161
			c-2.598-8.831-5.705-15.588-7.326-18.83c-2.18-4.369-6.241-12.509-13.707-21.054c-2.334-2.672-3.729-3.923-5.206-5.247
			c-1.545-1.384-3.295-2.954-6.879-6.849c-4.885-5.315-8.564-9.952-10.763-12.722l-0.052-0.065
			c-3.169-3.993-5.672-7.147-8.732-11.641c-2.062-3.029-3.198-4.929-4.111-6.456c-1.268-2.121-2.185-3.653-4.259-6.022
			c-3.019-3.462-8.164-7.262-11.948-9.84c-4.886-3.326-7.642-4.741-10.56-6.239c-2.32-1.191-4.718-2.422-8.592-4.86
			c-5.83-3.674-11.116-7.635-15.286-11.455c-3.212-2.959-6.255-5.763-9.253-10.139c-0.763-1.113-1.204-1.858-1.63-2.578
			c-0.675-1.142-1.313-2.22-2.686-3.834c-4.927-5.792-10.614-8.355-12.755-9.32c-0.606-0.274-1.217-0.531-1.833-0.773
			c0.159-0.092,0.313-0.182,0.464-0.269c1.207-0.701,2.079-1.208,3.51-1.907l0.055-0.027c3.684-1.796,8.73-4.256,14.921-4.469
			c0.178-0.006,0.369-0.01,0.578-0.01c1.039,0,2.813,0.106,7.356,0.933c10.18,1.854,18.311,4.432,22.252,5.803
			c5.772,2.005,12.312,4.277,20.223,8.653c4.685,2.591,9.269,5.61,18.402,11.624l0.268,0.176c3.07,2.027,5.045,3.355,5.949,3.966
			c0.14,0.095,0.285,0.182,0.435,0.263c1.354,0.728,3.559,1.596,6.366,1.596c2.205,0,4.401-0.549,6.35-1.587
			c0.189-0.1,0.371-0.213,0.545-0.336c0.895-0.635,1.821-1.253,2.755-1.837c1.673-1.051,3.372-2.117,3.927-2.273
			c0.045-0.004,0.087-0.006,0.129-0.006c0.292,0,1.09,0.095,2.204,0.97c0.935,0.733,1.783,2.908,2.331,4.604
			c1.083,3.359,1.675,6.92,1.76,10.58c0.007,0.293,0.039,0.585,0.097,0.872c0.748,3.714,1.847,7.376,3.266,10.887
			c1.2,2.972,2.664,5.901,4.352,8.704c0.685,1.138,1.795,1.958,3.085,2.276c8.485,2.095,17.119,3.158,25.662,3.158
			c0.556,0,1.094-0.004,1.616-0.013c5.376-0.086,13.5-0.215,23.375-3.215c6.784-2.065,11.662-4.654,14.891-6.367
			c7.914-4.21,15.334-9.51,22.058-15.752c0.057-0.053,0.113-0.108,0.168-0.164c2.897-2.954,2.744-5.584,2.106-7.27
			c-0.458-1.223-1.298-2.152-2.114-2.817c-1.411-1.89-3.313-4.435-5.573-7.427c-4.345-5.747-6.967-9.214-10.087-13.111l-0.104-0.13
			c-5.718-7.144-8.587-10.73-12.325-14.341c-5.733-5.54-11.223-9.388-14.819-11.641c-4.475-2.812-7.046-3.862-9.768-4.973
			c-2.577-1.052-5.241-2.141-10.382-5.117c-6.193-3.589-10.173-5.993-13.785-10.014c-4.332-4.829-5.495-6.356-5.636-6.544
			c-0.407-0.592-0.765-1.149-1.111-1.687c-1.334-2.075-2.713-4.22-5.538-5.795c-2.049-1.138-4.374-1.714-6.917-1.714
			c-0.805,0-1.471,0.058-1.869,0.092l-0.077,0.007c-0.881,0.077-1.786,0.114-2.772,0.114c-2.622,0-5.294-0.264-8.124-0.543
			c-2.952-0.291-6.004-0.593-9.131-0.593c-0.203,0-0.406,0.001-0.609,0.004c-0.183,0.003-0.35,0.004-0.511,0.004
			c-1.55,0-2.433-0.154-10.005-1.554c-3.925-0.726-9.857-1.822-18.541-3.373c-6.976-1.246-11.64-2.056-15.045-2.648
			c-6.791-1.18-8.015-1.392-11.637-2.285l-0.448-0.111c-11.264-2.782-16.918-4.179-20.983-5.713
			c-0.73-0.275-1.434-0.549-2.123-0.817c-4.391-1.708-8.539-3.323-14.491-3.502c-0.36-0.011-0.714-0.016-1.063-0.016
			c-4.326,0-8.767,0.806-12.841,2.331c-5.909,2.21-9.655,5.342-11.455,6.847c-3.148,2.63-4.767,4.724-6.481,6.94
			c-0.654,0.846-1.33,1.72-2.132,2.67c-2.256,2.672-3.618,3.724-6.908,6.264c-1.645,1.27-3.691,2.85-6.434,5.089
			c-2.334,1.905-7.63,6.668-18.181,16.155c-3.206,2.881-6.515,5.781-9.716,8.586c-2.425,2.126-4.851,4.252-7.262,6.394l-0.156,0.139
			c-4.986,4.434-8.588,7.638-14.381,9.957c-2.699,1.078-4.487,1.733-6.522,1.733c-0.348,0-0.706-0.02-1.063-0.06
			c-4.286-0.481-7.314-3.529-9.816-6.349c-3.353-3.781-4.561-7.048-6.563-12.46c-0.464-1.254-0.957-2.588-1.515-4.028
			c-2.172-5.619-5.81-15.028-11.445-23.879c-8.652-13.59-19.26-21.401-23.253-24.341c-3.897-2.87-8.061-5.476-12.395-7.757
			c-3.135-5.375-5.777-11.052-7.86-16.896c-4.164-11.676-5.071-20.998-5.733-27.805c-1.565-16.099,0.03-28.48,0.982-35.877
			c0.462-3.56,1.026-7.104,1.687-10.59c4.447,1.74,8.948,3.036,13.444,3.868c2.314,0.431,4.394,0.7,7.272,1.072
			c3.055,0.395,7.239,0.936,13.881,1.954c4.481,0.689,7.149,1.174,9.83,3.111c2.733,1.972,4.093,4.45,4.445,5.162
			c0.82,1.66,0.943,2.773,1.145,4.618c0.098,0.893,0.209,1.904,0.417,3.056c1.638,9.03,7.221,15.173,10.22,18.474
			c1.914,2.095,7.249,7.36,15.622,11.185c5.627,2.57,11.958,4.15,17.826,4.446c1.22,0.059,2.586,0.126,4.067,0.126
			c3.8,0,9.552-0.388,15.609-3.746c2.974-1.651,5.636-3.79,7.939-6.379c3.528-0.074,7.069-0.435,10.545-1.078
			c3.861-0.713,11.896-2.196,20.725-7.666c4.936-3.063,12.331-7.653,16.871-17.081c2.076-4.308,3.25-8.994,3.489-13.927
			c0.004-0.081,0.006-0.161,0.006-0.242v-21c0-0.189-0.011-0.378-0.032-0.566c-0.146-1.281-0.146-2.583,0-3.868
			c0.274-2.417,1.021-4.167,1.466-5.212c0.072-0.168,0.136-0.319,0.19-0.451c3.256-7.917,0.361-16.71-0.875-20.465
			c-2.054-6.218-5.64-11.792-10.373-16.124c-2.407-2.206-4.079-2.986-6.015-3.889c-1.514-0.706-3.397-1.585-6.706-3.659
			c-4.375-2.739-7.807-4.888-11.068-8.247c-3.728-3.833-5.466-7.367-8.096-12.715c-2.245-4.571-5.315-10.825-6.54-19.5
			c-0.957-6.831-0.39-12.599,0.025-16.811c0.263-2.679,0.559-4.394,0.873-6.21c0.399-2.309,0.812-4.696,1.136-8.894
			c0.514-6.546,0.825-10.502-0.07-15.302c-0.759-4.096-2.253-8.055-4.461-11.835c0.997,0.378,1.926,1.058,2.772,2.031
			c0.779,0.893,0.937,1.427,1.575,4.354c0.322,1.477,0.722,3.315,1.379,5.697c1.254,4.553,2.245,8.151,4.454,12.108
			c1.521,2.728,4.685,8.407,10.909,11.917c5.508,3.108,12.007,3.76,16.488,3.76c1.662,0,2.846-0.092,3.235-0.122l0.024-0.002
			c2.155-0.126,4.002-1.628,4.548-3.739c0.571-2.207-0.422-4.52-2.415-5.625c-2.525-1.4-4.849-3.143-6.907-5.181
			c-1.661-1.643-5.116-5.061-6.775-10.03c-0.635-1.908-0.597-2.672-0.496-4.714c0.098-1.987,0.233-4.708-0.278-9.26
			c-0.753-6.708-1.347-11.993-4.801-17.204c-4.832-7.279-12.527-9.928-15.424-10.925l-0.115-0.04
			c-3.366-1.157-6.528-1.695-9.956-1.695c-1.188,0-2.268,0.062-3.221,0.116c-0.768,0.044-1.492,0.085-2.133,0.085
			c-1.314,0-2.275-0.15-3.525-0.927c-1.138-1.048-4.389-6.344-7.535-11.468c-2.779-4.524-4.306-7.131-5.317-8.857
			c-1.317-2.247-1.862-3.177-3.038-4.649c-3.913-4.913-9.256-8.82-15.927-11.654c1.779-3.775,3.366-7.649,4.74-11.571
			c1.79-5.115,4.219-12.056,5.249-21.086c1.052-9.131,0.423-18.483-1.872-27.809c0.457-3.316,0.397-6.564-0.18-9.671
			c-0.493-2.635-1.458-5.863-4.585-7.511C930.671,38.492,929.443,38.196,928.131,38.196L928.131,38.196z M504.943,370.06
			c4.082-1.275,8.209-2.246,12.548-3.222c-3.148,1.374-6.278,2.802-9.377,4.277c-0.361-0.12-0.723-0.24-1.084-0.361
			C506.335,370.524,505.639,370.293,504.943,370.06L504.943,370.06z M479.47,428.277c0.624-0.936,1.277-1.852,1.958-2.745
			c5.373-7.039,11.873-11.906,18.253-15.271c-2.085,3.567-3.64,7.465-4.587,11.5c-4.288,1.589-8.542,3.324-12.681,5.172
			C481.431,427.374,480.449,427.822,479.47,428.277L479.47,428.277z M495.246,603.758c0.124-0.145,0.241-0.298,0.35-0.459
			c0.254-0.376,5.78-8.665,6.034-9.051l0.273-0.41c11.276-16.92,11.492-17.243,11.684-17.526
			c8.74-12.65,19.459-20.888,25.863-25.809l0.049-0.038c7.678-5.902,13.505-9.092,25.112-15.446l0.242-0.133
			c4.949-2.708,9.361-4.946,14.031-7.316c6.52-3.308,13.261-6.728,22.041-11.724c2.097-1.188,7.69-4.356,14.474-9.307
			c0.686-0.5,1.369-1.007,2.047-1.52c-0.713,3.495-1.308,7.008-1.775,10.474c-2.305,2.93-4.686,5.899-7.091,8.843
			c-5.836,7.135-11.872,14.515-17.757,20.724c-10.648,11.226-20.456,18.147-29.11,24.253l-0.144,0.101
			c-8.295,5.85-17.328,11.41-25.437,15.656c-5.444,2.838-8.228,3.989-12.442,5.73c-3.694,1.527-8.291,3.427-16.344,7.164
			C502.931,600.014,498.864,601.972,495.246,603.758L495.246,603.758z M392.018,819.486c5.332-0.17,10.604-1.106,15.7-2.789
			c1.736,0.373,3.52,0.636,5.324,0.785c1.121,0.094,2.266,0.141,3.4,0.141c0.147,0,0.295-0.001,0.443-0.002
			c2.053,3.241,3.662,6.715,4.794,10.361c0.586,1.882,3.378,11.786,0.906,22.381c-2.905,12.458-11.754,20.621-18.496,25.211
			c6.527-13.283,3.326-26.653,2.232-31.225C403.773,833.729,398.103,825.554,392.018,819.486L392.018,819.486z M281.364,871.2
			c3.394-4.942,6.311-10.224,8.68-15.721c3.577-8.279,5.022-14.999,6.297-20.928c0.467-2.182,0.885-4.383,1.254-6.599
			c0.123,0.25,0.247,0.501,0.371,0.755c8.537,17.368,9.264,19.787,9.698,21.232c2.087,6.993,2.527,14.725,1.312,23.012
			c-6.878,2.941-13.625,6.386-20.092,10.26c-3.382,2.027-6.705,4.185-9.951,6.461c0.153-0.756,0.299-1.512,0.438-2.267
			C280.357,882.061,281.027,876.616,281.364,871.2L281.364,871.2z M604.204,1090.578c-1.344-1.112-2.674-2.234-3.986-3.365
			c-3.932-3.392-9.876-8.52-16.635-15.652c-5.148-5.435-12.201-12.88-19.407-24.239c-4.991-7.87-7.877-14.233-10.668-20.387
			c-4.82-10.61-7.771-17.108-9.33-23.457c0.856,1.13,1.818,2.353,2.902,3.682c4.544,5.573,8.036,9.059,11.413,12.43
			c0.953,0.952,1.908,1.904,2.887,2.906c9.667,9.884,16.084,18.706,19.531,23.445c3.583,4.936,9.001,12.401,14.591,23.335
			c5.125,10.011,7.617,17.519,8.646,21.104C604.166,1090.446,604.185,1090.512,604.204,1090.578L604.204,1090.578z"/>
	</g>
	<path style="fill:#FFFFFF;" d="M40.453,930.5c4,3.03,9.72,7.02,17,11c19.85,10.87,37.33,14.09,43,15c16.45,2.66,29.01,1.34,41,0
		c12.68-1.42,30.92-4.7,52-13c-4.94,6.01-13.35,14.74-26,22c-14.88,8.54-28.78,11.11-37,12c18.18,1.57,32.71-0.79,42-3
		c12.3-2.92,24.77-5.88,37-16c12.6-10.43,18.41-23.05,21-30c-1.34,10.99-3.76,23.52-8,37c-9.93,31.56-25.65,54.89-38,70
		c2.99-1.49,7.22-3.78,12-7c18.14-12.23,27.71-26.89,38-43c6.09-9.53,15.74-24.65,24-46c3.32-8.59,4.2-12.47,8-18
		c9.59-13.99,25.11-20.06,37-23c-5.15,5-12.6,13.54-18,26c-8,18.46-6.99,35.15-6,43c0.96-5.31,2.69-12.66,6-21
		c5.45-13.71,12.28-22.81,17-29c5.79-7.6,14.82-17.9,28-28c4.84-1.63,11.81-4.57,19-10c4.93-3.72,13.31-10.04,18-21
		c6.65-15.53,1.68-30.51,0-35c4.5,1.96,12.19,6.03,19,14c3.89,4.56,10.15,11.88,11,23c0.98,12.81-5.84,22.24-8,25
		c2.52-1.89,6.12-5.1,9-10c7.24-12.33,4.07-25.53,3-30c-5.49-22.9-27.61-33.45-31-35c4.24,1.78,11.62,4.22,21,4
		c6.75-0.16,12.25-1.65,16-3c1.68,0.43,3.7,0.81,6,1c2.27,0.19,4.3,0.14,6,0c2.17,3.01,5.05,7.72,7,14c0.57,1.83,3.84,12.83,1,25
		c-5.11,21.91-26.35,31.81-29,33c3.43-0.11,8.47-0.69,14-3c10.74-4.49,16.38-12.63,20-18c9.98-14.81,11.03-30.4,11-38
		c3.17,2.91,7.49,7.23,12,13c4.67,5.99,7.82,10.01,10,16c2.51,6.88,2.35,12.5,2,22c-0.37,9.95-1.87,17.92-3,23
		c-2.35,10.54-4.74,15.85-12,35c-2.34,6.17-5.83,15.46-10,27c-0.42,0.84-1.39,3.08-1,6c0.44,3.31,2.36,5.37,3,6
		c2.2,3.21,5.2,7.36,9,12c2.5,3.04,8.29,9.9,17,18c1.49,1.39,2.36,2.15,19,16c11.5,9.57,12.19,10.13,14,12
		c5.31,5.49,8.72,10.41,14,18c4.08,5.86,6.31,9.08,9,14c3.86,7.06,5.9,12.59,9,21c2.98,8.07,4.47,12.11,5,16
		c0.62,4.56,1.45,10.59,0,18c-0.75,3.82-1.75,6.21-1,10c0.79,3.98,2.96,6.72,4,8c3.26,4.02,5.46,3.86,11,8c5.59,4.18,8.9,8.5,10,10
		c2.82,3.85,5.26,7.19,6,12c0.47,3.05-0.27,3.31-2,15c-1.14,7.73-1.11,9.55-1,11c0.16,2.17,0.54,6.57,3,11
		c0.64,1.15,3.17,5.46,11,10c7.48,4.34,14.08,5.58,22,7c2.74,0.49,11.63,1.99,24,2c8.49,0.01,15.33,0.01,24-2c0,0,11.15-2.23,24-10
		c1.02-0.61,2.83-1.78,4-4c1.22-2.32,1.15-4.67,1-6c10.04-0.8,18.52-1.96,25-3c18.62-2.99,26.39-5.97,31-8c3.42-1.51,6.15-2.96,8-4
		c0.7-1.11,1.56-2.8,2-5c0.83-4.18-0.39-7.58-1-9c-2.12-4.44-5.03-9.61-9-15c-5.14-6.98-10.51-12.22-15-16
		c-1.75-2.58-4.12-6.01-7-10c-4.44-6.15-10.05-13.58-17-22c-7.74-9.37-11.61-14.06-16-18c-5.26-4.72-7.07-5.35-13-11
		c-4.21-4.01-6.94-7.15-12-13c-4.52-5.23-7.51-8.94-14-17c-9.99-12.42-15.01-18.66-16-20c-7.42-10.05-11.39-15.49-15-24
		c-1.76-4.15-3.98-9.49-5-17c-1.43-10.58,0.44-18.75,1-21c1.59-6.42,3.92-10.63,8-18c1.16-2.1,3.1-5.47,11-17
		c7.21-10.52,8.32-11.69,14-20c6.07-8.89,9.23-13.51,13-20c4.88-8.4,7.83-14.84,12-24c4.1-9.02,8-17.58,12-29
		c3.21-9.15,7.01-21.66,10-37c5.94-2.5,15.08-6.51,26-12c12.41-6.24,17.08-9.33,46-26c22.85-13.17,23.37-13.21,31-18
		c13.79-8.65,22.98-14.46,34-24c5.54-4.8,14.57-12.7,24-25c11.86-15.47,16.45-27.58,18-32c0.44-1.25,0.78-2.3,1-3
		c4.54,0.25,10.76,0.22,18-1c9.97-1.68,17.11-4.82,22-7c8.97-4.01,15-8.17,22-13c8.27-5.71,14.09-10.66,18-14
		c7.11-6.08,13.11-11.21,20-19c8.27-9.34,8.78-12.3,15-16c7.31-4.35,14.39-4.9,17-5c7.87-0.3,13.63,2.12,18,4
		c16.41,7.08,24.2,20.26,27,25c2.76,4.67,5.05,8.65,5,14c-0.01,0.61-0.34,3.74-1,10c-0.62,5.85-0.79,7.17,0,9
		c1.31,3.03,4.12,4.81,6,6c3.15,1.99,4.11,1.44,6,3c3.06,2.53,3.64,6.54,4,9c0.44,3.06,0.11,5.3-2,15c-0.75,3.44-1.43,6.47-2,9
		c-0.03,0.22-0.18,1.81,1,3c0.76,0.76,1.66,0.95,2,1c1.71,0.54,4.11,1.26,7,2c3.04,0.77,7.26,1.73,16,3c8.66,1.26,12.99,1.9,17,2
		c6.62,0.17,11.71-0.45,16-1c1.47-0.19,0.28-0.06,16-3c3.88-0.73,7.39-1.38,12-3c2.12-0.75,3.84-1.48,5-2c0.32-0.13,2.16-0.91,3-3
		c0.77-1.93,0.14-3.63,0-4c-0.59-3.5-1.52-7.95-3-13c-2.68-9.11-5.85-15.7-7-18c-2.29-4.59-6.08-12.08-13-20
		c-4.49-5.14-4.86-4.24-12-12c-4.88-5.31-8.54-9.9-11-13c-3.23-4.07-5.82-7.33-9-12c-4.92-7.23-4.85-8.4-8-12
		c-0.75-0.86-3.44-3.85-11-9c-8.55-5.82-10.15-5.43-19-11c-9.14-5.76-14.57-10.69-16-12c-3.56-3.28-6.76-6.27-10-11
		c-2.07-3.02-2.13-3.8-4-6c-4.1-4.82-8.87-7.04-11-8c-6.13-2.77-11.73-3.08-15-3c1.4-0.68,3.49-1.7,6-3c6.99-3.61,7.52-4.3,11-6
		c4-1.95,9.71-4.75,17-5c1.49-0.05,3.45-0.01,9,1c11.64,2.12,20.5,5.13,23,6c5.93,2.06,12.72,4.42,21,9c4.9,2.71,9.6,5.81,19,12
		c2.53,1.67,4.61,3.06,6,4c0.67,0.36,2.09,1,4,1c0.76,0,2.31-0.1,4-1c0.69-0.49,1.72-1.2,3-2c3.01-1.89,4.52-2.84,6-3
		c3.01-0.33,5.44,1.56,6,2c1.02,0.8,2.47,2.26,4,7c0.88,2.73,1.88,6.8,2,12c0.58,2.88,1.5,6.29,3,10c1.26,3.12,2.67,5.79,4,8
		c10.61,2.62,19.64,3.1,26,3c5.66-0.09,12.95-0.25,22-3c6.21-1.89,10.59-4.19,14-6c5.47-2.91,13.03-7.6,21-15
		c1.01-1.03,1.14-1.63,1-2c-0.18-0.48-1-1-1-1c-1.44-1.93-3.5-4.69-6-8c-4.34-5.74-6.95-9.19-10-13c-5.65-7.06-8.47-10.59-12-14
		c-5.94-5.74-11.43-9.39-14-11c-8.26-5.19-9.17-3.73-20-10c-6.04-3.5-10.76-6.28-15-11c-5.06-5.64-6-7-6-7c-2-2.9-2.74-4.74-5-6
		c-2.43-1.35-4.95-1.09-6-1c-6.98,0.61-13.99-1.09-21-1c-3.67,0.05-3.34-0.24-30-5c-20.94-3.74-21.32-3.6-27-5
		c-11.74-2.9-17.6-4.34-22-6c-5.12-1.93-9.04-3.82-15-4c-5.7-0.17-10.13,1.3-12,2c-5,1.87-8.23,4.52-10,6c-3.89,3.25-5.07,5.53-8,9
		c-3.85,4.56-5.72,5.24-14,12c-2.23,1.82-7.48,6.54-18,16c-5.62,5.05-11.35,9.98-17,15c-5.24,4.66-9.33,8.33-16,11
		c-3.18,1.27-6.16,2.43-10,2c-6.42-0.72-10.64-5.34-13-8c-4.85-5.47-5.96-10.15-9-18c-2.08-5.38-5.64-14.58-11-23
		c-7.99-12.55-17.79-19.9-22-23c-5.01-3.69-9.59-6.27-13-8c-2.74-4.55-6.13-10.95-9-19c-4.28-12-5.29-21.7-6-29
		c-1.59-16.36-0.02-29.08,1-37c0.9-6.94,2.04-12.74,3-17c7.41,3.59,13.68,5.2,18,6c4.56,0.85,8.15,1.03,21,3
		c4.68,0.72,8.29,1.32,12,4c3.81,2.75,5.58,6.15,6,7c1.72,3.48,1.4,5.68,2,9c1.38,7.61,6.11,12.82,9,16c0.95,1.04,5.77,6.24,14,10
		c7.53,3.44,14.02,3.9,16,4c4.53,0.22,10.65,0.52,17-3c4-2.22,6.56-5.1,8-7c2.98,0.05,7.13-0.1,12-1c3.9-0.72,11.14-2.13,19-7
		c4.56-2.83,11.08-6.86,15-15c2.27-4.71,2.86-9.11,3-12v-21c-0.13-1.14-0.24-2.89,0-5c0.4-3.52,1.56-5.93,2-7
		c2.55-6.2,0.07-13.75-1-17c-1.11-3.36-3.56-9.02-9-14c-3.47-3.18-4.39-2.23-12-7c-4.52-2.83-8.31-5.2-12-9
		c-4.28-4.4-6.31-8.53-9-14c-2.46-5.01-5.69-11.72-7-21c-1.04-7.42-0.44-13.53,0-18c0.62-6.32,1.44-7.76,2-15
		c0.51-6.49,0.77-9.87,0-14c-0.63-3.4-2.36-9.42-8-16c0.79-0.55,3.9-2.58,8-2c3.93,0.56,6.27,3.16,7,4c2.46,2.82,2.06,4.97,4,12
		c1.22,4.43,2.09,7.58,4,11c1.41,2.53,4,7.18,9,10c7.16,4.04,16.89,2.99,17,3c-2.11-1.17-5.04-3.07-8-6c-1.88-1.86-5.97-5.92-8-12
		c-1.73-5.2,0.01-6-1-15c-0.72-6.41-1.21-10.79-4-15c-3.95-5.95-10.36-8.09-13-9c-9.95-3.42-13.85,0.94-20-3
		c-1.64-1.05-4.12-5.05-9-13c-6.32-10.29-6.29-10.86-8-13c-3.13-3.93-8.65-8.81-19-12c2.08-3.92,4.66-9.32,7-16
		c1.69-4.83,4.03-11.5,5-20c0.68-5.9,1.01-15.38-2-27c0.68-3.98,0.36-7.06,0-9c-0.46-2.46-1.07-3.51-2-4c-0.59-0.31-1.5-0.49-3,0
		c-5.48,1.79-9,8-9,8c-5.38,9.5-11.34,18.66-17,28c-3.21,5.3-8.43,12.52-17,20c-0.7-1.83-1.39-3.83-2-6c-0.39-1.38-0.72-2.72-1-4
		c-0.35-6.35-0.21-11.41,0-15c0.12-2.07,0.42-6.13-1-11c-1.02-3.52-2.08-4.52-3-5c-2.39-1.25-5.36,0.2-7,1c-3.63,1.77-5.69,4.37-7,6
		c0,0-4.02,5.01-10,12c-6,7.01-7.38,5.06-14,12c-6.76,7.08-10.23,14.26-12,18c-2.58,5.44-4.09,10.32-5,14c-3.14-1.21-7.97-2.68-14-3
		c-2.17-0.12-9.79-0.36-19,3c-6.58,2.4-7.72,4.36-17,9c-5.82,2.91-10.77,4.84-14,6c-2.1,0.4-5.21,0.88-9,1
		c-3.37,0.11-8.83-0.02-17-2c-18.97-4.59-33.74-11.74-40-15c-3.88-2.02-6.99-3.81-9-5c1.56,2.49,3.88,6.01,7,10
		c4.86,6.22,10.32,13.22,19,19c4.25,2.83,11.55,6.88,22,9c-9.71,1.2-22.87,3.46-38,8c-11.32,3.4-26.02,7.91-43,18
		c-9.5,5.64-22.67,14.78-36,29c3.37-1.8,8.15-4.28,14-7c7.51-3.5,23.58-10.98,40-15c10.93-2.68,29.47-5.65,54-2
		c-16.89,10.15-31.7,17.67-43,23c-32.02,15.11-45.27,17.05-56,17c-14.38-0.07-22.41-3.73-25-5c-13.44-6.61-20.27-17.81-23-23
		c-0.42,2.07-0.79,5.29,0,9c0.4,1.88,1.66,6.53,8,13c1.79,1.82,8.46,8.36,20,13c9.94,4,18.54,4.6,25,5c4.87,0.3,8.99,0.19,12,0
		c-23.99,7.42-42.94,5.72-53,4c-9.3-1.59-18.99-3.36-28-11c-9.54-8.09-13.83-18.94-15-22c-1.68-4.4-2.54-8.25-3-11
		c-1.14,2.96-2.52,7.43-3,13c-0.31,3.54-0.85,10.62,2,18c0.79,2.06,3.54,8.52,13,16c15.91,12.58,35.48,15.94,45,17
		c-16.59-0.32-30.24,1.31-40,3c-10.58,1.83-19.34,3.4-30,8c-13.47,5.81-23.07,13.48-29,19c-13.76,2.51-24.89,6-33,9
		c-12.93,4.78-18.48,8.42-23,13c-3.96,4.01-6.46,8.07-8,11c4.11-2.3,9.87-5.24,17-8c7.39-2.87,17.83-6.91,32-8
		c18.34-1.41,32.5,2.94,39,5c6.3,2,11.4,4.24,15,6c-13.3-0.98-24.55-0.63-33,0c-12.53,0.93-24.49,1.91-39,7
		c-9.93,3.48-17.69,7.72-23,11c6.37-1.74,14.49-3.61,24-5c6.92-1.01,18.65-2.66,34-2c6.75,0.29,15.26,1.07,25,3
		c-7.97-0.47-21.06-0.21-36,5c-18.24,6.36-30.1,16.94-36,23c5.62-2.74,10.46-4.68,14-6c6.23-2.32,14.7-5.41,26-7
		c5.43-0.76,9.95-0.96,13-1c-3.26,0.2-23.23,1.77-37,19c-11.32,14.17-11.17,29.83-11,34c1.89-2.72,4.53-6.21,8-10
		c3.11-3.4,9.85-10.26,19-16c11.25-7.05,21.31-9.39,33-12c9.5-2.12,23.18-4.29,40-4c-8.41,2.37-17.46,5.32-27,9
		c-8.33,3.22-16,6.61-23,10c-2-0.67-4-1.33-6-2c0.67,1.33,1.33,2.67,2,4c-4.11,2.13-9.93,5.6-16,11c-4.89,4.35-13.74,12.4-19,26
		c-3.62,9.35-4.31,18.15-4,25c-4.16,2.6-8.53,5.58-13,9c-7.95,6.07-14.56,12.26-20,18c2.8-1.14,6.97-2.86,12-5
		c14.12-6.01,19.48-8.74,25-11c7.19-2.94,17.77-6.38,32-8c-1.58,3.45-4.09,8.11-8,13c-1.77,2.21-7.86,9.54-19,16
		c-4.55,2.64-10.63,5.53-29,10c-9.07,2.21-21.28,4.83-36,7c4.13,1.01,9.56,2.15,16,3c13.37,1.77,23.98,1.33,29,1
		c9.82-0.65,18.32-1.21,29-5c10.3-3.66,17.98-8.68,23-12c5.06-3.35,9.1-6.54,12-9c-0.91,6.54-2.63,11.64-4,15
		c-2.59,6.38-5.69,14-13,19c-4.37,2.99-5.26,1.63-10,5c-6.14,4.36-9.31,9.94-11,13c-4.12,7.44-2.81,9.87-7,17c0,0-3.01,5.13-8,10
		c-12.97,12.66-34.33,13.84-38,14c9.38,2.06,17.29,2.77,23,3c7.55,0.31,11.66,0.44,17-1c3.08-0.83,6.63-2.2,17-9
		c9.44-6.19,12.14-8.75,17-12c5.65-3.78,14.39-8.61,27-12c-6.58,7.51-14.11,17.46-21,30c-8.52,15.5-13.26,29.89-16,41
		c0.25-0.37,5.75-8.62,6-9c11.89-17.84,11.79-17.69,12-18c9.23-13.36,20.65-22.12,27-27c8.04-6.18,14.2-9.54,26-16
		c11.99-6.56,21.08-10.51,36-19c2.63-1.49,7.75-4.44,14-9c4.32-3.15,7.72-6,10-8c1-0.33,2-0.67,3-1c-1.08,3.68-2.1,7.69-3,12
		c-0.88,4.24-1.53,8.25-2,12c-1.91,2.44-4.65,5.9-8,10c-5.84,7.14-12.01,14.68-18,21c-11.05,11.65-21.27,18.84-30,25
		c-13.03,9.19-23.67,14.78-26,16c-10.57,5.51-11.91,5.07-29,13c-14.57,6.76-25.02,12.38-28,14c-14.44,7.83-21.66,11.74-30,18
		c-8.61,6.45-19.84,15.04-29,30c-3.41,5.57-5.63,10.54-7,14c-3.43,2.32-8.48,5.37-15,8c-13.57,5.49-25.08,5.8-36,6
		c-17.5,0.32-31-2.75-36-4c-10.22-2.56-12.29-4.38-23-7c-5.77-1.41-16.35-3.8-29-4c-14.72-0.23-25.31,2.68-41,7
		c-17.04,4.69-29.93,10.21-34,12c-16.85,7.4-18.54,10.44-32,15c-8.25,2.79-17.73,6-30,6c-7.17,0-20.99-1.1-37-10
		c3.74,4.24,10.95,11.18,22,15c9.49,3.28,17.38,2.73,28,2c7.47-0.52,18.28-1.92,31-6c-3.36,2.25-8.4,5.88-14,11
		c-5.35,4.89-7.25,7.53-12,12c0,0-8.31,7.81-17,13c-5.02,3-18.02,9.57-40,8c2.28,1.48,5.65,3.42,10,5c6.37,2.32,11.34,2.58,21,3
		c8.29,0.36,15.92,0.65,26-1c5.41-0.89,9.86-2.06,13-3c-2.8,7.56-7.38,17.21-15,27c-15.6,20.04-34.96,29.15-45,33
		c5.61,0.11,12.01-0.12,19-1c10.19-1.28,18.94-3.6,26-6c-1.7,3.52-4.56,10.7-4,20c0.56,9.26,4.21,15.66,5,17
		c3.31,5.62,7.41,9.12,10,11c0.32,2.4,0.55,5.89,0,10c-1.16,8.7-5.06,14.64-8,19c-6.35,9.43-14.17,15.41-20,19
		c4.17-0.26,8.96-1.08,14-3c20.42-7.79,28.91-27.65,31-33c2,2.33,4,4.67,6,7c-0.95,5.08-3.03,12.81-8,21
		c-7.3,12.02-16.73,18.25-21,21c-17.72,11.42-36.21,11.82-55,12C90.583,940.64,67.683,939.19,40.453,930.5z M519.453,398.5
		c-3.01,1.47-9.13,4.96-14,12c-4.13,5.97-5.49,11.78-6,15c-4.73,1.68-9.76,3.66-15,6c-5.84,2.61-11.18,5.32-16,8
		c1.69-4.99,4.43-11.01,9-17C491.613,403.95,512.743,399.6,519.453,398.5z M540.953,972c-0.81,3.98-1.56,10.69,1,18
		c0.73,2.09,2.27,5.75,9,14c5.65,6.93,9.57,10.47,14,15c9.76,9.98,16.21,18.79,20,24c3.76,5.18,9.33,12.91,15,24
		c6.02,11.76,8.44,20.05,9,22c1.61,5.63,2.49,10.47,3,14c-4.03-2.99-9.2-7-15-12c-4.15-3.58-10.11-8.73-17-16
		c-5.39-5.69-12.66-13.43-20-25c-5.15-8.12-8.07-14.54-11-21c-6.8-14.97-10.21-22.48-11-33
		C537.553,990.64,537.653,982.29,540.953,972z M270.453,902.5c1.48-4.67,2.9-10.02,4-16c1.15-6.23,1.74-11.95,2-17
		c2.6-3.66,6-9.04,9-16c3.34-7.73,4.71-14,6-20c1.23-5.75,2.53-13.57,3-23c1.89,3.73,4.68,9.25,8,16c8.42,17.13,9.42,20.07,10,22
		c1.74,5.83,3.39,15.16,1,28c-6.58,2.68-14.07,6.25-22,11C283.093,892.51,276.113,897.73,270.453,902.5z"/>
	<path style="fill:none;stroke:#000000;stroke-width:3;stroke-linecap:round;stroke-linejoin:round;stroke-miterlimit:10;" d="
		M1016.453,331.5c-0.24,2.11-0.13,3.86,0,5v21c-0.14,2.89-0.73,7.29-3,12c-3.92,8.14-10.44,12.17-15,15c-7.86,4.87-15.1,6.28-19,7
		c-4.87,0.9-9.02,1.05-12,1c-1.44,1.9-4,4.78-8,7c-6.35,3.52-12.47,3.22-17,3c-1.98-0.1-8.47-0.56-16-4c-8.23-3.76-13.05-8.96-14-10
		c-2.89-3.18-7.62-8.39-9-16c-0.6-3.32-0.28-5.52-2-9c-0.41-0.83-2.114-4.092-5.743-6.806c-1.145-3.213-1.866-7.307-0.757-11.694
		c1.14-4.507,3.746-7.483,6-10c4.572-5.105,8.534-6.68,16-11c10.248-5.929,15.373-8.894,19-13c6.745-7.635,8.983-16.824,10-21
		c2.128-8.739,0.322-10.347,3-17c1.283-3.187,4.265-10.597,12-15c3.655-2.081,7.371-2.914,10.669-3.135
		c1.253,3.347,2.633,6.195,3.831,8.635c2.69,5.47,4.72,9.6,9,14c3.69,3.8,7.48,6.17,12,9c7.61,4.77,8.53,3.82,12,7
		c5.44,4.98,7.89,10.64,9,14c1.07,3.25,3.55,10.8,1,17C1018.013,325.57,1016.853,327.98,1016.453,331.5z"/>
	<polygon style="fill:#FFFFFF;" points="915.953,120 913.953,113 913.953,98 914.953,86 918.953,69 924.953,55 927.953,51 
		930.953,57 932.953,65 933.953,79 931.953,90 927.953,104 923.953,116 920.953,120 	"/>
	<polyline style="fill:#FFFFFF;" points="865.953,163 868.953,157 873.953,146 875.953,137 877.953,125 877.953,114 875.953,100 
		872.953,89 869.953,81 861.953,92 856.953,99 850.953,112 846.953,123 844.953,135 844.953,145 844.953,154 846.953,163 
		852.953,165 859.953,165 865.953,163 	"/>
	<path style="fill:#FFFFFF;stroke:#000000;stroke-width:3;stroke-miterlimit:10;" d="M1152.453,693.5c-1.16,0.52-2.88,1.25-5,2
		c-4.61,1.62-8.12,2.27-12,3c-15.72,2.94-14.53,2.81-16,3c-4.29,0.55-9.38,1.17-16,1c-4.01-0.1-8.34-0.74-17-2
		c-8.74-1.27-12.96-2.23-16-3c-2.89-0.74-5.29-1.46-7-2c-0.34-0.05-1.24-0.24-2-1c-1.18-1.19-1.03-2.78-1-3c0.57-2.53,1.25-5.56,2-9
		c0.631-2.9,1.1-5.123,1.439-6.911c6.592-4.536,12.365-8.442,17.061-11.589c19.244-12.899,24.282-15.699,29-18
		c9.35-4.56,17.686-7.281,23.819-8.949c6.089,7.338,9.541,14.16,11.681,18.449c1.15,2.3,4.32,8.89,7,18c1.48,5.05,2.41,9.5,3,13
		c0.14,0.37,0.77,2.07,0,4C1154.613,692.59,1152.773,693.37,1152.453,693.5z"/>
	<path style="fill:#FFFFFF;stroke:#000000;stroke-width:3;stroke-miterlimit:10;" d="M744.453,1185.5c-1.85,1.04-4.58,2.49-8,4
		c-4.61,2.03-12.38,5.01-31,8c-6.48,1.04-14.96,2.2-25,3c0.15,1.33,0.22,3.68-1,6c-1.17,2.22-2.98,3.39-4,4c-12.85,7.77-24,10-24,10
		c-8.67,2.01-15.51,2.01-24,2c-12.37-0.01-21.26-1.51-24-2c-7.92-1.42-14.52-2.66-22-7c-7.83-4.54-10.36-8.85-11-10
		c-2.46-4.43-2.84-8.83-3-11c-0.11-1.45-0.14-3.27,1-11c1.121-7.575,1.826-10.349,2.055-12.195
		c26.935,1.775,47.841,2.557,59.445,2.695c3.595,0.043,10.007,0.068,18-2c6.554-1.695,11.656-4.147,15-6
		c-1.667-2.333-3.333-4.667-5-7c13.312,1.087,33.612,0.503,54-10c3.647-1.879,6.974-3.909,10-6c0.014-0.011,0.028-0.021,0.042-0.032
		c4.378,3.742,9.52,8.827,14.458,15.532c3.97,5.39,6.88,10.56,9,15c0.61,1.42,1.83,4.82,1,9
		C746.013,1182.7,745.153,1184.39,744.453,1185.5z"/>
	<path style="fill:#FFFFFF;stroke:#000000;stroke-width:3;stroke-miterlimit:10;" d="M1183.453,583.014c-6.36,0.1-15.39-0.38-26-3
		c-1.33-2.21-2.74-4.88-4-8c-1.099-2.718-1.881-5.269-2.452-7.574c8.23-10.189,18.124-21.063,29.952-31.926
		c7.789-7.153,15.453-13.41,22.776-18.89c2.534,1.878,5.563,4.335,8.724,7.39c3.53,3.41,6.35,6.94,12,14c3.05,3.81,5.66,7.26,10,13
		c2.5,3.31,4.56,6.07,6,8c0,0,0.82,0.52,1,1c0.14,0.37,0.01,0.97-1,2c-7.97,7.4-15.53,12.09-21,15c-3.41,1.81-7.79,4.11-14,6
		C1196.403,582.764,1189.113,582.924,1183.453,583.014z"/>
	<path style="fill:none;stroke:#000000;stroke-width:2;stroke-linecap:round;stroke-linejoin:round;stroke-miterlimit:10;" d="
		M40.453,930.5c4,3.03,9.72,7.02,17,11c19.85,10.87,37.33,14.09,43,15c16.45,2.66,29.01,1.34,41,0c12.68-1.42,30.92-4.7,52-13
		c-4.94,6.01-13.35,14.74-26,22c-14.88,8.54-28.78,11.11-37,12c18.18,1.57,32.71-0.79,42-3c12.3-2.92,24.77-5.88,37-16
		c12.6-10.43,18.41-23.05,21-30c-1.34,10.99-3.76,23.52-8,37c-9.93,31.56-25.65,54.89-38,70c2.99-1.49,7.22-3.78,12-7
		c18.14-12.23,27.71-26.89,38-43c6.09-9.53,15.74-24.65,24-46c3.32-8.59,4.2-12.47,8-18c9.59-13.99,25.11-20.06,37-23
		c-5.15,5-12.6,13.54-18,26c-8,18.46-6.99,35.15-6,43c0.96-5.31,2.69-12.66,6-21c5.45-13.71,12.28-22.81,17-29
		c5.79-7.6,14.82-17.9,28-28c4.84-1.63,11.81-4.57,19-10c4.93-3.72,13.31-10.04,18-21c6.65-15.53,1.68-30.51,0-35
		c4.5,1.96,12.19,6.03,19,14c3.89,4.56,10.15,11.88,11,23c0.98,12.81-5.84,22.24-8,25c2.52-1.89,6.12-5.1,9-10
		c7.24-12.33,4.07-25.53,3-30c-5.49-22.9-27.61-33.45-31-35c4.24,1.78,11.62,4.22,21,4c6.75-0.16,12.25-1.65,16-3
		c1.68,0.43,3.7,0.81,6,1c2.27,0.19,4.3,0.14,6,0c2.17,3.01,5.05,7.72,7,14c0.57,1.83,3.84,12.83,1,25
		c-5.11,21.91-26.35,31.81-29,33c3.43-0.11,8.47-0.69,14-3c10.74-4.49,16.38-12.63,20-18c9.98-14.81,11.03-30.4,11-38
		c3.17,2.91,7.49,7.23,12,13c4.67,5.99,7.82,10.01,10,16c2.51,6.88,2.35,12.5,2,22c-0.37,9.95-1.87,17.92-3,23
		c-2.35,10.54-4.74,15.85-12,35c-2.34,6.17-5.83,15.46-10,27c-0.42,0.84-1.39,3.08-1,6c0.44,3.31,2.36,5.37,3,6
		c2.2,3.21,5.2,7.36,9,12c2.5,3.04,8.29,9.9,17,18c1.49,1.39,2.36,2.15,19,16c11.5,9.57,12.19,10.13,14,12
		c5.31,5.49,8.72,10.41,14,18c4.08,5.86,6.31,9.08,9,14c3.86,7.06,5.9,12.59,9,21c2.98,8.07,4.47,12.11,5,16
		c0.62,4.56,1.45,10.59,0,18c-0.75,3.82-1.75,6.21-1,10c0.79,3.98,2.96,6.72,4,8c3.26,4.02,5.46,3.86,11,8c5.59,4.18,8.9,8.5,10,10
		c2.82,3.85,5.26,7.19,6,12c0.47,3.05-0.27,3.31-2,15c-1.14,7.73-1.11,9.55-1,11c0.16,2.17,0.54,6.57,3,11
		c0.64,1.15,3.17,5.46,11,10c7.48,4.34,14.08,5.58,22,7c2.74,0.49,11.63,1.99,24,2c8.49,0.01,15.33,0.01,24-2c0,0,11.15-2.23,24-10
		c1.02-0.61,2.83-1.78,4-4c1.22-2.32,1.15-4.67,1-6c10.04-0.8,18.52-1.96,25-3c18.62-2.99,26.39-5.97,31-8c3.42-1.51,6.15-2.96,8-4
		c0.7-1.11,1.56-2.8,2-5c0.83-4.18-0.39-7.58-1-9c-2.12-4.44-5.03-9.61-9-15c-5.14-6.98-10.51-12.22-15-16
		c-1.75-2.58-4.12-6.01-7-10c-4.44-6.15-10.05-13.58-17-22c-7.74-9.37-11.61-14.06-16-18c-5.26-4.72-7.07-5.35-13-11
		c-4.21-4.01-6.94-7.15-12-13c-4.52-5.23-7.51-8.94-14-17c-9.99-12.42-15.01-18.66-16-20c-7.42-10.05-11.39-15.49-15-24
		c-1.76-4.15-3.98-9.49-5-17c-1.43-10.58,0.44-18.75,1-21c1.59-6.42,3.92-10.63,8-18c1.16-2.1,3.1-5.47,11-17
		c7.21-10.52,8.32-11.69,14-20c6.07-8.89,9.23-13.51,13-20c4.88-8.4,7.83-14.84,12-24c4.1-9.02,8-17.58,12-29
		c3.21-9.15,7.01-21.66,10-37c5.94-2.5,15.08-6.51,26-12c12.41-6.24,17.08-9.33,46-26c22.85-13.17,23.37-13.21,31-18
		c13.79-8.65,22.98-14.46,34-24c5.54-4.8,14.57-12.7,24-25c11.86-15.47,16.45-27.58,18-32c0.44-1.25,0.78-2.3,1-3
		c4.54,0.25,10.76,0.22,18-1c9.97-1.68,17.11-4.82,22-7c8.97-4.01,15-8.17,22-13c8.27-5.71,14.09-10.66,18-14
		c7.11-6.08,13.11-11.21,20-19c8.27-9.34,8.78-12.3,15-16c7.31-4.35,14.39-4.9,17-5c7.87-0.3,13.63,2.12,18,4
		c16.41,7.08,24.2,20.26,27,25c2.76,4.67,5.05,8.65,5,14c-0.01,0.61-0.34,3.74-1,10c-0.62,5.85-0.79,7.17,0,9
		c1.31,3.03,4.12,4.81,6,6c3.15,1.99,4.11,1.44,6,3c3.06,2.53,3.64,6.54,4,9c0.44,3.06,0.11,5.3-2,15c-0.75,3.44-1.43,6.47-2,9
		c-0.03,0.22-0.18,1.81,1,3c0.76,0.76,1.66,0.95,2,1c1.71,0.54,4.11,1.26,7,2c3.04,0.77,7.26,1.73,16,3c8.66,1.26,12.99,1.9,17,2
		c6.62,0.17,11.71-0.45,16-1c1.47-0.19,0.28-0.06,16-3c3.88-0.73,7.39-1.38,12-3c2.12-0.75,3.84-1.48,5-2c0.32-0.13,2.16-0.91,3-3
		c0.77-1.93,0.14-3.63,0-4c-0.59-3.5-1.52-7.95-3-13c-2.68-9.11-5.85-15.7-7-18c-2.29-4.59-6.08-12.08-13-20
		c-4.49-5.14-4.86-4.24-12-12c-4.88-5.31-8.54-9.9-11-13c-3.23-4.07-5.82-7.33-9-12c-4.92-7.23-4.85-8.4-8-12
		c-0.75-0.86-3.44-3.85-11-9c-8.55-5.82-10.15-5.43-19-11c-9.14-5.76-14.57-10.69-16-12c-3.56-3.28-6.76-6.27-10-11
		c-2.07-3.02-2.13-3.8-4-6c-4.1-4.82-8.87-7.04-11-8c-6.13-2.77-11.73-3.08-15-3c1.4-0.68,3.49-1.7,6-3c6.99-3.61,7.52-4.3,11-6
		c4-1.95,9.71-4.75,17-5c1.49-0.05,3.45-0.01,9,1c11.64,2.12,20.5,5.13,23,6c5.93,2.06,12.72,4.42,21,9c4.9,2.71,9.6,5.81,19,12
		c2.53,1.67,4.61,3.06,6,4c0.67,0.36,2.09,1,4,1c0.76,0,2.31-0.1,4-1c0.69-0.49,1.72-1.2,3-2c3.01-1.89,4.52-2.84,6-3
		c3.01-0.33,5.44,1.56,6,2c1.02,0.8,2.47,2.26,4,7c0.88,2.73,1.88,6.8,2,12c0.58,2.88,1.5,6.29,3,10c1.26,3.12,2.67,5.79,4,8
		c10.61,2.62,17.187,5.6,23.547,5.5c5.66-0.09,13.95,0.75,23-2c6.21-1.89,12.59-4.19,16-6c5.47-2.91,15.03-10.6,23-18
		c1.01-1.03-1.407-2.13-1.547-2.5c-0.18-0.48-1-1-1-1c-1.44-1.93-3.5-4.69-6-8c-4.34-5.74-6.95-9.19-10-13
		c-5.65-7.06-8.47-10.59-12-14c-5.94-5.74-11.43-9.39-14-11c-8.26-5.19-9.17-3.73-20-10c-6.04-3.5-10.76-6.28-15-11
		c-5.06-5.64-6-7-6-7c-2-2.9-2.74-4.74-5-6c-2.43-1.35-4.95-1.09-6-1c-6.98,0.61-13.99-1.09-21-1c-3.67,0.05-3.34-0.24-30-5
		c-20.94-3.74-21.32-3.6-27-5c-11.74-2.9-17.6-4.34-22-6c-5.12-1.93-9.04-3.82-15-4c-5.7-0.17-10.13,1.3-12,2
		c-5,1.87-8.23,4.52-10,6c-3.89,3.25-5.07,5.53-8,9c-3.85,4.56-5.72,5.24-14,12c-2.23,1.82-7.48,6.54-18,16
		c-5.62,5.05-11.35,9.98-17,15c-5.24,4.66-9.33,8.33-16,11c-3.18,1.27-6.16,2.43-10,2c-6.42-0.72-10.64-5.34-13-8
		c-4.85-5.47-5.96-10.15-9-18c-2.08-5.38-5.64-14.58-11-23c-7.99-12.55-17.79-19.9-22-23c-5.01-3.69-9.59-6.27-13-8
		c-2.74-4.55-6.13-10.95-9-19c-4.28-12-5.29-21.7-6-29c-1.59-16.36-0.02-29.08,1-37c0.9-6.94,2.04-12.74,3-17
		c7.41,3.59,13.68,5.2,18,6c4.56,0.85,8.15,1.03,21,3c4.68,0.72,8.29,1.32,12,4c3.81,2.75,5.58,6.15,6,7c1.72,3.48,1.4,5.68,2,9
		c1.38,7.61,6.11,12.82,9,16c0.95,1.04,5.77,6.24,14,10c7.53,3.44,14.02,3.9,16,4c4.53,0.22,10.65,0.52,17-3c4-2.22,6.56-5.1,8-7
		c2.98,0.05,7.13-0.1,12-1c3.9-0.72,11.14-2.13,19-7c4.56-2.83,11.08-6.86,15-15c2.27-4.71,2.86-9.11,3-12v-21
		c-0.13-1.14-0.24-2.89,0-5c0.4-3.52,1.56-5.93,2-7c2.55-6.2,0.07-13.75-1-17c-1.11-3.36-3.56-9.02-9-14c-3.47-3.18-4.39-2.23-12-7
		c-4.52-2.83-8.31-5.2-12-9c-4.28-4.4-6.31-8.53-9-14c-2.46-5.01-5.69-11.72-7-21c-1.04-7.42-0.44-13.53,0-18
		c0.62-6.32,1.44-7.76,2-15c0.51-6.49,0.77-9.87,0-14c-0.63-3.4-2.36-9.42-8-16c0.79-0.55,3.9-2.58,8-2c3.93,0.56,6.27,3.16,7,4
		c2.46,2.82,2.06,4.97,4,12c1.22,4.43,2.09,7.58,4,11c1.41,2.53,4,7.18,9,10c7.16,4.04,16.89,2.99,17,3c-2.11-1.17-5.04-3.07-8-6
		c-1.88-1.86-5.97-5.92-8-12c-1.73-5.2,0.01-6-1-15c-0.72-6.41-1.21-10.79-4-15c-3.95-5.95-10.36-8.09-13-9
		c-9.95-3.42-13.85,0.94-20-3c-1.64-1.05-4.12-5.05-9-13c-6.32-10.29-6.29-10.86-8-13c-3.13-3.93-8.65-8.81-19-12
		c2.08-3.92,4.66-9.32,7-16c1.69-4.83,4.03-11.5,5-20c0.68-5.9,1.01-15.38-2-27c0.68-3.98,0.36-7.06,0-9c-0.46-2.46-1.07-3.51-2-4
		c-0.59-0.31-1.5-0.49-3,0c-5.48,1.79-9,8-9,8c-5.38,9.5-11.34,18.66-17,28c-3.21,5.3-8.43,12.52-17,20c-0.7-1.83-1.39-3.83-2-6
		c-0.39-1.38-0.72-2.72-1-4c-0.35-6.35-0.21-11.41,0-15c0.12-2.07,0.42-6.13-1-11c-1.02-3.52-2.08-4.52-3-5c-2.39-1.25-5.36,0.2-7,1
		c-3.63,1.77-5.69,4.37-7,6c0,0-4.02,5.01-10,12c-6,7.01-7.38,5.06-14,12c-6.76,7.08-10.23,14.26-12,18c-2.58,5.44-4.09,10.32-5,14
		c-3.14-1.21-7.97-2.68-14-3c-2.17-0.12-9.79-0.36-19,3c-6.58,2.4-7.72,4.36-17,9c-5.82,2.91-10.77,4.84-14,6
		c-2.1,0.4-5.21,0.88-9,1c-3.37,0.11-8.83-0.02-17-2c-18.97-4.59-33.74-11.74-40-15c-3.88-2.02-6.99-3.81-9-5
		c1.56,2.49,3.88,6.01,7,10c4.86,6.22,10.32,13.22,19,19c4.25,2.83,11.55,6.88,22,9c-9.71,1.2-22.87,3.46-38,8
		c-11.32,3.4-26.02,7.91-43,18c-9.5,5.64-22.67,14.78-36,29c3.37-1.8,8.15-4.28,14-7c7.51-3.5,23.58-10.98,40-15
		c10.93-2.68,29.47-5.65,54-2c-16.89,10.15-31.7,17.67-43,23c-32.02,15.11-45.27,17.05-56,17c-14.38-0.07-22.41-3.73-25-5
		c-13.44-6.61-20.27-17.81-23-23c-0.42,2.07-0.79,5.29,0,9c0.4,1.88,1.66,6.53,8,13c1.79,1.82,8.46,8.36,20,13
		c9.94,4,18.54,4.6,25,5c4.87,0.3,8.99,0.19,12,0c-23.99,7.42-42.94,5.72-53,4c-9.3-1.59-18.99-3.36-28-11
		c-9.54-8.09-13.83-18.94-15-22c-1.68-4.4-2.54-8.25-3-11c-1.14,2.96-2.52,7.43-3,13c-0.31,3.54-0.85,10.62,2,18
		c0.79,2.06,3.54,8.52,13,16c15.91,12.58,35.48,15.94,45,17c-16.59-0.32-30.24,1.31-40,3c-10.58,1.83-19.34,3.4-30,8
		c-13.47,5.81-23.07,13.48-29,19c-13.76,2.51-24.89,6-33,9c-12.93,4.78-18.48,8.42-23,13c-3.96,4.01-6.46,8.07-8,11
		c4.11-2.3,9.87-5.24,17-8c7.39-2.87,17.83-6.91,32-8c18.34-1.41,32.5,2.94,39,5c6.3,2,11.4,4.24,15,6c-13.3-0.98-24.55-0.63-33,0
		c-12.53,0.93-24.49,1.91-39,7c-9.93,3.48-17.69,7.72-23,11c6.37-1.74,14.49-3.61,24-5c6.92-1.01,18.65-2.66,34-2
		c6.75,0.29,15.26,1.07,25,3c-7.97-0.47-21.06-0.21-36,5c-18.24,6.36-30.1,16.94-36,23c5.62-2.74,10.46-4.68,14-6
		c6.23-2.32,14.7-5.41,26-7c5.43-0.76,9.95-0.96,13-1c-3.26,0.2-23.23,1.77-37,19c-11.32,14.17-11.17,29.83-11,34
		c1.89-2.72,4.53-6.21,8-10c3.11-3.4,9.85-10.26,19-16c11.25-7.05,21.31-9.39,33-12c9.5-2.12,23.18-4.29,40-4
		c-8.41,2.37-17.46,5.32-27,9c-8.33,3.22-16,6.61-23,10c-2-0.67-4-1.33-6-2c0.67,1.33,1.33,2.67,2,4c-4.11,2.13-9.93,5.6-16,11
		c-4.89,4.35-13.74,12.4-19,26c-3.62,9.35-4.31,18.15-4,25c-4.16,2.6-8.53,5.58-13,9c-7.95,6.07-14.56,12.26-20,18
		c2.8-1.14,6.97-2.86,12-5c14.12-6.01,19.48-8.74,25-11c7.19-2.94,17.77-6.38,32-8c-1.58,3.45-4.09,8.11-8,13
		c-1.77,2.21-7.86,9.54-19,16c-4.55,2.64-10.63,5.53-29,10c-9.07,2.21-21.28,4.83-36,7c4.13,1.01,9.56,2.15,16,3
		c13.37,1.77,23.98,1.33,29,1c9.82-0.65,18.32-1.21,29-5c10.3-3.66,17.98-8.68,23-12c5.06-3.35,9.1-6.54,12-9
		c-0.91,6.54-2.63,11.64-4,15c-2.59,6.38-5.69,14-13,19c-4.37,2.99-5.26,1.63-10,5c-6.14,4.36-9.31,9.94-11,13
		c-4.12,7.44-2.81,9.87-7,17c0,0-3.01,5.13-8,10c-12.97,12.66-34.33,13.84-38,14c9.38,2.06,17.29,2.77,23,3
		c7.55,0.31,11.66,0.44,17-1c3.08-0.83,6.63-2.2,17-9c9.44-6.19,12.14-8.75,17-12c5.65-3.78,14.39-8.61,27-12
		c-6.58,7.51-14.11,17.46-21,30c-8.52,15.5-13.26,29.89-16,41c0.25-0.37,5.75-8.62,6-9c11.89-17.84,11.79-17.69,12-18
		c9.23-13.36,20.65-22.12,27-27c8.04-6.18,14.2-9.54,26-16c11.99-6.56,21.08-10.51,36-19c2.63-1.49,7.75-4.44,14-9
		c4.32-3.15,7.72-6,10-8c1-0.33,2-0.67,3-1c-1.08,3.68-2.1,7.69-3,12c-0.88,4.24-1.53,8.25-2,12c-1.91,2.44-4.65,5.9-8,10
		c-5.84,7.14-12.01,14.68-18,21c-11.05,11.65-21.27,18.84-30,25c-13.03,9.19-23.67,14.78-26,16c-10.57,5.51-11.91,5.07-29,13
		c-14.57,6.76-25.02,12.38-28,14c-14.44,7.83-21.66,11.74-30,18c-8.61,6.45-19.84,15.04-29,30c-3.41,5.57-5.63,10.54-7,14
		c-3.43,2.32-8.48,5.37-15,8c-13.57,5.49-25.08,5.8-36,6c-17.5,0.32-31-2.75-36-4c-10.22-2.56-12.29-4.38-23-7
		c-5.77-1.41-16.35-3.8-29-4c-14.72-0.23-25.31,2.68-41,7c-17.04,4.69-29.93,10.21-34,12c-16.85,7.4-18.54,10.44-32,15
		c-8.25,2.79-17.73,6-30,6c-7.17,0-20.99-1.1-37-10c3.74,4.24,10.95,11.18,22,15c9.49,3.28,17.38,2.73,28,2
		c7.47-0.52,18.28-1.92,31-6c-3.36,2.25-8.4,5.88-14,11c-5.35,4.89-7.25,7.53-12,12c0,0-8.31,7.81-17,13c-5.02,3-18.02,9.57-40,8
		c2.28,1.48,5.65,3.42,10,5c6.37,2.32,11.34,2.58,21,3c8.29,0.36,15.92,0.65,26-1c5.41-0.89,9.86-2.06,13-3
		c-2.8,7.56-7.38,17.21-15,27c-15.6,20.04-34.96,29.15-45,33c5.61,0.11,12.01-0.12,19-1c10.19-1.28,18.94-3.6,26-6
		c-1.7,3.52-4.56,10.7-4,20c0.56,9.26,4.21,15.66,5,17c3.31,5.62,7.41,9.12,10,11c0.32,2.4,0.55,5.89,0,10
		c-1.16,8.7-5.06,14.64-8,19c-6.35,9.43-14.17,15.41-20,19c4.17-0.26,8.96-1.08,14-3c20.42-7.79,28.91-27.65,31-33
		c2,2.33,4,4.67,6,7c-0.95,5.08-3.03,12.81-8,21c-7.3,12.02-16.73,18.25-21,21c-17.72,11.42-36.21,11.82-55,12
		C90.583,940.64,67.683,939.19,40.453,930.5z M519.453,398.5c-3.01,1.47-9.13,4.96-14,12c-4.13,5.97-5.49,11.78-6,15
		c-4.73,1.68-9.76,3.66-15,6c-5.84,2.61-11.18,5.32-16,8c1.69-4.99,4.43-11.01,9-17C491.613,403.95,512.743,399.6,519.453,398.5z
		 M540.953,972c-0.81,3.98-1.56,10.69,1,18c0.73,2.09,2.27,5.75,9,14c5.65,6.93,9.57,10.47,14,15c9.76,9.98,16.21,18.79,20,24
		c3.76,5.18,9.33,12.91,15,24c6.02,11.76,8.44,20.05,9,22c1.61,5.63,2.49,10.47,3,14c-4.03-2.99-9.2-7-15-12
		c-4.15-3.58-10.11-8.73-17-16c-5.39-5.69-12.66-13.43-20-25c-5.15-8.12-8.07-14.54-11-21c-6.8-14.97-10.21-22.48-11-33
		C537.553,990.64,537.653,982.29,540.953,972z M270.453,902.5c1.48-4.67,2.9-10.02,4-16c1.15-6.23,1.74-11.95,2-17
		c2.6-3.66,6-9.04,9-16c3.34-7.73,4.71-14,6-20c1.23-5.75,2.53-13.57,3-23c1.89,3.73,4.68,9.25,8,16c8.42,17.13,9.42,20.07,10,22
		c1.74,5.83,3.39,15.16,1,28c-6.58,2.68-14.07,6.25-22,11C283.093,892.51,276.113,897.73,270.453,902.5z"/>
	<g>
		<path style="fill:none;stroke:#000000;stroke-width:3;stroke-linecap:round;stroke-linejoin:round;stroke-miterlimit:10;" d="
			M912.453,265.5c0.419-2.892,1.829-14.919-6-26c-6.862-9.713-16.59-12.712-21-14c-14.07-4.11-26.029,0.321-30,2"/>
		<polygon style="fill:#FFFFFF;" points="905.953,262 906.21,266.916 905.953,271 905.721,272.104 901.195,273.915 896.973,275.246 
			899.953,272 903.953,268 904.953,263 		"/>
		<polygon style="fill:#FFFFFF;" points="905.09,257.568 905.051,262.251 904.238,266.574 902.953,269 900.294,272.208 
			895.25,275.246 887.953,277 881.34,275.312 876.953,272 874.464,270.109 885.953,257 885.37,232 890.953,235 897.953,242 
			902.508,249.962 		"/>
		<polygon points="885.204,231.376 887.766,235.112 890.078,241.113 891.104,247.815 890.835,253.814 888.953,259 884.727,264.041 
			879.712,267.188 874.016,269 869.149,267.714 861.658,266.26 856.953,266 853.498,261.189 850.069,251.125 850.539,243.203 
			853.989,233.623 857.236,230.86 864.642,228.508 873.953,228 881.953,230 		"/>
		<path style="fill:none;stroke:#000000;stroke-width:2;stroke-linecap:round;stroke-linejoin:round;stroke-miterlimit:10;" d="
			M873.953,269c1.908-0.188,4.365-0.783,8-3c1.376-0.839,4.715-2.93,7-7c2.749-4.896,2.306-9.689,2-13
			c-0.588-6.361-3.139-11.176-5-14"/>
		<path style="fill:none;stroke:#000000;stroke-width:3;stroke-linecap:round;stroke-linejoin:round;stroke-miterlimit:10;" d="
			M904.953,259c0.201,1.536,0.543,5.802-2,10c-3.035,5.01-8.077,6.451-10,7c-1.537,0.439-5.604,1.544-10,0
			c-3.132-1.1-4.931-3.018-6-4c-3.069-2.82-8.707-5.823-20-6c-1.884-2.117-4.603-5.792-6-11c-3.084-11.501,2.793-21.112,4-23"/>
		<path style="fill:none;stroke:#000000;stroke-width:3;stroke-linecap:round;stroke-linejoin:round;stroke-miterlimit:10;" d="
			M905.953,272c-1.522,0.687-3.19,1.366-5,2c-2.5,0.876-4.855,1.521-7,2"/>
		<path style="fill:none;stroke:#000000;stroke-width:2;stroke-linecap:round;stroke-linejoin:round;stroke-miterlimit:10;" d="
			M905.953,272c0.449-4.08,0.747-12.098-3-21c-1.361-3.233-4.443-10.305-12-16c-2.355-1.775-8.601-6.351-18-7
			c-8.765-0.606-15.349,2.544-18,4"/>
		<circle style="fill:#FFFFFF;" cx="883.953" cy="247" r="5"/>
	</g>
	<path style="fill:#FFFFFF;stroke:#000000;stroke-width:2;stroke-linecap:round;stroke-linejoin:round;stroke-miterlimit:10;" d="
		M130.453,977.5c18.18,1.57,32.71-0.79,42-3c12.3-2.92,24.77-5.88,37-16c12.6-10.43,18.41-23.05,21-30c-1.34,10.99-3.76,23.52-8,37
		c-9.93,31.56-25.65,54.89-38,70c2.99-1.49,7.22-3.78,12-7c18.14-12.23,27.71-26.89,38-43c6.09-9.53,15.74-24.65,24-46
		c3.32-8.59,4.2-12.47,8-18c9.59-13.99,25.11-20.06,37-23c-5.15,5-12.6,13.54-18,26c-8,18.46-6.99,35.15-6,43
		c0.96-5.31,2.69-12.66,6-21c5.45-13.71,12.28-22.81,17-29c5.79-7.6,14.82-17.9,28-28c4.84-1.63,11.81-4.57,19-10
		c4.93-3.72,13.31-10.04,18-21c6.65-15.53,1.68-30.51,0-35c4.5,1.96,12.19,6.03,19,14c3.89,4.56,10.15,11.88,11,23
		c0.98,12.81-5.84,22.24-8,25c2.52-1.89,6.12-5.1,9-10c7.24-12.33,4.07-25.53,3-30c-5.49-22.9-27.61-33.45-31-35
		c4.24,1.78,11.62,4.22,21,4c6.75-0.16,12.25-1.65,16-3c1.68,0.43,3.7,0.81,6,1c2.27,0.19,4.3,0.14,6,0c2.17,3.01,5.05,7.72,7,14
		c0.57,1.83,3.84,12.83,1,25c-5.11,21.91-26.35,31.81-29,33c3.43-0.11,8.47-0.69,14-3c10.74-4.49,16.38-12.63,20-18
		c9.98-14.81,11.03-30.4,11-38c0.227,0.209,0.473,0.441,0.712,0.664c-0.071-0.388-0.141-0.776-0.212-1.164
		c-4.115-4.668-9.53-11.363-15-20c-5.081-8.023-14.892-23.824-20-47c-5.847-26.53-2.223-47.711-1-54c2.128-10.944,5.338-19.784,8-26
		c-0.093-0.016-0.185-0.032-0.278-0.048c-0.073,0.181-0.154,0.374-0.222,0.548c-3.43,2.32-8.48,5.37-15,8
		c-13.57,5.49-25.08,5.8-36,6c-17.5,0.32-31-2.75-36-4c-10.22-2.56-12.29-4.38-23-7c-5.77-1.41-16.35-3.8-29-4
		c-14.72-0.23-25.31,2.68-41,7c-17.04,4.69-29.93,10.21-34,12c-16.85,7.4-18.54,10.44-32,15c-8.25,2.79-17.73,6-30,6
		c-7.17,0-20.99-1.1-37-10c3.74,4.24,10.95,11.18,22,15c9.49,3.28,17.38,2.73,28,2c7.47-0.52,18.28-1.92,31-6
		c-3.36,2.25-8.4,5.88-14,11c-5.35,4.89-7.25,7.53-12,12c0,0-8.31,7.81-17,13c-5.02,3-18.02,9.57-40,8c2.28,1.48,5.65,3.42,10,5
		c6.37,2.32,11.34,2.58,21,3c8.29,0.36,15.92,0.65,26-1c5.41-0.89,9.86-2.06,13-3c-2.8,7.56-7.38,17.21-15,27
		c-15.6,20.04-34.96,29.15-45,33c5.61,0.11,12.01-0.12,19-1c10.19-1.28,18.94-3.6,26-6c-1.7,3.52-4.56,10.7-4,20
		c0.56,9.26,4.21,15.66,5,17c3.31,5.62,7.41,9.12,10,11c0.32,2.4,0.55,5.89,0,10c-1.16,8.7-5.06,14.64-8,19
		c-6.35,9.43-14.17,15.41-20,19c4.17-0.26,8.96-1.08,14-3c20.42-7.79,28.91-27.65,31-33c2,2.33,4,4.67,6,7
		c-0.95,5.08-3.03,12.81-8,21c-7.3,12.02-16.73,18.25-21,21c-17.72,11.42-36.21,11.82-55,12c-14.87,0.14-37.77-1.31-65-10
		c4,3.03,9.72,7.02,17,11c19.85,10.87,37.33,14.09,43,15c16.45,2.66,29.01,1.34,41,0c12.68-1.42,30.92-4.7,52-13
		c-4.94,6.01-13.35,14.74-26,22C152.573,974.04,138.673,976.61,130.453,977.5z M270.453,902.5c1.48-4.67,2.9-10.02,4-16
		c1.15-6.23,1.74-11.95,2-17c2.6-3.66,6-9.04,9-16c3.34-7.73,4.71-14,6-20c1.23-5.75,2.53-13.57,3-23c1.89,3.73,4.68,9.25,8,16
		c8.42,17.13,9.42,20.07,10,22c1.74,5.83,3.39,15.16,1,28c-6.58,2.68-14.07,6.25-22,11C283.093,892.51,276.113,897.73,270.453,902.5
		z"/>
	<path style="fill:none;stroke:#000000;stroke-width:3;stroke-linecap:round;stroke-linejoin:round;stroke-miterlimit:10;" d="
		M844.953,343c-5.129-2.168-13.183-6.315-21-14c-9.013-8.861-13.071-17.861-14-20c-4.951-11.4-4.975-21.222-5-31
		c-0.016-6.355,0.508-15.358,3-26"/>
	<path style="fill:none;stroke:#000000;stroke-width:3;stroke-linecap:round;stroke-linejoin:round;stroke-miterlimit:10;" d="
		M977.953,329c-4.762-3.626-9.198-5.233-12-6c-2.182-0.597-4.682-1.257-8-1c-1.885,0.146-5.682,0.441-9,3
		c-3.91,3.017-4.824,7.382-6,13c-0.706,3.374-1.22,6.008,0,9c1.04,2.55,2.847,4.151,4,5"/>
	<path style="fill:none;stroke:#000000;stroke-width:3;stroke-linecap:round;stroke-linejoin:round;stroke-miterlimit:10;" d="
		M966.953,393c-4.351-0.432-10.707-1.433-18-4c-6.96-2.45-13.661-4.809-20-11c-6.63-6.476-9.438-13.798-11-18
		c-1.782-4.794-2.595-9.008-3-12"/>
	<path style="fill:none;stroke:#000000;stroke-width:3;stroke-linecap:round;stroke-linejoin:round;stroke-miterlimit:10;" d="
		M923.953,348c-0.496-0.55-3.719-4-9-4c-0.741,0-5.461,0.08-9,4"/>
	<path style="fill:none;stroke:#000000;stroke-width:3;stroke-linecap:round;stroke-linejoin:round;stroke-miterlimit:10;" d="
		M1049.953,513c-3.285-0.875-6.965-1.6-11-2c-14.408-1.427-26.389,1.983-34,5"/>
	<path style="fill:none;stroke:#000000;stroke-width:2;stroke-linecap:round;stroke-linejoin:round;stroke-miterlimit:10;" d="
		M1006.953,526c-11.545,8.343-20.152,16.204-26,22c-7.686,7.617-13.207,14.245-23,26c-10.161,12.197-9.325,12.002-17,21
		c-10.904,12.784-10.744,11.013-26,28c-6.873,7.653-11.595,13.234-20,20c-6.054,4.874-11.237,8.123-18,9
		c-1.098,0.142-3.954,0.445-12-1c-7.792-1.399-17.45-3.21-29-9c-8.267-4.144-14.097-8.62-17-11c-7.924-6.496-12.697-12.672-16-17
		c-4.765-6.245-10.886-15.535-16-28"/>
	<path style="fill:none;stroke:#000000;stroke-width:3;stroke-linecap:round;stroke-linejoin:round;stroke-miterlimit:10;" d="
		M866.953,662c0.675-1.172,1.36-2.506,2-4c0.936-2.183,1.567-4.221,2-6"/>
	<path style="fill:none;stroke:#000000;stroke-width:3;stroke-linecap:round;stroke-linejoin:round;stroke-miterlimit:10;" d="
		M1029.953,568c-2.638,1.432-9.629,4.775-19,4c-9.307-0.77-15.624-5.159-18-7"/>
	<path style="fill:none;stroke:#000000;stroke-width:3;stroke-linecap:round;stroke-linejoin:round;stroke-miterlimit:10;" d="
		M670.953,713c-6.617,4.022-16.878,11.475-25,24c-9.242,14.251-11.192,28.094-13,42c-3.199,24.606,2.292,26.049-1,48
		c-2.627,17.518-8.214,30.526-14,44c-6.317,14.71-9.948,23.165-18,33c-5.231,6.389-8.357,8.511-25,24
		c-12.178,11.334-15.247,13.13-20,19c-7.573,9.353-11.698,18.624-14,25"/>
	<path style="fill:none;stroke:#000000;stroke-width:3;stroke-linecap:round;stroke-linejoin:round;stroke-miterlimit:10;" d="
		M632.953,820c8.563-2.233,17.592-4.872,27-8c9.63-3.202,18.638-6.578,27-10"/>
	<path style="fill:none;stroke:#000000;stroke-width:3;stroke-linecap:round;stroke-linejoin:round;stroke-miterlimit:10;" d="
		M611.953,1103c10.128,10.04,18.448,19.282,25,27c7.843,9.238,13.895,17.492,26,34c3.351,4.57,7.615,10.465,12,19
		c1.038,2.021,3.629,5.584,5,11c0.726,2.868,0.939,5.328,1,7"/>
	<path style="fill:none;stroke:#000000;stroke-width:3;stroke-linecap:round;stroke-linejoin:round;stroke-miterlimit:10;" d="
		M874.953,73c-1.029,1.934-2.661,4.778-5,8c-1.831,2.522-3.32,4.209-4,5c-4.59,5.339-7.87,11.196-10,15
		c-1.416,2.529-6.219,11.226-9,22c-4.149,16.076-2.211,30.637,0,40"/>
	<path style="fill:none;stroke:#000000;stroke-width:3;stroke-linecap:round;stroke-linejoin:round;stroke-miterlimit:10;" d="
		M865.953,163c1.837-3.036,4.01-7.064,6-12c3.332-8.265,4.557-15.127,5-18c1.56-10.11,0.706-17.928,0-24
		c-0.82-7.053-2.645-16.834-7-28"/>
	<path style="fill:none;stroke:#000000;stroke-width:3;stroke-linecap:round;stroke-linejoin:round;stroke-miterlimit:10;" d="
		M914.953,118c-0.592-4.437-1.159-10.619-1-18c0.14-6.504,0.466-17.651,5-31c1.665-4.902,4.404-11.594,9-19
		c0.605,0.677,1.364,1.67,2,3c0.546,1.141,0.837,2.187,1,3"/>
	<path style="fill:none;stroke:#000000;stroke-width:3;stroke-linecap:round;stroke-linejoin:round;stroke-miterlimit:10;" d="
		M895.953,100c1.379-3.084,2.732-6.419,4-10c2.286-6.454,3.88-12.522,5-18"/>
	<path style="fill:none;stroke:#000000;stroke-width:3;stroke-linecap:round;stroke-linejoin:round;stroke-miterlimit:10;" d="
		M854.953,445c-2.499-0.72-5.168-1.398-8-2c-4.649-0.988-9.011-1.616-13-2"/>
	<path style="fill:#FFFFFF;stroke:#000000;stroke-width:3;stroke-miterlimit:10;" d="M745.205,227.489
		c-0.163-0.322-0.183-0.688-0.06-1.028c2.202-6.101,10.019-24.991,29.808-35.461c3.183-1.684,12.427-6.45,25-7
		c10.126-0.443,19.278,1.986,23,3c6.828,1.861,10.164,3.704,18,5c4.124,0.682,7.747,0.924,10.594,0.986
		c1.025,0.022,1.625,1.15,1.07,2.011c-4.344,6.749-13.21,23.141-10.664,44.002c1.756,14.388,8.207,24.886,11,29
		c2.14,3.151,4.377,5.863,6.546,8.172c1.043,1.111,2.827-0.185,2.095-1.521c-4.932-9.004-10.681-23.913-5.641-38.651
		c1.891-5.53,6.119-13.427,13-20c5.249-5.014,7.067-4.506,15-11c4.93-4.035,11.47-9.389,17-18c5.632-8.769,7.56-16.78,9-23
		c1.35-5.832,2.708-14.413,2.136-24.931c-0.053-0.974,0.948-1.647,1.84-1.253c4.508,1.988,10.044,5.351,14.024,11.184
		c5.375,7.878,2.777,12.735,9,20c6.835,7.979,16.502,9.748,18,10c2.867,0.483,5.431,0.481,7.523,0.305
		c0.208-0.017,0.401-0.088,0.579-0.196c1.277-0.776,3.994-2.091,7.398-1.609c3.93,0.56,6.27,3.16,7,4c2.46,2.82,2.06,4.97,4,12
		c1.22,4.43,2.09,7.58,4,11c1.41,2.53,4,7.18,9,10c4.122,2.326,9.097,2.965,12.596,3.09c1.303,0.047,1.862-1.611,0.803-2.372
		c-1.389-0.998-2.89-2.224-4.4-3.718c-1.88-1.86-5.97-5.92-8-12c-1.73-5.2,0.01-6-1-15c-0.72-6.41-1.21-10.79-4-15
		c-3.95-5.95-10.36-8.09-13-9c-9.95-3.42-13.85,0.94-20-3c-1.64-1.05-4.12-5.05-9-13c-6.32-10.29-6.29-10.86-8-13
		c-3.13-3.93-8.65-8.81-19-12c0.03-0.057,0.063-0.121,0.093-0.179c-2.574-0.691-6.595-1.648-11.593-2.321
		c-9.392-1.264-17.487-0.884-23.464-0.19c-0.794,0.092-1.296,0.872-1.083,1.643c0.214,0.777,0.404,1.628,0.547,2.548
		c0.421,2.709,0.283,5.062,0.027,6.82c-0.018,0.123-0.018,0.238,0.001,0.36c0.547,3.58,0.796,8.889-1.028,14.82
		c-0.699,2.273-3.912,12.717-14,18c-4.355,2.281-8.286,2.706-11,3c-6.82,0.738-10.318-0.815-19-2
		c-3.568-0.487-8.692-1.005-15.028-1.004c-0.574,0-1.089-0.363-1.257-0.911c-1.814-5.95-3.511-13.802-3.715-23.085
		c-0.124-5.652,0.33-10.706,1-15c-0.165-0.175-0.329-0.35-0.494-0.525c-0.002,0.008-0.004,0.017-0.006,0.025
		c-3.14-1.21-7.97-2.68-14-3c-2.17-0.12-9.79-0.36-19,3c-6.58,2.4-7.72,4.36-17,9c-5.761,2.88-10.669,4.801-13.901,5.964
		c-0.068,0.024-0.13,0.042-0.201,0.055c-2.098,0.396-5.169,0.863-8.898,0.981c-3.37,0.11-8.83-0.02-17-2
		c-18.97-4.59-33.74-11.74-40-15c-1.553-0.809-2.983-1.58-4.268-2.292c-1.212-0.67-2.497,0.746-1.709,1.885
		c1.141,1.649,2.465,3.473,3.978,5.407c4.86,6.22,10.32,13.22,19,19c3.322,2.212,8.509,5.17,15.607,7.369
		c1.333,0.413,1.208,2.328-0.171,2.539c-8.763,1.342-19.485,3.506-31.435,7.092c-11.32,3.4-26.02,7.91-43,18
		c-8.126,4.824-18.938,12.21-30.238,23.145c-1.07,1.036,0.161,2.77,1.493,2.105c2.045-1.02,4.302-2.114,6.745-3.25
		c7.51-3.5,23.58-10.98,40-15c10.369-2.543,27.588-5.346,50.273-2.51c1.238,0.155,1.578,1.796,0.504,2.43
		c-15.552,9.185-29.202,16.092-39.777,21.08c-32.02,15.11-45.27,17.05-56,17c-14.38-0.07-22.41-3.73-25-5
		c-10.951-5.386-17.513-13.819-21.045-19.565c-0.685-1.114-2.387-0.637-2.414,0.67c-0.03,1.473,0.083,3.129,0.459,4.895
		c0.4,1.88,1.66,6.53,8,13c1.79,1.82,8.46,8.36,20,13c9.94,4,18.54,4.6,25,5c0.578,0.036,1.146,0.065,1.703,0.09
		c1.527,0.068,1.718,2.252,0.226,2.582c-19.209,4.256-34.322,2.799-42.929,1.327c-9.3-1.59-18.99-3.36-28-11
		c-9.54-8.09-13.83-18.94-15-22c-0.867-2.269-1.515-4.392-2.003-6.294c-0.336-1.309-2.176-1.322-2.528-0.017
		c-0.64,2.37-1.198,5.165-1.469,8.311c-0.31,3.54-0.85,10.62,2,18c0.79,2.06,3.54,8.52,13,16
		c10.145,8.021,21.778,12.294,31.344,14.612c1.462,0.354,1.241,2.498-0.262,2.566c-10.403,0.47-19.208,1.631-26.082,2.821
		c-10.58,1.83-19.34,3.4-30,8c-13.268,5.723-22.782,13.251-28.731,18.751c-0.179,0.166-0.4,0.273-0.64,0.317
		c-13.589,2.505-24.592,5.959-32.629,8.932c-12.93,4.78-18.48,8.42-23,13c-2.348,2.377-4.182,4.772-5.607,6.938
		c-0.735,1.117,0.501,2.481,1.69,1.869c3.563-1.835,7.901-3.866,12.918-5.808c7.39-2.87,17.83-6.91,32-8c18.34-1.41,32.5,2.94,39,5
		c3.135,0.995,5.973,2.05,8.477,3.076c1.361,0.557,0.918,2.576-0.551,2.514c-10.24-0.433-19.019-0.105-25.926,0.41
		c-12.53,0.93-24.49,1.91-39,7c-5.571,1.953-10.46,4.144-14.615,6.272c-1.366,0.699-0.636,2.774,0.862,2.441
		c4.428-0.984,9.368-1.925,14.753-2.712c6.92-1.01,18.65-2.66,34-2c2.998,0.129,6.344,0.354,9.991,0.734
		c1.563,0.163,1.559,2.435-0.005,2.596c-6.225,0.642-13.365,2.011-20.986,4.669c-13.531,4.718-23.55,11.758-30.231,17.553
		c-1.128,0.978,0.003,2.77,1.376,2.184c2.614-1.115,4.927-2.018,6.855-2.737c6.23-2.32,14.7-5.41,26-7c5.43-0.76,9.95-0.96,13-1
		c-3.26,0.2-23.23,1.77-37,19c-8.927,11.175-10.721,23.276-10.997,29.938c-0.053,1.275,1.569,1.853,2.341,0.837
		c1.56-2.054,3.439-4.353,5.656-6.775c3.11-3.4,9.85-10.26,19-16c11.25-7.05,21.31-9.39,33-12
		c7.689-1.716,18.116-3.465,30.731-3.915c1.513-0.054,1.888,2.094,0.444,2.549c-5.817,1.834-11.89,3.941-18.175,6.366
		c-8.143,3.148-15.656,6.458-22.529,9.772c-0.305,0.147-0.651,0.168-0.972,0.06c-0.836-0.28-1.673-0.558-2.509-0.836
		c-1.104-0.367-2.101,0.783-1.582,1.823c0.007,0.013,0.013,0.027,0.02,0.04c0.314,0.63,0.08,1.393-0.539,1.726
		c-4.014,2.162-9.348,5.483-14.89,10.413c-4.89,4.35-13.74,12.4-19,26c-3.49,9.015-4.257,17.52-4.029,24.257
		c0.016,0.463-0.208,0.89-0.6,1.138c-3.97,2.506-8.125,5.357-12.371,8.605c-5.874,4.485-11.017,9.035-15.496,13.421
		c-1.027,1.005,0.092,2.691,1.418,2.138c1.832-0.763,3.872-1.621,6.078-2.56c14.12-6.01,19.48-8.74,25-11
		c6.78-2.772,16.575-5.99,29.603-7.706c1.046-0.138,1.827,0.938,1.351,1.88c-1.578,3.122-3.814,6.9-6.953,10.826
		c-1.77,2.21-7.86,9.54-19,16c-4.55,2.64-10.63,5.53-29,10c-7.62,1.857-17.457,4.003-29.136,5.928
		c-1.434,0.236-1.482,2.29-0.056,2.568c2.763,0.54,5.841,1.061,9.192,1.503c13.37,1.77,23.98,1.33,29,1c9.82-0.65,18.32-1.21,29-5
		c10.3-3.66,17.98-8.68,23-12c3.656-2.421,6.78-4.758,9.326-6.796c0.952-0.762,2.325,0.09,2.091,1.287
		c-0.953,4.882-2.301,8.773-3.417,11.509c-2.59,6.38-5.69,14-13,19c-4.37,2.99-5.26,1.63-10,5c-6.14,4.36-9.31,9.94-11,13
		c-4.12,7.44-2.81,9.87-7,17c0,0-3.01,5.13-8,10c-8.547,8.343-20.737,11.7-29.108,13.066c-1.472,0.24-1.463,2.36,0.012,2.583
		c5.528,0.833,10.299,1.199,14.096,1.352c7.55,0.31,11.66,0.44,17-1c3.08-0.83,6.63-2.2,17-9c9.44-6.19,12.14-8.75,17-12
		c4.995-3.342,12.404-7.504,22.768-10.766c1.246-0.392,2.248,1.065,1.413,2.069c-5.86,7.048-12.257,15.915-18.181,26.697
		c-6.648,12.095-10.995,23.514-13.886,33.226c-0.428,1.437,1.514,2.336,2.345,1.088c0.827-1.241,1.46-2.191,1.541-2.314
		c11.89-17.84,11.79-17.69,12-18c9.23-13.36,20.65-22.12,27-27c8.04-6.18,14.2-9.54,26-16c11.99-6.56,21.08-10.51,36-19
		c2.63-1.49,7.75-4.44,14-9c4.2-3.063,7.531-5.842,9.808-7.832c0.13-0.114,0.276-0.196,0.44-0.25c0.659-0.218,1.318-0.44,1.977-0.66
		c0.474-0.447,1.085-1.023,1.558-1.47c2.55-6.33,6.507-14.207,12.716-22.287c1.161-1.511,2.33-2.936,3.494-4.28
		c5.003-5.773,8.217-12.87,9.432-20.412c2.364-14.669,4.871-27.235,7.074-37.309c2.198-10.052,4.674-21.268,9-36
		c4.767-16.232,9.254-28.13,13-38c6.525-17.193,12.006-29.409,19-45c9.87-22.001,17.137-36.342,19-40
		c3.428-6.731,6.491-12.509,8.942-17.048c0.484-0.896,1.753-0.914,2.27-0.037c1.897,3.219,4.267,8.392,4.788,15.085
		c0.229,2.947,0.736,10.869-4,19c-0.982,1.687-2.055,3.15-3.13,4.409c-0.92,1.078,0.304,2.646,1.571,2.011
		c6.326-3.172,15.448-9.639,18.559-21.42C750.869,239.956,746.809,230.659,745.205,227.489z M512.02,400.114
		c1.392-0.378,2.273,1.418,1.13,2.297c-2.515,1.936-5.262,4.569-7.697,8.089c-3.836,5.545-5.282,10.952-5.877,14.274
		c-0.082,0.455-0.397,0.823-0.832,0.98c-4.522,1.625-9.311,3.523-14.29,5.746c-4.637,2.072-8.959,4.208-12.956,6.341
		c-1.075,0.574-2.28-0.505-1.824-1.635c1.71-4.241,4.176-8.983,7.779-13.706C488.062,408.603,502.582,402.675,512.02,400.114z"/>
	<polygon style="fill:#FFFFFF;stroke:#000000;stroke-width:3;stroke-miterlimit:10;" points="980.953,354.514 978.906,356.775 
		976.473,358.535 974.303,359.407 970.536,359.771 965.953,358.514 962.507,356.935 958.589,353.511 956.431,350.408 
		955.524,346.03 956.737,342.974 958.871,341 963.335,341 968.056,342.172 972.769,344.767 976.896,348.486 979.099,351.514 	"/>
	<path style="fill:none;stroke:#000000;stroke-width:3;stroke-linecap:round;stroke-linejoin:round;stroke-miterlimit:10;" d="
		M983.453,363.5c0.019-2.192-0.114-12.644-8-20c-1.713-1.598-5.72-5.232-12-6c-3.935-0.481-7.158,0.359-9,1"/>
	<path style="fill:none;stroke:#000000;stroke-width:3;stroke-linecap:round;stroke-linejoin:round;stroke-miterlimit:10;" d="
		M980.453,351.5c-0.762,1.047-2.359,2.925-5,4c-4.677,1.905-9.119-0.136-11-1c-0.692-0.318-4.338-2.049-7-6
		c-1.019-1.511-1.991-2.954-2-5c-0.015-3.237,2.392-5.467,3-6"/>
	<path style="fill:none;stroke:#000000;stroke-width:2;stroke-linecap:round;stroke-linejoin:round;stroke-miterlimit:10;" d="
		M370.453,810.5c-4.588-3.283-13.865-10.906-19-24c-4.33-11.04-3.583-20.532-3-27c2.354-26.113,17.232-45.315,25-54
		c-2.497,5.618-5.813,15.214-5,27c1.165,16.884,10.17,29.094,16,37c7.655,10.38,11.487,11.273,23,26c5.375,6.875,9.383,12.876,12,17
		"/>
	<path style="fill:none;stroke:#000000;stroke-width:2;stroke-linecap:round;stroke-linejoin:round;stroke-miterlimit:10;" d="
		M367.453,823.5c-2.576-1.872-6.64-4.56-12-7c-7.814-3.557-11.446-3.429-20-6c-9.113-2.739-17.816-5.355-25-12c0,0-7.15-6.613-11-18
		c-6.398-18.923,5.522-48.228,31-74"/>
	<path style="fill:none;stroke:#000000;stroke-width:2;stroke-linecap:round;stroke-linejoin:round;stroke-miterlimit:10;" d="
		M313.453,876.5c3.104-0.96,8.058-2.914,13-7c2.168-1.792,9.092-7.678,12-18c2.328-8.264,0.878-15.096,0-19
		c-3.235-14.391-12.688-23.388-17-27"/>
	<path style="fill:none;stroke:#000000;stroke-width:2;stroke-linecap:round;stroke-linejoin:round;stroke-miterlimit:10;" d="
		M303.453,898.5c3.494-1.713,7.5-3.44,12-5c5.465-1.894,10.537-3.153,15-4"/>
	<path style="fill:none;stroke:#000000;stroke-width:2;stroke-linecap:round;stroke-linejoin:round;stroke-miterlimit:10;" d="
		M155.453,819.5c12.196-4.648,21.929-9.797,29-14c10.941-6.503,23.186-13.781,35-27c6.789-7.596,7.458-10.467,18-22
		c5.991-6.555,11.011-11.356,17-16c11.065-8.58,17.377-10.374,20-11c4.924-1.176,9.173-1.183,12-1"/>
	<path style="fill:none;stroke:#000000;stroke-width:2;stroke-linecap:round;stroke-linejoin:round;stroke-miterlimit:10;" d="
		M170.453,766.5c2.123-4.733,5.322-11.054,10-18c4.595-6.823,13.331-19.532,29-30c6.826-4.56,20.049-13.173,39-15
		c25.024-2.412,44.098,8.544,51,13"/>
	<path style="fill:none;stroke:#000000;stroke-width:2;stroke-linecap:round;stroke-linejoin:round;stroke-miterlimit:10;" d="
		M318.453,705.5c-4.979,2.126-11.773,5.55-19,11c-2.871,2.165-7.823,5.943-13,12c-2.357,2.757-8.591,10.468-13,22
		c-4.351,11.378-4.644,20.512-5,36c-0.387,16.84,1.394,17.455,1,32c-0.237,8.755-0.601,22.213-5,37c-2.759,9.275-8.787,24.723-23,41
		c4.439-1.812,9.606-4.365,15-8c9.428-6.352,15.872-13.528,20-19"/>
	<path style="fill:none;stroke:#000000;stroke-width:2;stroke-linecap:round;stroke-linejoin:round;stroke-miterlimit:10;" d="
		M230.453,928.5c2.024-7.466,4.491-19.366,4-34c-0.453-13.51-3.072-18.727-5-36c-1.047-9.38-2.496-22.364-1-38
		c2.071-21.641,8.764-37.703,14-50c4.006-9.408,10.018-21.617,19-35"/>
	<path style="fill:none;stroke:#000000;stroke-width:2;stroke-linecap:round;stroke-linejoin:round;stroke-miterlimit:10;" d="
		M193.453,943.5c3.885-3.477,9.799-9.675,14-19c4.432-9.837,4.787-18.334,5-25c0.189-5.932-0.204-12.575-6-38
		c-4.805-21.079-5.26-19.694-6-25c-1.504-10.786-1.062-26.812,9-48"/>
	<path style="fill:none;stroke:#000000;stroke-width:2;stroke-linecap:round;stroke-linejoin:round;stroke-miterlimit:10;" d="
		M183.453,718.5c14.146-5.561,26.108-9.891,35-13c19.363-6.771,25.363-8.174,32-9c8.471-1.055,17.747-2.117,29,1
		c12.843,3.558,21.52,10.694,26,15"/>
	<path style="fill:none;stroke:#000000;stroke-width:2;stroke-linecap:round;stroke-linejoin:round;stroke-miterlimit:10;" d="
		M409.453,696.5c-3.379,4.779-7.877,12.553-10,23c-1.012,4.98-3.326,17.179,2,31c2.65,6.878,6.311,11.87,9,15"/>
	<path style="fill:none;stroke:#000000;stroke-width:2;stroke-linecap:round;stroke-linejoin:round;stroke-miterlimit:10;" d="
		M270.453,902.5c-3.929,5.297-6.42,10.247-8,14c-0.632,1.501-2.607,6.346-4,13c-0.5,2.388-0.806,4.442-1,6
		c0.815-2.252,2.063-5.045,4-8c2.367-3.612,4.952-6.226,7-8"/>
	<path style="fill:none;stroke:#000000;stroke-width:3;stroke-linecap:round;stroke-linejoin:round;stroke-miterlimit:10;" d="
		M662.953,391c-7.023-4.66-13.417-7.383-18-9c-5.528-1.951-11.183-3.946-19-4c-8.381-0.058-14.744,2.145-17,3
		c-6.698,2.538-7.604,4.714-16,9c-6.155,3.142-11.866,5.136-15,6c-4.697,1.295-13.255,2.712-33-3c-10.556-3.054-25.791-8.574-43-19
		c2.31,3.139,5.632,7.357,10,12c5.126,5.448,12.764,13.567,24,20c15.884,9.094,31.087,10.312,41,11c10.325,0.716,18.966-0.094,25-1"
		/>
	<path style="fill:none;stroke:#000000;stroke-width:3;stroke-linecap:round;stroke-linejoin:round;stroke-miterlimit:10;" d="
		M501.453,443.5c4.263-0.429,10.885-0.956,19-1c16.119-0.088,21.745,1.82,35,2c8.869,0.12,16.579-0.92,32-3
		c11.985-1.617,23.357-3.151,38-7c11.78-3.097,21.859-6.688,30-10"/>
	<path style="fill:none;stroke:#000000;stroke-width:3;stroke-linecap:round;stroke-linejoin:round;stroke-miterlimit:10;" d="
		M499.453,425.5c6.23-1.702,12.564-3.371,19-5c11.563-2.926,22.903-5.585,34-8"/>
	<path style="fill:none;stroke:#000000;stroke-width:3;stroke-linecap:round;stroke-linejoin:round;stroke-miterlimit:10;" d="
		M550.5,358.5c7.006,0.254,24.946-0.57,36.953-1c12.922-0.463,19.383-0.695,27-2c8.953-1.534,25.439-4.536,42-16
		c4.932-3.414,8.63-6.72,11-9"/>
	<path style="fill:none;stroke:#000000;stroke-width:3;stroke-linecap:round;stroke-linejoin:round;stroke-miterlimit:10;" d="
		M702.453,282.5c-9.495,1.425-22.492,3.243-38,5c-19.667,2.228-30.383,3.443-45,4c-21.469,0.819-39.445-0.234-52-1
		c-16.372-0.998-20.444-1.885-33-2c-15.182-0.14-27.647,0.987-36,2"/>
	<path style="fill:none;stroke:#000000;stroke-width:3;stroke-linecap:round;stroke-linejoin:round;stroke-miterlimit:10;" d="
		M707.453,273.5c-7.523-2.319-16.234-4.479-26-6c-15.002-2.336-24.783-1.702-37-2c-11.141-0.272-44.149-3.329-63.953-7"/>
	<path style="fill:none;stroke:#000000;stroke-width:3;stroke-linecap:round;stroke-linejoin:round;stroke-miterlimit:10;" d="
		M729.453,229.5c-1.253-3.205-2.722-8.026-3-14c-0.2-4.303-0.693-14.889,6-24c9.102-12.39,24.811-12.956,27-13"/>
	<path style="fill:none;stroke:#000000;stroke-width:3;stroke-linecap:round;stroke-linejoin:round;stroke-miterlimit:10;" d="
		M745.453,226.5c-0.959,1.034-2.019,2.357-3,4c-1.823,3.053-2.623,5.953-3,8c-1.415-10.783-0.197-19.502,1-25
		c1.227-5.631,4.936-21.617,19-35c7.321-6.967,14.593-10.511,18-12c7.512-3.282,15.158-3.786,30-5c7.484-0.612,13.7-0.875,18-1"/>
	<path style="fill:none;stroke:#000000;stroke-width:3;stroke-linecap:round;stroke-linejoin:round;stroke-miterlimit:10;" d="
		M628.5,238.5c5.146-1.197,23.706-4.948,32.953-7c17.111-3.798,25.833-5.723,34-7c7.557-1.182,18.483-2.546,32-3"/>
	<path style="fill:none;stroke:#000000;stroke-width:3;stroke-linecap:round;stroke-linejoin:round;stroke-miterlimit:10;" d="
		M730.453,153.5c9.558,3.379,18.011,4.664,25,5c10.743,0.517,15.763-1.319,27-1c9.725,0.276,18.166,1.996,25,4"/>
	<path style="fill:none;stroke:#000000;stroke-width:3;stroke-linecap:round;stroke-linejoin:round;stroke-miterlimit:10;" d="
		M721.453,184.5c3.345-0.473,7.025-0.838,11-1c3.195-0.13,6.204-0.114,9,0"/>
	<path style="fill:none;stroke:#000000;stroke-width:3;stroke-linecap:round;stroke-linejoin:round;stroke-miterlimit:10;" d="
		M529.5,315.5c7.72,3.652,26.508,10.993,39.953,14c6.149,1.375,24.384,5.052,48,3c24.594-2.137,43.002-9.444,57-15
		c6.717-2.666,12.194-5.175,16-7"/>
	<path style="fill:none;stroke:#000000;stroke-width:3;stroke-linecap:round;stroke-linejoin:round;stroke-miterlimit:10;" d="
		M524.5,531.5c7.626-2.77,21.183-8.647,31.953-14c11.567-5.749,18.531-9.21,27-16c13.035-10.451,19.589-20.733,21-23
		c3.386-5.437,5.636-8.368,7.047-12"/>
	<path style="fill:none;stroke:#000000;stroke-width:3;stroke-linecap:round;stroke-linejoin:round;stroke-miterlimit:10;" d="
		M614.453,500.5c1.291-3.084,3.037-8.343,3-15c-0.017-3.119-0.07-12.555-6-20c-3.822-4.799-7.538-5.57-20-11
		c-5.364-2.337-12.293-4.969-21.953-10"/>
	<path style="fill:none;stroke:#000000;stroke-width:3;stroke-linecap:round;stroke-linejoin:round;stroke-miterlimit:10;" d="
		M516.5,471.5c0.974-4.364,4.675-13.987,7.953-20c1.95-3.577,4.046-6.567,6-9"/>
	<path style="fill:none;stroke:#000000;stroke-width:3;stroke-linecap:round;stroke-linejoin:round;stroke-miterlimit:10;" d="
		M553.453,395.5c1.28-4.853,3.11-8.819,5-12c13.625-22.932,43.034-26.412,49-27"/>
	<path style="fill:none;stroke:#000000;stroke-width:3;stroke-linecap:round;stroke-linejoin:round;stroke-miterlimit:10;" d="
		M607.453,381.5c5.494-3.617,12.163-7.468,20-11c6.864-3.094,13.296-5.344,19-7"/>
	<path style="fill:none;stroke:#000000;stroke-width:3;stroke-linecap:round;stroke-linejoin:round;stroke-miterlimit:10;" d="
		M642.5,380.5c-0.033-3.804,0.383-9.596,3.953-17c3.65-7.569,8.681-11.904,10-13c4.968-4.128,9.94-6.067,13-7"/>
	<path style="fill:none;stroke:#000000;stroke-width:3;stroke-linecap:round;stroke-linejoin:round;stroke-miterlimit:10;" d="
		M674.453,352.5c-1.759-3.246-3.699-7.616-5-13c-1.997-8.266-1.628-15.374-1-20"/>
	<path style="fill:none;stroke:#000000;stroke-width:3;stroke-linecap:round;stroke-linejoin:round;stroke-miterlimit:10;" d="
		M854.453,192.5c3.026-0.759,6.834-1.978,11-4c5.144-2.497,8.862-5.26,11-7c5.032-4.096,8.578-8.442,11-12"/>
	<path style="fill:#FFFFFF;stroke:#000000;stroke-width:4;stroke-miterlimit:10;" d="M618.953,579
		c34.808-15.177,24.412-64.648,56-101c24.567-28.272,72.384-46.14,97-29c23.681,16.489,24.806,64.622,7,94
		c-17.782,29.338-44.083,22.88-61,54c-15.125,27.824,1.179,41.672-13,69c-19.786,38.134-70.292,47.324-85,50
		c-5.501,1.001-82.331,14.15-102-23c-7.146-13.497-7.04-34.187,5-48c13.518-15.509,39.78,4.081,54-10
		c11.332-11.221,1.442-27.894,15-43C600.242,582.765,609.025,583.329,618.953,579z"/>
	<path style="fill:#FFFFFF;stroke:#000000;stroke-width:4;stroke-miterlimit:10;" d="M527.953,786c18.262-0.467,33.331,20.132,33,36
		c-0.277,13.28-11.137,13.564-18,35c-5.553,17.346-1.981,28.212-10,33c-4.962,2.962-12.321,2.379-17-1
		c-7.755-5.601-4.374-16.159-7-37c-3.57-28.333-12.889-33.192-8-46C504.996,795.407,516.114,786.303,527.953,786z"/>
</g>
</svg>
