<?xml version="1.0" encoding="utf-8"?>
<!-- Generator: Adobe Illustrator 27.5.0, SVG Export Plug-In . SVG Version: 6.00 Build 0)  -->
<svg version="1.1" xmlns="http://www.w3.org/2000/svg" xmlns:xlink="http://www.w3.org/1999/xlink" x="0px" y="0px"
	 viewBox="0 0 500 500" style="enable-background:new 0 0 500 500;" xml:space="preserve">
<g id="BACKGROUND">
	<rect style="fill:#FFFFFF;" width="500" height="500"/>
</g>
<g id="OBJECTS">
	<g>
		<g>
			<g>
				<g>
					<path style="fill:none;stroke:#020202;stroke-width:3;stroke-linecap:round;stroke-linejoin:round;stroke-miterlimit:10;" d="
						M377.42,120.352c0,0,23.465-3.805,38.897,18.814s15.643,24.099,15.643,24.099s5.708-2.96,8.033,0
						c2.325,2.96-2.96,6.553-2.96,6.553s6.553-0.846,5.919,1.691c-0.634,2.537-3.805,3.382-3.805,3.382s10.992,14.375-3.382,43.547
						c-14.375,29.173-34.457,32.555-37.205,31.498c-2.748-1.057-6.13-2.114-6.13-2.114s-13.952,18.814-40.165,11.415
						c-26.213-7.399-35.091-23.465-35.091-23.465s-29.595-12.049-30.864-50.1c-1.268-38.051,21.985-42.702,21.985-42.702
						s-3.594-4.016-0.423-6.342c3.171-2.325,5.496,2.96,5.496,2.96s-2.537-7.61,0.423-8.456c2.96-0.845,6.13,4.439,6.13,4.439
						s15.009-15.703,28.961-15.461c13.952,0.241,18.391-0.003,18.391-0.003s0-6.944,2.325-5.887
						c2.325,1.057,2.325,4.862,2.325,4.862s3.171-6.349,5.708-4.972C380.168,115.49,377.42,120.352,377.42,120.352z"/>
					<path style="fill:none;stroke:#020202;stroke-width:3;stroke-linecap:round;stroke-linejoin:round;stroke-miterlimit:10;" d="
						M357.338,205.121c3.674-0.37,14.591-0.505,14.586,2.325c-0.006,4.022-7.187,8.033-10.358,6.553
						C358.395,212.52,354.409,205.416,357.338,205.121z"/>
					<g>
						
							<ellipse transform="matrix(0.1195 -0.9928 0.9928 0.1195 167.8087 558.6385)" style="fill:#020202;" cx="398.867" cy="184.708" rx="13.741" ry="10.253"/>
						
							<ellipse transform="matrix(0.1195 -0.9928 0.9928 0.1195 121.2125 491.3531)" style="fill:#020202;" cx="337.634" cy="177.336" rx="13.741" ry="10.253"/>
					</g>
					<path style="fill:none;stroke:#020202;stroke-width:3;stroke-linecap:round;stroke-linejoin:round;stroke-miterlimit:10;" d="
						M363.04,214.309c0,0,2.965,21.041,20.934,10.894"/>
					<path style="fill:none;stroke:#020202;stroke-width:3;stroke-linecap:round;stroke-linejoin:round;stroke-miterlimit:10;" d="
						M339.581,217.593c0,0,4.651,8.244,12.049,6.13s11.41-9.415,11.41-9.415"/>
					<path style="fill:none;stroke:#020202;stroke-width:3;stroke-linecap:round;stroke-linejoin:round;stroke-miterlimit:10;" d="
						M405.958,209.619c0,0,19.026-2.384,42.279,15.796"/>
					<path style="fill:none;stroke:#020202;stroke-width:3;stroke-linecap:round;stroke-linejoin:round;stroke-miterlimit:10;" d="
						M405.113,221.139c0,0,14.586,6.601,26.636,24.993"/>
					<path style="fill:none;stroke:#020202;stroke-width:3;stroke-linecap:round;stroke-linejoin:round;stroke-miterlimit:10;" d="
						M395.6,231.334c0,0,9.513,8.033,15.009,26.424"/>
					<path style="fill:none;stroke:#020202;stroke-width:3;stroke-linecap:round;stroke-linejoin:round;stroke-miterlimit:10;" d="
						M326.897,197.299c0,0-25.79-7.822-55.174,2.114"/>
					<path style="fill:none;stroke:#020202;stroke-width:3;stroke-linecap:round;stroke-linejoin:round;stroke-miterlimit:10;" d="
						M320.555,206.812c0,0-27.059,5.189-41.222,14.327"/>
					<path style="fill:none;stroke:#020202;stroke-width:3;stroke-linecap:round;stroke-linejoin:round;stroke-miterlimit:10;" d="
						M317.807,221.139c0,0-19.237,5.121-24.522,14.634"/>
					<path style="fill:none;stroke:#020202;stroke-width:3;stroke-linecap:round;stroke-linejoin:round;stroke-miterlimit:10;" d="
						M287.595,196.894c0,0-17.775,8.227-23.483,14.569c-5.708,6.342-24.416,4.016-47.564-4.651
						c-23.148-8.667-60.247-17.763-90.688,7.502c-30.441,25.265-41.856,59.933-44.816,86.992
						c-2.959,27.058-27.481,44.816-24.099,57.499c3.382,12.684,26.903,48.26,29.296,50.535
						c14.007,13.318,11.746,22.661,19.335,24.21c10.13,2.067,43.907,3.254,51.992,0.224c5.279-1.978,1.621-15.17-1.691-20.852
						c-8.371-14.362-23.47-11.587-26.007-13.701c-2.537-2.114-13.625-27.611-13.625-27.611s40.901-2.236,62.463-22.953
						c21.562-20.717,21.985-36.783,16.066-55.808"/>
					<path style="fill:none;stroke:#020202;stroke-width:3;stroke-linecap:round;stroke-linejoin:round;stroke-miterlimit:10;" d="
						M135.686,368.754c0,0,13.799,29.986,32.813,42.546c4.907,3.242,7.04,22.474,29.342,24.03
						c16.5,1.151,21.562-8.878,14.586-19.025c-6.976-10.147-10.781-10.464-10.781-10.464"/>
					<path style="fill:none;stroke:#020202;stroke-width:3;stroke-linecap:round;stroke-linejoin:round;stroke-miterlimit:10;" d="
						M200.377,394.425c0,0,22.051,2.698,27.8,18.329c4.832,13.138,3.909,22.576-3.384,22.576c-7.293,0-24.416,0-24.416,0"/>
					<path style="fill:none;stroke:#020202;stroke-width:3;stroke-linecap:round;stroke-linejoin:round;stroke-miterlimit:10;" d="
						M173.436,353.114c0,0,37.088,11.504,77.359,1.674"/>
					
						<polyline style="fill:none;stroke:#020202;stroke-width:3;stroke-linecap:round;stroke-linejoin:round;stroke-miterlimit:10;" points="
						203.346,394.963 186.108,368.213 198.526,357.8 					"/>
					<path style="fill:none;stroke:#020202;stroke-width:3;stroke-linecap:round;stroke-linejoin:round;stroke-miterlimit:10;" d="
						M257.454,283.443c0,0-10.781,59.613-5.074,78.956c5.708,19.343,22.836,53.879,22.836,53.879s11.727,17.466,21.874,19.052
						c10.147,1.586,23.359-3.488,20.717-12.684c-2.642-9.196-9.618-11.415-9.618-11.415"/>
					<path style="fill:none;stroke:#020202;stroke-width:3;stroke-linecap:round;stroke-linejoin:round;stroke-miterlimit:10;" d="
						M321.823,253.953c0,0,12.367,14.586,7.293,29.489c-5.073,14.903-11.31,20.928-11.31,20.928"/>
					<path style="fill:none;stroke:#020202;stroke-width:3;stroke-linecap:round;stroke-linejoin:round;stroke-miterlimit:10;" d="
						M317.807,279.162c0,0,2.431,16.03-4.862,36.95c-7.293,20.919-13.635,38.36-13.635,38.36l16.737,41.826
						c0,0,19.163,3.381,24.87,10.812c5.479,7.135,5.565,23.465-4.582,28.221h-35.44"/>
					<path style="fill:none;stroke:#020202;stroke-width:3;stroke-linecap:round;stroke-linejoin:round;stroke-miterlimit:10;" d="
						M388.112,252.195c0,0,0.618,11.209-5.407,23.131c-6.025,11.922-13.635,16.044-13.635,16.044s-27.979,46.472-67.102,55.738"/>
					<path style="fill:none;stroke:#020202;stroke-width:3;stroke-linecap:round;stroke-linejoin:round;stroke-miterlimit:10;" d="
						M361.471,302.32c0,0-14.009,35.187-31.132,54.926l15.699,37.179c0,0,20.819,3.745,25.872,10.962
						c6.659,9.513,8.259,28.357-0.937,29.942h-37.479"/>
					<path style="fill:none;stroke:#020202;stroke-width:3;stroke-linecap:round;stroke-linejoin:round;stroke-miterlimit:10;" d="
						M357.021,407.108c0,0,13.635,18.391,0,28.221"/>
					<path style="fill:none;stroke:#020202;stroke-width:3;stroke-linecap:round;stroke-linejoin:round;stroke-miterlimit:10;" d="
						M403.105,126.301c0,0,29.384-40.406,38.579-32.479c9.196,7.927,22.185,58.48,0.384,87.902"/>
					<path style="fill:none;stroke:#020202;stroke-width:3;stroke-linecap:round;stroke-linejoin:round;stroke-miterlimit:10;" d="
						M418.431,142.273c0,0,16.277-35.133,21.985-36.084c5.708-0.951,10.061,6.516,10.061,6.516"/>
					<path style="fill:none;stroke:#020202;stroke-width:3;stroke-linecap:round;stroke-linejoin:round;stroke-miterlimit:10;" d="
						M353.676,120.18c0,0-9.896-50.846-21.557-47.467c-11.661,3.38-44.606,43.5-37.032,79.328"/>
					<path style="fill:none;stroke:#020202;stroke-width:3;stroke-linecap:round;stroke-linejoin:round;stroke-miterlimit:10;" d="
						M333.081,125.197c0,0-0.163-37.471-4.956-40.712c-4.793-3.241-11.86,1.736-11.86,1.736"/>
					<path style="fill:none;stroke:#020202;stroke-width:3;stroke-linecap:round;stroke-linejoin:round;stroke-miterlimit:10;" d="
						M255.191,214.942c0,0-23.457,47.89-22.805,76.428c0,0-17.197-40.598-4.467-80.705"/>
					<path style="fill:none;stroke:#020202;stroke-width:3;stroke-linecap:round;stroke-linejoin:round;stroke-miterlimit:10;" d="
						M216.549,206.812c0,0-36.556,29.322-44.438,68.514c0,0-8.833-55.637,13.997-76.556"/>
					<path style="fill:none;stroke:#020202;stroke-width:3;stroke-linecap:round;stroke-linejoin:round;stroke-miterlimit:10;" d="
						M162.018,198.529c0,0-26.644,40.521-24.107,70.962c0,0-15.244-28.438-0.17-63.209"/>
					<path style="fill:none;stroke:#020202;stroke-width:3;stroke-linecap:round;stroke-linejoin:round;stroke-miterlimit:10;" d="
						M120.339,219.19c0,0-25.87,4.323-37.286-27.704c-11.415-32.026,14.57-93.845,48.031-87.193
						c33.462,6.652,27.754,29.483,51.219,25.36c23.465-4.122,13.635-45.661-14.269-58.979
						C140.13,57.356,96.371,53.882,65.296,104.293c-31.075,50.411-26.781,120.395,28.783,150.882"/>
					<path style="fill:none;stroke:#020202;stroke-width:3;stroke-linecap:round;stroke-linejoin:round;stroke-miterlimit:10;" d="
						M111.303,108.234c0,0,1.874-17.839,8.216-24.846c0,0,2.616,14.308,5.113,20.456"/>
					<path style="fill:none;stroke:#020202;stroke-width:3;stroke-linecap:round;stroke-linejoin:round;stroke-miterlimit:10;" d="
						M99.68,118.62c0,0-16.151-4.217-23.761-10.385c0,0,1.886,17.295,13.785,26.254"/>
					<path style="fill:none;stroke:#020202;stroke-width:3;stroke-linecap:round;stroke-linejoin:round;stroke-miterlimit:10;" d="
						M82.34,155.989c0,0-16.626,0.613-25.713-1.761c0,0,10.46,18.696,23.834,23.934"/>
					<path style="fill:none;stroke:#020202;stroke-width:3;stroke-linecap:round;stroke-linejoin:round;stroke-miterlimit:10;" d="
						M84.32,194.749c0,0-10.462,22.421-17.121,28.763c0,0,12.418,3.616,31.101-10.241"/>
				</g>
				<circle style="fill:#FFFFFF;" cx="396.103" cy="180.688" r="3.352"/>
				<circle style="fill:#FFFFFF;" cx="335.376" cy="172.783" r="3.352"/>
				<path style="fill:none;stroke:#020202;stroke-width:3;stroke-linecap:round;stroke-linejoin:round;stroke-miterlimit:10;" d="
					M137.267,412.933c0,0,11.662,5.394,8.128,22.487"/>
				
					<line style="fill:none;stroke:#020202;stroke-width:3;stroke-linecap:round;stroke-linejoin:round;stroke-miterlimit:10;" x1="431.749" y1="435.33" x2="49.95" y2="435.33"/>
				<g>
					
						<ellipse transform="matrix(0.9161 -0.401 0.401 0.9161 -125.1446 199.5898)" style="fill:none;stroke:#020202;stroke-width:3;stroke-linecap:round;stroke-linejoin:round;stroke-miterlimit:10;" cx="414.244" cy="398.763" rx="36.854" ry="36.854"/>
					<path style="fill:none;stroke:#020202;stroke-width:3;stroke-linecap:round;stroke-linejoin:round;stroke-miterlimit:10;" d="
						M393.041,428.901c0,0,37.144-7.441,57.863-33.938"/>
					<path style="fill:none;stroke:#020202;stroke-width:3;stroke-linecap:round;stroke-linejoin:round;stroke-miterlimit:10;" d="
						M406.969,434.897c0,0,27.952-8.449,43.473-29.221"/>
					<path style="fill:none;stroke:#020202;stroke-width:3;stroke-linecap:round;stroke-linejoin:round;stroke-miterlimit:10;" d="
						M446.834,399.717c0,0-29.777-21.759-62.322-22.732"/>
					<path style="fill:none;stroke:#020202;stroke-width:3;stroke-linecap:round;stroke-linejoin:round;stroke-miterlimit:10;" d="
						M390.33,370.732c0,0,37.314-1.892,60.112,21.098"/>
					<path style="fill:none;stroke:#020202;stroke-width:3;stroke-linecap:round;stroke-linejoin:round;stroke-miterlimit:10;" d="
						M404.022,363.355c0,0,29.158,5.979,41.912,16.594"/>
					<path style="fill:none;stroke:#020202;stroke-width:3;stroke-linecap:round;stroke-linejoin:round;stroke-miterlimit:10;" d="
						M427.811,388.685c0,0,1.918,15.795-7.425,30.284"/>
					<path style="fill:none;stroke:#020202;stroke-width:3;stroke-linecap:round;stroke-linejoin:round;stroke-miterlimit:10;" d="
						M419.331,384.929c0,0-0.334,19.768-10.807,39.247"/>
					<path style="fill:none;stroke:#020202;stroke-width:3;stroke-linecap:round;stroke-linejoin:round;stroke-miterlimit:10;" d="
						M408.524,381.262c0,0-0.874,26.556-11.872,46.766"/>
					<path style="fill:none;stroke:#020202;stroke-width:3;stroke-linecap:round;stroke-linejoin:round;stroke-miterlimit:10;" d="
						M427.689,397.601c0,0,6.495,6.378,11.201,9.508"/>
					<path style="fill:none;stroke:#020202;stroke-width:3;stroke-linecap:round;stroke-linejoin:round;stroke-miterlimit:10;" d="
						M378.635,408.28c0,0,14.103-5.214,28.887-16.45"/>
					<path style="fill:none;stroke:#020202;stroke-width:3;stroke-linecap:round;stroke-linejoin:round;stroke-miterlimit:10;" d="
						M377.389,398.763c0,0,18.738-9.755,26.976-18.813"/>
					<path style="fill:none;stroke:#020202;stroke-width:3;stroke-linecap:round;stroke-linejoin:round;stroke-miterlimit:10;" d="
						M383.423,418.969c0,0,14.591-6.15,20.942-11.079"/>
				</g>
			</g>
		</g>
		<g>
			<path style="fill:none;stroke:#020202;stroke-width:3;stroke-linecap:round;stroke-linejoin:round;stroke-miterlimit:10;" d="
				M17.91,265.348c0,0-2.251-3.988-1.21-5.936c1.041-1.949,4.922,3.824,7.407,4.533s18.907-3.329,23.463,2.021
				c4.556,5.349,1.965,11.863-2.681,13.737c-4.645,1.874-19.969-6.764-23-5.295c-3.031,1.47-6.581,3.804-7.192,1.164
				C14.085,272.931,17.91,265.348,17.91,265.348z"/>
			<path style="fill:none;stroke:#020202;stroke-width:3;stroke-linecap:round;stroke-linejoin:round;stroke-miterlimit:10;" d="
				M36.992,263.151c0,0-5.517,8.591-1.341,15.07"/>
			<path style="fill:none;stroke:#020202;stroke-width:3;stroke-linecap:round;stroke-linejoin:round;stroke-miterlimit:10;" d="
				M45.492,269.45c0,0.322-0.261,0.583-0.583,0.583c-0.322,0-0.583-0.261-0.583-0.583c0-0.322,0.261-0.583,0.583-0.583
				C45.231,268.867,45.492,269.128,45.492,269.45z"/>
		</g>
		<g>
			<path style="fill:none;stroke:#020202;stroke-width:3;stroke-linecap:round;stroke-linejoin:round;stroke-miterlimit:10;" d="
				M246.441,128.391c0,0,4.197-1.831,6.029-0.597c1.832,1.235-4.307,4.505-5.266,6.905c-0.959,2.4,1.378,19.148-4.409,23.133
				c-5.787,3.986-12.002,0.742-13.391-4.071c-1.389-4.813,8.771-19.173,7.619-22.339c-1.152-3.165-3.111-6.935-0.423-7.274
				S246.441,128.391,246.441,128.391z"/>
			<path style="fill:none;stroke:#020202;stroke-width:3;stroke-linecap:round;stroke-linejoin:round;stroke-miterlimit:10;" d="
				M246.675,147.597c0,0-7.982-6.366-14.854-2.875"/>
			<path style="fill:none;stroke:#020202;stroke-width:3;stroke-linecap:round;stroke-linejoin:round;stroke-miterlimit:10;" d="
				M239.54,155.409c-0.32-0.033-0.554-0.319-0.521-0.64c0.033-0.32,0.319-0.553,0.64-0.521c0.321,0.033,0.554,0.319,0.521,0.64
				C240.147,155.209,239.86,155.442,239.54,155.409z"/>
		</g>
		<g>
			<path style="fill:none;stroke:#020202;stroke-width:3;stroke-linecap:round;stroke-linejoin:round;stroke-miterlimit:10;" d="
				M403.309,42.141c0,0-3.178-3.297-2.658-5.444c0.52-2.147,5.723,2.47,8.306,2.533c2.584,0.063,17.47-7.958,23.221-3.92
				c5.751,4.038,4.873,10.993,0.845,13.971c-4.028,2.978-21.027-1.548-23.593,0.634c-2.567,2.182-5.418,5.331-6.672,2.928
				C401.505,50.44,403.309,42.141,403.309,42.141z"/>
			<path style="fill:none;stroke:#020202;stroke-width:3;stroke-linecap:round;stroke-linejoin:round;stroke-miterlimit:10;" d="
				M421.232,35.235c0,0-3.19,9.699,2.476,14.926"/>
			<path style="fill:none;stroke:#020202;stroke-width:3;stroke-linecap:round;stroke-linejoin:round;stroke-miterlimit:10;" d="
				M431.04,39.205c0.081,0.312-0.107,0.63-0.419,0.711c-0.312,0.081-0.63-0.107-0.711-0.419c-0.081-0.312,0.107-0.63,0.419-0.711
				S430.959,38.893,431.04,39.205z"/>
		</g>
		<g>
			<path style="fill:none;stroke:#020202;stroke-width:3;stroke-linecap:round;stroke-linejoin:round;stroke-miterlimit:10;" d="
				M470.982,330.024c0,0,4.145-1.947,4.425-4.139c0.28-2.191-6.227,0.267-8.664-0.595c-2.437-0.862-13.485-13.664-20.297-11.942
				c-6.813,1.722-8.473,8.533-5.771,12.751c2.702,4.218,20.197,6.051,21.816,9.005c1.62,2.953,3.161,6.912,5.189,5.115
				C469.709,338.421,470.982,330.024,470.982,330.024z"/>
			<path style="fill:none;stroke:#020202;stroke-width:3;stroke-linecap:round;stroke-linejoin:round;stroke-miterlimit:10;" d="
				M456.7,317.181c0,0-0.478,10.199-7.635,13.062"/>
			<path style="fill:none;stroke:#020202;stroke-width:3;stroke-linecap:round;stroke-linejoin:round;stroke-miterlimit:10;" d="
				M446.121,317.393c-0.187,0.263-0.125,0.627,0.138,0.813c0.263,0.187,0.627,0.125,0.813-0.138
				c0.187-0.263,0.125-0.627-0.138-0.813C446.672,317.069,446.308,317.13,446.121,317.393z"/>
		</g>
		<g>
			<path style="fill:none;stroke:#020202;stroke-width:3;stroke-linecap:round;stroke-linejoin:round;stroke-miterlimit:10;" d="
				M60.04,31.026c0,0,0.24-4.573-1.559-5.854c-1.799-1.282-2.704,5.615-4.615,7.357c-1.91,1.741-18.412,5.437-20.11,12.255
				s3.522,11.498,8.516,11.107S57.141,40.943,60.51,40.909c3.368-0.034,7.586,0.477,6.958-2.16
				C66.841,36.113,60.04,31.026,60.04,31.026z"/>
			<path style="fill:none;stroke:#020202;stroke-width:3;stroke-linecap:round;stroke-linejoin:round;stroke-miterlimit:10;" d="
				M41.975,37.554c0,0,8.765,5.236,7.91,12.897"/>
			<path style="fill:none;stroke:#020202;stroke-width:3;stroke-linecap:round;stroke-linejoin:round;stroke-miterlimit:10;" d="
				M37.168,46.979c0.143,0.289,0.494,0.406,0.782,0.263c0.289-0.143,0.406-0.493,0.263-0.782c-0.143-0.288-0.494-0.406-0.782-0.263
				C37.142,46.34,37.025,46.69,37.168,46.979z"/>
		</g>
		<path style="fill:none;stroke:#020202;stroke-width:3;stroke-linecap:round;stroke-linejoin:round;stroke-miterlimit:10;" d="
			M144.141,171.766c0,3.077-2.494,5.571-5.571,5.571c-3.077,0-5.571-2.494-5.571-5.571s2.494-5.571,5.571-5.571
			C141.647,166.195,144.141,168.689,144.141,171.766z"/>
		<path style="fill:none;stroke:#020202;stroke-width:3;stroke-linecap:round;stroke-linejoin:round;stroke-miterlimit:10;" d="
			M39.659,112.296c0,3.077-2.494,5.571-5.571,5.571c-3.076,0-5.571-2.494-5.571-5.571c0-3.077,2.494-5.571,5.571-5.571
			C37.165,106.726,39.659,109.22,39.659,112.296z"/>
		<path style="fill:none;stroke:#020202;stroke-width:3;stroke-linecap:round;stroke-linejoin:round;stroke-miterlimit:10;" d="
			M241.343,61.585c0,3.077-2.494,5.571-5.571,5.571s-5.571-2.494-5.571-5.571c0-3.077,2.494-5.571,5.571-5.571
			S241.343,58.509,241.343,61.585z"/>
		<path style="fill:none;stroke:#020202;stroke-width:3;stroke-linecap:round;stroke-linejoin:round;stroke-miterlimit:10;" d="
			M468.571,241.344c0,3.077-2.494,5.571-5.571,5.571s-5.571-2.494-5.571-5.571s2.494-5.571,5.571-5.571
			S468.571,238.267,468.571,241.344z"/>
		<path style="fill:none;stroke:#020202;stroke-width:3;stroke-linecap:round;stroke-linejoin:round;stroke-miterlimit:10;" d="
			M406.164,462.859c0,3.077-2.494,5.571-5.571,5.571s-5.571-2.494-5.571-5.571s2.494-5.571,5.571-5.571
			S406.164,459.782,406.164,462.859z"/>
		<path style="fill:none;stroke:#020202;stroke-width:3;stroke-linecap:round;stroke-linejoin:round;stroke-miterlimit:10;" d="
			M50.48,376.985c0,3.077-2.494,5.571-5.571,5.571c-3.076,0-5.571-2.494-5.571-5.571s2.494-5.571,5.571-5.571
			C47.986,371.415,50.48,373.909,50.48,376.985z"/>
		<path style="fill:none;stroke:#020202;stroke-width:3;stroke-linecap:round;stroke-linejoin:round;stroke-miterlimit:10;" d="
			M393.701,326.929c0,3.076-2.494,5.571-5.571,5.571c-3.077,0-5.571-2.494-5.571-5.571c0-3.077,2.494-5.571,5.571-5.571
			C391.207,321.359,393.701,323.853,393.701,326.929z"/>
		<path style="fill:none;stroke:#020202;stroke-width:3;stroke-linecap:round;stroke-linejoin:round;stroke-miterlimit:10;" d="
			M379.077,83.389c0,3.077-2.494,5.571-5.571,5.571s-5.571-2.494-5.571-5.571c0-3.076,2.494-5.571,5.571-5.571
			S379.077,80.312,379.077,83.389z"/>
		<path style="fill:none;stroke:#020202;stroke-width:3;stroke-linecap:round;stroke-linejoin:round;stroke-miterlimit:10;" d="
			M222.12,468.429c0,3.076-2.494,5.571-5.571,5.571c-3.077,0-5.571-2.494-5.571-5.571c0-3.077,2.494-5.571,5.571-5.571
			C219.626,462.859,222.12,465.353,222.12,468.429z"/>
	</g>
</g>
</svg>
