<?xml version="1.0" encoding="utf-8"?>
<!-- Generator: Adobe Illustrator 27.5.0, SVG Export Plug-In . SVG Version: 6.00 Build 0)  -->
<svg xmlns="http://www.w3.org/2000/svg" xmlns:xlink="http://www.w3.org/1999/xlink" viewBox="0 0 500 500" width="595" height="842" preserveAspectRatio="xMidYMid meet" data-scaled="true">
<g id="BACKGROUND">
	<g>
		<rect style="fill:#FFFFFF;" width="500" height="500"/>
	</g>
</g>
<g id="OBJECTS">
	<g>
		<g>
			<path d="M167.099,224.946c-0.087,0-0.175-0.012-0.263-0.037c-1.015-0.29-24.846-7.705-25.247-60.694
				c-0.356-46.99,39.228-70.003,39.628-70.23c0.459-0.258,1.044-0.099,1.303,0.36c0.261,0.46,0.1,1.044-0.359,1.304
				c-0.391,0.222-39.007,22.709-38.659,68.551c0.15,19.864,3.649,35.501,10.4,46.478c6.197,10.077,12.734,12.184,13.458,12.391
				c0.508,0.146,0.803,0.675,0.658,1.183C167.899,224.672,167.516,224.946,167.099,224.946z"/>
		</g>
		<g>
			<path d="M200.655,238.821c-5,0-13.654-0.643-22.022-4.349c-12.801-5.669-14.038-14.268-14.084-14.631
				c-0.066-0.524,0.303-1.003,0.828-1.071c0.523-0.057,1.001,0.302,1.07,0.824c0.016,0.111,1.24,7.937,12.962,13.129
				c12.062,5.341,25.177,4.03,25.31,4.016c0.519-0.05,0.996,0.324,1.052,0.85c0.056,0.525-0.324,0.996-0.849,1.052
				C204.736,238.66,203.149,238.821,200.655,238.821z"/>
		</g>
		<g>
			<path d="M239.528,252.723c-2.606,0-5.324-0.179-8.15-0.563c-22.5-3.06-29.796-18.227-30.095-18.871
				c-0.223-0.478-0.016-1.046,0.462-1.27c0.478-0.222,1.047-0.017,1.272,0.462c0.069,0.149,7.203,14.87,28.619,17.782
				c21.518,2.925,36.521-6.346,41.357-16.198c0.233-0.474,0.805-0.669,1.28-0.437c0.475,0.233,0.67,0.806,0.437,1.28
				C270.228,244.043,257.628,252.723,239.528,252.723z"/>
		</g>
		<g>
			<path d="M280.594,243.418c-6.236,0-10.768-1.963-10.87-2.009c-0.482-0.216-0.697-0.781-0.481-1.263s0.785-0.694,1.263-0.483
				c0.891,0.399,21.959,9.448,35.062-15.057c0.248-0.466,0.828-0.642,1.295-0.393c0.466,0.25,0.642,0.829,0.392,1.295
				C299.409,240.182,288.598,243.418,280.594,243.418z"/>
		</g>
		<g>
			<path d="M302.768,233.313c-0.168,0-0.273-0.003-0.307-0.005c-0.527-0.021-0.938-0.463-0.919-0.991
				c0.02-0.527,0.481-0.97,0.991-0.92c0.087,0.003,9.082,0.238,18.289-6.582c12.242-9.068,19.357-26.474,20.574-50.336
				c1.307-25.598-2.81-46.061-12.238-60.819c-7.786-12.189-17.53-17.842-24.333-20.438c-0.493-0.189-0.741-0.742-0.553-1.235
				c0.189-0.494,0.744-0.74,1.235-0.553c7.072,2.699,17.196,8.566,25.263,21.196c9.646,15.101,13.864,35.943,12.537,61.946
				c-0.874,17.099-5.303,39.976-21.45,51.853C312.979,232.958,304.497,233.313,302.768,233.313z"/>
		</g>
		<g>
			<path d="M208.199,89.548c-0.229,0-0.458-0.081-0.641-0.246c-0.392-0.354-0.423-0.959-0.07-1.352
				c0.541-0.6,13.465-14.715,31.969-15.793c22.224-1.29,30.153,13.763,30.987,15.484c0.23,0.476,0.031,1.048-0.445,1.278
				c-0.477,0.231-1.047,0.03-1.278-0.445c-0.775-1.604-8.191-15.622-29.152-14.408C221.841,75.1,209.037,89.09,208.91,89.232
				C208.721,89.441,208.461,89.548,208.199,89.548z"/>
		</g>
		<g>
			<path d="M179.019,100.757c-0.131,0-0.263-0.027-0.391-0.084c-0.482-0.216-0.698-0.782-0.481-1.264
				c3.905-8.71,12.21-14.986,24.022-18.148c8.843-2.368,16.412-2.173,16.733-2.168c0.528,0.016,0.944,0.456,0.928,0.984
				c-0.015,0.529-0.497,0.944-0.983,0.93c-0.304-0.005-30.073-0.626-38.954,19.185C179.734,100.547,179.386,100.757,179.019,100.757
				z"/>
		</g>
		<g>
			<path d="M308.903,100.579c-0.385,0-0.748-0.234-0.894-0.616c-9.038-23.705-42.558-18.489-42.897-18.434
				c-0.522,0.089-1.014-0.267-1.099-0.789c-0.086-0.521,0.266-1.013,0.788-1.099c0.354-0.058,35.399-5.53,44.996,19.64
				c0.188,0.494-0.06,1.046-0.553,1.235C309.132,100.559,309.016,100.579,308.903,100.579z"/>
		</g>
		<g>
			<path d="M215.494,81.363c-0.115,0-0.231-0.021-0.344-0.064c-0.492-0.19-0.739-0.744-0.549-1.237
				c0.259-0.671,6.46-16.544,18.279-25.678c8.378-6.475,15.754-7.314,21.681-7.989c2.545-0.29,4.949-0.563,7.081-1.24
				c7.017-2.226,11.861,6.034,15.397,12.064c0.541,0.924,1.053,1.799,1.539,2.575c0.171,0.274,0.193,0.616,0.058,0.908
				c-0.091,0.198-2.293,4.894-6.721,8.031c-0.385,0.273-0.914,0.222-1.243-0.118c-0.038-0.04-3.915-3.992-9.479-4.155
				c-1.979-0.064-3.303,0.222-3.926,0.835c-0.646,0.637-0.63,1.763-0.612,3.067l0.007,0.656c0,0.991,1.476,2.558,2.903,4.074
				c1.878,1.995,4.007,4.256,4.715,6.887c0.137,0.51-0.165,1.035-0.675,1.173c-0.509,0.134-1.035-0.166-1.173-0.675
				c-0.583-2.167-2.537-4.242-4.26-6.073c-1.837-1.951-3.423-3.635-3.423-5.385l-0.006-0.63c-0.021-1.522-0.046-3.247,1.182-4.457
				c1.038-1.022,2.739-1.461,5.325-1.386c5.044,0.149,8.765,2.922,10.181,4.16c2.879-2.263,4.643-5.244,5.24-6.361
				c-0.408-0.669-0.835-1.398-1.282-2.159c-3.21-5.474-7.613-12.975-13.167-11.208c-2.311,0.732-4.804,1.017-7.444,1.317
				c-5.987,0.681-12.773,1.454-20.728,7.601c-11.387,8.8-17.601,24.692-17.662,24.852C216.241,81.131,215.878,81.363,215.494,81.363
				z"/>
		</g>
		<g>
			<path d="M208.848,161.969c-2.61,0-5.552-0.329-8.871-1.099c-7.618-1.768-13.052-6.621-15.712-14.035
				c-4.028-11.222-0.719-25.659,3.426-31.071c0.159-0.207,0.396-0.341,0.657-0.369c0.263-0.028,0.52,0.051,0.72,0.221
				c3.78,3.196,36.985,31.301,38.787,34.005c0.16,0.24,0.203,0.538,0.118,0.814C227.931,150.57,224.193,161.969,208.848,161.969z
				 M188.632,117.754c-3.594,5.596-6.185,18.354-2.567,28.435c2.465,6.869,7.291,11.181,14.343,12.817
				c19.111,4.438,24.579-6.23,25.566-8.672C223.096,147.175,202.725,129.678,188.632,117.754z"/>
		</g>
		<g>
			<path d="M200.192,160.895c-0.258,0-0.516-0.104-0.704-0.309c-8.714-9.472-9.343-19.062-8.336-25.439
				c1.089-6.896,4.205-11.497,4.338-11.69c0.299-0.435,0.894-0.547,1.329-0.248c0.436,0.298,0.547,0.893,0.249,1.329
				c-0.49,0.717-11.813,17.749,3.829,34.752c0.357,0.389,0.332,0.994-0.057,1.352C200.657,160.812,200.424,160.895,200.192,160.895z
				"/>
		</g>
		<g>
			<path d="M272.14,167.638c-17.716,0-24.701-15.31-24.784-15.5c-0.179-0.406-0.055-0.881,0.299-1.148
				c0,0,11.638-8.784,23.285-17.558c5.824-4.387,11.65-8.772,16.024-12.055c2.188-1.643,4.013-3.009,5.293-3.963
				c0.642-0.478,1.147-0.853,1.493-1.107c0.61-0.447,1.238-0.91,1.823-0.237c0.168,0.193,0.245,0.437,0.232,0.677
				c0.073,0.276,0.32,0.975,0.559,1.654c8.861,25.151,5.168,40.865-10.977,46.707C280.428,166.901,276.026,167.638,272.14,167.638z
				 M249.436,152.043c1.883,3.635,11.776,19.777,35.3,11.265c14.961-5.413,18.265-20.309,9.822-44.271
				c-0.098-0.281-0.187-0.531-0.263-0.754C288.804,122.353,263.71,141.271,249.436,152.043z M295.525,117.377
				c-0.001,0.001-0.001,0.001-0.002,0.002C295.525,117.378,295.525,117.378,295.525,117.377z M295.527,117.376
				C295.527,117.376,295.526,117.376,295.527,117.376C295.526,117.376,295.527,117.376,295.527,117.376z M295.529,117.374
				c-0.001,0.001-0.001,0.001-0.001,0.001S295.528,117.375,295.529,117.374z"/>
		</g>
		<g>
			<path d="M280.274,164.445c-5.532,0-10.331-1.333-14.335-3.991c-8.039-5.337-9.855-14.017-9.928-14.384
				c-0.104-0.518,0.232-1.021,0.749-1.125c0.517-0.101,1.021,0.231,1.127,0.748c0.017,0.082,1.756,8.298,9.133,13.182
				c5.459,3.613,12.602,4.556,21.23,2.794c0.516-0.104,1.023,0.228,1.129,0.745c0.105,0.518-0.228,1.023-0.746,1.129
				C285.687,164.144,282.899,164.445,280.274,164.445z"/>
		</g>
		<g>
			<path d="M241.954,178.544c-4.508,0-13.322-1.824-14.508-2.114c-2.225-0.547-2.67-0.851-2.878-1.37
				c-0.179-0.448-0.425-1.062,4.47-10.257c4.837-9.086,5.547-9.37,5.85-9.491c0.466-0.187,0.995,0.019,1.215,0.47
				c10.109,20.769,8.889,21.815,8.302,22.317C244.037,178.417,243.145,178.544,241.954,178.544z M226.54,174.225
				c2.853,1.1,13.932,2.597,16.37,2.407c-0.363-2.225-4.039-10.684-7.855-18.62C232.875,161.435,227.493,171.632,226.54,174.225z
				 M243.283,176.568L243.283,176.568L243.283,176.568z M226.401,174.693L226.401,174.693L226.401,174.693z M226.092,174.015"/>
		</g>
		<g>
			<path d="M231.507,176.552c-0.108,0-0.218-0.018-0.325-0.057c-0.497-0.179-0.754-0.728-0.575-1.225l5.338-14.767
				c0.18-0.497,0.73-0.755,1.225-0.575c0.497,0.179,0.754,0.728,0.575,1.225l-5.338,14.768
				C232.266,176.31,231.898,176.552,231.507,176.552z"/>
		</g>
		<g>
			<path d="M258.531,235.139c-0.193,0-0.343-0.1-0.511-0.212c-0.514-0.343-9.659-8.658-14.151-12.751l-19.127,12.751
				c-0.236,0.158-0.532,0.203-0.803,0.121c-0.272-0.081-0.494-0.278-0.607-0.539c-2.426-5.637-5.254-11.807-6.221-13.371
				c-2.131,0.613-10.57,3.503-15.892,5.356c-0.458,0.161-0.963-0.049-1.175-0.485l-8.877-18.265
				c-3.968,1.419-15.845,5.64-17.188,5.807c-0.399,0.048-0.784-0.152-0.968-0.509c-0.747-1.443-18.245-35.634-13.794-61.629
				c0.062-0.361,0.323-0.655,0.676-0.757c0.349-0.104,0.731,0.005,0.976,0.276c0.887,0.979,21.126,23.312,25.783,28.903
				c18.62-5.491,18.875-5.24,19.376-4.741c0.344,0.344,9.728,11.817,13.402,16.313l13.871-8.965
				c0.364-0.237,0.846-0.197,1.167,0.099l12.499,11.485l13.23-12.89c0.311-0.303,0.782-0.357,1.154-0.139l12.957,7.641l6.502-14.503
				c0.201-0.449,0.711-0.671,1.175-0.516l10.635,3.545c3.053-3.188,21.97-23.126,28.081-34.062c0.215-0.384,0.665-0.576,1.092-0.454
				c0.426,0.119,0.715,0.513,0.699,0.954c-0.065,1.898-1.74,46.727-13.1,68.028c-0.19,0.356-0.579,0.555-0.98,0.497
				c-4.404-0.629-9.334-1.179-10.771-1.173c-0.651,1.565-3.061,8.031-4.564,12.12c-0.16,0.437-0.611,0.704-1.07,0.611l-21.803-3.979
				C261.257,232.962,259.43,235.139,258.531,235.139z M243.961,220.008c0.232,0,0.463,0.084,0.645,0.249
				c4.818,4.391,11.851,10.776,13.931,12.606c1.575-1.865,6.301-8.623,10.429-14.747c0.212-0.316,0.588-0.48,0.965-0.406
				l21.626,3.947c1.697-4.607,4.284-11.56,4.628-12.077c0.363-0.545,0.682-1.016,11.826,0.557
				c9.034-17.587,11.721-51.609,12.379-62.879c-8.168,12.368-25.993,30.821-26.814,31.67c-0.257,0.264-0.642,0.361-0.99,0.242
				l-10.387-3.462l-6.585,14.69c-0.111,0.249-0.323,0.437-0.582,0.52c-0.262,0.08-0.543,0.049-0.776-0.088l-13.248-7.813
				l-13.354,13.011c-0.365,0.355-0.943,0.363-1.316,0.02l-12.62-11.597l-13.968,9.028c-0.409,0.265-0.952,0.178-1.26-0.198
				c-4.863-5.952-12.017-14.689-13.55-16.52c-2.181,0.405-12.15,3.258-18.354,5.089c-0.371,0.107-0.772-0.015-1.016-0.317
				c-3.144-3.892-19.845-22.383-24.76-27.814c-1.593,12.777,2.016,27.473,5.431,37.781c3.293,9.941,7.013,17.729,8.133,19.993
				c2.551-0.741,11.367-3.835,16.955-5.84c0.462-0.165,0.97,0.043,1.184,0.482l8.88,18.273c10.091-3.51,15.493-5.289,16.059-5.289
				c0.731,0,1.312-0.001,7.185,13.58l18.794-12.53C243.592,220.061,243.777,220.008,243.961,220.008z"/>
		</g>
		<g>
			<path d="M179.732,211.068c-0.363,0-0.708-0.206-0.87-0.556c-10.455-22.683-11.641-48.497-11.652-48.755
				c-0.023-0.528,0.388-0.974,0.916-0.996c0.528-0.018,0.974,0.388,0.996,0.916c0.011,0.255,1.186,25.704,11.478,48.034
				c0.221,0.48,0.011,1.048-0.468,1.27C180.002,211.04,179.866,211.068,179.732,211.068z"/>
		</g>
		<g>
			<path d="M168.005,135.632c-0.046,0-0.093-0.003-0.14-0.01c-0.523-0.077-0.885-0.563-0.807-1.086
				c1.518-10.288,4.781-20.152,9.697-29.316c0.248-0.465,0.829-0.642,1.295-0.391c0.465,0.249,0.641,0.83,0.391,1.295
				c-4.811,8.969-8.004,18.622-9.49,28.69C168.88,135.29,168.472,135.632,168.005,135.632z"/>
		</g>
		<g>
			<path d="M166.918,145.949c-0.515,0-0.94-0.409-0.956-0.928c-0.04-1.359,0.036-2.729,0.225-4.072
				c0.074-0.523,0.555-0.894,1.081-0.814c0.523,0.074,0.888,0.559,0.814,1.081c-0.175,1.236-0.245,2.496-0.206,3.746
				c0.016,0.529-0.4,0.97-0.928,0.986C166.937,145.949,166.928,145.949,166.918,145.949z"/>
		</g>
		<g>
			<path d="M163.818,212.458c-0.398,0-0.77-0.25-0.905-0.648c-1.481-4.348-2.148-9.074-1.93-13.665
				c0.025-0.528,0.474-0.925,1.002-0.91c0.528,0.025,0.935,0.474,0.91,1.002c-0.207,4.353,0.426,8.834,1.829,12.957
				c0.171,0.5-0.097,1.044-0.597,1.214C164.024,212.442,163.919,212.458,163.818,212.458z"/>
		</g>
		<g>
			<path d="M200.638,109.14c-0.071,0-0.142-0.007-0.214-0.024c-0.516-0.118-0.837-0.631-0.719-1.145
				c1.114-4.869,2.949-9.53,5.455-13.855c0.264-0.457,0.848-0.614,1.308-0.348c0.457,0.265,0.613,0.85,0.348,1.308
				c-2.411,4.158-4.175,8.639-5.246,13.32C201.469,108.84,201.074,109.14,200.638,109.14z"/>
		</g>
		<g>
			<path d="M277.796,112.313c-0.423,0-0.81-0.283-0.924-0.711c-1.404-5.286-3.007-10.597-4.762-15.785
				c-0.169-0.501,0.099-1.044,0.6-1.213c0.501-0.169,1.044,0.099,1.213,0.6c1.768,5.227,3.383,10.579,4.799,15.906
				c0.135,0.511-0.168,1.034-0.679,1.171C277.961,112.303,277.878,112.313,277.796,112.313z"/>
		</g>
		<g>
			<path d="M279.367,121.218c-0.012,0-0.024,0-0.035-0.001c-0.529-0.019-0.941-0.462-0.921-0.99c0.052-1.451-0.2-2.93-0.73-4.278
				c-0.193-0.492,0.049-1.047,0.54-1.241c0.491-0.191,1.047,0.049,1.241,0.54c0.626,1.591,0.923,3.337,0.86,5.048
				C280.303,120.813,279.879,121.218,279.367,121.218z"/>
		</g>
		<g>
			<path d="M318.722,128.871c-0.008,0-0.016,0-0.024,0c-0.529-0.014-0.945-0.453-0.932-0.981c0.039-1.489-0.369-2.969-0.827-4.481
				c-1.667-5.506-3.82-10.908-6.401-16.057c-0.237-0.473-0.046-1.047,0.426-1.284c0.472-0.237,1.048-0.045,1.284,0.426
				c2.63,5.246,4.825,10.75,6.522,16.359c0.485,1.6,0.955,3.312,0.909,5.084C319.665,128.459,319.24,128.871,318.722,128.871z"/>
		</g>
		<g>
			<path d="M310.423,220.083c-0.196,0-0.393-0.06-0.564-0.185c-0.426-0.312-0.518-0.91-0.206-1.337
				c4.085-5.581,7.089-11.792,8.931-18.462c0.14-0.508,0.669-0.804,1.177-0.667c0.509,0.14,0.808,0.667,0.667,1.177
				c-1.903,6.893-5.009,13.314-9.232,19.082C311.009,219.947,310.718,220.083,310.423,220.083z"/>
		</g>
		<g>
			<path d="M275.609,231.164c-0.132,0-0.266-0.027-0.394-0.086c-0.481-0.218-0.694-0.785-0.476-1.266l1.778-3.916
				c0.218-0.479,0.781-0.696,1.267-0.475c0.481,0.219,0.693,0.786,0.475,1.267l-1.778,3.914
				C276.321,230.955,275.974,231.164,275.609,231.164z"/>
		</g>
		<g>
			<path d="M283.905,125.421c-3.647,2.224-22.062,16.725-22.062,16.725s-4.448,1.69-4.003,4.804
				c0.445,3.114,4.626,10.675,11.832,14.056c7.206,3.381,17.081,3.736,22.596-1.245c5.516-4.982,7.917-11.298,8.095-16.28
				c0.178-4.982-1.957-14.501-2.669-18.059c-0.712-3.558-0.534-6.583-2.224-7.473c-1.69-0.89-2.135,0.712-3.559,1.334
				C290.488,119.905,283.905,125.421,283.905,125.421z"/>
		</g>
		<g>
			<path d="M202.372,128.268c-3.87-4.27-5.071-5.204-7.606-1.201c-2.535,4.003-5.071,14.412-1.735,22.018
				c3.336,7.606,7.206,11.076,12.143,12.01c4.937,0.934,11.076,0.4,14.145-2.268c3.069-2.669,6.939-5.871,7.339-8.14
				c0.4-2.268-2.135-3.336-3.87-4.937C221.054,144.147,202.372,128.268,202.372,128.268z"/>
		</g>
		<g>
			<path d="M237.734,160.56c-1.468,1.601-2.535,6.806-3.203,8.273c-0.667,1.468-3.069,6.805-2.402,7.606
				c0.667,0.8,10.898,1.334,11.654,0.934c0.756-0.4-0.578-4.003-1.913-6.539S237.734,160.56,237.734,160.56z"/>
		</g>
		<g>
			<path d="M170.747,163.229c-1.601-1.601-2.669-0.133-2.269,2.669c0.4,2.802,3.603,23.085,5.071,27.355
				c1.468,4.27,3.603,10.942,4.671,13.478c1.067,2.535,2.135,3.736,4.404,2.936c2.268-0.801,8.407-4.67,10.141-1.601
				c1.735,3.069,6.272,16.68,8.006,17.08c1.735,0.4,6.805-1.735,8.941-2.402c2.135-0.667,7.473-2.936,8.674-1.735
				c1.201,1.201,4.581,12.766,5.827,13.122c1.245,0.356,5.782-3.247,7.651-4.982c1.868-1.735,10.942-8.407,13.211-7.339
				c2.268,1.068,12.41,12.899,13.478,12.321c1.068-0.578,10.008-14.768,11.209-15.479c1.201-0.712,21.351,5.16,22.418,4.092
				c1.068-1.068,2.268-4.671,2.669-7.206c0.4-2.535,1.068-5.471,2.669-5.604c1.601-0.133,10.32,1.824,11.031,1.245
				c0.712-0.578,6.316-12.721,8.318-24.731c2.002-12.01,3.736-24.153,3.736-28.29c0-4.137,1.601-11.209,0.667-12.01
				c-0.934-0.801-1.601,1.201-2.802,2.669c-1.201,1.468-10.809,13.745-13.744,17.08c-2.936,3.336-9.385,12.321-11.832,12.366
				c-2.446,0.045-9.252-4.359-10.72-3.692c-1.468,0.667-3.469,8.407-4.403,9.741c-0.934,1.335-1.512,6.45-3.025,5.693
				c-1.512-0.756-11.52-7.295-13.255-7.828c-1.735-0.534-2.535,2.402-4.67,4.137c-2.135,1.735-8.184,10.186-9.83,9.029
				c-1.646-1.156-11.387-11.698-12.721-11.698s-8.54,4.937-10.008,5.738c-1.468,0.801-3.781,4.448-5.026,3.292
				c-1.245-1.156-12.321-15.435-13.789-16.369c-1.468-0.934-10.809,1.868-12.81,2.535c-2.002,0.667-6.939,2.268-7.873,1.334
				C183.824,179.242,170.747,163.229,170.747,163.229z"/>
		</g>
		<g>
			<path d="M242.36,278.679c-0.194,0-0.386-0.059-0.548-0.172c-4.972-3.466-8.724-13.816-10.023-17.806
				c-5,4.828-13.413,8.318-13.797,8.476c-0.44,0.178-0.941,0.012-1.184-0.392c-1.643-2.739-2.282-8.5-2.511-11.519
				c-5.847,4.684-16.185,10.524-16.66,10.792c-0.247,0.138-0.539,0.161-0.802,0.064c-0.264-0.097-0.471-0.306-0.567-0.57
				c-1.183-3.25-0.131-11.27,0.404-14.722c-7.316,2.394-16.309,2.877-16.715,2.897c-0.261,0.015-0.531-0.087-0.722-0.277
				c-0.191-0.189-0.293-0.45-0.282-0.719c0.125-3.022,1.858-6.53,3.025-8.57c-8.115,0.446-12.777-5.842-12.986-6.13
				c-0.211-0.292-0.241-0.676-0.078-0.996c0.163-0.32,0.492-0.522,0.852-0.522c1.885,0,5.714-1.195,11.379-3.552
				c0.414-0.173,0.688-0.284,0.774-0.313c0.5-0.164,1.043,0.105,1.21,0.606c0.166,0.5-0.104,1.041-0.603,1.209
				c-0.086,0.03-0.311,0.125-0.646,0.264c-3.077,1.28-7.188,2.9-10.18,3.48c1.888,1.854,6.012,4.907,11.952,3.836
				c0.376-0.071,0.76,0.098,0.971,0.419c0.21,0.323,0.206,0.74-0.009,1.059c-0.033,0.049-2.986,4.45-3.633,8.216
				c2.883-0.227,10.723-1.019,16.556-3.242c0.324-0.121,0.686-0.063,0.951,0.158c0.266,0.22,0.393,0.565,0.332,0.905
				c-0.52,2.905-1.591,10.485-1.025,14.203c3.177-1.839,12.415-7.311,16.701-11.168c0.278-0.25,0.672-0.313,1.013-0.17
				c0.342,0.145,0.569,0.474,0.583,0.845c0.004,0.086,0.324,8.037,1.976,11.79c2.432-1.086,9.754-4.585,13.426-8.822
				c0.23-0.265,0.588-0.384,0.929-0.307c0.342,0.075,0.616,0.332,0.714,0.668c0.039,0.138,3.86,13.18,9.003,17.735
				c1.777-2.687,7.215-11.189,9.089-17.389c0.074-0.246,0.243-0.45,0.47-0.57c0.226-0.119,0.491-0.142,0.735-0.065
				c0.618,0.196,14.542,4.677,22.833,11.46c0.536-2.521,1.214-8.01-1.386-13.331c-0.163-0.332-0.119-0.729,0.112-1.018
				c0.232-0.289,0.608-0.418,0.969-0.332c0.951,0.225,21.977,5.259,30.75,10.764c-0.302-3.796-1.535-12.363-6.57-17.528
				c-0.278-0.285-0.35-0.713-0.182-1.074c0.169-0.36,0.552-0.579,0.94-0.549c0.174,0.013,16.252,1.192,24.961-2.655
				c-1.943-1.217-5.178-3.597-6.845-6.803c-0.152-0.293-0.142-0.645,0.027-0.93c0.168-0.284,0.473-0.461,0.803-0.468
				c0.079-0.002,7.085-0.192,10.918-3.864c-3.382,0.062-9.83-0.23-12.644-3.043c-0.374-0.374-0.374-0.979,0-1.353
				c0.374-0.374,0.979-0.374,1.353,0c2.661,2.66,10.5,2.628,13.299,2.392c0.35-0.038,0.708,0.145,0.897,0.454
				c0.189,0.309,0.187,0.699-0.006,1.006c-2.894,4.633-9.174,5.872-12.157,6.202c2.444,3.392,6.745,5.578,6.793,5.602
				c0.313,0.158,0.516,0.475,0.527,0.826c0.011,0.35-0.17,0.679-0.474,0.857c-6.99,4.078-20.08,4.02-25.343,3.808
				c5.642,7.447,5.712,18.523,5.712,19.028c0,0.368-0.211,0.703-0.544,0.863c-0.331,0.159-0.725,0.113-1.013-0.118
				c-5.899-4.747-23.933-9.607-29.79-11.096c2.7,7.274,0.442,14.086,0.336,14.396c-0.104,0.305-0.355,0.538-0.667,0.618
				c-0.311,0.077-0.644-0.003-0.883-0.22c-6.667-6.076-18.981-10.59-22.406-11.769c-2.597,7.6-9.315,17.401-9.611,17.832
				c-0.144,0.209-0.366,0.353-0.617,0.399C242.474,278.674,242.417,278.679,242.36,278.679z"/>
		</g>
		<g>
			<path d="M250.9,382.051c-0.117,0-0.234-0.021-0.346-0.064c-7.656-2.969-13.929-15.087-15.803-19.034
				c-6.203,5.407-23.551,14.491-24.33,14.898c-0.351,0.182-0.778,0.132-1.075-0.131c-5.277-4.656-13.058-14.312-15.217-17.032
				c-5.532,3.669-14.48,5.935-14.877,6.033c-0.277,0.07-0.569,0.011-0.799-0.157c-0.23-0.169-0.372-0.432-0.388-0.717
				c-1.454-25.682,14.297-81.315,17.198-91.301c-15.946,3.963-55.36,28.463-55.77,28.718c-0.418,0.26-0.959,0.163-1.259-0.221
				c-15.568-19.863-11.263-43.24-11.217-43.473c0.051-0.267,0.214-0.499,0.447-0.639c22.506-13.468,46.037-16.644,46.272-16.674
				c0.526-0.078,1.003,0.301,1.072,0.825c0.068,0.524-0.301,1.003-0.825,1.072c-0.23,0.03-23.121,3.129-45.156,16.194
				c-0.478,3.121-2.917,23.268,10.39,40.837c5.894-3.643,43.036-26.344,57.25-28.852c0.324-0.059,0.661,0.058,0.881,0.306
				c0.221,0.248,0.297,0.592,0.202,0.91c-0.189,0.633-18.625,62.631-17.629,91.01c2.731-0.773,9.751-2.948,13.834-5.941
				c0.417-0.305,1.001-0.224,1.318,0.182c0.093,0.119,9.113,11.618,15.048,17.046c3.337-1.769,19.907-10.661,24.255-15.164
				c0.223-0.23,0.54-0.333,0.859-0.277c0.315,0.057,0.58,0.267,0.707,0.561c0.068,0.157,6.807,15.469,14.854,19.052
				c2.449-1.627,14.848-9.964,18.581-14.477c0.325-0.393,0.902-0.463,1.311-0.155c0.102,0.077,9.947,7.422,16.12,8.951
				c1.455-1.897,6.849-8.995,9.713-13.668c0.266-0.435,0.83-0.583,1.276-0.339c0.143,0.079,14.26,7.787,20.431,8.062
				c-0.327-8.428-2.999-68.109-13.758-92.236c-0.145-0.325-0.098-0.703,0.122-0.983c0.221-0.279,0.576-0.413,0.928-0.347
				c0.393,0.074,39.163,7.389,64.084,16.056c1.279-5.321,7.088-30.067,7.873-43.833c-3.912-1.512-25.269-9.503-47.362-12.681
				c-0.523-0.076-0.886-0.561-0.811-1.084c0.076-0.522,0.55-0.884,1.084-0.811c24.561,3.534,48.201,12.953,48.437,13.048
				c0.377,0.151,0.618,0.525,0.599,0.932c-0.707,15.395-8.137,45.608-8.211,45.912c-0.065,0.262-0.237,0.485-0.476,0.613
				c-0.236,0.128-0.518,0.149-0.773,0.059c-21.747-7.712-55.052-14.432-63.036-15.99c10.486,25.769,12.919,83.167,13.218,91.381
				c0.321,0.012,0.598,0.024,0.835,0.039c0.255,0.007,0.389,0.002,0.428,0.008v0.028c0.922,0.102,0.994,0.319,0.975,0.957
				c-0.022,0.699-0.487,0.875-1.032,0.912l-0.001,0.013c-0.023-0.001-0.073-0.004-0.141-0.007c-0.159,0.005-0.319,0-0.473-0.004
				l-2.433-0.065c-5.757-0.161-17.448-6.178-20.632-7.873c-3.491,5.505-9.657,13.469-9.722,13.553
				c-0.221,0.284-0.586,0.42-0.938,0.352c-5.648-1.098-14.225-7.069-16.758-8.902c-4.911,5.317-18.242,14.071-18.832,14.457
				C251.266,381.998,251.084,382.051,250.9,382.051z"/>
		</g>
		<g>
			<path d="M107.087,317.433c-0.106,0-0.212-0.018-0.316-0.053c-0.375-0.132-0.63-0.481-0.641-0.877
				c-0.195-7.257-0.435-16.186,3.286-23.622c-4.251-0.228-8.549-0.214-12.794,0.042c-0.372,0.027-0.716-0.17-0.894-0.491
				c-0.179-0.322-0.157-0.719,0.057-1.019c3.916-5.505,9.355-9.973,15.508-12.785l-9.601-2.932
				c-0.375-0.114-0.642-0.445-0.674-0.835c-0.033-0.391,0.176-0.761,0.527-0.936c7.924-3.945,16.412-6.339,25.227-7.118
				c0.531-0.043,0.991,0.343,1.037,0.869c0.047,0.526-0.342,0.99-0.869,1.037c-7.644,0.676-15.313,2.697-22.33,5.875l9.789,2.99
				c0.392,0.12,0.664,0.476,0.677,0.886c0.012,0.41-0.238,0.782-0.622,0.926c-6.186,2.305-11.762,6.359-15.892,11.519
				c4.152-0.174,8.338-0.123,12.472,0.154c0.33,0.022,0.625,0.214,0.78,0.506c0.156,0.292,0.149,0.645-0.018,0.931
				c-3.75,6.434-3.957,14.512-3.816,21.476c4.25-4.812,8.948-9.249,13.992-13.215c0.285-0.224,0.67-0.268,0.998-0.114
				c0.327,0.153,0.54,0.478,0.55,0.84c0.09,3.305,0.404,6.638,0.929,9.906c0.103,0.638,0.385,1.953,1.028,2.537
				c2.629-5.449,6.596-10.175,11.515-13.711c0.429-0.309,1.027-0.211,1.335,0.218c0.309,0.43,0.211,1.027-0.218,1.335
				c-4.9,3.522-8.801,8.289-11.283,13.787c-0.171,0.38-0.559,0.618-0.984,0.557c-1.691-0.2-2.857-1.769-3.283-4.419
				c-0.438-2.725-0.731-5.494-0.876-8.253c-5.03,4.104-9.688,8.689-13.867,13.65C107.633,317.313,107.363,317.433,107.087,317.433z"
				/>
		</g>
		<g>
			<path d="M393.987,295.656c-0.131,0-0.262-0.027-0.386-0.081c-3.856-1.7-7.48-3.861-10.803-6.441
				c0.174,1.588,0.378,3.179,0.613,4.753c0.056,0.379-0.12,0.757-0.447,0.957c-0.328,0.201-0.743,0.185-1.055-0.036l-10.632-7.58
				c-0.431-0.306-0.531-0.904-0.224-1.334c0.307-0.432,0.905-0.529,1.334-0.224l8.822,6.29c-0.215-1.642-0.396-3.292-0.544-4.929
				c-0.035-0.388,0.168-0.757,0.513-0.935c0.346-0.178,0.762-0.132,1.06,0.121c3.109,2.646,6.526,4.893,10.179,6.697l-2.991-9.466
				c-0.105-0.329-0.023-0.689,0.213-0.941c0.236-0.253,0.593-0.359,0.925-0.276c6.499,1.581,13.034,3.356,19.452,5.283
				c-2.159-7.251-6.801-13.841-12.92-18.269c-0.295-0.214-0.443-0.576-0.383-0.934c0.061-0.359,0.32-0.652,0.667-0.757l16.463-4.968
				c-8.565-5.098-19.002-6.312-27.297-6.784c-0.387-0.021-0.721-0.274-0.849-0.639c-0.127-0.365-0.022-0.772,0.266-1.03
				c1.798-1.604,3.46-3.361,4.96-5.245c-4.028,0.679-8.037,1.596-11.95,2.73c-0.508,0.152-1.039-0.145-1.185-0.652
				c-0.148-0.507,0.145-1.038,0.652-1.185c4.748-1.378,9.636-2.438,14.529-3.152c0.381-0.052,0.755,0.121,0.955,0.447
				c0.199,0.326,0.185,0.741-0.036,1.053c-1.498,2.107-3.182,4.086-5.024,5.904c8.729,0.629,19.275,2.277,27.789,8.076
				c0.305,0.207,0.463,0.572,0.407,0.936c-0.056,0.364-0.316,0.663-0.669,0.77l-16.671,5.03
				c6.179,5.003,10.727,12.143,12.598,19.858c0.081,0.333-0.023,0.686-0.273,0.921c-0.251,0.236-0.61,0.318-0.936,0.219
				c-6.369-1.944-12.869-3.741-19.345-5.348l3.134,9.919c0.114,0.358,0.007,0.749-0.274,1.001
				C394.446,295.572,394.217,295.656,393.987,295.656z"/>
		</g>
		<g>
			<path d="M141.945,279.013c-0.093,0-0.189-0.014-0.283-0.043c-0.505-0.157-0.788-0.692-0.631-1.197
				c2.317-7.469,6.862-14.386,12.796-19.478c0.401-0.344,1.005-0.298,1.349,0.103c0.344,0.401,0.298,1.005-0.103,1.349
				c-5.666,4.86-10.003,11.464-12.215,18.592C142.732,278.751,142.353,279.013,141.945,279.013z"/>
		</g>
		<g>
			<path d="M148.218,275.513c-0.159,0-0.32-0.039-0.467-0.122c-2.222-1.246-4.586-2.244-7.029-2.965
				c-0.506-0.15-0.796-0.682-0.646-1.188c0.149-0.507,0.68-0.795,1.188-0.647c2.58,0.762,5.077,1.815,7.423,3.132
				c0.461,0.259,0.625,0.842,0.366,1.303C148.877,275.338,148.552,275.513,148.218,275.513z"/>
		</g>
		<g>
			<path d="M150.689,270.414c-0.124,0-0.249-0.024-0.371-0.075l-7.732-3.252c-0.487-0.205-0.716-0.766-0.511-1.253
				c0.206-0.489,0.766-0.712,1.253-0.511l7.732,3.252c0.487,0.205,0.716,0.766,0.511,1.253
				C151.417,270.194,151.062,270.414,150.689,270.414z"/>
		</g>
		<g>
			<path d="M154.55,265.425c-0.237,0-0.476-0.088-0.661-0.264c-1.883-1.797-4.184-3.172-6.655-3.975
				c-0.503-0.163-0.777-0.703-0.614-1.206c0.164-0.502,0.705-0.776,1.206-0.614c2.742,0.892,5.295,2.418,7.384,4.411
				c0.382,0.365,0.396,0.971,0.032,1.353C155.055,265.326,154.803,265.425,154.55,265.425z"/>
		</g>
		<g>
			<path d="M267.729,304.276c-0.31,0-0.614-0.15-0.798-0.428c-0.293-0.44-0.173-1.033,0.268-1.326
				c6.005-3.988,11.277-8.904,15.673-14.614c1.731-2.25,3.591-4.966,4.251-8.046c0.11-0.518,0.618-0.851,1.135-0.735
				c0.517,0.11,0.846,0.619,0.735,1.135c-0.739,3.455-2.743,6.394-4.606,8.814c-4.523,5.877-9.95,10.937-16.131,15.04
				C268.095,304.224,267.911,304.276,267.729,304.276z"/>
		</g>
		<g>
			<path d="M277.126,302.234c-0.246,0-0.49-0.094-0.675-0.278c-1.968-1.955-4.052-3.824-6.196-5.555
				c-0.41-0.333-0.475-0.935-0.143-1.346c0.333-0.41,0.934-0.476,1.346-0.143c1.87,1.512,3.697,3.125,5.443,4.808
				c0.361,0.013,0.699,0.23,0.848,0.584l0.255,0.597c0.18,0.42,0.037,0.911-0.341,1.169
				C277.5,302.18,277.312,302.234,277.126,302.234z"/>
		</g>
		<g>
			<path d="M283.845,296.356c-0.333,0-0.637-0.148-0.905-0.441c-1.87-2.077-4.039-3.842-6.447-5.25
				c-0.456-0.266-0.609-0.853-0.343-1.309c0.265-0.456,0.85-0.609,1.309-0.343c2.438,1.426,4.645,3.191,6.568,5.254
				c0.022,0.003,0.044,0.007,0.066,0.011c0.465,0.09,0.842,0.575,0.821,1.049c-0.022,0.528-0.43,0.967-0.947,1.021
				C283.926,296.354,283.885,296.356,283.845,296.356z"/>
		</g>
		<g>
			<path d="M288.919,289.778c-0.261,0-0.521-0.107-0.71-0.316c-1.928-2.137-4.356-3.839-7.019-4.922
				c-0.49-0.199-0.725-0.758-0.526-1.247c0.2-0.49,0.757-0.723,1.247-0.526c2.929,1.192,5.598,3.064,7.718,5.413
				c0.354,0.392,0.323,0.997-0.069,1.351C289.377,289.697,289.148,289.778,288.919,289.778z"/>
		</g>
		<g>
			<path d="M362.922,258.31c-0.544,0-1.017-0.191-1.375-0.335l-18.175-7.33c-0.271-0.109-0.477-0.336-0.56-0.617
				c-0.083-0.28-0.033-0.582,0.135-0.821l7.947-11.303c0.305-0.431,0.901-0.537,1.333-0.233c0.433,0.304,0.536,0.901,0.233,1.333
				l-7.254,10.316l17.056,6.879c0.238,0.096,0.54,0.214,0.702,0.194c0.276-0.035,0.647-0.54,0.825-0.783l8.416-11.449
				c0.313-0.425,0.911-0.517,1.338-0.204c0.425,0.313,0.517,0.912,0.204,1.338l-8.416,11.449c-0.362,0.491-1.035,1.407-2.125,1.547
				C363.11,258.305,363.015,258.31,362.922,258.31z"/>
		</g>
		<g>
			<path d="M345.949,259.314c-0.197,0-0.397-0.061-0.568-0.188c-0.425-0.314-0.515-0.913-0.2-1.338l6.664-9.014
				c0.312-0.423,0.913-0.516,1.338-0.2c0.425,0.314,0.515,0.913,0.2,1.338l-6.664,9.014
				C346.532,259.179,346.242,259.314,345.949,259.314z"/>
		</g>
		<g>
			<path d="M351.956,261.062c-0.199,0-0.4-0.062-0.572-0.191c-0.423-0.316-0.51-0.916-0.193-1.339
				c2.135-2.857,4.458-5.616,6.904-8.202c0.365-0.385,0.97-0.399,1.353-0.037c0.384,0.363,0.401,0.969,0.037,1.353
				c-2.396,2.532-4.671,5.234-6.762,8.032C352.535,260.929,352.247,261.062,351.956,261.062z"/>
		</g>
		<g>
			<path d="M352.843,245.418c-0.156,0-0.314-0.038-0.461-0.119c-2.527-1.391-5.245-2.372-8.079-2.916
				c-0.518-0.1-0.858-0.602-0.759-1.12c0.1-0.519,0.605-0.852,1.12-0.76c3.031,0.582,5.937,1.631,8.641,3.12
				c0.462,0.255,0.632,0.836,0.377,1.3C353.508,245.24,353.181,245.418,352.843,245.418z"/>
		</g>
		<g>
			<path d="M371.727,253.381c-0.158,0-0.318-0.039-0.465-0.121l-6.263-3.494c-0.461-0.258-0.627-0.84-0.369-1.301
				c0.257-0.462,0.839-0.627,1.301-0.369l6.263,3.494c0.462,0.257,0.627,0.84,0.369,1.301
				C372.389,253.204,372.063,253.381,371.727,253.381z"/>
		</g>
		<g>
			<path d="M226.501,348.293c-0.136,0-0.274-0.029-0.403-0.089c-8.635-4.007-17.011-8.743-24.895-14.077
				c-0.752-0.502-0.749-0.505,1.973-5.168c1.778-3.045,3.99-6.833,4.298-7.385c1.956-3.497,3.864-7.041,5.671-10.533
				c0.899-1.737,1.758-2.974,3.034-3.364c1.467-0.45,2.981,0.374,5.077,1.516c6.942,3.785,13.853,7.822,20.541,11.999
				c0.423,0.265,0.573,0.809,0.343,1.252l-2.991,5.78c-3.474,6.713-7.066,13.653-11.901,19.708
				C227.063,348.167,226.785,348.293,226.501,348.293z M203.012,333.038c7.374,4.935,15.174,9.341,23.207,13.111
				c4.487-5.772,7.913-12.392,11.231-18.803l2.585-4.996c-6.423-3.991-13.045-7.85-19.695-11.476
				c-1.799-0.981-2.94-1.566-3.601-1.367c-0.523,0.16-1.126,0.928-1.896,2.415c-1.815,3.509-3.733,7.072-5.699,10.587
				c-0.317,0.566-2.535,4.364-4.316,7.415C204.087,331.193,203.424,332.329,203.012,333.038z"/>
		</g>
		<g>
			<path d="M223.51,317.646c-0.091,0-0.183-0.013-0.275-0.04c-0.506-0.151-0.793-0.685-0.642-1.191l2.341-7.82
				c0.151-0.504,0.681-0.795,1.191-0.642c0.505,0.151,0.793,0.685,0.642,1.191l-2.341,7.82
				C224.302,317.379,223.921,317.646,223.51,317.646z"/>
		</g>
		<g>
			<path d="M228.286,319.926c-0.31,0-0.614-0.15-0.798-0.428c-0.292-0.44-0.172-1.034,0.268-1.326
				c2.431-1.613,4.837-3.351,7.15-5.167c0.416-0.328,1.018-0.254,1.343,0.162c0.327,0.416,0.254,1.016-0.162,1.343
				c-2.353,1.848-4.8,3.616-7.273,5.256C228.651,319.875,228.467,319.926,228.286,319.926z"/>
		</g>
		<g>
			<path d="M207.181,344.73c-0.222,0-0.445-0.077-0.626-0.232c-0.399-0.346-0.444-0.95-0.098-1.35l6.674-7.725
				c0.348-0.402,0.951-0.444,1.349-0.099c0.4,0.346,0.445,0.949,0.099,1.349l-6.675,7.727
				C207.715,344.618,207.449,344.73,207.181,344.73z"/>
		</g>
		<g>
			<path d="M215.998,348.636c-0.071,0-0.144-0.007-0.216-0.024c-0.516-0.12-0.836-0.633-0.718-1.147
				c0.634-2.746,1.182-5.549,1.627-8.332c0.083-0.521,0.577-0.88,1.096-0.793c0.521,0.083,0.876,0.574,0.793,1.096
				c-0.451,2.825-1.007,5.672-1.651,8.459C216.826,348.337,216.433,348.636,215.998,348.636z"/>
		</g>
		<g>
			<path d="M211.22,323.831c-0.012,0-0.023,0-0.035-0.001c-3.124-0.113-6.249-0.553-9.291-1.308
				c-0.513-0.127-0.825-0.646-0.698-1.159c0.127-0.514,0.645-0.823,1.16-0.698c2.912,0.723,5.907,1.146,8.898,1.254
				c0.528,0.019,0.941,0.462,0.921,0.99C212.156,323.426,211.732,323.831,211.22,323.831z"/>
		</g>
		<g>
			<path d="M213.547,321.196c-0.333,0-0.656-0.174-0.832-0.483c-1.682-2.953-3.526-5.856-5.483-8.628
				c-0.305-0.432-0.203-1.029,0.229-1.333c0.434-0.306,1.03-0.201,1.333,0.229c1.994,2.822,3.872,5.779,5.584,8.785
				c0.262,0.46,0.101,1.043-0.358,1.305C213.87,321.156,213.708,321.196,213.547,321.196z"/>
		</g>
		<g>
			<path d="M242.201,333.055c-0.079,0-0.161-0.009-0.241-0.031c-3.08-0.798-6.256-1.284-9.436-1.444
				c-0.528-0.027-0.934-0.477-0.908-1.003c0.027-0.529,0.504-0.926,1.003-0.908c3.311,0.167,6.615,0.673,9.821,1.503
				c0.511,0.133,0.818,0.654,0.686,1.166C243.015,332.77,242.626,333.055,242.201,333.055z"/>
		</g>
		<g>
			<path d="M236.967,342.076c-0.24,0-0.481-0.09-0.667-0.271c-2.225-2.165-4.301-4.522-6.168-7.005
				c-0.318-0.422-0.233-1.021,0.19-1.339c0.423-0.319,1.022-0.232,1.339,0.19c1.809,2.404,3.818,4.686,5.974,6.783
				c0.378,0.368,0.387,0.974,0.019,1.353C237.465,341.979,237.216,342.076,236.967,342.076z"/>
		</g>
		<g>
			<path d="M187.026,364.058c0,0,4.537,10.142,6.005,10.542c1.468,0.4,8.14-6.806,8.14-7.206s-5.293-7.873-5.871-8.007
				C194.722,359.254,187.026,364.058,187.026,364.058z"/>
		</g>
		<g>
			<path d="M237.867,418.258c-0.512,0-0.936-0.405-0.955-0.922c-0.66-18.065-2.517-54.464-2.536-54.83
				c-0.027-0.528,0.379-0.977,0.907-1.004c0.509-0.039,0.977,0.378,1.004,0.907c0.019,0.365,1.876,36.778,2.536,54.858
				c0.02,0.528-0.392,0.972-0.921,0.99C237.891,418.258,237.879,418.258,237.867,418.258z"/>
		</g>
		<g>
			<path d="M257.216,423.863c-0.493,0-0.912-0.379-0.953-0.88c-0.667-8.276,4.201-47.247,4.408-48.902
				c0.065-0.524,0.542-0.892,1.068-0.831c0.525,0.065,0.896,0.544,0.831,1.068c-0.05,0.404-5.051,40.43-4.399,48.511
				c0.042,0.526-0.35,0.988-0.877,1.031C257.267,423.862,257.241,423.863,257.216,423.863z"/>
		</g>
		<g>
			<path d="M216.517,373.933c-0.486,0.257,5.204,5.471,6.672,6.005c1.468,0.534,5.738-4.003,5.738-4.003s2.402,2.535,3.87,3.069
				c1.468,0.534,3.603-2.135,3.603-2.135s-0.267-11.743-0.801-13.344c-0.534-1.601-0.934-1.334-3.202,0
				C230.128,364.859,218.786,372.732,216.517,373.933z"/>
		</g>
		<g>
			<path d="M263.622,372.332c1.601,1.334,4.27,8.007,6.939,7.473c2.669-0.534,8.006-8.14,7.206-8.674
				c-0.801-0.534-2.936-1.735-4.938-3.203c-2.002-1.468-2.936-1.068-4.537,0.134C266.691,369.263,263.622,372.332,263.622,372.332z"
				/>
		</g>
		<g>
			<path d="M289.376,372.999c0,0,5.204,5.204,7.339,5.204c2.135,0,6.138-8.273,6.138-8.273s4.137,4.27,5.871,4.003
				c1.735-0.267,4.404-5.605,4.404-5.605s-2.802-0.534-6.939-2.802c-4.137-2.268-7.473-4.804-9.074-3.87
				C295.514,362.591,290.577,372.065,289.376,372.999z"/>
		</g>
		<g>
			<path d="M272.562,437.474c-0.251,0-0.502-0.098-0.689-0.293c-0.366-0.381-0.354-0.987,0.026-1.353
				c2.029-1.951,2.817-3.812,3.121-4.905c-4,0.139-9.414,2.07-9.473,2.092c-0.37,0.13-0.777,0.027-1.037-0.263
				c-0.26-0.29-0.318-0.709-0.147-1.058c2.271-4.641,2.807-12.013,2.933-15.159c-5.986,3.072-11.52,10.465-11.58,10.544
				c-0.218,0.293-0.58,0.433-0.944,0.371c-0.36-0.067-0.649-0.334-0.746-0.687c-0.785-2.842-3.232-8.733-4.398-11.48
				c-1.593,2.424-3.023,6.534-3.505,8.163c-0.099,0.333-0.369,0.586-0.707,0.661c-0.338,0.077-0.69-0.035-0.923-0.295
				c-4.568-5.099-15.703-9.424-19.431-10.772c0.487,4.199,5.495,12.286,7.589,15.33c0.227,0.331,0.224,0.769-0.009,1.097
				c-0.233,0.326-0.646,0.474-1.033,0.367c-3.986-1.096-11.049-1.901-14.163-2.221c1.996,4.242,6.576,8.129,6.626,8.172
				c0.405,0.341,0.456,0.944,0.116,1.348c-0.338,0.405-0.942,0.457-1.347,0.117c-0.248-0.209-6.104-5.177-7.77-10.453
				c-0.097-0.304-0.035-0.637,0.166-0.887c0.2-0.249,0.514-0.386,0.83-0.354c0.376,0.034,8.119,0.728,13.668,1.87
				c-2.468-3.852-7.218-11.907-6.555-15.887c0.046-0.276,0.21-0.518,0.449-0.662c0.238-0.143,0.531-0.178,0.794-0.089
				c0.599,0.197,13.913,4.644,20.356,10.596c0.794-2.322,2.466-6.674,4.421-8.629c0.223-0.224,0.539-0.322,0.855-0.264
				c0.311,0.059,0.573,0.268,0.699,0.559c0.143,0.329,3.092,7.122,4.566,11.449c2.201-2.665,7.273-8.259,12.622-10.357
				c0.296-0.116,0.628-0.078,0.889,0.1c0.262,0.178,0.418,0.474,0.418,0.79c0,0.406-0.03,9.128-2.338,15.527
				c2.366-0.711,6.346-1.712,9.314-1.536c0.519,0.033,0.917,0.475,0.896,0.995c-0.006,0.146-0.193,3.627-3.895,7.188
				C273.04,437.385,272.801,437.474,272.562,437.474z"/>
		</g>
		<g>
			<path d="M119.79,278.253c-0.455,0-0.859-0.326-0.941-0.79c-0.092-0.52,0.254-1.016,0.774-1.109l7.17-1.271
				c0.526-0.094,1.016,0.255,1.109,0.774c0.092,0.52-0.255,1.017-0.775,1.109l-7.17,1.271
				C119.901,278.248,119.845,278.253,119.79,278.253z"/>
		</g>
		<g>
			<path d="M123.517,282.962c-0.336,0-0.662-0.177-0.837-0.492c-0.257-0.462-0.09-1.044,0.372-1.301
				c1.375-0.764,2.994-1.097,4.559-0.928c0.526,0.055,0.907,0.526,0.851,1.051c-0.055,0.525-0.531,0.912-1.051,0.851
				c-1.178-0.121-2.396,0.123-3.431,0.698C123.833,282.924,123.674,282.962,123.517,282.962z"/>
		</g>
		<g>
			<path d="M128.803,301.61c-0.14,0-0.283-0.031-0.419-0.096c-0.475-0.232-0.672-0.805-0.441-1.28
				c1.117-2.291,2.84-4.229,4.985-5.606c0.445-0.288,1.036-0.156,1.322,0.289c0.285,0.445,0.156,1.036-0.289,1.322
				c-1.849,1.186-3.335,2.858-4.298,4.834C129.498,301.412,129.158,301.61,128.803,301.61z"/>
		</g>
		<g>
			<path d="M377.857,260.023c-0.387,0-0.751-0.236-0.895-0.619c-0.187-0.495,0.064-1.046,0.558-1.232
				c2.202-0.83,4.59-1.05,6.906-0.639c0.52,0.092,0.867,0.589,0.774,1.109c-0.092,0.518-0.585,0.867-1.109,0.774
				c-1.975-0.35-4.017-0.163-5.897,0.546C378.083,260.003,377.969,260.023,377.857,260.023z"/>
		</g>
		<g>
			<path d="M392.247,268.58c-0.117,0-0.234-0.021-0.349-0.066c-5.476-2.147-10.397-3.828-15.177-2.686
				c-0.51,0.121-1.029-0.194-1.153-0.708c-0.123-0.514,0.194-1.029,0.708-1.153c5.751-1.379,11.611,0.92,16.32,2.766
				c0.491,0.192,0.734,0.747,0.541,1.24C392.99,268.35,392.629,268.58,392.247,268.58z"/>
		</g>
		<g>
			<path d="M380.767,275.256c-0.1,0-0.202-0.016-0.302-0.049c-1.705-0.567-3.498-0.848-5.274-0.819c-0.005,0-0.009,0-0.013,0
				c-0.522,0-0.949-0.419-0.957-0.944c-0.007-0.529,0.416-0.962,0.944-0.97c1.998-0.026,3.995,0.282,5.904,0.917
				c0.502,0.167,0.773,0.709,0.606,1.21C381.542,275.002,381.168,275.256,380.767,275.256z"/>
		</g>
		<g>
			<path d="M190.763,244.531c-0.481,0-0.895-0.362-0.95-0.85c-0.058-0.525,0.319-0.999,0.844-1.058
				c4.837-0.54,9.588-2.166,13.739-4.701c0.451-0.276,1.04-0.134,1.315,0.318c0.276,0.451,0.133,1.04-0.318,1.316
				c-4.389,2.68-9.411,4.399-14.524,4.97C190.834,244.529,190.799,244.531,190.763,244.531z"/>
		</g>
		<g>
			<path d="M204.91,252.525c-0.32,0-0.633-0.16-0.814-0.451c-0.278-0.449-0.141-1.039,0.307-1.318
				c2.719-1.689,5.081-3.838,7.019-6.386c0.321-0.421,0.921-0.503,1.341-0.182c0.42,0.32,0.502,0.92,0.182,1.341
				c-2.081,2.734-4.614,5.04-7.531,6.853C205.256,252.479,205.082,252.525,204.91,252.525z"/>
		</g>
		<g>
			<path d="M221.103,257.824c-0.128,0-0.259-0.026-0.384-0.081c-0.484-0.212-0.704-0.777-0.49-1.26l3.033-6.896
				c0.211-0.484,0.775-0.704,1.26-0.49c0.484,0.212,0.703,0.777,0.491,1.26l-3.033,6.896
				C221.822,257.612,221.471,257.824,221.103,257.824z"/>
		</g>
		<g>
			<path d="M228.957,255.206c-0.11,0-0.221-0.019-0.331-0.059c-0.496-0.183-0.749-0.732-0.567-1.229l0.826-2.238
				c0.315-0.86,0.947-0.953,1.205-0.953c0.45,0,0.842,0.277,1,0.707c0.163,0.446,0.04,0.942-0.305,1.233
				c-0.082,0.07-0.179,0.123-0.284,0.161l-0.646,1.75C229.712,254.967,229.347,255.206,228.957,255.206z"/>
		</g>
		<g>
			<path d="M241.47,262.132c-0.529,0-0.957-0.428-0.957-0.957v-8.273c0-0.529,0.428-0.957,0.957-0.957
				c0.529,0,0.957,0.428,0.957,0.957v8.273C242.427,261.704,241.999,262.132,241.47,262.132z"/>
		</g>
		<g>
			<path d="M268.381,257.235c-0.081,0-0.164-0.01-0.247-0.032c-4.47-1.188-8.496-3.853-11.337-7.503
				c-0.324-0.418-0.249-1.018,0.167-1.343c0.419-0.326,1.019-0.248,1.342,0.167c2.585,3.322,6.25,5.748,10.318,6.829
				c0.511,0.136,0.815,0.66,0.679,1.171C269.191,256.952,268.804,257.235,268.381,257.235z"/>
		</g>
		<g>
			<path d="M267.085,249.071c-0.111,0-0.223-0.019-0.333-0.06c-1.225-0.455-2.354-1.19-3.267-2.126
				c-0.369-0.378-0.362-0.984,0.017-1.353c0.378-0.368,0.984-0.361,1.353,0.017c0.717,0.734,1.603,1.312,2.565,1.669
				c0.495,0.184,0.747,0.735,0.563,1.23C267.839,248.833,267.473,249.071,267.085,249.071z"/>
		</g>
		<g>
			<path d="M290.039,248.007c-0.07,0-0.141-0.008-0.213-0.023c-2.901-0.659-5.62-2.039-7.864-3.99
				c-0.399-0.348-0.441-0.952-0.094-1.35c0.348-0.4,0.951-0.439,1.35-0.094c2.007,1.746,4.438,2.98,7.032,3.568
				c0.515,0.117,0.838,0.63,0.721,1.145C290.871,247.706,290.477,248.007,290.039,248.007z"/>
		</g>
		<g>
			<path d="M307.346,242.197c-0.153,0-0.309-0.036-0.454-0.115c-3.056-1.652-6.345-2.774-9.773-3.333
				c-0.521-0.086-0.875-0.577-0.79-1.099c0.085-0.521,0.576-0.878,1.099-0.791c3.639,0.595,7.129,1.786,10.374,3.539
				c0.464,0.251,0.638,0.831,0.387,1.297C308.016,242.015,307.686,242.197,307.346,242.197z"/>
		</g>
		<g>
			<path d="M304.684,237.415c-0.109,0-0.22-0.019-0.329-0.058l-4.197-1.535c-0.496-0.182-0.751-0.732-0.57-1.228
				c0.182-0.497,0.733-0.747,1.228-0.57l4.197,1.535c0.496,0.182,0.751,0.732,0.57,1.228
				C305.441,237.175,305.075,237.415,304.684,237.415z"/>
		</g>
		<g>
			<path d="M315.487,233.559c-1.37,0-2.738-0.423-3.855-1.221c-0.43-0.307-0.529-0.905-0.221-1.335
				c0.308-0.429,0.904-0.528,1.335-0.221c1.079,0.771,2.494,1.049,3.789,0.744c0.516-0.12,1.03,0.196,1.152,0.709
				c0.123,0.514-0.195,1.03-0.709,1.152C316.489,233.503,315.987,233.559,315.487,233.559z"/>
		</g>
	</g>
	<g>
		<path d="M459.513,479.73c-0.115,0-0.232-0.021-0.345-0.064c-55.982-21.631-112.99-35.095-169.44-40.017
			c-45.163-3.939-90.069-2.448-133.476,4.426c-73.919,11.707-118.429,35.304-118.87,35.541c-0.463,0.25-1.045,0.077-1.296-0.39
			c-0.25-0.465-0.076-1.045,0.39-1.296c0.443-0.238,45.176-23.965,119.387-35.731c43.569-6.907,88.643-8.41,133.97-4.462
			c56.651,4.933,113.854,18.439,170.025,40.144c0.493,0.191,0.738,0.745,0.547,1.237C460.259,479.498,459.897,479.73,459.513,479.73
			z"/>
	</g>
	<g>
		<g>
			<path d="M67.91,466.564c-0.273,0-0.545-0.117-0.734-0.343c-0.257-0.308-25.521-31.052-5.541-52.77
				c0.359-0.389,0.965-0.414,1.352-0.057c0.39,0.358,0.414,0.963,0.057,1.352c-18.844,20.481,5.354,49.952,5.601,50.247
				c0.338,0.405,0.284,1.009-0.12,1.348C68.344,466.491,68.127,466.564,67.91,466.564z"/>
		</g>
		<g>
			<path d="M63.218,421.727c-0.397,0-0.766-0.248-0.903-0.643c-0.052-0.152-5.015-15.344,16.624-25.467
				c0.478-0.222,1.049-0.017,1.272,0.461c0.223,0.478,0.017,1.048-0.462,1.273c-20.017,9.363-15.814,22.553-15.625,23.11
				c0.169,0.5-0.097,1.043-0.596,1.214C63.425,421.71,63.321,421.727,63.218,421.727z"/>
		</g>
		<g>
			<path d="M77.583,404.378c-0.476,0-0.887-0.352-0.947-0.836c-0.016-0.126-1.354-12.638,17.429-17.327
				c18.558-4.628,25.326,3.451,25.604,3.799c0.332,0.411,0.267,1.014-0.145,1.344c-0.412,0.333-1.015,0.267-1.344-0.145
				c-0.012-0.014-1.577-1.878-5.23-3.193c-3.405-1.223-9.362-2.211-18.421,0.051c-17.066,4.259-16.046,14.791-15.993,15.236
				c0.061,0.524-0.313,1-0.836,1.062C77.659,404.375,77.621,404.378,77.583,404.378z"/>
		</g>
		<g>
			<path d="M143.846,397.175c-0.316,0-0.626-0.156-0.808-0.443c-11.134-17.482-29.401-9.594-30.173-9.249
				c-0.482,0.211-1.048-0.002-1.263-0.483c-0.216-0.482-0.001-1.047,0.481-1.263c0.205-0.092,20.537-8.924,32.569,9.967
				c0.284,0.446,0.152,1.037-0.294,1.321C144.2,397.126,144.022,397.175,143.846,397.175z"/>
		</g>
		<g>
			<path d="M167.007,442.278c-0.125,0-0.252-0.025-0.375-0.077c-0.486-0.207-0.712-0.769-0.505-1.255
				c0.06-0.141,5.866-14.301-2.922-33.658c-8.679-19.113-24.015-16.558-24.173-16.535c-0.515,0.104-1.016-0.249-1.112-0.77
				c-0.095-0.52,0.249-1.017,0.77-1.112c0.165-0.035,16.966-2.835,26.256,17.626c9.158,20.168,3.199,34.595,2.941,35.199
				C167.732,442.06,167.379,442.278,167.007,442.278z"/>
		</g>
		<g>
			<path d="M84.327,391.57c-0.468,0-0.876-0.343-0.946-0.819c-0.087-0.593-2.037-14.634,4.284-23.126
				c5.491-7.379,12.833-8.276,17.691-8.869c0.824-0.101,1.586-0.193,2.267-0.309c5.449-0.954,14.34,6.684,16.929,9.042
				c0.241,0.219,0.354,0.546,0.3,0.866c-0.027,0.157-0.674,3.858-2.993,5.667c-1.537,1.197-3.323,0.127-4.898-0.817
				c-1.415-0.847-2.877-1.719-4.273-1.407c-3.02,0.688-4.604,2.186-5.139,4.859c-0.365,1.831,2.399,6.399,4.227,8.848
				c0.317,0.423,0.23,1.023-0.193,1.339c-0.424,0.318-1.022,0.23-1.339-0.193c-0.536-0.717-5.221-7.108-4.571-10.368
				c0.683-3.42,2.839-5.497,6.591-6.35c2.145-0.493,4.105,0.686,5.681,1.631c1.351,0.809,2.271,1.31,2.737,0.948
				c1.222-0.953,1.908-2.882,2.177-3.975c-5.093-4.552-11.555-8.763-14.914-8.206c-0.707,0.121-1.5,0.219-2.356,0.323
				c-4.805,0.587-11.386,1.391-16.388,8.112c-5.844,7.854-3.945,21.573-3.925,21.71c0.076,0.523-0.287,1.008-0.809,1.084
				C84.419,391.566,84.372,391.57,84.327,391.57z"/>
		</g>
		<g>
			<path d="M53.97,471.666c-6.474,0-10.716-6.32-10.901-6.599c-0.15-0.227-0.195-0.505-0.127-0.767
				c0.068-0.263,0.244-0.484,0.484-0.608c2.276-1.184,4.616-1.966,6.308-2.438c-4.92-3.328-8.314-9.838-8.476-10.153
				c-0.133-0.259-0.142-0.563-0.023-0.829c0.119-0.265,0.351-0.462,0.632-0.535c10.609-2.753,18.682,3.645,19.02,3.918
				c0.41,0.332,0.474,0.933,0.142,1.344c-0.331,0.41-0.933,0.474-1.344,0.144c-0.072-0.058-7.049-5.562-16.112-3.831
				c1.371,2.316,4.902,7.663,9.16,9.406c0.393,0.162,0.633,0.562,0.589,0.985c-0.044,0.423-0.362,0.766-0.779,0.842
				c-0.039,0.008-3.605,0.673-7.21,2.341c1.395,1.69,4.868,5.219,9.305,4.838c0.515-0.042,0.988,0.348,1.032,0.875
				c0.043,0.526-0.348,0.988-0.875,1.032C54.516,471.655,54.241,471.666,53.97,471.666z"/>
		</g>
		<g>
			<path d="M185.772,439.608c-0.285,0-0.567-0.126-0.756-0.368c-0.324-0.417-0.25-1.018,0.166-1.344
				c1.074-0.836,1.851-2.964,2.272-4.508c-2.705,0.49-6.026,1.618-6.065,1.631c-0.388,0.131-0.816,0.003-1.066-0.319
				c-0.25-0.324-0.267-0.771-0.042-1.113c1.581-2.397,2.508-5.332,2.979-7.176c-6.798,3.146-12.985,7.628-13.051,7.676
				c-0.427,0.31-1.025,0.217-1.337-0.21c-0.311-0.427-0.217-1.026,0.21-1.337c0.304-0.22,7.509-5.439,15.146-8.649
				c0.322-0.134,0.691-0.085,0.963,0.131c0.274,0.216,0.408,0.563,0.351,0.907c-0.031,0.188-0.663,3.926-2.438,7.552
				c1.64-0.476,3.83-1.034,5.512-1.188c0.295-0.026,0.591,0.087,0.793,0.307c0.202,0.221,0.289,0.523,0.234,0.818
				c-0.096,0.529-1.01,5.214-3.284,6.988C186.186,439.542,185.978,439.608,185.772,439.608z"/>
		</g>
		<g>
			<path d="M84.448,441.282c-0.352,0-0.691-0.195-0.859-0.533c-4.537-9.17-6.598-19.328-5.961-29.373
				c0.034-0.527,0.491-0.928,1.016-0.894c0.527,0.034,0.928,0.488,0.894,1.016c-0.616,9.711,1.378,19.533,5.767,28.403
				c0.234,0.474,0.04,1.047-0.434,1.282C84.735,441.25,84.59,441.282,84.448,441.282z"/>
		</g>
		<g>
			<path d="M92.573,453.432c-0.16,0-0.321-0.04-0.47-0.124c-2.591-1.465-4.746-3.655-6.067-6.167
				c-0.247-0.468-0.066-1.046,0.401-1.292c0.467-0.245,1.046-0.067,1.292,0.401c1.153,2.191,3.041,4.106,5.316,5.394
				c0.46,0.26,0.622,0.844,0.362,1.303C93.231,453.257,92.907,453.432,92.573,453.432z"/>
		</g>
		<g>
			<path d="M65.02,435.067c-0.47,0-0.88-0.346-0.946-0.824l-0.783-5.617c-0.073-0.523,0.292-1.006,0.816-1.079
				c0.521-0.074,1.006,0.292,1.079,0.816l0.783,5.615c0.073,0.523-0.291,1.007-0.815,1.08
				C65.109,435.064,65.064,435.067,65.02,435.067z"/>
		</g>
		<g>
			<path d="M78.757,462.425c-0.119,0-0.238-0.022-0.354-0.068c-2.994-1.193-4.928-3.781-6.279-5.903
				c-3.277-5.151-5.467-10.993-6.332-16.896c-0.076-0.522,0.285-1.008,0.808-1.085c0.525-0.082,1.009,0.285,1.085,0.808
				c0.826,5.637,2.919,11.22,6.053,16.145c1.032,1.623,2.435,3.547,4.399,4.68c0.195-0.008,0.399,0.048,0.576,0.169l0.59,0.407
				c0.399,0.277,0.527,0.81,0.297,1.239C79.429,462.24,79.1,462.425,78.757,462.425z"/>
		</g>
		<g>
			<path d="M151.933,422.794c-0.525,0-0.952-0.423-0.957-0.948c-0.041-4.978-1.285-9.997-3.595-14.513
				c-0.24-0.47-0.054-1.046,0.417-1.288c0.468-0.24,1.044-0.056,1.287,0.417c2.445,4.78,3.76,10.094,3.804,15.367
				c0.005,0.529-0.42,0.96-0.948,0.965C151.939,422.794,151.936,422.794,151.933,422.794z"/>
		</g>
		<g>
			<path d="M152.936,444.413c-0.047,0-0.093-0.004-0.141-0.01c-0.523-0.078-0.884-0.564-0.806-1.087
				c0.604-4.065,0.652-8.193,0.145-12.271c-0.065-0.524,0.306-1.002,0.831-1.067c0.515-0.064,1.003,0.306,1.067,0.832
				c0.529,4.249,0.478,8.551-0.15,12.787C153.81,444.072,153.402,444.413,152.936,444.413z"/>
		</g>
		<g>
			<path d="M126.169,404.718c-0.246,0-0.492-0.094-0.678-0.282l-3.616-3.63c-0.373-0.375-0.372-0.98,0.002-1.353
				c0.375-0.372,0.98-0.374,1.353,0.002l3.618,3.632c0.373,0.374,0.371,0.98-0.004,1.353
				C126.657,404.626,126.412,404.718,126.169,404.718z"/>
		</g>
		<g>
			<path d="M137.91,437.745c-0.495,0-0.914-0.381-0.953-0.882c-0.738-9.472-3.372-18.628-7.83-27.215
				c-0.243-0.469-0.061-1.046,0.408-1.29c0.47-0.242,1.047-0.061,1.29,0.408c4.577,8.817,7.282,18.22,8.04,27.947
				c0.041,0.527-0.353,0.988-0.879,1.029C137.959,437.745,137.935,437.745,137.91,437.745z"/>
		</g>
	</g>
	<g>
		<g>
			<path d="M320.932,443.345c-0.33,0-0.65-0.171-0.828-0.477c-0.344-0.593-8.349-14.766-0.95-34.97
				c7.263-19.835,27.462-30.883,42.021-29.715c0.527,0.042,0.919,0.503,0.878,1.03c-0.042,0.526-0.489,0.922-1.03,0.878
				c-13.833-1.103-33.118,9.473-40.072,28.465c-7.076,19.323,0.729,33.215,0.808,33.353c0.264,0.458,0.108,1.043-0.349,1.307
				C321.26,443.303,321.094,443.345,320.932,443.345z"/>
		</g>
		<g>
			<path d="M356.407,387.566c-0.123,0-0.248-0.024-0.37-0.075c-0.486-0.205-0.716-0.763-0.512-1.25
				c0.074-0.177,7.635-17.514,31.036-11.23c0.511,0.137,0.814,0.661,0.676,1.172c-0.136,0.511-0.667,0.815-1.172,0.677
				c-21.756-5.837-28.499,9.467-28.776,10.122C357.135,387.346,356.78,387.566,356.407,387.566z"/>
		</g>
		<g>
			<path d="M424.428,394.773c-0.045,0-0.091-0.003-0.136-0.009c-0.523-0.076-0.887-0.561-0.812-1.083
				c0.946-6.591,0.349-15.752-15.673-19.213c-16.571-3.583-27.187,6.073-27.293,6.17c-0.388,0.359-0.994,0.336-1.351-0.048
				c-0.361-0.386-0.34-0.99,0.046-1.351c0.458-0.428,11.419-10.442,29.001-6.642c13.201,2.851,18.815,9.836,17.164,21.354
				C425.306,394.429,424.897,394.773,424.428,394.773z"/>
		</g>
		<g>
			<path d="M439.968,408.651c-0.044,0-0.088-0.003-0.133-0.009c-0.524-0.073-0.889-0.556-0.816-1.079
				c2.197-15.759-13.299-20.118-13.959-20.296c-0.51-0.137-0.813-0.661-0.676-1.172c0.137-0.51,0.668-0.814,1.171-0.676
				c0.178,0.048,17.793,4.957,15.36,22.407C440.848,408.305,440.438,408.651,439.968,408.651z"/>
		</g>
		<g>
			<path d="M435.277,470.034c-0.363,0-0.711-0.208-0.872-0.561c-0.219-0.48-0.007-1.048,0.475-1.267
				c7.079-3.222,14.042-9.918,17.037-36.865c2.535-22.816-11.056-29.658-11.193-29.724c-0.477-0.23-0.676-0.802-0.446-1.277
				c0.231-0.475,0.804-0.674,1.277-0.446c0.612,0.295,14.946,7.511,12.264,31.658c-2.506,22.546-7.763,33.669-18.147,38.396
				C435.544,470.006,435.408,470.034,435.277,470.034z"/>
		</g>
		<g>
			<path d="M422.376,381.962c-0.044,0-0.088-0.003-0.133-0.009c-0.523-0.073-0.889-0.556-0.816-1.079
				c2.802-20.147-17.717-29.862-17.924-29.957c-3.725-1.605-8.499,0.446-10.727,1.619c2.83,2.388,5.004,6.961,4.159,12.86
				c-0.689,4.81-4.353,7.378-6.321,8.758c-0.413,0.29-0.922,0.647-1.072,0.812c-0.181,0.442-0.666,0.686-1.138,0.558
				c-0.51-0.139-0.809-0.666-0.669-1.175c0.174-0.635,0.778-1.059,1.781-1.761c1.852-1.299,4.953-3.473,5.525-7.462
				c0.839-5.857-1.753-10.246-4.516-11.847c-0.288-0.166-0.468-0.47-0.477-0.802c-0.008-0.332,0.155-0.645,0.433-0.826
				c0.317-0.207,7.826-5.063,13.802-2.481c0.243,0.111,22.036,10.43,19.04,31.968C423.256,381.615,422.846,381.962,422.376,381.962z
				 M389.58,374.854c0,0.001,0,0.001,0,0.002C389.58,374.854,389.58,374.854,389.58,374.854z"/>
		</g>
		<g>
			<path d="M304.512,440.409c-0.201,0-0.404-0.064-0.577-0.194c-0.23-0.174-5.63-4.364-6.239-12.972
				c-0.023-0.32,0.117-0.632,0.372-0.827c0.256-0.196,0.591-0.25,0.896-0.144c0.211,0.073,4.334,1.52,7.66,3.849
				c-0.448-3.057-0.821-8.082,0.861-11.146c0.233-0.423,0.745-0.608,1.193-0.428c0.204,0.081,5.038,2.065,8.971,8.673
				c0.27,0.454,0.121,1.042-0.333,1.312c-0.453,0.271-1.042,0.121-1.312-0.333c-2.655-4.463-5.773-6.63-7.221-7.458
				c-1.511,4.148,0.162,11.475,0.179,11.554c0.097,0.415-0.093,0.845-0.465,1.052c-0.374,0.207-0.838,0.144-1.14-0.156
				c-2.112-2.096-5.622-3.74-7.584-4.554c1.023,6.685,5.273,10.018,5.319,10.053c0.419,0.32,0.499,0.92,0.179,1.34
				C305.084,440.279,304.799,440.409,304.512,440.409z"/>
		</g>
		<g>
			<path d="M449.641,475.638c-0.492,0-0.909-0.376-0.952-0.874c-0.046-0.527,0.344-0.99,0.87-1.036
				c3.735-0.324,5.857-1.262,6.866-1.861c-1.794-1.606-4.922-2.386-4.957-2.395c-0.481-0.118-0.793-0.583-0.719-1.073
				c0.075-0.489,0.511-0.826,1.003-0.812c2.757,0.179,6.13-1.441,7.985-2.476c-2.694-1.195-5.664-1.217-5.698-1.217
				c-0.437-0.001-0.818-0.298-0.926-0.721c-0.108-0.423,0.085-0.866,0.468-1.076c3.933-2.148,6.937-5.849,8.376-7.859
				c-0.08,0-0.162-0.001-0.241-0.001c-9.335,0-14.107,3.305-14.157,3.34c-0.43,0.306-1.026,0.207-1.333-0.223
				c-0.306-0.429-0.209-1.024,0.219-1.332c0.239-0.17,5.979-4.201,17.317-3.648c0.335,0.016,0.638,0.207,0.797,0.503
				c0.159,0.296,0.151,0.654-0.02,0.943c-0.139,0.234-3.025,5.026-7.683,8.45c1.593,0.288,3.605,0.861,5.336,2.006
				c0.267,0.177,0.428,0.475,0.429,0.795c0.001,0.32-0.158,0.619-0.424,0.797c-0.173,0.117-3.221,2.141-6.669,3.122
				c1.154,0.601,2.33,1.411,3.096,2.458c0.275,0.376,0.24,0.893-0.082,1.229c-0.093,0.097-2.374,2.4-8.815,2.959
				C449.696,475.637,449.668,475.638,449.641,475.638z"/>
		</g>
		<g>
			<path d="M337.652,421.729c-0.068,0-0.137-0.008-0.207-0.023c-0.516-0.114-0.842-0.625-0.728-1.141
				c2.215-10.028,7.2-19.47,14.416-27.307c0.359-0.388,0.964-0.412,1.352-0.055c0.389,0.358,0.413,0.963,0.055,1.352
				c-6.987,7.587-11.812,16.725-13.954,26.423C338.486,421.425,338.091,421.729,337.652,421.729z"/>
		</g>
		<g>
			<path d="M336.955,445.304c-0.259,0-0.517-0.105-0.705-0.31c-0.816-0.89-0.997-2.035-1.102-3.037
				c-0.476-4.531-0.306-9.107,0.505-13.6c0.095-0.52,0.592-0.867,1.112-0.772c0.52,0.094,0.865,0.592,0.772,1.112
				c-0.78,4.314-0.944,8.708-0.487,13.059c0.08,0.762,0.187,1.483,0.61,1.944c0.357,0.389,0.331,0.995-0.059,1.352
				C337.417,445.221,337.185,445.304,336.955,445.304z"/>
		</g>
		<g>
			<path d="M352.967,440.411c-0.007,0-0.014,0-0.021,0c-0.529-0.011-0.947-0.449-0.936-0.977c0.176-8.116,1.921-16.06,5.186-23.612
				c0.209-0.485,0.772-0.708,1.258-0.499c0.485,0.21,0.708,0.773,0.499,1.257c-3.167,7.325-4.859,15.028-5.029,22.895
				C353.912,439.996,353.486,440.411,352.967,440.411z"/>
		</g>
		<g>
			<path d="M363.935,406.745c-0.138,0-0.279-0.03-0.413-0.094c-0.477-0.228-0.677-0.8-0.448-1.276
				c3.537-7.382,9.06-13.941,15.969-18.964c0.428-0.31,1.026-0.218,1.336,0.211c0.311,0.427,0.217,1.026-0.211,1.336
				c-6.653,4.839-11.967,11.147-15.369,18.245C364.634,406.545,364.292,406.745,363.935,406.745z"/>
		</g>
		<g>
			<path d="M424.309,413.699c-0.071,0-0.143-0.007-0.215-0.024c-0.516-0.119-0.837-0.632-0.718-1.146
				c0.804-3.5,1.087-7.082,0.838-10.648c-0.036-0.527,0.362-0.984,0.888-1.021c0.507-0.014,0.984,0.361,1.021,0.888
				c0.261,3.754-0.036,7.526-0.883,11.209C425.139,413.399,424.744,413.699,424.309,413.699z"/>
		</g>
		<g>
			<path d="M416.125,449.563c-0.139,0-0.28-0.03-0.414-0.094c-0.476-0.229-0.676-0.801-0.448-1.277
				c4.412-9.176,7.147-18.885,8.129-28.856c0.051-0.526,0.515-0.908,1.045-0.859c0.526,0.051,0.911,0.52,0.859,1.046
				c-1.004,10.195-3.8,20.12-8.309,29.498C416.823,449.363,416.481,449.563,416.125,449.563z"/>
		</g>
		<g>
			<path d="M409.677,461.15c-0.246,0-0.492-0.094-0.678-0.282c-0.373-0.375-0.371-0.981,0.004-1.353
				c1.086-1.079,1.968-2.303,2.62-3.638c0.232-0.475,0.807-0.673,1.279-0.44c0.476,0.232,0.672,0.804,0.44,1.279
				c-0.746,1.528-1.753,2.926-2.99,4.156C410.165,461.058,409.921,461.15,409.677,461.15z"/>
		</g>
		<g>
			<path d="M423.971,466.468c-0.319,0-0.632-0.16-0.814-0.452c-0.278-0.449-0.141-1.038,0.308-1.317
				c5.773-3.587,10.677-8.388,14.184-13.886c0.284-0.445,0.874-0.577,1.321-0.292c0.445,0.284,0.576,0.875,0.291,1.321
				c-3.66,5.738-8.773,10.745-14.788,14.482C424.317,466.422,424.143,466.468,423.971,466.468z"/>
		</g>
		<g>
			<path d="M439.219,446.885c-0.153,0-0.308-0.036-0.452-0.114c-0.465-0.25-0.64-0.831-0.39-1.296
				c3.049-5.667,3.286-12.433,3.495-18.401c0.091-2.604,0.193-5.555-1.021-8.004c-0.236-0.474-0.042-1.047,0.431-1.282
				c0.472-0.236,1.048-0.041,1.282,0.432c1.43,2.882,1.318,6.091,1.219,8.922c-0.216,6.177-0.461,13.179-3.721,19.24
				C439.89,446.702,439.56,446.885,439.219,446.885z"/>
		</g>
	</g>
	<g>
		<path d="M442.111,242.383c-0.043,0-0.086-0.003-0.13-0.009c-0.404-0.055-0.728-0.36-0.808-0.76
			c-0.016-0.078-1.62-7.865-5.496-10.25c-3.46-2.13-6.188,1.564-6.302,1.721c-0.203,0.281-0.542,0.435-0.884,0.391
			c-0.343-0.038-0.639-0.258-0.774-0.576c-0.013-0.032-1.488-3.389-4.329-3.762c-2.431-0.332-5.382,1.627-8.541,5.629
			c-0.28,0.355-0.769,0.464-1.172,0.266c-0.405-0.198-0.616-0.653-0.507-1.09c0.021-0.079,1.956-8.048-1.193-11.646
			c-1.22-1.394-3.131-1.955-5.683-1.674c-0.257,0.029-0.517-0.05-0.716-0.214c-0.2-0.165-0.324-0.405-0.344-0.663
			c-0.004-0.047-0.455-4.914-4.858-7.833c-4.613-3.056-11.763-3.022-21.247,0.098c-0.396,0.128-0.838-0.013-1.081-0.358
			c-0.242-0.344-0.232-0.805,0.026-1.138c0.619-0.798,15.336-19.535,28.613-17.165c5.594,1.004,9.845,4.695,12.293,10.673
			c0.977,2.387,1.482,4.673,1.741,6.302c1.19-1.663,2.882-4.395,4.006-7.766c0.133-0.399,0.491-0.675,0.933-0.654
			c0.421,0.012,0.786,0.298,0.897,0.705l1.69,6.197l5.256-2.213c0.371-0.158,0.804-0.062,1.078,0.237
			c0.273,0.3,0.327,0.739,0.137,1.097l-3.417,6.377c3.553-1.637,9.692-3.395,14.711,0.667c3.2,2.591,3.625,7.964,1.263,15.971
			c-1.695,5.745-4.202,10.708-4.308,10.916C442.799,242.184,442.468,242.383,442.111,242.383z M433.499,228.779
			c1.001,0,2.074,0.274,3.181,0.955c3.034,1.867,4.81,6.143,5.685,8.927c2.916-6.513,6.997-18.512,2.44-22.202
			c-6.296-5.096-15.246,0.971-15.336,1.033c-0.362,0.25-0.851,0.22-1.18-0.075c-0.33-0.294-0.415-0.776-0.207-1.165l3.668-6.847
			l-3.772,1.588c-0.254,0.106-0.542,0.097-0.789-0.021c-0.249-0.12-0.432-0.343-0.505-0.609l-1.217-4.462
			c-2.02,4.501-4.606,7.353-4.735,7.494c-0.262,0.284-0.667,0.383-1.033,0.252c-0.363-0.133-0.612-0.472-0.628-0.859
			c-0.007-0.154-0.79-15.413-12.727-17.556c-9.431-1.689-20.254,9.041-24.697,14.019c8.573-2.33,15.229-1.969,19.813,1.086
			c3.961,2.642,5.174,6.529,5.534,8.311c2.766-0.109,4.925,0.679,6.421,2.392c2.347,2.685,2.445,7.005,2.154,10.007
			c2.842-2.866,5.551-4.146,8.082-3.805c2.588,0.348,4.264,2.295,5.126,3.632C429.898,229.801,431.564,228.779,433.499,228.779z"/>
	</g>
	<g>
		<path d="M74.588,127.445c-0.357,0-0.689-0.199-0.853-0.523c-0.106-0.208-2.614-5.171-4.309-10.916
			c-2.361-8.007-1.936-13.38,1.264-15.971c5.019-4.063,11.159-2.303,14.71-0.667l-3.417-6.377c-0.191-0.358-0.137-0.797,0.136-1.097
			c0.273-0.3,0.706-0.394,1.078-0.237l5.256,2.213l1.69-6.197c0.111-0.407,0.476-0.693,0.897-0.705
			c0.434,0.017,0.801,0.254,0.933,0.654c1.124,3.372,2.816,6.103,4.007,7.767c0.258-1.628,0.763-3.915,1.74-6.302
			c2.448-5.979,6.699-9.669,12.293-10.673c13.28-2.379,27.992,16.366,28.612,17.165c0.258,0.333,0.268,0.794,0.026,1.138
			c-0.243,0.345-0.684,0.486-1.081,0.358c-9.485-3.121-16.631-3.153-21.246-0.098c-4.403,2.918-4.855,7.786-4.858,7.835
			c-0.022,0.258-0.146,0.497-0.346,0.662c-0.2,0.164-0.46,0.24-0.714,0.214c-2.554-0.286-4.463,0.279-5.684,1.674
			c-3.148,3.599-1.213,11.566-1.192,11.645c0.108,0.437-0.103,0.892-0.507,1.09c-0.404,0.199-0.892,0.088-1.173-0.265
			c-3.164-4.009-6.127-5.953-8.552-5.629c-2.855,0.384-4.305,3.729-4.319,3.762c-0.135,0.319-0.433,0.539-0.776,0.577
			c-0.354,0.037-0.683-0.113-0.883-0.395c-0.113-0.157-2.842-3.85-6.301-1.719c-3.876,2.385-5.48,10.172-5.496,10.25
			c-0.08,0.4-0.405,0.704-0.808,0.76C74.674,127.442,74.631,127.445,74.588,127.445z M77.858,99.493
			c-2.025,0-4.112,0.53-5.965,2.029c-4.557,3.69-0.476,15.689,2.44,22.202c0.875-2.784,2.651-7.06,5.685-8.927
			c3.248-1.998,6.203-0.488,7.902,1.14c0.862-1.337,2.538-3.284,5.125-3.632c2.539-0.342,5.241,0.94,8.084,3.805
			c-0.291-3.002-0.194-7.321,2.153-10.006c1.496-1.712,3.653-2.498,6.422-2.392c0.36-1.782,1.572-5.668,5.534-8.311
			c4.585-3.055,11.241-3.418,19.81-1.087c-4.446-4.978-15.282-15.711-24.694-14.018c-11.938,2.142-12.72,17.402-12.727,17.556
			c-0.016,0.387-0.264,0.726-0.628,0.858c-0.365,0.132-0.772,0.033-1.033-0.252c-0.129-0.141-2.715-2.993-4.736-7.495l-1.217,4.463
			c-0.073,0.266-0.256,0.489-0.505,0.609c-0.247,0.119-0.535,0.127-0.789,0.021l-3.772-1.588l3.668,6.846
			c0.208,0.39,0.123,0.87-0.206,1.165c-0.328,0.293-0.816,0.324-1.181,0.076C87.167,102.513,82.691,99.493,77.858,99.493z"/>
	</g>
	<g>
		<path d="M46.092,230.458c-1.643,0-3.234-0.383-4.498-1.549c-1.124-1.038-1.546-2.495-1.16-4c0.492-1.912,2.237-3.642,4.147-4.112
			c0.514-0.127,1.014-0.163,1.503-0.111c-0.06-0.404-0.077-0.82-0.047-1.24c0.105-1.48,0.771-2.834,1.826-3.714
			c1.058-0.88,2.511-1.289,3.987-1.124c0.601,0.067,1.177,0.227,1.705,0.466c-0.157-2.778,0.212-5.138,1.114-7.17
			c1.463-3.293,4.559-5.584,7.702-5.699c1.841-0.072,3.772,0.727,5.131,2.126c0.13,0.134,0.253,0.271,0.369,0.411
			c1.177-6.106,3.636-11.937,7.213-17.047c3.335-4.763,7.045-7.668,11.027-8.635c4.632-1.121,10.105,0.401,14.651,4.072
			c6.924,5.592,10.505,14.893,9.277,23.677c2.017-0.681,4.374-0.328,6.034,1.054c1.73,1.441,2.497,3.829,2.086,6.008
			c3.458-0.592,7.107,0.142,10.056,2.085c1.778,1.171,2.849,2.599,3.096,4.131c0.239,1.477-0.08,2.764-0.952,3.826
			c-1.963,2.394-6.288,2.896-8.691,2.983h-0.001c-0.438,0.016-0.848,0.018-1.213,0.015c-4.515-0.059-9.14-0.188-13.614-0.311
			c-17.845-0.498-36.299-1.008-53.852,2.614c-0.501,0.103-1.047,0.239-1.624,0.383C49.793,229.989,47.91,230.458,46.092,230.458z
			 M45.646,222.578c-0.195,0-0.397,0.025-0.605,0.077c-1.247,0.307-2.43,1.481-2.751,2.731c-0.216,0.836-0.013,1.548,0.604,2.117
			c1.904,1.758,5.293,0.915,8.015,0.237c0.603-0.149,1.175-0.291,1.699-0.4c17.77-3.665,36.337-3.15,54.292-2.653
			c4.466,0.124,9.085,0.252,13.586,0.311c0.338,0.004,0.714,0.002,1.12-0.013c3.54-0.128,6.193-0.961,7.28-2.285
			c0.515-0.628,0.692-1.382,0.542-2.306c-0.202-1.25-1.34-2.235-2.259-2.84c-2.983-1.965-6.799-2.499-10.208-1.428
			c-0.374,0.12-0.783-0.005-1.031-0.311c-0.248-0.305-0.282-0.732-0.089-1.074c0.974-1.718,0.531-4.144-0.987-5.407
			c-1.516-1.261-3.982-1.26-5.496,0.008c-0.314,0.264-0.762,0.296-1.114,0.083c-0.35-0.215-0.525-0.629-0.434-1.029
			c1.968-8.649-1.345-18.203-8.245-23.775c-4.087-3.3-8.945-4.684-12.999-3.702c-3.517,0.854-6.852,3.503-9.911,7.872
			c-4.124,5.892-6.696,12.786-7.438,19.938c-0.054,0.519-0.505,0.911-1.033,0.854c-0.52-0.044-0.907-0.496-0.874-1.016
			c0.067-1.022-0.35-2.053-1.177-2.905c-0.974-1.002-2.404-1.601-3.688-1.547c-2.43,0.09-4.851,1.924-6.023,4.565
			c-0.985,2.216-1.228,4.948-0.743,8.353c0.061,0.431-0.176,0.848-0.577,1.017c-0.399,0.169-0.865,0.045-1.13-0.301
			c-0.521-0.68-1.37-1.133-2.331-1.241c-0.956-0.106-1.889,0.145-2.549,0.693c-0.658,0.548-1.074,1.415-1.143,2.379
			c-0.068,0.963,0.221,1.881,0.795,2.516c0.001,0,0.001,0,0.001,0.001l0,0c0.354,0.391,0.323,0.997-0.069,1.351
			c-0.39,0.353-0.997,0.324-1.351-0.069l0,0l0,0c-0.001-0.001-0.002-0.002-0.003-0.003
			C46.839,222.846,46.277,222.578,45.646,222.578z M121.637,225.941h0.009H121.637z"/>
	</g>
	<g>
		<path d="M432.892,115.719c-1.427,0-2.886-0.303-4.125-0.561c-0.486-0.101-0.947-0.197-1.368-0.267
			c-14.822-2.461-30.275-1.43-45.218-0.434c-3.751,0.25-7.629,0.509-11.418,0.706c-0.306,0.016-0.652,0.027-1.025,0.028l0,0
			c-0.022,0-0.043,0-0.065,0c-2.49,0-5.777-0.398-7.439-2.271c-0.796-0.897-1.119-2.006-0.961-3.298
			c0.163-1.338,1.036-2.608,2.525-3.674c2.382-1.705,5.368-2.464,8.263-2.13c-0.337-1.811,0.253-3.79,1.644-5.043
			c1.325-1.194,3.231-1.596,4.938-1.177c-1.226-7.313,1.496-15.171,7.1-20.069c3.731-3.26,8.327-4.729,12.288-3.93
			c3.411,0.688,6.649,3.023,9.625,6.941c3.117,4.102,5.353,8.823,6.563,13.817c0.034-0.04,0.069-0.08,0.105-0.12
			c1.123-1.25,2.75-1.998,4.35-2.002c0.005,0,0.009,0,0.013,0c2.736,0,5.393,1.811,6.771,4.615c0.805,1.638,1.198,3.549,1.188,5.803
			c0.387-0.17,0.803-0.29,1.235-0.356c1.275-0.195,2.548,0.114,3.497,0.843c0.947,0.729,1.572,1.881,1.713,3.161
			c0.033,0.297,0.038,0.592,0.019,0.883c0.364-0.035,0.74-0.009,1.126,0.068c1.697,0.348,3.23,1.756,3.729,3.42
			c0.391,1.305,0.069,2.597-0.881,3.546C435.936,115.366,434.433,115.719,432.892,115.719z M406.724,111.454
			c7.04,0,14.069,0.401,20.99,1.55c0.444,0.074,0.931,0.175,1.443,0.281c2.27,0.471,5.095,1.06,6.577-0.42
			c0.455-0.454,0.589-1.006,0.399-1.643c-0.292-0.972-1.293-1.891-2.281-2.094c-0.695-0.147-1.275,0.071-1.743,0.631
			c-0.339,0.406-0.943,0.461-1.347,0.121c-0.405-0.339-0.46-0.942-0.121-1.347l0,0l0,0c0.001-0.001,0.001-0.002,0.002-0.003
			c0.433-0.52,0.633-1.255,0.548-2.019c-0.084-0.764-0.441-1.44-0.977-1.853c-0.538-0.413-1.283-0.581-2.043-0.469
			c-0.762,0.116-1.422,0.5-1.813,1.055c-0.251,0.355-0.712,0.498-1.118,0.345c-0.407-0.152-0.66-0.561-0.617-0.994
			c0.292-2.842,0.005-5.098-0.881-6.899c-1.043-2.123-3.073-3.547-5.054-3.547c-0.003,0-0.006,0-0.009,0
			c-1.052,0.002-2.175,0.526-2.93,1.367c-0.636,0.708-0.94,1.545-0.855,2.356c0.055,0.519-0.316,0.985-0.833,1.049
			c-0.516,0.078-0.991-0.297-1.065-0.814c-0.853-5.95-3.225-11.624-6.861-16.411c-2.686-3.534-5.539-5.628-8.48-6.221
			c-3.382-0.684-7.365,0.624-10.65,3.494c-5.563,4.861-8.011,12.921-6.092,20.056c0.106,0.397-0.051,0.817-0.393,1.045
			c-0.343,0.228-0.792,0.211-1.116-0.039c-1.257-0.971-3.236-0.898-4.415,0.165c-1.179,1.062-1.458,3.024-0.622,4.373
			c0.206,0.335,0.188,0.761-0.047,1.076c-0.236,0.316-0.638,0.454-1.018,0.351c-2.809-0.766-6.021-0.188-8.386,1.508
			c-0.727,0.52-1.618,1.349-1.741,2.349c-0.09,0.734,0.072,1.322,0.493,1.797c0.918,1.035,3.107,1.628,6.007,1.628
			c0.02,0,0.039,0,0.059,0l0,0c0.337-0.001,0.65-0.01,0.93-0.026c3.776-0.196,7.647-0.454,11.392-0.705
			C390.182,112.006,398.46,111.454,406.724,111.454z"/>
	</g>
</g>
</svg>
