<?xml version="1.0" encoding="utf-8"?>
<!-- Generator: Adobe Illustrator 27.5.0, SVG Export Plug-In . SVG Version: 6.00 Build 0)  -->
<svg xmlns="http://www.w3.org/2000/svg" xmlns:xlink="http://www.w3.org/1999/xlink" viewBox="0 0 2500 2500" width="595" height="842" preserveAspectRatio="xMidYMid meet" data-scaled="true">
<path d="M1489.886,798.015c1.317-0.761,2.489-1.332,3.547-2.067c21.937-15.243,46.216-25.11,72.24-30.484
	c23.536-4.861,47.411-7.092,71.478-6.617c23.03,0.455,45.695,3.929,68.149,8.813c50.312,10.943,98.7,27.585,145.542,48.932
	c32.187,14.668,62.913,32.04,93.597,49.507c39.381,22.417,78.472,45.36,116.168,70.518c35.468,23.671,70.46,48.063,105.41,72.496
	c7.315,5.114,13.906,11.432,20.154,17.853c6.585,6.766,10.914,15.006,12.684,24.501c1.31,7.032-0.174,13.289-4.553,18.746
	c-2.269,2.828-5.031,5.317-7.823,7.658c-13.979,11.725-30.216,19.429-47.108,25.816c-21.183,8.01-42.438,15.834-63.716,23.588
	c-41.11,14.981-80.325,34.023-118.615,55.067c-1.135,0.624-2.077,1.601-3.629,2.823c1.809,2.174,3.311,4.295,5.127,6.099
	c4.451,4.419,6.924,9.73,7.558,15.902c0.679,6.618,1.426,13.238,1.801,19.876c1.951,34.58,4.268,69.148,5.532,103.755
	c1.119,30.615,1.178,61.273,1.378,91.914c0.067,10.313-0.883,20.633-1.335,30.951c-0.085,1.942-0.012,3.89-0.012,6.135
	c2.526,0.724,4.679,1.588,6.913,1.943c43.169,6.861,85.336,17.817,126.977,30.941c15.585,4.912,30.978,10.361,45.408,18.109
	c15.248,8.187,14.579,7.704,12.734,23.083c-2.099,17.498-5.48,34.842-8.291,52.255c-0.153,0.945-0.175,1.912-0.311,3.491
	c2.457,0.81,4.849,1.82,7.344,2.382c10.81,2.435,21.04,6.342,30.608,11.911c42.568,24.777,81.276,54.441,115.572,89.937
	c26.11,27.024,48.268,56.83,66.302,89.729c3.513,6.408,6.326,13.198,9.504,19.792c1.809,3.753,1.968,7.703,1.57,11.732
	c-0.631,6.375-5.694,10.188-11.934,8.436c-3.471-0.975-6.739-2.835-9.939-4.586c-11.134-6.089-22.712-11.136-34.682-15.333
	c-4.111-1.441-8.204-2.504-13.325-1.733c1.063,2.424,1.708,4.605,2.876,6.453c18.425,29.145,32.873,60.15,44.064,92.747
	c8.443,24.594,16.247,49.364,21.832,74.772c5.166,23.502,8.498,47.238,6.17,71.368c-0.796,8.247-2.463,16.439-4.233,24.547
	c-0.682,3.124-2.295,6.314-4.299,8.823c-3.746,4.69-10.085,4.704-13.828,0.004c-2-2.51-3.395-5.76-4.217-8.897
	c-1.77-6.756-2.907-13.675-4.457-20.493c-3.882-17.088-10.093-33.118-21.469-46.783c-6.02-7.231-12.77-13.627-21.079-18.142
	c-3.195-1.736-6.577-3.33-10.066-4.285c-12.194-3.335-22.326,0.178-30.261,9.966c-7.372,9.093-10.658,19.919-12.54,31.177
	c-3.69,22.077-1.78,43.798,4.972,65.105c15.005,47.355,44.55,83.686,85.284,111.202c12.397,8.375,25.75,15.331,38.627,23
	c2.849,1.697,5.811,3.365,8.235,5.578c4.024,3.676,3.531,10.174-1.137,12.871c-3.396,1.962-7.285,3.318-11.124,4.223
	c-28.335,6.675-57.097,9.278-86.191,9.298c-25.324,0.017-50.596-1.097-75.826-2.877c-39.547-2.79-78.845-7.66-117.888-14.745
	c-24.574-4.459-49.062-9.236-73.329-15.114c-39.849-9.652-79.146-21.093-117.162-36.625c-5.835-2.384-11.744-4.583-18.395-7.17
	c-0.189,2.102-0.71,3.658-0.392,5.017c3.872,16.556,8.146,32.988,15.888,48.278c1.352,2.67,2.715,5.366,3.7,8.181
	c1.079,3.081,0.315,5.927-2.227,8.138c-2.814,2.448-5.734,2.733-9.188,0.848c-1.166-0.636-2.321-1.336-3.351-2.168
	c-17.363-14.018-35.642-26.889-52.101-42.045c-11.557-10.642-21.946-22.343-31.732-34.554
	c-14.609-18.23-27.401-37.746-38.625-58.223c-9.64-17.588-17.356-35.992-21.214-55.823c-0.435-2.236-1.115-4.424-1.82-7.175
	c-3.592,1.207-6.665,2.324-9.79,3.274c-14.329,4.354-28.714,8.531-42.987,13.063c-4.508,1.431-7.882,0.482-10.567-3.097
	c-5.581-7.44-11.449-14.709-16.456-22.525c-12.429-19.401-21.994-40.34-31.744-61.153c-12.727-27.168-23.918-54.965-33.61-83.362
	c-0.957-2.804-2.071-5.553-3.193-8.543c-2.289,0-4.318-0.426-6.096,0.064c-28.052,7.725-56.97,10.48-85.594,14.834
	c-24.353,3.705-48.799,6.845-73.254,9.826c-17.184,2.094-34.454,3.47-51.679,5.229c-8.613,0.88-17.248,1.649-25.807,2.916
	c-10.679,1.581-20.568,0.534-29.135-6.738c-0.725-0.615-1.784-0.837-3.218-1.479c-0.938,1.635-2.146,3.179-2.782,4.932
	c-16.501,45.483-29.089,92.018-37.783,139.626c-3.766,20.62-7.946,41.167-12.193,61.695c-2.712,13.106-7.186,25.649-13.517,37.483
	c-0.943,1.762-1.95,3.491-2.993,5.196c-8.281,13.546-16.368,16.709-33.094,13.172c-7.569-1.601-14.522-5.104-20.485-10.02
	c-7.698-6.347-15.443-12.738-22.406-19.855c-24.228-24.765-48.315-49.674-72.095-74.869c-21.27-22.535-41.687-45.84-61.671-69.54
	c-26.409-31.32-52.453-62.925-77.327-95.477c-24.932-32.63-46.776-67.245-65.844-103.618
	c-12.694-24.213-24.261-48.925-33.725-74.599c-9.129-24.765-16.653-49.998-19.321-76.319c-2.418-23.85-4.439-47.867-0.652-71.746
	c2.974-18.757,7.104-37.316,15.764-54.497c0.885-1.757,1.586-3.607,2.502-5.712c-3.619-5.773-8.931-9.896-13.463-14.637
	c-15.88-16.613-32.15-32.854-48.02-49.477c-18.865-19.758-37.615-39.63-56.147-59.7c-19.208-20.802-38.203-41.805-57.094-62.896
	c-16.668-18.609-33.235-37.313-49.532-56.246c-16.295-18.931-32.478-37.971-48.212-57.368
	c-26.854-33.104-53.745-66.195-79.811-99.918c-20.359-26.339-39.49-53.628-59.168-80.494c-3.339-4.558-6.687-9.109-9.832-13.393
	c-3.498-0.677-4.361,1.909-5.715,3.626c-16.558,21.009-30.483,43.682-42.586,67.506c-6.487,12.77-13.003,25.524-19.552,38.262
	c-1.217,2.367-2.332,4.906-4.064,6.86c-2.62,2.954-5.429,5.95-8.713,8.065c-7.406,4.771-14.098,3.292-18.744-4.055
	c-4.805-7.598-9.179-15.468-13.733-23.223c-22.96-39.097-43.507-79.465-62.997-120.372
	c-30.411-63.825-56.479-129.402-78.395-196.615c-6.814-20.899-13.225-41.951-17.689-63.497c-3.986-19.241-7.723-38.578-6.605-58.406
	c0.562-9.973,1.351-19.889,4.505-29.542c3.257-9.969,7.796-19.089,14.7-27.007c1.301-1.492,2.46-3.108,4.044-5.125
	c-1.975-3.806-3.959-7.596-5.915-11.401c-7.457-14.509-15.18-28.89-22.282-43.57c-8.042-16.622-13.296-34.132-13.79-52.742
	c-0.115-4.327-1.706-7.596-4.101-10.882c-20.379-27.958-35.333-58.691-46.86-91.219c-5.686-16.046-10.797-32.249-13.259-49.104
	c-3.619-24.783-5.176-49.629-1.586-74.639c1.644-11.45,5.952-21.887,11.149-31.867c3.317-6.369,8.672-11.48,14.787-15.913
	c13.304-9.644,28.2-14.862,44.041-17.936c24.283-4.713,48.742-7.429,73.518-5.566c6.624,0.498,13.249,1.27,19.805,2.34
	c24.019,3.919,47.78,8.897,70.872,16.831c13.899,4.775,27.321,10.615,40.515,16.992c3.765,1.82,7.313,2.777,11.466,2.116
	c18.485-2.942,36.546-0.185,54.205,5.066c17.864,5.311,35.498,11.396,53.234,17.137c1.561,0.505,3.134,0.974,4.867,1.51
	c1.081-0.998,2.184-1.77,2.975-2.784c10.883-13.972,25.372-22.405,42.172-27.003c16.453-4.502,33.211-6.527,50.354-6.602
	c22.402-0.098,44.562,2.075,66.663,5.168c21.089,2.952,42.205,5.859,63.146,9.678c23.24,4.239,46.327,9.34,69.423,14.335
	c36.14,7.817,71.842,17.363,107.282,27.882c46.312,13.746,92.116,28.984,136.968,46.992c1.545,0.621,3.158,1.088,4.664,1.789
	c6.104,2.842,8.455,8.152,6.803,14.805c-1.612,6.491-5.593,11.297-10.73,15.224c-7.145,5.461-14.469,10.689-21.614,16.15
	c-14.023,10.717-28.313,21.123-41.863,32.412c-13.279,11.063-25.916,22.926-36.852,36.162c0.461,3.746,3.539,4.068,5.738,5.177
	c27.065,13.649,54.307,26.954,81.235,40.867c42.327,21.87,83.884,45.167,124.975,69.266c31.894,18.706,63.774,37.472,95.065,57.157
	c44.551,28.027,88.866,56.455,132.704,85.583c37.727,25.068,74.642,51.358,111.926,77.093
	C1486.87,796.307,1488.32,797.074,1489.886,798.015z M1447.589,786.348c-3.078-2.403-5.541-4.567-8.235-6.39
	c-33.935-22.962-67.658-46.25-101.93-68.699c-38.171-25.003-76.624-49.592-115.365-73.701
	c-46.377-28.861-93.563-56.391-141.304-82.941c-24.737-13.757-49.573-27.37-74.752-40.293
	c-59.858-30.724-120.52-59.813-181.612-88.002c-55.65-25.678-111.89-49.994-168.929-72.417
	c-54.841-21.558-109.74-42.976-164.8-63.967c-18.957-7.227-38.386-13.27-57.769-19.309c-14.075-4.385-28.704-5.745-43.435-5.415
	c-3.601,0.081-7.186,0.889-10.806,1.367c-0.831,2.363-1.742,4.168-2.094,6.076c-2.973,16.103-7.91,31.635-13.797,46.86
	c-7.947,20.551-18.298,39.946-29.201,59.041c-6.945,12.162-14.313,24.057-24.893,33.551c-0.725,0.651-1.139,1.635-1.779,2.397
	c-4.055,4.835-7.757,10.042-12.289,14.382c-6.962,6.668-14.33,12.945-21.824,19.021c-24.672,20.002-50.736,37.818-80.218,50.154
	c-5.473,2.29-10.88,4.738-16.464,7.177c-0.499,6.706-0.254,12.942,0.895,19.203c2.918,15.906,9.236,30.568,16.449,44.86
	c14.863,29.448,31.298,58.036,48.103,86.404c19.015,32.098,38.398,63.978,57.427,96.068c27.871,47,56.877,93.292,87.178,138.751
	c22.722,34.087,45.963,67.836,69.448,101.402c21.003,30.018,42.347,59.81,64.12,89.274c18.008,24.37,36.704,48.238,55.392,72.095
	c12.932,16.508,26.244,32.724,39.619,48.878c13.595,16.419,27.396,32.669,41.251,48.869c15.798,18.472,31.451,37.081,47.708,55.144
	c29.637,32.932,59.501,65.664,89.6,98.173c21.273,22.976,43.083,45.454,64.682,68.128c1.075,1.129,2.417,2.004,4.179,3.441
	c1.173-1.903,2.21-3.154,2.79-4.59c9.373-23.193,20.851-45.374,32.277-67.588c18.305-35.589,38.433-70.121,61.188-103.025
	c16.477-23.826,33.673-47.174,51.096-70.322c22.638-30.076,45.608-59.908,68.852-89.518c12.125-15.445,24.983-30.327,37.798-45.216
	c16.946-19.688,33.859-39.421,51.361-58.61c21.321-23.375,43.168-46.273,64.919-69.253c28.397-30.003,57.572-59.209,88.788-86.327
	c25.17-21.865,51.309-42.499,78.37-61.947C1414.985,808.466,1430.78,797.94,1447.589,786.348z M1286.886,1853.26
	c1.774-0.716,3.083-1.065,4.21-1.725c33.737-19.73,65.558-42.198,94.986-67.904c26.338-23.007,52.292-46.454,77.465-70.753
	c23.01-22.211,46.184-44.251,69.275-66.378c21.422-20.528,41.448-42.391,61.028-64.646c16.717-19.001,33.043-38.35,49.338-57.717
	c14.366-17.074,28.646-34.229,42.614-51.629c25.256-31.462,48.175-64.626,70.784-98.014c25.966-38.345,51.884-76.713,76.373-116.037
	c20.848-33.478,38.424-68.543,52.983-105.156c1.092-2.747,1.886-5.614,2.965-8.866c-2.229-2.143-4.295-4.25-6.488-6.217
	c-24.796-22.245-49.481-44.615-74.457-66.657c-26.224-23.143-52.402-46.357-79.197-68.829
	c-33.949-28.471-68.296-56.479-102.843-84.224c-41.829-33.593-84.815-65.688-128.276-97.139c-2.083-1.507-4.466-2.6-6.875-3.98
	c-6.203,4.647-11.981,9.128-17.913,13.395c-38.412,27.629-75.955,56.363-111.965,87.089c-19.014,16.224-37.525,32.987-55.318,50.523
	c-26.576,26.191-52.516,53.009-77.51,80.719c-24.762,27.451-49.531,54.902-73.863,82.732
	c-12.708,14.535-24.627,29.772-36.649,44.892c-17.415,21.902-34.786,43.844-51.843,66.024
	c-30.068,39.099-59.188,78.872-84.603,121.23c-16.625,27.708-32.995,55.555-47.645,84.379
	c-6.641,13.066-13.471,26.035-20.154,39.079c-4.531,8.844-8.956,17.742-13.596,26.947
	c63.121,63.323,128.646,123.386,195.792,181.716C1157.875,1750.299,1222.323,1801.934,1286.886,1853.26z M2152.783,1605.706
	c-0.927,2.243-1.541,3.432-1.92,4.693c-8.66,28.756-20.053,56.463-32.172,83.89c-11.446,25.903-22.99,51.796-37.72,76.026
	c-13.144,21.62-26.944,42.85-40.82,64.013c-10.067,15.354-22.019,29.35-34.553,42.673c-22.849,24.286-47.866,46.315-73.67,67.417
	c-20.395,16.678-42.163,31.474-64.197,45.865c-26.222,17.126-52.765,33.725-81.139,47.16c-3.873,1.834-7.737,3.685-11.874,5.656
	c0.222,2.63,0.218,4.932,0.636,7.156c2.474,13.17,7.055,25.639,12.644,37.782c10.788,23.44,25.119,44.654,40.622,65.151
	c17.384,22.983,37.36,43.369,60.487,60.614c1.825,1.361,3.762,2.571,6.646,4.529c-0.325-2.659-0.353-4.2-0.717-5.658
	c-2.582-10.332-5.305-20.629-7.814-30.978c-0.701-2.89-1.106-5.913-1.165-8.884c-0.105-5.276,2.813-8.928,8.035-9.825
	c2.537-0.436,5.348-0.343,7.844,0.278c4.186,1.042,8.239,2.645,12.315,4.104c19.745,7.062,39.314,14.661,59.25,21.131
	c41.527,13.479,83.971,23.395,126.878,31.427c39.649,7.423,79.573,12.87,119.76,15.995c32.865,2.556,65.807,4.507,98.821,3.452
	c17.993-0.575,35.915-1.951,53.585-5.597c1.713-0.353,3.283-1.397,5.983-2.59c-4.697-2.826-8.342-5.067-12.032-7.231
	c-23.414-13.734-44.824-29.915-62.972-50.299c-16.765-18.831-30.583-39.48-40.061-62.883
	c-10.526-25.988-15.923-52.853-12.966-81.023c1.548-14.749,5.272-28.865,13.209-41.527c9.383-14.968,22.69-23.216,40.803-22.102
	c7.734,0.475,14.983,3.013,21.739,6.808c10.885,6.114,20.142,14.131,27.788,24.011c8.865,11.456,15.403,24.101,19.514,37.997
	c0.472,1.596,0.753,3.323,1.577,4.721c0.811,1.374-0.035,3.84,2.846,4.494c0.962-16.067-0.247-31.611-2.837-47.078
	c-3.804-22.716-10.204-44.758-16.969-66.735c-11.608-37.714-26.527-73.94-46.846-107.858c-2.731-4.559-4.951-9.431-7.276-14.221
	c-0.864-1.78-1.602-3.694-1.969-5.629c-1.567-8.255,2.709-14.7,10.977-15.984c3.555-0.552,7.388-0.521,10.909,0.177
	c5.853,1.16,11.689,2.711,17.29,4.758c7.497,2.739,14.76,6.114,22.13,9.202c1.422,0.596,2.919,1.804,4.434-0.706
	c-9.795-19.058-21.017-37.506-34.045-54.833c-17.684-23.519-38.298-44.332-59.76-64.349c-25.716-23.984-54.753-43.433-84.531-61.864
	c-9.129-5.65-19.026-9.565-29.357-12.369C2157.948,1606.07,2155.62,1606.056,2152.783,1605.706z M1966.98,1474.142
	c-89.03,155.415-203.211,290.008-342.67,403.446c4.747,12.456,9.289,24.569,13.972,36.626c10.136,26.094,21.922,51.46,34.033,76.678
	c0.941,1.96,2.589,3.58,4.159,5.696c6.598-2.793,12.764-5.23,18.786-7.982c24.912-11.384,48.46-25.234,70.95-40.767
	c20.82-14.38,41.164-29.456,61.565-44.434c29.278-21.496,58.021-43.679,84.67-68.428c12.929-12.007,26.028-23.884,36.879-37.911
	c19.204-24.826,36.01-51.272,50.902-78.825c18.205-33.682,35.733-67.741,52.952-101.939c13.793-27.395,25.182-55.846,33.953-85.279
	c2.548-8.55,4.578-17.249,6.236-25.825C2079.711,1497.375,1984.681,1474.036,1966.98,1474.142z M2020.607,1132.538
	c2.444-0.928,4.303-1.588,6.126-2.335c8.624-3.531,17.159-7.299,25.873-10.592c23.974-9.058,48.086-17.75,72.012-26.932
	c11.169-4.286,22.191-9.037,32.983-14.197c8.403-4.017,16.166-9.217,22.928-15.803c3.568-3.475,4.269-7.387,2.73-11.843
	c-2.216-6.417-5.918-11.973-10.9-16.51c-4.916-4.478-9.937-8.922-15.353-12.759c-37.22-26.367-74.429-52.777-112.923-77.26
	c-29.206-18.576-58.754-36.636-88.505-54.328c-23.455-13.948-47.247-27.365-71.253-40.345
	c-46.74-25.272-96.011-44.43-147.049-59.045c-15.662-4.485-31.462-8.551-47.621-10.94c-1.825-0.27-3.723-0.036-6.254-0.036
	c12.841,54.048,17.443,108.013,10.514,162.381c13.434,5.515,26.546,10.343,39.188,16.187
	c42.907,19.832,85.528,40.223,126.503,63.932c34.884,20.185,69.787,40.296,102.215,64.345
	C1981.598,1101.124,2001.5,1115.642,2020.607,1132.538z M893.33,1710.14c1.071,3.651,1.647,6.571,2.767,9.266
	c5.876,14.133,11.501,28.39,17.925,42.274c26.578,57.435,60.541,110.241,100.718,159.081c16.285,19.796,32.556,39.609,49.12,59.17
	c15.491,18.294,31.127,36.477,47.117,54.335c31.333,34.992,64.221,68.521,97.227,101.923c5.82,5.89,12.375,11.145,19.062,16.05
	c3.657,2.682,8.135,4.617,12.534,5.837c9.065,2.513,11.577,1.24,16.358-6.844c5.283-8.934,9.558-18.371,11.972-28.454
	c3.56-14.87,6.878-29.81,9.806-44.816c5.862-30.047,11.163-60.207,18.921-89.855c0.235-0.898,0.03-1.911,0.03-2.9
	c-1.102-1.026-2.026-1.97-3.034-2.813c-22.77-19.028-44.072-39.632-64.82-60.804c-27.062-27.615-51.264-57.72-75.567-87.722
	c-19.924-24.595-38.253-50.379-56.31-76.352c-14.062-20.227-28.451-40.256-39.803-62.223c-0.273-0.527-0.999-0.821-1.833-1.473
	C1002.98,1709.476,948.965,1713.707,893.33,1710.14z M1352.926,1902.506c10.727-6.445,21.649-12.255,31.754-19.244
	c17.8-12.311,35.275-25.112,52.576-38.121c31.149-23.421,61.632-47.685,91.61-72.6c31.556-26.226,61.251-54.431,90.584-83.066
	c38.921-37.995,74.334-79.135,108.882-121.044c27.365-33.195,52.491-68.062,76.595-103.683
	c19.054-28.158,37.325-56.81,53.891-86.494c19.154-34.322,38.082-68.778,56.513-103.492c9.829-18.512,19.263-37.295,26.42-57.084
	c2.135-5.903,4.453-11.753,5.893-17.543c-12.423-15.057-40.305-40.787-48.64-44.866c-0.474,1.23-0.94,2.432-1.402,3.636
	c-8.114,21.15-16.465,42.184-27.052,62.273c-15.086,28.624-31.895,56.229-49.767,83.152c-26.347,39.69-53.248,79.012-79.959,118.46
	c-21.135,31.213-44.57,60.689-68.582,89.689c-20.178,24.37-40.921,48.275-61.53,72.286c-27.579,32.132-57.011,62.525-87.619,91.748
	c-29.641,28.3-59.665,56.202-89.712,84.073c-22.481,20.853-45.621,40.968-70.008,59.587c-18.296,13.968-37.555,26.493-57.633,37.768
	c-2.131,1.197-5.28,1.576-5.646,4.909C1309.332,1872.238,1339.41,1894.938,1352.926,1902.506z M1708.216,2051.613
	c9.435-3.171,18.247-6.096,27.035-9.094c21.149-7.215,41.74-15.736,61.336-26.538c36.218-19.964,70.684-42.686,104.184-66.864
	c30.316-21.879,57.733-47.187,84.609-73.083c12.734-12.27,24.605-25.349,34.615-39.936c12.433-18.118,24.654-36.394,36.477-54.914
	c7.517-11.774,14.49-23.931,21.1-36.241c15.452-28.775,28.228-58.809,41.116-88.789c16.808-39.098,27.579-79.822,33.473-121.901
	c0.367-2.621,1.03-5.274-0.945-7.906c-13.991-7.171-28.51-13.665-44.494-18.074c-0.936,3.551-1.828,6.708-2.592,9.896
	c-0.93,3.878-1.605,7.822-2.644,11.669c-8.182,30.302-19.324,59.55-32.993,87.74c-14.233,29.353-29.314,58.298-44.205,87.329
	c-12.777,24.91-27.123,48.915-42.669,72.198c-10.551,15.803-21.921,30.968-34.972,44.83c-19.677,20.901-41.161,39.841-63.596,57.657
	c-17.98,14.278-36.689,27.633-54.894,41.633c-23.25,17.88-47.063,34.94-72.145,50.157c-22.214,13.477-44.74,26.393-69.353,35.173
	c-1.523,0.543-2.904,1.487-4.811,2.485C1688.752,2024.234,1697.662,2037.751,1708.216,2051.613z M919.399,455.643
	c9.244-9.82,17.476-18.969,26.142-27.687c16.49-16.588,35.482-30.173,54.078-44.211c8.233-6.215,16.652-12.184,24.94-18.327
	c2.29-1.697,4.857-3.325,4.914-6.995c-2.67-1.158-5.068-2.281-7.525-3.251c-33.44-13.2-67.326-25.108-101.696-35.678
	c-32.117-9.877-64.313-19.423-96.921-27.581c-35.193-8.804-70.716-16.062-106.27-23.187c-2.136-0.428-4.433-0.055-6.508-0.055
	c-2.524,9.538-4.412,18.686-7.413,27.452c-3.116,9.1-6.781,18.103-11.184,26.644c-4.219,8.185-9.694,15.723-14.565,23.463
	c0.587,0.713,0.888,1.439,1.4,1.647C760.168,381.015,840.14,417.297,919.399,455.643z M231.09,832.814
	c0.475,4.351,2.133,8.005,3.566,11.649c11.572,29.424,22.922,58.94,34.97,88.169c17.776,43.125,38.696,84.786,60.11,126.193
	c12.392,23.961,25.728,47.397,39.776,70.426c0.928,1.522,2.26,2.797,3.583,4.406c3.832-3.502,5.423-7.594,7.421-11.38
	c8.388-15.901,16.65-31.867,25.037-47.768c11.689-22.164,25.139-43.134,42.082-61.725c0.873-0.958,1.424-2.211,2.281-3.576
	c-0.851-1.451-1.583-2.911-2.506-4.24c-8.923-12.852-18.01-25.592-26.795-38.537c-19.068-28.096-38.316-56.079-56.877-84.509
	c-19.289-29.547-37.844-59.574-56.764-89.363c-1.145-1.803-2.678-3.361-4.541-5.664C282.893,809.502,258.189,822.792,231.09,832.814
	z M340.388,337.829c-1.031-1.302-1.689-2.484-2.657-3.299c-8.641-7.283-17.012-14.94-26.087-21.641
	c-15.859-11.711-33.519-20.363-51.432-28.456c-27.637-12.486-55.868-23.296-85.631-29.613c-13.33-2.829-26.795-4.523-40.486-4.42
	c-9.646,0.073-16.084,7.302-14.171,16.121c1.267,5.844,2.006,11.813,3.479,17.6c5.284,20.772,14.155,40.125,24.342,58.854
	c13.689,25.168,29.167,49.205,46.858,71.785c11.36,14.5,24.615,27.046,39.182,38.244c1.762,1.354,3.812,2.334,5.727,3.486
	c22.369-14.998,43.123-31.303,60.094-51.419C316.561,384.973,329.234,361.841,340.388,337.829z M1458.977,794.537
	c-8.123,5.146-16.085,9.974-23.827,15.133c-26.356,17.561-51.512,36.743-76.138,56.641c-29.042,23.467-57.048,48.107-83.002,74.948
	c-29.635,30.648-59.017,61.549-88.041,92.776c-21.99,23.659-43.683,47.626-64.716,72.135
	c-23.862,27.808-46.548,56.604-68.527,85.944c-24.165,32.258-48.589,64.323-72.575,96.714c-18.65,25.186-35.199,51.77-50.801,78.941
	c-16.092,28.023-31.673,56.323-45.228,85.678c-4.999,10.826-10.207,21.606-13.483,33.227c5.444,6.942,11.482,12.831,18.596,18.285
	c2.182-4.11,4.091-7.604,5.908-11.146c13.829-26.966,27.324-54.109,41.537-80.871c17.192-32.371,35.84-63.912,56.281-94.365
	c22.665-33.767,47.054-66.283,71.921-98.433c29.957-38.73,60.654-76.875,92.869-113.765c15.556-17.813,31.289-35.474,47.137-53.028
	c10.712-11.865,21.865-23.33,32.646-35.134c24.946-27.317,50.963-53.584,78.01-78.8c13.39-12.484,27.543-24.154,41.443-36.084
	c24.025-20.622,49.197-39.795,74.632-58.62c14.191-10.503,28.606-20.703,42.855-31.128c1.43-1.046,2.414-2.702,3.879-4.39
	c-5.959-4.353-11.31-8.299-16.712-12.175C1462.582,796.26,1461.328,795.774,1458.977,794.537z M1745.4,1745.756
	c20.722-18.63,104.051-116.291,111.268-131.801c-8.999-18.62-59.206-84.287-72.077-94.121c-1.264,1.492-2.651,2.918-3.8,4.515
	c-26.292,36.55-55.262,70.945-84.922,104.747c-16.906,19.267-34.653,37.796-51.991,56.684c-1.239,1.35-2.227,2.929-3.531,4.669
	C1674.742,1710.938,1708.509,1730.917,1745.4,1745.756z M1053.566,1678.966c-2.389-2.38-4.164-4.287-6.082-6.036
	c-25.319-23.091-50.935-45.865-75.917-69.316c-25.461-23.901-50.295-48.469-75.435-72.712c-1.56-1.504-3.394-2.724-5.218-4.17
	c-0.907,1.37-1.624,2.129-1.976,3.03c-8.283,21.209-13.832,43.063-14.605,65.903c-0.928,27.422,2.697,54.427,8.452,81.161
	c1.379,6.406,2.841,12.903,5.755,18.809c2.722,0.63,4.956,1.31,7.24,1.633c2.629,0.371,5.3,0.49,7.957,0.607
	c31.993,1.413,63.812-0.276,95.492-5.041c16.48-2.479,32.84-5.333,48.538-11.134
	C1049.526,1681.052,1051.173,1680.106,1053.566,1678.966z M1502.663,805.755c0.161,0.938,0.104,1.379,0.277,1.507
	c58.92,43.497,117.306,87.688,174.179,133.848c0.231,0.187,0.608,0.256,0.92,0.265c0.324,0.01,0.651-0.12,1.659-0.332
	c1.017-6.563,2.297-13.354,3.086-20.202c1.874-16.268,0.994-32.609,0.568-48.902c-0.619-23.661-3.804-47.09-8.071-70.349
	c-1.55-8.448-3.133-16.958-6.841-25.3c-5.533-0.772-11.072-1.965-16.657-2.251c-22.631-1.159-45.224-0.741-67.752,2.119
	c-26.789,3.401-51.822,11.871-75.142,25.439C1506.659,802.896,1504.584,804.464,1502.663,805.755z M1523.934,1795.428
	c42.003,16.864,82.421,32.877,124.893,41.766c19.822-14.177,77.055-68.229,85.201-80.434c-17.473-8.899-35.151-17.376-52.314-26.791
	c-17.434-9.564-34.361-20.054-51.878-30.355C1596.17,1732.846,1561.652,1764.517,1523.934,1795.428z M1793.649,1508.065
	c12.435,14.928,25.311,29.688,37.387,45.077c12.265,15.631,23.74,31.881,35.914,48.336c24.032-31.228,45.406-63.625,65.189-97.184
	c-16.044-41.035-38.29-78.349-60.931-115.303c-0.875,0.227-1.37,0.204-1.495,0.408c-23.912,39.147-48.25,78.017-74.809,115.45
	C1794.363,1505.613,1794.192,1506.639,1793.649,1508.065z M1700.673,960.386c28.409,24.241,55.867,46.806,82.545,70.269
	c26.507,23.313,52.975,46.675,79.215,70.288c26.45,23.801,52.599,47.936,79.052,72.081c21.329-11.196,42.458-22.286,64.293-33.748
	c-2.684-2.354-4.572-4.191-6.641-5.793c-10.009-7.75-19.895-15.676-30.147-23.093c-16.995-12.296-33.759-25.009-51.484-36.174
	c-27.042-17.035-54.53-33.415-82.374-49.106c-24.067-13.562-48.771-26.018-73.428-38.499c-16.031-8.114-32.47-15.423-48.758-23.025
	C1709.713,962.078,1706.461,960.412,1700.673,960.386z M1075.105,1697.591c-0.306,0.232-0.612,0.464-0.918,0.696
	c0.507,1.08,0.893,2.238,1.539,3.227c6.364,9.761,12.448,19.725,19.229,29.19c17.252,24.081,34.285,48.349,52.412,71.763
	c18.131,23.418,37.539,45.845,56.283,68.793c14.983,18.344,31.221,35.526,48.129,52.07c13.563,13.271,27.456,26.206,41.253,39.237
	c2.381,2.249,5.015,4.232,8.023,6.749c4.03-7.702,5.237-15.614,7.828-23.025c2.746-7.857,5.434-15.74,7.875-23.696
	c2.313-7.54,5.972-14.695,7.023-22.325c-28.369-22.425-56.419-44.381-84.225-66.641c-27.819-22.269-55.574-44.625-83.026-67.344
	C1129.173,1743.646,1102.229,1720.509,1075.105,1697.591z M1380.79,1904.096c1.299,0,2.612,0.125,3.895-0.019
	c19.16-2.146,38.321-4.29,57.472-6.516c11.565-1.345,23.144-2.624,34.664-4.298c30.93-4.496,61.872-8.938,92.725-13.924
	c12.778-2.065,25.367-5.351,37.979-8.345c2.814-0.668,5.694-2.021,7.975-3.791c5.776-4.483,11.271-9.334,16.778-14.152
	c1.148-1.005,1.865-2.503,3.275-4.459c-42.733-10.972-82.999-26.365-122.551-44.211
	C1469.523,1838.227,1426.555,1872.748,1380.79,1904.096z M1941.31,1487.61c0.783-0.425,1.586-0.587,1.884-1.063
	c4.587-7.327,9.197-14.642,13.574-22.094c0.957-1.63,1.292-3.759,1.458-5.697c0.795-9.278,2.083-18.573,2.014-27.854
	c-0.281-38.245-0.619-76.498-1.665-114.728c-0.781-28.59-2.67-57.15-4.118-85.721c-0.04-0.782-0.681-1.535-1.297-2.845
	c-8.114,16.977-15.702,33.489-23.849,49.72c-8.356,16.646-17.198,33.05-25.938,49.501c-8.565,16.12-17.271,32.165-26.049,48.493
	c12.973,17.209,23.274,35.861,33.759,54.339C1921.739,1448.442,1931.121,1467.944,1941.31,1487.61z M227.797,464.573
	c-6.846-5.976-12.968-11.002-18.715-16.426c-5.801-5.475-11.485-11.121-16.752-17.105c-5.268-5.985-10.086-12.383-14.864-18.776
	c-4.778-6.394-9.416-12.907-13.835-19.554c-4.605-6.926-8.998-14.001-13.255-21.147c-4.086-6.859-8.017-13.819-11.762-20.87
	c-3.744-7.049-7.398-14.164-10.676-21.436c-3.279-7.272-6.019-14.786-9.043-22.174c-2.961-7.236-3.809-15.258-8.209-23.55
	c-0.657,4.159-1.257,6.758-1.454,9.387c-1.519,20.309-0.378,40.551,1.828,60.747c0.467,4.281,1.43,8.517,2.317,12.742
	c3.503,16.668,9.265,32.626,15.301,48.5c9.021,23.727,20.194,46.358,34.367,67.452c2.379,3.541,4.42,7.418,8.476,10.453
	C190.783,485.615,209.244,476.726,227.797,464.573z M345.662,324.188c7.624-11.647,18.052-46.322,18.345-60.513
	c-1.22-0.751-2.526-1.809-4.013-2.428c-11.357-4.731-22.645-9.652-34.155-13.98c-14.97-5.629-30.565-9.057-46.181-12.446
	c-30.496-6.618-61.115-9.402-92.144-4.485c-10.176,1.612-20.476,2.559-30.388,5.575c-2.424,0.738-4.759,1.77-8.848,3.313
	c3.147,0.601,4.367,0.915,5.607,1.058c14.22,1.64,28.344,3.95,42.105,7.868c28.854,8.215,56.806,18.852,83.743,32.124
	c15.85,7.809,31.329,16.228,45.303,27.134C331.842,312.72,338.442,318.299,345.662,324.188z M207.688,761.807
	c18.18-2.656,48.368-20.071,59.922-34.214c-18.057-30.727-36.194-61.6-54.366-92.453c-0.623-1.058-1.613-1.901-2.363-2.764
	c-0.951,0.459-1.7,0.597-2.08,1.047c-1.066,1.262-2.038,2.616-2.946,3.999c-8.713,13.272-11.146,28.222-11.614,43.688
	c-0.557,18.41,2.501,36.383,6.726,54.193C203.026,743.989,205.347,752.612,207.688,761.807z M635.803,257.427
	c-1.377-0.359-2.619-0.895-3.891-0.981c-14.27-0.959-28.533-2.197-42.821-2.656c-13.662-0.439-27.299,0.721-40.591,4.128
	c-6.416,1.645-12.78,3.731-18.885,6.293c-8.345,3.502-15.35,8.974-21.35,16.621c33.305,13.146,66.007,26.064,98.727,38.938
	c1.803,0.709,3.751,1.049,5.423,1.505c7.862-8.695,13.159-19.166,19.827-40.27C634.621,273.482,637.375,265.866,635.803,257.427z
	 M226.688,819.838c21.617-3.652,57.254-27.676,68.746-46.387c-6.471-10.816-13.095-21.887-19.982-33.397
	c-19.669,15.011-39.565,28.113-62.984,34.245C213.276,782.401,221.619,809.062,226.688,819.838z M626.279,327.076
	c12.45,5.231,24.336,10.149,36.215,14.237c17.516-16.96,33.627-52.997,33.905-75.179c-6.838-2.59-34.888-6.832-46.373-6.927
	c-1.556,7.567-2.674,15.394-4.851,22.915c-2.209,7.633-5.226,15.063-8.324,22.398C633.765,311.825,630.139,318.901,626.279,327.076z
	 M908.861,1108.494c-63.096-1.154-117.112-23.073-159.022-71.244c-28.865-33.177-43.788-72.166-43.572-116.275
	c0.214-43.751,15.363-82.248,44.323-114.93c33.924-38.284,76.931-59.79,127.477-66.234c47.143-6.01,91.613,2.639,132.955,26.09
	c33.902,19.231,60.169,46.055,77.682,81.071c30.757,61.492,22.623,134.568-21.01,187.797
	c-30.097,36.717-68.909,59.149-115.102,69.127C938.22,1107,923.659,1108.606,908.861,1108.494z M902.221,752.487
	c-8.974,0.979-21.012,1.545-32.756,3.705c-46.301,8.515-85.186,30.237-114.197,67.693c-31.253,40.351-41.293,85.918-29.435,135.663
	c9.15,38.384,30.531,69.326,61.682,93.103c46.13,35.21,98.302,47.527,155.428,37.827c41.706-7.082,77.443-25.918,106.239-57.111
	c24.99-27.071,39.641-59.06,42.579-95.864c3.205-40.143-7.495-76.718-31.777-108.757
	C1021.244,777.631,968.342,754.612,902.221,752.487z M539.944,411.342c57.79,0.875,108.495,19.713,149.468,61.179
	c38.083,38.542,56.4,85.257,52.225,139.622c-3.348,43.606-21.725,80.749-52.818,111.334
	c-33.503,32.956-74.087,51.397-120.656,56.836c-44.704,5.221-87.054-2.702-126.56-24.124
	c-41.953-22.748-73.039-55.833-89.306-101.075c-20.347-56.591-13.204-110.465,21.032-159.84
	c29.652-42.765,71.461-67.953,121.926-79.216C509.942,412.782,524.848,411.323,539.944,411.342z M536.779,766.971
	c22.766-0.15,35.367-1.335,51.177-5.042c42.257-9.907,77.714-31.007,104.811-65.196c39.372-49.676,45.767-116.193,16.657-171.962
	c-16.485-31.582-40.657-55.889-71.7-73.161c-43.351-24.12-89.606-31.222-138.13-21.203c-42.824,8.842-78.993,29.618-106.832,63.692
	c-25.673,31.423-38.194,67.623-36.374,108.269c1.635,36.502,14.704,68.893,38.318,96.651
	C433.588,744.726,484.055,765.669,536.779,766.971z M1085.922,595.873c-0.079,9.791-2.602,17.228-7.739,23.674
	c-11.838,14.854-33.609,16.3-47.737,3.256c-14.378-13.275-15.331-36.173-2.088-50.164c11.682-12.341,29.887-13.932,43.381-3.627
	C1081.05,576.123,1085.422,585.82,1085.922,595.873z M1051.542,577.346c-12.074,0.264-20.483,12.692-16.891,24.964
	c3.154,10.777,14.178,16.984,24.022,13.524c8.725-3.066,13.787-12.765,11.81-22.625
	C1068.611,583.882,1060.571,577.148,1051.542,577.346z M244.532,589.806c-10.383-0.552-19.636-4.399-26.681-12.783
	c-10.613-12.63-10.152-30.63,0.993-42.782c14.146-15.422,39.367-14.975,52.968,0.938c12.893,15.084,9.606,37.754-7.102,48.674
	C258.722,587.767,252.065,589.589,244.532,589.806z M244.995,537.327c-3.149,0.817-5.816,1.183-8.212,2.191
	c-6.601,2.778-10.783,7.674-11.443,14.975c-0.698,7.717,2.711,13.524,9.243,17.392c6.11,3.618,12.688,3.895,19.09,1.007
	c6.471-2.919,10.565-7.956,11.021-15.316c0.482-7.775-3.122-13.509-9.771-17.068C251.814,538.844,248.111,538.288,244.995,537.327z
	 M765.292,1264.206c13.49,0.693,23.704,5.375,30.767,15.782c7.82,11.523,7.385,26.146-0.882,37.301
	c-13.794,18.612-43.14,18.452-56.747-0.31c-13.057-18.004-4.998-43.11,16.323-50.437
	C758.479,1265.261,762.49,1264.809,765.292,1264.206z M767.116,1316.261c12.635-0.074,21.648-10.642,19.026-22.306
	c-1.804-8.022-9.234-13.943-18.108-14.427c-9.445-0.516-17.636,4.734-20.168,12.927
	C744.127,1304.553,753.658,1316.341,767.116,1316.261z M864.834,488.177c-0.009,20.583-14.465,35.707-32.76,35.712
	c-17.656,0.004-32.732-14.507-33.948-32.676c-1.231-18.401,11.54-34.346,29.352-36.646c16.353-2.112,33.054,10.267,36.51,27.143
	C864.52,484.298,864.681,486.962,864.834,488.177z M850.042,490.039c0.086-6.869-3.095-13.337-8.447-17.172
	c-9.288-6.656-22.221-3.223-26.787,7.265c-2.497,5.737-2.485,11.642,0.111,17.391c3.623,8.022,12.178,12.678,20.225,11.135
	C843.773,507.001,849.925,499.312,850.042,490.039z M619.999,1078.443c0.02,17.678-13.612,35.737-36.676,34.572
	c-11.605-0.586-21.082-5.807-27.445-15.724c-7.32-11.409-7.623-23.258-0.365-34.729c7.865-12.43,19.783-17.687,34.112-15.845
	c14.325,1.842,24.42,9.872,28.921,23.978C619.541,1073.81,619.771,1077.169,619.999,1078.443z M585.07,1098.167
	c9.822-0.094,17.556-5.983,19.57-14.509c1.923-8.144-2.361-16.637-10.571-20.349c-6.778-3.064-13.638-2.859-19.994,1.109
	c-11.584,7.231-11.447,23.424,0.173,30.619C577.688,1097.169,581.467,1098.364,585.07,1098.167z M1327.958,746.174
	c-0.162,17.193-12.983,31.837-29.425,33.61c-16.743,1.805-33.142-10.279-36.493-27.2c-2.321-11.718-0.157-22.515,8.138-31.525
	c14.249-15.479,38.735-13.734,51.032,3.639C1325.731,731.086,1328.152,738.248,1327.958,746.174z M1295.108,764.973
	c9.739-0.21,17.321-8.04,17.958-18.215c0.625-9.974-6.668-19.563-15.994-21.034c-7.263-1.146-13.12,1.258-17.307,7.248
	c-4.812,6.885-5.119,14.25-1.238,21.617C1282.062,761.297,1287.809,764.75,1295.108,764.973z M450.489,910.063
	c-23.608,0.143-39.465-15.769-38.571-35.202c0.367-7.975,3.475-14.807,8.896-20.558c16.012-16.986,45.09-13.521,56.314,6.662
	c7.283,13.097,4.986,28.895-5.817,39.283C464.549,906.749,456.395,909.971,450.489,910.063z M466.351,876.561
	c-0.109-8.923-7.251-16.662-16.774-18.178c-10.359-1.648-20.445,5.096-22.55,15.078c-1.981,9.394,4.697,18.752,15.136,21.194
	c0.968,0.227,1.945,0.461,2.931,0.557C456.43,896.311,466.484,887.478,466.351,876.561z M518.568,336.063
	c0.182,21.414-16.932,37.011-37.538,34.212c-18.173-2.469-31.19-20.167-28.9-39.291c2.197-18.352,18.27-31.302,36.441-29.361
	C505.462,303.426,518.417,318.3,518.568,336.063z M503.853,334.756c-0.191-4.726-2.598-10.069-7.37-14.161
	c-8.613-7.386-20.807-5.502-26.576,4.281c-1.631,2.766-2.69,6.145-3.029,9.347c-1.173,11.075,7.91,21.407,18.627,21.65
	C495.607,356.103,503.917,347.258,503.853,334.756z M1432.79,1509.929c-0.115,43.474-8.43,74.282-26.792,102.031
	c-23.313,35.233-56.069,57.33-96.734,67.757c-36.445,9.344-72.635,7.14-108.498-3.589c-67.068-20.065-124.385-73.259-149.368-138.66
	c-9.756-25.538-14.61-51.938-13.151-79.269c2.257-42.272,17.532-79.058,47.834-109.014c25.214-24.926,55.853-39.509,90.657-45.126
	c41.999-6.779,82.419-0.546,120.87,17.265c53.445,24.756,93.065,63.711,117.49,117.533
	C1426.806,1464.653,1432.819,1491.839,1432.79,1509.929z M1261.852,1670.507c14.095,0.223,27.971-1.387,41.651-4.625
	c67.175-15.897,112.767-72.206,114.394-141.166c0.714-30.27-5.986-58.922-19.3-85.964c-25.095-50.967-64.486-86.899-116.954-108.052
	c-38.415-15.487-78.26-19.598-118.569-8.397c-52.811,14.675-88.256,48.205-104.052,101.017c-9.628,32.193-7.781,64.633,2.098,96.561
	c13.655,44.133,39.782,79.645,76.448,107.318C1174.265,1654.896,1215.573,1670.021,1261.852,1670.507z M1555.262,1336.904
	c-33.827-0.347-71.453-11.345-106.069-32.426c-45.265-27.567-78.434-65.563-97.771-115.173c-9.421-24.17-14.087-49.257-13.469-75.24
	c1.864-78.441,53.616-139.205,126.465-156.112c39.429-9.151,78.281-6.17,115.968,7.958
	c65.499,24.555,112.191,69.093,138.568,134.156c11.583,28.57,16.352,58.564,12.721,89.164
	c-7.735,65.189-42.001,110.91-103.141,135.724C1607.287,1333.577,1584.94,1336.945,1555.262,1336.904z M1499.075,967.724
	c-11.14-0.125-30.79,3.129-49.67,10.24c-44.158,16.634-74.302,47.137-89.143,92.073c-10.328,31.272-9.808,62.98-1.225,94.523
	c13.092,48.114,40.762,86.382,80.673,115.742c38.775,28.525,82.222,43.284,130.707,41.566c25.703-0.911,50.178-7.092,72.505-19.94
	c47.81-27.513,71.936-69.741,74.685-124.293c1.538-30.531-5.558-59.551-18.89-86.952c-21.894-44.996-55.674-78.408-100.184-100.952
	C1570.172,975.368,1540.022,967.88,1499.075,967.724z M2241.534,1899.884c-19.955-0.254-39.112,3.27-57.166,11.992
	c-15.034,7.263-27.231,17.704-36.332,31.854c-13.908,21.625-18.118,45.625-17.227,70.691c0.643,18.086,5.043,35.578,11.234,52.563
	c10.351,28.398,24.751,54.525,44.115,77.827c1.086,1.307,2.054,2.653,0.626,4.775c-2.32,0.236-4.922,0.621-7.537,0.745
	c-14.641,0.696-29.262,0.569-43.926-0.032c-28.79-1.18-55.834-8.829-81.636-21.083c-27.898-13.249-52.815-30.977-75.286-52.128
	c-19.333-18.197-35.802-38.535-46.504-63.108c-0.397-0.913-0.836-1.818-1.354-2.666c-1.576-2.577-3.675-3.692-5.673-3.083
	c-2.313,0.704-4.282,3.545-4.027,6.257c0.186,1.974,0.473,4.036,1.231,5.843c2.698,6.436,5.106,13.07,8.548,19.102
	c9.473,16.601,21.723,31.119,35.306,44.484c22.968,22.598,48.849,41.236,77.65,55.679c29.846,14.967,61.351,24.019,94.902,24.768
	c16.629,0.371,33.273,0.124,49.91,0.027c4.323-0.025,8.697-0.202,12.954-0.889c9.219-1.486,12.086-8.593,6.604-16.009
	c-1.375-1.86-3.135-3.437-4.723-5.139c-1.818-1.947-3.76-3.792-5.445-5.848c-20.053-24.489-35.042-51.78-45.031-81.807
	c-8.035-24.152-10.734-48.784-5.248-73.816c5.665-25.845,19.639-45.498,44.086-57.109c16.722-7.942,34.352-10.04,52.545-9.44
	c3.633,0.12,7.28,0.125,10.909-0.051c5.113-0.248,8.657-3.153,11.228-7.332c2.297-3.735,3.657-7.789,4.022-12.216
	c0.551-6.685,0.187-13.295-0.828-19.916c-4.851-31.632-17.205-60.051-36.714-85.336c-12.124-15.713-26.925-28.58-43.541-39.353
	c-2.17-1.407-4.811-2.187-7.332-2.927c-2.791-0.818-5.304,0.046-7.104,2.373c-1.694,2.19-1.755,6.001,0.286,8.403
	c1.681,1.977,3.87,3.605,6.052,5.059c10.855,7.229,21.012,15.309,29.998,24.766c22.401,23.577,36.162,51.647,42.812,83.319
	c1.507,7.174,2.682,14.448,1.769,21.822c-0.273,2.204-1.152,4.333-1.656,6.146
	C2249.502,1900.889,2245.484,1899.934,2241.534,1899.884z M1925.583,1651.618c13.409,0.67,23.43,5.374,31.351,14.115
	c8.006,8.835,8.281,20.987,0.703,28.894c-2.22,2.316-5.202,4.174-8.175,5.449c-15.92,6.83-34.498,0.934-43.805-13.399
	c-2.745-4.227-4.362-8.958-2.899-14.189c0.267-0.953,0.594-1.96,0.54-2.922c-0.564-9.969,5.882-14.184,13.997-16.721
	C1920.404,1651.873,1923.813,1651.861,1925.583,1651.618z M1917.954,1666.699c-0.604,2.688-1.435,5.222-1.654,7.808
	c-0.13,1.532,0.379,3.335,1.16,4.694c4.785,8.327,18.806,12.4,27.371,8.087c3.973-2.001,5.487-6.204,2.974-10.049
	c-1.762-2.696-4.159-5.224-6.811-7.043C1934.384,1665.661,1926.991,1664.384,1917.954,1666.699z M1846.445,1817.516
	c-0.548,2.114-1.175,6.45-2.794,10.379c-3.621,8.788-13.893,13.093-23.065,10.904c-15.87-3.788-28.233-23.133-27.213-39.76
	c0.248-4.04,1.34-7.936,3.998-11.064c1.451-1.708,3.278-3.443,5.3-4.244c3.985-1.579,8.163-2.835,12.373-3.644
	c6.742-1.296,12.367,1.9,17.434,5.727C1841.507,1792.631,1846.643,1803.905,1846.445,1817.516z M1832.455,1814.837
	c-0.111-7.033-2.404-12.14-7.162-16.966c-3.66-3.713-7.937-4.584-12.81-3.533c-3.734,0.805-5.886,3.356-5.529,7.117
	c0.787,8.284,4.026,15.439,10.714,20.648c3.188,2.483,6.715,4.697,10.956,2.363
	C1832.448,1822.36,1832.424,1818.546,1832.455,1814.837z M1989.772,1539.012c14.103,0.408,24.114,5.212,32.091,13.853
	c8.84,9.576,5.64,20.31-3.038,26.668c-13.271,9.723-33.038,8.481-45.151-2.641c-4.319-3.966-6.958-8.794-7.664-14.656
	c-0.969-8.045,2.599-15.362,9.69-19.094C1980.742,1540.489,1986.157,1538.95,1989.772,1539.012z M2013.875,1564.996
	c-6.653-9.532-15.337-13.14-25.946-12.201c-2.482,0.22-5.048,1.516-7.203,2.897c-2.833,1.817-3.052,4.952-1.121,7.739
	c3.854,5.561,9.321,8.327,15.909,8.731C2002.253,1572.576,2008.687,1571.735,2013.875,1564.996z M1713.247,1861.636
	c4.643-0.441,8.648,0.958,12.352,3.415c13.999,9.286,19.306,28.586,13.74,42.248c-0.995,2.441-2.173,4.929-3.802,6.968
	c-4.962,6.213-11.494,10.021-21.085,5.031c-8.519-4.433-14.846-11.238-18.302-20.261c-2.249-5.873-4.255-11.966-2.999-18.449
	c0.501-2.585,1.023-5.276,2.171-7.606C1698.97,1865.578,1704.461,1860.787,1713.247,1861.636z M1727.987,1895.765
	c-0.497-5.088-1.711-9.837-4.35-14.16c-2.154-3.529-5.323-5.82-9.095-7.319c-2.329-0.925-4.772-0.128-5.961,2.074
	c-0.769,1.424-1.358,3.005-1.705,4.587c-1.713,7.795,1.121,14.419,6.087,20.066c2.657,3.022,5.374,8.046,10.253,5.994
	C1727.553,1905.182,1727.217,1899.882,1727.987,1895.765z M910.611,1064.943c-52.163-1.112-93.565-18.094-125.573-55.099
	c-24.946-28.84-36.231-62.731-32.663-100.815c3.174-33.882,17.943-62.52,42.71-85.783c26.453-24.846,58.044-38.49,94.135-41.73
	c41.555-3.73,79.435,6.404,112.982,31.236c26.862,19.883,45.589,45.919,53.47,78.591c11.625,48.193-0.761,90.47-34.573,126.278
	c-22.677,24.016-51.018,38.249-83.383,44.222C927.601,1063.711,917.232,1064.214,910.611,1064.943z M908.914,1050.282
	c6.193-0.636,14.542-1.024,22.721-2.414c34.8-5.914,64.256-21.674,86.513-49.369c24.005-29.87,32.021-63.936,23.627-101.38
	c-6.113-27.269-20.657-49.815-42.208-67.35c-40.364-32.843-86.223-41.704-136.172-28.322c-32.029,8.581-57.82,26.797-76.527,54.384
	c-14.255,21.021-21.175,44.407-20.233,69.821c0.995,26.842,10.213,50.854,27.23,71.56
	C823.031,1032.703,861.503,1048.743,908.914,1050.282z M544.389,738.394c-49.233-1.334-89.501-17.04-121.124-51.686
	c-54.875-60.122-46.928-149.548,17.578-199.27c35.51-27.371,75.919-37.416,120.269-31.926c30.49,3.774,57.821,15.227,81.573,34.738
	c25.253,20.744,42.631,46.798,49.174,78.992c9.519,46.842-3.091,87.788-36.052,122.129c-24.101,25.111-54.058,39.497-88.372,44.726
	C558.904,737.397,550.242,737.829,544.389,738.394z M535.283,468.63c-6.231,0.806-16.592,1.469-26.653,3.571
	c-32.398,6.768-59.71,22.502-80.439,48.546c-22.876,28.743-31.155,61.482-24.029,97.591c5.698,28.872,20.914,52.374,43.337,71.132
	c24.555,20.542,53.102,31.526,84.989,33.401c39.264,2.309,74.611-8.346,104.515-34.267c29.674-25.721,44.739-58.401,42.813-97.98
	c-1.452-29.826-13.409-55.477-33.9-76.962C616.979,483.319,580.833,469.586,535.283,468.63z M1212.279,1362.814
	c37.719,0.442,67.258,10.598,93.577,29.783c31,22.597,52.032,52.235,61.007,89.829c5.129,21.484,5.219,43.114-1.795,64.162
	c-14.157,42.48-44.172,67.094-87.78,75.323c-25.569,4.825-50.6,1.567-74.584-8.02c-45.12-18.037-76.808-49.634-93.356-95.603
	c-8.19-22.75-10.31-46.296-4.432-69.871c10.93-43.835,39.169-70.903,82.659-81.967
	C1197.185,1364.006,1207.293,1363.516,1212.279,1362.814z M1257.203,1609.141c10.08,0.197,24.882-1.957,38.894-7.821
	c29.237-12.235,48.308-33.592,56.249-64.448c4.937-19.184,4.252-38.416-1.622-57.215c-14.996-47.99-47.153-79.424-94.369-95.594
	c-20.217-6.924-41.101-8.494-62.097-3.963c-33.997,7.337-58.425,26.584-71.169,59.355c-7.313,18.807-7.925,38.296-4.058,58.02
	C1130.903,1558.031,1188.733,1607.48,1257.203,1609.141z M1401.775,1128.566c-0.161-54.792,34.334-102.834,94.87-112.624
	c30.322-4.904,59.123,0.653,86.224,14.372c40.532,20.518,68.487,52.208,81.818,95.988c7.148,23.476,7.916,47.346,0.485,70.853
	c-12.588,39.82-39.989,64.423-80.171,74.583c-27.638,6.988-55.031,4.411-81.372-6c-47.644-18.832-80.358-52.217-96.163-101.405
	C1403.464,1151.881,1401.602,1139.071,1401.775,1128.566z M1520.819,1029.292c-11.702,0.048-21.027,0.535-30.107,2.921
	c-38.182,10.034-62.735,33.841-71.831,72.507c-4.773,20.292-2.663,40.498,4.265,60.02c13.756,38.76,40.011,66.301,77.074,83.561
	c25.196,11.734,51.706,15.553,78.944,9.475c36.026-8.039,60.491-29.604,71.826-65.072c5.38-16.834,5.614-34.106,2.136-51.376
	c-5.851-29.053-20.167-53.451-41.793-73.452C1585.177,1043.689,1554.426,1030.115,1520.819,1029.292z"/>
</svg>
