<?xml version="1.0" encoding="utf-8"?>
<!-- Generator: Adobe Illustrator 27.5.0, SVG Export Plug-In . SVG Version: 6.00 Build 0)  -->
<svg xmlns="http://www.w3.org/2000/svg" xmlns:xlink="http://www.w3.org/1999/xlink" viewBox="0 0 500 500" width="595" height="842" preserveAspectRatio="xMidYMid meet" data-scaled="true">
<g id="BACKGROUND">
	<rect style="fill:#FFFFFF;" width="500" height="500"/>
</g>
<g id="OBJECTS">
	<g>
		<g>
			<g>
				
					<path style="fill:#FFFFFF;stroke:#000000;stroke-width:3;stroke-linecap:round;stroke-linejoin:round;stroke-miterlimit:10;" d="
					M281.5,258.23c31.54,22.04,21.52,58.17,20.54,89.03c20.51-4.72,12.69,39.87,13.93,52.23c4.61,46.05-55.7,50.27-48.63-27.78
					c-31.86-5.88-44.08-26.95-46.35-56.24"/>
				
					<path style="fill:#FFFFFF;stroke:#000000;stroke-width:3;stroke-linecap:round;stroke-linejoin:round;stroke-miterlimit:10;" d="
					M283.92,412.38c-0.19,4.25,0.29,8.63,2.2,12.44s5.4,6.97,9.59,7.73c4.19,0.76,8.94-1.32,10.61-5.23"/>
				
					<path style="fill:#FFFFFF;stroke:#000000;stroke-width:3;stroke-linecap:round;stroke-linejoin:round;stroke-miterlimit:10;" d="
					M297.62,407.8c-0.37,3.95-0.73,8,0.39,11.81c1.12,3.8,4.09,7.33,8.01,7.89c3.7,0.53,7.36-1.71,9.59-4.72
					c4.13-5.58,4.13-13.17,3.04-20.03s-3.09-13.71-2.33-20.6"/>
				<path style="fill:none;stroke:#000000;stroke-width:3;stroke-linecap:round;stroke-linejoin:round;stroke-miterlimit:10;" d="
					M269.38,400.66c3.94-3.72,9.71-4.83,15.13-4.73c5.42,0.1,10.79,1.23,16.21,1.27c5.42,0.04,11.19-1.2,15.01-5.05"/>
			</g>
			<g>
				
					<path style="fill:#FFFFFF;stroke:#000000;stroke-width:3;stroke-linecap:round;stroke-linejoin:round;stroke-miterlimit:10;" d="
					M129.52,287.33c-25.36,30.56-49.99,67.39-65.91,103.6c8.25,12.14,18.97,22.15,33.96,28.83c27.06-22.1,56.23-51.13,79.12-78.47"
					/>
				
					<path style="fill:#FFFFFF;stroke:#000000;stroke-width:3;stroke-linecap:round;stroke-linejoin:round;stroke-miterlimit:10;" d="
					M103.71,414.65c-22.88,37.6-54.73-24.69-54.73-45.58c0-19.69,26.43-22.34,38.32-4.83"/>
				
					<path style="fill:#FFFFFF;stroke:#000000;stroke-width:3;stroke-linecap:round;stroke-linejoin:round;stroke-miterlimit:10;" d="
					M84.25,354.64c-5.56-6.92-16.12-7.4-22.35-1.02c-6.23,6.38-7.08,18.53-1.79,25.73"/>
				
					<path style="fill:#FFFFFF;stroke:#000000;stroke-width:3;stroke-linecap:round;stroke-linejoin:round;stroke-miterlimit:10;" d="
					M96.99,379.34c0.77-5.24,0.27-10.78-2.21-15.46c-2.48-4.68-7.1-8.36-12.36-8.96c-5.26-0.6-10.93,2.32-12.87,7.24
					c-1.96,4.99,0,10.57,1.96,15.56"/>
				<path style="fill:none;stroke:#000000;stroke-width:3;stroke-linecap:round;stroke-linejoin:round;stroke-miterlimit:10;" d="
					M85.36,350.1c7.49-0.82,14.93,3.49,19.27,9.65c4.34,6.16,5.94,13.9,6.07,21.43c0.07,3.87-0.22,7.75,0.2,11.59
					s1.62,7.74,4.25,10.58"/>
			</g>
			<g>
				
					<path style="fill:#FFFFFF;stroke:#000000;stroke-width:3;stroke-linecap:round;stroke-linejoin:round;stroke-miterlimit:10;" d="
					M135.3,275.04c-4.57,13.7-6.41,28.28-5.58,42.79c1.68,29.33,22.13,53.95,50.39,60.84c28.65,6.99,124.88,2.11,152.27-53.09
					c11.25-22.67,8.49-69.69-21.82-71.07C258.25,252.12,197.75,253.27,135.3,275.04z"/>
				
					<path style="fill:#FFFFFF;stroke:#000000;stroke-width:3;stroke-linecap:round;stroke-linejoin:round;stroke-miterlimit:10;" d="
					M186.25,379.01c-24.22,0.95-48.42-12.93-59.84-34.31c-8.43-6.63-11.64-19.12-7.45-29c-1.85,0.98-3.71,1.95-5.56,2.93
					c-2.59-7.23-1.9-15.57,1.84-22.28c3.75-6.71,10.48-11.67,20.45-12.99c17.89-5.03,38.61,2.64,48.92,18.1
					c1.61,2.42,3.03,5.29,2.4,8.12c-0.64,2.83-4.32,4.96-6.58,3.13c3.31,2.08,4.72,6.22,5.06,10.12c0.33,3.9-0.16,7.85,0.46,11.71
					c1.27,7.94,7.22,14.56,14.3,18.35c7.08,3.8,15.22,5.13,23.23,5.78c28.9,2.35,58.43-3.66,84.12-17.12
					c2.23,2.81,4.46,5.61,6.69,8.42c-16.56,15.1-38.36,23.49-60.43,27.38C231.79,381.24,209.21,380.96,186.25,379.01z"/>
			</g>
			<path style="fill:#FFFFFF;stroke:#000000;stroke-width:3;stroke-linecap:round;stroke-linejoin:round;stroke-miterlimit:10;" d="
				M313.41,269.22c8.34-9.68,8.84-23.96,6.12-36.45c-2.72-12.49-8.17-24.3-10.3-36.9c-2.13-12.6-0.22-27.03,9.39-35.45
				c0.52,2.52,1.04,5.03,1.56,7.55c8.54-22.36,28.53-39.99,51.78-45.67c-2.75,3.56-5.5,7.11-8.25,10.67
				c14.8-13.09,37.45-10.88,56.51-5.66s38.89,12.73,58,7.68c-6.23,32.58-34.86,59.59-67.74,63.92c2.53,1.26,5.07,2.52,7.6,3.79
				c-20.8,1.07-41.15,9.49-56.63,23.44c2.82-0.36,5.63-0.71,8.45-1.07c-4.58,19.03-16.28,36.27-33.12,46.36
				C329.72,268.43,321.88,267.35,313.41,269.22z"/>
			<g>
				<g>
					<g>
						
							<path style="fill:#FFFFFF;stroke:#000000;stroke-width:3;stroke-linecap:round;stroke-linejoin:round;stroke-miterlimit:10;" d="
							M191.12,330.27c-16.73,36.01-19.67,52.75-25.83,91.83c11.07,9.63,23.99,16.59,40.19,19.22c20.53-28.26,41.34-63.78,56.5-96.04
							"/>
						
							<path style="fill:#FFFFFF;stroke:#000000;stroke-width:3;stroke-linecap:round;stroke-linejoin:round;stroke-miterlimit:10;" d="
							M210.11,434.81c-14.98,35.42-37.14,10.11-44.56,0.35c-4.38-5.75-8.27-11.97-11.61-18.54c-2.22-4.38-4.25-9.11-4.31-14.15
							c-0.06-5.39,2.19-10.59,5.41-14.58c4.79-5.95,11.82-9.54,18.96-9.69c7.14-0.15,14.28,3.15,19.27,8.89"/>
						
							<path style="fill:#FFFFFF;stroke:#000000;stroke-width:3;stroke-linecap:round;stroke-linejoin:round;stroke-miterlimit:10;" d="
							M186.6,381.1c-6-6.54-16.56-6.34-22.37,0.43s-5.87,18.95-0.13,25.79"/>
						
							<path style="fill:#FFFFFF;stroke:#000000;stroke-width:3;stroke-linecap:round;stroke-linejoin:round;stroke-miterlimit:10;" d="
							M203.19,403.42c-0.01-5.29-1.33-10.7-4.47-14.96c-3.14-4.26-8.26-7.22-13.55-7.03c-5.29,0.19-10.47,3.91-11.66,9.07
							c-1.2,5.22,1.57,10.45,4.24,15.1"/>
					</g>
					<path style="fill:none;stroke:#000000;stroke-width:3;stroke-linecap:round;stroke-linejoin:round;stroke-miterlimit:10;" d="
						M175.89,371.76c7.13-2.43,15.22-0.08,21.26,4.41c6.04,4.49,10.38,10.87,14.29,17.31c3.91,6.43,7.56,13.11,12.66,18.66"/>
				</g>
				<g>
					
						<path style="fill:#FFFFFF;stroke:#000000;stroke-width:3;stroke-linecap:round;stroke-linejoin:round;stroke-miterlimit:10;" d="
						M317.23,255.66c37.21,9.81,40.26,47.18,49.99,76.48c17.63-11.5,25.67,33.04,31.09,44.22c20.22,41.63-34.94,66.39-55.23-9.3
						c-31.94,5.47-50.67-10.09-62.9-36.8"/>
					
						<path style="fill:#FFFFFF;stroke:#000000;stroke-width:3;stroke-linecap:round;stroke-linejoin:round;stroke-miterlimit:10;" d="
						M372.68,399.51c1.29,4.06,3.25,8,6.35,10.92c3.1,2.92,7.47,4.68,11.67,3.94c4.19-0.73,7.93-4.32,8.15-8.57"/>
					
						<path style="fill:#FFFFFF;stroke:#000000;stroke-width:3;stroke-linecap:round;stroke-linejoin:round;stroke-miterlimit:10;" d="
						M383.96,390.49c1.01,3.83,2.08,7.76,4.44,10.94c2.36,3.18,6.37,5.47,10.25,4.64c3.66-0.78,6.32-4.14,7.37-7.73
						c1.95-6.66-0.67-13.79-4.05-19.85s-7.63-11.8-9.3-18.53"/>
					<path style="fill:none;stroke:#000000;stroke-width:3;stroke-linecap:round;stroke-linejoin:round;stroke-miterlimit:10;" d="
						M354.99,393.53c2.42-4.86,7.45-7.89,12.57-9.66c5.12-1.77,10.55-2.56,15.66-4.4c5.1-1.83,10.09-4.99,12.34-9.92"/>
				</g>
			</g>
		</g>
		<g>
			<g>
				
					<path style="fill:#FFFFFF;stroke:#000000;stroke-width:3;stroke-linecap:round;stroke-linejoin:round;stroke-miterlimit:10;" d="
					M187.68,112.28c18.17-22.33,46.21-36.97,80.52-37.92c13.02,42.51,2.66,90.02-26.72,122.5
					C225.28,168.51,207.54,140.92,187.68,112.28z"/>
				
					<path style="fill:#FFFFFF;stroke:#000000;stroke-width:3;stroke-linecap:round;stroke-linejoin:round;stroke-miterlimit:10;" d="
					M238.39,184.57c11.49-10.9,18.22-25.35,22.47-41.3c4.25-15.96,4.3-36.05-0.13-53.04c-23.95,9.28-39.11,34.13-54.57,44.42
					C222.34,151.52,229.74,160.45,238.39,184.57z"/>
			</g>
			<g>
				
					<path style="fill:#FFFFFF;stroke:#000000;stroke-width:3;stroke-linecap:round;stroke-linejoin:round;stroke-miterlimit:10;" d="
					M156.65,115.18c-12.06-26.14-34.6-48.27-67.59-57.71c-18.8,36.39-24.23,89.33-5.51,126.3
					C106.28,160.33,130.31,138,156.65,115.18z"/>
				
					<path style="fill:#FFFFFF;stroke:#000000;stroke-width:3;stroke-linecap:round;stroke-linejoin:round;stroke-miterlimit:10;" d="
					M89.6,172.64c-8.42-13.41-11.36-29.07-11.52-45.59c-0.16-16.52,5.23-38.23,10.79-51.35c17.66,19.62,20.42,51.27,32.85,65.08
					C101.85,153.1,103.97,151.42,89.6,172.64z"/>
			</g>
			<path style="fill:#FFFFFF;stroke:#000000;stroke-width:3;stroke-linecap:round;stroke-linejoin:round;stroke-miterlimit:10;" d="
				M47.09,238.65c0,0,25.56-132.25,118.71-132.25c98.09,0,119.15,129.95,119.15,129.95s-67.8,50.97-124.67,50.97
				S47.09,238.65,47.09,238.65z"/>
			<g>
				
					<path style="fill:#FFFFFF;stroke:#000000;stroke-width:3;stroke-linecap:round;stroke-linejoin:round;stroke-miterlimit:10;" d="
					M162.02,293.08c-43.82,2.65-90.43-13.75-121.3-42.38c2.48-2.03,4.97-4.06,7.45-6.09c-2.22-0.32-4.45-0.64-6.67-0.95
					c8.64-16.3,22.35-27.8,39.59-34.36c-2.83-75.14,75.31-95.46,57.91-3.2c-3.04-0.27,9.27,8.59,15.75,8.49
					c2.47-3.18,8.8-6.45,15.16-10.52c-9.5-89.51,90.86-78.08,85.25,6.52c14.28,5.12,25,16.2,32.48,30.52
					c-2.4,1.26-4.8,2.52-7.21,3.78c4.18,0.63,8.36,1.26,12.54,1.89C269.01,274.28,202.27,290.65,162.02,293.08z"/>
				<path style="fill:none;stroke:#000000;stroke-width:3;stroke-linecap:round;stroke-linejoin:round;stroke-miterlimit:10;" d="
					M121.63,208.46c8.58-6.16,19.24-9.35,29.79-8.91s20.91,4.5,28.95,11.34"/>
				<g>
					<path style="fill:none;stroke:#000000;stroke-width:3;stroke-linecap:round;stroke-linejoin:round;stroke-miterlimit:10;" d="
						M106.5,225.63c-8.76,21.9,21.96,22.56,32.5,9.28c26.28,19.67,46.55-0.49,38.85-12.41"/>
					<path style="fill:none;stroke:#000000;stroke-width:3;stroke-linecap:round;stroke-linejoin:round;stroke-miterlimit:10;" d="
						M176.44,221.68c4.73,2.19,11.34,4.04,16.54,4.47"/>
					<path style="fill:none;stroke:#000000;stroke-width:3;stroke-linecap:round;stroke-linejoin:round;stroke-miterlimit:10;" d="
						M119.09,243.73c7.2,14.52,17.88,42.09,35.58,41.43c21.29-0.79,28.29-30.66,36.04-59"/>
					
						<path style="fill:#FFFFFF;stroke:#000000;stroke-width:3;stroke-linecap:round;stroke-linejoin:round;stroke-miterlimit:10;" d="
						M180.76,257.27c3.64-8.11-24.5-10.61-30.93,3.72c-5.14-7.29-13.48-7.58-17.26-5.87c-17.78,8.04-3.84,56.81,14.84,56.13
						C165.23,310.6,172.82,274.95,180.76,257.27z"/>
				</g>
				<g>
					<path style="fill:none;stroke:#000000;stroke-width:3;stroke-linecap:round;stroke-linejoin:round;stroke-miterlimit:10;" d="
						M132.58,206.57c-0.01-5.99-0.05-12.09-1.86-17.78c-1.81-5.69-5.7-11.02-11.24-12.96c-7.13-2.5-15.37,1.41-19.66,7.74
						c-4.3,6.33-5.24,14.5-4.5,22.16"/>
					<path style="fill:none;stroke:#000000;stroke-width:3;stroke-linecap:round;stroke-linejoin:round;stroke-miterlimit:10;" d="
						M225.71,206.57c-0.01-5.99-0.05-12.09-1.86-17.78c-1.81-5.69-5.7-11.02-11.24-12.96c-7.13-2.5-15.37,1.41-19.66,7.74
						c-4.3,6.33-5.24,14.5-4.5,22.16"/>
				</g>
				
					<path style="fill:#FFFFFF;stroke:#000000;stroke-width:3;stroke-linecap:round;stroke-linejoin:round;stroke-miterlimit:10;" d="
					M119.09,213.45c0-6.28,8.92-11.38,19.91-11.38c11,0,19.91,5.09,19.91,11.38c0,6.29-20.11,13.65-20.11,13.65
					S119.09,219.73,119.09,213.45z"/>
			</g>
		</g>
	</g>
</g>
</svg>
