<?xml version="1.0" encoding="utf-8"?>
<!-- Generator: Adobe Illustrator 27.5.0, SVG Export Plug-In . SVG Version: 6.00 Build 0)  -->
<svg version="1.1" xmlns="http://www.w3.org/2000/svg" xmlns:xlink="http://www.w3.org/1999/xlink" x="0px" y="0px"
	 viewBox="0 0 500 500" style="enable-background:new 0 0 500 500;" xml:space="preserve">
<g id="BACKGROUND">
	<rect x="0" style="fill-rule:evenodd;clip-rule:evenodd;fill:#FFFFFF;" width="500" height="500"/>
</g>
<g id="OBJECTS">
	<g>
		<polygon style="fill:none;stroke:#000000;stroke-width:1.5;stroke-miterlimit:10;" points="143.452,309.851 137.225,318.112 
			143.452,327.086 149.679,318.112 		"/>
		<path style="fill:none;stroke:#000000;stroke-width:1.5;stroke-miterlimit:10;" d="M76.636,276.026c0,0,13.07,8.112,23.694,29.147
			c15.588,30.865,35.22,43.306,35.22,43.306"/>
		<path style="fill:none;stroke:#000000;stroke-width:1.5;stroke-miterlimit:10;" d="M90.12,351.195c0,0-26.723,17.577-13.94,41.893
			c12.782,24.316,43.409,28.682,43.409,28.682s1.94-12.157,7.553-14.964c5.611-2.806,15.642-19.168,13.781-26.241"/>
		<polyline style="fill:none;stroke:#000000;stroke-width:1.5;stroke-miterlimit:10;" points="46.397,278.987 101.265,309.851 
			50.236,314.289 		"/>
		
			<line style="fill:none;stroke:#000000;stroke-width:1.5;stroke-miterlimit:10;" x1="64.431" y1="340.098" x2="113.112" y2="327.086"/>
		
			<line style="fill:none;stroke:#000000;stroke-width:1.5;stroke-miterlimit:10;" x1="102.798" y1="309.851" x2="64.431" y2="340.098"/>
		
			<line style="fill:none;stroke:#000000;stroke-width:1.5;stroke-miterlimit:10;" x1="85.408" y1="350.215" x2="113.909" y2="326.445"/>
		<path style="fill:none;stroke:#000000;stroke-width:1.5;stroke-miterlimit:10;" d="M139.396,347.308
			c0,0-35.013,12.423-65.565-0.982c-30.551-13.403-27.434-67.338-27.434-67.338s41.774-8.105,57.986,2.494
			c16.212,10.599,37.527,43.578,37.527,43.578"/>
		<path style="fill:none;stroke:#000000;stroke-width:1.5;stroke-miterlimit:10;" d="M100.53,279.486
			c0,0,16.324,16.648,23.598,35.977c7.274,19.328,15.269,31.845,15.269,31.845"/>
		
			<line style="fill:none;stroke:#000000;stroke-width:1.5;stroke-miterlimit:10;" x1="85.408" y1="350.215" x2="128.802" y2="343.169"/>
		<path style="fill:none;stroke:#000000;stroke-width:1.5;stroke-miterlimit:10;" d="M113.909,352.549
			c0,0,29.428,13.106,21.641,44.906"/>
		<path style="fill:none;stroke:#000000;stroke-width:1.5;stroke-miterlimit:10;" d="M115.652,376.068
			c0,6.197-5.023,11.221-11.219,11.221c-6.197,0-11.22-5.024-11.22-11.221c0-6.196,5.023-11.22,11.22-11.22
			C110.629,364.849,115.652,369.872,115.652,376.068z"/>
		<path style="fill:none;stroke:#000000;stroke-width:1.5;stroke-miterlimit:10;" d="M128.802,364.447
			c0,0,5.041,19.133-7.117,32.382c-12.159,13.249-33.543,10.821-33.543,10.821"/>
		<path style="fill:none;stroke:#000000;stroke-width:1.5;stroke-miterlimit:10;" d="M210.268,276.026
			c0,0-13.07,8.112-23.694,29.147c-15.588,30.865-35.22,43.306-35.22,43.306"/>
		<polygon style="fill:none;stroke:#000000;stroke-width:1.5;stroke-miterlimit:10;" points="143.452,314.289 137.225,366.516 
			143.452,390.18 149.679,366.516 		"/>
		<path style="fill:none;stroke:#000000;stroke-width:1.5;stroke-miterlimit:10;" d="M196.784,351.195
			c0,0,26.723,17.577,13.941,41.893c-12.782,24.316-43.41,28.682-43.41,28.682s-1.941-12.157-7.552-14.964
			c-5.612-2.806-15.643-19.168-13.782-26.241"/>
		<polyline style="fill:none;stroke:#000000;stroke-width:1.5;stroke-miterlimit:10;" points="240.507,278.987 185.638,309.851 
			236.666,314.289 		"/>
		
			<line style="fill:none;stroke:#000000;stroke-width:1.5;stroke-miterlimit:10;" x1="222.472" y1="340.098" x2="173.791" y2="327.086"/>
		
			<line style="fill:none;stroke:#000000;stroke-width:1.5;stroke-miterlimit:10;" x1="184.105" y1="309.851" x2="222.472" y2="340.098"/>
		
			<line style="fill:none;stroke:#000000;stroke-width:1.5;stroke-miterlimit:10;" x1="201.495" y1="350.215" x2="172.995" y2="326.445"/>
		<path style="fill:none;stroke:#000000;stroke-width:1.5;stroke-miterlimit:10;" d="M147.507,347.308
			c0,0,35.013,12.423,65.566-0.982c30.552-13.403,27.434-67.338,27.434-67.338s-41.775-8.105-57.986,2.494
			c-16.211,10.599-37.526,43.578-37.526,43.578"/>
		<path style="fill:none;stroke:#000000;stroke-width:1.5;stroke-miterlimit:10;" d="M186.374,279.486
			c0,0-16.325,16.648-23.598,35.977c-7.274,19.328-15.269,31.845-15.269,31.845"/>
		
			<line style="fill:none;stroke:#000000;stroke-width:1.5;stroke-miterlimit:10;" x1="201.495" y1="350.215" x2="158.102" y2="343.169"/>
		<path style="fill:none;stroke:#000000;stroke-width:1.5;stroke-miterlimit:10;" d="M172.995,352.549
			c0,0-29.428,13.106-21.642,44.906"/>
		<path style="fill:none;stroke:#000000;stroke-width:1.5;stroke-miterlimit:10;" d="M171.251,376.068
			c0,6.197,5.023,11.221,11.219,11.221c6.197,0,11.221-5.024,11.221-11.221c0-6.196-5.023-11.22-11.221-11.22
			C176.274,364.849,171.251,369.872,171.251,376.068z"/>
		<path style="fill:none;stroke:#000000;stroke-width:1.5;stroke-miterlimit:10;" d="M158.102,364.447
			c0,0-5.041,19.133,7.117,32.382c12.158,13.249,33.543,10.821,33.543,10.821"/>
	</g>
	<g>
		<polyline style="fill:none;stroke:#000000;stroke-width:1.5;stroke-miterlimit:10;" points="349.542,150.879 358.945,145.376 
			354.71,161.058 		"/>
		
			<line style="fill:none;stroke:#000000;stroke-width:1.5;stroke-miterlimit:10;" x1="354.71" y1="140.943" x2="358.945" y2="145.376"/>
		<polyline style="fill:none;stroke:#000000;stroke-width:1.5;stroke-miterlimit:10;" points="352.865,131.733 313.106,91.137 
			261.54,81.17 264.573,116.271 275.623,153.216 322.423,169.415 351.401,154.539 		"/>
		<polyline style="fill:none;stroke:#000000;stroke-width:1.5;stroke-miterlimit:10;" points="309.009,164.771 282.013,192.848 
			292.109,222.67 332.492,231.372 350.593,200.134 		"/>
		
			<line style="fill:none;stroke:#000000;stroke-width:1.5;stroke-miterlimit:10;" x1="261.54" y1="81.17" x2="352.405" y2="145.376"/>
		
			<line style="fill:none;stroke:#000000;stroke-width:1.5;stroke-miterlimit:10;" x1="313.106" y1="91.137" x2="352.405" y2="145.376"/>
		
			<line style="fill:none;stroke:#000000;stroke-width:1.5;stroke-miterlimit:10;" x1="305.434" y1="112.185" x2="264.573" y2="116.271"/>
		<path style="fill:none;stroke:#000000;stroke-width:1.5;stroke-miterlimit:10;" d="M275.623,153.216"/>
		
			<line style="fill:none;stroke:#000000;stroke-width:1.5;stroke-miterlimit:10;" x1="305.434" y1="112.185" x2="275.623" y2="153.216"/>
		
			<line style="fill:none;stroke:#000000;stroke-width:1.5;stroke-miterlimit:10;" x1="349.542" y1="150.879" x2="275.623" y2="153.216"/>
		<line style="fill:none;stroke:#000000;stroke-width:1.5;stroke-miterlimit:10;" x1="322.423" y1="169.415" x2="334" y2="151.37"/>
		<polyline style="fill:none;stroke:#000000;stroke-width:1.5;stroke-miterlimit:10;" points="351.401,154.539 320.63,184.149 
			282.013,192.848 		"/>
		
			<line style="fill:none;stroke:#000000;stroke-width:1.5;stroke-miterlimit:10;" x1="320.63" y1="184.149" x2="332.492" y2="231.372"/>
		
			<line style="fill:none;stroke:#000000;stroke-width:1.5;stroke-miterlimit:10;" x1="353.379" y1="158.436" x2="327.804" y2="212.706"/>
		
			<line style="fill:none;stroke:#000000;stroke-width:1.5;stroke-miterlimit:10;" x1="297.755" y1="176.426" x2="335.941" y2="169.415"/>
		
			<line style="fill:none;stroke:#000000;stroke-width:1.5;stroke-miterlimit:10;" x1="292.109" y1="222.67" x2="323.006" y2="193.609"/>
		
			<line style="fill:none;stroke:#000000;stroke-width:1.5;stroke-miterlimit:10;" x1="320.63" y1="228.816" x2="323.006" y2="193.609"/>
		<polygon style="fill:none;stroke:#000000;stroke-width:1.5;stroke-miterlimit:10;" points="363.57,161.058 368.738,150.879 
			363.57,140.943 365.416,131.733 359.141,126.887 352.865,131.733 354.71,140.943 349.542,150.879 354.71,161.058 348.585,196.06 
			359.141,217.466 369.696,196.06 		"/>
		<polyline style="fill:none;stroke:#000000;stroke-width:1.5;stroke-miterlimit:10;" points="368.738,150.879 359.336,145.376 
			363.57,161.058 		"/>
		
			<line style="fill:none;stroke:#000000;stroke-width:1.5;stroke-miterlimit:10;" x1="363.57" y1="140.943" x2="359.336" y2="145.376"/>
		<polyline style="fill:none;stroke:#000000;stroke-width:1.5;stroke-miterlimit:10;" points="365.416,131.733 405.175,91.137 
			456.743,81.17 453.707,116.271 442.657,153.216 395.858,169.415 366.879,154.539 		"/>
		<polyline style="fill:none;stroke:#000000;stroke-width:1.5;stroke-miterlimit:10;" points="409.27,164.771 436.267,192.848 
			426.172,222.67 385.788,231.372 367.688,200.134 		"/>
		
			<line style="fill:none;stroke:#000000;stroke-width:1.5;stroke-miterlimit:10;" x1="456.743" y1="81.17" x2="365.875" y2="145.376"/>
		
			<line style="fill:none;stroke:#000000;stroke-width:1.5;stroke-miterlimit:10;" x1="405.175" y1="91.137" x2="365.875" y2="145.376"/>
		
			<line style="fill:none;stroke:#000000;stroke-width:1.5;stroke-miterlimit:10;" x1="412.848" y1="112.185" x2="453.707" y2="116.271"/>
		<path style="fill:none;stroke:#000000;stroke-width:1.5;stroke-miterlimit:10;" d="M442.657,153.216"/>
		
			<line style="fill:none;stroke:#000000;stroke-width:1.5;stroke-miterlimit:10;" x1="412.848" y1="112.185" x2="442.657" y2="153.216"/>
		
			<line style="fill:none;stroke:#000000;stroke-width:1.5;stroke-miterlimit:10;" x1="368.738" y1="150.879" x2="442.657" y2="153.216"/>
		
			<line style="fill:none;stroke:#000000;stroke-width:1.5;stroke-miterlimit:10;" x1="395.858" y1="169.415" x2="384.28" y2="151.37"/>
		<polyline style="fill:none;stroke:#000000;stroke-width:1.5;stroke-miterlimit:10;" points="366.879,154.539 397.65,184.149 
			436.267,192.848 		"/>
		
			<line style="fill:none;stroke:#000000;stroke-width:1.5;stroke-miterlimit:10;" x1="397.65" y1="184.149" x2="385.788" y2="231.372"/>
		
			<line style="fill:none;stroke:#000000;stroke-width:1.5;stroke-miterlimit:10;" x1="364.902" y1="158.436" x2="390.477" y2="212.706"/>
		
			<line style="fill:none;stroke:#000000;stroke-width:1.5;stroke-miterlimit:10;" x1="420.525" y1="176.426" x2="382.339" y2="169.415"/>
		
			<line style="fill:none;stroke:#000000;stroke-width:1.5;stroke-miterlimit:10;" x1="426.172" y1="222.67" x2="395.274" y2="193.609"/>
		
			<line style="fill:none;stroke:#000000;stroke-width:1.5;stroke-miterlimit:10;" x1="397.65" y1="228.816" x2="395.274" y2="193.609"/>
		
			<line style="fill:none;stroke:#000000;stroke-width:1.5;stroke-miterlimit:10;" x1="354.06" y1="164.771" x2="364.037" y2="164.771"/>
		
			<line style="fill:none;stroke:#000000;stroke-width:1.5;stroke-miterlimit:10;" x1="352.939" y1="172.104" x2="365.157" y2="172.104"/>
		
			<line style="fill:none;stroke:#000000;stroke-width:1.5;stroke-miterlimit:10;" x1="350.809" y1="184.149" x2="367.288" y2="184.149"/>
		
			<line style="fill:none;stroke:#000000;stroke-width:1.5;stroke-miterlimit:10;" x1="348.204" y1="196.06" x2="370.077" y2="196.06"/>
	</g>
	<g>
		<path style="fill:none;stroke:#000000;stroke-width:1.5;stroke-miterlimit:10;" d="M149.557,187.428
			c0,21.435-6.19,38.812-6.19,38.812s-6.19-17.377-6.19-38.812c0-21.435,6.19-38.812,6.19-38.812S149.557,165.993,149.557,187.428z"
			/>
		<path style="fill:none;stroke:#000000;stroke-width:1.5;stroke-miterlimit:10;" d="M147.264,148.616
			c0,4.816-3.897,8.721-3.897,8.721s-3.897-3.905-3.897-8.721c0-4.816,3.897-8.721,3.897-8.721S147.264,143.8,147.264,148.616z"/>
		<g>
			<path style="fill:none;stroke:#000000;stroke-width:1.5;stroke-miterlimit:10;" d="M139.938,145.675
				c0,0-23.075-49.274-46.758-57.935c-23.682-8.66-44.554-10.39-56.292-17.704c0,0-4.239,86.667,41.74,97.894
				c45.977,11.227,61.31-6.383,61.31-6.383"/>
			<path style="fill:none;stroke:#000000;stroke-width:1.5;stroke-miterlimit:10;" d="M103.652,171.614
				c0,0-31.546,2.571-35.214,26.628c-3.669,24.057,28.624,34.883,30.454,44.265c0,0,37.471-35.318,38.28-52.204"/>
			<path style="fill:none;stroke:#000000;stroke-width:1.5;stroke-miterlimit:10;" d="M94.483,108.605
				c27.435,24.488,42.704,51.897,42.704,51.897s-29.209-12.298-56.643-36.786C53.109,99.227,37.84,71.82,37.84,71.82
				S67.05,84.117,94.483,108.605z"/>
			<polyline style="fill:none;stroke:#000000;stroke-width:1.5;stroke-miterlimit:10;" points="38.564,103.013 78.954,123.665 
				45.362,132.424 			"/>
			<polyline style="fill:none;stroke:#000000;stroke-width:1.5;stroke-miterlimit:10;" points="45.362,132.424 102.92,142.43 
				63.636,160.502 			"/>
			<polyline style="fill:none;stroke:#000000;stroke-width:1.5;stroke-miterlimit:10;" points="63.636,160.502 124.687,156.142 
				102.432,171.298 			"/>
			
				<line style="fill:none;stroke:#000000;stroke-width:1.5;stroke-miterlimit:10;" x1="101.209" y1="91.91" x2="139.116" y2="161.675"/>
			<path style="fill:none;stroke:#000000;stroke-width:1.5;stroke-miterlimit:10;" d="M106.598,126.127
				c17.998,16.065,29.041,32.934,29.041,32.934s-18.138-9.18-36.135-25.245c-17.998-16.067-29.041-32.934-29.041-32.934
				S88.599,110.061,106.598,126.127z"/>
			<path style="fill:none;stroke:#000000;stroke-width:1.5;stroke-miterlimit:10;" d="M114.653,193.695
				c9.856-17.521,22.464-29.212,22.464-29.212s-3.373,16.718-13.228,34.239c-9.857,17.522-22.463,29.212-22.463,29.212
				S104.798,211.217,114.653,193.695z"/>
			<path style="fill:none;stroke:#000000;stroke-width:1.5;stroke-miterlimit:10;" d="M124.931,169.374
				c0,0-60.896,28.387-40.597,58.458"/>
		</g>
		<g>
			<path style="fill:none;stroke:#000000;stroke-width:1.5;stroke-miterlimit:10;" d="M146.967,145.675
				c0,0,23.075-49.274,46.758-57.935c23.682-8.66,44.553-10.39,56.292-17.704c0,0,4.239,86.667-41.74,97.894
				c-45.977,11.227-61.309-6.383-61.309-6.383"/>
			<path style="fill:none;stroke:#000000;stroke-width:1.5;stroke-miterlimit:10;" d="M183.253,171.614
				c0,0,31.545,2.571,35.214,26.628c3.669,24.057-28.624,34.883-30.454,44.265c0,0-37.471-35.318-38.28-52.204"/>
			<path style="fill:none;stroke:#000000;stroke-width:1.5;stroke-miterlimit:10;" d="M192.421,108.605
				c-27.435,24.488-42.704,51.897-42.704,51.897s29.209-12.298,56.644-36.786c27.434-24.49,42.703-51.896,42.703-51.896
				S219.854,84.117,192.421,108.605z"/>
			<polyline style="fill:none;stroke:#000000;stroke-width:1.5;stroke-miterlimit:10;" points="248.34,103.013 207.951,123.665 
				241.543,132.424 			"/>
			<polyline style="fill:none;stroke:#000000;stroke-width:1.5;stroke-miterlimit:10;" points="241.543,132.424 183.983,142.43 
				223.269,160.502 			"/>
			<polyline style="fill:none;stroke:#000000;stroke-width:1.5;stroke-miterlimit:10;" points="223.269,160.502 162.217,156.142 
				184.473,171.298 			"/>
			
				<line style="fill:none;stroke:#000000;stroke-width:1.5;stroke-miterlimit:10;" x1="185.695" y1="91.91" x2="147.789" y2="161.675"/>
			<path style="fill:none;stroke:#000000;stroke-width:1.5;stroke-miterlimit:10;" d="M180.307,126.127
				c-17.998,16.065-29.042,32.934-29.042,32.934s18.138-9.18,36.134-25.245c17.999-16.067,29.041-32.934,29.041-32.934
				S198.306,110.061,180.307,126.127z"/>
			<path style="fill:none;stroke:#000000;stroke-width:1.5;stroke-miterlimit:10;" d="M172.251,193.695
				c-9.856-17.521-22.464-29.212-22.464-29.212s3.373,16.718,13.228,34.239c9.857,17.522,22.463,29.212,22.463,29.212
				S182.106,211.217,172.251,193.695z"/>
			<path style="fill:none;stroke:#000000;stroke-width:1.5;stroke-miterlimit:10;" d="M161.973,169.374
				c0,0,60.895,28.387,40.597,58.458"/>
		</g>
		<g>
			<path style="fill:none;stroke:#000000;stroke-width:1.5;stroke-miterlimit:10;" d="M138.751,169.074
				c1.221,0.629,2.838,1.016,4.615,1.016c1.779,0,3.395-0.386,4.616-1.016"/>
			<path style="fill:none;stroke:#000000;stroke-width:1.5;stroke-miterlimit:10;" d="M137.654,177.494
				c1.512,0.778,3.512,1.256,5.713,1.256c2.202,0,4.202-0.478,5.713-1.256"/>
			<path style="fill:none;stroke:#000000;stroke-width:1.5;stroke-miterlimit:10;" d="M137.413,185.767
				c1.575,0.811,3.66,1.31,5.954,1.31c2.294,0,4.379-0.499,5.954-1.31"/>
			<path style="fill:none;stroke:#000000;stroke-width:1.5;stroke-miterlimit:10;" d="M137.654,195.898
				c1.512,0.778,3.512,1.256,5.713,1.256c2.202,0,4.202-0.479,5.713-1.256"/>
			<path style="fill:none;stroke:#000000;stroke-width:1.5;stroke-miterlimit:10;" d="M138.548,204.777
				c1.275,0.656,2.962,1.059,4.818,1.059c1.857,0,3.544-0.404,4.819-1.059"/>
		</g>
	</g>
	<g>
		<g>
			<g>
				<polyline style="fill:none;stroke:#000000;stroke-width:1.5;stroke-miterlimit:10;" points="355.011,330.862 316.753,291.593 
					271.247,267.829 255.067,275.413 259.618,300.188 268.719,310.806 261.64,324.963 265.18,350.75 301.584,379.57 331.416,371.48 
					353.663,354.121 				"/>
				<polyline style="fill:none;stroke:#000000;stroke-width:1.5;stroke-miterlimit:10;" points="299.056,378.054 283.887,396.93 
					293.663,414.122 289.618,423.223 297.371,429.964 310.854,424.234 332.427,426.593 355.349,392.885 				"/>
				
					<line style="fill:none;stroke:#000000;stroke-width:1.5;stroke-miterlimit:10;" x1="355.011" y1="345.02" x2="268.719" y2="310.806"/>
				
					<line style="fill:none;stroke:#000000;stroke-width:1.5;stroke-miterlimit:10;" x1="289.955" y1="369.627" x2="354.337" y2="349.739"/>
				
					<line style="fill:none;stroke:#000000;stroke-width:1.5;stroke-miterlimit:10;" x1="316.753" y1="291.593" x2="355.011" y2="345.02"/>
				
					<line style="fill:none;stroke:#000000;stroke-width:1.5;stroke-miterlimit:10;" x1="271.247" y1="267.829" x2="355.011" y2="345.02"/>
				
					<line style="fill:none;stroke:#000000;stroke-width:1.5;stroke-miterlimit:10;" x1="255.067" y1="275.413" x2="322.651" y2="332.211"/>
				<polyline style="fill:none;stroke:#000000;stroke-width:1.5;stroke-miterlimit:10;" points="262.031,325.872 289.567,342.66 
					265.18,350.75 				"/>
				
					<line style="fill:none;stroke:#000000;stroke-width:1.5;stroke-miterlimit:10;" x1="289.567" y1="342.66" x2="355.073" y2="348.072"/>
				
					<line style="fill:none;stroke:#000000;stroke-width:1.5;stroke-miterlimit:10;" x1="293.663" y1="414.122" x2="334.534" y2="386.908"/>
				
					<line style="fill:none;stroke:#000000;stroke-width:1.5;stroke-miterlimit:10;" x1="310.854" y1="424.234" x2="334.534" y2="386.908"/>
				<polyline style="fill:none;stroke:#000000;stroke-width:1.5;stroke-miterlimit:10;" points="331.416,371.48 334.534,386.908 
					355.349,392.885 				"/>
				
					<line style="fill:none;stroke:#000000;stroke-width:1.5;stroke-miterlimit:10;" x1="334.534" y1="386.908" x2="352.989" y2="365.245"/>
			</g>
			<g>
				<polyline style="fill:none;stroke:#000000;stroke-width:1.5;stroke-miterlimit:10;" points="363.27,330.862 401.528,291.593 
					447.035,267.829 463.215,275.413 458.665,300.188 449.563,310.806 456.643,324.963 453.103,350.75 416.697,379.57 
					386.865,371.48 364.618,354.121 				"/>
				<polyline style="fill:none;stroke:#000000;stroke-width:1.5;stroke-miterlimit:10;" points="419.226,378.054 434.394,396.93 
					424.617,414.122 428.662,423.223 420.91,429.964 407.427,424.234 385.854,426.593 362.932,392.885 				"/>
				
					<line style="fill:none;stroke:#000000;stroke-width:1.5;stroke-miterlimit:10;" x1="363.27" y1="345.02" x2="449.563" y2="310.806"/>
				
					<line style="fill:none;stroke:#000000;stroke-width:1.5;stroke-miterlimit:10;" x1="428.326" y1="369.627" x2="363.943" y2="349.739"/>
				
					<line style="fill:none;stroke:#000000;stroke-width:1.5;stroke-miterlimit:10;" x1="401.528" y1="291.593" x2="363.27" y2="345.02"/>
				
					<line style="fill:none;stroke:#000000;stroke-width:1.5;stroke-miterlimit:10;" x1="447.035" y1="267.829" x2="363.27" y2="345.02"/>
				
					<line style="fill:none;stroke:#000000;stroke-width:1.5;stroke-miterlimit:10;" x1="463.215" y1="275.413" x2="395.629" y2="332.211"/>
				<polyline style="fill:none;stroke:#000000;stroke-width:1.5;stroke-miterlimit:10;" points="456.251,325.872 428.714,342.66 
					453.103,350.75 				"/>
				
					<line style="fill:none;stroke:#000000;stroke-width:1.5;stroke-miterlimit:10;" x1="428.714" y1="342.66" x2="363.207" y2="348.072"/>
				
					<line style="fill:none;stroke:#000000;stroke-width:1.5;stroke-miterlimit:10;" x1="424.617" y1="414.122" x2="383.747" y2="386.908"/>
				
					<line style="fill:none;stroke:#000000;stroke-width:1.5;stroke-miterlimit:10;" x1="407.427" y1="424.234" x2="383.747" y2="386.908"/>
				<polyline style="fill:none;stroke:#000000;stroke-width:1.5;stroke-miterlimit:10;" points="386.865,371.48 383.747,386.908 
					362.932,392.885 				"/>
				
					<line style="fill:none;stroke:#000000;stroke-width:1.5;stroke-miterlimit:10;" x1="383.747" y1="386.908" x2="365.292" y2="365.245"/>
			</g>
		</g>
		<g>
			<g>
				<path style="fill:none;stroke:#000000;stroke-width:1.5;stroke-miterlimit:10;" d="M364.916,368.563
					c0,21.661-5.775,39.222-5.775,39.222s-5.776-17.561-5.776-39.222s5.776-39.222,5.776-39.222S364.916,346.901,364.916,368.563z"
					/>
				<path style="fill:none;stroke:#000000;stroke-width:1.5;stroke-miterlimit:10;" d="M360.258,333.222
					c1.906-0.496,3.316-2.223,3.316-4.284c0-2.448-1.984-4.433-4.433-4.433c-2.448,0-4.433,1.984-4.433,4.433
					c0,2.061,1.409,3.789,3.316,4.284c0.658-2.488,1.117-3.882,1.117-3.882S359.599,330.734,360.258,333.222z"/>
			</g>
			<g>
				<path style="fill:none;stroke:#000000;stroke-width:1.5;stroke-miterlimit:10;" d="M355.076,348.07
					c1.075,0.52,2.498,0.839,4.064,0.839c1.566,0,2.989-0.319,4.064-0.839"/>
				<path style="fill:none;stroke:#000000;stroke-width:1.5;stroke-miterlimit:10;" d="M354.109,358.186
					c1.332,0.644,3.093,1.039,5.031,1.039c1.938,0,3.7-0.395,5.031-1.039"/>
				<path style="fill:none;stroke:#000000;stroke-width:1.5;stroke-miterlimit:10;" d="M353.485,368.563
					c1.497,0.723,3.476,1.167,5.655,1.167c2.18,0,4.16-0.444,5.655-1.167"/>
				<path style="fill:none;stroke:#000000;stroke-width:1.5;stroke-miterlimit:10;" d="M354.109,378.582
					c1.332,0.643,3.093,1.038,5.031,1.038c1.938,0,3.7-0.395,5.031-1.038"/>
				<path style="fill:none;stroke:#000000;stroke-width:1.5;stroke-miterlimit:10;" d="M354.897,388.002
					c1.123,0.541,2.608,0.875,4.243,0.875c1.635,0,3.121-0.334,4.244-0.875"/>
			</g>
		</g>
	</g>
</g>

    <text x="10" y="832" font-size="12" fill="gray" opacity="0.6" font-family="Arial, sans-serif">
      twoja-kolorowanka.pl
    </text>
  
</svg>
