<?xml version="1.0" encoding="utf-8"?>
<!-- Generator: Adobe Illustrator 27.5.0, SVG Export Plug-In . SVG Version: 6.00 Build 0)  -->
<svg version="1.1" id="Layer_1" xmlns="http://www.w3.org/2000/svg" xmlns:xlink="http://www.w3.org/1999/xlink" x="0px" y="0px"
	 viewBox="0 0 2628 2628" style="enable-background:new 0 0 2628 2628;" xml:space="preserve">
<g>
	<path style="fill:#FEFEFE;" d="M0,0h2628.69v2628.69H0V0z"/>
	<path d="M1261.319,101.862c40.67-5.859,85.64,4.53,120.843,24.998c38.257,22.242,76.871,63.601,88.567,107.16
		c11.839,8.923,25.306,16.129,37.554,24.583c27.26,18.819,51.822,43.378,71.252,70.163c47.293,65.196,69.039,142.537,56.258,222.802
		c18.804-1.024,36.861,0.601,55.038,5.555c-1.566,33.875-20.229,74.902-38.676,102.76c-8.536,12.887-18.611,24.636-27.445,37.282
		c-6.954,9.958-12.009,21.104-19.964,30.386c-4.064,4.744-9.082,7.429-13.259,11.755c-0.193,2.074-0.339,4.02-0.082,6.097
		c0.298,2.423,0.01,3.735,1.974,5.268c11.49-6.133,37.718-32.379,51.326-42.791c61.459-47.019,133.819-84.172,210.855-95.832
		c44.824-6.782,99.438-4.354,137.2,23.715c-9.675,8.158-19.726,15.177-28.836,24.113c-35.197,34.525-54.543,79.723-77.61,122.368
		c-45.743,84.56-94.099,133.478-179.411,178.797c50.043,7.527,86.095,12.474,134.04,30.715
		c86.046,32.735,139.842,86.773,177.277,169.933c-48.839,1.124-73.757,17.099-117.618,32.915
		c-66.333,23.917-129.709,23.26-198.333,13.803c4.513,23.07,10.849,44.118,13.09,67.763
		c53.824,22.698,109.856,44.056,161.726,70.872c43.933,22.714,85.902,51.016,125.915,79.97
		c45.881,33.2,87.964,70.885,128.233,110.587c10.895,10.741,23.72,20.881,32.646,33.359c4.844,6.767,8.253,14.522,9.388,22.796
		c3.029,22.082-9.503,43.81-22.362,60.747c-80.483,106.018-305.814,181.228-432.984,210.277
		c-73.449,16.779-147.646,26.888-222.201,37.12c-2.218,70.402,1.35,144.783,16.337,213.771
		c5.997,27.619,14.997,54.887,24.962,81.307c22.185,58.799,53.911,122.455,38.768,186.845
		c-9.886,42.033-39.184,76.155-75.513,98.381c-80.465,49.227-197.236,51.036-286.961,29.173
		c-36.655-9.498-72.792-27.411-100.791-53.136c-1.871-1.705-3.698-3.454-5.481-5.25c-1.783-1.797-3.52-3.637-5.211-5.519
		c-1.693-1.884-3.335-3.809-4.929-5.773c-1.595-1.967-3.14-3.971-4.634-6.015c-1.494-2.042-2.936-4.12-4.326-6.235
		c-1.39-2.115-2.725-4.265-4.007-6.448c-1.282-2.182-2.509-4.395-3.681-6.639c-1.171-2.243-2.285-4.515-3.342-6.815
		c-1.056-2.3-2.055-4.625-2.996-6.975c-0.939-2.35-1.82-4.722-2.641-7.116c-0.821-2.393-1.583-4.805-2.285-7.237
		c-0.7-2.434-1.339-4.882-1.918-7.344c-0.577-2.465-1.092-4.942-1.545-7.432c-0.453-2.49-0.844-4.99-1.173-7.501
		c-0.328-2.509-0.594-5.026-0.796-7.55c-0.202-2.523-0.341-5.049-0.416-7.578c-1.081-36.542,13.059-70.243,23.653-104.496
		c4.716-15.243,8.579-30.856,12.301-46.367c24.174-100.712,34.135-183.21,30.279-286.771c-26.284-2.557-53.098-2.714-79.479-4.71
		c-53.127-3.907-105.948-10.323-158.463-19.248c-129.237-22.049-351.687-67.999-431.393-181.813
		c-11.098-15.847-23.199-37.96-19.222-57.926c3.301-16.581,12.823-31.991,21.461-46.277
		c56.838-94.014,167.03-184.717,258.277-244.417c36.483-23.871,75.375-41.019,110.87-63.669c2.775-31.3,10.62-60.442,20.924-89.956
		c-58.242,22.38-122.555,14.222-179.778-7.437c-46.49-17.592-85.995-40.878-137.226-28.464
		c7.606-32.764,30.173-62.814,52.705-87.021c43.361-46.587,105.273-87.907,166.978-104.983
		c31.652-8.761,63.348-11.873,96.047-13.133c-57.649-27.16-116.512-72.874-151.681-126.347
		c-18.121-27.55-30.941-57.754-44.297-87.771c-20.922-47.019-40.511-90.764-90.271-112.756
		c32.956-24.177,76.006-31.323,116.101-30.081c124.462,3.851,260.31,105.112,342.872,193.191
		c-6.307-21.214-10.081-39.42-9.75-61.605c-12.83-4.089-24.911-9.016-36.686-15.58c1.612,7.557,4.261,17.949,1.371,25.324
		l-1.905,0.701c-1.129-0.624-1.766-0.87-2.68-1.953c-4.78-5.671-7.904-23.758-12.982-32.448
		c-6.351-10.869-15.225-20.493-22.277-30.962c-14.291-21.219-50.335-80.881-50.941-104.744c-0.172-6.839,1.941-13.205,6.88-18.044
		c10.479-10.266,26.426-8.225,39.744-7.691c-3.938-26.739-2.102-58.38,1.425-85.099c8.097-61.302,35.21-128.932,78.471-173.673
		c19.202-19.862,41.964-36.442,63.907-53.128c-8.62-18.161-11.272-33.729-6.798-53.381c2.585-11.35,8.417-28.118,18.519-34.496
		c7.067,3.395,10.905,21.273,14.442,28.535c2.665,5.473,5.221,10.214,11.259,12.255c8.648-1.44,10.417-9.783,15.287-16.18
		C1163.693,135.36,1207.734,108.885,1261.319,101.862z"/>
	<path style="fill:#FEFEFE;" d="M1221.512,1406.282c1.414,1.9,1.122,1.368,2.339,3.64c6.875,12.823,10.176,29.195,6.112,43.183
		l-2.123,0.493C1225.652,1450.369,1222.916,1413.778,1221.512,1406.282z"/>
	<path style="fill:#FEFEFE;" d="M1248.225,1420.614c0.929,0.917,0.606,0.493,1.399,1.825c7.696,12.905,12.407,27.088,8.821,42.026
		c-2.295-1.117-2.767-1.628-3.93-3.869C1249.647,1451.211,1245.532,1430.734,1248.225,1420.614z"/>
	<path style="fill:#FEFEFE;" d="M1206.967,1498.417c1.889,0.796,3.55,1.53,4.929,3.116c12.551,14.455,15.775,41.543,15.084,59.844
		C1220.906,1556.415,1210.558,1509.176,1206.967,1498.417z"/>
	<path style="fill:#FEFEFE;" d="M1171.798,1533.592c-2.439-6.461-5.506-13.567-6.628-20.375c-0.801-4.849-0.462-9.552,2.711-13.51
		c3.304-4.125,13.123-5.37,18.18-5.63l0.629,1.019c-4.649,4.259-11.257,2.274-16.106,5.75c-1.609,1.158-1.232,2.287-1.463,4.084
		c5.142,8.697,17.654,6.087,25.776,11.118l-0.534,0.932c-4.929-1.769-11.069-3.725-16.316-4.133
		c-3.055-0.239-3.635-0.514-6.079,1.481c1.692,3.851,2.505,4.056,5.932,6.243c-1.861,1.142-0.927,0.398-2.667,2.398l2.896,6.664
		c7.062,10.635,11.59,22.185,20.721,31.298C1185.085,1553.533,1178.893,1547.5,1171.798,1533.592z"/>
	<path style="fill:#FEFEFE;" d="M1454.541,1500.584c1.489,1.363,1.869,2.97,2.624,4.808c-4.379,7.56-15.346,1.856-21.427,5.848
		c-1.242,4.307,1.468,9.241,1.941,13.677c0.347,3.258-0.175,4.585-2.105,7.126c-0.105-4.888,0.3-9.76-3.227-13.547
		c-4.454,5.578-4.775,17.849-8.661,24.593c0.251-7.206,3.394-12.515,4.189-19.109c0.401-3.296-1.309-5.27-3.152-7.781l-2.046-0.246
		c-2.675,3.843-3.024,8.641-3.787,13.164c-1.558-4.78-1.704-9.467-2-14.445c-2.693,6.223-5.707,12.327-8.597,18.465
		c-3.668,5.835-5.001,12.953-8.954,18.406c-1.715-7.812,6.934-20.791,9.688-28.543l-1.176-1.936
		c-3.445-0.588-3.353-0.375-6.361,1.481c-5.152,8.405-4.374,18.401-5.946,27.709l-1.545-0.331
		c-0.996-10.04,6.456-18.57,1.504-27.619C1397.914,1518.359,1446.098,1503.593,1454.541,1500.584z"/>
	<path style="fill:#FEFEFE;" d="M1074.623,1191.947c8.102,11.952,14.612,25.722,21.913,38.285l-16.039,0.634l-24.095,0.082
		C1063.287,1218.215,1069.653,1205.568,1074.623,1191.947z"/>
	<path style="fill:#FEFEFE;" d="M1512.444,1182.982c5.678,16.409,8.923,33.749,14.563,50.299l-24.955,2.421l-13.824,0.878
		C1496.715,1218.832,1505.02,1201.214,1512.444,1182.982z"/>
	<path style="fill:#FEFEFE;" d="M2136.684,1614.475c0.267,1.463,0.405,1.669,0.131,3.368c-3.342,20.616-48.518,59.605-65.609,70.556
		c0.495-7.229,0.033-13.354-1.176-20.439C2094.442,1654.208,2117.428,1634.691,2136.684,1614.475z"/>
	<path style="fill:#FEFEFE;" d="M1028.411,748.065c4.459,4.315,7.301,14.904,10.456,20.634
		c11.085,20.139,33.452,35.885,52.083,48.431c-2.639,10.838-6.472,20.996-11.226,31.069c-2.724,4.495-6.143,8.589-9.354,12.745
		C1049.854,829.809,1031.994,785.414,1028.411,748.065z"/>
	<path style="fill:#FEFEFE;" d="M1157.317,902.246c10.427,13.02,13.182,67.388,14.394,86.411
		c-6.269-6.246-13.049-11.819-19.849-17.466c-10.114-7.504-20.552-13.944-31.917-19.374
		C1129.099,931.575,1137.904,914.201,1157.317,902.246z"/>
	<path style="fill:#FEFEFE;" d="M1152.059,1497.832l0.865,0.616c-0.118,18.131,7.088,39.877,17.726,54.576
		c12.648,17.479,29.342,23.643,49.706,27.049c-5.358,4.205-9.95,7.065-16.647,8.7c-2.269,0.146-4.546,0.267-6.821,0.21
		c-17.849-0.459-34.971-11.318-46.8-24.177c-9.185-9.983-15.238-22.013-14.278-35.852
		C1136.662,1516.69,1142.877,1505.787,1152.059,1497.832z"/>
	<path style="fill:#FEFEFE;" d="M471.262,1660.423c10.497,6.844,18.278,21.235,28.192,29.716
		c29.794,25.488,67.899,44.303,103.879,59.574c-2.233,5.258-4.166,10.669-6.21,16.003l-0.549,3.622l-2.023,0.377
		C548.087,1745.042,487.722,1713.793,471.262,1660.423z"/>
	<path style="fill:#FEFEFE;" d="M1471.314,1494.636c0.208,0.033,3.82,0.583,4.043,0.644c4.716,1.273,8.733,6.669,10.787,10.902
		c4.023,8.292,2.526,19.261-0.413,27.663c-5.486,15.677-18.542,27.863-33.47,34.607c-23.204,10.481-48.939,7.876-72.127-0.94
		c-7.545-4.023-14.566-8.551-21.661-13.313c13.626,5.635,25.779,8.438,40.529,8.086c24.077-0.578,58.542-9.596,65.648-36.173
		C1467.24,1516.423,1464.45,1501.821,1471.314,1494.636z"/>
	<path style="fill:#FEFEFE;" d="M1418.807,901.831c21.348,14.992,35.31,28.608,49.257,50.751
		c-10.707,5.175-20.393,11.082-30.047,18.026c-9.686,7.265-17.102,15.215-24.731,24.577
		C1411.904,964.365,1414.736,932.407,1418.807,901.831z"/>
	<path style="fill:#FEFEFE;" d="M1085.811,1849.068c43.953,0.195,87.876,2.924,131.861,3.268
		c0.813,10.132,0.619,20.243-0.583,30.335c-18.693,3.979-91.617-1.389-114.422-2.721
		C1098.022,1868.95,1089.017,1860.751,1085.811,1849.068z"/>
	<path style="fill:#FEFEFE;" d="M1434.9,843.489c2.131,2.033,9.226,31.773,12.276,38.594c14.36,32.13,38.647,49.147,70.774,61.338
		c-10.376,7.432-20.249,15.456-30.174,23.471c-4.682-12.581-10.433-23.766-17.756-35.017c-9.637-13.477-20.367-25.235-34.427-34.209
		c-8.104-5.173-16.822-9.141-25.809-12.504c-10.677-3.994-52.795-13.97-57.159-20.583c5.057-4.205,46.097-10.32,55.991-12.794
		C1417.578,849.539,1426.244,846.695,1434.9,843.489z"/>
	<path style="fill:#FEFEFE;" d="M1225.085,1279.548c53.855,13.816,84.442,15.695,138.461,2.007
		c-3.845,8.782-8.304,17.364-12.494,25.989c-2.906,6.906-6.713,12.848-11.439,18.64c-30.009,3.65-58.198,0.603-87.92-3.427
		C1243.008,1308.241,1234.138,1293.838,1225.085,1279.548z"/>
	<path style="fill:#FEFEFE;" d="M1742.521,1318.278c20.791,8.664,40.909,19.679,61.263,29.375
		c26.379,12.566,53.162,24.123,79.246,37.331c-3.596,2.233-7.48,4.079-11.244,6.025c-11.27,5.201-23.599,7.475-35.955,7.943
		c-26.436,1.001-51.675-6.585-71.046-25.075C1748.14,1357.985,1743.045,1340.619,1742.521,1318.278z"/>
	<path style="fill:#FEFEFE;" d="M1421.8,1849.052l18.732-1.019l4.079,28.515c-20.578,2.541-42.264,2.731-63.004,3.617
		c-43.469,2.036-86.962,3.02-130.477,2.949l-18.786-0.131c-0.195-9.909-0.105-19.841-0.154-29.753
		C1295.68,1853.501,1358.414,1853.142,1421.8,1849.052z"/>
	<path style="fill:#FEFEFE;" d="M1100.238,823.016c47.517,23.471,86.464,33.991,138.004,43.838
		c-11.703,3.889-24.136,6.133-36.121,9.072c-15.789,3.876-31.442,8.244-46.957,13.102c-5.691,1.971-12.081,3.884-17.202,7.106
		c-15.094,9.49-26.2,26.061-45.365,27.773c-15.541,1.391-27.011-8.471-37.972-17.916c8.774-4.752,17.138-10.777,24.089-17.962
		C1096.587,869.557,1100.538,847.868,1100.238,823.016z"/>
	<path style="fill:#FEFEFE;" d="M1222.194,1315.164c24.328,6.947,48.911,33.259,60.786,55.072c2.005,3.684,3.799,7.653,4.567,11.801
		c1.034,5.589,1.222,31.904-0.336,36.999c-2.049,1.651-1.117,1.34-2.428,1.671c-3.132-8.577-8.002-16.167-10.04-24.965
		c-0.647-2.803-0.747-4.112-3.363-5.622l-2.541,1.358c-3.073,7.48,2.849,20.311,5.162,27.645c2.955,11.431,10.137,28.02,9.539,39.52
		l-1.553,1.733c-3.096-0.359-4.754-1.574-6.844-3.905c-2.49-2.78-1.497-9.691-2.267-13.367c-1.538-7.347-4.639-15.002-7.391-21.969
		c-2.739-6.936-6.117-3.401-9.375-7.375c-4.187-5.101-3.273-12.805-8.022-17.777l-1.828,0.01
		c-4.793,5.203-5.224,27.303-7.655,35.631l-0.719-1.309c-3.958-7.342-13.526-35.19-19.625-38.152
		c-4.88,5.632-4.172,41.61-5.296,51.164c-10.594-37.007-18.978-76.43-23.44-114.715c9.265-6.405,16.807-10.212,28.015-12.499
		L1222.194,1315.164z"/>
	<path style="fill:#FEFEFE;" d="M1357.859,1319.32c17.959-0.521,31.47,4.426,47.334,12.137c0.408,7.683,0.516,15.426-0.331,23.083
		c-1.882,17.007-6.798,33.5-9.141,50.43c-1.189,8.582-2.487,33.277-5.886,40.139c-0.408,0.827-1.17,1.422-1.758,2.131
		c-6.87-12.792-1.61-33.667-10.42-45.24c-2.049-2.69-2.608-3.027-5.714-3.286c-7.807,8.635-2.585,43.907-12.489,54.142l-1.946-0.986
		c-7.052-15.628-1.014-35.79-4.395-52.766c-0.588-2.952-0.388-4.12-2.924-5.799c-6.423,7.853-7.76,25.296-8.769,35.292
		c-1.089,8.063-0.547,26.533-6.88,32.024c-1.371,1.189-2.218,0.503-3.82,0.203c-8.338-14.45,1.466-50.441-1.576-68.898l-1.941-0.829
		c-2.837,2.621-3.56,7.19-4.667,10.787l-1.022-0.2l0.259,2.031l1.563-0.247l-3.689-2.367c1.127-4.028,1.299-6.831,0.927-11.003
		l-0.131-1.337c-11.965,21.343-18.406,46.513-25.245,69.891c-2.911-5.856-4.77-12.011-6.754-18.221
		c3.709-8.228,7.722-16.55,10.119-25.278c7.18-26.123,8.515-45.91,27.724-67.288c9.111-10.137,21.194-17.079,30.399-27.234
		L1357.859,1319.32z"/>
	<path style="fill:#FEFEFE;" d="M2001.375,1534.251c16.296-0.86,31.768,4.069,45.645,12.34
		c19.299,11.503,36.329,30.854,41.404,53.162c2.303,10.13,1.9,20.49-3.876,29.406c-6.713,10.361-17.361,15.125-28.864,17.833
		c-21.563,0.665-40.07-3.84-57.687-16.619c-17.033-12.353-30.72-31.221-33.549-52.417c-1.345-10.073,0.054-20.675,6.51-28.836
		C1978.872,1539.113,1989.354,1535.943,2001.375,1534.251z"/>
	<path style="fill:#FEFEFE;" d="M657.388,1440.902c7.498,3.17,14.46,8.933,19.648,15.151c9.08,10.882,12.699,24.798,11.141,38.789
		c-2.608,23.44-18.963,44.67-36.879,58.986c-22.732,18.16-48.695,24.832-77.369,21.743c-14.432-4.038-24.318-9.491-35.218-19.818
		C569.863,1512.457,618.481,1476.821,657.388,1440.902z"/>
	<path style="fill:#FEFEFE;" d="M1324.295,867.144c3.273-0.4,7.601-1.286,10.879-0.839c3.019,0.411,3.717,1.584,5.401,3.799
		c0.015,2.837-0.216,6.225,0.367,8.987c0.786,3.722,3.011,5.083,5.948,6.993c1.45-1.058,3.055-2.29,4.68-3.044
		c5.845-2.711,14.614,1.764,20.26,3.82c-2.103,9.206-4.736,18.124-8.62,26.749c-9.783,21.715-26.03,40.362-48.926,48.554
		c-18.786,6.723-34.512,2.875-51.837-5.17c-0.359-0.19-0.721-0.37-1.076-0.567c-27.601-15.495-42.103-41.707-50.582-71.416
		c6.726-0.683,13.536-0.708,20.29-0.919l9.095,10.194c1.735-8.985,3.789-17.862,5.92-26.759
		C1272.086,870.122,1298.311,869.467,1324.295,867.144z"/>
	<path style="fill:#FEFEFE;" d="M914.681,570.146c12.201-1.047,25.64,1.361,37.315,4.87c34.468,10.361,65.676,39.079,82.48,70.448
		c-1.322,11.074-5.039,22.033-7.504,32.918c-3.134,13.844-4.564,27.493-5.46,41.641c-0.549,1.833,0,0.878-2.369,2.303
		c-2.485-0.326-4.803-0.729-7.211-1.44c-38.473-11.388-61.328-44.562-79.564-78.411c-8.746-16.237-31.816-50.217-26.428-68.202
		C909.062,571.003,910.379,571.121,914.681,570.146z"/>
	<path d="M918.968,589.114c1.371,0.139,1.756,0.151,3.283,0.472c30.466,6.443,65.756,23.332,83.62,49.804
		c8.197,12.142,14.232,25.748,11.305,40.604c-2.082,0.046-2.588,0.567-3.943-1.302c-1.884-2.598-2.95-7.84-4.367-10.913
		c-2.552-5.532-5.807-11.018-9.159-16.106C988.393,634.51,937.954,601.043,918.968,589.114z"/>
	<path style="fill:#FEFEFE;" d="M617.727,1755.393c142.144,61.936,296.482,84.721,450.502,91.873
		c4.397,10.384,10.684,19.343,15.546,29.401l-2.067,0.809c-135.437-9.681-350.868-39.887-471.016-101.112
		C612.608,1769.244,615.26,1762.331,617.727,1755.393z"/>
	<path style="fill:#FEFEFE;" d="M1641.504,567.861c10.42-0.634,20.465,0.092,30.851,0.978c-1.799,9.498-4.022,18.622-7.255,27.747
		c-16.742,47.288-48.638,96.877-95.079,119.202c-4.659,1.684-10.659,3.828-15.531,2.529c-6.448-7.493-11.773-40.203-12.815-50.792
		c-2.28-23.209,4.495-44.331,19.474-62.221C1581.586,580.899,1610.542,570.382,1641.504,567.861z"/>
	<path d="M1639.004,627.536l2.005,0.693c-3.851,5.943-13.896,10.137-19.602,14.596c-15.5,12.109-27.316,29.506-36.34,46.736
		l-1.425-0.195c-1.337-3.332-0.957-5.822,0.316-9.182C1593.559,654.862,1614.963,637.863,1639.004,627.536z"/>
	<path d="M1655.933,585.815l7.098-0.326l0.688,1.029c-10.72,10.651-50.02,21.219-69.265,36.835
		c-18.144,14.722-33.002,37.143-35.372,60.719c0.472,0.814,0.691,2.143,0.947,3.06l-1.373,0.49
		c-3.093-2.878-3.858-6.202-4.159-10.309c-1.409-19.297,7.971-40.758,20.1-55.315
		C1593.677,599.095,1627.108,588.254,1655.933,585.815z"/>
	<path style="fill:#FEFEFE;" d="M1556.41,733.297c3.951-0.359,7.103-0.429,11,0.357c7.267,8.489,14.473,101.151,14.779,118.625
		c-15.79-4.536-27.991-9.775-41.122-19.779c12.03,28.305,23.461,39.425,51.778,52.012c-13.405,13.852-28.543,21.291-47.263,25.291
		c-20.311,2.757-42.429,1.81-59.885-10.184c-20.819-14.304-27.013-39.826-31.781-63.073c37.579-17.053,83.725-39.256,96.029-82.609
		C1551.44,748.671,1552.475,736.811,1556.41,733.297z"/>
	<path style="fill:#FEFEFE;" d="M1382.519,890.759c8.374,2.362,16.612,5.496,24.839,8.341c-3.493,20.65-5.411,41.444-5.755,62.383
		c-0.003,17.618,0.968,35.544-0.924,53.074c-85.486-22.783-133.003-18.262-218.515-2.282c0.572-38.303-1.314-75.96-11.218-113.198
		l28.759-7.963c7.401,11.578,10.594,27.398,17.61,39.718c11.768,20.67,32.928,37.567,55.978,43.846
		c21.391,5.827,42.454,1.763,61.292-9.403C1362.847,948.518,1374.907,921.433,1382.519,890.759z"/>
	<path style="fill:#FEFEFE;" d="M1147.836,1730.446c17.644-1.938,34.527,0.683,50.135,9.319c16.542,9.152,29.906,24.1,34.81,42.608
		c5.437,20.519-0.377,36.802-10.512,54.355c-18.384,0.247-36.766,0.13-55.146-0.352c-28.777-2.318-57.741-1.476-86.549-4.102
		c-0.786-2.566-1.491-5.152-2.118-7.76c-4.331-18.593-0.803-37.107,9.159-53.285
		C1101.293,1749.018,1122.923,1736.255,1147.836,1730.446z"/>
	<path style="fill:#FEFEFE;" d="M2056.01,1678.652l1.15,0.619c3.065,4.074,3.732,9.791,4.86,14.684
		c-38.229,31.365-90.867,54.864-136.456,73.357c-158.882,64.457-299.95,90.52-469.036,108.436c-1.818-0.483-0.721-0.051-3.006-1.848
		c-1.661-8.759-1.792-17.857-2.272-26.746c32.35-1.684,64.454-8.322,96.468-12.964
		C1714.951,1809.933,1908.958,1765.032,2056.01,1678.652z"/>
	<path style="fill:#FEFEFE;" d="M1273.493,126.285c22.595-2.796,48.862,1.059,70.161,8.9c42.593,15.68,79.998,52.461,98.976,93.382
		c-90.962-29.852-157.652-35.755-249.851-6.979l-4.118,0.436c-4.261-5.233-3.514-29.654-12.746-38.559
		c-4.61,5.916,0.986,34.332,1.615,42.467c-19.982,5.875-51.452,21.855-71.981,13.101c-7.812-3.331-11.56-9.159-14.365-16.935
		c-3.299-9.13-5.304-21.012-0.85-30.018c1.26,0.649,0.739,0.226,1.743,1.51c4.12,5.275,8.24,9.358,14.345,12.318
		c10.602,5.141,32.571,8.753,43.912,4.659c2.788-1.006,2.849-0.884,4.064-3.713c-1.71-4.026-6.004-4.088-7.74-8.001
		c1.155-3.731,3.234-6.314,5.668-9.3C1183.429,151.374,1224.857,131.31,1273.493,126.285z"/>
	<path style="fill:#FEFEFE;" d="M1502.669,1050.624c27.665,8.551,75.2,37.538,99.058,54.794
		c56.25,40.688,79.616,96.196,90.495,162.714c-14.712-4.908-31.293-5.64-42.739-17.094c-0.352-0.352-0.693-0.711-1.042-1.068
		c-11.549-1.661-22.362-7.74-33.775-10.453c-20.565-4.893-43.866-4.89-64.914-6.282c-5.922-15.328-10.05-31.647-14.694-47.419
		c-5.86-17.294-11.251-34.732-16.175-52.314c47.096,28.104,92.032,64.264,123.623,109.676l1.012,1.473l1.278-0.193
		c0.028,2.002-0.267,0.914,1.764,2.891l0.323-0.429c-4.287-8.045-10.913-15.823-16.632-22.986
		c-32.181-40.303-71.267-68.841-114.8-95.683C1509.338,1106.139,1504.673,1073.656,1502.669,1050.624z"/>
	<path style="fill:#FEFEFE;" d="M1473.938,963.733l1.892,0.924c2.156,3.063,2.998,5.76,3.815,9.406
		c6.939,30.977,9.816,64.208,14.483,95.675c4.002,26.983,11.3,59.505,11.891,86.393c0.993,45.137-65.43,135.827-97.944,168.942
		c-15.218-6.215-29.468-10.581-45.879-12.214c0.069-1.617,0.008-1.915,0.526-3.707c3.137-10.869,62.806-124.58,70.379-133.647
		c6.844-8.192,16.563-12.26,26.025-16.558c-4.328-2.621-8.851-4.939-13.303-7.344c-1.513-11.858-3.341-23.668-5.483-35.431
		c-2.143-11.761-4.598-23.456-7.365-35.087c-2.767-11.629-5.843-23.176-9.226-34.643c-3.383-11.466-7.07-22.834-11.061-34.104
		C1429.15,989.935,1448.68,975.095,1473.938,963.733z"/>
	<path style="fill:#FEFEFE;" d="M1114.919,961.977c17.746,3.214,42.056,19.841,52.569,34.697c2.647,3.738,3.881,7.157,3.823,11.77
		c-0.2,15.993-6.03,33.993-9.75,49.555c-6.454,26.998-13.377,53.716-17.584,81.184c-7.958,3.394-12.91,7.011-19.004,13.023
		c11.559,2.842,22.998,6.171,31.27,15.31c15.615,17.261,30.959,63.923,42.18,86.967c9.829,20.193,21.517,38.537,34.306,56.951
		c-18.337-1.669-32.05,3.758-48.636,10.266c-32.04-29.485-84.108-99.852-99.621-140.273c-4.048-10.553-6.202-20.991-6.133-32.314
		C1078.546,1116.254,1101.547,991.984,1114.919,961.977z"/>
	<path style="fill:#FEFEFE;" d="M1077.416,1044.858l1.522,0.721c1.959,7.845-7.814,55-9.84,66.174
		c-52.43,22.336-97.118,52.71-136.982,93.236c-6.32,6.423-15.279,14.096-19.507,21.956c1.897-0.193,0.788,0.144,2.834-1.982
		c47.168-49.031,89.938-81.574,152.998-109.206c-3.142,43.825-7.522,51.396-26.746,90.338c-4.164,8.371-8.6,16.319-13.588,24.228
		c-17.954,3.065-35.759,6.839-53.413,11.321c-17.655,4.48-35.104,9.655-52.348,15.523c-14.489,4.79-28.944,13.731-43.907,16.119
		l-1.078-3.283c-5.632,7.835-12.017,10.879-20.96,14.324l-1.517,0.573c6.187-33.036,14.247-64.198,29.871-94.274
		C924.873,1113.391,996.743,1070.015,1077.416,1044.858z"/>
	<path style="fill:#FEFEFE;" d="M1100.63,2306.147c7.488,46.944,19.974,70.882,52.114,105.612
		c10.486-15.967,17.289-36.375,24.22-54.191c16.642,32.381,39.145,55.572,66.554,78.907c7.054,6.007,25.979,23.771,35.652,23.011
		c13.99-11.747,25.114-46.02,30.89-63.558c11.306,13.891,22.429,27.928,33.37,42.11c29.144-29.783,37.705-72.684,39.081-112.736
		c20.465,29.517,40.929,56.414,66.739,81.61c2.112-2.858,4.143-5.771,6.094-8.741c1.953-2.971,3.821-5.992,5.604-9.064
		c1.785-3.074,3.484-6.194,5.096-9.36c1.614-3.168,3.139-6.376,4.575-9.626c1.434-3.252,2.778-6.539,4.033-9.863
		c1.254-3.325,2.417-6.682,3.486-10.071c1.07-3.39,2.044-6.806,2.924-10.248c0.881-3.443,1.667-6.908,2.357-10.394
		c5.465,16.889,12.83,33.37,18.552,50.264c20.293-19.002,35.12-39.682,42.367-66.762c5.722,21.284,7.303,43.846,1.825,65.368
		c-8.926,35.056-33.488,63.784-64.426,81.651c-68.353,39.482-181.664,45.011-257.481,24.303
		c-44.914-12.268-90.857-35.362-114.456-77.382C1091.884,2375.083,1090.911,2340.846,1100.63,2306.147z"/>
	<path style="fill:#FEFEFE;" d="M829.01,988.86c77.86-6.769,152.885,26.025,229.433,38.876
		c-16.455,6.074-35.079,15.22-52.271,17.988c-14.946,2.405-55.043-1.309-73.757-0.978c-15.308,0.192-30.601,0.793-45.876,1.805
		c-15.276,1.013-30.513,2.435-45.712,4.266c-15.199,1.831-30.339,4.069-45.419,6.713c-15.079,2.644-30.076,5.691-44.991,9.141
		c-18.485,4.384-109.755,30.72-117.67,43.586c86.187-44.041,189.24-56.301,284.527-61.487c28.472-0.567,56.733,1.03,85.168,1.448
		c-40.886,23.897-73.254,47.185-105.312,82.519c-10.864,11.973-17.638,30.066-31.277,38.953
		c-56.745,36.974-121.8,31.334-182.509,8.484c-20.703-7.794-40.665-18.121-61.738-24.837c-15.957-5.088-33.09-6.441-49.504-9.722
		c3.116-5.769,6.536-11.352,10.258-16.748c3.724-5.396,7.729-10.574,12.016-15.533C653.463,1044.465,738.005,996.179,829.01,988.86z
		"/>
	<path style="fill:#FEFEFE;" d="M1664.605,981.962c9.934-0.922,21.094,0.827,31.041,1.789c43.912,4.243,88.603,11.352,129.609,28.14
		c51.824,21.214,97.387,50.389,134.171,93.182c9.798,11.4,19.805,24.19,25.655,38.129c-28.056,0.721-54.694,14.329-80.142,24.811
		c-68.972,28.412-141.289,31.216-213.632,14.964c-46.456-77.084-72.805-93.919-150.441-134.502
		c18.573,0.167,37.297-1.022,55.824-2.236c94.866-2.151,191.532,9.072,281.203,41.299c15.929,5.725,31.975,13.2,47.144,20.693
		c6.202,3.065,12.504,7.439,19.004,9.596c0.549,0.182,1.101,0.352,1.651,0.526l-0.865,1.656l1.209-1.255
		c-0.95-0.708-1.887-1.435-2.87-2.095c-88.564-59.474-260.779-79.39-365.601-73.693c-13.88,0.755-28.592,0.678-42.275,3.068
		c-13.148-6.941-26.792-13.68-38.996-22.195c19.841-5.299,41.063-7.108,61.263-11.264
		C1594.2,1005.032,1629.387,994.469,1664.605,981.962z"/>
	<path style="fill:#FEFEFE;" d="M1280.336,1011.992c43.841-1.615,83.448,4.187,125.533,16.237
		c6.184,43.607,15.043,86.808,20.336,130.533c-8.207,18.257-18.665,35.765-27.976,53.5c-9.809,18.686-18.588,37.875-29.36,56.042
		c-18.681,8.096-37.038,10.864-57.146,12.686c-31.742,1.011-64.932-3.129-94.592-14.825c-12.871-22-23.458-45.717-34.494-68.687
		c-6.313-13.133-16.876-29.837-19.828-44.036c-4.736-22.778,13.441-97.67,17.243-124.683
		C1211.867,1018.379,1246.944,1013.434,1280.336,1011.992z"/>
	<path style="fill:#FEFEFE;" d="M1884.565,633.314c23.183-2.159,45.864,0.521,68.436,5.709
		c-59.071,59.654-76.987,129.576-124.94,193.689c-53.875,72.03-127.009,113.157-211.05,140.181
		c-18.236,5.866-36.719,11.791-55.441,15.913c-22.252,4.903-44.983,7.724-67.532,10.918c-1.137-9.953-3.158-19.551-5.345-29.321
		c10.352-9.319,21.301-17.875,32.846-25.668c16.596,7.555,33.154,13.975,51.601,14.581c23.286,0.765,42.508-6.492,59.554-22.321
		c-37.11,11.033-55.598,6.536-91.904-4.064c23.992-8.484,47.414-12.34,65.728-31.783c6.995-7.424,12.484-17.11,12.373-27.463
		c-5.342-3.291-12.889-4.834-16.848-9.932c-0.999-1.286-1.04-1.219-0.686-2.762c6.277-27.309,166.041-123.862,197.699-140.268
		c12.091-6.266,24.564-12.152,37.056-17.582c7.203-3.134,17.62-5.375,23.743-9.996c-31.049,2.403-152.667,77.228-180.289,96.404
		c-26.087,18.108-51.003,38.265-76.371,57.392c-1.189-21.078-4.136-41.884-7.165-62.76c16.519-13.883,31.66-29.362,48.415-42.983
		C1712.666,685.739,1795.454,639.621,1884.565,633.314z"/>
	<path style="fill:#FEFEFE;" d="M667.967,632.066c9.948-0.099,19.879,0.272,29.791,1.114
		c121.623,11.21,256.359,119.608,332.255,210.94c6.774,8.151,18.226,21.371,17.181,32.425c-7.678,12.756-22.406,3.35-31.842,9.434
		c-0.057,1.682-0.149,1.851,0.295,3.758c0.883,3.794,3.753,8.325,6.259,11.277c6.603,7.778,15.441,13.706,22.806,20.732
		c10.884,10.389,19.661,21.849,31.768,31.075c7.008,5.339,14.625,9.146,22.521,12.992c-0.868,9.616-2.436,18.824-4.954,28.143
		c-10.923-11.164-20.624-24.084-30.89-35.919c-21.694-25.231-44.007-49.901-66.939-74.009
		c-81.9-85.109-205.872-173.011-321.398-201.775c6.43,3.666,14.337,5.763,21.34,8.23c135.362,46.112,249.163,140.365,343.809,245.2
		c13.146,14.563,42.079,43.743,50.271,60.052c1.73,3.442,2.015,5.743,0.742,9.331c-1.912,1.163-3.435,1.358-5.635,1.415
		c-25.447,0.67-54.871-8.158-79.772-13.847c-111.285-25.419-227.066-73.583-290.871-173.892
		c-16.853-26.497-29.665-56.458-42.246-85.196c-9.524-21.751-18.403-43.756-32.569-63.03c-8.787-11.957-19.24-21.723-30.127-31.691
		C629.109,634.636,648.239,632.862,667.967,632.066z"/>
	<path style="fill:#FEFEFE;" d="M1039.031,1249.331c23.268-3.804,50.651,0.634,72.802,7.881
		c22.572,24.541,43.764,49.373,67.784,72.656l-0.555,18.45c-56.766-40.906-114.784-55.826-183.723-49.75
		c80.342,14.237,116.022,19.127,185.14,66.654c4.261,19.772,14.599,72.456,29.511,85.602c12.463,2.993,5.797,6.952,12.676,13.962
		c1.178-0.218,2.192-0.336,3.299-0.901c6.592-3.355,8.759-12.188,10.992-18.617c2.665,7.963,7.416,23.622,15.415,27.339
		c5.853,2.719,11.198-5.483,16.255-7.288c0.375,0.313,0.744,0.637,1.127,0.942c0.508,0.406,1.029,0.791,1.54,1.191
		c1.466,1.153,1.366,1.289,3.294,1.974c6.169,2.195,19.5,2.418,25.437-0.216c10.425-4.626,13.906-21.358,17.397-31.3
		c0.324,5.781,0.973,11.388,2.19,17.053c1.145,5.322,3.33,12.355,8.674,14.922c2.744,1.319,6.654,1.181,9.442-0.026
		c4.228-1.83,5.15-3.848,6.551-8.004c0.847-2.518,1.379-4.249,3.116-6.336c3.612,3.176,6.466,8.233,11.267,9.773
		c2.554,0.821,5.016,0.265,6.998-1.522c7.208-6.5,7.732-29.924,8.938-39.371c1.679,8.808,5.417,29.177,13.767,33.934
		c1.561,0.888,2.423,0.21,4.02-0.208c13.066-11.873,19.376-67.804,22.901-87.222c17.98-14.055,40.188-24.852,60.236-35.67
		c20.208-10.908,40.414-22.272,61.117-32.201c12.617-6.053,25.658-11.208,37.941-17.934
		c-57.495,11.249-107.804,35.962-157.287,66.523c-0.051-6.384-0.562-12.25-1.497-18.565l9.272-8.672
		c18.311-20.609,35.911-41.564,51.2-64.552c49.568-7.414,126.108-17.258,169.474,11.087c15.97,10.438,26.431,26.158,30.04,44.834
		c3.607,18.66-0.4,36.566-11.09,52.232c-10.502,15.392-25.686,28.407-40.252,39.802c-66.762,52.235-120.753,59.816-195.498,88.436
		c-62.842,24.064-126.18,51.791-192.621,64.275c-0.272-25.64-4.978-42.426-16.814-65.201c15.39,0.136,29.129,0.945,43.923-4
		c-22.991-9-48.361-8.471-72.62-10.915c-69.519-7.001-138.72-27.65-196.091-68.438c-23.871-16.974-51.668-43.281-56.206-73.793
		c-2.582-17.348,2.919-34.186,13.421-47.969C973.183,1262.305,1005.795,1253.749,1039.031,1249.331z"/>
	<path style="fill:#FEFEFE;" d="M1275.69,220.016c7.368-0.873,15.159-0.758,22.595-0.765c89.563-0.086,172.326,31.24,235.527,95.18
		c1.7,1.727,3.377,3.475,5.034,5.245c1.657,1.768,3.292,3.556,4.906,5.365c1.612,1.809,3.203,3.637,4.772,5.486
		c1.568,1.848,3.112,3.716,4.634,5.601c1.521,1.886,3.02,3.791,4.495,5.714c1.475,1.924,2.926,3.864,4.354,5.822
		c1.427,1.96,2.831,3.935,4.21,5.927c1.378,1.994,2.731,4.004,4.061,6.03c1.33,2.026,2.634,4.069,3.912,6.128
		c1.278,2.059,2.532,4.133,3.761,6.223c1.227,2.09,2.429,4.194,3.607,6.312c1.176,2.119,2.325,4.252,3.448,6.4
		c1.124,2.148,2.222,4.308,3.294,6.482c1.07,2.175,2.113,4.362,3.129,6.561c1.017,2.201,2.007,4.414,2.97,6.638
		c0.962,2.223,1.896,4.459,2.803,6.708c0.907,2.247,1.787,4.505,2.639,6.775c0.852,2.268,1.676,4.546,2.472,6.836
		c0.794,2.29,1.561,4.588,2.3,6.895c0.739,2.309,1.45,4.626,2.133,6.952c0.681,2.326,1.334,4.659,1.959,7
		c0.625,2.341,1.221,4.69,1.789,7.047c0.566,2.357,1.104,4.72,1.612,7.09c0.508,2.368,0.987,4.744,1.438,7.126
		c0.45,2.381,0.871,4.767,1.263,7.16c0.392,2.391,0.754,4.787,1.086,7.188c0.334,2.401,0.637,4.806,0.911,7.214
		c0.272,2.408,0.516,4.819,0.732,7.234c0.214,2.413,0.398,4.829,0.552,7.249c0.154,2.418,0.279,4.838,0.375,7.26
		c0.096,2.422,0.161,4.844,0.195,7.267c0.036,2.423,0.042,4.847,0.018,7.27c-5.943-14.984-10.972-30.245-17.71-44.929
		c-19.086-41.594-45.899-69.637-88.954-85.569c6.004,4.336,11.914,8.749,17.497,13.626c39.99,34.92,74.299,95.757,78.003,149.204
		c-13.657,8.844-29.36,15.076-43.358,23.743c-13.274-70.572-86.608-80.165-144.368-97.649
		c-15.984-4.922-31.453-11.131-46.405-18.627c-46.901-23.815-85.679-61.528-118.45-102.201
		c10.512,59.31,20.151,94.692,66.346,136.063c-26.21-7.111-46.066-18.986-67.198-35.867c-7.63-6.621-15.233-13.174-22.29-20.413
		c-51.899-53.228-67.504-108.793-66.474-181.403c-15.518,40.439-11.146,67.083,0.999,107.391
		c-11.829,46.747-71.776,93.39-103.015,132.295c-34.332,42.757-36.422,62.223-30.815,115.021
		c-7.906-10.186-17.849-18.886-27.085-27.853c-6.682-76.671,7.786-130.405,44.143-197.367c-1.143,1.189-2.256,2.406-3.337,3.65
		c-45.176,51.462-60.465,114.176-56.494,181.084c-9.922-5.956-19.964-11.11-30.677-15.477
		c-4.875-81.012,8.572-168.652,62.663-232.426c43.214-50.952,88.392-66.074,149.794-84.643
		C1206.23,231.783,1239.343,223.063,1275.69,220.016z"/>
	<path style="fill:#FEFEFE;" d="M1439.801,1906.807c8.256-0.739,16.624-0.909,24.908-1.304
		c-1.112,90.633,5.342,183.811,33.1,270.642c10.227,31.991,30.682,71.452,37.207,102.352c5.424,25.694-14.347,57.392-27.583,78.006
		c-16.09-53.993-32.407-110.962-63.664-158.484c5.784,14.514,11.498,29.118,16.111,44.054
		c16.699,54.073,13.973,93.842-12.427,143.877c-29.062-26.883-60.678-69.057-75.775-105.582
		c-10.132-24.521-15.698-50.289-21.248-76.119c-1.127,23.961,3.758,48.376,9.336,71.544c12.62,52.417,11.852,88.716-13.829,136.789
		c-0.614,0.914-1.566,1.533-2.413,2.229c-7.252-4.097-23.142-26.883-31.311-34.756c-1.039-16.932-3.019-33.754-5.94-50.464
		c-2.831,39.674-8.939,78.75-32.481,111.925c-49.955-33.182-87.599-78.147-97.38-138.378c-1.92-11.819-1.663-39.6-3.805-46.621
		c-2.205,14.047-4.087,28.297-4.271,42.531c-0.141,10.913,1.409,21.879,0.804,32.766c-0.924,16.619-11.293,39.317-20.28,53.357
		l-1.078,1.658c-22.526-27.881-32.905-61.284-33.459-96.994c-0.675-43.381,20.262-105.987,29.195-150.618
		c15.479-77.328,20.462-148.508,18.55-227.269C1254.124,1913.484,1348.04,1914.58,1439.801,1906.807z"/>
	<path style="fill:#FEFEFE;" d="M1174.375,384.492c6.094,9.652,11.059,20.039,17.32,29.688
		c21.163,32.602,50.435,62.678,84.336,81.964c14.656,8.338,49.966,22.249,66.467,15.965c3.176-1.209,5.25-2.706,6.592-5.884
		c2.76-6.52-25.861-25.083-30.949-29.665c-20.359-18.342-33.444-46.361-42.421-71.701c30.004,34.06,69.26,64.78,111.588,81.728
		c17.592,7.044,36.034,11.77,54.258,16.866c23.05,6.446,47.345,12.14,68.49,23.697c29.93,16.36,35.153,35.68,44.054,66.364
		c-3.943,4.279-7.76,8.918-11.18,13.626c-24.557,33.803-11.529,70.143-5.986,107.312c3.504,23.512-0.737,40.93-14.825,60.226
		c-10.599,11.696-22.916,20.996-36.632,28.746c-90.826,51.324-207.245,62.906-306.964,34.825
		c-46.626-13.128-106.642-38.76-131.07-83.25c-21.769-39.641-5.799-67.019,0.511-105.466c4.852-29.581-9.48-59.269-1.879-88.572
		C1063.906,492.279,1157.124,444.577,1174.375,384.492z"/>
	<path d="M1288.962,686.94c4.018-0.514,8.787-0.95,12.789-0.318c4.734,0.747,8.785,4.005,11.66,7.647l-0.775,0.875
		c-3.542-0.012-7.084,0.038-10.625,0.149c-6.048,0.218-11.629,0.611-15.608,5.748c-2.629,3.394-1.956,6.962-1.499,10.9
		c2.274,3.158,4.775,6.063,5.694,9.922l-1.99,1.509c-4.266-1.099-7.488-4.141-9.87-7.763c-2.749-4.182-4.22-9.226-3.05-14.198
		C1277.464,693.874,1282.677,690.652,1288.962,686.94z"/>
	<path d="M1213.872,748.039c7.922,1.9,15.572,5.648,23.114,8.749c30.312,12.458,54.861,22.246,87.717,12.343
		c16.36-4.934,31.619-15.99,48.074-19.926c-0.814,2.349-2.552,2.844-4.554,4.22c-19.489,13.005-41.065,27.717-64.837,30.91
		C1274.732,788.181,1236.242,764.651,1213.872,748.039z"/>
	<path d="M1405.938,503.484c21.682-0.372,42.734,5.314,62.437,14.219c8.402,3.794,24.033,10.892,26.518,20.529
		c1.047,4.069,0.603,8.476-2.141,11.842c-2.241,2.749-5.006,2.826-8.235,3.055c-16.604-8.351-33.934-14.591-52.309-17.733
		c-9.873-1.687-20.914-2.295-30.448-5.193c-4.118-1.25-8.402-4.942-9.932-9.054c-1.379-3.702-1.666-8.684,0.716-12.117
		C1395.329,505.022,1401.559,504.331,1405.938,503.484z"/>
	<path d="M1162.261,503.564c5.314-0.803,12.966-1.142,18.118,0.352c4.428,1.284,9.811,5.029,11.916,9.188
		c1.114,2.2,1.286,4.392,0.136,6.677c-7.185,14.265-36.874,14.612-50.52,17.957c-9.809,2.405-18.881,5.558-28.112,9.637
		c-5.825,2.844-15.225,8.659-21.769,5.933c-2.375-0.988-4.053-2.667-4.392-5.273c-0.578-4.472,2.382-9.899,4.97-13.351
		C1107.271,515.108,1139.388,506.978,1162.261,503.564z"/>
	<path d="M1426.208,571.419c1.715-0.133,3.433-0.207,5.155-0.221c19.02-0.031,35.12,7.85,48.58,20.85
		c6.59-4.777,11.67-9.678,17.171-15.644c-2.621,7.293-10.047,18.403-7.511,25.897c7.979,1.25,17.859-7.134,24.046-11.621
		c-1.915,3.55-14.353,20.637-13.967,23.337c3.807,0.596,8.181,0.97,11.78,2.29c2.531,0.927,2.552,0.904,3.697,3.455
		c-0.287,0.644-0.498,1.33-0.862,1.936c-4.454,7.414-22.29,10.258-30.461,11.76c-7.27-16.478-19.225-37.805-36.979-44.95
		c-4.202-1.692-6.51-1.052-10.417,0.593l0.236,1.792l4.094,2.716c-4.811,5.057-12.104,11.621-12.386,19.03
		c-0.257,6.803,4.223,11.578,8.79,15.975c3.984,1.399,8.192,3.211,12.499,2.516c2.778-0.449,4.025-2.01,5.66-4.066
		c1.545-1.948,2.868-3.442,4.847-4.998l2.038,0.354c11.721,21.484-3.486,35.96-0.824,49.927c0.159,0.834,0.39,1.651,0.585,2.477
		l-1.212,1.142c-3.512-1.825-8.867-5.227-12.83-5.607c-3.704-0.354-4.664,0.549-7.537,2.541c-3.376,6.284-2.056,11.801-0.727,18.511
		l0.393,1.915c-1.676,2.962-6.174,4.931-9.426,5.737c-10.836,2.685-23.343-1.135-32.579-6.852
		c-13.282-8.225-20.729-21.207-24.033-36.26c-4.136-18.855-0.875-39.346,9.719-55.572
		C1394.014,584.653,1408.072,575.508,1426.208,571.419z"/>
	<path d="M1152.177,570.292c0.377-0.028,0.752-0.074,1.13-0.087c15.233-0.531,31.285,5.748,42.529,15.906
		c0.854,0.785,1.689,1.592,2.505,2.421c0.815,0.827,1.609,1.673,2.382,2.539c0.774,0.866,1.525,1.751,2.254,2.654
		c0.731,0.904,1.438,1.824,2.123,2.762c0.685,0.938,1.346,1.891,1.984,2.86c0.638,0.97,1.253,1.956,1.843,2.957
		c0.589,1,1.153,2.013,1.694,3.042c0.541,1.029,1.055,2.069,1.543,3.122c0.489,1.054,0.952,2.119,1.389,3.193
		c0.436,1.076,0.847,2.163,1.232,3.26c0.383,1.095,0.739,2.2,1.068,3.314c0.33,1.112,0.632,2.233,0.906,3.363
		c0.274,1.128,0.52,2.262,0.739,3.401c0.219,1.141,0.41,2.287,0.573,3.437c0.163,1.15,0.296,2.303,0.401,3.458
		c0.106,1.157,0.184,2.315,0.234,3.476c0.909,18.005-4.983,37.205-17.492,50.456c-8.335,8.828-19.466,14.807-31.791,14.838
		c-12.194,0.031-24.916-5.727-33.467-14.319c-12.882-12.941-16.047-29.953-16.129-47.468c1.448-19.872,9.347-33.315,19.705-49.724
		c-1.426,0.714-2.844,1.443-4.256,2.187c-19.163,10.122-28.184,25.07-34.309,45.132c-8.148-2.939-21.384-4.508-28.143-9.152
		c-3.073-2.115-4.395-3.116-5.129-6.8c1.697-1.576,4.182-1.63,6.425-1.977l1.984-0.29c-0.963-5.206-5.663-10.941-8.484-15.441
		c9.172,2.326,18.226,5.447,27.265,8.266c-2.788-6.048-5.963-11.521-6.163-18.283l1.638-1.653c4.546-0.041,7.468,2.572,11.043,5.037
		C1117.686,582.232,1130.278,573.203,1152.177,570.292z"/>
	<path style="fill:#FEFEFE;" d="M1183.021,595.496c2.015,0,2.002-0.039,4.282,0.172c5.922,0.544,11.11,2.903,14.727,7.74
		c2.909,3.887,3.974,8.572,2.911,13.331c-1.453,6.51-5.735,10.012-11.12,13.403c-2.277,0.098-4.5,0.213-6.762-0.139
		c-5.432-0.842-10.055-3.717-13.01-8.399c-0.298-0.464-0.572-0.94-0.821-1.43c-0.25-0.491-0.474-0.994-0.673-1.507
		c-0.199-0.513-0.37-1.035-0.516-1.566c-0.147-0.531-0.267-1.067-0.359-1.61c-0.092-0.542-0.156-1.089-0.192-1.638
		c-0.038-0.549-0.047-1.099-0.028-1.648c0.019-0.551,0.065-1.099,0.139-1.646c0.073-0.544,0.175-1.084,0.303-1.62
		C1173.433,602.36,1177.563,598.974,1183.021,595.496z"/>
	<path style="fill:#FEFEFE;" d="M934.163,1286.3c1.466,3.258-5.56,16.835-6.888,21.684c-6.035,22.085-2.67,44.826,8.9,64.524
		c39.862,67.856,137.891,98.884,209.954,117.046c-4.528,4.015-9.077,8.482-12.751,13.308c-8.328,10.938-12.591,23.869-10.558,37.61
		c2.903,19.638,17.384,36.509,33.231,47.586c13.68,9.56,31.439,16.581,48.274,13.113c15.405-3.173,23.866-15.729,32.086-27.917
		c31.092-6.197,61.076-14.797,91.116-24.89c24.757,18.347,53.421,37.759,84.97,40.103c23.34,1.735,46.094-3.876,63.743-19.844
		c11.816-10.689,21.03-26.387,21.243-42.644c0.167-12.686-5.311-22.634-13.97-31.462c66.318-24.693,146.514-56.578,190.326-114.89
		c19.109-25.435,19.597-51.57,15.441-81.977c13.431,3.982,26.454,9.275,39.528,14.283c-0.216,22.647,0.377,41.818,13.942,61.148
		c14.958,21.314,39.572,35.069,64.988,39.374c31.901,5.404,61.833-1.545,88.148-20.018
		c93.619,52.782,164.884,117.523,240.017,193.263c-8.071,12.792-17.805,23.363-29.64,32.705c-0.665-19.5-4.082-35.564-16.067-51.403
		c-17.918-23.674-44.816-41.992-74.599-45.756c-16.925-2.138-35.074-0.01-48.77,10.99c-9.945,7.989-15.813,19.594-17.158,32.207
		c-2.239,20.986,7.963,44.567,20.994,60.74c19.915,24.724,44.462,34.578,75.287,37.759
		c-72.055,42.495-151.792,71.201-231.017,96.935c-88.942,27.642-180.722,45.643-272.778,59.079
		c-31.418,4.588-62.917,9.509-94.569,12.181c-10.623-28.01-19.42-56.794-30.096-84.883l-0.896,0.175l-0.262-1.597l0.015,0.077
		l-2.192,2.677l2.706,0.329c5.994,27.894,12.797,55.757,18.139,83.774c-64.187,7.84-130.872,8.14-195.455,5.116
		c7.516-16.753,11.511-31.909,9.1-50.364c-2.814-21.522-14.784-39.692-31.783-52.774c-19.795-15.231-43.969-21.474-68.687-17.972
		c-26.128,3.699-52.055,18.588-67.768,39.869c-16.861,22.832-21.499,47.506-17.205,75.167
		c-130.023-5.748-329.78-32.581-444.929-93.911c12.427-26.574,26.965-50.98,40.645-76.794
		c-15.338,14.809-35.107,55.739-44.549,76.052c-51.729-21.217-105.456-45.43-134.677-95.534
		c12.692-26.169,30.461-50.148,48.515-72.854c17.605,14.704,33.832,23.407,57.125,24.151c30.82,0.983,61.441-12.171,83.641-33.274
		c18.932-17.995,34.656-43.561,34.776-70.395c0.118-25.986-12.651-39.715-29.491-57.21
		C750.478,1372.944,843.324,1317.42,934.163,1286.3z"/>
	<path d="M1651.734,1526.47c22.544-2.572,45.019,1.579,64.467,13.459c20.411,12.468,35.703,31.922,41.155,55.388
		c4.798,20.662,1.163,44.2-10.481,62.008c-13.616,20.819-34.92,31.113-58.581,36.057c-1.508,0.226-3.021,0.418-4.539,0.575
		c-1.518,0.156-3.038,0.277-4.559,0.364c-1.523,0.086-3.047,0.136-4.572,0.152c-1.527,0.017-3.052-0.002-4.574-0.057
		c-1.525-0.055-3.047-0.145-4.567-0.27c-1.521-0.125-3.038-0.285-4.551-0.48c-1.511-0.195-3.018-0.425-4.521-0.69
		c-1.503-0.265-2.998-0.565-4.487-0.898c-1.487-0.334-2.967-0.702-4.438-1.104c-1.472-0.402-2.933-0.838-4.385-1.307
		c-1.451-0.471-2.891-0.974-4.318-1.51c-1.427-0.536-2.842-1.104-4.243-1.707c-1.402-0.601-2.789-1.234-4.161-1.9
		c-1.373-0.666-2.729-1.363-4.069-2.092c-1.34-0.727-2.663-1.486-3.969-2.277c-1.306-0.789-2.592-1.608-3.858-2.457
		c-19.453-12.923-33.1-32.225-37.636-55.256c-4.079-20.693,0.454-43.917,12.509-61.299
		C1607.239,1541.154,1628.343,1530.978,1651.734,1526.47z"/>
	<path style="fill:#FEFEFE;" d="M1663.573,1539.432c2.369,0.027,4.732,0.152,7.09,0.375c2.357,0.223,4.701,0.541,7.034,0.955
		c2.331,0.416,4.641,0.926,6.931,1.53c2.29,0.606,4.552,1.304,6.785,2.095c2.232,0.791,4.427,1.672,6.587,2.644
		c2.16,0.972,4.276,2.031,6.348,3.176c2.074,1.147,4.097,2.375,6.069,3.686c1.971,1.313,3.886,2.704,5.742,4.174
		c15.197,12.245,27.106,30.938,28.88,50.618c0.087,1.018,0.149,2.037,0.185,3.057c0.036,1.022,0.046,2.043,0.031,3.065
		c-0.015,1.022-0.056,2.042-0.121,3.06c-0.065,1.02-0.155,2.037-0.27,3.052c-0.116,1.015-0.257,2.026-0.423,3.034
		c-0.164,1.008-0.354,2.012-0.57,3.011c-0.216,0.997-0.456,1.99-0.721,2.978c-0.264,0.986-0.552,1.965-0.865,2.939
		c-0.313,0.972-0.65,1.936-1.011,2.89c-0.361,0.957-0.745,1.903-1.153,2.839c-0.407,0.938-0.838,1.863-1.291,2.777
		c-0.455,0.916-0.932,1.819-1.43,2.711c-0.498,0.891-1.017,1.771-1.558,2.636c-0.543,0.868-1.106,1.72-1.689,2.557
		c-0.585,0.839-1.19,1.662-1.815,2.469c-0.625,0.808-1.269,1.6-1.933,2.377c-14.568,17.371-33.205,23.478-54.933,25.658
		c-18.283-0.48-36.237-5.419-51.067-16.37c-15.728-11.613-28.061-29.75-30.466-49.375c-0.116-1.017-0.208-2.036-0.275-3.057
		c-0.067-1.02-0.109-2.042-0.126-3.065c-0.015-1.023-0.007-2.047,0.026-3.07c0.034-1.023,0.093-2.045,0.177-3.065
		c0.084-1.02,0.193-2.036,0.329-3.05c0.133-1.015,0.292-2.026,0.475-3.034c0.185-1.006,0.394-2.007,0.626-3.003
		c0.233-0.996,0.49-1.986,0.77-2.97c0.282-0.984,0.589-1.96,0.919-2.929c0.329-0.969,0.681-1.929,1.058-2.88
		c0.378-0.952,0.779-1.894,1.201-2.826c0.423-0.931,0.869-1.852,1.338-2.762c0.467-0.911,0.957-1.808,1.471-2.693
		c0.512-0.886,1.046-1.759,1.602-2.619c0.555-0.859,1.13-1.704,1.728-2.536s1.214-1.648,1.851-2.449
		C1621.291,1549.99,1641.299,1541.942,1663.573,1539.432z"/>
	<path d="M871.798,1584.391c19.135-1.586,40.195,1.953,56.296,12.874c1.08,0.726,2.141,1.477,3.183,2.254
		c1.042,0.779,2.065,1.582,3.068,2.411c1.001,0.83,1.982,1.684,2.942,2.562c0.96,0.878,1.897,1.779,2.811,2.703
		c0.914,0.924,1.805,1.871,2.672,2.839c0.868,0.97,1.711,1.961,2.529,2.973c0.818,1.01,1.61,2.04,2.377,3.091
		c0.767,1.051,1.507,2.12,2.221,3.209c0.712,1.087,1.397,2.192,2.056,3.314c0.659,1.121,1.289,2.258,1.889,3.412
		c0.601,1.153,1.173,2.322,1.717,3.504c0.543,1.181,1.055,2.375,1.538,3.584c0.484,1.207,0.938,2.425,1.36,3.655
		c0.423,1.231,0.815,2.47,1.176,3.72c0.361,1.249,0.691,2.507,0.988,3.774c0.298,1.265,0.564,2.537,0.798,3.817
		c4.225,23.376-2.511,46.641-15.957,65.912c-17.731,25.406-42.344,37.6-72.155,43.078c-24.002,1.127-44.914-1.268-64.598-16.332
		c-15.998-12.24-27.198-29.996-29.511-50.222c-2.829-24.713,5.37-49.149,21.122-68.164
		C818.929,1599.892,842.903,1587.238,871.798,1584.391z"/>
	<path style="fill:#FEFEFE;" d="M874.933,1598.5c15.564-1.094,32.781,2.775,45.779,11.485c13.865,9.293,23.024,24.552,26.225,40.796
		c3.881,19.695-2.988,39.513-14.34,55.508c-15.215,21.438-36.024,31.254-61.343,35.649c-19.374,0.942-36.948-1.266-53.159-12.91
		c-12.923-9.28-21.846-22.914-24.023-38.773c-2.819-20.537,5.155-42.893,17.975-58.866
		C828.576,1610.794,849.059,1601.175,874.933,1598.5z"/>
</g>

    <text x="10" y="832" font-size="12" fill="gray" opacity="0.6" font-family="Arial, sans-serif">
      twoja-kolorowanka.pl
    </text>
  
</svg>
