<?xml version="1.0" encoding="utf-8"?>
<!-- Generator: Adobe Illustrator 27.5.0, SVG Export Plug-In . SVG Version: 6.00 Build 0)  -->
<svg version="1.1" xmlns="http://www.w3.org/2000/svg" xmlns:xlink="http://www.w3.org/1999/xlink" x="0px" y="0px"
	 viewBox="0 0 600 500" style="enable-background:new 0 0 600 500;" xml:space="preserve">
<g id="BACKGROUND">
	<rect style="fill:#FFFFFF;" width="600" height="500"/>
</g>
<g id="OBJECTS">
	<g>
		<defs>
			<rect id="SVGID_1_" width="600" height="500"/>
		</defs>
		<clipPath id="SVGID_00000106861742686138013320000006643812738143401385_">
			<use xlink:href="#SVGID_1_"  style="overflow:visible;"/>
		</clipPath>
		
			<path style="clip-path:url(#SVGID_00000106861742686138013320000006643812738143401385_);fill:#FFFFFF;stroke:#272726;stroke-width:2;stroke-linecap:round;stroke-linejoin:round;stroke-miterlimit:10;" d="
			M620.632,24.132c0,0-107.823-78.178-305.05,108.034S-41.466,28.811-41.466,28.811v320.697h667.141L620.632,24.132z"/>
		
			<path style="clip-path:url(#SVGID_00000106861742686138013320000006643812738143401385_);fill:#FFFFFF;stroke:#272726;stroke-width:2;stroke-linecap:round;stroke-linejoin:round;stroke-miterlimit:10;" d="
			M149.288,385.214c-67.084,13.652-137.567,10.252-203.025-9.794c-9.638-2.952-19.46-6.424-26.926-13.197
			c-7.466-6.773-12.059-17.655-8.715-27.165c3.344-9.509,16.448-15.032,24.336-8.757c-11.771-7.967-15.819-25.442-8.749-37.773
			c7.07-12.331,24.195-17.667,37.018-11.534c-15.652-19.181-6.664-52.718,16.482-61.502c23.146-8.784,52.121,10.346,53.136,35.082
			c6.547-4.616,16.054-4.508,22.494,0.257c6.44,4.765,9.323,13.825,6.823,21.436c-0.884-19.985,18.338-38.431,38.269-36.725
			c19.932,1.706,35.739,23.151,31.471,42.695c10.124-7.504,24.538-8.721,35.777-3.022c11.24,5.7,18.774,18.047,18.703,30.649
			c13.562-7.34,32.226,0.198,38.876,14.112c6.65,13.914,2.137,31.603-8.796,42.479C205.529,373.331,189.192,377.093,149.288,385.214
			z"/>
		
			<path style="clip-path:url(#SVGID_00000106861742686138013320000006643812738143401385_);fill:#FFFFFF;stroke:#272726;stroke-width:2;stroke-linecap:round;stroke-linejoin:round;stroke-miterlimit:10;" d="
			M417.184,331.834c67.084,13.652,137.567,10.252,203.025-9.794c9.638-2.952,19.46-6.424,26.926-13.197
			c7.466-6.773,12.059-17.655,8.715-27.165c-3.344-9.509-16.448-15.032-24.336-8.757c11.771-7.967,15.819-25.442,8.749-37.773
			c-7.07-12.331-24.195-17.667-37.018-11.534c15.652-19.181,6.664-52.719-16.482-61.502c-23.146-8.784-52.121,10.346-53.136,35.082
			c-6.547-4.616-16.054-4.508-22.494,0.258c-6.44,4.765-9.323,13.825-6.823,21.436c0.884-19.985-18.338-38.431-38.269-36.725
			c-19.932,1.706-35.739,23.151-31.471,42.695c-10.124-7.504-24.538-8.721-35.777-3.022c-11.24,5.7-18.774,18.047-18.702,30.649
			c-13.562-7.34-32.226,0.198-38.876,14.112c-6.65,13.914-2.137,31.603,8.796,42.479
			C360.942,319.951,377.279,323.713,417.184,331.834z"/>
		
			<path style="clip-path:url(#SVGID_00000106861742686138013320000006643812738143401385_);fill:#FFFFFF;stroke:#272726;stroke-width:2;stroke-linecap:round;stroke-linejoin:round;stroke-miterlimit:10;" d="
			M249.408-60.801c-67.084-13.652-137.567-10.252-203.025,9.794c-9.638,2.952-19.46,6.424-26.926,13.197
			c-7.466,6.773-12.059,17.655-8.715,27.165S27.19,4.387,35.078-1.889c-11.771,7.967-15.819,25.442-8.749,37.773
			c7.07,12.331,24.195,17.667,37.018,11.534c-15.652,19.181-6.664,52.718,16.482,61.502c23.146,8.784,52.121-10.346,53.136-35.082
			c6.547,4.616,16.054,4.508,22.494-0.257c6.44-4.765,9.323-13.825,6.823-21.436c-0.884,19.985,18.338,38.432,38.269,36.725
			c19.932-1.706,35.739-23.151,31.471-42.695c10.124,7.504,24.538,8.721,35.777,3.022c11.24-5.7,18.774-18.047,18.703-30.649
			c13.562,7.34,32.226-0.198,38.876-14.112c6.65-13.914,2.137-31.603-8.796-42.479C305.65-48.918,289.312-52.68,249.408-60.801z"/>
		
			<path style="clip-path:url(#SVGID_00000106861742686138013320000006643812738143401385_);fill:#FFFFFF;stroke:#272726;stroke-width:2;stroke-linecap:round;stroke-linejoin:round;stroke-miterlimit:10;" d="
			M620.632,264.496c0,0-107.823-45.538-305.05,62.929s-357.048-60.204-357.048-60.204v186.805h667.141L620.632,264.496z"/>
		
			<path style="clip-path:url(#SVGID_00000106861742686138013320000006643812738143401385_);fill:#FFFFFF;stroke:#272726;stroke-width:2;stroke-linecap:round;stroke-linejoin:round;stroke-miterlimit:10;" d="
			M-36.423,345.103c0,0,107.823-45.538,305.05,62.929s357.048-60.204,357.048-60.204v186.805H-41.466L-36.423,345.103z"/>
		<g style="clip-path:url(#SVGID_00000106861742686138013320000006643812738143401385_);">
			<path style="fill:#FFFFFF;stroke:#272726;stroke-width:2;stroke-linecap:round;stroke-linejoin:round;stroke-miterlimit:10;" d="
				M93.199,158.395c0.401-2.95-1.366-6.024-4.057-7.295c-2.692-1.271-6.096-0.737-8.369,1.184c-2.274,1.922-3.368,5.092-2.917,8.035
				c0.451,2.943,2.375,5.588,4.922,7.07"/>
			<path style="fill:#FFFFFF;stroke:#272726;stroke-width:2;stroke-linecap:round;stroke-linejoin:round;stroke-miterlimit:10;" d="
				M428.73,398.555c9.152-6.307,19.212-11.292,29.773-14.754c-0.493,7.23-2.359,14.364-5.469,20.909"/>
			<path style="fill:#FFFFFF;stroke:#272726;stroke-width:2;stroke-linecap:round;stroke-linejoin:round;stroke-miterlimit:10;" d="
				M465.142,407.775c6.807-9.151,15.667-16.764,25.738-22.116c2.16,5.655,4.32,11.309,6.48,16.964"/>
			<path style="fill:#FFFFFF;stroke:#272726;stroke-width:2;stroke-linecap:round;stroke-linejoin:round;stroke-miterlimit:10;" d="
				M508.242,399.244c5.977-6.133,6.521-15.6,10.063-23.397c0.327-0.721,0.726-1.476,1.431-1.837
				c0.873-0.447,1.928-0.152,2.849,0.184c5.277,1.929,10.121,5.035,14.076,9.025"/>
			<path style="fill:#FFFFFF;stroke:#272726;stroke-width:2;stroke-linecap:round;stroke-linejoin:round;stroke-miterlimit:10;" d="
				M542.627,371.535c-4.304-7.4-8.607-14.8-12.911-22.201c6.639-2.618,13.279-5.236,19.918-7.854"/>
			<path style="fill:#FFFFFF;stroke:#272726;stroke-width:2;stroke-linecap:round;stroke-linejoin:round;stroke-miterlimit:10;" d="
				M547.669,332.973c-7.89-4.319-15.78-8.639-23.669-12.958c4.638-3.93,8.44-8.844,11.081-14.32"/>
			<path style="fill:#FFFFFF;stroke:#272726;stroke-width:2;stroke-linecap:round;stroke-linejoin:round;stroke-miterlimit:10;" d="
				M162.63,70.954c-4.514-7.687-9.328-15.687-16.951-20.31c-2.006-1.216-4.244-2.187-6.59-2.222
				c-2.346-0.035-4.809,1.019-5.968,3.059c-1.251,2.202-0.733,5.068,0.641,7.195c1.374,2.127,3.468,3.669,5.532,5.136
				c2.918,2.073,5.891,4.113,8.393,6.673c2.502,2.56,4.534,5.714,5.137,9.242"/>
			<path style="fill:#FFFFFF;stroke:#272726;stroke-width:2;stroke-linecap:round;stroke-linejoin:round;stroke-miterlimit:10;" d="
				M139.253,94.327c-8.701-4.275-15.373-12.481-17.783-21.871c-2.41-9.39-0.515-19.795,5.705-27.447
				c-1.341,6.857,0.076,14.213,3.869,20.081c3.793,5.868,9.918,10.181,16.863,11.452C148.853,82.29,146.262,88.474,139.253,94.327z"
				/>
			<path style="fill:#FFFFFF;stroke:#272726;stroke-width:2;stroke-linecap:round;stroke-linejoin:round;stroke-miterlimit:10;" d="
				M529.748,301.246c-10.063,1.506-20.374,1.343-30.385-0.481c1.389-5.363,3.205-10.616,5.426-15.691"/>
			<path style="fill:#FFFFFF;stroke:#272726;stroke-width:2;stroke-linecap:round;stroke-linejoin:round;stroke-miterlimit:10;" d="
				M497.825,282.452c-6.259,2.498-13.081,3.574-19.805,3.125c0.033-5.302,0.959-10.598,2.726-15.597"/>
			<path style="fill:#FFFFFF;stroke:#272726;stroke-width:2;stroke-linecap:round;stroke-linejoin:round;stroke-miterlimit:10;" d="
				M474.756,267.351c-6.794-0.016-13.581-1.507-19.757-4.339c2.077-4.411,4.154-8.822,6.231-13.233"/>
			<g>
				
					<path style="fill:#FFFFFF;stroke:#272726;stroke-width:2;stroke-linecap:round;stroke-linejoin:round;stroke-miterlimit:10;" d="
					M302.952,183.8c24.771-35.487,31.886-82.695,18.463-123.313c47.232-6.689,97.351,13.375,126.938,50.243
					c-6.329-1.698-13.306,0.632-18.173,5.019c-4.867,4.387-7.814,10.581-9.371,16.946c-1.556,6.365-1.829,12.964-2.859,19.353
					c-6.879-8.358-18.784-12.211-29.256-9.47c-10.472,2.741-18.962,11.933-20.731,22.492c-2.537-8.438-11.777-13.714-20.596-13.621
					c-7.587,2.78-14.265,7.986-18.811,14.667c-4.546,6.68-6.94,14.802-6.84,22.883"/>
				<path style="fill:none;stroke:#272726;stroke-width:2;stroke-linecap:round;stroke-linejoin:round;stroke-miterlimit:10;" d="
					M314.122,186.568c9.036-19.119,17.628-38.701,21.517-59.487c3.889-20.786,2.749-43.105-6.523-61.496
					c43.56-0.638,87.151,15.674,119.129,45.267c-0.015-0.041-0.031-0.082-0.046-0.124"/>
				<path style="fill:none;stroke:#272726;stroke-width:2;stroke-linecap:round;stroke-linejoin:round;stroke-miterlimit:10;" d="
					M417.463,151.475c-6.061-20.787-17.462-39.993-32.808-55.269c-15.346-15.276-34.868-25.077-55.539-30.621
					c23.519,27.564,37.377,61.911,38.07,98.139c-0.015-0.041-0.031-0.082-0.046-0.123"/>
			</g>
			<path style="fill:#FFFFFF;stroke:#272726;stroke-width:2;stroke-linecap:round;stroke-linejoin:round;stroke-miterlimit:10;" d="
				M460.829,243.24c-5.435-2.287-10.734-4.894-15.863-7.803c3.068-4.471,6.798-8.486,11.031-11.874"/>
			<path style="fill:#FFFFFF;stroke:#272726;stroke-width:2;stroke-linecap:round;stroke-linejoin:round;stroke-miterlimit:10;" d="
				M457.708,219.414c-3.021-3.038-6.042-6.076-9.063-9.114c4.306-2.737,8.901-5.021,13.683-6.801"/>
			<g>
				
					<path style="fill:#FFFFFF;stroke:#272726;stroke-width:2;stroke-linecap:round;stroke-linejoin:round;stroke-miterlimit:10;" d="
					M120.464,333.322c0.375-8.824-2.716-17.039-8.044-21.382c-0.897-0.731-2.036-1.36-3.134-0.686
					c-0.868,0.533-1.421,1.716-1.87,2.824c-1.535,3.786-2.703,7.761-3.463,11.781"/>
				
					<path style="fill:#FFFFFF;stroke:#272726;stroke-width:2;stroke-linecap:round;stroke-linejoin:round;stroke-miterlimit:10;" d="
					M110.122,330.937c-2.699-8.41-8.44-15.049-14.941-17.282c-1.094-0.376-2.381-0.572-3.178,0.44c-0.63,0.8-0.74,2.101-0.778,3.297
					c-0.131,4.083,0.147,8.217,0.824,12.251"/>
				<g>
					<defs>
						<path id="XMLID_00000083082536083976753750000004936029892509318566_" d="M224.893,379.819
							c-19.043-12.231-45.2-12.285-64.293-0.134c-8.641,5.499-15.714,13.115-23.888,19.286c-8.174,6.171-18.216,11.013-28.287,8.811
							c-1.928-15.628,1.212-31.841,8.835-45.619c4.716-8.524,11.383-17.571,7.059-27.205c-1.971-4.391-5.885-7.586-10.356-9.367
							c-2.396-0.955-4.832-1.541-7.307-1.845c-9.913-1.22-18.443,7.097-18.062,17.077c1.236,32.351,2.576,64.606,4.673,96.171
							c42.763,5.205,82.606,8.141,125.653,6.487"/>
					</defs>
					<use xlink:href="#XMLID_00000083082536083976753750000004936029892509318566_"  style="overflow:visible;fill:#FFFFFF;"/>
					<clipPath id="XMLID_00000115505166470986975030000003198379582519706295_">
						<use xlink:href="#XMLID_00000083082536083976753750000004936029892509318566_"  style="overflow:visible;"/>
					</clipPath>
					
						<path style="clip-path:url(#XMLID_00000115505166470986975030000003198379582519706295_);fill:#FFFFFF;stroke:#272726;stroke-width:2;stroke-linecap:round;stroke-linejoin:round;stroke-miterlimit:10;" d="
						M93.678,435.822c-2.681-26.672,0.951-53.957,10.514-78.999c1.819-4.762,3.86-9.485,4.802-14.495
						c0.942-5.01,0.687-10.445-1.878-14.85c-2.566-4.405-7.805-7.457-12.796-6.422c-4.47,0.928-7.843,4.844-9.402,9.135
						s-1.619,8.96-1.661,13.525"/>
					
						<use xlink:href="#XMLID_00000083082536083976753750000004936029892509318566_"  style="overflow:visible;fill:none;stroke:#272726;stroke-width:2;stroke-linecap:round;stroke-linejoin:round;stroke-miterlimit:10;"/>
				</g>
			</g>
			<path style="fill:#FFFFFF;stroke:#272726;stroke-width:2;stroke-linecap:round;stroke-linejoin:round;stroke-miterlimit:10;" d="
				M214.701,239.818c-8.27-1.482-16.704-2.048-25.036-1.695c-1.057-17.457-2.559-36.132-13.448-49.818
				c-2.024-2.544-4.451-4.93-7.522-5.998c-3.07-1.068-6.892-0.502-8.907,2.049c-2.015,2.551-1.204,7.069,1.872,8.121
				c-2.617-0.354-5.275,1.928-5.324,4.568c-0.048,2.64,2.525,5.017,5.121,5.421c-2.358-0.786-4.32,2.69-3.142,4.879
				c1.178,2.189,3.929,2.97,6.409,3.133c2.48,0.163,5.081-0.055,7.341,0.981c3.809,1.745,5.317,6.505,5.014,10.684
				c-0.067,0.929-0.202,1.846-0.382,2.76c-2.058,10.399,0.614,21.263,8.037,28.83c5.376,5.48,12.189,9.594,19.565,11.598"/>
			<path style="fill:#FFFFFF;stroke:#272726;stroke-width:2;stroke-linecap:round;stroke-linejoin:round;stroke-miterlimit:10;" d="
				M192.235,59.89c9.836-8.448,22.369-13.707,35.289-14.806c12.92-1.099,26.161,1.966,37.283,8.631
				c-3.82,2.574-7.64,5.148-11.46,7.722c20.992,6.068,38.69,22.56,46.222,43.073c-6.019-1.998-12.278-3.27-18.193-1.895
				c18.117,12.411,32.738,29.868,41.779,49.881c-7.8-3.234-16.197-5.023-24.638-5.249c17.921,13.463,33.028,30.655,44.075,50.158
				c-5.525-0.051-11.05-0.103-16.575-0.154c16.878,10.287,32.383,22.823,45.977,37.171c-4.783,0.815-9.566,1.63-14.349,2.444
				c20.976,8,40.235,20.469,56.118,36.335c-6.017,0.143-12.033,0.286-18.05,0.428c17.298,11.923,30.736,29.355,37.863,49.118
				c-6.353-1.958-12.706-3.916-19.059-5.874c9.512,14.073,16.049,30.147,19.059,46.864c-4.185-2.962-8.37-5.923-12.555-8.885
				c5.513,13.162,6.483,28.178,2.709,41.94l-25.897-11.135"/>
			<g>
				
					<path style="fill:#FFFFFF;stroke:#272726;stroke-width:2;stroke-linecap:round;stroke-linejoin:round;stroke-miterlimit:10;" d="
					M301.747,204.802c34.619-29.986,54.162-76.577,50.924-121.734c50.196,5.386,96.415,38.971,117.21,84.472
					c-6.053-3.384-13.816-2.803-19.948,0.436s-10.762,8.83-14.009,14.957c-3.247,6.127-5.239,12.827-7.953,19.115
					c-4.891-10.36-16.105-17.401-27.561-17.304c-11.456,0.096-22.55,7.326-27.103,17.701c-0.415-9.315-8.527-17.125-17.6-19.317
					c-8.506,0.885-16.707,4.495-23.105,10.17c-6.397,5.675-10.959,13.388-12.952,21.705"/>
				<path style="fill:none;stroke:#272726;stroke-width:2;stroke-linecap:round;stroke-linejoin:round;stroke-miterlimit:10;" d="
					M312.49,210.539c14.23-17.273,28.124-35.137,37.505-55.455c9.381-20.318,13.999-43.514,9.256-64.788
					c44.859,10.643,85.354,38.684,110.489,77.341c-0.005-0.046-0.01-0.092-0.015-0.139"/>
				<path style="fill:none;stroke:#272726;stroke-width:2;stroke-linecap:round;stroke-linejoin:round;stroke-miterlimit:10;" d="
					M427.622,201.334c-0.828-22.9-7.545-45.563-19.329-65.216c-11.784-19.653-29.272-34.773-49.043-45.822
					c16.982,34.381,22.293,73.216,13.609,110.566c-0.005-0.046-0.01-0.093-0.015-0.139"/>
			</g>
			<g>
				<defs>
					<path id="XMLID_00000108297652608914581880000000222879231686400900_" d="M378.999,448.374
						c-39.301,21.542-86.644,20.432-131.401,18.118c-16.374-0.847-32.942-1.814-48.584-6.727
						c-15.642-4.912-30.505-14.251-38.788-28.4c-15.29-24.414-24.487-54.532-23.157-84.671c1.33-30.139,13.689-60.131,35.833-80.62
						c14.425-13.347,32.647-22.599,44.998-37.885c15.8-19.555,19.696-46.346,17.945-71.426c-0.653-9.352-2.098-18.932-6.85-27.013
						c-4.753-8.081-13.465-14.403-22.828-13.947c-6.763,0.329-13.22,5.106-15.614,11.202c-4.193,10.677-9.626,20.859-17.689,29.018
						c-16.313,16.508-37.321,28.317-59.899,32.34c-4.984,0.888-10.096,1.436-14.774,3.374c-4.677,1.938-8.984,5.585-10.192,10.502
						c-9.967-1.978-15.561-13.732-14.199-23.998c1.361-10.266,7.979-19.058,15.249-26.433c7.27-7.375,15.484-13.947,21.43-22.425
						c5.864-8.361,9.234-18.162,13.353-27.507c4.119-9.345,9.33-18.665,17.672-24.557c4.171-2.946,9.3-4.797,14.392-5.125
						c9.487-0.612,18.52-3.766,26.14-9.451c11.257-8.4,25.858-11.101,38.896-8.137c18.466,4.198,33.682,17.832,43.859,33.802
						c10.177,15.97,15.983,34.269,21.578,52.361s11.185,36.43,21.002,52.624c18.737,30.906,51.04,51.16,72.664,80.121
						c23.353,31.278,32.944,72.467,25.754,109.952c19.694,10.352,41.075,18.448,63.307,19.329
						c27.379,1.084,56.303-9.933,69.85-35.221c6.958-12.989,8.69-28.444,3.443-42.214c-12.527-32.877-54.698-36.565-76.577-61.716
						c-12.898-14.826-17.082-36.724-10.559-55.26s23.498-32.988,42.629-37.493c-3.536-0.16-6.783-2.951-7.472-6.423
						c-0.688-3.472,1.248-7.291,4.456-8.788c3.646-1.701,7.918-0.457,11.737,0.806c8.943,2.956,17.886,5.912,26.83,8.868
						c-4.829,9.062-10.179,18.654-19.301,23.369c-2.636,1.362-5.613,2.269-8.557,1.902c-2.944-0.367-5.818-2.211-6.811-5.007
						s0.413-6.395,2.678-7.543c-11.024,3.273-21.399,9.303-28.763,18.135c-7.364,8.832-11.49,20.589-10.04,31.996
						c2.322,18.272,17.822,32.078,33.998,40.886c16.176,8.808,34.186,14.559,48.644,25.97c28.325,22.354,37.106,64.538,24.06,98.18
						c-13.046,33.642-45.088,57.999-80.202,66.303C454.024,467.846,416.476,461.35,378.999,448.374z"/>
				</defs>
				<use xlink:href="#XMLID_00000108297652608914581880000000222879231686400900_"  style="overflow:visible;fill:#FFFFFF;"/>
				<clipPath id="XMLID_00000073721723929538481310000007493936669883248830_">
					<use xlink:href="#XMLID_00000108297652608914581880000000222879231686400900_"  style="overflow:visible;"/>
				</clipPath>
				
					<path style="clip-path:url(#XMLID_00000073721723929538481310000007493936669883248830_);fill:none;stroke:#272726;stroke-width:2;stroke-linecap:round;stroke-linejoin:round;stroke-miterlimit:10;" d="
					M256.763,386.082c-40.935,17.494-86.853,23.14-130.807,16.084"/>
				
					<path style="clip-path:url(#XMLID_00000073721723929538481310000007493936669883248830_);fill:none;stroke:#272726;stroke-width:2;stroke-linecap:round;stroke-linejoin:round;stroke-miterlimit:10;" d="
					M246.248,356.207c-38.766,11.606-81.063,11.107-119.544-1.411"/>
				
					<path style="clip-path:url(#XMLID_00000073721723929538481310000007493936669883248830_);fill:none;stroke:#272726;stroke-width:2;stroke-linecap:round;stroke-linejoin:round;stroke-miterlimit:10;" d="
					M237.564,324.014c-37.12,6.263-76.078,1.18-110.348-14.4"/>
				
					<path style="clip-path:url(#XMLID_00000073721723929538481310000007493936669883248830_);fill:none;stroke:#272726;stroke-width:2;stroke-linecap:round;stroke-linejoin:round;stroke-miterlimit:10;" d="
					M234.24,295.337c-33.005,3.301-67.201-7.819-91.951-29.902"/>
				
					<path style="clip-path:url(#XMLID_00000073721723929538481310000007493936669883248830_);fill:none;stroke:#272726;stroke-width:2;stroke-linecap:round;stroke-linejoin:round;stroke-miterlimit:10;" d="
					M238.554,259.383c-20.897,0.442-41.66-10.819-52.688-28.576"/>
				
					<path style="clip-path:url(#XMLID_00000073721723929538481310000007493936669883248830_);fill:none;stroke:#272726;stroke-width:2;stroke-linecap:round;stroke-linejoin:round;stroke-miterlimit:10;" d="
					M246.34,229.071c-14.135-0.093-28.223-4.172-40.221-11.646"/>
				
					<path style="clip-path:url(#XMLID_00000073721723929538481310000007493936669883248830_);fill:none;stroke:#272726;stroke-width:2;stroke-linecap:round;stroke-linejoin:round;stroke-miterlimit:10;" d="
					M251.605,201.037c-10.042-0.624-20.084-1.248-30.126-1.872"/>
				
					<path style="clip-path:url(#XMLID_00000073721723929538481310000007493936669883248830_);fill:none;stroke:#272726;stroke-width:2;stroke-linecap:round;stroke-linejoin:round;stroke-miterlimit:10;" d="
					M253.681,174.469c-8.56,0.831-17.121,1.662-25.681,2.494"/>
				
					<path style="clip-path:url(#XMLID_00000073721723929538481310000007493936669883248830_);fill:none;stroke:#272726;stroke-width:2;stroke-linecap:round;stroke-linejoin:round;stroke-miterlimit:10;" d="
					M252.497,151.922c-8.798,2.137-17.596,4.274-26.394,6.411"/>
				
					<path style="clip-path:url(#XMLID_00000073721723929538481310000007493936669883248830_);fill:none;stroke:#272726;stroke-width:2;stroke-linecap:round;stroke-linejoin:round;stroke-miterlimit:10;" d="
					M243.657,127.169c-6.154,4.217-12.309,8.434-18.463,12.651"/>
				
					<path style="clip-path:url(#XMLID_00000073721723929538481310000007493936669883248830_);fill:none;stroke:#272726;stroke-width:2;stroke-linecap:round;stroke-linejoin:round;stroke-miterlimit:10;" d="
					M224.347,106.885c-2.263,7.138-5.382,14.005-9.27,20.404"/>
				
					<path style="clip-path:url(#XMLID_00000073721723929538481310000007493936669883248830_);fill:none;stroke:#272726;stroke-width:2;stroke-linecap:round;stroke-linejoin:round;stroke-miterlimit:10;" d="
					M199.162,105.447c0.994,6.093,1.989,12.187,2.983,18.28"/>
				
					<path style="clip-path:url(#XMLID_00000073721723929538481310000007493936669883248830_);fill:none;stroke:#272726;stroke-width:2;stroke-linecap:round;stroke-linejoin:round;stroke-miterlimit:10;" d="
					M175.292,119.267c5.943,7.614,12.416,14.814,19.357,21.53"/>
				
					<path style="clip-path:url(#XMLID_00000073721723929538481310000007493936669883248830_);fill:none;stroke:#272726;stroke-width:2;stroke-linecap:round;stroke-linejoin:round;stroke-miterlimit:10;" d="
					M160.057,138.632c7.686,7.534,15.372,15.068,23.057,22.602"/>
				
					<path style="clip-path:url(#XMLID_00000073721723929538481310000007493936669883248830_);fill:none;stroke:#272726;stroke-width:2;stroke-linecap:round;stroke-linejoin:round;stroke-miterlimit:10;" d="
					M145.965,156.93c5.353,7.371,11.306,14.305,17.782,20.712"/>
				
					<path style="clip-path:url(#XMLID_00000073721723929538481310000007493936669883248830_);fill:none;stroke:#272726;stroke-width:2;stroke-linecap:round;stroke-linejoin:round;stroke-miterlimit:10;" d="
					M128.248,170.395c4.345,7.086,8.689,14.172,13.034,21.258"/>
				
					<path style="clip-path:url(#XMLID_00000073721723929538481310000007493936669883248830_);fill:none;stroke:#272726;stroke-width:2;stroke-linecap:round;stroke-linejoin:round;stroke-miterlimit:10;" d="
					M104.044,177.122c2.369,6.904,4.738,13.808,7.107,20.711"/>
				
					<path style="clip-path:url(#XMLID_00000073721723929538481310000007493936669883248830_);fill:none;stroke:#272726;stroke-width:2;stroke-linecap:round;stroke-linejoin:round;stroke-miterlimit:10;" d="
					M87.137,203.84c-4.945-8.657,2.081-19.815,10.94-24.388c8.859-4.574,19.246-5.233,28.425-9.123
					c16.931-7.175,27.293-23.964,38.248-38.734c10.955-14.769,25.986-29.493,44.367-28.971
					c20.223,0.574,35.305,19.831,40.827,39.294c7.525,26.527,2.924,54.876-3.174,81.767c-6.098,26.891-13.702,54.002-12.034,81.525
					c2.008,33.125,17.21,63.749,28.536,94.943c3.343,9.208,6.406,18.889,5.342,28.627c-1.063,9.738-7.319,19.559-16.855,21.799"/>
				
					<path style="clip-path:url(#XMLID_00000073721723929538481310000007493936669883248830_);fill:none;stroke:#272726;stroke-width:2;stroke-linecap:round;stroke-linejoin:round;stroke-miterlimit:10;" d="
					M564.226,310.893c9.576,28.175,4.701,60.567-11.62,85.45c-16.32,24.883-43.468,42.065-72.716,47.546
					c-29.248,5.482-60.251-0.471-86.028-15.026c0,0-2.747,11.996-14.862,19.511"/>
				
					<path style="clip-path:url(#XMLID_00000073721723929538481310000007493936669883248830_);fill:#FFFFFF;stroke:#272726;stroke-width:2;stroke-linecap:round;stroke-linejoin:round;stroke-miterlimit:10;" d="
					M379.112,462.706"/>
				
					<path style="clip-path:url(#XMLID_00000073721723929538481310000007493936669883248830_);fill:#FFFFFF;stroke:#272726;stroke-width:2;stroke-linecap:round;stroke-linejoin:round;stroke-miterlimit:10;" d="
					M397.833,431.478"/>
				
					<path style="clip-path:url(#XMLID_00000073721723929538481310000007493936669883248830_);fill:#FFFFFF;stroke:#272726;stroke-width:2;stroke-linecap:round;stroke-linejoin:round;stroke-miterlimit:10;" d="
					M421.46,440.674c-3.978,9.871-7.397,19.967-10.237,30.223"/>
				
					<path style="clip-path:url(#XMLID_00000073721723929538481310000007493936669883248830_);fill:#FFFFFF;stroke:#272726;stroke-width:2;stroke-linecap:round;stroke-linejoin:round;stroke-miterlimit:10;" d="
					M450.678,446.09c-0.425,8.174-0.851,16.349-1.276,24.523"/>
				
					<path style="clip-path:url(#XMLID_00000073721723929538481310000007493936669883248830_);fill:#FFFFFF;stroke:#272726;stroke-width:2;stroke-linecap:round;stroke-linejoin:round;stroke-miterlimit:10;" d="
					M472.944,444.649c1.493,9.474,3.836,18.813,6.992,27.87"/>
				
					<path style="clip-path:url(#XMLID_00000073721723929538481310000007493936669883248830_);fill:#FFFFFF;stroke:#272726;stroke-width:2;stroke-linecap:round;stroke-linejoin:round;stroke-miterlimit:10;" d="
					M498.747,438.647c4.755,8.618,10.062,16.932,15.877,24.874"/>
				
					<path style="clip-path:url(#XMLID_00000073721723929538481310000007493936669883248830_);fill:#FFFFFF;stroke:#272726;stroke-width:2;stroke-linecap:round;stroke-linejoin:round;stroke-miterlimit:10;" d="
					M522.154,426.781c4.56,6.87,9.491,13.493,14.764,19.832"/>
				
					<path style="clip-path:url(#XMLID_00000073721723929538481310000007493936669883248830_);fill:#FFFFFF;stroke:#272726;stroke-width:2;stroke-linecap:round;stroke-linejoin:round;stroke-miterlimit:10;" d="
					M538.097,413.394c6.915,6.538,13.829,13.075,20.744,19.613"/>
				
					<path style="clip-path:url(#XMLID_00000073721723929538481310000007493936669883248830_);fill:#FFFFFF;stroke:#272726;stroke-width:2;stroke-linecap:round;stroke-linejoin:round;stroke-miterlimit:10;" d="
					M551.022,399.258c6.816,5.271,13.403,10.837,19.737,16.678"/>
				
					<path style="clip-path:url(#XMLID_00000073721723929538481310000007493936669883248830_);fill:#FFFFFF;stroke:#272726;stroke-width:2;stroke-linecap:round;stroke-linejoin:round;stroke-miterlimit:10;" d="
					M560.231,382.621c6.645,3.906,13.29,7.812,19.935,11.718"/>
				
					<path style="clip-path:url(#XMLID_00000073721723929538481310000007493936669883248830_);fill:#FFFFFF;stroke:#272726;stroke-width:2;stroke-linecap:round;stroke-linejoin:round;stroke-miterlimit:10;" d="
					M566.804,363.27c5.825,2.034,11.651,4.067,17.476,6.101"/>
				
					<use xlink:href="#XMLID_00000108297652608914581880000000222879231686400900_"  style="overflow:visible;fill:none;stroke:#272726;stroke-width:2;stroke-linecap:round;stroke-linejoin:round;stroke-miterlimit:10;"/>
			</g>
			<path style="fill:#FFFFFF;stroke:#272726;stroke-width:2;stroke-linecap:round;stroke-linejoin:round;stroke-miterlimit:10;" d="
				M112.458,167.389c2.37-1.802,3.294-5.225,2.289-8.027c-1.004-2.802-3.789-4.832-6.755-5.081
				c-2.967-0.249-5.982,1.219-7.744,3.619c-1.762,2.4-2.272,5.631-1.519,8.479"/>
			<path style="fill:#FFFFFF;stroke:#272726;stroke-width:2;stroke-linecap:round;stroke-linejoin:round;stroke-miterlimit:10;" d="
				M139.404,131.724c2.371,0.93,5.024,0.726,7.405-0.178c3.097-1.176,5.86-3.215,7.685-5.967c2.503-3.775,3.038-8.897,0.962-12.921
				c-2.077-4.025-6.863-6.6-11.302-5.699c-4.477,0.908-7.763,4.911-9.372,9.187c-1.209,3.214-1.672,6.827-0.587,10.085
				C134.969,128.557,136.645,130.642,139.404,131.724z"/>
			<path style="fill:#272726;stroke:#272726;stroke-width:2;stroke-linecap:round;stroke-linejoin:round;stroke-miterlimit:10;" d="
				M149.433,130.042c2.458-2.262,3.624-5.838,1.646-9.422c-0.549-0.994-1.324-1.873-2.273-2.496
				c-4.057-2.664-8.601-0.118-11.235,2.681c-1.099,1.168-1.841,2.672-1.957,4.271c-0.167,2.293,0.79,4.055,2.403,5.285
				C141.405,132.946,146.295,132.928,149.433,130.042z"/>
			<path style="fill:#FFFFFF;stroke:#272726;stroke-width:2;stroke-linecap:round;stroke-linejoin:round;stroke-miterlimit:10;" d="
				M183.437,76.623c-2.244-8.627-4.496-17.689-2.375-26.347c0.558-2.279,1.455-4.547,3.088-6.231
				c1.634-1.684,4.121-2.68,6.383-2.056c2.441,0.672,4.102,3.065,4.635,5.541c0.533,2.476,0.142,5.047-0.28,7.544
				c-0.597,3.529-1.257,7.074-1.216,10.653c0.041,3.579,0.835,7.247,2.902,10.168"/>
			<path style="fill:#FFFFFF;stroke:#272726;stroke-width:2;stroke-linecap:round;stroke-linejoin:round;stroke-miterlimit:10;" d="
				M375.43,377.247c3.507,0.83,7.309-0.91,9.51-3.763c2.201-2.853,2.958-6.623,2.725-10.219c-0.25-3.871-1.645-7.754-4.359-10.525
				c-2.714-2.771-6.836-4.269-10.606-3.356c-4.045,0.981-7.112,4.554-8.371,8.522c-1.072,3.376-0.99,7.139,0.401,10.396
				C366.121,371.56,368.397,375.582,375.43,377.247z"/>
			<path style="fill:#FFFFFF;stroke:#272726;stroke-width:2;stroke-linecap:round;stroke-linejoin:round;stroke-miterlimit:10;" d="
				M246.198,93.761c2.381-1.47,3.513-4.512,3.155-7.287c-0.358-2.775-2.012-5.26-4.114-7.106c-2.263-1.987-5.16-3.354-8.171-3.385
				c-3.011-0.031-6.097,1.409-7.665,3.981c-1.682,2.759-1.404,6.405,0.083,9.274c1.265,2.442,3.375,4.463,5.928,5.488
				C237.966,95.749,241.424,96.708,246.198,93.761z"/>
			<path style="fill:#FFFFFF;stroke:#272726;stroke-width:2;stroke-linecap:round;stroke-linejoin:round;stroke-miterlimit:10;" d="
				M360.787,342.069c1.706,1.636,4.67,1.318,6.455-0.231c1.785-1.549,2.556-3.988,2.738-6.344c0.189-2.457-0.221-5.054-1.685-7.036
				c-1.464-1.982-4.138-3.176-6.485-2.423c-2.433,0.78-3.901,3.395-4.12,5.941C357.471,334.52,356.717,338.167,360.787,342.069z"/>
			<path style="fill:#FFFFFF;stroke:#272726;stroke-width:2;stroke-linecap:round;stroke-linejoin:round;stroke-miterlimit:10;" d="
				M349.968,256.551c4.298,1.757,7.573,5.01,5.242,9.036c-1.154,1.992-3.816,2.682-6.07,2.218c-2.255-0.464-4.202-1.832-6.077-3.168
				c-1.635-1.165-3.322-2.386-4.313-4.137C335.413,254.601,343.759,254.014,349.968,256.551z"/>
			<path style="fill:#FFFFFF;stroke:#272726;stroke-width:2;stroke-linecap:round;stroke-linejoin:round;stroke-miterlimit:10;" d="
				M219.855,65.498c4.298,1.756,7.573,5.01,5.242,9.036c-1.154,1.992-3.816,2.682-6.071,2.218c-2.255-0.464-4.202-1.832-6.077-3.168
				c-1.635-1.165-3.322-2.386-4.312-4.137C205.3,63.548,213.645,62.96,219.855,65.498z"/>
			<path style="fill:#FFFFFF;stroke:#272726;stroke-width:2;stroke-linecap:round;stroke-linejoin:round;stroke-miterlimit:10;" d="
				M78.871,213.324c-2.421,3.593-4.874,7.249-6.182,11.38c-1.308,4.131-1.334,8.876,0.94,12.564
				c2.823,4.578,8.724,6.935,10.597,11.976c1.372,3.693-0.08,8.235-3.341,10.447c-3.261,2.212-8.017,1.882-10.942-0.758
				c1.537,2.312,1.466,5.429,0.378,7.983c-1.088,2.555-3.061,4.629-5.171,6.434c-2.967,2.539-6.395,4.71-10.237,5.41
				c-3.842,0.7-8.151-0.295-10.726-3.231c-2.575-2.936-2.803-7.918,0.038-10.598c-3.613,4.125-10.626,3.036-14.832-0.482
				c-5.816-4.864-7.978-13.63-5.09-20.64c2.888-7.01,10.596-11.71,18.15-11.067c3.748,0.319,7.36,1.81,11.122,1.794
				c4.259-0.018,8.323-1.995,11.611-4.701C68.474,227.128,71.096,223.716,78.871,213.324z"/>
			<path style="fill:#FFFFFF;stroke:#272726;stroke-width:2;stroke-linecap:round;stroke-linejoin:round;stroke-miterlimit:10;" d="
				M58.899,251.643c-1.227,3.56-3.927,6.673-7.446,8.014c-3.519,1.341-7.811,0.716-10.551-1.867
				c-2.74-2.583-3.563-7.108-1.593-10.317"/>
			<path style="fill:#FFFFFF;stroke:#272726;stroke-width:2;stroke-linecap:round;stroke-linejoin:round;stroke-miterlimit:10;" d="
				M149.624,107.059c-0.3-2.995-0.6-5.99-0.9-8.985"/>
			<path style="fill:#FFFFFF;stroke:#272726;stroke-width:2;stroke-linecap:round;stroke-linejoin:round;stroke-miterlimit:10;" d="
				M139.112,108.858c-2.345-2.13-4.691-4.261-7.036-6.391c0.089,0.108,0.177,0.215,0.266,0.323"/>
			<path style="fill:#FFFFFF;stroke:#272726;stroke-width:2;stroke-linecap:round;stroke-linejoin:round;stroke-miterlimit:10;" d="
				M134.276,116.998c-2.636-0.522-5.273-1.043-7.909-1.565"/>
			<path style="fill:#FFFFFF;stroke:#272726;stroke-width:2;stroke-linecap:round;stroke-linejoin:round;stroke-miterlimit:10;" d="
				M288.253,277.018c-6.999,4.647-13.484,10.069-19.26,16.085c-12.833-11.883-26.829-24.336-44.158-26.696
				c-3.221-0.439-6.625-0.484-9.582,0.866c-2.957,1.351-5.327,4.402-5.019,7.638c0.307,3.236,4.017,5.94,6.967,4.573
				c-2.135,1.554-2.479,5.04-0.689,6.981c1.79,1.941,5.293,1.879,7.448,0.376c-2.247,1.062-1.262,4.931,1.103,5.697
				c2.364,0.767,4.892-0.57,6.797-2.168c1.905-1.597,3.633-3.553,5.982-4.367c3.959-1.372,8.339,1.024,11.009,4.253
				c0.593,0.718,1.131,1.473,1.632,2.258c5.703,8.936,15.144,14.939,25.739,15.273c7.673,0.242,15.44-1.495,22.154-5.147"/>
			<g>
				
					<path style="fill:#FFFFFF;stroke:#272726;stroke-width:2;stroke-linecap:round;stroke-linejoin:round;stroke-miterlimit:10;" d="
					M193.758,357.523c0.375-8.824-2.716-17.039-8.044-21.382c-0.897-0.731-2.036-1.36-3.134-0.686
					c-0.868,0.533-1.421,1.716-1.87,2.824c-1.535,3.786-2.703,7.761-3.463,11.781"/>
				
					<path style="fill:#FFFFFF;stroke:#272726;stroke-width:2;stroke-linecap:round;stroke-linejoin:round;stroke-miterlimit:10;" d="
					M183.417,355.138c-2.699-8.41-8.439-15.05-14.941-17.282c-1.094-0.376-2.381-0.572-3.178,0.44c-0.63,0.8-0.74,2.101-0.778,3.297
					c-0.131,4.083,0.147,8.217,0.824,12.251"/>
				<g>
					<defs>
						<path id="XMLID_00000122714840609372317030000015056439112355787916_" d="M298.187,404.02
							c-19.043-12.231-45.2-12.285-64.293-0.134c-8.64,5.499-15.714,13.115-23.888,19.286c-8.174,6.171-18.216,11.013-28.287,8.811
							c-1.928-15.628,1.212-31.841,8.836-45.619c4.716-8.524,11.382-17.57,7.059-27.205c-1.971-4.391-5.885-7.586-10.356-9.367
							c-2.396-0.955-4.832-1.541-7.307-1.845c-9.913-1.22-18.443,7.097-18.062,17.077c1.236,32.351,2.576,64.606,4.673,96.17
							c42.763,5.205,82.606,8.141,125.653,6.487"/>
					</defs>
					<use xlink:href="#XMLID_00000122714840609372317030000015056439112355787916_"  style="overflow:visible;fill:#FFFFFF;"/>
					<clipPath id="XMLID_00000005254636167447740760000007692218848315420810_">
						<use xlink:href="#XMLID_00000122714840609372317030000015056439112355787916_"  style="overflow:visible;"/>
					</clipPath>
					
						<path style="clip-path:url(#XMLID_00000005254636167447740760000007692218848315420810_);fill:#FFFFFF;stroke:#272726;stroke-width:2;stroke-linecap:round;stroke-linejoin:round;stroke-miterlimit:10;" d="
						M166.972,460.023c-2.681-26.672,0.951-53.957,10.514-78.999c1.819-4.762,3.86-9.485,4.802-14.495
						c0.942-5.01,0.687-10.445-1.879-14.85c-2.566-4.405-7.805-7.457-12.796-6.422c-4.47,0.928-7.843,4.844-9.402,9.135
						c-1.559,4.291-1.619,8.96-1.661,13.525"/>
					
						<use xlink:href="#XMLID_00000122714840609372317030000015056439112355787916_"  style="overflow:visible;fill:none;stroke:#272726;stroke-width:2;stroke-linecap:round;stroke-linejoin:round;stroke-miterlimit:10;"/>
				</g>
			</g>
			<path style="fill:none;stroke:#272726;stroke-width:2;stroke-linecap:round;stroke-linejoin:round;stroke-miterlimit:10;" d="
				M523.373,172.387c0,0-17.951,15.324-23.424,2.189c-5.473-13.135,21.235-8.1,21.235-8.1"/>
			<path style="fill:#FFFFFF;stroke:#272726;stroke-width:2;stroke-linecap:round;stroke-linejoin:round;stroke-miterlimit:10;" d="
				M165.294,85.302c5.174,1.109,10.189-2.746,10.55-8.026c0.465-6.797-1.101-13.742-4.572-19.611
				c-4.935-8.344-13.633-14.361-23.443-15.374c5.797,3.9,9.996,10.104,11.463,16.935c1.025,4.77,0.709,9.809-0.941,14.393
				c-1.761,4.892,1.174,10.249,6.217,11.514C164.806,85.193,165.048,85.25,165.294,85.302z"/>
			<path style="fill:#FFFFFF;stroke:#272726;stroke-width:2;stroke-linecap:round;stroke-linejoin:round;stroke-miterlimit:10;" d="
				M103.754,162.835c0,1.666,1.351,3.016,3.017,3.016c1.666,0,3.016-1.351,3.016-3.016c0-1.666-1.35-3.017-3.016-3.017
				C105.104,159.818,103.754,161.169,103.754,162.835z"/>
			<path style="fill:none;stroke:#272726;stroke-width:2;stroke-linecap:round;stroke-linejoin:round;stroke-miterlimit:10;" d="
				M283.336,397.294c0,0,3.452-6.646,15.041-7.115"/>
			<path style="fill:none;stroke:#272726;stroke-width:2;stroke-linecap:round;stroke-linejoin:round;stroke-miterlimit:10;" d="
				M280.067,282.998c0,0,0.103-7.926,3.269-13.018"/>
			<path style="fill:none;stroke:#272726;stroke-width:2;stroke-linecap:round;stroke-linejoin:round;stroke-miterlimit:10;" d="
				M188.393,75.982c0,0-7.486-25.549,2.14-33.993"/>
			<path style="fill:none;stroke:#272726;stroke-width:2;stroke-linecap:round;stroke-linejoin:round;stroke-miterlimit:10;" d="
				M133.122,51.481c0,0,15.579,3.989,22.772,20.712"/>
		</g>
		
			<path style="clip-path:url(#SVGID_00000106861742686138013320000006643812738143401385_);fill:#FFFFFF;stroke:#272726;stroke-width:2;stroke-linecap:round;stroke-linejoin:round;stroke-miterlimit:10;" d="
			M442.059,585.98c67.084,13.652,137.567,10.252,203.025-9.794c9.638-2.952,19.46-6.424,26.926-13.197
			c7.466-6.773,12.059-17.655,8.715-27.165c-3.344-9.509-16.448-15.032-24.336-8.757c11.771-7.967,15.819-25.442,8.749-37.773
			c-7.07-12.331-24.195-17.667-37.018-11.534c15.652-19.181,6.664-52.718-16.482-61.502c-23.146-8.784-52.121,10.346-53.136,35.082
			c-6.547-4.616-16.054-4.508-22.494,0.258c-6.44,4.765-9.323,13.825-6.823,21.436c0.884-19.985-18.338-38.431-38.269-36.725
			c-19.932,1.706-35.739,23.151-31.471,42.695c-10.124-7.504-24.538-8.721-35.777-3.022c-11.24,5.7-18.774,18.047-18.703,30.649
			c-13.562-7.341-32.226,0.198-38.876,14.112c-6.65,13.914-2.137,31.603,8.796,42.479
			C385.818,574.097,402.155,577.859,442.059,585.98z"/>
		
			<path style="clip-path:url(#SVGID_00000106861742686138013320000006643812738143401385_);fill:#FFFFFF;stroke:#272726;stroke-width:2;stroke-linecap:round;stroke-linejoin:round;stroke-miterlimit:10;" d="
			M175.718,585.98c-67.084,13.652-137.567,10.252-203.025-9.794c-9.638-2.952-19.46-6.424-26.926-13.197
			c-7.466-6.773-12.059-17.655-8.715-27.165c3.344-9.509,16.448-15.032,24.336-8.757c-11.771-7.967-15.819-25.442-8.749-37.773
			c7.07-12.331,24.195-17.667,37.018-11.534c-15.652-19.181-6.664-52.718,16.482-61.502c23.146-8.784,52.121,10.346,53.136,35.082
			c6.547-4.616,16.054-4.508,22.494,0.258c6.44,4.765,9.323,13.825,6.823,21.436c-0.884-19.985,18.338-38.431,38.269-36.725
			c19.932,1.706,35.739,23.151,31.471,42.695c10.124-7.504,24.538-8.721,35.777-3.022c11.24,5.7,18.774,18.047,18.703,30.649
			c13.562-7.341,32.226,0.198,38.876,14.112c6.65,13.914,2.137,31.603-8.796,42.479C231.96,574.097,215.622,577.859,175.718,585.98z
			"/>
	</g>
</g>

    <text x="10" y="832" font-size="12" fill="gray" opacity="0.6" font-family="Arial, sans-serif">
      twoja-kolorowanka.pl
    </text>
  
</svg>
