<?xml version="1.0" encoding="utf-8"?>
<!-- Generator: Adobe Illustrator 27.5.0, SVG Export Plug-In . SVG Version: 6.00 Build 0)  -->
<svg xmlns="http://www.w3.org/2000/svg" xmlns:xlink="http://www.w3.org/1999/xlink" viewBox="0 0 500 500" width="595" height="842" preserveAspectRatio="xMidYMid meet" data-scaled="true">
<g id="BACKGROUND">
</g>
<g id="OBJECTS">
	<g>
		<g id="layer3">
			<path id="path1474" d="M382.719,321.875c-0.505,0.355-4.591-7.756-23.092-24.372c-3.374-3.029-5.721-5.577-9.483-9.313
				c-2.826-2.808-5.344-5.122-8.029-7.124c-5.293-3.975-10.943-6.167-14.672-9.404c-5.339-4.705-7.477-8.897-9.346-11.103
				c-1.87-2.205-2.822-3.033-2.684-3.224c0.14-0.19,1.384,0.311,3.607,2.33c2.224,2.02,4.837,6.226,9.858,10.301
				c3.473,2.864,8.929,4.78,14.754,9.053c2.834,2.093,5.468,4.487,8.337,7.33c3.467,3.435,6.468,6.633,9.354,9.282
				C379.977,312.734,383.223,321.52,382.719,321.875L382.719,321.875z"/>
			<path id="path1853" d="M447.109,312.073c0,0,0,0.001-0.026-0.021l0,0c-0.04-0.068-0.046-0.263,0.039-0.536
				c0.044-0.262,0.114-0.65,0.145-1.139c0.056-0.837-0.019-2.104-0.728-3.554l0,0c-1.121-2.405-3.365-4.294-8.078-6.063
				c-8.091-2.99-13.777-2.719-28.159-3.57c-1.725-0.098-3.47-0.192-5.312-0.287c-10.572-0.557-16.955-0.867-24.444-1.504l0,0
				c-6.766-0.574-11.499-1.152-15.626-1.856c-4.193-0.704-6.292-1.186-8.268-1.956c-1.665-0.65-2.307-1.154-2.237-1.317
				c0.068-0.163,0.831,0.025,2.52,0.36s4.347,0.674,8.239,1.111c4.303,0.472,8.612,0.836,15.551,1.284l0,0
				c8.906,0.575,12.366,0.657,24.402,1.29c1.84,0.098,3.601,0.195,5.325,0.297c14.027,0.8,20.601,0.864,28.772,4.186
				c4.946,1.982,7.514,4.653,8.618,7.472l0,0c0.678,1.802,0.527,3.31,0.25,4.261c-0.159,0.541-0.366,0.928-0.533,1.168
				c-0.151,0.287-0.357,0.393-0.419,0.389l0,0C447.109,312.074,447.109,312.073,447.109,312.073L447.109,312.073z"/>
			<path id="path2053" d="M442.952,330.291c-0.16-0.309,0.281-0.83,1.346-1.891c0.753-0.751,3.171-2.99,3.639-5.758
				c0.039-0.199,0.074-0.404,0.107-0.613c0.562-3.565-0.079-6.305-0.409-7.645c-0.372-1.51-0.533-2.199-0.234-2.395
				c0.3-0.195,1.025,0.154,1.915,1.701c0.889,1.547,1.986,4.471,1.29,8.748c-0.04,0.244-0.084,0.482-0.133,0.714
				c-0.912,4.053-3.938,6.095-5.112,6.716C443.858,330.663,443.113,330.599,442.952,330.291L442.952,330.291z"/>
			<path id="path2103" d="M442.337,355.607c-0.042-0.291,0.743-0.594,2.469-1.408c1.203-0.568,5.133-2.398,5.81-5.785
				c0.473-1.752,0.511-3.82-0.136-6.153c-0.462-1.668-1.195-3.177-1.96-4.429c-2.415-3.938-5.844-6.387-7.291-7.417
				c-1.76-1.253-2.528-1.79-2.411-2.077c0.117-0.287,1.109-0.289,3.221,0.65c1.831,0.813,5.677,2.98,8.619,7.488
				c0.92,1.406,1.775,3.134,2.302,5.111c0.734,2.759,0.644,5.304,0.051,7.477c-1.572,4.848-6.189,6.314-7.694,6.648
				c-2.067,0.46-2.935,0.184-2.978-0.105H442.337z"/>
			<path id="path2153" d="M435.415,374.783c-0.047-0.582,3.02-0.274,9.062-3.655c1.313-0.731,2.756-1.798,4.048-3.286
				c-0.001,0,0.034-0.047,0.034-0.047c1.11-1.48,1.852-2.631,1.509-3.572c-0.908-3.826-2.009-5.7-2.985-6.984
				c-0.912-1.199-1.44-1.682-1.293-1.942c0.146-0.261,0.978-0.242,2.379,0.84c1.402,1.081,3.344,3.502,4.33,7.499
				c0.402,2.127-0.425,4.24-1.968,5.854c-0.016,0.016-0.03,0.033-0.048,0.049c-1.53,1.769-3.261,2.988-4.853,3.784
				C438.54,376.846,435.462,375.365,435.415,374.783L435.415,374.783z"/>
			<path id="path2203" d="M421.5,414.192c0.171-0.234,1.427,1.171,3.532,0.876c0.524,0.202,0.608-0.708,0.786-1.985
				c-0.059-1.035-0.225-2.861,0.612-4.602l0,0c0.843-1.36,2.125-2.081,3.352-2.548c1.38-0.586,2.834-0.739,4.311-0.69l0,0
				c0.879-0.007,1.805-0.127,2.328-0.639c0.493-0.363,0.835-0.984,0.918-1.685c0.146-1.023,0.452-2.087,0.979-3.102
				c0.153-0.295,0.321-0.58,0.506-0.855c1.183-1.645,2.836-2.776,3.892-3.647c0.962-0.858,1.575-1.873,1.407-2.751
				c-0.634-6.71-1.671-10.749-2.477-13.543c-0.772-2.677-1.14-3.809-0.879-3.94c0.261-0.132,1.115,0.766,2.333,3.396
				c1.235,2.672,2.704,7.004,3.488,13.828c0.124,1.9-0.724,3.721-2.213,4.955c-1.189,1.045-2.703,2.054-3.417,3.168
				c-0.13,0.183-0.248,0.377-0.356,0.581c-0.37,0.705-0.59,1.497-0.709,2.285c-0.212,1.322-0.888,2.479-1.868,3.303
				c-1.302,0.959-2.772,1.221-4.01,1.15l0,0c-1.33-0.038-2.402-0.002-3.281,0.39c-1.195,0.581-2.08,0.825-2.341,1.443l0,0
				c-0.563,0.775-0.5,2.399-0.606,3.545c0.104,1.934-1.276,3.35-2.788,3.488C421.538,416.201,421.329,414.426,421.5,414.192
				L421.5,414.192z"/>
			<path id="path2253" d="M388.942,430.674c0.211-0.142,0.768,0.4,2.063,1.462c0.953,0.782,3.741,3.06,6.737,2.324
				c1.284-0.248,2.816-0.645,4.01-1.479c0.773-0.547,1.841-1.251,3.249-1.557c1.571-0.309,3.047-0.386,4.723-0.514
				c2.69-0.204,4.536-0.52,5.846-1.776c3.916-3.228,5.352-8.419,5.864-10.248c0.684-2.439,0.925-3.497,1.229-3.48
				c0.304,0.015,0.645,1.099,0.371,3.78c-0.216,2.115-1.192,7.685-5.818,11.851c-2.035,1.638-4.422,2.236-7.264,2.512
				c-1.685,0.163-3.215,0.213-4.516,0.4c-0.692,0.058-1.486,0.622-2.31,1.124c-1.716,1.075-3.556,1.5-5.025,1.682
				c-4.447,0.42-7.229-2.539-8.097-3.652C388.861,431.636,388.73,430.815,388.942,430.674L388.942,430.674z"/>
			<path id="path2303" d="M370.314,431.487c0.285-0.112,0.602,0.304,1.393,0.71c1.01,0.52,2.042,0.578,5.054,0.573
				c1.091-0.072,2.142,0.023,3.317,0.194c1.252,0.184,2.016,0.339,2.938,0.397c2.133,0.182,4.153-0.742,4.944-1.077
				c1.021-0.431,1.537-0.595,1.748-0.373c0.421,0.446-0.335,4.007-6.79,3.97c-1.092-0.018-2.06-0.171-3.226-0.35
				c-1.13-0.173-1.964-0.282-2.783-0.243c-3.235,0.354-5.351-0.941-6.192-1.961C369.821,432.243,370.103,431.569,370.314,431.487
				L370.314,431.487z"/>
			<path id="path2353" d="M356.484,422.108c0,0,0,0,0.001,0.004l0,0l0,0l0,0c0.005,0.019,0.041,0.096,0.27,0.239l0,0l0,0
				c0.064,0.123,0.119,0.297,0.165,0.525l0,0l0,0c0.078,0.39,0.129,0.943,0.139,1.681l0,0c0.014,0.961-0.041,2.509-0.294,4.3l0,0
				l0,0c-0.348,1.341,0.477,2.94,2.591,4.103c0.386,0.212,0.781,0.391,1.168,0.537c2.149,0.731,3.472,1.125,4.819,0.945
				c1.541-0.132,4.029-1.168,4.524-1.331c1.005-0.333,1.501-0.354,1.632-0.127c0.124,0.215-0.121,0.657-0.939,1.353
				c-0.626,0.532-2.409,1.897-4.855,2.413c-1.889,0.325-3.824-0.003-6.045-0.821c-0.529-0.18-1.064-0.417-1.583-0.72
				c-2.953-1.717-3.941-4.469-3.613-6.778l0,0l0,0c0.399-1.729,0.665-3.084,0.924-4.075l0,0c0.184-0.707,0.352-1.226,0.512-1.59l0,0
				l0,0c0.094-0.21,0.184-0.366,0.271-0.474l0,0l0,0c0.253-0.096,0.303-0.162,0.313-0.182l0,0l0,0l0,0
				C356.484,422.108,356.484,422.108,356.484,422.108L356.484,422.108z"/>
			<path id="path2403" d="M328.291,425.911c0,0,0-0.001,0.059-0.002c0.117,0.022,0.299,0.149,0.396,0.395
				c0.147,0.223,0.303,0.513,0.53,0.916c0.316,0.553,0.893,1.557,1.734,2.338c2.006,1.97,4.616,3.139,10.575,4.234
				c0.268,0.05,0.537,0.099,0.798,0.146c2.898,0.431,5.113,0.047,6.682-0.895c2.016-1.116,3.933-3.496,4.515-4.14
				c0.904-1.001,1.378-1.379,1.613-1.238c0.224,0.135,0.17,0.752-0.42,2.024c-0.46,0.992-1.813,3.539-4.46,5.351
				c-2.063,1.327-4.949,2.025-8.337,1.453c-0.271-0.037-0.548-0.078-0.83-0.123c-6.15-0.969-9.572-2.986-11.616-5.47
				c-0.992-1.245-1.358-2.509-1.482-3.262c-0.086-0.508-0.086-0.905-0.048-1.178c-0.016-0.298,0.149-0.498,0.233-0.538
				c0.058-0.016,0.059-0.012,0.059-0.012V425.911z"/>
			<path id="path2453" d="M306.157,361.252c0,0,0,0,0.001,0.001c0.002,0.011,0.02,0.065,0.162,0.155l0,0l0,0
				c0.051,0.094,0.104,0.233,0.158,0.42l0,0l0,0c0.103,0.344,0.214,0.848,0.336,1.53l0,0l0,0l0,0
				c0.211,1.173,0.443,2.802,0.738,5.073l0,0c0.259,1.986,0.953,8.049,1.685,12.213l0,0c0.518,2.971,0.712,5.617,1.03,9.213
				c0.363,4.084,0.658,7.903,1.048,12.922c-0.002-0.026,0.058,0.738,0.056,0.711c0.401,5.155,0.686,8.888,1.083,13.034
				c0.162,1.694,0.314,3.192,0.518,4.686c0.147,0.995,0.207,1.784,0.46,2.454c1.147,3.246,3.668,5.15,5.862,5.841l0,0
				c3.105,1.074,6.171-0.166,7.398-0.729c1.514-0.694,2.156-1.146,2.285-1.001c0.13,0.144-0.254,0.885-1.738,1.94
				c-1.224,0.871-4.432,2.656-8.485,1.657l0,0c-2.747-0.741-5.953-2.906-7.518-6.885c-0.385-1.026-0.516-1.996-0.651-2.927
				c-0.244-1.539-0.43-3.083-0.616-4.781c-0.444-4.044-0.784-8.065-1.178-13.088c0-0.004-0.056-0.708-0.056-0.713
				c-0.249-3.204-0.721-9.712-0.97-12.915c-0.281-3.69-0.398-6.15-0.821-9.052l0,0c-0.709-4.89-0.962-9.857-1.069-12.436l0,0
				c-0.095-2.27-0.108-3.98-0.072-5.144l0,0l0,0l0,0c0.022-0.694,0.063-1.211,0.116-1.565l0,0l0,0
				c0.029-0.193,0.063-0.339,0.1-0.439l0,0l0,0C306.145,361.32,306.156,361.264,306.157,361.252
				C306.157,361.252,306.157,361.252,306.157,361.252z"/>
			<path id="path7466" d="M294.191,293.045c-0.305,0.372-3.346-0.598-8.758-7.338c-5.413-6.742-4.908-10.191-4.441-10.309
				c0.467-0.117,0.603,2.818,5.796,9.214C291.981,291.008,294.497,292.674,294.191,293.045z"/>
			<path id="path7566" d="M302.795,322.609c-0.19-0.035-0.059-0.83-0.463-2.504c-0.56-2.318-1.473-3.598-4.389-7.93
				c-1.197-1.695-2.77-3.586-4.398-5.943c-1.104-1.598-1.968-3.079-2.623-4.607c-2.066-5.035-1.166-8.54-1.725-10.588l0,0
				c-0.227-0.988-0.902-1.772-1.108-2.342c-0.207-0.58-0.142-0.867-0.046-0.896c0.114-0.032,0.251,0.189,0.591,0.593
				c0.064,0.076,1.252,1.309,1.654,2.274l0,0c0.88,2.196,0.304,6.176,2.196,10.281c0.608,1.392,1.422,2.756,2.491,4.29
				c1.576,2.262,3.142,4.201,4.336,6.001c2.824,4.066,3.832,6.41,4.01,8.714C303.471,321.879,302.986,322.647,302.795,322.609
				L302.795,322.609z"/>
			<path id="path7666" d="M304.851,334.122c-0.046,0.212-1.134,1.212-2.469-0.825c-0.271-0.686-0.169-1.458,0.207-2.035l0,0
				c0.368-0.906,1.542-2.317,1.103-2.717l0,0c-0.427-1.156-2.06-2.003-3.682-3.734c-0.668-0.713-1.178-1.496-1.467-2.435
				c-0.406-2.148,0.774-4.434,1.068-5.287c0.549-1.49-0.254-2.912-0.594-3.443c-0.432-0.678-0.709-0.973-0.619-1.111
				c0.09-0.137,0.552-0.109,1.28,0.526c0.588,0.513,1.898,2.078,1.403,4.429c-0.244,1.146-1.258,3.393-0.867,4.467
				c0.096,0.59,0.452,1.1,1.023,1.645c1.667,1.59,3.107,2.246,3.975,4.345l0,0c0.446,1.997-1.048,3.495-1.436,3.983l0,0
				c-0.238,0.521-0.475,0.744-0.36,0.904C303.418,333.77,304.896,333.91,304.851,334.122z"/>
			<path id="path7716" d="M337.788,310.216c-0.155,0.183-1.061-0.119-2.368-1.802c-1.81-2.332-2.272-4.281-3.931-9.867
				c-0.017-0.055-0.034-0.108-0.051-0.162c-0.807-2.547-1.517-4.219-2.538-5.639c-2.703-3.844-5.189-3.873-5.101-4.221
				c0.088-0.347,2.9-1.107,6.379,3.258c1.221,1.559,2.117,3.461,2.924,6.081c0.018,0.056,0.034,0.112,0.051,0.168
				c1.559,4.862,2.329,8.032,3.262,9.72C337.348,309.44,337.943,310.033,337.788,310.216z"/>
			<path id="path7766" d="M339.574,320.955c-0.129,0.202-0.882,0.118-2.08-1.029c-1.231-1.182-2.714-3.477-3.278-7.566
				c-0.004-0.025-0.008-0.051-0.012-0.077c-0.595-3.909-0.535-6.413-0.651-7.964c-0.117-1.551-0.132-2.197,0.099-2.267
				c0.23-0.069,0.668,0.478,1.109,2.051c0.442,1.573,0.613,4.233,1.166,7.919c0.004,0.025,0.007,0.049,0.011,0.073
				c0.665,3.9,1.564,5.745,2.463,7.048C339.217,320.324,339.704,320.754,339.574,320.955L339.574,320.955z"/>
			<path id="path7816" d="M318.252,339.08c-0.116-0.104,0.522-2.158,5.426-3.682l0,0c1.854-0.598,4.236-1.056,6.989-1.873
				c1.169-0.367,2.591-0.828,3.697-1.529c0.53-0.336,0.975-0.715,1.328-1.152c1.439-1.546,1.136-4.211,0.798-5.813
				c-0.771-3.273-1.037-5.471-1.279-6.858c-0.241-1.385-0.313-1.99-0.146-2.05c0.167-0.059,0.55,0.445,1.066,1.796
				c0.838,2.191,0.783,2.727,1.896,6.717c0.537,1.801,0.913,4.889-1.009,7.326c-0.495,0.568-1.07,1.06-1.718,1.484
				c-1.369,0.897-2.914,1.395-4.159,1.724c-2.913,0.815-5.254,1.169-7.063,1.624l0,0
				C319.626,337.969,318.478,339.281,318.252,339.08L318.252,339.08z"/>
			<path id="path7866" d="M314.919,336.448c-0.331-0.35,0.309-2.161,3.367-1.606c3.059,0.555,3.311,2.274,2.965,2.609
				c-0.346,0.334-1.174-0.425-3.311-0.959C315.804,335.959,315.25,336.797,314.919,336.448L314.919,336.448z"/>
			<path id="path7916" d="M310.435,333.24c-0.325-0.354,0.534-2.531,4.078-1.594c3.544,0.938,3.497,3.163,3.076,3.396
				c-0.42,0.234-1.003-1.008-3.531-1.781C311.531,332.489,310.761,333.595,310.435,333.24L310.435,333.24z"/>
			<path id="path7966" d="M304.27,334.106c-0.188-0.067-0.392-0.446,0.045-1.154c0.438-0.71,1.499-1.554,3.297-1.798
				c0.049-0.011,0.099-0.021,0.149-0.031c3.412-0.709,4.604,0.076,4.566,0.557c-0.038,0.479-1.123,0.517-4.213,1.149
				c-0.046,0.01-0.092,0.019-0.137,0.028c-1.952,0.59-2.004,0.44-2.815,0.887C304.723,333.987,304.521,334.197,304.27,334.106
				L304.27,334.106z"/>
			<path id="path8016" d="M358,315.435c-0.223,0.091-0.823-0.678-1.69-2.878c-0.867-2.2-1.679-5.942-3.436-11.183
				c-0.016-0.046-0.031-0.091-0.046-0.137c-1.917-5.487-3.774-8.052-5.425-9.736c-1.516-1.548-2.336-2.015-2.229-2.229
				c0.107-0.215,1.149-0.123,3.026,1.328c1.952,1.511,4.416,4.412,6.278,10.078c0.016,0.047,0.031,0.094,0.047,0.142
				c1.823,5.441,2.406,9.118,2.956,11.362C358.03,314.428,358.223,315.344,358,315.435L358,315.435z"/>
			<path id="path8066" d="M361.313,328.118c-0.197,0.138-0.935-0.374-1.932-2.212c-1.315-2.425-1.76-4.498-2.896-9.962l-0.006-0.03
				c-1.114-4.988-2.374-7.385-3.584-9.097c-1.098-1.556-1.715-2.107-1.573-2.302c0.142-0.193,1.039,0.025,2.499,1.528
				c1.526,1.571,3.311,4.375,4.361,9.506l0.007,0.031c1.064,4.86,1.649,7.987,2.302,9.827
				C361.144,327.248,361.51,327.98,361.313,328.118L361.313,328.118z"/>
			<path id="path8116" d="M360.68,326.869c-0.336,0.344-2.333-0.379-5.341-5.143c-3.008-4.764-2.594-6.951-2.126-7.064
				c0.468-0.112,0.768,1.684,3.597,6.133C359.638,325.244,361.016,326.525,360.68,326.869L360.68,326.869z"/>
			<path id="path8166" d="M355.641,334.183c-0.479-0.042-0.368-2.005-0.357-7.227c0.011-5.222-1.014-6.614-0.588-6.838
				c0.427-0.224,2.273,1.247,2.336,6.829C357.093,332.531,356.12,334.225,355.641,334.183L355.641,334.183z"/>
			<path id="path8216" d="M356.317,334.275c-0.342,0.339-2.239-0.492-4.379-5.219c-2.141-4.726-2.194-6.438-1.752-6.629
				c0.441-0.189,1.342,1.391,3.346,5.915C355.537,332.867,356.66,333.938,356.317,334.275z"/>
			<path id="path8266" d="M351.669,339.911c-0.48-0.013-0.625-1.751-0.463-6.243c0.162-4.492-0.593-5.664-0.161-5.878
				c0.432-0.213,2.006,1.126,1.911,5.927C352.861,338.516,352.15,339.924,351.669,339.911z"/>
			<path id="path8366" d="M351.729,338.865c-0.174,0.166-0.591-0.021-1.494-0.52c-0.902-0.5-2.385-1.192-4.775-2.394
				c-2.515-1.265-3.752-2.29-4.513-3.294c-0.694-0.917-0.694-1.447-0.518-1.566c0.199-0.135,0.574,0.133,1.37,0.724
				c1.074,0.799,1.785,1.243,4.448,2.553c2.562,1.26,3.795,2.039,4.738,3.009C351.792,338.204,351.889,338.715,351.729,338.865z"/>
			<path id="path8416" d="M349.536,340.66c-0.452,0.233-1.053-0.191-1.909-1.892c-0.82-1.628-0.911-2.301-0.502-2.588
				c0.372-0.262,1.145,0.007,2.058,1.802C350.059,339.706,349.935,340.455,349.536,340.66z"/>
			<path id="path8466" d="M347.429,340.371c-0.126,0.465-1.737,0.661-5.926-1.09c-4.189-1.752-5.149-3.117-4.889-3.523
				c0.261-0.404,1.554,0.245,5.56,1.914C346.18,339.343,347.555,339.907,347.429,340.371L347.429,340.371z"/>
			<path id="path8516" d="M339.906,348.913c0.004,0.132-0.257,0.37-0.953,0.282c-0.68-0.086-1.81-0.611-2.715-1.775
				c-1.063-1.244-1.653-2.33-2.866-4.367c-0.461-0.762,0.192,0.318-0.269-0.443c-1.028-1.695-1.735-2.719-2.641-3.596
				c-2.164-2.105-3.737-1.678-3.791-2.026c-0.053-0.349,1.868-1.686,4.852,0.849c1.108,0.939,2.04,2.141,3.075,3.872
				c0.093,0.154,0.183,0.308,0.27,0.456c1.114,1.883,1.857,3.323,2.556,4.341c0.883,1.156,1.252,1.545,1.788,1.886
				C339.64,348.662,339.901,348.754,339.906,348.913L339.906,348.913z"/>
			<path id="path8566" d="M323.429,347.438c0.225-0.425,1.648,0.656,6.197-0.183c0.055-0.011,0.108-0.021,0.161-0.03
				c2.625-0.547,3.591-0.818,5-0.734c1.059,0.064,1.445,0.354,1.434,0.573c-0.014,0.237-0.409,0.393-1.324,0.634
				c-0.916,0.241-2.333,0.746-4.761,1.233c-0.059,0.013-0.12,0.025-0.182,0.038C324.83,349.984,323.204,347.863,323.429,347.438
				L323.429,347.438z"/>
			<path id="path8616" d="M316.708,349.787c0.164-0.451,1.631,0.296,5.822-0.103c0.037-0.004,0.074-0.007,0.111-0.011
				c2.057-0.281,3.146-0.914,3.761-1.373c0.62-0.465,0.891-0.752,1.111-0.66c0.176,0.074,0.352,0.563-0.227,1.449
				c-0.528,0.809-1.949,2.117-4.464,2.316c-0.042,0.004-0.085,0.008-0.128,0.013C317.902,351.877,316.543,350.24,316.708,349.787
				L316.708,349.787z"/>
			<path id="path8666" d="M313.62,352.762c0.01-0.618,0.833-0.718,3.07-0.913c2.105-0.184,2.536-0.604,2.861-0.251
				c0.147,0.16,0.188,1.592-2.66,1.988C314.333,353.943,313.612,353.242,313.62,352.762L313.62,352.762z"/>
			<path id="path8716" d="M304.168,360.035c0.123-0.207,0.658-0.045,1.892,0.167c0.971,0.167,3.534,0.517,5.906-0.859
				c0.025-0.015,0.051-0.03,0.075-0.044c2.314-1.34,3.013-3.824,3.215-4.73c0.264-1.182,0.279-1.738,0.515-1.783
				c0.234-0.047,0.671,0.449,0.696,1.894c0.026,1.444-0.417,4.239-3.538,6.118c-0.031,0.02-0.064,0.037-0.096,0.056
				c-3.145,1.792-5.799,1.099-7.133,0.525C304.366,360.805,304.045,360.242,304.168,360.035L304.168,360.035z"/>
			<path id="path8766" d="M390.3,339.111c-0.123,0.205-1.022-0.266-3.341-0.83c-2.32-0.566-6.299-0.634-12.435-0.957
				c-0.042-0.002-0.083-0.004-0.125-0.005c-6.58-0.255-10.292-1.919-12.469-3.565c-2.058-1.557-2.437-2.645-2.252-2.799
				s0.872,0.626,2.917,1.803c2.268,1.305,5.438,2.446,11.888,2.819c0.001,0,0.12,0.007,0.12,0.007
				c7.023,0.273,9.442,0.291,12.716,1.547C389.713,338.048,390.424,338.905,390.3,339.111L390.3,339.111z"/>
			<path id="path8816" d="M392.009,340.586c-0.457,0.15-1.258-3.652-6.785-13.361c-5.527-9.707-8.594-12.055-8.253-12.395
				c0.341-0.34,4.08,1.566,9.767,11.533C392.423,336.329,392.466,340.436,392.009,340.586z"/>
			<path id="path8866" d="M395.321,355.595c-0.065,0.171-0.826-0.081-2.609-0.075c-1.782,0.006-4.637,1.047-9.315,0.99
				c-2.899-0.027-6.511-0.603-10.328-2.369c-2.023-0.935-3.765-2.05-5.225-3.195c-4.118-3.244-8.075-7.947-9.094-9.15
				c-1.668-1.97-2.282-2.84-2.133-2.988c0.147-0.146,1.037,0.453,2.935,2.226c0.431,0.403,6.175,6.159,9.336,8.565
				c1.382,1.055,3.02,2.088,4.911,2.965c3.568,1.652,6.931,2.236,9.634,2.336c4.167,0.143,7.436-0.623,9.352-0.335
				C394.7,354.852,395.386,355.424,395.321,355.595z"/>
			<path id="path8916" d="M395.33,354.955c-0.48-0.008-0.09-2.406-2.077-8.328c-1.987-5.922-4.028-7.158-3.698-7.508
				c0.33-0.351,3.139,0.543,5.332,6.953C397.08,352.482,395.811,354.963,395.33,354.955z"/>
			<path id="path8966" d="M395.712,369.09c-0.022,0.239-1.713,0.439-5.788-0.237c-3.853-0.64-10.766-2.343-19.249-7.372
				c-8.146-4.83-13.928-10.462-16.375-13.018c-2.892-3.02-3.8-4.412-3.623-4.576c0.176-0.163,1.405,0.93,4.485,3.686
				c2.422,2.168,8.682,7.82,16.398,12.416c8.225,4.897,14.939,6.777,18.605,7.672C394.088,368.616,395.732,368.85,395.712,369.09z"
				/>
			<path id="path9016" d="M395.451,369.971c-0.211,0.068-0.625-0.326-1.023-1.57c-0.671-2.1-0.402-2.445-1-6.197
				c-0.002-0.014-0.004-0.025-0.008-0.037c-0.479-2.785-1.517-4.391-2.201-5.311c-0.685-0.921-1.04-1.306-0.912-1.51
				c0.127-0.204,0.737-0.18,1.778,0.663c0.978,0.793,2.553,2.647,3.056,5.877c0.002,0.014,0.004,0.027,0.007,0.042
				c0.5,3.095,0.415,5.038,0.483,6.245C395.699,369.381,395.68,369.897,395.451,369.971L395.451,369.971z"/>
			<path id="path9066" d="M335.985,375.232c0.166,0.3-1.729,2.893-7.604,1.675c-2.355-0.491-4.846-1.59-7.777-3.601
				c-0.082-0.056-0.165-0.112-0.247-0.17c-4.054-2.815-8.799-7.563-9.66-8.411c-1.806-1.774-2.473-2.542-2.324-2.731
				c0.15-0.188,1.099,0.248,3.132,1.801c2.033,1.553,4.924,4.512,9.844,7.91c0.079,0.055,0.158,0.109,0.236,0.162
				c2.847,1.928,5.028,2.978,7.147,3.517C333.8,376.685,335.82,374.932,335.985,375.232L335.985,375.232z"/>
			<path id="path9116" d="M333.176,376.301c-0.018-0.232,1.379-0.135,2.474-1.695l0,0c0.45-0.576,0.701-1.395,0.766-2.572
				c0.102-2.283-0.524-4.551-2.059-8.135c-0.1-0.23-0.205-0.463-0.313-0.697c-1.552-3.386-3.233-5.928-4.574-7.723
				c-1.581-1.98-2.62-3.286-3.421-3.855c-0.802-0.57-1.258-0.705-1.233-0.867c0.025-0.162,0.559-0.323,1.639,0.094
				c1.27,0.488,2.476,1.488,4.21,3.68c1.516,1.797,3.343,4.404,4.964,7.945c0.112,0.245,0.221,0.488,0.324,0.728
				c1.611,3.633,2.198,6.375,1.958,8.936c-0.119,1.412-0.65,2.52-1.357,3.261l0,0C334.547,377.363,333.194,376.534,333.176,376.301z
				"/>
			<path id="path9166" d="M334.477,351.326c0.032-0.154,0.799-0.252,2.316,0.404c1.895,0.822,3.34,2.091,6.205,5.114
				c2.154,2.21,5.615,6.126,7.519,11.194c0.343,0.877,0.648,1.853,0.843,2.882c0.413,2.189,0.259,4.265-0.596,6.086
				c-1.549,2.935-4.763,3.876-7.002,3.917c-4.564,0.114-8.536-1.764-9.97-2.487c-1.876-0.948-2.558-1.51-2.48-1.667
				c0.077-0.158,0.915,0.109,2.857,0.783c1.381,0.48,5.564,2.051,9.523,1.789c1.867-0.141,4.589-0.941,5.529-3.09
				c0.709-1.376,0.783-3.068,0.4-4.994c-0.18-0.904-0.447-1.796-0.732-2.615c-1.704-4.663-4.999-8.565-6.977-10.785
				c-2.527-2.754-4.237-4.566-5.512-5.381C335.127,351.66,334.444,351.478,334.477,351.326z"/>
			<path id="path9216" d="M350.165,352.074c0.258-0.254,2.928,1.5,8.008,8.359c1.525,2.051,3.802,5.254,5.298,8.883
				c0.194,0.471,0.372,0.938,0.532,1.403c0.532,1.499,0.842,2.991,0.701,4.505l0,0c-0.139,1.43-0.892,2.659-1.97,3.391
				c-1.697,1.048-3.628,1.047-4.918,0.938c-6.085-0.42-7.958-2.012-7.868-2.307c0.09-0.295,2.282,0.773,7.93,0.84
				c1.199-0.008,2.877-0.045,3.947-0.837c0.637-0.408,1.086-1.24,1.181-2.19l0,0c0.12-1.147-0.178-2.367-0.647-3.771
				c-0.148-0.433-0.314-0.869-0.494-1.31c-1.376-3.349-3.586-6.563-4.998-8.606C352.086,354.484,349.906,352.328,350.165,352.074
				L350.165,352.074z"/>
			<path id="path9266" d="M383.588,375.505c0.326,0.117,0.74,2.645-3.307,4.593l0,0c-1.553,0.73-3.522,1.121-6.013,0.965
				c-0.036-0.002-0.072-0.004-0.108-0.008c-8.796-0.527-10.984-3.561-10.753-3.982c0.232-0.422,2.647,1.743,10.858,2.244
				c0.034,0.002,0.067,0.004,0.101,0.007c2.308,0.114,3.946-0.125,5.281-0.665l0,0C382.93,377.379,383.262,375.389,383.588,375.505
				L383.588,375.505z"/>
			<path id="path9316" d="M392.737,368.621c0.256,0.002,1.451,1.57-0.606,4.713l0,0c-0.647,0.919-1.805,1.736-3.343,1.902
				c-2.927,0.297-5.734-0.741-9.383-2.873c-0.239-0.135-0.479-0.274-0.723-0.418c-3.772-2.224-6.76-4.693-8.641-6.39l0,0
				c-1.503-1.353-2.551-2.448-3.32-3.364c-1.393-1.641-1.674-2.512-1.459-2.632c0.182-0.102,0.698,0.464,2.248,1.866
				c0.902,0.804,1.936,1.703,3.515,2.978l0,0c1.886,1.52,4.958,3.93,8.542,6.041c0.234,0.138,0.467,0.272,0.696,0.402
				c3.687,2.025,5.893,3.068,8.384,2.863c1.108-0.078,1.97-0.558,2.447-1.148l0,0C392.938,370.468,392.48,368.619,392.737,368.621z"
				/>
			<path id="path9366" d="M329.845,425.738c-0.184-0.002-0.375-0.94-0.315-3.175c0.06-2.235,0.746-5.766,0.607-10.777
				c-0.08-3.2-0.359-6.88-1-11.383c-1.345-9.438-2.893-15.705-3.588-19.649c-0.693-3.944-0.788-5.543-0.552-5.592
				c0.235-0.047,0.756,1.459,1.759,5.331c0.643,2.48,2.943,11.497,4.102,19.665c0.647,4.563,0.892,8.342,0.898,11.606
				c-0.002,3.835-1.128,10.161-1.241,10.887C330.177,424.826,330.028,425.741,329.845,425.738L329.845,425.738z"/>
			<path id="path9416" d="M356.156,425.388c-0.232-0.06,0.136-1.537,0.153-5.185c0.02-3.846-0.554-9.367-4.013-18.052l-0.035-0.088
				c-2.974-7.372-7.188-14.423-8.534-16.753c-1.888-3.267-2.583-4.612-2.384-4.747c0.199-0.135,1.255,0.964,3.426,4.087
				c1.776,2.557,5.902,8.831,9.108,16.761l0.036,0.09c3.577,8.801,3.962,14.841,3.611,18.759c-0.339,3.794-1.136,5.186-1.368,5.127
				V425.388z"/>
			<path id="path9466" d="M372.348,431.631c-0.22-0.098,0.61-1.749,1.195-6.049c0.588-4.322,0.61-11.438-3.49-21.722
				c0,0-0.053-0.131-0.053-0.13c-3.605-8.898-9.002-16.983-10.801-19.746c-2.468-3.793-3.426-5.328-3.233-5.473
				c0.192-0.145,1.496,1.123,4.244,4.764c2.196,2.91,7.573,10.369,11.404,19.8c0,0,0.054,0.133,0.054,0.134
				c4.29,10.518,3.986,18.163,3.066,22.578C373.809,430.228,372.567,431.728,372.348,431.631L372.348,431.631z"/>
			<path id="path9516" d="M389.655,431.62c-0.158-0.008-0.289-0.849-0.235-2.83c0.022-0.849,0.476-6.218-0.184-9.292l0,0
				c-0.877-4.256-2.563-9.923-6.12-16.444c-4.978-9.125-11.57-16.013-14.201-18.739c-3.28-3.4-4.635-4.694-4.48-4.879
				c0.155-0.183,1.794,0.774,5.345,3.986c2.984,2.701,9.668,9.235,14.867,18.798c3.647,6.71,5.302,12.585,6.067,16.998l0,0
				c0.64,3.829-0.231,8.529-0.413,9.654C389.989,430.805,389.815,431.627,389.655,431.62z"/>
			<path id="path9566" d="M422.347,415.457c-0.219,0.1-0.996-1.355-3.157-4.767c-2.297-3.627-5.668-8.506-12.6-15.936
				c-6.761-7.248-11.602-11.924-14.371-15.022c-2.768-3.098-3.682-4.474-3.503-4.635c0.179-0.162,1.41,0.916,4.396,3.775
				c1.081,1.036,9.718,9.268,14.758,14.69c6.94,7.465,10.358,12.725,12.374,16.513C422.178,413.712,422.565,415.356,422.347,415.457
				L422.347,415.457z"/>
			<path id="path9616" d="M439.223,373.967c0.055,0.151-0.525,0.629-2.126,0.87c-1.792,0.27-4.079,0.06-7.785-1.267
				c-3.59-1.23-7.275-2.992-12.543-6.03c-0.133-0.077-0.267-0.153-0.401-0.231c-4.451-2.582-9.311-5.719-11.725-7.277
				c-6.406-4.124-8.761-5.43-8.634-5.733c0.127-0.305,2.95,0.588,9.436,4.434c3.021,1.786,6.851,4.201,11.796,7.068
				c0.134,0.078,0.266,0.154,0.398,0.23c5.297,3.051,8.688,4.763,12.189,6.123c3.752,1.398,5.383,1.786,7.208,1.819
				C438.511,374.001,439.169,373.815,439.223,373.967L439.223,373.967z"/>
			<path id="path9666" d="M444.825,354.548c0.052,0.158-0.699,0.665-2.704,1.085c-2.119,0.445-5.19,0.624-9.982-0.281
				c-4.211-0.778-8.896-2.18-15.097-4.742c-0.086-0.036-0.173-0.072-0.26-0.107c-8.746-3.637-17.401-8.504-20.092-10.038
				c-3.885-2.216-5.354-3.225-5.244-3.439c0.111-0.213,1.788,0.412,5.818,2.348c1.19,0.572,13.213,6.625,20.186,9.52
				c0.085,0.035,0.171,0.07,0.256,0.105c6.167,2.544,10.63,3.955,14.734,4.845c4.72,1.002,7.405,1.056,9.551,0.897
				C443.935,354.596,444.773,354.39,444.825,354.548L444.825,354.548z"/>
			<path id="path9716" d="M446.881,333.369c-0.117,0.141-1.082-0.635-3.617-1.895c-2.501-1.242-6.796-2.93-13.527-3.248
				c-4.183-0.186-9.294,0.179-15.404-0.412c-1.088-0.105-2.139-0.242-3.163-0.418c-6.415-1.137-20.43-7.892-21.045-8.139
				c-2.439-1.036-4.768-0.608-6.103-0.867c-1.336-0.259-1.844-0.638-1.801-0.756c0.043-0.119,0.6,0.025,1.878,0.052
				c0.104,0.002,4.502-0.276,6.471,0.37c4.64,1.576,10.976,5.966,20.895,7.627c0.977,0.168,1.985,0.301,3.035,0.402
				c5.898,0.569,11.046,0.252,15.325,0.525c6.977,0.427,11.467,2.483,13.916,4.009C446.245,332.182,446.999,333.228,446.881,333.369
				L446.881,333.369z"/>
			<path id="path9766" d="M449.77,317.892c-0.218,0.061-0.475-2.776-4.942-6.412l0,0c-2.007-1.632-4.589-3.098-8.37-4.497
				c-6.258-2.307-13.162-3.629-23.96-4.563c-0.369-0.032-0.742-0.063-1.118-0.093c-9.473-0.758-19.435-0.829-24.922-0.875
				c-8.355-0.068-10.2,0.053-14.666-0.208c-3.011-0.177-4.278-0.42-4.27-0.585c0.009-0.164,1.288-0.229,4.284-0.314
				c2.997-0.088,7.71-0.33,14.647-0.42c5.701-0.076,15.297-0.114,25.065,0.666c0.379,0.03,0.755,0.062,1.128,0.094
				c10.827,0.924,18.013,2.398,24.348,4.888c3.861,1.513,6.567,3.197,8.595,5.018l0,0
				C450.183,314.709,449.986,317.831,449.77,317.892L449.77,317.892z"/>
			<path id="path10303" d="M293.227,359.493c0.113-0.003,0.142,0.46,0.641,1.213c0.498,0.753,1.853,2.177,3.369,1.474l0,0
				c1.65-0.418,1.518-2.474,1.546-5.699c-0.163-1.859-0.451-4.619-2.124-5.891c-1.248-1.051-2.225-2.303-3.223-3.699
				c-0.631-0.828-1.544-1.895-1.983-3.289c-0.073-1.75,1.13-2.646,1.834-2.995c0.013-0.009,0.024-0.017,0.036-0.026
				c2.789-1.961,6.411,0.318,8.076,0.99c6.332,1.783,8.793,3.253,12.819,2.584c2.764-0.135,3.268-4.417,3.423-5.521
				c0.242-1.725,0.284-2.453,0.43-2.461c0.146-0.01,0.423,0.685,0.439,2.518c0.01,1.162-0.109,5.794-4.044,6.861
				c-4.383,0.818-7.484-0.563-13.539-2.334c-2.52-0.5-5.395-2.85-6.449-1.346c-0.004,0.007-0.009,0.014-0.013,0.02
				c-0.729,0.955-1.78,1.22-1.344,1.221c0.233,0.894,1.064,1.819,1.714,2.775c0.988,1.377,1.842,2.523,2.904,3.426
				c2.228,2.03,2.539,5.119,2.561,7.095c0.348,3.308-0.443,6.012-2.686,6.892l0,0c-2.607,0.685-3.934-1.29-4.326-2.299
				C292.895,359.99,293.112,359.495,293.227,359.493L293.227,359.493z"/>
			<path id="path10353" d="M281.668,342.153c0.178-0.299,1.861,0.241,5.372,3.289c1.575,1.395,2.741,3.802,4.567,5.976
				c0.108,0.129,0.218,0.252,0.328,0.371c1.562,1.91,1.444,4.551,1.498,5.785c0.109,2.316,1.645,3.455,2.541,3.902
				c0.898,0.446,1.43,0.474,1.442,0.657c0.013,0.184-0.53,0.516-1.749,0.227c-1.22-0.288-3.456-1.455-3.848-4.64
				c-0.189-1.402-0.094-3.807-1.162-4.748c-0.13-0.143-0.258-0.287-0.383-0.437c-2.108-2.513-3.021-4.733-4.285-5.954
				C282.793,343.456,281.516,342.41,281.668,342.153L281.668,342.153z"/>
			<path id="path10403" d="M266.689,341.132c0,0,0.001-0.001,0.016,0.028c0.033,0.244-0.924,1.348-3.474,3.512
				c-1.399,1.184-3.651,2.74-6.718,3.724c-1.024,0.347-2.277,0.661-3.012,1.313c-0.295,0.129-0.342,0.683-0.08,1.024
				c0.701,1.508,3.147,1.32,5.687,0.668c0.499-0.163,1.005-0.336,1.519-0.518c2.012-0.709,4.172-1.569,5.879-2.236
				c3.133-1.229,5.125-1.957,7.395-3.088c4.338-2.135,8.498-1.179,10.148-0.63c2.004,0.666,2.678,1.294,2.603,1.448
				c-0.073,0.154-0.889-0.17-2.842-0.542c-1.578-0.302-5.536-0.882-9.191,1.112c-2.283,1.222-4.426,2.065-7.481,3.292
				c-1.722,0.693-3.845,1.552-5.931,2.286c-0.527,0.187-1.046,0.363-1.56,0.529c-2.8,1.086-6.016,0.836-7.655-1.434
				c-0.625-1.082-0.4-2.363,0.475-3.188c1.188-0.909,2.6-1.256,3.599-1.521c2.843-0.805,5.052-2.151,6.462-3.148
				c2.703-1.913,3.902-2.726,4.137-2.652c0.025,0.02,0.025,0.022,0.025,0.022V341.132z"/>
			<path id="path10503" d="M304.258,333.582c0.104,0.118-1.004,1.608-3.926,0.971c-2.639-0.531-3.57-1.047-7.511-2.307
				c-2.13-0.678-7.341-2.818-10.766-3.237c-2.892-0.419-5.212,0.835-9.05,1.778c-4.05,1.012-8.314,0.939-13.241,0.318
				c-1.106-0.139-2.198-0.299-3.237-0.457c-1.58-0.236-3.008-0.627-4.359-0.835l0,0c-0.629-0.064-1.221-0.041-1.434,0.291
				c-1.38,0.987,0.273,3.731,1.582,4.646c2.555,1.608,5.994,1.584,8.554,1.471c5.468-0.291,7.831-0.629,11.516-0.232l0,0
				c3.067,0.347,4.827,1.401,6.046,1.714c1.219,0.314,1.805,0.322,1.81,0.432c0.005,0.108-0.594,0.305-1.916,0.171
				c-1.323-0.135-3.335-1.045-6.034-1.178l0,0c-3.764-0.215-5.598,0.203-11.326,0.615c-2.645,0.213-6.342,0.258-9.505-1.564
				c-2.182-1.176-4.09-4.672-1.953-7.274c0.867-0.771,1.962-0.977,2.922-0.798l0,0c1.477,0.225,2.912,0.613,4.352,0.822
				c1.033,0.148,2.118,0.301,3.201,0.436c4.838,0.601,8.858,0.715,12.611-0.225c3.611-0.918,6.238-2.144,9.676-1.707
				c3.875,0.568,8.883,2.816,10.973,3.576c3.23,1.164,5.539,2.189,7.297,2.707C303.113,334.431,304.155,333.463,304.258,333.582
				L304.258,333.582z"/>
			<path id="path10553" d="M299.347,360.678c0,0-0.001,0-0.02-0.061l0,0l0,0l0,0l0,0l0,0l0,0l0,0l0,0l0,0l0,0l0,0l0,0l0,0l0,0l0,0
				l0,0l0,0l0,0l0,0c-0.096-0.443,0.518-1.299,2.531-2.761c2.111-1.533,3.043-1.747,3.317-1.366
				c0.272,0.381-0.239,1.205-2.513,2.824c-2.167,1.542-3.063,1.771-3.289,1.422l0,0l0,0l0,0l0,0l0,0l0,0l0,0l0,0l0,0l0,0l0,0l0,0
				l0,0l0,0l0,0l0,0l0,0l0,0l0,0C299.346,360.678,299.347,360.678,299.347,360.678L299.347,360.678z"/>
			<path id="path10603" d="M281.935,366.791c-0.102-0.158,0.028-0.533,0.733-0.975c0.912-0.572,1.738-0.724,3.648-1.15
				c0.561-0.133,1.178-0.301,1.852-0.525c4.621-1.534,6.066-2.625,6.331-2.223c0.264,0.401-0.727,2.193-5.784,3.871
				c-0.739,0.245-1.425,0.417-2.05,0.535c-1.834,0.363-2.922,0.378-3.603,0.488C282.387,366.922,282.059,366.977,281.935,366.791
				L281.935,366.791z"/>
			<path id="path10653" d="M266.762,374.421c0,0,0,0,0.003-0.003l0,0c0.016-0.012,0.065-0.061,0.114-0.203l0,0l0,0
				c0.08-0.078,0.199-0.176,0.361-0.292l0,0l0,0c0.273-0.196,0.686-0.459,1.232-0.765l0,0c0.602-0.339,1.813-1.014,3.111-1.377l0,0
				c1.541-0.396,3.088-0.127,5.017,0.439l0,0c2.091,0.57,4.568,1.58,7.049,3.305l0,0c2.124,1.49,3.744,3.299,5.743,5.572
				c1.071,1.168,2.25,2.609,3.572,3.299c0.261,0.135,0.526,0.242,0.8,0.318c1.718,0.55,3.636-0.524,3.52-1.789
				c0.163-0.029-0.104-0.169-0.368-0.32c-0.988-0.433-1.928-0.903-2.787-1.571c-3.1-2.484-4.561-5.267-6.308-6.89
				c-1.475-1.289-2.353-2.709-2.396-4.24c0.035-1.713,0.842-3.357,1.086-3.863c0.357-0.74,0.564-1.053,0.66-1.023
				c0.102,0.031,0.092,0.412-0.089,1.223c-0.101,0.451-0.667,2.385-0.55,3.631c0.037,1.107,0.848,2.002,2.211,3.235
				c2.003,1.71,3.648,4.546,6.402,6.621c0.676,0.526,1.492,0.907,2.447,1.321c0.681,0.26,1.301,0.933,1.4,1.98
				c-0.348,2.489-3.014,4.203-5.754,3.347c-0.371-0.128-0.728-0.282-1.069-0.462c-1.761-0.926-3.068-2.477-4.076-3.676
				c-2.013-2.293-3.474-4-5.392-5.377l0,0c-2.278-1.648-4.566-2.664-6.504-3.283l0,0c-1.935-0.576-3.103-0.953-4.353-0.69l0,0
				c-1.082,0.203-2.462,0.757-3.051,0.972l0,0c-0.594,0.217-1.018,0.369-1.352,0.472l0,0l0,0c-0.189,0.058-0.336,0.096-0.445,0.114
				l0,0l0,0c-0.145-0.044-0.213-0.031-0.232-0.025l0,0C266.762,374.422,266.762,374.421,266.762,374.421z"/>
			<path id="path10703" d="M290.066,350.727c0.099-0.008,0.332,0.531,0.089,1.654c-0.28,1.287-1.087,2.65-3.041,4.617l0,0
				c-1.974,2.022-4.659,3.113-8.812,4.035c-2.92,0.678-6.395,0.719-9.782,2.029c-2.507,0.841-3.514,3.516-5.657,6.543
				c-2.08,3.063-3.518,7.088-6.283,10.945c-0.143,0.198-0.287,0.395-0.436,0.588c-1.188,1.496-2.789,2.432-4.231,3.139
				c-0.661,0.408-1.29,0.89-0.917,1.146c0.195,0.788,1.231,1.242,2.156,1.305c1.52,0.08,3.07-0.574,4.409-1.31
				c3.103-1.751,4.919-4.482,5.265-7.181c0.783-4.529,4.263-6.477,5.257-8.82c0.763-1.584,2.401-2.026,3.616-1.836
				c5.16,0.887,6.854,2.19,6.8,2.382c-0.053,0.192-2.11-0.812-6.948-1.329c-0.848-0.1-2.037,0.253-2.316,1.248
				c-1.085,2.802-4.616,5.057-4.891,8.555c-0.43,3.193-2.449,6.404-5.953,8.432c-1.455,0.86-3.283,1.607-5.297,1.566
				c-1.475-0.02-3.036-0.817-3.718-2.418c-0.292-1.553,0.614-2.787,1.757-3.289c1.363-0.705,2.771-1.489,3.633-2.653
				c0.137-0.177,0.271-0.356,0.404-0.54c2.572-3.561,4.043-7.62,6.283-10.891c1.906-2.91,3.311-5.816,6.502-7.1
				c3.808-1.373,7.264-1.346,10.043-1.908c4.135-0.885,6.51-1.631,8.373-3.393l0,0c2.039-1.969,2.786-2.799,3.266-4.018
				C290.012,351.272,289.967,350.736,290.066,350.727L290.066,350.727z"/>
			<path id="path10853" d="M310.361,361.189c0.04,0.214-0.951,1.542-4.582,0.499c-3.422-0.983-4.107-2.131-3.897-2.564
				c0.21-0.433,1.383-0.049,4.397,0.88C309.293,360.932,310.271,360.716,310.361,361.189L310.361,361.189z"/>
			<path id="path11280" d="M293.603,314.491c-0.151,0.106-0.941-1.746-5.008-5.117c-4.066-3.371-6.089-3.092-6.059-3.275
				c0.029-0.183,2.254-0.721,6.488,2.755C293.259,312.33,293.756,314.385,293.603,314.491L293.603,314.491z"/>
			<path id="path11330" d="M293.478,315.389c-0.152,0.107-0.791-1.109-3.732-3.629c-2.94-2.52-4.268-2.849-4.195-3.02
				c0.072-0.172,1.584-0.098,4.633,2.509C293.232,313.855,293.63,315.281,293.478,315.389L293.478,315.389z"/>
			<path id="path11380" d="M290.876,316.096c-0.159,0.096-0.534-0.691-2.374-2.311c-1.84-1.619-2.666-1.9-2.59-2.068
				c0.077-0.17,1.082-0.154,3.034,1.565C290.898,315,291.035,315.999,290.876,316.096L290.876,316.096z"/>
			<path id="path11430" d="M289.369,316.348c-0.099,0.158-1.326-0.332-4.384-2.719c-3.058-2.385-3.954-3.286-3.842-3.435
				c0.112-0.148,1.216,0.532,4.256,2.904C288.439,315.472,289.467,316.19,289.369,316.348L289.369,316.348z"/>
			<path id="path11480" d="M287.758,317.906c-0.072,0.171-2.558,0.07-6.611-4.749c-4.053-4.819-4.459-7.077-4.295-7.167
				c0.162-0.089,0.883,2.023,4.814,6.732C285.597,317.431,287.831,317.735,287.758,317.906L287.758,317.906z"/>
			<path id="path1479" d="M182.587,228.414c0,0-0.001,0.003-0.037-0.012l0,0c-0.077-0.074-0.184-0.563,0.048-1.373
				c0.16-0.732,0.516-1.811,1.266-3.1c0.439-0.749,1.156-1.579,2.234-2.129c0.601-0.309,1.224-0.744,1.605-1.345
				c1.09-1.548,1.137-2.934,2.093-5.574l0,0c0.858-2.461,2.138-5.661,4.198-8.566c1.455-1.986,3.443-3.345,5.647-4.605
				c2.618-1.537,5.544-2.873,8.842-4.036c4.122-1.491,9.514-3.118,15.001-2.918c1.476,0.054,2.917,0.237,4.322,0.56
				c8.368,2.109,15.036,9.373,18.923,13.159l0,0c3.458,3.366,8.425,5.728,11.456,7.206c9.982,4.823,14.319,5.566,14.235,5.956
				c-0.084,0.39-4.701,0.337-15.062-4.151c-3.155-1.353-8.29-3.606-12.268-7.281l0,0c-4.053-3.733-10.589-10.765-17.882-12.372
				c-1.224-0.301-2.495-0.468-3.816-0.513c-4.883-0.166-10.03,1.389-14.074,2.749c-3.182,1.098-5.974,2.33-8.464,3.743
				c-2.144,1.251-3.884,2.31-5.007,3.856c-1.922,2.55-3.236,5.571-4.174,7.915l0,0c-0.914,2.36-1.219,4.029-2.613,5.868
				c-0.691,0.86-1.556,1.392-2.343,1.713c-0.791,0.298-1.406,0.888-1.826,1.441c-0.826,1.105-1.315,2.022-1.634,2.654
				c-0.297,0.706-0.515,1.094-0.633,1.152l0,0C182.587,228.416,182.587,228.414,182.587,228.414L182.587,228.414z"/>
			<path id="path2835" d="M173.394,243.477c-0.196,0.078-1.042-0.541-1.612-3.096c-0.194-0.887-0.41-2.335,0.1-3.848
				c0.401-1.132,1.032-2.923,2.334-4.32c1.697-1.784,4.651-3.83,8.34-3.938c0.064-0.002,0.128-0.003,0.193-0.004
				c2.766-0.049,5.091,0.26,7.084,0.192l0,0c3.119-0.144,5.166-0.905,6.499-2.143c3.435-3.107,5.759-1.645,5.718-1.375
				c-0.041,0.27-2.152-0.485-4.771,2.341c-1.526,1.563-3.977,2.711-7.373,2.851l0,0c-2.159,0.112-4.551-0.173-7.124-0.124
				c-0.06,0.001-0.12,0.002-0.18,0.004c-3.013,0.068-5.665,1.854-7.229,3.347c-1.039,0.956-1.681,2.596-2.163,3.695
				c-0.492,1.022-0.404,2.319-0.331,3.153C173.04,242.381,173.59,243.4,173.394,243.477L173.394,243.477z"/>
			<path id="path2885" d="M203.44,225.577c0.152,0.179-0.725,1.049-2.877,2.459l0,0c-0.753,0.498-2.628,1.645-3.79,2.619
				c-1.604,1.381-4.992,4.184-9.024,4.201c-0.008,0-0.017-0.001-0.025-0.001c-1.638-0.04-3.62,0.811-5.073,1.3l0,0
				c-1.857,0.647-3.489,1.286-4.814,1.825c-2.192,0.928-3.354,2.41-3.925,3.323s-0.722,1.394-0.879,1.368
				c-0.157-0.025-0.311-0.571,0.085-1.738c0.396-1.166,1.5-3.132,4.114-4.325c1.327-0.631,2.952-1.338,4.847-2.044l0,0
				c1.376-0.532,3.474-1.439,5.659-1.451c0.011,0,0.021,0,0.033,0c3.074,0.1,6.382-2.48,8.032-3.683
				c1.473-1.112,3.249-1.99,4.156-2.443l0,0C202.414,225.736,203.289,225.397,203.44,225.577L203.44,225.577z"/>
			<path id="path2935" d="M196.081,237.242c0.075-0.034,0.383,0.077,0.379,0.649c-0.002,0.409-0.375,1.613-1.835,1.788
				c-1.701,0.252-4.262-0.137-7.488,0.028c-0.578,0.029-1.189,0.082-1.825,0.165c-2.945,0.388-5.154,1.276-6.669,2.063l0,0
				c-3.581,1.884-5.176-0.035-5.032-0.32c0.144-0.285,1.612,0.732,4.284-0.981l0,0c1.588-0.999,3.983-2.076,7.191-2.495
				c0.691-0.09,1.353-0.141,1.98-0.162c3.613-0.122,5.897,0.439,7.462,0.439c0.747,0.008,1.222-0.431,1.332-0.634
				C196,237.523,195.968,237.294,196.081,237.242L196.081,237.242z"/>
			<path id="path2985" d="M220.186,216.185c-0.119-0.031-0.192-0.248-0.179-0.721c0.009-0.354,0.191-1.303-0.209-1.295
				c-1.225-0.929-2.052-3.317-3.982-4.167c-0.599-0.332-1.339-0.505-2.18-0.467c-1.626,0.074-3.014,0.875-3.816,1.677l0,0
				c-0.674,0.628-1.271,2.223-1.596,2.871c-0.391,1.085-0.909,1.742-1.454,2.046c-0.501,0.28-0.766,0.143-0.791,0.041
				c-0.032-0.126,0.152-0.245,0.34-0.56c0.189-0.314,0.249-0.979,0.691-2.009c0.194-0.665,0.589-2.294,1.613-3.502l0,0
				c1.01-1.146,2.755-2.242,4.952-2.301c1.135-0.031,2.173,0.232,3.053,0.698c2.828,1.716,3.165,3.854,3.999,4.725
				c0.818,1.145,0.251,2.188,0.096,2.453C220.487,216.08,220.29,216.212,220.186,216.185L220.186,216.185z"/>
			<path id="path3035" d="M219.058,211.92c0.109-0.076,0.363,0.012,0.772,0.375c0.288,0.255,1.198,1.119,1.264,2.546
				c-0.061,1.408-0.83,3.054-2.575,4.364c-0.696,0.532-1.531,0.935-2.495,1.157c-1.958,0.451-3.808,0.03-5.023-0.471l0,0
				c-1.412-0.591-2.237-1.729-2.635-2.341c-1.057-1.352-1.478-1.463-1.486-1.716c-0.008-0.253,1.3-0.504,2.481,0.912
				c0.475,0.472,1.335,1.396,2.185,1.617l0,0c1.045,0.306,2.636,0.605,4.108,0.305c0.734-0.15,1.335-0.429,1.811-0.813
				c1.447-1.185,2.12-2.148,2.235-3.117c0.189-0.582-0.403-1.648-0.534-1.968C218.959,212.266,218.938,212.003,219.058,211.92z"/>
			<path id="path3246" d="M218.303,215.12c0.14,0.045,0.224,0.543-0.353,1.367c-0.523,0.746-2.012,2.027-4.509,1.951
				c-1.547,0.006-4.246-1.119-4.399-3.94c0.006-0.417,0.068-0.833,0.188-1.24c0.684-2.323,2.804-3.425,4.475-3.481
				c3.017,0.111,4.207,2.807,4.48,3.615C218.579,214.561,218.459,215.085,218.303,215.12c-0.156,0.035-0.357-0.417-0.919-1.367
				c-0.38-0.642-1.702-2.866-3.629-2.586c-1.12,0.044-2.682,0.906-3.135,2.495c-0.078,0.275-0.112,0.552-0.101,0.823
				c-0.116,1.605,1.968,2.541,2.963,2.621c2.07,0.063,3.315-0.621,3.898-1.121C217.991,215.461,218.163,215.076,218.303,215.12
				L218.303,215.12z"/>
			<path id="path3560" d="M200.236,224.708c0,0-0.005-0.001,0.022-0.052l0,0c0.135-0.083,0.597-0.138,1.356-0.611l0,0
				c0.406-0.279,2.089-1.581,3.685-0.734c1.001,0.831,1.243,3.125-0.838,3.992c-1.115,0.446-2.23,1.297-3.161,2.55
				c-0.133,0.176-0.239,0.403-0.358,0.667c-0.257,0.569-0.533,1.188-1.159,1.694c-1.045,0.708-2.304,1.206-3.164,1.586l0,0
				c-1.159,0.536-1.923,0.739-2.55,1.34c-0.068,0.178-0.646,0.723-0.417,0.232c0.117,0.229,0.751,0.236,1.222,0.372
				c0.662,0.053,1.3,0.405,1.521,1.044c0.257,1.78-0.66,2.053-0.777,2.009c-0.117-0.044,0.56-0.876,0.132-1.848
				c0.003-0.27-0.41-0.212-1.027-0.396c-0.358-0.021-1.106-0.008-1.735-0.537c-0.351-0.764-0.001-1.438,0.402-1.579
				c0.803-0.781,1.7-1.118,2.783-1.609l0,0c0.875-0.414,2.099-0.914,2.98-1.53c0.354-0.167,0.489-0.629,0.762-1.239
				c0.127-0.286,0.277-0.581,0.487-0.868c1.042-1.417,2.348-2.374,3.669-2.882c1.32-0.458,1.177-2.001,0.695-2.236
				c-0.619-0.676-2.353,0.305-2.865,0.51l0,0c-0.95,0.437-1.544,0.263-1.65,0.181l0,0
				C200.229,224.71,200.236,224.708,200.236,224.708L200.236,224.708z"/>
			<path id="path11730" d="M214.502,243.24c-0.097,0.158-1.713-1.169-7.016-3.537c-5.302-2.368-7.311-1.766-7.318-1.952
				c-0.007-0.186,2.147-1.069,7.592,1.336C213.205,241.492,214.599,243.081,214.502,243.24z"/>
			<path id="path11780" d="M207.67,236.982c-0.059,0.176-0.72,0.022-2.647-0.419c-1.927-0.441-2.575-0.509-2.568-0.695
				c0.007-0.186,0.718-0.416,2.718,0.039C207.171,236.362,207.73,236.807,207.67,236.982z"/>
			<path id="path11830" d="M206.839,235.404c-0.044,0.181-0.511,0.203-1.798-0.087c-1.277-0.289-1.694-0.448-1.669-0.645
				c0.021-0.17,0.489-0.31,1.817-0.012C206.504,234.956,206.883,235.224,206.839,235.404L206.839,235.404z"/>
			<path id="path11880" d="M226.67,215.096c-0.104,0.154-1.227-0.257-4.132-2.375c-2.905-2.118-3.39-3.334-3.245-3.449
				c0.146-0.115,0.793,0.838,3.641,2.903C225.783,214.241,226.774,214.942,226.67,215.096z"/>
			<path id="path11930" d="M225.248,215.148c-0.057,0.177-0.399,0.243-1.317-0.075c-0.93-0.321-1.142-0.629-1.067-0.787
				c0.084-0.177,0.411-0.151,1.287,0.15C225.039,214.742,225.306,214.971,225.248,215.148z"/>
			<path id="path11980" d="M225.495,216.835c-0.024,0.087-0.139,0.14-0.37,0.177c-0.122,0.02-0.742,0.136-1.195-0.267l0,0
				c-0.01-0.003-0.02-0.006-0.03-0.009c-0.079-0.024-0.157-0.05-0.233-0.077l0,0c-0.878-0.228-1.167-0.437-1.125-0.603
				c0.042-0.166,0.405-0.21,1.443,0.047l0,0c0.022-0.001,0.047,0,0.08,0.005c0.004,0.001,0.008,0.001,0.013,0.002l0,0
				c0.19,0.234,0.99,0.383,1.091,0.421C225.443,216.631,225.519,216.748,225.495,216.835L225.495,216.835z"/>
			<path id="path12030" d="M232.413,213.667c-0.118,0.143-0.602-0.202-1.985-1.027c-1.383-0.825-1.912-0.883-1.884-1.067
				c0.028-0.184,0.72-0.392,2.226,0.487C232.276,212.939,232.531,213.523,232.413,213.667L232.413,213.667z"/>
			<path id="path12080" d="M232.677,214.632c-0.062,0.175-0.436,0.18-1.396-0.124c-0.946-0.3-1.256-0.452-1.223-0.65
				c0.027-0.165,0.406-0.313,1.426,0.008C232.486,214.181,232.738,214.456,232.677,214.632L232.677,214.632z"/>
			<path id="path12130" d="M189.358,227.053c-0.022,0.185-0.558,0.34-2.155,0.047c-1.597-0.293-2.029-0.743-1.954-0.913
				c0.074-0.17,0.549-0.023,2.075,0.251C188.849,226.711,189.38,226.868,189.358,227.053L189.358,227.053z"/>
			<path id="path10453" d="M254.449,336.113c0,0,0.001,0-0.006,0.005c-0.029,0.022-0.131,0.113-0.24,0.364l0,0l0,0
				c-0.157,0.139-0.393,0.313-0.717,0.522l0,0c-0.514,0.332-1.313,0.793-2.358,1.299l0,0c-1.043,0.479-2.423,0.477-3.486,0.977l0,0
				c-0.674-0.072-0.164,1.473,0.794,2.68l0,0c1.183,1.143,3.158,0.967,5.708,0.484c0.278-0.064,0.558-0.132,0.845-0.204
				c4.963-1.251,6.881-2.148,10.587-2.334c3.731-0.292,5.833,0.12,7.315,1.011c1.284,0.77,1.512,1.469,1.385,1.58
				c-0.127,0.113-0.563-0.352-1.771-0.783c-1.665-0.596-2.885-0.475-6.826-0.258c-3.642,0.309-4.954,1.15-10.267,2.477
				c-0.297,0.074-0.592,0.144-0.884,0.209c-2.683,0.703-5.282,0.609-7.181-0.932l0,0c-2.093-1.481-1.898-4.291-0.259-5.3l0,0
				c1.613-0.581,2.79-0.415,3.581-0.702l0,0c1.177-0.415,1.811-0.655,2.495-0.878l0,0c0.36-0.117,0.637-0.195,0.841-0.237l0,0l0,0
				c0.269,0.064,0.4,0.035,0.437,0.023C254.45,336.113,254.449,336.113,254.449,336.113L254.449,336.113z"/>
			<path id="path10753" d="M256.392,379.191c0,0,0.002,0,0.001,0.038c-0.086,0.228-1.424,0.38-3.631,1.85
				c-1.035,0.708-4.371,3.319-7.84,2.854c-1.435-0.228-2.999-1.051-3.882-2.662l0,0c-0.587-1.391,0.018-3.059,1.659-3.578
				c0.953-0.223,1.921-0.534,2.916-0.941c2.43-0.996,4.659-2.427,6.393-3.628l0,0c3.005-2.087,5.24-3.97,7.034-5.315
				c2.001-1.529,2.886-2.185,4.113-2.666c0.963-0.377,1.441-0.347,1.48-0.219c0.039,0.129-0.352,0.334-1.135,0.875
				c-0.785,0.542-1.883,1.568-3.62,3.047c-1.296,1.127-4.249,3.732-6.901,5.648l0,0c-1.768,1.281-4.072,2.783-6.708,3.859
				c-1.073,0.44-2.13,0.779-3.176,1.026c-0.559-0.012-0.831,0.804-0.546,1.106l0,0c0.49,1.022,1.664,1.639,2.667,1.859
				c2.298,0.587,5.807-1.689,6.96-2.267c2.657-1.386,4.045-1.104,4.205-0.921c0.014,0.034,0.012,0.034,0.012,0.034V379.191z"/>
			<path id="path10803" d="M244.46,382.525c0,0,0.001,0,0.057,0.041l0,0l0,0l0,0l0,0l0,0l0,0l0,0l0,0l0,0l0,0l0,0
				c0.089,0.096,0.211,0.324,0.115,0.527l0,0c0.005,0.213-0.016,0.489,0.003,0.823c0.024,0.464,0.191,1.153,0.793,1.636
				c0.279,0.213,0.617,0.474,0.915,0.625c0.256,0.131,0.474,0.18,0.671,0.14c2.774-0.099,4.086-0.486,4.181-0.065
				c0.096,0.422-0.547,1.429-4.059,1.779c-0.513,0.011-1.018-0.084-1.498-0.285c-0.58-0.241-1.03-0.597-1.352-0.925
				c-1.112-1.061-1.141-2.334-0.935-3.096c0.137-0.471,0.352-0.787,0.522-0.963l0,0c0.112-0.279,0.452-0.293,0.525-0.272l0,0l0,0
				l0,0l0,0l0,0l0,0l0,0l0,0l0,0l0,0l0,0C244.46,382.522,244.46,382.525,244.46,382.525L244.46,382.525z"/>
			<path id="path1892" d="M272.078,330.213L272.078,330.213L272.078,330.213L272.078,330.213L272.078,330.213L272.078,330.213
				L272.078,330.213L272.078,330.213c-0.008-0.008-0.052-0.037-0.19-0.032l0,0l0,0l0,0c-0.085-0.044-0.197-0.116-0.337-0.22l0,0
				c-0.26-0.194-0.615-0.495-1.078-0.912l0,0c-0.816-0.734-1.862-1.735-3.355-3.172l0,0l0,0l0,0
				c-1.478-1.421-5.059-4.982-8.174-7.48l0,0c-4.682-3.763-11.98-7.13-19.522-14.222l0,0c-4.422-4.209-7.417-9.5-10.541-16.085
				c-0.212-0.442-0.424-0.891-0.635-1.343c-2.794-6-4.828-11.547-6.24-16.818l0,0c-2.444-9.137-6.186-16.107-9.592-21.077
				c-3.966-5.783-9.606-8.074-12.275-8.895c-3.072-0.946-4.534-0.964-4.532-1.182c0.002-0.218,1.48-0.626,4.822,0.011
				c2.914,0.556,9.132,2.571,13.707,8.845c3.68,5.035,7.698,12.19,10.306,21.634l0,0c1.41,5.109,3.412,10.499,6.152,16.388
				c0.206,0.443,0.414,0.883,0.622,1.318c3.142,6.513,5.871,11.514,9.932,15.393l0,0c6.99,6.766,14.36,10.404,19.083,14.49l0,0
				c3.337,2.892,6.377,6.337,7.889,8.067l0,0l0,0l0,0c1.337,1.53,2.32,2.739,2.953,3.577l0,0c0.375,0.498,0.642,0.883,0.809,1.161
				l0,0c0.091,0.15,0.152,0.27,0.186,0.358l0,0l0,0l0,0C272.048,330.157,272.072,330.203,272.078,330.213L272.078,330.213
				L272.078,330.213L272.078,330.213L272.078,330.213L272.078,330.213L272.078,330.213
				C272.079,330.213,272.078,330.213,272.078,330.213L272.078,330.213z"/>
			<path id="path11030" d="M253.942,302.559c-0.138,0.124-1.818-1.204-5.106-6.525c-3.287-5.322-4.241-7.123-4.087-7.227
				c0.154-0.104,1.395,1.578,4.661,6.872C252.676,300.973,254.081,302.434,253.942,302.559z"/>
			<path id="path11080" d="M257.209,304.487c-0.138,0.124-1.354-0.535-3.492-3.77c-2.139-3.233-1.804-4.734-1.619-4.763
				c0.184-0.027,0.104,1.287,2.18,4.39C256.354,303.447,257.348,304.363,257.209,304.487z"/>
			<path id="path11130" d="M265.896,310.19c-0.136,0.126-1.864-0.997-5.618-5.72c-3.752-4.724-3.73-6.973-3.553-7.026
				c0.178-0.054,0.385,1.982,4.081,6.605C264.502,308.674,266.031,310.065,265.896,310.19L265.896,310.19z"/>
			<path id="path11180" d="M267.719,309.711c-0.138,0.125-0.97-0.535-3.072-2.93c-2.103-2.393-2.643-3.312-2.499-3.431
				c0.143-0.119,0.909,0.602,3.005,2.987C267.248,308.723,267.855,309.586,267.719,309.711L267.719,309.711z"/>
			<path id="path11230" d="M270.092,311.295c-0.125,0.137-0.598-0.055-1.738-1.074c-1.158-1.033-1.313-1.57-1.185-1.676
				c0.156-0.129,0.531,0.193,1.633,1.174C269.918,310.711,270.216,311.156,270.092,311.295z"/>
			<path id="path11530" d="M283.998,317.644c-0.112,0.147-1.74-0.513-5.236-4.147s-3.901-5.402-3.739-5.494
				c0.162-0.09,0.795,1.471,4.224,5.027C282.676,316.586,284.111,317.496,283.998,317.644z"/>
			<path id="path11580" d="M276.794,312.382c-0.127,0.135-1.011-0.502-3.451-2.702c-2.446-2.205-3.132-3.061-3.003-3.199
				c0.127-0.135,1.011,0.496,3.453,2.699C276.24,311.386,276.922,312.246,276.794,312.382L276.794,312.382z"/>
			<path id="path11630" d="M253.088,292.151c-0.146,0.114-0.851-0.772-2.998-3.229c-2.148-2.455-3.101-2.953-3.002-3.109
				c0.099-0.158,1.295,0.15,3.508,2.666C252.809,290.992,253.235,292.037,253.088,292.151z"/>
			<path id="path11680" d="M255.289,289.928c-0.131,0.133-0.568-0.148-1.674-1.131c-1.105-0.982-1.463-1.307-1.363-1.463
				c0.099-0.158,0.66-0.057,1.809,0.959C255.211,289.31,255.42,289.796,255.289,289.928L255.289,289.928z"/>
		</g>
		<g id="layer4">
			<path id="path2502" d="M333.727,184.383c-0.235-0.152,1.061-2.228,3.251-7.583l0,0c0.787-1.98,2.547-5.853,2.071-8.971
				c-0.27-1.97-0.611-4.41-1.545-6.427l0,0c-0.36-0.536-0.461-1.029-0.542-0.885c0.317-0.162,0.544,0.086,0.042,0.367
				c-0.841,1.383-1.634,2.933-2.553,4.57c-1.396,2.49-2.99,5.223-4.751,8.016c-3.179,5.053-7.457,11.348-12.929,16.799
				c-0.489,0.487-0.982,0.962-1.479,1.425c-6.869,6.377-14.861,11.366-20.588,14.796c-6.631,3.983-11.285,6.567-16.28,8.662
				c-2.961,1.305-4.92,2.734-5.747,4.693c-1.3,2.575,0.377,5.831,0.942,6.932c0.771,1.503,1.191,2.151,1.07,2.25
				c-0.119,0.1-0.782-0.331-1.848-1.766c-0.795-1.069-2.951-4.327-1.685-8.038c0.993-2.488,3.24-4.516,6.453-5.923
				c4.865-2.24,9.194-4.793,15.828-8.889c5.609-3.472,13.502-8.47,20.09-14.613c0.476-0.442,0.948-0.896,1.417-1.362
				c5.236-5.206,9.456-11.367,12.642-16.31c1.756-2.728,3.367-5.416,4.787-7.857c0.975-1.675,1.687-3.032,2.68-4.596
				c0.23-0.766,1.221-1.435,2.701-1.268c1.148,0.605,1.626,1.497,1.772,2.109l0,0c1.028,2.456,1.327,5.07,1.508,7.091
				c0.327,4.022-1.715,7.895-2.69,9.813l0,0C335.72,182.718,333.962,184.535,333.727,184.383L333.727,184.383z"/>
			<path id="path2552" d="M391.01,66.712c-0.349-0.05,2.553-7.249-1.438-23.751c-1.518-6.289-4.298-15.471-9.854-23.779
				c-1.122-1.619-2.275-3.375-3.825-4.201c-0.158-0.335-0.708-0.082-0.468,0.159c-0.17,1.063-0.077,2.22-0.047,3.547l0,0
				c0.06,2.005,0.166,3.974,0.275,6.108c0.218,4.207,0.522,9.185,0.488,13.958c-0.073,9.668-1.066,19.59-2.765,31.028
				c-1.029,6.932-2.342,14.546-3.348,20.607c-1.389,8.315-4.686,16.182-7.5,22.505c-4.214,9.498-9.005,18.375-12.721,25.025
				c-4.94,8.844-10.146,17.451-13.082,22.259c-6.121,10.027-8.55,14.119-8.815,13.989c-0.265-0.13,1.75-4.604,7.46-14.781
				c2.246-4.004,8.236-14.552,12.528-22.514c3.584-6.646,8.288-15.591,12.374-24.969c2.737-6.299,5.944-14.014,7.224-21.93
				c0.973-5.981,2.303-13.779,3.313-20.573c1.692-11.377,2.696-21.156,2.799-30.669c0.053-4.646-0.223-9.6-0.412-13.816
				c-0.096-2.13-0.188-4.124-0.232-6.166l0,0c-0.036-1.259-0.108-2.568,0.105-3.974c0.589-1.831,2.369-2.542,3.992-1.834
				c2.138,1.292,3.504,3.294,4.562,4.984c5.688,8.76,8.346,18.174,9.712,24.637C394.965,59.744,391.356,66.763,391.01,66.712
				L391.01,66.712z"/>
			<path id="path2602" d="M370.161,124.098c0,0,0,0.001-0.02-0.009l0,0l0,0l0,0c-0.404-0.29,1.036-4.859,5.728-16.741
				c2.605-5.349,4.255-10.133,7.169-18.666c-0.509,1.494,1.267-3.724,0.758-2.23c1.994-5.877,3.408-10.276,4.6-14.791
				c2.256-8.558,2.469-14.83,2.466-18.5c-0.004-3.797-0.136-5.408,0.147-5.457c0.282-0.048,0.941,1.481,1.377,5.371
				c0.422,3.771,0.572,10.296-1.604,19.192c-1.118,4.575-2.547,9.17-4.531,15.017c-0.257,0.757-0.514,1.507-0.764,2.235
				c-2.85,8.335-4.766,13.521-7.545,18.783c-5.027,11.566-7.254,15.841-7.761,15.801l0,0l0,0l0,0
				C370.161,124.099,370.161,124.098,370.161,124.098L370.161,124.098z"/>
			<path id="path2652" d="M378.101,131.769c-0.123-0.026-0.136-0.935,0.493-2.755c0.657-1.903,1.967-4.456,4.803-7.708
				c2.961-3.427,5.346-6.483,9.564-11.952c2.806-3.642,7.146-9.126,10.329-14.453c2.435-4.07,5.185-8.369,7.62-12.439
				c1.873-3.147,4.236-6.722,5.386-10.367c1.786-5.643,3.646-12.45,2.909-19.033c-0.411-3.821-1.126-7.776-2.227-11.76
				c-0.496-1.784-1.058-3.575-1.845-5.224c-0.508-0.947-0.929-1.874-1.493-2.351c-0.108-0.091-0.223-0.167-0.343-0.223
				c-0.436-0.191-0.877-0.359-0.953-0.177c-0.502,0.179-0.84,0.991-1.32,1.859c-1.839,3.881-2.677,8.572-3.661,12.671
				c-4.19,17.647-11.015,32.411-16.782,42.931c-4.964,9.057-10.129,17.43-13.471,22.741l0,0
				c-7.912,12.582-11.682,17.33-11.952,17.137c-0.27-0.192,2.949-5.207,10.478-18.033l0,0c3.05-5.197,8.258-14.068,12.959-22.916
				c5.556-10.459,12.197-25.109,16.269-42.45c0.933-4.017,1.812-8.856,3.816-13.179c0.391-0.988,1.081-2.184,2.401-3.022
				c1.295-0.583,2.6-0.411,3.535,0.21c0.245,0.16,0.472,0.333,0.683,0.514c1.103,0.951,1.743,2.149,2.174,3.179
				c0.881,1.868,1.492,3.797,1.997,5.646c1.138,4.133,1.869,8.226,2.283,12.177c0.73,7.239-1.206,14.345-3.101,20.066
				c-1.353,4.08-3.811,7.775-5.7,10.841c-2.759,4.511-5.423,8.568-7.763,12.358c-3.396,5.499-7.824,10.875-10.743,14.473
				c-4.237,5.229-7.001,8.515-10.033,11.699c-2.911,3.08-4.277,5.271-5.152,7.059C378.449,130.946,378.224,131.795,378.101,131.769
				L378.101,131.769z"/>
			<path id="path3373" d="M428.518,113.072c-0.269-0.234,1.485-2.538,4.691-9.338l0,0c1.142-2.447,3.102-6.606,4.083-10.684
				c0.626-2.581,1.069-5.481,1.238-8.734c0.084-1.946,0.23-4.126-0.254-5.974c-0.473-1.888-0.747-3.809-1.339-5.594
				c-0.594-1.437-1.164-3.104-2.099-3.596c-0.138-0.073-0.284-0.12-0.439-0.14c-0.646-0.43-1.604,0.335-2.206,1.175
				c-1.39,2.097-2.352,4.476-3.63,6.646c-3.429,5.804-8.452,11.572-11.079,14.68c-2.9,3.438-5.15,5.885-7.085,7.819
				c-3.513,3.529-5.519,4.585-5.685,4.34c-0.167-0.245,1.266-1.555,4.525-5.404c1.815-2.161,3.738-4.509,6.566-8.119
				c2.428-3.105,7.451-9.181,10.566-14.593c1.145-1.981,2.098-4.374,3.661-6.783c0.972-1.563,2.872-2.705,5.133-2.233
				c0.329,0.13,0.637,0.285,0.924,0.459c1.972,1.199,2.892,3.3,3.301,4.952c0.666,2.082,0.942,4.044,1.361,5.782
				c0.557,2.389,0.399,4.786,0.256,6.729c-0.222,3.404-0.752,6.453-1.483,9.162c-1.205,4.43-3.349,8.491-4.688,10.936l0,0
				c-3.594,6.613-6.052,8.747-6.32,8.513H428.518z"/>
			<path id="path3423" d="M440.602,136.545c0,0,0,0,0.002-0.001l0,0c0.015-0.011,0.099-0.074,0.174-0.318l0,0l0,0
				c0.121-0.124,0.307-0.277,0.559-0.467l0,0c0.485-0.365,0.998-0.708,1.869-1.325l0,0l0,0l0,0c0.858-0.616,2.856-1.927,3.836-3.384
				l0,0c1.16-1.691,3.459-4.639,3.391-7.35l0,0c0.047-2.378-0.261-7.829,0.315-11.596c0.33-2.225,1.143-4.438,1.683-6.6
				c0.417-1.665,0.59-3.108,0.262-4.465c0.007-3.23-5.423-2.476-7.486-1.468c-5.035,2.686-10.148,7.614-11.576,8.9
				c-2.267,2.042-3.306,2.817-3.503,2.632c-0.197-0.186,0.461-1.297,2.449-3.654c1.47-1.742,5.765-6.684,11.466-9.973
				c2.864-1.74,9.388-2.484,11.174,3.05c0.329,1.883,0.157,3.708-0.258,5.573c-0.539,2.42-1.349,4.529-1.679,6.411
				c-0.694,4.081-0.318,7.918-0.494,11.275l0,0c-0.312,3.826-2.906,6.848-4.223,8.418l0,0c-1.525,1.834-3.677,2.877-4.69,3.358l0,0
				l0,0l0,0c-0.922,0.447-1.673,0.731-2.185,0.887l0,0l0,0c-0.311,0.094-0.552,0.148-0.726,0.166l0,0l0,0
				c-0.234-0.096-0.336-0.076-0.356-0.07l0,0C440.602,136.545,440.602,136.545,440.602,136.545L440.602,136.545z"/>
			<path id="path3473" d="M444.66,165.609c0,0,0,0-0.008-0.026c-0.022-0.313,1.075-0.954,3.767-2.039
				c1.079-0.468,3.928-1.546,5.616-2.713c1.655-1.115,3.124-2.666,4.855-4.916c1.161-1.678,2.934-3.884,2.558-5.706
				c-0.001-0.002-0.001-0.004-0.002-0.006c-0.383-3.104-1.047-5.951-1.707-8.312c-1.133-3.598-1.452-5.587-3.174-6.904
				c-4.493-3.717-6.573-5.054-6.333-5.414c0.239-0.359,2.473,0.154,7.603,3.741c2.328,1.757,3.34,4.36,4.296,7.874
				c0.752,2.447,1.478,5.406,1.887,8.696v0.012c0.246,3.325-1.766,5.986-3.134,7.565c-1.839,2.351-3.646,4.068-5.637,5.275
				c-2.303,1.363-5.048,2.055-6.308,2.38c-2.856,0.681-4.115,0.79-4.271,0.52l0,0l0,0l0,0c-0.012-0.026-0.012-0.026-0.012-0.026
				L444.66,165.609z"/>
			<path id="path3523" d="M402.806,236.59c0,0-0.001-0.001,0.015-0.021l0,0c0.29-0.226,3.426,0.691,10.605,3.258
				c3.406,0.864,7.338,1.033,12.823,0.365c1.8-0.227,3.8-0.553,5.659-1.212l0,0c1.097-0.501,2.298-0.804,2.401-1.423
				c1.502-3.222,2.779-7.221,2.564-11.298c0.278-0.162,3.817-2.232,4.094-2.394c1.706-1.042,3.62-2.076,4.15-3.604
				c0.544-1.272,1.053-2.596,1.501-3.961c0.3-0.913,0.564-1.82,0.792-2.721c0.536-2.324,1.165-4.315,0.479-5.837
				c-3.459-6.126-1.426-2.526-4.885-8.651c-0.037,0.035,0.165-0.173,0.129-0.135l0,0l0,0c0.141-0.368,0.28-0.734,0.42-1.099l0,0
				c0.39-0.372,0.775-0.743,1.154-1.109l0,0c1.258-1.214,2.447-2.379,3.59-3.518c1.418-1.414,2.692-2.708,3.913-4.02
				c1-1.086,1.859-1.954,2.504-2.961c2.243-3.527,3.15-6.746,2.8-9.575l0,0c-0.435-3.999-2.4-8.53-2.949-9.918
				c-0.818-2.068-1.116-3.021-0.952-3.102c0.163-0.081,0.77,0.705,1.882,2.657c0.836,1.465,3.099,5.539,3.859,10.107l0,0
				c0.503,3.322-0.332,7.155-2.748,11.022c-0.782,1.257-1.712,2.27-2.677,3.338c-1.223,1.367-2.502,2.713-3.909,4.156
				c-1.136,1.166-2.322,2.357-3.575,3.594l0,0c-0.378,0.373-0.763,0.751-1.152,1.13l0,0c-0.078-0.155-0.155-0.312-0.234-0.469l0,0
				l0,0c-0.04,0.036-0.082,0.073-0.123,0.109c0.797,1.112,4.44,6.183,5.235,7.293c0.929,2.645,0.395,5.273-0.251,7.623
				c-0.243,0.962-0.523,1.927-0.841,2.895c-0.475,1.447-1.012,2.841-1.584,4.173c-1.203,2.513-3.508,3.924-5.357,4.866
				c0.27-0.09-3.725,1.249-3.455,1.159c0.462,4.253-0.702,8.203-2.186,11.288c-1.004,1.711-2.658,2.348-3.828,2.62l0,0
				c-2.138,0.702-4.293,1.014-6.176,1.193c-5.701,0.566-10.018,0.163-13.613-0.955c-7.192-3.058-10.075-4.496-10.08-4.838l0,0
				C402.806,236.59,402.806,236.59,402.806,236.59L402.806,236.59z"/>
			<path id="path3573" d="M394.43,245.105c0,0,0,0,0.001,0l0,0l0,0l0,0c0.008,0.004,0.07,0.025,0.275-0.069l0,0l0,0
				c0.122,0.013,0.284,0.054,0.487,0.128l0,0c0.37,0.133,0.876,0.369,1.547,0.716l0,0l0,0l0,0c1.092,0.565,2.607,1.432,4.684,2.56
				l0,0c1.857,0.979,6.469,3.95,9.938,3.936c0.77,0.025,1.563-0.016,2.387-0.125c3.867-0.518,7.949-2.624,10.239-3.782l0,0
				c1.774-1.019,2.805-1.527,3.187-2.563c0.564-1.101,0.394-3.101,0.392-3.662c-0.003-0.889,0.085-1.297,0.277-1.337
				c0.173-0.036,0.454,0.288,0.788,1.128c0.247,0.622,0.902,2.464,0.345,4.523c-0.605,1.693-1.985,2.96-3.866,3.951l0,0
				c-2.323,1.381-6.427,3.652-11.02,4.277c-0.951,0.129-1.881,0.184-2.791,0.168c-4.802-0.223-9.227-3.48-10.98-4.667l0,0
				c-1.995-1.308-3.465-2.462-4.367-3.255l0,0l0,0l0,0c-0.574-0.504-0.974-0.91-1.222-1.217l0,0
				c-0.139-0.171-0.232-0.313-0.282-0.426l0,0l0,0C394.475,245.164,394.438,245.113,394.43,245.105L394.43,245.105L394.43,245.105
				L394.43,245.105c-0.001,0-0.001,0-0.001,0H394.43z"/>
			<path id="path3623" d="M379.573,255.076c0,0,0,0,0.001,0l0,0l0,0l0,0l0,0l0,0l0,0l0,0l0,0l0,0l0,0
				c0.008,0.005,0.052,0.021,0.144,0.02l0,0l0,0c0.091-0.001,0.23-0.019,0.439-0.082l0,0l0,0c0.284,0.056,0.674,0.176,1.184,0.368
				l0,0l0,0c0.854,0.321,2.014,0.832,3.59,1.578l0,0c1.953,0.923,4.463,2.283,7.771,3.689l0,0l0,0
				c1.997,0.864,4.346,1.436,7.254,1.671c2.709,0.22,5.522,0.109,7.638-0.001c4.056,0.025,6.392-4.638,7.057-5.984
				c0.984-1.99,1.298-2.912,1.589-2.865c0.291,0.048,0.57,1.065-0.084,3.432c-0.455,1.647-2.497,7.121-8.377,7.9
				c-2.203,0.212-5.068,0.379-8.042,0.118c-3.144-0.276-5.784-0.974-8.043-2l0,0l0,0c-3.127-1.446-6.149-3.305-7.688-4.269l0,0
				c-1.474-0.923-2.545-1.664-3.255-2.219l0,0l0,0c-0.431-0.336-0.736-0.609-0.931-0.824l0,0l0,0
				c-0.053-0.212-0.109-0.342-0.154-0.42l0,0l0,0c-0.046-0.079-0.082-0.107-0.091-0.113l0,0l0,0l0,0l0,0l0,0l0,0l0,0l0,0l0,0l0,0
				C379.573,255.076,379.573,255.076,379.573,255.076L379.573,255.076z"/>
			<path id="path3673" d="M370.413,258.93c0,0,0,0,0.001,0l0,0l0,0l0,0l0,0l0,0l0,0l0,0l0,0l0,0l0,0l0,0
				c0.01,0.006,0.047,0.021,0.128,0.018l0,0l0,0c0.081-0.002,0.208-0.021,0.398-0.081l0,0l0,0c0.248,0.052,0.584,0.164,1.018,0.348
				l0,0l0,0c0.727,0.308,1.746,0.822,3.074,1.582l0,0l0,0c1.569,0.897,4.339,2.563,7.107,4.622l0,0l0,0
				c1.396,0.997,3.238,2.219,5.17,3.06c2.392,1.043,4.436,1.299,6.25,0.919l0,0c2.105-0.419,3.368-0.618,4.467-1.371
				c1.525-0.947,3.154-3.085,3.598-3.595c0.75-0.86,1.167-1.178,1.368-1.059c0.194,0.115,0.148,0.639-0.296,1.719
				c-0.336,0.819-1.351,3.029-3.402,4.688c-1.469,1.104-3.153,1.621-5.248,2.043l0,0c-2.35,0.456-4.956,0.209-7.752-0.94
				c-2.289-0.94-4.237-2.296-5.68-3.475l0,0l0,0c-2.781-2.201-5.031-3.772-6.646-5.01l0,0l0,0c-1.214-0.932-2.076-1.637-2.659-2.18
				l0,0l0,0c-0.343-0.32-0.584-0.578-0.733-0.781l0,0l0,0c-0.024-0.199-0.061-0.322-0.093-0.396l0,0l0,0
				c-0.032-0.074-0.061-0.102-0.069-0.108l0,0l0,0l0,0l0,0l0,0l0,0l0,0l0,0l0,0l0,0l0,0
				C370.413,258.93,370.413,258.93,370.413,258.93z"/>
			<path id="path3723" d="M322.942,237.881c0,0-0.001-0.001,0.017-0.029l0,0c0.052-0.048,0.308-0.102,0.658,0.024
				c0.328,0.073,0.797,0.221,1.387,0.471l0,0c0.846,0.355,2.27,1.057,3.669,2.231c1.948,1.634,3.018,2.006,6.257,4.072
				c2.317,1.466,5.702,3.653,8.745,6.251c3.932,3.371,8.065,5.932,14.194,9.594c1.861,1.112,3.531,2.112,5.218,3.169
				c3.105,1.948,6.334,4.647,8.526,6.359c2.862,2.181,4.63,3.78,7.058,4.454c5.216,1.48,9.434-0.434,11.469-1.787
				c2.035-1.355,2.638-2.344,2.838-2.221c0.199,0.123-0.026,1.384-2.046,3.227c-2.02,1.844-6.593,4.551-12.842,2.916
				c-2.977-0.795-5.199-2.512-7.968-4.639c-2.244-1.682-5.537-4.363-8.395-6.123c-1.686-1.04-3.308-2.002-5.189-3.125
				c-6.107-3.648-10.439-6.416-14.467-9.985c-2.784-2.483-6.123-4.805-8.309-6.34c-2.88-2.011-4.374-2.848-6.164-4.662
				c-1.088-1.126-2.396-2.045-3.073-2.527l0,0c-0.513-0.364-0.877-0.616-1.146-0.828c-0.302-0.179-0.442-0.376-0.445-0.469l0,0
				C322.941,237.881,322.942,237.881,322.942,237.881L322.942,237.881z"/>
			<path id="path3773" d="M340.421,261.955c0,0,0,0-0.047-0.033l0,0l0,0l0,0l0,0l0,0l0,0l0,0l0,0l0,0l0,0l0,0l0,0l0,0l0,0
				c-0.443-0.369-0.379-1.536,0.659-3.895l0,0c0.102-0.447,0.172-0.962,0.17-1.541c-0.014-3.551-1.349-4.73-0.823-5.216
				c0.524-0.485,3.36,0.209,3.316,5.401c-0.008,0.85-0.147,1.608-0.351,2.254l0,0c-1.501,2.632-2.372,3.314-2.875,3.06l0,0l0,0l0,0
				l0,0l0,0l0,0l0,0l0,0l0,0l0,0l0,0l0,0l0,0l0,0C340.421,261.956,340.421,261.955,340.421,261.955L340.421,261.955z"/>
			<path id="path3823" d="M333.147,273.324c0,0-0.001,0,0.002-0.001l0,0c0.02-0.003,0.129-0.035,0.317-0.317l0,0l0,0
				c0.173-0.086,0.422-0.169,0.754-0.254l0,0c0.575-0.145,1.26-0.264,2.296-0.447l0,0c0.941-0.22,3.14-0.299,3.494-0.959l0,0
				c0.625-0.584,0.693-1.616,0.961-3.201l0,0c0.031-1.209,0.164-2.792-0.556-3.304c-0.033-0.034-0.065-0.069-0.099-0.103
				c-2.91-3.013-9.794-6.171-10.7-6.67c-2.346-1.292-3.132-2.056-2.976-2.376c0.154-0.316,1.218-0.158,3.721,0.677
				c1.489,0.496,7.712,2.501,11.795,6.551c0.039,0.04,0.079,0.079,0.118,0.118c1.538,1.826,1.49,4.027,1.204,5.412l0,0
				c-0.13,1.684-0.635,3.301-1.823,4.535l0,0c-1.892,1.529-4.235,1.178-4.998,1.105l0,0c-1.052-0.014-1.87-0.108-2.412-0.217l0,0
				c-0.347-0.068-0.604-0.147-0.78-0.23l0,0l0,0c-0.188-0.281-0.297-0.315-0.316-0.318l0,0
				C333.146,273.324,333.147,273.324,333.147,273.324L333.147,273.324z"/>
			<path id="path5237" d="M321.965,196.674c-0.319-0.359,2.147-2.341,8.124-9.02c5.978-6.679,6.675-9.647,7.122-9.47
				c0.447,0.177,0.331,3.703-5.82,10.63C325.239,195.742,322.285,197.033,321.965,196.674L321.965,196.674z"/>
			<path id="path5287" d="M322.121,204.846c-0.15-0.194,0.281-0.79,1.59-2.002c0.488-0.452,4.357-3.73,6.269-6.041
				c0.038-0.045,0.075-0.091,0.112-0.136c2.52-3.169,2.77-5.999,2.668-7.405c-0.111-1.534-0.438-2.19-0.232-2.312
				c0.205-0.122,0.932,0.35,1.389,2.113c0.414,1.596,0.509,5.148-2.478,8.708c-0.04,0.049-0.08,0.098-0.121,0.146
				c-2.541,3.037-5.757,5.204-6.852,5.905C322.958,204.787,322.269,205.036,322.121,204.846L322.121,204.846z"/>
			<path id="path5337" d="M316.033,211.441c-0.063-0.232,0.68-0.687,2.705-1.246c2.025-0.559,5.492-0.745,9.804-2.681
				c0.135-0.061,0.268-0.123,0.398-0.186c1.796-0.902,2.92-1.982,3.262-3.204c0.669-1.874-0.201-4.356-0.424-5.111
				c-0.33-1.116-0.429-1.621-0.265-1.707c0.163-0.087,0.573,0.237,1.196,1.3c0.456,0.778,1.723,3.187,1.053,5.969
				c-0.518,1.756-1.926,3.348-4.074,4.325c-0.145,0.068-0.293,0.136-0.442,0.201c-3.815,1.672-9.274,2.192-10.27,2.308
				C316.933,211.648,316.098,211.682,316.033,211.441L316.033,211.441z"/>
			<path id="path5387" d="M325.001,221.494c-0.399-0.271,0.623-1.659,2.01-5.705c1.387-4.045,0.657-5.444,1.12-5.574
				c0.464-0.13,2.001,1.528,0.524,6.119C327.179,220.926,325.398,221.765,325.001,221.494z"/>
			<path id="path5437" d="M322.018,230.867c-0.112-0.233,0.121-0.526,0.657-1.113c0.355-0.39,1.634-1.64,1.317-2.872
				c-0.003-0.025-0.007-0.05-0.01-0.076c-0.263-1.876-0.66-3.348-0.612-4.269c0.05-0.935,0.33-1.273,0.555-1.263
				c0.256,0.011,0.409,0.356,0.658,1.117c0.023,0.07,0.919,2.674,1.125,4.176c0.004,0.03,0.009,0.06,0.012,0.09
				c0.155,2.521-1.699,3.787-2.311,4.097C322.556,231.188,322.121,231.083,322.018,230.867L322.018,230.867z"/>
			<path id="path5487" d="M323.015,230.773c0.138-0.228,1.033-0.563,2.329,1.152c0.329,0.47,0.44,1.197-0.108,1.918l0,0
				c-1.086,1.022-2.576,1.237-4.27,1.045c-0.42-0.012-0.863-0.041-1.325-0.092c-1.745-0.195-3.155-0.646-4.24-1.154
				c-1.608-0.66-2.527-1.81-2.803-2.553c-0.284-0.765-0.07-1.112,0.071-1.136c0.176-0.03,0.327,0.246,0.732,0.666
				c0.496,0.513,1.067,0.87,2.623,1.553c0.987,0.369,2.238,0.714,3.812,0.89c0.415,0.046,0.816,0.077,1.198,0.096
				c1.795-0.056,2.598,0.219,3.145-0.383l0,0c0.054,0.123,0.045-0.07,0.027-0.164C323.767,231.457,322.877,231.001,323.015,230.773
				L323.015,230.773z"/>
			<path id="path5537" d="M321.913,241.154c-0.094-0.214,0.051-0.463,0.264-0.861c0.159-0.298,0.567-1.108,0.345-1.983l0,0
				c-0.015-0.069-0.03-0.139-0.047-0.21c-0.6-2.49-1.282-3.499-0.874-3.752c0.409-0.253,1.715,0.076,2.559,3.329
				c0.023,0.094,0.046,0.186,0.065,0.277l0,0c0.335,1.802-0.647,2.835-1.256,3.196C322.34,241.523,321.992,241.335,321.913,241.154
				L321.913,241.154z"/>
			<path id="path5587" d="M317.664,252.963c-0.076-0.229,0.457-0.578,1.736-1.423c0.796-0.526,4.057-2.515,3.683-5.1
				c-0.001-0.006-0.002-0.012-0.003-0.018c-0.091-2.731-2.741-5.204-3.43-5.913c-1.065-1.098-1.472-1.592-1.336-1.79
				c0.135-0.198,0.79-0.095,2.146,0.816c0.948,0.637,3.996,2.923,4.358,6.77c0,0.008,0,0.018,0.001,0.026
				c0.033,4.118-3.821,5.957-4.83,6.354C318.419,253.304,317.74,253.191,317.664,252.963L317.664,252.963z"/>
			<path id="path5637" d="M319.555,260.549c-0.325,0.355-3.14-2.723-13.353-9.304c-10.215-6.581-14.248-7.539-14.086-7.992
				c0.162-0.453,4.592-0.188,15.028,6.528C317.579,256.496,319.879,260.194,319.555,260.549L319.555,260.549z"/>
			<path id="path5737" d="M343.629,157.905c-0.368-0.31,3.2-4.604,13.81-17.464c10.609-12.861,13.1-17.742,13.517-17.502
				c0.417,0.24-1.496,5.655-12.172,18.611C348.107,154.507,343.996,158.215,343.629,157.905z"/>
			<path id="path5787" d="M345.632,158.873c-0.285-0.388,8.884-5.88,32.327-27.349c23.444-21.469,29.059-30.564,29.436-30.267
				c0.379,0.297-4.687,9.958-28.26,31.551C355.564,154.402,345.916,159.261,345.632,158.873z"/>
			<path id="path5837" d="M435.327,104.249c0.35,0.33-7.045,12.633-41.078,35.613c-10.007,6.757-19.016,11.862-25.635,15.363
				c-7.877,4.17-13.101,7.696-16.682,9.294c-3.58,1.598-5.252,1.876-5.306,1.716c-0.054-0.16,1.502-0.728,4.907-2.538
				c3.404-1.81,8.364-5.454,16.346-9.835c6.491-3.568,15.487-8.755,25.395-15.444C427.098,115.585,434.977,103.919,435.327,104.249
				L435.327,104.249z"/>
			<path id="path5887" d="M447.382,132.035c0.237,0.418-10.852,9.376-50.094,24.37c-39.241,14.993-53.411,16.075-53.522,15.607
				c-0.111-0.468,13.829-2.31,52.9-17.236C435.736,139.85,447.145,131.616,447.382,132.035z"/>
			<path id="path6282" d="M453.446,161.952c0.094,0.222-3.09,2.062-11.769,4.894c-9.383,3.062-22.275,6.151-45.035,8.355
				c0,0-0.145,0.014-0.145,0.014c-21.859,2.121-36.384,3.118-45.374,4.263c-8.991,1.145-12.546,1.792-12.593,1.557
				c-0.048-0.236,3.431-1.312,12.418-2.775c8.987-1.462,23.589-2.669,45.381-4.779c0,0,0.145-0.014,0.145-0.014
				c22.832-2.228,35.278-5.037,44.841-7.794C450.011,163.165,453.352,161.73,453.446,161.952L453.446,161.952z"/>
			<path id="path6332" d="M445.314,197.414c0.019,0.174-1.752,0.596-6.027,0.867c-6.718,0.427-8.619,0.077-20.934-0.086
				c-7.794-0.102-16.364-0.614-27.951-1.732c-20.595-1.988-34.21-3.569-42.729-4.207c-8.521-0.638-11.919-0.792-11.915-1.032
				c0.003-0.241,3.415-0.521,11.986-0.197c8.57,0.325,22.278,1.715,42.826,3.701c11.626,1.123,20.007,1.678,27.815,1.888
				c9.924,0.264,16.626,0.716,20.871,0.719C443.5,197.337,445.296,197.24,445.314,197.414L445.314,197.414z"/>
			<path id="path6514" d="M441.871,224.684c0.039,0.237-3.281,1.377-11.815,1.494c-9.493,0.13-21.405-1.317-42.188-8.025
				l-0.041-0.013c-19.637-6.306-32.689-10.454-40.985-12.05c-8.297-1.596-11.704-1.708-11.691-1.948s3.462-0.56,11.902,0.741
				c8.439,1.301,21.75,5.295,41.309,11.599l0.04,0.013c20.849,6.681,32.135,8.241,41.658,8.463
				C438.463,225.153,441.832,224.446,441.871,224.684L441.871,224.684z"/>
			<path id="path6614" d="M414.029,241.702c-0.07,0.19-2.022-0.194-6.299-2.244c-4.277-2.049-10.517-6.525-20.202-11.8
				c-3.653-1.996-7.79-3.814-12.711-5.49c-15.477-5.271-26.721-6.804-33.412-8.624c-6.691-1.82-9.211-2.941-9.139-3.171
				c0.073-0.229,2.706,0.469,9.438,1.97c1.039,0.232,23.409,4.684,33.672,8.188c5.001,1.708,9.231,3.583,12.965,5.65
				c9.841,5.464,15.804,10.048,19.88,12.328C412.298,240.788,414.1,241.512,414.029,241.702L414.029,241.702z"/>
			<path id="path6664" d="M403.528,249.917c-0.209,0.434-9.384-3.936-37.343-16.833c-9.636-4.445-16.951-7.699-22.606-10.197l0,0
				c-6.206-2.714-8.32-3.584-11.588-4.303c-2.442-0.538-3.547-0.564-3.548-0.722c-0.001-0.158,1.117-0.428,3.69-0.127
				c3.139,0.367,6.03,1.29,12.03,3.781l0,0c5.696,2.341,13.133,5.549,22.752,9.986C394.917,244.418,403.737,249.483,403.528,249.917
				L403.528,249.917z"/>
			<path id="path7174" d="M328.664,227.457c0.095-0.221,2.039,0.306,6.622,2.357c5.114,2.289,11.228,5.464,22.134,11.948
				c10.399,6.184,17.27,10.297,21.601,12.787c4.331,2.49,6.042,3.514,5.936,3.73c-0.105,0.215-2.013-0.419-6.517-2.645
				c-5.521-2.728-10.545-5.614-21.911-12.374c-11.485-6.831-16.232-9.428-21.778-12.34
				C330.338,228.604,328.57,227.679,328.664,227.457L328.664,227.457z"/>
			<path id="path7224" d="M354.959,249.428c0.308-0.37,2.443,1.367,10.108,5.383c7.665,4.017,10.029,5.853,9.777,6.262
				c-0.253,0.409-2.848-0.646-10.589-4.716C356.516,252.287,354.651,249.798,354.959,249.428L354.959,249.428z"/>
			<path id="path12180" d="M286.686,236.271c-0.146,0.114-0.852-1.351-4.242-3.623c-3.39-2.273-4.94-1.721-4.945-1.906
				c-0.005-0.186,1.722-1.024,5.317,1.346C286.414,234.457,286.833,236.157,286.686,236.271z"/>
			<path id="path12230" d="M287.621,233.186c-0.164,0.088-0.633-1.007-2.722-3.606c-2.089-2.6-3.177-3.006-3.085-3.167
				c0.094-0.161,1.424,0.045,3.609,2.744C287.609,231.855,287.784,233.098,287.621,233.186z"/>
			<path id="path12280" d="M296.9,230.143c-0.021,0.185-1.436,0.424-5.319-0.781c-3.884-1.205-4.938-2.158-4.854-2.324
				c0.083-0.167,1.256,0.501,5.054,1.681C295.579,229.899,296.92,229.958,296.9,230.143z"/>
			<path id="path12330" d="M295.364,225.629c-0.048,0.18-2.641,0.574-7.566-3.239c-4.926-3.813-4.421-6.599-4.241-6.644
				c0.181-0.045-0.09,2.477,4.655,6.106C292.957,225.481,295.412,225.45,295.364,225.629L295.364,225.629z"/>
			<path id="path12380" d="M304.213,231.133c-0.174,0.063-0.266-1.671-3.48-4.232c-3.215-2.56-4.935-2.368-4.904-2.551
				c0.031-0.183,1.91-0.692,5.319,2.031C304.558,229.105,304.389,231.07,304.213,231.133z"/>
			<path id="path12430" d="M303.572,226.888c-0.186,0.018-0.223-1.158-0.867-4.313c-0.645-3.155-1.509-3.871-1.363-3.986
				c0.146-0.116,1.325,0.56,2.023,3.849C304.064,225.726,303.757,226.871,303.572,226.888L303.572,226.888z"/>
			<path id="path12480" d="M307.888,226.274c-0.171,0.075-1.198-1.041-1.833-5.114c-0.635-4.073,0.003-5.449,0.188-5.43
				c0.186,0.019-0.138,1.38,0.478,5.326C307.335,225.002,308.058,226.2,307.888,226.274L307.888,226.274z"/>
			<path id="path12530" d="M310.369,225.552c-0.168,0.08-1.099-0.774-1.623-4.06c-0.524-3.286,0.145-4.379,0.328-4.348
				c0.183,0.031-0.166,1.107,0.337,4.242C309.915,224.52,310.537,225.472,310.369,225.552L310.369,225.552z"/>
			<path id="path12580" d="M312.673,224.763c-0.165,0.085-0.982-0.593-1.618-3.335c-0.637-2.742-0.015-3.691,0.169-3.66
				c0.183,0.032-0.126,0.921,0.486,3.506C312.322,223.859,312.839,224.678,312.673,224.763z"/>
			<path id="path12630" d="M313.304,220.936c-0.17,0.075-0.711-0.315-0.942-1.965c-0.231-1.649,0.296-2.158,0.473-2.1
				c0.177,0.058-0.029,0.535,0.192,2.003C313.249,220.342,313.474,220.86,313.304,220.936z"/>
			<path id="path12680" d="M316.256,225.629c-0.179,0.051-1.314-1.343-0.99-5.825c0.325-4.481,1.888-5.536,2.045-5.436
				c0.156,0.1-1.076,1.208-1.371,5.484C315.645,224.128,316.434,225.578,316.256,225.629L316.256,225.629z"/>
			<path id="path12730" d="M316.92,224.288c-0.185,0.02-0.846-1.148-0.509-4.721c0.336-3.572,1.699-4.292,1.845-4.177
				c0.146,0.115-0.887,0.85-1.17,4.237C316.803,223.015,317.104,224.268,316.92,224.288z"/>
			<path id="path12780" d="M318.548,222.694c-0.184,0.028-0.805-1.044-0.363-4.294s1.335-4.113,1.504-4.036
				c0.169,0.077-0.415,1.02-0.837,4.126C318.431,221.598,318.731,222.667,318.548,222.694z"/>
			<path id="path12830" d="M320.857,220.564c-0.185,0.021-0.508-0.634-0.485-2.708c0.023-2.075,0.406-2.722,0.589-2.687
				c0.183,0.034,0.104,0.694,0.084,2.694C321.025,219.862,321.043,220.543,320.857,220.564z"/>
			<path id="path12880" d="M323.695,219.254c-0.182-0.039,0.049-0.939,0.257-3.167c0.207-2.228-0.56-2.62-0.424-2.745
				c0.138-0.125,1.249,0.346,1.102,2.796C324.483,218.59,323.877,219.292,323.695,219.254z"/>
			<path id="path12930" d="M303.509,215.798c-0.004,0.186-1.345,0.52-4.665-0.999c-3.318-1.518-4.37-1.853-4.334-2.035
				c0.037-0.182,1.344-0.096,4.619,1.417C302.403,215.696,303.512,215.612,303.509,215.798z"/>
			<path id="path12980" d="M303.663,212.667c-0.03,0.184-1.288,0.616-3.978-0.905c-2.689-1.521-2.308-3.045-2.127-3.082
				c0.183-0.036-0.026,1.161,2.456,2.482C302.497,212.482,303.693,212.483,303.663,212.667L303.663,212.667z"/>
			<path id="path13030" d="M318.12,188.011c0.185,0.021,0.357,1.412-0.03,5.674c-0.387,4.262-1.621,5.35-1.781,5.256
				c-0.161-0.093,0.753-1.151,1.107-5.315c0.354-4.164,0.52-5.637,0.703-5.615H318.12z"/>
			<path id="path13080" d="M320.35,187.335c0.186,0.009,0.371,0.958,0.177,3.883c-0.193,2.925-0.768,3.815-0.945,3.762
				c-0.178-0.053,0.09-0.94,0.273-3.806C320.038,188.309,320.164,187.325,320.35,187.335z"/>
			<path id="path13130" d="M321.972,186.969c0.185,0.013,0.294,0.702,0.151,2.785c-0.142,2.084-0.397,2.756-0.582,2.734
				c-0.185-0.022-0.231-0.707-0.09-2.78C321.593,187.636,321.786,186.955,321.972,186.969L321.972,186.969z"/>
			<path id="path13180" d="M323.209,183.394c0.185,0.002,0.378,0.833,0.273,3.382c-0.104,2.55-0.462,3.363-0.646,3.334
				c-0.184-0.029-0.129-0.849-0.027-3.361C322.911,184.236,323.023,183.392,323.209,183.394L323.209,183.394z"/>
			<path id="path13230" d="M325.215,181.191c0.182,0.041,0.05,0.787-0.028,3.133c-0.079,2.346-0.169,3.15-0.355,3.15
				c-0.186-0.001-0.402-0.772-0.317-3.173c0.084-2.401,0.52-3.151,0.702-3.11H325.215z"/>
			<path id="path13280" d="M327.662,178.37c0.167,0.049-0.004,0.973-0.31,3.816c-0.314,2.913-0.759,3.806-0.951,3.752
				c-0.158-0.044-0.027-0.977,0.28-3.824c0.315-2.918,0.799-3.797,0.982-3.743H327.662z"/>
			<path id="path13330" d="M329.29,177.307c0.187,0.003,0.402,0.586,0.396,2.505c-0.005,1.92-0.514,2.495-0.689,2.431
				c-0.175-0.064,0.023-0.594,0.014-2.43C329.002,177.977,329.104,177.305,329.29,177.307L329.29,177.307z"/>
			<path id="path13380" d="M328.419,205.59c-0.145-0.116,0.446-0.749,1.435-2.908c0.988-2.16,0.902-2.995,1.088-2.988
				c0.186,0.007,0.567,0.958-0.476,3.266C329.423,205.268,328.564,205.706,328.419,205.59L328.419,205.59z"/>
			<path id="path13430" d="M326.837,205.507c-0.152-0.106-0.058-0.432,0.362-1.199c0.408-0.748,0.529-1.02,0.738-0.973
				c0.143,0.032,0.328,0.406-0.147,1.293C327.333,205.484,326.99,205.613,326.837,205.507z"/>
			<path id="path13480" d="M309.419,246.856c-0.087,0.031-0.313-0.405-0.833-1.565c-0.335-0.749-1.508-3.507-2.982-5.583
				c-1.701-2.395-3.32-3.328-4.347-3.797c-1.048-0.48-1.552-0.58-1.535-0.671c0.016-0.092,0.555-0.154,1.705,0.249
				c1.149,0.404,2.923,1.34,4.727,3.824c1.662,2.29,2.581,4.861,2.89,5.8C309.445,246.336,309.507,246.826,309.419,246.856
				L309.419,246.856z"/>
			<path id="path13530" d="M314.291,252.433c-0.169,0.077-1.163-1.386-2.727-6.358c-1.565-4.973-1.773-6.689-1.594-6.738
				c0.179-0.05,0.685,1.6,2.235,6.536C313.757,250.809,314.461,252.356,314.291,252.433L314.291,252.433z"/>
			<path id="path13580" d="M317.467,252.783c-0.162,0.092-1.208-0.748-2.342-4.21c-1.134-3.461-0.335-4.724-0.151-4.693
				c0.183,0.031-0.313,1.186,0.792,4.48C316.871,251.656,317.628,252.691,317.467,252.783z"/>
			<path id="path13630" d="M318.344,248.956c-0.162,0.092-0.49-0.044-0.897-0.928c-0.431-0.938-0.148-1.289-0.015-1.295
				c0.216-0.01,0.267,0.271,0.624,1.007C318.441,248.537,318.538,248.844,318.344,248.956L318.344,248.956z"/>
		</g>
		<g id="layer5">
			<path id="path1942" d="M140.948,268.849c-0.114,0.235-3.171-0.88-10.078-4.351c-2.529-1.267-7.628-3.69-11.48-6.736
				c-4.928-3.908-11.635-9.425-18.63-15.926c-2.626-2.189-7.007-5.803-6.598-10.792c0.114-1.369,0.837-2.917,2.419-3.814l0,0
				c2.865-1.034,5.54,0.476,7.276,2.062c6.405,4.816,13.971,10.15,22.307,15.146c4.777,2.863,9.398,5.37,13.895,7.57
				c7.2,3.518,13.893,5.803,20.41,6.803c5.08,0.791,11.139,0.78,15.521,0.946c7.938,0.302,17.968-0.634,22.828-0.978l0,0
				c14.908-1.061,20.838-1.54,20.878-1.188c0.04,0.353-5.827,1.472-20.72,3.002l0,0c-4.999,0.515-14.697,1.657-23.056,1.461
				c-4.34-0.102-10.431-0.028-15.817-0.811c-6.822-1.007-13.796-3.333-21.17-6.926c-4.571-2.224-9.261-4.761-14.1-7.66
				c-8.449-5.062-16.065-10.458-22.501-15.35c-1.926-1.184-3.658-2.659-4.677-1.831l0,0c-0.546,0.12-0.839,1.042-1.051,1.921
				c-0.746,3.005,3.317,6.134,5.77,8.721c6.806,6.473,13.483,12.182,18.226,16.158c3.443,2.9,8.543,5.6,10.941,6.971
				C138.212,267.055,141.062,268.613,140.948,268.849L140.948,268.849z"/>
			<path id="path1992" d="M72.045,250.366c-0.099,0.263-4.408-1.138-14.064-5.698c-2.207-1.041-4.938-2.358-7.75-3.816
				c-1.381-0.71-3.165-1.544-4.707-2.679c-4.533-3.394-6.954-7.504-10.953-13.024c-4.135-5.67-7.113-11.465-11.032-19.057
				c-1.891-3.658-3.879-7.666-5.749-11.856c-1.289-2.879-2.701-6.083-3.623-9.467c-0.912-3.07-1.82-6.992-0.337-10.684
				c1.105-2.285,3.515-3.561,5.981-3.392c3.377,0.434,5.54,3.068,7.025,5.421c0.285,0.401,0.562,0.807,0.832,1.217
				c1.598,2.417,2.926,4.847,4.374,7.047c3.078,4.681,6.318,9.211,9.323,13.328l0,0c3.865,5.28,6.911,9.715,10.948,13.619l0,0
				c8.586,8.319,15.681,14.298,23.092,19.081l0,0c3.007,1.944,6.463,3.761,9.18,5.229l0,0c4.591,2.48,9.518,5.056,12.762,6.757l0,0
				c5.119,2.684,8.56,4.491,11.276,5.963l0,0c1.573,0.853,2.729,1.501,3.509,1.966l0,0c0.427,0.255,0.741,0.456,0.948,0.605l0,0
				c0.108,0.078,0.187,0.142,0.237,0.191l0,0c0.055,0.055,0.077,0.093,0.066,0.116c-0.011,0.022-0.054,0.029-0.131,0.02l0,0
				c-0.071-0.009-0.169-0.032-0.298-0.069l0,0c-0.245-0.07-0.596-0.195-1.06-0.375l0,0c-0.846-0.329-2.07-0.845-3.706-1.571l0,0
				c-2.626-1.166-6.554-2.979-11.571-5.395l0,0c-3.489-1.68-8.124-3.946-12.967-6.438l0,0c-2.747-1.412-6.251-3.178-9.418-5.156l0,0
				c-7.627-4.774-14.962-10.816-23.64-19.141l0,0c-4.27-4.104-7.454-8.658-11.29-13.894l0,0c-3.031-4.126-6.3-8.678-9.422-13.415
				c-1.55-2.353-2.823-4.689-4.373-7.042c-0.257-0.389-0.518-0.77-0.784-1.144c-1.72-2.155-3.192-4.431-5.084-4.342
				c-1.472-0.091-3.04,0.646-3.447,1.839c-1.222,2.532-0.302,5.928,0.439,8.992c0.834,3.136,2.193,6.232,3.457,9.112
				c1.822,4.137,3.769,8.12,5.62,11.764c3.894,7.651,6.709,13.311,10.661,18.873c4.07,5.687,6.163,9.599,10.314,12.789
				c1.289,1.012,2.99,1.853,4.391,2.633c2.709,1.499,5.454,2.937,7.575,4.044C68.157,248.268,72.144,250.102,72.045,250.366
				L72.045,250.366z"/>
			<path id="path2042" d="M106.485,274.84c0.022,0.256-0.954,0.636-3.35,0.816c-2.748,0.209-5.865,0.05-11.651-0.72
				c-4.049-0.513-10.441-1.851-15.957-5.777c-0.721-0.513-1.399-1.052-2.038-1.612c-3.922-3.494-7.066-8.184-8.909-10.881
				c-6.385-9.283-7.347-13.367-6.921-13.56c0.469-0.214,2.247,3.333,8.823,12.202c1.913,2.563,5.182,7.207,8.718,10.302
				c0.568,0.504,1.175,0.988,1.823,1.451c4.911,3.508,11.002,4.905,14.808,5.573c6.454,1.085,7.927,1.313,11.315,1.636
				C105.458,274.49,106.463,274.586,106.485,274.84L106.485,274.84z"/>
			<path id="path2092" d="M105.305,293.876c0.173,0.365-1.238,1.365-4.954,3.678c-0.6,0.374-1.224,0.76-1.941,1.204l0,0
				c-0.259,0.129-0.521,0.26-0.795,0.395l0,0c-0.073,0.036-0.251,0.125-0.323,0.16c-0.126-0.006-0.253-0.018-0.376-0.028l0,0l0,0
				c-0.383-0.023-0.77-0.054-1.164-0.091c-0.795-0.181-1.629-0.432-2.485-0.77c-2.006-0.778-4.387-2.164-6.2-4.493
				c-0.555-0.726-1.104-1.497-1.641-2.317c-4.491-6.853-6.052-13.812-6.56-16.725c-0.617-3.542-0.464-4.996-0.112-5.057
				c0.353-0.063,0.845,1.284,1.895,4.625c0.781,2.486,2.876,9.598,6.93,15.74c0.506,0.768,1.021,1.488,1.538,2.168
				c1.379,1.854,3.385,3.064,5.078,3.819c0.734,0.323,1.448,0.576,2.129,0.772c0.085,0.086,0.167,0.164,0.249,0.234l0,0l0,0
				c0.064,0.025,0.136,0.053,0.201,0.074c0.054-0.039,0.111-0.081,0.161-0.118l0,0c0.134-0.099,0.267-0.193,0.399-0.286l0,0
				c0.745-0.387,1.436-0.731,2.067-1.035C103.407,293.894,105.14,293.529,105.305,293.876L105.305,293.876z"/>
			<path id="path2166" d="M115.658,322.424C115.658,322.424,115.659,322.424,115.658,322.424L115.658,322.424L115.658,322.424
				L115.658,322.424L115.658,322.424L115.658,322.424L115.658,322.424L115.658,322.424L115.658,322.424L115.658,322.424
				L115.658,322.424c-0.011-0.002-0.057-0.008-0.148,0.021l0,0l0,0c-0.09,0.026-0.226,0.087-0.422,0.212l0,0l0,0
				c-0.296,0.016-0.714-0.015-1.269-0.107l0,0l0,0c-0.882-0.146-2.22-0.468-3.889-1.065l0,0c-1.696-0.584-5.648-1.96-8.245-5.042
				c-0.504-0.624-0.996-1.298-1.466-2.027c-3.512-5.446-3.928-10.871-3.909-13.217c0.023-2.771,0.496-3.829,0.853-3.814
				c0.357,0.016,0.544,1.099,0.975,3.677c0.34,2.038,1.18,7.265,4.239,11.955c0.424,0.65,0.864,1.252,1.312,1.809
				c1.757,2.299,5.553,3.961,7.059,4.725l0,0c1.545,0.762,2.704,1.301,3.5,1.724l0,0l0,0c0.479,0.255,0.827,0.466,1.059,0.643l0,0
				l0,0c0.095,0.216,0.176,0.34,0.237,0.412l0,0l0,0C115.606,322.4,115.648,322.42,115.658,322.424L115.658,322.424L115.658,322.424
				L115.658,322.424L115.658,322.424L115.658,322.424L115.658,322.424L115.658,322.424L115.658,322.424L115.658,322.424
				L115.658,322.424C115.659,322.424,115.658,322.424,115.658,322.424L115.658,322.424z"/>
			<path id="path2216" d="M138.685,340.086c-0.042,0.439-1.825,0.995-7.025,0.518c-1.969-0.15-6.175-0.533-9.343-3.139
				c-0.974-0.836-1.917-1.801-2.831-2.908c-1.242-1.505-2.246-3.057-3.043-4.439c-1.53-2.364-2.649-4.467-2.405-6.996
				c0.872-3.483,4.402-4.18,5.296-4.332c1.414-0.24,1.992-0.109,2.056,0.121c0.066,0.237-0.405,0.584-1.626,1.204
				c-0.792,0.403-3.773,1.589-3.505,3.247c-0.208,1.634,0.914,2.814,2.365,5.458c0.788,1.282,1.746,2.729,2.864,4.093
				c0.826,1.008,1.659,1.873,2.508,2.617c2.121,1.975,6.107,2.59,7.957,2.963C136.665,339.387,138.727,339.647,138.685,340.086
				L138.685,340.086z"/>
			<path id="path2266" d="M167.053,341.73c0,0,0,0-0.001,0.002l0,0l0,0l0,0c-0.005,0.008-0.022,0.047-0.026,0.129l0,0
				c-0.004,0.081,0.004,0.205,0.046,0.392l0,0c-0.064,0.251-0.189,0.593-0.383,1.037l0,0c-0.315,0.724-0.822,1.735-1.544,3.045l0,0
				c-0.669,1.216-2.037,3.72-3.538,5.804l0,0c-1.189,1.698-3.423,3.914-6.735,4.002l0,0c-2.091-0.05-4.58-0.169-7.139-0.518
				c-0.648-0.058-1.392-0.129-2.153-0.258c-1.699-0.289-3.33-0.851-4.695-2.063c-1.839-1.844-2.816-4.192-3.48-5.915
				c-0.953-1.967-1.766-4.037-1.123-6.313c1.357-3.71,4.381-6.563,5.284-7.415c1.332-1.256,2.003-1.688,2.179-1.543
				c0.188,0.156-0.134,0.889-1.173,2.405c-0.565,0.824-3.38,4.41-4.161,7.243c-0.485,1.177,0.458,2.422,1.267,4.675
				c0.745,1.653,1.627,3.751,2.997,5.017c0.678,0.766,1.833,1.045,3.335,1.279c0.703,0.109,1.365,0.194,2.079,0.326
				c2.404,0.34,4.832,0.486,6.87,0.578l0,0c1.941,0.267,3.729-1.517,4.856-2.863l0,0c1.688-2.093,2.881-3.963,3.903-5.353l0,0
				c0.889-1.208,1.567-2.081,2.09-2.686l0,0c0.315-0.365,0.569-0.626,0.766-0.794l0,0c0.186-0.043,0.302-0.09,0.373-0.13l0,0
				C167.019,341.772,167.046,341.74,167.053,341.73L167.053,341.73L167.053,341.73L167.053,341.73
				C167.053,341.73,167.053,341.73,167.053,341.73L167.053,341.73z"/>
			<path id="path2316" d="M215.714,326.379C215.714,326.379,215.713,326.379,215.714,326.379L215.714,326.379L215.714,326.379
				L215.714,326.379L215.714,326.379L215.714,326.379L215.714,326.379c0.004,0.01,0.032,0.059,0.172,0.118l0,0l0,0l0,0
				c0.063,0.08,0.136,0.202,0.221,0.366l0,0c0.156,0.303,0.35,0.752,0.586,1.361l0,0c0.39,1.006,0.902,2.477,1.529,4.438l0,0l0,0
				l0,0c0.631,1.97,1.859,5.834,2.741,9.471l0,0c0.545,2.254,0.897,4.818,0.936,7.685l0,0l0,0l0,0
				c0.082,1.892,0.136,4.554-1.257,6.896l0,0c-1.263,2.231-3.011,6.813-7.276,7.915l0,0c-3.372,0.627-7.774,1.051-11.805-0.652
				c-0.232-0.11-0.455-0.23-0.669-0.359c-2.144-1.279-3.449-3.367-4.455-4.903c-0.666-0.943-1.289-1.89-1.871-2.821l0,0
				c0.052-0.278,0.105-0.557,0.161-0.836l0,0c0.016-0.08,0.032-0.16,0.048-0.24l0,0c0.008-0.032,0.015-0.065,0.023-0.098l0,0
				c-0.406,0.828-0.803,1.634-1.194,2.422c-1.011,1.052-1.987,2.152-3.342,3.066c-2.693,1.656-5.824,1.428-8.054,1.037
				c-2.124-0.307-4.233-0.384-6.215-0.714c-2.128-0.204-4.374-0.796-5.702-2.723c-1.302-2.251-2.012-4.942-2.456-6.507
				c-1.593-5.524-1.725-7.918-1.43-7.986c0.296-0.067,0.971,2.176,2.956,7.482c0.57,1.511,1.446,4.146,2.636,5.964
				c0.533,1.118,2.198,1.14,4.329,1.585c1.816,0.25,3.877,0.269,6.193,0.551c2.128,0.188,4.775,0.435,6.362-0.76
				c0.994-0.653,1.799-1.635,2.894-2.749c1.035-0.72,2.095-1.455,3.186-2.208c0.002,0,0.002,0,0.002,0
				c0.048,0.036,0.098,0.074,0.146,0.111l0,0c0.119,0.092,0.238,0.184,0.358,0.275l0,0c0.417,0.318,0.84,0.639,1.27,0.961l0,0
				c0.566,0.895,1.167,1.799,1.804,2.693c1.192,1.564,2.269,3.438,3.629,4.188c0.139,0.076,0.28,0.141,0.426,0.195
				c3.141,1.427,7.11,0.994,10.345,0.51l0,0c2.424-0.042,3.853-4.232,5.653-6.724l0,0c1-1.358,0.92-3.656,0.993-5.566l0,0l0,0l0,0
				c0.026-2.704-0.225-5.112-0.652-7.241l0,0c-0.798-3.975-1.617-7.104-2.161-9.527l0,0l0,0l0,0
				c-0.453-2.02-0.762-3.514-0.949-4.592l0,0c-0.111-0.643-0.177-1.127-0.2-1.466l0,0c-0.012-0.185-0.012-0.327-0.001-0.428l0,0l0,0
				l0,0C215.717,326.445,215.715,326.39,215.714,326.379L215.714,326.379L215.714,326.379L215.714,326.379L215.714,326.379
				L215.714,326.379L215.714,326.379L215.714,326.379L215.714,326.379z"/>
			<path id="path2366" d="M244.275,350.856c0,0,0-0.001,0.001,0.002l0,0l0,0l0,0l0,0l0,0l0,0l0,0l0,0l0,0l0,0
				c0.005,0.02,0.044,0.124,0.324,0.294l0,0l0,0c0.089,0.172,0.177,0.426,0.255,0.771l0,0l0,0l0,0
				c0.124,0.539,0.239,1.38,0.237,2.454l0,0c0.045,1.012,0.112,3.605-1.781,5.52l0,0c-1.054,0.966-2.128,2.421-3.986,3.842
				c-1.023,0.792-2.361,1.437-3.887,1.628c-1.027,0.13-2.04,0.039-2.998-0.26c-3.5-1.227-6.868-3.162-8.486-4.103l0,0
				c-1.583-0.918-2.731-1.675-3.478-2.24l0,0l0,0c-0.457-0.346-0.779-0.631-0.981-0.857c-0.112-0.124-0.188-0.232-0.23-0.322l0,0
				c-0.05-0.108-0.056-0.19-0.021-0.256c0.035-0.064,0.107-0.103,0.224-0.12l0,0c0.1-0.013,0.23-0.009,0.395,0.017
				c0.3,0.047,0.711,0.158,1.252,0.345l0,0l0,0c0.907,0.313,2.117,0.814,3.797,1.554l0,0c1.336,0.588,5.553,2.611,8.363,3.548
				c0.537,0.212,1.151,0.265,1.816,0.161c0.985-0.151,1.948-0.62,2.713-1.15c1.487-1.051,2.668-2.504,3.985-3.564l0,0
				c1.008-0.596,1.323-2.934,1.551-3.902l0,0c0.19-0.986,0.305-1.744,0.424-2.283l0,0l0,0l0,0c0.073-0.326,0.143-0.572,0.219-0.746
				l0,0l0,0c0.265-0.198,0.29-0.307,0.292-0.327l0,0l0,0l0,0l0,0l0,0l0,0l0,0l0,0l0,0l0,0
				C244.275,350.855,244.275,350.856,244.275,350.856L244.275,350.856z"/>
			<path id="path2416" d="M256.262,352.64c0,0,0.001,0-0.002,0.002l0,0l0,0l0,0l0,0l0,0l0,0l0,0l0,0l0,0l0,0l0,0l0,0l0,0l0,0
				c-0.016,0.014-0.077,0.097-0.095,0.515l0,0l0,0l0,0l0,0c-0.097,0.152-0.255,0.314-0.486,0.487l0,0
				c-0.371,0.278-0.944,0.593-1.751,0.908l0,0l0,0c-0.693,0.282-1.928,0.733-3.343,0.903c-0.349,0.042-0.689,0.064-1.02,0.068
				c-1.681-0.025-2.941-0.67-3.552-1.053l0,0c-0.528-0.319-0.886-0.631-1.1-0.893l0,0l0,0c-0.127-0.156-0.208-0.301-0.249-0.432l0,0
				c-0.052-0.174-0.041-0.312,0.027-0.439c0.067-0.127,0.173-0.211,0.339-0.271l0,0c0.126-0.041,0.283-0.061,0.476-0.06l0,0l0,0
				c0.329,0,0.734,0.061,1.277,0.171l0,0c0.544,0.102,1.915,0.464,2.736,0.402c0.236-0.006,0.484-0.025,0.753-0.059
				c1.157-0.145,2.187-0.43,3.041-0.564l0,0l0,0c0.827-0.135,1.439-0.191,1.901-0.17l0,0c0.279,0.014,0.498,0.056,0.662,0.123l0,0
				l0,0l0,0l0,0c0.262,0.326,0.361,0.355,0.383,0.357l0,0l0,0l0,0l0,0l0,0l0,0l0,0l0,0l0,0l0,0l0,0l0,0l0,0l0,0
				c0.003,0,0.003,0.001,0.003,0.001H256.262z"/>
			<path id="path3940" d="M142.592,271.652c-0.107,0.217-2.553-0.954-8.921-3.196c-8.865-3.122-14.287-4.397-32.924-8.694
				l-0.023-0.005c-17.084-3.917-25.593-6.954-32.632-10.38c-6.135-2.986-8.245-4.777-8.12-4.982
				c0.125-0.205,2.448,1.206,8.632,3.868c7.371,3.173,15.199,5.801,32.509,9.795l0.023,0.006
				c17.845,4.095,24.927,5.985,32.966,9.242C140.431,269.87,142.698,271.438,142.592,271.652L142.592,271.652z"/>
			<path id="path3990" d="M154.187,279.624c-0.068,0.23-2.022-0.24-6.913-1.134c-5.331-0.975-12.3-2.012-24.857-2.555
				c-12.115-0.523-20.276-0.668-25.319-1.082c-5.043-0.414-7.013-0.84-6.993-1.08c0.021-0.239,2.02-0.248,7.056-0.153
				c5.036,0.095,13.152,0.035,25.332,0.571c12.489,0.551,19.857,1.817,25.038,3.102
				C152.417,278.504,154.255,279.394,154.187,279.624L154.187,279.624z"/>
			<path id="path4090" d="M167.811,282.391c0.099,0.203-1.561,1.563-6.391,2.746c-4.83,1.183-13.223,0.672-24.965,1.381
				c-1.486,0.092-3.019,0.258-4.615,0.504c-7.624,1.18-16.712,4.467-20.655,5.788l0,0c-5.238,1.79-8.813,2.804-10.841,3.873
				c-2.028,1.069-2.789,1.759-2.899,1.642c-0.11-0.117,0.462-1.037,2.452-2.387c1.99-1.349,5.717-2.715,10.789-4.55l0,0
				c4.069-1.499,12.809-4.829,20.89-6.08c1.646-0.255,3.233-0.427,4.775-0.52c12.068-0.744,20.096,0.068,24.831-0.776
				C165.914,283.166,167.713,282.188,167.811,282.391L167.811,282.391z"/>
			<path id="path4140" d="M177.049,286.105c0.086,0.113-0.446,0.654-1.685,1.872c-0.543,0.534-3.817,3.877-6.329,5.674
				c-4.327,3.071-11.501,5.421-20.34,9.653c-0.42,0.201-0.843,0.408-1.271,0.623c-11.577,5.801-18.715,11.086-23.581,13.547
				c-4.866,2.46-7.005,2.987-7.099,2.766c-0.093-0.223,1.856-1.14,6.514-3.848c4.657-2.707,11.564-8.093,23.386-14.022
				c0.437-0.22,0.87-0.432,1.3-0.638c9.1-4.355,16.052-6.439,20.305-9.232c3.214-2.093,5.188-4.071,6.6-5.124
				C176.259,286.324,176.963,285.992,177.049,286.105L177.049,286.105z"/>
			<path id="path4190" d="M184.235,291.184c0.204,0.129-0.571,2.113-3.813,6.182c-4.15,5.209-8.308,8.882-19.202,17.688
				l-0.006,0.005c-10.416,8.472-14.81,13.307-18.269,18.105c-2.968,4.117-3.822,6.016-4.04,5.915c-0.218-0.1,0.25-2.2,3.029-6.599
				c3.127-4.948,7.818-10.404,18.183-18.774l0.006-0.005c11.377-9.243,14.556-11.793,19.364-17.123
				C182.902,292.791,184.032,291.056,184.235,291.184L184.235,291.184z"/>
			<path id="path4290" d="M188.897,293.794c0.218,0.103-0.266,1.736-2.063,5.601c-1.797,3.865-5.152,9.863-9.74,18.947
				c-4.195,8.305-6.195,13.656-7.571,17.967c-1.621,5.087-2.779,6.985-3.02,6.869c-0.241-0.117,0.392-2.004,1.738-7.238
				c1.126-4.385,3.105-10.065,7.298-18.383c3.042-6.035,9.845-18.096,10.195-18.723C187.804,295.135,188.68,293.692,188.897,293.794
				L188.897,293.794z"/>
			<path id="path4390" d="M193.071,301.361c0.213,0.032,0.112,1.451,0.03,4.908c-0.082,3.457,0.115,8.978,0.552,17.279
				c0.113,2.016,0.139,4.104,0.119,6.459c-0.112,12.857-0.283,16.209,1.223,22.088c1.058,4.132,1.996,5.689,1.787,5.807
				c-0.21,0.117-1.537-1.259-2.938-5.469c-1.838-5.521-1.982-10.068-1.843-22.443c0.026-2.346,0.02-4.381-0.062-6.357
				c-0.414-9.115-0.439-13.134,0.04-17.438C192.367,302.699,192.858,301.328,193.071,301.361L193.071,301.361z"/>
			<path id="path4440" d="M208.622,302.354c0.24-0.02,0.476,0.952,1.057,3.318c0.715,2.917,1.452,5.559,3.7,11.727
				c2.268,6.22,3.191,8.907,3.84,11.965c0.522,2.462,0.47,3.488,0.234,3.537c-0.235,0.05-0.607-0.878-1.421-3.206
				c-0.814-2.329-2.235-6.022-4.296-11.698c-2.152-5.926-2.943-9.359-3.26-12.108C208.188,303.396,208.382,302.375,208.622,302.354
				L208.622,302.354z"/>
			<path id="path4490" d="M221.498,302.45c0.193-0.143,1.496,1.104,3.97,4.79c2.559,3.813,5.952,9.732,9.991,19.868
				c3.179,7.977,6.813,18.901,7.525,21.049c1.399,4.22,1.861,5.923,1.638,6.011c-0.224,0.088-1.094-1.46-2.797-5.58
				c-1.702-4.121-4.048-10.922-7.987-20.834c-4.026-10.131-7.113-15.863-9.409-19.867
				C222.252,304.09,221.305,302.593,221.498,302.45L221.498,302.45z"/>
			<path id="path4540" d="M257.326,329.335c-0.159,0.091-0.652-0.579-1.932-2.032c-1.279-1.451-3.609-3.479-6.794-6.936
				c-2.074-2.239-4.115-4.656-6.805-7.978c-5.455-6.735-9.086-11.093-11.471-13.72c-2.384-2.627-3.357-3.674-3.199-3.855
				c0.159-0.181,1.426,0.547,4.071,2.991c3.209,2.964,6.023,6.163,11.955,13.485c2.758,3.404,4.593,5.641,6.651,7.994
				c3.85,4.381,4.57,4.668,6.375,7.424C257.279,328.394,257.486,329.245,257.326,329.335L257.326,329.335z"/>
			<path id="path4590" d="M178.581,281.496c0.102,0.219-0.223,0.704-1.437,1.127c-0.997,0.348-3.627,0.852-6.249-0.948
				c-0.061-0.042-0.122-0.085-0.181-0.129c-2.327-1.709-3.611-2.866-4.526-3.401c-0.914-0.534-1.352-0.733-1.319-0.969
				c0.027-0.199,0.545-0.457,1.764-0.139c1.552,0.406,2.651,1.198,5.129,3.118c0.044,0.034,0.089,0.069,0.135,0.103
				c1.883,1.385,4.134,1.242,4.984,1.176C177.976,281.348,178.479,281.279,178.581,281.496L178.581,281.496z"/>
			<path id="path4640" d="M190.986,279.449c0.452,0.165,0.856,2.155-2.408,4.539c-3.264,2.384-5.037,1.345-5.043,0.863
				c-0.005-0.48,1.367-0.303,4.022-2.256C190.214,280.642,190.535,279.283,190.986,279.449L190.986,279.449z"/>
			<path id="path4690" d="M214.277,280.045c0.1,0.471-2.014,2.131-8.163,0.654c-6.148-1.477-7.434-3.714-7.168-4.114
				c0.266-0.401,1.928,1.041,7.577,2.423C212.173,280.389,214.176,279.574,214.277,280.045L214.277,280.045z"/>
			<path id="path4740" d="M216.907,278.318c-0.45-0.416-0.019-1.041,1.104-2.731c0.995-1.497,0.967-2.165,1.551-2.187
				c0.233-0.008,1.298,0.815-0.075,3.111C218.25,278.581,217.261,278.645,216.907,278.318z"/>
			<path id="path4790" d="M198.112,290.565c0.191,0.145,0.098,0.816-0.986,1.862c-1.083,1.046-3.456,2.757-7.143,1.718
				c-0.011-0.004-0.022-0.008-0.033-0.011c-3.197-0.989-5.405-3.097-6.171-3.905c-0.997-1.053-1.235-1.607-1.071-1.783
				c0.164-0.177,0.711,0.061,1.874,0.836c0.716,0.478,3.367,2.453,5.872,3.185c0.01,0.002,0.019,0.006,0.028,0.008
				c2.637,0.846,5.064-0.506,5.891-1.008C197.474,290.798,197.92,290.419,198.112,290.565L198.112,290.565z"/>
			<path id="path4840" d="M224.542,293.56c0.169,0.067,0.175,0.669-0.346,1.975c-0.409,1.024-1.674,3.676-4.546,5.156
				c-2.02,0.978-4.532,1.266-7.537,0.76c-0.066-0.01-0.132-0.022-0.198-0.032c-6.084-1.017-9.667-2.757-12.001-3.363
				c-2.334-0.605-3.305-0.755-3.298-0.995c0.008-0.241,1.029-0.52,3.527-0.207c2.499,0.313,6.37,1.899,12.059,2.848
				c0.062,0.01,0.124,0.02,0.185,0.029c2.806,0.419,4.898,0.279,6.573-0.495c2.304-0.98,3.816-3.346,4.357-4.157
				C224.048,293.978,224.373,293.496,224.542,293.56L224.542,293.56z"/>
			<path id="path4890" d="M206.863,290.967c0.097-0.22,0.755-0.089,2.318,0.152c1.36,0.211,4.292,0.604,7.807-0.282
				c0.117-0.029,0.232-0.06,0.346-0.091c1.819-0.543,2.985-1.23,3.653-2.163c0.887-1.074,0.837-2.755,0.833-3.346
				c-0.005-0.798,0.005-1.178,0.172-1.235c0.166-0.057,0.481,0.206,0.778,1.063c0.234,0.676,0.667,2.541-0.479,4.42
				c-0.886,1.316-2.395,2.391-4.489,2.939c-0.126,0.035-0.253,0.07-0.382,0.104c-3.971,1.024-7.091,0.311-8.547-0.215
				C207.257,291.728,206.766,291.188,206.863,290.967z"/>
			<path id="path4940" d="M225.284,292.959c-0.256-0.509,0.341-0.828,1.198-2.459c0.98-1.867,1.399-2.537,1.961-2.309
				c0.445,0.181,0.799,1.061-0.439,3.16C226.633,293.678,225.396,293.184,225.284,292.959z"/>
			<path id="path4990" d="M145.266,270.054c0.267-0.4,1.903,0.871,7.504,2.637c5.601,1.765,7.656,1.601,7.654,2.082
				c-0.001,0.481-2.216,1.458-8.178-0.417C146.284,272.479,144.999,270.454,145.266,270.054z"/>
		</g>
	</g>
</g>
</svg>
