<?xml version="1.0" encoding="utf-8"?>
<!-- Generator: Adobe Illustrator 27.5.0, SVG Export Plug-In . SVG Version: 6.00 Build 0)  -->
<svg xmlns="http://www.w3.org/2000/svg" xmlns:xlink="http://www.w3.org/1999/xlink" viewBox="0 0 500 500" width="595" height="842" preserveAspectRatio="xMidYMid meet" data-scaled="true">
<g id="BACKGROUND">
	<rect style="fill:#FFFFFF;" width="500" height="500"/>
</g>
<g id="OBJECTS">
	<g>
		<g>
			<path style="fill:#24232D;" d="M388.434,224.089c-0.319-19.771-5.186-40.756-13.354-57.578
				c-7.726-15.911-18.146-29.888-30.974-41.54c-12.24-11.12-26.162-19.665-41.38-25.396c-18.248-6.874-37.756-8.897-52.712-9.893
				c-22.418-1.494-40.928,0.86-56.584,7.189c-2.209,0.893-4.395,1.879-6.499,2.933l-0.895-1.789
				c2.151-1.076,4.387-2.085,6.645-2.997c15.942-6.445,34.738-8.842,57.467-7.332c15.094,1.005,34.791,3.051,53.284,10.018
				c15.454,5.82,29.592,14.497,42.021,25.787c13.017,11.825,23.59,26.005,31.427,42.147c8.291,17.074,13.231,38.367,13.556,58.418
				L388.434,224.089z"/>
		</g>
		<g>
			<path style="fill:#24232D;" d="M175.148,349.726c-15.983-4.923-32.513-15.049-50.534-30.955
				c-15.089-13.318-24.668-26.581-29.284-40.547c-5.124-15.499-6.796-33.279-4.969-52.847c3.583-38.393,20.111-72.19,44.211-90.408
				l1.206,1.596c-23.66,17.885-39.894,51.155-43.426,88.998c-1.801,19.291-0.16,36.798,4.876,52.034
				c4.502,13.619,13.893,26.597,28.709,39.674c17.804,15.716,34.093,25.706,49.799,30.543L175.148,349.726z"/>
		</g>
		<g>
			<path style="fill:#24232D;" d="M175.365,348.528c-6.104-2.185-12.166-4.816-17.392-8.865c-2.618-1.996-4.972-4.382-6.927-7.083
				c-1.922-2.713-3.471-5.677-4.704-8.751c-2.351-6.21-3.463-12.748-4.199-19.242c-0.67-6.518-1.051-12.998-1.258-19.531
				c-0.182-6.523-0.09-13.07,0.475-19.595c0.582-6.52,1.663-13.019,3.441-19.348c0.856-3.173,1.975-6.274,3.213-9.323
				c0.613-1.527,1.361-2.998,2.036-4.5c0.735-1.459,1.46-2.917,2.227-4.359c3.018-5.786,6.304-11.447,9.955-16.88
				c7.285-10.835,16.273-20.799,27.443-27.885c5.577-3.509,11.671-6.248,18.085-7.878c6.424-1.652,13.001-2.093,19.453-2.661
				c6.452-0.554,12.891-1.235,18.943-3.233c3.019-0.985,5.906-2.335,8.489-4.102c2.615-1.736,4.718-4.093,6.341-6.714
				c1.637-2.621,2.751-5.668,2.693-8.705c-0.074-1.513-0.399-3.028-1.092-4.4c-0.707-1.36-1.697-2.576-2.878-3.597
				c-1.193-1.015-2.594-1.774-4.057-2.372c-1.476-0.59-3.052-0.895-4.639-1.081c-0.797-0.028-1.602-0.119-2.399-0.062
				c-0.8,0.043-1.6,0.154-2.398,0.291c-1.595,0.273-3.197,0.633-4.823,0.712c1.619-0.174,3.18-0.622,4.768-0.989
				c0.794-0.184,1.598-0.345,2.418-0.437c0.822-0.106,1.645-0.061,2.471-0.079c1.644,0.106,3.297,0.344,4.876,0.886
				c1.567,0.551,3.095,1.283,4.438,2.315c1.331,1.039,2.491,2.32,3.357,3.808c0.852,1.5,1.315,3.202,1.479,4.919l0.044,1.296
				c0.003,0.432-0.071,0.856-0.104,1.286c-0.04,0.869-0.311,1.684-0.485,2.527c-0.244,0.813-0.532,1.607-0.827,2.402
				c-0.374,0.76-0.667,1.567-1.115,2.292c-1.694,2.96-4.152,5.45-6.927,7.347c-2.782,1.905-5.846,3.326-9,4.357
				c-6.327,2.086-12.927,2.768-19.398,3.326c-6.475,0.568-12.941,1.012-19.131,2.606c-6.189,1.573-12.098,4.224-17.515,7.633
				c-10.845,6.877-19.673,16.631-26.85,27.31c-3.599,5.356-6.848,10.952-9.841,16.688c-0.759,1.427-1.481,2.879-2.208,4.321
				c-0.655,1.462-1.385,2.891-1.981,4.379c-1.206,2.97-2.298,5.993-3.134,9.095c-1.737,6.186-2.801,12.561-3.374,18.983
				c-0.556,6.426-0.648,12.897-0.468,19.362c0.204,6.456,0.587,12.96,1.247,19.37c0.701,6.401,1.854,12.777,4.097,18.749
				c1.06,3.001,2.385,5.913,4.097,8.592c1.727,2.652,3.868,5.057,6.319,7.124c2.439,2.084,5.141,3.874,7.968,5.444
				C169.426,345.882,172.379,347.246,175.365,348.528z"/>
		</g>
		<g>
			<path style="fill:#24232D;" d="M321.8,406.649c-1.569,0-3.116-0.028-4.645-0.084c-25.699-0.933-51.058-10.107-71.405-25.833h0
				c-9.245-7.146-21.717-18.408-28.638-31.482c-1.974-3.729-4.178-7.404-6.309-10.958c-4.253-7.093-8.65-14.427-11.492-22.62
				c-0.508-1.465-2.715-8.813-4.503-15.793c-3.762-14.693-2.504-15.155-1.493-15.525c24.638-9.032,49.8-17.67,74.788-25.673
				c2.101-0.673,4.483-1.429,6.96-1.184c1.744,0.179,3.406,0.84,5.015,1.48c2.326,0.927,4.525,1.799,6.529,1.002
				c1.232-0.49,2.225-1.565,3.277-2.704c1.43-1.55,2.908-3.151,5.167-3.417c2.225-0.266,4.014,0.908,5.744,2.039
				c0.987,0.646,1.92,1.255,2.902,1.591c3.416,1.169,6.688-1.032,10.15-3.363c3.169-2.134,6.475-4.321,10.23-4.291
				c1.165,0.015,2.276,0.252,3.352,0.482c0.883,0.188,1.717,0.365,2.553,0.421c3.56,0.242,5.713-1.773,8.144-4.427
				c0.604-0.661,1.2-1.602,1.831-2.6c1.279-2.02,2.603-4.109,4.579-4.949c0.917-0.39,1.85-0.453,2.751-0.515
				c0.589-0.04,1.145-0.078,1.651-0.207c0.789-0.199,1.536-0.638,2.327-1.101l0.429-0.25c3.209-1.849,6.555-2.624,9.789-3.375
				c1.226-0.284,2.493-0.578,3.745-0.927c4.362-1.218,8.728-2.996,12.951-4.717l1.463-0.595c10.563-4.285,19.45-8.934,27.17-14.211
				c1.446-0.988,3.248-2.227,5.335-1.933c1.703,0.232,3,1.413,4.149,2.653c10.768,11.639,17.639,28.367,21.001,51.14
				c3.971,26.896,2.29,51.289-4.997,72.501c-8.454,24.616-25.065,44.885-45.573,55.607c-9.944,5.2-21.732,8.8-37.1,11.327
				C339.481,405.828,330.326,406.649,321.8,406.649z M246.974,379.15c20.019,15.472,44.969,24.499,70.254,25.417
				c9.701,0.352,20.192-0.429,32.078-2.381c15.15-2.493,26.748-6.028,36.498-11.126c20.059-10.488,36.317-30.347,44.608-54.485
				c7.181-20.906,8.833-44.982,4.909-71.558c-3.302-22.362-10.004-38.741-20.491-50.074c-0.834-0.901-1.819-1.876-2.952-2.03
				c-1.315-0.186-2.711,0.765-3.935,1.602c-7.84,5.359-16.85,10.074-27.547,14.414l-1.46,0.594
				c-4.275,1.741-8.696,3.542-13.169,4.79c-1.294,0.361-2.583,0.66-3.83,0.949c-3.235,0.751-6.291,1.459-9.243,3.159l-0.415,0.242
				c-0.877,0.515-1.783,1.046-2.848,1.316c-0.682,0.173-1.355,0.219-2.007,0.263c-0.77,0.053-1.497,0.103-2.104,0.36
				c-1.402,0.596-2.557,2.418-3.672,4.179c-0.68,1.073-1.321,2.087-2.045,2.879c-2.602,2.843-5.285,5.362-9.752,5.073
				c-0.979-0.065-1.924-0.267-2.836-0.461c-1.025-0.219-1.994-0.425-2.961-0.438c-0.031,0-0.063-0.001-0.093-0.001
				c-3.127,0-6.109,2.009-8.995,3.951c-3.715,2.502-7.553,5.09-11.916,3.597c-1.218-0.417-2.301-1.125-3.348-1.809
				c-1.499-0.98-2.927-1.904-4.416-1.728c-1.525,0.18-2.694,1.446-3.933,2.787c-1.156,1.253-2.353,2.548-4.007,3.206
				c-2.745,1.092-5.421,0.028-8.009-1.002c-1.48-0.589-3.011-1.198-4.478-1.348c-2.059-0.212-4.232,0.484-6.147,1.098
				c-24.867,7.965-49.907,16.559-74.429,25.544c-0.634,3.026,5.316,24.272,6.917,28.887c2.774,7.998,7.117,15.242,11.317,22.248
				c2.145,3.576,4.362,7.274,6.361,11.051C225.634,361.073,237.885,372.125,246.974,379.15L246.974,379.15z"/>
		</g>
		<g>
			<path style="fill:#24232D;" d="M200.192,315.351c2.956,8.499,7.671,16.204,12.262,23.892c1.151,1.925,2.288,3.86,3.395,5.812
				c1.113,1.949,2.145,3.948,3.25,5.888c2.277,3.851,4.923,7.477,7.815,10.889c5.798,6.821,12.451,12.888,19.531,18.362
				c3.537,2.742,7.254,5.242,11.055,7.601c3.849,2.28,7.775,4.434,11.84,6.306c16.226,7.542,34.118,11.473,52.004,11.283
				c8.945-0.096,17.867-1.091,26.688-2.603c8.818-1.505,17.569-3.555,25.899-6.779c8.342-3.168,16.164-7.672,23.035-13.371
				c3.426-2.853,6.697-5.91,9.647-9.264c2.967-3.332,5.762-6.831,8.232-10.555c2.494-3.704,4.794-7.547,6.776-11.553
				c2.013-3.988,3.806-8.094,5.289-12.311c0.797-2.089,1.418-4.24,2.099-6.369c0.594-2.156,1.224-4.302,1.709-6.486
				c0.554-2.168,0.949-4.371,1.401-6.561c0.361-2.208,0.77-4.408,1.034-6.631c2.368-17.76,1.427-35.864-1.634-53.499
				c-1.559-8.812-3.823-17.542-7.373-25.775c-1.775-4.111-3.876-8.087-6.362-11.816c-1.236-1.869-2.578-3.668-4.014-5.388
				c-0.74-0.841-1.425-1.733-2.217-2.526c-0.782-0.782-1.715-1.513-2.843-1.679c1.129,0.155,2.073,0.88,2.864,1.658
				c0.802,0.788,1.494,1.673,2.243,2.509c1.453,1.708,2.814,3.498,4.069,5.359c2.524,3.713,4.667,7.68,6.485,11.786
				c3.635,8.224,5.986,16.962,7.63,25.786c3.138,17.669,4.131,35.822,1.811,53.674c-0.259,2.234-0.663,4.447-1.019,6.666
				c-0.447,2.204-0.838,4.419-1.387,6.601c-0.482,2.198-1.108,4.359-1.699,6.529c-0.678,2.144-1.297,4.309-2.092,6.415
				c-1.48,4.25-3.272,8.39-5.288,12.414c-1.984,4.042-4.289,7.922-6.792,11.664c-2.478,3.762-5.285,7.301-8.27,10.673
				c-2.966,3.394-6.26,6.493-9.714,9.387c-6.923,5.778-14.838,10.376-23.261,13.594c-8.427,3.231-17.246,5.265-26.104,6.749
				c-8.861,1.49-17.832,2.463-26.834,2.532c-18.01,0.136-36.003-3.879-52.291-11.512c-4.08-1.895-8.021-4.073-11.882-6.376
				c-3.813-2.383-7.54-4.907-11.086-7.674c-7.086-5.52-13.755-11.62-19.548-18.507c-2.876-3.456-5.504-7.126-7.758-11.019
				c-1.097-1.969-2.105-3.966-3.199-5.922c-1.088-1.959-2.206-3.902-3.339-5.837C207.724,331.639,203.07,323.876,200.192,315.351z"
				/>
		</g>
		<g>
			<path style="fill:#24232D;" d="M302.699,412.75c-3.344,0-6.675-0.043-9.994-0.113c-21.374-0.985-39.34-4.22-56.557-10.178
				c-5.254-1.246-11.651-3.29-17.561-5.611c-16.391-7.686-44.035-25.005-45.68-54.906c-0.82-17.833,5.415-35.869,19.624-56.768
				l1.654,1.125c-13.953,20.523-20.08,38.172-19.28,55.543c1.587,28.854,28.545,45.699,44.473,53.171
				c5.784,2.27,12.104,4.288,17.28,5.512l0.097,0.028c17.046,5.905,34.846,9.109,56.017,10.086
				c31.474,0.672,64.415-1.153,91.904-18.863l1.084,1.682C360.734,409.58,331.408,412.75,302.699,412.75z"/>
		</g>
		<g>
			<path style="fill:#24232D;" d="M311.695,282.303c-8.936,0-17.283-4.101-21.675-10.945l-0.165-0.261
				c-0.404-0.639-0.786-1.241-1.299-1.567c-0.638-0.405-1.532-0.415-2.479-0.425c-0.458-0.005-0.915-0.012-1.361-0.055
				c-3.229-0.311-5.666-2.441-8.023-4.501c-0.473-0.413-0.942-0.823-1.415-1.215c-2.374-1.968-6.02-3.662-8.466-1.956l-1.143-1.643
				c3.367-2.34,7.83-0.473,10.884,2.058c0.486,0.403,0.97,0.825,1.455,1.25c2.217,1.937,4.31,3.767,6.899,4.017
				c0.39,0.037,0.79,0.04,1.19,0.045c1.131,0.012,2.411,0.026,3.531,0.737c0.891,0.566,1.435,1.427,1.915,2.186l0.159,0.25
				c4.643,7.238,14.628,11.221,24.279,9.686c2.736-0.435,4.746-1.166,6.323-2.298c0.548-0.393,1.059-0.846,1.599-1.326
				c0.823-0.732,1.676-1.488,2.704-2.053c1.978-1.085,4.202-1.255,6.354-1.419c2.164-0.166,4.207-0.322,5.836-1.376
				c0.349-0.226,0.684-0.497,1.039-0.785c0.626-0.507,1.273-1.031,2.087-1.381c0.751-0.323,1.515-0.443,2.253-0.559
				c0.703-0.109,1.367-0.213,1.911-0.485c1.454-0.728,1.937-2.438,2.496-4.417c0.434-1.538,0.883-3.128,1.866-4.434
				c1.04-1.38,2.496-2.196,3.905-2.984c1.15-0.645,2.238-1.253,3.034-2.125c1.13-1.238,1.635-2.955,2.17-4.771
				c0.62-2.105,1.261-4.281,2.953-5.87c0.604-0.566,1.28-0.994,1.935-1.408c0.743-0.47,1.444-0.913,1.942-1.503
				c3.293-3.904,7.031-7.073,11.224-10.518c0.528-0.435,1.043-0.871,1.553-1.303c2.99-2.536,5.814-4.933,10.055-5.854l0.426,1.955
				c-3.753,0.816-6.392,3.055-9.188,5.425c-0.517,0.439-1.04,0.882-1.576,1.322c-4.115,3.381-7.78,6.486-10.964,10.262
				c-0.697,0.826-1.565,1.375-2.402,1.904c-0.602,0.381-1.17,0.74-1.635,1.177c-1.297,1.217-1.834,3.043-2.403,4.977
				c-0.576,1.954-1.171,3.975-2.612,5.554c-1.014,1.111-2.295,1.828-3.534,2.522c-1.284,0.719-2.498,1.398-3.284,2.442
				c-0.759,1.007-1.138,2.351-1.539,3.773c-0.631,2.233-1.282,4.54-3.526,5.663c-0.822,0.411-1.674,0.544-2.497,0.673
				c-0.643,0.101-1.252,0.195-1.77,0.419c-0.56,0.241-1.074,0.657-1.619,1.099c-0.38,0.308-0.773,0.627-1.212,0.91
				c-2.055,1.33-4.451,1.513-6.77,1.69c-2.028,0.155-3.945,0.302-5.543,1.179c-0.832,0.456-1.563,1.106-2.339,1.794
				c-0.555,0.493-1.129,1.003-1.761,1.456c-1.84,1.32-4.119,2.162-7.175,2.647C314.757,282.184,313.217,282.303,311.695,282.303z"/>
		</g>
		<g>
			<path style="fill:#24232D;" d="M185.148,195.894c-1.986,1.668-3.605,3.691-5.084,5.794c-1.455,2.127-2.898,4.28-4.119,6.523
				c-1.241,2.24-2.281,4.584-3.273,6.965c-0.938,2.465-2.456,4.744-4.027,6.805l-2.363,3.077c-0.777,1.018-1.484,2.063-2.193,3.117
				c-1.384,2.129-2.563,4.388-3.633,6.695c-2.11,4.637-3.655,9.531-4.902,14.509c-1.272,4.975-2.269,10.038-3.308,15.108
				c-1.034,5.025-1.755,10.117-2.155,15.24c-0.4,5.123-0.492,10.276-0.249,15.422c0.169,5.154,0.81,10.283,1.61,15.397
				c-2.453-10.056-3.472-20.517-2.918-30.919c0.218-5.205,0.914-10.384,1.855-15.512c0.983-5.075,1.969-10.171,3.228-15.228
				c1.302-5.042,2.887-10.054,5.127-14.814c1.148-2.363,2.41-4.678,3.887-6.862c0.754-1.076,1.512-2.166,2.334-3.181l2.454-3.005
				c1.622-1.997,3.048-4.037,4.061-6.378c1.098-2.349,2.25-4.701,3.624-6.927c1.386-2.227,2.952-4.292,4.539-6.347
				C181.239,199.329,183.029,197.391,185.148,195.894z"/>
		</g>
		<g>
			<path style="fill:#24232D;" d="M96.443,228.647c-0.477,3.826-0.703,7.663-0.63,11.496c0.029,3.831,0.284,7.654,0.679,11.458
				c0.419,3.802,0.953,7.592,1.696,11.342c0.719,3.753,1.569,7.482,2.622,11.149c1.018,3.672,2.255,7.292,3.623,10.859
				c1.352,3.575,2.9,7.072,4.569,10.51c1.693,3.424,3.541,6.778,5.643,9.973c2.066,3.222,4.444,6.241,7.133,9.006
				c-5.951-4.952-10.481-11.465-14.163-18.264c-3.686-6.834-6.58-14.069-8.729-21.542c-2.068-7.488-3.432-15.16-3.942-22.898
				C94.427,244.015,94.684,236.171,96.443,228.647z"/>
		</g>
		<g>
			<path style="fill:#24232D;" d="M210.856,175.618c1.924-1.628,4.21-2.838,6.587-3.737c2.384-0.9,4.86-1.512,7.33-2.02
				c4.939-1.017,9.892-1.669,14.41-3.47c2.263-0.857,4.367-2.052,6.173-3.595c1.805-1.515,3.242-3.487,3.771-5.703
				c0.254-1.103,0.232-2.278-0.051-3.378c-0.275-1.084-0.887-2.16-1.738-2.824c-0.418-0.327-0.9-0.457-1.409-0.335
				c-0.509,0.124-1.005,0.475-1.485,0.855c-0.482,0.383-0.952,0.818-1.491,1.174c-0.535,0.351-1.176,0.613-1.809,0.548
				c0.637-0.041,1.177-0.381,1.626-0.788c0.459-0.405,0.857-0.882,1.3-1.343c0.441-0.458,0.941-0.924,1.634-1.188
				c0.694-0.272,1.563-0.137,2.173,0.256c2.382,1.6,3.224,4.635,2.783,7.315c-0.446,2.744-2.118,5.056-4.049,6.83
				c-1.969,1.764-4.287,3.088-6.696,4.036c-4.853,1.883-9.958,2.445-14.872,3.142C220.134,172.118,215.21,173.04,210.856,175.618z"
				/>
		</g>
		<g>
			<path style="fill:#24232D;" d="M223.845,170.498l-1.998-0.088c0.215-4.926,0.438-10.02-0.709-14.848
				c-0.395-1.66-0.964-3.321-1.516-4.928c-0.43-1.253-0.874-2.548-1.243-3.857c-0.348-1.239-0.666-2.599-0.636-4.149
				c0.006-0.294,0.028-0.572,0.051-0.844c0.055-0.667,0.094-1.149-0.162-1.705l1.816-0.838c0.477,1.034,0.403,1.923,0.339,2.707
				c-0.019,0.23-0.04,0.468-0.044,0.719c-0.023,1.219,0.208,2.309,0.562,3.569c0.353,1.255,0.788,2.523,1.208,3.749
				c0.567,1.652,1.153,3.36,1.57,5.114C224.295,160.198,224.066,165.434,223.845,170.498z"/>
		</g>
		<g>
			<path style="fill:#24232D;" d="M239.036,166.884c-0.89-7.061-0.092-13.978,0.679-20.668c0.184-1.591,0.368-3.187,0.531-4.789
				c0.031-0.303,0.035-0.614,0.029-0.937c-0.326,0.367-0.716,0.711-1.203,0.941c-0.784,0.371-1.591,0.361-2.303,0.343
				c-0.188-0.003-0.378-0.007-0.565-0.002c-1.602,0.044-3.164,0.818-4.48,1.569l-0.141,0.081c-0.66,0.378-1.408,0.807-2.286,0.956
				c-0.613,0.107-1.203,0.063-1.805,0.003c-1.931-0.189-4.17-0.432-6.331-0.896c-1.108-0.238-2.277-1.108-2.979-2.219
				c-0.563-0.89-0.764-1.843-0.566-2.684c0.479-2.038,2.18-3.867,3.652-4.775c1.931-1.193,4.376-1.584,6.703-1.075
				c1.318,0.29,2.414,0.471,3.515-0.037c0.437-0.201,0.855-0.514,1.297-0.843c0.449-0.335,0.914-0.682,1.456-0.96
				c0.872-0.446,1.823-0.643,2.553-0.764c1.059-0.178,2.439-0.315,3.703,0.203c2.309,0.941,2.551,3.025,2.341,4.886l0.028,0.005
				c-0.022,0.121-0.047,0.241-0.075,0.36c-0.081,0.566-0.195,1.103-0.295,1.567c-0.059,0.281-0.118,0.552-0.165,0.808
				c-0.114,0.612-0.093,1.244-0.07,1.912c0.019,0.566,0.039,1.15-0.023,1.759c-0.163,1.611-0.349,3.215-0.533,4.814
				c-0.793,6.874-1.541,13.367-0.681,20.189L239.036,166.884z M225.944,134.514c-1.299,0-2.566,0.341-3.626,0.996
				c-1.326,0.818-2.459,2.271-2.755,3.531c-0.073,0.31,0.04,0.731,0.309,1.157c0.409,0.647,1.128,1.208,1.709,1.333
				c2.059,0.442,4.231,0.676,6.106,0.86c0.495,0.048,0.904,0.08,1.273,0.017c0.529-0.091,1.063-0.396,1.628-0.721l0.144-0.082
				c1.532-0.875,3.373-1.776,5.417-1.833c0.218-0.005,0.437-0.001,0.657,0.002c0.538,0.012,1.05,0.021,1.41-0.15
				c0.351-0.166,0.655-0.546,0.931-0.933c0.618-0.859,1.349-2.182,1.669-3.459c0.242-1.692,0.026-2.598-1.077-3.048
				c-0.795-0.325-1.77-0.224-2.619-0.082c-0.625,0.104-1.347,0.252-1.969,0.57c-0.393,0.202-0.772,0.484-1.173,0.783
				c-0.505,0.377-1.028,0.767-1.655,1.057c-1.662,0.764-3.21,0.52-4.781,0.174C227.011,134.571,226.475,134.514,225.944,134.514z"/>
		</g>
		<g>
			<path style="fill:#24232D;" d="M219.473,147.577c-4.081,3.356-8.085,6.835-11.107,11.025c-0.771,1.046-1.353,2.122-2.067,3.297
				c-0.697,1.174-1.599,2.306-2.579,3.273c-0.987,0.977-2.085,1.82-3.226,2.582c-1.149,0.773-2.37,1.387-3.525,2.005
				c-4.719,2.431-9.506,4.617-14.077,7.155c-4.566,2.539-8.882,5.526-12.605,9.305c3.086-4.326,7.302-7.812,11.806-10.646
				c4.507-2.868,9.305-5.153,13.955-7.588c1.178-0.612,2.328-1.174,3.379-1.866c1.065-0.685,2.064-1.464,2.987-2.311
				c0.926-0.858,1.719-1.776,2.412-2.848c0.684-1.063,1.439-2.271,2.305-3.301C210.552,153.439,214.925,150.255,219.473,147.577z"/>
		</g>
		<g>
			<path style="fill:#24232D;" d="M223.02,156.796c-1.733,2.1-2.188,4.669-3.058,7.228c-0.405,1.288-0.971,2.603-1.77,3.808
				c-0.805,1.192-1.819,2.213-2.897,3.104c-2.198,1.753-4.679,2.957-7.116,4.014c-2.439,1.078-4.85,2.064-7.155,3.462
				c1.779-2.051,4.149-3.523,6.448-4.853c2.306-1.344,4.611-2.571,6.567-4.178c0.996-0.775,1.878-1.662,2.615-2.644
				c0.758-0.962,1.299-2.096,1.863-3.285c0.542-1.19,1.083-2.438,1.768-3.63C220.981,158.646,221.869,157.519,223.02,156.796z"/>
		</g>
		<g>
			<path style="fill:#24232D;" d="M190.178,150.098c-5.834-0.24-11.661,0.61-17.174,2.378c-5.513,1.771-10.753,4.383-15.447,7.765
				c-4.744,3.32-8.949,7.376-12.668,11.826c-1.867,2.222-3.597,4.562-5.202,6.987c-1.634,2.409-3.107,4.925-4.511,7.484
				c1.201-2.661,2.595-5.236,4.097-7.747c1.531-2.494,3.205-4.904,5.019-7.209c3.637-4.602,7.91-8.719,12.686-12.156
				c4.821-3.37,10.152-6.042,15.802-7.683c2.824-0.814,5.715-1.391,8.633-1.689C184.332,149.789,187.276,149.763,190.178,150.098z"
				/>
		</g>
		<g>
			<path style="fill:#24232D;" d="M167.108,189.839c-2.398,3.201-4.885,6.303-7.332,9.425c-2.437,3.129-4.871,6.248-7.191,9.447
				c-2.349,3.177-4.585,6.431-6.741,9.743c-2.146,3.321-4.172,6.721-6.156,10.193c1.223-3.811,2.893-7.474,4.815-10.991
				c1.913-3.526,4.117-6.886,6.471-10.127c2.384-3.219,4.916-6.323,7.616-9.27C161.28,195.305,164.102,192.478,167.108,189.839z"/>
		</g>
		<g>
			<path style="fill:#24232D;" d="M153.282,318.495c0.705,3.168,1.757,6.167,3.169,8.98c1.421,2.805,3.151,5.439,5.141,7.873
				c1.963,2.458,4.182,4.717,6.515,6.87c2.346,2.145,4.833,4.152,7.389,6.15c-2.982-1.283-5.789-2.975-8.389-4.952
				c-2.609-1.969-4.987-4.262-7.071-6.813c-2.052-2.572-3.813-5.414-5.007-8.497C153.823,325.039,153.16,321.743,153.282,318.495z"
				/>
		</g>
		<g>
			<path style="fill:#24232D;" d="M238.225,141.327c0.307,2.396,0.521,4.895-0.226,7.332c-0.362,1.222-0.982,2.262-1.157,3.377
				c-0.212,1.121-0.178,2.306-0.11,3.506c0.105,2.391,0.39,4.872-0.07,7.344c-0.235,1.228-0.644,2.427-1.279,3.503
				c-0.658,1.054-1.538,1.999-2.637,2.543c0.973-0.735,1.72-1.698,2.206-2.776c0.515-1.062,0.818-2.219,0.949-3.385
				c0.26-2.348-0.036-4.738-0.168-7.18c-0.048-1.216-0.089-2.481,0.183-3.745c0.277-1.289,0.94-2.366,1.358-3.437
				c0.426-1.087,0.64-2.265,0.749-3.457C238.167,143.757,238.166,142.542,238.225,141.327z"/>
		</g>
		<g>
			<path style="fill:#24232D;" d="M240.074,136.679c0.204-0.491,0.117-1.036-0.115-1.462c-0.236-0.433-0.65-0.724-1.102-0.869
				c-0.919-0.326-1.907-0.051-2.795,0.403c-0.894,0.457-1.817,1.046-2.909,1.359c-1.075,0.313-2.169,0.364-3.221,0.416
				c-1.052,0.031-2.084,0.04-3.068,0.203c-0.982,0.132-1.921,0.485-2.578,1.122c-0.663,0.623-0.771,1.689-0.264,2.516
				c0.458,0.847,1.506,1.323,2.55,1.289c-1.02,0.257-2.245-0.089-2.958-1.017c-0.341-0.464-0.536-1.04-0.533-1.639
				c0.004-0.602,0.247-1.203,0.63-1.659c0.772-0.929,1.924-1.335,2.988-1.544c1.083-0.208,2.158-0.221,3.198-0.269
				c1.038-0.031,2.057-0.082,3.009-0.328c0.951-0.21,1.83-0.753,2.846-1.148c0.987-0.404,2.228-0.657,3.291-0.153
				C240.106,134.347,240.71,135.757,240.074,136.679z"/>
		</g>
		<g>
			<path style="fill:#24232D;" d="M223.265,159.726c0.027,1.837,1.262,3.313,2.681,4.182c1.461,0.867,3.205,1.173,4.957,1.37
				c1.776,0.183,3.552,0.49,5.212,0.171c0.825-0.162,1.599-0.52,2.235-1.093c0.646-0.554,1.099-1.351,1.157-2.259
				c0.176,0.905-0.206,1.87-0.803,2.599c-0.612,0.725-1.479,1.26-2.402,1.511c-1.873,0.522-3.738,0.224-5.516,0.064
				c-1.791-0.223-3.701-0.589-5.272-1.716c-0.775-0.556-1.421-1.284-1.847-2.127C223.261,161.584,223.057,160.616,223.265,159.726z"
				/>
		</g>
		<g>
			<path style="fill:#24232D;" d="M240.289,137.798c-0.169,0.765-0.927,1.285-1.683,1.498c-0.794,0.205-1.62,0.087-2.363-0.134
				c-0.755-0.199-1.444-0.595-2.047-0.672c-0.585-0.091-1.228,0.1-1.629,0.512c-0.436,0.405-0.686,1.086-1.098,1.779
				c-0.441,0.7-1.059,1.282-1.765,1.658c-1.395,0.787-3.129,0.873-4.499,0.241c1.48,0.249,2.954-0.133,4.091-0.906
				c0.562-0.397,1.045-0.885,1.356-1.47c0.335-0.584,0.577-1.362,1.217-2.016c0.666-0.637,1.613-0.898,2.491-0.727
				c0.87,0.202,1.474,0.613,2.136,0.867c0.654,0.261,1.339,0.454,2.021,0.39C239.2,138.769,239.911,138.456,240.289,137.798z"/>
		</g>
		<g>
			<path style="fill:#24232D;" d="M219.183,148.81c-0.221,0-0.443-0.072-0.628-0.223c-3.636-2.938-8.019-4.903-13.041-5.849
				c-0.38-0.003-0.763-0.075-1.129-0.217c-0.477-0.184-0.739-0.699-0.605-1.193c0.012-0.044,0.027-0.087,0.044-0.128
				c-10.897,0.611-21.538-0.031-29.831-0.695c-0.332-0.026-0.628-0.216-0.791-0.505c-0.163-0.29-0.172-0.642-0.024-0.938
				l0.439-0.881c-9.898,1.741-19.98,1.988-29.999,0.737c-0.391-0.049-0.717-0.323-0.833-0.7c-0.115-0.377,0.002-0.786,0.299-1.045
				c0.201-0.176,0.389-0.361,0.566-0.558c-7.616,0.553-15.253-0.005-22.737-1.659c-0.357-0.079-0.642-0.346-0.744-0.696
				c-0.088-0.301-0.029-0.622,0.152-0.87c-8.279-0.093-16.779-0.263-25.129-1.291c-0.469-0.058-0.834-0.436-0.875-0.907
				c-0.04-0.471,0.255-0.906,0.708-1.042c0.376-0.113,0.73-0.28,1.053-0.493c-13.052-2.739-25.166-8.852-35.137-17.746
				c-0.346-0.309-0.435-0.814-0.214-1.223c0.221-0.407,0.69-0.614,1.141-0.488c8.048,2.179,16.011-0.71,23.112-4.213l-0.467-0.037
				c-0.467-0.037-0.846-0.394-0.911-0.858c-0.065-0.464,0.201-0.911,0.64-1.075c2.4-0.897,4.161-2.659,6.025-4.523
				c0.063-0.063,0.134-0.117,0.211-0.161c5.691-3.252,12.577-6.574,20.658-6.738l0.671-1.343c0.155-0.31,0.459-0.518,0.804-0.549
				c9.572-0.868,20.074-0.205,30.5,1.922l-0.289-0.583c-0.16-0.322-0.134-0.707,0.068-1.005c0.203-0.298,0.548-0.462,0.909-0.436
				c11.505,0.942,22.873,3.27,33.818,6.924l-0.167-0.813c-0.068-0.336,0.04-0.685,0.288-0.922c0.248-0.237,0.6-0.329,0.933-0.249
				c13.075,3.237,25.209,10.461,34.315,20.403l0.741-1.241c0.157-0.263,0.425-0.439,0.729-0.479
				c0.307-0.041,0.608,0.062,0.828,0.274c6.023,5.864,9.607,15.051,10.869,18.729c0.179,0.522-0.099,1.091-0.621,1.27
				c-0.527,0.176-1.092-0.1-1.271-0.622c-2.378-6.932-5.796-13.053-9.483-17.031l-0.77,1.291c-0.164,0.274-0.449,0.454-0.768,0.483
				c-0.319,0.028-0.632-0.097-0.842-0.336c-8.583-9.765-20.133-16.967-32.666-20.398l0.195,0.949
				c0.072,0.352-0.05,0.717-0.321,0.953c-0.27,0.237-0.649,0.31-0.987,0.192c-10.734-3.731-21.899-6.159-33.213-7.229l0.415,0.839
				c0.171,0.345,0.129,0.758-0.108,1.061c-0.237,0.304-0.629,0.442-1.004,0.36c-10.534-2.344-21.646-3.178-31.363-2.364l-0.694,1.39
				c-0.17,0.339-0.516,0.553-0.895,0.553c-7.828,0-14.585,3.231-20.171,6.414c-1.123,1.123-2.271,2.262-3.591,3.219l0.662,0.053
				c0.444,0.035,0.811,0.359,0.9,0.796c0.09,0.437-0.12,0.879-0.514,1.086c-7.144,3.757-15.336,7.557-23.927,6.675
				c9.601,7.736,20.986,12.975,33.147,15.22c0.329,0.061,0.605,0.281,0.737,0.589c0.132,0.307,0.102,0.66-0.081,0.939
				c-0.198,0.305-0.423,0.589-0.67,0.851c8.138,0.818,16.419,0.904,24.455,0.987c0.403,0.004,0.764,0.249,0.916,0.622
				c0.152,0.373,0.066,0.801-0.219,1.085l-0.256,0.257c7.379,1.449,14.896,1.81,22.37,1.069c0.363-0.034,0.708,0.124,0.916,0.419
				c0.208,0.294,0.241,0.677,0.088,1.002c-0.213,0.453-0.462,0.882-0.745,1.284c9.85,1.038,19.744,0.6,29.442-1.305
				c0.374-0.072,0.757,0.072,0.988,0.375c0.231,0.304,0.27,0.712,0.1,1.053l-0.674,1.351c9.009,0.69,20.494,1.28,31.948,0.305
				c0.311-0.028,0.612,0.092,0.821,0.319c0.21,0.228,0.302,0.54,0.25,0.845c-0.074,0.431-0.231,0.834-0.458,1.189
				c4.398,1.133,8.296,3.059,11.622,5.747c0.43,0.347,0.497,0.976,0.149,1.406C219.763,148.683,219.474,148.81,219.183,148.81z"/>
		</g>
		<g>
			<path style="fill:#24232D;" d="M219.776,136.617c-5.229-4.396-11.131-7.953-17.492-10.32c-6.325-2.468-12.988-4.1-19.348-6.846
				c-1.58-0.695-3.156-1.455-4.663-2.287c-1.508-0.826-2.966-1.688-4.464-2.407c-2.955-1.512-6.212-2.064-9.596-2.504
				c-6.766-0.912-13.519-1.825-20.282-2.07c-3.378-0.14-6.759-0.14-10.115,0.144c-3.354,0.256-6.7,0.833-10.085,1.353
				c-3.376,0.533-6.837,0.964-10.283,1.073c-3.445,0.151-6.873,0.078-10.283,0.025c-3.41-0.049-6.806-0.052-10.184,0.184
				c-3.38,0.246-6.759,0.712-10.164,1.082c-3.404,0.347-6.843,0.62-10.282,0.442c-3.434-0.126-6.862-0.853-9.984-2.245
				c3.207,1.191,6.608,1.721,9.999,1.715c3.396,0.027,6.776-0.391,10.145-0.885c3.373-0.474,6.752-1.022,10.179-1.368
				c3.431-0.333,6.872-0.421,10.291-0.464c3.421-0.053,6.826-0.058,10.206-0.214c3.384-0.138,6.711-0.582,10.076-1.143
				c3.359-0.545,6.749-1.163,10.207-1.459c3.45-0.321,6.913-0.358,10.359-0.236c6.895,0.311,13.694,1.296,20.453,2.267
				c1.694,0.244,3.414,0.505,5.125,0.924c1.711,0.409,3.414,1.041,4.977,1.828c1.572,0.779,3.058,1.656,4.525,2.505
				c1.461,0.858,2.945,1.622,4.472,2.344c6.124,2.85,12.757,4.656,19.088,7.34C208.976,128.1,214.845,131.882,219.776,136.617z"/>
		</g>
		<g>
			<path style="fill:#24232D;" d="M219.776,136.617c-5.268-4.298-11.287-7.627-17.669-9.888c-6.364-2.327-13.013-3.874-19.336-6.503
				c-1.579-0.651-3.131-1.396-4.641-2.182c-1.511-0.783-2.996-1.591-4.534-2.255c-3.052-1.387-6.405-1.842-9.77-2.26
				c-6.738-0.854-13.477-1.706-20.241-1.919c-3.379-0.124-6.763-0.09-10.127,0.191c-3.364,0.261-6.711,0.812-10.079,1.295
				c-3.363,0.5-6.776,0.876-10.187,0.981c-3.41,0.13-6.814,0.079-10.208,0.053c-3.395-0.025-6.784-0.003-10.161,0.24
				c-3.388,0.236-6.779,0.512-10.183,0.621c-6.774,0.219-13.748-0.207-20.091-2.751c6.403,2.389,13.331,2.641,20.071,2.263
				c3.387-0.163,6.767-0.477,10.154-0.761c3.399-0.29,6.811-0.358,10.21-0.379c3.4-0.027,6.794-0.015,10.175-0.148
				c3.383-0.12,6.734-0.505,10.089-1.018c3.354-0.496,6.718-1.066,10.13-1.347c3.408-0.299,6.83-0.352,10.241-0.237
				c6.826,0.246,13.588,1.133,20.323,2.017c3.351,0.431,6.834,0.916,9.999,2.37c3.157,1.406,6.009,3.23,9.129,4.523
				c6.207,2.685,12.841,4.316,19.207,6.752C208.649,128.703,214.613,132.196,219.776,136.617z"/>
		</g>
		<g>
			<path style="fill:#24232D;" d="M219.315,138.111c-0.955,0.098-1.903,0.314-2.816,0.643c-0.907,0.316-1.793,0.827-2.694,1.25
				c-0.894,0.459-1.876,0.779-2.844,1.035c-0.974,0.255-1.957,0.442-2.94,0.629c1.924-0.538,3.869-1.072,5.56-2.111
				c0.871-0.501,1.681-1.07,2.634-1.498c0.938-0.428,1.931-0.745,2.955-0.938c0.271-0.052,0.534,0.126,0.586,0.397
				c0.052,0.271-0.126,0.534-0.397,0.586C219.345,138.107,219.328,138.11,219.315,138.111z"/>
		</g>
		<g>
			<path style="fill:#24232D;" d="M203.785,126.89c-2.609-0.007-5.219,0.374-7.754,1.056c-2.538,0.68-5.003,1.648-7.401,2.761
				c-4.799,2.231-9.257,5.153-13.653,8.119c4.303-3.101,8.668-6.163,13.438-8.564c2.379-1.197,4.842-2.258,7.412-3.034
				c2.566-0.779,5.242-1.258,7.944-1.337c0.276-0.009,0.507,0.208,0.516,0.484c0.009,0.276-0.208,0.507-0.484,0.516
				C203.797,126.89,203.789,126.89,203.785,126.89z"/>
		</g>
		<g>
			<path style="fill:#24232D;" d="M181.962,118.749c-3.493,0.55-6.98,1.104-10.297,2.233c-3.304,1.141-6.412,2.876-9.508,4.569
				c-6.173,3.442-12.064,7.402-17.608,11.808c5.438-4.535,11.245-8.642,17.359-12.242c3.068-1.77,6.134-3.585,9.507-4.842
				c3.371-1.236,6.901-1.88,10.38-2.513c0.272-0.049,0.532,0.131,0.581,0.402c0.049,0.272-0.131,0.532-0.402,0.582
				C181.97,118.747,181.965,118.748,181.962,118.749z"/>
		</g>
		<g>
			<path style="fill:#24232D;" d="M161.861,111.53c-7.363,1.876-14.352,5.081-20.96,8.88c-6.62,3.804-12.893,8.196-19.124,12.623
				c6.133-4.561,12.309-9.09,18.87-13.054c6.549-3.957,13.521-7.347,20.956-9.416c0.266-0.074,0.542,0.081,0.616,0.347
				c0.074,0.266-0.081,0.542-0.347,0.616C161.87,111.527,161.864,111.529,161.861,111.53z"/>
		</g>
		<g>
			<path style="fill:#24232D;" d="M136.193,109.517c-1.72,0.734-3.472,1.389-5.174,2.188c-1.702,0.795-3.383,1.639-5.042,2.528
				c-3.323,1.767-6.566,3.692-9.768,5.683c-3.202,1.992-6.363,4.055-9.529,6.111c-1.582,1.027-3.17,2.063-4.861,2.914
				c-1.686,0.849-3.494,1.509-5.377,1.705c1.878-0.238,3.661-0.935,5.319-1.816c1.664-0.884,3.221-1.949,4.78-3.011
				c3.119-2.126,6.235-4.259,9.398-6.325c3.163-2.065,6.373-4.068,9.676-5.92c1.649-0.93,3.323-1.818,5.022-2.658
				c1.697-0.844,3.47-1.553,5.205-2.337c0.251-0.114,0.547-0.002,0.661,0.25c0.114,0.251,0.002,0.547-0.25,0.661
				c-0.002,0.001-0.005,0.002-0.007,0.003L136.193,109.517z"/>
		</g>
		<g>
			<path style="fill:#24232D;" d="M105.016,112.5c-2.227,0.419-4.387,1.287-6.479,2.269c-2.095,0.989-4.131,2.12-6.173,3.249
				c-2.043,1.129-4.124,2.225-6.315,3.061c-2.185,0.835-4.5,1.401-6.839,1.402c2.338-0.088,4.609-0.736,6.742-1.643
				c2.14-0.908,4.157-2.071,6.154-3.27c2.001-1.198,4.006-2.405,6.096-3.481c2.09-1.068,4.264-2.039,6.616-2.568
				c0.27-0.061,0.537,0.109,0.598,0.378s-0.109,0.537-0.378,0.598C105.031,112.497,105.021,112.499,105.016,112.5z"/>
		</g>
		<g>
			<path style="fill:#24232D;" d="M220.13,135.716c-0.707-1.572-1.181-3.24-1.407-4.937c-0.227-1.699-0.193-3.377-0.396-5.017
				c-0.393-3.285-1.595-6.494-3.49-9.257c2.03,2.665,3.415,5.843,3.985,9.185c0.291,1.674,0.342,3.361,0.642,4.972
				c0.297,1.611,0.828,3.174,1.568,4.622c0.126,0.246,0.028,0.547-0.218,0.673c-0.246,0.126-0.547,0.028-0.673-0.218
				C220.137,135.732,220.133,135.723,220.13,135.716z"/>
		</g>
		<g>
			<path style="fill:#24232D;" d="M198.492,124.856c-2.45-1.42-4.414-3.573-5.85-5.934c-1.458-2.362-2.598-4.842-3.96-7.212
				c-1.329-2.394-2.624-4.801-4.104-7.097c-1.476-2.293-3.149-4.48-5.172-6.328c2.076,1.789,3.821,3.937,5.37,6.196
				c1.552,2.263,2.923,4.641,4.318,6.992c1.435,2.334,2.675,4.798,4.166,7.05c1.479,2.257,3.382,4.202,5.73,5.467
				c0.243,0.131,0.334,0.434,0.203,0.677c-0.131,0.243-0.434,0.334-0.677,0.203c-0.004-0.002-0.008-0.004-0.012-0.006
				L198.492,124.856z"/>
		</g>
		<g>
			<path style="fill:#24232D;" d="M170.947,112.885c-5.041-2.643-9.394-6.308-13.468-10.15c-2.043-1.924-4.03-3.899-6.04-5.849
				c-2.024-1.914-3.958-4.021-6.518-5.22c2.598,1.123,4.613,3.188,6.69,5.038c2.069,1.89,4.114,3.805,6.206,5.662
				c4.173,3.709,8.594,7.2,13.58,9.626c0.249,0.12,0.353,0.419,0.233,0.668c-0.12,0.249-0.419,0.353-0.668,0.233
				C170.958,112.891,170.951,112.887,170.947,112.885z"/>
		</g>
		<g>
			<path style="fill:#24232D;" d="M153.457,110.285c-7.092-2.086-13.883-5.154-20.115-9.085c-3.117-1.955-6.137-4.046-9.386-5.744
				c-3.237-1.686-6.748-2.991-10.43-3.222c3.686,0.146,7.25,1.376,10.543,2.999c3.305,1.634,6.387,3.665,9.534,5.541
				c6.282,3.767,13.076,6.649,20.125,8.549c0.267,0.072,0.425,0.346,0.353,0.613c-0.072,0.267-0.346,0.425-0.613,0.353
				C153.465,110.288,153.46,110.286,153.457,110.285z"/>
		</g>
		<g>
			<path style="fill:#24232D;" d="M127.223,110.283c-3.451,0.309-6.888-0.237-10.162-1.113c-3.286-0.878-6.45-2.078-9.627-3.196
				c-3.173-1.114-6.4-2.11-9.728-2.608c-3.312-0.498-6.767-0.457-9.984,0.607c3.19-1.144,6.669-1.275,10.018-0.855
				c3.365,0.418,6.642,1.342,9.854,2.382c3.211,1.041,6.395,2.158,9.652,2.942c3.247,0.784,6.596,1.222,9.878,0.845
				c0.274-0.032,0.522,0.165,0.554,0.44c0.031,0.274-0.165,0.522-0.44,0.554C127.233,110.282,127.226,110.282,127.223,110.283z"/>
		</g>
		<g>
			<path style="fill:#24232D;" d="M127.324,146.086c3.001-1.7,6.269-2.933,9.637-3.747c1.686-0.4,3.413-0.651,5.125-0.849
				c1.717-0.203,3.448-0.35,5.192-0.367c1.742-0.013,3.5,0.114,5.222,0.49c1.734,0.349,3.373,1.06,4.955,1.626
				c1.593,0.569,3.221,0.892,4.807,0.473c1.598-0.378,3.111-1.184,4.733-1.854c0.815-0.327,1.669-0.621,2.58-0.764
				c0.907-0.145,1.884-0.101,2.783,0.21c0.903,0.319,1.619,0.84,2.355,1.165c0.739,0.346,1.536,0.571,2.35,0.715
				c3.309,0.582,6.688-0.343,10.131-0.743c1.727-0.226,3.507-0.218,5.225-0.076c1.724,0.124,3.43,0.3,5.127,0.211
				c1.696-0.077,3.386-0.454,5.103-0.671c1.703-0.224,3.516-0.262,5.119,0.425c-1.642-0.581-3.403-0.447-5.08-0.163
				c-1.689,0.288-3.361,0.74-5.108,0.898c-1.746,0.146-3.485,0.005-5.197-0.069c-1.718-0.094-3.402-0.057-5.088,0.208
				c-3.346,0.499-6.808,1.445-10.381,0.878c-0.882-0.148-1.76-0.386-2.586-0.764c-0.839-0.372-1.545-0.867-2.279-1.11
				c-1.492-0.513-3.133-0.066-4.677,0.576c-1.564,0.624-3.127,1.451-4.897,1.858c-0.879,0.211-1.831,0.256-2.731,0.13
				c-0.904-0.119-1.764-0.381-2.589-0.676c-1.652-0.608-3.186-1.293-4.839-1.64c-1.646-0.363-3.339-0.531-5.041-0.568
				c-1.703-0.029-3.413,0.07-5.122,0.227c-1.714,0.151-3.408,0.358-5.088,0.7C133.7,143.46,130.427,144.587,127.324,146.086z"/>
		</g>
		<g>
			<path style="fill:#24232D;" d="M247.385,130.643c0.799-3.139,2.051-6.167,3.617-9.022c1.556-2.864,3.478-5.528,5.645-7.967
				c2.184-2.424,4.62-4.629,7.293-6.493l2.039-1.343l2.105-1.231l2.183-1.078c0.744-0.324,1.492-0.636,2.241-0.938
				c-0.704,0.401-1.41,0.793-2.119,1.174l-2.057,1.266l-2.005,1.335l-1.93,1.435c-2.521,1.977-4.882,4.151-7.006,6.541
				c-2.141,2.375-4.041,4.962-5.728,7.685C249.987,124.736,248.575,127.635,247.385,130.643z"/>
		</g>
		<g>
			<path style="fill:#24232D;" d="M267.977,134.343c2.578-2.624,5.883-4.527,9.394-5.7c3.518-1.151,7.307-1.591,10.941-1.016
				c-3.659,0.222-7.217,0.828-10.628,1.965C274.266,130.707,271.046,132.339,267.977,134.343z"/>
		</g>
		<g>
			<path style="fill:#24232D;" d="M228.134,121.687c-0.056-2.214-0.229-4.402-0.593-6.556c-0.375-2.15-0.881-4.272-1.582-6.332
				c-0.679-2.067-1.55-4.067-2.543-6.011l-0.781-1.442l-0.85-1.405l-0.888-1.39c-0.322-0.445-0.637-0.899-0.945-1.361
				c0.391,0.391,0.777,0.79,1.154,1.198l1.08,1.271l0.983,1.35l0.916,1.4c1.177,1.9,2.102,3.953,2.821,6.072
				c0.697,2.126,1.192,4.323,1.393,6.549C228.512,117.253,228.49,119.497,228.134,121.687z"/>
		</g>
		<g>
			<path style="fill:#24232D;" d="M275.846,144.29c4.513-0.941,9.16-1.218,13.791-1.128c4.631,0.169,9.246,0.772,13.788,1.697
				c9.084,1.916,17.876,4.848,26.419,8.472c4.249,1.867,8.395,4.033,12.279,6.616c3.867,2.597,7.534,5.502,10.818,8.798
				c3.304,3.27,6.308,6.838,8.915,10.668c2.566,3.856,4.843,7.901,6.608,12.159c-4.285-8.155-9.922-15.505-16.602-21.699
				c-6.679-6.211-14.438-11.129-22.82-14.711c-4.169-1.843-8.472-3.426-12.802-4.911c-4.326-1.492-8.713-2.791-13.152-3.874
				c-4.446-1.042-8.953-1.843-13.509-2.242C285.024,143.72,280.426,143.796,275.846,144.29z"/>
		</g>
		<g>
			<path style="fill:#24232D;" d="M373.456,206.39c1.008,1.646,1.706,3.455,2.221,5.302c0.515,1.85,0.852,3.746,1.027,5.649
				c0.183,1.903,0.201,3.813,0.106,5.711c-0.097,1.899-0.312,3.789-0.741,5.669c-0.403-1.886-0.623-3.763-0.819-5.628l-0.536-5.567
				c-0.174-1.847-0.346-3.688-0.562-5.533L373.456,206.39z"/>
		</g>
		<g>
			<path style="fill:#24232D;" d="M144.249,251.83c-2.212,6.34-3.824,12.834-4.884,19.399c-1.032,6.569-1.502,13.217-1.328,19.852
				c0.137,6.635,0.913,13.254,2.249,19.768c1.365,6.508,3.276,12.921,5.78,19.151c-3.209-5.899-5.658-12.245-7.301-18.8
				c-1.671-6.551-2.552-13.305-2.726-20.072c-0.137-6.768,0.431-13.555,1.797-20.176
				C139.172,264.327,141.322,257.874,144.249,251.83z"/>
		</g>
		<g>
			<path style="fill:#24232D;" d="M239.931,159.203c0.202-0.493,0.705-0.836,1.187-1.056c0.502-0.207,0.981-0.339,1.464-0.44
				c0.494-0.1,1.066-0.159,1.69-0.035c0.62,0.124,1.199,0.423,1.673,0.853c0.959,0.881,1.331,2.23,1.033,3.41
				c-0.301,1.176-1.247,2.066-2.289,2.198c1.175-1.71,0.795-3.298-0.096-4.136c-0.474-0.433-1.008-0.638-1.931-0.725
				C241.698,159.2,240.91,158.915,239.931,159.203z"/>
		</g>
		<g>
			<path style="fill:#24232D;" d="M263.191,184.485c-0.365,1.13-0.457,2.41,0.104,3.464c0.57,1.039,1.609,1.727,2.699,2.156
				c2.211,0.863,4.635,1.039,7.002,1.033c2.385-0.018,4.753-0.245,6.974-1.09c2.238-0.78,4.417-1.842,6.816-2.399
				c1.192-0.287,2.451-0.4,3.687-0.301c1.236,0.093,2.439,0.366,3.604,0.693c2.328,0.648,4.574,1.496,6.889,1.674
				c2.332,0.173,4.709-0.081,7.029-0.507c2.324-0.439,4.611-1.096,6.828-1.929c2.222-0.82,4.377-1.83,6.405-3.04
				c2.001-1.236,4.003-2.574,5.391-4.422c0.73-0.899,1.245-1.939,1.654-3.007c0.36-1.089,0.52-2.233,0.501-3.379
				c-0.056-1.147-0.325-2.273-0.729-3.353c-0.46-1.057-1.021-2.081-1.758-2.987c-1.435-1.838-3.384-3.262-5.424-4.433
				c-2.061-1.154-4.314-1.965-6.636-2.455c-4.664-0.98-9.533-0.683-14.222,0.257c4.642-1.16,9.539-1.57,14.316-0.738
				c2.377,0.447,4.7,1.236,6.844,2.382c1.08,0.558,2.096,1.237,3.064,1.973c0.503,0.342,0.934,0.789,1.404,1.18
				c0.426,0.44,0.871,0.868,1.252,1.352c0.796,0.943,1.42,2.023,1.935,3.153c0.452,1.159,0.748,2.383,0.817,3.635
				c0.031,1.251-0.137,2.506-0.524,3.699c-0.434,1.169-0.995,2.303-1.772,3.276c-0.358,0.51-0.811,0.938-1.22,1.403
				c-0.465,0.403-0.904,0.851-1.393,1.215c-0.959,0.755-1.964,1.447-3.007,2.07c-2.08,1.258-4.277,2.307-6.548,3.157
				c-2.275,0.838-4.616,1.495-7.004,1.932c-2.389,0.422-4.823,0.671-7.277,0.475c-2.487-0.213-4.774-1.104-7.048-1.749
				c-2.272-0.667-4.602-1.017-6.893-0.475c-2.294,0.483-4.482,1.492-6.779,2.247c-2.297,0.823-4.781,1.023-7.178,0.982
				c-2.404-0.069-4.857-0.32-7.102-1.277c-1.104-0.475-2.171-1.224-2.729-2.331C262.622,186.889,262.781,185.596,263.191,184.485z"
				/>
		</g>
		<g>
			<path style="fill:#24232D;" d="M363.684,234.55c-0.522,0.755-1.297,1.338-2.12,1.771c-0.824,0.443-1.699,0.755-2.542,1.084
				c-1.68,0.614-3.371,1.307-4.092,2.604c-0.754,1.265-0.505,3.045-0.858,5.048c-0.168,0.995-0.742,2.133-1.522,2.843
				c-0.748,0.731-1.541,1.237-2.16,1.768c-0.64,0.528-1.041,1.016-1.182,1.646c-0.081,0.344-0.116,0.784-0.205,1.297
				c-0.087,0.519-0.283,1.104-0.572,1.578c-0.582,0.977-1.439,1.659-2.313,2.152c-0.872,0.501-1.834,0.812-2.742,1.021
				c-1.804,0.443-3.575,0.635-5.007,1.499c-0.701,0.419-1.306,1.052-1.706,1.801c-0.396,0.742-0.561,1.665-0.215,2.523
				c-0.542-0.753-0.605-1.82-0.298-2.733c0.297-0.925,0.884-1.746,1.647-2.389c1.577-1.239,3.499-1.651,5.152-2.202
				c0.835-0.277,1.59-0.597,2.276-1.027c0.676-0.427,1.243-0.966,1.557-1.575c0.154-0.314,0.263-0.598,0.319-0.974
				c0.063-0.38,0.088-0.848,0.199-1.39c0.107-0.553,0.378-1.142,0.707-1.598c0.334-0.467,0.721-0.841,1.102-1.163
				c0.773-0.629,1.522-1.098,2.078-1.632c0.571-0.519,0.834-1.079,1.04-1.852c0.191-0.765,0.253-1.651,0.383-2.595
				c0.132-0.932,0.36-2,1.013-2.889c0.617-0.893,1.519-1.514,2.418-1.888c0.905-0.381,1.813-0.602,2.699-0.809
				C360.499,236.067,362.288,235.768,363.684,234.55z"/>
		</g>
		<g>
			<path style="fill:#24232D;" d="M331.996,256.767c-2.52-0.189-4.225,1.683-6.885,2.283c-0.66,0.149-1.41,0.195-2.104,0.071
				c-0.689-0.116-1.317-0.322-1.9-0.518c-1.161-0.415-2.155-0.779-3.057-0.617c-0.951,0.103-1.97,0.644-3.111,1.156
				c-1.178,0.502-2.433,0.89-3.704,1.043c-2.534,0.338-5.152-0.054-7.334-1.208c2.433,0.353,4.809,0.244,7.04-0.325
				c1.11-0.313,2.18-0.679,3.191-1.223c1.043-0.511,2.182-1.199,3.658-1.425c0.741-0.096,1.516-0.002,2.174,0.181
				c0.67,0.181,1.26,0.419,1.814,0.653c0.55,0.234,1.067,0.443,1.569,0.569c0.497,0.116,0.978,0.15,1.514,0.109
				c1.064-0.103,2.212-0.506,3.414-0.818C329.464,256.403,330.859,256.21,331.996,256.767z"/>
		</g>
		<g>
			<path style="fill:#24232D;" d="M282.783,261.287c2.545,0.453,5.087,0.598,7.631,0.647c2.546,0.039,5.091-0.053,7.658-0.109
				l0.088-0.002l0.132,0.029c1.967,0.431,3.728,1.406,5.302,2.469c1.592,1.054,2.996,2.278,4.462,3.272l-0.104-0.06
				c1.302,0.639,2.695,1.21,4.049,1.318c0.682,0.053,1.29-0.01,1.861-0.263c0.692-0.313,1.383-0.654,2.078-0.998
				c1.401-0.671,2.822-1.385,4.362-1.849c1.513-0.466,3.267-0.645,4.701,0.055c-1.55-0.35-3.043,0.108-4.404,0.728
				c-1.363,0.658-2.663,1.467-3.985,2.291c-0.668,0.403-1.34,0.808-2.036,1.195c-0.813,0.466-1.802,0.627-2.664,0.586
				c-1.761-0.075-3.347-0.614-4.827-1.33l-0.049-0.024l-0.055-0.037c-1.604-1.068-3.041-2.224-4.503-3.257
				c-1.464-1.026-2.994-1.869-4.627-2.338l0.22,0.027c-2.568-0.053-5.165-0.163-7.745-0.489
				C287.753,262.831,285.173,262.284,282.783,261.287z"/>
		</g>
		<g>
			<path style="fill:#24232D;" d="M351.536,259.517c-0.525,1.035-1.073,2.067-1.814,3.002c-0.728,0.932-1.701,1.766-2.899,2.202
				c-2.39,0.806-4.891,0.299-6.578,1.333c-0.859,0.5-1.616,1.341-2.621,2.103c-1.027,0.792-2.286,1.301-3.517,1.544
				c-1.242,0.254-2.49,0.269-3.71,0.183c-1.343-0.095-2.504-0.555-3.554-0.834c-1.05-0.31-2.005-0.44-2.842-0.163
				c-0.853,0.259-1.644,0.934-2.433,1.713c-0.794,0.776-1.59,1.674-2.586,2.461c-0.506,0.388-1.07,0.739-1.692,1.002
				c-0.631,0.247-1.284,0.373-1.913,0.428c-2.532,0.181-4.672-0.452-6.767,0.398c-1.077,0.334-2.205,0.834-3.46,0.842
				c-0.613-0.002-1.226-0.113-1.778-0.37c-0.55-0.258-1.013-0.701-1.242-1.237c0.667,0.996,1.93,1.203,2.984,1.054
				c1.075-0.157,2.07-0.714,3.14-1.204c1.063-0.519,2.367-0.803,3.552-0.849c1.195-0.073,2.344-0.016,3.385-0.183
				c1.055-0.147,1.886-0.571,2.689-1.243c0.796-0.681,1.515-1.548,2.336-2.425c0.819-0.858,1.812-1.783,3.182-2.245
				c1.384-0.473,2.835-0.232,3.984,0.098c1.173,0.34,2.194,0.741,3.173,0.813c1.084,0.099,2.169,0.072,3.205-0.094
				c1.043-0.167,1.997-0.513,2.834-1.101c0.863-0.597,1.726-1.46,2.918-2.061c1.223-0.605,2.536-0.69,3.699-0.688
				c1.174,0.001,2.292,0.049,3.324-0.208c1.032-0.233,1.965-0.859,2.778-1.638C350.127,261.366,350.835,260.441,351.536,259.517z"/>
		</g>
		<g>
			<path style="fill:#24232D;" d="M282.675,267.574c1.019,0.63,1.693,1.743,2.025,2.915c0.314,1.195,0.233,2.465-0.055,3.651
				c-0.601,2.395-1.987,4.441-3.447,6.319c-1.508,1.855-3.15,3.549-4.723,5.281c-1.56,1.741-2.988,3.59-4.035,5.717
				c0.33-1.138,0.843-2.22,1.414-3.27c0.616-1.022,1.308-1.995,2.031-2.94c1.46-1.878,3.084-3.592,4.533-5.412
				c1.439-1.81,2.771-3.745,3.491-5.903c0.352-1.074,0.508-2.222,0.316-3.34C284.064,269.47,283.546,268.379,282.675,267.574z"/>
		</g>
		<g>
			<path style="fill:#24232D;" d="M298.221,278.44c-1.611,0.317-2.852,1.39-3.787,2.606c-0.934,1.238-1.655,2.679-2.479,4.074
				c-1.644,2.78-3.353,5.522-5.326,8.109c1.29-2.987,2.844-5.82,4.463-8.614c0.835-1.37,1.603-2.823,2.747-4.07
				C294.944,279.304,296.564,278.353,298.221,278.44z"/>
		</g>
		<g>
			<path style="fill:#24232D;" d="M296.084,276.553c-1.286-0.058-2.44,0.444-3.415,1.118c-0.968,0.697-1.774,1.616-2.537,2.594
				c-0.774,0.976-1.556,1.986-2.385,2.939c-0.818,0.967-1.688,1.894-2.608,2.783c1.223-2.253,2.665-4.316,4.211-6.343
				c0.803-0.996,1.723-1.987,2.911-2.633C293.417,276.361,294.864,276.099,296.084,276.553z"/>
		</g>
		<g>
			<path style="fill:#24232D;" d="M287.592,268.057c0.324,0.818,0.446,1.715,0.443,2.615c-0.025,0.904-0.229,1.798-0.518,2.642
				c-0.599,1.694-1.377,3.22-2.042,4.829c-1.407,3.17-2.798,6.396-4.703,9.348c1.19-3.293,2.394-6.541,3.788-9.75
				c0.359-0.796,0.718-1.594,1.104-2.38c0.395-0.785,0.78-1.551,1.129-2.327C287.485,271.493,287.85,269.808,287.592,268.057z"/>
		</g>
		<g>
			<path style="fill:#24232D;" d="M279.492,266.017c1.167,1.004,1.692,2.675,1.6,4.245c-0.072,1.593-0.665,3.081-1.34,4.442
				c-1.385,2.726-3.36,5.183-5.841,6.931c1.934-2.325,3.632-4.742,4.948-7.38c0.671-1.31,1.245-2.654,1.459-4.066
				C280.51,268.795,280.349,267.278,279.492,266.017z"/>
		</g>
		<g>
			<path style="fill:#24232D;" d="M315.388,281.484c0.971-0.392,2.117-0.212,3.081,0.237c0.973,0.47,1.776,1.261,2.375,2.136
				c1.193,1.787,1.885,3.716,2.687,5.614c1.492,3.837,2.672,7.809,3.291,11.882c-1.386-3.875-2.717-7.724-4.221-11.516
				c-0.365-0.952-0.748-1.896-1.138-2.839c-0.377-0.949-0.776-1.867-1.271-2.718c-0.504-0.844-1.132-1.607-1.96-2.133
				C317.419,281.603,316.41,281.317,315.388,281.484z"/>
		</g>
		<g>
			<path style="fill:#24232D;" d="M327.604,275.497c1.59,1.357,2.792,3.114,3.697,4.989c0.879,1.888,1.477,3.931,1.518,6.021
				c-0.816-1.917-1.547-3.778-2.421-5.593C329.549,279.087,328.571,277.342,327.604,275.497z"/>
		</g>
		<g>
			<path style="fill:#24232D;" d="M330.401,274.292c1.321,1.502,2.292,3.247,3.085,5.058c0.765,1.823,1.356,3.731,1.529,5.724
				c-0.933-1.766-1.671-3.551-2.448-5.331C331.819,277.951,331.036,276.185,330.401,274.292z"/>
		</g>
		<g>
			<path style="fill:#24232D;" d="M332.998,273.974c1.304,0.964,2.252,2.324,2.926,3.782c0.648,1.47,1.038,3.081,0.894,4.697
				c-0.64-1.481-1.166-2.897-1.806-4.287C334.398,276.766,333.685,275.433,332.998,273.974z"/>
		</g>
		<g>
			<path style="fill:#24232D;" d="M338.351,272.891c-0.376,0.645-0.599,1.286-0.729,1.943c-0.121,0.656-0.166,1.323-0.12,1.986
				c0.06,1.342,0.445,2.701,0.562,4.191c-0.853-1.204-1.454-2.592-1.56-4.135c-0.034-0.771,0.069-1.558,0.376-2.275
				C337.175,273.89,337.681,273.237,338.351,272.891z"/>
		</g>
		<g>
			<path style="fill:#24232D;" d="M341.612,270.583c-0.221,2.235-0.378,4.388-0.287,6.557c0.064,2.17,0.371,4.306,0.746,6.521
				c-1.128-1.955-1.653-4.227-1.745-6.486C340.262,274.915,340.627,272.613,341.612,270.583z"/>
		</g>
		<g>
			<path style="fill:#24232D;" d="M344.641,269.518c-0.506,3.102-0.235,6.167,0.522,9.126c0.739,2.97,1.981,5.806,3.104,8.742
				c-1.816-2.556-3.274-5.405-4.073-8.497c-0.382-1.546-0.598-3.144-0.544-4.742C343.687,272.553,344.008,270.959,344.641,269.518z"
				/>
		</g>
		<g>
			<path style="fill:#24232D;" d="M324.483,277.544c0.993,0.925,1.941,1.898,2.755,3.002c0.83,1.087,1.494,2.343,1.971,3.625
				c0.473,1.286,0.838,2.566,1.27,3.821c0.439,1.255,0.898,2.512,1.385,3.78c-0.827-1.078-1.536-2.25-2.108-3.487
				c-0.593-1.233-1.009-2.531-1.482-3.762c-0.445-1.246-1.01-2.402-1.683-3.547L324.483,277.544z"/>
		</g>
		<g>
			<path style="fill:#24232D;" d="M322.178,279.453c0.887,0.767,1.589,1.743,2.149,2.776c0.569,1.034,0.984,2.136,1.345,3.241
				c0.693,2.228,1.135,4.455,1.61,6.733c-1.221-2.008-1.862-4.272-2.563-6.431C324.04,283.591,323.314,281.491,322.178,279.453z"/>
		</g>
		<g>
			<path style="fill:#24232D;" d="M313.324,281.67c1.19,0.581,2.15,1.581,2.901,2.682c0.754,1.113,1.266,2.371,1.629,3.648
				c0.692,2.579,0.769,5.226,0.53,7.826c-0.549-2.564-0.811-5.129-1.494-7.561c-0.327-1.218-0.762-2.396-1.333-3.515
				C314.956,283.653,314.281,282.564,313.324,281.67z"/>
		</g>
		<g>
			<path style="fill:#24232D;" d="M310.401,281.732c0.93,1.391,1.376,3.09,1.556,4.751c0.193,1.674,0.193,3.323,0.225,4.977
				c0.006,3.301-0.164,6.679-1.125,9.877c0.176-3.318,0.157-6.574,0.125-9.872c-0.012-1.647,0.029-3.305-0.001-4.927
				C311.131,284.917,310.978,283.296,310.401,281.732z"/>
		</g>
		<g>
			<path style="fill:#24232D;" d="M307.547,281.557c0.516,2.13,0.622,4.313,0.551,6.48c-0.102,2.166-0.384,4.333-1.072,6.414
				c-0.098-2.187,0.001-4.316,0.073-6.455C307.203,285.859,307.275,283.729,307.547,281.557z"/>
		</g>
		<g>
			<path style="fill:#24232D;" d="M305.617,281.376c0.114,1.298-0.134,2.543-0.504,3.741c-0.399,1.189-0.928,2.344-1.781,3.328
				c0.124-1.295,0.467-2.464,0.83-3.636C304.556,283.648,304.962,282.498,305.617,281.376z"/>
		</g>
		<g>
			<path style="fill:#24232D;" d="M302.887,280.159c0.096,1.515-0.18,2.984-0.589,4.405c-0.438,1.412-1.016,2.791-1.932,4.002
				c0.179-1.506,0.572-2.895,0.975-4.289C301.774,282.891,302.21,281.515,302.887,280.159z"/>
		</g>
		<g>
			<path style="fill:#24232D;" d="M300.335,278.555c-0.42,1.533-1.098,2.901-1.839,4.235c-0.768,1.319-1.6,2.599-2.708,3.741
				c0.409-1.517,1.092-2.896,1.839-4.236C298.402,280.971,299.24,279.68,300.335,278.555z"/>
		</g>
		<g>
			<path style="fill:#24232D;" d="M348.434,268.254c1.469,0.776,2.641,2.013,3.54,3.397c0.876,1.398,1.502,2.983,1.582,4.644
				c-0.84-1.424-1.572-2.791-2.425-4.107C350.3,270.857,349.371,269.616,348.434,268.254z"/>
		</g>
		<g>
			<path style="fill:#24232D;" d="M349.477,265.624c1.188,0.584,2.113,1.541,2.846,2.605c0.709,1.08,1.244,2.3,1.332,3.621
				c-0.826-1.027-1.467-2.053-2.162-3.065C350.823,267.759,350.116,266.776,349.477,265.624z"/>
		</g>
		<g>
			<path style="fill:#24232D;" d="M350.668,263.428c1.29-0.082,2.554,0.626,3.392,1.614c0.831,0.993,1.313,2.361,1.008,3.618
				c-0.498-1.164-1.046-2.118-1.773-2.975C352.577,264.819,351.73,264.116,350.668,263.428z"/>
		</g>
		<g>
			<path style="fill:#24232D;" d="M351.228,260.244c0.767-0.334,1.706-0.216,2.484,0.137c0.801,0.348,1.45,0.944,1.993,1.564
				c0.532,0.64,0.973,1.302,1.388,1.984c0.417,0.682,0.806,1.385,1.114,2.148c-0.643-0.514-1.205-1.087-1.74-1.681
				c-0.543-0.589-1.023-1.228-1.522-1.801C353.97,261.44,352.866,260.441,351.228,260.244z"/>
		</g>
		<g>
			<path style="fill:#24232D;" d="M353.154,258.703c2.021-0.598,4.306-0.136,6.143,0.947c1.833,1.09,3.336,2.873,3.779,4.935
				c-1.174-1.716-2.601-3.08-4.289-4.075C357.106,259.504,355.223,258.907,353.154,258.703z"/>
		</g>
		<g>
			<path style="fill:#24232D;" d="M357.749,256.491c1.751-0.04,3.48,0.653,4.893,1.699c1.401,1.063,2.548,2.531,2.997,4.224
				c-1.147-1.303-2.285-2.452-3.597-3.425C360.742,257.999,359.321,257.227,357.749,256.491z"/>
		</g>
		<g>
			<path style="fill:#24232D;" d="M360.52,250.121c0.108,1.215,0.76,2.203,1.54,3.007c0.801,0.805,1.767,1.466,2.709,2.244
				c1.857,1.571,3.457,3.482,4.473,5.688c-1.669-1.752-3.305-3.423-5.114-4.921c-0.884-0.758-1.886-1.492-2.656-2.502
				C360.706,252.656,360.197,251.325,360.52,250.121z"/>
		</g>
		<g>
			<path style="fill:#24232D;" d="M362.577,245.501c-0.005,1.114,0.411,2.08,0.984,2.929c0.584,0.846,1.31,1.602,2.102,2.29
				c0.793,0.71,1.651,1.403,2.399,2.239c0.747,0.82,1.406,1.815,1.604,2.916c-1.178-1.876-2.996-2.939-4.663-4.405
				c-0.833-0.75-1.603-1.614-2.114-2.651C362.37,247.807,362.148,246.544,362.577,245.501z"/>
		</g>
		<g>
			<path style="fill:#24232D;" d="M364.681,243.813c0.934,1.013,1.67,2.064,2.443,3.107c0.748,1.06,1.514,2.09,2.179,3.297
				c-1.225-0.644-2.19-1.627-2.99-2.712C365.537,246.402,364.908,245.177,364.681,243.813z"/>
		</g>
		<g>
			<path style="fill:#24232D;" d="M367.217,242.243c0.852,0.365,1.466,0.978,1.987,1.65c0.496,0.691,0.907,1.454,1.011,2.376
				c-0.777-0.503-1.309-1.127-1.813-1.78C367.923,243.818,367.478,243.13,367.217,242.243z"/>
		</g>
		<g>
			<path style="fill:#24232D;" d="M277.345,264.027c0.94,1.682,1.103,3.769,0.65,5.672c-0.233,0.956-0.653,1.869-1.133,2.67
				c-0.467,0.817-0.948,1.577-1.305,2.468c-0.058-0.969,0.265-1.932,0.599-2.802c0.341-0.883,0.67-1.7,0.867-2.573
				C277.457,267.723,277.517,265.928,277.345,264.027z"/>
		</g>
		<g>
			<path style="fill:#24232D;" d="M274.94,262.546c0.637,0.645,0.984,1.584,1.015,2.529c0.042,0.951-0.242,1.928-0.811,2.732
				c-0.585,0.788-1.337,1.328-2.049,1.818c-0.713,0.5-1.407,0.954-1.988,1.643c0.209-0.894,0.863-1.634,1.49-2.243
				c0.631-0.624,1.289-1.164,1.737-1.803c0.459-0.619,0.732-1.38,0.845-2.178C275.283,264.242,275.215,263.401,274.94,262.546z"/>
		</g>
		<g>
			<path style="fill:#24232D;" d="M371.924,236.335c-0.203,1.778-0.274,3.451-0.078,5.127c0.175,1.679,0.608,3.295,1.191,4.988
				c-1.271-1.284-1.977-3.075-2.184-4.878C370.665,239.766,370.964,237.866,371.924,236.335z"/>
		</g>
		<g>
			<path style="fill:#24232D;" d="M375.602,233.498c-0.568,1.69-0.68,3.366-0.257,4.93c0.422,1.564,1.36,2.955,2.699,4.132
				c-1.753-0.476-3.173-2.05-3.664-3.872C373.892,236.864,374.328,234.792,375.602,233.498z"/>
		</g>
		<g>
			<path style="fill:#24232D;" d="M377.499,232.067c0.139,0.848,0.338,1.44,0.632,2.041c0.294,0.601,0.635,1.122,1.216,1.757
				c-0.438,0.069-0.885-0.074-1.25-0.321c-0.375-0.243-0.662-0.602-0.865-0.999c-0.186-0.404-0.291-0.852-0.251-1.297
				C377.013,232.809,377.175,232.37,377.499,232.067z"/>
		</g>
		<g>
			<path style="fill:#24232D;" d="M198.814,310.633c0.112,3.828,0.736,7.617,1.549,11.348c0.832,3.729,1.877,7.412,3.183,10.995
				c1.301,3.574,3.259,6.868,5.146,10.194c1.894,3.324,3.798,6.64,5.783,9.903c3.984,6.51,8.268,12.864,13.423,18.472
				c5.103,5.665,11.3,10.175,17.557,14.556c3.125,2.208,6.233,4.432,9.438,6.493c3.197,2.073,6.536,3.908,9.98,5.525
				c6.89,3.242,14.197,5.561,21.648,7.188c7.453,1.636,15.042,2.66,22.659,3.295c7.617,0.673,15.264,1.018,22.911,1.303
				c-7.651-0.122-15.306-0.304-22.95-0.815c-7.64-0.535-15.265-1.477-22.783-3.031c-7.523-1.518-14.892-3.884-21.872-7.116
				c-3.486-1.619-6.878-3.467-10.11-5.544c-3.24-2.066-6.369-4.283-9.499-6.482c-6.239-4.405-12.502-8.998-17.651-14.758
				c-5.181-5.702-9.514-12.096-13.409-18.691c-1.954-3.298-3.821-6.642-5.676-9.989c-1.84-3.345-3.786-6.686-5.055-10.339
				c-1.238-3.635-2.207-7.352-2.962-11.108C199.389,318.273,198.845,314.462,198.814,310.633z"/>
		</g>
		<g>
			<path style="fill:#24232D;" d="M353.596,240.058c-0.615,0.971-0.769,2.085-1.025,3.204c-0.143,0.557-0.32,1.126-0.632,1.657
				c-0.309,0.532-0.774,0.997-1.304,1.314c-1.061,0.653-2.261,0.819-3.282,1.15c-1.015,0.316-2.009,0.821-2.376,1.66
				c-0.412,0.822-0.125,1.945-0.179,3.172c-0.059,1.281-0.795,2.505-1.874,3.146c-0.524,0.336-1.179,0.51-1.738,0.57
				c-0.559,0.065-1.031,0.207-1.489,0.497c-0.928,0.551-1.587,1.518-2.255,2.427c0.48-1.023,1.034-2.057,1.975-2.829
				c0.467-0.375,1.094-0.608,1.653-0.716c0.56-0.111,1.012-0.282,1.428-0.59c0.811-0.608,1.359-1.549,1.354-2.549
				c0.013-0.514-0.05-1.066-0.077-1.66c-0.024-0.589,0.005-1.262,0.296-1.89c0.287-0.626,0.799-1.102,1.331-1.431
				c0.538-0.334,1.109-0.551,1.681-0.712c1.146-0.299,2.241-0.451,3.176-0.912c0.951-0.436,1.494-1.384,1.846-2.446
				C352.504,242.09,352.791,240.897,353.596,240.058z"/>
		</g>
		<g>
			<path style="fill:#24232D;" d="M286.892,261.861c1.49,0.564,3.074,0.734,4.635,0.64c1.565-0.056,3.112-0.338,4.673-0.623
				c1.558-0.294,3.154-0.538,4.789-0.565c1.635-0.015,3.311,0.263,4.836,0.99c1.572,0.737,2.63,2.075,3.8,3.018
				c0.572,0.477,1.231,0.919,1.862,1.115c0.637,0.147,1.5,0.135,2.245,0.146c1.538,0.095,2.868-0.918,4.528-1.132
				c1.612-0.238,3.199-0.147,4.787-0.149c-1.573,0.226-3.182,0.24-4.69,0.63c-1.494,0.264-2.857,1.401-4.587,1.42
				c-0.834,0.034-1.578,0.113-2.497-0.064c-0.897-0.254-1.581-0.722-2.244-1.228c-1.298-1.027-2.289-2.254-3.643-2.856
				c-1.339-0.659-2.871-0.928-4.4-0.944c-1.541-0.031-3.097,0.193-4.671,0.377c-1.572,0.193-3.173,0.398-4.785,0.353
				C289.929,262.921,288.293,262.635,286.892,261.861z"/>
		</g>
		<g>
			<path style="fill:#24232D;" d="M315.375,272.765c1.04,0.037,1.956-0.552,2.638-1.259c0.697-0.72,1.155-1.624,1.665-2.513
				c0.507-0.884,1.114-1.789,1.968-2.456c0.843-0.664,1.851-1.126,2.921-1.312c1.074-0.209,2.193-0.06,3.194,0.203
				c1.012,0.253,1.973,0.576,2.93,0.719c1.883,0.307,3.867-0.373,5.16-1.755c0.344-0.347,0.693-0.75,1.145-1.105
				c0.455-0.361,1.012-0.6,1.568-0.732c1.134-0.241,2.216-0.056,3.223,0.123c1.014,0.186,1.992,0.39,2.943,0.378
				c0.944-0.029,1.814-0.328,2.513-0.978c0.703-0.643,1.251-1.501,1.871-2.328c0.606-0.84,1.383-1.616,2.27-2.172
				c1.797-1.106,3.823-1.596,5.814-2.01c-1.933,0.629-3.927,1.228-5.539,2.416c-0.815,0.577-1.48,1.294-2.031,2.133
				c-0.568,0.827-1.081,1.738-1.854,2.518c-0.757,0.804-1.922,1.266-3.016,1.285c-1.095,0.028-2.132-0.181-3.125-0.345
				c-0.992-0.167-1.978-0.295-2.854-0.089c-0.43,0.114-0.832,0.288-1.175,0.567c-0.35,0.28-0.669,0.656-1.039,1.037
				c-1.526,1.586-3.862,2.34-6.014,1.953c-2.11-0.373-3.951-1.347-5.866-1.063c-0.949,0.121-1.872,0.492-2.658,1.056
				c-0.792,0.56-1.383,1.36-1.935,2.212c-0.566,0.837-1.11,1.745-1.896,2.446C317.439,272.392,316.41,272.916,315.375,272.765z"/>
		</g>
		<g>
			<path style="fill:#24232D;" d="M312.38,256.086c1.137-0.896,2.55-1.499,4.03-1.695c1.477-0.212,3.018-0.069,4.443,0.436
				c0.7,0.247,1.415,0.631,1.989,0.968c0.299,0.17,0.602,0.369,0.899,0.518c0.297,0.126,0.615,0.227,0.946,0.309
				c1.344,0.3,2.765,0.392,4.205,0.249c-1.353,0.522-2.859,0.713-4.345,0.519c-0.375-0.046-0.755-0.125-1.127-0.261
				c-0.355-0.148-0.667-0.325-1.003-0.488c-0.68-0.36-1.239-0.651-1.898-0.872c-1.278-0.472-2.659-0.645-4.038-0.603
				C315.101,255.223,313.716,255.525,312.38,256.086z"/>
		</g>
		<g>
			<path style="fill:#24232D;" d="M181.305,345.232c0.247,4.718,1.382,9.266,3.15,13.534c1.782,4.263,4.142,8.27,6.924,11.96
				c2.76,3.719,5.924,7.143,9.204,10.473c3.29,3.323,6.734,6.529,10.055,9.886c-3.857-2.721-7.593-5.602-11.129-8.754
				c-3.542-3.14-6.852-6.589-9.73-10.408c-2.846-3.84-5.231-8.065-6.778-12.608C181.443,354.795,180.718,349.932,181.305,345.232z"
				/>
		</g>
		<g>
			<g>
				<path style="fill:#24232D;" d="M361.121,306.909c1.123,0.916,1.996,2.007,2.809,3.139c0.788,1.15,1.515,2.343,1.991,3.713
					c-1.125-0.914-1.997-2.006-2.809-3.139C362.325,309.47,361.598,308.277,361.121,306.909z"/>
			</g>
			<g>
				<path style="fill:#24232D;" d="M372.015,285.913c0.714,0.37,1.198,0.803,1.695,1.25c0.478,0.468,0.939,0.925,1.349,1.617
					c-0.812-0.006-1.488-0.393-2.035-0.89C372.498,287.374,372.071,286.722,372.015,285.913z"/>
			</g>
			<g>
				<path style="fill:#24232D;" d="M385.529,276.301c0.633-0.145,1.169,0.059,1.619,0.357c0.433,0.322,0.805,0.759,0.88,1.405
					c-0.64-0.089-1.051-0.32-1.456-0.588C386.185,277.182,385.829,276.872,385.529,276.301z"/>
			</g>
			<g>
				<path style="fill:#24232D;" d="M285.375,312.463c0.431,0.525,0.454,1.182,0.302,1.758c-0.176,0.569-0.545,1.114-1.191,1.327
					c-0.006-0.671,0.105-1.125,0.231-1.604C284.867,313.472,285.015,313.027,285.375,312.463z"/>
			</g>
			<g>
				<path style="fill:#24232D;" d="M267.5,296.333c0.029,0.728-0.205,1.301-0.501,1.837c-0.323,0.521-0.71,1.004-1.363,1.331
					c-0.031-0.729,0.203-1.302,0.501-1.837C266.462,297.145,266.849,296.661,267.5,296.333z"/>
			</g>
			<g>
				<path style="fill:#24232D;" d="M260.51,279.124c-0.327,0.584-0.689,0.915-1.077,1.244c-0.406,0.307-0.81,0.584-1.454,0.77
					c0.019-0.677,0.386-1.181,0.832-1.552C259.274,279.237,259.847,278.992,260.51,279.124z"/>
			</g>
			<g>
				<path style="fill:#24232D;" d="M325.146,314.44c0.328,0.83,0.408,1.599,0.466,2.38c0.028,0.783,0.031,1.556-0.208,2.417
					c-0.541-0.717-0.732-1.542-0.79-2.363C324.587,316.051,324.688,315.21,325.146,314.44z"/>
			</g>
			<g>
				<path style="fill:#24232D;" d="M348.141,323.218c0.493,0.317,0.69,0.712,0.818,1.127c0.098,0.422,0.123,0.863-0.148,1.384
					c-0.495-0.316-0.692-0.712-0.818-1.127C347.897,324.179,347.871,323.738,348.141,323.218z"/>
			</g>
			<g>
				<path style="fill:#24232D;" d="M389.18,255.424c0.385-0.343,0.727-0.384,1.058-0.353c0.327,0.061,0.644,0.196,0.917,0.636
					c-0.385,0.345-0.727,0.386-1.058,0.353C389.77,255.996,389.453,255.861,389.18,255.424z"/>
			</g>
			<g>
				<path style="fill:#24232D;" d="M392.818,292.744c0.691,0.052,1.197,0.405,1.608,0.829c0.388,0.444,0.696,0.979,0.686,1.674
					c-0.645-0.247-1.043-0.605-1.422-0.998C393.332,293.834,393.009,293.406,392.818,292.744z"/>
			</g>
			<g>
				<path style="fill:#24232D;" d="M302.285,308.515c0.336,0.284,0.374,0.493,0.344,0.685c-0.061,0.185-0.194,0.351-0.626,0.443
					c-0.338-0.284-0.377-0.494-0.344-0.685C301.722,308.774,301.855,308.607,302.285,308.515z"/>
			</g>
		</g>
		<g>
			<g>
				<path style="fill:#24232D;" d="M283.576,204.666c-0.76,0-0.761,1.181,0,1.181C284.336,205.847,284.337,204.666,283.576,204.666z
					"/>
			</g>
			<g>
				<path style="fill:#24232D;" d="M312.737,215.747c-0.76,0-0.761,1.181,0,1.181C313.497,216.928,313.498,215.747,312.737,215.747z
					"/>
			</g>
			<g>
				<path style="fill:#24232D;" d="M338.8,229.333c-0.76,0-0.761,1.181,0,1.181C339.56,230.514,339.561,229.333,338.8,229.333z"/>
			</g>
			<g>
				<path style="fill:#24232D;" d="M347.95,191.589c-1.52,0-1.522,2.362,0,2.362C349.469,193.951,349.472,191.589,347.95,191.589z"
					/>
			</g>
			<g>
				<path style="fill:#24232D;" d="M352.109,209.057c-1.52,0-1.522,2.362,0,2.362C353.628,211.418,353.631,209.057,352.109,209.057z
					"/>
			</g>
			<g>
				<path style="fill:#24232D;" d="M329.65,191.589c-1.52,0-1.522,2.362,0,2.362C331.17,193.951,331.173,191.589,329.65,191.589z"/>
			</g>
			<g>
				<path style="fill:#24232D;" d="M246.749,187.707c-1.52,0-1.522,2.362,0,2.362C248.269,190.069,248.271,187.707,246.749,187.707z
					"/>
			</g>
			<g>
				<path style="fill:#24232D;" d="M218.745,183.826c-1.52,0-1.522,2.362,0,2.362C220.265,186.187,220.268,183.826,218.745,183.826z
					"/>
			</g>
			<g>
				<path style="fill:#24232D;" d="M211.259,192.975c-1.52,0-1.522,2.362,0,2.362C212.779,195.337,212.782,192.975,211.259,192.975z
					"/>
			</g>
			<g>
				<path style="fill:#24232D;" d="M280.02,157.486c-1.52,0-1.522,2.362,0,2.362C281.54,159.848,281.543,157.486,280.02,157.486z"/>
			</g>
			<g>
				<path style="fill:#24232D;" d="M345.177,174.953c-1.52,0-1.522,2.362,0,2.362C346.697,177.315,346.699,174.953,345.177,174.953z
					"/>
			</g>
			<g>
				<path style="fill:#24232D;" d="M362.922,217.929c-1.52,0-1.522,2.362,0,2.362C364.441,220.291,364.444,217.929,362.922,217.929z
					"/>
			</g>
			<g>
				<path style="fill:#24232D;" d="M293.329,198.521c-1.52,0-1.522,2.362,0,2.362C294.849,200.882,294.851,198.521,293.329,198.521z
					"/>
			</g>
			<g>
				<path style="fill:#24232D;" d="M267.266,201.293c-1.52,0-1.522,2.362,0,2.362C268.786,203.655,268.789,201.293,267.266,201.293z
					"/>
			</g>
			<g>
				<path style="fill:#24232D;" d="M160.243,175.231c-1.52,0-1.522,2.362,0,2.362C161.763,177.592,161.765,175.231,160.243,175.231z
					"/>
			</g>
			<g>
				<path style="fill:#24232D;" d="M143.607,153.327c-1.52,0-1.522,2.362,0,2.362C145.127,155.689,145.13,153.327,143.607,153.327z"
					/>
			</g>
			<g>
				<path style="fill:#24232D;" d="M130.022,161.09c-1.52,0-1.522,2.362,0,2.362C131.541,163.452,131.544,161.09,130.022,161.09z"/>
			</g>
			<g>
				<path style="fill:#24232D;" d="M188.524,158.318c-1.52,0-1.522,2.362,0,2.362C190.044,160.679,190.046,158.318,188.524,158.318z
					"/>
			</g>
			<g>
				<path style="fill:#24232D;" d="M317.728,200.22c-0.76,0-0.761,1.181,0,1.181C318.488,201.401,318.489,200.22,317.728,200.22z"/>
			</g>
			<g>
				<path style="fill:#24232D;" d="M314.124,172.494c-0.76,0-0.761,1.181,0,1.181C314.883,173.675,314.885,172.494,314.124,172.494z
					"/>
			</g>
			<g>
				<path style="fill:#24232D;" d="M297.488,176.93c-0.76,0-0.761,1.181,0,1.181C298.248,178.111,298.249,176.93,297.488,176.93z"/>
			</g>
			<g>
				<path style="fill:#24232D;" d="M300.815,153.363c-0.76,0-0.761,1.181,0,1.181C301.575,154.544,301.576,153.363,300.815,153.363z
					"/>
			</g>
			<g>
				<path style="fill:#24232D;" d="M247.026,105.468c0.76,0,0.761-1.181,0-1.181C246.266,104.287,246.265,105.468,247.026,105.468z"
					/>
			</g>
			<g>
				<path style="fill:#24232D;" d="M294.161,110.942c-0.76,0-0.761,1.181,0,1.181C294.921,112.123,294.922,110.942,294.161,110.942z
					"/>
			</g>
			<g>
				<path style="fill:#24232D;" d="M304.419,131.459c-0.76,0-0.761,1.181,0,1.181C305.179,132.64,305.181,131.459,304.419,131.459z"
					/>
			</g>
			<g>
				<path style="fill:#24232D;" d="M330.205,135.413c0.76,0,0.761-1.181,0-1.181C329.445,134.232,329.444,135.413,330.205,135.413z"
					/>
			</g>
			<g>
				<path style="fill:#24232D;" d="M338.523,148.372c-0.76,0-0.761,1.181,0,1.181C339.283,149.553,339.284,148.372,338.523,148.372z
					"/>
			</g>
			<g>
				<path style="fill:#24232D;" d="M229.004,191.902c-0.76,0-0.761,1.181,0,1.181C229.764,193.083,229.765,191.902,229.004,191.902z
					"/>
			</g>
			<g>
				<path style="fill:#24232D;" d="M248.69,175.544c-0.76,0-0.761,1.181,0,1.181C249.45,176.725,249.451,175.544,248.69,175.544z"/>
			</g>
			<g>
				<path style="fill:#24232D;" d="M199.06,191.902c-0.76,0-0.761,1.181,0,1.181C199.82,193.083,199.821,191.902,199.06,191.902z"/>
			</g>
			<g>
				<path style="fill:#24232D;" d="M179.097,220.46c-0.76,0-0.761,1.181,0,1.181C179.857,221.641,179.858,220.46,179.097,220.46z"/>
			</g>
			<g>
				<path style="fill:#24232D;" d="M200.723,214.361c-0.76,0-0.761,1.181,0,1.181C201.483,215.541,201.485,214.361,200.723,214.361z
					"/>
			</g>
			<g>
				<path style="fill:#24232D;" d="M248.135,198.834c-0.76,0-0.761,1.181,0,1.181C248.895,200.015,248.896,198.834,248.135,198.834z
					"/>
			</g>
			<g>
				<path style="fill:#24232D;" d="M287.229,219.906c-0.76,0-0.761,1.181,0,1.181C287.989,221.087,287.99,219.906,287.229,219.906z"
					/>
			</g>
			<g>
				<path style="fill:#24232D;" d="M170.779,166.949c-0.76,0-0.761,1.181,0,1.181C171.539,168.13,171.54,166.949,170.779,166.949z"
					/>
			</g>
			<g>
				<path style="fill:#24232D;" d="M151.925,188.298c-0.76,0-0.761,1.181,0,1.181C152.685,189.479,152.686,188.298,151.925,188.298z
					"/>
			</g>
			<g>
				<path style="fill:#24232D;" d="M126.14,172.494c-0.76,0-0.761,1.181,0,1.181C126.9,173.675,126.901,172.494,126.14,172.494z"/>
			</g>
			<g>
				<path style="fill:#24232D;" d="M130.854,153.64c-0.76,0-0.761,1.181,0,1.181C131.613,154.821,131.615,153.64,130.854,153.64z"/>
			</g>
			<g>
				<path style="fill:#24232D;" d="M118.099,165.84c-0.76,0-0.761,1.181,0,1.181C118.859,167.02,118.86,165.84,118.099,165.84z"/>
			</g>
			<g>
				<path style="fill:#24232D;" d="M156.916,150.59c-0.76,0-0.761,1.181,0,1.181C157.676,151.771,157.677,150.59,156.916,150.59z"/>
			</g>
			<g>
				<path style="fill:#24232D;" d="M213.2,101.238c-0.76,0-0.761,1.181,0,1.181C213.96,102.419,213.961,101.238,213.2,101.238z"/>
			</g>
			<g>
				<path style="fill:#24232D;" d="M237.045,119.814c-0.76,0-0.761,1.181,0,1.181C237.805,120.995,237.806,119.814,237.045,119.814z
					"/>
			</g>
			<g>
				<path style="fill:#24232D;" d="M238.708,99.02c-0.76,0-0.761,1.181,0,1.181C239.468,100.2,239.469,99.02,238.708,99.02z"/>
			</g>
			<g>
				<path style="fill:#24232D;" d="M108.395,189.13c-0.76,0-0.761,1.181,0,1.181C109.155,190.311,109.156,189.13,108.395,189.13z"/>
			</g>
			<g>
				<path style="fill:#24232D;" d="M135.844,238.482c-0.76,0-0.761,1.181,0,1.181C136.604,239.663,136.605,238.482,135.844,238.482z
					"/>
			</g>
			<g>
				<path style="fill:#24232D;" d="M132.517,206.32c-0.76,0-0.761,1.181,0,1.181C133.277,207.501,133.278,206.32,132.517,206.32z"/>
			</g>
			<g>
				<path style="fill:#24232D;" d="M260.286,234.056c-0.76,0-0.761,1.181,0,1.181C261.046,235.237,261.047,234.056,260.286,234.056z
					"/>
			</g>
		</g>
		<g>
			<path style="fill:#24232D;" d="M164.84,246.277c-2.153,6.124-3.569,12.466-4.427,18.871c-0.856,6.409-1.232,12.874-1.269,19.348
				c-0.124,6.474,0.037,12.95,0.434,19.412c0.192,3.232,0.469,6.459,0.837,9.677c0.335,3.223,0.801,6.431,1.325,9.633
				c-1.473-6.324-2.368-12.779-2.93-19.253c-0.558-6.478-0.712-12.984-0.665-19.482c0.121-6.496,0.484-13.013,1.51-19.445
				c0.518-3.213,1.175-6.405,2.017-9.548C162.545,252.356,163.562,249.261,164.84,246.277z"/>
		</g>
		<g>
			<path style="fill:#24232D;" d="M224.66,228.453c-0.257,3.811-0.541,7.611-0.762,11.415c-0.218,3.803-0.445,7.604-0.543,11.411
				c-0.179,3.804-0.234,7.611-0.292,11.42c-0.033,1.905-0.046,3.81-0.048,5.716l-0.033,5.724c-0.201-1.9-0.32-3.805-0.457-5.711
				c-0.097-1.907-0.171-3.815-0.232-5.725c-0.101-3.82-0.037-7.641,0.064-11.461c0.182-3.817,0.395-7.633,0.778-11.435
				C223.516,236.007,223.994,232.215,224.66,228.453z"/>
		</g>
		<g>
			<path style="fill:#24232D;" d="M278.567,227.401c0.898,2.66,1.623,5.372,2.265,8.104c0.653,2.73,1.162,5.493,1.601,8.265
				c0.416,2.776,0.762,5.564,0.961,8.364c0.095,1.4,0.18,2.801,0.243,4.202c0.025,1.404,0.069,2.805,0.034,4.209l-1.042-8.331
				c-0.378-2.768-0.748-5.535-1.184-8.292c-0.412-2.76-0.892-5.51-1.364-8.264L278.567,227.401z"/>
		</g>
		<g>
			<path style="fill:#24232D;" d="M324.889,221.966c1.176,2.221,2.111,4.567,2.891,6.962c0.791,2.393,1.367,4.854,1.818,7.333
				c0.427,2.483,0.729,4.988,0.849,7.501c0.055,1.257,0.092,2.513,0.103,3.768c-0.03,1.257-0.045,2.511-0.142,3.764l-0.348-3.742
				c-0.109-1.245-0.232-2.487-0.379-3.726c-0.299-2.476-0.623-4.944-1.067-7.392c-0.421-2.452-0.963-4.879-1.569-7.293
				C326.426,226.73,325.684,224.348,324.889,221.966z"/>
		</g>
		<g>
			<path style="fill:#24232D;" d="M341.267,228.984c0.656,1.577,1.18,3.117,1.679,4.704c0.468,1.587,0.911,3.219,0.946,4.937
				c-0.8-1.51-1.4-3.045-1.902-4.646C341.52,232.378,341.145,230.699,341.267,228.984z"/>
		</g>
		<g>
			<path style="fill:#24232D;" d="M209.249,252.168c0.05,2.166,0.026,4.321,0.02,6.475l-0.033,6.457l-0.053,6.457l-0.029,3.233
				c-0.036,1.08-0.03,2.158-0.081,3.241c-0.175-1.07-0.278-2.146-0.409-3.221l-0.25-3.234c-0.147-2.158-0.181-4.321-0.177-6.483
				c0.027-2.162,0.09-4.324,0.267-6.48C208.67,256.457,208.888,254.304,209.249,252.168z"/>
		</g>
		<g>
			<path style="fill:#24232D;" d="M133.559,250.688c-0.475,2.208-0.933,4.415-1.289,6.642c-0.399,2.217-0.737,4.444-1.033,6.675
				c-0.588,4.462-1.04,8.941-1.222,13.432c-0.288,4.489-0.163,8.987,0.083,13.472l0.271,3.361c0.086,1.122,0.294,2.228,0.431,3.345
				c0.206,2.249,0.782,4.428,1.146,6.663c-1.284-4.329-2.185-8.79-2.615-13.305c-0.408-4.512-0.526-9.056-0.315-13.582
				c0.267-4.522,0.708-9.036,1.463-13.499C131.242,259.431,132.199,254.999,133.559,250.688z"/>
		</g>
		<g>
			<path style="fill:#24232D;" d="M139.687,147.81c-2.031,1.206-3.903,2.645-5.665,4.201c-1.796,1.515-3.453,3.186-5.061,4.894
				c-3.192,3.444-6.063,7.174-8.644,11.095l-1.932,2.945l-1.783,3.04c-1.243,1.998-2.204,4.15-3.347,6.207
				c-1.078,2.091-2.013,4.254-3.033,6.379c-0.939,2.161-1.818,4.349-2.775,6.512c0.744-2.24,1.534-4.469,2.322-6.7
				c0.932-2.172,1.793-4.381,2.794-6.527c0.512-1.068,1.03-2.133,1.565-3.19c0.508-1.071,1.093-2.102,1.683-3.13l1.76-3.09
				l1.915-2.999c2.676-3.914,5.573-7.7,8.923-11.072C131.772,153.046,135.433,149.907,139.687,147.81z"/>
		</g>
	</g>
</g>
</svg>
