<?xml version="1.0" encoding="utf-8"?>
<!-- Generator: Adobe Illustrator 27.5.0, SVG Export Plug-In . SVG Version: 6.00 Build 0)  -->
<svg xmlns="http://www.w3.org/2000/svg" xmlns:xlink="http://www.w3.org/1999/xlink" viewBox="0 0 4000 4000" width="595" height="842" preserveAspectRatio="xMidYMid meet" data-scaled="true">
<path style="fill:#FFFFFF;" d="M0,0h4000v4000H0V0z"/>
<path d="M463.215,1771.891c16.633-1.102,31.73-0.074,46.852,7.715c27.012,13.91,38.652,39.449,47.852,66.703
	c16.789-3.734,33.648-6.375,50.906-5.793c10.238,0.348,21.281,1.434,30.672,5.746c32.656,14.996,185.055,123.078,207.473,148.442
	c2.598,2.937,4.086,3.82,3.855,7.894c-15.453,20.91-170.379,125.902-198.855,140.117c-30.652,15.301-62.879,7.641-93.723-2.508
	c-0.93,5.906-2.016,11.852-3.484,17.648c-6.93,27.313-25.066,45.73-48.785,59.348c-19.781,8.137-39.516,9.528-59.473,0.898
	c-1.417-0.609-2.816-1.255-4.199-1.938c-1.385-0.682-2.751-1.401-4.098-2.156c-1.346-0.753-2.672-1.541-3.977-2.363
	c-1.305-0.82-2.589-1.674-3.852-2.563c-1.26-0.891-2.497-1.811-3.711-2.762c-1.214-0.953-2.402-1.938-3.566-2.953
	c-1.161-1.013-2.297-2.056-3.406-3.129c-1.109-1.073-2.189-2.173-3.238-3.301c-1.052-1.13-2.074-2.285-3.066-3.465
	c-0.992-1.182-1.953-2.389-2.883-3.621c-0.93-1.232-1.827-2.487-2.691-3.766c-0.865-1.276-1.695-2.574-2.492-3.895
	c-0.797-1.323-1.559-2.664-2.285-4.023c-0.729-1.36-1.422-2.739-2.078-4.137c-0.656-1.396-1.276-2.807-1.859-4.234
	c-0.583-1.43-1.129-2.872-1.637-4.328c-8.603-24.297-7.017-47.383,4.184-70.195c-51.723-7.918-99.734-17.84-148.842-36.48
	c-19.496-7.403-116.891-43.094-123.095-60.176c-1.167-3.215,0.155-5.285,1.993-8.035c12.953-19.371,150.105-66.668,176.577-72.652
	c31.1-7.031,63.145-9.887,94.798-13.258c-5.609-9.473-9.574-17.934-12.254-28.742c-5.534-22.324-4.331-45.942,8.43-65.633
	C414.012,1787.516,437.551,1777.023,463.215,1771.891z"/>
<path style="fill:#FFFFFF;" d="M691.055,2013.715c33.422-2.168,67.516-1.012,100.992-0.098
	c-46.758,32.238-92.144,67.019-139.773,97.875c-4.23,2.223-8.484,4.246-12.926,6.02c-17.199,6.867-47.516,8.781-64.609,0.758
	c-5.59-2.621-10.477-6.777-12.172-12.961c-1.551-5.648-0.109-11.836,2.34-17C582.07,2052.07,655.035,2026.82,691.055,2013.715z"/>
<path style="fill:#FFFFFF;" d="M598.906,1868.012c13.297,0.094,24.5,2.453,36.644,7.879
	c43.227,19.32,113.852,79.949,155.871,110.313l-40.121-0.039c-15.953,0.035-33.035,1.129-48.824-1.031
	c-35.902-4.906-89.734-31.848-118.602-53.973c-10.242-7.848-23.09-19.105-24.246-32.871c-0.609-7.207,2.762-13.688,7.266-19.102
	C574.941,1869.512,587.34,1869.051,598.906,1868.012z"/>
<path style="fill:#FFFFFF;" d="M616.938,2010.844c-0.66,3.68-13.34,9.609-16.949,11.777c-23.102,13.875-45.695,28.73-61.621,51.062
	c-22.059,30.93,7.91,56.445-11.953,90.023c-8.574,14.496-22.582,25.332-39.109,29.012c-17.59,3.918-31.957-0.746-46.512-10.449
	c-11.723-12.805-20.215-26.805-20.652-44.641c-0.492-20.066,10.883-37.09,24.156-51.137c24.613-26.051,66.918-63.266,102.926-71.16
	C569.484,2010.449,594.203,2011.524,616.938,2010.844z"/>
<path style="fill:#FFFFFF;" d="M462.012,1801.105c14.559-0.617,29.098,1.149,42.301,7.715
	c45.383,22.563,15.402,71.902,27.656,105.652c13.168,36.27,66.188,57.563,98.207,72.379l-40.387-0.418
	c-19.687-0.184-40.301,1.891-58.484-6.707c-39.348-18.609-98.805-67.707-112.402-110.934c-4.043-12.863-4.73-27.012,1.789-39.199
	C429.129,1813.824,445.832,1806.355,462.012,1801.105z"/>
<path style="fill:#FFFFFF;" d="M391.676,1932.41c9.625-1.582,20.027-1.262,29.797-1.668c13.547,8.981,25.754,21.094,38.187,31.59
	c15.559,13.129,31.496,24.66,48.59,35.676c-31.645,20.402-58.801,44.555-85.551,70.848c-38.086-1.023-74.864-9.832-111.444-19.813
	c-46.34-11.598-91.198-32.59-134.046-53.313C254.775,1964.066,306.025,1941.211,391.676,1932.41z"/>
<path d="M1993.379,3111.285c4.137,0.094,8.156,0.453,12.27,0.844c11.918,9.246,7.785,31.441,12.059,45.258
	c2.563,8.297,7.805,16.93,12.172,24.434c7.258,12.255,15.081,24.139,23.469,35.652c8.391,11.51,17.307,22.598,26.75,33.262
	c24.473,28.156,56.664,55.047,69.973,90.836c13.262,35.672,3.637,63.957-10.887,96.797c9.082,1.598,19.086,2.809,27.676,6.195
	c22.535,8.879,41.785,28.449,51.219,50.613c0.565,1.31,1.097,2.633,1.598,3.969c0.5,1.333,0.968,2.68,1.402,4.039
	c0.435,1.36,0.836,2.728,1.203,4.106c0.367,1.377,0.699,2.764,0.996,4.16c0.3,1.393,0.564,2.794,0.793,4.203
	c0.229,1.406,0.425,2.818,0.586,4.234c0.161,1.417,0.286,2.837,0.375,4.262c0.092,1.425,0.147,2.849,0.168,4.273
	c0.021,1.427,0.007,2.853-0.043,4.277c-0.052,1.425-0.137,2.848-0.254,4.27c-0.12,1.422-0.275,2.84-0.465,4.254
	c-0.19,1.411-0.414,2.819-0.672,4.223c-0.26,1.401-0.553,2.796-0.879,4.184c-0.328,1.391-0.69,2.771-1.086,4.141
	c-0.393,1.37-0.822,2.729-1.285,4.078c-0.461,1.349-0.956,2.686-1.484,4.012c-0.477,1.2-0.984,2.387-1.523,3.559
	c-0.536,1.175-1.104,2.335-1.703,3.48c-0.596,1.143-1.222,2.271-1.879,3.383c-0.656,1.115-1.34,2.209-2.051,3.285
	c-0.711,1.078-1.449,2.137-2.215,3.176c-0.768,1.039-1.561,2.057-2.379,3.054c-0.818,1-1.662,1.978-2.531,2.934
	c-0.867,0.953-1.759,1.885-2.676,2.797c-0.917,0.909-1.857,1.794-2.82,2.656c-0.961,0.859-1.944,1.694-2.949,2.504
	c-1.005,0.813-2.03,1.597-3.074,2.355c-1.047,0.758-2.112,1.488-3.195,2.192c-1.081,0.703-2.18,1.377-3.297,2.023
	c-1.12,0.648-2.254,1.265-3.402,1.852c-1.149,0.589-2.313,1.147-3.492,1.676c-1.177,0.529-2.367,1.027-3.571,1.496
	c-27.812,10.879-54.125,2.488-80.023-8.797c-8.145,77.941-32.813,149.566-63.84,221.18c-6.988,16.125-14.703,38.09-26.715,50.715
	c-4.879,0.41-8.57,1.195-12.691-2.031c-20.004-15.688-66.715-149.965-74.219-180.621c-7.324-29.93-11.176-60.117-14.91-90.641
	c-7.313,3.273-14.645,6.504-22.289,8.938c-22.027,7.008-45.547,7.008-66.188-4.258c-18.442-10.063-33.274-27.344-39.07-47.664
	c-0.385-1.377-0.736-2.764-1.051-4.16c-0.318-1.396-0.599-2.799-0.844-4.211c-0.247-1.409-0.46-2.823-0.637-4.242
	c-0.174-1.422-0.315-2.847-0.422-4.274c-0.104-1.427-0.175-2.855-0.211-4.285c-0.034-1.432-0.032-2.863,0.004-4.293
	c0.036-1.43,0.109-2.858,0.219-4.285c0.107-1.427,0.25-2.852,0.43-4.273c0.177-1.419,0.391-2.833,0.641-4.242
	c0.247-1.409,0.531-2.811,0.852-4.207c0.318-1.396,0.671-2.783,1.059-4.16c0.385-1.378,0.806-2.745,1.262-4.102
	s0.944-2.701,1.465-4.031c0.523-1.333,1.079-2.652,1.668-3.957c0.586-1.305,1.204-2.595,1.855-3.871
	c0.654-1.274,1.337-2.53,2.051-3.77c16.715-28.848,43.074-40.594,73.652-49.102c-1.484-2.359-2.902-4.684-4.199-7.152
	c-52.922-100.797,65.445-160.152,111.137-232.281c16.75-26.438,17.523-52.519,26.891-81.25L1993.379,3111.285z"/>
<path style="fill:#FFFFFF;" d="M2014.648,3213.68c11.688,9.309,19.504,28.429,29.535,40.344
	c25.168,29.894,63.836,58.086,79.098,94.394c11.289,26.859,4.016,52.305-6.371,77.875l-4.629,6.324
	c-4.375,2.438-7.426,3.297-12.488,3.578c-12.305,0.688-22.215-2.426-31.363-10.883
	C2026.57,3386.617,2015.57,3268.785,2014.648,3213.68z"/>
<path style="fill:#FFFFFF;" d="M1983.703,3216.707c1.816,2.32,1.664,4.543,1.883,7.398c4.242,56.141-13.672,156.457-50.863,199.609
	c-6.723,7.797-14.773,14.063-25.434,14.355c-8.105,0.223-15.371-5.043-21.18-10.023c-8.332-11.164-15.066-23.094-17.976-36.852
	c-3.254-15.391-1.277-30.277,5.469-44.438C1895.523,3304.965,1954.609,3259.375,1983.703,3216.707z"/>
<path style="fill:#FFFFFF;" d="M1985.465,3386.172c0.141,0.848,0.316,1.692,0.426,2.543c6.09,47.129-16.152,101.652-45.183,137.781
	c-19.602,24.387-48.035,51.945-80.832,54.539c-17.277,1.367-29.348-4.098-42.336-14.84c-10.059-12.152-17.078-24.738-16.855-40.98
	c0.211-15.398,7.422-29.746,18.656-40.09c29.793-27.43,68.516-22.668,105.379-20.402
	C1958.641,3446.824,1973.234,3420.727,1985.465,3386.172z"/>
<path style="fill:#FFFFFF;" d="M2012.293,3384.398c2.418,2.461,1.625,1.215,3.02,4.465
	c54.266,126.559,101.856,44.848,163.457,96.098c12.582,10.469,17.461,25.602,18.5,41.492c1.18,18.012-3.062,27.445-14.957,40.68
	c-12.699,9.527-24.859,15.371-40.984,14.602c-28.32-1.355-53.895-23.113-72.527-42.852
	C2026,3493.539,2010.75,3446.117,2012.293,3384.398z"/>
<path style="fill:#FFFFFF;" d="M1998.828,3489.809c20.289,31.871,46.082,61.387,69.609,90.906
	c-0.293,83.871-34.18,160.625-67.281,235.875c-0.484-0.477-1.012-0.91-1.453-1.426c-6.754-7.867-11.309-21.676-15.606-31.191
	c-27.137-60.125-56.746-140.262-51.223-206.609C1955.621,3548.934,1979.664,3520.824,1998.828,3489.809z"/>
<path d="M1995.195,110.68c3.754,1.159,8.219,2.405,11.355,4.843c8.801,6.841,16.602,32.493,21.121,43.095
	c34.133,80.145,60.375,155.344,70.625,242.359c24.23-10.305,46.262-16.272,72.488-8.141c20.32,6.301,36.535,19.285,46.195,38.395
	c10.086,19.953,12.176,44.285,4.695,65.434c-17.301,48.937-56.344,47.367-94.941,64.91l4.34,4.078
	c12.676,12.027,27.535,27.215,27.563,45.984c0.063,41.289-59.508,97.598-82.941,129.707c-19.535,26.766-38.285,55.992-50.332,86.996
	c-13.273,34.152-14.371,66.402-13.492,102.457c35.723,51.082,69.066,119.777,99.68,175.227
	c131.395-58.437,263.949-137.367,357.063-249.203c9.426-11.32,18.965-23.547,26.453-36.266c8.805-14.953,14.981-42.41,28.547-52.691
	c4.941-0.93,9.387-1.332,14.043,1.168c4.07,2.184,6.27,4.977,6.887,9.523c1.871,13.746-12.801,61.211-15.746,78.727
	c-3.859,22.941-6.441,46.461-8.141,69.664c-8.832,120.828,17.359,248.082,62.664,359.82c34.973-11.148,69.523-24.211,104.332-35.938
	c18.824-6.344,42.379-10.801,59.402-20.629c16.336-9.434,30.191-24.953,43.055-38.523c14.801-15.617,30.41-31.512,42.602-49.277
	c34.832-50.746,62.484-137.024,77.344-197.176c-3.633-1.785-7.266-3.602-10.73-5.699c-18.336-11.086-31.938-28.742-36.867-49.676
	c-0.333-1.383-0.631-2.772-0.895-4.168c-0.266-1.398-0.495-2.802-0.688-4.211c-0.193-1.409-0.349-2.822-0.469-4.238
	c-0.122-1.414-0.208-2.832-0.258-4.254c-0.049-1.422-0.064-2.844-0.043-4.266c0.021-1.422,0.078-2.841,0.172-4.258
	c0.094-1.419,0.223-2.835,0.387-4.246c0.167-1.414,0.367-2.822,0.602-4.223c0.237-1.401,0.508-2.797,0.813-4.188
	c0.307-1.388,0.648-2.767,1.023-4.137c0.377-1.372,0.789-2.733,1.234-4.082c0.443-1.352,0.921-2.69,1.434-4.016
	c0.513-1.328,1.059-2.641,1.637-3.938c0.578-1.299,1.189-2.583,1.832-3.852c0.643-1.268,1.318-2.52,2.023-3.754
	c0.706-1.232,1.443-2.447,2.211-3.645c0.797-1.198,1.623-2.376,2.477-3.535c0.854-1.156,1.737-2.29,2.648-3.402
	c0.911-1.115,1.85-2.204,2.817-3.269c0.966-1.068,1.958-2.109,2.976-3.125c1.018-1.016,2.061-2.005,3.129-2.969
	c1.068-0.966,2.159-1.904,3.274-2.813c1.115-0.911,2.251-1.793,3.41-2.645c1.159-0.854,2.338-1.678,3.539-2.473
	c1.201-0.794,2.419-1.557,3.656-2.289c1.237-0.735,2.492-1.436,3.766-2.106c1.273-0.672,2.563-1.31,3.867-1.914
	c1.304-0.607,2.624-1.18,3.957-1.719c1.333-0.542,2.679-1.048,4.039-1.519c1.36-0.474,2.729-0.913,4.11-1.317
	c1.38-0.404,2.771-0.773,4.172-1.109c1.398-0.333,2.805-0.633,4.219-0.898c26.422-5.004,48.695,2.047,70.426,16.637
	c0.824-20.508,1.75-41.141,1.676-61.664c-0.078-21.129-2.926-44.801,1.172-65.555c1.344-6.82,3.023-12.082,8.848-16.086
	c6.039,0.898,10.082,4.223,14.207,8.543c9.141,9.57,15.586,22.758,22.773,33.914c12.395,19.238,25.484,38.484,39.883,56.285
	c48.992-43.676,114.75-67.942,174.066-94.371c26.528-11.816,53.047-24.945,80.512-34.477c8.679-3.012,19.531-6.387,28.242-2.121
	c0.958,1.824,1.692,2.93,2.016,5.121c2.89,19.695-72.742,182.262-87.172,208.832c-12.168,22.406-26.434,43.098-41.469,63.617
	c18.133,19.59,76.105,55.039,82.789,71.121c-0.141,4.027-0.586,6.414-2.664,9.828c-0.625,1.023-0.906,2.398-1.914,3.047
	c-5.406,3.457-52.094,0.504-61.836,1.027c-21.344,1.145-43.25,2.902-63.996,8.246l-2.918,0.766
	c13.867,21.18,22.133,43.605,18.336,69.375c-3.113,21.129-14.793,39.082-31.856,51.715c-19.855,14.703-45.379,21.355-69.812,16.945
	c-25.789-4.656-41.141-20.5-55.652-40.805c-63.332,19.523-129.875,29.035-189.176,60.789c-20.5,10.98-35.602,29.418-51.48,45.965
	c-14.875,15.504-34.289,29.922-46.559,47.391c-9.414,13.406-42.027,137.981-50.793,166.516
	c106.746,41.074,221.094,66.582,335.762,64.66c41.195-0.691,89.664-2.922,128.25-18.125c9.906-3.902,31.539-15.684,41.355-10.652
	c5.063,2.598,6.855,6.273,9.059,11.117c-0.109,12.387-10.695,17.805-20.297,23.086c-151.496,83.332-251.648,240.625-320.899,394.164
	c52.86,26.949,137.531,84.906,189.051,99.055c19.551,5.367,40.762,6.73,60.438,1.281c57.766-15.992,132.008-91.098,188.605-122.871
	c39.176-21.992,71.023-21.672,113.676-9.582c2.684-10.352,5.465-20.527,10.379-30.102c10.648-20.742,28.781-37.762,51.211-44.898
	c1.32-0.409,2.651-0.784,3.992-1.125c1.339-0.339,2.686-0.645,4.043-0.918c1.354-0.273,2.715-0.512,4.082-0.715
	c1.367-0.206,2.74-0.376,4.117-0.512c1.375-0.133,2.753-0.232,4.133-0.297c1.383-0.065,2.766-0.097,4.148-0.094
	c1.38,0.005,2.762,0.046,4.145,0.121c1.38,0.073,2.758,0.182,4.133,0.328c1.375,0.143,2.745,0.322,4.109,0.535
	c1.367,0.214,2.728,0.461,4.082,0.742c1.352,0.281,2.697,0.596,4.035,0.945c1.336,0.352,2.664,0.736,3.984,1.152
	c1.318,0.417,2.624,0.866,3.918,1.348c1.297,0.484,2.58,1,3.848,1.547c1.271,0.547,2.526,1.126,3.766,1.738
	c1.24,0.612,2.463,1.254,3.672,1.926c1.146,0.633,2.275,1.294,3.387,1.984c1.115,0.69,2.21,1.406,3.285,2.148
	c1.078,0.745,2.137,1.516,3.176,2.313c1.036,0.797,2.055,1.62,3.055,2.469c0.995,0.846,1.97,1.719,2.926,2.617
	c0.953,0.896,1.884,1.815,2.793,2.758c0.906,0.945,1.789,1.911,2.648,2.898c0.859,0.987,1.694,1.995,2.504,3.023
	c0.81,1.031,1.593,2.081,2.348,3.148c0.758,1.068,1.487,2.154,2.188,3.258c0.703,1.107,1.378,2.229,2.023,3.367
	c0.646,1.138,1.263,2.292,1.852,3.461c0.589,1.169,1.148,2.353,1.68,3.551c0.529,1.198,1.027,2.408,1.496,3.629
	c0.469,1.221,0.906,2.454,1.313,3.699c0.409,1.245,0.785,2.499,1.129,3.762c7.227,25.945,1.598,49.668-10.84,72.672
	c82.313,6.859,160.469,30.707,235.035,65.75c13.926,6.543,33.281,13.859,38.867,29.418c-0.316,3.223,0.078,4.91-1.996,7.551
	c-8.352,10.625-32.094,17.988-44.66,23.523c-75.535,33.293-146.254,59.453-229.133,67.692c6.731,9.855,12.027,18.203,14.738,30.066
	c4.926,21.535,1.551,44.438-10.746,62.965c-12.648,19.055-32.789,30.778-55.074,34.723c-21.942,3.883-44.711,0.355-62.949-12.914
	c-24.121-17.547-32.672-44.695-36.516-72.816c-130.559,57.004-203.035-112.457-319.078-130.668
	c-15.734-2.469-33.266-2.234-48.523,2.586c-35.613,11.25-148.086,79.484-181.191,103.531
	c37.57,116.414,142.293,265.137,236.402,341.824c13.738,11.196,27.871,22.105,42.574,32c18.113,12.191,42.508,22.48,55.949,39.969
	c-0.114,2.055-0.152,4.547-0.727,6.527c-2.293,7.895-12.426,9.703-19.453,9.829c-18.621,0.332-41.656-8.434-60.02-12.477
	c-21.531-4.742-42.594-7.93-64.57-9.723c-136.262-11.133-239.77,11.996-366.273,61.793c16.285,51.336,38.742,139.852,69.203,182.707
	c22.113,31.109,60.121,58.945,92.965,77.766c48.984,28.066,122.43,59,179.652,46.184c20.223-4.531,38.41-15.711,58.465-20.754
	c21.004-5.277,45.629-2.328,64.023,9.477c15.934,10.23,25.844,26.996,29.223,45.434c5.344,29.164-7.672,53.449-23.195,76.844
	c34.734,0.321,90.313-2.699,123.023,3.563c6.941,1.328,13.691,3.293,17.895,9.293c-1.422,17.129-72.805,55.012-88.719,70.891
	c-0.515,0.516-1.012,1.051-1.52,1.578c13.441,13.219,22.449,28.711,31.398,45.145c16.742,30.754,106.207,205.813,95.402,232.906
	c-1.113,2.789-4.09,3.477-6.785,4.105c-22.543,5.27-157.195-59.809-184.383-74.512c-27.59-14.922-54.043-32.383-80.715-48.894
	c-16.719,15.914-63.512,84.015-80.289,87.316c-0.488-0.367-1.031-0.672-1.461-1.102c-11.332-11.273-5.457-122.152-5.898-144.739
	l-1.457,1.352c-17.117,15.57-39.277,23.891-62.508,22.52c-1.373-0.076-2.741-0.188-4.106-0.336
	c-1.365-0.146-2.725-0.328-4.082-0.547c-1.356-0.216-2.707-0.469-4.051-0.758c-1.344-0.286-2.678-0.608-4.004-0.965
	c-1.326-0.357-2.642-0.746-3.949-1.168c-1.307-0.424-2.602-0.883-3.883-1.375c-1.284-0.49-2.553-1.013-3.808-1.57
	c-1.258-0.555-2.499-1.143-3.723-1.766c-1.226-0.62-2.436-1.271-3.629-1.953c-1.19-0.682-2.363-1.396-3.52-2.141
	c-1.154-0.742-2.288-1.515-3.402-2.316c-1.117-0.802-2.212-1.633-3.285-2.492c-1.07-0.857-2.119-1.742-3.148-2.656
	c-1.026-0.912-2.029-1.849-3.008-2.813c-0.977-0.966-1.928-1.956-2.855-2.969c-0.927-1.013-1.828-2.05-2.703-3.109
	c-14.535-17.523-20.41-40.695-17.414-63.137c3.73-27.953,20.07-47.074,41.813-63.351c-28.383-52.871-37.828-112.52-63.117-166.672
	c-54.867-117.48-146.648-134.984-257.441-175.133c-51.465,99.563-73.668,216.66-69.98,328.016c1,32.816,4.07,66.18,10.199,98.457
	c5.258,27.703,14.977,55.332,14.977,83.703l-1.711,0.121l1.254,1.773c-0.621,0.516-1.168,1.137-1.859,1.547
	c-6.102,3.614-11.742,3.824-17.332-1.059c-13.293-11.613-21.074-35.273-30.91-50.289c-14.203-22.125-30.083-42.971-47.641-62.539
	c-82.156-90.418-215.234-175.871-330.633-214.696c-17.414,26.766-92.664,166.079-107.801,175.204
	c-5.074,3.058-6.324,2.597-11.836,1.582c-4.805-3.465-7.715-7.125-10.969-12.063c-11.293-17.141-20.504-36.855-30.379-54.922
	c-22.969-42.016-46.031-84.93-73.195-124.398c-74.895,77.75-184.367,104.984-267.367,173.258
	c-36.836,30.297-70.129,67.961-97.84,106.793c-11.512,16.136-25.746,44.383-40.062,56.863c-4.231,3.684-7.301,3.625-12.656,3.309
	c-4.578-2.703-9.652-6.363-10.543-12.09c-2.715-17.473,12.102-63.109,15.883-83.141c3.988-21.145,7.301-42.289,8.871-63.766
	c8.91-121.84-13.461-238.555-63.551-349.848c-29.145,9.559-155.715,46.09-172.399,57.582c-20.93,14.41-50.348,49.551-69.273,69.398
	c-5.918,6.211-11.883,12.375-15.844,20.082c-19.223,37.414-41.781,162.949-40.719,205.273c7.398,8.168,14.352,16.121,18.883,26.336
	c8.586,19.367,7.902,40.309-0.461,59.652c-10.562,24.441-31.848,43.961-56.754,53.109c-28.234,10.371-49.695,2.73-75.594-8.742
	c-10.375,13.293-21.973,25.691-33.195,38.27c9.738,26.051,28.469,62.016,21.172,90.168c-1.519,5.867-3.816,8.847-9.019,11.742
	c-3.664,0.008-6.211-1.34-9.145-3.492c-20.863-15.324-28.035-60.567-31.305-84.489l-26.41-7.316
	c-7.112,4.971-14.358,9.741-21.738,14.309c-66.883,41.344-137.852,71.203-211.621,97.691c-13.652,4.902-35.82,16.344-49.933,13.055
	c-2.637-3.184-3.652-4.176-3.945-8.484c-1.176-17.145,11.391-40.309,17.852-56.012c27.383-66.543,64.242-152.633,113.031-205.637
	l-2.395-31.82c-24.547-6.828-71.043-23.492-84.102-46.832c-1.75-3.129-2.617-7.105-1.5-10.563c1.648-5.109,4.527-7.625,9.465-9.559
	c21.652-8.469,69.219,30.051,89.07,40.324c12.867-11.402,26.813-21.719,40.352-32.313c-12.367-18.008-21.664-36.063-22.109-58.41
	c-0.457-22.824,8.586-46.68,24.738-62.934c14.934-15.027,35.883-23.047,56.98-22.988c28.984,0.086,49.953,14.687,69.566,34.27
	c59.91-3.465,127.277-26.617,181.457-52.676c23.328-11.219,40.691-28.918,58.738-47.047c16.215-16.297,34.992-32.969,47.715-52.222
	c19.66-29.758,45.578-122.825,59.129-162.106c-113.918-54.973-247.695-73.844-373.098-63.07
	c-26.531,2.277-119.707,24.102-136.547,18.066c-1.004-1.746-1.59-2.582-2.219-4.648c-1.246-4.121-0.75-9.707,1.895-13.184
	c6.207-8.152,34.691-20.977,44.633-26.914c27.004-16.125,52.609-37.035,75.176-58.895
	c96.586-93.578,157.117-200.711,213.945-321.027c-24.227-15.801-169.758-93.594-177.281-108.012
	c-1.543-2.961-2.133-5.918-1.246-9.109c1.688-6.078,5.863-9.949,10.688-13.692c16.492-12.797,37.113-22.543,55.168-33.145
	c37.109-21.628,73.98-43.655,110.613-66.082c-68.945-148.762-119.313-231.563-242.668-342.754
	c-13.051-11.762-26.824-23.484-41.496-33.176c-15.406-10.18-34.078-17.293-46.98-30.769c-1.098-6.414-0.453-11.047,0.82-17.395
	c16.336-10.047,66.426,9.301,85.742,13.387c112.926,23.891,232.746,6.02,340.875-30.887c25.508-8.711,54.676-18.375,77.047-33.27
	c0.555-0.367,1.094-0.754,1.641-1.129l-29.57-91.852c-7.172-22.25-13.375-46.121-24.484-66.789
	c-10.07-18.734-26.777-30.164-41.875-44.484c-12.277-11.641-21.688-26.938-35.555-36.785
	c-45.828-32.539-148.836-50.656-204.68-67.41c-16.684,20.379-36.516,35.898-63.328,39.957c-1.388,0.208-2.78,0.384-4.176,0.527
	c-1.396,0.141-2.794,0.246-4.195,0.316c-1.401,0.073-2.803,0.111-4.207,0.113c-1.404,0.002-2.806-0.03-4.207-0.098
	c-1.401-0.065-2.801-0.165-4.199-0.301c-1.396-0.138-2.788-0.308-4.176-0.512c-1.388-0.206-2.771-0.444-4.148-0.715
	c-1.375-0.273-2.743-0.581-4.105-0.922c-1.362-0.339-2.715-0.712-4.059-1.121c-1.341-0.406-2.673-0.845-3.996-1.316
	c-1.32-0.474-2.629-0.979-3.926-1.516c-1.297-0.539-2.579-1.108-3.848-1.707c-1.268-0.602-2.521-1.233-3.758-1.895
	c-1.237-0.664-2.456-1.357-3.656-2.078c-1.203-0.721-2.388-1.473-3.555-2.254c-1.167-0.781-2.313-1.591-3.437-2.43
	c-1.039-0.781-2.059-1.587-3.059-2.418c-1-0.831-1.978-1.686-2.934-2.566c-0.956-0.88-1.889-1.784-2.801-2.711
	c-0.909-0.93-1.796-1.88-2.66-2.852c-0.862-0.971-1.701-1.964-2.516-2.977c-0.813-1.016-1.599-2.049-2.359-3.101
	c-0.763-1.055-1.497-2.128-2.203-3.219c-0.708-1.091-1.388-2.198-2.039-3.32c-0.651-1.125-1.275-2.266-1.871-3.422
	c-0.594-1.156-1.159-2.327-1.695-3.512c-0.534-1.185-1.039-2.382-1.516-3.59c-0.477-1.211-0.922-2.432-1.336-3.664
	c-0.414-1.232-0.797-2.474-1.148-3.727c-0.352-1.25-0.672-2.509-0.961-3.777c-0.289-1.266-0.546-2.539-0.77-3.82
	c-0.227-1.281-0.419-2.566-0.578-3.855c-3.73-28.133,6.559-49.809,22.625-71.77c-40.359-12.808-114.512-0.328-133.277-8.668
	c-4.211-1.871-4.227-1.77-5.809-6.285c4.793-20.156,66.234-51.559,85.16-64.496c-30.504-58.688-59.902-117.582-85.961-178.41
	c-7.773-18.148-43.719-96.066-35.465-112.359c0.91-1.801,1.195-2.098,3.09-2.555c30.082-7.266,243.582,104.695,283.281,125.934
	c17.301-26.949,30.453-61.965,51.27-85.68c5.398-2.227,6.531-2.52,12.305-1.855c4.336,3.504,6.109,4.863,6.809,10.578
	c1.52,12.426-1.133,26.726-1.773,39.234c-0.464,7.753-0.565,15.509-0.305,23.269c0.26,7.763,0.881,15.496,1.863,23.199
	c0.979,7.703,2.315,15.345,4.008,22.926c1.693,7.578,3.733,15.063,6.121,22.453c2.766-2.122,5.624-4.112,8.574-5.969
	c20.883-12.879,46.515-18.043,70.535-12.156c20.586,5.051,38.617,17.367,49.27,35.887c11.48,19.961,14.113,45.375,8.113,67.504
	c-6.758,24.934-21.883,39.695-43.707,51.703c9.024,43.063,43.965,153.277,64.637,191.481c8.692,16.063,68.91,77.406,84.777,86.402
	c18.894,10.715,41.914,15.617,62.461,22.496c39.734,13.305,79.133,27.113,119.395,38.793c6.996-29.73,16.519-58.883,23.805-88.578
	c4.203-16.813,7.935-33.728,11.195-50.746c3.263-17.018,6.051-34.115,8.363-51.289c2.312-17.175,4.146-34.4,5.5-51.676
	c1.357-17.273,2.232-34.573,2.625-51.898c1.406-62.555-5.48-121.82-16.973-183.066c-1.981-10.551-4.844-23.656-2.184-34.164
	c0.633-2.5,0.805-4.512,3.352-5.656c4.277-1.926,12.668-2.699,16.465,0.633c5.492,4.813,8.832,14.895,11.777,21.434
	c16.355,36.313,36.84,65.133,64.32,94.07c90.777,95.594,211.629,171.777,332.918,222.176c20.385-35.781,40.574-71.675,60.566-107.68
	c10.832-19.156,24.211-38.926,32.691-59.203c2.512-6.008,3.484-12.43,4.336-18.844c12-90.453-55.558-165.758-106.355-231.66
	c-18.535-24.043-37.199-50.879-32.242-83.051c2.969-19.289,13.613-32.203,29.055-43.254c-9.758-1.856-19.73-4.184-29.059-7.644
	c-26.965-10-52.664-28.461-64.191-55.609c-0.503-1.201-0.974-2.414-1.414-3.641c-0.443-1.224-0.854-2.46-1.234-3.707
	c-0.38-1.245-0.731-2.499-1.051-3.762c-0.318-1.263-0.604-2.533-0.859-3.809c-0.255-1.276-0.479-2.559-0.672-3.848
	c-0.193-1.289-0.353-2.581-0.48-3.875c-0.13-1.297-0.228-2.595-0.293-3.895c-0.063-1.302-0.094-2.604-0.094-3.906
	c0-1.302,0.031-2.604,0.094-3.906c0.065-1.299,0.163-2.598,0.293-3.895c0.127-1.294,0.288-2.586,0.48-3.875
	c0.193-1.289,0.417-2.572,0.672-3.848c0.255-1.276,0.542-2.546,0.859-3.809c0.32-1.263,0.671-2.517,1.051-3.762
	c0.38-1.247,0.792-2.483,1.234-3.707c0.44-1.227,0.911-2.44,1.414-3.641c0.497-1.208,1.025-2.404,1.582-3.586
	c0.557-1.182,1.145-2.35,1.762-3.504c0.62-1.151,1.267-2.286,1.941-3.406c0.674-1.12,1.378-2.221,2.109-3.305
	s1.49-2.148,2.273-3.195c0.786-1.044,1.598-2.069,2.434-3.074c0.839-1.003,1.701-1.984,2.586-2.945
	c0.888-0.961,1.799-1.897,2.734-2.809c0.935-0.914,1.893-1.805,2.875-2.672c0.979-0.865,1.98-1.703,3.004-2.516
	c1.021-0.815,2.064-1.603,3.129-2.363c1.063-0.763,2.143-1.497,3.242-2.203c1.101-0.706,2.22-1.383,3.355-2.031
	c1.133-0.648,2.283-1.268,3.449-1.859c1.167-0.591,2.348-1.152,3.543-1.684c1.193-0.531,2.4-1.031,3.621-1.5
	c26.371-10.2,53.492-5.357,78.734,5.164c4.102-23.148,5.809-46.562,10.707-69.651c11.324-53.375,32.105-102.846,51.617-153.564
	C1973.902,155.193,1981.316,128.064,1995.195,110.68z"/>
<path style="fill:#FFFFFF;" d="M3065.625,999.203l1.398-0.133c-2.395,6.613-6.758,12.426-9.508,18.949
	c-7.215,17.102-10.41,36.809-11.172,55.227c-44.527,8.398-87.25,18.406-129.867,34.059l-2.262-0.188l-0.551-1.613
	c15.52-19.684,89.223-90.281,109.637-103.262C3037.41,1001.738,3051.547,1000.312,3065.625,999.203z"/>
<path style="fill:#FFFFFF;" d="M3003.188,923.66c2.918,14.188-2.852,42.977-4.277,58.309
	c-28.172,38.543-71.766,76.707-107.906,108.047c0.957-14.871,15.484-41.637,21.023-57.363c9.44-27.404,18.506-54.93,27.199-82.578
	C2964.524,945.563,2982.512,939.371,3003.188,923.66z"/>
<path style="fill:#FFFFFF;" d="M2935.555,3074.652c3.57-0.375,7.168-0.722,10.758-0.711c14.777,0.051,30.668,5.363,40.984,16.23
	c15.477,16.293,15.004,36.527,14.563,57.395c-11.727,19.961-22.07,28.207-43.199,36.828c-10.047,1.094-18.297,1.012-27.929-2.387
	c-14.383-5.07-26.121-15.125-32.446-29.129c-0.768-1.695-1.448-3.425-2.039-5.188c-0.591-1.766-1.09-3.556-1.496-5.371
	c-0.406-1.815-0.72-3.646-0.941-5.492c-0.219-1.849-0.342-3.703-0.371-5.563c-0.029-1.862,0.038-3.72,0.199-5.574
	c0.161-1.852,0.417-3.691,0.766-5.52c0.351-1.828,0.794-3.633,1.328-5.414c0.536-1.781,1.161-3.531,1.875-5.25
	C2904.977,3091.477,2918.418,3082.098,2935.555,3074.652z"/>
<path style="fill:#FFFFFF;" d="M1058.039,813.231c10.621,0.391,19.938,1.586,29.328,6.84c1.56,0.857,3.072,1.793,4.535,2.809
	c1.461,1.016,2.865,2.107,4.211,3.273c1.344,1.164,2.624,2.397,3.84,3.699c1.216,1.302,2.359,2.664,3.43,4.086
	c1.07,1.422,2.063,2.897,2.977,4.426c0.914,1.526,1.745,3.098,2.492,4.715c0.747,1.615,1.406,3.266,1.977,4.953
	c0.573,1.685,1.055,3.396,1.445,5.133c0.424,1.872,0.755,3.762,0.992,5.668c0.24,1.906,0.384,3.82,0.434,5.742
	c0.052,1.919,0.009,3.837-0.129,5.754c-0.138,1.917-0.37,3.822-0.695,5.715c-0.326,1.893-0.742,3.766-1.25,5.617
	c-0.51,1.854-1.109,3.677-1.797,5.469c-0.688,1.794-1.462,3.551-2.324,5.269c-0.859,1.716-1.802,3.387-2.828,5.012
	c-10.336,16.426-25.043,23.766-43.496,27.629c-13.086-1.324-24.305-4.184-35.035-12.207c-1.503-1.117-2.944-2.309-4.324-3.574
	c-1.383-1.263-2.697-2.594-3.941-3.992c-1.247-1.396-2.421-2.853-3.52-4.371c-1.096-1.515-2.115-3.083-3.055-4.703
	c-0.937-1.622-1.792-3.286-2.563-4.992c-0.768-1.708-1.449-3.451-2.043-5.227c-0.591-1.776-1.092-3.577-1.504-5.402
	c-0.409-1.828-0.724-3.672-0.945-5.531c-0.229-1.852-0.365-3.71-0.406-5.574c-0.042-1.865,0.01-3.728,0.156-5.59
	c0.146-1.859,0.385-3.707,0.719-5.543c0.333-1.836,0.759-3.65,1.277-5.441c0.516-1.794,1.121-3.557,1.816-5.289
	c0.693-1.732,1.473-3.423,2.34-5.074c0.865-1.654,1.811-3.259,2.84-4.816c1.026-1.557,2.129-3.058,3.309-4.504
	C1027.621,819.602,1041.094,815.199,1058.039,813.231z"/>
<path style="fill:#FFFFFF;" d="M2933.973,812.965c11.465-1.422,21.484-1.621,32.508,2.539c12.762,4.816,23,14.137,28.156,26.863
	c5.996,14.785,4.504,31.832-2.355,46.051c-9.32,19.324-24.012,27.644-43.242,34.586c-9.273,0.656-17.363-0.707-26.129-3.898
	c-14.336-5.223-25.258-15.602-31.172-29.691c-0.711-1.695-1.332-3.423-1.863-5.184c-0.529-1.76-0.963-3.544-1.305-5.352
	c-0.341-1.805-0.586-3.624-0.734-5.457c-0.148-1.833-0.2-3.668-0.156-5.504c0.044-1.839,0.185-3.669,0.422-5.492
	c0.24-1.823,0.573-3.629,1-5.418c0.43-1.786,0.95-3.547,1.563-5.281c0.615-1.732,1.319-3.427,2.113-5.086
	C2901.32,828.438,2915.574,819.32,2933.973,812.965z"/>
<path style="fill:#FFFFFF;" d="M1049.883,3072.441c11.754-0.824,20.156-0.133,30.891,4.957c12.531,5.949,21.801,16.304,26.023,29.57
	c4.629,14.555,2.473,29.567-4.543,42.961c-9.395,17.926-24.043,27.957-42.887,34.058c-10.184,0.461-19.101,0.492-28.758-3.363
	c-12.852-5.129-22.695-14.727-27.723-27.672c-0.68-1.729-1.271-3.488-1.773-5.277c-0.505-1.789-0.919-3.599-1.242-5.43
	c-0.323-1.831-0.553-3.673-0.691-5.527c-0.141-1.854-0.188-3.709-0.141-5.566c0.047-1.859,0.186-3.711,0.418-5.555
	c0.232-1.844,0.555-3.672,0.969-5.484c0.414-1.813,0.918-3.599,1.512-5.36c0.591-1.763,1.27-3.491,2.035-5.184
	C1013.215,3089.328,1030.063,3079.91,1049.883,3072.441z"/>
<path style="fill:#FFFFFF;" d="M864.254,2891.227c10.957,0.398,20.313,1.672,30.305,6.461c12.394,5.941,22.434,16.066,26.769,29.281
	c0.568,1.789,1.043,3.603,1.426,5.441c0.38,1.839,0.667,3.693,0.859,5.562c0.19,1.867,0.285,3.74,0.285,5.617
	c-0.003,1.88-0.1,3.754-0.293,5.621c-0.193,1.867-0.482,3.72-0.867,5.559c-0.383,1.839-0.859,3.652-1.43,5.441
	c-0.573,1.789-1.234,3.544-1.984,5.266c-0.75,1.721-1.587,3.4-2.512,5.035c-9.992,18.008-25.422,25.117-44.246,30.469
	c-14.254,0.371-26.469-1.645-38.457-9.859c-1.401-0.948-2.753-1.962-4.055-3.043c-1.299-1.083-2.543-2.227-3.731-3.43
	c-1.188-1.206-2.313-2.468-3.375-3.785c-1.063-1.315-2.057-2.681-2.984-4.098c-0.927-1.414-1.783-2.871-2.566-4.371
	c-0.781-1.5-1.487-3.035-2.117-4.605c-0.63-1.57-1.181-3.168-1.652-4.793c-0.471-1.625-0.861-3.27-1.168-4.934
	c-2.664-14.801,1.199-30.773,9.824-43.043C833.16,2899.551,846.238,2894.375,864.254,2891.227z"/>
<path style="fill:#FFFFFF;" d="M3117.922,1002.102c10.023-0.758,19.887-1.371,29.637,1.598
	c14.684,4.473,27.238,14.281,34.121,28.125c0.773,1.544,1.468,3.122,2.082,4.734c0.617,1.612,1.151,3.251,1.602,4.918
	c0.451,1.667,0.818,3.352,1.102,5.055c0.284,1.703,0.482,3.415,0.594,5.137c0.112,1.724,0.138,3.448,0.078,5.172
	c-0.063,1.727-0.21,3.445-0.441,5.156c-0.232,1.708-0.548,3.402-0.949,5.082c-0.401,1.68-0.885,3.335-1.453,4.965
	c-6.555,19.32-21.016,30.063-38.617,38.434c-11.875,1.637-24.41,2.262-35.871-1.766c-1.565-0.536-3.099-1.15-4.602-1.84
	c-1.505-0.693-2.97-1.458-4.395-2.297c-1.427-0.839-2.807-1.746-4.141-2.723c-1.333-0.979-2.615-2.022-3.844-3.129
	c-1.229-1.109-2.4-2.276-3.512-3.5c-1.109-1.226-2.156-2.505-3.141-3.836c-0.982-1.331-1.893-2.708-2.734-4.133
	c-0.844-1.425-1.613-2.887-2.309-4.387c-6.941-14.801-6.863-32.699-0.484-47.672
	C3088.211,1017.434,3100.961,1009.191,3117.922,1002.102z"/>
<path style="fill:#FFFFFF;" d="M866.594,998.387c10.211,1.148,19.406,2.57,28.531,7.57c1.659,0.914,3.27,1.909,4.832,2.984
	c1.56,1.076,3.064,2.225,4.512,3.449c1.445,1.224,2.828,2.517,4.148,3.879c1.318,1.362,2.565,2.785,3.742,4.269
	c1.177,1.484,2.277,3.025,3.301,4.621c1.023,1.594,1.965,3.236,2.824,4.926c0.862,1.688,1.637,3.414,2.324,5.18
	c0.69,1.766,1.29,3.561,1.801,5.387c0.539,1.927,0.978,3.876,1.316,5.848c0.336,1.971,0.569,3.954,0.699,5.949
	c0.133,1.997,0.161,3.996,0.086,5.996c-0.078,1.997-0.258,3.987-0.539,5.969c-0.284,1.979-0.669,3.939-1.156,5.879
	c-0.487,1.94-1.073,3.85-1.758,5.731c-0.682,1.88-1.462,3.719-2.34,5.515c-0.875,1.8-1.841,3.548-2.898,5.246
	c-10.012,16.293-23.785,22.887-41.555,27.328c-11.551-0.34-22.422-2.238-32.641-7.891c-13.316-7.367-22.938-19.262-26.793-34.035
	c-0.471-1.836-0.852-3.691-1.141-5.566c-0.289-1.872-0.487-3.755-0.594-5.648c-0.104-1.893-0.116-3.788-0.035-5.684
	c0.081-1.893,0.255-3.778,0.523-5.656c0.266-1.878,0.622-3.737,1.07-5.578c0.448-1.844,0.986-3.66,1.613-5.449
	c0.628-1.789,1.34-3.544,2.137-5.266c0.799-1.719,1.681-3.395,2.645-5.027C831.508,1011.117,848.027,1003.379,866.594,998.387z"/>
<path style="fill:#FFFFFF;" d="M3135.727,2896.867c3.277-0.191,6.297-0.191,9.57,0.219c11.301,1.418,20.23,5.609,27.203,14.84
	c9.086,12.027,11.211,27.992,8.938,42.59c-2.336,15.016-10.289,29.527-22.863,38.336c-16.473,11.539-33.621,9.734-52.227,6.239
	c-8.067-3.199-15.66-7.071-22.422-12.594c-19.664-16.063-26.324-36.984-29.285-61.223
	C3079.648,2913.988,3108.863,2901.91,3135.727,2896.867z"/>
<path style="fill:#FFFFFF;" d="M1894.645,582.391c2.578-0.309,5.113-0.602,7.707-0.711c13.805-0.57,24.07,3.625,34.098,13.156
	c39.328,37.402,47.008,147.375,48.637,201.391l-7.035-13.817c-13.992-26.277-30.188-52.902-48.863-76.129
	c-14.41-17.918-31.16-34.894-43.676-54.184c-8.5-13.094-16.528-29.266-12.621-45.269
	C1875.996,594.113,1883.949,588.777,1894.645,582.391z"/>
<path style="fill:#FFFFFF;" d="M2084.555,580.269c11.086-0.828,20.555-0.043,30.781,4.828c6.59,3.137,11.078,8.461,13.023,15.5
	c2.984,10.797,0.316,23.262-4.328,33.187c-9.246,19.758-26.621,37.527-40.355,54.465c-18.691,23.055-36.863,45.731-52.324,71.168
	c-6.193,11.836-12.622,23.542-19.289,35.117c3.758-48.832,5.852-94.117,20.801-141.402
	C2042.195,623.617,2056.023,595.164,2084.555,580.269z"/>
<path style="fill:#FFFFFF;" d="M3199.352,2010.098c61.621-1.684,146.762,10.336,198.223,44.836
	c13.504,9.055,36.511,28,38.528,44.738c0.828,6.852-1.153,9.719-4.758,15.109c-5.492,2.34-10.965,4.41-16.793,5.774
	c-58.813,13.758-105.805-32.902-148.852-65.188C3244.16,2039.211,3222.098,2024.484,3199.352,2010.098z"/>
<path style="fill:#FFFFFF;" d="M3388.469,1869.785c12.117,0.137,34.852,1.047,44,9.355c2.68,2.438,3.859,4.66,4.223,8.145
	c1.23,11.816-5.883,24.715-13.305,33.371c-38.074,44.398-114.891,56.457-169.422,61.316c-17.536,0.419-35.065,1.072-52.586,1.957
	c19.133-15.445,40.375-29.097,60.383-43.437c30.121-21.586,60.953-47.141,94.816-62.477
	C3367.145,1873.23,3377.078,1871.207,3388.469,1869.785z"/>
<path style="fill:#FFFFFF;" d="M3368.188,2010.414c63.266-2.672,97.426,4.641,148.305,42.489
	c26.738,19.89,58.777,48.847,63.098,83.918c2.211,17.93-3.012,31.523-13.848,45.508c-6.129,5.34-12.133,9.992-19.906,12.703
	c-13.707,4.781-31.809,3.707-44.727-3c-38.738-20.121-27.086-72.094-39.785-106.578
	C3446.832,2046.086,3403.617,2026.914,3368.188,2010.414z"/>
<path style="fill:#FFFFFF;" d="M3523.527,1801.496c4.645,0.23,9.254,0.574,13.82,1.523c14.48,3.004,29.484,9.813,37.23,23.051
	c7.5,12.816,7.524,29.941,3.672,43.922c-11.133,40.434-54.941,73.543-89.254,93.875c-8.547,5.062-33.359,20.469-42.398,21.953
	c-2.703,0.445-6-0.684-8.609-1.359c-22.504,0.688-45.07,0.422-67.586,0.469c40.258-17.773,81.543-37.605,93.668-84.035
	c3.52-13.473,4.039-27.742,6.18-41.488c2.086-13.383,5.41-26.578,13.852-37.504
	C3494.238,1808.793,3507.602,1803.832,3523.527,1801.496z"/>
<path style="fill:#FFFFFF;" d="M1844.551,416.273c0.543-0.051,1.082-0.113,1.625-0.152c26.328-1.844,49.301,7.801,68.836,25.105
	c57.266,50.723,71.117,124.98,74.945,197.426l-12.516-28.453c-41.899-84.492-143.664-65.543-170.055-122.398
	c-5.941-12.801-5.805-28.559-0.488-41.578C1813.715,429.523,1828.789,422.352,1844.551,416.273z"/>
<path style="fill:#FFFFFF;" d="M2136.691,416.297c14.672-1.234,28.445,0.496,40.461,9.84c11.578,9.004,21.246,25.09,22.996,39.723
	c6.352,53.105-72.293,63.148-106.898,79.516c-26.117,12.348-44.957,26.316-62.758,49.16c-9.043,15.613-16.422,31.855-23.91,48.246
	c6.762-53.023,10.606-105.137,39.351-151.961C2067.152,456.258,2096.262,426.102,2136.691,416.297z"/>
<path style="fill:#FFFFFF;" d="M1999.188,169.505c23.574,29.976,59.672,147.868,66.398,187.073
	c3.664,21.36,4.328,42.164,2.387,63.723c-20.82,28.734-46.281,52.594-66.273,82.645l-2.629,1.867
	c-22.359-28-41.703-57.164-65.766-84.035C1933.191,331.742,1966.512,250.814,1999.188,169.505z"/>
<path style="fill:#FFFFFF;" d="M3575.91,1929.316c73.98-1.285,183.367,29.57,245.438,69.059
	c-36.734,20.449-77.809,36.183-117.762,49.004c-42.465,12.051-82.383,20.078-126.602,22.781
	c-29.234-30.027-57.82-54.051-95.281-73.133C3519.477,1980.933,3546.816,1957.582,3575.91,1929.316z"/>
<path style="fill:#FFFFFF;" d="M3330.02,666.438l0.781,3.16c-22.359,57.703-46.234,119.863-77.789,173.144
	c-13.199,22.289-30.113,43.211-44.539,64.859c14.227,23.719,41.562,40.484,63.281,56.922c-33.91,2.242-67.938,7.563-101.777,9.027
	c-47.203,2.051-85.078-1.867-132.715,8.731c29.293-25.773,56.563-55.481,84.645-82.699c8.281-8.027,22.719-19.144,22.91-31.332
	c-1.996-6.363-5.856-9.133-10.739-13.266c-22.476,8.992-95.328,90.766-114.676,113.203c6.789-26.203,11.219-60.293,10.152-87.484
	c-0.719-18.48-3.602-36.891-3.59-55.406c0.016-33.891,2.879-68.051,3.571-102.004c13.824,19.426,35.172,56.426,53.887,69.078
	c10.02-0.531,66.176-42.09,80.484-50.102C3217.082,712.496,3273.844,689.781,3330.02,666.438z"/>
<path style="fill:#FFFFFF;" d="M2902.656,2887.98c12.816,1.707,27.805,9.754,40.293,14.09c27.89,9.684,56.996,17.313,86.391,20.438
	c0.813,29.926,7.801,60.598,29.555,82.637c13.188,13.363,30.238,21.617,48.629,24.902c20.59,3.684,39.633-1.816,60.121-2.336
	c31.637-0.809,63.703,0.844,95.359,1.281c-17.121,15.082-45.012,34.02-55.742,54.094c1.238,19.82,33.496,58.203,45.359,77.949
	c30.602,50.938,53.98,113.953,75.211,169.477c-55.489-20.598-111.777-44.047-162.746-74.363
	c-24.023-14.293-46.328-31.781-69.949-46.844c-23.781,16.59-42.722,40.344-61.625,62.07l-0.691-25.43
	c-2.07-25.871-2.973-52.934-2.805-78.902c0.094-14.688,1.461-29.547,0.367-44.219c-1.637-22.027-11.476-41.601-28.715-55.527
	c-21.703-17.539-47.566-21.414-74.5-19.117c-9.082-47.129-28.836-103.398-48.246-147.09
	c31.313,33.266,214.191,231.895,242.457,238.672c5.234,1.254,7.785,0.965,12.504-1.461c2.859-3.809,5.008-6.86,4.547-11.922
	c-0.406-4.512-2.352-9.383-5.199-12.898c-10.18-12.563-41.813-39.075-55.484-52.586
	C3019.309,3003.137,2959.715,2947.164,2902.656,2887.98z"/>
<path style="fill:#FFFFFF;" d="M1089.027,2884.965l0.566,0.289c0.629,3.988-5.93,8.722-8.828,11.703
	c-58.07,58.615-115.374,117.97-171.91,178.067c-14.969,15.652-41.453,34.043-48.742,54.539c-1.75,4.926-2.152,8.5,0.191,13.258
	c2.953,1.801,4.426,2.152,8.004,2.121c7.039-0.063,15.988-4.691,21.328-9.051c13.633-11.137,26.195-27.918,38.957-40.508
	c44.219-44.328,87.802-89.272,130.75-134.832c17.305-18.383,33.477-37.781,51.496-55.48c-7.961,47.715-18.766,95.023-24.719,143.059
	c-15.465-4.34-28.102-6.207-44.113-2.84c-24.258,5.102-45.523,21.078-58.199,42.23c-13.406,22.375-14.527,45.234-8.289,69.879
	l7.262,17.59c-8.93,17.648-18.988,32.422-32.656,46.739c-10.77-3.781-21.797-6.422-32.859-9.184
	c-22.281,4.879-71.863,39.699-98.715,52.918c-49.027,24.137-98.523,44.285-150.16,62.09
	c21.488-60.703,46.375-119.364,80.789-174.043c12.855-20.422,27.867-39.477,41.23-59.586l-8.035-34.254
	c13.117-14.696,28.734-26.485,45.617-36.481c9.695,2.262,19.797,5.086,29.758,5.566c25.152,1.211,52.496-7.324,70.582-25.273
	c22.195-22.031,23.672-49.691,23.703-78.961C999.082,2918.574,1045.344,2903.184,1089.027,2884.965z"/>
<path style="fill:#FFFFFF;" d="M672.367,666.805c45.977,15.133,91.629,37.52,135.23,58.461
	c17.016,8.176,106.414,58.16,114.746,57.324c16.336-1.641,33.98-38.055,41.52-50.543c-0.738,35.313,6.801,68.406,17.695,101.754
	c-2.84,11.813-5.477,23.727-5.086,35.957c0.73,22.879,9.801,44.832,26.738,60.453c16.953,15.637,40.203,23.59,63.051,22.809
	c15.484,48,31.683,96.594,45.715,144.98c-30.894-39.531-70.73-75.34-105.883-111.184c-39.641-40.418-78.43-83.75-120.227-121.879
	c-9.289-8.477-14.305-8.445-26.41-7.902c-1.266,3.828-2.375,6.988-2.102,11.117c0.285,4.234,1.535,6.582,3.98,9.957
	c23.766,32.859,58.645,62.106,87.473,90.879c48.555,48.453,95.941,98.508,147.16,144.176c-46.031-17.82-96.492-27.609-144.41-39.527
	c0.098-28.164-2.207-54.875-22.606-76.613c-14.875-15.852-42.008-26.344-63.824-24.317c-9.723,0.902-20.727,4.684-30.395,3.695
	c-15.813-1.617-31.734-6.477-47.504-8.965c-17.27-2.727-35.227-2.715-52.687-3.176c16.449-11.106,41.656-24.078,52.172-41.004
	c2.156-15.699-15.207-36.195-22.969-49.238C732.5,821.516,691.574,725.969,672.367,666.805z"/>
<path style="fill:#FFFFFF;" d="M1979.355,1818.801c43.715-2.942,84.094,3.598,121.105,28.484
	c38.457,25.863,70.289,69.281,78.773,115.273c9.027,48.914-0.988,99.203-29.805,139.895
	c-30.359,42.863-76.039,66.086-126.805,75.012c-44.684,1.476-86.727-4.848-124.637-30.418
	c-38.516-25.98-68.191-68.48-76.496-114.395c-8.145-45.039,0.871-95.543,27.27-133.277
	C1881.059,1853.203,1924.703,1828.734,1979.355,1818.801z"/>
<path style="fill:#FFFFFF;" d="M1254.289,1840.207c5.815-0.521,11.636-0.615,17.461-0.281c5.828,0.336,11.6,1.095,17.316,2.277
	c48.391,10.09,68.668,45.84,93.238,83.863c42.508,9.211,87.734,10.824,130.895,17.152c92.841,14.299,185.574,29.264,278.199,44.895
	l-0.555,24.555c-41.637,9.789-84.934,15.27-127.113,22.379c-81.495,14.576-163.26,27.427-245.297,38.555
	c-12.396,1.12-24.807,2.027-37.234,2.723c-7.203,8.77-11.899,19.086-17.363,28.965c-15.715,28.406-37.984,47.297-69.59,55.789
	c-18.234,4.898-36.543,3.766-54.262-2.613c-30.414-10.949-57.773-32.574-85.348-49.18
	c-61.992-37.336-123.379-75.258-186.516-110.648c42.402-29.238,90.246-53.539,134.805-79.43
	c36.879-21.43,72.902-46.059,111.195-64.785C1227.332,1847.961,1239.883,1843.215,1254.289,1840.207z"/>
<path d="M1262.168,1972.742c3.742,0.508,7.625,0.969,11.262,1.992c6.809,1.918,12.91,7.25,16.078,13.512
	c3.387,6.707,3.519,14.359,1.027,21.383c-3.73,10.527-10.918,15.906-20.738,20.387c-4.547-0.316-9.641-0.754-13.996-2.137
	c-7.012-2.231-13.562-8.211-16.73-14.801c-3.293-6.836-3.203-14.559-0.211-21.481
	C1243.434,1981.016,1251.953,1976.75,1262.168,1972.742z"/>
<path style="fill:#FFFFFF;" d="M2721.285,1838.27c15.137-1.125,27.789,0.145,42.109,5.34c26.055,9.449,49.578,26.031,73.664,39.531
	c38.49,21.081,76.815,42.458,114.977,64.133c27.785,15.957,54.789,33.254,83.25,48c-56.301,36.957-116.09,70.867-174.039,105.308
	c-33.055,19.645-68.195,44.34-103.508,59.313c-8.055,3.414-15.203,4.816-23.938,4.988c-34.945,0.691-77.07-21.555-94.75-51.531
	c-5.977-10.129-11.438-28.672-20.023-35.93c-0.73-0.617-1.5-1.188-2.25-1.781c-68.723-9.512-137.016-21.727-205.617-31.988
	c-67.352-10.07-135.57-18.051-202.07-32.848c-0.004-6.426-1.145-16.605,2.012-22.016c37.953-10.98,80.25-15.105,119.387-21.117
	l202.223-31.5c28.449-4.457,57.551-7.082,85.742-12.711l2.254-0.465c4.332-9.117,8.613-18.402,14.086-26.906
	C2655.023,1864.645,2685.176,1845.941,2721.285,1838.27z"/>
<path d="M2721.078,1968.859c3.398,0.086,6.879,0.148,10.242,0.676c7.301,1.152,14.082,5.914,18.098,12.051
	c4.344,6.64,5.414,14.555,3.742,22.254c-2.547,11.75-8.988,17.434-18.836,23.492c-2.582,0.059-5.168,0.105-7.75-0.028
	c-7.891-0.41-15.496-3.906-20.563-10.07c-5.004-6.094-6.355-13.824-5.121-21.476
	C2702.984,1982.77,2710.769,1976.039,2721.078,1968.859z"/>
<path style="fill:#FFFFFF;" d="M1997.816,962.219c5.199,3.496,8.649,10.211,11.961,15.469
	c29.625,47.031,54.805,97.809,81.773,146.41c21.898,39.457,51.258,80.965,65.508,123.863c4.59,13.824,5.32,23.207,2.027,37.469
	c-10.574,45.809-42.656,67.52-79.809,90.902c-9.73,51.422-60.695,401.586-67.344,411.844c-1.645,2.543-4.781,2.09-7.543,2.547
	c-5.984,0.168-11.059,0.137-16.902-1.258c-8.352-22.227-13.625-77.797-17.723-103.262c-10.349-65.456-21.218-130.824-32.606-196.105
	c-6.328-37.828-10.984-76.488-20.328-113.707c-37.242-24.73-71.106-48.375-80.438-95.102c-2.914-14.602,2.066-31.133,7.672-44.652
	c19.063-45.996,52.59-96.973,77.523-140.969C1946.601,1051.543,1969.547,1004.184,1997.816,962.219z"/>
<path d="M1986.387,1224.766c3.562-0.305,7.137-0.59,10.715-0.543c7.984,0.106,15.899,4.098,21.242,9.992
	c5.887,6.492,8.09,14.859,6.957,23.484c-1.574,11.98-8.273,18.254-17.402,25.324c-5.07,0.539-10.723,0.988-15.785,0.121
	c-7.644-1.316-15.195-6.871-19.457-13.231c-0.526-0.791-1.013-1.607-1.461-2.445c-0.445-0.839-0.849-1.697-1.211-2.574
	c-0.359-0.88-0.676-1.775-0.949-2.683c-0.273-0.911-0.501-1.834-0.684-2.766c-0.182-0.932-0.318-1.871-0.406-2.816
	c-0.091-0.945-0.134-1.893-0.129-2.844c0.005-0.95,0.056-1.898,0.152-2.844c0.099-0.945,0.243-1.883,0.434-2.813
	C1970.703,1236.527,1976.988,1231.164,1986.387,1224.766z"/>
<path style="fill:#FFFFFF;" d="M1988.719,2205.074c5.402-0.039,10.746,0.219,16.137,0.516c1.262,0.801,2.867,1.219,3.781,2.402
	c6.969,9.016,61.078,370.184,74.172,414.66c33.715,20.309,61.543,43.578,71.719,83.355c4.289,16.77,3.73,32.93-0.781,49.613
	c-6.957,25.719-21.387,50.148-33.641,73.676c-36.027,69.168-77.094,135.004-116.07,202.453l-2.098,0.832
	c-1.562-0.922-1.871-0.984-3.308-2.516c-8.828-9.39-16.539-27.258-22.977-38.695c-20.481-36.391-40.02-73.379-61.172-109.379
	c-9.266-15.77-18.625-31.766-29.098-46.766c-12.961-18.566-28.043-36.012-37.125-56.953c-8.258-19.043-11.449-39.621-8.305-60.246
	c3.664-24.047,18.824-53.308,38.105-68.891c10.906-8.813,23.313-15.988,34.531-24.52c9.012-30.242,12.641-64.602,18.5-95.77
	c13.594-72.324,25.273-145.043,37.953-217.543C1975.242,2275.867,1980.527,2240.117,1988.719,2205.074z"/>
<path d="M1992.457,2715.074c3.91-0.473,7.938-0.984,11.863-0.43c7.391,1.043,14.402,4.754,18.832,10.848
	c3.867,5.316,5.219,12.074,4.195,18.523c-1.855,11.727-8.285,17.195-17.688,23.539c-4.703,0.355-9.941,0.996-14.57-0.094
	c-6.348-1.496-12.461-6.176-16.145-11.465c-4.277-6.141-5.391-13.637-3.625-20.863
	C1977.836,2724.836,1983.715,2720.309,1992.457,2715.074z"/>
<path style="fill:#FFFFFF;" d="M2731.602,1266.082c1.723,11.738-7.297,33.926-10.727,45.789
	c-20.996,72.676-43.59,149.992-82.5,215.406c2.234,10.789,4.902,21.523,7.387,32.258c-0.818,3.247-1.699,6.477-2.645,9.688
	c-7.926,27.188-27.75,53.668-53.109,66.746c-37.648,19.414-69.875,5.625-106.305-6.492
	c-35.406,17.531-92.895,77.274-125.863,105.316c-59.375,51.373-120.413,100.686-183.113,147.942
	c-7.738-9.988-15.969-19.363-24.434-28.738c-10.613-10.613-21.457-20.109-33.305-29.324
	c56.043-75.922,120.188-147.363,180.668-219.785c22.734-27.219,53.082-54.488,69.387-85.781c-4.332-8.707-8.637-18-11.574-27.269
	c-8.461-26.695-7.258-52.793,5.898-77.719c11.082-20.992,28.57-40.039,50.23-50.184c25.008-11.707,46.133,0.035,70.07-6.566
	c20.758-5.727,61.715-25.492,84.629-34.461C2620.5,1301.346,2675.602,1282.405,2731.602,1266.082z"/>
<path d="M2499.668,1465.102c5.41-0.633,11.297-1.617,16.684-0.449c7.355,1.598,13.887,6.902,17.727,13.273
	c3.516,5.832,4.316,12.797,2.531,19.348c-2.723,9.992-9.215,14.383-17.824,19.223c-4.086,0.52-8.32,1.113-12.441,0.723
	c-0.909-0.081-1.811-0.211-2.707-0.391c-0.896-0.18-1.779-0.406-2.648-0.68c-0.87-0.276-1.723-0.598-2.559-0.965
	c-0.836-0.367-1.65-0.779-2.441-1.234c-0.789-0.456-1.552-0.953-2.289-1.492c-0.737-0.539-1.443-1.116-2.117-1.73
	c-0.674-0.617-1.313-1.267-1.918-1.949c-0.604-0.685-1.169-1.401-1.695-2.148c-4.554-6.34-5.891-14.004-4.09-21.566
	C2486.211,1475.254,2491.289,1470.203,2499.668,1465.102z"/>
<path style="fill:#FFFFFF;" d="M2175.109,2116.605c35.43,21.527,67.441,51.336,99.113,77.984l130.703,109.863
	c23.484,19.91,48.633,47.949,76.801,60.797c39.098-7.246,59.668-25.324,100.879-6.055c17.723,8.289,34.559,23.703,44.07,40.723
	c14.094,25.211,17.305,54.988,26.438,82.082c29.496,87.48,56.578,176.485,88.949,262.883c-9.891-5.305-20.012-9.859-30.258-14.422
	c-31.781-13.605-64.82-23.652-97.301-35.348c-39.809-14.328-79.117-30.34-119.215-43.836c-25.223-8.488-52.391-11.734-76.461-23.375
	c-15.336-7.418-28.773-18.039-38.836-31.855c-25.93-35.602-20.41-74.566-13.789-114.973l-1.383-2.832
	c-13.848-28.973-67.93-82.5-91.262-110.133c-54.254-64.246-107.188-128.992-159.68-194.664
	C2136.316,2155.867,2156.297,2138.203,2175.109,2116.605z"/>
<path d="M2507.887,2480.477c4.309-0.289,9.301-0.449,13.531,0.477c7.152,1.566,14.465,7.008,18.195,13.262
	c3.957,6.637,4.371,14.512,2.105,21.809c-3.414,10.984-11.5,15.719-21.305,20.477c-3.555-0.219-7.183-0.418-10.683-1.082
	c-8.461-1.598-16.828-7.004-21.266-14.434c-3.43-5.742-4.082-12.313-2.289-18.727
	C2489.359,2490.891,2498.215,2485.91,2507.887,2480.477z"/>
<path style="fill:#FFFFFF;" d="M1825.719,2114.566c7.297,5.461,13.629,15.648,20.008,22.461
	c12.289,13.125,25.074,24.461,39.133,35.672c-48.012,61.422-98.523,121.25-148.719,180.906
	c-21.094,25.07-91.504,101.367-102.48,127.891c9.98,38.34,22.734,76.098,2.641,113.859c-8.934,16.789-23.977,28.219-41.047,36.07
	c-21.649,9.961-45.871,7.668-68.262,14.59c-21.192,6.551-41.93,15.774-62.918,23.102c-51.935,18.601-104.356,35.714-157.262,51.336
	c-14.779,4.612-29.529,9.318-44.25,14.117c20.652-69.535,46.137-138.469,69.609-207.168c7.305-21.383,17.066-42.844,22.977-64.539
	c4.188-15.367,2.426-32.082,6.398-47.641c5.879-23.016,22.527-43.586,43.457-54.742c35.84-19.105,76.473-8.528,113.047,1.754
	c26.535-14.367,47.77-36.711,71.215-55.418c59.113-47.176,116.762-95.992,175.699-143.387
	C1785.191,2147.168,1804.695,2129.777,1825.719,2114.566z"/>
<path d="M1487.285,2480.715c4.246,0.566,8.969,1,12.887,2.805c5.828,2.691,10.371,8.09,12.477,14.09
	c2.91,8.305,1.367,17.379-2.891,24.945c-5.379,9.566-11.965,12.922-22.184,15.961c-4.367-1.254-8.973-2.469-13.09-4.41
	c-6.75-3.191-11.84-9.754-14.09-16.758c-2.348-7.305-1.531-14.672,2.406-21.262
	C1468.574,2486.438,1476.766,2483.105,1487.285,2480.715z"/>
<path style="fill:#FFFFFF;" d="M1260.195,1257.512c33.809,9.594,67.027,22.488,100.293,33.879
	c55.301,18.933,109.691,36.68,162.156,62.793c11.289-1.148,23.605-3.293,34.879-2.023c30.762,3.469,52.769,26.328,70.711,49.727
	c35.004,45.637,12.164,67.121,8.031,110.234c-0.883,9.199,1.789,15.316,6.855,22.793c24.508,36.172,58.336,68.262,86.902,101.399
	c52.81,61.961,104.556,124.798,155.238,188.512c-10.184,9.969-20.914,19.48-31.367,29.176c-9.992,9.434-19.258,19.602-28.652,29.625
	c-77.461-50.953-160.695-123.973-230.476-186.32c-13.973-12.48-58.379-57.578-73.379-59.898
	c-20.887-3.23-50.699,15.727-81.32,11.789c-28.832-3.703-56-22.852-73.258-45.895c-18.324-24.469-15.383-48.387-11.524-76.723
	c-29.086-59.105-46.68-122.48-66.488-185.113C1279.879,1313.266,1269.047,1285.734,1260.195,1257.512z"/>
<path d="M1480.797,1465.125c4.691-0.406,10.074-1.199,14.715-0.277c7,1.387,14.016,7.348,17.676,13.313
	c0.479,0.781,0.915,1.586,1.309,2.414c0.396,0.831,0.746,1.678,1.051,2.543c0.302,0.865,0.559,1.744,0.77,2.637
	c0.211,0.893,0.375,1.796,0.492,2.707c0.115,0.909,0.181,1.822,0.199,2.738c0.018,0.919-0.012,1.836-0.09,2.75
	c-0.081,0.914-0.208,1.82-0.383,2.719c-0.175,0.901-0.397,1.79-0.668,2.668c-2.984,10.047-8.918,13.773-17.613,18.594
	c-4.203,0.082-8.355,0.129-12.512-0.613c-7.629-1.359-14.875-5.93-19.188-12.41c-3.695-5.547-4.801-12.129-3.336-18.617
	C1465.563,1475.898,1472.246,1470.633,1480.797,1465.125z"/>
<path style="fill:#FFFFFF;" d="M1786.332,2043.418l5.531-0.496c9.141,7.078,15.719,34.727,19.555,45.699
	c-27.531,17.73-51.629,42.219-77.031,62.938c-73.465,59.922-145.43,122.543-220.418,180.438
	c-39.078-11.09-81.109-15.773-119.074,1.996c-31.406,14.703-56.606,46.023-62.359,80.637c-2.598,15.645-2.113,32.016-6.508,47.289
	c-9.227,32.051-22.578,63.938-33.84,95.418c-41.5-16.113-83.953-33.418-126.785-45.5c-79.852-22.528-166.652-27.508-249.023-20.813
	c-16.055,1.633-31.961,2.859-48.09,3.414c24.816-27.219,56.465-47.988,81.699-75.324c78.691-85.246,129.773-187.965,182.488-289.98
	c21.914,11.398,42.02,24.926,62.988,37.887c30.629,18.926,69.742,28.391,105.246,19.465c45.996-11.559,71.008-41.848,94.008-80.941
	c27.766-4.723,56.09-7.402,83.98-11.527C1580.996,2078.883,1685.152,2064.695,1786.332,2043.418z"/>
<path style="fill:#FFFFFF;" d="M1286.609,1437.41c0.359,0.051,0.754-0.004,1.078,0.16c5.32,2.699,35.234,85.91,37.344,98.008
	c3.375,19.383-2.199,38.203,4.324,57.73c10.898,32.637,34.918,55.09,64.988,70.254c42.055,21.203,77.266,13.438,119.758-0.5
	c37.297,26.492,70.313,62.727,104.59,93.289c60.492,53.93,124.801,106.945,190.629,154.297c-5.555,16.215-9.352,33.09-13.574,49.695
	c-73.742-14.867-149.02-28.504-223.613-38.406c-56.68-7.527-114.98-11.152-171.031-22.348c-8.172-4.945-14.504-19.215-19.781-27.258
	c-1.125-1.68-2.286-3.334-3.484-4.965c-1.198-1.63-2.431-3.234-3.699-4.812c-1.268-1.575-2.57-3.122-3.906-4.641
	c-1.336-1.521-2.703-3.01-4.101-4.469c-1.401-1.461-2.833-2.889-4.297-4.285c-1.464-1.398-2.956-2.763-4.477-4.094
	c-1.523-1.333-3.074-2.631-4.652-3.895c-1.581-1.266-3.188-2.495-4.82-3.688c-1.633-1.195-3.29-2.353-4.973-3.473
	c-1.685-1.123-3.392-2.207-5.121-3.254c-1.732-1.047-3.484-2.056-5.258-3.028c-1.776-0.971-3.572-1.902-5.387-2.793
	c-1.815-0.893-3.65-1.746-5.504-2.559c-1.852-0.812-3.721-1.583-5.609-2.312c-1.885-0.732-3.786-1.421-5.703-2.067
	c-1.917-0.649-3.846-1.254-5.789-1.816c-63.879-18.375-120.203,23.433-173.43,52.402c-16.367-30.652-28.957-63.309-45.672-93.949
	c-40.816-74.824-91.773-146.617-151.981-207.148c-22.32-22.438-46.934-42.59-69.918-64.363
	C1025.316,1519.668,1137.988,1501.133,1286.609,1437.41z"/>
<path style="fill:#FFFFFF;" d="M2707.246,1446.57c45.113,11.305,89.41,26.027,134.52,37.539
	c95.473,24.359,195.824,33.176,293.602,19.262c-86.887,63.984-165.262,162.629-216.098,257.527
	c-17.953,33.515-30.832,70.766-50.371,103.019c-0.446,0.742-0.91,1.469-1.367,2.203c-54.949-24.551-103.887-68.285-168.203-50.68
	c-45.02,12.324-76.441,42.195-99.023,81.91c-37.441,7.379-75.988,11.672-113.785,17.227
	c-56.539,8.309-112.742,17.852-169.137,26.992c-37.043,6.004-74.34,10.742-111.109,18.285c-2.438-17.004-8.262-33.219-13.93-49.348
	c38.41-35.82,81.621-66.813,121.434-101.16l96.645-83.629c25.18-22.121,50.074-45.746,77.25-65.352
	c28.61,9.621,58.223,18.352,88.504,10.961c34.387-8.398,62.758-34.844,80.539-64.672c13.914-23.34,17.461-44.598,10.996-70.793
	C2681.109,1506.197,2694.288,1476.432,2707.246,1446.57z"/>
<path style="fill:#FFFFFF;" d="M2205.715,2040.32l232.699,37.277c54.355,8.25,108.891,14.379,162.805,25.352
	c1.315,2.638,2.678,5.25,4.09,7.836c20.359,37.567,52.066,64.031,93.438,75.785c44.871,12.75,76.445-4.199,114.246-25.828
	l54.883-30.914c20.188,35.648,34.438,74.883,54.094,111.039c45.832,84.313,143.414,212.652,225.723,262.473
	c-8.734-1.984-17.578-3.281-26.422-4.68c-151.594-18.344-271.398,2.168-412.996,59.676l-44.348-142.887
	c-9.973-32.227-33.008-61.168-62.906-76.988c-38.567-20.406-77.016-15.359-117.043-2.953
	c-30.961-23.965-59.207-51.555-89.301-76.629c-68.359-56.961-137.855-112.91-205.461-170.734
	C2195.215,2072.336,2200.586,2056.43,2205.715,2040.32z"/>
<path style="fill:#FFFFFF;" d="M1912.555,2187.383c14.566,6.32,30.52,10.73,45.578,15.844
	c-25.238,134.969-46.043,270.816-70.879,405.867c-7.365,4.005-14.333,8.611-20.906,13.817
	c-30.805,24.871-49.457,56.058-53.473,95.66c-5.637,55.535,20.633,94.488,54.195,135.957
	c-75.219,77.02-124.98,85.239-210.633,136.836c-58.301,35.113-106.328,82.461-148.051,135.77c-3.602,4.355-6.953,7.75-11.32,11.328
	c-2.402-5.414,5.02-43.047,6.09-52.289c3.708-30.284,5.134-60.675,4.277-91.172c-0.31-12.425-0.942-24.832-1.895-37.223
	c-0.953-12.393-2.225-24.753-3.816-37.078c-1.591-12.326-3.5-24.601-5.727-36.828s-4.767-24.388-7.621-36.484
	c-2.854-12.096-6.018-24.111-9.492-36.043c-3.477-11.932-7.258-23.765-11.344-35.5c-4.089-11.737-8.476-23.361-13.164-34.871
	c-4.688-11.51-9.669-22.892-14.945-34.145c32.914-13.242,70.367-25.527,104.793-34.023c15.777-3.894,31.969-6.195,47.652-10.453
	c28.816-7.824,53.844-26.266,68.594-52.477c22.941-40.754,12.574-84.523,0.73-126.691c32.801-40.465,68.602-79.125,102.504-118.754
	L1912.555,2187.383z"/>
<path style="fill:#FFFFFF;" d="M1497.601,862.57c21.028,15.738,50.145,56.156,74.469,77.148
	c91.086,78.625,189.93,136.445,298.484,187.773c-8.902,18.449-18.289,36.379-28.422,54.184
	c-22.621,39.75-40.344,70.785-28.211,117.77c11.324,43.867,41.375,71.332,78.91,93.738c10.758,52.125,17.223,106.223,25.953,158.832
	c13.125,79.051,28.512,161.656,39.215,240.789c-3.949,4.332-9.758,5.027-15.285,6.801l-31.375,9.656
	c-15.621-24.801-38.762-47.473-57.672-70.121c-33.284-40.227-67.117-79.986-101.5-119.277
	c-30.016-34.371-61.258-68.422-88.785-104.828c9.395-34.887,16.281-68.75,1.781-103.504c-13.832-33.156-54.902-78.355-91.711-84.5
	c-15.809-2.637-32.266,1.5-47.969-2.426c-24.855-6.219-50.691-21.082-74.566-31.043c7.965-34.676,19.488-68.524,27.613-103.192
	c3.234-13.372,6.167-26.81,8.797-40.312c2.633-13.503,4.961-27.057,6.984-40.664c2.026-13.609,3.746-27.257,5.16-40.942
	c1.411-13.682,2.517-27.391,3.316-41.125c0.8-13.734,1.291-27.479,1.473-41.234c0.185-13.758,0.06-27.512-0.375-41.262
	c-0.432-13.75-1.172-27.483-2.219-41.199C1500.619,889.914,1499.263,876.227,1497.601,862.57z"/>
<path style="fill:#FFFFFF;" d="M2497.445,868.691c3.063,17.32-5.984,88.535-5.723,115.773
	c1.043,109.332,29.75,209.293,66.234,311.293c-22.633,9.781-63.601,31.5-86.336,34.109c-18.855,2.168-37.621-3.34-56.336,2.141
	c-34.442,10.086-64.301,42.516-80.308,73.969c-18.387,36.129-12.184,71.684-0.344,108.309
	c-31.02,48.543-74.121,91.219-111.711,134.793c-45.613,52.871-89.535,107.219-135.098,160.168l-17.766-6.789l-28.317-8.039
	c8.586-42.535,12.277-86.117,19.367-128.973c14.813-89.539,31.523-180.082,42.613-270.137c34.965-19.648,65.656-49.59,77.77-88.664
	c20.719-66.84-26.191-122.082-55.98-177.778c15.559-7.527,31.652-13.832,47.156-21.566c91.07-45.422,178.797-98.938,254.262-167.613
	C2451.711,917.133,2474.074,892.629,2497.445,868.691z"/>
<path style="fill:#FFFFFF;" d="M2083.098,2187.535c2.926,0.488,4.02,2.281,6.078,4.485c43.57,46.68,82.125,99,123.402,147.762
	c41.676,49.234,87.766,96.379,126.586,147.844c-8.77,34.313-11.371,69.281,3.945,102.266
	c30.566,65.836,83.066,70.187,143.645,87.859c25.559,7.457,50.695,17.301,75.758,26.285
	c-64.992,134.637-80.055,281.551-63.289,428.606c-3.473-0.676-5.867-5.758-7.973-8.629
	c-57.055-83.066-169.625-157.867-259.234-203.32c-33.281-16.883-68.531-30.211-101.258-47.918
	c22.574-52.102,60.703-100.613,52.512-160.391c-6.816-49.746-36.809-80.68-75.176-109.852
	c-27.836-132.52-44.18-267.656-69.457-400.672C2053.585,2197.477,2068.405,2192.702,2083.098,2187.535z"/>
</svg>
