<?xml version="1.0" encoding="utf-8"?>
<!-- Generator: Adobe Illustrator 27.5.0, SVG Export Plug-In . SVG Version: 6.00 Build 0)  -->
<svg xmlns="http://www.w3.org/2000/svg" xmlns:xlink="http://www.w3.org/1999/xlink" viewBox="0 0 500 499.999" width="595" height="842" preserveAspectRatio="xMidYMid meet" data-scaled="true">
<g id="BACKGROUND">
	<rect x="0" y="-0.001" style="fill-rule:evenodd;clip-rule:evenodd;fill:#FFFFFF;" width="500" height="499.999"/>
</g>
<g id="OBJECTS">
	<g>
		<g>
			<path d="M200.085,112.67c0.337,0.505,0.892,0.779,1.458,0.779c0.334,0,0.671-0.095,0.97-0.294
				c0.804-0.537,1.021-1.623,0.485-2.427c-1.411-2.115-6.959-7.072-7.587-7.63c-0.723-0.642-1.828-0.577-2.471,0.146
				c-0.642,0.722-0.577,1.828,0.145,2.471C195.328,107.706,199.211,111.358,200.085,112.67z"/>
			<path d="M210.158,109.931c0.245,0.733,0.927,1.197,1.66,1.197c0.184,0,0.37-0.029,0.554-0.09
				c0.917-0.306,1.413-1.297,1.107-2.213c-0.35-1.051-2.713-5.544-3.429-6.896c-0.452-0.855-1.512-1.179-2.365-0.728
				c-0.854,0.452-1.18,1.511-0.728,2.365C208.35,106.2,209.971,109.381,210.158,109.931z"/>
			<path d="M220.021,107.547c0.083,0.908,0.846,1.591,1.741,1.591c0.053,0,0.107-0.003,0.161-0.007
				c0.962-0.087,1.672-0.938,1.584-1.901c-0.34-3.738-1.647-8.995-1.703-9.216c-0.234-0.938-1.184-1.506-2.122-1.274
				c-0.938,0.234-1.508,1.185-1.273,2.122C218.421,98.914,219.706,104.081,220.021,107.547z"/>
			<path d="M231.156,107.661c0.12,0.025,0.239,0.037,0.357,0.037c0.812,0,1.54-0.568,1.711-1.395
				c0.564-2.719,1.549-5.55,2.101-6.052c0.754-0.605,0.874-1.706,0.27-2.461c-0.604-0.753-1.706-0.874-2.46-0.27
				c-1.804,1.447-2.935,6.128-3.337,8.073C229.601,106.539,230.209,107.465,231.156,107.661z"/>
			<path d="M239.461,108.576c0.274,0.157,0.572,0.231,0.867,0.231c0.607,0,1.197-0.316,1.521-0.88
				c0.038-0.066,3.819-6.606,8.331-9.314c0.829-0.497,1.098-1.572,0.6-2.401c-0.497-0.829-1.573-1.098-2.401-0.6
				c-5.304,3.182-9.397,10.277-9.569,10.578C238.331,107.028,238.622,108.096,239.461,108.576z"/>
			<path d="M214.02,117.243c0.022,0.011,2.266,1.161,3.305,2.72c0.337,0.506,0.892,0.779,1.458,0.779
				c0.333,0,0.671-0.095,0.969-0.294c0.804-0.536,1.021-1.623,0.485-2.427c-1.54-2.309-4.337-3.752-4.651-3.909
				c-0.866-0.431-1.916-0.081-2.348,0.783C212.805,115.759,213.155,116.811,214.02,117.243z"/>
			<path d="M229.016,119.338c0.123,0.027,0.246,0.041,0.368,0.041c0.795,0,1.523-0.564,1.721-1.365
				c0.14-0.564,1.582-2.133,3.025-3.291c0.754-0.604,0.876-1.705,0.272-2.459c-0.604-0.754-1.704-0.876-2.459-0.273
				c-0.894,0.715-3.845,3.214-4.269,5.332C227.486,118.255,228.087,119.13,229.016,119.338z"/>
			<path d="M498.314,423.234c-0.272-0.01-27.363-1.006-44.388-1.987c-6.382-0.368-16.636-0.16-27.097,0.254
				c2.558-2.277,4.934-5.369,7.016-8.084l0.481-0.627c3.626-4.713,2.786-15.872,2.678-17.129c-0.083-0.962-0.945-1.676-1.892-1.594
				c-0.963,0.082-1.677,0.929-1.596,1.892c0.259,3.041,0.41,11.61-1.964,14.697l-0.485,0.631c-2.887,3.765-7.249,9.453-10.659,9.978
				c-0.414,0.063-0.766,0.272-1.026,0.562c-15.015,0.712-28.631,1.67-29.663,1.743c-0.226,0.017-0.437,0.078-0.629,0.17
				c-0.826-1.466-1.453-2.521-1.727-2.975c-0.067-0.111-0.146-0.211-0.233-0.302c2.173-7.235-2.517-23.125-4.24-28.502
				c-0.007-0.021-0.018-0.038-0.026-0.059c0.303-2.194,0.049-4.64-0.476-7.021c4.67-0.513,34.609-3.655,45.881-1.282
				c1.798,0.378,3.446,0.73,4.978,1.056c9.199,1.96,14.267,3.039,21.772,3.617c8.367,0.644,41.466,9.147,41.799,9.233
				c0.146,0.038,0.293,0.056,0.438,0.056c0.779,0,1.49-0.524,1.693-1.314c0.241-0.936-0.322-1.89-1.258-2.131
				c-1.373-0.354-33.732-8.666-42.403-9.333c-7.272-0.56-12.259-1.622-21.31-3.551c-1.534-0.327-3.186-0.679-4.986-1.058
				c-12.544-2.642-45.221,1.023-47.531,1.288c-1.283-4.017-2.958-7.309-3.327-8.012c-0.007-0.014-0.018-0.025-0.026-0.039
				c0.521-2.777,1.449-6.514,2.472-10.624c2.078-8.354,4.741-19.077,6.149-29.96c0.056-0.193,0.122-0.374,0.172-0.575
				c0.069-0.277,0.061-0.553,0.001-0.814c0.338-2.837,0.589-5.678,0.712-8.485c0.387-8.808-1.848-28.177-5.614-36.108
				c-0.904-3.392-1.78-7.311-2.707-11.457c-1.765-7.896-3.59-16.063-6.04-22.733c-4.273-11.639-9.667-23.156-16.031-34.23
				c-1.846-3.212-3.52-6.664-5.138-10.001c-2.046-4.221-3.979-8.208-5.906-10.888c-15.414-21.446-30.437-26.312-31.069-26.508
				c-0.042-0.013-0.084-0.016-0.126-0.026c3.528-2.739,9.14-9.396,8.648-23.89c-0.62-18.274-17.501-37.409-21.071-41.257
				c2.209-2.212,3.511-4.548,2.733-6.688c-0.419-1.152-1.237-1.98-2.366-2.394c-0.668-0.245-1.406-0.32-2.158-0.285
				c1.421-2.223,2.331-4.795,1.065-6.907c-0.607-1.012-1.543-1.657-2.705-1.866c-1.155-0.207-2.435,0.059-3.648,0.521
				c1.363-3.52,2.5-7.578,1.574-9.689c-0.364-0.832-1.023-1.427-1.855-1.677c-2.831-0.846-6.466,2.227-12.494,7.323
				c-1.387,1.173-2.846,2.405-4.36,3.64c-0.02-0.007-0.038-0.018-0.058-0.024c-1.016-0.302-25.243-7.355-56.727-3.708
				c-26.702,3.092-46.703,17.131-49.31,19.034c-2.852-2.731-5.531-5.457-7.934-7.909c-3.755-3.833-6.722-6.86-8.717-8.19
				c-2.212-1.474-4.098-0.736-5.127,0.447c-1.502,1.725-1.954,5.368-1.192,8.8c-2.225-0.952-4.5-1.441-5.988-0.479
				c-0.817,0.528-1.71,1.636-1.331,3.916c0.398,2.391,1.417,4.48,2.564,6.18c-1.27-0.054-2.476,0.195-3.363,0.978
				c-1.395,1.231-1.603,3.272-0.617,6.066c1.667,4.722,6.559,9.351,12.779,12.811c-2.852,4.757-13.905,24.302-14.204,41.94
				c-0.306,18.063,13.121,29.45,16.557,32.065c-5.484,6.736-12.066,18.058-13.238,34.474c-2.445,34.229,5.156,62.635,22.591,84.429
				c14.377,17.972,38.063,35.847,52.214,46.527c5.338,4.029,9.554,7.211,10.864,8.608c0.06,0.064,0.112,0.12,0.17,0.183
				c-0.474,1.2-2.239,5.488-4.675,9.277c-2.645,4.114-6.32,6.01-10.096,5.203c-0.245-0.052-24.895-4.597-30.627,3.338
				c-1.049,1.453-1.767,3.03-2.231,4.625c-4.035,0.228-20.081,1.501-32.921,7.756c-10.716,5.219-16.417,4.903-19.821,4.715
				c-0.616-0.034-1.166-0.064-1.66-0.064c-2.63,0-6.455-2.086-16.544-17.221c-10.88-16.321-13.508-24.133-16.544-35.059
				c-1.963-7.067-4.577-11.397-7.344-15.98c-1.992-3.3-4.052-6.712-5.984-11.403c-2.337-5.675-3.496-10.058-4.837-15.132
				c-1.317-4.982-2.81-10.629-5.739-18.93c-0.427-1.21-0.884-2.329-1.362-3.375c2.173-1.505,9.383-6.689,14.306-12.479
				c5.588-6.574,8.732-10.733,8.372-19.769c-0.342-8.546-6.216-21.038-6.466-21.565c-0.318-0.672-1.024-1.07-1.766-0.991
				c-0.739,0.079-1.349,0.616-1.519,1.339c-0.719,3.057-4.154,7.371-8.132,12.366c-2.611,3.279-5.571,6.996-8.196,10.933
				c-4.6,6.9-4.336,15.402-3.558,20.604c-3.792-3.165-7.516-3.943-9.529-4.111c-0.004-0.017-0.003-0.033-0.008-0.05
				c-0.166-0.635-4.112-15.638-8.563-21.8c-4.332-5.999-10.82-9.884-17.801-10.661c-5.401-0.6-12.315-5.891-12.385-5.944
				c-0.554-0.427-1.308-0.484-1.918-0.145c-0.611,0.339-0.962,1.009-0.892,1.704c0.141,1.408,1.478,13.889,4.996,18.463
				c0.711,0.924,1.375,2.043,2.079,3.228c2.533,4.265,5.684,9.572,14.808,13.865c6.757,3.18,11.749,3.847,14.748,3.847
				c0.386,0,0.733-0.014,1.061-0.032c-1.159,2.048-2.464,4.91-1.971,6.725c0.207,0.762,0.695,1.369,1.375,1.708
				c0.863,0.432,5.613,5.45,7.334,18.88c1.57,12.246,4.239,29.094,8.043,39.813c0.726,2.044,1.529,4.18,2.374,6.427
				c3.319,8.821,7.451,19.8,9.816,33.727c1.017,5.986,2.537,12.58,4.008,18.958c2.779,12.051,5.653,24.512,4.607,31.201
				c-1.613,10.326-19.007,59.195-19.182,59.688c-0.324,0.911,0.15,1.912,1.061,2.236c0.194,0.069,0.393,0.102,0.587,0.102
				c0.719,0,1.393-0.446,1.648-1.162c0.721-2.023,17.68-49.674,19.343-60.322c1.15-7.358-1.67-19.585-4.655-32.529
				c-1.46-6.328-2.969-12.872-3.968-18.757c-2.421-14.259-6.618-25.412-9.99-34.373c-0.838-2.226-1.633-4.34-2.352-6.365
				c-3.7-10.427-6.322-27.011-7.87-39.087c-1.6-12.477-6.048-19.448-8.788-21.298c0.117-0.859,0.978-2.773,2.053-4.571
				c2.569,0.177,10.388,1.807,14.952,14.74c2.883,8.168,4.356,13.741,5.656,18.659c0.936,3.541,1.794,6.762,3.008,10.314
				c-0.8,0.374-3.253,0.477-5.472,0.202c-0.956-0.118-1.834,0.562-1.953,1.52c-0.119,0.959,0.56,1.833,1.519,1.953
				c0.581,0.073,1.728,0.191,3.022,0.191c1.358,0,2.875-0.134,4.073-0.585c0.248,0.644,0.507,1.298,0.786,1.976
				c2.034,4.939,4.164,8.467,6.225,11.879c2.64,4.372,5.133,8.502,6.968,15.107c0.027,0.098,0.054,0.189,0.081,0.286
				c-2.88,2.216-8.833,0.271-10.922-0.685c-0.877-0.408-1.918-0.022-2.322,0.855c-0.405,0.877-0.022,1.918,0.855,2.322
				c0.261,0.121,4.444,2.018,8.72,2.018c1.615,0,3.243-0.272,4.678-1.011c3.179,10.661,6.662,18.402,15.913,32.279
				c10.471,15.707,15.063,18.779,19.456,18.779c0.437,0,0.921,0.028,1.466,0.059c3.746,0.205,10.015,0.554,21.548-5.063
				c11.363-5.536,25.863-7,30.747-7.349c-0.155,2.046,0.039,3.991,0.434,5.598c0.696,2.832,2.023,4.863,3.737,5.72
				c0.251,0.125,0.512,0.229,0.779,0.32c0.79,3.191,3.645,8.369,9.371,8.369c0.714,0,1.472-0.081,2.277-0.256
				c0.626-0.136,1.127-0.603,1.307-1.217c0.18-0.614,0.011-1.278-0.442-1.73c-2.031-2.031-4.107-5.134-3.839-6.34
				c0.088-0.398,0.027-0.791-0.137-1.132c1.12-1.113,1.878-2.47,2.139-3.907c0.227-1.25,0.904-2.276,1.957-2.965
				c1.468-0.961,3.497-1.176,5.866-0.617c1.83,0.43,3.697,0.505,5.417,0.401c-0.525,0.762-0.986,1.615-1.35,2.586
				c-2.009,5.358-0.063,9.593,2.429,11.769c0.56,0.488,1.159,0.89,1.779,1.209c1.054,3.182,3.886,7.504,9.119,7.504
				c0.713,0,1.473-0.081,2.277-0.256c0.625-0.136,1.126-0.603,1.306-1.216c0.181-0.614,0.012-1.278-0.44-1.73
				c-1.823-1.828-3.614-4.397-3.838-5.82c0.973-1.338,1.216-2.926,1.395-4.199c0.32-2.274,0.48-3.416,3.19-3.932
				c1.558-0.297,4.114-0.604,7.075-0.96c14.147-1.699,26.021-3.502,28.03-8.382c0.078-0.19,0.149-0.391,0.224-0.587
				c0.03,0.002,0.058,0.011,0.089,0.012l50.391,1.658c0.02,0.001,0.039,0.001,0.059,0.001c0.181,0,0.354-0.035,0.519-0.087
				c0.992,2.194,7.159,15.135,20.016,28.192c-6.96,1.416-30.49,6.141-41.312,7.528c-6.333,0.812-17.458,3.341-29.235,6.018
				c-12.044,2.738-24.499,5.569-30.735,6.243c-6.486,0.701-19.514,4.113-31.28,7.81c1.076-3.399,2.698-8.897,3.36-13.089
				c1.064-6.737-1.991-13.63-2.122-13.92c-0.397-0.882-1.434-1.277-2.314-0.878c-0.881,0.396-1.274,1.433-0.877,2.313
				c0.027,0.062,2.759,6.221,1.856,11.939c-0.813,5.153-3.267,12.719-4.013,14.953c-9.357,3.072-17.236,6.142-19.258,7.853
				c-1.832,1.551-3.423,2.627-5.108,3.767c-2.142,1.449-4.357,2.948-7.047,5.445c-4.815,4.471-11.09,21.736-11.79,23.69
				c-0.326,0.91,0.148,1.911,1.058,2.237c0.195,0.07,0.394,0.103,0.59,0.103c0.718,0,1.392-0.445,1.647-1.16
				c1.822-5.087,7.328-19.011,10.876-22.306c2.493-2.314,4.501-3.673,6.628-5.111c1.688-1.142,3.432-2.322,5.408-3.994
				c3.851-3.258,40.208-14.814,52.764-16.172c6.438-0.696,18.993-3.55,31.135-6.311c11.179-2.541,22.738-5.169,28.904-5.96
				c12.847-1.647,43.255-7.914,43.561-7.978c0.105-0.021,0.205-0.056,0.302-0.095c5.074,4.762,11.052,9.432,18.023,13.484
				c19.89,11.565,30.891,16.403,37.834,16.403c1.152,0,2.193-0.133,3.144-0.391c2.376-0.645,4.233-2.124,5.517-4.396
				c3.408-6.031-3.271-20.529-7.785-29.016c6.596-0.453,47.236-3.157,62.85-2.257c17.061,0.983,44.189,1.982,44.46,1.991
				c1.004,0.048,1.777-0.72,1.813-1.685C500.034,424.082,499.28,423.269,498.314,423.234z M19.924,261.069
				c-0.759-1.277-1.476-2.484-2.314-3.574c-1.826-2.374-3.103-8.428-3.788-12.853c2.823,1.758,7.014,3.963,10.826,4.387
				c6.001,0.668,11.595,4.032,15.351,9.231c2.083,2.884,4.12,8.181,5.621,12.688c-5.153-5.438-12.411-12.199-16.313-14.265
				c-4.984-2.639-6.589-4.961-6.638-5.034c-0.516-0.807-1.588-1.048-2.401-0.54c-0.82,0.512-1.069,1.592-0.557,2.411
				c0.195,0.313,2.076,3.141,7.958,6.255c4.431,2.345,14.505,12.246,18.787,17.291c-2.63-0.001-7.084-0.615-13.245-3.514
				C25.06,269.718,22.332,265.123,19.924,261.069z M67.407,263.51c2.543-3.814,5.454-7.469,8.021-10.694
				c2.852-3.581,5.441-6.833,7.105-9.741c1.747,4.257,4.336,11.367,4.544,16.551c0.31,7.765-2.229,11.113-7.542,17.362
				c-3.758,4.42-9.115,8.593-12.066,10.749c0.469-2.194,2.43-9.965,7.758-16.092c6.904-7.939,7.999-16.492,8.042-16.853
				c0.115-0.958-0.567-1.827-1.525-1.944c-0.954-0.119-1.83,0.565-1.949,1.523c-0.009,0.078-1.04,7.883-7.208,14.976
				c-4.346,4.998-6.639,10.865-7.759,14.618C63.979,279.972,62.703,270.566,67.407,263.51z M383.217,420.558
				c-0.786,0.54-1.722,0.64-2.715,0.466c-0.141-0.053-0.288-0.084-0.438-0.099c-3.029-0.765-6.452-3.882-7.779-5.361
				c-2.69-5.609-6.526-10.748-7.695-12.26c1.654-1.356,2.733-3.069,3.195-5.123c0.368-1.639,0.297-3.32,0.003-4.893
				c3.229,2.535,7.175,4.914,10.269,4.542c1.008-0.12,1.889-0.51,2.61-1.143C383.798,407.609,385.49,418.995,383.217,420.558z
				 M336.29,415.705c-0.225-0.196-0.487-0.315-0.759-0.378c-4.243-3.313-7.95-6.611-10.7-9.188c1.119,0.292,2.267,0.531,3.451,0.688
				c1.464,0.195,2.816,0.284,4.066,0.284c8.211,0,11.977-3.839,13.618-6.581c2.992,2.762,9.134,7.181,15.592,4.561
				c0.02,0.029,0.035,0.061,0.057,0.089c4.889,6.223,11.801,17.759,9.536,22.228c-0.77,1.52-2.818,2.232-6.113,2.126
				c-8.516-0.284-18.455-5.98-26.844-12.187C337.546,416.79,336.908,416.241,336.29,415.705z M364.921,433.031
				c0.25,0.009,0.495,0.013,0.736,0.013c4.354,0,7.251-1.362,8.615-4.055c0.958-1.89,0.966-4.26,0.413-6.794
				c1.222,0.81,2.583,1.529,3.996,1.972c5.231,10.868,9.609,23.928,7.724,26.638c-0.088,0.127-0.255,0.362-1.028,0.285
				c-4.628-0.463-17.985-10.022-31.092-20.444C357.895,432.028,361.49,432.917,364.921,433.031z M378.823,355.125
				c-1.2-2.086-2.07-10.228-2.367-18.734c1.431,1.558,2.917,2.348,4.447,2.348c0.146,0,0.292-0.007,0.439-0.021
				c0.343-0.033,0.675-0.114,0.999-0.225c-0.989,5.825-2.252,11.489-3.483,16.623C378.847,355.121,378.835,355.12,378.823,355.125z
				 M384.117,322.799c-0.136,3.09-0.433,6.231-0.834,9.367c-0.628,1.93-1.581,3-2.279,3.068c-0.917,0.082-2.748-1.378-4.825-5.808
				c-3.916-8.355-5.749-29.151-6.289-36.504c0.495,0.117,0.988,0.176,1.479,0.176c0.57,0,1.136-0.079,1.699-0.237
				c2.528-0.711,4.351-2.918,5.571-5.045c0.008,0.03,0.016,0.063,0.023,0.092c0.029,0.108,0.068,0.212,0.117,0.313
				C382.25,295.355,384.493,314.248,384.117,322.799z M369.968,253.86c2.37,6.454,4.169,14.505,5.91,22.291
				c0.466,2.087,0.92,4.115,1.372,6.056c-0.008,0.024-0.022,0.046-0.029,0.072c-0.471,1.632-2.419,6.461-5.106,7.214
				c-1.232,0.344-2.677-0.233-4.292-1.72c-6.336-5.829-14.176-36.012-16.885-48.094c0.741-0.306,1.421-0.761,2.025-1.362
				c2.93-2.914,3.61-8.937,3.614-13.881C361.811,234.017,366.308,243.894,369.968,253.86z M343.336,199.578
				c1.75,2.436,3.62,6.291,5.599,10.372c1.185,2.444,2.402,4.946,3.702,7.396c0,0.001,0,0.003,0,0.005
				c0.739,5.588,0.812,15.547-2.142,18.484c-0.673,0.669-1.472,0.914-2.515,0.77c-8.259-1.139-31.15-32.262-35.387-44.267
				c-3.146-8.912-0.984-16.574-0.259-18.688c0.097,0.062,0.191,0.106,0.289,0.172c0.293,0.195,0.624,0.288,0.952,0.292
				c0.147,0.105,0.307,0.196,0.489,0.254C314.21,174.414,328.668,179.171,343.336,199.578z M311.305,169.251
				c-2.158-0.794-4.19-0.941-6.002-0.699c0.332-0.566,0.646-1.144,0.926-1.742c3.213-6.865,2.158-16.353-2.894-26.032
				c-5.502-10.538-14.29-18.75-23.321-22.141c1.292-0.582,2.556-1.169,3.777-1.742c1.736-0.813,3.375-1.581,4.966-2.263
				c2.535-1.086,7.338-3.547,11.157-6.481c3.109,3.371,19.644,22.081,20.22,39.078C320.684,163.456,313.052,168.347,311.305,169.251
				z M323.832,249.954c12.85,16.079,30.644,42.785,26.39,49.803c-0.445,0.734-0.982,1.07-1.797,1.123
				c-6.708,0.461-23.47-17.246-32.47-28.494c-0.538-0.67-1.482-0.853-2.228-0.43c-0.748,0.423-1.078,1.326-0.779,2.131
				c2.877,7.76,8.367,28.679-0.66,32.242c-8.145,3.217-22.924-16.129-30.327-29.077c-0.447-0.782-1.416-1.097-2.239-0.727
				c-0.822,0.371-1.228,1.305-0.938,2.159c2.097,6.168,6.644,23.712,2.556,30.731c-0.904,1.552-2.173,2.465-3.879,2.79
				c-10.355,1.972-26.565-24.516-31.933-34.889c-0.407-0.789-1.34-1.146-2.173-0.833c-0.83,0.314-1.294,1.2-1.079,2.062
				c0.025,0.099,2.427,9.95-1.49,15.326c-1.51,2.073-3.758,3.181-6.874,3.389c-11.032,0.769-19.889-26.776-22.38-37.439
				c-0.185-0.791-0.89-1.351-1.703-1.352h-0.002c-0.812,0-1.518,0.559-1.704,1.349c-0.024,0.102-2.491,10.222-10.279,11.953
				c-2.505,0.559-4.7,0.086-6.71-1.439c-3.897-2.954-8.807-11.265-10.059-34.079c-1.031-18.757,4.157-27.881,7.833-31.934
				c-2.282,8.089-2.267,16.776-0.334,24.184c1.184,4.54,4.16,6.939,8.604,6.939c7.177,0,16.793-6.579,20.976-9.72
				c1.689,5.208,6.347,16.691,15.104,18.951c0.869,0.225,1.73,0.338,2.561,0.338c7.03-0.001,10.342-7.734,11.71-12.46
				c3.882,4.436,12.149,12.874,20.813,15.422c3.095,0.91,5.69,0.24,7.395-1.853c2.574-3.157,2.655-9.145,2.26-13.664
				c3.413,3.566,8.589,8.51,13.495,11.372c4.939,2.881,18.067,8.528,26.033,8.527C320.523,252.355,322.633,251.541,323.832,249.954z
				 M308.226,344.709c-13.172,3.073-32.692-14.973-32.887-15.155c-0.432-0.404-1.042-0.559-1.616-0.418
				c-0.575,0.142-1.04,0.567-1.233,1.127c-0.177,0.511-4.5,12.539-18.06,13.744c-11.291,1.012-25.332-20.533-29.794-28.915
				c-0.301-0.566-0.889-0.921-1.53-0.927c-0.618,0.027-1.234,0.341-1.546,0.901c-0.082,0.147-8.267,14.679-18.692,14.679
				c-10.759,0-23.373-20.331-28.118-45.321c-3.368-17.737,1.149-29.711,4.089-35.213c1.822,12.128,5.229,20.155,10.184,23.911
				c2.799,2.122,6.112,2.835,9.583,2.066c5.649-1.256,9.02-5.651,10.897-9.291c3.162,11.156,11.367,34.882,23.971,34.878
				c0.222,0,0.448-0.007,0.673-0.022c4.156-0.277,7.342-1.898,9.471-4.82c2.053-2.818,2.762-6.419,2.885-9.676
				c6.437,10.911,19.023,29.549,29.912,29.546c0.572,0,1.143-0.052,1.705-0.159c2.721-0.519,4.824-2.021,6.247-4.466
				c3.192-5.479,2.219-15.008,0.678-22.53c6.385,9.239,16.536,21.542,25.321,21.54c1.093,0,2.168-0.191,3.209-0.602
				c9.551-3.77,7.547-18.833,5.146-28.467c7.762,8.882,21.562,23.269,29.524,23.267c0.138,0,0.274-0.004,0.409-0.013
				c0.84-0.055,1.605-0.274,2.293-0.632c3.288,9.724,8.71,29.83,4.651,37.552c-0.782,1.488-1.867,2.392-3.317,2.763
				c-10.628,2.721-24.456-16.437-28.885-24.048c-0.405-0.696-1.233-1.025-2.005-0.799c-0.772,0.227-1.291,0.952-1.256,1.756
				C320.144,321.171,320.889,341.764,308.226,344.709z M321.117,247.761c-0.452,0.706-1.726,1.094-3.588,1.094
				c-6.969,0.001-19.316-5.161-24.269-8.051c-7.599-4.432-16.365-14.763-16.452-14.867c-0.341-0.404-0.835-0.621-1.338-0.621
				c-0.258,0-0.519,0.058-0.763,0.176c-0.72,0.35-1.111,1.143-0.951,1.927c0.989,4.818,1.666,13.556-0.728,16.491
				c-0.833,1.021-1.984,1.208-3.694,0.706c-10.585-3.113-21.211-16.819-21.317-16.957c-0.427-0.555-1.143-0.803-1.821-0.629
				c-0.678,0.173-1.188,0.733-1.296,1.424c-0.021,0.131-2.24,13.059-9.077,13.059c-0.535,0-1.102-0.076-1.686-0.227
				c-9.138-2.358-13.284-18.781-13.325-18.946c-0.144-0.585-0.578-1.054-1.15-1.243c-0.57-0.19-1.2-0.072-1.664,0.313
				c-3.545,2.93-14.194,10.534-20.817,10.534c-2.828,0-4.438-1.333-5.217-4.323c-3.621-13.881-0.03-32.599,13.779-41.478
				c0.05-0.029,5.137-2.929,13.992-2.929c8.466,0,17.456,2.557,26.72,7.599l1.888,1.027c25.784,14.027,64.749,35.224,71.95,50.878
				C321.768,245.922,321.442,247.253,321.117,247.761z M165.828,189.697c-7.689-0.101-12.506-9.602-14.294-17.708
				c-4.433-20.094,18.434-38.497,20.973-40.466c-4.409,4.83-11.713,15.94-3.666,30.739c4.054,7.454,11.694,11.713,20.379,11.713
				c1.962,0,3.977-0.217,6.015-0.664c10.236-2.244,17.772-9.512,20.374-19.148c0.534,1.284,1.135,2.616,1.787,3.945
				c-0.042,0.218-0.045,0.446,0.001,0.677c1.091,5.456-7.479,20.372-21.102,29.01c-5.833,3.7-13.467,3.08-21.551,2.423
				C171.827,189.982,168.81,189.737,165.828,189.697z M203.77,148.664c0,6.804-5.536,12.339-12.34,12.339
				c-6.804,0-12.339-5.536-12.339-12.339c0-6.804,5.536-12.34,12.339-12.34C198.234,136.324,203.77,141.859,203.77,148.664z
				 M175.591,148.664c0,8.734,7.105,15.839,15.839,15.839s15.84-7.105,15.84-15.839c0-4.964-2.3-9.398-5.886-12.305
				c5.645,1.506,10.309,3.129,12.452,4.508c-0.581,2.271-0.796,4.552-0.452,6.622c-0.184,0.254-0.306,0.557-0.329,0.892
				c-0.871,13.064-10.548,19.753-18.571,21.512c-9.505,2.082-18.364-1.569-22.569-9.302c-8.934-16.427,3.476-27.309,5.285-28.771
				c3.203,0.315,6.773,0.835,10.411,1.49C180.72,135.024,175.591,141.249,175.591,148.664z M220.344,134.664
				c1.802-2.855,3.333-4.02,3.813-4.149c0.955,0.174,2.105,0.839,3.384,1.934c0.188,0.335,0.474,0.59,0.81,0.739
				c1.448,1.383,3.03,3.255,4.663,5.55c1.911,2.684,0.881,7.134-0.028,11.061c-0.343,1.483-0.667,2.883-0.815,4.129
				c-0.048,0.406-0.092,0.878-0.136,1.396c-0.358,0.423-0.512,1.008-0.357,1.583c0.019,0.07,0.079,0.284,0.18,0.609
				c-0.751,9.011-1.881,10.407-2.5,10.407c-0.044,0-0.121-0.008-0.238-0.044c-3.696-1.154-9.854-12.252-12.114-20.191
				C215.957,144.006,217.927,138.494,220.344,134.664z M261.049,127.041c6.804,0,12.34,5.536,12.34,12.34
				c0,6.804-5.536,12.339-12.34,12.339c-6.804,0-12.339-5.536-12.339-12.339C248.709,132.577,254.245,127.041,261.049,127.041z
				 M261.049,155.22c8.734,0,15.84-7.105,15.84-15.839c0-7.823-5.707-14.323-13.172-15.597c0.133-0.025,0.269-0.057,0.398-0.076
				c2.435-0.348,4.769-0.927,7.021-1.627c0.111,0.137,0.238,0.264,0.394,0.366c0.082,0.054,8.245,5.455,10.562,12.662
				c0.985,3.066,2.167,9.08-0.995,14.912c-2.651,4.889-7.711,8.381-15.039,10.38c-19.658,5.364-28.083-12.814-28.441-13.611
				c-0.085-0.189-0.203-0.351-0.339-0.493c0.387-2.439,0.499-4.95-0.224-7.197c2.372-0.665,5.318-2.532,9.151-5.196
				c-0.633,1.71-0.996,3.549-0.996,5.477C245.209,148.115,252.315,155.22,261.049,155.22z M235.562,182.302
				c-5.403-1.72-10.695-2.589-15.828-2.589c-4.054,0-7.382,0.553-9.934,1.214c5.408-5.898,9.203-12.339,10.588-17.413
				c2.402,3.813,5.113,6.901,7.688,7.705c0.431,0.135,0.862,0.203,1.281,0.203c0,0,0,0,0,0c3.141,0,4.543-3.363,5.27-7.374
				c2.765,5.253,7.771,12.216,16.231,16.689c-9.004,0.354-14.167,1.129-14.442,1.171
				C236.088,181.96,235.799,182.102,235.562,182.302z M257.145,179.663c-14.645-5.059-20.365-18.669-21.738-22.588
				c0.001-0.023,0.003-0.047,0.005-0.07c0.079-1.034,0.149-1.953,0.234-2.666c0.101-0.854,0.321-1.878,0.57-2.972
				c3.142,4.833,10.507,13.521,22.867,13.521c2.436,0,5.068-0.338,7.896-1.109c8.286-2.26,14.071-6.327,17.194-12.089
				c3.782-6.976,2.407-14.053,1.25-17.651c-1.972-6.135-7.238-10.909-10.091-13.142c9.239,1.978,19.152,10.493,24.898,21.502
				c4.543,8.703,5.574,17.06,2.827,22.928C296.341,179.675,270.472,184.268,257.145,179.663z M284.967,86.866
				c3.157-2.669,7.409-6.263,8.956-6.617c0.193,1.612-1.469,6.704-3.782,11.455c-0.358,0.735-0.159,1.62,0.48,2.131
				c0.637,0.511,1.545,0.511,2.186,0.003c1.529-1.219,4.392-2.918,5.705-2.678c0.164,0.029,0.236,0.079,0.322,0.222
				c0.711,1.187-1.867,4.894-4.647,7.417c-0.661,0.599-0.765,1.6-0.241,2.322c0.523,0.722,1.507,0.934,2.283,0.495
				c1.602-0.911,4.405-1.957,5.496-1.557c0.136,0.05,0.208,0.106,0.281,0.304c0.567,1.56-6.035,7.372-14.627,11.054
				c-1.645,0.705-3.309,1.484-5.072,2.31c-5.54,2.595-11.819,5.536-18.686,6.517c-5.161,0.737-11.313,5.08-17.263,9.28
				c-4.121,2.909-9.21,6.492-11.107,6.339c-1.04-1.411-2.055-2.656-3.04-3.733c3.424-1.64,9.461-5.117,12.912-10.54
				c4.33-6.804,16.335-17.788,27.331-25.004C277.006,93.597,281.236,90.021,284.967,86.866z M221.965,87.579
				c25.2-2.917,46.094,1.309,52.942,2.967c-1.426,1.082-2.886,2.136-4.375,3.114c-9.949,6.528-23.278,18.058-28.364,26.051
				c-3.421,5.376-10.126,8.693-12.683,9.811c-1.727-1.408-3.354-2.242-4.865-2.478c-1.492-0.233-3.244,0.732-5.109,2.868
				c-1.621-1.424-5.513-4.513-11.014-6.739c-1.511-0.612-3.223-1.029-5.205-1.513c-4.996-1.219-11.838-2.889-20.261-9.205
				c-2.808-2.106-5.548-4.461-8.173-6.872C178.824,102.814,197.783,90.379,221.965,87.579z M143.85,111.779
				c-0.527-1.494-0.433-2.169-0.369-2.276c0.524-0.412,3.343,0.171,5.894,1.441c0.813,0.404,1.804,0.12,2.277-0.658
				c0.472-0.778,0.27-1.788-0.466-2.323c-0.049-0.035-4.901-3.617-5.768-8.817c-0.028-0.167-0.039-0.296-0.042-0.393
				c1.147,0.014,4.199,1.404,6.794,3.131c0.732,0.487,1.713,0.355,2.291-0.309c0.577-0.664,0.572-1.653-0.012-2.311
				c-1.775-1.997-2.32-5.533-1.932-7.846c0.205-1.222,0.591-1.664,0.638-1.704c0.001,0,0.164,0.005,0.507,0.234
				c1.692,1.128,4.688,4.187,8.159,7.728c5.34,5.45,11.987,12.233,19.112,17.577c8.996,6.747,16.241,8.515,21.531,9.806
				c1.849,0.451,3.446,0.84,4.721,1.356c5.28,2.138,8.994,5.21,10.237,6.322c-0.92,1.443-1.766,3.06-2.457,4.751
				c-7.657-4.189-29.971-9.013-41.865-9.471C161.066,127.555,146.579,119.512,143.85,111.779z M142.624,167.755
				c0.285-16.838,11.387-36.312,13.835-40.407c3.55,1.64,7.395,2.89,11.244,3.582c-7.048,6.08-23.775,22.83-19.587,41.813
				c1.83,8.295,6.651,17.854,14.508,20.004c-0.936,0.745-2.621,2.188-4.64,4.362C155.364,195.123,142.342,184.397,142.624,167.755z
				 M219.357,362.398c-14.021-10.582-37.486-28.292-51.589-45.92c-16.868-21.084-24.213-48.671-21.833-81.994
				c1.902-26.628,19.316-39.349,19.489-39.473c0.591-0.419,0.844-1.139,0.697-1.805c2.757,0.051,5.593,0.277,8.34,0.5
				c3.072,0.249,6.183,0.503,9.229,0.503c3.686,0,7.272-0.386,10.584-1.58c-1.199,1.766-2.239,3.631-3.124,5.566
				c-0.093,0.024-0.185,0.052-0.275,0.092c-0.613,0.277-14.996,7.15-13.293,38.158c0.14,2.552,0.332,4.973,0.568,7.28
				c-1.48,1.893-11.647,16.027-6.839,41.352c5.129,27.01,18.99,48.167,31.556,48.167c9.556,0,17.003-9.252,20.144-13.902
				c4.362,7.478,17.625,28.199,30.661,28.198c0.355,0,0.712-0.015,1.067-0.047c12.125-1.078,17.897-9.555,20.037-13.763
				c4.875,4.17,18.484,14.822,30.314,14.82c1.336,0,2.652-0.136,3.928-0.433c10.807-2.514,13.668-14.337,14.396-21.588
				c5.143,7.538,15.999,21.291,26.743,21.289c0.999,0,1.998-0.119,2.99-0.373c2.43-0.622,4.296-2.144,5.548-4.525
				c0.059-0.112,0.106-0.237,0.162-0.353c1.764,7.129,2.987,16.485-0.434,18.603c-4.051,2.502-18.297-6.93-27.119-14.433
				c-0.582-0.493-1.414-0.555-2.061-0.15c-0.647,0.404-0.957,1.181-0.767,1.919c1.476,5.748,3.833,21.612-2.898,25.939
				c-5.972,3.837-23.457-7.441-33.075-15.454c-0.578-0.482-1.4-0.541-2.042-0.143c-0.641,0.397-0.955,1.159-0.781,1.892
				c0.531,2.238,1.219,8.778-1.932,12.122c-2.041,2.166-5.512,2.836-10.318,1.995c-18.003-3.158-39.476-30.888-39.691-31.168
				c-0.589-0.768-1.688-0.912-2.454-0.323c-0.767,0.588-0.911,1.687-0.323,2.454c0.91,1.186,22.518,29.091,41.863,32.484
				c1.538,0.27,2.979,0.405,4.319,0.405c3.922,0,6.989-1.153,9.15-3.446c2.924-3.103,3.437-7.585,3.328-10.903
				c6.379,4.903,19.815,14.321,28.919,14.32c1.853-0.001,3.529-0.391,4.927-1.29c7.405-4.76,6.519-17.729,5.374-24.884
				c6.089,4.775,17.025,12.504,24.006,12.503c1.292,0,2.45-0.265,3.415-0.863c7.916-4.9,1.197-25.567,0.405-27.907
				c-0.056-0.165-0.141-0.311-0.237-0.446c0.88-12.523-5.457-31.194-6.827-35.05c5.286-12.552-24.549-49.914-28.044-54.224
				c-0.19-0.234-0.432-0.399-0.692-0.507c-0.107-1.379-0.57-2.958-1.398-4.758c-7.687-16.71-47.267-38.242-73.457-52.49
				l-1.888-1.027c-2.01-1.094-4.009-2.07-5.997-2.942c3.947-0.351,10.008-0.732,17.758-0.732c0.056,0,0.109-0.011,0.164-0.017
				c2.717,0.541,5.717,0.821,8.861,0.821c10.818,0,23.263-3.262,31.202-10.156c0.286-0.075,0.559-0.215,0.785-0.437
				c0.167-0.163,3.443-3.279,8.223-2.058c-0.813,2.215-3.492,10.919,0.168,21.288c3.828,10.845,27.127,44.915,38.143,46.554
				c0.969,4.332,9.735,42.671,18.018,50.291c0.266,0.244,0.531,0.47,0.796,0.682c0.257,4.134,1.983,29.158,6.596,39.504
				c0.016,11.927,0.852,26.32,4.691,28.073c0.108,0.049,0.257,0.106,0.435,0.152c-0.269,1.09-0.534,2.158-0.788,3.181
				c-1.749,7.029-3.013,12.108-3.013,14.972c0,0.966,0.784,1.75,1.75,1.75c0.251,0,0.489-0.055,0.705-0.15
				c1.957,4.683,4.089,11.643,2.091,15.094c-0.273,0.473-0.584,0.689-1.07,0.748c-2.947,0.346-9.409-4.878-13.056-8.703
				c-0.626-0.656-1.649-0.725-2.357-0.16c-0.708,0.565-0.868,1.579-0.367,2.335c0.035,0.053,3.474,5.313,2.503,9.596
				c-0.368,1.622-1.33,2.881-2.941,3.848c-6.898,4.14-14.591-4.838-14.666-4.928c-0.431-0.514-1.118-0.735-1.769-0.572
				c-0.65,0.164-1.15,0.685-1.286,1.342c-0.016,0.081-1.804,8.001-14.962,6.245c-13.944-1.858-23.554-15.688-23.649-15.828
				c-0.546-0.797-1.635-1.003-2.432-0.457c-0.797,0.544-1.003,1.632-0.459,2.43c0.132,0.194,1.213,1.757,3.111,3.877
				c-3.354-1.037-7.266-1.982-11.323-2.959c-7.972-1.918-16.215-3.902-20.174-6.656c-6.652-4.628-9.324-3.864-12.124-2.383
				c-0.38,0.201-0.739,0.39-1.093,0.523c-0.122,0.046-0.178,0.046-0.177,0.047c-0.301-0.095-0.941-1.104-1.325-1.707
				c-0.629-0.99-1.342-2.112-2.38-3.002c-2.688-2.303-4.975,0.155-6.075,1.336c-0.651,0.7-1.325,1.424-1.978,1.669
				c-0.224,0.084-0.325,0.084-0.326,0.088c-0.265-0.133-0.812-1.081-1.175-1.71c-0.461-0.799-1.035-1.793-1.808-2.787
				c-2.681-3.448-5.031-1.915-6.583-0.9c-0.554,0.362-1.127,0.736-1.808,1.038c-1.472,0.654-1.473,0.654-4.663-2.805
				c-0.485-0.526-1.027-1.113-1.638-1.765C229.15,369.789,225.254,366.849,219.357,362.398z M188.698,411.829
				c0.5-0.093,1-0.222,1.494-0.407c0.244,1.593,1.144,3.249,2.119,4.639C190.283,415.19,189.207,413.155,188.698,411.829z
				 M215.934,418.625c0.42-0.046,0.831-0.139,1.234-0.264c0.413,1.054,1.021,2.087,1.664,3.003
				C217.48,420.784,216.554,419.685,215.934,418.625z M231.402,403.703c-3.025,0.363-5.638,0.677-7.313,0.996
				c-5.171,0.985-5.67,4.535-6.001,6.883c-0.142,1.008-0.266,1.74-0.542,2.291c-0.308,0.187-0.557,0.464-0.704,0.808
				c-0.071,0.048-0.137,0.099-0.218,0.142c-0.687,0.37-1.53,0.416-2.378,0.192c-0.279-0.228-0.625-0.365-0.993-0.389
				c-0.345-0.184-0.681-0.409-0.996-0.684c-2.084-1.819-2.627-4.774-1.453-7.904c2.486-6.628,11.757-6.165,11.848-6.162
				c0.973,0.065,1.792-0.674,1.852-1.637c0.06-0.965-0.673-1.796-1.637-1.856c-0.26-0.015-3.626-0.195-7.232,1.007
				c-0.259-0.026-0.527-0.001-0.787,0.096c-0.056,0.022-5.667,2.088-10.586,0.929c-4.2-0.987-6.987,0.051-8.585,1.097
				c-1.849,1.21-3.086,3.081-3.483,5.267c-0.221,1.213-1.245,2.411-2.673,3.125c-1.347,0.673-2.757,0.771-3.774,0.264
				c-0.603-0.301-1.424-1.477-1.903-3.424c-0.702-2.855-0.631-7.422,1.876-10.893c3.363-4.657,20.942-3.276,27.057-1.966
				c4.22,0.906,8.274-0.49,11.509-3.851c1.874,1.464,6.094,4.329,11.703,5.51c0.122,0.026,0.243,0.038,0.362,0.038
				c0.81,0,1.537-0.566,1.71-1.39c0.199-0.946-0.406-1.874-1.352-2.073c-4.887-1.029-8.643-3.587-10.25-4.833
				c0.03-0.045,0.061-0.087,0.091-0.133c0.784-1.219,1.497-2.475,2.128-3.672c2.097,1.554,8.425,5.802,14.964,5.802
				c0.966,0,1.75-0.784,1.75-1.75s-0.784-1.75-1.75-1.75c-6.169,0-12.583-4.868-13.393-5.503c0.249-0.543,0.465-1.034,0.652-1.473
				c2.732,2.893,4.163,3.844,7.483,2.369c0.937-0.416,1.692-0.909,2.299-1.305c0.412-0.268,0.975-0.636,1.11-0.668
				c0.002,0.001,0.263,0.097,0.798,0.786c0.625,0.803,1.11,1.645,1.539,2.387c1.063,1.842,2.518,4.363,5.761,3.149
				c1.424-0.534,2.47-1.659,3.311-2.562c0.355-0.382,0.872-0.937,1.164-1.12c0.02,0.015,0.044,0.033,0.07,0.056
				c0.642,0.55,1.181,1.4,1.703,2.222c0.713,1.123,1.674,2.627,3.143,3.151c-0.32,2.85-1.103,8.379-2.673,12.192
				C255.222,400.842,238.53,402.847,231.402,403.703z M262.868,384.712c0.157-0.08,0.317-0.16,0.461-0.236
				c1.64-0.868,3.057-1.616,8.49,2.162c4.5,3.13,13.068,5.192,21.354,7.186c3.172,0.763,6.255,1.506,9.01,2.279l-41.025-1.35
				C262.185,390.79,262.681,386.613,262.868,384.712z M395.614,454.29c-0.83,1.469-1.906,2.339-3.386,2.741
				c-5.514,1.487-16.605-3.044-38.303-15.66c-20.754-12.066-32.663-30.249-37.363-38.681c0.104,0.06,0.212,0.117,0.316,0.176
				c0.071,0.28,0.203,0.547,0.415,0.772c0.6,0.638,8.61,9.068,19.065,16.74c9.279,7.936,39.547,33.28,48.671,34.192
				c0.206,0.02,0.408,0.031,0.605,0.031c1.549,0,2.828-0.627,3.644-1.801c3.525-5.068-3.328-21.295-6.579-28.321
				c0.772-0.148,1.531-0.438,2.266-0.902C390.728,433.38,398.292,449.552,395.614,454.29z"/>
			<path d="M210.233,439.311c0.088,0.014,0.176,0.02,0.262,0.02c0.852,0,1.599-0.623,1.729-1.49
				c1.086-7.242-3.105-13.281-3.284-13.535c-0.558-0.789-1.651-0.979-2.439-0.42c-0.79,0.558-0.978,1.649-0.42,2.439
				c0.036,0.05,3.563,5.128,2.683,10.996C208.619,438.277,209.277,439.168,210.233,439.311z"/>
			<path d="M447.111,395.315c-0.266,2.826-1.444,10.865-3.675,14.086c-0.551,0.794-0.352,1.885,0.442,2.434
				c0.304,0.211,0.65,0.312,0.994,0.312c0.556,0,1.101-0.263,1.44-0.754c3.209-4.633,4.24-15.299,4.282-15.751
				c0.091-0.962-0.616-1.815-1.578-1.905C448.054,393.647,447.201,394.353,447.111,395.315z"/>
			<path d="M246.193,440.974c0.04,0.003,0.079,0.004,0.119,0.004c0.913,0,1.683-0.709,1.744-1.634
				c0.01-0.15,0.249-3.779,0.358-10.775c0.119-7.616-6.844-15.667-7.14-16.006c-0.636-0.727-1.743-0.8-2.47-0.165
				c-0.727,0.637-0.801,1.742-0.165,2.47c0.064,0.072,6.374,7.36,6.275,13.646c-0.107,6.895-0.348,10.562-0.35,10.598
				C244.499,440.076,245.229,440.91,246.193,440.974z"/>
			<path d="M135.719,482.171c-0.086-0.006-8.743-0.689-23.155-3.31c-14.125-2.568-27.872-11.643-28.009-11.734
				c-0.806-0.538-1.892-0.318-2.426,0.486c-0.536,0.804-0.319,1.89,0.485,2.426c0.584,0.39,14.472,9.566,29.324,12.266
				c14.588,2.652,23.155,3.329,23.512,3.356c0.046,0.003,0.091,0.005,0.136,0.005c0.906,0,1.672-0.698,1.743-1.616
				C137.403,483.087,136.682,482.246,135.719,482.171z"/>
			<path d="M103.355,459.984c0.865,0,1.617-0.642,1.732-1.522c0.126-0.958-0.549-1.837-1.507-1.963
				c-6.141-0.806-12.989-7.372-13.058-7.438c-0.695-0.672-1.802-0.653-2.475,0.04c-0.672,0.693-0.655,1.801,0.039,2.473
				c0.313,0.304,7.742,7.438,15.038,8.396C103.203,459.979,103.279,459.984,103.355,459.984z"/>
			<g>
				<g>
					<path d="M199.553,148.664c0,4.485-3.636,8.122-8.123,8.122c-4.486,0-8.122-3.637-8.122-8.122c0-4.486,3.636-8.123,8.122-8.123
						C195.916,140.541,199.553,144.177,199.553,148.664z"/>
				</g>
				<g>
					<path style="fill:#FFFFFF;" d="M195.409,146.176c0,1.007-0.816,1.824-1.824,1.824c-1.007,0-1.823-0.817-1.823-1.824
						c0-1.007,0.816-1.823,1.823-1.823C194.592,144.353,195.409,145.169,195.409,146.176z"/>
				</g>
				<g>
					<path d="M269.171,139.381c0,4.485-3.636,8.122-8.122,8.122c-4.485,0-8.122-3.637-8.122-8.122c0-4.486,3.637-8.123,8.122-8.123
						C265.535,131.258,269.171,134.895,269.171,139.381z"/>
				</g>
				<g>
					<path style="fill:#FFFFFF;" d="M265.028,136.894c0,1.007-0.817,1.824-1.824,1.824c-1.007,0-1.823-0.817-1.823-1.824
						c0-1.007,0.815-1.823,1.823-1.823C264.211,135.07,265.028,135.886,265.028,136.894z"/>
				</g>
			</g>
		</g>
		<g>
			<path d="M407.164,172.587c36.757,0,68.952-24.802,78.293-60.313c0.19-0.722-0.099-1.485-0.72-1.9
				c-0.619-0.414-1.434-0.391-2.031,0.061c-10.935,8.302-23.982,12.69-37.73,12.69c-34.443,0-62.465-28.022-62.465-62.466
				c0-17.866,7.688-34.916,21.092-46.78c0.559-0.495,0.743-1.289,0.458-1.979c-0.284-0.689-0.965-1.122-1.72-1.079
				c-42.693,2.512-76.136,38.006-76.136,80.806C326.203,136.269,362.522,172.587,407.164,172.587z M397.617,14.763
				C385.735,27.027,379.01,43.486,379.01,60.66c0,36.374,29.592,65.966,65.965,65.966c12.811,0,25.046-3.608,35.68-10.479
				c-10.451,31.409-39.991,52.941-73.491,52.941c-42.712,0-77.461-34.749-77.461-77.46C329.703,52.34,359.154,19.487,397.617,14.763
				z"/>
			<path d="M65.38,74.422c3.89,0,7.054-3.165,7.054-7.054c0-3.89-3.165-7.054-7.054-7.054c-3.89,0-7.054,3.165-7.054,7.054
				C58.326,71.258,61.491,74.422,65.38,74.422z M65.38,63.814c1.96,0,3.554,1.594,3.554,3.554c0,1.96-1.594,3.554-3.554,3.554
				c-1.96,0-3.554-1.594-3.554-3.554C61.826,65.408,63.42,63.814,65.38,63.814z"/>
			<path d="M399.127,206.605c0,3.341,2.718,6.06,6.059,6.06c3.341,0,6.06-2.719,6.06-6.06c0-3.341-2.719-6.059-6.06-6.059
				C401.845,200.546,399.127,203.265,399.127,206.605z M407.746,206.605c0,1.412-1.148,2.56-2.56,2.56
				c-1.411,0-2.559-1.148-2.559-2.56c0-1.411,1.148-2.559,2.559-2.559C406.598,204.046,407.746,205.194,407.746,206.605z"/>
			<path d="M458.893,71.439c3.341,0,6.059-2.719,6.059-6.06c0-3.341-2.718-6.059-6.059-6.059c-3.341,0-6.06,2.718-6.06,6.059
				C452.833,68.72,455.552,71.439,458.893,71.439z M458.893,62.82c1.411,0,2.559,1.148,2.559,2.559c0,1.412-1.148,2.56-2.559,2.56
				s-2.56-1.149-2.56-2.56C456.333,63.968,457.481,62.82,458.893,62.82z"/>
			<path d="M59.087,168.566c13.492,1.242,13.918,1.667,15.159,15.159c0.083,0.901,0.838,1.59,1.743,1.59
				c0.904,0,1.66-0.689,1.743-1.589c1.242-13.493,1.667-13.918,15.16-15.16c0.901-0.083,1.59-0.838,1.59-1.743
				s-0.689-1.66-1.59-1.743c-13.492-1.242-13.917-1.667-15.16-15.16c-0.083-0.9-0.838-1.589-1.743-1.589
				c-0.904,0-1.66,0.689-1.743,1.59c-1.241,13.492-1.666,13.917-15.159,15.159c-0.901,0.083-1.59,0.838-1.59,1.743
				S58.186,168.483,59.087,168.566z M75.989,160.769c1.099,3.198,2.857,4.956,6.055,6.055c-3.198,1.099-4.957,2.857-6.055,6.055
				c-1.099-3.198-2.857-4.957-6.055-6.055C73.132,165.725,74.89,163.967,75.989,160.769z"/>
			<path d="M438.423,241.42c-0.082-0.9-0.838-1.589-1.742-1.589s-1.66,0.689-1.742,1.59c-1.242,13.492-1.667,13.917-15.16,15.159
				c-0.9,0.083-1.59,0.838-1.59,1.743s0.69,1.66,1.59,1.743c13.493,1.242,13.918,1.667,15.16,15.16
				c0.082,0.901,0.838,1.59,1.742,1.59s1.66-0.689,1.742-1.589c1.243-13.493,1.668-13.918,15.159-15.16
				c0.9-0.083,1.59-0.838,1.59-1.743s-0.689-1.66-1.59-1.743C440.091,255.338,439.666,254.913,438.423,241.42z M436.681,264.378
				c-1.099-3.198-2.857-4.957-6.055-6.055c3.198-1.099,4.956-2.857,6.055-6.055c1.099,3.198,2.857,4.956,6.056,6.055
				C439.538,259.421,437.779,261.18,436.681,264.378z"/>
			<path d="M250.704,39.937c13.493,1.242,13.918,1.667,15.16,15.159c0.083,0.901,0.838,1.59,1.743,1.59s1.66-0.689,1.743-1.59
				c1.242-13.492,1.667-13.917,15.159-15.159c0.901-0.083,1.59-0.838,1.59-1.743c0-0.904-0.689-1.66-1.59-1.743
				c-13.492-1.241-13.917-1.667-15.159-15.159c-0.083-0.901-0.838-1.59-1.743-1.59s-1.66,0.689-1.743,1.59
				c-1.242,13.492-1.667,13.917-15.16,15.159c-0.901,0.083-1.59,0.838-1.59,1.743C249.114,39.099,249.803,39.854,250.704,39.937z
				 M267.606,32.14c1.099,3.198,2.856,4.957,6.055,6.055c-3.198,1.099-4.956,2.857-6.055,6.055
				c-1.099-3.198-2.857-4.957-6.055-6.055C264.749,37.096,266.507,35.338,267.606,32.14z"/>
		</g>
	</g>
</g>
</svg>
