<?xml version="1.0" encoding="utf-8"?>
<!-- Generator: Adobe Illustrator 27.5.0, SVG Export Plug-In . SVG Version: 6.00 Build 0)  -->
<svg xmlns="http://www.w3.org/2000/svg" xmlns:xlink="http://www.w3.org/1999/xlink" viewBox="0 0 5000 5000" width="595" height="842" preserveAspectRatio="xMidYMid meet" data-scaled="true">
<g>
	<path d="M1921.073,2920.409l5.173-2.066c-0.07-0.332-0.133-0.663-0.212-0.995L1921.073,2920.409z"/>
	<path d="M4496.785,1878.856c-74.775-127.099-188.467-240.205-313.398-317.827c87.93-54.668,271.831-14.038,367.968,8.374
		l18.071,4.307c-25.297-23.516-50.435-46.353-78.959-66.016c-192.622-132.783-460.581-170.591-689.355-162.09
		c-153.003,5.679-310.288,32.051-448.618,100.171c-22.505,11.079-51.382,23.203-68.603,41.841
		c-3.531,3.828-5.049,7.324-6.363,12.383c1.861,5.2,2.266,7.808,8.057,9.888c5.659,2.036,13.076,1.538,18.94,0.864
		c19.668-2.251,39.18-8.926,58.521-13.12c29.282-6.343,61.606-9.268,91.538-11.025c269.726-15.82,588.735,114.487,737.294,346.391
		c90.903,141.904,113.179,309.58,76.792,472.739c-32.549,145.952-116.23,288.003-243.979,368.984
		c-2.858,1.797-5.737,3.56-8.638,5.288c-2.9,1.725-5.822,3.416-8.765,5.073c-2.939,1.657-5.9,3.276-8.882,4.858
		c-2.982,1.585-5.981,3.133-8.999,4.644c-3.021,1.51-6.058,2.983-9.111,4.419c-3.057,1.436-6.129,2.834-9.219,4.194
		c-3.089,1.361-6.195,2.684-9.316,3.97c-3.122,1.286-6.258,2.533-9.409,3.74c-3.151,1.211-6.316,2.381-9.497,3.511
		c-3.18,1.133-6.375,2.226-9.585,3.281c-3.206,1.052-6.426,2.065-9.658,3.042c-3.232,0.973-6.475,1.907-9.727,2.802
		c-3.255,0.898-6.522,1.754-9.8,2.568c-3.274,0.817-6.559,1.594-9.854,2.329s-6.597,1.431-9.907,2.085
		c-3.313,0.658-6.634,1.273-9.961,1.846c-3.327,0.573-6.66,1.107-10,1.602c-3.337,0.491-6.681,0.942-10.034,1.353
		c-3.35,0.414-6.704,0.784-10.063,1.113c-3.36,0.329-6.724,0.617-10.093,0.864c-3.366,0.248-6.735,0.455-10.107,0.62
		c-3.369,0.163-6.741,0.287-10.117,0.371c-3.375,0.081-6.751,0.122-10.127,0.122c-3.375,0-6.751-0.041-10.127-0.122
		c-3.373-0.081-6.745-0.205-10.117-0.371c-3.373-0.163-6.742-0.368-10.108-0.615c-3.369-0.247-6.733-0.535-10.093-0.864
		s-6.714-0.698-10.063-1.108c-3.35-0.413-6.694-0.866-10.034-1.357c-3.34-0.491-6.673-1.024-10-1.597
		c-3.326-0.576-6.647-1.191-9.961-1.846c-3.311-0.654-6.613-1.349-9.907-2.085c-226.895-51.899-409.009-312.06-580.317-456.215
		c-51.626-43.438-110.747-82.373-172.29-110.186c-79.688-36.011-169.424-62.065-256.587-68.945
		c-142.763-11.27-294.834,32.808-422.636-50.859c-30.161-19.746-57.378-45.181-76.582-75.889
		c-56.528-90.386-47.28-205.605-23.404-305.185c17.539-73.154,45.874-141.919,68.946-213.286
		c71.611-221.499,97.295-434.077-31.055-643.286c-67.871-110.625-174.082-212.866-281.23-285.668
		c-35.581-24.175-74.521-42.996-109.878-66.929c-54.712-37.037-79.936-69.502-148.125-85.667
		c-23.862-5.657-48.12-7.058-72.563-6.438c-54.761,4.004-107.061,15.947-157.31,38.477c-23.384,10.485-46.641,23.44-70.776,31.93
		c-109.624-25.118-253.877-55.12-355.229,7.982c-22.935,14.28-43.003,33.666-59.194,55.22
		c-22.354,29.761-38.384,63.936-55.234,96.977c-34.136,66.943-66.743,138.999-111.118,199.868
		c-33.906,46.509-87.163,71.587-135.229,101.04c-41.904,25.674-84.551,51.733-123.1,82.305c-24.263,19.243-47.798,40.22-68.903,62.9
		c-13.172,14.155-25.896,31.963-40.462,44.438c-6.412,5.488-15.46,7.69-22.414,12.505c-23.843,16.509-37.254,46.079-43.584,73.594
		c-17.831,77.5-1.072,226.064,31.514,301.865c13.097,30.469,33.507,58.774,51.279,86.714c14.644,23.023,52.233,81.9,80.656,86.411
		c4.199,0.664,5.566-1.074,9.067-3.018c10.054-14.282,15.313-31.353,20.439-47.9c9.17,11.782,21.24,29.98,37.959,30.381
		c7.5,0.181,13.926-4.492,18.306-10.181c6.196-8.042,9.106-18.94,11.914-28.535c5.923,1.875,13.35,3.706,18.433,7.334
		c13.071,9.336,43.804,61.143,57.378,78.105c-43.574,28.979-80.444,70.464-91.846,122.891c-8.794,40.41-1.377,84.834,21.855,119.15
		c38.135,56.338,108.223,82.002,172.363,93.721c232.51,42.471,424.277-104.033,628.169-187.012
		c47.217,48.257,78.594,115.674,78.301,183.818c-0.249,56.973-28.423,109.072-48.696,160.977
		c-35.566,91.064-37.837,173.535-25.771,269.013l-1.382,2.832c-12.847,25.933-28.98,50.083-41.929,75.952
		c-26.45,52.856-40.469,117.832-24.375,175.884c-61.792-19.58-122.847-38.843-181.225-67.51
		c-32.607-16.011-62.803-38.457-96.518-51.89c-13.135-5.234-26.621-9.297-40.913-8.457c-28.286,1.66-70.664,30.767-97.852,42.354
		c-22.134,9.434-46.099,16.436-67.505,27.339c-25.659,13.076-122.715,117.885-142.827,144.975
		c-10.361,13.95-19.849,29.009-24.961,45.742c-4.609,15.073-5.078,30.605,2.417,44.858c1.792,3.403,4.658,9.121,7.378,11.807
		c0.024,42.949,6.113,68.145,37.051,99.277c-6.231,46.49,9.497,95.357,37.744,132.178c24.019,31.304,66.274,66.973,107.119,71.05
		c4.258,0.425,7.573,0.098,11.636-1.377c3.999-5.171,4.771-5.884,3.423-12.813c-2.363-12.148-13.003-23.989-20.278-33.745
		c-26.68-35.781-33.457-72.876-32.144-116.553c18.496-4.678,32.271-9.917,42.822-26.899c11.904-19.16,11.792-44.029,5.703-65.117
		c-1.221-4.153-2.633-8.239-4.238-12.256c-1.605-4.02-3.395-7.956-5.371-11.807c-1.976-3.848-4.129-7.596-6.46-11.245
		c-2.331-3.646-4.827-7.175-7.49-10.586c22.505-22.925,47.451-49.458,81.953-50.181c19.424-0.405,36.665,6.822,50.098,20.86
		c7.749,8.101,13.506,18.393,13.076,29.902c-1.631,43.745-66.226,60.781-50.513,132.393c4.082,18.604,14.209,36.367,22.036,53.608
		c12.661,27.881,21.392,53.769,41.655,77.339c27.383,31.86,88.901,67.251,130.361,70.844c4.868,0.42,8.53-0.405,13.1-2.178
		c4.39-5.239,4.58-5.566,5.083-12.373c-7.827-15.361-19.023-25.684-31.45-37.285c-29.971-27.979-43.159-56.23-48.062-96.528
		c22.466-7.397,41.533-16.948,52.212-39.521c8.15-17.217,7.871-36.484,0.615-53.926c-5.547-13.345-15.195-22.534-26.255-31.411
		c14.795-22.593,28.193-45.83,41.572-69.277c64.048,25.073,200.469,100.796,266.377,72.925
		c48.11-20.347,106.055-131.04,134.927-174.995c20.205,27.643,41.027,54.814,62.466,81.514l-110.239,114.717
		c-18.999,19.39-48.037,37.627-61.265,61.401c-8.428,15.146-9.199,37.563-8.95,54.692c0.664,46.323-4.932,101.777,30.693,136.094
		l2.715,2.597c11.885,54.453,37.949,107.285,86.616,137.983c38.94,24.561,85.185,21.426,123.516,48.53
		c34.975,24.731,60.747,64.815,91.201,95.029c30.534,30.065,62.22,58.864,95.058,86.396c32.839,27.53,66.724,53.705,101.655,78.526
		c-4.683,37.339,7.544,53.218,13.105,87.48c9.722,59.932-57.163,129.453-99.971,162.934
		c-101.47,79.375-221.45,80.161-342.094,103.164c-37.339-20.2-86.372-16.152-125.708-4.37
		c-69.604,20.84-127.305,76.421-160.493,140.034c-14.302,27.412-36.348,83.833-26.738,114.434
		c2.065,6.577,5.776,11.343,12.163,14.18c3.633,1.611,7.051,1.587,10.869,0.308c10.024-3.364,19.458-15.137,27.656-21.875
		c39.937-32.852,75.195-53.34,127.964-52.535c-19.268,43.838-51.25,122.276-31.338,169.805c2.5,5.972,4.927,8.071,10.474,11.089
		c14.556-0.449,22.798-10.971,32.134-20.874c43.359-46.001,83.564-70.063,147.104-78.887c26.084,13.217,51.841,27.046,79.604,36.474
		c-13.467,35.552-39.473,115.225-22.178,152.212c2.632,5.63,6.035,7.803,11.387,10.507c10.068,0.45,14.653-3.486,21.963-10.151
		c51.982-47.368,64.942-66.382,133.271-96.543c111.509,33.633,256.577,54.966,364.248-2.739
		c39.351-21.089,65.947-54.507,78.31-97.368c14.272-49.473,13.189-102.842,16.895-153.843c1.253-18.805,3.44-37.502,6.563-56.089
		c3.122-18.584,7.161-36.968,12.119-55.151c14.102-51.177,37.075-101.279,65.322-146.177
		c49.424-78.555,125.981-142.896,69.053-244.511c-18.262-32.588-46.811-52.603-82.266-62.5c-16.748-4.673-33.721-6.348-51.025-7.364
		c-25.791-59.038-44.819-119.604-53.867-183.544c113.892,45.034,223.672,65.415,345.283,74.184
		c9.204,59.419,34.272,103.081,83.144,138.603c16.577,12.051,37.837,16.05,52.603,29.58
		c59.722,54.702,120.068,102.647,191.772,140.889c37.241,19.864,76.318,36.157,113.613,55.811
		c28.096,53.418,21.45,100.649,3.911,156.23c-18.364,58.178-46.23,111.606-94.17,150.591
		c-159.937,111.254-231.26-45.264-402.071,150.225c-40.605,46.47-71.611,101.069-82.934,162.261
		c-3.628,19.595-7.124,47.417,5.679,64.243c2.69,3.535,4.707,3.16,8.76,4.209c18.423-4.887,35.005-23.701,49.644-35.688
		c41.04-33.618,97.534-60.727,151.406-60.41c15.586,17.207,30.893,28.291,51.147,39.487c-19.57,62.734-36.968,143.95-4.365,205.869
		c3.369,6.392,6.919,9.941,13.315,13.408c7.617,0.142,11.182-0.4,16.694-5.981c14.028-14.208,25.239-32.515,37.53-48.32
		c24.023-30.903,60.923-58.696,95.996-75.957c50.034,17.148,96.46,20.795,149.194,20.747c6.27,35.63,26.797,115.371,56.997,137.686
		c4.629,3.423,7.398,4.458,13.213,3.858c38.936-28.97,52.544-82.666,104.512-115.298c80.346-4.272,173.13-21.05,230.019-83.559
		c34.99-38.442,49.36-90.566,46.567-141.826c-4.341-79.639-45.322-152.085-49.428-232.515
		c-4.385-85.796,16.699-172.837,31.318-256.978c8.344-48.037,17.69-99.355,11.987-148.105c-4.243-36.255-18.301-71.734-46.65-95.957
		c-28.935-24.722-69.165-34.575-106.528-31.04c-12.642,1.196-24.97,4.184-37.09,7.905c-33.628-44.141-63.882-89.858-93.872-136.533
		c210.186,55.069,418.408,51.797,627.588-7.251c22.558-6.155,44.899-13.024,67.021-20.605c22.119-7.581,43.976-15.859,65.571-24.834
		c21.595-8.975,42.881-18.628,63.857-28.96c20.98-10.329,41.608-21.317,61.885-32.964c7.647-4.43,15.238-8.954,22.773-13.569
		c7.539-4.619,15.018-9.33,22.437-14.131c7.422-4.802,14.782-9.692,22.08-14.673c7.301-4.98,14.539-10.05,21.714-15.21
		c7.178-5.159,14.29-10.407,21.338-15.742c7.044-5.335,14.023-10.755,20.938-16.26c6.914-5.508,13.76-11.099,20.537-16.773
		c6.777-5.674,13.482-11.429,20.117-17.265c6.634-5.84,13.196-11.759,19.688-17.759c6.488-6.003,12.902-12.082,19.243-18.237
		c6.338-6.159,12.601-12.395,18.789-18.706c6.185-6.312,12.293-12.699,18.325-19.16c6.029-6.461,11.978-12.997,17.847-19.605
		c5.869-6.608,11.657-13.286,17.363-20.034c5.706-6.751,11.328-13.571,16.865-20.459c5.537-6.888,10.988-13.845,16.353-20.869
		c5.368-7.021,10.647-14.108,15.84-21.26c5.192-7.152,10.296-14.367,15.313-21.645c5.016-7.275,9.941-14.612,14.775-22.012
		c4.833-7.399,9.577-14.855,14.229-22.368c4.651-7.516,9.21-15.088,13.677-22.715c4.466-7.627,8.837-15.308,13.115-23.042
		c4.277-7.735,8.458-15.521,12.544-23.36c4.085-7.835,8.075-15.721,11.968-23.657c3.89-7.933,7.684-15.915,11.382-23.945
		c3.695-8.027,7.29-16.1,10.786-24.219c3.5-8.115,6.896-16.273,10.19-24.472c3.298-8.2,6.494-16.439,9.59-24.717
		c3.092-8.281,6.083-16.598,8.974-24.951c2.891-8.35,5.679-16.735,8.364-25.156c2.682-8.421,5.262-16.874,7.74-25.356
		c2.477-8.486,4.848-17,7.114-25.542C4657.532,2412.602,4642.635,2126.767,4496.785,1878.856z M2266.825,2099.237
		c1.909,10.137,1.782,19.829,0.107,30.039c-2.51,15.322-6.26,26.641-18.921,35.928c-2.202-2.49-4.067-4.829-4.624-8.257
		c-2.715-16.777,13.388-45.488,21.137-60.317L2266.825,2099.237z M2198.817,1334.838l-3.252,6.074l-5.093,0.41l0.049,2.148
		c-0.625-1.568-1.216-3.154-1.787-4.741c6.704-16.084,15.537-25.962,27.339-38.471c8.242,3.862,20.039,8.691,24.961,16.201
		C2233.988,1328.432,2211.713,1331.362,2198.817,1334.838z M2249.589,1008.208c-8.438,3.003-16.748,6.46-25.083,9.732
		c-2.363,1.323-4.917,1.675-7.534,2.295c-3.496-10.884,12.783-40.366,17.803-51.768
		C2241.405,979.706,2243.246,995.678,2249.589,1008.208z M2151.083,790.122c7.827,6.563,13.945,15.957,20.2,24.023
		c-5.278,7.183-10.161,14.727-15.205,22.08c-1.699,3.516-3.594,6.548-5.708,9.824
		C2145.863,832.866,2150.717,804.824,2151.083,790.122z M911.049,692.392c30.747-60.132,56.05-130.468,100.386-182.148
		c37.749-44.003,87.578-57.928,143.496-62.456c56.631-3.688,117.041,6.44,172.265,17.998
		c-27.505,21.728-59.063,39.585-87.554,60.269c-89.267,64.789-178.159,129.829-269.16,192.211
		c-37.949,23.955-75.942,49.067-116.304,68.804C873.891,756.01,894.287,725.185,911.049,692.392z M529.541,1601.029l-2.544,3.237
		c-14.775-5.332-43.322-52.329-52.264-66.684c20.208,8.906,40.95,16.367,61.663,23.994L529.541,1601.029z M686.679,1593.598
		c12.612,1.118,25.278,3.579,37.807,5.498c7.759,11.978,22.046,25.01,25.952,38.261l-4.976,5.401
		c-4.922,4.194-7.778,7.256-14.365,8.335C712.231,1643.661,697.075,1610.146,686.679,1593.598z M827.294,1689.169
		c6.567-19.209,11.773-38.979,25.498-54.443c12.29,7.969,20.054,25.869,27.075,38.34c-23.281,13.76-56.074,23.042-73.975,43.779
		c-10.254,11.88-8.931,21.104-7.49,35.684c-7.407-12.641-15.225-25.068-22.861-37.573c-8.652-13.34-18.56-25.918-28.101-38.638
		c6.802-7.617,14.487-14.531,21.86-21.597C788.837,1665.795,807.88,1677.851,827.294,1689.169z M774.887,1602.646l38.604,1.675
		c-2.847,10.19-5.083,20.595-7.539,30.888l-3.032,2.861c-2.793-0.542-3.022-0.4-5.908-2.016
		C787.338,1630.634,777.709,1613.026,774.887,1602.646z M1018.046,1599.57c69.092-7.876,125.703-21.538,191.142-44.419l2.959,0.425
		c1.147,13.12-15.684,49.175-20.269,64.829c-11.689-3.013-25.586-8.369-37.417-9.727c-5.42-0.625-10.039,1.455-14.39,4.561
		c-28.506,20.322-37.734,80.063-43.936,112.573c-12.251-6.904-25.923-14.614-40.347-15.068
		c-11.216-0.352-21.211,3.203-29.189,11.172c-19.238,19.223-23.057,54.179-23.716,80.166c-8.838-7.393-20.073-17.105-30.884-21.255
		c-17.559-6.733-30.84,0.239-46.509,7.69c0.625,8.155,2.397,17.861,0.063,25.703c-7.197-0.928-10.249-5.029-15.737-9.619
		c-25.181-23.721-46.391-51.738-69.355-77.593C913.281,1705.023,962.836,1649.164,1018.046,1599.57z M885.673,1607.094l5.557-1.831
		c28.276-1.24,56.772-1.011,85.078-1.382l-31.284,26.338c-10.752,9.341-21.948,17.808-33.374,26.289
		c-2.456-2.886-4.766-5.703-6.987-8.774C897.299,1637.529,883.706,1619.989,885.673,1607.094z M1207.91,1696.918
		c-13.843,13.838-29.419,25.947-44.541,38.345c-11.645,9.512-23.755,18.076-36.108,26.631c1.929-37.749,5.435-73.799,16.709-110.015
		C1168.974,1669.682,1173.476,1690.873,1207.91,1696.918z M1097.656,1779.208c-7.988,4.649-16.289,8.779-24.492,13.047
		c-15.327,7.036-31.089,13.296-46.641,19.839c2.856-24.946,7.051-49.502,14.761-73.438
		C1062.407,1743.627,1081.538,1765.033,1097.656,1779.208z M880.004,1842.465l-10.254,1.309
		c-21.143-0.249-42.085-0.195-63.037-3.413c7.065-29.985,11.465-60.889,17.773-91.099c2.451,2.495,4.639,5.366,6.763,8.135
		C838.872,1767.338,880.957,1834.984,880.004,1842.465z M782.724,1784.804c-0.664,12.31-0.708,26.572-4.199,38.403
		c-1.499,5.078-1.27,4.976-6.182,7.593c-18.042-6.768-35.464-11.523-44.639-30.225c-12.393-25.259,3.164-64.824,10.967-89.868
		C751.059,1722.704,768.242,1765.58,782.724,1784.804z M796.953,2990.467c13.393,7.476,26.392,13.33,40.82,18.54
		c1.465,39.868,7.476,69.062,22.178,106.187C823.642,3079.95,801.333,3041.288,796.953,2990.467z M1116.206,3144.046l-10.684-7.607
		c-1.973-1.577-3.955-3.149-5.854-4.814c-15.488-13.599-43.345-41.656-44.985-62.764l2.451-2.73l23.589-1.015l8.14-0.268
		c1.069,0.859,2.446,1.44,3.208,2.583c5.166,7.769,8.145,28.086,11.079,37.705c4.019,13.184,10.313,25.264,15.327,38.1
		L1116.206,3144.046z M1443.818,2891.048c-44.014,16.606-131.187-22.437-174.263-38.564c-17.739-6.646-38.042-12.285-54.868-20.772
		c-15.01-7.568-7.603-42.768-13.569-58.657c-13.232-35.259-47.349-52.412-79.38-67.031c15.938,19.429,33.398,39.195,43.979,62.193
		c29.419,63.94-33.589,125.381-54.121,182.954c-0.327,0.918-0.625,1.846-0.938,2.769c9.751,2.783,18.584,6.392,26.846,12.364
		c7.153,5.176,14.541,11.763,14.873,21.343c0.273,8.076-4.512,15.332-10.156,20.654c-18.105,17.061-50.791,19.917-74.722,19.36
		c-12.744-0.298-26.953-2.866-35.752-12.974c-29.58-33.97,41.553-96.782,41.592-144.341c0.015-17.271-4.922-34.575-17.422-46.953
		c-22.998-22.769-59.434-27.734-90.161-28.062c26.899-29.438,58.32-59.214,76.646-94.878
		c-71.333,23.999-115.952,92.891-161.592,148.804c-8.623,10.918-23.735,29.565-25.791,43.218c-0.615,4.072-0.884,2.578,1.577,5.649
		l11.934-6.406l4.107,1.455c6.973,16.421,16.084,35.44,17.612,53.345c0.698,8.189-0.752,12.979-6.24,19.316
		c-13.364,7.012-27.236,4.321-41.226-0.102c-21.475-6.792-52.891-25.84-62.842-47.129
		c-24.531-52.49,103.672-148.486,132.881-190.693c6.958-10.049,10.566-21.626,14.419-33.101
		c-36.86,36.807-82.124,63.145-119.878,98.77c-14.165,13.36-31.855,41.641-50.176,46.382l-2.988-2.661
		c-0.62-6.313-0.142-11.02,2.012-16.924c13.584-37.236,117.94-140.283,153.047-160.508c19.971-11.499,42.407-17.246,63.555-26.27
		c27.871-11.885,54.678-25.757,82.227-38.33c38.022,12.29,70.894,36.367,105.757,55.376c64.214,35.01,129.678,50.528,201.182,62.168
		c17.153,23.726,41.87,73.545,68.867,85.767l3.12-2.251c1.03-33.789-29.243-71.182-48.687-96.27
		c8.574-26.538,10.947-54.805,16.177-82.138c8.813-46.05,25.679-87.026,47.393-128.35c14.478,23.154,30.01,75.84,42.954,103.838
		c20.977,45.371,48.56,87.3,72.119,131.338C1547.363,2753.568,1468.022,2881.913,1443.818,2891.048z M1627.514,3336.566
		c-41.24-27.451-63.418-63.696-76.655-110.825c12.202-1.514,23.623-4.224,35.469-7.354c13.872,8.877,24.399,59.395,32.275,76.216
		c9.087,19.404,19.839,37.28,31.856,54.985L1627.514,3336.566z M1597.529,3054.94c5.425-13.5,18.184-19.717,30.806-24.931
		c1.475,5.581-24.326,41.484-29.414,50.522C1595.024,3072.186,1594.057,3063.597,1597.529,3054.94z M1748.427,3375.125
		c-39.263-19.351-65.703-62.364-81.05-101.582l45.815,1.66c6.348,39.682,15.64,70.171,40.908,102.119
		C1751.547,3376.517,1751.21,3376.498,1748.427,3375.125z M1368.993,4173.768c-22.183,10.127-40.049,21.675-58.423,37.715
		c13.726-29.907,28.613-59.487,49.024-85.469c37.451-47.661,85.81-72.622,145.517-79.741c13.726-0.864,32.217,0.151,44.751,5.693
		c18.74,8.281,24.453,22.456,31.294,40.215c-41.719,18.843-74.751,39.409-106.465,72.696
		C1435.214,4157.127,1406.537,4160.252,1368.993,4173.768z M1647.948,4251.688c-73.765-9.478-90.674-12.07-157.866,25.928
		c-14.727,10.142-28.018,21.216-41.411,33.046c6.904-22.597,14.424-44.472,25.4-65.458c27.275-52.129,76.66-103.281,133.809-121.265
		c10.444-0.771,23.271-2.505,32.764,2.935c12.993,7.456,20.474,20.942,23.74,35.161
		C1671.747,4194.08,1665.224,4224.319,1647.948,4251.688z M1911.498,4323.118c-13.115,7.896-58.101,7.212-75.864,10.849
		c-36.943,7.559-67.754,23.907-98.891,44.59c-13.491,9.775-26.401,20.586-39.482,30.923c8.047-25.459,17.197-49.604,29.683-73.286
		c28.945-54.902,70.889-115.288,132.788-134.36c3.447-0.132,6.948-0.356,10.391,0.093c13.745,1.802,27.002,15.176,34.297,26.123
		c15.259,22.891,23.223,51.675,17.046,78.936C1920.019,4313.357,1917.392,4319.568,1911.498,4323.118z M2395.424,3632.425
		c62.485,79.692-26.084,151.455-66.919,212.929c-6.999,10.508-13.654,21.229-19.966,32.163
		c-6.315,10.934-12.272,22.058-17.871,33.374c-5.602,11.318-10.835,22.803-15.698,34.453c-4.867,11.65-9.355,23.444-13.467,35.381
		c-27.363,81.567-21.621,161.196-32.358,244.487c-4.668,36.211-16.133,73.34-46.46,96.133
		c-67.412,50.668-187.222,47.505-265.947,36.333c4.302-2.603,8.394-5.366,12.29-8.56c16.909-13.862,26.167-35.381,27.588-56.929
		c2.114-31.948-10.703-63.501-31.919-87.09c-22.485-24.995-43.208-30.566-75.19-31.763c3.247-0.928,6.499-1.777,9.756-2.666
		c54.614-14.888,111.172-10.059,162.3-38.594c70.073-39.106,93.931-112.324,114.229-185.098
		c-11.432,21.234-23.973,41.79-37.622,61.67c-36.353,52.153-81.055,94.531-144.297,110.015c-20.02,4.897-40.781,6.934-61.026,10.757
		c-18.257,3.447-36.66,8.608-52.822,17.993c-41.411,24.048-108.208,95.576-135.215,134.956c-10.923-4.102-21.65-8.809-32.427-13.281
		c11.519-14.521,20.034-30.62,24.693-48.579c9.57-36.934,0.849-71.284-18.423-103.096c-11.709-13.184-18.838-18.95-35.713-24.077
		l-3.413-1.006c27.954-22.373,148.418-2.817,187.847-4.614c29.917-1.363,59.712-7.695,86.958-20.298
		c63.525-29.375,101.187-86.587,124.219-150.596c-57.603,85.674-118.96,139.341-226.064,142.651
		c-25.698,0.796-51.635-1.895-77.3-3.184c-41.04-2.061-72.851-1.88-109.888,18.628c-0.801,0.444-1.592,0.903-2.388,1.357
		c-5.356-5.22-6.738-14.932-8.672-22.075c57.637-7.881,117.109-11.944,172.969-28.887
		c116.997-35.479,209.336-117.397,266.211-224.209c35.61,27.559,72.642,43.057,118.208,42.105
		c56.25-1.177,102.549-24.063,141.054-64.033c-5.348,2.955-10.745,5.819-16.191,8.589c-49.023,24.766-114.512,34.839-168.594,24.893
		c-23.154-4.258-45.605-12.49-67.925-19.829l-1.216-45.962c2.34,1.556,4.695,3.087,7.065,4.594
		c46.299,29.614,100.078,33.667,152.813,21.397c40.156-9.341,89.844-31.123,111.802-67.798
		c27.163-45.366,4.863-67.104-5.244-109.951c-0.176-0.737-0.332-1.479-0.493-2.222
		C2351.39,3596.912,2378.69,3611.087,2395.424,3632.425z M2263.798,3553.099c15.4,33.393,51.44,67.676,53.51,104.966
		c1.069,19.341-5.894,36.43-19.14,50.395c-32.393,34.136-87.095,45.054-132.124,46.802c-41.304-0.371-76.768-11.709-110.83-34.761
		c-7.354-13.506-10.62-27.011-13.35-41.934c50.732,24.048,96.445,37.735,152.71,38.194
		c-159.883-60.938-289.443-183.252-410.088-300.918c8.618,2.085,17.905,4.233,26.821,2.788c6.411-1.035,8.799-2.861,12.661-7.842
		c-0.107-3.384,0.513-6.875-1.338-9.839c-10.112-16.143-39.131-33.565-53.603-54.942c-15.278-22.563-23.408-49.033-30.913-74.936
		c15.273-10.088,22.266-17.207,29.487-34.126c4.111,3.354,7.456,8.969,11.245,12.876c9.936,10.239,20.591,16.245,33.213,22.383
		c2.71,11.606,5.566,23.213,9.385,34.512c0.794,2.386,1.647,4.751,2.558,7.095c0.912,2.344,1.882,4.663,2.91,6.958
		c1.026,2.298,2.109,4.567,3.252,6.807c1.14,2.243,2.334,4.455,3.584,6.636c1.25,2.185,2.554,4.334,3.911,6.45
		c1.357,2.116,2.767,4.197,4.229,6.245c1.462,2.048,2.974,4.057,4.536,6.03c1.563,1.969,3.172,3.899,4.829,5.791
		s3.361,3.74,5.112,5.547c1.748,1.807,3.542,3.569,5.381,5.288c1.836,1.715,3.714,3.385,5.635,5.01
		c1.921,1.624,3.88,3.2,5.879,4.727c1.999,1.526,4.035,3.001,6.108,4.424c2.074,1.426,4.18,2.798,6.318,4.116
		c2.142,1.322,4.315,2.588,6.519,3.799c2.204,1.211,4.437,2.366,6.699,3.467c43.193,20.884,94.048,18.682,138.438,2.632
		c40.02-14.468,78.706-43.843,97.148-82.807l71.982,37.002C2212.777,3421.986,2234.467,3489.515,2263.798,3553.099z
		 M1747.46,3138.919l-20.532-27.949c7.163-9.624,15.005-18.911,22.48-28.306c2.437,2.285,3.032,3.984,3.863,7.197
		c3.213,12.485,6.084,43.432-0.356,54.707L1747.46,3138.919z M1889.433,3104.564l6.367-7.388
		c31.514,29.141,57.891,64.956,85.972,97.319c36.885,42.515,80.229,76.421,128.027,105.786
		c-11.348,8.408-22.241,14.698-35.073,20.591c-21.631,7.881-43.848,11.553-66.289,4.59c-37.407-11.606-60.068-47.217-77.578-79.78
		c4.771-4.248,9.575-8.525,13.12-13.896C1976.84,3181.966,1895.077,3130.477,1889.433,3104.564z M1998.773,3367.615
		c-13.726-0.22-27.183-1.138-40.85-2.422c-7.705-2.324-15.522-4.619-22.969-7.695c-39.907-16.47-63.818-45.835-79.668-85.039
		c14.351-1.616,28.472-4.864,42.602-7.798l2.842-0.576c7.837,4.409,13.452,21.216,17.529,29.604
		C1935.912,3329.998,1963.993,3349.232,1998.773,3367.615z M2234.911,3308.128c-108.686-47.949-257.524-149.155-319.121-250.669
		c1.353-27.031,5.449-54.698,10.952-81.182c134.531,27.441,269.561,27.603,401.777-12.017
		c61.386,49.707,134.238,83.027,208.437,108.633c-1.137,28.252-4.238,56.289-4.302,84.624
		c-0.176,82.617,16.977,159.444,43.12,237.192C2456.19,3389.715,2343.602,3356.566,2234.911,3308.128z M2726.752,4349.627
		c-68.647,0.669-124.79,12.886-184.692,47.378c-13.076,9.062-24.746,19.575-36.646,30.098l1.816-4.663
		c33.359-85.005,94.292-173.833,180.429-211.304c4.604,0.327,9.268,0.459,13.574,2.329c15.542,6.748,26.294,22.485,31.997,37.802
		C2746.171,4286.028,2741.83,4316.692,2726.752,4349.627z M2799.872,4535.31c-17.773,15.645-32.959,33.37-48.252,51.348
		c-2.08-61.192,10.894-120.454,41.895-173.653c22.524-38.642,50.147-65.088,94.36-76.728c4.565-0.498,9.175-0.977,13.774-0.972
		c19.897,0.024,37.808,7.451,51.318,22.11c15.093,16.376,25.933,50.458,24.17,72.637c-0.435,5.43-2.011,12.563-6.323,16.396
		c-12.49,11.118-54.888,18.291-73.506,26.963C2861.488,4490.09,2830.404,4510.325,2799.872,4535.31z M3130.858,4590.374
		c-9.834,12.549-18.921,24.941-27.075,38.647c-2.028-4.284-3.973-8.603-5.835-12.959c-17.417-40.961-19.155-82.729-2.178-124.243
		c16.182-39.561,47.129-82.168,87.554-99.311c18.086,1.084,36.133,5.034,51.284,15.425c22.881,15.693,30.088,39.097,34.287,65.058
		C3222.855,4516.6,3177.411,4538.411,3130.858,4590.374z M3392.806,3640.047c86.192,49.36,30.278,220.747,15.107,297.588
		c-8.496,43.042-14.971,87.49-16.479,131.357c-2.514,73.267,13.745,135.405,32.11,205.391
		c14.585,55.576,26.621,114.36-5.205,166.597c-31.025,50.923-88.901,67.666-143.276,81.211c4.864-4.834,10.044-9.766,13.818-15.523
		c11.328-17.27,13.247-40.195,8.506-59.902c-7.226-30.044-29.023-55.562-55.171-71.241c-29.902-17.934-53.877-18.008-86.465-10.454
		l1.997-2.807c22.056-30.557,53.028-57.905,91.709-63.228c1.582-0.222,3.167-0.4,4.756-0.537c1.592-0.143,3.185-0.244,4.78-0.303
		c1.595-0.059,3.19-0.079,4.785-0.059c1.598,0.02,3.193,0.081,4.785,0.181c1.592,0.098,3.182,0.237,4.771,0.42
		c1.585,0.179,3.166,0.399,4.741,0.659c1.576,0.257,3.143,0.555,4.702,0.894s3.111,0.716,4.653,1.133
		c1.54,0.413,3.07,0.868,4.59,1.362c1.517,0.492,3.021,1.022,4.512,1.592c1.494,0.566,2.972,1.17,4.434,1.812
		c1.461,0.645,2.905,1.323,4.331,2.036c1.429,0.716,2.839,1.466,4.229,2.251c1.387,0.788,2.755,1.608,4.106,2.461
		c1.348,0.853,2.674,1.74,3.979,2.661c1.302,0.921,2.581,1.875,3.838,2.861c20.054,15.591,33.609,38.403,36.133,63.803
		c4.448,44.81-19.15,82.026-46.416,114.791c16.724-8.096,30.703-17.856,42.637-32.266c1.344-1.644,2.648-3.322,3.911-5.034
		c1.26-1.708,2.477-3.449,3.653-5.22c1.175-1.771,2.306-3.569,3.394-5.395c1.084-1.826,2.124-3.68,3.12-5.562
		c0.993-1.878,1.938-3.779,2.837-5.703c0.899-1.927,1.748-3.874,2.549-5.84c0.804-1.97,1.558-3.957,2.261-5.962
		c0.703-2.005,1.356-4.027,1.958-6.064c0.602-2.038,1.154-4.09,1.655-6.158c0.501-2.063,0.951-4.139,1.348-6.225
		c0.397-2.09,0.742-4.187,1.035-6.29c0.293-2.106,0.534-4.217,0.723-6.333c0.185-2.119,0.321-4.24,0.405-6.362
		c0.081-2.123,0.11-4.247,0.088-6.372s-0.099-4.25-0.229-6.372c-0.127-2.119-0.308-4.235-0.542-6.348
		c-0.209-1.894-0.466-3.782-0.772-5.664c-0.306-1.881-0.659-3.753-1.059-5.616c-0.401-1.861-0.846-3.714-1.338-5.557
		c-0.495-1.839-1.037-3.665-1.626-5.478c-0.586-1.813-1.218-3.61-1.895-5.391c-0.68-1.78-1.403-3.543-2.168-5.288
		c-0.768-1.745-1.58-3.468-2.436-5.171c-0.856-1.703-1.753-3.382-2.691-5.039c-0.941-1.657-1.924-3.29-2.949-4.897
		c-1.022-1.608-2.085-3.188-3.188-4.741c-1.104-1.553-2.246-3.078-3.427-4.575c-1.182-1.494-2.399-2.959-3.652-4.395
		c-1.257-1.433-2.549-2.832-3.877-4.199c-1.325-1.371-2.684-2.705-4.077-4.004c-1.397-1.298-2.824-2.562-4.282-3.789
		c-1.458-1.224-2.946-2.413-4.463-3.564c-31.196-23.999-66.426-28.906-104.316-24.17c30.566-56.865,40.625-104.375,38.531-168.643
		c-9.316,52.617-34.707,140.815-76.533,176.582c-23.223,19.858-48.804,35.361-66.982,60.586
		c-13.394,18.584-14.761,40.43-25.098,60.043c-8.906,16.905-21.382,32.691-31.465,49.019
		c-11.616,18.818-20.928,38.917-30.415,58.862c-32.852,0.952-65.142-0.668-97.808-3.798c12.417-5.493,31.47-6.04,41.416-14.839
		c17.656-15.611,22.813-40.786,23.467-63.296c0.991-33.833-7.563-68.34-31.704-93.228c-24.053-24.79-49.014-28.238-81.675-28.154
		c54.673-21.753,95.269-30.313,152.266-9.854c23.022,13.477,37.334,29.663,54.448,49.805c-1.597-5.669-3.208-11.353-5.181-16.905
		c-10.864-30.571-32.949-49.14-61.665-62.143c18.364-10.44,34.512-20.889,49.819-35.518
		c65.136-62.241,91.279-160.146,92.925-247.686c-0.853,3.506-1.73,7.007-2.632,10.503
		c-30.23,118.052-64.556,188.726-171.938,252.036c-20.659-2.217-40.63-1.758-61.035,2.456c-21.627,4.464-37.705,11.48-51.95,20.691
		c0.316,0.914,0.638,1.817,0.945,2.751c-0.701-0.676-1.392-1.339-2.08-2c-17.709,11.675-32.709,26.768-52.271,44.602
		c-35.156,32.056-56.445,52.358-83.091,92.085c-6.753-3.34-14.141-6.172-19.434-11.665c3.018-6.592,9.023-7.212,14.361-11.656
		c14.141-11.757,23.008-44.756,26.401-62.832c8.306-44.238-4.717-79.302-29.702-115.425c73.577,8.25,91.452,14.746,143.736,64.89
		c0.379-0.25,0.754-0.504,1.135-0.751c-8.225-23.755-19.688-41.092-37.156-59.241c49.756-4.448,96.919-21.05,135.41-53.613
		c78.291-66.24,103.257-173.838,111.274-271.279c54.854,28.794,112.7,36.313,172.524,17.813
		c55.757-17.246,92.378-52.324,118.95-103.335c-27.92,27.563-57.749,52.651-94.375,67.705
		c-63.369,26.045-134.59,23.447-197.061-2.886c-3.696-12.856-8.159-25.552-12.309-38.271c21.709,5.567,43.589,11.318,65.703,15.01
		c53.491,8.931,109.541,5.312,154.849-27.363c26.357-19.004,45.513-46.543,50.103-79.073c5.84-41.362-11.792-72.388-35.649-104.004
		C3347.191,3626.688,3370.98,3627.547,3392.806,3640.047z M3239.315,3593.943c22.691,28.916,54.561,50.796,75.337,80.855
		c9.053,13.105,14.507,26.216,15.791,42.188c1.904,23.691-5.684,45.376-21.709,62.842c-19.131,20.85-45.898,31.084-73.784,32.514
		c-96.216,4.927-277.642-88.286-359.253-143.032c-34.268-22.988-65.156-48.823-95.781-76.372
		c36.357-21.406,64.775-57.729,75.034-99.052c6.025-24.272,4.834-51.279-9.155-72.686c-15.742-24.097-38.887-29.893-65.313-34.893
		c20.469,12.485,37.373,24.341,46.372,47.769c9.209,23.98,5.063,51.719-6.016,74.336c-14.57,29.736-38.521,48.682-69.419,58.94
		c-32.856-8.784-61.153-25.723-82.026-52.9c-23.208-30.22-27.461-58.862-22.969-95.4c-8.135-14.902-16.274-29.907-23.633-45.205
		c-70.093-145.791-62.559-345.273-9.81-495.796c32.324-92.256,88.975-183.1,180.186-226.099
		c76.05-35.849,129.433-22.007,204.16,5.288c-27.344-26.655-53.682-45.688-91.636-53.315
		c-58.755-11.807-121.255,7.51-170.195,40.073c-70,46.572-116.723,121.382-142.612,200.132c-7.48,22.754-12.383,46.22-18.818,69.272
		c-13.228,47.383-26.23,92.939-35.752,141.328c-70.791-22.358-138.979-57.954-204.404-92.515
		c35.928-15.747,84.243-37.949,101.777-75.923c5.078-10.996,3.486-20.547,0.459-31.997c-5.786-21.875-17.842-43.452-27.446-63.911
		c-21.683-46.045-44.215-91.671-67.597-136.88c-13.296-26.245-28.238-52.402-39.097-79.712l-1.069-2.759
		c8.081-29.204,12.959-59.043,10.063-89.394c-4.766-49.902-27.373-93.725-66.504-125.283
		c-41.724-33.652-84.941-41.191-137.231-35.39c12.559,5.132,28.506,5.415,41.836,8.73c37.08,9.219,76.865,33.852,100.767,63.818
		c34.976,43.857,33.062,92.5,27.549,144.81c-16.245-25.181-33.643-49.702-56.826-68.95c10.366,38.076,29.868,75.977,46.655,111.606
		c36.074,76.553,76.133,151.118,111.079,228.164c6.367,14.038,19.483,35.249,20.542,50.22c0.698,9.873-7.651,20.107-14.321,26.426
		c-16.24,15.386-40.962,25.806-61.689,33.789c-126.807,48.813-265.093,32.695-397.153,26.709c0.922-9.381,2.491-18.613,0.556-27.886
		c-22.896,14.984-33.314,79.053-35.962,104.952c-2.754,26.978,0.664,53.394-10.034,78.819c-3.896-4.297-7.798-8.604-11.909-12.696
		c-5.347-5.327-9.624-7.661-17.378-7.661c-21.328,22.221,74.912,93.72,70.366,124.848c-0.713,4.873-5.361,8.438-9.429,10.777
		c-19.59,11.26-76.377,24.712-97.329,15.132c-6.489-2.964-12.109-11.812-15.195-17.905c-17.749-35.073-12.993-78.706-15.904-116.626
		c-2.314-30.142-8.183-60.029-5.879-90.347c1.714-22.52,7.671-43.042,14.648-64.429c-32.886,41.504-49.375,86.26-64.565,136.348
		c-5.042,4.183-10.037,8.423-14.985,12.72c-3.613,3.169-8.76,7.603-10.273,12.363c-7.769,24.492,45.054,74.844,39.282,108.589
		c-1.294,7.564-4.824,12.945-11.514,16.836c-17.441,10.142-47.378,9.873-66.128,3.814c-14.346-4.639-25.996-14.126-32.481-27.827
		c-7.231-15.283-8.369-33.013-8.838-49.692c-2.231-79.307,28.887-86.123,55.893-147.993c20.957-48.003,37.539-98.716,56.099-147.739
		c-47.49,61.787-76.465,73.53-96.123,154.517c-18.189-2.056-33.022,0.605-47.808,12.041c-33.692,26.06-9.16,76.182-6.396,110.415
		c1.157,14.312-1.44,29.399-3.076,43.613c-14.199,0.445-38.589,3.955-50.522-5.014c-10.869-8.169-13.857-22.754-15.625-35.498
		c-4.253-30.683-13.428-84.907,7.485-111.025c17.617-22.002,45.659-35.483,65.674-55.679
		c44.736-45.146,85.454-108.408,137.661-144.009c13.794-9.405,29.702-15.982,44.8-22.959c20.728-9.575,39.272-17.988,62.822-16.763
		c44.39,2.3,77.305,34.526,123.34,25.913c46.641-8.731,93.101-28.062,138.54-41.851c61.802-18.755,121.387-27.846,185.503-34.448
		c-52.876-19.526-103.008-23.037-158.623-12.837c-27.637-27.744-53.291-57.715-73.491-91.377
		c-31.909-53.169-43.833-105.566-28.511-166.201c-25.068,28.55-35.659,49.053-35.151,87.5
		c-9.585-22.524-18.423-45.322-21.792-69.721c-7.949-57.637,16.938-101.489,50.889-145.659
		c-11.416,7.276-22.817,14.409-32.715,23.731c-32.637,30.742-52.295,71.982-53.281,116.958
		c-1.055,48.062,14.565,109.126,47.412,145.62c12.69,14.097,30.474,23.081,42.861,37.505c20.439,23.804,35.942,50.01,57.876,73.022
		c-43.608,14.775-88.237,29.482-131.05,46.391c-18.501-7.671-37.295-15.176-56.626-20.493
		c-82.69-22.749-129.282,4.487-199.946,44.863c-132.915-167.012-255.757-378.51-194.36-598.95
		c18.037-64.766,60.127-125.811,63.682-193.525c4.443-84.6-29.897-154.082-85.029-215.459
		c44.355-13.447,88.545-25.347,134.604-31.577c102.153-13.809,204.199-9.111,298.017-60.068c5.309-2.864,10.547-5.859,15.713-8.984
		c5.163-3.125,10.246-6.374,15.249-9.746c5.003-3.376,9.92-6.872,14.751-10.489c4.831-3.616,9.57-7.348,14.219-11.196
		c4.645-3.851,9.194-7.812,13.647-11.885c4.453-4.073,8.802-8.252,13.047-12.539c4.248-4.287,8.387-8.677,12.417-13.169
		c4.03-4.492,7.948-9.08,11.753-13.765c3.805-4.684,7.493-9.458,11.064-14.321c3.568-4.866,7.015-9.818,10.342-14.854
		c3.327-5.036,6.527-10.15,9.6-15.342c3.076-5.192,6.022-10.457,8.838-15.796c2.816-5.335,5.498-10.739,8.047-16.211
		c2.549-5.469,4.961-10.998,7.236-16.587c2.279-5.589,4.417-11.23,6.416-16.924c2.002-5.693,3.861-11.432,5.576-17.217
		c8.594-29.194,10.928-58.296,16.47-87.988c3.911-20.942,10.381-41.377,13.516-62.466c9.551-64.331-2.944-135.454-34.468-192.383
		c-30.898-55.801-70.127-87.085-130.962-104.565c23.091,14.243,44.424,28.647,62.788,48.862
		c55.303,60.884,74.243,148.105,70.884,228.374c-6.279-22.256-13.486-43.789-24.082-64.419
		c-23.022-44.829-53.564-72.256-101.67-87.607c7.769,5.869,15.811,11.748,22.91,18.413c48.584,45.591,71.255,116.274,73.857,181.186
		c3.545,88.438-26.641,173.647-87.393,238.535c-128.887,137.666-322.812,91.167-486.548,144.052
		c-179.599,58.008-379.536,209.341-567.553,215.156c-72.983,2.256-168.779-10.132-223.706-63.735
		c-21.396-20.884-35.01-52.358-34.619-82.388c0.65-49.644,28.296-85.029,62.417-117.715c-15.396,33.95-33.442,78.418-19.023,115.522
		c8.179,21.055,26.309,34.771,46.26,43.867c61.992,28.247,146.396,23.672,211.303,9.814
		c169.922-36.284,302.749-148.066,401.724-286.616c54.263-75.957,125-210.161,214.248-244.351
		c69.253,26.358,140.513,41.255,213.384,19.717c56.358-16.65,106.465-51.386,134.741-103.633
		c29.912,28.608,48.169,63.52,62.227,101.938c0.127-8.809,0.405-17.818-0.488-26.592c-4.39-43.208-26.26-86.963-60.991-113.74
		c-11.519-8.882-29.824-18.989-44.829-17.192c-0.942,10.596,14.36,22.471,14.536,35.254c0.176,12.246-16.807,30.703-25.337,39.487
		c-62.143,64.033-157.427,71.519-238.97,47.348c-38.647-11.45-76.694-29.961-117.842-28.901
		c-48.691,1.255-79.653,26.646-111.392,59.873c40.474-20.088,69.893-26.963,115.381-25.381
		c-122.979,79.404-232.344,174.707-376.601,214.634c-179.702,49.741-521.02,30.674-685.215-61.553
		c-35.354-68.394-58.608-229.717-38.113-306.113c4.286-15.981,13.558-44.111,29.438-51.187c4.963-2.212,9.978-1.738,14.866,0.41
		c34.097,14.985,51.216,68.73,62.905,101.069c0.396-17.075,0.635-34.233-1.665-51.201c-4.336-31.997-17.373-54.883-42.882-74.18
		c34.689-40.601,75.153-76.465,118.058-108.169c107.075-79.126,227.27-142.153,338.769-215.137
		c166.934-109.268,323.76-238.481,506.25-321.893c78.755-35.997,179.097-62.813,263.623-30.659
		c113.789,43.285,235.918,234.764,284.307,343.772c-13.315-85.229-50.229-157.656-96.436-229.194
		c91.304,56.606,172.026,138.301,242.266,218.755c11.807,63.662-1.016,124.717-24.404,183.994
		c46.289-40.01,44.648-71.904,76.519-107.49c47.417,75.088,51.719,103.843,7.515,181.968c-4.878,8.618-11.948,18.438-11.025,28.662
		l4.414,3.047c22.52,0.542,48.408-13.438,69.048-21.973c11.469,63.638,11.357,125.205,5.62,189.409
		c-13.74,18.74-103.442,128.281-105.854,136.02l2.368,3.623c22.607,8.335,59.575-7.636,82.031-14.902
		c-13.286,45.747-29.536,116.631-66.968,147.686c-10.723,8.896-35.659,16.968-41.758,28.574
		c14.048,17.305,21.279,4.668,37.188,8.994c-1.006,9.805-1.274,25.649-6.323,34.053c-3.501,5.815-5.923,6.436-11.885,8.667
		c-8.154-0.664-12.769-3.213-19.78-7.388l-2.588-1.572c-8.74,3.398-18.56,9.395-25.972,15.195c-5.278,4.135-7.52,6.27-8.516,12.9
		l4.839,3.574c21.763,3.34,38.159-2.642,58.843-8.892c-9.497,35.688-16.821,70.649-24.351,106.743
		c-9.063,43.427-62.08,93.794-97.783,117.9c-19.009,12.832-40.117,22.402-59.419,34.888l-0.801,4.204
		c1.792,1.758,2.397,2.563,4.902,3.828c37.085,18.726,107.319-5.244,143.232-18.652c2.402,24.674,5.084,49.32,8.047,73.936
		c-28.667,50.835-63.73,89.199-111.777,122.681c-14.282,9.951-60.005,27.52-65.718,41.606c4.941,4.316,7.7,5.625,14.331,6.172
		c13.403,1.104,28.516-3.057,41.665-5.708c60.356-12.153,113.931-33.179,159.814-74.683c25.532,34.717,55.063,63.066,86.875,91.787
		c-11.455,50.356-31.812,84.307-68.784,120.269c-9.37,9.116-24.639,20.815-29.028,33.237l2.515,3.184
		c1.138,0.112,2.275,0.283,3.413,0.342c20.791,1.045,82.505-40.615,98.345-56.416c25.063-25.005,24.849-49.897,24.858-83.154
		c48.95,21.045,98.296,34.16,151.133,41.006c-4.819,12.085-6.406,25.923-11.343,37.432c-2.72,6.348-5.332,6.538-11.299,8.496
		c-13.223-1.968-23.169-7.749-33.32-16.196c-4.097-3.413-5.557-5.303-10.757-6.606c-3.965,3.369-5.171,3.975-5.821,9.453
		c-1.626,13.638,4.238,27.954,4.946,41.641c1.192,23.008-1.987,47.041-4.717,69.883c-1.23,10.298-4.736,24.99,1.753,33.633
		c5.694-1.787,9.888-5.845,13.877-10.142c30.073-32.393,70.327-122.783,68.945-168.53c66.231-2.555,132.484-3.467,198.76-2.734
		l-1.841,31.484c-11.631-4.199-34.135-14.487-45.918-9.888c-3.818,1.489-3.306,3.682-4.438,7.227
		c6.367,13.145,37.495,16.797,50.503,24.199c-8.897,5.244-38.413-7.017-53.819,0.225c-1.113,24.111,40.835,10.854,53.345,24.707
		l-0.362,6.206c-12.329-1.992-34.995-7.319-46.157-0.898c-5.063,2.91-6.474,3.662-7.671,9.248
		c12.192,8.726,31.831,3.037,44.263,11.846c4.468,3.164,4.121,5.449,4.248,10.298c-10.313,19.15-10.562-0.381-23.613,7.07
		c-4.561,2.603-9.067,7.398-10.923,12.193c6.44,11.416,22.065,8.012,28.628,17.891l-3.96,4.707
		c-4.956-0.429-9.854-0.562-14.829-0.644l-3.306,3.882c0.757,9.473,6.968,17.51,11.792,25.449
		c-16.943,47.5-24.575,88.286-54.673,130.103c27.691-16.318,49.014-36.069,65.147-64.048c38.242-66.313,50.884-180.293,31.46-253.53
		c60.62,1.899,206.108,25.142,253.877,61.572c-18.291-4.819-53.78-17.124-71.28-8.276l-0.186,3.97
		c25.972,14.365,49.272,13.794,76.001,32.832c-3.223-1.172-6.494-2.266-9.702-3.481c-4.355-1.65-8.477-3.33-13.042-4.399
		c-10.898-2.549-31.206-5.596-40.669,0.718c-1.743,5.889-1.616,5.972,0.664,11.704c11.616,8.306,25.298,4.488,38.486,7.232
		c6.079,1.265,8.325,4.033,11.729,8.896c-0.205,6.094,0.771,8.062-2.954,13.11l-3.599-1.714l3.989-6.147
		c-2.69-4.775-6.02-4.79-11.181-6.323c-6.816-2.022-12.403-3.057-18.667,0.518c-0.352,17.847,17.182,20.298,21.631,34.678
		c-13.906,4.897-34.189-7.622-50.005-4.702c-3.789,3.047-5.352,4.653-7.446,9.224c-2.232,4.864-1.846,2.847,0.039,8.145
		c9.697,5.523,21.211,1.861,31.46,6.153c-2.749,2.456-1.274,1.299-5.225,3.862l-3.179,2.031c-1.65,6.836-0.938,9.316,2.529,15.732
		c2.466,4.575,4.6,7.876,4.385,13.267c-0.19,4.614,0.547,3.057-2.393,5.732c-5.933-1.978-10.454-4.141-16.685-1.968
		c-3.384,5.215-3.906,5.381-3.374,11.489c3.232,3.799,6.323,7.617,9.297,11.616c-7.651,5.059-21.582,11.914-23.931,20.781
		c4.756,3.496,2.378,1.553,7.07,5.903c-6.694,28.042-32.08,53.442-50.522,74.331c19.072-7.373,35.674-15.835,51.479-28.823
		c63.438-52.139,91.572-149.58,99.263-227.954c63.33,25.635,124.819,64.932,171.333,115.161c-2.984-1.108-5.981-2.124-8.979-3.198
		c-16.421-5.879-30.239-8.145-47.397-3.398c-3.892,3.418-4.043,2.524-5.103,8.037c1.499,7.148,3.555,9.429,9.067,14.267
		c7.314,6.416,13.613,13.018,20.146,20.21c-8.276-4.893-12.275-8.677-22.017-8.662c-2.246,2.3-4.077,2.754-3.662,6.274
		c0.781,6.606,7.202,14.805,12.759,18.14c1.089,0.654,2.324,1.03,3.487,1.548l3.804,6.826l-1.934,2.774
		c-0.85-0.127-1.689-0.273-2.539-0.381c-10.796-1.358-17.11,0.976-26.826,5.425l-3.618,4.619l0.625,4.81
		c7.012,2.154,17.485,2.852,22.432,7.905c-2.075,4.985-3.584,6.387-8.154,9.214l-4.795,0.029c-4.199,0.063-6.748,0.376-10.464,2.524
		c0.63,22.485-3.091,28.677-19.102,45.259c-11.743,12.163-24.18,23.857-36.646,35.298c60.01-19.375,100.181-57.099,128.555-113.281
		c8.481-16.792,14.395-33.623,18.403-52.041c40.327,36.928,83.062,77.124,116.475,120.395
		c-10.449,5.176-21.016,10.166-31.094,16.045c10.093-1.47,21.118-4.219,30.464,1.265c2.427,1.426,2.881,2.197,4.526,4.102
		l-2.065,2.588c-16.03,0.142-33.95-4.756-49.463-1.338c-4.028,6.27-3.032,8.96-2.788,16.27c0.396,0.942,0.679,1.943,1.187,2.832
		c2.969,5.19,6.914,6.768,11.621,9.971c3.726,2.539,2.412,1.543,4.887,6.225c-2.808,7.739-5.923,10.835-13.354,14.488
		c-7.573,3.71-15.029,5.668-23.291,7.099c-15.39,9.502-27.817,21.958-40.532,34.639c26.641,1.006,52.793,0.815,78.291-8.047
		c37.583-13.057,56.104-37.407,72.593-71.685c31.792,42.485,80.757,77.705,115.937,119.658
		c-9.346,8.994-16.069,17.891-23.145,28.657c-10.874,4.644-23.72,8.276-29.14,19.37c3.638,7.217,12.31,9.98,18.721,15.156
		l0.366,6.845c-14.541,29.61-64.946,47.788-94.048,59.561c4.405,1.637,8.862,3.11,13.374,4.419
		c29.526,8.579,61.392,2.812,87.744-12.529c38.042-22.148,54.243-56.743,65.469-97.251c45.635,38.467,90.264,71.455,141.548,102.119
		c-1.328,3.599-2.813,7.1-4.248,10.65c-5.913,14.59-23.814,24.712-34.517,36.504c3.306,0.63,1.709,0.581,5.693-0.03
		c4.331-0.664,3.99,0.02,7.573,2.197l-0.884,2.656c-10.508,5.235-19.814-0.376-31.05,3.335
		c-13.682,14.355,2.793,38.174,0.278,57.744c-4.331,33.677-29.756,56.836-54.917,76.587c33.54-3.784,63.53-11.05,87.885-36.47
		c37.7-39.341,40.264-96.558,39.16-147.769c36.938,16.729,73.56,31.86,113.623,39.297c16.992,3.154,39.229,0.654,54.639,6.621
		l-0.64,2.973l4.365,4.951c-5.752,3.062-9.839,5.722-14.643,10.263c7.661-1.177,14.736-3.603,22.07-6.02l-16.675,14.858
		c4.624-1.128,9.219-2.241,13.877-3.242l4.019,3.55c-3.779,2.729-6.357,4.526-10.986,5.62c-3.579,0.845-7.09,1.587-10.645,2.568
		l1.621,4.272c8.193,5.879,17.925,4.468,27.427,6.822l1.465,4.878c-5.146,5.166-16.67,5.65-23.843,6.875l-0.01,2.544l16.094,9.033
		c-17.905,0.439-35.254,0.816-52.886,4.214c5.186,11.499,7.681,22.871,9.795,35.249c8.531,49.966-10.683,87.236-38.325,126.646
		c12.779-4.8,25.625-10.224,37.271-17.422c39.219-24.229,62.563-64.844,72.793-108.935c9.199-39.668,8.467-76.988-13.569-112.393
		c41.938,0.166,130.615-20.61,159.697-16.528c-4.282,7.969-14.57,13.486-21.88,18.833l0.088,2.251
		c11.445-1.699,19.527-6.333,29.473-11.826l2.422,1.055l-9.121,7.368l0.356,2.832c4.448-0.874,7.529-2.832,11.499-0.352
		c-4.561,5.801-14.697,11.367-15.688,18.247c8.989,1.904,19.463-1.816,28.306-3.818l-10.728,6.226l-0.229,2.207l9.36,2.324
		c-1.46,1.968-2.642,4.033-3.892,6.133l-1.323-1.094c-3.242,2.183-6.221,4.873-9.229,7.354l-0.19,3.203
		c4.668-0.981,8.823-1.851,13.608-1.724c-7.012,6.28-13.638,11.768-13.55,21.992c0.059,7.339,11.797,17.402,14.81,25.288
		c12.422,32.568,11.777,65.112,9.507,99.351c26.313-28.765,43.403-62.632,45.322-102.07c2.461-50.527-20.347-88.77-53.398-124.604
		c18.545-5.679,38.721-16.392,55.308-26.631c15.991-9.868,68.052-52.5,82.979-53.071c5.913-0.225,14.37,2.314,18.804,6.084
		c3.433,2.915,2.393,2.178,2.568,7.007l-3.857,0.645c-3.721-2.109-4.917-3.12-9.307-3.091c2.642,3.916,4.277,6.021,8.447,8.296
		c10.381-5.439,16.885-7.92,28.809-5.615c-8.369,2.832-17.729,8.149-26.372,9.16c-1.011,0.117-2.031,0.098-3.052,0.142l-0.171,3.579
		c7.334,4.688,24.634,0.859,34.258,1.806l2.886,3.857c-0.815,3.53-0.171,2.3-2.197,5.166c-3.262,4.619-6.084,7.925-7.554,13.545
		c4.326,15.923,14.678,17.051,26.66,25.112c22.29,14.995,25.737,56.386,29.829,81.001c9.312-15.205,16.597-32.622,20.112-50.102
		c6.274-31.182-0.806-61.558-19.131-87.451c-20.313-28.706-44.312-37.783-77.319-43.852c30.674-35.713,58.765-73.354,84.272-112.925
		c14.81-3.115,29.868-5.493,44.766-8.218c-10.024,4.511-21.528,9.082-29.126,17.197c3.389,2.202,13.94-5.249,21.016-4.229
		c-4.185,2.476-7.285,3.614-9.966,7.686c9.541,1.323,18.232-4.975,28.042-5.64c1.24,3.531-6.348,8.438-8.428,13.076
		c14.004,2.705,26.987,6.46,39.546,13.408c42.793,23.657,50.532,50.991,62.417,94.78c4.058-19.287,6.479-36.861,5.034-56.587
		c-2.222-30.317-11.943-63.291-36.104-83.296c-28.213-23.359-63.057-23.843-97.495-19.766
		c22.705-45.244,39.57-91.987,56.147-139.697c23.472-4.131,56.45-17.852,79.775-11.055c6.904,2.012,14.746,6.987,18.501,13.169
		c-9.653,1.929-20.62-7.188-30.962-6.978c-18.281,0.362-39.878,7.632-57.446,12.534c72.896,7.031,81.431-2.802,137.886,53.936
		c-3.148-9.447-6.413-18.851-9.795-28.213c-9.326-25.479-24.003-55-50.336-66.108c-27.651-11.665-57.002-0.029-83.057,10.166
		c5.918-26.665,11.89-53.394,15.337-80.508c3.213-25.332,4.312-50.771,8.438-76.011c15.674-6.787,31.44-12.28,48.544-14.072
		c43.691-4.575,73.794,17.08,106.289,42.432c-14.736-31.733-37.25-76.675-72.729-88.521c-29.521-9.854-57.622,5.278-83.042,18.765
		c-2.095-40.977-7.979-81.729-13.135-122.407c9.258-11.787,18.906-22.549,32.163-29.937c29.014-16.162,57.657-8.55,87.471-0.142
		c-1.897-2.487-3.816-4.958-5.756-7.412c-15.366-19.37-35.035-39.15-61.011-41.455c-25.601-2.266-45.181,13.584-63.467,29.087
		c-14.526-38.735-30.654-75.688-48.794-112.822c9.482-12.383,20.005-23.828,33.149-32.383
		c19.111-12.446,35.439-14.931,57.417-10.264l3.482,0.767l1.597-2.051c-8.54-8.242-17.1-16.143-26.914-22.871
		c-12.554-8.604-27.417-14.771-42.842-11.396c-21.768,4.761-35.039,23.223-46.572,40.728
		c-22.241-34.912-50.918-64.863-75.386-98.105c14.438-29.38,35.786-38.628,64.009-51.782c-15.005-6.465-32.393-12.622-48.882-8.594
		c-18.936,4.629-27.734,19.238-36.973,34.795l-34.521-28.74c-181.123-151.484-420.761-236.792-657.48-215.698
		c78.974-28.149,166.933-42.085,250.239-50.859c188.218-19.824,376.592-9.16,557.573,49.209
		c47.183,15.22,92.886,34.331,138.711,53.154c-26.28-3.032-52.588-6.499-79.019-7.861c-67.251-3.472-124.429,3.882-175.679,50.088
		c-100.908-60.21-204.756-101.406-321.147-120.015c79.224,28.858,156.973,58.789,230.376,100.85
		c225.932,129.448,427.436,328.662,496.016,586.562c12.197,45.869,15.962,97.446,17.373,144.873
		c5.751,193.218-46.934,373.447-144,539.79c-121.552,208.306-315.839,360.835-550.024,422.212
		c-9.648,2.584-19.336,5.016-29.063,7.295c-9.727,2.279-19.487,4.403-29.282,6.372c-9.795,1.966-19.619,3.778-29.473,5.435
		c-9.85,1.657-19.725,3.157-29.624,4.502c-9.899,1.341-19.818,2.526-29.756,3.554c-9.938,1.029-19.889,1.898-29.854,2.607
		c-9.965,0.713-19.937,1.268-29.917,1.665c-9.984,0.394-19.971,0.63-29.961,0.708c-9.99,0.078-19.979-0.002-29.966-0.239
		c-9.987-0.241-19.967-0.638-29.941-1.192c-9.974-0.556-19.937-1.271-29.888-2.143c-9.954-0.872-19.891-1.903-29.81-3.091
		c-9.918-1.188-19.816-2.533-29.692-4.033c-9.876-1.5-19.727-3.159-29.551-4.976c-9.824-1.813-19.618-3.782-29.38-5.908
		c-9.759-2.126-19.484-4.406-29.175-6.841c-57.915-13.941-116.123-32.725-167.72-62.935c12.466-28.066,24.394-56.142,32.773-85.761
		c30.732-108.613,19.556-209.043-35.293-307.217c54.072,181.396,5.229,337.612-111.401,482.383
		c-36.05,44.746-79.692,85.386-110.898,133.638c-29.702,45.923-45.112,99.834-66.054,150.015
		c33.818-42.442,60.737-89.546,94.956-131.651c34.609,18.115,74.424,29.639,104.888,54.648
		C3173.69,3483.973,3207.152,3552.952,3239.315,3593.943z M1291.235,1602.699c5.268,1.128,3.213-0.537,5.889,3.188
		c-14.922,20.747-35.234,39.17-52.9,57.69c-9.678,9.79-20.132,18.857-30.322,28.106c-2.017-45.679,12.91-86.24,28.784-128.223
		C1258.163,1576.513,1269.423,1598.027,1291.235,1602.699z M1263.857,1528.954c55.952-28.994,106.762-62.798,158.662-98.364
		c1.616,1.196,0.684,0.244,1.353,3.745c-36.992,45.825-68.599,98.574-109.683,140.664l-13.066-29.893
		C1290.092,1534.716,1277.997,1532.558,1263.857,1528.954z M2122.313,1987.753c-4.707-0.073-2.236,0.347-7.334-1.65l-0.02-10.039
		l-2.534,0.215c-7.559,6.67-15.293,10.776-24.253,15.317l30.884-28.823c0.933,1.235,1.89,2.451,2.803,3.701
		c0.811,1.108,1.582,2.251,2.368,3.379c6.538-0.444,13.96-1.597,20.264,0.488c5.669,1.875,6.475,1.499,9.287,7.007
		c-0.557,0.835-1.03,1.719-1.66,2.495c-5.322,6.582-20.2,17.412-28.608,18.647l2.144-4.482L2122.313,1987.753z M2093.891,2018.344
		c-21.016,9.717-42.764,17.778-64.341,26.152c-2.041,0.308-0.972,0.449-3.115-0.884c19.526-15.024,38.691-30.195,57.358-46.294
		C2085.478,2005.146,2089.867,2011.537,2093.891,2018.344z M2100.37,1771.249c4.351-10.088,12.856-17.857,20.21-25.874l1.313,1.524
		c1.846,18.394,3.848,39.482-5.708,55.908c-5.854,4.238-13.252,2.661-20.107,2.314
		C2103.563,1790.61,2104.394,1787.577,2100.37,1771.249z M2084.677,1817.426c0.098,0.84,0.215,1.675,0.322,2.514
		c-11.445,13.291-45.122,15.625-62.095,17.412l-2.148,0.103l-0.854-2.09c22.583-13.818,43.584-30.2,64.873-45.903
		c1.294,1.284,1.675,3.242,2.432,4.907C2084.418,1802.738,2083.676,1808.612,2084.677,1817.426z M4332.61,2171.942l0.074-4.419
		c10.825-16.235,38.164-23.936,56.338-28.262c20.61,0.112,31.376,8.013,47.675,19.253c-26.679-6.47-45.937-7.939-72.626-1.03
		C4354.08,2161.586,4343.099,2171.796,4332.61,2171.942z M4581.096,2416.722c-15.908,292.358-127.685,561.87-347.724,758.906
		c-220.474,197.427-509.16,285.02-802.426,268.979c-106.538-5.825-216.074-25.386-315.005-66.343
		c-12.705-5.259-32.271-11.167-41.484-21.455l1.948-3.896c58.159-57.49,105.943-117.515,146.792-188.618
		c89.321,52.866,182.505,82.686,284.917,96.24c236.123,31.24,499.702-32.71,689.771-178.447
		c160.889-123.369,285.937-313.33,343.232-507.475c20.625-69.888,30.776-139.346,40.259-211.362
		C4582.483,2381.029,4582.063,2398.954,4581.096,2416.722z"/>
	<path d="M1146.313,524.697c-17.715-5.176-33.75-7.617-52.363-6.47c-56.089,11.201-95.928,49.677-126.904,95.942
		c-17.178,25.654-31.006,53.54-46.465,80.239c9.727-10.518,19.609-20.918,28.662-32.026
		C1012.27,585.869,1046.054,545.542,1146.313,524.697z"/>
	<path d="M2322.318,2844.203c7.241-2.759,11.582-3.667,15.425-11.118c0.358-0.7,0.679-1.416,0.962-2.148
		c0.283-0.736,0.526-1.483,0.727-2.241c0.202-0.762,0.363-1.531,0.483-2.31c0.12-0.774,0.199-1.556,0.234-2.344
		c0.036-0.785,0.03-1.569-0.02-2.354c-0.046-0.784-0.135-1.566-0.268-2.344c-0.13-0.775-0.303-1.54-0.518-2.295
		c-0.215-0.758-0.469-1.502-0.762-2.231c-2.344-5.747-7.178-9.839-13.086-11.567c-2.182-0.64-5.576-0.698-7.9-0.815
		c-8.462,3.892-15.65,7.026-18.335,16.924c-1.626,5.996-0.176,11.582,3.706,16.357
		C2308.168,2842.108,2314.75,2842.997,2322.318,2844.203z"/>
	<path d="M451.763,1185.361c-2.592-1.27-6.398-1.792-9.146-2.349c-19.696,32.861-9.012,80.425-0.315,115.483
		c3.136,12.641,6.247,30.039,14.979,39.941c5.583-0.303,3.331,0.581,7.037-1.787c18.719-34.048,18.803-83.169,7.993-120.024
		C468.935,1205.107,463.217,1190.981,451.763,1185.361z"/>
	<path d="M838.261,1228.203c8.428-5.972,17.52-11.05,26.577-16.001c19.658-10.728,42.793-8.32,61.914-18.14l0.288-2.578
		c-14.971-9.097-33.652-7.93-50.498-7.065c-42.857,11.04-77.861,35.845-100.239,74.419c-12.275,21.152-22.051,50.713-17.847,75.396
		c1.689,9.922,8.647,20.176,15.439,27.348l5.371,1.387c3.779-6.889-2.192-25.063-2.754-33.77
		C783.374,1287.284,803.32,1252.973,838.261,1228.203z"/>
	<path d="M915.825,1238.852c-3.648-0.933-4.429-0.815-8.042-1.03c-36.548,12.842-58.467,40.176-74.702,74.214
		c-5.63,11.797-10.269,22.94-9.819,36.226l2.822,5.068c7.773,1.563,11.172-0.308,18.628-2.68
		c28.643-15.317,76.68-46.05,86.069-79.072c2.31-8.11,1.773-16.465-2.515-23.843
		C925.307,1242.646,921.435,1240.283,915.825,1238.852z"/>
	<path d="M927.641,1109.418c-6.602-0.664-13.706-0.757-20.308-0.195c-84.81,10.562-157.471,65.259-218.721,121.172
		c57.876-26.968,110.127-57.305,171.489-76.553c27.886-8.022,61.401-17.139,88.472-1.66c13.154,7.524,21.919,20.259,25.508,34.873
		c7.222,29.424-3.569,59.551-15.22,86.265c23.53-18.125,38.735-38.55,42.324-69.023c2.759-23.394-3.188-48.149-18.179-66.577
		C969.023,1120.532,949.433,1111.616,927.641,1109.418z"/>
	<path d="M1854.828,2356.806c-9.746-26.914-18.032-54.271-24.858-82.07c-6.826-27.8-12.154-55.884-15.982-84.253
		c-14.414-105.425-12.5-213.745-4.312-319.595c2.52-32.603,15.757-97.104,13.149-123.413
		c-64.434,192.012-62.104,461.67,28.491,644.917c16.055,32.471,35.62,66.04,58.823,93.945l5.903,6.396
		c0.083-11.021-23.647-48.599-29.609-60.947C1874.692,2407.45,1864.276,2382.113,1854.828,2356.806z"/>
	<path d="M1460.741,568.33c48.701-25.712,96.968-42.119,151.626-24.843c76.992,24.331,141.645,98.583,177.148,168.471
		c6.543,12.881,11.782,26.362,18.213,39.268c-18.32-87.114-59.941-178.54-136.792-229.008
		c-38.887-25.532-82.271-36.15-128.53-30.806c-117.051,22.339-206.157,121.543-270.298,216.196
		c-22.51,33.218-40.625,67.705-55.903,104.78C1284.931,718.125,1358.661,628.388,1460.741,568.33z"/>
	<path d="M1794.823,798.608c-1.719-3.786-3.527-7.526-5.425-11.221c-1.901-3.698-3.892-7.345-5.972-10.942
		c-2.08-3.597-4.246-7.142-6.499-10.635c-2.256-3.493-4.595-6.929-7.017-10.308c-2.422-3.375-4.925-6.691-7.51-9.946
		c-2.585-3.255-5.247-6.443-7.988-9.565c-2.741-3.125-5.558-6.18-8.452-9.165c-2.891-2.985-5.853-5.898-8.887-8.74
		c-3.034-2.838-6.136-5.602-9.307-8.291c-3.17-2.689-6.405-5.298-9.702-7.827c-3.297-2.529-6.655-4.976-10.073-7.339
		c-3.418-2.366-6.891-4.647-10.42-6.841c-3.529-2.194-7.111-4.3-10.747-6.318c-3.633-2.018-7.313-3.945-11.04-5.781
		c-3.727-1.839-7.498-3.586-11.313-5.239c-3.812-1.65-7.663-3.208-11.553-4.673c-23.799-8.779-50.708-13.677-76.089-12.91
		c-69.878,5.474-121.724,34.419-166.938,87.788c-35.757,42.202-65.64,88.818-99.351,132.568
		c-74.541,96.753-171.855,145.81-281.069,193.008c124.194-12.378,233.716-73.613,312.036-169.849
		c64.277-78.975,110.645-191.548,225.645-203.828c9.697-1.035,23.115-2.778,32.383,0.068c-22.07,8.086-45.142,9.658-67.271,18.911
		c-54.663,26.152-94.492,66.011-114.614,124.146c-19.609,56.65-16.772,122.124,10.205,175.85
		c8.779,17.476,19.756,32.388,32.388,47.251l-99.053,6.143c25.322,11.489,57.813,14.937,85.303,18.027
		c61.143,6.87,122.993,7.798,182.827-8.262c42.876-11.514,83.994-26.167,128.008-33.374c47.534-7.788,94.414-5.713,142.236-3.481
		c-28.232-17.344-65.103-22.993-97.52-26.704C1829.584,938.955,1826.449,869.248,1794.823,798.608z M1764.789,1008.588
		c-49.614,5.669-93.901,17.974-141.435,32.817c-9.346,2.646-18.771,4.966-28.276,6.958c-9.505,1.992-19.069,3.652-28.691,4.98
		c-9.619,1.328-19.274,2.321-28.965,2.979c-9.688,0.657-19.388,0.98-29.102,0.967c-32.544-28.374-55.747-59.116-64.561-102.295
		c-10.474-51.309,1.86-106.382,30.908-149.609c28.75-42.793,65.63-65.01,115.596-74.873c29.419-2.764,57.09-0.464,84.556,10.982
		c45.229,18.848,78.643,57.602,96.689,102.563C1793.788,899.57,1788.222,954.77,1764.789,1008.588z"/>
	<path d="M1650.854,814.648c-18.179-11.714-38.145-16.792-59.624-15.674c-29.512,7.832-53.018,20.034-69.238,47.275
		c-16.196,27.192-19.092,59.732-10.923,90.005c8.799,32.588,30.171,63.076,59.8,79.795c17.109,9.658,34.238,13.306,53.73,13.843
		c27.612-4.326,49.868-14.443,66.734-37.9c18.706-26.011,21.767-59.6,16.035-90.381
		C1700.849,866.625,1681.015,834.077,1650.854,814.648z M1662.265,900.468c-3.477,11.831-10.166,18.13-20.898,23.559
		c-2.319-0.146-4.639-0.376-6.943-0.698c-19.087-2.681-33.652-15.098-44.463-30.566c-9.595-13.726-16.523-31.46-13.262-48.408
		c2.456-12.769,9.712-19.341,19.912-26.582c5.42-0.132,11.191-0.405,16.499,0.864c16.504,3.955,31.685,19.116,40.156,33.184
		C1661.904,866.157,1667.118,883.955,1662.265,900.468z"/>
</g>
</svg>
