<?xml version="1.0" encoding="utf-8"?>
<!-- Generator: Adobe Illustrator 27.5.0, SVG Export Plug-In . SVG Version: 6.00 Build 0)  -->
<svg xmlns="http://www.w3.org/2000/svg" xmlns:xlink="http://www.w3.org/1999/xlink" viewBox="0 0 500 500" width="595" height="842" preserveAspectRatio="xMidYMid meet" data-scaled="true">
<g id="BACKGROUND">
	<rect style="fill:#FFFFFF;" width="500" height="500"/>
</g>
<g id="OBJECTS">
	<g>
		<defs>
			<rect id="SVGID_1_" width="500" height="500"/>
		</defs>
		<clipPath id="SVGID_00000008131927482364525060000017446112250147209383_">
			<use xlink:href="#SVGID_1_"  style="overflow:visible;"/>
		</clipPath>
		<g style="clip-path:url(#SVGID_00000008131927482364525060000017446112250147209383_);">
			<g>
				<path style="fill:#FFFFFF;stroke:#000000;stroke-linecap:round;stroke-linejoin:round;stroke-miterlimit:10;" d="
					M-12.439,261.879c22.545-10.697,45.09-21.394,67.129-31.424c3.353-1.526,7.164-1.715,10.671-0.57
					c93.874,30.66,191.754,49.565,292.84,55.32c32.352-11.049,64.251-23.38,98.459-37.648c5.469-2.281,11.777-1.339,16.317,2.428
					c16.435,13.637,34.533,26.514,58.618,41.084l-7.185,68.443c-180.006-25.072-364.202-20.828-542.815,12.506
					C-14.169,336.232-13.883,299.995-12.439,261.879z"/>
				<path style="fill:none;stroke:#000000;stroke-linecap:round;stroke-linejoin:round;stroke-miterlimit:10;" d="M360.658,284.512
					c-14.359,5.956-29.344,10.451-44.639,13.389"/>
				<path style="fill:none;stroke:#000000;stroke-linecap:round;stroke-linejoin:round;stroke-miterlimit:10;" d="M463.724,250.315
					c-1.062,3.54-4.718,5.548-7.779,7.686c-3.061,2.139-6.049,5.639-4.859,9.14c0.878,2.585,3.668,3.963,6.201,5.072
					c4.719,2.068,9.437,4.135,14.155,6.203c2.146,0.941,4.614,2.312,4.756,4.618c0.153,2.479-2.471,4.142-4.753,5.207
					c-21.003,9.805-43.367,16.784-66.277,20.684"/>
				<path style="fill:none;stroke:#000000;stroke-linecap:round;stroke-linejoin:round;stroke-miterlimit:10;" d="M60.373,234.163
					c-2.551,3.05-4.751,6.384-6.549,9.915c-1.336,2.624,0.004,5.83,2.863,6.672c10.931,3.22,21.471,7.878,31.437,14.33
					c3.67,2.376,3.562,7.704-0.223,9.901L6.503,322.223"/>
			</g>
			<g>
				<path style="fill:#FFFFFF;stroke:#000000;stroke-linecap:round;stroke-linejoin:round;stroke-miterlimit:10;" d="
					M507.208,411.274c-16.324,4.045-31.253,12.669-42.361,24.365c-2.683,2.825-6.155,4.929-10.052,6.047
					c-18.579,5.332-36.363,10.819-53.618,17.306c-3.571,1.342-7.433,1.911-11.285,1.705c-76.878-4.108-149.934-4.818-222.717-1.539
					c-2.075,0.093-4.153-0.109-6.154-0.622c-10.698-2.744-21.368-5.835-32.032-8.991c-4.151-1.229-6.031-5.617-3.947-9.134
					c2.589-4.372,5.631-8.782,8.672-13.192c-48.73-4.587-95.771-2.667-139.918,5.228c-2.164-28.693-4.329-57.385-3.052-89.216
					c174.369-35.98,357.132-37.267,532.082-3.746C516.63,364.625,510.433,389.765,507.208,411.274z"/>
				<g>
					<path style="fill:none;stroke:#000000;stroke-linecap:round;stroke-linejoin:round;stroke-miterlimit:10;" d="M124.054,444.784
						c1.491,15.199,2.159,30.465,2.001,45.725"/>
					<path style="fill:none;stroke:#000000;stroke-linecap:round;stroke-linejoin:round;stroke-miterlimit:10;" d="M130.038,468.003
						c1.133,10.899,1.309,21.882,0.525,32.808"/>
					<path style="fill:none;stroke:#000000;stroke-linecap:round;stroke-linejoin:round;stroke-miterlimit:10;" d="M55.656,432.158
						c1.18,14.053,0.559,28.233-1.846,42.153"/>
					<path style="fill:none;stroke:#000000;stroke-linecap:round;stroke-linejoin:round;stroke-miterlimit:10;" d="M49.113,447.831
						c-0.452,12.079-2.333,24.113-5.598,35.822"/>
					<path style="fill:none;stroke:#000000;stroke-linecap:round;stroke-linejoin:round;stroke-miterlimit:10;" d="M165.658,459.131
						c2.158,11.416,3.091,23.026,2.784,34.609"/>
					<path style="fill:none;stroke:#000000;stroke-linecap:round;stroke-linejoin:round;stroke-miterlimit:10;" d="M173.879,469.586
						c0.315,3.772,0.631,7.545,0.946,11.318"/>
				</g>
				<g>
					<path style="fill:none;stroke:#000000;stroke-linecap:round;stroke-linejoin:round;stroke-miterlimit:10;" d="M397.317,460.111
						c-1.647,15.737-3.294,31.474-4.941,47.21"/>
					<path style="fill:none;stroke:#000000;stroke-linecap:round;stroke-linejoin:round;stroke-miterlimit:10;" d="M390.731,474.698
						c-2.139,12.099-3.492,24.315-4.051,36.562"/>
					<path style="fill:none;stroke:#000000;stroke-linecap:round;stroke-linejoin:round;stroke-miterlimit:10;" d="M462.788,438.569
						c-1.986,8.58-3.02,17.345-3.082,26.117"/>
				</g>
			</g>
			<g>
				<path style="fill:#FFFFFF;stroke:#000000;stroke-linecap:round;stroke-linejoin:round;stroke-miterlimit:10;" d="
					M-3.979,474.713c9.776-3.49,19.551-6.98,29.327-10.47c1.414-0.505,2.997-1.007,4.374-0.406c1.404,0.613,2.103,2.151,3.02,3.378
					c3.058,4.086,9.176,4.858,13.928,2.999s8.381-5.773,11.518-9.799c2.933-3.763,5.829-7.924,10.236-9.752
					c4.407-1.828,10.744,0.167,11.369,4.896c0.867,6.559-9.046,10.337-9.083,16.954c-0.031,5.407,6.458,8.323,11.858,8.608
					c7.947,0.419,15.809-1.784,23.765-1.952s16.852,2.406,20.624,9.413c1.914,3.555,2.224,7.731,3.473,11.57
					c1.249,3.839,4.044,7.735,8.067,8.081c-46.673,3.745-93.469,5.953-140.287,6.619C-2.329,500.974-2.868,487.096-3.979,474.713z"
					/>
				<path style="fill:#FFFFFF;stroke:#000000;stroke-linecap:round;stroke-linejoin:round;stroke-miterlimit:10;" d="
					M89.229,446.197c2.243-1.843,3.058-4.861,3.811-7.665c0.753-2.804,1.721-5.815,4.113-7.461c2.392-1.646,6.556-0.763,6.966,2.111
					c0.246,1.729-0.905,3.323-2.063,4.631C98.535,441.789,94.335,445.161,89.229,446.197z"/>
				<path style="fill:#FFFFFF;stroke:#000000;stroke-linecap:round;stroke-linejoin:round;stroke-miterlimit:10;" d="M38.92,450.193
					c-1.036-2.829-0.621-5.948-0.506-8.958c0.116-3.011-0.2-6.316-2.294-8.482c-2.094-2.166-6.473-2.109-7.562,0.7
					c-0.651,1.681,0.077,3.56,0.901,5.163C31.864,443.294,35.183,447.5,38.92,450.193z"/>
			</g>
			<g>
				<path style="fill:#FFFFFF;stroke:#000000;stroke-linecap:round;stroke-linejoin:round;stroke-miterlimit:10;" d="
					M404.521,501.276c10.847-0.567,20.705-9.376,22.483-20.091c0.397-2.394,0.46-4.935,1.674-7.036
					c1.214-2.101,4.163-3.476,6.114-2.033c2.027,1.499,1.536,4.611,2.368,6.991c1.673,4.786,8.746,5.467,12.858,2.5
					c4.112-2.967,5.991-8.055,7.772-12.802c1.323-3.528,3.062-7.396,6.572-8.764c3.511-1.368,8.443,2.31,6.618,5.606
					c-0.732,1.323-2.329,2.205-2.5,3.707c-0.194,1.705,1.738,3.019,3.45,2.906c1.712-0.113,3.195-1.162,4.635-2.096
					c9.16-5.941,20.47-8.486,31.292-7.041c-0.784,14.463-1.568,28.926-2.352,43.39C473.209,508.597,440.792,508.8,404.521,501.276z"
					/>
				<path style="fill:#FFFFFF;stroke:#000000;stroke-linecap:round;stroke-linejoin:round;stroke-miterlimit:10;" d="
					M476.827,451.932c1.06-1.837,1.32-4.011,1.915-6.047c0.596-2.036,1.724-4.138,3.71-4.883c1.986-0.744,4.737,0.803,4.39,2.896
					c-0.186,1.121-1.124,1.945-2.016,2.649C481.963,448.807,478.947,450.874,476.827,451.932z"/>
				<path style="fill:#FFFFFF;stroke:#000000;stroke-linecap:round;stroke-linejoin:round;stroke-miterlimit:10;" d="M447.52,462.47
					c-0.891-2.618,0.136-5.466,0.146-8.232c0.01-2.766-2.037-6.087-4.718-5.405c-1.985,0.505-2.838,3.053-2.246,5.014
					c0.593,1.96,2.176,3.436,3.706,4.798S447.542,461.447,447.52,462.47z"/>
			</g>
			<g>
				<path style="fill:#FFFFFF;stroke:#000000;stroke-linecap:round;stroke-linejoin:round;stroke-miterlimit:10;" d="
					M-8.716,131.062c0,0,113.458,0,111.899-0.913c0-9.059-6.436-17.817-15.449-21.025c-9.014-3.208-20.008-0.653-26.392,6.133
					c-4.317-7.593-16.256-10.14-23.637-5.042c-2.993-8.836-10.829-16.085-20.276-18.757c-9.447-2.673-20.239-0.693-27.519,4.854
					C-10.32,108.557-9.652,120.816-8.716,131.062z"/>
				<path style="fill:#FFFFFF;stroke:#000000;stroke-linecap:round;stroke-linejoin:round;stroke-miterlimit:10;" d="
					M519.416,98.919c0,0-130.985,0-130.762-0.883c2.066-6.504,7.223-11.95,13.604-14.369c6.381-2.419,13.852-1.758,19.676,1.177
					c1.091-3.983,4.061-7.407,7.85-9.051c3.789-1.644,8.318-1.473,11.866,0.295c-0.314-8.687,3.93-17.411,10.956-22.528
					c7.027-5.117,16.633-6.477,24.804-3.512c8.171,2.965,14.669,10.168,16.78,18.601c6.96-3.244,15.742,0.224,20.241,6.446
					C518.929,81.316,519.796,89.534,519.416,98.919z"/>
				<path style="fill:#FFFFFF;stroke:#000000;stroke-linecap:round;stroke-linejoin:round;stroke-miterlimit:10;" d="
					M328.408,59.588c0,0-218.93,0-217.477-0.726c-0.57-10.285,5.324-20.65,14.454-25.418c9.13-4.768,21.005-3.682,29.119,2.663
					c0.504-20.863,17.983-39.988,38.717-42.361c20.734-2.373,42.083,12.307,47.287,32.517c10.129-5.645,24.23-2.618,31.15,6.687
					c9.86-10.248,26.348-13.42,39.306-7.563C323.923,31.244,332.436,45.716,328.408,59.588z"/>
			</g>
		</g>
	</g>
	<g>
		<g>
			<path style="fill:#FFFFFF;stroke:#000000;stroke-width:2;stroke-linecap:round;stroke-linejoin:round;stroke-miterlimit:10;" d="
				M182.406,367.381c-7.227-5.367-16.072-8.524-25.063-8.946c-4.567-0.214-9.294,0.302-13.324,2.463
				c-4.029,2.162-7.247,6.195-7.531,10.759c-0.284,4.564,2.956,9.346,8.354,11.558c3.647,5.209,10.245,8.192,18.542,7.71
				c7.256,4.518,16.086,5.779,24.633,5.82c6.807,0.033,13.949-0.758,19.571-4.595s9.108-11.5,6.307-17.704
				C203.876,376.582,192.69,375.02,182.406,367.381z"/>
			<path style="fill:none;stroke:#000000;stroke-width:2;stroke-linecap:round;stroke-linejoin:round;stroke-miterlimit:10;" d="
				M171.742,375.518c-3.712-0.465-7.609,1.632-9.266,4.986s-0.953,7.723,1.672,10.388"/>
			<path style="fill:none;stroke:#000000;stroke-width:2;stroke-linecap:round;stroke-linejoin:round;stroke-miterlimit:10;" d="
				M154.703,368.117c-3.378,0.238-6.603,2.111-8.485,4.926c-1.882,2.815-2.378,6.511-1.306,9.724"/>
		</g>
		<g>
			<path style="fill:#FFFFFF;stroke:#000000;stroke-width:2;stroke-linecap:round;stroke-linejoin:round;stroke-miterlimit:10;" d="
				M284.946,378.989c-3.778,1.708-5.507,6.415-4.832,10.506c0.674,4.091,3.257,7.615,6.144,10.59
				c10.987,11.324,27.724,16.755,44.502,13.469c5.99,1.669,12.878-0.563,17.161-5.316c3.969-0.553,7.784-2.599,10.133-5.845
				c2.349-3.246,3.08-7.703,1.539-11.401c-1.88-4.512-6.684-7.217-11.49-8.114c-4.805-0.897-9.743-0.322-14.629-0.148
				c-4.885,0.174-9.999-0.117-14.022-2.593C307.982,382.879,295.75,382.355,284.946,378.989z"/>
			<path style="fill:none;stroke:#000000;stroke-width:2;stroke-linecap:round;stroke-linejoin:round;stroke-miterlimit:10;" d="
				M319.897,396.818c3.908-0.253,7.881,1.794,9.943,5.124c2.062,3.33,2.123,7.799,0.153,11.185"/>
			<path style="fill:none;stroke:#000000;stroke-width:2;stroke-linecap:round;stroke-linejoin:round;stroke-miterlimit:10;" d="
				M340.73,391.279c3.629,1.11,6.62,4.117,7.709,7.752c1.09,3.635,0.247,7.791-2.174,10.715"/>
		</g>
		<path style="fill:#FFFFFF;stroke:#000000;stroke-width:2;stroke-linecap:round;stroke-linejoin:round;stroke-miterlimit:10;" d="
			M327.139,222.391c19.678-14.389,25.619-47.675,20.818-71.33c-15.476-76.247-147.253-79.678-174.094-4.906
			c-8.611,23.988-2.365,55.925,18.891,77.181c-8.693,24.215-17.394,48.459-24.222,73.264c-3.146,11.431-5.908,23.099-5.984,34.955
			c-0.075,11.856,2.734,24.034,9.817,33.542c6.524,8.757,17.032,14.879,29.836,15.333c2.014,0.072,4.026-0.172,6-0.576
			c28.956-5.922,59.49-4.133,88.841,5.561c2.273,0.751,4.625,1.233,7.014,1.375c8.095,0.481,16.251,0.699,24.148-1.036
			c9.088-1.998,17.95-6.968,22.504-15.083c3.772-6.721,4.217-14.765,4.123-22.472C354.305,305.017,339.793,263.38,327.139,222.391z"
			/>
		<path style="fill:#FFFFFF;stroke:#000000;stroke-width:2;stroke-linecap:round;stroke-linejoin:round;stroke-miterlimit:10;" d="
			M198.195,221.443c-34.677-19.853-69.355-39.706-104.032-59.559c-2.228-1.276-4.672-2.597-7.222-2.25
			c-5.016,0.682-6.878,6.945-6.893,11.978c-0.078,25.465,17.88,49.736,40.115,62.334c22.235,12.598,39.981,15.376,67.041,18.94"/>
		<path style="fill:#FFFFFF;stroke:#000000;stroke-width:2;stroke-linecap:round;stroke-linejoin:round;stroke-miterlimit:10;" d="
			M323.049,225.696c32.789-25.23,65.509-49.245,98.298-74.476c4.033-3.104,9.021-6.37,13.743-4.533
			c3.272,1.272,5.361,4.804,5.928,8.385c0.567,3.581-0.141,7.233-0.996,10.743c-6.249,25.635-20.034,48.899-39.18,66.17
			c-15.087,13.609-41.725,24.511-67.185,24.816"/>
		<g>
			<g>
				
					<path style="fill:#FFFFFF;stroke:#000000;stroke-width:2;stroke-linecap:round;stroke-linejoin:round;stroke-miterlimit:10;" d="
					M284.168,189.135c-2.826-8.97-12.299-15.761-22.367-16.035c-10.068-0.274-19.953,5.991-23.245,15.855
					c1.588,6.372,3.235,12.881,6.837,18.373c3.602,5.492,9.592,9.871,16.158,9.75c6.397-0.118,12.109-4.482,15.56-9.871
					C280.563,201.82,282.15,195.482,284.168,189.135z"/>
				
					<path style="fill:#FFFFFF;stroke:#000000;stroke-width:2;stroke-linecap:round;stroke-linejoin:round;stroke-miterlimit:10;" d="
					M243.361,190.578c2.28,5.988,4.819,12.333,9.652,15.807c4.964,3.569,11.69,3.223,16.697-0.268
					c5.006-3.49,8.283-9.783,9.226-16.406"/>
				
					<path style="fill:#FFFFFF;stroke:#000000;stroke-width:2;stroke-linecap:round;stroke-linejoin:round;stroke-miterlimit:10;" d="
					M239.379,188.39c14.048,5.965,29.793,5.853,43.433-0.002"/>
			</g>
			<g>
				<path style="fill:none;stroke:#000000;stroke-width:2;stroke-linecap:round;stroke-linejoin:round;stroke-miterlimit:10;" d="
					M198.772,180.619c-2.225-7.666,1.808-16.653,9.016-20.085c7.207-3.432,16.727-0.899,21.275,5.66"/>
				<g>
					<ellipse cx="220.499" cy="178.904" rx="12.121" ry="14.647"/>
					<path style="fill:#FFFFFF;" d="M213.604,171.351c1.859-3.047,5.561-4.178,8.268-2.526c2.708,1.652,3.396,5.461,1.538,8.508
						c-1.859,3.047-5.561,4.178-8.268,2.526S211.745,174.398,213.604,171.351z"/>
				</g>
			</g>
			<g>
				<path style="fill:none;stroke:#000000;stroke-width:2;stroke-linecap:round;stroke-linejoin:round;stroke-miterlimit:10;" d="
					M323.09,180.619c2.226-7.666-1.808-16.653-9.015-20.085c-7.207-3.432-16.727-0.899-21.275,5.66"/>
				<g>
					<ellipse cx="301.364" cy="178.904" rx="12.121" ry="14.647"/>
					<path style="fill:#FFFFFF;" d="M294.468,171.351c1.859-3.047,5.561-4.178,8.268-2.526c2.708,1.652,3.397,5.461,1.538,8.508
						c-1.859,3.047-5.56,4.178-8.268,2.526C293.298,178.207,292.609,174.398,294.468,171.351z"/>
				</g>
			</g>
		</g>
		<path style="fill:none;stroke:#000000;stroke-width:2;stroke-linecap:round;stroke-linejoin:round;stroke-miterlimit:10;" d="
			M252.446,173.904c-0.247-8.824-0.604-17.759-3.146-26.213c-2.542-8.454-7.537-16.502-15.161-20.95
			c-11.724-6.84-27.631-3.424-37.526,5.867s-14.362,23.259-14.727,36.827c-0.374,13.924,3.885,29.102,16.379,37.337
			c5.938,3.915,13.046,6.004,20.458,6.416c-11.509,19.203-23.144,38.69-29.26,60.226s-6.162,45.736,4.827,65.241
			c7.664,13.602,20.12,24.072,27.447,37.858"/>
		<path style="fill:none;stroke:#000000;stroke-width:2;stroke-linecap:round;stroke-linejoin:round;stroke-miterlimit:10;" d="
			M269.74,173.492c0.815-12.379,2.905-25.118,9.701-35.497c6.796-10.379,19.302-17.833,31.48-15.469
			c23.302,4.524,26.776,32.292,26.79,48.633c0.037,42.222-31.305,43.59-37.523,43.73c8.729,18.35,16.527,37.278,20.928,57.117
			c4.402,19.838,5.31,40.708,0.328,60.408c-4.982,19.7-16.174,38.162-32.75,49.915"/>
	</g>
</g>
</svg>
