<?xml version="1.0" encoding="utf-8"?>
<!-- Generator: Adobe Illustrator 27.5.0, SVG Export Plug-In . SVG Version: 6.00 Build 0)  -->
<svg xmlns="http://www.w3.org/2000/svg" xmlns:xlink="http://www.w3.org/1999/xlink" viewBox="0 0 500 500" width="595" height="842" preserveAspectRatio="xMidYMid meet" data-scaled="true">
<g id="BACKGROUND">
	<rect style="fill:#FFFFFF;" width="500" height="500"/>
</g>
<g id="OBJECTS">
	<g>
		<g>
			<path d="M323.478,156.927c0.007,0.007,0.01,0.009,0.017,0.015c0.013,0.01,0.027,0.02,0.04,0.029
				c-0.021-0.018-0.044-0.038-0.069-0.058C323.47,156.919,323.474,156.923,323.478,156.927z"/>
			<path d="M205.64,218.097c-1.536-1.11-3.204-2.074-5.019-2.643c-3.336-0.897-4.781-1.153-7.055-2.698
				c-0.575-0.369-1.074-0.866-1.728-1.092c-0.952-0.257-2.036,0.209-2.374,1.148c-0.507,1.353,0.383,2.774,1.006,3.946
				c0.84,1.21,0.277,0.451,1.199,1.656c0.189,0.203,0.372,0.432,0.579,0.626c0.232,0.508,0.462,1.016,0.689,1.526
				c0.374,0.924,0.277,0.681,0.551,1.353c0.045,0.165,0.124,0.319,0.221,0.459c-0.227,1.549-0.345,3.116-0.432,4.676
				c-0.544,4.508,0.224,11.252,1.651,13.798c1.439,3.603,5.494,5.856,9.314,5.177c3.12-0.656,5.263-3.514,6.306-6.374
				c0.831-1.763,1.062-3.701,1.144-5.628c0.116-1.502,0.135-3.01-0.125-4.5C211.048,225.188,209.391,220.645,205.64,218.097z"/>
			<path d="M259.185,246.308c3.922,2.138,8.445-0.064,10.669-3.595c4.426-6.621,4.264-14.799,2.145-22.186
				c-1.042-4.506-1.223-4.69,0.802-6.96c0.047-0.037,0.084-0.079,0.127-0.117c0.72-0.294,1.46-0.67,1.647-1.496
				c0.41-1.39-0.978-2.798-2.375-2.375c-5.144,2.251-7.837,2.692-11.24,5.406c-6.005,5.512-8.919,14.54-8.023,22.567
				C253.4,241.31,255.646,244.789,259.185,246.308z"/>
			<path d="M232.749,268.29c0.023-0.048,0.04-0.098,0.063-0.147c0.485,1.116,1.118,2.159,1.97,3.081
				c2.003,1.614,4.82,2.19,7.336,1.805c1.627-0.212,3.195-1.099,4.143-2.45c0.603-0.721,1.041-1.841,0.327-2.637
				c-0.778-1.119-2.546-0.749-3.025,0.463c-0.056,0.092-0.12,0.179-0.182,0.268c-0.037,0.041-0.074,0.082-0.136,0.148
				c-0.108,0.107-0.224,0.206-0.339,0.305c-0.044,0.027-0.095,0.057-0.164,0.096c-1.289,0.95-4.82,0.332-5.769-0.681
				c-1.354-1.55-2.212-5.509-2.204-9.316c-0.007-0.955-0.004-1.91-0.003-2.865c0.2-0.109,0.397-0.239,0.583-0.421
				c0.716-0.809,1.098-1.861,1.615-2.802c0.428-0.906,0.905-1.825,0.954-2.845c0.107-1.261-0.723-2.59-2.023-2.764
				c-1.574-0.264-3.189-0.323-4.776-0.158c-0.79,0.133-1.709,0.115-2.367,0.62c-0.796,0.332-1.4,1.07-1.38,1.994
				c0.262,1.793,1.62,3.243,2.684,4.643c0.251,0.302,0.551,0.602,0.881,0.876c-0.069,0.961,0.135,2.092,0.071,2.914
				c-0.035,3.009-0.023,4.333-0.648,6.584c-0.528,1.532-0.322,1.078-1.132,2.679c-0.519,0.752-0.142,0.412-0.869,1.059
				c-2.466,1.476-3.661,1.684-5.748,1.13c-0.079-0.039-0.163-0.083-0.237-0.128c-0.066-0.043-0.109-0.072-0.152-0.1
				c-0.102-0.09-0.203-0.18-0.299-0.276c-0.251-0.242-0.473-0.548-0.821-0.649c-1.484-0.706-2.854,1.351-1.672,2.481
				c3.131,3.662,8.344,2.451,10.887,0.457C231.485,270.844,232.21,269.574,232.749,268.29z"/>
			<path d="M144.983,179.969c0.076,0.032,0.154,0.06,0.23,0.09c-0.041-0.019-0.117-0.05-0.237-0.093
				C144.979,179.967,144.981,179.968,144.983,179.969z"/>
			<path d="M313.906,326.015c-0.003-0.009-0.007-0.017-0.01-0.026c-0.032-0.076-0.068-0.153-0.105-0.229
				C313.776,325.742,313.801,325.81,313.906,326.015z"/>
			<path d="M413.867,380.925c0.019-0.037,0.029-0.058,0.042-0.083c0.013-0.03,0.025-0.059,0.038-0.089
				c-0.023,0.037-0.089,0.165-0.135,0.282C413.832,380.997,413.845,380.961,413.867,380.925z"/>
			<path d="M440.529,298.193c-0.104-8.299-1.476-16.551-3.683-24.542c-2.444-9.138-6.371-17.783-10.322-26.349
				c-2.012-4.272-3.607-7.771-4.791-11.222c-1.202-4.152-1.364-6.088-1.65-10.221c0.069-1.377-1.648-2.428-2.752-1.447
				c-0.485,0.396-0.772,0.985-1.151,1.488c-0.04,0.047-0.48,0.596-0.656,0.786c-0.653,0.707-1.339,1.383-2.046,2.036
				c-8.038,7.974-21.913,12.5-35.901,14.855c-6.131,0.96-11.427,1.548-19.265,2.525c-3.087,0.406-6.208,0.617-9.245,1.332
				c-3.62,0.905-7.107,2.518-9.961,4.945c-0.314,0.262-0.614,0.541-0.916,0.817c-1.709-7.727-5.292-13.833-7.513-21.117
				c-1.122-4.286-1.207-6.947-1.434-11.754c1.436-0.756,3.578-2.59,5.664-4.543c5.381-4.909,10.745-9.855,15.394-15.483
				c10.843-12.086,20.105-25.476,28.025-39.639c5.275-8.791,9.987-17.951,13.379-27.644c1.814-5.483,2.776-11.216,3.328-16.954
				c0.848-12.972-0.422-25.997,0.472-38.966c0.441-5.384,0.87-8.047,1.682-13.136c1.095-5.449,1.956-12.925,1.147-16.776
				c-2.066-12.995-5.872-12.862-16.018-5.943c-7.432,5.152-14.886,10.267-22.583,15.02c-12.252,7.816-24.758,15.224-37.019,23.024
				c-5.637,3.679-11.555,6.956-16.822,11.175c-7.97,6.077-15.032,13.423-20.592,21.771c-2.945,4.53-5.756,9.214-7.615,14.306
				c-0.341,0.915-0.684,1.829-1.022,2.745c-1.95-0.931-3.976-1.704-6.047-2.332c-11.878-3.646-24.249-6.014-36.713-5.676
				c-10.175,0.291-20.634,1.374-30.17,5.108c-0.014-0.014-0.024-0.029-0.039-0.042c-3.12-3.342-6.056-6.88-9.676-9.709
				c-4.935-3.956-10.495-7.024-16.071-9.97c-9.208-4.968-18.304-10.166-26.947-16.074c-9.536-6.677-17.65-12.175-25.916-20.776
				c-4.075-4.393-8.001-8.917-11.999-13.378c-3.799-3.886-11.312-12.943-17.165-9.058c-1.989,1.397-2.905,3.765-3.724,5.962
				c-1.379,3.628-2.317,7.397-3.178,11.176c-2.522,11.776-4.128,23.825-4.221,35.879c0.072,8.361,1.291,16.681,2.763,24.898
				c2.176,11.739,5.086,23.409,9.371,34.565c6.696,16.312,15.634,31.766,26.856,45.389c4.348,4.994,10.046,9.58,14.7,11.684
				c0.377,0.209,0.713,0.336,1.024,0.421c-0.948,4.673-2.451,10.428-3.906,14.475c-1.721,5.357-3.863,10.554-5.973,15.764
				c-3.033,7.269-2.687,14.289,0.99,21.941c5.345,11.469,15.609,19.191,26.954,24.207c5.499,2.528,11.14,4.739,16.946,6.393
				c-0.672,0.276-1.338,0.566-1.998,0.865c-3.867,1.653-7.661,3.821-10.337,7.136c-7.792,9.181-9.681,22.903-5.448,34.071
				c0.588,1.316,1.236,2.605,1.949,3.858c-6.435,11.425-7.733,25.125-6.277,37.989c1.655,15.968,8.639,31.761,20.963,42.315
				c2.4,2.164,6.012,4.727,7.637,5.989c0.103,0.087,0.403,0.331,0.584,0.462c1.09,0.852,0.508,0.42,1.504,1.148
				c0.098,0.089,0.208,0.163,0.323,0.23c-1.399,5.39-0.509,10.692,3.156,15.193c2.481,2.973,6.009,4.972,9.608,6.293
				c3.041,0.928,6.245,1.182,9.411,1.216c3.399,0.011,6.925-0.387,10.007-1.901c0.907-0.507,1.755-1.154,2.43-1.947
				c0.067-0.076,0.17-0.206,0.276-0.343c1.844,3.14,4.381,5.897,7.676,7.475c5.684,2.884,13.384,1.594,17.099-3.803
				c0.514-0.643,0.963-1.326,1.369-2.033c1.398,2.607,3.328,4.936,5.962,6.334c4.711,2.537,10.801,2.594,15.479-0.045
				c3.084-1.844,5.028-4.9,6.377-8.159c1.284,1.52,3.07,2.571,4.835,3.466c5.496,2.672,11.965,2.266,17.597,0.222
				c5.32-1.842,10.268-4.863,14.277-8.821c2.776-2.85,4.922-6.232,7.146-9.512c0.756-1.243,1.408-2.545,1.982-3.882
				c1.415-1.269,2.884-2.476,4.352-3.686c0.338-0.035,0.676-0.084,1.003-0.115c2.477-0.375,3.016-0.452,6.124-0.549
				c8.79-0.163,17.631-0.749,26.151-3.049c18.447-4.591,36.386-13.142,49.777-26.865c12.13-12.264,19.796-28.224,25.189-44.435
				c4.341-13.083,7.494-26.583,8.616-40.342C439.969,309.352,440.717,303.796,440.529,298.193z M332.135,246.458
				c1.993,5.689,3.146,10.199,3.079,15.28c-0.145,2.411-0.486,3.728-1.648,6.638c-1.12,2.527-3.785,6.053-4.422,6.798
				c-4.634,5.706-8.812,8.391-15.379,11.866c-5.197,2.641-10.352,4.438-16.857,6.473c-2.494,0.644-4.952,1.187-7.334,1.645
				c-2.493-7.014-2.696-12.796-2.55-20.494c-0.076-5.942,2.059-13.308,4.135-17.999c1.431-3.183,3.12-5.251,4.584-7.039
				c3.776-4.443,6.569-6.511,11.995-9.144c2.842-1.352,10.184-3.556,16.216-2.758c0.894,0.018,2.109,0.343,4.089,0.761
				c0.314,0.046,0.623,0.162,0.933,0.264C330.021,241.329,331.137,243.74,332.135,246.458z M374.087,159.975
				c-5.614,9.91-11.849,19.47-18.861,28.45c-2.547,2.96-8.943,10.787-13.051,15.003c-4.064,4.213-8.433,8.135-12.84,11.981
				c-0.057,0.046-0.114,0.091-0.172,0.136c-0.023-5.151,0.045-10.312-0.733-15.412c-0.829-5.074-2.093-10.12-4.103-14.861
				c-1.293-2.981-2.924-5.804-4.638-8.568c0.242-0.029,0.443-0.089,0.575-0.105c1.535-0.477,2.933-1.35,4.278-2.216
				c1.579-1.007,2.953-2.313,3.826-3.987c2.548-4.739-0.231-10.531-4.512-13.188c-0.107-0.079-0.213-0.157-0.32-0.236
				c0.094,0.082,0.13,0.126-0.04-0.029c-0.024-0.018-0.049-0.036-0.073-0.054c0.002-0.002,0.003-0.003,0.005-0.004
				c0.014,0.01,0.026,0.02,0.04,0.03c-0.011-0.012-0.022-0.024-0.033-0.036c0.078-0.072,0.16-0.142,0.232-0.189
				c0.012-0.009,0.014-0.011,0.024-0.019c1.255-0.964,2.608-1.784,3.954-2.612c4.401-2.462,11.8-9.059,4.304-12.651
				c-3.169-1.3-6.143-1.405-7.312-2.671c-0.016-0.025-0.038-0.06-0.067-0.107c-0.002-0.004-0.003-0.005-0.004-0.009
				c-0.001-0.003-0.002-0.005-0.003-0.008c0-0.003,0-0.008,0-0.011c0.02-0.093,0.038-0.186,0.068-0.277
				c0.007-0.012,0.012-0.025,0.019-0.038c1.496-2.383,1.919-2.923,3.951-5.113c8.477-7.927,17.719-14.995,26.165-22.958
				c1.768-1.666,3.539-3.335,5.265-5.048c0.102,2.078-0.044,3.746-0.385,5.301c-0.479,2.354-1.322,4.623-1.687,7.003
				c-0.741,5.385-0.31,11.962-1.219,15.9c-0.941,4.48-1.939,6.673-4.455,10.469c-1.923,2.665-6.159,7.377-8.48,11.516
				c-1.205,2.227-1.312,4.794-1.367,7.272c0.105,3.286,0.038,6.356-0.404,8.453c-1.002,5.316-3.348,8.993-6.846,13.79
				c-0.081,0.104-0.179,0.227-0.255,0.316c-0.705,0.883-1.447,1.736-2.223,2.557c-0.422,0.514-1.05,0.899-1.297,1.528
				c-0.387,0.76-0.008,1.74,0.708,2.161c1.627,0.907,2.732-1.012,3.735-1.998c2.806-3.164,5.223-6.687,7.147-10.453
				c1.662-3.262,2.555-6.851,2.839-10.492c0.256-3.03-0.121-6.078,0.25-9.102c0.392-2.707,2.352-4.9,4.482-7.762
				c1.678-2.322,4.04-4.781,6.048-8.134c1.711-3.046,3.015-6.339,3.564-9.8c0.835-4.257,0.752-12.1,1.014-14.626
				c0.537-3.689,1.943-7.204,2.264-10.927c0.873,2.159,1.488,4.375,2.514,7.264c0.83,2.423,2.479,4.131,5.14,2.955
				c1.52-0.84,2.617-2.248,3.941-3.348c0.077-0.052,0.178-0.118,0.286-0.177c0.031-0.009,0.067-0.018,0.106-0.027
				c0.008-0.001,0.011-0.001,0.019-0.001c0.247-0.011,0.495-0.008,0.742,0.008c0.045,0.013,0.085,0.024,0.118,0.033
				c1.047,0.555,0.714,0.383,1.32,0.962c0.896,1.07,0.571,0.587,1.454,2.066c1.153,1.995,3.351,9.326,3.409,11.523
				c0.345,2.659,0.373,5.343,0.624,8.009c0.179,1.179,0.212,2.692,0.792,3.794C381.112,147.693,377.606,153.842,374.087,159.975z
				 M333.768,76.661c13.423-8.187,26.823-16.426,39.957-25.07c4.514-3.069,8.878-6.36,13.509-9.254
				c1.947-1.241,3.936-2.268,4.83-2.351c0.09,0.02,0.179,0.042,0.266,0.071c0.014,0.007,0.028,0.012,0.042,0.019
				c0.052,0.025,0.096,0.061,0.145,0.091c0.607,0.598,0.749,1.174,1.293,2.936c0.84,3.645,1.03,4.827,1.052,8.52
				c0.02,4.218-0.748,7.104-1.571,11.953c-0.994,5.652-1.812,11.345-2.107,17.081c-0.737,13.014,0.729,29.397-1.06,40.289
				c-0.546,3.318-1.23,6.618-2.17,9.848c-0.493,1.535-1.059,3.107-1.611,4.553c-0.149-4.784-0.461-9.621-2.081-14.165
				c-1.098-3.433-2.482-7.194-5.694-9.178c-4.142-2.375-6.847,1.181-8.809,2.797c-0.036-0.074-0.07-0.145-0.098-0.206
				c-1.591-4.456-2.771-9.513-5.819-13.43c0.745-0.83,1.478-1.67,2.179-2.539c3.339-4.227,6.091-8.942,8.172-13.908
				c0.719-1.847,1.243-3.766,1.679-5.697c0.114-0.902,0.645-1.868,0.161-2.727c-0.641-1.146-2.508-0.93-2.827,0.369
				c-1.669,7.332-4.265,11.597-9.275,18.421c-0.455,0.595-1.049,1.294-1.733,2.056c-0.352,0.261-0.762,0.544-1.505,1.04
				c-1.034,0.677-2.133,1.243-3.211,1.845c-0.696,0.177-1.313,0.733-1.976,1.015c-0.261,0.251-2.605,0.812-2.704,0.719
				c-0.309-0.028-0.222,0.068-1.023-0.175c-0.036-0.021-0.076-0.047-0.122-0.076c-0.047-0.045-0.105-0.102-0.165-0.167
				c-0.02-0.027-0.037-0.051-0.063-0.086c-1.088-2.35-1.518-3.711-5.818-3.05c-3.427,0.477-5.148,0.798-9.147,0.855
				c-2.099-0.015-1.795,0.071-3.418-0.421c-0.043-0.02-0.082-0.045-0.124-0.068c0.048-0.137,0.102-0.273,0.155-0.409
				c0.001-0.002,0.001-0.003,0.002-0.006c0.685-1.525,1.543-3.051,1.702-4.741c0.096-2.743-1.593-3.407-4.031-3.079
				c-5.547,0.111-11.133,0.626-16.666,0.059c-0.229-0.044-0.956-0.167-1.52-0.279C319.19,85.598,326.94,81.087,333.768,76.661z
				 M91.528,127.547c-1.812-9.56-3.108-17.128-3.362-27.11c-0.176-5.966,0.695-15.112,1.249-19.377
				c0.734-5.394,1.432-10.801,2.689-16.104c1.393-6.516,3.922-15.578,6.412-15.549c5.581-0.737,16.865,15.07,22.961,21.329
				c3.863,4.464,8.282,8.408,12.962,11.995c5.568,4.461,11.385,8.597,17.344,12.517c3.414,2.287,6.919,4.418,10.465,6.478
				c-1.44-0.457-2.88-0.916-4.325-1.355c-3.414-0.959-6.844-2.606-10.448-2.445c-1.175,0.026-2.039,1.185-1.725,2.317
				c0.224,0.699,0.816,1.177,1.253,1.749c0.654,0.855,1.209,1.783,1.668,2.757c0.003,0.006,0.006,0.012,0.009,0.019
				c0.299,0.746,0.546,1.514,0.702,2.302c0.006,0.037,0.01,0.066,0.014,0.093c0.013,0.131,0.024,0.262,0.022,0.394
				c-0.02,0.084-0.043,0.167-0.071,0.248c-0.017,0.031-0.036,0.065-0.06,0.107c-0.091,0.095-0.192,0.19-0.283,0.271
				c-1.191,0.62-2.374,0.701-4.779,0.683c-3.865-0.091-6.03-0.302-9.036-1.007c-3.376-0.9-5.465-1.67-7.769-2.924
				c-2.43-1.193-4.768-2.893-7.524-3.172c-2.256,0.02-2.55,2.211-2.523,4.018c-0.056,2.452-0.069,4.904-0.062,7.356
				c0.001,1.198,0.001,2.397,0.002,3.595c-0.231-0.245-0.465-0.48-0.695-0.731c-3.932-4.361-8.565-10.464-10.216-14.967
				c-1.797-4.412-3.404-8.916-4.293-13.608c-0.285-1.371-0.583-2.739-0.872-4.108c-0.107-0.388-0.363-0.717-0.708-0.921
				c-1.122-0.7-2.666,0.454-2.264,1.741c0.759,3.757,1.403,7.547,2.562,11.209c1.384,3.983,2.719,8.032,4.769,11.733
				c2.62,4.263,5.685,8.283,9.043,11.999c-0.926,0.341-1.867,1.103-2.724,1.354c-0.77,0.311-1.537,0.741-3.273,1.104
				c-0.081,0.015-0.164,0.025-0.245,0.037c-0.028,0.003-0.053,0.006-0.095,0.01c-2.786,0.171-3.221-0.279-6.181-0.632
				c-2.805-0.059-3.508,3.82-4.265,5.907c-0.755,2.266-0.857,2.426-1.977,4.848c-0.631,1.408-1.858,3.184-2.533,4.097
				C92.675,132.994,92.064,130.213,91.528,127.547z M127.463,203.806c-4.624-5.072-7.912-10.128-12.156-16.433
				c-5.465-8.475-10.231-17.376-14.158-26.667c-2.471-5.704-4.785-13.069-6.718-20.534c0.077-0.057,0.151-0.122,0.22-0.197
				c2.411-2.706,4.436-5.74,5.717-9.144c0.847-1.885,1.263-3.922,2.018-5.839c0.044-0.092,0.105-0.2,0.172-0.311
				c1.348,0.24,2.695,0.513,4.066,0.577c2.554,0.168,4.938-0.787,7.158-1.957c-3.558,10.801-2.1,21.542,4.624,31.281
				c1.432,2.739,2.165,5.341,2.27,8.045c0.091,3.398-0.063,6.804,0.327,10.19c0.292,2.7,1.042,5.336,1.971,7.883
				c0.909,2.328,1.856,4.665,3.184,6.791c1.892,2.824,4.099,5.427,6.258,8.048c1.497,1.698,2.411,2.922,3.207,4.024
				c0.895,1.162,1.438,2.644,3.295,1.368c1.003-1.017,0.175-2.157-0.487-3.081c-1.57-2.48-3.564-4.645-5.357-6.959
				c-2.178-2.859-3.214-3.73-4.89-6.827c-2.191-4.294-3.835-8.99-4.014-13.99c-0.251-4.623,0.337-9.404-1.386-13.82
				c-1.041-3.001-2.957-5.532-4.504-8.269c-1.949-3.525-2.91-7.62-3.222-11.479c-0.237-4.708,0.225-7.418,1.565-12.016
				c0.251-0.832,0.536-1.653,0.852-2.463c3.322,3.214,6.999,6.041,10.641,8.884c4.501,3.611,8.962,7.275,13.329,11.048
				c3.151,2.745,6.341,5.819,7.961,8.385c0.23,0.335,0.447,0.679,0.67,1.019c-2.601-1.09-5.332-1.848-8.162-2.101
				c-3.457-0.433-7.04-0.222-10.282,1.135c-1.487,0.647-3.288,1.346-3.896,2.984c-0.614,2.482,1.239,4.718,2.927,6.32
				c3.417,3.168,8.817,5.595,12.17,6.991c-1.293,2.068-2.54,4.178-3.254,6.527c-0.598,1.801-0.975,3.833-0.28,5.661
				c0.571,1.501,1.856,2.646,3.228,3.424c0.729,0.363,2.154,0.99,3.511,1.303c-0.461,1.083-0.887,2.181-1.264,3.299
				c-2.729,8.425-3.291,17.427-4.353,24.834c-0.07,0.738-0.194,1.63-0.355,2.614C137.75,213.386,131.601,208.398,127.463,203.806z
				 M169.387,292.046c-0.142,0.328-0.285,0.654-0.443,0.974c-0.107,0.245-0.254,0.468-0.407,0.686
				c-0.013,0.016-0.026,0.031-0.038,0.047c-3.605-1.32-7.049-2.791-10.427-4.312c-12.213-5.75-20.53-12.905-25.069-23.682
				c-3.251-7.921-1.869-13.2,1.142-20.081c0.119-0.272,0.226-0.55,0.343-0.823c7.516-3.21,18.112-3.662,25.255,1.186
				c6.022,4.142,10.683,11.036,12.029,19.517c1.028,7.633,1.213,17.8-2.29,26.265C169.155,292.585,169.769,291.161,169.387,292.046z
				 M166.346,308.694c2.245-2.383,7.57-5.018,10.594-6.21c0.973-0.373,1.955-0.729,2.965-0.992c1.056,0.228,2.117,0.438,3.184,0.623
				c10.685,2.168,21.752,3.007,32.585,1.516c2.702-0.325,5.343-0.99,7.995-1.578c0.943-0.179,1.877-0.398,2.817-0.592
				c0.363-0.077,0.747-0.148,1.017-0.424c1.691-1.238,0.322-4.006-1.707-3.425c-1.767-0.063-9.326,1.778-11.261,1.846
				c-11.536,1.312-21.835,0.352-32.016-1.819c-3.7-0.672-7.153-1.588-10.451-2.652c0.14-0.312,0.537-1.257,0.645-1.508
				c1.153-2.727,2.045-5.555,2.617-8.461c1.425-6.862,1.329-13.95,0.345-20.866c-1.005-6.176-3.954-12.024-8.144-16.652
				c-3.528-3.911-8.109-6.906-13.287-8.055c-5.852-1.303-12.007-0.792-17.675,1.084c-0.112,0.035-0.222,0.078-0.334,0.114
				c1.893-4.774,3.565-9.639,5.019-14.562c3.977-13.31,2.903-25.71,6.719-38.335c1.756-5.547,5.316-11.571,8.867-17.486
				c1.045-1.642,2.117-3.269,3.322-4.798c-0.013,0.017-0.016,0.021-0.028,0.035c0.158-0.198,0.397-0.503,0.498-0.641
				c0.281-0.284,0.444-0.666,0.442-1.067c0.045-1.272-1.687-2.034-2.576-1.067c-3.11,3.781-5.647,7.98-8.051,12.234
				c-1.066,1.865-2.103,3.753-3.051,5.682c-0.082-0.006-0.156-0.011-0.219-0.016c-0.672-0.119-1.329-0.312-1.964-0.562
				c0.09,0.042,0,0.019-0.23-0.09c-0.01-0.004-0.021-0.008-0.031-0.012c0.01,0.003,0.016,0.006,0.025,0.009
				c-0.019-0.009-0.034-0.016-0.054-0.026c-2.308-1.138-2.874-1.994-2.732-3.846c0.198-1.516,0.977-3.704,2.365-6.016
				c1.315-2.095,3.629-4.74,0.11-6.089c-2.777-1.224-5.538-2.505-8.146-4.062c-3.08-1.71-5.631-4.471-5.576-5.321
				c1.763-1.205,5.549-2.374,8.982-2.121c4.333,0.144,7.803,1.005,11.484,2.958c0.804,0.412,1.588,0.859,2.376,1.3
				c0.354,0.206,0.788,0.264,1.184,0.155c1.273-0.304,1.525-2.182,0.367-2.807c-0.066-0.041-0.134-0.078-0.2-0.118
				c-0.07-0.139-0.144-0.284-0.198-0.453c-0.186-0.406-0.235-0.533-0.045-0.073c-0.215-0.534-0.448-1.061-0.725-1.565
				c-1.888-3.592-4.318-6.873-7.236-9.695c-5.201-4.983-10.826-9.513-16.434-14.027c-3.252-2.504-6.69-5.156-10.071-8.32
				c0.294-0.306,0.48-0.716,0.466-1.193c0.008-3.618-0.004-10.183-0.029-13.077c1.412,0.565,3.125,1.612,4.992,2.591
				c1.992,1.098,4.124,1.909,6.279,2.62c3.903,1.238,8.046,1.642,12.128,1.623c7.7,0.107,10.078-3.442,7.175-9.301
				c-0.166-0.403-0.366-0.807-0.578-1.198c2.226,0.619,4.39,1.466,6.59,2.167c4.868,1.465,9.74,3.115,14.78,3.855
				c0.31,0.161,0.655,0.261,1.001,0.302c-0.001,0.004-0.007,0.007,0,0.012c0.214,0.067,0.427,0.076,0.641,0.029
				c0.018-0.002,0.033-0.007,0.051-0.009c3.707,2.024,7.419,4.042,11.091,6.125c5.93,3.498,9.814,6.711,14.527,12.003
				c0.398,0.426,0.803,0.846,1.206,1.268c-1.286,0.653-2.576,1.309-3.74,2.166c-0.614,0.432-1.327,0.839-1.508,1.625
				c-0.511,1.678,1.48,3.226,2.979,2.29c11.616-7.943,35.452-9.018,50.955-7.023c5.08,0.771,16.339,3.046,23.349,5.486
				c1.693,0.583,2.779,1.107,5.319,2.353c0.659,0.315,1.293,0.681,1.973,0.952c-0.149-0.063-0.299-0.126-0.448-0.189
				c0.448,0.28,1.001,0.367,1.51,0.226c1.549-0.377,1.868-2.663,0.448-3.43c-0.735-0.507-1.492-0.978-2.262-1.425
				c2.043-5.715,4.614-10.623,8.415-16.199c4.569-6.685,10.693-13.369,17.807-19.164c1.043-0.863,2.162-1.728,3.331-2.592
				c6.423,2.478,13.497,1.371,20.223,1.424c0.493-0.01,0.986-0.037,1.479-0.062c-0.269,0.655-0.474,1.106-1.093,2.566
				c-0.565,1.276-0.623,2.829,0.273,3.97c2.762,3.955,13.047,1.595,17.267,0.933c0.265-0.032,0.531-0.055,0.797-0.065
				c1.142,3.127,3.724,4.078,6.825,3.283c-1.72,1.639-3.413,3.206-4.863,4.512c-6.073,5.716-12.546,10.982-18.673,16.638
				c-2.454,2.274-5.059,4.424-7.092,7.102c-2.739,3.391-4.988,6.768-0.08,9.534c2.73,1.238,6.556,1.827,7.314,2.594
				c0.001,0.001,0.004,0.006,0.006,0.007c0.047,0.049,0.084,0.099,0.105,0.15c0,0,0,0,0,0c0.032,0.048,0.064,0.096,0.093,0.145
				c-0.043,0.145-0.089,0.288-0.146,0.428c-0.098,0.21-0.235,0.487-0.336,0.623c-0.533,0.757-0.244,0.417-1.35,1.549
				c-0.254,0.323-1.39,1.267-1.811,1.616c-1.822,1.307-3.777,2.42-5.544,3.803c-1.175,0.865-2.607,2.035-2.337,3.663
				c0.129,1.459,1.337,2.359,2.447,3.153c0.035,0.029,0.088,0.068,0.164,0.118c0.009,0.007,0.019,0.013,0.028,0.02
				c0.556,0.484,0.55,0.367,1.315,1.283c2.063,2.886,2.072,5.321,0.892,7.217c-0.507,0.781-0.853,1.157-1.69,1.746
				c-1.189,0.888-2.48,1.627-3.797,2.306c-0.592,0.084-1.084,0.435-1.381,0.906c-2.13-3.195-4.617-6.132-6.902-9.215
				c-2.501-3.197-4.274-5.869-8.335-9.507c-1.4-0.618-2.698,1.234-1.578,2.341c5.34,5.526,8.769,10.806,13.443,17.334
				c2.483,3.976,4.863,8.061,6.695,12.381c0.997,2.354,2.999,9.674,3.558,13.964c1.113,7.797-0.21,20.468,1.709,30.013
				c0.291,1.218,0.615,2.35,0.962,3.427c-2.284-0.537-4.638-0.778-6.981-0.839c-8.495,0.016-16.969,3.043-23.431,8.582
				c-3.894,3.6-7.431,7.851-9.54,12.753c-2.071,4.88-3.562,10.04-4.005,15.337c-0.397,6.325-0.245,12.745,1.018,18.97
				c0.443,2.141,0.96,4.272,1.766,6.307c-2.324,0.379-4.549,0.674-6.613,0.88c-8.771,0.912-17.602,1.544-26.422,1.091
				c-4.536-0.203-5.539-0.618-8.574-0.865c-1.558,0.09-2.271,2.264-1.127,3.317c0.549,0.573,1.373,0.592,2.105,0.741
				c1.353,0.235,2.718,0.392,4.084,0.526c4.207,0.421,8.438,0.435,12.661,0.357c11.925-0.381,23.932-1.48,35.518-4.432
				c1.266-0.383,2.532-0.779,3.794-1.193c0.227,0.131,0.48,0.216,0.743,0.237c0.229,0.037,0.457,0.075,0.686,0.112
				c0.044,0.017,0.073,0.029,0.07,0.026c4.721,1.294,7.002,2.081,11.198,4.85c7.074,4.855,13.692,12.94,15.566,21.915
				c0.381,1.782,0.529,2.449,0.588,6.238c0.041,2.557-0.188,5.104-0.529,7.636c-0.836,4.901-2.271,9.536-3.918,12.844
				c-2.692,4.801-5.376,7.602-9.017,10.261c-1.448,1.063-2.938,2.073-4.504,2.946c2.374-3.845,4.231-7.987,5.32-12.393
				c1.305-6.293,1.928-12.807,1.059-19.202c-0.534-3.587-2.295-9.521-4.812-8.177c-1.148,0.938-0.708,1.627-0.376,2.304
				c0.013,0.016,0.056,0.102,0.105,0.229c0.006,0.014,0.013,0.029,0.019,0.043c-0.004-0.007-0.005-0.01-0.008-0.017
				c0.018,0.049,0.036,0.102,0.053,0.16c0.285,0.802,0.463,1.637,0.665,2.464c0.489,2.164,0.661,3.28,0.724,7.052
				c0.1,6.772-0.908,12.997-2.633,18.008c-4.567,11.451-13.224,20.066-22.251,26.705c-3.644,2.457-7.257,4.969-11.043,7.204
				c-2.625,1.472-5.255,2.936-7.888,4.394c0.955-1.017,1.9-2.043,2.842-3.07c6.948-7.531,12.515-16.558,14.94-26.583
				c0.649-2.788,1.058-5.625,1.318-8.474c0.007-1.015,0.375-2.254-0.389-3.068c-0.694-0.723-1.978-0.55-2.472,0.319
				c-0.165,0.27-0.212,0.574-0.22,0.885c-0.005,0.044-0.016,0.087-0.019,0.132c-0.078,0.31-0.052,0.302-0.019,0.195
				c-0.016,0.115-0.031,0.23-0.047,0.345c-0.24,0.956-0.273,2.801-0.921,5.67c-2.769,14.311-10.732,24.313-21.116,34.712
				c-4.35,4.485-9.457,8.15-13.844,12.595c-2.515,2.708-5.423,5.256-7.13,8.576c-3.101-3.03-6.854-5.282-10.498-7.601
				c-7.074-4.713-15.703-8.888-20.883-13.763c-3.107-2.898-5.217-6.958-7.607-11.602c-2.034-4.564-3.568-7.305-4.849-11.772
				c-0.871-3.156-0.861-7.213-0.775-11.415c0.019-0.954,0.069-1.908,0.123-2.861c-0.001-0.327-0.13-0.641-0.361-0.872
				c-0.712-0.766-2.149-0.197-2.105,0.872c-0.364,5.746-0.906,11.711,0.908,17.276c2.237,6.176,4.646,12.475,8.21,18.031
				c-4.615-2.094-9.335-3.981-13.769-6.443c-10.027-6.014-18.456-11.637-24-21.005c-5.081-7.437-6.045-16.277-4.636-24.322
				c1.093-7.379,4.171-12.14,8.353-18.499c0.453-0.853,1.456-1.704,1.64-2.608c0.266-1.313-1.555-2.226-2.467-1.227
				c-3.359,4.434-6.647,9.046-8.866,14.17c-1.293,3.228-2.189,6.632-2.655,10.092c-0.285-0.707-0.542-1.47-0.79-2.42
				C156.775,327.815,158.863,316.595,166.346,308.694z M184.759,430.44c-1.045-0.887-2.116-1.743-3.207-2.572
				c-2.511-1.852-4.292-3.237-7.154-5.952c-13.788-13.083-19.298-31.481-18.79-50.719c0.245-7.03,1.663-14.413,4.487-20.69
				c0.238,2.139,0.65,4.259,1.263,6.329c2.164,6.173,5.833,11.839,10.273,16.62c6.181,6.024,13.406,10.958,20.983,15.057
				c5.355,2.638,9.426,4.218,13.421,5.948c1.207,0.46,2.402,0.964,3.637,1.347c-0.006-0.005-0.031-0.017-0.063-0.03
				c0.282,0.117,0.569,0.224,0.854,0.333c0.267,0.122,0.56,0.173,0.85,0.156c4.182,3.858,9.242,6.725,14.113,9.614
				c5.313,3.316,12.348,7.534,15.396,9.982c-0.075,0.275-0.083,0.573,0.011,0.878c0.793,1.956,1.582,3.914,2.195,5.935
				c-4.929-2.831-10.856-3.664-16.437-2.73c-4.04,0.359-7.928,1.617-11.468,3.583c-0.751-3.083-1.737-6.108-2.76-9.11
				c-0.994-2.779-2.11-5.528-3.543-8.113c-1.557-2.701-3.42-5.204-5.179-7.773c-1.031-1.72-3.699-0.24-2.69,1.572
				c2.01,3.088,4.226,6.074,5.767,9.436c1.225,2.685,2.572,6.68,3.669,10.747c-1.856-1.821-4.025-3.658-4.487-4.536
				c-1.397-2.085-1.165-2.128-1.95-4.312c-0.647-2.045-1.524-4.001-2.404-5.953c-0.801-1.768-1.919-3.369-3.002-4.973
				c-0.102-0.149-0.175-0.246-0.249-0.33c-1.4-1.9-2.916-3.719-4.574-5.398c-2.655-2.749-5.482-5.329-8.83-7.214
				c-3.957-2.108-8.142-3.965-12.522-4.98c-0.641-0.099-1.334-0.384-1.935-0.008c-1.079,0.593-0.861,2.344,0.345,2.639
				c3.327,0.704,5.288,1.628,7.697,2.759c2.731,1.288,5.35,2.792,7.716,4.678c0.586,0.423,4.799,4.581,6.364,6.479
				c1.405,1.71,1.266,1.478,2.583,3.354c0,0,0.001,0.003,0.001,0.003c2.758,3.841,3.98,7.18,4.819,9.365
				c0.851,2.338,1.659,4.753,3.288,6.684c0.974,1.345,2.242,2.415,3.461,3.529c-0.364,0.021-0.732,0.045-1.096,0.06
				c-5.195,0.222-9.534,3.177-12.398,5.834c-2.045,1.821-4.06,3.701-5.826,5.796c0.186-0.543,0.406-1.138,0.669-1.829
				c0.145-0.316,0.424-0.925,0.534-1.135c0.464-1.136,1.441-2.082,1.715-3.272c0.348-1.875-2.383-2.811-3.304-1.142
				C186.117,427.726,185.374,429.081,184.759,430.44z M216.049,449.769c0.035-0.048-0.358,0.46-0.562,0.67
				c-1.001,0.968-0.582,0.657-2.14,1.472c-0.515,0.219-1.149,0.396-1.854,0.54c0,0,0,0,0-0.001
				c-0.032-0.054-0.064-0.108-0.095-0.163c-0.427-0.993-1.117-1.879-1.738-2.759c-1.529-1.867-2.977-3.894-5.002-5.257
				c-0.77-0.54-1.611-0.961-2.454-1.375c-0.389-0.229-0.87-0.29-1.305-0.171c-1.406,0.34-1.678,2.402-0.404,3.094
				c1.982,1.122,2.106,1.073,3.446,2.496c1.58,1.972,2.652,3.233,3.653,4.568c-3.903,0.157-8.358-0.309-10.594-1.157
				c-5.165-2.439-7.352-3.948-9.471-8.54c-0.057-0.145-0.141-0.363-0.198-0.537c-0.264-0.87-0.432-1.398-0.544-1.827
				c1.199-2.999,3.362-5.309,6.587-8.336c2.751-2.617,6.092-5.14,8.469-5.965c2.674-0.874,3.157-0.77,6.025-0.878
				c0.708,0.036,1.52,0.134,2.127-0.264c0.506,0.556,0.851,0.945,1.007,1.05c0.267,0.235,0.58,0.356,0.899,0.387
				c0.712,3.722,1.216,7.505,1.87,11.251c-0.434-0.331-0.872-0.656-1.313-0.977c-0.496-0.323-0.929-0.865-1.557-0.891
				c-1.555-0.308-2.592,1.818-1.436,2.887c1.692,1.352,1.793,1.345,3.067,2.453c0.707,0.555,1.447,1.537,2.326,1.883
				c0.459,1.923,1.004,3.823,1.688,5.687C216.368,449.315,216.211,449.545,216.049,449.769z M245.497,436.52
				c-0.102,2.46-0.602,4.698-1.907,8.991c-1.496,4.587-2.292,7.05-5.506,10.14c-0.277,0.199-0.56,0.377-0.845,0.545
				c-0.099-0.338-0.235-0.673-0.288-1.016c-0.4-1.708-0.416-1.959-0.473-4.237c-0.069-0.819,0.22-1.714-0.097-2.487
				c-0.621-1.672-3.238-1.13-3.199,0.644c-0.115,2.54-0.105,5.168,0.712,7.603c0.09,0.211,0.167,0.441,0.258,0.663
				c-1.948,0.372-3.968,0.128-5.881-0.695c0.055-0.331-0.009-0.659-0.08-0.988c-0.014-0.074-0.025-0.149-0.036-0.224
				c-0.033-0.278-0.094-0.769-0.12-0.977c-0.205-1.755-0.38-3.517-0.688-5.258c-0.101-0.729-0.233-1.547-0.95-1.925
				c-1.261-0.794-2.968,0.516-2.527,1.942c0.355,2.04,0.395,2.665,0.63,4.894c-1.474-1.408-2.77-3.232-3.762-5.45
				c-2.174-4.657-3.444-13.807-4.746-20.99c0.045-0.023,0.094-0.034,0.138-0.061c4.063-2.246,7.075-3.126,11.381-3.497
				c4.028-0.397,5.873-0.224,8.904,0.607c3.036,0.901,3.903,1.348,7.002,3.374c0.042,0.03,0.083,0.062,0.124,0.092
				c0.368,0.317,0.727,0.696,1.143,0.949C245.273,431.603,245.612,433.644,245.497,436.52z M273.637,431.255
				c-0.819,5.661-1.932,11.297-3.874,16.69c-1.092,2.969-1.302,4.021-2.911,6.423c-0.008-0.109-0.015-0.218-0.017-0.325
				c-0.153-1.628-0.37-3.253-0.738-4.848c-0.193-0.613-0.167-1.349-0.589-1.86c-0.995-1.408-3.3-0.243-2.81,1.4
				c0.544,2.527,0.637,2.958,0.827,5.156c0.16,1.007-0.173,2.437,0.608,3.165c-1.959,1.194-4.478,1.733-6.949,1.603
				c0.013-0.228,0.027-0.483,0.09-0.783c0.158-2.04,0.019-4.085-0.267-6.107c-0.215-1.026-0.163-2.225-0.725-3.124
				c-0.949-1.341-3.144-0.232-2.678,1.334c0.393,2.27,0.68,4.421,0.44,7.558c0,0.183-0.02,0.372-0.038,0.561
				c-0.355-0.111-0.705-0.233-1.043-0.377c-2.554-0.957-5.058-3.254-6.737-7.307c0.438-1.222,0.814-2.468,1.171-3.703
				c1.13-3.885,2.016-7.917,1.818-11.985c-0.166-2.13-0.57-4.221-1.056-6.296c1.893-1.566,4.414-2.979,7.433-4.02
				c3.622-1.216,5.116-1.461,9.072-1.06c0.039,0.006,0.075,0.012,0.126,0.02c0.856,0.144,1.689,0.4,2.511,0.677
				c0.419,0.022,3.941,1.894,4.045,2.214c0.725,0.635,1.247,1.461,1.93,2.137c0.073,0.109,0.277,0.238,0.491,0.348
				c0.067,0.047,0.133,0.092,0.205,0.131C273.861,429.691,273.749,430.489,273.637,431.255z M298.963,449.877
				c-3.537,1.915-3.289,1.702-6.905,2.972c-3.447,1.056-4.685,1.254-8.544,1.129c-0.008,0-0.016-0.001-0.025-0.001
				c1.243-2.405,2.403-3.509,4.603-5.856c0.669-0.785,1.857-1.345,1.833-2.51c0.027-1.156-1.168-2.048-2.273-1.731
				c-0.817,0.262-1.355,1.011-1.952,1.588c-1.566,1.647-3.006,3.418-4.265,5.311c-0.502,0.79-0.938,1.617-1.274,2.492
				c-0.012,0.03-0.026,0.06-0.038,0.09c-2.07-0.641-4.078-1.682-5.2-2.673c0.036-0.132,0.057-0.272,0.052-0.42
				c0.054-3.059,1.846-6.207,4.399-8.774c0.438-0.518,1.146-0.848,1.39-1.502c0.619-1.239-0.707-2.698-2.01-2.299
				c-1.103,0.524-1.974,1.451-2.759,2.412c0.727-3.38,1.271-6.802,1.724-10.229c0.045-0.35,0.091-0.706,0.136-1.058
				c1.07-0.055,1.132-0.717,1.673-1.439c1.062-1.578,0.998-1.528,1.734-2.405c0.548-0.566,1.136-1.094,1.737-1.611
				c5.197,1.841,11.621,4.386,14.645,7.122c3.978,3.126,7.274,5.818,9.294,9.425c0.139,0.256,0.279,0.511,0.409,0.771
				c0.091,0.659,0.137,1.373,0.543,1.903C305.476,445.405,302.866,447.638,298.963,449.877z M322.146,425.967
				c-0.438,0.023-0.873,0.056-1.267,0.237c-0.464,0.153-0.803,0.491-1.024,0.9c-0.301-0.492-0.872-0.819-1.458-0.824
				c-1.895,0.142-1.729,1.991-2.73,4.003c-0.6,1.602-1.64,3.944-3.288,6.296c-0.636,0.926-1.241,1.787-1.835,2.607
				c-1.127-2.397-2.752-4.561-4.62-6.429c-3.044-2.797-6.24-5.503-9.838-7.562c-3.094-1.679-5.152-2.32-8.987-3.625
				c-0.48-0.16-0.962-0.316-1.444-0.472c1.045-0.936,2.025-1.933,2.794-3.129c0.968-1.484,1.439-3.201,1.697-4.937
				c0.395-2.106,0.767-4.217,1.225-6.31c0.799-4.258,2.044-8.498,3.49-11.18c2.453-4.588,4.432-6.762,7.716-10.47
				c3.743-4.284,9.138-7.619,13.642-9.557c1.818-0.515,1.097-3.298-0.776-2.816c-4.036,1.464-7.768,3.723-11.273,6.178
				c-2.414,1.822-4.448,4.08-6.473,6.312c-1.861,2.21-3.662,4.488-5.224,6.921c-1.582,2.802-2.914,5.779-3.773,8.884
				c-1.227,4.358-1.999,8.826-3.069,13.218c-0.389,1.072-0.972,2.132-3.041,3.972c-1.3,1.234-2.679,2.408-3.819,3.796
				c0.682-4.736,1.556-9.644,3.017-14.776c0.645-2.098,1.331-4.184,1.957-6.288c0.13-0.611,0.47-1.219,0.352-1.85
				c-0.038-0.684-0.606-1.275-1.251-1.452c-1.623-0.371-2.158,1.024-2.537,2.303c-0.559,1.51-1.062,3.04-1.558,4.571
				c-2.075,6.253-3.202,13.162-4.081,19.391c-0.589-0.638-1.235-1.217-1.967-1.701c-4.434-3.013-10.214-3.854-15.371-2.482
				c-3.585,1.103-7.117,2.616-10.132,4.872c-0.147-0.57-0.293-1.14-0.435-1.71c-0.399-1.403-0.873-2.782-1.403-4.14
				c0.579-0.17,1.096-0.593,1.337-1.159c0.359-1.317,2.214-4.273,3.527-5.51c3.734-4.241,8.048-7.891,12.391-11.485
				c0.061-0.05,0.119-0.103,0.18-0.153c4.727-2.24,9.266-4.86,13.921-7.245c4.081-2.022,7.997-4.353,11.783-6.883
				c4.785-2.982,9.34-6.34,13.399-10.264c2.477-2.292,4.822-4.785,6.944-7.454c3.511-1.106,6.809-2.814,9.805-4.951
				c3.794-2.504,7.061-5.739,9.546-9.547c1.779-2.553,2.936-5.48,3.901-8.422c1.154-3.368,1.895-6.872,2.267-10.416
				c0.213,0.397,0.429,0.791,0.638,1.19c2.341,4.652,3.46,7.053,5.057,11.891c2.797,8.438,4.546,14.77,4.297,23.131
				c0.163,13.696-3.031,26.892-9.474,38.587C331.384,416.466,327.305,421.125,322.146,425.967z M332.406,317.42
				c4.795,1.115,9.751,0.049,13.672-0.493c1.375-0.193,2.741-0.439,4.096-0.732c-0.972,3.48-1.619,7.068-2.863,10.472
				c-1.16,3.676-3.063,6.943-5.736,11.141c-0.285,0.514-0.63,0.997-0.971,1.481c-1.222-2.632-2.567-5.208-3.983-7.741
				c-0.635-0.965-1.139-2.64-2.018-3.488c-0.027-0.77-0.068-1.539-0.129-2.306C334.173,322.886,333.455,320.095,332.406,317.42z
				 M417.055,371.886c-0.716,3.3-1.65,5.465-3.108,8.866c0.015-0.025,0.006,0.001-0.038,0.089c-0.048,0.111-0.091,0.212-0.14,0.326
				c0.007-0.037,0.024-0.085,0.043-0.134c-0.071,0.133-0.124,0.267-0.159,0.401c-14.557,24.073-40.012,37.705-68.774,42.773
				c-3.224,0.347-11.424,1.067-16.738,1.115c-0.017,0.001-0.032,0.002-0.048,0.003c3.2-3.097,6.014-6.587,8.468-10.299
				c9.398-15.193,13.22-33.58,11.407-51.298c-0.669-6.416-2.811-12.545-4.917-18.605c-0.094-0.253-0.194-0.503-0.291-0.754
				c0.259,0.046,0.511,0.081,0.747,0.108c5.843,1.091,11.857,0.891,17.689-0.175c7.624-1.582,15.089-4.495,21.487-8.963
				c-1.288,4.126-2.951,9.101-4.365,12.482c-1.445,3.804-5.143,11.192-8.323,16.172c-3.122,5.007-6.606,9.775-9.974,14.616
				c-0.759,1.077-1.52,2.152-2.234,3.259c-0.597,0.861-1.055,1.892-0.802,2.954c1.693,5.406,16.569,1.694,20.765,0.7
				c17.528-4.431,31.704-11.564,42.715-25.001C419.54,364.369,418.448,368.185,417.055,371.886z M435.864,302.459
				c-0.137,4.229-0.801,8.412-1.269,12.611c-0.793,9.622-3.113,21.019-6.319,31.916c-0.681,2.234-1.346,4.358-2.017,6.406
				c0.01-0.178,0.023-0.355,0.03-0.533c0.184-1.358-0.44-3.042-1.992-3.146c-1.913-0.344-2.431,1.661-3.307,2.886
				c-1.636,2.358-1.793,2.44-3.737,4.837c-5.88,6.945-11.032,11.145-18.291,15.396c-9.672,5.292-28.826,11.556-37.345,10.559
				c1.374-2.17,2.975-4.2,4.427-6.318c5.524-7.694,10.834-15.598,14.69-24.283c3.235-7.442,6.109-15.477,7.87-23.394
				c-0.004-2.04-2.703-2.823-3.805-1.152c-1.233,1.253-0.961,0.899-2.095,1.812c-10.242,7.696-23.904,12.049-36.439,10.581
				c-0.466-0.069-0.934-0.132-1.402-0.198c2.304-3.495,4.571-7.042,5.969-11.002c1.573-4.283,2.544-8.647,3.205-11.682
				c0.232-1.166,0.706-2.292,0.889-3.461c-0.06,0.429,0.212-0.432,0.178-0.837c0.005-0.695-0.38-1.362-0.981-1.71
				c-0.724-0.453-1.58-0.258-2.291,0.123c-0.525,0.185-1.943,0.688-2.319,0.723c-4.117,1.038-7.569,1.496-10.783,1.95
				c-3.382,0.277-6.159-0.189-8.02-0.975c-0.036-0.02-0.071-0.03-0.107-0.048c-3.318-6.213-8.382-11.6-14.046-15.533
				c-2.567-1.703-5.37-3.202-8.327-4.16c6.622-2.593,12.966-5.857,18.515-10.35c7.327-6.603,14.154-15.947,12.126-26.33
				c-0.003-0.025-0.007-0.049-0.01-0.074c6.071-6.464,12.718-6.523,22.116-7.534c10.463-1.178,21.034-2.174,31.13-5.325
				c9.172-2.712,18.289-6.859,24.769-14.052c0.455,7.238,3.75,13.986,7.126,21.409c4.224,9.349,8.176,19.276,10.327,30.579
				C435.577,288.417,436.1,294.816,435.864,302.459z"/>
			<path style="fill:#FFFFFF;" d="M202.889,224.207c0,1.481-1.201,2.682-2.682,2.682s-2.682-1.201-2.682-2.682
				c0-1.481,1.201-2.682,2.682-2.682S202.889,222.726,202.889,224.207z"/>
			<path style="fill:#FFFFFF;" d="M264.772,223.689c0,1.481-1.201,2.682-2.682,2.682c-1.482,0-2.682-1.201-2.682-2.682
				c0-1.481,1.201-2.682,2.682-2.682C263.571,221.007,264.772,222.208,264.772,223.689z"/>
		</g>
		<path d="M117.371,308.267c1.282-8.965-2.306-17.926-7.992-24.756c-1.007-1.225-1.962-2.492-2.847-3.808
			c-0.497-0.621-0.772-1.51-1.511-1.879c-1.268-0.753-2.782,0.411-2.688,1.732c-0.539,0.684-0.25,0.63-0.498,1.566
			c0.003,0.016,0.006,0.022,0.008,0.027c-0.171,0.8-0.25,1.627-0.436,2.425c-0.122,2.615-3.467,6.152-6.101,7.447
			c-4.609,2.781-10.76,1.991-13.953,0.335c-4.858-2.871-5.462-6.996-3.904-12.193c0.984-2.934,1.454-3.558,3.574-6.168
			c2.093-2.453,3.556-3.652,6.665-5.288c0.745-0.378,1.501-0.733,2.28-1.039c0.748-0.27,1.567-0.601,1.842-1.42
			c0.125-0.295,0.162-0.594,0.13-0.88c0.627-0.853,0.686-2.125-0.443-2.969c-8.982-7.426-18.647-13.983-28.384-20.369
			c-2.492-1.673-5.003-3.32-7.505-4.978c-0.78-0.458-1.503-1.286-2.486-1.106c-0.278,0.037-0.52,0.142-0.723,0.293
			c-0.291,0.116-0.551,0.311-0.74,0.595c-0.348,0.45-0.333,1.024-0.386,1.563c-0.122,1.094-0.284,2.183-0.475,3.267
			c-2.195,10.883-7.71,24.584-13.036,36.033c-3.798,8.1-7.48,16.69-7.638,25.768c0.032,8.547,3.224,17.048,8.591,23.673
			c5.021,6.166,11.817,10.527,18.973,13.837c6.719,3.233,13.946,3.289,15.986,3.484c3.756,0.359,10.659-1.35,11.629-1.483
			c4.715,5.377,10.438,9.843,16.85,13.052c3.402,1.846,7.035,3.183,10.598,4.674c1.142,0.388,2.223,1.223,3.451,1.212
			c0.934,0.046,1.815-0.644,2.139-1.498c0.291-0.802,0.145-1.688-0.389-2.354c-0.408-0.523-1.044-0.714-1.611-1.008
			c-1.474-0.711-2.998-1.314-4.511-1.937c-2.827-1.1-5.61-2.305-8.296-3.717c-5.299-2.893-9.261-5.765-12.869-9.416
			C91.201,340.838,112.974,332.759,117.371,308.267z M84.935,334.214c-7.57-9.579-13.021-21.293-17.332-34.05
			c-1.33-4.293-3.385-11.429-4.475-17.458c-1.08-5.971-1.363-10.81-1.372-14.901c-0.011-1.77,0.096-3.538,0.28-5.298
			c0.029-0.77,0.32-1.636-0.242-2.28c-0.788-1.007-2.581-0.496-2.672,0.809c-1.403,10.656-0.237,21.527,2.459,31.892
			c1.759,7.066,3.058,11.406,5.637,17.984c3.598,9.303,8.169,18.247,14.25,26.182c0.404,0.579,0.822,1.148,1.248,1.711
			c-0.258,0.035-0.507,0.07-0.775,0.107c-0.055,0.009-7.676,1.459-14.481,0.282c-4.42-0.764-9.316-2.648-13.238-4.982
			c-12.835-6.806-20.384-18.922-20.55-31.576c0.195-10.482,4.997-19.351,9.585-29.395c4.105-9.488,7.94-19.148,10.465-29.19
			c0.362-1.487,0.64-2.993,0.866-4.506c11.189,7.626,22.502,15.125,32.806,23.93c-2.526,1.096-4.944,2.486-7.005,4.308
			c-2.386,2.376-4.71,4.944-6.054,8.071c-4.633,10.584,0.355,20.248,12.084,21.416c7.336,0.772,15.002-3.123,18.196-9.864
			c0.381-0.953,0.574-1.959,0.712-2.975c1.639,2.29,3.26,4.417,4.108,5.996c4.156,7.406,5.592,14.734,3.296,21.654
			c-3.043,15.855-22.275,25.364-24.823,25.894C86.915,336.805,85.932,335.559,84.935,334.214z"/>
		<path d="M463.483,139.214c-2.044-5.287-4.416-10.436-6.629-15.652c-0.593-1.478-1.168-2.964-1.827-4.414
			c-0.064-0.129-0.129-0.261-0.208-0.383c-0.382-0.712-0.902-1.444-1.753-1.557c-0.854-0.171-1.606,0.321-2.26,0.812
			c-1.243,0.844-2.486,1.689-3.723,2.543c-3.562,2.518-7.163,4.984-10.865,7.293c-8.663,5.622-17.875,10.817-24.646,18.785
			c-8.767,9.546-10.951,23.606-8.363,35.999c1.146,5.042,2.836,10.275,6.614,13.981c1.889,2.182,4.888,4.35,8.784,5.01
			c-3.572,3.731-6.956,6.941-8.668,8.78c-0.834,1.222,0.358,2.984,1.808,2.742c0.818-0.098,1.325-0.819,1.938-1.292
			c1.328-1.152,2.586-2.382,3.86-3.592c1.232-1.181,2.806-2.735,4.489-4.494c0.289,0.126,0.586,0.238,0.86,0.369
			c1.534,0.658,3.057,1.354,4.644,1.878c8.531,2.986,18.159,1.076,25.588-3.843c2.226-1.635,4.375-3.426,6.167-5.537
			c2.967-3.753,5.337-7.976,7.242-12.357C472.402,169.754,469.282,153.273,463.483,139.214z M463.786,179.54
			c-1.872,5.322-3.833,8.88-6.47,12.694c-4.447,6.254-11.712,10.411-19.738,11.189c-2.821,0.34-6.847-0.259-9.23-1.106
			c-1.234-0.423-2.44-0.923-3.653-1.402c2.556-2.84,5.099-5.953,6.905-8.832c6.423-9.977,12.084-22.388,14.596-35.422
			c0.672-3.41,1.353-6.831,1.586-10.305c0.07-0.859,0.095-1.722,0.109-2.584c0.052-0.355-0.05-0.716-0.263-1
			c-0.675-0.939-2.293-0.53-2.415,0.635c-0.138,3.92-0.948,7.764-1.837,11.571c-1.253,5.563-2.671,10.212-5.189,16.104
			c-3.344,7.726-6.211,13.432-10.554,19.806c-1.768,2.612-4.028,5.317-6.363,7.89c-4.654-0.187-6.948-1.959-9.577-4.895
			c-4.64-4.973-6.089-14.936-6.236-20.923c0.196-13.86,5.345-22.584,15.25-30.77c5.525-4.455,11.628-8.115,17.557-11.995
			c4.733-2.95,9.231-6.249,13.833-9.393c0.128,0.311,0.267,0.62,0.353,0.93c2.69,8.215,6.345,16.066,9.201,24.223
			c2.056,6.461,3.659,12.691,3.804,20.485c-0.016,2.141-0.111,4.282-0.323,6.413C464.818,175.596,464.157,178.334,463.786,179.54z"
			/>
	</g>
</g>
</svg>
