<?xml version="1.0" encoding="utf-8"?>
<!-- Generator: Adobe Illustrator 27.5.0, SVG Export Plug-In . SVG Version: 6.00 Build 0)  -->
<svg xmlns="http://www.w3.org/2000/svg" xmlns:xlink="http://www.w3.org/1999/xlink" viewBox="0 0 500 500" width="595" height="842" preserveAspectRatio="xMidYMid meet" data-scaled="true">
<g id="BACKGROUND">
	<rect style="fill:#FFFFFF;" width="500" height="500"/>
</g>
<g id="OBJECTS">
	<g>
		<g>
			<path style="fill:#FFFFFF;stroke:#000000;stroke-width:3;stroke-linecap:round;stroke-linejoin:round;stroke-miterlimit:10;" d="
				M135.06,315.49c-11.99,33.41-12.41,70.69-1.18,104.16c10.6-29.73,21.2-59.46,30.97-89.48
				C165.02,330.1,165.2,330.04,135.06,315.49z"/>
			<path style="fill:#FFFFFF;stroke:#000000;stroke-width:3;stroke-linecap:round;stroke-linejoin:round;stroke-miterlimit:10;" d="
				M243.71,142.75c8.53-22.1,25.4-40.86,46.47-51.68s46.14-13.6,69.07-7.67c-30.43,21.27-53.99,52.22-66.38,87.21
				C277.55,159.95,260.75,151.41,243.71,142.75z"/>
			<g>
				
					<path style="fill:#FFFFFF;stroke:#000000;stroke-width:3;stroke-linecap:round;stroke-linejoin:round;stroke-miterlimit:10;" d="
					M391.07,276.09c1.42-18.67,9.52-36.75,22.51-50.24c12.98-13.49,30.75-22.27,49.35-24.39c-9.28,29.81-19.59,61.26-43.27,81.62
					c11.66,14.44,15.98,34.5,11.3,52.46c-17.23-6.09-35.57-25.87-37.34-47.54"/>
				
					<path style="fill:#FFFFFF;stroke:#000000;stroke-width:3;stroke-linecap:round;stroke-linejoin:round;stroke-miterlimit:10;" d="
					M395.3,289.72c-23.06,33.01-62.01,46.39-101.15,56.71c-35.17,9.29-73.26,7.77-108.43,1.95c-0.06,0-0.13-0.01-0.21-0.03
					c-3.89-0.64-7.75-1.34-11.56-2.08c-0.66-0.14-1.31-0.29-1.97-0.44c-46.78-10.84-87.35-42.88-110.83-84.1
					c-18.48-32.46-9.49-73.49,20.6-95.93c31.12-23.21,65.06-39.61,101.77-44.6c45.17-6.14,92.03,9.37,124.36,41.19
					c0.04,0.04,0.08,0.08,0.12,0.11c25.89,22.99,42.79,51.58,58.52,85.57c5.28,11.43,15.07,18.89,27.56,20.41"/>
				<path style="fill:none;stroke:#000000;stroke-width:2;stroke-miterlimit:10;" d="M62.77,262.94
					c-2.52-25.73,19.58-36.32,35.44-40.04c36.61-8.6,99.44,15.91,137.21,49c14.45,12.66,27.43,27.54,44.58,36.21
					c25.44,12.86,57.38,9.57,81.73-5.26c10.59-6.45,23.46-17.16,32.32-11.37"/>
			</g>
			<g>
				<g>
					
						<circle style="stroke:#000000;stroke-width:3;stroke-linecap:round;stroke-linejoin:round;stroke-miterlimit:10;" cx="229.22" cy="231.1" r="8.2"/>
					<circle style="fill:#FFFFFF;" cx="230.97" cy="229.45" r="4.1"/>
				</g>
				<g>
					
						<path style="fill:#FFFFFF;stroke:#000000;stroke-width:3;stroke-linecap:round;stroke-linejoin:round;stroke-miterlimit:10;" d="
						M305.87,242.09c3.6,11.82,0.96,25.09-6.99,35.01"/>
					
						<path style="fill:#FFFFFF;stroke:#000000;stroke-width:3;stroke-linecap:round;stroke-linejoin:round;stroke-miterlimit:10;" d="
						M297.22,223.68c6.41,20.38,1.55,43.42-12.68,60.2"/>
					
						<path style="fill:#FFFFFF;stroke:#000000;stroke-width:3;stroke-linecap:round;stroke-linejoin:round;stroke-miterlimit:10;" d="
						M284.34,215.21c4.23,22.27-1.46,45.96-15.52,64.59"/>
				</g>
			</g>
			<path style="fill:#FFFFFF;stroke:#000000;stroke-width:3;stroke-linecap:round;stroke-linejoin:round;stroke-miterlimit:10;" d="
				M284.69,307.59c4.17,44.28,29.08,75.36,68.13,90.64c-3.19-33.82-20.38-69.5-23.58-95.51"/>
			<g>
				
					<path style="fill:#FFFFFF;stroke:#000000;stroke-width:3;stroke-linecap:round;stroke-linejoin:round;stroke-miterlimit:10;" d="
					M107.17,303.6c32.32,4.97,91.42-17.18,130.6-38.54c10.13,15.97,1.94,38.02-15.55,50.41c-17.49,12.39-41.98,15.94-63.65,12.6
					S117.71,315.27,107.17,303.6z"/>
				<path style="fill:none;stroke:#000000;stroke-width:3;stroke-linecap:round;stroke-linejoin:round;stroke-miterlimit:10;" d="
					M118.95,304.55c2.59,5.46,6.57,10.26,14.2,14.48c0.47-5.53,1.97-10.96,5.38-15.45c5.97,10.39,14.93,19.04,25.51,24.65
					c0.57-10.92,1.14-21.84,0.91-31.66c13.52,9.52,27.67,18.13,42.33,25.78c1.08-13.94,2.16-27.89,2.77-42.04
					c8.96,5.98,17.91,11.97,27.02,17.12c0.15-9.84-1.43-19.71-4.64-29.01"/>
			</g>
		</g>
		<g>
			<g>
				
					<circle style="fill:#FFFFFF;stroke:#000000;stroke-width:3;stroke-linecap:round;stroke-linejoin:round;stroke-miterlimit:10;" cx="222.25" cy="432.87" r="23.5"/>
				<path style="fill:#FFFFFF;stroke:#000000;stroke-miterlimit:10;" d="M228.06,428.4c-4.41-5.34-11.03-8.68-7.83-11.33
					c3.21-2.65,10.95-1.09,15.36,4.26c4.41,5.34,5.39,13.7,2.18,16.35C234.57,440.32,232.47,433.74,228.06,428.4z"/>
			</g>
			<g>
				
					<circle style="fill:#FFFFFF;stroke:#000000;stroke-width:3;stroke-linecap:round;stroke-linejoin:round;stroke-miterlimit:10;" cx="391.65" cy="143.09" r="16.5"/>
				<path style="fill:#FFFFFF;stroke:#000000;stroke-miterlimit:10;" d="M396.69,142.04c-1.16-4.72-4.33-8.86-1.49-9.55
					c2.83-0.7,7.26,2.65,8.42,7.38c1.16,4.72-0.77,10.31-3.61,11S397.85,146.76,396.69,142.04z"/>
			</g>
			<g>
				
					<circle style="fill:#FFFFFF;stroke:#000000;stroke-width:3;stroke-linecap:round;stroke-linejoin:round;stroke-miterlimit:10;" cx="113.089" cy="83.504" r="19"/>
				<path style="fill:#FFFFFF;stroke:#000000;stroke-miterlimit:10;" d="M118.969,84.274c0.53-5.58-1.34-11.27,2-10.95
					c3.35,0.32,6.88,5.64,6.35,11.21c-0.53,5.58-4.75,10.91-8.1,10.59C115.869,94.814,118.439,89.854,118.969,84.274z"/>
			</g>
			<g>
				
					<circle style="fill:#FFFFFF;stroke:#000000;stroke-width:3;stroke-linecap:round;stroke-linejoin:round;stroke-miterlimit:10;" cx="391.65" cy="376.9" r="13"/>
				<path style="fill:#FFFFFF;stroke:#000000;stroke-miterlimit:10;" d="M393.87,375.93c-2.44-2.96-6.1-4.8-4.33-6.27
					c1.77-1.47,6.06-0.6,8.5,2.35c2.44,2.96,2.98,7.58,1.21,9.04C397.48,382.51,396.31,378.88,393.87,375.93z"/>
			</g>
			<g>
				
					<circle style="fill:#FFFFFF;stroke:#000000;stroke-width:3;stroke-linecap:round;stroke-linejoin:round;stroke-miterlimit:10;" cx="50.07" cy="350.65" r="13"/>
				<path style="fill:#FFFFFF;stroke:#000000;stroke-miterlimit:10;" d="M52.29,349.67c-2.44-2.96-6.1-4.8-4.33-6.27
					s6.06-0.6,8.5,2.35c2.44,2.96,2.98,7.58,1.21,9.04C55.9,356.25,54.73,352.63,52.29,349.67z"/>
			</g>
		</g>
	</g>
</g>
</svg>
