<?xml version="1.0" encoding="utf-8"?>
<!-- Generator: Adobe Illustrator 27.5.0, SVG Export Plug-In . SVG Version: 6.00 Build 0)  -->
<svg xmlns="http://www.w3.org/2000/svg" xmlns:xlink="http://www.w3.org/1999/xlink" viewBox="0 0 500 500" width="595" height="842" preserveAspectRatio="xMidYMid meet" data-scaled="true">
<g id="BACKGROUND">
	<rect style="fill:#FFFFFF;" width="500" height="500"/>
</g>
<g id="OBJECTS">
	<g>
		<g>
			<g>
				<path d="M398.386,288.148h-46.464c-0.235,0-0.425-0.19-0.425-0.425c0-0.235,0.19-0.425,0.425-0.425h46.464
					c2.45,0,4.872-0.379,7.2-1.126c0.224-0.073,0.463,0.051,0.535,0.275c0.072,0.224-0.051,0.463-0.275,0.535
					C403.434,287.755,400.924,288.148,398.386,288.148z"/>
			</g>
			<g>
				<path d="M259.723,288.148H192.85c-24.128,0-48.448-1.893-72.285-5.625l-26.256-4.112c-5.192-0.94-9.839-3.464-13.447-7.3
					c-3.609-3.836-5.844-8.628-6.464-13.858c-1.133-9.554,3.471-18.914,11.731-23.847l21.941-13.103
					c3.326-1.986,6.346-4.437,8.975-7.282l21.772-23.565c13.796-14.932,34.026-21.977,54.112-18.846L392.16,201.67
					c13.068,2.037,24.109,10.454,29.537,22.514c4.462,9.917,6.036,20.854,4.551,31.628c-0.032,0.232-0.247,0.395-0.479,0.363
					c-0.232-0.032-0.395-0.247-0.363-0.479c1.463-10.616-0.088-21.392-4.484-31.163c-5.309-11.797-16.109-20.03-28.892-22.023
					l-199.232-31.061c-19.807-3.088-39.753,3.859-53.356,18.583l-21.772,23.565c-2.684,2.906-5.767,5.407-9.164,7.435
					l-21.941,13.103c-7.972,4.761-12.417,13.796-11.323,23.017c0.599,5.048,2.756,9.673,6.239,13.375
					c3.483,3.702,7.968,6.138,12.97,7.044l26.246,4.11c23.793,3.726,48.069,5.615,72.154,5.615h66.873
					c0.235,0,0.425,0.19,0.425,0.425C260.148,287.957,259.958,288.148,259.723,288.148z"/>
			</g>
			<g>
				<path d="M107.75,280.51c-0.022,0-0.044-0.002-0.066-0.005l-13.375-2.095c-5.192-0.94-9.839-3.464-13.447-7.3
					c-3.609-3.836-5.844-8.628-6.464-13.858c-1.134-9.554,3.471-18.914,11.731-23.847l11.98-7.155
					c0.121-0.072,0.269-0.08,0.396-0.021c10.238,4.728,17.117,17.165,17.117,30.948c0,8.734-2.676,16.962-7.536,23.169
					C108.003,280.451,107.879,280.51,107.75,280.51z M98.35,227.097l-11.786,7.039c-7.972,4.761-12.417,13.796-11.323,23.017
					c0.599,5.048,2.757,9.673,6.239,13.375c3.483,3.702,7.968,6.138,12.97,7.044l13.118,2.054
					c4.646-6.035,7.203-13.996,7.203-22.448C114.771,243.812,108.181,231.759,98.35,227.097z"/>
			</g>
			<g>
				<g>
					<path d="M216.152,227.584c-0.18,0-0.36-0.005-0.542-0.015l-4.184-0.227c-2.692-0.146-5.16-1.337-6.949-3.355
						c-1.789-2.017-2.677-4.61-2.5-7.3l0.006-0.096c0.177-2.691,1.397-5.145,3.435-6.911c2.038-1.765,4.642-2.623,7.329-2.415
						l4.177,0.323c5.441,0.421,9.577,5.194,9.218,10.64C225.796,223.492,221.368,227.583,216.152,227.584z M211.958,208.085
						c-2.2,0-4.302,0.781-5.983,2.238c-1.865,1.616-2.981,3.861-3.143,6.323l-0.006,0.096c-0.162,2.463,0.65,4.835,2.287,6.681
						c1.637,1.846,3.895,2.936,6.359,3.07l4.184,0.227l0,0c4.991,0.272,9.311-3.564,9.638-8.547
						c0.328-4.983-3.456-9.351-8.435-9.737l-4.177-0.323C212.439,208.094,212.198,208.085,211.958,208.085z"/>
				</g>
				<g>
					<path d="M216.151,225.102c-0.135,0-0.271-0.004-0.408-0.011l-4.184-0.227c-2.025-0.11-3.881-1.006-5.226-2.523
						c-1.346-1.517-2.013-3.467-1.88-5.491c0,0,0,0,0,0l0.007-0.097c0.133-2.023,1.05-3.869,2.583-5.197
						c1.533-1.328,3.491-1.972,5.512-1.816l4.177,0.323c4.092,0.317,7.202,3.907,6.933,8.002
						C223.405,222.024,220.075,225.102,216.151,225.102z M205.302,216.906c-0.118,1.795,0.475,3.525,1.668,4.871
						c1.194,1.346,2.84,2.141,4.636,2.238l4.184,0.227c0.121,0.007,0.242,0.01,0.362,0.01c3.481,0,6.434-2.729,6.666-6.242
						c0.239-3.633-2.52-6.818-6.15-7.099l-4.177-0.323c-1.794-0.139-3.53,0.433-4.89,1.611c-1.36,1.178-2.174,2.815-2.291,4.61
						L205.302,216.906z"/>
				</g>
				<g>
					<path d="M249.084,229.369c-0.173,0-0.347-0.005-0.521-0.014l0,0l-3.102-0.168c-2.59-0.14-4.964-1.286-6.685-3.227
						c-1.721-1.941-2.575-4.435-2.405-7.023l0.005-0.072c0.17-2.588,1.344-4.948,3.304-6.647c1.96-1.698,4.466-2.524,7.05-2.323
						l3.098,0.24c5.234,0.405,9.212,4.996,8.867,10.235C258.361,225.434,254.103,229.369,249.084,229.369z M248.609,228.507
						c4.776,0.257,8.923-3.416,9.238-8.192c0.314-4.776-3.313-8.962-8.085-9.332l-3.098-0.24c-2.358-0.183-4.641,0.57-6.428,2.118
						c-1.787,1.548-2.857,3.701-3.012,6.06l-0.005,0.072c-0.155,2.359,0.624,4.633,2.193,6.402c1.569,1.769,3.733,2.814,6.095,2.942
						L248.609,228.507z"/>
				</g>
				<g>
					<path d="M249.084,226.887c-0.129,0-0.258-0.003-0.387-0.01l-3.102-0.168c-1.922-0.104-3.685-0.955-4.962-2.395
						c-1.277-1.44-1.911-3.292-1.785-5.213l0.005-0.071c0.127-1.922,0.998-3.674,2.453-4.935c1.455-1.261,3.314-1.874,5.233-1.724
						l3.098,0.24c3.885,0.301,6.838,3.709,6.582,7.597C255.97,223.966,252.809,226.887,249.084,226.887z M245.975,213.199
						c-1.513,0-2.957,0.537-4.114,1.539c-1.282,1.111-2.05,2.655-2.161,4.347l-0.005,0.071c0,0,0,0.001,0,0.001
						c-0.111,1.693,0.447,3.324,1.572,4.593c1.126,1.269,2.678,2.019,4.372,2.111l3.102,0.168c3.425,0.186,6.401-2.45,6.626-5.876
						c0.225-3.426-2.376-6.429-5.799-6.694l-3.098-0.24C246.306,213.205,246.14,213.199,245.975,213.199z M239.272,219.128h0.002
						H239.272z"/>
				</g>
				<g>
					<path d="M279.499,231.019c-0.167,0-0.334-0.005-0.503-0.014l-2.173-0.118c-2.495-0.135-4.783-1.24-6.44-3.109
						c-1.658-1.87-2.481-4.272-2.317-6.766l0.003-0.05c0.164-2.493,1.295-4.768,3.183-6.404c1.889-1.636,4.301-2.431,6.792-2.238
						l2.17,0.168c5.043,0.39,8.875,4.814,8.543,9.861C288.437,227.227,284.334,231.018,279.499,231.019z M277.314,213.141
						c-2.025,0-3.958,0.719-5.505,2.059c-1.716,1.486-2.743,3.552-2.892,5.817l-0.003,0.05c-0.149,2.265,0.598,4.448,2.104,6.146
						c1.506,1.698,3.584,2.701,5.851,2.824l2.173,0.118c4.586,0.25,8.566-3.279,8.867-7.863c0.302-4.585-3.18-8.603-7.761-8.958
						l-2.169-0.168C277.757,213.15,277.535,213.141,277.314,213.141z"/>
				</g>
				<g>
					<path d="M279.499,228.537c-0.122,0-0.245-0.003-0.368-0.01l-2.173-0.118c-1.828-0.099-3.503-0.908-4.718-2.277
						c-1.214-1.37-1.817-3.13-1.697-4.956c0,0,0,0,0,0l0.003-0.05c0.12-1.826,0.948-3.492,2.332-4.691
						c1.384-1.199,3.152-1.781,4.975-1.64l2.17,0.168c3.694,0.286,6.501,3.526,6.258,7.223
						C286.046,225.759,283.041,228.537,279.499,228.537z M271.392,221.231L271.392,221.231c-0.105,1.598,0.422,3.138,1.484,4.336
						c1.063,1.198,2.529,1.906,4.128,1.993l2.173,0.118c0.108,0.006,0.215,0.009,0.322,0.009c3.099,0,5.729-2.43,5.934-5.557
						c0.213-3.235-2.243-6.07-5.475-6.32l-2.17-0.168c-1.597-0.123-3.143,0.386-4.353,1.435c-1.21,1.049-1.935,2.506-2.04,4.104
						L271.392,221.231z"/>
				</g>
				<g>
					<path d="M307.674,232.547c-0.161,0-0.322-0.004-0.485-0.013l-1.371-0.074c-2.408-0.131-4.615-1.196-6.214-3
						c-1.6-1.804-2.394-4.122-2.235-6.528l0.002-0.031c0.158-2.406,1.249-4.6,3.071-6.179c1.822-1.579,4.15-2.346,6.554-2.16
						l1.369,0.106c4.865,0.377,8.564,4.645,8.243,9.514C316.298,228.888,312.339,232.546,307.674,232.547z M306.291,215.383
						c-1.946,0-3.805,0.691-5.292,1.979c-1.649,1.429-2.636,3.415-2.78,5.592l-0.002,0.032c-0.143,2.177,0.575,4.276,2.023,5.908
						c1.448,1.633,3.445,2.597,5.625,2.715l1.371,0.074l0,0c4.401,0.238,8.235-3.152,8.525-7.559c0.29-4.407-3.057-8.27-7.461-8.611
						l-1.369-0.106C306.716,215.392,306.503,215.383,306.291,215.383z"/>
				</g>
				<g>
					<path d="M307.674,230.065c-0.116,0-0.233-0.003-0.35-0.01l-1.371-0.074c-1.74-0.094-3.335-0.864-4.491-2.168
						c-1.156-1.304-1.73-2.98-1.616-4.718l0.002-0.032c0.115-1.739,0.903-3.325,2.22-4.466c1.317-1.141,2.998-1.695,4.737-1.561
						l1.369,0.106c3.517,0.272,6.19,3.357,5.958,6.877C313.907,227.42,311.046,230.064,307.674,230.065z M306.295,217.866
						c-1.35,0-2.639,0.479-3.671,1.373c-1.144,0.991-1.829,2.369-1.928,3.879l-0.002,0.032v0c-0.099,1.51,0.399,2.966,1.403,4.099
						c1.004,1.132,2.39,1.801,3.901,1.883l1.371,0.074c3.061,0.166,5.712-2.187,5.913-5.244c0.201-3.057-2.12-5.737-5.175-5.973
						l-1.369-0.106C306.59,217.871,306.442,217.866,306.295,217.866z M300.27,223.122h0.002H300.27z"/>
				</g>
				<g>
					<path d="M333.848,233.966c-0.155,0-0.312-0.004-0.469-0.013l0,0l-0.676-0.037c-2.326-0.126-4.458-1.155-6.004-2.898
						c-1.546-1.743-2.313-3.983-2.16-6.307c0.154-2.34,1.208-4.46,2.969-5.986c1.761-1.525,4.01-2.266,6.332-2.087l0.675,0.052
						c4.701,0.364,8.274,4.488,7.964,9.193C342.18,230.432,338.355,233.966,333.848,233.966z M333.425,233.104
						c4.243,0.233,7.927-3.034,8.206-7.277c0.279-4.243-2.942-7.961-7.182-8.289l-0.675-0.052c-2.092-0.162-4.122,0.506-5.71,1.881
						c-1.588,1.376-2.538,3.287-2.676,5.384c-0.139,2.112,0.552,4.132,1.946,5.703c1.394,1.572,3.316,2.5,5.414,2.613
						L333.425,233.104z"/>
				</g>
				<g>
					<path d="M333.848,231.484c-0.111,0-0.222-0.003-0.334-0.009l-0.677-0.037c-1.659-0.09-3.179-0.824-4.281-2.067
						c-1.102-1.243-1.649-2.84-1.54-4.497c0,0,0,0,0,0l0.001-0.016c0.109-1.657,0.86-3.169,2.116-4.257
						c1.255-1.088,2.858-1.616,4.515-1.488l0.676,0.052c3.352,0.26,5.9,3.2,5.679,6.555
						C339.789,228.963,337.061,231.484,333.848,231.484z M333.163,219.945c-1.277,0-2.497,0.454-3.473,1.299
						c-1.083,0.938-1.73,2.241-1.824,3.67l-0.001,0.016c-0.094,1.429,0.377,2.806,1.328,3.878c0.95,1.072,2.261,1.704,3.691,1.782
						l0.676,0.037c2.901,0.158,5.404-2.069,5.595-4.961c0.19-2.892-2.006-5.428-4.896-5.651l-0.676-0.052
						C333.442,219.95,333.302,219.945,333.163,219.945z"/>
				</g>
				<g>
					<path d="M358.226,235.288c-0.151,0-0.301-0.004-0.453-0.012c0,0,0,0,0,0l-0.073-0.004c-2.25-0.122-4.312-1.118-5.808-2.804
						c-1.493-1.684-2.236-3.848-2.09-6.095c0-0.003,0-0.006,0-0.009c0.148-2.249,1.168-4.3,2.871-5.776
						c1.703-1.476,3.879-2.192,6.125-2.019l0.074,0.006c4.548,0.352,8.004,4.341,7.704,8.893
						C366.287,231.869,362.587,235.288,358.226,235.288z M357.819,234.427c4.098,0.222,7.64-2.925,7.909-7.014
						c0.269-4.089-2.836-7.673-6.922-7.99l-0.074-0.006c-2.016-0.156-3.973,0.488-5.503,1.813c-1.529,1.324-2.444,3.164-2.579,5.182
						c0,0.003,0,0.006,0,0.009c-0.133,2.02,0.534,3.967,1.877,5.482c1.343,1.515,3.196,2.409,5.218,2.519L357.819,234.427z"/>
				</g>
				<g>
					<path d="M358.226,232.806c-0.106,0-0.212-0.003-0.319-0.009l-0.074-0.004c-1.582-0.086-3.033-0.786-4.085-1.972
						c-1.052-1.186-1.573-2.71-1.47-4.292c0-0.003,0.001-0.006,0.001-0.009c0.106-1.579,0.822-3.018,2.019-4.055
						c1.198-1.038,2.73-1.542,4.308-1.42l0.073,0.006c3.199,0.248,5.63,3.054,5.42,6.255
						C363.896,230.401,361.293,232.806,358.226,232.806z M353.126,226.592c-0.087,1.351,0.36,2.652,1.258,3.665
						c0.9,1.015,2.141,1.614,3.495,1.687l0.074,0.004c0.091,0.005,0.182,0.007,0.273,0.007c2.624,0,4.851-2.057,5.025-4.705
						c0.18-2.739-1.9-5.14-4.636-5.352l-0.073-0.006c-1.354-0.104-2.662,0.327-3.687,1.215c-1.025,0.888-1.638,2.122-1.728,3.476
						C353.127,226.586,353.127,226.589,353.126,226.592z"/>
				</g>
				<g>
					<path d="M381.199,236.534c-0.142,0-0.284-0.004-0.427-0.012c-2.119-0.115-4.061-1.052-5.468-2.64
						c-1.408-1.587-2.106-3.628-1.967-5.745l0.029-0.446c0.139-2.117,1.099-4.048,2.703-5.438c1.604-1.389,3.652-2.064,5.767-1.901
						c4.282,0.331,7.536,4.088,7.254,8.373l-0.029,0.446C388.788,233.315,385.304,236.534,381.199,236.534z M381.216,221.18
						c-1.688,0-3.301,0.599-4.591,1.717c-1.431,1.239-2.287,2.962-2.411,4.851l-0.029,0.446c-0.124,1.889,0.499,3.709,1.755,5.125
						c1.256,1.416,2.988,2.253,4.878,2.355c3.827,0.208,7.143-2.734,7.394-6.557l0.029-0.446c0.252-3.823-2.651-7.174-6.471-7.47
						C381.585,221.187,381.4,221.18,381.216,221.18z"/>
				</g>
				<g>
					<path d="M381.199,234.052c-0.097,0-0.194-0.003-0.293-0.008c-1.451-0.079-2.781-0.721-3.746-1.808s-1.442-2.485-1.347-3.935
						l0.029-0.446c0.095-1.45,0.753-2.773,1.851-3.725c1.098-0.952,2.501-1.413,3.95-1.302c2.933,0.227,5.162,2.8,4.969,5.735
						l-0.029,0.446C386.397,231.847,384.011,234.052,381.199,234.052z M381.22,223.662c-1.092,0-2.135,0.388-2.969,1.111
						c-0.925,0.802-1.479,1.916-1.56,3.138l-0.029,0.446v0c-0.081,1.222,0.323,2.399,1.135,3.315
						c0.812,0.916,1.933,1.457,3.156,1.523c2.47,0.133,4.62-1.769,4.783-4.242l0.029-0.446c0.163-2.473-1.715-4.641-4.186-4.832
						C381.459,223.667,381.339,223.662,381.22,223.662z M376.237,228.329h0.002H376.237z"/>
				</g>
			</g>
			<g>
				<path d="M145.177,227.547c-9.068,0-18.705-4.265-28.729-12.73c-0.211-0.178-0.238-0.494-0.06-0.705
					c0.179-0.211,0.495-0.237,0.704-0.059c11.773,9.941,22.949,13.982,33.228,12.007c13.22-2.539,20.837-14.449,22.237-16.823
					l-32.543-19.642c-0.236-0.143-0.311-0.45-0.169-0.686c0.144-0.238,0.452-0.311,0.687-0.17l32.96,19.894
					c0.228,0.138,0.308,0.429,0.183,0.663c-0.079,0.148-8.059,14.839-23.157,17.744
					C148.762,227.378,146.979,227.547,145.177,227.547z"/>
			</g>
			<g>
				<path d="M425.826,256.179c-0.032,0-0.065-0.003-0.098-0.011c-0.229-0.054-0.37-0.283-0.317-0.511l26.998-114.783
					c0.396-1.685,0.047-3.459-0.959-4.867c-1.006-1.409-2.57-2.315-4.293-2.487l-33.888-3.389c-2.108-0.212-4.195,0.72-5.447,2.43
					l-47.421,64.787c-0.139,0.189-0.405,0.231-0.594,0.092c-0.189-0.139-0.23-0.405-0.092-0.594l47.421-64.787
					c1.429-1.952,3.809-3.015,6.217-2.774l33.888,3.389c1.966,0.197,3.752,1.232,4.9,2.839c1.148,1.608,1.547,3.633,1.095,5.556
					l-26.998,114.783C426.193,256.047,426.019,256.179,425.826,256.179z"/>
			</g>
			<g>
				<path d="M354.273,196.082c-0.088,0-0.177-0.027-0.254-0.084c-0.188-0.14-0.227-0.407-0.087-0.595l50.846-68.212
					c1.426-1.949,3.807-3.011,6.215-2.771l33.888,3.389c1.629,0.163,3.562,1.656,5.305,4.097c1.886,2.641,3.644,6.634,3.049,9.162
					c-0.054,0.229-0.283,0.37-0.511,0.316c-0.228-0.054-0.37-0.283-0.316-0.511c0.45-1.914-0.775-5.478-2.913-8.473
					c-1.577-2.209-3.333-3.609-4.698-3.745l-33.889-3.389c-2.108-0.212-4.195,0.72-5.447,2.43l-50.849,68.215
					C354.531,196.023,354.403,196.082,354.273,196.082z"/>
			</g>
			<g>
				<path d="M449.12,157.141c-0.046,0-0.092-0.007-0.137-0.023L401.37,140.87c-0.222-0.076-0.341-0.317-0.265-0.54
					c0.076-0.222,0.317-0.341,0.539-0.265l47.612,16.249c0.222,0.076,0.341,0.317,0.265,0.54
					C449.462,157.03,449.296,157.141,449.12,157.141z"/>
			</g>
			<g>
				<path d="M446.094,169.657c-0.046,0-0.092-0.008-0.138-0.023l-52.479-17.995c-0.222-0.076-0.34-0.318-0.264-0.54
					c0.076-0.222,0.317-0.34,0.54-0.264l52.479,17.995c0.222,0.076,0.34,0.318,0.264,0.54
					C446.435,169.546,446.27,169.657,446.094,169.657z"/>
			</g>
			<g>
				<path d="M329.219,256.924c-0.001,0-0.003,0-0.004,0l-70.915-0.745c-0.235-0.003-0.423-0.195-0.42-0.43
					c0.002-0.233,0.192-0.421,0.425-0.421c0.001,0,0.003,0,0.005,0l70.915,0.745c0.235,0.003,0.423,0.195,0.42,0.43
					C329.642,256.737,329.452,256.924,329.219,256.924z"/>
			</g>
			<g>
				<path d="M375.747,370.562h-15.125c-6.677,0-13.364-1.577-19.336-4.562c-5.973-2.985-11.249-7.384-15.258-12.724l-73.03-97.267
					c-0.141-0.188-0.103-0.454,0.085-0.595c0.188-0.141,0.454-0.103,0.595,0.085l73.03,97.267c3.93,5.235,9.103,9.548,14.958,12.474
					c5.856,2.926,12.411,4.472,18.956,4.472h15.125c5.609,0,10.574-2.933,13.28-7.847c2.706-4.913,2.532-10.677-0.466-15.418
					l-57.215-89.72c-0.126-0.198-0.068-0.461,0.13-0.587c0.198-0.125,0.461-0.068,0.587,0.13l57.216,89.721
					c3.167,5.008,3.351,11.095,0.494,16.284C386.913,367.465,381.671,370.562,375.747,370.562z"/>
			</g>
			<g>
				<path d="M371.924,375.393h-15.125c-6.677,0-13.364-1.577-19.337-4.562c-5.973-2.985-11.249-7.385-15.258-12.724l-70.201-94.544
					c-0.066-0.089-0.095-0.199-0.08-0.309l0.993-7.555c0.031-0.233,0.243-0.395,0.477-0.366c0.233,0.031,0.397,0.244,0.366,0.477
					l-0.971,7.384l70.098,94.404c3.929,5.233,9.102,9.546,14.957,12.472c5.856,2.926,12.411,4.472,18.957,4.472h15.125
					c5.555,0,9.504-1.386,12.426-4.361c2.709-2.758,4.244-6.59,5.704-10.605c0.081-0.221,0.325-0.334,0.545-0.254
					c0.221,0.08,0.334,0.324,0.254,0.545C387.654,368.664,384.229,375.393,371.924,375.393z"/>
			</g>
			<g>
				<path d="M366.184,370.562c-0.146,0-0.288-0.075-0.367-0.21l-66.838-113.638c-0.119-0.202-0.052-0.463,0.151-0.582
					c0.202-0.119,0.463-0.051,0.582,0.151l66.838,113.638c0.119,0.202,0.052,0.463-0.151,0.582
					C366.331,370.544,366.257,370.562,366.184,370.562z"/>
			</g>
			<g>
				<g>
					<path d="M422.628,256.924c-0.003,0-0.006,0-0.009,0l-37.318-0.745c-0.235-0.005-0.421-0.199-0.417-0.433
						c0.005-0.235,0.198-0.418,0.434-0.417l37.318,0.745c0.235,0.005,0.421,0.199,0.417,0.434
						C423.048,256.739,422.859,256.924,422.628,256.924z"/>
				</g>
				<g>
					<path d="M437.772,300.482h-5.28c-5.401,0-10.645-2.233-14.388-6.127l-36.826-38.307c-0.163-0.169-0.158-0.438,0.012-0.601
						c0.169-0.162,0.438-0.158,0.601,0.012l36.826,38.307c3.583,3.728,8.604,5.866,13.775,5.866h5.28
						c2.005,0,3.833-1.017,4.892-2.719c1.058-1.703,1.16-3.792,0.273-5.59l-17.462-35.381c-0.104-0.21-0.017-0.465,0.193-0.569
						c0.21-0.104,0.465-0.017,0.569,0.193l17.462,35.381c1.018,2.063,0.901,4.461-0.314,6.415
						C442.171,299.315,440.073,300.482,437.772,300.482z"/>
				</g>
				<g>
					<path d="M434.783,303.471h-5.28c-5.401,0-10.645-2.233-14.388-6.127l-33.841-36.524c-0.073-0.079-0.113-0.182-0.113-0.289
						v-4.778c0-0.235,0.19-0.425,0.425-0.425s0.425,0.19,0.425,0.425v4.611l33.723,36.396c3.578,3.722,8.599,5.86,13.77,5.86h5.28
						c1.731,0,6.028-0.704,8.546-7.223c0.085-0.219,0.331-0.328,0.55-0.243c0.219,0.085,0.328,0.331,0.243,0.55
						C442.215,300.641,438.811,303.471,434.783,303.471z"/>
				</g>
				<g>
					<path d="M439.943,300.093c-0.145,0-0.286-0.074-0.366-0.208l-25.661-43.169c-0.12-0.202-0.054-0.463,0.148-0.582
						c0.201-0.121,0.463-0.054,0.582,0.148l25.661,43.169c0.12,0.202,0.054,0.463-0.148,0.582
						C440.092,300.074,440.017,300.093,439.943,300.093z"/>
				</g>
			</g>
			<g>
				<path d="M383.047,368.777c-0.146,0-0.288-0.075-0.367-0.21l-65.794-111.853c-0.119-0.202-0.051-0.463,0.151-0.582
					c0.202-0.119,0.463-0.051,0.582,0.151l65.794,111.853c0.119,0.202,0.052,0.463-0.151,0.582
					C383.195,368.758,383.121,368.777,383.047,368.777z"/>
			</g>
			<g>
				<g>
					<path d="M386.96,266.758c-0.003,0-0.006,0-0.009,0l-49.224-1.04c-0.235-0.005-0.421-0.199-0.416-0.434
						c0.005-0.235,0.203-0.411,0.434-0.416l49.224,1.04c0.235,0.005,0.421,0.199,0.416,0.434
						C387.38,266.573,387.191,266.758,386.96,266.758z"/>
				</g>
				<g>
					<path d="M252.34,263.915c-0.003,0-0.006,0-0.009,0l-62.18-1.313c-0.235-0.005-0.421-0.199-0.416-0.434
						c0.005-0.232,0.194-0.416,0.425-0.416c0.003,0,0.006,0,0.009,0l62.18,1.313c0.235,0.005,0.421,0.199,0.416,0.434
						C252.76,263.73,252.57,263.915,252.34,263.915z"/>
				</g>
				<g>
					<path d="M398.112,279.033c-0.003,0-0.006,0-0.009,0l-52.658-1.112c-0.235-0.005-0.421-0.199-0.416-0.434
						c0.005-0.232,0.194-0.416,0.425-0.416c0.003,0,0.006,0,0.009,0l52.658,1.112c0.235,0.005,0.421,0.199,0.416,0.434
						C398.532,278.849,398.343,279.033,398.112,279.033z"/>
				</g>
				<g>
					<path d="M261.562,276.149c-0.003,0-0.006,0-0.009,0l-71.899-1.518c-0.235-0.005-0.421-0.199-0.416-0.434
						c0.005-0.235,0.198-0.42,0.434-0.416l71.899,1.518c0.235,0.005,0.421,0.199,0.416,0.434
						C261.982,275.965,261.793,276.149,261.562,276.149z"/>
				</g>
			</g>
			<g>
				<g>
					<path d="M270.571,320.175c-7.944,0-14.406-8.962-14.406-19.977c0-8.498,3.881-16.081,9.657-18.87
						c0.211-0.102,0.465-0.014,0.567,0.198c0.102,0.211,0.013,0.465-0.198,0.567c-5.489,2.65-9.177,9.925-9.177,18.104
						c0,10.547,6.081,19.127,13.556,19.127c2.941,0,5.74-1.311,8.096-3.793c2.305-2.428,4.035-5.889,4.87-9.744
						c0.05-0.229,0.277-0.374,0.506-0.325c0.229,0.05,0.375,0.276,0.325,0.505c-0.868,4.005-2.674,7.609-5.085,10.149
						C276.764,318.771,273.751,320.175,270.571,320.175z"/>
				</g>
				<g>
					<path d="M284.491,318.485c-0.142,0-0.28-0.071-0.361-0.2c-0.124-0.199-0.064-0.461,0.135-0.586
						c1.772-1.107,3.391-2.778,4.682-4.835c0.125-0.199,0.387-0.259,0.586-0.134c0.199,0.125,0.259,0.387,0.134,0.586
						c-1.359,2.165-3.071,3.93-4.952,5.104C284.646,318.464,284.568,318.485,284.491,318.485z"/>
				</g>
				<g>
					<path d="M270.57,320.175c-0.212,0-0.395-0.158-0.421-0.374c-0.028-0.233,0.138-0.445,0.371-0.473
						c0.118-0.014,11.934-1.44,21.555-2.369c0.236-0.021,0.441,0.149,0.464,0.382c0.022,0.234-0.149,0.441-0.382,0.464
						c-9.611,0.928-21.417,2.352-21.535,2.366C270.605,320.173,270.588,320.175,270.57,320.175z"/>
				</g>
				<g>
					<path d="M268.088,309.088c-3.376,0-6.123-3.766-6.123-8.394c0-4.628,2.747-8.394,6.123-8.394c3.376,0,6.123,3.765,6.123,8.394
						C274.211,305.322,271.464,309.088,268.088,309.088z M268.088,293.15c-2.907,0-5.273,3.384-5.273,7.543
						c0,4.16,2.366,7.544,5.273,7.544c2.908,0,5.273-3.384,5.273-7.544C273.361,296.534,270.995,293.15,268.088,293.15z"/>
				</g>
				<g>
					<g>
						<path d="M279.677,300.622h-5.891c-0.235,0-0.425-0.19-0.425-0.425c0-0.235,0.19-0.425,0.425-0.425h5.891
							c0.235,0,0.425,0.19,0.425,0.425C280.102,300.432,279.912,300.622,279.677,300.622z"/>
					</g>
					<g>
						<path d="M262.39,300.622h-5.8c-0.235,0-0.425-0.19-0.425-0.425c0-0.235,0.19-0.425,0.425-0.425h5.8
							c0.235,0,0.425,0.19,0.425,0.425C262.815,300.432,262.624,300.622,262.39,300.622z"/>
					</g>
					<g>
						<path d="M272.04,295.382c-0.089,0-0.178-0.028-0.255-0.085c-0.188-0.141-0.226-0.407-0.085-0.595l1.912-2.546
							c0.141-0.188,0.407-0.225,0.595-0.085c0.188,0.141,0.226,0.407,0.085,0.595l-1.912,2.547
							C272.297,295.324,272.169,295.382,272.04,295.382z"/>
					</g>
					<g>
						<path d="M259.54,312.028c-0.089,0-0.178-0.028-0.255-0.085c-0.188-0.141-0.226-0.407-0.085-0.595l4.256-5.668
							c0.141-0.188,0.407-0.225,0.595-0.085c0.188,0.141,0.226,0.407,0.085,0.595l-4.256,5.668
							C259.797,311.97,259.669,312.028,259.54,312.028z"/>
					</g>
					<g>
						<path d="M264.629,294.787c-0.129,0-0.257-0.059-0.34-0.17l-4.644-6.184c-0.141-0.188-0.103-0.454,0.085-0.595
							c0.188-0.14,0.454-0.103,0.595,0.085l4.644,6.184c0.141,0.188,0.103,0.454-0.085,0.595
							C264.807,294.759,264.718,294.787,264.629,294.787z"/>
					</g>
					<g>
						<path d="M279.891,315.111c-0.129,0-0.257-0.059-0.34-0.17l-7.112-9.471c-0.141-0.188-0.103-0.454,0.085-0.595
							c0.188-0.141,0.454-0.103,0.595,0.085l7.112,9.471c0.141,0.188,0.103,0.454-0.085,0.595
							C280.069,315.083,279.98,315.111,279.891,315.111z"/>
					</g>
					<g>
						<path d="M268.088,319.544c-0.235,0-0.425-0.19-0.425-0.425v-10.456c0-0.235,0.19-0.425,0.425-0.425s0.425,0.19,0.425,0.425
							v10.456C268.513,319.353,268.322,319.544,268.088,319.544z"/>
					</g>
					<g>
						<path d="M268.088,293.15c-0.235,0-0.425-0.19-0.425-0.425v-8.213c0-0.235,0.19-0.425,0.425-0.425s0.425,0.19,0.425,0.425
							v8.213C268.513,292.96,268.322,293.15,268.088,293.15z"/>
					</g>
				</g>
			</g>
		</g>
		<g>
			<g>
				<path d="M316.391,136.959c-2.618,0-4.748-2.13-4.748-4.748c0-2.618,2.13-4.748,4.748-4.748c2.618,0,4.748,2.13,4.748,4.748
					C321.14,134.829,319.01,136.959,316.391,136.959z M316.391,128.313c-2.149,0-3.898,1.749-3.898,3.898
					c0,2.149,1.749,3.898,3.898,3.898c2.15,0,3.898-1.749,3.898-3.898C320.29,130.061,318.541,128.313,316.391,128.313z"/>
			</g>
			<g>
				<path d="M449.277,237.512c-2.574,0-4.668-2.094-4.668-4.668c0-2.574,2.094-4.668,4.668-4.668c2.574,0,4.668,2.094,4.668,4.668
					C453.945,235.418,451.851,237.512,449.277,237.512z M449.277,229.026c-2.105,0-3.818,1.713-3.818,3.818
					c0,2.105,1.713,3.818,3.818,3.818c2.105,0,3.818-1.713,3.818-3.818C453.095,230.739,451.382,229.026,449.277,229.026z"/>
			</g>
			<g>
				<path d="M37.939,236.846c-2.207,0-4.003-1.796-4.003-4.003c0-2.207,1.796-4.003,4.003-4.003c2.207,0,4.003,1.796,4.003,4.003
					C41.942,235.051,40.146,236.846,37.939,236.846z M37.939,229.691c-1.738,0-3.153,1.414-3.153,3.153
					c0,1.738,1.414,3.153,3.153,3.153c1.738,0,3.153-1.414,3.153-3.153C41.092,231.105,39.677,229.691,37.939,229.691z"/>
			</g>
			<g>
				<path d="M382.396,432.818c-3.088,0-5.601-2.513-5.601-5.601c0-3.088,2.513-5.601,5.601-5.601c3.088,0,5.601,2.513,5.601,5.601
					C387.997,430.305,385.485,432.818,382.396,432.818z M382.396,422.466c-2.62,0-4.751,2.131-4.751,4.751
					c0,2.62,2.131,4.751,4.751,4.751c2.619,0,4.751-2.131,4.751-4.751C387.147,424.598,385.016,422.466,382.396,422.466z"/>
			</g>
		</g>
		<g>
			<g>
				<path d="M409.967,467.226c-2.335,0-4.715-0.243-7.136-0.729c-4.478-0.899-8.292-2.708-11.03-5.23
					c-3.043-2.804-4.651-6.444-4.651-10.526c0-8.693,7.072-15.764,15.764-15.764c2.651,0,5.245,0.664,7.556,1.928
					c-0.03-0.379-0.046-0.755-0.046-1.124c0-7.811,6.354-14.166,14.165-14.166c7.811,0,14.165,6.355,14.165,14.166
					c0,0.067-0.001,0.134-0.002,0.203c2.941-2.229,6.545-3.446,10.25-3.446c9.365,0,16.984,7.619,16.984,16.984
					c0,4.493-1.729,8.525-4.999,11.659c-3.077,2.949-7.318,4.839-11.94,5.322c-9.869,1.031-15.484-2.947-18.881-6.169
					C423.934,464.92,417.164,467.226,409.967,467.226z M402.914,435.827c-8.224,0-14.914,6.691-14.914,14.914
					c0,3.893,1.473,7.224,4.377,9.9c2.623,2.417,6.296,4.154,10.621,5.022c9.755,1.958,18.821-0.136,26.949-6.225
					c0.167-0.126,0.401-0.11,0.551,0.035c3.246,3.143,8.691,7.205,18.462,6.184c4.436-0.463,8.499-2.271,11.44-5.09
					c3.099-2.97,4.737-6.79,4.737-11.046c0-8.896-7.238-16.134-16.134-16.134c-3.824,0-7.534,1.365-10.448,3.845
					c-0.131,0.112-0.317,0.133-0.469,0.055c-0.153-0.079-0.244-0.241-0.23-0.413c0.033-0.4,0.048-0.758,0.048-1.093
					c0-7.342-5.973-13.316-13.315-13.316c-7.342,0-13.316,5.973-13.316,13.316c0,0.605,0.044,1.23,0.132,1.857
					c0.023,0.163-0.051,0.325-0.189,0.415c-0.138,0.09-0.316,0.092-0.456,0.005C408.406,436.599,405.693,435.827,402.914,435.827z"
					/>
			</g>
			<g>
				<path d="M238.696,339.17h-25.123c-0.235,0-0.425-0.19-0.425-0.425c0-0.235,0.19-0.425,0.425-0.425h25.123
					c6.612,0,11.991-5.379,11.991-11.991c0-6.612-5.379-11.991-11.991-11.991c-2.792,0-5.511,0.981-7.656,2.764
					c-0.119,0.099-0.282,0.125-0.426,0.069c-0.144-0.056-0.246-0.186-0.267-0.339c-0.925-6.777-6.786-11.886-13.634-11.886
					c-7.216,0-13.247,5.636-13.729,12.83c-0.01,0.155-0.104,0.291-0.244,0.357c-0.14,0.065-0.305,0.05-0.43-0.041
					c-1.92-1.396-4.191-2.134-6.567-2.134c-1.985,0-3.935,0.527-5.638,1.524c-0.203,0.119-0.463,0.051-0.582-0.152
					c-0.118-0.203-0.05-0.463,0.152-0.582c1.834-1.073,3.932-1.64,6.068-1.64c2.311,0,4.529,0.649,6.46,1.882
					c0.857-7.288,7.094-12.894,14.51-12.894c7.025,0,13.073,5.067,14.359,11.901c2.199-1.622,4.878-2.509,7.624-2.509
					c7.081,0,12.841,5.761,12.841,12.841C251.537,333.409,245.776,339.17,238.696,339.17z"/>
			</g>
			<g>
				<g>
					<path d="M321.741,82.892c-1.116,0-2.286-0.06-3.515-0.188c-5.239-0.547-10.044-2.688-13.53-6.03
						c-3.704-3.55-5.662-8.116-5.662-13.204c0-10.607,8.629-19.236,19.236-19.236c4.237,0,8.356,1.405,11.705,3.976
						c-0.003-0.119-0.005-0.235-0.005-0.349c0-8.842,7.193-16.035,16.035-16.035c8.842,0,16.035,7.193,16.035,16.035
						c0,0.453-0.021,0.914-0.061,1.38c2.64-1.465,5.613-2.236,8.65-2.236c6.882,0,13.033,3.845,16.053,10.034
						c0.103,0.211,0.015,0.465-0.196,0.568c-0.211,0.103-0.466,0.015-0.568-0.196c-2.876-5.894-8.734-9.556-15.289-9.556
						c-3.167,0-6.26,0.88-8.945,2.544c-0.14,0.087-0.318,0.085-0.456-0.005c-0.138-0.09-0.212-0.252-0.189-0.415
						c0.1-0.715,0.15-1.427,0.15-2.118c0-8.373-6.812-15.185-15.185-15.185c-8.373,0-15.185,6.812-15.185,15.185
						c0,0.38,0.018,0.788,0.055,1.247c0.014,0.171-0.077,0.334-0.23,0.413c-0.153,0.078-0.338,0.057-0.469-0.055
						c-3.32-2.825-7.549-4.382-11.907-4.382c-10.138,0-18.386,8.248-18.386,18.386c0,4.851,1.867,9.205,5.4,12.59
						c3.351,3.212,7.979,5.271,13.031,5.798c11.124,1.162,17.324-3.462,21.02-7.042c0.15-0.145,0.383-0.16,0.551-0.035
						c2.767,2.072,5.664,3.76,8.611,5.014c0.216,0.092,0.316,0.342,0.225,0.558c-0.092,0.216-0.341,0.317-0.558,0.225
						c-2.907-1.237-5.765-2.885-8.498-4.901C336.24,78.935,330.812,82.892,321.741,82.892z"/>
				</g>
				<g>
					<path d="M445.232,103.772H370.06c-12.216,0-22.155-9.938-22.155-22.155c0-12.216,9.939-22.155,22.155-22.155
						c4.91,0,9.698,1.643,13.566,4.64c0.953-5.71,3.858-10.939,8.235-14.791c4.607-4.054,10.528-6.287,16.672-6.287
						c12.992,0,23.891,9.955,25.134,22.8c3.427-2.311,7.41-3.528,11.566-3.528c11.435,0,20.737,9.303,20.737,20.737
						S456.667,103.772,445.232,103.772z M370.06,60.313c-11.747,0-21.305,9.557-21.305,21.305s9.557,21.305,21.305,21.305h75.173
						c10.966,0,19.887-8.921,19.887-19.887c0-10.966-8.921-19.887-19.887-19.887c-4.226,0-8.265,1.312-11.68,3.795
						c-0.125,0.091-0.289,0.107-0.43,0.041c-0.14-0.066-0.233-0.202-0.244-0.356c-0.856-12.758-11.551-22.752-24.347-22.752
						c-5.937,0-11.658,2.158-16.11,6.075c-4.411,3.882-7.276,9.21-8.066,15.003c-0.021,0.153-0.123,0.283-0.267,0.339
						c-0.143,0.056-0.307,0.029-0.426-0.069C379.852,62.057,375.021,60.313,370.06,60.313z"/>
				</g>
			</g>
			<g>
				<g>
					<path d="M66.724,149.013h-7.447c-14.408,0-26.13-11.722-26.13-26.13c0-6.193,2.206-12.199,6.211-16.911
						c3.846-4.525,9.126-7.614,14.915-8.738c-1.372-3.528-2.068-7.247-2.068-11.064c0-16.842,13.702-30.543,30.543-30.543
						c0.103,0,0.205,0.001,0.307,0.002c1.065-7.34,4.718-14.082,10.312-19.021c5.74-5.067,13.124-7.858,20.789-7.858
						c7.296,0,14.368,2.542,19.983,7.172c2.299-5.67,6.164-10.518,11.206-14.048c5.326-3.727,11.589-5.698,18.113-5.698
						c7.286,0,14.397,2.538,20.024,7.145c5.439,4.454,9.269,10.637,10.818,17.448c1.813-0.367,3.669-0.553,5.524-0.553
						c15.276,0,27.704,12.428,27.704,27.704c0,1.688-0.153,3.378-0.456,5.029c6.369,0.327,12.307,3.021,16.768,7.617
						c4.587,4.726,7.113,10.957,7.113,17.544c0,5.746-1.985,11.367-5.59,15.827c-3.552,4.395-8.525,7.501-14.004,8.745
						c-0.228,0.053-0.456-0.091-0.508-0.32c-0.052-0.229,0.091-0.457,0.32-0.509c5.293-1.202,10.098-4.203,13.531-8.45
						c3.483-4.309,5.401-9.74,5.401-15.292c0-6.365-2.441-12.386-6.873-16.952c-4.422-4.557-10.347-7.178-16.682-7.38
						c-0.125-0.004-0.242-0.063-0.32-0.161c-0.078-0.098-0.108-0.225-0.083-0.348c0.354-1.751,0.533-3.55,0.533-5.349
						c0-14.808-12.047-26.854-26.854-26.854c-1.935,0-3.872,0.209-5.757,0.621c-0.111,0.024-0.226,0.003-0.321-0.058
						c-0.095-0.061-0.162-0.158-0.185-0.269c-1.446-6.786-5.216-12.959-10.617-17.382c-5.475-4.484-12.395-6.953-19.485-6.953
						c-6.349,0-12.444,1.917-17.626,5.544c-5.066,3.546-8.911,8.459-11.118,14.209c-0.05,0.129-0.159,0.226-0.292,0.26
						c-0.134,0.034-0.276,0.001-0.381-0.089c-5.531-4.739-12.593-7.35-19.885-7.35c-7.458,0-14.642,2.715-20.227,7.645
						c-5.536,4.887-9.117,11.588-10.084,18.871c-0.028,0.215-0.207,0.377-0.431,0.369c-0.222-0.005-0.444-0.008-0.667-0.008
						c-16.373,0-29.693,13.32-29.693,29.693c0,3.881,0.74,7.659,2.198,11.227c0.049,0.119,0.041,0.254-0.022,0.367
						c-0.062,0.113-0.172,0.191-0.299,0.213c-5.795,1.004-11.096,4.038-14.927,8.545c-3.875,4.559-6.008,10.369-6.008,16.361
						c0,13.939,11.34,25.279,25.28,25.279h7.447c0.235,0,0.425,0.19,0.425,0.425C67.149,148.823,66.959,149.013,66.724,149.013z"/>
				</g>
				<g>
					<g>
						<path d="M219.056,74.653c-0.186,0-0.356-0.123-0.409-0.31c-0.063-0.226,0.068-0.461,0.294-0.524
							c2.208-0.619,4.501-0.933,6.816-0.933c0.632,0,1.27,0.024,1.897,0.07c0.234,0.017,0.41,0.221,0.392,0.455
							c-0.017,0.234-0.222,0.408-0.455,0.392c-0.606-0.045-1.223-0.068-1.834-0.068c-2.237,0-4.453,0.303-6.586,0.901
							C219.133,74.648,219.094,74.653,219.056,74.653z"/>
					</g>
					<g>
						<path d="M174.062,59.326c-0.046,0-0.094-0.008-0.14-0.024c-0.222-0.077-0.339-0.32-0.261-0.541
							c3.149-9.023,10.896-15.895,20.219-17.934c0.23-0.051,0.456,0.095,0.506,0.324c0.05,0.229-0.095,0.456-0.324,0.506
							c-9.036,1.976-16.546,8.637-19.598,17.384C174.402,59.217,174.237,59.326,174.062,59.326z"/>
					</g>
					<g>
						<path d="M144.531,54.323c-0.198,0-0.375-0.139-0.416-0.34c-1.392-6.798-5.124-12.988-10.508-17.431
							c-0.181-0.149-0.207-0.417-0.058-0.598c0.15-0.181,0.418-0.207,0.598-0.057c5.533,4.566,9.369,10.928,10.8,17.916
							c0.047,0.23-0.101,0.455-0.331,0.502C144.587,54.32,144.559,54.323,144.531,54.323z"/>
					</g>
					<g>
						<path d="M106.659,68.249c-0.128,0-0.254-0.057-0.338-0.166c-5.673-7.394-14.265-11.635-23.573-11.635
							c-0.235,0-0.425-0.19-0.425-0.425s0.19-0.425,0.425-0.425c9.574,0,18.412,4.362,24.247,11.968
							c0.143,0.186,0.108,0.453-0.078,0.596C106.84,68.22,106.749,68.249,106.659,68.249z"/>
					</g>
					<g>
						<path d="M66.622,98.639c-0.04,0-0.081-0.006-0.121-0.018c-2.334-0.695-4.765-1.047-7.224-1.047
							c-1.715,0-3.43,0.173-5.095,0.514c-0.23,0.048-0.455-0.101-0.502-0.331c-0.047-0.23,0.101-0.454,0.331-0.502
							c1.721-0.352,3.493-0.531,5.266-0.531c2.541,0,5.053,0.364,7.466,1.082c0.225,0.067,0.353,0.304,0.286,0.529
							C66.974,98.52,66.805,98.639,66.622,98.639z"/>
					</g>
				</g>
				<g>
					<g>
						<path d="M200.083,153.241H78.887c-11.048,0-20.036-8.988-20.036-20.036c0-11.048,8.988-20.036,20.036-20.036
							c1.643,0,3.282,0.203,4.883,0.605c0-0.06-0.001-0.12-0.001-0.18c0-15.325,12.467-27.792,27.792-27.792
							c5.85,0,11.415,1.784,16.143,5.168c0.776-6.748,3.945-12.976,8.975-17.606c5.247-4.83,12.067-7.49,19.204-7.49
							c15.642,0,28.368,12.726,28.368,28.368c0,0.165-0.002,0.333-0.005,0.503c4.793-2.806,10.25-4.284,15.836-4.284
							c17.308,0,31.389,14.081,31.389,31.39S217.391,153.241,200.083,153.241z M78.887,114.019
							c-10.579,0-19.186,8.607-19.186,19.186c0,10.579,8.607,19.186,19.186,19.186h121.195c16.84,0,30.539-13.7,30.539-30.539
							c0-16.839-13.7-30.539-30.539-30.539c-5.691,0-11.245,1.578-16.062,4.563c-0.134,0.083-0.303,0.085-0.439,0.005
							c-0.136-0.08-0.217-0.228-0.21-0.386c0.02-0.445,0.03-0.855,0.03-1.252c0-15.174-12.344-27.518-27.518-27.518
							c-6.923,0-13.538,2.58-18.628,7.265c-5.059,4.657-8.178,10.979-8.78,17.801c-0.014,0.154-0.11,0.288-0.251,0.351
							c-0.141,0.063-0.305,0.044-0.429-0.049c-4.706-3.559-10.32-5.44-16.234-5.44c-14.856,0-26.942,12.086-26.942,26.942
							c0,0.242,0.004,0.484,0.01,0.724c0.004,0.135-0.057,0.264-0.164,0.347c-0.106,0.083-0.246,0.111-0.376,0.074
							C82.391,114.261,80.641,114.019,78.887,114.019z"/>
					</g>
					<g>
						<path d="M138.886,108.806c-0.198,0-0.375-0.139-0.416-0.34c-1.353-6.613-5.125-12.448-10.622-16.432
							c-0.19-0.138-0.232-0.404-0.095-0.594c0.137-0.19,0.403-0.233,0.594-0.095c5.669,4.109,9.56,10.129,10.956,16.95
							c0.047,0.23-0.101,0.455-0.331,0.502C138.943,108.803,138.915,108.806,138.886,108.806z"/>
					</g>
					<g>
						<path d="M92.739,119.778c-0.109,0-0.218-0.042-0.3-0.125c-2.322-2.322-5.211-4.017-8.353-4.901
							c-0.226-0.064-0.357-0.298-0.294-0.524c0.064-0.226,0.298-0.357,0.524-0.294c3.282,0.924,6.299,2.694,8.724,5.119
							c0.166,0.166,0.166,0.435,0,0.601C92.957,119.737,92.848,119.778,92.739,119.778z"/>
					</g>
				</g>
			</g>
			<g>
				<g>
					<path d="M389.545,316.737c-0.161,0-0.315-0.092-0.387-0.248c-5.309-11.576-16.965-19.056-29.695-19.056
						c-0.623,0-1.252,0.018-1.868,0.053c-0.236,0.014-0.435-0.166-0.449-0.4c-0.013-0.234,0.166-0.435,0.4-0.449
						c0.633-0.036,1.277-0.054,1.916-0.054c13.062,0,25.021,7.674,30.468,19.552c0.098,0.213,0.004,0.466-0.209,0.564
						C389.664,316.725,389.604,316.737,389.545,316.737z"/>
				</g>
				<g>
					<path d="M362.287,388.758h-21.345c-14.479,0-26.259-11.78-26.259-26.259c0-3.995,0.875-7.832,2.599-11.403
						c0.102-0.211,0.356-0.3,0.568-0.198c0.211,0.102,0.3,0.356,0.198,0.568c-1.669,3.455-2.515,7.167-2.515,11.033
						c0,14.011,11.399,25.409,25.409,25.409h21.345c0.235,0,0.425,0.19,0.425,0.425
						C362.712,388.567,362.521,388.758,362.287,388.758z"/>
				</g>
				<g>
					<path d="M389.535,316.742c-0.011,0-0.023,0-0.034-0.001c-0.234-0.019-0.409-0.224-0.39-0.458
						c0.939-11.764,7.494-22.538,17.534-28.822c0.199-0.124,0.461-0.064,0.586,0.135c0.125,0.199,0.064,0.461-0.135,0.586
						c-9.813,6.142-16.22,16.672-17.138,28.169C389.94,316.573,389.754,316.742,389.535,316.742z"/>
				</g>
				<g>
					<path d="M454.572,295.406c-0.122,0-0.239-0.052-0.321-0.146c-3.859-4.444-8.779-7.931-14.225-10.085
						c-0.218-0.086-0.325-0.333-0.239-0.552c0.086-0.218,0.333-0.326,0.551-0.239c5.342,2.113,10.188,5.479,14.059,9.759
						c1.312-3.793,3.777-7.185,7-9.612c3.541-2.666,7.761-4.075,12.206-4.075c2.963,0,5.812,0.622,8.477,1.849
						c2.474-8.225,8.79-14.898,16.983-17.908c0.22-0.081,0.465,0.032,0.545,0.252c0.081,0.22-0.032,0.464-0.252,0.545
						c-8.098,2.976-14.303,9.639-16.598,17.824c-0.034,0.122-0.12,0.222-0.236,0.273c-0.115,0.052-0.247,0.049-0.361-0.006
						c-2.678-1.313-5.557-1.979-8.558-1.979c-4.258,0-8.302,1.35-11.694,3.904c-3.282,2.471-5.743,5.985-6.93,9.894
						c-0.045,0.148-0.167,0.26-0.318,0.292C454.631,295.403,454.602,295.406,454.572,295.406z"/>
				</g>
				<g>
					<path d="M499.21,396.083H381.906c-12.836,0-24.164-8.637-27.547-21.003c-0.062-0.226,0.071-0.46,0.298-0.522
						c0.225-0.063,0.46,0.071,0.522,0.298c3.283,11.998,14.273,20.378,26.727,20.378H499.21c0.235,0,0.425,0.19,0.425,0.425
						C499.635,395.893,499.444,396.083,499.21,396.083z"/>
				</g>
				<g>
					<path d="M399.885,346.315c-0.097,0-0.194-0.033-0.272-0.098c-4.236-3.524-9.364-5.685-14.829-6.249
						c-0.233-0.024-0.403-0.233-0.379-0.466c0.024-0.234,0.236-0.406,0.466-0.379c5.248,0.542,10.194,2.512,14.377,5.715
						c-0.314-1.793-0.472-3.619-0.472-5.443c0-17.308,14.081-31.389,31.389-31.389c12.959,0,24.616,8.022,29.276,20.049
						c5.94-8.95,15.815-14.267,26.588-14.267c4.629,0,9.248,0.992,13.358,2.87c0.214,0.098,0.308,0.35,0.21,0.563
						c-0.098,0.214-0.35,0.307-0.563,0.21c-4-1.827-8.496-2.793-13.004-2.793c-10.762,0-20.605,5.453-26.33,14.586
						c-0.087,0.138-0.244,0.214-0.406,0.197c-0.162-0.018-0.3-0.126-0.354-0.28c-4.324-12.133-15.888-20.285-28.773-20.285
						c-16.84,0-30.539,13.7-30.539,30.539c0,2.152,0.227,4.308,0.675,6.406c0.038,0.177-0.041,0.359-0.196,0.453
						C400.037,346.295,399.961,346.315,399.885,346.315z"/>
				</g>
				<g>
					<g>
						<path d="M392.539,330.407c-0.235,0-0.425-0.19-0.425-0.425c0-6.431-1.895-12.635-5.48-17.942
							c-0.131-0.195-0.08-0.459,0.114-0.59c0.195-0.131,0.459-0.08,0.59,0.114c3.681,5.448,5.626,11.817,5.626,18.418
							C392.964,330.217,392.774,330.407,392.539,330.407z"/>
					</g>
					<g>
						<path d="M453.715,301.194c-0.235,0-0.425-0.19-0.425-0.425c0-2.742,0.537-5.402,1.597-7.907
							c0.091-0.216,0.34-0.317,0.557-0.226c0.216,0.092,0.317,0.341,0.226,0.557c-1.015,2.399-1.529,4.947-1.529,7.575
							C454.14,301.004,453.95,301.194,453.715,301.194z"/>
					</g>
					<g>
						<path d="M481.344,290.66c-0.235,0-0.425-0.19-0.425-0.425c0-3.682,0.715-7.257,2.126-10.625
							c0.091-0.217,0.34-0.318,0.556-0.228c0.217,0.091,0.319,0.34,0.228,0.556c-1.367,3.263-2.06,6.727-2.06,10.296
							C481.769,290.47,481.579,290.66,481.344,290.66z"/>
					</g>
				</g>
				<g>
					<g>
						<path d="M408.351,358.334c-0.174,0-0.337-0.107-0.4-0.28c-2.003-5.506-5.801-10.335-10.696-13.598
							c-0.195-0.13-0.248-0.394-0.118-0.589c0.13-0.195,0.394-0.249,0.589-0.118c5.044,3.363,8.959,8.34,11.024,14.015
							c0.08,0.221-0.034,0.464-0.254,0.545C408.448,358.326,408.399,358.334,408.351,358.334z"/>
					</g>
					<g>
						<path d="M454.549,346.117c-0.235,0-0.425-0.19-0.425-0.425c0-6.006,1.678-11.857,4.852-16.921
							c0.125-0.199,0.387-0.259,0.586-0.134c0.199,0.124,0.259,0.387,0.134,0.586c-3.089,4.929-4.722,10.624-4.722,16.47
							C454.974,345.927,454.784,346.117,454.549,346.117z"/>
					</g>
				</g>
			</g>
			<g>
				<g>
					<path d="M256.784,469.899c-6.901,0-13.778-2.344-19.364-6.6c-5.59-4.259-9.518-10.15-11.062-16.588
						c-0.055-0.228,0.086-0.458,0.314-0.512c0.228-0.053,0.458,0.086,0.512,0.314c1.498,6.248,5.316,11.97,10.751,16.11
						c5.439,4.144,12.133,6.426,18.849,6.426c6.498,0,12.656-2.076,17.811-6.003c4.989-3.801,8.698-9.193,10.441-15.183
						c0.047-0.16,0.182-0.278,0.346-0.302c0.167-0.025,0.328,0.05,0.419,0.19c4.479,6.924,12.068,11.059,20.303,11.059
						c13.323,0,24.163-10.839,24.163-24.163c0-8.823-4.81-16.944-12.552-21.194c-0.105-0.057-0.18-0.156-0.208-0.273
						c-0.028-0.116-0.006-0.239,0.061-0.338c2.529-3.751,3.865-8.136,3.865-12.678c0-12.524-10.189-22.714-22.714-22.714
						c-5.97,0-11.609,2.299-15.879,6.474c-0.14,0.137-0.354,0.16-0.52,0.058c-0.166-0.103-0.241-0.305-0.181-0.491
						c0.937-2.928,1.413-5.983,1.413-9.079c0-16.405-13.346-29.751-29.751-29.751c-5.631,0-11.113,1.581-15.852,4.571
						c-4.612,2.91-8.337,7.023-10.772,11.892c-0.083,0.167-0.267,0.26-0.45,0.229c-0.184-0.031-0.327-0.178-0.351-0.363
						c-1.033-7.746-4.846-14.874-10.736-20.07c-5.943-5.243-13.585-8.13-21.519-8.13c-0.426,0-0.874,0.01-1.372,0.031
						c-0.123,0.003-0.233-0.04-0.317-0.123c-0.084-0.083-0.13-0.198-0.126-0.316c0.014-0.447,0.021-0.821,0.021-1.175
						c0-19.64-15.978-35.618-35.618-35.618c-17.059,0-31.769,12.142-34.977,28.871c-0.037,0.193-0.201,0.335-0.398,0.344
						c-0.196,0.008-0.373-0.117-0.428-0.306c-1.942-6.686-6.079-12.705-11.646-16.948c-5.752-4.384-12.625-6.701-19.876-6.701
						c-18.1,0-32.824,14.725-32.824,32.824c0,3.825,0.653,7.574,1.941,11.143c0.06,0.167,0.01,0.354-0.126,0.469
						c-0.136,0.115-0.329,0.133-0.483,0.045c-4.146-2.343-8.867-3.581-13.654-3.581c-15.326,0-27.795,12.469-27.795,27.795
						c0,9.206,4.549,17.8,12.17,22.989c0.115,0.078,0.184,0.207,0.186,0.346c0.002,0.139-0.064,0.269-0.177,0.351
						c-7.626,5.484-12.179,14.358-12.179,23.736c0,7.63,2.923,14.849,8.23,20.327c5.295,5.466,12.392,8.618,19.984,8.874
						c0.235,0.008,0.418,0.205,0.41,0.439c-0.008,0.235-0.208,0.419-0.439,0.41c-7.813-0.264-15.117-3.507-20.565-9.132
						c-5.462-5.638-8.47-13.067-8.47-20.919c0-9.452,4.494-18.405,12.05-24.072c-7.556-5.379-12.05-14.063-12.05-23.35
						c0-15.795,12.85-28.645,28.645-28.645c4.566,0,9.074,1.094,13.108,3.171c-1.087-3.35-1.638-6.842-1.638-10.398
						c0-18.568,15.106-33.674,33.674-33.674c7.439,0,14.491,2.377,20.392,6.875c5.282,4.026,9.308,9.609,11.46,15.852
						c3.88-16.311,18.547-27.987,35.474-27.987c20.109,0,36.468,16.36,36.468,36.468c0,0.236-0.003,0.481-0.009,0.748
						c0.335-0.01,0.649-0.015,0.952-0.015c8.141,0,15.983,2.963,22.082,8.343c5.717,5.044,9.527,11.862,10.82,19.313
						c2.498-4.508,6.097-8.321,10.474-11.083c4.875-3.077,10.513-4.702,16.305-4.702c16.873,0,30.601,13.727,30.601,30.601
						c0,2.669-0.343,5.308-1.022,7.866c4.271-3.672,9.661-5.678,15.34-5.678c12.993,0,23.564,10.571,23.564,23.564
						c0,4.558-1.298,8.963-3.756,12.769c7.778,4.458,12.591,12.735,12.591,21.714c0,13.792-11.221,25.013-25.013,25.013
						c-8.224,0-15.827-3.983-20.516-10.701c-1.888,5.819-5.584,11.036-10.478,14.764
						C269.807,467.763,263.469,469.899,256.784,469.899z"/>
				</g>
				<g>
					<path d="M96.891,462.141H67.437c-0.042,0-0.082-0.006-0.12-0.017c-6.837-0.235-13.228-3.068-18.006-7.984
						c-4.813-4.952-7.464-11.484-7.464-18.392c0-7.021,2.727-13.63,7.677-18.608c4.793-4.82,11.125-7.564,17.893-7.77
						c-1.66-3.651-2.502-7.551-2.502-11.603c0-15.487,12.599-28.086,28.086-28.086c3.063,0,6.066,0.489,8.942,1.455
						c-1.21-3.056-1.823-6.281-1.823-9.604c0-14.408,11.722-26.13,26.131-26.13c14.408,0,26.13,11.722,26.13,26.13
						c0,2.326-0.305,4.625-0.909,6.852c4.614-3.363,10.233-5.201,15.965-5.201c14.946,0,27.106,12.16,27.106,27.106
						c0,4.176-0.969,8.312-2.81,12.029c2.81-0.832,5.726-1.254,8.684-1.254c16.839,0,30.539,13.7,30.539,30.539
						c0,15.424-11.529,28.457-26.817,30.315c-0.233,0.027-0.445-0.138-0.473-0.371c-0.028-0.233,0.138-0.445,0.371-0.473
						c14.862-1.806,26.07-14.476,26.07-29.471c0-16.371-13.318-29.689-29.689-29.689c-3.212,0-6.374,0.511-9.398,1.52
						c-0.165,0.055-0.348,0.004-0.46-0.13c-0.112-0.134-0.131-0.323-0.048-0.476c2.082-3.823,3.182-8.159,3.182-12.539
						c0-14.477-11.778-26.256-26.256-26.256c-5.981,0-11.834,2.066-16.481,5.818c-0.146,0.118-0.353,0.126-0.508,0.019
						c-0.155-0.107-0.221-0.303-0.163-0.482c0.827-2.531,1.246-5.175,1.246-7.856c0-13.94-11.341-25.28-25.28-25.28
						c-13.94,0-25.28,11.341-25.28,25.28c0,3.529,0.715,6.945,2.124,10.154c0.069,0.156,0.037,0.339-0.08,0.463
						c-0.118,0.124-0.298,0.166-0.458,0.106c-3.055-1.144-6.269-1.725-9.555-1.725c-15.018,0-27.236,12.218-27.236,27.236
						c0,4.146,0.908,8.126,2.697,11.832c0.063,0.131,0.055,0.286-0.022,0.41c-0.077,0.124-0.212,0.199-0.358,0.2
						c-6.79,0.041-13.167,2.716-17.956,7.531c-4.791,4.818-7.43,11.214-7.43,18.009c0,6.685,2.565,13.006,7.223,17.799
						c4.648,4.783,10.874,7.528,17.529,7.73c0.032,0.001,0.064,0.006,0.094,0.013h29.347c0.235,0,0.425,0.19,0.425,0.425
						C97.316,461.951,97.126,462.141,96.891,462.141z"/>
				</g>
				<g>
					<path d="M147.91,484.505c-4.855,0-9.57-1.38-13.637-3.992c-3.829-2.459-6.917-5.89-8.953-9.942
						c-3.19,1.838-6.819,2.808-10.523,2.808c-11.635,0-21.101-9.466-21.101-21.101c0-4.843,1.682-9.573,4.737-13.32
						c2.886-3.539,6.871-6.065,11.273-7.158c-1.504-2.576-2.296-5.501-2.296-8.497c0-9.311,7.575-16.886,16.886-16.886
						c1.383,0,2.763,0.171,4.111,0.509c0.864-11.272,10.273-20.027,21.646-20.027c11.972,0,21.712,9.74,21.712,21.712
						c0,3.253-0.735,6.475-2.135,9.392c1.75-0.715,3.601-1.076,5.518-1.076c7.153,0,13.329,5.264,14.479,12.29
						c10,2.937,16.96,12.221,16.96,22.675c0,13.03-10.6,23.63-23.63,23.63c-4.659,0-9.149-1.349-13.014-3.905
						C165.462,479.579,157.063,484.505,147.91,484.505z M125.499,469.547c0.041,0,0.082,0.006,0.121,0.018
						c0.115,0.034,0.21,0.115,0.262,0.224c1.963,4.091,5.024,7.552,8.851,10.01c3.929,2.523,8.486,3.857,13.177,3.857
						c8.996,0,17.239-4.925,21.511-12.853c0.057-0.106,0.157-0.183,0.275-0.211c0.118-0.028,0.241-0.005,0.341,0.063
						c3.81,2.629,8.277,4.018,12.921,4.018c12.561,0,22.78-10.219,22.78-22.78c0-10.166-6.828-19.185-16.603-21.932
						c-0.162-0.046-0.282-0.182-0.306-0.349c-0.973-6.746-6.854-11.833-13.68-11.833c-2.201,0-4.31,0.506-6.267,1.504
						c-0.167,0.085-0.369,0.051-0.499-0.083c-0.13-0.134-0.157-0.338-0.066-0.501c1.7-3.072,2.599-6.56,2.599-10.085
						c0-11.503-9.358-20.862-20.862-20.862c-11.096,0-20.246,8.672-20.831,19.743c-0.007,0.129-0.072,0.248-0.177,0.323
						c-0.105,0.075-0.239,0.098-0.363,0.063c-1.432-0.406-2.907-0.612-4.385-0.612c-8.842,0-16.036,7.194-16.036,16.036
						c0,3.034,0.855,5.991,2.472,8.551c0.074,0.117,0.086,0.263,0.033,0.391c-0.053,0.128-0.166,0.222-0.301,0.251
						c-4.443,0.969-8.482,3.454-11.373,6.999c-2.931,3.595-4.546,8.135-4.546,12.783c0,11.167,9.084,20.251,20.251,20.251
						c3.705,0,7.329-1.01,10.482-2.921C125.346,469.568,125.422,469.547,125.499,469.547z"/>
				</g>
				<g>
					<g>
						<path d="M139.464,417.322c-0.166,0-0.323-0.098-0.392-0.26c-2.517-5.95-8.317-9.794-14.776-9.794
							c-0.235,0-0.425-0.19-0.425-0.425c0-0.235,0.19-0.425,0.425-0.425c6.802,0,12.909,4.048,15.559,10.313
							c0.091,0.216-0.01,0.466-0.226,0.557C139.576,417.31,139.52,417.322,139.464,417.322z"/>
					</g>
					<g>
						<path d="M186.04,441.216c-0.097,0-0.194-0.033-0.274-0.1c-0.179-0.151-0.202-0.42-0.051-0.599
							c2.1-2.487,3.257-5.653,3.257-8.914c0-0.938-0.094-1.876-0.281-2.787c-0.047-0.23,0.101-0.454,0.331-0.501
							c0.229-0.048,0.454,0.101,0.501,0.331c0.198,0.967,0.298,1.961,0.298,2.957c0,3.461-1.228,6.822-3.458,9.463
							C186.281,441.164,186.161,441.216,186.04,441.216z"/>
					</g>
					<g>
						<path d="M125.171,434.815c-0.072,0-0.146-0.018-0.213-0.057c-3.073-1.786-6.587-2.73-10.162-2.73
							c-1.461,0-2.919,0.156-4.334,0.465c-0.229,0.05-0.456-0.095-0.506-0.325c-0.05-0.229,0.095-0.456,0.325-0.506
							c1.474-0.321,2.993-0.484,4.515-0.484c3.725,0,7.387,0.984,10.589,2.845c0.203,0.118,0.272,0.378,0.154,0.581
							C125.46,434.739,125.318,434.815,125.171,434.815z"/>
					</g>
					<g>
						<path d="M125.499,470.397c-0.158,0-0.31-0.089-0.383-0.241c-1.642-3.422-2.475-7.097-2.475-10.921
							c0-0.235,0.19-0.425,0.425-0.425c0.235,0,0.425,0.19,0.425,0.425c0,3.696,0.805,7.246,2.391,10.553
							c0.102,0.212,0.012,0.466-0.199,0.567C125.623,470.384,125.561,470.397,125.499,470.397z"/>
					</g>
				</g>
				<g>
					<g>
						<path d="M144.218,377.562c-0.071,0-0.143-0.018-0.209-0.055c-0.204-0.116-0.276-0.375-0.16-0.58
							c1.691-2.979,3.903-5.583,6.573-7.74c0.183-0.148,0.45-0.119,0.598,0.064c0.148,0.183,0.119,0.45-0.064,0.598
							c-2.588,2.089-4.73,4.612-6.368,7.498C144.51,377.485,144.366,377.562,144.218,377.562z"/>
					</g>
					<g>
						<path d="M183.276,407.266c-0.135,0-0.267-0.064-0.35-0.183c-0.134-0.193-0.086-0.458,0.107-0.591
							c2.382-1.652,4.978-2.953,7.717-3.866c0.223-0.074,0.464,0.046,0.538,0.269c0.074,0.223-0.046,0.463-0.269,0.538
							c-2.663,0.888-5.187,2.152-7.502,3.758C183.443,407.241,183.359,407.266,183.276,407.266z"/>
					</g>
					<g>
						<path d="M117.987,386.303c-0.159,0-0.311-0.089-0.384-0.242c-3.379-7.088-9.637-12.375-17.171-14.506
							c-0.226-0.064-0.357-0.299-0.293-0.525c0.064-0.226,0.299-0.356,0.525-0.293c7.769,2.198,14.223,7.65,17.707,14.958
							c0.101,0.212,0.011,0.466-0.201,0.567C118.11,386.29,118.048,386.303,117.987,386.303z"/>
					</g>
					<g>
						<path d="M79.391,412.715c-0.061,0-0.124-0.013-0.182-0.041c-3.439-1.638-7.129-2.468-10.968-2.468
							c-0.235,0-0.425-0.19-0.425-0.425c0-0.235,0.19-0.425,0.425-0.425c3.966,0,7.779,0.858,11.333,2.551
							c0.212,0.101,0.302,0.354,0.201,0.567C79.702,412.626,79.55,412.715,79.391,412.715z"/>
					</g>
				</g>
				<g>
					<g>
						<path d="M64.191,350.017c-0.109,0-0.217-0.042-0.3-0.125c-1.787-1.787-3.806-3.322-6-4.561
							c-0.204-0.115-0.276-0.375-0.161-0.579c0.116-0.204,0.375-0.276,0.579-0.161c2.261,1.278,4.341,2.859,6.183,4.701
							c0.166,0.166,0.166,0.435,0,0.601C64.409,349.975,64.3,350.017,64.191,350.017z"/>
					</g>
					<g>
						<path d="M226.42,372.406c-0.028,0-0.057-0.003-0.086-0.009c-0.23-0.047-0.378-0.271-0.331-0.502
							c0.439-2.144,0.661-4.351,0.661-6.559c0-2.208-0.222-4.415-0.661-6.559c-0.047-0.23,0.101-0.455,0.331-0.502
							c0.231-0.049,0.455,0.101,0.502,0.331c0.45,2.2,0.678,4.464,0.678,6.73c0,2.266-0.228,4.53-0.678,6.73
							C226.794,372.267,226.617,372.406,226.42,372.406z"/>
					</g>
					<g>
						<path d="M226.419,359.117c-0.198,0-0.375-0.139-0.416-0.34c-1.48-7.236-5.452-13.825-11.182-18.554
							c-5.807-4.792-13.159-7.431-20.701-7.431c-0.235,0-0.425-0.19-0.425-0.425c0-0.235,0.19-0.425,0.425-0.425
							c7.74,0,15.284,2.708,21.242,7.626c5.88,4.852,9.955,11.614,11.474,19.039c0.047,0.23-0.101,0.455-0.331,0.502
							C226.476,359.114,226.447,359.117,226.419,359.117z"/>
					</g>
					<g>
						<path d="M162.416,356.679c-0.039,0-0.078-0.005-0.117-0.017c-0.226-0.065-0.356-0.3-0.292-0.525
							c1.955-6.835,6.157-12.992,11.834-17.336c5.863-4.487,12.875-6.859,20.278-6.859c0.235,0,0.425,0.19,0.425,0.425
							c0,0.235-0.19,0.425-0.425,0.425c-7.214,0-14.048,2.311-19.761,6.684c-5.533,4.234-9.629,10.234-11.533,16.895
							C162.771,356.557,162.601,356.679,162.416,356.679z"/>
					</g>
					<g>
						<path d="M317.805,413.443c-0.068,0-0.138-0.016-0.202-0.051c-3.507-1.901-7.483-2.906-11.499-2.906
							c-1.641,0-3.279,0.165-4.87,0.491c-0.231,0.048-0.455-0.101-0.502-0.331c-0.047-0.23,0.101-0.455,0.331-0.502
							c1.647-0.337,3.343-0.508,5.04-0.508c4.157,0,8.273,1.04,11.904,3.009c0.206,0.112,0.283,0.37,0.171,0.576
							C318.102,413.362,317.956,413.443,317.805,413.443z"/>
					</g>
				</g>
			</g>
		</g>
	</g>
</g>
</svg>
