<?xml version="1.0" encoding="utf-8"?>
<!-- Generator: Adobe Illustrator 27.5.0, SVG Export Plug-In . SVG Version: 6.00 Build 0)  -->
<svg version="1.1" xmlns="http://www.w3.org/2000/svg" xmlns:xlink="http://www.w3.org/1999/xlink" x="0px" y="0px"
	 viewBox="0 0 500 500" style="enable-background:new 0 0 500 500;" xml:space="preserve">
<g id="BACKGROUND">
	<rect style="fill:#FFFFFF;" width="500" height="500"/>
</g>
<g id="OBJECTS">
	<g>
		<g>
			<path style="fill:#FFFFFF;stroke:#000000;stroke-width:3;stroke-miterlimit:10;" d="M192.47,302.12
				c-14.06-2.52-26.77-11.74-33.53-24.33c-9.14-17.02-7.22-37.92-14.11-55.96c-6.46-16.93-20.97-30.58-38.26-36.01
				c-17.29-5.43-37-2.51-51.97,7.7c-7.36,5.02-14.1,13.57-11.55,22.11c2.55,8.55,13.14,12.04,22.02,11.1
				c8.88-0.95,17.23-4.91,26.12-5.76c15.9-1.51,32.22,8.29,38.37,23.03c5.04,12.1,3.5,25.97,7.12,38.57
				c5.42,18.82,23.3,33.36,42.83,34.83C183.08,312.72,186.66,308.06,192.47,302.12z"/>
			<g>
				<g>
					<path style="fill:#FFFFFF;stroke:#000000;stroke-width:3;stroke-linecap:round;stroke-miterlimit:10;" d="M331.61,321.95
						c3.82,25.87,11.18,64.44,14.99,90.3c0.59,4.02,1.18,8.16,0.21,12.08c-0.97,3.92-3.91,7.6-7.85,8.09
						c-5.7,0.7-10.03-5.04-12.93-10.14c-11.94-20.96-22.06-42.98-30.22-65.71"/>
					<path style="fill:none;stroke:#000000;stroke-width:3;stroke-linecap:round;stroke-miterlimit:10;" d="M340.29,431.43
						c0.67-2.99-0.36-6.31-2.62-8.39"/>
					<path style="fill:none;stroke:#000000;stroke-width:3;stroke-linecap:round;stroke-miterlimit:10;" d="M345.42,426.81
						c-0.15-2.97-1.75-5.82-4.2-7.5"/>
				</g>
				<g>
					<path style="fill:#FFFFFF;stroke:#000000;stroke-width:3;stroke-linecap:round;stroke-miterlimit:10;" d="M219.86,296.87
						c-28.76,14.04-28.28,53.49-16.57,81.64c-21.56,5.75,13.96,65.94,28.35,62.1c18.93-5.05-1.28-31.77-0.27-43.7
						c17.82-4.91,31.63-21.88,32.8-40.33"/>
					<path style="fill:none;stroke:#000000;stroke-width:3;stroke-linecap:round;stroke-miterlimit:10;" d="M231.55,440.61
						c1.38-2.79,0.67-6.47-1.65-8.55"/>
					<path style="fill:none;stroke:#000000;stroke-width:3;stroke-linecap:round;stroke-miterlimit:10;" d="M237.31,436.72
						c0.8-3.2-0.42-6.82-2.99-8.89"/>
				</g>
				<path style="fill:#FFFFFF;stroke:#000000;stroke-width:3;stroke-miterlimit:10;" d="M285.28,260.89
					c-48.54,48.23-100.87,17.38-112.14,51.57c-25.97,78.78,104.5,77.86,148.65,38.79c21.52-19.05,18.32-51.77,0.25-71.81
					C309,276.3,296.34,271.62,285.28,260.89z"/>
				<g>
					<path style="fill:#FFFFFF;stroke:#000000;stroke-width:3;stroke-linecap:round;stroke-miterlimit:10;" d="M302.65,346.89
						c-6.25,25.39-12.5,50.78-18.75,76.17c-0.97,3.94-1.99,8-4.39,11.27c-2.4,3.26-6.55,5.56-10.41,4.52
						c-5.59-1.51-7.46-8.46-8.24-14.29c-3.21-23.92-4.31-48.14-3.31-72.28"/>
					<path style="fill:none;stroke:#000000;stroke-width:3;stroke-linecap:round;stroke-miterlimit:10;" d="M267.13,438.37
						c1.55-3.13,2.32-6.65,2.22-10.14"/>
					<path style="fill:none;stroke:#000000;stroke-width:3;stroke-linecap:round;stroke-miterlimit:10;" d="M273.7,438.36
						c1.55-2.8,2.28-6.05,2.06-9.24"/>
				</g>
				<g>
					<path style="fill:#FFFFFF;stroke:#000000;stroke-width:3;stroke-linecap:round;stroke-miterlimit:10;" d="M198.63,294.31
						c-14.21,1.24-26.65,10.79-34.7,22.56c-8.05,11.77-12.35,25.65-18.05,41.63c-3.36-1.53-7.47-0.08-10.11,2.5
						c-2.63,2.59-4.11,6.1-5.52,9.51c-6.71,16.2-13.45,32.51-17.16,49.65c-1.28,5.91-1.52,13.44,3.7,16.5
						c3.23,1.89,7.48,1.12,10.62-0.93c3.14-2.05,5.39-5.15,7.58-8.19c7.85-10.92,15.7-21.83,26.27-34.39
						c13.21-2.39,26.69-4.86,38.47-11.3s21.79-17.66,23.2-31.01"/>
					<path style="fill:none;stroke:#000000;stroke-width:3;stroke-linecap:round;stroke-miterlimit:10;" d="M114.48,434.51
						c3.06-1.32,5.25-4.46,5.41-7.79"/>
					<path style="fill:none;stroke:#000000;stroke-width:3;stroke-linecap:round;stroke-miterlimit:10;" d="M119.58,437.29
						c3.68-1.35,6.34-5.11,6.38-9.03"/>
				</g>
			</g>
			<g>
				<path style="fill:#FFFFFF;stroke:#000000;stroke-width:3;stroke-miterlimit:10;" d="M411.45,199.92c0.86,4.34,1.39,8.68,1.56,13
					c2.12,53.96-52.5,83.53-118.53,86.13c-66.02,2.6-118.44-22.75-120.56-76.71c-0.18-4.67,0.01-9.4,0.59-14.16c0,0,0,0,0-0.01
					c-20.89-37.24-28.71-80.38-21.16-120.86c34.7-1.46,68.74,6.96,97.9,23.8c11.07-4.33,22.99-6.97,35.54-7.47
					c13.62-0.54,26.91,1.51,39.44,5.55c28.06-19.75,61.95-31.23,97.32-32.52C434.37,116.81,429.77,160.88,411.45,199.92z"/>
				<g>
					<path style="fill:none;stroke:#000000;stroke-width:3;stroke-miterlimit:10;" d="M201.76,152.05
						c-14.57,13.4-17.28,25.54-21.84,42.86c-16.54-26.76-24.24-65.55-21.1-96.84c9.17,3.47,15.03,11.22,21.47,19.92
						c-2.53,1.05-4.46,2.55-5.21,4.87c-0.9,2.81,0.39,5.95,2.46,8.06c2.06,2.11,4.8,3.4,7.49,4.64c-2.28,1.03-2.95,4.16-2,6.48
						c0.95,2.3,3.07,3.91,5.22,5.18C192.4,149.67,197.01,151.3,201.76,152.05z"/>
					<path style="fill:none;stroke:#000000;stroke-width:3;stroke-miterlimit:10;" d="M378.51,145.09
						c15.58,12.21,19.23,24.11,25.14,41.01c14.38-27.98,19.01-67.25,13.42-98.2c-8.87,4.18-14.1,12.36-19.84,21.55
						c2.6,0.85,4.65,2.19,5.58,4.45c1.11,2.73,0.08,5.97-1.82,8.23c-1.89,2.26-4.52,3.76-7.1,5.21c2.35,0.85,3.27,3.92,2.5,6.3
						c-0.77,2.37-2.76,4.14-4.8,5.58C387.66,141.98,383.19,143.97,378.51,145.09z"/>
				</g>
				<g>
					<g>
						<ellipse transform="matrix(0.9856 -0.169 0.169 0.9856 -37.4118 43.0217)" cx="234.023" cy="241.285" rx="10.38" ry="14.75"/>
						<path style="fill:#FFFFFF;" d="M235.542,229.918c2.95-0.506,5.772,1.595,6.303,4.693c0.531,3.097-1.431,6.018-4.381,6.523
							c-2.95,0.505-5.772-1.595-6.303-4.693C230.63,233.344,232.592,230.424,235.542,229.918z"/>
					</g>
					<g>
						<path d="M344.926,236.28c0.193-8.144,4.996-14.635,10.727-14.499c5.731,0.136,10.22,6.848,10.027,14.992
							c-0.193,8.144-4.996,14.635-10.726,14.5C349.222,251.136,344.733,244.424,344.926,236.28z"/>
						<path style="fill:#FFFFFF;" d="M352.97,230.607c0.075-3.141,2.561-5.63,5.554-5.559c2.992,0.071,5.358,2.676,5.283,5.817
							c-0.075,3.142-2.561,5.631-5.554,5.559C355.26,236.353,352.895,233.749,352.97,230.607z"/>
					</g>
					<path d="M283.85,254.09c-0.15-3.88,5.59-7.25,12.83-7.54c7.24-0.29,13.23,2.63,13.39,6.51c0.15,3.88-12.83,7.54-12.83,7.54
						S284,257.97,283.85,254.09z"/>
					<path style="fill:none;stroke:#000000;stroke-width:3;stroke-linecap:round;stroke-linejoin:round;stroke-miterlimit:10;" d="
						M320.49,261.14c3.13,11.77-12.92,16.36-20.71,9.55c-0.3-0.26-0.67-0.41-1.06-0.39l0,0c-0.39,0.02-0.76,0.19-1.03,0.47
						c-7.23,7.4-23.59,4.09-21.4-7.89"/>
				</g>
				<g>
					<g>
						<g>
							<path d="M407.94,217.66c23.88-7.35,49.63-7.93,73.56-1.82c-24.16-5.14-49.59-3.46-72.62,4.66c-0.78,0.28-1.64-0.13-1.91-0.92
								c-0.27-0.79,0.13-1.64,0.92-1.91C407.9,217.68,407.92,217.67,407.94,217.66z"/>
						</g>
						<g>
							<path d="M407.21,238.3c23.66,0.81,46.89,8.28,66.39,21.2c-20.03-12.07-43.32-18.4-66.42-18.2c-0.83,0.01-1.51-0.66-1.51-1.49
								c-0.01-0.83,0.66-1.51,1.49-1.51C407.17,238.3,407.19,238.3,407.21,238.3z"/>
						</g>
						<g>
							<path d="M398.85,252.25c20.24,4.5,38.27,17.12,49.32,34.18c-11.88-16.5-30.26-27.89-49.9-31.24
								c-0.82-0.14-1.37-0.91-1.23-1.73c0.14-0.82,0.91-1.37,1.73-1.23C398.8,252.24,398.83,252.24,398.85,252.25z"/>
						</g>
					</g>
					<g>
						<g>
							<path d="M178.54,231.44c-23.9-7.66-49.94-9.01-74.75-3.76c24.59-6.22,50.92-5.96,75.61,0.89c0.8,0.22,1.27,1.05,1.05,1.85
								s-1.05,1.27-1.85,1.05C178.58,231.45,178.55,231.45,178.54,231.44z"/>
						</g>
						<g>
							<path d="M182.81,250.73c-27.43,0.98-54.57,12.5-74.52,31.91c19.24-20.11,46.21-32.88,74.36-34.91
								c0.83-0.06,1.54,0.56,1.6,1.39s-0.56,1.54-1.39,1.6C182.84,250.73,182.82,250.73,182.81,250.73z"/>
						</g>
						<g>
							<path d="M195,268.8c-19.86,8.91-36.79,24.68-47.15,44.21c9.47-19.98,25.81-36.81,45.86-46.92c0.74-0.37,1.64-0.08,2.02,0.66
								c0.37,0.74,0.08,1.64-0.66,2.02C195.05,268.78,195.02,268.79,195,268.8z"/>
						</g>
					</g>
				</g>
			</g>
		</g>
		<g>
			<g>
				<path style="fill:#FFFFFF;stroke:#000000;stroke-width:3;stroke-miterlimit:10;" d="M82.303,103.499
					c6.484-6.198,15.257-7.542,19.596-3.003c4.339,4.539,2.601,13.244-3.883,19.441c-6.484,6.198-15.257,7.542-19.596,3.003
					C74.08,118.4,75.819,109.696,82.303,103.499z"/>
				<path style="fill:#FFFFFF;stroke:#000000;stroke-width:3;stroke-miterlimit:10;" d="M64.122,107.036
					c1.295-2.102,3.892-2.852,5.801-1.676c1.909,1.176,2.406,3.834,1.111,5.935c-1.295,2.102-3.892,2.852-5.801,1.675
					C63.325,111.795,62.827,109.137,64.122,107.036z"/>
				<path style="fill:#FFFFFF;stroke:#000000;stroke-width:3;stroke-miterlimit:10;" d="M72.012,94.23
					c1.295-2.102,3.892-2.852,5.801-1.675c1.909,1.176,2.406,3.834,1.111,5.935c-1.295,2.102-3.892,2.852-5.801,1.675
					C71.215,98.989,70.717,96.332,72.012,94.23z"/>
				<path style="fill:#FFFFFF;stroke:#000000;stroke-width:3;stroke-miterlimit:10;" d="M85.209,86.878
					c1.295-2.102,3.892-2.852,5.801-1.675c1.909,1.176,2.406,3.834,1.111,5.935c-1.295,2.102-3.892,2.852-5.801,1.675
					C84.411,91.636,83.913,88.979,85.209,86.878z"/>
			</g>
			<g>
				<path style="fill:#FFFFFF;stroke:#000000;stroke-width:3;stroke-miterlimit:10;" d="M64.847,332.467
					c1.224-6.159,9.347-9.735,18.144-7.987c8.797,1.748,14.936,8.158,13.712,14.317c-1.224,6.159-9.347,9.735-18.144,7.987
					C69.762,345.036,63.623,338.626,64.847,332.467z"/>
				<path style="fill:#FFFFFF;stroke:#000000;stroke-width:3;stroke-miterlimit:10;" d="M69.666,311.628
					c2.464-0.147,4.57,1.548,4.703,3.787c0.133,2.238-1.756,4.172-4.22,4.319c-2.464,0.147-4.57-1.548-4.703-3.787
					C65.312,313.709,67.201,311.775,69.666,311.628z"/>
				
					<ellipse transform="matrix(0.9982 -0.0596 0.0596 0.9982 -18.5965 5.6165)" style="fill:#FFFFFF;stroke:#000000;stroke-width:3;stroke-miterlimit:10;" cx="84.927" cy="314.791" rx="4.47" ry="4.06"/>
				<path style="fill:#FFFFFF;stroke:#000000;stroke-width:3;stroke-miterlimit:10;" d="M98.275,317.319
					c2.464-0.147,4.57,1.548,4.703,3.787c0.133,2.238-1.756,4.172-4.22,4.319c-2.464,0.147-4.57-1.548-4.703-3.787
					C93.921,319.399,95.811,317.465,98.275,317.319z"/>
			</g>
			<g>
				<path style="fill:#FFFFFF;stroke:#000000;stroke-width:3;stroke-miterlimit:10;" d="M410,360.258
					c6.662-6.005,15.471-7.091,19.675-2.427s2.211,13.314-4.451,19.318s-15.471,7.091-19.675,2.427S403.338,366.263,410,360.258z"/>
				<path style="fill:#FFFFFF;stroke:#000000;stroke-width:3;stroke-miterlimit:10;" d="M391.734,363.26
					c1.356-2.063,3.974-2.737,5.848-1.505c1.874,1.232,2.293,3.902,0.937,5.965c-1.356,2.063-3.974,2.737-5.848,1.505
					C390.798,367.993,390.378,365.323,391.734,363.26z"/>
				<path style="fill:#FFFFFF;stroke:#000000;stroke-width:3;stroke-miterlimit:10;" d="M399.996,350.678
					c1.356-2.063,3.974-2.737,5.848-1.505c1.874,1.232,2.293,3.902,0.937,5.965c-1.356,2.063-3.974,2.737-5.848,1.505
					C399.059,355.412,398.64,352.741,399.996,350.678z"/>
				<path style="fill:#FFFFFF;stroke:#000000;stroke-width:3;stroke-miterlimit:10;" d="M413.398,343.722
					c1.356-2.063,3.974-2.737,5.848-1.505c1.874,1.232,2.293,3.902,0.937,5.965c-1.356,2.063-3.974,2.737-5.848,1.505
					C412.462,348.456,412.042,345.785,413.398,343.722z"/>
			</g>
			<g>
				<path style="fill:#FFFFFF;stroke:#000000;stroke-width:3;stroke-miterlimit:10;" d="M295.576,52.719
					c3.565-5.17,12.441-5.233,19.825-0.141c7.384,5.092,10.48,13.41,6.916,18.58c-3.565,5.17-12.441,5.233-19.825,0.142
					C295.107,66.208,292.011,57.889,295.576,52.719z"/>
				<path style="fill:#FFFFFF;stroke:#000000;stroke-width:3;stroke-miterlimit:10;" d="M302.651,37.789
					c0.765-2.108,3.266-3.134,5.587-2.293c2.321,0.842,3.582,3.233,2.818,5.341c-0.765,2.108-3.266,3.134-5.587,2.293
					C303.148,42.289,301.887,39.897,302.651,37.789z"/>
				<path style="fill:#FFFFFF;stroke:#000000;stroke-width:3;stroke-miterlimit:10;" d="M316.793,42.923
					c0.765-2.108,3.266-3.134,5.587-2.293c2.321,0.842,3.582,3.233,2.818,5.341c-0.765,2.108-3.266,3.134-5.587,2.293
					C317.29,47.422,316.029,45.031,316.793,42.923z"/>
				<path style="fill:#FFFFFF;stroke:#000000;stroke-width:3;stroke-miterlimit:10;" d="M326.666,54.355
					c0.765-2.108,3.266-3.134,5.587-2.292s3.582,3.233,2.818,5.341c-0.765,2.108-3.266,3.134-5.587,2.293
					C327.163,58.854,325.901,56.463,326.666,54.355z"/>
			</g>
		</g>
	</g>
</g>
</svg>
