<?xml version="1.0" encoding="utf-8"?>
<!-- Generator: Adobe Illustrator 27.5.0, SVG Export Plug-In . SVG Version: 6.00 Build 0)  -->
<svg xmlns="http://www.w3.org/2000/svg" xmlns:xlink="http://www.w3.org/1999/xlink" viewBox="0 0 4000 4000" width="595" height="842" preserveAspectRatio="xMidYMid meet" data-scaled="true">
<rect style="fill:#FFFFFF;" width="4000" height="4000"/>
<g>
	<g>
		<path d="M906.25,3.906c-6.491,50.895-13.125,101.773-19.418,152.693c-3.671,29.705-7.278,59.436-9.921,89.243
			c-1.011,11.406,1.043,23.056,1.127,34.599c0.056,7.683,1.394,16.513-1.768,22.88c-26.873,54.117-33.346,113.548-43.235,171.571
			c-39.889,234.056-77.899,468.433-115.998,702.791c-5.105,31.405-8.067,63.32-9.341,95.106c-0.499,12.44,6.741,25.092,9.75,37.815
			c1.372,5.799,3.835,14.451,1.041,17.653c-35.175,40.298-39.613,91.102-48.371,140.115
			c-18.296,102.385-35.386,204.984-53.646,311.429c69.937-66.647,148.393-109.303,238.718-130.315
			c-70.384,65.391-132.873,142.848-240.496,155.032c0.139-0.521-0.862,1.852-1.061,4.29c-0.312,3.821-0.083,7.686-0.083,15.449
			c17.844,4.582,35.919,10.694,54.498,13.737c78.276,12.823,146.94,46.844,210.306,93.086c7.354,5.367,14.693,10.76,22.163,15.962
			c1.456,1.013,3.492,1.192,6.734,2.225c35.495-123.225,71.138-246.047,132.89-362.953c-23.439-13.125-46.034-28.421-70.659-38.987
			c-43.557-18.689-88.602-33.878-132.511-51.791c-20.332-8.294-40.842-17.541-58.803-29.933
			c-26.652-18.388-34.353-46.695-22.064-67.389c16.647-28.032,52.816-42.664,80.289-30.901c22.007,9.422,43.115,20.945,64.509,31.48
			c18.857-27.053,25.709-29.741,57.07-21.368c21.167,5.651,42.165,11.938,69.161,19.627c-42.492-48.9-67.191-101.435-82.9-157.06
			c-11.718-41.493-15.01-85.374-21.822-128.228c-0.702-4.418-1.057-9.598,0.566-13.545c4.897-11.908,10.849-23.382,16.39-35.025
			c10.073,6.024,22.042,10.214,29.921,18.359c70.184,72.556,122.609,155.096,137.863,257.033c3.056,20.421,3.93,41.696,1.895,62.188
			c-1.715,17.273,4.16,24.934,18.617,32.884c27.582,15.168,53.731,23.417,87.428,21.969c74.707-3.211,145.028,17.495,200.809,70.473
			c19.617,18.631,39.2,36.225,60.831,52.546c17.884,13.493,30.08,34.525,47.45,55.406c28.459-5.698,60.233-17.985,88.512-38.3
			c43.826-31.483,79.205-71.141,110.267-115.038c6.896-9.746,3.837-15.146-2.299-23.485c-20.749-28.197-40.274-57.294-60.285-86.035
			c-1.83-2.629-3.249-6.556-5.771-7.539c-41.023-15.986-44.229-54.436-53.031-89.3c-2.994-11.86-3.788-24.276-5.553-36.21
			c-36.236-6.676-39.47-10.943-30.072-48.095c5.401-21.352,13.241-42.116,20.563-62.942c4.632-13.177,13.997-23.992,1.48-39.873
			c-9.1-11.547,4.226-42.332,17.965-50.848c10.43-6.465,21.189-12.398,31.893-18.621c-17.101-20.902-15.899-26.666,7.812-40.198
			c2.824-1.612,5.505-3.663,8.529-4.709c80.024-27.688,101.354-97.751,122.405-168.41c-34.062-3.662-70.704-37.894-79.027-72.54
			c-1.216-5.063-4.45-10.669-8.466-13.867c-31.079-24.749-39.438-59.578-23.431-95.66c2.931-6.607,3.479-15.442,2-22.602
			c-3.611-17.479,8.111-40.727,27.859-49.195c0-9.479,1.037-19.86-0.183-29.969c-4.844-40.14,19.395-62.014,49.102-81.158
			c7.704-4.965,13.526-12.875,21.273-17.743c9.666-6.073,19.963-12.794,30.83-14.911c15.788-3.077,32.393-1.697,48.522-3.41
			c7.639-0.811,14.883-4.829,22.492-6.589c7.951-1.839,16.417-4.77,24.157-3.678c57.314,8.087,102.533,39.707,143.51,77.735
			c12.533,11.631,20.957,12.363,36.581,5.538c46.3-20.224,93.894-37.486,143.758-56.991c0-6.954-0.689-19.175,0.151-31.29
			c1.506-21.731,15.4-29.135,34.844-19.085c5.77,2.982,11.345,6.374,16.849,9.833c5.461,3.433,10.72,7.188,15.589,10.478
			c19.75-13.714,38.273-28.092,58.299-39.93c12.637-7.471,27.359-14.819,41.439-15.427c12.531-0.542,29.28,5.001,36.99,14.005
			c5.919,6.912,0.95,23.404,0.184,35.596c-0.183,2.908-2.919,5.655-4.626,8.739c51.109-3.117,52.532-2.425,49.806,19.209
			c67.342,21.455,133.905,42.661,201.212,64.105c8.905-17.867,18.24-39.251,29.865-59.307
			c18.163-31.336,40.723-59.167,74.411-75.177c21.028-9.993,29.664-6.942,39.821,11.489c17.799-7.532,35.423-15.605,53.512-22.445
			c13.719-5.187,26.529-4.692,36.405,9.215c2.469,3.478,9.192,5.002,14.123,5.397c6.381,0.511,12.911-1.266,19.401-1.614
			c27.39-1.47,30.033,0.981,30.853,29.28c15.24,0.679,30.716,0.474,45.963,2.244c27.222,3.161,35.384,13.387,37.696,40.463
			c0.562,6.577,5.287,16.209,10.591,18.401c28.493,11.772,36.051,22.268,29.798,53.86c-2.616,13.218,0.682,19.522,11.307,26.745
			c29.704,20.193,32.632,36.459,13.921,67.403c-7.015,11.601-14.817,22.727-22.245,34.045c26.269,27.487,25.234,40.969-5.999,63.645
			c-10.42,7.565-22.165,13.304-34.561,20.619c8.039,21.92-6.308,31.619-24.676,36.802c-23.602,6.66-47.715,11.505-72.689,17.387
			c0.143,0.913-0.124,3.665,0.982,5.654c38.544,69.32,75.899,139.356,116.545,207.425c15.454,25.881,39.12,46.751,57.792,70.874
			c6.762,8.736,12.469,19.941,13.954,30.671c1.665,12.033-7.768,17.436-33.589,23.292c4.226,6.868,9.015,12.764,11.773,19.493
			c7.688,18.755,16.061,37.706-4.027,55.014c-2.969,2.559-2.933,9.426-3.048,14.329c-0.38,16.26,0.372,32.558-0.353,48.795
			c-1.176,26.341-4.033,29.331-29.315,35.293c2.851,81.791,76.282,191.637,183.455,274.219c0-15.529,0.574-30.881-0.434-46.128
			c-0.23-3.486-5.368-7.739-9.23-9.625c-5.135-2.509-12.081-1.74-16.708-4.749c-6.082-3.955-14.2-9.812-14.862-15.602
			c-0.618-5.411,6.367-15.722,11.731-17.085c22.948-5.83,22.055-19.911,20.28-39.338c-20.603-225.524-40.065-451.151-60.316-676.708
			c-1.426-15.885-6.857-31.392-10.096-47.142c-1.302-6.335-2.084-12.831-2.478-19.292c-5.418-88.894-9.438-177.894-16.376-266.668
			c-9.685-123.914-21.556-247.656-32.384-371.481c-0.621-7.098-0.277-14.28-0.382-21.423c5.208,0,10.417,0,15.625,0
			c0.132,7.101-0.168,14.241,0.459,21.299c14.402,162.051,29.039,324.081,43.3,486.144c3.845,43.693,6.605,87.481,9.754,129.756
			c30.757-3.021,60.92-5.984,94.852-9.318c-18.219-209.449-36.417-418.665-54.615-627.881c5.208,0,10.417,0,15.625,0
			c18.72,209.708,37.44,419.417,56.177,629.311c37.464,3.991,74.436,7.929,113.917,12.134
			c-33.488-28.846-65.215-54.576-94.823-82.549c-10.346-9.775-15.469-25.079-22.977-37.859c17.275-12.437,32.756-1.253,46.977,5.562
			c52.773,25.29,94.558,64.023,128.396,111.345c16.843,23.555,15.667,27.296-12.871,34.515
			c-52.928,13.388-106.307,24.999-159.219,38.45c-17.519,4.453-34.178,12.287-51.23,18.576c0.517,1.118,1.033,2.236,1.55,3.353
			c87.154-5.219,174.307-10.439,258.667-15.491c0-36.854,1.834-77.136-0.54-117.169c-2.173-36.642,0.77-74.504-17.006-109.084
			c-2.122-4.128,0.978-11.037,1.9-16.616c2.825-17.083,8.849-34.269,8.179-51.199c-5.579-141.121-12.382-282.193-18.815-423.281
			c5.208,0,10.417,0,15.625,0c7.771,156.776,15.542,313.552,23.421,472.5c21.45,1.69,47.695,3.759,75.251,5.93
			c-3.322-22.853-8.107-43.118-8.94-63.543c-5.638-138.277-10.441-276.588-15.514-414.887c5.208,0,10.417,0,15.625,0
			c0.54,7.091,1.324,14.172,1.584,21.273c4.663,127.485,8.325,255.019,14.63,382.421c1.337,27.01,12.492,53.497,18.589,80.346
			c1.042,4.587,0.852,10.569-1.267,14.588c-24.887,47.207-11.789,97.545-13.433,147.103c5.011-3.249,7.83-7.201,10.762-11.067
			c3.539-4.664,6.879-9.523,10.813-13.834c39.549-43.345,87.67-68.952,147.293-69.101c12.069-0.03,26.516-1.211,33.083,16.03
			c-55.97,37.423-118.474,64.659-169.724,115.323c72.367,4.655,135.906-18.473,201.484-29.388
			c-49.162,34.601-106.56,41.242-164.014,47.726c0.534,1.734,0.531,2.545,0.926,2.872c2.477,2.049,5.022,4.019,7.583,5.964
			c45.428,34.505,71.067,80.476,77.263,136.834c0.828,7.532-3.762,18.882-9.639,22.873c-4.419,3.001-16.267-1.018-22.447-5.311
			c-14.571-10.121-27.731-22.272-42.037-34.075c0,17.48,2.445,34.76-0.759,50.92c-2.653,13.383-11.969,25.446-18.333,38.094
			c-9.623-9.641-22.033-17.775-28.242-29.261c-10.289-19.033-16.587-40.223-26.206-64.67c-0.802,7.436-1.507,10.441-1.39,13.413
			c3.101,78.696,5.591,157.429,10.013,236.052c0.946,16.815,9.227,33.162,13.548,49.875c1.355,5.241,1.708,11.094,0.991,16.463
			c-5.132,38.449-15.687,76.915-15.16,115.247c1.948,141.867,7.031,283.702,12.145,425.505c0.966,26.797-0.678,54.906,15.526,79.414
			c2.431,3.678-0.113,10.988-1.062,16.497c-3.602,20.911-10.803,41.787-10.701,62.648c0.419,85.914,1.943,171.857,5.132,257.712
			c3.065,82.506,8.704,164.916,13.121,247.373c0.171,3.193-0.566,6.44-0.931,9.655c-2.178,19.165-6.208,38.325-6.238,57.493
			c-0.123,77.462,1.178,154.925,1.573,232.39c0.311,60.965,0.063,121.932,0.063,182.898c3.702-3.705,4.885-7.818,5.326-12.01
			c18.052-171.488,36.978-342.893,53.473-514.531c5.129-53.37,17.431-106.708,8.183-161.028c-0.859-5.05,1.487-12.231,4.927-16.163
			c18.453-21.086,21.135-46.905,23.541-72.933c1.977-21.384,3.568-42.806,5.681-64.176
			c13.892-140.519,26.081-281.241,42.706-421.437c6.818-57.493-5.973-118.146,24.482-172.404c2.067-3.683,1.392-8.92,1.934-13.441
			c23.575-196.814,47.069-393.638,70.771-590.436c5.29-43.925,11.454-87.743,16.97-131.642
			c19.142-152.345,37.982-304.728,57.376-457.041c5.396-42.377,12.31-84.561,18.528-126.833c0,46.875,0,93.75,0,140.625
			c-1.445,6.268-3.44,12.464-4.254,18.813c-19.191,149.716-38.253,299.449-57.346,449.178
			c-5.744,45.043-11.51,90.084-17.424,136.354c18.569,4.336,36.056,8.419,55.524,12.965c1.374-9.834,2.521-18.695,3.861-27.526
			c6.518-42.953,13.088-85.899,19.64-128.847c0,42.969,0,85.938,0,128.906c-6.291,44.292-12.755,88.56-18.84,132.88
			c-19.115,139.225-38.836,278.374-56.519,417.782c-3.798,29.94-0.929,60.888,0.664,91.278c0.74,14.12,2.037,26.824-8.831,38.137
			c-3.649,3.798-5.563,10.291-6.21,15.794c-15.802,134.417-31.364,268.864-46.885,403.314
			c-7.237,62.696-14.303,125.411-21.432,188.119c-0.514,4.526-1.778,9.177-1.218,13.583c9.233,72.641-12.504,142.671-18.762,213.961
			c-15.248,173.713-34.644,347.061-52.369,520.556c-0.595,5.827-0.127,12.042-2.083,17.368c-1.848,5.029-6.243,9.122-9.519,13.627
			c-2.363-5.532-7.037-11.211-6.697-16.571c1.608-25.31,4.491-50.542,7.095-75.783c18.63-180.593,37.303-361.181,55.964-541.771
			c0.736-7.12,1.582-14.23,2.224-21.358c3.649-40.514,3.644-40.595-36.8-46.446c-7.624-1.103-15.38-1.294-23.324-1.926
			c-24.403,234.657-48.677,468.077-73.072,702.652c-10.769,0-20.202,0-33.66,0c0-163.155,0-326.618,0-491.688
			c-25.962,1.7-47.891,3.37-69.849,4.486c-13.173,0.669-11.3,10.206-11.387,18.335c-0.422,39.056-0.696,78.114-0.851,117.171
			c-0.432,108.715-0.781,217.43-1.156,326.145c-0.029,8.33-0.003,16.659-0.003,24.663c-15.919,6.151-16.324-2.459-16.286-12.721
			c0.239-64.448,0.136-128.896,0.351-193.343c0.3-89.836,1.02-179.672,0.834-269.506c-0.02-9.761-5.074-19.455-7.303-29.291
			c-1.067-4.709-1.928-9.812-1.265-14.508c3.435-24.312,10.544-48.536,10.651-72.816c0.652-147.766-0.022-295.541-1.039-443.307
			c-0.085-12.434-6.55-24.713-8.952-37.274c-2.186-11.433-4.859-23.325-3.865-34.713c3.47-39.776,8.434-79.422,12.831-119.118
			c-2.121-0.362-4.242-0.723-6.364-1.085c-12.461,16.66-23.616,34.564-37.87,49.514c-8.621,9.041-22.048,13.5-33.316,20.017
			c-0.951-12.391-5.764-26.056-2.171-36.948c13.99-42.415,30.596-83.969,46.367-125.792c2.257-5.984,5.273-11.682,10.23-22.526
			c-7.245,4.871-10.363,7.299-13.771,9.209c-40.76,22.848-81.378,45.96-122.5,68.139c-8.84,4.768-13.809,8.046-12.983,19.924
			c8.082,116.206,13.768,232.599,23.442,348.663c4.135,49.609,16.209,98.545,24.34,147.842c1.891,11.464,4.31,23.326,3.278,34.714
			c-14.234,157.101-1.384,313.484,11.932,469.841c6.627,77.81,14.185,155.542,21.255,233.314c0.346,3.807,0.045,7.672,0.045,11.925
			c-15.02,7.268-15.993-2.824-16.941-13.142c-6.554-71.287-14.033-142.502-19.526-213.87
			c-10.137-131.693-24.266-263.246-18.114-395.689c1.147-24.699,4.274-49.368,4.198-74.044c-0.071-22.866-3.206-45.723-4.991-68.584
			c-2.091-0.057-4.183-0.114-6.274-0.171c-1.131,3.062-2.924,6.046-3.297,9.198c-13.982,118.236-29.934,236.292-41.035,354.801
			c-8.857,94.545-11.793,189.645-17.33,284.5c-1.934,33.135-3.197,66.326-6.133,99.371c-0.658,7.403-7.501,14.104-10.649,21.49
			c-2.22,5.209-3.543,10.951-4.359,16.587c-18.273,126.25-50.443,248.301-106.312,363.686
			c-14.35,29.637-26.962,60.757-35.293,92.527c-14.991,57.169-49.248,101.537-88.35,142.793
			c-134.33,141.732-296.672,233.188-489.724,267.006c-51.686,9.054-103.708,7.951-153.731-12.458
			c-44.735-18.252-74.36-50.743-93.81-94.279c-3.69-8.259-11.839-17.203-20.035-20.351
			c-72.454-27.829-148.474-39.083-225.426-41.752c-107.325-3.723-214.913-1.567-322.089-7.417
			c-116.88-6.379-233.62-17.124-350.051-29.455c-128.209-13.578-254.686-3.416-380.928,18.263
			c-50.004,8.587-99.941,17.942-150.238,24.369c-128.845,16.463-234.757-27.426-315.777-127.931
			c-99.285-123.162-168.287-260.895-191.153-419.172c-2.687-18.598-2.013-37.659-3.664-56.438
			c-1.727-19.649-3.955-39.279-6.776-58.8c-1.876-12.98-3.687-24.582,12.951-29.846c3.846-1.217,6.185-7.916,8.746-12.364
			c31.558-54.815,29.986-117.292,39.946-176.92c32.043-191.838,64.524-383.545,114.554-571.764c0.322-1.211,0.04-2.583,0.04-9.604
			c-41.927-4.359-84.578-8.792-128.139-13.321c-4.273,44.286-6.635,85.114-12.384,125.459
			c-22.116,155.199-45.076,310.279-68.247,465.325c-7.786,52.096-17.711,103.874-25.436,155.978
			c-2.413,16.275-9.528,19.444-24.87,14.455c-0.815-9.952-2.377-20.193-2.386-30.436c-0.244-283.779-0.445-567.558-0.217-851.337
			c0.018-22.057,1.927-44.315,5.328-66.11c3.368-21.586,9.738-42.703,15.065-65.184c-47.979,0-97.278,0-143.284,0
			c22.492,304.049,9.775,603.93,8.565,903.657c-0.121,29.942-0.494,59.892-1.519,89.812c-0.153,4.451-4.566,8.757-7.009,13.13
			c-2.029-4.621-5.707-9.191-5.851-13.871c-5.83-189.336-9.095-378.781-17.481-568c-9.768-220.381-23.987-440.563-36.255-660.833
			c-0.795-14.28-1.43-28.569-2.22-44.482c-25.701,0-51.244,0-76.2,0c0,33.313-1.247,66.335,0.213,99.238
			c6.725,151.511,14.084,302.994,21.441,454.476c11.461,235.995,23.196,471.977,34.313,707.988
			c0.426,9.035,9.435,26.145-15.045,25.061c-1.964-36.015-4.09-70.918-5.739-105.844c-18.514-392.062-38.545-784.062-54.79-1176.219
			c-9.02-217.748-11.657-435.76-17.337-653.648c-0.25-9.601-2.16-19.158-3.297-28.735c0-19.531,0-39.063,0-58.594
			c24.586-4.592,49.172-9.185,73.935-13.81c0.319-0.936,1.115-2.13,1.065-3.288C66.966,557.61,54.967,280.758,42.969,3.906
			c5.208,0,10.417,0,15.625,0c9.132,203.519,19.161,407.004,27.003,610.573c3.685,95.676,15.918,191.22,4.581,287.368
			c-3.077,26.095,2.227,53.207,3.948,79.836c11.041,170.815,21.769,341.652,33.627,512.411
			c1.981,28.533,10.958,56.565,13.171,85.102c3.052,39.362,1.672,79.052,4.155,118.477c3.037,48.229,8.107,96.33,12.297,144.487
			c5.988-12.653,9.88-25.698,10.646-38.923c5.344-92.243,13.333-184.489,14.281-276.798c2.186-212.841,1.032-425.719,0.474-638.58
			c-0.032-12.045-7.067-24.023-10.523-36.124c-2.369-8.293-6.628-16.988-5.824-25.084c3.654-36.826,12.704-73.499,12.737-110.234
			c0.144-158.803-1.616-317.617-3.87-476.411c-1.117-78.719-4.803-157.402-7.327-236.101c5.208,0,10.417,0,15.625,0
			c3.271,98.161,8.041,196.299,9.461,294.487c2.107,145.703,2.396,291.442,2.118,437.163c-0.056,29.285-6.1,58.558-9.568,89.48
			c41.044-21.63,84.204-14.15,127.593-12.339c-17.911-64.231-19.725-127.442-19.614-190.372
			c0.302-171.775,2.227-343.549,4.32-515.314c0.419-34.391,4.429-68.738,6.783-103.105c5.208,0,10.417,0,15.625,0
			c-12.714,230.243-15.469,460.619-7.034,691.045c1.458,39.841,0.773,80.898,21.444,117.976c2.906,5.212,0.533,15.846-3.044,21.766
			c-15.685,25.957-16.675,54.445-15.728,83.139c0.162,4.904,6.472,12.653,11.287,13.902c79.917,20.722,161.041,34.285,244.38,39.495
			c-73.622-79.744-102.181-156.289-72.778-196.292c46.079,60.24,109.21,108.743,123.547,195.167
			c1.669-8.418,2.262-10.888,2.641-13.391c25.732-169.8,52.251-339.487,76.682-509.474c7.543-52.484,9.228-105.802,14.044-158.698
			c0.626-6.878,3.417-13.736,6.154-20.201c3.792-8.954,10.457-17.095,12.479-26.331c17.359-79.272,33.949-158.714,50.768-238.104
			c6.51,0,13.021,0,19.531,0c-9.192,48.458-17.508,97.104-27.861,145.312c-7.823,36.427-18.249,72.295-27.441,108.117
			c35.662,3.786,70.953,7.532,107.831,11.447c2.742-25.643,5.378-51.347,8.257-77.023c7.022-62.624,14.156-125.236,21.245-187.852
			C893.229,3.906,899.74,3.906,906.25,3.906z M2961.489,1821.215l-0.647-0.665c2.356,3.457,4.712,6.914,9.787,14.361
			c-16.712-7.181-29.44-12.65-42.167-18.12c13.585,12.48,28.677,22.094,43.22,32.477c14.29,10.203,30.461,19.059,35.618,37.63
			c-4.809,0.535-7.723-0.71-10.252-2.5c-164.32-116.319-348.172-182.798-546.321-210.371
			c-84.502-11.759-169.252-7.548-250.688,21.407c-69.719,24.789-117.412,73.379-142.085,143.098
			c-4.636,13.1-7.441,21.719-23.016,25.685c-11.463,2.918-23.452,12.725-30.429,22.778c-33.496,48.264-47.68,102.344-39.571,160.771
			c4.641,33.441,32.569,58.979,63.565,62.001c6.265-51.541,13.96-102.74,54.515-140.743c0.881,7.453-1.664,13.482-4.53,19.352
			c-21.491,44.012-35.067,89.831-28.089,139.326c4.429,31.417,28.865,56.413,57.915,62.361
			c-7.313-64.037,9.458-111.322,42.577-115.064c-9.857,18.397-24.141,35.072-27.25,53.62c-3.214,19.178,0.27,42.104,8.5,59.825
			c8.009,17.242,23.86,32.525,39.616,44.117c28.617,21.054,63.72,19.105,85.304-0.799c-44.976-19.132-51.948-27.494-47.282-60.607
			c2.608,7.4,4.154,12.04,5.872,16.616c8.006,21.321,34.665,35.819,57.63,29.001c21.135-6.275,15.682-25.342,16.156-41.037
			c0.054-1.798,0.488-3.584,0.745-5.376c1.353,0.13,2.706,0.26,4.059,0.39c0,14.222,0,28.445,0,43.988
			c67.475-15.987,127.08-47.289,177.472-93.685c15.659-14.418,24.029-37.894,32.629-58.518
			c8.698-20.858,13.194-43.437,20.314-65.004c1.97-5.967,6.732-11.012,12.268-19.708c3.728,13.922,3.569,28.546,9.11,31.181
			c16.898,8.035,8.92,19.197,7.127,29.52c-1.129,6.503-4.595,12.599-7.642,20.51c25.791-6.113,29.922-0.924,24.398,22.892
			c-2.002,8.633-0.322,18.12-0.322,30.757c-1.568,0.534-7.024,2.392-17.327,5.9c4.342-20.07,7.647-35.344,11.101-51.307
			c-10.183,1.211-18.125,2.155-26.066,3.099c-1.887-0.615-3.774-1.229-5.661-1.844c25.052-23.953,9.591-45.823,0.326-72.742
			c-7.025,28.298-11.181,53.307-19.635,76.768c-8.467,23.495-21.226,45.444-33.894,71.792
			c62.11,27.263,126.595,55.569,193.528,84.949c3.248,15.573-6.519,51.111-26.296,83.004
			c-61.515-25.016-123.769-50.332-186.024-75.648c-2.418,2.507-4.836,5.015-7.255,7.522c33.973,30.43,68.217,60.565,101.872,91.342
			c144.965,132.567,312.399,178.841,503.552,129.006c53.304-13.897,100.026-40.61,128.553-91.431
			c3.381-6.023,10.215-10.107,15.449-15.09c2.814,6.17,5.629,12.339,9.779,21.438c15.399-32.194,30.325-63.397,45.25-94.601
			c1.946,0.68,3.892,1.359,5.837,2.039c-1.125,16.95-2.249,33.901-3.545,53.437c26.187-22.229,41.038-49.46,54.025-77.736
			c37.07-80.71,58.513-165.796,63.502-254.178c6.454-114.357-6.696-226.364-55.417-331.612c-20.803-44.94-47.95-85.457-86.475-118.7
			c-26.753-23.086-47.769-52.714-72.25-78.565c-47.149-49.789-86.365-104.152-103.843-171.797c-0.503-1.947-2.32-3.555-4.083-6.14
			c-37.119,85.714-101.431,152.103-160.193,195.493c-111.955,82.667-240.574,127.117-375.984,153.665
			c-3.205,0.628-6.852-0.999-13.55-2.119c11.667-12.786,21.276-23.317,30.886-33.848c-0.668-0.852-1.335-1.705-2.003-2.557
			c-25.994,12.988-51.988,25.976-77.982,38.965c95.453,15.521,186.13,40.374,275.141,72.073c5.349,1.905,14.057,0.179,18.875-3.187
			c26.662-18.627,52.586-38.308,78.794-57.587c91.258-67.131,189.592-116.629,305.353-122.121
			c-6.39-5.741-12.657-11.371-19.795-17.784c20.51-9.794,52.15,2.145,67.471,22.895c-15.711-6.583-31.73-13.295-47.749-20.007
			c3.223,6.812,8.357,9.33,13.018,12.536c4.248,2.922,7.983,6.591,15.615,13.027c-82.262-1.456-154.348,19.533-220.279,55.841
			c-64.889,35.733-125.599,79.054-191.414,121.137C2825.222,1760.931,2893.355,1791.073,2961.489,1821.215z M3368.15,2162.853
			c-28.853,72.408-49.249,148.124-114.596,197.198c-1.985-0.833-3.969-1.666-5.954-2.499c0.715-9.335,1.43-18.669,2.146-28.004
			c-16.381,30.2-30.317,60.648-61.162,84.008c0.637-9.541,1.017-15.226,1.715-25.665c-43.599,67.052-111.115,84.347-178.394,102.49
			c16.677,8.975,31.862,17.147,47.046,25.32c-0.809,1.555-1.617,3.111-2.425,4.666c-18.213-7.991-36.291-16.313-54.718-23.774
			c-5.68-2.3-12.486-3.747-18.481-3.05c-95.196,11.067-186.697-2.55-274.979-39.587c-86.026-36.092-154.952-94.635-215.877-163.676
			c-14.337-16.247-29.493-29.576-50.6-37.847c-23.365-9.155-44.521-23.914-66.76-36.01c-4.298-2.338-10.968-6.561-13.476-4.996
			c-30.676,19.136-74.448,7.586-98.612,42.615c-4.221,6.118-14.047,9.476-21.962,11.754c-40.035,11.524-73.907,0.538-103.481-28.305
			c-8.216-8.013-19.261-14.361-30.163-18.159c-34.402-11.987-61.365-31.945-73.958-66.911c-4.18-11.606-9.312-17.609-21.337-21.529
			c-39.652-12.926-62.031-41.083-67.248-82.651c-0.623-4.962-1.618-9.878-2.406-14.61c-15.947,4-30.791,7.724-45.635,11.447
			c-0.85-1.793-1.7-3.585-2.549-5.378c3.968-8.33,7.936-16.66,13.908-29.196c-56.989,26.79-104.181,64.098-160.52,81.588
			c-2.052-2.634-4.105-5.267-6.157-7.901c13.357-14.432,26.714-28.863,43.988-47.526c-62.091,30.507-120.342,57.316-176.724,87.602
			c-27.79,14.928-55.995,32.635-77.399,55.324c-137.576,145.833-244.274,312.07-320.926,497.459
			c-6.361,15.386-13.138,30.6-16.814,39.141c19.416,27.734,37.398,49.851,51.262,74.303c12.093,21.328,20.062,45.089,28.952,68.123
			c32.386,83.917,68.177,165.871,121.605,239.278c66.44,91.284,156.676,134.345,265.805,138.367
			c-4.835-9.116-9.681-18.254-14.527-27.392c9.782-4.277,19.514-8.675,29.382-12.743c2.331-0.961,5.127-0.769,7.696-1.184
			c56.802-9.171,112.923,0.547,169.198,6.077c60.884,5.984,121.653,13.15,182.625-0.531c73.715-16.54,138.899-51.414,200.362-93.427
			c88.619-60.575,175.242-124.083,264.207-184.133c102.926-69.475,212.969-124.055,338.883-135.223
			c85.526-7.586,167.805,8.893,241.49,54.67c73.963,45.95,105.121,120.436,121.72,201.242c9.046,44.036,10.948,89.54,15.975,133.533
			c-0.637,0.43,0.742,0.002,1.191-0.892c1.743-3.477,3.301-7.058,4.731-10.677c64.609-163.528,89.262-333.701,82.422-508.65
			c-1.343-34.34-9.514-68.413-14.536-102.609c-2.142,0.257-4.284,0.513-6.426,0.77c-0.608,13.499-1.216,26.999-1.824,40.498
			c-1.011-0.009-2.023-0.019-3.034-0.028c-11.196-26.708-22.392-53.416-33.588-80.123c-1.239,0.56-2.478,1.12-3.718,1.68
			c2.426,17.835,4.853,35.67,7.279,53.505c-1.68,0.429-3.361,0.858-5.041,1.287c-28.542-25.562-57.084-51.124-85.626-76.686
			c-0.97,1.038-1.94,2.076-2.91,3.114c6.49,19.463,12.979,38.925,19.469,58.387c-1.971,1.221-3.941,2.443-5.912,3.664
			c-31.363-17.302-53.721-50.509-93.12-56.91c4.88,13.33,9.115,24.897,13.35,36.463c-1.319,0.485-2.638,0.97-3.958,1.455
			c-7.958-16.196-15.915-32.392-26.606-54.151c19.361,6.529,33.5,11.296,49.71,16.762c-4.687-8.562-8.428-15.397-12.169-22.231
			c1.381-1.009,2.761-2.019,4.141-3.028c20.691,24.084,41.382,48.169,62.073,72.253c1.56-0.95,3.12-1.9,4.68-2.85
			c-9.246-21.135-18.492-42.271-27.737-63.407c43.519,12.045,70.379,43.789,102.74,77.061
			c-6.774-27.364-12.169-49.156-18.522-74.822c31.756,12.775,36.36,40.1,50.336,64.466c-1.438-14.531-2.446-24.72-3.455-34.908
			c2.731-0.714,5.461-1.427,8.192-2.141c12.072,30.894,24.145,61.788,35.459,90.741
			C3333.091,2459.431,3350.62,2311.142,3368.15,2162.853z M2247.388,442.11c-41.319,13.447-81.182,23.562-118.766,39.167
			c-134.194,55.716-243.494,139.848-302.55,277.562c-18.436,42.99-34.783,86.947-50.369,131.068
			c-16.421,46.484-47.652,78.158-91.31,98.994c-4.833,2.307-9.263,5.46-12.604,7.458c7.004,4.407,13.045,8.208,19.086,12.009
			c-4.58,5.863-8.338,12.727-13.949,17.334c-6.954,5.709-15.406,9.612-23.278,14.18c-11.266,6.537-22.592,12.97-38.176,21.902
			c12.663,0.68,19.519,1.048,24.527,1.317c-17.108,46.987-34.028,93.457-52.515,144.233c35.17-13.14,35.28-12.755,37.417,18.998
			c1.25,18.566,4.018,37.029,6.449,58.611c7.677-10.927,12.861-18.306,19.504-27.761c7.684,25.038,12.421,45.264,20.004,64.359
			c33.467,84.276,89.65,150.211,165.012,200.005c34.197,22.595,68.797,44.588,103.393,66.571
			c20.595,13.087,41.538,25.627,64.505,39.754c-1.09-8.431-1.768-13.681-2.944-22.774c8.989,3.105,15.281,5.537,21.724,7.459
			c31.088,9.274,61.827,20.172,93.429,27.149c39.261,8.668,79.219,14.227,118.949,20.679c6.227,1.011,12.884,0.028,19.268-0.689
			c23.91-2.687,47.966-9.014,71.645-7.784c45.79,2.38,85.022-10.337,120.125-39.067c5.575-4.563,13.936-5.723,21.009-8.456
			c1.283,1.756,2.567,3.511,3.851,5.266c-6.159,9.565-12.317,19.13-19.565,30.386c41.511-13.676,74.745-41.719,115.87-49.87
			c1.256,1.666,2.513,3.333,3.769,4.999c-9.773,12.05-19.547,24.101-29.321,36.151c38.78-7.391,76.645-16.753,113.119-29.958
			c111.42-40.337,218.217-88.336,299.699-179.598c45.911-51.422,84.986-105.731,94.303-175.911
			c3.494-26.32,2.716-53.194,4.345-79.786c0.282-4.609,2.866-9.078,4.387-13.611c4.749,2.51,10.759,3.961,13.956,7.773
			c5.056,6.028,8.228,13.637,12.588,21.262c2.218-15.79-0.048-32.745,7.228-42.789c8.439-11.65,5.377-18.334-0.018-27.105
			c-5.446-8.854-11.167-17.619-17.598-25.767c-8.879-11.248-3.953-16.312,7.531-18.651c9.115-1.857,18.37-3.028,28.816-4.704
			c-14.545-16.864-29.186-30.29-39.523-46.466c-36.034-56.387-71.507-113.181-105.419-170.863
			c-31.292-53.226-56.675-110.232-91.016-161.299c-92.906-138.157-235.249-197.594-389.933-234.042
			c-25.803-6.08-53.42-4.463-81.862-6.522c4.918-6.968,9.1-12.892,14.486-20.522c-12.746,3.424-23.21,6.783-33.922,8.875
			c-5.163,1.008-13.454,1.616-15.539-1.174c-2.632-3.522-2.239-11.685,0.111-16.116c7.709-14.539,16.895-28.294,25.513-42.351
			c-0.854-1.4-1.708-2.8-2.563-4.2c-31.654,22.308-63.307,44.617-97.017,68.375c16.086-32.925,46.066-48.166,72.705-66.839
			c-1.465-1.774-2.929-3.548-4.394-5.322c-26.335,21.202-52.671,42.404-80.272,64.625c-11.196-9.217-23.923-19.693-39.952-32.888
			c1.822,11.813,3.049,18.814,3.947,25.856C2246.174,428.626,2246.74,435.691,2247.388,442.11z M1018.093,2571.261
			c11.14-15.333,18.263-26.97,27.296-36.864c5.213-5.71,13.785-12.434,20.364-11.964c13.627,0.974,13.314,13.1,12.665,24.063
			c-0.533,8.999-0.109,18.054-0.109,31.052c19.575-28.166,34.756-31.233,49.778-10.757c12.597,17.17,26.38,17.39,44.221,12.298
			c42.84-12.228,71.448-41.474,94.075-77.589c76.879-122.709,163.699-237.822,261.169-344.939
			c4.256-4.677,7.745-12.508,7.336-18.584c-3.332-49.503-10.202-98.495-31.623-143.942c-8.129-17.247-18.892-33.253-29.411-51.483
			c-37.966,22.488-72.346,43.17-107.056,63.282c-18.42,10.673-24.808,7.418-25.855-11.776
			c32.606,5.768,95.197-58.719,115.27-121.229c9.04,27.651-8.191,46.568-15.006,68.796c44.289-22.179,72.844-83.995,61.656-130.552
			c-3.381-14.069-14.025-18.528-26.822-16.617c-19.882,2.968-39.71,6.677-59.265,11.317c-12.557,2.979-24.585,8.193-36.85,12.405
			c-0.863-1.691-1.726-3.383-2.589-5.074c9.504-5.912,18.319-14.752,28.643-17.183c30.162-7.101,60.76-13.303,91.534-16.397
			c12.815-1.288,19.274-4.487,22.029-16.067c9.524-40.02-22.629-83.367-63.573-82.514c-26.452,0.551-52.787,6.227-79.199,9.405
			c-7.555,0.909-15.193,1.119-22.794,1.65c-0.267-2.575-0.533-5.15-0.8-7.725c43.728-19.627,90.021-23.993,138.464-17.619
			c3.006-22.398-5.245-41.306-20.412-53.198c-19.987-15.67-42.454-30.884-66.337-38.301c-46.848-14.547-90.944,2.045-133.288,22.338
			c-5.914,2.834-11.841,5.644-17.762,8.465c-0.896-2.326-1.792-4.652-2.688-6.978c41.878-37.286,93.379-46.967,151.827-46.367
			c-10.173-8.503-17.572-15.688-25.926-21.499c-38.755-26.959-82.393-39.784-128.76-47.112
			c-62.484-9.875-110.875,12.68-145.189,62.622c-26.707,38.871-52.104,79.773-70.547,122.989
			c-64.832,151.912-109.253,309.867-132.825,473.7c-17.437,121.193-5.527,237.346,51.145,347.251
			c4.371,8.477,9.373,16.628,14.651,25.933c11.8-6.768,21.93-12.479,31.963-18.355c18.483-10.826,26.114-7.045,25.9,14.909
			C1023.223,2530.442,1020.35,2547.805,1018.093,2571.261z M588.1,2040.813c-2.07,0.211-4.14,0.422-6.21,0.632
			c1.141,21.957,2.503,43.905,3.332,65.873c0.442,11.704,0.869,23.543-0.41,35.132c-0.91,8.243-5.432,16.021-7.061,24.261
			c-36.427,184.28-72.859,368.56-108.77,552.94c-5.735,29.446-8.986,59.376-13.385,89.082c7.753-17.608,13.777-33.707,38.05-26.791
			c1.775,0.506,4.451-2.226,6.73-3.409c28.654-14.865,57.23-29.887,86.075-44.373c3.615-1.815,8.746-1.486,13.022-0.945
			c12.444,1.573,24.889,3.361,37.195,5.775c39.427,7.737,79.745,5.373,116.82,30.538c40.873,27.742,79.326,55.812,107.116,99.594
			c22.614-10.722,45.434-20.096,66.872-31.967c75.642-41.885,150.867-84.526,226.052-127.229
			c5.972-3.392,12.244-8.517,15.289-14.428c17.886-34.721,34.856-69.916,53.059-106.826c-39.813,16.693-77.249,39.761-114.064-0.588
			c-3.677,6.977-5.727,12.667-9.275,17.18c-5.32,6.767-11.691,12.708-17.615,19c-7.447-7.401-16.638-13.764-21.836-22.502
			c-4.941-8.307-5.707-19.098-8.709-30.29c-7.77,9.125-12.896,18.201-20.633,23.375c-7.816,5.227-21.002,11.596-26.787,8.381
			c-7.35-4.085-12.578-17.071-13.369-26.66c-1.128-13.679,2.602-27.758,4.331-42.293c-39.384,18.524-43.42,18.239-59.166-11.231
			c-47.371-88.662-77.691-182.365-71.414-283.959c3.76-60.85,13.212-121.411,21.698-181.879c4.292-30.58,12.12-60.664,18.078-89.657
			c-69.316-17.707-136.428-34.851-204.214-52.167c30.911,42.379,62.829,85.843,94.354,129.59c6.913,9.593,19.6,20.874,7.981,31.849
			c-4.414,4.169-21.392-1.448-30.576-6.423c-51.774-28.052-90.24-69.363-118.322-121.052c-5.898-10.856-16.178-19.33-24.439-28.902
			c-2.664,1.486-5.329,2.971-7.993,4.457c50.597,82.675,36.172,177.924,57.926,271.023
			C620.191,2156.59,599.174,2101.609,588.1,2040.813z M1312.262,3429.961c5.352,43.502,48.063,86.711,86.129,90.91
			c15.521,1.712,31.063,3.278,46.624,4.576c119.277,9.952,238.435,21.938,357.884,29.003c85.687,5.069,171.773,3.178,257.666,5.101
			c34.273,0.767,68.503,3.44,101.21,5.164c7.172-42.27,14.162-83.461,20.702-122.006c-5.817,7.135-13.596,16.677-25.175,30.88
			c-4.106-46.61-28.5-73.956-56.793-99.036c-6.27-5.558-11.688-12.292-16.599-19.13c-18.794-26.168-16.363-51.189,6.983-73.279
			c7.813-7.393,16.174-14.208,24.285-21.288c-10.19-4.285-19.362-5.917-27.705-3.978c-24.641,5.728-48.9,13.076-73.409,19.403
			c-30.765,7.943-61.312,17.375-92.544,22.676c-28.543,4.845-56.061-2.389-82.026-17.437c22.121-22.968,97.015-39.29,119.942-24.085
			c-23.039,9.926-43.829,18.884-69.222,29.824c15.421,0,26.553,2.183,36.456-0.383c40.206-10.416,79.828-23.108,120.088-33.287
			c20.601-5.208,42.018-7.892,63.235-9.534c6.333-0.491,16.367,4.971,18.858,10.393c1.878,4.088-4.637,13.215-9.115,18.718
			c-4.844,5.954-11.739,10.213-17.601,15.369c-22.458,19.748-24.729,39.696-4.994,62.644c20.736,24.112,42.998,46.913,65.263,71.012
			c11.409-114.992,69.583-207.795,144.074-291.76c63.604-71.693,133.415-137.067,210.457-194.417
			c4.921-3.663,9.562-7.702,14.333-11.565c-6.985,0.422-12.547,3.105-17.602,6.537c-27.983,19-55.771,38.289-83.759,57.282
			c-83.93,56.958-166.311,116.411-252.348,169.989c-83.933,52.267-176.779,73.699-276.538,61.691
			c-56.799-6.836-113.918-11.535-171.026-15.013c-21.791-1.328-43.954,3.441-65.947,5.431c-0.201,2.102-0.402,4.204-0.604,6.305
			c8.174,4.764,16.685,9.048,24.407,14.458c5.35,3.748,9.612,9.047,14.36,13.652c-6.321,2.014-12.641,5.777-18.964,5.782
			c-119.32,0.094-219.925-39.126-293.64-137.576c-54.415-72.674-91.951-153.531-124.432-237.646
			c-15.351-39.754-36.167-77.439-55.349-115.638c-4.335-8.632-12.178-15.501-18.406-23.182c-1.715,1.526-3.43,3.051-5.145,4.577
			c16.177,39.219,46.174,72.88,48.769,118.795c-34.696-12.4-50.909-47.294-85.625-67.764
			c100.124,123.502,173.056,257.29,243.388,393.422c-27.255-3.506-39.936-26.281-62.134-42.58c2.558,6.589,3.454,9.482,4.762,12.176
			c13.06,26.908,27.276,53.317,39.051,80.774c19.344,45.106,32.398,92.07,33.358,141.546c0.134,6.896-4.719,13.89-7.264,20.839
			c-6.826-4.048-15.612-6.605-20.064-12.459c-8.825-11.606-15.26-25.031-22.682-37.704c5.184,24.264,13.321,47.407,20.259,70.904
			c4.025,13.631,7.614,27.715,8.698,41.804c1.236,16.067-5.132,19.271-18.371,10.455c-8.627-5.745-16.15-13.119-24.51-19.301
			C1334.357,3444.942,1324.426,3438.395,1312.262,3429.961z M2730.064,3695.576c7.147-1.274,9.063-1.306,10.738-1.959
			c104.641-40.753,201.143-95.539,283.507-172.298c58.996-54.979,115.402-111.601,134.625-195.997
			c21.4-93.956,39.561-187.187,20.664-283.691c-23.417-119.579-90.15-196.034-212.316-223.765
			c-122.941-27.907-236.02-3.054-341.113,59.283c-121.818,72.258-226.174,166.632-318.605,273.65
			c-49.556,57.376-92.334,119.657-114.084,193.666c-7.103,24.168-11.805,49.041-17.605,73.592
			c20.93-12.914,30.136-37.35,59.897-39.336c-3.17,7.248-4.202,11.713-6.724,15.053c-34.353,45.503-46.125,98.04-49.533,153.625
			c-0.948,15.456,2.966,20.736,19.095,23.293c41.035,6.508,81.618,15.91,122.319,24.451c8.446,1.772,16.622,4.83,21.431,6.259
			c3.198-50.166,3.439-99.038,9.93-147.064c17.185-127.153,56.65-247.01,127.249-355.181c24.396-37.382,49.641-75.561,88.551-98.988
			c31.444-18.931,65.417-35.818,100.482-45.955c33.179-9.591,66.735-31.268,104.067-13.076c0.535,0.26,1.29,0.044,1.937,0.103
			c11.004,1.004,22.219,0.996,32.97,3.225c29.483,6.113,58.804,13.024,88.087,20.047c3.347,0.803,6.427,3.957,8.972,6.645
			c7.761,8.196,15.059,16.829,22.791,25.053c23.087,24.553,46.568,48.743,69.291,73.627c6.982,7.647,10.019,17.668,23.406,19.831
			c5.128,0.828,9.32,14.98,11.532,23.673c1.471,5.784-3.086,12.997-1.92,18.98c9.162,47.009,5.599,93.004-10.366,138.388
			c19.709-1.087,24.603,4.669,16.045,22.231c-12.792,26.251-28.509,51.059-41.907,77.035
			C2928.957,3495.059,2850.149,3608.6,2730.064,3695.576z M872.092,2900.541c15,30.663,33.336,64.394,48.36,99.54
			c52.337,122.435,82.864,249.437,71.466,383.605c-5.576,65.635-13.705,131.392-71.577,182.97
			c145.008-24.203,283.883-54.331,422.153-47.588c-15.145-26.176-30.668-51.256-44.017-77.443
			c-2.93-5.747-0.723-18.534,3.883-22.392c4.157-3.482,16.32-1.58,22.347,2.154c16.117,9.984,30.835,22.227,48.859,35.615
			c-3.391-12.868-5.657-22.924-8.7-32.739c-8.276-26.695-17.994-53.011-24.734-80.076c-2.269-9.113,2.694-20.027,4.352-30.118
			c7.333,6.4,16.321,11.671,21.634,19.451c9.258,13.559,16.252,28.664,24.195,43.121c-0.442-50.514-11.32-97.831-32.153-142.359
			c-16.796-35.9-35.828-70.749-53.144-106.416c-2.385-4.912-0.586-11.855-0.724-17.858c5.925,0.767,13.114-0.33,17.526,2.665
			c11.21,7.611,21.177,17.054,32.822,26.747c-0.693-3.126-0.679-4.479-1.261-5.49c-70.085-121.772-138.578-244.518-231.28-351.547
			c-11.59-13.381-18.442-14.638-32.879-6.219C1016.966,2818.295,944.123,2859.413,872.092,2900.541z M316.329,2808.07
			c2.393-0.086,4.786-0.172,7.179-0.258c1.457-6.936,3.206-13.826,4.329-20.816c17.951-111.705,37.326-223.209,53.269-335.201
			c14.659-102.979,28.254-206.277,36.456-309.898c2.253-28.467,8.895-53.806,15.997-80.397
			c10.556-39.519,20.299-79.467,26.856-119.807c29.523-181.626,58.102-363.409,86.215-545.259
			c4.438-28.709,7.577-58.218,5.931-87.05c-1.045-18.296-0.965-33.064,12.834-45.913c10.443-9.725,9.525-19.571,4.723-33.209
			c-7.861-22.327-11.782-46.201-15.667-69.703c-2.005-12.127-0.352-24.858-0.352-37.932c-22.525,38.225-41.442,76.16-65.945,110.057
			c-19.523,27.007-45.426,49.535-69.56,72.955c-4.588,4.452-17.382,7.481-20.678,4.61c-5.141-4.479-8.285-15.031-7.128-22.177
			c2.465-15.224,6.706-30.598,13.011-44.659c9.406-20.979,21.222-40.877,32.392-61.95c-38.963,33.475-77.443,66.067-115.126,99.555
			c-4.285,3.808-5.7,12.642-5.73,19.158c-0.229,50.105-0.486,100.228,0.592,150.317c2.239,104.054,4.663,208.113,8.417,312.12
			c1.085,30.045,9.862,58.715,28.106,83.996c3.129,4.336,1.126,13.872-0.954,20.201c-7.43,22.599-19.353,44.281-23.186,67.37
			c-5.619,33.847-7.498,68.588-7.894,102.983c-1.924,167.218-3.048,334.447-3.995,501.674
			C315.911,2628.578,316.329,2718.325,316.329,2808.07z M438.937,2888.851c-1.7,11.965-5.464,21.471-3.763,29.87
			c4.053,20.004,11.37,39.33,15.885,59.265c1.439,6.352-1.795,13.762-3.133,22.219c-9.365-4.102-15.092-6.611-23.644-10.356
			c1.218,18.064,1.156,34.177,3.542,49.919c24.877,164.143,95.678,306.7,205.073,430.451
			c49.718,56.241,112.357,89.142,187.651,97.553c61.032,6.818,109.539-19.061,128.222-77.345
			c12.554-39.166,20.292-80.923,23.025-121.998c9.259-139.152-28.057-269.035-85.467-394.16
			c-4.077-8.887-8.699-17.525-14.818-29.786c-1.71,11.465-2.385,18.553-3.866,25.47c-5.806,27.114-30.059,36.562-51.305,18.745
			c-8.533-7.156-15.556-17.74-19.724-28.179c-15.507-38.835-9.082-76.26,12.765-113.38c-16.672-13.862-32.669-27.163-48.665-40.462
			c-2.833,10.084-1.144,16.927-0.497,23.866c2.167,23.24,6.149,46.587,5.371,69.757c-1.083,32.267-27.592,44.322-52.882,24.252
			c-10.631-8.436-19.583-21.138-24.868-33.757c-15.943-38.067-8.066-74.842,13.539-112.487
			c-25.039-4.526-47.789-8.639-73.215-13.235c16.845,37.34,28.995,71.49,24.829,109.068c-1.906,17.192-8.435,31.613-26.661,37.049
			c-17.83,5.319-34.57-0.929-43.151-14.946c-10.107-16.511-17.181-36.181-20.272-55.337c-3.4-21.074-0.775-43.119-0.775-65.747
			c-14.549,7.666-30.384,16.009-47.573,25.066c5.976,6.879,10.248,11.56,14.26,16.455c28.599,34.894,38.343,74.71,29.666,118.745
			c-4.339,22.019-16.239,38.406-39.861,42.706c-23.962,4.362-43.197-4.844-54.219-25.63
			C454.526,2933.87,448.475,2913.207,438.937,2888.851z M2534.782,3064.336c-0.989-0.408-1.978-0.816-2.966-1.224
			c-4.053,4.877-8.266,9.632-12.136,14.65c-58.939,76.436-96.409,163.268-121.291,255.675
			c-22.929,85.154-38.853,171.369-27.374,260.32c9.725,75.358,55.025,124.692,126.252,136.82
			c79.786,13.586,151.806-4.499,218.112-50.866c115.333-80.651,193.352-191.284,256.587-314.207
			c0.634-1.234-0.202-3.224-0.379-5.151c-8.335,2.287-15.655,5.062-23.221,6.207c-14.058,2.129-32.462,6.884-38.111-9.073
			c-3.843-10.857,0.15-30.309,8.198-38.404c19.809-19.925,42.434-38.286,66.908-51.928c18.067-10.071,22-21.981,21.824-37.589
			c-21.112,10.357-40.973,23.518-62.817,30.06c-37.737,11.303-62.9-11.923-58.29-51.135c4.143-35.245,19.95-65.228,48.518-85.929
			c16.467-11.932,36.822-18.499,56.073-27.792c-19.341-31.396-44.118-61.097-76.587-85.11c-1.418,14.046-1.654,25.807-3.93,37.158
			c-7.028,35.036-22.222,65.517-54.098,84.401c-28.296,16.763-54.971,1.744-51.81-30.706c1.955-20.063,8.622-41.055,18.535-58.6
			c12.188-21.573,29.963-39.989,47.902-63.09c-30.866-7.271-61.779-14.553-95.649-22.532c6.431,18.664,12.382,31.7,15.371,45.384
			c9.836,45.035-8.553,94.348-41.421,114.042c-31.652,18.964-65.49,3.869-69.544-32.395c-1.697-15.178-0.937-31.609,3.136-46.237
			c6.899-24.776,17.315-48.573,28.49-78.84c-41.076,15.424-78.917,29.634-120.298,45.173c9.949,7.585,14.853,10.786,19.134,14.673
			c33.497,30.419,34.762,79.777,2.476,106.448c-17.549,14.497-37.567,17.712-58.476,8.509c-17.442-7.677-24.781-24.996-22.393-49.67
			C2532.124,3076.984,2533.665,3070.68,2534.782,3064.336z M1758.009,1481.979c-0.19,0.226-1.577,1.607-2.656,3.197
			c-56.345,83.043-122.705,153.401-224.765,179.395c-3.629,0.924-8.862,11.097-7.42,13.812
			c8.004,15.071,13.779,31.314,32.133,39.542c52.169,23.387,103.491,48.66,155.196,73.085c2.088,0.986,4.686,0.894,8.88,1.624
			c0.91-18.061,1.761-34.973,2.675-53.118c-8.212,3.06-13.025,4.853-19.612,7.307c1.687-18.447,3.121-34.126,4.659-50.948
			c-8.73,3.025-14.963,5.184-24.73,8.568c2.959-17.327,5.304-31.053,7.754-45.402c-8.439,4.22-15.924,7.963-23.409,11.705
			c-1.385-1.291-2.77-2.581-4.154-3.872c5.909-14.292,11.819-28.585,18.17-43.945c-8.955,4.37-16.093,7.853-23.231,11.337
			c-1.354-1.29-2.709-2.58-4.064-3.87c4.757-10.276,9.513-20.551,14.27-30.827c1.086,0.506,2.173,1.013,3.259,1.519
			c-2.055,6.336-4.11,12.671-6.643,20.482c9.193-4.89,16.363-8.704,23.533-12.519c1.416,0.981,2.832,1.962,4.248,2.943
			c-4.009,11.381-8.017,22.762-12.268,34.832c16.166-2.978,16.166-2.978,16.271,33.892c5.599,2.027,14.649,3.174,15.117,5.834
			c2.286,12.97,2.28,26.344,3.093,39.696c11.563-5.667,15.777,2.449,16.091,12.734c0.454,14.889,0.928,30.177-1.919,44.643
			c-2.313,11.753,1.442,16.334,11.026,20.716c27.769,12.698,54.957,26.714,83.043,38.634c5.841,2.479,15.77,0.212,21.773-3.33
			c68.327-40.314,140.328-70.404,219.228-82.757c7.523-1.178,14.834-6.255,21.364-10.789c29.172-20.252,57.519-41.741,87.253-61.112
			c11.294-7.357,25.515-10.223,43.057-16.911c-63.157-10.804-121.275-20.746-177.66-30.392c3.445,3.23,9.416,8.207,14.619,13.888
			c4.911,5.362,9.012,11.465,13.47,17.242c-1.528,1.881-3.055,3.761-4.583,5.642
			C1955.541,1618.108,1854.307,1554.836,1758.009,1481.979z M193.375,840.026c2.339,18.5,5.667,33.097,5.801,47.723
			c1.124,122.302,3.269,244.627,1.974,366.912c-1.673,158.04-5.633,316.066-9.963,474.06c-1.131,41.273-7.283,82.409-10.93,121.476
			c49.638,0,99.906,0,149.473,0c-6.11-19.576-14.986-38.29-17.424-57.808c-5.47-43.788-10.451-87.951-10.863-132.005
			c-2.219-237.444-3.417-474.901-3.806-712.355c-0.063-38.457,5.695-76.923,8.936-117.572
			C270.779,826.664,230.51,822.136,193.375,840.026z M689.561,1307.309c1.531-28.927,1.017-52.466,4.294-75.465
			c15.595-109.452,30.623-219.024,48.844-328.053c29.687-177.647,61.33-354.972,92.981-532.284
			c8.277-46.369,4.563-53.573-43.313-62.505c-3.835-0.715-7.737-1.065-11.6-1.635c-42.086-6.205-41.53-6.035-47.655,35.684
			c-32.687,222.659-65.036,445.371-98.993,667.838c-13.504,88.468-30.841,176.35-47.423,270.095
			C618.545,1289.134,653.314,1298.032,689.561,1307.309z M3534.283,876.749c-14.28,20.529-26.851,43.393-44.246,61.666
			c-9.245,9.712-26.848,11.467-40.678,16.814c-2.445-14.073-8.822-28.793-6.633-42.105c8.023-48.798,28.644-93.143,57.084-133.316
			c6.051-8.547,19.105-12.136,28.933-18.009c1.402,1.449,2.803,2.898,4.204,4.347c-0.689-6.19-1.378-12.38-2.171-19.505
			c-22.937-3.157-35.412,12.306-48.668,24.896c-46.202,43.877-92.032,88.15-137.665,132.62c-3.525,3.435-6.441,9.679-6.211,14.452
			c2.977,61.703,7.19,123.349,9.881,185.063c4.421,101.39,8.189,202.81,11.626,304.239c0.531,15.661,5.88,20.449,21.86,21.085
			c28.444,1.132,56.869,4.998,85.028,9.452c7.107,1.124,18.882,9.285,18.531,13.352c-0.711,8.243-6.557,18.027-13.301,23.37
			c-16.257,12.881-34.712,22.948-51.405,35.33c-14.974,11.108-28.781,23.79-43.103,35.778c1.185,1.445,2.369,2.891,3.553,4.336
			c4.182-2.41,8.653-4.43,12.5-7.291c38.119-28.352,80.741-46.909,126.463-58.991c31.505-8.325,31.386-8.519,26.938-40.156
			c-0.536-3.813-0.835-8.089,0.327-11.635c4.812-14.68-3.779-20.16-14.971-26.595c-67.808-38.982-120.249-92.661-152.583-164.553
			c-4.331-9.63-5.382-20.736-7.952-31.159c11.873-0.277,24.407-3.168,35.499-0.359c38.612,9.777,68.508,33.911,93.512,63.812
			c15.574,18.624,28.964,39.075,46.227,62.659c-3.428-51.494-5.442-98.744-10.11-145.73c-2.996-30.157-7.182-58.825-4.505-90.44
			C3538.583,1025.32,3534.283,949.565,3534.283,876.749z M2779.987,365.248c-9.046,7.264-19.056,12.112-24.313,20.09
			c-20.245,30.724-39.203,62.31-58.155,93.867c-8.331,13.872-6.072,23.114,10.341,31.599
			c78.396,40.527,143.869,97.18,189.453,172.596c20.868,34.526,44.141,44.765,80.444,35.366c15.04-3.894,30.302-6.931,48.965-11.149
			c-9.184-11.149-14.663-17.801-20.124-24.432c26.058-11.435,50.745-22.268,77.472-33.997c-13.26-14.625-23.594-26.023-31.497-34.74
			c14.29-18.387,27.527-34.724,39.92-51.679c5.674-7.763,5.481-16.713-4.23-21.263c-12.767-5.981-26.27-10.39-41.087-16.103
			c3.405-9.617,9.037-22.59,12.556-36.113c6.166-23.695,3.946-28.38-19.973-30.917c-18.461-1.958-23.439-9.816-20.055-26.434
			c0.768-3.77,0.013-7.826,0.535-11.673c1.792-13.213-4.316-20.225-17.13-19.845c-18.113,0.537-36.189,2.319-54.277,3.633
			c-7.183,0.522-14.354,1.214-23.134,1.967c3.17-13.437,5.603-23.756,7.841-33.24c-22.11-9.547-53.926,30.599-63.985-20.494
			c-28.465,16.812-54.447,32.157-83.79,49.486C2783.73,388.922,2782.109,378.667,2779.987,365.248z M564.305,2115.808
			c-0.833-127.798,23.451-252.397,42.653-377.32c19.222-125.05,42.672-249.45,64.759-376.962
			c-30.372-7.422-63.422-15.499-98.06-23.963c-9.293,59.477-17.855,115.892-26.955,172.221
			c-32.096,198.674-53.856,399.209-105.504,594.587C481.801,2108.144,523.702,2112.036,564.305,2115.808z M1537.317,1785.741
			c-4.189,18.355-9.615,33.149-10.592,48.233c-2.207,34.049-10.265,65.602-32.457,92.159c-6.44,7.706-7.423,13.171-1.317,21.787
			c26.487,37.375,40.673,79.634,47.218,124.673c2.626,18.071,5.154,36.156,8.233,57.797
			c60.978-75.472,106.377-155.162,144.355-240.863c3.046,7.872,3.967,15.739,1.316,22.123
			c-29.789,71.751-66.315,139.782-113.453,201.818c-3.72,4.896-7.003,10.124-7.267,10.51
			c40.491-19.398,84.243-41.466,128.926-61.451c44.036-19.696,85.939-45.222,133.022-57.238c1.64,2.622,3.279,5.245,4.919,7.867
			c-14.398,13.178-28.795,26.355-46.987,43.005c45.028-16.494,78.444-47.923,126.971-57.254
			c-5.239,14.601-8.522,23.751-12.404,34.571c6.817-1.614,11.249-2.412,15.523-3.724c12.223-3.752,21.358-8.243,22.455-24.596
			c1.065-15.886-6.121-21.491-18.072-27.35C1799.864,1915.142,1672.182,1852.155,1537.317,1785.741z M2027.957,503.901
			c-31.065-30.18-64.788-57.798-107.867-73.558c0.617,4.661,1.061,8.017,1.146,8.664c-40.625-3.189-80.98-6.357-121.336-9.525
			c0.821,3.287,1.642,6.574,2.464,9.861c-13.316,17.15-40.035,14.887-53.556,31.397c15.903,10.782,15.955,15.071-0.149,24.168
			c-33.474,18.91-40.17,49.695-17.332,82.147c-10.382,1.501-20.459,2.957-31.763,4.591c5.009,7.936,8.329,13.197,11.472,18.177
			c-38.781,41.117-40.851,87.282,15.131,102.925c0,3.127,0.607,6.461-0.095,9.492c-6.336,27.361,0.104,36.791,27.917,44.273
			c6.345,1.707,11.306,8.56,18.657,14.449c22.318,1.515,32.7-14.977,42.178-36.096c25.862-57.623,62.386-108.238,110.246-149.575
			C1957.387,557.381,1992.026,532.16,2027.957,503.901z M3324.903,922.473c-20.861,13.559-36.301,24.219-52.43,33.711
			c-5.076,2.987-15.194,5.823-17.383,3.479c-4.051-4.339-5.185-12.539-5.233-19.148c-0.046-6.273,2.299-12.773,4.548-18.817
			c12.479-33.535,32.429-62.041,58.224-86.768c4.065-3.896,8.673-10.963,7.822-15.61c-3.958-21.624-9.748-42.913-15.177-65.55
			c-16.744,1.505-32.193,3.809-47.644,3.826c-6.048,0.007-15.387-3.751-17.268-8.273c-2.064-4.964,0.653-15.359,4.964-18.862
			c11.411-9.272,24.722-16.245,37.459-23.826c4.819-2.868,10.138-4.894,15.229-7.304c-0.547-1.109-1.094-2.218-1.641-3.327
			c-28.224-1.594-56.448-3.189-83.938-4.742c21.642,248.079,43.06,493.596,64.596,740.465c24.116-1.398,45.793-2.654,66.804-3.872
			C3337.537,1259.688,3331.309,1093.449,3324.903,922.473z M3550.572,1127.779c26.423-2.448,52.72-4.885,79.492-7.365
			c-1.865-14.677-4.669-28.697-5.281-42.812c-5.521-127.407-11.577-254.803-15.528-382.262
			c-2.015-65.01-11.35-130.737,10.306-195.485c-15.264-1.095-30.137-2.195-45.016-3.219c-15.29-1.052-30.585-2.03-43.09-2.856
			C3557.003,704.777,3550.067,915.417,3550.572,1127.779z M3643.528,1811.112c-22.787,2.097-39.479,3.618-56.169,5.176
			c-10.891,1.017-14.948,6.114-14.863,17.881c0.978,135.881,1.905,271.768,1.499,407.649c-0.108,36.224-4.18,72.495-7.706,108.62
			c-1.247,12.774,2.72,19.542,14.852,19.24c18.812-0.466,37.675-1.839,56.344-4.195c14.644-1.849,20.71-11.044,18.841-26.279
			c-2.135-17.396-3.526-34.942-4.109-52.46c-3.092-92.916-6.555-185.829-8.438-278.772
			C3642.477,1943.762,3643.528,1879.503,3643.528,1811.112z M114.577,1567.754c-14.395-223.457-28.72-445.832-43.14-669.683
			c-16.735,1.13-32.053,2.164-47.921,3.235c6.713,222.932,13.366,443.894,20.068,666.448
			C67.669,1567.754,91.365,1567.754,114.577,1567.754z M3643.301,1753.655c-1.315-11.219-2.92-19.537-3.177-27.896
			c-5.226-170.268-10.678-340.531-14.887-510.825c-0.487-19.72,6.11-39.612,9.383-59.43c0.683-4.133,1.19-8.296,2.361-16.558
			c-31.647,2.174-60.836,4.18-90.841,6.241c3.27,19.831,7.025,35.668,8.35,51.707c14.91,180.396,16.477,361.171,14.06,542.017
			c-0.143,10.714,3.085,14.54,12.387,14.663C3600.956,1753.839,3620.982,1753.655,3643.301,1753.655z M3828.903,2165.311
			c0-26.498-2.459-52.551,0.401-78.006c18.006-160.247,37.235-320.357,55.965-480.523c4.74-40.535,9.136-81.11,13.766-122.331
			c-20.365-5.87-39.277-11.322-58.598-16.892c-1.008,4.491-1.625,6.31-1.805,8.171c-18.174,187.712-36.154,375.443-54.607,563.128
			c-3.348,34.053-3.141,69.299-25.711,98.609c-2.323,3.016-1.748,8.262-2.668,13.295
			C3780.948,2155.786,3804.888,2160.541,3828.903,2165.311z M3921.555,840.955c-1.639,4.841-2.596,6.59-2.8,8.423
			c-13.367,120.278-25.478,240.711-40.41,360.794c-9.811,78.905-10.013,159.571-38.902,237.598
			c23.401,7.191,47.116,14.479,69.652,21.404c0-32.881-3.094-63.553,0.548-93.403c14.024-114.919,30.191-229.578,45.587-344.33
			c7.266-54.155,14.854-108.27,21.483-162.502c0.643-5.262-3.216-14.874-7.132-16.22
			C3954.442,847.515,3938.431,844.844,3921.555,840.955z M1547.135,1730.311c0,8.471,1.172,15.16-0.215,21.268
			c-4.52,19.893,6.155,27.635,22.525,35.461c89.01,42.557,177.48,86.246,266.043,129.734c37.55,18.438,74.873,37.337,113.744,56.747
			c4.482-17.68,8.4-33.138,12.449-49.111C1822.992,1859.473,1685.652,1795.167,1547.135,1730.311z M2650.39,2236.459
			c-63.326-28.829-125.704-57.225-187.904-85.541c-19.494,12.776-39.819,26.097-64.392,42.201
			c82.347,35.425,161.465,69.46,242.271,104.222C2644.374,2272.991,2647.405,2254.583,2650.39,2236.459z M1031.217,1545.622
			c-2.346-14.149-6.181-26.212-5.886-38.172c0.41-16.644-8.222-23.642-21.76-29.77c-44.372-20.085-88.337-41.068-132.441-61.745
			c-16.466-7.719-32.657-16.077-49.397-23.14c-11.519-4.86-32.609,6.081-40.686,19.722c-8.089,13.661,2.578,21.976,10.789,27.365
			c16.635,10.918,34.478,20.592,52.933,28.02c41.537,16.719,84.015,31.098,125.576,47.762
			C990.597,1523.783,1009.652,1534.888,1031.217,1545.622z M2060.241,1772.779c-43.92-0.379-186.556,54.9-210.659,82.904
			c39.284,18.674,78.246,37.195,117.758,55.978c15.454-27.918,28.785-55.219,59.961-66.108c2.345-0.819,3.945-4.815,5.167-7.646
			C2041.898,1816.073,2051.149,1794.163,2060.241,1772.779z M569.952,1003.024c-86.047,6.351-169.149,27.417-253.223,10.321
			c0,34.803,0,67.936,0,102.675C401.976,1077.98,484.565,1041.126,569.952,1003.024z M2988.254,3117.307
			c-5.04,0-8.285-0.425-11.385,0.065c-40.18,6.351-84.184,67.573-75.374,107.312c1.776,8.01,11.893,18.69,19.61,20.073
			c31.368,5.624,53.712-12.644,75.044-32.805c19.257-18.2,16.56-39.526,13.395-61.551c-14.533,8.365-27.766,15.981-40.999,23.598
			c-2.064-2.08-4.129-4.16-6.194-6.24C2970.626,3151.644,2978.899,3135.529,2988.254,3117.307z M3285.336,1487.639
			c0,18.266,1.441,35.119-0.384,51.61c-2.036,18.398,5.8,31.409,15.262,46.093c21.714,33.697,40.944,69.003,60.905,103.815
			c3.628,6.327,5.935,13.412,8.852,20.147c1.258-0.395,2.515-0.79,3.773-1.185c-2.376-29.353-4.753-58.705-7.182-88.712
			c-6.983,0.746-11.564,2.063-15.904,1.505c-6.466-0.832-16.249-1.179-18.249-5.036c-2.503-4.827-0.327-14.108,3.02-19.477
			c5.399-8.659,13.702-15.455,20.175-23.521c2.877-3.585,6.679-8.811,5.967-12.502c-4.285-22.216-9.758-44.203-15.08-67.34
			C3326.996,1491.315,3307.167,1489.565,3285.336,1487.639z M938.921,1403.024c-1.909,1.709-3.819,3.419-5.728,5.128
			c12.649,12.218,23.558,27.378,38.283,36.089c40.267,23.822,82.014,45.172,123.57,66.739c4.294,2.228,12.666,1.331,16.692-1.548
			c11.985-8.57,22.746-18.851,36.081-30.256C1080.873,1443.6,1012.928,1415.19,938.921,1403.024z M3269.581,937.818
			c84.357-53.236,146.93-126.716,216.285-193.915C3425.507,743.904,3278.588,874.434,3269.581,937.818z M469.217,2841.334
			c-20.338,23.848-9.28,81.367,9.018,104.827c9.225,11.826,20.079,21.031,36.408,17.598c15.811-3.324,24.584-14.682,27.892-29.521
			c8.421-37.778,0.44-72.23-23.423-102.776c-2.76-3.533-6.774-6.085-11.778-10.469c0,22.814,0,42.783,0,62.753
			c-2.572,0.945-5.143,1.89-7.715,2.836C489.553,2871.601,479.487,2856.621,469.217,2841.334z M3390.849,1224.904
			c32.138,74.524,82.933,127.62,152.88,166.709C3533.575,1320.606,3456.461,1236.117,3390.849,1224.904z M2723.622,2976.364
			c-19.466,30.901-31.997,71.52-30.688,96.979c0.725,14.107,3.271,30.012,18.713,32.772c11.16,1.994,26.375-1.369,35.452-8.144
			c34.195-25.525,41.209-89.467,15.467-123.634c-0.475-0.629-2.356-0.199-3.629-0.251c-4.681,20.617-5.552,42.967-26.737,60.78
			c-2.044-11.865-3.597-19.894-4.774-27.976C2726.139,2998.058,2725.199,2989.176,2723.622,2976.364z M311.324,1254.471
			c2.369,0.801,4.739,1.601,7.108,2.402c46.128-27.34,177.473-161.332,190.663-197.144
			c-70.114,45.819-132.996,94.31-182.839,157.761C318.369,1227.531,316.159,1242.032,311.324,1254.471z M408.854,1286.73
			c59.456-34.916,138.736-166.566,141.023-231.273C497.6,1129.387,436.336,1197.822,408.854,1286.73z M314.354,949.495
			c0,11.529,0.578,21.904-0.16,32.185c-0.765,10.657,3.995,14.963,13.969,16.637c66.684,11.196,132.096-1.367,197.727-10.125
			C456.234,975.45,386.577,962.707,314.354,949.495z M577.959,1205.642c1.787,0.121,3.575,0.242,5.362,0.362
			c13-74.62,25.999-149.239,38.397-220.405c-8.953,3.588-17.885,5.563-24.823,10.399c-6.992,4.875-14.403,11.69-17.264,19.297
			c-3.449,9.17-1.655,20.172-3.246,30.205C567.891,1099.074,567.212,1152.448,577.959,1205.642z M955.392,1132.021
			c-11.793,67.007,57.098,228.445,107.955,254.037C1027.249,1301.113,991.986,1218.133,955.392,1132.021z M646.722,2138.905
			c-2.922-70.617-4.514-141.526-43.135-204.32C597.707,2007.131,601.855,2077.479,646.722,2138.905z M3680.826,904.274
			c20.91-46.519-18.134-174.433-57.01-192.456C3627.763,780.476,3656.716,839.135,3680.826,904.274z M3650.361,709.018
			c36.164,52.062,58.376,110.286,111.608,147.968C3765.548,797.148,3706.821,718.445,3650.361,709.018z M1075.838,1373.484
			c0.512-94.69-40.552-171.342-102.415-238.938C1007.562,1214.193,1041.7,1293.838,1075.838,1373.484z M2558.734,3037.736
			c-4.483,17.583-9.08,31.502-11.375,45.79c-2.21,13.757-1.425,28.209,13.219,35.695c15.865,8.11,30.451,3.035,43.001-8.021
			c29.615-26.088,19.621-71.421-18.756-89.769c0,14.341,0,29.145,0,43.949c-1.56,0.545-3.119,1.091-4.679,1.637
			C2573.896,3058.473,2567.649,3049.929,2558.734,3037.736z M3460.056,1457.658c-44.551-18.125-173.883-15.655-209.314,3.291
			C3320.668,1476.079,3390.536,1485.19,3460.056,1457.658z M3455.916,938.459c47.747-20.167,84.301-114.88,61.025-153.92
			C3483.475,830.593,3462.598,879.793,3455.916,938.459z M604.649,963.89c-15.022-61.214-54.418-103.356-96.651-148.254
			C506.923,875.769,553.894,947.297,604.649,963.89z M3204.073,666.133c41.088,15.986,190.417,14.384,225.639-1.107
			C3351.039,652.848,3277.443,640.076,3204.073,666.133z M628.591,1851.411c19.335,80.111,94.721,181.675,142.256,196.844
			c-37.804-55.186-76.016-111.412-114.837-167.213C649.339,1871.453,640.071,1863.671,628.591,1851.411z M3533.417,1501.878
			c-72.225,12.184-129.475,51.096-180.714,100.737C3420.596,1582.699,3481.163,1549.708,3533.417,1501.878z M2897.86,3030.119
			c-8.352,9.815-13.88,18.048-21.182,24.164c-3.68,3.083-11.639,4.521-15.658,2.571c-2.873-1.394-3.934-9.912-3.121-14.806
			c1.685-10.143,5.155-19.99,7.891-29.958c-22.935,21.191-40.651,45.302-45.366,75.651c-1.632,10.502,4.516,22.214,7.111,33.373
			c11.072-3.706,24.458-4.656,32.776-11.642C2883.74,3089.795,2892.424,3061.754,2897.86,3030.119z M665.592,1858.407
			c49.266,49.176,112.87,63.664,178.401,73.533C790.811,1892.562,731.86,1866.76,665.592,1858.407z M614.235,2846.546
			c-2.675,0.522-5.351,1.044-8.026,1.565c-7.903-19.181-15.805-38.363-23.708-57.544c-2.078,0.285-4.155,0.569-6.233,0.854
			c2.168,25.21,2.528,50.778,7.397,75.455c1.936,9.811,12.495,19.613,21.563,25.916c12.673,8.811,26.858,2.855,29.967-12.38
			c6.526-31.972-1.791-61.804-17.16-90.042C616.769,2809.095,615.502,2827.821,614.235,2846.546z M443.093,1081.439
			c-0.209-0.682-0.418-1.364-0.627-2.046c-39.974,17.726-79.976,35.393-119.86,53.319c-2.537,1.14-5.885,4.251-5.947,6.524
			c-0.488,18.081-0.272,36.182-0.272,54.706C360.057,1155.168,401.575,1118.303,443.093,1081.439z M734.201,2866.568
			c-3.057,0.585-6.113,1.17-9.169,1.755c-6.147-20.022-12.294-40.045-18.407-59.957c-18.712,24.084-12.614,77.271,7.442,97.517
			c5.697,5.751,16.674,11.468,23.17,9.687c5.836-1.6,12.313-13.443,12.457-20.885c0.441-22.809-2.027-45.674-3.364-68.517
			c-1.511-0.063-3.022-0.126-4.533-0.189C739.265,2839.509,736.733,2853.039,734.201,2866.568z M3336.378,811.515
			c30.808-22.886,58.538-43.486,86.269-64.086c-0.323-1.177-0.646-2.353-0.969-3.53c-32.407,2.744-64.813,5.488-99.565,8.431
			C3327.209,773.475,3331.567,791.558,3336.378,811.515z M2997.333,3277.535c-30.329,12.89-52.782,28.691-68.632,52.594
			c-3.292,4.966-3.834,11.754-5.644,17.703c6.589,1.249,13.579,4.581,19.699,3.401c34.015-6.558,55.997-29.644,78.251-59.791
			c-14.44,5.739-24.786,9.851-35.132,13.963c-0.734-1.315-1.467-2.631-2.2-3.946
			C2987.426,3294.889,2991.176,3288.321,2997.333,3277.535z M3639.184,675.419c44.53-31.508,91.961-65.068,140.13-99.15
			C3714.188,579.365,3651.868,625.771,3639.184,675.419z M3494.36,1685.787c41.241-38.776,59.256-85.926,53.982-141.809
			C3524.624,1589.138,3498.659,1633.412,3494.36,1685.787z M699.713,1324.251c-22.331-3.876-44.277-6.338-65.475-11.739
			c-21.589-5.501-42.44-13.893-64.215-21.222c-1.64,18.102,1.548,30.464,23.844,33.669c22.982,3.304,45.681,10.096,67.785,17.504
			C680.137,1348.659,692.75,1346.235,699.713,1324.251z M788.22,1691.552c-46.214,11.628-128.364,64.369-142.088,90.374
			C701.142,1765.314,742.215,1729.501,788.22,1691.552z M3559.725,1770.111c-2.582,27.326,2.993,32.867,28.583,29.272
			c12.181-1.711,24.593-3.593,36.785-3.001c18.54,0.9,25.819-7.258,24.639-26.271
			C3620.192,1770.111,3590.672,1770.111,3559.725,1770.111z M811.118,2875.584c-2.74,10.983-4.62,16.554-5.473,22.278
			c-3.843,25.81-2.017,50.782,14.026,72.615c10.115,13.765,23.989,14.586,29.092,1.619c8.34-21.189,5.512-42.448-2.772-67.357
			c-3.311,19.271-5.864,34.125-8.417,48.979c-3.375,0.005-6.75,0.01-10.125,0.015
			C822.426,2929.69,817.401,2905.647,811.118,2875.584z M173.97,2208.202c9.01-66.771-0.798-290.307-14.29-316.54
			C164.464,1997.625,169.176,2102.012,173.97,2208.202z M1055.449,1568.244c2.577-0.488,5.154-0.977,7.731-1.465
			c9.942-12.373,19.885-24.746,30.602-38.083c-19.398-11.143-37.668-21.639-55.937-32.134c-1.7,0.908-3.399,1.816-5.099,2.724
			C1040.313,1522.271,1047.881,1545.257,1055.449,1568.244z M1129.474,2754.042c27.506,23.621,54.007,46.378,80.507,69.135
			c0.958-0.61,1.917-1.22,2.875-1.83c-15.605-27.636-31.21-55.273-47.526-84.168
			C1151.733,2743.574,1140.292,2748.955,1129.474,2754.042z M860.835,293.585c-40.237-19.419-114.758-22.965-127.71-4.134
			c43.712-4.266,83.336,4.421,120.509,25.579C856.392,306.818,858.429,300.751,860.835,293.585z M3347.368,545.06
			c-1.269,1.557-2.537,3.113-3.806,4.67c40.454,32.636,80.907,65.273,121.36,97.909
			C3435.671,601.306,3397.071,566.402,3347.368,545.06z M16.176,865.405c2.744,21.318,18.235,23.967,54.976,12.189
			c0-5.957,0-12.121,0-21.466C52.251,859.317,34.83,862.257,16.176,865.405z M3371.885,1530.001
			c16.665-14.367,30.086-25.938,45.902-39.573c-19.267,1.224-34.966,2.222-52.438,3.333
			C3367.546,1505.94,3369.356,1515.976,3371.885,1530.001z M628.771,1897.502c-7.085-15.873-13.495-30.235-21.84-48.932
			c-2.324,17.774-4.013,30.699-5.777,44.187C611.314,1894.503,619.367,1895.886,628.771,1897.502z M2437.348,2238.229
			c1.167-2.035,2.333-4.071,3.5-6.106c-18.038-10.519-36.075-21.037-54.113-31.556c-1.443,2.522-2.885,5.045-4.328,7.567
			C2400.721,2218.166,2419.034,2228.198,2437.348,2238.229z"/>
		<path d="M1118.493,728.225c33.98,75.613,52.839,154.6,66.327,235.617c-86.787-50.976-122.146-131.169-132.129-228.071
			c-35.225,99.526-101.704,175.496-177.782,246.237c-14.594-15.938-12.244-32.943-9.184-49.161
			c11.101-58.833,40.88-109.194,73.853-157.861c9.794-14.455,21.079-27.899,32.812-43.291
			c-45.468-8.289-73.436-37.583-94.148-75.115c-16.454-29.814-26.417-61.568-22.62-98.3
			c54.291,41.141,98.076,92.427,140.134,139.845c38.37-21.611,75.965-42.785,114.699-64.6
			c-95.132-12.198-190.435-23.327-257.891-109.47c62.547-16.693,121.372-30.843,179.212-48.265
			c57.762-17.399,114.537-38.074,172.222-59.83c-25.558,1.338-51.32,1.082-76.635,4.32c-70.254,8.986-135.644,35.296-201.834,58.729
			c-23.545,8.336-47.807,14.648-72.507,22.115c-5.519-64.564,146.24-263.143,218.693-282.617
			c-23.048,43.181-43.767,87.831-69.803,129.129c-25.807,40.936-56.973,78.493-84.391,115.64
			c32.41-11.347,68.107-24.826,104.426-36.348c68.098-21.604,137.382-36.028,209.316-24.605c18.007,2.86,35.451,9.261,54.025,14.27
			c-117.101,35.436-231.187,69.96-350.203,105.975c15.687,3.428,26.902,5.597,37.973,8.345
			c58.647,14.556,113.81,36.43,161.375,75.117c4.539,3.692,14.148,4.152,20.315,2.362c47.299-13.731,94.328-28.39,142.036-42.943
			c0.983,19.681,0.983,19.681-67.538,55.795c49.92,0.704,95.334-0.874,144.659,14.131c-10.836,7.082-16.515,12.096-23.13,14.912
			c-57.13,24.326-116.842,35.656-178.872,32.644c-15.014-0.729-34.74-0.957-38.652-19.238
			c-3.947-18.443,15.183-23.336,27.883-30.318c11.658-6.409,23.926-11.707,33.992-21.713
			c-38.736,17.352-77.472,34.705-118.43,53.052c6.241,10.602,11.641,19.777,17.041,28.952c0.936-0.415,1.873-0.829,2.809-1.244
			c-2.825-7.541-5.649-15.083-8.543-22.809c71.471-8.721,237.481,134.743,230.663,199.998
			C1240.343,838.748,1168.589,799.604,1118.493,728.225z M1046.925,689.25c-73.81,47.398-168.14,197.228-161.238,256.359
			C962.8,874.635,1020.015,792.403,1046.925,689.25z M1162.539,927.92c-19.248-79.796-34.54-156.418-83.649-221.961
			C1057.974,764.713,1101.944,883.94,1162.539,927.92z M1106.221,611.428c-63.409-47.253-135.243-69.149-213.836-70.573
			C954.084,592.655,1027.917,608.572,1106.221,611.428z M1291.966,835.988c-43.5-62.685-96.689-113.518-174.598-142.591
			C1161.207,764.147,1219.447,808.801,1291.966,835.988z M881.217,460.291c65.702-48.422,105.827-116.104,140.611-187.772
			C961.651,324.974,916.113,388.509,881.217,460.291z M979.72,705.666c-33.682-36.149-67.364-72.299-104.458-112.11
			C884.498,657.953,931.165,709.594,979.72,705.666z M1314.837,643.123c-75.023-10.896-143.232-1.477-157.275,20.527
			C1212.182,670.259,1264.206,661.252,1314.837,643.123z"/>
		<path d="M1758.327,2879.245c60.331-15.196,120.738-30.099,180.965-45.696c35.831-9.279,71.246-20.187,107.16-29.102
			c7.727-1.918,16.8,1.588,25.253,2.595c-4.178,7.632-6.938,16.626-12.755,22.685c-52.997,55.198-118.639,86.966-193.885,95.443
			c-53.482,6.025-107.681,5.93-161.59,7.598c-6.647,0.206-13.48-5.575-20.227-8.582c6.586-2.12,13.181-6.103,19.757-6.071
			c67.064,0.328,134.17,1.72,199.816-15.676c53.719-14.235,101.025-39.84,139.443-82.736c-18.886,5.062-37.913,9.654-56.634,15.268
			c-74.11,22.225-147.575,47.156-225.511,52.989c-17.612,1.318-35.028,0.985-51.331-17.135
			c16.767-5.698,31.037-10.937,45.543-15.411c66.368-20.469,128.903-48.691,184.578-90.819c7.77-5.879,14.503-13.223,22.612-18.518
			c3.692-2.411,9.567-1.48,15.05,0.66c-61.064,64.728-139.766,96.332-220.126,125.007
			C1757.071,2874.245,1757.699,2876.745,1758.327,2879.245z"/>
		<path d="M2961.489,1821.215c-13.547-11.245-27.094-22.49-40.64-33.735c27,6.092,44.904,24.815,62.033,44.715
			c-7.351-3.89-14.703-7.78-22.047-11.658C2960.842,1820.55,2961.489,1821.215,2961.489,1821.215z"/>
		<path d="M2974.846,1788.22c11.577,12.13,23.155,24.26,34.732,36.39c-1.044,1.137-2.088,2.274-3.132,3.411
			c-12.813-10.893-25.627-21.787-38.441-32.681C2970.286,1792.967,2972.566,1790.594,2974.846,1788.22z"/>
		<path d="M2254.389,1163.055c1.079,35.548,0.98,36.04,33.387,42.528c64.949,13.003,129.379,13.902,191.528-13.007
			c31.952-13.834,59.243-32.916,67.622-70.186c0.779-3.466,6.57-5.805,10.034-8.667c0.956,4.526,4.101,10.124,2.499,13.397
			c-7.922,16.181-17.367,31.607-25.737,47.582c-5.185,9.896-11.093,19.871-13.778,30.54
			c-12.342,49.038-18.885,100.113-36.396,147.148c-31.521,84.666-94.167,137.395-184.567,153.005
			c-71.153,12.287-143.605-22.121-182.199-83.939c-33.186-53.157-50.328-112.401-67.478-171.861
			c-3.026-10.493-11.415-21.503-20.446-27.81c-25.766-17.995-40.68-41.169-41.903-67.345c-18.364-0.708-35.413-1.52-52.472-1.875
			c-2.97-0.062-6.022,1.687-8.963,2.794c-15.232,5.736-28.572,7.538-29.527-14.253c-2.573-0.356-3.865-0.779-5.112-0.672
			c-25.141,2.165-27.161,0.385-20.837-23.167c3.209-11.953,1.279-18.168-11.953-20.515c-31.739-5.629-32.159-6.748-27.077-36.906
			c-13.455-5.917-26.246-11.542-39.036-17.167c5.069-9.875,10.138-19.75,15.657-30.502c-1.845-0.76-5.909-2.212-9.779-4.067
			c-19.653-9.416-19.267-14.74-2.84-28.955c10.529-9.111,19.167-21.146,26.37-33.231c25.618-42.986,48.662-87.581,75.704-129.622
			c28.179-43.809,67.463-75.563,118.218-91.003c70.966-21.588,127.448,6.256,152.002,76.046c6.4,18.189,9.88,37.788,11.886,57.033
			c1.991,19.103,0.436,38.575,0.436,53.565c33.665-7.178,70.72-15.783,108.093-22.656c12.551-2.308,25.96-0.81,38.879,0.201
			c4.575,0.358,8.858,4.443,13.275,6.827c-4.464,2.137-8.811,5.791-13.412,6.146c-19.417,1.498-39.29-0.136-58.313,3.233
			c-128.809,22.812-211.548,102.01-260.901,219.029c-16.274,38.588-2.435,68.393,36.336,86.164
			c47.388,21.721,97.041,21.862,147.094,10.012c7.582-1.795,15.045-4.118,22.51-6.375c34.848-10.537,37.232-14.944,29.273-46.818
			c-31.91-12.758-62.525-21.933-89.896-37.001c-18.71-10.3-34.293-27.593-48.712-44.009c-14.307-16.29-12.671-27.874,4.743-41.547
			c12.565-9.865,26.911-18.72,41.878-24.054c73.071-26.041,147.377-30.688,222.114-7.267c34.755,10.892,39.146,22.631,18.866,53.703
			C2359.127,1117.073,2312.361,1147.009,2254.389,1163.055z M1798.634,996.024c8.613,3.225,19.1,7.15,30.526,11.428
			c-9.687,11.409-17.702,20.849-27.589,32.495c8.327,1.654,12.573,2.854,16.897,3.298c28.721,2.955,28.677,2.889,21.799,28.939
			c-0.622,2.354-0.083,5.015-0.083,7.277c44.101,18.289,44.101,18.289,40.486,44.045c12.45,6.897,23.314,12.916,34.178,18.935
			c-0.69,2.068-1.381,4.137-2.071,6.205c7.882-4.103,15.764-8.206,23.382-12.171c23.067,15.72,46.687,8.195,56.748-18.97
			c18.23-49.221,47.667-90.724,84.896-127.075c6.622-6.466,14.247-11.905,21.409-17.818
			c-68.027-13.42-124.364,10.937-181.099,39.624c0-5.839-1.348-10.256,0.199-13.094c29.296-53.711,66.981-99.544,125.457-122.927
			c26.898-10.756,53.871-1.794,71.328,21.616c9.494,12.732,15.726,27.897,26.06,46.77c7.276-12.625,16.406-22.883,19.401-34.696
			c9.579-37.773,4.342-75.004-10.434-110.746c-22.45-54.304-63.254-75.016-120.744-61.693
			c-59.114,13.699-99.129,52.731-130.567,101.533c-22.167,34.41-41.177,70.84-62.731,105.666
			C1825.354,962.001,1812.078,977.759,1798.634,996.024z M2308.448,1373.659c-2.204-2.427-4.409-4.853-6.613-7.28
			c13.252-12.156,26.504-24.312,39.441-36.178c-73.593-22.025-137.372,9.286-163.564,80.747
			c94.041,68.409,241.551,6.356,266.102-86.261C2388.834,1313.488,2346.761,1338.11,2308.448,1373.659z M2065.806,1234.147
			c-1.94,0.997-3.88,1.995-5.819,2.992c17.952,62.919,36.749,125.532,72.021,181.701c19.845,31.602,48.267,52.641,83.472,63.868
			c83.789,26.724,152.906-1.472,209.474-62.472c57.596-62.108,71.533-142.095,80.333-223.291
			c-6.121,5.502-10.441,11.993-12.344,19.128c-5.853,21.943-9.667,44.472-16.277,66.163
			c-19.935,65.416-51.513,121.709-117.875,151.819c-83.219,37.758-194.591,28.34-249.839-83.833
			c-15.068-30.593-23.53-64.432-35.155-96.733C2071.437,1246.933,2068.485,1240.589,2065.806,1234.147z M2281.776,1221.275
			c-21.116,39.2-41.302,76.673-63.87,118.57c43.307-31.815,86.013-33.171,130.655-19.754c4.196,1.261,9.54,3.576,12.869,2.088
			c29.518-13.195,60.15-13.357,93.754-7.01c10.5-35.918,20.579-70.399,31.537-107.883c-18.849,6.432-36.493,6.576-33.31,29.986
			c1.612,11.855-0.74,24.43-15.35,27.854c-14.993,3.514-29.884-1.593-34.245-15.588c-7.376-23.667-21.999-22.774-40.513-17.779
			c-0.85,2.435-1.937,4.816-2.512,7.315c-3.253,14.131-11.212,24.445-26.245,24.499c-15.205,0.055-23.887-11.195-26.365-24.605
			C2305.063,1222.098,2293.542,1221.8,2281.776,1221.275z M2166.289,1405.105c36.06-62.405,76.725-120.093,103.574-186.104
			c-20.053-8.32-30.622-2.489-37.871,14.465c-13.105,30.651-20.838,34.114-51.515,26.067c-1.827,13.603-2.393,28.473-20.853,30.199
			c-18.217,1.704-25.23-9.98-28.665-25.401c-0.987-4.431-1.389-9.302-3.605-13.059c-2-3.39-5.824-7.329-9.348-7.896
			c-11.78-1.895-23.785-2.385-37.558-3.574C2095.071,1303.395,2118.549,1359.378,2166.289,1405.105z M2245.098,1150.392
			c16.901-21.111,27.889-42.887,45.531-54.849c22.419-15.201,49.549-24.948,75.98-32.167c15.51-4.236,21.822-12.291,20.81-24.633
			c-0.351-4.286-14.444-9.693-22.681-10.554c-12.071-1.261-24.981-0.716-36.73,2.246c-52.761,13.298-106.248,17.119-160.422,15.939
			c-13.467-0.293-27.336,1.519-40.385,4.854c-7.344,1.877-13.388,8.839-20.017,13.51c0.567,1.892,1.133,3.783,1.7,5.675
			C2171.963,1068.194,2218.831,1093.774,2245.098,1150.392z M2125.429,951.016c-3.121-55.047-49.846-84.699-93.123-58.981
			c-28.181,16.746-51.589,41.523-77.136,62.702c1.314,2.193,2.628,4.386,3.942,6.578
			C2012.114,928.685,2065.816,906.77,2125.429,951.016z M2114.429,1083.235c33.342,35.574,69.646,57.254,115.886,65.555
			C2208.73,1103.464,2169.164,1080.764,2114.429,1083.235z M2157.311,1033.782c56.89,2.374,113.511,2.161,171.903-16.874
			C2267.93,1008.128,2211.596,1011.097,2157.311,1033.782z M2262.824,1149.464c43.72-16.833,77.055-40.854,104.038-73.753
			C2321.673,1082.704,2284.232,1100.797,2262.824,1149.464z M2110.257,958.184c-40.415-35.583-111.734-23.919-159.629,26.906
			C2004.076,961.442,2055.002,946.83,2110.257,958.184z M2406.595,1227.606c4.119,15.413,9.626,30.199,26.018,25.848
			c6.938-1.842,10.114-17.858,14.999-27.432c-1.765-1.427-3.531-2.854-5.296-4.281
			C2430.744,1223.642,2419.171,1225.541,2406.595,1227.606z M2137.015,1244.566c6.054,14.643,2.699,35.041,21.651,31.968
			c18.265-2.962,9.418-21.209,10.771-35.176C2158.667,1242.424,2149.319,1243.349,2137.015,1244.566z M2316.687,1226.873
			c2.505,13.809,4.85,27.164,20.05,25.24c5.843-0.74,10.322-12.252,18.553-22.91
			C2337.938,1228.156,2327.893,1227.55,2316.687,1226.873z M2223.001,1234.709c-1.187-1.88-2.374-3.761-3.561-5.641
			c-11.082,3.127-22.163,6.254-33.245,9.38c-0.304,1.882-0.607,3.765-0.911,5.647c5.485,3.107,12.836,10.111,16.089,8.554
			C2209.569,1248.728,2215.915,1240.945,2223.001,1234.709z"/>
		<path d="M2845.249,957.015c-5.303,2.099-8.103,3.534-11.074,4.333c-28.945,7.779-27.203,7.526-23.563,36.162
			c1.758,13.834-1.091,30.519-7.698,42.758c-28.01,51.881-77.302,72.711-131.79,83.657c-7.361,1.479-15.978-3.293-24.915-5.381
			c-14.446,18.698-27.077,20.819-47.55,3.383c-11.177-9.52-21.483-21.15-28.958-33.742c-34.084-57.42-77.356-107.262-132.688-143.59
			c-61.611-40.45-73.246-95.188-59.023-161.027c3.956-18.31,8.85-36.75,16.102-53.956c28.397-67.379,79.385-90.967,149.693-71.014
			c51.021,14.48,92.879,43.925,128.319,81.888c30.107,32.25,56.739,67.718,85.634,101.135
			c23.775,27.497,49.337,53.473,72.561,81.407C2837.698,931.931,2840.144,944.953,2845.249,957.015z M2426.412,917.537
			c-0.452-7.432-0.821-11.948-0.988-16.472c-1.99-53.985,35.821-86.932,88.994-76.631c39.18,7.59,73.339,26.872,103.766,51.631
			c16.315,13.276,29.813,30.454,42.643,47.345c4.765,6.273,3.99,16.754,5.742,25.315c-8.142-0.016-16.365,0.71-24.412-0.172
			c-41.227-4.519-82.317-10.797-123.649-13.598c-17.277-1.171-35.033,4.737-52.571,7.426
			c51.527,44.663,89.514,96.099,123.717,151.111c7.78,12.513,22.882,20.472,36.375,32.036c6.458-13.085,10.229-20.725,12.904-26.146
			c11.174,5.188,21.676,14.775,30.116,13.213c52.794-9.767,100.091-30.883,125.807-81.634c5.878-11.599,4.026-28.754,1.479-42.567
			c-3.166-17.164-0.307-25.853,16.681-30.691c4.632-1.319,9.233-2.748,15.776-4.703c-8.231-6.124-14.261-10.61-22.167-16.492
			c6.305-2.703,10.408-4.462,12.22-5.238c-27.164-32.124-53.572-64.101-80.805-95.358c-29.867-34.28-58.984-69.421-91.212-101.379
			c-33.234-32.957-73.662-55.525-120.24-64.984c-54.999-11.169-92.49,7.643-115.854,58.45
			c-18.873,41.044-26.018,84.258-20.892,129.271C2392.62,881.672,2403.669,901.375,2426.412,917.537z M2447.968,935.164
			c25.907-34.413,57.685-51.62,98.872-48.559c39.432,2.931,71.521,23.958,105.951,41.84c-5.221-10.409-11.184-20.152-19.31-27.505
			c-31.662-28.651-67.358-51.056-108.459-63.487c-11.589-3.505-24.339-5.133-36.426-4.612
			c-23.938,1.033-39.633,15.288-48.119,36.866C2432.052,891.129,2430.862,912.491,2447.968,935.164z M2466.903,931.643
			c58.706-15.363,113.294-5.443,172.033,3.948C2565.765,885.01,2503.862,883.195,2466.903,931.643z"/>
		<path d="M2493.616,1489.148c-1.756,3.73-2.657,8.311-5.397,11.058c-30.669,30.744-57.988,66.462-93.163,90.781
			c-117.656,81.342-253.594,33.257-312.753-92.903c-2.297-4.898-0.846-11.554-1.142-17.39c4.624,3.951,10.91,7,13.62,11.99
			c35.629,65.614,84.524,114.564,162.618,121.897c63.279,5.942,117.118-18.141,162.104-62.098
			c18.576-18.151,35.841-37.637,54.112-56.111c4.587-4.638,10.753-7.714,16.193-11.507
			C2491.077,1486.292,2492.346,1487.72,2493.616,1489.148z"/>
		<path d="M873.088,3402.306c-7.701,28.355-11.933,57.782-23.621,83.867c-19.497,43.514-60.833,57.194-104.52,37.684
			c-108.376-48.401-131.645-139.004-91.348-238.933c14.031-34.793,46.866-52.71,85.158-49.35
			c54.056,4.744,93.741,31.517,113.285,82.372C862.124,3344.179,865.96,3372.814,873.088,3402.306z M857.682,3399.138
			c-8.397-28.839-13.919-58.383-25.556-85.281c-17.292-39.965-51.556-58.8-94.369-62.207c-33.989-2.705-57.267,11.48-71.292,42.863
			c-40.592,90.828-3.475,180.736,89.493,216.775c32.096,12.442,64.886,2.063,78.842-30.071
			C845.692,3456.142,849.887,3428.156,857.682,3399.138z"/>
		<path d="M527.169,3153.236c1.429-49.177,13.762-95.204,42.746-135.49c36.822-51.181,98.778-64.903,149.855-33.759
			c25.113,15.313,41.882,36.957,44.155,67.407c1.922,25.743-9.832,42.675-34.985,45.354c-53.959,5.749-86.862,37.162-108.297,83.972
			c-6.49,14.173-11.871,28.872-18.736,42.851c-13.857,28.218-39.332,31.407-55.136,3.785c-12.408-21.687-16.631-48.057-24.49-72.347
			C523.91,3154.418,525.539,3153.827,527.169,3153.236z M538.575,3155.153c6.885,21.216,11.598,43.501,21.34,63.312
			c7.856,15.977,20.695,13.772,28.379-2.649c4.392-9.385,7.689-19.278,11.692-28.852c24.053-57.53,61.117-99.107,127.607-105.848
			c18.211-1.846,23.949-16.155,20.712-31.398c-2.582-12.161-8.724-24.784-16.688-34.377c-37.898-45.65-106.238-42.021-145.296,7.397
			C556.104,3060.968,545.495,3106.051,538.575,3155.153z"/>
		<path d="M2864.823,3393.04c-6.956,27.332-12.202,55.421-21.65,82.018c-4.983,14.027-15.542,27.336-26.652,37.668
			c-25.36,23.584-57.641,19.802-77.354-8.722c-11.754-17.008-22.739-35.197-30.28-54.347
			c-24.892-63.221-74.715-97.783-134.636-121.591c-11.462-4.554-23.282-8.2-34.78-12.668
			c-39.975-15.532-53.049-53.506-26.896-87.686c11.55-15.095,29.688-27.925,47.526-34.897
			c47.183-18.441,96.922-25.206,147.434-16.92c74.879,12.282,115.651,63.047,138.857,130.006
			C2855.83,3333.128,2858.621,3362.657,2864.823,3393.04z M2845.301,3396.47c0.338-46.469-9.635-86.573-30.071-123.752
			c-22.617-41.146-54.821-71.536-102.359-80.484c-51.771-9.744-102.728-2.896-151.347,16.142
			c-14.258,5.583-28.31,17.077-37.313,29.569c-18.856,26.161-8.968,52.061,21.218,63.318c7.305,2.724,14.772,5.008,22.111,7.642
			c70.599,25.343,128.866,64.55,157.404,138.091c5.139,13.243,12.444,25.813,19.987,37.923
			c22.655,36.373,51.643,36.564,75.791,0.616C2839.581,3457.461,2844.521,3425.495,2845.301,3396.47z"/>
		<path d="M2543.577,3707.928c-80.817,0.21-129.538-45.924-129.453-122.416c0.031-27.476,3.94-55.893,11.751-82.197
			c12.164-40.962,41.883-58.97,84.303-57.446c71.153,2.556,138.732,58.75,153.896,127.97
			c14.735,67.262-30.12,124.204-104.906,133.051C2552.732,3707.651,2546.219,3707.76,2543.577,3707.928z M2424.205,3573.202
			c1.625,0.469,3.251,0.939,4.876,1.408c-0.224,39.07,5.148,75.646,42.296,98.836c47.013,29.349,111.115,24.321,152.825-12.144
			c20.643-18.048,29.525-41.127,27.385-67.917c-5.79-72.473-79.724-136.124-152.152-131.867
			c-23.308,1.37-43.144,10.699-51.725,32.344C2437.585,3519.4,2431.846,3546.678,2424.205,3573.202z"/>
	</g>
</g>
</svg>
