<?xml version="1.0" encoding="utf-8"?>
<!-- Generator: Adobe Illustrator 27.5.0, SVG Export Plug-In . SVG Version: 6.00 Build 0)  -->
<svg xmlns="http://www.w3.org/2000/svg" xmlns:xlink="http://www.w3.org/1999/xlink" viewBox="0 0 4000 4000" width="595" height="842" preserveAspectRatio="xMidYMid meet" data-scaled="true">
<g>
	<rect style="fill:#FFFFFF;" width="4000" height="4000"/>
	<g>
		<path d="M927.147,3121.97c-23.897-7.759-47.794-15.519-74.482-24.184c0.935-0.19-1.597-0.284-3.443,0.796
			c-16.049,9.391-30.51,6.205-44.874-4.25c-15.463-11.255-31.524-21.689-47.325-32.481c-22.355-15.268-22.894-16.404-20.285-44.337
			c-16.714-5.98-34.93-10.037-49.264-21.778c-13.576-11.12-26.42-23.132-41.06-36.052c-1.989,0-5.742-0.165-9.476,0.036
			c-6.637,0.357-11.745-2.479-16.32-6.974c-20.297-19.941-37.095-42.75-53.836-65.6c-4.968-6.78-5.314-14.241-1.745-21.733
			c2.286-4.799,5.055-9.367,8.215-15.151c-13.479-12.055-28.298-23.449-36.605-39.808c-8.237-16.221-14.334-33.53-22.02-51.918
			c0.31,0.242-0.763-1.262-2.092-1.539c-19.554-4.083-29.567-16.73-34.434-35.535c-4.789-18.5-10.945-36.67-17.071-54.793
			c-5.073-15.005-5.422-28.516,8.243-39.48c1.642-1.318,2.364-3.783,3.982-6.507c-18.688-28.762-21.934-61.166-19.812-94.482
			c0.539-8.468-1.016-15.448-8.247-19.877c-13.819-8.465-15.936-21.675-15.187-35.948c0.962-18.34,1.886-36.716,3.881-54.962
			c3.19-29.174,5.256-31.937,29.799-48.574c-7.451-40.292,5.341-77.924,18.786-114.755c-0.579-2.186-0.54-4.001-1.417-5.052
			c-11.499-13.779-9.653-27.682-1.761-42.537c10.05-18.919,19.464-38.197,28.518-57.616c6.396-13.718,15.336-22.606,31.55-21.749
			c2.077,0.11,4.239-1.385,7.005-2.365c0.819-3.541,1.961-7.154,2.463-10.854c4.095-30.15,19.153-54.62,39.979-75.797
			c6.661-6.772,12.836-12.415,11.202-23.399c-1.181-7.937,3.656-14.555,9.646-19.902c18.841-16.818,37.639-33.683,56.456-50.529
			c9.934-8.893,21.123-11.897,34.002-7.398c2.781,0.972,5.707,1.53,9.256,2.458c20.736-30.403,50.355-48.937,82.368-64.224
			c7.923-3.784,14.538-8.089,16.939-17.272c2.072-7.922,7.756-12.904,15.124-16.21c18.845-8.457,37.62-17.071,56.479-25.496
			c2.771-1.238,5.858-1.76,8.784-2.66c18.521-5.695,36.165-5.766,51.9,9.188c23.441-16.009,49.254-24.936,76.818-28.9
			c7.565-1.088,15.207-2.337,22.808-2.302c9.904,0.045,18.035-2.974,24.331-10.557c8.73-10.515,20.233-12.852,33.086-11.753
			c20.59,1.761,41.252,2.855,61.771,5.214c21.757,2.502,23.931,4.295,38.419,22.582c36.661-5.535,72.275,2.263,107.253,14.548
			c7.327,2.573,14.709,4.189,22.418,1.306c11.621-4.345,22.66-1.626,33.349,3.3c16.68,7.688,33.405,15.3,49.867,23.438
			c23.078,11.409,24.036,13.335,23.424,39.804c2.246,0.849,4.924,2.755,7.582,2.729c35.036-0.343,63.626,15.824,89.522,36.746
			c10.851,8.767,20.94,14.32,34.954,13.115c10.454-0.899,19.199,3.224,26.304,11.418c13.534,15.609,27.529,30.818,41.329,46.196
			c0.511,0.569,0.986,1.171,1.471,1.764c16.18,19.768,16.506,22.051,6.405,44.767c0.815,1.213,1.383,3.148,2.486,3.528
			c16.796,5.786,28.736,17.529,37.759,32.089c8.444,13.627,16.279,27.727,23.128,42.212c4.975,10.521,11.217,18.116,23.318,19.277
			c12.045,1.156,19.316,7.989,23.622,18.922c8.404,21.335,17.1,42.554,25.558,63.868c5.384,13.568,3.106,25.489-8.127,35.307
			c-1.143,0.999-2.177,2.144-3.133,3.325c-0.442,0.546-0.574,1.342-1.347,3.276c19.377,18.394,25.238,43.613,30.408,69.063
			c1.674,8.243,3.272,16.599,3.719,24.967c0.502,9.392,4.251,16.256,12.539,20.281c11.112,5.398,14.574,14.978,15.281,26.247
			c1.387,22.143,2.848,44.282,4.007,66.438c0.794,15.182-4.377,26.981-19.742,32.594c-2.04,0.745-3.692,2.55-6.559,4.607
			c1.834,6.98,3.983,14.155,5.563,21.453c1.603,7.404,2.645,14.931,4.063,23.154c14.783,2.525,28.927,3.018,43.63,0.353
			c4.022-8.425,2.298-16.96,2.3-25.135c0.015-91.877-0.187-183.754-0.27-275.632c-0.007-7.505,0.435-15.011,0.685-23.083
			c22.141-5.833,43.777-0.496,64.09-4.36c2.919-4.973,0.066-7.868-2.149-10.884c-37.588-51.2-74.927-102.584-112.843-153.539
			c-53.451-71.834-107.268-143.396-161.053-214.981c-28.498-37.93-57.432-75.534-85.762-113.587
			c-6.023-8.09-12.603-12.439-22.939-12.039c-16.058,0.621-32.151,0.365-48.229,0.411c-196.004,0.561-392.008,1.058-588.011,1.758
			c-15.251,0.054-31.383-1.313-45.487,3.123c-13.316,4.188-24.58,15.041-36.605,23.172
			c-51.985,35.155-103.846,70.496-155.944,105.482c-8.706,5.846-17.379,12.585-28.405,13.075
			c-6.174-5.642-3.398-11.898-2.417-17.488c4.501-25.635,9.319-51.215,14.2-76.781c7.466-39.104,15.033-78.188,22.678-117.257
			c1.015-5.188,2.744-10.235,3.986-14.775c7.989-4.311,15.792-2.932,23.323-2.955c32.922-0.103,65.846,0.136,98.768,0.078
			c7.527-0.013,15.304,1.245,22.194-2.296c5.826-17.795,92.078-546.152,106.215-650.696c0.898-6.641,0.943-13.397,1.478-21.53
			c-11.378-1.372-21.621-2.607-31.396-3.786c-4.103-18.674-4.52-78.893-0.679-100.49c5.352-0.568,11.174-1.698,17-1.721
			c35.985-0.143,71.971-0.005,107.956-0.016c310.853-0.097,621.707-0.218,932.56-0.292c33.688-0.008,67.377,0.18,101.064,0.406
			c6,0.04,11.996,0.714,18.527,1.13c5.685,17.16,2.24,34.036,2.728,50.594c0.472,16.059,0.217,32.166-0.409,48.225
			c-0.649,16.651,2.043,33.53-2.233,49.756c-18.52,3.888-51.983,4.121-74.087,0.547c-7.415-13.624-0.821-30.009-7.298-44.836
			c-5.529,0-11.198,0-17.185,0c-1.825,10.136,1.621,17.997,3.909,25.885c14.922,51.45,29.968,102.865,45.13,154.245
			c46.575,157.827,93.225,315.632,139.827,473.451c3.678,12.457,7.215,24.956,10.763,37.247c8.05,5.494,16.722,3.426,24.877,3.445
			c88.049,0.205,176.099,0.16,264.148,0.208c46.705,0.026,93.409,0.121,140.113,0.139c8.33,0.003,16.659-0.221,24.666-0.335
			c6.201-8.956,3.687-16.832,2.353-25.994c-13.008-0.932-24.955-1.788-38.412-2.752c-0.741-6.473-1.962-12.283-1.988-18.098
			c-0.346-80.391-0.532-160.783-0.748-241.174c-0.125-46.704-0.308-93.409-0.274-140.113c0.005-7.432-1.87-15.325,4.195-23.403
			c11.888-0.905,24.657-1.876,36.96-2.812c5.453-7.669,3.392-15.535,3.405-22.97c0.1-58.189-0.234-116.379,0.139-174.566
			c0.088-13.698,1.034-27.661,3.862-41.021c8.829-41.724,41.643-69.22,84.394-71.494c13.532-0.72,27.298-1.852,40.063,2.352
			c3.831,18.31,4.133,51.427,0.706,75.619c-6.597,1.607-13.851,3.236-21.028,5.156c-10.92,2.92-16.632,10.281-17.559,21.436
			c-0.19,2.282-0.122,4.587-0.124,6.882c-0.062,61.249-0.129,122.497-0.149,183.746c-0.001,3.767,0.383,7.534,0.658,12.586
			c4.364,1.088,8.506,2.677,12.756,3.06c8.229,0.742,16.519,0.804,24.963,1.155c4.608,9.133,3.074,17.653,3.089,25.815
			c0.124,65.846,0.099,131.691,0.054,197.537c-0.04,58.189-0.106,116.379-0.316,174.567c-0.03,8.272,1.451,16.843-3.274,25.878
			c-10.143,0.706-20.606,1.434-31.743,2.209c-3.165,8.863-3.526,16.721,0.966,25.482c5.893,0.299,11.938,0.872,17.984,0.875
			c207.49,0.106,414.98,0.153,622.47,0.229c13.781,0.005,27.566,0.018,41.341,0.354c4.427,0.108,8.829,1.266,14.798,2.182
			c-2.254,28.258-9.758,54.764-14.526,81.689c-4.803,27.12-10.163,54.143-15.404,81.184c-5.241,27.046-10.694,54.05-15.948,81.094
			c-5.4,27.795-10.6,55.628-16.019,83.419c-5.272,27.038-10.802,54.026-16.053,81.068c-5.251,27.039-10.315,54.115-15.429,81.181
			c-5.113,27.068-10.236,54.133-15.262,81.217c-5.004,26.969-11.479,53.695-14.627,82.233c20.639,3.241,40.478,0.572,60.193,0.992
			c19.898,0.425,39.812,0.101,59.719,0.135c19.907,0.034,39.813,0.092,59.72,0.162c19.792,0.069,39.583,0.166,60.833,0.257
			c0.919,7.123,2.286,12.936,2.317,18.756c0.174,32.921,0.021,65.844-0.007,98.766c-0.031,35.22-0.002,70.439-0.104,105.659
			c-0.022,7.576-0.493,15.15-0.703,21.149c-6.908,7.135-14.068,6.324-20.852,6.442c-22.965,0.398-45.935,0.511-68.9,0.917
			c-6.712,0.118-13.414,0.843-21.595,1.388c4.513,23.292,9.778,44.763,12.584,66.55c2.829,21.962,4.4,44.241,4.342,66.375
			c-0.057,22.131-1.599,44.427-4.724,66.333c-3.123,21.891-7.798,43.745-14.033,64.956c-6.238,21.219-14.059,42.175-23.375,62.229
			c-9.32,20.06-20.436,39.451-32.447,58.049c-12.011,18.598-25.119,36.702-39.563,53.455c-14.452,16.762-30.438,32.399-47.07,47.029
			c-16.615,14.615-34.277,28.23-52.561,40.699c-18.27,12.459-37.878,22.955-56.874,34.296c0.939,5.924,5.502,4.51,8.826,4.514
			c22.203,0.029,44.406-0.243,66.609-0.285c82.688-0.156,165.377-0.279,248.065-0.347c5.336-0.004,10.728,0.182,15.993,0.96
			c5.53,0.818,9.1,5.695,9.27,11.438c0.167,5.64-3.19,10.701-8.778,11.703c-5.21,0.934-10.605,1.143-15.919,1.142
			c-194.471-0.045-388.942-0.209-583.413-0.236c-225.098-0.032-450.196,0.091-675.293,0.07
			c-221.269-0.02-442.538-0.155-663.808-0.202c-135.514-0.029-271.028-0.036-406.542,0.037c-167.667,0.09-335.333,0.24-503,0.432
			c-55.125,0.063-110.25,0.384-165.375,0.465c-7.629,0.011-15.312-0.252-22.87-1.19c-5.68-0.706-9.772-5.721-10.299-10.83
			c-0.57-5.533,4.303-11.69,10.883-12.698c5.261-0.806,10.673-0.865,16.017-0.85c131.687,0.36,263.374,0.788,395.062,1.155
			c10.599,0.03,21.199-0.296,31.798-0.457C928.004,3123.425,927.576,3122.698,927.147,3121.97z M2807.128,3100.771
			c1.797,1.073,3.551,2.234,5.421,3.16c0.516,0.255,1.379-0.192,2.083-0.316c-0.531-1.001-1.002-2.811-1.604-2.856
			c-2.077-0.156-4.2,0.306-6.305,0.533c-0.555-8.095-8.04-8.1-12.952-10.258c-47.566-20.897-88.856-50.954-126.509-86.264
			c-36.736-34.448-64.877-75.26-87.055-120.275c-47.576-96.566-58.729-197.399-32.669-301.688
			c21.184-84.776,65.998-156.216,130.02-215.146c70.916-65.278,155.058-105.075,250.76-113.99
			c158.754-14.79,291.099,40.516,390.778,165.045c86.397,107.937,113.218,232.278,84.879,367.659
			c-16.377,78.239-53.13,146.159-108.289,204.261c-43.809,46.147-94.927,81.758-152.188,108.966
			c-4.253,2.021-8.324,4.424-12.48,6.649c8.186-0.157,15.331-2.419,22.27-5.198c51.88-20.775,96.996-51.654,136.915-90.656
			c63.558-62.099,106.21-136.097,126.364-222.544c16.849-72.271,13.766-144.241-6.098-215.789
			c-16.456-59.272-45.478-111.922-82.951-159.995c-38.663-49.6-87.217-88.084-142.074-118.227
			c-80.134-44.031-166.314-63.183-257.023-50.84c-160.08,21.783-281.771,102.229-357.161,246.742
			c-58.268,111.691-65.285,228.446-23.9,347.197c27.303,78.343,74.276,143.749,138.763,196.269
			c32.202,26.225,66.319,49.36,105.577,63.91C2796.613,3098.939,2801.955,3099.606,2807.128,3100.771z M2146.463,2215.575
			c4.349-8.25,3.193-16.779,3.208-25.014c0.296-174.536,0.463-349.071,0.831-523.607c0.026-12.415-1.774-24.274-5.54-36.075
			c-8.377-26.247-16.62-52.544-24.381-78.979c-56.269-191.653-112.395-383.348-168.617-575.015
			c-2.124-7.24-4.762-14.328-7.192-21.581c-16.108-3.761-31.422-2.132-46.56-2.135c-207.455-0.04-414.91,0.123-622.365,0.179
			c-97.221,0.026-194.442-0.124-291.662-0.015c-9.001,0.01-18.385-1.98-28.337,3.61c-1.603,8.101-3.6,16.997-5.097,25.977
			c-4.151,24.903-8.082,49.842-12.121,74.763c-9.915,61.178-19.898,122.345-29.745,183.534
			c-8.509,52.876-16.834,105.781-25.303,158.663c-11.131,69.505-22.388,138.99-33.384,208.516c-1.03,6.513-3.231,13.504,2.341,20.89
			c4.458,0.367,9.686,1.122,14.92,1.169c16.074,0.145,32.151,0.026,48.226-0.004c195.206-0.36,390.414-0.562,585.618-1.393
			c15.382-0.065,25.109,4.666,34.324,17.082c57.911,78.025,116.734,155.373,175.061,233.091
			c58.784,78.327,117.495,156.71,175.919,235.305c21.904,29.467,42.92,59.594,64.318,89.437c3.054,4.259,5.98,8.611,9.263,13.35
			c59.414,0,118.321,0.024,177.229-0.072C2140.323,2217.249,2143.225,2216.201,2146.463,2215.575z M1342.777,3092.01
			c21.521-3.45,31.916-8.495,43.379-20.649c5.246-5.563,9.996-11.646,15.619-16.786c6.515-5.956,13.99-6.287,21.005-1.278
			c4.328,3.09,7.834,7.305,12.019,10.626c6.215,4.933,14.279,1.372,14.988-6.746c0.463-5.305,0.309-10.727-0.179-16.04
			c-1.89-20.576-3.51-41.197-6.241-61.667c-1.953-14.64,0.623-27.821,10.549-38.473c8.794-9.437,18.053-19.094,28.851-25.875
			c23.76-14.92,51.409-1.555,54.939,26.063c1.443,11.288,0.252,22.912,0.257,34.384c0.003,6.575,0.001,13.15,0.001,22.159
			c4.63-2.707,7.432-3.736,9.426-5.621c7.219-6.822,14.344-13.764,21.17-20.977c8.076-8.533,12.868-18.743,15.331-30.319
			c5.075-23.849,5.877-24.261,30.462-22.684c4.583,0.294,9.157,1.058,13.731,1.03c2.862-0.018,5.716-1.114,9.751-1.979
			c-0.477-4.414,0.002-8.402-1.412-11.536c-5.022-11.131-10.473-22.085-16.169-32.891c-6.418-12.176-14.134-23.733-19.771-36.242
			c-13.321-29.563-2.514-66.984,23.871-85.685c13.87-9.831,32.401-8.43,43.523,4.501c5.358,6.23,9.498,13.895,12.628,21.549
			c3.451,8.438,4.946,17.659,7.636,26.434c0.981,3.199,2.95,6.095,5.337,10.865c18.885-23.038,32.9-44.641,24.752-74.497
			c-3.544-12.988,1.876-20.547,14.693-24.049c6.542-1.787,13.586-1.735,20.402-2.52c9.727-1.12,12.784-8.192,6.643-16.092
			c-3.271-4.208-7.149-7.972-10.959-11.728c-15.267-15.049-30.711-29.921-45.889-45.058c-6.485-6.468-13.814-12.876-15.483-22.327
			c-3.415-19.333-1.813-38.398,8.386-55.578c12.383-20.858,43.355-26.725,60.533-5.757c5.805,7.086,10.753,14.867,16.266,22.2
			c1.598,2.125,3.797,3.796,7.76,7.667c2.012-9.139,3.681-15.535,4.801-22.026c3.623-20.989,3.773-41.32-12.221-58.229
			c-0.518-0.548-0.894-1.245-1.272-1.908c-7.379-12.957-4.085-23.521,9.721-29.924c5.5-2.551,11.621-3.793,17.042-6.475
			c5.201-2.573,5.294-12.714,0.418-15.815c-2.543-1.617-5.423-2.796-8.278-3.813c-18.024-6.419-36.15-12.557-54.105-19.161
			c-9.313-3.426-18.604-7.105-27.447-11.575c-14.624-7.392-23.82-19.336-25.196-35.933c-0.879-10.603-1.612-21.542-0.013-31.963
			c4.408-28.712,26.588-39.935,52.302-26.931c8.842,4.471,16.856,10.557,25.446,15.565c2.96,1.725,6.523,2.417,10.263,3.741
			c0.004-32.458-10.545-53.549-34.014-69.449c-13.882-9.405-14.955-22.615-2.468-33.893c3.374-3.046,8.077-4.718,11.132-7.989
			c2.307-2.47,4.098-6.49,4.081-9.809c-0.025-4.808-3.383-8.645-8.247-9.795c-4.421-1.045-9.074-1.467-13.631-1.515
			c-15.31-0.16-30.63,0.28-45.931-0.114c-11.447-0.294-22.943-0.973-34.279-2.5c-9.16-1.235-18.21-4.448-24.573-11.468
			c-12.547-13.843-21.771-29.638-23.871-48.668c-2.23-20.199,7.815-33.146,27.874-33.892c12.889-0.479,25.874,1.763,38.825,2.667
			c3.424,0.239,6.879,0.036,12.646,0.036c-4.774-10.306-10.083-17.677-14.971-25.314c-10.807-16.883-24.769-28.188-45.547-31.441
			c-17.123-2.681-21.563-15.943-11.764-30.52c2.547-3.789,6.075-6.911,8.693-10.66c5.126-7.34,1.047-16.117-7.985-16.429
			c-6.024-0.208-12.355,0.341-18.114,2.032c-18.33,5.385-36.42,11.584-54.677,17.227c-10.914,3.374-21.796,7.912-32.992,9.1
			c-27.228,2.89-53.539-16.111-60.994-42.324c-5.652-19.875,1.181-35.238,20.339-42.672c9.909-3.845,20.67-5.465,30.985-8.308
			c4.016-1.107,7.866-2.816,12.479-4.502c-19.402-19.455-43.838-28.297-67.175-25.463c-7.521,0.913-15.177,1.757-22.698,1.33
			c-6.722-0.382-10.993-5.611-11.057-12.442c-0.05-5.295,1.229-10.588,1.577-15.904c0.282-4.304,0.057-8.642,0.057-13.442
			c-9.449-3.183-17.585-2.389-24.89,2.604c-7.548,5.159-14.763,10.859-21.772,16.741c-8.204,6.884-15.889,14.385-24.054,21.317
			c-8.88,7.539-19.079,12.907-30.423,15.537c-23.894,5.542-45.665,0.804-64.481-15.129c-14.864-12.586-19.53-40.395,3.009-55.329
			c8.266-5.477,17.28-9.818,25.862-14.833c3.664-2.141,7.095-4.679,11.953-7.918c-11.524-8.13-23.428-7.365-34.4-9.18
			c-18.411-3.044-36.695-3.047-53.112,8.163c-1.863,1.272-4.118,2.058-6.288,2.776c-11.206,3.708-19.649-1.566-21.191-13.668
			c-0.648-5.091-0.108-10.332-0.108-15.068c-18.006-4.608-19.89-4.168-26.266,6.766c-3.467,5.945-6.648,12.081-9.568,18.314
			c-6.817,14.553-13.357,29.235-20.091,43.827c-4.531,9.819-9.499,19.789-19.197,25.202c-22.328,12.463-46.14,16.375-70.78,7.894
			c-13.262-4.564-18.964-14.317-18.919-28.396c0.038-11.958,4.809-22.363,10.689-32.316c4.983-8.433,10.443-16.584,16.011-25.366
			c-26.608-2.025-54.21,7.834-69.464,24.335c-3.113,3.368-5.681,7.263-8.93,10.482c-11.6,11.493-23.74,9.857-31.903-4.169
			c-2.942-5.055-5.697-10.219-8.263-14.838c-10.444,1.762-15.044,7.329-16.736,15.52c-0.771,3.729-1.054,7.582-1.285,11.396
			c-1.156,19.086-1.827,38.212-3.482,57.253c-0.849,9.775-0.849,20.971-5.663,28.8c-13.813,22.463-34.641,36.713-61.148,40.458
			c-18.18,2.569-31.76-8.08-33.671-26.375c-1.096-10.493,0.46-21.32,1.377-31.949c0.706-8.191,2.277-16.308,3.478-24.564
			c-3.087,0-4.919-0.582-5.918,0.085c-22.97,15.339-46.187,30.135-53.947,59.703c-2.898,11.042-16.053,15.106-26.463,9.929
			c-4.034-2.006-7.266-5.563-11.127-7.995c-6.976-4.393-14.442-0.843-14.628,7.447c-0.152,6.781,0.312,13.902,2.264,20.339
			c5.103,16.825,11.086,33.388,16.885,49.997c3.836,10.986,7.157,22.29,3.789,33.696c-6.024,20.404-18.019,37.452-35.173,49.719
			c-20.395,14.585-43.495,6.879-51.494-16.738c-4.145-12.24-5.866-25.295-8.817-37.951c-0.802-3.441-0.219-7.882-5.187-8.956
			c-21.325,17.306-31.165,41.949-26.376,66.084c0.594,2.994,1.75,5.901,2.106,8.913c1.007,8.509-3.754,14.966-12.499,16.123
			c-5.24,0.693-10.671,0.345-15.984-0.009c-10.814-0.72-16.977,4.677-20.884,14.678c3.374,4.506,6.308,8.948,9.761,12.942
			c12.016,13.9,24.227,27.63,36.334,41.451c24.182,27.603,25.751,36.303,12.109,70.454c-2.258,5.651-5.103,11.195-8.516,16.219
			c-2.962,4.361-6.668,8.484-10.816,11.724c-14.713,11.494-35.513,9.655-47.393-4.695c-5.793-6.997-9.866-15.414-14.775-23.151
			c-1.854-2.921-2.538-7.329-9.003-6.292c-9.695,25.738-17.733,51.301,0.08,78.083c6.943,10.438,3.53,18.202-8.042,24.414
			c-6.713,3.603-14.135,5.876-20.882,9.425c-7.478,3.932-8.365,12.013-1.544,16.591c12.697,8.52,25.77,16.504,38.929,24.303
			c12.507,7.412,25.407,14.158,37.974,21.472c7.415,4.316,13.966,9.918,16.23,18.571c5.319,20.327,7.192,40.768-0.763,60.947
			c-8.815,22.36-29.862,29.341-50.449,16.601c-6.491-4.017-12.303-9.122-18.739-13.24c-2.757-1.764-6.313-2.278-11.112-3.903
			c-1.068,28.124,1.86,52.422,24.708,69.792c1.213,0.922,2.331,1.999,3.361,3.125c6.982,7.641,6.947,17.504-0.778,24.377
			c-5.104,4.542-11.356,7.784-16.538,12.253c-4.492,3.874-2.895,13.285,2.483,15.879c3.39,1.634,7.152,2.745,10.869,3.407
			c14.314,2.554,28.651,5.003,43.029,7.165c12.112,1.821,24.306,3.081,36.436,4.788c13.103,1.844,22.523,8.885,28.467,20.707
			c6.257,12.445,10.746,25.36,11.051,39.463c0.419,19.401-9.712,32.62-28.808,35.156c-8.902,1.182-18.217-0.406-27.311-1.151
			c-5.081-0.417-10.092-1.679-14.527-2.454c-1.231,2.025-2.008,2.723-1.887,3.187c6.096,23.348,17.883,41.558,42.013,50.297
			c23.696,8.581,25.587,15.31,12.858,37.322c-0.765,1.323-1.99,2.459-2.453,3.864c-1.057,3.206-1.775,6.524-2.803,10.458
			c12.549,2.784,22.751-0.744,32.982-3.593c20.648-5.749,41.228-11.742,61.892-17.43c21.243-5.847,37.78,1.988,49.907,19.14
			c5.199,7.354,9.272,15.978,11.842,24.624c6.651,22.378-5.048,41.905-27.731,46.836c-9.678,2.104-19.719,2.522-29.582,3.81
			c-3.5,0.457-6.959,1.221-10.383,1.836c0.391,2.808,0.067,4.709,0.867,5.6c15.313,17.049,33.024,29.555,57.186,29.548
			c3.056-0.001,6.16-0.001,9.159,0.496c12.366,2.052,18.801,9.716,18.065,22.383c-0.304,5.24-2.416,10.354-3.31,15.592
			c-0.469,2.749-0.083,5.643-0.083,9.479c3.914,0,7.182,0.93,9.464-0.174c6.859-3.318,13.454-7.237,19.937-11.267
			c18.852-11.718,37.615-23.581,56.381-35.436c8.628-5.45,17.886-8.829,28.194-8.209c18.143,1.093,34.502,7.158,48.069,19.353
			c19.662,17.675,16.903,46.823-5.973,60.272c-7.812,4.592-16.98,6.847-25.435,10.391c-3.968,1.663-7.715,3.851-12.264,6.157
			c23.038,16.001,40.82,19.556,63.47,13.381c4.429-1.207,8.815-2.689,13.321-3.47c7.589-1.316,14.098,3.597,14.172,11.096
			c0.058,5.946-1.075,11.904-1.709,18.154c10.828,5.49,19.168,4.745,26.603-5.016c12.976-17.035,26.473-33.675,39.88-50.377
			c4.782-5.958,9.811-11.732,14.949-17.388c7.001-7.707,15.972-12.612,26.206-12.657c12.909-0.056,26.311-0.188,38.644,3.012
			c32.354,8.392,40.947,42.23,17.519,66.137c-4.781,4.879-10.559,8.782-15.892,13.118c-2.72,2.211-7.018,3.396-5.186,9.174
			c22.636-0.169,45.115,1.926,65.912-12.605c13.706-9.575,21.906-5.639,31.785,9.393c1.199,1.824,2.885,3.329,5.074,5.806
			c6.371-0.652,12.989-1.328,19.892-2.035c1.522-4.654,3.017-8.141,3.794-11.782c4.309-20.211,8.765-40.399,12.558-60.71
			c5.309-28.43,34.357-53.521,62.99-54.004c19.512-0.329,43.62,15.474,35.883,44.092c-3.393,12.549-7.471,24.911-11.135,37.389
			C1344.854,3082.98,1343.974,3087.172,1342.777,3092.01z M1349.552,3119.531c-0.069,1.047-0.137,2.094-0.206,3.141
			c4.463,0.253,8.925,0.72,13.388,0.723c29.084,0.018,58.169-0.124,87.253-0.107c431.702,0.258,863.403,0.533,1295.105,0.801
			c7.653,0.005,15.309,0.062,22.959-0.097c2.915-0.061,6.166-0.2,6.111-4.243c-18.723-10.598-37.917-20.205-55.793-31.836
			c-40.549-26.384-78.254-56.296-108.779-94.341c-22.558-28.114-42.782-57.776-59.851-89.583
			c-29.385-54.755-46.11-113.166-51.013-175.022c-3.716-46.875-0.249-93.264,9.522-139.24c1.049-4.938,0.827-10.147,1.296-16.617
			c-8.135-0.508-14.877-1.21-21.628-1.311c-151.686-2.269-318.556-1.387-338.403,1.925c-0.682,4.753-1.97,9.878-2.052,15.021
			c-0.254,16.069,0.119,32.149-0.141,48.218c-0.069,4.274-1.538,8.526-2.309,12.503c-3.545,0.695-5.748,1.502-7.952,1.505
			c-88.023,0.103-176.047,0.162-264.07,0.068c-3.53-0.004-7.059-1.552-10.932-2.46c-3.415-25.928,1.82-51.242-3.104-77.611
			c-15.87-0.758-30.825-2.953-46.588-1.08c-4.45,7.636-6.268,15.76-8.328,23.874c-2.902,11.435-4.328,22.298,3.369,32.854
			c4.707,6.456,4.601,14.426,3.151,22.163c-5.24,27.952-13.75,54.891-25.275,80.877c-3.8,8.567-10.539,12.64-19.861,13.045
			c-5.848,0.254-11.671,1.087-18.971,1.805c0.651,24.946-7.246,46.301-18.883,66.411c-4.591,7.933-9.262,15.91-14.794,23.185
			c-5.744,7.553-10.378,14.695-8.148,24.984c1.691,7.802-1.069,15.342-6.033,21.49c-15.849,19.631-32.042,38.983-47.982,58.541
			c-10.33,12.675-22.743,17.389-38.532,11.127c-0.983-0.39-2.688,1.039-5.097,2.065c-1.548,3.368-3.545,7.453-5.324,11.63
			c-8.638,20.285-22.643,36.188-40.138,49.229c-4.907,3.658-9.722,7.551-15.029,10.535c-7.814,4.393-13.19,10.013-14.341,19.342
			c-0.797,6.461-4.655,11.422-10.397,14.337c-22.495,11.422-44.957,22.925-67.721,33.794c-13.398,6.397-26.663,6.205-38.523-4.354
			c-0.923-0.822-2.835-0.533-4.861-0.85c-8.812,6.541-17.36,14.414-27.257,19.814
			C1372.773,3111.581,1360.886,3115.048,1349.552,3119.531z M3390.532,2697.204c-1.588-89.508-23.932-169.324-74.345-240.39
			c-56.305-79.373-129.266-135.811-223.585-163.243c-191.974-55.835-384.205,28.307-479.048,193.695
			c-82.878,144.522-67.801,309.836,14.598,431.149c80.856,119.042,195.412,182.323,339.626,189.601
			c47.909,2.418,94.62-6.127,139.79-22.16c70.8-25.13,130.41-66.772,179.781-123.251
			C3354.561,2885.716,3388.435,2796.06,3390.532,2697.204z M3346.245,1952.405c-11.163-0.297-18.726-0.68-26.288-0.669
			c-34.445,0.052-68.891,0.244-103.336,0.309c-6.117,0.011-12.262-0.054-18.345-0.61c-6.334-0.579-10.469-4.738-10.728-9.918
			c-0.295-5.894,4.401-11.849,10.889-12.714c5.27-0.703,10.673-0.543,16.017-0.536c38.275,0.046,76.55,0.208,114.825,0.183
			c6.721-0.004,13.441-0.716,19.531-1.064c7.805-19.637,9.438-30.172,7.107-45.879c-4.238-0.249-8.707-0.717-13.18-0.743
			c-35.975-0.21-71.951-0.306-107.927-0.521c-6.108-0.036-12.26-0.098-18.307-0.836c-6.496-0.793-10.095-4.941-10.105-10.41
			c-0.01-5.818,3.32-10.557,9.121-11.407c6.009-0.88,12.159-1.053,18.249-1.079c37.506-0.161,75.014-0.11,112.52-0.356
			c5.888-0.039,11.77-1.227,19.023-2.037c2.379-15.74,8.016-29.959,6.602-45.586c-2.705-0.994-4.789-2.432-6.873-2.432
			c-394.204-0.012-788.408,0.074-1182.613,0.263c-2.09,0.001-4.179,1.5-7.723,2.856c-2.643,16.195-1.255,32.974-0.927,49.573
			c0.325,16.491-2.771,33.353,2.871,50.355c6.805,0.3,12.81,0.797,18.814,0.795c251.072-0.106,502.144-0.257,753.215-0.395
			c5.358-0.003,10.754-0.297,16.063,0.24c4.325,0.437,8.544,1.917,13.756,3.159c0.202,9.22,0.576,17.578,0.54,25.934
			c-0.36,84.962-0.823,169.923-1.116,254.885c-0.02,5.843,1.091,11.689,1.818,18.952c105.285-0.442,209.104-0.306,312.21-1.185
			c8.425-18.911,10.115-28.233,7.933-43.474c-7.333-0.307-14.885-0.875-22.439-0.898c-41.335-0.123-82.669-0.071-124.004-0.193
			c-6.084-0.018-12.269-0.081-18.219-1.162c-5.089-0.924-7.291-5.438-7.403-10.323c-0.112-4.922,2.024-9.454,7.05-10.567
			c5.9-1.307,12.084-1.785,18.15-1.822c42.864-0.257,85.728-0.293,128.592-0.436c8.326-0.028,16.653-0.215,24.342-0.321
			c8.578-20.288,10.313-29.24,8.945-46.518c-7.361-0.219-14.889-0.646-22.417-0.632c-39.038,0.074-78.077,0.294-117.115,0.374
			c-6.109,0.013-12.264-0.057-18.317-0.773c-5.877-0.695-9.482-5.324-9.592-11.028c-0.112-5.767,3.449-10.746,9.089-11.417
			c6.051-0.72,12.202-0.78,18.311-0.803c41.335-0.158,82.67-0.15,124.004-0.403c7.478-0.046,15.27,1.49,22.188-2.49
			c7.255-20.02,8.311-26.548,6.664-43.256c-7.283-0.331-14.79-0.919-22.301-0.971c-36.741-0.255-73.484-0.263-110.224-0.626
			c-6.808-0.067-13.754-0.735-20.354-2.311c-4.739-1.131-7.312-5.505-6.926-10.615c0.376-4.984,3.098-8.92,8.095-9.827
			c5.21-0.947,10.621-1.076,15.944-1.07c42.863,0.047,85.727,0.271,128.59,0.258c5.089-0.001,10.177-1.101,16.495-1.835
			C3340.034,1983.4,3342.849,1969.352,3346.245,1952.405z M2177.024,1780.227c8.372,2.956,17.58,1.66,26.552,1.664
			c386.433,0.182,772.867,0.287,1159.3,0.318c5.125,0,10.25-1.057,14.73-1.55c8.147-24.719,19.837-89.362,19.045-104.585
			c-7.434-5.341-16.139-2.871-24.253-2.88c-359.649-0.405-719.298-0.659-1078.947-0.909c-33.669-0.023-67.339,0.054-101.008,0.194
			c-5.987,0.025-12.371-0.975-17.086,4.318C2172.265,1702.186,2173.102,1761.876,2177.024,1780.227z M2367.189,2051.892
			c20.179,7.088,42.338-1.729,63.307,6.237c0.315,7.361,0.794,14.18,0.869,21.003c0.646,58.95,1.329,117.901,1.757,176.854
			c0.15,20.669-0.188,41.349-0.734,62.013c-0.133,5.027-1.968,10.008-3.085,15.322c-7.349,0.457-13.403,1.077-19.464,1.174
			c-81.132,1.296-162.266,2.5-243.398,3.807c-5.208,0.084-10.406,0.82-16.352,1.314c-0.942,4.333-2.246,7.922-2.435,11.568
			c-2.157,41.753-0.568,176.984,2.315,193.535c19.83,5.152,40.494,2.292,60.887,2.865c20.658,0.581,41.345,0.155,62.02,0.163
			c19.909,0.007,39.817-0.016,59.726,0.013c20.674,0.031,41.349,0.114,62.023,0.163c20.675,0.05,41.351,0.286,62.023,0.071
			c20.5-0.213,41.071,1.213,61.679-0.644c2.172-4.535,4.215-7.778,5.342-11.313c9.832-30.851,24.542-59.39,41.182-86.988
			c52.189-86.559,124.291-150.522,217.192-190.723c9.828-4.252,19.959-7.798,29.883-11.836c2.445-0.995,6.275-1.344,4.327-6.623
			c-2.57-0.342-5.523-1.063-8.481-1.081c-88.052-0.555-176.104-1.091-264.157-1.509c-28.331-0.134-56.664,0.161-84.995,0.048
			c-5.922-0.024-12.407,1.265-18.676-6.055c0-6.499,0.009-14.834-0.002-23.17c-0.074-54.365-0.068-108.732-0.338-163.096
			c-0.033-6.588,2.023-13.89-5.326-21.029c-21.162,0.449-43.857-1.797-67.372,2.023
			C2364.923,2034.982,2363.551,2042.924,2367.189,2051.892z M919.367,926.758c3.599,1.012,6.457,2.518,9.315,2.519
			c351.2,0.109,702.4,0.113,1053.6,0.032c3.692-0.001,7.383-1.186,12.315-2.03c1.357-12.105,2.68-23.898,4.079-36.365
			c7.467-0.518,13.481-1.126,19.508-1.305c7.645-0.227,15.301-0.082,22.952-0.141c4.981-0.039,9.141-1.404,9.828-7.198
			c0.634-5.342-3.063-8.42-10.682-8.862c-3.814-0.221-7.648-0.102-11.473-0.111c-66.568-0.154-133.136-0.426-199.703-0.434
			c-259.387-0.032-518.774,0.007-778.161,0.055c-35.197,0.006-70.395,0.098-105.59,0.406c-8.272,0.072-16.932-1.406-25.393,4.168
			C916.486,893.392,917.423,909.854,919.367,926.758z M2174.489,1938.245c-0.25,9.906-0.707,19.773-0.717,29.64
			c-0.084,84.912-0.06,169.824-0.186,254.736c-0.008,5.084-1.033,10.167-1.597,15.35c-8.547,1.88-15.758,3.465-24.127,5.305
			c-1.589,19.797-0.667,38.841-0.702,57.827c-0.008,4.197,1.909,8.398,2.778,11.935c2.872,0.764,4.343,1.495,5.815,1.496
			c39.777,0.019,79.554,0.026,119.33-0.19c3.518-0.019,7.029-1.579,11.664-2.692c0.247-9.306,0.683-17.6,0.653-25.892
			c-0.199-56.608-0.532-113.216-0.701-169.824c-0.015-5.135,0.825-10.273,1.327-16.097c12.302-3.056,23.747-1.827,35.035-2.105
			c12.234-0.301,24.493-0.687,36.712-0.239c11.137,0.408,22.816-2.435,34.576,4.336c0.438,9.752,1.235,19.583,1.263,29.417
			c0.153,53.548,0.048,107.097,0.241,160.645c0.021,5.719-2.316,12.787,5.108,16.131c3.752,1.69,6.505-4.908,6.501-16.913
			c-0.02-66.553-0.096-133.107-0.317-199.66c-0.012-3.556-1.506-7.108-2.186-10.113c-21.631-6.274-43.655,1.844-64.814-6.083
			c-0.311-8.595-0.799-16.187-0.822-23.78c-0.096-32.129,0.056-64.259-0.153-96.386c-0.043-6.615,1.801-13.915-5.005-20.064
			c-3.726-0.311-8.227-1.023-12.726-1.008c-46.644,0.158-93.288,0.416-139.931,0.758
			C2180.18,1934.785,2178.859,1936.033,2174.489,1938.245z M2469.2,2213.062c10.171,1.595,21.617,1.022,32.977,1.035
			c106.334,0.124,212.669,0.128,319.003,0.214c37.483,0.03,74.967,0.306,112.449,0.186c6.58-0.021,13.921,1.871,20.86-5.997
			c0-5.098-0.012-11.897,0.002-18.695c0.087-42.839,0.278-85.679,0.241-128.519c-0.031-35.953-0.235-71.907-0.596-107.859
			c-0.059-5.882-1.326-11.753-2.022-17.529c-10.088-3.984-19.33-2.537-28.335-2.539c-122.398-0.019-244.796,0.079-367.194,0.175
			c-56.609,0.044-113.219,0.086-169.827,0.299c-6.666,0.025-13.85-1.924-21.348,4.658c-0.281,18.2-1.699,37.763,1.423,58.568
			c6.676,0.737,12.567,1.839,18.479,1.958c20.649,0.413,41.31,0.317,61.957,0.81c5.042,0.12,10.049,1.744,15.944,2.839
			c0.31,8.678,0.772,16.239,0.82,23.803c0.341,54.313,0.528,108.628,0.961,162.94
			C2465.052,2196.876,2463.152,2204.788,2469.2,2213.062z M2616.063,1221.817c-3.446,20.53-5.015,272.592-2.205,359.846
			c0.141,4.385,1.141,8.742,1.719,12.946c3.21,1.093,5.311,2.422,7.419,2.433c35.904,0.189,71.809,0.252,107.714,0.182
			c2.103-0.004,4.202-1.363,7.359-2.458c0.646-4.183,1.745-8.531,1.932-12.918c2.61-61.206,1.064-340.905-1.941-359.857
			c-1.886-0.807-3.944-2.444-6.011-2.457c-36.649-0.225-73.299-0.296-109.948-0.208
			C2620.031,1219.332,2617.965,1220.996,2616.063,1221.817z M667.171,1814.753c7.047-4.391,11.55-7.018,15.871-9.916
			c50.805-34.063,101.786-67.87,152.225-102.466c12.593-8.638,25.25-12.709,40.503-12.465c34.41,0.549,68.839-0.276,103.261-0.324
			c179.761-0.253,359.521-0.425,539.282-0.721c4.248-0.007,9.159,1.777,13.294-3.735c-2.547-8.411-10.422-13.947-14.952-21.586
			c-4.276-7.21-10.891-10.304-19.328-9.777c-4.572,0.286-9.176,0.083-13.766,0.079c-159.872-0.129-319.744-0.246-479.616-0.397
			c-94.087-0.089-188.174-0.279-282.26-0.27c-8.233,0.001-16.887-1.736-24.368,3.279
			C690.426,1675.538,667.618,1792.888,667.171,1814.753z M3286.233,2331.822c6.672,7.205,9.488,10.659,12.716,13.671
			c52.767,49.237,94.061,106.347,119.994,174.092c1.849,4.83,4.841,9.223,7.808,14.765c30.127,0.594,59.837,1.494,89.567-0.341
			c1.969-0.122,3.823-2.093,5.65-3.157c0.476-2.594,1.244-4.825,1.244-7.057c-0.005-60.418-0.048-120.836-0.26-181.253
			c-0.013-3.588-1.49-7.171-2.177-10.261c-19.79-3.813-111.505-4.85-211.724-2.521
			C3303.179,2329.898,3297.325,2330.795,3286.233,2331.822z M2119.35,2339.908c-4.227-0.552-7.225-1.283-10.223-1.285
			c-70.41-0.025-140.819-0.003-211.228,0.159c-3.577,0.008-7.151,1.341-11.128,2.137c-3.168,13.811-1.512,26.796-1.696,39.642
			c-0.186,13.006-0.222,26.034,0.332,39.025c0.544,12.758-1.803,25.834,2.735,39.293c5.799,0.577,10.965,1.482,16.14,1.529
			c13.773,0.127,27.55-0.188,41.325-0.198c50.511-0.037,101.023,0.09,151.533-0.14c8.094-0.037,16.932,2.325,23.842-4.159
			C2124.092,2430.627,2123.28,2358.342,2119.35,2339.908z M2122.037,2312.3c0.123-12.51,0.632-23.852,0.235-35.162
			c-0.391-11.129,2.609-22.733-2.875-33.045c-18.572-3.122-141.384-4.846-215.655-3.058c-5.163,0.124-10.304,1.124-15.028,1.667
			c-5.326,19.812-5.257,52.767-0.155,70.362C1907.455,2316.055,2100.326,2315.841,2122.037,2312.3z M2120.753,2485.963
			c-5.158-0.81-9.513-2.007-13.888-2.085c-12.997-0.232-26.002,0.021-39.004,0.003c-52.008-0.068-104.017-0.245-156.025-0.175
			c-8.124,0.011-16.687-1.599-25.176,3.49c-1.28,19.105-2.504,37.844,1.22,57.608c5.809,0.751,10.96,1.977,16.116,1.998
			c68.069,0.274,136.138,0.43,204.207,0.403c4.326-0.002,8.651-1.754,14.386-2.997c0-15.873,0.106-31.104-0.077-46.331
			C2122.468,2494.221,2121.464,2490.576,2120.753,2485.963z M1886.689,2625.412c5.462,0.875,7.708,1.548,9.954,1.549
			c70.298,0.043,140.597,0.059,210.895-0.082c4.343-0.009,8.683-1.332,13.688-2.153c2.133-18.244,3.999-35.245-1.088-51.918
			c-3.629-0.631-5.87-1.358-8.113-1.362c-71.062-0.099-142.124-0.16-213.185-0.069c-3.523,0.004-7.044,1.423-11.075,2.293
			C1885.345,2591.327,1885.476,2607.783,1886.689,2625.412z M2369.626,2308.202c0.833-4.083,1.932-6.955,1.929-9.825
			c-0.052-55.681-0.197-111.363-0.496-167.043c-0.015-2.778-1.605-5.547-2.603-8.778c-18.682-1.186-36.591-2.909-54.889,0.457
			c-0.845,4.271-1.906,7.165-1.919,10.063c-0.238,55.678-0.397,111.357-0.361,167.036c0.002,2.703,1.945,5.404,3.08,8.354
			C2333.184,2310.134,2351.158,2310.811,2369.626,2308.202z M2661.253,1193.021c12.073,3.889,23.041,3.661,35.375,0.932
			c0.48-8.2,1.278-15.66,1.296-23.121c0.127-53.43-0.033-106.861,0.211-160.29c0.056-12.166,0.627-24.422,2.238-36.465
			c1.967-14.706,10.089-25.277,24.583-30.265c4.226-1.455,8.401-3.059,13.004-4.743c1.339-10.323,3.818-19.902-2.048-28.757
			c-39.561-4.062-75.264,23.426-76.448,70.022c-0.136,5.341-0.417,10.682-0.397,16.023c0.224,59.539,0.456,119.078,0.811,178.616
			C2659.913,1180.946,2660.768,1186.914,2661.253,1193.021z M3129.981,2240.12c50.702,18.628,96.29,45.803,141.236,77.717
			c9.008-18.792,11.32-37.715,15.389-56.072c1.75-7.893,4.257-15.967,1.915-23.826
			C3267.58,2234.311,3150.216,2234.692,3129.981,2240.12z M1113.874,1795.483c-25.928-3.963-26.91-3.702-41.39,12.953
			c-5.008,5.761-10.5,11.345-14.281,17.873c-5.426,9.369-12.085,17.462-19.364,25.383c-5.061,5.508-8.732,12.419-12.377,19.058
			c-2.335,4.253,0.815,9.869,5.807,10.226c8.344,0.597,16.755,0.47,25.134,0.351c13.624-0.193,22.796-6.605,28.315-19.316
			c8.513-19.605,17.799-38.873,26.623-58.345C1113.224,1801.717,1113.183,1799.349,1113.874,1795.483z M1464.42,1973.704
			c15.461,30.938,27.007,35.667,55.402,25.341c18.545-6.744,37.29-12.935,55.851-19.635c3.886-1.403,7.357-3.953,12.151-6.6
			c-4.092-4.696-7.232-7.923-9.938-11.481c-6.281-8.258-14.036-10.28-24.115-7.852c-10.296,2.479-20.97,3.348-31.43,5.198
			c-14.191,2.509-28.403,4.976-42.462,8.108C1475.001,1967.87,1470.554,1970.885,1464.42,1973.704z M816.935,1960.873
			c3.798-0.746,8.524-0.739,12.307-2.624c6.787-3.382,12.844-8.198,19.505-11.872c8.973-4.949,12.81-12.438,13.07-22.422
			c0.615-23.597,1.482-47.188,2.062-70.786c0.023-0.941-1.851-1.93-3.861-3.891c-7.407,4.211-15.27,8.606-23.057,13.133
			c-5.66,3.29-8.472,8.478-9.659,14.802c-4.074,21.702-8.321,43.373-12.336,65.086
			C813.878,1948.187,811.993,1954.285,816.935,1960.873z M827.78,3075.114c25.681-11.805,48.563-24.265,74.277-29.885
			c4.697-1.026,9.279-5.161,12.672-8.967c5.161-5.789,3.53-13.997-3.243-17.52c-6.063-3.154-12.724-5.14-19.032-7.85
			c-9.206-3.955-17.535-3.052-25.928,2.742c-19.493,13.459-39.338,26.406-58.907,39.757c-1.562,1.066-2.093,3.643-3.905,7.006
			C811.724,3065.294,819.302,3069.929,827.78,3075.114z M1799.802,2423.679c5.152-20.936,3.489-26.078-10.952-35.843
			c-18.32-12.386-36.646-24.764-54.975-37.136c-1.896-1.28-3.751-2.653-5.763-3.721c-11.701-6.207-19.336-2.252-19.679,11.335
			c-0.115,4.576-0.307,9.158-0.69,13.719c-0.794,9.443,3.53,16.222,11.159,21.014c4.495,2.823,9.242,5.415,14.178,7.331
			c14.925,5.794,29.948,11.345,45.033,16.71C1785.206,2419.611,1792.53,2421.492,1799.802,2423.679z M1364.2,1845.585
			c-18.815-14.697-35.904-14.953-52.48,0.306c-6.38,5.873-14.363,8.119-22.151,11.24c-11.206,4.491-22.266,9.688-32.601,15.895
			c-6.964,4.182-6.08,13.28,1.202,16.56c7.567,3.408,15.762,5.416,23.665,8.085c11.083,3.743,20.518,1.708,29.433-6.328
			C1328.136,1876.139,1345.599,1861.596,1364.2,1845.585z M455.574,2445.397c-0.357,7.724-0.393,12.183-0.8,16.607
			c-1.02,11.083,3.452,18.472,13.045,24.481c6.871,4.305,11.816,11.595,17.932,17.214c11.191,10.279,22.332,20.65,34.066,30.286
			c5.343,4.387,12.858,1.05,13.962-5.822c1.921-11.957,4.561-23.995,1.445-35.886
			C511.834,2473.031,486.651,2457.897,455.574,2445.397z M617.781,2908.504c7.048,9.639,10.727,19.188,18.721,22.328
			c16.548-1.845,30.831-3.913,45.188-4.892c12.129-0.827,24.357-0.084,36.517-0.606c11.119-0.477,16.486-8.512,12.636-18.85
			c-1.836-4.931-4.628-9.606-7.577-14.001c-7.978-11.89-11.224-13.264-24.766-9.459c-23.47,6.594-46.839,13.553-70.21,20.495
			C625.477,2904.353,622.914,2906.033,617.781,2908.504z M653.743,1990.879c-9.87,4.017-14.158,11.509-19.796,17.418
			c-3.985,4.176-4.958,9.09-4.196,14.807c2.828,21.198,5.269,42.449,8.111,63.646c0.703,5.243,1.88,10.538,3.711,15.486
			c2.428,6.561,10.39,8.141,14.736,2.488c6.951-9.042,13.132-18.717,19.116-28.446c3.416-5.553,2.38-11.75,0.397-17.778
			C668.666,2036.754,661.603,2014.978,653.743,1990.879z M1660.136,2886.388c12.661-8.434,16.456-16.457,13.19-28.882
			c-5.425-20.638-9.4-41.658-14.034-62.506c-0.827-3.718-1.595-7.494-2.919-11.046c-2.161-5.795-4.912-11.663-11.696-12.958
			c-7.379-1.409-11.178,4.296-14.074,9.539c-3.655,6.619-6.47,13.748-9.153,20.844c-3.142,8.311-2.359,16.508,2.25,24.208
			C1635.416,2845.159,1647.149,2864.719,1660.136,2886.388z M1272.626,3121.572c7.575,0,12.034,0.201,16.469-0.041
			c10.202-0.556,16.801-5.306,20.148-15.524c5.717-17.45,12.676-34.493,18.429-51.933c2.36-7.154,3.501-14.847,4.154-22.385
			c0.514-5.934-4.925-9.992-10.578-9.073c-19.251,3.126-33.222,16.782-36.604,35.453c-1.909,10.539-4.27,20.995-6.277,31.517
			C1276.522,3099.266,1274.876,3108.986,1272.626,3121.572z M1478.359,3049.061c19.335-4.062,27.231-14.035,28.244-30.836
			c1.147-19.009,3.656-37.933,5.077-56.931c0.506-6.761,0.013-13.69-0.866-20.433c-0.714-5.477-7.628-9.075-12.348-6.15
			c-6.377,3.953-12.284,8.81-17.874,13.854c-9.793,8.837-13.139,19.611-10.675,32.999c2.749,14.937,3.816,30.182,5.642,45.29
			C1476.364,3033.512,1477.234,3040.162,1478.359,3049.061z M1736.867,2181.69c-4.706-20.606-6.507-24.136-17.149-26.826
			c-22.854-5.775-45.85-11.014-68.884-16.028c-5.853-1.274-12.1-1.448-18.109-1.113c-7.231,0.404-10.611,6.663-7.284,13.074
			c2.792,5.381,6.593,10.234,9.456,15.584c6.45,12.054,16.094,16.939,29.875,16.341c18.241-0.79,36.544-0.082,54.82-0.155
			C1724.817,2182.548,1730.04,2182.053,1736.867,2181.69z M569.557,2256.496c-22.445-17.017-34.333-42.232-55.5-58.611
			c-8.79,5.963-10.427,14.181-12.684,23.668c12.779,16.611,19.206,37.094,27.23,56.884c2.835,6.992,6.759,13.724,11.204,19.835
			c4.802,6.603,12.934,5.933,16.958-1.149C563.599,2285.094,567.899,2272.148,569.557,2256.496z M1777.883,2673.37
			c6.995-15.664,9.462-29.245-2.994-42.866c-6.063-6.629-9.978-15.233-14.795-22.987c-5.633-9.068-11.073-18.259-16.841-27.239
			c-2.04-3.175-4.547-6.153-7.285-8.755c-5.859-5.57-13.928-4.61-17.016,2.617c-3.267,7.646-5.518,15.785-7.577,23.87
			c-1.826,7.171,0.434,13.445,5.823,18.716c17.456,17.074,34.757,34.308,52.251,51.343
			C1771.5,2670.067,1774.382,2671.211,1777.883,2673.37z M505.021,2722.898c21.701,9.484,41.781,18.464,62.054,26.984
			c5.526,2.323,11.548,3.845,17.491,4.696c7.788,1.116,13.395-4.716,11.837-12.6c-2.192-11.088-4.355-22.337-10.892-32.378
			c-26.195-4.514-52.286-9.05-78.402-13.44c-2.128-0.358-4.435,0.189-6.632,0.502c-0.672,0.096-1.255,0.817-2.431,1.636
			c0.521,2.626,0.886,5.576,1.711,8.392C501.249,2711.773,503.015,2716.775,505.021,2722.898z M1030.122,3127.127
			c26.74,2.245,27.415,2.008,42.196-8.491c16.051-11.401,29.905-25.867,48.574-33.675c5.967-2.495,8.566-8.55,7.22-15.322
			c-1.313-6.607-5.477-11.337-12.078-12.064c-8.227-0.905-16.603-0.554-24.915-0.559c-8.282-0.005-14.039,3.919-18.754,10.836
			c-8.126,11.921-17.163,23.218-25.618,34.921C1041.521,3110.01,1036.664,3117.513,1030.122,3127.127z M2022.384,914.535
			c-2.076,21.623-2.229,41.143,1.036,61.612c8.961,1.796,16.816,3.523,25.272-1.151c2.928-9.919,2.279-19.895,1.929-29.672
			c-0.372-10.377,2.78-21.339-3.672-31.473c-4.752-0.378-9.27-0.994-13.789-1.003C2030.231,912.841,2027.3,913.723,2022.384,914.535
			z M2701.393,1646.913c0.851-8.457,3.385-16.439-3.713-25.079c-11.909,0.564-24.519-3.087-36.865,2.514
			c-2.084,8.592-3.673,16.542,1.663,24.483C2675.545,1650.039,2688.127,1651.747,2701.393,1646.913z"/>
		<path d="M3758.455,3123.359c12.212,0,24.428-0.143,36.636,0.085c3.747,0.07,7.828,0.405,11.122,1.961
			c4.288,2.026,6.613,6.156,6.464,11.205c-0.148,5.06-2.485,9.038-7.281,10.479c-4.311,1.296-8.962,1.945-13.474,2.003
			c-23.659,0.3-47.322,0.427-70.983,0.346c-4.49-0.015-9.117-0.757-13.425-2.03c-5.038-1.489-9.582-8.247-7.771-12.48
			c1.625-3.796,5.011-7.747,8.649-9.523c3.842-1.875,8.894-1.597,13.427-1.667c12.209-0.19,24.423-0.065,36.635-0.065
			C3758.455,3123.568,3758.455,3123.464,3758.455,3123.359z"/>
		<path d="M219.35,3149.314c-5.295,0-10.608,0.275-15.882-0.058c-10.869-0.686-15.66-4.439-16.121-12.1
			c-0.499-8.306,4.989-13.035,17-13.708c9.811-0.55,19.663-0.374,29.497-0.512c0.756-0.011,1.514,0.01,2.268,0.068
			c9.706,0.747,15.762,5.419,16.216,12.499c0.497,7.761-6.2,13.436-17.095,14.089c-5.276,0.316-10.587,0.055-15.882,0.055
			C219.35,3149.535,219.35,3149.425,219.35,3149.314z"/>
		<path d="M363.202,3136.386c-0.063,8.808-5.556,14.724-13.735,14.792c-8.435,0.071-14.609-5.564-15.039-13.726
			c-0.494-9.376,6.05-16.282,15.103-15.941C358.002,3121.831,363.266,3127.559,363.202,3136.386z"/>
		<path d="M891.995,1601.901c0.068-23.487,91.379-581.985,99.313-609.25c7.255-5.644,16.01-3.431,24.166-3.443
			c54.356-0.077,108.713,0.29,163.069,0.306c215.132,0.064,430.264,0.034,645.396,0.094c23.732,0.007,47.465,0.277,71.195,0.63
			c6,0.089,11.989,0.965,18.58,1.531c1.614,4.11,3.248,7.487,4.288,11.039c26.027,88.873,51.766,177.831,78.034,266.632
			c22.795,77.057,46.29,153.907,69.252,230.916c12.466,41.805,24.429,83.76,36.697,125.625c4.551,15.53,6.737,31.251,6.711,47.521
			c-0.226,143.166-0.15,286.332-0.235,429.498c-0.004,6.762-0.684,13.523-1.11,21.413c-4.236,1.035-7.747,2.616-11.269,2.642
			c-45.933,0.346-91.867,0.492-137.802,0.585c-2.188,0.004-4.379-0.959-8.267-1.87c-1.163-6.038-2.498-12.541-3.662-19.074
			c-14.093-79.109-28.13-158.229-42.251-237.333c-4.976-27.875-10.991-55.598-14.883-83.619
			c-2.122-15.278-8.72-27.471-17.972-38.905c-9.144-11.3-18.605-22.348-27.581-33.779c-6.542-8.331-12.521-17.103-19.267-26.388
			c10.116-12.327,25.353-16.452,35.312-28.994c-16.736-24.467-34.98-47.587-55.147-70.705c-4.681,2.463-8.677,4.227-12.322,6.543
			c-15.484,9.84-30.42,20.638-46.398,29.581c-18.905,10.581-39.485,16.624-61.469,16.366c-8.512-0.1-17.295-0.463-21.997-9.275
			c-5.11-9.576-0.88-17.981,4.867-25.449c6.994-9.089,14.009-18.336,22.194-26.302c39.482-38.424,78.219-77.752,122.988-110.238
			c15.456-11.216,31.667-21.427,47.853-31.588c9.217-5.786,19.536-8.8,30.646-7.781c7.856,0.721,13.517,5.144,13.707,12.868
			c0.183,7.457-0.815,15.291-3.073,22.394c-6.805,21.408-18.796,40.196-32.454,57.768c-8.429,10.844-18.197,20.653-27.464,30.836
			c-5.101,5.606-10.407,11.025-16.488,17.443c6.708,14.676,18.742,24.603,27.573,36.717c8.955,12.284,19.084,23.712,29.641,36.67
			c6.003-3.44,11.633-5.699,16.052-9.403c8.785-7.364,18.627-9.611,29.792-9.579c40.575,0.119,81.152-0.127,121.727-0.393
			c7.406-0.049,15.129,1.041,21.498-2.402c0.646-2.697,1.597-4.295,1.24-5.506c-57.891-195.966-115.868-391.906-173.907-587.828
			c-1.277-4.312-3.297-8.403-4.48-11.368c-1.956-1.301-2.539-1.788-3.204-2.102c-0.686-0.324-1.451-0.679-2.182-0.68
			c-286.317-0.243-572.633-0.459-858.95-0.644c-3.818-0.003-7.645,0.281-11.448,0.641c-1.471,0.139-2.905,0.814-4.32,1.342
			c-0.7,0.261-1.317,0.745-1.971,1.128c-6.348,21.801-83.477,479.689-92.919,552.147c-0.376,2.883,0.193,5.888,0.379,10.12
			c21.709,3.184,43.044,0.941,64.261,1.212c22.198,0.283,44.404,0.055,66.606,0.047c21.437-0.007,42.873-0.022,64.31-0.025
			c21.437-0.003,42.873,0.03,64.31,0.002c22.202-0.03,44.404-0.137,66.606-0.168c21.437-0.03,42.873,0.001,64.31-0.007
			c21.437-0.009,42.873-0.062,64.31-0.043c21.437,0.019,42.873,0.105,64.31,0.162c22.202,0.058,44.404,0.138,66.606,0.168
			c21.378,0.029,42.755,0.006,64.332,0.006c5.287,7.021,10.099,12.918,14.383,19.176c71.322,104.194,142.65,208.386,213.823,312.682
			c44.862,65.739,89.613,131.555,134.098,197.55c11.968,17.755,22.882,36.227,34.05,54.51c2.767,4.531,4.966,9.487,6.829,14.471
			c2.069,5.535-2.539,10.563-8.536,10.254c-5.973-0.308-9.842-3.566-13.106-8.089c-11.639-16.129-23.78-31.918-34.892-48.402
			c-59.46-88.208-118.335-176.812-178.057-264.842c-56.282-82.959-113.364-165.376-170.097-248.029
			c-2.166-3.156-3.849-6.919-6.694-9.26c-3.346-2.753-7.552-5.479-11.681-6.041c-7.527-1.024-15.272-0.526-22.925-0.521
			c-202.116,0.137-404.232,0.304-606.348,0.402C911.451,1604.22,902.252,1605.196,891.995,1601.901z M1860.437,1695.594
			c12.589,15.139,23.796,29.532,36.03,42.99c7.553,8.309,11.729,17.401,13.694,28.311c18.976,105.37,38.17,210.7,57.4,316.023
			c1.192,6.531,3.211,12.91,5.072,20.254c13.436,0.247,25.594,0.564,37.755,0.668c12.241,0.104,24.493,0.298,36.722-0.106
			c11.941-0.394,24.196,1.818,36.925-2.584c0.405-7.593,1.073-14.324,1.076-21.055c0.056-117.061,0.068-234.122-0.013-351.183
			c-0.014-20.656-0.388-41.314-0.81-61.966c-0.121-5.946,0.662-12.343-4.526-16.849c-1.626-0.538-3.061-1.424-4.5-1.43
			c-47.425-0.197-94.852-0.469-142.276-0.229c-5.858,0.03-12.67,1.43-17.382,4.634
			C1897.354,1665.48,1878.074,1676.684,1860.437,1695.594z M1875.838,1460.018c-26.299,8.366-66.252,37.873-114.64,83.191
			c-50.294,47.102-57.386,54.754-62.671,68.11c12.914-0.269,24.363-4.553,35.084-10.204c41.589-21.922,78.37-50.23,108.868-86.074
			C1855.7,1499.5,1867.622,1482.723,1875.838,1460.018z"/>
		<path d="M1125.569,2042.933c92.257-0.303,175.347,27.918,249.303,81.494c99.11,71.797,158.331,168.376,173.759,290.771
			c14.858,117.87-15.82,223.728-88.056,316.502c-52.457,67.37-121.151,114.449-203.231,139.73
			c-95.118,29.298-190.207,29.302-283.863-6.586c-65.384-25.054-121.636-63.542-168.195-116.479
			c-46.471-52.838-78.467-112.771-94.92-181.104c-31.069-129.038,2.351-276.488,98.086-380.475
			c68.835-74.769,152.779-121.426,253.184-137.624C1082.733,2045.759,1104.247,2044.942,1125.569,2042.933z M721.77,2470.773
			c2.805,24.287,3.55,49.026,8.751,72.789c32.961,150.594,122.739,254,267.667,304.036
			c182.802,63.112,370.638-21.368,459.246-152.982c66.299-98.476,87.092-205.968,59.044-319.878
			c-36.246-147.209-133.157-240.711-275.038-289.568c-145.26-40.075-275.553-9.654-386.856,90.013
			C767.811,2252.884,723.98,2352.936,721.77,2470.773z"/>
		<path d="M2974.819,2386.902c154.47,0.087,302.146,122.524,300.515,305.711c-1.433,160.934-127.75,300.625-303.687,300.79
			c-161.431,0.151-297.41-131.575-299.109-302.849C2670.95,2530.47,2801.212,2384.567,2974.819,2386.902z M2974.116,2968.411
			c143.936,1.883,277.239-114.816,276.284-282.809c-0.904-159.016-132.545-273.954-275.927-274.57
			c-158.508-0.681-279.47,130.417-277.802,282.089C2698.131,2825.834,2803.327,2969.271,2974.116,2968.411z"/>
		<path d="M2479.157,2002.263c25.766-3.459,419.646-2.234,441.792,1.217c0.917,3.792,2.825,8.063,2.853,12.347
			c0.354,55.888,0.477,111.779,0.515,167.669c0.003,3.715-1.14,7.431-1.649,10.537c-7.197,6.436-15.191,4.41-22.58,4.43
			c-46.704,0.125-93.408,0.098-140.112-0.113c-84.218-0.382-168.437-0.882-252.654-1.473c-8.976-0.063-18.322,1.71-27.49-3.459
			c-0.592-2.818-1.742-5.715-1.729-8.608C2478.373,2124.45,2478.773,2064.09,2479.157,2002.263z M2673.005,2026.78
			c-3.536-0.86-5.712-1.842-7.893-1.853c-38.278-0.199-76.556-0.337-114.833-0.269c-2.776,0.005-5.549,1.684-7.87,2.438
			c-3.555,23.067-2.871,89.669,1.283,107.005c13.751,2.219,28.219,1.054,42.572,1.294c14.543,0.244,29.095,0.254,43.639,0.059
			c14.322-0.192,28.781,1.373,42.443-1.106C2676.854,2115.339,2677.187,2049.429,2673.005,2026.78z M2846.262,2026.415
			c-4.558,22.606,1.759,45.749-3.743,68.274c-8.932,1.795-16.864,3.39-24.216,4.868c-4.003,25.804-3.335,58.298,1.558,74.629
			c12.283,2.842,25.315,1.514,38.114,1.152c13.338-0.377,27.321,3.544,41.409-4.429c1.094-44.161,0.209-88.445,0.081-132.717
			c-0.01-3.644-1.013-7.284-1.797-12.554C2880.402,2024.194,2864.107,2022.604,2846.262,2026.415z M2818.51,2024.948
			c-20.949-0.075-39.948-0.672-58.908-0.062c-18.723,0.602-37.743-2.935-56.775,2.407c-2.215,15.067-2.951,29.126,0.141,42.781
			c15.354,3.403,83.037,4.882,108.105,2.399c2.772-0.274,5.393-2.078,8.414-3.307
			C2821.296,2054.949,2821.637,2041.547,2818.51,2024.948z M2787.854,2174.82c4.013-14.734,2.838-27.01,2.405-39.049
			c-0.451-12.547,3.668-25.774-3.964-38.379c-13.903,0-27.625-0.488-41.298,0.135c-14.167,0.646-28.783-2.5-42.833,3.526
			c-1.078,11.755-3.834,22.95,2.53,33.259c15.515,3.561,31.146-2.158,46.259,3.86c0.927,11.807,1.801,22.938,2.717,34.604
			c5.021,0.83,8.68,1.809,12.374,1.964C2772.791,2175.023,2779.558,2174.82,2787.854,2174.82z M2513.054,2024.501
			c-11.371,4.651-9.486,11.546-9.51,17.005c-0.179,39.706-0.082,79.414,0.11,119.12c0.018,3.582,1.323,7.158,1.975,10.458
			c3.287,0.988,5.414,2.179,7.545,2.187c66.43,0.228,132.861,0.366,199.292,0.388c2.929,0.001,6.14-0.686,8.685-2.05
			c1.583-0.849,3.006-3.606,2.946-5.457c-0.06-1.865-1.785-4.973-3.232-5.26c-5.135-1.02-10.461-1.403-15.718-1.433
			c-54.977-0.311-109.956-0.463-164.933-0.787c-7.451-0.044-14.897-0.793-21.044-1.142c-6.539-8.417-4.535-16.334-4.573-23.75
			c-0.149-29.015,0.168-58.032,0.083-87.048C2514.66,2040.052,2513.732,2033.376,2513.054,2024.501z"/>
		<path d="M1136.035,2090.984c90.07,1.257,175.19,34.341,247.368,99.719c62.855,56.934,102.302,127.714,116.013,211.175
			c18.284,111.299-6.663,212.819-76.945,301.919c-63.926,81.042-149.096,125.047-250.212,138.851
			c-82.198,11.221-160.389-3.391-232.329-44.841c-92.343-53.206-156.373-130.595-181.703-234.718
			c-34.207-140.613,1.629-263.859,104.643-365.693C936.059,2125.045,1026.289,2092.097,1136.035,2090.984z M1481.132,2459.156
			c-0.929-11.66-1.108-28.622-3.784-45.179c-21.16-130.896-116.208-244.378-245.528-283.424
			c-131.672-39.757-283.95-5.64-383.944,118.918c-64.842,80.77-88.151,173.495-72.457,275.708
			c23.31,151.814,141.996,262.713,282.438,290.742c82.674,16.5,161.423,2.08,235.887-36.513
			c35.619-18.46,67.686-42.106,94.468-72.024C1450.045,2638.313,1480.599,2557.015,1481.132,2459.156z"/>
		<path d="M2718.002,2685.964c-0.463-138.148,121.718-266.562,277.531-250.904c106.521,10.704,182.442,66.445,217.835,167.74
			c32.003,91.593,15.885,177.809-46.263,254.346c-82.177,101.202-240.208,121.304-349.233,36.771
			c-52.019-40.334-82.41-93.661-94.141-157.872C2720.718,2719.553,2719.853,2702.668,2718.002,2685.964z M2969.221,2457.831
			c-78.321,1.503-139.508,35.771-184.487,98.908c-35.9,50.393-46.604,107.046-37.809,168.022
			c16.105,111.645,108.551,189.696,208.232,197.118c146.957,10.942,276.038-118.502,244.213-280.668
			C3178.608,2535.417,3080.549,2455.321,2969.221,2457.831z"/>
		<path d="M1008.991,2503.448c-4.703-23.647-8.491-46.244,1.4-69.317c-5.287-1.791-8.621-3.406-12.131-4.029
			c-21.647-3.843-24.998-27.527-19.654-41.712c5.486-14.563,24.755-21.568,40.77-14.374c5.477,2.46,10.289,6.402,16.706,10.497
			c9.262-6.577,18.61-14.258,28.936-20.258c10.48-6.089,21.925-10.519,34.553-16.427c-1.243-4.988-2.977-10.513-3.969-16.168
			c-4.081-23.271,10.849-38.826,34.441-36.101c13.569,1.567,22.241,9.831,23.839,23.654c0.603,5.218,0.26,10.716-0.693,15.896
			c-0.922,5.012-3.182,9.777-5.149,15.511c12.368,4.488,24.29,7.523,34.928,13.037c10.64,5.515,19.996,13.508,29.886,20.394
			c19.787-14.835,30.056-17.435,43.122-10.28c11.065,6.059,16.16,15.859,16.059,28.349c-0.162,20.188-15.63,25.945-31.303,31.09
			c1.211,12.485,3.158,23.829,3.174,35.177c0.016,11.336-1.899,22.675-3.036,34.747c5.831,2.353,11.613,4.137,16.872,6.911
			c15.859,8.363,21.265,28.321,12.073,43.35c-8.128,13.289-28.821,18.229-42.731,9.674c-5.043-3.101-9.207-7.631-14.314-11.969
			c-10.27,6.927-19.8,14.613-30.439,20.177c-10.719,5.605-22.54,9.103-35.318,14.085c1.38,4.452,2.515,8.53,3.907,12.518
			c2.864,8.205,3.572,16.521,0.374,24.669c-4.969,12.66-19.543,19.586-34.284,16.727c-13.7-2.657-21.833-13.416-21.148-28.403
			c0.173-3.781,0.959-7.591,1.931-11.264c0.969-3.664,2.525-7.173,4.333-12.15c-11.681-5.104-23.789-9.374-34.857-15.516
			c-11.22-6.226-21.414-14.303-32.106-21.604c-18.547,15.601-30.911,19.456-44.397,13.755c-10.317-4.361-17.273-15.63-17.008-27.596
			C974.245,2514.388,990.187,2507.629,1008.991,2503.448z M1126.797,2374.156c-53.673-0.564-96.568,39.346-97.324,91.984
			c-0.731,50.871,43.483,94.798,95.136,95.141c51.038,0.339,94.02-41.977,94.298-92.837
			C1219.193,2416,1178.145,2373.981,1126.797,2374.156z M1242.204,2540.884c1.569-1.856,3.867-3.411,3.734-4.72
			c-0.156-1.534-2.198-3.61-3.828-4.099c-2.86-0.859-6.464,2.766-5.198,4.953
			C1237.806,2538.564,1240.008,2539.354,1242.204,2540.884z M1245.251,2402.382c-1.192-1.931-2.259-4.227-2.604-4.124
			c-1.934,0.582-3.693,1.742-5.513,2.704c1.08,1.552,2.075,4.281,3.261,4.366C1241.941,2405.44,1243.636,2403.455,1245.251,2402.382
			z M1006.127,2407.4c2.161-2.072,4.477-3.289,4.595-4.691c0.117-1.381-1.955-4.107-3.137-4.147
			c-1.514-0.051-3.891,1.727-4.396,3.223C1002.799,2402.943,1004.714,2404.878,1006.127,2407.4z M1124.51,2321.493
			c-0.87,1.787-1.724,3.54-2.577,5.293c1.242,0.577,3.148,1.955,3.602,1.58c1.403-1.161,2.253-2.991,3.318-4.562
			C1127.635,2323.155,1126.417,2322.507,1124.51,2321.493z M1014.159,2535.945c-5.263-2.791-7.136-4.592-8.361-4.225
			c-1.441,0.432-3.128,2.723-3.164,4.243c-0.024,1.046,2.548,2.963,4.021,3.024
			C1008.457,2539.063,1010.323,2537.605,1014.159,2535.945z M1125.814,2609.493c-0.793-0.974-1.585-1.949-2.378-2.924
			c-0.542,0.514-1.6,1.115-1.531,1.527c0.212,1.277,0.854,2.482,1.329,3.715C1124.094,2611.041,1124.954,2610.271,1125.814,2609.493
			z"/>
		<path d="M3068.296,2763.752c15.266,9.469,20.593,23.333,14.075,40.91c-4.567,12.316-14.53,17.263-26.896,17.833
			c-18.208,0.838-28.105-9.515-32.663-26.589c-12.642,2.182-24.416,4.976-36.344,6.053c-11.236,1.013-22.635,0.217-34.738,0.217
			c-1.035,5.669-1.53,10.121-2.685,14.394c-4.474,16.542-15.987,23.81-32.696,20.89c-15.518-2.711-26.342-15.115-25.379-30.472
			c0.369-5.89,3.045-11.68,4.988-17.406c0.955-2.814,2.636-5.381,3.803-7.692c-11.612-15.617-22.859-30.744-34.985-47.052
			c-5.274,0-12.192,0.774-18.872-0.156c-15.345-2.136-24.427-13.004-24.81-28.21c-0.424-16.861,11.35-30.485,24.598-30.891
			c3.771-0.115,7.539-0.356,12.635-0.604c6.786-18.916,8.325-40.243,23.134-57.037c-3.836-5.025-8.015-9.313-10.805-14.367
			c-10.154-18.389-1.431-40.547,17.962-46.591c12.478-3.889,22.536-1.006,30.525,9.441c3.172,4.149,5.333,9.071,8.506,14.604
			c22.377-7.133,44.993-8.892,69.068-4.697c1.173-4.282,2.012-7.701,3.045-11.061c5.982-19.454,21.936-27.798,41.039-21.511
			c16.076,5.291,24.197,24.305,17.257,41.593c-1.895,4.721-5.492,8.759-8.166,12.89c10.594,15.603,20.804,30.641,30.881,45.482
			c32.476-3.59,45.972,3.077,48.379,23.608c2.675,22.813-7.656,32.599-39.127,36.527
			C3083.201,2722.673,3076.261,2741.801,3068.296,2763.752z M3062.087,2687.822c-0.603-4.65-0.644-14.049-3.156-22.732
			c-10.201-35.257-32.725-58.591-69.435-65.221c-37.29-6.734-68.014,5.127-89.588,37.102c-20.908,30.988-18.395,69.83,2.225,103.719
			c25.735,42.297,99.671,55.458,138.684,8.591C3054.651,2732.66,3061.017,2713.612,3062.087,2687.822z M3058.512,2793.132
			c-2.332-2.065-3.652-3.755-5.38-4.501c-0.669-0.289-3.341,1.746-3.228,2.396c0.331,1.899,1.605,3.634,2.509,5.433
			C3054.108,2795.533,3055.803,2794.609,3058.512,2793.132z M2927.033,2807.401c-3.109-2.366-4.827-4.655-6.205-4.466
			c-1.604,0.22-3.803,2.458-4.079,4.099c-0.238,1.414,2.254,4.74,2.858,4.584
			C2921.846,2811.041,2923.803,2809.372,2927.033,2807.401z M3095.428,2669.467c-0.484,1.759-1.215,3.425-1.226,5.095
			c-0.003,0.465,2.954,1.56,3.136,1.315c1.03-1.389,1.63-3.097,2.377-4.697C3098.522,2670.704,3097.33,2670.227,3095.428,2669.467z
			 M2851.827,2701.263c-1.283,3.266-2.273,4.966-2.452,6.748c-0.053,0.528,2.216,1.844,3.36,1.776
			c1.092-0.065,3.119-1.851,2.982-2.208C2855.04,2705.812,2853.78,2704.269,2851.827,2701.263z M3029.14,2574.981
			c1.686-1.114,3.749-2.182,3.647-2.46c-0.593-1.624-1.513-3.25-2.751-4.426c-0.296-0.281-3.295,1.414-3.213,1.751
			C3027.253,2571.605,3028.276,2573.219,3029.14,2574.981z M2896.074,2579.749c-1.475,3.206-2.707,5.097-3.132,7.155
			c-0.198,0.957,1.17,2.237,1.828,3.371c1.544-1.088,3.427-1.934,4.467-3.384
			C2899.651,2586.312,2898.206,2584.399,2896.074,2579.749z"/>
	</g>
</g>
</svg>
