<?xml version="1.0" encoding="utf-8"?>
<!-- Generator: Adobe Illustrator 27.5.0, SVG Export Plug-In . SVG Version: 6.00 Build 0)  -->
<svg xmlns="http://www.w3.org/2000/svg" xmlns:xlink="http://www.w3.org/1999/xlink" viewBox="0 0 500 500" width="595" height="842" preserveAspectRatio="xMidYMid meet" data-scaled="true">
<g id="BACKGROUND">
	<rect style="fill:#FFFFFF;" width="500" height="500"/>
</g>
<g id="OBJECTS">
	<g>
		<defs>
			<rect id="SVGID_1_" x="4.011" y="190.078" width="491.977" height="309.922"/>
		</defs>
		<clipPath id="SVGID_00000182511250776653576660000003649729904298054591_">
			<use xlink:href="#SVGID_1_"  style="overflow:visible;"/>
		</clipPath>
		<g style="clip-path:url(#SVGID_00000182511250776653576660000003649729904298054591_);">
			
				<path style="fill:#FFFFFF;stroke:#120A26;stroke-width:1.5;stroke-linecap:round;stroke-linejoin:round;stroke-miterlimit:10;" d="
				M57.413,353.001c-5.785,4.089-9.327,9.656-10.625,16.703c-0.832-21.164-6.21-85.626,29.982-53.937
				c-6.478-20.105-26.37-23.462-31.832-0.391c-1.106-39.789-1.876-79.627-3.984-119.296c-1.521,23.559-1.713,47.309-1.488,71.045
				c-5.887-21.579-24.241-15.967-28.472,3.917c37.161-40.557,29.885,81.76,30.258,98.623c-7.368-22.647-28.28-17.462-35.07,3.397
				c41.555-38.553,36.145,42.368,36.739,66.054c0.709,26.976,1.725,65.331,2.323,92.264l7.339-0.331
				c-0.362-13.514-1.071-38.399-1.565-51.887c-1.027-28.389-2.16-56.775-3.276-85.16c-1.016-25.845,10.138-43.72,34.275-24.359
				C78.628,360.823,68.491,347.272,57.413,353.001z"/>
			
				<path style="fill:#FFFFFF;stroke:#120A26;stroke-width:1.5;stroke-linecap:round;stroke-linejoin:round;stroke-miterlimit:10;" d="
				M237.217,359.475c-5.699,4.274-9.137,9.965-10.313,17.071c-1.201-20.749-17.909-149.316,27.581-111.694
				c-9.515-27.609-30.204-16.345-32.751,6.382c-1.064-22.719-2.25-45.42-3.875-68.05c-1.855,40.382,0.179,81.188,1.546,121.55
				c-0.804-23.777-25.211-13.652-28.686,4.366c35.996-41.387,31.594,70.715,32.334,87.818c-7.533-22.98-28.708-17.969-35.294,3.73
				c25.615-25.096,35.429-0.56,36.563,25.425c1.208,26.943,2.933,65.249,4.03,92.152l7.33-0.589
				c-0.612-13.497-1.781-38.348-2.524-51.815c-1.552-28.343-3.21-56.68-4.85-85.018c-1.483-25.613,9.167-44.182,33.814-25.555
				C258.547,366.492,248.095,353.409,237.217,359.475z"/>
			
				<path style="fill:#FFFFFF;stroke:#120A26;stroke-width:1.5;stroke-linecap:round;stroke-linejoin:round;stroke-miterlimit:10;" d="
				M118.667,359.475c-5.699,4.274-9.137,9.965-10.313,17.071c-1.146-19.798-16.951-141.284,28.119-104.011
				c-9.515-27.609-30.204-16.345-32.751,6.382c-1.064-22.719-2.788-53.104-4.412-75.734c-1.855,40.382,0.2,89.042,1.568,129.404
				c-0.804-23.777-25.211-13.652-28.686,4.366c35.04-40.288,31.551,62.354,32.312,79.963c-7.532-22.98-28.708-17.969-35.294,3.73
				c25.615-25.096,35.429-0.56,36.563,25.425c1.208,26.943,2.933,65.249,4.029,92.152l7.33-0.589
				c-0.612-13.497-1.781-38.348-2.524-51.815c-1.552-28.343-3.21-56.68-4.85-85.018c-1.483-25.613,9.167-44.182,33.814-25.555
				C139.997,366.492,129.544,353.409,118.667,359.475z"/>
			
				<path style="fill:#FFFFFF;stroke:#120A26;stroke-width:1.5;stroke-linecap:round;stroke-linejoin:round;stroke-miterlimit:10;" d="
				M196.755,365.532c-9.723-16.076-25.195-13.529-31.205,4.061c0.64-17.973-4.854-139.137,31.581-97.833
				c-3.672-18.524-21.78-27.657-28.414-4.645c0.544-23.726,0.672-47.477-0.531-71.071c-1.683,25.236-3.378,61.175-4.409,86.509
				c-5.348-20.346-23.038-14.452-28.005,3.233c32.969-30.148,26.903,32.783,26.071,51.645c-5.833-20.922-24.787-16.755-31.19,2.161
				c30.392-25.533,30.334,15.681,29.087,37.716c-1.915,33.832-3.747,67.667-5.429,101.511c-0.675,13.473-1.719,38.336-2.263,51.838
				l7.333,0.519c0.961-26.913,2.493-65.235,3.565-92.188c0.913-23.662-3.421-104.727,37.623-65.103
				C199.297,371.101,198.026,368.316,196.755,365.532z"/>
			
				<path style="fill:#FFFFFF;stroke:#120A26;stroke-width:1.5;stroke-linecap:round;stroke-linejoin:round;stroke-miterlimit:10;" d="
				M490.005,372.47c-9.723-16.076-25.195-13.529-31.204,4.061c0.64-17.973-4.854-139.137,31.581-97.833
				c-3.672-18.524-21.78-27.656-28.414-4.645c0.544-23.726,0.672-47.477-0.531-71.071c-1.683,25.236-3.056,58.316-4.087,83.65
				c-5.377-20.455-23.305-15.35-28.4,2.797c31.234-28.561,26.846,26.386,26.024,45.868c-5.931-20.812-24.797-16.264-31.122,2.422
				c32.783-27.541,30.039,21.764,29.006,43.219c-1.684,34.945-3.559,69.879-5.296,104.821c-0.675,13.474-1.719,38.336-2.263,51.838
				l7.333,0.519c0.961-26.913,2.493-65.235,3.565-92.188c0.913-23.662-3.421-104.728,37.623-65.103
				C492.547,378.04,491.276,375.255,490.005,372.47z"/>
			
				<path style="fill:#FFFFFF;stroke:#120A26;stroke-width:1.5;stroke-linecap:round;stroke-linejoin:round;stroke-miterlimit:10;" d="
				M355.386,338.899c-7.186,4.007-10.01,14.15-11.232,21.626c-1.113-19.807-17.371-136.49,27.292-99.551
				c-7.136-20.706-27.249-21.797-31.967,1.359c-0.958-19.747-2.039-39.475-3.451-59.15c-1.704,37.111-0.126,74.578,1.203,111.73
				c-5.841-21.986-24.665-17.651-28.762,3.595c35.89-41.266,31.309,64.373,32.043,81.659c-8.69-21.639-28.567-11.807-34.202,6.758
				c31.992-31.344,35.086,14.038,36.182,39.146c1.208,26.943,2.933,65.249,4.03,92.152l7.33-0.589
				c-0.612-13.497-1.781-38.348-2.524-51.815c-1.728-31.56-3.582-63.113-5.409-94.668c-1.478-25.527,4.05-59.397,34.372-36.481
				C376.716,345.916,366.264,332.833,355.386,338.899z"/>
			
				<path style="fill:#FFFFFF;stroke:#120A26;stroke-width:1.5;stroke-linecap:round;stroke-linejoin:round;stroke-miterlimit:10;" d="
				M319.118,373.886c-6.126-19.797-26.917-28.005-35.018-4.294c0.64-17.973-4.854-139.137,31.581-97.833
				c-3.672-18.524-21.78-27.656-28.414-4.645c0.544-23.726,0.672-47.477-0.531-71.071c-1.683,25.236-3.64,59.759-4.671,85.093
				c-5.348-20.346-23.039-14.452-28.005,3.233c33.824-30.93,26.446,36.506,25.627,55.075c-5.833-20.922-24.787-16.755-31.19,2.161
				c32.288-27.125,29.979,21.705,28.996,43.097c-1.441,31.378-3.073,62.744-4.632,94.116c-0.675,13.473-1.719,38.336-2.263,51.838
				l7.333,0.519c0.961-26.913,2.493-65.235,3.565-92.188C282.409,415.327,278.075,334.262,319.118,373.886z"/>
			
				<path style="fill:#FFFFFF;stroke:#120A26;stroke-width:1.5;stroke-linecap:round;stroke-linejoin:round;stroke-miterlimit:10;" d="
				M437.288,373.886c-6.126-19.797-26.917-28.005-35.018-4.294c0.64-17.973-4.853-139.137,31.581-97.833
				c-3.672-18.524-21.78-27.656-28.414-4.645c0.544-23.726,0.672-47.477-0.531-71.071c-1.683,25.236-3.293,57.661-4.323,82.995
				c-5.348-20.346-23.039-14.452-28.005,3.233c31.954-29.22,26.938,28.901,26.097,47.97c-5.833-20.922-24.787-16.755-31.19,2.162
				c32.953-27.685,29.965,23.561,28.84,44.857c-1.788,33.852-3.61,67.702-5.293,101.559c-0.675,13.473-1.719,38.336-2.263,51.838
				l7.333,0.519c0.961-26.913,2.493-65.235,3.565-92.188C400.578,415.327,396.244,334.262,437.288,373.886z"/>
		</g>
	</g>
	<g>
		<g>
			<g>
				<g>
					<defs>
						
							<rect id="SVGID_00000145766858233106681830000002236856966122182028_" x="220.996" y="163.055" width="58.009" height="336.945"/>
					</defs>
					<clipPath id="SVGID_00000082351456728124694840000004982512830853869746_">
						<use xlink:href="#SVGID_00000145766858233106681830000002236856966122182028_"  style="overflow:visible;"/>
					</clipPath>
					
						<path style="clip-path:url(#SVGID_00000082351456728124694840000004982512830853869746_);fill:#FFFFFF;stroke:#120A26;stroke-width:1.5;stroke-linecap:round;stroke-linejoin:round;stroke-miterlimit:10;" d="
						M259.598,429.205c-0.911-6.764-2.048-13.5-3.293-20.221c-1.244-6.721-2.453-13.448-3.377-20.21
						c-0.995-6.754-1.589-13.559-1.989-20.389c-0.382-6.653-0.806-13.301-1.647-19.894c0.687-8.097,0.946-16.229,1.163-24.365
						c0.217-8.305,0.682-16.59,1.496-24.847c0.76-8.261,1.808-16.498,2.879-24.733c1.073-8.235,2.092-16.474,2.859-24.734
						l0.029-0.317l-0.022-0.437c-0.296-5.839-0.807-11.665-1.435-17.484c-0.62-5.819-1.197-11.641-1.751-17.464l-3.384-37.766
						l-6.069,0.384l1.041,37.914c0.183,5.847,0.344,11.695,0.462,17.545c0.107,5.745,0.331,11.483,0.757,17.208
						c-0.579,8.129-0.92,16.278-1.207,24.432c-0.293,8.299-0.61,16.596-1.215,24.87c-0.551,8.278-1.45,16.527-2.598,24.756
						c-1.143,8.229-2.248,16.461-2.893,24.731l-0.041,0.525l0.064,0.512c0.853,6.772,2.166,13.484,3.514,20.193
						c1.341,6.709,2.488,13.443,3.234,20.229c0.817,6.776,1.349,13.59,1.846,20.407c0.484,6.655,1.074,13.297,1.874,19.911
						l-0.38,6.622l-0.31,7.05l-0.419,14.113c-0.215,9.412-0.59,18.815-1.188,28.204l-0.87,14.086
						c-0.295,4.695-0.617,9.388-0.973,14.08c-0.666,9.385-1.386,18.768-2.258,28.141l9.188,0.545
						c0.242-9.411,0.636-18.812,1.084-28.211c0.201-4.701,0.436-9.399,0.697-14.096l0.801-14.09
						c0.516-9.394,1.255-18.775,2.154-28.147l1.252-14.063l0.525-7.038l0.431-7.043l0.028-0.466L259.598,429.205z"/>
				</g>
				
					<path style="fill:#FFFFFF;stroke:#120A26;stroke-width:1.5;stroke-linecap:round;stroke-linejoin:round;stroke-miterlimit:10;" d="
					M394.509,201.325c-6.312,1.977-12.682,3.663-19.07,5.256c-6.385,1.608-12.804,3.05-19.232,4.444
					c-6.427,1.397-12.906,2.536-19.422,3.492l-9.765,1.476l-4.868,0.811l-4.441,0.807c-2.553,0.021-5.106,0.053-7.658,0.122
					l-7.993,0.287c-5.328,0.221-10.657,0.441-15.987,0.508l-7.996,0.067l-7.997-0.027c-5.332-0.02-10.663-0.031-15.993,0.088
					l-0.392,0.009l-0.323,0.068c-7.109,1.488-14.162,3.254-21.227,4.962c-7.061,1.724-14.164,3.246-21.313,4.54
					c-7.151,1.283-14.366,2.249-21.592,3.162c-7.134,0.913-14.243,1.952-21.286,3.314c-5.064,0.541-10.086,1.442-15.092,2.477
					c-5.06,1.047-10.129,2.019-15.241,2.621l-7.675,0.846c-2.565,0.224-5.123,0.507-7.695,0.678
					c-5.136,0.401-10.284,0.698-15.465,0.707l1.178,10.026c5.043-1.193,10.119-2.097,15.208-2.897
					c2.541-0.43,5.095-0.747,7.642-1.124l7.662-0.956c5.112-0.599,10.268-0.829,15.433-0.983c5.165-0.155,10.313-0.444,15.418-1.107
					l0.27-0.035l0.158-0.034c7.105-1.506,14.143-3.35,21.154-5.319c7.009-1.981,14.029-3.908,21.113-5.519
					c7.087-1.6,14.219-2.972,21.393-4.142c7.042-1.164,14.095-2.276,21.095-3.647c5.221-0.017,10.44-0.152,15.659-0.3l7.994-0.223
					l7.995-0.129c5.331-0.063,10.663,0.026,15.995,0.117l7.998,0.091c2.666,0.007,5.331-0.026,7.996-0.07l0.419-0.007l0.33-0.072
					l4.821-1.046l4.807-1.117l9.584-2.38c6.384-1.614,12.805-3.046,19.277-4.22c6.471-1.176,12.952-2.305,19.466-3.268
					c6.511-0.978,13.041-1.862,19.628-2.456L394.509,201.325z"/>
				<g>
					
						<path style="fill:#FFFFFF;stroke:#120A26;stroke-width:1.5;stroke-linecap:round;stroke-linejoin:round;stroke-miterlimit:10;" d="
						M373.682,214.164c33.744,35.273,84.668,14.502,84.668,14.502l-1.919-6.557l-21.954-1.598l26.737-4.63l-1.975-7.025
						l-19.266-0.053l14.716-2.636l-0.273-10.922l-16.209-1.449l18.92-2.884l0.304-7.166l-25.264,0.153l20.629-2.415l-0.035-8.897
						c0,0-53.383-10.786-80.079,34.678L373.682,214.164z"/>
					
						<path style="fill:none;stroke:#120A26;stroke-width:1.5;stroke-linecap:round;stroke-linejoin:round;stroke-miterlimit:10;" d="
						M373.457,210.631c0,0,26.713-29.17,60.319-32.234"/>
					
						<path style="fill:none;stroke:#120A26;stroke-width:1.5;stroke-linecap:round;stroke-linejoin:round;stroke-miterlimit:10;" d="
						M373.457,210.631c0,0,35.426-19.021,60.319-20.553"/>
					
						<path style="fill:none;stroke:#120A26;stroke-width:1.5;stroke-linecap:round;stroke-linejoin:round;stroke-miterlimit:10;" d="
						M373.457,210.631c0,0,25.277,18.702,68.936,16.439"/>
					
						<path style="fill:none;stroke:#120A26;stroke-width:1.5;stroke-linecap:round;stroke-linejoin:round;stroke-miterlimit:10;" d="
						M373.457,210.631c0,0,34.851,7.787,66.366,3.702"/>
					
						<path style="fill:none;stroke:#120A26;stroke-width:1.5;stroke-linecap:round;stroke-linejoin:round;stroke-miterlimit:10;" d="
						M373.457,210.631c0,0,43.021-7.774,67.915-9.306"/>
				</g>
				<g>
					
						<path style="fill:#FFFFFF;stroke:#120A26;stroke-width:1.5;stroke-linecap:round;stroke-linejoin:round;stroke-miterlimit:10;" d="
						M127.627,248.499c-23.033,43.038-77.664,36.023-77.664,36.023l0.088-6.831l20.719-7.435l-26.998,2.72l0.016-7.297l18.544-5.225
						l-14.883,1.412l-2.67-10.595l15.225-5.748l-19,2.302l-2.217-6.821l24.377-6.637l-20.52,3.214l-2.355-8.579
						c0,0,48.508-24.67,86.432,11.956L127.627,248.499z"/>
					
						<path style="fill:none;stroke:#120A26;stroke-width:1.5;stroke-linecap:round;stroke-linejoin:round;stroke-miterlimit:10;" d="
						M126.895,244.353c0,0-33.564-20.926-66.759-14.853"/>
					
						<path style="fill:none;stroke:#120A26;stroke-width:1.5;stroke-linecap:round;stroke-linejoin:round;stroke-miterlimit:10;" d="
						M126.895,244.353c0,0-39.232-8.81-63.623-3.601"/>
					
						<path style="fill:none;stroke:#120A26;stroke-width:1.5;stroke-linecap:round;stroke-linejoin:round;stroke-miterlimit:10;" d="
						M126.895,244.353c0,0-19.326,24.803-61.99,34.346"/>
					
						<path style="fill:none;stroke:#120A26;stroke-width:1.5;stroke-linecap:round;stroke-linejoin:round;stroke-miterlimit:10;" d="
						M126.895,244.353c0,0-31.48,16.859-62.934,21.387"/>
					
						<path style="fill:none;stroke:#120A26;stroke-width:1.5;stroke-linecap:round;stroke-linejoin:round;stroke-miterlimit:10;" d="
						M126.895,244.353c0,0-43.529,4.064-67.919,9.273"/>
				</g>
			</g>
			<g>
				
					<path style="fill:#FFFFFF;stroke:#120A26;stroke-width:1.5;stroke-linecap:round;stroke-linejoin:round;stroke-miterlimit:10;" d="
					M373.887,274.799c-2.931-9.5-5.332-15.73-5.332-15.73s-10.427,73.61-28.095,106.62c-0.681,1.22-1.371,2.42-2.061,3.62
					c-0.132-13.58-0.615-22.23-0.615-22.23s-4.556,29.44-21.922,59.27c-0.047,0.08-0.095,0.17-0.151,0.26
					c-0.596,0.97-1.163,1.93-1.73,2.89c-0.889-19.23,1.012-34.08,1.106-34.82c-0.463,0.94-13.074,27.09-15.853,71.11
					c-51.095-18.47-74.417-69.67-75.069-71.11c0.293,1.07,7.695,27.76,11.013,46.84h-0.009c-0.01-0.01-0.019-0.01-0.028-0.02
					c-30.024-21.06-41.727-45.9-42.162-46.82c0.104,0.69,1.891,11.88,4.698,24.79h-0.01c-50.273-42.03-50.32-80.84-50.32-80.99
					c0,0-0.34,9.66,0.709,25.26c-28.435-50.5-23.737-105.97-23.737-105.97c45.962-1.56,66.901-10.03,88.71-13.22
					c7.827,18.12,26.857,29.84,45.735,27.02c19.701-2.95,32.378-16.17,30.194-36.41c39.411-1.53,58.686-10.344,87.566-14.834
					C378.443,224.915,377.205,254.939,373.887,274.799z"/>
				<g>
					<g>
						<g>
							<g>
								
									<line style="fill:none;stroke:#120A26;stroke-width:1.5;stroke-linecap:round;stroke-linejoin:round;stroke-miterlimit:10;" x1="261.085" y1="292.729" x2="260.179" y2="286.959"/>
							</g>
							<g>
								
									<line style="fill:none;stroke:#120A26;stroke-width:1.5;stroke-linecap:round;stroke-linejoin:round;stroke-miterlimit:10;" x1="255.209" y1="285.931" x2="254.303" y2="280.162"/>
							</g>
						</g>
					</g>
					<g>
						<g>
							<g>
								
									<line style="fill:none;stroke:#120A26;stroke-width:1.5;stroke-linecap:round;stroke-linejoin:round;stroke-miterlimit:10;" x1="259.587" y1="366.608" x2="258.681" y2="360.839"/>
							</g>
							<g>
								
									<line style="fill:none;stroke:#120A26;stroke-width:1.5;stroke-linecap:round;stroke-linejoin:round;stroke-miterlimit:10;" x1="253.711" y1="359.811" x2="252.805" y2="354.042"/>
							</g>
						</g>
					</g>
					<g>
						<g>
							<g>
								
									<line style="fill:none;stroke:#120A26;stroke-width:1.5;stroke-linecap:round;stroke-linejoin:round;stroke-miterlimit:10;" x1="148.752" y1="267.259" x2="147.845" y2="261.489"/>
							</g>
							<g>
								
									<line style="fill:none;stroke:#120A26;stroke-width:1.5;stroke-linecap:round;stroke-linejoin:round;stroke-miterlimit:10;" x1="142.876" y1="260.461" x2="141.97" y2="254.692"/>
							</g>
						</g>
					</g>
					<g>
						<g>
							<g>
								
									<line style="fill:none;stroke:#120A26;stroke-width:1.5;stroke-linecap:round;stroke-linejoin:round;stroke-miterlimit:10;" x1="354.29" y1="237.949" x2="353.384" y2="232.18"/>
							</g>
							<g>
								
									<line style="fill:none;stroke:#120A26;stroke-width:1.5;stroke-linecap:round;stroke-linejoin:round;stroke-miterlimit:10;" x1="348.414" y1="231.152" x2="347.508" y2="225.383"/>
							</g>
							<g>
								
									<line style="fill:none;stroke:#120A26;stroke-width:1.5;stroke-linecap:round;stroke-linejoin:round;stroke-miterlimit:10;" x1="345.035" y1="240.25" x2="344.129" y2="234.48"/>
							</g>
						</g>
					</g>
					<g>
						<g>
							<g>
								
									<line style="fill:none;stroke:#120A26;stroke-width:1.5;stroke-linecap:round;stroke-linejoin:round;stroke-miterlimit:10;" x1="318.542" y1="266.66" x2="317.636" y2="260.891"/>
							</g>
							<g>
								
									<line style="fill:none;stroke:#120A26;stroke-width:1.5;stroke-linecap:round;stroke-linejoin:round;stroke-miterlimit:10;" x1="312.666" y1="259.862" x2="311.76" y2="254.093"/>
							</g>
							<g>
								
									<line style="fill:none;stroke:#120A26;stroke-width:1.5;stroke-linecap:round;stroke-linejoin:round;stroke-miterlimit:10;" x1="309.287" y1="268.96" x2="308.381" y2="263.191"/>
							</g>
						</g>
					</g>
					<g>
						<g>
							<g>
								
									<line style="fill:none;stroke:#120A26;stroke-width:1.5;stroke-linecap:round;stroke-linejoin:round;stroke-miterlimit:10;" x1="217.127" y1="343.275" x2="216.22" y2="337.506"/>
							</g>
							<g>
								
									<line style="fill:none;stroke:#120A26;stroke-width:1.5;stroke-linecap:round;stroke-linejoin:round;stroke-miterlimit:10;" x1="211.251" y1="336.477" x2="210.344" y2="330.708"/>
							</g>
							<g>
								
									<line style="fill:none;stroke:#120A26;stroke-width:1.5;stroke-linecap:round;stroke-linejoin:round;stroke-miterlimit:10;" x1="207.871" y1="345.575" x2="206.965" y2="339.806"/>
							</g>
						</g>
					</g>
					<g>
						<g>
							<g>
								
									<line style="fill:none;stroke:#120A26;stroke-width:1.5;stroke-linecap:round;stroke-linejoin:round;stroke-miterlimit:10;" x1="286.447" y1="408.266" x2="285.541" y2="402.496"/>
							</g>
							<g>
								
									<line style="fill:none;stroke:#120A26;stroke-width:1.5;stroke-linecap:round;stroke-linejoin:round;stroke-miterlimit:10;" x1="280.571" y1="401.468" x2="279.665" y2="395.699"/>
							</g>
							<g>
								
									<line style="fill:none;stroke:#120A26;stroke-width:1.5;stroke-linecap:round;stroke-linejoin:round;stroke-miterlimit:10;" x1="277.192" y1="410.566" x2="276.285" y2="404.796"/>
							</g>
						</g>
					</g>
				</g>
				<g>
					<g>
						
							<polygon style="fill:none;stroke:#120A26;stroke-width:1.5;stroke-linecap:round;stroke-linejoin:round;stroke-miterlimit:10;" points="
							322.533,345.97 275.179,340.701 282.378,297.397 326.433,297.711 						"/>
						<g>
							
								<line style="fill:none;stroke:#120A26;stroke-width:1.5;stroke-linecap:round;stroke-linejoin:round;stroke-miterlimit:10;" x1="288.369" y1="335.748" x2="285.439" y2="346.95"/>
							
								<line style="fill:none;stroke:#120A26;stroke-width:1.5;stroke-linecap:round;stroke-linejoin:round;stroke-miterlimit:10;" x1="313.462" y1="338.142" x2="313.462" y2="349.72"/>
							
								<line style="fill:none;stroke:#120A26;stroke-width:1.5;stroke-linecap:round;stroke-linejoin:round;stroke-miterlimit:10;" x1="300.487" y1="337.379" x2="299.022" y2="350.483"/>
						</g>
						<g>
							
								<line style="fill:none;stroke:#120A26;stroke-width:1.5;stroke-linecap:round;stroke-linejoin:round;stroke-miterlimit:10;" x1="318.986" y1="333.79" x2="330.342" y2="336.048"/>
							
								<line style="fill:none;stroke:#120A26;stroke-width:1.5;stroke-linecap:round;stroke-linejoin:round;stroke-miterlimit:10;" x1="319.883" y1="308.599" x2="331.442" y2="307.911"/>
							
								<line style="fill:none;stroke:#120A26;stroke-width:1.5;stroke-linecap:round;stroke-linejoin:round;stroke-miterlimit:10;" x1="319.893" y1="321.596" x2="333.061" y2="322.279"/>
						</g>
						
							<line style="fill:none;stroke:#120A26;stroke-width:1.5;stroke-linecap:round;stroke-linejoin:round;stroke-miterlimit:10;" x1="304.898" y1="292.072" x2="303.434" y2="305.176"/>
						<g>
							<g>
								
									<line style="fill:none;stroke:#120A26;stroke-width:1.5;stroke-linecap:round;stroke-linejoin:round;stroke-miterlimit:10;" x1="317.239" y1="291.117" x2="314.451" y2="303.677"/>
								
									<line style="fill:none;stroke:#120A26;stroke-width:1.5;stroke-linecap:round;stroke-linejoin:round;stroke-miterlimit:10;" x1="304.98" y1="291.344" x2="303.352" y2="305.904"/>
								
									<line style="fill:none;stroke:#120A26;stroke-width:1.5;stroke-linecap:round;stroke-linejoin:round;stroke-miterlimit:10;" x1="294" y1="290.117" x2="292.372" y2="304.677"/>
							</g>
							
								<line style="fill:none;stroke:#120A26;stroke-width:1.5;stroke-linecap:round;stroke-linejoin:round;stroke-miterlimit:10;" x1="317.1" y1="291.745" x2="314.59" y2="303.049"/>
							
								<line style="fill:none;stroke:#120A26;stroke-width:1.5;stroke-linecap:round;stroke-linejoin:round;stroke-miterlimit:10;" x1="293.919" y1="290.845" x2="292.454" y2="303.949"/>
						</g>
						<g>
							
								<line style="fill:none;stroke:#120A26;stroke-width:1.5;stroke-linecap:round;stroke-linejoin:round;stroke-miterlimit:10;" x1="273.215" y1="304.529" x2="284.382" y2="306.712"/>
							
								<line style="fill:none;stroke:#120A26;stroke-width:1.5;stroke-linecap:round;stroke-linejoin:round;stroke-miterlimit:10;" x1="271.323" y1="316.983" x2="284.532" y2="318.039"/>
							
								<line style="fill:none;stroke:#120A26;stroke-width:1.5;stroke-linecap:round;stroke-linejoin:round;stroke-miterlimit:10;" x1="268.054" y1="328.241" x2="281.264" y2="329.297"/>
						</g>
					</g>
					<g>
						
							<polygon style="fill:none;stroke:#120A26;stroke-width:1.5;stroke-linecap:round;stroke-linejoin:round;stroke-miterlimit:10;" points="
							222.318,305.614 173.127,311.915 169.246,264.174 215.564,260.975 						"/>
						<g>
							
								<line style="fill:none;stroke:#120A26;stroke-width:1.5;stroke-linecap:round;stroke-linejoin:round;stroke-miterlimit:10;" x1="208.596" y1="268.071" x2="209.844" y2="256.559"/>
							
								<line style="fill:none;stroke:#120A26;stroke-width:1.5;stroke-linecap:round;stroke-linejoin:round;stroke-miterlimit:10;" x1="183.424" y1="269.399" x2="181.719" y2="257.946"/>
							
								<line style="fill:none;stroke:#120A26;stroke-width:1.5;stroke-linecap:round;stroke-linejoin:round;stroke-miterlimit:10;" x1="196.37" y1="268.243" x2="195.889" y2="255.066"/>
						</g>
						<g>
							
								<line style="fill:none;stroke:#120A26;stroke-width:1.5;stroke-linecap:round;stroke-linejoin:round;stroke-miterlimit:10;" x1="173.517" y1="275.019" x2="161.961" y2="275.749"/>
							
								<line style="fill:none;stroke:#120A26;stroke-width:1.5;stroke-linecap:round;stroke-linejoin:round;stroke-miterlimit:10;" x1="179.11" y1="299.597" x2="168.115" y2="303.227"/>
							
								<line style="fill:none;stroke:#120A26;stroke-width:1.5;stroke-linecap:round;stroke-linejoin:round;stroke-miterlimit:10;" x1="175.768" y1="287.038" x2="162.865" y2="289.755"/>
						</g>
						<g>
							
								<line style="fill:none;stroke:#120A26;stroke-width:1.5;stroke-linecap:round;stroke-linejoin:round;stroke-miterlimit:10;" x1="223.251" y1="270.206" x2="212.111" y2="272.529"/>
							
								<line style="fill:none;stroke:#120A26;stroke-width:1.5;stroke-linecap:round;stroke-linejoin:round;stroke-miterlimit:10;" x1="225.298" y1="282.636" x2="212.103" y2="283.856"/>
							
								<line style="fill:none;stroke:#120A26;stroke-width:1.5;stroke-linecap:round;stroke-linejoin:round;stroke-miterlimit:10;" x1="228.707" y1="293.852" x2="215.511" y2="295.073"/>
						</g>
						<g>
							
								<line style="fill:none;stroke:#120A26;stroke-width:1.5;stroke-linecap:round;stroke-linejoin:round;stroke-miterlimit:10;" x1="213.04" y1="313.672" x2="211.052" y2="302.468"/>
							
								<line style="fill:none;stroke:#120A26;stroke-width:1.5;stroke-linecap:round;stroke-linejoin:round;stroke-miterlimit:10;" x1="200.555" y1="315.347" x2="199.729" y2="302.12"/>
							
								<line style="fill:none;stroke:#120A26;stroke-width:1.5;stroke-linecap:round;stroke-linejoin:round;stroke-miterlimit:10;" x1="189.241" y1="318.418" x2="188.416" y2="305.192"/>
						</g>
					</g>
				</g>
			</g>
		</g>
		<g>
			<g>
				<g>
					
						<path style="fill:#FFFFFF;stroke:#120A26;stroke-width:1.5;stroke-linecap:round;stroke-linejoin:round;stroke-miterlimit:10;" d="
						M298.43,107.392c-9.899-10.597-29.413-15.07-48.918-14.862c-19.505-0.208-39.02,4.265-48.918,14.862
						c-17.674,18.929-16.818,55.506,0,72.283c13.253,13.22,28.715,13.079,48.918,13.22c20.203-0.142,35.665,0,48.918-13.22
						C315.247,162.898,316.104,126.321,298.43,107.392z"/>
					
						<path style="fill:none;stroke:#120A26;stroke-width:1.5;stroke-linecap:round;stroke-linejoin:round;stroke-miterlimit:10;" d="
						M286.089,107.392c-7.402-10.597-21.993-15.07-36.578-14.862c-14.585-0.208-29.176,4.265-36.578,14.862
						c-13.216,18.929-12.575,55.506,0,72.283c9.91,13.22,21.471,13.079,36.578,13.22c15.107-0.142,26.668,0,36.578-13.22
						C298.664,162.898,299.305,126.321,286.089,107.392z"/>
					
						<path style="fill:none;stroke:#120A26;stroke-width:1.5;stroke-linecap:round;stroke-linejoin:round;stroke-miterlimit:10;" d="
						M265.51,107.392c-3.238-10.597-9.62-15.07-15.999-14.862c-6.379-0.208-12.762,4.265-15.999,14.862
						c-5.781,18.929-5.501,55.506,0,72.283c4.335,13.22,9.392,13.079,15.999,13.22c6.608-0.142,11.665,0,15.999-13.22
						C271.011,162.898,271.291,126.321,265.51,107.392z"/>
				</g>
				<g>
					<g>
						
							<path style="fill:#FFFFFF;stroke:#120A26;stroke-width:1.5;stroke-linecap:round;stroke-linejoin:round;stroke-miterlimit:10;" d="
							M259.38,146.235c4.54,5.158,11.839,7.473,18.837,5.318c9.506-2.926,14.842-13.012,11.913-22.526L259.38,146.235z"/>
						
							<path style="fill:#FFFFFF;stroke:#120A26;stroke-width:1.5;stroke-linecap:round;stroke-linejoin:round;stroke-miterlimit:10;" d="
							M239.642,146.235c-4.54,5.158-11.839,7.473-18.837,5.318c-9.506-2.926-14.843-13.012-11.913-22.526L239.642,146.235z"/>
					</g>
				</g>
				
					<polygon style="fill:none;stroke:#120A26;stroke-width:1.5;stroke-linecap:round;stroke-linejoin:round;stroke-miterlimit:10;" points="
					254.081,156.927 244.941,156.927 249.511,147.787 				"/>
				<g>
					
						<path style="fill:none;stroke:#120A26;stroke-width:1.5;stroke-linecap:round;stroke-linejoin:round;stroke-miterlimit:10;" d="
						M284.797,162.052c-8.576,5.135-21.209,8.391-35.291,8.391c-14.071,0-26.704-3.256-35.28-8.391"/>
					
						<line style="fill:none;stroke:#120A26;stroke-width:1.5;stroke-linecap:round;stroke-linejoin:round;stroke-miterlimit:10;" x1="249.511" y1="176.344" x2="249.511" y2="164.542"/>
					
						<line style="fill:none;stroke:#120A26;stroke-width:1.5;stroke-linecap:round;stroke-linejoin:round;stroke-miterlimit:10;" x1="234.87" y1="175.152" x2="236.779" y2="163.506"/>
					
						<line style="fill:none;stroke:#120A26;stroke-width:1.5;stroke-linecap:round;stroke-linejoin:round;stroke-miterlimit:10;" x1="220.615" y1="171.608" x2="224.382" y2="160.424"/>
					
						<line style="fill:none;stroke:#120A26;stroke-width:1.5;stroke-linecap:round;stroke-linejoin:round;stroke-miterlimit:10;" x1="264.142" y1="175.152" x2="262.233" y2="163.506"/>
					
						<line style="fill:none;stroke:#120A26;stroke-width:1.5;stroke-linecap:round;stroke-linejoin:round;stroke-miterlimit:10;" x1="278.397" y1="171.608" x2="274.63" y2="160.424"/>
				</g>
			</g>
			<g>
				
					<path style="fill:#FFFFFF;stroke:#120A26;stroke-width:1.5;stroke-linecap:round;stroke-linejoin:round;stroke-miterlimit:10;" d="
					M170.182,117.365c7.304,0.861,14.872,1.605,22.66,2.226l6.865-8.476l-0.381,8.959c15.933,1.11,32.727,1.706,50.08,1.708
					l1.495-9.657l3.437,9.571l2.412-7.684l2.5,7.705c13.299-0.171,26.224-0.691,38.64-1.522l-1.045-10.441l5.173,10.152
					c9.259-0.678,18.224-1.528,26.822-2.542c-5.128-9.471-22.772-13.761-40.106-17.682c-8.925-31.372-34.426-77.74-77.316-73.23
					c-17.858,1.878-50.612,19.964-35.237,36.89c2.111,2.265,4.417,4.25,7.01,6.013c-0.476-2.845-1.012-5.591-1.355-8.215
					c-1.324-10.379,19.191-10.91,27.306-6.643c15.072,7.924,2.044,31.767,0.249,45.389
					C192.35,103.752,175.222,108.057,170.182,117.365z"/>
				
					<path style="fill:#FFFFFF;stroke:#120A26;stroke-width:1.5;stroke-linecap:round;stroke-linejoin:round;stroke-miterlimit:10;" d="
					M286.916,88.167c-13.944-1.359-43.546-3.293-76.822,0.311l-2.904,9.945c0,0,39.158,6.256,83.746-0.203L286.916,88.167z"/>
				<g>
					
						<path style="fill:#FFFFFF;stroke:#120A26;stroke-width:1.5;stroke-linecap:round;stroke-linejoin:round;stroke-miterlimit:10;" d="
						M253.939,91.522h-9.502c-1.245,0-2.258,1.013-2.258,2.257c0,1.245,1.013,2.258,2.258,2.258h9.502
						c1.244,0,2.257-1.013,2.257-2.258C256.196,92.535,255.184,91.522,253.939,91.522z"/>
					
						<path style="fill:#FFFFFF;stroke:#120A26;stroke-width:1.5;stroke-linecap:round;stroke-linejoin:round;stroke-miterlimit:10;" d="
						M263.481,83.315h-19.083c-1.743,0-3.162,1.418-3.162,3.161v14.607c0,1.743,1.418,3.161,3.162,3.161h19.083
						c1.743,0,3.162-1.418,3.162-3.161V86.476C266.643,84.733,265.224,83.315,263.481,83.315z M262.147,99.729l-16.395,0.019V87.83
						l16.375-0.019L262.147,99.729z"/>
				</g>
			</g>
		</g>
	</g>
	<g>
		
			<path style="fill:#FFFFFF;stroke:#120A26;stroke-width:1.5;stroke-linecap:round;stroke-linejoin:round;stroke-miterlimit:10;" d="
			M463.295,66.911c0,0-16.991-2.918-30.374,8.793c0,0-1.512,9.888-6.777,14.006c-3.175,2.483-7.332,3.28-9.471,3.535
			c-0.045-0.109-0.083-0.225-0.13-0.332c3.658-1.915,6.101-5.99,6.101-5.99s-1.97-1.305-2.518-4.414
			c-0.274-1.545-0.646-3.242-1.128-4.716c2.396-0.45,4.751-2.927,5.657-6.02c1.56-5.326-0.708-11.157-0.708-11.157
			s-6.103,2.373-9.221,7.054c-1.316,1.976-1.716,4.184-1.453,6.051c-1.137-0.09-2.398-0.078-3.667,0.033
			c-1.269,0.11-2.539,0.318-3.694,0.608c0.438-1.928,0.239-4.084-0.905-5.846c-2.71-4.174-8.642-5.5-8.642-5.5
			s-3.425,6.439-1.746,11.371c0.603,1.771,2.99,3.106,4.52,3.572c-0.772,1.204-1.509,2.503-2.148,3.716
			c-1.595,3.032-3.984,4.18-3.984,4.18s1.032,4.201,3.996,6.355c0,0,0,0.001-0.001,0.001c-0.014-0.003-7.755-1.339-12.261-5.724
			c-5.324-5.18-4.597-15.604-4.597-15.604c-13.21-14.445-34.594-14.529-34.594-14.529s3.701,4.168,3.872,7.508
			c0.273,5.344-3.722,11.776-3.722,11.776s9.286,0.448,11.272,4.98c2.36,5.39-1.447,17.224-1.447,17.224s8.216-3.035,11.921-1.458
			c5.761,2.451,5.777,12.512,5.777,12.512s14.112-3.893,18.153,0.425l0,0c1.314,8.562,9.941,15.218,9.941,15.218
			s10.778-5.956,14.979-14.319v0c4.074-3.488,14.495,2.146,14.495,2.146s2.03-9.444,7.095-10.938c3.258-0.96,9.171,3.04,9.171,3.04
			s-0.649-11.645,2.305-16.375c2.485-3.976,9.946-3.096,9.946-3.096s-1.882-6.599-0.594-11.578
			C459.521,70.306,463.295,66.911,463.295,66.911z"/>
		
			<path style="fill:#FFFFFF;stroke:#120A26;stroke-width:1.5;stroke-linecap:round;stroke-linejoin:round;stroke-miterlimit:10;" d="
			M36.705,107.536c0,0,16.991-2.918,30.374,8.793c0,0,1.512,9.888,6.777,14.006c3.175,2.483,7.332,3.28,9.471,3.535
			c0.046-0.109,0.083-0.225,0.13-0.332c-3.658-1.915-6.102-5.99-6.102-5.99s1.97-1.305,2.518-4.414
			c0.274-1.545,0.646-3.242,1.129-4.716c-2.396-0.45-4.751-2.927-5.657-6.02c-1.56-5.326,0.707-11.157,0.707-11.157
			s6.103,2.373,9.221,7.054c1.316,1.976,1.716,4.184,1.453,6.051c1.137-0.09,2.399-0.078,3.667,0.032
			c1.269,0.11,2.539,0.318,3.694,0.608c-0.438-1.928-0.239-4.084,0.905-5.846c2.71-4.174,8.642-5.5,8.642-5.5
			s3.425,6.439,1.746,11.371c-0.603,1.771-2.99,3.106-4.52,3.571c0.772,1.204,1.509,2.503,2.148,3.716
			c1.595,3.032,3.984,4.18,3.984,4.18s-1.032,4.201-3.996,6.355c0,0,0,0,0.001,0.001c0.014-0.003,7.755-1.339,12.261-5.724
			c5.324-5.18,4.597-15.604,4.597-15.604c13.21-14.444,34.594-14.529,34.594-14.529s-3.701,4.168-3.872,7.508
			c-0.273,5.344,3.722,11.776,3.722,11.776s-9.286,0.448-11.272,4.98c-2.36,5.39,1.447,17.224,1.447,17.224
			s-8.216-3.034-11.921-1.458c-5.761,2.452-5.777,12.512-5.777,12.512s-14.112-3.893-18.153,0.425l0,0
			c-1.314,8.562-9.941,15.218-9.941,15.218s-10.778-5.956-14.979-14.319v0c-4.074-3.488-14.495,2.146-14.495,2.146
			s-2.03-9.444-7.095-10.938c-3.258-0.96-9.171,3.04-9.171,3.04s0.649-11.645-2.305-16.375c-2.485-3.976-9.946-3.096-9.946-3.096
			s1.882-6.599,0.594-11.578C40.479,110.931,36.705,107.536,36.705,107.536z"/>
	</g>
	<g>
		<defs>
			
				<rect id="SVGID_00000164490251784653478890000006050086045163574952_" x="334.116" y="326.034" width="161.872" height="173.966"/>
		</defs>
		<clipPath id="SVGID_00000039106351485122273350000016282990989010688158_">
			<use xlink:href="#SVGID_00000164490251784653478890000006050086045163574952_"  style="overflow:visible;"/>
		</clipPath>
		<g style="clip-path:url(#SVGID_00000039106351485122273350000016282990989010688158_);">
			
				<path style="fill:#FFFFFF;stroke:#120A26;stroke-width:1.5;stroke-linecap:round;stroke-linejoin:round;stroke-miterlimit:10;" d="
				M487.828,410.755l-11.74-1.25c-1.89-23-17.79-42.69-39.86-49.38l1.25-11.74c-3.45-0.37-5.95-3.47-5.58-6.92l-8.55-0.91h-8.95
				l1.46,22.07c26.57,2.5,47.36,24.87,47.36,52.1c0,28.91-23.43,52.34-52.34,52.34h-0.32l-4.08,40.41h14.03l3.95-37.07
				c22.56-1.85,41.92-17.18,48.98-38.6l12.14-0.01c0.37-3.45,3.47-5.95,6.92-5.58l0.91-8.55
				C489.958,417.295,487.458,414.205,487.828,410.755z"/>
			
				<path style="fill:#FFFFFF;stroke:#120A26;stroke-width:1.5;stroke-linecap:round;stroke-linejoin:round;stroke-miterlimit:10;" d="
				M420.268,425.785l-2.45,22.97c3.27-0.66,6.4-1.78,9.3-3.29l2-18.74L420.268,425.785z M424.967,381.775l-2.45,22.97l8.83,0.94
				l2.01-18.73C430.848,384.865,428.027,383.105,424.967,381.775z M378.497,400.045l7.18,0.77c4.02-6.77,10.23-12.01,17.55-14.87
				l0.69-6.42C392.647,381.805,383.098,389.505,378.497,400.045z M384.538,421.975l-8.28-0.88c2.27,11.27,9.98,20.82,20.52,25.42
				l0.8-7.52C391.598,434.825,387.018,428.855,384.538,421.975z"/>
			
				<path style="fill:#FFFFFF;stroke:#120A26;stroke-width:1.5;stroke-linecap:round;stroke-linejoin:round;stroke-miterlimit:10;" d="
				M342.871,417.535l11.74,1.25c1.89,22.99,17.78,42.68,39.86,49.38l-4.19,39.31h21.28l3.95-37.07c23-1.89,42.69-17.78,49.39-39.86
				l11.73,1.25c0.37-3.45,3.47-5.95,6.92-5.58l0.91-8.55c-3.45-0.37-5.95-3.46-5.58-6.91l-11.74-1.25
				c-1.89-23-17.79-42.69-39.86-49.38l1.25-11.74c-3.45-0.37-5.95-3.47-5.58-6.92l-8.55-0.91c-0.37,3.45-3.47,5.95-6.92,5.58
				l-1.25,11.74c-22.99,1.89-42.68,17.79-49.38,39.87l-11.74-1.26c-0.36,3.45-3.46,5.95-6.91,5.58l-0.91,8.55
				C340.741,410.985,343.241,414.085,342.871,417.535z M445.491,407.195l-22.97-2.45l2.45-22.97
				C435.511,386.375,443.221,395.915,445.491,407.195z M417.821,448.755l2.45-22.97l22.97,2.45
				C438.651,438.775,429.101,446.485,417.821,448.755z M401.471,402.495l-22.97-2.45c4.6-10.54,14.15-18.24,25.42-20.52
				L401.471,402.495z M376.261,421.095l22.97,2.45l-2.45,22.97C386.241,441.915,378.531,432.365,376.261,421.095z"/>
		</g>
	</g>
	<g>
		<defs>
			
				<rect id="SVGID_00000147927825226286735630000006386259774400786828_" x="26.159" y="367.651" width="137.111" height="132.349"/>
		</defs>
		<clipPath id="SVGID_00000060713905095245553360000017719686322684558516_">
			<use xlink:href="#SVGID_00000147927825226286735630000006386259774400786828_"  style="overflow:visible;"/>
		</clipPath>
		<g style="clip-path:url(#SVGID_00000060713905095245553360000017719686322684558516_);">
			
				<path style="fill:#FFFFFF;stroke:#120A26;stroke-width:1.5;stroke-linecap:round;stroke-linejoin:round;stroke-miterlimit:10;" d="
				M33.994,424.355l9.96,83.12h64.46l-16.01-133.65c-24.21,1.74-34.74,6.19-42.06,11.6
				C38.694,394.035,32.074,408.295,33.994,424.355z"/>
			
				<path style="fill:#FFFFFF;stroke:#120A26;stroke-width:1.5;stroke-linecap:round;stroke-linejoin:round;stroke-miterlimit:10;" d="
				M92.406,373.824L92.406,373.824c26.989,0,51.633,21.39,54.765,47.533l10.318,86.121H59.349l-10.318-86.121
				C45.899,395.214,65.418,373.824,92.406,373.824z"/>
			<g>
				
					<line style="fill:none;stroke:#120A26;stroke-width:1.5;stroke-linecap:round;stroke-linejoin:round;stroke-miterlimit:10;stroke-dasharray:8;" x1="73.691" y1="436.842" x2="128.584" y2="433.825"/>
				
					<line style="fill:none;stroke:#120A26;stroke-width:1.5;stroke-linecap:round;stroke-linejoin:round;stroke-miterlimit:10;stroke-dasharray:8;" x1="75.255" y1="447.297" x2="130.148" y2="444.281"/>
				
					<line style="fill:none;stroke:#120A26;stroke-width:1.5;stroke-linecap:round;stroke-linejoin:round;stroke-miterlimit:10;stroke-dasharray:8;" x1="76.818" y1="457.753" x2="131.712" y2="454.736"/>
			</g>
			<path style="fill:none;stroke:#120A26;stroke-width:1.5;stroke-linecap:round;stroke-linejoin:round;stroke-miterlimit:10;" d="
				M146.307,507.478l-10.318-86.121c-2.425-20.237-21.393-36.7-42.284-36.7c-20.891,0-35.915,16.463-33.49,36.7l10.318,86.121"/>
		</g>
	</g>
	<g>
		<path style="fill:none;stroke:#120A26;stroke-width:1.5;stroke-linecap:round;stroke-linejoin:round;stroke-miterlimit:10;" d="
			M450.346,149.605L450.346,149.605c0-4.922-3.99-8.912-8.913-8.912l0,0c4.922,0,8.913-3.99,8.913-8.912l0,0
			c0,4.922,3.99,8.912,8.912,8.912l0,0C454.337,140.692,450.346,144.682,450.346,149.605z"/>
		<path style="fill:none;stroke:#120A26;stroke-width:1.5;stroke-linecap:round;stroke-linejoin:round;stroke-miterlimit:10;" d="
			M450.346,43.972L450.346,43.972c0-4.922-3.99-8.912-8.913-8.912l0,0c4.922,0,8.913-3.99,8.913-8.913l0,0
			c0,4.922,3.99,8.913,8.912,8.913l0,0C454.337,35.059,450.346,39.049,450.346,43.972z"/>
		<path style="fill:none;stroke:#120A26;stroke-width:1.5;stroke-linecap:round;stroke-linejoin:round;stroke-miterlimit:10;" d="
			M314.012,58.185L314.012,58.185c0-4.922-3.99-8.912-8.913-8.912l0,0c4.922,0,8.912-3.99,8.912-8.912h0
			c0,4.922,3.99,8.912,8.912,8.912l0,0C318.003,49.272,314.012,53.263,314.012,58.185z"/>
		<path style="fill:none;stroke:#120A26;stroke-width:1.5;stroke-linecap:round;stroke-linejoin:round;stroke-miterlimit:10;" d="
			M45.986,178.242L45.986,178.242c0-4.922-3.99-8.912-8.912-8.912l0,0c4.922,0,8.912-3.99,8.912-8.913l0,0
			c0,4.922,3.99,8.913,8.912,8.913l0,0C49.976,169.329,45.986,173.319,45.986,178.242z"/>
		<path style="fill:none;stroke:#120A26;stroke-width:1.5;stroke-linecap:round;stroke-linejoin:round;stroke-miterlimit:10;" d="
			M351.748,165.191L351.748,165.191c0-7.088-5.746-12.834-12.834-12.834l0,0c7.088,0,12.834-5.746,12.834-12.834l0,0
			c0,7.088,5.746,12.834,12.834,12.834l0,0C357.494,152.357,351.748,158.103,351.748,165.191z"/>
		<path style="fill:none;stroke:#120A26;stroke-width:1.5;stroke-linecap:round;stroke-linejoin:round;stroke-miterlimit:10;" d="
			M53.575,56.806L53.575,56.806c0-7.088-5.746-12.834-12.834-12.834l0,0c7.088,0,12.834-5.746,12.834-12.834l0,0
			c0,7.088,5.746,12.834,12.834,12.834l0,0C59.321,43.972,53.575,49.718,53.575,56.806z"/>
		<path style="fill:none;stroke:#120A26;stroke-width:1.5;stroke-linecap:round;stroke-linejoin:round;stroke-miterlimit:10;" d="
			M150.168,184.304L150.168,184.304c0-7.088-5.746-12.834-12.834-12.834l0,0c7.088,0,12.834-5.746,12.834-12.834l0,0
			c0,7.088,5.746,12.834,12.834,12.834l0,0C155.914,171.47,150.168,177.216,150.168,184.304z"/>
		<path style="fill:none;stroke:#120A26;stroke-width:1.5;stroke-linecap:round;stroke-linejoin:round;stroke-miterlimit:10;" d="
			M128.421,74.177L128.421,74.177c0-4.922-3.99-8.912-8.912-8.912l0,0c4.922,0,8.912-3.99,8.912-8.912l0,0
			c0,4.922,3.99,8.912,8.913,8.912l0,0C132.411,65.265,128.421,69.255,128.421,74.177z"/>
	</g>
</g>
</svg>
