<?xml version="1.0" encoding="utf-8"?>
<!-- Generator: Adobe Illustrator 27.5.0, SVG Export Plug-In . SVG Version: 6.00 Build 0)  -->
<svg xmlns="http://www.w3.org/2000/svg" xmlns:xlink="http://www.w3.org/1999/xlink" viewBox="0 0 500 500" width="595" height="842" preserveAspectRatio="xMidYMid meet" data-scaled="true">
<g id="BACKGROUND">
	<rect style="fill:#FFFFFF;" width="500" height="500"/>
</g>
<g id="OBJECTS">
	<g>
		<g>
			<path style="fill:none;stroke:#000000;stroke-linecap:round;stroke-linejoin:round;stroke-miterlimit:10;" d="M423.61,190.859
				c11.356,0,18.721,0,18.721,0"/>
			<path style="fill:none;stroke:#000000;stroke-linecap:round;stroke-linejoin:round;stroke-miterlimit:10;" d="M351.439,171.45
				c20.398,0,27.916,0,31.577,0c23.646,0,3.456,14.576,12.678,18.465"/>
			<path style="fill:none;stroke:#000000;stroke-linecap:round;stroke-linejoin:round;stroke-miterlimit:10;" d="M25.604,193.641
				c0,0,20.032,0,34.24,0c17.088,0,16.044-7.523,7.442-14.259c-6.908-5.409-1.303-9.385,12.184-7.811"/>
		</g>
		<g>
			<path style="fill:none;stroke:#000000;stroke-linecap:round;stroke-linejoin:round;stroke-miterlimit:10;" d="M270.868,57.417
				c19.069,0,33.428,0,39.368,0c27.289,0,44.282,0.07,42.656,18.839c-0.837,9.664-13.805,32.705,0.351,32.705
				c27.968,0,37.957,0,37.957,0"/>
			<path style="fill:none;stroke:#000000;stroke-linecap:round;stroke-linejoin:round;stroke-miterlimit:10;" d="M0,41.412
				c0,0,27.156,0,41.34,0c14.184,0-9.313,16.006,13.655,16.006c3.623,0,14.102,0,25.371,0"/>
		</g>
		<path style="fill:#FFFFFF;stroke:#000000;stroke-linecap:round;stroke-linejoin:round;stroke-miterlimit:10;" d="M207.15,80.83
			h109.043c0,0,1.991-12.607-26.1-7.741c0,0,9.29-8.236-1.548-10.974c-10.838-2.739-17.473,1.243-17.473,1.243
			s1.769-22.561-17.252-35.168c-19.022-12.607-44.679-1.991-36.716,30.744c0,0-12.669-21.455-26.241-5.308
			C177.29,69.771,207.15,80.83,207.15,80.83z"/>
		<g>
			
				<ellipse transform="matrix(0.7071 -0.7071 0.7071 0.7071 -40.369 132.4718)" style="fill:#FFFFFF;stroke:#000000;stroke-linecap:round;stroke-linejoin:round;stroke-miterlimit:10;" cx="139.723" cy="114.966" rx="82.676" ry="82.676"/>
			<g>
				<path style="fill:#FFFFFF;stroke:#000000;stroke-linecap:round;stroke-linejoin:round;stroke-miterlimit:10;" d="
					M134.743,83.141c-2.198,5.895-13.351,7.18-24.911,2.87c-11.561-4.31-19.151-12.582-16.953-18.477
					c2.198-5.895,13.351-7.18,24.911-2.87C129.351,68.974,136.941,77.246,134.743,83.141z"/>
				
					<ellipse transform="matrix(0.5 -0.866 0.866 0.5 -89.7417 166.1673)" style="fill:#FFFFFF;stroke:#000000;stroke-linecap:round;stroke-linejoin:round;stroke-miterlimit:10;" cx="99.034" cy="160.802" rx="14.487" ry="28.411"/>
				
					<ellipse transform="matrix(0.3493 -0.937 0.937 0.3493 45.1808 189.2905)" style="fill:#FFFFFF;stroke:#000000;stroke-linecap:round;stroke-linejoin:round;stroke-miterlimit:10;" cx="158.882" cy="62.115" rx="13.003" ry="25.501"/>
				<path style="fill:#FFFFFF;stroke:#000000;stroke-linecap:round;stroke-linejoin:round;stroke-miterlimit:10;" d="
					M195.991,88.897c-0.838,2.249-5.093,2.739-9.504,1.095c-4.41-1.644-7.306-4.8-6.468-7.049c0.838-2.249,5.093-2.739,9.504-1.095
					C193.934,83.493,196.829,86.648,195.991,88.897z"/>
				<path style="fill:#FFFFFF;stroke:#000000;stroke-linecap:round;stroke-linejoin:round;stroke-miterlimit:10;" d="
					M141.823,161.047c-0.838,2.249-5.093,2.739-9.504,1.095s-7.306-4.8-6.468-7.049c0.838-2.249,5.093-2.739,9.504-1.095
					C139.766,155.642,142.662,158.798,141.823,161.047z"/>
				<path style="fill:#FFFFFF;stroke:#000000;stroke-linecap:round;stroke-linejoin:round;stroke-miterlimit:10;" d="
					M187.952,113.883c-2.808,7.533-17.061,9.175-31.834,3.667c-14.773-5.507-24.472-16.078-21.664-23.611
					c2.808-7.533,17.061-9.175,31.834-3.667C181.061,95.779,190.76,106.35,187.952,113.883z"/>
			</g>
		</g>
		<path style="fill:none;stroke:#000000;stroke-linecap:round;stroke-linejoin:round;stroke-miterlimit:10;" d="M460.458,130.517
			h-82.779c0,0-1.647-12.656,16.994-6.831c0,0-6.874-13.281,0.117-22.369c6.99-9.087,19.34,1.864,22.136,11.65
			c0,0-0.583-25.535,15.495-31.466c16.078-5.931,24.105,10.622,21.472,25.88c0,0,11.382-19.815,25.22-10.527"/>
		<path style="fill:#FFFFFF;stroke:#000000;stroke-linecap:round;stroke-linejoin:round;stroke-miterlimit:10;" d="M104.3,119.98
			H9.634c0,0-3.981-16.368,20.57-8.184c0,0-14.377-13.05-4.866-34.062c9.511-21.012,36.777,5.529,43.603,29.196
			c0,0,5.278-4.645,15.452-1.991s-1.106,8.405-1.106,8.405S106.512,110.69,104.3,119.98z"/>
	</g>
	<g>
		<g>
			<g>
				<g>
					<path style="fill:none;stroke:#000000;stroke-linecap:round;stroke-linejoin:round;stroke-miterlimit:10;" d="M6.796,190.859
						c0,0,11.97,12.575,12.506,16.66c0.536,4.085-6.253-1.085-6.253-1.085s6.849,6.957,6.283,14.282
						c-0.566,7.325-5.148,1.786-6.251-2.68"/>
					<path style="fill:none;stroke:#000000;stroke-linecap:round;stroke-linejoin:round;stroke-miterlimit:10;" d="M19.365,235.901
						c0,0,6.19,4.288,9.048,12.685s-2.68,6.789-6.074,3.037c0,0,6.945,8.05,6.867,14.655c-0.078,6.605-4.92,3.747-4.92,3.747"/>
					<path style="fill:none;stroke:#000000;stroke-linecap:round;stroke-linejoin:round;stroke-miterlimit:10;" d="M5.724,262.521
						c0,0-4.645,16.973,0,19.116c4.645,2.144,5.717-3.93,5.717-3.93s-1.608,13.935,4.288,13.578"/>
					<path style="fill:none;stroke:#000000;stroke-linecap:round;stroke-linejoin:round;stroke-miterlimit:10;" d="M26.627,281.28
						c0,0,10.541,9.112,11.613,14.471c1.072,5.36-5.806,3.216-5.806,3.216s12.644,10.184,5.92,17.151"/>
					<path style="fill:none;stroke:#000000;stroke-linecap:round;stroke-linejoin:round;stroke-miterlimit:10;" d="M8.94,300.217
						c0,0-6.074,15.007-2.144,18.938c3.93,3.93,8.933-1.429,8.933-1.429s-2.501,10.898,2.501,10.719"/>
				</g>
				<path style="fill:none;stroke:#000000;stroke-linecap:round;stroke-linejoin:round;stroke-miterlimit:10;" d="M0,350.224
					c0,0,4.049-4.569,12.138,6.87c0,0,0-11.127,4.257-13.682c4.258-2.554,8.515,10.644,8.515,10.644s1.898-8.085,4.803-9.014
					c2.905-0.93,6.275,5.047,6.275,5.047s2.092-7.104,5.113-7.005c3.021,0.099,4.416,4.05,4.416,4.05s1.859-9.529,7.088-11.272
					c5.229-1.743,12.318,6.391,12.318,6.391s1.86-3.526,4.017-5.621l-22.745-39.616c0,0,12.117,9.741,13.981,7.433
					c1.864-2.307-20.971-46.145-20.971-46.145s13.981,10.789,15.845,7.974c1.864-2.815-24.233-46.552-24.233-46.552
					s8.388,6.127,8.854,0C40.138,213.598,0,154.527,0,154.527"/>
			</g>
			<g>
				<path style="fill:none;stroke:#000000;stroke-linecap:round;stroke-linejoin:round;stroke-miterlimit:10;" d="M46.197,297.016
					l22.745,39.616c0,0,0,0,0,0c0.894-0.868,1.838-1.496,2.723-1.516c3.021-0.068,7.902,5.975,7.902,5.975s8.134-7.553,12.666-7.902
					c4.532-0.349,1.859,6.043,1.859,6.043s7.553-6.302,11.388-6.056c3.835,0.246,2.324,4.778,2.324,4.778
					s10.909-15.92,17.075-14.409c0.064,0.016,0.114,0.039,0.176,0.056c-2.694-4.717-8.357-14.641-9.84-17.294
					c-1.965-3.517,8.065,1.415,8.601-0.494c0.536-1.909-19.116-35.172-19.116-35.172c5.36,3.831,11.255,6.71,9.29,1.171
					c-1.965-5.538-25.727-41.27-21.439-37.567c4.288,3.703,8.754,3.086,7.146-1.866c-1.608-4.952-18.759-30.958-20.546-31.315
					c-1.787-0.357-8.04,11.97-13.757,23.214c-5.717,11.244,0.715,8.051,2.68,6.972c1.965-1.079-7.682,20.017-10.362,27.055
					c-2.68,7.039,5.538,2.966,6.61,3.502c0.82,0.41-6.507,18.469-10.001,26.947c3.76,8.08,6.556,14.828,5.854,15.696
					C58.313,306.756,46.197,297.016,46.197,297.016z"/>
				<g>
					<path style="fill:none;stroke:#000000;stroke-linecap:round;stroke-linejoin:round;stroke-miterlimit:10;" d="M71.648,293.25
						c0,0-4.342,12.506-2.707,13.757c1.635,1.251,5.744-4.109,5.744-4.109s-4.824,12.227,0,12.545"/>
					<path style="fill:none;stroke:#000000;stroke-linecap:round;stroke-linejoin:round;stroke-miterlimit:10;" d="M87.906,307.364
						c0,0,4.342,0.715,1.903-7.146c0,0,4.707-0.357-1.903-11.791"/>
					<path style="fill:none;stroke:#000000;stroke-linecap:round;stroke-linejoin:round;stroke-miterlimit:10;" d="M100.721,291.542
						c0,0,4.515,6.711,3.979,8.676c-0.536,1.965-3.979,0-3.979,0s6.48,9.648,5.051,15.901c-1.429,6.253-5.896,3.624-5.896,3.624"/>
					<path style="fill:none;stroke:#000000;stroke-linecap:round;stroke-linejoin:round;stroke-miterlimit:10;" d="M72.405,253.27
						c0,0-4.109,8.412-1.965,9.662c2.144,1.251,4.824-1.358,4.824-1.358s-3.216,13.864,0,13.507
						c3.216-0.357,5.002-5.533,5.002-5.533s3.931,7.866,5.36,0"/>
					<path style="fill:none;stroke:#000000;stroke-linecap:round;stroke-linejoin:round;stroke-miterlimit:10;" d="M87.735,239.329
						c0,0,6.823,7.146,7.359,12.149c0.536,5.002-4.645,1.143-4.645,1.143s2.538,3.681,0.822,5.11
						c-1.716,1.429-3.537-0.893-3.537-0.893"/>
					<path style="fill:none;stroke:#000000;stroke-linecap:round;stroke-linejoin:round;stroke-miterlimit:10;" d="M77.723,231.249
						c0,0,1.25,3.759,2.858,2.865c1.608-0.893,0-6.968,0-6.968s3.122,3.395,5.045,0.893c1.923-2.501-7.01-17.255-7.01-17.255"/>
				</g>
			</g>
		</g>
		<g>
			<g>
				<g>
					<path style="fill:none;stroke:#000000;stroke-linecap:round;stroke-linejoin:round;stroke-miterlimit:10;" d="M418.18,337.047
						c0.075,0.024,0.149,0.048,0.223,0.073C418.329,337.096,418.255,337.071,418.18,337.047z"/>
					<path style="fill:none;stroke:#000000;stroke-linecap:round;stroke-linejoin:round;stroke-miterlimit:10;" d="M418.81,337.269
						c0.071,0.028,0.143,0.055,0.213,0.084C418.953,337.324,418.882,337.297,418.81,337.269z"/>
					<path style="fill:none;stroke:#000000;stroke-linecap:round;stroke-linejoin:round;stroke-miterlimit:10;" d="M416.846,336.697
						c0.04,0.009,0.078,0.018,0.118,0.027C416.924,336.715,416.886,336.706,416.846,336.697z"/>
					<path style="fill:none;stroke:#000000;stroke-linecap:round;stroke-linejoin:round;stroke-miterlimit:10;" d="M419.421,337.534
						c0.057,0.028,0.116,0.053,0.172,0.082C419.537,337.587,419.478,337.562,419.421,337.534z"/>
					<path style="fill:none;stroke:#000000;stroke-linecap:round;stroke-linejoin:round;stroke-miterlimit:10;" d="M417.525,336.858
						c0.068,0.018,0.135,0.037,0.202,0.056C417.66,336.895,417.593,336.876,417.525,336.858z"/>
					<path style="fill:none;stroke:#000000;stroke-linecap:round;stroke-linejoin:round;stroke-miterlimit:10;" d="M420.564,338.244
						c0.045,0.037,0.084,0.077,0.126,0.115C420.647,338.32,420.608,338.28,420.564,338.244z"/>
					<path style="fill:none;stroke:#000000;stroke-linecap:round;stroke-linejoin:round;stroke-miterlimit:10;" d="M437.248,342.148
						c0.496-0.266,1.082-0.54,1.72-0.763C438.33,341.609,437.745,341.882,437.248,342.148z"/>
					<path style="fill:none;stroke:#000000;stroke-linecap:round;stroke-linejoin:round;stroke-miterlimit:10;" d="M413.05,336.222
						l8.703-20.779c0,0-6.334-0.928-5.697-5.248c0.638-4.321,15.566-40.69,15.566-40.69c-2.881,0.72-9.362,1.801-9.869-3.227
						c-0.507-5.028,15.631-36.63,15.631-36.63s-5.401,3.128-8.282-1.223c-0.625-0.944,0.091-4.194,1.594-8.7l-6.275-10.555
						c0,0,7.562,2.549,7.562,0c0-2.548-15.844-37.607-23.6-33.286c-7.757,4.321-25.371,32.408-25.011,34.902
						c0.36,2.494,7.562,1.66,7.562,1.66s-14.403,23.932-13.255,27.542c1.148,3.61,7.493,0,7.493,0s-20.885,29.878-18.401,33.479
						c2.484,3.601,7.598,0,7.598,0s-13.323,21.965-13.323,25.487c0,3.522,6.842,1.927,6.842,1.927l-7.408,17.379
						c1.319-1.148,2.762-2.12,4.252-2.617c5.578-1.859,3.37,9.877,3.37,9.877s5.578-3.915,8.367-2.48
						c2.789,1.435,1.627,6.78,1.627,6.78s7.205-6.391,13.944-4.532c6.74,1.859,0,7.205,0,7.205s12.666-4.067,17.547-1.511
						c4.881,2.556-1.859,5.287-1.859,5.287s2.472-0.21,5.339-0.045C413.061,336.222,413.056,336.222,413.05,336.222z"/>
					<path style="fill:none;stroke:#000000;stroke-linecap:round;stroke-linejoin:round;stroke-miterlimit:10;" d="M415.302,336.432
						c0.023,0.003,0.046,0.006,0.068,0.009C415.347,336.438,415.324,336.435,415.302,336.432z"/>
					<path style="fill:none;stroke:#000000;stroke-linecap:round;stroke-linejoin:round;stroke-miterlimit:10;" d="M420.1,337.906
						c0.003,0.002,0.007,0.004,0.01,0.006C420.107,337.91,420.103,337.908,420.1,337.906z"/>
					<path style="fill:none;stroke:#000000;stroke-linecap:round;stroke-linejoin:round;stroke-miterlimit:10;" d="M437.248,342.148
						c-0.124,0.067-0.242,0.132-0.355,0.197C437.006,342.281,437.124,342.215,437.248,342.148z"/>
					<path style="fill:none;stroke:#000000;stroke-linecap:round;stroke-linejoin:round;stroke-miterlimit:10;" d="M420.954,338.614
						c0.045,0.049,0.086,0.1,0.127,0.151C421.039,338.714,420.999,338.663,420.954,338.614z"/>
					<path style="fill:none;stroke:#000000;stroke-linecap:round;stroke-linejoin:round;stroke-miterlimit:10;" d="M435.653,343.155
						c0.017-0.013,0.04-0.03,0.068-0.051C435.692,343.125,435.67,343.142,435.653,343.155z"/>
					<path style="fill:none;stroke:#000000;stroke-linecap:round;stroke-linejoin:round;stroke-miterlimit:10;" d="M414.511,336.339
						c0.037,0.004,0.073,0.007,0.11,0.011C414.585,336.346,414.548,336.342,414.511,336.339z"/>
					<path style="fill:none;stroke:#000000;stroke-linecap:round;stroke-linejoin:round;stroke-miterlimit:10;" d="M435.743,343.088
						c0.032-0.024,0.071-0.051,0.115-0.083C435.814,343.036,435.776,343.064,435.743,343.088z"/>
					<path style="fill:none;stroke:#000000;stroke-linecap:round;stroke-linejoin:round;stroke-miterlimit:10;" d="M439.464,341.226
						c0.497-0.145,1.018-0.253,1.55-0.3l0,0C440.482,340.973,439.961,341.081,439.464,341.226z"/>
					<path style="fill:none;stroke:#000000;stroke-linecap:round;stroke-linejoin:round;stroke-miterlimit:10;" d="M439.452,341.23
						c-0.163,0.048-0.323,0.099-0.479,0.154C439.129,341.329,439.289,341.277,439.452,341.23z"/>
					<path style="fill:none;stroke:#000000;stroke-linecap:round;stroke-linejoin:round;stroke-miterlimit:10;" d="M435.878,342.991
						c0.22-0.155,0.569-0.389,1.015-0.645C436.446,342.603,436.097,342.836,435.878,342.991z"/>
					<path style="fill:none;stroke:#000000;stroke-linecap:round;stroke-linejoin:round;stroke-miterlimit:10;" d="M413.764,336.27
						c0.031,0.003,0.063,0.005,0.094,0.008C413.827,336.275,413.796,336.273,413.764,336.27z"/>
					<path style="fill:none;stroke:#000000;stroke-linecap:round;stroke-linejoin:round;stroke-miterlimit:10;" d="M421.381,339.199
						c-0.033-0.059-0.068-0.116-0.105-0.172C421.313,339.083,421.348,339.141,421.381,339.199z"/>
					<path style="fill:none;stroke:#000000;stroke-linecap:round;stroke-linejoin:round;stroke-miterlimit:10;" d="M435.617,343.182
						c0,0,0.011-0.008,0.026-0.02C435.626,343.175,435.617,343.182,435.617,343.182z"/>
					<path style="fill:none;stroke:#000000;stroke-linecap:round;stroke-linejoin:round;stroke-miterlimit:10;" d="M421.721,340.185
						c-0.009-0.059-0.025-0.114-0.037-0.171C421.696,340.071,421.712,340.125,421.721,340.185z"/>
					<path style="fill:none;stroke:#000000;stroke-linecap:round;stroke-linejoin:round;stroke-miterlimit:10;" d="M421.595,339.671
						c-0.022-0.063-0.048-0.122-0.074-0.183C421.547,339.548,421.574,339.608,421.595,339.671z"/>
				</g>
				<g>
					<path style="fill:none;stroke:#000000;stroke-linecap:round;stroke-linejoin:round;stroke-miterlimit:10;" d="M375.81,282.108
						c0,0-7.09,12.994-3.365,12.078c3.725-0.916,6.291-2.644,6.291-2.644s-4.367,10.73,2.475,5.689"/>
					<path style="fill:none;stroke:#000000;stroke-linecap:round;stroke-linejoin:round;stroke-miterlimit:10;" d="M391.654,244.299
						c0,0-6.842,14.327-3.241,14.005c3.601-0.322,6.599-5.363,6.599-5.363s4.482,10.802,7.223,0.72"/>
					<path style="fill:none;stroke:#000000;stroke-linecap:round;stroke-linejoin:round;stroke-miterlimit:10;" d="M394.8,202.414
						c0,0-1.154,8.887,4.871,0c0,0-8.461,18.427,2.563,8.371"/>
					<path style="fill:none;stroke:#000000;stroke-linecap:round;stroke-linejoin:round;stroke-miterlimit:10;" d="M420.69,215.926
						c0,0,3.797,9.649,1.063,10.369c-2.734,0.72-5.697-3.601-5.697-3.601s2.363,14.781-2.198,17.293
						c-4.561,2.512-7.197-8.738-7.197-8.738"/>
					<path style="fill:none;stroke:#000000;stroke-linecap:round;stroke-linejoin:round;stroke-miterlimit:10;" d="M398.473,278.019
						c0,0,0.3,8.276,3.762,6.542c3.462-1.734,2.382-8.281,2.382-8.281s5.924,5.827,6.743-2.095"/>
					<path style="fill:none;stroke:#000000;stroke-linecap:round;stroke-linejoin:round;stroke-miterlimit:10;" d="M393.454,307.173
						c0,0-3.327,11.389,1.558,9.186c4.884-2.204,4.884-9.186,4.884-9.186s5.566,7.781,7.844,0"/>
				</g>
			</g>
			<g>
				<path style="fill:none;stroke:#000000;stroke-linecap:round;stroke-linejoin:round;stroke-miterlimit:10;" d="M500,62.817
					c0,0-25.888,39.609-44.972,78.432c-12.601,25.633-15.123,33.914-3.241,29.593c0,0-25.566,53.231-22.685,57.583
					c2.881,4.352,8.282,1.223,8.282,1.223s-16.138,31.602-15.631,36.63c0.507,5.028,6.989,3.947,9.869,3.227
					c0,0-14.929,36.368-15.566,40.69c-0.637,4.321,5.697,5.248,5.697,5.248l-8.703,20.779c4.016,0.229,8.818,1.195,8.703,4.521
					c0,0,5.496-7.786,11.772-7.786c6.275,0,2.092,10.226,2.092,10.226s7.089-5.578,10.807,0.697c0,0,6.856-7.554,11.969-7.612
					c5.113-0.058,2.208,9.355,2.208,9.355s4.067-3.951,6.856-4.3c2.789-0.349,4.183,5.694,4.183,5.694s5.345-6.275,8.948-6.043
					c3.602,0.232,5.926,6.972,5.926,6.972s5.009-11.969,13.486-8.367"/>
				<g>
					<path style="fill:none;stroke:#000000;stroke-linecap:round;stroke-linejoin:round;stroke-miterlimit:10;" d="M456.525,319.742
						c0,0,0.303,10.617,3.184,9.897c2.881-0.72,4.681-6.599,4.681-6.599s5.041,10.758,7.922,8.498
						c2.881-2.259,1.801-15.179,1.801-15.179s5.041,5.73,7.202,3.383c2.16-2.346-1.44-15.293-1.44-15.293"/>
					<path style="fill:none;stroke:#000000;stroke-linecap:round;stroke-linejoin:round;stroke-miterlimit:10;" d="M444.225,240.352
						c0,0-10.442,15.85-6.841,18s8.642-5.052,8.642-5.052s0,12.743,7.202,2.59c0,0,5.041,8.212,8.642-2.23"/>
					<path style="fill:none;stroke:#000000;stroke-linecap:round;stroke-linejoin:round;stroke-miterlimit:10;" d="M463.31,219.725
						c0,0,1.467,17.732,5.955,16.652c4.487-1.08,7.008-14.763,7.008-14.763s5.401,8.941,8.642,6.811
						c3.241-2.13,1.44-14.637,1.44-14.637s9.002,10.953,7.562-7.354"/>
					<path style="fill:none;stroke:#000000;stroke-linecap:round;stroke-linejoin:round;stroke-miterlimit:10;" d="M456.525,175.515
						c0,0-5.818,23.085-2.578,24.15c3.241,1.064,11.883-10.357,11.883-10.357s-1.053,8.246,3.434,8.214
						c4.487-0.032,7.008-10.311,7.008-10.311s2.821,3.638,5.732,2.097c2.91-1.541,2.55-10.143,2.55-10.143"/>
					<path style="fill:none;stroke:#000000;stroke-linecap:round;stroke-linejoin:round;stroke-miterlimit:10;" d="M463.31,135.914
						c0,0-10.689,18.011-6.785,20.888c3.904,2.877,14.706-10.444,14.706-10.444s-1.8,9.821,2.521,10.851
						c4.321,1.03,8.252-13.844,8.252-13.844s2.23,8.33,6.351,5.661c4.121-2.669,1.6-23.194,1.6-23.194"/>
					<path style="fill:none;stroke:#000000;stroke-linecap:round;stroke-linejoin:round;stroke-miterlimit:10;" d="M490.719,92.695
						c0,0-11.265,21.974-8.715,24.134c2.55,2.16,10.472-5.761,10.472-5.761s-2.208,6.148,1.596,6.135"/>
					<path style="fill:none;stroke:#000000;stroke-linecap:round;stroke-linejoin:round;stroke-miterlimit:10;" d="M440.239,285.363
						c0,0-9.697,18.382-6.096,19.086s9.362-5.871,9.362-5.871s1.765,7.688,5.744,5.871c3.979-1.817,3.717-9.404,3.717-9.404
						s7.824,3.215,8.904,0c1.08-3.215-3.601-15.552-3.601-15.552"/>
					<path style="fill:none;stroke:#000000;stroke-linecap:round;stroke-linejoin:round;stroke-miterlimit:10;" d="M473.193,263.383
						c0,0-3.08,11.163,0,12.243c3.079,1.08,8.435-12.106,8.435-12.106s4.117,12.161,6.222,7.785c2.105-4.376,0-11.487,0-11.487
						s8.947,6.053,4.626-8.514"/>
				</g>
			</g>
		</g>
		<g>
			<path style="fill:none;stroke:#000000;stroke-linecap:round;stroke-linejoin:round;stroke-miterlimit:10;" d="M0,350.224
				c0,0,4.049-4.568,12.138,6.87c0,0,0-11.127,4.257-13.682c4.258-2.555,8.515,10.644,8.515,10.644s1.898-8.085,4.803-9.014
				c2.905-0.93,6.275,5.047,6.275,5.047s2.092-7.104,5.113-7.005c3.021,0.099,4.416,4.05,4.416,4.05s1.859-9.529,7.088-11.272
				c5.229-1.743,12.318,6.391,12.318,6.391s3.719-7.07,6.74-7.137c3.021-0.068,7.902,5.975,7.902,5.975s8.134-7.553,12.666-7.902
				c4.532-0.349,1.859,6.043,1.859,6.043s7.553-6.303,11.388-6.056c3.835,0.246,2.324,4.778,2.324,4.778s10.909-15.92,17.075-14.409
				c6.166,1.511,4.306,7.902,4.306,7.902s7.392-10.826,12.47-1.462l212.539-4.056c0,0,4.96-8.426,10.538-10.285
				c5.578-1.859,3.37,9.877,3.37,9.877s5.578-3.915,8.367-2.48c2.789,1.435,1.627,6.78,1.627,6.78s7.205-6.391,13.944-4.532
				c6.74,1.859,0,7.205,0,7.205s12.666-4.067,17.547-1.511c4.881,2.556-1.859,5.287-1.859,5.287s14.223-1.22,14.026,4.474
				c0,0,5.497-7.786,11.772-7.786c6.275,0,2.092,10.226,2.092,10.226s7.089-5.578,10.807,0.697c0,0,6.856-7.554,11.969-7.612
				c5.113-0.058,2.208,9.355,2.208,9.355s4.067-3.951,6.856-4.3c2.789-0.349,4.183,5.694,4.183,5.694s5.345-6.275,8.948-6.043
				c3.602,0.232,5.927,6.972,5.927,6.972s5.009-11.969,13.486-8.367"/>
			<g>
				<path style="fill:none;stroke:#000000;stroke-linecap:round;stroke-linejoin:round;stroke-miterlimit:10;" d="M69.888,469.673
					c0,0-5.83-5.144-5.332-9.956c0.498-4.812,7.197,0.654,9.004,3.65c0,0-0.1-14.394,3.716-17.879
					c3.816-3.484,6.687,9.665,7.357,16.054c0,0,1.633-14.119,6.802-7.64"/>
				<path style="fill:none;stroke:#000000;stroke-linecap:round;stroke-linejoin:round;stroke-miterlimit:10;" d="M0,430.645
					c0,0,2.947-5.408,5.902,1.909c0,0,2.955-11.829,7.09-11.959c4.135-0.13,3.695,11.959,3.695,11.959s8.217-6.68,9.896-4.454
					c1.679,2.227,0,6.704,0,6.704s6.949-5.359,4.791,2.558"/>
				<path style="fill:none;stroke:#000000;stroke-linecap:round;stroke-linejoin:round;stroke-miterlimit:10;" d="M98.777,364.244
					c0,0-2.708-7.657-6.202,0.844c0,0,0.43-15.023-5.492-12.228c-5.921,2.795-6.504,12.228-6.504,12.228s-1.63-7.567-4.891-6.287
					c-3.261,1.28-3.028,8.5-3.028,8.5s-6.638-3.261-4.542,3.144"/>
				<path style="fill:none;stroke:#000000;stroke-linecap:round;stroke-linejoin:round;stroke-miterlimit:10;" d="M12.394,388.737
					c0,0-3.569-4.193-2.638-6.871c0.932-2.679,5.241-0.349,6.405,2.329c0,0,0.233-10.249,2.912-11.879
					c2.679-1.63,3.727,8.851,3.261,11.995c0,0,7.337-5.706,8.269-2.795s-2.446,6.056-2.446,6.056s7.337-1.165,4.775,3.494"/>
				<path style="fill:none;stroke:#000000;stroke-linecap:round;stroke-linejoin:round;stroke-miterlimit:10;" d="M48.74,415.392
					c0,0-3.419-2.049-2.329-5.124c1.362-3.843,5.357-2.911,6.871-0.815c0,0-1.601-6.518,2.125-10.011
					c3.727-3.494,4.979,4.188,4.629,8.614c0,0,8.152-6.638,7.453,2.096c0,0,5.707-2.213,4.076,3.727"/>
				<path style="fill:none;stroke:#000000;stroke-linecap:round;stroke-linejoin:round;stroke-miterlimit:10;" d="M19.747,478.529
					c0,0-2.927-4.089-1.763-6.186c1.165-2.096,4.775,2.096,4.775,2.096s2.446-10.481,4.891-10.831s1.747,10.598,1.747,10.598
					s4.658-1.63,5.008,1.514c0.349,3.144-0.815,4.193-0.815,4.193"/>
			</g>
			<g>
				<path style="fill:none;stroke:#000000;stroke-linecap:round;stroke-linejoin:round;stroke-miterlimit:10;" d="M413.05,477.699
					c0,0,2.811-5.974,4.906,0.596c0,0,7.47-12.511,10.009-10.885c2.539,1.626-1.501,10.885-1.501,10.885s10.61-7.168,8.072,1.195
					c0,0,6.869-2.986,5.077,2.389"/>
				<path style="fill:none;stroke:#000000;stroke-linecap:round;stroke-linejoin:round;stroke-miterlimit:10;" d="M500,464.007
					c0,0-5.883-8.362-8.721,0c0,0-6.168-13.981-8.512-13.141c-2.344,0.84,1.643,13.141,1.643,13.141s-10.745-9.988-5.973,2.25
					c0,0-6.57-3.594-6.272,1.185"/>
				<path style="fill:none;stroke:#000000;stroke-linecap:round;stroke-linejoin:round;stroke-miterlimit:10;" d="M433.591,425.22
					c0,0-1.081-5.858,1.261-7.523c2.342-1.665,4.144,2.298,4.684,5.361c0,0,0.667-12.371,6.188-14.112s-0.47,15.013-0.47,15.013
					s10.676-5.405,8.334,1.261c0,0,7.747-2.883,6.666,2.342"/>
				<path style="fill:none;stroke:#000000;stroke-linecap:round;stroke-linejoin:round;stroke-miterlimit:10;" d="M396.882,356.648
					c0,0,7.571-7.747,7.571,0c0,0,5.4-11.023,9.724-10.286s0,11.907,0,11.907s6.502-3.243,7.395,4.144c0,0,5.036-3.963,6.117,1.621"
					/>
				<path style="fill:none;stroke:#000000;stroke-linecap:round;stroke-linejoin:round;stroke-miterlimit:10;" d="M458.673,386.459
					c0,0-5.328-9.938,0.797-7.026c3.096,1.472,5.945,7.206,5.945,7.206s0.18-13.512,3.243-14.412
					c3.063-0.901,6.666,13.692,6.666,13.692s5.044-8.505,7.747-6.955c2.702,1.55,1.261,7.135,1.081,8.937
					c0,0,7.026-3.45,6.846,2.689"/>
			</g>
		</g>
	</g>
	<g>
		<path style="fill:none;stroke:#000000;stroke-linecap:round;stroke-linejoin:round;stroke-miterlimit:10;" d="M78.039,30.274
			c-7.616,1.18-7.917,2.136-9.097,13.124c-1.18-10.988-1.481-11.944-9.097-13.124c7.616-1.18,7.917-2.137,9.097-13.124
			C70.121,28.138,70.422,29.094,78.039,30.274z"/>
		<path style="fill:none;stroke:#000000;stroke-linecap:round;stroke-linejoin:round;stroke-miterlimit:10;" d="M362.34,36.791
			c-7.616,1.18-7.917,2.137-9.097,13.124c-1.18-10.988-1.481-11.944-9.097-13.124c7.616-1.18,7.917-2.136,9.097-13.124
			C354.423,34.655,354.724,35.611,362.34,36.791z"/>
		<path style="fill:none;stroke:#000000;stroke-linecap:round;stroke-linejoin:round;stroke-miterlimit:10;" d="M391.199,158.421
			c-5.358,0.83-5.57,1.503-6.4,9.234c-0.83-7.731-1.042-8.404-6.4-9.234c5.358-0.83,5.57-1.503,6.4-9.234
			C385.629,156.917,385.841,157.59,391.199,158.421z"/>
		<path style="fill:none;stroke:#000000;stroke-linecap:round;stroke-linejoin:round;stroke-miterlimit:10;" d="M40.043,146.492
			c-4.665,0.723-4.849,1.309-5.572,8.039c-0.723-6.73-0.907-7.316-5.572-8.039c4.665-0.723,4.85-1.309,5.572-8.039
			C35.194,145.183,35.378,145.769,40.043,146.492z"/>
		<path style="fill:none;stroke:#000000;stroke-linecap:round;stroke-linejoin:round;stroke-miterlimit:10;" d="M343.262,44.83
			c-4.665,0.723-4.849,1.309-5.572,8.039c-0.723-6.73-0.907-7.316-5.572-8.039c4.665-0.723,4.849-1.309,5.572-8.039
			C338.412,43.521,338.597,44.107,343.262,44.83z"/>
		<path style="fill:none;stroke:#000000;stroke-linecap:round;stroke-linejoin:round;stroke-miterlimit:10;" d="M464.449,57.417
			c-4.665,0.723-4.849,1.309-5.572,8.039c-0.723-6.73-0.907-7.316-5.572-8.039c4.665-0.723,4.849-1.309,5.572-8.039
			C459.599,56.109,459.783,56.695,464.449,57.417z"/>
		<path style="fill:none;stroke:#000000;stroke-linecap:round;stroke-linejoin:round;stroke-miterlimit:10;" d="M125.818,250.269
			c4.665,0.723,4.849,1.309,5.572,8.039c0.723-6.73,0.907-7.316,5.572-8.039c-4.665-0.723-4.849-1.309-5.572-8.039
			C130.667,248.961,130.483,249.547,125.818,250.269z"/>
		<path style="fill:none;stroke:#000000;stroke-linecap:round;stroke-linejoin:round;stroke-miterlimit:10;" d="M119.652,254.803
			c3.235,0.501,3.363,0.908,3.864,5.575c0.501-4.667,0.629-5.074,3.864-5.575c-3.235-0.501-3.363-0.908-3.864-5.575
			C123.015,253.895,122.888,254.302,119.652,254.803z"/>
		<path style="fill:none;stroke:#000000;stroke-linecap:round;stroke-linejoin:round;stroke-miterlimit:10;" d="M40.923,166.761
			c0,1.296-1.051,2.346-2.346,2.346c-1.296,0-2.346-1.05-2.346-2.346c0-1.296,1.05-2.346,2.346-2.346
			C39.873,164.415,40.923,165.465,40.923,166.761z"/>
		<path style="fill:none;stroke:#000000;stroke-linecap:round;stroke-linejoin:round;stroke-miterlimit:10;" d="M133.737,266.277
			c0,1.296-1.051,2.346-2.346,2.346c-1.296,0-2.346-1.051-2.346-2.346c0-1.296,1.05-2.346,2.346-2.346
			C132.686,263.931,133.737,264.982,133.737,266.277z"/>
		<path style="fill:none;stroke:#000000;stroke-linecap:round;stroke-linejoin:round;stroke-miterlimit:10;" d="M62.19,39.065
			c0,1.296-1.05,2.346-2.346,2.346c-1.296,0-2.346-1.051-2.346-2.346c0-1.296,1.05-2.346,2.346-2.346
			C61.14,36.719,62.19,37.77,62.19,39.065z"/>
		
			<circle style="fill:none;stroke:#000000;stroke-linecap:round;stroke-linejoin:round;stroke-miterlimit:10;" cx="45.203" cy="159.194" r="3.862"/>
		
			<circle style="fill:none;stroke:#000000;stroke-linecap:round;stroke-linejoin:round;stroke-miterlimit:10;" cx="463.559" cy="73.02" r="3.236"/>
		<path style="fill:none;stroke:#000000;stroke-linecap:round;stroke-linejoin:round;stroke-miterlimit:10;" d="M397.133,149.187
			c0,1.787-1.449,3.236-3.236,3.236c-1.788,0-3.237-1.449-3.237-3.236c0-1.787,1.449-3.236,3.237-3.236
			C395.684,145.95,397.133,147.399,397.133,149.187z"/>
		<path style="fill:none;stroke:#000000;stroke-linecap:round;stroke-linejoin:round;stroke-miterlimit:10;" d="M470.435,66.516
			c0,1.223-0.991,2.214-2.214,2.214c-1.223,0-2.214-0.991-2.214-2.214s0.991-2.214,2.214-2.214
			C469.443,64.301,470.435,65.293,470.435,66.516z"/>
		<path style="fill:none;stroke:#000000;stroke-linecap:round;stroke-linejoin:round;stroke-miterlimit:10;" d="M341.302,32.308
			c0,1.223-0.991,2.214-2.214,2.214s-2.214-0.991-2.214-2.214c0-1.223,0.991-2.214,2.214-2.214S341.302,31.086,341.302,32.308z"/>
		<path style="fill:none;stroke:#000000;stroke-linecap:round;stroke-linejoin:round;stroke-miterlimit:10;" d="M399.347,158.421
			c0,1.223-0.991,2.214-2.214,2.214c-1.223,0-2.214-0.991-2.214-2.214c0-1.223,0.991-2.214,2.214-2.214
			C398.356,156.206,399.347,157.198,399.347,158.421z"/>
	</g>
	<g>
		<g>
			<path style="fill:#FFFFFF;stroke:#000000;stroke-linecap:round;stroke-linejoin:round;stroke-miterlimit:10;" d="M406.812,500
				c0,0,0.932-15.179,3.728-69.237c2.796-54.058-3.545-62.397-14.447-73.669c-12.582-13.01-62.097-43.185-62.097-43.185h-168.07
				c0,0-49.514,30.175-62.097,43.185c-10.901,11.272-17.243,19.611-14.447,73.669C92.179,484.821,93.111,500,93.111,500"/>
			<g>
				
					<line style="fill:none;stroke:#000000;stroke-linecap:round;stroke-linejoin:round;stroke-miterlimit:10;" x1="136.75" y1="332.554" x2="363.252" y2="332.554"/>
				
					<line style="fill:none;stroke:#000000;stroke-linecap:round;stroke-linejoin:round;stroke-miterlimit:10;" x1="101.112" y1="388.37" x2="400.644" y2="388.37"/>
				
					<line style="fill:none;stroke:#000000;stroke-linecap:round;stroke-linejoin:round;stroke-miterlimit:10;" x1="110.53" y1="351.159" x2="388.461" y2="351.159"/>
				
					<line style="fill:none;stroke:#000000;stroke-linecap:round;stroke-linejoin:round;stroke-miterlimit:10;" x1="104.958" y1="406.975" x2="394.294" y2="406.975"/>
				
					<line style="fill:none;stroke:#000000;stroke-linecap:round;stroke-linejoin:round;stroke-miterlimit:10;" x1="91.06" y1="462.79" x2="402.129" y2="462.79"/>
				
					<line style="fill:none;stroke:#000000;stroke-linecap:round;stroke-linejoin:round;stroke-miterlimit:10;" x1="94.87" y1="425.58" x2="396.809" y2="425.58"/>
				
					<line style="fill:none;stroke:#000000;stroke-linecap:round;stroke-linejoin:round;stroke-miterlimit:10;" x1="92.062" y1="481.395" x2="407.835" y2="481.395"/>
				
					<line style="fill:none;stroke:#000000;stroke-linecap:round;stroke-linejoin:round;stroke-miterlimit:10;" x1="101.112" y1="409.421" x2="101.112" y2="500"/>
				
					<line style="fill:none;stroke:#000000;stroke-linecap:round;stroke-linejoin:round;stroke-miterlimit:10;" x1="101.112" y1="359.978" x2="101.112" y2="388.37"/>
				
					<line style="fill:none;stroke:#000000;stroke-linecap:round;stroke-linejoin:round;stroke-miterlimit:10;" x1="119.718" y1="344.063" x2="119.718" y2="500"/>
				
					<line style="fill:none;stroke:#000000;stroke-linecap:round;stroke-linejoin:round;stroke-miterlimit:10;" x1="156.928" y1="319.742" x2="156.928" y2="500"/>
				
					<line style="fill:none;stroke:#000000;stroke-linecap:round;stroke-linejoin:round;stroke-miterlimit:10;" x1="194.138" y1="313.949" x2="194.138" y2="500"/>
				
					<line style="fill:none;stroke:#000000;stroke-linecap:round;stroke-linejoin:round;stroke-miterlimit:10;" x1="231.348" y1="313.949" x2="231.348" y2="500"/>
				
					<line style="fill:none;stroke:#000000;stroke-linecap:round;stroke-linejoin:round;stroke-miterlimit:10;" x1="175.533" y1="332.554" x2="175.533" y2="500"/>
				
					<line style="fill:none;stroke:#000000;stroke-linecap:round;stroke-linejoin:round;stroke-miterlimit:10;" x1="268.558" y1="313.949" x2="268.558" y2="500"/>
				
					<line style="fill:none;stroke:#000000;stroke-linecap:round;stroke-linejoin:round;stroke-miterlimit:10;" x1="249.953" y1="313.949" x2="249.953" y2="500"/>
				
					<line style="fill:none;stroke:#000000;stroke-linecap:round;stroke-linejoin:round;stroke-miterlimit:10;" x1="342.995" y1="319.742" x2="342.995" y2="500"/>
				
					<line style="fill:none;stroke:#000000;stroke-linecap:round;stroke-linejoin:round;stroke-miterlimit:10;" x1="305.785" y1="313.949" x2="305.785" y2="500"/>
				
					<line style="fill:none;stroke:#000000;stroke-linecap:round;stroke-linejoin:round;stroke-miterlimit:10;" x1="324.39" y1="313.949" x2="324.39" y2="500"/>
				
					<line style="fill:none;stroke:#000000;stroke-linecap:round;stroke-linejoin:round;stroke-miterlimit:10;" x1="380.125" y1="344.167" x2="380.125" y2="500"/>
				
					<line style="fill:none;stroke:#000000;stroke-linecap:round;stroke-linejoin:round;stroke-miterlimit:10;" x1="398.81" y1="435.01" x2="398.81" y2="500"/>
				
					<line style="fill:none;stroke:#000000;stroke-linecap:round;stroke-linejoin:round;stroke-miterlimit:10;" x1="398.81" y1="360.737" x2="398.81" y2="390.588"/>
			</g>
			<g>
				<g>
					<path d="M262.58,427.305c0,2.505-2.031,4.536-4.536,4.536c-2.505,0-4.536-2.031-4.536-4.536s2.031-4.536,4.536-4.536
						C260.549,422.769,262.58,424.799,262.58,427.305z"/>
					<g>
						
							<line style="fill:none;stroke:#FFFFFF;stroke-linecap:round;stroke-linejoin:round;stroke-miterlimit:10;" x1="256.371" y1="425.631" x2="259.717" y2="428.978"/>
						
							<line style="fill:none;stroke:#FFFFFF;stroke-linecap:round;stroke-linejoin:round;stroke-miterlimit:10;" x1="259.717" y1="425.631" x2="256.371" y2="428.978"/>
					</g>
				</g>
				<g>
					<path d="M262.58,454.445c0,2.505-2.031,4.536-4.536,4.536c-2.505,0-4.536-2.031-4.536-4.536s2.031-4.536,4.536-4.536
						C260.549,449.91,262.58,451.94,262.58,454.445z"/>
					<g>
						
							<line style="fill:none;stroke:#FFFFFF;stroke-linecap:round;stroke-linejoin:round;stroke-miterlimit:10;" x1="256.371" y1="452.772" x2="259.717" y2="456.119"/>
						
							<line style="fill:none;stroke:#FFFFFF;stroke-linecap:round;stroke-linejoin:round;stroke-miterlimit:10;" x1="259.717" y1="452.772" x2="256.371" y2="456.119"/>
					</g>
				</g>
				<g>
					<path d="M262.58,481.586c0,2.505-2.031,4.536-4.536,4.536c-2.505,0-4.536-2.031-4.536-4.536s2.031-4.536,4.536-4.536
						C260.549,477.051,262.58,479.081,262.58,481.586z"/>
					<g>
						
							<line style="fill:none;stroke:#FFFFFF;stroke-linecap:round;stroke-linejoin:round;stroke-miterlimit:10;" x1="256.371" y1="479.913" x2="259.717" y2="483.26"/>
						
							<line style="fill:none;stroke:#FFFFFF;stroke-linecap:round;stroke-linejoin:round;stroke-miterlimit:10;" x1="259.717" y1="479.913" x2="256.371" y2="483.26"/>
					</g>
				</g>
			</g>
			<g>
				<path style="fill:#FFFFFF;stroke:#000000;stroke-linecap:round;stroke-linejoin:round;stroke-miterlimit:10;" d="M91.46,377.922
					c0,0-10.466,12.064-10.233,17.423c0.233,5.359,5.114,4.66,5.114,4.66s-8.61,9.786-6.745,15.146
					c1.864,5.359,9.223,0.934,9.223,0.934s0.37,10.935,0.564,14.677c0,0,4.893,1.631,5.359,0c0.466-1.631-0.233-12.116,0-11.883
					c0.233,0.233,4.427,0.699,4.66-0.699c0.233-1.398,0-8.621,0-8.621s4.893-0.233,5.359-1.165c0.466-0.932,1.631-17.942,0-18.874
					c-1.631-0.932-5.126-1.165-5.126-1.165s-0.622-6.775-1.398-7.689C95.907,377.922,91.46,377.922,91.46,377.922z"/>
				<g>
					<path style="fill:none;stroke:#000000;stroke-linecap:round;stroke-linejoin:round;stroke-miterlimit:10;" d="M92.467,385.326
						c0,0-4.39,7.215-3.388,9.782c1.003,2.567,5.204-1.86,5.204-1.86s-1.871,14.214,5.353,9.087"/>
					<path style="fill:none;stroke:#000000;stroke-linecap:round;stroke-linejoin:round;stroke-miterlimit:10;" d="M87.286,403.451
						c0,0-5.184,7.852-1.864,7.91s5.825-5.53,5.825-5.53s-2.176,8.395,3.036,8.155"/>
				</g>
			</g>
			<g>
				<path style="fill:#FFFFFF;stroke:#000000;stroke-linecap:round;stroke-linejoin:round;stroke-miterlimit:10;" d="
					M402.547,376.006c-1.39,0.49-1.165,14.214-2.796,14.447c-1.631,0.233-3.961,0.466-4.66,2.097
					c-0.699,1.631-1.165,32.066-1.165,32.066l2.563-7.134l0.699,17.709c0.466,2.33,5.093-4.365,5.093-4.365
					s-0.197,10.652-0.433,18.579c-0.148,4.967,0.128,11.193,0.466,16.544c0.132,2.093,9.32,7.922,11.417,2.33
					c2.097-5.592-2.533-17.243-2.533-17.243s6.494,6.058,8.824,3.029c2.33-3.029-3.262-20.531-7.456-29.722
					c0,0,7.223,3.392,6.524-3.831c-0.699-7.223-6.757-16.078-6.757-16.078s7.155,2.097,8.238-3.495
					c1.083-5.592-7.306-15.379-7.306-15.379s4.66,0.932,3.262-3.961C415.13,376.705,406.508,374.608,402.547,376.006z"/>
				<g>
					<path style="fill:none;stroke:#000000;stroke-linecap:round;stroke-linejoin:round;stroke-miterlimit:10;" d="M401.149,397.443
						c0,0,3.029,4.194,4.66,3.262c1.631-0.932,0-6.757,0-6.757s3.728,8.155,7.922,5.359c4.194-2.796-6.291-15.612-6.291-15.612"/>
					<path style="fill:none;stroke:#000000;stroke-linecap:round;stroke-linejoin:round;stroke-miterlimit:10;" d="M398.586,411.361
						c0,0,4.194,8.45,5.825,8.217c1.631-0.233,0-8.217,0-8.217s7.139,10.531,10.311,7.285"/>
					<path style="fill:none;stroke:#000000;stroke-linecap:round;stroke-linejoin:round;stroke-miterlimit:10;" d="M406.654,424.615
						c0,0,6.262,13.604,8.068,20.827c1.806,7.223-6.726,2.563-9.146-3.495c0,0,6.352,19.107,5.623,22.369
						c-0.73,3.262-2.302,3.262-4.545,0"/>
				</g>
			</g>
			<g>
				<path style="fill:none;stroke:#000000;stroke-linecap:round;stroke-linejoin:round;stroke-miterlimit:10;" d="M150.057,428.327
					c0,28.826,6.901,71.673,6.901,71.673"/>
				<path style="fill:none;stroke:#000000;stroke-linecap:round;stroke-linejoin:round;stroke-miterlimit:10;" d="M151.617,457.292
					c0,0-5.291-9.195-7.902-20.386"/>
			</g>
			<g>
				<path style="fill:none;stroke:#000000;stroke-linecap:round;stroke-linejoin:round;stroke-miterlimit:10;" d="M349.609,428.327
					c0,28.826-6.901,71.673-6.901,71.673"/>
				<path style="fill:none;stroke:#000000;stroke-linecap:round;stroke-linejoin:round;stroke-miterlimit:10;" d="M348.048,457.292
					c0,0,5.291-9.195,7.902-20.386"/>
			</g>
		</g>
		<g>
			<g>
				<path style="fill:#FFFFFF;stroke:#000000;stroke-linecap:round;stroke-linejoin:round;stroke-miterlimit:10;" d="
					M123.793,180.569c0,0-6.638,59.209,35.123,60.431l1.501-27.252L123.793,180.569z"/>
				<path style="fill:#FFFFFF;stroke:#000000;stroke-linecap:round;stroke-linejoin:round;stroke-miterlimit:10;" d="
					M376.207,180.569c0,0,6.638,59.209-35.123,60.431l-1.501-27.252L376.207,180.569z"/>
			</g>
			<g>
				<path style="fill:#FFFFFF;stroke:#000000;stroke-linecap:round;stroke-linejoin:round;stroke-miterlimit:10;" d="
					M366.121,205.951c-4.152-0.831-2.595-2.491,1.142-5.709c3.737-3.218,10.795-18.995,8.511-21.694
					c-2.283-2.699-14.22,14.22-29.167,17.749c0,0,8.304-8.2,8.408-18.58c0.104-10.38-8.2-2.595-6.747-11.937
					c1.453-9.342,3.322-23.251-9.549-29.479c-12.871-6.228-22.292,1.142-25.626-4.671c-3.334-5.813-4.372-11.833-13.921-12.144
					c-9.549-0.311-10.947,2.888-16.089-3.944c-7.258-9.642-27.308-10.296-33.077-10.296c-5.769,0-25.819,0.654-33.077,10.296
					c-5.142,6.832-6.539,3.633-16.089,3.944c-9.549,0.312-10.587,6.332-13.921,12.144c-3.334,5.813-12.755-1.557-25.626,4.671
					c-12.871,6.228-11.003,20.137-9.549,29.479c1.453,9.342-6.851,1.557-6.747,11.937c0.104,10.38,8.408,18.58,8.408,18.58
					c-14.947-3.529-26.883-20.448-29.167-17.749c-2.283,2.699,4.775,18.476,8.511,21.694c3.737,3.218,5.294,4.878,1.142,5.709
					c-4.152,0.83-2.491,1.868,2.387,5.294c4.878,3.425,9.342,2.076,7.37,3.425c-1.972,1.349-3.114,3.218,2.906,4.048
					c6.02,0.83,10.717-2.673,10.717-2.673s0.699,15.379,1.049,23.068c0.35,7.689-8.388,23.767-10.485,30.757
					c-2.097,6.99,12.932,5.942,12.932,5.942c-13.631,45.437,6.291,38.097,6.291,38.097c-3.845,23.068,12.233,18.941,12.233,18.941
					s-2.796,13.564,2.097,26.845c4.893,13.282,14.33,4.194,14.33,4.194c3.495,22.019,17.825,14.33,17.825,14.33
					c21.687,31.853,32.749,33.142,36.422,33.142c3.673,0,14.816-1.289,36.503-33.142c0,0,14.33,7.689,17.825-14.33
					c0,0,9.437,9.087,14.33-4.194c4.893-13.281,2.097-26.845,2.097-26.845s16.078,4.127,12.233-18.941c0,0,19.922,7.34,6.291-38.097
					c0,0,15.029,1.049,12.932-5.942s-10.835-23.068-10.485-30.757c0.35-7.689,1.048-23.068,1.048-23.068s4.697,3.503,10.717,2.673
					c6.02-0.83,4.878-2.699,2.906-4.048c-1.972-1.349,2.491,0,7.37-3.425C368.612,207.819,370.273,206.781,366.121,205.951z"/>
				<g>
					<path style="fill:none;stroke:#000000;stroke-linecap:round;stroke-linejoin:round;stroke-miterlimit:10;" d="M235.214,118.006
						c0,0,9.437,14.505,5.592,46.485"/>
					<path style="fill:none;stroke:#000000;stroke-linecap:round;stroke-linejoin:round;stroke-miterlimit:10;" d="M218.087,121.327
						c0,0,11.184,13.135,13.98,39.509"/>
					<path style="fill:none;stroke:#000000;stroke-linecap:round;stroke-linejoin:round;stroke-miterlimit:10;" d="M196.243,128.841
						c0,0,14.33,8.913,25.165,33.378"/>
					<path style="fill:none;stroke:#000000;stroke-linecap:round;stroke-linejoin:round;stroke-miterlimit:10;" d="M186.92,138.453
						c0,0,8.974,4.019,16.313,16.078"/>
					<path style="fill:none;stroke:#000000;stroke-linecap:round;stroke-linejoin:round;stroke-miterlimit:10;" d="M158.67,141.249
						c0,0,17.126,0.524,31.107,15.553"/>
					<path style="fill:none;stroke:#000000;stroke-linecap:round;stroke-linejoin:round;stroke-miterlimit:10;" d="M154.301,154.53
						c0,0,14.155-0.524,29.359,11.01"/>
					<path style="fill:none;stroke:#000000;stroke-linecap:round;stroke-linejoin:round;stroke-miterlimit:10;" d="M157.796,165.54
						c0,0,8.388-2.272,18,3.67"/>
					<path style="fill:none;stroke:#000000;stroke-linecap:round;stroke-linejoin:round;stroke-miterlimit:10;" d="M151.855,180.569
						c0,0,4.718-3.67,14.942-2.621"/>
					<path style="fill:none;stroke:#000000;stroke-linecap:round;stroke-linejoin:round;stroke-miterlimit:10;" d="M154.301,189.307
						c0,0,2.207-3.141,9.231-4.194"/>
					<path style="fill:none;stroke:#000000;stroke-linecap:round;stroke-linejoin:round;stroke-miterlimit:10;" d="M130.709,189.307
						c0,0,11.821,15.728,32.823,16.427"/>
					<path style="fill:none;stroke:#000000;stroke-linecap:round;stroke-linejoin:round;stroke-miterlimit:10;" d="M142.942,206.433
						c0,0,6.291,3.32,17.476,1.748"/>
					<path style="fill:none;stroke:#000000;stroke-linecap:round;stroke-linejoin:round;stroke-miterlimit:10;" d="M155.891,266.277
						c0,0,1.178,6.595,9.421,3.533c0,0-3.062,27.085,0,32.503c3.062,5.417,9.421-1.178,9.421-1.178"/>
					<path style="fill:none;stroke:#000000;stroke-linecap:round;stroke-linejoin:round;stroke-miterlimit:10;" d="M172.849,319.742
						c0,0,1.998,13.425,14.071,5.417c0,0-4.771,21.904,0,29.205c4.771,7.301,13.486-2.355,13.486-2.355"/>
					<path style="fill:none;stroke:#000000;stroke-linecap:round;stroke-linejoin:round;stroke-miterlimit:10;" d="M195.46,323.039
						c0,0,2.168,16.251,11.329,16.958c9.161,0.706,12.93-8.479,12.93-8.479s3.768,7.772,8.008,3.768"/>
					<path style="fill:none;stroke:#000000;stroke-linecap:round;stroke-linejoin:round;stroke-miterlimit:10;" d="M214.302,357.094
						c0,0,3.297,19.41,11.541,27.888c8.243,8.479,13.896-10.128,13.896-10.128s5.417,3.533,6.595-4.711"/>
					<path style="fill:none;stroke:#000000;stroke-linecap:round;stroke-linejoin:round;stroke-miterlimit:10;" d="M264.799,118.006
						c0,0-9.437,14.505-5.592,46.485"/>
					<path style="fill:none;stroke:#000000;stroke-linecap:round;stroke-linejoin:round;stroke-miterlimit:10;" d="M281.925,121.327
						c0,0-11.184,13.135-13.98,39.509"/>
					<path style="fill:none;stroke:#000000;stroke-linecap:round;stroke-linejoin:round;stroke-miterlimit:10;" d="M303.77,128.841
						c0,0-14.33,8.913-25.165,33.378"/>
					<path style="fill:none;stroke:#000000;stroke-linecap:round;stroke-linejoin:round;stroke-miterlimit:10;" d="M313.093,138.453
						c0,0-8.973,4.019-16.313,16.078"/>
					<path style="fill:none;stroke:#000000;stroke-linecap:round;stroke-linejoin:round;stroke-miterlimit:10;" d="M341.342,141.249
						c0,0-17.126,0.524-31.107,15.553"/>
					<path style="fill:none;stroke:#000000;stroke-linecap:round;stroke-linejoin:round;stroke-miterlimit:10;" d="M345.711,154.53
						c0,0-14.155-0.524-29.359,11.01"/>
					<path style="fill:none;stroke:#000000;stroke-linecap:round;stroke-linejoin:round;stroke-miterlimit:10;" d="M342.216,165.54
						c0,0-8.388-2.272-18,3.67"/>
					<path style="fill:none;stroke:#000000;stroke-linecap:round;stroke-linejoin:round;stroke-miterlimit:10;" d="M348.158,180.569
						c0,0-4.719-3.67-14.942-2.621"/>
					<path style="fill:none;stroke:#000000;stroke-linecap:round;stroke-linejoin:round;stroke-miterlimit:10;" d="M345.711,189.307
						c0,0-2.207-3.141-9.231-4.194"/>
					<path style="fill:none;stroke:#000000;stroke-linecap:round;stroke-linejoin:round;stroke-miterlimit:10;" d="M369.304,189.307
						c0,0-11.821,15.728-32.823,16.427"/>
					<path style="fill:none;stroke:#000000;stroke-linecap:round;stroke-linejoin:round;stroke-miterlimit:10;" d="M357.071,206.433
						c0,0-6.291,3.32-17.476,1.748"/>
					<path style="fill:none;stroke:#000000;stroke-linecap:round;stroke-linejoin:round;stroke-miterlimit:10;" d="M344.121,266.277
						c0,0-1.178,6.595-9.421,3.533c0,0,3.062,27.085,0,32.503c-3.062,5.417-9.421-1.178-9.421-1.178"/>
					<path style="fill:none;stroke:#000000;stroke-linecap:round;stroke-linejoin:round;stroke-miterlimit:10;" d="M327.163,319.742
						c0,0-1.998,13.425-14.071,5.417c0,0,4.771,21.904,0,29.205c-4.771,7.301-13.486-2.355-13.486-2.355"/>
					<path style="fill:none;stroke:#000000;stroke-linecap:round;stroke-linejoin:round;stroke-miterlimit:10;" d="M304.553,323.039
						c0,0-2.168,16.251-11.329,16.958c-9.161,0.706-12.93-8.479-12.93-8.479s-3.768,7.772-8.008,3.768"/>
					<path style="fill:none;stroke:#000000;stroke-linecap:round;stroke-linejoin:round;stroke-miterlimit:10;" d="M285.711,357.094
						c0,0-3.297,19.41-11.541,27.888c-8.243,8.479-13.896-10.128-13.896-10.128s-5.417,3.533-6.595-4.711"/>
				</g>
			</g>
			<path style="fill:#FFFFFF;stroke:#000000;stroke-linecap:round;stroke-linejoin:round;stroke-miterlimit:10;" d="M325.08,185.226
				c0,0,6.995-0.96,6.172-3.429c-0.823-2.469-7.406-12.755-23.727-11.52c0,0,3.566-4.8,2.606-7.132
				c-0.96-2.331-19.475-6.72-35.11,10.012c0,0,1.646-4.663-0.823-6.035c-2.464-1.369-17.816,7.211-24.192,13.403
				c-6.376-6.192-21.728-14.771-24.192-13.403c-2.469,1.372-0.823,6.035-0.823,6.035c-15.635-16.732-34.15-12.343-35.11-10.012
				c-0.96,2.332,2.606,7.132,2.606,7.132c-16.321-1.234-22.904,9.052-23.727,11.52c-0.823,2.469,6.172,3.429,6.172,3.429
				c-8.777,2.743-11.658,11.246-11.383,14.401c0.274,3.154,7.443,2.172,7.443,2.172c-15.93,36.728,8.204,52.215,8.204,52.215
				c-9.496,16.373,5.013,13.718,5.013,13.718c-11.564,34.515,0.501,29.205,0.501,29.205c-3.54,13.275,12.833,9.735,12.833,9.735
				c14.16,27.435,20.798,13.718,20.798,13.718c12.537,13.834,27.402,14.727,33.171,14.727c5.769,0,17.623-0.893,30.16-14.727
				c0,0,6.638,13.718,20.798-13.718c0,0,16.373,3.54,12.833-9.735c0,0,12.065,5.31,0.501-29.205c0,0,14.509,2.655,5.013-13.718
				c0,0,24.134-15.488,8.204-52.215c0,0,7.169,0.983,7.443-2.172C336.737,196.472,333.857,187.969,325.08,185.226z"/>
			<path style="fill:none;stroke:#000000;stroke-linecap:round;stroke-linejoin:round;stroke-miterlimit:10;" d="M241.727,202.414
				c0,0,5.021,1.16,5.021,13.512"/>
			<g>
				<g>
					<path style="fill:none;stroke:#000000;stroke-linecap:round;stroke-linejoin:round;stroke-miterlimit:10;" d="M235.214,231.249
						c0,0-18-32.183-46.835-22.645c0,0,5.767-6.015,15.903-6.714c0,0-5.942-6.641-6.641-8.039
						c-0.699-1.398,12.233,4.544,16.252,7.515c4.019,2.971,4.829,1.651,4.655-1.32c-0.175-2.971-0.487-5.008,0.18-5.277
						c1.47-0.593,7.98,2.753,11.942,12.75c1.315,3.318,3.179-1.085,4.544-1.085C237.311,206.433,243.777,218.666,235.214,231.249z"
						/>
					<g>
						<path style="fill:none;stroke:#000000;stroke-linecap:round;stroke-linejoin:round;stroke-miterlimit:10;" d="
							M190.825,219.715c0,0,24.641-16.777,42.291,20.272c0,0-11.359,13.887-28.66,6.856
							C187.156,239.812,190.825,219.715,190.825,219.715z"/>
						
							<ellipse style="fill:none;stroke:#000000;stroke-linecap:round;stroke-linejoin:round;stroke-miterlimit:10;" cx="215.933" cy="234.244" rx="6.552" ry="14.519"/>
						<g>
							<ellipse cx="215.933" cy="234.713" rx="2.051" ry="6.288"/>
							<path style="fill:#FFFFFF;" d="M215.933,231.249c0,0.884-0.717,1.601-1.601,1.601c-0.884,0-1.601-0.717-1.601-1.601
								c0-0.884,0.717-1.601,1.601-1.601C215.217,229.648,215.933,230.365,215.933,231.249z"/>
						</g>
					</g>
					<path style="fill:none;stroke:#000000;stroke-linecap:round;stroke-linejoin:round;stroke-miterlimit:10;" d="M264.799,231.249
						c0,0,18-32.183,46.835-22.645c0,0-5.767-6.015-15.903-6.714c0,0,5.942-6.641,6.641-8.039
						c0.699-1.398-12.233,4.544-16.252,7.515c-4.019,2.971-4.829,1.651-4.655-1.32c0.175-2.971,0.486-5.008-0.18-5.277
						c-1.47-0.593-7.98,2.753-11.942,12.75c-1.315,3.318-3.179-1.085-4.544-1.085C262.702,206.433,256.236,218.666,264.799,231.249z
						"/>
					<g>
						<path style="fill:none;stroke:#000000;stroke-linecap:round;stroke-linejoin:round;stroke-miterlimit:10;" d="
							M309.187,219.715c0,0-24.641-16.777-42.291,20.272c0,0,11.359,13.887,28.66,6.856
							C312.857,239.812,309.187,219.715,309.187,219.715z"/>
						
							<ellipse style="fill:none;stroke:#000000;stroke-linecap:round;stroke-linejoin:round;stroke-miterlimit:10;" cx="284.079" cy="234.244" rx="6.552" ry="14.519"/>
						<g>
							<ellipse cx="284.079" cy="234.713" rx="2.051" ry="6.288"/>
							<path style="fill:#FFFFFF;" d="M284.079,231.249c0,0.884,0.717,1.601,1.601,1.601s1.601-0.717,1.601-1.601
								c0-0.884-0.717-1.601-1.601-1.601S284.079,230.365,284.079,231.249z"/>
						</g>
					</g>
					<path style="fill:none;stroke:#000000;stroke-linecap:round;stroke-linejoin:round;stroke-miterlimit:10;" d="M258.286,202.414
						c0,0-5.021,1.16-5.021,13.512"/>
				</g>
				<g>
					<path style="fill:none;stroke:#000000;stroke-linecap:round;stroke-linejoin:round;stroke-miterlimit:10;" d="M233.117,239.987
						c0,0,5.23,10.013,4.454,36.732"/>
					
						<line style="fill:none;stroke:#000000;stroke-linecap:round;stroke-linejoin:round;stroke-miterlimit:10;" x1="249.696" y1="292.842" x2="249.696" y2="305.064"/>
					<path style="fill:none;stroke:#000000;stroke-linecap:round;stroke-linejoin:round;stroke-miterlimit:10;" d="M225.349,278.019
						c0,0,4.747,27.045,24.348,27.045c19.601,0,27.142-27.045,27.142-27.045"/>
					<path d="M261.822,276.719c-7.801-2.341-12.126,5.461-12.126,5.461s-4.324-7.802-12.126-5.461
						c-4.632,1.389-4.565,6.538-0.732,10.655c5.046-4.646,7.236,1.053,8.076,4.697c1.463,0.405,3.057,0.678,4.782,0.771
						c1.725-0.093,3.319-0.366,4.782-0.771c0.84-3.643,3.03-9.342,8.076-4.697C266.387,283.257,266.454,278.108,261.822,276.719z"/>
					<path style="fill:none;stroke:#000000;stroke-linecap:round;stroke-linejoin:round;stroke-miterlimit:10;" d="M266.896,239.987
						c0,0-6.413,16.71-5.124,36.732"/>
					<path style="fill:none;stroke:#000000;stroke-linecap:round;stroke-linejoin:round;stroke-miterlimit:10;" d="M232.006,294.588
						l2.02,12.585l2.873-6.944C236.898,300.229,234.099,298.126,232.006,294.588z"/>
					<path style="fill:none;stroke:#000000;stroke-linecap:round;stroke-linejoin:round;stroke-miterlimit:10;" d="M268.784,294.186
						l-2.02,12.987l-3.043-7.355C263.722,299.817,266.336,297.443,268.784,294.186z"/>
				</g>
			</g>
		</g>
	</g>
</g>
</svg>
