<?xml version="1.0" encoding="utf-8"?>
<!-- Generator: Adobe Illustrator 27.5.0, SVG Export Plug-In . SVG Version: 6.00 Build 0)  -->
<svg xmlns="http://www.w3.org/2000/svg" xmlns:xlink="http://www.w3.org/1999/xlink" viewBox="0 0 4292.4 4292.4" width="595" height="842" preserveAspectRatio="xMidYMid meet" data-scaled="true">
<g id="Background">
	<rect x="0" style="fill:#FFFFFF;" width="4292.4" height="4292.4"/>
</g>
<g>
	<path d="M3615.775,3154.443c-30.376-18.111-69.052-27.477-102.153-39.7c-90.463-33.415-202.599-80.943-260.24-161.653
		c-19.221-26.917-32.197-58.94-41.312-90.571c-9.483-32.921-14.754-67.438-16.97-101.608
		c72.002,28.031,158.694,16.071,228.157-14.616c92.933-41.051,153.094-119.179,188.744-212.107
		c22.698-59.123,50.936-166.677,24.315-225.276c-12.277-27.028-35.981-44.687-63.369-54.661
		c-38.976-14.197-81.255-14.628-121.878-8.917c32.75-97.437,29.744-197.793,9.331-297.494
		c-7.385-36.059-16.709-73.337-33.191-106.378c-13.224-26.513-32.202-52.445-61.306-62.443
		c-34.721-11.93-72.313-1.222-103.848,14.874c-41.467,21.165-78.344,54.99-106.13,92.098
		c-28.681-26.833-56.712-41.985-90.103-61.401c-27.444-69.96-59.227-161.396-117.083-211.729
		c-11.855-10.313-25.021-17.775-38.832-25.123c9.085-149.004-7.944-248.636-70.334-385.064
		c70.777-73.688,118.129-174.655,115.637-278.491c-1.09-45.462-17.131-120.251-52.002-152.419
		c-8.019-7.399-17.838-9.818-28.63-9.129c-21.857,1.396-43.486,28.644-60.428,41.142c-12.706,9.371-26.66,17.915-40.41,25.679
		c-50.154,28.316-108.412,45.186-165.333,52.707c-46.183,6.102-109.672,9.832-154.927,0.915c-15.886-3.13-31.43-8.619-47.094-12.761
		c-26.327-6.891-52.915-12.557-79.763-16.997c-228.81-37.654-450.846-1.836-659.302,99.46
		c-38.518,18.719-74.326,42.408-111.708,63.192c-82.938,0.35-168.097-3.695-244.632-39.371
		c-24.719-11.523-54.787-35.984-80.318-40.844c-16.266-3.096-33.52,2.926-45.267,14.352c-25.71,25.01-31.939,72.786-31.526,106.74
		c0.85,69.816,26.049,146.468,66.142,203.767c17.727,25.336,40.808,49.843,63.108,71.256c1.132,1.084,2.279,2.152,3.441,3.204
		c-15.679,45.713-26.95,91.041-32.104,139.186c-10.981,102.581,7.369,224.285,53.002,317.119c1.906,3.869,3.855,7.716,5.845,11.541
		c-16.601,31.154-32.562,62.967-41.39,97.341c-25.207,98.126-4.824,234.412,24.357,330.367c8.944,29.408,20.09,58.419,30.567,87.315
		c27.92,77.002,66.073,185.923,117.236,248.6c18.23,22.333,40.245,38.727,65.324,52.619c22.842,50.744,57.359,96.937,95.922,136.718
		c-28.391,23.98-56.55,50.861-71.121,85.881l-0.904,2.141c-0.177,0.431-0.341,0.865-0.509,1.3
		c-88.732,11.109-174.322-16.679-256.826-45.659c-23.324-8.193-47.884-15.619-70.46-25.606
		c21.081-17.631,40.91-35.359,58.033-57.038c36.484-46.199,58.685-110.331,63.842-168.487
		c11.367-128.175-40.006-259.602-122.327-357.11c-22.141-26.223-54.365-50.307-89.702-52.918
		c-22.195-1.641-41.003,6.154-57.512,20.491c-57.29,49.759-89.501,144.279-104.18,217.362
		c-77.526-29.897-175.201-40.955-253.093-6.127c-16.865,7.54-32.766,19.458-39.402,37.329
		c-18.532,49.903,16.41,170.451,39.599,218.416c43.57,90.121,116.979,155.421,211.601,188.331
		c70.665,24.576,158.418,30.118,227.817-1.767c20.865,11.46,41.135,24.411,62.539,34.799
		c33.741,16.376,105.48,40.644,128.804,64.656c-110.262-23.65-239.042-26.462-337.021,37.113
		c-67.441,43.764-121.681,107.247-138.942,187.432c-4.371,20.305-2.826,39.039,8.988,56.76
		c27.721,41.584,87.397,62.881,134.239,71.238c48.235,8.606,93.182,3.486,139.94-9.517c2.539,62.575,13.128,164.414,61.195,208.061
		c13.754,12.493,29.984,18.82,48.648,17.796c50.927-2.794,99.027-49.196,130.367-85.647
		c64.138-74.595,111.379-180.506,103.704-280.263c-2.641-34.316-14.092-65.171-28.001-96.344
		c27.194-9.331,54.576-18.07,82.147-26.216c12.31,22.614,31.058,42.581,56.29,50.412c12.113,3.758,27.148,4.324,38.53-2.081
		c2.429-1.365,4.689-3.072,6.905-4.752c22.396,16.996,46.231,30.513,75.652,26.04c16.464-2.5,28.274-10.957,38.943-23.285
		c0.8,0.724,1.618,1.429,2.453,2.114c0.832,0.685,1.683,1.349,2.551,1.991c0.866,0.641,1.748,1.261,2.644,1.863
		c0.898,0.599,1.811,1.176,2.737,1.731c0.924,0.555,1.863,1.087,2.815,1.596c0.952,0.509,1.915,0.994,2.89,1.455
		c0.976,0.461,1.962,0.898,2.958,1.312c0.998,0.413,2.005,0.801,3.021,1.165c1.014,0.365,2.038,0.705,3.072,1.018
		c1.032,0.313,2.071,0.601,3.117,0.862c1.048,0.264,2.101,0.501,3.159,0.713c1.058,0.21,2.121,0.394,3.189,0.554
		c1.066,0.16,2.136,0.292,3.21,0.398c1.074,0.106,2.15,0.186,3.228,0.24c1.078,0.054,2.156,0.082,3.234,0.083
		c1.08,0,2.159-0.026,3.237-0.078c14.748-0.671,28.094-7.219,37.994-18.131c15.727-17.335,18.416-38.146,19.542-60.416
		c45.052-2.414,90.145-5.591,135.23-7.154c9.747,18.14,18.733,32.017,34.643,45.321c-21.267,87.965-39.871,222.617,9.346,302.635
		c11.873,19.299,28.555,33.972,51.166,39.108c21.401,4.857,45.354,0.988,63.698-11.274c5.031-3.365,9.594-7.438,13.895-11.681
		c16.631,35.029,37.943,65.722,76.185,79.033c28.543,9.933,62.665,7.31,89.621-6.195c15.401-7.714,26.986-18.359,39.347-30.13
		c24.07,27.343,51.062,50.052,88.843,52.715c29.792,2.099,59.728-9.549,81.911-29.16c17.341-15.332,29.073-34.248,38.137-55.344
		c24.073,22.216,45.746,36.545,80.072,34.958c29.313-1.354,56.392-13.454,76.08-35.356c15.814-17.589,24.797-38.574,29.744-61.5
		c22.994,8.654,43.62,12.568,67.061,1.695c25.507-11.831,41.464-34.871,50.732-60.668c16.79-46.744,10.25-94.358-10.816-138.578
		c-6.98-14.652-15.167-29.193-23.839-42.908c90.085,30.322,167.31,60.823,252.538,103.695
		c58.242,29.298,112.086,65.288,167.513,99.389c89.78,55.23,186.624,107.852,288.007,138.018
		c12.032,3.581,41.683,14.053,52.876,7.342c2.036-1.213,1.647-2.141,2.066-4.231c-0.838-1.021-2.456-3.198-3.444-4.048
		c-25.585-4.851-52.295-15.317-76.991-23.665c-17.412-5.749-34.65-11.977-51.714-18.682c-17.066-6.708-33.932-13.884-50.597-21.527
		c-16.667-7.644-33.109-15.745-49.325-24.303s-32.183-17.56-47.9-27.004c-44.611-27.022-87.034-57.514-131.646-84.486
		c-11.241-6.771-22.565-13.402-33.972-19.892c-11.405-6.49-22.889-12.838-34.451-19.045c-11.563-6.207-23.2-12.268-34.912-18.185
		c-11.714-5.919-23.499-11.692-35.353-17.317c-11.856-5.626-23.78-11.104-35.772-16.437c-11.992-5.332-24.048-10.514-36.167-15.547
		s-24.299-9.915-36.538-14.646c-12.241-4.731-24.539-9.311-36.892-13.739c-12.353-4.427-24.759-8.702-37.218-12.822
		c-12.461-4.121-24.97-8.086-37.527-11.897c-12.557-3.811-25.159-7.465-37.808-10.963c-12.649-3.5-25.338-6.841-38.068-10.026
		c-12.731-3.186-25.499-6.213-38.305-9.082c-12.804-2.869-25.643-5.579-38.515-8.13c-12.875-2.552-25.777-4.943-38.709-7.175
		c-12.93-2.232-25.887-4.303-38.871-6.214c-95.239-13.346-190.867-17.481-286.864-20.183c8.142-33.185,17.56-49.058,47.073-66.833
		c22.554-13.583,87.471-46.986,110.559-50.978c20.401-3.531,54.951,1.677,76.652,3.132c135.463,9.082,271.34,35.775,403.006,68.441
		c64.414,15.981,128.07,34.781,192.562,50.51c7.705,16.014,15.008,29.72,27.202,42.746
		c-17.667-50.723-35.478-100.764-47.905-153.137c-7.561-31.861-13.76-65.276-15.481-97.991
		c-3.767-71.627,10.043-184.95,47.645-245.869c-5.052,40.629-10.292,79.781-8.983,120.856c1.033,32.442,5.752,66.435,14.493,97.787
		c3.923,14.074,9.948,27.89,12.984,42.156c4.357,20.485,4.354,42.252,7.022,63.054c8.642,67.379,32.654,127.004,83.012,173.966
		c78.679,73.376,185.477,111.181,285.082,146.028c16.212,5.672,46.154,19.841,62.638,19.26
		C3621.075,3159.629,3620.566,3157.302,3615.775,3154.443z M3604.726,2512.544c-13.96,45.722-81.977,96.793-122.689,117.946
		c-66.51,34.556-168.507,57.413-241.797,34.101c-2.77-1-4.249-1.605-6.187-3.857c3.983-15.7,70.573-88.498,87.013-103.18
		c2.082,0.339,4.167,0.662,6.255,0.967c101.659,14.874,203.345-17.961,284.531-78.275l0.389,0.425
		C3613.948,2487.472,3606.956,2505.235,3604.726,2512.544z M3632.754,2380.848c-1.917,26.863-1.856,69.75-23.656,88.211
		c-75.296,63.779-184.483,87.705-280.925,79.509c15.167-25.899,107.238-113.822,134.631-136.311c4.1,1.587,8.247,3.216,12.511,4.309
		c31.25,8.016,84.441-10.735,112.349-24.492c15.017-7.402,29.22-16.928,43.444-25.755c0.27,0.231,0.569,0.419,0.779,0.692
		C3634.191,2370.059,3633.023,2377.093,3632.754,2380.848z M3616.014,2300.249c11.708,10.774,15.931,38.787,17.997,53.999
		c-13.655,6.881-26.555,15.532-40.012,22.836c-4.062,2.24-8.18,4.372-12.352,6.396c-4.175,2.026-8.399,3.941-12.673,5.743
		c-4.274,1.802-8.592,3.492-12.954,5.07c-4.362,1.575-8.763,3.035-13.203,4.381c-4.44,1.346-8.911,2.574-13.415,3.686
		c-4.504,1.112-9.033,2.104-13.589,2.977c-4.556,0.875-9.131,1.628-13.727,2.261c-4.596,0.635-9.204,1.148-13.825,1.539
		l-20.781-1.147c39.769-38.859,96.461-85.522,146.708-108.927C3615.027,2299.414,3615.056,2299.371,3616.014,2300.249z
		 M3469.876,2257.671c48.51-5.971,99.65,3.123,139.491,31.996c-82.258,36.859-164.076,119.305-228.843,180.973
		c-23.638,22.728-43.842,48.546-66.582,72.098c-1.008-4.051-1.823-8.14-2.444-12.269c-9.738-62.851,19.683-150.699,57.024-201.057
		C3393.365,2295.907,3427.259,2264.064,3469.876,2257.671z M3454.305,1981.111c-9.639,27.546-24.015,54.065-39.335,78.862
		c-57.248,92.678-125.094,138.329-216.712,191.409c-5.396,3.195-11.127,5.492-16.892,7.926c8.504-36.026,19.308-71.538,30.1-106.932
		c9.663-31.684,18.667-63.039,32.073-93.409c13.908-8.065,27.51-16.616,40.806-25.653c13.297-9.037,26.255-18.538,38.871-28.501
		c12.618-9.964,24.865-20.364,36.739-31.202c11.874-10.838,23.347-22.086,34.418-33.745c13.224-14.149,24.77-29.702,37.682-44.126
		C3440.686,1903.621,3451.092,1966.169,3454.305,1981.111z M3372.002,1795.614c30.531,16.993,46.944,53.981,56.739,85.752
		c-15.014,13.685-27.264,32.146-40.569,47.636c-6.891,7.989-14.037,15.744-21.437,23.264s-15.039,14.789-22.917,21.809
		c-7.879,7.019-15.979,13.771-24.3,20.257c-8.323,6.486-16.849,12.691-25.579,18.617c-15.304,9.568-30.514,19.282-45.63,29.142
		c25.758-72.023,70.894-190.517,112.43-251.427C3364.546,1791.828,3368.519,1793.676,3372.002,1795.614z M3169.415,1893.224
		c34.529-47.809,92.319-95.882,152.074-105.722c10.031-1.291,20.123-0.689,30.205-0.389c-51.029,68.6-82.557,171.05-114.439,250.088
		l-12.825-25.851c-18.892-38.29-36.919-76.694-57.901-113.924C3167.48,1896.015,3168.421,1894.601,3169.415,1893.224z
		 M3158.305,1907.825c9.645,7.891,65.812,125.746,73.487,144.995c-4.989,19.347-13.454,38.308-19.446,57.47
		c-15.202,47.333-29.017,95.066-41.446,143.201c-0.398-0.105-0.814-0.156-1.195-0.315c-13.622-5.686-44.95-65.27-51.478-79.053
		c-7.16-15.11-12.514-30.993-19.88-46.004l-0.862-1.725c2.165-18.341,4.105-37.023,4.339-55.493
		c0.219-17.401-1.467-35.535,0.692-52.798C3107.262,1980.156,3137.712,1939.395,3158.305,1907.825z M3017.946,2650.792
		c-31.172-7.857-109.079-34.385-133.777-52.445c7.238-16.518,15.514-32.544,23.626-48.645c16.197,4.561,31.984,10.885,48.558,13.96
		c28.34,29.028,54.23,61.039,81.339,91.277L3017.946,2650.792z M3044.528,2664.486c17.817,18.2,35.613,41.489,48.588,63.363
		c-68.16-21.435-132.044-58.982-185.77-105.68c10.169,1.704,22.183,8.345,31.924,12.19
		C2973.592,2647.906,3007.313,2662.198,3044.528,2664.486z M2778.775,2457.353c8.396,53.661,22.003,73.289-1.635,128.004
		c-11.831,27.384-35.149,54.406-63.582,65.183c-18.113,6.869-37.263,5.276-54.595-3.105
		c-54.727-26.474-83.51-103.695-101.922-157.497c2.994,31.026,13.526,60.698,24.896,89.492c3.186,7.261,6.908,14.334,10.418,21.446
		c-5.156,13.466-10.142,27.175-17.934,39.392c-10.879,17.063-26.133,29.316-46.285,33.248c-25.761,5.021-51.714-1.321-73.08-16.182
		c-66.698-46.396-106.773-150.906-120.689-228.795c11.127,22.201,19.728,44.875,34.82,64.944
		c19.167,25.48,47.549,48.927,80.141,53.047c1.371,0.182,2.747,0.328,4.126,0.44c1.38,0.114,2.76,0.193,4.141,0.237
		c1.384,0.044,2.767,0.053,4.15,0.027c1.383-0.024,2.765-0.083,4.144-0.177c1.381-0.096,2.759-0.225,4.132-0.386
		c1.374-0.164,2.743-0.36,4.108-0.59c1.364-0.231,2.721-0.497,4.073-0.797c1.35-0.299,2.692-0.632,4.028-0.997
		c1.333-0.367,2.658-0.766,3.974-1.198c1.313-0.431,2.616-0.895,3.908-1.393c1.29-0.499,2.567-1.028,3.833-1.587
		c1.265-0.561,2.515-1.154,3.749-1.779c1.236-0.623,2.454-1.277,3.656-1.962c1.204-0.683,2.388-1.396,3.554-2.141
		c1.168-0.742,2.316-1.514,3.444-2.315s2.236-1.629,3.324-2.485c33.912-26.462,47.01-73.763,52.239-114.538
		c11.708,23.123,25.234,45.708,44.824,63.057c20.584,18.23,44.588,27.172,72.116,25.399c26.483-1.707,48.833-14.361,66.174-34.137
		c39.587-45.141,41.327-103.435,37.317-160.135c4.213,3.219,7.474,9.322,10.553,13.724c12.604,18.018,24.435,34.628,43.611,46.306
		c16.308,9.93,34.933,13.628,53.577,8.828c34.466-8.875,56.296-39.137,73.149-68.319c0.497,10.645,0.602,20.884-1.063,31.454
		c-6.579,41.74-35.488,128.998-60.869,162.105c-11.633,15.173-28.441,31.376-48.256,33.547c-13.433,1.47-26.618-3.734-36.913-12.173
		c-24.123-19.781-36.772-63.273-39.691-93.295c-0.042-0.428-0.072-0.853-0.108-1.281
		C2775.751,2439.309,2777.308,2447.971,2778.775,2457.353z M2979.045,2335.539l3.671,2.111c6.543,3.83,11.864,6.231,19.275,8.022
		c-6.408,64.426-25.411,122.141-57.529,178.266l-2.575,0.524c-6.753-5.722-11.987-13.436-17.455-20.374
		C2949.076,2449.834,2965.345,2393.317,2979.045,2335.539z M2985.618,2234.362c4.381-20.925,5.908-43,8.522-64.237
		c5.414,10.84,10.648,23.246,21.333,29.918c6.163,3.848,13.035,4.638,20.015,2.767c21.417-5.737,34.353-30.133,44.713-47.833
		c1.192,8.208-1.228,17.404-2.854,25.45c-7.54,37.293-28.316,124.195-61.048,144.438c-5.668,3.51-12.205,4.986-18.703,3.132
		c-14.089-4.019-20.461-19.356-26.627-31.163C2970.613,2276.26,2981.405,2254.5,2985.618,2234.362z M2946.498,2549.313l-1.917,1.276
		c-10.307-3.255-20.467-7.25-30.639-10.924l6.471-20.59C2928.654,2525.905,2942.48,2539.701,2946.498,2549.313z M3029.906,2625.301
		l-4.007-4.061c-23.549-29.735-50.178-56.969-73.101-87.124c35.164-61.404,46.034-97.652,60.497-166.639
		c8.295,9.98,14.427,24.875,20.91,36.254l45.133,77.841c-6.07,24.465-11.685,49.031-20.012,72.855
		C3055.302,2565.938,3036.515,2622.099,3029.906,2625.301z M3043.031,2389.499c-8.66-14.334-18.506-27.935-26.738-42.519
		l-0.97-1.743c2.601-2.052,5.169-4.144,7.705-6.276c46.294-39.075,65.3-124.282,70.232-182.686
		c6.354,4.552,17.05,29.115,22.051,37.793c15.212,26.715,32.245,52.212,51.1,76.493c-25.087,88.172-35.906,182.635-44.615,273.637
		c-4.004-7.723-7.103-16.146-10.469-24.177C3092.373,2474.191,3068.663,2431.918,3043.031,2389.499z M3149.301,1896.083
		c-12.217,18.56-23.798,37.508-34.742,56.844c-5.95,10.966-11.265,22.168-16.559,33.46c-4.932-26.941-6.974-54.328-12.634-81.183
		c-4.372-20.742-12.655-41.865-15.718-62.599C3099.985,1856.176,3124.142,1874.766,3149.301,1896.083z M2944.887,1625.013
		c83.491,82.62,142.97,305.962,142.857,422.527c-0.042,42.761-10.48,100.722-42.809,131.741c-4.95,4.749-12.388,10.274-19.719,9.241
		c-25.429-3.581-40.578-122.524-48.495-147.764c-9.124-29.091-35.083-88.903-55.299-110.963l-1.063,0.647
		c6.097,13.122,14.089,25.258,20.362,38.323c25.213,52.499,42.449,111.672,41.141,170.256
		c-1.428,64.144-15.592,161.665-63.965,207.19c-12.301,11.576-28.112,19.045-45.27,18.009
		c-19.626-1.183-34.248-13.023-46.809-27.073c-52.218-58.401-88.157-227.95-92.915-306.932c-0.814-13.493-0.158-26.866,0.587-40.341
		c-15.014,61.33,7.92,177.464,23.968,239.009c4.95,18.979,14.912,37.281,17.371,56.778c4.019,31.909-0.063,67.552-5.626,99.105
		c-3.402,14.918-7.903,29.411-14.32,43.33c-10.618,23.027-28.28,46.456-53.182,54.93c-21.012,7.151-45.86,5.297-65.435-4.902
		c-54.374-28.331-80.617-119.464-92.834-176.215c-3.603-16.726-5.164-36.006-10.017-52.445c-0.505,0.649-1.496,1.617-1.578,2.033
		c-1.204,6.058,4.489,50.564,5.773,59.799c1.979,14.248,4.887,28.792,8.346,42.752c3.147,12.706,9.274,26.696,9.07,39.913
		c-0.293,19.248-7.81,44.492-13.724,62.827c-8.633,26.755-24.432,55.622-50.711,68.45c-17.416,8.501-37.509,8.573-55.67,2.365
		c-36.583-12.505-61.464-47.289-77.814-80.527c-53.197-108.166-70.223-251.109-30.765-366.229
		c30.136,16.185,66.166,19.946,99.859,18.545c99.44-4.132,205.117-48.612,284.105-108.441
		c33.885-25.668,66.321-57.913,94.984-89.358c59.506-65.279,113.241-159.533,119.524-248.774c1.09-15.466-2.488-29.217-3.051-44.414
		l-0.075-2.51C2929.876,1611.7,2937.751,1617.952,2944.887,1625.013z M2297.299,2306.022
		c-57.039-14.916-91.002-39.482-139.754-69.729l-0.251,1.524c17.236,16.23,35.871,30.69,54.739,44.947
		c-16.065,31.618-32.634,58.568-64.072,76.987c-28.289,16.574-62.36,22.905-94.272,14.17c-44.677-12.232-73.173-50.87-95.125-89.031
		c11.478-14.646,19.898-31.172,27.54-48.052c-13.286,14.161-25.8,29.376-39.749,42.869c-31.017,29.998-74.116,56.245-117.374,62.572
		c-26.594,3.89-51.083,0.59-72.978-15.94c-28.423-26.585-38.335-62.677-44.965-99.889c6.588-10.978,14.631-21.21,22.168-31.55
		c-21.722,18.326-44.683,40.497-74.478,42.902c-19.742,1.593-38.419-5.139-53.373-17.955
		c-28.049-24.037-41.192-65.42-43.599-101.105c31.72-7.025,60.647-20.814,85.33-42.12c2.138,1.126,4.3,2.204,6.486,3.234
		c123.489,57.589,274.771,77.841,409.594,59.165c84.722-11.739,167.268-36.958,247.495-65.944l2.186,0.102
		c2.246,4.57-13.005,48.358-14.667,56.368C2286.325,2186.762,2289.433,2248.502,2297.299,2306.022z M1571.317,2012.242
		c-24.12-17.119-46.055-36.664-67.974-56.464c-19.97-19.302-38.039-39.389-54.867-61.488
		c-74.134-97.35-114.592-214.098-97.581-337.095c1.222-8.752,2.732-17.454,4.531-26.106c1.799-8.652,3.882-17.235,6.249-25.75
		c2.366-8.514,5.011-16.941,7.935-25.279c2.925-8.341,6.122-16.575,9.591-24.702c41.012-98.093,114.239-159.715,196.814-221.955
		c1.533,0.515,3.06,1.047,4.582,1.596c101.159,36.089,188.316,109.172,257.065,189.888c15.466,18.156,31.178,36.841,44.225,56.835
		c15.94,24.42,28.247,51.083,40.686,77.389c28.944-25.168,42.701-73.302,58.353-107.558c6.675-14.613,14.457-28.786,22.312-42.797
		c14.637-26.109,29.657-52.819,47.516-76.895c74.017-99.757,187.172-176.775,303.515-218.218c18.29-6.516,37.278-11.4,55.96-16.655
		c0.994-0.198,1.986-0.431,2.992-0.557c20.188-2.575,106.977,62.707,123.824,77.679c102.006,90.639,168.217,229.873,175.925,365.8
		c6.737,118.781-38.994,246.66-118.425,335.248c-95.975,107.034-233.281,169.07-368.061,211.409
		c-69.923,21.968-140.569,39.018-214.011,42.818C1856.661,2137.446,1699.943,2103.528,1571.317,2012.242z M2896.685,1590.975
		c-14.332,8.576-26.615,17.646-37.365,30.57c-25.091,30.166-60.111,113.152-56.431,152.816c3.701-5.234,3.456-13.152,5.719-19.227
		c16.464-44.207,29.178-89.54,60.326-126.372c6.486-7.669,25.156-28.283,35.092-28.31c2.587-0.006,3.354,1.617,5.121,3.267
		c12.331,30.825-7.714,104.174-19.443,134.616c-48.54,126.016-164.707,244.821-287.786,299.742
		c-35.176,16.362-74.098,29.34-111.948,37.88c-49.307,11.13-112.643,18.275-157.751-10.154
		c28.268-18.679,62.928-29.594,93.014-45.668c108.462-57.949,201.102-138.359,254.7-250.562
		c57.658-120.704,60.979-254.313,16.458-379.446c-45.851-128.867-138.485-241.794-262.964-301.054
		c21.192-2.854,42.24-8.007,63.303-11.753c26.998-4.8,53.61-7.289,80.991-8.304c5.422,0.006,10.842,0.089,16.26,0.249
		c48.831,1.56,140.446,18.132,175.577,55.919c28.292,30.43,48.39,67.911,65.719,105.351
		C2892.703,1354.598,2902.042,1456.042,2896.685,1590.975z M1814.362,908.919c186.893-62.14,413.056-79.927,603.016-19.629
		c42.671,13.544,81.018,32.277,120.943,52.214c73.592,36.745,152.996,73.065,236.227,44.719
		c30.05-10.232,54.128-28.849,68.013-57.763c10.256-21.357,16.79-47.241,8.693-70.272c-0.725,15.752-3.066,30.572-8.729,45.375
		c-11.017,28.791-30.636,51.974-59.024,64.58c-14.43,6.408-30.031,9.882-45.594,12.184c-94.9,14.044-169.786-47.534-253.161-79.266
		c32.99-1.329,65.914,1.313,98.958-0.906c5.446-0.397,10.884-0.889,16.314-1.475c5.428-0.586,10.845-1.266,16.251-2.039
		c5.406-0.773,10.797-1.64,16.173-2.6c5.374-0.96,10.731-2.013,16.071-3.158c5.34-1.145,10.658-2.383,15.955-3.712
		c5.296-1.329,10.567-2.75,15.814-4.262c5.248-1.511,10.468-3.113,15.658-4.806c5.192-1.692,10.354-3.474,15.484-5.345
		c5.131-1.871,10.227-3.83,15.29-5.877c5.063-2.047,10.087-4.182,15.074-6.403c4.989-2.221,9.938-4.528,14.847-6.921
		c4.909-2.393,9.775-4.869,14.598-7.43c4.823-2.561,9.6-5.204,14.332-7.931c4.731-2.726,9.415-5.533,14.05-8.421
		c4.634-2.888,9.216-5.856,13.748-8.903c4.531-3.047,9.009-6.171,13.433-9.373c15.916-11.669,30.133-25.683,45.106-38.519
		c9.352-0.06,14.799,1.532,21.587,8.142c28.965,28.207,45.923,96.454,47.217,135.91c3.324,101.419-39.279,202.961-108.091,276.236
		c-15.254-30.472-38.173-59.269-58.718-86.282c6.967-4.597,13.705-9.511,20.212-14.742c39.44-31.4,61.111-70.163,66.878-119.94
		c-22.506,59.138-42.429,88.19-94.859,124.633c-2.104-1.15-4.223-2.271-6.357-3.363c-117.149-59.871-261.842-42.677-382.641-3.042
		c-108.867,35.715-201.15,90.6-282.662,170.909c-22.698,22.363-44.327,45.201-62.282,71.66
		c-42.399,62.476-71.664,130.385-105.528,197.419c-11.562-17.008-19.943-36.55-30.993-54.032
		c-17.916-28.348-41.42-55.194-63.659-80.219c-94.805-106.678-217.482-188.199-363.513-196.865
		c-33.565-0.779-61.009,5.094-92.634,15.628c1.094-2.443,2.245-4.86,3.452-7.25c10.577-20.934,23.267-41.425,38.419-59.374
		c30.247-35.832,69.924-66.124,108.193-92.912C1616.26,992.257,1709.592,943.755,1814.362,908.919z M1210.9,1216.614
		c-29.786-57.524-54.484-158.548-33.685-221.737c6.279-19.072,16.38-35.179,34.706-44.489c6.025-0.662,12.059-1.129,17.994,0.443
		c17.961,4.752,34.879,17.254,50.804,26.501c18.048,10.481,37.143,20.338,56.913,27.076c61.907,21.102,129.184,27.51,194.239,27.962
		c-22.65,16.335-45.459,32.625-66.513,51.02c-14.637,12.783-27.765,27.426-43.027,39.446c-34.891,6.863-76.523,8.825-110.19-4.528
		c-50.109-19.874-73.451-65.309-93.933-111.909c2.324,35.014,18.685,68.564,43.036,93.571
		c27.642,28.39,64.061,41.375,103.153,42.108c16.383,0.003,31.903-1.719,48.013-4.686c-8.6,12.397-16.811,24.875-23.953,38.191
		c-8.25,15.374-14.954,34.628-26.684,47.549c-8.097,3.519-21.276-0.788-29.603-2.863c-37.095-9.241-60.392-32.837-79.707-64.539
		c0.361,2.737,0.857,5.448,1.488,8.133c0.633,2.687,1.397,5.336,2.294,7.947c0.896,2.609,1.922,5.169,3.075,7.678
		c1.152,2.507,2.427,4.951,3.824,7.33c17.895,31.125,45.935,41.467,78.751,50.244c-22.812,24.603-36.332,53.427-49.211,84.07
		C1260.497,1291.092,1231.173,1255.76,1210.9,1216.614z M1273.877,1627.193c-13.981-97.641-6.333-193.505,27.211-286.519
		c9.876-27.387,20.776-54.257,38.518-77.619c25.627-33.736,55.344-41.833,95.688-47.411c39.68-4.458,82.509,3.77,121.27,12.406
		c-14.43,16.224-35.371,28.399-52.217,42.147c-47.594,38.832-91.618,88.534-120.527,142.776
		c-55.263,103.689-66.492,215.84-31.87,328.133c43.402,140.773,150.963,258.236,280.186,326.48
		c-29.184,23.525-62.321,35.544-99.647,38.09c-57.515,3.917-106.33-16.278-149.124-53.855
		c-17.778-16.835-34.203-34.679-46.028-56.29c-21.009-38.401-20.063-79.182-18.024-121.641c0.611-12.711,0.294-26.899,3.797-39.132
		c2.973-0.716,3.462,0.186,5.36,2.767c3.95,5.375,6.878,13.616,10.017,19.605c7.01,13.37,14.927,25.558,24.378,37.329
		c38.608,48.085,89.729,89.894,145.98,115.571c-12.343-8.894-24.935-17.518-37.101-26.648
		c-36.592-27.462-73.023-63.62-99.452-100.83C1325.426,1816.575,1285.411,1707.738,1273.877,1627.193z M1503.225,2597.772
		c-24.555-12.367-47.546-38.464-62.743-60.928c-46.366-68.543-94.418-203.516-121.928-284.588
		c-34.601-101.982-59.668-249.789-31.421-355.164c4.773-17.811,12.002-34.116,20.132-50.591c2.848,21.063-4.468,52.448-3.662,76.209
		c1.821,53.655,27.528,102.264,66.806,138.242c52.229,47.839,107.854,62.344,177.296,59.386
		c4.603,39.093,14.032,68.301,35.832,101.276c-1.728,117.814,33.077,212.496,90.451,313.852
		c-38.072-3.638-68.492-17.182-97.176-42.575c-25.291-22.387-43.324-52.553-57.595-82.839
		c-37.937-80.506-49.205-160.817-54.868-248.657c-0.213,0.308-0.482,0.581-0.632,0.922c-4.258,9.711-3.165,28.13-3.234,39.075
		c-0.452,74.245,13.724,146.27,44.387,213.951c-5.079,7.717-10.367,14.897-19.719,17.443c-12.068,3.285-27.282-3.494-37.389-9.879
		c-73.544-46.432-96.613-188.6-102.599-270.109c-1.08-14.11-1.89-28.236-2.428-42.377c-0.332-10.909,0.922-24.094-1.476-34.652
		l0.207,2.417l-1.764-0.491l0.752,0.698c-1.875,9.133-2.692,18.698-3.881,27.959c-1.026,13.567-1.709,27.151-2.048,40.752
		c-2.045,88.432,19.141,205.064,81.976,270.064c15.472,16.006,38.452,32.203,61.584,31.999c15.071-0.132,24.055-7.678,33.793-17.991
		c12.975,23.24,25.573,46.351,44.71,65.183c36.458,35.877,73.697,54.272,124.779,53.778c6.705,24.351,15.733,50.112,8.95,75.448
		c-2.683,10.016-7.845,19.024-17.257,23.983c-11.534,6.076-25.501,4.827-37.419,0.602
		c-64.294-22.803-104.881-112.852-132.541-170.541c-1.159,10.663,19.111,59.365,24.306,70.852
		c5.348,11.831,13.769,25.204,16.595,37.784c-2.83,6.109-7.75,10.067-14.059,12.421
		C1521.075,2603.995,1511.433,2601.905,1503.225,2597.772z M1525.645,2619.318c11.056-5.297,18.931-11.205,27.369-19.91
		c5.911,2.503,11.66,11.693,15.952,16.607c19.269,22.075,45.627,49.433,76.368,53.188c19.563,2.386,33.544-5.079,48.112-16.961
		c11.505,20.18,28.852,38.656,43.752,56.374c-13.685,0.884-26.962,2.764-40.395,5.504c-28.037,5.989-52.741,17.614-77.5,31.727
		C1580.171,2711.292,1549.804,2665.286,1525.645,2619.318z M1699.905,2575.593c10.394,6.486,40.581,53.876,52.822,68.16
		c19.222,22.752,39.618,44.4,61.186,64.944c13.861,13.173,32.092,24.98,43.285,40.231l-0.509,1.97l-4.923,0.132
		c-15.886,0.566-32.13,4.025-47.813,6.684c-41.982-37.275-69.22-69.741-101.901-115.206
		C1708.415,2618.946,1705.875,2598.868,1699.905,2575.593z M1271.942,2325.902c7.282,8.732,12.095,24.845,16.011,35.55
		c21.126,57.778,32.032,113.823,27.13,175.619c-7.345,92.631-47.094,166.073-117.332,225.869l-12.083,9.268
		c-0.997-25.231-5.956-51.439-11.529-75.99c15.667-6.54,27.244-17.853,38.066-30.678c59.263-70.232,86.875-171.154,74.379-262.171
		c-3.546-25.839-14.823-53.73-16.601-78.116c-0.036-0.485-0.054-0.967-0.081-1.452
		C1270.583,2324.501,1271.317,2325.151,1271.942,2325.902z M1265.477,2347.537c3.701,6.495,4.974,17.889,6.384,25.27
		c10.157,53.134,9.427,110.139-4.857,162.449c-1.529,5.666-3.213,11.285-5.052,16.859c-1.839,5.574-3.829,11.093-5.971,16.557
		s-4.432,10.865-6.869,16.203c-2.437,5.338-5.021,10.605-7.75,15.802c-2.727,5.196-5.595,10.314-8.603,15.353
		c-3.01,5.039-6.156,9.992-9.435,14.859c-3.282,4.865-6.694,9.637-10.235,14.317c-3.544,4.677-7.213,9.255-11.008,13.732
		c-6.133,7.375-14.574,18.293-23.147,22.782c-3.024,1.581-2.953,1.533-6.315,0.353l-1.359-3.102
		c-5.851-23.324-13.337-47.151-17.14-70.864c-2.476-15.454-2.593-31.747-3.459-47.378c58.697-41.368,98.898-145.729,114.026-214.32
		C1264.95,2346.786,1265.25,2347.139,1265.477,2347.537z M986.268,2634.479c19.608-90.034,15.362-148.861-14.343-235.679
		c34.077,13.771,97.38,69.028,113.256,102.339c27.983,58.724,34.161,160.602,12.867,222.321L986.268,2634.479z M1086.953,2731.664
		c-43.938,13.604-93.676,16.913-139.141,10.475c-86.05-12.184-177.542-64.794-230.031-134.766
		c17.611,5.941,33.86,16.464,51.61,22.632c61.514,21.377,133.72,21.997,196.184,4.477c28.126,21.276,55.913,42.986,83.363,65.129
		C1061.542,2709.849,1075.727,2719.958,1086.953,2731.664z M1102.028,2523.007c5.995,7.465,10.184,17.607,14.299,26.3
		c26.306,55.598,40.554,115.718,50.795,176.056c2.12,12.505,5.459,26.447,5.198,39.125c-0.075,3.596-0.165,5.77-2.899,8.277
		l-5.079-2.302c-17.997-13.816-37.958-25.908-56.892-38.434C1129.598,2662.462,1123.773,2591.787,1102.028,2523.007z
		 M1258.461,2303.585c1.518,13.76-2.294,29.361-4.983,42.788c-0.844,4.264-1.754,8.515-2.728,12.753
		c-0.974,4.238-2.013,8.459-3.117,12.664c-1.102,4.206-2.269,8.394-3.501,12.565c-1.232,4.17-2.526,8.321-3.884,12.451
		c-1.356,4.13-2.775,8.239-4.258,12.325c-1.483,4.088-3.028,8.153-4.635,12.194c-1.607,4.039-3.275,8.053-5.004,12.043
		c-1.729,3.989-3.518,7.95-5.369,11.885c-1.849,3.935-3.758,7.84-5.728,11.717c-1.968,3.877-3.996,7.723-6.082,11.538
		c-2.086,3.813-4.23,7.594-6.432,11.343c-2.202,3.749-4.46,7.464-6.773,11.146c-2.316,3.681-4.686,7.325-7.112,10.933
		c-2.427,3.607-4.908,7.178-7.441,10.711c-2.535,3.531-5.125,7.024-7.768,10.478c-2.641,3.453-5.334,6.866-8.079,10.238
		c-4.968,5.441-10.499,10.454-15.79,15.583c-3.587-47.606-11.846-95.029-14.451-142.632c43.099-65.42,62.324-101.617,83.096-176.481
		C1228.373,2240.276,1256.931,2289.738,1258.461,2303.585z M1117.467,2151.529c40.114,7.582,70.687,35.598,92.888,68.379
		c-6.6,41.569-27.39,85.791-45.815,123.477c-8.971,16.506-20.536,31.771-31.244,47.184c-8.034-37.856-10.822-86.896-14.589-125.95
		c-3.659-37.916-9.022-76.098-11.696-114.035C1110.547,2150.619,1113.984,2150.873,1117.467,2151.529z M1087.885,2154.907
		c1.734-0.003,3.099,0.461,4.758,0.922c2.042,3.327,2.991,6.046,3.677,9.906c6.471,36.35,7.953,73.703,11.634,110.412
		c4.21,41.988,10.448,83.815,15.023,125.788c-14.814-13.523-30.349-26.261-45.168-39.814c-7.267-7.271-14.277-14.782-21.03-22.533
		c-6.752-7.752-13.231-15.725-19.437-23.92c-6.207-8.195-12.126-16.592-17.757-25.192c-5.63-8.6-10.96-17.383-15.99-26.348
		C1017.596,2222.096,1048.37,2176.455,1087.885,2154.907z M997.06,2276.332c32.607,52.011,74.37,102.033,126.776,134.82
		c2.608,21.308,4.186,42.844,6.678,64.201c4.078,34.93,8.929,70.1,10.193,105.27c-2.899-9.121-6.07-18.086-9.409-27.058
		c-35.026-78.628-89.732-130.801-164.495-170.894C970.981,2346.205,984.145,2310.493,997.06,2276.332z M807.21,2362.617
		c49.989-2.452,101.608,9.876,147.718,28.304c34.11,79.216,41.12,152.313,23.279,236.607l-17.616-17.601
		c-21.854-20.009-47.076-35.955-67.84-57.215c-4.768-28.651-10.009-57.018-20.908-84.094
		c-23.214-57.67-58.216-79.512-112.933-102.503C774.982,2364.562,791.082,2363.396,807.21,2362.617z M735.358,2372.589
		c21.05-0.539,51.888,14.389,69.293,26.016c52.039,34.766,66.61,91.046,77.86,148.932c-8.65-8.357-18.229-15.859-27.476-23.552
		c-52.403-42.449-113.85-97.272-174.597-125.504C697.313,2384.827,714.515,2378.024,735.358,2372.589z M674.253,2407.415
		c37.306,19.06,71.12,47.639,104.576,72.72c15.095,11.319,33.225,22.773,46.277,36.332l-2.163,1.635
		c-31.235-0.027-64.613-5.306-94.28-14.927c-15.317-4.965-51.029-16.134-58.083-31.726
		C663.5,2455.802,668.033,2422.782,674.253,2407.415z M674.166,2488.789c49.493,27.286,105.949,43.285,162.914,37.452
		c14.844,11.846,116.588,90.993,119.363,99.18l-2.701,1.838c-3.52,0.888-7.055,1.707-10.606,2.456
		c-68.239,14.275-168.218,3.722-227.246-35.583C685.789,2574.086,680.726,2522.099,674.166,2488.789z M1094.368,2811.861
		c-81.21,21.3-171.355,0.752-242.687-40.916c-51.942-30.34-123.668-96.473-139.585-156.272c2.211,1.823,1.385,0.913,3.053,3.174
		c28.82,39.036,68.698,70.487,110.813,94.095c88.612,49.666,175.661,55.793,272.28,28.373c21.042,15.17,44.408,26.989,64.785,42.979
		c-4.698,3.261-9.774,6.01-14.724,8.876C1131.155,2800.27,1112.709,2807.052,1094.368,2811.861z M1216.311,2835.754
		c-20.776-9.861-40.515-20.871-60.234-32.693c11.247-5.417,22.126-10.804,32.568-17.698c14.613,1.285,55.362,18.518,72.157,24.447
		c90.175,31.834,169.247,57.251,266.172,50.523c-4.098,12.778-7.098,25.81-8.998,39.096c-18.826,3.725-37.2,9.971-55.457,15.784
		c-24.309,8.333-55.619,15.281-76.775,30.025c-0.779,0.542-1.545,1.102-2.318,1.653c-2.144-2.183-4.366-4.3-6.483-6.507
		c-8.816-9.193-19.458-12.418-29.238-19.898c-6.076-4.645-2.662-10.379-4.036-16.763
		C1339.156,2882.737,1237.506,2845.815,1216.311,2835.754z M1164.842,2910.574c46.737-4.908,126.474,1.542,169.199,18.389
		c14.053,5.543,25.348,13.442,37.398,22.465c-22.674,0.162-43.62,4.378-65.369,10.579c-22.303,7.717-41.656,18.491-61.518,30.996
		c-39.123-37.386-73.191-55.88-122.018-77.919C1136.602,2913.023,1150.685,2911.79,1164.842,2910.574z M1371.286,2965.498
		c-5.384,17.293-13.64,34.179-20.497,50.966c-8.63,21.437-16.757,43.062-24.381,64.878c-54.574,10.253-103.704,38.982-148.19,70.846
		c-5.692,4.282-11.786,7.492-18.033,10.861c9.804-41.051,21.006-75.796,45.698-110.63c34.227-48.289,83.698-77.009,141.62-86.624
		C1355.401,2964.726,1363.348,2965.262,1371.286,2965.498z M1108.687,2919.5c0.581-0.027,1.171-0.189,1.743-0.081
		c5.169,0.958,13.388,6.402,18.401,8.819c39.754,19.159,75.236,39.68,106.588,71.355c-17.158,15.434-33.361,32.011-47.013,50.654
		c-18.683-11.049-37.576-21.728-56.679-32.035c-51.681-25.016-101.62-32.673-158.236-36.514
		C1019.563,2951.894,1052.565,2928.391,1108.687,2919.5z M960.731,2991.08c82.153,1.928,152.095,22.923,220.335,69.325
		c-14.128,23.686-40.979,29.073-65.408,38.269c-11.746,4.13-23.553,8.077-35.422,11.84c-46.875-32.232-120.368-46.938-176.48-54.487
		C920.066,3033.368,939.027,3008.642,960.731,2991.08z M899.436,3065.142c54.854,14.646,116.671,17.616,165.499,49.387
		c-19.359,6.154-39.167,10.732-58.967,15.203c-45.656,9.708-91.502,19.646-138.13,23.153
		C869.888,3122.456,882.276,3090.205,899.436,3065.142z M895.636,3204.902c-5.993-4.962-11.43-9.966-16.346-16.051
		c-5.079-6.288-11.331-14.274-10.505-22.698c0.699-0.839,1.162-1.949,2.096-2.516c3.952-2.389,45.67-5.408,53.779-6.767
		c43.41-6.967,86.313-16.267,128.711-27.899l0.784,1.791c-23.854,41.273-69.618,80.563-112.086,100.976
		C925.678,3223.893,910.227,3215.799,895.636,3204.902z M972.957,3244.004c-5.974-1.617-11.849-4.294-17.631-6.522
		c35.769-17.08,64.471-43.794,88.28-75.257c8.576-11.337,18.173-28.366,30.25-36.035c18.14-11.517,49.965-17.952,71.017-24.453
		l1.812,0.198c0.991,5.851-12.601,28.732-14.721,37.167c-8.516,33.864-12.783,70.496-9.681,105.234
		C1073.272,3260.632,1022.129,3257.961,972.957,3244.004z M1133.137,3241.471c-0.686-1.734-1.156-3.387-1.375-5.247
		c-4.533-38.248,8.423-111.708,33.188-142.542c0.126,0.434,0.318,0.856,0.38,1.306c0.755,5.503-8.417,26.51-10.585,33.514
		c-7.211,23.294-13.736,49.457-15.26,73.942C1138.689,3215.233,1142.246,3231.517,1133.137,3241.471z M1158.964,3181.411
		c43.021-40.919,103.522-71.211,160.201-87.235l2.273,0.389c2.18,7.205-7.282,24.746-9.666,32.427
		c-11.651,37.568-20.62,76.023-30.01,114.208c-50.478,16.551-86.091,52.724-122.767,89.403
		C1152.14,3291.266,1145.968,3218.3,1158.964,3181.411z M1234.002,3466.891c-16.335-5.875-25.848-14.463-36.371-27.72
		c-18.404-29.417-27.941-60.06-35.718-93.589c28.516-36.137,70.31-72.825,113.256-89.945c1.746-0.069,0.56-0.117,3.462,0.838
		c0.114,15.119-10.63,38.548-14.227,54.101C1252.493,3362.082,1243.86,3414.919,1234.002,3466.891z M1289.69,3452.233
		c-14.322,7.878-26.507,12.239-42.641,14.87c4.021-26.294,9.84-52.511,14.894-78.643c8.741-45.214,17.482-90.75,30.475-134.969
		c0.452,0.371,0.916,0.734,1.359,1.117c41.027,35.505,52.4,96.793,56.55,148.103
		C1335.542,3422.755,1310.337,3438.874,1289.69,3452.233z M1376.443,3374.865c-5.094,6.771-10.732,13.182-16.164,19.686
		c-0.429-4.33-0.924-8.653-1.485-12.969c-6.492-50.28-20.401-107.229-62.752-140.015c9.936-48.819,22.644-99.931,39.221-146.827
		c3.641,2.201,6.839,4.899,10.035,7.693c40.479,35.427,61.129,92.573,75.233,143.003c4.028,14.4,8.531,29.49,9.591,44.429
		C1415.494,3319.581,1396.709,3348.777,1376.443,3374.865z M1464.043,3089.154c9.909,49.723,1.737,97.506-12.523,145.267
		c-3.27,10.951-6.076,24.297-12.442,33.789l-1.497-0.024l-1.231-5.803c-11.157-62.985-43.554-139.449-96.08-178.308
		c13.08-39.796,29.66-77.637,44.507-116.709c2.386,1.178,4.707,2.472,6.965,3.884
		C1429.053,2994.895,1455.637,3046.974,1464.043,3089.154z M1444.234,3006.13c-4.881-6.959-10.22-13.595-15.436-20.302
		c-10.855-13.173-22.147-22.297-35.895-32.448c39.722-14.26,79.668-29.714,120.599-40.111c3.647,3.704,2.186,18.847,3.06,24.992
		c1.979,13.876,6.216,26.701,11.193,39.758C1500.797,2989.041,1472.017,2997.287,1444.234,3006.13z M1622.875,3026.693
		c-4.908,4.411-12.795,3.159-18.862,2.878c-11.277-2.096-20.326-6.363-29.468-13.191c-24.977-18.652-38.299-50.555-42.378-80.698
		c-6.064-44.827,11.894-90.897,39.057-126.034c37.461-48.453,95.146-78.518,155.532-86.294c7.926-0.721,16.008,1.414,23.665,3.222
		c4.456,3.986,8.579,8.361,12.789,12.61c-9.208-0.192-18.236,0.078-27.295,1.814c-46.618,8.929-86.25,41.09-112.25,79.76
		c-30.022,44.647-41.318,112.328-18.754,162.623c4.881,10.879,18.967,26.145,19.85,37.727
		C1624.935,3023.399,1624.576,3025.163,1622.875,3026.693z M1835.224,3015.649c-5.579,10.178-14.835,18.778-26.205,21.86
		c-15.083,4.087-32.083-0.5-45.1-8.498c-22.698-13.948-37.754-40.958-43.387-66.456c-10.05-45.498,5.764-97.865,30.148-136.245
		c7.917-11.726,16.886-20.153,27.792-29.1c-7.69,3.315-14.73,7.977-21.219,13.25c-31.792,25.821-49.492,69.505-53.298,109.501
		c-4.078,42.886,9.331,76.907,36.455,109.573c-9.651,9.627-19.44,16.275-33.352,17.697c-17.829,1.823-36.299-5.848-50.103-16.709
		c-25.98-20.443-43.063-53.209-46.974-85.785c-5.573-46.402,4.582-93.864,33.727-130.951
		c25.719-32.729,60.401-54.104,101.875-59.015c30.295-2.47,36.302,7.265,61.246,16.233l1.874,0.656
		c23.615-5.465,49.627-9.705,73.391-2.737c27.022,7.923,46.297,28.148,59.479,52.173c-1.198,5.656-2.273,12.026-5.126,17.101
		c-15.356,27.301-63.231,26.752-84.486,62.443C1831.2,2935.5,1854.931,2979.689,1835.224,3015.649z M1866.007,2960.995
		c-2.39,0.06-4.57-0.276-6.929-0.596c-4.662-5.39-2.231-29.016-2.842-37.377c3.168-7.214,6.815-14.107,12.065-20.045
		c14.535-16.446,60.207-40.009,81.377-45.109c8.262-1.988,17.341-2.096,25.803-2.68c1.836-0.069,0.575-0.099,3.725,0.68
		c1.77,5.794-2.713,34.601-2.602,43.51c0.243,19.82,3.429,37.805,8.612,56.898
		C1945.512,2958.645,1905.776,2960.218,1866.007,2960.995z M1950.28,2809.849c14.814,1.946,29.544,5.51,44.33,7.893
		c-3.743,7.373-6.726,15.11-9.867,22.755l-0.665,0.518c-10.987,0.767-21.695,2.306-32.544,4.144
		C1953.73,2832.499,1954.086,2822.219,1950.28,2809.849z M2140.321,3335.829c-17.027,9.933-33.344,10.75-52.05,5.932
		c-17.901-7.336-31.196-20.796-40.907-37.221c-43.189-73.059-26.83-203.252-6.387-283.027c4.968,1.824,10.01,3.767,15.155,5.034
		c20.237,4.986,34.631,0.362,51.624-10.25c2.327,0.314,25.782,18.961,32.047,22.117c6.264,3.156,13.781,4.216,20.623,5.537
		c-16.892,78.937-21.803,197.706,3.126,274.574C2156.165,3324.651,2148.63,3330.981,2140.321,3335.829z M2300.192,3401.662
		c-29.906,5.776-54.942-0.584-79.799-17.461c-8.217-6.836-15.442-13.816-21.905-22.365
		c-54.948-72.697-45.525-230.999-33.319-318.114c0.419-0.033,0.838-0.063,1.258-0.102c20.835-1.935,33.822-5.836,47.735-22.366
		c16.173,10.247,33.448,16.449,52.858,13.257c20.853-3.426,34.37-17.491,46.297-33.673c3.258,12.194-4.525,55.065-5.007,70.55
		c-3.012,96.218,9.304,205.68,56.817,290.861C2346.699,3382.007,2327.298,3396.428,2300.192,3401.662z M2826.597,3037.135
		c24.052,18.266,45.809,77.691,50.148,107.576c5.582,38.422-0.365,75.059-23.689,106.564c-7.893,9.184-17.042,17.083-28.486,21.467
		c-19.623,7.522-37.712,2.56-56.074-5.345c-12.69-92.355-68.139-189.37-109.01-273.116
		C2689.166,3000.336,2808.052,3023.049,2826.597,3037.135z M2647.16,2993.451c20.419,27.435,33.044,65.133,46.959,96.383
		c14.607,32.798,31.064,65.71,42.36,99.805c7.522,22.713,13.957,46.156,15.161,70.157c1.59,31.717-8.429,54.895-29.334,78.144
		c-14.846,13.786-31.648,23.932-51.954,27.097c-22.914,3.572-45.528-3.225-64.013-16.763c-15.898-11.639-27.417-27.45-37.006-44.465
		c-23.671-42-38.398-90.337-52.9-136.134c-20.207-63.827-39.632-128.672-49.948-194.91
		C2525.69,2975.829,2589.439,2979.602,2647.16,2993.451z M2463.312,2973.044c0.782,28.313,8.783,58.784,14.631,86.459
		c19.593,92.67,41.62,187.229,92.089,268.582c-7.741,23.531-16.517,39.788-34.002,57.56c-1.21,1.066-2.433,2.117-3.668,3.153
		c-20.874,17.628-48.516,28.867-76.11,25.89c-28.028-3.024-54.82-22.285-71.867-44.064c-55.437-70.828-71.382-215.96-70.175-305.39
		c0.446-33.026,3.833-66.037,7.783-98.808C2369.044,2967.079,2416.554,2967.552,2463.312,2973.044z M2329.301,2899.428
		c-8.417,10.232-13.792,24.408-16.981,37.164c-5.229,20.896-5.303,43.995-17.76,62.375c-7.259,10.714-17.593,18.649-30.63,20.5
		c-13.879,1.967-29.555-2.036-40.62-10.645c-23.521-18.305-38.143-50.906-40.958-80.093c-3.656-37.946,13.657-79.671,37.76-108.349
		c23.875-28.408,46.839-38.862,82.003-47.414c5.225-1.27,10.4-4.21,15.73-4.489c0.758-0.042,1.515-0.036,2.273-0.054l-0.955-0.479
		l0.003-1.375c-2.938-0.072-4.552,0.048-7.327,1.123c-7.849,3.042-17.461,3.285-25.791,5.378
		c-26.555,6.666-54.071,21.877-73.694,40.982c-30.888,30.067-45.923,68.882-46.459,111.421
		c4.061,33.918,16.071,59.805,37.392,86.378c-3.237,2.824-6.45,5.797-9.992,8.235c-10.061,6.92-23.324,9.37-35.263,7.294
		c-21.132-3.671-37.623-19.641-49.445-36.628c-24.746-35.559-29.963-80.045-22.033-121.967
		c8.507-44.971,32.361-77.323,69.543-102.92c-2.992,1.168-5.938,2.444-8.836,3.827c-32.382,15.763-59.71,48.136-71.682,81.884
		c-12.792,36.071-12.4,81.413,2.707,116.592c4.608,10.732,13.607,22.237,16.832,32.978c1.036,3.441-0.182,4.932-1.566,8.028
		c-4.465,3.941-8.238,5.249-14.206,5.681c-17.581,1.264-34.706-5.372-47.797-16.937c-24.573-21.701-36.496-58.823-38.802-90.693
		c-2.926-40.413,8.573-81.863,35.478-112.691c44.165-50.597,113.673-65.677,177.811-69.606c17.802-1.354,35.996-0.65,53.757,0.946
		c71.205,6.399,167.63,39.62,214.828,96.113C2434.446,2837.129,2356.227,2866.693,2329.301,2899.428z M2488.672,2818.455
		c-13.867-12.158-27.073-25.127-41.515-36.616c-71.9-57.209-178.338-80.06-268.48-69.591
		c-50.948,5.914-106.426,22.126-145.441,56.985c-11.613,10.375-21.075,22.354-30.711,34.508c-20.809-1.884-46.606-6.45-65.546-15.41
		c-8.651-4.09-16.107-10.615-23.848-16.152c-25.729-18.404-49.112-36.44-72.541-57.733
		c-135.493-123.156-240.877-299.018-249.675-485.174c14.349,7.384,24.863,16.724,41.051,21.192
		c25.058,6.917,47.292-0.093,68.983-12.211c2.387,30.361,13.098,61.794,32.81,85.426c16.658,19.973,38.718,30.615,64.438,32.834
		c58.583,5.055,108.214-25.273,151.208-61.521c20.344,36.565,47.558,71.229,86.842,88.412c31.756,13.885,66.459,12.667,98.287-0.243
		c42.027-17.041,70.747-50.412,88.214-91.529c25.408,13.709,48.453,25.612,77.832,27.303c3.138,14.724,7.31,29.238,10.02,44.058
		c10.433,56.99,14.086,103.246,34.385,159.077c5.879,15.861,12.782,31.261,20.71,46.202c5.884,10.969,13.071,22.048,17.542,33.676
		c5.639,14.673,8.391,30.741,13.206,45.761c15.296,47.717,37.877,88.214,69.666,126.744c13.137,15.7,26.986,30.271,41.848,44.315
		L2488.672,2818.455z M2534.104,2821.402c-22.983-16.299-65.483-59.683-78.847-83.354c-17.497-13.844-45.393-89.385-54.095-112.274
		c15.691,18.847,30.992,36.952,52.101,49.975c22.593,13.936,50.094,20.713,76.293,14.358c28.714-6.962,46.609-25.109,61.629-49.576
		c-1.806,25.558-2.467,50.475-1.123,76.077c3.716,39.123,12.502,73.251,26.339,109.96
		C2588.996,2824.407,2561.563,2822.685,2534.104,2821.402z M2686.528,2834.272c-18.733-0.865-37.598-3.839-56.272-5.746
		c-8.543-23.462-16.284-46.289-20.842-70.936c-7.294-43.716-12.31-94.999-5.824-138.991c18.177,25.501,42.506,46.723,74.346,52.157
		c22.456,3.833,44.663-1.497,63.159-14.721c41.063-29.352,55.942-72.697,63.605-120.332c11.78,9.66,25.923,17.835,41.494,18.413
		c21.824,0.809,39.395-12.014,54.508-26.115c0.03,0.569,0.126,1.138,0.087,1.707c-0.778,11.957-15.062,31.592-20.578,42.432
		C2824.866,2680.908,2772.918,2748.984,2686.528,2834.272z M3148.385,2942.486c-44.345-11.882-88.148-25.74-132.457-37.793
		c-29.831-6.848-59.125-16.326-89.001-23.24c-42.608-9.861-85.402-19.733-128.361-27.953c-31.478-6.025-63.171-10.69-94.712-16.338
		c16.137-21.761,38.281-40.129,56.392-60.398c45.324-50.732,82.677-103.24,114.227-163.489
		c18.236,11.756,33.978,30.127,51.723,43.138c55.245,40.497,114.757,66.737,179.386,88.624c3.441,25.192,6.004,50.531,10.879,75.499
		C3124.522,2861.818,3136.754,2902.108,3148.385,2942.486z M3105.95,2720.321l-12.87-17.919
		c-16.688-22.498-34.14-51.05-56.58-68.041c26.366-36.966,39.922-94.691,50.648-138.089c14.996,16.607,24.201,64.093,37.524,84.525
		C3112.894,2626.375,3107.69,2673.376,3105.95,2720.321z M3134.481,2554.694c-0.895,0.973-0.216,0.395-2.489,0.985l2.171-0.793
		l-2.907-1.114c-5.752-51.607,30.049-229.472,47.872-281.77c77.093-33.334,163.138-92.708,214.271-159.901
		c24.279-31.909,42.986-67.48,62.77-102.222c0.518,0.818,1.156,1.572,1.551,2.455c2.357,5.27,1.893,25.633,2.3,32.448
		c3.677,61.539,5.435,149.091-26.525,203.141c-35.059,18.068-73.813,27.797-109.486,44.426
		C3219.162,2341.222,3171.448,2452.517,3134.481,2554.694z M3187.004,2719.686l-1.551-0.581l-1.614-4.45
		c-23.291-77.197-20.201-194.996,13.553-269.307c42.294-93.11,120.605-139.853,212.699-174.427l0.443,1.599
		c-14.882,13.107-30.642,25.516-43.578,40.644c-57.622,67.384-72.756,156.353-66.573,242.099
		c-26.04,32.678-54.784,65.234-77.553,100.275c-12.678,19.512-22.551,40.443-34.02,60.617l-1.904,0.125
		c-0.042,0.249-0.132,0.494-0.126,0.749C3186.807,2717.919,3186.929,2718.803,3187.004,2719.686z M3227.888,2670.676
		c32.523,13.93,64.794,15.952,99.895,13.876c95.997-5.681,191.035-46.552,255.338-119.099l0.859,0.862
		c0.024,1.728-0.195,2.896-0.97,4.453c-6.672,13.382-15.413,25.746-23.743,38.123c-42.779,63.537-101.036,114.017-175.367,136.838
		c-55.865,17.152-134.958,28.37-188.424,0.275c-1.608-1.91-3.345-3.764-3.851-6.312
		C3188.957,2726.223,3218.356,2682.201,3227.888,2670.676z"/>
	<path d="M2116.754,1587.037c0.086,2.292,0.2,4.581,0.341,6.866c0.142,2.288,0.313,4.573,0.512,6.857
		c6.866,71.406,37.67,134.802,93.283,180.632c52.155,42.982,112.912,60.65,179.895,57.949
		c74.697-8.474,139.395-41.063,186.606-100.269c1.364-1.713,2.706-3.443,4.028-5.189s2.621-3.51,3.899-5.288
		c1.278-1.779,2.532-3.573,3.764-5.384c1.232-1.809,2.441-3.633,3.629-5.474c1.186-1.841,2.349-3.696,3.489-5.567
		c1.14-1.869,2.257-3.751,3.351-5.647c1.094-1.899,2.164-3.81,3.21-5.734c1.044-1.922,2.065-3.859,3.063-5.809
		c0.996-1.951,1.968-3.912,2.917-5.884c0.948-1.974,1.871-3.961,2.77-5.959c0.898-1.996,1.772-4.004,2.62-6.022
		c0.848-2.018,1.672-4.048,2.47-6.088c0.797-2.04,1.568-4.089,2.315-6.148c0.747-2.058,1.467-4.125,2.162-6.202
		c0.695-2.078,1.364-4.163,2.006-6.255c0.643-2.094,1.26-4.195,1.851-6.303c0.591-2.108,1.155-4.224,1.692-6.348
		c0.537-2.122,1.048-4.251,1.533-6.387c0.483-2.136,0.94-4.277,1.372-6.423c0.429-2.148,0.833-4.3,1.21-6.456
		c0.377-2.158,0.728-4.32,1.051-6.486c0.323-2.166,0.619-4.336,0.886-6.51c0.269-2.172,0.511-4.348,0.724-6.528
		c0.214-2.18,0.401-4.361,0.56-6.543c0.16-2.186,0.292-4.372,0.398-6.558c0.106-2.188,0.184-4.377,0.234-6.567
		c0.05-2.188,0.073-4.377,0.069-6.567c-0.004-2.19-0.035-4.38-0.093-6.57c-0.06-2.188-0.146-4.376-0.26-6.564
		c-0.114-2.186-0.255-4.371-0.422-6.555c-0.168-2.182-0.363-4.363-0.587-6.543c-0.221-2.178-0.471-4.353-0.749-6.525
		c-8.672-71.445-45.384-142.216-102.318-186.767c-44.3-34.661-107.055-60.629-164.267-54.17
		c-72.478,6.507-136.61,39.308-183.363,95.472c-1.481,1.749-2.941,3.516-4.381,5.3c-1.438,1.785-2.853,3.586-4.246,5.405
		c-1.394,1.819-2.765,3.655-4.114,5.51c-1.348,1.853-2.672,3.722-3.974,5.609c-1.304,1.885-2.583,3.786-3.839,5.704
		c-1.254,1.917-2.484,3.849-3.692,5.797s-2.392,3.911-3.552,5.887c-1.158,1.979-2.292,3.97-3.402,5.974
		c-1.11,2.006-2.196,4.024-3.258,6.055c-1.06,2.032-2.094,4.078-3.102,6.136c-1.01,2.056-1.994,4.125-2.952,6.207
		c-0.958,2.082-1.892,4.175-2.8,6.279c-0.906,2.106-1.787,4.222-2.641,6.348c-0.854,2.126-1.683,4.263-2.485,6.411
		c-0.802,2.146-1.578,4.302-2.327,6.468c-0.749,2.166-1.47,4.341-2.165,6.525c-0.695,2.184-1.363,4.376-2.003,6.576
		c-0.641,2.202-1.255,4.41-1.842,6.624c-0.587,2.216-1.146,4.439-1.677,6.669c-0.531,2.23-1.035,4.466-1.512,6.708
		c-0.475,2.242-0.923,4.489-1.344,6.741c-0.421,2.254-0.814,4.512-1.18,6.774c-0.365,2.262-0.703,4.528-1.012,6.8
		c-0.309,2.27-0.591,4.544-0.844,6.821c-0.251,2.278-0.476,4.558-0.674,6.842c-0.196,2.284-0.365,4.57-0.506,6.857
		c-0.14,2.288-0.252,4.577-0.335,6.866c-0.084,2.29-0.14,4.581-0.168,6.872c-0.026,2.292-0.025,4.583,0.003,6.875
		C2116.611,1582.457,2116.668,1584.748,2116.754,1587.037z M2129.029,1573.215c0.036-2.184,0.1-4.367,0.192-6.549
		c0.09-2.182,0.206-4.363,0.347-6.543c0.144-2.18,0.313-4.358,0.509-6.534c0.196-2.176,0.418-4.349,0.668-6.519
		c0.248-2.17,0.522-4.337,0.823-6.501c0.302-2.164,0.629-4.324,0.982-6.48c0.354-2.154,0.733-4.305,1.138-6.453
		c0.405-2.146,0.836-4.287,1.294-6.423c0.457-2.136,0.94-4.266,1.449-6.39c0.509-2.124,1.044-4.242,1.605-6.354
		c0.561-2.11,1.147-4.214,1.758-6.312c0.611-2.096,1.248-4.186,1.91-6.267c0.661-2.082,1.348-4.155,2.06-6.219
		c0.713-2.066,1.45-4.122,2.213-6.169c0.76-2.048,1.547-4.086,2.36-6.112c0.811-2.028,1.646-4.047,2.506-6.055
		s1.746-4.005,2.656-5.992c0.908-1.986,1.841-3.962,2.797-5.926c0.956-1.962,1.937-3.914,2.941-5.854
		c1.004-1.94,2.032-3.868,3.084-5.782c1.05-1.917,2.123-3.819,3.219-5.708c1.098-1.889,2.218-3.764,3.36-5.627
		c36.026-58.191,93.754-102.653,160.94-117.985c3.553-0.814,7.125-1.54,10.714-2.177c3.589-0.639,7.192-1.189,10.807-1.65
		c3.617-0.461,7.243-0.833,10.876-1.114c3.635-0.281,7.275-0.474,10.921-0.578c3.643-0.104,7.287-0.117,10.933-0.039
		c3.643,0.076,7.284,0.242,10.921,0.497c3.637,0.255,7.266,0.6,10.885,1.033c3.619,0.435,7.226,0.958,10.819,1.569
		c3.593,0.613,7.17,1.313,10.729,2.099c3.561,0.788,7.1,1.664,10.615,2.626c3.516,0.962,7.006,2.01,10.472,3.144
		c3.464,1.134,6.898,2.352,10.304,3.653c3.404,1.303,6.774,2.69,10.112,4.16c3.336,1.469,6.634,3.019,9.894,4.65
		c3.26,1.631,6.478,3.342,9.654,5.132c3.176,1.789,6.306,3.655,9.391,5.6c62.896,39.608,103.189,98.545,119.368,170.954
		c10.355,46.345,7.732,89.124-6.824,134.101c-6.103,28.588-24.3,58.32-42.407,80.83c-29.229,36.335-65.791,68.477-113.909,73.301
		c-44.432,4.453-92.852-13.173-127.07-41.192c-40.793-33.406-64.677-85.612-69.81-137.479c-5.366-54.221,8.75-109.708,43.89-151.978
		c1.829-2.162,3.709-4.279,5.641-6.351c1.931-2.072,3.911-4.095,5.941-6.07c2.03-1.974,4.107-3.899,6.231-5.773
		c2.124-1.873,4.292-3.693,6.504-5.462c2.212-1.769,4.466-3.483,6.761-5.142c2.296-1.659,4.631-3.261,7.004-4.806
		c2.374-1.545,4.784-3.031,7.232-4.459c2.445-1.427,4.925-2.795,7.438-4.102c2.511-1.305,5.053-2.55,7.627-3.734
		c2.573-1.184,5.173-2.304,7.8-3.36c2.629-1.058,5.281-2.05,7.956-2.976c2.677-0.928,5.374-1.791,8.091-2.587
		c2.719-0.797,5.455-1.526,8.208-2.189c2.753-0.663,5.521-1.259,8.303-1.788c2.783-0.529,5.577-0.989,8.382-1.381
		c2.805-0.393,5.618-0.718,8.438-0.973c2.649-0.236,5.302-0.406,7.959-0.512c2.657-0.106,5.314-0.147,7.971-0.123
		c2.659,0.024,5.316,0.113,7.971,0.267s5.304,0.372,7.948,0.656c2.643,0.284,5.278,0.632,7.905,1.045
		c2.627,0.413,5.242,0.89,7.845,1.431s5.192,1.145,7.768,1.812c2.573,0.669,5.128,1.4,7.666,2.192
		c2.539,0.792,5.057,1.647,7.552,2.563c2.496,0.916,4.968,1.893,7.417,2.931c2.448,1.036,4.869,2.132,7.265,3.288
		c2.396,1.156,4.76,2.37,7.094,3.641c2.336,1.272,4.639,2.599,6.908,3.983c2.272,1.385,4.508,2.825,6.708,4.318
		c2.198,1.493,4.359,3.039,6.483,4.639c2.126,1.601,4.21,3.252,6.253,4.953c33.193,27.648,60.56,70.199,64.153,114.008l0.156,2.093
		c-4.549-11.942-8.226-24.162-13.062-36.024c-15.281-37.469-40.075-64.668-77.679-80.12c-31.49-12.936-65.537-13.502-96.958-0.108
		c-41.56,17.712-71.981,54.251-88.22,95.841c-0.952,2.507-1.842,5.037-2.668,7.588c-0.826,2.551-1.589,5.122-2.288,7.711
		c-0.701,2.587-1.336,5.191-1.905,7.813c-0.571,2.619-1.077,5.252-1.518,7.896c-0.441,2.645-0.816,5.3-1.126,7.965
		c-0.309,2.663-0.553,5.332-0.731,8.007c-0.178,2.677-0.29,5.356-0.335,8.037s-0.025,5.362,0.063,8.043
		c0.088,2.679,0.24,5.355,0.458,8.028c0.219,2.673,0.505,5.339,0.856,7.998c0.351,2.657,0.769,5.305,1.251,7.944
		c0.481,2.637,1.027,5.261,1.638,7.872c0.613,2.611,1.289,5.205,2.027,7.783c0.741,2.577,1.544,5.136,2.41,7.675
		c0.866,2.537,1.795,5.052,2.785,7.543c0.99,2.493,2.041,4.96,3.153,7.399c16.688,37.227,43.246,65.124,81.902,79.527
		c33.382,12.439,75.026,11.178,107.354-3.881c42.617-19.85,71.948-58.015,87.537-101.446c13.344-48.561,8.606-101.3-16.458-145.468
		c-25.833-45.525-64.776-78.371-115.676-91.882c-2.817-0.725-5.648-1.381-8.495-1.97c-2.849-0.589-5.709-1.108-8.582-1.557
		c-2.873-0.449-5.755-0.829-8.648-1.138c-2.891-0.31-5.788-0.549-8.693-0.719c-2.903-0.17-5.808-0.268-8.717-0.296
		c-2.906-0.03-5.813,0.012-8.72,0.126c-2.906,0.112-5.808,0.294-8.705,0.548c-2.896,0.251-5.785,0.574-8.666,0.967
		c-2.883,0.393-5.753,0.856-8.612,1.389c-2.859,0.531-5.704,1.132-8.534,1.803c-2.829,0.671-5.641,1.41-8.435,2.216
		c-2.795,0.807-5.568,1.68-8.319,2.62c-2.751,0.94-5.478,1.947-8.181,3.021c-2.703,1.072-5.379,2.21-8.028,3.414
		c-2.647,1.202-5.264,2.467-7.852,3.797c-2.585,1.329-5.137,2.721-7.656,4.174c-44.956,26.339-76.176,71.552-88.72,121.791
		c-14.547,58.263-6.986,119.26,24.129,171.031c1.679,2.841,3.427,5.639,5.246,8.394c1.821,2.753,3.709,5.458,5.666,8.115
		c1.956,2.657,3.979,5.263,6.067,7.818c2.088,2.557,4.239,5.059,6.453,7.504c2.216,2.447,4.492,4.837,6.828,7.169
		c2.334,2.332,4.726,4.603,7.177,6.813c2.449,2.212,4.954,4.36,7.513,6.444c2.559,2.084,5.169,4.101,7.831,6.052
		c2.661,1.952,5.369,3.837,8.124,5.654c2.757,1.815,5.558,3.559,8.402,5.231c2.843,1.675,5.727,3.276,8.654,4.803
		c2.925,1.527,5.886,2.98,8.885,4.36c2.999,1.377,6.03,2.678,9.094,3.902c3.064,1.226,6.158,2.372,9.28,3.441
		c3.124,1.068,6.272,2.057,9.445,2.968c3.172,0.908,6.365,1.737,9.579,2.485c14.347,3.438,28.759,5.222,43.456,6.214
		c-66.854,15.937-133.888,13.044-193.987-23.62c-57.709-35.209-97.296-90.496-112.972-156.11c-0.487-2.13-0.949-4.265-1.386-6.405
		c-0.437-2.14-0.847-4.285-1.231-6.435c-0.385-2.15-0.744-4.305-1.075-6.465c-0.331-2.158-0.637-4.321-0.916-6.489
		c-0.28-2.166-0.533-4.335-0.76-6.507c-0.228-2.172-0.428-4.347-0.602-6.525c-0.176-2.178-0.324-4.357-0.446-6.537
		c-0.12-2.182-0.215-4.365-0.284-6.549c-0.068-2.182-0.11-4.366-0.126-6.552C2128.98,1577.583,2128.991,1575.399,2129.029,1573.215z
		 M2554.997,1544.432c-4.444,12.184-12.271,17.994-23.698,23.066c-5.653,1.039-12.151,1.512-17.814,0.393
		c-1.379-0.279-2.741-0.628-4.084-1.045c-1.344-0.419-2.662-0.905-3.956-1.458c-1.293-0.553-2.555-1.171-3.785-1.853
		c-1.23-0.683-2.422-1.427-3.575-2.231c-1.156-0.805-2.267-1.666-3.333-2.584c-1.066-0.918-2.082-1.888-3.048-2.911
		c-0.968-1.022-1.881-2.091-2.737-3.207c-0.858-1.114-1.657-2.27-2.396-3.468c-0.757-1.216-1.446-2.469-2.069-3.761
		c-0.623-1.29-1.176-2.608-1.659-3.956c-0.483-1.349-0.893-2.72-1.231-4.111c-0.337-1.392-0.6-2.798-0.788-4.219
		c-0.188-1.419-0.3-2.845-0.338-4.276c-0.036-1.431,0.003-2.861,0.117-4.288c0.116-1.429,0.305-2.848,0.569-4.255
		c0.266-1.407,0.605-2.797,1.018-4.168c4.043-13.538,13.215-20.734,25.276-26.855c6.294-0.676,12.553-1.272,18.742,0.443
		c1.384,0.395,2.744,0.858,4.082,1.39c1.338,0.531,2.645,1.129,3.923,1.793c1.278,0.663,2.518,1.389,3.722,2.177
		c1.204,0.788,2.365,1.635,3.482,2.539c1.118,0.906,2.188,1.867,3.21,2.881c1.022,1.012,1.99,2.074,2.905,3.186
		c0.917,1.11,1.773,2.264,2.569,3.462c0.799,1.198,1.535,2.432,2.21,3.704C2557.766,1521.081,2559,1533.454,2554.997,1544.432z"/>
	<path d="M2108.076,1812.963c3.021-27.717-4.168-49.789-21.59-71.238c-28.576-35.179-75.811-68.172-121.961-72.49
		c-32.783-3.066-58.709,9.397-83.369,29.834c15.398-63.351,3.465-125.857-30.382-181.386c-1.198-1.951-2.419-3.887-3.662-5.809
		c-1.246-1.92-2.513-3.826-3.803-5.716c-1.292-1.891-2.606-3.765-3.944-5.624c-1.335-1.857-2.694-3.698-4.075-5.525
		c-1.383-1.824-2.788-3.632-4.213-5.423c-1.425-1.791-2.873-3.563-4.342-5.318c-1.467-1.757-2.956-3.495-4.468-5.214
		c-1.513-1.719-3.045-3.42-4.596-5.102c-1.553-1.681-3.126-3.344-4.719-4.989c-1.593-1.643-3.206-3.267-4.839-4.872
		c-1.633-1.603-3.285-3.187-4.956-4.752c-1.673-1.563-3.364-3.107-5.073-4.629c-1.709-1.523-3.436-3.025-5.18-4.507
		c-1.747-1.479-3.51-2.938-5.291-4.375c-1.781-1.44-3.579-2.856-5.396-4.249c-1.815-1.393-3.647-2.765-5.498-4.114
		c-1.849-1.35-3.713-2.676-5.594-3.98c-1.883-1.303-3.78-2.584-5.693-3.842c-1.912-1.258-3.84-2.491-5.782-3.701
		c-1.944-1.21-3.902-2.397-5.872-3.56c-1.972-1.162-3.959-2.301-5.959-3.417c-1.998-1.114-4.01-2.203-6.037-3.267
		c-2.026-1.066-4.065-2.107-6.118-3.123c-2.05-1.016-4.113-2.006-6.19-2.97c-2.076-0.966-4.163-1.907-6.261-2.821
		c-2.098-0.914-4.207-1.802-6.327-2.665c-2.12-0.862-4.25-1.7-6.39-2.512c-2.142-0.81-4.292-1.595-6.45-2.354
		c-2.16-0.759-4.329-1.491-6.507-2.198c-2.178-0.705-4.364-1.383-6.558-2.036c-2.194-0.653-4.396-1.279-6.606-1.878
		c-2.208-0.599-4.424-1.171-6.648-1.716c-20.877-5.052-43.722-7.789-65.193-6.513c-61.449,3.62-111.762,26.986-152.999,73.212
		c-1.335,1.511-2.651,3.038-3.947,4.581c-1.298,1.543-2.576,3.102-3.836,4.677c-1.26,1.575-2.499,3.165-3.719,4.77
		c-1.22,1.605-2.419,3.225-3.599,4.86c-1.182,1.633-2.343,3.281-3.483,4.944c-1.14,1.663-2.26,3.34-3.36,5.031
		c-1.098,1.691-2.176,3.395-3.234,5.111c-1.058,1.717-2.094,3.446-3.108,5.187c-1.016,1.743-2.01,3.497-2.982,5.264
		c-0.972,1.765-1.922,3.542-2.851,5.333c-0.928,1.789-1.835,3.589-2.719,5.402c-0.884,1.811-1.747,3.633-2.587,5.468
		c-0.84,1.833-1.658,3.675-2.452,5.528c-0.795,1.853-1.566,3.715-2.315,5.587c-0.751,1.871-1.477,3.751-2.18,5.642
		c-0.703,1.889-1.383,3.786-2.039,5.693c-0.657,1.906-1.291,3.821-1.901,5.743c-0.609,1.92-1.195,3.849-1.758,5.785
		s-1.102,3.88-1.617,5.83c-0.515,1.948-1.006,3.903-1.473,5.863c-0.467,1.962-0.91,3.93-1.33,5.902
		c-0.419,1.973-0.815,3.949-1.186,5.929c-0.371,1.982-0.718,3.969-1.039,5.959c-0.323,1.99-0.622,3.984-0.895,5.983
		c-0.274,1.997-0.522,3.997-0.746,6.001c-0.224,2.004-0.423,4.011-0.599,6.019c-0.176,2.008-0.326,4.019-0.452,6.031
		c-0.126,2.012-0.228,4.025-0.306,6.04c-0.076,2.016-0.128,4.031-0.156,6.046c-0.028,2.016-0.031,4.033-0.009,6.049
		c0.022,2.016,0.069,4.033,0.141,6.049c0.072,2.014,0.168,4.028,0.288,6.04c4.156,68.977,34.748,140.713,87.13,186.72
		c49.388,43.375,112.382,66.055,178.11,61.488c65.288-4.536,122.066-30.391,165.555-79.29
		c6.564,67.333,29.765,136.398,68.687,192.247c15.838,19.667,34.008,39.973,60.647,43.432c17.853,2.318,34.002-5.297,47.66-16.209
		C2059.839,1981.74,2100.842,1879.323,2108.076,1812.963z M1953.811,1681.312c25.049,0.617,47.082,9.109,68.409,21.877
		c35.574,21.297,66.285,52.146,76.377,93.197c-14.879,18.631-36.389,34.577-54.748,49.765
		c-22.704,19.093-45.763,37.745-69.178,55.958c-12.673,9.6-24.303,18.203-39.377,23.563c-3.494-2.015-6.995-4.096-10.172-6.597
		c-32.008-25.198-71.571-86.696-75.996-127.755c-2.189-20.308,18.961-56.88,31.927-72.981
		C1899.973,1694.844,1924.288,1684.339,1953.811,1681.312z M1753.368,1847.025c-35.706,13.715-75.116,8.468-109.445-6.798
		c-45.495-20.233-81.886-56.655-99.455-103.5c-19.102-50.93-18.877-106.717,4.087-156.29
		c19.937-43.039,55.242-79.099,100.369-95.131c2.326-0.82,4.669-1.583,7.031-2.288c2.363-0.705,4.742-1.351,7.136-1.94
		c2.396-0.587,4.804-1.115,7.226-1.584c2.42-0.467,4.85-0.875,7.292-1.225c2.441-0.347,4.89-0.635,7.345-0.863
		c2.455-0.228,4.915-0.394,7.378-0.5c2.464-0.106,4.928-0.151,7.393-0.135c2.465,0.016,4.929,0.093,7.39,0.231
		c2.461,0.136,4.919,0.333,7.372,0.593c2.451,0.259,4.895,0.579,7.33,0.958c2.438,0.379,4.863,0.82,7.277,1.321
		c2.416,0.499,4.816,1.058,7.202,1.677c2.388,0.617,4.758,1.293,7.112,2.03c2.354,0.735,4.687,1.527,7.001,2.378
		c2.316,0.851,4.608,1.758,6.878,2.722c2.268,0.964,4.512,1.983,6.732,3.057c41.629,19.985,69.537,62.482,84.581,104.791
		c-16.407-27.606-31.496-46.639-60.087-62.674c-1.954-1.094-3.936-2.139-5.944-3.135c-2.006-0.994-4.037-1.939-6.091-2.836
		c-2.054-0.894-4.129-1.737-6.225-2.527c-2.096-0.793-4.211-1.532-6.342-2.219c-2.132-0.687-4.28-1.32-6.444-1.899
		c-2.164-0.579-4.341-1.105-6.531-1.578c-2.19-0.471-4.391-0.888-6.603-1.251c-2.21-0.361-4.428-0.668-6.654-0.919
		c-2.226-0.253-4.457-0.451-6.693-0.593c-2.236-0.14-4.475-0.225-6.717-0.255c-2.24-0.032-4.479-0.007-6.716,0.075
		c-2.24,0.082-4.476,0.219-6.708,0.41c-2.232,0.192-4.458,0.439-6.677,0.743c-2.22,0.301-4.431,0.659-6.633,1.072
		c-2.202,0.413-4.392,0.881-6.57,1.402c-2.18,0.521-4.345,1.096-6.495,1.725c-34.823,10.184-62.174,36.389-79.036,67.893
		c-18.877,35.272-23.836,73.637-11.858,112.035c11.921,38.221,39.051,73.065,74.823,91.69c31.481,16.395,70.744,18.922,104.372,7.95
		c41.443-13.523,64.761-42.399,83.851-80.162c17.371-46.582,13.068-103.641-7.483-148.618
		c-20.168-44.126-50.541-81.063-97.188-97.907c-42.309-15.278-85.438-11.849-125.812,7.432
		c-45.306,21.638-80.009,64.593-96.2,111.681c-1.104,3.288-2.127,6.601-3.069,9.939c-0.942,3.338-1.803,6.696-2.581,10.076
		c-0.778,3.38-1.475,6.776-2.09,10.19c-0.615,3.413-1.146,6.84-1.593,10.28s-0.811,6.889-1.093,10.346
		c-0.28,3.456-0.475,6.917-0.587,10.385c-0.114,3.465-0.142,6.932-0.084,10.4c0.056,3.469,0.196,6.934,0.419,10.394
		c0.226,3.462,0.534,6.915,0.925,10.361c0.391,3.448,0.866,6.882,1.425,10.304c0.559,3.424,1.201,6.831,1.925,10.223
		c0.725,3.392,1.531,6.765,2.42,10.118c0.888,3.352,1.858,6.681,2.908,9.987c1.05,3.306,2.18,6.584,3.39,9.834
		c1.208,3.252,2.494,6.472,3.86,9.66c1.366,3.188,2.808,6.341,4.327,9.46c1.489,2.972,3.05,5.906,4.683,8.801
		c1.633,2.893,3.338,5.744,5.115,8.555c1.775,2.809,3.618,5.573,5.531,8.292s3.891,5.388,5.935,8.007
		c2.046,2.621,4.155,5.189,6.327,7.705c2.172,2.515,4.405,4.975,6.699,7.378c2.296,2.406,4.649,4.752,7.061,7.04
		c2.409,2.288,4.875,4.514,7.396,6.678c2.521,2.166,5.095,4.268,7.723,6.306c2.625,2.038,5.299,4.01,8.022,5.914
		c2.723,1.904,5.492,3.741,8.307,5.51c2.815,1.767,5.672,3.463,8.57,5.088c2.899,1.627,5.836,3.18,8.813,4.659
		c2.976,1.481,5.987,2.887,9.031,4.216c3.047,1.331,6.124,2.586,9.232,3.764c3.108,1.178,6.243,2.278,9.406,3.3
		c16.877,5.552,33.75,7.387,51.385,8.822c-76.709,11.945-133.676,9.846-198.898-38.075c-52.22-38.365-88.355-100.299-97.709-164.321
		c-8.983-61.491,3.611-130.205,41.318-180.578c32.196-43.013,80.252-75.688,134.056-83.21
		c67.034-9.37,133.394,11.475,186.678,52.212c52.702,40.287,91.244,102.222,99.635,168.534
		c4.336,34.281,1.105,70.558-13.331,102.219C1836.548,1776.59,1812.083,1824.48,1753.368,1847.025z M1821.683,1609.328
		c-5.222,11.049-13.34,15.805-24.348,20.06c-5.088,0.333-10.214,0.77-15.191-0.62c-10.226-2.854-18.587-10.187-23.506-19.491
		c-5.444-10.295-7.169-23.363-3.542-34.529c4.291-13.22,12.714-19.916,24.797-25.857c6.839,0.111,12.64,0.913,19.021,3.506
		c11.028,4.483,19.503,12.855,23.653,24.058C1826.423,1586.864,1826.465,1599.216,1821.683,1609.328z M1944.872,2022.914
		c-41.824-20.018-67.932-87.657-83.498-129.214c-8.07-24.656-13.229-49.483-18.338-74.873
		c15.688,34.556,32.113,67.423,57.766,95.915c8.507,9.448,21.862,23.033,35.386,23.078c32.732,0.102,134.553-104.968,159.039-130.1
		c2.539,20.186-19.967,85.534-28.558,105.133c-15.017,34.263-49.801,99.144-87.435,112.774
		C1967.936,2029.717,1955.542,2028.02,1944.872,2022.914z"/>
</g>
</svg>
