<?xml version="1.0" encoding="utf-8"?>
<!-- Generator: Adobe Illustrator 27.5.0, SVG Export Plug-In . SVG Version: 6.00 Build 0)  -->
<svg xmlns="http://www.w3.org/2000/svg" xmlns:xlink="http://www.w3.org/1999/xlink" viewBox="0 0 612 792" width="595" height="842" preserveAspectRatio="xMidYMid meet" data-scaled="true">
<g>
	<path style="fill:#231F20;" d="M373.466,599.675c0.949-0.168,1.513-0.665,1.466-1.689c-0.04-0.871-0.515-1.385-1.368-1.394
		c-0.952-0.01-1.643,0.521-1.694,1.476C371.817,599.071,372.575,599.491,373.466,599.675L373.466,599.675z M442.122,594.539
		c-0.057-0.988-0.554-1.581-1.534-1.586c-0.821-0.004-1.366,0.526-1.491,1.306c-0.155,0.97,0.39,1.655,1.322,1.723
		C441.329,596.049,441.922,595.444,442.122,594.539L442.122,594.539z M356.061,589.796c1.055-0.135,1.682-0.73,1.702-1.861
		c0.022-1.227-0.837-1.73-1.832-1.717c-1.055,0.012-1.832,0.785-1.795,1.843C354.171,589.085,354.86,589.783,356.061,589.796
		L356.061,589.796z M428.048,584.481c-0.211-1.024-0.749-1.713-1.887-1.639c-1.083,0.07-1.763,0.683-1.736,1.79
		c0.028,1.092,0.738,1.784,1.797,1.71C427.231,586.271,427.861,585.537,428.048,584.481L428.048,584.481z M74.649,272.465
		c1.833,0.1,2.998-0.424,3.048-1.738c0.074-1.946-1.726-2.143-3.106-2.44c-1.091-0.235-1.791,0.415-1.842,1.581
		C72.676,271.541,73.535,272.379,74.649,272.465L74.649,272.465z M133.194,592.27c0.931-2.221,3.149-3.715,2.101-5.029
		c-1.224-1.534-3.658-2.019-6.275-2.005C130.431,587.613,131.637,589.646,133.194,592.27L133.194,592.27z M79.944,183.655
		c-1.229-0.136-2.186-0.326-2.203,1.183c-0.021,1.968,0.816,3.355,2.783,3.523c1.46,0.124,3.463-0.354,3.456-1.984
		C83.969,183.86,81.261,184.369,79.944,183.655L79.944,183.655z M95.372,263.526c-0.296-1.311-0.626-2.999-2.001-2.882
		c-2.299,0.195-3.034,2.287-3.385,4.275c-0.224,1.269,0.461,2.51,1.801,2.365C93.888,267.059,94.832,265.36,95.372,263.526
		L95.372,263.526z M104.657,463.029c-1.944-1.349-3.514-2.438-5.277-3.662c-1.112,3.139-2.112,5.96-3.437,9.7
		C98.853,466.241,101.507,464.654,104.657,463.029L104.657,463.029z M81.077,279.753c-0.146-1.067-1.158-1.592-2.34-0.811
		c-2.059,1.36-3.492,3.404-4.511,5.618c-0.621,1.346,0.244,1.981,1.629,1.73C77.628,285.969,80.966,282.064,81.077,279.753
		L81.077,279.753z M74.099,266.489c1.791,0.058,3.011,0.644,4.254,1.243c1.82,0.88,3.055-0.346,4.062-1.537
		c1.173-1.386-0.02-2.591-0.775-3.647c-1.043-1.46-2.331-0.547-3.366,0.048C76.733,263.48,75.39,264.661,74.099,266.489
		L74.099,266.489z M166.654,276.007c0.104-4.621-0.575-8.743-2.148-13.01C161.056,271.079,161.355,273.021,166.654,276.007
		L166.654,276.007z M432.469,574.353c-1.918,0.189-3.531,1.084-3.652,3.339c-0.12,2.23,1.454,3.112,3.433,3.199
		c2.077,0.09,3.412-0.955,3.572-3.084C435.987,575.616,434.74,574.568,432.469,574.353L432.469,574.353z M72.694,274.104
		c-1.847,0.355-4.374,0.151-4.173,2.775c0.177,2.308,2.425,2.693,4.4,2.494c2.056-0.207,5.007-0.514,4.907-2.837
		C77.72,274.054,74.641,274.49,72.694,274.104L72.694,274.104z M98.029,272.969c-2.45-0.082-4.356,0.466-4.784,2.415
		c-0.401,1.831,1.898,1.41,2.856,2.188c0.548,0.445,1.292,0.696,1.988,0.898c1.637,0.473,3.557,1.012,4.341-1.043
		c0.887-2.325-0.919-3.398-2.763-4.137C99.003,273.024,98.24,273.008,98.029,272.969L98.029,272.969z M91.358,278.485
		c-1.069,0.185-2.518,0.074-2.512,1.943c0.006,2.154,3.12,5.007,5.436,4.967c1.629-0.028,2.596-0.783,2.56-2.511
		C96.791,280.471,94.442,278.541,91.358,278.485L91.358,278.485z M362.009,584.112c2.232-0.304,3.741-1.543,3.623-3.899
		c-0.101-2.022-1.407-3.21-3.584-3.194c-2.217,0.015-4.381,1.901-4.151,3.88C358.163,583.193,359.857,583.946,362.009,584.112
		L362.009,584.112z M86.893,285.083c0.021-2.616-0.796-5.033-1.813-4.974c-2.418,0.142-2.551,2.451-3.48,3.991
		c-0.108,0.179-0.198,0.376-0.26,0.576c-0.542,1.75-0.263,3.353,0.98,4.712c0.686,0.75,1.643,1.17,2.583,0.701
		c1.636-0.814,1.834-2.44,1.929-4.057C86.85,285.716,86.876,285.399,86.893,285.083L86.893,285.083z M95.915,270.571
		c2.374-0.311,4.901-1,7.226-2.284c1.36-0.752,2.601-1.819,1.632-3.524c-0.96-1.69-2.624-1.727-4.117-0.763
		c-2.028,1.311-3.926,2.823-5.873,4.259c-0.504,0.372-1.12,0.736-0.933,1.497C94.093,270.739,94.936,270.549,95.915,270.571
		L95.915,270.571z M92.055,454.188c-3.426-2.277-6.268-4.167-9.587-6.374c0.791,4.55,0.695,8.386-0.698,12.243
		C84.555,457.224,87.754,455.341,92.055,454.188L92.055,454.188z M254.48,409.884c-2.332,0.165-3.819,1.401-3.986,3.902
		c-0.147,2.205,1.731,4.118,3.941,3.977c2.393-0.154,3.966-1.447,4.184-3.902C258.805,411.76,256.795,409.888,254.48,409.884
		L254.48,409.884z M375.986,416.753c0.027,2.389,2.019,4.353,4.148,4.11c2.27-0.259,3.647-1.657,3.839-3.947
		c0.18-2.145-1.856-4.192-4.004-3.999C377.572,413.133,376.093,414.438,375.986,416.753L375.986,416.753z M489.945,231.589
		c5.087-7.89,3.184-17.188-4.379-21.083C488.788,217.377,490.538,224.239,489.945,231.589L489.945,231.589z M158.089,127.407
		c0.064-0.562-0.288-0.751-0.631-1.012c-3.002-2.291-6.505-2.095-9.174,0.616c-1.326,1.346-2.565,2.78-3.807,4.207
		c-0.376,0.431-1.086,0.875-0.565,1.569c0.358,0.478,1.045,0.362,1.465,0.114c2.988-1.765,6.411-1.874,9.66-2.651
		C156.538,129.892,157.609,128.873,158.089,127.407L158.089,127.407z M106.042,440.387c-0.078-0.496-0.182-1.869-0.538-3.174
		c-0.257-0.944-1.004-1.492-1.79-0.417c-2.938,4.019-4.747,8.401-3.994,13.516c0.228,1.551,1.012,1.19,1.96,0.551
		C105.118,448.546,105.956,445.078,106.042,440.387L106.042,440.387z M292.841,635.091c-5.18-0.115-9.894,1.296-14.444,3.377
		c-0.799,0.366-1.477,0.862-1.776,1.707c-1.066,3.021-2.103,6.054-3.411,9.833C279.397,643.716,285.417,638.474,292.841,635.091
		L292.841,635.091z M109.477,467.629c-5.694-0.193-12.53,6.304-12.415,11.524c0.017,0.749,0.033,1.596,0.762,1.96
		c0.773,0.386,1.393-0.28,1.956-0.717C104.121,477.028,107.094,472.644,109.477,467.629L109.477,467.629z M86.532,268.011
		c-3.423-0.025-6.051,1.931-6.185,4.607c-0.114,2.262,2.364,4.332,5.222,4.362c2.956,0.032,5.458-2.203,5.538-4.944
		C91.18,269.504,89.508,268.033,86.532,268.011L86.532,268.011z M94.402,457.937c-6.089,1.464-10.968,7.027-10.921,12.038
		c0.01,1.054-0.112,2.277,0.966,2.832c1.143,0.589,1.975-0.399,2.74-1.067C91.268,468.179,92.891,463.33,94.402,457.937
		L94.402,457.937z M410.886,128.539c-1.376-0.028-1.115,0.961-1.262,1.587c-1.156,4.926-0.581,9.869-0.161,14.82
		c0.384,4.517,1.752,8.675,4.2,12.474c1.224,1.898,2.771,3.453,4.936,4.299c0.84,0.328,1.788,0.606,2.275-0.279
		c0.723-1.313-0.721-1.218-1.325-1.545c-1.328-0.719-2.599-1.549-3.362-2.831c-4.731-7.951-6.699-16.381-3.581-25.384
		C413.421,129.328,411.748,129.315,410.886,128.539L410.886,128.539z M64.166,427.884c-0.229-3.482-0.79-6.683-2.613-9.527
		c-0.946-1.475-2.281-2.232-4.036-1.773c-1.754,0.459-2.978,1.54-3.303,3.43c-0.367,2.129,0.275,3.962,1.665,5.558
		c1.399,1.607,3.083,2.889,4.876,4.006c0.855,0.533,1.7,1.799,2.682,1.289C64.549,430.29,64.061,428.809,64.166,427.884
		L64.166,427.884z M120.96,666.094c5.818-0.868,10.45-2.687,14.873-5.128c0.749-0.412,1.169-0.814,0.548-1.697
		c-1.893-2.693-3.741-5.417-5.756-8.346C127.917,656.156,125.226,661.12,120.96,666.094L120.96,666.094z M37.063,650.028
		c2.848-7.978,3.846-7.984-4.421-10.424c-4.005-1.183-8.159-0.693-11.958,1.348c-0.734,0.395-1.607,0.951-1.307,1.919
		c0.242,0.78,1.175,0.779,1.917,0.791c1.369,0.022,2.743,0.084,4.107,0.001c3.739-0.228,6.775,1.162,9.285,3.859
		C35.452,648.345,36.232,649.153,37.063,650.028L37.063,650.028z M267.214,660.286c-4.945,3.729-9.367,8.082-14.333,11.796
		c-1.238,0.926-1.238,3.417,0.383,4.77c1.772,1.478,5.501,1.294,6.421-0.123C262.962,671.684,265.406,666.236,267.214,660.286
		L267.214,660.286z M48.544,434.986c-0.462,0.078-1.738,0.171-2.938,0.522c-3.665,1.068-4.287,3.572-1.65,6.351
		c1.857,1.955,4.157,2.455,6.675,1.853c3.034-0.727,5.587-2.416,8.003-4.333c1.351-1.071,0.81-1.632-0.451-2.163
		C55.35,436.02,52.47,435.04,48.544,434.986L48.544,434.986z M492.012,578.896c1.116,5.232,1.554,10.045,2.174,14.994
		c2.564-7.939,10.497-9.931,16.487-14.871c-2.41-0.638-4.16-0.962-5.804-1.573c-1.749-0.65-2.712-0.317-3.33,1.531
		c-0.631,1.889-2.2,2.294-4.086,2.113C495.6,580.911,494.186,579.746,492.012,578.896L492.012,578.896z M517.169,439.522
		c0.007-4.892-5.591-11.378-10.443-12.229c-2.086-0.366-1.723,0.906-1.509,2.056c0.906,4.879,2.892,9.253,6.39,12.822
		c1.055,1.076,2.2,2.913,3.858,2.168c1.617-0.727,1.518-2.833,1.703-4.501C517.18,439.734,517.169,439.628,517.169,439.522
		L517.169,439.522z M131.292,570.653c-2.65-0.863-2.764,0.625-2.73,3.424c0.047,3.896,2.612,4.244,5.236,4.9
		c2.217,0.553,4.252,3.086,6.233,2.267c2.023-0.835,3.356-3.34,4.991-5.113c0.072-0.077,0.138-0.162,0.219-0.227
		c1.448-1.16,0.823-1.748-0.538-2.345C140.605,571.757,136.298,570.968,131.292,570.653L131.292,570.653z M414.267,131.722
		c-2.117,7.437-0.745,13.723,1.544,19.924c0.735,1.992,1.786,3.824,3.33,5.315c0.526,0.508,1.19,1.019,1.96,0.696
		c0.705-0.296,0.535-1.082,0.543-1.686C421.766,147.411,419.433,139.591,414.267,131.722L414.267,131.722z M546.077,408.602
		c5.858-3.256,9.591-8.074,11.804-14.078c0.693-1.881,1.065-3.888,0.706-5.899c-0.155-0.868,0.045-2.078-1.017-2.488
		c-1.064-0.41-1.789,0.523-2.408,1.163C549.416,393.237,547.557,400.841,546.077,408.602L546.077,408.602z M537.311,261.822
		c-1.944-5.316-4.807-10.007-10.725-11.282c-7.145-1.541-12.333,2.647-17.412,6.84C518.972,256.277,528.512,256.189,537.311,261.822
		L537.311,261.822z M543.182,413.092c4.375,0.76,8.231,0.662,12.024,0.183c4.847-0.611,9.49-2.009,13.315-5.288
		c0.666-0.57,1.912-0.979,1.553-2.096c-0.274-0.855-1.405-0.807-2.219-0.946C558.432,403.349,550.605,406.612,543.182,413.092
		L543.182,413.092z M284.039,659.289c6.146,3.21,11.554,6.176,16.615,9.709c5.128,3.58,9.56,7.926,13.933,13.394
		C313.099,667.504,301.786,659.649,284.039,659.289L284.039,659.289z M542.852,403.143c-0.316-4.214-0.284-8.471-1.834-12.472
		c-0.853-2.204-1.771-5.84-3.905-5.46c-2.309,0.411-2.384,4.03-2.387,6.587c-0.01,7.162,2.162,13.907,4.003,20.714
		c0.474,1.748,1.29,1.938,2.591,0.637c1.043-1.044,1.514-2.258,1.527-3.683C542.865,407.358,542.852,405.25,542.852,403.143
		L542.852,403.143z M77.972,453.339c-0.088-2.684-0.066-5.313-2.025-6.195c-1.575-0.711-2.909,1.59-4.286,2.653
		c-0.166,0.128-0.306,0.291-0.453,0.442c-3.829,3.941-6.244,8.522-5.953,14.149c0.159,3.068,1.596,3.855,4.148,2.303
		C74.588,463.539,77.733,459.041,77.972,453.339L77.972,453.339z M77.81,433.589c0.075,0.525,0.122,1.696,0.421,2.799
		c1.053,3.897,2.483,4.326,5.625,1.772c5.158-4.19,6.862-13.973,3.527-19.711c-0.907-1.56-1.692-1.589-2.859-0.368
		C80.536,422.255,77.952,427.046,77.81,433.589L77.81,433.589z M240.943,255.967c0.422,0,0.843,0.011,1.264-0.002
		c3.616-0.112,4.151-1.073,2.266-4.14c-0.383-0.623-0.875-1.185-1.36-1.737c-4.555-5.193-10.423-6.823-17.085-6.247
		c-1.22,0.104-2.811-0.201-3.357,1.164c-0.506,1.263,0.561,2.405,1.304,3.394C228.221,254.052,234.344,255.559,240.943,255.967
		L240.943,255.967z M138.166,96.037c3.909,0.247,4.246,0.002,6.67-4.45c1.615-2.963-0.353-8.038-3.615-8.804
		c-3.93-0.922-7.706-0.193-10.582,2.731c-3.289,3.346-0.608,6.665,0.557,9.937c1.111,3.119,3.048,0.811,4.646,0.726
		C136.79,96.126,137.736,96.063,138.166,96.037L138.166,96.037z M566.975,424.866c-10.68-5.396-20.998-6.084-31.611-1.933
		c-0.434,0.17-1.004,0.632-1.05,1.015c-0.091,0.753,0.722,0.967,1.27,1.196c4.006,1.674,8.168,2.927,12.477,3.335
		C554.405,429.078,560.724,429.047,566.975,424.866L566.975,424.866z M232.318,200.753c-0.739,0-1.482-0.058-2.214,0.013
		c-1.115,0.108-2.604-0.341-3.15,0.893c-0.441,0.998,0.598,1.931,1.178,2.793c3.57,5.304,8.808,8.063,14.853,9.362
		c2.291,0.493,5.417,1.249,6.622-1.246c1.226-2.537-0.591-5.046-2.619-6.924c-0.689-0.639-1.494-1.17-2.298-1.666
		C240.901,201.638,236.721,200.758,232.318,200.753L232.318,200.753z M128.956,239.411c2.808,4.076,4.146,8.311,6.201,12.204
		c2.064,3.909,5.087,6.971,8.634,9.538c0.576,0.417,1.392,1.054,1.895,0.906c1.03-0.305,0.535-1.437,0.547-2.204
		c0.08-5.452-2.041-10.534-2.716-15.852c-0.253-1.987-1.32-2.726-2.933-3.151C137.009,239.907,133.391,239.26,128.956,239.411
		L128.956,239.411z M275.6,653.874c0.083,0.293,0.166,0.586,0.248,0.879c3.666,0,7.336-0.119,10.997,0.029
		c4.754,0.192,7.808-1.46,9.838-5.739c1.135-2.395,1.585-4.982,2.08-7.574c0.504-2.642-0.572-2.73-2.637-2.135
		C287.553,641.803,281.608,647.874,275.6,653.874L275.6,653.874z M250.411,191.338c0,1.373-0.05,2.749,0.018,4.118
		c0.045,0.899-0.439,2.117,0.489,2.617c1.099,0.592,1.979-0.504,2.744-1.119c6.23-5.013,8.632-11.575,7.3-19.385
		c-0.41-2.397-0.77-6.137-3.218-6.3c-2.676-0.178-4.121,3.218-5.202,5.754C250.594,181.593,250.545,186.479,250.411,191.338
		L250.411,191.338z M211.82,683.971c6.884,1.241,11.789,5.417,16.162,10.409c0.278,0.317,0.58,0.616,0.894,0.898
		c1.202,1.079,2.169,1.34,2.612-0.674c1.817-8.266,7.079-13.47,14.766-16.468c1.157-0.451,1.941-1.166,1.441-2.355
		c-0.646-1.533-1.588-0.226-2.294,0.07c-8.603,3.607-17.646,5.646-26.716,7.604C216.447,683.938,214.137,682.962,211.82,683.971
		L211.82,683.971z M365.956,390.95c-0.003-4.617-3.742-8.262-8.561-8.346c-4.192-0.074-8.182,3.793-8.248,7.995
		c-0.074,4.786,3.535,8.393,8.383,8.378C362.272,398.961,365.959,395.449,365.956,390.95L365.956,390.95z M232.413,397.535
		c4.848,0.049,8.548-3.498,8.6-8.243c0.049-4.488-3.433-8.146-7.866-8.263c-4.703-0.123-8.779,3.813-8.816,8.513
		C224.297,393.979,227.847,397.489,232.413,397.535L232.413,397.535z M530.349,424.302c-0.121-8.996-10.723-20.974-19.675-22.548
		c-2.35-0.413-1.872,0.863-1.707,2.104c1.105,8.308,11.126,19.819,19.136,22.042C529.652,426.33,530.639,426.146,530.349,424.302
		L530.349,424.302z M258.724,219.167c7.374-0.454,13.811-2.471,19.305-7.021c3.129-2.59,2.967-3.617-0.776-5.53
		c-7.453-3.809-21.138,0.895-24.583,8.518c-0.852,1.886-0.877,3.52,2.002,3.529C256.133,218.667,257.593,219.017,258.724,219.167
		L258.724,219.167z M261.765,242.651c5.673-0.292,11.128-1.248,15.251-5.663c2.572-2.755,2.392-3.506-1.07-4.774
		c-2.167-0.794-4.383-1.54-6.64-1.983c-6.763-1.326-12.475,0.672-17.027,5.858c-2.322,2.644-1.897,4.275,1.394,5.29
		C256.296,242.187,258.988,242.669,261.765,242.651L261.765,242.651z M254.924,694.348c8.07-2.588,16.034-5.369,20.252-13.641
		c2.997-5.881,1.267-14.585-3.622-18.473c-2.268,5.961-5.015,11.66-8.416,17.02c-0.862,1.357-0.668,2.418,0.105,3.761
		c1.972,3.425,1.747,3.807-1.852,5.203C258.478,689.347,256.013,691.038,254.924,694.348L254.924,694.348z M528.817,449.304
		c-1.765-1.592-3.745-3.038-5.286-4.857c-1.775-2.095-2.685-1.32-3.944,0.45c-3.796,5.337-6.976,11.059-10.54,16.539
		c-2.132,3.277-2.653,6.834-2.365,10.588c0.14,1.824,0.508,3.793,2.557,4.321c2.257,0.582,3.47-1.217,4.427-2.847
		c0.678-1.156,1.038-2.527,1.382-3.844c0.532-2.037,0.881-4.122,1.392-6.165c1.558-6.22,5.075-10.817,11.15-13.241
		C528.078,450.054,528.615,449.96,528.817,449.304L528.817,449.304z M224.932,217.517c-3.051-0.12-3.742,0.432-2.623,2.293
		c5.153,8.563,12.302,14.638,22.157,17.138c1.306,0.331,2.965,0.709,3.916-0.41c1.108-1.303,0.148-2.851-0.521-4.129
		C243.018,223.168,235.578,217.868,224.932,217.517L224.932,217.517z M532.572,437.303c-2.517,0.219-5.038,0.397-7.548,0.685
		c-0.754,0.087-1.858-0.309-2.164,0.775c-0.256,0.911,0.521,1.574,1.079,2.164c3.545,3.753,7.571,6.655,12.891,7.353
		c1.548,0.203,3.227,0.449,4.537,1.209c3.256,1.89,6.454,1.435,9.749,0.387c4.152-1.319,4.429-2.239,1.377-5.422
		C547.053,438.783,540.132,437.187,532.572,437.303L532.572,437.303z M187.567,223.228c5.415,0.247,9.621,1.958,14.003,2.968
		c4.289,0.99,8.579,0.783,12.864-0.062c1.678-0.331,3.151-0.67,1.922-2.988c-0.601-1.133,0.186-2.015,1.243-2.516
		c0.724-0.343,1.465-0.801,1.027-1.629c-1.383-2.615,0.412-3.544,2.201-4.612c0.955-0.573,2.062-1.132,2.066-2.71
		c-3.852-0.52-7.691-1.042-11.531-1.555c-1.974-0.264-3.085,0.326-3.417,2.571c-0.636,4.3-1.643,5.237-5.909,5.434
		C197.063,218.358,192.524,219.65,187.567,223.228L187.567,223.228z M208.831,548.663c0.081-8.7-7.212-16.437-17.208-18.258
		c-4.351-0.792-4.73-0.327-5.136,4.033c-0.278,2.992,1.881,2.24,3.27,2.5c5.141,0.967,8.666,3.814,10.215,8.799
		c1.519,4.887-0.052,8.913-3.977,12.093c-0.738,0.598-1.388,1.329-2.188,1.821c-1.563,0.962-0.721,1.878-0.098,2.866
		c0.9,1.423,1.621,0.394,2.231-0.219c1.502-1.51,3.049-2.778,5.207-3.395C206.303,557.43,208.782,553.979,208.831,548.663
		L208.831,548.663z M250.639,266.463c4.264,0.816,8.458,0.527,12.632-0.048c7.318-1.007,14.628-2.155,22.003-0.546
		c4.258,0.93,4.254,0.952,4.973-3.271c0.054-0.312,0.094-0.626,0.141-0.939c0.965-6.558-0.266-7.844-7.099-7.394
		c-0.525,0.035-1.046,0.127-1.57,0.188C270.359,255.783,260.882,262.028,250.639,266.463L250.639,266.463z M169.747,203.891
		c-0.123-0.729-0.092-1.054-0.228-1.278c-8.46-13.923-20.623-22.889-36.322-27.126c-1.677-0.453-1.963,0.301-1.867,1.782
		c0.241,3.7,0.172,7.406-0.783,11.011c-0.559,2.113,0.221,2.47,2.161,2.37c8.416-0.428,16.306,1.754,23.892,5.182
		C161.188,197.906,165.429,200.598,169.747,203.891L169.747,203.891z M313.086,688.327c-8.816-13.773-21.793-20.868-36.06-27.411
		c2.097,4.037,3.624,7.562,3.759,11.396c0.09,2.586,1.243,4.33,2.96,6.009C291.823,686.221,302.093,687.545,313.086,688.327
		L313.086,688.327z M42.724,646.899c-2.499,6.858-2.254,7.854,2.984,11.762c4.507,3.362,9.626,5.293,15.182,5.881
		c3.782,0.401,7.55,0.146,11.005-2.14c-8.737-8.679-18.898-16.072-22.095-29.135c-2.657,2.542-4.99,5.119-5.323,8.377
		c-0.602,5.895,4.723,8.325,7.97,12.052C48.163,653.083,46.212,649.135,42.724,646.899L42.724,646.899z M223.245,290.578
		c4.075,0.434,8.182,0.136,12.279,0.591c13.629,1.516,26.301,5.826,38.083,12.811c0.969,0.575,1.88,1.436,3.094,0.299
		c2.773-2.595,5.679-5.052,8.386-7.714c1.813-1.782,1.518-3.464-0.642-4.469C264.294,282.716,243.869,283.161,223.245,290.578
		L223.245,290.578z M95.509,580.556c-2.947-0.589-5.206-0.045-7.428,0.37c-14.587,2.728-26.324,9.497-31.511,24.189
		c-3.29,9.319-2.998,19.122-1.415,28.803c0.493,3.015,1.795,5.877,3.641,8.364c4.363,5.882,9.311,11.212,15.326,15.455
		c2.271,1.603,4.489,3.349,7.587,3.754c-0.734-1.232-2.044-1.855-2.95-2.846c-8.575-9.398-14.062-20.44-15.311-33.053
		c-1.589-16.055,6.363-27.898,18.472-37.437C85.885,585.033,90.385,582.796,95.509,580.556L95.509,580.556z M148.53,245.826
		c1.379,5.808,2.29,11.504,1.748,17.332c-0.234,2.518-1.024,4.687-2.915,6.463c-4.69,4.404-5.246,7.129-2.405,12.858
		c1.875,3.781,4.071,7.4,6.02,11.145c2.162,4.152,3.407,8.449,1.272,13.038c-0.669,1.437,0.064,2.089,1.257,2.683
		c5.351,2.665,7.926,7.372,9.341,12.898c0.282,1.105,0.504,2.224,0.767,3.395c1.297-0.485,1.76-1.671,2.652-2.367
		c3.062-2.393,3.324-4.911,1.414-8.413c-3.202-5.871-4.33-12.342-3.467-19.025c0.377-2.922,1.141-5.793,1.722-8.688
		c0.988-4.933,0.476-6.282-3.354-8.885c-4.394-2.987-5.014-4.707-3.58-9.883c0.282-1.016,0.538-2.039,0.782-3.064
		C162.021,255.895,158.203,249.122,148.53,245.826L148.53,245.826z M88.24,211.908c-1.105-0.855-2.352-0.903-3.559-1.129
		c-5.708-1.067-11.389,0.334-17.081,0.117c-0.894-0.033-2.473,0.704-2.563-0.848c-0.064-1.11,1.403-0.998,2.309-1.155
		c4.866-0.844,9.797-0.927,15.42-1.061c-2.844-2.067-3.904-5.19-7.152-5.767c-5.295-0.937-10.527-0.675-15.653,0.98
		c-1.072,0.346-2.61,0.475-2.911,1.623c-0.382,1.459,1.227,2.111,2.174,2.77c2.2,1.532,2.115,2.482-0.317,3.622
		c-2.997,1.404-6.242,3.1-6.932,6.522c-1.444,7.162-1.622,14.575-5.172,21.647c1.121-0.094,1.417-0.073,1.684-0.151
		c0.607-0.177,1.211-0.372,1.795-0.612c7.61-3.132,14.7-6.999,19.711-13.844c0.677-0.925,1.482-2.218,2.653-2.011
		c1.37,0.242,0.55,1.776,0.799,2.713c0.489,1.84,0.67,4.267,2.39,4.949c1.831,0.729,2.836-1.679,4.177-2.751
		c0.409-0.327,0.727-0.766,1.113-1.126c2.464-2.283,3.369-2.242,5.061,0.656c1.224,2.095,2.199,2.124,3.112-0.044
		c1.875-4.448,4.033-8.372,9.88-6.324c0.365-1.527-0.377-2.271-0.714-3.125c-2.095-5.312-2.986-5.63-8.532-3.512
		c-1.856,0.709-3.685,1.97-6.084,1.084C84.915,213.315,87.09,213.344,88.24,211.908L88.24,211.908z M188.849,302.854
		c0.753-0.543,1.497-1.098,2.26-1.626c17.921-12.399,37.4-20.392,59.469-21.168c11.743-0.414,22.892,2.054,33.572,6.764
		c2.253,0.994,2.875,0.411,3.07-1.852c0.343-4,0.738-8.011,1.446-11.956c0.386-2.151-0.445-2.762-2.24-3.271
		c-6.347-1.799-12.734-1.616-19.178-0.741c-6.485,0.88-13.018,2.205-19.475,0.119c-1.845-0.596-3.362-0.609-5.153-0.044
		c-10.849,3.419-21.057,8.194-30.669,14.252C203.342,288.756,195.226,294.791,188.849,302.854L188.849,302.854z M420.22,537.208
		c-0.768-15.294,2.716-29.132,10.494-41.832c1.055-1.724,0.409-2.602-0.764-3.742c-7.899-7.683-17.922-9.169-28.46-10.102
		c6.383,16.581,6.012,33.027,1.185,49.59C409.29,530.833,412.045,531.785,420.22,537.208L420.22,537.208z M165.809,98.845
		c2.977,1.722,4.576,3.456,5.726,5.59c1.635,3.035,2.193,3.125,4.549,0.619c1.428-1.518,2.241-3.317,2.557-5.341
		c1.399-8.952-3.088-15.328-11.982-17.016c-1.354-0.257-2.38-0.807-1.584-2.288c1.303-2.426-0.236-3.539-1.91-4.56
		c-4.476-2.729-12.131-1.253-15.244,2.969c-1.7,2.305-1.623,4.759,0.072,7.04c0.745,1.003,1.771,1.799,2.677,2.681
		c2.276,2.214,2.121,3.094-0.744,4.195c-6.138,2.358-6.8,4.098-3.562,9.905c2.633,4.721,5.029,9.467,5.54,15.01
		c0.304,3.291,2.031,4.446,5.366,4.517c6.239,0.132,16.045-9.688,11.361-17.893C167.773,102.771,167.03,101.203,165.809,98.845
		L165.809,98.845z M72.287,267.641c-3.382,2.034-7.395,2.797-10.272,5.606c-2.453,2.396-2.677,4.347-0.285,6.382
		c1.993,1.695,1.56,2.728-0.205,4.191c-3.566,2.957-3.715,6.066-0.445,9.38c4.277,4.335,9.479,5.348,15.168,3.507
		c2.395-0.775,3.95-0.455,5.205,1.844c1.254,2.296,3.143,4.046,5.886,4.368c9.768,1.148,23.966-4.302,22.663-17.974
		c-0.266-2.792,0.956-4.686,4.041-4.959c0.83-0.073,1.664-0.339,2.448-0.64c3.972-1.528,4.794-6.554,1.457-9.233
		c-1.053-0.844-2.306-1.533-3.576-1.996c-2.53-0.922-3.486-2.504-2.752-5.129c0.796-2.849-0.72-4.384-3.175-5.307
		c-1.905-0.718-3.882-0.917-5.912-0.849c-6.293,0.211-12.572,0.328-18.523,2.909c-1.436,0.623-1.996,0.916-0.931,2.319
		c0.501,0.661,0.714,1.534,1.175,2.233c1.184,1.795,2.815,1.686,3.765-0.273c0.738-1.525,1.405-3.081,2.643-4.284
		c1.761-1.711,3.94-2.06,4.999,0.243c1.421,3.092,3.008,2.726,5.493,1.585c2.223-1.019,4.164,0.061,5.374,2.073
		c1.188,1.974,0.228,3.593-1.154,5.106c-1.158,1.268-2.85,1.65-4.312,2.575c2.931,1.91,3.798,3.328,3.447,5.649
		c-0.373,2.47-2.01,3.631-4.356,3.814c-1.128,0.088-1.243,0.615-1.402,1.591c-0.713,4.412-3.794,5.94-7.837,4.081
		c-0.779-0.358-1.292-1.448-2.401-1.041c-0.516,4.61-1.692,6.493-4.11,6.629c-2.483,0.139-4.264-1.872-5.047-5.765
		c-1.977,0.968-3.833,3.251-6.215,1.115c-2.964-2.659,1.031-4.303,1.287-6.646c-0.697,0.074-1.215,0.153-1.736,0.182
		c-2.573,0.137-5.058-0.128-5.776-3.146c-0.622-2.608,0.8-4.161,3.258-4.891c0.646-0.193,1.205-0.514,0.78-1.354
		C70.052,269.757,71.608,268.933,72.287,267.641L72.287,267.641z M107.155,582.017c-5.645,0.387-14.621,3.923-21.036,8.501
		c-11,7.849-18.476,17.936-17.66,32.062c0.989,17.13,8.721,30.836,22.905,40.694c2.456,1.707,5.149,3.062,8.403,3.837
		C78.679,635.514,80.854,603.964,107.155,582.017L107.155,582.017z M241.043,672.97c18.514-5.818,33.327-25.986,33.346-46.136
		c0.021-22.446-9.22-40.908-26.46-55.228c-6.439-5.347-13.978-8.53-22.857-9.579c20.678,11.453,31.402,29.465,35.321,51.529
		C264.424,636.253,258.253,656.231,241.043,672.97L241.043,672.97z M121.597,118.63c-0.076-2.344,0.256-4.528,1.077-6.62
		c0.295-0.748,0.489-1.843,1.599-1.596c1.047,0.233,0.973,1.199,0.831,2.085c-0.168,1.042-0.266,2.096-0.424,3.14
		c-0.706,4.646,0.638,8.788,3.152,12.615c2.565,3.906,6.503,5.039,10.766,3.08c2.629-1.208,4.79-3.081,6.762-5.166
		c3.639-3.848,4.474-8.211,2.467-13.149c-1.244-3.059-3.007-5.814-4.787-8.559c-3.962-6.111-5.039-6.304-10.953-2.148
		c-0.345,0.242-0.693,0.482-1.054,0.701c-0.866,0.523-1.76,0.777-2.647,0.072c-0.847-0.673-1.016-1.499-0.624-2.535
		c0.408-1.075,0.734-2.15,0.509-3.386c-0.739-4.069-3.319-6.277-7.491-6.256c-4.363,0.023-9.833,3.538-10.227,6.676
		c-0.099,0.792,0.008,1.8,0.433,2.431c1.431,2.127,0.461,3.197-1.416,4.19c-4.002,2.119-6.541,5.355-6.846,9.982
		c-0.42,6.376,4.816,13.623,10.992,15.512c2.527,0.773,4.995,0.653,7.486-0.084c1.747-0.516,2.754-1.213,1.778-3.35
		C121.879,123.851,121.453,121.217,121.597,118.63L121.597,118.63z M502.101,655.416c14.503,1.825,14.502,1.879,26.774,10.331
		c4.257,2.932,8.768,5.491,13.043,8.399c12.037,8.185,25.368,7.846,39.074,5.975c-3.932-6.897-7.962-13.796-11.828-20.786
		c-7.905-14.295-20.413-18.888-40.521-12.507c5.093,1.383,9.444,3.377,13.388,6.293c7.384,5.459,13.004,13.189,22.531,16.773
		c-2.794,1.194-4.59,0.226-6.323-0.591c-5.204-2.457-9.596-6.121-14.043-9.689c-3.135-2.515-6.283-5.023-9.924-6.765
		c-4.206-2.013-8.623-4.075-13.319-3.346C514.422,650.517,508.317,653.255,502.101,655.416L502.101,655.416z M166.023,675.084
		c-33.194-28.067-28.826-87.169,10.961-111.246c-3.574,0.331-6.705,1.084-9.735,2.257c-14.459,5.597-24.181,16.244-31.245,29.606
		c-14.956,28.291-7.029,58.612,19.49,74.72C158.591,672.303,161.785,674.069,166.023,675.084L166.023,675.084z M558.927,571.119
		c0.034-1.27-0.609-1.986-1.262-2.681c-1.967-2.095-4.266-3.805-6.662-5.345c-4.428-2.847-8.163-6.287-10.762-10.951
		c-1.583-2.839-4.19-4.666-7.002-6.254c-6.14-3.468-6.162-3.538-9.835,2.753c-1.644,2.817-3.82,4.778-7.113,5.232
		c-4.351,0.6-9.926-2.293-11.965-6.201c-1.415-2.712-2.519-5.61-4.155-8.176c-3.812-5.981-9.482-8.428-16.491-8.014
		c-1.861,0.11-3.112,0.796-3.872,2.639c-1.366,3.315-2.911,6.559-4.467,9.79c-0.577,1.197-0.59,2.03,0.445,3.052
		c5.584,5.516,9.658,12.155,12.17,19.454c1.661,4.827,5.128,7.499,8.583,10.493c0.823,0.713,1.908,1.488,2.495-0.113
		c1.622-4.43,4.871-4.003,8.326-2.915c8.627,2.715,16.706,1.426,24.282-3.316c6.578-4.117,13.165-3.804,19.863-0.37
		c1.593,0.818,3.224,1.592,4.908,2.188C557.652,572.822,558.715,572.452,558.927,571.119L558.927,571.119z M90.795,169.398
		c-2.971,1.521-6.113,1.891-8.305,4.211c-3.729,3.949-3.535,5.941,1.087,8.503c0.277,0.154,0.572,0.281,0.833,0.459
		c2.313,1.579,2.525,3.935,0.452,5.838c-0.76,0.698-1.695,1.207-2.829,1.996c3.673,1.579,7.132,3.032,10.556,4.564
		c0.834,0.374,2.053,0.953,1.599,2.018c-0.571,1.339-1.773,0.564-2.698,0.161c-3.386-1.474-6.744-3.014-10.148-4.443
		c-0.932-0.392-2.052-0.859-2.902,0.226c-0.702,0.895-0.726,1.957-0.492,3.029c0.334,1.529,1.564,2.168,2.803,2.799
		c1.623,0.827,3.537,1.178,4.793,2.683c-0.858,1.118-2.173-0.083-2.998,0.985c1.115,2.482,3.038,4.202,5.4,5.502
		c16.913,9.303,32.88-2.348,38.756-16.925c0.677-1.68-0.275-1.685-1.538-1.497c-3.761,0.56-7.526,1.093-11.299,1.564
		c-0.916,0.116-2.253,0.217-2.466-0.848c-0.242-1.207,1.132-1.276,1.999-1.528c3.87-1.12,7.849-1.686,11.836-2.132
		c2.547-0.285,3.607-1.63,3.952-4.064c0.342-2.411-0.555-3.706-2.767-4.571c-3.059-1.198-6.123-2.207-9.395-2.716
		c-2.096-0.325-4.414,0.005-6.357-1.411c0.967-1.249,2.23-0.877,3.32-0.842c3.601,0.117,7.126,0.749,10.619,1.662
		c0.911,0.238,2.165,1.265,2.889,0.175c0.585-0.88-0.331-1.987-0.82-2.895c-5.689-10.552-19.451-17.186-31.235-14.832
		c-6.043,1.208-10.767,4.326-12.622,10.643c-0.519,1.767-0.458,2.951,2.049,2.21C86.615,169.405,88.444,168.691,90.795,169.398
		L90.795,169.398z M415.735,163.596c-3.115-3.425-5.466-6.918-6.767-10.948c-0.792-2.454-1.961-2.548-4.148-1.772
		c-23.895,8.478-43.994,22.348-59.813,42.203c-8.506,10.675-15.436,22.167-17.525,36.045c-2.343,15.57-4.347,31.18-5.861,46.85
		c-0.567,5.88-1.416,11.766-0.882,17.709c0.092,1.028-0.02,2.156,1.061,2.83c2.103,1.31,4.202,2.628,6.351,3.972
		c0.206-0.506,0.337-0.683,0.344-0.866c0.033-0.951,0.023-1.903,0.049-2.853c0.535-19.711,2.697-39.205,8.276-58.182
		c5.314-18.073,13.345-34.681,27.043-48.063C378.28,176.438,395.911,168.497,415.735,163.596L415.735,163.596z M189.377,568.456
		c-0.504-0.388-1.201-0.667-1.468-1.173c-1.539-2.915-3.642-1.999-5.814-0.991c-2.785,1.293-5.433,2.815-7.907,4.638
		c-21.285,15.679-31.244,44.339-24.196,70.304c4.537,16.713,13.785,29.784,30.082,36.988c4.09,1.807,8.399,2.855,13.413,3.032
		C163.298,656.681,161.569,598.121,189.377,568.456L189.377,568.456z M109.215,576.483c3.271,3.905,7.151,2.995,11.097,2.118
		c0.985-0.22,2.64-0.887,2.995,0.587c0.302,1.258-0.975,2.281-2.166,2.814c-0.851,0.382-2.13,0.972-2.702,0.623
		c-3.441-2.098-4.742,1.077-6.81,2.474c-10.506,7.09-17.016,17.046-19.766,29.197c-3.872,17.103,1.387,32.608,9.855,47.212
		c4.052,6.986,8.715,7.407,14.695,1.88c5.015-4.637,7.983-10.564,10.417-16.824c0.649-1.67,0.638-3.17,0.081-4.893
		c-4.051-12.515-4.022-25.203,0.942-37.249c2.638-6.401,0.759-10.846-2.497-15.656c-0.827-1.223-1.843-2.316-2.714-3.511
		c-0.624-0.858-1.385-1.925-0.309-2.814c2.99-2.471,2.457-5.612,1.814-8.749c-1.475-7.202-4.086-13.806-10.449-18.181
		c-2.323-1.597-4.879-2.631-7.734-1.262c-1.579,0.757-3.195,1.928-3.154,3.633c0.032,1.383,2.054,0.993,3.161,1.339
		c8.684,2.71,10.566,10.131,4.079,16.354C109.753,575.86,109.49,576.183,109.215,576.483L109.215,576.483z M178,310.264
		c2.398-3.413,4.873-6.625,7.68-9.586c2.841-2.997,5.816-5.846,9.096-8.367c13.056-10.038,27.242-18.16,42.269-24.833
		c2.601-1.155,5.323-2.047,8.017-2.98c3.047-1.054,1.604-3.538,1.573-5.36c-0.037-2.144-1.767-0.769-2.643-0.663
		c-10.835,1.296-18.223-2.385-22.539-11.333c-1.777-3.687-1.199-4.841,2.849-5.589c0.723-0.134,1.472-0.152,2.21-0.181
		c8.43-0.333,15.476,2.618,21.159,9.267c1.002-2.804,0.72-5.478,1.253-8.011c0.575-2.743,0.194-4.44-3.252-3.412
		c-0.757,0.226-1.678-0.027-2.511-0.143c-8.45-1.183-14.219-6.494-19.461-12.634c-1.153-1.351-1.994-3.027-3.783-4.155
		c0.786,5.393,0.781,5.367-4.384,6.473c-6.234,1.335-12.379,1.123-18.457-0.856c-3.22-1.048-6.47-1.96-9.902-1.992
		c-1.758-0.016-2.695,0.388-2.471,2.535c0.582,5.572,0.847,11.175,1.377,16.752c1.581,16.648,1.39,33.149-3.577,49.325
		C180.901,299.737,179.495,305.015,178,310.264L178,310.264z M216.401,679.302c5.656,0.011,10.184-1.614,14.422-4.096
		c9.14-5.353,15.603-13.175,20.314-22.523c15.004-29.775,0.76-65.104-18.155-80.341c-5.998-4.832-12.527-8.225-20.44-8.235
		c-0.896-0.001-2.057-0.634-2.61,0.339c-0.462,0.816,0.56,1.486,1.012,2.137c3.339,4.813,5.861,10.041,7.778,15.546
		c6.817,19.573,9.632,39.813,9.204,60.451C227.656,655.606,225.263,668.216,216.401,679.302L216.401,679.302z M492.731,649.912
		c1.865-0.915,2.854-2.535,3.862-4.076c7.508-11.483,18.092-19.016,30.614-24.156c9.218-3.784,18.852-6.177,28.442-8.715
		c1.428-0.377,3.704-2.173,4.401,0.069c0.629,2.024-2.134,2.207-3.594,2.652c-7.974,2.428-16.074,4.463-23.981,7.086
		c-14.989,4.973-28.377,12.219-35.747,27.256c-0.442,0.903-1.724,1.81-0.964,2.776c0.646,0.821,1.994,0.314,3.016,0.103
		c5.115-1.053,9.739-3.452,14.506-5.428c14.431-5.984,29.359-10.726,43.439-17.589c9.072-4.423,17.027-10.194,23.2-18.246
		c1.963-2.562,3.804-5.225,4.343-8.858c-0.667,0.107-1.069,0.122-1.44,0.236c-8.612,2.648-17.343,2.238-26.06,0.824
		c-10.168-1.651-19.739-0.519-28.669,4.996c-3.436,2.122-7.169,1.322-10.096-1.573c-2.284-2.26-2.642-5.165-0.706-8.748
		c1.703-3.153,3.737-6.126,5.572-9.211c1.413-2.374,2.736-4.831,2.323-7.728c-0.19-1.332-0.451-2.708-2.501-2.49
		c-5.091,0.541-10.329,0.473-14.208,4.713c-0.617,0.674-1.562,1.08-2.405,1.514c-8.052,4.153-11.075,11.646-11.767,19.817
		c-1.31,15.491-2.283,30.974-7.466,45.811c-0.209,0.6-0.536,1.333,0.132,1.711c0.877,0.494,1.306-0.265,1.663-0.938
		c0.345-0.653,0.695-1.303,1.027-1.962c3.679-7.293,6.024-15.068,8.272-22.88c1.44-5.006,3.285-9.832,7.015-13.662
		c0.959-0.985,1.888-2.129,3.827-1.908C499.706,622.725,499.269,637.531,492.731,649.912L492.731,649.912z M97.183,374.756
		c4.124,0.094,7.576-0.086,10.327-2.654c1.565-1.462,3.495-3.148,3.143-5.209c-0.299-1.751-2.906-1.727-4.541-2.262
		c-5.138-1.681-10.499-2.299-15.833-3.036c-0.864-0.119-2.182-0.264-1.96-1.556c0.198-1.153,1.401-0.668,2.14-0.609
		c6.448,0.519,12.773,1.759,18.783,4.145c2.704,1.072,3.33,0.054,3.601-2.277c0.38-3.268-0.328-6.277-1.781-9.187
		c-1.908-3.818-4.588-7.081-7.249-10.368c-2.264-2.795-4.428-5.661-5.781-9.044c-0.341-0.852-0.53-1.692,0.489-2.165
		c0.969-0.45,1.3,0.376,1.62,1.028c4.28,8.704,11.56,15.61,14.749,25.23c2.948-3.259,3.308-7.174,4.266-11.514
		c2.281,4.844,1.745,8.724-0.774,12.377c-1.137,1.65-2.491,3.148-3.7,4.749c-1.261,1.67-1.489,3.063,0.722,4.338
		c2.658,1.532,4.929,3.615,7.109,5.792c2.733,2.731,4.767,5.922,6.339,9.963c2.403-5.181,4.65-9.718,6.178-14.566
		c0.246-0.783,0.737-1.457-0.227-2.223c-4.059-3.223-4.612-7.848-4.826-12.567c-0.148-3.271,0.087-6.593-0.41-9.805
		c-1.142-7.375-4.222-9.417-11.559-8.168c-3.36,0.572-5.19-0.38-6.521-3.561c-0.732-1.749-1.225-3.596-1.935-5.355
		c-2.886-7.145-9.616-9.207-15.996-4.869c-3.976,2.702-6.606,6.501-8.324,10.93c-2.308,5.951-1.179,9.177,4.282,12.517
		c2.164,1.323,4.42,2.534,5.971,4.63c2.092,2.826,1.376,5.838-1.765,7.37c-2.095,1.022-4.268,1.119-6.448,0.243
		c-2.447-0.982-4.874-2.015-7.329-2.978c-3.338-1.308-6.643-1.115-9.812,0.514c-5.624,2.892-6.225,7.273-1.647,11.593
		c1.556,1.469,3.346,2.567,5.336,3.348c2.782,1.092,5.75,1.331,8.643,1.916c2.823,0.57,5.573,1.347,7.64,3.521
		c2.451,2.577,1.978,4.405-1.396,5.519c-2.603,0.858-5.304,1.476-7.816,2.544c-3.874,1.646-5.114,4.334-4.308,8.46
		c1.23,6.295,7.313,9.975,13.441,8.103c3.571-1.092,6.72-3.058,9.917-4.913c3.487-2.022,7.027-3.914,11.075-4.537
		c3.333-0.513,6.545-0.122,9.448,1.72c0.896,0.568,1.795,1.37,1.588,2.54c-0.171,0.963-1.255,0.936-2.042,1.195
		c-4.724,1.553-7.519,4.931-8.82,9.601c-1.15,4.129,0.537,7.77,4.244,9.948c1.644,0.966,2.335,0.653,2.796-1.152
		c2.483-9.726,5.725-19.207,9.38-28.551c0.382-0.976,0.622-1.803-0.039-2.942c-2.69-4.632-5.986-8.687-10.278-11.921
		c-3.61-2.72-3.593-2.743-5.599,1.324C108.94,377.501,101.984,379.187,97.183,374.756L97.183,374.756z M45.514,577.86
		c9.092,0,17.865-0.162,26.627,0.07c4.335,0.114,8.578,0.422,12.84-0.843c4.384-1.302,8.999-1.791,13.499-1.161
		c3.607,0.504,6.1-1.089,8.575-3.025c3.935-3.079,3.197-7.559-1.535-9.28c-1.662-0.604-3.494-0.75-5.254-1.074
		c-1.461-0.27-2.697-0.758-2.608-2.562c0.327-6.646,6.46-11.487,13.01-10.345c2.577,0.449,4.79,1.6,6.816,3.175
		c3.947,3.067,6.56,7.115,8.502,11.65c0.4,0.935,0.492,2.251,1.855,2.266c5.193,0.061,10.357,0.464,15.797,1.504
		c-2.61-4.065-4.938-7.699-7.275-11.328c-0.691-1.074-1.476-2.07-2.592-2.741c-17.598-10.584-29.907-26.202-40.94-43.031
		c-0.81-1.235-1.582-2.505-2.243-3.823c-0.484-0.965-1.503-2.192-0.041-3.025c1.272-0.724,1.801,0.625,2.407,1.44
		c0.377,0.507,0.691,1.062,1.032,1.597c7.474,11.749,16.45,22.253,26.493,31.862c3.141,3.005,6.476,5.783,10.618,8.451
		c-1.863-4.038-3.495-7.458-5.028-10.921c-4.544-10.265-7.856-20.933-10.247-31.889c-0.483-2.212-1.031-3.5-3.529-1.698
		c-2.198,1.587-4.762,1.729-7.228,0.508c-2.168-1.076-4.342-2.188-6.354-3.525c-6.774-4.504-13.561-8.985-20.618-13.039
		c-1.797-1.032-3.544-2.26-5.948-2.575c0.51,7.021,1.921,13.713,3.487,20.386c1.775,7.557,5.349,14.429,8.093,21.619
		c3.295,8.632,1.751,13.803-5.671,19.322c-2.965,2.205-6.044,4.264-9.135,6.291C58.894,558.69,51.721,567.808,45.514,577.86
		L45.514,577.86z M223.927,637.254c-0.379-16.221-2.401-32.204-7.109-47.778c-2.393-7.919-5.572-15.497-10.442-22.264
		c-2.754-3.825-3.774-4.003-7.608-1.205c-5.001,3.649-9.28,8.037-12.497,13.331c-13.989,23.027-16.075,47.406-7.639,72.738
		c3.315,9.954,8.728,18.636,17.202,25.309c5.292,4.168,14.894,3.755,18.868-2.646c1.672-2.695,3.453-5.303,4.632-8.261
		C223.079,657.086,224.011,647.255,223.927,637.254L223.927,637.254z M291.694,292.814c8.222-3.176,15.957-2.614,23.531,0.632
		c2.159,0.925,2.557,0.345,2.716-1.805c0.701-9.483,1.428-18.968,2.436-28.421c1.231-11.546,1.826-23.21,4.72-34.505
		c7.051-27.52,23.534-48.261,46.714-64.049c10.187-6.938,21.355-11.955,32.795-16.407c1.335-0.52,2.946-0.68,2.485-2.877
		c-1.075-5.117-1.069-10.307-0.461-15.462c0.27-2.291-0.615-2.695-2.578-2.681c-5.196,0.038-10.353,0.46-15.433,1.523
		c-22.789,4.767-40.45,17.497-54.628,35.495c-12.109,15.371-20.251,32.816-26.518,51.236
		C298.991,240.425,294.719,266.197,291.694,292.814L291.694,292.814z M482.746,528.2c2.563,0.215,5.191-0.353,7.775,0.253
		c6.253,1.467,10.24,5.588,13.187,11.013c1.612,2.967,3.09,6.046,5.509,8.478c3.097,3.117,6.608,2.736,9.013-0.905
		c0.64-0.97,1.243-1.965,1.902-2.921c4.68-6.787,7.741-7.848,15.61-5.45c5.657,1.725,11.32,3.438,17.261,3.909
		c6.294,0.498,11.157-1.921,14.37-7.353c3.783-6.395,1.793-12.342-5.078-15.248c-2.717-1.15-5.56-1.996-8.311-3.066
		c-2.56-0.996-4.369-2.692-4.156-5.68c0.214-2.984,2.353-4.327,4.902-5.143c2.575-0.824,5.231-0.487,7.871-0.48
		c5.701,0.018,8.611-2.106,10.248-7.546c1.56-5.184,1.609-10.426,0.046-15.625c-2.819-9.372-9.512-12.596-18.614-8.94
		c-3.034,1.219-5.932,2.78-8.982,3.954c-5.583,2.151-8.123,0.249-8.093-5.824c0.021-4.21,2.168-7.644,3.937-11.237
		c2.063-4.191,0.275-7.123-4.425-7.161c-6.904-0.055-11.488,3.634-14.53,9.5c-1.613,3.109-2.479,6.503-3.235,9.91
		c-0.818,3.686-3.082,6.201-6.373,7.824c-3.404,1.679-6.122,0.863-8.183-2.321c-2.334-3.609-2.531-7.53-1.647-11.593
		c0.494-2.266,1.269-4.498,1.49-6.787c0.319-3.316-2.265-5.676-5.769-5.642c-3.398,0.032-4.311,1.074-4.205,5.036
		c0.333,12.403-0.485,24.72-2.651,36.942c-1.115,6.295-2.585,12.511-4.608,19.213c1.144-0.81,1.745-1.217,2.327-1.651
		c13.4-9.978,27.842-17.998,43.749-23.252c6.717-2.218,13.447-4.398,20.201-6.502c1.242-0.386,3.035-2.111,3.805-0.151
		c0.639,1.627-1.593,2.175-2.867,2.737c-6.192,2.732-12.659,4.724-19.087,6.783c-15.711,5.035-30.358,12.075-43.765,21.791
		C486.715,518.439,483.735,522.456,482.746,528.2L482.746,528.2z M465.698,575.512c1.946,2.882,0.531,4.799-1.073,6.503
		c-2.587,2.751-6.014,3.867-9.656,4.255c-1.736,0.184-2.213,0.836-2.148,2.584c0.231,6.189-1.214,11.764-6.556,15.654
		c-0.896,0.652-0.923,1.57-0.93,2.542c-0.064,9.316-0.827,18.595-2.009,27.82c-1.934,15.094-4.01,30.189-10.134,44.324
		c-0.798,1.84-0.055,2.77,1.194,3.711c3.816,2.877,8.093,2.796,12.421,1.713c15.036-3.764,24.438-13.508,29.495-27.885
		c3.273-9.307,5.445-18.87,6.739-28.626c2.174-16.395,3.53-32.836,0.291-49.244c-2.784-14.106-8.742-26.457-20.85-35.064
		c-10.607-7.539-22.57-6.751-32.223,1.929c-1.343,1.207-1.309,1.994-0.402,3.401c3.277,5.082,5.859,10.541,7.722,16.278
		c1.188,3.656,2.047,7.26,6.512,8.336c0.928,0.225,1.693,1.226,2.477,1.931c3.411,3.068,4.47,2.999,7.506-0.444
		c0.427-0.485,0.475-1.397,1.63-1.436c-0.386,2.581-1.192,4.745-3.576,6.03c-0.747,0.403-1.582,0.757-1.112,1.892
		c0.444,1.071,1.096,1.854,2.387,1.577C458.285,582.247,463.221,581.274,465.698,575.512L465.698,575.512z M380.186,542.518
		c-7.256-3.981-14.662-4.814-22.348-3.148c-14.345,3.11-24.385,12.104-31.038,24.602c-14.244,26.759-16.219,54.746-4.978,82.892
		c7.526,18.842,21.567,31.825,41.09,38.324c6.557,2.182,13.209,2.75,19.893,0.321c1.745-0.635,2.106-1.252,0.742-2.802
		c-4.812-5.466-7.966-11.92-10.603-18.632c-6.904-17.567-10.537-35.819-11.183-54.665c-0.068-1.995-0.627-3.117-2.507-4.155
		c-6.406-3.539-9.972-9-9.773-16.504c0.043-1.644-0.331-2.145-2.017-2.191c-3.79-0.108-7.293-1.318-10.193-3.809
		c-2.054-1.766-3.479-3.878-1.824-7.124c2.771,5.766,7.832,7.004,13.135,7.811c1.185,0.179,2.117-0.184,2.511-1.384
		c0.443-1.349-0.836-1.288-1.482-1.537c-3.246-1.252-4.589-3.756-5.009-7.561c1.991,2.352,3.733,4.271,6.13,5.445
		c1.205,0.591,2.11,0.706,3.028-0.462c2.443-3.106,5.701-4.985,9.479-5.974c0.935-0.245,1.382-0.683,1.646-1.625
		C367.791,559.945,372.237,550.367,380.186,542.518L380.186,542.518z M232.681,559.034c-0.144-0.953-0.155-1.273-0.242-1.572
		c-7.589-26.368-10.334-53.442-11.778-80.708c-1.031-19.452,1.889-38.581,4.73-57.713c0.218-1.47,0.186-2.543-0.793-3.765
		c-5.066-6.321-6.871-13.474-4.902-21.399c0.44-1.771,0.031-2.133-1.691-2.186c-4.158-0.128-8.212-0.825-11.668-3.418
		c-2.449-1.837-3.183-3.155-3.102-5.684c4.406,6.027,11.252,5.333,17.301,6.744c0.775,0.181,1.545-0.054,1.751-0.932
		c0.188-0.803-0.553-1.032-1.104-1.321c-1.028-0.538-2.107-0.995-3.085-1.611c-4.961-3.125-8.464-7.423-10.467-12.902
		c0.945,0.582,1.599,1.397,2.279,2.191c3.269,3.815,6.939,7.067,11.775,8.833c1.91,0.697,3.346,0.651,4.732-1.068
		c1.816-2.25,4.203-3.897,6.874-4.968c1.569-0.63,2.175-1.673,2.705-3.165c8.056-22.674,19.34-43.594,34.151-62.588
		c0.691-0.886,1.651-1.653,1.819-3.088c-4.945-1.367-9.831-0.767-14.697,0.242c-11.728,2.431-20.154,9.857-27.589,18.605
		c-14.849,17.468-23.835,38.002-30.656,59.607c-9.96,31.547-13.688,63.957-13.134,96.933c0.221,13.139,1.895,26.108,4.767,38.934
		c0.442,1.978,1.069,3.155,3.352,3.406c2.846,0.314,5.462,1.596,7.933,3.049c10.067,5.919,15.35,19.149,8.194,29.36
		c-0.127,0.181-0.016,0.529-0.016,1.217C217.489,557.334,224.858,556.941,232.681,559.034L232.681,559.034z M367.698,615.124
		c0.697,14.654,3.243,28.962,8.425,42.714c3.25,8.623,6.701,17.282,13.983,23.433c12.855,10.859,32.444,8.772,39.459-8.516
		c1.148-2.83,2.197-5.725,2.997-8.67c4.748-17.489,5.67-35.416,6.073-53.412c0.062-2.742-0.698-3.517-3.438-3.711
		c-8.948-0.635-15.629-7.672-16.415-16.846c-0.726-8.487,4.891-16.97,12.929-19.115c1.825-0.487,1.915-1.174,1.407-2.578
		c-1.761-4.872-3.656-9.688-6.244-14.191c-3.303-5.747-7.321-10.867-12.97-14.53c-2.818-1.827-5.791-3.063-9.247-2.57
		c-9.789,1.398-18.225,5.226-24.272,13.417c-4.196,5.682-6.982,12.032-9.109,18.72c-0.473,1.487-0.291,2.242,1.397,2.762
		c7.884,2.431,11.363,8.439,12.223,16.118c1.122,10.025-4.292,17.952-12.774,19.368c-1.521,0.254-3.681-0.687-4.422,0.733
		c-0.691,1.324-0.164,3.292-0.146,4.976C367.561,613.858,367.647,614.491,367.698,615.124L367.698,615.124z M449.85,334.374
		c7.187,9.353,12.925,18.45,18.097,27.9c0.832,1.52,1.717,1.129,2.851,0.586c3.343-1.6,6.775-3.048,10.427-3.695
		c4.801-0.85,9.663-1.51,14.019,1.674c10.156,7.422,20.931,7.006,31.836,2.16c9.86-4.381,15.93-13.819,14.668-23.36
		c-1.719-13.014-6.189-17.422-18.597-17.911c-5.338-0.211-10.57,0.551-15.593,2.317c-5.779,2.03-10.801,0.165-15.62-2.734
		c-2.225-1.338-3.385-3.467-3.03-6.18c0.348-2.666,2.171-3.99,4.526-4.749c1.305-0.42,2.649-0.72,3.962-1.115
		c9.849-2.967,19.401-6.611,28.004-12.388c6.748-4.53,10.86-10.792,12.354-18.796c1.548-8.283-0.843-12.609-8.738-15.511
		c-2.383-0.876-4.852-1.39-7.398-1.631c-7.517-0.708-14.726,0.72-21.831,2.963c-3.75,1.184-7.55,2.274-11.512,1.57
		c-4.825-0.859-9.457-2.606-11.54-7.366c-1.908-4.361,1.273-7.553,3.844-10.683c10.323-12.561,8.232-31.391-4.338-41.635
		c-7.324-5.969-15.075-6.512-23.424-2.927c-8.303,3.566-13.558,9.612-14.52,18.816c-0.56,5.357-0.762,10.751-1.224,16.119
		c-0.271,3.142-1.488,5.778-4.822,6.732c-3.041,0.87-5.919-0.418-7.944-3.809c-1.511-2.528-2.672-5.268-3.925-7.944
		c-2.729-5.833-7.408-8.775-13.712-9.245c-18.013-1.341-30.418,12.026-28.385,30.398c0.717,6.477,2.666,12.575,4.967,18.603
		c1.085,2.844,1.758,5.769,0.056,8.548c-1.252,2.044-0.729,2.784,1.419,3.505c14.83,4.972,27.911,12.994,39.736,23.143
		c2.544,2.183,5.04,4.42,7.614,6.682c2.155-5.166,2.126-5.139-1.328-8.834c-2.091-2.238-4.255-4.442-6.076-6.892
		c-13.115-17.657-17.741-38.03-18.709-59.506c-0.069-1.528-1.132-4.377,1.2-4.46c1.641-0.058,0.98,2.811,0.975,4.357
		c-0.042,10.511,0.713,20.876,4.098,30.956c4.263,12.693,10.362,24.261,19.78,33.918c2.465,2.528,2.316,2.429,3.858-0.589
		c3.513-6.874,5.979-14.19,9.18-21.193c5.224-11.428,10.402-22.872,14.676-34.706c3.121-8.641,6.4-17.228,10.848-25.303
		c0.47-0.852,0.834-2.357,2.155-1.82c1.578,0.641,0.643,2.059,0.24,3.013c-1.523,3.596-3.294,7.089-4.776,10.701
		c-7.57,18.448-13.549,37.553-23.061,55.2c-2.631,4.881-2.425,4.997,3.279,5.424c12.172,0.911,23.836-1.08,34.782-6.524
		c11.161-5.549,22.204-11.336,33.308-17c0.979-0.5,1.842-1.479,3.354-0.946c-0.713,1.986-2.416,2.918-3.922,3.941
		c-7.625,5.179-15.944,9.123-24.037,13.477c-14.388,7.743-29.926,9.998-45.963,9.878c-2.317-0.017-3.785,0.713-4.959,2.597
		c-2.877,4.618-4.798,9.617-6.228,14.839c-0.353,1.29-0.028,2.217,0.841,3.154c3.237,3.485,6.432,7.01,9.64,10.522
		c0.727,0.798,1.574,1.333,2.643,1.636c21.877,6.206,44.082,8.837,66.796,6.384c1.77-0.192,4.775-1.982,5.133,0.161
		c0.292,1.753-3.337,1.964-5.297,2.192c-15.604,1.823-31.199,2.272-46.71-0.963C462.139,336.845,456.469,335.719,449.85,334.374
		L449.85,334.374z M488.465,462.47c0.111-9.367-0.734-19.678-2.483-29.911c-7.145-41.814-24.633-78.611-53.781-109.567
		c-14.683-15.593-31.671-27.973-52.494-34.257c-13.18-3.977-26.293-4.861-39.299,1.082c-4.496,2.055-7.083,4.5-6.505,9.954
		c0.492,4.644,0.015,4.687,4.516,3.96c0.728-0.117,1.472-0.142,2.209-0.2c11.366-0.88,20.901,3.488,29.306,10.609
		c15.587,13.206,26.358,29.881,34.002,48.634c15.017,36.835,21.341,75.215,19.781,114.907c-0.108,2.747,0.53,4.256,3.01,5.357
		c2.622,1.164,4.753,3.141,6.847,5.085c4.333,4.025,4.496,4.53,1.7,9.665c-6.44,11.83-8.564,24.626-8.836,37.889
		c-0.042,2.052,0.497,2.444,2.291,1.537c1.221-0.618,2.536-1.049,3.808-1.563c12.231-4.938,23.854-3.672,34.595,3.883
		c2.686,1.89,3.242,0.902,4.36-1.347C483.185,514.648,488.523,489.687,488.465,462.47L488.465,462.47z M268.493,304.646
		c-12.352-6.853-25.413-10.729-39.501-11.369c-9.307-0.423-17.6,1.656-25.545,6.661c-14.467,9.113-27.332,20.028-37.974,33.32
		c-34.914,43.606-51.258,93.263-47.053,149.18c2.345,31.19,13.292,59.357,31.704,84.651c1.502,2.063,2.44,2.37,4.643,0.84
		c7.717-5.362,16.321-8.833,25.776-8.374c5.38,0.261,9.046-2.142,12.799-5.015c2.396-1.834,3.303-4.434,2.417-7.355
		c-0.885-2.917-2.908-4.864-5.914-5.633c-1.77-0.453-3.567-0.237-5.364-0.085c-3.585,0.302-4-0.148-3.072-3.714
		c0.57-2.192,0.782-4.386,0.499-6.594c-0.557-4.345-0.607-4.484,3.927-5.077c2.021-0.265,2.596-0.69,2.093-2.891
		c-3.207-14.045-4.433-28.382-5.87-42.674c-1.108-11.017,0.285-21.952,1.768-32.86c3.018-22.21,6.806-44.255,14.007-65.569
		c6.807-20.149,15.499-39.315,29.323-55.767c6.82-8.117,14.603-14.963,24.85-18.535
		C257.349,305.923,262.867,305.185,268.493,304.646L268.493,304.646z M373.397,377.49c-4.272-12.839-9.536-24.909-15.911-36.482
		c-7.602-13.801-16.58-26.54-29.119-36.392c-6.732-5.29-14.073-9.501-22.736-10.466c-10.37-1.155-18.413,3.634-25.165,10.933
		c-8.345,9.02-15.733,18.799-22.352,29.148c-7.714,12.06-13.894,24.866-18.627,38.384c-0.763,2.181-0.759,3.056,1.905,2.717
		c2.084-0.265,4.224-0.202,6.31,0.277c10.301,2.367,17.346,8.376,19.494,18.875c2.037,9.961-1.076,18.651-9.371,24.619
		c-8.547,6.148-17.924,6.447-27.165,1.255c-2.403-1.35-2.851-1.212-3.234,1.565c-3.185,23.125-3.516,46.389-2.862,69.634
		c0.633,22.462,4.652,44.488,10.888,66.093c0.512,1.776,1.412,2.85,3.18,3.524c5.695,2.172,10.686,5.537,15.156,9.639
		c12.046,11.051,19.665,24.691,23.328,40.558c0.549,2.382,1.193,3.751,4.087,4.047c7.47,0.764,14.929,1.376,22.438,1.589
		c3.12,0.088,3.796-0.882,3.719-3.921c-0.539-21.349,3.812-41.396,16.73-58.92c13.456-18.254,30.395-28.191,53.853-21.888
		c1.525,0.41,1.85-0.139,2.065-1.393c0.555-3.225,1.24-6.429,1.754-9.659c4.728-29.746,4.406-59.603,1.811-89.494
		c-0.256-2.943-0.146-6.03-1.361-8.883c-13.205,5.243-23.756,3.624-31.415-4.689c-6.961-7.555-8.625-18.297-4.246-27.401
		C351.222,381.045,360.403,376.411,373.397,377.49L373.397,377.49z M409.095,386.09c0.135-1.638-0.534-3.107-1.022-4.599
		c-4.439-13.586-9.873-26.754-17.366-38.954c-7.138-11.624-15.842-21.97-27.128-29.805c-8.357-5.801-17.552-8.47-28.188-5.715
		c1.478,1.622,2.745,2.988,3.986,4.378c16.297,18.246,27.492,39.413,35.567,62.343c1.081,3.069,2.136,5.797,5.754,6.822
		c1.633,0.461,3.068,1.836,4.436,2.985c4.55,3.823,4.515,3.844,9.767,0.84c2.876-1.645,5.324-3.791,7.582-6.19
		c0.506-0.538,0.867-1.385,2.161-1.356c-2.879,5.664-6.754,9.91-12.369,12.467c-0.699,0.318-1.888,0.376-1.561,1.575
		c0.286,1.048,1.301,0.881,2.141,0.829c0.526-0.032,1.048-0.15,1.574-0.174c5.507-0.247,10.509-1.83,14.726-5.516
		c-2.506,6.388-7.815,8.208-13.975,8.243c-2.429,0.014-2.987,0.494-2.485,2.948c1.634,7.979-0.477,15.113-5.792,21.179
		c-1.561,1.781-1.919,3.395-1.698,5.653c1.949,19.956,4.85,39.849,3.023,60.023c-1.39,15.353-2.194,30.759-5.175,45.932
		c-0.275,1.399-1.635,3.101,0.303,4.253c2.115,1.257,4.251,2.946,6.864,0.728c0.854-0.725,2.021-1.244,3.125-1.48
		c2.385-0.51,3.579-2.078,4.247-4.204c5.134-16.356,5.97-32.534-2.294-48.228c-1.064-2.018-0.388-2.909,1.303-3.649
		c2.796-1.224,5.714-1.309,8.705-0.971c5.129,0.58,10.114,1.822,15.064,3.349c0.142-0.512,0.272-0.809,0.299-1.115
		c0.076-0.841,0.119-1.686,0.156-2.531c1.145-25.812-1.421-51.266-7.558-76.349C412.134,395.169,411.498,390.35,409.095,386.09
		L409.095,386.09z M229.963,209.814c-2.172-1.751-3.554-4.119-4.82-6.516c-1.422-2.694-0.864-3.869,2.095-4.499
		c6.345-1.352,12.317-0.224,17.979,2.89c0.707,0.389,1.662,1.546,2.45,0.471c0.722-0.982-0.011-1.96-0.936-2.631
		c1.948-0.158,1.294-1.731,1.23-2.662c-0.394-5.793-1.843-11.422-2.943-17.099c-0.405-2.095-1.981-3.663-3.613-5.072
		c-1.71-1.476-2.757-0.988-3.541,0.932c-1.086,2.657-0.959,5.374-0.413,8.094c1.202,5.993,4.548,10.824,8.442,15.346
		c-5.351-1.498-10.573-8.613-11.277-15.216c-0.472-4.422,0.608-8.325,3.254-11.916c1.182-1.603,2.102-1.6,3.606-0.528
		c2.778,1.981,4.211,3.808,7.485,10.441c1.232-5.111,3.225-9.497,7.343-12.617c2.96-2.242,3.749-2.086,5.435,1.3
		c5.434,10.918,0.994,24.643-9.933,30.442c-1.288,0.682-1.683,1.44-1.346,2.735c0.635,2.436,1.278,4.869,1.996,7.605
		c1.92-1.508,3.559-2.965,5.36-4.18c5.192-3.5,10.65-6.135,17.203-4.514c0.307,0.076,0.621,0.132,0.921,0.23
		c8.103,2.637,8.957,6.264,2.752,11.809c-7.002,6.258-15.239,7.887-24.242,6.166c-2.013-0.385-2.713-0.03-2.585,2.049
		c0.188,3.047-0.1,6.124,0.583,9.355c2.034-1.058,3.933-2.123,5.896-3.052c7.093-3.36,14.004-2.006,20.828,0.918
		c2.324,0.996,2.326,2.825,1.458,4.758c-2.942,6.543-8.337,9.567-15.21,10.298c-4.203,0.448-8.22-0.512-12.031-2.194
		c-1.785-0.787-2.359-0.455-2.552,1.461c-0.509,5.036-1.609,9.991-1.702,15.099c-0.057,3.055,0.828,2.949,3.124,1.848
		c7.049-3.377,14.116-6.744,21.689-8.848c5.347-1.487,10.749-2.519,16.232-0.881c2.071,0.618,2.005-0.678,2.261-1.922
		c2.36-11.484,5.124-22.866,8.796-34.007c7.508-22.78,17.569-44.204,33.989-62.075c15.675-17.061,34.654-28.184,57.923-31.218
		c5.26-0.686,10.561-0.636,15.834-0.154c4.619,0.422,6.201,4.627,8.255,7.683c4.395,6.542,5.804,14.219,6.468,21.962
		c0.361,4.209,0.228,8.458,0.51,12.676c0.132,1.973-0.518,2.799-2.437,3.26c-8.837,2.126-17.536,4.721-25.891,8.347
		c-22.062,9.58-37.816,25.477-47.438,47.486c-8.832,20.202-12.28,41.568-13.96,63.847c5.78-3.193,11.422-5.431,17.535-6.354
		c7.189-1.086,14.34-0.84,21.455,0.491c4.015,0.751,6.685-2.097,5.401-6.087c-1.324-4.115-2.997-8.121-4.269-12.252
		c-1.99-6.461-2.459-13.141-1.369-19.772c2.296-13.97,14.189-24.151,28.773-25.01c13-0.766,20.071,3.988,24.504,16.343
		c0.6,1.673,0.788,4.628,2.84,4.294c2.042-0.332,1.9-3.199,1.941-5.187c0.096-4.756-0.04-9.538,0.946-14.218
		c2.558-12.147,13.513-21.883,26.566-24.115c7.346-1.255,13.576,0.818,19.126,5.432c2.295,1.908,4.695,3.333,7.591,4.323
		c9.471,3.24,14.17,12.237,11.918,22.006c-1.53,6.639-4.776,12.381-9.085,17.568c-1.622,1.952-3.371,3.796-4.998,5.743
		c-3.866,4.625-2.973,7.93,2.662,10.148c3.863,1.521,7.468,0.637,11.002-1.067c3.849-1.856,7.02-4.69,10.401-7.22
		c3.144-2.353,6.403-4.511,10.102-5.887c7.668-2.852,13.806-1.365,19.058,4.942c7.887,9.469,8.592,20.321,5.537,31.731
		c-2.014,7.525-6.619,13.099-13.28,17.065c-9.775,5.82-20.16,10.174-31.142,13.126c-1.583,0.425-3.723,0.437-3.893,2.578
		c-0.163,2.058,1.632,3.001,3.244,3.895c2.405,1.335,4.738,1.242,7.273,0.208c6.64-2.708,13.537-3.899,20.755-3.552
		c18.303,0.881,22.536,15.024,21.394,26.308c-1.678,16.57-14.293,27.873-31.554,29.107c-7.864,0.562-15.275-0.858-21.687-5.46
		c-4.666-3.348-9.17-3.424-14.306-1.535c-7.896,2.907-7.902,2.743-4.473,10.266c10.517,23.066,17.475,47.082,19.231,72.476
		c0.097,1.401-0.269,2.844,2.323,2.423c6.642-1.079,9.574,0.881,12.114,7.725c2.335-3.634,4.522-7.037,6.729-10.471
		c-7.015-3.83-11.203-9.403-12.01-17.273c-0.106-1.038,0.009-2.112,0.117-3.158c0.246-2.392,1.343-3.298,3.866-2.551
		c5.525,1.636,9.835,4.89,12.972,9.606c1.465,2.203,2.303,2.141,3.693,0.032c1.27-1.924,2.852-3.644,4.531-5.749
		c-5.364-1.687-9.777-4.602-13.502-8.508c-4.229-4.434-7.664-9.387-8.315-15.663c-0.583-5.618,0.86-6.63,6.234-5.113
		c9.354,2.643,15.471,8.742,19.054,17.601c0.553,1.367,1.031,2.764,1.611,4.328c2.257-1.281,3.42-3.486,5.148-5.097
		c1.06-0.987,0.104-1.649-0.343-2.429c-3.876-6.753-6.058-13.909-5.203-21.8c0.33-3.043,1.596-5.677,3.372-8.093
		c1.635-2.223,2.692-2.207,4.363,0.047c2.879,3.88,4.23,8.404,5.336,13.445c2.297-5.695,5.348-10.291,10.381-13.29
		c3.241-1.931,4.523-1.372,5.211,2.327c1.096,5.898-1.023,11.02-4.315,16.292c4.825-0.97,9.246-1.151,13.616,0.093
		c3.393,0.966,3.82,2.213,1.429,4.799c-6.652,7.197-15.106,9.79-24.467,8.004c-4.092-0.78-6.55-0.012-8.712,3.131
		c-0.23,0.335-0.509,0.637-1.274,1.587c5.909-2.022,11.319-2.485,16.81-2.294c4.974,0.172,9.561,1.636,13.833,4.087
		c2.889,1.656,2.846,2.851,0.107,4.815c-8.391,6.018-17.571,5.856-27.015,3.427c-2.552-0.656-5.067-1.485-7.547-2.377
		c-1.266-0.456-2.211-0.387-3.08,0.686c-1.774,2.191-3.586,4.351-5.725,6.939c4.225-0.185,7.86-0.409,11.498-0.486
		c4.381-0.092,8.65,0.58,12.635,2.493c4.047,1.942,7.171,4.829,8.812,9.112c0.718,1.872,0.469,3.275-1.793,3.846
		c-2.859,0.72-5.668,1.648-8.538,2.32c-1.202,0.281-2.067,0.392-1.411,1.94c1.355,3.199,0.422,6.218-0.852,9.188
		c-0.915,2.133-1.861,4.253-2.755,6.394c-0.285,0.684-0.576,1.565-0.073,2.118c0.695,0.762,1.578,0.065,2.282-0.233
		c2.041-0.864,4.003-1.917,6.049-2.77c13.881-5.794,24.326-0.318,27.422,14.417c1.104,5.256,0.943,10.524-0.539,15.7
		c-2.022,7.065-6.68,10.774-14.013,11.163c-2.107,0.112-4.227-0.034-6.341-0.044c-1.05-0.005-2.404-0.148-2.734,1.029
		c-0.4,1.424,1.144,1.577,2.024,1.936c2.442,0.995,4.991,1.734,7.413,2.773c10.641,4.568,12.656,15.807,4.257,23.881
		c-6.528,6.276-14.629,6.395-22.905,5.516c-2.262-0.24-4.493-0.767-6.868-0.949c3.679,1.721,5.724,4.916,7.836,8.06
		c1.738,2.586,4.159,4.473,6.607,6.336c2.689,2.047,5.47,4.019,7.354,6.918c1.508,2.318,1.822,4.735,0.201,7.124
		c-1.609,2.371-3.997,2.631-6.503,1.965c-2.239-0.596-4.414-1.431-6.614-2.174c-4.352-1.472-8.512-1.24-12.461,1.293
		c-1.064,0.683-2.181,1.333-3.357,1.778c-2.44,0.924-3.923,2.031-2.708,5.081c0.708,1.779-0.19,3.735-0.982,5.496
		c-1.224,2.717-2.956,5.112-4.668,7.529c-1.095,1.545-2.183,3.136-2.971,4.846c-0.954,2.072-1.435,4.295,0.601,6.133
		c2.028,1.829,4.233,1.617,6.458,0.394c4.747-2.608,9.671-4.668,15.044-5.693c6.41-1.223,12.652,0.13,18.914,0.93
		c8.26,1.054,16.395,1.645,24.335-1.781c2.305-0.995,3.392,0.189,2.69,2.748c-1.499,5.452-4.81,9.842-8.626,13.848
		c-10.33,10.839-22.815,18.379-36.716,23.706c-0.883,0.338-1.777,0.647-2.648,1.013c-0.152,0.064-0.214,0.34-0.408,0.675
		c7.318-0.414,14.446-0.181,20.916,3.666c1.408,0.837,2.13-0.506,2.994-1.106c5.616-3.907,11.476-7.2,18.513-7.604
		c3.539-0.202,6.989,0.112,9.954,2.373c1.339,1.021,2.401,2.216,2.754,3.982c-1.582,0.497-2.486-0.428-3.485-0.889
		c-10.007-4.609-18.595-1.437-26.681,4.332c-0.856,0.611-1.082,1.123-0.133,1.942c5.246,4.526,8.29,10.619,11.624,16.501
		c3.022,5.332,6.055,10.659,9.047,16.008c0.615,1.1,1.339,2.355,0.513,3.569c-0.87,1.277-2.369,0.882-3.52,0.577
		c-5.945-1.579-11.922-1.266-17.95-0.703c-10.523,0.981-19.731-2.732-28.327-8.341c-4.337-2.83-8.761-5.574-12.815-8.776
		c-5.885-4.645-12.596-6.674-19.861-7.52c-5.141-0.599-10.27-1.413-15.198-3.024c-2.256-0.737-3.1-0.079-3.881,2.013
		c-2.832,7.581-6.779,14.529-12.201,20.609c-11.022,12.357-29.898,18.3-45.093,9.939c-1.189-0.653-1.955-0.239-2.868,0.373
		c-9.462,6.346-19.392,6.395-29.587,2.071c-1.548-0.657-2.741-0.712-4.393-0.011c-11.283,4.784-22.646,3.63-33.669-0.667
		c-23.898-9.319-38.597-26.933-45.179-51.526c-1.173-4.381-2.2-8.808-3.073-13.258c-0.311-1.584-0.864-2.112-2.436-2.078
		c-8.472,0.181-16.917-0.314-25.309-1.474c-1.878-0.26-2.14,0.431-2.096,2.018c0.089,3.262,0.027,6.528,0.027,10.044
		c6.492-2.718,13.474-3.931,20.697-3.599c1.156,0.052,2.314,0.189,3.456,0.376c0.922,0.15,1.671,0.719,1.495,1.716
		c-1.233,7.023-0.988,14.422-5.142,20.712c-0.745,1.128-1.619,2.171-2.452,3.277c0.518,0.902,1.501,0.747,2.221,0.964
		c12.877,3.884,19.384,12.852,20.764,25.912c0.244,2.305,0.298,4.636,0.339,6.957c0.03,1.756-0.792,2.744-2.71,2.641
		c-13.099-0.699-26.046-1.865-36.314-11.494c-0.929-0.871-1.556-1.186-2.312,0.295c-4.789,9.394-13.157,14.052-22.859,16.586
		c-2.904,0.759-3.655,2.153-3.657,4.784c-0.004,4.629,0.827,9.03,2.966,13.162c0.473,0.912,1.27,1.711,1.116,3.159
		c-2.057-0.127-3.067-1.627-4.067-3.003c-6.633-9.136-3.304-24.311,6.57-29.568c1.696-0.903,1.513-1.584,0.627-2.85
		c-2.187-3.124-7.565-4.202-12.848-2.477c-7.153,2.336-11.248,7.435-12.383,14.678c-1.128,7.194,2.107,12.91,7.193,17.724
		c0.601,0.569,1.322,1.01,1.975,1.527c0.047,0.038-0.005,0.202-0.021,0.479c-2.536,0.538-4.385-0.92-6.131-2.331
		c-3.83-3.095-5.577-7.387-6.224-12.104c-0.273-1.993-1.104-3.239-2.753-4.283c-5.5-3.484-10.338-8.074-17.045-9.463
		c-9.19-1.905-18.19,2.489-20.717,10.391c-0.33,1.034-1.242,2.34-0.324,3.262c0.831,0.833,1.956-0.203,2.921-0.487
		c5.885-1.737,11.649-1.813,17.264,1.033c2.773,1.405,4.922,3.416,5.67,6.47c0.975,3.976,2.932,7.163,6.835,9.306
		c-3.069,0.288-4.748-0.703-6.498-3.561c-6.599-10.775-14.034-13.391-26.232-9.232c-2.777,0.947-4.502-0.254-4.442-3.388
		c0.105-5.583,2.933-9.802,7.139-13.206c1.039-0.839,2.207-1.52,3.893-2.667c-10.777,0.136-19.977-4.279-29.769-6.071
		c-8.659-1.585-16.083-6.32-22.631-12.191c-1.507-1.352-2.662-1.362-4.449-0.728c-18.92,6.711-37.994,7.954-57.017,0.641
		c-4.243-1.631-7.513-2.269-12.121-0.224c-8.057,3.575-15.688,0.081-22.664-4.347c-2.466-1.566-4.698-3.501-7.501-5.619
		c0.458,6.426,1.227,12.196,4.962,17.084c3.36,4.398,9.198,5.304,15.297,2.657c1.053-0.456,2.499-2.246,3.398-0.083
		c0.751,1.809-0.673,3.067-2.257,3.583c-5.492,1.785-10.695,0.872-15.383-2.375c-5.83-4.037-8.498-9.823-8.494-16.832
		c0.001-3.939,0.356-7.789-3.877-10.247c-3.287-1.91-6.228-4.285-10.374-4.158c-2.642,0.08-5.472-0.215-6.651-3.21
		c-0.77-1.956,1.377-4.82,4.68-6.448c6.778-3.341,12.702-1.306,18.517,3.279c2.148-4.294,4.718-8.223,8.328-11.354
		c0.881-0.764,0.38-1.757,0.308-2.685c-0.99-12.772,2.373-24.267,10.216-34.41c2.783-3.598,6.385-6.301,10.111-9.259
		c-5.331,0-10.663,0.022-15.994-0.007c-3.488-0.019-6.991,0.068-10.459-0.227c-2.999-0.255-3.45-1.335-1.952-3.887
		c7.713-13.142,16.909-24.81,31.13-31.567c2.858-1.359,5.545-3.116,7.591-5.63c2.554-3.137,2.646-5.208-0.196-7.98
		c-8.874-8.656-16.896-18.069-24.868-27.532c-0.404-0.48-0.666-1.081-1.313-2.155c-2.256,4.865-1.583,9.004-1.089,13.104
		c0.175,1.459,0.713,2.871,0.961,4.325c0.165,0.967,0.753,2.28-0.705,2.697c-1.465,0.419-1.712-0.94-1.98-1.914
		c-1.267-4.614-1.975-9.295-1.401-14.097c0.105-0.882,0.208-1.763,0.415-3.511c-4.375,4.771-6.024,9.797-7.024,15.1
		c-0.47,2.495-0.676,5.024-0.447,7.579c0.087,0.972,0.47,2.397-1.088,2.485c-1.494,0.085-1.429-1.387-1.467-2.347
		c-0.261-6.677,0.922-13.043,4.332-18.888c0.476-0.816,0.943-1.638,1.751-3.045c-2.318,0.836-3.648,2.076-4.823,3.422
		c-7.524,8.619-11.365,18.44-9.633,30.039c0.145,0.972,0.961,2.348-0.514,2.704c-1.771,0.429-1.652-1.382-1.774-2.353
		c-1.439-11.469,1.41-21.785,8.521-30.914c0.579-0.744,1.112-1.525,1.655-2.296c0.049-0.07,0.017-0.198,0.036-0.548
		c-4.465,0.634-8.14,2.895-11.74,5.24c-2.031,1.323-3.869,2.942-5.828,4.38c-0.665,0.489-1.521,1.131-2.23,0.228
		c-0.716-0.911,0.157-1.544,0.762-2.103c4.141-3.829,8.814-6.891,13.784-9.523c0.447-0.237,0.863-0.53,2.068-1.277
		c-4.562,0.439-7.918,1.705-11.188,3.287c-1.017,0.492-2.351,1.412-3.063,0.07c-0.787-1.483,0.931-1.853,1.857-2.374
		c3.987-2.244,8.364-3.471,12.725-4.722c1.153-0.331,2.317-0.625,3.455-1.308c-4.498-1.021-9.199,0.079-13.578-1.96
		c5.774-2.041,11.744-1.318,18.381-1.007c-3.946-1.669-7.471-1.9-11.011-2.048c-1.584-0.066-3.179-0.038-4.749-0.224
		c-0.767-0.091-1.922-0.248-1.866-1.309c0.055-1.054,1.146-1.075,1.977-1.102c4.957-0.166,9.902-0.096,15.4,1.349
		c-2.253-2.114-4.518-2.643-6.598-3.534c-0.904-0.388-2.443-0.514-2.017-1.937c0.472-1.576,1.895-0.858,2.975-0.628
		c4.88,1.044,8.514,4,11.886,8.217c0.726-3.403-0.427-5.926-1.426-8.506c-0.327-0.846-1.512-1.988,0.007-2.711
		c1.378-0.655,1.773,0.763,2.261,1.605c1.671,2.877,2.123,6.154,2.923,9.581c2.141-1.717,2.493-4.165,3.324-6.346
		c0.323-0.849,0.34-2.167,1.645-1.888c1.386,0.297,1.116,1.608,0.989,2.636c-0.502,4.073-3.148,7.028-5.687,10.284
		c3.291-0.48,6.274-0.946,9.268-1.335c0.933-0.121,1.895-0.074,2.84-0.029c0.777,0.036,1.531,0.292,1.591,1.218
		c0.071,1.095-0.864,1.031-1.555,1.119c-2.934,0.374-5.879,0.668-8.807,1.084c-1.028,0.145-2.52,0.257-2.911,0.914
		c-0.587,0.983,0.816,1.75,1.443,2.519c5.943,7.294,11.885,14.591,17.936,21.796c1.946,2.318,4.126,4.478,7.181,5.885
		c-0.049-2.93-1.089-5.351-1.987-7.795c-3.89-10.6-8.253-21.053-9.938-32.328c-0.203-1.355-0.382-2.723-0.44-4.09
		c-0.226-5.349,1.131-6.49,6.363-5.203c3.423,0.843,6.439,2.64,9.398,4.495c6.713,4.213,13.393,8.481,20.123,12.667
		c2.882,1.792,6.674,1.165,8.827-1.251c0.503-0.564,0.462-1.158,0.362-1.767c-1.158-7.052-1.976-14.141-2.684-21.523
		c-1.071,1.496-2.126,3.004-3.215,4.487c-1.827,2.487-3.878,4.768-6.484,6.459c-4.725,3.066-9.136,0.884-9.784-4.748
		c-0.222-1.934,0.541-3.731,0.678-6.011c-3.589,2.153-6.81,5.893-11.122,2.945c-3.956-2.704-3.755-6.988-2.79-11.735
		c-2.431,2.283-4.408,4.276-6.847,5.691c-5.118,2.97-9.439,1.265-11.01-4.432c-1.453-5.269,0.106-10.036,2.71-14.546
		c2.045-3.542,4.985-6.265,8.572-8.623c-1.692-1.562-3.785-2.216-5.666-3.214c-1.462-0.776-2.118,0.516-2.891,1.268
		c-2.919,2.84-6.15,5.152-10.1,6.341c-5.538,1.665-11.152,0.021-14.255-4.186c-3.374-4.572-2.105-9.623,2.988-12.134
		c3.2-1.579,6.637-1.761,10.527-1.745c-1.215-1.991-2.399-3.592-3.024-5.483c-1.648-4.989,0.439-9.697,5.258-11.742
		c4.809-2.041,8.76-0.558,11.322,4.375c2.088,4.021,3.503,8.439,2.572,12.834c-0.817,3.856,0.694,5.355,4.124,6.477
		c-0.605-6.087,1.08-11.591,4.325-16.62c1.025-1.587,2.189-3.139,3.536-4.455c4.346-4.244,9.036-3.348,11.714,2.123
		c3.75,7.659,1.211,19.259-5.378,24.651c-0.547,0.448-1.385,0.611-1.61,1.64c2.866,1.841,5.766,3.703,9.022,5.795
		c0.248-4.553,1.085-8.645,3.204-12.392c2.656-4.697,5.578-6.67,8.807-5.814c2.846,0.755,4.382,3.792,4.508,8.96
		c0.138,5.672-1.295,10.707-6.068,14.264c-1.292,0.962-1.421,1.582-0.019,2.527c2.165,1.46,4.243,3.048,6.712,4.839
		c0.339-5.222,0.611-10.043,0.973-14.857c0.627-8.337,2.026-16.567,3.638-24.758c0.274-1.396,0.352-2.237-1.182-3.011
		c-9.557-4.822-10.897-15.459-2.959-22.884c0.746-0.697,1.533-1.35,2.733-2.403c-4.384-0.558-8.005,0.155-11.361,2.019
		c-3.599,1.999-6.976,4.426-10.658,6.246c-7.373,3.642-14.797,1.282-18.82-5.686c-3.496-6.054-1.591-12.401,4.741-15.383
		c2.354-1.109,4.86-1.896,7.563-2.932c-2.012-2.464-4.671-2.374-7.051-2.81c-4.608-0.844-9.175-1.777-12.835-4.959
		c-3.816-3.316-7.071-7.22-5.347-12.616c1.724-5.394,6.407-7.606,11.678-8.49c4.017-0.675,7.735,0.408,11.29,2.284
		c1.857,0.981,3.698,2.076,5.85,2.341c0.741,0.091,1.544,0.128,1.936-0.667c0.39-0.791-0.094-1.419-0.627-1.965
		c-1.648-1.688-3.773-2.698-5.706-3.98c-5.15-3.412-6.745-7.218-5.278-13.302c1.726-7.163,5.357-13.156,11.85-16.91
		c8.485-4.905,17.991-1.487,21.702,7.585c0.558,1.366,1.049,2.775,1.395,4.206c0.455,1.882,1.572,2.406,3.277,1.823
		c7.582-2.592,14.008,2.573,15.336,11.094c0.658,4.221,0.349,8.442,0.459,12.663c0.073,2.778,0.635,5.368,2.671,7.645
		c5.973-15.59,4.904-28.713-8.124-40.089c-4.754-4.151-10.352-6.897-16.183-9.188c-4.207-1.653-8.178-3.581-9.973-8.162
		c-0.575-1.468-1.517-0.999-2.583-0.648c-4.036,1.328-8.149,2.245-12.442,2.025c-3.754-0.192-7.117-1.262-9.282-4.58
		c-1.061-1.626-2.365-1.662-4.085-1.426c-6.121,0.838-11.818-0.223-16.581-4.452c-4.209-3.738-4.631-8.09-1.266-12.602
		c0.613-0.822,1.097-1.343,0.316-2.403c-1.945-2.642-1.122-5.193,0.59-7.6c2.108-2.964,5.131-4.713,8.425-5.953
		c2.629-0.989,4.918-2.329,6.843-4.405c2.203-2.375,4.972-3.925,8.111-4.732c2.569-0.661,5.034-1.558,7.437-2.679
		c3.041-1.418,6.224-1.837,9.581-1.396c1.976,0.26,4.005,0.182,6.008,0.143c2.343-0.046,4.655,0.051,6.87,0.895
		c2.147,0.817,4.712,2.136,4.736,4.256c0.051,4.532,3.074,6.365,5.752,9.134c4.696,4.855,1.12,13.961-5.553,14.967
		c-2.139,0.323-2.811,0.98-2.757,3.125c0.127,5.085-1.572,9.614-5.265,13.147c-2.02,1.934-1.426,3.485,0.031,5.169
		c1.135,1.312,2.69,2.025,4.26,2.671c2.344,0.963,4.745,1.799,7.046,2.852c16.546,7.573,26.726,19.616,26.961,38.836
		c1.324-0.557,1.684-1.82,2.361-2.739c2.695-3.66,4.978-7.697,8.071-10.973c5.045-5.34,3.394-18.201-4.206-22.144
		c-4.394-2.28-4.593-3.192-3.273-7.919c0.85-3.045,0.548-5.852-0.947-8.562c-1.889-3.422-3.882-6.786-5.739-10.224
		c-4.226-7.822-3.8-12.54,1.904-19.367c1.166-1.397,0.906-2.045-0.431-2.894c-5.577-3.536-9.076-8.725-11.635-14.675
		c-1.635-3.803-3.616-7.408-6.547-10.409c-0.501-0.513-1.203-1.086-0.775-1.878c0.402-0.743,1.282-0.625,2.017-0.591
		c5.072,0.236,10.114,0.752,15.102,1.736c0.802,0.158,1.646,0.675,2.337-0.195c1.938-2.438,3.671-1.129,4.895,0.567
		c2.962,4.104,6.84,7.09,10.85,10.07c5.738,4.264,7.563,10.749,8.786,17.392c0.73,3.965,0.003,8.096,0.486,11.968
		c0.99,7.936-1.258,15.537-1.238,23.326c0.014,5.555,2.211,10.383,4.514,15.748c1.555-2.302,1.888-4.605,2.617-6.735
		c7.92-23.15,7.929-46.916,5.478-70.868c-0.731-7.149-1.51-14.294-2.225-21.444c-0.142-1.422-0.526-2.626-1.594-3.664
		c-10.298-10.019-21.999-17.424-36.458-19.762c-3.261-0.527-6.534-0.361-9.811-0.303c-1.971,0.035-3.006,1.212-3.946,2.721
		c-3.052,4.894-6.764,9.205-11.588,12.438c-3.665,2.457-7.781,3.842-12.138,4.295c-2.235,0.233-2.259,1.158-1.655,2.882
		c2.056,5.875,2.028,5.942-4.091,6.168c-1.452,0.054-2.373,0.529-3.077,1.738c-1.116,1.915-2.17,3.888-3.483,5.663
		c-1.926,2.603-3.699,2.722-5.553,0.081c-1.559-2.223-2.383-1.727-3.944-0.077c-4.748,5.018-6.779,4.57-9.353-1.804
		c-0.112-0.277-0.281-0.532-0.65-1.219c-4.975,6.783-12.092,10.189-19.26,13.517c-0.861,0.4-1.728,0.815-2.635,1.079
		c-2.514,0.731-3.633-0.157-3.4-2.829c0.269-3.089,1.44-5.948,2.742-8.719c1.417-3.014,2.228-6,1.925-9.449
		c-0.464-5.272,2.301-9.027,7.674-11.885c-0.931-0.411-1.392-0.506-1.71-0.772c-4.402-3.681-4.243-4.803,1.003-6.86
		c5.411-2.121,11.014-2.861,16.802-2.28c1.204,0.121,2.439,0.64,3.902-0.111c-1.275-1.861-3.846-3.463-2.581-5.925
		c1.494-2.91,1.925-5.282-0.84-7.591c-0.342-0.286-0.464-1.462-0.186-1.767c2.423-2.652,1.144-6.594,3.343-9.321
		c0.484-0.6,0.624-1.558,0.725-2.374c1.419-11.496,8.625-18.289,20.097-18.935c12.95-0.728,22.184,5.576,29.337,15.639
		c1.252,1.761,2.542,2.64,4.709,3.125c20.781,4.655,35.26,16.884,43.343,36.624c0.199,0.487,0.392,0.977,0.607,1.459
		c0.028,0.062,0.171,0.073,0.597,0.237c-0.986-6.37-2.433-12.455-3.988-18.513c-4.857-18.934-12.084-36.9-21.909-53.82
		c-1.108-1.906-1.904-2.768-3.963-1.116c-1.975,1.586-4.265,1.264-6.187-0.162c-1.673-1.242-3.337-1.476-5.319-1.175
		c-3.353,0.509-6.308-0.586-8.689-2.937c-1.135-1.122-1.984-1.329-3.528-0.651c-6.415,2.815-12.545,1.446-17.636-3.694
		c-5.283-5.334-7.179-13.271-4.641-19.223c0.994-2.332,2.663-4.047,4.718-5.418c0.841-0.561,1.307-1.027,1.201-2.241
		c-0.617-7.063,4.854-13.293,12.264-14.123c0.734-0.082,1.501-0.212,2.213-0.089c2.809,0.484,4.483-0.493,6.17-2.989
		c3.183-4.707,8.272-5.986,13.712-5.557c1.732,0.136,2.612-0.26,3.563-1.721c4.869-7.479,19.555-8.739,23.329,0.586
		c0.578,1.429,1.841,1.938,3.067,2.565c7.819,4,12.064,12.606,10.4,21.197c-0.627,3.243-2.155,6.005-5.175,7.601
		c-2.086,1.102-3.349,2.69-4.184,4.884c-1.635,4.294-4.385,7.689-8.685,9.627c-0.788,0.356-1.6,0.714-1.633,1.73
		c-0.167,5.093-3.401,7.675-7.892,9.326c16.697,27.277,25.901,56.896,29.826,88.363c0.321-0.027,0.727,0.064,0.888-0.093
		c4.828-4.75,10.81-6.923,17.383-7.571c2.748-0.27,3.925-1.28,3.775-4.176c-0.139-2.661,1.608-3.866,5.129-3.483
		c4.932,0.537,9.825,1.421,14.747,2.063c1.32,0.173,2.592,0.953,3.983,0.425c-0.866,1.943-3.435,2.39-4.256,4.794
		c5.096,0.267,9.752,1.239,13.797,4.26c3.949,2.949,6.863,6.859,10.189,10.651c0.494-3.998,0.358-7.797,0.541-11.582
		c0.123-2.558-0.568-2.934-3.022-2.292C241.458,217.155,232.976,214.121,229.963,209.814L229.963,209.814z"/>
	<path style="fill:#231F20;" d="M496.555,695.015c0.047,1.372,0.141,2.718,0.625,4.045c0.504,1.378,0.938,2.041,2.353,0.756
		c3.44-3.121,6.954-6.161,10.485-9.179c0.817-0.699,0.899-1.364,0.385-2.194c-1.322-2.132-2.943-3.863-5.637-4.144
		c-2.602-0.272-4.498,0.89-5.909,2.946C497.258,689.576,496.511,692.184,496.555,695.015L496.555,695.015z M516.017,712.237
		c3.551-0.195,7.026-0.882,10.291-2.517c1.709-0.857,2.142-1.661,0.574-3.217c-4.118-4.086-8.428-7.951-12.817-11.738
		c-1.092-0.944-1.84-0.959-2.918,0.067c-3.127,2.98-6.31,5.907-9.584,8.724c-1.356,1.165-1.177,1.935,0.006,3.005
		C505.663,710.261,510.522,711.95,516.017,712.237L516.017,712.237z M504.976,680.388c3.899-0.011,6.994,1.712,8.189,5.334
		c2.083,6.308,7.03,10.118,11.475,14.421c0.529,0.512,1.143,0.937,1.709,1.412c3.98,3.331,3.984,3.336,7.169-0.81
		c0.452-0.589,0.825-1.351,1.728-0.991c0.838,0.334,0.838,1.151,0.756,1.901c-0.045,0.412-0.112,0.899-0.358,1.199
		c-2.987,3.656-1.186,6.06,2.038,8.169c0.604,0.396,1.083,1.008,1.552,1.577c0.538,0.651,1.156,1.398,0.308,2.201
		c-0.721,0.683-1.368,0.024-1.98-0.335c-0.545-0.32-1.077-0.672-1.577-1.057c-3.167-2.439-6.256-2.954-10.229-1.253
		c-9.79,4.192-19.348,4.154-27.735-3.53c-1.328-1.217-1.78-0.139-2.459,0.57c-3.585,3.745-7.204,7.449-11.713,10.12
		c-0.726,0.43-1.453,0.882-2.234,1.184c-1.017,0.395-2.315,1.425-3.087,0.043c-0.794-1.421,0.793-1.967,1.685-2.567
		c5.043-3.393,9.219-7.711,13.319-12.14c1.17-1.263,1.355-2.232,0.693-3.871c-2.673-6.63-1.105-12.645,3.264-18.015
		C499.365,681.646,501.923,680.412,504.976,680.388L504.976,680.388z"/>
	<path style="fill:#231F20;" d="M339.939,707.165c-3.192-7.482-8.91-10.305-16.994-9.243c2.715-2.814,8.83-3.741,12.275-2.209
		C338.935,697.366,340.739,701.373,339.939,707.165L339.939,707.165z"/>
	<path style="fill:#231F20;" d="M316.518,712.039c-5.537-6.092-11.756-5.31-18.432-3.299c2.029-3.164,8.44-5.34,12.346-4.6
		C313.735,704.765,315.579,706.908,316.518,712.039L316.518,712.039z"/>
	<path style="fill:#231F20;" d="M304.576,431.16c-9.414-0.045-18.027-7.147-19.667-16.258c-0.178-0.988-0.632-2.292,0.733-2.73
		c1.158-0.372,1.614,0.804,2.037,1.612c1.224,2.337,2.32,4.741,3.556,7.071c5.202,9.817,20.024,9.431,26.124,2.059
		c1.835-2.218,3.268-4.659,4.532-7.227c0.385-0.782,0.634-2.108,1.921-1.555c1.192,0.512,0.599,1.611,0.337,2.498
		C321.747,424.735,313.033,431.201,304.576,431.16L304.576,431.16z"/>
	<path style="fill:#231F20;" d="M409.213,595.467c0.794,4.706-2.429,9.182-6.6,9.706c-4.98,0.626-10.558-3.787-11.171-9.315
		c2.858,2.895,4.4,7.159,8.98,6.869C404.813,602.447,406.48,598.381,409.213,595.467L409.213,595.467z"/>
	<path style="fill:#231F20;" d="M207.578,428.039c-4.859-0.033-8.736-0.896-12.057-3.377c-4.067-3.037-3.701-7.022,0.892-9.042
		c6.507-2.861,12.954-2.196,19.145,1.039c2.014,1.053,3.573,2.701,3.396,5.262c-0.178,2.576-2.051,3.804-4.123,4.725
		C212.29,427.777,209.58,428.121,207.578,428.039L207.578,428.039z"/>
	<path style="fill:#231F20;" d="M550.747,520.239c-2.328,1.532-4.599,1.311-6.7,0.786c-8.204-2.047-14.655-6.69-19.392-13.696
		c-0.35-0.518-0.603-1.107-0.864-1.681c-0.394-0.868-0.934-1.984,0.037-2.564c1.131-0.675,1.629,0.6,2.094,1.346
		c5.468,8.766,13.457,13.656,23.516,15.4C549.738,519.882,550.024,520.011,550.747,520.239L550.747,520.239z"/>
	<path style="fill:#231F20;" d="M501.636,512.468c0.058-0.683-0.209-2.223,1.176-2.492c1.482-0.288,1.305,1.347,1.56,2.244
		c1.377,4.832,4.88,7.997,8.446,11.175c0.853,0.76,3.063,1.42,1.642,3.039c-1.168,1.33-2.508-0.22-3.521-0.976
		c-2.709-2.023-5.141-4.365-7.209-7.054C502.49,516.792,501.567,515.033,501.636,512.468L501.636,512.468z"/>
	<path style="fill:#231F20;" d="M523.009,481.382c0.297-3.055,0.185-5.386,0.858-7.639c0.292-0.973,0.671-1.928,1.844-1.723
		c1.053,0.183,1.081,1.215,0.958,2.052c-0.615,4.169-0.95,8.352-0.855,12.57c0.017,0.724-0.1,1.572-1.099,1.584
		c-0.793,0.008-1.035-0.769-1.114-1.328C523.31,484.822,523.146,482.729,523.009,481.382L523.009,481.382z"/>
	<path style="fill:#231F20;" d="M500.196,500.03c-2.597-5.125-1.814-10.301-0.161-15.461c0.3-0.937,0.976-1.727,2.139-1.249
		c1.01,0.416,0.896,1.332,0.619,2.158C501.213,490.192,500.894,495.112,500.196,500.03L500.196,500.03z"/>
	<path style="fill:#231F20;" d="M402.128,418.376c4.193,0.055,8.192,0.915,11.686,3.316c3.828,2.63,3.662,6.114-0.278,8.557
		c-5.337,3.308-17.028,2.378-21.66-1.723c-2.975-2.634-2.641-6.078,0.781-8.049C394.893,419.188,398.628,418.364,402.128,418.376
		L402.128,418.376z"/>
</g>
</svg>
