<?xml version="1.0" encoding="utf-8"?>
<!-- Generator: Adobe Illustrator 27.5.0, SVG Export Plug-In . SVG Version: 6.00 Build 0)  -->
<svg xmlns="http://www.w3.org/2000/svg" xmlns:xlink="http://www.w3.org/1999/xlink" viewBox="0 0 500 500" width="595" height="842" preserveAspectRatio="xMidYMid meet" data-scaled="true">
<g id="BACKGROUND">
	<g>
		<rect style="fill:#FFFFFF;" width="500" height="500"/>
	</g>
</g>
<g id="OBJECTS">
	<g>
		<g>
			<g>
				<path style="fill:#1A1A34;" d="M235.966,212.207c-4.206,0-8.886-2.664-13.051-7.563c-2.392-2.813-4.538-5.881-6.613-8.849
					c-1.989-2.843-4.045-5.784-6.305-8.477c-5.509-6.568-11.381-10.371-17.451-11.303c-0.273-0.042-0.46-0.297-0.418-0.57
					c0.042-0.273,0.295-0.46,0.57-0.418c6.318,0.969,12.396,4.888,18.066,11.648c2.287,2.727,4.356,5.686,6.357,8.547
					c2.063,2.948,4.195,5.997,6.556,8.774c1.857,2.184,8.432,9.129,15.091,6.731c2.739-0.985,4.633-3.239,6.637-5.626
					c1.651-1.965,3.358-3.998,5.602-5.298c2.625-1.521,5.732-1.9,8.735-2.267c3.604-0.44,7.009-0.855,9.528-3.099
					c2.185-1.945,3.121-4.77,4.112-7.761c0.95-2.863,1.932-5.824,4.114-7.957c1.335-1.305,3.047-2.23,4.701-3.124
					c2.526-1.365,4.913-2.655,5.779-5.124c0.626-1.785,0.255-3.715-0.137-5.76c-0.419-2.179-0.851-4.431,0.02-6.528
					c0.379-0.912,0.975-1.707,1.553-2.475c0.779-1.037,1.515-2.016,1.66-3.183c0.174-1.398-0.534-2.7-1.285-4.078
					c-0.654-1.202-1.331-2.445-1.457-3.838c-0.199-2.202,0.994-4.096,2.148-5.928c1.082-1.718,2.105-3.342,2.031-5.158
					c-0.058-1.439-0.801-2.723-1.589-4.083c-0.349-0.603-0.71-1.227-1.009-1.869c-1.287-2.767-1.4-6.12-0.305-8.969
					c0.148-0.386,0.301-1.996-0.554-3.497c-0.879-1.543-2.525-2.528-4.893-2.928c-2.384-0.402-3.412-2.914-4.32-5.129
					c-0.248-0.605-0.491-1.199-0.755-1.735c-1.068-2.168-2.881-4.786-5.447-4.94c-0.792-0.048-1.586,0.143-2.427,0.343
					c-0.996,0.239-2.026,0.483-3.097,0.325c-2.063-0.308-3.433-1.933-4.757-3.503c-1.267-1.501-2.463-2.919-4.163-3.156
					c-1.966-0.274-3.648,1.151-5.417,2.665c-1.856,1.586-3.781,3.228-6.195,2.9c-1.348-0.182-2.448-0.958-3.514-1.709
					c-1.002-0.707-1.949-1.375-3.044-1.534c-2.152-0.305-3.873,1.352-5.696,3.114c-1.859,1.797-3.776,3.654-6.335,3.495
					c-1.158-0.073-2.214-0.575-3.235-1.062c-1.204-0.573-2.343-1.115-3.499-0.883c-1.772,0.354-2.665,2.23-3.61,4.216
					c-1.044,2.193-2.123,4.46-4.545,4.647c-0.684,0.051-1.329-0.1-1.952-0.246c-0.349-0.082-0.699-0.166-1.052-0.207
					c-2.418-0.279-4.531,1.468-5.711,3.2c-0.958,1.407-1.6,3.055-2.219,4.647c-0.263,0.675-0.525,1.35-0.812,2.013
					c-2.58,5.962-7.15,10.946-12.868,14.033c-0.242,0.133-0.546,0.04-0.677-0.203c-0.131-0.243-0.041-0.546,0.203-0.677
					c5.52-2.98,9.933-7.793,12.424-13.55c0.282-0.651,0.54-1.314,0.798-1.978c0.64-1.645,1.302-3.346,2.325-4.848
					c1.344-1.974,3.792-3.966,6.653-3.63c0.401,0.047,0.79,0.138,1.166,0.227c0.574,0.135,1.115,0.264,1.646,0.222
					c1.846-0.143,2.756-2.055,3.719-4.08c1.01-2.122,2.054-4.315,4.317-4.767c1.486-0.298,2.827,0.343,4.125,0.96
					c0.978,0.466,1.902,0.906,2.867,0.966c2.107,0.13,3.796-1.494,5.578-3.216c1.916-1.852,3.893-3.769,6.535-3.384
					c1.33,0.193,2.421,0.962,3.477,1.706c1.011,0.713,1.966,1.387,3.07,1.536c1.963,0.271,3.646-1.16,5.412-2.669
					c1.858-1.589,3.776-3.236,6.205-2.895c2.079,0.289,3.456,1.922,4.788,3.501c1.261,1.495,2.452,2.906,4.142,3.159
					c0.876,0.13,1.771-0.082,2.716-0.308c0.876-0.209,1.781-0.428,2.72-0.369c2.445,0.146,4.56,1.996,6.283,5.497
					c0.276,0.561,0.534,1.189,0.783,1.797c0.849,2.071,1.727,4.212,3.562,4.522c3.336,0.563,4.884,2.171,5.596,3.42
					c1.034,1.815,0.863,3.715,0.618,4.351c-1.001,2.601-0.897,5.661,0.277,8.188c0.28,0.602,0.63,1.206,0.969,1.79
					c0.813,1.404,1.654,2.857,1.723,4.544c0.086,2.126-1.069,3.959-2.186,5.731c-1.114,1.769-2.167,3.44-1.998,5.305
					c0.106,1.188,0.705,2.287,1.339,3.45c0.793,1.456,1.613,2.962,1.399,4.679c-0.178,1.431-1.029,2.564-1.852,3.66
					c-0.565,0.752-1.099,1.462-1.429,2.258c-0.756,1.819-0.37,3.829,0.038,5.955c0.4,2.085,0.813,4.24,0.099,6.279
					c-0.994,2.834-3.664,4.277-6.247,5.673c-1.594,0.861-3.243,1.752-4.477,2.959c-2.009,1.964-2.91,4.681-3.864,7.557
					c-0.989,2.984-2.013,6.07-4.397,8.193c-2.752,2.451-6.473,2.905-10.071,3.344c-2.904,0.355-5.907,0.721-8.355,2.139
					c-2.093,1.212-3.742,3.176-5.337,5.076c-2.002,2.383-4.071,4.848-7.065,5.924C238.102,212.03,237.05,212.207,235.966,212.207z"
					/>
			</g>
			<g>
				<path style="fill:#1A1A34;" d="M228.593,150.417c-1.051,0-2.112-0.034-3.185-0.102c-7.16-0.454-14.779-2.401-23.293-5.954
					c-5.174-2.16-11.438-5.39-13.981-11.251l-0.145-0.342c-0.224-0.536-0.436-1.043-0.781-1.429
					c-0.764-0.855-2.11-1.107-4.241-0.791c-4.157,0.616-8.175,1.874-11.942,3.738c-3.502,1.734-5.482,3.603-6.232,5.881
					c-0.086,0.262-0.371,0.404-0.631,0.319c-0.262-0.086-0.405-0.369-0.319-0.631c0.839-2.55,2.98-4.605,6.739-6.465
					c3.861-1.911,7.979-3.2,12.239-3.831c1.57-0.232,3.808-0.37,5.133,1.114c0.457,0.511,0.711,1.12,0.958,1.709l0.139,0.329
					c2.401,5.534,8.449,8.639,13.449,10.727c8.41,3.51,15.924,5.433,22.972,5.879c8.529,0.539,16.432-1.124,22.857-4.814
					c7.13-4.096,12.324-10.894,13.894-18.186c0.533-2.474,0.612-4.774,0.233-6.836c-0.607-3.313-2.498-6.377-5.188-8.405
					c-0.221-0.167-0.265-0.48-0.099-0.701c0.168-0.221,0.481-0.264,0.7-0.098c2.888,2.177,4.918,5.466,5.57,9.023
					c0.401,2.193,0.321,4.625-0.239,7.228c-1.63,7.563-7.003,14.607-14.375,18.842C243.042,148.693,236.099,150.417,228.593,150.417
					z"/>
			</g>
			<g>
				<path style="fill:#1A1A34;" d="M230.085,210.111c-0.066,0-0.133-0.018-0.194-0.054c-0.177-0.107-0.234-0.338-0.127-0.515
					c1.419-2.342,3.876-4.028,6.571-4.508c2.7-0.482,5.585,0.253,7.725,1.962c0.161,0.129,0.188,0.365,0.059,0.527
					c-0.129,0.163-0.365,0.188-0.527,0.059c-1.975-1.577-4.64-2.254-7.124-1.81c-2.487,0.443-4.753,1.998-6.062,4.158
					C230.336,210.046,230.212,210.111,230.085,210.111z"/>
			</g>
			<g>
				<path style="fill:#1A1A34;" d="M260.575,197.93c-0.018,0-0.036-0.002-0.055-0.004c-0.204-0.03-0.347-0.221-0.316-0.425
					c0.392-2.674,1.991-5.129,4.279-6.568c2.286-1.438,5.191-1.819,7.773-1.013c0.198,0.062,0.309,0.272,0.247,0.47
					c-0.063,0.198-0.27,0.308-0.47,0.246c-2.374-0.738-5.046-0.392-7.151,0.932c-2.103,1.324-3.575,3.583-3.935,6.042
					C260.919,197.796,260.759,197.93,260.575,197.93z"/>
			</g>
			<g>
				<path style="fill:#1A1A34;" d="M281.092,176.805c-0.161,0-0.31-0.105-0.359-0.267c-0.753-2.494-0.325-5.268,1.146-7.418
					c1.471-2.15,3.899-3.555,6.497-3.757c0.211-0.005,0.387,0.139,0.403,0.345c0.016,0.207-0.139,0.387-0.345,0.403
					c-2.338,0.182-4.612,1.498-5.936,3.433c-1.323,1.935-1.725,4.532-1.046,6.777c0.06,0.198-0.053,0.408-0.251,0.467
					C281.164,176.801,281.128,176.805,281.092,176.805z"/>
			</g>
			<g>
				<path style="fill:#1A1A34;" d="M288.297,157.671c-0.101,0-0.201-0.04-0.275-0.12c-1.366-1.477-2.044-3.552-1.811-5.55
					c0.233-1.999,1.368-3.862,3.039-4.984c0.171-0.116,0.404-0.071,0.521,0.102c0.115,0.172,0.069,0.405-0.103,0.52
					c-1.49,1.002-2.505,2.665-2.713,4.449c-0.207,1.783,0.397,3.635,1.617,4.953c0.141,0.152,0.131,0.39-0.02,0.53
					C288.479,157.637,288.387,157.671,288.297,157.671z"/>
			</g>
			<g>
				<path style="fill:#1A1A34;" d="M289.138,141.469c-0.111,0-0.223-0.05-0.296-0.145c-1.425-1.835-1.945-4.371-1.358-6.619
					c0.628-2.403,1.966-4.052,3.978-4.901c0.188-0.081,0.41,0.008,0.491,0.199c0.08,0.191-0.009,0.411-0.2,0.491
					c-1.809,0.765-2.969,2.204-3.542,4.4c-0.53,2.027-0.06,4.315,1.224,5.97c0.127,0.163,0.098,0.399-0.066,0.526
					C289.3,141.444,289.219,141.469,289.138,141.469z"/>
			</g>
			<g>
				<path style="fill:#1A1A34;" d="M289.1,121.181c-0.014,0-0.027-0.001-0.042-0.002c-2.123-0.239-4.059-1.563-5.049-3.457
					c-0.99-1.893-0.976-4.237,0.038-6.118c0.098-0.183,0.326-0.251,0.508-0.152c0.183,0.098,0.251,0.326,0.152,0.508
					c-0.884,1.64-0.897,3.765-0.034,5.415c0.864,1.65,2.618,2.851,4.469,3.06c0.206,0.023,0.354,0.209,0.331,0.415
					C289.452,121.04,289.289,121.181,289.1,121.181z"/>
			</g>
			<g>
				<path style="fill:#1A1A34;" d="M278.175,106.624c-1.501,0-3.008-0.435-4.257-1.258c-1.756-1.158-3.006-3.089-3.345-5.166
					c-0.033-0.205,0.105-0.397,0.31-0.431c0.211-0.033,0.397,0.106,0.431,0.309c0.306,1.874,1.434,3.616,3.017,4.661
					c1.586,1.045,3.634,1.394,5.472,0.938c0.211-0.053,0.404,0.073,0.455,0.273c0.05,0.201-0.073,0.404-0.273,0.454
					C279.393,106.552,278.785,106.624,278.175,106.624z"/>
			</g>
			<g>
				<path style="fill:#1A1A34;" d="M259.363,100.248c-0.241,0-0.482-0.011-0.724-0.033c-2.126-0.194-4.127-1.248-5.49-2.891
					c-0.132-0.159-0.109-0.396,0.05-0.528c0.158-0.133,0.395-0.111,0.528,0.049c1.236,1.491,3.052,2.446,4.98,2.623
					c1.932,0.177,3.887-0.434,5.374-1.675c0.158-0.132,0.396-0.112,0.528,0.048c0.133,0.159,0.111,0.396-0.048,0.528
					C263.109,99.582,261.248,100.248,259.363,100.248z"/>
			</g>
			<g>
				<path style="fill:#1A1A34;" d="M238.391,100.99c-1.261,0-2.527-0.323-3.621-0.943c-0.18-0.102-0.244-0.331-0.142-0.511
					c0.103-0.18,0.332-0.244,0.511-0.142c1.372,0.776,3.045,1.034,4.584,0.707c1.542-0.327,2.964-1.24,3.903-2.506
					c0.123-0.168,0.357-0.202,0.524-0.078c0.166,0.123,0.201,0.358,0.077,0.524c-1.046,1.411-2.631,2.429-4.349,2.793
					C239.391,100.939,238.891,100.99,238.391,100.99z"/>
			</g>
			<g>
				<path style="fill:#1A1A34;" d="M221.228,106.424c-0.516,0-1.032-0.064-1.532-0.195c-0.762-0.199-1.282-0.524-1.59-0.995
					c-0.114-0.173-0.066-0.406,0.108-0.519c0.174-0.113,0.405-0.065,0.519,0.108c0.202,0.308,0.579,0.53,1.153,0.68
					c1.286,0.337,2.695,0.172,3.867-0.449c1.173-0.622,2.101-1.696,2.543-2.948c0.069-0.195,0.283-0.296,0.479-0.229
					c0.195,0.069,0.297,0.283,0.229,0.479c-0.505,1.427-1.561,2.652-2.899,3.361C223.223,106.184,222.225,106.424,221.228,106.424z"
					/>
			</g>
			<g>
				<path style="fill:#1A1A34;" d="M206.665,115.721c-0.896,0-1.792-0.188-2.615-0.569c-0.188-0.087-0.27-0.31-0.183-0.498
					c0.087-0.188,0.311-0.269,0.498-0.183c1.624,0.752,3.659,0.633,5.184-0.304s2.551-2.698,2.614-4.487
					c0.008-0.207,0.195-0.36,0.388-0.362c0.207,0.007,0.369,0.181,0.362,0.388c-0.073,2.065-1.211,4.019-2.971,5.099
					C208.954,115.413,207.81,115.721,206.665,115.721z"/>
			</g>
			<g>
				<path style="fill:#1A1A34;" d="M180.163,140.899c-0.233,0-0.441-0.164-0.489-0.4c-0.055-0.271,0.12-0.535,0.39-0.589
					c2.278-0.464,4.329-1.837,5.626-3.767c0.154-0.229,0.465-0.29,0.694-0.136c0.229,0.154,0.29,0.465,0.136,0.694
					c-1.443,2.147-3.724,3.674-6.257,4.189C180.23,140.895,180.197,140.899,180.163,140.899z"/>
			</g>
			<g>
				<path style="fill:#1A1A34;" d="M188.202,164.585c-0.249,0-0.465-0.187-0.496-0.441c-0.011-0.096-1.206-9.707-5.003-16.206
					c-1.854-3.172-9.068-12.911-24.116-5.057c-12.083,6.307-14.153,16.172-14.172,16.271c-0.054,0.271-0.314,0.444-0.587,0.394
					c-0.27-0.053-0.447-0.315-0.395-0.586c0.082-0.422,2.158-10.424,14.691-16.966c12.579-6.566,21.39-1.496,25.442,5.439
					c3.904,6.682,5.085,16.19,5.133,16.592c0.033,0.274-0.163,0.523-0.437,0.556C188.242,164.584,188.222,164.585,188.202,164.585z"
					/>
			</g>
			<g>
				<path style="fill:#1A1A34;" d="M142.639,150.932c-0.069,0-0.14-0.014-0.207-0.045c-0.251-0.115-0.362-0.411-0.247-0.663
					c1.223-2.683,3.754-5.484,6.448-7.137c2.74-1.681,5.853-2.688,8.259-3.377c0.878-0.251,1.741-0.476,2.639-0.443
					c1.095,0.039,2.045,0.48,2.606,1.212c0.168,0.219,0.127,0.533-0.093,0.701c-0.219,0.168-0.532,0.126-0.701-0.093
					c-0.373-0.486-1.063-0.794-1.848-0.821c-0.749-0.02-1.5,0.167-2.328,0.405c-2.491,0.714-5.39,1.661-8.012,3.269
					c-2.497,1.532-4.933,4.224-6.061,6.699C143.01,150.824,142.829,150.932,142.639,150.932z"/>
			</g>
			<g>
				<path style="fill:#1A1A34;" d="M164.368,139.102c-0.165,0-0.326-0.081-0.421-0.23c-11.315-17.604-13.857-40.741-6.633-60.38
					c1.069-2.907,2.642-6.632,5.339-9.663c1.169-1.313,2.922-2.198,4.199-1.205c0.855,0.665,0.954,1.793,0.979,2.797
					c0.516,20.708,6.237,41.149,16.546,59.116c0.138,0.24,0.055,0.545-0.185,0.683c-0.24,0.138-0.545,0.054-0.683-0.185
					c-10.391-18.11-16.158-38.716-16.678-59.588c-0.02-0.811-0.083-1.636-0.592-2.032c-0.876-0.683-2.24,0.409-2.838,1.08
					c-2.586,2.904-4.11,6.519-5.148,9.342c-7.117,19.352-4.613,42.149,6.536,59.495c0.149,0.232,0.082,0.542-0.15,0.691
					C164.554,139.076,164.461,139.102,164.368,139.102z"/>
			</g>
			<g>
				<path style="fill:#1A1A34;" d="M141.021,150.806c-0.165,0-0.326-0.081-0.421-0.229c-10.44-16.243-12.634-36.924-5.868-55.321
					c0.987-2.685,2.441-6.126,4.932-8.924c1.092-1.226,2.729-2.045,3.925-1.116c0.802,0.622,0.894,1.673,0.918,2.609
					c0.449,18.032,5.22,35.973,13.796,51.882c0.131,0.243,0.04,0.546-0.203,0.677c-0.244,0.133-0.546,0.04-0.677-0.203
					c-8.651-16.047-13.463-34.143-13.917-52.331c-0.018-0.739-0.075-1.49-0.531-1.844c-0.73-0.566-1.934,0.282-2.565,0.991
					c-2.38,2.673-3.783,6.002-4.74,8.604c-6.659,18.105-4.502,38.455,5.77,54.436c0.149,0.232,0.082,0.542-0.15,0.691
					C141.207,150.781,141.114,150.806,141.021,150.806z"/>
			</g>
			<g>
				<path style="fill:#1A1A34;" d="M182.666,165.013c-0.011,0-0.021,0-0.032-0.001c-0.276-0.018-0.485-0.255-0.468-0.53
					c0.002-0.04,0.142-4.348-6.348-10.3c-0.693-0.634-1.418-1.167-2.156-1.583c-0.039-0.023-0.157-0.097-0.189-0.129
					c-0.23-0.135-0.552-0.312-0.941-0.501c-1.497-0.749-3.211-1.317-5.101-1.692c-5.456-1.127-10.727-0.412-10.779-0.405
					c-0.279,0.04-0.526-0.152-0.564-0.426c-0.038-0.273,0.152-0.526,0.426-0.564c0.221-0.03,5.489-0.749,11.116,0.415
					c1.974,0.392,3.773,0.989,5.344,1.775c0.418,0.203,0.772,0.397,1.109,0.61c0.013,0.008,0.025,0.017,0.038,0.026
					c0.018,0.01,0.032,0.019,0.035,0.02c0.803,0.454,1.59,1.032,2.339,1.717c6.888,6.317,6.683,10.907,6.67,11.1
					C183.148,164.809,182.927,165.013,182.666,165.013z"/>
			</g>
			<g>
				<path style="fill:#1A1A34;" d="M153.212,166.312c-0.259,0-0.478-0.199-0.498-0.462c-0.021-0.284-0.443-7.011,6.565-12.648
					c0.215-0.173,0.531-0.139,0.703,0.076c0.173,0.215,0.139,0.53-0.076,0.703c-6.579,5.292-6.199,11.73-6.195,11.795
					c0.02,0.275-0.187,0.515-0.462,0.535C153.237,166.311,153.224,166.312,153.212,166.312z"/>
			</g>
			<g>
				<path style="fill:#1A1A34;" d="M167.248,168.505c-6.151,0-10.126-3.41-10.126-8.686c0-2.371,0.751-4.603,2.173-6.456
					c0.126-0.165,0.36-0.195,0.526-0.069c0.164,0.126,0.195,0.361,0.069,0.526c-1.32,1.72-2.018,3.795-2.018,5.999
					c0,5.852,4.844,7.936,9.376,7.936s9.377-2.085,9.377-7.936c0-3.039-1.343-5.841-3.686-7.689
					c-0.163-0.128-0.191-0.364-0.062-0.527c0.128-0.162,0.363-0.19,0.527-0.062c2.523,1.992,3.971,5.009,3.971,8.278
					C177.375,165.095,173.4,168.505,167.248,168.505z"/>
			</g>
			<g>
				<path style="fill:#1A1A34;" d="M173.172,152.335c-0.063,0-0.138-0.012-0.196-0.035c-0.724-0.288-2.211-0.798-4.045-0.985
					c-0.275-0.028-0.475-0.274-0.447-0.548c0.028-0.274,0.278-0.464,0.548-0.447c1.939,0.199,3.517,0.736,4.295,1.044
					c0.196,0.068,0.339,0.254,0.339,0.472C173.666,152.111,173.448,152.335,173.172,152.335z"/>
			</g>
			<g>
				<path style="fill:#1A1A34;" d="M173.814,157.535c0,3.894-3.139,7.056-7.02,7.056c-3.893,0-7.044-3.162-7.044-7.056
					c0-0.731,0.118-1.451,0.33-2.124c0.401,0.861,1.333,1.463,2.419,1.463c1.463,0,2.631-1.085,2.631-2.419
					c0-1.321-1.168-2.407-2.631-2.407c-0.047,0-0.094,0-0.142,0.012c0.26-0.212,0.519-0.413,0.814-0.578
					c2.041-0.755,4.071-0.838,5.805-0.661C171.785,151.742,173.814,154.397,173.814,157.535z"/>
			</g>
			<g>
				<path style="fill:#1A1A34;" d="M159.593,154.091c-0.141,0-0.282-0.06-0.381-0.176c-0.179-0.21-0.154-0.526,0.057-0.705
					c0.244-0.207,0.499-0.402,0.768-0.597c0.893-0.667,1.893-1.207,2.967-1.599c0.259-0.094,0.547,0.039,0.642,0.298
					c0.095,0.259-0.039,0.546-0.298,0.642c-0.982,0.359-1.897,0.852-2.717,1.465c-0.252,0.183-0.488,0.362-0.712,0.554
					C159.823,154.052,159.707,154.091,159.593,154.091z"/>
			</g>
			<g>
				<g>
					<g>
						<path style="fill:none;stroke:#1A1A34;stroke-linecap:round;stroke-linejoin:round;stroke-miterlimit:10;" d="
							M163.175,151.484"/>
					</g>
					<g>
						<path style="fill:none;stroke:#1A1A34;stroke-linecap:round;stroke-linejoin:round;stroke-miterlimit:10;" d="
							M168.981,150.817"/>
					</g>
				</g>
			</g>
			<g>
				<path style="fill:#1A1A34;" d="M89.314,212.225c-0.111,0-0.22-0.037-0.309-0.107c-0.261-0.205-6.42-5.226-8.389-22.942
					c-1.821-16.392,8.805-25.934,10.585-27.407c-0.684-3.87,1.653-8.082,5.33-9.501c0.171-0.066,0.362-0.034,0.501,0.084
					c3.84,3.223,8.715,5.077,13.727,5.221c3.2,0.086,5.857-0.545,7.92-1.894c2.423-1.585,3.855-4.227,3.649-6.73
					c-0.024-0.294-0.069-0.587-0.114-0.88c-0.073-0.477-0.148-0.97-0.142-1.481c0.014-1.075,0.452-1.988,1.171-2.442
					c1.457-0.92,3.233,0.238,4.087,0.794c5.584,3.642,12.96,5.546,20.767,5.376c0.004,0,0.008,0,0.011,0
					c0.271,0,0.494,0.216,0.5,0.489c0.006,0.276-0.213,0.505-0.489,0.511c-8.013,0.178-15.584-1.787-21.335-5.538
					c-1.035-0.675-2.201-1.296-3.006-0.788c-0.432,0.273-0.695,0.875-0.705,1.611c-0.005,0.427,0.061,0.859,0.131,1.316
					c0.048,0.315,0.096,0.631,0.123,0.949c0.236,2.863-1.373,5.866-4.099,7.649c-2.237,1.463-5.092,2.146-8.496,2.057
					c-5.134-0.148-10.132-2.014-14.107-5.261c-3.176,1.386-5.131,5.156-4.385,8.551c0.042,0.191-0.032,0.39-0.188,0.507
					c-0.124,0.093-12.352,9.491-10.44,26.696c1.582,14.242,5.982,20.121,7.495,21.758c1.063-2.715,5.415-11.713,16.168-10.556
					c1.403,0.149,2.829,0.325,4.26,0.501c10.9,1.341,22.172,2.727,25.886-7.226c0.07-0.189,0.247-0.316,0.448-0.325
					c0.406-0.017,9.973-0.509,11.751-8.794c0.058-0.27,0.326-0.443,0.594-0.384c0.27,0.058,0.442,0.324,0.384,0.594
					c-1.747,8.137-10.525,9.386-12.355,9.558c-4.094,10.364-15.651,8.943-26.83,7.569c-1.426-0.175-2.846-0.35-4.244-0.499
					c-11.721-1.251-15.231,10.12-15.375,10.604c-0.047,0.159-0.169,0.284-0.328,0.335C89.416,212.217,89.365,212.225,89.314,212.225
					z"/>
			</g>
			<g>
				<path style="fill:#1A1A34;" d="M96.713,153.235c-0.19,0-0.373-0.11-0.456-0.295c-0.16-0.356-3.892-8.828-0.91-17.444
					c3.061-8.842,7.97-13.393,9.858-13.456c0.779-0.053,1.276,0.999,2.723,4.249c2.443,5.484,6.989,15.692,14.997,18.856
					c0.257,0.101,0.383,0.392,0.281,0.648c-0.102,0.257-0.393,0.384-0.648,0.281c-8.388-3.314-13.043-13.765-15.543-19.379
					c-0.733-1.646-1.49-3.345-1.85-3.65c-1.455,0.19-6.038,4.586-8.874,12.777c-2.85,8.232,0.839,16.623,0.877,16.706
					c0.113,0.252,0,0.548-0.251,0.661C96.851,153.22,96.781,153.235,96.713,153.235z"/>
			</g>
			<g>
				<path style="fill:#1A1A34;" d="M170.261,233.657c-8.047,0-14.309-3.346-19.385-6.059c-2.654-1.417-4.945-2.642-7.085-3.229
					c-4.551-1.249-7.95-0.903-12.655-0.429c-4.409,0.446-9.897,1.003-18.404,0.445c-17.755-1.161-20.122-18.884-20.144-19.063
					c-0.034-0.274,0.161-0.523,0.435-0.557c0.281-0.037,0.523,0.162,0.557,0.435c0.086,0.697,2.298,17.079,19.217,18.186
					c8.422,0.551,13.865,0.001,18.238-0.441c4.813-0.487,8.29-0.838,13.02,0.458c2.247,0.617,4.585,1.865,7.291,3.311
					c8.273,4.421,18.571,9.923,34.442,1.863c20.718-10.518,14.351-35.363,14.284-35.613c-0.071-0.267,0.087-0.54,0.354-0.612
					c0.265-0.072,0.54,0.087,0.612,0.354c0.069,0.257,6.635,25.882-14.797,36.763C180.233,232.524,174.945,233.657,170.261,233.657z
					"/>
			</g>
			<g>
				<path style="fill:#1A1A34;" d="M120.389,224.486c-0.023,0-0.047-0.002-0.07-0.007c-0.199-0.039-0.332-0.223-0.299-0.423
					c0.045-0.273,0.726-2.894,10.804-10.552c9.9-7.524,4.774-19.515,4.722-19.635c-0.037-0.105-2.458-7.156-12.951-11.618
					c-10.402-4.426-15.304,0.518-15.352,0.569c-0.104,0.11-0.265,0.146-0.407,0.09c-0.141-0.055-0.236-0.189-0.239-0.341
					c-0.424-19.771-14.261-20.215-14.85-20.225c-0.207-0.003-0.373-0.173-0.37-0.38c0.003-0.205,0.17-0.37,0.375-0.37
					c0.001,0,0.003,0,0.005,0c0.15,0.002,14.763,0.431,15.565,20.171c1.665-1.259,6.675-3.986,15.567-0.205
					c10.829,4.606,13.258,11.74,13.356,12.041c0.042,0.091,5.397,12.622-4.967,20.499c-9.824,7.465-10.514,10.063-10.52,10.088
					C120.718,224.363,120.562,224.486,120.389,224.486z"/>
			</g>
			<g>
				<path style="fill:#1A1A34;" d="M113.257,168.232c-0.038,0-0.077-0.006-0.116-0.019c-0.197-0.064-0.305-0.275-0.241-0.472
					c0.02-0.063,2.106-6.247,10.248-7.526c2.557-0.401,4.563,0.037,5.963,1.3c2.227,2.01,2.075,5.345,2.067,5.486
					c-0.011,0.207-0.214,0.351-0.394,0.355c-0.207-0.011-0.366-0.188-0.355-0.394c0.001-0.031,0.137-3.126-1.824-4.893
					c-1.225-1.104-3.021-1.479-5.341-1.113c-7.669,1.204-9.632,6.958-9.651,7.016C113.562,168.131,113.415,168.232,113.257,168.232z
					"/>
			</g>
			<g>
				<path style="fill:#1A1A34;" d="M115.936,171.902c0,0,1.548-4.53,6.097-5.781c4.549-1.251,4.57,2.029,3.975,3.485
					C125.413,171.062,118.778,169.299,115.936,171.902z"/>
			</g>
			<g>
				<path style="fill:#1A1A34;" d="M163.176,151.983c-0.19,0-0.373-0.109-0.456-0.293c-0.114-0.251-0.003-0.547,0.248-0.661
					c0.101-0.046,2.494-1.11,6.069-0.709c0.274,0.031,0.472,0.279,0.441,0.553c-0.031,0.274-0.278,0.469-0.553,0.441
					c-3.283-0.372-5.521,0.616-5.544,0.625C163.314,151.969,163.244,151.983,163.176,151.983z"/>
			</g>
			<g>
				<path style="fill:#1A1A34;" d="M357.518,305.407c-0.264,0-0.484-0.205-0.499-0.472c-0.016-0.275,0.195-0.512,0.471-0.527
					c24.415-1.392,46.898-8.183,65.018-19.64c20.407-12.902,35.196-31.598,41.643-52.642c6.885-22.472,3.308-47.546-9.334-65.437
					c-1.539-2.177-3.147-4.128-4.778-5.798c-0.772-0.788-1.751-0.659-2.379-0.183c-0.579,0.439-1.047,1.31-0.463,2.322
					c5.262,9.109,7.039,20.456,4.877,31.129c-2.856,14.1-11.922,27.271-25.526,37.087c-8.13,5.865-16.152,9.197-23.843,9.902
					c-8.434,0.773-17.474-1.424-26.89-6.527c-7.145-3.871-13.674-8.934-19.988-13.828c-0.93-0.722-1.859-1.442-2.791-2.159
					c-11.491-8.846-24.101-17.786-38.432-23.258c-15.383-5.875-29.831-6.575-42.941-2.08c-0.264,0.086-0.547-0.05-0.635-0.311
					c-0.09-0.261,0.049-0.545,0.311-0.635c13.34-4.572,28.016-3.868,43.623,2.092c14.451,5.518,27.133,14.508,38.684,23.399
					c0.933,0.718,1.863,1.439,2.794,2.161c6.283,4.871,12.78,9.907,19.853,13.74c9.24,5.008,18.096,7.162,26.321,6.41
					c7.511-0.688,15.366-3.958,23.349-9.717c13.4-9.669,22.326-22.622,25.132-36.475c2.114-10.439,0.379-21.53-4.762-30.431
					c-0.848-1.467-0.219-2.904,0.724-3.619c0.946-0.718,2.508-0.936,3.698,0.28c1.669,1.708,3.311,3.699,4.88,5.92
					c12.816,18.138,16.447,43.545,9.475,66.307c-6.518,21.272-21.456,40.163-42.064,53.194
					c-18.263,11.547-40.911,18.392-65.496,19.792C357.537,305.407,357.527,305.407,357.518,305.407z"/>
			</g>
			<g>
				<path style="fill:#1A1A34;" d="M141.082,387.945c-0.046,0-0.093-0.007-0.14-0.02c-6.271-1.826-2.605-18.048,0.629-32.361
					c1.482-6.559,2.762-12.223,2.727-15.125c-0.024-1.997-0.165-4.228-0.316-6.588c-0.523-8.219-1.173-18.446,2.907-26.23
					c5.562-10.61,10.57-29.043,9.218-46.303c-1.413-18.044,2.702-30.29,2.743-30.411c0.09-0.262,0.372-0.401,0.635-0.311
					c0.261,0.089,0.4,0.374,0.311,0.635c-0.041,0.12-4.088,12.186-2.692,30.009c1.367,17.459-3.7,36.107-9.329,46.846
					c-3.95,7.536-3.31,17.608-2.795,25.702c0.151,2.374,0.293,4.616,0.318,6.64c0.036,3.02-1.255,8.737-2.751,15.357
					c-2.825,12.499-6.693,29.617-1.326,31.18c0.265,0.077,0.417,0.355,0.34,0.62C141.498,387.804,141.299,387.945,141.082,387.945z"
					/>
			</g>
			<g>
				<path style="fill:#1A1A34;" d="M182.627,386.197c-0.164,0-0.325-0.081-0.421-0.229c-0.146-0.227-0.086-0.525,0.131-0.679
					c0.091-0.079,3.063-2.872,1.105-21.626c-2.521-24.149-1.317-36.47,3.79-38.773c0.253-0.115,0.548-0.002,0.661,0.251
					c0.114,0.251,0.002,0.547-0.25,0.661c-4.594,2.071-5.643,14.422-3.207,37.758c2.051,19.637-1.164,22.316-1.538,22.557
					C182.814,386.171,182.72,386.197,182.627,386.197z"/>
			</g>
			<g>
				<path style="fill:#1A1A34;" d="M217.722,246.567c-0.096,0-0.192-0.036-0.265-0.109c-15.337-15.337-17.016-36.483-17.031-36.695
					c-0.015-0.207,0.141-0.386,0.347-0.401c0.21-0.002,0.386,0.141,0.401,0.347c0.015,0.209,1.68,21.085,16.813,36.217
					c0.146,0.146,0.146,0.385,0,0.531C217.914,246.531,217.818,246.567,217.722,246.567z"/>
			</g>
			<g>
				<path style="fill:#1A1A34;" d="M233.138,300.974c-0.17,0-0.336-0.087-0.43-0.243c-0.045-0.076-4.633-7.845-13.322-30.581
					c-8.813-23.063,3.181-31.506,3.303-31.588c0.229-0.155,0.539-0.095,0.693,0.134c0.155,0.228,0.096,0.539-0.132,0.694
					c-0.115,0.078-11.442,8.127-2.929,30.402c8.647,22.631,13.201,30.35,13.246,30.425c0.142,0.237,0.064,0.544-0.173,0.686
					C233.314,300.951,233.225,300.974,233.138,300.974z"/>
			</g>
			<g>
				<path style="fill:#1A1A34;" d="M198.939,351.452c-0.074,0-0.148-0.017-0.219-0.051c-0.248-0.121-0.351-0.421-0.23-0.669
					c0.086-0.177,8.776-17.859,21.761-38.391c13.224-20.91,28.402-12.389,28.553-12.3c0.238,0.139,0.318,0.444,0.18,0.683
					c-0.139,0.238-0.446,0.317-0.683,0.182c-0.586-0.342-14.512-8.1-27.206,11.971c-12.955,20.484-21.621,38.119-21.707,38.295
					C199.302,351.35,199.124,351.452,198.939,351.452z"/>
			</g>
			<g>
				<path style="fill:#1A1A34;" d="M237.791,363.702c-0.706,0-1.139-0.092-1.158-0.096c-0.269-0.062-0.436-0.328-0.375-0.598
					c0.061-0.268,0.329-0.443,0.597-0.377c0.304,0.067,7.487,1.525,11.222-9.836c0.352-1.069,0.686-2.108,1.012-3.116
					c3.293-10.202,5.673-17.573,13.997-21.773c8.806-4.443,16.56-13.563,17.61-18.749c0.473-2.329-1.592-11.596-3.588-20.557
					c-3.005-13.488-4.889-22.488-3.74-24.608c2.189-4.042,4.57-5.099,4.67-5.142c0.251-0.106,0.548,0.009,0.657,0.263
					c0.108,0.254-0.009,0.548-0.263,0.657c-0.019,0.008-2.179,0.993-4.186,4.698c-1.056,1.949,1.657,14.128,3.837,23.914
					c2.112,9.48,4.107,18.436,3.593,20.974c-1.097,5.41-9.087,14.874-18.14,19.442c-7.952,4.013-10.157,10.845-13.496,21.188
					c-0.326,1.01-0.662,2.051-1.015,3.122C245.903,362.615,240.225,363.702,237.791,363.702z"/>
			</g>
			<g>
				<path style="fill:#1A1A34;" d="M339.923,346.359c-3.807,0-7.963-0.739-12.065-2.232c-10.527-3.832-18.284-11.637-20.751-20.876
					c-1.726-6.465-2.45-10.786-3.152-14.965c-1.47-8.754-2.857-17.022-12.815-43.551c-14.833-39.514,13.453-52.066,13.741-52.188
					c0.252-0.109,0.547,0.01,0.655,0.264c0.108,0.254-0.01,0.547-0.264,0.656c-0.279,0.119-27.684,12.326-13.197,50.917
					c9.993,26.619,11.389,34.934,12.866,43.736c0.698,4.156,1.419,8.454,3.133,14.873c2.382,8.925,9.905,16.474,20.126,20.194
					c8.588,3.126,17.381,2.871,22.398-0.647l10.987-7.708c0.224-0.159,0.539-0.105,0.696,0.122c0.159,0.226,0.105,0.538-0.122,0.696
					l-10.987,7.708C348.331,345.351,344.365,346.359,339.923,346.359z"/>
			</g>
			<g>
				<path style="fill:#1A1A34;" d="M367.777,378.543c-0.227,0-0.432-0.154-0.486-0.385c-0.064-0.268,0.103-0.538,0.371-0.602
					c3.742-0.889,5.978-2.122,6.836-3.771c1.112-2.136-0.046-5.053-1.387-8.43c-0.347-0.874-0.707-1.782-1.048-2.722
					c-1.533-4.227-0.662-9.371,0.261-14.818c0.735-4.345,1.496-8.836,1.023-13.012c-0.517-4.574-3.347-6.98-6.623-9.766
					c-3.16-2.686-6.741-5.73-8.445-11.3c-2.41-7.879-0.525-15.202,2.084-25.337c1.099-4.27,2.345-9.107,3.479-14.759
					c3.75-18.666-4.054-27.022-4.133-27.104c-0.191-0.198-0.187-0.515,0.012-0.707c0.201-0.191,0.515-0.184,0.706,0.011
					c0.339,0.35,8.258,8.773,4.396,27.998c-1.141,5.677-2.39,10.529-3.491,14.811c-2.664,10.349-4.425,17.185-2.096,24.795
					c1.617,5.29,4.932,8.107,8.136,10.831c3.296,2.801,6.408,5.447,6.97,10.415c0.488,4.315-0.285,8.878-1.032,13.291
					c-0.899,5.313-1.749,10.332-0.307,14.31c0.338,0.931,0.694,1.829,1.038,2.694c1.431,3.605,2.667,6.719,1.344,9.261
					c-1.014,1.948-3.395,3.309-7.492,4.281C367.854,378.539,367.815,378.543,367.777,378.543z"/>
			</g>
			<g>
				<path style="fill:#1A1A34;" d="M329.031,377.194c-0.158,0-0.314-0.075-0.412-0.217c-1.947-2.83-1.65-3.317,0.475-5.773
					c1.263-1.458,3.17-3.663,5.733-7.748c6.513-10.376,4.876-17.395,4.858-17.466c-0.066-0.268,0.097-0.539,0.364-0.605
					c0.27-0.072,0.539,0.095,0.605,0.362c0.076,0.3,1.779,7.47-4.98,18.24c-2.604,4.15-4.542,6.39-5.824,7.871
					c-1.973,2.279-1.973,2.279-0.407,4.553c0.156,0.228,0.099,0.538-0.129,0.695C329.228,377.165,329.13,377.194,329.031,377.194z"
					/>
			</g>
			<g>
				<path style="fill:#1A1A34;" d="M208.329,333.35c-0.006,0-0.011,0-0.017,0c-0.224-0.008-22.511-0.976-34.036-21.844
					c-10.913-19.759-4.719-39.61-3.992-41.764c-7.908-18.784-5.887-37.25-5.865-37.435c0.032-0.274,0.281-0.467,0.554-0.439
					c0.274,0.032,0.471,0.28,0.439,0.555c-0.021,0.183-2.021,18.514,5.868,37.106c0.049,0.117,0.053,0.249,0.009,0.368
					c-0.076,0.205-7.409,20.716,3.863,41.124c11.253,20.377,32.976,21.321,33.194,21.328c0.276,0.01,0.492,0.24,0.483,0.517
					C208.819,333.137,208.597,333.35,208.329,333.35z"/>
			</g>
			<g>
				<path style="fill:#1A1A34;" d="M260.777,339.476c-4.477,0-7.079-0.339-7.159-0.351c-0.273-0.038-0.465-0.29-0.427-0.564
					c0.038-0.274,0.296-0.46,0.564-0.427c0.25,0.034,25.419,3.304,55.259-11.052c0.25-0.119,0.548-0.016,0.667,0.233
					c0.12,0.249,0.016,0.548-0.233,0.667C288.854,337.891,270.446,339.476,260.777,339.476z"/>
			</g>
			<g>
				<path style="fill:#1A1A34;" d="M400.026,269.888c-11.375,0-23.123-3.423-35.107-10.251c-0.18-0.103-0.243-0.332-0.141-0.512
					c0.104-0.181,0.333-0.242,0.512-0.141c17.946,10.225,35.342,12.74,51.709,7.48c32.399-10.417,50.076-48.185,50.251-48.565
					c0.088-0.188,0.311-0.27,0.497-0.184c0.188,0.087,0.27,0.309,0.184,0.497c-0.176,0.384-17.984,38.443-50.699,48.965
					C411.609,268.985,405.866,269.888,400.026,269.888z"/>
			</g>
			<g>
				<path style="fill:#1A1A34;" d="M289.967,277.636c-8.512,0-15.985-5.66-16.077-5.731c-0.164-0.126-0.195-0.361-0.068-0.525
					c0.125-0.163,0.36-0.195,0.525-0.068c0.111,0.084,11.113,8.408,21.376,4.565c0.195-0.07,0.41,0.025,0.483,0.22
					c0.072,0.194-0.026,0.41-0.22,0.483C293.976,277.33,291.943,277.636,289.967,277.636z"/>
			</g>
			<g>
				<path style="fill:#1A1A34;" d="M231.355,175.12c-1.933,0-3.936-1.103-5.583-3.166c-2.361-2.957-3.615-7.622-1.29-10.445
					c1.997-1.768,4.454-2.112,6.957-1.014c3.311,1.453,5.858,5.056,5.927,8.38c0.051,2.47-1.279,4.495-3.744,5.701
					C232.896,174.942,232.131,175.12,231.355,175.12z M228.614,160.62c-1.306,0-2.535,0.474-3.594,1.409
					c-2.033,2.475-0.839,6.731,1.338,9.457c1.626,2.037,4.302,3.741,6.929,2.42c0.001,0,0.002-0.001,0.004-0.002
					c2.806-1.372,3.357-3.483,3.325-5.013c-0.062-3.002-2.468-6.388-5.479-7.71C230.281,160.807,229.432,160.62,228.614,160.62z"/>
			</g>
			<g>
				<path style="fill:#1A1A34;" d="M238.652,190.824c-2.81,0-5.424-1.515-6.863-3.99c-1.647-2.835-1.414-6.404,0.638-9.791
					c2.887-3.952,7.167-3.583,9.962-2.074c3.341,1.804,5.87,5.899,4.243,10.235c-0.006,0.013-0.011,0.026-0.018,0.039
					c-1.77,3.46-4.595,5.493-7.753,5.578C238.792,190.824,238.721,190.824,238.652,190.824z M238.328,174.663
					c-1.85,0-3.779,0.747-5.277,2.796c-1.889,3.118-2.119,6.408-0.613,8.999c1.316,2.265,3.837,3.679,6.404,3.614
					c2.912-0.079,5.432-1.907,7.096-5.151c1.53-4.108-0.949-7.695-3.904-9.291C240.969,175.056,239.67,174.663,238.328,174.663z
					 M246.281,185.073h0.01H246.281z"/>
			</g>
			<g>
				<path style="fill:#1A1A34;" d="M294.427,209.595c-0.974,0-1.927-0.1-2.78-0.264c-3.363-0.648-5.841-2.294-6.465-4.298
					c-0.334-1.071-0.304-2.785,1.735-4.862c2.415-3.934,7.677-4.025,11.337-1.802c2.651,1.61,4.914,4.885,2.563,8.817
					c-0.01,0.016-0.02,0.03-0.031,0.044C299.359,208.985,296.834,209.595,294.427,209.595z M293.129,197.66
					c-2.216,0-4.346,0.897-5.624,2.971c-1.48,1.521-2.004,2.905-1.607,4.179c0.534,1.712,2.846,3.198,5.891,3.785
					c2.969,0.573,6.711,0.23,8.398-1.816c2.044-3.445,0.144-6.271-2.321-7.768C296.444,198.148,294.763,197.66,293.129,197.66z
					 M300.495,206.994h0.01H300.495z"/>
			</g>
			<g>
				<path style="fill:#1A1A34;" d="M272.328,213.768c-0.349,0-0.7-0.042-1.052-0.128c-1.564-0.381-2.998-1.609-3.846-3.292
					c-1.648-1.764-3.231-4.475-2.772-6.845c0.274-1.414,1.216-2.509,2.799-3.253c3.613-3.457,7.421-4.781,10.458-3.632
					c2.233,0.845,3.754,2.993,3.967,5.605c0.325,3.977-2.215,7.937-6.797,10.595C274.223,213.447,273.286,213.768,272.328,213.768z
					 M275.642,196.964c-2.371,0-5.08,1.34-7.711,3.871c-0.03,0.029-0.064,0.053-0.102,0.07c-1.387,0.638-2.205,1.561-2.435,2.742
					c-0.409,2.109,1.086,4.6,2.62,6.228c0.026,0.027,0.047,0.058,0.064,0.091c0.747,1.511,2.009,2.612,3.376,2.945
					c1.1,0.267,2.208,0.023,3.203-0.709c0.012-0.008,0.023-0.016,0.035-0.023c4.335-2.509,6.743-6.208,6.442-9.895
					c-0.192-2.356-1.495-4.212-3.485-4.965C277.017,197.081,276.344,196.964,275.642,196.964z"/>
			</g>
			<g>
				<path style="fill:#1A1A34;" d="M282.535,221.784c-0.911,0-1.787-0.164-2.537-0.508c-1.574-0.722-2.448-2.135-2.461-3.979
					c0-0.057,0.012-0.112,0.036-0.163c1.275-2.697,4.365-5.476,7.342-5.476c0.01,0,0.02,0,0.028,0
					c1.29,0.008,3.077,0.563,4.27,3.167c0.009,0.019,0.016,0.038,0.021,0.057c0.535,1.949-0.046,3.768-1.637,5.119
					C286.246,221.151,284.325,221.784,282.535,221.784z M278.288,217.377c0.044,1.91,1.12,2.804,2.022,3.218
					c1.98,0.905,4.967,0.396,6.801-1.164c1.349-1.145,1.848-2.679,1.408-4.32c-0.825-1.784-2.03-2.693-3.58-2.702
					c-0.008,0-0.016,0-0.023,0C282.299,212.408,279.461,214.967,278.288,217.377z"/>
			</g>
			<g>
				<path style="fill:#1A1A34;" d="M220.968,187.1c-1.287,0.001-2.641-0.244-3.931-0.749c-3.179-1.244-5.033-3.664-5.087-6.64
					c-1.363-6.218-0.192-10.5,3.14-11.384c3.708-0.983,9.213,2.9,11.52,10.243c1.537,3.501,0.595,5.556-0.467,6.665
					C224.973,186.455,223.059,187.1,220.968,187.1z M216.324,168.92c-0.361,0-0.709,0.043-1.041,0.132
					c-2.898,0.768-3.867,4.72-2.591,10.572c0.057,2.73,1.738,4.901,4.619,6.029c3.064,1.198,6.63,0.796,8.292-0.938
					c1.299-1.355,1.407-3.382,0.314-5.862c-0.005-0.013-0.01-0.026-0.015-0.039C223.94,172.552,219.625,168.92,216.324,168.92z"/>
			</g>
			<g>
				<path style="fill:#1A1A34;" d="M231.642,319.281c-1.614,0-3.093-0.323-4.152-1.064c-1.222-0.854-2.402-2.622-1.115-6.189
					c-0.195-3.404,2.484-6.801,5.127-8.283c4.464-2.619,8.913-0.875,10.999,2.199c1.941,2.863,2.059,7.184-2.049,10.383
					C238.39,318.07,234.764,319.281,231.642,319.281z M236.002,303.195c-1.292,0-2.689,0.358-4.126,1.2
					c-2.47,1.385-4.969,4.538-4.748,7.661c0.004,0.053-0.004,0.106-0.022,0.156c-0.937,2.545-0.663,4.358,0.813,5.39
					c2.784,1.947,9.151,0.607,12.054-1.853c0.004-0.003,0.008-0.007,0.012-0.01c3.731-2.902,3.641-6.8,1.895-9.375
					C240.667,304.575,238.539,303.195,236.002,303.195z"/>
			</g>
			<g>
				<path style="fill:#1A1A34;" d="M153.732,346.085c-0.23,0-0.46-0.013-0.69-0.038c-0.035-0.004-0.068-0.013-0.101-0.026
					c-4.104-1.694-7.248-10.3-5.605-15.347c0.949-2.915,3.346-4.065,6.757-3.239c4.124,1.692,6.354,6.798,6.704,10.833l0,0
					c0.179,2.057-0.672,4.217-2.275,5.778C157.169,345.362,155.455,346.085,153.732,346.085z M153.179,345.307
					c1.71,0.178,3.461-0.478,4.819-1.799c1.444-1.405,2.21-3.341,2.051-5.176l0,0c-0.342-3.937-2.577-8.7-6.188-10.187
					c-2.96-0.71-4.99,0.235-5.813,2.761C146.541,335.542,149.461,343.713,153.179,345.307z"/>
			</g>
			<g>
				<path style="fill:#1A1A34;" d="M160.312,328.029c-0.803,0-1.605-0.255-2.231-0.725c-0.663-0.496-1.091-1.201-1.214-1.994
					c-1.354-1.958-1.326-4.986,0.078-7.574c1.241-2.287,3.256-3.564,5.396-3.49c2.842,0.487,4.511,2.571,4.509,5.58
					c-0.002,3.435-2.273,7.528-5.939,8.155c0,0-0.001,0-0.002,0C160.711,328.013,160.511,328.029,160.312,328.029z M160.847,327.611
					h0.009H160.847z M162.077,314.986c-1.733,0-3.411,1.147-4.474,3.108c-1.268,2.336-1.298,5.155-0.074,6.855
					c0.037,0.051,0.06,0.11,0.068,0.173c0.099,0.804,0.562,1.304,0.933,1.582c0.622,0.465,1.464,0.667,2.255,0.536
					c3.176-0.543,5.311-4.273,5.313-7.415c0.001-1.255-0.372-4.237-3.84-4.836C162.198,314.987,162.138,314.986,162.077,314.986z"/>
			</g>
			<g>
				<path style="fill:#1A1A34;" d="M167.709,338.866c-2.006,0-3.565-1.29-3.995-3.319c-0.043-0.428-0.096-0.831-0.15-1.244
					c-0.31-2.365-0.662-5.046,1.6-6.633c1.603-0.917,3.245-0.821,4.653,0.256c1.971,1.507,3.075,4.671,2.467,7.063
					c-0.392,2.58-2.567,3.817-4.428,3.875C167.806,338.865,167.757,338.866,167.709,338.866z M167.34,327.789
					c-0.534,0-1.129,0.143-1.776,0.513c-1.86,1.307-1.553,3.643-1.257,5.903c0.055,0.421,0.109,0.833,0.147,1.228
					c0.432,2.029,2.03,2.722,3.378,2.681c1.563-0.049,3.392-1.088,3.712-3.255c0.002-0.014,0.005-0.026,0.008-0.039
					c0.541-2.093-0.462-4.978-2.191-6.299C168.863,328.141,168.177,327.789,167.34,327.789z"/>
			</g>
			<g>
				<path style="fill:#1A1A34;" d="M327.372,315.21c-0.217,0-0.439-0.014-0.664-0.041c-3.189-0.387-6.597-3.587-6.59-7.735
					c0-0.017,0.001-0.034,0.004-0.052c0.5-3.543,3.122-4.479,5.415-4.168c3.569,0.48,7.209,3.766,6.737,7.442
					C331.566,313.563,329.76,315.21,327.372,315.21z M320.868,307.461c0.008,3.737,3.067,6.616,5.931,6.964
					c2.333,0.277,4.064-1.142,4.739-3.905c0.41-3.213-2.88-6.129-6.101-6.563C324.241,303.797,321.395,303.815,320.868,307.461z"/>
			</g>
			<g>
				<path style="fill:#1A1A34;" d="M328.397,240.723c-1.428,0-2.891-0.502-4.045-1.455c-1.762-1.452-2.441-3.675-1.864-6.098
					c0.095-2.258,1.259-3.327,2.217-3.814c1.727-0.878,4.237-0.57,6.247,0.767c1.887,1.252,2.89,3.094,2.753,5.054
					c-0.075,2.423-1.139,4.221-2.996,5.063C329.99,240.565,329.199,240.723,328.397,240.723z M326.945,229.606
					c-0.693,0-1.346,0.137-1.9,0.419c-1.119,0.568-1.747,1.692-1.816,3.249c-0.706,2.991,0.7,4.674,1.601,5.416
					c1.562,1.288,3.852,1.646,5.57,0.865c1.584-0.718,2.492-2.284,2.556-4.408c0-0.006,0.001-0.011,0.001-0.016
					c0.121-1.686-0.761-3.284-2.419-4.385C329.41,229.998,328.119,229.606,326.945,229.606z"/>
			</g>
			<g>
				<path style="fill:#1A1A34;" d="M250.999,317.635c-2.285,0-4.08-1.329-5.066-3.759c-1.006-3.46,0.553-7.598,3.611-9.659
					c2.439-1.645,5.191-1.519,7.553,0.339c0.002,0.002,0.005,0.004,0.007,0.006c2.214,1.834,2.936,4.281,2.034,6.89
					c-1.148,3.322-4.728,6.096-7.981,6.182C251.104,317.634,251.052,317.635,250.999,317.635z M253.091,303.827
					c-1.061,0-2.125,0.336-3.128,1.012c-2.8,1.888-4.229,5.667-3.322,8.792c1.118,2.75,3.075,3.291,4.496,3.252
					c2.966-0.078,6.237-2.625,7.292-5.677c0.792-2.29,0.152-4.443-1.8-6.064C255.515,304.267,254.304,303.827,253.091,303.827z"/>
			</g>
			<g>
				<path style="fill:#1A1A34;" d="M239.524,329.32c-2.281,0-3.827-1.266-4.209-3.511c-0.66-3.763,2.457-6.753,5.723-7.364
					c2.359-0.442,5.392,0.37,6.141,4.125c0.002,0.011,0.003,0.02,0.005,0.031c0.359,3.215-3.237,6.161-6.693,6.648
					C240.156,329.296,239.833,329.32,239.524,329.32z M242.23,319.082c-0.356,0-0.709,0.035-1.054,0.1
					c-2.916,0.546-5.703,3.186-5.122,6.5c0.515,3.026,3.198,2.982,4.332,2.824c3.046-0.429,6.348-3.057,6.054-5.806
					C245.9,320.02,244.061,319.082,242.23,319.082z"/>
			</g>
			<g>
				<path style="fill:#1A1A34;" d="M330.725,225.225c-3.924,0-8.631-1.881-12.205-3.506c-0.003-0.002-0.006-0.003-0.01-0.005
					c-4.924-2.408-5.227-6.484-3.869-9.496c1.974-4.377,7.589-7.612,12.792-5.463c5.481,1.808,10.84,6.745,10.424,12.666
					c-0.45,2.412-1.561,4.074-3.309,4.982C333.433,224.984,332.129,225.225,330.725,225.225z M318.836,221.038
					c4.71,2.142,11.425,4.749,15.367,2.7c1.532-0.797,2.512-2.281,2.912-4.413c0.379-5.437-4.838-10.184-9.942-11.868
					c-4.832-1.998-10.019,1.012-11.848,5.069C313.754,216.011,315.066,219.192,318.836,221.038z"/>
			</g>
			<g>
				<path style="fill:#1A1A34;" d="M326.558,335.152c-2.542,0.001-5.16-1.342-6.978-3.74c-2.685-2.456-3.678-7.631-2.079-11.025
					c1.105-2.346,3.231-3.429,5.994-3.046c4.906,0.41,8.813,4.052,9.485,8.853c0.854,4.613-1.325,7.354-3.649,8.382
					C328.448,334.964,327.509,335.152,326.558,335.152z M322.431,318.014c-2.44,0-3.652,1.419-4.252,2.692
					c-1.447,3.073-0.517,7.936,1.953,10.202c2.713,3.571,6.502,4.037,8.896,2.98c2.673-1.181,3.874-4.01,3.213-7.566
					c-0.001-0.006-0.002-0.011-0.002-0.017c-0.62-4.456-4.249-7.836-8.827-8.22C323.065,318.036,322.738,318.014,322.431,318.014z"
					/>
			</g>
			<g>
				<path style="fill:#1A1A34;" d="M345.152,237.657c-2.363,0-4.871-1.54-6.169-3.815c-1.192-2.091-1.14-4.417,0.145-6.382
					c1.784-3.226,5.176-3.295,7.737-1.926c2.931,1.569,5.085,5.097,3.308,8.548c-1.016,2.211-2.714,3.479-4.783,3.57
					C345.31,237.656,345.231,237.657,345.152,237.657z M343.655,225.435c-1.453,0-2.905,0.643-3.886,2.412
					c-1.554,2.38-0.75,4.544-0.135,5.623c1.207,2.117,3.542,3.52,5.722,3.434c1.257-0.056,2.995-0.646,4.139-3.142
					c0.002-0.005,0.005-0.011,0.008-0.016c1.564-3.027-0.374-6.149-2.991-7.55C345.664,225.742,344.659,225.435,343.655,225.435z"/>
			</g>
			<g>
				<path style="fill:#1A1A34;" d="M339.313,324.511c-2.691,0-4.666-1.523-5.514-4.231c-1.025-3.272-0.057-7.14,2.114-8.445
					c1.003-0.603,3.138-1.155,6.178,1.921c0.007,0.007,0.013,0.014,0.019,0.021c1.542,1.809,2.08,4.758,1.308,7.172
					c-0.594,1.853-1.873,3.113-3.603,3.546C339.645,324.505,339.477,324.511,339.313,324.511z M337.64,312.103
					c-0.476,0-0.925,0.124-1.34,0.374c-1.864,1.121-2.698,4.663-1.785,7.578c0.463,1.479,1.754,3.93,5.185,3.701
					c1.401-0.357,2.492-1.44,3.003-3.037c0.686-2.141,0.199-4.849-1.154-6.446C340.124,312.834,338.798,312.103,337.64,312.103z"/>
			</g>
			<g>
				<path style="fill:#1A1A34;" d="M265.188,371.168c-0.57,0-0.991-0.003-1.225-0.005c-0.159-0.002-0.309-0.079-0.401-0.209
					c-0.093-0.13-0.118-0.297-0.068-0.448c0.013-0.038,1.232-3.815-0.241-6.088c-0.635-0.979-1.708-1.552-3.189-1.703
					c-1.532-0.159-2.72,0.188-3.522,1.024c-1.754,1.823-1.266,5.424-1.261,5.46c0.031,0.224-0.091,0.441-0.299,0.53
					c-4.852,2.068-7.238,0.967-8.387-0.32c-1.496-1.675-1.442-4.347-0.526-5.963c1.482-2.614,1.98-10.446,1.985-10.524
					c0.017-0.275,0.252-0.504,0.529-0.469c0.276,0.017,0.485,0.254,0.469,0.529c-0.021,0.332-0.518,8.143-2.114,10.958
					c-0.726,1.28-0.778,3.48,0.402,4.803c1.272,1.425,3.717,1.494,6.908,0.208c-0.09-1.076-0.164-4.097,1.569-5.902
					c1.027-1.07,2.485-1.518,4.348-1.328c1.8,0.183,3.121,0.908,3.929,2.155c1.343,2.076,0.85,4.999,0.532,6.292
					c8.371,0.035,21.328-0.627,22.619-2.645c1.902-2.972,2.194-10.449-0.402-16.843c-2.723-6.706-1.097-14.658-1.026-14.993
					c0.058-0.272,0.326-0.441,0.592-0.387c0.271,0.057,0.443,0.322,0.387,0.592c-0.017,0.079-1.632,7.994,0.974,14.411
					c2.802,6.899,2.347,14.59,0.318,17.759C286.242,370.945,270.129,371.168,265.188,371.168z"/>
			</g>
			<g>
				<path style="fill:#1A1A34;" d="M260.467,371.926c-3.602,0-5.998-2.267-6.029-2.297c-0.198-0.192-0.203-0.508-0.012-0.706
					c0.191-0.198,0.509-0.203,0.706-0.014c0.149,0.145,3.696,3.466,8.636,1.296c0.253-0.109,0.549,0.004,0.659,0.257
					c0.11,0.253-0.004,0.548-0.257,0.659C262.841,371.703,261.594,371.926,260.467,371.926z"/>
			</g>
			<g>
				<path style="fill:#1A1A34;" d="M253.685,370.198c-0.254,0-0.472-0.193-0.497-0.452c-0.561-5.828-5.978-6.859-6.208-6.9
					c-0.271-0.048-0.453-0.308-0.405-0.579c0.049-0.272,0.311-0.46,0.578-0.405c0.064,0.011,6.396,1.191,7.031,7.789
					c0.026,0.274-0.175,0.52-0.45,0.546C253.718,370.197,253.702,370.198,253.685,370.198z"/>
			</g>
			<g>
				<path style="fill:#1A1A34;" d="M139.315,387.96c-0.906,0-2.092-0.386-3.087-2.001c-1.806-2.933,1.311-8.17,1.445-8.391
					c0.142-0.238,0.449-0.314,0.686-0.17c0.237,0.142,0.313,0.449,0.17,0.685c-0.029,0.049-2.937,4.936-1.45,7.35
					c1.362,2.212,2.994,1.424,3.176,1.327c0.241-0.128,0.545-0.04,0.676,0.201c0.131,0.242,0.045,0.543-0.195,0.676
					C140.724,387.645,140.135,387.96,139.315,387.96z"/>
			</g>
			<g>
				<path style="fill:#1A1A34;" d="M147.97,393.12c-0.464,0-0.925-0.029-1.367-0.086c-2.999-0.384-5.062-1.903-5.519-4.064
					c-1.038-4.904,5.908-10.125,6.205-10.345c0.061-0.046,0.132-0.076,0.207-0.091c1.628-0.298,3.044,0.283,4.095,1.683
					c2.331,3.102,2.277,9.121,1.362,10.95C152.282,392.511,150.096,393.12,147.97,393.12z M147.792,379.5
					c-0.809,0.627-6.577,5.264-5.73,9.264c0.365,1.726,2.11,2.951,4.668,3.279c2.375,0.306,4.818-0.301,5.329-1.322
					c0.812-1.624,0.738-7.233-1.267-9.903C149.987,379.745,149.003,379.312,147.792,379.5z"/>
			</g>
			<g>
				<path style="fill:#1A1A34;" d="M162.816,394.624c-2.506,0-4.592-1.177-5.667-1.928c-0.751-0.524-1.178-1.435-1.111-2.374
					c0.475-6.765,4.949-9.115,6.851-9.812c0.521-0.192,1.048-0.222,1.524-0.088c4.6,1.299,5.048,7.373,5.028,9.925
					c-0.006,0.743-0.309,1.435-0.831,1.898C166.607,394.025,164.604,394.624,162.816,394.624z M163.807,381.341
					c-0.221,0-0.423,0.054-0.575,0.109h-0.001c-1.719,0.629-5.763,2.761-6.197,8.942c-0.041,0.591,0.222,1.159,0.686,1.483
					c2.05,1.432,6.102,3.286,10.224-0.378c0.311-0.276,0.491-0.698,0.495-1.158c0.019-2.322-0.363-7.843-4.3-8.954
					C164.028,381.354,163.915,381.341,163.807,381.341z M163.06,380.981h0.01H163.06z"/>
			</g>
			<g>
				<path style="fill:#1A1A34;" d="M156.531,391.718c-0.011,0-0.023,0-0.034-0.001l-4.024-0.273
					c-0.276-0.019-0.484-0.258-0.465-0.533c0.019-0.275,0.266-0.483,0.533-0.465l4.024,0.273c0.276,0.018,0.484,0.258,0.465,0.533
					C157.011,391.516,156.792,391.718,156.531,391.718z"/>
			</g>
			<g>
				<path style="fill:#1A1A34;" d="M168.94,391.581c-0.224,0-0.427-0.151-0.484-0.378c-0.067-0.268,0.095-0.539,0.363-0.606
					l4.229-1.066c0.268-0.069,0.539,0.095,0.607,0.362c0.067,0.268-0.095,0.539-0.363,0.606l-4.229,1.066
					C169.022,391.576,168.981,391.581,168.94,391.581z"/>
			</g>
			<g>
				<path style="fill:#1A1A34;" d="M175.861,391.405c-1.262,0-2.163-0.368-2.229-0.396c-0.124-0.052-0.221-0.151-0.271-0.276
					c-3.203-8.063,1.78-11.436,1.831-11.469c0.016-0.01,0.033-0.02,0.05-0.028c2.81-1.405,5.185,2.308,6.757,4.766l0.282,0.439
					c0.51,0.789,0.687,1.564,0.526,2.305c-0.317,1.463-1.897,2.58-3.628,3.69C178.006,391.189,176.828,391.405,175.861,391.405z
					 M174.209,390.155c0.604,0.195,2.525,0.659,4.431-0.561c1.547-0.992,2.955-1.973,3.191-3.061
					c0.104-0.477-0.024-0.984-0.389-1.55l-0.285-0.443c-1.372-2.147-3.443-5.383-5.439-4.424
					C175.344,380.376,171.556,383.231,174.209,390.155z"/>
			</g>
			<g>
				<path style="fill:#1A1A34;" d="M204.458,361.109c-1.294,0-2.773-0.361-4.009-0.917c-2.758-1.238-4.29-3.292-4.101-5.492
					c0.431-4.995,8.595-7.972,8.942-8.096c0.072-0.026,0.151-0.035,0.225-0.026c1.645,0.188,2.831,1.156,3.43,2.8
					c1.328,3.646-0.472,9.389-1.879,10.873C206.494,360.856,205.541,361.109,204.458,361.109z M205.519,347.586
					c-0.956,0.365-7.822,3.126-8.174,7.199c-0.152,1.758,1.162,3.438,3.515,4.494c2.186,0.982,4.697,1.111,5.482,0.283
					c1.248-1.318,2.808-6.706,1.665-9.843C207.548,348.459,206.733,347.761,205.519,347.586z"/>
			</g>
			<g>
				<path style="fill:#1A1A34;" d="M217.781,366.763c-3.645,0-6.097-2.498-7.145-3.831c-0.566-0.721-0.709-1.715-0.373-2.594
					c2.421-6.336,7.385-7.284,9.407-7.397c0.555-0.028,1.068,0.092,1.483,0.358c4.023,2.579,2.688,8.522,1.927,10.959
					c-0.222,0.709-0.712,1.282-1.347,1.574C220.294,366.495,218.973,366.763,217.781,366.763z M219.836,353.936
					c-0.038,0-0.075,0.001-0.11,0.003c0,0,0,0-0.001,0c-1.827,0.103-6.316,0.967-8.528,6.757c-0.212,0.553-0.125,1.173,0.225,1.619
					c1.544,1.964,4.881,4.914,9.893,2.609c0.378-0.174,0.673-0.525,0.811-0.965c0.692-2.217,1.931-7.61-1.513-9.818
					C220.358,353.977,220.065,353.936,219.836,353.936z M219.698,353.44h0.01H219.698z"/>
			</g>
			<g>
				<path style="fill:#1A1A34;" d="M210.475,361.838c-0.059,0-0.119-0.011-0.177-0.032l-3.771-1.432
					c-0.258-0.099-0.388-0.387-0.29-0.646c0.098-0.258,0.39-0.385,0.645-0.29l3.771,1.432c0.258,0.099,0.388,0.387,0.29,0.646
					C210.867,361.715,210.677,361.838,210.475,361.838z"/>
			</g>
			<g>
				<path style="fill:#1A1A34;" d="M226.746,365.523c-0.008,0-0.016,0-0.024-0.001l-4.356-0.209
					c-0.276-0.013-0.489-0.247-0.476-0.523c0.013-0.275,0.259-0.495,0.524-0.475l4.356,0.209c0.276,0.013,0.489,0.247,0.476,0.523
					C227.233,365.315,227.011,365.523,226.746,365.523z"/>
			</g>
			<g>
				<path style="fill:#1A1A34;" d="M230.713,367.405c-2.219,0-3.735-1.232-3.813-1.297c-0.103-0.086-0.168-0.209-0.179-0.343
					c-0.722-8.646,5.026-10.424,5.084-10.441c0.019-0.005,0.037-0.009,0.056-0.013c3.101-0.525,4.291,3.716,5.081,6.523l0.142,0.503
					c0.259,0.902,0.203,1.696-0.166,2.358c-0.728,1.307-2.565,1.917-4.544,2.477C231.788,367.337,231.231,367.405,230.713,367.405z
					 M227.7,365.458c0.521,0.363,2.225,1.365,4.402,0.751c1.769-0.5,3.401-1.028,3.942-2.001c0.238-0.427,0.264-0.949,0.079-1.596
					l-0.143-0.507c-0.69-2.452-1.734-6.152-3.92-5.814C231.628,356.432,227.173,358.063,227.7,365.458z"/>
			</g>
			<g>
				<path style="fill:#1A1A34;" d="M197.258,353.729c-0.16,0-0.317-0.076-0.414-0.219c-1.308-1.923-1.66-3.75-1.046-5.429
					c1.328-3.632,6.706-5.172,6.935-5.235c0.268-0.076,0.541,0.081,0.616,0.347c0.074,0.266-0.081,0.542-0.347,0.616
					c-0.051,0.015-5.116,1.468-6.266,4.617c-0.496,1.359-0.182,2.881,0.935,4.522c0.155,0.228,0.096,0.539-0.132,0.694
					C197.452,353.7,197.354,353.729,197.258,353.729z"/>
			</g>
			<g>
				<path style="fill:#1A1A34;" d="M335.621,381.133c-0.57,0-1.142-0.045-1.683-0.13c-2.985-0.47-5.004-2.048-5.399-4.22
					c-0.898-4.932,6.196-9.951,6.499-10.163c0.063-0.044,0.135-0.072,0.21-0.084c1.641-0.249,3.036,0.371,4.046,1.799
					c2.239,3.167,2.014,9.182,1.047,10.984C339.666,380.577,337.644,381.133,335.621,381.133z M335.515,367.509
					c-0.826,0.603-6.725,5.072-5.992,9.095c0.315,1.735,2.025,3.011,4.57,3.412c2.371,0.369,4.826-0.163,5.366-1.169
					c0.858-1.601,0.944-7.209-0.982-9.935C337.703,367.818,336.733,367.36,335.515,367.509z"/>
			</g>
			<g>
				<path style="fill:#1A1A34;" d="M350.328,383.061c-2.608,0-4.753-1.287-5.839-2.093c-0.735-0.545-1.135-1.467-1.043-2.404
					c0.669-6.747,5.209-8.97,7.13-9.612l0,0c0.528-0.175,1.054-0.189,1.526-0.044c4.561,1.431,4.835,7.516,4.741,10.066
					c-0.026,0.739-0.349,1.422-0.884,1.873C353.994,382.494,352.058,383.061,350.328,383.061z M350.892,369.901L350.892,369.901
					c-1.735,0.58-5.84,2.597-6.451,8.762c-0.058,0.589,0.189,1.165,0.644,1.503c2.008,1.488,6.003,3.458,10.231-0.084
					c0.319-0.269,0.512-0.686,0.527-1.144c0.086-2.321-0.137-7.852-4.04-9.075C351.463,369.754,351.122,369.824,350.892,369.901z"/>
			</g>
			<g>
				<path style="fill:#1A1A34;" d="M343.915,379.972c-0.017,0-0.033-0.001-0.049-0.002l-4.014-0.389
					c-0.275-0.027-0.477-0.271-0.45-0.546c0.027-0.275,0.297-0.467,0.546-0.45l4.014,0.389c0.275,0.027,0.477,0.272,0.45,0.546
					C344.387,379.779,344.169,379.972,343.915,379.972z"/>
			</g>
			<g>
				<path style="fill:#1A1A34;" d="M356.323,380.192c-0.229,0-0.436-0.158-0.488-0.392c-0.06-0.27,0.11-0.537,0.38-0.597
					l4.258-0.944c0.271-0.059,0.537,0.111,0.597,0.38c0.06,0.27-0.11,0.537-0.38,0.597l-4.258,0.944
					C356.395,380.188,356.358,380.192,356.323,380.192z"/>
			</g>
			<g>
				<path style="fill:#1A1A34;" d="M363.417,380.216c-1.358,0-2.335-0.432-2.402-0.462c-0.122-0.056-0.217-0.158-0.263-0.284
					c-2.97-8.15,2.108-11.379,2.159-11.411c0.017-0.01,0.034-0.018,0.051-0.026c2.852-1.324,5.118,2.456,6.618,4.958l0.27,0.447
					c0.486,0.802,0.642,1.582,0.46,2.317c-0.358,1.453-1.97,2.525-3.732,3.586C365.457,380.014,364.348,380.216,363.417,380.216z
					 M361.616,378.917c0.599,0.212,2.505,0.733,4.445-0.434c1.575-0.947,3.011-1.888,3.277-2.968
					c0.117-0.475,0.004-0.985-0.345-1.56l-0.271-0.451c-1.31-2.185-3.292-5.483-5.311-4.579
					C363.032,369.175,359.163,371.92,361.616,378.917z"/>
			</g>
		</g>
		<g>
			<g>
				<g>
					<path style="fill:#1A1A34;" d="M326.098,438.845c-6.448,0-12.734-1.906-17.58-5.388c-1.732-1.239-3.264-2.659-4.56-4.225
						c-3.429,2.934-7.999,4.645-12.934,4.832c-9.306,0.355-17.492-4.777-19.833-12.313c-4.492,3.465-10.286,5.365-16.406,5.365
						c-6.706,0-13.171-2.361-17.738-6.479c-0.465-0.417-0.921-0.865-1.36-1.335c-1.169,1.624-2.58,3.099-4.2,4.389
						c-4.991,4.001-11.806,6.126-18.693,5.796c-3.96-0.175-7.836-1.147-11.244-2.818c-3.061,6.293-10.741,10.187-18.873,9.503
						c-4.969-0.404-9.551-2.49-12.57-5.723c-0.051-0.052-0.101-0.106-0.15-0.161c-0.303,0.214-0.612,0.418-0.921,0.609
						c-5.887,3.731-13.558,5.27-21.039,4.225c-7.626-1.052-14.333-4.64-18.4-9.843c-1.268-1.604-2.26-3.346-2.953-5.178
						c-4.701,1.93-10.163,2.227-15.446,0.834c-5.86-1.527-10.824-5.08-13.276-9.504c-1.222-2.177-1.778-4.528-1.607-6.799
						c0.066-0.921,0.263-1.841,0.587-2.742c-3.511,0.288-6.87-0.241-10.247-1.621c-2.799-1.201-5.117-2.826-7.092-4.971
						c-0.568-0.631-1.121-1.332-1.648-2.088l-0.089-0.143c-0.48-0.778-0.935-1.514-1.309-2.44c-0.817-1.749-1.286-3.928-1.311-6.111
						c-0.001-0.13,0.047-0.255,0.137-0.35c0.531-0.562,13.599-13.866,65.172-23.029c0.271-0.043,0.532,0.133,0.58,0.404
						c0.048,0.272-0.133,0.532-0.405,0.58c-48.383,8.597-62.937,21.147-64.479,22.596c0.05,1.973,0.482,3.922,1.224,5.512
						c0.353,0.871,0.785,1.571,1.243,2.313l0.075,0.12c0.487,0.699,1.014,1.367,1.551,1.963c1.874,2.035,4.08,3.581,6.739,4.722
						c3.475,1.42,6.936,1.899,10.575,1.467c0.176-0.027,0.354,0.055,0.462,0.199c0.107,0.146,0.127,0.337,0.054,0.501
						c-0.466,1.043-0.742,2.118-0.819,3.193c-0.156,2.074,0.356,4.23,1.483,6.237c2.323,4.191,7.054,7.564,12.656,9.024
						c5.252,1.384,10.679,1.033,15.282-0.992c0.127-0.057,0.273-0.057,0.401,0c0.128,0.056,0.227,0.163,0.272,0.295
						c0.659,1.911,1.66,3.725,2.976,5.391c3.909,5.002,10.379,8.452,17.751,9.47c7.251,1.015,14.675-0.474,20.37-4.082
						c0.429-0.267,0.842-0.548,1.231-0.839c0.213-0.157,0.511-0.122,0.682,0.08c0.134,0.159,0.269,0.318,0.414,0.47
						c2.856,3.058,7.202,5.029,11.927,5.414c7.92,0.655,15.368-3.2,18.097-9.388c0.056-0.126,0.161-0.224,0.291-0.27
						c0.129-0.046,0.273-0.036,0.396,0.027c3.391,1.748,7.297,2.766,11.296,2.942c6.656,0.31,13.219-1.727,18.024-5.577
						c1.713-1.365,3.179-2.942,4.358-4.689c0.087-0.129,0.228-0.21,0.382-0.22c0.154-0.016,0.305,0.053,0.407,0.169
						c0.548,0.622,1.106,1.186,1.705,1.723c4.387,3.954,10.607,6.222,17.069,6.222c6.162,0,11.974-1.992,16.364-5.61
						c0.133-0.109,0.311-0.142,0.474-0.09c0.163,0.054,0.287,0.186,0.329,0.353c1.907,7.481,9.931,12.66,19.034,12.295
						c4.893-0.185,9.401-1.934,12.697-4.922c0.103-0.093,0.232-0.137,0.378-0.128c0.138,0.012,0.265,0.08,0.351,0.188
						c1.305,1.654,2.882,3.148,4.689,4.441c5.336,3.833,12.499,5.684,19.631,5.091c7.172-0.602,13.713-3.622,17.947-8.289
						c0.323-0.348,0.622-0.702,0.893-1.059c0.158-0.209,0.452-0.258,0.671-0.117c0.233,0.152,0.41,0.268,0.589,0.375
						c3.84,2.341,8.796,3.291,13.592,2.612c4.829-0.692,9.108-2.961,11.739-6.225c1.66-2.07,2.598-4.473,2.71-6.945
						c0.006-0.147,0.076-0.282,0.192-0.372c0.115-0.091,0.263-0.128,0.408-0.095c4.092,0.849,8.454,0.781,12.609-0.193
						c7.148-1.638,13.044-5.793,15.773-11.115c0.983-1.899,1.505-3.881,1.55-5.891c0.004-0.157,0.082-0.305,0.211-0.396
						c0.128-0.091,0.292-0.116,0.443-0.067c0.874,0.283,1.816,0.517,2.801,0.693c4.03,0.682,7.848,0.257,11.676-1.306
						c2.659-1.147,4.865-2.693,6.734-4.723c0.545-0.605,1.067-1.272,1.548-1.978l0.134-0.218c0.437-0.705,0.849-1.37,1.172-2.173
						c0.739-1.609,1.172-3.557,1.233-5.527c-1.431-1.363-15.082-13.332-60.885-21.945c-0.272-0.051-0.449-0.313-0.398-0.584
						c0.051-0.272,0.316-0.451,0.584-0.398c47.143,8.864,60.581,21.405,61.506,22.319c0.017,0.013,0.033,0.027,0.049,0.043
						c0.094,0.096,0.151,0.225,0.149,0.359c-0.037,2.181-0.506,4.358-1.32,6.13c-0.347,0.859-0.78,1.56-1.239,2.303l-0.146,0.235
						c-0.518,0.762-1.068,1.464-1.646,2.107c-1.971,2.138-4.288,3.763-7.088,4.971c-4.015,1.638-8.012,2.086-12.234,1.369
						c-0.804-0.145-1.578-0.324-2.314-0.536c-0.137,1.936-0.684,3.842-1.63,5.67c-2.862,5.58-9.008,9.929-16.438,11.631
						c-4.105,0.962-8.409,1.067-12.477,0.309c-0.232,2.48-1.224,4.872-2.89,6.949c-2.789,3.46-7.3,5.861-12.377,6.589
						c-5.028,0.714-10.221-0.29-14.253-2.748c-0.077-0.046-0.153-0.094-0.23-0.143c-0.21,0.259-0.434,0.516-0.666,0.766
						c-4.398,4.848-11.179,7.986-18.6,8.608C327.908,438.808,327.001,438.845,326.098,438.845z"/>
				</g>
				<g>
					<path style="fill:#1A1A34;" d="M338.582,357.855c-0.018,0-0.036-0.001-0.055-0.003c-15.356-1.668-32.229-2.833-50.149-3.46
						c-0.276-0.01-0.492-0.241-0.482-0.518c0.011-0.275,0.264-0.473,0.518-0.482c17.945,0.629,34.842,1.795,50.222,3.466
						c0.274,0.03,0.474,0.276,0.443,0.551C339.051,357.665,338.834,357.855,338.582,357.855z"/>
				</g>
				<g>
					<path style="fill:#1A1A34;" d="M183.247,356.654c-0.257,0-0.475-0.196-0.498-0.457c-0.024-0.274,0.18-0.518,0.455-0.541
						c4.426-0.386,9-0.736,13.595-1.042c0.274-0.019,0.514,0.19,0.532,0.466c0.018,0.275-0.19,0.514-0.466,0.532
						c-4.588,0.305-9.155,0.655-13.574,1.04C183.277,356.653,183.262,356.654,183.247,356.654z"/>
				</g>
			</g>
		</g>
		<g>
			<path style="fill:#1A1A34;" d="M331.281,421.285c-1.923,0-3.844-0.491-5.505-1.488c-2.896-1.74-4.517-4.755-4.653-8.506
				c-2.724,6.259-8.99,8.145-14.257,7.096c-5.541-1.103-10.854-5.626-10.43-13.096c-3.545,5.713-9.514,6.301-13.839,4.925
				c-5.309-1.691-10.028-6.709-9.85-13.402c-3.164,5.703-9.352,7.1-14.234,5.842c-4.759-1.228-9.377-5.27-9.614-11.514
				c-2.095,4.27-6.53,6.093-10.6,5.938c-4.313-0.158-8.952-2.591-10.462-7.645c-1.143,4.417-4.498,8.107-9.111,9.884
				c-5.079,1.953-10.582,1.168-14.501-2.038c-1.84,4.929-4.245,10.273-9.017,12.839c-2.783,1.499-6.719,1.344-9.574-0.375
				c-1.524-0.917-2.563-2.153-3.041-3.583c-2.047,6.561-8.144,9.106-13.328,8.638c-5.345-0.482-11.062-4.285-11.626-11.518
				c-4.552,7.002-11.437,9.432-16.475,9.344c-4.307-0.078-7.801-1.861-9.346-4.772c-1.004-1.89-1.6-5.021,0.929-9.452
				c-5.027,2.008-14.897,4.699-19.29-2.736c-0.988-1.825-1.065-4.202-0.207-6.216c0.352-0.826,0.832-1.53,1.412-2.087
				c-5.371,1.135-10.521,1.675-15.035-0.556c-3.059-1.511-5.294-4.733-5.562-8.02c-0.204-2.518,0.76-4.678,2.718-6.078
				c0.168-0.122,0.403-0.081,0.523,0.087c0.12,0.168,0.081,0.402-0.087,0.522c-1.735,1.241-2.589,3.162-2.407,5.407
				c0.247,3.033,2.315,6.011,5.146,7.409c4.956,2.446,10.831,1.379,16.917-0.035c0.2-0.045,0.398,0.075,0.448,0.273
				c0.05,0.198-0.067,0.4-0.264,0.454c-1.372,0.379-2.481,1.414-3.121,2.917c-0.771,1.809-0.706,3.936,0.169,5.553
				c4.42,7.479,15.046,3.872,19.411,1.972c0.151-0.066,0.329-0.024,0.436,0.102c0.107,0.126,0.119,0.308,0.028,0.446
				c-2.393,3.685-2.912,7.033-1.503,9.687c1.416,2.665,4.667,4.3,8.697,4.373c5.093,0.098,12.102-2.495,16.466-10.035
				c0.085-0.147,0.258-0.22,0.423-0.175c0.164,0.045,0.277,0.194,0.277,0.364c-0.033,7.617,5.495,11.527,10.989,12.022
				c5.492,0.488,11.636-2.36,12.967-9.858c0.034-0.192,0.213-0.317,0.403-0.308c0.194,0.018,0.342,0.181,0.341,0.375
				c-0.012,1.959,1.045,3.678,2.977,4.841c2.639,1.589,6.272,1.735,8.832,0.357c4.704-2.529,7.038-8.007,8.855-12.942
				c0.043-0.116,0.141-0.204,0.261-0.233c0.122-0.031,0.248,0.001,0.34,0.083c3.731,3.313,9.151,4.177,14.147,2.252
				c4.997-1.924,8.438-6.201,8.983-11.161c0.02-0.188,0.179-0.332,0.369-0.334c0.152-0.004,0.352,0.138,0.375,0.327
				c0.757,5.904,5.64,8.714,10.143,8.88c4.533,0.161,9.581-2.278,10.771-8.109c0.041-0.199,0.229-0.327,0.436-0.294
				c0.201,0.038,0.335,0.229,0.302,0.431c-1.248,7.472,3.554,12.2,8.866,13.571c5.314,1.375,11.808-0.438,14.331-7.58
				c0.065-0.184,0.26-0.293,0.452-0.236c0.189,0.052,0.307,0.24,0.27,0.434c-1.459,7.456,3.459,13.167,9.071,14.955
				c4.45,1.418,10.758,0.613,13.886-6.325c0.077-0.174,0.272-0.256,0.454-0.204c0.181,0.057,0.291,0.24,0.257,0.427
				c-1.509,8.181,3.914,13.123,9.591,14.253c5.675,1.126,12.58-1.357,14.318-9.491c0.043-0.198,0.235-0.329,0.436-0.29
				c0.199,0.037,0.333,0.227,0.301,0.428c-1.071,6.662,2.105,9.661,4.095,10.855c3.358,2.019,8.068,1.766,11.195-0.604
				c1.85-1.401,4.686-4.724,2.907-11.226c-0.046-0.167,0.029-0.345,0.182-0.428c0.152-0.083,0.342-0.051,0.458,0.078
				c5.563,6.173,12.43,7.299,17.005,6.299c3.295-0.724,5.707-2.585,6.452-4.982c0.766-2.463-0.212-5.243-2.827-8.041
				c-0.117-0.126-0.134-0.315-0.04-0.46c0.094-0.146,0.276-0.204,0.436-0.15c8.839,3.053,20.512,4.916,25.925-3.563
				c1.275-2.128,1.596-4.897,0.852-7.4c-0.584-1.966-1.768-3.511-3.351-4.383c-0.099-0.05-0.197-0.101-0.294-0.152
				c-0.181-0.096-0.251-0.319-0.158-0.501c0.093-0.184,0.315-0.259,0.498-0.167c0.103,0.05,0.204,0.103,0.305,0.157
				c4.368,2.197,9.926,2.166,14.94-0.103c5.125-2.319,8.87-6.608,10.019-11.474c0.048-0.201,0.254-0.328,0.451-0.279
				c0.202,0.048,0.326,0.25,0.279,0.451c-1.202,5.091-5.104,9.571-10.439,11.985c-4.368,1.976-9.145,2.315-13.266,1.026
				c0.772,0.888,1.365,1.98,1.735,3.226c0.803,2.7,0.454,5.694-0.934,8.008c-5.414,8.48-16.597,7.172-25.506,4.311
				c2.646,3.316,2.628,6.003,2.09,7.731c-0.826,2.657-3.446,4.71-7.008,5.491c-4.518,0.989-11.173,0.003-16.77-5.531
				c0.847,4.485-0.392,8.325-3.489,10.673C335.941,420.565,333.61,421.285,331.281,421.285z"/>
		</g>
		<g>
			<path style="fill:#1A1A34;" d="M86.774,377.945c-0.067,0-0.137-0.014-0.203-0.043c-0.253-0.112-0.366-0.407-0.254-0.66
				c0.447-1.007,11.018-24.714,16.206-28.468c5.186-3.751,23.932-5.856,24.728-5.944c0.097-0.009,0.193,0.008,0.28,0.051
				l15.744,7.927c0.247,0.124,0.346,0.425,0.222,0.671c-0.124,0.247-0.425,0.344-0.672,0.222l-15.61-7.859
				c-1.792,0.207-19.363,2.314-24.105,5.744c-4.972,3.597-15.77,27.819-15.878,28.064C87.148,377.835,86.966,377.945,86.774,377.945
				z"/>
		</g>
		<g>
			<path style="fill:#1A1A34;" d="M423.04,377.215c-0.616,0-1.067-0.014-1.273-0.021c-0.275-0.011-0.49-0.243-0.48-0.52
				c0.011-0.274,0.192-0.483,0.52-0.48c3.389,0.129,12.241-0.284,12.43-3.703c0.169-3.084-2.775-11.931-4.924-18.39
				c-1.02-3.067-1.901-5.716-2.232-7.091c-1.024-4.263-10.94-19.822-19.179-18.983c-4.83,0.477-11.455,4.099-16.778,7.008
				c-4.105,2.244-7.649,4.182-9.609,4.309c-4.042,0.263-7.908,6.715-7.946,6.78c-0.142,0.238-0.449,0.314-0.686,0.176
				c-0.237-0.142-0.316-0.448-0.176-0.686c0.169-0.284,4.18-6.972,8.743-7.269c1.739-0.112,5.194-2.001,9.194-4.188
				c5.684-3.107,12.126-6.629,17.16-7.127c9.1-0.886,19.26,15.636,20.249,19.745c0.32,1.334,1.195,3.964,2.209,7.009
				c2.296,6.9,5.152,15.487,4.973,18.761C435,376.788,426.463,377.215,423.04,377.215z"/>
		</g>
		<g>
			<path style="fill:#1A1A34;" d="M110.21,360.994c-0.998,0-1.714-0.087-2.059-0.282c-2.888-1.642-5.583-11.031-5.696-11.43
				c-0.057-0.199,0.059-0.406,0.258-0.463c0.201-0.057,0.407,0.059,0.463,0.258c0.749,2.635,3.169,9.745,5.346,10.982
				c1.953,1.113,21.102-2.324,33.495-4.905c0.206-0.036,0.402,0.088,0.444,0.291c0.042,0.202-0.088,0.401-0.29,0.443
				C139.374,356.471,117.424,360.994,110.21,360.994z"/>
		</g>
		<g>
			<path style="fill:#1A1A34;" d="M406.754,371.306c-0.129,0-0.255-0.067-0.324-0.188c-0.102-0.175-10.149-17.54-13.549-22.828
				c-3.345-5.203-11.479-9.068-11.56-9.107c-0.188-0.089-0.269-0.311-0.181-0.499c0.09-0.187,0.313-0.264,0.499-0.181
				c0.342,0.161,8.409,3.994,11.872,9.38c3.409,5.304,13.466,22.685,13.566,22.859c0.104,0.179,0.043,0.408-0.137,0.512
				C406.883,371.289,406.818,371.306,406.754,371.306z"/>
		</g>
		<g>
			<path style="fill:#1A1A34;" d="M140.531,349.785c-0.115,0-0.23-0.039-0.324-0.119c-9.688-8.239-13.579-20.99-16.34-33.542
				c-0.286-1.299-0.565-2.604-0.846-3.914c-2.216-10.352-4.503-21.037-10.269-29.809c0.106,5.347-1.178,10.786-3.681,15.493
				c-0.113,0.213-0.362,0.311-0.591,0.243c-0.23-0.072-0.376-0.298-0.347-0.537c2.149-17.957-5.553-36.584-19.681-47.838
				c0.766,5.003-0.141,10.31-2.551,14.752c-0.117,0.217-0.375,0.314-0.607,0.232c-0.232-0.082-0.37-0.321-0.324-0.564
				c1.364-7.24-1.405-15.379-7.226-21.239c-6.422-6.467-14.879-9.027-20.842-10.036c-7.175-1.216-14.496-0.906-20.98-0.3
				c5.804,2.126,10.848,7.43,13.532,14.408c2.759,7.175,2.995,14.917,3.222,22.403c0.139,4.608,0.313,10.344,3.08,14.715
				c2.701,4.268,7.456,6.731,12.054,9.113c4.764,2.469,9.691,5.021,12.51,9.604c0.118,0.19,0.094,0.435-0.058,0.601
				c-0.152,0.165-0.396,0.21-0.594,0.106c-5.792-2.946-12.471-4.08-18.911-3.22c8.559,10.61,19.182,23.52,33.591,28.611
				c2.954,1.044,6.076,1.761,9.095,2.453c2.544,0.583,5.175,1.187,7.713,1.986c6.849,2.158,11.641,5.504,14.243,9.946
				c0.139,0.238,0.06,0.545-0.179,0.684c-0.239,0.137-0.545,0.058-0.685-0.179c-2.473-4.222-7.076-7.417-13.681-9.499
				c-2.5-0.787-5.111-1.386-7.636-1.965c-3.047-0.699-6.197-1.422-9.205-2.484c-14.987-5.296-25.854-18.776-34.585-29.608
				c-0.112-0.139-0.142-0.326-0.078-0.492c0.063-0.167,0.211-0.286,0.387-0.315c6.276-1.015,12.824-0.172,18.647,2.37
				c-2.774-3.432-6.966-5.603-11.036-7.712c-4.716-2.443-9.593-4.971-12.439-9.467c-2.913-4.603-3.091-10.489-3.235-15.22
				c-0.225-7.403-0.457-15.059-3.156-22.074c-2.314-6.019-7.569-12.99-15.375-14.509c-0.243-0.048-0.414-0.266-0.404-0.513
				c0.011-0.247,0.2-0.449,0.446-0.476c7.162-0.765,15.599-1.358,23.882,0.043c6.107,1.034,14.775,3.663,21.385,10.317
				c5.22,5.256,8.075,12.291,7.844,18.978c1.474-3.98,1.822-8.412,0.937-12.548c-0.044-0.204,0.044-0.414,0.22-0.526
				c0.178-0.11,0.404-0.102,0.57,0.022c14.303,10.797,22.493,28.885,21.359,46.726c1.853-4.453,2.658-9.396,2.283-14.184
				c-0.018-0.224,0.116-0.432,0.327-0.509c0.208-0.078,0.446-0.006,0.578,0.178c6.626,9.197,9.067,20.599,11.427,31.624
				c0.28,1.307,0.559,2.611,0.844,3.908c2.724,12.381,6.548,24.947,16.011,32.995c0.21,0.179,0.236,0.494,0.057,0.705
				C140.813,349.726,140.672,349.785,140.531,349.785z"/>
		</g>
		<g>
			<path style="fill:#1A1A34;" d="M140.802,350.211c-0.142,0-0.276-0.08-0.34-0.217c-5.141-11.007-3.624-23.587-2.158-35.753
				l0.303-2.532c2.263-19.195,2.149-33.618-0.368-46.764c-2.257-11.786-7.79-28.428-21.33-40.781
				c-0.153-0.14-0.164-0.377-0.024-0.53c0.139-0.153,0.376-0.164,0.53-0.024c13.692,12.493,19.282,29.298,21.56,41.195
				c2.532,13.225,2.648,27.717,0.377,46.992l-0.303,2.534c-1.454,12.061-2.957,24.533,2.093,35.347
				c0.087,0.188,0.006,0.41-0.181,0.498C140.909,350.199,140.855,350.211,140.802,350.211z"/>
		</g>
		<g>
			<path style="fill:#1A1A34;" d="M99.064,260.633c-0.274,0-0.498-0.221-0.5-0.495l-0.159-17.254
				c-0.001-0.18,0.093-0.347,0.249-0.438c0.155-0.09,0.347-0.091,0.502,0.001c4.196,2.443,8.146,5.314,11.767,8.548
				c-2.521-5.784-5.524-11.945-10.563-16.161c-0.139-0.116-0.204-0.298-0.171-0.475l2.385-12.872c0.05-0.272,0.304-0.455,0.583-0.4
				c0.271,0.05,0.451,0.311,0.4,0.582l-2.332,12.587c5.712,4.898,8.811,12.123,11.549,18.507c0.094,0.219,0.021,0.473-0.174,0.608
				c-0.195,0.135-0.459,0.115-0.63-0.05c-3.814-3.638-8.035-6.852-12.557-9.562l0.15,16.368c0.002,0.276-0.219,0.502-0.496,0.505
				C99.067,260.633,99.066,260.633,99.064,260.633z"/>
		</g>
		<g>
			<path style="fill:#1A1A34;" d="M28.8,381.478c-0.181,0-0.349-0.098-0.438-0.258c-3.046-5.495-1.396-12.136,1.164-16.518
				c2.729-4.67,6.861-8.32,10.857-11.85l0.618-0.546c4.309-3.813,8.371-7.643,10.716-12.54l0.253-0.538
				c0.649-1.395,1.386-2.975,2.847-3.774c1.188-0.65,2.589-0.633,3.926-0.515c3.747,0.329,7.495,1.229,11.011,2.633l-6.535-5.533
				c-0.133-0.113-0.198-0.287-0.171-0.46c0.027-0.172,0.143-0.318,0.304-0.385c11.062-4.548,24.629-2.716,36.477-0.641
				c0.272,0.047,0.454,0.307,0.406,0.578c-0.047,0.271-0.305,0.461-0.579,0.406c-11.434-2.002-24.478-3.779-35.154,0.277
				l8.648,7.322c0.194,0.164,0.234,0.448,0.093,0.659c-0.142,0.211-0.418,0.284-0.644,0.167c-4.302-2.212-9.124-3.605-13.943-4.028
				c-1.099-0.095-2.356-0.153-3.358,0.396c-1.173,0.642-1.808,2.004-2.421,3.319l-0.257,0.548
				c-2.427,5.066-6.567,8.973-10.956,12.856l-0.619,0.547c-3.938,3.478-8.009,7.073-10.656,11.604
				c-2.28,3.904-3.809,9.682-1.603,14.625c2.052-3.802,6.4-5.61,9.974-6.03c3.918-0.46,7.841,0.326,11.639,1.086l1.036,0.207
				c3.912,0.772,8.052,1.444,11.983,0.522c1.015-6.31,5.183-11.918,10.945-14.695c0.205-0.096,0.447-0.049,0.594,0.122
				c0.148,0.17,0.164,0.417,0.04,0.604c-2.625,3.948-3.887,8.875-3.502,13.605c7.524-2.1,14.767-5.693,20.978-10.417
				c0.22-0.166,0.534-0.123,0.701,0.096c0.167,0.22,0.125,0.533-0.095,0.701c-6.471,4.92-14.042,8.635-21.895,10.742
				c-0.14,0.035-0.291,0.012-0.412-0.07c-0.12-0.082-0.199-0.213-0.215-0.358c-0.499-4.515,0.457-9.244,2.639-13.245
				c-4.669,2.889-8.065,7.968-8.838,13.391c-0.029,0.2-0.175,0.363-0.37,0.414c-4.229,1.089-8.616,0.384-12.746-0.432l-1.039-0.207
				c-3.721-0.744-7.568-1.515-11.326-1.073c-4.495,0.528-8.268,3.029-9.613,6.37c-0.072,0.179-0.241,0.301-0.433,0.313
				C28.821,381.478,28.81,381.478,28.8,381.478z"/>
		</g>
		<g>
			<path style="fill:#1A1A34;" d="M130.002,344.896c-0.1,0-0.202-0.04-0.275-0.12c-11.362-12.29-21.069-26.036-28.852-40.856
				c-2.64-5.027-5.092-10.25-7.463-15.3c-2.388-5.087-4.857-10.346-7.516-15.398c-6.365-12.1-12.739-20.759-20.06-27.253
				c-9.234-8.193-20.1-12.734-30.596-12.786c-0.207-0.001-0.374-0.17-0.373-0.377c0.001-0.206,0.169-0.373,0.375-0.373
				c0,0,0.001,0,0.002,0c10.678,0.053,21.719,4.661,31.09,12.975c7.39,6.556,13.816,15.282,20.226,27.464
				c2.666,5.067,5.139,10.335,7.531,15.429c2.368,5.043,4.816,10.259,7.448,15.27c7.752,14.763,17.421,28.455,28.739,40.696
				c0.141,0.152,0.131,0.39-0.021,0.53C130.185,344.862,130.093,344.896,130.002,344.896z"/>
		</g>
		<g>
			<path style="fill:#1A1A34;" d="M142.095,351.148c-0.121,0-0.239-0.058-0.312-0.166c-6.741-10.011-11.868-23.938-13.38-36.348
				c-0.748-6.131-1.138-12.395-1.515-18.453c-0.376-6.03-0.765-12.266-1.505-18.359c-2.317-19.053-8.039-37.317-17.006-54.285
				c-0.097-0.183-0.027-0.409,0.156-0.506c0.185-0.1,0.41-0.028,0.507,0.156c9.011,17.048,14.76,35.4,17.087,54.545
				c0.744,6.114,1.133,12.361,1.509,18.403c0.377,6.047,0.767,12.3,1.511,18.409c1.499,12.299,6.579,26.101,13.258,36.02
				c0.116,0.171,0.07,0.404-0.102,0.521C142.24,351.127,142.167,351.148,142.095,351.148z"/>
		</g>
		<g>
			<path style="fill:#1A1A34;" d="M29.823,380.207c-0.01,0-0.02,0-0.03-0.001c-0.207-0.017-0.36-0.197-0.344-0.404
				c0.619-7.753,5.506-15.536,13.073-20.817c7.444-5.195,16.393-7.564,23.358-9.049c2.688-0.572,5.434-1.083,8.09-1.577
				c5.421-1.009,11.027-2.052,16.383-3.667c1.629-0.49,3.275-1.047,4.867-1.584c3.592-1.213,7.306-2.467,11.121-3.078
				c3.741-0.6,10.81-0.976,16.121,3.246c0.162,0.129,0.189,0.365,0.06,0.527c-0.129,0.162-0.365,0.189-0.527,0.06
				c-5.085-4.044-11.917-3.675-15.535-3.094c-3.754,0.602-7.438,1.846-11,3.049c-1.597,0.539-3.249,1.097-4.89,1.592
				c-5.395,1.626-11.021,2.673-16.462,3.685c-2.651,0.493-5.394,1.003-8.071,1.574c-6.896,1.469-15.752,3.812-23.085,8.93
				c-7.386,5.154-12.154,12.73-12.755,20.263C30.18,380.059,30.016,380.207,29.823,380.207z"/>
		</g>
		<g>
			<path style="fill:#1A1A34;" d="M419.749,334.753c-0.064,0-0.13-0.013-0.192-0.038c-0.255-0.106-0.375-0.399-0.27-0.654
				c4.361-10.464,14.007-17.734,20.883-22.294c2.416-1.602,4.924-3.158,7.349-4.664c6.133-3.808,12.474-7.745,17.815-12.717
				c1.755-1.634,3.93-3.858,5.177-6.586c1.243-2.718,1.349-5.682,0.281-7.928c-1.288-2.711-4.332-4.613-7.943-4.966
				c-3.429-0.341-6.919,0.661-9.874,1.682c-11.568,3.994-21.622,10.54-29.073,18.931c-8.031,9.044-12.95,20.228-13.849,31.491
				c-0.022,0.275-0.267,0.48-0.538,0.458c-0.275-0.021-0.48-0.263-0.458-0.538c0.915-11.479,5.922-22.87,14.097-32.075
				c7.565-8.518,17.765-15.162,29.495-19.212c3.058-1.055,6.673-2.08,10.298-1.732c3.959,0.387,7.312,2.507,8.749,5.532
				c1.192,2.511,1.09,5.791-0.274,8.773c-1.321,2.888-3.583,5.205-5.405,6.902c-5.413,5.038-11.797,9.001-17.97,12.834
				c-2.419,1.502-4.92,3.055-7.323,4.648c-6.767,4.486-16.256,11.633-20.512,21.845
				C420.131,334.638,419.944,334.753,419.749,334.753z"/>
		</g>
		<g>
			<path style="fill:#1A1A34;" d="M408.741,327.491c-0.264,0-0.484-0.206-0.499-0.473c-0.583-10.721-3.123-21.113-7.55-30.892
				c-0.114-0.251-0.003-0.548,0.249-0.661c0.248-0.114,0.548-0.003,0.661,0.249c4.479,9.891,7.048,20.405,7.638,31.249
				c0.016,0.276-0.196,0.512-0.472,0.526C408.759,327.491,408.75,327.491,408.741,327.491z"/>
		</g>
		<g>
			<path style="fill:#1A1A34;" d="M399.388,330.435c-0.155,0-0.309-0.072-0.406-0.209c-8.413-11.75-15.549-19.818-23.86-26.979
				c-0.209-0.181-0.233-0.496-0.053-0.705c0.181-0.21,0.496-0.231,0.705-0.053c8.375,7.216,15.56,15.337,24.02,27.155
				c0.161,0.225,0.109,0.537-0.115,0.697C399.592,330.405,399.49,330.435,399.388,330.435z"/>
		</g>
		<g>
			<path style="fill:#1A1A34;" d="M423.737,339.463c-0.189,0-0.369-0.107-0.453-0.289c-0.116-0.251-0.008-0.548,0.242-0.664
				c5.583-2.595,12.197-3.773,20.703-3.718c3.534,0.023,7.115,0.247,10.577,0.464c3.406,0.213,6.928,0.433,10.39,0.461
				c2.419,0.024,4.986-0.059,7.356-0.756c2.564-0.756,4.614-2.192,5.772-4.046c2.074-3.319,1.148-7.718-0.69-10.605
				c-3.005-4.719-9.001-7.726-15.648-7.849c-5.285-0.1-10.716,1.323-17.758,4.602c-10.122,4.712-18.082,10.615-23.658,17.545
				c-0.174,0.217-0.488,0.248-0.703,0.076c-0.215-0.173-0.249-0.488-0.076-0.703c5.673-7.051,13.753-13.048,24.016-17.824
				c7.189-3.347,12.827-4.778,18.197-4.695c6.979,0.129,13.292,3.314,16.475,8.312c2.449,3.846,2.722,8.428,0.694,11.671
				c-1.287,2.061-3.538,3.651-6.337,4.475c-2.495,0.735-5.16,0.821-7.647,0.797c-3.489-0.028-7.025-0.249-10.443-0.463
				c-3.449-0.216-7.016-0.438-10.522-0.462c-0.195-0.001-0.39-0.002-0.582-0.002c-8.106,0-14.376,1.156-19.693,3.626
				C423.88,339.448,423.808,339.463,423.737,339.463z"/>
		</g>
		<g>
			<path style="fill:#1A1A34;" d="M422.419,337.678c-0.111,0-0.221-0.049-0.295-0.144c-0.128-0.163-0.1-0.398,0.064-0.526
				c13.01-10.201,29.926-15.696,46.464-15.064c0.206,0.008,0.368,0.183,0.36,0.39c-0.009,0.207-0.204,0.348-0.39,0.36
				c-16.332-0.629-33.1,4.813-45.972,14.904C422.582,337.652,422.5,337.678,422.419,337.678z"/>
		</g>
		<g>
			<path style="fill:#1A1A34;" d="M414.619,330.128c-0.038,0-0.076-0.006-0.114-0.018c-0.197-0.064-0.306-0.274-0.243-0.472
				c5.824-18.142,19.767-33.43,37.297-40.895c0.19-0.082,0.41,0.008,0.491,0.198c0.081,0.19-0.007,0.41-0.198,0.491
				c-17.332,7.382-31.117,22.497-36.875,40.434C414.925,330.027,414.777,330.128,414.619,330.128z"/>
		</g>
		<g>
			<path style="fill:#1A1A34;" d="M403.566,328.459c-0.161,0-0.31-0.103-0.358-0.266c-3.412-11.177-7.646-20.217-13.322-28.451
				c-0.118-0.171-0.075-0.404,0.096-0.522c0.172-0.118,0.405-0.075,0.521,0.096c5.723,8.299,9.987,17.405,13.422,28.658
				c0.061,0.198-0.051,0.407-0.249,0.468C403.639,328.454,403.602,328.459,403.566,328.459z"/>
		</g>
		<g>
			<path style="fill:#1A1A34;" d="M416.346,237.255c-0.235,0-0.446-0.168-0.49-0.408l-10.094-54.302l-22.695-37.987
				c-0.033-0.056-0.055-0.117-0.065-0.181l-6.092-39.962c-10.422-7.957-24.028-7.057-26.133-6.862l-16.979,38.272
				c-0.029,0.066-0.072,0.125-0.127,0.173c-0.154,0.136-15.431,13.567-16.704,15.057c-0.952,1.167-9.54,24.669-15.08,40.181
				c-0.094,0.26-0.378,0.397-0.639,0.303c-0.26-0.093-0.395-0.379-0.303-0.639c1.422-3.981,13.928-38.935,15.262-40.495
				c1.283-1.501,15.375-13.901,16.722-15.085l17.052-38.437c0.071-0.161,0.221-0.271,0.395-0.293
				c0.158-0.02,15.689-1.841,27.306,7.156c0.101,0.079,0.168,0.193,0.188,0.32l6.107,40.064l22.691,37.979
				c0.03,0.051,0.051,0.107,0.061,0.165l10.109,54.39c0.051,0.271-0.128,0.533-0.399,0.583
				C416.408,237.252,416.377,237.255,416.346,237.255z"/>
		</g>
		<g>
			<path style="fill:#1A1A34;" d="M316.588,151.105c-0.173,0-0.328-0.12-0.366-0.295c-0.045-0.202,0.084-0.402,0.286-0.446
				l43.767-9.595l16.76-36.783c0.085-0.189,0.309-0.273,0.496-0.186c0.188,0.086,0.272,0.308,0.185,0.497l-16.837,36.954
				c-0.049,0.107-0.146,0.186-0.261,0.211l-43.95,9.635C316.641,151.102,316.614,151.105,316.588,151.105z"/>
		</g>
		<g>
			<path style="fill:#1A1A34;" d="M406.238,182.74c-0.018,0-0.037-0.002-0.056-0.004l-39.684-5.935
				c-0.12-0.018-0.224-0.093-0.279-0.202c-0.055-0.108-0.054-0.237,0.003-0.344l16.942-32.129c0.098-0.183,0.327-0.253,0.507-0.157
				c0.184,0.097,0.254,0.323,0.157,0.506l-16.696,31.662l39.161,5.856c0.205,0.031,0.346,0.222,0.315,0.427
				C406.581,182.607,406.421,182.74,406.238,182.74z"/>
		</g>
	</g>
</g>
</svg>
