<?xml version="1.0" encoding="utf-8"?>
<!-- Generator: Adobe Illustrator 27.5.0, SVG Export Plug-In . SVG Version: 6.00 Build 0)  -->
<svg xmlns="http://www.w3.org/2000/svg" xmlns:xlink="http://www.w3.org/1999/xlink" viewBox="0 0 2159 2794" width="595" height="842" preserveAspectRatio="xMidYMid meet" data-scaled="true">
<g id="Background">
	<rect x="-0.016" y="0.484" style="fill-rule:evenodd;clip-rule:evenodd;fill:#FFFFFF;" width="2159" height="2794"/>
</g>
<g id="Object">
	<g>
		<path style="fill-rule:evenodd;clip-rule:evenodd;fill:#FFFFFF;" d="M1016.444,939.504c0,0,50.066,140.857,88.392,187.307
			c17.928,21.724,50.119,24.807,71.843,6.879c21.728-17.925,24.811-50.116,6.883-71.84
			C1145.236,1015.401,1016.444,939.504,1016.444,939.504z"/>
		<path style="fill-rule:evenodd;clip-rule:evenodd;" d="M1039.396,967.317c39.645,24.761,108.892,70.347,135.054,102.052
			c13.78,16.697,11.409,41.434-5.288,55.213c-16.697,13.776-41.434,11.405-55.213-5.292
			C1087.786,1087.586,1056.181,1010.942,1039.396,967.317z M1022.441,929.327c-4.279-2.522-9.68-2.096-13.515,1.065
			c-3.831,3.164-5.278,8.386-3.612,13.067c0,0,51.329,143.507,90.413,190.871c22.073,26.751,61.718,30.551,88.473,8.474
			c26.751-22.073,30.551-61.718,8.474-88.473C1153.593,1006.966,1022.441,929.327,1022.441,929.327z"/>
		<path style="fill-rule:evenodd;clip-rule:evenodd;fill:#FFFFFF;" d="M1016.444,939.504c0,0-128.789-75.897-167.118-122.347
			c-17.925-21.724-14.841-53.915,6.883-71.843c21.728-17.925,53.919-14.841,71.843,6.883
			C966.378,798.647,1016.444,939.504,1016.444,939.504z"/>
		<path style="fill-rule:evenodd;clip-rule:evenodd;" d="M993.496,911.691C953.85,886.93,884.6,841.344,858.438,809.64
			c-13.776-16.697-11.405-41.437,5.292-55.213c16.693-13.776,41.434-11.405,55.21,5.292
			C945.102,791.422,976.71,868.063,993.496,911.691z M1010.447,949.682c4.283,2.522,9.684,2.095,13.518-1.065
			c3.831-3.165,5.274-8.386,3.613-13.07c0,0-51.333-143.503-90.413-190.867c-22.077-26.755-61.719-30.55-88.473-8.474
			c-26.755,22.073-30.551,61.719-8.474,88.473C879.298,872.039,1010.447,949.682,1010.447,949.682z"/>
		<path style="fill-rule:evenodd;clip-rule:evenodd;fill:#FFFFFF;" d="M1053.62,908.827c17.431,21.124,14.432,52.419-6.689,69.85
			c-21.124,17.427-52.419,14.429-69.85-6.692c-17.427-21.121-14.429-52.419,6.692-69.846
			C1004.894,884.707,1036.192,887.706,1053.62,908.827z"/>
		<path style="fill-rule:evenodd;clip-rule:evenodd;" d="M1044.507,916.348c13.282,16.09,10.996,39.938-5.098,53.217
			c-16.09,13.278-39.938,10.992-53.217-5.098c-13.279-16.094-10.993-39.938,5.098-53.217
			C1007.385,897.972,1031.229,900.254,1044.507,916.348z M1062.732,901.309c-21.576-26.148-60.325-29.862-86.476-8.283
			c-26.151,21.576-29.863,60.325-8.283,86.476c21.576,26.151,60.325,29.862,86.476,8.283
			C1080.597,966.21,1084.311,927.46,1062.732,901.309z"/>
		<path style="fill-rule:evenodd;clip-rule:evenodd;fill:#FFFFFF;" d="M1163.175,1600.038c9.694-7.998,15.812-19.519,17.011-32.029
			c1.2-12.513-2.621-24.987-10.619-34.678c-122.781-148.798-584.295-708.106-707.076-856.904
			c-8.001-9.695-19.523-15.812-32.032-17.011c-12.509-1.2-24.984,2.621-34.678,10.622c-2.932,2.417-5.983,4.935-9.137,7.539
			c-74.394,61.387-78.549,204.696,40.315,348.745c143.531,173.944,269.388,326.471,412.919,500.415
			c114.572,138.85,256.399,128.499,314.159,80.843C1157.192,1604.977,1160.243,1602.458,1163.175,1600.038z"/>
		<path style="fill-rule:evenodd;clip-rule:evenodd;" d="M1155.657,1590.929l-9.137,7.539
			c-54.822,45.237-188.782,52.543-297.533-79.248c-143.528-173.944-269.388-326.471-412.916-500.415
			c-68.855-83.446-95.49-166.426-89.838-232.428c3.605-42.093,20.444-77.008,47.928-99.688c3.154-2.604,6.205-5.122,9.137-7.539
			c7.278-6.008,16.641-8.876,26.035-7.976c9.391,0.903,18.041,5.496,24.045,12.774c122.781,148.795,584.295,708.103,707.076,856.901
			c6.004,7.278,8.872,16.641,7.973,26.031C1167.528,1576.275,1162.935,1584.922,1155.657,1590.929z M1170.692,1609.151
			c12.111-9.991,19.756-24.388,21.255-40.016c1.496-15.628-3.277-31.214-13.271-43.325
			c-122.781-148.795-584.295-708.103-707.073-856.901c-9.994-12.111-24.388-19.755-40.019-21.251
			c-15.628-1.499-31.214,3.274-43.321,13.268c-2.932,2.417-5.987,4.935-9.141,7.539c-32.029,26.43-52.229,66.841-56.43,115.895
			c-6.054,70.725,21.375,160.069,95.155,249.481c143.531,173.944,269.388,326.471,412.919,500.415
			c120.403,145.919,270.09,132.521,330.789,82.437L1170.692,1609.151z"/>
		<path style="fill-rule:evenodd;clip-rule:evenodd;fill:#FFFFFF;" d="M523.066,1684.296c4.188-3.454,6.83-8.431,7.348-13.836
			c0.519-5.405-1.132-10.795-4.586-14.983c-53.047-64.287-252.434-305.925-305.481-370.208c-3.454-4.188-8.431-6.833-13.836-7.348
			c-5.408-0.519-10.795,1.132-14.982,4.586c-1.266,1.044-2.587,2.134-3.949,3.26c-32.14,26.518-33.935,88.434,17.418,150.668
			c62.008,75.149,116.385,141.044,178.393,216.193c49.498,59.99,110.776,55.517,135.728,34.928
			C520.481,1686.43,521.8,1685.344,523.066,1684.296z"/>
		<path style="fill-rule:evenodd;clip-rule:evenodd;" d="M515.549,1675.187l-3.948,3.256
			c-22.02,18.168-75.417,19.604-119.098-33.334c-62.011-75.149-116.385-141.044-178.393-216.193
			c-28.35-34.357-39.63-68.4-37.303-95.575c1.388-16.21,7.708-29.732,18.292-38.467c1.362-1.122,2.681-2.212,3.948-3.256
			c1.771-1.46,4.05-2.159,6.336-1.94c2.286,0.219,4.392,1.337,5.853,3.108c53.047,64.287,252.434,305.922,305.481,370.209
			c1.461,1.771,2.159,4.05,1.94,6.336S517.32,1673.723,515.549,1675.187z M530.584,1693.408c6.604-5.45,10.774-13.3,11.592-21.823
			c0.815-8.523-1.789-17.021-7.239-23.629c-53.044-64.283-252.434-305.922-305.477-370.205c-5.45-6.608-13.3-10.774-21.823-11.592
			c-8.523-0.815-17.021,1.789-23.628,7.235c-1.266,1.048-2.585,2.134-3.948,3.26c-15.129,12.481-24.81,31.5-26.794,54.674
			c-2.732,31.895,9.344,72.298,42.619,112.624c62.011,75.149,116.385,141.044,178.393,216.196
			c55.337,67.06,124.464,59.535,152.358,36.52L530.584,1693.408z"/>
		<path style="fill-rule:evenodd;clip-rule:evenodd;" d="M561.491,794.484c-71.557,40.622-135.206,91.38-190.994,152.188
			c-2.646,2.882-2.452,7.369,0.43,10.015c2.882,2.642,7.37,2.452,10.015-0.434C435.726,896.547,498.22,846.703,568.49,806.81
			c3.401-1.93,4.593-6.262,2.664-9.663C569.22,793.747,564.892,792.551,561.491,794.484z"/>
		<path style="fill-rule:evenodd;clip-rule:evenodd;" d="M469.776,1076.745c56.085-60.353,119.486-113.312,192.338-156.7
			c3.362-2,4.463-6.354,2.462-9.716s-6.357-4.466-9.716-2.462c-74.034,44.09-138.476,97.896-195.471,159.23
			c-2.663,2.865-2.498,7.352,0.367,10.016C462.625,1079.776,467.112,1079.61,469.776,1076.745z"/>
		<path style="fill-rule:evenodd;clip-rule:evenodd;" d="M1067.18,1411.172c-53.023,62.018-114.505,114.332-184.386,157.021
			c-3.341,2.039-4.396,6.403-2.357,9.744c2.043,3.337,6.406,4.392,9.744,2.353c71.166-43.473,133.777-96.749,187.773-159.907
			c2.544-2.974,2.191-7.451-0.783-9.994C1074.197,1407.848,1069.72,1408.198,1067.18,1411.172z"/>
		<path style="fill-rule:evenodd;clip-rule:evenodd;" d="M790.917,1468.868c71.032-44.312,136.095-97.367,193.442-161.682
			c2.604-2.921,2.346-7.405-0.571-10.008c-2.921-2.603-7.405-2.346-10.008,0.572c-56.434,63.292-120.467,115.485-190.366,159.092
			c-3.32,2.071-4.332,6.445-2.261,9.765C783.223,1469.927,787.597,1470.939,790.917,1468.868z"/>
		<path style="fill-rule:evenodd;clip-rule:evenodd;fill:#FFFFFF;" d="M998.382,954.409
			c104.99,127.24-54.797,241.748-241.124,395.496s-481.827,278.92-520.054,232.594c-38.23-46.327,140.773-312.688,327.099-466.439
			C750.629,962.311,893.391,827.173,998.382,954.409z"/>
		<path style="fill-rule:evenodd;clip-rule:evenodd;" d="M989.269,961.93c19.156,23.213,28.882,45.861,30.452,68.527
			c2.402,34.661-13.981,68.883-41.945,104.458c-49.703,63.232-135.632,129.632-228.036,205.878
			c-129.095,106.525-311.097,199.277-421.682,229.56c-27.086,7.419-49.643,11.109-65.715,9.885
			c-7.359-0.561-13.056-1.655-16.027-5.256c-2.974-3.602-2.963-9.402-2.12-16.736c1.849-16.013,9.754-37.458,22.179-62.643
			c50.729-102.824,176.35-263.906,305.446-370.431c92.403-76.246,173.909-148.004,245.427-184.803
			c40.234-20.701,76.944-30.289,110.522-21.35C949.723,924.864,970.114,938.714,989.269,961.93z M1007.494,946.891
			c-22.842-27.679-47.47-43.734-73.646-50.705c-38.626-10.284-81.121-0.642-127.409,23.174
			c-72.693,37.401-155.734,110.088-249.657,187.59c-131.759,108.723-259.817,273.251-311.594,378.199
			c-13.931,28.243-22.387,52.433-24.462,70.386c-1.767,15.328,1.154,26.956,7.366,34.48c6.209,7.528,17.071,12.605,32.456,13.78
			c18.02,1.372,43.378-2.335,73.752-10.654c112.868-30.91,298.718-125.402,430.477-234.125
			c93.924-77.502,181.053-145.231,231.574-209.501c32.173-40.926,49.706-80.818,46.944-120.692
			C1041.421,1001.801,1030.333,974.57,1007.494,946.891z"/>
		<path style="fill-rule:evenodd;clip-rule:evenodd;fill:#FFFFFF;" d="M442.919,1413.726c0,0-109.827,51.11-148.583,83.09
			c-12.975,10.707-14.817,29.93-4.11,42.905c10.707,12.975,29.93,14.817,42.905,4.11
			C371.887,1511.851,442.919,1413.726,442.919,1413.726z"/>
		<path style="fill-rule:evenodd;clip-rule:evenodd;" d="M416.185,1435.785c-23.65,31.119-62.96,80.744-88.318,101.667
			c-9.454,7.803-23.463,6.459-31.263-2.995c-7.8-9.454-6.459-23.463,2.995-31.263
			C324.957,1482.271,381.144,1453.096,416.185,1435.785z M449.615,1418.577c2.208-3.052,2.078-7.207-0.318-10.114
			c-2.399-2.903-6.452-3.821-9.867-2.233c0,0-111.125,51.834-150.357,84.208c-16.492,13.61-18.835,38.051-5.225,54.547
			c13.61,16.496,38.051,18.835,54.546,5.225C377.627,1517.838,449.615,1418.577,449.615,1418.577z"/>
		<path style="fill-rule:evenodd;clip-rule:evenodd;" d="M840.443,1084.732c11.673,14.146,13.653,34.152,8.361,56.342
			c-8.625,36.195-36.523,77.781-78.183,112.155c-41.663,34.378-87.789,53.873-124.961,55.471
			c-22.793,0.981-42.058-4.759-53.732-18.905c-11.67-14.146-13.653-34.152-8.361-56.346c8.629-36.192,36.527-77.777,78.186-112.155
			c41.659-34.375,87.785-53.869,124.957-55.467C809.504,1064.846,828.77,1070.586,840.443,1084.732z M853.199,1074.205
			c-14.686-17.798-38.523-26.137-67.197-24.903c-40.03,1.721-89.916,22.221-134.775,59.238
			c-44.859,37.013-74.457,82.102-83.746,121.073c-6.657,27.922-2.995,52.906,11.691,70.704
			c14.686,17.801,38.523,26.141,67.201,24.906c40.026-1.722,89.912-22.221,134.772-59.238
			c44.859-37.013,74.457-82.102,83.75-121.073C871.547,1116.99,867.886,1092.003,853.199,1074.205z"/>
		<path style="fill-rule:evenodd;clip-rule:evenodd;fill:#FFFFFF;" d="M708.85,1089.022c47.752,14.619,98.76,72.711,105.339,123.62"
			/>
		<path style="fill-rule:evenodd;clip-rule:evenodd;" d="M706.43,1096.928c45.117,13.815,93.341,68.675,99.557,116.773
			c0.586,4.526,4.734,7.726,9.26,7.14c4.526-0.582,7.729-4.734,7.144-9.26c-6.946-53.717-60.734-115.041-111.121-130.468
			c-4.364-1.334-8.992,1.125-10.326,5.489C699.607,1090.966,702.066,1095.591,706.43,1096.928z"/>
		<path style="fill-rule:evenodd;clip-rule:evenodd;" d="M613.071,1167.268c24.638,5.57,49.855,26.984,69.406,51.566
			c19.561,24.592,33.581,52.497,34.6,72.037c0.24,4.558,4.131,8.065,8.689,7.828c4.558-0.24,8.065-4.135,7.828-8.689
			c-1.15-21.999-16.154-53.788-38.174-81.47c-22.027-27.693-50.945-51.128-78.701-57.404c-4.452-1.005-8.883,1.792-9.892,6.241
			C605.821,1161.828,608.619,1166.259,613.071,1167.268z"/>
	</g>
	<g>
		<path style="fill-rule:evenodd;clip-rule:evenodd;fill:#FFFFFF;" d="M566.254,1888.607c0,0,112.056,8.318,155.628-3.937
			c20.377-5.736,32.269-26.935,26.536-47.315c-5.736-20.38-26.935-32.269-47.315-26.536
			C657.531,1823.078,566.254,1888.607,566.254,1888.607z"/>
		<path style="fill-rule:evenodd;clip-rule:evenodd;" d="M592.345,1881.266c29.058-19.745,81.421-53.531,111.164-61.898
			c15.66-4.406,31.955,4.731,36.361,20.394c4.406,15.66-4.731,31.955-20.394,36.361
			C689.733,1884.49,627.439,1882.963,592.345,1881.266z M561.078,1881.393c-3.034,2.18-4.381,6.026-3.369,9.62
			c1.009,3.595,4.163,6.174,7.888,6.449c0,0,114.258,8.255,158.686-4.247c25.097-7.059,39.74-33.168,32.678-58.265
			c-7.059-25.097-33.168-39.737-58.265-32.678C654.268,1814.774,561.078,1881.393,561.078,1881.393z"/>
		<path style="fill-rule:evenodd;clip-rule:evenodd;fill:#FFFFFF;" d="M566.254,1888.607c0,0-91.274,65.528-134.846,77.787
			c-20.38,5.733-41.578-6.156-47.314-26.536c-5.733-20.377,6.156-41.578,26.536-47.311
			C454.201,1880.288,566.254,1888.607,566.254,1888.607z"/>
		<path style="fill-rule:evenodd;clip-rule:evenodd;" d="M540.162,1895.948c-29.058,19.749-81.418,53.531-111.16,61.898
			c-15.66,4.406-31.955-4.731-36.361-20.391c-4.406-15.663,4.731-31.955,20.394-36.364
			C442.778,1892.724,505.071,1894.251,540.162,1895.948z M571.432,1895.821c3.034-2.18,4.382-6.022,3.369-9.62
			c-1.009-3.595-4.163-6.174-7.888-6.449c0,0-114.258-8.255-158.686,4.248c-25.097,7.059-39.74,33.168-32.681,58.265
			c7.063,25.097,33.172,39.74,58.268,32.678C478.243,1962.44,571.432,1895.821,571.432,1895.821z"/>
		<path style="fill-rule:evenodd;clip-rule:evenodd;fill:#FFFFFF;" d="M556.443,1853.735c19.812-5.574,40.425,5.983,45.999,25.799
			c5.574,19.812-5.983,40.425-25.799,45.999c-19.812,5.574-40.425-5.987-45.999-25.799
			C525.07,1879.922,536.631,1859.309,556.443,1853.735z"/>
		<path style="fill-rule:evenodd;clip-rule:evenodd;" d="M558.849,1862.283c15.095-4.248,30.797,4.558,35.045,19.653
			c4.247,15.095-4.558,30.801-19.653,35.048c-15.095,4.248-30.801-4.561-35.048-19.657
			C534.945,1882.232,543.753,1866.53,558.849,1862.283z M554.037,1845.187c-24.529,6.9-38.841,32.42-31.94,56.952
			c6.904,24.529,32.424,38.841,56.953,31.941c24.532-6.904,38.844-32.42,31.94-56.953
			C604.089,1852.595,578.569,1838.283,554.037,1845.187z"/>
		<path style="fill-rule:evenodd;clip-rule:evenodd;fill:#FFFFFF;" d="M1064.997,1988.168c-2.558-9.091-8.622-16.796-16.863-21.417
			c-8.237-4.621-17.974-5.779-27.069-3.221c-139.58,39.271-664.245,186.891-803.829,226.162
			c-9.091,2.558-16.796,8.625-21.417,16.863c-4.621,8.241-5.778,17.978-3.221,27.072c0.773,2.748,1.581,5.613,2.413,8.569
			c19.632,69.786,116.921,116.134,252.046,78.115c163.17-45.911,306.25-86.166,469.42-132.077
			c130.253-36.646,166.176-137.315,150.932-191.495C1066.577,1993.781,1065.773,1990.92,1064.997,1988.168z"/>
		<path style="fill-rule:evenodd;clip-rule:evenodd;" d="M1056.452,1990.574l2.41,8.573
			c14.471,51.424-21.16,145.761-144.791,180.545c-163.17,45.907-306.246,86.166-469.417,132.073
			c-78.278,22.024-143.422,15.155-187.092-8.763c-27.852-15.251-46.75-37.426-54.003-63.207c-0.832-2.96-1.64-5.824-2.413-8.573
			c-1.923-6.826-1.051-14.136,2.417-20.323c3.471-6.184,9.253-10.739,16.08-12.658c139.58-39.271,664.245-186.891,803.829-226.162
			c6.826-1.923,14.136-1.051,20.32,2.417C1049.975,1977.962,1054.53,1983.748,1056.452,1990.574z M1073.545,1985.766
			c-3.196-11.363-10.774-20.987-21.068-26.758c-10.29-5.775-22.458-7.221-33.817-4.025
			c-139.58,39.271-664.245,186.891-803.825,226.162c-11.359,3.196-20.987,10.774-26.759,21.068
			c-5.773,10.294-7.22,22.458-4.024,33.817c0.774,2.752,1.579,5.613,2.412,8.573c8.453,30.046,30.11,56.201,62.569,73.978
			c46.792,25.626,116.554,33.877,200.431,10.28c163.17-45.911,306.25-86.166,469.42-132.076
			c136.881-38.513,173.094-145.51,157.074-202.449L1073.545,1985.766z"/>
		<path style="fill-rule:evenodd;clip-rule:evenodd;fill:#FFFFFF;" d="M928.676,2453.906c-1.104-3.928-3.725-7.257-7.285-9.253
			c-3.56-1.996-7.768-2.497-11.694-1.392c-60.304,16.967-286.974,80.743-347.278,97.709c-3.93,1.105-7.257,3.726-9.253,7.286
			s-2.498,7.766-1.393,11.695c0.335,1.188,0.684,2.425,1.044,3.703c8.481,30.149,50.511,50.173,108.892,33.748
			c70.496-19.834,132.309-37.226,202.805-57.06c56.272-15.833,71.79-59.325,65.204-82.732
			C929.357,2456.331,929.011,2455.094,928.676,2453.906z"/>
		<path style="fill-rule:evenodd;clip-rule:evenodd;" d="M920.128,2456.311l1.044,3.703c5.81,20.656-9.409,57.809-59.065,71.78
			c-70.496,19.834-132.309,37.227-202.805,57.061c-32.226,9.067-59.062,6.493-77.04-3.354
			c-10.724-5.874-18.108-14.323-20.898-24.251c-0.36-1.279-0.709-2.516-1.044-3.703c-0.466-1.662-0.254-3.441,0.589-4.947
			c0.843-1.506,2.251-2.615,3.912-3.082c60.304-16.967,286.978-80.743,347.278-97.709c1.665-0.468,3.443-0.256,4.949,0.588
			C918.552,2453.242,919.663,2454.649,920.128,2456.311z M937.224,2451.501c-1.743-6.195-5.877-11.446-11.49-14.593
			c-5.613-3.147-12.249-3.937-18.443-2.194c-60.304,16.966-286.974,80.742-347.278,97.709c-6.195,1.743-11.444,5.876-14.594,11.49
			c-3.147,5.614-3.937,12.248-2.194,18.443c0.335,1.188,0.684,2.425,1.044,3.703c3.993,14.192,14.132,26.621,29.464,35.017
			c21.103,11.558,52.553,15.516,90.382,4.873c70.492-19.834,132.306-37.226,202.802-57.061
			c62.907-17.699,78.712-67.517,71.349-93.685L937.224,2451.501z"/>
		<path style="fill-rule:evenodd;clip-rule:evenodd;" d="M328.464,2157.441c6.216,61.535,21.805,120.706,46.686,177.525
			c1.182,2.692,4.325,3.919,7.02,2.741c2.692-1.178,3.919-4.325,2.741-7.017c-24.433-55.792-39.744-113.894-45.847-174.318
			c-0.296-2.924-2.91-5.062-5.839-4.766C330.302,2151.903,328.167,2154.517,328.464,2157.441z"/>
		<path style="fill-rule:evenodd;clip-rule:evenodd;" d="M494.724,2306.172c-24.479-56.885-41.656-116.554-49.382-179.818
			c-0.356-2.917-3.016-4.999-5.934-4.643c-2.921,0.356-4.999,3.016-4.642,5.937c7.853,64.29,25.294,124.929,50.172,182.735
			c1.161,2.699,4.297,3.948,6.999,2.787C494.636,2312.007,495.889,2308.871,494.724,2306.172z"/>
		<path style="fill-rule:evenodd;clip-rule:evenodd;" d="M905.993,1996.86c26.557,55.284,43.868,113.436,52.013,174.445
			c0.392,2.917,3.073,4.967,5.987,4.576c2.914-0.388,4.967-3.069,4.576-5.983c-8.297-62.131-25.929-121.352-52.973-177.648
			c-1.273-2.653-4.459-3.771-7.108-2.498C905.837,1991.025,904.719,1994.211,905.993,1996.86z"/>
		<path style="fill-rule:evenodd;clip-rule:evenodd;" d="M861.825,2204.343c-8.911-62.293-25.651-123.134-52.472-182.09
			c-1.217-2.674-4.381-3.859-7.055-2.642c-2.678,1.217-3.863,4.382-2.642,7.056c26.395,58.014,42.852,117.884,51.622,179.186
			c0.416,2.91,3.119,4.935,6.029,4.519C860.216,2209.956,862.241,2207.253,861.825,2204.343z"/>
		<path style="fill-rule:evenodd;clip-rule:evenodd;fill:#FFFFFF;" d="M571.023,1905.554
			c119.355-33.584,149.606,111.044,198.783,285.828c49.177,174.787,45.575,415.975,2.117,428.203
			c-43.459,12.228-172.3-191.697-221.478-366.484C501.268,2078.317,451.664,1939.135,571.023,1905.554z"/>
		<path style="fill-rule:evenodd;clip-rule:evenodd;" d="M573.429,1914.099c21.777-6.124,40.301-5.941,56.363-0.141
			c24.564,8.865,43.124,30.519,59.101,60.544c28.395,53.368,47.978,132.606,72.365,219.287
			c34.071,121.102,42.619,274.4,29.884,359.635c-3.119,20.877-7.426,37.508-13.148,48.186c-2.617,4.891-5.101,8.478-8.477,9.428
			c-3.38,0.95-7.366-0.816-12.15-3.624c-10.449-6.129-22.797-18.074-36.347-34.261c-55.312-66.089-127.956-201.353-162.027-322.455
			c-24.388-86.681-48.997-164.504-52.596-224.85c-2.025-33.951,2.522-62.107,18.859-82.479
			C535.939,1930.044,551.649,1920.226,573.429,1914.099z M568.617,1897.007c-25.964,7.306-44.478,19.368-57.217,35.253
			c-18.792,23.439-25.058,55.587-22.729,94.643c3.658,61.341,28.437,140.497,53.227,228.603
			c34.777,123.599,109.051,261.591,165.506,329.044c15.191,18.152,29.259,31.308,40.979,38.181
			c10.001,5.868,18.884,7.387,25.943,5.401c7.063-1.986,13.846-7.914,19.325-18.137c6.414-11.974,11.557-30.536,15.057-53.947
			c12.996-86.994,4.424-243.469-30.353-367.068c-24.79-88.106-44.923-168.575-73.784-222.821
			c-18.38-34.54-40.488-58.706-68.746-68.905C616.673,1890.339,594.585,1889.701,568.617,1897.007z"/>
		<path style="fill-rule:evenodd;clip-rule:evenodd;fill:#FFFFFF;" d="M718.297,2426.907c0,0,1.813,91.032,12.044,127.387
			c3.426,12.171,16.087,19.272,28.258,15.847c12.171-3.425,19.272-16.086,15.847-28.257
			C764.215,2505.53,718.297,2426.907,718.297,2426.907z"/>
		<path style="fill-rule:evenodd;clip-rule:evenodd;" d="M725.353,2451.984c14.22,25.706,36.417,67.798,43.109,91.584
			c2.494,8.869-2.681,18.095-11.55,20.59c-8.869,2.495-18.094-2.679-20.588-11.548
			C729.632,2528.823,726.623,2481.334,725.353,2451.984z M723.663,2423.771c-1.425-2.441-4.325-3.613-7.049-2.847
			c-2.727,0.765-4.59,3.277-4.533,6.106c0,0,1.923,92.145,12.277,128.947c4.353,15.473,20.451,24.5,35.923,20.147
			c15.473-4.354,24.5-20.45,20.147-35.923C770.074,2503.399,723.663,2423.771,723.663,2423.771z"/>
		<path style="fill-rule:evenodd;clip-rule:evenodd;" d="M612.707,2053.707c13.271-3.732,27.626,0.977,41.282,11.349
			c22.271,16.919,42.4,48.722,53.396,87.803c10.992,39.077,10.4,76.712,0.219,102.761c-6.241,15.97-16.037,27.474-29.305,31.21
			c-13.272,3.732-27.63-0.977-41.282-11.349c-22.271-16.919-42.4-48.722-53.396-87.803c-10.996-39.077-10.403-76.712-0.222-102.761
			C589.643,2068.947,599.436,2057.443,612.707,2053.707z M609.342,2041.741c-16.697,4.699-29.665,18.56-37.521,38.65
			c-10.961,28.049-12.005,68.573-0.166,110.656c11.839,42.079,33.863,76.115,57.841,94.329c17.18,13.053,35.472,18.115,52.169,13.42
			c16.697-4.699,29.665-18.56,37.518-38.654c10.964-28.046,12.009-68.57,0.169-110.652c-11.843-42.079-33.863-76.115-57.841-94.333
			C644.33,2042.108,626.035,2037.045,609.342,2041.741z"/>
		<path style="fill-rule:evenodd;clip-rule:evenodd;fill:#FFFFFF;" d="M575.722,2145.5c24.543-28.402,79.971-45.847,116.974-34.921"
			/>
		<path style="fill-rule:evenodd;clip-rule:evenodd;" d="M580.425,2149.564c23.188-26.832,75.547-43.346,110.511-33.023
			c3.292,0.97,6.749-0.91,7.722-4.202c0.97-3.292-0.914-6.749-4.202-7.722c-39.045-11.525-97.539,6.851-123.437,36.819
			c-2.244,2.593-1.958,6.523,0.635,8.767C574.251,2152.446,578.181,2152.157,580.425,2149.564z"/>
		<path style="fill-rule:evenodd;clip-rule:evenodd;" d="M600.459,2235.105c11.307-15.25,33.687-26.091,56.522-32.074
			c22.846-5.99,46.291-7.158,60.039-1.933c3.207,1.22,6.798-0.392,8.019-3.598c1.217-3.207-0.395-6.802-3.602-8.019
			c-15.476-5.885-41.885-5.218-67.606,1.524c-25.728,6.741-50.617,19.516-63.359,36.699c-2.043,2.755-1.464,6.65,1.291,8.692
			C594.518,2238.443,598.416,2237.864,600.459,2235.105z"/>
	</g>
	<g>
		<path style="fill-rule:evenodd;clip-rule:evenodd;fill:#FFFFFF;" d="M1184.875,2142.744c0,0,39.53-115.209,38.654-164.267
			c-0.41-22.946-19.372-41.24-42.318-40.828c-22.944,0.408-41.24,19.37-40.83,42.315
			C1141.258,2029.019,1184.875,2142.744,1184.875,2142.744z"/>
		<path style="fill-rule:evenodd;clip-rule:evenodd;" d="M1184.351,2113.367c-12.718-35.898-33.748-100.091-34.346-133.576
			c-0.315-17.633,13.745-32.205,31.379-32.519c17.635-0.317,32.206,13.746,32.521,31.379
			C1214.504,2012.136,1195.778,2077.039,1184.351,2113.367z M1175.89,2146.191c1.451,3.779,5.112,6.25,9.158,6.177
			c4.05-0.072,7.617-2.67,8.933-6.501c0,0,40.065-117.537,39.171-167.56c-0.504-28.258-23.854-50.79-52.111-50.285
			c-28.257,0.505-50.788,23.856-50.284,52.114C1131.652,2030.16,1175.89,2146.191,1175.89,2146.191z"/>
		<path style="fill-rule:evenodd;clip-rule:evenodd;fill:#FFFFFF;" d="M1184.875,2142.744c0,0,43.622,113.724,44.497,162.782
			c0.409,22.941-17.885,41.904-40.831,42.315s-41.907-17.887-42.315-40.831C1145.349,2257.955,1184.875,2142.744,1184.875,2142.744z
			"/>
		<path style="fill-rule:evenodd;clip-rule:evenodd;" d="M1185.403,2172.12c12.716,35.897,33.747,100.09,34.347,133.577
			c0.314,17.633-13.745,32.205-31.383,32.521c-17.633,0.314-32.205-13.745-32.519-31.378
			C1155.249,2273.35,1173.975,2208.451,1185.403,2172.12z M1193.864,2139.299c-1.451-3.782-5.112-6.25-9.16-6.177
			c-4.048,0.073-7.618,2.67-8.931,6.498c0,0-40.066,117.536-39.171,167.563c0.503,28.254,23.853,50.786,52.111,50.282
			c28.255-0.506,50.787-23.856,50.282-52.112C1238.103,2255.328,1193.864,2139.299,1193.864,2139.299z"/>
		<path style="fill-rule:evenodd;clip-rule:evenodd;fill:#FFFFFF;" d="M1145.612,2143.445
			c-0.398-22.308,17.389-40.742,39.697-41.142c22.308-0.396,40.742,17.392,41.14,39.696c0.399,22.308-17.388,40.743-39.697,41.142
			C1164.445,2183.541,1146.011,2165.754,1145.612,2143.445z"/>
		<path style="fill-rule:evenodd;clip-rule:evenodd;" d="M1155.236,2143.272c-0.304-16.996,13.248-31.04,30.244-31.343
			c16.998-0.305,31.043,13.248,31.345,30.243c0.306,16.996-13.248,31.044-30.244,31.347
			C1169.586,2173.821,1155.539,2160.271,1155.236,2143.272z M1135.989,2143.618c0.494,27.617,23.318,49.64,50.937,49.146
			c27.62-0.492,49.643-23.316,49.149-50.934c-0.493-27.621-23.316-49.643-50.937-49.15
			C1157.518,2093.174,1135.496,2115.998,1135.989,2143.618z"/>
		<path style="fill-rule:evenodd;clip-rule:evenodd;fill:#FFFFFF;" d="M1426.381,1647.148c-10.237,0.184-19.984,4.429-27.093,11.795
			c-7.111,7.37-11.004,17.262-10.821,27.499c2.81,157.158,13.361,747.883,16.171,905.041c0.181,10.236,4.425,19.982,11.795,27.093
			c7.367,7.11,17.259,11.003,27.496,10.82c3.098-0.056,6.32-0.115,9.651-0.173c78.573-1.404,153.919-90.674,151.198-242.815
			c-3.281-183.716-6.159-344.81-9.44-528.526c-2.622-146.649-98.302-211.995-159.308-210.904
			C1432.7,1647.036,1429.478,1647.095,1426.381,1647.148z"/>
		<path style="fill-rule:evenodd;clip-rule:evenodd;" d="M1426.553,1656.774l9.65-0.173
			c57.901-1.034,147.021,62.259,149.508,201.452c3.284,183.718,6.162,344.811,9.443,528.528
			c1.575,88.13-23.537,154.553-60.618,193.768c-23.654,25.011-52.098,38.732-81.127,39.252c-3.33,0.058-6.556,0.115-9.654,0.171
			c-7.684,0.138-15.109-2.783-20.642-8.123c-5.531-5.336-8.716-12.652-8.853-20.339c-2.81-157.158-13.361-747.884-16.171-905.041
			c-0.138-7.684,2.783-15.109,8.124-20.642C1411.55,1660.096,1418.866,1656.911,1426.553,1656.774z M1426.212,1637.526
			c-12.791,0.229-24.969,5.53-33.852,14.736c-8.881,9.203-13.744,21.563-13.516,34.354c2.808,157.153,13.361,747.883,16.169,905.037
			c0.229,12.791,5.53,24.969,14.737,33.851c9.206,8.885,21.563,13.746,34.353,13.517c3.095-0.057,6.319-0.112,9.65-0.173
			c33.828-0.604,67.206-16.123,94.768-45.271c39.738-42.022,67.569-112.903,65.881-207.34
			c-3.283-183.713-6.159-344.81-9.441-528.523c-2.755-154.118-104.991-221.505-169.099-220.359L1426.212,1637.526z"/>
		<path style="fill-rule:evenodd;clip-rule:evenodd;fill:#FFFFFF;" d="M1877.261,1918.127c-4.422,0.077-8.631,1.91-11.705,5.093
			c-3.072,3.187-4.752,7.458-4.674,11.88c1.213,67.896,5.773,323.109,6.986,391.005c0.081,4.424,1.912,8.636,5.096,11.707
			c3.182,3.073,7.457,4.755,11.88,4.675c1.337-0.023,2.729-0.05,4.17-0.073c33.944-0.606,66.495-39.175,65.321-104.906
			c-1.418-79.369-2.66-148.967-4.078-228.337c-1.133-63.358-42.471-91.589-68.825-91.12
			C1879.993,1918.079,1878.6,1918.101,1877.261,1918.127z"/>
		<path style="fill-rule:evenodd;clip-rule:evenodd;" d="M1877.435,1927.751l4.171-0.076c23.256-0.413,58.026,25.757,59.026,81.665
			c1.417,79.373,2.661,148.972,4.08,228.342c0.648,36.288-9.428,63.715-24.694,79.86c-9.107,9.632-19.999,15.048-31.177,15.249
			c-1.438,0.025-2.833,0.05-4.17,0.073c-1.87,0.035-3.677-0.677-5.023-1.977c-1.347-1.3-2.123-3.08-2.158-4.95
			c-1.213-67.896-5.773-323.109-6.986-391.005c-0.03-1.872,0.679-3.68,1.979-5.026
			C1873.782,1928.557,1875.561,1927.784,1877.435,1927.751z M1877.09,1908.501c-6.977,0.126-13.615,3.016-18.461,8.039
			c-4.844,5.019-7.493,11.759-7.37,18.734c1.213,67.896,5.773,323.109,6.986,391.005c0.123,6.976,3.016,13.615,8.035,18.459
			c5.023,4.845,11.761,7.498,18.738,7.372c1.337-0.023,2.729-0.049,4.166-0.074c15.98-0.284,31.8-7.502,44.818-21.269
			c17.922-18.949,30.719-50.84,29.955-93.429c-1.417-79.373-2.66-148.967-4.077-228.34c-1.266-70.827-49.159-101.094-78.621-100.57
			L1877.09,1908.501z"/>
		<path style="fill-rule:evenodd;clip-rule:evenodd;" d="M1401.397,2465.989c66.232,10.399,132.561,10.319,198.978-0.153
			c3.149-0.496,5.303-3.456,4.807-6.605c-0.498-3.146-3.457-5.3-6.606-4.804c-65.219,10.283-130.349,10.364-195.388,0.152
			c-3.148-0.494-6.105,1.664-6.599,4.812C1396.095,2462.539,1398.25,2465.495,1401.397,2465.989z"/>
		<path style="fill-rule:evenodd;clip-rule:evenodd;" d="M1603.057,2332.539c-66.375,10.035-133.665,11.639-202.126,2.35
			c-3.158-0.429-6.071,1.787-6.497,4.946c-0.429,3.157,1.787,6.071,4.944,6.5c69.571,9.439,137.951,7.819,205.402-2.374
			c3.152-0.476,5.324-3.423,4.848-6.575C1609.152,2334.237,1606.209,2332.063,1603.057,2332.539z"/>
		<path style="fill-rule:evenodd;clip-rule:evenodd;" d="M1391.787,1816.268c65.265-12.65,131.002-14.815,197.215-6.583
			c3.162,0.392,6.048-1.859,6.441-5.021c0.394-3.165-1.854-6.05-5.016-6.443c-67.43-8.383-134.375-6.172-200.841,6.708
			c-3.128,0.606-5.176,3.639-4.57,6.767C1385.624,1814.829,1388.654,1816.875,1391.787,1816.268z"/>
		<path style="fill-rule:evenodd;clip-rule:evenodd;" d="M1597.199,1919.617c-67.769-7.781-136.163-6.953-205.355,4.967
			c-3.141,0.538-5.254,3.528-4.712,6.67c0.542,3.142,3.532,5.252,6.671,4.709c68.089-11.728,135.391-12.528,202.082-4.872
			c3.167,0.364,6.03-1.913,6.394-5.08C1602.641,1922.847,1600.366,1919.981,1597.199,1919.617z"/>
		<path style="fill-rule:evenodd;clip-rule:evenodd;fill:#FFFFFF;" d="M1203.958,2142.403
			c-2.402-134.386,157.564-126.344,354.358-129.859c196.791-3.516,448.702,66.566,449.579,115.498
			c0.874,48.93-248.375,127.967-445.166,131.483C1365.934,2263.039,1206.357,2276.788,1203.958,2142.403z"/>
		<path style="fill-rule:evenodd;clip-rule:evenodd;" d="M1213.58,2142.233c-0.438-24.52,4.848-43.896,15.344-59.146
			c16.052-23.318,43.858-36.827,79.733-45.322c63.765-15.105,152.236-13.853,249.83-15.599
			c136.348-2.435,299.444,30.747,385.318,67.533c21.034,9.01,37.288,18.097,46.911,27.031c4.41,4.093,7.489,7.68,7.554,11.484
			c0.07,3.802-2.88,7.498-7.137,11.746c-9.299,9.27-25.219,18.935-45.917,28.689c-84.506,39.832-246.309,78.814-382.659,81.253
			c-97.592,1.742-185.963,6.153-250.23-6.664c-36.156-7.21-64.427-19.717-81.301-42.449
			C1219.991,2185.925,1214.018,2166.752,1213.58,2142.233z M1194.331,2142.575c0.525,29.235,8.083,51.964,21.24,69.687
			c19.41,26.15,51.394,41.559,92.99,49.854c65.324,13.025,155.138,8.804,254.337,7.03c139.162-2.486,304.275-42.434,390.523-83.085
			c23.211-10.94,40.87-22.074,51.299-32.472c8.906-8.876,12.937-17.771,12.797-25.721c-0.145-7.949-4.491-16.695-13.709-25.246
			c-10.791-10.02-28.84-20.516-52.426-30.621c-87.644-37.544-254.078-71.567-393.241-69.081
			c-99.199,1.774-189.109,0.759-253.923,16.11c-41.275,9.776-72.687,26.318-91.153,53.144
			C1200.553,2090.354,1193.81,2113.341,1194.331,2142.575z"/>
		<path style="fill-rule:evenodd;clip-rule:evenodd;fill:#FFFFFF;" d="M1791.117,2131.3c0,0,95.953,23.125,136.885,22.394
			c13.701-0.248,24.631-11.571,24.384-25.275c-0.244-13.703-11.568-24.629-25.272-24.382
			C1886.182,2104.767,1791.117,2131.3,1791.117,2131.3z"/>
		<path style="fill-rule:evenodd;clip-rule:evenodd;" d="M1819.352,2130.796c30.864-7.845,81.102-19.548,107.883-20.025
			c9.985-0.179,18.236,7.783,18.416,17.768c0.178,9.988-7.785,18.24-17.768,18.416
			C1901.1,2147.435,1850.477,2137.533,1819.352,2130.796z M1789.306,2124.813c-2.955,0.825-4.982,3.54-4.924,6.607
			c0.053,3.07,2.172,5.713,5.156,6.431c0,0,97.148,23.317,138.586,22.577c17.419-0.312,31.312-14.708,31.002-32.13
			c-0.312-17.419-14.711-31.314-32.13-31.002C1885.557,2098.037,1789.306,2124.813,1789.306,2124.813z"/>
		<path style="fill-rule:evenodd;clip-rule:evenodd;" d="M1370.764,2139.424c-0.264-14.942,8.621-28.701,23.249-40.166
			c23.862-18.7,62.744-31.067,106.743-31.853c44.002-0.785,83.301,10.183,107.814,28.019c15.03,10.934,24.403,24.369,24.671,39.309
			c0.264,14.942-8.621,28.701-23.25,40.169c-23.862,18.7-62.743,31.063-106.745,31.848c-43.999,0.786-83.298-10.182-107.81-28.017
			C1380.405,2167.799,1371.033,2154.364,1370.764,2139.424z M1357.293,2139.665c0.334,18.794,11.303,36.207,30.212,49.963
			c26.399,19.208,68.605,31.442,115.981,30.596c47.38-0.848,89.125-14.582,114.816-34.719
			c18.406-14.425,28.745-32.216,28.409-51.015c-0.337-18.796-11.304-36.204-30.215-49.964
			c-26.395-19.206-68.602-31.441-115.981-30.596c-47.377,0.849-89.122,14.583-114.813,34.72
			C1367.297,2103.076,1356.957,2120.866,1357.293,2139.665z"/>
		<path style="fill-rule:evenodd;clip-rule:evenodd;fill:#FFFFFF;" d="M1456.848,2203.439
			c-23.032-33.542-26.088-96.457-4.46-132.256"/>
		<path style="fill-rule:evenodd;clip-rule:evenodd;" d="M1462.401,2199.627c-21.761-31.694-24.68-91.135-4.244-124.958
			c1.921-3.182,0.899-7.326-2.284-9.252c-3.182-1.92-7.326-0.899-9.252,2.285c-22.821,37.771-19.631,104.157,4.673,139.552
			c2.103,3.064,6.301,3.844,9.365,1.741C1463.727,2206.891,1464.507,2202.692,1462.401,2199.627z"/>
		<path style="fill-rule:evenodd;clip-rule:evenodd;" d="M1557.606,2202.133c-12.885-16.049-18.099-42.494-18.096-68.084
			c0.001-25.602,5.22-50.507,14.481-63.483c2.162-3.03,1.455-7.24-1.571-9.4c-3.026-2.16-7.238-1.458-9.396,1.573
			c-10.427,14.606-16.985,42.486-16.988,71.307c-0.002,28.829,6.549,58.44,21.063,76.523c2.329,2.901,6.573,3.366,9.472,1.036
			C1559.47,2209.279,1559.935,2205.035,1557.606,2202.133z"/>
	</g>
	<g>
		<path style="fill-rule:evenodd;clip-rule:evenodd;fill:#FFFFFF;" d="M1841.486,1338.589c0,0-105.843,50.367-139.319,83.839
			c-15.311,15.311-15.311,40.169,0,55.48c15.311,15.311,40.169,15.311,55.48,0
			C1791.119,1444.436,1841.486,1338.589,1841.486,1338.589z"/>
		<path style="fill-rule:evenodd;clip-rule:evenodd;" d="M1821.532,1358.543c-16.476,32.587-47.06,89.698-69.805,112.443
			c-11.98,11.977-31.255,12.151-43.022,0.384c-11.767-11.767-11.592-31.042,0.384-43.022
			C1731.834,1405.603,1788.945,1375.019,1821.532,1358.543z M1849.751,1342.393c1.665-3.505,0.974-7.64-1.728-10.342
			c-2.702-2.698-6.836-3.393-10.342-1.728c0,0-107.455,51.202-141.435,85.182c-19.193,19.197-19.469,50.084-0.617,68.94
			c18.856,18.852,49.746,18.576,68.94-0.617C1798.549,1449.848,1849.751,1342.393,1849.751,1342.393z"/>
		<path style="fill-rule:evenodd;clip-rule:evenodd;fill:#FFFFFF;" d="M1841.486,1338.589c0,0,50.368-105.843,83.839-139.319
			c15.311-15.307,40.169-15.307,55.48,0c15.307,15.311,15.307,40.169,0,55.48
			C1947.329,1288.221,1841.486,1338.589,1841.486,1338.589z"/>
		<path style="fill-rule:evenodd;clip-rule:evenodd;" d="M1861.44,1318.634c16.476-32.587,47.06-89.694,69.805-112.443
			c11.98-11.977,31.255-12.147,43.022-0.384c11.767,11.767,11.592,31.046-0.384,43.022
			C1951.134,1271.575,1894.027,1302.158,1861.44,1318.634z M1833.217,1334.784c-1.662,3.509-0.971,7.64,1.731,10.342
			c2.702,2.702,6.833,3.393,10.342,1.731c0,0,107.455-51.206,141.435-85.186c19.193-19.193,19.469-50.084,0.617-68.939
			c-18.856-18.852-49.746-18.576-68.939,0.617C1884.423,1227.33,1833.217,1334.784,1833.217,1334.784z"/>
		<path style="fill-rule:evenodd;clip-rule:evenodd;fill:#FFFFFF;" d="M1867.683,1364.785c-15.152,15.156-39.54,15.373-54.424,0.489
			c-14.884-14.884-14.667-39.272,0.489-54.424c15.152-15.152,39.54-15.373,54.424-0.489
			C1883.056,1325.246,1882.835,1349.633,1867.683,1364.785z"/>
		<path style="fill-rule:evenodd;clip-rule:evenodd;" d="M1861.262,1358.364c-11.545,11.546-30.126,11.713-41.465,0.373
			c-11.34-11.34-11.173-29.92,0.373-41.465c11.546-11.546,30.126-11.713,41.465-0.373
			C1872.974,1328.239,1872.808,1346.823,1861.262,1358.364z M1874.104,1371.21c18.763-18.763,19.03-48.958,0.606-67.383
			c-18.429-18.429-48.624-18.161-67.383,0.602c-18.763,18.763-19.034,48.954-0.606,67.383
			C1825.15,1390.241,1855.345,1389.969,1874.104,1371.21z"/>
		<path style="fill-rule:evenodd;clip-rule:evenodd;fill:#FFFFFF;" d="M1340.881,1505.207c6.833,6.829,16.146,10.618,25.894,10.532
			c9.748-0.089,19.131-4.045,26.088-10.998c106.752-106.752,508.02-508.024,614.776-614.776c6.953-6.957,10.909-16.34,10.998-26.088
			c0.086-9.748-3.703-19.062-10.536-25.894c-2.065-2.065-4.216-4.216-6.437-6.436c-52.425-52.425-163.451-44.039-266.798,59.308
			c-124.796,124.792-234.223,234.223-359.019,359.015c-99.616,99.62-82.108,208.197-41.407,248.897
			C1336.665,1500.991,1338.816,1503.142,1340.881,1505.207z"/>
		<path style="fill-rule:evenodd;clip-rule:evenodd;" d="M1347.419,1498.67l-6.44-6.44
			c-38.632-38.631-53.263-141.385,41.291-235.939c124.796-124.792,234.223-234.223,359.019-359.015
			c59.867-59.867,122.207-87.127,173.591-88.106c32.769-0.621,60.88,9.542,80.248,28.914c2.22,2.221,4.375,4.371,6.44,6.437
			c5.128,5.128,7.97,12.12,7.904,19.438c-0.066,7.318-3.036,14.364-8.254,19.585c-106.755,106.752-508.024,508.024-614.776,614.776
			c-5.222,5.221-12.268,8.191-19.586,8.257C1359.539,1506.644,1352.547,1503.798,1347.419,1498.67z M1334.343,1511.745
			c8.537,8.533,20.172,13.266,32.35,13.157c12.178-0.109,23.902-5.051,32.591-13.739
			c106.752-106.752,508.02-508.024,614.776-614.776c8.688-8.688,13.63-20.412,13.739-32.591c0.109-12.178-4.624-23.813-13.16-32.346
			c-2.065-2.065-4.216-4.22-6.437-6.44c-22.575-22.571-55.154-34.889-93.347-34.159c-55.057,1.044-122.261,29.431-186.41,93.583
			c-124.796,124.792-234.223,234.223-359.019,359.015c-104.686,104.69-84.297,219.082-41.524,261.856L1334.343,1511.745z"/>
		<path style="fill-rule:evenodd;clip-rule:evenodd;fill:#FFFFFF;" d="M1232.848,1018.209c2.95,2.954,6.972,4.589,11.184,4.554
			c4.212-0.039,8.265-1.747,11.27-4.752c46.12-46.124,219.482-219.482,265.602-265.602c3.005-3.005,4.717-7.062,4.752-11.27
			c0.039-4.212-1.599-8.238-4.55-11.188c-0.893-0.893-1.821-1.821-2.783-2.784c-22.649-22.648-70.613-19.026-115.261,25.622
			c-53.916,53.915-101.193,101.192-155.108,155.108c-43.038,43.038-35.475,89.946-17.889,107.532
			C1231.024,1016.388,1231.955,1017.32,1232.848,1018.209z"/>
		<path style="fill-rule:evenodd;clip-rule:evenodd;" d="M1239.386,1011.675l-2.784-2.784
			c-15.517-15.517-20.207-56.594,17.773-94.573c53.915-53.916,101.193-101.192,155.108-155.108
			c24.648-24.648,50.196-36.104,71.354-36.504c12.617-0.241,23.491,3.54,30.953,10.998c0.959,0.963,1.887,1.891,2.78,2.783
			c1.25,1.246,1.941,2.951,1.926,4.732c-0.016,1.782-0.738,3.494-2.011,4.767c-46.12,46.12-219.482,219.478-265.602,265.602
			c-1.269,1.269-2.985,1.992-4.767,2.007C1242.336,1013.613,1240.632,1012.922,1239.386,1011.675z M1226.311,1024.747
			c4.655,4.655,10.998,7.236,17.641,7.178c6.642-0.062,13.036-2.756,17.773-7.493c46.12-46.124,219.482-219.482,265.602-265.602
			c4.74-4.74,7.434-11.134,7.493-17.776c0.062-6.639-2.52-12.986-7.174-17.641c-0.893-0.893-1.821-1.821-2.783-2.783
			c-10.66-10.661-26.007-16.589-44.043-16.247c-24.834,0.474-55.247,13.056-84.177,41.985
			c-53.916,53.916-101.193,101.193-155.108,155.108c-48.112,48.112-37.665,100.831-18.005,120.491L1226.311,1024.747z"/>
		<path style="fill-rule:evenodd;clip-rule:evenodd;" d="M1923.047,975.886c-36.19-51.916-79.685-96.91-130.414-135.033
			c-2.407-1.805-5.862-1.293-7.71,1.145c-1.852,2.438-1.401,5.881,1.002,7.69c49.816,37.432,92.527,81.615,128.065,132.596
			c1.72,2.469,5.148,3.039,7.644,1.273C1924.134,981.791,1924.766,978.355,1923.047,975.886z"/>
		<path style="fill-rule:evenodd;clip-rule:evenodd;" d="M1698.774,927.96c50.398,38.387,95.575,83.016,133.989,135.709
			c1.77,2.43,5.21,2.927,7.675,1.11c2.461-1.813,3.024-5.26,1.25-7.695c-39.039-53.547-84.938-98.906-136.155-137.914
			c-2.391-1.824-5.851-1.332-7.718,1.091C1695.952,922.688,1696.379,926.14,1698.774,927.96z"/>
		<path style="fill-rule:evenodd;clip-rule:evenodd;" d="M1480.394,1415.875c-51.481-35.887-96.029-79.088-133.702-129.544
			c-1.801-2.411-5.245-2.873-7.691-1.029c-2.442,1.844-2.962,5.299-1.165,7.706c38.367,51.388,83.734,95.381,136.163,131.924
			c2.469,1.72,5.905,1.091,7.671-1.409C1483.434,1421.022,1482.863,1417.594,1480.394,1415.875z"/>
		<path style="fill-rule:evenodd;clip-rule:evenodd;" d="M1417.286,1207.418c39.004,51.218,84.367,97.116,137.914,136.155
			c2.43,1.774,5.877,1.211,7.694-1.25c1.817-2.465,1.316-5.901-1.114-7.675c-52.693-38.418-97.322-83.591-135.705-133.989
			c-1.821-2.395-5.272-2.822-7.698-0.955C1415.95,1201.568,1415.461,1205.027,1417.286,1207.418z"/>
		<path style="fill-rule:evenodd;clip-rule:evenodd;fill:#FFFFFF;" d="M1828.756,1325.859
			c-91.285,91.285-190.49-22.718-321.797-154.025s-247.853-349.146-214.614-382.385c33.235-33.239,251.075,83.307,382.382,214.614
			S1920.042,1234.574,1828.756,1325.859z"/>
		<path style="fill-rule:evenodd;clip-rule:evenodd;" d="M1822.335,1319.438c-16.658,16.655-33.507,25.991-50.915,29.035
			c-26.624,4.659-54.172-5.214-83.536-23.91c-52.196-33.231-109.271-94.15-174.387-159.266
			c-90.975-90.979-174.857-223.877-205.673-306.742c-7.551-20.296-11.914-37.397-12.046-49.894
			c-0.058-5.726,0.404-10.21,2.989-12.792c2.582-2.586,7.066-3.048,12.792-2.985c12.497,0.128,29.598,4.492,49.894,12.042
			c82.861,30.817,215.763,114.699,306.738,205.673c65.119,65.119,126.038,122.191,159.27,174.387
			c18.696,29.369,28.569,56.912,23.91,83.536C1848.327,1285.931,1838.99,1302.783,1822.335,1319.438z M1835.177,1332.28
			c19.858-19.857,30.615-40.157,34.245-60.915c5.357-30.63-4.942-62.631-26.453-96.413
			c-33.779-53.054-95.513-111.236-161.704-177.427c-92.854-92.85-228.582-178.335-313.155-209.788
			c-22.761-8.467-42.021-13.032-56.035-13.18c-11.961-0.124-20.75,3.071-26.15,8.471c-5.4,5.4-8.595,14.189-8.471,26.15
			c0.144,14.015,4.713,33.274,13.176,56.035c31.457,84.573,116.939,220.305,209.792,313.155
			c66.191,66.191,124.369,127.929,177.423,161.704c33.786,21.511,65.787,31.81,96.417,26.453
			C1795.02,1362.895,1815.317,1352.137,1835.177,1332.28z"/>
		<path style="fill-rule:evenodd;clip-rule:evenodd;fill:#FFFFFF;" d="M1436.561,934.498c0,0-46.652-80.384-73.87-107.606
			c-9.309-9.305-24.427-9.305-33.732,0c-9.309,9.309-9.309,24.423,0,33.732C1356.181,887.846,1436.561,934.498,1436.561,934.498z"/>
		<path style="fill-rule:evenodd;clip-rule:evenodd;" d="M1417.721,915.658c-25.63-15.727-66.618-42.04-84.488-59.91
			c-6.662-6.662-6.565-17.578,0.221-24.361c6.782-6.782,17.699-6.879,24.361-0.217
			C1375.685,849.04,1401.994,890.024,1417.721,915.658z M1433.265,940.057c2.504,1.456,5.707,1.017,7.792-1.064
			c2.085-2.085,2.523-5.288,1.064-7.795c0,0-47.506-81.533-75.155-109.178c-11.623-11.627-30.669-11.456-42.502,0.38
			c-11.833,11.833-12.004,30.879-0.38,42.502C1351.732,892.547,1433.265,940.057,1433.265,940.057z"/>
		<path style="fill-rule:evenodd;clip-rule:evenodd;" d="M1717.455,1214.557c-10.148,10.152-25.475,13.297-42.979,11.01
			c-28.549-3.731-62.553-21.888-91.914-51.245c-29.357-29.361-47.514-63.365-51.245-91.914c-2.286-17.505,0.858-32.831,11.01-42.979
			c10.148-10.148,25.475-13.292,42.979-11.006c28.546,3.727,62.553,21.884,91.91,51.245c29.361,29.357,47.518,63.365,51.248,91.91
			C1730.747,1189.083,1727.603,1204.409,1717.455,1214.557z M1726.446,1223.548c12.768-12.768,17.614-31.834,14.737-53.853
			c-4.014-30.739-23.2-67.569-54.812-99.181c-31.612-31.613-68.439-50.798-99.182-54.812c-22.02-2.877-41.085,1.968-53.853,14.737
			c-12.768,12.769-17.617,31.834-14.741,53.857c4.018,30.739,23.204,67.565,54.816,99.178
			c31.613,31.613,68.439,50.798,99.178,54.816C1694.612,1241.166,1713.677,1236.317,1726.446,1223.548z"/>
		<path style="fill-rule:evenodd;clip-rule:evenodd;fill:#FFFFFF;" d="M1705.315,1113.388
			c-8.094,38.022-49.563,82.069-88.467,91.262"/>
		<path style="fill-rule:evenodd;clip-rule:evenodd;" d="M1699.046,1112.161c-7.652,35.922-46.811,77.562-83.564,86.246
			c-3.459,0.819-5.652,4.278-4.899,7.726c0.757,3.443,4.177,5.575,7.636,4.76c41.046-9.702,84.829-56.159,93.37-96.278
			c0.741-3.474-1.471-6.844-4.931-7.524C1703.196,1106.416,1699.783,1108.687,1699.046,1112.161z"/>
		<path style="fill-rule:evenodd;clip-rule:evenodd;" d="M1638.43,1045.827c-2.656,19.461-17.512,40.646-35.196,57.716
			c-17.691,17.078-38.317,30.149-53.349,32.517c-3.505,0.551-5.955,3.839-5.466,7.337s3.735,5.885,7.24,5.334
			c16.922-2.667,40.479-16.81,60.399-36.038c19.923-19.232,36.093-43.434,39.082-65.356c0.478-3.517-1.98-6.708-5.489-7.124
			C1642.145,1039.798,1638.907,1042.313,1638.43,1045.827z"/>
	</g>
	<path style="fill-rule:evenodd;clip-rule:evenodd;fill:#17B8E7;" d="M2031.985,192.187c0-35.736-28.97-64.703-64.703-64.703
		H191.685c-35.733,0-64.701,28.966-64.701,64.703V425.8c0,35.733,28.968,64.699,64.701,64.699h1775.598
		c17.159,0,33.616-6.816,45.752-18.948c12.132-12.136,18.951-28.593,18.951-45.752V192.187z"/>
	<g>
		<path style="fill:#FFFFFF;" d="M332.863,339.42v-80.698h21.993v61.846h27.34v18.852H332.863z"/>
		<path style="fill:#FFFFFF;" d="M449.279,315.497h-42.333c0.037,4.3,1.139,7.616,3.308,9.95c2.168,2.334,5.236,3.5,9.205,3.5
			c2.977,0,5.485-0.56,7.524-1.681c2.039-1.121,3.591-2.784,4.658-4.988l14.772,5.953c-1.764,4.263-4.888,7.551-9.371,9.867
			c-4.484,2.315-9.977,3.473-16.481,3.473c-9.701,0-17.483-2.691-23.344-8.076c-5.862-5.383-8.792-12.485-8.792-21.304
			c0-8.672,2.93-15.875,8.792-21.608c5.861-5.732,13.274-8.599,22.241-8.599c9.224,0,16.5,2.903,21.828,8.709
			c5.328,5.807,7.993,13.762,7.993,23.868V315.497z M429.932,304.418c-0.368-3.16-1.571-5.696-3.61-7.607
			c-2.04-1.91-4.547-2.866-7.524-2.866c-3.197,0-5.742,0.873-7.635,2.618c-1.893,1.746-3.151,4.364-3.775,7.855H429.932z"/>
		<path style="fill:#FFFFFF;" d="M463.556,339.42v-41.782h-8.323v-13.891h8.323v-16.591h19.348v16.591h8.324v13.891h-8.324v41.782
			H463.556z"/>
		<path style="fill:#FFFFFF;" d="M497.346,260.155h12.071v30.923h-12.071V260.155z"/>
		<path style="fill:#FFFFFF;" d="M515.646,334.79l4.079-14.993c2.866,2.499,6.017,4.419,9.453,5.76
			c3.436,1.342,6.899,2.012,10.391,2.012c2.461,0,4.335-0.395,5.622-1.185c1.286-0.79,1.929-1.938,1.929-3.445
			c0-2.461-2.59-4.299-7.772-5.512c-1.69-0.404-3.051-0.753-4.079-1.047c-5.88-1.616-10.152-3.739-12.816-6.366
			c-2.665-2.627-3.997-6.036-3.997-10.225c0-5.402,2.03-9.72,6.091-12.954c4.06-3.233,9.564-4.851,16.509-4.851
			c3.564,0,7.193,0.413,10.886,1.24c3.693,0.827,7.469,2.104,11.328,3.831l-4.079,13.504c-2.609-1.764-5.255-3.105-7.938-4.024
			c-2.683-0.918-5.366-1.378-8.048-1.378c-2.242,0-3.933,0.35-5.071,1.047c-1.14,0.699-1.709,1.709-1.709,3.032
			c0,1.984,2.572,3.657,7.717,5.016c1.176,0.331,2.058,0.57,2.646,0.716c6.798,1.948,11.529,4.236,14.194,6.863
			c2.664,2.628,3.996,6.183,3.996,10.666c0,5.696-2.187,10.299-6.559,13.808c-4.373,3.509-10.162,5.264-17.363,5.264
			c-4.888,0-9.426-0.561-13.615-1.681C523.252,338.768,519.32,337.069,515.646,334.79z"/>
		<path style="fill:#FFFFFF;" d="M670.649,261.864v24.033c-3.014-3.344-6.018-5.796-9.013-7.359
			c-2.995-1.561-6.201-2.343-9.619-2.343c-6.321,0-11.438,2.16-15.351,6.477c-3.914,4.318-5.871,9.949-5.871,16.895
			c0,6.468,1.993,11.833,5.981,16.096c3.987,4.263,9.067,6.394,15.241,6.394c3.417,0,6.624-0.78,9.619-2.343
			c2.995-1.562,5.999-4.032,9.013-7.414v24.088c-3.492,1.691-6.964,2.958-10.418,3.803c-3.455,0.845-6.945,1.268-10.473,1.268
			c-4.41,0-8.48-0.524-12.21-1.571c-3.73-1.047-7.157-2.637-10.28-4.768c-6.027-4.042-10.62-9.131-13.78-15.269
			c-3.161-6.136-4.74-13.044-4.74-20.726c0-6.173,1-11.787,3.004-16.839c2.002-5.052,5.025-9.637,9.067-13.753
			c3.822-3.932,8.13-6.871,12.926-8.819c4.795-1.948,10.133-2.921,16.013-2.921c3.528,0,7.019,0.423,10.473,1.267
			C663.685,258.906,667.157,260.174,670.649,261.864z"/>
		<path style="fill:#FFFFFF;" d="M740.708,311.749c0,4.006-0.781,7.809-2.342,11.41c-1.563,3.602-3.831,6.835-6.808,9.701
			c-3.014,2.866-6.386,5.035-10.115,6.504c-3.73,1.469-7.689,2.205-11.879,2.205c-4.263,0-8.259-0.736-11.989-2.205
			c-3.731-1.469-7.065-3.638-10.004-6.504c-2.94-2.792-5.182-5.999-6.725-9.619c-1.544-3.619-2.315-7.45-2.315-11.493
			c0-4.079,0.762-7.918,2.287-11.521c1.524-3.601,3.776-6.835,6.753-9.701c2.902-2.829,6.219-4.961,9.949-6.395
			c3.729-1.433,7.745-2.149,12.044-2.149c4.3,0,8.305,0.716,12.017,2.149c3.711,1.434,7.037,3.565,9.977,6.395
			c3.013,2.903,5.292,6.155,6.835,9.756C739.936,303.885,740.708,307.707,740.708,311.749z M721.195,311.749
			c0-4.152-1.047-7.422-3.142-9.811c-2.095-2.389-4.925-3.583-8.489-3.583c-3.602,0-6.44,1.194-8.516,3.583
			c-2.077,2.389-3.114,5.659-3.114,9.811c0,4.153,1.028,7.414,3.086,9.784c2.058,2.37,4.906,3.555,8.544,3.555
			c3.601,0,6.44-1.185,8.517-3.555C720.157,319.163,721.195,315.902,721.195,311.749z"/>
		<path style="fill:#FFFFFF;" d="M752.559,339.42v-85.438h19.679v85.438H752.559z"/>
		<path style="fill:#FFFFFF;" d="M846.266,311.749c0,4.006-0.781,7.809-2.342,11.41c-1.563,3.602-3.831,6.835-6.808,9.701
			c-3.014,2.866-6.386,5.035-10.115,6.504c-3.73,1.469-7.69,2.205-11.879,2.205c-4.263,0-8.259-0.736-11.989-2.205
			c-3.731-1.469-7.065-3.638-10.004-6.504c-2.94-2.792-5.182-5.999-6.725-9.619c-1.543-3.619-2.315-7.45-2.315-11.493
			c0-4.079,0.762-7.918,2.288-11.521c1.524-3.601,3.776-6.835,6.752-9.701c2.902-2.829,6.219-4.961,9.949-6.395
			c3.729-1.433,7.745-2.149,12.044-2.149c4.3,0,8.305,0.716,12.017,2.149c3.711,1.434,7.037,3.565,9.977,6.395
			c3.013,2.903,5.292,6.155,6.835,9.756C845.494,303.885,846.266,307.707,846.266,311.749z M826.753,311.749
			c0-4.152-1.047-7.422-3.142-9.811c-2.095-2.389-4.925-3.583-8.489-3.583c-3.602,0-6.44,1.194-8.516,3.583
			c-2.077,2.389-3.114,5.659-3.114,9.811c0,4.153,1.028,7.414,3.086,9.784c2.058,2.37,4.906,3.555,8.544,3.555
			c3.601,0,6.44-1.185,8.517-3.555C825.714,319.163,826.753,315.902,826.753,311.749z"/>
		<path style="fill:#FFFFFF;" d="M857.676,339.42v-55.673h18.521v13.119c1.91-4.777,4.52-8.36,7.827-10.749
			c3.307-2.388,7.313-3.582,12.017-3.582c0.772,0,1.552,0.027,2.343,0.082c0.79,0.055,1.589,0.138,2.397,0.248l-1.874,17.859
			c-1.176-0.404-2.334-0.698-3.473-0.882c-1.14-0.184-2.242-0.276-3.307-0.276c-4.778,0-8.462,1.461-11.052,4.382
			c-2.591,2.921-3.886,7.065-3.886,12.43v23.041H857.676z"/>
		<path style="fill:#FFFFFF;" d="M956.345,339.42v-61.626h-18.08v-19.072h58.153v19.072h-18.08v61.626H956.345z"/>
		<path style="fill:#FFFFFF;" d="M1005.789,339.42v-85.438h19.293v29.986c0,1.984-0.055,3.822-0.166,5.512
			c-0.11,1.69-0.276,3.216-0.496,4.575c2.461-4.152,5.365-7.202,8.709-9.15c3.344-1.947,7.332-2.921,11.961-2.921
			c3.601,0,6.808,0.579,9.619,1.736c2.812,1.157,5.099,2.821,6.863,4.988c1.469,1.874,2.517,4.153,3.142,6.835
			c0.624,2.683,0.937,6.689,0.937,12.017v31.86h-19.679v-29.821c0-4.446-0.726-7.68-2.177-9.701
			c-1.452-2.02-3.776-3.032-6.973-3.032c-4.079,0-7.056,1.507-8.93,4.52c-1.874,3.014-2.811,7.901-2.811,14.662v23.372H1005.789z"/>
		<path style="fill:#FFFFFF;" d="M1137.199,315.497h-42.334c0.036,4.3,1.139,7.616,3.308,9.95c2.168,2.334,5.236,3.5,9.205,3.5
			c2.977,0,5.484-0.56,7.524-1.681c2.039-1.121,3.591-2.784,4.657-4.988l14.772,5.953c-1.764,4.263-4.888,7.551-9.37,9.867
			c-4.484,2.315-9.978,3.473-16.481,3.473c-9.701,0-17.483-2.691-23.344-8.076c-5.862-5.383-8.792-12.485-8.792-21.304
			c0-8.672,2.93-15.875,8.792-21.608c5.86-5.732,13.274-8.599,22.241-8.599c9.224,0,16.5,2.903,21.828,8.709
			c5.328,5.807,7.993,13.762,7.993,23.868V315.497z M1117.852,304.418c-0.368-3.16-1.571-5.696-3.611-7.607
			c-2.039-1.91-4.547-2.866-7.523-2.866c-3.197,0-5.742,0.873-7.635,2.618c-1.893,1.746-3.151,4.364-3.775,7.855H1117.852z"/>
		<path style="fill:#FFFFFF;" d="M1175.562,339.42l27.836-80.698h27.562l27.891,80.698h-21.883l-4.079-14.442h-31.254l-4.189,14.442
			H1175.562z M1206.374,309.269h21.884l-8.213-26.624c-0.258-0.808-0.606-2.112-1.048-3.914c-0.44-1.8-1.011-4.115-1.709-6.945
			c-0.478,1.984-0.946,3.877-1.405,5.678c-0.46,1.801-0.929,3.528-1.405,5.181L1206.374,309.269z"/>
		<path style="fill:#FFFFFF;" d="M1322.902,315.497h-42.334c0.036,4.3,1.139,7.616,3.308,9.95c2.168,2.334,5.236,3.5,9.205,3.5
			c2.977,0,5.484-0.56,7.524-1.681c2.039-1.121,3.591-2.784,4.657-4.988l14.772,5.953c-1.764,4.263-4.888,7.551-9.37,9.867
			c-4.484,2.315-9.978,3.473-16.481,3.473c-9.701,0-17.483-2.691-23.344-8.076c-5.862-5.383-8.792-12.485-8.792-21.304
			c0-8.672,2.93-15.875,8.792-21.608c5.86-5.732,13.274-8.599,22.241-8.599c9.224,0,16.5,2.903,21.828,8.709
			c5.328,5.807,7.993,13.762,7.993,23.868V315.497z M1303.555,304.418c-0.368-3.16-1.571-5.696-3.611-7.607
			c-2.039-1.91-4.547-2.866-7.523-2.866c-3.197,0-5.742,0.873-7.635,2.618c-1.893,1.746-3.151,4.364-3.775,7.855H1303.555z"/>
		<path style="fill:#FFFFFF;" d="M1334.257,339.42v-55.673h18.521v13.119c1.911-4.777,4.521-8.36,7.828-10.749
			c3.307-2.388,7.312-3.582,12.016-3.582c0.772,0,1.553,0.027,2.343,0.082c0.79,0.055,1.59,0.138,2.398,0.248l-1.874,17.859
			c-1.177-0.404-2.335-0.698-3.473-0.882c-1.14-0.184-2.242-0.276-3.308-0.276c-4.777,0-8.461,1.461-11.052,4.382
			c-2.591,2.921-3.887,7.065-3.887,12.43v23.041H1334.257z"/>
		<path style="fill:#FFFFFF;" d="M1443.618,311.749c0,4.006-0.781,7.809-2.343,11.41c-1.563,3.602-3.831,6.835-6.808,9.701
			c-3.013,2.866-6.385,5.035-10.114,6.504c-3.73,1.469-7.689,2.205-11.879,2.205c-4.264,0-8.26-0.736-11.989-2.205
			c-3.729-1.469-7.064-3.638-10.004-6.504c-2.94-2.792-5.182-5.999-6.725-9.619c-1.544-3.619-2.315-7.45-2.315-11.493
			c0-4.079,0.762-7.918,2.287-11.521c1.524-3.601,3.776-6.835,6.753-9.701c2.902-2.829,6.219-4.961,9.949-6.395
			c3.729-1.433,7.744-2.149,12.044-2.149s8.305,0.716,12.017,2.149c3.711,1.434,7.036,3.565,9.977,6.395
			c3.013,2.903,5.292,6.155,6.836,9.756C1442.847,303.885,1443.618,307.707,1443.618,311.749z M1424.105,311.749
			c0-4.152-1.048-7.422-3.142-9.811c-2.095-2.389-4.925-3.583-8.489-3.583c-3.602,0-6.44,1.194-8.517,3.583
			c-2.076,2.389-3.114,5.659-3.114,9.811c0,4.153,1.028,7.414,3.087,9.784c2.058,2.37,4.906,3.555,8.544,3.555
			c3.602,0,6.439-1.185,8.517-3.555C1423.066,319.163,1424.105,315.902,1424.105,311.749z"/>
		<path style="fill:#FFFFFF;" d="M1455.028,364.004v-80.257h18.08v9.371c2.498-3.748,5.31-6.541,8.434-8.378
			c3.123-1.837,6.596-2.756,10.418-2.756c7.827,0,14.056,2.673,18.687,8.02c4.63,5.347,6.945,12.595,6.945,21.746
			c0,8.894-2.307,16.087-6.918,21.58c-4.612,5.494-10.63,8.241-18.053,8.241c-4.704,0-8.535-0.864-11.492-2.591
			c-2.959-1.727-5.596-4.575-7.91-8.544c0.184,1.103,0.321,2.444,0.413,4.024c0.092,1.581,0.138,3.528,0.138,5.843v23.702H1455.028z
			 M1472.447,311.749c0,4.336,1.13,7.754,3.39,10.253c2.26,2.5,5.374,3.749,9.343,3.749s7.102-1.249,9.398-3.749
			c2.296-2.499,3.445-5.916,3.445-10.253c0-4.336-1.14-7.753-3.418-10.253c-2.278-2.499-5.421-3.748-9.426-3.748
			c-3.969,0-7.083,1.25-9.343,3.748C1473.577,303.996,1472.447,307.413,1472.447,311.749z"/>
		<path style="fill:#FFFFFF;" d="M1529.994,339.42v-85.438h19.678v85.438H1529.994z"/>
		<path style="fill:#FFFFFF;" d="M1624.362,283.747v55.673h-18.025v-9.04c-2.572,3.858-5.466,6.689-8.682,8.489
			c-3.216,1.8-6.991,2.701-11.327,2.701c-7.424,0-13.358-2.71-17.805-8.13c-4.446-5.421-6.669-12.687-6.669-21.801
			c0-9.076,2.323-16.289,6.973-21.635c4.648-5.347,10.904-8.02,18.769-8.02c4.189,0,7.8,0.891,10.831,2.673
			c3.032,1.783,5.632,4.529,7.8,8.241v-9.15H1624.362z M1607.108,311.528c0-4.335-1.157-7.772-3.473-10.308
			c-2.314-2.536-5.476-3.803-9.48-3.803c-4.006,0-7.157,1.259-9.453,3.776c-2.297,2.517-3.445,5.962-3.445,10.335
			c0,4.336,1.157,7.754,3.473,10.253c2.315,2.499,5.457,3.748,9.426,3.748c4.005,0,7.166-1.249,9.48-3.748
			C1605.951,319.283,1607.108,315.865,1607.108,311.528z"/>
		<path style="fill:#FFFFFF;" d="M1639.189,339.42v-55.673h17.97v11.3c2.609-4.52,5.622-7.827,9.04-9.922
			c3.418-2.094,7.515-3.142,12.292-3.142c3.602,0,6.808,0.579,9.619,1.736c2.811,1.157,5.099,2.821,6.862,4.988
			c1.47,1.874,2.517,4.153,3.142,6.835c0.625,2.683,0.938,6.689,0.938,12.017v31.86h-19.679v-29.821c0-4.446-0.726-7.68-2.177-9.701
			c-1.452-2.02-3.776-3.032-6.974-3.032c-4.078,0-7.055,1.507-8.93,4.52c-1.874,3.014-2.811,7.901-2.811,14.662v23.372H1639.189z"/>
		<path style="fill:#FFFFFF;" d="M1770.6,315.497h-42.334c0.036,4.3,1.139,7.616,3.308,9.95c2.168,2.334,5.236,3.5,9.205,3.5
			c2.977,0,5.484-0.56,7.524-1.681c2.039-1.121,3.591-2.784,4.657-4.988l14.772,5.953c-1.764,4.263-4.888,7.551-9.37,9.867
			c-4.484,2.315-9.978,3.473-16.481,3.473c-9.701,0-17.483-2.691-23.344-8.076c-5.862-5.383-8.792-12.485-8.792-21.304
			c0-8.672,2.93-15.875,8.792-21.608c5.86-5.732,13.274-8.599,22.241-8.599c9.224,0,16.5,2.903,21.828,8.709
			c5.328,5.807,7.993,13.762,7.993,23.868V315.497z M1751.252,304.418c-0.368-3.16-1.571-5.696-3.611-7.607
			c-2.039-1.91-4.547-2.866-7.523-2.866c-3.197,0-5.742,0.873-7.635,2.618c-1.893,1.746-3.151,4.364-3.775,7.855H1751.252z"/>
		<path style="fill:#FFFFFF;" d="M1776.662,334.79l4.079-14.993c2.866,2.499,6.018,4.419,9.454,5.76
			c3.436,1.342,6.898,2.012,10.39,2.012c2.462,0,4.336-0.395,5.623-1.185c1.285-0.79,1.929-1.938,1.929-3.445
			c0-2.461-2.591-4.299-7.771-5.512c-1.691-0.404-3.051-0.753-4.079-1.047c-5.88-1.616-10.152-3.739-12.816-6.366
			c-2.664-2.627-3.996-6.036-3.996-10.225c0-5.402,2.03-9.72,6.091-12.954c4.061-3.233,9.563-4.851,16.509-4.851
			c3.564,0,7.193,0.413,10.887,1.24c3.693,0.827,7.469,2.104,11.327,3.831l-4.078,13.504c-2.61-1.764-5.256-3.105-7.938-4.024
			c-2.684-0.918-5.366-1.378-8.048-1.378c-2.242,0-3.933,0.35-5.071,1.047c-1.14,0.699-1.709,1.709-1.709,3.032
			c0,1.984,2.571,3.657,7.717,5.016c1.176,0.331,2.058,0.57,2.646,0.716c6.798,1.948,11.528,4.236,14.193,6.863
			c2.664,2.628,3.996,6.183,3.996,10.666c0,5.696-2.187,10.299-6.56,13.808c-4.373,3.509-10.161,5.264-17.363,5.264
			c-4.888,0-9.426-0.561-13.614-1.681C1784.27,338.768,1780.337,337.069,1776.662,334.79z"/>
	</g>
</g>
</svg>
