<?xml version="1.0" encoding="utf-8"?>
<!-- Generator: Adobe Illustrator 27.5.0, SVG Export Plug-In . SVG Version: 6.00 Build 0)  -->
<svg xmlns="http://www.w3.org/2000/svg" xmlns:xlink="http://www.w3.org/1999/xlink" viewBox="0 0 500 500" width="595" height="842" preserveAspectRatio="xMidYMid meet" data-scaled="true">
<g id="BACKGROUND">
	<rect style="fill:#FFFFFF;" width="500" height="500"/>
</g>
<g id="OBJECTS">
	<g>
		<defs>
			<rect id="SVGID_1_" width="500" height="500"/>
		</defs>
		<clipPath id="SVGID_00000063607245872983423200000005913610058153725846_">
			<use xlink:href="#SVGID_1_"  style="overflow:visible;"/>
		</clipPath>
		<g style="clip-path:url(#SVGID_00000063607245872983423200000005913610058153725846_);">
			<g>
				<path style="fill:none;stroke:#000000;stroke-linecap:round;stroke-linejoin:round;stroke-miterlimit:10;" d="M463.71-4.36
					c-30.14,9.79-60.29,19.58-90.43,29.37"/>
				<path style="fill:none;stroke:#000000;stroke-linecap:round;stroke-linejoin:round;stroke-miterlimit:10;" d="M488.12-3.83
					c-28.04,19.9-56.08,39.8-84.13,59.69"/>
				<path style="fill:none;stroke:#000000;stroke-linecap:round;stroke-linejoin:round;stroke-miterlimit:10;" d="M505.33,7.1
					c-18.93,23.53-35.93,47.81-50.88,72.67"/>
				<path style="fill:none;stroke:#000000;stroke-linecap:round;stroke-linejoin:round;stroke-miterlimit:10;" d="M366.65-4.06
					c7.79,8.33,11.72,18.35,10.44,28.06c8.99,1.65,17.2,5.29,23.13,10.25s9.55,11.21,10.29,17.5c9.48,2.39,19.04,4.82,27.51,8.6
					s15.88,9.1,19.37,16.43c13.91-3.03,30.23,0.18,39.73,7.81"/>
				<path style="fill:none;stroke:#000000;stroke-linecap:round;stroke-linejoin:round;stroke-miterlimit:10;" d="M396.59-6.23
					c7.42,5.48,11.53,13.03,10.8,21.26c6.88,0.81,13.3,3.35,17.78,7.05c4.48,3.7,6.98,8.51,7.52,13.31
					c8.81,0.8,17.84,2.08,25.15,5.57c7.31,3.49,12.53,9.7,11.9,15.58c12.39-2.38,26.75,1.72,33.08,9.45"/>
				<path style="fill:none;stroke:#000000;stroke-linecap:round;stroke-linejoin:round;stroke-miterlimit:10;" d="M433.69-6.8
					c3.02,3.08,4.13,7.01,3.02,10.65c9.84,1.62,17.91,7.52,20.15,14.63c12.49-0.72,25.29,4.01,31.35,11.59
					c7.1-1.93,15.93-0.17,20.44,4.09"/>
				<path style="fill:none;stroke:#000000;stroke-linecap:round;stroke-linejoin:round;stroke-miterlimit:10;" d="M462.45-10.48
					c8.07,3.4,12.64,10.36,11.04,16.8c10.42-0.82,21.18,4.11,24.15,11.06"/>
			</g>
			<g>
				<path style="fill:none;stroke:#000000;stroke-linecap:round;stroke-linejoin:round;stroke-miterlimit:10;" d="M-2.92-11.84
					c8.89,13.9,17.78,27.81,26.67,41.71"/>
				<path style="fill:none;stroke:#000000;stroke-linecap:round;stroke-linejoin:round;stroke-miterlimit:10;" d="M16.67-11.66
					c22.55,14.13,45.1,28.25,67.65,42.38"/>
				<path style="fill:none;stroke:#000000;stroke-linecap:round;stroke-linejoin:round;stroke-miterlimit:10;" d="M71.84-10.79
					C88.02-3.96,104.2,2.86,120.38,9.69"/>
				<path style="fill:none;stroke:#000000;stroke-linecap:round;stroke-linejoin:round;stroke-miterlimit:10;" d="M-6.61,22.17
					C-1.15,40.18,4.32,58.19,9.78,76.21"/>
				<path style="fill:none;stroke:#000000;stroke-linecap:round;stroke-linejoin:round;stroke-miterlimit:10;" d="M121.43-5.01
					c-3.59,3.26-5.72,8.08-5.4,12.97c-13.88,0.02-27.49,7.8-35.28,20.87c-18.19-7.81-39.57-7.85-56.79,0.24
					C12.63,36.72,5.46,50.19,5.47,63.86c-4.63-2.14-10.56-1.03-14.1,2.64"/>
				<path style="fill:none;stroke:#000000;stroke-linecap:round;stroke-linejoin:round;stroke-miterlimit:10;" d="M113.89-10.45
					c-7.1,0.66-13.69,5.3-16.7,11.76C84.45,0.25,71.37,6.58,62.96,17.2c-13.37-9.03-32.88-7.58-44.77,3.33
					C9.25,18.44-0.82,23.31-4.74,31.61"/>
				<path style="fill:none;stroke:#000000;stroke-linecap:round;stroke-linejoin:round;stroke-miterlimit:10;" d="M-11.34,9.23
					C-4.91,5.4,3.21,4.55,10.29,6.97C15.41,0.55,23.4-3.49,31.6-3.78"/>
				<path style="fill:none;stroke:#000000;stroke-linecap:round;stroke-linejoin:round;stroke-miterlimit:10;" d="M81.24-8.5
					C67.42-9.22,53.4-4.56,42.77,4.29"/>
			</g>
		</g>
	</g>
	<g>
		<defs>
			<rect id="SVGID_00000052061660517206757920000007028317361423202237_" width="500" height="500"/>
		</defs>
		<clipPath id="SVGID_00000103261291724578951090000016218271491798406529_">
			<use xlink:href="#SVGID_00000052061660517206757920000007028317361423202237_"  style="overflow:visible;"/>
		</clipPath>
		<g style="clip-path:url(#SVGID_00000103261291724578951090000016218271491798406529_);">
			
				<rect x="96.9" y="51.8" style="fill:#FFFFFF;stroke:#000000;stroke-linecap:round;stroke-linejoin:round;stroke-miterlimit:10;" width="46" height="19"/>
			
				<rect x="73.9" y="75.8" style="fill:#FFFFFF;stroke:#000000;stroke-linecap:round;stroke-linejoin:round;stroke-miterlimit:10;" width="46" height="19"/>
			
				<rect x="96.9" y="99.8" style="fill:#FFFFFF;stroke:#000000;stroke-linecap:round;stroke-linejoin:round;stroke-miterlimit:10;" width="46" height="19"/>
			
				<rect x="-23" y="181.5" style="fill:#FFFFFF;stroke:#000000;stroke-linecap:round;stroke-linejoin:round;stroke-miterlimit:10;" width="46" height="19"/>
			
				<rect x="287" y="31.91" style="fill:#FFFFFF;stroke:#000000;stroke-linecap:round;stroke-linejoin:round;stroke-miterlimit:10;" width="46" height="19"/>
			
				<rect x="363" y="85.3" style="fill:#FFFFFF;stroke:#000000;stroke-linecap:round;stroke-linejoin:round;stroke-miterlimit:10;" width="46" height="19"/>
			
				<rect x="390" y="109.3" style="fill:#FFFFFF;stroke:#000000;stroke-linecap:round;stroke-linejoin:round;stroke-miterlimit:10;" width="46" height="19"/>
			
				<rect x="371" y="217.19" style="fill:#FFFFFF;stroke:#000000;stroke-linecap:round;stroke-linejoin:round;stroke-miterlimit:10;" width="46" height="19"/>
			
				<rect x="477" y="231" style="fill:#FFFFFF;stroke:#000000;stroke-linecap:round;stroke-linejoin:round;stroke-miterlimit:10;" width="46" height="19"/>
			
				<rect x="477" y="334" style="fill:#FFFFFF;stroke:#000000;stroke-linecap:round;stroke-linejoin:round;stroke-miterlimit:10;" width="46" height="19"/>
		</g>
	</g>
	<g>
		<defs>
			<rect id="SVGID_00000063619707022177539730000014641716859202211758_" width="500" height="500"/>
		</defs>
		<clipPath id="SVGID_00000119104718086436578970000007970673982846119838_">
			<use xlink:href="#SVGID_00000063619707022177539730000014641716859202211758_"  style="overflow:visible;"/>
		</clipPath>
		<g style="clip-path:url(#SVGID_00000119104718086436578970000007970673982846119838_);">
			
				<rect x="-18.69" y="424.56" style="fill:#FFFFFF;stroke:#000000;stroke-width:2;stroke-linecap:round;stroke-linejoin:round;stroke-miterlimit:10;" width="527.94" height="91"/>
		</g>
	</g>
	<g>
		<path style="fill:#FFFFFF;stroke:#000000;stroke-width:2;stroke-linecap:round;stroke-linejoin:round;stroke-miterlimit:10;" d="
			M438.4,342.22c-0.35-14.98-0.7-29.97-0.92-45.04c-0.11-7.5,1.3-14.95,4.21-21.87c7.01-16.67,10.46-34.95,10.69-53.48
			c0.07-5.55,1.17-11.05,3.31-16.18c2.84-6.82,5.92-13.76,9.79-21.16c8.23-1.91,17.48,3.45,19.8,10.53
			c-3.99,5.9-7.99,11.81-12.22,17.96c-3.71,5.39-6.11,11.56-7.17,18.01c-2.49,15.24-7.11,30.19-13.54,44.59
			c-3.01,6.75-4.71,14.02-4.85,21.42l-0.93,48.53C443.45,344.99,440.33,344.43,438.4,342.22z"/>
		<path style="fill:#FFFFFF;stroke:#000000;stroke-width:2;stroke-linecap:round;stroke-linejoin:round;stroke-miterlimit:10;" d="
			M431.18,356.24c-1.34-5.03-2.69-10.07-4.03-15.1c-0.35-1.31-0.7-2.67-0.5-4.01c0.2-1.34,1.12-2.67,2.45-2.92
			c1.33-0.25,2.83,1.07,2.42,2.36c0.19-2.33,2.4-4.3,4.73-4.24c2.33,0.06,4.43,2.15,4.5,4.48c0.69-1.9,3.05-2.99,4.94-2.29
			c1.89,0.7,2.97,3.07,2.25,4.96c0.88-1.73,3.33-2.43,4.99-1.41c1.65,1.01,2.15,3.52,1,5.09c0.5-1.19,2.24-1.49,3.3-0.76
			c1.06,0.74,1.46,2.18,1.28,3.46c-0.18,1.28-0.84,2.44-1.54,3.53c-2.38,3.71-5.36,7.04-8.77,9.82
			C443.74,356.14,438.02,354.93,431.18,356.24z"/>
		<path style="fill:#FFFFFF;stroke:#000000;stroke-width:2;stroke-linecap:round;stroke-linejoin:round;stroke-miterlimit:10;" d="
			M432.81,357.15c-10.12,23.43-20.23,46.86-30.35,70.29c-0.53,1.23-1.08,2.57-0.19,3.91c0.88,1.32,2.63,1.75,4.15,1.27
			c2.6-0.82,3.9-3.3,5.03-5.62c-1.56,2.74,1.27,6.44,4.45,6.47s5.87-2.63,6.87-5.61c-0.56,3.48,2.7,7.05,6.26,6.85
			c3.56-0.2,6.39-4.12,5.42-7.51c0.13,2.59,0.78,5.26,2.5,7.21c1.72,1.95,4.72,2.95,7.07,1.81c2.35-1.13,3.27-4.71,1.35-6.47
			c0.3,3.44,4.23,6.08,7.57,5.08s5.15-5.34,3.47-8.37c0.05,2.79,1.62,5.37,3.87,7.04c2.62,1.94,6.25-0.46,5.37-3.58l-20-71.44
			C440.57,358.7,435.42,357.62,432.81,357.15z"/>
		<g>
			<path style="fill:none;stroke:#000000;stroke-width:2;stroke-linecap:round;stroke-linejoin:round;stroke-miterlimit:10;" d="
				M436.4,357.32c-3.37,9.77-6.74,19.55-10.1,29.32"/>
			<path style="fill:none;stroke:#000000;stroke-width:2;stroke-linecap:round;stroke-linejoin:round;stroke-miterlimit:10;" d="
				M440.88,356.02c-1.03,16.97-2.07,33.95-3.1,50.92"/>
		</g>
		<path style="fill:#FFFFFF;stroke:#000000;stroke-width:2;stroke-linecap:round;stroke-linejoin:round;stroke-miterlimit:10;" d="
			M449.1,358.23c-2.94-5.24-9.7-7.98-15.46-6.28c-1.24,0.36-2.46,0.94-3.27,1.95c-0.81,1.01-1.08,2.52-0.37,3.6
			c0.87,1.34,2.77,1.51,4.34,1.22s3.14-0.9,4.71-0.62c1.23,0.22,2.3,0.97,3.28,1.75c0.98,0.78,1.94,1.63,3.09,2.11
			c1.16,0.48,2.59,0.53,3.58-0.24C449.99,360.94,449.82,359.51,449.1,358.23z"/>
	</g>
	<g>
		<defs>
			<rect id="SVGID_00000016075515315262924500000004938529576212363153_" width="500" height="500"/>
		</defs>
		<clipPath id="SVGID_00000016035357549078642400000000768098866392516007_">
			<use xlink:href="#SVGID_00000016075515315262924500000004938529576212363153_"  style="overflow:visible;"/>
		</clipPath>
		<g style="clip-path:url(#SVGID_00000016035357549078642400000000768098866392516007_);">
			<g>
				
					<path style="fill:#FFFFFF;stroke:#000000;stroke-width:2;stroke-linecap:round;stroke-linejoin:round;stroke-miterlimit:10;" d="
					M66,227.61c1.99-9.63-0.18-20.04-6.14-27.45c-2.21-0.82-4.8-0.52-6.77,0.77c-1.97,1.29-3.27,3.56-3.82,7.52
					c6.89,3.89,10.96,12.25,9.75,20.07C61.31,228.08,63.6,227.64,66,227.61z"/>
				
					<path style="fill:#FFFFFF;stroke:#000000;stroke-width:2;stroke-linecap:round;stroke-linejoin:round;stroke-miterlimit:10;" d="
					M15.24,280.36c0-24.58,16.42-57.67,47.26-57.67c33.88,0,47.26,33.09,47.26,57.67c0,24.58-21.16,28.04-47.26,28.04
					S15.24,304.94,15.24,280.36z"/>
				
					<path style="fill:#FFFFFF;stroke:#000000;stroke-width:2;stroke-linecap:round;stroke-linejoin:round;stroke-miterlimit:10;" d="
					M39.48,235.59c7.5,3.4,14.36,8.2,20.13,14.07c-3.77,4.93-11.35,6.43-16.72,3.32C37.53,249.85,35.08,242.52,39.48,235.59z"/>
				
					<path style="fill:#FFFFFF;stroke:#000000;stroke-width:2;stroke-linecap:round;stroke-linejoin:round;stroke-miterlimit:10;" d="
					M88.83,238.9c-7.21,2.31-14.02,5.84-19.85,10.72c1.8,3.74,5.7,6.38,9.84,6.66s8.36-1.82,10.64-5.28S91.99,242.83,88.83,238.9z"
					/>
				
					<path style="fill:#FFFFFF;stroke:#000000;stroke-width:2;stroke-linecap:round;stroke-linejoin:round;stroke-miterlimit:10;" d="
					M82.53,286.67c-3.05,2.02-6.44,3.45-9.98,4.3l0.07-7.3l-15.17,0.37l0.9,7.35c-4.43-0.78-8.69-2.43-12.42-4.95
					c-10.71-7.25-16.41-21.22-13.83-33.88c2.35,3.59,5.8,6.86,9.94,9.5l-1.87,5.08l11.56,4.97l1.63-4.98
					c3.42,0.98,7,1.55,10.61,1.61c3.92,0.07,7.83-0.46,11.6-1.52l0.64,4.51l12.06-3.48l-1.1-6.27c4.18-2.69,7.86-6.12,10.8-10.13
					C99.21,265.67,93.33,279.57,82.53,286.67z"/>
				
					<polyline style="fill:#FFFFFF;stroke:#000000;stroke-width:2;stroke-linecap:round;stroke-linejoin:round;stroke-miterlimit:10;" points="
					72.55,290.97 72.62,283.67 57.46,284.05 58.36,291.4 				"/>
				<g>
					<path style="fill:none;stroke:#000000;stroke-linecap:round;stroke-linejoin:round;stroke-miterlimit:10;" d="M63.14,222.94
						c1.99,13.75,2.8,27.67,2.42,41.56"/>
					<path style="fill:none;stroke:#000000;stroke-linecap:round;stroke-linejoin:round;stroke-miterlimit:10;" d="M67.94,223.27
						c7.87,2.18,14.88,7.3,19.34,14.13"/>
					<path style="fill:none;stroke:#000000;stroke-linecap:round;stroke-linejoin:round;stroke-miterlimit:10;" d="M92.66,305.01
						c6.39-8.32,8.54-19.74,5.61-29.82"/>
					<path style="fill:none;stroke:#000000;stroke-linecap:round;stroke-linejoin:round;stroke-miterlimit:10;" d="M60.24,222.83
						c-6.39,1.71-12.22,5.43-16.49,10.48"/>
					<path style="fill:none;stroke:#000000;stroke-linecap:round;stroke-linejoin:round;stroke-miterlimit:10;" d="M31.02,305.34
						c-6.35-10.07-7.41-23.27-2.76-34.23"/>
					<path style="fill:none;stroke:#000000;stroke-linecap:round;stroke-linejoin:round;stroke-miterlimit:10;" d="M65.05,307.24
						c1.38-5.12,1.75-10.51,1.07-15.76"/>
				</g>
			</g>
			<g>
				
					<polygon style="fill:#FFFFFF;stroke:#000000;stroke-width:2;stroke-linecap:round;stroke-linejoin:round;stroke-miterlimit:10;" points="
					109.71,332.46 109.71,437.46 82.71,437.46 82.71,429.46 -5.11,429.46 -5.11,332.46 				"/>
				
					<rect x="-5.111" y="343.461" style="fill:#FFFFFF;stroke:#000000;stroke-width:2;stroke-linecap:round;stroke-linejoin:round;stroke-miterlimit:10;" width="87.82" height="28"/>
				
					<rect x="-5.111" y="382.509" style="fill:#FFFFFF;stroke:#000000;stroke-width:2;stroke-linecap:round;stroke-linejoin:round;stroke-miterlimit:10;" width="87.82" height="28"/>
				
					<rect x="-5.1" y="305.46" style="fill:#FFFFFF;stroke:#000000;stroke-width:2;stroke-linecap:round;stroke-linejoin:round;stroke-miterlimit:10;" width="124" height="27"/>
				<polygon points="-5.1,332.46 -5.1,340.71 109.71,336.46 109.71,332.46 				"/>
			</g>
		</g>
	</g>
	<g>
		<g>
			<g>
				
					<path style="fill:#FFFFFF;stroke:#000000;stroke-width:2;stroke-linecap:round;stroke-linejoin:round;stroke-miterlimit:10;" d="
					M298.43,212.29c29.06-0.18,57.92-11.33,79.35-31.37c-24.78-14.38-54.95-19.2-82.98-13.26
					C296.2,183.11,296.69,198.64,298.43,212.29z"/>
				
					<path style="fill:#FFFFFF;stroke:#000000;stroke-width:2;stroke-linecap:round;stroke-linejoin:round;stroke-miterlimit:10;" d="
					M235.09,323.51c-22.35,9.05-49.47,6.84-69.83-5.69c-4.91-3.02-9.53-6.69-12.52-11.44c-2.99-4.75-4.18-10.72-2.12-15.88
					c-10.42-2.24-17.73-12.22-17.57-22.01c0.16-9.79,6.62-18.83,15.18-24.41c-6.02-4.34-8.55-10.48-7.82-16.35
					c1.11-8.89,8.77-15.63,15.94-21.52c7.17-5.89,14.84-12.62,15.96-21.51c44.94-6.45,88.98-13.05,132.73-21.06
					c11,9.98,15.89,25.09,14.2,41.67c6.53,7.49,9.52,17.61,8.02,27.19s-7.45,18.47-16.68,25.11c5.35,6.64,7.41,15.52,5.47,23.65
					c-1.94,8.12-7.84,15.34-18.58,20.11C285.13,317.29,263.11,326.07,235.09,323.51z"/>
				
					<path style="fill:#FFFFFF;stroke:#000000;stroke-width:2;stroke-linecap:round;stroke-linejoin:round;stroke-miterlimit:10;" d="
					M234.61,285.42c17.14,16.47,40.8,22.55,64.13,22.07c-1.18,18.46-1.07,37.38-1.07,52.54c-15.94,4.69-33.47-0.13-47.49-9.05
					c-14.02-8.92-25.16-21.61-36.09-34.13C218.58,307.84,223.06,298.83,234.61,285.42z"/>
				<g>
					<g>
						
							<path style="fill:#FFFFFF;stroke:#000000;stroke-width:2;stroke-linecap:round;stroke-linejoin:round;stroke-miterlimit:10;" d="
							M141.62,420.64c-4.57-0.98-9.6-0.12-15.15,3.44c5.68,12.43,15.05,25.52,25.57,34.25
							C156.61,450.06,157.96,437.65,141.62,420.64z"/>
						
							<path style="fill:#FFFFFF;stroke:#000000;stroke-width:2;stroke-linecap:round;stroke-linejoin:round;stroke-miterlimit:10;" d="
							M158.09,405.7c-5.14,5.21-10.69,10.03-17.06,15.27c2.06,6.58,6.4,12.43,12.1,16.3c8.2-3.74,16.06-8.25,23.43-13.44
							C169.76,417.64,163.31,411.07,158.09,405.7z"/>
					</g>
					<g>
						
							<path style="fill:#FFFFFF;stroke:#000000;stroke-width:2;stroke-linecap:round;stroke-linejoin:round;stroke-miterlimit:10;" d="
							M199.11,442.88c-3.5,3.09-5.81,7.64-6.23,14.23c13.37,2.83,29.46,3.07,42.74-0.19C231.67,448.31,222.5,439.85,199.11,442.88z"
							/>
						
							<path style="fill:#FFFFFF;stroke:#000000;stroke-width:2;stroke-linecap:round;stroke-linejoin:round;stroke-miterlimit:10;" d="
							M196.88,420.75c1.13,7.24,1.71,14.56,2.13,22.8c6.52,2.26,13.8,2.24,20.3-0.04c1.87-8.82,2.92-17.82,3.12-26.83
							C213.42,418.47,204.31,419.75,196.88,420.75z"/>
					</g>
				</g>
				<g>
					
						<path style="fill:#FFFFFF;stroke:#000000;stroke-width:2;stroke-linecap:round;stroke-linejoin:round;stroke-miterlimit:10;" d="
						M306.9,159.07c-48.71-0.57-88.62,3.18-127.04,12.85c0.1-9.57-0.01-19.14-0.32-28.72c-1.11-33.9-4.88-67.66-11.7-100.8
						c33.15,3.05,63.05,17.07,87.14,37.91c16.59,14.34,30.37,31.89,40.5,51.34C300.06,140.44,303.9,149.62,306.9,159.07z"/>
					
						<path style="fill:#FFFFFF;stroke:#000000;stroke-width:2;stroke-linecap:round;stroke-linejoin:round;stroke-miterlimit:10;" d="
						M306.9,159.07c-48.71-0.57-88.62,3.18-127.04,12.85c0.1-9.57-0.01-19.14-0.32-28.72c36.69-13.62,76.87-17.85,115.94-11.55
						C300.06,140.44,303.9,149.62,306.9,159.07z"/>
				</g>
				
					<path style="fill:#FFFFFF;stroke:#000000;stroke-width:2;stroke-linecap:round;stroke-linejoin:round;stroke-miterlimit:10;" d="
					M214.22,275.96c4.07-2.22,7.71-5.21,11.25-8.58c4.68,3.71,10.1,6.48,17.22,8.85c-3.2,4.57-5.84,9.53-8.66,16.39
					c-1.68,2.45-3.95,4.5-6.56,5.91C222.14,292.86,217.8,286.28,214.22,275.96z"/>
				<g>
					
						<path style="fill:#FFFFFF;stroke:#000000;stroke-width:2;stroke-linecap:round;stroke-linejoin:round;stroke-miterlimit:10;" d="
						M235.62,420.58c-8.77,2.95-17.53,5-26.17,6.15c-5.85,0.79-11.64,1.16-17.37,1.11c-10.53-0.07-20.81-1.52-30.71-4.36
						c-23.25-6.69-44.23-21.01-58.94-40.22c15.25-16.76,24.3-40.04,38.77-59.14c15.57-20.54,37.63-39.89,62.22-47.64l17.25,68.07
						C228.93,369.1,233.97,394.74,235.62,420.58z"/>
					
						<path style="fill:#FFFFFF;stroke:#000000;stroke-width:2;stroke-linecap:round;stroke-linejoin:round;stroke-miterlimit:10;" d="
						M213.48,333.23c-9.83-1.99-18.96-7.6-25.43-15.63s-10.24-18.43-11.03-28.87c-2.31,0.09-4.5,1.69-5.66,3.96
						c1.72,11.29,6.83,21.97,14.44,30.14c7.6,8.16,17.65,13.77,28.34,15.81C214,336.95,213.88,335.27,213.48,333.23z"/>
					
						<path style="fill:#FFFFFF;stroke:#000000;stroke-width:2;stroke-linecap:round;stroke-linejoin:round;stroke-miterlimit:10;" d="
						M209.45,426.73c-5.85,0.79-11.64,1.16-17.37,1.11c5.29-21.28,10.37-43.05,8.13-64.83
						C206.79,383.55,209.92,405.18,209.45,426.73z"/>
				</g>
				
					<path style="fill:#FFFFFF;stroke:#000000;stroke-width:2;stroke-linecap:round;stroke-linejoin:round;stroke-miterlimit:10;" d="
					M296.8,241.25c2.15,10.75-3.46,22.11-12.23,28.69c-8.77,6.58-20.17,8.88-31.13,8.48c-22.5-0.82-44.32-12.88-56.55-29.19
					c-3.82,2.38-8.74,2.7-13.03,1.33s-7.97-4.33-10.68-7.92c-1.97-2.6-3.51-5.81-2.99-9.03c0.76-4.75,6.06-7.84,10.86-7.33
					c4.79,0.5,8.89,3.82,12.74,7.42c4.86,0.12,9.74-1.56,13.49-4.65s6.34-7.56,7.86-12.16c6.82-1.65,13.01-5.77,17.18-11.43
					c4.16-5.65,6.26-12.79,5.82-19.78c13.53-6.52,27.7-10.16,41.7-10.89c2.18,8.48,8.1,16.16,16.54,20.2
					c-0.4,9.56,4.19,19.05,11.53,25.12C305.21,227.46,301.51,234.58,296.8,241.25z"/>
				<g>
					<g>
						
							<path style="fill:#FFFFFF;stroke:#000000;stroke-width:2;stroke-linecap:round;stroke-linejoin:round;stroke-miterlimit:10;" d="
							M317.83,296.32c-13.31,0.21-26.58,2.22-38.97,6.31c0.06,8.99,2.01,20.79,7.68,28.47c12.05-4.36,24.51-13.06,35.13-20.23"/>
						
							<path style="fill:#FFFFFF;stroke:#000000;stroke-width:2;stroke-linecap:round;stroke-linejoin:round;stroke-miterlimit:10;" d="
							M317.35,299.93c-0.74-1.56-1.5-3.21-1.36-4.93c0.14-1.72,1.54-3.47,3.26-3.33c1.81,0.15,2.83,2.1,3.51,3.79
							c1.55,3.83,3.1,7.7,3.85,11.77c0.25,1.35,0.4,2.76-0.01,4.07s-1.51,2.48-2.88,2.6c-1.25,0.1-2.44-0.7-3.15-1.74
							c-0.71-1.04-1.02-2.29-1.33-3.51"/>
					</g>
					
						<path style="fill:#FFFFFF;stroke:#000000;stroke-width:2;stroke-linecap:round;stroke-linejoin:round;stroke-miterlimit:10;" d="
						M294.15,327.89c-1.83-1.94-3.22-4.22-4.05-6.65c-0.28-0.81-0.49-1.71-0.12-2.5c0.68-1.43,3.01-1.68,4.51-0.88
						c1.5,0.8,2.35,2.26,3.12,3.66c-0.8-0.92-1.62-1.87-2-2.99c-0.38-1.12-0.22-2.46,0.73-3.26c1.17-0.99,3.15-0.82,4.49-0.01
						c1.34,0.81,2.19,2.1,2.99,3.35c-0.87-1.01-1.77-2.07-2.09-3.31c-0.32-1.25,0.12-2.74,1.37-3.35c1.21-0.59,2.8-0.17,3.81,0.67
						c1.01,0.84,1.59,2,2.15,3.13c-0.66-1.08-1.34-2.2-1.42-3.43c-0.08-1.23,0.61-2.59,1.93-2.96c1.74-0.5,3.44,0.89,4.36,2.29
						c2.23,3.39,2.6,7.7,0.98,11.35c-1.62,3.65-5.19,6.58-9.42,7.71C301.47,331.78,296.75,330.64,294.15,327.89z"/>
				</g>
				
					<path style="fill:#FFFFFF;stroke:#000000;stroke-width:2;stroke-linecap:round;stroke-linejoin:round;stroke-miterlimit:10;" d="
					M118.6,196.64c15.3,13.59,37.12,17.97,57.48,15.94s39.68-9.78,58.41-18.02c18.73-8.24,37.39-17.1,57.36-21.56
					c28.52-6.37,59.08-3.26,85.35,7.52c-39.22-24.02-85.87-35.69-131.78-32.96C199.52,150.29,154.57,167.4,118.6,196.64z"/>
				<g>
					<g>
						
							<path style="fill:#FFFFFF;stroke:#000000;stroke-width:2;stroke-linecap:round;stroke-linejoin:round;stroke-miterlimit:10;" d="
							M265.58,314.23c3.26-4.88,6.76-9.97,12.01-12.6c1.13-0.56,2.7-0.91,3.49,0.07c0.61,0.76,0.35,1.89-0.11,2.74
							s-1.13,1.63-1.07,3.1c2.63,3.76,4.06,8.35,3.84,12.83c-3.71,6.75-10.68,11.62-18.3,12.79
							C265.13,327.36,261.49,320.36,265.58,314.23z"/>
						
							<path style="fill:#FFFFFF;stroke:#000000;stroke-width:2;stroke-linecap:round;stroke-linejoin:round;stroke-miterlimit:10;" d="
							M274.86,308.74c2.02-2.53,4.98-4.28,8.17-4.83c0.8-0.14,1.73-0.16,2.31,0.41c0.47,0.48,0.54,1.25,0.34,1.89
							c-0.21,0.64-0.64,1.18-1.08,1.69c-1.43,1.65-3.02,3.15-4.75,4.49"/>
						
							<path style="fill:#FFFFFF;stroke:#000000;stroke-width:2;stroke-linecap:round;stroke-linejoin:round;stroke-miterlimit:10;" d="
							M277.22,311.97c1.92-1.67,4.41-2.67,6.95-2.78c0.5-0.02,1.02-0.01,1.5,0.17c0.47,0.18,0.9,0.55,1.03,1.04
							c0.19,0.7-0.25,1.41-0.7,1.98c-1.07,1.37-2.31,2.6-3.69,3.66"/>
						
							<path style="fill:#FFFFFF;stroke:#000000;stroke-width:2;stroke-linecap:round;stroke-linejoin:round;stroke-miterlimit:10;" d="
							M278.87,316.35c2.03-1.45,4.43-2.35,6.91-2.6c1.02-0.1,2.25,0.01,2.77,0.91c0.31,0.54,0.25,1.24-0.02,1.8
							s-0.72,1.02-1.17,1.45c-1.49,1.41-3.13,2.64-4.77,3.87"/>
					</g>
					
						<path style="fill:#FFFFFF;stroke:#000000;stroke-width:2;stroke-linecap:round;stroke-linejoin:round;stroke-miterlimit:10;" d="
						M193.73,280.84c8.84-10.32,20.74-13.06,25.24-6.21c10.96,16.72,28.13,31.15,48.58,33.74c1.1,19.27-0.69,41.63-3.69,61.11
						c-17.31-0.73-34.25-8.25-46.44-20.62c-12.19-12.37-19.51-29.46-20.07-46.86"/>
				</g>
				<path style="fill:none;stroke:#000000;stroke-width:2;stroke-linecap:round;stroke-linejoin:round;stroke-miterlimit:10;" d="
					M176.56,234.96c6.33-0.9,12.99,3.33,14.88,9.43"/>
				<path style="fill:none;stroke:#000000;stroke-width:2;stroke-linecap:round;stroke-linejoin:round;stroke-miterlimit:10;" d="
					M181.8,243.82c-0.05-2.75,1.83-5.43,4.44-6.33"/>
				<g>
					<g>
						<path d="M234.581,239.162c0.693-3.449,3.049-5.884,5.264-5.44c2.215,0.445,3.448,3.601,2.756,7.05
							c-0.693,3.449-3.049,5.885-5.264,5.44C235.122,245.768,233.889,242.612,234.581,239.162z"/>
						<path style="fill:#FFFFFF;" d="M238.571,237.652c0.246-1.224,1.239-2.056,2.219-1.859c0.98,0.197,1.575,1.348,1.329,2.572
							c-0.246,1.224-1.24,2.056-2.219,1.859C238.92,240.028,238.325,238.876,238.571,237.652z"/>
					</g>
					<g>
						<path d="M276.784,238.552c1.221-3.299,3.928-5.338,6.047-4.554c2.118,0.784,2.846,4.094,1.625,7.393
							c-1.221,3.299-3.928,5.338-6.047,4.554C276.291,245.161,275.563,241.851,276.784,238.552z"/>
						<path style="fill:#FFFFFF;" d="M280.96,237.694c0.433-1.171,1.544-1.838,2.482-1.491c0.938,0.347,1.346,1.577,0.913,2.748
							c-0.433,1.171-1.544,1.838-2.482,1.491C280.935,240.094,280.526,238.864,280.96,237.694z"/>
					</g>
					<path style="fill:none;stroke:#000000;stroke-width:2;stroke-linecap:round;stroke-linejoin:round;stroke-miterlimit:10;" d="
						M224.99,218.24c4.04-4.74,11.13-6.59,16.97-4.44"/>
					<path style="fill:none;stroke:#000000;stroke-width:2;stroke-linecap:round;stroke-linejoin:round;stroke-miterlimit:10;" d="
						M280.11,211.89c4.94-3.6,12.59-2.66,16.52,2.01"/>
					
						<path style="fill:#FFFFFF;stroke:#000000;stroke-width:2;stroke-linecap:round;stroke-linejoin:round;stroke-miterlimit:10;" d="
						M267.63,253.78c-8.19,0.64-16.53-0.63-23.81-3.13c-1.83,2.49-1.83,6.04-0.42,8.79c1.41,2.75,4.04,4.74,6.92,5.86
						c3.9,1.52,8.49,1.54,12.17-0.47C266.17,262.82,268.73,258.68,267.63,253.78z"/>
					<path style="fill:none;stroke:#000000;stroke-width:2;stroke-linecap:round;stroke-linejoin:round;stroke-miterlimit:10;" d="
						M264.22,240.62c1.21,0.36,2.18,1.56,2.35,2.91c0.17,1.35-0.46,2.79-1.54,3.49"/>
				</g>
			</g>
			<path style="fill:#FFFFFF;stroke:#000000;stroke-width:2;stroke-linecap:round;stroke-linejoin:round;stroke-miterlimit:10;" d="
				M323.58,329.74c0-5.26,5.7-12.63,5.7-12.63s5.7,7.37,5.7,12.63c0,5.26-2.55,8.28-5.7,8.28
				C326.13,338.03,323.58,335,323.58,329.74z"/>
		</g>
		<g>
			<g>
				
					<path style="fill:#FFFFFF;stroke:#000000;stroke-width:2;stroke-linecap:round;stroke-linejoin:round;stroke-miterlimit:10;" d="
					M281.94,432.4c0,0-9.13,24.66-0.74,28.86c7.23,3.62,21.99-18.31,21.99-18.31"/>
				
					<path style="fill:#FFFFFF;stroke:#000000;stroke-width:2;stroke-linecap:round;stroke-linejoin:round;stroke-miterlimit:10;" d="
					M378.89,432.4c0,0,9.13,24.66,0.74,28.86c-7.23,3.62-21.99-18.31-21.99-18.31"/>
				
					<path style="fill:#FFFFFF;stroke:#000000;stroke-width:2;stroke-linecap:round;stroke-linejoin:round;stroke-miterlimit:10;" d="
					M263.98,407.12c1.67-32.5,19.97-58.25,64.16-58.25c51.61,0,68.35,22.85,69.87,58.25c1.25,29.19-30,41.08-67.02,41.08
					S262.48,436.29,263.98,407.12z"/>
				
					<path style="fill:#FFFFFF;stroke:#000000;stroke-width:2;stroke-linecap:round;stroke-linejoin:round;stroke-miterlimit:10;" d="
					M299.98,374.3c-16.49-1.9-29.4-6.21-26.98-15.7c2.32-9.1,25.96-13.78,57.99-13.78s55.46,4.53,57.99,13.78
					c2.78,10.21-13.32,14.64-34.03,16.28"/>
				
					<path style="fill:#FFFFFF;stroke:#000000;stroke-width:2;stroke-linecap:round;stroke-linejoin:round;stroke-miterlimit:10;" d="
					M363.8,351.04c9.16,1.42,14.87,3.44,14.87,5.67c0,4.32-21.34,7.82-47.66,7.82c-26.32,0-47.66-3.5-47.66-7.82
					c0-3.04,10.55-5.67,25.96-6.96"/>
				<path style="fill:none;stroke:#000000;stroke-width:2;stroke-linecap:round;stroke-linejoin:round;stroke-miterlimit:10;" d="
					M289.08,359.94c26.16-7.36,54.44-7.01,80.41,1"/>
				
					<path style="fill:#FFFFFF;stroke:#000000;stroke-width:2;stroke-linecap:round;stroke-linejoin:round;stroke-miterlimit:10;" d="
					M318.77,443.02c0,0,2.87,21.56,12.23,21.56c8.06,0,11.42-21.64,11.42-21.64"/>
				
					<path style="fill:#FFFFFF;stroke:#000000;stroke-width:2;stroke-linecap:round;stroke-linejoin:round;stroke-miterlimit:10;" d="
					M338.53,358.19c-0.38-2.1,0.43-4.33,1.9-5.88s3.53-2.47,5.64-2.8c3-0.46,6.23,0.29,8.49,2.31c2.26,2.02,3.39,5.34,2.49,8.24"/>
				
					<path style="fill:#FFFFFF;stroke:#000000;stroke-width:2;stroke-linecap:round;stroke-linejoin:round;stroke-miterlimit:10;" d="
					M321.65,357.85c-0.4-2.6-2.19-4.95-4.59-6.03c-2.4-1.08-5.34-0.87-7.56,0.54c-2.22,1.41-3.65,3.99-3.68,6.62"/>
			</g>
			<g>
				
					<circle style="fill:#FFFFFF;stroke:#000000;stroke-width:2;stroke-linecap:round;stroke-linejoin:round;stroke-miterlimit:10;" cx="353.31" cy="333.56" r="7.49"/>
				
					<circle style="fill:#FFFFFF;stroke:#000000;stroke-width:2;stroke-linecap:round;stroke-linejoin:round;stroke-miterlimit:10;" cx="363.93" cy="308.48" r="6.3"/>
				
					<circle style="fill:#FFFFFF;stroke:#000000;stroke-width:2;stroke-linecap:round;stroke-linejoin:round;stroke-miterlimit:10;" cx="357.64" cy="276.66" r="10.25"/>
			</g>
		</g>
	</g>
</g>
</svg>
