<?xml version="1.0" encoding="utf-8"?>
<!-- Generator: Adobe Illustrator 27.5.0, SVG Export Plug-In . SVG Version: 6.00 Build 0)  -->
<svg xmlns="http://www.w3.org/2000/svg" xmlns:xlink="http://www.w3.org/1999/xlink" viewBox="0 0 2663 4000" width="595" height="842" preserveAspectRatio="xMidYMid meet" data-scaled="true">
<g id="Background">
	<rect style="fill:#FFFFFF;" width="2663" height="4000"/>
</g>
<g id="Object">
	<g>
		<path d="M2270.173,1038.143c-1.369-180.699-58.812-352.547-189.531-481.009c-3.085-2.969-6.208-5.92-9.371-8.812
			c-3.143-2.912-6.344-5.785-9.564-8.6c-3.22-2.835-6.479-5.611-9.777-8.369c-3.297-2.738-6.633-5.438-9.988-8.118
			c-3.355-2.661-6.749-5.283-10.181-7.867c-3.413-2.565-6.884-5.11-10.374-7.617c-3.471-2.488-6.999-4.937-10.547-7.347
			c-3.548-2.41-7.135-4.782-10.741-7.096c-3.606-2.333-7.231-4.609-10.895-6.826c-3.664-2.237-7.347-4.435-11.068-6.576
			c-3.722-2.14-7.462-4.223-11.223-6.286c-3.76-2.044-7.559-4.049-11.377-5.997c-3.818-1.967-7.655-3.876-11.512-5.727
			c-3.876-1.87-7.752-3.683-11.666-5.457c-3.915-1.755-7.829-3.471-11.781-5.148c-3.953-1.659-7.925-3.297-11.917-4.859
			c-3.991-1.581-8.002-3.105-12.032-4.57c-4.03-1.466-8.06-2.892-12.129-4.281c-4.069-1.369-8.138-2.699-12.245-3.972
			c-4.088-1.273-8.195-2.487-12.322-3.664c-4.126-1.176-8.272-2.295-12.418-3.374c-4.165-1.061-8.33-2.083-12.495-3.047
			c-4.184-0.964-8.368-1.89-12.572-2.758c-4.204-0.868-8.407-1.677-12.63-2.449c-4.223-0.752-8.446-1.466-12.688-2.121
			c-4.243-0.656-8.485-1.273-12.746-1.832c-4.242-0.54-8.504-1.041-12.765-1.504c-4.281-0.443-8.543-0.849-12.823-1.176
			c-4.261-0.347-8.542-0.636-12.823-0.887c-4.281-0.232-8.581-0.424-12.862-0.559c-4.28-0.135-8.581-0.212-12.861-0.251
			c-4.281-0.019-8.581,0-12.862,0.077c-31.18,0.289-62.978,2.449-93.81,7.154c-21.192,3.24-42.21,8.446-63.132,13.112
			c-50.733,11.03-100.984,23.969-150.753,38.759c7.598-67.027,27.922-123.815,65.542-179.947
			c11.3-16.872,23.853-33.938,38.296-48.246c10.393-10.297,36.811-28.538,41.94-40.86c8.002-19.283-5.303-40.339-17.027-54.937
			c-16.159-20.112-52.083-53.857-78.79-57.077c-10.875-1.292-18.897,3.317-26.938,10.027
			c-64.848,54.204-107.83,129.426-136.445,207.849c-6.344,17.393-13.517,35.557-16.853,53.799
			c-14.057-26.36-30.101-53.413-49.017-76.61c-63.73-78.153-171.327-146.299-267.491-175.628
			c-37.235-11.357-97.976-24.316-136.541-22.696c-9.834,1.523-17.451,4.782-23.699,12.939c-17.663,23.082-8.639,72.079-4.396,99.094
			c0.79,4.956,1.658,9.911,2.584,14.848c0.945,4.936,1.948,9.854,3.027,14.77c1.061,4.898,2.218,9.796,3.433,14.674
			s2.488,9.738,3.837,14.578c1.35,4.84,2.777,9.66,4.262,14.462c1.484,4.801,3.046,9.583,4.666,14.327
			c1.638,4.763,3.316,9.487,5.09,14.192c1.755,4.724,3.586,9.391,5.476,14.057c1.89,4.647,3.837,9.275,5.862,13.884
			c2.025,4.589,4.126,9.159,6.267,13.71c2.16,4.532,4.377,9.044,6.672,13.517c2.275,4.493,4.628,8.928,7.019,13.344
			c2.41,4.416,4.897,8.773,7.424,13.112c2.526,4.358,5.129,8.658,7.79,12.92c2.642,4.261,5.361,8.504,8.137,12.688
			c2.777,4.184,5.612,8.33,8.504,12.437c-14.347,1.196-28.732,2.256-42.904,4.898c-109.892,20.556-215.929,84.285-287.988,169.342
			c-125.435,148.091-167.355,339.589-151.39,530.141c20.363,243.233,137.717,488.741,325.32,647.034
			c130.506,110.104,278.675,162.399,449.771,147.841c53.857-4.57,109.912-16.873,159.334-39.028
			c27.593,8.813,55.11,18.396,83.359,25.01c143.637,33.61,274.162,15.446,405.016-52.121c8.021-4.242,15.946-8.639,23.814-13.189
			c7.848-4.551,15.6-9.256,23.274-14.115c7.655-4.859,15.234-9.854,22.696-15.021c7.482-5.148,14.828-10.451,22.098-15.889
			c7.25-5.457,14.404-11.03,21.442-16.757c7.058-5.727,13.98-11.589,20.787-17.586c6.806-6.016,13.498-12.148,20.054-18.396
			c6.575-6.267,13.016-12.669,19.341-19.167c27.266-27.632,54.05-57.27,77.575-88.199
			C2194.431,1469.422,2271.735,1243.717,2270.173,1038.143z M1290.165,428.692c3.529-26.109,10.644-51.331,18.473-76.437
			c26.167-83.976,69.534-173.313,141.073-227.729c26.706,11.03,48.38,36.984,65.773,59.198c-9.738,7-18.878,14.713-27.381,23.178
			c-23.525,23.679-46.395,50.926-63.807,79.445c-33.031,54.146-57.463,131.701-57.347,195.547l-33.899,12.784
			c-16.506,5.65-32.28,13.479-48.053,20.883C1284.766,486.483,1286.501,457.539,1290.165,428.692z M817.988,121.903
			c104.378,8.581,191.748,38.488,277.093,99.229c24.161,17.181,47.918,35.712,68.589,57.058
			c11.068,11.415,22.329,23.255,32.028,35.905c15.754,20.555,54.609,82.183,57.926,105.92c1.311,9.429-3.162,34.709-3.355,47.146
			l-0.25,0.79c-0.405,0.367-0.675,0.926-1.196,1.119c-0.636,0.231-31.392-11.763-35.094-13.035
			c-95.392-32.781-192.789-44.948-293.272-41.458c-14.346-17.509-25.665-36.657-36.579-56.422
			C844.019,286.077,818.759,204.684,817.988,121.903z M2164.195,1386.95c-62.013,153.741-162.843,300.445-302.123,393.889
			c-15.581,10.47-31.99,19.649-48.399,28.731c-18.531,10.278-37.467,20.44-57,28.712c-91.111,38.566-184.382,52.353-282.377,36.522
			c-36.29-5.843-70.112-14.501-104.185-28.365c62.785-30.023,153.433-89.434,196.511-144.139
			c-10.663,6.537-20.517,14.635-30.621,22.021c-11.685,8.504-23.641,16.603-35.885,24.297c-8.6,5.534-17.258,10.895-26.032,16.139
			c-8.754,5.245-17.605,10.336-26.533,15.272c-8.928,4.955-17.933,9.757-27.035,14.404c-9.082,4.647-18.241,9.159-27.478,13.498
			c-9.217,4.358-18.531,8.561-27.902,12.61c-9.372,4.05-18.801,7.945-28.307,11.686c-9.487,3.722-19.052,7.308-28.674,10.741
			c-9.603,3.432-19.283,6.691-29.001,9.815c-3.394,1.099-6.788,2.159-10.201,3.182c-3.413,1.041-6.826,2.044-10.258,3.008
			c-3.432,0.964-6.865,1.89-10.316,2.796c-3.452,0.887-6.903,1.755-10.374,2.584c-3.471,0.829-6.942,1.619-10.432,2.391
			c-3.471,0.752-6.961,1.484-10.451,2.179c-3.51,0.694-7,1.35-10.509,1.967c-3.51,0.636-7.038,1.215-10.548,1.774
			c-3.529,0.559-7.058,1.079-10.587,1.562c-3.528,0.482-7.057,0.945-10.605,1.35c-3.528,0.425-7.077,0.791-10.624,1.138
			c-3.548,0.347-7.096,0.656-10.644,0.945c-3.548,0.27-7.115,0.521-10.663,0.714c-3.567,0.212-7.135,0.385-10.683,0.521
			c-3.568,0.135-7.135,0.231-10.683,0.308c-3.567,0.058-7.135,0.096-10.702,0.077c-3.567,0-7.135-0.039-10.683-0.116
			c-3.567-0.077-7.135-0.174-10.702-0.328c-3.548-0.135-7.115-0.308-10.663-0.54c-3.568-0.212-7.116-0.463-10.664-0.733
			c-3.568-0.289-7.115-0.617-10.663-0.964c-3.529-0.347-7.077-0.733-10.625-1.157c-3.529-0.425-7.057-0.887-10.606-1.389
			c-3.529-0.482-7.038-1.022-10.567-1.581c-3.51-0.559-7.038-1.157-10.528-1.794c-3.51-0.636-7.019-1.292-10.51-1.986
			c-3.49-0.714-6.98-1.446-10.47-2.218c-3.471-0.771-6.941-1.562-10.412-2.41c-3.452-0.829-6.923-1.697-10.355-2.603
			c-3.452-0.907-6.903-1.851-10.316-2.815c-3.432-0.984-6.846-1.987-10.259-3.028c-3.413-1.041-6.807-2.121-10.201-3.22
			c-33.05-11.088-64.867-26.089-95.777-42.094c-51.176-27.574-95.874-62.554-137.737-102.719
			c-80.39-77.131-137.178-160.047-186.137-259.778c-94.948-193.445-124.315-437.314-53.644-643.119
			c44.562-129.754,135.52-245.007,260.067-305.709c82.395-40.166,161.84-50.097,252.45-47.185
			c39.664,1.292,80.081,4.782,118.975,12.919c26.321,5.495,53.182,11.878,78.847,19.881c23.834,7.424,47.378,16.333,71.019,24.45
			l1.639,21.713c-5.765,2.719-11.492,5.553-17.181,8.446c-5.688,2.912-11.319,5.9-16.911,8.967
			c-5.592,3.066-11.145,6.209-16.66,9.448c-5.495,3.24-10.953,6.557-16.352,9.95c-5.419,3.393-10.76,6.865-16.063,10.412
			c-5.303,3.548-10.567,7.173-15.754,10.876c-5.206,3.702-10.336,7.501-15.426,11.358c-5.091,3.856-10.104,7.79-15.079,11.782
			c-4.975,4.011-9.872,8.08-14.732,12.245c-4.84,4.146-9.641,8.369-14.366,12.65c-4.725,4.3-9.372,8.658-13.98,13.074
			c-4.59,4.435-9.121,8.928-13.594,13.498c-4.454,4.55-8.851,9.179-13.19,13.884c-4.319,4.685-8.581,9.429-12.765,14.25
			c-4.185,4.821-8.311,9.699-12.341,14.635c-4.049,4.936-8.021,9.931-11.917,14.983c-8.253,10.741-16.699,21.288-24.181,32.588
			c156.171-142.635,326.573-230.236,532.205-278.732c32.164-7.598,64.366-16.159,97.108-21.038
			c25.781-3.837,51.581-4.956,77.613-5.65c64.636-2.758,132.588,7.424,192.75,31.604
			c138.257,55.573,232.685,157.945,290.668,294.062c13.556,31.836,22.715,64.54,30.602,98.169
			C2252.896,1043.234,2229.448,1225.167,2164.195,1386.95z"/>
	</g>
	<g>
		<path d="M2272.539,3035.92c-1.372-181.154-58.961-353.435-190.008-482.221c-3.093-2.977-6.224-5.935-9.395-8.834
			c-3.151-2.919-6.36-5.8-9.588-8.622c-3.228-2.842-6.496-5.625-9.801-8.39c-3.306-2.745-6.65-5.452-10.014-8.139
			c-3.364-2.668-6.766-5.297-10.207-7.887c-3.422-2.571-6.901-5.123-10.401-7.636c-3.479-2.494-7.017-4.949-10.574-7.365
			c-3.557-2.417-7.153-4.794-10.768-7.114c-3.615-2.339-7.249-4.62-10.922-6.843c-3.673-2.242-7.365-4.446-11.096-6.592
			c-3.731-2.146-7.481-4.234-11.251-6.302c-3.769-2.049-7.578-4.06-11.405-6.012c-3.828-1.972-7.674-3.885-11.541-5.741
			c-3.886-1.875-7.771-3.692-11.696-5.471c-3.924-1.759-7.849-3.479-11.811-5.161c-3.963-1.663-7.945-3.306-11.947-4.872
			c-4.001-1.585-8.022-3.112-12.063-4.582c-4.04-1.469-8.08-2.9-12.159-4.292c-4.079-1.373-8.158-2.706-12.276-3.982
			c-4.099-1.276-8.216-2.494-12.353-3.673c-4.137-1.179-8.293-2.3-12.449-3.383c-4.175-1.063-8.351-2.088-12.527-3.054
			c-4.195-0.967-8.39-1.895-12.604-2.765c-4.214-0.87-8.428-1.682-12.662-2.455c-4.234-0.754-8.467-1.469-12.72-2.126
			c-4.253-0.657-8.506-1.276-12.778-1.837c-4.253-0.541-8.525-1.044-12.797-1.508c-4.292-0.445-8.564-0.851-12.856-1.179
			c-4.272-0.348-8.564-0.638-12.855-0.889c-4.292-0.232-8.602-0.425-12.894-0.561c-4.291-0.135-8.602-0.212-12.894-0.251
			c-4.292-0.019-8.602,0-12.894,0.077c-31.259,0.29-63.137,2.455-94.047,7.172c-21.246,3.248-42.317,8.467-63.291,13.145
			c-50.861,11.058-101.238,24.029-151.133,38.856c7.617-67.196,27.992-124.127,65.707-180.401
			c11.328-16.915,23.913-34.023,38.392-48.367c10.419-10.323,36.904-28.61,42.046-40.963c8.022-19.332-5.316-40.441-17.07-55.075
			c-16.2-20.163-52.214-53.992-78.988-57.221c-10.903-1.295-18.944,3.325-27.005,10.052
			c-65.012,54.341-108.101,129.752-136.789,208.373c-6.36,17.437-13.551,35.647-16.895,53.935
			c-14.093-26.426-30.177-53.548-49.141-76.803c-63.89-78.35-171.759-146.667-268.165-176.07
			c-37.329-11.386-98.223-24.377-136.886-22.753c-9.859,1.527-17.495,4.794-23.758,12.971c-17.708,23.14-8.66,72.261-4.407,99.344
			c0.792,4.968,1.662,9.936,2.59,14.885c0.948,4.949,1.953,9.878,3.035,14.808c1.064,4.91,2.224,9.821,3.442,14.711
			c1.218,4.891,2.494,9.762,3.846,14.615c1.354,4.852,2.784,9.685,4.273,14.499c1.488,4.813,3.054,9.608,4.678,14.363
			c1.642,4.775,3.324,9.511,5.103,14.228c1.759,4.736,3.595,9.414,5.49,14.092c1.895,4.659,3.847,9.299,5.877,13.919
			c2.03,4.601,4.137,9.182,6.283,13.744c2.165,4.543,4.388,9.066,6.688,13.552c2.281,4.504,4.64,8.95,7.037,13.377
			c2.416,4.427,4.91,8.795,7.442,13.145c2.533,4.369,5.143,8.68,7.81,12.952c2.649,4.272,5.374,8.525,8.158,12.72
			c2.784,4.195,5.626,8.351,8.525,12.469c-14.383,1.199-28.804,2.262-43.012,4.91c-110.169,20.607-216.473,84.498-288.714,169.768
			c-125.751,148.465-167.777,340.445-151.771,531.478c20.414,243.846,138.065,489.973,326.14,648.665
			c130.835,110.382,279.377,162.809,450.905,148.214c53.993-4.581,110.189-16.915,159.735-39.127
			c27.663,8.834,55.249,18.442,83.569,25.073c143.999,33.695,274.854,15.484,406.036-52.253c8.042-4.253,15.987-8.66,23.874-13.222
			c7.868-4.562,15.639-9.279,23.333-14.151c7.675-4.872,15.272-9.878,22.753-15.059c7.501-5.161,14.866-10.478,22.154-15.929
			c7.269-5.471,14.44-11.057,21.496-16.799c7.076-5.741,14.015-11.618,20.84-17.63c6.824-6.031,13.532-12.178,20.104-18.442
			c6.592-6.283,13.049-12.7,19.389-19.215c27.334-27.702,54.186-57.414,77.77-88.422
			C2196.606,3468.286,2274.105,3242.012,2272.539,3035.92z M1290.061,2424.933c3.538-26.175,10.671-51.46,18.52-76.63
			c26.233-84.188,69.709-173.75,141.429-228.303c26.774,11.057,48.502,37.077,65.939,59.347c-9.762,7.017-18.926,14.75-27.45,23.237
			c-23.584,23.739-46.511,51.054-63.968,79.645c-33.114,54.283-57.608,132.033-57.491,196.04l-33.984,12.817
			c-16.548,5.664-32.361,13.512-48.174,20.936C1284.648,2482.869,1286.388,2453.853,1290.061,2424.933z M816.693,2117.371
			c104.641,8.602,192.231,38.585,277.792,99.479c24.222,17.225,48.039,35.802,68.762,57.202
			c11.096,11.444,22.385,23.314,32.109,35.995c15.794,20.607,54.747,82.39,58.072,106.188c1.314,9.453-3.17,34.796-3.364,47.265
			l-0.251,0.792c-0.406,0.367-0.677,0.928-1.199,1.121c-0.638,0.232-31.472-11.792-35.183-13.068
			c-95.632-32.863-193.275-45.062-294.011-41.563c-14.382-17.553-25.73-36.749-36.672-56.564
			C842.791,2281.958,817.466,2200.36,816.693,2117.371z M2166.294,3385.606c-62.169,154.129-163.253,301.202-302.884,394.882
			c-15.62,10.497-32.071,19.698-48.521,28.803c-18.578,10.304-37.561,20.491-57.144,28.785
			c-91.341,38.663-184.847,52.485-283.089,36.614c-36.382-5.857-70.289-14.537-104.448-28.436
			c62.943-30.099,153.82-89.659,197.006-144.502c-10.69,6.553-20.569,14.672-30.698,22.076
			c-11.715,8.525-23.701,16.645-35.976,24.358c-8.622,5.548-17.302,10.922-26.097,16.18c-8.777,5.258-17.65,10.362-26.6,15.311
			c-8.95,4.968-17.978,9.781-27.103,14.44c-9.105,4.659-18.287,9.182-27.547,13.532c-9.24,4.369-18.577,8.583-27.973,12.642
			c-9.395,4.06-18.848,7.965-28.378,11.715c-9.511,3.731-19.1,7.327-28.746,10.768c-9.627,3.441-19.331,6.708-29.074,9.84
			c-3.402,1.101-6.805,2.165-10.226,3.189c-3.422,1.044-6.843,2.049-10.284,3.016c-3.441,0.966-6.882,1.894-10.343,2.803
			c-3.46,0.889-6.921,1.759-10.4,2.591c-3.48,0.831-6.96,1.624-10.459,2.397c-3.479,0.754-6.978,1.488-10.478,2.184
			c-3.518,0.696-7.017,1.353-10.536,1.972c-3.518,0.638-7.056,1.218-10.574,1.779c-3.538,0.56-7.076,1.082-10.613,1.565
			c-3.537,0.483-7.075,0.947-10.632,1.353c-3.537,0.426-7.094,0.793-10.651,1.141c-3.557,0.348-7.114,0.657-10.671,0.947
			c-3.557,0.271-7.133,0.522-10.69,0.716c-3.577,0.212-7.153,0.386-10.71,0.522c-3.577,0.135-7.152,0.232-10.71,0.309
			c-3.576,0.058-7.152,0.097-10.729,0.077c-3.576,0-7.152-0.039-10.71-0.116c-3.576-0.077-7.153-0.174-10.729-0.329
			c-3.557-0.135-7.133-0.309-10.69-0.541c-3.576-0.213-7.134-0.464-10.69-0.735c-3.577-0.29-7.133-0.619-10.69-0.966
			c-3.538-0.348-7.095-0.734-10.652-1.16c-3.538-0.426-7.075-0.889-10.632-1.392c-3.538-0.483-7.056-1.024-10.594-1.585
			c-3.518-0.561-7.056-1.16-10.555-1.798c-3.518-0.637-7.037-1.295-10.536-1.991c-3.499-0.715-6.998-1.45-10.497-2.223
			c-3.48-0.773-6.959-1.565-10.439-2.416c-3.46-0.831-6.94-1.701-10.381-2.61c-3.46-0.909-6.921-1.856-10.342-2.822
			c-3.441-0.986-6.863-1.992-10.284-3.035c-3.422-1.044-6.824-2.127-10.226-3.229c-33.134-11.116-65.031-26.155-96.019-42.2
			c-51.305-27.644-96.116-62.711-138.084-102.978c-80.592-77.326-137.524-160.45-186.606-260.432
			c-95.187-193.933-124.629-438.417-53.78-644.74c44.675-130.081,135.862-245.625,260.723-306.48
			c82.603-40.267,162.248-50.223,253.086-47.304c39.764,1.295,80.283,4.794,119.275,12.952
			c26.388,5.509,53.316,11.908,79.046,19.931c23.894,7.443,47.497,16.374,71.198,24.512l1.643,21.767
			c-5.78,2.726-11.521,5.567-17.225,8.467c-5.703,2.919-11.347,5.915-16.954,8.989c-5.606,3.073-11.173,6.225-16.702,9.472
			c-5.509,3.248-10.98,6.573-16.393,9.975c-5.432,3.402-10.787,6.882-16.103,10.439c-5.316,3.557-10.594,7.191-15.794,10.903
			c-5.219,3.712-10.362,7.52-15.465,11.386c-5.103,3.866-10.13,7.81-15.117,11.812c-4.988,4.021-9.897,8.1-14.769,12.275
			c-4.852,4.156-9.666,8.39-14.402,12.681c-4.737,4.311-9.395,8.68-14.015,13.107c-4.601,4.446-9.144,8.95-13.629,13.532
			c-4.466,4.562-8.873,9.202-13.223,13.919c-4.33,4.697-8.602,9.453-12.797,14.286c-4.195,4.833-8.332,9.723-12.372,14.672
			c-4.059,4.949-8.042,9.956-11.947,15.021c-8.274,10.768-16.741,21.342-24.242,32.67
			c156.565-142.994,327.397-230.817,533.546-279.435c32.245-7.617,64.528-16.2,97.353-21.091
			c25.846-3.847,51.711-4.968,77.809-5.664c64.799-2.764,132.923,7.443,193.237,31.684
			c138.606,55.713,233.271,158.344,291.401,294.803c13.59,31.916,22.772,64.702,30.679,98.417
			C2255.219,3041.024,2231.712,3223.416,2166.294,3385.606z"/>
		<path style="fill:#5B1F1C;" d="M1367.036,2478.26c-0.105-63.991,24.377-141.749,57.495-196.032
			c17.448-28.597,40.387-55.91,63.973-79.639c8.524-8.483,17.672-16.229,27.445-23.237c-17.433-22.283-39.158-48.291-65.941-59.358
			c-71.723,54.559-115.2,144.115-141.434,228.316c-7.839,25.159-14.972,50.455-18.505,76.624
			c-3.69,28.911-5.417,57.938-5.181,87.082c15.798-7.423,31.628-15.276,48.166-20.932L1367.036,2478.26z"/>
		<path style="fill:#61AE4E;" d="M919.43,2410.791c100.72-3.499,198.378,8.689,293.993,41.552
			c3.719,1.278,34.563,13.31,35.193,13.07c0.514-0.197,0.8-0.754,1.202-1.131l0.246-0.783c0.203-12.465,4.674-37.82,3.36-47.258
			c-3.317-23.808-42.276-85.588-58.073-106.203c-9.708-12.67-21.004-24.537-32.102-35.993
			c-20.717-21.39-44.549-39.964-68.764-57.196c-85.563-60.897-173.155-90.886-277.788-99.473
			c0.777,82.978,26.101,164.572,66.048,236.843C893.698,2374.036,905.033,2393.225,919.43,2410.791z"/>
		<path style="fill:#F1475F;" d="M2166.294,3385.606c-62.169,154.129-163.253,301.202-302.884,394.882
			c-15.62,10.497-32.071,19.698-48.521,28.803c-18.578,10.304-37.561,20.491-57.144,28.785
			c-91.341,38.663-184.847,52.485-283.089,36.614c-36.382-5.857-70.289-14.537-104.448-28.436
			c62.943-30.099,153.82-89.659,197.006-144.502c-10.69,6.553-20.569,14.672-30.698,22.076
			c-11.715,8.525-23.701,16.645-35.976,24.358c-8.622,5.548-17.302,10.922-26.097,16.18c-8.777,5.258-17.65,10.362-26.6,15.311
			c-8.95,4.968-17.978,9.781-27.103,14.44c-9.105,4.659-18.287,9.182-27.547,13.532c-9.24,4.369-18.577,8.583-27.973,12.642
			c-9.395,4.06-18.848,7.965-28.378,11.715c-9.511,3.731-19.1,7.327-28.746,10.768c-9.627,3.441-19.331,6.708-29.074,9.84
			c-3.402,1.101-6.805,2.165-10.226,3.189c-3.422,1.044-6.843,2.049-10.284,3.016c-3.441,0.966-6.882,1.894-10.343,2.803
			c-3.46,0.889-6.921,1.759-10.4,2.591c-3.48,0.831-6.96,1.624-10.459,2.397c-3.479,0.754-6.978,1.488-10.478,2.184
			c-3.518,0.696-7.017,1.353-10.536,1.972c-3.518,0.638-7.056,1.218-10.574,1.779c-3.538,0.56-7.076,1.082-10.613,1.565
			c-3.537,0.483-7.075,0.947-10.632,1.353c-3.537,0.426-7.094,0.793-10.651,1.141c-3.557,0.348-7.114,0.657-10.671,0.947
			c-3.557,0.271-7.133,0.522-10.69,0.716c-3.577,0.212-7.153,0.386-10.71,0.522c-3.577,0.135-7.152,0.232-10.71,0.309
			c-3.576,0.058-7.152,0.097-10.729,0.077c-3.576,0-7.152-0.039-10.71-0.116c-3.576-0.077-7.153-0.174-10.729-0.329
			c-3.557-0.135-7.133-0.309-10.69-0.541c-3.576-0.213-7.134-0.464-10.69-0.735c-3.577-0.29-7.133-0.619-10.69-0.966
			c-3.538-0.348-7.095-0.734-10.652-1.16c-3.538-0.426-7.075-0.889-10.632-1.392c-3.538-0.483-7.056-1.024-10.594-1.585
			c-3.518-0.561-7.056-1.16-10.555-1.798c-3.518-0.637-7.037-1.295-10.536-1.991c-3.499-0.715-6.998-1.45-10.497-2.223
			c-3.48-0.773-6.959-1.565-10.439-2.416c-3.46-0.831-6.94-1.701-10.381-2.61c-3.46-0.909-6.921-1.856-10.342-2.822
			c-3.441-0.986-6.863-1.992-10.284-3.035c-3.422-1.044-6.824-2.127-10.226-3.229c-33.134-11.116-65.031-26.155-96.019-42.2
			c-51.305-27.644-96.116-62.711-138.084-102.978c-80.592-77.326-137.524-160.45-186.606-260.432
			c-95.187-193.933-124.629-438.417-53.78-644.74c44.675-130.081,135.862-245.625,260.723-306.48
			c82.603-40.267,162.248-50.223,253.086-47.304c39.764,1.295,80.283,4.794,119.275,12.952
			c26.388,5.509,53.316,11.908,79.046,19.931c23.894,7.443,47.497,16.374,71.198,24.512l1.643,21.767
			c-5.78,2.726-11.521,5.567-17.225,8.467c-5.703,2.919-11.347,5.915-16.954,8.989c-5.606,3.073-11.173,6.225-16.702,9.472
			c-5.509,3.248-10.98,6.573-16.393,9.975c-5.432,3.402-10.787,6.882-16.103,10.439c-5.316,3.557-10.594,7.191-15.794,10.903
			c-5.219,3.712-10.362,7.52-15.465,11.386c-5.103,3.866-10.13,7.81-15.117,11.812c-4.988,4.021-9.897,8.1-14.769,12.275
			c-4.852,4.156-9.666,8.39-14.402,12.681c-4.737,4.311-9.395,8.68-14.015,13.107c-4.601,4.446-9.144,8.95-13.629,13.532
			c-4.466,4.562-8.873,9.202-13.223,13.919c-4.33,4.697-8.602,9.453-12.797,14.286c-4.195,4.833-8.332,9.723-12.372,14.672
			c-4.059,4.949-8.042,9.956-11.947,15.021c-8.274,10.768-16.741,21.342-24.242,32.67
			c156.565-142.994,327.397-230.817,533.546-279.435c32.245-7.617,64.528-16.2,97.353-21.091
			c25.846-3.847,51.711-4.968,77.809-5.664c64.799-2.764,132.923,7.443,193.237,31.684
			c138.606,55.713,233.271,158.344,291.401,294.803c13.59,31.916,22.772,64.702,30.679,98.417
			C2255.219,3041.024,2231.712,3223.416,2166.294,3385.606z"/>
	</g>
</g>
</svg>
