<?xml version="1.0" encoding="utf-8"?>
<!-- Generator: Adobe Illustrator 27.5.0, SVG Export Plug-In . SVG Version: 6.00 Build 0)  -->
<svg xmlns="http://www.w3.org/2000/svg" xmlns:xlink="http://www.w3.org/1999/xlink" viewBox="0 0 2400 2400" width="595" height="842" preserveAspectRatio="xMidYMid meet" data-scaled="true">
<g id="Layer_1">
</g>
<g id="Layer_2">
	<g>
		<g>
			<g>
				<g>
					<path style="fill:#549E00;" d="M372.618,594.781c-14.391-12.283-33.786-17.995-52.674-16.701
						c-54.149-78.356-102.36-159.037-144.372-237.398c74.409,1.478,143.011-6.342,209.758-18.757
						c8.477,9.634,22.755,14.426,35.055,10.29c4.481-1.507,8.617-3.989,13.204-5.134c6.382-1.593,13.137-0.48,19.644-1.444
						c12.076-1.789,21.465-11.976,24.697-23.61c184.614-43.943,369.135-106.757,640.536-84.966
						c104.475,8.388,208.627,41.116,299.074,92.764c-2.95,6.995-3.34,15.316-0.55,22.418c5.434,13.834,19.746,22.624,34.357,25.35
						c6.263,1.169,12.775,1.433,18.681,3.823c14.037,5.68,20.705,21.238,27.817,34.607c8.127,15.276,21.475,30.889,38.764,30.202
						c4.307-0.171,8.909-1.331,12.736,0.653c7.411,3.841,5.407,14.769,7.74,22.784c3.441,11.822,18.613,17.44,30.169,13.19
						c2.708-0.996,5.188-2.41,7.448-4.127c77.028,96.581,116.794,216.22,93.269,348.425
						c-16.926,95.119-85.734,163.571-171.586,211.716c-0.672-0.303-1.348-0.594-2.028-0.87c-11.226-4.545-23.469-5.789-35.521-6.986
						c-8.65-0.859-19.165-0.873-23.836,6.458c-1.797,2.82-2.333,6.284-4.029,9.166c-3.777,6.414-12.188,8.333-19.632,8.245
						c-7.444-0.088-15.093-1.523-22.202,0.687c-15.315,4.76-20.79,23.204-23.939,38.929c-0.017,0.087-0.035,0.174-0.052,0.26
						c-42.037,13.449-84.149,23.464-123.241,30.593c-122.845,22.403-238.033,11.624-345.085-23.262
						c-2.886-9.449-6.148-18.783-9.798-27.964c-4.223-10.623-9.349-21.551-18.644-28.205c-12.677-9.074-30.951-8.604-42.108-19.492
						c-7.643-7.458-10.203-18.649-16.262-27.443c-11.746-17.049-37.72-22.156-55.047-10.824c-3.715,2.43-7.257,5.573-11.657,6.167
						c-6.489,0.875-12.14-3.983-17.408-7.872c-19.818-14.631-47.033-17.851-70.194-9.835
						c-106.545-76.989-202.053-175.807-285.8-283.18c1.529-3.24,2.848-6.578,3.868-10.046
						C400.911,639.116,391.865,611.209,372.618,594.781z"/>
					<path style="fill:#417A00;" d="M1134.387,1120.413c-73.768,0-146.917-11.712-218.626-35.08l-1.688-0.55l-0.519-1.698
						c-2.876-9.413-6.141-18.733-9.706-27.702c-3.815-9.596-8.623-20.365-17.458-26.689c-5.309-3.8-11.749-5.807-18.566-7.931
						c-8.487-2.643-17.261-5.378-23.939-11.894c-4.996-4.875-7.933-11.043-10.774-17.009c-1.864-3.917-3.626-7.617-5.916-10.941
						c-10.651-15.459-34.656-20.182-50.365-9.903c-0.748,0.489-1.487,1.008-2.229,1.528c-3.065,2.149-6.538,4.583-10.841,5.164
						c-7.248,0.982-13.159-3.46-18.374-7.374l-1.518-1.134c-18.522-13.675-44.215-17.262-67.049-9.357l-1.679,0.58l-1.438-1.039
						C574.716,887.86,478.325,792.36,387.209,675.538l-1.293-1.656l0.897-1.901c1.555-3.298,2.759-6.422,3.68-9.553
						c6.631-22.541-1.633-49.291-20.092-65.05l0,0c-13.324-11.372-31.617-17.156-50.224-15.892l-1.939,0.132l-1.104-1.598
						c-50.676-73.331-99.317-153.314-144.573-237.726l-2.757-5.143l5.835,0.117c66.9,1.314,133.332-4.615,209.064-18.701
						l1.907-0.354l1.281,1.455c7.943,9.028,20.859,12.856,31.404,9.309c1.746-0.587,3.458-1.345,5.27-2.147
						c2.588-1.146,5.264-2.331,8.195-3.063c4.002-0.998,8.002-1.036,11.87-1.072c2.832-0.027,5.505-0.052,8.099-0.437
						c10.002-1.481,18.806-9.979,21.908-21.146l0.539-1.942l1.961-0.467c27.765-6.608,56.155-13.803,83.61-20.761
						c160.704-40.727,326.878-82.837,557.989-64.285c104.501,8.391,208.41,40.62,300.496,93.203l2.63,1.502l-1.178,2.791
						c-2.694,6.391-2.89,13.809-0.518,19.842c5.411,13.771,19.977,21.035,31.806,23.241c1.816,0.339,3.657,0.599,5.495,0.86
						c4.575,0.649,9.306,1.321,13.839,3.155c13.632,5.517,20.83,19.393,27.18,31.636c0.794,1.527,1.581,3.043,2.372,4.533
						c5.802,10.902,18.1,29.147,35.614,28.393c0.967-0.038,1.952-0.131,2.937-0.222c3.61-0.337,7.701-0.716,11.507,1.256
						c6.712,3.478,7.514,10.849,8.223,17.352c0.296,2.715,0.576,5.282,1.225,7.508c1.187,4.085,4.253,7.552,8.628,9.76
						c5.273,2.662,11.816,3.115,17.082,1.179c2.274-0.837,4.484-2.062,6.563-3.641l2.657-2.017l2.079,2.608
						c83.677,104.918,116.167,226.345,93.959,351.152c-15.337,86.187-73.635,158.219-173.278,214.095l-1.505,0.844l-1.572-0.71
						c-0.629-0.284-1.265-0.557-1.903-0.816c-10.86-4.397-22.916-5.594-34.576-6.753c-7.667-0.764-16.931-0.893-20.619,4.895
						c-0.734,1.153-1.249,2.579-1.794,4.09c-0.591,1.632-1.2,3.32-2.172,4.972c-5.187,8.808-16.398,10.013-22.615,9.927
						c-2.063-0.025-4.142-0.148-6.22-0.273c-5.311-0.318-10.331-0.621-14.926,0.806c-13.541,4.21-18.661,21.632-21.606,36.34
						l-0.362,2.023l-1.996,0.819c-39.293,12.572-80.901,22.9-123.67,30.7C1219.708,1116.515,1176.944,1120.413,1134.387,1120.413z
						 M919.56,1079.386c111.464,36.028,226.428,43.631,341.731,22.603c41.791-7.622,82.454-17.671,120.909-29.879
						c3.386-16.167,9.526-34.708,25.923-39.804c5.784-1.798,11.669-1.444,17.365-1.103c1.967,0.119,3.935,0.239,5.889,0.261
						c3.837,0.067,13.083-0.505,16.649-6.563c0.651-1.104,1.129-2.427,1.634-3.827c0.649-1.795,1.318-3.651,2.461-5.442
						c5.684-8.924,17.44-8.974,27.053-8.02c12.138,1.206,24.692,2.453,36.463,7.218c0.184,0.074,0.369,0.15,0.551,0.227
						c96.866-54.708,153.535-124.855,168.421-208.505c21.679-121.836-9.646-240.443-90.606-343.212
						c-1.796,1.104-3.659,2.014-5.571,2.717c-7.092,2.608-15.506,2.048-22.518-1.492c-6.085-3.072-10.384-8.026-12.107-13.949
						c-0.816-2.8-1.14-5.788-1.456-8.678c-0.693-6.368-1.347-10.355-4.577-12.029c-2.025-1.048-4.797-0.79-7.732-0.519
						c-1.107,0.103-2.21,0.204-3.297,0.248c-21.148,0.847-35.36-19.693-41.914-32.01c-0.802-1.51-1.601-3.048-2.403-4.596
						c-6.091-11.74-12.387-23.879-23.68-28.449c-3.759-1.522-7.876-2.105-12.238-2.724c-1.936-0.276-3.873-0.551-5.789-0.908
						c-17.387-3.243-31.528-13.764-36.91-27.458c-2.652-6.755-2.794-14.827-0.474-22.128
						c-90.595-51.245-192.584-82.664-295.145-90.9c-229.984-18.468-395.6,23.508-555.764,64.098
						c-26.854,6.805-54.601,13.838-81.807,20.332c-4.279,12.757-14.867,22.339-26.888,24.119c-3.059,0.454-6.097,0.481-9.036,0.509
						c-3.631,0.034-7.062,0.067-10.281,0.87c-2.36,0.588-4.655,1.605-7.085,2.681c-1.874,0.83-3.811,1.688-5.858,2.376
						c-12.496,4.199-27.578,0.16-37.367-9.827c-73.244,13.523-137.91,19.455-202.77,18.569
						c44.024,81.694,91.217,159.169,140.329,230.37c19.7-0.87,38.966,5.499,53.168,17.62c20.445,17.451,29.578,47.129,22.211,72.172
						c-0.839,2.851-1.884,5.687-3.177,8.615c89.905,115.008,184.914,209.155,282.415,279.853
						c24.498-7.881,51.795-3.773,71.64,10.883l1.562,1.166c4.369,3.281,8.899,6.664,13.361,6.069
						c2.656-0.359,5.171-2.123,7.833-3.989c0.802-0.562,1.603-1.123,2.411-1.652c18.962-12.404,46.873-6.917,59.729,11.743
						c2.598,3.771,4.559,7.893,6.458,11.88c2.701,5.673,5.253,11.033,9.376,15.056c5.506,5.372,13.13,7.747,21.202,10.262
						c7.034,2.192,14.308,4.458,20.51,8.898c9.847,7.051,15.35,18.451,19.83,29.719
						C913.612,1061.46,916.76,1070.375,919.56,1079.386z"/>
				</g>
				<g>
					<path style="fill:#3D7300;" d="M1726.109,1058.871l-9.42-26.601c-1.584-4.43-3.106-8.885-4.74-13.295l-5.3-13.072
						c-3.575-8.697-6.97-17.479-10.689-26.116l-11.774-25.638c-16.307-33.867-34.106-67.129-54.929-98.477l-7.612-11.885
						l-8.155-11.512l-8.166-11.511l-4.082-5.758l-2.047-2.875l-2.176-2.777l-17.405-22.229c-1.465-1.841-2.868-3.735-4.384-5.534
						l-4.61-5.345l-9.221-10.694l-9.22-10.701c-3.123-3.523-6.446-6.862-9.659-10.303l-9.717-10.255l-4.859-5.13
						c-1.608-1.722-3.232-3.429-4.96-5.03l-20.382-19.588c-1.709-1.621-3.373-3.294-5.121-4.874l-5.319-4.656l-10.64-9.316
						l-10.641-9.322c-3.602-3.042-7.351-5.907-11.02-8.871l-11.063-8.826l-5.532-4.415l-2.766-2.208l-2.862-2.082l-22.917-16.64
						c-1.924-1.367-3.789-2.821-5.762-4.118l-5.912-3.901l-11.826-7.805l-11.828-7.811c-4.003-2.509-8.095-4.876-12.138-7.323
						l-12.166-7.286l-6.084-3.645l-3.042-1.823l-3.118-1.689l-24.954-13.519c-2.088-1.112-4.142-2.289-6.257-3.348l-6.379-3.114
						l-12.76-6.23l-12.762-6.234c-4.269-2.046-8.656-3.839-12.979-5.772c-8.691-3.765-17.323-7.681-26.068-11.33
						c-17.672-6.85-35.221-14.064-53.266-19.956c-17.832-6.511-36.118-11.642-54.271-17.221c-9.146-2.546-18.362-4.854-27.542-7.295
						l-13.792-3.586l-13.912-3.103c-36.999-8.786-74.626-14.771-112.348-19.835l-28.376-3.249l-7.098-0.792l-7.119-0.573
						l-14.241-1.148c-18.973-1.802-38.024-2.437-57.065-3.382c-4.759-0.289-9.525-0.34-14.291-0.404l-14.298-0.222
						c-9.533-0.081-19.07-0.477-28.604-0.183l-28.612,0.454l-7.154,0.126l-7.147,0.334l-14.297,0.668l-57.469,2.697l-28.843,0.507
						c-4.805,0.141-9.613,0.076-14.421-0.001l-14.42-0.183c-38.441-0.734-76.847-3.217-114.994-7.892
						c-38.125-4.833-75.976-11.69-113.286-20.749l-13.958-3.535c-4.639-1.228-9.334-2.237-13.917-3.675l-27.619-8.118
						c-9.134-2.934-18.198-6.09-27.296-9.124l-6.816-2.296l-6.721-2.568l-13.437-5.138c-35.734-13.926-70.517-30.243-103.915-49.022
						c33.744,18.158,68.776,33.8,104.67,47.026l13.493,4.875l6.745,2.435l6.839,2.163c9.127,2.855,18.214,5.832,27.366,8.586
						l27.658,7.575c4.586,1.348,9.285,2.265,13.925,3.402l13.958,3.261c37.302,8.327,75.067,14.444,113.037,18.543
						c37.994,3.941,76.179,5.697,114.338,5.717l14.311-0.084c4.77-0.011,9.539-0.035,14.306-0.264l28.598-1.033l57.273-3.756
						l14.389-0.94l7.196-0.47l7.206-0.262l28.832-0.994c9.61-0.473,19.232-0.255,28.852-0.352l14.432-0.044
						c4.811-0.024,9.623-0.061,14.431,0.141c19.236,0.595,38.494,0.884,57.702,2.345l14.418,0.893l7.21,0.447l7.193,0.667
						l28.771,2.754c38.273,4.412,76.526,9.776,114.256,17.992l14.186,2.891l14.08,3.38c9.375,2.306,18.787,4.48,28.137,6.898
						c18.568,5.325,37.28,10.212,55.573,16.503c18.497,5.668,36.535,12.682,54.705,19.349c8.997,3.558,17.89,7.39,26.843,11.076
						c4.455,1.893,8.972,3.647,13.377,5.657l13.172,6.13l13.175,6.134l6.588,3.069c2.186,1.044,4.313,2.208,6.472,3.307
						l25.825,13.378l3.229,1.674l3.154,1.809l6.309,3.62l12.621,7.243c4.196,2.434,8.44,4.789,12.598,7.289l12.298,7.791l12.3,7.796
						l6.151,3.9c2.052,1.297,3.999,2.753,6.003,4.121l23.895,16.684l2.985,2.09l2.891,2.218l5.782,4.437l11.565,8.878
						c3.837,2.984,7.752,5.871,11.524,8.936l11.151,9.401l11.153,9.407l5.577,4.706c1.833,1.598,3.583,3.289,5.379,4.928
						l21.421,19.837c1.815,1.623,3.526,3.354,5.221,5.1l5.12,5.204l10.24,10.412c3.388,3.496,6.885,6.891,10.182,10.472
						l9.744,10.883l9.743,10.889l4.872,5.447c1.603,1.833,3.093,3.762,4.644,5.638l18.445,22.678l2.305,2.837l2.176,2.935l4.34,5.88
						l8.679,11.764l8.667,11.778l8.118,12.158c22.175,32.1,41.276,66.21,58.827,101.011l12.696,26.353
						c4.022,8.877,7.713,17.9,11.583,26.849l5.741,13.453c1.778,4.536,3.443,9.115,5.169,13.671l10.266,27.384
						c3.31,8.829-1.164,18.67-9.993,21.98c-8.829,3.31-18.67-1.164-21.98-9.993c-0.026-0.07-0.052-0.141-0.078-0.211
						L1726.109,1058.871z"/>
					<path style="fill:#3D7300;" d="M1609.951,802.349c-36.749,16.345-72.184,35.859-106.15,57.789
						c-33.977,21.93-66.495,46.26-97.682,72.264c-62.402,52.052-119.427,110.624-173.564,171.598
						c51.544-63.185,106.145-124.224,166.84-179.327c30.337-27.526,62.194-53.524,95.803-77.268
						c33.598-23.74,68.963-45.213,106.03-63.595L1609.951,802.349z"/>
					<path style="fill:#3D7300;" d="M1391.957,615.126c-52.032,18.754-102.946,40.706-151.93,66.461
						c-48.975,25.744-96.008,55.313-140.024,88.971c-44.016,33.638-84.987,71.375-121.829,112.906
						c-36.854,41.511-69.554,86.802-97.369,135.012c26.655-48.857,58.331-95.036,94.357-137.619
						c36.011-42.601,76.347-81.588,119.925-116.569c43.576-35.002,90.365-66.006,139.251-93.211
						c48.895-27.218,99.875-50.659,152.085-70.894L1391.957,615.126z"/>
					<path style="fill:#3D7300;" d="M1124.174,498.769c-104.416,37.105-202.086,92.855-289.112,161.899
						c-43.523,34.544-84.444,72.435-122.211,113.294c-37.743,40.869-72.389,84.699-102.761,131.425
						c29.571-47.234,63.514-91.721,100.654-133.338c37.166-41.607,77.588-80.343,120.742-115.808
						c86.289-70.882,183.744-128.809,288.814-168.174L1124.174,498.769z"/>
					<path style="fill:#3D7300;" d="M841.007,456.535c-36.127,18.801-71.401,39.271-105.387,61.746
						c-33.989,22.463-66.671,46.946-97.675,73.443c-31.017,26.482-60.334,54.975-87.947,85.057
						c-27.631,30.072-53.555,61.718-78.298,94.255c24.134-32.99,49.482-65.135,76.607-95.779
						c27.105-30.652,55.985-59.786,86.648-86.966c30.649-27.195,63.057-52.429,96.842-75.669
						c33.783-23.253,68.919-44.526,104.961-64.14L841.007,456.535z"/>
					<path style="fill:#3D7300;" d="M578.245,458.641c-18.156,8.773-35.529,19.291-52.41,30.561
						c-16.828,11.372-33.03,23.698-48.941,36.394c-15.862,12.765-31.27,26.107-46.39,39.772
						c-15.083,13.706-29.902,27.724-44.183,42.286c13.87-14.957,28.302-29.394,43.018-43.535
						c14.755-14.102,29.818-27.9,45.375-41.152c15.609-13.185,31.542-26.026,48.194-37.969
						c16.714-11.844,33.993-22.991,52.334-32.491L578.245,458.641z"/>
					<path style="fill:#3D7300;" d="M393.546,433.863c-21.607,9.432-42.789,19.892-63.028,32.039
						c-20.27,12.096-39.478,25.954-58.053,40.597c18.093-15.228,36.879-29.725,56.852-42.53
						c19.938-12.854,40.917-24.066,62.347-34.251L393.546,433.863z"/>
					<path style="fill:#3D7300;" d="M286.183,399.787c-23.037,5.108-46.311,8.531-69.289,13.626
						c22.798-5.832,46.015-10.02,68.754-15.839L286.183,399.787z"/>
					<path style="fill:#3D7300;" d="M1580.643,774.766c15.294-43.49,26.512-88.688,34.219-134.535
						c7.612-45.868,11.756-92.49,11.108-139.273c4.061,46.619,3.348,93.746-0.949,140.589
						c-4.399,46.847-12.384,93.506-24.821,139.323L1580.643,774.766z"/>
					<path style="fill:#3D7300;" d="M1332.25,571.899c11.724-48.686,17.573-99.001,18.669-149.443
						c0.995-50.456-2.749-101.185-12.182-151.044c12.031,49.302,18.488,100.044,20.15,151
						c1.554,50.961-1.655,102.269-11.056,152.828L1332.25,571.899z"/>
					<path style="fill:#3D7300;" d="M1069.246,473.515c1.667-22.957,0.285-46.265-2.96-69.296
						c-3.285-23.044-8.453-45.892-15.383-68.215c-6.937-22.315-15.505-44.192-26.256-65.003
						c-5.389-10.393-11.339-20.512-18.078-30.105c-6.707-9.606-14.382-18.584-23.258-26.311c9.18,7.359,17.27,16.078,24.404,25.467
						c7.169,9.378,13.577,19.33,19.432,29.588c11.685,20.544,21.228,42.276,29.158,64.571c7.923,22.306,14.107,45.262,18.407,68.637
						c4.255,23.373,6.669,47.222,5.9,71.272L1069.246,473.515z"/>
					<path style="fill:#3D7300;" d="M800.225,451.849c-0.924-9.105-3.05-18.361-5.587-27.479c-2.56-9.132-5.594-18.181-8.887-27.144
						c-6.603-17.928-14.237-35.533-22.632-52.765c-8.388-17.238-17.569-34.118-27.837-50.324
						c-5.154-8.087-10.596-16.004-16.594-23.489c-6.028-7.415-12.475-14.721-20.67-19.84c8.399,4.795,15.194,11.896,21.543,19.11
						c6.328,7.289,12.114,15.033,17.617,22.959c10.966,15.886,20.866,32.493,29.993,49.51c9.136,17.017,17.53,34.448,24.942,52.358
						c3.698,8.959,7.149,18.039,10.153,27.326c2.978,9.299,5.589,18.767,7.009,28.772L800.225,451.849z"/>
					<path style="fill:#3D7300;" d="M555.17,455.853c-1.802-28.294-8.987-56.327-20.257-82.589
						c-11.336-26.233-26.823-50.886-46.58-71.844c20.574,20.162,37.169,44.339,49.689,70.431
						c12.454,26.131,20.938,54.351,23.954,83.443L555.17,455.853z"/>
					<path style="fill:#3D7300;" d="M382.207,428.308c-4.196-35.318-18.079-69.664-39.935-98.247
						c23.042,27.635,38.626,61.685,44.443,97.613L382.207,428.308z"/>
					<path style="fill:#3D7300;" d="M266.657,391.985c-3.227-9.464-8.298-18.317-13.726-26.836
						c-5.476-8.518-11.486-16.703-17.548-24.84c6.361,7.905,12.675,15.861,18.493,24.208c5.771,8.36,11.222,17.059,14.926,26.71
						L266.657,391.985z"/>
				</g>
				<path style="fill:#D0D1CF;" d="M1354.195,478.473c51.295,23.321,41.274,75.825,37.797,84.647
					c-14.61,37.065-10.197,52.392,11.449,85.838c18.056,27.898,42.908,59.558,30.647,90.445
					c-9.312,23.459-36.754,34.151-61.866,36.689s-51.133-0.335-75.093,7.6c-33.866,11.216-58.15,42.218-91.712,54.313
					c-56.042,20.197-118.461-17.617-176.807-5.604c-22.085,4.547-42.318,16.066-64.503,20.095
					c-35.091,6.373-70.99-6.724-101.738-24.796c-30.748-18.071-58.373-41.231-89.838-58.024
					c-57.104-30.476-123.275-38.251-184.515-59.208c-61.241-20.957-122.984-62.399-136.384-125.724
					c-6.909-32.652,0.285-67.121,14.656-97.243c11.409-23.913,27.534-45.911,48.699-61.849
					c24.715-18.611,55.044-28.163,85.268-34.772c68.363-14.949,138.976-16.459,208.909-13.922
					C999.757,383.871,1195.055,406.119,1354.195,478.473z"/>
			</g>
			<g>
				<path d="M582.266,669.061c-14.147,0-26.296-2.813-36.323-8.433c-2.786-1.562-4.371-4.636-4.025-7.812
					c0.346-3.175,2.553-5.838,5.61-6.764c13.667-4.141,28.623-3.059,47.555-1.691c5.823,0.421,11.808,0.854,18.205,1.167
					c15.586-21.198,58.519-74.194,84.789-106.62c8.494-10.485,15.234-18.804,18.708-23.159c17.832-22.358,37.224-15.49,61.773-6.795
					c7.57,2.681,16.148,5.719,25.991,8.528c4.232,1.208,6.683,5.618,5.475,9.848c-1.208,4.233-5.628,6.677-9.848,5.475
					c-10.321-2.946-19.149-6.072-26.937-8.831c-25.801-9.136-33.698-11.196-43.998,1.712c-3.488,4.373-10.254,12.725-18.783,23.252
					c-27.768,34.277-74.242,91.643-86.716,109.33c-0.342,0.486-0.735,0.926-1.166,1.316c-0.917,2.318-2.906,4.172-5.511,4.811
					C604.398,667.507,592.78,669.061,582.266,669.061z"/>
				<path d="M790.087,711.094c-5.703,0-11.513-0.798-17.373-2.822c-2.835-0.979-4.881-3.468-5.292-6.44
					c-0.41-2.971,0.884-5.922,3.347-7.634c16.121-11.201,42.975-8.924,53.554-7.962c3.232-4.642,9.724-15.082,16.041-25.238
					c15.729-25.293,37.271-59.933,56.381-84.742c2.685-3.485,7.691-4.134,11.174-1.451c3.486,2.685,4.135,7.688,1.451,11.174
					c-18.624,24.177-39.922,58.426-55.474,83.432c-9.724,15.636-14.701,23.594-17.833,27.77c-0.746,2.6-2.799,4.755-5.602,5.505
					c-2.483,0.665-5.036,1.415-7.646,2.181C812.655,707.849,801.59,711.094,790.087,711.094z M827.455,686.496L827.455,686.496
					L827.455,686.496z"/>
				<path d="M991.169,709.708c-8.735,0-16.293-1.654-20.421-6.256c-1.539-1.715-2.261-4.014-1.977-6.301
					c0.285-2.287,1.544-4.339,3.456-5.628c6.568-4.425,35.151-12.892,59.435-8.592c14.039-47.283,34.158-92.559,59.859-134.686
					c2.29-3.757,7.193-4.944,10.951-2.652c3.757,2.292,4.944,7.195,2.652,10.951c-26.278,43.075-46.554,89.534-60.262,138.09
					c-0.587,2.08-1.994,3.833-3.899,4.855c-0.809,0.434-1.678,0.72-2.569,0.856c-0.567,0.354-1.186,0.64-1.853,0.848
					C1026.305,704.38,1006.843,709.708,991.169,709.708z"/>
				<g>
					<g>
						<path style="fill:#3D3030;" d="M1374.369,469.647c-31.24,158.469-345.172,215.07-488.04,197.793
							c-94.301-11.404-188.173-40.323-263.692-97.94c-17.792-13.574-35.825-31.1-36.874-53.454
							c145.953,0.786,291.925-2.052,437.737-8.512c57.743-2.558,115.563-5.693,172.748-14.104
							C1254.913,484.802,1313.458,466.66,1374.369,469.647z"/>
						<path d="M941.265,673.794c-20.75,0-39.452-1.043-55.346-2.964c-107.317-12.977-196.595-46.156-265.353-98.615
							c-15.844-12.087-37.042-31.043-38.215-56.008l-0.168-3.594l3.598,0.019c145.231,0.784,292.456-2.082,437.567-8.509
							c55.557-2.461,114.631-5.574,172.401-14.07c17.892-2.632,36.144-6.225,53.795-9.701
							c40.476-7.967,82.337-16.208,124.992-14.116l3.948,0.193l-0.765,3.877c-7.494,38.013-31.259,72.415-70.633,102.25
							c-34.177,25.897-79.208,47.814-133.845,65.145C1092.036,663.462,1006.563,673.794,941.265,673.794z M589.508,519.48
							c2.852,20.424,21.252,36.664,35.199,47.306c67.779,51.71,155.938,84.434,262.032,97.263
							c65.172,7.884,178.402,0.78,284.438-32.856c113.25-35.924,183.698-92.031,199.006-158.302
							c-40.482-1.365-80.533,6.526-119.32,14.161c-17.73,3.491-36.065,7.1-54.121,9.756c-58.087,8.543-117.36,11.668-173.093,14.137
							C879.676,517.322,733.636,520.191,589.508,519.48z"/>
					</g>
					<g>
						<path style="fill:#D60B0B;" d="M591.224,261.553c227.63-336.595,772.488-155.417,790.108,196.526
							c-53.376,104.786-396.728,249.573-710.585,114.786C528.079,511.596,524.883,359.651,591.224,261.553z"/>
						<path d="M941.815,630.687c-81.235,0-175.799-13.193-272.416-54.685c-59.138-25.398-99.021-68.225-115.335-123.854
							c-18.156-61.909-5.322-133.874,34.33-192.509c53.526-79.147,128.919-135.13,218.029-161.896
							c81.144-24.374,170.315-24.333,257.872,0.117c85.229,23.799,163.39,70.237,220.084,130.762
							c61.432,65.58,96.136,144.866,100.362,229.286l0.047,0.909l-0.413,0.811c-29.151,57.229-136.002,118.499-259.84,148.999
							C1081.203,619.3,1017.256,630.687,941.815,630.687z M591.224,261.553l2.829,1.913
							c-38.525,56.967-51.024,126.785-33.434,186.762c15.722,53.61,54.27,94.932,111.475,119.5
							c184.51,79.24,361.643,54.23,450.81,32.269c141.591-34.871,231.17-99.233,254.973-144.664
							c-4.353-82.439-38.393-159.897-98.479-224.042c-55.852-59.624-132.895-105.385-216.937-128.852
							c-86.309-24.102-174.165-24.154-254.072-0.155c-87.585,26.308-161.702,81.352-214.336,159.182L591.224,261.553z"/>
					</g>
					<g>
						
							<ellipse transform="matrix(0.9731 -0.2303 0.2303 0.9731 -68.2119 291.0629)" style="fill:#262121;" cx="1212.938" cy="437.782" rx="73.985" ry="91.306"/>
						<path d="M1220.025,531.674c-36.647,0-71.8-31.239-82.408-76.072l0,0c-12.026-50.825,11.979-100.17,53.511-109.996
							c41.528-9.826,85.105,23.528,97.13,74.354c5.796,24.493,3.499,49.383-6.467,70.085c-10.084,20.946-26.79,35.119-47.044,39.911
							C1229.849,531.117,1224.924,531.674,1220.025,531.674z M1144.262,454.031c11.161,47.162,51.045,78.248,88.913,69.281
							c18.209-4.309,33.29-17.176,42.462-36.229c9.289-19.296,11.411-42.577,5.976-65.551
							c-11.16-47.161-51.042-78.245-88.914-69.281C1154.834,361.212,1133.104,406.869,1144.262,454.031L1144.262,454.031z"/>
					</g>
					<g>
						
							<ellipse transform="matrix(0.992 -0.1264 0.1264 0.992 -53.2789 108.8693)" style="fill:#262121;" cx="831.209" cy="474.252" rx="89.939" ry="95.701"/>
						<path d="M832.545,573.285c-46.594,0-87.543-37.01-93.941-87.237l0,0c-6.906-54.213,29.018-103.611,80.08-110.116
							c51.062-6.508,98.224,32.311,105.13,86.525c6.906,54.213-29.018,103.611-80.08,110.116
							C839.979,573.052,836.243,573.285,832.545,573.285z M745.378,485.185c6.431,50.479,50.163,86.643,97.494,80.614
							c47.326-6.029,80.598-52.001,74.169-102.48c-6.43-50.478-50.159-86.634-97.493-80.613
							C772.224,388.734,738.954,434.71,745.378,485.185L745.378,485.185z"/>
					</g>
					<g>
						<path style="fill:#262121;" d="M1190.134,250.242c27.691,36.593,72.489,49.344,100.059,28.481
							c6.895-5.218,12.059-12.044,15.494-19.92c-32.991-42.345-74.957-78.336-122.394-106.506
							C1162.587,175.199,1164.879,216.868,1190.134,250.242z"/>
						<path d="M1259.02,292.187c-6.362,0.001-12.987-0.95-19.745-2.875c-19.608-5.581-38.026-18.725-51.864-37.01
							c-25.751-34.03-28.61-78.007-6.65-102.295l1.874-2.073l2.403,1.427c49.04,29.122,90.54,65.238,123.344,107.343l1.248,1.602
							l-0.811,1.862c-3.778,8.661-9.351,15.819-16.564,21.278C1282.857,288.557,1271.442,292.187,1259.02,292.187z
							 M1184.023,156.711c-17.785,22.301-14.222,61.001,8.835,91.47l0,0c12.947,17.111,30.096,29.386,48.286,34.563
							c17.845,5.079,34.531,2.683,46.988-6.745c5.756-4.355,10.317-9.976,13.584-16.73
							C1270.195,219.244,1230.619,184.756,1184.023,156.711z"/>
					</g>
					<g>
						<path style="fill:#262121;" d="M841.466,211.121c45.137,41.969,108.698,46.986,141.966,11.207
							c32.602-35.064,23.99-96.283-18.849-138.219c-54.501-3.707-109.546,1.961-161.851,18.358
							C794.004,137.095,807.912,179.923,841.466,211.121z"/>
						<path d="M924.882,249.542c-28.823,0.002-60.214-12.187-85.742-35.92l0,0c-33.439-31.092-49.03-75.05-39.721-111.99
							l0.467-1.852l1.823-0.571c51.483-16.138,106.36-22.366,163.104-18.507l1.257,0.086l0.9,0.882
							c44.593,43.654,52.922,106.459,18.962,142.984C970.398,241.361,948.498,249.54,924.882,249.542z M805.599,105.151
							c-7.735,34.176,7.113,74.572,38.192,103.469l0,0c43.685,40.618,105.204,45.725,137.14,11.382
							c31.194-33.55,23.305-91.575-17.844-132.572C908.317,83.853,855.353,89.812,805.599,105.151z"/>
					</g>
					<path style="fill:#262121;" d="M641.695,286.817c0-24.293-8.797-46.199-22.895-61.754
						c-9.626,11.416-18.837,23.568-27.576,36.49c-21.692,32.076-35.945,69.909-40.323,108.447c5.403,1.45,11.025,2.242,16.81,2.242
						C608.571,372.242,641.695,333.996,641.695,286.817z"/>
					<path style="fill:#2E2D2D;" d="M657.228,312.508c0-147.826,311.66-210.153,451.569-163.16
						c78.576,26.393,130.495,110.775,104.539,173.177C1144.46,488.113,657.228,415.185,657.228,312.508z"/>
					<path style="fill:#2E2D2D;" d="M1085.75,107.978C914.394,51.4,709.783,86.24,591.224,261.553
						c-4.65,6.876-8.944,14.024-12.887,21.379c2.141,0.457,4.268,0.892,6.37,1.288C636.838,220.376,763.271,87.06,1085.75,107.978z"
						/>
					<path style="fill:#B3B3B3;" d="M1365.855,372.035c-40.27,198.02-428.64,206.078-570.581,124.039
						c-70.142-40.54-68.916-120.666-125.591-172.785c-22.79-20.958-51.543-40.156-82.879-54.926
						c-61.688,98.187-55.467,244.631,83.944,304.502c313.857,134.787,657.21-10,710.585-114.786
						C1379.83,428.085,1374.492,399.334,1365.855,372.035z"/>
					<path d="M583.631,303.988c29.457-39.159,65.295-73.562,106.037-100.611c40.687-27.163,85.891-46.961,132.63-60.331
						c46.788-13.42,95.071-20.637,143.417-23.832c48.387-3.191,96.898-2.364,145.201,0.499c-48.35-1.916-96.828-1.787-144.986,2.339
						c-48.117,4.126-95.971,12.26-142.009,26.45c-45.996,14.138-90.111,34.539-129.452,61.935
						c-39.402,27.292-73.684,61.55-101.663,100.289L583.631,303.988z"/>
				</g>
				<g>
					<path d="M392.104,86.62c-3.483,2.703-3.248,8.354-0.694,11.947c2.554,3.593,6.712,5.629,10.695,7.52
						c8.146,3.868,16.291,7.736,24.437,11.604c1.812,0.861,3.71,1.74,5.715,1.686c2.005-0.054,4.13-1.364,4.395-3.352
						c0.25-1.881-1.15-3.538-2.459-4.911c-5.829-6.113-11.836-12.171-18.94-16.742C408.15,89.802,399.785,86.779,392.104,86.62z"/>
					<path d="M502.725,260.64c-2.62,0-4.977-1.821-5.557-4.486c-8.099-37.333-17.278-79.649-40.102-113.053
						c-2.092-3.062-4.597-6.308-7.387-9.619c-0.345-0.06-0.687-0.152-1.026-0.279c-53.508-20.028-63.082-30.499-65.63-36.632
						c-1.487-3.584-0.82-6.497,0.002-8.311c2.06-4.545,5.961-7.29,10.985-7.726c19.994-1.755,58.254,35.364,72.453,56.146
						c24.08,35.24,33.51,78.71,41.83,117.062c0.666,3.071-1.284,6.101-4.356,6.768C503.531,260.598,503.125,260.64,502.725,260.64z
						 M393.657,92.472c0.836,1.551,6.017,8.189,36.815,21.272c-13.948-12.605-28.518-22.498-35.474-21.871
						C394.266,91.936,393.921,92.095,393.657,92.472z"/>
					<g>
						<path style="fill:#3D3030;" d="M361.895,415.929c17.715-56.607,51.441-108.109,96.248-146.975
							c36.369-31.548,84.14-55.509,131.492-46.804c65.172,11.981,104.449,79.712,121.087,143.853
							c12.52,48.264,17.258,99.556,5.207,147.94c-5.594,22.458-14.993,44.4-30.429,61.646
							c-35.626,39.803-95.286,46.933-148.512,42.411c-53.057-4.508-107.832-19.311-146.127-56.309
							C352.567,524.693,346.413,465.401,361.895,415.929z"/>
						<path d="M564.185,622.601c-9.562,0-18.808-0.461-27.485-1.198c-64.714-5.499-114.579-24.762-148.211-57.256
							c-35.709-34.5-47.427-93.081-29.853-149.239c18.03-57.613,51.665-108.976,97.269-148.534
							c25.679-22.272,77.289-58.071,134.347-47.582c56.423,10.372,102.693,65.084,123.776,146.355
							c14.38,55.438,16.135,105.779,5.215,149.621c-6.468,25.967-16.965,47.196-31.199,63.099
							C656.336,613.294,607.123,622.6,564.185,622.601z M569.461,223.74c-46.41,0-87.337,28.932-109.08,47.793
							c-44.646,38.727-77.576,89.011-95.226,145.414v0.001c-16.811,53.714-5.789,109.566,28.08,142.288
							c32.473,31.372,80.936,49.999,144.044,55.361c46.095,3.913,108.786-0.068,145.678-41.286
							c13.484-15.065,23.464-35.317,29.66-60.195c10.641-42.724,8.891-91.932-5.2-146.257
							c-7.641-29.458-38.763-126.711-118.398-141.353C582.42,224.295,575.884,223.74,569.461,223.74z"/>
					</g>
					<path style="fill:#B3B3B3;" d="M710.722,366.003c-10.139-39.086-28.703-79.482-56.392-107.806
						c103.823,213.478-25.93,368.092-243.488,319.867c36.143,25.169,81.743,36.163,126.147,39.936
						c53.226,4.522,112.886-2.608,148.512-42.411c15.436-17.245,24.835-39.187,30.429-61.646
						C727.98,465.56,723.242,414.268,710.722,366.003z"/>
					<path d="M437.885,555.689c-13.126,0-26.27-4.337-36.673-13.057c-1.446-1.211-1.635-3.365-0.424-4.81
						c1.21-1.443,3.366-1.638,4.81-0.423c18.446,15.458,47.932,14.997,65.733-1.026c1.402-1.264,3.563-1.147,4.822,0.253
						c1.262,1.402,1.148,3.56-0.253,4.822C465.371,550.925,451.637,555.689,437.885,555.689z"/>
					<path d="M488.338,555.537c-0.387,0-0.779-0.067-1.164-0.206c-11.637-4.218-24.837-20.047-19.357-38.792
						c0.53-1.808,2.422-2.85,4.236-2.32c1.811,0.53,2.849,2.427,2.32,4.236c-4.252,14.538,6.247,27.235,15.128,30.455
						c1.773,0.643,2.689,2.601,2.046,4.374C491.045,554.673,489.734,555.537,488.338,555.537z"/>
					<path d="M485.472,42.132c-3.012,0.951-4.24,4.825-3.384,7.866c0.855,3.041,3.178,5.412,5.416,7.642
						c10.27,10.232,20.937,20.73,34.417,26.066c1.634,0.647,3.357,1.221,5.11,1.093c1.753-0.128,3.547-1.117,4.141-2.771
						c0.647-1.802-0.25-3.758-1.152-5.447c-4.725-8.846-10.302-17.432-17.953-23.915C504.416,46.181,494.014,39.435,485.472,42.132z
						"/>
					<path d="M581.42,265.178c-0.117,0-0.235-0.003-0.354-0.011c-3.137-0.191-5.524-2.89-5.332-6.028
						c2.986-48.823-10.092-101.451-39.967-160.776c-56.415-32.418-61.991-46.058-61.282-53.501c0.387-4.054,2.995-7.2,7.154-8.63
						c4.85-1.667,10.367-1.084,16.873,1.79c21.74,9.596,34.768,30.497,45.609,51.655c32.088,62.624,46.145,118.284,42.972,170.158
						C586.91,262.852,584.404,265.178,581.42,265.178z M486.072,46.803c1.103,2.782,7.032,12.044,38.898,31.867
						c-8.093-13.046-17.837-24.402-31.053-30.235C490.594,46.967,488.015,46.431,486.072,46.803z"/>
					<path d="M513.921,308.183c-1.359,0-2.723-0.485-3.811-1.467c-2.333-2.106-2.517-5.706-0.41-8.038
						c7.677-8.502,18.623-13.975,30.029-15.017c11.406-1.035,23.164,2.359,32.253,9.328c2.494,1.913,2.967,5.484,1.054,7.979
						c-1.914,2.495-5.484,2.967-7.979,1.054c-6.847-5.249-15.708-7.809-24.293-7.025c-8.591,0.784-16.834,4.906-22.617,11.309
						C517.024,307.551,515.475,308.183,513.921,308.183z"/>
					<path d="M454.057,301.042c-1.06,0-2.132-0.297-3.089-0.916c-2.82-1.827-5.484-3.553-8.274-4.64
						c-1.831-0.714-4.535-1.434-7.038-0.832c-3.058,0.739-6.13-1.138-6.869-4.193c-0.739-3.055,1.138-6.13,4.193-6.869
						c4.255-1.027,9.043-0.582,13.848,1.288c3.871,1.509,7.303,3.733,10.331,5.693c2.638,1.708,3.391,5.232,1.682,7.871
						C457.749,300.126,455.922,301.042,454.057,301.042z"/>
					<g>
						<path style="fill:#FFFFFF;" d="M516.426,328.303c-64.988,28.138-30.823,178.548,55.707,134.482
							C633.39,431.589,588.386,297.146,516.426,328.303z"/>
						<path d="M541.974,474.243c-12.429,0-22.172-4.272-29.163-9.023c-22.737-15.455-36.376-49.954-33.17-83.897
							c2.554-27.044,15.467-47.511,35.427-56.153c37.536-16.254,66.007,10.193,78.986,37.776
							c17.261,36.682,14.36,85.194-20.372,102.881C561.682,471.939,551.104,474.243,541.974,474.243z M517.783,331.437
							c-17.606,7.623-29.029,26.039-31.342,50.529c-2.983,31.576,9.439,63.489,30.208,77.606
							c15.207,10.336,33.857,10.395,53.934,0.171c24.376-12.414,37.508-50.926,17.292-93.889
							C569.209,326.185,539.429,322.064,517.783,331.437L517.783,331.437z"/>
					</g>
					<path d="M502.73,382.55c0,31.913,21.979,57.784,49.091,57.784c23.694,0,43.466-19.76,48.075-46.043
						c-4.541-31.674-24.083-62.806-51.542-69.366C522.862,327.021,502.73,352.01,502.73,382.55z"/>
					<circle style="fill:#FFFFFF;" cx="521.809" cy="352.851" r="19.079"/>
					<g>
						<path style="fill:#FFFFFF;" d="M412.339,322.089c51.307,29.784-15.826,144.977-58.325,117.543
							C313.069,413.201,374.062,299.868,412.339,322.089z"/>
						<path d="M368.046,447.25c-5.634,0-10.98-1.583-15.884-4.749c-24.227-15.64-16.436-58.138,3.193-90.185
							c18.462-30.136,41.503-43.159,58.698-33.181c13.552,7.867,20.539,21.719,20.207,40.058
							c-0.559,30.879-23.087,69.713-48.208,83.103C379.859,445.598,373.801,447.25,368.046,447.25z M401.753,322.655
							c-13.885,0-29.607,15.323-40.575,33.228c-18.193,29.698-25.153,68.071-5.313,80.879c7.819,5.047,16.894,4.882,26.975-0.494
							c23.233-12.385,44.072-48.46,44.592-77.2c0.199-10.956-2.558-25.754-16.807-34.028l0,0
							C407.806,323.405,404.824,322.655,401.753,322.655z"/>
					</g>
					<path d="M424.018,332.926c-3.014-3.336-7.483-8.825-11.679-10.837c-7.501-3.597-11.883-3.066-22.864,0.222
						c-14.412,6.943-28.767,24.765-38.192,44.747c-2.314,18.465,5.418,36.05,20.826,43.439c16.077,7.709,35.582,1.96,48.566-12.739
						C431.567,375.293,435.245,349.6,424.018,332.926z"/>
					<circle style="fill:#FFFFFF;" cx="383.431" cy="346.88" r="16.964"/>
				</g>
				<path d="M926.454,818.817c-0.556,0-1.115-0.051-1.673-0.154c-18.086-3.378-58.93-29.509-67.882-45.801
					c-1.213-2.204-1.415-4.693-0.763-6.932c-0.642-1.945-0.94-3.744-1.164-5.091c-2.394-14.457-4.378-33.521-6.478-53.705
					c-2.761-26.536-5.617-53.977-9.82-76.212c-6.318-33.415-12.589-36.676-12.853-36.799c-2.83-0.716-15.038,0.243-35.306,5.992
					c-19.657,5.576-39.699,13.58-54.988,21.961c-4.412,2.413-9.945,0.804-12.363-3.608c-2.417-4.411-0.801-9.945,3.608-12.363
					c33.898-18.579,87.171-33.793,103.651-29.596c21.833,5.561,28.234,52.347,36.184,128.739c2.071,19.903,4.027,38.702,6.33,52.613
					c0.083,0.501,0.285,1.716,0.49,2.356c0.647,0.32,1.987,0.732,2.918,1.019l1.287,0.402c12.24,3.924,50.931,29.111,57.252,44.638
					c1.256,3.085,0.728,6.609-1.378,9.19C931.76,817.609,929.159,818.817,926.454,818.817z M873.537,760.493
					c0.001,0.001,0.001,0.001,0.001,0.001S873.538,760.495,873.537,760.493z"/>
				<path d="M1185.598,810.608c-23.885,0-57.071-21.185-68.729-31.991c-2.078-1.925-3.053-4.593-2.9-7.215
					c-6.538-9.012-8.524-20.857-9.872-28.891c-3.35-19.971-10.451-52.972-18.76-81.675c-14.021-48.433-22.979-55.596-24.326-56.432
					c-21.789-1.877-72.231,23.908-98.499,56.028c-3.183,3.893-8.919,4.468-12.813,1.284c-3.893-3.183-4.468-8.92-1.284-12.813
					c28.866-35.298,84.685-65.721,114.878-62.576c9.665,1.003,21.794,9.606,38.47,65.801c10.238,34.503,17.573,71.153,20.293,87.37
					c1.808,10.784,4.142,21.594,10.915,24.941c0.92,0.447,4.511,1.647,7.677,2.707c22.764,7.616,45.608,16.212,52.986,30.08
					c1.502,2.822,1.413,6.226-0.233,8.966C1191.758,808.932,1188.795,810.608,1185.598,810.608z M1060.847,604.312L1060.847,604.312
					L1060.847,604.312z"/>
				<path d="M1396.036,751.464c-0.218,0-0.438-0.008-0.66-0.023c-26.108-1.892-67.515-17.896-75.642-39.663
					c-0.31-0.829-0.491-1.676-0.554-2.518c-0.303-0.659-0.578-1.343-0.821-2.052c-6.363-18.486-11.643-39.29-16.749-59.408
					c-5.857-23.073-11.912-46.933-19.447-66.453c-4.095-10.61-11.716-21.904-20.854-21.904c-0.044,0-0.088,0-0.132,0
					c-6.214,0.074-12.59,5.303-18.08,10.197c-17.069,15.221-33.03,31.946-47.438,49.71c-3.168,3.904-8.905,4.502-12.808,1.335
					c-3.905-3.168-4.503-8.902-1.335-12.808c15.024-18.521,31.664-35.958,49.461-51.829c8.536-7.611,18.075-14.674,29.984-14.815
					c0.122-0.002,0.245-0.002,0.366-0.002c15.816,0,29.587,12.207,37.827,33.559c7.928,20.538,14.12,44.935,20.108,68.529
					c5.015,19.759,10.199,40.19,16.317,57.961c1.358,3.947,11.244,7.262,20.804,10.466c13.937,4.672,31.281,10.486,45.829,23.922
					c2.843,2.625,3.715,6.76,2.176,10.311C1402.939,749.327,1399.642,751.464,1396.036,751.464z"/>
			</g>
		</g>
		<g>
			<g>
				<g>
					<path style="fill:#FFFFFF;" d="M366.851,1839.06c-14.391-12.283-33.786-17.995-52.674-16.701
						c-54.149-78.356-102.36-159.037-144.372-237.399c74.409,1.478,143.011-6.342,209.758-18.757
						c8.477,9.634,22.755,14.426,35.055,10.29c4.481-1.507,8.618-3.989,13.204-5.134c6.382-1.593,13.137-0.48,19.644-1.444
						c12.076-1.789,21.465-11.976,24.697-23.61c184.614-43.943,369.134-106.757,640.536-84.966
						c104.475,8.388,208.627,41.116,299.074,92.765c-2.95,6.995-3.34,15.316-0.55,22.418c5.434,13.834,19.746,22.624,34.357,25.35
						c6.263,1.169,12.775,1.433,18.681,3.823c14.037,5.68,20.705,21.239,27.817,34.607c8.127,15.276,21.475,30.89,38.765,30.202
						c4.307-0.171,8.908-1.331,12.736,0.653c7.411,3.841,5.407,14.769,7.74,22.784c3.441,11.822,18.613,17.44,30.169,13.19
						c2.708-0.996,5.188-2.41,7.448-4.127c77.028,96.58,116.794,216.22,93.268,348.425
						c-16.926,95.119-85.734,163.571-171.586,211.716c-0.672-0.303-1.348-0.594-2.028-0.87c-11.226-4.545-23.469-5.789-35.521-6.986
						c-8.65-0.86-19.165-0.873-23.836,6.458c-1.797,2.82-2.333,6.284-4.029,9.166c-3.777,6.414-12.188,8.333-19.632,8.245
						s-15.093-1.522-22.201,0.687c-15.315,4.76-20.79,23.204-23.939,38.929c-0.017,0.087-0.035,0.174-0.052,0.26
						c-42.037,13.449-84.149,23.464-123.241,30.593c-122.845,22.403-238.034,11.624-345.085-23.262
						c-2.886-9.449-6.148-18.783-9.798-27.964c-4.223-10.623-9.349-21.551-18.644-28.205c-12.677-9.074-30.951-8.604-42.108-19.492
						c-7.643-7.458-10.203-18.649-16.262-27.443c-11.746-17.049-37.72-22.156-55.047-10.824c-3.715,2.43-7.257,5.573-11.657,6.167
						c-6.489,0.875-12.14-3.983-17.408-7.872c-19.818-14.631-47.033-17.851-70.194-9.835
						c-106.546-76.989-202.053-175.808-285.801-283.18c1.529-3.24,2.848-6.578,3.868-10.046
						C395.145,1883.394,386.098,1855.488,366.851,1839.06z"/>
					<path d="M1128.622,2364.692c-73.768,0-146.916-11.712-218.627-35.081l-1.688-0.55l-0.519-1.7
						c-2.875-9.408-6.14-18.728-9.706-27.699c-3.815-9.597-8.625-20.366-17.458-26.689c-5.309-3.801-11.748-5.807-18.566-7.93
						c-8.486-2.644-17.261-5.379-23.94-11.896c-4.995-4.874-7.931-11.042-10.771-17.005c-1.865-3.918-3.627-7.62-5.918-10.943
						c-10.648-15.456-34.652-20.177-50.366-9.904c-0.747,0.489-1.487,1.008-2.229,1.529c-3.065,2.148-6.538,4.584-10.84,5.164
						c-7.254,0.978-13.163-3.461-18.378-7.377l-1.515-1.132c-18.521-13.674-44.214-17.259-67.048-9.355l-1.678,0.58l-1.438-1.039
						c-98.984-71.524-195.374-167.025-286.492-283.848l-1.293-1.656l0.897-1.901c1.555-3.298,2.759-6.422,3.68-9.553
						c6.632-22.543-1.631-49.292-20.092-65.049c-13.326-11.374-31.639-17.169-50.224-15.892l-1.939,0.132l-1.104-1.599
						c-50.67-73.321-99.311-153.304-144.572-237.726l-2.758-5.144l5.835,0.117c66.896,1.325,133.331-4.613,209.065-18.701
						l1.907-0.355l1.28,1.456c7.944,9.027,20.858,12.855,31.404,9.308c1.747-0.587,3.459-1.345,5.271-2.147
						c2.588-1.146,5.264-2.331,8.195-3.062c4.001-0.998,8.003-1.036,11.872-1.073c2.831-0.027,5.504-0.051,8.096-0.436
						c10.002-1.482,18.806-9.979,21.907-21.146l0.539-1.942l1.961-0.467c27.764-6.608,56.152-13.803,83.606-20.76
						c160.705-40.729,326.881-82.841,557.993-64.287c104.501,8.391,208.41,40.62,300.495,93.203l2.63,1.502l-1.177,2.791
						c-2.694,6.39-2.888,13.808-0.518,19.842c5.409,13.77,19.976,21.035,31.805,23.242c1.819,0.339,3.659,0.599,5.499,0.86
						c4.574,0.649,9.305,1.319,13.838,3.153c13.631,5.516,20.828,19.391,27.178,31.633c0.793,1.527,1.579,3.046,2.372,4.535
						c5.801,10.903,18.172,29.15,35.615,28.394c0.967-0.038,1.95-0.131,2.935-0.222c3.615-0.335,7.704-0.717,11.508,1.256
						c6.713,3.478,7.515,10.85,8.224,17.354c0.296,2.715,0.575,5.28,1.223,7.506c1.188,4.085,4.254,7.551,8.63,9.76
						c5.273,2.661,11.817,3.113,17.082,1.179c2.273-0.837,4.481-2.062,6.559-3.641l2.657-2.017l2.08,2.608
						c83.678,104.92,116.17,226.347,93.96,351.152c-15.335,86.185-73.634,158.216-173.276,214.095l-1.504,0.844l-1.572-0.709
						c-0.631-0.286-1.267-0.559-1.906-0.818c-10.86-4.397-22.916-5.594-34.576-6.753c-7.665-0.761-16.933-0.893-20.619,4.895
						c-0.733,1.149-1.247,2.575-1.792,4.085c-0.59,1.634-1.202,3.324-2.175,4.979c-5.186,8.809-16.374,10.018-22.614,9.926
						c-2.062-0.024-4.141-0.148-6.219-0.273c-5.313-0.319-10.334-0.621-14.929,0.807c-13.541,4.209-18.658,21.631-21.604,36.339
						l-0.395,1.97l-1.965,0.873c-39.289,12.57-80.896,22.899-123.668,30.7C1213.943,2360.793,1171.178,2364.69,1128.622,2364.692z
						 M913.794,2323.664c111.467,36.027,226.431,43.634,341.732,22.603c41.793-7.622,82.459-17.672,120.908-29.879
						c3.388-16.178,9.53-34.709,25.922-39.805c5.788-1.796,11.675-1.443,17.366-1.102c1.969,0.119,3.937,0.238,5.89,0.261
						c3.831,0.069,13.081-0.502,16.649-6.563c0.651-1.106,1.129-2.43,1.636-3.833c0.647-1.793,1.316-3.646,2.455-5.434
						c5.688-8.928,17.443-8.975,27.055-8.022c12.139,1.206,24.693,2.453,36.464,7.218c0.185,0.076,0.368,0.151,0.551,0.228
						c96.869-54.711,153.535-124.857,168.42-208.505c21.68-121.835-9.646-240.441-90.606-343.212
						c-1.796,1.105-3.659,2.014-5.569,2.717c-7.086,2.61-15.505,2.048-22.519-1.492c-6.085-3.072-10.385-8.026-12.109-13.949
						c-0.815-2.801-1.139-5.788-1.454-8.676c-0.694-6.369-1.348-10.357-4.577-12.03c-2.026-1.05-4.797-0.792-7.733-0.52
						c-1.106,0.103-2.21,0.204-3.296,0.248c-21.215,0.848-35.361-19.694-41.915-32.011c-0.804-1.511-1.602-3.049-2.405-4.598
						c-6.089-11.739-12.386-23.877-23.677-28.447c-3.758-1.521-7.876-2.105-12.236-2.723c-1.937-0.275-3.876-0.551-5.791-0.908
						c-17.389-3.245-31.531-13.766-36.909-27.46c-2.654-6.756-2.797-14.828-0.475-22.126
						c-90.596-51.247-192.585-82.665-295.146-90.901c-229.983-18.458-395.604,23.508-555.768,64.099
						c-26.853,6.806-54.598,13.838-81.803,20.332c-4.277,12.756-14.866,22.338-26.888,24.119c-3.058,0.452-6.096,0.481-9.032,0.509
						c-3.633,0.034-7.064,0.067-10.284,0.87c-2.359,0.588-4.654,1.604-7.083,2.68c-1.875,0.83-3.814,1.688-5.86,2.376
						c-12.495,4.199-27.578,0.16-37.367-9.827c-73.237,13.522-137.898,19.446-202.77,18.569
						c44.03,81.704,91.223,159.179,140.329,230.371c19.671-0.873,38.966,5.496,53.168,17.62
						c20.445,17.45,29.578,47.127,22.211,72.171c-0.839,2.851-1.884,5.687-3.177,8.615
						c89.907,115.009,184.915,209.156,282.415,279.854c24.504-7.88,51.795-3.771,71.64,10.882l1.558,1.163
						c4.37,3.281,8.897,6.678,13.364,6.071c2.655-0.358,5.17-2.121,7.832-3.987c0.803-0.563,1.604-1.124,2.412-1.653
						c18.967-12.403,46.873-6.915,59.729,11.744c2.599,3.771,4.562,7.895,6.46,11.883c2.7,5.672,5.251,11.03,9.374,15.052
						c5.505,5.373,13.131,7.749,21.203,10.264c7.034,2.191,14.307,4.457,20.509,8.897c9.847,7.048,15.349,18.449,19.83,29.719
						C907.847,2305.74,910.995,2314.656,913.794,2323.664z M1379.289,2318.756l0.141,0.018l-0.145-0.029L1379.289,2318.756z"/>
				</g>
				<g>
					<path style="fill:#FFFFFF;" d="M1752.673,2292.161l-10.266-27.384c-1.727-4.556-3.391-9.136-5.169-13.671l-5.74-13.453
						c-3.87-8.948-7.561-17.971-11.583-26.849l-12.696-26.353c-17.551-34.802-36.653-68.912-58.827-101.011l-8.118-12.157
						l-8.667-11.778l-8.679-11.764l-4.34-5.88l-2.176-2.935l-2.305-2.836l-17.036-20.947
						c10.937-42.597,18.107-85.876,22.186-129.317c4.297-46.844,5.01-93.97,0.949-140.589c0.648,46.783-3.497,93.405-11.108,139.273
						c-6.454,38.393-15.381,76.328-27.092,113.189l-5.603-6.262l-9.743-10.883c-3.297-3.581-6.795-6.976-10.182-10.472
						l-10.24-10.412l-5.12-5.204c-1.695-1.746-3.406-3.476-5.221-5.1l-21.421-19.837c-1.796-1.64-3.546-3.331-5.379-4.928
						l-5.577-4.706l-11.152-9.407l-11.152-9.401c-3.772-3.066-7.688-5.953-11.524-8.936l-11.565-8.879l-5.782-4.437l-2.891-2.218
						l-2.985-2.09l-23.895-16.683c-2.005-1.369-3.951-2.824-6.004-4.121l-6.151-3.9l-12.3-7.796l-12.298-7.791
						c-4.157-2.5-8.402-4.856-12.598-7.289l-12.621-7.243l-6.31-3.62l-3.154-1.809l-3.229-1.674l-4.222-2.187
						c8.144-47.607,10.895-95.817,9.433-143.721c-1.662-50.956-8.119-101.697-20.15-151c9.433,49.859,13.177,100.588,12.182,151.044
						c-0.999,45.923-5.952,91.736-15.676,136.316l-7.393-3.83c-2.159-1.099-4.286-2.263-6.472-3.307l-6.588-3.068l-13.175-6.134
						l-13.172-6.13c-4.405-2.01-8.922-3.764-13.377-5.657c-8.953-3.686-17.845-7.518-26.843-11.076
						c-18.17-6.667-36.209-13.68-54.706-19.349c-18.294-6.29-37.005-11.178-55.573-16.502c-9.35-2.418-18.762-4.593-28.137-6.898
						l-14.08-3.381l-14.187-2.891c-0.28-0.061-0.56-0.118-0.84-0.179c0.418-22.778-1.956-45.364-5.99-67.521
						c-4.301-23.375-10.485-46.331-18.407-68.637c-7.93-22.295-17.473-44.027-29.158-64.571
						c-5.855-10.258-12.262-20.21-19.432-29.588c-7.134-9.389-15.224-18.108-24.404-25.467c8.877,7.727,16.551,16.704,23.258,26.311
						c6.738,9.593,12.689,19.712,18.078,30.104c10.751,20.811,19.319,42.688,26.256,65.003c6.93,22.323,12.099,45.171,15.383,68.215
						c2.988,21.205,4.389,42.644,3.293,63.828c-33.842-6.83-68.059-11.545-102.293-15.491l-28.771-2.754l-7.193-0.667l-7.21-0.447
						l-14.418-0.894c-19.208-1.462-38.467-1.75-57.702-2.345c-4.808-0.201-9.62-0.164-14.431-0.14l-14.432,0.044
						c-4.921,0.049-9.843,0.018-14.764,0.037c-1.494-8.018-3.669-15.729-6.1-23.321c-3.004-9.287-6.455-18.367-10.153-27.326
						c-7.412-17.91-15.805-35.341-24.942-52.358c-9.127-17.017-19.028-33.624-29.994-49.51
						c-5.502-7.926-11.288-15.669-17.617-22.959c-6.349-7.213-13.144-14.315-21.543-19.109c8.194,5.119,14.642,12.425,20.67,19.84
						c5.998,7.486,11.44,15.402,16.594,23.489c10.268,16.207,19.449,33.086,27.837,50.324c8.395,17.233,16.029,34.838,22.632,52.765
						c3.293,8.963,6.326,18.013,8.887,27.145c1.951,7.012,3.653,14.105,4.758,21.149c-1.706,0.046-3.412,0.102-5.117,0.186
						l-28.832,0.994l-7.206,0.262l-7.196,0.47l-14.389,0.94l-57.273,3.756l-28.598,1.033c-4.767,0.229-9.536,0.253-14.306,0.264
						l-14.311,0.083c-15.634-0.008-31.271-0.326-46.899-0.948l-0.026-0.052c-0.03,0.016-0.059,0.032-0.089,0.047
						c-4.523-0.18-9.045-0.386-13.566-0.621c-3.304-27.903-11.593-54.958-23.566-80.081c-12.52-26.092-29.115-50.27-49.689-70.431
						c19.757,20.958,35.244,45.611,46.58,71.844c10.7,24.932,17.707,51.461,19.932,78.294c-15.694-0.913-31.372-2.146-47.016-3.769
						c-37.97-4.099-75.735-10.217-113.037-18.543l-8.133-1.9c-5.859-35.807-21.416-69.734-44.388-97.285
						c21.429,28.023,35.168,61.591,39.653,96.179l-1.091-0.255c-4.64-1.137-9.339-2.054-13.925-3.402l-27.658-7.575
						c-9.152-2.753-18.239-5.73-27.366-8.586l-6.839-2.163l-6.745-2.435l-13.493-4.875c-5.415-1.995-10.808-4.053-16.183-6.159
						c-3.7-9.476-9.065-18.043-14.748-26.276c-5.818-8.347-12.133-16.302-18.494-24.208c6.061,8.137,12.071,16.322,17.548,24.841
						c4.985,7.824,9.651,15.937,12.882,24.539c-29.272-11.59-57.91-24.823-85.675-39.763c27.947,15.715,56.866,29.698,86.499,42.005
						c0.006,0.019,0.014,0.037,0.02,0.055l0.061-0.022c5.249,2.179,10.519,4.308,15.811,6.382
						c-21.742,5.418-43.877,9.502-65.635,15.068c22.978-5.095,46.252-8.518,69.289-13.626l-0.007-0.029l11.314,4.327l6.721,2.568
						l6.816,2.297c9.098,3.033,18.162,6.19,27.296,9.124l27.619,8.118c4.582,1.439,9.278,2.447,13.917,3.675l7.538,1.909
						c-19.946,9.637-39.471,20.193-58.082,32.192c-19.973,12.806-38.759,27.303-56.852,42.531
						c18.576-14.643,37.783-28.501,58.053-40.597c20.239-12.147,41.421-22.607,63.028-32.039l-0.272-0.598l0.543,0.137
						c37.31,9.059,75.161,15.916,113.286,20.749c18.433,2.259,36.927,3.995,55.455,5.281c-13.696,7.831-26.841,16.49-39.65,25.566
						c-16.651,11.943-32.585,24.784-48.194,37.969c-15.557,13.251-30.621,27.05-45.375,41.152
						c-14.716,14.142-29.148,28.579-43.018,43.535c14.281-14.563,29.1-28.581,44.183-42.287
						c15.12-13.665,30.528-27.007,46.39-39.772c15.91-12.696,32.112-25.022,48.941-36.394c15.89-10.608,32.225-20.531,49.231-28.979
						c15.662,0.912,31.343,1.521,47.032,1.82l14.42,0.183c4.807,0.078,9.615,0.142,14.42,0.001l28.844-0.506l57.469-2.697
						l14.296-0.667l7.147-0.334l7.154-0.126l28.612-0.455c8.624-0.266,17.249,0.031,25.871,0.15
						c-30.299,17.056-59.907,35.325-88.534,55.03c-33.785,23.241-66.193,48.475-96.842,75.669
						c-30.662,27.18-59.543,56.314-86.648,86.966c-27.125,30.644-52.473,62.79-76.607,95.779
						c24.742-32.537,50.666-64.183,78.298-94.255c27.612-30.082,56.93-58.574,87.946-85.057
						c31.004-26.497,63.685-50.98,97.675-73.443c33.196-21.953,67.626-41.979,102.874-60.419c4.389,0.059,8.778,0.123,13.16,0.389
						c19.04,0.946,38.091,1.581,57.065,3.382l14.241,1.148l7.119,0.573l7.098,0.792l28.376,3.249
						c37.722,5.063,75.349,11.049,112.348,19.835l13.912,3.103l13.5,3.51c-99.355,39.162-191.656,94.9-273.826,162.398
						c-43.154,35.465-83.576,74.201-120.742,115.808c-37.141,41.617-71.083,86.103-100.655,133.338
						c30.372-46.726,65.018-90.556,102.761-131.425c37.767-40.858,78.688-78.75,122.211-113.293
						c87.017-69.038,184.676-124.783,289.081-161.888c3.006,0.796,6.009,1.6,9.004,2.433c18.152,5.579,36.439,10.71,54.271,17.221
						c18.044,5.892,35.594,13.106,53.266,19.956c8.745,3.649,17.377,7.564,26.068,11.33c4.323,1.933,8.71,3.726,12.98,5.772
						l12.762,6.234l12.76,6.23l6.379,3.114c2.115,1.059,4.17,2.236,6.258,3.348l24.953,13.519l3.118,1.689l3.042,1.823l6.084,3.645
						l12.166,7.286c1.797,1.087,3.604,2.158,5.409,3.234c-47.409,18.972-93.735,40.643-138.324,65.464
						c-48.886,27.205-95.674,58.209-139.251,93.211c-43.578,34.981-83.914,73.968-119.925,116.569
						c-36.026,42.583-67.702,88.762-94.357,137.619c27.815-48.21,60.515-93.501,97.369-135.012
						c36.842-41.531,77.813-79.268,121.828-112.906c44.016-33.658,91.049-63.227,140.024-88.971
						c48.103-25.293,98.07-46.909,149.127-65.439l2.065,1.364l11.826,7.805l5.912,3.901c1.973,1.297,3.838,2.751,5.762,4.118
						l22.917,16.641l2.862,2.082l2.766,2.208l5.532,4.415l11.063,8.826c3.669,2.964,7.417,5.83,11.02,8.871l10.641,9.322
						l10.64,9.316l5.32,4.656c1.747,1.58,3.411,3.253,5.12,4.874l20.382,19.589c1.729,1.601,3.352,3.308,4.96,5.029l4.859,5.13
						l9.717,10.256c3.213,3.442,6.536,6.78,9.659,10.303l9.22,10.701l9.22,10.694l4.61,5.345c1.516,1.799,2.919,3.693,4.384,5.534
						l4.344,5.548c-30.816,16.304-60.418,34.708-88.758,54.733c-33.609,23.744-65.466,49.742-95.803,77.268
						c-60.695,55.103-115.296,116.142-166.84,179.327c54.138-60.974,111.162-119.547,173.564-171.598
						c31.187-26.004,63.705-50.334,97.682-72.264c29.77-19.22,60.667-36.584,92.589-51.586l0.628,0.802l2.176,2.777l2.047,2.875
						l4.083,5.758l8.166,11.511l8.155,11.512l7.612,11.885c20.823,31.349,38.622,64.61,54.929,98.477l11.774,25.638
						c3.72,8.637,7.114,17.419,10.689,26.116l5.3,13.071c1.634,4.41,3.156,8.866,4.74,13.295l9.42,26.601l0.279,0.788
						c0.025,0.07,0.051,0.141,0.078,0.211c3.31,8.829,13.151,13.303,21.98,9.994
						C1751.508,2310.832,1755.983,2300.991,1752.673,2292.161z"/>
					<path d="M1228.658,2349.939l-3.807-3.24c59.852-73.368,112.947-130.437,167.097-179.597
						c31.739-28.799,64.052-54.86,96.041-77.459c28.278-19.981,57.329-37.971,86.394-53.498l-2.505-3.2
						c-0.514-0.645-1.03-1.31-1.547-1.976c-0.901-1.163-1.834-2.364-2.781-3.488l-23.032-26.719
						c-1.952-2.202-4.06-4.408-6.098-6.542c-1.17-1.225-2.34-2.449-3.496-3.688l-14.563-15.373c-1.44-1.541-3.109-3.308-4.844-4.914
						l-20.416-19.619c-0.604-0.572-1.212-1.162-1.821-1.752c-1.058-1.024-2.15-2.082-3.244-3.072l-26.571-23.266
						c-2.256-1.904-4.661-3.811-6.987-5.653c-1.322-1.047-2.645-2.095-3.956-3.154l-19.306-15.404l-25.731-18.687
						c-0.673-0.479-1.359-0.982-2.045-1.486c-1.236-0.908-2.403-1.766-3.621-2.566l-18.759-12.38
						c-52.314,19.043-101.978,40.865-147.635,64.873c-50.128,26.35-97.119,56.207-139.669,88.743
						c-44.521,34.025-85.392,71.902-121.477,112.579c-36.793,41.441-69.453,86.728-97.074,134.602l-4.36-2.446
						c26.672-48.891,58.515-95.333,94.643-138.036c35.531-42.032,75.995-81.364,120.269-116.903
						c42.379-34.041,89.347-65.48,139.6-93.446c41.584-23.148,86.621-44.573,133.929-63.716c-0.364-0.219-0.728-0.438-1.092-0.657
						l-21.235-12.721l-28.024-15.182c-0.733-0.391-1.477-0.797-2.221-1.204c-1.298-0.71-2.641-1.444-3.966-2.107l-31.879-15.566
						c-2.696-1.292-5.526-2.519-8.264-3.705c-1.549-0.671-3.098-1.343-4.639-2.031c-3.091-1.339-6.202-2.709-9.313-4.079
						c-5.461-2.405-11.108-4.894-16.697-7.225c-3.716-1.44-7.485-2.92-11.255-4.4c-13.618-5.347-27.701-10.875-41.824-15.487
						c-13.5-4.928-27.444-9.122-40.929-13.178c-4.436-1.335-8.873-2.669-13.301-4.03c-2.678-0.745-5.416-1.479-8.162-2.208
						c-101.679,36.23-198.449,90.474-287.635,161.231c-43.468,34.5-84.491,72.529-121.929,113.032
						c-38.743,41.951-73.229,86.057-102.501,131.09l-4.215-2.688c28.679-45.81,62.629-90.784,100.909-133.677
						c37.045-41.472,77.762-80.524,121.019-116.074c82.725-67.954,172.652-121.746,267.407-159.966l-6.122-1.591l-13.828-3.083
						c-31.812-7.554-66.386-13.656-112.136-19.797l-35.419-4.035l-21.283-1.713c-14.965-1.421-30.227-2.126-44.986-2.809
						c-4-0.186-8.001-0.37-12.001-0.568c-4.224-0.257-8.557-0.325-12.438-0.378c-36.273,18.998-70.619,39.183-102.094,59.996
						c-34.274,22.651-67.054,47.299-97.43,73.259c-30.216,25.799-59.731,54.345-87.729,84.847
						c-25.798,28.077-51.361,58.851-78.15,94.078l-4.007-2.99c26.239-35.867,51.345-67.256,76.752-95.96
						c27.643-31.261,56.868-60.593,86.861-87.18c30.199-26.796,62.863-52.318,97.083-75.857
						c25.194-17.342,52.33-34.352,80.767-50.632c-5.492-0.096-11.101-0.161-16.61,0.01l-35.799,0.582l-78.839,3.696l-28.917,0.509
						c-4.726,0.139-9.367,0.081-14.504-0.001l-14.412-0.184c-15.407-0.295-31.037-0.896-46.481-1.786
						c-15.042,7.511-30.869,16.847-48.362,28.524c-14.776,9.985-30.276,21.513-48.769,36.269
						c-14.594,11.744-29.732,24.724-46.273,39.673c-16.727,15.199-31.146,28.999-44.074,42.182l-3.618-3.45
						c12.62-13.608,26.724-27.882,43.119-43.638c16.226-15.509,31.103-29.001,45.486-41.253
						c18.277-15.438,33.641-27.542,48.358-38.097c11.682-8.278,22.514-15.399,32.903-21.627c-16.199-1.241-32.161-2.82-47.556-4.707
						c-38.277-4.853-76.029-11.741-112.248-20.481l-0.005,0.002c-23.708,10.35-44.23,20.782-62.741,31.893
						c-18.059,10.775-36.96,23.995-57.792,40.416l-3.157-3.876c20.482-17.239,39.164-31.214,57.112-42.723
						c15.657-10.094,32.792-19.725,52.209-29.338l-0.931-0.236c-1.584-0.419-3.148-0.806-4.711-1.193
						c-3.066-0.76-6.236-1.545-9.34-2.52l-27.575-8.104c-5.966-1.915-11.932-3.936-17.702-5.889c-3.226-1.093-6.45-2.185-9.68-3.261
						l-6.824-2.3l-17.38-6.642c-11.351,2.5-22.908,4.629-34.092,6.688c-11.342,2.09-23.07,4.25-34.506,6.785l-1.161-4.862
						c11.455-2.931,23.18-5.488,34.52-7.962c7.727-1.686,15.653-3.415,23.505-5.265c-2.555-1.029-5.112-2.073-7.654-3.126
						l-1.476,0.52l-0.497-1.338c-29.692-12.379-58.541-26.412-85.759-41.718l2.41-4.38c25.485,13.713,52.338,26.294,79.904,37.438
						c-3.197-7.052-7.134-13.536-10.404-18.668c-5.514-8.578-11.642-16.901-17.444-24.691l3.953-3.061
						c6.154,7.648,12.66,15.828,18.597,24.346c5.024,7.277,10.651,15.986,14.619,25.772c5.16,2.016,10.245,3.946,15.126,5.746
						l20.172,7.286l6.793,2.147c3.233,1.012,6.467,2.04,9.702,3.069c5.773,1.836,11.743,3.735,17.631,5.506l27.599,7.559
						c3.005,0.883,6.104,1.589,9.1,2.272c0.759,0.173,1.518,0.346,2.276,0.521c-4.923-33.168-18.249-64.693-38.661-91.387
						l3.906-3.119c23.101,27.705,38.521,61.155,44.657,96.83l6.512,1.521c36.382,8.121,74.32,14.345,112.737,18.492
						c14.098,1.463,28.889,2.668,43.999,3.586c-2.39-24.979-8.939-50.072-19.482-74.64c-11.758-27.21-27.27-51.139-46.102-71.115
						l3.569-3.5c20.114,19.71,37.001,43.644,50.193,71.134c12.234,25.67,20.147,52.159,23.537,78.773
						c3.537,0.177,7.151,0.34,10.78,0.486l1.698-0.876l0.512,0.965c15.096,0.581,30.351,0.88,45.366,0.889l14.295-0.084
						c5.033-0.012,9.568-0.039,14.201-0.261l28.627-1.034l78.786-5.161l7.278-0.266l28.837-0.994
						c0.748-0.037,1.504-0.069,2.264-0.097c-0.968-5.414-2.359-11.357-4.227-18.07c-2.335-8.326-5.222-17.145-8.825-26.952
						c-6.291-17.079-13.872-34.754-22.533-52.532c-8.973-18.442-18.034-34.823-27.701-50.082
						c-5.856-9.188-11.079-16.581-16.433-23.263c-5.398-6.641-11.855-14.168-20.043-19.283l2.564-4.291
						c9.092,5.19,16.216,12.853,22.18,19.629c5.783,6.66,11.434,14.023,17.794,23.185c10.434,15.116,20.292,31.389,30.143,49.754
						c9.518,17.728,17.946,35.419,25.049,52.583c4.11,9.959,7.454,18.957,10.221,27.513c2.622,8.187,4.477,15.108,5.782,21.585
						c1.45-0.002,2.901-0.001,4.351-0.002c2.776,0,5.552-0.002,8.328-0.029l15.227-0.048c4.503-0.02,9.16-0.046,13.765,0.146
						c3.952,0.122,7.932,0.232,11.913,0.342c15.035,0.416,30.582,0.845,45.874,2.008l21.593,1.339l7.269,0.673l28.778,2.755
						c39.98,4.607,70.878,9.241,99.692,14.957c0.778-18.878-0.34-38.69-3.406-60.457c-3.244-22.762-8.391-45.582-15.295-67.823
						c-7.3-23.481-16.078-45.216-26.089-64.597c-5.768-11.124-11.624-20.878-17.902-29.814c-7.051-10.1-14.738-18.799-22.854-25.862
						l3.206-3.836c8.739,7.006,17.093,15.722,24.83,25.904c6.816,8.915,13.232,18.686,19.612,29.861
						c11.041,19.412,20.912,41.271,29.342,64.973c8,22.525,14.229,45.748,18.51,69.023c4.306,23.646,6.292,45.243,6.061,65.945
						l12.996,2.648l14.165,3.399c3.303,0.813,6.598,1.605,9.893,2.398c5.998,1.443,12.201,2.937,18.287,4.511
						c4.495,1.287,8.935,2.533,13.375,3.779c13.959,3.917,28.394,7.968,42.385,12.778c14.659,4.49,29.317,9.936,43.494,15.201
						c3.751,1.393,7.503,2.786,11.26,4.165c5.918,2.339,11.818,4.809,17.525,7.196c3.133,1.311,6.267,2.622,9.407,3.915
						c1.592,0.676,3.166,1.324,4.739,1.972c2.868,1.182,5.834,2.403,8.725,3.723l32.953,15.34c1.474,0.705,2.903,1.451,4.286,2.174
						c0.753,0.394,1.506,0.787,2.264,1.172l4.505,2.333c8.904-41.87,13.927-86.479,14.932-132.646
						c1.023-51.896-3.062-102.541-12.14-150.524l4.885-1.058c11.701,47.948,18.504,98.924,20.221,151.51
						c1.506,49.395-1.576,97.297-9.163,142.423l5.924,3.073l22.086,12.671c1.491,0.865,2.979,1.715,4.465,2.564
						c2.688,1.535,5.468,3.123,8.177,4.752l30.8,19.519c1.375,0.869,2.704,1.807,3.988,2.713c0.693,0.488,1.386,0.978,2.085,1.455
						l26.993,18.855l20.238,15.533c1.354,1.054,2.707,2.086,4.06,3.118c2.479,1.893,5.043,3.85,7.52,5.861l27.916,23.544
						c1.244,1.084,2.428,2.187,3.572,3.253c0.625,0.582,1.249,1.164,1.88,1.739l21.433,19.85c1.907,1.705,3.745,3.575,5.315,5.191
						l15.35,15.605c1.202,1.241,2.405,2.455,3.608,3.671c2.196,2.218,4.467,4.511,6.631,6.861l12.44,13.896
						c10.72-34.443,19.358-70.976,25.692-108.662c7.959-47.964,11.686-94.673,11.074-138.825l4.99-0.251
						c3.875,44.472,3.555,91.923-0.95,141.034c-4.186,44.577-11.565,87.795-21.94,128.488l18.615,22.896l23.934,32.457l8.117,12.156
						c19.974,28.913,38.723,61.104,58.981,101.274l12.715,26.395c2.654,5.856,5.179,11.807,7.62,17.561
						c1.328,3.13,2.655,6.26,4.006,9.381l5.745,13.464c1.185,3.021,2.309,6.03,3.396,8.94c0.602,1.609,1.202,3.219,1.812,4.826
						l10.27,27.392c3.789,10.106-1.352,21.411-11.457,25.199c-4.895,1.834-10.211,1.655-14.973-0.51
						c-4.759-2.164-8.391-6.052-10.226-10.947l-0.373-1.041l-9.42-26.602c-0.566-1.582-1.127-3.175-1.687-4.769
						c-0.982-2.792-1.999-5.68-3.041-8.492l-5.272-13.001c-1.283-3.121-2.548-6.265-3.813-9.409
						c-2.206-5.483-4.486-11.154-6.856-16.657l-11.75-25.584c-18.775-38.993-36.176-70.19-54.74-98.138l-7.603-11.87l-22.381-31.557
						l-1.537-1.963c-30.249,14.318-60.686,31.328-90.495,50.574c-32.271,20.829-65.053,45.081-97.437,72.084
						C1346.275,2225.044,1291.21,2279.488,1228.658,2349.939z M1591.363,2049.721l4.1,5.239l22.52,31.757l7.611,11.885
						c18.672,28.108,36.18,59.495,55.077,98.742l11.793,25.679c2.419,5.613,4.711,11.313,6.928,16.824
						c1.26,3.132,2.52,6.264,3.803,9.385l5.305,13.083c1.084,2.922,2.106,5.829,3.096,8.641c0.558,1.585,1.115,3.17,1.681,4.752
						l9.765,27.563c2.82,7.524,11.236,11.352,18.761,8.53c7.524-2.82,11.352-11.237,8.531-18.762l-10.267-27.384
						c-0.608-1.606-1.213-3.224-1.816-4.841c-1.08-2.892-2.197-5.882-3.339-8.796l-5.713-13.384c-1.35-3.12-2.682-6.262-4.015-9.402
						c-2.429-5.727-4.941-11.648-7.546-17.396l-12.67-26.3c-20.134-39.92-38.771-71.924-58.633-100.676l-8.107-12.142
						l-23.793-32.261l-20.1-24.716l0.313-1.222c10.475-40.795,17.916-84.173,22.118-128.929c2.242-24.441,3.441-48.466,3.597-71.91
						c-1.861,23.324-4.799,47.125-8.8,71.237c-6.632,39.453-15.774,77.65-27.176,113.537l-1.326,4.174l-18.265-20.407
						c-2.079-2.259-4.317-4.519-6.482-6.705c-1.216-1.228-2.432-2.455-3.633-3.696l-15.348-15.603
						c-1.522-1.566-3.287-3.362-5.105-4.989l-21.452-19.866c-0.629-0.575-1.267-1.168-1.903-1.762
						c-1.114-1.038-2.267-2.111-3.418-3.115l-27.851-23.488c-2.382-1.936-4.915-3.869-7.365-5.738
						c-1.364-1.041-2.729-2.083-4.082-3.136l-20.185-15.492l-26.831-18.739c-0.699-0.478-1.412-0.98-2.126-1.483
						c-1.291-0.911-2.51-1.771-3.781-2.574l-30.751-19.488c-2.611-1.57-5.366-3.144-8.03-4.665c-1.497-0.855-2.993-1.71-4.484-2.575
						l-22.029-12.639l-9.023-4.677l0.309-1.801c7.752-45.323,10.915-93.51,9.398-143.224c-0.624-19.117-1.925-38.021-3.893-56.639
						c0.99,18.672,1.3,37.581,0.924,56.656c-1.037,47.668-6.331,93.692-15.733,136.799l-0.695,3.188l-10.29-5.33
						c-0.758-0.385-1.526-0.787-2.296-1.188c-1.344-0.702-2.733-1.428-4.104-2.083l-32.912-15.321
						c-2.789-1.273-5.711-2.477-8.536-3.64c-1.591-0.655-3.182-1.311-4.764-1.983c-3.124-1.286-6.267-2.601-9.408-3.915
						c-5.685-2.379-11.563-4.838-17.376-7.137c-3.705-1.359-7.463-2.755-11.221-4.15c-14.109-5.24-28.698-10.659-43.298-15.133
						c-13.935-4.79-28.299-8.821-42.19-12.719c-4.45-1.249-8.899-2.497-13.34-3.771c-5.982-1.546-12.164-3.034-18.142-4.473
						c-3.303-0.796-6.605-1.591-9.903-2.401l-14.066-3.378l-16.981-3.491l0.038-2.056c0.385-20.998-1.561-42.923-5.949-67.027
						c-4.233-23.01-10.392-45.974-18.304-68.248c-1.942-5.461-3.961-10.821-6.054-16.075c1.877,5.33,3.677,10.761,5.395,16.288
						c6.984,22.495,12.189,45.577,15.471,68.605c3.269,23.205,4.353,44.24,3.314,64.31l-0.149,2.896l-2.842-0.574
						c-29.49-5.951-60.975-10.719-102.084-15.458l-35.908-3.415l-21.552-1.335c-15.206-1.156-30.692-1.584-45.668-1.998
						c-3.986-0.109-7.972-0.22-11.957-0.343c-4.516-0.189-9.112-0.167-13.559-0.144l-15.22,0.048
						c-3.002,0.029-6.02,0.025-9.043,0.029c-1.902,0.008-3.813,0.001-5.719,0.008l-2.086,0.009l-0.382-2.051
						c-1.277-6.859-3.191-14.173-6.022-23.017c-2.725-8.423-6.024-17.301-10.083-27.135c-5.7-13.773-12.264-27.896-19.567-42.105
						c6.73,14.469,12.721,28.813,17.862,42.77c3.649,9.935,6.576,18.875,8.948,27.334c2.249,8.08,3.825,15.091,4.82,21.436
						l0.44,2.809l-2.841,0.078c-1.688,0.046-3.376,0.102-5.063,0.185l-36.07,1.257l-78.786,5.161l-28.671,1.037
						c-4.708,0.227-9.304,0.254-14.391,0.266l-14.302,0.084c-15.572-0.009-31.385-0.328-47.013-0.949l-1.502-0.062
						c-4.125-0.169-8.224-0.359-12.208-0.567l-2.105-0.109l-0.247-2.093c-1.662-14.035-4.61-28.042-8.813-41.917
						c3.554,13.651,5.911,27.365,7.045,41.042l0.238,2.87l-2.875-0.167c-16.19-0.942-32.047-2.213-47.128-3.778
						c-25.212-2.722-50.212-6.332-74.716-10.784c24.431,4.909,49.383,8.987,74.562,12.179c17.836,2.187,36.45,3.958,55.313,5.267
						l8.227,0.571l-7.159,4.093c-12.372,7.074-25.275,15.395-39.446,25.437c-1.18,0.847-2.366,1.704-3.557,2.572
						c1.218-0.838,2.43-1.663,3.638-2.479c17.914-11.959,34.107-21.49,49.518-29.147l0.595-0.295l0.663,0.038
						c15.596,0.908,31.387,1.52,46.935,1.816l14.404,0.184c5.085,0.081,9.665,0.139,14.315,0.002l28.873-0.507l78.84-3.696
						l7.227-0.129l28.616-0.455c6.593-0.201,13.303-0.077,19.791,0.045c2.052,0.039,4.103,0.077,6.154,0.105l9.273,0.129
						l-8.081,4.55c-31.208,17.567-60.931,36.042-88.343,54.911c-27.283,18.767-53.572,38.802-78.399,59.737
						c25.2-20.462,51.831-39.986,79.426-58.224c31.778-21.015,66.464-41.386,103.093-60.548l0.56-0.293l0.632,0.008
						c4.094,0.055,8.734,0.117,13.279,0.394c3.967,0.196,7.961,0.381,11.956,0.565c14.819,0.686,30.143,1.394,45.193,2.822
						l21.324,1.718l7.175,0.8l28.384,3.251c45.969,6.169,80.694,12.3,112.641,19.885l13.879,3.096l21.012,5.462l-7.14,2.814
						c-96.873,38.184-188.775,92.689-273.156,162.004c-10.444,8.583-20.74,17.372-30.871,26.351
						c10.279-8.802,20.722-17.413,31.306-25.813c89.831-71.27,187.333-125.87,289.797-162.285l0.729-0.259l0.748,0.197
						c3.017,0.799,6.03,1.605,9.035,2.442c4.483,1.377,8.91,2.708,13.336,4.039c13.553,4.077,27.568,8.293,41.122,13.241
						c14.181,4.63,28.333,10.186,42.018,15.559c3.764,1.478,7.526,2.955,11.294,4.416c5.693,2.375,11.363,4.872,16.846,7.287
						c3.103,1.366,6.203,2.732,9.313,4.079c1.55,0.692,3.081,1.356,4.612,2.02c2.78,1.205,5.654,2.451,8.453,3.792l31.917,15.585
						c1.429,0.715,2.812,1.472,4.149,2.203c0.728,0.398,1.455,0.796,2.188,1.187l28.182,15.269l21.29,12.754
						c1.451,0.877,2.897,1.738,4.345,2.6l5.406,3.22l-4.697,1.88c-48.824,19.539-95.267,41.518-138.037,65.327
						c-50.007,27.829-96.74,59.11-138.901,92.976c-32.677,26.23-63.262,54.532-91.304,84.47
						c28.716-29.226,59.915-56.746,93.136-82.136c42.772-32.706,90.003-62.717,140.379-89.196
						c46.199-24.292,96.477-46.355,149.437-65.576l1.182-0.43l20.852,13.763c1.323,0.87,2.598,1.807,3.831,2.712
						c0.665,0.489,1.33,0.978,2.002,1.455l25.89,18.806l19.36,15.448c1.312,1.059,2.621,2.097,3.931,3.134
						c2.356,1.867,4.793,3.797,7.144,5.781l26.635,23.321c1.188,1.074,2.312,2.163,3.398,3.216c0.597,0.578,1.193,1.155,1.796,1.728
						l20.394,19.599c1.823,1.688,3.567,3.532,5.056,5.125l14.563,15.373c1.156,1.238,2.313,2.449,3.469,3.66
						c2.07,2.166,4.21,4.407,6.247,6.705l23.072,26.765c1.031,1.224,1.995,2.466,2.928,3.667c0.504,0.65,1.008,1.301,1.521,1.943
						l6.199,7.916l-2.643,1.398c-29.755,15.743-59.525,34.102-88.485,54.565c-31.823,22.481-63.977,48.414-95.565,77.077
						c-29.42,26.71-58.538,55.773-88.609,88.541c31.371-31.437,61.615-59.195,92.052-84.584
						c32.54-27.133,65.487-51.507,97.928-72.445c30.589-19.749,61.839-37.159,92.881-51.748L1591.363,2049.721z"/>
				</g>
			</g>
			<g>
				<g>
					<path style="fill:#FFFFFF;" d="M583.2,1900.82c-14.147,0-26.296-2.813-36.323-8.433c-2.786-1.562-4.371-4.636-4.025-7.812
						c0.346-3.175,2.553-5.838,5.61-6.764c13.667-4.141,28.623-3.059,47.555-1.691c5.823,0.421,11.808,0.854,18.205,1.167
						c15.586-21.198,58.519-74.194,84.788-106.62c8.494-10.485,15.234-18.804,18.708-23.159
						c17.832-22.357,37.224-15.49,61.773-6.795c7.57,2.681,16.148,5.719,25.991,8.528c4.232,1.208,6.683,5.618,5.475,9.848
						c-1.208,4.233-5.626,6.675-9.848,5.475c-10.321-2.946-19.149-6.072-26.937-8.831c-25.801-9.137-33.699-11.196-43.998,1.712
						c-3.488,4.373-10.254,12.725-18.783,23.252c-27.768,34.277-74.242,91.643-86.716,109.33c-0.342,0.486-0.735,0.926-1.166,1.316
						c-0.917,2.318-2.906,4.172-5.511,4.811C605.332,1899.266,593.714,1900.82,583.2,1900.82z"/>
					<path d="M583.2,1904.234c-14.709,0-27.492-2.984-37.992-8.869c-3.988-2.236-6.245-6.617-5.75-11.16
						c0.495-4.545,3.64-8.338,8.014-9.663c14.271-4.324,29.499-3.222,48.786-1.828c5.227,0.378,10.609,0.767,16.309,1.069
						c16.479-22.177,58.473-74.013,83.791-105.266c8.487-10.476,15.22-18.787,18.693-23.139
						c19.349-24.261,40.775-16.671,65.582-7.884c7.517,2.663,16.039,5.681,25.788,8.463c6.036,1.723,9.544,8.034,7.822,14.069
						c-1.721,6.029-8.029,9.543-14.064,7.823c-10.431-2.977-19.311-6.122-27.145-8.897c-26.269-9.305-31.631-10.104-40.189,0.622
						c-3.49,4.376-10.262,12.736-18.798,23.272c-27.803,34.32-74.184,91.574-86.579,109.149c-0.33,0.468-0.698,0.914-1.097,1.329
						c-1.466,3.06-4.239,5.331-7.556,6.146C605.943,1902.632,593.962,1904.234,583.2,1904.234z M571.63,1878.311
						c-8.055,0-15.337,0.696-22.177,2.768c-1.75,0.53-3.008,2.047-3.206,3.866c-0.198,1.816,0.705,3.569,2.3,4.463
						c16.619,9.314,39.961,10.474,68.638,3.431c1.431-0.351,2.608-1.379,3.15-2.751l0.294-0.741l0.591-0.535
						c0.25-0.226,0.474-0.479,0.666-0.751c12.526-17.761,58.997-75.126,86.763-109.4c8.612-10.631,15.373-18.975,18.857-23.345
						c12.279-15.384,23.415-11.438,47.807-2.801c7.741,2.742,16.514,5.849,26.735,8.767c2.417,0.686,4.94-0.719,5.628-3.129
						c0.689-2.414-0.715-4.939-3.129-5.628c-9.955-2.841-18.583-5.897-26.195-8.592c-24.176-8.563-41.646-14.752-57.963,5.706
						c-3.478,4.358-10.223,12.685-18.725,23.179c-25.863,31.925-69.15,85.357-84.691,106.494l-1.086,1.477l-1.832-0.09
						c-6.46-0.316-12.471-0.751-18.285-1.172C586.92,1878.887,578.955,1878.311,571.63,1878.311z"/>
				</g>
				<g>
					<path style="fill:#FFFFFF;" d="M791.022,1942.853c-5.703,0-11.513-0.798-17.373-2.822c-2.836-0.979-4.881-3.468-5.292-6.44
						c-0.41-2.971,0.884-5.922,3.347-7.634c16.121-11.2,42.974-8.921,53.554-7.963c3.232-4.642,9.725-15.083,16.043-25.241
						c15.728-25.292,37.27-59.931,56.379-84.737c2.687-3.486,7.691-4.135,11.174-1.451c3.486,2.685,4.135,7.689,1.451,11.174
						c-18.623,24.175-39.921,58.423-55.471,83.428c-9.724,15.636-14.702,23.596-17.835,27.772c-0.746,2.601-2.798,4.757-5.602,5.508
						c-2.483,0.665-5.036,1.415-7.646,2.181C813.59,1939.607,802.524,1942.853,791.022,1942.853z M828.389,1918.253
						L828.389,1918.253L828.389,1918.253z"/>
					<path d="M791.021,1946.267c-6.578,0-12.626-0.985-18.488-3.009c-4.073-1.407-6.969-4.932-7.56-9.2
						c-0.589-4.268,1.243-8.448,4.781-10.906c16.329-11.345,42.081-9.762,53.81-8.738c3.422-5.114,9.185-14.379,14.777-23.37
						c15.824-25.447,37.416-60.166,56.632-85.113c3.834-4.973,10.996-5.901,15.964-2.071c4.971,3.829,5.901,10.99,2.072,15.962
						c-18.519,24.041-39.764,58.204-55.277,83.148c-9.268,14.904-14.4,23.117-17.658,27.552c-1.24,3.518-4.175,6.255-7.796,7.224
						c-2.416,0.647-4.901,1.376-7.441,2.121C814.541,1942.886,803.014,1946.267,791.021,1946.267z M809.046,1920.569
						c-11.493,0-25.777,1.509-35.395,8.192c-1.415,0.984-2.149,2.656-1.913,4.363c0.237,1.706,1.395,3.117,3.024,3.679
						c5.133,1.774,10.452,2.635,16.259,2.635c11.012,0,21.563-3.094,31.766-6.088c2.72-0.798,5.257-1.542,7.725-2.203
						c1.56-0.417,2.757-1.594,3.202-3.15l0.173-0.605l0.377-0.502c3.068-4.089,8.168-12.251,17.667-27.526
						c15.589-25.068,36.94-59.399,55.666-83.709c1.532-1.989,1.159-4.853-0.829-6.385c-1.989-1.537-4.853-1.158-6.386,0.829
						c-19.007,24.676-40.495,59.227-56.183,84.456c-6.357,10.22-12.868,20.689-16.141,25.39l-1.134,1.627l-1.976-0.179
						C821.643,1921.094,815.831,1920.569,809.046,1920.569z"/>
				</g>
				<g>
					<path style="fill:#FFFFFF;" d="M992.104,1941.467c-8.737,0-16.293-1.654-20.423-6.257c-1.538-1.716-2.26-4.015-1.975-6.302
						c0.284-2.286,1.544-4.339,3.456-5.627c6.569-4.424,35.148-12.895,59.434-8.591c14.039-47.283,34.158-92.559,59.859-134.686
						c2.291-3.756,7.193-4.945,10.951-2.652c3.757,2.292,4.944,7.195,2.652,10.951c-26.278,43.075-46.554,89.534-60.262,138.09
						c-0.587,2.08-1.994,3.833-3.899,4.855c-0.809,0.433-1.678,0.72-2.569,0.856c-0.567,0.354-1.186,0.64-1.853,0.848
						C1027.24,1936.139,1007.777,1941.466,992.104,1941.467z"/>
					<path d="M992.104,1944.881L992.104,1944.881c-10.838,0-18.564-2.486-22.964-7.391c-2.201-2.455-3.229-5.737-2.823-9.005
						s2.205-6.198,4.938-8.038c6.786-4.571,34.366-12.909,58.925-9.59c14.078-46.524,34.042-91.133,59.361-132.633
						c1.583-2.595,4.082-4.418,7.036-5.134c2.952-0.72,6.011-0.239,8.608,1.346c2.595,1.583,4.42,4.083,5.134,7.037
						c0.716,2.954,0.238,6.011-1.346,8.607c-26.117,42.811-46.267,88.986-59.891,137.24c-0.834,2.954-2.865,5.483-5.57,6.936
						c-0.944,0.506-1.944,0.873-2.982,1.096c-0.648,0.351-1.332,0.639-2.039,0.859
						C1028.094,1939.449,1008.245,1944.88,992.104,1944.881z M1018.198,1916.916c-19.246,0-38.14,5.838-43.129,9.197
						c-1.093,0.736-1.813,1.907-1.974,3.215c-0.163,1.308,0.249,2.621,1.129,3.604c3.048,3.397,9.066,5.121,17.88,5.121
						c15.237-0.001,34.33-5.239,44.355-8.36c0.375-0.117,0.733-0.28,1.062-0.486l0.597-0.372l0.695-0.106
						c0.516-0.079,1.01-0.243,1.471-0.49c1.08-0.579,1.892-1.591,2.225-2.772c13.793-48.853,34.193-95.599,60.634-138.942
						c0.634-1.038,0.826-2.261,0.539-3.443c-0.286-1.182-1.016-2.182-2.054-2.814c-1.039-0.636-2.261-0.825-3.443-0.539
						c-1.182,0.286-2.181,1.016-2.813,2.054c-25.53,41.845-45.549,86.888-59.501,133.879l-0.868,2.922l-3.001-0.531
						C1027.507,1917.256,1022.841,1916.916,1018.198,1916.916z"/>
				</g>
				<g>
					<g>
						<path style="fill:#FFFFFF;" d="M1375.303,1701.406c-31.24,158.469-345.172,215.07-488.04,197.793
							c-94.301-11.404-188.173-40.323-263.692-97.94c-17.792-13.574-35.825-31.099-36.874-53.454
							c145.953,0.786,291.925-2.052,437.737-8.512c57.744-2.558,115.563-5.693,172.748-14.104
							C1255.847,1716.561,1314.392,1698.418,1375.303,1701.406z"/>
						<path d="M942.199,1905.553c-20.75,0-39.452-1.043-55.346-2.965c-107.319-12.979-196.597-46.158-265.353-98.615
							c-15.844-12.089-37.042-31.048-38.215-56.009l-0.168-3.594l3.598,0.019c145.242,0.782,292.458-2.082,437.567-8.509
							c55.556-2.461,114.631-5.574,172.403-14.07c17.89-2.632,36.141-6.225,53.79-9.699c40.475-7.969,82.332-16.211,124.995-14.117
							l3.948,0.193l-0.765,3.877c-7.493,38.012-31.258,72.415-70.632,102.25c-34.177,25.897-79.208,47.814-133.844,65.145
							C1092.97,1895.221,1007.497,1905.553,942.199,1905.553z M590.442,1751.238c2.852,20.42,21.252,36.663,35.199,47.306
							c67.776,51.708,155.936,84.433,262.032,97.263c65.173,7.884,178.403,0.78,284.438-32.856
							c113.25-35.924,183.697-92.031,199.005-158.302c-40.455-1.359-80.536,6.526-119.323,14.162
							c-17.729,3.49-36.062,7.099-54.116,9.755c-58.088,8.543-117.361,11.668-173.094,14.137
							C880.611,1749.082,734.572,1751.949,590.442,1751.238z"/>
					</g>
					<g>
						<path style="fill:#FFFFFF;" d="M592.158,1493.312c227.63-336.595,772.488-155.417,790.108,196.526
							c-53.376,104.786-396.728,249.573-710.585,114.786C529.013,1743.354,525.818,1591.409,592.158,1493.312z"/>
						<path d="M942.748,1862.445c-81.235,0.003-175.797-13.192-272.415-54.683c-59.139-25.398-99.021-68.226-115.335-123.855
							c-18.155-61.905-5.315-133.877,34.331-192.508l0,0c53.526-79.147,128.919-135.13,218.029-161.896
							c81.145-24.374,170.316-24.333,257.872,0.117c85.229,23.799,163.389,70.237,220.083,130.761
							c61.432,65.58,96.136,144.866,100.362,229.286l0.046,0.909l-0.414,0.812c-29.15,57.229-136.001,118.499-259.838,148.999
							C1082.138,1851.058,1018.189,1862.443,942.748,1862.445z M933.68,1318.081c-42.649,0-84.487,5.987-124.357,17.961
							c-87.585,26.308-161.702,81.352-214.336,159.182c-38.526,56.967-51.024,126.783-33.435,186.76
							c15.722,53.611,54.269,94.934,111.476,119.501c184.512,79.241,361.647,54.228,450.81,32.269
							c141.591-34.872,231.169-99.234,254.971-144.665c-4.351-82.439-38.392-159.895-98.478-224.04
							c-55.852-59.624-132.894-105.385-216.935-128.852C1020.149,1324.121,976.507,1318.081,933.68,1318.081z"/>
					</g>
					<g>
						
							<ellipse transform="matrix(0.9731 -0.2303 0.2303 0.9731 -351.8231 324.3827)" style="fill:#FFFFFF;" cx="1213.872" cy="1669.54" rx="73.985" ry="91.306"/>
						<path d="M1220.96,1763.433c-36.65,0-71.799-31.235-82.408-76.072l0,0c-5.796-24.493-3.499-49.383,6.467-70.085
							c10.084-20.946,26.79-35.119,47.044-39.911c41.526-9.826,85.104,23.527,97.129,74.354c5.796,24.492,3.499,49.381-6.467,70.085
							c-10.084,20.945-26.79,35.119-47.044,39.911C1230.787,1762.874,1225.856,1763.433,1220.96,1763.433z M1145.197,1685.79
							c11.16,47.162,51.053,78.237,88.912,69.281c18.209-4.309,33.29-17.176,42.462-36.229c9.289-19.297,11.411-42.577,5.976-65.551
							c-11.159-47.16-51.03-78.235-88.912-69.281c-18.209,4.309-33.29,17.174-42.462,36.229
							C1141.883,1639.535,1139.761,1662.815,1145.197,1685.79z"/>
					</g>
					<g>
						
							<ellipse transform="matrix(0.992 -0.1264 0.1264 0.992 -208.9634 118.8649)" style="fill:#FFFFFF;" cx="832.143" cy="1706.011" rx="89.939" ry="95.701"/>
						<path d="M833.48,1805.043c-46.597,0.004-87.544-37.007-93.941-87.236c-3.341-26.222,3.123-52.11,18.203-72.893
							c15.127-20.848,37.101-34.068,61.877-37.223c51.059-6.508,98.223,32.31,105.129,86.525
							c3.341,26.223-3.123,52.11-18.203,72.893c-15.127,20.848-37.101,34.068-61.877,37.223
							C840.915,1804.809,837.176,1805.043,833.48,1805.043z M830.806,1613.808c-3.414,0-6.857,0.215-10.324,0.656
							c-22.885,2.916-43.204,15.154-57.212,34.46c-14.054,19.371-20.077,43.527-16.957,68.02l0,0
							c6.43,50.477,50.155,86.643,97.492,80.614c22.886-2.916,43.205-15.154,57.212-34.46c14.054-19.371,20.077-43.527,16.957-68.02
							C912.014,1648.296,874.011,1613.808,830.806,1613.808z"/>
					</g>
					<g>
						<path style="fill:#FFFFFF;" d="M1191.068,1482c27.691,36.593,72.489,49.344,100.059,28.481
							c6.895-5.218,12.059-12.044,15.494-19.92c-32.991-42.345-74.957-78.336-122.394-106.506
							C1163.522,1406.957,1165.813,1448.626,1191.068,1482z"/>
						<path d="M1259.981,1523.865c-24.794,0-52.321-14.281-71.637-39.803l0,0c-25.751-34.03-28.61-78.007-6.65-102.295l1.874-2.073
							l2.403,1.427c49.04,29.122,90.54,65.238,123.344,107.343l1.248,1.602l-0.811,1.862c-3.778,8.66-9.351,15.819-16.564,21.278
							C1283.639,1520.431,1272.137,1523.865,1259.981,1523.865z M1193.791,1479.94c26.51,35.031,69.249,47.514,95.275,27.818
							c5.756-4.355,10.319-9.976,13.584-16.73c-31.521-40.026-71.098-74.513-117.693-102.559
							C1167.173,1410.769,1170.738,1449.472,1193.791,1479.94L1193.791,1479.94z"/>
					</g>
					<g>
						<path style="fill:#FFFFFF;" d="M842.4,1442.88c45.137,41.969,108.698,46.986,141.966,11.207
							c32.602-35.064,23.99-96.283-18.849-138.219c-54.501-3.707-109.546,1.961-161.851,18.358
							C794.938,1368.854,808.846,1411.682,842.4,1442.88z"/>
						<path d="M925.927,1481.376c-2.751,0-5.539-0.11-8.362-0.333c-27.576-2.177-55.098-14.844-77.49-35.662l0,0
							c-33.439-31.091-49.03-75.049-39.721-111.99l0.467-1.852l1.823-0.571c51.483-16.138,106.367-22.365,163.103-18.507
							l1.257,0.086l0.9,0.882c44.594,43.654,52.923,106.46,18.962,142.984C971.754,1472.665,950.344,1481.376,925.927,1481.376z
							 M806.534,1336.91c-7.736,34.177,7.113,74.574,38.192,103.469l0,0c21.268,19.776,47.328,31.799,73.377,33.855
							c25.75,2.037,48.397-5.949,63.761-22.473c31.195-33.55,23.305-91.574-17.844-132.571
							C909.257,1315.613,856.289,1321.57,806.534,1336.91z"/>
					</g>
					<g>
						<path style="fill:#FFFFFF;" d="M642.629,1518.575c0-24.293-8.797-46.2-22.895-61.754
							c-9.626,11.416-18.837,23.568-27.576,36.49c-21.692,32.076-35.945,69.91-40.323,108.448c5.403,1.45,11.024,2.242,16.81,2.242
							C609.505,1604.001,642.629,1565.755,642.629,1518.575z"/>
						<path d="M568.645,1607.415c-5.91,0-11.863-0.794-17.695-2.357l-2.84-0.761l0.332-2.922
							c4.423-38.935,18.562-76.963,40.887-109.975c8.651-12.792,18.001-25.165,27.794-36.778l2.516-2.986l2.623,2.893
							c15.335,16.918,23.78,39.663,23.78,64.047C646.044,1567.562,611.323,1607.415,568.645,1607.415z M555.587,1599.159
							c4.329,0.947,8.709,1.426,13.058,1.426c38.912,0,70.57-36.79,70.57-82.01c0-21.274-6.876-41.171-19.438-56.478
							c-8.706,10.529-17.033,21.656-24.79,33.126C573.847,1526.482,560.256,1562.357,555.587,1599.159z"/>
					</g>
					<path d="M584.565,1535.747c29.457-39.159,65.295-73.562,106.037-100.611c40.687-27.163,85.892-46.961,132.63-60.331
						c46.788-13.42,95.071-20.637,143.417-23.832c48.387-3.191,96.898-2.364,145.201,0.499c-48.35-1.916-96.828-1.787-144.986,2.339
						c-48.117,4.127-95.971,12.26-142.009,26.45c-45.996,14.139-90.111,34.539-129.452,61.935
						c-39.402,27.292-73.684,61.55-101.663,100.289L584.565,1535.747z"/>
				</g>
				<g>
					<path style="fill:#FFFFFF;" d="M503.659,1492.398c-2.62,0-4.977-1.821-5.557-4.486c-8.098-37.332-17.277-79.646-40.102-113.052
						c-2.093-3.063-4.597-6.308-7.388-9.62c-0.343-0.06-0.686-0.152-1.025-0.279c-59.697-22.341-64.007-32.723-65.63-36.631
						c-1.487-3.584-0.82-6.497,0.002-8.311c2.06-4.545,5.961-7.289,10.985-7.726c19.995-1.795,58.254,35.363,72.453,56.146
						c24.08,35.24,33.51,78.709,41.83,117.061c0.666,3.071-1.284,6.101-4.356,6.768
						C504.465,1492.356,504.059,1492.398,503.659,1492.398z"/>
					<path d="M503.659,1495.813c-4.249,0-7.99-3.018-8.893-7.176c-8.031-37.027-17.134-78.994-39.584-111.85
						c-1.813-2.652-3.994-5.516-6.49-8.521c-0.1-0.033-0.2-0.069-0.3-0.106c-61.085-22.861-65.642-33.834-67.587-38.521
						c-1.957-4.716-1.056-8.601,0.046-11.031c2.554-5.634,7.584-9.177,13.8-9.717c22.094-1.968,61.497,37.026,75.568,57.621
						c24.455,35.79,33.96,79.602,42.345,118.257c1.065,4.913-2.061,9.771-6.967,10.835
						C504.957,1495.743,504.307,1495.813,503.659,1495.813z M396.371,1315.645c-0.386,0-0.759,0.016-1.122,0.049
						c-3.805,0.33-6.63,2.313-8.181,5.734c-0.79,1.742-0.776,3.624,0.041,5.592c3.56,8.573,24.983,20.262,63.674,34.742
						c0.137,0.051,0.276,0.089,0.416,0.113l1.223,0.213l0.8,0.949c2.935,3.482,5.49,6.812,7.596,9.895
						c23.203,33.958,32.457,76.616,40.62,114.254c0.26,1.198,1.5,2.003,2.709,1.743c1.225-0.267,2.007-1.482,1.742-2.708
						c-8.254-38.05-17.609-81.17-41.312-115.858c-7.512-10.995-20.636-25.069-33.434-35.855
						C416.824,1322.442,404.263,1315.645,396.371,1315.645z"/>
				</g>
				<g>
					<path style="fill:#FFFFFF;" d="M362.83,1647.687c17.715-56.607,51.441-108.109,96.248-146.975
						c36.369-31.548,84.14-55.509,131.492-46.804c65.172,11.981,104.449,79.712,121.087,143.854
						c12.52,48.264,17.258,99.556,5.207,147.94c-5.594,22.458-14.993,44.4-30.429,61.646
						c-35.626,39.803-95.286,46.933-148.512,42.411c-53.057-4.508-107.832-19.311-146.127-56.309
						C353.501,1756.452,347.347,1697.16,362.83,1647.687z"/>
					<path d="M565.119,1854.36c-9.561,0-18.808-0.461-27.485-1.198c-64.714-5.499-114.579-24.763-148.211-57.257
						c-35.708-34.499-47.426-93.078-29.853-149.237v-0.001c18.031-57.615,51.667-108.978,97.27-148.534
						c25.676-22.274,77.273-58.079,134.346-47.582c56.424,10.373,102.695,65.084,123.776,146.355
						c14.38,55.438,16.135,105.779,5.215,149.621c-6.466,25.964-16.962,47.194-31.198,63.099
						C657.269,1845.053,608.057,1854.36,565.119,1854.36z M366.089,1648.706L366.089,1648.706
						c-16.81,53.716-5.787,109.567,28.08,142.287c32.474,31.373,80.936,50,144.044,55.363
						c46.097,3.914,108.786-0.068,145.679-41.286c13.485-15.067,23.465-35.319,29.659-60.193
						c10.641-42.725,8.892-91.933-5.2-146.258c-7.641-29.458-38.762-126.712-118.398-141.353
						c-54.27-9.977-103.886,24.554-128.637,46.026C416.673,1542.015,383.742,1592.306,366.089,1648.706z"/>
				</g>
				<path d="M438.819,1787.448c-13.126,0-26.269-4.336-36.672-13.057c-1.446-1.212-1.635-3.365-0.424-4.81
					c1.209-1.445,3.364-1.638,4.81-0.423c18.443,15.458,47.93,14.997,65.732-1.026c1.402-1.263,3.561-1.148,4.822,0.253
					c1.262,1.402,1.148,3.56-0.253,4.822C466.305,1782.684,452.571,1787.448,438.819,1787.448z"/>
				<path d="M489.272,1787.296c-0.387,0-0.779-0.067-1.164-0.206c-11.637-4.219-24.837-20.047-19.356-38.792
					c0.529-1.81,2.42-2.846,4.236-2.32c1.811,0.53,2.849,2.427,2.32,4.236c-4.251,14.537,6.247,27.235,15.128,30.455
					c1.773,0.642,2.689,2.601,2.046,4.374C491.979,1786.432,490.668,1787.296,489.272,1787.296z"/>
				<g>
					<path style="fill:#FFFFFF;" d="M582.354,1496.936c-0.117,0-0.235-0.003-0.354-0.011c-3.137-0.191-5.524-2.89-5.332-6.028
						c2.986-48.822-10.091-101.448-39.966-160.776c-56.415-32.417-61.992-46.058-61.283-53.501c0.387-4.054,2.995-7.2,7.154-8.63
						c4.85-1.666,10.367-1.083,16.873,1.79c21.738,9.595,34.767,30.496,45.609,51.653c32.088,62.625,46.145,118.285,42.972,170.159
						C587.844,1494.611,585.339,1496.936,582.354,1496.936z"/>
					<path d="M582.354,1500.351c-0.19,0-0.382-0.005-0.577-0.019c-2.412-0.147-4.637-1.232-6.249-3.053
						c-1.611-1.822-2.416-4.163-2.268-6.59c2.933-47.979-9.874-99.71-39.148-158.118c-56.323-32.471-63.007-46.668-62.091-56.273
						c0.511-5.367,4.042-9.678,9.443-11.536c5.703-1.96,12.038-1.34,19.363,1.895c22.71,10.024,36.14,31.502,47.268,53.219
						c32.375,63.186,46.552,119.423,43.341,171.926C591.144,1496.595,587.153,1500.351,582.354,1500.351z M488.234,1270.486
						c-1.614,0-3.127,0.245-4.551,0.734c-2.878,0.99-4.606,3.023-4.864,5.725c-0.957,10.052,19.09,26.946,59.585,50.215l0.887,0.51
						l0.461,0.915c30.158,59.892,43.349,113.053,40.323,162.521c-0.037,0.607,0.164,1.193,0.567,1.647
						c0.402,0.456,0.958,0.726,1.565,0.764l0.146,0.004c1.197,0,2.193-0.938,2.266-2.136
						c3.133-51.247-10.802-106.329-42.603-168.394c-10.555-20.598-23.186-40.922-43.948-50.087
						C494.41,1271.289,491.156,1270.486,488.234,1270.486z"/>
				</g>
				<path d="M514.856,1539.942c-1.359,0-2.723-0.485-3.811-1.467c-2.333-2.106-2.517-5.706-0.41-8.037
					c7.677-8.502,18.622-13.976,30.028-15.018c11.409-1.044,23.162,2.36,32.253,9.329c2.494,1.913,2.967,5.484,1.054,7.979
					c-1.912,2.495-5.484,2.968-7.979,1.054c-6.846-5.25-15.699-7.818-24.293-7.026c-8.59,0.785-16.833,4.907-22.615,11.31
					C517.959,1539.309,516.41,1539.942,514.856,1539.942z"/>
				<path d="M454.993,1531.661c-0.848,0-1.705-0.236-2.47-0.731c-2.876-1.862-5.591-3.62-8.482-4.747
					c-1.981-0.771-4.929-1.545-7.72-0.877c-2.449,0.594-4.904-0.911-5.494-3.356c-0.591-2.443,0.911-4.904,3.356-5.494
					c4.023-0.976,8.577-0.542,13.163,1.243c3.757,1.464,6.995,3.561,10.126,5.589c2.111,1.366,2.714,4.185,1.347,6.296
					C457.948,1530.928,456.486,1531.661,454.993,1531.661z"/>
				<g>
					<path style="fill:#FFFFFF;" d="M517.36,1560.061c-64.988,28.138-30.823,178.548,55.707,134.482
						C634.324,1663.348,589.32,1528.905,517.36,1560.061z"/>
					<path d="M542.908,1706.002c-12.429,0-22.172-4.272-29.164-9.024c-22.737-15.454-36.376-49.954-33.17-83.897
						c2.554-27.044,15.467-47.512,35.427-56.154l0,0c37.529-16.256,66.007,10.192,78.986,37.777
						c17.261,36.682,14.36,85.194-20.372,102.881C562.616,1703.698,552.037,1706.002,542.908,1706.002z M518.717,1563.194
						c-17.606,7.623-29.029,26.04-31.342,50.53c-2.983,31.577,9.439,63.489,30.21,77.606c15.206,10.336,33.857,10.393,53.933,0.171
						c24.375-12.414,37.508-50.927,17.292-93.889C570.143,1557.942,540.365,1553.827,518.717,1563.194L518.717,1563.194z"/>
				</g>
				<path d="M503.664,1614.308c0,31.913,21.979,57.784,49.091,57.784c23.694,0,43.466-19.76,48.075-46.043
					c-4.541-31.674-24.083-62.806-51.542-69.366C523.796,1558.78,503.664,1583.769,503.664,1614.308z"/>
				<circle style="fill:#FFFFFF;" cx="522.743" cy="1584.609" r="19.079"/>
				<g>
					<path style="fill:#FFFFFF;" d="M413.273,1553.847c51.307,29.784-15.826,144.977-58.325,117.543
						C314.004,1644.959,374.997,1531.627,413.273,1553.847z"/>
					<path d="M368.982,1679.007c-5.635,0-10.98-1.582-15.885-4.748c-24.228-15.639-16.438-58.137,3.192-90.184
						c18.463-30.138,41.505-43.158,58.698-33.181c13.552,7.867,20.54,21.719,20.208,40.059
						c-0.56,30.879-23.087,69.712-48.208,83.101C380.794,1677.355,374.736,1679.007,368.982,1679.007z M402.687,1554.414
						c-13.885,0-29.607,15.323-40.575,33.227c-18.191,29.699-25.153,68.072-5.312,80.879c7.819,5.047,16.894,4.88,26.975-0.494
						c23.233-12.384,44.07-48.458,44.592-77.199c0.198-10.956-2.556-25.754-16.808-34.028l0,0
						C408.74,1555.163,405.757,1554.414,402.687,1554.414z"/>
				</g>
				<path d="M424.953,1564.684c-3.014-3.336-7.483-8.825-11.679-10.837c-7.501-3.597-11.883-3.066-22.864,0.222
					c-14.412,6.943-28.767,24.765-38.192,44.747c-2.314,18.465,5.418,36.05,20.826,43.439c16.077,7.709,35.582,1.96,48.566-12.739
					C432.502,1607.052,436.179,1581.359,424.953,1564.684z"/>
				
					<ellipse transform="matrix(0.2281 -0.9736 0.9736 0.2281 -1240.3301 1592.7914)" style="fill:#FFFFFF;" cx="384.365" cy="1578.638" rx="16.964" ry="16.964"/>
				<g>
					<path style="fill:#FFFFFF;" d="M927.388,2050.575c-0.556,0-1.115-0.05-1.672-0.154c-18.086-3.376-58.93-29.507-67.883-45.8
						c-1.213-2.204-1.415-4.693-0.763-6.932c-0.642-1.945-0.94-3.744-1.164-5.091c-2.394-14.457-4.378-33.521-6.478-53.705
						c-2.761-26.536-5.617-53.976-9.82-76.212c-6.318-33.415-12.589-36.677-12.853-36.799c-2.829-0.714-15.038,0.243-35.306,5.992
						c-19.655,5.574-39.699,13.579-54.989,21.96c-4.408,2.415-9.945,0.802-12.361-3.609c-2.417-4.41-0.802-9.944,3.609-12.361
						c33.894-18.577,87.168-33.782,103.65-29.595c21.833,5.561,28.234,52.347,36.184,128.74c2.071,19.902,4.027,38.7,6.33,52.611
						c0.083,0.501,0.285,1.716,0.49,2.356c0.647,0.32,1.987,0.733,2.918,1.019l1.287,0.402c12.239,3.924,50.931,29.11,57.252,44.637
						c1.256,3.084,0.728,6.609-1.378,9.19C932.696,2049.367,930.094,2050.575,927.388,2050.575z M874.472,1992.253L874.472,1992.253
						L874.472,1992.253z"/>
					<path d="M927.388,2053.99c-0.774,0-1.548-0.071-2.301-0.214c-18.973-3.54-60.684-30.109-70.246-47.512
						c-1.436-2.609-1.889-5.578-1.311-8.465c-0.521-1.806-0.788-3.415-0.991-4.637c-2.414-14.58-4.402-33.686-6.507-53.915
						c-2.753-26.465-5.601-53.831-9.779-75.931c-4.943-26.147-9.668-32.821-10.933-34.204c-3.031-0.241-14.081,0.698-32.938,6.048
						c-19.42,5.508-39.204,13.406-54.279,21.669c-2.931,1.607-6.316,1.976-9.526,1.039c-3.211-0.937-5.866-3.069-7.472-6.002
						c-3.318-6.054-1.092-13.679,4.962-16.997c35.118-19.249,88.672-34.356,106.132-29.909
						c24.475,6.233,30.665,54.104,38.741,131.696c2.064,19.847,4.015,38.593,6.303,52.407c0.021,0.13,0.042,0.25,0.061,0.363
						c0.372,0.119,0.73,0.229,0.965,0.301l1.319,0.412c13.037,4.179,52.625,29.977,59.395,46.609
						c1.728,4.244,1.003,9.086-1.895,12.636C934.701,2052.311,931.165,2053.99,927.388,2053.99z M824.215,1822.268
						c1.46,0,2.592,0.106,3.375,0.302l0.602,0.214c2.422,1.125,8.709,7.201,14.771,39.262c4.231,22.379,7.093,49.889,9.862,76.493
						c2.093,20.123,4.07,39.131,6.45,53.501c0.213,1.288,0.478,2.887,1.037,4.578l0.332,1.007l-0.297,1.019
						c-0.426,1.46-0.257,2.998,0.477,4.329c8.421,15.325,48.448,40.904,65.518,44.089c2.006,0.378,4.146-0.392,5.452-1.996
						c1.318-1.614,1.648-3.815,0.862-5.743c-5.885-14.453-43.635-38.989-55.133-42.674l-1.264-0.395
						c-1.384-0.427-2.591-0.811-3.413-1.218l-1.295-0.64l-0.442-1.376c-0.246-0.767-0.437-1.812-0.605-2.828
						c-2.324-14.033-4.285-32.878-6.36-52.83c-7.57-72.734-14-120.785-33.631-125.785c-14.245-3.614-65.862,9.932-101.167,29.28
						c-2.751,1.508-3.764,4.974-2.255,7.726c0.73,1.333,1.936,2.302,3.396,2.728c1.457,0.424,2.998,0.257,4.331-0.472
						c15.505-8.499,35.806-16.609,55.698-22.25C806.403,1824.083,818.143,1822.268,824.215,1822.268z"/>
				</g>
				<g>
					<path style="fill:#FFFFFF;" d="M1186.532,2042.367c-23.887,0-57.072-21.186-68.729-31.994c-2.076-1.924-3.053-4.592-2.9-7.214
						c-6.538-9.012-8.524-20.856-9.872-28.89c-3.35-19.971-10.451-52.972-18.76-81.675c-14.021-48.433-22.979-55.596-24.326-56.432
						c-21.778-1.861-72.232,23.908-98.499,56.028c-3.183,3.894-8.92,4.468-12.813,1.284c-3.893-3.183-4.468-8.92-1.284-12.813
						c28.866-35.297,84.686-65.729,114.878-62.575c9.665,1.003,21.794,9.606,38.47,65.801c10.238,34.503,17.573,71.153,20.293,87.37
						c1.809,10.784,4.142,21.594,10.915,24.941c0.92,0.447,4.511,1.647,7.677,2.707c22.764,7.616,45.608,16.212,52.986,30.08
						c1.502,2.822,1.413,6.226-0.234,8.966C1192.693,2040.691,1189.729,2042.367,1186.532,2042.367z M1061.782,1836.07
						L1061.782,1836.07L1061.782,1836.07z"/>
					<path d="M1186.532,2045.782c-24.823,0-59.062-21.79-71.051-32.904c-2.44-2.262-3.859-5.359-3.997-8.646
						c-6.487-9.518-8.484-21.429-9.82-29.398c-3.333-19.871-10.4-52.714-18.672-81.291c-12.184-42.089-20.25-52.042-22.332-54.042
						c-21.383-0.906-69.501,24.196-94.57,54.851c-2.116,2.589-5.115,4.198-8.443,4.532c-3.325,0.337-6.587-0.649-9.175-2.767
						c-2.589-2.117-4.198-5.115-4.532-8.443c-0.333-3.328,0.649-6.586,2.767-9.175c29.482-36.048,86.792-67.066,117.876-63.809
						c11.329,1.175,24.186,10.254,41.39,68.225c10.286,34.663,17.655,71.484,20.388,87.776c1.589,9.478,3.731,19.811,9.06,22.444
						c0.717,0.345,4.784,1.705,7.214,2.519c23.452,7.846,46.983,16.749,54.951,31.725c2.053,3.858,1.93,8.582-0.321,12.328
						C1195.016,2043.454,1190.904,2045.782,1186.532,2045.782z M1059.684,1832.656c0.886,0,1.736,0.034,2.553,0.104l0.815,0.07
						l0.695,0.431c3.263,2.024,12.31,11.767,25.805,58.384c8.348,28.839,15.48,61.994,18.847,82.06
						c1.274,7.601,3.2,19.086,9.268,27.449l0.716,0.987l-0.071,1.217c-0.1,1.707,0.56,3.35,1.812,4.511
						c12.032,11.155,44.514,31.083,66.408,31.083c1.986,0,3.856-1.057,4.877-2.76c1.024-1.704,1.079-3.85,0.147-5.604
						c-6.787-12.757-28.943-21.047-51.055-28.446c-4.348-1.455-7.044-2.368-8.085-2.872c-8.24-4.072-10.836-15.792-12.792-27.448
						c-2.707-16.139-10.007-52.616-20.199-86.963c-16.198-54.585-27.507-62.542-35.549-63.376
						c-29.221-3.051-83.6,26.757-111.882,61.34c-0.963,1.177-1.409,2.658-1.257,4.169c0.151,1.513,0.883,2.876,2.06,3.838
						c1.176,0.963,2.655,1.406,4.169,1.258c1.513-0.152,2.875-0.884,3.838-2.06
						C986.981,1858.018,1035.649,1832.656,1059.684,1832.656z"/>
				</g>
				<g>
					<path style="fill:#FFFFFF;" d="M1396.972,1983.223c-0.22,0-0.44-0.008-0.661-0.023c-26.108-1.892-67.515-17.896-75.643-39.664
						c-0.309-0.829-0.49-1.676-0.552-2.516c-0.303-0.659-0.577-1.343-0.821-2.051c-6.363-18.487-11.643-39.291-16.75-59.41
						c-5.856-23.073-11.911-46.932-19.445-66.452c-4.095-10.61-11.715-21.903-20.853-21.903c-0.045,0-0.088,0-0.132,0
						c-6.215,0.074-12.592,5.303-18.082,10.197c-17.072,15.224-33.033,31.949-47.438,49.709c-3.17,3.905-8.901,4.506-12.807,1.336
						c-3.906-3.168-4.504-8.902-1.336-12.807c15.02-18.519,31.661-35.957,49.462-51.83c8.536-7.611,18.075-14.674,29.984-14.815
						c16.062-0.258,29.888,12.04,38.193,33.554c7.928,20.54,14.12,44.936,20.108,68.53c5.015,19.759,10.201,40.19,16.317,57.962
						c1.358,3.947,11.243,7.261,20.802,10.465c13.938,4.673,31.282,10.487,45.83,23.923c2.842,2.625,3.716,6.76,2.176,10.311
						C1403.872,1981.086,1400.578,1983.223,1396.972,1983.223z"/>
					<path d="M1396.971,1986.638c-0.3,0-0.599-0.01-0.901-0.032c-14.101-1.021-31.217-5.769-45.79-12.7
						c-12.158-5.782-27.72-15.537-32.812-29.175c-0.341-0.916-0.574-1.862-0.695-2.821c-0.256-0.593-0.491-1.2-0.708-1.826
						c-6.413-18.633-11.709-39.502-16.832-59.684c-5.829-22.972-11.858-46.726-19.321-66.063
						c-3.51-9.096-10.244-19.718-17.667-19.718c-5.547,0.066-12.309,6.094-15.942,9.331c-16.933,15.1-32.766,31.691-47.058,49.311
						c-4.354,5.362-12.256,6.185-17.611,1.836c-2.597-2.105-4.218-5.098-4.565-8.424c-0.347-3.326,0.622-6.588,2.729-9.185
						c15.136-18.662,31.905-36.234,49.84-52.228c9.032-8.053,19.185-15.526,32.217-15.681c17.427-0.272,32.543,12.746,41.418,35.74
						c8.004,20.738,14.22,45.232,20.232,68.919c5.002,19.707,10.167,40.06,16.236,57.691c1.019,2.425,12.493,6.272,18.657,8.339
						c14.25,4.777,31.979,10.722,47.063,24.652c3.904,3.606,5.106,9.304,2.992,14.178
						C1406.469,1983.678,1401.962,1986.638,1396.971,1986.638z M1262.072,1787.788c13.851,0,22.031,18.437,24.212,24.088
						c7.611,19.719,13.69,43.675,19.57,66.842c5.088,20.048,10.35,40.778,16.669,59.138c0.206,0.597,0.437,1.176,0.694,1.734
						l0.259,0.561l0.046,0.615c0.039,0.535,0.156,1.065,0.347,1.576c7.538,20.192,48.086,35.668,72.689,37.451
						c0.133,0.009,0.275,0.014,0.415,0.014c2.268,0,4.315-1.345,5.218-3.428c0.962-2.215,0.415-4.805-1.359-6.444
						c-14.01-12.938-30.969-18.624-44.596-23.192c-13.095-4.391-21.172-7.427-22.949-12.593
						c-6.16-17.899-11.362-38.393-16.392-58.21c-5.969-23.516-12.134-47.809-19.99-68.164
						c-7.785-20.168-20.499-31.528-34.952-31.369c-10.799,0.128-19.725,6.779-27.766,13.949
						c-17.662,15.75-34.177,33.055-49.081,51.432c-0.958,1.18-1.398,2.663-1.24,4.175s0.895,2.872,2.075,3.829
						c2.436,1.978,6.026,1.604,8.005-0.836c14.522-17.904,30.61-34.762,47.816-50.106
						C1247.711,1793.545,1254.681,1787.877,1262.072,1787.788z"/>
				</g>
			</g>
		</g>
	</g>
	<g>
		<circle style="fill:#3D3030;" cx="2090.961" cy="311.433" r="145"/>
		<circle style="fill:#3D7300;" cx="2090.961" cy="2181.433" r="145"/>
		<circle style="fill:#549E00;" cx="2090.961" cy="1807.433" r="145"/>
		<circle style="fill:#960808;" cx="2090.961" cy="1433.433" r="145"/>
		<circle style="fill:#D60B0B;" cx="2090.961" cy="1059.433" r="145"/>
		<circle style="fill:#2B2222;" cx="2090.961" cy="685.433" r="145"/>
	</g>
</g>
</svg>
