<?xml version="1.0" encoding="utf-8"?>
<!-- Generator: Adobe Illustrator 27.5.0, SVG Export Plug-In . SVG Version: 6.00 Build 0)  -->
<svg xmlns="http://www.w3.org/2000/svg" xmlns:xlink="http://www.w3.org/1999/xlink" viewBox="0 0 612 792" width="595" height="842" preserveAspectRatio="xMidYMid meet" data-scaled="true">
<g>
	<g>
		<path d="M548.773,281.134c5.408-4.192,11.64-6.436,18.363-7.304c2.633-0.34,5.316-0.294,7.977-0.424c0-0.984,0-1.969,0-2.953
			c-4.313-0.197-8.554,0.294-12.75,1.283c-7.641,1.801-14.315,5.3-19.727,11.07c-2.232,2.38-3.889,5.131-5.274,8.172
			c-0.878-0.17-1.698-0.306-2.508-0.489c-5.695-1.287-11.385-1.46-17.123-0.19c-11.311,2.504-23.178,10.873-25.793,25.828
			c-0.697,3.983-0.777,4.042-4.837,4.042c-3.512,0-6.877,0.585-9.939,2.302c-1.601,0.898-2.834,0.74-4.176-0.403
			c-2.306-1.962-5.01-3.143-8.019-3.41c-1.961-0.174-3.206-1.143-4.236-2.71c-0.834-1.269-1.856-2.414-2.997-3.873
			c0.36-1.323,0.809-3.011,1.279-4.693c0.438-1.57,0.184-2.848-1.212-3.91c-0.996-0.757-1.852-1.718-2.687-2.663
			c-2.653-3.003-5.271-6.038-7.892-9.069c-0.345-0.399-0.633-0.848-1.166-1.568c1.052,0.138,1.735,0.262,2.423,0.311
			c4.48,0.318,8.965,0.896,13.442,0.854c5.537-0.052,11.047-0.712,16.5-1.86c20.67-4.35,38.092-14.268,51.428-30.696
			c15.591-19.207,21.666-41.178,17.34-65.688c-2.577-14.602-9.028-27.463-19.01-38.412c-16.796-18.423-37.974-27.426-62.693-28.446
			c-7.189-0.296-14.311,0.513-21.343,2.034c-16.965,3.671-31.841,11.371-44.151,23.625c-16.519,16.445-25.069,36.33-24.885,59.791
			c0.004,0.507-0.094,1.014-0.149,1.572c-1.057-0.997-2.014-1.824-2.885-2.734c-3.498-3.66-6.947-7.367-10.455-11.017
			c-15.593-16.222-31.199-32.432-46.804-48.642c-0.589-0.612-1.059-1.14-0.947-2.171c0.09-0.828-0.223-1.845-0.689-2.562
			c-1.675-2.577-3.365-5.177-6.212-6.88c0.173-0.595,0.345-1.188,0.519-1.78c0.83-2.829,1.763-5.633,2.462-8.494
			c0.682-2.79,1.307-5.612,0.726-8.541c-0.739-3.723-3.082-6.023-6.761-6.508c-3.873-0.511-6.206,0.737-7.982,4.367
			c-0.553,1.131-1.004,2.323-1.392,3.523c-0.756,2.338-1.436,4.7-2.146,7.053c-0.402,1.333-0.802,2.667-1.229,4.084
			c-3.234-0.124-6.263,0.372-9.234,1.297c-0.512,0.159-1.113,0.064-1.67,0.037c-6.459-0.309-12.917-0.898-19.376-0.891
			c-19.757,0.022-39.514,0.203-59.27,0.466c-8.504,0.113-17.005,0.548-25.505,0.893c-8.148,0.331-16.292,0.757-24.439,1.1
			c-8.358,0.352-16.719,0.663-25.079,0.976c-10.609,0.397-21.218,0.777-31.827,1.167c-7.658,0.282-15.317,0.561-22.974,0.865
			c-0.837,0.033-1.665,0.25-2.502,0.328c-0.973,0.09-1.587,0.595-1.753,1.53c-0.599,3.384-1.493,6.762-1.623,10.167
			c-0.095,2.499-0.583,4.644-1.894,6.705c-0.6,0.943-1.125,1.961-1.509,3.009c-0.601,1.641-1.248,3.304-1.531,5.015
			c-0.778,4.703,2.418,9.608,6.786,10.816c2.164,0.598,3.931-0.018,5.286-1.644c0.84-1.008,1.461-2.229,2.025-3.427
			c0.833-1.77,1.529-3.605,2.298-5.451c0.651,0.204,1.212,0.379,1.824,0.57c-0.842,1.886-1.657,3.596-2.377,5.345
			c-1.495,3.631-0.994,7.092,1.362,10.146c1.491,1.934,3.176,3.787,5.049,5.345c9.136,7.599,19.354,13.463,30.157,18.331
			c1.524,0.687,3.169,1.127,4.784,1.592c4.989,1.435,9.316,0.247,12.883-3.496c1.451-1.523,2.732-3.207,4.088-4.82
			c0.749-0.891,1.494-1.785,2.581-3.085c0.151,1.196,0.276,1.857,0.312,2.521c0.147,2.738,0.288,5.476,0.39,8.216
			c0.106,2.845,0.893,5.494,2.432,8.093c-0.648,0.048-1.052,0.072-1.455,0.107c-3.567,0.31-7.165,0.422-10.696,0.969
			c-11.822,1.834-22.978,5.73-33.55,11.305c-14.039,7.404-25.919,17.302-34.885,30.496c-6.743,9.922-11.226,20.719-12.305,32.782
			c-0.123,1.379-0.274,2.755-0.424,4.249c-3.524-0.407-6.891-1.287-10.38-0.582c0,0.966,0,1.758,0,2.688
			c4.612-0.199,8.95,0.575,13.264,1.54c0.401,0.09,0.889,0.135,1.245-0.016c0.403-0.17,0.899-0.535,0.993-0.906
			c0.095-0.375-0.134-0.993-0.436-1.269c-0.438-0.402-1.07-0.593-1.649-0.889c0.18-5.44,0.917-10.704,2.451-15.852
			c3.695-12.408,10.49-22.944,19.513-32.094c10.647-10.796,23.356-18.374,37.516-23.592c10.292-3.793,20.9-5.978,31.914-5.931
			c0.905,0.004,1.728,0.005,2.535,0.699c3.428,2.947,7.316,5.222,11.303,7.314c13.44,7.053,27.338,13.096,41.489,18.559
			c1.497,0.578,2.445,1.427,3.192,2.784c2.909,5.288,4.742,10.941,5.866,16.841c1.382,7.252,1.069,14.557,0.606,21.863
			c-0.093,1.473-0.277,2.946-0.268,4.417c0.009,1.416,0.875,1.891,2.111,1.213c0.67-0.367,1.295-0.851,1.86-1.37
			c4.797-4.41,10.488-5.434,16.68-4.304c2.254,0.411,4.465,1.122,6.258,2.935c-6.454,16.21-12.887,32.365-19.358,48.617
			c-9.339,0-18.523,0-27.874,0c-0.072-0.733-0.144-1.415-0.204-2.097c-0.179-2.029-0.298-4.065-0.542-6.087
			c-0.594-4.919-3.201-8.198-8.104-9.316c-2.45-0.559-4.969-0.953-7.476-1.099c-5.075-0.295-10.109,0.337-15.079,1.323
			c-4.697,0.933-9.285,2.301-13.373,4.884c-1.642,1.038-3.197,2.305-4.533,3.715c-1.8,1.9-2.126,4.207-0.971,6.64
			c0.229,0.483,0.424,0.982,0.725,1.686c-3.546,0.265-6.865,0.513-10.338,0.773c-0.272-1.17-0.556-2.175-0.735-3.199
			c-0.46-2.629-0.783-5.285-1.328-7.894c-0.765-3.66-3.029-5.229-6.604-4.275c-8.455,2.256-15.749,6.273-20.262,14.356
			c-0.204,0-0.48,0.015-0.754-0.002c-4.135-0.26-8.268-0.537-12.404-0.781c-1.122-0.066-2.259,0.042-3.371-0.086
			c-0.565-0.065-1.244-0.342-1.61-0.755c-4.024-4.533-7.793-9.247-10.132-14.931c-0.534-1.297-1.106-2.588-1.777-3.818
			c-1.489-2.73-3.33-3.159-5.866-1.328c-1.479,1.068-2.841,2.297-4.263,3.444c-3.731,3.01-7.876,5.119-12.681,5.764
			c-2.017,0.271-4.037,0.516-6.056,0.775c-1.509,0.194-1.656,0.34-1.634,1.85c0.005,0.389,0.171,0.775,0.284,1.249
			c1.919-0.22,3.721-0.447,5.528-0.629c4.978-0.501,9.629-1.963,13.75-4.844c1.897-1.326,3.656-2.85,5.49-4.268
			c0.699-0.541,1.433-1.036,2.342-1.689c0.611,1.246,1.159,2.218,1.579,3.243c2.236,5.451,5.366,10.329,9.226,14.771
			c3.968,4.567,7.734,9.295,10.831,14.516c6.213,10.474,10.422,21.765,13.579,33.475c0.565,2.094,1.008,4.242,1.256,6.394
			c0.264,2.296-0.246,2.869-2.494,3.323c-1.856,0.374-3.741,0.604-5.605,0.94c-3.681,0.664-7.27,1.612-10.416,3.753
			c-3.185,2.167-5.285,5.05-5.512,9.004c-0.403,7.018,6.187,12.425,13.399,11.847c4.019-0.322,7.34-2.218,10.361-4.747
			c0.492-0.412,0.984-0.824,1.808-1.514c-0.163,1.005-0.23,1.485-0.32,1.96c-1.013,5.309-2.083,10.608-3.028,15.929
			c-0.86,4.839-1.634,9.696-2.337,14.56c-0.191,1.322-0.83,1.737-2.023,1.935c-2.627,0.437-5.248,0.936-7.848,1.513
			c-9.197,2.041-18.117,4.967-26.841,8.509c-0.666,0.27-1.362,0.464-2.146,0.729c0-1.42-0.046-2.542,0.008-3.658
			c0.215-4.424,0.549-8.844,0.68-13.27c0.405-13.775,0.887-27.554,0.159-41.333c-0.43-8.142-0.919-16.282-1.432-24.419
			c-0.137-2.171-0.453-4.331-0.709-6.493c-0.105-0.888-0.58-1.453-1.543-1.327c-0.894,0.118-1.044,0.832-1.068,1.57
			c-0.018,0.561-0.012,1.126,0.025,1.686c0.186,2.806,0.422,5.608,0.575,8.415c0.515,9.475,1.183,18.947,1.46,28.43
			c0.466,15.964-0.441,31.914-0.937,47.866c-0.039,1.26-0.123,2.519-0.189,3.836c-0.743,0.345-1.432,0.674-2.128,0.984
			c-4.679,2.085-9.363,4.158-14.037,6.253c-2.007,0.899-2.038,1.012-1.367,3.594c1.304-0.535,2.587-1.051,3.862-1.587
			c8.722-3.667,17.354-7.567,26.183-10.954c13.242-5.078,26.978-8.227,41.174-9.01c9.786-0.54,19.527,0.047,29.138,2.109
			c9.786,2.1,18.773,6.101,27.246,11.598c-12.878,32.348-25.755,64.693-38.652,97.087c-0.447,0.085-0.857,0.141-1.255,0.243
			c-3.256,0.832-6.515,1.653-9.76,2.526c-0.594,0.16-1.189,0.464-1.665,0.849c-0.263,0.213-0.476,0.812-0.36,1.091
			c0.157,0.378,0.649,0.857,1.003,0.862c0.746,0.011,1.526-0.173,2.239-0.427c4.828-1.721,9.79-2.386,14.908-2.18
			c3.35,0.135,6.573,0.721,9.535,2.294c2.85,1.513,5.614,3.188,8.411,4.799c0.73,0.42,1.416,0.931,2.176,1.282
			c0.652,0.301,1.417,0.406,1.887-0.337c0.447-0.707,0.178-1.36-0.418-1.865c-0.482-0.408-0.973-0.822-1.515-1.138
			c-3.153-1.832-6.323-3.638-9.489-5.449c-0.53-0.303-1.071-0.586-1.671-0.914c1.702-4.347,3.343-8.537,5.193-13.261
			c0.466,0.727,0.61,1.068,0.852,1.314c7.002,7.116,13.931,14.308,21.048,21.308c7.219,7.1,14.718,13.898,22.821,20.01
			c18.662,14.077,39.527,21.299,63.017,20.478c3.864-0.135,7.729-0.24,11.588-0.463c4.139-0.239,8.273-0.56,12.404-0.916
			c5.458-0.472,10.911-1.003,16.364-1.528c4.824-0.464,9.645-0.953,14.468-1.434c5.031-0.502,10.061-1.023,15.094-1.505
			c5.174-0.495,10.353-0.95,15.529-1.426c5.456-0.502,10.909-1.029,16.367-1.508c5.669-0.498,11.342-0.938,17.012-1.427
			c5.739-0.494,11.473-1.054,17.214-1.516c6.443-0.519,12.892-0.972,19.34-1.43c7.36-0.524,14.718-1.078,22.083-1.516
			c6.946-0.412,13.898-0.742,20.852-1.013c10.748-0.418,21.497-0.84,32.249-1.107c15.394-0.382,30.794-0.509,46.185-0.988
			c5.882-0.183,11.761-0.9,17.609-1.626c4.118-0.511,8.095-1.723,11.758-3.779c3.79-2.127,6.546-5.18,7.532-9.442
			c0.579-2.502,0.846-5.151,0.757-7.717c-0.273-7.841-2.89-15.031-7.013-21.611c-10.59-16.9-24.908-29.587-43.29-37.502
			c-10.741-4.625-22.112-6.753-33.664-7.985c-9.654-1.03-19.349-1.421-29.057-1.277c-5.975,0.089-11.952,0.225-17.922,0.48
			c-6.46,0.276-12.913,0.727-19.37,1.076c-2.641,0.143-5.286,0.22-7.854,0.324c-0.485-6.29-0.958-12.424-1.44-18.676
			c0.233-0.04,0.564-0.108,0.898-0.151c5.777-0.743,11.586-1.3,17.326-2.261c13.474-2.256,26.494-6.153,39.094-11.427
			c7.314-3.061,14.554-6.3,21.888-9.313c9.544-3.921,19.472-5.305,29.729-3.967c7.602,0.992,15.036,2.72,22.251,5.341
			c0.225,0.082,0.436,0.202,0.719,0.335c-1.526,2.482-2.991,4.793-4.379,7.149c-0.8,1.358-0.758,2.203-0.055,2.63
			c0.743,0.452,1.496,0.111,2.374-1.13c0.568-0.802,1.098-1.633,1.632-2.459c1.03-1.593,2.055-3.19,3.074-4.79
			c4.987-7.824,10.92-14.803,18.18-20.634c4.821-3.872,9.551-7.857,14.321-11.791c0-1.125,0-2.25,0-3.375
			c-1.908,1.415-3.818,2.826-5.721,4.248c-0.672,0.503-1.323,1.035-2.292,1.795c0.252-0.766,0.358-1.192,0.528-1.591
			c1.049-2.459,0.773-4.952,0.205-7.45c-0.94-4.127-3.414-7.339-6.214-10.35c-0.674-0.724-1.439-0.831-2.245-0.221
			c-0.389,0.295-0.852,0.568-1.096,0.965c-1.54,2.508-3.34,4.918-4.468,7.605c-2.254,5.365,0.511,11.497,5.717,13.046
			c1.459,0.434,3.097,0.268,4.657,0.377c-2.704,2.331-5.512,4.752-8.386,7.23c-0.319-0.109-0.653-0.182-0.95-0.33
			c-3.502-1.751-7.29-2.451-11.106-3.068c-1.312-0.212-2.632-0.434-3.91-0.79c-1.466-0.409-1.855-0.919-1.741-2.44
			c0.11-1.463,0.352-2.932,0.702-4.357c3.135-12.745,7.622-24.962,14.343-36.292c2.843-4.792,6.232-9.19,9.901-13.362
			c4.307-4.899,7.844-10.25,10.307-16.307c0.373-0.917,0.525-2.097,1.769-2.421c0-0.984,0-1.969,0-2.953
			c-1.448-0.19-2.437,0.538-3.149,1.678c-0.519,0.831-1.003,1.702-1.361,2.61c-2.272,5.758-5.635,10.811-9.731,15.423
			c-8.017,9.029-14.052,19.264-18.4,30.511c-0.125,0.325-0.289,0.635-0.57,1.247c-1.393-2.107-2.541-4.061-2.002-6.505
			c0.469-2.122,1.116-4.204,1.683-6.304c1.167-4.317,1.824-8.65,0.675-13.098c-0.792-3.066-2.192-5.813-4.434-8.018
			c-4.706-4.629-10.312-7.734-16.752-9.219c-3.339-0.77-5.53,0.57-6.29,3.898c-0.702,3.074-1.066,6.225-1.689,9.319
			c-0.696,3.463-1.794,6.816-3.8,9.752c-0.935,1.369-2.096,2.664-3.397,3.682c-1.969,1.541-4.517,1.42-6.243,0.025
			c-1.77-1.43-2.368-3.535-1.391-5.896c0.61-1.474,1.554-2.813,2.389-4.189c0.727-1.199,1.598-2.318,2.249-3.554
			c1.157-2.198,0.992-4.435-0.598-6.311c-1.163-1.372-2.553-2.632-4.052-3.623c-4.519-2.988-9.63-4.49-14.901-5.496
			c-1.715-0.327-3.441-0.589-5.279-0.901c0-0.978,0.002-1.879-0.001-2.78c-0.007-2.458,0.036-4.917-0.043-7.373
			c-0.046-1.423-0.555-1.86-1.96-1.868c-1.052-0.006-2.103,0.14-3.156,0.166c-8.36,0.205-16.72,0.389-25.079,0.598
			c-4.636,0.116-9.272,0.27-13.908,0.4c-0.694,0.019-1.389,0.003-2.385,0.003c0.348-0.988,0.653-1.744,0.881-2.523
			c0.532-1.817,1.13-3.623,1.515-5.472c0.842-4.041-0.405-6.064-4.489-6.764c-4.488-0.769-9.031-1.213-13.553-1.781
			c-0.758-0.095-1.528-0.101-2.288-0.423c1.049,0,2.098,0.005,3.148-0.001c52.085-0.306,104.171-0.613,156.256-0.915
			c0.701-0.004,1.403,0.047,2.104,0.072c0-0.984,0-1.969,0-2.953c-4.709,0.006-9.419-0.008-14.128,0.02
			c-53.568,0.313-107.137,0.626-160.705,0.953c-12.373,0.076-24.745,0.207-37.117,0.311c-0.761,0.007-1.522,0.001-2.305,0.001
			c0.685-4.271,4.903-8.648,9.846-8.222c3.576,0.308,6.613-0.729,9.536-2.603c2.141-1.373,4.417-2.428,7.067-2.443
			c3.034-0.016,5.627,1.006,7.842,3.045c0.207,0.19,0.417,0.382,0.593,0.599c1.927,2.387,3.422,2.831,6.055,0.097
			c1.852-1.923,3.715-3.839,5.651-5.676c1.429-1.356,3.086-2.391,5.08-2.826c0.114,0.217,0.258,0.389,0.299,0.584
			c0.763,3.654,3.055,6.129,6.238,7.794c6.276,3.283,12.981,4.792,20.073,4.654c3.692-0.072,6.434-1.773,8.494-4.693
			c0.814-1.153,1.596-2.121,3.091-2.562c1.685-0.497,2.672-2.02,3.5-3.5c0.888-1.586,1.634-3.251,2.569-5.139
			c0.592,0.831,1.133,1.521,1.597,2.258c1.438,2.28,3.395,3.642,6.157,3.878c2.351,0.2,4.489,1.074,6.352,2.567
			c0.493,0.395,1.019,0.749,1.537,1.111c1.511,1.054,3.103,1.219,4.778,0.42c0.633-0.302,1.265-0.608,1.9-0.908
			c2.122-1.003,4.345-1.544,6.703-1.6c1.611-0.038,3.224-0.156,4.828-0.322c1.904-0.197,3.044-1.345,3.5-3.158
			c0.359-1.428,0.616-2.882,0.955-4.316c2.685-11.358,10.131-18.163,20.941-21.573c6.442-2.032,13.009-1.91,19.559-0.352
			c0.266,0.063,0.513,0.21,0.893,0.371c-0.116,1.02-0.21,2.051-0.354,3.076c-0.447,3.18-0.042,6.307,0.555,9.422
			c0.078,0.407,0.148,0.915,0.418,1.161c0.364,0.331,0.935,0.639,1.386,0.601c0.344-0.029,0.825-0.569,0.917-0.959
			c0.14-0.588,0.043-1.251-0.038-1.871c-0.461-3.497-0.732-6.988,0.032-10.484C540.675,288.913,544.224,284.661,548.773,281.134z
			 M559.766,433.347c-3.071-1.391-4.558-5.247-3.347-8.811c0.844-2.486,2.437-4.54,3.977-6.9c2.667,2.858,4.396,5.867,4.843,9.473
			c0.152,1.228,0.146,2.545-0.127,3.744C564.499,433.537,562.296,434.494,559.766,433.347z M397.394,158.906
			c13.142-15.219,29.792-24.619,49.562-28.175c25.306-4.553,48.527,0.576,68.922,16.427c16.683,12.967,26.639,30.149,29.159,51.192
			c2.604,21.743-3.385,41.251-17.112,58.229c-12.942,16.007-29.774,25.805-49.9,29.98c-5.935,1.231-11.944,1.748-18.758,1.701
			c-4.466,0.156-9.62-0.458-14.756-1.326c-1.222-0.207-2.174-0.678-3.05-1.625c-20.57-22.253-41.165-44.482-61.79-66.684
			c-1.035-1.114-1.484-2.282-1.554-3.755C377.113,193.652,383.548,174.941,397.394,158.906z M294.495,132.193
			c0.973-3.298,1.94-6.597,2.961-9.88c0.311-1,0.718-1.984,1.195-2.917c1.215-2.377,2.348-2.936,4.932-2.56
			c2.341,0.34,3.753,1.52,4.085,3.867c0.222,1.57,0.159,3.218-0.032,4.801c-0.514,4.258-1.838,8.316-3.219,12.475
			c-3.406-1.601-6.679-3.139-10.092-4.744C294.364,132.984,294.383,132.574,294.495,132.193z M291.393,136.007
			c2.044,0.395,4.097,0.989,5.996,1.833c3.137,1.394,6.158,3.053,9.219,4.617c1.132,0.578,2.984,2.92,4.186,5.35
			c-2.068-0.381-3.851-0.668-5.615-1.044c-3.048-0.65-5.985-0.273-8.899,0.733c-3.573,1.234-3.661,1.161-4.753-2.559
			c-0.158-0.539-0.32-1.077-0.489-1.612c-0.913-2.895-2.788-4.815-5.729-5.661c-0.467-0.134-0.926-0.301-1.385-0.463
			c-0.053-0.019-0.083-0.102-0.304-0.388C286.249,136.087,288.797,135.506,291.393,136.007z M92.522,140.99
			c8.991-0.325,17.985-0.594,26.976-0.935c9.482-0.36,18.961-0.775,28.441-1.172c3.581-0.15,7.161-0.337,10.743-0.476
			c14.258-0.553,28.513-1.18,42.774-1.619c20.802-0.64,41.611-0.85,62.422-0.477c3.935,0.071,7.868,0.267,11.801,0.434
			c1.048,0.045,2.091,0.197,3.213,0.308c0.504,1.838,1.966,2.466,3.571,2.903c0.338,0.092,0.682,0.169,1.027,0.229
			c2.825,0.492,4.411,2.211,5.074,4.953c0.295,1.221,0.695,2.439,1.228,3.574c0.936,1.995,2.247,2.652,4.441,2.352
			c0.758-0.104,1.534-0.269,2.237-0.563c3.244-1.357,6.533-1.211,9.931-0.676c3.248,0.511,5.68,1.933,7.985,4.371
			c22.846,24.162,45.939,48.092,68.723,72.312c18.978,20.173,37.64,40.643,56.432,60.991c1.762,1.908,3.452,3.882,5.042,6.057
			c-0.267-0.096-0.576-0.135-0.796-0.297c-17.433-12.827-36.502-22.9-55.556-32.995c-29.028-15.379-58.344-30.184-88.147-44.012
			c-41.581-19.293-83.919-36.704-127.474-51.065c-22.648-7.468-45.55-14.064-68.786-19.449c-6.554-1.519-13.2-2.645-19.803-3.953
			c-0.254-0.05-0.504-0.124-0.73-0.346C86.368,141.287,89.443,141.101,92.522,140.99z M251.545,239.554
			c-1.06-0.441-1.749-0.694-2.41-1.007c-13.381-6.334-26.801-12.589-40.13-19.031c-40.658-19.648-82.415-36.618-125.031-51.507
			c-0.633-0.221-1.259-0.461-1.881-0.889c3.395-0.322,6.792-0.403,10.05-1.414c3.379-1.049,6.533-2.55,9.395-4.647
			c2.777-2.035,5.194-4.423,7.229-7.631c0.116,0.628,0.196,0.875,0.204,1.124c0.266,8.18,4.051,14.627,9.94,19.991
			c5.535,5.042,12.065,8.426,18.998,11.08c8.026,3.072,16.285,5.301,24.846,6.151c4.679,0.464,9.395,0.549,14.041-0.613
			c5.124-1.281,9.217-4.06,12.28-8.329c1.262-1.758,2.37-3.627,3.612-5.543c0.687,0.671,0.459,1.476,0.559,2.177
			c0.486,3.404,0.759,6.851,1.463,10.208c1.385,6.607,5.061,11.793,10.427,15.841c5.024,3.79,10.534,6.751,16.277,9.219
			c9.471,4.071,19.045,7.902,28.576,11.833c0.698,0.288,1.403,0.559,2.246,0.895C250.433,231.35,249.658,235.184,251.545,239.554z
			 M111.953,150.669c26.657,6.643,52.824,14.598,78.826,23.788c-1.912,3.424-3.663,6.774-6.45,9.432
			c-3.639,3.471-8.101,4.889-13.011,5.155c-9.036,0.49-17.717-1.388-26.27-4.025c-7.612-2.347-14.881-5.433-21.316-10.247
			c-4.35-3.254-7.858-7.191-10.115-12.181C111.922,158.844,111.472,154.931,111.953,150.669z M230.887,215.781
			c-5.525-2.405-10.982-4.991-16.331-7.762c-2.973-1.54-5.768-3.487-8.453-5.503c-4.744-3.562-7.533-8.404-8.719-14.217
			c-0.787-3.858-1.144-7.75-1.38-11.985c34.319,12.36,67.609,26.279,100.51,41.485c-3.576,6.683-8.72,10.878-16.253,11.762
			c-6.478,0.76-12.724-0.54-18.884-2.315C250.913,224.231,240.85,220.118,230.887,215.781z M300.139,241.305
			c2.63,2.966,5.668,5.457,8.923,7.693c8.89,6.106,18.473,10.964,28.201,15.546c7.624,3.592,15.39,6.839,23.549,9.041
			c3.464,0.935,6.969,1.596,10.593,1.517c6.59-0.143,11.857-2.585,15.215-8.494c0.549-0.966,1.149-1.902,2.014-3.327
			c0.15,0.896,0.311,1.304,0.266,1.688c-0.19,1.603-0.523,3.193-0.657,4.799c-0.406,4.875,0.953,9.319,3.499,13.43
			c3.01,4.86,7.145,8.656,11.634,12.093c1.828,1.4,3.744,2.683,5.542,4.256c-0.435-0.06-0.882-0.076-1.304-0.188
			c-10.209-2.695-19.892-6.831-29.599-10.887c-20.844-8.708-41.567-17.717-62.53-26.129c-15.876-6.372-32.046-12.012-48.086-17.976
			c-0.585-0.217-1.176-0.417-2.195-0.776c4.615-2.558,6.502-6.451,7.394-11.075c10.154,1.053,18.711-1.603,24.928-10.224
			c-0.344,2.048-0.635,4.105-1.041,6.141C295.504,233.361,296.853,237.597,300.139,241.305z M299.151,230.169
			c0.435-3.39,0.987-6.766,1.49-10.165c5.017,1.344,75.73,36.54,85.185,42.396c-1.278,1.908-2.341,3.824-3.718,5.479
			c-2.498,3.001-5.998,4.015-9.74,4.273c-4.338,0.299-8.515-0.657-12.628-1.885c-10.184-3.042-19.803-7.452-29.256-12.241
			c-6.7-3.394-13.322-6.938-19.509-11.225c-3.182-2.204-6.211-4.588-8.755-7.544C299.963,236.634,298.702,233.671,299.151,230.169z
			 M253.198,233.941c0.086-1.922,0.651-3.713,1.612-5.468c4.864,1.276,9.704,2.547,14.762,3.874
			c-0.41,2.304-1.101,4.493-2.684,6.293c-1.979,2.251-4.462,3.456-7.47,3.019C255.448,241.083,253.018,237.974,253.198,233.941z
			 M262.725,245.571c30.33,10.834,60.239,22.432,89.731,35.108c13.791,5.927,27.655,11.693,41.582,17.292
			c4.992,2.007,10.268,3.307,15.414,4.93c0.317,0.1,0.633,0.204,1.23,0.397c-0.662,1.004-1.202,1.875-1.794,2.708
			c-0.896,1.259-1.88,2.459-2.737,3.743c-2.731,4.093-6.656,5.018-11.248,4.452c-5.729-0.706-11.296-2.135-16.842-3.65
			c-9.872-2.696-19.783-5.271-29.401-8.816c-1.446-0.533-2.857-1.162-4.297-1.715c-5.092-1.954-7.519-5.836-8.079-11.091
			c-0.253-2.374-0.454-4.758-0.824-7.115c-0.728-4.637-3.124-5.73-7.058-3.261c-1.605,1.007-3.143,2.122-4.72,3.176
			c-5.434,3.634-11.374,4.522-17.726,3.321c-6.924-1.308-13.501-3.739-20.094-6.119c-9.702-3.502-19.297-7.266-28.585-11.776
			c-0.752-0.365-1.496-0.749-2.475-1.24C257.497,258.993,260.115,252.271,262.725,245.571z M397.353,285.796
			c-1.648-1.884-3.045-4.044-4.252-6.245c-2.41-4.392-2.577-9.103-1.457-14.141c18.258,9.588,36.202,19.423,52.802,32.029
			c-1.477,1.287-2.811,2.417-4.109,3.588c-3.788,3.417-8.259,3.921-13.027,3.028c-3.54-0.663-6.872-1.96-10.083-3.571
			C409.756,296.733,402.893,292.126,397.353,285.796z M71.157,172.52c-0.949,1.442-2.141,1.562-3.862,0.634
			c-2.45-1.321-3.978-4.715-3.39-7.803c0.234-1.228,0.658-2.437,1.133-3.598c0.52-1.27,1.198-2.476,2.001-4.101
			c1.764,3.408,4.223,5.616,7.515,7.205C73.539,167.524,72.697,170.18,71.157,172.52z M75.179,161.866
			c-4.346-2.16-6.545-5.78-6.437-10.697c0.064-2.886,0.718-5.67,1.373-8.418c3.232-0.242,32.604,5.283,37.241,6.992
			c-0.673,2.189-1.946,4.03-3.533,5.598c-6.337,6.258-13.887,9.39-22.866,8.313C78.983,163.415,76.966,162.754,75.179,161.866z
			 M188.476,237.615c-10.865-4.574-21.697-9.238-32.048-14.909c-3.07-1.682-5.952-3.711-8.898-5.616
			c-0.644-0.416-1.197-0.975-1.783-1.479c-2.884-2.48-4.327-5.615-4.41-9.428c-0.061-2.81-0.214-5.619-0.406-8.423
			c-0.071-1.041-0.243-2.111-0.593-3.088c-0.694-1.936-2.391-2.485-4.029-1.257c-0.995,0.746-1.812,1.749-2.638,2.699
			c-1.704,1.961-3.277,4.041-5.056,5.929c-2.16,2.292-4.877,3.247-8.035,2.68c-1.101-0.198-2.225-0.367-3.275-0.731
			c-1.786-0.619-3.573-1.277-5.27-2.103c-9.369-4.559-18.377-9.725-26.458-16.36c-1.619-1.33-3.078-2.881-4.474-4.452
			c-2.498-2.812-2.875-5.99-1.292-9.4c0.207-0.446,0.406-0.895,0.627-1.334c0.092-0.183,0.233-0.343,0.427-0.622
			c3.264,1.227,6.536,2.449,9.803,3.686c16.528,6.257,33.124,12.344,49.567,18.82c24.037,9.466,47.432,20.406,70.767,31.467
			c13.19,6.252,26.391,12.479,39.587,18.719c0.311,0.147,0.611,0.315,1.157,0.599c-2.232,5.627-4.447,11.21-6.771,17.068
			c-0.68-0.504-1.226-0.886-1.747-1.298c-3.121-2.468-5.798-5.297-7.523-8.953c-1.387-2.941-1.582-6.09-1.807-9.245
			c-0.05-0.701-0.061-1.407-0.157-2.102c-0.13-0.939-0.471-1.799-1.454-2.146c-1.037-0.366-1.94-0.003-2.701,0.716
			c-0.407,0.384-0.777,0.814-1.119,1.258c-1.457,1.893-2.953,3.76-4.319,5.717c-0.651,0.934-1.451,1.381-2.497,1.738
			c-3.873,1.322-7.652,0.496-11.404-0.417C202.731,243.517,195.582,240.607,188.476,237.615z M209.69,287.146
			c0.055-1.169,0.113-2.092,0.141-3.016c0.124-4.208,0.436-8.422,0.316-12.622c-0.229-8.023-2.255-15.657-5.602-22.944
			c-0.232-0.505-0.462-1.012-0.828-1.812c0.742,0.153,1.253,0.23,1.748,0.364c3.925,1.062,7.838,2.144,11.95,2.249
			c2.448,0.062,4.708-0.674,6.95-1.464c0.592-0.208,1.097-0.82,1.509-1.35c1.293-1.661,2.532-3.365,3.769-5.068
			c0.281-0.387,0.473-0.84,0.981-1.111c0.502,4.725,1.204,9.116,3.688,13.034c2.412,3.805,5.711,6.713,9.521,9.5
			c-2.984,7.507-5.97,15.016-8.981,22.59C226.174,280.957,217.923,281.164,209.69,287.146z M186.045,351.014
			c0.243-3.427,0.334-6.865,0.506-10.604c8.725-0.106,17.456-0.211,26.428-0.32c-0.274,0.816-0.442,1.405-0.668,1.972
			c-9.985,25.105-19.975,50.208-29.968,75.309c-0.279,0.7-0.436,1.463-1.337,1.747c-3.671,1.158-7.276,2.575-11.006,3.48
			c-3.646,0.884-7.231-1.381-8.538-4.918c-0.191-0.518-0.31-1.083-0.347-1.635c-0.098-1.457,0.314-2.123,1.734-2.447
			c1.293-0.295,2.633-0.396,3.956-0.541c1.744-0.19,3.512-0.233,5.236-0.529c3.473-0.596,6.232-2.449,8.429-5.167
			c2.679-3.315,4.117-7.149,4.688-11.338c0.028-0.208,0.027-0.421,0.033-0.631c0.121-4.054-2.334-5.677-5.984-3.898
			c-1.763,0.859-3.441,1.894-5.192,2.781c-1.192,0.604-2.455,1.012-3.99,0.596c0.1-1.447,0.769-2.378,1.613-3.096
			c1.653-1.405,3.403-2.697,5.127-4.017c1.392-1.065,2.913-1.985,4.185-3.175c2.032-1.901,3.123-4.306,3.019-7.149
			c-0.113-3.086-2.147-4.469-4.992-3.327c-1.426,0.573-2.761,1.371-4.145,2.052c-2.308,1.136-4.73,1.814-7.317,1.501
			c-1.025-0.124-2.09-0.37-3.013-0.817c-2.824-1.366-3.303-4.589-1.08-6.824c1.355-1.362,3.102-1.896,4.938-2.103
			c1.322-0.149,2.665-0.138,3.999-0.163c0.983-0.019,1.968,0.053,2.951,0.023c4.558-0.14,7.127-1.97,8.771-6.245
			C185.384,358.149,185.792,354.587,186.045,351.014z M138.926,339.696c1.028,1.205,1.715,2.536,2.11,4.044
			c0.532,2.033,0.042,3.77-1.555,5.103c-1.677,1.4-3.648,1.551-5.488,0.519c-1.245-0.699-2.365-1.742-3.305-2.835
			c-1.462-1.699-2.469-3.702-3.182-6.006C131.312,339.765,135.094,339.985,138.926,339.696z M82.391,338.754
			c3.306-0.381,11.855,0.275,14.282,1.094c-1.016,4.583-0.28,8.921,0.921,13.222c0.396,1.419,0.754,2.853,1.222,4.248
			c0.983,2.934,0.168,5.47-1.699,8.103C93.328,355.808,88.774,346.833,82.391,338.754z M138.492,446.675
			c-3.08-0.639-6.211-1.026-9.311-1.573c-0.801-0.142-1.947-0.224-2.275-0.747c-0.683-1.09-1-2.44-1.288-3.723
			c-0.057-0.254,0.676-0.968,1.069-0.988c1.174-0.059,2.395-0.028,3.536,0.236c3.611,0.835,7.155,2.022,10.798,2.643
			c4.687,0.799,9.448,1.159,14.172,1.757c1.731,0.219,3.483,0.442,5.157,0.907c1.94,0.538,2.216,1.645,1.055,3.322
			c-0.951,1.373-2.858,2.862-5.333,4.142C150.473,450.021,144.61,447.945,138.492,446.675z M159.318,454.345
			c0.69-0.55,1.268-0.912,1.721-1.392c1.15-1.218,2.459-2.36,3.314-3.769c1.528-2.522,0.712-5.186-2.026-6.27
			c-2.052-0.813-4.312-1.299-6.517-1.492c-7.563-0.661-15.079-1.47-22.383-3.721c-1.919-0.592-3.988-0.9-5.998-0.949
			c-3.662-0.089-5.368,2.404-4.244,5.86c0.17,0.521,0.336,1.043,0.513,1.595c-7.378,0.151-14.644,0.299-22.036,0.45
			c0.035-0.152,0.045-0.479,0.182-0.741c9.625-18.43,19.149-36.914,28.924-55.264c10.94-20.537,24.789-38.994,40.769-55.877
			c0.966-1.02,1.878-2.093,2.801-3.153c0.275-0.315,0.557-0.645,0.739-1.016c0.302-0.615,0.344-1.334-0.329-1.661
			c-0.411-0.2-1.103-0.168-1.511,0.052c-0.6,0.323-1.091,0.876-1.571,1.386c-14.11,14.979-27.09,30.816-37.578,48.612
			c-9.675,16.415-18.37,33.344-26.917,50.357c-1.955,3.891-3.902,7.786-5.857,11.677c-0.178,0.354-0.383,0.694-0.575,1.04
			c-0.122-0.033-0.243-0.066-0.365-0.1c0.192-1.344,0.372-2.689,0.579-4.031c1.302-8.47,2.706-16.921,4.759-25.251
			c0.183-0.744,0.24-1.527,0.279-2.295c0.041-0.798-0.097-1.595-0.93-1.961c-0.878-0.385-1.65-0.067-2.299,0.572
			c-0.501,0.493-0.933,1.066-1.473,1.507c-2.008,1.638-3.924,3.436-6.107,4.801c-2.923,1.828-6.199,2.23-9.514,1.046
			c-3.135-1.119-5.278-3.26-5.809-6.625c-0.522-3.31,0.932-5.879,3.505-7.863c2.87-2.212,6.278-3.041,9.744-3.697
			c2.204-0.417,4.44-0.701,6.612-1.245c3.168-0.793,4.417-2.382,4.102-5.637c-0.262-2.708-0.837-5.413-1.551-8.043
			c-1.158-4.261-2.544-8.459-3.803-12.583c0.802-1.252,1.663-2.44,2.36-3.718c1.406-2.573,1.736-5.266,0.903-8.143
			c-0.878-3.031-1.761-6.082-2.298-9.184c-1.138-6.569,0.798-12.115,6.182-16.224c3.766-2.874,7.863-5.166,12.543-6.215
			c2.306-0.517,2.961-0.114,3.404,2.151c0.606,3.1,1.038,6.235,1.674,9.328c0.711,3.462,1.884,6.794,3.842,9.748
			c1.074,1.62,2.361,3.177,3.829,4.439c2.313,1.988,5.064,2.676,8.062,1.591c4.176-1.511,6.227-5.77,4.704-10.096
			c-0.551-1.566-1.507-3.001-2.365-4.444c-0.644-1.085-1.484-2.053-2.132-3.135c-1.204-2.011-1.11-3.271,0.581-4.902
			c1.1-1.061,2.377-1.985,3.697-2.764c3.666-2.163,7.702-3.394,11.843-4.217c4.691-0.933,9.441-1.536,14.235-1.339
			c2.234,0.092,4.487,0.371,6.672,0.84c4.225,0.905,5.998,2.875,6.508,7.165c0.348,2.927,0.551,5.878,0.669,8.825
			c0.25,6.264,0.051,12.516-1.097,18.695c-0.292,1.571-0.827,3.126-1.465,4.596c-0.775,1.784-2.179,2.916-4.221,3.021
			c-1.26,0.065-2.527,0.028-3.784,0.124c-2.303,0.175-4.65,0.197-6.883,0.704c-1.51,0.343-3.05,1.18-4.239,2.194
			c-4.037,3.443-3.249,9.311,1.456,11.742c2.757,1.425,5.707,1.599,8.612,0.821c2.145-0.574,4.164-1.624,6.231-2.48
			c0.884-0.366,1.748-0.778,2.752-1.228c0.663,2.183,0.009,3.865-1.213,5.245c-1.009,1.14-2.29,2.056-3.522,2.977
			c-1.517,1.135-3.233,2.033-4.631,3.291c-1.389,1.251-2.622,2.731-3.674,4.281c-0.858,1.262-1.006,2.802-0.045,4.175
			c0.955,1.365,2.383,1.612,3.936,1.458c2.153-0.214,4.019-1.179,5.867-2.206c1.388-0.771,2.794-1.509,4.559-2.46
			c0.094,1.063,0.268,1.73,0.19,2.366c-0.482,3.926-1.858,7.482-4.535,10.463c-1.911,2.127-4.252,3.383-7.136,3.629
			c-2.447,0.208-4.888,0.491-7.328,0.775c-0.551,0.064-1.101,0.222-1.625,0.41c-2.473,0.884-3.569,2.545-3.44,5.154
			c0.282,5.71,6.245,10.47,11.994,9.388c2.465-0.464,4.848-1.368,7.259-2.104c0.855-0.261,1.682-0.617,2.983-1.1
			c-4.828,12.136-9.507,23.9-14.278,35.892C163.842,456.911,161.685,455.688,159.318,454.345z M137.601,558.754
			c-2.709-0.255-5.214-0.49-7.778-0.731c0.011,0.012-0.042-0.027-0.069-0.079c-0.031-0.061-0.074-0.148-0.053-0.2
			c41.549-104.435,83.104-208.868,124.661-313.299c0.153-0.383,0.344-0.751,0.536-1.164c1.635,0.54,3.202,1.058,4.945,1.634
			C219.083,349.557,178.332,454.181,137.601,558.754z M239.366,308.246c2.378-1.494,4.657-3.151,7.067-4.591
			c2.796-1.671,5.812-2.759,9.117-2.985c3.808-0.26,7.033,0.959,9.794,3.547c2.779,2.606,4.562,5.855,6.058,9.292
			c0.673,1.545,1.256,3.133,2.001,4.641c1.166,2.358,2.493,2.63,4.478,0.957c1.235-1.041,2.356-2.22,3.599-3.249
			c4.149-3.435,8.927-5.016,14.292-4.393c4.732,0.549,8.848,2.586,12.455,5.696c5.764,4.971,9.059,11.353,10.767,18.656
			c0.029,0.123-0.036,0.269-0.11,0.742c-30.528,0.196-61.015,0.393-91.723,0.59c0.282-0.836,0.457-1.43,0.68-2.005
			c3.123-8.052,6.264-16.098,9.368-24.158C237.657,309.826,238.293,308.92,239.366,308.246z M177.046,465.539
			c0.77,0.38,1.324,0.64,1.867,0.923c9.215,4.805,18.48,9.505,28.25,13.11c10.573,3.901,21.433,6.578,32.657,7.823
			c10.734,1.192,21.472,0.988,32.22,0.465c5.896-0.287,11.788-0.669,17.684-0.962c7.652-0.38,15.304-0.798,22.961-1.043
			c7.237-0.231,14.48-0.261,21.721-0.372c0.273-0.004,0.547,0.065,1.149,0.143c-0.158,5.962-0.312,11.759-0.469,17.671
			c-1.572,0-2.963,0.047-4.351-0.007c-16.448-0.637-32.901-0.736-49.349-0.226c-8.425,0.261-16.846,0.855-25.248,1.55
			c-8.676,0.717-17.342,1.61-25.983,2.665c-8.566,1.046-17.1,2.368-25.642,3.608c-8.889,1.289-17.777,2.587-26.654,3.952
			c-6.448,0.991-12.879,2.098-19.319,3.145c-0.542,0.088-1.095,0.111-1.995,0.197C163.42,500.525,170.201,483.115,177.046,465.539z
			 M253.712,606.685c-23.683,0.915-44.589-6.5-63.177-20.972c-7.001-5.451-13.6-11.352-19.92-17.558
			c-7.07-6.943-13.974-14.056-20.944-21.1c-0.987-0.997-1.94-2.028-3.109-3.253c2.906-7.458,5.835-14.976,8.804-22.596
			c4.031-0.61,8.043-1.221,12.056-1.824c4.162-0.625,8.338-1.171,12.482-1.901c1.501-0.265,2.513-0.083,3.708,1.029
			c18.767,17.466,36.14,36.21,51.935,56.406c7.239,9.256,13.952,18.867,19.424,29.298c0.352,0.672,0.692,1.35,1.184,2.312
			C255.178,606.59,254.445,606.656,253.712,606.685z M306.583,602.493c-8.457,0.839-16.91,1.727-25.376,2.456
			c-6.72,0.579-13.458,0.935-20.184,1.436c-1.131,0.084-1.785-0.239-2.315-1.289c-6.846-13.566-15.736-25.768-25.265-37.527
			c-13.341-16.463-27.63-32.054-43.11-46.538c-1.471-1.377-2.983-2.711-4.857-4.41c8.548-1.257,16.521-2.458,24.503-3.596
			c7.781-1.11,15.564-2.212,23.36-3.211c5.432-0.696,10.891-1.18,16.329-1.825c1.612-0.191,2.693,0.307,3.812,1.531
			c12.162,13.297,23.547,27.205,33.777,42.058c9.404,13.654,17.099,28.225,23.791,43.357c0.961,2.173,1.946,4.335,3.014,6.71
			C311.433,601.945,309.011,602.252,306.583,602.493z M317.071,601.347c-7.458-17.252-15.606-34.096-26.223-49.651
			c-10.589-15.515-22.246-30.158-35.449-44.055c1.493-0.188,2.576-0.37,3.667-0.453c17.4-1.322,34.827-1.645,52.268-1.401
			c6.538,0.091,13.073,0.317,19.611,0.413c1.375,0.02,2.26,0.374,3.071,1.62c0.966,1.485,1.419,2.95,1.489,4.696
			c0.109,2.732,0.436,5.455,0.705,8.586c-1.113,0.162-2.06,0.301-3.007,0.436c-2.914,0.415-5.843,0.75-8.735,1.285
			c-1.068,0.197-2.138,0.731-3.051,1.345c-1.786,1.203-2.344,3.356-1.212,5.195c0.71,1.154,1.747,2.224,2.874,2.981
			c2.491,1.674,5.355,2.525,8.342,2.601c2.516,0.064,5.046-0.151,7.56-0.366c3.386-0.29,5.809-1.931,6.885-5.285
			c0.062-0.194,0.195-0.367,0.429-0.794c11.249,21.63,19.206,44.249,24.743,67.975C352.994,598.104,335.118,599.718,317.071,601.347
			z M339.032,519.007c-0.418-6.449-0.874-12.913-0.853-19.37c0.028-8.645,0.491-17.289,0.778-25.933
			c0.025-0.76,0.124-1.518,0.217-2.611c2.174,0.567,4.05,1.057,6.08,1.587c-0.18,1.206-0.331,2.301-0.509,3.392
			c-1.448,8.863-1.311,17.784-1.087,26.718c0.167,6.676,0.192,13.357,0.146,20.034c-0.013,1.875-0.403,3.768-0.799,5.615
			c-0.33,1.538-1.326,2.622-2.949,2.966c-4.606,0.976-9.201,1.252-13.66-0.611c-1.137-0.475-2.248-1.191-3.135-2.043
			c-1.064-1.021-0.822-2.103,0.573-2.621c1.499-0.558,3.088-0.935,4.67-1.194c1.729-0.283,3.494-0.342,5.244-0.497
			c0.42-0.037,0.845-0.036,1.261-0.099C338.446,523.813,339.259,522.512,339.032,519.007z M395.896,485.169
			c0.93,3.584,1.448,14.297,0.832,18.202c-16.557,0.885-33.163,0.783-49.997,0.333c-0.38-6.063-0.431-12.043-0.007-18.088
			C363.22,485.466,379.487,485.319,395.896,485.169z M347.027,482.438c0.028-3.107,0.602-5.962,1.206-8.987
			c0.579,0.042,1.117,0.033,1.636,0.127c9.524,1.721,19.101,2.255,28.729,1.134c3.687-0.429,7.348-1.086,11.016-1.666
			c0.816-0.129,1.447-0.098,2.003,0.685c1.724,2.424,2.991,5.03,3.697,8.255C379.165,482.709,363.178,482.647,347.027,482.438z
			 M397.519,525.617c-4.06-6.459-7.877-12.531-11.83-18.819c3.802-0.144,7.355-0.278,11.074-0.419
			C396.783,512.773,396.324,519.01,397.519,525.617z M374.075,596.169c-0.222-0.847-0.462-1.703-0.672-2.566
			c-4.774-19.633-11.174-38.703-19.835-56.98c-1.924-4.06-4.033-8.032-6.023-12.062c-0.333-0.673-0.696-1.429-0.704-2.15
			c-0.06-5.126-0.032-10.252-0.032-15.665c2.274,0,4.297-0.004,6.32,0.001c9.207,0.023,18.415,0.086,27.622,0.03
			c1.295-0.008,1.866,0.555,2.488,1.48c6.95,10.334,12.965,21.214,18.85,32.171c8.623,16.056,15.93,32.689,21.869,49.92
			c0.203,0.588,0.363,1.19,0.589,1.938C407.712,593.581,391.007,594.867,374.075,596.169z M539.246,527.14
			c7.079,6.086,13.235,12.988,18.24,20.886c3.379,5.332,5.824,11.045,6.863,17.31c0.498,2.999,0.648,6.012,0.192,9.026
			c-0.601,3.972-2.501,7.139-6.025,9.181c-1.443,0.836-2.989,1.496-4.538,2.261c-0.271-0.372-0.475-0.566-0.576-0.803
			c-3.933-9.317-9.425-17.723-15.23-25.935c-11.288-15.968-23.601-31.131-36.256-46.024c-1.501-1.767-3.029-3.513-4.536-5.275
			c-0.082-0.096-0.091-0.255-0.197-0.572C513.108,510.126,527.099,516.696,539.246,527.14z M492.746,506.426
			c5.383,6.485,10.806,12.944,16.149,19.469c11.047,13.488,21.918,27.113,31.553,41.67c3.532,5.336,6.836,10.806,9.414,16.684
			c0.302,0.688,0.577,1.388,0.996,2.398c-2.27,0.404-4.302,0.843-6.356,1.12c-10.686,1.443-21.456,1.327-32.201,1.633
			c-7.449,0.212-14.903,0.275-22.354,0.398c-1.048,0.017-2.097,0.002-3.275,0.002c-9.727-31.277-24.402-59.754-44.645-85.39
			C451.116,503.15,479.547,503.757,492.746,506.426z M409.005,505.798c9.869-0.529,19.54-1.048,29.363-1.575
			c20.263,25.667,35.406,54.051,45.184,85.473c-18.625,0.776-37.174,1.55-55.99,2.334c-6.858-20.887-15.959-40.668-26.478-59.877
			c2.101,1.259,4.234,2.252,6.605,2.626c2.601,0.411,5.182,0.368,7.693-0.518c0.723-0.255,1.441-0.565,2.1-0.954
			c1.879-1.109,3.114-2.746,3.061-4.958c-0.055-2.305-1.425-3.916-3.451-4.926c-1.808-0.902-3.74-1.148-5.743-0.9
			c-0.892,0.111-1.789,0.188-2.798,0.291c-0.164-0.66-0.429-1.192-0.403-1.71C408.403,516.067,408.705,511.031,409.005,505.798z
			 M409.321,525.684c0.909-0.03,1.814-0.191,2.723-0.275c1.507-0.139,2.966,0.061,4.24,0.909c1.686,1.122,1.807,3.038,0.125,4.161
			c-1.071,0.715-2.393,1.201-3.668,1.435c-2.525,0.464-5.035,0.17-7.426-0.841c-2.669-1.129-4.311-3.172-4.818-5.967
			c-0.436-2.409-0.732-4.868-0.796-7.313c-0.097-3.719,0.009-7.445,0.12-11.166c0.197-6.676,0.28-13.345-0.623-19.984
			c-0.669-4.919-1.942-9.63-4.901-13.737c-0.117-0.162-0.152-0.383-0.289-0.746c2.493-0.744,4.951-1.477,7.337-2.188
			c1.313,5.759,2.772,11.37,3.838,17.054c1.076,5.741,1.292,11.584,0.957,17.423c-0.257,4.487-0.669,8.965-0.921,13.451
			c-0.086,1.531-0.04,3.099,0.199,4.61C405.797,524.907,406.939,525.762,409.321,525.684z M406.981,481.098
			c-0.74-2.935-1.441-5.645-2.095-8.366c-0.146-0.607-0.178-1.254-0.174-1.882c0.011-1.972,0.153-2.168,2.033-2.901
			c5.18-2.02,10.154-4.466,14.933-7.298c1.015-0.601,2.012-0.876,3.176-0.86c2.812,0.038,5.625,0.018,8.438-0.023
			c0.838-0.012,1.709-0.059,2.496-0.308c0.425-0.135,0.91-0.688,1.003-1.129c0.149-0.711-0.412-1.159-1.098-1.293
			c-0.478-0.094-0.979-0.1-1.469-0.102c-1.896-0.011-3.793-0.005-6.141-0.005c1.48-1.615,3.08-2.44,4.433-3.55
			c1.467-1.203,2.975-2.358,4.423-3.584c1.394-1.181,2.76-2.398,4.091-3.651c1.382-1.301,2.728-2.641,4.05-4.004
			c1.272-1.312,2.523-2.648,3.727-4.023c1.25-1.428,2.449-2.901,3.637-4.381c1.134-1.414,2.225-2.863,3.435-4.426
			c1.532,2.807,3.868,4.461,6.283,6.076c1.803,1.205,3.523,2.554,5.171,3.965c0.886,0.759,1.648,1.731,1.646,3.1
			c-1.067,0.534-2.09,0.286-3.04-0.153c-1.526-0.704-2.996-1.526-4.503-2.273c-1.066-0.528-2.111-1.165-3.24-1.486
			c-2.065-0.586-3.858,0.607-4.146,2.744c-0.157,1.168-0.154,2.405,0.042,3.566c0.706,4.173,2.403,7.891,5.257,11.077
			c3.102,3.464,7.152,4.488,11.551,4.753c1.54,0.093,3.076,0.264,4.607,0.457c0.539,0.068,1.057,0.306,1.944,0.575
			C455.023,472.62,431.865,479.437,406.981,481.098z M514.714,453.876c-0.84-0.066-1.688-0.281-2.515-0.215
			c-5.82,0.464-11.425-1.008-17.1-1.837c-1.969-0.288-2.547,0.306-2.055,2.286c0.116,0.466,0.247,0.928,0.396,1.483
			c-4.389,1.64-8.7,3.25-13.147,4.911c-1.933-2.159-4.652-2.461-7.407-2.674c-1.68-0.13-3.363-0.245-5.034-0.454
			c-1.844-0.23-3.536-0.908-4.956-2.134c-3.823-3.302-5.729-7.54-6.017-12.54c-0.023-0.404,0.111-0.816,0.219-1.533
			c1.059,0.498,1.987,0.919,2.902,1.366c1.824,0.891,3.587,1.942,5.481,2.641c1.131,0.418,2.49,0.518,3.695,0.364
			c2.125-0.27,3.177-2.085,2.689-4.179c-0.399-1.709-1.364-3.112-2.629-4.235c-1.517-1.347-3.18-2.532-4.81-3.746
			c-1.181-0.88-2.511-1.585-3.59-2.57c-0.909-0.83-1.644-1.896-2.288-2.96c-0.69-1.14-0.559-2.279,0.777-3.362
			c0.479,0.581,0.975,1.106,1.383,1.692c2.458,3.532,5.78,5.465,10.129,5.423c3.408-0.033,5.275-1.47,6.327-4.705
			c0.103-0.318,0.241-0.671,0.472-0.896c2.71-2.631,2.813-5.636,1.197-9.148c4.845-1.238,9.576-2.693,13.575-6.191
			c9.673,13.806,17.586,28.388,25.538,43.426C516.613,454.003,515.663,453.951,514.714,453.876z M473.686,407.717
			c0.013,0.177,0.025,0.355,0.038,0.532c-2.126,0.642-4.251,1.284-6.863,2.073c0.694-1.547,1.145-2.555,1.716-3.829
			C470.307,406.908,471.996,407.312,473.686,407.717z M469.719,403.69c0.562-1.53,1.066-2.905,1.547-4.216
			c1.316-0.236,2.527-0.49,3.751-0.657c0.528-0.073,1.28-0.188,1.587,0.093c1.35,1.233,2.566,2.622,2.791,4.555
			c0.141,1.213-0.235,1.702-1.417,1.905c-0.473,0.081-0.993,0.088-1.458-0.02C474.279,404.832,472.049,404.264,469.719,403.69z
			 M479.038,409.205c2.006-0.727,3.843-2.003,5.635-3.211c1.47-0.992,2.503-2.442,3.142-4.131c1.255-3.319-0.197-6.052-3.619-6.94
			c-2.473-0.642-4.868-0.269-7.266,0.347c-1.395,0.358-2.791,0.71-4.368,1.111c0-0.516-0.013-0.589,0.002-0.656
			c0.818-3.575,0.829-3.519,4.352-4.216c3.521-0.697,6.983-0.581,10.389,0.509c7.92,2.536,9.689,10.059,3.757,15.899
			c-2.672,2.63-5.928,4.254-9.514,5.143c-3.327,0.825-6.719,1.387-10.069,2.123c-0.876,0.193-1.779,0.477-2.54,0.936
			c-1.638,0.988-1.93,2.621-0.727,4.118c0.696,0.866,1.608,1.559,2.423,2.328c0.867,0.818,1.812,1.569,2.586,2.467
			c1.475,1.711,1.091,2.857-1.109,3.472c-1.695,0.473-3.338,0.15-4.927-0.505c-1.888-0.778-3.293-2.113-4.306-3.867
			c-0.559-0.968-1.083-1.956-1.656-2.997c1.229-2.29,2.51-4.622,3.733-6.986c0.372-0.719,0.947-0.887,1.654-1.094
			C470.772,411.83,474.965,410.681,479.038,409.205z M479.975,397.738c1.405-0.514,2.581-0.368,3.458,0.978
			c0.266,0.409,0.592,0.786,0.933,1.137c0.721,0.741,0.687,1.483,0.048,2.232c-0.489,0.572-1.007,1.12-1.516,1.683
			C481.907,401.722,480.983,399.818,479.975,397.738z M475.858,423.39c-1.705-1.568-3.403-3.129-5.442-5.006
			c1.47-0.305,2.457-0.563,3.461-0.707c1.735-0.251,2.406,0.207,2.897,1.851C477.198,420.952,476.941,422.086,475.858,423.39z
			 M498.781,399.525c2.934,1.621,5.792,1.372,8.568-0.382c2.071-1.308,3.559-3.168,4.79-5.244c2.291-3.861,3.544-8.086,4.296-12.476
			c0.356-2.077,0.588-4.176,0.989-6.243c0.465-2.397,1.16-2.896,3.493-2.306c5.842,1.477,11.004,4.268,15.149,8.666
			c3.055,3.241,4.204,7.308,3.767,11.684c-0.27,2.706-1.014,5.368-1.582,8.042c-0.189,0.89-0.447,1.772-0.751,2.63
			c-1.688,4.757,0.093,8.616,3.122,12.308c-1.373,4.543-2.789,9.024-4.067,13.545c-0.59,2.088-1.003,4.238-1.336,6.385
			c-0.56,3.608,0.767,5.665,4.309,6.517c2.791,0.671,5.658,1.018,8.461,1.647c1.756,0.394,3.455,1.044,5.291,1.614
			c-2.197,2.465-4.277,4.646-6.178,6.974c-1.906,2.334-3.634,4.814-5.524,7.341c-2.17-0.719-4.327-1.526-6.536-2.148
			c-3.911-1.1-7.828-2.205-11.796-3.059c-1.358-0.292-1.999-0.887-2.613-2.013c-4.738-8.696-9.407-17.435-14.364-26.006
			c-3.619-6.258-7.642-12.283-11.631-18.645c2.001-2.575,3.216-5.703,2.82-9.546C498.075,399.142,498.429,399.331,498.781,399.525z
			 M475.585,383.961c0.731-4.707,1.529-9.403,2.355-14.381c2.33,0.416,4.729,0.775,7.095,1.284
			c3.928,0.845,7.725,2.111,11.146,4.262c1.292,0.812,2.476,1.844,3.558,2.927c1.108,1.109,1.2,2.505,0.424,3.884
			c-0.447,0.793-0.939,1.568-1.479,2.3c-1.919,2.603-3.706,5.259-3.88,8.729c-0.332-0.147-0.548-0.186-0.687-0.312
			c-3.9-3.532-8.647-4.503-13.683-4.339c-1.424,0.046-2.424-0.193-3.203-1.385c-0.342-0.524-0.904-0.909-1.22-1.443
			C475.748,385.042,475.511,384.442,475.585,383.961z M464.161,360.941c-0.033-0.842-0.038-1.685-0.04-2.528
			c0-0.126,0.085-0.252,0.225-0.639c3.443,0,6.987,0,10.686,0c0.033,0.202,0.131,0.531,0.134,0.862
			c0.323,37.523-18.047,77.341-54.319,99.152c-11.503,6.917-23.915,11.392-37.172,13.429c-8.156,1.253-16.379,1.531-24.589,0.627
			c-35.75-3.937-62.386-22.17-81.207-52.311c-8.552-13.696-13.649-28.736-15.928-44.729c-0.785-5.506-1.258-11.029-1.221-16.592
			c0.003-0.412,0.081-0.823,0.146-1.442c1.973-0.104,3.911-0.206,5.986-0.315c0.203,2.497,0.359,4.792,0.581,7.081
			c1.47,15.131,6.06,29.281,13.883,42.288c15.312,25.461,37.351,42.079,66.156,49.581c10.356,2.698,20.921,3.594,31.556,2.679
			c24.147-2.077,44.794-11.657,61.29-29.583c11.55-12.551,18.761-27.363,22.13-44.069
			C464.021,376.672,464.472,368.836,464.161,360.941z M241.421,382.708c5.541,5.088,12.063,8.375,19.219,10.502
			c0.403,0.12,0.803,0.321,1.211,0.34c1.261,0.057,1.514,0.98,1.877,1.926c1.781,4.648,3.583,9.289,5.434,13.909
			c0.618,1.542,1.403,3.018,2.275,4.872c-6.089-1.768-11.045-4.696-15.3-8.629c-4.894-4.523-9.569-9.295-14.178-14.112
			c-3.298-3.446-6.405-7.084-9.45-10.759c-1.377-1.662-2.521-3.553-3.549-5.46c-2.151-3.992-2.609-8.254-1.534-12.661
			c0.406-1.666,1.164-3.169,2.447-4.343c1.708-1.561,3.482-1.387,4.849,0.465c1.2,1.625,1.833,3.505,1.995,5.477
			c0.23,2.794,0.441,5.61,0.34,8.406C236.91,376.752,238.467,379.995,241.421,382.708z M240.517,375.998c6.227,0,12.306,0,18.467,0
			c1.018,4.821,2.04,9.661,3.137,14.856c-7.221-2.247-13.483-5.448-18.783-10.353C242.088,379.344,240.801,378.101,240.517,375.998z
			 M460.828,357.927c0.111,0.543,0.266,1.004,0.293,1.472c1.277,22.282-4.137,42.681-17.589,60.637
			c-13.073,17.449-30.476,28.332-51.704,33.2c-9.056,2.077-18.231,2.639-27.442,1.944c-18.104-1.367-34.709-7.246-49.596-17.633
			c-22.596-15.766-37.048-37.1-42.871-64.095c-0.988-4.582-1.281-9.315-1.847-13.985c-0.117-0.963-0.017-1.953-0.017-3.202
			c10.036-0.526,19.828-1.038,29.676-1.554c0.237,2.487,0.297,4.736,0.699,6.922c0.494,2.685,1.095,5.376,1.962,7.96
			c2.503,7.463,7.757,12.035,15.338,13.946c8.25,2.08,16.171,1.138,23.677-2.874c6.707-3.585,10.964-9.283,13.707-16.237
			c0.232-0.588,0.452-1.18,0.685-1.768c0.022-0.056,0.099-0.091,0.384-0.337c6.89-0.323,13.929-1.902,21.255-1.606
			c0.35,1.023,0.614,2.029,1.029,2.968c3.804,8.604,9.795,15.208,18.262,19.368c6.853,3.367,13.235,2.046,19.091-2.551
			c2.62-2.057,4.771-4.558,6.691-7.269c2.61-3.685,4.718-7.65,6.581-11.752c0.403-0.887,0.804-1.775,1.231-2.717
			C440.522,358.484,450.623,358.207,460.828,357.927z M303.357,350.931c0.849-4.509,2.933-6.407,7.573-6.703
			c3.709-0.237,7.438-0.323,11.154-0.249c9.059,0.179,18.117,0.474,27.173,0.761c2.02,0.064,4.035,0.286,6.25,0.449
			c-0.04,7.73-1.208,14.974-4.71,21.639c-5.506,10.482-14.53,14.956-26.111,14.768c-3.103-0.05-6.135-0.594-9.037-1.756
			c-4.74-1.899-8.191-5.147-10.03-9.922C303.263,363.797,302.124,357.483,303.357,350.931z M356.779,359.562
			c0.45-2.341,0.845-4.4,1.284-6.681c6.154-1.865,12.485-2.302,19.037-1.708c0,2.256,0,4.266,0,6.244
			C370.397,358.125,363.74,358.827,356.779,359.562z M416.953,342.23c3.905,0.288,7.789,0.953,11.658,1.6
			c2.722,0.455,3.129,1.012,2.354,3.723c-1,3.497-2.157,6.969-3.526,10.337c-2.546,6.265-5.677,12.224-10.224,17.324
			c-1.836,2.06-3.937,3.788-6.391,5.086c-3.616,1.914-7.328,2.154-11.182,0.819c-3.518-1.218-6.554-3.239-9.192-5.787
			c-2.062-1.992-3.985-4.161-5.736-6.432c-3.225-4.182-5.102-8.873-4.759-14.306c0.244-2.3,0.498-4.599,0.727-6.901
			c0.096-0.96,0.584-1.455,1.524-1.726c5.6-1.618,11.276-2.809,17.078-3.448C405.171,341.87,411.069,341.796,416.953,342.23z
			 M404.44,338.935c-5.87,0.549-11.697,1.351-17.401,2.868c-2.438,0.649-4.854,1.386-7.268,2.123
			c-1.773,0.542-1.75,0.572-1.867,2.647c-0.027,0.483-0.189,0.959-0.335,1.665c-6.397-0.575-12.707-0.015-19.254,1.716
			c0.056-1.268,0.101-2.282,0.147-3.296c0.131-2.9-0.816-4.121-3.63-4.306c-5.82-0.383-11.643-0.769-17.471-0.963
			c-7.167-0.239-14.34-0.32-21.511-0.387c-2.101-0.019-4.22,0.133-6.305,0.401c-4.393,0.563-7.332,2.971-8.648,7.249
			c-0.287,0.934-0.497,1.891-0.764,2.921c-0.332,0.09-0.653,0.241-0.981,0.258c-5.966,0.317-11.933,0.615-17.9,0.925
			c-7.159,0.372-14.318,0.749-21.477,1.131c-1.604,0.086-2.009,0.413-1.996,2.039c0.028,3.373,0.128,6.746,0.284,10.116
			c0.1,2.164,0.353,4.322,0.563,6.774c-6.197,0-12.264,0-18.579,0c0-1.205,0.092-2.529-0.02-3.836
			c-0.209-2.443-0.319-4.928-0.886-7.296c-0.413-1.724-1.276-3.446-2.322-4.891c-2.215-3.063-5.757-3.335-8.639-0.869
			c-2.612,2.234-3.702,5.238-4.095,8.53c-0.587,4.927,0.439,9.561,3.122,13.703c1.866,2.88,3.915,5.681,6.182,8.254
			c6.182,7.014,12.461,13.947,19.401,20.242c5.601,5.08,11.935,8.88,19.245,10.923c1.128,0.315,1.783,0.89,2.352,1.864
			c8.088,13.836,18.51,25.588,31.445,35.084c0.338,0.248,0.65,0.532,0.964,0.81c0.032,0.028-0.006,0.134-0.022,0.358
			c-1.273,0.127-2.577,0.283-3.885,0.384c-5.533,0.43-11.068,0.843-16.602,1.262c-0.28,0.021-0.563,0.021-0.842,0.049
			c-0.868,0.088-1.529,0.457-1.449,1.435c0.071,0.874,0.729,1.118,1.514,1.101c0.843-0.019,1.688-0.013,2.53-0.063
			c7.155-0.424,14.311-0.836,21.463-1.31c1.394-0.092,2.565,0.184,3.77,0.926c7.081,4.362,10.649,5.993,23.119,10.778
			c-0.205,3.878-0.414,7.85-0.635,12.034c-0.65,0.076-1.244,0.193-1.841,0.207c-9.349,0.223-18.7,0.357-28.045,0.67
			c-6.742,0.226-13.48,0.644-20.215,1.051c-12.705,0.769-25.417,1.6-38.143,0.928c-15.341-0.811-30.155-4.21-44.266-10.289
			c-7.597-3.272-14.964-7.08-22.433-10.647c-0.818-0.391-1.629-0.793-2.733-1.331c15.957-40.967,31.876-81.839,47.827-122.791
			C285.487,339.701,344.963,339.318,404.44,338.935z M413.995,309.751c-0.447,1.695-0.832,3.406-1.304,5.36
			c-6.081,1.244-9.547,6.291-13.856,10.438c-0.597-0.562-1.095-1.028-1.59-1.497c-4.31-4.094-10.194-5.108-15.594-2.603
			c-1.587,0.736-3.087,1.662-4.611,2.527c-1.568,0.891-3.215,1.307-5.039,1.17c-5.741-0.43-9.877,2.083-12.585,7.06
			c-0.698,1.283-1.246,2.647-1.939,4.135c-11.712,0-23.438,0-35.422,0c-0.169-0.552-0.41-1.259-0.602-1.978
			c-1.406-5.26-3.245-10.318-6.744-14.611c-3.055-3.747-6.556-6.959-11.013-8.97c-8.763-3.955-16.927-3.015-24.407,3.113
			c-1.079,0.884-2.081,1.862-3.281,2.943c-0.356-0.828-0.664-1.519-0.952-2.218c-1.393-3.384-2.895-6.712-5.13-9.643
			c-2.442-3.203-5.42-5.669-9.401-6.756c-3.673-1.003-7.289-0.62-10.738,0.732c-2.53,0.992-4.894,2.416-7.311,3.688
			c-0.739,0.389-1.408,0.911-2.438,1.189c4.537-11.657,9.075-23.314,13.662-35.099c0.823,0.365,1.516,0.655,2.193,0.976
			c14.222,6.741,28.859,12.412,43.951,16.87c3.075,0.908,6.293,1.473,9.485,1.812c5.256,0.558,10.178-0.757,14.694-3.491
			c1.741-1.054,3.391-2.255,5.104-3.355c0.809-0.52,1.669-0.962,2.577-1.479c1.08,1.555,0.999,3.201,1.209,4.766
			c0.29,2.156,0.474,4.329,0.843,6.471c0.875,5.076,3.608,8.875,8.391,10.826c4.991,2.037,10.044,3.993,15.209,5.516
			c9.813,2.892,19.697,5.557,29.61,8.088c3.373,0.861,6.907,1.229,10.392,1.469c4.186,0.289,7.723-1.297,10.242-4.752
			c1.902-2.609,3.698-5.296,5.532-7.954c0.434-0.629,0.835-1.279,1.286-1.974c1.3,0.228,1.375,0.895,1.122,1.762
			C415.012,306.1,414.479,307.919,413.995,309.751z M438.173,328.427c-5.908-0.132-11.538-1.341-16.876-3.875
			c-0.694-0.329-1.352-0.743-1.995-1.167c-2.785-1.836-4.163-4.462-3.611-7.736c0.637-3.781,1.629-7.503,2.462-11.228
			c2.898,0.843,5.49,1.698,8.132,2.346c6.052,1.485,11.549,0.414,16.294-3.808c0.613-0.546,1.29-1.02,2.139-1.686
			c-0.369,2.357-0.838,4.415-0.983,6.495c-0.199,2.864-0.316,5.754-0.165,8.617c0.134,2.54,0.921,4.968,2.659,7.004
			C444.495,326.641,442.028,328.513,438.173,328.427z M456.031,307.213c-1.237,3.576-2.39,7.183-3.727,10.721
			c-0.408,1.079-1.209,2.064-2.008,2.928c-0.975,1.055-1.85,0.948-2.495-0.351c-0.583-1.176-0.997-2.48-1.237-3.773
			c-0.769-4.133,0.008-12.198,1.612-16.852c2.49,1.927,4.818,3.721,7.135,5.528C455.888,305.863,456.318,306.383,456.031,307.213z"
			/>
		<path d="M568.71,383.094c-0.711,0.864-1.321,1.867-2.187,2.534c-1.128,0.869-1.258,1.878-1.099,3.131
			c0.534,4.192,1.55,8.25,3.462,12.031c0.624,1.233,1.454,2.389,2.34,3.456c0.976,1.175,2.275,1.847,3.887,1.648
			c0-0.984,0-1.969,0-2.953c-1.358,0.161-2.011-0.8-2.643-1.721c-1.691-2.466-2.737-5.231-3.41-8.11
			c-1.314-5.622-1.534-4.023,2.103-8.343c1.63-1.936,2.348-1.85,3.95,0.03c0-1.406,0-2.813,0-4.219
			C572.389,379.918,570.379,381.065,568.71,383.094z"/>
		<path d="M138.985,660.197c-5.205-4.562-11.52-6.158-17.356-6.485c-4.646-0.02-8.573,1.069-10.878,2.765
			c-3.049,2.242-3.959,5.635-2.116,8.915c0.84,1.495,1.984,2.968,3.333,4.005c6.627,5.094,14.153,6.931,22.385,5.471
			c1.682-0.298,3.371-1.043,4.843-1.935c3.404-2.063,4.381-5.568,2.569-9.1C141.077,662.492,140.114,661.186,138.985,660.197z
			 M137.269,670.802c-2.842,1.607-5.99,1.927-9.171,1.679c-4.378-0.342-8.591-1.405-12.307-3.832
			c-1.445-0.943-2.822-2.122-3.907-3.456c-2.206-2.712-1.586-5.259,1.457-6.963c2.426-1.359,5.089-1.42,7.764-1.416
			c4.443-0.075,8.593,1.042,12.492,3.128c1.936,1.036,3.63,2.382,4.968,4.146C140.524,666.675,140.084,669.209,137.269,670.802z"/>
		<path d="M71.797,337.1c-0.763-0.584-1.285-1.476-1.956-2.19c-0.43-0.457-0.897-0.895-1.408-1.256
			c-2.104-1.487-4.358-1.26-5.968,0.737c-0.732,0.908-1.273,2.009-1.722,3.096c-1.171,2.833-1.364,5.844-1.411,9.367
			c0.054,0.902,0.056,2.312,0.245,3.697c0.179,1.312,0.449,2.633,0.87,3.886c0.592,1.761,1.445,3.432,3.551,3.752
			c2.087,0.317,3.434-0.975,4.56-2.462c0.713-0.942,1.317-1.988,1.831-3.055c1.498-3.111,2.333-6.43,3.018-9.805
			C73.865,340.612,73.828,338.652,71.797,337.1z M70.815,341.667c-0.659,3.899-1.732,7.67-3.736,11.112
			c-0.624,1.071-1.29,2.172-2.873,2.643c-0.409-0.849-0.95-1.603-1.144-2.438c-1.102-4.73-1.134-9.464,0.281-14.146
			c0.24-0.793,0.632-1.572,1.1-2.257c0.716-1.047,1.58-1.239,2.478-0.368c1.353,1.312,2.544,2.798,3.739,4.264
			C70.877,340.743,70.881,341.282,70.815,341.667z"/>
		<path d="M518.269,664.058c-0.672-0.174-1.369-0.248-1.9-0.341c-4.273,0.296-7.696,2.076-10.665,4.797
			c-1.666,1.527-3.069,3.289-3.841,5.453c-1.513,4.243,0.863,7.656,5.382,7.758c0.486,0.011,0.98-0.047,1.462-0.125
			c4.489-0.728,8.173-2.933,11.003-6.418c1.075-1.323,1.919-2.962,2.423-4.594C523.099,667.455,521.464,664.885,518.269,664.058z
			 M519.333,669.969c-0.047,0.203-0.142,0.395-0.21,0.594c-1.189,3.517-6.32,7.931-11.624,8.236
			c-2.667,0.003-3.808-1.51-2.776-3.964c0.532-1.263,1.343-2.492,2.294-3.48c2.283-2.371,5.051-3.997,8.356-4.532
			c0.674-0.109,1.407-0.127,2.068,0.019C519.131,667.214,519.727,668.268,519.333,669.969z"/>
		<path d="M70.496,437.813c1.446,1.517,2.864,3.115,4.536,4.35c3.422,2.527,7.539,2.305,10.887-0.343
			c2.692-2.129,4.059-4.985,4.266-8.353c0.299-4.869-3.414-8.742-8.306-8.984c-1.573,0.526-3.241,0.867-4.7,1.615
			c-3.517,1.803-5.794,4.743-7.221,8.418C69.457,435.807,69.619,436.893,70.496,437.813z M79.033,428.316
			c0.804-0.369,1.752-0.541,2.645-0.582c3.379-0.154,5.619,2.017,5.553,5.427c-0.048,2.503-1.029,4.654-2.97,6.284
			c-2.297,1.93-5.153,2.132-7.567,0.337c-1.557-1.158-2.882-2.627-4.298-3.944C73.64,432.243,75.816,429.792,79.033,428.316z"/>
		<path d="M81.857,387.516c3.286-2.409,4.652-5.764,3.993-9.779c-0.647-3.945-3.156-6.976-5.378-10.124
			c-0.117-0.166-0.314-0.279-0.483-0.404c-1.141-0.842-1.787-0.84-2.736,0.203c-0.991,1.088-1.921,2.238-2.813,3.409
			c-2.324,3.049-3.544,6.505-3.676,10.047c-0.058,3.635,1.192,6.225,3.559,7.43C76.978,389.649,79.559,389.202,81.857,387.516z
			 M73.779,382.285c-0.43-4.806,1.527-8.708,4.95-12.383c1.239,2.064,2.398,3.825,3.381,5.678c1.021,1.923,1.31,3.991,0.588,6.114
			c-0.512,1.505-1.36,2.756-2.739,3.613C76.935,387.186,74.097,385.84,73.779,382.285z"/>
		<path d="M37.233,380.949c1.181,1.938,2.747,3.728,4.459,5.229c1.598,1.401,3.513,0.889,4.644-0.973
			c0.607-1,1.08-2.147,1.327-3.289c1.435-6.642,1.16-13.239-0.803-19.749c-0.881-2.923-2.278-5.584-4.34-7.854
			c-1.458-1.605-3.122-2.954-5.249-3.947c-0.638,1.979-0.126,3.072,1.251,4.105c2.722,2.041,4.349,4.918,5.392,8.112
			c1.914,5.86,2.111,11.846,1.09,17.882c-0.201,1.188-0.759,2.315-1.285,3.861c-0.98-1.019-1.702-1.661-2.293-2.408
			c-1.088-1.374-2.084-2.822-3.154-4.211c-0.254-0.33-0.651-0.55-1.34-1.113C37.015,378.375,36.632,379.962,37.233,380.949z"/>
		<path d="M44.639,444.88c-1.084,2.126-2.831,2.636-5.144,2.035c-0.722-0.188-1.452-0.347-2.361-0.562c0,1.064,0,1.929,0,2.726
			c4.35,2.18,7.487,0.759,9.605-2.081c0.817-1.096,1.371-2.444,1.813-3.755c1.051-3.115,1.01-6.366,0.774-9.59
			c-0.314-4.3-1.24-8.462-3.394-12.263c-1.018-1.797-2.308-3.386-4.172-4.345c-1.417-0.729-2.915-1.367-4.636-0.679
			c0,0.798,0,1.538,0,2.502c2.414-0.095,4.126,0.777,5.283,2.528c0.844,1.278,1.651,2.626,2.195,4.049
			c1.734,4.534,2.26,9.277,1.699,14.074C46.086,441.353,45.479,443.232,44.639,444.88z"/>
		<path d="M158.409,678.454c-0.403-0.079-0.891-0.156-1.242-0.005c-1.857,0.801-3.775,1.522-5.494,2.563
			c-2.083,1.262-2.499,3.351-1.325,5.493c2.176,3.969,8.488,6.209,12.925,2.534c1.358-1.125,2.126-2.585,2.154-4.385
			c0.005-1.435-0.651-2.572-1.633-3.534C162.294,679.652,160.442,678.852,158.409,678.454z M160.282,687.498
			c-0.701,0.279-1.479,0.367-1.838,0.45c-2.314-0.056-3.975-0.709-5.214-2.189c-1.019-1.216-0.867-2.145,0.534-2.896
			c2.181-1.169,4.409-2.273,6.854-0.55c0.929,0.654,1.946,1.266,1.831,2.585C162.333,686.217,161.444,687.036,160.282,687.498z"/>
		<path d="M44.59,344.125c-1.576-0.585-3.078-1.364-4.641-1.987c-0.864-0.344-1.785-0.544-2.856-0.86c0,1.087,0,1.841,0,2.756
			c2.082,0.921,4.063,1.802,6.048,2.674c0.321,0.141,0.654,0.257,0.989,0.359c3.197,0.982,5.494-0.27,6.131-3.517
			c0.703-3.586-0.222-6.762-3.202-8.999c-3.149-2.364-6.553-1.77-9.865-0.592c0,1.032,0,1.817,0,2.582
			c1.646-0.253,3.089-0.621,4.542-0.669c3.696-0.122,6.226,2.712,5.824,6.368C47.333,344.294,46.537,344.847,44.59,344.125z"/>
		<path d="M490.016,685.955c-2.357,1.475-3.812,3.5-4.138,6.253c-0.425,3.588,2.643,5.938,5.96,4.62
			c2.588-1.028,4.722-4.151,4.739-6.933C496.616,686.122,492.928,684.132,490.016,685.955z M490.775,694.093
			c-1.186,0.386-1.932-0.13-1.97-1.361c-0.052-1.7,1.289-3.67,2.896-4.256c1.131-0.412,1.765-0.055,1.919,1.082
			C493.834,691.14,492.291,693.6,490.775,694.093z"/>
		<path d="M417.052,106.4c2.663,5.956,5.348,11.901,8.031,17.848c0.144,0.318,0.253,0.76,0.51,0.896
			c0.503,0.267,1.145,0.564,1.638,0.45c0.306-0.071,0.584-0.864,0.615-1.349c0.029-0.448-0.263-0.93-0.458-1.377
			c-2.494-5.723-4.993-11.444-7.502-17.16c-0.338-0.77-0.691-1.544-1.143-2.247c-0.243-0.379-0.712-0.614-0.945-0.805
			c-0.977-0.063-1.624,0.66-1.463,1.551C416.471,104.958,416.739,105.701,417.052,106.4z"/>
		<path d="M470.853,117.457c0.205,0.373,0.69,0.795,1.068,0.811c0.378,0.015,0.955-0.362,1.123-0.718
			c0.254-0.543,0.306-1.215,0.312-1.833c0.028-3.023,0.013-6.046,0.013-9.069c0.05,0,0.1,0,0.15,0c0-2.812,0.006-5.624-0.004-8.436
			c-0.002-0.702-0.039-1.405-0.091-2.106c-0.061-0.817-0.542-1.432-1.328-1.281c-0.473,0.091-1.061,0.702-1.196,1.191
			c-0.259,0.933-0.307,1.945-0.309,2.925c-0.012,5.694,0.01,11.389,0.037,17.083C470.63,116.508,470.633,117.057,470.853,117.457z"
			/>
		<path d="M383.797,130.014c3.221,4.418,6.455,8.826,9.703,13.223c1.015,1.374,1.608,1.635,2.339,1.155
			c0.84-0.552,0.814-1.292-0.205-2.728c-3-4.231-6.017-8.449-9.04-12.664c-0.49-0.683-1.007-1.352-1.576-1.968
			c-0.318-0.344-0.769-0.565-1.026-0.747c-1.063-0.064-1.718,0.829-1.36,1.746C382.908,128.736,383.346,129.395,383.797,130.014z"/>
		<path d="M536.291,151.293c0.337-0.214,0.902-0.491,1.372-0.883c4.262-3.554,8.508-7.126,12.754-10.7
			c0.429-0.361,0.82-0.768,1.229-1.154c0.666-0.628,1.147-1.357,0.44-2.189c-0.64-0.753-1.401-0.413-2.072,0.063
			c-0.573,0.406-1.147,0.816-1.678,1.273c-4.153,3.574-8.3,7.155-12.434,10.751c-0.359,0.313-0.712,0.702-0.898,1.13
			C534.652,150.393,535.201,151.231,536.291,151.293z"/>
		<path d="M511.072,126.436c2.519-5.02,4.983-10.066,7.444-15.114c0.274-0.563,0.567-1.185,0.578-1.785
			c0.008-0.469-0.297-1.176-0.666-1.354c-0.362-0.174-1.123,0.037-1.454,0.35c-0.491,0.463-0.808,1.139-1.11,1.768
			c-2.368,4.937-4.718,9.883-7.06,14.833c-0.207,0.437-0.488,0.95-0.418,1.377c0.084,0.517,0.504,0.98,0.983,1.828
			C510.131,127.504,510.764,127.051,511.072,126.436z"/>
		<path d="M361.041,163.848c3.777,3.141,7.558,6.278,11.365,9.381c0.407,0.332,0.982,0.573,1.501,0.625
			c0.734,0.072,1.149-0.403,1.183-1.464c-0.256-0.296-0.602-0.815-1.059-1.203c-3.797-3.226-7.609-6.435-11.434-9.629
			c-0.42-0.35-0.928-0.745-1.431-0.802c-0.458-0.051-1.107,0.209-1.401,0.559c-0.204,0.243-0.073,0.94,0.132,1.311
			C360.16,163.102,360.613,163.492,361.041,163.848z"/>
		<path d="M549.491,176.387c-0.192,0.363-0.17,0.964-0.001,1.355c0.132,0.305,0.636,0.449,0.975,0.665
			c0.462-0.187,0.864-0.315,1.234-0.504c4.113-2.106,8.224-4.215,12.326-6.34c0.493-0.256,1.068-0.518,1.363-0.945
			c0.269-0.389,0.432-1.128,0.233-1.487c-0.201-0.361-0.918-0.637-1.383-0.601c-0.595,0.046-1.184,0.4-1.74,0.691
			c-3.968,2.08-7.929,4.172-11.882,6.28C550.194,175.727,549.696,176,549.491,176.387z"/>
		<path d="M562.039,239.603c-3.069-1.344-6.144-2.675-9.223-3.996c-0.381-0.163-0.797-0.242-1.425-0.428
			c-0.316,0.285-0.871,0.568-1.029,0.997c-0.123,0.334,0.16,0.92,0.428,1.265c0.236,0.303,0.689,0.455,1.069,0.624
			c2.871,1.277,5.745,2.548,8.625,3.805c0.574,0.25,1.173,0.581,1.769,0.599c0.466,0.014,1.174-0.287,1.353-0.654
			c0.177-0.362-0.055-1.068-0.332-1.464C563.021,239.989,562.483,239.798,562.039,239.603z"/>
		<path d="M546.037,266.749c-2.732-2.081-5.461-4.165-8.209-6.226c-0.378-0.284-0.851-0.443-1.124-0.58
			c-1.116,0.015-1.705,0.973-1.219,1.803c0.271,0.464,0.729,0.842,1.163,1.182c2.152,1.685,4.319,3.352,6.494,5.009
			c0.612,0.466,1.26,0.888,1.904,1.311c0.68,0.448,1.33,0.426,1.858-0.243c0.498-0.631,0.187-1.189-0.241-1.696
			C546.483,267.097,546.259,266.918,546.037,266.749z"/>
		<path d="M556.227,205.073c-0.421,0.266-0.918,0.689-1.015,1.125c-0.155,0.701,0.381,1.155,1.075,1.294
			c0.339,0.068,0.696,0.052,1.045,0.053c1.469,0.005,2.938,0.002,4.407,0.002c-0.001-0.053-0.001-0.105-0.002-0.158
			c1.607-0.078,3.215-0.147,4.822-0.237c1.599-0.09,2.231-0.465,2.286-1.313c0.061-0.934-0.638-1.427-2.376-1.385
			c-3.006,0.073-6.011,0.252-9.015,0.402C557.036,204.877,556.552,204.867,556.227,205.073z"/>
		<path d="M488.591,293.11c-0.434-0.272-1.023-0.672-1.402-0.552c-0.397,0.126-0.735,0.761-0.886,1.241
			c-0.111,0.352,0.098,0.818,0.203,1.223c0.601,2.306,1.2,4.613,1.829,6.911c0.184,0.673,0.428,1.337,0.711,1.975
			c0.286,0.645,0.865,1.067,1.516,0.732c0.466-0.24,0.745-0.844,0.99-1.142c-0.132-0.512-0.182-0.717-0.237-0.92
			c-0.787-2.909-1.572-5.818-2.368-8.724C488.873,293.587,488.789,293.233,488.591,293.11z"/>
		<path d="M466.838,296.174c-0.859,0.207-1.083,0.894-0.914,1.641c0.648,2.876,1.335,5.744,2.043,8.607
			c0.183,0.741,0.703,1.391,1.497,1.105c0.51-0.183,0.837-0.875,1.214-1.302c-0.789-3.207-1.492-6.14-2.242-9.062
			C468.237,296.386,467.668,295.973,466.838,296.174z"/>
		<path d="M519.016,275.543c-1.184,0.092-1.684,1.104-1.06,2.107c1.29,2.077,2.699,4.082,4.107,6.083
			c0.44,0.625,1.129,0.901,1.835,0.412c0.712-0.493,0.659-1.191,0.225-1.85c-1.345-2.044-2.687-4.091-4.089-6.095
			C519.787,275.847,519.256,275.692,519.016,275.543z"/>
		<path d="M560.282,356.559c0.841-0.001,1.681-0.011,2.522-0.024c0.902-0.014,1.753-0.186,1.786-1.304
			c0.03-1.009-0.734-1.235-1.564-1.31c-0.906-0.083-1.81-0.237-2.717-0.251c-5.044-0.076-10.089-0.121-15.133-0.17
			c-0.419-0.004-0.894-0.071-1.242,0.099c-0.389,0.19-0.925,0.621-0.922,0.941c0.005,0.454,0.362,1,0.73,1.322
			c0.266,0.233,0.793,0.209,1.206,0.226c2.939,0.123,5.879,0.228,8.818,0.338c0,0.045,0,0.089,0,0.134
			C555.938,356.56,558.11,356.563,560.282,356.559z"/>
		<path d="M514.948,354.861c-3.564-0.319-7.129-0.621-10.694-0.928c-0.003,0.033-0.006,0.066-0.008,0.1
			c-0.978-0.081-1.958-0.234-2.935-0.22c-0.722,0.01-1.426,0.295-1.465,1.198c-0.037,0.865,0.568,1.212,1.298,1.402
			c0.135,0.035,0.278,0.042,0.417,0.054c4.404,0.382,8.807,0.769,13.212,1.132c0.407,0.034,0.914,0.036,1.221-0.173
			c0.409-0.278,0.856-0.747,0.926-1.191c0.051-0.326-0.409-0.838-0.766-1.092C515.843,354.921,515.361,354.898,514.948,354.861z"/>
		<path d="M376.201,380.333c-0.605,0.284-1.082,0.865-1.576,1.358c-1.242,1.238-2.402,2.566-3.709,3.73
			c-1.789,1.594-3.536,1.711-5.589,0.467c-0.835-0.506-1.602-1.136-2.351-1.767c-1.073-0.905-2.084-1.882-3.153-2.791
			c-0.635-0.541-1.379-0.821-2.056-0.098c-0.698,0.745-0.317,1.454,0.304,2.009c1.828,1.637,3.632,3.309,5.553,4.831
			c1.282,1.015,2.839,1.515,4.562,1.617c0.933-0.271,1.952-0.386,2.783-0.843c2.825-1.555,4.815-4.035,6.818-6.48
			c0.087-0.106,0.21-0.247,0.199-0.359c-0.052-0.523,0.028-1.229-0.273-1.511C377.405,380.207,376.613,380.139,376.201,380.333z"/>
		<path d="M387.016,408.544c-0.827-0.084-1.3,0.459-1.381,1.242c-0.15,1.448-0.277,2.902-0.331,4.356
			c-0.027,0.739,0.276,1.39,1.149,1.47c0.877,0.08,1.249-0.479,1.369-1.244c0.15-0.959,0.263-1.924,0.354-2.606
			c0-0.775-0.001-1.261,0-1.747C388.177,409.217,387.824,408.626,387.016,408.544z"/>
		<path d="M368.891,432.29c-0.218-0.176-1.011,0.033-1.254,0.312c-0.243,0.28-0.345,1.071-0.139,1.29
			c1.186,1.261,2.4,2.527,3.771,3.572c0.789,0.601,1.787-0.062,1.799-1.044c-0.031-0.142-0.005-0.422-0.131-0.538
			C371.613,434.656,370.294,433.419,368.891,432.29z"/>
		<path d="M315.318,420.061c-0.458-0.085-1.224,0.083-1.451,0.419c-0.862,1.27-1.605,2.628-2.3,4
			c-0.305,0.603-0.194,1.394,0.537,1.567c0.5,0.118,1.371-0.074,1.635-0.443c0.85-1.189,1.503-2.52,2.213-3.806
			c0.096-0.174,0.085-0.407,0.163-0.825C315.906,420.716,315.661,420.125,315.318,420.061z"/>
		<path d="M347.907,396.64c-0.728,0.225-0.918,0.878-0.737,1.518c0.376,1.331,0.824,2.645,1.309,3.941
			c0.242,0.646,0.835,1.085,1.484,0.764c0.458-0.227,0.725-0.84,1.061-1.26c-0.559-1.588-1.007-2.972-1.538-4.322
			C349.214,396.593,348.559,396.439,347.907,396.64z"/>
		<path d="M291.935,393.264c-1.015-0.085-1.339,0.672-1.419,1.471c-0.118,1.178-0.231,2.382-0.106,3.548
			c0.047,0.437,0.719,1.009,1.2,1.123c0.3,0.071,1.008-0.535,1.125-0.952c0.281-0.999,0.321-2.065,0.441-2.973
			c0-0.276,0.011-0.417-0.002-0.555C293.101,394.119,292.92,393.347,291.935,393.264z"/>
		<path d="M405.239,431.601c-0.971-0.105-1.81,0.8-1.276,1.551c0.91,1.279,2.016,2.465,3.223,3.468
			c0.653,0.542,1.625-0.133,1.647-0.942C408.861,434.706,406.217,431.707,405.239,431.601z"/>
		<path d="M436.574,374.057c0.558,0.323,1.389-0.545,1.335-1.217c-0.039-0.132-0.046-0.291-0.125-0.392
			c-1.052-1.33-2.305-2.417-3.958-2.895c-0.304-0.088-0.917,0.164-1.063,0.435c-0.196,0.363-0.274,1.139-0.058,1.316
			C433.929,372.305,435.207,373.266,436.574,374.057z"/>
		<path d="M346.96,435.898c-1.144,0.621-2.24,1.354-3.25,2.175c-0.224,0.182-0.155,0.944,0.021,1.328
			c0.136,0.296,0.651,0.418,1.232,0.752c1.134-0.886,2.299-1.74,3.375-2.694c0.173-0.153,0.089-0.899-0.13-1.115
			C347.912,436.051,347.233,435.75,346.96,435.898z"/>
		<path d="M325.291,401.664c-0.93-0.263-1.887-0.569-2.833-0.573c-0.447-0.002-1.094,0.581-1.276,1.045
			c-0.118,0.3,0.338,1.093,0.719,1.268c0.866,0.398,1.845,0.552,3.057,0.882c0.408-0.315,1.136-0.602,1.357-1.111
			C326.648,402.411,326.017,401.869,325.291,401.664z"/>
		<path d="M424.7,407.716c-0.951-0.431-1.955-0.743-3.147-1.184c-0.441,0.338-1.06,0.594-1.3,1.049
			c-0.341,0.648,0.083,1.274,0.726,1.524c0.976,0.379,1.986,0.734,3.012,0.884c0.415,0.061,1.091-0.334,1.333-0.719
			C425.718,408.641,425.333,408.003,424.7,407.716z"/>
		<path d="M220.186,449.604c0.039,0.906,0.8,1.29,2.298,1.154c0.559-0.05,1.118-0.109,1.677-0.164c0-0.008,0-0.015,0-0.022
			c4.837-0.309,9.674-0.608,14.509-0.935c1.12-0.076,2.239-0.213,3.347-0.392c0.728-0.118,1.391-0.473,1.4-1.325
			c0.01-0.986-0.737-1.292-1.556-1.37c-0.626-0.06-1.265-0.033-1.895,0.013c-3.363,0.247-6.726,0.487-10.085,0.78
			c-2.587,0.225-5.169,0.516-7.751,0.793C220.749,448.284,220.149,448.755,220.186,449.604z"/>
		<path d="M125.035,353.6c-2.502-2.99-5.285-5.665-9.1-6.89c-3.158-1.014-6.188-0.698-8.52,1.87
			c-2.308,2.541-2.185,5.532-0.793,8.452c0.747,1.568,1.692,3.094,2.801,4.428c3.571,4.295,6.021,9.082,7.105,14.588
			c0.237,1.203,0.805,2.409,1.48,3.444c1.193,1.828,3.119,2.327,5.182,1.576c1.854-0.674,3.233-1.93,4.297-3.557
			c1.508-2.306,2.114-4.861,2.051-8.881c-0.326-1.918-0.964-5.079-1.376-8.268C127.823,357.74,126.678,355.564,125.035,353.6z
			 M125.663,374.68c-0.515,1.166-1.444,2.257-2.438,3.08c-1.554,1.286-2.66,0.914-3.394-0.956c-0.382-0.974-0.63-2.006-0.868-3.029
			c-1.05-4.514-2.958-8.605-5.846-12.247c-1.132-1.428-2.253-2.888-3.173-4.455c-0.624-1.062-1.088-2.305-1.269-3.521
			c-0.336-2.246,1.108-3.953,3.357-4.292c1.503-0.227,2.958-0.019,4.304,0.662c3.473,1.757,6.143,4.396,8.222,7.658
			c0.112,0.176,0.258,0.359,0.288,0.554c0.599,3.949,1.245,7.892,1.814,12.487C126.777,371.558,126.299,373.239,125.663,374.68z"/>
		<path d="M145.324,415.783c-1.459-1.579-1.581-3.319-0.78-5.261c0.586-1.423,1.115-2.884,1.497-4.372
			c0.437-1.704-0.24-2.333-1.955-2.03c-0.414,0.073-0.834,0.107-1.249,0.172c-4.222,0.656-8.438,1.319-12.462,2.858
			c-3.127,1.196-5.951,2.824-8.158,5.391c-1.546,1.797-2.578,3.847-2.789,6.234c-0.369,4.176,1.704,7.122,4.954,9.361
			c3.101,2.136,6.654,2.866,9.856,2.983c3.443-0.01,6.428-0.741,8.62-1.882c4.148-2.16,7.019-7.457,2.973-12.781
			C145.66,416.232,145.513,415.988,145.324,415.783z M143.1,425.464c-0.869,0.774-1.935,1.462-3.032,1.822
			c-4.303,1.411-8.594,1.233-12.688-0.758c-5.987-2.911-6.775-8.862-1.785-13.268c0.989-0.873,2.121-1.623,3.28-2.26
			c3.495-1.918,9.797-3.622,13.727-3.746c-0.377,1.067-0.692,1.992-1.03,2.909c-0.927,2.514-0.571,4.816,1.092,6.926
			c0.477,0.605,0.938,1.231,1.333,1.891C145.351,421.245,145.069,423.708,143.1,425.464z"/>
		<path d="M163.381,360.434c3.709-0.686,7.398-1.493,11.077-2.327c3.643-0.826,5.844-3.673,5.875-7.723
			c-0.011-2.701-1.193-5.095-3.834-6.494c-2.408-1.275-4.874-1.769-7.573-0.313c-3.284,1.772-6.527,3.539-9.147,6.248
			c-1.431,1.48-2.578,3.142-3.036,5.194c-0.573,2.566,0.595,4.69,3.135,5.322C160.991,360.619,162.253,360.643,163.381,360.434z
			 M159.899,354.812c0.424-1.012,1.052-1.99,1.779-2.814c2.452-2.78,5.536-4.73,8.91-6.165c3.105-1.32,6.753,1.278,6.789,4.693
			c0.026,2.524-1.213,4.206-3.585,4.733c-3.544,0.787-7.099,1.521-10.65,2.277c-0.342,0.073-0.682,0.175-1.028,0.203
			C159.917,357.916,159.05,356.839,159.899,354.812z"/>
		<path d="M151.643,378.928c-1.866-0.835-3.799-1.48-5.662-1.331c-5.654,0.013-10.178,2.922-11.867,7.479
			c-1.553,4.192,0.586,8.335,4.948,9.227c1.395,0.285,2.966,0.195,4.365-0.124c4.041-0.924,6.507-3.68,7.931-7.452
			c0.57-1.509,1.056-3.049,1.583-4.573C153.521,380.478,153.235,379.64,151.643,378.928z M148.114,386.816
			c-1.422,3.195-4.278,4.929-7.509,4.769c-3.231-0.16-4.903-2.761-3.654-5.761c0.752-1.806,2.068-3.153,3.721-4.185
			c2.061-1.287,6.42-2.074,9.41-0.307C149.442,383.142,148.907,385.037,148.114,386.816z"/>
		<path d="M158.146,326.392c-3.828-1.518-7.322-0.582-10.449,1.756c-1.129,0.844-2.075,2.112-2.721,3.382
			c-1.175,2.31-0.55,5.076,1.287,6.731c1.411,1.271,3.107,1.85,5.152,1.802c4.01,0.005,8.282-2.705,9.775-6.291
			C162.512,330.593,161.307,327.645,158.146,326.392z M158.248,333.11c-1.513,2.663-3.971,3.809-6.709,4.065
			c-1.843-0.081-3.314-0.446-4.009-2.118c-0.693-1.666-0.007-3.058,1.169-4.167c2.284-2.156,4.896-3.146,8.033-1.916
			C158.769,329.773,159.354,331.164,158.248,333.11z"/>
		<path d="M514.869,428.299c2.821,1.556,5.45,0.749,6.819-2.162c0.502-1.067,0.848-2.232,1.097-3.389
			c1.007-4.686,3.008-8.87,6.067-12.565c0.893-1.078,1.758-2.204,2.453-3.414c0.727-1.265,1.425-2.604,1.801-4.001
			c1.16-4.313-1.422-8.08-5.814-8.758c-2.179-0.336-4.242,0.065-6.07,1.178c-5.294,3.224-9.695,7.142-10.476,13.849
			c-0.339,2.917-0.966,5.8-1.395,8.304c0.195,1.543,0.233,2.681,0.495,3.764C510.579,424.14,512.024,426.729,514.869,428.299z
			 M513.678,409.402c0.06-0.346,0.21-0.692,0.192-1.032c-0.136-2.553,1.292-4.357,2.87-6.091c1.666-1.829,3.511-3.43,5.739-4.56
			c1.423-0.722,2.909-1.005,4.485-0.788c2.208,0.305,3.585,1.812,3.406,4.037c-0.093,1.15-0.473,2.353-1.023,3.371
			c-0.762,1.41-1.722,2.738-2.743,3.98c-3.367,4.095-5.597,8.715-6.717,13.891c-0.192,0.886-0.44,1.78-0.817,2.6
			c-0.669,1.456-1.482,1.689-2.868,0.906c-1.978-1.117-2.93-2.975-3.45-5.074c-0.235-0.947-0.264-1.945-0.434-3.299
			C512.731,414.928,513.203,412.165,513.678,409.402z"/>
		<path d="M322.987,373.635c0.334,0.205,0.959,0.137,1.362-0.035c0.343-0.147,0.582-0.589,0.812-0.937
			c0.697-1.054,1.36-2.13,2.048-3.191c3.552-5.478,7.115-10.949,10.653-16.436c0.485-0.753,0.854-1.58,1.284-2.386
			c-0.302-0.466-0.467-1.023-0.751-1.092c-0.48-0.116-1.185-0.104-1.526,0.179c-0.632,0.524-1.13,1.243-1.578,1.949
			c-4.067,6.398-8.114,12.809-12.155,19.224c-0.295,0.468-0.628,0.984-0.685,1.505C322.408,372.816,322.664,373.438,322.987,373.635
			z"/>
		<path d="M311.861,368.567c0.357,0.187,1.067-0.025,1.474-0.29c0.371-0.242,0.563-0.778,0.8-1.204
			c2.552-4.58,5.102-9.162,7.641-13.749c0.267-0.482,0.466-1.001,0.753-1.628c-0.252-0.394-0.421-0.985-0.765-1.115
			c-0.436-0.165-1.121-0.118-1.504,0.134c-0.495,0.326-0.879,0.901-1.172,1.444c-2.522,4.676-5.015,9.367-7.508,14.058
			c-0.163,0.306-0.398,0.676-0.345,0.971C311.326,367.688,311.501,368.379,311.861,368.567z"/>
		<path d="M394.975,372.304c-0.14,0.754,0.517,1.43,1.532,1.377c0.346-0.372,0.952-0.851,1.341-1.467
			c4.696-7.422,9.362-14.863,14.029-22.304c0.26-0.415,0.519-0.847,0.68-1.305c0.246-0.701,0.269-1.39-0.509-1.834
			c-0.696-0.397-1.245-0.064-1.673,0.425c-0.507,0.578-0.964,1.211-1.368,1.866c-4.467,7.233-8.923,14.473-13.369,21.719
			C395.349,371.251,395.074,371.772,394.975,372.304z"/>
		<path d="M398.361,349.656c-0.248-0.368-0.416-0.907-0.707-0.985c-0.484-0.129-1.16-0.136-1.55,0.12
			c-0.563,0.369-1.006,0.975-1.389,1.554c-2.44,3.688-4.854,7.392-7.26,11.102c-0.263,0.405-0.529,0.862-0.597,1.324
			c-0.053,0.361,0.084,0.941,0.342,1.111c0.351,0.23,0.932,0.292,1.351,0.182c0.347-0.092,0.66-0.496,0.888-0.831
			c2.728-4.001,5.443-8.012,8.142-12.032C397.888,350.746,398.082,350.216,398.361,349.656z"/>
		<path d="M487.442,426.595c-1.61,0.724-1.922,1.564-1.358,3.167c0.58,1.65,1.102,3.323,1.737,4.951
			c1.469,3.769,4.098,6.304,8.08,7.285c3.329,0.82,6.736-0.361,8.435-2.858c1.674-2.459,1.546-5.493-0.462-8.459
			c-2.466-3.641-5.98-5.349-10.954-5.438C491.371,425.103,489.369,425.728,487.442,426.595z M500.795,431.417
			c0.538,0.72,1.051,1.501,1.372,2.332c1.089,2.814-0.503,5.268-3.499,5.506c-3.329,0.265-6.351-1.559-7.809-4.891
			c-0.75-1.715-1.26-3.536-1.905-5.388C493.037,426.919,498.442,428.266,500.795,431.417z"/>
		<path d="M488.615,387.738c1.885-0.086,4.177-0.96,5.412-3.518c1.148-2.377,0.646-4.64-0.879-6.708
			c-2.403-3.261-8.462-5.421-12.681-3.277c-2.476,1.258-3.634,3.563-2.915,6.247C478.634,384.522,483.206,387.756,488.615,387.738z
			 M482.66,376.52c2.989-0.995,5.483-0.043,7.647,2.012c1.372,1.303,1.835,3.072,1.155,4.366c-0.815,1.551-2.253,1.984-4.486,1.903
			c-2.142-0.202-4.402-1.316-5.948-3.614C479.552,378.991,480.163,377.351,482.66,376.52z"/>
	</g>
	<g>
		<path d="M575.113,743.835H36.887V48.165h538.226V743.835z M39.512,741.21h532.976V50.79H39.512V741.21z"/>
	</g>
</g>
</svg>
