<?xml version="1.0" encoding="utf-8"?>
<!-- Generator: Adobe Illustrator 27.5.0, SVG Export Plug-In . SVG Version: 6.00 Build 0)  -->
<svg version="1.1" id="Layer_1" xmlns="http://www.w3.org/2000/svg" xmlns:xlink="http://www.w3.org/1999/xlink" x="0px" y="0px"
	 viewBox="0 0 3000 3000" style="enable-background:new 0 0 3000 3000;" xml:space="preserve">
<rect style="fill:none;" width="3000" height="3000"/>
<g>
	<g>
		<g>
			<path style="fill:#FFFFFF;" d="M2369.413,2746.03c-29.344,7.276-58.717,14.534-88.086,21.817
				c-143.248-188.272-158.673-476.638-165.808-662.271c0,0-11.094-208.179-79.556-295.723
				c-15.555-19.891,145.79-101.48,274.84-84.027c90.194,12.198,146.063,46.208,113.894,131.349
				C2366.678,2010.724,2252.967,2439.232,2369.413,2746.03z"/>
			<path d="M2281.327,2773.387c-1.705,0-3.346-0.789-4.408-2.186c-33.891-44.543-62.858-97.758-86.099-158.168
				c-20.093-52.229-36.539-111.536-48.881-176.274c-22.229-116.605-28.15-231.981-31.955-330.971
				c-0.106-1.982-11.792-207.368-78.385-292.522c-1.711-2.188-3.992-6.885-0.045-13.767c9.309-16.228,51.493-39.635,102.587-56.923
				c36.457-12.336,107.984-31.627,177.403-22.239c62.363,8.434,100.94,26.394,117.938,54.907
				c13.033,21.864,13.166,50.088,0.395,83.888c-31.673,83.827-72.672,229.173-92.753,385.707
				c-11.581,90.277-15.224,175.789-10.827,254.159c5.146,91.742,21.395,174.193,48.294,245.065c0.563,1.481,0.464,3.133-0.271,4.536
				s-2.036,2.425-3.574,2.807c-14.727,3.651-29.461,7.299-44.198,10.947c-14.628,3.62-29.258,7.242-43.888,10.87
				C2282.218,2773.333,2281.771,2773.387,2281.327,2773.387z M2040.481,1806.639c28.879,37.045,51.213,98.586,66.385,182.924
				c11.263,62.604,14.157,115.194,14.185,115.718c6.235,162.208,17.809,463.291,162.493,656.31
				c13.447-3.334,26.896-6.663,40.342-9.991c12.724-3.149,25.446-6.299,38.162-9.45c-25.998-70.603-41.743-152.159-46.813-242.529
				c-4.434-79.047-0.767-165.241,10.901-256.19c20.202-157.484,61.482-303.798,93.378-388.213
				c11.68-30.912,11.828-55.216,0.452-74.299c-15.156-25.425-51.107-41.649-109.906-49.602
				c-45.518-6.157-101.719-0.043-158.246,17.212c-51.386,15.687-89.558,36.245-104.593,49.662
				C2041.49,1803.305,2040.613,1805.989,2040.481,1806.639z"/>
		</g>
		<g>
			<path style="fill:#FFFFFF;" d="M2229.91,2686.448c14.998,28.639,32.04,55.937,51.417,81.399
				c23.837,2.364,61.229-4.663,88.086-21.817c-8.253-23.761-15.465-46.951-21.682-69.636
				C2311.935,2661.493,2263.217,2666.334,2229.91,2686.448z"/>
			<path d="M2290.887,2773.828c-3.603,0-6.988-0.16-10.106-0.469c-1.531-0.152-2.93-0.934-3.861-2.158
				c-18.889-24.82-36.356-52.472-51.916-82.184c-1.358-2.595-0.463-5.799,2.044-7.313c35.522-21.45,86.026-25.736,122.813-10.425
				c1.576,0.656,2.763,2.003,3.214,3.65c6.179,22.55,13.437,45.859,21.571,69.281c0.842,2.422-0.09,5.105-2.251,6.486
				C2346.772,2767.063,2314.318,2773.828,2290.887,2773.828z M2284.252,2762.533c21.307,1.47,53.663-4.452,78.471-18.91
				c-7.313-21.313-13.896-42.508-19.602-63.106c-31.942-12.251-74.285-8.95-105.808,8.078
				C2251.535,2715.195,2267.304,2740.036,2284.252,2762.533z"/>
		</g>
	</g>
	<g>
		<g>
			<path style="fill:#FFFFFF;" d="M1688.863,1965.474c-12.156,138.62-89.805,221.948-197.846,313.221
				c-115.38,97.51-102.479,310.334-41.297,447.094c-17.394,23.82-66.364,42.515-94.836,32.129
				c-28.234-48.025-88.902-152.887-129.693-231.323c-19.607-37.703-19.872-82.442-1.229-120.631
				c115.45-236.484-70.633-352.457-87.441-526.698c-8.991-101.7,69.807-211.781,260.667-229.348
				C1585.97,1632.542,1700.103,1837.303,1688.863,1965.474z"/>
			<path d="M1373.485,2766.421c-7.311,0-14.274-1.027-20.5-3.299c-1.208-0.44-2.225-1.288-2.877-2.396
				c-13.6-23.133-83.775-143.013-129.832-231.574c-20.224-38.889-20.708-85.849-1.292-125.617
				c32.892-67.375,43.649-130.85,32.886-194.051c-9.612-56.44-35.055-107.353-59.66-156.588
				c-13.539-27.092-27.539-55.106-38.611-83.539c-12.481-32.052-19.871-61.347-22.593-89.558
				c-4.909-55.527,15.331-109.021,56.987-150.674c47.211-47.206,119.374-76.503,208.687-84.724
				c93.493-8.6,159.882,36.151,199.111,75.212c33.003,32.86,59.852,74.483,77.644,120.369
				c16.826,43.396,24.266,88.135,20.947,125.976l-5.519-0.483l5.519,0.483c-5.821,66.379-26.137,122.635-63.935,177.042
				c-37.183,53.521-87.269,98.881-135.855,139.927c-36.02,30.44-79.988,90.688-84.9,204.835
				c-3.367,78.26,13.065,164.192,45.085,235.766c0.812,1.813,0.589,3.924-0.583,5.528
				C1439.673,2748.941,1403.629,2766.421,1373.485,2766.421z M1358.611,2753.327c25.709,7.886,68.037-8.771,84.692-28.347
				c-31.802-72.468-48.071-158.892-44.68-237.695c1.892-43.966,9.8-83.953,23.505-118.852c15.123-38.508,37.097-70.124,65.313-93.97
				c48.008-40.557,97.456-85.318,133.907-137.785c36.651-52.757,56.352-107.312,61.996-171.688
				c6.77-77.201-32.448-174.876-95.37-237.527c-37.555-37.393-101.053-80.241-190.279-72.029
				c-86.705,7.98-156.51,36.171-201.869,81.525c-39.297,39.293-58.4,89.658-53.788,141.818
				c5.85,60.645,32.192,113.357,60.082,169.165c50.431,100.915,102.58,205.267,26.819,360.452
				c-17.881,36.626-17.445,79.857,1.166,115.645C1274.957,2610.282,1342.806,2726.415,1358.611,2753.327z"/>
		</g>
		<g>
			<path style="fill:#FFFFFF;" d="M1676.897,1867.038c10.385,34.452,14.589,68.529,11.966,98.436
				c-3.972,45.298-14.938,84.691-31.672,120.387"/>
			<path d="M1657.188,2091.402c-0.787,0-1.587-0.169-2.348-0.525c-2.77-1.299-3.963-4.597-2.664-7.367
				c17.197-36.684,27.393-75.452,31.169-118.519c2.549-29.074-1.515-62.394-11.751-96.354c-0.883-2.929,0.775-6.02,3.705-6.902
				c2.931-0.885,6.019,0.775,6.902,3.705c10.64,35.297,14.852,70.056,12.181,100.519c-3.892,44.384-14.416,84.374-32.175,122.255
				C1661.265,2090.223,1659.27,2091.402,1657.188,2091.402z"/>
		</g>
		<g>
			<path style="fill:#FFFFFF;" d="M1449.72,2725.789c-17.394,23.82-66.364,42.515-94.836,32.129
				c-11.439-19.499-28.28-48.36-46.92-81.043c35.896-16.674,75.033-26.396,114.557-28.667
				C1429.833,2675.712,1439.029,2701.914,1449.72,2725.789z"/>
			<path d="M1373.485,2766.421c-7.311,0-14.274-1.027-20.5-3.299c-1.209-0.441-2.228-1.29-2.879-2.401
				c-16.888-28.786-32.247-55.314-46.954-81.102c-0.768-1.346-0.937-2.951-0.465-4.428c0.471-1.477,1.539-2.688,2.944-3.341
				c36.121-16.778,76.431-26.866,116.573-29.173c2.636-0.137,4.996,1.565,5.671,4.107c7.237,27.22,16.288,53.039,26.901,76.74
				c0.813,1.814,0.59,3.925-0.582,5.53C1439.673,2748.941,1403.629,2766.421,1373.485,2766.421z M1358.613,2753.327
				c25.709,7.88,68.035-8.771,84.689-28.346c-9.703-22.103-18.082-45.934-24.947-70.952c-35.245,2.551-70.489,11.277-102.563,25.386
				C1329.254,2702.968,1343.308,2727.225,1358.613,2753.327z"/>
		</g>
	</g>
	<g>
		<g>
			<path style="fill:#FFFFFF;" d="M935.529,1984.169c27.971,122.367,95.288,80.522,98.354-16.02
				c2.637-83.006-8.781-134.601-8.781-134.601s34.917,42.959,63.414,20.225c42.563-33.954-39.853-99.953-25.871-163.129
				c7.512-33.941,27.464-57.915,60.891-64.581c-30.039-132.763-198.099-147.323-302.226-44.658
				c-108.138,106.62-113.066,200.662-166.706,258.287c-112.107,120.438-239.949-3.342-273.935,14.329
				c-55.4,28.805,1.183,129.123,74.262,148.999c-12.682,3.56-37.781,17.158-39.307,40.359
				c-4.052,61.604,119.189,52.69,119.189,52.69s-50.105,35.357-31.486,62.427c27.058,39.338,125.909,29.865,171.363-12.803
				c-23.175,40.377-15.07,67.825,11.697,70.995c28.594,3.387,96.067-30.608,132.069-111.781
				c-2.223,21.348-10.915,78.715,17.647,86.827C889.583,2206.922,935.49,2101.934,935.529,1984.169z"/>
			<path d="M690.557,2222.46c-1.669,0.001-3.277-0.09-4.82-0.272c-12.164-1.44-21.529-7.536-26.371-17.165
				c-5.385-10.707-5.042-24.968,0.779-41.314c-11.714,7.305-25.363,13.31-40.39,17.716c-22.351,6.555-46.061,8.937-66.766,6.707
				c-25.435-2.738-44.186-11.9-54.225-26.496c-14.809-21.529,5.369-45.947,20.054-59.549c-0.038,0-0.075,0-0.113,0
				c-25.46,0-73.542-3.187-96.158-25.655c-9.124-9.064-13.313-20.308-12.45-33.416c1.207-18.357,15.331-31.841,29.289-39.485
				c-19.467-8.068-38.154-21.607-53.735-39.11c-18.36-20.625-30.177-44.44-32.421-65.34c-2.429-22.621,6.408-40.368,24.883-49.975
				c12.573-6.535,31.792,1.229,58.392,11.974c27.956,11.293,62.749,25.348,99.989,26.336c43.438,1.138,80.729-15.693,114.056-51.497
				c21.054-22.619,34.542-51.324,50.161-84.563c22.946-48.832,51.503-109.604,116.71-173.896
				c58.688-57.863,141.159-82.202,210.104-62.004c25.283,7.406,46.849,20.237,64.097,38.137
				c18.381,19.075,30.936,43.047,37.317,71.248c0.33,1.457,0.057,2.985-0.756,4.238s-2.098,2.125-3.563,2.417
				c-37.363,7.451-51.384,36.929-56.566,60.346c-6.079,27.468,7.934,56.834,20.296,82.743c7.595,15.916,14.769,30.949,17.179,44.72
				c2.892,16.524-1.543,29.216-13.558,38.8c-13.684,10.916-30.574,10.481-48.843-1.258c-3.509-2.255-6.733-4.715-9.577-7.111
				c3.23,21.79,7.633,63.064,5.869,118.591c-1.695,53.374-23.002,94.057-50.663,96.733c-8.447,0.82-21.15-1.702-33.745-18.342
				c-5.667-7.487-10.745-17.073-15.194-28.664c-5.699,77.348-30.401,144.6-63.929,169.922c-13.104,9.897-27.386,13.039-41.299,9.088
				c-23.208-6.592-25.727-38.026-24.319-64.177c-18.748,31.63-40.729,51.944-57.359,64.094
				C730.96,2213.017,707.643,2222.46,690.557,2222.46z M674.692,2140.151c1.21,0,2.424,0.396,3.435,1.194
				c2.152,1.702,2.735,4.724,1.369,7.104c-12.254,21.351-15.984,40.157-10.231,51.596c3.206,6.375,9.187,10.123,17.776,11.141
				c26.676,3.148,91.705-30.404,126.354-108.525c1.105-2.491,3.862-3.808,6.491-3.106c2.633,0.702,4.365,3.216,4.083,5.927
				c-0.16,1.529-0.352,3.243-0.561,5.109c-2.336,20.815-7.806,69.562,14.211,75.814c10.593,3.009,21.224,0.563,31.595-7.271
				c35.188-26.577,60.748-108.572,60.776-194.967c0.001-2.818,2.118-5.188,4.919-5.503c2.801-0.314,5.393,1.522,6.021,4.271
				c5.745,25.134,13.67,44.878,22.918,57.097c5.247,6.933,13.651,14.981,23.843,14c18.699-1.81,39.019-34.494,40.657-86.058
				c2.58-81.233-8.542-132.72-8.654-133.23c-0.553-2.507,0.689-5.066,3.001-6.183c2.311-1.116,5.088-0.499,6.707,1.493
				c0.08,0.099,8.459,10.291,19.907,17.594c14.014,8.938,26.042,9.542,35.753,1.796c18.427-14.7,9.455-36.21-6.711-70.088
				c-13.133-27.522-28.018-58.718-21.115-89.909c7.982-36.064,28.528-59.29,59.592-67.515
				c-12.594-48.094-45.234-82.022-92.417-95.845c-65.148-19.086-143.342,4.177-199.211,59.261
				c-63.799,62.903-90.714,120.183-114.461,170.718c-16.014,34.08-29.844,63.513-52.079,87.4
				c-35.619,38.267-75.664,56.281-122.459,55.023c-39.24-1.041-75.061-15.512-103.844-27.139
				c-21.13-8.536-41.088-16.598-49.131-12.416c-18.131,9.427-20.328,26.391-18.978,38.962c2.003,18.655,12.821,40.217,29.681,59.156
				c17.9,20.108,40.082,34.534,62.458,40.62c2.404,0.654,4.076,2.832,4.086,5.323c0.01,2.491-1.644,4.683-4.043,5.355
				c-12.978,3.644-34.032,16.474-35.276,35.39c-0.652,9.905,2.356,18.024,9.197,24.823c11.104,11.037,32.437,18.356,61.693,21.167
				c22.701,2.182,42.179,0.825,42.372,0.812c2.485-0.182,4.778,1.319,5.614,3.662c0.837,2.342,0.01,4.955-2.022,6.39
				c-0.454,0.32-45.177,32.864-30.116,54.761c8.037,11.685,24.474,19.412,46.284,21.76c41.037,4.42,90.128-10.495,116.724-35.463
				C671.961,2140.656,673.324,2140.151,674.692,2140.151z"/>
		</g>
		<g>
			<g>
				<path style="fill:#FFFFFF;" d="M629.421,2005.052c-77.694,39.598-135.3-32.489-74.84-47.806
					c26.79-6.787,53.21-8.427,83.037-32.419"/>
				<path d="M583.884,2022.415c-18.431,0-33.634-5.852-43.945-13.693c-12.075-9.185-17.912-21.398-15.613-32.674
					c1.353-6.637,6.905-18.602,28.893-24.173c5.18-1.312,10.393-2.445,15.434-3.542c21.778-4.734,42.348-9.207,65.492-27.823
					c2.385-1.917,5.872-1.539,7.789,0.845c1.917,2.384,1.539,5.87-0.844,7.788c-25.181,20.254-48.007,25.218-70.083,30.017
					c-4.951,1.077-10.07,2.189-15.067,3.456c-11.947,3.026-19.319,8.583-20.759,15.645c-1.406,6.902,2.986,15.195,11.465,21.644
					c23.891,18.172,58.167,11.473,80.258,0.213c2.725-1.389,6.06-0.306,7.451,2.42c1.389,2.726,0.306,6.062-2.42,7.451
					C614.494,2018.877,598.213,2022.415,583.884,2022.415z"/>
			</g>
			<g>
				<path style="fill:#FFFFFF;" d="M768.1,2030.525c-37.732,63.002-87.749,76.078-98.895,54.231
					c-15.844-31.057,61.703-105.652,91.902-132.968"/>
				<path d="M687.836,2100.128c-0.434,0-0.864-0.008-1.292-0.021c-10.32-0.351-18.23-4.908-22.273-12.833
					c-8.024-15.729,1.569-39.904,29.328-73.907c21.681-26.558,49.274-52.554,63.793-65.687c2.269-2.053,5.771-1.876,7.824,0.393
					c2.052,2.269,1.877,5.771-0.393,7.824c-14.286,12.922-41.421,38.482-62.642,64.477c-23.654,28.974-33.612,50.945-28.041,61.865
					c2.729,5.351,8.456,6.648,12.779,6.795c18.754,0.65,50.639-18.292,76.428-61.354c1.573-2.624,4.974-3.479,7.599-1.905
					c2.625,1.571,3.478,4.974,1.906,7.599c-12.838,21.436-28.238,39.034-44.534,50.891
					C714.21,2094.528,699.896,2100.128,687.836,2100.128z"/>
			</g>
			<g>
				<path style="fill:#FFFFFF;" d="M814.496,1796.095c-5.645,20.929-64.883,125.688-92.873,92.777
					c-27.223-32.01,39.061-111.952,96.401-194.255"/>
				<path d="M734.335,1900.761c-6.486,0-12.265-2.813-16.931-8.3c-25.879-30.43,18.39-92.225,69.648-163.778
					c8.708-12.154,17.712-24.724,26.427-37.233c1.749-2.51,5.202-3.129,7.712-1.378c2.51,1.749,3.128,5.201,1.379,7.712
					c-8.757,12.569-17.783,25.168-26.511,37.352c-24.414,34.08-47.474,66.27-61.548,93.24
					c-14.602,27.981-17.437,46.597-8.667,56.908c3.271,3.846,6.814,5.097,11.484,4.045c11.208-2.514,27.281-18.205,44.098-43.052
					c14.968-22.115,25.718-44.19,27.723-51.623c0.796-2.954,3.836-4.701,6.791-3.906c2.954,0.797,4.703,3.837,3.906,6.791
					c-4.7,17.428-46.568,95.081-80.092,102.601C737.9,1900.555,736.092,1900.761,734.335,1900.761z"/>
			</g>
			<g>
				<path style="fill:#FFFFFF;" d="M858.925,1896.74c-22.218,61.318-23.564,88.966-10.072,94.829
					c35.116,15.26,83.745-55.199,78.243-146.63"/>
				<path d="M858.91,1999.224c-4.201,0-8.309-0.854-12.265-2.574c-18.054-7.846-15.939-38.289,7.072-101.796
					c1.042-2.877,4.215-4.364,7.095-3.321c2.876,1.042,4.363,4.219,3.321,7.095c-25.479,70.317-19.126,85.23-13.072,87.862
					c9.252,4.019,18.494-0.241,24.618-4.524c33.728-23.598,48.815-88.039,45.887-136.692c-0.184-3.054,2.143-5.679,5.196-5.862
					c3.054-0.177,5.679,2.143,5.862,5.196c4.21,69.952-22.266,126.616-50.595,146.437
					C874.261,1996.478,866.438,1999.224,858.91,1999.224z"/>
			</g>
			<g>
				<path style="fill:#FFFFFF;" d="M990.962,1611.115c-83.419,44.371-110.336,113.137-81.485,120.064
					c15.229,3.657,36.109-11.405,76.914-57.416"/>
				<path d="M914.139,1737.272c-2.038,0-4.015-0.24-5.956-0.706c-8.48-2.036-14.015-8.474-15.184-17.661
					c-1.79-14.063,6.219-33.591,21.975-53.574c12.434-15.771,35.258-38.825,73.386-59.106c2.702-1.436,6.056-0.412,7.492,2.289
					c1.437,2.701,0.412,6.056-2.289,7.492c-36.429,19.377-58.113,41.249-69.889,56.185c-16.158,20.494-20.763,36.847-19.685,45.316
					c0.784,6.156,4.245,7.678,6.781,8.286c12.754,3.065,34.132-13.596,71.476-55.705c2.03-2.29,5.531-2.499,7.82-0.469
					c2.289,2.03,2.499,5.531,0.469,7.82C952.482,1720.349,931.224,1737.271,914.139,1737.272z"/>
			</g>
		</g>
	</g>
	<g>
		<g>
			<path style="fill:#FFFFFF;" d="M2133.518,731.442c25.117-38.9,24.328-95.435,8.403-146.622
				c-14.989-48.179-41.903-92.723-70.258-135.46c-2.805-4.227-8.083-5.33-10.979-2.236
				C1945.613,570.077,2082.865,809.891,2133.518,731.442z"/>
			<path d="M2108.913,752.422c-1.268,0-2.483-0.074-3.637-0.201c-27.414-3.011-58.779-40.005-78.048-92.057
				c-9.403-25.399-19.823-65.099-16.069-109.989c3.549-42.438,18.851-78.382,45.479-106.835c2.346-2.505,5.713-3.771,9.212-3.481
				c4.081,0.341,7.979,2.748,10.429,6.439c27.722,41.781,55.501,87.281,70.931,136.877c8.423,27.072,12.377,54.656,11.436,79.771
				c-1.051,28.029-7.94,52.087-20.475,71.501l0,0C2128.861,748.867,2117.675,752.422,2108.913,752.422z M2064.86,450.89
				c-0.058,0-0.104,0.007-0.14,0.02c-24.876,26.589-39.185,60.297-42.521,100.189c-2.796,33.44,2.68,70.807,15.419,105.219
				c17.29,46.705,46.253,82.407,68.868,84.891c8.751,0.959,16.285-3.336,22.378-12.771l0,0
				c21.946-33.989,24.85-87.063,7.768-141.971c-15.017-48.265-42.318-92.947-69.585-134.043
				C2066.278,451.264,2065.286,450.89,2064.86,450.89z"/>
		</g>
		<g>
			<g>
				<path style="fill:#FFFFFF;" d="M2462.387,936.042c-62.126-139.052-154.732-248.464-276.455-292.378
					c-194.299-70.101-306.046,143.782-532.127,190.588c-14.628,3.024-28.57,6.604-41.691,10.823
					c-70.986,22.805-118.283,64.129-123.547,136.162c-2.083,28.343,12.66,58.316,35.926,72.964
					c14.187,8.93,25.726,21.354,34.929,35.371c8.524,12.999,24.038,22.719,39.675,26.139c19.943,4.352,36.2,2.553,54.098,1.602
					c34.598-1.856,75.3-0.584,160.435,54.257c42.078,27.1,83.732,57.026,132.064,69.997c40.458,10.861,87.66,6.914,120.43-17.492
					c4.155-3.09,8.562-5.803,13.113-8.28c2.51-1.367,5.606-3.134,9.176-5.306c-16.663,21.521-32.984,43.483-49.108,65.627
					c-0.467,0.642-0.932,1.275-1.392,1.9c-42.645,57.767-100.298,91.693-162.876,114.549
					c-152.332,56.059-303.724,3.556-463.006,24.974c-269.171,36.206-455.101,237.586-410.973,451.323
					c2.689,13.028,7.096,38.586,7.096,38.586c40.949,212.985,205.66,290.214,90.21,526.698
					c-18.643,38.188-18.378,82.927,1.229,120.63c40.79,78.436,101.458,183.299,129.693,231.323
					c28.473,10.387,77.442-8.309,94.836-32.129c-61.182-136.759-74.083-349.584,41.297-447.094
					c72.565-61.304,131.382-119.048,165.892-192.344c112.847,28.446,272.268,70.708,457.17,29.617
					c7.495,185.87,26.091,462.978,165.159,645.756c29.368-7.283,58.742-14.541,88.086-21.817
					c-99.527-262.222-31.735-569.706,26.292-749.403l25.136-14.566c92.936-53.856,160.133-143.413,184.55-248.014
					c39.072-167.385,43.606-339.204,23.371-452.801c-12.161-68.279,32.208-141.375,50.723-234.225
					C2564.07,1007.533,2523.573,948.095,2462.387,936.042z"/>
				<path d="M2153.641,2795.445c-1.705,0-3.346-0.789-4.408-2.186c-32.965-43.325-61.283-94.87-84.17-153.202
					c-19.896-50.71-36.307-108.172-48.774-170.789c-21.829-109.633-28.904-217.634-33.072-318.307
					c-179.272,38.121-332.991-0.694-445.6-29.126l-3.266-0.823c-34.502,70.897-91.153,127.407-165.356,190.095
					c-36.02,30.44-79.989,90.688-84.9,204.835c-3.368,78.26,13.065,164.192,45.084,235.766c0.812,1.813,0.589,3.924-0.583,5.528
					c-18.042,24.708-69.308,45.705-101.208,34.066c-1.208-0.44-2.225-1.288-2.877-2.396c-13.6-23.132-83.774-143.01-129.833-231.575
					c-20.224-38.888-20.707-85.847-1.292-125.616c33.945-69.532,45.727-129.111,37.077-187.498
					c-7.789-52.578-31.484-99.328-56.571-148.822c-27.917-55.077-56.783-112.029-71.178-186.901
					c-0.006-0.035-0.013-0.069-0.019-0.104c-0.044-0.255-4.423-25.618-7.063-38.408c-9.311-45.102-8.775-90.601,1.595-135.231
					c9.993-43.008,28.875-84.3,56.122-122.729c36.32-51.227,87.376-96.385,147.65-130.593
					c62.967-35.736,133.72-59.078,210.293-69.378c65.251-8.773,129.645-5.216,191.917-1.775
					c92.856,5.13,180.563,9.976,269.915-22.907c72.098-26.333,123.041-62.124,160.332-112.641c0.451-0.613,0.909-1.237,1.369-1.869
					c10.937-15.02,21.133-28.808,30.79-41.629c-31.615,21.394-77.598,27.437-121.359,15.689
					c-43.042-11.552-80.955-36.324-117.62-60.282c-5.339-3.488-10.669-6.971-16.006-10.408
					c-81.805-52.696-121.007-55.319-157.139-53.383c-2.307,0.123-4.584,0.259-6.844,0.395c-15.746,0.944-30.621,1.837-48.733-2.116
					c-17.591-3.847-34.114-14.772-43.126-28.513c-9.498-14.468-20.686-25.813-33.247-33.721
					c-24.894-15.673-40.725-47.771-38.499-78.059c2.614-35.768,15.622-66.041,38.662-89.977
					c20.854-21.663,50.701-38.84,88.716-51.053c12.921-4.156,27.142-7.848,42.265-10.974
					c93.259-19.308,165.609-66.55,235.578-112.236c48.334-31.56,93.987-61.37,142.102-78.243
					c54.374-19.066,104.404-19.032,157.448,0.105c114.527,41.318,210.776,142.515,278.473,292.746
					c30.082,6.668,55.998,24.375,73.21,50.097c17.615,26.323,23.914,57.883,17.735,88.867c-6.926,34.73-17.236,66.121-27.207,96.478
					c-16.583,50.486-30.904,94.087-23.494,135.693c22.101,124.073,13.123,298.431-23.431,455.03
					c-12.295,52.671-35.016,101.485-67.534,145.089c-32.359,43.392-72.609,79.21-119.633,106.46l-23.294,13.498
					c-37.11,115.399-61.768,233.099-71.33,340.521c-13.544,152.14,1.798,287.792,45.598,403.191
					c0.563,1.481,0.464,3.133-0.271,4.536s-2.036,2.425-3.574,2.807c-14.39,3.568-28.786,7.132-43.187,10.696
					c-14.965,3.704-29.933,7.409-44.899,11.121C2154.531,2795.392,2154.084,2795.445,2153.641,2795.445z M1988.481,2138.609
					c1.211,0,2.401,0.396,3.379,1.149c1.3,1.001,2.09,2.526,2.156,4.166c4.116,102.091,10.98,211.901,33.138,323.18
					c12.34,61.977,28.564,118.805,48.222,168.906c22.003,56.081,49.069,105.729,80.481,147.638
					c13.785-3.418,27.57-6.83,41.354-10.242c12.387-3.065,24.77-6.131,37.147-9.199c-42.721-115.698-57.553-250.991-44.087-402.259
					c9.829-110.414,34.214-226.478,72.476-344.966c0.421-1.303,1.31-2.404,2.494-3.091l25.136-14.565
					c45.718-26.493,84.849-61.314,116.307-103.497c31.601-42.374,53.681-89.808,65.626-140.984
					c36.234-155.23,45.167-327.879,23.312-450.569c-7.898-44.355,6.826-89.185,23.876-141.093
					c9.869-30.045,20.073-61.112,26.868-95.188c5.599-28.076-0.111-56.679-16.077-80.538c-16.101-24.061-40.596-40.39-68.972-45.98
					c-1.767-0.348-3.253-1.532-3.987-3.175c-66.497-148.837-160.995-248.919-273.276-289.427
					c-110.669-39.929-193.65,14.254-289.732,76.993c-67.533,44.096-144.076,94.075-239.392,113.809
					c-14.738,3.046-28.571,6.637-41.118,10.672c-75.884,24.379-115.044,67.325-119.719,131.292
					c-1.939,26.379,11.776,54.289,33.352,67.873c13.914,8.758,26.23,21.213,36.608,37.019c7.482,11.411,21.363,20.517,36.228,23.768
					c16.611,3.626,30.744,2.778,45.704,1.881c2.286-0.137,4.588-0.275,6.917-0.399c38.016-2.039,79.14,0.642,163.729,55.132
					c5.357,3.45,10.708,6.946,16.066,10.448c35.938,23.481,73.098,47.762,114.433,58.856c42.356,11.371,86.685,5.016,115.687-16.585
					c4.067-3.025,8.571-5.872,13.772-8.703c2.793-1.52,5.803-3.26,8.946-5.173c2.283-1.388,5.23-0.949,7.01,1.042
					c1.779,1.992,1.885,4.97,0.249,7.083c-14.912,19.259-30.943,40.684-49.009,65.496c-0.47,0.645-0.938,1.283-1.401,1.913
					c-20.709,28.052-45.349,51.497-75.338,71.688c-25.954,17.474-55.428,32.125-90.106,44.791
					c-91.488,33.668-184.444,28.533-274.339,23.567c-61.76-3.413-125.622-6.94-189.83,1.694
					c-75.163,10.11-144.573,33-206.301,68.034c-58.872,33.412-108.694,77.454-144.082,127.365
					c-26.41,37.25-44.702,77.229-54.368,118.829c-10.005,43.06-10.522,86.961-1.536,130.484c2.611,12.65,6.871,37.266,7.119,38.701
					c14.103,73.323,42.607,129.559,70.172,183.943c25.505,50.319,49.596,97.849,57.649,152.207
					c8.993,60.704-3.107,122.344-38.081,193.983c-17.88,36.626-17.445,79.857,1.166,115.644
					c44.853,86.247,112.701,202.377,128.506,229.288c25.709,7.884,68.035-8.771,84.691-28.347
					c-31.802-72.468-48.07-158.892-44.68-237.695c1.892-43.966,9.8-83.953,23.505-118.852c15.123-38.508,37.098-70.124,65.313-93.97
					c74.528-62.961,131.015-119.446,164.456-190.472c1.128-2.396,3.792-3.664,6.366-3.012l7.662,1.934
					c112.881,28.499,267.477,67.531,446.951,27.646C1987.678,2138.652,1988.081,2138.609,1988.481,2138.609z"/>
			</g>
			<g>
				<path style="fill:#FFFFFF;" d="M1653.194,1117.312c-17.897,0.951-34.156,2.75-54.097-1.601
					c-15.637-3.42-31.151-13.141-39.676-26.14c-9.203-14.017-20.742-26.441-34.928-35.371
					c-23.267-14.648-38.008-44.621-35.927-72.965c5.266-72.032,52.562-113.356,123.548-136.161
					c15.062,4.842,28.984,12.547,40.26,22.682c26.582,23.879,43.095,59.476,49.293,95.365
					C1710.107,1011.982,1696.665,1085.973,1653.194,1117.312z"/>
				<path d="M1626.342,1124.047c-8.936,0-18.16-0.684-28.426-2.924c-17.592-3.847-34.116-14.772-43.127-28.514
					c-9.499-14.467-20.686-25.813-33.247-33.72c-24.893-15.672-40.725-47.771-38.5-78.059c2.614-35.768,15.623-66.042,38.662-89.977
					c20.853-21.664,50.701-38.84,88.716-51.053c1.102-0.355,2.286-0.354,3.39,0c16.04,5.156,30.656,13.399,42.268,23.837
					c25.598,22.994,44.204,58.912,51.049,98.541c4.565,26.431,2.786,57.798-4.883,86.059c-11.304,41.658-31.15,63-45.811,73.568
					c-0.861,0.621-1.884,0.981-2.945,1.038c-2.3,0.122-4.573,0.259-6.83,0.394
					C1639.833,1123.647,1633.172,1124.047,1626.342,1124.047z M1653.193,1117.312h0.01H1653.193z M1612.1,850.903
					c-74.765,24.472-113.368,67.25-118.008,130.737c-1.938,26.38,11.778,54.29,33.353,67.873
					c13.913,8.758,26.229,21.213,36.607,37.018c7.483,11.412,21.364,20.518,36.229,23.769c16.612,3.625,30.746,2.776,45.714,1.879
					c1.737-0.104,3.484-0.209,5.245-0.308c13.064-9.84,30.193-29.246,40.312-66.535c7.261-26.756,8.958-56.378,4.657-81.272
					c-6.429-37.223-23.755-70.823-47.536-92.186C1638.615,862.837,1626.002,855.608,1612.1,850.903z"/>
			</g>
			<g>
				<path style="fill:#FFFFFF;" d="M1557.97,960.779c-12.2,1.705-27.13,33.91-15.896,38.485c7.497,3.053,21.194-11.54,22.615-26.892
					C1565.154,967.346,1562.969,960.08,1557.97,960.779z"/>
				<path d="M1544.268,1005.219c-1.718,0-3.154-0.365-4.283-0.825c-2.634-1.073-8.61-4.779-7.213-15.999
					c0.783-6.285,3.801-13.862,8.073-20.271c2.896-4.343,8.871-11.786,16.358-12.833l0,0c3.083-0.432,6.046,0.54,8.343,2.733
					c3.83,3.655,5.1,10.095,4.659,14.857c-1.225,13.237-9.771,24.965-17.58,29.709
					C1549.381,1004.561,1546.572,1005.219,1544.268,1005.219z M1558.169,966.398c-3.782,1.208-10.224,9.191-13.212,18.301
					c-1.941,5.916-1.296,8.97-0.841,9.414c0.246,0.065,1.543-0.059,3.7-1.619c4.908-3.549,10.557-11.986,11.357-20.632
					C1559.382,969.607,1558.725,967.336,1558.169,966.398z M1558.736,966.265L1558.736,966.265L1558.736,966.265z"/>
			</g>
			<g>
				<path style="fill:#FFFFFF;" d="M1542.697,1063.682c40.005,10.702,104.389-5.55,126.884-28.321
					c13.238-13.4,18.576-35.69,15.566-49.704"/>
				<path d="M1571.485,1072.578c-11.084,0-21.369-1.177-30.22-3.544c-2.955-0.791-4.71-3.828-3.92-6.783
					c0.791-2.956,3.833-4.706,6.783-3.92c17.82,4.768,42.357,4.166,67.319-1.652c23.822-5.552,44.081-14.976,54.192-25.211
					c12.015-12.162,16.669-32.645,14.09-44.647c-0.643-2.991,1.262-5.937,4.253-6.58c2.985-0.639,5.936,1.261,6.579,4.253
					c3.209,14.936-1.673,39.205-17.041,54.76c-11.69,11.834-33.399,22.119-59.559,28.215
					C1599.38,1070.867,1584.851,1072.578,1571.485,1072.578z"/>
			</g>
			<g>
				
					<ellipse transform="matrix(0.9792 -0.2028 0.2028 0.9792 -176.5924 430.4743)" style="fill:#FFFFFF;" cx="2012.804" cy="1077.166" rx="74.326" ry="53.677"/>
				<path d="M2003.358,1137.377c-34.366,0.001-63.258-17.438-68.762-44.018c-3.277-15.829,2.036-32.323,14.96-46.444
					c12.472-13.626,30.669-23.476,51.241-27.735c20.568-4.259,41.184-2.446,58.041,5.108c17.47,7.828,28.896,20.856,32.173,36.685
					c6.62,31.973-23.077,65.25-66.201,74.179C2017.536,1136.659,2010.332,1137.377,2003.358,1137.377z M2022.526,1027.999
					c-6.379,0-12.922,0.672-19.482,2.03c-18.31,3.791-34.403,12.445-45.314,24.367c-10.458,11.426-14.82,24.466-12.283,36.718
					c5.381,25.991,39.977,40.878,77.118,33.19c37.142-7.691,62.979-35.093,57.598-61.084l0,0
					c-2.536-12.251-11.718-22.487-25.854-28.821C2044.844,1030.157,2033.952,1027.999,2022.526,1027.999z"/>
			</g>
			<g>
				<g>
					<path style="fill:#FFFFFF;" d="M2037.014,955.239c7.936,0,15.636-2.876,20.542-5.976"/>
					<path d="M2037.014,960.779c-3.06,0-5.539-2.48-5.539-5.539c0-3.06,2.479-5.54,5.539-5.54c6.992,0,13.667-2.645,17.582-5.119
						c2.588-1.635,6.009-0.863,7.643,1.723c1.635,2.586,0.863,6.008-1.723,7.643
						C2053.746,958.224,2044.961,960.779,2037.014,960.779z"/>
				</g>
				<g>
					<path style="fill:#FFFFFF;" d="M2036.15,973.927c11.852,2.86,24.881,0.416,34.89-6.547"/>
					<path d="M2046.08,980.633c-3.779,0-7.556-0.434-11.23-1.321c-2.974-0.718-4.803-3.71-4.085-6.685
						c0.718-2.974,3.714-4.804,6.685-4.085c10.325,2.492,21.702,0.359,30.427-5.709c2.512-1.747,5.963-1.127,7.711,1.384
						c1.747,2.511,1.127,5.964-1.385,7.71C2066.023,977.617,2056.042,980.633,2046.08,980.633z"/>
				</g>
				<g>
					
						<ellipse transform="matrix(0.2067 -0.9784 0.9784 0.2067 632.8179 2732.8152)" style="fill:#FFFFFF;" cx="2001.649" cy="976.169" rx="57.826" ry="37.886"/>
					<path d="M1995.01,1038.841c-2.163,0-4.319-0.223-6.459-0.675c-11.789-2.491-21.28-11.552-26.726-25.516
						c-5.131-13.159-6.077-29.302-2.664-45.458c3.413-16.155,10.809-30.537,20.823-40.496
						c10.628-10.569,22.977-15.015,34.764-12.525c11.789,2.491,21.28,11.552,26.726,25.516c5.131,13.159,6.077,29.302,2.664,45.458
						l0,0c-3.413,16.155-10.809,30.537-20.823,40.496C2014.615,1034.291,2004.764,1038.841,1995.01,1038.841z M2008.429,924.594
						c-16.063,0-33.023,19.31-38.428,44.889c-5.857,27.73,3.686,54.219,20.84,57.843c17.163,3.627,36.599-16.741,42.457-44.471
						c5.857-27.73-3.686-54.219-20.84-57.843C2011.127,924.731,2009.779,924.594,2008.429,924.594z M2038.718,984h0.01H2038.718z"/>
				</g>
				<g>
					<circle style="fill:#FFFFFF;" cx="1990.694" cy="957.173" r="15.501"/>
					<path d="M1990.694,978.213c-11.602,0-21.04-9.438-21.04-21.04c0-11.602,9.438-21.04,21.04-21.04s21.039,9.438,21.039,21.04
						C2011.733,968.775,2002.296,978.213,1990.694,978.213z M1990.694,947.212c-5.493,0-9.962,4.468-9.962,9.961
						c0,5.493,4.469,9.961,9.962,9.961c5.492,0,9.961-4.468,9.961-9.961C2000.655,951.681,1996.187,947.212,1990.694,947.212z"/>
				</g>
			</g>
			<g>
				
					<ellipse transform="matrix(0.5767 -0.8169 0.8169 0.5767 144.8755 2048.3652)" style="fill:#FFFFFF;" cx="2049.166" cy="884.374" rx="12.866" ry="30.906"/>
				<path d="M2067.155,910.61c-1.915,0-4.1-0.236-6.593-0.794c-6.867-1.538-14.684-5.233-22.011-10.406
					c-7.328-5.173-13.427-11.302-17.175-17.258c-6.255-9.942-3.928-16.044-1.984-18.798c1.943-2.752,6.915-6.988,18.377-4.422
					c6.867,1.538,14.684,5.233,22.011,10.406c14.796,10.445,26.129,26.184,19.16,36.055
					C2077.42,907.547,2074.044,910.61,2067.155,910.61z M2030.948,869.209c-1.348,0-2.212,0.223-2.51,0.541
					c-0.783,1.519,2.81,10.942,16.502,20.609c13.669,9.649,23.742,9.896,24.948,8.645c0.777-1.554-2.826-10.963-16.497-20.615
					C2043.156,871.164,2034.938,869.209,2030.948,869.209z"/>
			</g>
			<g>
				<path style="fill:#FFFFFF;" d="M2079.192,1215.595c34.844-19.422,75.221-57.726,96.576-99.241"/>
				<path d="M2079.197,1221.135c-1.944,0-3.83-1.025-4.844-2.844c-1.489-2.672-0.53-6.046,2.142-7.536
					c31.043-17.303,72.255-53.986,94.348-96.936c1.399-2.72,4.734-3.793,7.46-2.393c2.721,1.399,3.791,4.74,2.392,7.46
					c-23.15,45.007-66.306,83.431-98.805,101.546C2081.036,1220.909,2080.11,1221.135,2079.197,1221.135z"/>
			</g>
		</g>
		<g>
			<g>
				<path style="fill:#FFFFFF;" d="M2625.87,1515.282c13.493-36.491-3.196-89.643-32.606-139.32
					c-1.655-2.795,1.857-5.953,4.721-4.42c80.305,42.994,39.475-131.935-39.246-198.31c-2.642-2.228,0.866-6.429,4.039-5.061
					c74.713,32.229,14.581-181.724-92.802-253.612c-1.996-1.336,0.358-4.54,2.616-3.723
					c50.161,18.143,37.985-178.826-278.647-297.159c-34.111-42.36-115.597-63.974-210.338-47.446
					c-39.368,6.868-32.852,35.386-14.047,44.973c-30.754-0.806-115.765,8.471-124.75,31.355c-3.588,9.138,1.82,18.552,8.443,26.177
					c2.186,2.516,0.863,6.413-2.379,7.192c-74.008,17.772-75.905,84.612-20.429,72.131c16.174-3.639,26.01-3.313,2.438,28.63
					c-33.524,45.432,50.02,76.567,151.356,8.914c1.886-1.259,4.444,0.038,4.526,2.304c0.654,17.94,31.18,23.216,67.864,13.981
					c60.354-15.194,106.332-65.705,121.166-124.208l8.14-34.015c0.535-0.478,69.224,25.042,113.742,57.661l-27.842,30.665
					c-31.361,62.212-45.941,187.044,10.058,149.12c3.697-2.504,8.558,0.703,7.651,5.075c-9.916,47.837-10.119,108.918,2.966,131.549
					c10.461,18.091,31.289,24.003,48.109,3.93c2.895-3.454,8.494-1.438,8.398,3.068c-0.882,41.367,1.335,117.812,10.233,143.516
					c10.27,29.666,33.453,26.123,48.914,10.815c2.889-2.861,7.768-0.615,7.453,3.438c-3.687,47.436-13.144,153.383-4.543,183.604
					c7.977,28.027,34.269,24.852,51.448,13.498c2.274-1.503,5.271,0.421,4.919,3.124c-5.611,43.184-24.629,137.521-10.588,155.797
					c17.451,22.715,38.659-11.856,45.84-8.335c10.276,5.039-6.688,139.612,42.193,145.499
					c38.878,4.682,37.349-113.148,27.653-166.799c-0.222-1.229,1.505-1.73,1.994-0.581
					C2597.869,1563.192,2617.243,1538.613,2625.87,1515.282z"/>
				<path d="M2547.068,1681.362c-0.938,0-1.888-0.058-2.847-0.173c-38.281-4.609-40.862-71.604-42.569-115.934
					c-0.421-10.938-0.889-23.079-1.948-28.624c-1.479,0.996-3.328,2.428-4.832,3.593c-6.982,5.408-16.531,12.811-27.027,11.464
					c-5.795-0.748-10.972-4.041-15.387-9.788c-11.69-15.217-5.074-64.895,4.79-128.259c1.513-9.718,2.956-18.992,4.054-26.854
					c-10.101,5.482-23.66,9.047-35.554,4.64c-6.746-2.499-15.692-8.657-20.004-23.804c-8.148-28.632-0.978-118.619,3.307-172.384
					c0.287-3.594,0.558-6.996,0.808-10.171c-10.025,8.906-21.82,12.781-32.037,10.407c-7.448-1.732-17.624-7.548-23.808-25.413
					c-9.506-27.459-11.221-106.734-10.58-143.198c-8.321,9.154-18.347,13.69-28.45,12.815c-10.829-0.94-20.769-7.927-27.27-19.169
					c-8.479-14.666-10.581-40.188-10.852-59.016c-0.346-24.137,2.19-51.388,6.969-75.019c-17,11.04-27.439,7.389-33.239,2.29
					c-15.079-13.258-12.753-49.558-10.024-70.017c4.143-31.061,14.229-65.259,26.321-89.248c0.225-0.446,0.509-0.86,0.845-1.23
					l23.65-26.049c-36.138-25.059-85.528-45.354-101.476-51.357l-6.726,28.106c-15.93,62.823-65.066,113.152-125.201,128.29
					c-28.495,7.172-53.858,5.879-66.189-3.377c-4.084-3.065-6.774-6.951-7.931-11.4c-40.235,26.109-73.495,34.534-94.537,36.97
					c-27.561,3.192-50.03-1.967-61.652-14.15c-10.651-11.165-10.369-26.83,0.754-41.903c9.883-13.393,12.266-19.128,12.804-21.368
					c-1.368-0.033-4.112,0.203-9.569,1.431c-28.248,6.358-41.747-6.329-44.722-19.123c-2.669-11.477,1.827-24.744,12.335-36.399
					c7.87-8.73,22.651-20.406,48.605-26.979c-9.071-10.995-11.839-21.225-8.226-30.427c9.516-24.234,79.677-32.959,115.237-34.605
					c-4.406-5.952-6.522-13.061-5.496-19.877c1.124-7.47,6.939-20.687,33.26-25.278c46.292-8.076,91.291-7.485,130.134,1.706
					c37.339,8.836,66.514,24.911,84.498,46.533c140.934,52.922,215.247,118.998,252.797,165.181
					c20.555,25.281,35.7,51.508,43.8,75.845c7.089,21.3,8.438,39.978,3.8,52.592c-2.943,8.006-8.182,13.001-14.684,14.473
					c35.945,27.633,69.506,72.92,93.268,126.278c23.583,52.957,31.482,100.654,20.124,121.514
					c-3.274,6.015-10.695,14.444-25.894,11.52c24.936,24.165,47.867,60.865,62.497,100.482
					c12.347,33.435,20.715,76.273,7.177,96.232c-9.905,14.6-26.499,11.422-38.476,6.333c13.71,24.189,23.806,48.17,29.327,69.728
					c6.84,26.708,6.854,49.59,0.043,68.01l-5.195-1.921l5.195,1.921c-4.061,10.983-13.076,29.463-27.825,29.815
					c-7.639,0.208-14.899-4.496-21.845-14.213c4.866,47.547,4.192,118.04-17.207,140.738
					C2559.335,1678.692,2553.463,1681.362,2547.068,1681.362z M2501.535,1524.366c1.198,0,2.393,0.262,3.595,0.852
					c5.902,2.894,6.522,11.822,7.593,39.611c1.468,38.104,3.925,101.881,32.823,105.36c4.028,0.481,7.394-0.863,10.582-4.245
					c9.167-9.725,14.977-34.217,16.357-68.966c1.133-28.495-0.987-62.685-5.4-87.103c-0.596-3.301,1.377-6.513,4.588-7.473
					c3.217-0.962,6.64,0.645,7.955,3.736c11.388,26.78,19.948,29.805,23.223,29.805c0.042,0,0.084,0,0.125-0.001
					c5.729-0.138,12.677-9.001,17.699-22.582c11.604-31.383-0.124-80.435-32.178-134.577c-1.971-3.328-1.463-7.476,1.265-10.323
					c2.835-2.96,7.292-3.701,10.838-1.802c14.881,7.967,25.111,8.053,30.402,0.253c9.07-13.373,5.694-48.003-8.401-86.175
					c-15.583-42.201-40.792-80.806-67.433-103.269c-3.158-2.663-3.812-7.031-1.59-10.624c2.414-3.903,7.313-5.518,11.394-3.758
					c16.028,6.914,20.14-0.642,21.688-3.487c9.468-17.389,1.032-63.325-20.515-111.709
					c-25.114-56.394-61.289-103.313-99.251-128.727c-3.086-2.065-4.083-6.023-2.369-9.411c1.883-3.722,6.162-5.494,9.951-4.125
					c2.249,0.815,9.092,3.289,12.808-6.819c7.713-20.975-5.542-68.113-45.798-117.625c-36.808-45.27-109.969-110.179-249.48-162.317
					c-0.931-0.348-1.752-0.94-2.375-1.715c-34.311-42.606-116.723-60.877-205.072-45.463c-14.228,2.482-23.051,8.318-24.209,16.013
					c-1.02,6.775,3.912,14.584,11.726,18.568c2.307,1.175,3.49,3.791,2.854,6.299c-0.626,2.461-2.841,4.175-5.367,4.175
					c-0.049,0-0.098,0-0.147-0.002c-15.216-0.396-43.93,1.773-69.339,6.695c-41.984,8.132-48.969,18.242-50.109,21.147
					c-2.14,5.448,0.373,12.352,7.469,20.519c2.29,2.636,3.021,6.194,1.957,9.518c-1.078,3.363-3.778,5.866-7.224,6.693
					c-42.763,10.269-57.765,36.215-54.438,50.517c2.44,10.497,14.506,14.646,31.499,10.824c6.896-1.551,17.316-3.895,21.689,2.804
					c4.069,6.236,0.39,15.592-13.578,34.52c-5.582,7.565-10.4,18.508-1.652,27.678c9.067,9.503,28.639,13.541,52.362,10.792
					c20.429-2.365,53.166-10.782,93.112-37.451c2.544-1.698,5.819-1.886,8.547-0.49c2.722,1.393,4.481,4.152,4.592,7.201
					c0.105,2.91,1.461,5.303,4.142,7.315c9.577,7.189,31.886,7.775,56.834,1.494c56.241-14.158,102.225-61.338,117.149-120.197
					l8.121-33.942c0.263-1.098,0.855-2.09,1.697-2.842c2.56-2.288,5.025-1.412,8.759-0.086c1.622,0.576,4.448,1.613,8.696,3.283
					c6.313,2.483,16.454,6.633,28.911,12.314c20.862,9.513,50.695,24.489,74.341,41.815c1.267,0.928,2.079,2.35,2.237,3.912
					c0.157,1.563-0.355,3.118-1.41,4.28l-27.332,30.103c-11.425,22.925-20.945,55.428-24.897,85.058
					c-4.023,30.167-1.587,53.246,6.358,60.231c4.36,3.832,11.383,2.515,20.879-3.918c3.572-2.418,8.19-2.435,11.763-0.042
					c3.555,2.38,5.289,6.63,4.419,10.828c-10.224,49.321-9.153,107.778,2.338,127.652c4.666,8.069,11.458,13.054,18.636,13.677
					c7.09,0.614,14.143-3.028,20.431-10.533c2.866-3.422,7.407-4.623,11.565-3.06c4.114,1.546,6.711,5.394,6.616,9.804
					c-0.914,42.89,1.609,117.55,9.929,141.585c2.501,7.223,7.28,16.252,15.849,18.246c7.242,1.684,16.189-1.888,23.935-9.555
					c2.98-2.952,7.361-3.721,11.163-1.959c3.793,1.758,6.034,5.59,5.709,9.764c-0.311,4.005-0.663,8.428-1.043,13.187
					c-3.947,49.543-11.296,141.761-3.694,168.471c2.44,8.574,6.88,14.108,13.195,16.448c9.79,3.625,21.846-0.751,29.87-6.054
					c2.871-1.897,6.475-1.939,9.404-0.11c2.954,1.844,4.511,5.127,4.063,8.57c-1.154,8.885-2.895,20.065-4.737,31.902
					c-3.689,23.7-7.872,50.563-9.81,73.71c-2.783,33.247,0.596,43.15,2.857,46.094c2.591,3.373,5.215,5.188,8.02,5.55
					c5.926,0.76,13.074-4.779,18.824-9.233C2492.928,1527.717,2497.253,1524.366,2501.535,1524.366z"/>
			</g>
			<g>
				<g>
					<path style="fill:#FFFFFF;" d="M2521.31,1307.581c23.636,132.375,73.962,58.895,26.12-39.031"/>
					<path d="M2553.537,1384.826c-1.098,0-2.211-0.142-3.325-0.432c-14.075-3.659-26.275-30.593-34.354-75.84
						c-0.538-3.012,1.468-5.889,4.479-6.427c3.007-0.541,5.89,1.468,6.427,4.479c3.922,21.964,8.743,39.277,14.33,51.456
						c4.806,10.475,9.301,14.931,11.906,15.608c0.461,0.12,1.425,0.368,3.007-1.567c7.58-9.272,11.571-49.696-13.554-101.123
						c-1.343-2.749-0.203-6.066,2.546-7.409c2.745-1.346,6.065-0.205,7.409,2.545c14.498,29.676,18.937,54.278,20.107,69.692
						c1.484,19.54-1.406,35.325-7.932,43.307C2561.538,1382.843,2557.637,1384.826,2553.537,1384.826z"/>
				</g>
				<g>
					<path style="fill:#FFFFFF;" d="M2309.043,772.442c7.368,67.774,29.402,91.971,49.149,84.37
						c20.911-8.049,15.545-41.738-7.411-69.762"/>
					<path d="M2351.188,863.7c-4.549,0-9.056-1.315-13.34-3.927c-17.185-10.478-29.37-41.28-34.312-86.733
						c-0.331-3.042,1.866-5.775,4.908-6.105c3.035-0.336,5.775,1.866,6.105,4.908c6.385,58.722,22.453,74.439,29.065,78.471
						c4.176,2.546,8.296,2.98,12.587,1.328c4.548-1.75,7.407-5.053,8.741-10.098c3.403-12.871-4.011-33.359-18.447-50.984
						c-1.938-2.367-1.592-5.857,0.774-7.796c2.366-1.938,5.856-1.593,7.796,0.775c16.842,20.56,24.923,44.44,20.587,60.837
						c-2.243,8.485-7.594,14.573-15.471,17.605C2357.201,863.129,2354.186,863.7,2351.188,863.7z"/>
				</g>
				<g>
					<path style="fill:#FFFFFF;" d="M2416.369,924.785c16.16,96.267,40.404,98.797,48.176,97.295
						c23.133-4.472,20.568-31.888-5.007-74.265"/>
					<path d="M2461.998,1027.861c-3.559,0-8.048-0.982-12.938-4.376c-16.327-11.333-29.164-44.232-38.153-97.783
						c-0.507-3.017,1.528-5.873,4.546-6.38c3.015-0.509,5.874,1.528,6.38,4.546c11.115,66.212,25.788,85.131,33.545,90.515
						c2.861,1.986,5.594,2.747,8.116,2.258c5.09-0.984,8.361-3.255,10.002-6.944c4.562-10.258-2.255-31.77-18.7-59.02
						c-1.58-2.62-0.738-6.024,1.881-7.605c2.621-1.581,6.024-0.739,7.605,1.88c19.151,31.735,25.657,55.032,19.337,69.246
						c-2.183,4.909-7.082,11.206-18.021,13.321C2464.549,1027.721,2463.339,1027.861,2461.998,1027.861z"/>
				</g>
				<g>
					<path style="fill:#FFFFFF;" d="M2441.412,1109.624c0,149.064,57.994,119.495,44.123,39.353"/>
					<path d="M2469.513,1220.848c-2.275,0-4.571-0.56-6.811-1.688c-17.051-8.585-26.829-48.51-26.829-109.536
						c0-3.06,2.479-5.54,5.539-5.54s5.539,2.48,5.539,5.54c0,70.414,13.032,95.763,20.733,99.64c1.133,0.57,2.44,0.902,4.344-0.509
						c3.704-2.746,6.94-9.854,8.655-19.015c1.49-7.956,2.595-21.322-0.606-39.818c-0.522-3.015,1.499-5.881,4.514-6.403
						c3.016-0.521,5.881,1.499,6.402,4.514c5.461,31.548,0.375,60.179-12.368,69.624
						C2475.764,1219.777,2472.658,1220.848,2469.513,1220.848z"/>
				</g>
			</g>
		</g>
		<g>
			<g>
				<path style="fill:#FFFFFF;" d="M2240.727,752.607c50.677-19.76,86.009-68.179,102.369-120.054
					c15.396-48.816,16.222-100.844,14.409-152.099c-0.18-5.087-4.914-8.824-9.884-7.723
					C2150.81,516.359,2138.533,792.455,2240.727,752.607z"/>
				<path d="M2221.734,762.085c-12.406,0-21.343-5.08-27.278-10.356c-11.321-10.063-18.716-26.869-21.387-48.604
					c-2.59-21.079-0.567-45.269,5.848-69.955c6.832-26.292,21.788-65.092,54.238-100.624c30.48-33.376,68.59-55.321,113.267-65.225
					c3.958-0.878,8.071,0.047,11.288,2.537c3.243,2.51,5.187,6.301,5.331,10.399c1.774,50.191,1.227,103.582-14.662,153.961
					c-8.673,27.5-22.267,53.057-39.31,73.909c-18.926,23.155-41.246,39.857-66.33,49.64l0,0
					C2234.853,760.843,2227.869,762.085,2221.734,762.085z M2349.376,478.077c-0.175,0-0.36,0.019-0.556,0.062
					c-42.408,9.401-78.571,30.22-107.484,61.879c-30.92,33.856-45.18,70.859-51.696,95.939
					c-12.016,46.237-7.008,90.439,12.177,107.491c9.538,8.478,21.953,9.824,36.897,3.997l0,0
					c23.287-9.08,44.072-24.668,61.776-46.329c16.163-19.774,29.068-44.06,37.322-70.23c15.386-48.78,15.896-101.035,14.156-150.237
					c-0.038-1.094-0.668-1.741-1.04-2.029C2350.642,478.399,2350.101,478.077,2349.376,478.077z"/>
			</g>
			<g>
				<path style="fill:#FFFFFF;" d="M2237.633,733.652c32.736-12.765,55.559-44.042,66.127-77.551
					c10.001-31.709,10.485-65.515,9.288-98.803c-0.109-3.03-2.964-5.182-5.926-4.534
					C2179.568,580.633,2171.543,759.422,2237.633,733.652z"/>
				<path d="M2225.269,741.74c-6.221,0-12.822-1.84-18.852-7.21c-15.359-13.68-19.493-44.62-10.531-78.823
					c4.51-17.21,14.356-42.597,35.659-65.804c20.036-21.827,45.066-36.143,74.396-42.551c3.043-0.664,6.192,0.047,8.646,1.95
					c2.43,1.885,3.887,4.727,3.998,7.796c1.18,32.833,0.841,67.753-9.541,100.669c-12.156,38.542-38.103,68.84-69.398,81.045l0,0
					C2235.514,740.424,2230.527,741.74,2225.269,741.74z M2307.543,558.345c-26.728,5.991-49.547,19.127-67.836,39.051
					c-19.767,21.534-28.912,45.123-33.104,61.121c-7.673,29.284-4.719,57.14,7.184,67.741c5.567,4.96,12.916,5.712,21.834,2.233l0,0
					c28.203-10.996,51.701-38.681,62.857-74.056C2308.268,623.397,2308.651,589.938,2307.543,558.345z"/>
			</g>
		</g>
		<g>
			<g>
				<path style="fill:#FFFFFF;" d="M2024.355,684.427c-100.41,39.006-93.224,47.585-93.224,47.585s-7.372-16.146-18.37-43.123
					c-3.924-9.629-8.316-20.625-12.995-32.79c-6.764-17.54-14.142-37.469-21.604-59.038c-3.892-11.304-7.848-23.085-11.728-35.193
					l0.002-0.022c-6.203-19.364-12.299-39.59-17.943-60.309c-3.501-12.765-6.827-25.713-9.923-38.729
					c-4.984-21.056-9.39-42.3-12.856-63.318c-1.078-6.506,6.557-10.403,10.437-5.074c7.686,10.495,15.031,20.597,22.076,30.334
					c6.043,8.34,11.844,16.41,17.447,24.215c10.162,14.185,19.603,27.516,28.386,40.043c6.038,8.608,11.757,16.827,17.175,24.702
					c10.958,15.853,20.758,30.315,29.578,43.584c6.017,9.054,11.574,17.547,16.735,25.531
					C2002.139,636.349,2010.283,658.891,2024.355,684.427z"/>
				<path d="M1931.134,737.551c-1.592,0-3.162-0.685-4.25-1.982c-0.435-0.519-0.771-1.102-1.006-1.729
					c-1.297-2.869-8.359-18.608-18.246-42.86c-4.616-11.329-8.88-22.088-13.035-32.894c-7.63-19.783-14.921-39.707-21.669-59.215
					c-4.39-12.749-8.238-24.297-11.769-35.314c-0.033-0.103-0.063-0.207-0.09-0.313c-6.794-21.22-12.656-40.932-17.92-60.252
					c-3.561-12.983-6.915-26.075-9.967-38.903c-5.311-22.431-9.661-43.859-12.934-63.698c-0.93-5.613,1.96-11.02,7.029-13.143
					c4.813-2.017,10.182-0.45,13.353,3.907c7.152,9.767,14.379,19.697,22.085,30.348c6.045,8.343,11.851,16.42,17.459,24.231
					c9.732,13.586,19.294,27.074,28.422,40.094c6.397,9.121,12.025,17.215,17.203,24.743c10.482,15.165,20.453,29.857,29.627,43.657
					c5.688,8.557,11.175,16.928,16.774,25.591c24.779,38.342,36.343,61.421,45.634,79.966c3.788,7.56,7.365,14.7,11.371,21.969
					c0.771,1.399,0.9,3.063,0.355,4.564c-0.545,1.501-1.712,2.694-3.201,3.273c-74.101,28.786-87.43,40.254-89.711,42.912
					c-0.15,1.671-1.057,3.244-2.563,4.194C1933.173,737.273,1932.149,737.551,1931.134,737.551z M1871.803,560.465
					c3.48,10.854,7.275,22.237,11.598,34.791c6.703,19.379,13.949,39.181,21.534,58.849c4.132,10.741,8.369,21.434,12.957,32.693
					c6.288,15.424,11.416,27.359,14.623,34.683c9.092-7.007,30.854-19.049,83.99-39.935c-2.936-5.544-5.695-11.052-8.575-16.799
					c-9.647-19.256-20.583-41.082-45.033-78.915c-5.574-8.622-11.035-16.955-16.696-25.472
					c-9.137-13.745-19.069-28.38-29.521-43.501c-5.166-7.51-10.774-15.577-17.153-24.671c-9.106-12.991-18.646-26.447-28.354-39.998
					c-5.596-7.794-11.392-15.857-17.43-24.19c-7.695-10.636-14.91-20.55-22.059-30.312c-0.07-0.095-0.126-0.159-0.167-0.199
					c-0.152,0.084-0.46,0.353-0.337,1.095c3.231,19.592,7.532,40.77,12.782,62.947c3.021,12.7,6.344,25.668,9.874,38.54
					c5.247,19.259,11.094,38.91,17.877,60.084C1871.746,560.257,1871.775,560.36,1871.803,560.465z M1831.439,397.423
					L1831.439,397.423L1831.439,397.423z"/>
			</g>
			<g>
				<path style="fill:#FFFFFF;" d="M1875.675,448.964l-27.18,52.571c-3.501-12.765-6.827-25.713-9.923-38.729l19.656-38.057
					C1864.271,433.089,1870.071,441.159,1875.675,448.964z"/>
				<path d="M1848.496,507.075c-0.192,0-0.387-0.01-0.581-0.03c-2.269-0.239-4.16-1.844-4.763-4.044
					c-3.563-12.992-6.918-26.085-9.97-38.912c-0.308-1.29-0.142-2.646,0.467-3.824l19.656-38.057
					c0.883-1.709,2.588-2.837,4.506-2.982c1.915-0.141,3.773,0.716,4.901,2.273c6.048,8.347,11.854,16.424,17.462,24.234
					c1.215,1.693,1.378,3.924,0.421,5.775l-27.181,52.571C1852.457,505.933,1850.55,507.075,1848.496,507.075z M1844.438,463.521
					c1.806,7.527,3.714,15.139,5.706,22.763l19.051-36.846c-3.32-4.622-6.709-9.336-10.179-14.143L1844.438,463.521z"/>
			</g>
			<g>
				<path style="fill:#FFFFFF;" d="M1921.235,513.71l-43.073,83.35c-3.892-11.304-7.848-23.085-11.728-35.193l0.002-0.022
					l37.623-72.837C1910.099,497.616,1915.818,505.834,1921.235,513.71z"/>
				<path d="M1878.165,602.599c-0.135,0-0.269-0.005-0.404-0.015c-2.211-0.161-4.113-1.625-4.835-3.721
					c-4.388-12.741-8.236-24.29-11.767-35.307c-0.25-0.782-0.324-1.609-0.216-2.422c0.085-0.632,0.28-1.266,0.572-1.832
					l37.623-72.837c0.89-1.722,2.614-2.854,4.549-2.984c1.93-0.129,3.795,0.759,4.908,2.346
					c6.398,9.122,12.026,17.216,17.204,24.744c1.157,1.683,1.295,3.867,0.356,5.682l-43.072,83.35
					C1882.129,601.452,1880.224,602.599,1878.165,602.599z M1872.409,562.353c2.132,6.615,4.383,13.438,6.802,20.612l35.578-68.849
					c-3.141-4.555-6.456-9.331-10.013-14.425L1872.409,562.353z"/>
			</g>
			<g>
				<path style="fill:#FFFFFF;" d="M1967.549,582.826l-54.787,106.063c-3.924-9.629-8.316-20.625-12.995-32.79l51.047-98.804
					C1956.831,566.348,1962.388,574.841,1967.549,582.826z"/>
				<path d="M1912.763,694.428c-0.083,0-0.166-0.002-0.25-0.006c-2.159-0.097-4.065-1.441-4.881-3.443
					c-4.616-11.328-8.88-22.087-13.035-32.893c-0.568-1.477-0.478-3.125,0.248-4.531l51.047-98.804
					c0.901-1.744,2.658-2.881,4.618-2.989c1.954-0.103,3.83,0.83,4.917,2.465c5.688,8.557,11.175,16.928,16.774,25.591
					c1.078,1.668,1.181,3.785,0.27,5.55l-54.787,106.063C1916.729,693.277,1914.827,694.428,1912.763,694.428z M1905.831,656.428
					c2.455,6.357,4.954,12.712,7.548,19.195l47.773-92.485c-3.256-5.023-6.485-9.963-9.749-14.917L1905.831,656.428z"/>
			</g>
			<g>
				<path style="fill:#FFFFFF;" d="M1710.852,282.065c-24.932-42.405,8-54.514,31.295-36.389
					c11.046,8.594,28.101,38.191,28.101,38.191c-7.658-14.493-19.337-65.203,1.845-72.941
					c42.681-15.591,42.098,116.455,40.69,136.537c-0.345,4.919-4.354,7.229-8.827,5.154
					C1777.284,340.242,1725.386,306.784,1710.852,282.065z"/>
				<path d="M1807.173,358.917c-1.826,0-3.714-0.424-5.548-1.275c-24.509-11.371-79.498-45.47-95.548-72.769
					c-17.176-29.213-7.265-42.698-2.206-47.14c10.097-8.866,27.624-7.364,41.678,3.571c3.119,2.427,6.57,6.211,9.981,10.505
					c-1.575-11.708-1.519-23.764,1.892-32.629c2.573-6.691,6.989-11.344,12.771-13.456c7.872-2.877,15.388-1.872,21.735,2.906
					c12.322,9.276,20.554,33.504,24.465,72.01c2.963,29.171,2.57,57.88,1.916,67.212c-0.293,4.171-2.314,7.658-5.548,9.566
					C1811.069,358.416,1809.157,358.917,1807.173,358.917z M1720.334,243.078c-3.642,0-6.862,0.969-9.152,2.979
					c-6.226,5.466-4.563,17.878,4.446,33.2l0,0c14.143,24.055,65.746,56.775,90.66,68.335c0.4,0.186,0.669,0.234,0.813,0.245
					c0.054-0.124,0.129-0.363,0.156-0.76c1.595-22.736,0.147-112.93-21.992-129.596c-3.335-2.511-6.914-2.941-11.271-1.351
					c-2.763,1.01-4.802,3.308-6.232,7.027c-5.774,15.013,1.339,46.681,7.385,58.123c1.411,2.669,0.424,5.977-2.22,7.437
					c-2.646,1.459-5.97,0.533-7.478-2.083c-4.596-7.973-18.354-30.088-26.703-36.585
					C1732.898,245.499,1726.09,243.078,1720.334,243.078z"/>
			</g>
		</g>
		<g>
			<path style="fill:#FFFFFF;" d="M2029.161,640.026c-72.55,9.561-107.074,47.353-114.006,69.692
				c-16.479,53.101,46.585,49.205,114.5-22.031"/>
			<path d="M1934.127,751.366c-6.084,0-11.375-1.255-15.684-3.786c-6.582-3.868-16.449-14.142-8.579-39.503
				c2.113-6.809,9.699-24.58,34.439-42.483c22.075-15.975,51.168-26.714,84.134-31.059c3.024-0.4,5.816,1.735,6.216,4.768
				s-1.735,5.816-4.769,6.216c-31.148,4.104-58.496,14.15-79.086,29.05c-15.291,11.065-26.638,24.819-30.353,36.791
				c-2.406,7.754-5.137,21.528,3.61,26.668c13.293,7.812,53.603-3.829,101.589-54.163c2.111-2.215,5.618-2.298,7.832-0.187
				c2.215,2.111,2.298,5.617,0.188,7.832c-22.122,23.204-45.07,40.815-66.365,50.932
				C1954.829,748.365,1943.532,751.365,1934.127,751.366z"/>
		</g>
	</g>
	<g>
		<g>
			<path style="fill:#FFFFFF;" d="M1390.943,1456.2c-6.105,4.643-4.382,14.307,2.824,16.935
				c66.506,24.252,139.615,31.497,195.225-11.96c20.039-15.66,15.242-28.454-6.124-34.884
				C1544.257,1414.67,1458.89,1404.534,1390.943,1456.2z"/>
			<path d="M1491.942,1498.116c-30.422,0-64.064-6.646-100.073-19.777c-5.324-1.941-9.161-6.646-10.014-12.278
				c-0.843-5.564,1.301-10.899,5.734-14.271l3.353,4.41l-3.353-4.41c30.78-23.405,67.764-36.797,109.922-39.803
				c41.625-2.971,74.675,5.303,86.953,8.998c16.659,5.014,21.442,12.922,22.521,18.674c1.573,8.381-3.333,17.088-14.583,25.88
				c-26.792,20.937-59.373,31.887-96.84,32.545C1494.363,1498.105,1493.152,1498.116,1491.942,1498.116z M1515.364,1422.433
				c-5.482,0-11.181,0.186-17.064,0.605c-39.975,2.851-74.967,15.492-104.004,37.572c-1.668,1.268-1.595,3.075-1.486,3.793
				c0.25,1.648,1.317,2.967,2.855,3.528c36.159,13.185,69.703,19.602,99.704,19.076c35.007-0.615,65.359-10.775,90.212-30.197
				c7.4-5.783,11.233-11.289,10.517-15.107c-0.714-3.803-6.117-7.487-14.826-10.108
				C1571.31,1428.597,1546.97,1422.433,1515.364,1422.433z"/>
		</g>
		<g>
			<path style="fill:#FFFFFF;" d="M1441.759,1613.952c-3.303,6.923,2.175,14.804,9.812,14.089
				c70.482-6.603,139.637-31.402,171.245-94.504c11.39-22.738,1.571-32.241-20.488-28.89
				C1562.464,1510.703,1484.76,1523.832,1441.759,1613.952z"/>
			<path d="M1450.594,1633.627c-5.022,0-9.639-2.393-12.564-6.582c-3.22-4.611-3.694-10.397-1.27-15.479l0,0
				c19.124-40.079,47.362-69.929,83.929-88.718c31.504-16.188,62.367-20.877,80.808-23.678c17.202-2.615,24.912,2.48,28.353,7.214
				c5.015,6.897,4.315,16.868-2.079,29.633c-15.229,30.402-39.97,54.263-73.536,70.921c-28.1,13.944-62.466,22.9-102.146,26.618
				C1451.587,1633.604,1451.088,1633.627,1450.594,1633.627z M1441.759,1613.952l5,2.386c-0.987,2.067-0.081,3.741,0.354,4.364
				c0.433,0.619,1.689,2.037,3.941,1.823c38.32-3.59,71.377-12.173,98.254-25.512c31.363-15.563,54.429-37.755,68.555-65.957
				c4.206-8.397,5.309-15.015,3.024-18.157c-2.276-3.129-8.735-4.14-17.728-2.775c-36.997,5.62-113.983,17.315-156.401,106.214
				L1441.759,1613.952z"/>
		</g>
		<g>
			<path style="fill:#FFFFFF;" d="M1564.528,1758.758c0.818,7.626,9.615,11.465,15.743,6.851
				c56.55-42.583,102.43-99.963,96.254-170.268c-2.226-25.334-15.57-28.276-32.595-13.855
				C1613.161,1607.547,1553.884,1659.473,1564.528,1758.758z"/>
			<path d="M1574.383,1773.157c-2.073,0-4.164-0.428-6.165-1.296c-5.159-2.237-8.598-6.916-9.197-12.514
				c-4.734-44.154,3.656-84.378,24.939-119.552c16.919-27.964,37.979-46.943,56.39-62.537c13.273-11.244,22.511-10.95,27.925-8.726
				c7.887,3.244,12.519,12.101,13.769,26.323c2.976,33.871-5.578,67.163-25.424,98.948c-16.614,26.609-41.18,52.257-73.017,76.229
				C1580.86,1772.099,1577.645,1773.156,1574.383,1773.157z M1661.807,1578.369c-3.611,0-8.654,2.563-14.297,7.343
				c-28.555,24.188-87.974,74.516-77.474,172.455c0,0,0,0,0,0.001c0.244,2.277,1.893,3.227,2.591,3.529
				c0.69,0.301,2.496,0.851,4.312-0.514c30.745-23.151,54.393-47.795,70.283-73.246c18.543-29.699,26.545-60.69,23.784-92.112
				c-0.821-9.355-3.354-15.568-6.945-17.046C1663.392,1578.505,1662.637,1578.369,1661.807,1578.369z"/>
		</g>
		<g>
			<path style="fill:#FFFFFF;" d="M1738.439,1802.138c4.441,6.254,13.992,5.302,17.083-1.718
				c28.52-64.791,40.499-137.275,0.746-195.589c-14.325-21.014-27.404-17.058-35.208,3.845
				C1706.955,1646.45,1680.623,1720.725,1738.439,1802.138z"/>
			<path d="M1746.443,1811.849c-4.983,0-9.577-2.359-12.521-6.504l0,0c-25.713-36.207-38.054-75.399-36.681-116.487
				c1.184-35.4,12.103-64.646,18.627-82.12c6.085-16.298,14.288-20.558,20.098-21.262c8.46-1.028,16.836,4.438,24.878,16.234
				c19.152,28.095,27.962,61.318,26.186,98.749c-1.487,31.335-10.383,65.717-26.438,102.191c-2.262,5.14-6.946,8.547-12.529,9.115
				C1747.52,1811.821,1746.979,1811.849,1746.443,1811.849z M1737.894,1596.439c-0.202,0-0.4,0.012-0.595,0.035
				c-3.842,0.465-7.869,5.618-11.051,14.138c-13.089,35.058-40.325,108.008,16.708,188.318l0,0c1.325,1.865,3.227,1.884,3.984,1.813
				c0.751-0.077,2.597-0.479,3.511-2.557c15.507-35.226,24.09-68.283,25.513-98.254c1.66-34.974-6.507-65.921-24.273-91.983
				C1746.668,1600.583,1741.685,1596.439,1737.894,1596.439z"/>
		</g>
		<g>
			<path style="fill:#FFFFFF;" d="M1921.407,1735.497c7.253,2.496,14.461-3.842,12.883-11.348
				c-14.564-69.276-47.054-135.168-113.336-159.407c-23.885-8.734-32.211,2.1-26.377,23.636
				C1805.12,1627.297,1826.987,1703.007,1921.407,1735.497z"/>
			<path d="M1924.696,1741.597c-1.695,0-3.412-0.283-5.092-0.861c-41.991-14.45-74.854-39.115-97.674-73.313
				c-18.142-27.186-26.392-54.309-32.7-77.597c-4.549-16.792-0.363-25.033,3.948-28.989c6.284-5.766,16.27-6.202,29.678-1.298
				c31.934,11.678,58.449,33.55,78.811,65.007c17.045,26.335,29.846,59.463,38.044,98.463c1.155,5.495-0.667,10.994-4.874,14.708
				C1931.952,1740.264,1928.374,1741.597,1924.696,1741.597z M1806.62,1567.251c-2.644,0-4.677,0.581-5.951,1.75
				c-2.852,2.616-3.123,9.15-0.745,17.929c9.785,36.12,30.146,111.279,123.286,143.329l0,0c2.167,0.748,3.725-0.344,4.295-0.848
				c0.565-0.499,1.831-1.901,1.364-4.123c-7.918-37.664-20.199-69.533-36.503-94.722c-19.024-29.394-43.691-49.789-73.314-60.623
				C1814.157,1568.154,1809.915,1567.251,1806.62,1567.251z"/>
		</g>
		<g>
			<path style="fill:#FFFFFF;" d="M2026.633,1586.9c7.427-1.917,9.946-11.179,4.491-16.571
				c-50.349-49.762-113.786-86.817-182.448-70.489c-24.742,5.884-25.714,19.513-8.972,34.262
				C1869.96,1560.756,1929.949,1611.859,2026.633,1586.9z"/>
			<path d="M1976.23,1599.085c-24.307,0-47.756-4.712-70.121-14.123c-32.647-13.737-56.071-34.373-70.067-46.703
				c-13.054-11.501-14.105-20.684-12.689-26.361c2.063-8.273,10.152-14.144,24.042-17.447c33.079-7.866,67.259-4.242,101.593,10.775
				c28.741,12.57,57.687,33.148,86.031,61.164c3.992,3.946,5.504,9.537,4.043,14.954c-1.464,5.431-5.593,9.513-11.044,10.92l0,0
				C2010.397,1596.813,1993.106,1599.085,1976.23,1599.085z M1881.727,1501.497c-10.7,0-21.3,1.242-31.77,3.732
				c-9.136,2.172-14.915,5.58-15.854,9.349c-0.937,3.755,2.44,9.356,9.264,15.368c28.078,24.736,86.517,76.194,181.882,51.591l0,0
				c2.219-0.573,2.919-2.343,3.117-3.077c0.196-0.729,0.479-2.596-1.135-4.191c-27.374-27.055-55.192-46.869-82.684-58.893
				C1923.413,1506.133,1902.387,1501.497,1881.727,1501.497z M2026.633,1586.9h0.01H2026.633z"/>
		</g>
		<g>
			<path style="fill:#FFFFFF;" d="M2046.185,1422.322c5.888-4.916,4.193-14.364-3.048-16.896
				c-66.821-23.371-140.019-29.65-195.05,14.538c-19.83,15.923-14.865,28.653,6.584,34.8
				C1893.432,1465.873,1969.538,1486.322,2046.185,1422.322z"/>
			<path d="M1927.837,1472.435c-31.617,0-58.238-7.63-74.692-12.346c-16.724-4.793-21.611-12.638-22.767-18.375
				c-1.684-8.36,3.108-17.131,14.24-26.07c26.514-21.289,58.947-32.667,96.402-33.821c31.345-0.97,66.327,5.216,103.945,18.374
				c5.3,1.854,9.063,6.257,10.065,11.779c1.005,5.533-0.976,10.99-5.296,14.598l0,0c-34.088,28.463-72.196,43.828-113.267,45.668
				C1933.556,1472.374,1930.674,1472.435,1927.837,1472.435z M1947.437,1392.805c-2.042,0-4.065,0.031-6.075,0.093
				c-34.996,1.078-65.211,11.637-89.806,31.386c-7.323,5.88-11.083,11.437-10.316,15.245c0.764,3.793,6.216,7.406,14.958,9.911
				c35.974,10.31,110.831,31.763,186.437-31.369l0,0c1.759-1.468,1.633-3.367,1.497-4.115c-0.135-0.743-0.68-2.551-2.823-3.3
				C2007.413,1398.8,1975.868,1392.805,1947.437,1392.805z"/>
		</g>
		<g>
			
				<ellipse transform="matrix(0.9704 -0.2415 0.2415 0.9704 -331.3503 386.9202)" style="fill:#FFFFFF;" cx="1412.728" cy="1545.172" rx="21.134" ry="21.134"/>
			<path d="M1412.713,1571.846c-14.07,0-25.871-11.057-26.621-25.268c-0.376-7.115,2.042-13.95,6.807-19.247
				c4.765-5.296,11.308-8.42,18.423-8.796c7.115-0.379,13.95,2.042,19.247,6.807c5.296,4.766,8.42,11.308,8.796,18.423l0,0
				c0.775,14.687-10.542,27.267-25.229,28.044C1413.659,1571.833,1413.185,1571.846,1412.713,1571.846z M1412.749,1529.577
				c-0.28,0-0.561,0.007-0.842,0.022c-4.16,0.219-7.985,2.045-10.771,5.142c-2.786,3.097-4.199,7.093-3.979,11.253
				c0.453,8.587,7.819,15.197,16.395,14.75c8.586-0.453,15.204-7.809,14.75-16.396c-0.22-4.159-2.046-7.984-5.143-10.771
				C1420.271,1530.981,1416.603,1529.577,1412.749,1529.577z"/>
		</g>
		<g>
			
				<ellipse transform="matrix(0.9532 -0.3023 0.3023 0.9532 -443.663 531.561)" style="fill:#FFFFFF;" cx="1495.616" cy="1699.233" rx="21.134" ry="21.134"/>
			<path d="M1495.583,1725.907c-6.594,0.001-12.87-2.401-17.808-6.845c-5.296-4.765-8.42-11.308-8.796-18.423
				c-0.376-7.114,2.042-13.949,6.807-19.246s11.308-8.421,18.423-8.797c7.125-0.373,13.951,2.043,19.247,6.808
				s8.42,11.308,8.796,18.423c0.376,7.114-2.042,13.949-6.807,19.246c-4.766,5.297-11.309,8.421-18.423,8.797
				C1496.541,1725.896,1496.061,1725.907,1495.583,1725.907z M1495.625,1683.639c-0.276,0-0.553,0.008-0.832,0.022
				c-4.16,0.219-7.984,2.046-10.771,5.143c-2.786,3.096-4.199,7.092-3.979,11.252s2.046,7.985,5.143,10.771
				c3.096,2.786,7.095,4.207,11.252,3.979c4.16-0.219,7.985-2.046,10.771-5.143c2.786-3.096,4.199-7.092,3.979-11.252l0,0
				C1510.749,1690.104,1503.85,1683.639,1495.625,1683.639z"/>
		</g>
		<g>
			
				<ellipse transform="matrix(0.9704 -0.2415 0.2415 0.9704 -383.7239 453.3427)" style="fill:#FFFFFF;" cx="1657.506" cy="1792.036" rx="21.134" ry="21.134"/>
			<path d="M1657.474,1818.71c-6.594,0-12.869-2.401-17.808-6.845c-5.297-4.766-8.421-11.309-8.797-18.423s2.042-13.95,6.807-19.247
				c4.766-5.296,11.309-8.42,18.424-8.797c7.101-0.372,13.949,2.042,19.246,6.808s8.421,11.309,8.797,18.423l0,0
				c0.774,14.687-10.543,27.267-25.23,28.044C1658.432,1818.698,1657.952,1818.71,1657.474,1818.71z M1657.524,1776.44
				c-0.279,0-0.56,0.007-0.841,0.022c-4.16,0.22-7.985,2.046-10.771,5.143s-4.199,7.093-3.979,11.253
				c0.219,4.159,2.046,7.984,5.143,10.771c3.096,2.785,7.087,4.208,11.252,3.979c8.586-0.453,15.203-7.81,14.75-16.396l0,0
				c-0.219-4.159-2.046-7.984-5.143-10.771C1665.049,1777.845,1661.379,1776.44,1657.524,1776.44z"/>
		</g>
		<g>
			
				<ellipse transform="matrix(0.9731 -0.2305 0.2305 0.9731 -358.8166 472.1814)" style="fill:#FFFFFF;" cx="1841.926" cy="1772.128" rx="21.134" ry="21.134"/>
			<path d="M1841.894,1798.802c-6.594,0.001-12.869-2.401-17.808-6.845c-5.297-4.766-8.421-11.309-8.797-18.423
				s2.042-13.949,6.807-19.246c4.766-5.297,11.309-8.421,18.424-8.797c7.117-0.374,13.95,2.042,19.246,6.807
				c5.297,4.766,8.421,11.31,8.797,18.424l0,0c0.375,7.114-2.042,13.95-6.808,19.246c-4.766,5.297-11.309,8.421-18.423,8.797
				C1842.852,1798.79,1842.371,1798.802,1841.894,1798.802z M1841.946,1756.533c-0.28,0-0.561,0.007-0.843,0.022
				c-4.16,0.219-7.985,2.046-10.771,5.143c-2.786,3.096-4.199,7.092-3.979,11.252c0.219,4.159,2.046,7.984,5.143,10.771
				c3.096,2.785,7.084,4.206,11.252,3.979c4.159-0.219,7.984-2.046,10.771-5.143s4.199-7.093,3.979-11.252l0,0
				c-0.219-4.16-2.046-7.985-5.143-10.771C1849.469,1757.938,1845.8,1756.533,1841.946,1756.533z"/>
		</g>
		<g>
			
				<ellipse transform="matrix(0.6688 -0.7434 0.7434 0.6688 -572.0862 2027.537)" style="fill:#FFFFFF;" cx="1989.702" cy="1655.889" rx="21.134" ry="21.134"/>
			<path d="M1989.687,1682.563c-14.069,0-25.87-11.057-26.622-25.268c-0.375-7.114,2.042-13.95,6.808-19.246
				c4.766-5.297,11.309-8.421,18.423-8.797c14.666-0.76,27.267,10.543,28.044,25.23l0,0c0.375,7.114-2.042,13.95-6.808,19.246
				c-4.766,5.297-11.309,8.421-18.423,8.797C1990.633,1682.55,1990.158,1682.563,1989.687,1682.563z M1989.71,1640.294
				c-0.275,0-0.553,0.008-0.831,0.022c-4.159,0.219-7.984,2.046-10.771,5.143s-4.199,7.093-3.979,11.252
				c0.453,8.586,7.814,15.209,16.396,14.75c4.159-0.219,7.984-2.046,10.771-5.143c2.786-3.096,4.199-7.093,3.979-11.252l0,0
				C2004.836,1646.759,1997.935,1640.294,1989.71,1640.294z"/>
		</g>
		<g>
			
				<ellipse transform="matrix(0.5324 -0.8465 0.8465 0.5324 -314.5087 2434.7744)" style="fill:#FFFFFF;" cx="2046.539" cy="1502.059" rx="21.134" ry="21.134"/>
			<path d="M2046.507,1528.733c-6.594,0-12.869-2.401-17.808-6.845c-5.297-4.766-8.421-11.309-8.797-18.423
				c-0.774-14.687,10.543-27.267,25.23-28.043c7.118-0.371,13.95,2.042,19.246,6.807c5.297,4.765,8.421,11.308,8.797,18.423
				c0.375,7.115-2.042,13.95-6.808,19.247c-4.765,5.297-11.308,8.421-18.423,8.797
				C2047.465,1528.722,2046.984,1528.733,2046.507,1528.733z M2046.558,1486.464c-0.279,0-0.56,0.007-0.841,0.022
				c-8.587,0.454-15.204,7.809-14.75,16.396c0.219,4.159,2.046,7.984,5.143,10.771c3.096,2.786,7.086,4.204,11.252,3.979
				c4.16-0.219,7.984-2.046,10.771-5.143s4.199-7.093,3.979-11.253c-0.219-4.159-2.046-7.984-5.143-10.77
				C2054.082,1487.869,2050.412,1486.464,2046.558,1486.464z"/>
		</g>
		<g>
			<path style="fill:#FFFFFF;" d="M1845.368,1557.031c-31.445,50.135-94.234,83.421-151.159,67.339
				c-42.005-11.863-73.88-47.787-91.591-87.725c-16.998-38.352-22.877-80.524-28.114-122.201c8.024,0.379,16.026,0.81,24.053,1.24
				c4.857,0.25,9.713,0.5,14.57,0.751c46.779,2.438,93.584,4.491,140.213,1.384c22.934-1.516,46.315-4.819,69.324-9.959
				c5.074-1.139,10.142-2.355,15.179-3.67c12.606-3.277,25.046-7.155,37.193-11.625
				C1881.228,1449.187,1875.518,1508.939,1845.368,1557.031z"/>
			<path d="M1724.207,1634.034c-10.704,0-21.256-1.439-31.503-4.334c-39.868-11.26-74.549-44.358-95.149-90.81
				c-16.774-37.848-22.853-78.439-28.546-123.756c-0.204-1.622,0.319-3.252,1.43-4.452s2.689-1.85,4.328-1.771
				c7.639,0.36,15.387,0.775,22.88,1.177l15.767,0.814c47.437,2.471,93.803,4.437,139.56,1.39
				c23.037-1.523,46.078-4.833,68.484-9.838c5.333-1.197,10.237-2.383,14.986-3.624c12.492-3.247,24.831-7.103,36.681-11.463
				c1.599-0.587,3.381-0.409,4.83,0.49c1.449,0.897,2.404,2.413,2.59,4.107c7.271,66.505-3.269,124.602-30.482,168.01
				c0,0,0,0.001-0.001,0.001c-16.304,25.994-40.581,47.506-68.359,60.57C1762.644,1629.508,1743.188,1634.034,1724.207,1634.034z
				 M1580.832,1420.299c5.362,41.801,11.485,79.433,26.851,114.101c19.26,43.427,51.347,74.276,88.033,84.638
				c25.813,7.293,53.914,4.347,81.271-8.52c25.879-12.172,48.499-32.215,63.688-56.431l0,0
				c24.928-39.763,35.102-92.862,29.557-153.922c-10.105,3.509-20.501,6.658-30.994,9.385c-4.868,1.271-9.895,2.487-15.358,3.714
				c-22.966,5.129-46.573,8.521-70.173,10.082c-46.357,3.088-93.086,1.109-140.866-1.38l-15.786-0.816
				C1591.729,1420.865,1586.276,1420.573,1580.832,1420.299z M1845.368,1557.03h0.01H1845.368z"/>
		</g>
		<g>
			<path style="fill:#FFFFFF;" d="M1823.571,1512.539c-13.082,35.689-44.697,65.632-82.386,70.69
				c-40.443,5.412-81.111-18.613-103.201-52.92c-21.383-33.206-27.427-74.374-24.855-113.874
				c46.779,2.438,93.584,4.491,140.213,1.384c22.934-1.516,46.315-4.819,69.324-9.959
				C1833.548,1441.814,1835.833,1479.17,1823.571,1512.539z"/>
			<path d="M1729.886,1589.514c-36.597,0-74.218-21.509-96.56-56.206c-19.819-30.777-28.715-71.316-25.726-117.233
				c0.196-3.025,2.818-5.32,5.815-5.172c47.434,2.472,93.799,4.438,139.557,1.39c23.037-1.523,46.078-4.833,68.485-9.838
				c2.789-0.623,5.607,0.986,6.482,3.715c8.633,26.935,15.784,67.585,0.829,108.281c-6.915,18.863-18.498,35.832-33.498,49.073
				c-15.764,13.915-34.212,22.627-53.351,25.195C1737.938,1589.252,1733.915,1589.514,1729.886,1589.514z M1618.359,1422.251
				c-1.31,29.996,2.246,70.838,24.281,105.058c22.523,34.979,61.839,55.238,97.809,50.429c33.543-4.501,64.857-31.469,77.92-67.105
				c0.001-0.002,0.001-0.003,0.002-0.005c10.336-28.126,10.481-62.137,0.492-96.272c-21.378,4.521-43.27,7.543-65.157,8.991
				C1709.134,1426.314,1664.222,1424.601,1618.359,1422.251z"/>
		</g>
	</g>
	<g>
		<g>
			<path style="fill:#FFFFFF;" d="M2314.368,1865.926c-8.854,52.313-31.954,114.659-46.35,152.759"/>
			<path d="M2268.018,2024.226c-0.65,0-1.313-0.115-1.957-0.359c-2.862-1.081-4.306-4.277-3.224-7.14
				c11.988-31.73,36.936-97.756,46.069-151.726c0.512-3.017,3.374-5.044,6.387-4.537c3.016,0.511,5.048,3.37,4.537,6.387
				c-9.313,55.029-34.518,121.735-46.63,153.792C2272.362,2022.859,2270.255,2024.226,2268.018,2024.226z"/>
		</g>
		<g>
			<path style="fill:#FFFFFF;" d="M1988.482,2144.149c0,0-3.509-131.581-71.97-219.125"/>
			<path d="M1988.479,2149.688c-2.99,0-5.453-2.383-5.534-5.391c-0.009-0.325-0.99-33.069-10.239-75.946
				c-8.491-39.359-25.889-95.583-60.557-139.914c-1.885-2.409-1.459-5.891,0.951-7.775c2.409-1.885,5.893-1.459,7.775,0.951
				c19.878,25.418,46.894,71.145,62.71,144.638c9.435,43.837,10.397,76.387,10.434,77.751c0.082,3.058-2.33,5.603-5.389,5.685
				C1988.58,2149.687,1988.529,2149.688,1988.479,2149.688z"/>
		</g>
		<g>
			<path style="fill:#FFFFFF;" d="M2102.223,2708.506c14.998,28.639,32.04,55.937,51.417,81.399
				c23.837,2.364,61.229-4.663,88.085-21.817c-8.253-23.761-15.465-46.951-21.682-69.635
				C2184.248,2683.551,2135.53,2688.392,2102.223,2708.506z"/>
			<path d="M2163.197,2795.887c-3.6,0-6.986-0.16-10.104-0.469c-1.53-0.152-2.93-0.934-3.861-2.158
				c-18.888-24.817-36.354-52.468-51.917-82.184c-1.358-2.595-0.463-5.799,2.044-7.313c35.523-21.451,86.027-25.737,122.813-10.426
				c1.576,0.656,2.763,2.003,3.214,3.65c6.18,22.549,13.438,45.858,21.572,69.282c0.841,2.423-0.091,5.105-2.252,6.485
				C2219.086,2789.122,2186.631,2795.887,2163.197,2795.887z M2156.565,2784.592c21.311,1.465,53.664-4.451,78.47-18.91
				c-7.312-21.315-13.895-42.51-19.602-63.107c-31.94-12.249-74.285-8.948-105.808,8.079
				C2123.85,2737.257,2139.618,2762.098,2156.565,2784.592z"/>
		</g>
	</g>
	<g>
		<g>
			<path style="fill:#FFFFFF;" d="M1551.299,1895.219c10.385,34.452,14.589,68.529,11.966,98.436
				c-3.972,45.298-14.938,84.691-31.672,120.387"/>
			<path d="M1531.589,2119.583c-0.787,0-1.587-0.169-2.348-0.525c-2.77-1.299-3.963-4.597-2.664-7.367
				c17.197-36.681,27.393-75.448,31.17-118.52c2.549-29.073-1.515-62.393-11.751-96.354c-0.883-2.929,0.775-6.02,3.705-6.902
				c2.932-0.886,6.019,0.776,6.902,3.705c10.64,35.297,14.852,70.056,12.181,100.519c-3.894,44.388-14.418,84.377-32.176,122.255
				C1535.666,2118.403,1533.671,2119.583,1531.589,2119.583z"/>
		</g>
		<g>
			<path style="fill:#FFFFFF;" d="M1324.122,2753.97c-17.394,23.82-66.364,42.516-94.836,32.129
				c-11.439-19.499-28.279-48.36-46.92-81.043c35.896-16.674,75.033-26.396,114.557-28.667
				C1304.235,2703.893,1313.431,2730.094,1324.122,2753.97z"/>
			<path d="M1247.887,2794.602c-7.311,0-14.274-1.027-20.5-3.299c-1.209-0.441-2.228-1.29-2.879-2.401
				c-16.888-28.786-32.247-55.314-46.954-81.102c-0.768-1.346-0.937-2.951-0.465-4.428c0.471-1.477,1.539-2.688,2.944-3.341
				c36.121-16.778,76.431-26.866,116.573-29.173c2.631-0.144,4.996,1.565,5.671,4.107c7.237,27.22,16.288,53.039,26.901,76.74
				c0.813,1.814,0.59,3.925-0.582,5.53C1314.075,2777.122,1278.031,2794.602,1247.887,2794.602z M1233.016,2781.508
				c25.706,7.881,68.034-8.772,84.689-28.346c-9.703-22.103-18.082-45.934-24.947-70.952
				c-35.245,2.551-70.489,11.277-102.563,25.386C1203.657,2731.148,1217.71,2755.405,1233.016,2781.508z"/>
		</g>
	</g>
</g>

    <text x="10" y="832" font-size="12" fill="gray" opacity="0.6" font-family="Arial, sans-serif">
      twoja-kolorowanka.pl
    </text>
  
</svg>
