<?xml version="1.0" encoding="utf-8"?>
<!-- Generator: Adobe Illustrator 27.5.0, SVG Export Plug-In . SVG Version: 6.00 Build 0)  -->
<svg xmlns="http://www.w3.org/2000/svg" xmlns:xlink="http://www.w3.org/1999/xlink" viewBox="0 0 3800 5000" width="595" height="842" preserveAspectRatio="xMidYMid meet" data-scaled="true">
<rect style="fill:#FFFFFF;" width="3800" height="5000"/>
<rect x="-339.077" y="820.958" transform="matrix(-1.836970e-16 1 -1 -1.836970e-16 4399.645 600.355)" style="fill:none;stroke:#1D1D1B;stroke-width:10;stroke-linecap:round;stroke-linejoin:round;stroke-miterlimit:10;" width="4477.444" height="3358.083"/>
<g>
	
		<ellipse transform="matrix(0.7071 -0.7071 0.7071 0.7071 168.6651 2369.2717)" style="fill:none;stroke:#1D1D1B;stroke-width:6.1632;stroke-linecap:round;stroke-linejoin:round;stroke-miterlimit:10;" cx="2944.296" cy="981.039" rx="151.877" ry="151.877"/>
	<path style="fill:none;stroke:#1D1D1B;stroke-width:6.1632;stroke-linecap:round;stroke-linejoin:round;stroke-miterlimit:10;" d="
		M3410.292,1298.457c-198.14-134.965-360.242-194.637-282.014-103.812c-78.229-90.824-43.238,78.331,60.874,294.284
		c-104.112-215.953-214.661-348.682-192.325-230.911c-22.335-117.77-76.611,46.218-94.424,285.294
		c17.813-239.077-11.561-409.297-51.103-296.137c39.542-113.16-89.456,1.72-224.421,199.86
		c134.965-198.14,194.637-360.242,103.813-282.014c90.824-78.228-78.331-43.238-294.284,60.873
		c215.953-104.112,348.682-214.661,230.911-192.325c117.771-22.336-46.218-76.611-285.294-94.424
		c239.077,17.813,409.297-11.561,296.137-51.103c113.16,39.542-1.72-89.456-199.86-224.421
		c198.14,134.965,360.242,194.637,282.014,103.812c78.229,90.824,43.238-78.331-60.873-294.284
		c104.112,215.953,214.66,348.681,192.325,230.911c22.336,117.77,76.611-46.218,94.424-285.294
		c-17.813,239.077,11.561,409.297,51.103,296.137c-39.542,113.16,89.456-1.72,224.421-199.86
		c-134.965,198.14-194.637,360.242-103.813,282.014c-90.824,78.229,78.331,43.238,294.284-60.873
		c-215.953,104.112-348.681,214.661-230.911,192.325c-117.771,22.336,46.218,76.611,285.294,94.424
		c-239.077-17.813-409.297,11.561-296.137,51.103C3097.272,1034.494,3212.152,1163.492,3410.292,1298.457z"/>
	<g>
		<g>
			<g>
				
					<path style="fill:none;stroke:#1D1D1B;stroke-width:6.1632;stroke-linecap:round;stroke-linejoin:round;stroke-miterlimit:10;" d="
					M1892.071,3857.292c-44.046,5.496-81.119,36-99.476,76.413c-18.357,40.413-15.585,90.712,10.463,126.653
					c16.986,23.438,42.941,39.97,71.135,46.525c28.194,6.555,58.404,3.29,85.005-8.126c27.623-11.854,51.54-32.601,66.185-58.851
					s19.718-57.921,12.899-87.197c-6.983-29.98-26.142-56.556-51.17-74.478C1962.083,3860.312,1922.617,3853.481,1892.071,3857.292z
					"/>
				
					<path style="fill:none;stroke:#1D1D1B;stroke-width:6.1632;stroke-linecap:round;stroke-linejoin:round;stroke-miterlimit:10;" d="
					M1919.922,3853.83c-11.776-50-16.325-102.252-7.601-152.874c8.724-50.622,31.359-99.606,68.36-135.238
					c37.001-35.631,88.985-56.756,140.104-51.695c68.318,6.763,127.012,60.386,149.363,125.298
					c22.351,64.912,11.577,138.283-19.37,199.563"/>
				
					<path style="fill:none;stroke:#1D1D1B;stroke-width:6.1632;stroke-linecap:round;stroke-linejoin:round;stroke-miterlimit:10;" d="
					M2018.138,3907.877c47.871-29.885,106.335-58.833,162.479-64.542c56.145-5.709,116.952,11.243,153.334,54.384
					c42.707,50.641,42.739,128.664,10.485,186.526s-103.401,100.287-182.4,100.287"/>
				
					<path style="fill:none;stroke:#1D1D1B;stroke-width:6.1632;stroke-linecap:round;stroke-linejoin:round;stroke-miterlimit:10;" d="
					M2019.957,4057.051c33.914,22.235,68.035,44.634,97.407,72.595c29.372,27.961,54.036,62.102,64.797,101.201
					c13.029,47.338,4.792,98.085-10.05,144.887c-15.883,50.084-41.576,81.919-86.573,109.05
					c-39.853,24.03-90.961,26.16-134.596,9.982s-79.842-30.852-104.239-70.481c-24.398-39.628-37.565-85.426-43.215-131.619"/>
				
					<path style="fill:none;stroke:#1D1D1B;stroke-width:6.1632;stroke-linecap:round;stroke-linejoin:round;stroke-miterlimit:10;" d="
					M1781.892,4005.688c-66.394-8.608-136.764-30.109-184.621-76.929c-55.928-54.717-77.365-142.01-53.144-216.409
					s92.94-132.342,170.362-143.646c77.422-11.304,162.132,27.596,206.614,91.964"/>
				
					<path style="fill:none;stroke:#1D1D1B;stroke-width:6.1632;stroke-linecap:round;stroke-linejoin:round;stroke-miterlimit:10;" d="
					M1607.356,3938.835c-31.86,2.891-63.731,17.219-84.551,41.508c-20.819,24.29-33.566,54.698-40.659,85.893
					c-13.141,57.79-7.04,120.71,21.829,172.469c28.87,51.758,81.438,90.934,140.196,98.674
					c62.531,8.238,126.413-19.288,171.351-63.545c44.938-44.257,72.607-102.648,88.809-163.604"/>
			</g>
			
				<path style="fill:none;stroke:#1D1D1B;stroke-width:6.1632;stroke-linecap:round;stroke-linejoin:round;stroke-miterlimit:10;" d="
				M1952.736,3860.547c-0.999-47.26,2.478-95.381,19.032-139.658c16.554-44.277,47.484-84.641,90.242-104.795
				c42.758-20.154,97.742-16.799,133.101,14.574c28.125,24.954,40.848,64.136,39.846,101.723
				c-1.002,37.586-14.364,73.856-31.507,107.32"/>
			
				<path style="fill:none;stroke:#1D1D1B;stroke-width:6.1632;stroke-linecap:round;stroke-linejoin:round;stroke-miterlimit:10;" d="
				M2040.056,3940.147c31.191-15.238,62.625-30.568,96.161-39.536c33.536-8.968,69.709-11.263,102.681-0.402
				c32.972,10.861,62.178,36.294,71.998,69.591c7.346,24.91,3.509,52.089-6.014,76.252c-25.07,63.613-91.6,108.484-159.972,107.893"
				/>
			
				<path style="fill:none;stroke:#1D1D1B;stroke-width:6.1632;stroke-linecap:round;stroke-linejoin:round;stroke-miterlimit:10;" d="
				M1632.298,3955.645c-44.936,29.209-79.93,74.869-91.87,127.117c-11.94,52.248,0.759,110.552,36.836,150.186
				c36.077,39.633,95.637,57.688,146.44,40.617c35.469-11.919,64.258-39.002,85.088-70.085
				c20.83-31.084,34.582-66.265,48.171-101.128"/>
			
				<path style="fill:none;stroke:#1D1D1B;stroke-width:6.1632;stroke-linecap:round;stroke-linejoin:round;stroke-miterlimit:10;" d="
				M1783.872,3959.511c-36.253-17.552-72.034-36.856-102.943-62.684c-30.908-25.828-56.911-58.723-69.253-97.065
				c-12.342-38.342-9.777-82.431,11.958-116.342c30.113-46.982,92.55-66.464,147.398-56.179
				c54.848,10.285,102.236,45.744,138.603,88.07"/>
			
				<path style="fill:none;stroke:#1D1D1B;stroke-width:6.1632;stroke-linecap:round;stroke-linejoin:round;stroke-miterlimit:10;" d="
				M1840.886,4249.127c7.783,33.114,15.625,66.414,28.876,97.744s32.312,60.891,59.128,81.82
				c26.816,20.929,62.044,32.44,95.487,26.222c34.588-6.431,64.135-31.351,80.845-62.311c16.709-30.959,21.537-67.321,18.727-102.39
				c-6.854-85.526-60.365-165.863-136.645-205.146"/>
			
				<path style="fill:none;stroke:#1D1D1B;stroke-width:6.1632;stroke-linecap:round;stroke-linejoin:round;stroke-miterlimit:10;" d="
				M1954.747,3856.561c0.825-11.712,1.677-23.563,5.318-34.725s10.421-21.744,20.608-27.582c10.187-5.838,24.071-5.945,33.015,1.662
				c11.834,10.064,11.184,28.343,8.259,43.6c5.099-9.593,19.117-12.145,28.349-6.418c9.232,5.727,13.385,17.707,11.718,28.442
				c-1.667,10.735-8.326,20.187-16.53,27.309c-8.204,7.122-17.933,12.215-27.565,17.241"/>
			
				<path style="fill:none;stroke:#1D1D1B;stroke-width:6.1632;stroke-linecap:round;stroke-linejoin:round;stroke-miterlimit:10;" d="
				M2042.337,3940.938c14.735-10.338,34.645-13.647,51.332-6.899s29.031,24.068,28.247,42.052
				c-0.784,17.983-15.836,34.758-33.8,35.894c13.14-2.398,26.2,9.524,27.25,22.84s-8.021,26.106-20.021,31.974
				c-12,5.868-26.25,5.664-39.151,2.204c-12.901-3.46-24.758-9.933-36.474-16.348"/>
			
				<path style="fill:none;stroke:#1D1D1B;stroke-width:6.1632;stroke-linecap:round;stroke-linejoin:round;stroke-miterlimit:10;" d="
				M1903.158,4115.589c-8.592,20.701-8.047,45.007,1.465,65.302c5.643,12.041,16.89,23.761,30.057,21.909
				c10.297-1.448,17.881-11.112,20.232-21.241c2.351-10.129,0.568-20.706-1.221-30.949c7.747,15.355,28.177,24.933,43.078,16.343
				c13.447-7.751,16.857-26.611,11.777-41.278c-5.08-14.667-16.503-26.098-27.571-36.979"/>
			
				<path style="fill:none;stroke:#1D1D1B;stroke-width:6.1632;stroke-linecap:round;stroke-linejoin:round;stroke-miterlimit:10;" d="
				M1776.217,4007.669c-13.18-0.991-26.898-1.132-39.044,4.081c-12.146,5.213-22.322,17.066-21.73,30.27
				c0.563,12.548,10.626,23.071,22.179,28c11.553,4.929,24.451,5.366,37.006,5.731c-9.21,11.313-10.854,28.23-3.994,41.105
				c6.86,12.874,21.819,20.945,36.346,19.609c20.998-1.931,36.003-20.471,48.45-37.491"/>
			
				<path style="fill:none;stroke:#1D1D1B;stroke-width:6.1632;stroke-linecap:round;stroke-linejoin:round;stroke-miterlimit:10;" d="
				M1780.801,3957.844c-18.201-11.935-36.901-24.354-49.01-42.441c-12.109-18.086-16.035-43.488-3.543-61.311
				c10.082-14.384,29.045-20.87,46.504-18.94c17.459,1.93,33.421,11.218,46.469,22.977c-15.151-15.93-11.902-44.518,4.928-58.662
				s43.325-13.604,61.319-0.973c17.994,12.631,27.448,35.377,26.767,57.351"/>
			
				<path style="fill:none;stroke:#1D1D1B;stroke-width:6.1632;stroke-linecap:round;stroke-linejoin:round;stroke-miterlimit:10;" d="
				M2106.362,4088.555c19.193,12.097,38.385,24.194,57.577,36.291"/>
			
				<path style="fill:none;stroke:#1D1D1B;stroke-width:6.1632;stroke-linecap:round;stroke-linejoin:round;stroke-miterlimit:10;" d="
				M2144.248,4019.746c22.281,4.41,44.563,8.819,66.844,13.229"/>
			
				<path style="fill:none;stroke:#1D1D1B;stroke-width:6.1632;stroke-linecap:round;stroke-linejoin:round;stroke-miterlimit:10;" d="
				M2135.852,3933.978c15.288-4.6,30.576-9.2,45.864-13.8"/>
			
				<path style="fill:none;stroke:#1D1D1B;stroke-width:6.1632;stroke-linecap:round;stroke-linejoin:round;stroke-miterlimit:10;" d="
				M1996.235,3767.677c5.544-22.632,15.936-44.063,30.272-62.432"/>
			
				<path style="fill:none;stroke:#1D1D1B;stroke-width:6.1632;stroke-linecap:round;stroke-linejoin:round;stroke-miterlimit:10;" d="
				M2050.579,3813.952c21.203-26.939,42.406-53.878,63.609-80.817"/>
			
				<path style="fill:none;stroke:#1D1D1B;stroke-width:6.1632;stroke-linecap:round;stroke-linejoin:round;stroke-miterlimit:10;" d="
				M2099.523,3838.028c11.368-7.402,22.735-14.804,34.103-22.206"/>
			
				<path style="fill:none;stroke:#1D1D1B;stroke-width:6.1632;stroke-linecap:round;stroke-linejoin:round;stroke-miterlimit:10;" d="
				M1885.165,4212.61c-3.464,27.396-6.927,54.792-10.391,82.188"/>
			
				<path style="fill:none;stroke:#1D1D1B;stroke-width:6.1632;stroke-linecap:round;stroke-linejoin:round;stroke-miterlimit:10;" d="
				M1962.181,4202.023c10.4,25.5,20.799,50.999,31.199,76.499"/>
			
				<path style="fill:none;stroke:#1D1D1B;stroke-width:6.1632;stroke-linecap:round;stroke-linejoin:round;stroke-miterlimit:10;" d="
				M2031.729,4153.747c8.922,16.476,17.843,32.951,26.764,49.426"/>
			
				<path style="fill:none;stroke:#1D1D1B;stroke-width:6.1632;stroke-linecap:round;stroke-linejoin:round;stroke-miterlimit:10;" d="
				M1807.28,4155.029c-11.773,18.758-23.546,37.517-35.32,56.276"/>
			
				<path style="fill:none;stroke:#1D1D1B;stroke-width:6.1632;stroke-linecap:round;stroke-linejoin:round;stroke-miterlimit:10;" d="
				M1744.762,4108.655c-27.214,14.798-54.428,29.596-81.643,44.394"/>
			
				<path style="fill:none;stroke:#1D1D1B;stroke-width:6.1632;stroke-linecap:round;stroke-linejoin:round;stroke-miterlimit:10;" d="
				M1647.643,4018.273c16.828-0.693,33.656-1.386,50.484-2.079"/>
			
				<path style="fill:none;stroke:#1D1D1B;stroke-width:6.1632;stroke-linecap:round;stroke-linejoin:round;stroke-miterlimit:10;" d="
				M1672.069,3840.692c7.454,8.198,14.909,16.396,22.363,24.595"/>
			
				<path style="fill:none;stroke:#1D1D1B;stroke-width:6.1632;stroke-linecap:round;stroke-linejoin:round;stroke-miterlimit:10;" d="
				M1742.316,3744.488c17.057,26.85,34.113,53.7,51.17,80.55"/>
			
				<path style="fill:none;stroke:#1D1D1B;stroke-width:6.1632;stroke-linecap:round;stroke-linejoin:round;stroke-miterlimit:10;" d="
				M1869.835,3717.12c6.652,21.911,13.304,43.822,19.956,65.732"/>
			
				<path style="fill:none;stroke:#1D1D1B;stroke-width:6.1632;stroke-linecap:round;stroke-linejoin:round;stroke-miterlimit:10;" d="
				M1798.095,3930.708c30.575,59.417,61.151,118.834,91.726,178.251"/>
			
				<path style="fill:none;stroke:#1D1D1B;stroke-width:6.1632;stroke-linecap:round;stroke-linejoin:round;stroke-miterlimit:10;" d="
				M1842.344,3878.583c35.412,73.683,70.824,147.367,106.236,221.051"/>
			
				<path style="fill:none;stroke:#1D1D1B;stroke-width:6.1632;stroke-linecap:round;stroke-linejoin:round;stroke-miterlimit:10;" d="
				M2003.421,4063.863"/>
			
				<path style="fill:none;stroke:#1D1D1B;stroke-width:6.1632;stroke-linecap:round;stroke-linejoin:round;stroke-miterlimit:10;" d="
				M1906.617,3857.695c32.604,69.411,65.208,138.822,97.812,208.233"/>
			
				<path style="fill:none;stroke:#1D1D1B;stroke-width:6.1632;stroke-linecap:round;stroke-linejoin:round;stroke-miterlimit:10;" d="
				M1783.422,3993.151c69.204-36.636,138.407-73.271,207.611-109.907"/>
			
				<path style="fill:none;stroke:#1D1D1B;stroke-width:6.1632;stroke-linecap:round;stroke-linejoin:round;stroke-miterlimit:10;" d="
				M1803.067,4055.679c73.635-42.779,147.271-85.558,220.906-128.337"/>
			
				<path style="fill:none;stroke:#1D1D1B;stroke-width:6.1632;stroke-linecap:round;stroke-linejoin:round;stroke-miterlimit:10;" d="
				M1853.892,4098.966c62.573-40.83,125.146-81.659,187.719-122.489"/>
			
				<path style="fill:none;stroke:#1D1D1B;stroke-width:6.1632;stroke-linecap:round;stroke-linejoin:round;stroke-miterlimit:10;" d="
				M2002.476,4411.141c28.655,5.787,60.22-7.689,75.86-32.387"/>
			
				<path style="fill:none;stroke:#1D1D1B;stroke-width:6.1632;stroke-linecap:round;stroke-linejoin:round;stroke-miterlimit:10;" d="
				M2272.453,3983.954c12.113,24.107,9.136,55.042-7.35,76.398"/>
			
				<path style="fill:none;stroke:#1D1D1B;stroke-width:6.1632;stroke-linecap:round;stroke-linejoin:round;stroke-miterlimit:10;" d="
				M2136.697,3649.693c22.566,2.176,43.203,18.271,50.81,39.627"/>
			
				<path style="fill:none;stroke:#1D1D1B;stroke-width:6.1632;stroke-linecap:round;stroke-linejoin:round;stroke-miterlimit:10;" d="
				M1651.598,3726.037c6.712-33.821,36.193-61.882,70.304-66.916"/>
			
				<path style="fill:none;stroke:#1D1D1B;stroke-width:6.1632;stroke-linecap:round;stroke-linejoin:round;stroke-miterlimit:10;" d="
				M1580.129,4135.016c2.479,33.575,24.601,64.975,55.381,78.612"/>
		</g>
		
			<path style="fill:none;stroke:#1D1D1B;stroke-width:6.1632;stroke-linecap:round;stroke-linejoin:round;stroke-miterlimit:10;" d="
			M999.142,4237.832c-61.499,2.441-183.39-33.934-220.106-81.542c-18.967-24.593-34.263-53.331-36.303-84.321
			c-2.04-30.99,11.515-64.293,38.681-79.347"/>
		
			<path style="fill:none;stroke:#1D1D1B;stroke-width:6.1632;stroke-linecap:round;stroke-linejoin:round;stroke-miterlimit:10;" d="
			M1061.589,4213.628c-68.641-24.417-144-51.196-198.382-99.677c-54.382-48.481-94.025-117.469-93.355-190.321
			s48.606-146.718,119.301-164.329"/>
		
			<path style="fill:none;stroke:#1D1D1B;stroke-width:6.1632;stroke-linecap:round;stroke-linejoin:round;stroke-miterlimit:10;" d="
			M1123.528,4190.124c-98.031-41.249-152.475-110.258-188.781-187.357c-36.306-77.099-49.365-164.964-37.051-249.289
			c6.778-46.416,22.07-93.408,54.562-127.24c32.492-33.832,85.116-51.222,128.12-32.487"/>
		
			<path style="fill:none;stroke:#1D1D1B;stroke-width:6.1632;stroke-linecap:round;stroke-linejoin:round;stroke-miterlimit:10;" d="
			M1184.886,4180.854c-117.978-132.793-174.052-329.454-136.26-503.019c9.336-42.876,24.031-85.35,49.981-120.735
			c25.95-35.385,64.263-63.192,107.666-69.652c43.403-6.46,106.496,21.06,129.669,58.323"/>
		
			<path style="fill:none;stroke:#1D1D1B;stroke-width:6.1632;stroke-linecap:round;stroke-linejoin:round;stroke-miterlimit:10;" d="
			M1266.661,4199.031c-74.019-164.271-81.96-366.567-10.468-531.953c19.337-44.733,44.233-87.935,79.749-121.306
			c35.516-33.37,82.724-56.204,131.446-55.154c48.722,1.05,97.838,28.936,117.09,73.705"/>
		
			<path style="fill:none;stroke:#1D1D1B;stroke-width:6.1632;stroke-linecap:round;stroke-linejoin:round;stroke-miterlimit:10;" d="
			M1389.023,4252.408c-95.441-161.933-95.746-367.749-6.32-533.079c27.662-51.141,64.835-98.999,115.331-127.821
			s115.975-35.711,166.603-7.12"/>
		
			<path style="fill:none;stroke:#1D1D1B;stroke-width:6.1632;stroke-linecap:round;stroke-linejoin:round;stroke-miterlimit:10;" d="
			M1472.632,4270.832c-42.088-65.942-64.752-151.496-48.06-227.923s64.644-145.539,130.392-187.929"/>
		
			<path style="fill:none;stroke:#1D1D1B;stroke-width:6.1632;stroke-linecap:round;stroke-linejoin:round;stroke-miterlimit:10;" d="
			M252.499,4243.741c66.521,51.803,156.518,72.145,238.852,53.988c66.881-14.749,134.091-53.413,199.593-33.41
			c28.878,8.818,53.777,28.498,83.171,35.404c39.286,9.23,79.788-5.596,117.416-20.18c59.295-22.983,118.59-45.966,177.886-68.949
			c40.888-15.848,83.339-31.959,127.121-29.486c70.503,3.983,129.04,54.591,196.263,76.214
			c45.454,14.621,88.323,15.564,136.061,16.491"/>
		
			<path style="fill:none;stroke:#1D1D1B;stroke-width:6.1632;stroke-linecap:round;stroke-linejoin:round;stroke-miterlimit:10;" d="
			M887.828,4183.499c34.192,25.462,74.323,42.898,116.268,50.514"/>
		
			<path style="fill:none;stroke:#1D1D1B;stroke-width:6.1632;stroke-linecap:round;stroke-linejoin:round;stroke-miterlimit:10;" d="
			M980.393,4211.933c13.452,7.289,28.226,12.127,43.384,14.209"/>
		
			<path style="fill:none;stroke:#1D1D1B;stroke-width:6.1632;stroke-linecap:round;stroke-linejoin:round;stroke-miterlimit:10;" d="
			M913.83,4085.702c48.748,48.916,105.948,89.386,168.3,119.074"/>
		
			<path style="fill:none;stroke:#1D1D1B;stroke-width:6.1632;stroke-linecap:round;stroke-linejoin:round;stroke-miterlimit:10;" d="
			M1063.698,4184.406c9.895,4.958,19.789,9.917,29.683,14.875"/>
		
			<path style="fill:none;stroke:#1D1D1B;stroke-width:6.1632;stroke-linecap:round;stroke-linejoin:round;stroke-miterlimit:10;" d="
			M992.25,4028.703c31.301,64.989,83.222,119.855,146.388,154.689"/>
		
			<path style="fill:none;stroke:#1D1D1B;stroke-width:6.1632;stroke-linecap:round;stroke-linejoin:round;stroke-miterlimit:10;" d="
			M1100.262,4137.667c14.704,16.221,29.409,32.441,44.113,48.662"/>
		
			<path style="fill:none;stroke:#1D1D1B;stroke-width:6.1632;stroke-linecap:round;stroke-linejoin:round;stroke-miterlimit:10;" d="
			M1120.064,3991.332c19.573,73.35,59.318,141.21,113.717,194.163"/>
		
			<path style="fill:none;stroke:#1D1D1B;stroke-width:6.1632;stroke-linecap:round;stroke-linejoin:round;stroke-miterlimit:10;" d="
			M1194.22,4102.953c12.254,31.564,30.224,60.9,52.776,86.156"/>
		
			<path style="fill:none;stroke:#1D1D1B;stroke-width:6.1632;stroke-linecap:round;stroke-linejoin:round;stroke-miterlimit:10;" d="
			M1245.145,3955.654c3.53,91.009,27.375,181.173,69.298,262.028"/>
		
			<path style="fill:none;stroke:#1D1D1B;stroke-width:6.1632;stroke-linecap:round;stroke-linejoin:round;stroke-miterlimit:10;" d="
			M1291.372,4120.259c12.355,35.775,24.71,71.55,37.066,107.325"/>
		
			<path style="fill:none;stroke:#1D1D1B;stroke-width:6.1632;stroke-linecap:round;stroke-linejoin:round;stroke-miterlimit:10;" d="
			M1349.859,3982.096c8.716,98.436,36.115,195.186,80.308,283.575c-0.21-1.071-0.42-2.142-0.63-3.213"/>
		
			<path style="fill:none;stroke:#1D1D1B;stroke-width:6.1632;stroke-linecap:round;stroke-linejoin:round;stroke-miterlimit:10;" d="
			M1403.769,4155.203c15.733,37.973,31.467,75.946,47.2,113.918"/>
		
			<path style="fill:none;stroke:#1D1D1B;stroke-width:6.1632;stroke-linecap:round;stroke-linejoin:round;stroke-miterlimit:10;" d="
			M1443.092,4090.514c5.233,61.638,22.055,122.272,49.328,177.795"/>
		
			<path style="fill:none;stroke:#1D1D1B;stroke-width:6.1632;stroke-linecap:round;stroke-linejoin:round;stroke-miterlimit:10;" d="
			M1100.227,3604.686c11.764-39.797,47.18-71.594,88.011-79.016"/>
		
			<path style="fill:none;stroke:#1D1D1B;stroke-width:6.1632;stroke-linecap:round;stroke-linejoin:round;stroke-miterlimit:10;" d="
			M1316.023,3609.182c9.195-26.078,30.329-47.675,56.202-57.432"/>
		
			<path style="fill:none;stroke:#1D1D1B;stroke-width:6.1632;stroke-linecap:round;stroke-linejoin:round;stroke-miterlimit:10;" d="
			M1422.93,3701.506c17.243-32.806,45.12-59.913,78.395-76.231"/>
		
			<path style="fill:none;stroke:#1D1D1B;stroke-width:6.1632;stroke-linecap:round;stroke-linejoin:round;stroke-miterlimit:10;" d="
			M926.427,3762.367c-6.161-11.303-3.132-25.303,1.21-37.422c10.661-29.756,28.458-56.927,51.475-78.591"/>
		
			<path style="fill:none;stroke:#1D1D1B;stroke-width:6.1632;stroke-linecap:round;stroke-linejoin:round;stroke-miterlimit:10;" d="
			M813.139,3969.729c-17.265-29.212-16.335-68.22,2.303-96.576"/>
		
			<path style="fill:none;stroke:#1D1D1B;stroke-width:6.1632;stroke-linecap:round;stroke-linejoin:round;stroke-miterlimit:10;" d="
			M764.076,4060.991c-4.233,15.112,1.845,32.558,14.551,41.769"/>
	</g>
	<g>
		<g>
			<g>
				<g>
					
						<path style="fill:none;stroke:#1D1D1B;stroke-width:6.1632;stroke-linecap:round;stroke-linejoin:round;stroke-miterlimit:10;" d="
						M1587.145,2447.688c80.06-8.012,176.33-12.696,279.811-12.696c71.925,0,140.337,2.219,202.277,6.286"/>
					
						<path style="fill:none;stroke:#1D1D1B;stroke-width:6.1632;stroke-linecap:round;stroke-linejoin:round;stroke-miterlimit:10;" d="
						M2121.868,2445.346c149.458,13.128,249.858,37.473,249.858,65.392c0,32.665-137.563,60.523-330.473,71.124
						c-18.366,1.048-37.288,1.911-56.579,2.589c-37.781,1.356-77.164,2.095-117.718,2.095c-75.808,0-147.733-2.527-212.2-7.026
						c-39.137-2.712-75.5-6.163-108.35-10.231c-112.479-13.929-184.219-34.946-184.219-58.551
						c0-19.353,48.196-36.979,127.579-50.292"/>
					
						<path style="fill:none;stroke:#1D1D1B;stroke-width:6.1632;stroke-linecap:round;stroke-linejoin:round;stroke-miterlimit:10;" d="
						M1478.426,2438.566c-113.712,22.989-184.897,55.962-184.897,92.633c0,69.521,256.76,125.915,573.428,125.915
						s573.366-56.394,573.366-125.915c0-48.135-122.895-89.983-303.478-111.123"/>
					
						<path style="fill:none;stroke:#1D1D1B;stroke-width:6.1632;stroke-linecap:round;stroke-linejoin:round;stroke-miterlimit:10;" d="
						M1574.387,2422.85c85.669-11.217,185.698-17.627,292.569-17.627c77.164,0,150.753,3.328,217.932,9.43"/>
					
						<path style="fill:none;stroke:#1D1D1B;stroke-width:6.1632;stroke-linecap:round;stroke-linejoin:round;stroke-miterlimit:10;" d="
						M2440.323,2531.2c0,0,88.627,189.273,214.912,337.067c0,0-23.174,415.464-404.309,731.083"/>
					
						<path style="fill:none;stroke:#1D1D1B;stroke-width:6.1632;stroke-linecap:round;stroke-linejoin:round;stroke-miterlimit:10;" d="
						M1293.529,2531.2c0,0-88.627,189.273-214.912,337.067c0,0,19.106,342.491,307.915,641.778"/>
					
						<path style="fill:none;stroke:#1D1D1B;stroke-width:6.1632;stroke-linecap:round;stroke-linejoin:round;stroke-miterlimit:10;" d="
						M1078.628,2868.292c51.093,84.619,153.46,133.925,251.303,147.982c97.843,14.057,201.317-17.925,274.165-84.738
						c60.666,73.171,152.122,119.949,246.958,126.314c94.836,6.365,209.83-53.142,269.516-122.605
						c162.465,80.041,397.639,70.115,532.351-66.401"/>
					
						<path style="fill:none;stroke:#1D1D1B;stroke-width:6.1632;stroke-linecap:round;stroke-linejoin:round;stroke-miterlimit:10;" d="
						M2480.944,2689.164c12.285,19.956,24.57,39.911,36.855,59.867"/>
					
						<path style="fill:none;stroke:#1D1D1B;stroke-width:6.1632;stroke-linecap:round;stroke-linejoin:round;stroke-miterlimit:10;" d="
						M2531.671,2768.125c33.133,39.483,66.267,78.967,99.4,118.45"/>
					
						<path style="fill:none;stroke:#1D1D1B;stroke-width:6.1632;stroke-linecap:round;stroke-linejoin:round;stroke-miterlimit:10;" d="
						M2496.989,2772.315c7.394,10.159,14.788,20.317,22.182,30.476"/>
					
						<path style="fill:none;stroke:#1D1D1B;stroke-width:6.1632;stroke-linecap:round;stroke-linejoin:round;stroke-miterlimit:10;" d="
						M2533.15,2825.398c22.277,27.454,44.553,54.909,66.83,82.363"/>
					
						<path style="fill:none;stroke:#1D1D1B;stroke-width:6.1632;stroke-linecap:round;stroke-linejoin:round;stroke-miterlimit:10;" d="
						M2525.655,2861.087c18.094,20.261,36.189,40.522,54.283,60.784"/>
					
						<path style="fill:none;stroke:#1D1D1B;stroke-width:6.1632;stroke-linecap:round;stroke-linejoin:round;stroke-miterlimit:10;" d="
						M1791.428,3006.734c44.618,26.911,103.271,28.817,149.542,4.859"/>
					
						<path style="fill:none;stroke:#1D1D1B;stroke-width:6.1632;stroke-linecap:round;stroke-linejoin:round;stroke-miterlimit:10;" d="
						M1316.619,2521.254c2.88,20.059,19.172,37.492,38.991,41.72"/>
					
						<path style="fill:none;stroke:#1D1D1B;stroke-width:6.1632;stroke-linecap:round;stroke-linejoin:round;stroke-miterlimit:10;" d="
						M1341.063,2535.829c4.071,3.68,8.141,7.36,12.212,11.04"/>
					
						<path style="fill:none;stroke:#1D1D1B;stroke-width:6.1632;stroke-linecap:round;stroke-linejoin:round;stroke-miterlimit:10;" d="
						M2271.106,2604.597c45.772-5.908,90.015-23.317,127.54-50.186c6.667-4.774,13.252-9.977,17.702-16.864
						c4.449-6.887,6.48-15.803,3.448-23.422"/>
					
						<path style="fill:none;stroke:#1D1D1B;stroke-width:6.1632;stroke-linecap:round;stroke-linejoin:round;stroke-miterlimit:10;" d="
						M2332.125,2572.832c14.014-4.203,26.623-12.958,35.458-24.62"/>
					
						<path style="fill:none;stroke:#1D1D1B;stroke-width:6.1632;stroke-linecap:round;stroke-linejoin:round;stroke-miterlimit:10;" d="
						M1712.785,2682.556c111.04,6.519,222.751,1.563,332.777-14.765"/>
					
						<path style="fill:none;stroke:#1D1D1B;stroke-width:6.1632;stroke-linecap:round;stroke-linejoin:round;stroke-miterlimit:10;" d="
						M1817.14,2700.93c40.903-1.596,81.807-3.193,122.71-4.789"/>
					
						<path style="fill:none;stroke:#1D1D1B;stroke-width:6.1632;stroke-linecap:round;stroke-linejoin:round;stroke-miterlimit:10;" d="
						M1856.405,2714.112c5.321,0.537,10.642,1.075,15.964,1.612"/>
					
						<path style="fill:none;stroke:#1D1D1B;stroke-width:6.1632;stroke-linecap:round;stroke-linejoin:round;stroke-miterlimit:10;" d="
						M1108.757,2913.848c25.189,127.362,73.448,250.124,141.732,360.545"/>
					
						<path style="fill:none;stroke:#1D1D1B;stroke-width:6.1632;stroke-linecap:round;stroke-linejoin:round;stroke-miterlimit:10;" d="
						M1136.822,2934.8c14.841,58.788,35.946,128.033,61.071,185.107"/>
					
						<path style="fill:none;stroke:#1D1D1B;stroke-width:6.1632;stroke-linecap:round;stroke-linejoin:round;stroke-miterlimit:10;" d="
						M1208.724,3144.222c7.047,16.23,14.094,32.46,21.14,48.69"/>
					
						<path style="fill:none;stroke:#1D1D1B;stroke-width:6.1632;stroke-linecap:round;stroke-linejoin:round;stroke-miterlimit:10;" d="
						M1267.812,3308.194c5.958,10.369,11.916,20.738,17.874,31.107"/>
					
						<path style="fill:none;stroke:#1D1D1B;stroke-width:6.1632;stroke-linecap:round;stroke-linejoin:round;stroke-miterlimit:10;" d="
						M1265.111,3245.014c5.228,8.712,10.455,17.425,15.682,26.137"/>
					
						<path style="fill:none;stroke:#1D1D1B;stroke-width:6.1632;stroke-linecap:round;stroke-linejoin:round;stroke-miterlimit:10;" d="
						M1327.84,3394.868c7.551,10.455,15.102,20.91,22.652,31.365"/>
					
						<path style="fill:none;stroke:#1D1D1B;stroke-width:6.1632;stroke-linecap:round;stroke-linejoin:round;stroke-miterlimit:10;" d="
						M1172.287,2963.305c13.276,62.505,46.323,132.631,78.465,187.858"/>
					
						<path style="fill:none;stroke:#1D1D1B;stroke-width:6.1632;stroke-linecap:round;stroke-linejoin:round;stroke-miterlimit:10;" d="
						M1262.783,3175.625c7.067,13.308,14.134,26.615,21.2,39.923"/>
					
						<path style="fill:none;stroke:#1D1D1B;stroke-width:6.1632;stroke-linecap:round;stroke-linejoin:round;stroke-miterlimit:10;" d="
						M1306.93,3258.954c3.485,4.647,6.97,9.293,10.455,13.94"/>
					
						<path style="fill:none;stroke:#1D1D1B;stroke-width:6.1632;stroke-linecap:round;stroke-linejoin:round;stroke-miterlimit:10;" d="
						M2261.095,3538.904c71.47-53.367,133.56-119.262,182.587-193.777"/>
					
						<path style="fill:none;stroke:#1D1D1B;stroke-width:6.1632;stroke-linecap:round;stroke-linejoin:round;stroke-miterlimit:10;" d="
						M2262.363,3503.181c8.969-7.371,17.937-14.743,26.906-22.114"/>
				</g>
				<g>
					
						<path style="fill:none;stroke:#1D1D1B;stroke-width:6.1632;stroke-linecap:round;stroke-linejoin:round;stroke-miterlimit:10;" d="
						M1011.198,1877.97l235.532,32.557c43.805,6.055,81.905,33.091,102.084,72.439l305.934,596.544"/>
					
						<path style="fill:none;stroke:#1D1D1B;stroke-width:6.1632;stroke-linecap:round;stroke-linejoin:round;stroke-miterlimit:10;" d="
						M1011.198,1972.685l200.678,23.68c24.319,2.87,45.641,17.591,56.943,39.315l277.612,533.607"/>
					
						<ellipse style="fill:none;stroke:#1D1D1B;stroke-width:6.1632;stroke-linecap:round;stroke-linejoin:round;stroke-miterlimit:10;" cx="1011.198" cy="1925.328" rx="11.398" ry="47.357"/>
					
						<path style="fill:none;stroke:#1D1D1B;stroke-width:6.1632;stroke-linecap:round;stroke-linejoin:round;stroke-miterlimit:10;" d="
						M1210.326,1996.083c-6.251-24.497-1.391-51.605,12.982-72.404"/>
					
						<path style="fill:none;stroke:#1D1D1B;stroke-width:6.1632;stroke-linecap:round;stroke-linejoin:round;stroke-miterlimit:10;" d="
						M1237.38,2002.534c-2.004-18.865,4.15-38.457,16.581-52.788"/>
					
						<path style="fill:none;stroke:#1D1D1B;stroke-width:6.1632;stroke-linecap:round;stroke-linejoin:round;stroke-miterlimit:10;" d="
						M1250.651,2011.997c2.444-10.043,8.376-19.201,16.542-25.538"/>
					
						<path style="fill:none;stroke:#1D1D1B;stroke-width:6.1632;stroke-linecap:round;stroke-linejoin:round;stroke-miterlimit:10;" d="
						M1267.213,2025.019c10.003-16.692,27.346-28.8,46.463-32.439"/>
					
						<path style="fill:none;stroke:#1D1D1B;stroke-width:6.1632;stroke-linecap:round;stroke-linejoin:round;stroke-miterlimit:10;" d="
						M1279.606,2056.458c8.37-11.204,21.315-18.881,35.16-20.852"/>
				</g>
				
					<line style="fill:none;stroke:#1D1D1B;stroke-width:6.1632;stroke-linecap:round;stroke-linejoin:round;stroke-miterlimit:10;" x1="2299.924" y1="2143.779" x2="2041.251" y2="2581.901"/>
				
					<line style="fill:none;stroke:#1D1D1B;stroke-width:6.1632;stroke-linecap:round;stroke-linejoin:round;stroke-miterlimit:10;" x1="2254.131" y1="2128.124" x2="1983.945" y2="2585.654"/>
				
					<line style="fill:none;stroke:#1D1D1B;stroke-width:6.1632;stroke-linecap:round;stroke-linejoin:round;stroke-miterlimit:10;" x1="2536.484" y1="1694.276" x2="2207.019" y2="2252.244"/>
				
					<line style="fill:none;stroke:#1D1D1B;stroke-width:6.1632;stroke-linecap:round;stroke-linejoin:round;stroke-miterlimit:10;" x1="1980.956" y1="2023.525" x2="2536.484" y2="1694.276"/>
				
					<polyline style="fill:none;stroke:#1D1D1B;stroke-width:6.1632;stroke-linecap:round;stroke-linejoin:round;stroke-miterlimit:10;" points="
					2726.174,2388.076 2536.484,1694.276 1819.51,1884.96 				"/>
				
					<line style="fill:none;stroke:#1D1D1B;stroke-width:6.1632;stroke-linecap:round;stroke-linejoin:round;stroke-miterlimit:10;" x1="2531.346" y1="2340.015" x2="2536.484" y2="1694.276"/>
				
					<path style="fill:none;stroke:#1D1D1B;stroke-width:6.1632;stroke-linecap:round;stroke-linejoin:round;stroke-miterlimit:10;" d="
					M1884.428,1867.695c9.222-0.727,70.574-4.54,116.18,41.937c29.646,30.213,36.805,65.539,38.837,79.227
					c8.709-1.619,98.315-16.698,164.821,48.399c51.012,49.931,54.106,113.432,54.454,127.427
					c53.083-36.292,121.532-41.15,178.169-12.474c82.368,41.703,93.74,131.035,94.457,137.583
					c6.754-6.509,34.366-31.605,76.616-32.585c57.729-1.339,92.196,43.518,95.575,48.073"/>
			</g>
			
				<path style="fill:none;stroke:#1D1D1B;stroke-width:6.1632;stroke-linecap:round;stroke-linejoin:round;stroke-miterlimit:10;" d="
				M2110.857,1895.28c52.696-24.253,105.393-48.507,158.089-72.76"/>
			
				<path style="fill:none;stroke:#1D1D1B;stroke-width:6.1632;stroke-linecap:round;stroke-linejoin:round;stroke-miterlimit:10;" d="
				M2239.986,1976.3c39.516-36.591,79.033-73.182,118.549-109.773"/>
			
				<path style="fill:none;stroke:#1D1D1B;stroke-width:6.1632;stroke-linecap:round;stroke-linejoin:round;stroke-miterlimit:10;" d="
				M2493.107,1864.793c-5.808,25.74-11.615,51.479-17.423,77.219"/>
			
				<path style="fill:none;stroke:#1D1D1B;stroke-width:6.1632;stroke-linecap:round;stroke-linejoin:round;stroke-miterlimit:10;" d="
				M2585.31,2041.917c1.73,40.625,3.461,81.25,5.191,121.875"/>
			
				<path style="fill:none;stroke:#1D1D1B;stroke-width:6.1632;stroke-linecap:round;stroke-linejoin:round;stroke-miterlimit:10;" d="
				M1181.002,2797.217c19.499-20.683,40.867-46.21,61.724-76.976c17.806-26.266,31.86-51.367,42.961-73.948"/>
		</g>
		
			<path style="fill:none;stroke:#1D1D1B;stroke-width:6.1632;stroke-linecap:round;stroke-linejoin:round;stroke-miterlimit:10;" d="
			M1590.644,2945.755c-7.199,89.422,8.825,180.615,46.076,262.226"/>
		
			<path style="fill:none;stroke:#1D1D1B;stroke-width:6.1632;stroke-linecap:round;stroke-linejoin:round;stroke-miterlimit:10;" d="
			M1600.83,2940.004c2.626,28.438,5.251,56.876,7.877,85.314"/>
		
			<path style="fill:none;stroke:#1D1D1B;stroke-width:6.1632;stroke-linecap:round;stroke-linejoin:round;stroke-miterlimit:10;" d="
			M1625.981,2962.133c-2.586,62.318,8.776,125.175,33.013,182.644"/>
		
			<path style="fill:none;stroke:#1D1D1B;stroke-width:6.1632;stroke-linecap:round;stroke-linejoin:round;stroke-miterlimit:10;" d="
			M2096.571,3003.035c-3.38,59.389-13.327,118.402-29.603,175.618"/>
		
			<path style="fill:none;stroke:#1D1D1B;stroke-width:6.1632;stroke-linecap:round;stroke-linejoin:round;stroke-miterlimit:10;" d="
			M2121.727,2971.493c-2.083,23.418-4.167,46.836-6.25,70.255"/>
		
			<path style="fill:none;stroke:#1D1D1B;stroke-width:6.1632;stroke-linecap:round;stroke-linejoin:round;stroke-miterlimit:10;" d="
			M2144.682,3010.063c-2.976,58.496-5.952,116.991-8.928,175.488"/>
	</g>
	<g>
		
			<path style="fill:none;stroke:#1D1D1B;stroke-width:6.1632;stroke-linecap:round;stroke-linejoin:round;stroke-miterlimit:10;" d="
			M3104.467,4060.522c-14.848-3.189-33.687,9.406-40.113,23.166s-4.172,30.6,3.687,43.595c7.636,12.627,20.531,22.147,35.025,24.917
			c14.494,2.771,30.342-1.529,40.903-11.836c10.561-10.306,15.234-26.507,11.034-40.653c-3.167-10.668-10.902-19.567-20.084-25.854
			S3115.141,4063.668,3104.467,4060.522"/>
		
			<path style="fill:none;stroke:#1D1D1B;stroke-width:6.1632;stroke-linecap:round;stroke-linejoin:round;stroke-miterlimit:10;" d="
			M3072.456,3967.749c68.477-11.062,83.697-87.326,143.996-125.559c15.508-9.833,31.371-19.821,49.208-24.183
			c17.837-4.362,38.32-2.181,51.931,10.144c21.384,19.363,17.559,54.498,4.819,80.381c-10.287,20.898-25.003,39.302-36.23,59.71
			c-11.227,20.408-18.985,44.256-13.585,66.914c7.715,32.371,39.948,53.147,71.952,62.263c32.005,9.116,66.029,10.048,97.588,20.604
			s62.227,34.8,65.483,67.918c3.816,38.82-32.643,71.898-70.801,79.992c-38.158,8.094-77.49-1.712-115.871-8.673
			c-21.464-3.893-46.195-6.059-62.592,8.329c-20.022,17.568-16.25,50.374-3.625,73.828c12.626,23.455,32.199,43.223,40.93,68.388
			c14.645,42.21-9.108,93.886-50.68,110.255s-94.181-5.239-112.246-46.102c-11.033-24.956-9.852-53.371-14.788-80.206
			c-4.936-26.835-19.817-55.634-46.423-61.685c-27.333-6.217-53.172,14.096-72.406,34.486c-21.9,23.216-41.767,48.515-66.087,69.181
			c-24.32,20.667-54.277,36.744-86.191,37.018c-31.914,0.274-65.238-18.576-74.611-49.084c-6.249-20.341-1.338-42.8,8.66-61.584
			c9.998-18.785,24.697-34.57,39.224-50.119c29.762-31.854,59.524-63.707,89.286-95.561c12.204-13.061,25.247-28.361,23.932-46.188
			c-1.928-26.157-31.808-39.148-56.688-47.448c-38.988-13.007-77.91-28.551-110.002-54.229
			c-32.092-25.677-56.889-62.954-59.332-103.982c-2.443-41.028,21.605-84.544,60.746-97.083
			c45.979-14.73,93.517,14.208,132.787,42.296C2940.111,3935.86,3024.792,3975.448,3072.456,3967.749z"/>
		
			<path style="fill:none;stroke:#1D1D1B;stroke-width:6.1632;stroke-linecap:round;stroke-linejoin:round;stroke-miterlimit:10;" d="
			M3133.57,4230.602c33.175,69.158,53.275,144.561,58.925,221.055"/>
		
			<path style="fill:none;stroke:#1D1D1B;stroke-width:6.1632;stroke-linecap:round;stroke-linejoin:round;stroke-miterlimit:10;" d="
			M3225.711,4148.81c66.986-19.574,141.447-12.178,203.273,20.192"/>
		
			<path style="fill:none;stroke:#1D1D1B;stroke-width:6.1632;stroke-linecap:round;stroke-linejoin:round;stroke-miterlimit:10;" d="
			M3163.291,4044.192c11.984-52.893,39.571-102.151,78.408-140.005"/>
		
			<path style="fill:none;stroke:#1D1D1B;stroke-width:6.1632;stroke-linecap:round;stroke-linejoin:round;stroke-miterlimit:10;" d="
			M2840.234,3980.106c56.092,8.883,109.543,33.854,152.35,71.174"/>
		
			<path style="fill:none;stroke:#1D1D1B;stroke-width:6.1632;stroke-linecap:round;stroke-linejoin:round;stroke-miterlimit:10;" d="
			M2888.078,4343.21c55.542-31.523,106.655-70.838,151.375-116.433"/>
	</g>
	<path style="fill:none;stroke:#1D1D1B;stroke-width:6.1632;stroke-linecap:round;stroke-linejoin:round;stroke-miterlimit:10;" d="
		M322.442,4560.441c59.701,12.233,119.402,24.466,179.103,36.699c32.543,6.668,67.199,13.193,98.233,1.342
		c31.034-11.851,54.449-49.809,38.68-79.047c48.344,22.969,102.924,32.645,156.218,27.695c17.097-1.588,35.046-5.111,47.802-16.604
		c12.757-11.493,17.588-33.241,6.002-45.913c27.806,11.528,55.612,23.057,83.418,34.584c23.062,9.562,47.603,19.318,72.265,15.442
		c24.662-3.876,48.038-27.227,42.3-51.523c24.635,30.074,66.526,40.917,105.369,39.305s76.363-13.714,114.425-21.628
		c31.238-6.495,63.008-10.188,94.84-12.353c84.622-5.754,169.972-0.708,253.326,14.978"/>
	<path style="fill:none;stroke:#1D1D1B;stroke-width:6.1632;stroke-linecap:round;stroke-linejoin:round;stroke-miterlimit:10;" d="
		M1451.172,4734.452c27.385-66.982,104.9-102.091,177.265-102.133c72.364-0.042,141.436,27.803,208.801,54.233
		s137.647,52.286,209.884,48c145.879-8.657,272.33-138.095,417.05-117.806c88.95,12.471,166.823,81.079,256.472,75.545
		c60.584-3.739,113.868-41.118,173.138-54.212c83.331-18.411,168.446,12.384,251.155,33.415
		c82.709,21.03,178.99,29.751,245.501-23.722"/>
	<path style="fill:none;stroke:#1D1D1B;stroke-width:6.1632;stroke-linecap:round;stroke-linejoin:round;stroke-miterlimit:10;" d="
		M2375.015,4472.887c38.733-43.753,110.315-53.657,159.472-22.063c-6.209-35.074-33.511-65.549-67.694-75.562
		c40.073-1.223,80.271,17.471,105.158,48.902c-7.932-33.719,16.408-71.548,50.383-78.303c-5.146,25.569-10.292,51.138-15.439,76.707
		c20.618-15.467,41.237-30.935,61.855-46.403c-16.259,28.333-4.447,69.083,24.445,84.329"/>
	<path style="fill:none;stroke:#1D1D1B;stroke-width:6.1632;stroke-linecap:round;stroke-linejoin:round;stroke-miterlimit:10;" d="
		M2690.602,3749.461c-13.748-33.483-42.35-60.542-76.542-72.414c-34.193-11.872-73.409-8.359-104.948,9.4
		c53.905-44.384,135.791-51.069,196.181-16.016c-20.933-52.235-76.105-88.725-132.365-87.545
		c54.894-12.079,115.461,5.999,154.753,46.19c0.644-56.55,22.579-112.605,60.486-154.573
		c-7.165,48.729-14.329,97.458-21.493,146.187c23.602-18.67,47.204-37.339,70.806-56.009c-8.214,30.177-16.427,60.353-24.641,90.53
		c27.303-14.825,54.606-29.65,81.909-44.476c-42.374,34.385-46.719,106.094-8.808,145.344"/>
	<path style="fill:none;stroke:#1D1D1B;stroke-width:6.1632;stroke-linecap:round;stroke-linejoin:round;stroke-miterlimit:10;" d="
		M2621.493,3819.914c23.759-33.908,59.839-58.98,99.904-69.424c40.065-10.444,83.793-6.175,121.082,11.82"/>
	<path style="fill:none;stroke:#1D1D1B;stroke-width:6.1632;stroke-linecap:round;stroke-linejoin:round;stroke-miterlimit:10;" d="
		M2788.304,3752.546c64.632-14.717,132.898-13.19,196.808,4.402"/>
	<path style="fill:none;stroke:#1D1D1B;stroke-width:6.1632;stroke-linecap:round;stroke-linejoin:round;stroke-miterlimit:10;" d="
		M315.273,3948.995c55.767-55.173,149.916-66.28,216.99-25.598c-10.58-51.06-62.824-89.899-114.768-85.32
		c61.666-12.788,129.286,8.364,172.673,54.012c-5.677-59.896,21.467-121.888,69.333-158.34
		c-34.84,41.044-44.139,102.109-23.096,151.663c5.646-23.174,23.125-43.132,45.353-51.783c-4.552,25.854-9.104,51.708-13.656,77.563
		c13.89-11.903,27.78-23.806,41.67-35.709c3.507,34.067,32.484,63.818,66.447,68.221"/>
	<path style="fill:none;stroke:#1D1D1B;stroke-width:6.1632;stroke-linecap:round;stroke-linejoin:round;stroke-miterlimit:10;" d="
		M236.811,3487.345c27.094,36.324,68.026,62.055,112.505,70.724c44.479,8.669,92.078,0.193,130.83-23.298
		c45.764-27.741,82.535-76.509,135.809-81.582c42.471-4.044,81.222,21.455,119.531,40.23c38.31,18.775,88.349,30.027,120.535,2.025
		c31.673-27.556,34.544-84.482,74.123-98.483c28.219-9.983,57.706,8.874,81.97,26.401c24.264,17.528,54.768,35.46,82.311,23.74
		c23.776-10.117,34.598-38.524,56.635-52.016c30.925-18.934,70.589-2.603,102.908,13.838c16.563,8.426,43.963,26.663,63.417,22.614"
		/>
	<path style="fill:none;stroke:#1D1D1B;stroke-width:6.1632;stroke-linecap:round;stroke-linejoin:round;stroke-miterlimit:10;" d="
		M234.191,3525.67c8.184,50.466,81.249,103.871,132.196,99.604c50.947-4.266,95.786-20.698,140.293-45.856
		c44.507-25.158,93.748-48.758,144.522-42.779c30.999,3.65,59.515,18.071,89.044,28.184s63.106,15.708,91.187,2.08
		c46.932-22.778,67.168-93.001,119.287-95.238c34.225-1.469,62.68,29.522,96.901,31.068c54.944,2.482,90.325-69.083,145.307-70.47
		c25.957-0.655,49.095,14.8,72.391,26.266c23.296,11.466,53,18.717,73.867,3.265"/>
	<path style="fill:none;stroke:#1D1D1B;stroke-width:6.1632;stroke-linecap:round;stroke-linejoin:round;stroke-miterlimit:10;" d="
		M2451.047,3389.648c79.382,73.275,209.406,84.205,299.906,25.212c31.592-20.593,61.941-49.72,99.649-49.263
		c37.915,0.46,67.973,30.897,92.292,59.99c24.318,29.093,51.057,61.22,88.486,67.29c45.032,7.302,85.391-25.669,120.906-54.304
		c35.515-28.634,82.471-56.253,124.173-37.754c31.731,14.076,53.534,52.851,88.212,51.293
		c39.693-1.783,62.739-56.724,102.438-55.113c18.645,0.757,33.913,14.194,50.431,22.876c16.518,8.682,40.776,10.783,50.398-5.205"/>
	<path style="fill:none;stroke:#1D1D1B;stroke-width:6.1632;stroke-linecap:round;stroke-linejoin:round;stroke-miterlimit:10;" d="
		M2431.554,3423.874c69.956,69.58,184.131,90.027,273.887,49.049c39.324-17.954,75.695-46.851,118.859-49.199
		c89.733-4.881,154.588,105.2,244.351,100.913c42.952-2.052,79.359-30.258,116.42-52.067
		c37.061-21.808,84.938-37.702,121.677-15.356c21.427,13.033,37.822,38.312,62.899,38.62c36.211,0.446,55.114-51.452,91.262-53.651
		c19.63-1.194,36.365,12.953,54.345,20.923c17.979,7.97,45.396,5.31,49.387-13.947"/>
	<path style="fill:none;stroke:#1D1D1B;stroke-width:6.1632;stroke-linecap:round;stroke-linejoin:round;stroke-miterlimit:10;" d="
		M245.733,2876.889c277.086,0,554.172,0,831.258,0"/>
	<path style="fill:none;stroke:#1D1D1B;stroke-width:6.1632;stroke-linecap:round;stroke-linejoin:round;stroke-miterlimit:10;" d="
		M2662.945,2871.42c298.05,0,596.1,0,894.15,0"/>
	<path style="fill:none;stroke:#1D1D1B;stroke-width:6.1632;stroke-linecap:round;stroke-linejoin:round;stroke-miterlimit:10;" d="
		M3163.341,2876.889c57.946,14.525,130.564-11.441,185.853,8.072c-32.189,36.757-122.582,11.91-157.663,52.29
		c33.487,12.254,83.604-4.876,118.869-8.398c24.906-2.487,87.204-18.068,106.404-0.01c-33.547,26.218-91.641,17.244-126.908,43.882
		c56.7,22.248,137.429-26.704,194.713,7.536c-102.06,14.163-214.341,35.388-310.439,74.963c21.499,13.045,56.96-0.07,80.939-3.333
		c31.905-4.341,63.867-5.133,96.146-5.469c47.912-0.498,98.177,2.394,145.527,0.467c-29.01,28.336-105.605,15.39-144.136,41.211
		c33.882,21.801,97.406-16.272,129.915,6.879c-18.591,10.506-43.615,12.957-54.646,33.465
		c18.167,18.659,76.153,12.693,101.228,13.745"/>
	<path style="fill:none;stroke:#1D1D1B;stroke-width:6.1632;stroke-linecap:round;stroke-linejoin:round;stroke-miterlimit:10;" d="
		M2630.132,3065.563c41.515,12.86,98.707,4.995,142.162,8.437c39.295,3.112,85.583-0.471,122.847,10.509
		c-8.281,25.33-60.181,32.418-81.118,49.414c-44.329,35.985,32.038,31.819,59.108,32.813
		c79.999,2.936,170.114-11.786,246.445,10.592c-21.122,38.129-97.68,23.125-116.88,63.52c24.808,13.481,69.345,5.152,96.925,5.186
		c44.024,0.054,87.856-3.533,131.734-5.532c40.011-1.823,80.151-2.668,120.16-2.671c22.088-0.002,53.542-5.428,73.564,3.421
		c-21.207,11.899-46.031,17.256-67.368,29.11c10.163,36.031,167.519,19.423,202.118,19.423"/>
	<path style="fill:none;stroke:#1D1D1B;stroke-width:6.1632;stroke-linecap:round;stroke-linejoin:round;stroke-miterlimit:10;" d="
		M913.844,2876.889c-34.618,0.356-186.229,7.038-219.109,17.028c-38.594,11.726,44.796,77.541,82.579,82.875
		c64.021,9.04,143.625-8.337,203.342,14.942c-43.649,11.2-101.534,14.529-141.524,39.031c28.887,14.611,76.852,3.234,108.8,1.985
		c33.769-1.32,67.598,2.109,98.208,10.806c-22.462,18.583-77.034,10.246-92.11,37.937c40.082,11.364,84.049-1.106,122.865,16.742
		c-10.436,19.42-70.446,23.615-92.952,30.969c-30.911,10.101-61.752,23.752-68.959,60.016c-7.286,36.658,37.399,33.431,67.67,34.939
		c37.481,1.867,75.211-0.993,112.356-2.761c29.819-1.419,59.541,3.603,88.622,2.761"/>
	<path style="fill:none;stroke:#1D1D1B;stroke-width:6.1632;stroke-linecap:round;stroke-linejoin:round;stroke-miterlimit:10;" d="
		M232.061,3021.812c35.114,11.685,86.164-2.323,123.491-2.734c46.545-0.513,91.812-4.679,138.497,0.608
		c30.578,3.463,78.137,0.906,106.018,14.985c37.101,18.736-0.705,27.605-23.906,35.253c-37.248,12.278-74.956,19.541-110.855,35.623
		c-29.528,13.228-34.307,24.383,1.136,31.261c82.943,16.095,171.572,9.955,254.665,29.178c24.484,5.664,75.61,17.21,47.244,41.678
		c-19.038,16.422-68.067,9.803-76.754,37.975c55.968,25.528,146.652,14.467,206.886,16.698
		c38.107,1.411,76.667,7.401,114.593,10.962c24.504,2.301,54.16,0.722,76.894,11.016c-38.057,6.87-96.504,21.501-124.392,49.414
		c40.228,14.804,110.059-2.929,154.368-2.929c46.674,0,94.27,4.268,140.253,2.734"/>
	<path style="fill:none;stroke:#1D1D1B;stroke-width:6.1632;stroke-linecap:round;stroke-linejoin:round;stroke-miterlimit:10;" d="
		M232.061,3136.502c48.354,0,134.912-6.332,173.567,30.18c-2.983,7.323-8.942,13.224-16.237,18.175
		c-11.834,8.032-6.746,26.489,7.539,27.197c55.229,2.739,131.631,4.313,108.757,39.511c-14.919,22.957-72.739,31.805-96.686,37.478
		c-26.302,6.231-54.484,12.352-81.492,19.96c-5.646,1.591-4.246,9.956,1.603,9.506c87.201-6.718,278.337-29.965,285.547,12.494
		c-73.981,27.516-166.933,31.402-245.031,45.971c-58.069,10.833-75.55,9.616-135.436,17.893"/>
	<path style="fill:none;stroke:#1D1D1B;stroke-width:6.1632;stroke-linecap:round;stroke-linejoin:round;stroke-miterlimit:10;" d="
		M2609.994,2805.854c16.77-81.938,87.174-150.156,169.599-164.336c82.425-14.18,171.579,26.591,214.765,98.214"/>
	<path style="fill:none;stroke:#1D1D1B;stroke-width:6.1632;stroke-linecap:round;stroke-linejoin:round;stroke-miterlimit:10;" d="
		M2876.35,2644.812c35.906-70.646,106.388-122.658,184.481-136.136s161.932,11.899,219.441,66.423"/>
	<path style="fill:none;stroke:#1D1D1B;stroke-width:6.1632;stroke-linecap:round;stroke-linejoin:round;stroke-miterlimit:10;" d="
		M3213.035,2522.593c5.263-85.643,45.433-168.628,109.341-225.884s150.792-88.099,236.496-83.955"/>
	<path style="fill:none;stroke:#1D1D1B;stroke-width:6.1632;stroke-linecap:round;stroke-linejoin:round;stroke-miterlimit:10;" d="
		M2546.308,2726.102c-18.249-141.355,48.453-290.385,166.028-370.949s280.635-88.969,405.87-20.922"/>
	<path style="fill:none;stroke:#1D1D1B;stroke-width:6.1632;stroke-linecap:round;stroke-linejoin:round;stroke-miterlimit:10;" d="
		M2924.195,2283.836c-3.107-89.074,47.2-177.958,125.166-221.146c77.966-43.188,180-38.69,253.864,11.189"/>
	<path style="fill:none;stroke:#1D1D1B;stroke-width:6.1632;stroke-linecap:round;stroke-linejoin:round;stroke-miterlimit:10;" d="
		M3142.64,2033.137c-28.596-115.589,3.916-254.611,89.996-336.884c86.08-82.273,217.268-114.032,331.447-80.24"/>
	<path style="fill:none;stroke:#1D1D1B;stroke-width:6.1632;stroke-linecap:round;stroke-linejoin:round;stroke-miterlimit:10;" d="
		M240.116,2263.806c87.072-55.989,206.738-56.252,294.055-0.647c87.318,55.605,137.691,164.152,123.783,266.734"/>
	<path style="fill:none;stroke:#1D1D1B;stroke-width:6.1632;stroke-linecap:round;stroke-linejoin:round;stroke-miterlimit:10;" d="
		M661.199,2469.151c95.379-66.493,225.743-79.286,332.228-32.603s185.409,151.228,201.133,266.428"/>
	<path style="fill:none;stroke:#1D1D1B;stroke-width:6.1632;stroke-linecap:round;stroke-linejoin:round;stroke-miterlimit:10;" d="
		M245.02,1688.423c105.976-30.183,226.14-4.873,310.938,65.492c84.798,70.365,131.836,183.8,121.717,293.525"/>
	<path style="fill:none;stroke:#1D1D1B;stroke-width:6.1632;stroke-linecap:round;stroke-linejoin:round;stroke-miterlimit:10;" d="
		M678.674,2002.896c79.708-24.851,177.886,4.84,241.313,59.134c63.427,54.294,96.281,142.183,84.021,224.77"/>
	<path style="fill:none;stroke:#1D1D1B;stroke-width:6.1632;stroke-linecap:round;stroke-linejoin:round;stroke-miterlimit:10;" d="
		M999.8,2194.878c80.125-13.174,179.32,9.535,239.699,63.83c60.378,54.295,94.331,136.726,89.708,217.794"/>
	<path style="fill:none;stroke:#1D1D1B;stroke-width:6.1632;stroke-linecap:round;stroke-linejoin:round;stroke-miterlimit:10;" d="
		M1704.15,1277.626c-131.74-10.101-274.78-22.663-394.307-31.792c14.758-25.981,10.423-52.162-14.344-68.876
		c-24.768-16.714-62.009-10.963-80.581,12.445c27.518-35.753,28.932-93.687,4.45-131.584
		c-24.481-37.897-70.966-59.361-116.01-56.796c-45.043,2.565-87.523,27.771-114.292,64.088
		c2.265-50.236-29.071-106.647-74.704-127.775c-45.633-21.128-103.626-11.918-140.468,22.309
		c-36.842,34.227-50.289,91.386-32.57,138.449c-21.857-16.831-55.52-15.932-76.449,2.041
		c-20.928,17.973-26.902,51.114-13.566,75.263c-11.962-16.442-37.598-20.794-54.316-9.22
		c-16.717,11.574-21.668,37.102-10.488,54.085c-44.466,7.032-88.933,14.064-133.399,21.096
		C870.121,1253.448,1287.136,1265.537,1704.15,1277.626"/>
</g>
</svg>
