<?xml version="1.0" encoding="utf-8"?>
<!-- Generator: Adobe Illustrator 27.5.0, SVG Export Plug-In . SVG Version: 6.00 Build 0)  -->
<svg xmlns="http://www.w3.org/2000/svg" xmlns:xlink="http://www.w3.org/1999/xlink" viewBox="0 0 5000 5000" width="595" height="842" preserveAspectRatio="xMidYMid meet" data-scaled="true">
<g>
	<path style="fill:#FFFFFF;" d="M375.001,375.001h4249.998v4249.998H375.001V375.001z"/>
	<path d="M3920.74,1063.609c2.706-0.307,5.093-0.473,7.691,0.639c7.304,3.117,14.929,11.219,20.669,16.631
		c19.424,18.307,40.632,39.674,50.548,65.057l1.162,3.113c4.951,12.866,3.669,26.899,3.503,40.483
		c18.452,10.206,35.544,24.575,51.747,38.009c21.831,18.104,43.529,36.656,63.629,56.682
		c191.238,190.511,284.729,461.374,301.875,726.65c2.561,39.595,1.665,79.542,1.693,119.22c0.05,60.447-0.013,120.893-0.062,181.335
		c-0.133,159.678,0.273,319.36,0.527,479.038l93.633,2.337c23.89,3.113,48.211,22.325,62.364,41.268
		c20.835,27.82,33.12,65.837,38.267,99.916c4.897,32.485,3.03,66.352,3.071,99.111c0,49.605-0.042,99.207-0.125,148.808
		c-0.042,46.629,0.042,93.263,0.042,139.893c0,31.722,1.453,63.978-2.947,95.442l-60.886,11.575l-1.494,78.795
		c-31.908,42.591-45.397,84.543-51.32,136.946c8.21,3.52,16.46,7.288,23.471,12.907c14.692,11.762,23.782,26.293,25.525,45.281
		c0.872,9.616-0.332,15.859-6.143,23.28c-14.526,4.918-29.376,7.525-44.061,11.725c-11.621,3.325-24.778,8.903-36.872,9.687
		c-9.38,0.606-21.495-4.117-30.613-6.421c-18.15-4.586-36.519-8.716-54.797-12.767c-14.709-3.262-36.051-4.441-49.477-10.915
		c-2.092-1.013-5.175-4.769-7.014-6.458c-3.507-10.393-3.988-20.985-0.282-31.473c7.379-20.897,26.463-33.51,45.583-42.483
		c-3.797-34.22-12.505-60.55-26.77-91.919l-581.632,93.716l-39.113,145.712c7.379,1.631,15.12,3.416,21.948,6.74
		c13.621,6.637,22.217,18.005,26.164,32.519c3.208,11.779,8.118,35.403,2.199,46.306c-13.808,9.903-36.847,11.825-53.266,16.216
		c-20.573,5.499-40.985,11.837-61.417,17.864l-121.897-34.229l-7.574-15.962l-1773.299-404.613
		c-167.775-40.23-336.87-75.84-505.003-114.692c-174.458-40.313-348.226-83.734-522.662-124.051
		c-81.522-18.839-163.586-35.594-245.198-54.192c-17.172-3.914-34.314-7.936-51.459-11.966c-8.532-2.005-18.988-3.125-26.786-7.155
		c-5.069-2.623-8.851-5.694-10.127-11.542c-2.681-12.285,0.461-30.912,7.963-40.832c10.87-5.304,24.094-4.777,35.979-4.723
		c23.247,0.108,46.435,1.199,69.622,2.81l-2.275-80.966l-27.911-4.574c-3.383-2.839-6.173-5.313-8.442-9.164
		c-13.148-22.321-21.545-49.033-31.853-72.864c-10.528-24.346-21.029-48.697-31.52-73.055
		c-6.159-14.302-13.816-29.381-17.666-44.513c-6.378-25.068,9.783-48.917,17.238-72.158c5.584-17.411,9.201-35.191,9.822-53.495
		c1.661-48.987-1.498-98.277-3.221-147.235c-1.838-52.224-2.909-104.474-5.442-156.677c-1.56-32.153-3.355-64.265-4.293-96.447
		c-0.547-18.764-1.713-38.503,1.086-57.117c4.129-27.463,17.763-56.134,31.722-79.878c23.985-40.807,57.999-78.683,86.962-116.269
		c26.879-34.88,52.454-73.3,82.674-105.241c11.963-12.642,25.644-24.475,41.566-31.8c28.48-13.107,61.479-19.524,91.801-27.127
		c34.144-8.566,68.133-17.751,102.27-26.372c44.094-11.131,88.183-25.243,132.634-34.481c22.856-4.752,45.937-8.147,69.241-9.704
		c25.438-1.702,50.585-1.54,76.023-0.075c26.55,1.531,51.909,7.819,78.276,1.664c131.165-30.622,261.748-64.431,392.598-96.43
		c118.979-29.099,238.427-56.578,357.506-85.349c160.566-38.789,320.809-78.965,481.549-117.037
		c312.889-74.118,625.787-148.252,938.731-222.17c159.861-37.756,320.684-72.81,479.947-112.932
		c0.1-8.874,0.527-17.755,3.254-26.276C3857.318,1101.02,3899.818,1075.043,3920.74,1063.609z"/>
	<path style="fill:#FFFFFF;" d="M2485.706,3411.367l1.507,1.718c0.818,5.404,1.619,8.201-0.946,13.281
		c-8.297,3.001-14.746,1.212-23.226-0.407l-3.74-3.536C2464.477,3416.572,2478.227,3413.89,2485.706,3411.367z"/>
	<path style="fill:#FFFFFF;" d="M2630.231,3453.012c7.981,2.275,19.274,5.603,25.608,10.916l-0.191,13.638
		c-3.677-1.017-7.118-2.104-10.509-3.889C2636.735,3469.253,2633.265,3461.533,2630.231,3453.012z"/>
	<path style="fill:#FFFFFF;" d="M2526.45,3391.068c3.852,0.386,7.238,1.345,10.99,2.303c4.213,3.818,6.856,5.69,8.297,11.414
		l-2.843,3.146c-6.761,0.357-15.73,2.25-21.528-1.071C2522.005,3400.917,2524.031,3396.426,2526.45,3391.068z"/>
	<path style="fill:#FFFFFF;" d="M2510.505,3353.461c5.856,1.577,10.318,3.74,15.581,6.761c3.117,1.793,1.747,0.461,3.021,5.134
		l-5.611,6.3c-3.727,3.781-6.977,8.957-12.289,9.712L2510.505,3353.461z"/>
	<path style="fill:#FFFFFF;" d="M2627.595,3414.351c7.483,0.482,13.385,1.038,20.349,3.922c3.391,6.379,3.217,7.375,2.619,14.643
		c-7.699-0.971-21.246-2.594-26.43-8.417L2627.595,3414.351z"/>
	<path style="fill:#FFFFFF;" d="M1713.211,3269.054c5.703-0.174,11.21-1.013,16.361,1.88c-1.826,7.773-4.366,12.339-9.372,18.535
		l-8.774,4.827l-3.113-2.117C1707.396,3283.303,1710.027,3277.256,1713.211,3269.054z"/>
	<path style="fill:#FFFFFF;" d="M1223.216,3125.733c7.732,1.071,19.938,0.589,25.272,6.163l-2.092,16.589
		c-5.765-0.602-10.891-1.378-16.481-2.889C1226.823,3139.446,1225.187,3132.337,1223.216,3125.733z"/>
	<path style="fill:#FFFFFF;" d="M711.216,1952.639c-0.114,5.902-0.926,7.151-3.911,12.339c-11.383,5.877-24.478,8.16-36.864,11.127
		c-0.149-5.043,1.069-7.189,2.888-11.849C682.506,1957.934,700.239,1955.49,711.216,1952.639z"/>
	<path style="fill:#FFFFFF;" d="M2776.922,3507.478l2.445,1.195c5.856,4.478,7.712,23.736,8.496,31.057
		c0.693,6.475,1.843,7.981-2.212,13.02c-7.309-8.595-15.979-20.466-16.357-32.186
		C2769.057,3513.309,2772.141,3512.23,2776.922,3507.478z"/>
	<path style="fill:#FFFFFF;" d="M659.339,3026.257l57.032,11.65l2.598,10.073c-18.045-7.525-36.285-7.803-55.515-8.832
		C658.813,3035.201,659.907,3032.072,659.339,3026.257z"/>
	<path style="fill:#FFFFFF;" d="M1856.619,3287.827c6.558,2.606,12.36,6.657,18.307,10.409c1.1,15.514,3.092,29.878-2.806,44.708
		l-4.935-2.49C1860.927,3325.708,1857.594,3303.823,1856.619,3287.827z"/>
	<path style="fill:#FFFFFF;" d="M3399.223,3610.104c11.077,19.167,13.937,37.52,14.398,59.268l-2.59,1.506
		c-7.056-7.728-14.095-15.531-17.942-25.454C3388.382,3633.28,3394.533,3621.145,3399.223,3610.104z"/>
	<path style="fill:#FFFFFF;" d="M1874.271,3240.396c12.949,0.884,38.47,2.029,49.053,8.749l-3.242,16.029l-21.652,3.69
		C1891.686,3257.67,1883.559,3249.448,1874.271,3240.396z"/>
	<path style="fill:#FFFFFF;" d="M592.461,3067.964c6.281,5.715,10.493,14.53,17.037,20.74c2.484-3.607,4.487-5.018,8.301-7.135
		c1.472,0.88,4.07,2.316,5.188,3.561c4.621,5.146,1.06,14.207-0.098,20.412c-1.667,3.64-3.627,6.724-5.78,10.085l-5.535,0.776
		l-4.457-3.474C598.009,3104.143,592.503,3080.146,592.461,3067.964z"/>
	<path style="fill:#FFFFFF;" d="M3354.86,3543.553c5.117,0.934,8.952,2.075,13.609,4.395c3.922,4.877,4.117,7.525,4.719,13.514
		c-11.389,9.16-25.72,2.685-36.698,14.526c-1.154,8.031,0.843,8.757,5.296,15.249l1.079,2.544l-8.238,13.792
		c-0.004-10.177,0.44-20.374,0.17-30.547c-0.203-7.487-2.096-15.004-0.233-22.354c8.255-1.237,11.783-3.885,18.142-9.26
		L3354.86,3543.553z"/>
	<path style="fill:#FFFFFF;" d="M1166.078,3114.938l40.57,7.911l1.382,21.594c-10.957-1.93-25.649-6.188-36.532-5.441l-2.735,0.241
		l-3.827-5.271C1163.957,3126.713,1164.243,3122.01,1166.078,3114.938z"/>
	<path style="fill:#FFFFFF;" d="M3360.492,3589.676c5.487,0.623,10.069,0.781,14.734,4.076l0.054,9.214
		c-9.558,10.957-18.39,15.195-31.713,20.403l1.038,1.731c9.907,2.104,16.411,3.627,25.977-0.851l1.669-0.813l3.677,1.88
		c-4.167,5.122-8.102,8.699-14.481,10.845c-5.873,1.976-18.648,4.79-23.96,2.084c-0.423-4.076-0.349-6.529,1.324-10.247l1.519-3.241
		l-0.913-2.988C3348.443,3612.479,3354.154,3600.878,3360.492,3589.676z"/>
	<path style="fill:#FFFFFF;" d="M3882.15,1970.796c22.13-0.108,48.136,1.054,68.266,11.443l0.859,13.771
		c-22.01-7.276-47.555-4.092-68.307-11.696L3882.15,1970.796z"/>
	<path style="fill:#FFFFFF;" d="M983.133,3083.985c14.676,2.088,29.115,5.366,43.708,7.911c7.027,1.224,16.938,1.561,22.703,5.761
		c0.274,6.076,0.502,9.575-2.864,14.991l-36.669-8.11c-4.698,1.805-3.789,1.44-6.226,5.196l-4.084-6.267
		c-5.338-1.548-9.455-2.86-14.24-5.811L983.133,3083.985z"/>
	<path style="fill:#FFFFFF;" d="M2685.863,3471.191l14.058,7.442c-0.233,17.328,2.133,36.785-0.594,53.776l-4.848-0.05
		c-7.126-1.631-14.294-1.901-19.465-7.213L2685.863,3471.191z"/>
	<path style="fill:#FFFFFF;" d="M1629.332,3194.414l65.734,11.837l-21.283,22.744l-17.004-23.99
		c-4.864,4.777-9.04,9.509-13.007,15.066c-2.142,2.993-7.595,3.071-11.202,3.856l-3.113-2.258L1629.332,3194.414z"/>
	<path style="fill:#FFFFFF;" d="M1068.888,3098.905l71.86,11.588c4.35,5.968,3.466,14.443,3.964,21.79
		c-3.416,0.514-8.168,1.681-11.555,0.967c-5.973-1.257-11.376-6.964-17.805-8.711c-13.675-3.71-33.199-4.234-44.845-12.356
		L1068.888,3098.905z"/>
	<path style="fill:#FFFFFF;" d="M2637.569,3376.542l41.636,8.583l0.062,56.105c-9.812-6.549-15.066-24.773-20.511-35.548
		l-18.564-8.16C2634.626,3388.735,2636.054,3387.038,2637.569,3376.542z"/>
	<path style="fill:#FFFFFF;" d="M2459.185,3432.634c12.277,5.865,20.935,12.999,29.684,23.313l3.889,36.847l-33.826-6.425
		L2459.185,3432.634z"/>
	<path style="fill:#FFFFFF;" d="M2569.282,3433.958c2.494,0.536,6.242,1.104,8.537,2.457c8.255,4.856,11.31,16.042,14.535,24.562
		c7.379,19.507,6.429,29.883-2.005,48.759c-2.195-0.162-4.163-0.195-6.304-0.901c-3.839-1.266-6.45-4.262-8.338-7.678
		c-7.517-13.584-9.754-33.082-5.072-47.875C2573.263,3444.981,2572.026,3442.155,2569.282,3433.958z"/>
	<path style="fill:#FFFFFF;" d="M2460.115,3343.774l26.87,6.338c0.789,11.48,4.179,29.405,1.453,40.366
		c-0.843,3.399-7.234,6.018-10.214,7.865c-8.234,3.557-13.032,7.184-19.042,13.829L2460.115,3343.774z"/>
	<path style="fill:#FFFFFF;" d="M3229.381,3487.594l73.213,12.766l0.133,44.5l-1.805,1.087l-1.756-4.532
		c-4.96-12.106-11.679-22.325-24.08-27.388c-5.458,0.17-8.961,0.153-13.713,3.042c-2.988,1.818-3.54,2.208-7.205,3.054
		c-6.678-11.451-12.771-21.544-22.599-30.584L3229.381,3487.594z"/>
	<path style="fill:#FFFFFF;" d="M726.736,3147.394l23.127,4.047c4.3,17.374,10.372,29.509,20.314,44.115l-15.862-4.238
		l-52.302-12.787C712.24,3168.37,720.068,3160.331,726.736,3147.394z"/>
	<path style="fill:#FFFFFF;" d="M4495.216,3677.245l11.497-0.627c4.408,2.304,7.255,4.599,10.559,8.38
		c4.918,5.64,8.658,10.994,8.243,18.627c-7.753,3.698-16.336,5.338-24.645,7.417l-27.198,6.504l-4.138-35.602L4495.216,3677.245z"/>
	<path style="fill:#FFFFFF;" d="M2791.606,3482.534l22.142,4.64l5.097,9.575l4.628,9.094c7.043,16.087,2.897,32.904-3.167,48.431
		c-2.938,3.333-4.91,4.644-9.027,6.309c-5.595-5.018-6.296-14.46-7.906-21.528
		C2799.081,3520.228,2794.989,3501.559,2791.606,3482.534z"/>
	<path style="fill:#FFFFFF;" d="M564.06,3044.597c2.972,1.565,4.323,2.947,6.62,5.329c2.011,22.582,0.832,46.563-12.585,65.821
		c-2.678,3.847-1.669,3.519-6.701,4.345c-6.4-3.951-9.231-7.823-13.266-14.111c-6.556-17.647-7.327-31.514-7.464-50.166
		c7.062,5.599,13.308,12.401,19.692,18.755c3.419,0.241,4.579,1.245,7.283-1.311C564.426,3066.839,563.488,3053.359,564.06,3044.597
		z"/>
	<path style="fill:#FFFFFF;" d="M2827.316,3413.496l60.205,9.479l-1.079,64.148c-12.505-7.79-4.528-18.278-11.592-29.746
		c-6.441-10.459-19.872-11.791-29.078-18.706C2837.364,3432.356,2832.185,3422.586,2827.316,3413.496z"/>
	<path style="fill:#FFFFFF;" d="M3199.635,3557.561c6.583,1.17,12.248,2.395,18.382,5.093c6.902,7.458,11.189,18.253,14.319,27.862
		c5.009,15.39,2.648,26.085-4.122,40.246c-3.283,2.565-6.537,4.246-10.198,6.242l-3.42-2.511
		C3207.326,3608.909,3201.735,3584.131,3199.635,3557.561z"/>
	<path style="fill:#FFFFFF;" d="M1807.836,3227.708l47.688,7.566c7.994,17,16.506,26.438,30.165,39.039
		c-12.09-1.025-22.101-5.034-33.747-7.637c-11.426-2.557-24.139-2.843-35.814-3.574
		C1815.323,3250.423,1811.874,3239.641,1807.836,3227.708z"/>
	<path style="fill:#FFFFFF;" d="M3920.118,1789.009c10.575,7.633,17.486,27.11,20.935,39.512c2.096,7.537,3.997,19.196,0.17,25.99
		l-9.828-0.996c-9.247-0.822-20.959-0.506-29.505-4.088C3899.519,1827.484,3909.708,1807.624,3920.118,1789.009z"/>
	<path style="fill:#FFFFFF;" d="M3415.65,3595.25c7.454,0.129,14.012,1.013,21.3,2.552c5.466,4.3,8.102,8.6,11.243,14.813
		c11.073,21.902,9.334,37.055,1.893,59.434c-2.536,2.602-4.345,4.515-7.732,6.039c-3.183,1.428-3.955,0.249-7.022-0.905
		c-5.076-10.347-4.736-24.608-7.417-35.992C3424.279,3625.747,3419.153,3610.789,3415.65,3595.25z"/>
	<path style="fill:#FFFFFF;" d="M1033.074,3151.378c5.566,5.823,9.824,13.153,14.356,19.822
		c-2.333,17.49-6.475,35.133-19.503,47.854c-7.338,2.042-11.551,1.768-18.955,0.166c-7.442-5.441-10.239-12.899-14.124-20.972
		c-3.474-11.924-9.704-29.517-4.927-41.45c5.869,2.05,10.085,9.152,13.252,14.418l5.425,8.409c3.914,4.416,9.052,6.873,14.9,6.865
		C1033.29,3177.082,1032.348,3164.224,1033.074,3151.378z"/>
	<path style="fill:#FFFFFF;" d="M663.997,2355.176l6.961,2.449c3.261,8.973,2.719,18.785,2.875,28.231
		c0.277,16.693,0.173,33.402,0.2,50.099c0.083,50.996,0.566,102.054-0.613,153.033l-5.818-1.39
		C660.457,2577.616,663.572,2382.893,663.997,2355.176z"/>
	<path style="fill:#FFFFFF;" d="M1703.466,3209.82c12.746-0.448,25.006,2.814,37.437,5.221c17.946,3.478,35.702,6.408,53.528,10.65
		c-0.311,11.065,0.988,21.823,2.216,32.792l-2.212,2.768l-16.514-3.893c0.544-2.482,0.992-4.072,1.079-6.715
		c0.228-7.073-3.752-10.239-8.089-14.987c-5.279-1.357-6.802-1.938-11.754,1.34c-5.694,3.764-6.5,7.599-6.964,13.863
		c-4.52,3.104-2.112,2.606-7.599,1.66c-9.923-1.714-13.036-4.495-18.677-12.712c-5.798-8.442-11.073-14.892-18.693-21.649
		C1703.943,3215.249,1704.416,3213.975,1703.466,3209.82z"/>
	<path style="fill:#FFFFFF;" d="M420.749,3103.919l92.994,4.213c4.11,8.629,16.601,25.761,17.269,33.792
		c-16.905-3.536-104.829-19.905-112.399-28.704L420.749,3103.919z"/>
	<path style="fill:#FFFFFF;" d="M673.702,3072.658l1.82,2.204c-0.575,2.893-1.004,5.686-0.805,8.662
		c0.589,8.828,5.336,12.8,11.811,17.739c4.046,0.722,6.127,2.025,9.955-0.033c5.522-2.968,8.534-7.625,9.941-13.663l1.645-7.276
		l8.522,11.721c1.347,16.925-0.759,26.363-7.943,41.384c-5.062,8.699-10.65,15.273-17.507,22.537
		c-17.757-17.531-24.216-37.744-28.962-61.451c-0.428-2.142-2.035-8.579-0.967-10.314c0.31-0.506,5.167-1.386,6.155-2.075
		C669.25,3080.785,672.252,3074.816,673.702,3072.658z"/>
	<path style="fill:#FFFFFF;" d="M643.461,3105.201c4.478,13.958,6.348,28.571,12.237,42.139c3.932,9.06,10.085,16.958,15.912,24.865
		l-98.926-21.893c-4.627-1.199-10.616-1.552-13.753-5.18l2.572-0.677c10.671-3.931,16.152-19.731,20.931-29.256
		c4.657,9.957,10.499,24.01,20.909,29.148c6.678,3.295,11.822,2.299,18.589,0C634.498,3133.656,639.254,3120.529,643.461,3105.201z"
		/>
	<path style="fill:#FFFFFF;" d="M1231.641,3189.11c4.52,2.997,9.413,5.221,14.261,7.637c-1.146,22.176-1.988,44.38-18.934,61.102
		c-5.752,5.678-9.679,7.724-17.739,7.736c-7.151-4.798-10.965-11.816-15.51-18.917c-5.271-10.268-9.189-23.458-11.065-34.876
		c-1-6.093,0.125-7.616,3.748-12.455l3.113,0.901c2.644,7.749,5.354,12.409,11.057,18.299c6.678,2.532,7.832,2.59,14.883,1.382
		C1227.026,3212.008,1228.603,3201.868,1231.641,3189.11z"/>
	<path style="fill:#FFFFFF;" d="M2546.924,3362.007l68.274,11.617l11.688,25.973l-3.412,0.27c-7.056-0.436-8.048-1.872-15.361,1.146
		l-1.457,3.968c0.099,4.935,1.473,9.363-1.859,13.169l-40.288-16.385c-6.91-14.875-12.788-20.183-28.086-25.898l-2.702-0.984
		C2539.059,3371.49,2542.807,3366.717,2546.924,3362.007z"/>
	<path style="fill:#FFFFFF;" d="M4368.617,3667.836l77.641,15.543c0.208,10.04,1.204,20.607-0.764,30.485l-10.193-0.876
		c-18.312-4.287-36.739-8.45-55.175-12.152c-9.658-1.938-20.216-2.499-28.771-7.62l-0.452-4.13
		C4354.593,3679.47,4361.08,3674.365,4368.617,3667.836z"/>
	<path style="fill:#FFFFFF;" d="M778.044,3095.672c10.509,7.267,8.997,23.13,21.666,29.713c4.976,2.582,4.524,1.668,9.475,0.286
		c4.308-8.853,0.627-16.373,2.644-25.89c5.188,0.037,7.67,0.087,12.003,3.063c-0.108,18.008-2.104,32.925-8.019,49.917
		c-4.233,7.786-9.65,18.415-18.295,22.072c-2.64,1.112-4.806,2.183-7.467,0.598c-7.985-4.752-12.621-16.826-15.576-25.172
		c-1.715-4.839-11.831-37.404-9.338-39.998c0.384-0.398,6.7-2.577,7.263-3.042C774.119,3105.787,776.872,3098.071,778.044,3095.672z
		"/>
	<path style="fill:#FFFFFF;" d="M1630.402,3252.764c5.412,2.357,12.692,5.594,16.826,9.869c5.242,5.425-2.731,7.591-1.992,15.564
		c0.689,7.413,5.092,9.824,10.16,14.286c23.591,0.685,8.861-18.884,19.714-28.36l7.437,3.478c5.599,7.516,5.18,17.618,6.026,26.678
		l1.05,35.548l-56.445-10.367C1629.726,3297.231,1630.232,3275.185,1630.402,3252.764z"/>
	<path style="fill:#FFFFFF;" d="M3566.799,3812.407l72.333,18.996l0.876,36.565l-3.632,0.922
		c-16.664-4.636-33.332-9.251-50.012-13.833c-9.621-2.644-21.744-4.267-29.505-10.795
		C3555.149,3832.98,3561.163,3821.778,3566.799,3812.407z"/>
	<path style="fill:#FFFFFF;" d="M1089.125,3156.957c9.044,5.412,12.679,26.757,15.593,36.785c5.271,4.873,5.01,4.893,12.165,5.08
		c11.33-7.687,13.186-20.515,16.29-32.987l12.451,23.25l-3.764,23.296l-6.902,14.003c-4.167,6.956-10.011,12.443-18.129,13.987
		c-4.856,0.926-9.193,1.034-13.352-1.996c-16.747-12.219-20.416-47.92-22.271-67.303
		C1080.609,3164.863,1085.319,3161.663,1089.125,3156.957z"/>
	<path style="fill:#FFFFFF;" d="M3731.877,3818.421l3.902-0.344c9.488,10.256,10.961,20.125,13.252,33.373l-65.136,16.793
		l-13.485,3.15l-4.009-2.802l-0.303-37.457L3731.877,3818.421z"/>
	<path style="fill:#FFFFFF;" d="M627.64,2360.634c5.597,0.34,9.53-0.846,13.448,3.441l3.342,224.192l-17.293-1.826L627.64,2360.634z
		"/>
	<path style="fill:#FFFFFF;" d="M1939.781,3250.685l26.691,3.221l-0.705,129.081c-8.591-3.233-17.423-4.723-26.401-6.458
		L1939.781,3250.685z"/>
	<path style="fill:#FFFFFF;" d="M834.125,1919.025l4.499,0.959l-30.286,62.476l-67.605,12.721l-3.611-0.897
		c10.875-18.722,33.754-48.435,52.801-59.222C802.923,1927.699,819.844,1923.669,834.125,1919.025z"/>
	<path style="fill:#FFFFFF;" d="M3882.901,2011.827c18.934,1.585,50.514,3.951,66.402,13.991
		c3.926,17.091-6.417,35.067-14.995,49.195c-6.23,6.271-11.575,10.712-20.063,13.406c-4.972-0.797-7.512-0.714-11.364-4.217
		C3885.802,2068.667,3883.69,2033.077,3882.901,2011.827z"/>
	<path style="fill:#FFFFFF;" d="M4508.568,3526.238l1.664,0.984c-9.799,24.574-19.237,49.091-25.612,74.823
		c-2.486,10.023-4.316,20.125-5.338,30.397c-0.535,5.391,0,14.983-2.834,19.557c-1.399,2.254-13.601,3.627-16.751,4.221
		c-5.362-8.002-1.619-108.973-1.511-125.263L4508.568,3526.238z"/>
	<path style="fill:#FFFFFF;" d="M1766.892,3274.579c3.773,1.241,6.375,2.66,9.766,4.657c5.375,11.957,11.683,22.122,19.212,32.842
		c-2.943,19.855-7.384,42.417-21.756,57.449c-5.682,5.939-15.821,11.572-24.296,10.459c-11.521-1.515-18.195-12.733-24.288-21.428
		c-6.587-12.493-10.588-25.242-12.708-39.2c6.271-4.814,12.949-11.306,20.395-13.924c0.344,6.387,0.689,12.443,3.204,18.419
		c2.187,5.213,6.89,9.446,12.094,11.414c6.3,2.386,11.986,0.365,17.705-2.274c4.001-9.459,4.279-18.918,6.13-28.854
		C1774.483,3292.72,1770.868,3285.212,1766.892,3274.579z"/>
	<path style="fill:#FFFFFF;" d="M4520.716,3434.792l4.673-0.61l3.113,2.59l0.166,58.342c-19,4.258-39.396,4.785-58.807,6.45
		l-8.803,0.39c-6.001-6.67-2.714-49.086-2.772-60.442L4520.716,3434.792z"/>
	<path style="fill:#FFFFFF;" d="M586.96,2365.61c6.114-0.44,13.771-1.847,19.633,0.158l8.867,222.843l-16.338,0.266
		c-5.954-6.67-5.083-41.844-5.544-52.299C591.057,2479.555,588.561,2422.682,586.96,2365.61z"/>
	<path style="fill:#FFFFFF;" d="M3557.984,3546.4l73.645,14.56l0.826,61.019l-74.528-12.679L3557.984,3546.4z"/>
	<path style="fill:#FFFFFF;" d="M3331.862,3505.867c45.098,3.698,91.462,16.813,135.444,27.272
		c1.693,5.445,5.138,12.522,3.702,17.946l-1.917,0.34l-3.088,0.619c-5.138,0.963-9.085,1.349-13.153,4.985l-2.648,2.499
		c-2.573,4.814-4.574,8.741-8.869,12.31c-13.821-4.155-39.674-0.739-50.403-7.512c0.606-2.976,1.341-6.026,1.357-9.089
		c0.033-5.898-3.267-10.571-7.537-14.331c-10.102-8.886-22.474-11.306-35.481-10.745c-6.205,4.827-10.671,11.625-15.381,17.867
		L3331.862,3505.867z"/>
	<path style="fill:#FFFFFF;" d="M3120.956,3464.43l78.886,16.378c13.75,14.663,29.111,29.119,39.574,46.368
		c0.162,5.122,0.34,8.633-1.44,13.534l-18.395-4.117l-23.184-4.329c-2.005-5.628-4.051-12.572-7.471-17.494
		c-4.366-6.288-8.812-9.405-16.564-9.969c-20.25-1.482-36.001,19.889-50.066,31.966L3120.956,3464.43z"/>
	<path style="fill:#FFFFFF;" d="M4422.468,3532.173l5.387-0.51c5.288,5.449,2.934,29.671,2.951,38.001
		c0.054,26.932-0.333,53.876-0.623,80.804c-10.649-1.162-22.553-1.303-32.418-5.653l-1.137-6.039
		c-4.212-35.324-12.24-65.19-25.222-98.24L4422.468,3532.173z"/>
	<path style="fill:#FFFFFF;" d="M3722.049,3544.594l12.692-0.618c3.238,4.943,2.03,11.264,2.092,17.125
		c0.187,16.863,0.369,33.722,0.556,50.585c-21.665,1.486-43.102,6.126-64.331,10.492l-9.911,0.668
		c-3.872-5.25-2.478-11.343-2.528-17.747c-0.133-17.224-0.261-34.448-0.394-51.668L3722.049,3544.594z"/>
	<path style="fill:#FFFFFF;" d="M2705.581,3389.673l93.687,17.813l16.605,26.617l22.695,10.21
		c-3.009,5.142-5.852,10.787-10.331,14.821c-4.262,3.835-16.203,1.258-22.138,0.897l-24.911-3.557l-0.415-1.905l-0.784-3.092
		c-1.208-4.927-2.096-9.426-5.728-13.223c-4.881-5.101-10.724-7.023-17.718-6.79c-16.701,0.56-27.646,14.821-37.611,26.471
		l-7.263,0.423c4.159-1.1,3.681-1.569,6.138-4.806c-3.669-2.092-6.529-4.565-9.679-7.367
		C2704.461,3427.732,2705.531,3408.416,2705.581,3389.673z"/>
	<path style="fill:#FFFFFF;" d="M830.996,3174.762l140.138,27.364c8.126,19.416,15.161,31.584,31.12,45.621l-18.444-3.304
		l-177.276-41.923C815.669,3193.779,823.367,3184.843,830.996,3174.762z"/>
	<path style="fill:#FFFFFF;" d="M1834.784,3288.13c3.81,6.018,4.408,12.995,5.956,19.893c2.785,12.402,5.686,25.102,10.023,37.067
		c3.806,10.517,6.927,17.917,17.34,22.781c5.545-0.203,8.425-0.423,12.451-4.624c16.461-17.17,12.028-47.916,11.14-69.644
		c8.297,10.14,17.066,18.316,27.106,26.712l-2.158,29.85c-1.573,9.442-3.661,19.287-7.446,28.094
		c-5.479,12.746-16.473,31.593-30.717,35.942c-5.669,1.731-13.626,1.772-18.677-1.573c-21.611-14.31-34.594-55.109-38.167-80.082
		C1819,3314.132,1823.935,3302.615,1834.784,3288.13z"/>
	<path style="fill:#FFFFFF;" d="M2669.485,3557.399l37.279,3.876c13.588,39.188,28.327,63.592,61.99,88.304l-64.647-13.452
		l-113.662-25.558l12.277-1.88C2632.991,3603.887,2651.817,3580.259,2669.485,3557.399z"/>
	<path style="fill:#FFFFFF;" d="M3572.137,3638.36l62.16,11.679l1.801,148.513l-29.659-4.648
		C3601.293,3741.12,3583.766,3690.024,3572.137,3638.36z"/>
	<path style="fill:#FFFFFF;" d="M4416.483,3428.45c5.408-0.531,5.939-1.486,10.799,1.457l-0.838,2.544
		c-20.748,7.101-46.684,8.774-68.502,12.011c-44.617,6.62-89.258,12.958-133.908,19.345c-133.967,19.154-267.8,39.91-401.587,60.301
		h-8.915c-1.544-4.549-1.332-7.097-0.539-11.808c13.339-6.292,37.777-6.209,53.004-8.23c37.831-5.018,75.6-10.642,113.401-15.884
		C4125.072,3467.991,4270.319,3445.01,4416.483,3428.45z"/>
	<path style="fill:#FFFFFF;" d="M3721.559,3642.021l6.956-0.843l2.569,2.254c-7.504,50.074-33.963,99.261-33.369,150.381
		l-28.845,6.126l-2.237,0.436l-3.254-2.341l-1.146-145.761L3721.559,3642.021z"/>
	<path style="fill:#FFFFFF;" d="M3799.399,1298.454c15.087-0.793,34.963,10.77,48.385,16.963
		c2.855,28.887,9.911,48.232,31.622,68.311c15.684,14.505,36.519,23.528,58.214,22.167c33.892-2.125,60.956-24.89,67.444-58.533
		c1.39-7.222,0.046-19.648,4.64-24.832c9.533,0.452,18.025,0.54,25.658,6.919c13.381,11.181,13.945,34.199,15.747,50.452
		c-29.136,8.471-58.176,16.656-86.332,28.082c-13.31,5.404-27.056,10.575-38.541,19.399l-1.615,1.282
		c-8.38,1.183-15.892-0.54-24.072-2.1l-2.868-7.45c-25.604-61.065-81.459-80.331-137.689-103.112
		C3772.82,1307.793,3785.022,1303.107,3799.399,1298.454z"/>
	<path style="fill:#FFFFFF;" d="M3887.819,1878.33c13.356-0.793,25.595-0.382,38.877,1.088c13.219,1.465,39.587,6.541,49.394,15.664
		c3.424,3.183,5.366,6.711,5.67,11.347c1.029,15.85-7.741,36.615-17.71,48.427l-9.899-1.536
		c-31.082-8.953-54.702-10.027-86.884-8.168c-6.525-17.22-16.253-42.263-9.197-60.446
		C3866.374,1877.807,3877.472,1878.845,3887.819,1878.33z"/>
	<path style="fill:#FFFFFF;" d="M2552.187,3434.854l2.054,1.789c3.038,4.553-3.872,16.867-5.873,21.943l-20.939,13.165l-0.664,3.59
		l5.4,3.594c9.45-0.901,14.099-6.753,20.478-13.041c-0.743,14.593-2.536,29.962,3.37,43.687
		c4.429,10.289,12.422,22.599,23.882,25.932c5.532,1.61,12.638,0.813,17.639-1.872c8.334-4.483,13.667-14.431,16.481-23.068
		c9.405-28.833-1.216-43.384-14.51-68.095c5.852,4.034,13.049,8.255,17.826,13.53c8.284,9.143,10.795,17.647,21.661,25.537
		l18.174,6.794c-3.818,21.736-6.333,47.443-19.017,65.97c-8.218,12.003-23.52,25.056-38.541,26.812
		c-13.871,1.619-25.832-0.556-37.155-9.152c-22.296-16.925-37.789-49.68-41.603-77.064l-0.519-4.001l-1.411-11.671
		c-0.548-7.653-1.075-16.834,3.906-22.773c6.699,0.423,12.314,0.61,18.893-0.834
		C2546.418,3449.273,2549.132,3442.084,2552.187,3434.854z"/>
	<path style="fill:#FFFFFF;" d="M3923.023,1263.732c8.911,0.548,17.079,0.872,24.923,5.645c16.299,9.919,27.031,29.352,30.792,47.68
		c3.138,15.274,1.266,33.224-7.807,46.194c-8.766,12.534-21.719,15.597-35.984,17.992l-0.739-0.145
		c-8.571-1.581-17.216-2.955-24.99-7.126c-17.05-9.152-28.663-25.458-33.145-44.152c-3.461-14.427,0.178-31.875,8.28-44.193
		C3893.705,1271.406,3907.268,1266.965,3923.023,1263.732z"/>
	<path style="fill:#FFFFFF;" d="M3918.175,1094.791c3.441,0.232,3.627-0.166,6.421,1.32c30.576,16.261,48.148,47.925,56.586,79.849
		c-3.142,10.447-7.512,22.632-14.672,31.107c-9.392,11.123-19.569,12.335-33.058,13.954c-21.802-4.101-37.852-13.609-50.224-32.497
		c-8.774-13.402-15.107-30.626-11.534-46.738C3876.207,1121.457,3901.993,1105.42,3918.175,1094.791z"/>
	<path style="fill:#FFFFFF;" d="M2733.667,3479.326c8.002,1.137,20.727,1.772,27.036,6.806c-4.246,10.21-5.462,4.055-12.289,9.961
		c3.74,3.972,4.233,3.976,4.656,9.338c-3.922,4.628-5.283,7.906-11.31,9.264l-3.329-5.113c1.004-7.413,2.133-7.384,7.479-12.186
		l-2.075-2.108l-7.263,0.971l-2.025,3.984c0.942,2.619,1.726,4.765,1.793,7.587l-0.021,2.789c0.05,6.47-0.357,7.678,4.403,12.318
		l9.338-0.17l4.15-0.473c4.437,15.456,8.944,30.621,18.997,43.504c6.595,8.458,18.183,18.241,29.397,19.117
		c8.209,0.643,16.967-2.855,23.201-8.039c14.452-12.011,17.805-34.979,19.088-52.606c8.073,8.305,17.594,15.34,28.642,18.988
		l3.092-2.548l0.56-7.263c-5.113-7.288-22.263-9.405-30.729-15.02l-1.465-1.025c8.251-0.792,15.83-0.232,24.027,0.847
		c4.727,0.627,4.354-0.066,8.197-2.44l-1.063-8.301l2.569-1.809l8.367,1.809c0.419,2.482,0.797,4.736,0.801,7.263
		c0.029,37.66-8.931,73.989-38.158,100.012c-13.265,11.812-28.21,17.78-45.99,15.888c-21.093-2.241-38.271-15.622-50.967-31.817
		c-18.909-24.114-32.659-67.892-27.675-98.202l0.477-2.482C2726.976,3490.689,2729.55,3485.705,2733.667,3479.326z"/>
	<path style="fill:#FFFFFF;" d="M846.016,3063.32l113.492,18.403l5.752,93.504l-119.199-22.711L846.016,3063.32z"/>
	<path style="fill:#FFFFFF;" d="M3271.906,3528.661c23.167,6.703,16.016,27.67,25.94,43.554l1.087,1.698
		c7.351,12.655,3.57,51.299-0.793,65.236l-1.095,3.246c-6.636,20.494-17.224,38.636-33.901,52.647
		c-14.223,11.953-30.858,17.295-49.278,14.709c-22.354-3.138-40.798-18.515-53.751-36.229
		c-19.524-26.691-36.54-67.083-29.904-100.547c1.714-8.649,5.329-12.655,12.347-17.581c11.082-2.158,22.969-0.349,33.95,1.917
		c2.083,10.077,1.411,10.26-3.69,19.328c-2.112,1.905-8.151,7.437-10.832,8.118c-7.488,1.893-14.365-1.473-20.956,3.682
		c5.08,15.709,15.834,5.869,23.101,12.451c1.287,1.166,3.237,8.637,4.175,10.973c3.959,9.89,8.326,20.32,15.07,28.654
		c7.355,9.094,20.636,22.578,33.27,23.081c7.927,0.315,16.203-4.902,21.586-10.322c16.129-16.241,16.78-34.465,17.158-55.873
		c12.887,7.625,22.806,14.605,38.37,14.024l2.926-3.275c-7.857-11.679-26.006-13.792-36.129-23.446
		c-4.453-4.25-4.445-7.002-4.499-12.87l4.947-1.552l-0.946-3.635l2.179-3.113l2.469,0.851c2.079,6.566,3.764,9.679,8.77,14.46
		l1.395,1.291l-1.519,5.188c3.503,2.146,8.151,1.938,12.106,0.344c5.856-2.353,6.55-4.383,9.127-9.683
		c-0.523-8.201-2.166-17.249-7.392-23.936c-4.811-6.155-14.83-7.91-21.914-9.546c-3.482-0.805-3.404-1.39-5.769-3.872
		C3262.509,3533.795,3267.17,3531.538,3271.906,3528.661z"/>
	<path style="fill:#FFFFFF;" d="M3483.248,3535.422l42.546,7.035c1.382,40.832-0.971,80.704-6.653,121.142
		c-2.934,20.885-5.831,43.43-16.909,61.803c-10.314,17.104-28.322,29.401-47.746,33.606c-20.266,4.383-39.387-0.66-56.341-12.044
		c-36.603-24.574-53.096-62.766-60.961-104.54c13.331,4.997,27.393,7.674,41.255,10.787l10.903,19.519l3.781,5.715
		c9.567,14.016,22.578,27.334,39.798,30.406c6.151,1.096,15.489-4.603,20.238-8.206c20.32-15.41,21.844-37.271,24.865-60.616
		l31.56,17.477l2.872-1.623c0.125-3.955,0.54-4.661-1.39-8.396c-2.901-5.628-8.446-10.716-14.655-12.306
		c-4.948-1.266-1.922-0.079-6.246-2.125c3.544-6.574,5.462-8.043,4.345-15.564l2.108,0.216l2.59,5.039
		c7.122,0.423,13.51,2.44,19.171-2.142l0.992-10.376c-1.378-15.85-52.087-24.998-64.26-35.278c2.146-5.67,5.873-8.135,10.463-11.725
		c4.088-0.709,7.674-1.955,11.75-0.809c6.67,1.88,13.58,9.33,16.95,15.19c1.648,2.872,2.715,4.686,4.935,7.052
		c8.612-3.565,16.128-5.719,21.449-13.858l-1.544-3.113c-3.765-0.129-7.981-0.174-11.604-1.283
		C3493.993,3562.271,3488.486,3546.96,3483.248,3535.422z"/>
	<path style="fill:#FFFFFF;" d="M408.722,2779.126l117.652,11.746c3.192,39.761,20.214,72.499,35.792,108.524
		c13.38,30.945,26.435,61.999,39.307,93.16l-114.653-17.722c-15.473-47.601-38.23-92.844-57.544-138.967
		C421.584,2817.496,411.742,2798.932,408.722,2779.126z"/>
	<path style="fill:#FFFFFF;" d="M2913.404,3427.786l182.115,31.933c0.22,28.007,0.448,56.009,0.706,84.012
		c0.27,29.057-1.644,53.698,9.567,81.024l-2.826,1.531l-197.123-42.72c2.47-3.868,5.026-8.127,6.105-12.65
		c3.104-13.036,1.137-30.19,1.183-43.708C2913.25,3494.068,2913.333,3460.927,2913.404,3427.786z"/>
	<path style="fill:#FFFFFF;" d="M4236.265,2817.92l102.49-0.768c-36.665,33.963-57.263,79.937-64.406,129.069
		c-4.2,28.878-2.582,59.064-2.54,88.192c0.008,4.794,1.64,21.375,0.054,24.853c-0.577,1.262-1.839,2.079-2.76,3.117l-13.949-1.822
		l-109.653-17.793c-0.07-22.171-0.1-44.339-0.079-66.51c0.013-15.037-0.813-30.518,3.042-45.169
		c4.723-17.955,9.4-34.643,18.154-51.178C4183.07,2848.819,4201.875,2828.433,4236.265,2817.92z"/>
	<path style="fill:#FFFFFF;" d="M4420.688,3461.583l7.167-0.789l3.113,2.835l0.208,39.715l-656.504,103.834l-8.803,0.768
		c-5.018-7.027-2.112-36.768-2.125-46.821L4420.688,3461.583z"/>
	<path style="fill:#FFFFFF;" d="M552.516,2792.237l148.888,14.091l96.579,219.09l-164.234-26.5
		c-17.295-38.379-34.364-76.571-50.935-115.269C569.971,2853.659,553.455,2825.353,552.516,2792.237z"/>
	<path style="fill:#FFFFFF;" d="M2888.974,3607.253l231.509,49.962c13.75,26.596,31.319,54.993,58.296,69.76
		c22.69,12.422,45.31,16.805,70.582,9.135c33.896-10.285,53.088-34.494,68.938-64.531c6.873,24.911,16.39,48.664,32.161,69.295
		c18.299,23.944,45.414,45.608,76.114,49.24c29.011,3.428,55.715-4.569,77.924-23.749c36.494-31.514,39.416-77.558,42.678-122.308
		l15.057,65.045c4.275,18.009,10.086,35.727,13.846,53.835c1.054,5.093,3.026,10.496,0.947,15.315
		c-7.222-0.469-13.539,0.058-19.714,4.042c-14.597,9.417-19.868,27.31-23.798,43.172l-717.631-164.741
		C2852.829,3652.414,2868.019,3637.717,2888.974,3607.253z"/>
	<path style="fill:#FFFFFF;" d="M4113.302,2270.986l109.408,9.608c0.685,78.75,0.062,157.561,0.033,236.315
		c-0.008,23.881-0.021,47.762-0.046,71.644c-0.012,14.427,0.917,29.314-1.071,43.592c-21.208,0.153-42.417,0.294-63.625,0.39
		c-13.223,0.058-27.405,1.229-40.388-1.307c-3.889-4.142-3.793-5.096-4.208-10.82c-3.25-44.911,0.199-92.155,0.398-137.374
		C4114.115,2412.398,4112.525,2341.546,4113.302,2270.986z"/>
	<path style="fill:#FFFFFF;" d="M1269.132,3132.312l336.368,59.206l0.643,122.777l-339.265-72.358L1269.132,3132.312z"/>
	<path style="fill:#FFFFFF;" d="M4385.007,2817.517l104.092,0.216c-34.473,36.88-49.348,78.164-57.898,127.367
		c-6.313,36.324-3.188,75.894-3.241,112.833c-0.1,64.891-0.1,129.787-0.087,194.678l-29.293,4.001l-4.964,0.643
		c-1.038-0.975-2.548-1.615-3.113-2.922c-1.199-2.789-0.075-13.202-0.095-16.593c-0.154-22.719,0.224-45.65-1.44-68.307
		c-0.971-13.215-2.751-25.475-8.155-37.69c-16.108-36.424-48.136-51.241-83.004-64.414c-0.116-24.159-0.216-48.323-0.149-72.487
		c0.054-19.627-0.395-40.076,4.482-59.209l1.042-3.993l7.093-24.122C4324.1,2868.741,4347.259,2835.654,4385.007,2817.517z"/>
	<path style="fill:#FFFFFF;" d="M3958.164,3050.815c23.723-0.867,48.804-2.963,72.358-0.195
		c52.751,6.201,105.046,16.302,157.383,25.222c24.313,4.142,48.605,8.342,72.873,12.771c19.208,3.507,38.648,6.516,56.52,14.754
		c16.415,7.571,27.476,20.491,38.454,34.353l-175.342,16.626l-368.886,32.713l-0.137-128.587L3958.164,3050.815z"/>
	<path style="fill:#FFFFFF;" d="M1066.501,1808.039l35.092-0.818l-37.926,11.127c-129.363,49.912-231.442,156.474-286.719,282.235
		l-327.333,55.715c16.918-26.87,35.901-51.266,55.478-76.168c7.275-9.255,13.528-19.561,21.397-28.272l9.338,8.737
		c14.312,6.143,107.371-19.212,127.742-23.487c39.031-8.185,78.369-14.896,117.278-23.661c25.224-5.682,38.485-9.127,53.119-32.215
		c6.832-15.531,14.107-30.808,21.217-46.206c3.021-6.545,7.711-15.203,7.3-22.582c-0.49-8.712-6.898-15.348-13.302-20.32
		c-18.648-2.034-48.385,12.024-66.91,17.27c-27.954,7.923-56.416,15.095-84.658,21.931c-24.916,6.031-55.271,8.322-78.779,17.859
		c-7.303,8.562-9.517,16.892-9.176,28.194c0.396,13.128,4.934,25.62,14.364,34.718c11.223,1.594,22.336-5.864,33.203-8.666
		c16.402-4.225,33.434-6.093,49.198-12.538c4.123-1.685,5.398-2.411,9.945-2.495c1.097,5.479,2.211,7.23-0.209,12.397
		l-173.235,35.693l0.569-1.079c10.766-20.86,25.535-38.914,39.56-57.632c11.461-15.294,22.731-31.95,35.781-45.916
		c11.556-12.368,26.968-22.375,42.542-29.003c39.118-16.651,84.506-25.039,125.669-35.785
		C876.704,1843.67,973.736,1810.874,1066.501,1808.039z"/>
	<path style="fill:#FFFFFF;" d="M3839.364,2244.946l142.661,7.989l1.731,368.368l-143.836-0.15L3839.364,2244.946z"/>
	<path style="fill:#FFFFFF;" d="M3571.543,2161.162l193.304,13.68l0.12,676.63l-5.835-6.346
		c-8.479-9.027-16.772-17.947-27.198-24.778c-30.206-19.805-63.792-17.627-98.36-18.693l-71.017-1.478l-0.154-153.556
		c36.054-0.116,72.092-0.004,108.143,0.22c16.879,0.108,38.623,2.772,54.855-1.461c4.852-3.885,7.276-7.355,8.579-13.56
		c2.81-13.393,0.934-30.493,0.946-44.367c0.025-31.755,0.038-63.505,0.033-95.26c-0.008-58.205-0.054-116.41-0.157-174.615
		c-0.046-27.878,1.523-56.881-0.332-84.643c-0.456-6.807-2.121-11.646-5.736-17.357c-9.666-7.334-141.648-11.152-164.592-12.397
		L3571.543,2161.162z"/>
	<path style="fill:#FFFFFF;" d="M4359.37,3165.025c6.491,8.753,2.909,81.281,2.838,95.355l-546.61,60.222l-1.88-0.892
		c-3.976-6.081-2.063-21.283-2.071-28.903c-0.029-25.483-0.058-50.967-0.092-76.446L4359.37,3165.025z"/>
	<path style="fill:#FFFFFF;" d="M3562.458,2229.071l147.272,7.74l0.311,383.687l-147.243,0.714L3562.458,2229.071z"/>
	<path style="fill:#FFFFFF;" d="M4053.254,2200.944l171.038,15.356l-0.079,37.287c-36.864-1.498-75.964-12.19-112.558-10.235
		c-4.611,0.245-9.716,1.602-13.219,4.76c-7.126,6.429-10.359,18.017-10.667,27.243c-2.22,66.323,1.619,134.091,1.789,200.576
		c0.087,34.133,0.166,68.27,0.266,102.403c0.054,18.224-1.208,37.656,0.892,55.74c0.855,7.4,3.092,12.38,8.434,17.693
		c10.874,10.82,101.643,5.906,123.362,6.18l0.195,134.485c-20.15,7.94-34.743,17.137-49.929,32.701
		c-27.965,33.058-46.269,71.445-51.851,114.675c-3.523,27.284-1.863,56.598-1.785,84.136l-60.371,0.527L4053.254,2200.944z"/>
	<path style="fill:#FFFFFF;" d="M1991.142,3256.807l440.995,82.074l0.73,147.007l-441.145-95.372L1991.142,3256.807z"/>
	<path style="fill:#FFFFFF;" d="M3756.169,2004.676c31.696-3.74,67.78,2.337,99.435,5.786c1.988,29.704,5.275,58.558,21.993,84.12
		c6.666,10.189,17.834,21.528,30.422,23.57c10.945,1.776,19.764-3.005,28.331-9.272c27.019-19.777,35.108-50.884,40.504-81.937
		c33.054,6.392,66.776,12.115,98.219,24.595c65.443,25.977,114.156,73.449,141.989,137.768l-72.47-6.836l-561.406-48.439
		c5.03-15.215,14.456-30.493,24.002-43.297C3644.715,2040.407,3694.731,2014.052,3756.169,2004.676z"/>
	<path style="fill:#FFFFFF;" d="M1061.06,3207.317c2.814,3.416,4.121,10.559,5.665,14.854c4.719,13.111,11.613,27.119,22.74,35.855
		c8.38,6.583,20.437,13.613,31.568,11.737c18.556-3.13,32.589-25.55,41.732-40.425c6.109,22.416,13.875,43.359,32.307,58.753
		c5.574,4.657,16.232,7.421,23.495,6.213c15.195-2.523,26.23-17.755,35.365-28.928c53.901,17.402,112.795,24.782,168.215,36.664
		c50.643,10.853,101.444,20.943,152.05,31.937c41.574,9.035,82.688,19.121,124.665,26.297
		c10.409,17.465,16.664,34.822,35.403,45.546c9.044,5.176,19.05,6.325,29.04,3.424c20.519-5.952,31.759-22.968,41.952-40.371
		c8.28,23.035,18.175,48.24,37.548,64.256c10.571,8.745,24.18,12.451,37.748,10.314c21.188-3.337,35.573-21.893,46.771-38.57
		l502.118,109.591c19.187-8.442,50.174,3.208,70.615,7.778l6.578,13.999c11.783,26.695,26.77,47.501,48.506,66.884
		c-183.539-42.214-367.222-83.73-551.006-124.869c-40.255-9.015-80.206-19.648-120.469-28.426
		c-12.501-2.727-25.218-4.167-37.702-6.993c-31.51-7.126-62.505-16.361-94.031-23.508c-63.742-14.448-128.044-26.82-191.889-40.927
		c-119.332-26.363-238.261-54.52-357.041-83.165c-50.323-12.136-101.622-20.889-151.913-33.398
		c-7.786-1.938-32.165-5.786-36.756-11.659c4.914,0.029,9.459,0.033,14.169-1.61
		C1044.052,3243.144,1054.54,3221.217,1061.06,3207.317z"/>
	<path style="fill:#FFFFFF;" d="M4520.326,2822.747c13.115,1.27,20.876,7.251,30.049,16.436
		c20.461,20.586,33.867,54.523,39.138,82.63c4.897,26.201,4.275,51.983,4.275,78.508c0,30.149,0,60.302,0,90.45
		c0.042,101.498,0.042,203,0.042,304.497l-76.417,11.85l-63.169,8.438l-0.079-452.579
		C4458.174,2911.399,4480.599,2856.639,4520.326,2822.747z"/>
	<path style="fill:#FFFFFF;" d="M4407.158,3281.311l18.623-1.307c5.387,9.206,1.934,100.257,1.926,118.319l-599.291,83.605
		l-14.817,2.254c-4.271-6.022-1.946-23.417-1.984-31.568c-0.149-34.469-0.299-68.934-0.452-103.403L4407.158,3281.311z"/>
	<path style="fill:#FFFFFF;" d="M3791.543,2178.1l234.945,19.581l7.359,826.284l-22.773-0.154
		c-0.075-171.312-0.83-342.586-1.606-513.893c-0.261-57.006-0.473-114.011-0.76-171.017c-0.145-29.123,0.809-58.699-0.61-87.739
		c-0.274-5.603-0.735-11.509-4.345-16.066c-2.474-3.125-5.665-5.383-9.612-6.246c-11.887-2.607-27.343-1.644-39.603-2.391
		c-32.539-1.988-65.082-3.768-97.584-6.309c-8.006-0.315-27.517-3.192-33.9,0.079c-4.366,2.237-8.5,9.936-9.168,14.489
		c-2.063,14.062-0.365,31.045-0.377,45.372c-0.021,34.411,0.037,68.822,0.128,103.232c0.145,55.279,0.316,110.554,0.594,165.833
		c0.137,26.126-1.315,53.507,0.619,79.505c0.581,7.844,2.1,10.654,7.051,16.701c11.542,5.748,39.383,1.843,52.756,1.826
		c37.005-0.045,74.014,0.158,111.019,0.278l-0.39,376.548l-174.342,7.118c0.191-30.061,1.59-61.422-4.64-90.985
		c-3.569-16.917-14.887-37.104-15.402-53.772c-3.486-113.164,0.195-227.354,0.075-340.61
		C3790.85,2423.587,3787.135,2300.18,3791.543,2178.1z"/>
	<path style="fill:#FFFFFF;" d="M3687.464,2831.965c18.216,2.532,33.9,10.629,46.949,23.558
		c26.143,25.894,42.072,65.165,48.128,100.933c3.764,22.213,2.391,45.339,2.386,67.801c-0.004,34.54-0.021,69.075-0.042,103.615
		c-0.074,125.96-0.211,251.924-0.357,377.885l-81.41,12.023l-89.524,12.489c3.184-129.795,0.353-260.595-0.27-390.452
		c-0.174-36.088-0.357-72.179-0.477-108.271c-0.071-22.254-0.946-44.857,1.05-67.037c1.702-18.917,6.371-39.532,13.19-57.3
		C3638.385,2877.789,3657.656,2844.956,3687.464,2831.965z"/>
	<path style="fill:#FFFFFF;" d="M751.925,2131.383c3.904-0.71,6.367-1.079,10.229-0.042c-11.7,34.606-21.914,68.988-27.597,105.179
		c-9.284,59.114-8.128,117.784-8.198,177.387c-0.079,67.211,0.206,134.418,0.768,201.626c0.458,54.752,4.822,111.828-9.685,165.161
		l-147.244-11.272c8.407-54.719,3.564-114.347,4.935-169.813l1.58-0.942c1.584,5.009,3.083,9.131,5.713,13.729
		c11.275,3.893,87.439,3.736,98.665-0.274c5.729-2.046,9.98-8.027,11.913-13.551c3.162-9.031,2.27-19.735,2.374-29.248
		c0.192-17.656,0.167-35.32,0.196-52.98c0.062-37.291,0.242-74.607-0.204-111.899c-0.219-18.295,2.242-46.779-6.171-62.994
		c-1.62-1.233-5.346-4.889-7.07-5.383c-9.046-2.59-25.618,0.365-35.009,1.311c-22.799,2.299-45.624,4.292-68.38,7.006l-8.884,3.088
		c-11.731,16.299,4.085,205.419,5.325,236.572c-3.782,0.32-6.251,0.826-9.684,2.623c-5.423,2.843-11.577,9.608-13.171,15.556
		c-2.541,9.475-0.957,22.91-0.996,32.759c-0.164,42.5,4.789,90.644-7.739,131.729l-121.742-12.372
		c8.539-26.89,14.708-52.519,16.876-80.771c3.784-49.311-1.605-99.941-3.146-149.29c-1.766-56.578-2.711-113.351-5.719-169.867
		c-1.521-28.571-3.05-57.08-3.918-85.68c-0.456-15.049-1.794-30.775,0.257-45.7c1.82-13.24,7.269-26.558,11.615-39.15
		L751.925,2131.383z"/>
	<path d="M507.668,2349.333l6.558-0.789c11.082-1.195,17.873-1.839,26.656,5.155c10.983,22.856,5.774,65.211,5.82,90.698
		c0.078,43.073,0.442,86.199-0.061,129.272c-0.132,11.268,0.763,26.052-8.178,34.05c-8.926,7.99-38.136,4.076-50.365,3.744
		l-28.015-1.926c-4.256-3.598-6.739-6.62-7.448-12.24c-4.686-37.125-2.56-77.874-3.805-115.493
		c-1.178-35.61-6.17-74.138-3.373-109.429c0.51-6.437,2.443-10.488,6.408-15.402
		C463.979,2349.503,492.696,2350.694,507.668,2349.333z"/>
	<path style="fill:#FFFFFF;" d="M499.462,2372.4l5.556,3.698l0.723,210.089l-33.091-0.44l-4.64-181.517
		c-0.309-8.525-1.577-18.121,0.661-26.392l5.94-1.482l3.678,2.245l11.752,182.617c5.067-7.545,2.858-32.112,3.151-41.761
		c0.819-26.986,3.102-53.926,3.842-80.912c0.533-19.407-2.743-43.563,1.486-62.285L499.462,2372.4z"/>
	<path style="fill:#FFFFFF;" d="M3994.177,1214.413c11.447,4.644,22.031,14.929,31.701,22.628
		c29.858,23.782,58.355,48.813,85.353,75.794c173.076,172.972,263.123,429.578,282.414,669.611
		c4.146,51.602,2.602,103.689,2.743,155.424c0.22,81.148,0.336,162.268-0.49,243.416c-1.39,136.332,0.847,272.992,0.93,409.365
		l-83.589-1.133l0.033-66.435c0.734-136.515-0.162-273.063-0.374-409.581c-0.208-130.994,4.18-262.802-17.992-392.481
		c-11.949-69.901-34.572-138.229-63.376-202.917c-54.561-122.54-146.48-230.367-273.664-279.118
		c17.029-7.354,34.602-13.634,52.39-18.884c16.377-4.839,43.961-8.351,57.097-19.046c6.197-5.047,8.6-10.579,9.359-18.411
		c1.656-17.104-4.943-52.063-15.917-65.261c-14.937-17.963-37.748-19.984-59.351-21.213c-12.09-22.213-23.383-36.499-44.932-50.058
		C3973.683,1237.369,3982.448,1229.321,3994.177,1214.413z"/>
	<path d="M4361.391,2618.12c9.351,0.627,15.863,1.365,22.541,8.471c5.839,6.209,7.649,12.617,6.948,21.093
		c-0.793,9.583-7.62,14.614-14.456,20.515l-13.937-0.245c-3.764-1.855-7.367-3.395-10.069-6.732
		c-6.014-7.417-7.047-15.198-5.499-24.371C4348.513,2627.417,4353.941,2623.412,4361.391,2618.12z"/>
	<path d="M4355.494,2361.182l15.294-0.423c5.313,0.789,9.227,4.026,12.539,8.056c4.686,5.699,5.765,12.157,4.793,19.362
		c-1.299,9.662-5.632,14.667-13.19,20.358l-11.405,2.108c-5.097-1.15-7.832-2.353-11.58-6.143
		c-6.412-6.479-9.836-13.887-9.172-23.114C4343.461,2371.84,4348.488,2367.013,4355.494,2361.182z"/>
	<path d="M4331.691,1869.095l7.969-0.652c6.773-0.033,11.937,1.515,16.602,6.616c5.317,5.819,9.405,14.605,8.417,22.615
		c-1.27,10.301-7.524,15.925-15.498,21.69c-3.067,0.544-6.367,1.295-9.521,1.087c-5.748-0.373-11.621-4.018-15.369-8.23
		c-5.014-5.632-6.919-13.107-6.333-20.52C4318.8,1881.032,4323.93,1875.848,4331.691,1869.095z"/>
	<path d="M4352.438,2114.018l8.642-0.261c6.881,0.311,11.31,0.971,15.97,6.649c4.902,5.964,8.828,14.991,7.978,22.786
		c-1.191,10.936-6.956,16.195-15.166,22.781l-2.457,0.05c-9.268,0.079-15.452-0.735-21.948-7.782
		c-5.619-6.097-6.964-13.269-6.586-21.379C4339.39,2125.834,4344.358,2120.883,4352.438,2114.018z"/>
	<path d="M4251.41,1607.471c5.097-0.054,10.21,0.232,15.107,1.805c6.039,1.942,12.173,7.811,14.51,13.742
		c2.482,6.296,2.282,14.705-0.444,20.885c-3.316,7.508-8.633,10.887-15.913,13.983l-11.712-0.755
		c-7.487-1.2-13.468-4.35-17.452-11.082c-3.461-5.844-3.279-12.8-1.336-19.083C4237.423,1616.44,4242.018,1612.85,4251.41,1607.471z
		"/>
	<path d="M4124.915,1435.031c3.071,0.046,6.267-0.017,9.301,0.602c6.765,1.378,14.302,6.08,17.855,12.082
		c4.499,7.599,4.565,17.394,1.834,25.575c-2.959,8.869-10.23,11.941-18.05,16.016l-3.889-0.593
		c-9.313-1.548-18.266-5.159-23.545-13.472c-3.399-5.35-4.632-11.33-3.092-17.498
		C4108.371,1445.581,4114.642,1441.448,4124.915,1435.031z"/>
	<path style="fill:#FFFFFF;" d="M3537.024,2826.59l109.707,1.398l-3.108,2.885c-28.787,27.662-45.899,72.686-52.735,111.243
		c-5.487,30.954-4.765,60.654-4.507,91.919c0.27,33.328,0.344,66.659,0.361,99.987c0.058,128.99,1.598,258.167-0.834,387.127
		l-190.835-35.922l-26.633-7.002l-117.041-418.45c41.143,2.652,86.573,14.24,127.446,10.679c4.258-3.382,6.616-4.324,7.931-9.82
		c3.171-13.252,1.15-30.447,1.208-44.227c0.207-47.622,12.156-92.288,42.089-130.239
		C3456.81,2852.268,3494.404,2831.74,3537.024,2826.59z"/>
	<path style="fill:#FFFFFF;" d="M3847.167,1179.898l4.823,0.689c11.223,28.629,27.372,46.708,54.565,60.89
		c-27.293,10.525-39.366,22.914-52.735,48.497l-32.253-14.136c-19.926-6.417-36.876-3.362-55.296,6.089
		c-11.966,6.138-28.505,15.738-32.166,29.576c-1.569,5.931-1.374,14.111,2.395,19.27c7.305,10.002,26.724,14.506,37.835,18.805
		c18.453,7.139,37.823,14.626,54.441,25.55c20.088,13.211,32.958,30.177,45.376,50.435c-23.84,2.474-48.257,4.594-71.449,10.899
		c-60.616,16.481-109.853,52.316-153.66,96.077c-93.197,93.102-146.724,218.676-166.41,348.014
		c-11.077,72.79-10.754,144.674-10.949,218.024c-0.203,74.815,0.021,149.634,0.1,224.449c0.178,164.638-0.32,329.275-0.502,493.917
		c-46.393,27.6-76.109,63.277-95.994,113.463c-12.061,38.03-13.613,71.677-13.459,111.268l-98.028-9.006
		c6.719-43.479,22.425-87.872,33.954-130.468c5.163-19.067,11.385-37.81,12.626-57.628c1.61-25.624,0.631-51.855,0.672-77.542
		c0.075-46.364,0.062-92.728,0.042-139.092c-0.067-141.985-0.183-283.969-0.121-425.954c0.054-117.469-5.594-237.697,11.754-354.124
		c7.886-52.934,22.325-105.839,40.412-156.15c16.813-46.767,35.577-93.923,58.828-137.913
		c67.871-128.396,176.516-247.625,302.796-319.825C3763.735,1211.69,3806.717,1198.878,3847.167,1179.898z"/>
	<path d="M3379.048,2348.561c5.109-0.527,10.534-0.992,15.655-0.498c6.217,0.602,10.974,4.35,14.626,9.235
		c3.69,4.935,6.74,13.148,5.184,19.366c-2.465,9.845-6.802,13.871-14.987,19.499c-3.648,0.764-7.604,1.656-11.343,1.54
		c-6.549-0.199-14.062-3.893-18.424-8.724c-4.736-5.242-5.229-11.696-4.744-18.494
		C3365.767,2360.028,3371.507,2355.114,3379.048,2348.561z"/>
	<path d="M3381.264,2074.515l15.519,0.452c6.167,0.847,12.061,4.553,15.717,9.612c4.399,6.093,4.877,13.402,3.129,20.52
		c-2.312,9.438-8.38,13.061-16.203,18.042c-4.541,0.585-10.048,1.668-14.547,0.623c-5.433-1.262-13.285-7.242-16.149-12.132
		c-3.511-6.01-4.271-12.451-2.727-19.179C3368.116,2083.264,3373.715,2079.437,3381.264,2074.515z"/>
	<path d="M3379.571,2610.197l7.625-0.125c7.703,0.311,16.415,3.258,21.574,9.251c4.91,5.707,6.964,13.364,5.91,20.752
		c-1.365,9.608-8.512,14.663-16.133,19.407l-17.627,0.253c-5.358-0.498-10.156-4.702-13.132-8.978
		c-4.295-6.167-4.615-14.273-3.096-21.407C3366.829,2619.315,3371.067,2615.505,3379.571,2610.197z"/>
	<path d="M3651.488,1377.552c4.993-0.332,10.239-0.863,15.228-0.315c6.723,0.739,12.152,3.901,16.083,9.363
		c4.512,6.275,6.251,13.792,4.835,21.395c-1.785,9.621-6.616,13.979-14.286,19.503l-8.126,0.963
		c-7.122,0.133-15.477-2.49-20.457-7.749c-4.507-4.756-6.657-11.459-6.624-17.93
		C3638.207,1390.12,3642.652,1385.791,3651.488,1377.552z"/>
	<path d="M3520.452,1536.956l7.807,0.519c7.504,1.266,16.012,3.976,20.374,10.7c3.989,6.139,4.316,17.079,2.532,23.989
		c-2.407,9.318-9.521,14.111-17.286,18.851l-3.806-0.324c-9.455-1.171-16.348-2.885-22.001-11.223
		c-4.52-6.661-6.342-15.008-4.375-22.844C3506.245,1546.494,3511.844,1542.169,3520.452,1536.956z"/>
	<path d="M3406.976,1794.426l11.297,1.561c7.803,1.889,13.85,6.832,17.44,13.97c3.063,6.093,3.71,13.381,1.449,19.872
		c-3.3,9.484-10.277,13.414-18.698,17.967l-14.336-1.847c-6.802-2.142-13.501-9.575-16.353-15.958
		c-2.511-5.624-2.831-14.377-0.261-20.084C3391.416,1801.236,3398.576,1797.713,3406.976,1794.426z"/>
	<path style="fill:#FFFFFF;" d="M3846.166,1454.828l31.763-1.61c84.178,0.046,159.014,47.431,216.97,105.341
		c38.79,38.765,71.511,88.055,97.015,136.456c33.241,63.082,58.022,132.09,72.267,201.987
		c30.414,149.269,22.62,304.946,22.74,456.522c0.112,145.177,0.162,290.349,0.203,435.525l-37.399,1.133
		c-0.722-140.395-0.27-280.807-0.274-421.206c-0.004-36.909-0.008-73.819-0.008-110.724c0-20.42,3.067-46.605-3.076-65.999
		c-25.354-80.057-106.798-151.469-186.863-173.627c-19.08-5.279-38.653-9.305-57.973-13.63c-8.031-1.797-18.897-2.494-25.031-7.803
		c0.639-12.161,8.903-23.529,14.443-34.178c9.762-18.772,21.395-51.22,13.75-72.109c-5.749-15.701-22.246-22.703-36.117-29.634
		c0.232-29.231-4.819-56.744-20.345-81.887c-7.72-12.501-13.356-16.041-27.555-19.399c-2.959,1.203-5.84,2.328-8.508,4.121
		c-27.563,18.552-33.506,59.546-38.258,89.47c-5.52-1.432-11.36-0.531-16.734,1.204c-9.483,3.063-19.37,9.454-23.894,18.631
		c-16.344,33.145,11.011,79.642,22.151,110.454l-77.115-5.852c-63.31-0.548-125.873,26.608-170.54,71.291
		c-32.738,32.751-54.478,78.554-64.094,123.532c-7.616,35.623-7.317,73.146-7.467,109.45c-0.162,39.969-0.17,79.937-0.187,119.905
		c-0.058,132.028,0.328,264.04,0.926,396.063l-41.388,7.33c-0.05-184.032-1.253-368.052-0.797-552.085
		c0.328-131.144-6.512-268.011,18.793-397.171c17.784-90.748,51.087-177.699,106.914-252.095
		C3675.784,1530.54,3752.986,1468.363,3846.166,1454.828z"/>
	<path style="fill:#FFFFFF;" d="M752.067,2651.834l2529.712,111.563c0.079,28.559,2.519,60.064-1.104,88.283
		c-2.142,16.68-7.798,33.568-11.982,49.9c-8.123,31.722-16.481,63.385-24.529,95.127l-8.604,32.979L743.249,2783.463
		C753.826,2741.175,752.156,2695.072,752.067,2651.834z"/>
	<path style="fill:#FFFFFF;" d="M3701.073,1213.869h4.2c-10.376,9.662-26.372,16.448-38.342,24.467
		c-21.856,14.647-42.317,31.103-62.409,48.049c-78.596,66.277-144.637,147.003-194.554,236.904
		c-21.711,39.105-39.192,79.629-57.155,120.511L810.352,2094.636l-1.585-0.141l-1.615-2.27l20.474-36.196
		c51.602-85.577,129.862-164.501,222.378-204.847c31.153-13.589,63.182-21.412,96.036-29.501
		c41.155-10.127,82.53-19.295,123.719-29.268c145.828-35.328,292.034-69.353,437.729-105.167
		c492.34-121.025,986.025-236.555,1479.402-353.265C3358.13,1293.474,3530.201,1255.859,3701.073,1213.869z"/>
	<path style="fill:#FFFFFF;" d="M730.53,2808.951c24.846-0.577,50.245,3.64,74.991,5.923c46.015,4.246,92.026,8.458,138.038,12.737
		c163.583,15.219,327.026,31.8,490.593,47.136c357.755,33.539,715.245,71.644,1072.685,108.495
		c238.514,24.587,477.203,47.356,715.564,73.512l116.153,417.189L828.572,3034.371L730.53,2808.951z"/>
	<path style="fill:#FFFFFF;" d="M3327.023,1680.991l9.28-1.411c0.652,0.93,1.677,1.689,1.955,2.793
		c0.444,1.76-4.487,14.219-5.226,16.556c-6.3,20.009-12.737,39.914-18.004,60.226c-43.343,167.149-32.942,343.706-32.863,514.914
		c0.066,153.494,0.066,306.984,0.058,460.478L871.811,2630.87l-121.128-4.313c-0.001-64.061,0.02-128.126,0.062-192.188
		c0.05-77.239-1.61-153.598,14.741-229.666c5.879-27.347,16.313-53.557,25.986-79.733L3327.023,1680.991z"/>
	<path d="M874.442,2266.304c11.219-1.012,22.13-2.337,33.323-0.452c6.707,1.129,14.198,10.222,17.876,15.547
		c5.57,8.068,7.815,17.017,9.006,26.646c2.333,18.88,1.145,38.96,1.166,57.989c0.037,33.344,0.029,66.688-0.004,100.033
		c-0.021,21.37-0.07,42.741-0.058,64.111c0.008,11.351,1.175,25.097-1.423,36.071c-2.959,12.497-10.853,23.135-21.499,30.02
		l-72.449-0.843c-14.062,0.025-41.458,3.117-53.413-4.217c-7.337-4.503-11.054-14.323-12.324-22.4
		c-4.606-29.264-1.072-64.061-1.048-93.832c0.025-30.443,0.078-60.886,0.181-91.333c0.071-20.918-0.686-42.23,2.664-62.953
		c1.885-11.662,6.206-25.052,13.388-34.519C802.898,2268.948,853.549,2268.749,874.442,2266.304z"/>
	<path style="fill:#FFFFFF;" d="M823.401,2295.191l26.044-1.519l-0.245,27.351l-25.487,2.129L823.401,2295.191z"/>
	<path style="fill:#FFFFFF;" d="M880.826,2288.675l18.162-0.465c4.337,1.61,6.657,4.719,9.081,8.533
		c3.133,4.943,5.761,11.808,4.416,17.527l-10.173,0.876l-35.046,2.968l1.66-21.482
		C872.699,2290.924,874.583,2291.007,880.826,2288.675z"/>
	<path style="fill:#FFFFFF;" d="M903.246,2339.023l9.231-0.477l2.287,2.702c0.926,49.265,0.436,98.576,0.22,147.845
		c-0.087,20.69,2.308,45.36-0.83,65.597c-0.701,4.524-3.146,10.305-6.279,13.688c-0.415,0.448-3.582,3.536-4.736,3.806
		c-7.375,1.722-19.839,0.058-27.667,0.079c-23.018,0.066-46.04,0.133-69.058,0.199c-5.487-1.515-6.363-2.021-10.376-6.055
		c-5.819-19.088-2.054-49.091-2.009-69.382c0.108-49.307,0.361-98.613,0.631-147.92L903.246,2339.023z"/>
	<path d="M881.398,2345.186l27.16-1.1c3.773,28.974,1.502,60.741,1.453,90.088c-0.071,41.794,1.428,84.386-1.805,126.056
		l-80.302,1.585l-28.206-1.237c-2.569-23.562-0.905-48.717-0.859-72.516c0.087-44.945,0.145-89.889,0.896-134.83L881.398,2345.186z"
		/>
	<path style="fill:#FFFFFF;" d="M880.56,2370.201c4.931-0.602,4.615-0.855,8.512,2.175l-0.324,163.882l-57.724,1.722l-6.744-0.203
		c-5.275-7.097-2.698-30.937-2.723-40.786c-0.1-40.317-0.199-80.634-0.299-120.955L880.56,2370.201z"/>
	<path d="M1074.412,2241.439l4.549-0.502c19.482-1.424,60.969-4.62,75.599,9.758c10.692,10.509,15.232,30.352,15.493,44.899
		c1.075,59.724,0.183,119.548,0.569,179.284c0.203,31.742,3.719,67.411-0.286,98.813c-0.938,7.35-3.536,13.153-8.927,18.341
		c-10.476,10.089-61.961,5.105-78.247,4.868c-20.565-0.058-41.18,0.033-61.737-0.457c-6.566-0.158-16.942,0.166-22.595-3.204
		c-8.479-5.051-16.564-21.993-17.548-31.456c-1.942-18.722-0.386-39.196-0.427-58.076c-0.079-38.665-0.091-77.326-0.149-115.991
		c-0.017-11.916,0.315-23.972-0.228-35.868c-0.589-12.966-2.731-26.023-0.946-38.997c2.208-16.083,6.777-32.336,17.203-45.073
		C1014.717,2245.81,1048.14,2244.274,1074.412,2241.439z"/>
	<path style="fill:#FFFFFF;" d="M1053.494,2267.989l12.547-0.17l2.324,2.872c0.212,7.74,2.598,22.67-1.664,29.053l-18.822,2.731
		c-5.395,0.029-5.541,1.15-9.72-2.731c-2.428-7.986-6.549-17.021-4.283-25.326
		C1040.014,2270.156,1046.256,2269.354,1053.494,2267.989z"/>
	<path style="fill:#FFFFFF;" d="M1105.324,2264.245c9.338-0.527,16.971-0.046,26.085,2.1c5.769,4.486,10.853,8.363,12.505,15.962
		c1.091,4.997,1.249,5.549-1.44,9.579l-12.061,2.154l-40.483,5.167c0.187-9.26-1.652-25.492,3.088-33.344L1105.324,2264.245z"/>
	<path style="fill:#FFFFFF;" d="M1137.672,2318.267c4.453-0.656,7.5-1.15,11.858,0.153c1.685,48.502,1.212,97.206,1.175,145.737
		c-0.029,35.905,1.37,72.541-2.291,108.284c-34.743,0.008-69.486,0.017-104.229,0.025c-8.899,0-24.321,2.316-32.099,0.008
		c-1.249-0.374-4.528-2.876-5.188-3.582c-2.976-3.175-4.532-7.62-5.076-11.858c-3.017-23.421-0.593-50.369-0.643-74.118
		c-0.104-50.311-0.701-100.709,0.374-151.008l3.271-2.739c5.935-0.266,10.675-1.814,15.639,1.702l-10.451,5.474
		c-4.188,5.806-2.76,14.352-2.785,21.304c-0.079,18.967-0.116,37.93-0.083,56.894c-0.203,47.377-4.167,99.211,1.204,146.11
		c31.174,1.971,63.277,0.635,94.546,0.627c11.26,0,30.335,2.382,39.923-3.337c6.537-10.056,2.573-48.012,2.561-60.928
		c-0.058-57.255-0.274-114.509-0.498-171.764c-24.637-0.979-50.211,2.046-74.728,4.532c-12.8,1.295-29.937,4.557-42.5,1.569
		l1.573-2.934L1137.672,2318.267z"/>
	<path style="fill:#FFFFFF;" d="M1118.85,2349.49l4.478,2.133l0.365,184.601l-89.217,0.967c-3.897-0.477-1.876,0.233-5.707-2.951
		l-0.336-177.18L1118.85,2349.49z"/>
	<path d="M1379.271,2212.411c14.194,0.328,34.046-1.316,46.53,6.4c9.965,6.159,15.85,17.656,18.191,28.787l0.772,3.968
		c7.815,38.811,3.354,84.66,3.399,124.474c0.079,66.68,1.22,133.58-0.519,200.231c-6.446,11.227-13.576,19.179-24.292,26.517
		l-115.551-1.851l-48.032-1.295l-3.922-2.802c-9.961-8.01-18.66-17.905-19.702-31.186c-1.299-16.581-0.307-33.983-0.324-50.635
		c-0.042-33.751,0.062-67.502,0.054-101.253c-0.004-27.837-0.012-55.673,0.083-83.51c0.046-13.526-1.05-28.231,0.917-41.62
		c2.432-16.56,7.591-36.498,19.046-49.012C1280.371,2212.917,1345.071,2214.308,1379.271,2212.411z"/>
	<path style="fill:#FFFFFF;" d="M1312.325,2241.298l25.678-1.32c-1.058,12.252-1.075,25.633-4.794,37.382l-11.505,2.279
		c-7.126,0.776-16.348,3.009-23.093,0.237c-5.259-9.23-6.379-19.532-4.989-29.937
		C1298.861,2243.008,1304.24,2243.257,1312.325,2241.298z"/>
	<path style="fill:#FFFFFF;" d="M1360.478,2237.007c13.949,0.436,39.835-2.005,52.324,2.839c5.093,1.972,6.159,4.578,8.114,9.368
		c2.374,5.815,3.366,13.464,1.021,19.382l-7.766,1.203l-57.715,5.848C1356.273,2262.021,1357.498,2250.304,1360.478,2237.007z"/>
	<path style="fill:#FFFFFF;" d="M1423.285,2293.518l2.802,1.884c1.17,62.243,0.764,124.561,0.942,186.817
		c0.058,19.017,0.129,38.034,0.071,57.051c-0.033,10.891,1.133,21.885-3.088,32.103c-1.801,1.581-3.279,3.644-5.408,4.74
		c-6.362,3.266-26.845,1.092-34.925,0.988c-39.354-0.502-78.708-1.208-118.045-2.528c-3.719-3.906-6.151-5.748-7.288-11.214
		c-4.428-21.304-1.009-51.743-1.029-73.881c-0.062-60.6-0.004-121.2,0.062-181.8L1423.285,2293.518z"/>
	<path d="M1404.086,2301.678c5.229-0.432,10.143-1.415,15.033,0.946c2.532,5.918,1.494,13.688,1.507,20.117
		c0.029,16.037,0.075,32.078,0.099,48.115c0.104,63.667,0.22,127.338-0.183,191.005l-141.275,0.386
		c-6.176-0.125-9.65,0.515-15.045-2.648c-3.196-23.421-0.693-50.319-0.735-74.068c-0.1-56.441-0.174-112.886-0.245-169.328
		C1308.511,2306.833,1357.921,2305.426,1404.086,2301.678z"/>
	<path style="fill:#FFFFFF;" d="M1379.142,2328.597c6.57-0.647,12.991-1.884,19.395,0.199l0.689,208.466l-95.056,0.801
		l-18.814-0.091l-0.693-200.468L1379.142,2328.597z"/>
	<path d="M1670.018,2179.204c20.993-1.345,66.473-7.188,84.427,3.557c17.187,10.289,26.205,27.529,31.452,46.256l0.876,3.283
		c4.495,16.415,2.71,32.788,2.445,49.581c-0.32,20.494-0.046,41.035-0.016,61.538c0.125,80.663,0.241,161.326,0.701,241.989
		c-6.109,9.363-14.506,16.548-22.591,24.172l-115.389-2.374c-24.3-1.66-48.966-1.171-73.337-1.664
		c-11.14-0.224-23.956,0.755-33.037-6.707c-10.849-8.911-19.299-24.998-20.661-38.927c-1.573-16.087-0.581-33-0.581-49.19
		c0.004-26.899-0.22-53.797-0.39-80.7c-0.22-35.436-0.428-70.872-0.598-106.312c-0.099-20.37-1.781-42.301,1.851-62.351
		c3.096-17.112,10.455-33.813,21.503-47.29C1571.218,2184.131,1634.134,2182.209,1670.018,2179.204z"/>
	<path style="fill:#FFFFFF;" d="M1740.08,2203.459c3.341,1.56,6.865,3.432,9.737,5.748c6.632,5.346,11.775,19.005,12.534,27.189
		l-23.927,1.739L1740.08,2203.459z"/>
	<path style="fill:#FFFFFF;" d="M1627.941,2210.27c3.877,4.35,1.976,30.709,2.038,38.014l-46.302,5.665l-3.623-33.846
		L1627.941,2210.27z"/>
	<path style="fill:#FFFFFF;" d="M1680.792,2204.086l36.503-1.075l0.066,37.254l-24.114,1.938l-40.943,3.457l0.299-38.271
		L1680.792,2204.086z"/>
	<path style="fill:#FFFFFF;" d="M1722.732,2264.644l44.289-2.146c0.577,67.863,0.07,135.763-0.075,203.626
		c-0.083,38.449,2.486,78.675-1.996,116.746c-21.848,2.507-44.438,0.951-66.394,0.585c-36.698-0.61-73.391-1.241-110.085-1.996
		l-26.392-0.668c-5.553-4.677-9.608-10.276-13.999-16.025c-4.499-29.791-2.125-62.957-2.262-93.097
		c-0.282-63.729-0.037-127.421,0.772-191.15L1722.732,2264.644z"/>
	<path d="M1723.159,2270.488l28.09-1.291l1.112,295.014l-164.393-0.407l-33.718-0.415l-0.033-276.15
		c21.155-4.458,43.031-5.499,64.534-7.433C1653.557,2276.667,1688.375,2273.808,1723.159,2270.488z"/>
	<path style="fill:#FFFFFF;" d="M1715.207,2295.44c4.69-0.792,8.363-0.477,13.061,0.154c5.126,19.834,1.187,49.8,1.154,70.594
		c-0.099,57.719-0.257,115.439-0.419,173.158l-138.457,0.307l-9.857-0.361c-0.992-0.992-2.249-1.776-2.976-2.976
		c-2.096-3.474-0.278-31.149-0.328-37.536c-0.494-63.634-0.444-127.276-0.527-190.91L1715.207,2295.44z"/>
	<path d="M2117.26,2129.325l18.598-1.287c16.751-0.125,28.696,3.785,40.591,16.066c12.97,13.393,22.806,34.544,25.836,52.959
		c2.449,14.896,1.125,31.817,1.175,46.937c0.1,29.024,0.042,58.043,0.025,87.063c-0.042,76.027,2.955,153.228-0.228,229.118
		c-0.697,16.581-8.139,33.112-20.408,44.301c-6.665,6.084-14.605,10.272-23.495,11.957c-18.706,3.548-40.4,0.764-59.475,0.307
		c-34.917-0.838-69.839-1.598-104.756-2.386c-21.13-0.095-49.012,2.897-69.345-1.274c-12.148-2.49-19.469-16.39-25.139-26.388
		c-3.482-76.214-0.398-153.984-0.32-230.338c0.033-27.617,0.071-55.229,0.133-82.842c0.033-15.418-1.175-31.771,1.233-46.982
		c2.665-16.854,8.342-32.713,18.922-46.306c8.845-11.368,22.354-22.068,35.677-27.463c16.958-6.869,39.931-7.641,58.242-10.031
		C2048.77,2138.26,2082.986,2133.575,2117.26,2129.325z"/>
	<path style="fill:#FFFFFF;" d="M1962.886,2175.419l5.076,1.519c1.457,12.049-0.639,24.636-1.764,36.681l-32.684,4.321l-5.466-2.552
		l0.552-2.183C1934.29,2196.208,1947.953,2184.143,1962.886,2175.419z"/>
	<path style="fill:#FFFFFF;" d="M2137.036,2150.106c3.951,0.677,7.475,1.818,11.098,3.515c17.377,8.122,21.901,24.035,27.567,40.769
		l-36.005,1.374C2137.293,2180.499,2137.148,2165.528,2137.036,2150.106z"/>
	<path style="fill:#FFFFFF;" d="M2105.19,2156.435l5.711-0.743c5.723,6.176,4.968,33.403,5.678,43.027l-114.132,11.534l-8.795,0.888
		c-4.628-5.873-2.042-31.485-2.013-40.176L2105.19,2156.435z"/>
	<path style="fill:#FFFFFF;" d="M2148.956,2220.712l29.704-1.362c0.88,78.219,0.569,156.499,0.884,234.725
		c0.095,23.387,0.178,46.775,0.207,70.158c0.017,13.264,1.079,28.082-1.444,41.135c-1.515,7.844-5.819,14.821-11.667,20.241
		c-4.399,4.08-10.368,4.657-16.091,5.146c-21.873,1.868-45.061-0.054-67.074-0.369c-42.566-0.61-85.129-1.22-127.695-1.855
		c-10.629-0.195-22.835,0.415-30.866-6.562c-3.49-10.214-2.071-22.703-2.092-33.398c-0.05-23.57,0.029-47.14,0.079-70.71
		c0.154-78.559,0.34-157.113,0.54-235.672L2148.956,2220.712z"/>
	<path d="M2130.333,2231.449l28.297-1.154c5.279,2.992,6.715,2.963,7.994,9.268c1.743,8.579,0.278,20.1,0.266,29.053
		c-0.033,19.561-0.038,39.122-0.058,58.682c-0.05,49.265-0.129,98.526-0.232,147.791c-0.054,25.388,0.971,51.286-0.428,76.62
		c-0.29,5.221-1.531,8.247-4.358,12.634c-2.445,1.278-4.665,3.129-7.334,3.839c-3.104,0.822-10.33-0.261-13.75-0.336
		c-10.546-0.228-21.092-0.44-31.638-0.548c-45.762-0.486-91.562-0.232-137.328-0.224l-39.89-1.071l-0.266-313.276
		c25.097-5.694,51.652-6.304,77.243-8.828C2049.359,2239.912,2089.83,2235.488,2130.333,2231.449z"/>
	<path style="fill:#FFFFFF;" d="M2138.954,2258.182l3.075,1.98l-0.81,280.014l-182.542,0.867l-3.416-2.274l-0.021-263.429
		L2138.954,2258.182z"/>
	<path d="M2545.907,2081.616c21.146-2.428,38.615-2.046,57.853,7.869c21.806,11.235,36.602,30.169,43.355,53.556l1.034,3.719
		c6.238,21.677,1.805,51.108,2.108,73.898c1.403,105.768,2.05,212.462,0.303,318.206c-0.432,26.151-6.143,49-25.778,67.465
		c-9.513,8.944-24.093,17.643-36.76,20.424c-16.983,3.727-39.317,0.353-56.86-0.166c-35.805-1.058-71.611-1.864-107.425-2.552
		c-19.295-0.353-38.59-0.726-57.885-1.22c-12.202-0.315-25.33,0.328-36.017-6.579c-11.355-7.333-24.661-24.628-26.712-38.237
		c-2.673-17.739-0.913-37.715-0.93-55.756c-0.037-37.897-0.05-75.79-0.05-113.683c-0.004-46.588-0.095-93.176-0.137-139.769
		c-0.025-25.844-1.698-53.27,1.058-78.965c2.088-19.457,10.194-43.014,22.018-58.583c8.683-11.426,20.225-20.412,33.805-25.151
		c21.885-7.637,50.153-7.678,73.387-10.368C2470.184,2091.336,2508.031,2086.277,2545.907,2081.616z"/>
	<path style="fill:#FFFFFF;" d="M2362.568,2130.491c4.732,8.608,0.751,32.784,0.145,43.272l-30.202,2.756l-2.208-2.324
		C2334.258,2156.236,2348.39,2141.274,2362.568,2130.491z"/>
	<path style="fill:#FFFFFF;" d="M2574.91,2106.813c6.553,1.195,12.613,2.627,18.577,5.719c15.792,8.18,23.284,19.631,28.488,36.146
		l-46.982,3.345L2574.91,2106.813z"/>
	<path style="fill:#FFFFFF;" d="M2534.398,2108.548c5.981-0.502,9.562-2.034,14.767,1.316l-1.552,44.758l-142.603,15.228
		c-5.794,0.494-11.331,1.598-16.801-0.843c-1.166-14.049,1.444-28.907,3.026-42.907L2534.398,2108.548z"/>
	<path style="fill:#FFFFFF;" d="M2599.817,2177.121l26.637-1.635c1.038,88.926,0.228,177.956,0.183,266.895
		c-0.013,24.554-0.033,49.107-0.042,73.657c-0.004,11.401,1.386,24.711-0.519,35.843c-1.137,6.645-4.731,11.322-9.222,16.104
		c-0.427-9.127-2.171-10.135-7.595-17.141c-3.345-18.365-1.22-40.072-1.241-58.803c-0.042-41.309-0.046-82.618-0.037-123.927
		c0.008-33.46,0.004-66.921,0.054-100.377c0.025-16.207-1.444-34.166,0.76-50.095c1.199-8.695,2.577-18.104-2.407-25.948
		c-1.947-3.054-5.346-4.329-8.853-4.627c-7.645-0.66-17.245,1.577-24.902,2.428c-14.315,1.594-28.663,3.009-42.99,4.458
		c-36.665,3.706-73.321,7.491-109.994,11.082c-20.723,2.034-42.156,2.93-62.609,6.765c-5.952,1.112-8.612,3.088-12.903,7.014
		c-2.893,7.193-1.992,15.033-2.005,22.657c-0.025,14.365-0.042,28.729-0.07,43.089c-0.121,63.775-0.17,127.545-0.191,191.32
		c0,14.107-2.681,81.431,0.751,89.491c0.905,2.125,3.233,3.295,4.852,4.947c14.551,3.349,30.883,2.005,45.845,2.1
		c27.949,0.178,55.897,0.307,83.85,0.469c45.953,0.266,92.097,2.702,138.005,1.847c-6.877,11.364-13.186,17.548-24.628,24.595
		l-12.455,1.067c-36.436,1.166-73.852-1.888-110.38-2.27c-25.521-0.27-51.046-0.494-76.566-0.776
		c-13.58-0.149-28.048,0.656-41.504-1.262c-5.956-0.851-9.322-2.831-13.551-6.952c-5.927-5.773-8.67-11.771-9.807-19.893
		c-1.673-11.97-0.527-25.396-0.556-37.495c-0.054-24.101-0.087-48.207-0.112-72.308c-0.087-84.925-0.278-169.855,0.403-254.776
		L2599.817,2177.121z"/>
	<path style="fill:#FFFFFF;" d="M2569.361,2218.616l12.609-0.469c2.918,8.168,1.685,18.274,1.701,26.886
		c0.042,19.424,0.067,38.848,0.079,58.276c0.054,81.26-0.286,162.525-0.701,243.785l-196.849-3.171
		c-6.74-0.087-12.775,1.042-18.644-2.42l-0.917-304.767L2569.361,2218.616z"/>
	<path d="M3074.982,2023.436c6.313-1.009,12.542-1.781,18.938-1.561c28.484,0.98,51.714,15.082,70.469,35.93
		c11.331,12.592,20.993,29.376,23.732,46.185c3.511,21.578,2.009,44.912,2.038,66.805c0.054,37.715,0.008,75.429,0,113.14
		c-0.013,62.393-0.042,124.79-0.1,187.182c-0.033,36.466,1.079,73.371-0.963,109.77l-1.502,2.113
		c-8.392,11.978-18.83,22.176-29.459,32.174c-11.588,10.899-24.28,19.585-40.093,22.844c-9.728,2.005-20.752,0.901-30.692,0.602
		c-19.756-0.589-39.466-2.034-59.214-2.802c-40.935-1.586-81.995-2.017-122.955-3.154c-29.559-0.702-70.54,4.084-95.861-12.024
		c-16.568-10.538-28.933-27.936-32.365-47.464c-3.611-20.565-1.179-44.434-1.112-65.447c0.125-42.919,0.162-85.843,0.245-128.762
		c0.104-50.796,0.228-101.597,0.374-152.394c0.07-25.372-2.245-53.079,1.27-78.081c2.71-19.245,12.21-37.906,23.823-53.308
		c12.771-16.938,29.642-32.56,49.456-40.69c10.09-4.138,23.139-5.221,33.938-6.711c20.644-2.847,41.371-5.121,62.061-7.62
		C2989.7,2035.007,3032.37,2029.234,3074.982,2023.436z"/>
	<path style="fill:#FFFFFF;" d="M2862.823,2078.462l4.142,2.349l-7.039,43.094l-44.824,5.092l-4.171-1.494
		C2821.929,2103.393,2838.987,2089.024,2862.823,2078.462z"/>
	<path style="fill:#FFFFFF;" d="M3099.793,2048.268c16.543,2.212,29.87,11.069,41.487,22.611
		c6.006,5.968,14.132,15.182,14.128,23.757l-17.369,0.195l-52.818,5.561C3088.015,2081.902,3092.547,2065.504,3099.793,2048.268z"/>
	<path style="fill:#FFFFFF;" d="M3060.107,2052.655l5.383-0.693l2.054,2.909l-11.845,48.273l-163.928,17.797l-4.748-1.59
		l6.064-46.343c20.37-4.956,42.973-6.026,63.854-8.409C2991.335,2060.673,3025.697,2056.431,3060.107,2052.655z"/>
	<path style="fill:#FFFFFF;" d="M3157.243,2121.219l2.287-0.253l2.685,2.386l-0.494,449.105l-14.485,16.477
		c-7.724,7.525-19.913,18.266-30.597,20.387c-9.907,1.963-21.972,0.672-32.145,0.311c-21.914-0.772-43.766-2.61-65.697-3.171
		c-63.435-1.627-126.935-1.814-190.387-2.839c-11.023-7.238-17.913-16.178-25.031-26.99c64.63-0.743,129.301-1.125,193.931-0.519
		c33.299,0.311,71.328,4.474,104.096,0.332c7.641-0.967,15.622-5.661,20.856-11.185c5.57-5.877,9.293-12.958,10.654-20.939
		c2.246-13.19,1.262-27.285,1.291-40.636c0.05-22.047,0.079-44.094,0.104-66.141c0.083-78.758,0.079-157.511,0.05-236.265
		c0.008-14.514,3.528-50.12-4.541-60.965c-16.842-8.936-59.67,1.017-79.206,2.735c-78.409,6.91-156.98,14.174-235.066,24.105
		c-0.423,42.882,3.86,370.667-2.233,380.01c-5.167,0.768-8.471,2.528-12.962-0.473l0.56-388.663L3157.243,2121.219z"/>
	<path style="fill:#FFFFFF;" d="M3088.712,2166.74l19.167-1.071c0.556,80.961,0.357,161.932,0.303,242.897
		c-0.025,39.761,2.345,81.356-0.344,120.893c-0.419,6.192-1.909,11.608-4.453,17.232c-7.375,2.714-16.552,1.631-24.371,1.59
		c-14.618-0.079-29.235-0.195-43.853-0.216c-58.197-0.071-116.398-0.033-174.594-0.037l-19.694-0.137l-0.656-356.747
		L3088.712,2166.74z"/>
</g>
</svg>
