<?xml version="1.0" encoding="utf-8"?>
<!-- Generator: Adobe Illustrator 27.5.0, SVG Export Plug-In . SVG Version: 6.00 Build 0)  -->
<svg xmlns="http://www.w3.org/2000/svg" xmlns:xlink="http://www.w3.org/1999/xlink" viewBox="0 0 2000 2000" width="595" height="842" preserveAspectRatio="xMidYMid meet" data-scaled="true">
<rect style="fill:#FFFFFF;" width="2000" height="2000"/>
<g>
	<path style="stroke:#13110C;stroke-miterlimit:10;" d="M1717.604,1000.612c0,316.636,0,633.273-0.005,949.909
		c0,2.7-0.025,5.401-0.124,8.099c-0.1,2.742-1.534,4.173-4.344,4.148c-1.661-0.014-3.323,0.053-4.985,0.053
		c-472.004,0.003-944.008,0.003-1416.012,0c-9.725,0-9.737-0.014-9.737-10.094c-0.002-481.812-0.002-963.623-0.002-1445.435
		c0-152.709,0-305.417,0.003-458.126c0-2.493,0.065-4.985,0.066-7.478c0.001-3.127,1.622-4.508,4.662-4.471
		c1.869,0.023,3.739-0.04,5.608-0.04c471.589-0.002,943.177-0.002,1414.766-0.001c10.091,0,10.102,0.009,10.102,10.407
		C1717.604,365.26,1717.604,682.936,1717.604,1000.612z M1593.935,1478.44c-1.499-2.243-3.585-2.169-5.292-2.64
		c-30.097-8.309-55.506-24.208-75.906-47.743c-28.78-33.203-41.71-72.091-38.053-115.766c3.438-41.047,20.889-75.792,51.722-103.324
		c27.662-24.7,60.37-37.723,97.327-39.558c26.433-1.313,51.563,4.473,75.421,15.879c9.126,4.363,9.145,4.33,9.145-5.798
		c0.001-116.352,0-232.704,0-349.056c0-76.461,0.003-152.923-0.006-229.384c-0.001-8.234-0.036-8.177-8.347-8.277
		c-8.918-0.108-17.81,0.033-26.735-1.088c-40.875-5.136-76.895-21.276-106.889-49.251c-48.105-44.867-69.086-100.644-62.371-166.194
		c4.332-42.28,21.502-79.225,50.521-110.212c39.132-41.784,87.885-62.08,144.963-62.73c8.843-0.101,8.859,0.004,8.86-8.963
		c0.005-45.918,0.004-91.837,0.001-137.755c-0.001-10.678,0.743-10.115-10.185-10.115c-99.931,0.002-199.862,0.001-299.793,0.001
		c-24.723,0-49.446-0.017-74.169,0.03c-2.161,0.004-4.492-0.55-6.519,0.74c0.441,2.802,2.359,4.235,3.77,5.959
		c17.597,21.503,30.476,45.479,38.116,72.241c3.431,12.019,6.094,24.187,6.758,36.685c0.332,6.246,2.5,10.79,7.959,14.389
		c7.266,4.79,14.024,10.374,20.837,15.823c28.621,22.891,55.75,47.334,78.252,76.48c10.576,13.699,19.904,28.156,25.803,44.586
		c3.188,8.877,5.288,18.002,4.699,27.438c-1.134,18.183-10.615,31.013-26.381,39.556c-16.102,8.725-33.711,11.624-51.619,12.614
		c-29.17,1.612-58.045-1.462-86.724-6.736c-28.631-5.266-56.777-12.469-84.516-21.238c-4.514-1.427-8.311-1.044-12.54,0.705
		c-22.508,9.309-46.092,13.91-70.344,14.647c-15.379,0.467-30.729-1.021-45.737-4.576
		c-75.926-17.987-125.662-64.578-150.042-138.394c-2.085-6.313-4.709-11.34-10.531-14.537c-1.086-0.596-2.058-1.404-3.074-2.126
		c-26.781-19.052-52.456-39.451-76.096-62.34c-18.414-17.83-35.519-36.768-49.048-58.658c-9.151-14.806-16.143-30.451-17.362-48.17
		c-0.32-4.654-0.798-5.035-5.896-5.079c-10.595-0.092-21.191-0.036-31.787-0.036c-100.554-0.001-201.109-0.005-301.663,0.022
		c-2.593,0.001-5.289-0.493-7.844,0.591c0.374,2.614,2.292,3.755,3.587,5.273c23.467,27.497,36.803,59.281,38.271,95.361
		c1.85,45.479-12.978,85.266-45.579,117.236c-41.115,40.32-90.521,53.474-146.718,41.396c-9.17-1.971-17.938-5.175-26.534-8.91
		c-3.021-1.313-3.665-0.806-3.888,2.436c-0.142,2.069-0.052,4.154-0.052,6.231c-0.001,220.658-0.001,441.315-0.001,661.973
		c0,1.454,0.159,2.929-0.026,4.36c-0.606,4.684,1.615,6.973,5.851,8.779c19.077,8.135,36.699,18.841,51.478,33.418
		c46.853,46.214,63.611,102.204,53.013,166.794c-0.492,2.996-1.724,5.914-1.333,9.771c20.868-7.781,37.674-3.051,49.328,15.585
		c1.848-0.355,2.281-1.372,2.835-2.215c8.092-12.314,18.19-22.676,30.459-30.824c26.135-17.356,54.854-24.352,85.497-17.297
		c40.807,9.395,65.942,36.55,79.205,75.406c3.848,11.274,5.304,23.031,5.002,34.992c-0.135,5.328,0.333,5.665,5.159,4.416
		c6.595-1.707,13.131-1.476,19.721-0.016c9.391,2.081,17.254,6.786,23.668,13.838c0.549-0.465,0.985-0.659,1.119-0.979
		c0.48-1.145,0.876-2.327,1.27-3.506c7.552-22.584,21.722-39.943,41.719-52.64c18.82-11.95,39.518-16.803,61.393-13.245
		c33.283,5.413,58.038,23.409,73.669,53.552c0.712,1.373,0.929,3.317,3.453,3.502c11.654-19.334,28.683-30.174,52.473-30.539
		c-7.119-4.219-7.101-4.211-3.881-10.903c3.693-7.675,7.291-15.396,11.054-23.035c1.439-2.92,1.794-5.872,1.492-9.06
		c-1.27-13.441-2.126-26.908-2.236-40.413c-0.056-6.856-0.168-13.715-0.053-20.569c0.053-3.122-1.176-4.961-3.974-6.293
		c-13.128-6.25-26.169-12.681-39.288-18.949c-5.98-2.857-6.075-2.791-10.294,2.46c-20.231,25.181-43.073,47.834-67.071,69.366
		c-2.163,1.94-4.405,3.807-6.736,5.538c-1.762,1.308-3.268,0.932-3.391-1.477c-0.159-3.107-0.181-6.237,0.002-9.342
		c1.614-27.389,4.51-54.633,9.808-81.573c3.975-20.213,8.974-40.151,17.674-58.949c4.382-9.469,9.582-18.46,17.108-25.846
		c8.63-8.47,18.904-12.71,31.105-11.176c8.42,1.059,16,4.462,22.756,9.511c11.878,8.877,16.654,20.772,14.714,35.477
		c-0.877,6.651-2.865,12.951-5.222,19.186c-1.581,4.183-1.526,4.455,2.237,6.37c5.552,2.825,11.171,5.529,16.85,8.089
		c4.576,2.063,4.789,1.936,5.303-2.954c1.865-17.752,3.237-35.548,5.796-53.234c5.787-40,14.496-79.265,28.855-117.128
		c13.052-34.416,30.146-66.568,53.861-94.957c24.566-29.409,54.318-51.76,89.893-66.196c35.815-14.534,73.207-19.591,111.621-18.613
		c3.482,0.089,5.753,1.545,7.89,4.1c8.944,10.698,17.205,21.895,24.614,33.696c27.238,43.382,41.591,90.197,38.188,141.908
		c-1.084,16.468-3.73,32.598-7.943,48.476c-9.194,34.648-24.471,66.588-43.686,96.735c-27.656,43.392-61.7,81.354-98.986,116.563
		c-2.567,2.424-5.31,4.666-7.808,7.156c-2.765,2.758-2.649,3.499,0.99,5.373c5.539,2.853,11.147,5.576,16.781,8.237
		c5.331,2.518,5.837,2.376,8.898-2.699c3.888-6.445,8.282-12.472,14.027-17.388c7.745-6.628,16.683-10.388,26.939-9.144
		c11.425,1.386,21.503,6.055,29.718,14.378c4.666,4.727,7.601,10.318,8.949,16.798c2.064,9.924,0.139,19.419-3.107,28.749
		c-5.737,16.489-15.124,30.934-25.507,44.765c-21.421,28.532-46.405,53.728-72.971,77.419c-2.48,2.212-4.926,4.48-7.568,6.486
		c-2.465,1.872-3.673,1.226-3.915-1.897c-0.112-1.443-0.049-2.912,0.061-4.359c0.703-9.314,1.416-18.628,2.173-27.938
		c1.988-24.458,5.448-48.693,11.033-72.606c1.369-5.862,1.348-5.934-4.053-8.567c-12.883-6.28-25.891-12.313-38.645-18.842
		c-4.302-2.202-7.262-2.043-11.125,1.053c-16.377,13.125-33.31,25.525-50.942,36.929c-2.797,1.809-4.406,4.248-5.75,7.115
		c-3.086,6.582-6.241,13.132-9.427,19.667c-3.502,7.184-3.526,7.161-10.491,3.812c-1.729-0.832-3.499-1.581-5.249-2.369
		c3.897,3.327,8.133,5.929,12.169,8.811c10.653,7.607,19.245,16.927,24.81,29.007c7.859,17.062,11.968,34.887,12.25,53.646
		c0.161,10.669-1.294,21.141-3.851,31.451c-0.795,3.204-0.238,5.201,2.895,6.393c1.158,0.441,2.241,1.088,3.333,1.688
		c24.642,13.545,34.983,43.323,24.056,69.256c-3.82,9.065-3.813,8.851,5.962,9.13c25.433,0.726,45.467,11.478,59.709,32.726
		c0.642,0.958,0.886,2.444,2.595,2.284c1.305-1.195,1.464-2.913,1.945-4.454c4.478-14.36,10.718-27.933,18.617-40.702
		c21.138-34.167,49.615-60.083,86.777-75.866c32.698-13.887,66.698-18.009,101.861-12.648
		c47.982,7.316,87.066,30.094,117.529,67.698c18.067,22.302,30.359,47.566,36.865,75.523c1.279,5.498,2.147,6.477,7.269,4.767
		c5.521-1.843,11.086-0.685,16.172,2.327c1.197,0.709,2.114,2.072,4.477,1.705
		C1560.999,1518.052,1574.683,1496.376,1593.935,1478.44z M1081.304,1953.545c-0.856-1.14-0.945-1.369-1.111-1.462
		c-1.267-0.709-2.542-1.405-3.827-2.08c-43.111-22.595-79.792-52.994-110.339-90.854c-33.835-41.936-57.913-88.965-73.564-140.436
		c-10.813-35.561-16.925-71.944-18.787-109.007c-0.833-16.584-0.452-33.193,0.587-49.817c1.624-25.99,5.316-51.633,10.999-76.998
		c17.234-76.914,50.216-146.705,95.673-210.822c1.081-1.525,2.173-3.042,3.227-4.586c1.171-1.715,0.89-3.183-0.99-4.109
		c-3.911-1.926-7.853-3.79-11.806-5.63c-2.029-0.944-3.63-0.336-4.739,1.583c-0.624,1.078-1.214,2.177-1.829,3.261
		c-15.134,26.663-32.886,51.464-53.494,74.151c-37.006,40.738-80.141,73.504-129.407,98.034
		c-51.185,25.485-105.351,40.46-162.452,43.917c-30.331,1.836-60.565-0.11-90.595-5.21c-29.875-5.074-59.459-11.712-89.422-16.301
		c-26.146-4.004-52.336-6.054-78.768-3.227c-21.796,2.331-42.064,9.102-61.286,19.573c-5.891,3.209-7.826,7.077-7.817,13.771
		c0.2,151.882,0.15,303.764,0.161,455.646c0.001,10.99-1.046,10.607,10.35,10.607c257.2-0.004,514.399-0.003,771.599-0.003
		C1075.931,1953.545,1078.197,1953.545,1081.304,1953.545z M1080.086,1496.39c-0.476-3.46,1.8-4.736,3.054-6.507
		c10.469-14.798,12.901-30.946,7.086-47.949c-4.739-13.859-14.601-23.433-27.886-29.495c-5.42-2.473-5.442-2.479-3.897-8.36
		c5.896-22.451,5.521-44.845-1.122-67.032c-4.138-13.822-9.584-27.067-20.636-37.116c-5.708-5.189-11.915-9.699-18.549-13.627
		c-2.144-1.27-4.305-2.513-6.458-3.767c-1.848-1.076-3.153-0.63-3.86,1.406c-0.34,0.98-0.651,1.971-0.957,2.963
		c-7.27,23.525-11.771,47.62-13.158,72.153c-1.551,27.423-0.539,54.777,4.538,81.92c13.266,70.925,44.975,131.688,99.204,179.885
		c55.243,49.098,120.089,76.542,193.558,82.829c33.451,2.863,66.76,0.086,99.559-7.908c33.395-8.139,65.527-19.906,97.353-32.666
		c32.572-13.059,64.833-26.906,98.014-38.426c37.449-13.002,75.68-22.104,115.436-23.91c6.849-0.311,6.914-0.342,6.923-7.202
		c0.03-23.269,0.013-46.538,0.012-69.807c0-22.854,0.018-45.707-0.014-68.561c-0.01-6.872-0.237-6.809-6.818-7.52
		c-8.294-0.896-16.498-0.758-24.828-0.1c-22.201,1.754-42.832,8.121-61.468,20.248c-30.383,19.773-50.253,47.269-59.231,82.501
		c-0.482,1.893-0.409,4.082-2.491,5.407c-4.916-15.078-17.349-17.688-29.269-6.41c-11.224-59.628-41.644-106.017-95.155-134.68
		c-53.317-28.558-108.985-30.075-163.767-4.631c-55.001,25.546-87.943,70.267-103.231,129.055
		c-5.433-17.754-16.699-29.86-32.496-37.966C1113.749,1493.021,1097.183,1491.615,1080.086,1496.39z M1708.293,1758.487
		c0-21.608,0.034-43.217-0.022-64.825c-0.016-5.879-0.58-6.394-6.471-6.393c-13.332,0.003-26.504,1.604-39.532,4.359
		c-26.533,5.61-50.735,16.914-73.987,30.498c-21.187,12.378-41.203,26.552-61.536,40.238c-15.858,10.674-31.765,21.27-48.497,30.548
		c-46.599,25.84-96.78,39.283-149.756,42.38c-23.233,1.358-46.512,0.593-69.632-2.513c-29.317-3.938-57.949-10.718-85.707-21.049
		c-46.133-17.171-87.533-42.052-123.19-76.114c-36.445-34.815-63.39-76.169-83.095-122.38
		c-18.104-42.459-28.203-86.846-30.865-132.856c-1.393-24.087-0.316-48.143,3.131-72.093c6.941-48.229,23.044-92.978,49.92-133.735
		c0.8-1.214,1.642-2.403,2.388-3.648c0.53-0.884,1.143-1.965,0.189-2.822c-1.28-1.15-2.351-0.186-3.091,0.823
		c-2.458,3.348-4.845,6.75-7.22,10.158c-43.366,62.205-74.767,129.778-91.589,203.916c-7.379,32.519-11.388,65.458-12.051,98.764
		c-0.576,28.936,1.941,57.664,7.151,86.152c13.074,71.475,41.168,136.098,87.661,192.323c31.982,38.677,70.49,69.074,115.659,91.015
		c3.271,1.589,6.56,2.338,10.179,2.337c90.373-0.036,180.746-0.037,271.12,0.002c3.633,0.002,6.898-0.82,10.147-2.442
		c11.904-5.943,23.589-12.3,34.915-19.255c29.384-18.042,58.494-36.535,87.972-54.421c29.193-17.714,59.563-33.118,92.333-43.196
		c30.86-9.491,62.255-14.41,94.578-9.295c4.915,0.778,9.762,1.979,14.656,2.902c3.417,0.644,3.933,0.223,4.198-3.307
		c0.124-1.654,0.048-3.323,0.048-4.985C1708.301,1799.211,1708.3,1778.849,1708.293,1758.487z M1708.298,1644.244
		c-0.004,0-0.009,0-0.013,0c0-11.219,0.07-22.439-0.033-33.657c-0.044-4.799-0.742-5.311-5.411-5.543
		c-4.18-0.208-8.27,0.7-12.407,0.916c-23.972,1.257-47.299,6.096-70.36,12.461c-31.697,8.75-62.197,20.847-92.602,33.198
		c-34.822,14.145-69.463,28.759-105.439,39.862c-26.863,8.29-54.171,14.723-82.233,16.52c-21.731,1.391-43.535,1.161-65.278-1.779
		c-38.034-5.142-74.122-16.238-108.384-33.473c-37.564-18.896-70.502-43.873-98.28-75.417
		c-31.683-35.979-53.531-77.388-66.543-123.49c-11.055-39.168-15.097-79.063-11.762-119.62c2.083-25.337,7-50.16,15.019-74.332
		c1.728-5.209,1.309-5.948-3.653-7.908c-3.486-1.377-4.156-1.253-6.971,2.958c-6.469,9.676-12.441,19.655-17.798,29.997
		c-22.955,44.323-33.836,91.763-36.094,141.335c-1.051,23.081,0.504,46.108,3.916,68.947
		c8.116,54.329,26.375,104.993,55.665,151.559c18.595,29.563,40.88,55.965,67.564,78.602c25.85,21.929,54.363,39.555,85.278,53.371
		c42.166,18.844,86.409,29.477,132.412,32.177c25.917,1.52,51.869,0.663,77.645-3.399c31.777-5.008,62.395-13.739,91.651-27.194
		c29.786-13.699,56.673-32.172,83.596-50.588c19.895-13.608,39.955-26.938,61.169-38.453c32.092-17.421,66.081-27.854,102.83-28.355
		c6.249-0.085,6.477-0.347,6.504-6.908C1708.33,1665.435,1708.298,1654.839,1708.298,1644.244z M393.508,1201.129
		c-0.784-2.134,0.055-3.657,0.496-5.223c6.33-22.443,8.376-45.199,5.837-68.449c-3.055-27.984-12.043-53.843-27.086-77.531
		c-17.728-27.916-41.922-48.558-71.835-62.583c-9.244-4.334-9.21-4.422-9.21,5.912c-0.002,106.995-0.001,213.991-0.001,320.986
		c0,1.246-0.023,2.494,0.009,3.74c0.153,5.878,0.706,6.419,6.116,4.689c37.378-11.957,76.001-15.086,114.891-16.18
		c20.353-0.573,40.665,0.375,60.957,2.173c18.617,1.65,37.122,4.016,55.534,7.178c37.637,6.464,74.885,15.001,112.611,21.006
		c20.307,3.231,40.706,5.717,61.222,6.641c14.492,0.652,29.024,0.469,43.568-0.658c21.661-1.68,42.802-5.579,63.346-12.527
		c48.045-16.248,88.858-43.635,123.336-80.664c0.804-0.863,2.001-1.557,1.808-3.427c-6.239-1.148-12.235,0.31-18.001,2.467
		c-16.545,6.188-27.067,18.482-33.274,34.627c-2.79-1.13-2.869-3.19-3.471-4.855c-5.129-14.183-13.493-26.192-24.696-36.172
		c-21.007-18.715-45.64-27.355-73.557-23.476c-36.665,5.094-68.636,34.886-76.406,72.03c-0.444,2.124,0.028,4.635-2.624,6.311
		c-2.775-3.598-3.629-8.337-7.036-11.503c-3.232-3.003-6.694-5.608-10.706-7.408c-4.177-1.874-8.463-3.505-13.113-3.691
		c-4.35-0.174-8.656-0.226-13,0.759c-4.523,1.026-7.086,5.349-11.401,6.661c-0.307-0.787-0.608-1.178-0.577-1.54
		c0.289-3.308,0.553-6.623,0.99-9.913c0.411-3.101,0.647-6.196,0.481-9.319c-0.968-18.145-5.621-35.235-14.865-50.945
		c-21.158-35.958-58.525-59.135-106.369-50.122c-31.785,5.988-56.688,22.782-73.439,50.917c-1.125,1.889-1.517,5.126-3.979,5.081
		c-2.65-0.048-2.547-3.409-3.418-5.372c-9.485-21.371-34.238-23.4-48.145-12.362C397.112,1199.488,395.98,1201.222,393.508,1201.129
		z M1301.184,890.255c0.382-17.547-2.332-37.028-7.527-56.18c-10.082-37.163-29.044-69.571-53.155-99.232
		c-2.129-2.619-4.491-3.895-7.938-3.982c-23.768-0.604-47.304,1.263-70.514,6.493c-40.409,9.106-75.955,27.474-106.121,56.03
		c-29.484,27.911-50.385,61.599-66.185,98.657c-21.968,51.528-32.64,105.792-38.523,161.179c-0.614,5.777-0.92,11.586-1.396,17.378
		c-0.233,2.836,0.949,4.778,3.514,5.966c1.696,0.786,3.344,1.673,5.026,2.487c39.821,19.274,79.643,38.545,119.466,57.814
		c20.753,10.041,41.488,20.12,62.275,30.088c6.273,3.008,6.293,2.812,11.318-1.808c20.212-18.586,39.088-38.454,56.795-59.424
		c29.375-34.786,54.695-72.165,72.204-114.435C1293.509,959.7,1301.469,927,1301.184,890.255z M1167.841,46.465
		c-44.458,0-88.916,0-133.375,0.001c-1.87,0-3.742,0.081-5.608,0.012c-2.694-0.1-4.76,0.935-6.533,2.959
		c-6.989,7.977-13.633,16.199-19.382,25.144c-17.539,27.292-27.108,57.249-30.525,89.385c-0.686,6.453,1.162,10.919,6.183,15.082
		c15.685,13.004,31.659,25.604,48.498,37.079c51.395,35.023,106.337,63.241,164.442,85.321
		c30.519,11.597,61.682,21.017,93.684,27.703c5.904,1.233,9.815-0.199,13.935-4.024c16.76-15.561,30.7-33.297,41.228-53.576
		c19.334-37.243,26.112-76.779,20.452-118.346c-5.125-37.635-20.503-70.721-44.75-99.867c-4.22-5.073-8.812-7.063-15.499-7.02
		C1256.343,46.604,1212.091,46.465,1167.841,46.465z M1708.3,398.116c0-59.623,0-119.245,0-178.868c0-1.87,0.04-3.741-0.017-5.609
		c-0.166-5.436-0.667-5.931-6.189-6.083c-12.079-0.333-24.137,0.528-35.954,2.738c-63.879,11.944-110.899,46.941-140.087,104.959
		c-16.244,32.287-21.738,66.886-18.008,102.927c3.802,36.734,16.803,69.884,40.085,98.428
		c38.789,47.556,88.905,72.277,150.743,72.022c9.418-0.039,9.426-0.029,9.426-9.776C1708.301,518.607,1708.3,458.361,1708.3,398.116
		z M291.709,169.072c0,37.791-0.03,75.583,0.022,113.374c0.012,8.96-1.436,8.103,8.209,12.169
		c27.691,11.674,56.438,15.187,85.954,9.381c54.004-10.623,91.721-41.805,113.311-92.202c9.724-22.699,12.857-46.619,10.339-71.328
		c-3.445-33.803-16.469-63.148-39.369-88.239c-3.81-4.174-7.875-5.886-13.552-5.866c-52.113,0.177-104.227,0.104-156.341,0.105
		c-1.246,0-2.496-0.047-3.736,0.039c-4.048,0.279-4.55,0.772-4.797,4.834c-0.101,1.655-0.038,3.321-0.038,4.982
		C291.709,93.905,291.709,131.489,291.709,169.072z M292.282,1471.884c2.221,0.174,3.483-1.069,4.87-1.874
		c22.366-12.988,46.725-19.423,72.292-21.233c19.931-1.411,39.852-0.118,59.642,2.623c24.268,3.363,48.284,8.172,72.314,12.897
		c23.428,4.606,46.974,8.8,70.826,10.064c28.026,1.485,56.042,0.593,83.86-3.764c43.429-6.802,84.809-20.078,124.096-39.717
		c35.874-17.933,68.647-40.449,98.381-67.435c33.218-30.148,60.75-64.774,82.899-103.734c0.614-1.081,1.164-2.203,1.669-3.339
		c0.461-1.037,0.415-2.06-0.631-2.747c-1.082-0.712-2.311-1.25-3.41-0.175c-1.029,1.008-1.902,2.186-2.775,3.342
		c-5.763,7.629-11.756,15.071-18.187,22.147c-39.684,43.662-87.344,75.816-141.871,97.943
		c-38.537,15.639-78.447,25.634-120.015,28.837c-26.595,2.049-53.114,1.802-79.528-1.884c-26.779-3.737-52.938-10.415-79.002-17.462
		c-29.057-7.856-57.919-16.465-87.409-22.651c-20.549-4.311-41.269-7.286-62.274-8.065c-15.815-0.586-31.547,0.572-47.194,2.699
		c-8.215,1.117-16.332,2.945-24.51,4.359c-3.173,0.549-4.812,2.154-4.598,5.469c0.067,1.034-0.017,2.077-0.017,3.116
		c-0.002,31.789-0.007,63.578,0.012,95.367C291.725,1468.304,291.438,1469.99,292.282,1471.884z M1707.401,1237.717
		c1.386-2.015,0.86-3.923,0.871-5.707c0.057-9.557-0.373-19.137,0.167-28.664c0.363-6.403-1.959-10.264-7.704-12.522
		c-1.733-0.681-3.331-1.695-5.027-2.481c-26.418-12.24-54-17.191-83.057-13.718c-33.092,3.955-62.216,16.993-86.049,40.011
		c-38.679,37.357-55.279,83.417-45.523,136.489c11.486,62.483,49.36,102.693,110.26,121.121c5.242,1.586,9.295,0.808,13.809-2.556
		c21.906-16.328,46.668-24.79,73.968-26.494c7.94-0.495,15.744,0.178,23.611,0.256c4.921,0.049,5.452-0.413,5.53-5.222
		c0.118-7.27,0.073-14.544-0.003-21.815c-0.01-1.016,0.721-2.544-1.329-3.035c-0.58,0.774-1.181,1.6-1.806,2.406
		c-6.993,9.014-16.206,14.243-27.511,15.279c-6.597,0.605-13.171-0.447-17.059-6.659c-3.83-6.12-2.623-12.4,1.219-18.169
		c5.709-8.57,13.943-13.506,23.835-15.721c8.076-1.809,15.615-0.758,22.274,5.969c0-48.856,0-96.808,0-145.351
		c-0.905,0.982-1.375,1.391-1.724,1.885c-7.713,10.923-29.187,14.505-41.517,6.874c-6.141-3.801-8.694-9.68-6.772-15.859
		c1.024-3.293,3.175-5.803,5.749-7.983c9.177-7.772,25.813-9.568,36.534-4.042
		C1702.897,1233.426,1704.829,1235.912,1707.401,1237.717z M1017.722,47.065c-2.171-0.898-4.245-0.586-6.252-0.587
		c-59.617-0.017-119.234-0.014-178.851-0.012c-1.246,0-2.497-0.048-3.738,0.036c-4.23,0.286-4.899,1.082-4.647,5.464
		c0.048,0.827,0.235,1.645,0.315,2.471c1.393,14.386,6.967,27.306,14.204,39.559c14.607,24.73,33.646,45.85,54.5,65.34
		c36.865,34.453,77.568,63.849,120.432,90.34c48.33,29.868,98.704,55.794,151.054,77.826
		c61.027,25.684,123.534,46.587,189.182,56.949c28.19,4.449,56.51,6.41,84.976,3.022c13.281-1.581,26.131-4.837,37.878-11.551
		c11.38-6.505,19.368-15.774,21.836-28.856c1.714-9.086,0.804-18.202-1.906-27.104c-4.595-15.096-12.378-28.535-21.464-41.275
		c-12.466-17.48-27.042-33.089-42.494-47.95c-18.903-18.179-39.156-34.712-60.209-50.299c-1.229-0.91-2.431-2.815-4.267-1.675
		c-1.358,0.843-0.858,2.652-0.888,4.058c-0.212,9.773-0.783,19.563-2.791,29.101c-1.226,5.821,0.175,9.662,4.343,13.717
		c12.548,12.212,23.526,25.747,32.276,40.996c4.485,7.816,7.837,16.078,9.27,24.989c2.395,14.888-2.168,27.005-14.739,35.808
		c-5.88,4.118-12.44,6.659-19.319,8.391c-20.261,5.099-40.787,4.491-61.277,2.148c-23.134-2.645-45.856-7.535-68.277-13.824
		c-38.689-10.853-76.062-25.206-112.396-42.303c-57.951-27.269-112.691-59.66-161.087-101.991
		c-17.709-15.49-34.115-32.27-46.908-52.216c-5.637-8.788-10.435-18.058-12.507-28.361c-3.842-19.105,2.409-33.347,19.563-42.032
		c2.769-1.402,5.674-2.588,8.613-3.59c9.703-3.306,19.755-4.814,29.96-5.156c13.295-0.446,26.579-0.131,39.776,1.732
		C1014.64,50.617,1016.735,50.404,1017.722,47.065z M641.122,1402.684c32.019,0.116,48.858-1.715,71.521-5.815
		c44.916-8.126,87.411-23.226,127.227-45.596c41.906-23.544,78.731-53.198,108.449-91.262c1.917-2.455,3.835-4.91,5.687-7.414
		c0.61-0.825,1.286-1.981,0.263-2.791c-2.786-2.203-5.965-3.876-9.415-4.582c-2.336-0.479-3.555,1.875-4.873,3.384
		c-10.409,11.925-21.86,22.766-34.084,32.792c-33.716,27.651-71.313,47.878-113.751,58.465c-31.268,7.801-63.037,9.411-95.179,7.353
		c-28.235-1.808-56.073-6.073-83.847-11.094c-39.195-7.086-78.018-16.243-117.624-21.048c-17.311-2.1-34.68-3.639-52.089-4.136
		c-17.835-0.509-35.678-0.454-53.535,0.754c-21.351,1.444-42.595,3.382-63.559,7.796c-9.962,2.097-19.766,4.8-29.468,7.872
		c-2.357,0.747-5.019,1.38-5.031,4.652c-0.03,7.891-0.029,15.783,0.042,23.674c0.018,2.028,1.312,2.99,3.293,2.827
		c1.232-0.101,2.446-0.42,3.666-0.649c27.007-5.079,54.095-8.026,81.689-5.651c22.408,1.929,44.419,5.802,66.257,10.91
		c31.339,7.329,62.083,16.912,93.278,24.792C574.54,1396.631,609.3,1403.507,641.122,1402.684z M1386.793,1952.361
		c0.151,0.395,0.303,0.789,0.454,1.184c1.439,0,2.878,0,4.316,0c25.336,0,50.671,0.001,76.007,0.001
		c77.668,0,155.336,0.004,233.004-0.009c7.618-0.001,7.713-0.101,7.717-7.601c0.017-35.099,0.018-70.198-0.002-105.297
		c-0.004-7.231-0.172-7.407-7.271-9.159c-19.787-4.883-39.818-5.46-59.958-3.046c-25.747,3.085-50.322,10.494-74.154,20.554
		c-30.719,12.966-59.344,29.777-87.487,47.49c-27.061,17.031-53.805,34.583-81.852,50
		C1393.981,1948.447,1390.385,1950.4,1386.793,1952.361z M980.161,233.241c8.829,42.114,44.721,94.189,97.936,121.359
		c56.68,28.939,120.939,26.07,162.862,6.263C1148.637,329.748,1062.187,287.477,980.161,233.241z M947.384,1145.517
		c-0.102,16.817,0.964,33.581,2.038,50.355c0.326,5.097,2.312,7.667,6.774,9.793c27.728,13.209,55.381,26.578,82.927,40.163
		c4.989,2.461,8.762,1.945,13.148-1.174c12.855-9.144,25.813-18.144,38.267-27.834c6.552-5.098,13.055-10.265,19.455-15.551
		c2.794-2.308,2.634-3.322-0.497-4.973c-2.933-1.547-6.022-2.797-9.009-4.245c-47.436-22.991-94.866-45.995-142.301-68.987
		c-2.054-0.995-4.11-2.001-6.229-2.843c-3.725-1.481-4.45-1.113-4.529,2.878C947.278,1130.569,947.384,1138.044,947.384,1145.517z
		 M1144.71,1340.866c1.72,0.073,2.349-0.829,3.091-1.491c19.691-17.547,38.453-36.034,55.805-55.905
		c11.748-13.454,22.798-27.471,31.749-42.996c6.448-11.184,12.179-22.698,13.892-35.726c1.84-13.988-2.438-25.348-14.552-33.271
		c-2.964-1.938-6.056-3.599-9.345-4.913c-14.98-5.985-28.716-2.634-39.315,9.611c-4.365,5.042-8.004,10.547-11.118,16.46
		c-8.788,16.688-13.799,34.646-17.953,52.882c-4.936,21.669-7.9,43.659-10.04,65.757
		C1145.971,1321.096,1145.438,1330.958,1144.71,1340.866z M816.966,1182.577c2.891-2.407,4.995-4.033,6.96-5.813
		c16.332-14.79,32.056-30.194,46.721-46.652c12.593-14.132,24.535-28.785,34.425-44.975c6.293-10.302,11.963-20.943,14.753-32.829
		c2.025-8.626,2.649-17.203-1.128-25.625c-4.709-10.499-13.528-16.098-23.805-19.626c-12.633-4.337-24.105-2.218-33.953,7.284
		c-5.755,5.553-10.229,11.986-13.962,18.995c-6.385,11.987-10.842,24.722-14.359,37.784c-8.457,31.403-12.787,63.472-14.969,95.855
		C817.33,1171.696,816.053,1176.397,816.966,1182.577z M1141.854,1173.657c-1.384-2.211-3.07-2.63-4.536-3.338
		c-16.074-7.762-32.178-15.464-48.245-23.241c-44.467-21.525-88.92-43.078-133.38-64.618c-0.934-0.452-1.852-0.954-2.823-1.308
		c-2.979-1.088-3.902-0.673-4.097,2.398c-0.541,8.489-0.835,16.994-1.331,25.486c-0.185,3.172,1.267,5.019,4.036,6.256
		c4.168,1.862,8.291,3.83,12.4,5.821c47.071,22.813,94.135,45.641,141.206,68.454c2.988,1.448,6.05,2.746,9.023,4.221
		c2.094,1.039,3.863,0.938,5.705-0.636C1127.211,1186.831,1134.743,1180.662,1141.854,1173.657z M1362.345,225.55
		c-3.768,13.661-7.761,26.688-13.661,39.036c-6.013,12.587-13.064,24.514-21.326,35.763c-8.075,10.996-17.857,20.458-27.534,29.943
		c1.531,1.594,2.814,1.817,3.996,1.977c20.597,2.788,41.239,4.603,61.958,1.455c9.483-1.441,18.691-3.947,26.842-9.314
		c9.38-6.176,14.229-14.872,14.101-26.157c-0.088-7.82-2.437-15.106-5.69-22.134c-6.874-14.855-16.584-27.755-27.692-39.632
		C1370.006,232.922,1367.18,228.769,1362.345,225.55z M1011.482,55.232c-1.616-0.626-2.156-0.961-2.732-1.041
		c-13.828-1.902-27.743-1.971-41.615-1.154c-10.788,0.636-21.396,2.725-31.211,7.674c-15.394,7.762-21.544,20.867-17.734,37.704
		c2.041,9.02,5.958,17.224,10.764,25.047c6.984,11.368,15.477,21.574,24.485,31.352c4.276,4.642,8.553,9.342,14.286,13.698
		c1.648-21.213,5.903-40.995,13.214-60.068C988.26,89.345,998.561,71.905,1011.482,55.232z M1040.77,1253.072
		c-0.473-2.541-2.5-2.951-4.109-3.735c-13.616-6.638-27.253-13.233-40.887-19.834c-13.821-6.692-27.635-13.396-41.472-20.053
		c-5.214-2.508-5.289-2.477-7.915,2.778c-3.061,6.126-6.073,12.278-9.02,18.46c-2.184,4.581-2.139,4.643,2.497,6.899
		c23.883,11.621,47.772,23.231,71.668,34.827c4.106,1.993,8.228,3.959,12.39,5.83c3.871,1.741,4.214,1.634,6.148-2.308
		c3.292-6.705,6.473-13.465,9.677-20.213C1040.188,1254.797,1040.49,1253.806,1040.77,1253.072z M1141.665,1182.534
		c-2.584-0.231-4.046,0.993-5.427,2.236c-7.703,6.931-15.726,13.478-23.761,20.015c-3.437,2.796-3.354,3.76,0.514,5.664
		c13.008,6.401,26.112,12.608,39.115,19.019c2.794,1.377,4.036,0.786,4.905-2.143c2.886-9.73,5.798-19.464,10.226-28.643
		c1.166-2.417,0.403-3.775-1.921-4.876c-7.113-3.369-14.156-6.884-21.238-10.318
		C1143.156,1183.041,1142.167,1182.73,1141.665,1182.534z M944.009,1089.697c0.327-2.212-0.888-3.491-2.71-4.366
		c-7.092-3.407-14.217-6.747-21.268-10.238c-2.799-1.386-4.128-0.126-5.383,2.186c-4.65,8.565-9.886,16.757-15.632,24.637
		c-2.598,3.563-2.406,3.928,1.621,5.887c10.054,4.893,20.128,9.745,30.193,14.615c2.796,1.353,5.534,2.847,8.4,4.027
		c2.865,1.18,3.695,0.634,3.754-2.627C943.193,1112.438,942.874,1101.042,944.009,1089.697z M1691.783,1394.145
		c-7.176-0.16-13.385,2.549-18.97,6.742c-3.662,2.749-6.858,6.024-8.763,10.331c-3.289,7.432-0.572,13.21,7.258,15.23
		c1.585,0.409,3.298,0.786,4.892,0.616c10.348-1.103,19.135-5.299,25.457-13.789c3.131-4.205,4.641-9.001,2.001-13.974
		C1701.174,1394.623,1696.492,1394.16,1691.783,1394.145z M1686.057,1233.214c-8.313-0.14-15.396,1.776-21.044,7.29
		c-5.146,5.024-4.475,11.091,1.325,15.327c3.479,2.541,7.544,3.66,11.632,3.882c8.932,0.485,17.382-1.283,23.782-8.174
		c4.533-4.881,3.762-10.433-1.578-14.418C1695.801,1233.856,1690.768,1233.044,1686.057,1233.214z"/>
	<path style="stroke:#13110C;stroke-miterlimit:10;" d="M738.392,378.69c61.532,1.958,111.808,26.427,149.93,75.191
		c1.023,1.309,2.067,2.612,2.968,4.004c1.512,2.338,3.622,3.172,6.344,3.126c14.348-0.243,28.622,0.924,42.849,2.608
		c23.159,2.741,46.003,6.924,67.494,16.472c12.065,5.36,23.256,12.091,31.499,22.742c13.636,17.619,13.693,36.327,3.747,55.49
		c-5.803,11.18-14.058,20.514-23.411,28.9c-18.076,16.209-38.57,28.795-59.981,39.985c-15.288,7.99-30.986,15.119-47.048,21.4
		c-4.097,1.602-6.905,3.922-9.043,7.868c-18.318,33.818-44.526,59.836-78.552,77.716c-22.87,12.018-47.318,18.71-73.169,20.754
		c-37.348,2.953-72.164-5.116-104.973-22.707c-10.091-5.411-19.565-11.812-28.36-19.145c-2.734-2.28-5.557-3.227-9.076-3.187
		c-10.384,0.119-20.778,0.242-31.155-0.074c-29.129-0.888-57.978-3.977-85.969-12.584c-6.071-1.867-12.541-3.101-17.434-7.814
		c-1.588-1.529-4.079-0.626-5.932-1.576c-16.448-8.439-29.906-19.717-34.741-38.503c-2.781-10.805-1.359-21.441,3.112-31.66
		c3.784-8.651,9.032-16.323,15.352-23.313c13.077-14.466,28.49-26.019,44.995-36.209c15.749-9.724,32.064-18.409,49.042-25.773
		c4.657-2.02,6.888-5.026,8.158-9.927c14.343-55.35,46.85-96.522,97.474-123.075c20.985-11.006,43.515-17.283,67.17-19.514
		C725.892,379.297,732.081,378.795,738.392,378.69z M612.783,684.265c14.11-0.243,28.168-1.335,42.243-2.266
		c14.089-0.932,28.1-2.534,42.068-4.389c25.294-3.36,50.412-7.816,75.354-13.268c46.125-10.083,91.206-23.511,134.961-41.34
		c4.86-1.981,7.627-4.747,8.902-10.019c6.394-26.42,7.597-52.979,2.423-79.669c-8.234-42.477-28.51-78.241-61.64-106.135
		c-41.784-35.18-90.246-49.46-144.333-42.277c-41.209,5.473-77.019,23.114-105.859,53.363
		c-45.973,48.22-61.741,105.372-48.19,170.455c5.367,25.776,16.799,48.969,32.602,70.047c2.866,3.823,5.905,6.078,10.886,5.568
		C605.694,683.976,609.253,684.265,612.783,684.265z M896.86,465.556c2.626,4.704,4.938,8.361,6.761,12.247
		c1.824,3.889,4.693,5.592,8.831,5.615c5.817,0.032,11.588,0.652,17.38,1.177c17.203,1.56,34.176,4.345,50.795,9.035
		c12.647,3.569,24.866,8.253,35.351,16.475c12.869,10.091,15.615,22.366,8.305,36.927c-5.023,10.007-12.5,18.045-20.856,25.333
		c-17.345,15.129-36.898,26.92-57.313,37.273c-47.103,23.888-96.887,40.419-148.034,53.032
		c-35.892,8.851-72.174,15.599-108.896,20.091c-25.567,3.127-51.192,5.093-76.919,5.748c-19.934,0.507-39.833-0.299-59.693-2.259
		c-19.678-1.941-39.106-5.107-57.903-11.381c-10.686-3.567-20.882-8.227-29.521-15.703c-10.063-8.708-12.741-19.669-7.864-32.006
		c1.304-3.299,3.043-6.37,5.043-9.292c6.642-9.702,15.101-17.679,24.223-24.937c16.983-13.514,35.607-24.461,55.159-33.745
		c5.918-2.81,9.633-6.006,8.945-12.993c-0.197-2.006,0.599-4.093,0.796-6.157c0.405-4.245-0.452-4.917-4.501-3.071
		c-28.26,12.886-55.299,27.807-78.913,48.269c-9.309,8.067-17.495,17.18-23.574,27.989c-12.816,22.791-8.055,46.099,12.562,62.049
		c7.62,5.895,16.01,10.373,24.965,13.861c28.027,10.915,57.448,14.808,87.159,16.087c30.903,1.331,61.833,0.933,92.711-1.987
		c16.736-1.583,33.455-3.278,50.07-5.714c46.48-6.813,92.265-16.855,137.161-30.768c42.138-13.058,83.25-28.644,121.793-50.388
		c20.159-11.372,39.177-24.315,55.072-41.383c6.851-7.357,12.734-15.42,16.243-24.896c6.752-18.235,3.892-34.683-9.857-48.85
		c-8.109-8.355-17.979-14.015-28.621-18.405c-28.434-11.73-58.504-15.169-88.815-17.223
		C909.349,465.233,903.747,465.556,896.86,465.556z M622.568,710.082c91.461,75.589,229.182,41.082,276.538-55.825
		C810.068,687.121,718.332,705.616,622.568,710.082z M920.608,615.897c1.217,0.545,2.007,0.245,2.759-0.091
		c27.026-12.084,52.907-26.126,75.625-45.347c8.093-6.847,15.642-14.342,20.726-23.866c7.18-13.452,5.26-23.326-6.404-33.078
		c-1.588-1.328-3.285-2.555-5.048-3.641c-6.21-3.824-12.776-6.92-19.671-9.308c-22.35-7.741-45.53-11.071-68.994-12.582
		c-12.18-0.784-10.886-1.044-6.702,9.644c14.259,36.43,17.322,73.712,8.585,111.914
		C921.034,611.515,920.022,613.454,920.608,615.897z M589.005,684.114c-0.694-2.832-2.1-4.137-3.184-5.617
		c-12.887-17.586-22.288-36.883-28.549-57.749c-5.226-17.415-7.708-35.221-7.87-53.376c-0.065-7.24-0.238-7.412-6.848-3.981
		c-7.916,4.11-15.856,8.202-23.557,12.694c-16.179,9.436-31.516,20.042-44.623,33.59c-4.651,4.808-8.609,10.122-11.696,16.044
		c-5.896,11.309-4.195,21.169,4.988,29.877c3.496,3.315,7.485,5.899,11.72,8.143c13.91,7.368,28.953,11.199,44.255,14.257
		c18.147,3.627,36.576,4.69,54.966,6.083C581.881,684.327,585.19,684.114,589.005,684.114z"/>
	<path style="stroke:#13110C;stroke-miterlimit:10;" d="M773.266,245.981c1.822-1.111,2.762-0.528,3.679-0.13
		c51.666,22.384,102.86,45.742,151.67,73.981c10.614,6.141,20.938,12.741,30.665,20.238c4.294,3.309,8.264,6.964,11.784,11.079
		c1.204,1.408,2.296,2.977,3.128,4.628c3.753,7.453,0.257,13.376-8.039,13.783c-5.098,0.25-9.879-1.155-14.565-2.894
		c-14.096-5.23-27.091-12.656-39.827-20.501c-47.13-29.03-91.171-62.388-134.641-96.533
		C775.851,248.636,774.763,247.41,773.266,245.981z M798.109,259.772c1.372,1.622,1.69,2.163,2.151,2.518
		c37.043,28.505,74.621,56.261,114.482,80.759c11.141,6.847,22.482,13.398,34.673,18.288c5.019,2.013,10.071,3.985,15.6,3.904
		c6.184-0.091,7.968-3.145,4.861-8.384c-2.686-4.53-6.506-8.06-10.57-11.33c-8.266-6.653-17.046-12.577-26.124-18.044
		c-39.744-23.936-81.692-43.539-123.81-62.799C806.072,263.173,802.718,261.777,798.109,259.772z"/>
	<path style="stroke:#13110C;stroke-miterlimit:10;" d="M1418.932,831.82c2.311-1.02,3.521,0.014,4.8,0.57
		c50.831,22.072,101.227,45.043,149.314,72.744c11.695,6.737,23.091,13.943,33.644,22.409c3.572,2.866,6.882,5.997,9.915,9.424
		c1.663,1.879,3.061,3.937,3.957,6.291c2.357,6.188-0.734,11.43-7.276,12.145c-3.309,0.361-6.589,0.025-9.865-0.817
		c-10.562-2.715-20.151-7.646-29.602-12.859c-27.31-15.063-52.885-32.808-78.185-50.954c-23.948-17.176-47.45-34.951-70.558-53.245
		C1423.01,835.892,1420.718,834.453,1418.932,831.82z M1445.531,848.171c0.847,0.637,1.635,1.228,2.422,1.82
		c11.123,8.36,22.187,16.801,33.381,25.064c27.579,20.357,55.5,40.218,85.081,57.62c10.928,6.429,22.024,12.535,34.054,16.726
		c3.352,1.167,6.774,1.98,10.366,1.828c6.107-0.259,7.747-3.253,4.499-8.567c-2.289-3.745-5.343-6.857-8.701-9.697
		c-11.316-9.569-23.892-17.267-36.646-24.679c-39.022-22.677-79.898-41.644-120.949-60.253
		C1448.164,847.636,1447.27,846.79,1445.531,848.171z"/>
	<path style="stroke:#13110C;stroke-miterlimit:10;" d="M1365.069,552.923c-2.896-0.226-5.905-0.027-8.666-0.761
		c-6.79-1.805-12.059,0.268-16.844,5.097c-3.498,3.53-7.381,6.7-11.251,9.834c-4.925,3.989-9.051,2.762-10.765-3.345
		c-1.681-5.991-3.05-12.08-4.29-18.18c-0.759-3.734-2.518-6.323-5.928-8.174c-5.104-2.771-10.047-5.855-14.955-8.968
		c-6.85-4.344-6.886-8.267-0.147-12.534c4.56-2.887,9.109-5.835,13.888-8.321c4.248-2.209,6.51-5.319,7.311-10.045
		c0.935-5.516,2.355-10.961,3.786-16.378c1.814-6.866,5.86-8.242,11.394-3.806c4.37,3.504,8.695,7.113,12.663,11.055
		c3.248,3.226,6.778,4.34,11.231,3.895c5.774-0.578,11.526-1.423,17.362-1.432c7.742-0.012,9.735,2.764,6.803,10.077
		c-2.24,5.588-4.466,11.194-7.021,16.64c-1.46,3.112-1.402,5.844,0.009,8.894c2.265,4.897,4.292,9.905,6.381,14.882
		c0.641,1.528,1.336,3.068,1.696,4.672c0.986,4.399-1.369,7.427-5.838,7.417c-2.267-0.005-4.533-0.461-6.799-0.713
		C1365.082,552.794,1365.075,552.859,1365.069,552.923z M1370.513,549.167c2.29,0.085,3.295-1.058,2.089-4.292
		c-2.028-5.436-4.22-10.838-6.773-16.043c-2.174-4.432-2.472-8.488-0.224-12.994c2.309-4.631,4.179-9.49,6.081-14.313
		c2.097-5.315,1.421-6.413-4.128-6.188c-6,0.244-11.989,0.812-17.973,1.348c-3.316,0.297-6.004-0.68-8.499-2.919
		c-4.785-4.293-9.692-8.456-14.674-12.519c-2.996-2.443-4.133-2.057-5.082,1.648c-1.388,5.423-2.811,10.86-3.742,16.371
		c-0.863,5.108-3.182,8.663-7.863,11.106c-5.138,2.681-10.017,5.879-14.901,9.019c-3.641,2.34-3.608,3.197,0.184,5.576
		c5.447,3.416,10.94,6.769,16.531,9.941c2.924,1.659,4.617,3.829,5.307,7.171c1.341,6.497,2.957,12.94,4.571,19.376
		c0.951,3.791,2.083,4.228,5,1.786c4.61-3.861,9.283-7.694,13.508-11.956c3.609-3.64,7.574-4.521,12.428-3.861
		C1358.095,548.203,1363.895,548.552,1370.513,549.167z"/>
	<path style="stroke:#13110C;stroke-miterlimit:10;" d="M497.298,737.911c3.444-0.522,5.045,0.622,6.703,1.335
		c23.838,10.261,47.36,21.18,69.919,34.063c5.768,3.294,11.385,6.849,16.44,11.204c0.941,0.811,1.827,1.697,2.666,2.615
		c3.308,3.618,4.202,6.519,2.484,8.804c-2.422,3.222-5.847,2.776-9.103,1.881c-7.072-1.945-13.399-5.578-19.628-9.313
		c-19.617-11.763-37.922-25.407-55.96-39.416C506.463,745.701,501.783,742.656,497.298,737.911z M523.202,753.261
		c6.416,4.696,12.369,9.149,18.421,13.463c12.518,8.924,25.116,17.735,39.041,24.404c2.42,1.159,4.805,2.51,7.568,2.741
		c0.828,0.069,1.753,0.075,2.296-0.651c0.738-0.988,0.297-2.003-0.36-2.833c-2.754-3.48-6.438-5.872-10.083-8.242
		c-17.465-11.355-36.341-20.044-55.094-28.957C524.693,753.044,524.25,753.206,523.202,753.261z"/>
	<path style="stroke:#13110C;stroke-miterlimit:10;" d="M466.37,937.373c0.728,0.068,2.467-0.059,4.012,0.43
		c5.452,1.723,9.666-0.198,13.449-3.998c1.456-1.463,3.096-2.763,4.755-4c5.201-3.878,7.987-2.843,9.665,3.566
		c0.472,1.802,0.935,3.626,1.161,5.47c0.654,5.334,3.04,9.285,8.136,11.557c2.246,1.002,4.303,2.506,6.293,3.988
		c3.796,2.828,3.778,5.574-0.148,8.362c-2.357,1.674-4.911,3.104-7.491,4.421c-3.762,1.921-6.172,4.656-6.803,8.985
		c-0.386,2.652-1.18,5.259-1.949,7.839c-1.645,5.518-4.658,6.532-9.09,3.052c-2.117-1.662-4.267-3.342-6.093-5.303
		c-3.123-3.352-6.846-4.389-11.242-3.779c-2.664,0.369-5.346,0.816-8.023,0.832c-4.905,0.03-6.793-2.66-5.159-7.281
		c1.035-2.925,2.251-5.809,3.653-8.576c1.724-3.402,1.917-6.649,0.154-10.089c-1.036-2.022-1.766-4.201-2.626-6.313
		C456.043,939.22,457.53,937.093,466.37,937.373z M493.149,933.056c-2.071-0.287-3.068,0.957-4.02,1.939
		c-5.808,5.991-12.31,9.665-20.967,6.792c-0.189-0.063-0.412-0.028-0.619-0.029c-4.926-0.022-5.389,0.662-3.575,5.488
		c0.802,2.134,1.568,4.299,2.603,6.322c1.439,2.812,1.493,5.475,0.102,8.32c-1.364,2.79-2.609,5.65-3.71,8.554
		c-1.386,3.653-0.745,4.377,3.273,3.994c1.028-0.098,2.046-0.327,3.061-0.533c6.592-1.336,12.199,0.056,16.781,5.36
		c1.636,1.893,3.296,4.283,6.278,4.532c1.857-2.916,2.288-6.072,2.811-9.074c0.851-4.885,3.244-8.055,7.639-10.511
		c9.914-5.54,9.896-5.916-0.016-11.716c-4.129-2.416-6.436-5.52-7.134-10.181C495.174,939.105,494.758,935.798,493.149,933.056z"/>
	<path style="stroke:#13110C;stroke-miterlimit:10;" d="M1138.41,848.721c42.131-0.945,86.302,32.45,86.425,86.12
		c0.109,47.717-37.334,86.356-86.549,86.174c-48.652-0.18-86.402-37.828-86.102-86.606
		C1052.516,880.302,1097.071,847.886,1138.41,848.721z M1138.828,852.967c-45.873-0.966-81.801,37.967-82.25,80.906
		c-0.43,41.088,31.434,82.793,81.62,82.932c50.508,0.141,82.112-41.619,82.223-81.695
		C1220.547,890.057,1182.828,851.992,1138.828,852.967z"/>
	<path style="stroke:#13110C;stroke-miterlimit:10;" d="M1577.963,1270.928c-4.329,0.205-8.428-0.142-12.449-1.398
		c-13.183-4.118-18.973-16.229-13.911-29.162c2.967-7.581,8.087-13.553,14.429-18.385c12.298-9.369,26.062-14.384,41.762-12.937
		c1.44,0.133,2.895,0.287,4.299,0.619c16.877,3.983,23.489,17.993,15.303,33.308c-7.607,14.234-20.427,21.909-35.432,26.411
		C1587.359,1270.764,1582.614,1271.224,1577.963,1270.928z M1578.516,1266.925c14.188-0.261,29.106-6.767,38.855-17.06
		c2.73-2.882,5.001-6.088,6.68-9.683c6.159-13.192-0.307-24.99-14.83-26.711c-17.924-2.125-32.953,4.196-45.677,16.5
		c-3.431,3.317-6.123,7.289-7.815,11.853c-4.429,11.948,1.529,22.385,14.118,24.462
		C1572.694,1266.756,1575.624,1266.725,1578.516,1266.925z"/>
	<path style="stroke:#13110C;stroke-miterlimit:10;" d="M1522.125,1344.38c-11.775-0.003-18.621-7.013-18.231-18.671
		c0.007-0.207,0.016-0.415,0.026-0.622c1.002-19.524,25.772-39.371,45.006-36.06c8.806,1.516,14.733,9.38,13.777,18.56
		c-0.255,2.448-0.943,4.894-1.741,7.236C1555.486,1330.887,1537.693,1344.384,1522.125,1344.38z M1543.887,1293.03
		c-15.078,0.083-32.959,15.33-35.43,30.219c-0.102,0.613-0.16,1.236-0.211,1.856c-0.789,9.653,4.035,15.027,13.755,14.941
		c11.431-0.101,20.059-6.035,27.377-14.1c4.658-5.133,8.218-10.948,8.536-18.235
		C1558.345,1297.821,1553.762,1292.975,1543.887,1293.03z"/>
	<path style="stroke:#13110C;stroke-miterlimit:10;" d="M1616.483,1308.725c3.853-0.169,7.453,0.568,10.756,2.568
		c4.85,2.937,7.235,8.218,6.216,13.795c-0.802,4.391-2.646,8.333-5.657,11.591c-9.102,9.848-20.058,15.457-33.733,12.741
		c-9.474-1.882-13.383-9.729-10.379-18.97c1.116-3.434,3.076-6.32,5.485-8.933
		C1596.537,1313.529,1605.542,1309.033,1616.483,1308.725z M1600.122,1346.199c10.825-1.14,19.819-5.589,26.16-14.725
		c1.687-2.431,2.618-5.154,2.672-8.16c0.093-5.214-2.539-8.674-7.589-9.893c-12.828-3.095-30.295,6.926-33.891,19.445
		c-1.457,5.073,0.571,9.651,5.354,11.862C1595.112,1345.784,1597.538,1346.331,1600.122,1346.199z"/>
	<path style="stroke:#13110C;stroke-miterlimit:10;" d="M1620.641,1410.618c0.069,3.003-0.716,6.24-2.245,9.218
		c-5.432,10.576-13.722,17.571-25.624,19.712c-11.18,2.011-19.465-6.517-16.559-17.47c3.607-13.592,12.738-22.213,26.272-25.516
		C1613.087,1393.975,1620.729,1400.119,1620.641,1410.618z M1616.335,1410.41c0.095-6.162-3.3-9.782-9.363-9.981
		c-11.613-0.38-25.648,12.241-26.536,23.863c-0.639,8.365,4.716,13.035,12.832,10.976c10.354-2.627,17.428-9.178,21.794-18.812
		C1615.934,1414.53,1616.281,1412.504,1616.335,1410.41z"/>
	<path style="stroke:#13110C;stroke-miterlimit:10;" d="M1526.443,1388.418c0.358-6.995,4.155-14.58,11-20.609
		c1.52-1.339,3.432-2.358,5.324-3.126c7.854-3.19,14.629,0.23,16.87,8.372c3.063,11.125-5.027,27.361-15.728,31.565
		C1534.15,1408.454,1526.316,1402.181,1526.443,1388.418z M1530.739,1390.058c0.05,4.16,0.334,8.062,3.951,10.252
		c3.068,1.857,6.536,1.383,9.452-0.562c8.051-5.371,11.824-13.178,11.723-22.708c-0.037-3.541-1.182-7.159-5.049-8.601
		c-3.622-1.35-6.932-0.209-9.86,2.133C1534.601,1375.656,1531.268,1382.3,1530.739,1390.058z"/>
	<path style="stroke:#13110C;stroke-miterlimit:10;" d="M1676.86,1317.477c8.394,0.098,14.785,2.198,20.507,6.368
		c2.396,1.746,4.296,3.912,5.685,6.513c3.638,6.809,1.595,13.27-5.259,16.729c-10.556,5.328-28.122,0.481-34.563-9.536
		c-4.516-7.024-2.316-14.686,5.255-18.156C1671.553,1317.99,1674.797,1317.356,1676.86,1317.477z M1679.853,1321.826
		c-3.466,0.064-5.936,0.02-8.326,0.919c-6.432,2.42-8.086,7.768-4.07,13.312c5.069,6.998,18.237,11.01,26.364,8.033
		c7.099-2.6,8.726-8.391,3.758-14.06C1692.664,1324.421,1686.251,1321.95,1679.853,1321.826z"/>
	<path style="stroke:#13110C;stroke-miterlimit:10;" d="M1199.194,935.199c-0.103,33.309-27.471,60.22-61.151,60.129
		c-33.299-0.09-60.559-27.609-60.287-61.025c0.26-32.061,25.552-60.467,61.18-60.132
		C1175.706,874.518,1199.433,904.122,1199.194,935.199z M1138.195,991.039c26.823,0.942,56.411-20.712,56.626-56.413
		c0.184-30.558-25.363-56.257-55.668-56.401c-31.102-0.148-57.411,25.55-57.011,56.411
		C1082.613,971.006,1112.004,991.559,1138.195,991.039z"/>
</g>
</svg>
