<?xml version="1.0" encoding="utf-8"?>
<!-- Generator: Adobe Illustrator 27.5.0, SVG Export Plug-In . SVG Version: 6.00 Build 0)  -->
<svg xmlns="http://www.w3.org/2000/svg" xmlns:xlink="http://www.w3.org/1999/xlink" viewBox="0 0 1000 1000" width="595" height="842" preserveAspectRatio="xMidYMid meet" data-scaled="true">
<g>
	<path style="fill:#0C0C0C;" d="M837.758,578.074c-14.136-0.284-27.907-0.621-41.569-2.683c-1.107-0.167-2.239-0.184-3.336-0.39
		c-1.732-0.325-2.512,0.471-2.733,2.081c-0.381,2.773-0.734,5.551-1.169,8.316c-1.41,8.965-3.07,17.874-5.944,26.513
		c-1.492,4.485-3.469,8.745-6.024,12.717c-3.508,5.453-8.047,9.783-13.643,13.168c-13.105,7.929-27.238,11.584-42.534,11.559
		c-15.416-0.025-30.339-2.279-44.62-8.216c-4.562-1.896-8.896-4.234-12.957-7.059c-11.504-7.999-17.321-19.306-19.168-32.932
		c-1.322-9.751-0.485-19.454,0.64-29.146c0.452-3.892,1.058-7.767,1.566-11.653c0.384-2.938,0.201-3.213-2.768-3.788
		c-11.991-2.324-23.936-4.932-35.467-8.961c-24.431-8.535-47.759-19.274-68.093-35.678c-6.759-5.453-12.646-11.728-17.548-18.888
		c-4.446-6.494-7.151-13.744-7.951-21.54c-1.369-13.352-0.031-26.396,5.584-38.773c2.086-4.598,4.655-8.937,7.45-13.136
		c1.934-2.906,4.258-5.48,6.964-7.698c3.226-2.645,5.917-5.78,8.474-9.057c9.792-12.548,18.771-25.668,27.618-38.889
		c12.83-19.174,25.983-38.129,39.641-56.724c11.403-15.524,22.45-31.32,34.477-46.374c11.046-13.826,22.178-27.618,34.379-40.436
		c10.564-11.098,20.661-22.7,32.703-32.339c19.476-15.589,41.412-25.73,66.043-29.664c15.42-2.463,30.825-1.773,45.999,2.169
		c19.185,4.984,36.867,13.165,52.698,25.16c7.818,5.924,14.304,13.198,20.474,20.768c11.945,14.655,19.7,31.39,24.826,49.482
		c3.399,11.997,5.413,24.238,7.047,36.567c2.974,22.443,4.167,45.043,6.018,67.585c1.723,20.985,3.854,41.922,6.833,62.771
		c2.081,14.569,5.861,28.72,10.084,42.78c3.255,10.838,6.814,21.561,11.422,31.909c0.955,2.145,2.144,4.186,3.09,6.334
		c1.392,3.163,1.105,4.32-1.818,6.148c-1.422,0.889-1.846,1.833-1.271,3.312c4.922,12.65,0.245,22.984-8.015,32.298
		c-5.422,6.115-12.283,10.392-19.512,14.069c-12.072,6.139-24.98,9.728-38.141,12.637
		C877.693,576.77,857.564,577.516,837.758,578.074z M898.086,452.106c-0.255-1.913-1.076-2.734-1.697-3.635
		c-10.46-15.169-17.316-31.816-20.414-49.979c-2.031-11.908-2.24-23.848-0.192-35.785c0.283-1.647,0.551-3.33,1.431-4.803
		c1.167-1.955,3.096-2.278,4.784-0.778c0.493,0.438,0.905,1.004,1.237,1.579c2.987,5.176,7.003,9.573,10.736,14.181
		c7.295,9.006,16.198,16.049,26.419,21.47c2.579,1.368,5.226,2.575,7.975,3.537c2.784,0.974,3.215,0.609,2.93-2.222
		c-0.202-2.005-0.424-4.009-0.582-6.018c-0.703-8.933-1.373-17.868-2.083-26.8c-0.232-2.911-0.413-3.055-3.094-3.321
		c-22.733-2.253-43.195-10.319-61.497-23.959c-13.029-9.71-24.041-21.461-34.354-33.91c-3.076-3.713-5.656-7.796-8.055-11.979
		c-1.229-2.142-2.616-4.316-1.068-6.89c1.653-2.748,4.344-1.888,6.687-1.678c4.347,0.389,8.677,1,13,1.619
		c25.476,3.65,48.004,13.989,67.933,30.132c5.134,4.159,10.179,8.436,14.715,13.269c0.435,0.464,0.907,1.119,1.686,0.707
		c0.579-0.306,0.445-0.954,0.454-1.495c0.007-0.448-0.012-0.896-0.032-1.344c-0.439-10.077-1.209-20.131-2.487-30.133
		c-0.652-5.105-1.643-10.169-2.595-15.231c-0.463-2.46-0.87-2.782-3.09-2.463c-6.668,0.956-13.215,0.11-19.657-1.438
		c-14.652-3.521-26.652-11.138-34.62-24.128c-9.607-15.66-10.265-35.94,5.805-52.037c1.42-1.423,2.96-2.739,4.534-3.991
		c1.257-1,1.471-1.878,0.146-2.943c-1.658-1.332-3.231-2.78-4.956-4.016c-9.995-7.162-20.943-12.457-32.48-16.641
		c-13.077-4.743-26.529-7.272-40.444-7.427c-2.137-0.024-3.442,0.617-4.615,2.509c-3.42,5.519-6.953,10.981-10.709,16.276
		c-11.309,15.943-21.228,32.666-28.98,50.637c-0.266,0.616-0.502,1.253-0.838,1.83c-1.662,2.858-3.825,3.334-6.328,1.255
		c-7.058-5.86-15.298-9.196-24.073-11.402c-9.084-2.284-18.374-2.545-27.67-2.975c-3.607-0.167-6.133,0.875-8.501,3.497
		c-7.061,7.818-13.882,15.833-20.462,24.055c-0.651,0.814-2.017,1.628-1.353,2.781c0.601,1.043,2.048,0.529,3.114,0.512
		c11.686-0.183,23.272,0.889,34.792,2.752c1.538,0.249,3.108,0.59,4.528,1.202c2.194,0.945,2.688,3.034,1.265,4.962
		c-0.793,1.074-1.757,2.036-2.727,2.961c-13.561,12.936-28.602,23.706-45.827,31.281c-9.139,4.019-18.58,7.183-28.143,10.004
		c-3.717,1.097-3.724,1.054-2.239,4.757c1.208,3.012,2.529,5.987,3.576,9.054c3.242,9.499,3.888,19.101,0.245,28.627
		c-4.266,11.156-11.044,20.182-22.299,25.229c-10.787,4.838-21.833,5.362-33.135,2.165c-3.653-1.033-3.612-1-5.715,2.027
		c-4.281,6.162-8.16,12.596-12.689,18.59c-4.861,6.434-9.33,13.258-15.519,18.497c-6.609,5.595-10.898,12.691-14.606,20.28
		c-0.415,0.849-1.088,1.716-0.694,2.825c1.183,0.03,1.853-0.81,2.585-1.429c10.746-9.081,23.272-15.086,36.022-20.63
		c15.178-6.599,31.252-10.261,47.344-13.756c18.203-3.954,36.621-6.422,55.232-7.303c18.369-0.869,36.722-0.715,55.054,0.962
		c13.061,1.195,26.026,2.968,38.925,5.354c15.222,2.816,30.17,6.668,44.885,11.423c12.998,4.2,25.893,8.684,38.576,13.797
		c15.796,6.368,31.571,12.733,46.229,21.528C892.789,449.122,895.221,450.462,898.086,452.106z M786.836,515.443
		c-0.22-13.892-1.094-27.755-1.918-41.622c-0.235-3.961-1.964-6.71-5.411-8.619c-4.711-2.609-9.525-4.963-14.568-6.867
		c-18.313-6.913-37.47-8.467-56.788-9.055c-2.941-0.09-5.469,0.857-7.781,2.626c-3.617,2.766-6.476,6.195-8.789,10.066
		c-7.358,12.316-14.085,24.939-19.395,38.314c-8.49,21.383-15.777,43.108-19.724,65.838c-1.768,10.181-2.734,20.43-1.962,30.777
		c0.376,5.038,1.012,10.038,2.974,14.757c3.698,8.894,10.367,15.07,18.542,19.686c12.838,7.248,26.875,10.471,41.446,11.379
		c13.481,0.841,26.569-1.046,39.069-6.506c11.097-4.847,19.445-12.26,23.411-23.998c0.788-2.333,1.598-4.664,2.244-7.037
		c3.54-13.019,5.236-26.369,6.594-39.733C786.467,548.838,787.305,532.161,786.836,515.443z M830.08,469.875
		c-4.163,0-7.3-0.028-10.436,0.005c-8.407,0.089-16.793,0.5-25.11,1.833c-2.961,0.474-3.332,0.789-3.011,3.646
		c0.754,6.71-0.632,6.257,6.861,7.235c14.463,1.888,28.739,4.629,42.659,9.045c19.117,6.065,38.096,12.498,55.827,22.063
		c16.176,8.725,31.172,18.993,43.067,33.274c1.439,1.728,1.814,1.798,3.64,0.508c4.997-3.53,9.355-7.718,12.201-13.204
		c3.721-7.173,3.659-14.427-0.152-21.57c-2.997-5.618-7.015-10.369-12.289-14.012c-16.755-11.576-35.406-18.76-55.197-22.78
		C868.684,471.966,848.919,470.232,830.08,469.875z M520.345,460.938c0.047,0,0.095,0.001,0.142,0.001
		c0,2.238-0.111,4.483,0.023,6.713c0.293,4.88,0.599,5.082,4.652,2.392c8.024-5.326,16.808-8.946,25.996-11.557
		c19.289-5.482,38.984-8.159,59.05-8.172c7.625-0.005,15.227,0.391,22.837,0.74c16.457,0.755,32.875,1.936,49.193,4.273
		c5.294,0.758,4.684,1.481,7.996-3.197c0.45-0.636,1.037-1.173,1.543-1.771c1.292-1.528,1.322-1.626-0.509-2.697
		c-3.286-1.923-6.651-3.712-9.938-5.632c-15.815-9.24-32.447-16.707-49.727-22.714c-6.656-2.314-13.603-3.831-20.16-6.376
		c-5.21-2.022-10.124-2.078-15.398-0.74c-12.52,3.177-24.712,7.312-36.431,12.69c-12.678,5.817-24.682,12.767-34.315,23.16
		c-0.38,0.409-0.756,0.99-1.232,1.115c-3.102,0.812-3.176,3.226-3.257,5.741C520.743,456.92,520.506,458.928,520.345,460.938z
		 M682.141,463.538c-0.384-0.884-1.108-1.129-1.886-1.255c-2.543-0.414-5.078-0.904-7.635-1.194
		c-18.378-2.081-36.821-3.271-55.305-3.75c-18.31-0.474-36.519,0.548-54.41,4.786c-12.59,2.982-24.742,7.113-35.56,14.515
		c-4.768,3.263-4.96,3.438-2.14,8.49c5.39,9.656,12.887,17.412,21.773,23.912c1.611,1.179,2.917,1.149,4.557,0.084
		c4.795-3.115,9.835-5.814,15.013-8.237c8.719-4.079,17.343-8.372,26.567-11.284c18.877-5.96,38.314-9.157,57.855-11.842
		c7.433-1.022,14.883-1.923,22.334-2.812c1.812-0.216,3.153-0.892,4.042-2.547c1.324-2.466,2.766-4.868,4.136-7.31
		C681.75,464.617,681.914,464.082,682.141,463.538z M793.208,492.799c-0.473,2.502,1.007,3.929,3.781,5.175
		c18.723,8.408,36.999,17.603,53.393,30.197c14.002,10.757,27.304,22.184,37.892,36.449c1.37,1.846,2.807,2.481,5.134,2.085
		c9.321-1.587,18.266-4.454,27.135-7.614c3.91-1.393,7.677-3.121,11.365-5.015c3.396-1.744,3.465-2.085,1.01-5.161
		c-0.907-1.136-1.869-2.238-2.894-3.268c-10.602-10.654-22.763-19.194-36.042-26.129c-13.338-6.966-27.49-11.944-41.664-16.912
		c-18.153-6.362-36.661-11.004-55.79-13.117C793.32,489.134,793.168,489.221,793.208,492.799z M955.609,497.502
		c-1.517-4.301-3.032-8.602-4.551-12.902c-3.507-9.925-6.905-19.889-9.532-30.088c-3.774-14.656-6.747-29.477-8.484-44.52
		c-0.326-2.819-1.49-4.255-4.238-5.171c-11.293-3.761-21.35-9.76-30.332-17.558c-5.187-4.504-9.531-9.774-13.731-15.177
		c-0.778-1.002-1.353-2.289-2.783-2.687c-0.874,1.317-0.731,2.708-0.758,4.015c-0.155,7.729-0.099,15.432,1.104,23.121
		c3.013,19.253,10.692,36.46,22.604,51.763c3.635,4.669,7.921,8.837,11.98,13.168C928.917,474.299,942.761,485.222,955.609,497.502z
		 M671.826,483.927c0.016-0.962-0.315-1.411-0.953-1.424c-1.002-0.022-2.012,0.03-3.01,0.135
		c-12.138,1.278-24.208,3.047-36.275,4.863c-22.306,3.358-43.726,9.473-63.747,20.04c-3.66,1.931-7.224,4.053-10.762,6.202
		c-1.677,1.019-1.643,1.602-0.086,2.67c1.198,0.822,2.477,1.525,3.727,2.271c13.593,8.105,27.781,14.956,42.652,20.396
		c1.826,0.668,3.059,0.642,4.372-0.987c5.936-7.365,13.036-13.544,20.383-19.429c11.477-9.193,23.75-17.225,36.761-24.052
		C669.555,492.164,669.935,487.54,671.826,483.927z M927.503,348.965c-0.082-0.73-0.349-2.064-0.36-3.399
		c-0.028-3.439-1.444-6.225-3.692-8.724c-4.49-4.992-8.794-10.169-13.835-14.628c-21.993-19.453-47.844-30.217-76.8-33.906
		c-1.147-0.146-2.712-0.963-3.419,0.221c-0.692,1.158,0.698,2.214,1.341,3.208c5.133,7.942,11.658,14.729,18.046,21.627
		c14.578,15.743,31.881,27.32,52.268,34.187c7.545,2.541,15.159,4.793,23.161,5.318
		C927.459,353.081,927.683,352.798,927.503,348.965z M926.507,481.586c-1.283-2.046-2.547-2.81-3.638-3.746
		c-17.652-15.145-37.565-26.647-58.645-36.234c-6.819-3.101-13.619-6.27-20.783-8.565c-1.53-0.49-2.748-0.446-4.089,0.442
		c-2.529,1.674-5.343,2.808-8.124,3.987c-11.743,4.979-23.689,9.478-35.28,14.816c-3.963,1.825-7.878,3.758-11.774,5.723
		c-1.569,0.792-1.546,1.235-0.128,2.326c1.33,1.023,2.771,1.917,4.008,3.039c1.367,1.238,2.816,1.572,4.617,1.341
		c17.73-2.275,35.508-2.138,53.302-0.953c9.388,0.625,18.712,1.839,28.019,3.186c13.542,1.96,26.897,4.711,39.723,9.623
		C917.761,478.121,921.781,479.731,926.507,481.586z M779.23,164.694c-0.731,0.113-2.18,0.269-3.6,0.567
		c-20.653,4.326-39.667,12.273-56.406,25.348c-8.663,6.766-16.664,14.236-24.286,22.13c-0.576,0.597-1.564,1.194-1.012,2.224
		c0.433,0.808,1.4,0.469,2.148,0.553c0.332,0.037,0.671,0.023,1.006,0.017c15.307-0.269,29.682,3.441,43.357,10.147
		c1.004,0.492,2.047,0.911,3.029,1.442c1.207,0.653,2.131,0.497,2.782-0.76c0.36-0.695,0.713-1.394,1.07-2.091
		c2.598-5.077,5.082-10.216,7.818-15.218c7.581-13.859,16.603-26.807,25.447-39.865c0.627-0.926,1.278-1.839,1.84-2.804
		c0.511-0.877,0.246-1.526-0.802-1.675C781.074,164.629,780.506,164.694,779.23,164.694z M862.555,225.602
		c0.184,15.184,7.089,27.731,18.408,35.323c10.252,6.876,21.678,9.274,33.841,8.743c2.751-0.12,2.922-0.462,2.37-3.368
		c-3.631-19.099-11.25-36.476-22.515-52.294c-3.784-5.313-8.15-10.096-12.895-14.545c-1.846-1.731-1.974-1.725-3.941-0.222
		c-1.332,1.018-2.6,2.122-3.881,3.206C866.167,209.019,862.665,217.526,862.555,225.602z M846.342,571.351
		c6.282-0.053,12.525-0.734,18.775-1.231c4.909-0.39,9.799-1.055,14.684-1.703c2.092-0.277,2.375-0.963,1.073-2.564
		c-2.967-3.649-5.91-7.338-9.32-10.585c-13.998-13.33-29.015-25.326-45.864-34.927c-9.545-5.439-19.414-10.228-29.321-14.948
		c-2.513-1.197-2.923-0.94-2.922,1.803c0.001,2.91,0.288,5.819,0.279,8.729c-0.007,2.185,0.85,3.778,2.375,5.304
		c5.463,5.465,10.922,10.942,15.995,16.779c8.181,9.412,15.416,19.505,21.423,30.443c1.096,1.997,2.432,3.032,4.76,2.928
		C840.962,571.26,843.654,571.351,846.342,571.351z M713.506,441.965c-0.013-0.253,0.057-0.523-0.047-0.674
		c-0.945-1.385-1.895-2.768-2.891-4.116c-8.186-11.084-16.156-22.307-22.172-34.771c-0.518-1.073-1.245-1.5-2.345-1.516
		c-0.56-0.008-1.119-0.038-1.679-0.044c-21.47-0.227-42.665,2.481-63.783,5.998c-0.506,0.084-1.14,0.14-1.224,1.075
		c0.978,1.291,2.654,1.362,4.072,1.792c18.915,5.74,37.062,13.312,54.482,22.643c6.413,3.435,12.857,6.81,19.267,10.251
		c1.557,0.836,3.109,1.192,4.831,0.64c2.602-0.835,5.28-0.852,7.981-0.768C711.172,442.51,712.464,442.928,713.506,441.965z
		 M625.797,335.535c0.067-3.488-0.362-6.902-1.225-10.292c-1.277-5.017-3.256-9.752-5.512-14.38
		c-0.941-1.931-1.373-1.935-2.841-0.323c-0.753,0.826-1.484,1.679-2.15,2.575c-10.274,13.825-20.176,27.914-29.736,42.242
		c-2.172,3.255-4.245,6.578-6.33,9.891c-2.03,3.225-1.891,3.467,1.647,4.439c2.613,0.718,5.273,0.996,7.955,1.135
		C609.961,371.981,626.049,353.314,625.797,335.535z M831.615,428.882c-0.542-0.367-0.873-0.682-1.266-0.845
		c-13.268-5.512-27.05-9.441-40.868-13.261c-1.834-0.507-2.849,0.145-3.723,1.83c-5.624,10.851-12.055,21.224-18.835,31.384
		c-0.311,0.465-0.608,0.94-0.901,1.417c-0.728,1.181-0.579,2.128,0.77,2.709c4.609,1.988,9.21,4.565,13.937,0.249
		c0.158-0.144,0.402-0.192,0.602-0.294c15.072-7.697,30.625-14.331,46.196-20.927C828.845,430.586,830.341,430.34,831.615,428.882z
		 M694.502,261.58c-0.441-0.195-0.636-0.334-0.847-0.367c-12.308-1.931-24.692-2.406-37.127-1.943
		c-1.961,0.073-3.386,1.001-4.505,2.518c-8.43,11.427-17.085,22.691-25.125,34.403c-0.538,0.784-1.435,1.481-1.113,2.652
		C640.676,299.077,687.474,273.778,694.502,261.58z M741.617,424.961c0.073,0,0.147,0,0.22,0c0.224,5.925,0.407,11.851,0.691,17.773
		c0.134,2.795,0.32,2.934,2.98,3.631c3.353,0.879,6.722,1.694,10.068,2.599c1.347,0.365,2.361,0.209,3.155-1.077
		c2.351-3.809,5.331-7.184,7.606-11.053c3.798-6.461,7.66-12.883,11.481-19.33c0.627-1.058,1.187-2.155,1.773-3.237
		c0.66-1.22,0.548-2.144-0.973-2.534c-0.433-0.111-0.855-0.267-1.289-0.376c-10.751-2.691-21.63-4.724-32.604-6.248
		c-2.889-0.401-3.09-0.169-3.101,2.735C741.601,413.551,741.617,419.256,741.617,424.961z M735.426,424.105
		c-0.146,0-0.291,0-0.437,0c0-5.703,0.026-11.407-0.01-17.11c-0.021-3.213-0.186-3.478-3.324-3.753
		c-10.805-0.945-21.605-1.984-32.458-2.213c-1.082-0.023-2.527-0.52-3.167,0.432c-0.792,1.179,0.551,2.217,1.012,3.302
		c0.043,0.102,0.111,0.194,0.169,0.29c7.253,11.969,15.346,23.354,23.768,34.521c1.945,2.579,4.031,4.366,7.481,4.064
		c1.081-0.095,2.202,0.332,3.311,0.469c3.412,0.421,3.654,0.201,3.656-3.232C735.428,435.285,735.426,429.695,735.426,424.105z
		 M662.187,504.627c-0.956-0.454-1.475,0.046-2.02,0.399c-11.823,7.663-23.482,15.557-34.362,24.542
		c-4.058,3.351-7.9,6.934-11.325,10.935c-1.266,1.48-1.1,2.035,0.73,2.514c3.134,0.821,6.296,1.537,9.46,2.238
		c7.09,1.571,14.097,3.518,21.271,4.702c2.252,0.372,2.584,0.187,3.107-1.898c3.402-13.563,7.986-26.758,12.384-40.012
		C661.809,506.914,662.264,505.776,662.187,504.627z M794.453,530.476c-0.768,0.505-0.696,1.103-0.719,1.635
		c-0.445,10.717-0.918,21.432-1.942,32.113c-0.053,0.555-0.025,1.118-0.07,1.674c-0.139,1.705,0.682,2.332,2.34,2.488
		c5.782,0.547,11.547,1.281,17.33,1.814c4.004,0.37,8.025,0.561,12.043,0.757c1.07,0.052,2.502,0.577,3.145-0.445
		c0.788-1.253-0.584-2.236-1.195-3.216c-1.357-2.179-2.828-4.29-4.299-6.397c-6.92-9.913-14.385-19.377-23.122-27.775
		C796.887,532.09,795.935,530.788,794.453,530.476z"/>
	<path style="fill:#0C0C0C;" d="M234.676,100.841c13.026-0.024,24.385,1.171,35.666,3.054c17.659,2.948,34.642,8.326,50.946,15.58
		c16.905,7.522,32.902,16.682,47.992,27.539c13.284,9.557,26.55,19.111,39.037,29.682c18.425,15.597,35.75,32.312,50.087,51.849
		c11.836,16.128,22.282,33.063,28.64,52.218c4.46,13.437,6.712,27.175,5.378,41.347c-0.899,9.549-3.675,18.628-7.197,27.525
		c-7.993,20.194-20.296,37.534-34.859,53.441c-16.035,17.516-34.566,31.896-55.226,43.449
		c-10.441,5.839-21.176,11.219-32.509,15.247c-4.288,1.524-4.284,1.591-2.464,5.958c5.126,12.306,9.908,24.743,13.599,37.56
		c2.791,9.691,5.156,19.495,5.696,29.626c0.458,8.602-0.59,17.003-3.781,25.055c-4.776,12.052-13.433,20.402-24.879,26.154
		c-8.114,4.078-16.831,6.099-25.652,7.69c-10.412,1.877-20.905,2.369-31.455,1.068c-13.687-1.687-26.369-6.112-37.788-13.885
		c-5.434-3.699-9.818-8.391-12.999-14.264c-1.791-3.307-2.083-6.576-1.204-10.035c2.591-10.193,3.295-20.547,2.783-31.008
		c-0.505-10.314-1.903-20.515-4.158-30.592c-0.645-2.881-0.968-3.174-3.888-2.638c-5.944,1.093-11.853,2.378-17.786,3.538
		c-9.014,1.761-18.083,3.333-27.204,4.25c-19.645,1.975-39.322,2.362-59.038,0.476c-16.033-1.534-31.71-4.49-46.762-10.276
		c-9.651-3.71-18.855-8.352-26.989-14.837c-16.875-13.451-26.8-30.861-30.112-52.232c-2.149-13.869-1.903-27.642-0.245-41.512
		c2.201-18.414,6.587-36.332,11.595-54.134c5.525-19.639,12.445-38.807,19.618-57.881c3.389-9.011,7.546-17.715,11.594-26.454
		c7.678-16.578,15.928-32.873,25.48-48.441c12.617-20.563,26.382-40.292,43.875-57.155c14.176-13.665,30.469-23.838,49.08-30.254
		c9.153-3.156,18.64-4.804,28.243-5.785C223.921,101.14,230.069,100.709,234.676,100.841z M485.236,305.356
		c0.543-0.879,0.346-1.551,0.232-2.201c-1.468-8.398-3.373-16.687-6.434-24.666c-6.096-15.891-14.454-30.558-24.483-44.253
		c-6.086-8.311-12.504-16.388-19.973-23.55c-2.256-2.163-2.262-2.21-4.684-0.435c-2.987,2.189-6.096,4.175-9.37,5.903
		c-10.473,5.53-21.418,7.128-32.82,3.519c-14.824-4.693-24.551-14.667-28.365-29.671c-3.04-11.961-0.528-23.329,6.183-33.722
		c1.801-2.789,1.808-2.842-0.914-4.732c-8.466-5.878-17.049-11.581-26.208-16.341c-22.869-11.885-46.536-21.506-72.251-25.28
		c-7.208-1.058-14.445-1.823-21.714-2.243c-3.365-0.194-3.537,0.108-2.988,3.279c1.065,6.15,1.11,12.378-0.459,18.358
		c-5.893,22.464-19.545,37.578-42.73,42.481c-21.962,4.644-41.036-0.892-56.211-18.012c-0.594-0.67-1.183-1.348-1.818-1.978
		c-1.987-1.971-2.097-1.967-3.936,0.018c-7.627,8.232-14.552,17.023-20.87,26.293c-11.18,16.405-21.212,33.476-29.858,51.357
		c-2.238,4.63-2.736,3.923,2.055,7.144c7.551,5.077,13.742,11.523,17.784,19.762c5.423,11.053,5.971,22.534,2.787,34.357
		c-6.941,25.769-34.978,37.253-55.268,29.694c-2.986-1.112-3.066-1.003-4.119,1.873c-0.192,0.525-0.344,1.065-0.513,1.599
		c-5.139,16.24-9.616,32.632-12.144,49.522c-2.281,15.236-3.595,30.472-1.49,45.838c0.639,4.665,1.495,9.282,2.846,13.799
		c0.17,0.568,0.389,1.125,1.065,1.025c0.47-0.07,0.633-0.578,0.671-1.046c0.028-0.334,0.042-0.671,0.046-1.006
		c0.128-12.143,4.715-22.736,11.736-32.307c10.163-13.853,22.636-25.403,36.717-35.179c18.581-12.9,38.771-22.834,59.601-31.466
		c34.131-14.144,69.604-24.03,105.48-32.531c25.06-5.938,50.298-11.082,75.501-16.371c26.127-5.483,52.494-9.223,79.174-10.582
		c15.642-0.797,31.143-0.148,46.16,4.895c12.71,4.269,22.628,12.031,29.359,23.728C483.609,303.264,483.951,304.494,485.236,305.356
		z M296.045,359.175c-17.195,0.178-32.815,2.761-48.143,7.379c-12.675,3.819-24.477,9.334-34.945,17.482
		c-8.807,6.855-15.87,15.176-19.978,25.676c-1.581,4.041-3.186,8.224-2.304,12.728c1.394,7.113,5.302,12.539,11.591,16.098
		c5.999,3.395,12.67,4.315,19.428,4.645c2.054,0.1,2.468-0.439,1.85-2.41c-1.004-3.203-2.166-6.359-3.334-9.507
		c-2.647-7.138-5.34-14.259-8.012-21.387c-0.867-2.314-1.58-4.677-1.852-7.136c-0.239-2.159,0.352-2.819,2.504-3.102
		c2.489-0.327,3.348,0.394,4.491,3.871c5.453,16.596,11.971,32.808,17.756,49.285c6.391,18.204,12.224,36.531,14.554,55.782
		c2.044,16.887,2.59,33.735-1.558,50.425c-0.472,1.899-0.219,3.539,0.887,5.086c0.976,1.365,1.911,2.769,2.993,4.048
		c6.236,7.373,14.093,12.474,23.128,15.602c24.174,8.37,48.149,6.892,71.511-2.858c12.105-5.052,20.566-14.153,24.471-27.002
		c2.74-9.015,2.397-18.159,0.906-27.299c-2.318-14.207-6.454-27.892-11.954-41.196c-10.581-25.597-22.973-50.312-36.249-74.592
		c-6.343-11.6-13.169-22.918-21.087-33.539c-0.802-1.076-1.577-2.183-2.258-3.338c-1.231-2.087-1.076-3.82,0.328-4.807
		c1.389-0.976,2.991-0.553,4.69,1.245c0.23,0.244,0.45,0.5,0.655,0.766c4.388,5.671,8.744,11.37,12.487,17.495
		c4.438,7.262,8.926,14.496,12.964,21.996c1.273,2.366,1.712,2.488,3.468,0.957c9.907-8.638,14.183-21.003,5.738-33.838
		c-4.975-7.561-12.1-12.095-20.399-15.121C312.116,359.595,303.508,359.273,296.045,359.175z M364.842,382.191
		c11.445-0.473,24.237-1.948,36.861-4.602c11.536-2.425,22.645-6.295,33.518-10.821c15.693-6.532,30.321-14.908,43.763-25.348
		c2.013-1.564,3.038-3.454,3.433-5.887c0.778-4.793,0.922-9.584,0.183-14.387c-1.701-11.052-6.592-20.368-15.189-27.62
		c-3.033-2.558-3.07-2.504-5.467,0.49c-4.061,5.072-8.143,10.13-12.709,14.765c-24.121,24.488-52.092,43.321-83.666,56.836
		c-5.454,2.334-10.969,4.523-16.441,6.815c-2.289,0.959-2.347,1.177-1.282,3.471c0.66,1.422,1.418,2.799,2.047,4.233
		c0.668,1.523,1.726,2.135,3.414,2.086C356.665,382.121,360.027,382.191,364.842,382.191z M411.256,279.834
		c-4.134,0.263-9.719,0.678-15.311,0.95c-2.65,0.129-4.304,0.983-5.035,3.843c-0.656,2.568-1.939,5.005-3.153,7.395
		c-6.935,13.651-15.753,26.039-25.52,37.782c-8.265,9.936-17.819,18.577-27.327,27.267c-0.579,0.529-1.149,1.067-1.736,1.587
		c-0.977,0.864-1.037,1.596,0.153,2.375c1.31,0.857,2.762,1.644,3.763,2.798c3.352,3.863,7.014,4.739,11.336,1.704
		c17.057-6.09,33.015-14.44,48.486-23.752c21.753-13.093,41.386-28.712,57.246-48.737c4.593-5.799,5.567-5.428-2.334-8.246
		C439.161,280.285,425.987,279.644,411.256,279.834z M110.811,443.786c19.077-0.31,37.678-3.405,55.824-9.262
		c5.338-1.723,10.528-3.8,15.582-6.235c1.694-0.816,2.636-1.746,2.171-3.892c-0.396-1.831-0.184-3.79-0.286-5.69
		c-0.121-2.252-0.321-2.493-2.583-2.544c-2.799-0.064-5.601,0.042-8.4-0.013c-20.789-0.409-40.882-4.773-60.634-10.9
		c-13.652-4.235-26.62-9.998-38.33-18.313c-1.643-1.166-2.589-0.53-3.742,0.561c-7.299,6.904-13.491,14.656-18.195,23.562
		c-1.521,2.878-2.779,5.868-3.827,8.947c-0.425,1.249-0.466,2.373,0.761,3.294c5.368,4.03,10.456,8.463,16.656,11.269
		C80.118,441.047,95.099,444.215,110.811,443.786z M45.845,440.852c-1.969,9.24,2.861,16.449,9.251,23.043
		c0.156,0.161,0.325,0.308,0.484,0.466c12.072,12.051,26.937,18.999,43.059,23.73c4.905,1.439,9.652,1.36,14.512-0.083
		c8.918-2.648,17.653-5.786,26.243-9.348c14.051-5.826,27.253-13.043,38.722-23.192c4.702-4.161,9.237-8.486,13.539-13.053
		c1.725-1.831,1.67-1.939,0.095-3.916c-4.146-5.205-4.146-5.205-10.458-2.848c-0.314,0.117-0.619,0.26-0.928,0.393
		c-15.017,6.446-30.663,10.521-46.85,12.703c-13.727,1.85-27.452,2.256-41.198,0.471c-13.626-1.77-26.355-6.099-37.813-13.825
		c-2.04-1.375-3.94-2.956-5.935-4.4c-1.86-1.346-2.567-1.086-2.69,1.178C45.734,434.85,45.845,437.544,45.845,440.852z
		 M185.516,166.734c6.266,0.242,12.269-0.913,18.102-3.101c22.079-8.281,34.869-30.1,30.952-52.821
		c-0.535-3.104-0.678-3.219-3.905-3.236c-5.612-0.028-11.188,0.563-16.732,1.28c-18.17,2.353-34.862,8.761-50.209,18.73
		c-6.596,4.285-12.601,9.305-18.291,14.712c-2.378,2.259-2.432,2.904-0.38,5.301c1.234,1.442,2.646,2.731,3.968,4.099
		C159.003,162.032,171.364,166.574,185.516,166.734z M171.619,409.549c4.138-0.199,8.274-0.433,12.414-0.576
		c1.411-0.049,2.289-0.579,2.785-1.925c1.637-4.436,3.974-8.508,6.553-12.457c1.171-1.793,1.053-2.12-0.776-3.085
		c-0.79-0.417-1.626-0.752-2.453-1.094c-6.108-2.519-12.164-5.149-18.173-7.901c-16.892-7.738-32.968-16.716-46.19-30.068
		c-1.127-1.139-2.079-0.952-3.281-0.395c-4.269,1.98-8.418,4.186-12.543,6.449c-10.547,5.785-20.336,12.657-29.543,20.38
		c-2.542,2.132-2.561,2.384,0.282,4.285c2.046,1.369,4.162,2.635,6.279,3.895c12.933,7.698,27.052,12.357,41.534,16.008
		C142.653,406.631,156.946,409.327,171.619,409.549z M476.313,351.943c-0.835,0.426-1.257,0.58-1.609,0.83
		c-6.857,4.879-14.218,8.914-21.645,12.823c-21.821,11.486-45.033,18.554-69.476,21.602c-9.554,1.192-19.142,2.003-28.79,1.876
		c-2.926-0.039-2.98,0.084-2.985,3.055c-0.004,2.137-0.178,4.223-0.784,6.298c-0.793,2.715-0.663,2.975,1.874,4.648
		c19.046,12.566,40.107,18.333,62.802,18.724c3.485,0.06,6.185-1.104,8.805-3.285c11.216-9.339,21.567-19.508,30.683-30.93
		c7.85-9.836,14.757-20.25,19.966-31.739C475.647,354.76,476.333,353.717,476.313,351.943z M323.945,356.42
		c0.338,0.04,1.138-0.387,1.863-0.914c1.628-1.185,3.272-2.357,4.815-3.647c20.325-17,36.809-37.175,49.719-60.292
		c1.2-2.15,2.429-4.29,3.488-6.51c1.07-2.242,0.611-2.865-1.812-2.612c-3.451,0.361-6.889,0.832-10.337,1.225
		c-16.696,1.907-33.244,4.663-49.57,8.682c-3.281,0.808-3.307,0.848-3.775,4.138c-0.726,5.098-1.505,10.182-2.785,15.182
		c-3.404,13.296-8.195,26.031-15.1,37.932c-1.33,2.292-1.069,2.755,1.747,2.951c4.146,0.29,8.219,0.992,12.273,1.859
		C317.423,355.047,320.379,355.666,323.945,356.42z M103.422,277.449c-0.391-18.192-8.216-28.241-21.208-36.451
		c-1.479-0.935-2.195-0.453-2.827,0.927c-0.931,2.033-1.907,4.048-2.911,6.046c-9.977,19.858-16.918,40.898-24.048,61.862
		c-1.09,3.206-0.893,3.485,2.359,4.497c7.219,2.247,14.505,2.61,21.813,0.417C92.836,309.875,103.42,295.14,103.422,277.449z
		 M169.407,332.071c-0.206,0.049-0.54,0.103-0.858,0.206c-12.047,3.906-23.809,8.529-35.17,14.135
		c-2.592,1.279-2.648,1.831-0.453,3.777c4.609,4.085,9.287,8.089,14.41,11.542c15.442,10.406,32.539,17.384,49.76,24.116
		c1.762,0.689,3.191,0.436,4.612-0.844c4.411-3.971,8.855-7.909,13.852-11.155c0.281-0.182,0.561-0.379,0.797-0.613
		c0.581-0.575,0.619-1.216-0.059-1.698c-1.002-0.712-2.041-1.383-3.113-1.983c-15.554-8.714-28.606-20.331-39.733-34.188
		c-0.631-0.786-1.25-1.581-1.884-2.364C171.046,332.357,170.393,331.974,169.407,332.071z M399.455,215.042
		c9.139-0.204,17.378-2.931,24.494-8.778c3.274-2.69,3.298-2.935,0.308-5.891c-11.882-11.746-24.604-22.527-37.807-32.747
		c-3.453-2.673-6.941-5.3-10.453-7.895c-2.899-2.143-3.13-2.079-5.114,1.049c-0.779,1.228-1.532,2.479-2.195,3.772
		C355.255,190.735,377.59,215.473,399.455,215.042z M311.064,296.785c0.052-1.74-0.252-2.014-2.564-1.58
		c-12.869,2.413-25.637,5.296-38.391,8.244c-3.341,0.773-3.384,0.714-3.129,4.235c0.686,9.495,1.018,19,1.026,28.52
		c0.005,5.261,0.069,10.522,0.181,15.782c0.053,2.514,0.396,2.822,2.761,2.471c5.874-0.87,11.76-1.577,17.707-1.625
		c1.223-0.01,2.169-0.475,2.854-1.463c0.701-1.011,1.425-2.011,2.046-3.07c4.709-8.033,8.653-16.424,11.752-25.212
		C308.262,314.707,310.153,306.096,311.064,296.785z M122.413,492.359c1.446,1.088,2.824,1.05,4.114,1.165
		c19.207,1.702,38.418,2.884,57.698,1.031c3.008-0.289,5.238-1.365,7.245-3.565c6.007-6.583,10.787-14.013,15.249-21.664
		c2.993-5.131,5.54-10.496,7.884-15.952c1.445-3.364,1.377-3.445-2.061-4.146c-2.638-0.538-5.203-1.322-7.718-2.287
		c-6.324-2.427-4.869-3.146-9.912,2.134c-19.189,20.09-42.438,33.408-68.78,41.661C124.987,491.093,123.741,491.289,122.413,492.359
		z M356.641,457.218c0.616-0.225,1.358-0.476,2.085-0.764c17.306-6.868,33.961-14.987,49.268-25.69
		c0.708-0.495,1.917-0.848,1.685-1.849c-0.292-1.26-1.651-0.753-2.572-0.941c-0.108-0.022-0.223-0.01-0.335-0.016
		c-14.106-0.872-27.566-4.367-40.545-9.885c-5.574-2.37-10.844-5.306-16.096-8.291c-3.204-1.821-3.23-1.793-5.451,0.947
		c-2.116,2.61-4.272,5.191-6.837,7.372c-1.253,1.065-1.381,2.065-0.621,3.495c1.628,3.06,3.087,6.208,4.663,9.296
		c4.22,8.268,8.469,16.522,12.693,24.788C355,456.505,355.395,457.297,356.641,457.218z M213.038,317.981
		c-0.866,0.194-2.088,0.394-3.264,0.745c-5.792,1.73-11.583,3.463-17.351,5.27c-4.38,1.372-8.746,2.798-13.076,4.32
		c-2.024,0.711-2.109,1.207-0.931,2.886c0.449,0.639,0.984,1.22,1.497,1.811c3.749,4.32,7.757,8.395,11.96,12.268
		c9.099,8.385,18.908,15.794,29.982,21.423c1.28,0.651,2.536,1.653,4.084,1.053c3.966-1.536,7.906-3.14,11.844-4.748
		c0.873-0.357,1.133-1.039,0.65-1.907c-0.272-0.489-0.56-0.97-0.855-1.445c-4.37-7.045-8.443-14.265-12.415-21.538
		c-3.273-5.993-6.795-11.86-9.464-18.17C215.265,318.922,214.859,317.8,213.038,317.981z M261.259,332.356
		c0.112-8.27-0.394-15.862-1.068-23.445c-0.253-2.842-0.493-3.028-3.335-2.476c-1.316,0.255-2.605,0.647-3.914,0.945
		c-9.488,2.163-18.92,4.546-28.299,7.138c-3.15,0.871-3.389,1.416-1.901,4.478c1.907,3.924,3.848,7.833,5.827,11.721
		c4.678,9.193,10.21,17.873,16.013,26.381c1.831,2.685,2.228,2.721,5.325,1.958c2.823-0.696,5.647-1.393,8.482-2.04
		c2.797-0.639,2.849-0.612,2.86-3.487C261.278,346.254,261.259,338.979,261.259,332.356z M199.976,492.215
		c3.794-0.178,7.375-1.056,10.994-1.632c7.741-1.234,15.432-2.742,23.058-4.553c4.028-0.956,4.317-1.469,3.104-5.309
		c-2.258-7.15-4.58-14.281-6.971-21.388c-0.855-2.541-1.959-5.001-3.006-7.475c-0.422-0.999-1.215-1.544-2.372-1.551
		c-1.18-0.007-1.871,0.556-2.276,1.611c-0.321,0.835-0.688,1.653-1.032,2.479c-5.32,12.777-11.895,24.827-20.631,35.627
		C200.434,490.53,199.873,490.972,199.976,492.215z"/>
	<path style="fill:#0C0C0C;" d="M418.613,763.155c-3.294,1.247-5.762,2.248-8.274,3.122c-15.823,5.504-32.032,9.273-48.749,10.708
		c-6.137,0.527-12.268,1.155-18.44,1.169c-6.783,0.015-13.356-1.003-19.74-3.42c-14.149-5.357-22.911-15.916-27.66-29.723
		c-6.129-17.818-4.902-35.5,2.98-52.666c7.229-15.744,17.267-29.535,29.206-42.005c12.524-13.081,26.481-24.482,41.348-34.749
		c12.943-8.939,24.897-18.996,36.291-29.826c9.255-8.797,19.077-17.044,29.668-24.181c17.598-11.858,36.67-19.687,58.408-19.155
		c21.941,0.537,40.967,8.399,57.607,22.566c19.923,16.961,35.696,37.338,49.509,59.371c9.102,14.519,18.16,29.072,26.292,44.16
		c5.955,11.049,11.312,22.413,14.609,34.589c3.706,13.687,5.013,27.508,1.699,41.518c-3.862,16.323-13.927,27.154-29.208,33.55
		c-9.989,4.181-20.455,5.649-31.16,5.889c-20.933,0.469-41.251-3.114-61.146-9.41c-2.881-0.912-5.741-1.887-8.603-2.86
		c-2.94-0.999-3.118-0.912-2.905,2.06c0.4,5.586,0.867,11.167,1.29,16.751c2.022,26.7,3.952,53.412,3.211,80.213
		c-0.408,14.79-1.505,29.557-5.611,43.88c-3.035,10.588-8.181,20.071-15.65,28.251c-8.575,9.391-19.46,14.686-31.651,17.195
		c-16.183,3.331-32.214,1.771-47.627-3.899c-21.165-7.787-33.482-23.139-37.034-45.485c-2.176-13.693-0.241-27.013,3.471-40.174
		c4.232-15,9.925-29.484,15.617-43.972c7.535-19.176,14.59-38.528,20.78-58.186C417.605,766.968,417.972,765.469,418.613,763.155z
		 M320.825,765.9c0.379-1.241-0.469-1.82-0.931-2.512c-1.691-2.53-3.043-5.229-4.057-8.087c-2.858-8.057-2.084-15.598,3.149-22.566
		c2.662-3.545,5.858-6.46,9.555-8.855c5.965-3.863,12.505-6.488,19.165-8.85c21.513-7.629,43.918-10.683,66.494-12.536
		c24.969-2.049,49.916-1.248,74.768,1.972c25.595,3.317,50.802,8.436,75.25,16.844c11.648,4.005,23.166,8.38,33.951,14.437
		c4.112,2.31,8.091,4.842,11.288,8.37c4.451,4.911,7.407,10.387,6.158,17.356c-0.479,2.672-1.368,5.183-2.581,7.6
		c-0.368,0.733-1.019,1.453-0.604,2.359c1.138,0.134,1.91-0.36,2.704-0.743c12.182-5.876,19.16-15.788,22.118-28.738
		c2.712-11.871,1.367-23.607-1.48-35.254c-3.386-13.849-10.061-26.297-16.559-38.826c-0.949-1.829-2.187-2.151-4.07-2.017
		c-5.145,0.366-10.306,0.508-15.346-0.95c-11.47-3.319-20.054-10.183-24.028-21.542c-4.043-11.555-3.01-22.969,3.612-33.538
		c1.108-1.768,1.217-3.063-0.048-4.809c-9.435-13.031-19.988-25.025-32.514-35.182c-6.803-5.517-13.977-10.618-22.028-14.069
		c-22.508-9.648-45.008-9.449-67.382,0.778c-12.766,5.835-23.949,13.973-34.488,23.094c-2.139,1.851-2.103,1.929-1.039,4.588
		c0.751,1.878,1.372,3.781,1.663,5.793c2.725,18.832-11.452,31.633-23.997,34.3c-7.593,1.614-14.996,0.81-21.477-3.916
		c-2.045-1.491-2.083-2.165-5.165,0.04c-3.921,2.806-7.619,5.887-11.328,8.958c-8.363,6.925-17.056,13.45-24.704,21.224
		c-11.197,11.383-21.423,23.45-29.017,37.64c-7.649,14.292-10.99,29.251-8.304,45.376c2.094,12.57,7.737,23.04,18.151,30.679
		C318.635,765.001,319.493,765.959,320.825,765.9z M414.143,948.058c-0.857-1.492-1.517-2.641-2.177-3.79
		c-2.982-5.191-5.136-10.697-6.173-16.603c-2.177-12.406-1.339-24.786,0.599-37.117c1.201-7.64,3.449-15.056,5.316-22.551
		c0.734-2.945,2.392-4.487,4.395-3.954c2.062,0.549,2.896,2.69,1.956,5.589c-1.211,3.736-2.118,7.543-2.989,11.363
		c-3.005,13.178-4.77,26.485-3.239,40c1.279,11.281,4.78,21.66,13.772,29.375c1.138,0.977,2.172,2.912,3.76,2.318
		c1.634-0.612,1.09-2.747,1.223-4.236c1.38-15.423,3.925-30.646,7.648-45.675c0.298-1.204,0.591-2.406,1.249-3.459
		c0.856-1.368,2.458-1.992,3.75-1.494c1.449,0.558,1.993,1.726,1.941,3.199c-0.019,0.553-0.134,1.111-0.268,1.651
		c-3.836,15.477-6.063,31.203-7.303,47.081c-0.325,4.168,0.275,4.643,4.166,3.218c8.892-3.256,16.115-8.698,21.404-16.596
		c6.322-9.44,10.157-19.92,12.599-30.931c3.55-16.006,5.51-32.22,6.034-48.607c0.032-1.001,0.073-2.035,0.341-2.989
		c0.506-1.802,1.736-2.482,3.591-2.19c1.78,0.28,2.63,1.106,2.684,3.264c0.077,3.019-0.014,6.05-0.2,9.065
		c-0.684,11.076-2.115,22.067-3.908,33.014c-1.908,11.656-4.894,22.972-10.034,33.678c-4.24,8.832-9.649,16.655-17.919,22.206
		c-0.358,0.24-0.77,0.488-0.688,1.087c0.616,0.707,1.43,0.324,2.131,0.221c11.786-1.735,21.984-6.66,30.404-15.164
		c8.822-8.912,13.518-19.888,16.102-31.944c2.499-11.66,3.361-23.5,3.728-35.372c0.835-27.027-0.742-53.969-3.141-80.876
		c-1.254-14.057-2.434-28.121-3.645-42.181c-0.942-10.937-1.865-21.875-2.827-32.81c-0.278-3.163-0.444-3.284-3.564-3.746
		c-3.323-0.492-6.641-1.028-9.971-1.467c-15.236-2.005-30.519-3.212-45.903-2.55c-3.446,0.148-3.517,0.197-3.708,3.675
		c-0.563,10.203-2.174,20.261-4.235,30.248c-4.357,21.112-11.06,41.516-18.762,61.613c-6.57,17.143-13.242,34.249-19.635,51.458
		c-4.65,12.517-8.37,25.3-9.247,38.747c-0.612,9.39,0.158,18.592,3.652,27.411c4.487,11.325,11.602,20.385,22.791,25.799
		C410.985,947.593,412.08,948.556,414.143,948.058z M351.613,771.711c1.573-0.086,3.028-0.138,4.478-0.25
		c11.193-0.869,22.134-3.238,33.046-5.711c9.063-2.054,17.918-4.746,26.436-8.587c3.919-1.767,6.097-4.284,7.172-8.454
		c2.997-11.632,4.922-23.421,5.979-35.365c0.466-5.267,0.393-5.326-4.794-5.109c-17.033,0.712-33.86,3.05-50.558,6.429
		c-11.664,2.36-22.978,5.825-33.895,10.557c-4.742,2.056-9.305,4.435-12.888,8.302c-5.605,6.049-7.63,13.085-4.208,20.714
		c4.581,10.211,12.346,16.559,23.985,17.217C348.153,771.555,349.942,771.63,351.613,771.711z M575.059,777.247
		c2.857,0.056,7.767-0.266,12.638-1.118c5.119-0.896,9.922-2.644,14.484-5.143c6.15-3.369,10.509-14.406,3.063-21.658
		c-2.175-2.118-4.366-4.169-6.953-5.782c-3.236-2.016-6.561-3.864-10.016-5.471c-19.266-8.959-39.321-15.558-60.1-19.952
		c-6.571-1.39-13.158-2.71-19.765-3.913c-3.108-0.566-3.35-0.289-3.13,2.841c0.416,5.92,0.926,11.834,1.44,17.747
		c0.745,8.588,1.187,17.203,2.388,25.752c0.28,1.997,1.016,3.139,3.041,3.836c7.834,2.695,15.636,5.456,23.696,7.445
		C548.05,774.843,560.345,777.166,575.059,777.247z M608.203,659.55c0.3-0.02,1.084-0.05,1.862-0.127
		c3.491-0.344,3.542-0.487,2.004-3.527c-3.543-7.002-7.808-13.574-11.985-20.198c-4.416-7.003-8.697-14.096-13.619-20.766
		c-1.313-1.779-1.872-1.765-2.731,0.159c-5.123,11.48-4.992,22.696,2.626,33.045C591.566,655.206,598.537,659.613,608.203,659.55z
		 M392.001,618.49c11.303,0.184,22.122-8.548,24.71-19.258c0.689-2.851,1.165-5.737,0.582-8.648
		c-0.275-1.375-0.014-3.339-1.375-3.921c-1.508-0.646-2.457,1.173-3.523,2.052c-9.934,8.189-18.474,17.97-29.063,25.423
		c-1.579,1.111-1.346,2.092,0.603,2.783C386.799,617.935,389.79,618.398,392.001,618.49z"/>
	<path style="fill:#0C0C0C;" d="M789.554,851.851c1.908-0.715,3.066-1.768,4.312-2.661c13.549-9.709,27.983-17.783,43.792-23.179
		c12.989-4.433,26.277-7.546,40.123-7.348c8.042,0.115,15.825,1.457,22.906,5.618c9.241,5.43,13.755,13.583,13.581,24.192
		c-0.19,11.577-4.798,21.503-12.181,30.227c-8.245,9.743-18.552,16.8-29.815,22.558c-25.909,13.245-53.443,18.197-82.355,16.018
		c-17.71-1.335-35.115-4.277-51.958-10.072c-3.279-1.128-6.522-2.384-9.708-3.754c-2.018-0.868-3.742-0.886-5.687,0.289
		c-9.399,5.676-19.096,10.826-28.902,15.749c-9.204,4.621-18.708,8.611-28.141,12.746c-22.842,10.013-46.616,17.157-70.757,23.2
		c-18.708,4.682-37.694,7.859-56.769,10.565c-0.333,0.047-0.666,0.101-1.001,0.12c-2.415,0.141-3.804-0.701-4.123-2.492
		c-0.339-1.905,0.864-3.512,3.141-3.968c2.305-0.462,4.629-0.85,6.96-1.157c28.509-3.749,56.363-10.374,83.74-19.079
		c10.674-3.394,21.136-7.391,31.598-11.382c0.627-0.24,1.236-0.528,1.863-0.769c1.483-0.57,1.72-1.471,1.015-2.893
		c-1.739-3.511-3.329-7.096-5.058-10.613c-6.057-12.32-9.02-25.505-10.879-38.987c-1.58-11.462-2.183-22.975-1.154-34.524
		c1.073-12.037,3.709-23.659,9.508-34.398c2.532-4.689,5.885-8.687,9.939-12.148c9.659-8.247,26.045-9.837,37.536,0.642
		c8.123,7.407,12.789,16.56,14.96,27.165c2.825,13.799,0.99,27.218-3.593,40.322c-6.887,19.695-17.888,37.037-30.967,53.147
		c-0.563,0.694-1.15,1.37-1.689,2.082c-0.115,0.153-0.073,0.425-0.108,0.676c1.367,0.723,2.35-0.333,3.389-0.818
		c19.527-9.1,38.209-19.7,56.096-31.705c3.534-2.372,7-4.851,10.603-7.112c1.815-1.14,2.29-2.486,1.877-4.503
		c-0.857-4.186-2.304-8.187-3.629-12.225c-4.851-14.79-9.761-29.562-12.775-44.873c-4.649-23.613-7.216-47.411-5.427-71.485
		c1.031-13.881,3.279-27.588,8.842-40.518c2.758-6.409,6.196-12.42,10.753-17.748c4.173-4.879,9.284-8.361,15.361-10.463
		c6.178-2.136,12.282-2.024,18.416,0.212c12.792,4.662,20.543,14.155,24.617,26.644c5.512,16.899,6.313,34.257,3.699,51.817
		c-3.81,25.599-14.217,48.383-29.157,69.306c-7.581,10.616-16.246,20.273-25.428,29.482c-1.817,1.822-2.454,3.448-1.594,5.908
		c0.958,2.74,1.517,5.617,2.362,8.401c0.491,1.617,1.069,1.752,2.396,0.777c0.54-0.397,1.035-0.858,1.533-1.309
		c23.287-21.076,45.275-43.404,65.183-67.73c2.979-3.64,5.886-7.338,8.864-10.978c0.894-1.093,1.34-2.314,1.443-3.686
		c0.243-3.238,0.589-6.475,0.685-9.718c0.394-13.268,2.698-26.261,5.301-39.235c3.177-15.838,7.263-31.432,12.691-46.63
		c5.884-16.473,12.69-32.556,22.616-47.115c7.377-10.82,15.908-20.521,26.807-27.978c7.455-5.1,15.605-8.403,24.61-9.114
		c16.958-1.34,32.388,8.671,39.324,24.857c4.522,10.554,4.697,21.332,2.428,32.293c-3.004,14.508-10.041,27.236-17.946,39.538
		c-7.176,11.167-15.88,21.097-24.927,30.763c-17.953,19.182-38.273,35.422-60.631,49.158c-7.847,4.821-16.149,8.828-24.698,12.11
		c-3.981,1.528-6.474,4.165-8.981,7.057c-5.574,6.432-10.963,13.024-16.474,19.512c-8.343,9.824-17.123,19.247-26.238,28.358
		C790.974,849.697,790.118,850.283,789.554,851.851z M843.894,777.95c0,1.678,0.004,3.357-0.001,5.035
		c-0.01,3.633,0.266,3.835,3.523,2.266c9.087-4.379,17.897-9.255,26.307-14.834c21.492-14.258,40.654-31.177,57.709-50.511
		c10.339-11.72,19.615-24.169,26.411-38.315c4.387-9.13,7.81-18.576,8.543-28.799c0.739-10.308-1.448-19.836-7.867-28.121
		c-6.725-8.68-15.517-13.28-26.634-13.176c-7.541,0.071-14.214,2.799-20.508,6.633c-8.129,4.951-14.804,11.561-20.88,18.793
		c-9.983,11.882-16.84,25.58-22.701,39.807c-7.693,18.674-13.391,37.969-17.67,57.702
		C847.012,748.792,844.875,763.273,843.894,777.95z M801.894,911.416c15.416,0.262,30.024-2.316,44.389-6.611
		c14.628-4.374,28.275-10.648,40.243-20.284c6.514-5.245,12.206-11.2,16.261-18.595c3.125-5.698,5.002-11.753,4.975-18.28
		c-0.028-6.83-2.718-12.379-8.432-16.299c-3.646-2.502-7.652-4.156-11.994-5.045c-11.016-2.254-21.854-0.831-32.639,1.548
		c-15.254,3.364-29.237,9.855-42.699,17.575c-8.662,4.967-16.65,10.962-24.826,16.652c-12.78,8.894-25.67,17.599-39.005,25.649
		c-4.598,2.776-9.001,5.877-13.479,8.85c-0.539,0.358-1.278,0.678-1.248,1.457c0.041,1.048,1.013,1.028,1.721,1.26
		c7.016,2.298,13.915,4.924,21.184,6.453C771.503,908.933,786.717,911.511,801.894,911.416z M735.711,764.913
		c0.396,6.368,0.608,12.754,1.221,19.101c1.801,18.659,5.598,36.942,10.807,54.937c0.87,3.006,1.914,5.964,2.935,8.924
		c0.433,1.256,1.27,1.496,2.304,0.584c0.418-0.369,0.789-0.793,1.174-1.199c9.489-10.013,18.265-20.625,26.146-31.938
		c14.268-20.481,23.445-42.976,25.868-67.96c1.375-14.176,0.51-28.193-4.348-41.75c-2.37-6.614-5.646-12.723-10.933-17.474
		c-7.116-6.395-15.301-8.541-24.591-5.568c-6.63,2.121-11.23,6.743-15.084,12.269c-6.732,9.651-10.215,20.597-12.53,31.968
		C736.119,739.377,735.518,752.112,735.711,764.913z M711.094,835.28c0.062-9.469-2.592-19.87-7.225-27.997
		c-2.25-3.947-5.219-7.275-8.962-9.868c-8.514-5.898-18.699-5.572-26.846,0.818c-4.507,3.535-7.677,8.085-10.157,13.187
		c-4.117,8.47-6.243,17.424-7.059,26.79c-1.293,14.83-0.615,29.542,2.117,44.155c2.215,11.848,6.555,23.008,11.327,34.015
		c0.356,0.821,0.74,1.636,1.192,2.406c1.026,1.745,1.539,1.848,3.114,0.519c0.852-0.718,1.613-1.555,2.353-2.392
		c13.584-15.378,25.02-32.158,33.122-51.083C708.245,856.078,711.106,846.002,711.094,835.28z"/>
	<path style="fill:#0C0C0C;" d="M191.852,834.641c0.445-1.206,0.045-2.175-0.117-3.154c-3.163-19.149-2.88-38.166,2.476-56.926
		c3.105-10.877,7.787-21.004,15.387-29.555c5.149-5.794,11.35-9.815,19.275-10.527c8.476-0.762,15.333,2.191,20.465,9.089
		c4.861,6.534,7.002,13.926,7.262,21.967c0.355,10.967-1.529,21.607-4.315,32.172c-4.356,16.515-10.135,32.472-17.75,47.769
		c-3.759,7.55-8.137,14.683-13.429,21.259c-2.123,2.638-2.109,2.728,0.171,5.338c11.084,12.685,23.247,24.25,36.342,34.837
		c25.486,20.606,53.31,37.418,83.053,51.108c1.83,0.843,3.714,1.569,5.54,2.42c0.804,0.375,1.589,0.851,2.27,1.416
		c1.085,0.901,1.159,2.137,0.73,3.382c-0.469,1.36-1.575,1.806-2.922,1.784c-1.154-0.019-2.161-0.559-3.199-0.961
		c-10.888-4.219-21.079-9.87-31.42-15.225c-24.723-12.804-46.876-29.32-68.049-47.208c-13.034-11.012-24.73-23.39-35.616-36.531
		c-4.144-5.003-8.429-9.89-12.549-14.912c-1.299-1.584-2.504-1.89-4.591-1.485c-23.026,4.458-46.011,4.533-69.065-0.283
		c-21.833-4.561-41.324-13.793-58.641-27.732c-9.35-7.526-16.657-16.553-20.247-28.239c-2.229-7.257-2.564-14.543-0.267-21.823
		c2.749-8.708,9.022-14.223,16.932-18.125c7.35-3.626,15.132-3.738,23.007-2.471c8.182,1.317,15.706,4.521,22.814,8.641
		c11.975,6.941,22.79,15.428,32.798,24.986c10.455,9.985,20.572,20.297,30.485,30.815c0.812,0.861,1.409,2.029,3.103,2.394
		c-0.401-1.854-1.427-3.145-2.319-4.497c-9.074-13.757-17.418-27.944-24.81-42.672c-4.524-9.014-8.548-18.267-11.333-27.986
		c-1.13-3.943-3.303-6.86-6.443-9.498c-21.303-17.901-40.263-37.935-54.935-61.736c-8.141-13.206-14.903-27.079-19.067-42.088
		c-2.125-7.66-4.05-15.384-4.977-23.304c-1.813-15.496-0.769-30.665,5.64-45.118c3.802-8.573,9.655-15.288,18.353-19.256
		c6.051-2.76,12.175-2.727,18.286-0.377c5.768,2.218,10.511,5.946,14.465,10.644c5.841,6.942,9.841,14.883,12.851,23.424
		c3.563,10.111,5.45,20.546,6.645,31.135c2.376,21.054,3.258,42.206,4.174,63.36c0.397,9.169,1.372,18.312,2.101,27.466
		c0.024,0.307,0.222,0.601,0.469,1.235c1.112-1.04,1.046-2.267,1.165-3.372c0.91-8.481,2.351-16.861,4.944-25.003
		c2.689-8.442,5.673-16.768,10.55-24.262c5.687-8.738,12.925-15.791,22.617-19.904c7.667-3.254,15.491-4.271,23.42-0.5
		c8.444,4.017,13.751,10.573,16.16,19.51c2.244,8.323,2.585,16.769,1.535,25.323c-0.942,7.68-2.13,15.31-4.117,22.79
		c-4.261,16.038-9.553,31.715-16.355,46.876c-7.479,16.668-15.291,33.157-25.164,48.575c-1.275,1.991-1.145,3.63-0.065,5.589
		c4.928,8.939,10.61,17.401,16.254,25.886c2.604,3.914,5.329,7.748,8.019,11.605C190.337,833.414,190.613,834.35,191.852,834.641z
		 M127.368,725.718c0.912-1.103,0.308-2.088,0.13-3.014c-3.837-19.968-5.433-40.15-6.131-60.446
		c-0.778-22.614-1.787-45.221-5.947-67.551c-1.92-10.307-4.812-20.294-9.845-29.512c-4.06-7.436-9.61-13.538-17.789-16.614
		c-5.813-2.186-11.441-1.585-16.701,1.817c-4.431,2.867-7.782,6.697-10.169,11.396c-4.918,9.682-6.907,20.063-7.298,30.806
		c-0.44,12.114,1.9,23.836,5.135,35.428c4.968,17.803,13.645,33.761,23.99,48.943c12.135,17.808,26.993,33.14,42.735,47.697
		C125.965,725.117,126.448,725.608,127.368,725.718z M205.32,664.509c0.26-7.018-0.584-13.855-3.309-20.387
		c-2.66-6.377-7.186-10.747-13.883-12.644c-5.408-1.532-10.658-0.719-15.712,1.545c-8.707,3.899-15.089,10.396-19.793,18.499
		c-8.57,14.763-13.136,30.807-14.483,47.781c-0.986,12.429-0.208,24.823,0.722,37.227c0.341,4.555,1.394,8.797,3.171,12.945
		c4.763,11.117,9.924,22.038,15.907,32.557c0.585,1.029,0.814,2.705,2.21,2.702c1.343-0.003,1.722-1.608,2.329-2.637
		c15.425-26.126,27.913-53.549,36.557-82.68C202.423,688.005,205.061,676.474,205.32,664.509z M152.113,847.586
		c12.057-0.106,20.219-0.542,28.279-2.001c5.575-1.009,5.553-1.137,1.906-5.261c-0.296-0.335-0.595-0.669-0.901-0.996
		c-16.538-17.641-33.343-35.02-50.826-51.732c-8.282-7.917-17.192-15.025-27.225-20.628c-6.576-3.673-13.462-6.599-20.883-8.102
		c-5.893-1.194-11.779-1.49-17.564,0.562c-11.299,4.007-19.938,15.175-16.8,29.143c1.268,5.646,3.476,10.832,6.796,15.574
		c6.815,9.734,15.84,17.088,25.883,23.082C103.897,841.025,129.075,847.591,152.113,847.586z M250.239,768.71
		c0.018-6.361-0.958-12.704-3.165-17.037c-4.665-9.157-11.288-12.201-20.32-9.805c-1.286,0.341-2.528,0.91-3.732,1.495
		c-6.257,3.041-10.773,7.911-14.293,13.791c-4.765,7.958-7.922,16.553-9.73,25.615c-3.736,18.726-3.563,37.458,1.244,55.942
		c4.2,16.148,2.16,12.423,11.71,22.301c0.156,0.161,0.312,0.322,0.473,0.477c2.316,2.228,2.691,2.216,4.695-0.3
		c4.064-5.099,7.482-10.632,10.456-16.406c9.852-19.125,16.846-39.256,20.726-60.433
		C249.252,779.182,250.314,774.012,250.239,768.71z"/>
	<path style="fill:#0C0C0C;" d="M805.479,122.066c-5.569,0.072-10.835-1.32-15.983-3.339c-8.338-3.27-16.228-7.581-24.676-10.593
		c-11.207-3.995-22.655-6.939-34.476-8.526c-18.724-2.513-37.51-2.902-56.314-1.701c-23.687,1.513-46.879,5.6-68.99,14.648
		c-4.465,1.827-8.758,3.986-12.797,6.64c-1.027,0.675-2.09,1.312-3.196,1.842c-1.181,0.566-2.397,0.627-3.406-0.425
		c-0.99-1.032-1.603-2.227-0.949-3.646c0.606-1.316,1.27-2.623,2.064-3.831c6.473-9.846,14.747-17.996,24.119-25.024
		c19.319-14.488,41.167-23.411,64.571-28.699c23.387-5.284,47.051-7.682,71.032-5.926c15.253,1.117,30.214,3.669,44.452,9.565
		c9.519,3.942,18.175,9.176,25.323,16.698c4.712,4.959,8.299,10.557,9.575,17.401c1.135,6.088,0.141,11.85-3.143,17.094
		c-3.168,5.057-8.228,7.009-13.852,7.799C807.736,122.198,806.598,122.066,805.479,122.066z M601.625,105.87
		c0.352,0.104,0.585,0.26,0.759,0.21c0.858-0.247,1.708-0.528,2.548-0.835c11.065-4.039,22.362-7.277,33.928-9.496
		c18.652-3.577,37.503-5.012,56.48-4.956c16.96,0.05,33.787,1.541,50.416,4.906c12.359,2.501,24.062,6.985,35.46,12.295
		c7.012,3.266,14.053,6.41,21.744,7.812c9.606,1.752,17.451-5.153,16.729-14.885c-0.505-6.807-3.73-12.369-8.319-17.186
		c-5.408-5.675-11.905-9.788-19.087-12.876c-17.96-7.722-36.833-11.018-56.257-11.505c-17.43-0.437-34.682,1.215-51.704,5.022
		c-14.217,3.179-28.27,6.943-41.692,12.719c-14.445,6.215-27.391,14.723-38.664,25.717
		C603.063,103.693,601.841,104.414,601.625,105.87z"/>
	<path style="fill:#0C0C0C;" d="M594.277,182.307c0.053,8.19-2.312,15.066-4.806,21.919c-5.288,14.529-13.167,27.627-21.863,40.327
		c-8.279,12.093-18.149,22.716-28.871,32.613c-2.167,2-2.285,2.109-1.216,4.884c1.33,3.454,3.103,6.704,4.912,9.922
		c3.346,5.952,6.738,11.877,10.776,17.405c1.652,2.262,1.718,4.719,0.27,5.725c-1.487,1.033-3.953,0.341-5.532-1.719
		c-5.058-6.601-9.319-13.719-12.879-21.208c-8.535-17.956-15.092-36.603-18.973-56.144c-0.806-4.06-1.841-8.074-2.282-12.204
		c-0.144-1.347-0.234-2.663,0.115-3.996c0.349-1.334,1.121-2.194,2.505-2.358c1.518-0.18,2.658,0.519,3.234,1.876
		c0.385,0.908,0.512,1.937,0.675,2.925c2.609,15.835,6.481,31.334,12.281,46.322c0.161,0.417,0.241,0.867,0.417,1.276
		c0.804,1.868,1.334,2.049,2.905,0.597c5.427-5.018,10.789-10.112,15.404-15.912c4.904-6.163,4.299-3.919,2.142-10.973
		c-2.194-7.178-4.483-14.324-5.397-21.805c-1.337-10.952-1.816-21.872,1.565-32.612c2.987-9.486,8.179-17.361,16.533-22.971
		c2.721-1.827,5.642-3.181,8.886-3.812c6.547-1.273,11.659,0.984,15.484,6.307C593.646,172.987,594.339,177.941,594.277,182.307z
		 M560.773,242.256c1.198-0.333,1.587-1.48,2.202-2.369c7.282-10.532,13.211-21.815,18.405-33.492
		c3.061-6.882,5.321-14.01,6.168-21.538c0.408-3.627,0.082-7.154-1.326-10.539c-1.709-4.108-5.257-6.133-9.652-5.536
		c-2.148,0.291-4.082,1.144-5.88,2.333c-5.846,3.869-10.244,8.973-13.065,15.401c-2.458,5.6-3.721,11.481-3.985,17.579
		c-0.549,12.717,1.997,24.926,6.105,36.874C559.931,241.504,560.182,241.995,560.773,242.256z"/>
	<path style="fill:#0C0C0C;" d="M544.299,63.599c-0.375,9.209-2.722,18.359-6.009,27.367c-5.88,16.119-15.38,30.004-25.835,43.389
		c-6.759,8.654-14.006,16.895-20.891,25.44c-1.016,1.261-1.666,2.578-2.06,4.14c-2.572,10.201-5.199,20.389-7.837,30.573
		c-0.279,1.078-0.643,2.156-1.135,3.151c-0.762,1.541-2.16,1.866-3.715,1.503c-1.592-0.371-2.117-1.553-1.959-3.056
		c0.105-0.997,0.306-1.991,0.549-2.965c2.228-8.904,4.453-17.81,6.729-26.702c0.647-2.529,0.788-5.027,0.551-7.641
		c-1.692-18.627-3.337-37.262-2.877-55.998c0.3-12.233,1.39-24.383,4.752-36.206c2.738-9.628,7.233-18.294,14.583-25.296
		c3.724-3.547,8.06-6.015,12.975-7.463c9.64-2.84,22.485,1.472,27.984,11.591C543.136,51.002,544.311,56.943,544.299,63.599z
		 M489.861,150.788c1.095-0.659,1.658-1.651,2.358-2.502c4.269-5.187,8.514-10.394,12.786-15.579
		c12.396-15.046,23.108-31.069,29.24-49.801c2.497-7.627,4.06-15.372,3.464-23.43c-0.389-5.257-1.907-10.146-5.586-14.088
		c-6.915-7.41-17.873-8.007-26.153-1.473c-5.026,3.966-8.639,9.056-11.397,14.766c-3.945,8.166-5.803,16.904-6.87,25.842
		c-2.554,21.383-1.364,42.703,1.107,63.999C488.896,149.262,488.793,150.114,489.861,150.788z"/>
	<path style="fill:#0C0C0C;" d="M345.769,853.677c0.019,15.202-11.676,32.275-32.133,32.467
		c-16.194,0.152-32.188-12.925-32.141-32.391c0.043-17.728,13.148-32.066,31.618-32.578
		C331.215,820.672,345.608,835.221,345.769,853.677z M338.876,853.806c-0.279-21.477-20.383-29.932-34.328-24.5
		c-10.468,4.078-15.721,12.107-16.448,23.189c-0.876,13.363,9.801,25.926,23.079,27.228
		C325.772,881.154,338.882,868.886,338.876,853.806z"/>
	<path style="fill:#0C0C0C;" d="M514.342,176.686c0.18-0.673,0.431-1.646,0.701-2.614c4.182-14.976,10.776-28.916,18.196-42.51
		c9.281-17.004,20.944-32.266,33.688-46.788c9.566-10.9,19.841-20.987,31.629-29.478c0.635-0.458,1.243-0.968,1.924-1.347
		c1.651-0.918,3.124-0.818,4.002,0.193c0.956,1.101,1.001,3.475,0.028,4.728c-0.336,0.432-0.8,0.783-1.253,1.104
		c-12.691,9.014-23.618,19.928-33.578,31.79c-9.575,11.404-19.023,22.948-26.584,35.85c-9.193,15.688-17.166,31.943-22.334,49.456
		c-0.126,0.428-0.291,0.85-0.483,1.253c-0.832,1.743-2.194,2.496-3.726,2.08C515.254,180.051,514.32,178.616,514.342,176.686z"/>
	<path style="fill:#0C0C0C;" d="M628.473,157.077c0.671-8.152,6.475-16.007,16.819-20.486c20.054-8.682,39.424,9.44,37.172,27.184
		c-1,7.878-6.016,18.322-19.659,22.244C644.509,191.279,627.797,175.798,628.473,157.077z M655.691,180.76
		c11.711-0.42,20.682-9.3,20.324-20.119c-0.369-11.159-10.28-20.179-21.695-19.743c-10.629,0.406-19.621,9.806-19.322,20.199
		C635.307,171.833,645.101,181.14,655.691,180.76z"/>
	<path style="fill:#0C0C0C;" d="M155.637,556.9c-0.115-13.829,10.505-24.406,24.816-24.508
		c14.078-0.101,24.503,10.338,24.547,23.524c0.046,13.755-10.696,24.907-24.238,24.824
		C168.376,580.665,154.927,571.256,155.637,556.9z M180.935,538.926c-9.961-0.118-18.637,8.015-18.833,17.654
		c-0.193,9.491,8.502,17.491,19.025,17.687c9.519,0.178,17.326-9.686,17.3-18.422C198.4,547,190.297,539.037,180.935,538.926z"/>
	<path style="fill:#0C0C0C;" d="M441.461,474.806c13.355-0.72,25.348,12.592,24.875,25.064c-0.472,12.447-9.509,24.657-25.55,24.947
		c-13.347,0.241-24.429-11.37-24.273-24.852C416.681,485.383,427.254,474.721,441.461,474.806z M441.112,518.303
		c8.218,0.71,19.198-7.694,19.034-18.267c-0.159-10.303-8.402-18.884-18.712-18.951c-10.34-0.068-18.702,8.151-18.733,18.412
		C422.67,509.789,430.976,518.274,441.112,518.303z"/>
	<path style="fill:#0C0C0C;" d="M312.357,74.431c-0.703-11.591,9.998-22.342,23.631-22.087c11.671,0.218,21.851,10.55,21.773,22.416
		c-0.084,12.802-10.308,22.779-23.268,22.721C320.447,97.417,311.81,84.758,312.357,74.431z M350.862,74.682
		c-0.058-9.011-6.856-15.944-15.589-15.899c-9.52,0.049-16.471,6.74-16.409,15.796c0.059,8.608,7.576,16.24,15.98,16.225
		C343.439,90.789,350.917,83.262,350.862,74.682z"/>
	<path style="fill:#0C0C0C;" d="M855.418,621.136c0.349,13.411-10.365,21.413-18.722,22.48
		c-13.663,1.745-30.588-11.885-25.316-28.643c3.799-12.073,15.891-19.878,28.789-15.878c8.062,2.5,12.587,8.548,14.66,16.534
		C855.305,617.465,855.541,619.367,855.418,621.136z M833.868,637.188c8.815-0.013,14.995-6.555,14.951-15.827
		c-0.044-9.235-6.817-16.347-15.397-16.64c-6.563-0.224-16.402,6.829-16.451,16.321C816.93,629.128,825.397,637.598,833.868,637.188
		z"/>
	<path style="fill:#0C0C0C;" d="M594.81,841.148c-0.148,12.075-9.512,20.694-22.236,20.469
		c-10.675-0.189-19.652-9.909-19.556-21.173c0.096-11.236,9.562-20.111,21.313-19.982
		C585.971,820.588,594.951,829.659,594.81,841.148z M588.156,841.067c0.093-8.24-5.749-14.27-13.956-14.405
		c-7.865-0.13-14.535,6.401-14.682,14.374c-0.142,7.667,5.961,14.215,13.39,14.366C581.604,855.579,588.061,849.509,588.156,841.067
		z"/>
	<path style="fill:#0C0C0C;" d="M142.209,920.846c-8.128,0.616-18.453-7.179-18.384-18.785c0.056-9.281,8.291-16.847,18.235-16.839
		c10.188,0.008,18.353,7.8,18.349,17.51C160.406,912.705,152.214,920.858,142.209,920.846z M141.485,892.003
		c-5.915-0.002-11.095,4.958-11.21,10.734c-0.116,5.851,5.468,11.305,11.516,11.247c6.398-0.062,11.813-5.032,11.865-10.893
		C153.713,896.644,148.62,892.005,141.485,892.003z"/>
	<path style="fill:#0C0C0C;" d="M433.097,143.052c8.049,0.008,13.932,5.816,13.992,13.608c0.075,9.769-7.837,15.246-14.289,15.169
		c-7.817-0.094-14.266-6.653-14.232-14.487C418.603,148.986,424.646,143.043,433.097,143.052z M433.214,149.268
		c-4.519-0.045-8.113,3.494-8.152,8.028c-0.04,4.647,3.122,8.081,7.519,8.166c4.539,0.087,8.449-3.675,8.489-8.169
		C441.108,153.076,437.421,149.31,433.214,149.268z"/>
	<path style="fill:#0C0C0C;" d="M848.224,675.893c0.063,6.199-4.755,11.047-11.043,11.11c-5.651,0.057-10.641-4.912-10.774-10.729
		c-0.137-5.973,4.986-11.319,10.914-11.388C843.054,664.82,848.163,669.978,848.224,675.893z M833.188,675.678
		c-0.037,2.535,1.837,4.51,4.337,4.573c2.35,0.058,3.915-1.504,3.986-3.978c0.077-2.706-1.623-4.509-4.255-4.513
		C834.841,671.756,833.222,673.316,833.188,675.678z"/>
	<path style="fill:#0C0C0C;" d="M688.825,755.534c-6.727,0.04-11.425-4.255-11.41-10.432c0.014-5.806,5.339-11.178,11.108-11.206
		c5.715-0.028,10.486,4.831,10.57,10.762C699.18,750.742,694.687,755.499,688.825,755.534z M692.609,744.927
		c0.033-2.638-1.823-4.701-4.187-4.654c-2.329,0.047-4.281,2.097-4.4,4.622c-0.113,2.378,1.656,4.249,4.092,4.326
		C690.714,749.304,692.576,747.525,692.609,744.927z"/>
	<path style="fill:#0C0C0C;" d="M71.024,706.868c0.572,5.806-5.489,11.151-10.698,11.086c-5.071-0.063-9.82-5.125-9.757-10.487
		c0.067-5.725,5.107-10.835,10.718-10.802C67.433,696.701,71.495,702.2,71.024,706.868z M60.458,711.239
		c2.225-0.002,4.121-1.862,4.07-3.992c-0.046-1.886-1.491-3.225-3.511-3.255c-2.169-0.031-3.651,1.491-3.725,3.826
		C57.224,709.963,58.406,711.241,60.458,711.239z"/>
	<path style="fill:#0C0C0C;" d="M595.745,239.428c-0.055-5.329,3.65-9.295,8.796-9.419c5.176-0.124,9.492,4.063,9.512,9.226
		c0.018,4.76-4.275,8.818-9.477,8.96C599.321,248.338,595.801,244.843,595.745,239.428z M607.555,239.393
		c0.043-1.799-1.328-3.161-3.143-3.121c-1.51,0.033-2.482,1-2.52,2.505c-0.044,1.744,1.372,3.376,2.967,3.421
		C606.282,242.238,607.518,240.953,607.555,239.393z"/>
	<path style="fill:#0C0C0C;" d="M677.485,679.561c4.723,0.019,8.226,3.727,8.256,8.739c0.031,4.995-3.294,8.531-7.969,8.478
		c-5.136-0.058-8.964-3.682-8.966-8.488C668.804,683.252,672.495,679.54,677.485,679.561z M677.155,686.226
		c-1.366,0.24-1.626,1.287-1.576,2.476c0.053,1.277,0.675,2.21,2.043,2.103c1.129-0.088,1.725-0.934,1.769-2.078
		C679.442,687.429,678.347,686.19,677.155,686.226z"/>
	<path style="fill:#0C0C0C;" d="M924.474,796.495c-4.567,0.012-8.48-3.98-8.459-8.628c0.019-4.389,3.712-8.144,8.067-8.203
		c5.135-0.07,8.695,3.265,8.683,8.132C932.754,792.706,929.152,796.484,924.474,796.495z M924.705,789.746
		c0.705-0.161,1.343-0.575,1.363-1.502c0.023-1.04-0.584-1.739-1.584-1.823c-1.05-0.089-1.716,0.57-1.68,1.628
		C922.84,789.082,923.545,789.613,924.705,789.746z"/>
	<path style="fill:#0C0C0C;" d="M712.01,949.417c-0.049,4.837-3.845,8.411-8.932,8.409c-4.587-0.002-8.14-3.952-7.992-8.885
		c0.133-4.432,3.773-7.871,8.317-7.858C708.283,941.095,712.057,944.75,712.01,949.417z M705.309,949.343
		c-0.016-1.039-0.455-1.831-1.722-1.859c-1.188-0.026-1.905,0.651-2.037,1.761c-0.132,1.112,0.4,1.95,1.578,2.16
		C704.26,951.607,705.233,950.698,705.309,949.343z"/>
	<path style="fill:#0C0C0C;" d="M509.128,350.324c0.046-4.526,3.628-8.192,8.014-8.206c4.815-0.015,8.196,3.581,8.18,8.701
		c-0.013,4.373-3.813,8.374-7.972,8.393C512.926,359.233,509.079,355.075,509.128,350.324z M518.95,350.905
		c0.028-1.388-0.738-2.328-1.92-2.291c-1.182,0.037-1.874,0.66-1.83,1.902c0.044,1.232,1.304,2.473,2.391,2.337
		C518.764,352.706,518.827,351.745,518.95,350.905z"/>
	<path style="fill:#0C0C0C;" d="M535.807,913.794c0.028-4.35,3.579-7.9,7.892-7.889c4.61,0.012,8.712,4.045,8.648,8.502
		c-0.065,4.474-3.948,8.112-8.598,8.055C539.283,922.407,535.776,918.58,535.807,913.794z M545.695,914.151
		c-0.005-1.136-0.492-1.986-1.682-1.995c-1.224-0.009-1.677,0.93-1.663,2.012c0.014,1.077,0.497,2.031,1.686,2.037
		C545.255,916.211,545.605,915.218,545.695,914.151z"/>
	<path style="fill:#0C0C0C;" d="M414.524,86.622c-0.02,4.566-3.634,8.667-7.654,8.684c-4.635,0.02-8.477-3.962-8.373-8.678
		c0.108-4.852,3.546-8.385,8.189-8.416C410.944,78.185,414.544,82.047,414.524,86.622z M408.299,87.181
		c-0.078-1.253-1.174-2.183-2.286-1.978c-1.068,0.197-1.455,0.958-1.325,1.955c0.143,1.098,0.769,1.905,1.92,1.943
		C407.911,89.144,408.183,88.134,408.299,87.181z"/>
	<path style="fill:#0C0C0C;" d="M60.603,513.086c0.076,4.4-3.452,7.839-8.201,7.993c-4.296,0.139-7.547-3.279-7.648-8.042
		c-0.093-4.411,3.374-7.963,7.768-7.957C57.262,505.086,60.521,508.315,60.603,513.086z M54.278,513.379
		c-0.026-0.971-0.365-1.768-1.425-1.911c-1.129-0.152-1.649,0.588-1.657,1.578c-0.008,0.983,0.561,1.701,1.599,1.766
		C53.719,514.87,54.168,514.265,54.278,513.379z"/>
	<path style="fill:#0C0C0C;" d="M276.837,647.13c-4.248,0.578-8.282-4.638-8.084-8.495c0.223-4.346,3.64-7.492,8.284-7.406
		c4.376,0.082,7.467,3.53,7.361,8.21C284.296,643.851,281.051,647.153,276.837,647.13z M278.288,639.25
		c-0.219-1.054-0.934-1.439-1.934-1.361c-0.719,0.056-1.354,0.375-1.271,1.201c0.099,0.985,0.744,1.636,1.742,1.674
		C277.762,640.798,278.125,640.083,278.288,639.25z"/>
	<path style="fill:#0C0C0C;" d="M748.241,359c2.16-1.176,3.518-2.989,4.969-4.625c7.079-7.983,14.905-15.177,23.102-21.973
		c7.156-5.934,14.46-11.682,22.44-16.503c1.442-0.871,2.897-1.719,4.505-2.228c1.363-0.432,2.75-0.355,3.663,0.878
		c0.98,1.324,0.265,2.616-0.576,3.682c-1.553,1.967-3.736,3.195-5.807,4.515c-9.849,6.279-18.983,13.487-27.641,21.3
		c-8.909,8.04-17.356,16.52-24.352,26.336c-0.388,0.545-0.788,1.111-1.289,1.543c-1.961,1.69-4.552,1.026-5.401-1.423
		c-0.286-0.826-0.325-1.757-0.367-2.645c-0.978-20.536-0.124-40.995,3.329-61.27c3.115-18.29,8.634-35.88,16.524-52.707
		c10.399-22.178,23.919-42.249,40.579-60.194c3.655-3.937,7.487-7.712,11.322-11.476c2.423-2.379,4.334-2.107,6.35,0.727
		c1.236,1.738,2.252,3.606,3.127,5.552c3.403,7.575,6.123,15.386,8.072,23.46c0.209,0.865,0.339,1.758,0.407,2.645
		c0.124,1.614-0.862,2.452-2.239,2.944c-1.505,0.538-2.671,0-3.425-1.311c-1.192-2.07-1.61-4.413-2.058-6.715
		c-1.191-6.111-3.457-11.802-6.543-17.181c-1.521-2.651-1.898-2.615-4.121-0.407c-11.089,11.012-20.664,23.23-29.421,36.156
		c-5.933,8.757-10.513,18.226-15.268,27.601c-9.195,18.13-14.87,37.372-17.704,57.49c-1.956,13.886-3.089,27.817-2.858,41.845
		C747.578,356.217,747.281,357.481,748.241,359z"/>
	<path style="fill:#0C0C0C;" d="M684.206,377.736c-15.83-0.151-29.01-11.768-30.569-27.413c-0.983-9.864,2.353-18.269,9.852-24.888
		c12.211-10.78,28.891-11.991,42.187-0.755c15.156,12.808,13.599,41.923-9.364,50.669c-1.978,0.753-4.033,1.375-6.106,1.784
		C688.243,377.521,686.209,377.549,684.206,377.736z M708.498,347.09c-0.026-9.876-5.623-18.478-14.559-21.706
		c-8.829-3.19-17.115-1.755-24.829,3.603c-7.672,5.329-12.408,19.432-5.858,29.837c5.319,8.449,12.882,12.43,22.823,11.925
		C699.233,370.08,708.533,360.256,708.498,347.09z"/>
	<path style="fill:#0C0C0C;" d="M846.356,374.404c0.977,13.71-13.845,30.176-30.073,29.504
		c-15.41-0.638-28.888-11.986-28.847-29.693c0.039-17.019,13.669-30.172,30.464-30.044
		C832.902,344.287,847.339,358.998,846.356,374.404z M793.643,374.234c0.016,12.436,10.35,22.787,22.677,22.713
		c12.839-0.077,23.32-10.366,23.3-22.938c-0.023-14.364-11.54-23.348-22.95-23.094C801.597,351.25,793.158,364.473,793.643,374.234z
		"/>
	<path style="fill:#0C0C0C;" d="M704.773,297.691c-5.22,0.046-9.078-3.59-9.172-8.643c-0.095-5.121,3.676-9.225,8.57-9.325
		c5.112-0.104,9.149,3.898,9.164,9.088C713.35,293.785,709.625,297.649,704.773,297.691z M701.897,288.656
		c0.001,1.327,1.169,2.64,2.411,2.71c1.301,0.074,2.771-1.443,2.703-2.789c-0.063-1.247-1.395-2.517-2.632-2.507
		C703.081,286.081,701.896,287.315,701.897,288.656z"/>
	<path style="fill:#0C0C0C;" d="M826.098,237.878c-4.909-0.023-8.607-3.467-8.515-7.931c0.096-4.695,3.964-8.632,8.489-8.643
		c4.685-0.011,8.426,3.831,8.375,8.6C834.394,234.823,831.171,237.902,826.098,237.878z M826.022,227.824
		c-1.115,0.006-1.719,0.721-1.847,1.805c-0.13,1.107,0.35,1.965,1.524,2.138c1.138,0.167,1.899-0.403,2.12-1.544
		C828.032,229.131,827.144,227.935,826.022,227.824z"/>
	<path style="fill:#0C0C0C;" d="M800.648,255.155c-0.035,4.286-3.538,7.746-7.737,7.643c-4.025-0.099-7.063-3.401-6.939-7.542
		c0.119-3.979,3.439-7.075,7.523-7.014C797.586,248.304,800.68,251.294,800.648,255.155z M793.94,255.684
		c0.17-0.484-0.048-0.842-0.443-1.053c-0.446-0.238-0.839-0.043-1.026,0.392c-0.196,0.457,0.047,0.833,0.442,1.056
		C793.378,256.341,793.699,256.082,793.94,255.684z"/>
	<path style="fill:#0C0C0C;" d="M803.596,295.683c-4.584-0.041-7.046-2.527-6.986-7.055c0.05-3.796,3.25-6.977,7.075-7.034
		c4.088-0.061,7.603,3.141,7.578,6.903C811.236,292.534,807.836,295.72,803.596,295.683z M804.537,288.796
		c0.07-0.48-0.071-0.95-0.715-1.092c-0.474-0.104-0.841,0.121-0.984,0.571c-0.195,0.611,0.072,1.032,0.686,1.18
		C803.991,289.566,804.339,289.373,804.537,288.796z"/>
	<path style="fill:#0C0C0C;" d="M768.287,516.59c-0.234,13.263-1.914,26.331-4.595,39.313c-1.902,9.209-3.576,18.461-6.319,27.472
		c-0.423,1.39-0.872,2.782-1.453,4.111c-0.632,1.445-1.792,2.339-3.435,2.178c-1.401-0.137-2.396-1.659-2.469-3.572
		c-0.06-1.59,0.428-3.096,0.81-4.615c2.81-11.179,5.595-22.364,7.684-33.708c2.259-12.271,2.88-24.672,2.954-37.117
		c0.024-4.031,0.026-8.063,0.055-12.094c0.016-2.279,1.256-3.763,3.191-3.872c1.696-0.095,3.311,1.304,3.425,3.433
		c0.192,3.574,0.125,7.163,0.149,10.745C768.3,511.44,768.287,514.015,768.287,516.59z"/>
	<path style="fill:#0C0C0C;" d="M675.937,564.777c0.792-9.718,2.114-19.36,3.971-28.934c2.604-13.428,6.271-26.579,10.193-39.666
		c0.352-1.173,0.739-2.364,1.322-3.432c0.83-1.521,2.556-2.236,3.963-1.813c1.684,0.507,2.13,1.831,2.138,3.404
		c0.009,1.708-0.485,3.314-1.012,4.913c-3.296,9.997-6.156,20.12-8.54,30.37c-2.209,9.496-3.82,19.099-4.587,28.831
		c-0.22,2.789-0.486,5.574-0.728,8.361c-0.068,0.783-0.137,1.56-0.57,2.254c-0.725,1.163-1.789,1.653-3.125,1.56
		c-1.234-0.086-2.066-0.737-2.548-1.88C675.874,567.464,675.918,566.122,675.937,564.777z"/>
	<path style="fill:#0C0C0C;" d="M243.351,276.155c-21.756-0.062-39.373-17.886-39.444-39.652
		c-0.055-17.035,12.283-39.727,40.887-39.51c23.228,0.176,39.105,18.658,39.005,39.919
		C283.711,255.64,267.474,276.531,243.351,276.155z M277.155,236.631c-0.022-19.516-13.474-33.23-32.996-33.072
		c-21.07,0.171-33.399,14.974-33.749,32.38c-0.374,18.608,14.85,33.934,32.778,33.864
		C264.174,269.721,278.175,251.307,277.155,236.631z"/>
	<path style="fill:#0C0C0C;" d="M137.95,252.383c-7.816-0.07-14.399-6.725-14.267-14.423c0.13-7.536,7.048-14.437,14.462-14.425
		c7.722,0.012,14.562,6.781,14.45,14.301C152.478,245.703,145.683,252.453,137.95,252.383z M138.523,230.432
		c-4.631-0.038-8.333,3.342-8.418,7.685c-0.086,4.373,3.284,7.659,7.891,7.695c4.368,0.034,7.579-3.203,7.554-7.614
		C145.525,233.752,142.551,230.465,138.523,230.432z"/>
	<path style="fill:#0C0C0C;" d="M315.514,162.668c-0.072,6.419-5.248,11.785-11.36,11.776c-6.091-0.009-11.512-5.536-11.459-11.681
		c0.06-6.903,5.058-11.943,11.833-11.932C310.895,150.842,315.59,155.901,315.514,162.668z M303.984,157.712
		c-2.571,0.059-4.601,2.239-4.499,4.83c0.116,2.929,2.171,4.927,4.907,4.77c2.569-0.147,4.371-2.041,4.364-4.586
		C308.749,159.947,306.565,157.652,303.984,157.712z"/>
	<path style="fill:#0C0C0C;" d="M158.44,305.854c-4.754,0.089-8.533-3.453-8.536-7.999c-0.003-4.336,3.19-7.487,7.681-7.581
		c4.737-0.099,8.648,3.272,8.672,7.474C166.281,301.91,162.551,305.777,158.44,305.854z M157.573,296.571
		c-0.764,0.199-1.208,0.752-1.133,1.655c0.077,0.917,0.629,1.434,1.538,1.39c0.874-0.042,1.51-0.543,1.487-1.464
		C159.439,297.082,158.731,296.612,157.573,296.571z"/>
	<path style="fill:#0C0C0C;" d="M270.157,516.72c0,2.464,0.085,4.931-0.025,7.39c-0.102,2.288-1.077,3.396-2.799,3.561
		c-1.905,0.182-3.216-0.899-3.634-3.107c-0.186-0.985-0.273-2-0.295-3.004c-0.429-19.264-4.082-38.016-8.562-56.687
		c-4.517-18.82-11.632-36.684-18.969-54.496c-2.047-4.97-4.081-9.945-6.519-14.742c-0.303-0.596-0.615-1.21-0.771-1.853
		c-0.335-1.379-0.255-2.693,1.088-3.579c1.303-0.86,3.084-0.649,4.311,0.563c1.054,1.041,1.646,2.398,2.269,3.709
		c4.664,9.815,8.784,19.862,12.699,29.994c5.372,13.901,10.183,27.973,13.576,42.519
		C266.349,483.375,269.427,499.858,270.157,516.72z"/>
	<path style="fill:#0C0C0C;" d="M343.832,491.296c-0.165,2.036-0.538,3.433-1.939,4.251c-1.62,0.945-3.301,0.438-4.239-1.274
		c-0.372-0.68-0.648-1.43-0.858-2.178c-4.839-17.181-11.227-33.75-19.505-49.579c-1.348-2.578-2.616-5.2-3.875-7.823
		c-0.433-0.901-0.875-1.844-1.045-2.814c-0.235-1.339-0.236-2.749,1.294-3.471c1.494-0.705,2.902-0.381,4.006,0.743
		c0.687,0.7,1.166,1.63,1.642,2.509c8.858,16.383,16.427,33.321,21.951,51.134C342.189,485.778,343.072,488.776,343.832,491.296z"/>
	<path style="fill:#0C0C0C;" d="M455.687,622.492c17.086,0.147,24.841,13.825,24.766,24.992
		c-0.092,13.554-11.612,24.491-25.553,24.432c-13.392-0.057-24.732-11.928-24.501-25.16
		C430.634,633.187,441.934,622.316,455.687,622.492z M474.239,647.1c-0.079-9.922-8.898-18.539-18.99-18.299
		c-8.784,0.209-18.108,6.237-18.175,18.875c-0.051,9.477,8.77,17.995,18.265,17.823C465.721,665.31,474.318,656.942,474.239,647.1z"
		/>
	<path style="fill:#0C0C0C;" d="M542.633,693.533c-12.772,0.016-23.145-10.694-23.013-23.909c0.116-11.618,9.08-23.46,23.979-23.419
		c12.529,0.035,22.853,10.859,22.895,24.165C566.529,681.197,559.059,693.678,542.633,693.533z M525.72,670.243
		c0.082,9.163,8.229,17.121,17.345,16.943c9.41-0.184,16.993-7.716,16.943-16.83c-0.054-9.757-7.893-17.833-17.305-17.827
		C533.555,652.534,525.636,660.795,525.72,670.243z"/>
	<path style="fill:#0C0C0C;" d="M506.006,564.006c13.466-0.166,24.545,10.178,24.555,23.178c0.008,10.37-6.968,23.045-23.815,23.395
		c-12.61,0.262-23.307-9.425-23.759-22.404C482.632,577.953,490.852,563.458,506.006,564.006z M506.703,570.278
		c-8.034-0.561-17.092,7.296-17.105,17.112c-0.014,10.452,9.926,17.633,16.987,17.459c9.369-0.231,17.117-7.833,17.133-17.149
		C523.735,577.823,516.381,570.293,506.703,570.278z"/>
	<path style="fill:#0C0C0C;" d="M373.939,647.032c11.865,0.001,21.093,9.202,21.145,21.08c0.05,11.355-9.342,20.581-20.884,20.516
		c-12.006-0.068-21.312-9.477-21.583-21.172C352.391,657.659,361.97,646.106,373.939,647.032z M373.972,653.718
		c-8.045,0-14.513,6.064-14.56,13.651c-0.053,8.536,6.293,15.052,14.693,15.087c8.205,0.034,14.575-6.481,14.506-14.836
		C388.546,659.752,382.193,653.719,373.972,653.718z"/>
	<path style="fill:#0C0C0C;" d="M620.417,703.578c0.077,10.395-9.132,19.623-19.742,19.785
		c-11.753,0.179-20.507-8.422-20.905-19.899c-0.333-9.624,9.293-20.617,20.289-20.59
		C611.117,682.901,620.333,692.177,620.417,703.578z M599.754,689.401c-7.139-0.056-13.483,6.449-13.575,13.92
		c-0.09,7.324,6.207,13.302,14.009,13.3c7.25-0.002,13.414-6.015,13.759-12.964C614.236,697.854,607.737,689.043,599.754,689.401z"
		/>
	<path style="fill:#0C0C0C;" d="M477.06,791.055c-0.095-9.833,0.102-17.569-1.068-25.249c-0.149-0.98-0.114-2.028,0.052-3.008
		c0.315-1.859,1.428-2.748,3.215-2.837c1.807-0.091,2.752,0.978,3.02,2.539c0.492,2.867,0.912,5.758,1.147,8.656
		c0.944,11.637,0.951,23.276-0.15,34.907c-0.095,1.002-0.21,2.013-0.45,2.987c-0.484,1.96-1.814,2.977-3.569,2.851
		c-1.655-0.119-2.66-1.133-2.867-3.149c-0.125-1.216-0.061-2.462,0.018-3.688C476.755,799.696,477.145,794.332,477.06,791.055z"/>
	<path style="fill:#0C0C0C;" d="M439.26,796.968c0.684-3.293,1.567-7.218,2.304-11.17c1.332-7.143,2.573-14.302,3.864-21.453
		c0.198-1.099,0.393-2.207,0.705-3.277c0.566-1.946,1.598-2.683,3.366-2.539c1.609,0.131,2.814,1.276,3.033,3.057
		c0.093,0.757-0.007,1.563-0.151,2.321c-2.133,11.202-4.139,22.429-6.702,33.545c-0.151,0.654-0.274,1.319-0.492,1.951
		c-0.509,1.476-1.328,2.615-3.125,2.46c-1.592-0.137-2.644-1.357-2.797-3.217C439.236,798.314,439.26,797.977,439.26,796.968z"/>
</g>
</svg>
