<?xml version="1.0" encoding="utf-8"?>
<!-- Generator: Adobe Illustrator 27.5.0, SVG Export Plug-In . SVG Version: 6.00 Build 0)  -->
<svg version="1.1" id="Layer_1" xmlns="http://www.w3.org/2000/svg" xmlns:xlink="http://www.w3.org/1999/xlink" x="0px" y="0px"
	 viewBox="0 0 1080 1080" style="enable-background:new 0 0 1080 1080;" xml:space="preserve">
<g>
	<path style="fill:none;stroke:#000000;stroke-width:1.1688;stroke-linecap:round;stroke-miterlimit:10;" d="M798.804,600.291
		c5.575-12.682,14.622-35.789,18.28-59.388v-0.012c0.479-3.051,0.865-6.113,1.134-9.164c0.245-2.735,0.397-5.47,0.456-8.182
		c0.012-0.713,0.023-1.414,0.023-2.127c0-20.396-0.877-40.792-3.191-58.733l-0.012-0.012c-1.484-11.536-3.588-22.056-6.44-30.892
		c-1.356-4.231-2.899-8.077-4.617-11.466c-0.012,0-0.012,0-0.012,0c-0.292-0.596-0.608-1.181-0.923-1.753
		c-10.613-19.099,0.923-25.667,9.269-28.473c0.187-0.07,0.362-0.117,0.549-0.175c0.655-0.21,1.274-0.409,1.87-0.573
		c8.182-2.338,29.221-5.844,39.74-8.182s37.402-11.688,37.402-35.065c0,0,2.338-3.506,5.844-9.351
		c3.074-5.131,3.448-50.739-36.76-54.736c0,0,0,0-0.012,0"/>
	<path style="fill:none;stroke:#000000;stroke-width:1.1688;stroke-linecap:round;stroke-miterlimit:10;" d="M743.87,219.583
		c5.751,3.062,14.084,8.965,23.4,20.15c16.738,20.092,48.004,39.389,73.87,42.475c1.227,0.152,2.443,0.269,3.635,0.339h0.012
		c9.783,0.421,16.165-0.479,16.621-0.538c0-0.012,0.012,0,0.012,0c0.012-0.012,0.012-0.012,0.012-0.012
		s-12.343-24.732-31.044-38.758c-4.149-3.109-7.153-6.335-9.467-9.631c-8.135-11.536-7.925-23.867-19.753-34.784
		c-13.757-12.693-48.588-30.191-68.072-24.709"/>
	<path style="fill:none;stroke:#000000;stroke-width:1.1688;stroke-linecap:round;stroke-miterlimit:10;" d="M726.197,155.18
		c10.753,1.473,33.019,5.435,58.453,15.3c1.216,0.479,2.431,0.958,3.658,1.461c34.878,14.166,46.379,52.726,32.61,61.667"/>
	<path style="fill:none;stroke:#000000;stroke-width:1.1688;stroke-linecap:round;stroke-miterlimit:10;" d="M784.65,170.492v-0.012
		c-20.022-43.527-30.237-49.967-46.601-49.967c-11.197,0-15.826,11.501-17.638,19.122"/>
	<g>
		<path d="M832.724,363.628c3.886-0.961,7.864-1.532,11.867-1.834c2.002-0.16,4.013-0.213,6.027-0.179
			c1.997,0.022,4.069,0.275,5.984,0.376c3.909,0.169,7.848-0.444,11.695-1.353c1.926-0.461,3.834-1.018,5.709-1.674
			c1.872-0.652,3.772-1.309,5.471-2.349c-0.754,0.663-1.658,1.134-2.543,1.597c-0.892,0.461-1.803,0.881-2.723,1.286
			c-1.854,0.771-3.754,1.433-5.683,2.008c-3.86,1.13-7.898,1.8-11.979,1.651c-1.026-0.072-2.037-0.152-3.006-0.252
			c-0.982-0.101-1.971-0.133-2.958-0.188c-1.977-0.101-3.961-0.058-5.947-0.03c-1.986,0.042-3.973,0.168-5.957,0.338
			C836.69,363.161,834.709,363.388,832.724,363.628z"/>
	</g>
	<path style="fill:none;stroke:#000000;stroke-width:1.1688;stroke-linecap:round;stroke-miterlimit:10;" d="M813.321,389.915
		c-0.187,0.058-0.362,0.105-0.549,0.175c-13.64,4.301-36.444,19.309-58.359,33.148c-7.364,4.652-14.867,6.732-21.647,7.352h-0.012"
		/>
	<path style="fill:none;stroke:#000000;stroke-width:1.1688;stroke-linecap:round;stroke-miterlimit:10;" d="M751.163,254.939
		c-0.409-1.578-0.76-3.226-1.017-4.956c-0.421-2.852-0.596-5.891-0.409-9.082c0.748-12.728-3.775-17.778-7.13-19.765"/>
	<path style="fill:none;stroke:#000000;stroke-width:1.1688;stroke-linecap:round;stroke-miterlimit:10;" d="M751.163,254.939
		c-18.9-8.544-54.713-13.558-65.711-24.557c-4.816-4.816-6.849-10.625-7.492-16.001c0,0,0,0-0.012,0
		c-0.62-5.131,0.012-9.865,0.666-12.974"/>
	<path style="fill:none;stroke:#000000;stroke-width:1.1688;stroke-linecap:round;stroke-miterlimit:10;" d="M742.607,221.137
		c0.468-0.503,0.888-1.029,1.262-1.555c7.831-11.022-3.682-26.041-9.105-32.096c0.432-5.143-0.386-9.654-1.671-13.371
		c-2.49-7.282-6.732-11.525-6.732-11.525c0.234-2.782,0.14-5.248-0.164-7.41c-1.18-8.708-5.68-12.46-5.68-12.46
		c0-1.087-0.035-2.127-0.105-3.086c-0.584-8.357-3.401-12.109-3.401-12.109c2.338-12.857-4.675-18.701-4.675-18.701
		c4.675-15.195-7.013-22.208-7.013-22.208c0-10.519-11.688-25.714-17.532-23.376c-5.844,2.338-8.182,26.883-8.182,26.883
		c-4.675,12.857-1.169,25.714-1.169,25.714c-3.506,11.688,1.169,23.376,1.169,23.376c-1.169,4.675,0,9.351,0,9.351
		c-4.675,7.013,0,22.208,0,22.208c-4.395,12.343-4.138,22.5-0.994,30.635c10.251,26.521,51.311,31.523,62.941,20.793
		C741.93,221.85,742.292,221.499,742.607,221.137"/>
	<path style="fill:none;stroke:#000000;stroke-width:1.1688;stroke-linecap:round;stroke-miterlimit:10;" d="M679.608,170.772
		c0,0,7.013,23.376,54.935,16.364"/>
	<path style="fill:none;stroke:#000000;stroke-width:1.1688;stroke-linecap:round;stroke-miterlimit:10;" d="M679.608,148.565
		c0,0,15.195,19.87,46.753,14.026"/>
	<path style="fill:none;stroke:#000000;stroke-width:1.1688;stroke-linecap:round;stroke-miterlimit:10;" d="M679.608,139.214
		c0,0,18.701,15.195,40.909,3.506"/>
	<path style="fill:none;stroke:#000000;stroke-width:1.1688;stroke-linecap:round;stroke-miterlimit:10;" d="M678.439,115.838
		c0,0,11.688,17.532,38.571,11.688"/>
	<path style="fill:none;stroke:#000000;stroke-width:1.1688;stroke-linecap:round;stroke-miterlimit:10;" d="M679.608,90.124
		c0,0,8.182,19.87,32.727,18.701"/>
	<path style="fill:none;stroke:#000000;stroke-width:1.1688;stroke-linecap:round;stroke-miterlimit:10;" d="M705.322,86.617
		c0,0-18.862-5.936-22.288-15.241"/>
	<path style="fill:none;stroke:#000000;stroke-width:1.1688;stroke-linecap:round;stroke-miterlimit:10;" d="M658.569,231.551
		c9.351,33.896,45.584,47.922,71.298,61.948c21.693,11.828,43.387,51.124,49.64,63.116c1.157,2.221,1.788,3.506,1.788,3.506
		c26.883-84.155-31.149-110.138-31.149-110.138"/>
	<path style="fill:none;stroke:#000000;stroke-width:1.1688;stroke-linecap:round;stroke-miterlimit:10;" d="M657.53,226.24
		c-0.12,5.62,4.11,14.05,25.58,21.67c36.15,12.83,85.83,19.05,98.29,111.88"/>
	<path style="fill:none;stroke:#000000;stroke-width:1.1688;stroke-linecap:round;stroke-miterlimit:10;" d="M764.44,561.08
		c0.14-0.73,0.28-1.45,0.41-2.18c11.12-61.07-10.25-100.72-32.08-128.31h-0.02c-14.23-18-28.69-30.89-34.44-41.25
		c-16.83-30.29-25.04-125.16-25.68-132.76"/>
	<path style="fill:none;stroke:#000000;stroke-width:1.1688;stroke-linecap:round;stroke-miterlimit:10;" d="M677.96,214.381
		c0,0,0,0-0.012,0c-0.281,0.105-10.414,3.951-20.419,11.864c-1.239,0.97-2.478,2.01-3.693,3.109c0,0-0.012,0-0.023,0.012
		c-6.779,6.171-12.904,14.26-15.113,24.393c-5.844,26.883,15.195,88.831,14.026,106.363c-0.748,11.139-0.07,30.775-12.074,43.317
		c-5.412,5.645-13.395,9.841-25.223,11.186c-3.249,0.374-6.779,0.526-10.625,0.432c0,0,3.799-3.483,7.901-9.877
		c6.16-9.584,13.009-25.691,8.708-46.379c-0.62-2.969-1.473-6.043-2.583-9.199c-7.679-21.763-16.761-50.879-15.347-75.646
		c0-0.012,0-0.023,0-0.023c0.164-2.899,0.479-5.727,0.935-8.474c0.012-0.023,0.012-0.047,0.012-0.07
		c0.058-0.292,0.105-0.573,0.164-0.853c1.531-8.334,4.594-15.919,9.713-22.231v-0.012c2.256-2.782,4.886-5.306,7.971-7.551"/>
	<path style="fill:none;stroke:#000000;stroke-width:1.1688;stroke-linecap:round;stroke-miterlimit:10;" d="M751.011,678.334
		c15.744-8.883,31.184-27.818,25.609-68.084c-2.607-18.818-6.791-34.983-12.179-49.172c-10.251-27-24.873-46.835-41.294-64.157
		c-9.771-10.321-20.174-19.753-30.682-29.267c-37.402-33.896-42.078-54.935-42.078-54.935l-9.351,8.182l-0.386-17.462"/>
	<path style="fill:none;stroke:#000000;stroke-width:1.1688;stroke-linecap:round;stroke-miterlimit:10;" d="M615.428,414.624
		c0,0,16.258,54.198,58.336,102.12c13.184,15.008,25.445,29.337,36.035,42.966c16.463,21.196,28.891,40.724,34.435,58.595
		c0.449,1.448,0.328,3.016-0.302,4.395c-0.769,1.683-1.564,3.377-2.376,5.082c-10.309,23.634-3.401,39.693,9.456,50.552
		c22.126,18.643,61.842,21.915,61.842,21.915s-67.792,59.61-109.869-9.351c-27.35-44.824-8.275-88.667,6.814-131.189"/>
	<path style="fill:none;stroke:#000000;stroke-width:1.1688;stroke-linecap:round;stroke-miterlimit:10;" d="M740.637,607.996"/>
	<path style="fill:none;stroke:#000000;stroke-width:1.1688;stroke-linecap:round;stroke-miterlimit:10;" d="M734.848,186.041
		c0,0,35.928,6.939,59.305,42.004c23.376,35.065,67.792,53.766,67.792,53.766"/>
	<path style="fill:none;stroke:#000000;stroke-width:1.1688;stroke-linecap:round;stroke-miterlimit:10;" d="M612.704,405.18
		c-5.809-12.448-9.292-26.86-11.244-41.493c-5.797-43.34,1.812-88.55,2.022-89.731c0-0.012,0-0.023,0-0.023"/>
	<path style="fill:none;stroke:#000000;stroke-width:1.1688;stroke-linecap:round;stroke-miterlimit:10;" d="M576.296,266.406
		c-8.766,1.543-25.13,5.178-39.027,12.506c0,0.012,0,0.012,0,0.012c-18.315,9.666-32.341,25.761-18.958,51.978
		c18.841,36.9,58.885,36.818,83.15,32.785"/>
	<path style="fill:none;stroke:#000000;stroke-width:1.1688;stroke-linecap:round;stroke-miterlimit:10;" d="M537.272,278.923
		c0,0,23.116-43.866,58.181-57.892c0,0,11.688-11.688,32.727-12.857c21.039-1.169,48.359-24.479,48.359-24.479"/>
	<path style="fill:none;stroke:#000000;stroke-width:1.1688;stroke-linecap:round;stroke-miterlimit:10;" d="M595.453,221.032
		c0,0-26.883,15.195-21.039,39.74c5.844,24.545,28.799,14.533,30.179,3.76"/>
	<path style="fill:none;stroke:#000000;stroke-width:1.1688;stroke-linecap:round;stroke-miterlimit:10;" d="M614.306,242.304
		v-0.012c0.701-3.086,0.783-5.716,0.456-7.971c-1.356-9.514-9.958-12.121-9.958-12.121c0,3.997-0.97,7.843-2.478,11.396
		c-20.396,1.274-18.315,18.993-16.223,18.993c1.765,0,11.548-8.018,16.223-18.993"/>
	<path style="fill:none;stroke:#000000;stroke-width:1.1688;stroke-linecap:round;stroke-miterlimit:10;" d="M614.762,234.321
		c2.642,0.234,5.143,0.362,7.516,0.421c20.676,0.503,30.939-5.038,31.535-5.377c0.012-0.012,0.023-0.012,0.023-0.012"/>
	<path style="fill:none;stroke:#000000;stroke-width:1.1688;stroke-linecap:round;stroke-miterlimit:10;" d="M677.96,198.742
		c-0.094-0.035-0.175-0.058-0.269-0.094"/>
	<path style="fill:none;stroke:#000000;stroke-width:1.1688;stroke-linecap:round;stroke-miterlimit:10;" d="M661.082,194.979
		c-1.578-0.152-3.097-0.234-4.558-0.257c-6.803-0.105-12.483,1.04-17.1,2.712c-10.882,3.939-15.919,10.741-15.919,10.741"/>
	<path style="fill:none;stroke:#000000;stroke-width:1.1688;stroke-linecap:round;stroke-miterlimit:10;" d="M639.419,197.442
		c0,0,2.787-14.981,17.981-23.163c15.195-8.182,20.132-17.031,20.132-17.031"/>
	<path style="fill:none;stroke:#000000;stroke-width:1.1688;stroke-linecap:round;stroke-miterlimit:10;" d="M678.858,173.001
		c0,0-23.204,8.267-22.331,21.721"/>
	<path style="fill:none;stroke:#000000;stroke-width:1.1688;stroke-linecap:round;stroke-miterlimit:10;" d="M549.248,273.616"/>
	<g>
		<path d="M753.732,348.42c1.219,7.001-0.949,14.378-5.382,19.914c-4.39,5.606-10.953,9.451-18.037,10.75
			c-7.074,1.294-14.705,0.088-20.969-3.749c-3.113-1.92-5.885-4.453-7.992-7.49c-2.104-3.035-3.539-6.548-4.143-10.203
			c-0.594-3.657-0.346-7.445,0.683-10.991c1.026-3.552,2.855-6.834,5.195-9.645c4.717-5.634,11.574-9.201,18.693-10.222
			c7.132-1.019,14.578,0.541,20.521,4.463C748.263,335.089,752.663,341.395,753.732,348.42z M753.732,348.42
			c-0.577-3.488-1.946-6.835-3.955-9.732c-2.011-2.901-4.667-5.323-7.652-7.162c-6.01-3.676-13.347-4.832-20.156-3.581
			c-6.821,1.258-13.117,4.965-17.318,10.335c-4.241,5.31-6.294,12.327-5.137,18.988c1.019,6.682,5.194,12.688,10.904,16.374
			c5.689,3.762,12.841,5.271,19.708,4.296c6.855-0.98,13.446-4.409,17.973-9.807c2.246-2.694,3.994-5.834,4.977-9.224
			C754.06,355.518,754.294,351.91,753.732,348.42z"/>
	</g>
	<ellipse transform="matrix(0.9869 -0.161 0.161 0.9869 -47.0124 121.7242)" cx="727.419" cy="350.885" rx="22.234" ry="21.235"/>
	
		<ellipse transform="matrix(0.9926 -0.1211 0.1211 0.9926 -36.3299 91.0099)" style="fill:#FFFFFF;" cx="730.452" cy="344.343" rx="7.597" ry="1.753"/>
	<g>
		<path d="M885.321,304.018c0.003,0.943-0.103,1.891-0.384,2.806c-0.146,0.455-0.321,0.912-0.616,1.322
			c-0.28,0.405-0.733,0.789-1.337,0.838c-0.605,0.028-1.147-0.31-1.503-0.699c-0.369-0.393-0.643-0.844-0.845-1.314
			c-0.406-0.944-0.557-1.952-0.574-2.952c0.016-1,0.165-2.009,0.572-2.953c0.199-0.472,0.475-0.922,0.844-1.316
			c0.356-0.389,0.899-0.728,1.506-0.7c0.605,0.05,1.058,0.434,1.339,0.84c0.295,0.41,0.471,0.868,0.615,1.323
			C885.218,302.127,885.323,303.076,885.321,304.018z M885.321,304.018c-0.017-0.941-0.161-1.892-0.537-2.749
			c-0.184-0.427-0.437-0.825-0.745-1.142c-0.303-0.324-0.7-0.522-1.056-0.49c-0.729,0.094-1.168,0.983-1.405,1.779
			c-0.25,0.828-0.352,1.718-0.349,2.602c-0.003,0.884,0.096,1.775,0.347,2.603c0.234,0.798,0.676,1.687,1.407,1.781
			c0.357,0.032,0.754-0.167,1.057-0.491c0.307-0.318,0.561-0.716,0.744-1.143C885.16,305.91,885.304,304.959,885.321,304.018z"/>
	</g>
	<g>
		<path d="M872.464,325.057c0.003,0.943-0.103,1.891-0.384,2.806c-0.146,0.455-0.321,0.912-0.616,1.322
			c-0.28,0.405-0.733,0.789-1.337,0.838c-0.605,0.028-1.147-0.31-1.503-0.699c-0.369-0.393-0.643-0.844-0.845-1.314
			c-0.406-0.944-0.557-1.952-0.574-2.952c0.016-1,0.165-2.009,0.572-2.953c0.199-0.472,0.475-0.922,0.844-1.316
			c0.356-0.389,0.899-0.728,1.505-0.7c0.606,0.05,1.058,0.434,1.339,0.84c0.295,0.41,0.471,0.868,0.615,1.323
			C872.361,323.166,872.466,324.115,872.464,325.057z M872.464,325.057c-0.017-0.941-0.161-1.892-0.537-2.749
			c-0.184-0.427-0.437-0.825-0.745-1.142c-0.303-0.324-0.7-0.522-1.056-0.49c-0.729,0.094-1.168,0.983-1.405,1.779
			c-0.25,0.828-0.352,1.718-0.349,2.602c-0.003,0.884,0.096,1.775,0.347,2.603c0.234,0.798,0.676,1.687,1.407,1.781
			c0.357,0.032,0.754-0.167,1.057-0.491c0.307-0.318,0.561-0.716,0.744-1.143C872.303,326.949,872.447,325.998,872.464,325.057z"/>
	</g>
	<path style="fill:none;stroke:#000000;stroke-width:1.1688;stroke-linecap:round;stroke-miterlimit:10;" d="M815.191,389.342
		c0,0,11.688,12.857,35.065,25.714c23.376,12.857,29.221,15.195,21.039,28.052c0,0,3.506,3.506,0,10.519
		c0,0,3.506,4.675,1.169,10.519c0,0,5.844,9.351-4.675,14.026c-10.519,4.675-47.302-5.275-52.287-15.495"/>
	<path style="fill:none;stroke:#000000;stroke-width:1.1688;stroke-linecap:round;stroke-miterlimit:10;" d="M848.738,478.17
		c0,0-26.534,9.354-27.703,16.367s19.87,22.208,32.727,26.883s14.026,14.026,9.351,18.701c0,0,4.675,10.519-11.688,11.688
		s-34.336-10.923-34.336-10.923"/>
	<g>
		<path d="M818.524,531.226c3.297,2.003,6.82,3.738,10.401,5.254c3.591,1.513,7.29,2.776,11.073,3.721
			c3.784,0.936,7.662,1.523,11.567,1.602c1.952,0.018,3.904-0.09,5.843-0.343c1.933-0.288,3.842-0.732,5.706-1.339
			c-1.847,0.653-3.749,1.146-5.684,1.484c-1.94,0.302-3.9,0.46-5.866,0.491c-3.933,0.019-7.858-0.476-11.699-1.325
			c-3.84-0.858-7.606-2.04-11.27-3.478c-3.666-1.448-7.234-3.092-10.684-5.071c-0.28-0.161-0.377-0.518-0.216-0.798
			c0.161-0.28,0.518-0.377,0.798-0.216c0.003,0.002,0.007,0.004,0.01,0.006L818.524,531.226z"/>
	</g>
	<g>
		<path d="M819.059,523.107c2.49,2.095,5.297,3.932,8.193,5.52c2.911,1.583,5.974,2.89,9.134,3.901
			c1.571,0.543,3.194,0.898,4.81,1.287c0.813,0.166,1.638,0.275,2.457,0.416l1.232,0.197l1.243,0.099
			c3.315,0.394,6.659,0.128,9.972-0.249c-3.297,0.473-6.649,0.839-9.994,0.541l-1.256-0.063l-1.246-0.162
			c-0.829-0.117-1.665-0.203-2.491-0.347c-1.641-0.344-3.293-0.656-4.897-1.158c-3.226-0.929-6.37-2.163-9.372-3.684
			c-3.001-1.537-5.868-3.285-8.552-5.413c-0.253-0.201-0.295-0.568-0.095-0.821c0.201-0.253,0.568-0.295,0.821-0.095
			c0.004,0.003,0.008,0.006,0.011,0.009L819.059,523.107z"/>
	</g>
	<g>
		<path d="M804.717,419.802c5.163,2.907,10.455,5.632,15.799,8.224c5.349,2.586,10.774,5.019,16.291,7.226
			c5.517,2.202,11.129,4.187,16.874,5.71c2.874,0.749,5.78,1.385,8.722,1.806c2.939,0.419,5.926,0.615,8.892,0.341
			c-2.961,0.323-5.959,0.176-8.911-0.196c-2.956-0.374-5.881-0.964-8.775-1.668c-5.785-1.433-11.446-3.331-17.014-5.448
			c-5.568-2.122-11.048-4.472-16.454-6.978c-5.405-2.513-10.743-5.151-15.997-7.997c-0.284-0.154-0.389-0.508-0.235-0.792
			s0.508-0.389,0.792-0.235c0.002,0.001,0.004,0.002,0.006,0.003L804.717,419.802z"/>
	</g>
	<g>
		<path d="M809.399,431.311c4.562,3.226,9.34,6.208,14.208,8.993c4.874,2.784,9.883,5.334,15.032,7.569
			c5.154,2.216,10.464,4.108,15.948,5.323c5.465,1.165,11.196,1.705,16.708,0.431c-5.489,1.371-11.258,0.931-16.767-0.145
			c-5.53-1.125-10.899-2.934-16.115-5.071c-5.212-2.156-10.288-4.631-15.233-7.343c-4.945-2.718-9.777-5.616-14.459-8.807
			c-0.267-0.182-0.336-0.545-0.154-0.812c0.182-0.267,0.545-0.336,0.812-0.154c0.002,0.001,0.004,0.003,0.006,0.004L809.399,431.311
			z"/>
	</g>
	<g>
		<path d="M813.148,445.684c4.074,3.353,8.571,6.291,13.209,8.888c4.656,2.583,9.516,4.819,14.564,6.536
			c2.518,0.872,5.083,1.615,7.686,2.197c2.597,0.605,5.232,1.053,7.887,1.32c5.306,0.59,10.695,0.405,15.97-0.479
			c-5.258,0.98-10.658,1.265-15.998,0.769c-2.672-0.219-5.33-0.622-7.953-1.183c-2.629-0.538-5.224-1.239-7.776-2.071
			c-5.115-1.637-10.055-3.801-14.799-6.321c-4.738-2.545-9.294-5.395-13.545-8.767c-0.253-0.201-0.295-0.568-0.095-0.821
			c0.201-0.253,0.568-0.295,0.821-0.095c0.002,0.002,0.004,0.003,0.006,0.005L813.148,445.684z"/>
	</g>
	<path style="fill:none;stroke:#000000;stroke-width:1.1688;stroke-linecap:round;stroke-miterlimit:10;" d="M773.114,653.052
		c12.904-6.347,27.234-15.604,29.221-33.452c0.888-8.042-0.678-14.353-3.53-19.309c-8.31-14.493-27.467-17.299-27.467-17.299"/>
	<path style="fill:none;stroke:#000000;stroke-width:1.1688;stroke-linecap:round;stroke-miterlimit:10;" d="M697.716,594.38
		c0,0-26.29,118.727,115.138,105.869"/>
	<path style="fill:none;stroke:#000000;stroke-width:1.1688;stroke-linecap:round;stroke-miterlimit:10;" d="M609.958,552.814
		c-11.852-11.454-1.847-26.602,11.209-40.745c0.713-0.783,1.426-1.578,2.104-2.384c3.46-4.068,6.522-8.486,9.14-12.764
		c7.071-11.513,11.01-22.009,11.01-22.009"/>
	<path style="fill:none;stroke:#000000;stroke-width:1.1688;stroke-linecap:round;stroke-miterlimit:10;" d="M623.271,509.684
		c25.118,17.263,26.345,44.965,16.878,66.354c-1.11,2.536-2.384,4.991-3.787,7.328c-14.026,23.376-35.065,9.351-35.065,9.351
		c-10.519,29.221,29.221,32.727,52.597,18.701c19.847-11.91,17.789-28.017,16.714-32.622c-0.187-0.818-0.351-1.274-0.351-1.274
		c8.182-49.091-37.846-80.602-37.846-80.602"/>
	<path style="fill:none;stroke:#000000;stroke-width:1.1688;stroke-linecap:round;stroke-miterlimit:10;" d="M640.148,576.038
		c-5.178-7.258-17.754-15.627-30.191-23.224c-4.594-2.805-9.164-5.517-13.336-8.018c-17.532-10.519-7.013-29.221-7.013-29.221
		c-5.844-5.844-2.338-17.532-2.338-17.532c-2.747-4.582-3.343-9.164-3.471-10.928c-0.035-0.491-0.035-0.76-0.035-0.76
		c-17.532-24.545,21.039-71.298,21.039-71.298"/>
	<path style="fill:none;stroke:#000000;stroke-width:1.1688;stroke-linecap:round;stroke-miterlimit:10;" d="M633.387,456.913
		c0,0-18.064,24.766-28.584,38.792s-15.195,19.87-15.195,19.87"/>
	<path style="fill:none;stroke:#000000;stroke-width:1.1688;stroke-linecap:round;stroke-miterlimit:10;" d="M626.156,441.994
		c0,0-12.002,16.309-20.184,27.997c-8.182,11.688-18.701,28.052-18.701,28.052"/>
	<path style="fill:none;stroke:#000000;stroke-width:1.1688;stroke-linecap:round;stroke-miterlimit:10;" d="M620.362,428.352
		c0,0-36.526,45.487-36.562,58.758"/>
	<path style="fill:none;stroke:#000000;stroke-width:1.1688;stroke-linecap:round;stroke-miterlimit:10;" d="M601.297,592.717
		c1.169,12.857,24.545,22.208,40.909,14.026c13.944-6.978,25.34-23.283,28.402-27.947"/>
	<path style="fill:none;stroke:#000000;stroke-width:1.1688;stroke-linecap:round;stroke-miterlimit:10;" d="M528.725,345.792
		c2.875,11.022,10.882,19.508,17.31,29.969c0,0,0.012,0.012,0.023,0.035c3.974,6.499,7.34,13.769,8.486,22.897
		c3.506,28.052-15.195,29.221-15.195,29.221s11.688-16.363-8.182-47.922c-19.87-31.558-15.978-56.372-15.978-56.372"/>
	<path style="fill:none;stroke:#000000;stroke-width:1.1688;stroke-linecap:round;stroke-miterlimit:10;" d="M589.609,436.095
		c-3.331-8.871-13.301-22.897-22.874-35.205"/>
	<path style="fill:none;stroke:#000000;stroke-width:1.1688;stroke-linecap:round;stroke-miterlimit:10;" d="M560.458,392.977
		c-7.691-9.526-13.944-16.667-14.4-17.182c-0.012-0.023-0.023-0.035-0.023-0.035"/>
	<path style="fill:none;stroke:#000000;stroke-width:1.1688;stroke-linecap:round;stroke-miterlimit:10;" d="M579.194,365.452
		c1.929,17.123,18.234,41.049,25.013,50.353"/>
	<path style="fill:none;stroke:#000000;stroke-width:1.1688;stroke-linecap:round;stroke-miterlimit:10;" d="M602.127,418.504
		c-17.544-6.475-31.219-33.837-31.219-33.837c0.538,9.152-1.648,13.839-4.173,16.223c-2.945,2.817-6.347,2.478-6.347,2.478
		c0.327-3.623,0.327-7.095,0.07-10.391c-1.555-20.127-12.343-33.697-12.343-33.697"/>
	<path style="fill:none;stroke:#000000;stroke-width:1.1688;stroke-linecap:round;stroke-miterlimit:10;" d="M586.09,605.797
		c3.834-29.443-0.69-52.188-8.754-71.018v-0.012c-2.723-6.393-5.867-12.343-9.222-17.953c-4.991-8.334-10.473-15.919-15.802-23.119
		c0-0.012,0-0.012,0-0.012c-9.444-12.74-18.421-24.253-23.482-36.549c-16.188-39.331-0.526-80.509-0.21-81.362
		c0.012-0.012,0.012-0.012,0.012-0.012"/>
	<path style="fill:none;stroke:#000000;stroke-width:1.1688;stroke-linecap:round;stroke-miterlimit:10;" d="M568.115,516.819
		c0,0-22.921,25.639,0.455,61.872c23.376,36.234,49.091,67.792,21.039,102.856c0,0-11.688-23.376-36.234-44.415
		c-24.545-21.039-26.883-59.61-23.376-87.662c3.506-28.052,22.31-55.786,22.31-55.786"/>
	<path style="fill:none;stroke:#000000;stroke-width:1.1688;stroke-linecap:round;stroke-miterlimit:10;" d="M528.864,562.894
		c0,0,6.979,21.641,39.706,56.706c32.727,35.065,21.039,61.948,21.039,61.948"/>
	<path style="fill:none;stroke:#000000;stroke-width:1.1688;stroke-linecap:round;stroke-miterlimit:10;" d="M537.265,615.166
		c0,0-35.318,45.343-24.799,76.902c10.519,31.558,52.597,32.727,61.948,10.519c0,0-16.364,10.519-30.389-2.338
		s-4.817-29.511,26.228-46.313"/>
	<path style="fill:none;stroke:#000000;stroke-width:1.1688;stroke-linecap:round;stroke-miterlimit:10;" d="M620.372,559.406
		c2.408,14.68-0.842,27.386-5.727,37.461"/>
	<path style="fill:none;stroke:#000000;stroke-width:1.1688;stroke-linecap:round;stroke-miterlimit:10;" d="M594.985,622.219
		c0,0,4.196-3.296,9.222-9.316"/>
	<path style="fill:none;stroke:#000000;stroke-width:1.1688;stroke-linecap:round;stroke-miterlimit:10;" d="M565.287,573.112
		c0,0,12.64-17.99,12.052-38.348"/>
	<path style="fill:none;stroke:#000000;stroke-width:1.1688;stroke-linecap:round;stroke-miterlimit:10;" d="M676.651,764.359
		c-39.366-19.461-57.097-45.268-63.981-69.732c-11.127-39.565,6.136-75.623,6.136-75.623"/>
	<path style="fill:none;stroke:#000000;stroke-width:1.1688;stroke-linecap:round;stroke-miterlimit:10;" d="M677.294,777.041
		c-13.056-4.477-23.505-10.087-31.85-16.27c0-0.012,0-0.012,0-0.012c-23.961-17.754-30.635-40.208-32.365-53.859
		c-0.947-7.445-0.409-12.273-0.409-12.273"/>
	<path style="fill:none;stroke:#000000;stroke-width:1.1688;stroke-linecap:round;stroke-miterlimit:10;" d="M677.072,757.054
		c-0.117-0.655-0.444-1.262-0.947-1.718c-7.632-6.908-50.668-48.623-45.268-105.428c0-0.012,0-0.012,0-0.012"/>
	<path style="fill:none;stroke:#000000;stroke-width:1.1688;stroke-linecap:round;stroke-miterlimit:10;" d="M739.218,803.105
		c0,0,0,0-0.012,0.012c-0.468,0.877-19.157,34.854-54.923,19.858c-35.836-15.031-38.782-61.188-38.84-62.205
		c0-0.012,0-0.012,0-0.012"/>
	<path style="fill:none;stroke:#000000;stroke-width:1.1688;stroke-linecap:round;stroke-miterlimit:10;" d="M754.319,724.175
		c-5.201,0.023-10.204-0.152-15.008-0.526c-10.777-0.818-20.583-2.56-29.501-5.038c-0.199-0.058-0.397-0.117-0.596-0.164
		c-0.655-0.187-1.309-0.386-1.952-0.573c-43.796-13.102-65.699-44.053-76.406-67.967c0-0.012,0-0.012,0-0.012
		c-6.768-15.136-9.058-27.444-9.561-30.647"/>
	<path style="fill:none;stroke:#000000;stroke-width:1.1688;stroke-linecap:round;stroke-miterlimit:10;" d="M665.471,601.359
		c0,0,8.402,21.683,24.127,30.482"/>
	<path style="fill:none;stroke:#000000;stroke-width:1.1688;stroke-linecap:round;stroke-miterlimit:10;" d="M709.214,718.448
		c0,0-0.327,1.484-1.496,4.348c0,0-0.012,0,0,0.012c-2.209,5.365-7.352,15.58-18.76,30.039c-3.086,3.916-5.996,8.556-8.252,13.441
		c-1.519,3.273-2.735,6.662-3.53,10.017v0.012"/>
	<path style="fill:none;stroke:#000000;stroke-width:1.1688;stroke-linecap:round;stroke-miterlimit:10;" d="M739.311,723.649
		c6.709,26.018,22.161,20.373,39.646,28.028c18.701,8.182,4.675,28.052,4.675,28.052c2.338,10.519-37.402,28.052-60.779-14.026
		c-9.806-17.638-13.804-32.072-15.136-42.884c-0.012-0.012,0-0.023,0-0.023"/>
	<path style="fill:none;stroke:#000000;stroke-width:1.1688;stroke-linecap:round;stroke-miterlimit:10;" d="M709.81,718.611
		c3.553,24.393,17.86,64.881,73.823,59.949"/>
	<path style="fill:none;stroke:#000000;stroke-width:1.1688;stroke-linecap:round;stroke-miterlimit:10;" d="M684.657,708.688
		c-5.119,18.339-7.001,39.717-7.586,48.354v0.012c-0.175,2.478-0.234,3.904-0.234,3.904c-0.082,1.099-0.152,2.361-0.187,3.401
		c-0.152,4.395,0.047,8.369,0.526,11.945v0.012c0.035,0.245,0.07,0.479,0.117,0.725c3.308,22.196,18.199,28.917,32.552,29.98
		c0.012,0,0.012,0,0.012,0c14.564,1.087,28.554-3.635,29.326-3.904c0.012-0.012,0.012-0.012,0.023,0"/>
	<path style="fill:none;stroke:#000000;stroke-width:1.1688;stroke-linecap:round;stroke-miterlimit:10;" d="M629.879,410.891
		c0,0,18.17,60.269,66.092,96.502c47.922,36.234,76.909,90.81,46.636,161.703"/>
	<path style="fill:none;stroke:#000000;stroke-width:1.1688;stroke-linecap:round;stroke-miterlimit:10;" d="M640.148,618.022
		c0,0,7.854,44.871,61.655,70.877"/>
	<path style="fill:none;stroke:#000000;stroke-width:1.1688;stroke-linecap:round;stroke-miterlimit:10;" d="M651.052,344.343
		c0,0,13.362,69.545,60.115,120.973c46.753,51.428,52.597,59.61,53.766,95.843"/>
	<path style="fill:none;stroke:#000000;stroke-width:1.1688;stroke-linecap:round;stroke-miterlimit:10;" d="M599.89,347.62
		c0,0,0,0-0.01-0.01c-0.99-0.35-68.64-24.98-59.36-37.75c8.64-11.87,53.85-17.54,60.69-18.33"/>
	<path style="fill:none;stroke:#000000;stroke-width:1.1688;stroke-linecap:round;stroke-miterlimit:10;" d="M228.442,665.184
		c-12.857,3.506-25.714-9.351-25.714-9.351c5.54,0,10.005-2.677,12.319-4.406c1.029-0.771,1.777-1.847,2.092-3.097
		c5.19-20.326,21.892-28.718,28.473-31.301c1.8-0.701,3.39-1.929,4.395-3.588c6.253-10.251,12.495-19.449,18.689-27.713
		c69.802-93.179,133.339-65.828,149.703-56.372"/>
	<path style="fill:none;stroke:#000000;stroke-width:1.1688;stroke-linecap:round;stroke-miterlimit:10;" d="M248.008,764.791
		h-0.012c-5.493-3.612-10.297-7.808-13.547-11.221c-7.586-7.96-13.29-17.731-16.352-28.274c-1.426-4.897-2.279-9.947-2.49-15.066
		c-0.386-9.374,1.578-18.678,4.792-27.456c3.378-9.199,8.17-17.766,13.067-26.228c4.921-8.497,10.075-16.854,15.487-25.036
		c4.196-6.347,8.556-12.588,13.102-18.678c0.234-0.316,0.468-0.631,0.701-0.947c5.131-6.791,10.519-13.395,16.188-19.753
		c16.293-18.269,35.275-34.515,57.097-45.818c14.003-7.258,29.197-12.471,44.883-14.435c7.516-0.935,15.358-1.309,22.874-0.14
		c0.199,0.035,5.505,1.344,10.59,2.595"/>
	<path style="fill:none;stroke:#000000;stroke-width:1.1688;stroke-linecap:round;stroke-miterlimit:10;" d="M237.618,732.929
		c-14.54-49.207,9.643-77.61,9.643-77.61c63.116-109.694,137.804-117.174,163.577-116.134"/>
	<path style="fill:none;stroke:#000000;stroke-width:1.1688;stroke-linecap:round;stroke-miterlimit:10;" d="M241.825,744.992
		c2.431,6.055,5.447,12.39,9.152,18.97c0.725,1.297,1.473,2.606,2.256,3.927c0.117,0.199,0.234,0.397,0.351,0.596
		c4.944,8.252,10.952,16.89,18.199,25.901"/>
	<path style="fill:none;stroke:#000000;stroke-width:1.1688;stroke-linecap:round;stroke-miterlimit:10;" d="M250.977,763.962
		c-1.005,0.257-1.999,0.538-2.969,0.83h-0.012c-50.481,15.008-61.632,65.197-61.632,65.197
		c-12.775-35.789-2.104-63.736,10.204-81.712c10.204-14.914,21.53-22.979,21.53-22.979"/>
	<path style="fill:none;stroke:#000000;stroke-width:1.1688;stroke-linecap:round;stroke-miterlimit:10;" d="M215.585,703.756
		c0,0-21.662,14.229-19.013,44.517"/>
	<path style="fill:none;stroke:#000000;stroke-width:1.1688;stroke-linecap:round;stroke-miterlimit:10;" d="M253.584,768.485
		c-12.144,16.761-25.808,32.879-25.141,47.478c0.806,17.684,11.56,38.688,18.187,50.072"/>
	<path style="fill:none;stroke:#000000;stroke-width:1.1688;stroke-linecap:round;stroke-miterlimit:10;" d="M392.791,570.977
		c-1.449,1.052-2.934,2.162-4.465,3.343c-0.035,0.023-0.058,0.035-0.094,0.07c-0.047,0.023-0.082,0.058-0.129,0.082
		c-2.466,1.952-5.038,4.056-7.667,6.358c-0.012,0-0.012,0.012-0.012,0.012c-9.97,8.766-20.758,20.349-30.424,35.252
		C329.195,648.178,291.652,724,259.825,741.918c-6.277,3.542-12.331,4.816-18,3.074c-4.325-1.344-8.416-4.453-12.214-9.678
		c0,0,3.074-0.456,8.006-2.384c5.587-2.186,13.582-6.277,22.208-13.769c11.162-9.678,23.388-25.036,32.902-49.301
		c19.438-49.546,71.17-112.838,111.576-120.693"/>
	<path style="fill:none;stroke:#000000;stroke-width:1.1688;stroke-linecap:round;stroke-miterlimit:10;" d="M385.474,608.38
		c-6.51,7.796-13.067,19.473-17.941,36.935c-2.268,8.123-5.552,17.789-9.631,28.005c-3.6,8.988-7.808,18.409-12.483,27.596
		c-3.869,7.597-8.065,15.031-12.495,21.95c-5.61,8.755-11.606,16.667-17.825,22.979c-12.179,12.366-25.211,18.561-37.788,12.857
		c-0.012,0-0.012-0.012-0.012-0.012c-5.776-2.622-11.454-7.748-16.917-15.927c-0.132-0.197,0.086-0.451,0.292-0.334
		c5.213,2.931,33.471,15.876,57.768-31.66c24.358-47.653,37.753-105.369,61.983-129.926c0,0,0-0.012,0.012-0.012
		c2.443-2.478,4.979-4.605,7.667-6.358c0.047-0.023,0.082-0.058,0.129-0.082c0.035-0.035,0.058-0.047,0.094-0.07"/>
	<path style="fill:none;stroke:#000000;stroke-width:1.1688;stroke-linecap:round;stroke-miterlimit:10;" d="M259.825,719.161
		c0,0-13.851-42.288,22.383-90.21c33.522-44.333,77.037-84.658,125.929-85.815"/>
	<path style="fill:none;stroke:#000000;stroke-width:1.1688;stroke-linecap:round;stroke-miterlimit:10;" d="M385.37,610.47
		c0,0,0,0.01,0,0.03c-3.54,12.42-15.27,59.99,0.86,93.26c18.7,38.57,0,49.09,0,49.09s-5.84,19.87-12.85,31.55c0,0,0,4.53-0.76,10.15
		c-0.83,6.09-2.55,13.46-6.14,17.77"/>
	<path style="fill:none;stroke:#000000;stroke-width:1.1688;stroke-linecap:round;stroke-miterlimit:10;" d="M315.099,745.845
		c0.152,1.578,0.409,3.904,0.877,6.756c0.865,5.236,2.419,12.273,5.225,19.87c2.571,6.978,6.195,14.423,11.279,21.389
		c1.438,1.964,2.992,3.88,4.664,5.739c2.793,3.097,5.271,6.382,7.469,9.748c2.536,3.857,4.699,7.819,6.557,11.747c0,0,0,0,0,0.012
		c2.852,6.019,4.967,11.934,6.51,17.158c3.191,10.753,4.009,18.608,4.009,18.608c10.099-12.857,12.273-23.552,4.792-44.556
		c-2.045-5.727-4.792-12.226-8.299-19.73c-16.364-35.065-25.258-69.72-25.258-69.72"/>
	<path style="fill:none;stroke:#000000;stroke-width:1.1688;stroke-linecap:round;stroke-miterlimit:10;" d="M321.2,772.471
		c-6.405,6.487-13.336,15.276-18.292,26.357c-6.779,15.089-9.912,34.434-3.168,58.044c1.975,6.908,4.43,13.161,7.247,18.795
		c0.351,0.701,0.713,1.403,1.075,2.081c0.047,0.105,0.105,0.199,0.164,0.304c0,0,0,0,0,0.012
		c24.37,45.491,73.005,48.319,79.176,26.731c0.257-0.888,0.456-1.742,0.608-2.56c0-0.035,0-0.047,0-0.047
		c4.044-21.775-26.322-19.601-26.322-19.601c14.786,10.239-3.635,14.938-25.106-12.834c-0.222-0.281-0.432-0.561-0.655-0.842
		c-0.374-0.503-0.748-1.005-1.122-1.519c-21.986-30.085-2.712-72.677-2.326-73.531c0.012-0.012,0.012-0.012,0.012-0.012"/>
	<path style="fill:none;stroke:#000000;stroke-width:1.1688;stroke-linecap:round;stroke-miterlimit:10;" d="M308.23,878.052
		c0,0-3.814,43.105,37.095,57.13s42.688-32.991,42.688-32.991"/>
	<path style="fill:none;stroke:#000000;stroke-width:1.1688;stroke-linecap:round;stroke-miterlimit:10;" d="M357.679,838.264
		c0,0,0.503,8.088-13.523,19.776c-3.845,3.191-6.195,7.364-7.574,11.712"/>
	<path style="fill:none;stroke:#000000;stroke-width:1.1688;stroke-linecap:round;stroke-miterlimit:10;" d="M344.611,809.342
		c0,0-14.481,42.854-9.806,58.049"/>
	<path style="fill:none;stroke:#000000;stroke-width:1.1688;stroke-linecap:round;stroke-miterlimit:10;" d="M351.17,821.094
		c0,0-3.591,27.118-15.237,47.811"/>
	<path style="fill:none;stroke:#000000;stroke-width:1.1688;stroke-linecap:round;stroke-miterlimit:10;" d="M287.398,782.137
		c-1.917-13.757-9.678-22.956-10.087-23.435c-0.012,0-0.012-0.012-0.012-0.012"/>
	<path style="fill:none;stroke:#000000;stroke-width:1.1688;stroke-linecap:round;stroke-miterlimit:10;" d="M302.908,798.828
		c-9.935,11.303-20.454,17.334-30.237,20.279c-21.588,6.51-39.553-1.975-39.553-1.975c14.879-6.966,27.771-14.891,38.665-22.745
		c5.762-4.149,10.975-8.287,15.615-12.249c18.993-16.212,28.578-29.536,28.578-29.536"/>
	<path style="fill:none;stroke:#000000;stroke-width:1.1688;stroke-linecap:round;stroke-miterlimit:10;" d="M272.671,819.101
		c0,0-13.84,13.225-36.047,13.225c0,0,29.221,31.558,59.61-8.182"/>
	<path style="fill:none;stroke:#000000;stroke-width:1.1688;stroke-linecap:round;stroke-miterlimit:10;" d="M357.896,673.318
		c0,0-3.22,24.593,9.637,42.125c12.857,17.532,18.701,37.402,18.701,37.402"/>
	<path style="fill:none;stroke:#000000;stroke-width:1.1688;stroke-linecap:round;stroke-miterlimit:10;" d="M345.413,700.918
		c0,0,6.924,34.396,18.613,51.928c11.688,17.532,9.351,31.558,9.351,31.558"/>
	<path style="fill:none;stroke:#000000;stroke-width:1.1688;stroke-linecap:round;stroke-miterlimit:10;" d="M232.685,921.005
		c-9.351-15.534-14.996-44.146,13.944-54.97c0.912-0.351,1.87-0.678,2.852-0.982c33.896-10.519,46.753-26.789,46.753-26.789"/>
	<path style="fill:none;stroke:#000000;stroke-width:1.1688;stroke-linecap:round;stroke-miterlimit:10;" d="M308.063,877.746
		c-19.449,94.079-56.641,84.716-66.763,94.838c-10.519,10.519,5.844,44.415,5.844,44.415s-45.584-9.351-44.415-53.766
		c0.584-22.208,13.745-34.492,29.957-42.23c16.223-7.738,35.497-10.952,48.354-15.043c25.714-8.182,25.948-30.296,25.948-30.296"/>
	<path style="fill:none;stroke:#000000;stroke-width:1.1688;stroke-linecap:round;stroke-miterlimit:10;" d="M658.44,800.593
		c0,0,0,0,0,0.012c0,0,0,0,0,0.012c0.164,1.332,7.071,57.892,1.297,97.164c-5.844,39.74-10.519,52.597,14.026,70.129
		c6.417,4.582,14.271,6.931,22.406,7.422"/>
	<path style="fill:none;stroke:#000000;stroke-width:1.1688;stroke-linecap:round;stroke-miterlimit:10;" d="M655.147,932.594"/>
	<path style="fill:none;stroke:#000000;stroke-width:1.1688;stroke-linecap:round;stroke-miterlimit:10;" d="M382.189,933.266
		c-7.247,11.408-11.303,25.165-13.301,33.662c-0.304,1.274-0.281,2.56,0.023,3.752c0.713,2.934,3.051,5.341,6.218,5.973
		c39.284,7.866,62.894,0.549,72.479-3.764c3.191-1.426,5.038-4.769,4.652-8.24c-0.468-4.161-1.426-8.93-2.91-13.851c0,0,0,0,0-0.012
		c-4.956-16.551-15.709-34.772-33.101-36.958C394.836,913.512,382.189,933.266,382.189,933.266z"/>
	<path style="fill:none;" d="M704.738,763.95"/>
	<path style="fill:none;stroke:#000000;stroke-width:1.1688;stroke-linecap:round;stroke-miterlimit:10;" d="M705.322,776.223"/>
	<path style="fill:none;" d="M719.932,735.898"/>
	<path style="fill:none;stroke:#000000;stroke-width:1.1688;stroke-linecap:round;stroke-miterlimit:10;" d="M718.039,807.079
		c-0.047-0.175-0.082-0.351-0.105-0.514c-1.578-8.042-6.055-52.071-8.077-72.502c0-0.012,0-0.023,0-0.035
		c-0.012-0.012-0.012-0.023-0.012-0.023"/>
	<path style="fill:none;stroke:#000000;stroke-width:1.1688;stroke-linecap:round;stroke-miterlimit:10;" d="M720.996,821.596
		c5.949,27.97,15.382,66.074,25.235,80.859c8.462,12.705,10.367,22.582,10.216,29.174"/>
	<path style="fill:none;stroke:#000000;stroke-width:1.1688;stroke-linecap:round;stroke-miterlimit:10;" d="M692.831,965.934
		c9.294-12.58,29.672-35.923,55.765-40.639c2.725-0.493,5.441,0.9,6.581,3.424c3.769,8.348,11.398,27.695,7.423,39.926
		c-0.582,1.79-2.024,3.159-3.809,3.753c-6.891,2.294-27.344,7.481-61.86,3.035C692.389,974.849,690.11,969.617,692.831,965.934z"/>
	<path style="fill:none;stroke:#000000;stroke-width:1.1688;stroke-linecap:round;stroke-miterlimit:10;" d="M747.236,789.489
		c3.53,3.951,5.68,7.644,6.99,10.765"/>
	<path style="fill:none;stroke:#000000;stroke-width:1.1688;stroke-linecap:round;stroke-miterlimit:10;" d="M712.347,758.679
		c5.867,6.51,11.478,12.097,16.41,16.013l0.012,0.012"/>
	<path style="fill:none;stroke:#000000;stroke-width:1.1688;stroke-linecap:round;stroke-miterlimit:10;" d="M736.904,803.83
		c2.338-2.256,4.851-4.325,7.562-6.171c2.291-1.555,5.341-1.391,7.41,0.456c0.701,0.631,1.496,1.344,2.349,2.139
		c7.41,6.931,19.473,19.847,20.676,31.313c0.199,1.87-0.561,3.705-1.952,4.979c-4.64,4.231-17.673,14.575-42.685,23.762"/>
	<path style="fill:none;stroke:#000000;stroke-width:1.1688;stroke-linecap:round;stroke-miterlimit:10;" d="M724.865,819.095
		c-1.145,1.858-2.209,3.74-3.191,5.645"/>
	
		<line style="fill:none;stroke:#000000;stroke-width:1.1688;stroke-linecap:round;stroke-miterlimit:10;" x1="365.545" y1="809.791" x2="365.545" y2="809.779"/>
	<path style="fill:none;stroke:#000000;stroke-width:1.1688;stroke-linecap:round;stroke-miterlimit:10;" d="M544.083,507.873
		c-14.306,2.326-35.859-2.887-60.837-5.155c-27.21-2.478-46.858,5.529-64.694,26.462c-0.047,0.058-0.105,0.117-0.152,0.175
		c-1.344,1.578-2.677,3.238-4.009,4.979c-1.192,1.555-2.373,3.168-3.553,4.851c-0.9,1.274-1.8,2.595-2.7,3.951
		c-1.286,1.94-2.56,3.951-3.834,6.031c-2.525,4.091-5.026,8.486-7.551,13.161c-1.484,2.758-2.793,5.645-3.962,8.649
		c-4.313,11.139-6.522,23.914-7.317,37.402c-0.035,0.701-0.082,1.391-0.105,2.092c0,0,0,0.012,0,0.023
		c-2.045,42.721,9.608,92.15,13.722,120.143c5.049,34.375-16.118,50.376-26.474,63.911"/>
	<path style="fill:none;stroke:#000000;stroke-width:1.1688;stroke-linecap:round;stroke-miterlimit:10;" d="M358.427,840.87v0.012
		c-2.56,13.664-4.909,29.15-6.487,44.24"/>
	<path style="fill:none;stroke:#000000;stroke-width:1.1688;stroke-linecap:round;stroke-miterlimit:10;" d="M350.935,936.784
		c3.88,29.034,17.766,29.957,17.766,29.957"/>
	<path style="fill:none;stroke:#000000;stroke-width:1.1688;stroke-linecap:round;stroke-miterlimit:10;" d="M613.324,708.688
		c0,0-21.495,2.373-45.736,2.805"/>
	<path style="fill:none;stroke:#000000;stroke-width:1.1688;stroke-linecap:round;stroke-miterlimit:10;" d="M434.471,801.142
		c-11.7,29.115-22.628,72.525-0.316,101.314c22.745,29.349,20.618,43.959,15.884,50.762"/>
	<path style="fill:none;stroke:#000000;stroke-width:1.1688;stroke-linecap:round;stroke-miterlimit:10;" d="M457.754,777.263
		c7.445,5.084,13.886,12.506,18.725,19.928c0.012,0.012,0.012,0.012,0.012,0.012c0.468,0.713,0.912,1.426,1.344,2.127
		c2.209,3.588,4.009,7.106,5.365,10.332c1.344,3.214,0.526,6.943-2.139,9.222c-7.27,6.242-24.989,18.175-58.289,22.932"/>
	<path style="fill:none;stroke:#000000;stroke-width:1.1688;stroke-linecap:round;stroke-miterlimit:10;" d="M462.686,766.884
		c16.305,15.335,17.263,26.1,15.148,32.447"/>
	<path style="fill:none;stroke:#000000;stroke-width:1.1688;stroke-linecap:round;stroke-miterlimit:10;" d="M424.805,804.274
		c3.53-0.725,6.732-1.788,9.666-3.132c30.027-13.734,30.67-56.968,48.775-74.01c12.436-11.7,31.488-14.856,44.018-15.592"/>
	<path style="fill:none;stroke:#000000;stroke-width:1.1688;stroke-linecap:round;stroke-miterlimit:10;" d="M250.85,612.08
		c3.5-9.12,55.54-138.24,173.95-89.62"/>
</g>

    <text x="10" y="832" font-size="12" fill="gray" opacity="0.6" font-family="Arial, sans-serif">
      twoja-kolorowanka.pl
    </text>
  
</svg>
