<?xml version="1.0" encoding="utf-8"?>
<!-- Generator: Adobe Illustrator 27.5.0, SVG Export Plug-In . SVG Version: 6.00 Build 0)  -->
<svg xmlns="http://www.w3.org/2000/svg" xmlns:xlink="http://www.w3.org/1999/xlink" viewBox="0 0 3999 3999" width="595" height="842" preserveAspectRatio="xMidYMid meet" data-scaled="true">
<g>
	<path style="fill:#FFFFFF;" d="M0,0h4000v2391.305v59.547v106.68v39.941V4000H0V0z"/>
	<path d="M329.902,556.324c37.316,10.316,183.423,28.613,202.68,44.141c32.219,25.965,41.332,156.969,47.211,199.871
		c106.018,64.318,212.57,127.737,319.656,190.258l403.609,241.16l153.559,92.414c27.887,16.738,71.469,36.957,93.254,59.344
		c21.566,22.16,55.227,91.02,73.695,121.586c69.137,114.43,141.445,227.449,207.539,343.648c25.621-6.063,51.5-11.898,77.555-15.758
		c3.551-66.211-13.293-335.402,2.074-372.016c8.84-21.063,85.512-134.77,102.816-141.59c12.664-4.992,25.383-5.02,37.813,0.809
		c11.215,5.262,22.395,16.176,26.086,28.25c2.289,7.488,2.816,16.039,0.09,23.473c-11.109,30.242-59.66,80.578-79.457,115.031
		c-3,105.41-1.109,218.598,4.02,324.012c34.453-7.402,68.535-16.809,103.234-23.024c13.227-45.063,20.457-91.234,29.352-137.262
		c9.438-48.84,20.238-97.461,30.019-146.246l84.891-409.793l-2.074-0.422c-1.129-0.234-2.254-0.492-3.387-0.723
		c-3.332-0.672-7.398-1.035-10.504-2.422c-5.016-2.234-7.895-6.465-9.52-11.559c-6.652-20.82,7.395-52.074,16.73-70.719
		c10.637-21.246,23.93-42.117,47.738-49.523c15.973-4.969,33.766-5.793,50.281-8.176c23.878-3.505,47.703-7.336,71.477-11.492
		l141.34-25.234c17.691-3.051,35.465-8.285,53.387-9.23c25.617-1.359,51.074,2.023,76.563,4.172l103.902,8.281l277.258,23.098
		c42.152,3.715,84.719,5.754,126.727,10.625c7.008,0.813,15.68,1.566,21.844,5.078c30.508,17.379,51.461,77.152,59.863,108.883
		c2.277,8.601,6.121,19.582,1.355,27.719c-6.614,5.227-15.695,5.719-23.801,7.184l153.011,438.277
		c17.992,52.125,40.242,138.391,65.121,184.289c29.414,16.98,61.789,30.496,92.539,44.949l169.414,79.039
		c25.18,11.789,58.457,22.191,79.895,39.606c4.789,3.891,5.824,7.031,7.141,12.973c7.879,35.535,8.558,75.34,12.301,111.695
		l24.172,242.188c38.82,9.004,69.465,22.254,100.129,48.25c30.117,25.543,42.109,49.902,45.508,89.27
		c-0.039,19.914-0.43,39.898,0.391,59.801c-0.43,31.074-4.961,77.855,1.602,107.024v39.941c-3.828,11.723-9.57,22.965-15.781,33.574
		c-11.797,20.094-27.539,37.195-45.078,52.422c-62.414,54.195-123.027,50.016-198.113,69.73
		c-1.891,24.074-7.578,47.863-14.344,70.992c-32.238,110.141-115.469,214.191-216.16,268.875
		c-87.976,47.781-184.269,72.027-282.719,42.504c-47.609-14.277-93.664-36.914-139.762-55.613
		c-154.59-62.715-253.344-103.27-337.004-258.027c-58.113,10.739-119.195,14.398-177.957,21.73
		c7.848,51.055,11.094,101.48,4.754,152.977c-0.49,4.307-1.031,8.607-1.625,12.898c-0.596,4.294-1.246,8.58-1.949,12.855
		c-0.703,4.279-1.459,8.547-2.27,12.805c-0.807,4.258-1.669,8.505-2.586,12.742c-0.914,4.237-1.882,8.461-2.902,12.672
		c-1.021,4.214-2.094,8.413-3.219,12.598c-1.125,4.188-2.302,8.36-3.531,12.516c-1.229,4.156-2.51,8.296-3.844,12.418
		c-1.333,4.125-2.717,8.233-4.152,12.324c-1.435,4.089-2.921,8.159-4.457,12.211c-1.537,4.055-3.124,8.088-4.762,12.101
		c-1.635,4.013-3.322,8.005-5.059,11.977c-1.737,3.971-3.523,7.921-5.359,11.848c-1.836,3.925-3.72,7.827-5.652,11.707
		c-1.932,3.88-3.913,7.736-5.941,11.566c-2.029,3.831-4.105,7.634-6.23,11.41c-2.123,3.779-4.293,7.53-6.512,11.254
		c-2.216,3.724-4.479,7.421-6.789,11.09c-2.31,3.667-4.666,7.305-7.066,10.914c-2.401,3.609-4.846,7.188-7.336,10.738
		c-2.49,3.547-5.022,7.063-7.598,10.547c-2.578,3.484-5.199,6.937-7.863,10.356c-2.664,3.419-5.37,6.806-8.117,10.16
		c-2.747,3.351-5.536,6.668-8.367,9.949c-2.831,3.284-5.702,6.531-8.613,9.742c-2.911,3.211-5.863,6.384-8.855,9.52
		c-2.99,3.138-6.018,6.238-9.086,9.301c-3.068,3.06-6.175,6.082-9.32,9.066c-3.143,2.984-6.323,5.928-9.539,8.832
		c-3.216,2.906-6.469,5.771-9.758,8.594c-3.289,2.823-6.612,5.605-9.969,8.348c-3.359,2.74-6.751,5.438-10.176,8.094
		c-88.891,68.817-200.203,102.57-312.191,88.066c-110.863-14.359-239.848-65.785-322.07-142.527
		c-30.379-28.352-55.039-63.66-80.426-96.473c-49.953,10.285-200.301,33.27-245.719,26.215c-9.934-1.543-17.898-5.961-26.52-10.934
		c-24.883-14.348-48.219-32.105-71.734-48.613c-36.659-25.825-73.468-51.435-110.426-76.828
		c-47.935-32.693-95.616-65.75-143.043-99.172c-21.699-15.148-45.684-29.105-65.93-45.977c-6.043-5.035-10.219-10.742-12-18.516
		c-2.086-9.113-1.023-19.953,4.227-27.84c14.953-22.473,128.008-40.227,157.641-46.648c5.969-47.141,18.141-94.422,28.871-140.711
		c10.504-45.316,20.004-91.59,34.621-135.773c-8.91-13.195-19.469-25.156-28.918-37.957l-66.93-92.223l-245.707-340.918
		c-109.932-153.13-218.565-307.172-325.898-462.125c-17.793-25.637-34.098-52.254-51.945-77.809
		c-47.609,18.34-93.922,40.484-139.34,63.66c-24.285,12.391-48.393,28.293-73.997,37.649c-19.184,7.012-36.101,5.82-54.502-2.867
		c-26.873-12.684-52.723-30.301-78.608-45.043c-31.759-18.09-78.686-38.531-105.168-62.488
		c-13.778-12.465-23.5-28.289-29.443-45.805c-6.94-20.453-9.58-42.414-4.489-63.578c13.982-58.109,38.093-117.625,55.549-175.43
		l73.161-249.391c27.469-90.594,57.243-181.172,82.371-272.406c10.935-39.703-4.854-71.27,15.465-112.094
		C256.486,594.551,287.351,570.723,329.902,556.324z"/>
	<path style="fill:#FFFFFF;" d="M1819.945,2337.852c5.492,1.859,6.91,2.133,10.676,6.426c3.895,23.219-5.852,57.289-12.574,79.809
		c-4.398-0.586-8.023-1.422-12.18-2.98C1804.922,2403.348,1816.406,2357.488,1819.945,2337.852z"/>
	<path style="fill:#FFFFFF;" d="M1899.586,1873.184c3.777-0.543,4.578-0.516,8.441,0.641c6.219,14.012,2.852,88.723,2.98,108.703
		l-19.848-30.488c-14.117-21.648-28.148-44.195-39.859-67.242C1867.555,1881.48,1883.543,1877.359,1899.586,1873.184z"/>
	<path style="fill:#FFFFFF;" d="M2907.82,2874.617c26.891,8.328,50.336,24.492,78.141,31.957
		c11.758,17.504,21.152,36.684,32.594,54.445c13.223,20.531,28.605,39.805,43.445,59.18c-10.207-2.98-20.629-10.813-29.516-16.605
		c-6.341-4.086-12.559-8.35-18.652-12.793c-6.094-4.443-12.056-9.057-17.887-13.844c-5.828-4.786-11.516-9.736-17.063-14.848
		c-5.544-5.112-10.938-10.38-16.18-15.805c-5.24-5.422-10.32-10.991-15.242-16.707c-4.922-5.716-9.676-11.569-14.262-17.559
		c-4.586-5.987-8.995-12.102-13.227-18.344C2915.738,2887.453,2911.688,2881.094,2907.82,2874.617z"/>
	<path style="fill:#FFFFFF;" d="M1686.328,3182.934c9.816,3.992,18.59,12.375,26.879,18.832c23.125,18,64.363,54.539,91.453,62
		c4.414-0.871,6.977-3.168,10.402-5.887l1.492-1.203c13.535,13.434,24.058,30.844,35.91,45.832
		c16.828,21.293,36.785,38.371,57.918,55.156l0.82,1.922c-1.324-0.117-2.672-0.07-3.969-0.355
		c-14.945-3.262-33.625-17.043-47.281-24.758C1789.414,3294.602,1727.734,3255.188,1686.328,3182.934z"/>
	<path style="fill:#FFFFFF;" d="M2774.402,2817.082c3.793-0.351,7.051-0.445,10.734,0.781c14.188,4.722,29.348,14.199,43.035,20.859
		c18.539,9.02,37.535,16.988,56.113,25.918l1.031,3.527l-3.594,0.016c-1.047,16.621,54.258,80.441,67.898,96.031l0.676,1.188
		l-1.871,0.598c-16.324-8.016-32.051-17.758-47.531-27.277C2871.727,2920.773,2782.156,2849.566,2774.402,2817.082z"/>
	<path style="fill:#FFFFFF;" d="M2873.75,2773.801c29.367,12.508,58.113,23.828,88.664,33.164
		c7.742,23.27,13.375,48.301,18.504,72.293c-13.668-5.863-27.168-12.18-40.719-18.309c-41.105-19.367-85.832-33.77-124.613-57.531
		c18.969-0.379,37.957-3.008,56.809-5.059L2873.75,2773.801z"/>
	<path style="fill:#FFFFFF;" d="M1943.336,2479.457c12.152-0.391,42.996-4.539,52.461,1.113l1.906,10.633
		c4.004,3.453,5.058,2.906,10.43,3.18c5.277-1.727,7.024-5.082,9.984-9.449l1.242-1.871c37.523-4.254,128.535,20.504,166.379,31.859
		c-26.133,0.09-50.313,2.113-75.844,7.945c-21.406,5.129-43.281,12.848-63.676,21.117c-45.805-21.41-101.891-13.793-149.887-4.816
		c5.066-15.902,11.625-34.645,22.715-47.316C1926.262,2483.609,1932.512,2480.438,1943.336,2479.457z"/>
	<path style="fill:#FFFFFF;" d="M1618.442,3022.059c6.086-0.648,12.769-1.699,18.598,0.602
		c27.125,10.711,59.953,64.957,92.52,81.742l20.855-21.68c10.141,47.168,26.371,91.09,44.477,135.652
		c2.09,4.281,4.449,8.008,4.059,12.926c-4.793,0.422-5.891-0.465-9.918-2.871C1734.391,3195.77,1634.551,3083.91,1618.442,3022.059z
		"/>
	<path style="fill:#FFFFFF;" d="M2029.309,1353.676c5.18,1.285,7.652,0.859,11.078,5.242c-8.555,32.672-71.051,82.383-79.82,129.933
		c-6.402,34.695-0.504,85.457,0.375,121.778c2.273,93.836,1.688,187.641,2.48,281.488c0.34,40.129,5.711,124.422-2.094,158.715
		l-14.691-19.344c6.547-110.637,1.797-223.351-0.277-334.223c-0.738-39.348-9.543-194.16-0.082-222.793
		C1954.316,1450.145,2010.512,1375.883,2029.309,1353.676z"/>
	<path style="fill:#FFFFFF;" d="M1630.988,2849.902c2.43-0.102,4.875-0.219,7.309-0.203c2.125,0.02,5.047,0.223,6.766,1.699
		c16.41,14.125,42.492,73.609,66.871,98.266c14.211-5.68,27.777-14.023,41.133-21.473c-3.336,25.031-5.848,50.063-6.41,75.313
		c-0.328,14.816,2.762,33.117-0.031,47.371c-7.746,5.914-13.851,12.617-20.277,19.859c-11.059-7.762-21.144-17.582-30.633-27.172
		c-50.598-51.117-62.594-63.023-67.766-135.535c-1.063-14.906-4.113-31.051-3.395-45.91
		C1624.875,2855.48,1626.008,2854.121,1630.988,2849.902z"/>
	<path style="fill:#FFFFFF;" d="M1877.051,2505.738c4.774,4.363-10.914,41.754-5.582,53.906c3.668,3.188,5.965,4.109,10.926,4.031
		c10.523-0.172,23.273-3.883,33.805-5.852c35.707-6.668,65.078-7.32,100.301,2.824c-34.125,19.609-60.492,33.824-91.504,59.57
		c-3.078,3.672-4.469,6.68-9.445,7.578c-14.195,2.555-29.781,0.961-44.242,2.836c-24.578,3.191-49.18,12.23-72.789,19.543
		c-1.305-24.512-5.406-65.184,1.727-87.953C1808.918,2534.547,1852.938,2518.215,1877.051,2505.738z"/>
	<path style="fill:#FFFFFF;" d="M1770.758,2587.375c13.543,12.84-5.758,66.414,10.324,84.332
		c21.641,10.621,66.559-15.777,90.344-19.453c6.074-0.938,13.313-1.239,18.449,2.59c-1.27,7.004-28.883,34.906-34.879,42.887
		c-10.969,14.598-21.246,29.992-29.637,46.23l-1.234,2.434c-30.891,4.492-58.274,14.567-87.125,25.945
		c-9.582-35.871-20.957-70.996-32.957-106.125C1718.75,2637.727,1748.774,2610.762,1770.758,2587.375z"/>
	<path style="fill:#FFFFFF;" d="M1685.762,2708.109c20.066,6.73,22.797,72.078,42.168,88.004
		c8.469,3.094,61.469-19.261,78.082-22.969c-18.156,38.234-37.48,77.547-45.625,119.301l-1.477,4.684
		c-10.551,10.043-28.438,16.555-41.563,22.902c-28.633-37.609-49.57-81.723-70.711-123.758
		C1653.727,2768.09,1667.496,2730.766,1685.762,2708.109z"/>
	<path style="fill:#FFFFFF;" d="M2536.148,957.688l10.707-0.91c0.426,0.695,1.285,1.273,1.277,2.09
		c-0.066,5.523-8.516,20.645-10.852,26.422c-7.934,19.586-14.523,38.777-19.32,59.387c-83.012,5.754-165.508,14.687-248.688,18.484
		c-2.605,0.262-5.508-0.125-8.133-0.258l-0.984-3.184c4.414-17.539,17.586-40.117,28.527-54.832
		c4.926-6.621,19.59-10.469,27.289-12.305c28.008-6.672,58.262-9.23,86.789-13.512L2536.148,957.688z"/>
	<path style="fill:#FFFFFF;" d="M1296.992,1877.668c38.48,13.059,80.789,35.125,118.004,52.465
		c-24.87,59.831-50.324,119.411-76.363,178.742l-6.453,14.527c-29.902-34.047-71.969-63.242-95.215-102.406
		C1263.266,1976.699,1277.66,1925.227,1296.992,1877.668z"/>
	<path d="M1315.66,1924.074c5.859,0.453,11.773,1.613,17.281,3.719c1.094,0.427,2.164,0.905,3.211,1.433
		c1.047,0.531,2.065,1.111,3.055,1.738c0.99,0.63,1.948,1.306,2.875,2.027c0.924,0.721,1.813,1.486,2.664,2.293
		c0.852,0.807,1.661,1.654,2.43,2.539c0.771,0.885,1.496,1.806,2.176,2.762c0.68,0.956,1.313,1.943,1.899,2.961
		c0.583,1.016,1.117,2.058,1.601,3.129c6.652,14.91,3.891,34.711-2.246,49.332c-8.07,19.227-20.113,28.707-38.785,36.281
		c-7.051,0.141-13.199-0.203-19.711-3.187c-9.383-4.309-15.898-12.375-18.902-22.176c-5.418-17.664-0.695-40.145,7.996-56.031
		C1289.684,1935.387,1298.836,1928.617,1315.66,1924.074z"/>
	<path style="fill:#FFFFFF;" d="M1315.316,1957.621c3.789,1.895,4.168,2.625,6.469,6.238c1.281,11.609-4.426,21.82-9.191,32.039
		l-3.465,0.207l-2.695-2.808C1305.457,1980.633,1310.621,1969.105,1315.316,1957.621z"/>
	<path style="fill:#FFFFFF;" d="M2260.297,2305.629c11.004,2.063,65.914,58.906,78.75,69.766
		c-88.263,7.417-176.436,15.772-264.52,25.066c-49.801,5.043-99.715,8.785-149.473,14.34l-73.02,9.207
		c3.512-28.703,9.703-56.898,12.727-85.734C1996.672,2328.922,2128.328,2314.879,2260.297,2305.629z"/>
	<path style="fill:#FFFFFF;" d="M2357.094,1912.617l4.895,0.02c-3.297,10.051-289.105,233.473-328.063,263.601l-18.066-30.613
		c-13.581-22.063-26.9-44.281-39.957-66.656c10.789-2.488,20.07-5.258,29.918-10.543c0.703-24.887-1.52-50.199-2.5-75.109
		L2357.094,1912.617z"/>
	<path style="fill:#FFFFFF;" d="M2190.504,1809.074c28.922-3.852,87.93,9.742,119.383,14.582
		c47.635,7.591,95.355,14.604,143.16,21.039c-12.652,11.703-25.871,22.426-41.66,29.586c-23,10.43-50.992,14.121-75.543,19.473
		l-117.367,25.863c-71.227,17.426-143.512,30.336-214.723,48.242c-0.175-39.43-0.743-78.853-1.707-118.27
		c26.813-7.082,54.91-11.379,82.086-17.117C2119.656,1824.973,2154.91,1816.25,2190.504,1809.074z"/>
	<path style="fill:#FFFFFF;" d="M2604.148,943.531c44.938,0.57,90.707,6.227,135.527,10.066l220.555,18.723l148.348,12.156
		c28.633,2.469,58.793,3.711,86.898,9.906c18.516,19.484,28.371,49.445,38.5,74.039c-21.031,0.065-42.043-0.526-63.035-1.773
		c-118.582-4.582-237.504-10.012-355.969-17.008c-69.777-4.121-141.133-13.781-210.926-12.801
		c-20.891,0.293-41.926,2.797-62.723,4.75l11.035-28.641C2563.688,984.035,2573.852,956.754,2604.148,943.531z"/>
	<path style="fill:#FFFFFF;" d="M2564.012,1065.32c2.395-0.219,4.418,0.117,6.789,0.434c0.645,1.406,1.77,2.676,1.938,4.215
		c1.461,13.352-4.402,34.086-6.059,48.016l-17.305,150.683l-59.824,559.582c-13.012-2.938-26.277-5.121-39.387-7.606
		c2.621-27.062,7.164-54.023,10.281-81.058l37.289-311.367l25.262-202.707c5.316-41.156,8.344-84.336,19.383-124.371
		c-22.574-0.355-214.551,10.293-223.441,16.582c-35.445,222.063-86.336,441.602-130.648,661.992
		c-13.129,0.457-26.34-0.156-39.473-0.492c14.578-56.113,24.434-113.848,36.055-170.656l78.082-375.395
		c10.418-48.156,18.41-97.18,30.66-144.891C2383.105,1077.223,2474.098,1072.574,2564.012,1065.32z"/>
	<path style="fill:#FFFFFF;" d="M1434.973,1942.418c16.949,6.84,43.344,14.215,56.379,27.004
		c18.066,17.73,32.816,53.109,46.844,75.477c36.617,58.398,77.215,115.238,111.394,175.078
		c-13.359,21.426-65.738,142.781-75.242,148.597l-3.469-2.867c-47.844-45.89-93.641-93.667-139.813-141.215
		c-26.793-27.594-54.711-54.336-80.43-82.934C1378.809,2075.219,1411.75,2010.852,1434.973,1942.418z"/>
	<path style="fill:#FFFFFF;" d="M2358.766,2397.402c10.836,0.898,48.766,43.754,63.238,52.73l422.277-47.746
		c-45.254,116.574-69.078,207.383-70.617,332.773c12.605,6.711,25.492,11.609,38.902,16.473
		c15.492,6.133,30.785,12.043,45.234,20.453c-67.164,7.832-134.172,10.688-201.246,21.184c-0.315-8.372-0.947-16.72-1.895-25.043
		c-0.948-8.323-2.211-16.598-3.789-24.824c-1.575-8.226-3.461-16.383-5.656-24.469c-2.193-8.083-4.69-16.073-7.492-23.969
		c-23.191-66.066-66.461-129.676-121.973-172.844c-24.539-19.082-52.082-34.813-78.539-51.109
		c-39.863-24.559-80.352-47.668-122.602-67.949C2329.031,2400.051,2344.113,2399.023,2358.766,2397.402z"/>
	<path style="fill:#FFFFFF;" d="M1250.211,2585.637c56.93,77.289,122.156,149.211,181.902,224.441
		c-12.422,60.961-22.949,122.324-35.902,183.168c-51.07,15.25-140.012,26.117-182.426,54.758
		c-38.656-29.645-79.012-57.254-118.855-85.281c-21.742-15.293-44.879-29.91-64.578-47.785
		c50.32-12.848,102.613-23.039,151.848-39.313C1209.16,2780.094,1223.641,2681.176,1250.211,2585.637z"/>
	<path style="fill:#FFFFFF;" d="M331.224,597.57c59.51,10.078,121.842,21.019,180.674,34.047
		c11.91,47.383,17.527,97.356,22.191,145.914c-19.856-10.688-42.047-26.063-63.91-31.219c-27.594-6.504-77.637,9.266-100.928,23.848
		c-23.551,44.516-34.373,95.68-48.76,143.574c-28.771,95.785-55.605,192-83.296,288.082l-48.468,164.523
		c-11.125,37.355-24.12,75.117-30.342,113.641c-2.356,41.801,6.408,71.043,21.365,109.641
		c-36.253-17.023-104.554-50.832-122.462-86.828c-8.755-17.601-8.718-31.516-5.57-50.621c3.455-20.973,11.359-42.078,17.394-62.457
		l43.695-142.387l92.808-313.274c18.56-62.035,39.503-123.871,56.36-186.355c7.968-29.535-5.507-54.801,5.458-86.047
		C278.598,629.836,301.959,611.481,331.224,597.57z"/>
	<path d="M340.934,635.234c10.659-0.793,21.109,0.746,30.89,5.215c13.66,6.242,24.766,17.719,29.711,31.988
		c0.544,1.557,1.009,3.139,1.395,4.746c0.383,1.607,0.685,3.228,0.906,4.863c0.219,1.635,0.355,3.279,0.41,4.93
		c0.052,1.648,0.021,3.297-0.094,4.945c-0.112,1.646-0.309,3.283-0.59,4.91c-0.279,1.628-0.639,3.237-1.082,4.828
		c-0.445,1.589-0.969,3.152-1.57,4.691c-0.602,1.536-1.279,3.039-2.031,4.508c-8.246,16.012-21.468,22.68-38.068,27.43
		c-12.25,0.984-22.763,0.297-33.928-5.371c-1.645-0.823-3.243-1.727-4.795-2.711c-1.553-0.987-3.051-2.049-4.495-3.188
		c-1.444-1.138-2.827-2.346-4.148-3.625c-1.321-1.279-2.574-2.621-3.758-4.027c-1.184-1.406-2.294-2.87-3.329-4.391
		c-1.035-1.518-1.99-3.086-2.865-4.703c-0.875-1.617-1.666-3.275-2.372-4.973c-0.707-1.698-1.325-3.427-1.855-5.188
		c-3.931-13.152-2.848-27.781,4.089-39.754C311.958,645.512,325.144,639.711,340.934,635.234z"/>
	<path style="fill:#FFFFFF;" d="M341.365,671.84c8.27-0.438,17.224-0.285,23.118,6.715c3.136,3.727,3.982,7.918,3.093,12.66
		c-1.094,5.832-5.839,9.707-10.039,13.398c-6.978,0.242-14.897-1.133-19.96-6.375c-3.507-3.629-5.229-7.449-4.779-12.582
		C333.35,679.352,337.098,675.902,341.365,671.84z"/>
	<path style="fill:#FFFFFF;" d="M2480.746,1131.672c10.43-1.063,21.391-0.766,31.895-1.031
		c-17.513,124.878-33.525,249.947-48.035,375.207c-8.563,64.672-16.256,129.447-23.078,194.324
		c-4.441,38.957-9.703,77.953-12.379,117.078c-52.305-4.414-103.871-16.977-155.914-23.941c-20.453-3.555-41.102-6.383-61.621-9.555
		l127.91-643.047C2386.551,1137.09,2433.68,1134.824,2480.746,1131.672z"/>
	<path style="fill:#FFFFFF;" d="M2490.41,1849.355c0.109,0.09,0.246,0.16,0.336,0.273c0.012,0.012,2.809,3.801,2.828,3.852
		c4.488,13.945,5.629,141.207,6.355,167.879l12.055,393.527c-29.684,4.621-59.504,6.809-89.457,8.762
		c-20.664-24.664-47.102-46.492-70.602-68.484c-27.176-25.434-53.918-52.715-83.141-75.754c-17.797,2.016-35.617,3.811-53.461,5.387
		c-37.609,1.496-75.309,5.23-112.914,7.39c-16.102-32.207-36.664-62.016-54.992-92.945c37.539-38.805,93.367-77.258,136.492-111.386
		L2490.41,1849.355z"/>
	<path style="fill:#FFFFFF;" d="M3003.149,1163.57c52.453,1.215,104.801,5.508,157.23,6.617
		c24.438,77.297,53.231,153.559,79.559,230.238c23.527,68.523,44.715,137.988,67.496,206.793
		c19.191,57.953,41.227,116.293,56.496,175.348c-18.206,21.852-35.028,44.723-50.465,68.613
		c-7.414,11.777-14.109,23.492-20.184,36.016c-79.668,1.285-159.047,12.277-238.496,17.773
		c-6.899-69.363-8.559-139.856-14.278-209.465c-9.323-112.161-17.651-224.397-24.984-336.707
		C3011.059,1293.777,3005.656,1228.703,3003.149,1163.57z"/>
	<path style="fill:#FFFFFF;" d="M353.654,889.688c75.022,73.727,158.366,139.105,235.073,211.121l-14.441,258.527
		c-2.695,51.797-1.957,106.875-10.488,157.949c-33.848,14.734-49.445,8.629-79.613,17.426
		c-41.016,11.961-80.344,34.168-118.488,53.277c-34.144,17.609-67.404,36.363-102.226,52.719c-0.644-0.117-1.29-0.227-1.932-0.356
		c-1.069-0.215-2.132-0.457-3.2-0.68c-2.598-0.539-5.185-1.039-7.732-1.801c-14.465-4.32-25.134-23.477-32.044-36.078
		c-15.552-28.363-34.824-65.84-34.621-99.051c0.246-40.148,16.221-80.145,27.305-118.25l42.375-144.59L353.654,889.688z"/>
	<path style="fill:#FFFFFF;" d="M611.922,1139.75c23.629,10.469,87.562,73.027,111.785,93.961
		c162.596,140.596,323.667,282.921,483.211,426.973l127.641,111.707c22.918,20.125,47.035,39.813,68.277,61.668
		c24.348,25.043,46.438,61.313,62,92.641c-34.168-18.051-69.625-33.66-104.754-49.738c-20.133-9.598-53.598-28.758-75.93-24.102
		c-13.648,11.438-65.953,120.359-72.98,140.457l-426.16-448.453c-41.094-43.344-83.621-85.355-125.141-128.289
		c-19.852-20.531-40.688-40.734-58.938-62.711C602.254,1282.824,606.008,1210.547,611.922,1139.75z"/>
	<path style="fill:#FFFFFF;" d="M3436.59,1755.41c18.73,1.34,227.801,104.703,262.969,121.231
		c26.379,12.398,53.668,22.801,79.488,36.351c8.883,33.266,10.902,99.895,14.355,137.219l25.125,254.91
		c-21.208,3.888-42.52,7.093-63.934,9.614c-44.82-70.336-100.535-127.895-172.227-171.285
		c-116.238-70.352-254.492-81.402-384.5-49.191c-119.984,32.316-218.844,109.867-292.832,207.797
		c-15.883,21.02-28.215,44.141-43.649,65.336l-1.18,1.594c-1.828-21.446-3.086-42.371-0.347-63.805
		c13.82-108.176,123.871-181.633,203.488-242.77c-0.363-43.281-5.121-86.988-8.773-130.113c24.734-5.395,51.777-6.262,76.977-8.484
		c59.711-5.274,120.172-8.395,179.598-15.84C3339.172,1849.625,3380.73,1789.738,3436.59,1755.41z"/>
	<path style="fill:#FFFFFF;" d="M1664.684,2243.25c14.117,13.145,26.16,39.543,36.457,56.223
		c20.637,33.426,41.219,67.09,63.043,99.75l-1.773,33.922c9.832,8.18,19.43,16.418,32.645,17.918
		c42.586,4.836,90.344-5.973,133.066-9.91c117.621-10.84,235.039-24.859,352.848-33.332
		c78.293,49.883,183.75,98.391,249.156,163.969c59.156,59.316,101.535,139.625,101.715,224.652
		c-22.395,2.594-44.895,4.852-67.16,8.391c-6.906-17.996-14.055-35.672-22.734-52.914
		c-62.273-123.676-180.738-206.789-310.188-249.063c-80.055-26.141-159.285-44.574-243.855-45.891
		c-19.992-0.308-40.422-0.859-60.098,3.188c-27.867,5.73-53.973,18.785-79.176,31.559
		c-63.109,36.191-101.895,81.234-147.867,136.016c-13.187,15.711-24.234,27.297-22.371,48.648c-0.566,0.594-1.125,1.195-1.703,1.781
		c-3.031,3.051-6.137,6-8.68,9.5c-20.883,28.738-49.977,101.004-44.348,136.922c-8.453,2.91-16.438,4.617-22.301,11.739
		c-7.805,27,6.875,126.461,11.82,160.207c-4.355,1.855-9.609,3.652-13.609,6.133c-3.184,1.977-4.75,3.27-5.754,6.777
		c-7.695,26.82,45.633,124.527,60.539,150.223c-55.594,8.461-160.816,30.555-213.648,25.883
		c-12.656-1.121-24.207-4.297-35.602-9.934c-25.582-12.656-48.449-33.832-71.73-50.418c-27.258-19.422-55.805-37.309-84.117-55.156
		c54.81-13.383,109.398-27.617,163.766-42.703c12.41-45.808,19.773-93.472,28.515-140.109
		c14.997-83.63,32.426-166.751,52.285-249.363c6.309-25.305,11.895-51.301,19.727-76.172c16.824-53.449,46.77-105.707,71.637-156
		C1611.887,2351.691,1637.117,2296.781,1664.684,2243.25z"/>
	<path style="fill:#FFFFFF;" d="M3329.652,2100.508c43.223-0.914,87.82,5.801,129.422,17.09
		c123.098,33.406,216.664,112.516,279.703,221.793c38.164-2.906,76.934-8.59,114.727-14.633l-2.574-32.66
		c19.715,6.442,38.363,14.355,56.023,25.348c21.602,13.449,41.641,30.539,47.148,56.586c5.859,27.52,0.781,82.738,1.172,114.301
		c0.429,32.629,5.469,68.203,1.758,100.379c-1.328,11.336-5.352,21.637-11.641,31.109c-8.906,13.34-21.25,24.543-33.672,34.531
		c-51.539,41.465-107.234,44.078-169.766,57.137c2.988-109-21.324-213.164-87.23-301.73c-63.895-85.855-142.242-134.547-248-149.691
		c-14.601-0.891-29.168-1.703-43.808-1.344c-100.555,2.469-199.473,54.246-267.633,126.883
		c-110.063,117.285-140.434,240.058-135.992,397.164c-52.332-24.261-108.422-43.039-162.387-63.429
		c5.184-164.277,56.695-329.617,168.957-452.734c71.727-78.668,169.496-137.25,274.652-157.32
		C3270.004,2103.656,3299.73,2101.824,3329.652,2100.508z"/>
	<path style="fill:#FFFFFF;" d="M596.016,1408.996c20.098,12.777,40.992,41.848,58.086,59.871l120.906,126.02l415.148,435.508
		c117.82,125.359,241.586,259.965,368.141,375.91c-22.945,45.945-50.426,93.664-67.762,141.875
		c-6.883,19.145-10.117,40.23-14.727,60.043c-9.104,38.136-17.965,76.328-26.582,114.578c-4.805,17.114-7.473,35.293-10.969,52.742
		c-36.586-39.117-69.398-82.891-102.863-124.707c-52.773-65.942-105.152-131.656-156.109-199.035
		c-139.628-185.313-276.094-372.925-409.398-562.836l-147.164-210.141c-28.363-40.473-59.637-80.633-83.988-123.641
		c17.656-7.711,37.434-14.711,51.66-28.008C591.773,1487.742,592.922,1448.34,596.016,1408.996z"/>
	<path style="fill:#FFFFFF;" d="M3369.574,2284.035c69.293-2.352,145.496,26.293,198.371,70.453
		c84.555,70.621,134.918,175.465,143.922,284.777c9.239,112.199-29.023,234.641-102.184,320.688
		c-70.422,82.824-169.043,141.043-278.117,149.414c-84.273,2.184-156.492-22.859-220.648-78.293
		c-78.656-67.965-120.59-168.969-127.254-271.465c-7.938-122.09,32.332-248.012,113.68-339.707
		C3170.203,2337.773,3259.773,2290.977,3369.574,2284.035z"/>
	<path d="M3353.949,2475.398c46.691-1.188,87.664,12.32,123.512,42.523c43.063,36.285,68.109,88.336,72.734,144.203
		c5.473,66.121-12.668,131.676-56.02,182.445c-37.031,43.371-85.707,71.422-142.953,76.082
		c-45.465,2.512-86.293-8.539-121.699-37.859c-43.586-36.094-69.043-85.465-74.317-141.742
		c-6.379-68.074,11.833-138.789,56.328-191.645C3248.309,2505.723,3297.398,2480.539,3353.949,2475.398z"/>
	<path style="fill:#FFFFFF;" d="M3341.07,2502.375c36.301-3.848,73.039,2.762,104,22.664c39.691,25.516,66.566,70.48,76.191,116.047
		c11.895,56.313,0.938,118.32-31.063,166.441c-30.594,46.016-74.215,75.805-128.395,86.48c-37.168,4.598-74.394-2.457-105.82-23.359
		c-40.039-26.625-64.352-70.332-73.316-116.867c-0.688-3.688-1.286-7.391-1.797-11.109c-0.508-3.716-0.926-7.444-1.254-11.184
		c-0.328-3.737-0.565-7.48-0.711-11.23c-0.146-3.747-0.2-7.498-0.164-11.25c0.034-3.752,0.159-7.501,0.375-11.246
		c0.219-3.747,0.527-7.486,0.926-11.215c0.399-3.732,0.887-7.451,1.465-11.156c0.578-3.708,1.246-7.4,2.004-11.074
		c0.758-3.675,1.603-7.329,2.535-10.965c0.935-3.633,1.957-7.241,3.066-10.824c1.109-3.586,2.306-7.142,3.59-10.668
		c1.281-3.526,2.647-7.02,4.098-10.48c1.45-3.458,2.984-6.882,4.602-10.27c1.617-3.385,3.315-6.729,5.094-10.031
		c1.781-3.305,3.639-6.564,5.574-9.777c1.937-3.214,3.952-6.378,6.043-9.492C3247.734,2538.133,3289.805,2512.418,3341.07,2502.375z
		"/>
	<path d="M3339.758,2560.973c24.633-3.098,48.852,0.355,70.953,11.965c28.629,15.039,48.703,41.488,57.695,72.351
		c11.434,39.239,5.192,84.903-14.586,120.457c-20.488,36.816-51.438,55.234-90.938,66.617c-27.469,4.051-54.73-1.266-78.364-15.945
		c-28.445-17.668-46.855-48.199-54.304-80.41c-9.094-39.324,0.074-80.367,21.395-114.266
		C3272.875,2587.926,3301.277,2569.75,3339.758,2560.973z"/>
	<path style="fill:#FFFFFF;" d="M3348.277,2584.477c21.383-1.316,39.734,3.313,57.668,15.43
		c22.184,14.984,36.441,38.262,41.379,64.402c0.391,2.169,0.728,4.348,1.012,6.535c0.284,2.185,0.513,4.376,0.688,6.574
		c0.175,2.198,0.294,4.398,0.359,6.602c0.065,2.203,0.077,4.407,0.035,6.613c-0.044,2.203-0.142,4.404-0.293,6.602
		c-0.154,2.201-0.361,4.396-0.621,6.586c-0.26,2.188-0.575,4.369-0.945,6.543c-0.367,2.172-0.789,4.334-1.266,6.488
		c-0.477,2.154-1.005,4.293-1.586,6.418c-0.583,2.128-1.218,4.238-1.902,6.332c-0.685,2.096-1.422,4.173-2.211,6.23
		c-0.789,2.057-1.629,4.095-2.52,6.113c-0.891,2.018-1.829,4.012-2.816,5.98c-0.99,1.971-2.026,3.917-3.109,5.836
		c-1.086,1.919-2.218,3.81-3.395,5.672c-1.18,1.865-2.404,3.698-3.672,5.5c-17.867,25.469-42.047,37.656-71.93,43.027
		c-19.98,1.703-39.75-2.875-56.609-13.918c-22.543-14.77-37.91-40.191-42.852-66.477c-5.996-31.875,1.672-68.961,19.738-95.867
		C3291.828,2604.297,3316.328,2590.914,3348.277,2584.477z"/>
	<path style="fill:#FFFFFF;" d="M2154.277,2541.719c78.469-8.414,162.152,14.602,225.813,60.977
		c84.695,61.699,139.383,159.375,154.895,262.379c18.902,125.523-16.055,263.305-91.832,365.262
		c-2.12,2.875-4.275,5.723-6.465,8.543c-2.193,2.82-4.418,5.614-6.676,8.379c-2.26,2.768-4.555,5.507-6.883,8.215
		c-2.326,2.711-4.685,5.392-7.078,8.043c-2.396,2.651-4.822,5.272-7.277,7.863c-2.458,2.592-4.948,5.152-7.469,7.684
		c-2.523,2.529-5.077,5.026-7.66,7.492c-2.581,2.469-5.193,4.904-7.836,7.305c-2.643,2.403-5.316,4.773-8.02,7.109
		c-2.701,2.336-5.43,4.639-8.188,6.91c-2.758,2.268-5.544,4.503-8.359,6.703c-2.813,2.201-5.652,4.366-8.52,6.496
		c-2.867,2.13-5.76,4.225-8.68,6.285c-2.919,2.057-5.863,4.079-8.832,6.066c-2.969,1.987-5.961,3.936-8.977,5.848
		c-3.016,1.911-6.056,3.786-9.121,5.625c-3.063,1.836-6.147,3.635-9.254,5.398c-3.107,1.76-6.236,3.483-9.387,5.168
		c-3.148,1.682-6.319,3.327-9.512,4.934c-3.19,1.607-6.4,3.173-9.629,4.699c-3.229,1.526-6.476,3.012-9.742,4.457
		c-3.266,1.448-6.548,2.854-9.848,4.219c-3.302,1.365-6.62,2.689-9.953,3.973s-6.681,2.526-10.043,3.727
		c-3.365,1.2-6.743,2.359-10.136,3.476c-3.394,1.117-6.799,2.193-10.215,3.227c-3.419,1.034-6.852,2.024-10.297,2.972
		c-3.443,0.951-6.897,1.857-10.363,2.719c-3.466,0.865-6.942,1.685-10.426,2.461c-3.487,0.779-6.983,1.513-10.488,2.203
		c-3.503,0.693-7.014,1.341-10.535,1.945c-3.521,0.604-7.048,1.165-10.582,1.684c-80.785,7.102-162.77-12.742-228.137-61.668
		c-81.992-61.367-138.156-164.473-152.168-265.285c-0.526-3.872-1.004-7.75-1.434-11.633c-0.43-3.883-0.811-7.771-1.145-11.664
		c-0.336-3.894-0.624-7.789-0.863-11.688c-0.24-3.901-0.431-7.803-0.574-11.707c-0.146-3.904-0.242-7.81-0.289-11.719
		c-0.05-3.906-0.051-7.813-0.004-11.719c0.047-3.906,0.142-7.813,0.285-11.719c0.141-3.904,0.331-7.806,0.57-11.707
		c0.237-3.898,0.522-7.794,0.855-11.688c0.333-3.893,0.715-7.781,1.145-11.664c0.427-3.885,0.902-7.763,1.426-11.633
		c0.524-3.873,1.094-7.739,1.711-11.598c0.62-3.857,1.285-7.706,1.996-11.547c0.711-3.841,1.47-7.674,2.277-11.5
		c0.805-3.823,1.658-7.635,2.559-11.438c0.898-3.802,1.844-7.592,2.836-11.371c0.99-3.779,2.027-7.546,3.113-11.301
		c1.083-3.752,2.212-7.492,3.387-11.219c1.177-3.727,2.398-7.438,3.664-11.133c1.266-3.698,2.577-7.379,3.934-11.043
		c1.357-3.664,2.758-7.311,4.203-10.942c1.445-3.627,2.935-7.238,4.469-10.832c1.534-3.594,3.111-7.168,4.73-10.722
		c1.623-3.555,3.286-7.09,4.992-10.606c1.708-3.513,3.46-7.005,5.254-10.477c1.792-3.471,3.626-6.921,5.504-10.348
		s3.797-6.831,5.758-10.211c1.961-3.378,3.964-6.732,6.008-10.063c2.042-3.331,4.125-6.637,6.25-9.918
		c2.122-3.279,4.285-6.531,6.488-9.758c2.203-3.226,4.445-6.426,6.726-9.598c2.281-3.172,4.602-6.315,6.961-9.43
		C1940.023,2628.527,2036.324,2557.953,2154.277,2541.719z"/>
	<path d="M2156.492,2740.785c42.152-5.621,89.469,3.574,125.191,26.945c45.285,29.633,75.441,85.012,85.668,137.238
		c13.012,66.442-4.625,142.191-42.242,198.086c-36.895,54.82-88.711,90.824-153.512,103.859c-2.76,0.505-5.531,0.944-8.312,1.317
		c-2.779,0.373-5.567,0.676-8.364,0.91c-2.797,0.237-5.596,0.406-8.398,0.508c-2.805,0.099-5.609,0.13-8.414,0.094
		c-2.807-0.037-5.611-0.141-8.41-0.313s-5.594-0.412-8.383-0.719c-2.789-0.307-5.569-0.682-8.34-1.125
		c-2.771-0.443-5.529-0.954-8.273-1.531c-2.747-0.575-5.478-1.219-8.191-1.93c-2.714-0.708-5.409-1.483-8.086-2.324
		c-2.677-0.841-5.332-1.746-7.965-2.715c-2.633-0.969-5.241-2.001-7.824-3.098c-2.583-1.096-5.138-2.254-7.664-3.473
		c-2.526-1.221-5.021-2.503-7.484-3.844c-2.466-1.341-4.897-2.741-7.293-4.199c-2.396-1.461-4.755-2.978-7.078-4.551
		c-46.75-31.469-76.649-87.558-86.692-142.168c-12.762-69.394,13.422-146.078,53.211-202.613
		C2045.211,2784.598,2095.539,2751.633,2156.492,2740.785z"/>
	<path style="fill:#FFFFFF;" d="M2169.09,2764.285c35.535-5.102,78.883,10.133,107.48,30.66
		c37.582,26.977,61.012,74.82,68.32,119.684c10.488,64.395-7.844,132.438-46.023,184.949
		c-34.852,47.938-79.906,74.637-137.934,83.996c-39.445,2.93-73.586-4.25-106.398-26.875
		c-38.914-26.832-61.934-72.234-69.988-118.055c-11.586-65.926,8.453-135.715,46.973-189.586
		C2066.699,2799.863,2109.762,2773.836,2169.09,2764.285z"/>
	<path d="M2150.563,2830.512c26.207-2.613,51.063,0.219,74.27,13.766c29.477,17.203,49.711,47.133,57.598,80.031
		c10.703,44.633-0.531,94.652-24.789,133.117c-21.859,34.668-52.832,54.168-92.281,63.293c-25.23,2.652-52.184-1.73-74.406-14.363
		c-28.469-16.188-47.289-42.773-55.687-74.183c-11.516-43.078-6.699-91.617,16.223-130.164
		C2074.438,2863.41,2107.426,2841.297,2150.563,2830.512z"/>
	<path style="fill:#FFFFFF;" d="M2161.133,2856.152c19.164-1.223,39.453,4.449,55.508,14.91c22.645,14.746,37.543,40,42.953,66.16
		c7.379,35.66-1.355,77.355-21.555,107.527c-19.629,29.316-47.133,43.637-81.148,50.141c-22.227,1.43-43.027-3.523-61.367-16.625
		c-23.191-16.566-36.125-43.652-39.992-71.348c-0.307-2.354-0.556-4.714-0.746-7.078c-0.19-2.367-0.323-4.737-0.399-7.109
		c-0.076-2.37-0.094-4.742-0.055-7.117c0.042-2.373,0.141-4.742,0.297-7.109c0.156-2.37,0.37-4.733,0.641-7.09
		c0.271-2.36,0.6-4.71,0.988-7.051c0.385-2.341,0.828-4.672,1.328-6.992c0.502-2.32,1.06-4.626,1.672-6.918
		c0.612-2.294,1.28-4.57,2.004-6.828c0.724-2.26,1.503-4.503,2.336-6.727c0.836-2.221,1.724-4.422,2.664-6.602
		c0.94-2.177,1.934-4.331,2.98-6.461c1.047-2.13,2.145-4.235,3.293-6.313c1.149-2.075,2.348-4.123,3.598-6.141
		c1.247-2.018,2.544-4.005,3.891-5.961c1.346-1.956,2.74-3.877,4.18-5.762C2103.969,2873.758,2129.184,2860.191,2161.133,2856.152z"
		/>
	<path style="fill:#FFFFFF;" d="M444.797,779.867c3.641-0.73,7.715-0.988,11.402-0.469
		c21.91,3.098,1049.66,614.109,1071.692,638.949c14.219,16.035,25.141,41.715,35.84,60.406
		c23.148,40.906,46.922,81.447,71.32,121.621c92.497,154.596,186.197,308.458,281.098,461.586
		c29.398,48.359,59.198,96.47,89.398,144.332c18.637,29.945,35.949,61.195,57.395,89.254c-42.812,5.09-86.785,6.914-129.824,9.695
		c-25.02,1.941-51.816,6.316-76.801,5.379c-15.863-0.594-32-5.746-47.828-4.973c-5.406,0.266-9.789,1.602-14.051,5.004
		c-10.891,8.691-12.16,31.141-14.266,43.871c-36.02-51.48-67.02-107.605-100.063-161.098l-149.512-237.082
		c-19.464-30.958-39.103-61.805-58.918-92.539c-11.379-17.695-22.25-36.887-35.684-53.066
		c-24.508-29.52-59.527-54.172-88.539-79.305c-55.832-48.367-111.766-96.801-166.777-146.086l-187.668-166.547
		c-35.781-32.035-70.512-65.305-106.609-96.977L360.791,865.828c6.741-24.299,14.114-48.405,22.119-72.316
		C403.23,787.34,423.945,783.676,444.797,779.867z"/>
	<path style="fill:#FFFFFF;" d="M2600.074,1064.461c71.707,0.422,144.555,7.43,216.273,11.398
		c129.706,7.026,259.471,12.65,389.297,16.871c34.645,83.004,60.73,170.933,90.149,255.926l65.691,195.266
		c21.43,63.098,43.976,125.875,62.641,189.863c-13.605,8.547-26.629,17.984-39.742,27.262c-7.25-15.922-11.719-33.5-17.184-50.117
		l-34.984-106.914l-101.692-299.906c-17.82-52.113-32.801-106.07-54.465-156.715c-29.035-3.125-58.891-3.469-88.063-4.922
		c-36.16-1.797-72.383-4.594-108.602-3.773c-2.465,35.035,2.645,72.98,4.793,108.137c4.578,75.867,9.742,151.695,15.492,227.484
		c5.07,100.531,15.492,200.871,22.504,301.281c6.352,90.903,9.223,182.699,18.688,273.289
		c-66.383,47.625-140.57,107.363-180.457,179.566c-25.496,46.152-34.313,98.426-19.656,149.453
		c-34.227,6.426-69.883,7.688-104.527,11.418l-201.102,21.809c0.059-74.563-4.613-149.391-7.559-223.883
		c-2.464-72.823-4.499-145.657-6.105-218.504c-1.086-38.773-3.203-77.813-2.934-116.59c0.293-42.199,6.699-85.32,10.883-127.356
		c6.932-75.674,14.614-151.271,23.047-226.789l28.641-268.887C2586.828,1174.684,2590.223,1118.313,2600.074,1064.461z"/>
	<path d="M2640.063,1124.758c46.125-0.688,92.438,2.238,138.508,4.195c50.488,2.141,101.234,3.457,151.539,8.242l37.289,595.23
		l10.133,162.719c1.859,29.996,4.754,60.277,4.629,90.336c-65.922,25.992-104.168,60.477-134.699,124.68
		c-6.188,14.957-10.738,30.234-15.332,45.727c-39.727,5.582-81.102,7.242-121.117,10.801
		c-45.523,4.043-91.914,10.148-137.523,11.254c-1.703-16.989-0.758-34.832-1.063-51.93l-1.875-93.805
		c-0.98-64.566-5.273-130.582-2.246-194.992c1.25-26.621,5.082-53.547,7.906-80.063l14.559-141.102L2640.063,1124.758z"/>
	<path style="fill:#FFFFFF;" d="M2660.5,1146.535c81.977,0.656,165.289,7.605,247.168,12.418
		c1.969,45.043,6.785,90.184,9.633,135.215l21.648,344.422c7.09,109.848,8.895,220.996,20.285,330.434
		c-3.542,1.344-7.047,2.775-10.516,4.293c-3.471,1.516-6.904,3.116-10.297,4.801c-3.393,1.685-6.742,3.452-10.047,5.301
		c-3.304,1.849-6.562,3.779-9.773,5.789c-3.211,2.008-6.371,4.095-9.48,6.262c-3.109,2.164-6.163,4.402-9.16,6.715
		c-3,2.315-5.94,4.702-8.82,7.16c-2.883,2.458-5.703,4.985-8.461,7.582c-2.758,2.596-5.449,5.259-8.074,7.988
		c-2.628,2.727-5.186,5.517-7.676,8.371c-2.49,2.854-4.909,5.768-7.258,8.742c-2.346,2.974-4.619,6.003-6.816,9.086
		c-2.198,3.083-4.32,6.22-6.367,9.41c-2.044,3.188-4.009,6.425-5.895,9.711c-1.885,3.284-3.688,6.612-5.41,9.984
		c-1.724,3.375-3.363,6.789-4.918,10.242c-5.789,13.965-11.074,28.18-16.57,42.266c-30.504,4.64-62.457,5.672-93.246,8.367
		c-40.805,3.574-81.918,8.477-122.863,9.695l-4.879-195.008c-0.957-38.91-3.316-78.637-1.551-117.504
		c2.852-62.777,14.43-132.246,20.68-195.902L2660.5,1146.535z"/>
</g>
</svg>
