<?xml version="1.0" encoding="utf-8"?>
<!-- Generator: Adobe Illustrator 27.5.0, SVG Export Plug-In . SVG Version: 6.00 Build 0)  -->
<svg version="1.1" id="Layer_1" xmlns="http://www.w3.org/2000/svg" xmlns:xlink="http://www.w3.org/1999/xlink" x="0px" y="0px"
	 viewBox="0 0 2500 2500" style="enable-background:new 0 0 2500 2500;" xml:space="preserve">
<rect style="fill:#FFFFFF;" width="2500" height="2500"/>
<path d="M2014.537,763.631c-0.732,0.508-1.372,1.268-2.077,1.334c-0.477,0.044-1.044-0.889-1.572-1.385
	c0.741-0.394,1.45-0.92,2.24-1.113C2013.427,762.394,2013.914,763.092,2014.537,763.631z"/>
<g>
	<path d="M2401.9,1258.92c-1.233-2.252-3.176-3.419-5.691-3.642c-5.731-0.51-11.457-1.259-17.198-1.423
		c-11.247-0.321-22.473-0.07-33.711,1.034c-11.998,1.178-23.914,2.543-35.56,5.778c-2.211,0.614-4.5,0.953-6.938,1.457
		c-2.238-4.014-3.639-7.915-5.142-11.793c-3.709-9.571-8.514-18.509-15.577-26.102c-1.05-1.128-2.432-2.474-2.567-3.828
		c-0.425-4.277-3.114-6.247-6.529-8.033c-2.763-1.445-5.298-3.355-7.839-5.189c-8.476-6.116-17.181-11.916-24.035-20.036
		c-7.472-8.852-13.73-18.317-18.367-29.03c-7.791-18.003-16.506-35.605-22.778-54.252c-1.246-3.706-3.019-7.242-4.647-10.811
		c-1.736-3.804-3.794-7.473-5.351-11.346c-3.579-8.903-8.964-16.58-15.76-23.216c-5.988-5.846-12.247-11.426-18.573-16.908
		c-2.542-2.203-5.502-3.963-8.406-5.699c-15.515-9.277-31.598-17.379-48.526-23.815c-6.157-2.341-12.366-4.194-18.872-5.18
		c-8.534-1.293-17.022-2.9-25.573-4.062c-13.719-1.864-27.302-5.038-41.285-4.572c-0.451,0.015-0.918-0.429-1.761-0.852
		c-0.792-3.762-1.835-7.771-2.453-11.844c-1.232-8.109-0.581-16.219,0.866-24.228c2.419-13.387,5.08-26.729,7.628-40.093
		c3.387-17.758,6.372-35.56,5.943-53.744c-0.049-2.09-0.054-4.211,0.239-6.272c0.967-6.809,0.419-13.588-0.189-20.37
		c-0.42-4.691-1.167-9.365-1.346-14.062c-0.773-20.359-6.801-39.648-11.819-59.146c-0.259-1.007-0.744-1.956-1.113-2.936
		c-7.294-19.351-15.23-38.448-24.359-56.993c-10.573-21.481-18.545-43.811-23.874-67.123c-0.933-4.082-2.073-8.117-3.049-12.19
		c-1.002-4.185-3.288-7.665-5.86-11c-1.546-2.005-3.531-2.908-6.129-2.788c-9.314,0.428-12.419,1.697-13.978,13.016
		c-0.105,0.767,0.136,1.581,0.034,2.349c-0.273,2.065-0.351,4.22-1.032,6.154c-2.431,6.906-4.687,13.915-7.736,20.551
		c-5.023,10.935-10.662,21.585-15.945,32.402c-3.214,6.583-6.724,13.079-9.251,19.928c-4.071,11.033-7.53,22.296-11.061,33.522
		c-1.488,4.73-2.892,9.55-3.642,14.436c-1.469,9.561-2.319,19.215-3.667,28.797c-2.033,14.453-0.334,28.724,1.684,43
		c2.278,16.111,6.387,31.809,10.971,47.377c2.66,9.032,5.99,17.828,9.989,26.403c4.639,9.947,8.771,20.135,12.939,30.294
		c3.869,9.43,7.274,19.054,11.289,28.419c3.843,8.964,6.541,18.229,8.305,27.765c1.096,5.926,1.679,12.024,0.094,17.921
		c-0.741,2.757-0.052,5.013,0.789,7.419c-2.93,2.423-5.849,4.607-8.491,7.085c-2.784,2.611-5.303,5.504-8.1,8.444
		c-1.27-0.803-2.378-1.44-3.42-2.172c-7.912-5.561-15.777-11.189-23.724-16.699c-6.661-4.619-13.434-9.074-20.115-13.663
		c-4.743-3.257-9.632-6.352-14.073-9.986c-9.945-8.138-20.447-15.449-31.419-22.099c-13.193-7.996-26.43-15.92-39.656-23.862
		c-1.12-0.673-2.295-1.256-3.457-1.858c-11.612-6.026-23.253-11.976-35.366-16.979c-12.811-5.292-25.563-10.655-38.998-14.294
		c-21.481-5.818-43.101-10.859-65.147-14.092c-12.947-1.899-25.909-3.557-38.95-4.536c-8.086-0.608-16.204-1.381-24.294-1.246
		c-21.004,0.349-41.845-0.97-62.479-4.937c-7.185-1.381-14.306-3.119-21.412-4.87c-3.806-0.938-7.491-2.362-11.29-3.335
		c-1.44-0.369-3.484-0.707-4.501,0.009c-4.028,2.834-8.184,5.678-9.918,10.727c-0.862,2.508-0.484,4.622,1.447,6.434
		c0.954,0.896,2.025,1.681,2.895,2.65c4.532,5.051,9.657,9.625,12.674,15.899c2.381,4.953,4.996,9.795,7.294,14.785
		c6.453,14.011,12.91,27.962,21.04,41.174c8.043,13.07,17.557,24.698,28.846,34.968c10.454,9.51,21.928,17.722,33.294,26.076
		c13.149,9.664,27.667,16.961,42.45,23.547c11.181,4.981,22.807,8.991,34.927,11.633c14.07,3.068,28.122,6.014,42.44,7.597
		c14.823,1.639,29.677,3.035,44.464,4.95c17.642,2.284,35.254,4.837,52.83,7.588c18.09,2.832,36.242,5.396,54.016,9.961
		c4.308,1.107,8.564,2.418,12.875,3.51c2.425,0.615,3.407,2.238,3.647,4.498c0.138,1.297,0.279,2.622,0.168,3.913
		c-0.723,8.429-2.685,16.456-7.054,23.866c-3.081,5.225-6.888,9.843-10.793,14.406c-0.94,1.099-2.339,1.806-3.664,2.794
		c-2.769-3.113-6.015-4.543-9.461-5.961c-4.663-1.919-9.511-2.812-14.315-4.046c-6.331-1.626-12.555-3.743-18.95-5.033
		c-13.067-2.635-26.138-5.429-39.596-5.246c-2.083,0.028-4.169-0.448-6.258-0.501c-5.23-0.132-10.486-0.504-15.688-0.146
		c-10.694,0.735-21.377,1.724-32.032,2.902c-14.56,1.609-29.098,3.428-43.63,5.273c-19.254,2.444-37.999,7.371-56.755,12.129
		c-6.553,1.662-12.858,4.38-19.18,6.862c-7.302,2.868-14.572,5.841-21.714,9.08c-6.659,3.02-13.322,6.122-19.634,9.788
		c-6.545,3.801-12.73,8.237-18.957,12.562c-3.641,2.529-7.333,5.095-10.52,8.148c-7.742,7.415-15.253,15.073-22.762,22.727
		c-8.628,8.794-16.397,18.291-23.153,28.615c-11.752,17.959-22.477,36.508-32.28,55.599c-0.62,1.209-0.751,3.225-3.241,3.017
		c-1.574-2.348-1.922-5.2-2.386-8c-1.521-9.177-5.164-17.527-9.917-25.435c-1.49-2.479-3.484-3.047-6-1.67
		c-1.345,0.736-2.612,1.726-3.686,2.825c-2.009,2.056-3.813,4.311-5.782,6.408c-0.821,0.874-1.544,2.207-3.623,1.32
		c-1.073-2.98-0.827-6.367-0.788-9.712c0.144-12.59-3.588-24.229-8.671-35.535c-0.529-1.178-1.143-2.422-2.041-3.308
		c-2.106-2.078-4.261-2.932-6.824-0.474c-2.644,2.536-5.369,4.99-7.956,7.582c-5.729,5.739-11.378,11.558-17.099,17.305
		c-1.043,1.047-2.027,2.563-4.258,1.319c-0.545-2.287-1.001-4.865-1.781-7.341c-2.12-6.727-3.926-13.602-6.678-20.068
		c-4.789-11.252-12.899-20.197-21.437-28.769c-5.348-5.368-10.596-10.843-15.688-16.453c-1.817-2.001-3.645-2.814-6.191-2.096
		c-3.031,0.853-4.317,2.336-4.567,5.597c-0.119,1.553,0.089,3.128,0.109,4.694c0.038,2.877,0.349,5.79,0.016,8.626
		c-1.405,11.951-2.618,23.947-4.677,35.791c-1.291,7.425-3.41,14.823-6.141,21.852c-4.16,10.704-9.459,20.96-13.738,31.622
		c-3.988,9.937-7.642,20.043-10.767,30.281c-3.138,10.28-4.237,20.999-5.046,31.714c-0.067,0.887-0.627,1.736-0.92,2.506
		c-0.786-0.134-1.111-0.092-1.284-0.235c-1.809-1.48-3.606-2.975-5.381-4.495c-3.839-3.288-8.281-2.282-9.885,2.46
		c-0.743,2.198-1.121,4.601-1.197,6.927c-0.263,8.105-0.428,16.216-0.438,24.325c-0.031,25.499,2.669,50.664,9.427,75.32
		c0.242,0.883,0.138,1.862,0.253,3.761c-2.2-1.631-3.6-2.73-5.062-3.74c-3.657-2.528-7.208-5.249-11.053-7.454
		c-4.22-2.421-8.585,0.186-8.998,5.06c-0.066,0.775-0.021,1.578,0.098,2.348c1.368,8.785,2.31,17.668,4.246,26.327
		c3.443,15.392,9.502,29.883,16.857,43.806c3.05,5.773,6.438,11.37,9.744,17.006c4.762,8.12,9.593,16.2,14.385,24.302
		c2.412,4.077,5.313,7.742,8.77,11.001c2.471,2.329,4.798,4.817,7.118,7.3c0.906,0.97,1.535,2.135,0.646,3.482
		c-0.233,0.162-0.429,0.406-0.653,0.436c-1.803,0.238-3.611,0.441-5.419,0.647c-6.692,0.763-9.366,4.58-6.8,10.857
		c1.86,4.549,4.24,9.103,7.331,12.884c6.112,7.48,12.577,14.731,19.445,21.521c9.495,9.387,20.102,17.463,30.925,25.334
		c8.801,6.4,18.458,11.015,28.22,15.227c11.249,4.854,23.16,8.186,34.822,12.063c4.823,1.603,5.248,2.594,1.973,6.001
		c-0.543,0.565-1.21,1.016-1.721,1.605c-3.768,4.345-3.339,8.784,1.216,12.065c1.483,1.068,3.065,2.017,4.67,2.896
		c8.757,4.798,17.791,8.981,27.711,10.668c11.29,1.919,22.382,4.741,34.154,3.494c19.85-2.104,39.324-5.702,58.392-11.57
		c3.748-1.153,7.543-2.149,11.301-3.269c11.889-3.543,22.852-8.607,32.476-16.822c6.086-5.195,12.274-10.653,20.173-13.384
		c1.298-0.449,2.124-2.17,3.274-3.182c0.642-0.565,1.503-0.882,2.989-1.717c0,3.197,0.174,5.514-0.03,7.797
		c-0.955,10.722-0.929,21.456-0.029,32.157c0.436,5.188,1.032,10.546,2.745,15.407c4.261,12.088,11.181,21.813,24.976,24.479
		c10.244,1.98,18.376-1.872,23.277-11.402c0.836-1.624,1.788-3.19,2.727-4.759c0.99-1.653,2.029-3.277,3.422-5.518
		c1.327,2.915,2.435,4.986,3.235,7.17c2.43,6.63,7.172,10.769,13.683,13.101c1.971,0.706,3.933,1.437,5.905,2.141
		c7.729,2.76,15.414,2.029,23.162-0.072c7.038-1.909,11.668-6.663,15.634-12.374c1.303-1.876,2.755-3.648,4.56-6.022
		c1.949,2.63,3.701,4.559,4.947,6.772c2.189,3.889,5.533,6.342,9.499,7.844c8.323,3.154,16.264,3.174,23.507-3.122
		c4.832-4.2,8.837-8.807,11.128-14.899c1.732-4.606,3.931-9.035,5.948-13.601c6.78,0.192,12.724,1.946,19.027,3.312
		c0.298,2.035,0.678,3.797,0.789,5.577c0.163,2.61,0.138,5.231,0.187,7.848c0.21,11.369,4.49,20.491,13.429,27.954
		c8.948,7.471,18.494,11.409,30.227,10.033c5.385-0.631,10.198-2.27,14.397-5.606c2.246-1.785,4.292-3.822,6.41-5.764
		c1.086-0.995,2.133-2.032,3.073-2.932c0.701,0.366,1.005,0.429,1.15,0.616c1.12,1.445,2.173,2.942,3.313,4.37
		c7.546,9.457,16.964,14.571,29.414,12.63c0.773-0.121,1.572-0.075,2.347-0.189c10.522-1.548,19.593-5.541,25.395-15.065
		c0.395-0.649,1.02-1.158,1.798-2.02c1.534,0.91,3.026,1.866,4.582,2.703c2.524,1.359,4.973,2.981,7.657,3.895
		c9.026,3.072,18.285,4.365,27.713,2.113c2.234-0.534,4.474-1.568,6.378-2.862c7.494-5.095,11.623-12.528,14.043-21.058
		c0.337-1.189,0.737-2.361,1.026-3.28c2.942-0.963,4.507,0.625,5.975,2.039c4.212,4.058,9.125,6.972,14.422,9.335
		c2.149,0.958,4.31,1.923,6.348,3.09c4.49,2.573,9.451,2.998,14.418,3.226c3.495,0.16,6.68-1.059,9.43-3.275
		c1.392-1.122,2.759-2.276,4.393-3.626c2.293,1.62,4.386,3.141,6.521,4.6c7.445,5.09,15.367,7.832,24.439,4.941
		c1.243-0.396,2.582-0.5,3.813-0.924c7.868-2.704,14.147-6.902,14.914-16.176c0.014-0.172,0.326-0.319,0.499-0.48
		c0.258-0.001,0.598-0.109,0.761,0.015c2.281,1.74,4.531,3.52,6.802,5.273c10.457,8.073,26.955,9.44,37.545-0.466
		c1.911-1.789,3.82-3.581,5.726-5.375c5.574-5.248,8.395-12.033,9.589-19.298c1.602-9.746-1.605-18.238-9.276-24.508
		c-10.133-8.283-20.951-15.592-32.753-21.388c-5.105-2.507-10.509-4.532-15.243-8.22c1.743-7.459,5.693-13.638,9.295-19.991
		c5.154-9.093,10.337-18.175,15.257-27.394c4.185-7.842,7.262-16.209,10.874-24.308c4.495-10.078,8.216-20.361,11.592-30.816
		c1.044-3.234,2.376-6.412,3.046-9.723c1.865-9.225,3.787-18.462,5.054-27.78c1.232-9.061,1.989-18.213,1.103-27.401
		c-0.171-1.777-0.025-3.584-0.025-5.659c9.142-5.454,10.359-13.739,7.94-23.221c-0.776-3.042-1.61-6.07-2.312-9.129
		c-0.327-1.427-0.402-2.912-0.631-4.676c1.93-0.441,3.453-1.159,4.919-1.058c6.398,0.437,9.448-3.467,11.691-8.57
		c1.411-3.211,1.685-6.543,1.191-9.996c-1.532-10.697-4.384-20.969-9.478-30.566c-0.77-1.45-2.531-2.887-0.73-5.048
		c5.293,1.323,10.573,2.723,15.891,3.959c13.449,3.124,26.449,2.639,38.681-4.691c8.82-5.285,17.193-10.964,21.966-20.55
		c0.205-0.412,0.797-0.63,1.538-1.185c0.98,0.255,2.326,0.349,3.408,0.933c3.617,1.952,7.472,2.326,11.438,1.989
		c3.91-0.332,7.823-0.713,11.707-1.265c6.182-0.879,11.512-3.335,15.275-8.613c1.057-1.481,2.425-2.741,3.654-4.098
		c4.762-5.257,9.054-10.84,12.072-17.316c2.083-4.47,4.19-8.93,6.198-13.206c3.061-0.802,5.521,0.447,7.965,1.18
		c16.36,4.905,31.949,11.6,46.57,20.487c1.775,1.079,3.595,2.139,5.513,2.911c1.455,0.585,3.391,0.795,4.317-0.674
		c0.744-1.18,1.22-3.134,0.753-4.33c-0.715-1.831-2.113-3.584-3.647-4.854c-1.574-1.302-3.628-2.054-5.529-2.924
		c-5.472-2.507-11.121-4.671-16.429-7.48c-10.679-5.651-21.938-9.75-33.384-13.453c-1.393-0.451-2.603-1.467-4.031-2.299
		c0.695-4.441,1.387-8.545,1.969-12.664c0.576-4.078,0.405-8.299,1.97-12.043c1.158-0.369,1.885-0.787,2.625-0.809
		c10.985-0.332,22.016-1.361,32.949-0.729c16.681,0.965,33.42,2.315,49.367,8.138c2.668,0.974,5.458-1.714,4.617-4.459
		c-0.421-1.374-1.438-2.837-2.61-3.639c-1.458-0.998-3.31-1.539-5.068-1.96c-18.15-4.35-36.663-5.943-55.233-6.733
		c-7.283-0.31-14.617,0.438-21.921,0.83c-4.764,0.256-5.915-0.476-6.771-5.411c-0.85-4.898-1.617-9.817-2.205-14.753
		c-0.399-3.347,0.581-4.825,3.566-6.194c1.185-0.544,2.419-1.026,3.677-1.362c16.24-4.331,32.708-7.255,49.557-7.404
		c10.19-0.09,20.422-0.678,30.533,1.317c2.307,0.455,4.626,0.982,6.96,1.117c1.142,0.065,2.636-0.384,3.428-1.156
		C2402.816,1262.122,2402.733,1260.439,2401.9,1258.92z M2199.488,1131.675c2.155,0.018,2.516,1.809,3.135,3.136
		c6.513,13.975,12.961,27.981,19.433,41.976c1.871,4.046,3.898,7.971,7.059,11.24c0.816,0.844,1.013,2.286,1.738,4.043
		c-6.212,2.858-10.576,0.229-14.592-2.597c-2.28-1.604-4.17-4.009-5.694-6.398c-7.174-11.245-10.99-23.646-12.128-36.901
		c-0.201-2.347-0.447-4.696-0.513-7.048C2197.852,1136.532,2197.735,1133.881,2199.488,1131.675z M1928.929,942.178
		c-2.04-5.096-4.456-10.058-6.225-15.244c-3.222-9.449-7.709-18.299-12.059-27.234c-2.399-4.926-4.949-9.861-6.594-15.057
		c-3.944-12.458-7.778-24.977-10.957-37.646c-5.784-23.058-6.89-46.508-4.32-70.115c2.481-22.789,8.832-44.613,17.484-65.732
		c4.65-11.35,10.32-22.282,15.507-33.414c5.298-11.366,10.633-22.717,15.802-34.141c1.171-2.589,1.79-5.439,2.551-8.2
		c1.032-3.742,1.955-7.513,3.279-12.643c2.194,1.745,3.509,2.318,4.045,3.311c1.225,2.272,2.47,4.668,2.981,7.163
		c0.889,4.336,1.558,8.774,1.7,13.19c0.121,3.779,0.469,7.043,3.44,9.896c1.362,1.308,1.717,3.737,2.358,5.713
		c5.252,16.178,11.398,32.018,17.974,47.696c5.152,12.283,10.297,24.569,15.441,36.855c0.303,0.723,0.475,1.516,0.867,2.182
		c7.664,13.02,11.633,27.301,14.486,41.985c0.847,4.358,2.159,8.627,2.99,12.987c2.695,14.148,4.027,28.433,4.133,42.843
		c0.031,4.177,0.736,8.351,0.736,12.527c0.001,8.356,0.456,16.723-0.978,25.053c-0.751,4.365-0.948,8.84-1.181,13.277
		c-0.33,6.297-1.433,12.383-3.108,18.498c-1.996,7.288-2.933,14.863-4.399,22.3c-0.909,4.612-1.795,9.238-2.963,13.788
		c-1.776,6.919-1.777,14.016-1.958,21.03c-0.168,6.496,0.78,13.022,1.249,19.533c0.109,1.522,0.268,3.042,0.451,5.1
		c-6.454,1.006-12.588,1.731-18.619,2.964c-6.388,1.306-12.68,2.914-19.194,3.758c-6.146,0.796-12.131,2.835-18.269,4.347
		c-0.517-1.119-1.133-1.802-1.074-2.42c1.408-14.71-2.438-28.57-7.025-42.244C1934.994,956.662,1931.844,949.457,1928.929,942.178z
		 M1572.169,1676.8c-10.085,7.917-20.222,15.787-32.347,20.464c-3.158,1.218-6.429,2.151-9.672,3.136
		c-2.752,0.836-5.598,1.391-8.301,2.355c-17.104,6.095-34.894,8.881-52.779,11.404c-14.058,1.983-27.608,0.047-41.022-3.963
		c-3.252-0.972-6.528-1.869-9.752-2.924c-3.426-1.12-6.939-2.179-9.409-5.982c1.363-1.038,2.417-2.176,3.719-2.755
		c1.895-0.842,3.939-1.414,5.972-1.867c4.413-0.982,6.191-4.669,5.788-8.921c-0.231-2.432-1.292-3.717-3.826-4.294
		c-3.816-0.868-7.689-1.496-11.484-2.44c-11.928-2.967-23.559-6.849-34.935-11.51c-3.868-1.585-7.72-3.276-11.712-4.477
		c-9.694-2.914-17.961-8.373-26.156-14.035c-14.721-10.171-27.58-22.421-39.646-35.54c-2.292-2.492-4.289-5.281-6.211-8.077
		c-0.826-1.202-1.114-2.774-1.861-4.742c5.023-1.531,9.634-1.201,14.245-0.637c1.024,0.125,1.994,0.639,3.014,0.863
		c5.92,1.3,8.953-0.638,10.196-6.473c0.463-2.172-0.384-4.558-2.521-5.16c-9.333-2.631-15.082-10.129-21.99-15.991
		c-7.062-5.993-12.105-13.66-16.426-21.798c-0.368-0.693-0.645-1.485-1.167-2.038c-6.017-6.37-9.004-14.644-13.745-21.82
		c-6.243-9.45-9.654-20.278-14.17-30.562c-3.267-7.44-5.536-15.23-7.418-23.123c-0.544-2.282-0.83-4.632-1.11-6.966
		c-0.117-0.978,0.09-1.995,0.146-2.946c0.819,0,1.458-0.202,1.801,0.032c2.806,1.911,5.599,3.849,8.315,5.886
		c4.389,3.289,8.667,6.729,13.09,9.969c2.801,2.052,4.718,2.165,6.393,0.665c2.457-2.199,4.216-4.742,3.126-8.258
		c-0.299-0.965-0.974-1.82-1.512-2.704c-5.636-9.24-9.351-19.178-11.702-29.765c-5.364-24.148-6.948-48.641-7.367-73.264
		c-0.035-2.053,0.293-4.112,0.429-5.87c1.846-1.203,2.905-0.408,3.736,0.629c2.775,3.463,5.476,6.985,8.205,10.485
		c2.048,2.626,4.071,2.59,6.545,0.201c2.107-2.035,2.469-4.493,2.39-7.178c-0.162-5.492-0.206-10.989-0.498-16.474
		c-0.608-11.408,1.906-22.339,4.738-33.252c3.632-13.996,9.438-27.103,15.555-40.155c4.538-9.683,8.908-19.595,11.847-29.838
		c3.746-13.052,5.311-26.646,6.808-40.173c0.278-2.514-0.271-5.251,1.707-7.383c5.893,3.297,14.434,11.891,20.75,20
		c5.878,7.546,10.188,15.784,12.897,24.933c2.757,9.311,4.259,18.839,4.856,28.843c2.103,0.715,3.971,1.351,6.238,2.122
		c8.715-13.415,18.068-25.844,31.371-35.325c1.163,2.146,2.305,3.63,2.817,5.305c2.285,7.492,4.552,14.933,4.221,23.002
		c-0.343,8.351,0.061,16.735,0.232,25.103c0.026,1.264,0.401,2.583,0.891,3.762c0.995,2.394,3.945,3.331,5.825,1.554
		c2.441-2.306,4.636-4.936,6.6-7.668c2.889-4.02,5.328-8.381,9.798-11.74c0.839,1.106,1.664,2.008,2.266,3.04
		c0.52,0.892,0.909,1.903,1.148,2.911c2.472,10.425,4.839,20.875,7.377,31.283c0.923,3.785,0.122,7.19-1.257,10.68
		c-6.25,15.823-11.056,32.098-15.485,48.519c-3.17,11.752-3.176,23.809-4.719,35.715c-1.994,15.379-1.479,30.818-1.736,46.242
		c-0.048,2.869,0.067,5.774,0.465,8.611c2.327,16.574,4.472,33.181,7.237,49.683c2.904,17.331,7.974,34.15,14.585,50.403
		c2.53,6.219,6.927,11.659,10.227,17.59c3.596,6.466,8.482,11.902,13.196,17.5c3.725,4.422,8.399,7.123,14.153,7.509
		c3.182,0.214,5.167,1.476,7.003,4.11c7.419,10.643,17.516,18.611,27.389,26.795c3.004,2.49,5.913,5.154,8.517,8.053
		c2.839,3.161,5.984,5.831,9.649,7.93c0.908,0.52,1.907,0.928,2.709,1.579c5.656,4.594,12.371,6.587,19.325,8.065
		c1.781,0.379,3.52,0.98,5.251,1.561c6.451,2.165,12.901,4.271,19.73,5.01c2.831,0.307,5.61,1.101,8.961,1.786
		C1573.078,1675.162,1572.848,1676.267,1572.169,1676.8z M2160.271,1441.306c0.174,1.279,0.112,2.623-0.054,3.909
		c-0.756,5.825-4.09,8.273-9.782,7.182c-1.793-0.344-3.522-1.069-5.322-1.315c-2.868-0.391-5.223,1.901-4.707,4.788
		c0.455,2.547,1.496,4.988,2.249,7.484c1.432,4.748,2.951,9.474,4.22,14.265c0.746,2.814,0.697,5.667-0.645,8.431
		c-1.348,2.78-3.398,4.327-6.38,5.286c-2.79,0.897-4.024,3.015-3.276,5.466c2.613,8.557,1.475,17.183,0.514,25.716
		c-1.14,10.121-2.844,20.191-4.631,30.225c-2.635,14.788-8.498,28.555-14.149,42.346c-8.652,21.114-19.587,41.068-31.482,60.509
		c-3.742,6.116-5.565,12.965-7.34,19.79c-0.952,3.663,0.857,6.466,4.71,6.672c14.45,0.773,25.008,9.849,36.613,16.685
		c3.145,1.853,5.981,4.223,9.021,6.263c8.856,5.943,10.445,13.808,7.091,22.617c-2.988,7.85-7.897,14.667-15.914,18.658
		c-4.793,2.386-9.458,2.571-14.396,0.801c-4.028-1.444-7.418-3.864-10.573-6.642c-4.517-3.977-8.981-8.015-13.419-12.08
		c-1.89-1.731-3.92-2.493-6.447-1.647c-2.242,0.75-3.483,2.492-3.142,4.756c0.154,1.021,0.536,2.01,0.824,3.01
		c0.507,1.76,1.118,3.497,1.516,5.283c1.844,8.269-1.29,13.036-9.733,14.628c-9.654,1.82-20.337-1.651-24.72-13.188
		c-0.83-2.186-1.663-4.435-2.918-6.382c-2.161-3.354-6.47-2.926-8.134,0.716c-0.53,1.159-0.665,2.507-0.922,3.781
		c-0.465,2.305-0.733,4.661-1.359,6.919c-1.194,4.305-3.03,5.59-7.487,4.84c-2.802-0.472-5.599-1.358-8.209-2.492
		c-3.832-1.665-7.57-3.585-11.213-5.636c-5.971-3.36-10.194-7.979-11.024-15.235c-0.473-4.14-1.477-8.243-2.529-12.288
		c-2.55-9.808-8.445-16.679-18.189-19.99c-0.743-0.252-1.496-0.477-2.253-0.684c-2.349-0.643-3.347-2.349-3.589-4.607
		c-0.727-6.772-0.783-13.521,0.536-21.118c3.365-0.171,5.945-0.463,8.517-0.406c16.872,0.373,31.904-4.684,45.597-15.405
		c1.113,0.415,2.495,1.026,3.933,1.446c2.936,0.858,5.673,0.142,8.329-1.199c12.052-6.089,22.474-14.198,31.496-24.295
		c7.069-7.91,11.432-17.39,16.8-26.862c2.38,0.251,4.896,0.529,7.414,0.78c3.265,0.324,6.129-0.463,8.738-2.61
		c4.505-3.708,8.223-7.853,10.63-13.336c2.939-6.694,6.412-13.164,9.888-19.606c1.367-2.534,1.703-4.909,0.599-7.472
		c-1.248-2.894-4.526-3.746-7.218-2.083c-2.163,1.335-2.975,3.508-4.025,5.63c-3.594,7.261-7.29,14.473-11.009,21.672
		c-1.594,3.087-3.85,5.621-7.011,7.183c-0.632,0.312-1.862,0.511-2.156,0.179c-0.576-0.653-1.092-1.803-0.922-2.594
		c0.822-3.825,2.133-7.556,2.782-11.403c0.608-3.605-1.69-5.882-5.449-5.99c-1.736-0.05-3.007,0.787-3.733,2.347
		c-0.326,0.701-0.564,1.469-0.694,2.232c-2.11,12.362-7.975,23.262-13.987,33.939c-8.036,14.271-20.272,24.469-34.463,32.387
		c-2.953,1.647-5.562,2.117-8.439-0.777c-2.488-2.502-4.148-2.204-6.663,0.563c-5.048,5.551-11.254,9.237-18.043,12.181
		c-12.314,5.341-24.948,5.348-37.64,2.026c-7.099-1.858-14.063-0.606-21.057-0.059c-1.863,0.146-3.888,1.592-5.346,2.964
		c-5.873,5.526-9.531,12.371-11.268,20.248c-1.053,4.776,0.861,8.264,4.935,10.491c5.74,3.139,11.61,6.068,18.056,7.519
		c6.629,1.492,13.305,2.783,19.923,4.318c10.882,2.524,14.449,6.482,15.779,17.551c0.21,1.746-0.111,3.64-0.564,5.367
		c-1.258,4.794-2.778,9.519-4.077,14.304c-1.828,6.73-5.317,12.511-10.049,17.53c-3.706,3.931-8.752,4.883-13.724,4.399
		c-8.982-0.873-17.372-3.695-24.25-9.932c-0.773-0.701-1.403-1.562-2.18-2.258c-3.885-3.482-8.512-2.156-10.341,2.946
		c-0.528,1.472-0.993,2.968-1.54,4.433c-1.775,4.755-5.227,7.949-9.979,9.285c-5.015,1.411-10.167,2.588-15.336,3.126
		c-5.576,0.58-10.264-1.523-13.039-6.819c-0.607-1.158-1.208-2.348-2.007-3.371c-3.919-5.011-5.217-10.716-4.811-16.958
		c0.135-2.081,0.144-4.204-0.11-6.268c-0.309-2.513-2.219-4.089-4.809-4.397c-3.119-0.371-5.409,0.729-6.311,3.406
		c-0.748,2.22-1.166,4.558-1.636,6.863c-1.002,4.91-2.703,9.547-5.088,13.957c-2.502,4.627-6.289,7.53-11.268,9.139
		c-14.639,4.732-29.775-2.91-34.484-17.608c-0.628-1.959-0.919-4.106-0.93-6.168c-0.026-5.233,0.179-10.468,0.331-15.701
		c0.03-1.042-0.099-2.298,0.415-3.082c2.831-4.318,1.579-8.838,1.357-13.475c-0.196-4.101,0.839-8.308,1.667-12.399
		c1.006-4.966,1.452-9.877-0.372-14.697c-0.828-2.186-0.352-4.169,0.413-6.089c1.258-3.156,2.746-6.221,4.181-9.303
		c0.551-1.183,1.363-2.257,1.816-3.471c1.585-4.239-0.925-8.173-5.449-8.147c-3.107,0.018-6.214,0.696-9.316,1.114
		c-2.032,0.274-4.055,0.613-6.556,0.995c-0.352-1.891-1.016-3.394-0.794-4.752c0.33-2.019,1.101-4.025,2.007-5.879
		c5.131-10.503,12.574-19.255,21.195-26.994c9.347-8.39,19.307-16.037,29.273-23.685c5.166-3.964,9.877-8.575,14.454-13.228
		c2.145-2.181,3.821-4.999,5.102-7.806c1.342-2.94-0.237-5.656-3.312-6.904c-2.217-0.9-4.164-0.441-5.493,1.543
		c-4.689,7-10.518,12.829-17.187,17.988c-9.92,7.675-20.034,15.197-29.211,23.705c-10.526,9.758-20.483,20.231-26.17,33.878
		c-1.331,3.193-2.144,6.42-2.203,9.882c-0.059,3.463,1.246,6.187,4.259,7.833c2.263,1.236,4.671,2.289,7.128,3.062
		c1.943,0.611,4.058,0.672,6.71,1.07c-0.538,1.806-0.955,3.195-1.366,4.585c-1.038,3.51-2.177,6.994-3.085,10.537
		c-1.067,4.166-1.113,8.464,0.87,12.294c2.513,4.853,1.199,9.731,0.908,14.628c-0.105,1.761-1.427,2.957-2.964,3.288
		c-2.51,0.54-5.177,1.108-7.666,0.791c-3.048-0.387-5.982-1.675-9.27-2.665c-0.342-2.219-0.727-4.224-0.951-6.246
		c-1.181-10.653-2.32-21.31-3.481-31.966c-0.085-0.78-0.059-1.627-0.362-2.321c-4.481-10.264-7.74-21.136-15.323-29.839
		c-4.608-5.289-9.852-9.341-16.97-10.486c-1.012-0.163-1.993-0.514-3.324-0.866c-0.028-2.6,1.542-4.391,2.736-6.267
		c3.79-5.959,7.737-11.82,11.467-17.816c1.785-2.87,3.501-5.846,4.757-8.971c3.608-8.976,7.116-17.999,10.375-27.107
		c2.785-7.785,2.662-15.989,2.246-24.087c-0.224-4.364,0.325-7.985,2.995-11.709c5.907-8.241,7.234-17.756,6.042-27.67
		c-1.32-10.975-3.347-21.736-10.175-30.835c1.044-2.519,3.438-2.564,5.211-3.329c5.755-2.482,8.594-6.774,8.198-12.928
		c-0.215-3.353-0.6-6.878-1.842-9.949c-4.731-11.698-10.404-22.86-19.859-31.663c-3.618-3.369-6.897-7.101-10.673-11.022
		c1.328-1.194,2.425-2.167,3.506-3.156c3.27-2.992,6.84-5.724,9.732-9.046c4.87-5.595,4.992-13.495,0.583-19.551
		c-1.837-2.524-3.929-4.939-6.249-7.022c-8.58-7.704-17.56-14.752-28.578-18.915c-18.624-7.037-37.843-9.911-57.684-9.659
		c-11.541,0.147-23.042,0.296-34.33,3.03c-4.065,0.984-8.123,2.026-12.127,3.229c-13.008,3.909-26.138,7.457-38.507,13.254
		c-4.095,1.919-7.865,4.151-10.62,7.817c-0.823,1.095-1.252,2.294-0.462,3.619c0.95,1.593,2.443,1.912,4.068,1.504
		c1.251-0.314,2.637-0.653,3.607-1.427c6.262-4.996,13.561-7.947,21.065-10.186c13.027-3.887,25.826-8.667,39.26-11.046
		c6.682-1.183,13.461-2.166,20.227-2.433c6.774-0.267,13.587,0.499,20.385,0.76c9.968,0.383,19.733,1.953,29.472,4.158
		c15.871,3.594,28.887,11.9,40.2,23.204c4.744,4.74,4.94,10.113,0.908,15.548c-3.379,4.555-7.471,8.052-13.388,8.752
		c-2.158,0.255-4.285,0.831-5.033,3.113c-0.877,2.674,0.849,4.347,2.728,5.968c3.169,2.735,6.136,5.704,9.312,8.431
		c10.844,9.312,17.43,21.386,22.515,34.448c0.474,1.218,0.908,2.465,1.202,3.736c1.375,5.957-0.704,9.532-6.592,11.274
		c-1.495,0.443-3.088,0.547-4.601,0.939c-4.379,1.134-5.327,3.32-3.212,7.573c0.93,1.869,1.973,3.705,3.167,5.414
		c7.431,10.633,9.147,22.691,8.478,35.199c-0.328,6.119-2.379,11.826-7.36,15.939c-2.263,1.869-3.051,4.114-2.553,6.946
		c0.271,1.544,0.508,3.107,0.583,4.67c0.44,9.167,0.651,18.218-3.325,26.953c-3.349,7.359-5.961,15.056-8.814,22.636
		c-4.591,12.195-13.444,21.758-20.117,32.665c-0.909,1.486-2.433,2.596-3.55,3.754c-0.658-0.262-0.99-0.286-1.109-0.458
		c-4.33-6.279-9.797-11.481-15.255-16.758c-6.308-6.099-13.146-11.105-21.499-13.988c-9.637-3.326-19.128-7.105-28.861-10.11
		c-6.21-1.918-12.732-2.84-19.134-4.112c-3.311-0.658-5.739,0.698-6.153,3.202c-0.431,2.606,1.793,6.103,4.388,6.585
		c1.526,0.283,3.13,0.276,4.692,0.218c5.849-0.215,11.419,0.978,16.883,2.984c5.403,1.983,10.804,4.019,16.326,5.616
		c6.111,1.767,11.607,4.771,17.114,7.764c2.273,1.236,4.408,2.854,6.306,4.62c3.448,3.207,6.914,6.453,9.914,10.063
		c2.472,2.975,5.153,6.258,6.153,9.847c1.108,3.98,3.047,6.436,6.975,8.176c3.142,0.292,6.069-1.687,9.16-2.966
		c5.604-2.318,10.701-1.485,15.542,1.929c5.533,3.902,9.179,9.326,11.825,15.373c4.747,10.846,8.12,22.095,8.834,34.013
		c0.156,2.612,0.11,5.279,0.643,7.819c1.675,7.979,0.427,15.661-2.291,23.119c-1.965,5.391-4.174,10.744-6.857,15.805
		c-2.329,4.393-5.49,8.248-10.78,9.677c-2.831,0.765-5.268,0.324-7.292-1.568c-4.456-4.166-7.971-9.053-9.769-14.933
		c-0.404-1.323,0.163-3.026,0.547-4.485c0.426-1.62,0.7-3.485-0.578-4.414c-4.396-3.195-5.579-8.047-7.161-12.729
		c-0.848-2.51-2.702-3.759-5.157-4.261c-3.438-0.702-6.385,2.124-5.552,5.499c0.429,1.74,1.411,3.342,2.144,5.006
		c2.712,6.152,3.029,12.093-1.284,17.778c-2.212,2.915-4.064,6.108-6.324,8.982c-3.563,4.533-8.342,7.091-14.094,7.606
		c-2.598,0.233-5.245,0.339-7.838,0.125c-7.455-0.617-12.835-4.424-15.564-11.384c-2.479-6.322-4.586-12.796-6.699-19.254
		c-2.537-7.753-3.397-8.217-11.26-5.132c-2.746,7.458-5.405,15.1-8.402,22.608c-1.142,2.861-2.72,5.698-4.696,8.044
		c-4.263,5.062-10.867,5.466-16.016,1.178c-4.936-4.111-8.487-9.225-10.196-15.498c-3.127-11.482-4.7-23.059-2.26-34.913
		c0.527-2.559,0.796-5.174,1.119-7.771c0.528-4.241,0.043-8.391-1.634-12.315c-1.749-4.094-4.594-6.767-9.339-7.323
		c-13.25-1.552-26.299-4.239-39.25-7.417c-1.525-0.375-3.041-0.817-4.588-1.065c-8.403-1.348-15.689-5.569-23.154-9.206
		c-5.499-2.68-9.34-7.574-13.228-12.139c-2.571-3.018-5.215-5.425-8.789-7.418c-6.631-3.7-12.082-9.161-17.113-14.863
		c-2.922-3.311-5.526-6.935-7.984-10.612c-1.773-2.653-3.85-4.162-7.111-3.848c-1.299,0.125-2.616,0.067-3.923,0.122
		c-2.245,0.096-4.089-0.753-5.589-2.372c-2.134-2.304-4.531-4.433-6.301-6.993c-4.299-6.219-9.633-11.744-12.645-18.851
		c-0.805-1.899-2.23-3.529-3.312-5.318c-0.946-1.564-2.144-3.078-2.657-4.787c-3.831-12.767-8.825-25.162-11.667-38.252
		c-3.837-17.672-6.256-35.556-8.62-53.453c-0.649-4.917-1.088-9.901-1.093-14.855c-0.011-11.517-0.264-23.078,0.626-34.541
		c1.112-14.33,2.803-28.657,5.152-42.834c1.399-8.444,4.335-16.665,6.944-24.87c5.874-18.478,13.582-36.232,21.8-53.768
		c1.106-2.361,2.359-4.666,3.699-6.903c6.047-10.098,12.694-19.882,18.074-30.321c4.965-9.635,11.587-18.008,17.769-26.732
		c8.19-11.556,18.269-21.4,28.397-31.258c12.334-12.006,26.252-21.833,41.475-29.366c18.451-9.131,36.884-18.649,57.364-22.953
		c8.179-1.719,16.198-4.193,24.313-6.233c15.019-3.774,30.395-5.372,45.711-7.268c13.241-1.639,26.529-2.902,39.79-4.387
		c12.797-1.432,25.599-1.477,38.408-0.253c6.247,0.597,12.493,1.215,18.727,1.939c13.307,1.544,26.061,5.67,39.082,8.548
		c4.06,0.897,7.946,2.605,11.882,4.024c1.185,0.428,2.27,1.134,3.863,1.95c-0.572,1.382-0.787,2.718-1.543,3.578
		c-2.588,2.945-5.147,5.978-8.114,8.514c-7.269,6.213-12.583,13.983-17.897,21.755c-2.37,3.466-1.507,5.81,2.678,7.011
		c2.978,0.854,6.158,1.024,9.255,1.444c1.757,0.238,3.755-0.231,4.918,2.051c-0.751,2.791-3.102,4.618-5.048,6.621
		c-19.228,19.796-30.735,43.398-34.835,70.615c-0.738,4.898-1.026,9.906-1.014,14.862c0.012,5.502,5.256,8.977,10.341,7.113
		c4.185-1.534,8.211-3.375,11.357-6.747c1.196-1.282,2.702-2.274,4.748-3.959c0.322,1.658,0.71,2.56,0.616,3.409
		c-0.171,1.548-0.502,3.105-0.986,4.587c-3.47,10.625-4.081,21.593-3.616,32.616c0.415,9.85,3.162,19.034,9.06,27.158
		c3.296,4.54,7.385,6.324,12.918,4.992c2.748-0.662,4.637-2.285,6.269-4.398c2.239-2.9,4.442-5.828,6.717-8.699
		c0.608-0.766,1.422-1.369,2.631-2.508c1.746,4.395,3.366,8.225,4.796,12.126c2.339,6.379,4.356,12.868,8.027,18.697
		c2.552,4.054,5.751,7.456,9.469,10.379c1.416,1.113,3.092,1.976,4.77,2.659c4.746,1.932,7.321,0.951,9.655-3.544
		c0.6-1.156,1.004-2.413,1.539-3.605c0.404-0.9,0.874-1.77,1.528-3.081c1.155,0.783,2.09,1.193,2.72,1.882
		c4.064,4.439,8.017,8.98,12.091,13.41c4.833,5.255,10.75,9.158,16.851,12.7c4.358,2.53,6.413,2.04,12.597-1.58
		c3.88,2.222,7.906,4.558,11.961,6.843c19.784,11.149,41.212,16.351,63.737,17.502c6.075,0.31,11.994-0.809,17.807-2.457
		c5.283-1.498,10.541-3.091,15.786-4.719c7.746-2.404,15.332-5.044,22.276-9.514c6.819-4.389,14.428-7.362,21.993-10.3
		c1.219-0.474,2.598-0.683,3.664-1.38c5.033-3.288,10.229-2.99,15.826-1.602c6.721,1.667,13.524,0.803,20.204-0.823
		c2.024-0.493,4.026-1.073,6.307-1.685C2148.8,1404.12,2157.508,1420.969,2160.271,1441.306z M1951.01,1690.019
		c-1.601,0.032-3.368,0.335-5.036,0.053c-5.384-0.912-10.618-2.332-15.291-5.633c-1.364-6.831,2.255-11.464,6.696-15.598
		c4.291-3.995,9.286-5.393,14.895-3.234C1953.537,1672.285,1953.147,1679.906,1951.01,1690.019z M2218.96,1390.189
		c-5.08,3.188-10.247,6.241-15.427,9.264c-1.11,0.648-2.415,1.198-3.675,1.315c-7.801,0.725-15.603,1.871-23.424,0.036
		c-8.903-2.087-17.806-4.144-26.268-7.729c-2.645-1.121-5.074-2.47-6.857-5.319c1.038-0.724,1.802-1.397,2.679-1.848
		c6.969-3.583,14.057-6.949,20.912-10.736c5.026-2.776,9.886-5.907,14.565-9.238c2.292-1.632,4.092-4.003,5.959-6.173
		c2.36-2.744,4.466-5.719,7.366-7.922c5.369,5.504,10.123,11.069,15.602,15.793c5.282,4.553,11.314,8.237,17.262,12.477
		C2225.106,1383.952,2222.818,1387.769,2218.96,1390.189z M2196.858,1275.72c-3.06-4.221-6.218-8.371-9.345-12.543
		c-3.193-4.259-7.015-7.654-12.112-9.592c-2.414-0.918-4.681-2.323-6.851-3.755c-2.574-1.699-2.991-4.396-0.808-6.684
		c2.512-2.633,5.278-5.084,8.227-7.206c1.037-0.746,3.116-0.765,4.422-0.293c6.786,2.449,13.783,2.742,20.873,2.667
		c11.745-0.125,23.492-0.229,35.237-0.16c2.824,0.016,5.714,0.487,8.446,1.222c2.675,0.72,3.673,2.813,2.846,5.524
		c-0.599,1.966-1.364,4.039-2.619,5.614c-2.431,3.048-4.962,6.151-7.982,8.57c-8.789,7.038-18.54,12.626-28.551,17.733
		c-2.05,1.045-4.362,1.575-5.189,1.865C2199.565,1278.903,2198.154,1277.509,2196.858,1275.72z M2263.064,1310.971
		c1.196,2.851,3.929,5.075,7.525,3.663c3.891-1.529,7.868-2.86,11.863-4.099c3.24-1.005,6.545-1.82,9.857-2.557
		c0.915-0.203,1.959,0.173,3.239,0.316c1.262,6.357-0.251,12.127-2.039,17.847c-0.617,1.974-2.261,2.875-4.242,2.893
		c-2.351,0.021-4.709-0.321-7.054-0.231c-3.381,0.13-6.797,0.263-10.115,0.857c-2.592,0.463-3.487,3.395-2.025,5.584
		c1.201,1.798,2.711,3.213,5.019,3.358c1.566,0.099,3.145,0.038,4.703,0.197c1.555,0.158,3.111,0.418,4.629,0.79
		c1.238,0.304,2.42,0.838,3.456,1.208c1.292,3.025-0.096,5.018-2.033,6.376c-2.795,1.96-3.557,4.626-4.634,7.704
		c-2.217,6.335-4.985,12.633-10.28,17.253c-3.039,2.652-6.671,4.211-10.574,4.886c-9.618,1.665-18.74,0.142-27.231-4.794
		c-2.713-1.577-5.348-3.323-8.176-4.661c-6.578-3.112-11.308-8.338-16.131-13.512c-3.115-3.342-4.132-7.199-3.138-11.59
		c1.856-8.193,2.851-16.484,3.148-24.877c0.259-7.311,1.043-14.624,0.89-21.921c-0.106-5.063,1.551-8.11,5.938-10.735
		c9.186-5.497,18.041-11.554,26.958-17.491c5.284-3.518,8.879-8.823,13.079-13.406c4.427-4.831,3.761-13.086-0.34-18.198
		c-0.642-0.8-1.424-1.66-2.331-2.046c-5.03-2.141-9.85-5.012-15.556-5.031c-3.66-0.012-7.382-0.318-10.97,0.218
		c-10.968,1.637-21.934,0.848-32.912,0.548c-2.945-0.08-5.647-0.515-8.023-2.54c-2.656-2.264-5.833-2.083-8.944-1.09
		c-7.732,2.468-13.917,7.083-18.619,13.695c-3.347,4.707-2.795,11.052,1.803,14.731c3.031,2.425,6.444,4.598,10.023,6.055
		c5.096,2.076,8.776,5.448,11.865,9.821c2.709,3.834,5.562,7.58,8.568,11.183c1.483,1.777,3.285,3.423,5.249,4.631
		c2.534,1.558,3.46,3.682,3.726,6.456c0.675,7.051,1.111,14.09,0.11,21.148c-0.844,5.956-1.687,11.914-2.417,17.885
		c-0.34,2.781-1.197,5.024-4.029,6.18c-2.527,1.031-3.733,3.216-5.212,5.48c-4.737,7.252-10.525,13.765-17.859,18.475
		c-13.911,8.935-28.704,16.304-44.419,21.389c-17.599,5.694-34.113,2.896-48.769-8.814c-6.581-5.258-12.276-14.511-13.809-22.342
		c0.736-0.532,1.481-1.372,2.406-1.692c8.399-2.908,16.753-6.035,25.544-7.55c3.057-0.527,6.255-0.203,9.384-0.368
		c2.055-0.108,3.276-1.729,2.997-3.747c-0.473-3.414-2.652-5.725-6.105-6.149c-5.018-0.616-9.94,0.219-14.752,1.543
		c-4.54,1.249-8.992,2.811-13.511,4.139c-1.685,0.495-3.449,0.719-5.2,1.071c-0.877-7.265-0.052-11.407,3.648-18.524
		c10.653-1.904,21.48-3.318,32.427-0.553c1.518,0.384,3.079,0.637,4.636,0.814c1.873,0.212,3.773,0.126,4.672-1.919
		c1.093-2.486,0.123-5.725-2.117-6.865c-1.378-0.701-2.921-1.297-4.442-1.464c-5.971-0.655-11.954-1.268-17.949-1.599
		c-3.367-0.186-6.751,0.071-10.176-0.925c0.126-1.803,0.429-3.363,0.302-4.887c-0.299-3.598-3.835-5.439-6.861-3.429
		c-1.685,1.119-3.039,2.811-4.343,4.408c-1.484,1.819-2.728,3.831-4.115,5.731c-0.301,0.411-0.77,0.7-1.53,1.37
		c-8.142,1.075-16.731,1.948-25.224,3.388c-15.211,2.58-30.385,5.389-45.522,8.37c-3.229,0.636-6.231,2.419-9.917,3.908
		c0.989,1.83,1.37,3.507,2.415,4.262c2.079,1.501,4.524,2.495,6.671,3.622c11.079-4.487,22.521-5.933,33.781-8.088
		c11.008-2.107,22.133-3.419,33.395-4.163c0.403,1.1,0.928,1.821,0.871,2.492c-0.445,5.211-1.053,10.408-1.502,15.62
		c-0.227,2.636-1.496,4.139-3.926,5.265c-13.282,6.16-26.493,12.476-39.715,18.763c-1.169,0.556-2.506,1.079-3.298,2.014
		c-0.761,0.9-1.401,2.379-1.252,3.491c0.591,4.406,4.984,6.524,8.737,4.348c3.618-2.097,7.037-4.591,10.793-6.389
		c8.493-4.066,17.13-7.833,25.741-11.649c0.892-0.396,2-0.305,3.239-0.47c0.861,1.438,1.796,2.688,2.413,4.078
		c4.041,9.115,10.218,16.33,18.71,21.601c2.583,1.603,5.593,2.87,6.824,6.146c-0.788,0.632-1.317,1.346-2.003,1.563
		c-7.3,2.302-13.799,6.268-20.506,9.793c-8.37,4.4-17.01,8.082-26.223,10.339c-1.776,0.435-3.547,0.958-5.246,1.63
		c-8.978,3.551-18.342,3.947-27.823,3.591c-13.761-0.516-26.842-4.359-39.673-8.797c-8.382-2.899-15.943-7.814-23.189-12.998
		c-2.79-1.996-5.56-3.878-9.482-4.517c-0.8,0.588-1.947,1.211-2.794,2.114c-0.883,0.943-1.476,2.156-2.001,2.956
		c-4.312-0.755-6.53-3.171-8.688-5.243c-7.167-6.879-14.255-13.862-20.165-21.912c-1.521-2.071-3.329-3.813-3.299-6.842
		c0.022-2.266-2.028-3.525-4.318-3.819c-2.344-0.301-4.83,1.105-5.543,3.449c-0.835,2.746-1.298,5.603-1.962,8.402
		c-0.475,2.002-1.015,3.989-1.701,6.666c-1.676-1.271-3.08-1.96-3.943-3.07c-1.6-2.055-3.178-4.222-4.248-6.577
		c-4.44-9.77-8.773-19.611-10.894-30.206c-0.663-3.31-0.561-6.768-1.079-10.116c-0.226-1.461-0.802-3.14-1.795-4.158
		c-2.674-2.741-6.796-1.976-8.539,1.482c-1.879,3.727-3.253,7.739-5.4,11.293c-2.693,4.458-5.905,8.608-9.001,12.812
		c-0.571,0.776-1.649,1.18-2.666,1.873c-5.231-6.246-7.142-13.611-8.069-21.112c-1.092-8.84-0.917-17.694,1.614-26.446
		c2.542-8.792,4.529-17.746,6.74-26.633c0.252-1.012,0.455-2.048,0.558-3.085c0.223-2.253-0.443-4.12-2.516-5.319
		c-2.45-1.416-4.464-1.47-6.521,0.313c-3.755,3.253-7.406,6.628-11.028,10.031c-3.237,3.042-6.479,6.049-10.332,8.026
		c-2.638-1.161-1.866-3.156-1.634-4.856c1.886-13.812,5.068-27.235,11.411-39.801c2.717-5.382,5.412-10.723,9.022-15.582
		c6.876-9.254,13.983-18.292,22.703-25.931c1.573-1.378,3.128-2.8,4.525-4.352c1.924-2.136,1.452-5.154-0.888-6.789
		c-2.027-1.416-4.297-1.752-6.714-1.726c-4.137,0.045-8.299,0.477-12.939-0.314c0.945-4.289,3.603-7.223,6.107-9.985
		c4.207-4.64,8.932-8.806,13.35-13.26c9.028-9.102,18.072-18.226,24.494-29.469c4.645-8.131,6.09-17.191,6.864-26.369
		c0.326-3.874,0.463-7.763,0.718-12.198c-0.937-0.618-2.087-1.783-3.468-2.219c-6.226-1.962-12.51-3.745-18.79-5.531
		c-2.011-0.572-4.091-0.902-6.114-1.436c-8.096-2.14-16.198-4.021-24.611-4.746c-7.014-0.605-13.933-2.285-20.9-3.457
		c-10.317-1.736-20.636-3.458-30.958-5.158c-5.158-0.849-10.313-1.747-15.495-2.423c-4.924-0.642-9.887-0.979-14.823-1.532
		c-3.38-0.379-6.744-0.897-10.114-1.355c-5.699-0.775-11.385-2.07-17.1-2.22c-12.112-0.318-23.83-3.158-35.741-4.715
		c-13.6-1.778-26.507-6.025-39.501-10.01c-12.576-3.857-24.147-9.968-35.691-16.172c-19-10.21-36.327-22.786-52.486-36.962
		c-5.481-4.808-10.383-10.335-15.168-15.863c-8.948-10.339-15.705-22.101-21.759-34.33c-3.48-7.029-7.31-13.864-10.115-21.231
		c-1.292-3.394-3.369-6.494-5.13-9.705c-0.881-1.605-2.11-3.065-2.739-4.755c-2.99-8.033-7.989-14.647-14.057-20.556
		c-0.355-0.346-0.518-0.89-0.778-1.357c0.411-1.826,1.778-1.606,3.055-1.319c8.93,2.008,17.933,3.755,26.751,6.177
		c7.626,2.094,15.359,3.177,23.16,4.066c1.028,0.117,2.042,0.362,3.631,0.652c-0.002,0.014-0.005,0.027-0.007,0.041
		c0.573,0.08,1.144,0.168,1.714,0.264c3.555,0.104,7.217,0.863,10.89,0.97c1.873,0.055,3.726,0.259,5.569,0.532
		c2.269-0.315,4.508-0.236,6.766,0.029c6.473-1.919,14.638,1.503,20.286,4.165c3.719,1.752,7.412,3.437,11.553,5.099
		c2.484,0.998,4.804,2.265,7.101,3.572c1.87,0.659,3.726,1.375,5.57,2.147c5.779,2.422,11.788,4.294,17.699,6.398
		c1.725,0.614,3.577,0.974,5.177,1.817c11.566,6.097,23.242,12.011,34.56,18.543c7.899,4.559,16.042,8.877,22.812,15.195
		c0.754,0.704,1.711,1.203,2.607,1.741c15.539,9.332,29.307,21.025,43.294,32.431c7.089,5.781,14.336,11.371,21.391,17.194
		c11.948,9.861,25.032,18.038,38.393,25.748c10.642,6.141,21.483,11.973,33.159,16.034c1.967,0.685,3.868,1.593,5.737,2.523
		c8.659,4.309,17.1,9.131,26.002,12.856c7.443,3.115,15.405,5.001,23.165,7.337c1.221,0.367,2.597,0.368,3.891,0.311
		c2.432-0.107,4.376-2.108,4.364-4.654c-0.004-0.924-0.584-1.974-1.2-2.721c-0.442-0.536-1.352-0.793-2.1-0.951
		c-7.727-1.627-15.077-4.338-22.221-7.651c-6.875-3.188-13.751-6.371-20.618-9.575c-9.959-4.647-20.047-9.041-29.837-14.021
		c-20.575-10.465-39.981-22.753-57.742-37.611c-9.628-8.055-19.737-15.531-29.501-23.427c-12.826-10.374-26.293-19.8-40.116-28.807
		c-15.166-9.882-31.115-18.256-47.235-26.361c-9.617-4.835-19.804-8.223-30.12-11.236c-4.016-1.173-7.997-2.467-11.973-3.768
		c-0.402-0.132-0.66-0.7-1.431-1.567c2.351-0.079,4.314-0.34,6.242-0.179c11.469,0.964,22.938,1.953,34.39,3.097
		c3.362,0.336,6.67,1.205,10.003,1.827c2.569,0.48,5.12,1.157,7.711,1.396c8.377,0.772,16.506,2.656,24.594,4.89
		c5.291,1.462,10.766,2.278,16.026,3.831c18.065,5.331,35.838,11.542,53.161,18.942c15.884,6.785,31.141,14.809,45.796,23.984
		c7.756,4.855,15.706,9.403,23.561,14.102c7.621,4.559,15.238,9.124,22.842,13.711c1.118,0.674,2.248,1.379,3.218,2.243
		c8.813,7.857,18.759,14.171,28.403,20.89c10.931,7.616,21.938,15.123,32.88,22.722c3.433,2.385,6.642,5.115,10.189,7.306
		c2.408,1.487,5.145,2.65,7.89,3.313c1.899,0.458,4.182,0.191,6.084-0.412c3.867-1.225,4.265-3.721,1.117-8.469
		c6.305-5.835,12.647-10.648,20.186-13.955c7.554-3.314,15.614-4.216,23.543-5.802c2.049-0.41,4.227-0.347,6.192-0.979
		c10.652-3.429,21.631-3.499,32.635-3.436c4.45,0.026,8.911-0.122,13.346,0.153c4.685,0.29,9.372,0.812,14.007,1.549
		c9.296,1.479,18.517,3.492,27.845,4.697c10.442,1.348,20.554,3.895,30.584,6.926c0.75,0.227,1.515,0.449,2.217,0.791
		c13.17,6.403,26.861,11.846,39.271,19.665c14.711,9.268,27.621,20.72,37.954,34.824c6.255,8.537,9.876,18.407,13.539,28.222
		c0.365,0.978,0.434,2.088,0.905,3.001c2.941,5.705,2.936,11.097,0.144,17.127c-2.517,5.438-3.098,11.645-2.25,17.727
		c1.083,7.766,2.098,15.562,3.706,23.227c0.791,3.771,2.983,7.227,4.305,10.91c2.827,7.875,8.282,13.514,14.297,19.163
		c7.212,6.773,15.142,7.829,23.889,5.554c3.207-0.834,5.351-0.772,7.738,1.517c5.306,5.089,11.072,9.592,17.782,12.765
		c1.918,0.907,3.64,2.049,4.051,4.434c0.494,2.868,2.555,4.463,4.965,5.684c8.497,4.304,13.048,11.802,16.33,20.276
		c1.606,4.147,3.073,8.355,4.393,12.601c0.535,1.72,0.606,3.609,0.713,5.431c0.135,2.299-0.886,3.895-3.02,5
		c-11.141,5.767-22.234,11.625-33.347,17.445c-0.462,0.242-0.976,0.385-1.441,0.622c-3.44,1.747-4.59,4.037-3.425,6.797
		c1.293,3.064,5.412,4.473,8.612,2.688c4.57-2.548,8.975-5.391,13.528-7.969c5.232-2.963,10.504-5.866,15.848-8.622
		c3.966-2.045,5.54-1.218,6.477,3.364c0.732,3.577,1.262,7.207,1.652,10.839c0.22,2.051-0.969,3.539-2.98,4.044
		c-2.535,0.638-5.164,0.923-7.674,1.637c-6.031,1.715-12.039,3.522-18.004,5.452c-1.442,0.467-2.856,1.375-3.946,2.429
		C2263.025,1308.727,2262.746,1310.212,2263.064,1310.971z"/>
	<path d="M1508.869,1288.034c0.654-7.602,3.027-14.864,7.789-21.457c7.378-10.216,16.251-19.1,24.924-28.111
		c6.87-7.138,14.844-13.179,23.105-18.74c9.994-6.728,20.447-12.629,31.474-17.496c10.319-4.554,21.015-7.981,32.032-10.344
		c3.303-0.708,6.726-1.066,10.104-1.145c2.007-0.047,4.096,0.583,6.035,1.242c1.711,0.581,2.883,2.697,2.141,3.612
		c-0.734,0.905-1.908,1.731-3.029,1.994c-3.556,0.835-7.208,1.262-10.77,2.078c-11.752,2.694-22.96,6.737-33.822,12.132
		c-9.619,4.778-18.954,9.858-27.951,15.736c-8.403,5.491-15.343,12.555-22.804,19.085c-6.741,5.9-12.188,12.934-17.738,19.849
		c-5.594,6.97-9.975,14.692-11.831,23.616c-0.264,1.267-0.656,2.565-1.28,3.688c-0.973,1.753-2.641,2.434-4.639,2.245
		c-1.851-0.175-3.082-1.453-3.411-3.695C1509.009,1291.036,1508.992,1289.723,1508.869,1288.034z"/>
	<path d="M2044.801,1544.849c3.105,3.755,3.863,7.292,2.448,11.333c-6.059,17.313-13.491,33.824-25.359,48.155
		c-11.837,14.294-26.188,25.273-42.3,34.16c-3.314,1.828-6.977,2.141-10.652,1.681c-0.816-0.102-1.975-1.114-2.12-1.871
		c-0.141-0.739,0.602-2.147,1.318-2.474c10.343-4.737,18.637-12.433,27.679-19.036c8.521-6.222,15.582-13.891,21.503-22.584
		c3.817-5.604,7.497-11.309,11.03-17.096c4.373-7.163,7.156-15.057,10.139-22.86
		C2039.764,1550.915,2040.719,1547.243,2044.801,1544.849z"/>
	<path d="M1647.189,1398.221c15.034-0.045,30.081,1.245,44.638,5.961c3.17,1.027,6.177,2.736,9.018,4.515
		c1.157,0.725,2.053,2.393,2.354,3.786c0.226,1.046-0.362,2.795-1.191,3.387c-0.762,0.545-2.974,0.435-3.437-0.198
		c-2.789-3.818-6.993-4.134-11.023-5.107c-18.239-4.402-36.697-5.208-55.177-2.473c-10.041,1.486-19.776,4.62-29.376,8.091
		c-5.863,2.12-12.001,3.497-18.053,5.061c-0.806,0.208-2.283-0.167-2.67-0.771c-0.817-1.276,0.142-2.42,1.159-3.323
		c0.194-0.173,0.407-0.328,0.626-0.468c15.676-9.944,32.502-16.53,51.233-17.589
		C1639.197,1398.874,1643.098,1398.525,1647.189,1398.221z"/>
	<path d="M1939.581,1430.149c4.194-0.249,7.256,2.041,9.971,4.993c2.833,3.081,5.654,6.176,8.386,9.346
		c3.656,4.242,8.214,7.161,13.117,9.775c10.371,5.531,21.317,8.773,33.085,8.251c5.446-0.241,10.844-1.558,16.264-2.379
		c1.539-0.233,3.143-0.793,4.601-0.538c1.055,0.185,2.346,1.298,2.747,2.308c0.399,1.008,0.223,2.716-0.427,3.554
		c-0.9,1.158-2.373,2.075-3.785,2.599c-8.978,3.33-18.256,4.807-27.753,3.135c-5.906-1.04-11.787-2.448-17.521-4.206
		c-13.271-4.07-22.955-13.254-31.978-23.248c-2.276-2.521-4.407-5.174-6.587-7.781
		C1938.215,1434.18,1937.681,1432.332,1939.581,1430.149z"/>
	<path d="M1801.387,1579.597c-3.298,0.214-5.047-0.79-6.518-2.426c-1.141-1.27-1.553-2.746-0.985-4.34
		c0.657-1.842,1.882-3.208,4.027-3.035c6.016,0.485,11.369-1.833,16.38-4.504c9.488-5.057,18.35-11.108,24.739-20.038
		c1.81-2.529,3.122-5.411,4.718-8.099c2.167-3.648,7.504-3.632,9.445,0.149c0.513,0.999,0.513,2.705,0.004,3.707
		c-1.77,3.476-3.507,7.072-5.912,10.102c-6.188,7.794-13.111,14.832-22.037,19.656c-6.464,3.494-13.301,5.996-20.234,8.282
		C1803.548,1579.532,1801.922,1579.522,1801.387,1579.597z"/>
	<path d="M2031.011,1124.166c17.857-0.097,29.735,6.038,39.355,17.138c6.707,7.738,10.764,16.731,12.471,26.687
		c1.458,8.502,2.646,17.093,3.213,25.693c0.701,10.624-2.046,20.759-6.333,30.423c-1.479,3.332-3.496,6.436-5.387,9.573
		c-4.945,8.201-12.462,12.436-21.742,13.846c-2.328,0.353-4.677,0.564-7.014,0.856c-5.642,0.707-10.927-0.232-15.813-3.26
		c-6.649-4.121-13.975-7.149-19.748-12.69c-1.664-1.597-3.911-2.602-5.935-3.804c-5.895-3.502-9.382-8.76-11.91-15.043
		c-7.296-18.129-6.345-36.401-1.082-54.661c2.667-9.252,8.691-16.569,15.613-23.111c0.948-0.896,2.06-1.616,3.03-2.491
		C2016.626,1127.096,2024.441,1123.341,2031.011,1124.166z M2008.071,1220.645c1.513-3.573,0.448-6.124,0.263-8.623
		c-0.293-3.97-0.349-7.931,1.329-11.579c3.275-7.118,6.411-14.347,10.345-21.099c2.178-3.739,5.641-6.843,8.926-9.786
		c2.528-2.264,5.7-3.721,9.394-3.037c8.7,1.611,16.65,4.671,22.415,11.798c4.773,5.901,9.443,11.864,11.478,19.427
		c0.334,1.24,0.234,3.036,2.405,3.802c0.932-16.347-0.199-32.221-6.783-47.131c-4.098-9.282-10.49-16.477-20.806-20.04
		c-10.355-3.576-19.926-2.298-28.382,3.584c-9.581,6.663-16.83,15.578-19.729,27.441c-1.948,7.971-2.712,15.991-2.1,24.13
		c0.431,5.726,0.701,11.526,3.01,16.918C2001.868,1211.196,2003.399,1216.25,2008.071,1220.645z M2061.338,1220.111
		c0.853-2.364,1.553-3.522,1.666-4.736c1.327-14.204-3.181-26.224-13.732-35.886c-1.142-1.045-2.455-1.974-3.832-2.678
		c-4.837-2.477-9.128-2.055-12.897,1.801c-2.332,2.386-4.246,5.278-5.918,8.19c-2.333,4.061-4.203,8.386-6.389,12.535
		c-1.779,3.376-2.297,6.937-1.8,10.638c0.417,3.101,0.885,6.22,1.679,9.239c0.844,3.208,2.163,6.268,5.102,9.012
		c0.214-1.405,0.373-2.118,0.419-2.838c0.05-0.78-0.005-1.567-0.013-2.35c-0.084-8.316,5.17-12.867,11.885-15.891
		c6.276-2.827,11.719-0.223,16.448,4.065c1.536,1.394,2.824,3.068,4.172,4.66C2058.948,1216.84,2059.668,1217.895,2061.338,1220.111
		z M2055.351,1231.612c-2.405-4.459-4.332-8.106-6.327-11.714c-2.326-4.208-4.844-4.954-8.965-2.847
		c-3.117,1.594-4.779,3.955-4.232,7.554c0.312,2.052,0.526,4.144,1.12,6.116c0.356,1.18,1.143,2.462,2.118,3.178
		c2.596,1.907,5.674,2.677,8.87,2.381C2051.184,1235.978,2053.913,1234.639,2055.351,1231.612z"/>
	<path d="M2024.446,1277.147c8.603,0.47,17.225,0.724,25.802,1.492c5.172,0.464,10.279,1.69,15.402,2.641
		c6.924,1.285,13.871,2.476,20.744,3.997c7.899,1.748,15.75,3.724,23.576,5.78c3.263,0.857,4.665,3.297,4.292,6.51
		c-0.186,1.604-1.692,2.996-3.234,2.678c-4.092-0.844-8.174-1.756-12.222-2.791c-19.27-4.927-38.766-8.786-58.587-10.315
		c-18.806-1.451-37.642-1.456-55.934,4.452c-1.49,0.481-3.007,0.91-4.539,1.229c-2.638,0.55-4.549-0.593-5.949-2.776
		c-2.024-3.156-1.077-6.392,2.54-7.429c4.258-1.222,8.607-2.22,12.979-2.931C2000.937,1277.795,2012.599,1276.214,2024.446,1277.147
		z"/>
	<path d="M1905.857,1185.656c2.054,0.251,2.667,1.53,2.18,2.81c-2.573,6.764-4.613,13.608-10.229,19.011
		c-11.194,10.77-20.115,23.304-25.593,38.006c-3.235,8.684-4.791,17.643-3.162,26.906c0.449,2.554,1.406,5.016,2.027,7.545
		c0.317,1.289,0.311,2.61-1.097,3.394c-1.264,0.704-2.864,0.075-3.916-1.577c-3.315-5.206-4.777-11-5.08-17.075
		c-0.503-10.111,1.58-19.705,5.997-28.831c6.803-14.054,15.994-26.267,27.738-36.567c3.743-3.283,7.275-6.752,9.38-11.413
		C1904.502,1186.981,1905.337,1186.295,1905.857,1185.656z"/>
	<path d="M1978.582,1136.214c1.74,2.973,0.838,5.507-0.989,7.422c-6.651,6.969-8.539,16.143-11.203,24.773
		c-2.708,8.773-3.046,18.061-1.532,27.211c0.545,3.294,1.901,6.464,3,9.652c0.417,1.21,1.431,2.263,1.641,3.48
		c0.142,0.823-0.406,2.185-1.083,2.612c-0.666,0.42-2.208,0.341-2.804-0.172c-2.981-2.564-5.669-5.44-7.08-9.224
		c-1.934-5.186-3.375-10.553-3.121-16.088c0.358-7.812,1.011-15.609,3.369-23.179c1.947-6.249,3.633-12.536,7.37-18.079
		c2.431-3.606,5.561-6.218,9.433-7.992C1976.453,1136.23,1977.556,1136.342,1978.582,1136.214z"/>
	<path d="M2168.415,1124.743c6.298,3.729,6.454,3.981,5.481,8.806c-0.772,3.825-1.632,7.632-2.388,11.46
		c-1.44,7.299-1.004,14.511,1.091,21.641c0.365,1.243,0.745,2.52,0.812,3.797c0.034,0.645-0.46,1.582-1.005,1.918
		c-0.542,0.335-1.527,0.295-2.178,0.049c-2.694-1.019-3.81-3.454-4.78-5.88c-2.86-7.155-3.783-14.671-2.994-22.25
		c0.509-4.891,1.891-9.711,3.148-14.492C2166.031,1128.157,2167.272,1126.737,2168.415,1124.743z"/>
	<path d="M1905.105,1116.681c3.844,6.02,4.167,10.456,0.544,14.99c-5.369,6.718-10.576,13.566-15.98,20.256
		c-0.926,1.146-2.386,2.132-3.788,2.531c-1.045,0.298-2.537-0.224-3.572-0.825c-1.271-0.738-1.396-2.261-0.761-3.473
		c1.205-2.299,2.464-4.61,4.022-6.675c3.144-4.169,6.454-8.216,9.788-12.237c3.006-3.625,6.06-7.195,7.898-11.613
		C1903.546,1118.938,1904.058,1118.334,1905.105,1116.681z"/>
	<path d="M1354.44,1531.229c-2.873-0.103-4.724-2.09-6.512-3.91c-8.414-8.563-16.501-17.405-23.136-27.484
		c-2.722-4.135-5.767-8.057-8.633-12.098c-10.641-15.005-17.214-31.533-18.561-49.984c-0.151-2.059-0.104-4.158,0.118-6.209
		c0.166-1.533,2.451-2.393,3.734-1.373c1.167,0.928,2.48,2.076,2.945,3.402c1.029,2.938,1.752,6.016,2.275,9.093
		c2.818,16.576,9.963,31.215,19.834,44.635c4.942,6.718,9.859,13.465,15.072,19.97c4.235,5.285,8.934,10.197,13.354,15.337
		C1357.9,1526.064,1357.803,1526.839,1354.44,1531.229z"/>
	<path d="M1401.08,1580.729c-0.837,3.091-3.269,4.456-6.179,4.51c-5.45,0.101-11,0.349-16.344-0.501
		c-12.805-2.039-24.298-7.563-35.076-14.642c-8.107-5.325-15.414-11.567-21.677-18.986c-0.794-0.94-1.25-2.172-1.811-3.295
		c-0.078-0.156,0.144-0.463,0.295-0.891c5.182-0.803,9.686,0.763,13.31,4.527c6.049,6.281,13.359,10.686,20.828,15.015
		c14.185,8.221,28.932,14.228,45.718,13.532C1400.34,1579.989,1400.549,1580.302,1401.08,1580.729z"/>
	<path d="M1433.866,1650.627c-0.488,2.045-1.828,2.31-3.106,2.358c-6.001,0.225-11.835-0.07-17.705-2.084
		c-14.888-5.107-28.773-12.167-42.049-20.48c-3.735-2.339-7.097-5.294-10.499-8.123c-0.623-0.518-0.618-1.792-0.902-2.717
		c0.909-0.207,2.047-0.875,2.692-0.553c9.549,4.773,19.093,9.562,28.514,14.58c10.619,5.655,21.605,10.297,33.332,13.092
		C1427.629,1647.531,1431.074,1648.455,1433.866,1650.627z"/>
</g>
<g>
	<path d="M1178.203,734.608c-1.56-2.672-3.855-3.696-7.009-3.299c-3.012,0.379-6.08,0.305-9.118,0.502
		c-1.362,0.088-2.754,0.199-4.06,0.561c-13.103,3.631-26.064,7.885-39.314,10.852c-19.36,4.334-37.902,10.863-55.968,18.849
		c-10.917,4.826-21.709,9.956-32.41,15.247c-9.985,4.937-19.377,10.981-28.126,17.821c-17.011,13.299-30.816,29.634-42.531,47.672
		c-6.194,9.538-11.803,19.473-17.341,29.416c-6.639,11.921-14.192,23.231-22.218,34.224c-7.891,10.81-18.266,19.382-27.07,29.378
		c-3.505,3.98-7.519,4.254-12.021,2.142c-1.258-0.59-2.497-1.224-3.716-1.892c-10.111-5.535-20.94-8.816-32.339-10.293
		c-5.472-0.709-10.952-1.361-16.221-2.013c-0.609-1.133-1.078-1.823-1.369-2.581c-1.496-3.896-4.293-5.637-8.443-5.256
		c-3.315,0.304-6.635,0.569-9.95,0.873c-3.001,0.276-6.017,1.216-8.924-0.154c-0.228-0.623-0.646-1.177-0.561-1.637
		c0.303-1.623,0.761-3.219,1.192-4.817c2.122-7.857-1.561-12.191-9.258-10.626c-7.896,1.606-15.732,3.512-23.608,5.22
		c-1.8,0.39-3.659,0.508-5.215,0.715c-0.495-0.705-0.78-0.924-0.778-1.14c0.011-0.824,0.025-1.666,0.199-2.466
		c1.284-5.895-0.286-9.212-8.416-10.503c-1.618-0.257-3.334-0.111-4.981,0.067c-8.652,0.938-16.813,3.587-24.638,7.317
		c-8.565,4.082-16.488,9.198-24.089,14.864c-8.903,6.635-18.98,11.606-27.284,19.099c-3.298,2.976-6.479,6.083-9.783,9.052
		c-6.035,5.425-12.524,10.073-20.385,12.642c-5.164,1.688-9.858,1.249-14.23-1.922c-1.779-1.29-3.581-2.64-5.042-4.261
		c-8.384-9.3-16.009-19.193-22.571-29.87c-9.159-14.904-17.09-30.509-26.894-45.072c-11.488-17.066-22.694-34.222-37.076-49.122
		c-9.663-10.011-19.609-19.709-29.938-28.993c-7.878-7.081-17.202-12.107-26.37-17.417c-12.059-6.984-24.744-12.524-37.425-18.087
		c-15.767-6.917-31.839-13.138-47.658-19.941c-6.866-2.953-13.447-6.575-20.12-9.965c-1.745-0.886-3.453-2.255-5.435-1.321
		c-3.48,1.639-6.458,0.155-9.559-1.028c-3.895-1.487-7.741-3.165-11.736-4.316c-8.351-2.406-16.468-2.962-23.084,4.342
		c-0.915,1.01-2.165,1.741-3.327,2.497c-2.965,1.928-3.901,4.711-3.019,7.953c0.723,2.661,1.859,5.218,2.921,7.775
		c1.063,2.562,2.509,4.988,3.36,7.612c4.54,14.002,10.101,27.69,13.004,42.199c0.933,4.664,2.867,8.919,5.085,13.152
		c5.671,10.825,11.065,21.777,17.312,32.312c4.815,8.122,9.005,16.583,14.979,24.003c4.343,5.395,8.251,11.138,12.434,16.665
		c10.749,14.205,22.246,27.723,36.037,39.137c5.347,4.425,10.384,9.252,15.939,13.389c8.898,6.628,17.521,13.621,27.456,18.844
		c16.964,8.918,33.639,18.382,50.48,27.536c7.317,3.977,14.546,8.208,22.168,11.511c11.405,4.943,21.395,11.695,30.043,20.557
		c1.176,1.205,2.405,2.361,3.657,3.491c0.337,0.459,0.766,0.842,1.288,1.13c0.395,0.342,0.778,0.699,1.179,1.034
		c0.356,0.297,0.737,0.513,1.124,0.684c0.299,1.188,0.376,2.44,0.713,3.622c0.39,1.366,0.937,2.568,1.655,3.61
		c-4.764,5.577-9.069,11.586-13.244,17.627c-1.84,2.663-2.669,6.091-3.646,9.267c-0.999,3.249-0.196,5.268,2.754,7.077
		c2.809,1.723,5.81,3.132,9.116,4.885c-0.897,2.167-1.501,4.282-2.581,6.117c-3.562,6.052-5.827,12.603-7.769,19.288
		c-1.551,5.339-3.04,10.697-4.489,16.065c-3.333,12.348-6.385,24.754-7.75,37.513c-1.725,16.123-1.152,32.195,0.899,48.248
		c0.062,0.482,0.107,0.966,0.152,1.451c3.329,8.255-0.074,13.691-5.143,20.459c-2.886,3.853-4.069,8.545-7.021,12.31
		c-1.066,1.36-2.277,2.576-3.535,3.746c-2.28,4.335-4.855,8.523-7.791,12.516c-11.913,16.202-26.106,30.281-42.533,41.994
		c-4.752,3.388-9.53,6.75-14.431,9.915c-10.049,6.489-19.969,13.227-28.919,21.119c-21.757,19.181-41.366,40.165-55.632,65.845
		c-10.45,18.812-18.425,38.593-25.792,58.693c-0.854,2.331-1.254,4.836-1.777,7.279c-1.686,7.885-3.306,15.785-5.022,23.663
		c-0.206,0.944-0.848,1.793-1.716,3.555c-1.405-2.026-2.514-3.191-3.113-4.577c-1.322-3.059-2.184-6.326-3.613-9.327
		c-1.42-2.98-3.176-5.824-5.012-8.577c-4.149-6.221-9.983-7.502-16.82-5.311c-3.124,1.001-6.202,2.142-9.705,3.36
		c-1.036-2.516-2.035-4.766-2.898-7.068c-2.144-5.722-4.08-11.526-6.371-17.187c-2.739-6.769-6.956-12.685-11.91-17.964
		c-13.859-14.764-29.533-27.792-41.959-43.935c-1.747-2.27-4.369-2.21-6.878-1.644c-2.414,0.545-4.033,2.154-3.982,4.683
		c0.122,6.089-2.459,11.414-4.845,16.675c-3.21,7.075-6.787,14.023-10.735,20.714c-5.5,9.32-11.66,18.248-17.225,27.532
		c-6.097,10.171-9.604,21.232-9.981,33.168c-0.132,4.168-0.004,8.346-0.223,12.508c-0.081,1.549-0.816,3.063-1.351,4.94
		c-2.502,0-4.697-0.13-6.871,0.033c-2.75,0.207-5.508,0.514-8.215,1.028c-3.655,0.694-5.733,3.155-6.718,6.65
		c-1.545,5.479-1.67,10.947-0.081,16.453c1.465,5.075,2.737,10.206,4.257,15.264c3.032,10.092,5.425,20.409,10.354,29.852
		c0.298,0.571-0.089,1.499-0.158,2.271c-3.228,0-6.245-0.111-9.251,0.02c-12.1,0.526-18.544,12.525-11.77,21.769
		c5.887,8.034,11.323,16.462,17.45,24.347c3.22,4.144,6.851,8.058,10.766,11.55c5.174,4.615,10.849,8.664,16.21,13.076
		c1.16,0.955,1.9,2.419,2.942,3.792c-2.344,2.635-4.288,4.981-6.402,7.162c-3.336,3.441-3.925,7.209-1.633,11.392
		c0.929,1.697,1.823,3.461,3.035,4.948c7.385,9.055,14.85,18.045,25.319,23.836c0.723,0.4,1.327,1.009,2.005,1.493
		c19.62,14.004,41.437,21.081,65.587,20.789c3.058-0.037,6.116-0.111,9.174-0.17c15.646-0.302,31.012-2.088,45.786-7.733
		c7.577-2.895,14.856-6.208,21.39-11.069c2.176-1.618,4.507-3.027,7.111-4.76c2.073,2.601,3.759,4.772,5.505,6.895
		c2.469,3.002,4.83,6.113,7.512,8.914c4.224,4.413,8.788,8.501,12.993,12.93c2.758,2.905,5.916,4.941,9.633,6.342
		c2.844,1.073,5.635,2.348,8.314,3.785c5.87,3.15,11.632,6.499,17.48,9.689c3.412,1.86,7.009,3.386,9.514,6.592
		c0.642,0.821,1.666,1.556,2.658,1.854c4.234,1.274,8.519,2.375,12.789,3.528c2.665,0.719,5.441,1.154,7.984,2.172
		c8.556,3.429,17.369,5.863,26.431,7.475c18.433,3.279,37.013,3.743,55.665,3.05c4.43-0.165,8.871-0.041,13.307-0.066
		c2.972-0.016,5.945,0.009,8.917-0.023c0.367,0.208,0.757,0.378,1.194,0.444c4.671,0.715,9.107,0.787,13.722,0.208
		c0.542,1.661,1.15,3.317,1.812,4.977c5.279,13.234,15.9,18.688,28.853,21.019c5.603,1.008,10.428-0.656,14-5.385
		c1.637-2.167,3.478-4.18,5.24-6.279c4.309,3.412,8.177,6.545,12.122,9.578c3.595,2.765,7.682,4.575,12.175,5.099
		c7.174,0.837,13.948,0.245,18.612-6.434c0.577-0.826,1.649-1.306,1.91-1.504c5.852,2.719,11.008,5.465,16.422,7.538
		c6.419,2.458,12.52,1.367,18.061-2.904c4.844-3.734,7.768-8.617,9.307-14.429c1.06-4.005,2.078-8.021,3.074-11.872
		c0.196-0.106,0.371-0.2,0.546-0.294c0.139-2.74,0.884-5.472,1.729-8.048c0.666-2.031,2.461-3.45,4.522-3.521
		c0.14-0.103,0.292-0.204,0.474-0.303c0.44,0.193,0.892,0.402,1.34,0.605c0.212,0.081,0.42,0.167,0.619,0.28
		c2.43,1.116,4.965,2.323,7.603,3.257c15.541,5.51,31.362,7.104,47.579,3.243c3.16-0.752,6.361-2.185,10.111-0.75
		c0.564,1.657,1.278,3.433,1.77,5.268c1.558,5.81,5.412,9.543,10.635,12.136c5.186,2.575,10.683,2.8,16.294,2.333
		c5.219-0.433,9.749-2.14,12.807-6.715c0.907-1.357,1.767-2.923,4.048-2.279c0.413,0.545,0.975,1.153,1.386,1.851
		c6.323,10.74,15.417,15.136,27.99,13.577c8.578-1.064,14.585-4.643,18.16-12.522c0.975-2.149,1.501-4.888,4.789-5.811
		c4.761,4.655,10.93,6.928,17.444,8.55c3.703,0.922,7.124,0.469,10.514-1.164c6.794-3.274,11.674-8.413,14.891-15.162
		c1.674-3.511,3.193-7.096,4.797-10.64c4.382-9.684,7.745-19.682,8.46-30.355c0.855-12.75,1.689-25.511,2.05-38.281
		c0.172-6.07-0.052-12.334-1.373-18.223c-2.181-9.723-4.566-19.465-8.969-28.557c-1.565-3.232-2.537-6.762-3.634-10.203
		c-0.38-1.19-0.321-2.52-0.496-4.089c3.518-0.612,6.505-1.119,9.488-1.652c5.669-1.014,10.595-3.463,14.225-8.001
		c6.608-8.262,12.788-16.808,15.955-27.101c1.872-6.084,4.015-11.921,7.509-17.428c5.349-8.43,9.908-17.376,14.536-26.242
		c2.431-4.657,4.884-9.441,6.312-14.458c5.466-19.203,3.714-38.129-4.539-56.124c-4.143-9.034-9.696-17.483-15.188-25.818
		c-4.266-6.475-9.464-12.332-14.181-18.515c-12.187-15.974-25.584-30.741-41.957-42.595c-1.499-1.086-2.716-2.561-4.455-4.231
		c1.407-1.172,2.298-2.328,3.468-2.819c6.136-2.579,12.287-5.144,18.54-7.42c7.353-2.676,14.61-5.365,20.076-11.389
		c1.27-1.4,2.936-2.715,4.682-3.361c6.434-2.38,11.765-6.301,16.288-11.301c3.508-3.878,7.084-4.36,11.844-2.191
		c8.839,4.03,17.908,7.558,26.9,11.249c3.451,1.417,6.257-0.808,5.709-4.439c-0.353-2.336-1.349-4.249-3.659-5.167
		c-4.643-1.844-9.307-3.633-13.958-5.457c-3.353-1.315-6.711-2.621-10.04-3.994c-1.253-0.517-2.632-1.04-2.452-2.981
		c2.348-1.778,4.909-3.459,7.168-5.477c7.704-6.881,12.264-15.645,15.024-25.488c1.246-4.444,2.188-5.021,6.548-3.847
		c8.301,2.235,16.813,3.844,24.518,7.954c1.552,0.828,3.242,0.852,4.625-0.485c1.382-1.337,1.108-3.004,0.769-4.668
		c-0.503-2.469-2.091-3.77-4.441-4.414c-6.689-1.832-13.378-3.669-20.031-5.626c-1.468-0.432-2.788-1.368-4.153-2.06
		c4.19-9.319,4.298-9.645,3.759-20.522c-0.179-3.601-0.737-7.182-1.026-10.779c-0.129-1.599-0.022-3.218-0.022-5.029
		c1.297-0.4,2.327-0.997,3.351-0.988c8.048,0.066,16.139-0.347,24.035,1.795c1.068,0.29,2.14,0.62,3.231,0.753
		c1.898,0.231,3.723-1.565,3.787-3.598c0.075-2.419-1.009-4.617-3.302-5.221c-3.188-0.84-6.497-1.423-9.786-1.637
		c-8.292-0.54-16.57-1.131-24.763-2.085c-0.719-1.681-1.436-2.899-1.771-4.214c-2.91-11.424-7.686-22.033-14.079-31.894
		c-3.315-5.114-6.973-10.007-10.514-14.973c-5.832-8.174-12.545-15.567-19.955-22.333c-4.514-4.122-9.016-8.258-13.599-12.303
		c-1.558-1.375-2.497-2.92-2.561-5.004c-0.06-1.945-0.162-3.889-0.256-5.833c-0.733-15.055-3.178-29.872-7.064-44.39
		c-2.87-10.723-6.626-21.207-9.893-31.826c-0.461-1.498-0.391-3.159-0.578-4.851c2.054-1.126,3.766-2.007,5.423-2.983
		c4.313-2.542,5.293-4.081,4.297-8.766c-1.451-6.822-3.524-13.445-8.413-18.793c-5.802-6.347-11.528-12.763-17.516-19.403
		c1.542-3.58,4.295-5.101,6.616-7.042c1.935-1.619,4.012-3.225,3.961-6.045c-0.065-3.55,2.134-5.564,4.632-7.428
		c11.199-8.359,23.514-14.835,36.318-20.196c19.531-8.178,38.423-17.504,55.963-29.359c6.649-4.493,13.078-9.491,18.862-15.036
		c5.994-5.747,11.21-12.332,16.538-18.739c5.681-6.832,11.652-13.52,16.501-20.924c8.213-12.541,14.699-26.074,20.963-39.709
		c7.429-16.172,12.343-33.321,19.98-49.437c5.96-12.578,11.654-25.201,20.168-36.31
		C1178.976,739.334,1179.661,737.106,1178.203,734.608z M578.096,1007.925c-1.618-1.599-3.427-3.016-4.993-4.664
		c-6.391-6.722-13.825-11.905-22.053-16.202c-14.035-7.329-27.881-15.021-41.756-22.652c-9.248-5.087-18.122-10.954-27.671-15.374
		c-16.331-7.56-30.628-18.003-44.422-29.268c-5.588-4.564-10.986-9.402-16.117-14.474c-8.857-8.756-17.678-17.584-24.476-28.15
		c-0.296-0.459-0.799-0.781-1.125-1.226c-6.396-8.733-13.116-17.253-19.067-26.279c-5.498-8.339-10.075-17.28-15.227-25.854
		c-7.492-12.47-12.975-25.74-17.011-39.711c-4.086-14.139-8.686-28.129-13.044-42.19c-0.409-1.321-0.841-2.661-1.012-4.024
		c-0.288-2.286,1.186-4.64,3.412-5.062c1.863-0.353,3.875-0.419,5.747-0.133c4.458,0.681,8.507,2.52,12.245,5.039
		c2.958,1.994,6.064,3.579,8.137,6.891c2.271,3.629,7.415,1.062,10.608,3.897c1.716,1.523,4.527,1.814,6.845,2.659
		c2.335,0.851,4.748,1.535,6.992,2.58c8.297,3.865,16.37,8.049,23.987,13.262c11.671,7.987,23.907,15.145,35.717,22.936
		c6.253,4.125,12.081,8.89,18.157,13.288c17.072,12.359,30.779,28.014,43.31,44.721c9.335,12.445,18.153,25.279,27.108,38.005
		c3.035,4.313,6.368,8.56,8.544,13.305c4.314,9.405,9.894,18.026,15.435,26.664c6.594,10.279,13.183,20.625,20.661,30.253
		c6.095,7.846,12.483,15.557,19.946,22.31c7.848,7.102,8.213,16.646,2.102,25.367c-3.56,5.08-7.694,9.621-11.873,14.129
		c-0.262-1.375-0.533-2.671-1.095-3.988C584.689,1010.652,581.847,1007.939,578.096,1007.925z M379.913,1671.778
		c-7.84,5.97-16.648,10.148-26.064,12.728c-7.472,2.047-15.154,3.609-22.845,4.522c-15.504,1.84-31.052,1.517-46.535-0.672
		c-7.767-1.098-15.025-3.645-22.135-7.003c-12.406-5.858-23.684-13.335-34.089-22.201c-4.942-4.211-8.897-9.164-11.004-15.403
		c-1.216-3.6,0.158-6.1,3.845-6.76c1.894-0.339,3.885-0.11,5.796-0.387c1.903-0.277,3.966-0.509,5.57-1.434
		c1.258-0.725,2.315-2.36,2.752-3.806c0.559-1.845-0.966-2.9-2.49-3.813c-8.565-5.131-16.796-10.698-24.475-17.15
		c-11.224-9.432-19.932-20.826-27.411-33.281c-1.425-2.373-2.917-4.739-4.024-7.263c-2.39-5.446-0.373-8.202,5.337-7.311
		c6.94,1.083,13.362,3.709,19.474,7.111c1.452,0.808,2.735,2.093,4.274,2.528c1.776,0.502,3.851,0.738,5.616,0.323
		c4.053-0.953,5.262-4.91,2.037-7.483c-6.255-4.99-9.568-12.215-14.632-18.085c-1.588-1.841-2.714-4.236-3.531-6.56
		c-4.135-11.771-8.862-23.371-11.232-35.685c-0.569-2.957-0.782-6.087-0.512-9.078c0.43-4.774,3.859-6.607,8.387-4.717
		c4.448,1.856,7.92,4.994,11.071,8.618c2.197,2.526,4.674,2.703,7.46,1.141c2.148-1.204,3.22-3.552,1.946-5.649
		c-6.326-10.415-5.687-21.806-4.702-33.169c0.999-11.524,4.815-22.038,11.207-31.865c9.982-15.348,20.228-30.6,27.146-47.723
		c0.588-1.455,1.817-2.65,3.034-4.369c1.869,1.289,3.594,2.146,4.898,3.43c9.901,9.744,20.011,19.299,29.487,29.444
		c10.813,11.576,17.784,25.444,21.634,40.8c0.731,2.916,0.581,6.05,0.866,9.08c0.397,4.21,3.036,6.006,6.883,4.303
		c1.945-0.862,3.726-2.349,5.232-3.893c2.369-2.43,4.933-4.442,8.093-5.718c2.318-0.937,4.569-0.784,6.085,1.136
		c2.218,2.807,4.59,5.693,5.944,8.943c3.622,8.695,8.12,17.088,9.877,26.497c0.244,1.306,0.798,2.844,1.739,3.673
		c2.673,2.355,2.698,5.347,2.564,8.421c-0.121,2.773-0.356,5.545-0.644,8.307c-1.592,15.268,0.058,30.538-0.098,45.804
		c-0.125,12.284,0.894,24.432,3.263,36.461c2.636,13.388,6.96,26.3,11.547,39.117c1.777,4.964,3.676,9.91,5.927,14.671
		c2.723,5.759,5.891,11.307,8.841,16.959C382.821,1668.186,382.484,1669.82,379.913,1671.778z M962.046,1647.19
		c0.292,1.921,0.763,3.848,0.773,5.774c0.083,15.561,0.828,31.154-1.227,46.646c-1.992,15.007-6.348,29.303-13.72,42.597
		c-0.801,1.445-1.712,2.86-2.76,4.135c-7.84,9.536-19.572,5.143-22.657-3.709c-1.183-3.395-1.868-6.967-2.742-10.467
		c-0.857-3.438-2.221-4.946-4.596-4.981c-3.126-0.045-5.686,2.054-5.995,5.663c-0.658,7.693-3.967,14.412-7.344,21.095
		c-2.772,5.485-7.476,7.88-13.629,7.875c-6.857-0.006-11.852-3.1-14.618-9.13c-1.465-3.195-1.755-6.941-2.484-10.457
		c-0.391-1.885-0.279-3.925-0.938-5.691c-1.175-3.143-5.189-3.912-7.546-1.538c-1.152,1.16-2.021,2.617-2.937,3.993
		c-2.923,4.39-5.79,8.817-8.716,13.205c-1.848,2.771-4.368,4.21-7.798,3.679c-0.273-0.042-0.555-0.025-0.833-0.037
		c-10.315-0.462-13.279-3.093-14.896-13.096c-0.251-1.554-0.189-2.937,0.295-4.312c-1.089-4.202-0.989-8.437-0.931-12.936
		c-0.134-0.242-0.281-0.503-0.449-0.79c0.902-4.535,1.777-9.445,2.871-14.305c1.22-5.422,2.687-10.789,3.964-16.199
		c3.536-14.978,9.692-28.921,16.589-42.595c1.87-3.707,3.759-7.52,4.798-11.504c1.714-6.572,5.169-12.256,8.17-18.182
		c5.081-10.034,13.879-15.611,23.922-19.617c1.536-0.613,3.27-0.797,4.713-1.557c1.918-1.011,3.721-0.83,5.627-0.247
		c6.556,2.006,13.237,1.412,19.859,0.658c2.703-0.308,5.391-1.316,7.926-2.387c3.06-1.293,5.949-2.989,9.295-4.708
		c9.645,2.733,14.667,9.595,17.593,18.008C955.634,1623.604,960.195,1635.006,962.046,1647.19z M967.852,1389.674
		c2.504,2.974,5.136,5.841,7.715,8.753c13.482,15.219,25.913,31.256,35.127,49.433c14.357,28.323,11.997,55.938-5.518,82.119
		c-5.15,7.698-9.609,15.499-12.452,24.314c-1.785,5.533-3.893,11.013-6.424,16.241c-3.154,6.516-7.274,12.522-12.261,17.79
		c-1.831,1.934-4.303,3.924-6.789,4.455c-8.386,1.79-16.626,0.105-24.389-3.115c-4.889-2.028-5.653-4.894-4.197-9.384
		c1.368-4.22,2.391-8.573,3.242-12.93c0.415-2.124,0.292-4.415,0.044-6.589c-0.221-1.933-2.986-3.038-4.622-1.985
		c-0.912,0.587-1.76,1.351-2.455,2.187c-1.856,2.232-2.369,4.953-2.676,7.759c-0.705,6.429-2.42,12.593-5.792,18.13
		c-1.257,2.064-2.962,4.286-5.023,5.35c-6.976,3.599-14.385,4.033-21.801,1.284c-3.634-1.347-5.441-4.543-7.108-7.823
		c-1.508-2.965,0.259-5.271,1.143-7.873c2.233-6.565,4.219-13.215,6.258-19.845c0.239-0.776,0.468-1.754,0.2-2.444
		c-0.472-1.216-1.099-2.583-2.082-3.338c-1.427-1.096-3.302-0.935-4.553,0.407c-1.089,1.167-2.086,2.621-2.549,4.125
		c-0.814,2.643-1.185,5.422-1.749,8.143c-1.787,8.611-5.513,15.73-14.488,18.806c-1.028,0.352-2.046,0.729-2.699,0.962
		c-5.246-1.089-8.013-4.621-10.399-8.402c-2.458-3.895-3.105-8.337-2.513-12.86c1.553-11.85,2.912-23.756,8.267-34.711
		c0.607-1.241,1.106-2.575,1.406-3.921c2.93-13.162,11.328-22.904,20.994-31.297c9.624-8.356,20.255-15.563,30.548-23.133
		c4.892-3.597,10.056-6.825,14.586-10.618c-1.506-5.379-3.816-6.53-7.547-3.937c-6.161,4.281-12.204,8.731-18.371,13.003
		c-1.76,1.219-3.774,2.071-5.781,3.149c-1.834-1.469-3.443-2.555-4.808-3.891c-2.978-2.915-5.955-5.847-8.71-8.968
		c-5.301-6.005-5.727-7.774-4.479-16.206c-1.572-0.77-3.19-1.864-4.974-2.372c-3.76-1.072-6.118,0.86-5.83,4.63
		c0.302,3.946,1.432,7.672,3.793,10.889c4.434,6.043,8.685,12.244,14.562,17.076c1.207,0.993,2.102,2.366,3.499,3.978
		c-2.483,2.43-4.53,4.656-6.808,6.614c-3.793,3.26-7.736,6.345-11.61,9.51c-5.25,4.29-9.128,9.587-12.297,15.592
		c-3.39,6.425-5.61,13.278-8.382,19.927c-4.463,10.704-6.281,21.852-7.273,33.248c-0.496,5.7,0.506,11.169,3.216,16.145
		c5.051,9.274,13.79,16.379,26.079,12.501c0.53-0.167,1.063-0.337,1.606-0.443c1.898-0.372,3.446,0.354,3.132,1.554
		c-0.246,0.939-0.916,1.951-1.697,2.516c-0.859,0.623-2.046,0.831-3.117,1.117c-6.94,1.856-12.473,5.801-17.359,11
		c-3.912,4.163-6.26,9.125-8.574,14.184c-3.095,6.77-4.298,14.424-9.453,20.24c-0.347,0.392-0.425,1.019-0.641,1.531
		c-1.724,4.096-3.415,8.207-5.183,12.284c-5.753,13.27-11.212,26.666-14.47,40.793c-2.371,10.278-4.351,20.656-6.138,31.052
		c-0.649,3.774-2.197,6.147-5.849,7.159c-1.07,0.297-2.098,0.76-3.178,1.005c-11.506,2.618-23.095,3.128-34.789,1.437
		c-7.272-1.051-14.028-3.187-19.901-7.873c-2.1-1.675-4.776-2.628-7.418-4.033c-1.324-4.459-2.88-8.922-3.969-13.496
		c-4.753-19.976-13.724-38.083-24.18-55.576c-4.693-7.852-11.194-13.782-18.898-18.445c-3.791-2.294-7.739-4.435-11.841-6.086
		c-6.426-2.585-13.01-4.794-19.592-6.963c-3.409-1.124-6.915-2.273-10.454-2.61c-6.347-0.606-12.777-1.093-19.128-0.771
		c-18.86,0.955-37.821,0.734-56.488,4.321c-2.982,0.573-4.82-1.466-4.043-4.523c0.888-3.491,2.294-6.849,3.244-10.328
		c3.834-14.04,11.469-26.507,16.504-40.05c0.917-2.467,2.965-3.307,5.471-2.376c9.191,3.417,18.559,5.749,28.45,5.623
		c3.16-0.041,5.204,1.743,6.167,4.681c1.384,4.218,3.218,8.384,3.885,12.722c1.283,8.342,5.948,14.036,12.379,18.968
		c6.286,4.819,13.505,6.29,21.036,7.057c5.177,0.527,9.943-0.461,14.007-4.005c1.217-1.062,2.679-1.843,4.126-2.817
		c2.493,1.174,4.701,2.294,6.972,3.269c9.931,4.263,26.663,4.716,35.752-7.335c1.1-1.458,2.899-2.389,4.216-3.438
		c13.402,6.931,22.499,5.275,32.022-6.029c3.008-3.571,5.74-7.597,7.624-11.847c3.596-8.114,6.284-16.626,9.739-24.808
		c2.972-7.038,3.097-14.083,0.995-21.197c-1.649-5.582-3.618-11.087-5.779-16.492c-1.22-3.052-2.666-6.223-4.785-8.67
		c-7.083-8.179-14.09-16.549-24.472-20.921c-1.012-0.426-1.95-1.08-2.84-1.74c-6.986-5.177-14.663-8.988-22.861-11.84
		c-1.486-0.517-2.758-1.648-4.185-2.531c0.252-1.427,0.206-2.618,0.672-3.552c2.104-4.219,4.308-8.39,6.571-12.526
		c1.063-1.943,2.693-3.649,3.395-5.693c0.463-1.347,0.086-3.275-0.564-4.632c-0.692-1.444-3.709-1.802-5.325-1.001
		c-0.732,0.363-1.38,0.906-2.04,1.401c-1.975,1.485-3.937,2.986-6.12,4.645c-0.095,6.303-3.997,11.256-6.656,16.713
		c-1.092,2.241-2.982,3.246-5.474,2.893c-4.402-0.623-8.783-1.441-13.201-1.885c-1.839-0.185-3.835,0.121-5.611,0.675
		c-1.767,0.551-2.59,2.387-2.179,4.04c0.273,1.097,1.565,2.458,2.645,2.732c2.377,0.601,4.939,0.946,7.374,0.75
		c5.34-0.429,10.5-0.68,15.295,2.467c1.303,0.855,3.188,1.172,4.798,1.149c5.804-0.085,11.061,2.027,15.81,4.757
		c9.605,5.522,19.726,10.29,28.062,17.859c3.939,3.576,7.562,7.329,10.143,12.045c3.36,6.139,5.606,12.665,7.572,19.362
		c1.957,6.665,1.721,13.194-0.107,19.724c-0.971,3.469-2.299,6.849-3.633,10.203c-1.745,4.389-3.818,8.652-5.459,13.077
		c-2.64,7.117-7.632,12.179-13.742,16.278c-4.703,3.156-7.095,2.808-10.994-1.05c-1.935-1.915-2.903-4.007-1.935-6.742
		c0.556-1.571,1.217-3.159,1.421-4.79c0.652-5.219,1.199-10.456,1.585-15.701c0.096-1.304-0.363-2.758-0.921-3.981
		c-1.531-3.361-5.159-3.64-7.228-0.562c-0.75,1.115-1.439,2.449-1.585,3.747c-0.215,1.909,0.09,3.876,0.16,5.819
		c0.344,9.618-3.063,18.042-8.7,25.546c-5.857,7.798-15.097,10.461-23.747,7.187c-5.322-2.015-9.127-3.559-4.979-10.957
		c0.135-0.241,0.207-0.516,0.32-0.769c3.256-7.285,3.552-15.103,3.938-22.871c0.054-1.084-0.968-2.724-1.943-3.218
		c-1.026-0.52-3.004-0.469-3.83,0.218c-1.386,1.152-2.607,2.881-3.12,4.599c-0.536,1.791-0.215,3.859-0.161,5.803
		c0.287,10.457-4.512,18.647-11.35,26.018c-3.61,3.891-7.967,5.167-12.838,3.614c-9.954-3.173-18.181-8.405-20.887-19.466
		c-0.594-2.429-1.145-4.883-1.96-7.241c-1.356-3.923-2.884-7.788-4.389-11.658c-1.261-3.243-3.899-4.587-7.165-4.806
		c-1.655-0.111-3.333,0.059-4.997,0.157c-6.457,0.381-12.809-0.4-18.932-2.348c-3.122-0.993-6.528-2.218-8.842-4.373
		c-3.802-3.54-7.263-7.636-10.083-12.003c-7.85-12.156-11.398-25.74-12.877-40.076c-1.181-11.454-0.199-22.776,0.826-34.111
		c0.624-6.904,2.059-13.648,4.973-20.124c3.719-8.265,8.996-15.334,15.113-21.828c5.489-5.827,12.156-9.601,20.316-10.411
		c1.214-0.12,2.364-0.877,3.377-1.275c-0.168-2.858-1.45-4.354-3.527-4.65c-2.438-0.347-5.036-0.601-7.415-0.134
		c-5.496,1.078-10.722,3.053-14.979,6.89c-4.327,3.899-8.838,7.623-11.914,12.733c-0.943,1.567-2.05,3.416-5.046,2.727
		c0.141-1.251,0.064-2.615,0.475-3.812c1.172-3.414,2.737-6.7,3.794-10.146c2.166-7.056,5.876-13.163,10.744-18.632
		c0.734-0.825,1.536-1.616,2.123-2.539c1.028-1.618,0.544-3.829-1.011-5.271c-1.579-1.464-3.637-1.684-5.324-0.44
		c-0.881,0.65-1.76,1.392-2.397,2.27c-4.885,6.731-10.393,13.109-12.373,21.526c-0.175,0.746-0.857,1.373-1.568,2.458
		c-2.565-0.444-5.206-0.901-7.718-1.337c-5.421-9.371-12.13-17.07-20.284-23.511c-1.303-1.029-2.409-2.305-3.659-3.407
		c-3.532-3.111-6.824-6.586-10.69-9.211c-13.375-9.081-27.331-16.932-43.131-21.351c-7.056-1.973-14.018-3.435-21.273-3.309
		c-4.996,0.086-9.978,0.834-14.976,0.991c-11.284,0.354-20.905,5.041-30.144,10.99c-9.716,6.256-17.686,14.416-24.833,23.297
		c-3.791,4.711-6.423,10.369-9.446,15.674c-0.846,1.484,0.713,3.634,2.484,3.345c1.525-0.248,3.376-0.789,4.325-1.868
		c3.113-3.542,6.174-7.198,8.726-11.151c7.423-11.498,17.452-20.101,29.189-26.803c3.582-2.045,7.48-3.625,11.377-5.012
		c8.819-3.14,17.941-2.956,27.184-2.558c9.368,0.404,18.095,2.598,26.468,6.62c9.781,4.698,19.17,9.991,28.116,16.212
		c9.713,6.754,17.717,15.152,25.238,24.067c2.822,3.346,4.935,7.36,6.976,11.276c2.112,4.051,4.522,7.623,8.805,9.638
		c0.671,0.315,1.09,1.165,1.66,1.806c0,0.885,0.149,1.744-0.023,2.533c-1.99,9.151-1.698,18.196,0.792,27.241
		c0.568,2.063,0.545,4.427,0.231,6.57c-1.294,8.83-1.41,17.69-1.567,26.596c-0.339,19.286,5.302,36.68,15.401,52.846
		c0.736,1.178,1.496,2.352,2.358,3.438c1.525,1.921,1.803,4.087,1.12,6.303c-1.062,3.448-2.097,6.935-3.553,10.225
		c-5.501,12.436-11.166,24.799-16.833,37.328c-1.031,0.313-2.28,0.691-3.706,1.123c0.808,1.543,1.946,2.744,1.934,3.933
		c-0.016,1.554-0.614,3.355-1.569,4.575c-0.943,1.204-2.533,2.19-4.028,2.625c-9.336,2.721-18.712,5.31-28.1,7.847
		c-9.385,2.536-18.822,4.882-28.186,7.494c-2.068,0.577-4.079,1.705-5.831,2.973c-1.687,1.221-1.183,4.138,0.664,4.888
		c3.164,1.286,6.475,2.174,9.57,0.079c4.275-2.895,9.209-3.81,14.02-5.118c7.507-2.042,15.052-3.943,22.549-6.021
		c4.819-1.336,9.564-2.938,14.375-4.309c2.395-0.683,4.78-1.225,7.265,0.134c5.919,3.237,12.14,3.056,18.613,1.779
		c6.251-1.233,12.62-1.922,18.961-2.631c6.9-0.771,13.819-1.646,20.746-1.83c9.148-0.243,18.369-0.451,27.458,0.398
		c12.573,1.174,24.291,5.641,35.524,11.394c8.112,4.155,14.967,9.692,19.434,17.691c4.193,7.511,8.119,15.185,11.861,22.932
		c7.056,14.608,11.283,30.171,14.771,45.935c0.644,2.911,0.981,6.12,0.457,9.01c-1.038,5.726-2.491,11.418-4.312,16.946
		c-1.466,4.451-3.396,8.828-5.717,12.897c-2.809,4.926-6.517,6.169-12.06,4.952c-3.999-0.878-7.166-2.875-9.083-6.649
		c-1.511-2.973-3.283-5.82-4.691-8.838c-1.454-3.117-3.665-5.079-7.121-4.581c-3.39,0.488-3.901,3.377-4.348,6.26
		c-0.422,2.725-1.133,5.416-1.866,8.08c-1.117,4.061-4.106,5.818-8.086,5.886c-1.901,0.032-3.919-0.159-5.697-0.782
		c-7.275-2.548-12.348-7.412-14.407-14.969c-0.873-3.204-1.247-6.542-1.896-9.81c-0.376-1.894-0.617-3.865-1.34-5.628
		c-0.749-1.828-2.192-3.434-4.377-3.325c-2.134,0.107-3.511,1.653-4.11,3.625c-0.479,1.578-0.532,3.28-0.903,4.897
		c-1.494,6.51-3.046,13.017-6.416,18.876c-2.299,3.997-5.371,5.692-9.755,4.484c-5.624-1.549-11.123-3.717-14.73-8.787
		c-1.123-1.579-2.107-3.269-3.03-4.976c-4.527-8.37-5.384-17.327-4.742-26.693c0.474-6.909,0.307-13.883,0.016-20.81
		c-0.099-2.356-1.176-4.805-2.314-6.942c-0.973-1.826-3.363-2.202-5.161-1.381c-1.7,0.777-2.653,2.176-2.336,3.993
		c1.883,10.795,0.826,21.644,0.654,32.47c-0.026,1.628,0.064,3.219,0.24,4.789c-1.773,0.21-3.576,0.279-5.373,0.204
		c-0.861-0.719-2.013-1.099-3.452-1.023c-3.583,0.188-7.13,1.124-10.711,1.269c-12.495,0.506-25,1.147-37.499,1.114
		c-18.698-0.05-37.17-2.009-54.875-8.645c-6.237-2.338-12.711-4.122-18.762-6.855c-9.61-4.341-19.038-9.11-28.367-14.032
		c-3.129-1.65-6.097-3.982-8.452-6.616c-2.292-2.565-4.595-4.87-7.839-5.927c-3.331-1.085-5.648-3.386-8.047-5.729
		c-7.792-7.609-14.413-16.195-20.722-25.009c-3.713-5.187-7.394-10.504-10.214-16.196c-3.442-6.95-6.081-14.31-8.865-21.571
		c-8.421-21.962-13.823-44.609-14.365-68.202c-0.338-14.723-0.125-29.461-0.058-44.191c0.022-5.001,0.296-10.004,0.556-15
		c0.827-15.884,3.966-31.444,7.11-46.964c1.538-7.591,3.871-15.125,6.763-22.316c5.071-12.609,9.519-25.516,16.296-37.392
		c4.677-8.196,8.74-16.811,14.081-24.546c12.997-18.827,28.566-35.453,45.628-50.68c10.611-9.47,22.595-17.12,34.268-25.098
		c21.368-14.604,39.555-32.262,54.628-53.219c1.297-1.804,2.609-3.615,3.701-5.543c1.181-2.084,2.112-4.309,3.153-6.472
		c1.1,1.774,1.396,3.343,1.106,4.795c-1.917,9.63-1.272,19.4-1.6,29.107c-0.13,3.851,0.369,7.795,1.126,11.588
		c1.521,7.628,3.214,15.234,5.206,22.752c2.853,10.771,6.348,21.316,12.9,30.561c1.116,1.575,1.977,3.347,2.83,5.089
		c4.071,8.32,10.034,15.332,15.786,22.445c4.262,5.271,9.703,8.31,16.885,6.086c0.734-0.227,1.621,0.045,3.066,0.116
		c2.812,2.885,6.14,5.848,8.93,9.251c7.155,8.725,16.643,12.706,27.471,14.135c1.332,0.176,3.024,0.3,4.048-0.346
		c3.865-2.438,6.803-0.695,9.874,1.524c4.054,2.929,8.035,6.026,12.37,8.483c7.161,4.06,14.73,6.625,23.015,3.232
		c2.473-1.013,4.868-0.907,7.266,0.195c6.151,2.827,12.65,3.911,19.378,4.333c3.357,0.211,6.467,0.858,9.629-1.131
		c1.523-0.958,3.688-1.142,5.581-1.219c8.518-0.346,16.341-3.005,23.784-6.926c3.179-1.675,6.219-3.613,9.301-5.42
		c5.954,1.621,11.791,3.394,17.717,4.787c13.516,3.178,27.074,6.179,40.621,9.225c1.351,0.304,2.738,0.516,4.12,0.606
		c9.446,0.616,18.886,1.184,28.131-1.717c1.574-0.494,3.269-0.673,4.924-0.829c9.261-0.868,17.905-3.774,26.264-7.723
		c4.772-2.254,9.556-4.515,14.467-6.434c10.954-4.281,21.164-9.777,30.133-17.455c0.632-0.541,1.27-1.084,1.955-1.553
		c4.116-2.818,5.732-2.795,9.687,0.224C952.22,1374.715,960.813,1381.315,967.852,1389.674z M1031.328,1290.189
		c-1.386,2.072-3.18,3.875-4.53,5.967c-2.079,3.222-4.439,5.524-8.713,5.255c-4.208-0.265-6.067,3.382-8.721,6.402
		c-9.36-2.243-18.685-4.862-28.167-6.642c-9.625-1.807-18.757-4.964-28.067-8.369c-2.41-3.714-1.711-7.844-1.61-12.318
		c8.828-4.104,18.46-3.882,27.599-5.58c9.241-1.718,18.748-2.201,28.166-2.727c9.378-0.524,18.797-0.526,28.741,1.439
		C1036.82,1280.606,1034.447,1285.529,1031.328,1290.189z M1046.962,1233.662c0.234,0.795,0.457,1.617,0.51,2.438
		c0.321,4.978,0.721,9.956,0.836,14.941c0.088,3.806-1.271,7.042-4.725,9.141c-1.179,0.716-2.331,1.531-3.329,2.477
		c-1.78,1.688-3.78,1.964-6.132,1.67c-10.202-1.272-20.417-1.643-30.671-0.395c-3.288,0.4-6.642,0.267-9.967,0.338
		c-11.983,0.255-23.614,3.134-35.416,4.736c-3.277,0.445-6.545,0.952-10.618,1.548c-2.719-4.938-7.098-7.816-9.078-13.091
		c1.371-0.975,2.523-2.203,3.937-2.73c7.783-2.901,15.501-6.102,23.488-8.301c10.677-2.94,21.584-5.045,32.386-7.536
		c2.967-0.684,5.897-1.535,8.869-2.193c9.197-2.037,18.393-4.08,27.619-5.977c2.426-0.499,4.956-0.614,7.444-0.665
		C1044.871,1230.005,1046.212,1231.11,1046.962,1233.662z M968.394,1018.343c1.508,2.3,2.605,4.921,3.575,7.513
		c1.431,3.821,0.364,5.762-3.461,6.88c-0.794,0.232-1.671,0.186-2.461,0.429c-4.53,1.39-6.162,4.482-4.217,8.984
		c5.309,12.286,8.858,25.14,12.456,37.968c4.684,16.695,7.001,33.716,6.06,51.1c-0.075,1.387-0.255,2.775-0.227,4.16
		c0.062,3.002,1.31,5.204,4.171,5.307c5.597,0.2,8.973,3.541,12.679,7.011c10.174,9.522,19.694,19.628,27.566,31.12
		c6.284,9.175,11.672,18.945,15.876,29.263c1.528,3.751,2.802,7.816,1.695,12.556c-2.081,0.57-4.132,1.375-6.255,1.672
		c-10.201,1.422-20.213,3.633-30.191,6.208c-9.674,2.497-19.617,3.938-29.322,6.328c-12.669,3.12-25.446,5.951-37.555,11.015
		c-1.795,0.751-3.642,1.382-5.414,2.181c-2.455,1.106-4.817,1.125-7.179-0.229c-1.446-0.828-2.904-1.642-4.393-2.388
		c-4.001-2.006-4.505-1.814-8.077,3.108c0.82,1.77,1.723,3.717,2.665,5.75c-0.628,0.731-1.033,1.559-1.692,1.911
		c-4.396,2.349-8.846,4.596-13.359,6.918c0,1.804-0.467,3.606,0.094,4.994c1.312,3.251,4.363,4.181,7.469,2.608
		c3.718-1.884,7.35-3.941,11.098-5.761c2.716-1.319,5.561-2.375,7.99-3.398c6.785,4.248,7.089,4.629,8.337,10.308
		c-2.956,2.199-6.615,2.242-10.1,2.854c-2.174,0.382-4.381,0.666-6.493,1.273c-1.563,0.449-2.346,2.661-1.694,4.194
		c1.308,3.072,3.553,5.136,7.06,4.474c3.549-0.67,7.117-1.257,10.694-1.76c1.332-0.187,2.712-0.03,4.033-0.03
		c2.219,2.978,2.165,5.782,0.508,9.293c-2.601,0.08-5.313,0.158-8.024,0.25c-4.44,0.149-8.886,0.212-13.315,0.512
		c-1.619,0.109-3.249,0.659-4.783,1.247c-1.619,0.62-2.198,2.657-1.411,4.226c1.415,2.82,3.718,3.923,6.825,3.684
		c3.875-0.299,7.756-0.582,11.639-0.684c1.903-0.05,3.816,0.324,5.502,0.486c1.463,2.266,0.94,4.053-0.499,5.599
		c-2.272,2.44-4.408,5.094-7.024,7.11c-9.491,7.316-19.392,13.843-31.179,17.188c-8.063,2.288-16.175,4.031-24.485,4.83
		c-3.013,0.29-6.151,0.357-9.116-0.152c-6.68-1.147-12.094-4.423-14.365-11.184c-1.941-5.779-3.755-11.651-4.95-17.618
		c-1.306-6.523-1.814-13.204-2.711-19.811c-0.478-3.523-1.043-7.035-1.666-11.209c2.16-1.12,4.78-2.539,7.454-3.849
		c3.134-1.536,5.35-3.822,6.67-7.1c2.622-6.511,7.592-10.81,13.651-14.004c1.228-0.648,2.511-1.193,3.745-1.83
		c6.575-3.389,10.072-8.486,9.163-16.168c-0.455-3.845-0.808-7.641,0.316-11.561c1.024-3.576-0.869-6.113-3.989-8.309
		c-5.939-4.182-12.531-5.829-19.557-6.239c-21.994-1.283-43.091,2.331-63.545,10.721c-6.664,2.733-9.685,7.94-12.856,13.386
		c-0.678,1.164-0.473,3.468,0.255,4.694c1.534,2.58,3.388,5.141,5.653,7.075c3.146,2.688,6.612,5.129,10.263,7.069
		c5.615,2.983,9.883,7.097,12.846,12.669c0.913,1.716,1.925,3.383,2.954,5.034c3.189,5.118,7.48,8.891,13.278,10.829
		c1.03,0.344,2.004,0.859,3.298,1.423c0.1,2.235,0.273,4.427,0.281,6.62c0.019,5.003-0.333,10.025-0.001,15.004
		c0.436,6.537-0.819,12.746-2.827,18.839c-2.887,8.76-8.344,15.016-17.765,16.962c-4.35,0.899-8.718,1.844-13.126,2.298
		c-13.822,1.426-27.681,3.02-41.573,1.171c-11.759-1.565-22.365-6.137-31.786-12.971c-0.153-2.329,1.341-2.663,2.636-2.873
		c5.51-0.895,11.022-1.241,16.584-0.166c2.497,0.482,3.968-0.647,4.355-2.697c0.488-2.585-0.367-4.857-2.513-5.531
		c-2.089-0.656-4.347-1.217-6.503-1.129c-5.264,0.216-10.512,0.823-15.764,1.292c-3.003,0.267-6.003,0.571-8.91,0.849
		c-3.385-3.883-5.105-7.637-3.615-12.759c6.639-1.012,12.84,0.921,19.054,1.855c4.35,0.654,8.55,2.294,12.822,3.474
		c1.721,0.476,3.329,0.409,4.379-1.317c1.274-2.093,1.222-4.893-0.512-6.093c-1.779-1.23-3.839-2.326-5.928-2.787
		c-7.053-1.554-14.172-2.81-21.269-4.158c-2.424-0.46-4.861-0.855-7.527-1.32c-1.148-4.987,1.247-8.366,3.914-11.523
		c1.175-1.391,2.984-1.188,4.656-0.556c5.974,2.258,11.941,4.532,17.941,6.717c2.341,0.853,4.75,1.527,7.151,2.205
		c1.833,0.517,3.343-0.01,4.032-1.879c0.723-1.958,0.618-4.005-1.116-5.318c-1.278-0.968-2.954-1.431-4.487-2.035
		c-6.173-2.431-12.359-4.83-18.47-7.213c-0.289-2.47-0.296-4.429-0.781-6.26c-0.903-3.409-4.415-4.682-7.2-2.656
		c-1.543,1.123-2.866,2.549-4.274,3.826c-32.12-8.192-64.398-8.505-96.891-4.967c0.421,5.9,4.284,9.573,9.405,9.152
		c5.254-0.431,10.492-1.104,15.753-1.379c14.186-0.739,28.355-0.184,42.482,1.156c5.525,0.524,11.017,1.468,16.491,2.415
		c1.832,0.317,3.56,1.237,5.51,1.944c-0.275,5.554-3.126,9.656-5.309,14.236c-14.043,0.396-27.902,0.403-41.706,1.284
		c-13.552,0.865-27.048,2.62-40.427,3.97c-2.435,2.132-2.151,4.493-1.029,6.934c0.762,1.658,2.166,2.7,3.925,2.629
		c2.766-0.111,5.533-0.479,8.273-0.905c20.653-3.206,41.419-4.68,62.318-4.16c1.655,0.041,3.366,0.125,4.931,0.59
		c0.93,0.276,2.236,1.265,2.329,2.056c0.581,4.923,3.838,9.208,3.585,14.519c-4.141,2.708-8.842,3.327-13.376,4.442
		c-11.054,2.718-22.121,5.391-33.139,8.25c-2.378,0.617-4.706,1.718-6.818,2.993c-2.085,1.259-2.654,3.425-2.123,5.851
		c0.619,2.83,3.116,4.596,5.559,3.245c13.418-7.423,28.65-8.623,43.005-12.809c1.599-0.466,3.251-0.744,4.875-1.125
		c9.53-2.237,7.855-2.096,16.542,3.652c12.229,8.091,25.123,14.649,40.481,16.29c17.731,1.894,34.93-0.771,52.293-2.64
		c6.141-0.661,11.773-3.308,17.061-6.395c4.495-2.624,6.977-7.049,8.927-11.745c0.819-1.972,1.596-3.961,2.404-5.972
		c3.297,1.039,3.76,3.737,5.013,5.77c4.735,7.679,11.536,12.645,20.056,15.381c4.322,1.389,8.738,1.613,13.196,0.948
		c5.496-0.82,10.985-1.689,16.466-2.605c10.275-1.719,19.68-5.809,28.556-11.061c4.994-2.955,10.028-5.836,14.512-9.7
		c6.203-5.345,11.203-11.484,14.946-19.148c1.979,0.094,3.929-0.124,5.713,0.323c8.887,2.225,17.713,4.697,26.6,6.923
		c2.953,0.74,6.071,0.819,9.03,1.542c3.475,0.849,6.86,2.069,10.555,3.213c-0.523,5.232-4.109,8.276-7.715,9.088
		c-5.938,1.336-9.734,4.703-13.345,9.023c-2.571,3.075-6.16,4.862-10.003,5.686c-5.777,1.24-10.899,4.114-16.379,5.996
		c-9.645,3.313-18.021,8.37-25.525,15.187c-10.471,9.514-23.443,14.753-36.072,20.527c-5.8,2.652-11.51,5.704-17.575,7.538
		c-18.249,5.52-36.731,8.347-55.848,4.206c-17.938-3.885-35.738-8.227-53.26-13.675c-5.555-1.727-11.157-3.525-14.246-9.403
		c-3.744,2.453-5.16,5.097-5.124,8.706c0.039,3.873,4.311,4.052,5.973,7.321c-0.838,0.973-1.597,2.597-2.84,3.17
		c-6.376,2.941-12.987,5.099-20.155,3.496c-2.573-0.575-4.633-0.476-6.949,1.302c-1.55,1.19-4.148,1.405-6.273,1.39
		c-8.221-0.059-15.831-2.576-22.663-6.389c-0.946,0.099-1.665-0.049-2.006,0.243c-5.136,4.417-10.613,3.762-16.427,1.516
		c-5.009-1.935-9.372-4.832-13.579-8.041c-3.313-2.527-6.562-5.137-9.84-7.711c-1.469-1.154-3.307-1.511-4.634-0.365
		c-6.714,5.801-13.364,2.53-19.151-0.904c-5.401-3.205-9.827-8.081-14.577-12.339c-2.477-2.221-4.628-4.807-7.111-7.021
		c-2.265-2.019-4.626-2.817-7.271-0.129c-1.842,1.872-4.145,1.221-6.064-0.255c-1.091-0.839-2.066-1.859-2.971-2.904
		c-10.269-11.854-19.264-24.707-24.478-39.48c-6.754-19.138-12.096-38.743-11.534-59.415c0.124-4.569,0.704-8.946,2.272-13.172
		c-0.007-0.078-0.027-0.151-0.03-0.23c-0.328-8.017,3.344-15.576,6.16-22.892c0.029-0.076,0.057-0.151,0.086-0.227
		c1.618-5.56,4.155-10.424,9.589-12.959c0.83-0.551,1.655-1.108,2.458-1.692c4.695-6.073,10.245-11.517,16.571-16.376
		c10.135-7.786,20.552-15.199,32.241-20.602c3.029-1.4,3.687-2.865,2.808-5.084c-1.067-2.693-3.308-4.104-5.9-3.105
		c-3.874,1.492-7.841,3.005-11.315,5.22c-7.955,5.071-15.88,10.256-23.348,16.005c-5.474,4.213-10.214,9.382-15.255,14.152
		c-1.579,1.494-3.074,3.077-5.01,5.023c-1.057-1.495-1.997-2.479-2.514-3.649c-0.551-1.247-0.915-2.658-0.994-4.019
		c-1.033-17.735-2.54-35.394,1.096-53.142c3.131-15.28,7.933-30.071,11.64-45.169c1.481-6.033,5.042-11.09,8.099-16.372
		c1.114-1.924,2.203-3.863,3.296-5.8c2.963-5.252,1.127-9.899-4.678-11.419c-2.082-0.545-4.299-0.572-6.406-0.829
		c-1.542-3.249-0.292-5.885,1.088-8.165c2.29-3.784,4.759-7.535,7.655-10.863c6.196-7.122,12.75-13.932,19.08-20.939
		c2.419-2.677,4.539-5.624,6.956-8.304c2.4-2.662,3.393-5.681,3.005-9.193c-0.274-2.483-0.445-4.99-0.925-7.435
		c-0.852-4.34-1.904-8.641-3-13.528c-9.632-7.708-18.15-17.225-25.894-27.41c-8.574-11.277-16.778-22.826-23.744-35.204
		c-7.082-12.585-13.837-25.345-22.745-36.842c-4.561-5.886-7.857-12.753-12.429-18.629c-9.711-12.478-17.833-26.178-28.929-37.589
		c-4.641-4.773-8.956-9.882-13.804-14.426c-4.237-3.971-9.007-7.375-13.556-11.012c-3.471-2.774-6.859-5.669-10.475-8.24
		c-4.065-2.89-8.383-5.421-12.52-8.212c-5.293-3.57-10.525-7.23-15.744-10.909c-0.346-0.244-0.349-0.974-0.512-1.478
		c0.396-0.313,0.802-0.898,1.184-0.882c1.083,0.045,2.235,0.147,3.222,0.558c22.555,9.379,45.297,18.444,64.637,33.91
		c5.848,4.677,11.537,9.594,16.941,14.774c7.622,7.305,14.916,14.954,22.34,22.466c0.777,0.787,1.558,1.59,2.208,2.48
		c8.024,10.992,16.255,21.844,23.962,33.055c6.753,9.825,13.036,19.981,19.284,30.14c4.072,6.622,7.72,13.507,11.538,20.285
		c4.516,8.018,9.691,15.552,16.009,22.283c1.512,1.611,2.769,3.472,4.06,5.277c3.249,4.544,7.011,8.595,11.017,11.987
		c3.077,0.207,5.859,0.07,8.49,0.634c6.577,1.411,12.713,0.344,18.594-2.645c5.73-2.913,11.078-6.445,15.667-10.954
		c16.603-16.314,36.091-28.63,56.035-40.244c5.466-3.183,11.617-5.235,17.563-7.52c1.944-0.747,4.237-0.59,7.173-0.942
		c-0.45,1.964-0.411,3.382-1.058,4.331c-2.346,3.437-4.987,6.672-7.393,10.07c-1.805,2.549-1.592,5.23,0.034,7.82
		c1.597,2.544,4.487,3.601,7.204,2.266c2.985-1.467,5.839-3.221,8.663-4.99c7.639-4.787,15.889-7.924,24.776-9.395
		c1.093-0.181,2.204-0.308,3.309-0.329c0.515-0.01,1.036,0.294,1.566,0.46c1.116,1.517-0.007,2.578-0.862,3.563
		c-1.82,2.098-3.803,4.054-5.623,6.153c-1.375,1.586-1.748,3.481-0.911,5.446c1.054,2.475,2.881,4.199,5.652,4.249
		c1.619,0.029,3.249-0.579,4.874-0.896c4.905-0.955,9.798-1.982,14.724-2.82c1.591-0.271,3.266-0.042,5.108-0.042
		c0.82,1.997,1.478,3.786,2.279,5.508c1.316,2.831,3.499,4.244,6.698,3.733c1.647-0.263,3.321-0.454,4.918-0.907
		c9.996-2.836,19.954-1.717,29.63,1.054c9.579,2.743,19.104,5.74,27.386,11.863c5.703,4.216,10.926,3.362,15.734-1.503
		c5.453-5.518,10.924-11.031,16.122-16.785c5.95-6.585,11.821-13.265,17.323-20.223c3.951-4.996,7.473-10.375,10.772-15.834
		c5.313-8.79,10.549-17.647,15.336-26.73c6.639-12.597,14.982-24.015,23.489-35.335c3.168-4.216,6.704-8.165,10.198-12.124
		c7.755-8.788,16.751-16.118,26.361-22.815c17.461-12.169,36.684-20.788,56.33-28.592c9.285-3.688,18.639-7.205,28-10.698
		c1.404-0.524,3.016-0.493,5.677-0.889c-2.527,3.337-5.186,4.153-7.589,5.442c-7.817,4.193-15.657,8.367-23.252,12.939
		c-3.529,2.124-6.659,4.992-9.717,7.798c-8.188,7.514-16.599,14.834-24.258,22.864c-10.375,10.877-19.065,23.141-27.043,35.889
		c-7.072,11.299-14.226,22.547-21.255,33.872c-3.803,6.129-7.681,12.234-11.059,18.597c-5.13,9.663-12.075,17.953-18.996,26.276
		c-5.506,6.621-11.313,12.993-16.767,19.656c-4.267,5.213-8.985,9.874-14.713,13.411c-3.516,2.171-4.461,5.096-4.333,9.13
		c0.216,6.797,2.824,12.516,7.192,17.334c5.391,5.946,10.523,12.123,16.92,17.181
		C957.524,1003.455,963.342,1010.636,968.394,1018.343z M834.868,1265.854c-3.833-0.16-7.056,0.535-9.896,3.822
		c-1.401-1.367-2.791-2.302-3.602-3.599c-1.902-3.044-3.563-6.243-5.256-9.413c-2.396-4.485-5.422-8.216-10.121-10.633
		c-4.421-2.274-8.562-5.1-12.781-7.755c-2.238-1.408-3.658-3.349-3.214-6.796c31.719-13.854,50.262-17.174,73.381-13.217
		c1.818,1.983,3.45,4.193,5.505,5.891c3.452,2.854,3.758,6.581,3.521,10.526c-0.13,2.164-1.871,3.292-3.42,4.46
		c-4.423,3.332-9.086,6.392-13.218,10.052c-3.059,2.71-6.024,5.866-7.978,9.404C844.836,1263.942,840.462,1266.088,834.868,1265.854
		z M1160.341,748.547c-3.212,6.768-6.343,13.579-9.783,20.231c-5.762,11.141-9.777,22.986-14.202,34.66
		c-7.196,18.984-14.899,37.786-26.273,54.657c-7.74,11.48-16.652,22.193-25.36,32.992c-14.096,17.481-32.821,28.874-52.583,38.656
		c-11.936,5.908-24.33,10.887-36.279,16.77c-14.973,7.371-29.063,16.187-42.001,26.851c-3.03,2.498-3.611,5.983-5.587,9.285
		c-1.713-0.84-3.477-1.237-4.542-2.321c-2.518-2.566-4.963-5.284-6.965-8.258c-3.336-4.957-2.44-9.312,2.356-13.045
		c8.151-6.343,15.324-13.632,21.664-21.784c4.941-6.352,9.732-12.866,15.169-18.774c8.008-8.703,13.116-19.244,19.324-29.068
		c9.778-15.472,18.529-31.57,29.122-46.563c4.964-7.026,9.786-14.1,15.2-20.819c10.169-12.621,22.171-23.302,34.253-33.946
		c5.679-5.003,12.104-8.872,18.795-12.272c13.606-6.912,27.206-13.852,41.007-20.358c6.993-3.297,14.399-5.731,21.67-8.415
		c1.43-0.528,3.097-0.412,4.599-0.587C1160.161,747.541,1160.519,748.171,1160.341,748.547z"/>
	<path d="M423.782,1546.817c1.809-15.534,4.878-30.153,13.913-42.734c7.668-10.678,17.757-18.202,30.559-21.797
		c1.066-0.3,2.145-0.609,3.239-0.741c1.399-0.169,2.776-0.05,3.527,1.453c0.684,1.369-0.059,2.913-2.024,3.973
		c-1.217,0.656-2.508,1.176-3.769,1.75c-13.205,6.005-22.379,15.859-28.675,28.872c-4.422,9.139-7.267,18.532-8.142,28.634
		c-0.282,3.257-1.396,6.472-2.418,9.612c-0.246,0.755-1.7,1.64-2.494,1.549c-0.837-0.095-2.025-1.171-2.23-2.02
		C424.555,1552.427,424.204,1549.4,423.782,1546.817z"/>
	<path d="M628.274,1520.789c-3.177,1.101-4.799-0.449-5.467-2.718c-2.305-7.818-1.753-15.554,2.978-22.26
		c7.401-10.489,17.431-17.746,29.825-21.317c6.939-1.999,14.145-2.569,21.381-2.386c0.547,0.014,1.209-0.034,1.611,0.245
		c0.645,0.448,1.559,1.146,1.56,1.738c0.001,0.971-0.385,2.494-1.06,2.807c-1.698,0.786-3.627,1.16-5.502,1.464
		c-13.562,2.201-25.253,7.95-34.6,18.151c-5.371,5.863-8.877,12.623-9.774,20.632
		C629.079,1518.454,628.562,1519.72,628.274,1520.789z"/>
	<path d="M458.625,1641.961c-0.287-1.574-0.879-2.866-0.679-4.02c3.083-17.774,9.192-34.171,21.967-47.474
		c5.075-5.284,11.282-8.939,17.816-11.99c4.066-1.899,8.516-2.537,12.966-1.295c0.919,0.256,2.041,1.236,2.253,2.087
		c0.156,0.624-0.881,2.118-1.624,2.312c-15.738,4.103-26.591,14.57-34.809,27.776c-4.488,7.212-7.528,15.359-10.877,23.231
		C464.125,1636.142,463.11,1639.81,458.625,1641.961z"/>
	<path d="M940.194,1470.892c-2.764-0.661-3.625-2.101-2.921-4.386c0.242-0.784,0.562-1.61,1.069-2.236
		c5.609-6.929,12.456-11.888,21.675-12.263c14.59-0.595,25.792,5.189,32.822,18.288c1.68,3.132,3.819,6.063,4.683,9.356
		c-1.414,1.889-2.777,1.329-3.776,0.388c-2-1.884-3.88-3.912-5.669-6.001c-4.6-5.368-9.822-9.551-16.977-11.25
		c-10.656-2.531-20.273-1.419-28.502,6.424C941.83,1469.942,940.844,1470.445,940.194,1470.892z"/>
	<path d="M763.741,1674.193c2.617-0.221,4.2-0.704,5.582-0.368c1.243,0.303,2.486,1.322,3.351,2.344
		c4.185,4.952,9.766,6.016,15.76,5.728c9.654-0.464,18.403-3.606,26.184-9.374c1.329-0.985,2.54-2.205,4.004-2.9
		c0.785-0.373,2.29-0.203,2.927,0.349c0.673,0.582,1.264,2.211,0.916,2.865c-2.326,4.37-4.664,8.597-9.827,10.648
		c-7.79,3.095-15.555,5.708-24.104,5.155c-5.038-0.326-9.856-1.402-14.47-3.408C769.578,1683.283,766.361,1680.086,763.741,1674.193
		z"/>
	<path d="M526.264,1296.033c2.615,0.783,4.188,2.48,4.358,5.298c0.1,1.66,0.222,3.339,0.085,4.989
		c-0.759,9.139,3.013,16.701,8.166,23.793c0.486,0.668,1.174,1.187,1.681,1.843c1.492,1.927,1.728,3.669,0.629,4.404
		c-1.79,1.198-3.28,0.051-4.486-0.932c-6.569-5.359-12.238-11.456-13.415-20.297c-0.618-4.64-0.644-9.37-0.737-14.064
		C522.498,1298.634,523.834,1296.896,526.264,1296.033z"/>
	<path d="M766.144,1100.299c-2.252-9.975-7.812-18.276-14.185-26.046c-1.199-1.462-2.847-2.745-4.549-3.577
		c-11.214-5.484-22.814-7.498-34.45-1.711c-10.947,5.445-19.624,13.333-24.375,25.059c-4.095,10.108-6.426,20.62-8.432,31.283
		c-2.517,13.377-1.924,26.431,2.076,39.485c2.165,7.064,5.526,13.421,10.144,18.941c3.514,4.2,7.736,8.011,13.03,10.15
		c9.748,3.939,19.602,3.133,29.414,0.36c8.955-2.531,14.167-9.344,18.631-16.893c0.703-1.189,1.247-2.476,1.808-3.743
		c5.103-11.532,7.82-23.652,8.926-36.174c0.195-2.205,0.547-4.397,0.845-6.593c0.853-6.3,1.716-12.599,2.462-18.071
		C767.002,1107.986,766.99,1104.048,766.144,1100.299z M746.33,1170.14c-0.7,3.439-2.289,7.258-5.564,8.972
		c-3.112,1.629-6.609,0.57-9.66-0.612c-0.535-0.207-0.92-0.543-1.177-0.94c-2.613-0.858-4.943-4.382-5.276-8.357
		c-0.069-0.825-0.01-1.66-0.01-3.549c0.428-1.4,0.967-3.843,1.928-6.105c0.04-0.094,0.093-0.172,0.137-0.262
		c0.19-2.55,2.5-4.057,4.868-4.367c0.013-0.002,0.025,0,0.038-0.002c0.106-0.082,0.199-0.176,0.317-0.248
		c1.905-1.156,4.978-0.422,6.961,0.158C745.596,1156.79,747.609,1163.86,746.33,1170.14z M744.238,1148.164
		c-0.148-0.365-0.422-0.906-0.758-1.408c-0.829,0-1.629-0.438-2.026-1.352c-0.734-0.076-1.439-0.287-2.043-0.653
		c-1.533-0.137-3.02-0.271-4.49-0.391c-6.431-0.523-11.46,1.55-14.181,7.771c-1.553,3.551-3.571,7.01-4.424,10.73
		c-1.414,6.162-0.584,12.169,3.732,17.259c1.224,1.443,2.414,2.916,3.506,4.237c-0.74,1.814-1.848,2.099-2.921,1.931
		c-0.166,0.091-0.339,0.174-0.538,0.213c-10.901,2.126-18.691-6.406-19.063-16.801c-0.17-4.756-0.43-12.993,2.043-18.445
		c0.283-2.166,1.075-4.283,1.927-6.267c0.166-0.387,0.342-0.78,0.524-1.172c0.428-2.288,0.879-4.572,1.364-6.847
		c2.374-11.128,11.555-19.143,25.511-16.867c0.024,0.004,0.047,0.01,0.071,0.014c1.099-0.327,2.344-0.278,3.63,0.392
		c3.354,1.749,5.578,5.543,7.562,8.631c1.365,2.124,2.654,4.734,3.297,7.389c0.435,0.684,0.804,1.411,1.034,2.233
		c0.739,2.648,0.276,5.47,0.767,8.156C749.315,1149.936,745.364,1150.938,744.238,1148.164z M757.995,1120.144
		c0.378,1.754,0.143,3.226-0.314,4.937c-0.456,1.706-0.654,3.384-0.68,5.15c-0.029,2.036-2.165,2.693-3.545,1.986
		c-0.001,0.018-0.002,0.034-0.003,0.052c-0.014-0.025-0.025-0.046-0.04-0.071c-0.647-0.349-1.118-1.002-1.104-1.967
		c0-0.002,0-0.004,0-0.006c-1.155-2.059-1.857-3.305-2.538-4.551c-4.657-8.516-11.545-13.327-21.539-13.024
		c-2.5,0.076-5.015-0.059-7.5,0.161c-10.5,0.93-18.098,7.143-20.865,17.398c-2.665,9.88-4.999,19.85-7.717,30.736
		c-4.433-10.683-4.248-20.968-2.508-31.119c1.591-9.283,3.966-18.47,6.588-27.529c3.514-12.143,11.965-20.526,22.539-26.791
		c7.723-4.575,19.36-2.834,25.412,3.625c0.345,0.368,0.655,0.782,0.955,1.206c0.054,0.041,0.11,0.068,0.164,0.112
		c1.811,1.469,3.266,2.067,4.665,4.07c0.455,0.651,0.672,1.336,0.732,2.015c6.88,8.085,8.423,23.076,7.164,33.2
		C757.913,1119.861,757.962,1119.994,757.995,1120.144z"/>
	<path d="M952.421,1096.741c-1.894-5.512-3.916-10.981-5.908-16.459c-1.652-4.542-4.102-8.646-8.269-11.191
		c-10.086-6.159-21.022-8.649-32.751-6.342c-6.237,1.227-11.261,4.163-14.328,10.254c-2.141,4.253-4.083,8.494-5.141,13.122
		c-4.006,17.521-4.736,35.12-2,52.948c1.674,10.913,5.494,20.845,10.979,30.325c4.27,7.38,10.679,11.1,18.898,11.95
		c7.613,0.787,14.986-0.614,21.998-3.517c2.222-0.92,4.354-2.546,5.971-4.347c5.086-5.667,8.795-12.183,10.08-19.782
		c1.759-10.402,3.514-20.819,3.563-32.957C955.142,1113.684,955.267,1105.025,952.421,1096.741z M930.251,1167.589
		c-0.672,0.479-1.365,0.931-2.077,1.348c-5.646,3.309-9.425,1.432-10.366-5.175c-0.193-1.358-0.219-2.741-0.286-3.636
		c-0.034-4.697,0.912-8.687,3.013-12.339c2.414-4.195,6.562-4.264,8.961,0.02c1.735,3.097,3.199,6.415,4.276,9.796
		C935.198,1162.079,933.997,1164.919,930.251,1167.589z M941.134,1148.391c-1.307-1.209-2.129-1.767-2.683-2.523
		c-1.143-1.56-1.998-3.346-3.228-4.826c-6.403-7.706-17.342-6.601-22.052,2.232c-3.058,5.736-4.582,11.856-4.073,18.402
		c0.211,2.721,0.433,5.441,0.64,8.03c-2.444,1.036-3.493-0.254-4.2-1.81c-6.291-13.841-6.113-23.411,1.146-36.45
		c2.273-4.084,5.133-7.916,8.173-11.481c5.566-6.525,13.891-6.408,19.33,0.221c1.714,2.089,3.116,4.68,3.858,7.271
		c1.597,5.578,2.73,11.294,3.903,16.985C942.139,1145.367,941.562,1146.451,941.134,1148.391z M947.25,1129.255
		c-0.346-1.301-0.432-2.658-0.73-3.956c-0.052-0.061-0.102-0.123-0.141-0.19c-0.316-0.547-0.461-1.11-0.529-1.686
		c-0.026-0.049-0.044-0.101-0.072-0.15c-0.473-0.844-0.905-1.625-1.247-2.445c-0.07-0.073-0.143-0.14-0.204-0.233
		c-0.597-0.909-1.227-1.796-1.791-2.722c-0.176-0.123-0.335-0.276-0.466-0.458c-0.965-1.337-1.93-2.631-2.578-4.132
		c-0.338-0.274-0.649-0.544-0.936-0.833c-7.312-7.368-16.122-6.447-24.866-4.074c-2.327,0.631-4.472,3.28-5.932,5.507
		c-4.089,6.237-8.505,12.341-10.712,19.63c-0.382,1.262-1.026,2.445-1.854,4.376c-2.412-3.533-2.963-6.827-3.29-10.02
		c-1.479-14.463-0.717-28.633,3.659-42.754c3.591-11.588,15.698-17.985,27.687-15.185c1.674,0.391,3.03,1.053,4.14,2.176
		c0.26,0.103,0.508,0.224,0.733,0.383c10.799,3.658,15.201,19.351,16.483,31.132c0.053,0.122,0.1,0.251,0.132,0.392
		c0.948,4.193,2.386,8.266,3.077,12.515c0.005,0.03-0.002,0.055,0.002,0.085c0.408,0.843,0.722,1.734,0.907,2.641
		c0.086,0.42,0.081,0.917,0.062,1.432c0.629,1.581,0.858,3.361,1.226,4.981c0.093,0.41,0.027,0.766-0.13,1.06
		c0.089,0.575,0.186,1.148,0.336,1.709C950.729,1130.356,947.759,1131.167,947.25,1129.255z"/>
	<path d="M669.276,1135.662c-5.147-2.797-6.526-6.009-7.648-9.401c-3.14-9.49-3.139-19.13-0.565-28.651
		c3.405-12.593,8.045-24.731,15.326-35.69c0.913-1.375,1.837-2.808,3.035-3.912c1.649-1.52,3.607-2.537,6.453-1.053
		c-0.208,1.419-0.152,3.084-0.716,4.504c-1.531,3.853-3.051,7.753-5.065,11.361c-5.301,9.496-8.862,19.577-11.533,30.095
		c-1.956,7.703-2.082,15.291-0.747,23.02C668.277,1128.598,668.623,1131.281,669.276,1135.662z"/>
	<path d="M586.556,1240.972c-0.046-10.306,4.306-18.998,9.706-27.166c3.615-5.467,15.861-8.805,22.01-6.642
		c0.255,0.09,0.578,0.225,0.692,0.435c0.497,0.912,1.193,1.836,1.28,2.803c0.05,0.558-0.813,1.433-1.467,1.761
		c-0.97,0.486-2.11,0.659-3.194,0.886c-4.243,0.889-7.376,3.392-10.519,6.299c-5.172,4.784-7.999,10.582-8.959,17.363
		c-0.737,5.203-1.108,10.458-1.655,15.688c-0.143,1.367-0.17,2.782-0.579,4.07c-0.2,0.63-1.111,1.335-1.781,1.429
		c-0.664,0.093-1.712-0.344-2.092-0.894c-0.768-1.111-1.489-2.406-1.714-3.714C587.578,1249.206,587.114,1245.081,586.556,1240.972z
		"/>
	<path d="M637.506,1093.129c1.588,4.225,2.042,8.098,0.915,12.234c-1.521,5.58-3.112,11.161-4.201,16.832
		c-0.616,3.206-0.266,6.595-0.391,9.9c-0.062,1.639-0.058,3.308-0.398,4.896c-0.141,0.656-1.035,1.452-1.717,1.604
		c-0.647,0.145-1.86-0.261-2.134-0.785c-1.004-1.921-2.178-3.929-2.469-6.019c-1.392-10.017-0.477-19.854,3.144-29.358
		C631.63,1098.825,633.372,1095.456,637.506,1093.129z"/>
	<path d="M256.039,1462.532c5.112,1.655,6.504,5.045,7.13,9.021c0.776,4.925,1.271,9.914,2.371,14.765
		c4.235,18.689,9.903,36.903,18.517,54.109c3.477,6.944,7.065,13.793,11.443,20.245c4.1,6.041,9.132,11.149,14.617,15.836
		c1.848,1.579,4.236,2.527,6.383,3.755c1.985,1.136,2.645,2.635,2.112,4.834c-0.35,1.445-1.896,2.617-3.079,2.017
		c-2.945-1.492-5.947-2.969-8.624-4.875c-5.941-4.229-10.529-9.861-14.673-15.752c-7.976-11.338-15.413-23-20.725-35.92
		c-5.388-13.104-10.164-26.38-13.1-40.268c-0.975-4.611-2.023-9.21-2.849-13.849C254.79,1472.118,254.041,1467.731,256.039,1462.532
		z"/>
	<path d="M232.685,1530.65c1.51,0.399,2.632,0.441,3.451,0.96c2.498,1.584,3.555,4.159,4.184,6.915
		c1.325,5.809,4.601,10.719,7.973,15.356c1.86,2.558,3.047,5.037,3.319,8.163c4.462,1.752,7.666,4.584,9.948,8.61
		c2.541,4.484,6.337,7.593,11.385,9.077c1.017,0.299,2.086,0.837,2.805,1.58c0.448,0.462,0.598,1.674,0.304,2.261
		c-0.282,0.563-1.297,1.004-2.011,1.036c-0.77,0.035-1.577-0.433-2.345-0.739c-9.227-3.675-16.92-9.316-22.523-17.624
		c-3.71-5.501-7.796-10.793-11.002-16.574c-2.517-4.539-4.043-9.648-5.78-14.584C231.993,1533.954,232.533,1532.492,232.685,1530.65
		z"/>
</g>

    <text x="10" y="832" font-size="12" fill="gray" opacity="0.6" font-family="Arial, sans-serif">
      twoja-kolorowanka.pl
    </text>
  
</svg>
