<?xml version="1.0" encoding="utf-8"?>
<!-- Generator: Adobe Illustrator 27.5.0, SVG Export Plug-In . SVG Version: 6.00 Build 0)  -->
<svg xmlns="http://www.w3.org/2000/svg" xmlns:xlink="http://www.w3.org/1999/xlink" viewBox="0 0 1024 1024" width="595" height="842" preserveAspectRatio="xMidYMid meet" data-scaled="true">
<rect id="BG" x="-0.047" y="-0.233" style="fill:#FEFEFE;" width="1024" height="1024"/>
<g id="Design">
	<path style="fill:#010101;" d="M864.151,684.342c-1.08,4.92,2.83,9.62,7.38,11.02c6.2,2.06,14.13,2.04,18.9-3.06
		c3.36-3.34,4.75-9.4,1.23-13.12c-4.52-4.49-11.64-5.44-17.64-4.04C869.461,676.302,865.491,679.782,864.151,684.342z
		 M874.001,678.072c5-1.1,10.94-0.91,15.09,2.44c3.02,2.31,2.13,6.8-0.17,9.3c-3.9,4.43-10.63,4.76-15.93,3.11
		c-3.25-1.04-6.53-3.88-6.22-7.58C867.261,681.642,870.571,679.012,874.001,678.072z"/>
	<path style="fill:#010101;" d="M731.861,787.632c5.83-6.81,9.59-15.17,12.03-23.74c1.6-5.55,3.23-11.4,2.17-17.19
		c-0.33-1.4-1.24-2.05-2.73-1.94c-7.4,5.85-10.46,15.27-13.18,23.93c-1.63,6.65-3.79,13.41-3.14,20.34
		C728.691,788.912,730.771,789.282,731.861,787.632z M743.851,747.412c-0.66,14.62-6.5,28.89-15.17,40.59
		C730.881,773.762,734.081,758.552,743.851,747.412z"/>
	<path style="fill:#010101;" d="M436.141,702.082c-0.08-4.26,1.2-8.57,0.31-12.79c-2.2,9.18-2.31,18.67-3.1,28.03
		c-1.07,20.29-0.55,40.63-0.07,60.93c1.02,25.17,2.53,50.36,6.03,75.32c0.47,0.08,1.4,0.26,1.86,0.35
		c0.63-11.55-1.21-23.01-2.13-34.48C435.851,780.422,435.311,741.212,436.141,702.082z"/>
	<path style="fill:#010101;" d="M444.441,759.322c-0.49,12.01-1.13,24.01-1.75,36.02c0.01,5.11-1.18,10.48,0.78,15.39
		c0.77-1.39,1.21-2.87,1.31-4.43c1.18-14.31,2.17-28.67,1.86-43.04C446.321,761.752,446.771,759.032,444.441,759.322z"/>
	<path style="fill:#010101;" d="M872.511,810.712c4.27-0.06,7.91-3.46,8.96-7.5c-3.32-3.48-9.28-4.36-12.74-0.65
		C865.731,805.472,868.551,810.782,872.511,810.712z M869.781,805.512c0.63-3.78,6.79-4.18,8.65-1.13c-0.26,2.54-2.92,3.4-4.87,4.35
		C871.911,808.102,869.541,807.812,869.781,805.512z"/>
	<path style="fill:#010101;" d="M882.751,831.622c-3.41,1-3.63,5.61-1.29,7.81c3.49,1.27,9.21-0.55,8.75-5.01
		C889.811,831.042,885.331,830.062,882.751,831.622z M888.111,835.312c-0.07,1.3-1.53,1.78-2.56,2.05
		c-1.97,1.25-4.99-2.17-2.39-3.37C884.621,832.772,888.451,832.702,888.111,835.312z"/>
	<path style="fill:#010101;" d="M507.341,618.302c-0.67,17.34-1.39,34.67-1.95,52.02c-0.15,1.74,0.32,3.46,1.25,4.95
		c2.92-7.96,2.07-16.65,2.93-24.96c0.54-15.33,1.23-30.65,1.26-45.99c-0.03-3.36,0.09-6.75-0.57-10.06
		C507.971,602.072,507.881,610.242,507.341,618.302z"/>
	<path style="fill:#010101;" d="M499.041,772.122c-2.8,11.17-3.33,22.77-3.38,34.25c0.03,17.86-0.41,35.8,1.74,53.57
		c0.42,0.03,1.26,0.09,1.68,0.13C499.561,830.762,497.871,801.422,499.041,772.122z"/>
	<path style="fill:#010101;" d="M840.691,786.362c-1.76-4.64-8-3.99-11.65-2.24c-3.61,1.39-5.65,6.41-2.53,9.32
		C831.481,799.072,842.221,793.672,840.691,786.362z M837.751,786.002c2.62,2.83-1.1,6.79-4.15,7.15c-2.41,0.83-4.56-0.7-6.52-1.84
		C826.491,785.872,833.761,783.912,837.751,786.002z"/>
	<path style="fill:#010101;" d="M571.751,766.192c-3.08,11.25,4.26,24.43,15.69,27.25c7.14,1.67,15.26,0.59,20.94-4.33
		c5.22-4.68,8.44-11.7,7.99-18.76c-0.33-7.49-3.46-15.55-10.19-19.48c-4.94-3.43-11.34-3.99-17.09-2.68
		C580.451,750.182,573.801,757.722,571.751,766.192z M604.811,754.132c4.49,2.91,6.88,8.11,7.77,13.24
		c1.78,9.51-4.36,20.01-13.83,22.52c-5.39,1.63-11.31,0.16-15.89-2.93c-4.86-3.17-7.5-8.97-7.82-14.64
		c-0.3-8.73,5.16-17.93,13.81-20.41C594.151,750.072,600.221,750.912,604.811,754.132z"/>
	<path style="fill:#010101;" d="M186.111,363.232c-12.88,3.08-24.91,11.75-30.16,24.14c-2.04,4.73-2.27,10.44,0.52,14.92
		c3.77,6,11.21,8.62,18.04,8.56c14.29,0.25,28.74-10.24,31.26-24.61c0.82-6.91-0.9-14.38-5.24-19.89
		C197.171,361.922,191.001,362.062,186.111,363.232z M202.801,384.312c-2.08,16.25-21.12,27.46-36.4,21.77
		c-4.99-1.67-9.08-6.35-9.03-11.77c0.24-3.95,2.08-7.58,4.21-10.83c5.93-9.1,15.83-15.26,26.4-17.43c3.32-0.62,7.41-0.87,9.78,2.04
		C201.351,372.592,203.141,378.592,202.801,384.312z"/>
	<path style="fill:#010101;" d="M298.331,310.132c3.74-6.3,6.85-13.36,6.94-20.8c0.25-3.89-2.14-7.78-5.92-8.96
		c-4.94-1.52-10.25-0.98-15.26-0.13c-5.49,1.24-10.74,3.41-15.76,5.93c-14.83,7.69-28.13,18.45-38.45,31.62
		c-5.72,7.22-9.95,16.08-9.86,25.45c-0.03,4.27,1.44,9.09,5.33,11.38c4.49,2.87,10.22,2.57,15.18,1.2
		c10.15-2.97,19.31-8.49,27.96-14.46C280.141,332.812,290.731,322.502,298.331,310.132z M272.431,334.232
		c-9.14,7.43-19.27,13.82-30.41,17.75c-4.82,1.52-10.56,2.84-15.1-0.12c-3.96-2.75-4.09-8.15-3.53-12.47
		c1.78-13.28,11.51-23.53,20.84-32.33c11.88-10.62,25.53-20.25,41.35-23.68c3.57-0.71,7.3-1.1,10.91-0.44
		c2.65,0.53,5.55,2.47,5.53,5.46c0.25,6.38-2.37,12.45-5.28,17.99C290.701,317.252,281.931,326.342,272.431,334.232z"/>
	<path style="fill:#010101;" d="M786.191,659.562c4.67,2.91,10.9,3.87,15.95,1.35c3.87-1.98,6.38-7.27,3.97-11.26
		c-3.01-5.81-10.73-6.6-16.44-5.14c-3.64,0.79-6.88,3.57-7.55,7.32C781.481,654.982,783.551,658.022,786.191,659.562z
		 M790.981,646.962c4.48-0.81,10.36-0.35,12.82,4.11c1.76,3.06-0.67,6.71-3.64,7.84c-4.97,1.95-11.23,0.19-14.75-3.73
		C782.911,651.262,787.111,647.242,790.981,646.962z"/>
	<path style="fill:#010101;" d="M614.061,218.042c-8.18-3.26-17.22-5.96-26.06-4.1c-7.77,1.53-13.36,9.69-11.6,17.48
		c1.37,8.36,8.96,13.57,16.02,17.08c11.5,5.6,24.27,8.66,37.06,8.98c5.13-0.19,11.49-0.71,14.38-5.67c2.33-3.99,0.16-8.49-2.1-11.94
		C635.041,229.962,624.971,222.732,614.061,218.042z M637.461,252.902c-4.44,1.65-9.3,1.17-13.93,0.97
		c-9.81-0.96-19.5-3.59-28.44-7.73c-6.05-3.19-12.96-6.86-15.22-13.81c-2.06-5.4,0.64-12.15,6.1-14.28
		c7.32-2.86,15.45-0.92,22.63,1.45c11.6,4,22.15,11.26,29.64,21.03c1.51,2.05,2.97,4.25,3.52,6.78
		C642.161,249.992,639.741,252.062,637.461,252.902z"/>
	<path style="fill:#010101;" d="M619.871,283.962c-17.3-9.99-38.05-14.32-57.83-10.83c-16.41,3.14-32,10.23-45.49,20.05
		c-8.36,6.47-16.84,14.39-19.18,25.14c-2.08,8.66,2.05,17.91,9.01,23.16c9.78,7.54,22.28,9.98,34.18,11.96
		c24.06,3.54,49.61,2.39,71.93-8.05c8.8-3.82,16.84-9.84,22.08-17.96c5.78-8.73,5.92-20.8,0.43-29.7
		C631.291,291.902,625.761,287.452,619.871,283.962z M630.741,327.502c-5.55,7.4-13.68,12.36-22.01,16.06
		c-24,9.99-51.06,10.25-76.23,5.07c-10.47-2.49-22.01-5.61-28.77-14.67c-4.27-5.36-4.66-12.94-1.88-19.07
		c4.2-9.28,12.28-16.05,20.49-21.72c12.63-8.31,26.82-14.54,41.8-16.96c18.25-2.7,37.16,1.18,53.23,10.09
		c6.45,3.68,12.69,8.46,15.96,15.31C637.511,309.822,636.241,320.222,630.741,327.502z"/>
	<path style="fill:#010101;" d="M337.291,348.552c-8.16-3.82-17.63-2.93-26.24-1.4c-7.12,1.32-14.1,3.71-20.35,7.4
		c-7.97,4.64-13.41,12.67-16.64,21.16c-1.41,4.28-3.04,9.3-0.56,13.51c2.86,4.18,8.34,5.19,13.06,5.26
		c12.62-0.43,23.87-7.12,33.92-14.2c7.89-6.1,15.65-13.19,19.68-22.52C341.841,354.502,340.811,350.052,337.291,348.552z
		 M335.511,360.162c-6.39,9.89-15.79,17.48-25.87,23.38c-8.43,4.9-18.18,8.87-28.11,7.23c-3.21-0.47-6.25-3-6.17-6.46
		c0.5-5.78,2.99-11.16,6.01-16.02c2.5-3.78,5.3-7.52,9.2-9.95c8.89-5.65,19.42-8.39,29.87-9.01c5.79-0.23,12.81-0.51,17.19,3.96
		C338.231,355.752,336.581,358.062,335.511,360.162z"/>
	<path style="fill:#010101;" d="M729.421,338.492c-10.41-4.56-22.25-5.25-33.37-3.36c-9.28,1.58-18.99,5.2-24.88,12.93
		c-4.34,5.54-5.15,13.8-1.11,19.72c4.09,5.82,11.11,8.42,17.55,10.72c9.63,2.99,19.47,5.38,29.41,7.09
		c6.25,0.77,13.58,1.29,18.71-3.05c7.11-7.56,11.3-18.65,8.63-28.96C742.331,346.362,736.011,341.412,729.421,338.492z
		 M735.071,378.852c-3.87,5.17-11.01,4.47-16.67,3.87c-9.1-1.38-18-3.88-26.85-6.35c-6.14-1.99-12.6-4.05-17.35-8.63
		c-4.93-4.67-4.68-13.05-0.36-18.04c5.79-7.33,15.34-10.11,24.19-11.57c11.33-1.49,23.42-0.58,33.55,5.11
		c5.26,2.92,9.91,7.97,10.43,14.2C742.991,365.192,739.461,372.702,735.071,378.852z"/>
	<path style="fill:#010101;" d="M156.631,659.282c5.72,2.85,12.68,0.46,16.92-3.92c4.42-4.6,7.78-10.57,8.2-17.04
		c0.12-3.72-0.9-7.94-4.1-10.18c-2.48-1.88-5.82-1.93-8.72-1.17c-9.12,2.71-16.43,10.89-18.01,20.29
		C150.101,651.892,152.041,657.392,156.631,659.282z M153.911,648.422c1.04-8.33,7.34-15.54,15.15-18.36
		c2.66-0.98,6.22-0.97,7.94,1.66c3.32,4.57,1.25,10.58-1.12,15.1c-2.83,5.37-7.83,10.83-14.45,10.41
		C156.861,657.452,153.111,652.852,153.911,648.422z"/>
	<path style="fill:#010101;" d="M141.601,725.162c4.92-0.63,8.63-4.47,11.4-8.29c3.31-4.85,5.75-10.57,5.72-16.52
		c-0.59-5.85-4.11-11.12-8.68-14.67c-2.84-2.19-6.77-3.74-10.19-1.87c-4.9,2.29-7.44,7.62-8.65,12.63
		c-1.53,7.15-1.9,14.87,0.65,21.84C133.231,722.302,137.131,725.762,141.601,725.162z M133.651,700.482
		c0.67-5.15,2.41-10.98,7.27-13.66c2.54-1.12,5.58-0.29,7.58,1.53c3.55,3.05,6.54,7.19,7.15,11.93c-0.18,7.47-4,14.68-9.63,19.5
		c-2.64,2.42-7.56,3.46-9.79-0.04C132.671,714.052,132.851,706.902,133.651,700.482z"/>
	<path style="fill:#010101;" d="M828.301,672.562c3.26,4.12,9.26,2.25,12.52-0.89c4.51-4.45,8.29-10.79,7.04-17.35
		c-1.54-4.83-7.82-6.45-12.22-4.83C826.921,652.682,822.861,664.952,828.301,672.562z M836.931,651.852
		c2.61-0.73,5.71-0.35,7.67,1.69c2.18,3.6,0.29,7.9-1.62,11.18c-2.21,3.38-5.19,7.24-9.55,7.52c-1.96,0.32-3.43-1.25-4.08-2.89
		C826.911,662.792,830.051,654.182,836.931,651.852z"/>
	<path style="fill:#010101;" d="M924.831,398.232c-7.87-10.95-16.89-21.05-26.56-30.45c-25.44-24.92-55-45-84.07-65.35
		c-16.34-11.05-32.58-22.44-46.84-36.14c-12.88-12.16-24.13-25.86-35.41-39.48c-23.36-27.77-46.26-56.45-74.86-79.12
		c-28.99-23.16-62.82-40.3-98.73-49.72c-25.3-6.62-51.88-9.33-77.86-5.58c-22.52,2.82-43.78,11.86-63.01,23.63
		c-19.55,11.96-38.18,25.53-54.99,41.13c-27.12,24.38-51.26,51.78-75.8,78.68c-20.21,21.69-40.81,43.06-62.71,63.06
		c-24.01,22.38-49.45,43.16-73.53,65.47c-22.68,21.19-43.81,44.48-59.49,71.42c-6.03,11.1-11.38,22.84-13.21,35.45
		c-2.46,14.83-0.79,31.13,8.32,43.55c8.21,12.22,21.86,19.18,35.35,24.01c24.46,8.35,50.37,11.02,76.01,12.83
		c58.76,3.42,117.56-1.11,176.32-1.83c-0.05,1.31-0.08,2.63-0.09,3.96c0.57,0.31,1.7,0.93,2.27,1.24
		c-7.66,22.53-17.35,44.33-25.03,66.86c-7.3,19.93-12.96,40.41-20.14,60.38c-13.83-11.81-27.45-23.98-39.36-37.77
		c-4.75-5.25-9.37-10.63-14.51-15.5c-8.04-7.56-16.92-14.19-26.33-19.94c-12.44-7.4-25.43-14.81-39.92-17.11
		c-18.6-1.92-38.1,2.3-53.58,13.01c-14.37,9.92-24.48,25.05-30.15,41.41c-6.43,17.55-8.78,36.33-9.04,54.94
		c-0.71,28.37,1.51,56.7,3.26,85c1.16,14.15,2.4,29.08,10.04,41.46c5.06,7.82,12.88,14.22,22.3,15.61
		c13.78,1.82,27.77-0.84,40.84-5.22c8.24-2.38,16.28-5.46,23.86-9.48c3.58,8.79,3.35,18.45,4.43,27.73
		c0.85,10.44,3.58,20.64,7.21,30.45c4.3,11.07,11.9,21.33,22.73,26.71c-11.02,0.44-22.2,1.45-33.12-0.47
		c-16-3.07-32.05-12.77-37.78-28.71c12.32,7.59,24.48,15.51,37.11,22.54c-4.32-13.22-10.72-26.35-9.95-40.62
		c0.28-1.48,0.29-4.37,2.48-3.79c2.44,4.76,3.75,9.99,5.52,15.02c2.98,9.26,6.91,18.22,11.91,26.58c0.49,1.07,1.37,1.83,2.39,2.41
		c-2.98-10.93-7.35-21.42-10.79-32.2c-2.02-5.75-3.49-11.96-7.66-16.61c-4.31-1.52-7.19,2.82-7.65,6.55
		c-1.51,11.8,2.02,23.57,6.45,34.39c-3.99-2.83-7.97-5.69-12.19-8.17c-6.47-3.91-12.48-8.53-18.85-12.57
		c-2.22-1.16-3.83,1.47-3.29,3.45c1.07,11.97,9.68,21.69,19.39,27.97c13.01,8.29,28.83,10.31,43.96,9.54
		c10.34,0.3,20.73-3.17,30.96-0.62c12.07,1.47,24.25-0.31,36.12-2.51c4.97-1.18,9.38,2.07,14.07,3.09
		c12.28,3.03,24.86,4.6,37.38,6.31c23.04,3.14,46.33,2.8,69.52,3.13c12.38-0.29,24.67,1.4,37.01,2.17c33,1.72,66.01-0.67,99-1.54
		c13.81-0.56,27.72,0.15,41.37-2.41c3.84-0.94,7.78-0.54,11.65-0.04c23.54,1.39,47.13,0.99,70.69,1.78
		c6.03,6.37,16.09,5.88,23.78,3.38c-0.58-0.51-1.74-1.51-2.32-2.01c-1.32-1.39-2.41-2.94-3.52-4.46c0.3,1.54,0.59,3.08,0.9,4.65
		c-4.85,0.58-7.61-3.67-10.67-6.57c1.03,2.14,2.12,4.24,3.17,6.39c-2.89-0.94-6.02-1.91-7.89-4.49c-5.02-6.16-7.33-14.09-8.48-21.84
		c-1.5-16.77,0.48-33.72,4.97-49.91c18.86,7.98,41.04,6.42,59.58-1.73c4.48,5.15,11.01,7.79,16.16,12.15
		c8.19,5.8,14.57,14.47,16.25,24.49c2.27,10.91-1.13,22.87-8.99,30.81c-5.13,5.44-12.36,8.44-19.68,9.43
		c-4.03,0.51-8.55,1.04-12.2-1.13c-0.27-1.85-0.33-3.72-0.51-5.55c-0.76,1.89-1.34,3.83-1.91,5.8c-1.1-0.53-2.19-1.07-3.27-1.58
		c1.29-2.78,2.5-5.59,3.58-8.44c7.68,1.99,15.95,1.7,23.48-0.84c-7.63-0.02-15.24-0.24-22.79-1.37c2.51-8.2,4.37-16.58,5.49-25.08
		c3.27-2.89,7.41-4.82,10.13-8.32c-3.45,0.28-6.53,1.87-9.45,3.61c0.86-6.52,1.08-13.19-0.25-19.66c-3.47,18.13-4.37,37-11.4,54.28
		c-2.04,4.93-5.87,9.77-11.64,10.05c0.62-2.7,1.44-5.33,2.08-8.02c-1.59,2.38-3.14,4.79-5.02,6.96c-0.68-0.44-2.06-1.33-2.74-1.77
		c0.64-2.09,1.3-4.16,1.88-6.25c-1.27,1.44-2.46,2.95-3.71,4.41c-0.05-3.86,2.63-6.8,4.39-9.97c3.65-6.05,6.7-12.47,8.75-19.23
		c2.18-7.6,4.89-15.45,4.13-23.45c-2.38,8.55-4.97,17.05-8.22,25.32c-3.2,7.73-6.59,15.66-12.35,21.89
		c-9.38-14.68-8.27-32.71-10.76-49.27c-1.35,5.72-1.16,11.63-0.97,17.46c0.56,9.18,1.32,18.59,4.99,27.15
		c1.93,4.47,5.2,8.17,7.36,12.52c0.89,1.69,2.06,3.47,3.98,4.12c5.56,2.15,12.67,1.02,16.49-3.83c6.4,2.75,13.39,5.19,20.45,3.87
		c10.58-1.07,20.63-6.55,26.7-15.37c12.17,3.85,25.49-0.32,35.69-7.34c2.42-1.33,4.61-4.09,7.65-3.32
		c5.95,0.91,11.64,2.94,17.48,4.34c11.78,2.86,24.11,2.7,36.05,1.08c1.5-0.02,3.4-1.37,1.87-2.85c-3.92-3.31-9.26-4.31-14.2-4.97
		c4.14-4.57,8.32-9.47,10.21-15.44c0.84-2.25-0.47-5.83-3.4-4.68c-8.18,2.76-14.94,8.49-21.78,13.58c2.13-7.45,3.79-15.11,3.5-22.89
		c-0.22-4.26-0.05-9.22-3.19-12.52c-1.58-1.75-4.27-1.06-5.81,0.34c-3.76,3.01-6.33,7.19-8.7,11.32c1.88-8.13,3.35-16.34,4.88-24.54
		c9.01,3.27,18.66,4.3,28.1,5.69c7.91,0.32,16.29-0.2,23.47-3.85c5.84-3.07,8.18-10.11,7.58-16.36
		c-1.23-12.64-3.47-25.16-6.41-37.51c-2.78-10.38-6.62-21.08-14.49-28.74c-9.3-8.68-22.76-12.58-35.29-10.5
		c-10.8,1.82-20.96,6.95-29.27,14.02c0.14-6.46,0.58-12.9,0.59-19.36c0.49-9.46-0.32-19.12,1.95-28.38
		c5.51,1.3,11.24,0.95,16.85,1.54c13.02,0.33,26.22,0.64,39.01-2.22c9.5-1.95,19.2-5.71,25.62-13.29
		c5.71-5.96,8.41-14.48,7.45-22.64c-1.31-12.51-7.3-23.77-12.05-35.2c-6.65-15.04-12.17-30.53-17.96-45.9
		c-5.82-14.47-10.74-29.83-21-41.89c-8.99-10.82-22.49-16.78-35.98-19.68c-15.35-3.32-31.41-0.15-45.55,6.19
		c-12.05,5.49-21.3,15.42-28.97,25.96c-5.14,6.9-9.13,14.69-15.25,20.84c-7.44,7.25-15.91,13.33-24.62,18.94
		c-2.99-11.3-7.67-22.05-11.93-32.92c-6.99-16.33-13.94-32.69-20.67-49.13c50.3,0.52,100.81,1.61,150.86-4.23
		c32.57-4.12,64.74-12.91,94-27.97c10.24-5.55,20.1-12.58,26.54-22.48c6.52-10.48,7.31-23.5,5.17-35.39
		C943.121,427.512,934.531,412.222,924.831,398.232z M900.641,377.272c11.05,11.98,21.7,24.58,29.47,38.98
		c-15.18-2.82-30.92-4.21-45.15-10.61c-6.29-3.15-13.23-7.77-14.46-15.24c-1.37-6.22,3.04-12.55,8.91-14.43
		c5.15-1.71,10.65-2.29,16.07-2.19C897.841,373.562,899.101,375.902,900.641,377.272z M488.791,96.292
		c18.57-1.86,37.33,0.02,55.57,3.7c13.13,2.79,26.13,6.33,38.63,11.28c-10.95,26.26-43.66,40.31-70.36,30.86
		c-8.32-2.6-16.02-7.97-20.29-15.7C487.331,117.302,487.301,106.332,488.791,96.292z M336.001,190.122
		c2.32,7.21,1.82,14.99,0.21,22.29c-2.07,8.87-7.93,17.48-16.78,20.61c-4.27,1.36-9.49,1.4-13.21-1.4c-1.99-1.4-2.16-3.98-2.72-6.14
		C314.051,213.442,325.101,201.842,336.001,190.122z M128.231,394.092c2.04-2.47,4.28-4.76,6.58-6.98c5.22,2.71,4.73,9.58,3.3,14.4
		c-3.19,10.92-9.58,20.83-17.72,28.73c-7.41,6.98-17.21,10.83-27.21,12.07C102.661,424.772,115.191,409.102,128.231,394.092z
		 M108.051,524.832c-4.41-4.84-4.3-12.36-1.89-18.1c4.42-9.22,12.45-15.96,20.44-22.02c9.19,5.07,19.42,7.79,29.39,10.87
		c42.1,11.43,86.09,13.19,129.48,12.52c33.1-0.37,66.17-2.58,99.06-6.23c-0.47,2.53-0.93,5.06-1.49,7.58
		c-9.55,0.65-18.98,2.48-28.49,3.53c-28.28,3.47-56.61,6.96-85.11,7.8c-41.96,0.97-84.47,0.92-125.6-8.48
		c-7.5-1.92-15.06-3.7-22.21-6.72c2.39,1.6,4.97,2.92,7.66,3.95c18.86,7.56,39.1,10.82,59.22,12.84
		c27.25,2.52,54.68,2.81,82.01,1.68c19.35-0.59,38.62-2.68,57.9-4.26c4.94-0.76,10.01-0.66,14.83-2.1c-0.23,0.17-0.7,0.51-0.93,0.68
		c-18.89,3.91-37.72,8.29-56.87,10.82c-18.26,2.73-36.66,4.23-55.06,5.59c-34.29,1.71-68.82,3.48-103.01-0.63
		C120.071,533.552,112.951,530.332,108.051,524.832z M836.411,450.542c-61.16,11.61-122.84,20.66-184.85,26.28
		c-3.65,0.86-3.7-4.21-5.72-6.16c16.31-1.63,32.52-4.38,48.55-7.82c23.58-4.72,47.05-10.02,70.23-16.45
		c22.6-6.11,45.22-12.41,67.05-20.94c3.24-1,6.27-3.87,9.84-2.65c16.91,4.18,33.81,8.81,49.92,15.49
		C873.331,443.372,854.871,447.052,836.411,450.542z M893.521,438.982c5.02,1.88,9.76,4.44,14.57,6.82
		c8.57,4.72,17.62,10.02,22.4,18.95c-9.89,4.08-20.67,5.32-31.09,7.48c-36.88,7.27-74.43,10.1-111.87,12.6
		c-44.47,2.61-89.02,5.13-133.59,3.78c-1.57-2.89-2.51-6.04-3.28-9.21c25.36-1.88,50.65-4.61,75.85-8.07
		c41.44-5.33,82.64-12.48,123.49-21.23C864.651,446.972,879.131,443.102,893.521,438.982z M833.621,423.742
		c-20.74,7.04-41.89,12.76-63.07,18.32c-41.85,11.23-84.33,20.06-127.08,27.04c-5.23-2.08-10.4-4.36-15.89-5.71
		c20.97-7.14,40.64-17.52,60.06-28.07c17.75-9.99,35.2-20.59,51.78-32.44c33.18,4.08,65.9,11.26,98.46,18.77
		C836.521,422.492,835.121,423.222,833.621,423.742z M725.561,410.752c-31.82,18.31-63.69,37-98.14,49.98
		c-1.9,0.57-3.85,1.68-5.86,0.97c-4.01-0.91-8.02-1.88-12.12-2.27c9.72-6.47,19.31-13.22,27.68-21.42
		c13.19-12.55,25.96-26.07,34.42-42.36c22.49,1.53,44.91,4.14,67.28,6.91C734.791,405.872,729.961,407.992,725.561,410.752z
		 M605.391,458.572c-13.57-1.52-27.26-2.28-40.91-2.35c13.42-14.48,23.88-31.4,33.22-48.72c2.5-4.77,4.97-9.57,6.93-14.59
		c21.59,0.09,43.19,1.21,64.73,2.73C652.471,420.542,630.841,442.432,605.391,458.572z M560.491,456.232
		c-4.81-0.04-9.61-0.05-14.41,0.01c8.71-19.98,11.22-42.04,12.28-63.61c14.63,0.01,29.26-0.08,43.88,0.19
		C590.211,415.092,577.831,437.582,560.491,456.232z M542.821,456.582c-4.43,0.06-8.85,0.25-13.28,0.31
		c2.94-21.14,1.78-42.67-1.67-63.67c9.66-0.21,19.32-0.38,28.98-0.54C553.931,414.252,551.761,436.492,542.821,456.582z
		 M526.751,457.032c-8.15,0.66-16.32,0.89-24.43,1.89c-11.88-16.96-21.9-35.09-32.65-52.76c-1.69-3.04-3.84-5.8-5.31-8.96
		c20.58-1.82,41.22-3.01,61.87-3.78C527.751,414.582,529.061,435.872,526.751,457.032z M498.891,459.332
		c-7.59,0.37-15.09,1.53-22.61,2.48c-13.65-8.86-24.74-21.45-32.29-35.83c-4.49-8.31-8.06-17.07-11.65-25.79
		c10.02-1.03,20.03-2.36,30.1-2.74C473.691,418.582,485.131,439.702,498.891,459.332z M471.781,462.592
		c-7.14,1.03-14.16,2.9-21.33,3.65c-14.21-4.79-27.06-12.86-38.95-21.88c-13.93-10.87-26.17-23.67-38.18-36.57
		c18.95-2.9,37.96-5.69,57.06-7.36C437.561,424.532,450.461,448.272,471.781,462.592z M414.321,450.412
		c9.55,7.21,20.05,13.14,31.29,17.28c-5.71,0.76-11.27,4.25-17.1,2.55c-21.82-2.97-43.66-7.82-63.63-17.35
		c-16.86-7.55-32.22-17.91-47.38-28.35c-2.85-1.97-5.72-3.92-8.35-6.19c20.68-4.07,41.47-7.64,62.35-10.45
		C384.071,423.642,397.961,438.552,414.321,450.412z M340.931,443.122c25.74,17.01,55.84,27.27,86.56,29.79
		c-4.3,0.97-8.35,3.98-12.91,2.89c-24.66-2.19-49.42-4.55-73.57-10.21c-20.27-4.48-40.05-10.91-59.42-18.29
		c-11.24-4.68-22.71-9.06-33.29-15.09c19.76-5.6,39.88-10.07,60.07-13.75C318.911,427.072,329.441,435.772,340.931,443.122z
		 M301.341,457.492c22.9,8.06,46.61,13.78,70.67,17.03c13.38,1.68,26.8,3.59,40.32,3.63c-6.35,2.88-12.29,6.71-18.8,9.19
		c-21,1.13-42.06,0.56-63.07-0.27c-45.47-1.61-90.84-5.51-135.99-11.14c-14.31-1.65-28.62-3.49-42.82-5.98
		c2.04-2.3,5.15-3.12,7.76-4.59c22.79-11.46,46.77-20.4,71.09-28.01c5.71-1.56,11.3-3.65,17.1-4.81
		C264.391,443.062,282.661,451.012,301.341,457.492z M210.421,480.642c46.43,6.01,93.21,9.36,140.03,10.34
		c13.36,0.26,26.73,0.19,40.08-0.27c-2.93,2.84-6.6,4.53-10.01,6.65c0.39,0.5,1.15,1.48,1.53,1.98
		c-52.02,4.6-104.37,7.56-156.56,4.22c-33.36-2.62-66.84-7.69-98.45-18.99c7.05-5.4,14.7-10.02,22.58-14.08
		C169.631,475.252,190.071,477.812,210.421,480.642z M166.371,542.712c-9-1.29-17.99-2.72-26.86-4.73
		c21.63,1.78,43.36,2.06,65.04,1.16c47.77-1.19,95.55-6.88,141.89-18.73c11.97-3.17,24.02-6.37,36.34-7.8
		c-0.33,2.39-0.62,4.8-0.88,7.22c-22.26,7.02-45,12.4-67.56,18.33c-13.79,3.51-27.57,7.51-41.8,8.78
		C237.121,548.032,201.581,546.912,166.371,542.712z M295.411,545.962c6.2-1.29,12.4-2.58,18.48-4.4
		c22.55-5.71,45.23-11.1,67.37-18.26c-0.36,2.83-0.85,5.65-1.35,8.47c-5.17,2.42-10.75,3.66-16.22,5.19
		c-9.65,2.67-19.27,5.6-29.06,7.65C321.551,545.062,308.491,545.752,295.411,545.962z M348.941,544.302
		c10.1-3.2,20.57-5.31,30.52-9.07c-0.43,2.85-0.94,5.7-1.59,8.53C368.231,543.872,358.571,544.722,348.941,544.302z
		 M133.261,819.622c-5.21-13.09-6.04-27.35-6.47-41.26c-1.13-16.96-1.94-33.94-2.62-50.92c-0.4-23.17-0.62-46.81,5.79-69.29
		c4.97-17.28,13.32-34.44,27.93-45.55c11.91-9.77,27.44-13.97,42.59-14.74c14.79-0.52,28.27,6.6,40.87,13.49
		c16.4,8.86,30.78,21.07,42.99,35.09c13.24,15.42,28.13,29.38,44,42.06c-3.74,13.72-8.8,27.06-12.17,40.9
		c-2.6,10.19-4.85,20.47-7.18,30.72c-15.03,6.35-31.36,8.68-47.3,11.74c-24.36,4.14-48.34,10.26-72.05,17.14
		c-15.24,4.69-31.01,10.41-42.32,22.15c-5.18,5.22-8.07,12.66-7.15,20.03C137.721,827.422,134.901,823.842,133.261,819.622z
		 M290.611,798.142c-4.87,1.52-10.41,0-15,2.37c1.11,2.25,5.71,0.73,8.13,1.32c-1.76,0.71-3.62,1.1-5.48,1.44
		c-0.35,0.57-0.68,1.15-1.01,1.75c-1.55-1.92-2.58-4.07-2.94-6.5c10.02-2.34,20.12-4.37,30.29-5.95
		C300.521,795.572,295.391,796.692,290.611,798.142z M304.101,797.362c-1.92,14.94-2.07,30.02-2.46,45.06
		c-4.48-5.99-8.45-12.33-12.78-18.42c-3.72-5.36-7.98-10.41-10.81-16.34C286.721,804.172,295.631,801.312,304.101,797.362z
		 M233.541,784.872c3.78-1.16,7.67-1.95,11.56-2.66c0.7,4.02,1.96,7.92,3.49,11.71c-3.01,0.49-6.01,1-9,1.62
		C237.771,791.872,235.561,788.422,233.541,784.872z M237.221,795.922c-1.62,1.22-3.66,1.75-5.61,2.15
		c-2.81-1.25-4.86-3.72-7.04-5.79c-1.13-1.37-2.84-2.53-3.12-4.38c3.35-1.05,6.77-1.81,10.19-2.61
		C233.011,789.072,235.141,792.492,237.221,795.922z M246.801,781.692c4.04-0.92,8.07-1.85,12.19-2.36
		c0.58,4.55,0.96,9.14,1.83,13.67c-3.26,0.09-6.51,0.31-9.75,0.66C249.161,789.852,248.131,785.712,246.801,781.692z
		 M260.791,778.792c5.14-1.02,10.28-1.98,15.42-3c-3.4,5.93-8.35,11.31-9.6,18.22c-1.26-0.16-2.45-0.47-3.56-0.95
		C261.901,788.372,261.641,783.532,260.791,778.792z M270.531,789.012c2.52-4.44,5.17-8.82,7.36-13.44
		c4.17-1.12,8.33-2.27,12.54-3.24c-2.92,4.62-6.25,9.04-10.36,12.66c-2.38,2.24-5.85,2.34-8.69,3.68c-0.05,0.47-0.16,1.41-0.21,1.88
		c2.71-0.52,5.37-1.29,8.14-1.44c-2.44,1.75-5.12,3.18-7.93,4.26C269.351,793.082,270.311,790.332,270.531,789.012z
		 M283.451,793.902c6.4-5.24,14.68-6.99,22.02-10.47c-0.27,2.26-0.34,4.56-0.85,6.79
		C297.591,791.642,290.381,792.032,283.451,793.902z M299.411,782.172c2.38-1.59,4.74-3.2,7.07-4.86
		C306.071,780.962,302.211,781.222,299.411,782.172z M282.541,785.972c3.75-4.48,7.48-9.02,10.27-14.19
		c5.11-1.55,10.25-3.05,15.25-4.94c-0.49,2.47-1,4.94-1.45,7.42C299.491,779.762,291.171,783.562,282.541,785.972z M173.531,801.242
		c12.4,7.51,27.5,6.17,41.4,6.54c-0.9,1.13-2.1,1.87-3.57,2c-6.85,1.56-13.85,2.21-20.82,2.96c-13.1,0.94-26.19,2.2-39.33,2.5
		C157.461,808.912,165.491,804.812,173.531,801.242z M149.521,817.082c15.34-0.29,30.8-0.08,46.03-2.28
		c-16.45,5.72-32.94,11.35-49.67,16.22C145.001,826.092,146.151,820.862,149.521,817.082z M154.101,837.512
		c-2.76-0.71-5.93-1.35-7.45-4.03c9.7-2.47,19.24-5.48,28.76-8.57c12.51-4.16,25.39-7.02,38.14-10.35c0.15,1.05,0.46,3.16,0.62,4.21
		c-9.13,4.61-18.56,8.6-27.66,13.25C176.641,837.142,165.121,839.592,154.101,837.512z M212.951,827.152c0.7-0.94,2.1-2.81,2.8-3.75
		c-2.83,1.1-5.01,3.37-7.88,4.41c-7.58,3.04-15.52,5.02-23.4,7.13c10-5.36,20.65-9.37,30.82-14.36c0.36,1.62,0.73,3.24,1.14,4.86
		C215.271,826.012,214.111,826.582,212.951,827.152z M215.411,805.872c-13.36-0.7-27.08-0.28-39.86-4.87
		c7.97-3.21,16.35-5.34,24.67-7.44c5.21,3.96,11.2,6.71,16.71,10.2C217.911,805.092,216.461,805.522,215.411,805.872z
		 M202.561,793.042c5.5-1.39,10.94-3.01,16.42-4.48c2.82,3.91,6.16,7.38,9.76,10.58c-2.87,1.38-5.6,3.02-8.29,4.72
		C214.721,799.882,208.531,796.622,202.561,793.042z M252.631,906.052c-9.96-5.51-15.11-16.46-18.49-26.83
		c-3.02-10.07-4.94-20.48-5.63-30.97c-0.61-7.77-1.48-15.6-3.97-23.02c-1-3.39-2.83-6.66-2.38-10.29c-2.96,0.65-2.39-2.42-2.67-4.33
		c11.95-8.13,26.49-12.87,40.99-12.3c2.52,0.56,6.29-0.46,7.55,2.49c5,10.05,11.51,19.23,17.86,28.45
		c4.74,6.79,9.48,13.63,15.15,19.69c0.89,0.85,0.5,2.19,0.67,3.29c0.16,9.1,0.68,18.18,1.19,27.27
		c-12.09-9.63-24.05-20.19-31.64-33.87c-0.79-1.12-1.34-2.63-2.75-3.08c-2.46,1.32-2.87,4.42-3.41,6.89
		c-1.29,10.32,1.86,20.63,6.38,29.81c5.95,12.09,15.12,22.1,23.82,32.24C280.991,913.262,265.611,913.102,252.631,906.052z
		 M297.361,911.062c-5.01-7.7-11.34-14.44-16.57-21.98c-6.4-9.13-11.63-19.47-12.86-30.68c-0.31-4.04-0.7-8.26,0.81-12.12
		c4.81,9.59,12.13,17.62,19.92,24.89c4.5,3.98,9.06,8.03,14.44,10.81c0.53,9.46,1.76,19.02,5.34,27.87
		C304.731,910.122,301.061,910.752,297.361,911.062z M329.511,916.452c-4.5-1.02-9.72-1.66-12.97-5.27
		c-4.97-7.33-5.46-16.43-7.68-24.76c3.09,7.62,10.07,13.42,18.01,15.35c-0.05-4.74-2.15-9.07-3.52-13.51
		c-4.62-12.69-7.2-26.35-5.83-39.86c1.48,0.9,2.26,2.44,2.91,3.98c3.62,8.46,7.57,16.82,12.75,24.44c0.91,1.37,2.24,2.34,3.52,3.35
		c5.29-12.73,10.35-25.62,14.27-38.85c-0.83-1.76-2.23,0.09-2.23,1.29c-3.24,9.66-7.37,18.99-10.58,28.65
		c-1.18-14.58-2.04-29.26-1-43.88c0.75-6.2,1.49-12.55,4.08-18.28c0.71-1.84,2.34-2.99,4-3.88c3.08,8.72,3.81,18.04,5.4,27.11
		c0.89,2.66-1.29,5.88,0.98,8.1c1.68,12.97,2.89,26,5.22,38.88c1.11,5.33,1.98,10.99,5.18,15.56c1.85,0.94,2.55-1.49,3.56-2.54
		c4.73-7.59,10.92-14.19,17.94-19.71c-0.85,8.22-2.81,16.36-2.61,24.66c0.07,2.05,0.84,5.38,3.59,4.95c1.15-0.77,2.05-1.85,2.92-2.9
		c5.84-7.85,12.5-15.52,21.19-20.27c-2.64,7.41-5.78,14.65-8.36,22.09c-1.04,3.13-2.09,6.48-1.37,9.82
		c0.37,0.13,1.11,0.41,1.48,0.54c3.67-1.94,6.84-4.89,11.06-5.64c-1.27,6.02-1.35,12.89,3,17.77
		C385.941,924.802,357.511,921.342,329.511,916.452z M451.291,824.382c0.81,30.49,1.99,60.99,4.84,91.37
		c-21.52-46.74-30.42-98.37-32.33-149.51c-1.92-43.88,2.13-88.91,18.94-129.87c2.92-6.97,5.76-14.07,9.95-20.4
		c-1.6,16.77-2.73,33.57-3.47,50.39C447.461,719.052,451.031,771.702,451.291,824.382z M492.901,926.852
		c-2.05-42.86-5.79-85.62-7.93-128.48c-2.58-50.62-3.88-101.34-2.18-152.02c0.53-19.77,1.77-39.51,2.56-59.28
		c-0.19-0.5-0.57-1.51-0.76-2.01c-0.34,0.14-1,0.42-1.33,0.57c-4.62,47.75-4.71,95.79-4.15,143.72
		c0.92,45.74,3.36,91.43,6.93,137.04c1.51,20.13,3.2,40.25,4.37,60.41c-5.39-0.03-10.77-0.17-16.15-0.39
		c-4.29-14.98-5.71-30.57-7.11-46.03c-1.57-22.99-2.16-46.03-1.78-69.07c0.59-11.63,0.61-23.29,0.91-34.93
		c0.6-15.35,0.77-30.73,0.34-46.09c-0.78-7.49-0.32-15.31-2.92-22.47c0.35,23.5-0.26,47.01-0.65,70.52
		c-1.43,39.34-1.82,78.89,2.79,118.05c1.34,10.06,3.07,20.15,6.34,29.79c-3.84-0.43-7.87-0.59-11.38-2.36
		c-1.28-1.07-1.36-2.94-1.56-4.46c-2.32-31.64-4.1-63.33-4.53-95.06c-0.76-18.32-0.52-36.67-1.36-55c-0.31-36.66-2.48-73.35-0.6-110
		c0.15-15.15,1.24-30.31,1.05-45.43c7.71-13.25,18.4-24.71,30.35-34.24c-0.11,0.88-0.35,2.64-0.47,3.52l0.72,0.44l0.77-0.06
		c1.22-1.32,0.19-3.49,0.49-5.12c11.3-6.98,24.2-11.85,37.61-11.98c-2.67,23.52-3.09,47.23-3.46,70.88
		c-0.94,51.65,0.12,103.3,0.43,154.95c0.95,44.56,1.23,89.16,4.17,133.65C513.911,926.202,503.411,926.802,492.901,926.852z
		 M559.851,924.812c-11.19,0.22-22.37,0.86-33.56,1.01c-0.06-17.5-1.09-34.97-1.28-52.46c-1.01-45-2.02-90-2.16-135.01
		c-0.12-47.69-0.57-95.4,1.24-143.05c0.37-9.72,0.7-19.44,1.11-29.16c3.89,0.42,7.81,0.47,11.71,0.83
		c-0.34,10.8-1.01,21.62-0.3,32.43c0.32,3.87-0.31,7.94,1.03,11.68c2.58,0.45,1.96-3.21,2.21-4.83
		c-0.35-12.98-2.26-25.91-1.88-38.92c8.6,1.04,16.96,3.54,24.9,6.96c-0.45,54.04,1.23,108.06,0.86,162.1
		c-0.51,42.34-1.18,84.68-2.52,127C560.951,883.872,559.641,904.322,559.851,924.812z M585.121,923.502
		c-7.73,0.58-15.46,1.28-23.22,1.27c2.8-47.03,3.81-94.16,4.18-141.25c1.44,4.75,3.64,9.6,7.73,12.65
		c6.51,4.94,14.97,6.79,23.03,6.26c-2.46,35.31-5.28,70.6-9.47,105.75C586.661,913.292,586.271,918.462,585.121,923.502z
		 M601.831,739.812c-9.02-2.8-19.43-0.97-26.64,5.23c-3.81,3-6.29,7.24-8.34,11.55c0.45-49.77-0.12-99.54-1.13-149.3
		c-0.68-10.87-0.47-21.8-1.53-32.65c14.88,7.49,26.3,20.55,33.81,35.24c-0.31,0.28-0.93,0.83-1.25,1.1
		c2.63,18.64,4.27,37.45,4.46,56.29C602.221,691.432,601.671,715.632,601.831,739.812z M607.781,747.052
		c10.75,7.77,13.89,23.44,8.54,35.28c-3.73,8.92-12.82,16.33-22.83,15.79c-8.29,0.27-17.01-3.42-21.42-10.66
		c-5.37-9.47-5.43-21.48-0.88-31.27c3.08-6.7,9.49-11.67,16.68-13.21C594.701,741.632,602.171,742.752,607.781,747.052z
		 M592.201,898.332c1.2-15,2.98-29.95,4.17-44.95c1.32-17.11,3.14-34.21,3.36-51.39c4.12-0.92,7.93-2.89,11.11-5.66
		c-0.27,9.79-1.15,19.58-0.97,29.37c1.46-1.82,1.59-4.25,1.91-6.45c0.81-8.32,1.06-16.67,1.28-25.02
		c12.61-12.54,13.02-35.83-0.43-47.93c-2.23-2.4-5.4-3.64-7.68-5.91c0.34-42.3,0.94-84.99-6.97-126.74
		c0.59-0.87,2.13-3.53,2.11,0.07c14.81,31.08,22.92,64.82,28.54,98.65c5.81,39.92,2.04,80.75-7.33,119.83
		c-1.55,7.79-3.95,15.36-5.75,23.09c-1.02-4.5-2.61-8.85-4.66-12.97c0.89,6.99,3.59,14.04,2.25,21.13
		c-3.88,13.16-8.13,26.22-13.21,38.98c-2.65,6.35-4.99,12.91-8.59,18.81C590.241,913.602,591.681,905.952,592.201,898.332z
		 M609.471,920.922c-3.62,0.34-7.24,0.72-10.86,0.86c12.03-26.78,21-54.85,27.92-83.35c7.44-32.78,12.12-66.43,10.45-100.1
		c-1.02-19.63-4.44-39.04-8.85-58.17c-4.93-20.98-10.97-41.81-20.05-61.41c-7.05-15.18-15.52-30.5-29.14-40.75
		c-14.91-11.32-34-15.75-52.44-16.12c-17.54-0.48-34.94,5.84-48.6,16.73c-19.34,15.55-33.29,37.05-41.8,60.21
		c-8.58,20.89-13.43,43.12-16.13,65.49c-3.22,25.58-3.07,51.46-1.59,77.16c2.54,38.05,9.04,76.08,21.92,112.06
		c3.66,10.73,7.71,21.39,13.28,31.3c-2.39-0.4-5.2,0.17-7.33-1.02c-3.85-8.26-7.67-16.54-11.11-24.98
		c-6.35-15.12-11.1-30.83-15.7-46.55c-11.27-37.84-15.43-77.59-13.95-116.99c0.88-27.14,3.98-54.4,11.61-80.54
		c10.34-35.4,31.06-69.05,62.46-89.37c11.99-7.55,25.44-14.31,39.95-14.16c13.76,0.76,26.88,5.83,39.19,11.73
		c10.26,5.53,20.98,10.63,29.79,18.41c12.29,12.25,20.17,28.02,27.5,43.54c19.29,41.67,29.21,87.57,29.1,133.48
		c0.79,30.65-3.35,61.25-10.55,91C628.681,874.032,619.081,897.562,609.471,920.922z M636.301,922.362
		c4.13-2.96,8.19-6.37,10.28-11.13c2.5-4.78,2.23-10.49,0.56-15.48c3.61,1.36,7.11,3.22,9.87,5.97c2.55,2.34,4.15,5.8,7.55,7.13
		c1.88-2.45,2.11-5.61,2.97-8.47c1.13-4.24,2.98-8.22,4.55-12.3c0.5,6.79,2.01,13.84,6.87,18.94c-1.15,5.41-2.36,10.81-3.91,16.14
		C662.131,922.762,649.211,922.782,636.301,922.362z M679.041,903.372c-2.57-4.62-4.66-9.68-4.76-15.03
		c0.07-3.58,2.45-6.47,4.79-8.94C678.481,887.382,678.551,895.382,679.041,903.372z M685.281,923.622
		c-2.86-0.09-5.71-0.12-8.55-0.15c0.94-4.18,2.27-8.25,3.05-12.46C681.191,915.382,682.791,919.722,685.281,923.622z
		 M733.451,853.422c-13.86,3.32-28.75,3.15-42.15-1.97c-6-2.57-11.59-7.26-13.43-13.73c-1.79-6.14-0.45-12.64,1.4-18.59
		c2.79-8.26,7.11-16.23,13.62-22.15c-4.26-6.59-10.3-11.74-15.83-17.22c-7.21-7.21-14.62-14.38-20.19-22.99
		c-2.17-3.56-4.16-7.37-4.61-11.57c-0.28-2.89,2.07-5.99,5.19-5.51c6.77,0.58,12.7,4.48,18.02,8.44
		c12.25,9.31,20.19,22.89,27.05,36.38c1.18,1.95,2.03,4.27,3.9,5.69c4.74-0.29,9.37-1.44,14.1-1.89c1.84-1.28,1.87-3.87,2.53-5.84
		c3.04-14.62,4.08-29.86,10.11-43.7c2.46-5.68,5.16-11.77,10.4-15.44c2.55-1.57,6.68-2.74,8.9-0.01c2.51,3.82,2.7,8.6,3.21,13.02
		c0.65,15.39-4.3,30.69-12.51,43.61c-2.43,4.01-5.79,7.41-7.7,11.74c2.81-0.22,4.89,1.81,7.14,3.15
		c6.64,4.35,12.89,9.97,15.87,17.53c3.9,9.09,2.97,20.15-2.49,28.41C750.621,847.912,741.931,851.562,733.451,853.422z
		 M762.571,670.262c1.77,5.04,3.56,10.09,4.61,15.35c-4.77,0.14-9.54,0.31-14.29,0.52c-5.63-6.06-11.16-12.29-15.31-19.49
		C745.961,667.462,754.261,668.912,762.571,670.262z M743.201,654.292c-0.21-3.36,1.61-6.94,4.6-8.57c2.16-1.34,5.41-0.6,6.68,1.63
		c2.01,4.39,0.46,11.13-4.9,12.12C746.271,660.682,743.351,657.382,743.201,654.292z M779.631,686.852
		c-3.33-0.71-7.03-0.38-10.16-1.54c-1.74-4.8-3.12-9.73-4.83-14.54c5.08,1.07,10.14,2.28,15.23,3.39
		C779.671,678.382,779.521,682.612,779.631,686.852z M745.491,706.462c1.73-1.18,3.47-2.35,5.25-3.46
		c-0.57,1.19-1.15,2.39-1.74,3.58C747.821,706.532,746.651,706.492,745.491,706.462z M747.311,711.262
		c-5.53,6.53-11.41,12.86-15.45,20.48c-1.07-8.33-2.45-16.62-4.17-24.84C734.011,709.132,740.631,710.682,747.311,711.262z
		 M741.671,705.752c-4.39-0.84-8.66-2.16-12.87-3.63c3.91-2.8,7.18-6.37,11.09-9.17c4.11-0.16,8.18-0.69,12.27-1.12
		c-0.01,2.5,0.15,5.03-0.35,7.5C749.021,702.272,745.351,704.172,741.671,705.752z M750.351,686.522
		c-9.57,0.95-18.71-3.29-25.89-9.3c-4.19-3.45-8.02-7.4-10.82-12.08c6.68,0.22,13.38,0.36,20.05,0.87c1.81-0.21,2.43,1.75,3.31,2.93
		C740.701,675.332,745.491,680.982,750.351,686.522z M735.401,686.872c-15.9,0.96-33.43-5.09-42.2-19.04
		c0.55-1.31,2.13-1.13,3.29-1.46c4.64-0.75,9.34-1.12,14.04-1.31C716.651,674.402,724.841,682.722,735.401,686.872z
		 M714.621,686.102c-8.48,0.21-16.98-1.09-25.15-3.31c-4.1-0.91-7.79-5.15-6.43-9.49c1.28-3.61,5.5-4.34,8.63-5.57
		C695.501,677.272,705.191,683.142,714.621,686.102z M736.791,693.142c-2.87,3.12-6.51,5.38-9.42,8.46
		c-9.63-2.4-18.89-6.17-27.74-10.62C711.831,693.522,724.391,692.902,736.791,693.142z M780.021,877.332
		c-2.31-4.87-5.79-9.05-9.34-13.05c3.63-1.92,7.89-3.52,12.01-2.18c2.33,0.64,2.9,3.14,4.17,4.9c1.03,0.89,2.51,0.81,3.78,1.25
		c1.47,2.77,2.64,6.02,1.75,9.18c-0.42,2.36-2.59,3.7-4.24,5.16c1.63,2.22,3.51,4.87,2.44,7.78c-0.68,3.18-3.93,4.5-6.51,5.84
		C783.881,889.752,782.801,883.212,780.021,877.332z M834.741,877.552c3.21-4.82,5.73-10.46,10.68-13.8
		c4.64,4.92,2.82,12.38,2.81,18.52c0.04,7.03-3.41,13.47-3.59,20.44c8.74-4.28,15.55-11.91,24.75-15.36
		c-2.31,7.28-8.29,12.3-12.67,18.27c4.05,1.93,8.69,0.89,12.93,2.17c-11.16,1.98-22.81,1.23-33.63-2.12
		c2.9-7.17,6.83-14.41,6.76-22.33c-2.75,7.28-5.47,14.57-8.48,21.74c-4.2-1.01-8.36-2.24-12.67-2.66
		C826.891,894.592,829.371,885.312,834.741,877.552z M836.711,843.432c-3.53,11.49-4.63,23.61-8.77,34.94
		c-3.55,10.45-9.28,20.63-18.42,27.15c-8.21,6.28-18.9,9.31-29.14,7.32c1.42-4.54,3.23-9,3.68-13.79
		c6.89-0.93,12.37-8.94,8.64-15.43c5.17-4.71,4.2-12.84,0.45-18.1c2.3-3.96,3.85-8.34,6.42-12.12c3.32-3.38,5.86-7.39,8.77-11.1
		c2.01-2.64,4-5.37,5.01-8.56c7.84-0.37,15.68,1.74,22.69,5.12C838.331,839.482,837.031,841.852,836.711,843.432z M810.361,828.862
		c-1.58-0.75-3.16-1.46-4.76-2.1c0.34-2.52,0.69-5.03,1.16-7.52C807.781,822.502,808.881,825.762,810.361,828.862z M808.221,819.032
		c3.45,0.8,6.85,1.8,10.21,2.95c-0.42,2.55-0.85,5.12-1.23,7.69c-1.58-0.26-3.16-0.51-4.72-0.73
		C810.881,825.722,809.571,822.362,808.221,819.032z M805.591,833.852c-1.66,0.41-2.58-2.38-0.92-2.91
		C806.311,830.432,807.191,833.312,805.591,833.852z M808.021,834.452c-0.49,2.66-2.4,3.62-4.92,3.32c0.12-1.08,0.25-2.15,0.4-3.21
		C804.991,834.492,806.501,834.452,808.021,834.452z M805.571,840.332c-1.54,2.21-3.19,4.35-5.17,6.19
		c0.43-1.91,1.05-3.75,1.72-5.58C803.261,840.722,804.411,840.512,805.571,840.332z M827.731,824.762c-0.51,2.14-1,4.29-1.53,6.44
		c-2.53-0.56-5.06-1.11-7.6-1.47c0.74-2.38,0.97-4.94,2.04-7.19C823.071,822.992,825.411,823.872,827.731,824.762z M828.581,811.272
		c1.77-1.03,4.4-0.96,5.56,0.97c0.32,3.67-4.29,5.68-7.34,4.61C824.411,815.022,826.581,812.242,828.581,811.272z M827.771,831.482
		c0.45-2.06,0.95-4.1,1.45-6.13c3.45,0.62,6.67,2.06,9.97,3.19c-1.27,1.95-2.63,3.83-4.04,5.68
		C832.671,833.342,830.221,832.392,827.771,831.482z M836.371,834.772c1.39-1.9,2.84-3.75,4.32-5.58c2.05,0.72,4.08,1.48,6.12,2.28
		c-1.97,2-3.97,4.02-6.27,5.66C839.041,836.532,837.711,835.612,836.371,834.772z M840.661,844.692c0.43-0.73,0.86-1.44,1.31-2.14
		c2.78,1.38,5.28,3.25,7.56,5.36C846.391,847.402,843.381,846.312,840.661,844.692z M843.361,837.822c1.84-1.82,3.65-3.66,5.45-5.52
		c1.67,0.73,3.32,1.5,4.99,2.28c-1.35,1.59-2.77,3.11-4.19,4.63C847.541,838.642,845.451,838.202,843.361,837.822z M852.531,840.162
		c0.81-1.61,1.63-3.22,2.4-4.84c3.02,1.5,6.15,2.86,8.89,4.88C860.081,840.882,856.231,841.222,852.531,840.162z M866.501,841.392
		c1.77,0.89,3.51,1.81,5.26,2.79c-4.41,0.85-8.83-0.28-13.16-1C861.291,842.912,864.001,842.502,866.501,841.392z M850.111,844.152
		c4.02,0.12,7.19,2.55,10.17,4.96C856.511,848.422,852.711,847.112,850.111,844.152z M858.721,845.682
		c4.83,1.13,9.73,2.19,14.74,2.01c3.18-0.16,6.03,1.46,8.98,2.4C874.431,851.232,864.681,852.482,858.721,845.682z M823.151,768.582
		c-0.22,2.06,0.18,4.46-1.28,6.18c-2.31,2.79-5.86,4.08-9.23,5.07c-0.01-0.88-0.05-2.65-0.07-3.53
		C815.551,773.042,819.431,770.872,823.151,768.582z M823.351,776.212c1.91-2.34,1.5-5.49,1.53-8.28c9.7-4.82,20.81-8.2,31.65-5.57
		c8.16,1.93,15.92,6.35,20.8,13.3c6.75,9.45,9.18,21.09,11.42,32.27c1.44,9.78,3.68,19.48,4.12,29.38c-0.13,3.34-1.73,8.21-5.4,8.78
		c-9-3.4-17.06-8.82-25.71-13c-10.81-5.83-22.23-10.52-34.07-13.77c3.55,0.13,7.57-1.28,8.71-4.99c1.75-3.99-3.55-7.4-7-5.89
		c-4.57,0.79-7.85,6.78-3.98,10.36c-5.83-1.81-11.81-3.12-17.6-5.03c0.61-3.15,1.07-6.32,1.47-9.49c4.54-0.51,10.55-3.39,9.37-8.94
		c-1.84-3.22-6.28-2.29-8.69-0.25c1.75-4.06,1.35-8.67,2.07-12.98C816.331,781.642,820.601,779.592,823.351,776.212z
		 M809.831,801.092c0.78-1.97,1.79-3.85,3.32-5.33c1.18,0.28,3.07-0.02,3.31,1.67C816.161,800.522,812.271,800.902,809.831,801.092z
		 M811.631,719.362c-3.2,12.41-2.61,25.31-3.42,38c-0.52,16.44-1.94,32.87-4.92,49.06c-1.66,12.47-4.39,24.78-7.86,36.87
		c-1.78,6.45-4.28,12.7-7.22,18.71c-5.03-5.62-14.63-4.49-19.52,0.77c-5.78-4.32-11.86-8.26-17.52-12.75
		c13.93-9.4,16.88-30.47,7.65-44.11c-3.66-5.96-9.25-10.38-15.15-13.96c-1.18-0.84-2.6-1.08-3.98-1.27
		c0.05-0.24,0.13-0.73,0.18-0.97c10.34-12.15,16.97-27.47,18.66-43.35c0.68-8.02,0.77-16.66-3.09-23.95
		c-1.93-3.52-6.2-4.09-9.8-3.55c2.3-2.81,4.8-5.48,6.91-8.44c3.59-5.63,4.37-12.51,4.23-19.04c16.51-1.11,33.12,2.6,48.16,9.32
		c3.72,1.57,7.33,3.46,10.46,6.06C814.561,711.082,812.651,715.092,811.631,719.362z M781.561,674.512
		c3.39,0.93,6.77,1.91,10.17,2.83c-0.9,3.95-1.21,8-1.16,12.04c-3.1-0.68-6.16-1.49-9.23-2.27
		C781.221,682.912,781.341,678.712,781.561,674.512z M846.041,707.812c-6.04,0.75-12.06-0.68-17.87-2.19
		c5.45-2.69,10.91-5.91,14.4-11.06c5.56,1.72,10.99,3.84,16.4,6.01C855.141,703.682,851.051,706.982,846.041,707.812z
		 M860.441,701.322c6.29,2.31,12.34,5.31,18.11,8.73c-10.37,1.53-20.95,1.37-31.35,0.26
		C852.051,708.032,856.451,704.892,860.441,701.322z M824.421,704.512c-3.28-1.21-6.54-2.63-9.13-5.03
		c2.27-4.15,4.68-8.21,7.18-12.22c6.32,1.97,12.5,4.36,18.76,6.51C837.051,699.192,830.991,702.802,824.421,704.512z
		 M813.571,698.792c-2.63-1.39-5.31-2.66-7.99-3.93c0.05-4.24,1.36-8.28,2.82-12.21c4.3,1.18,8.47,2.75,12.7,4.15
		C818.451,690.702,815.961,694.722,813.571,698.792z M803.511,693.672c-3.82-1.38-7.69-2.61-11.48-4.03
		c0.14-3.95,0.66-7.86,1.09-11.77c4.65,1.38,9.3,2.77,13.94,4.21C805.081,685.652,803.761,689.572,803.511,693.672z
		 M816.871,719.492c0.24-1.73,0.52-3.44,0.83-5.15c3.7,2.2,7.8,3.7,11.35,6.17C824.981,720.252,820.931,719.742,816.871,719.492z
		 M834.451,720.752c-2.27,0.13-3.94-1.55-5.77-2.57c-3.54-2.08-7.2-3.91-10.72-6c0.56-1.01,0.46-3.43,2.22-2.63
		c5.82,2.38,11.26,5.73,17.37,7.42c5.5,2.02,11.33,2.59,17.03,3.79C847.871,720.982,841.151,721.132,834.451,720.752z
		 M876.111,715.622c-9.08,3.62-19.2,2.88-28.54,0.69c-4.88-1.21-9.86-2.39-14.34-4.72c8.43,0.67,16.78,2.43,25.28,2.33
		c7.09,0.17,14.12-0.89,21.06-2.24C878.651,713.172,877.911,715.012,876.111,715.622z M757.441,567.362
		c5.41-5.48,12.32-9.96,20.05-11.11c2.67-0.34,5.57-0.33,8.02,0.97c3.08,1.6,2.06,6.13,0.23,8.39c-5.23,6.63-12.43,11.8-20.44,14.52
		c-3.58,0.87-8.37,1.8-11.09-1.39C751.651,574.772,754.751,570.302,757.441,567.362z M729.161,600.982
		c6.43-6.13,10.46-14.18,15.83-21.16c2.25-3.14,4.85-6.01,7.16-9.1c-1.3,3.1-2.11,6.93,0.09,9.85c2.72,3.2,7.38,3.56,11.27,2.87
		c9.02-1.79,16.87-7.41,22.94-14.14c3.04-3.44,5.32-9.05,2.07-13.07c-2.38-3.19-6.64-2.63-10.12-2.48
		c9.47-3.97,19.76-6.1,30.05-5.57c13.3,0.82,26.66,5.67,36.6,14.71c7.78,7.13,12.39,16.87,16.25,26.51
		c5.69,13.17,10.54,26.68,15.83,40.01c4.76,11.92,9.95,23.66,14.99,35.47c3.2,7.85,6.47,15.92,6.92,24.48
		c0.43,9.56-5.17,18.68-13.26,23.54c0.28-4.62-3.01-8.08-6.82-10.08c-13.87-7.32-28.68-12.56-43.38-17.9
		c-26.99-9.91-54.63-18.18-82.92-23.39c4.73-2.88,6.37-9.07,4.86-14.2c-1.06-4.58-7.23-6.9-11.08-4.18
		c-5.8,3.34-7.34,11.05-4.95,16.99c-15.98-1.34-32.33-2.74-48.15,0.65c-5.64,1.55-12.67,4.03-14.01,10.52
		c-1.27,4.14,0.93,8.13,3.82,10.96c-5.73-2.02-10.9-6.76-11.78-12.99c-0.92-6.54,0.71-13.15,2.98-19.25
		c2.2-5.39,4.85-10.75,8.89-15.01c5.11-5.09,11.73-8.18,17.67-12.16C710.741,616.152,720.631,609.342,729.161,600.982z
		 M697.531,620.362c-3.85,2.51-7.8,4.86-11.63,7.4c-7.64,5.02-11.71,13.68-15.15,21.83c-2.85,8.34-5.21,17.82-1.75,26.34
		c2.45,6.2,8.42,9.9,14.04,12.91c12.47,6.39,25.62,11.29,38.72,16.21c1.85,11.74,4.17,23.42,4.93,35.32
		c1.06,4.41-1.08,8.55-1.91,12.8c-2.67,10.68-3.42,21.71-5.62,32.49c-3.89,0.38-7.72,1.17-11.61,1.41
		c-5.3-10.32-10.32-20.92-17.87-29.83c-7.04-8.43-15.74-15.93-26.25-19.56c-4-1.19-9.65-1.95-12.35,2.04
		c-2.38,4.18-1.73,9.53,0.31,13.74c4.88,10.71,13.5,19,21.63,27.27c5.33,5.23,10.77,10.35,16.07,15.61
		c-8.97,8.98-14.41,21.36-15.24,33.99c-0.66,8.56,3.68,17.21,11.24,21.42c-2.67,7.43-3.85,15.26-5.4,22.97
		c-9.22,7.26-14.32,18.71-16.41,30.06c-2.94-3.96-6.23-7.92-10.8-10.04c-2.5-1.2-6.06-3.06-8.37-0.54c0.04,2.77,1.21,5.4,1.2,8.2
		c0.13,7.45-4.93,14.8-12.08,17.1c-0.01,0.68-0.01,2.04-0.01,2.72c-6.8-0.12-13.59-0.51-20.36-1.13
		c5.34-11.03,9.63-22.51,14.31-33.83c10.45-28.23,16.59-57.95,19.5-87.88c3.18-37,2.16-74.62-5.89-110.97
		c-4.94-22.4-12.45-44.18-21.83-65.1c-6.95-14.5-14.34-29.11-25.14-41.18c-8.08-8.84-19.01-14.19-29.3-19.96
		c-12.87-6.62-26.61-12.13-41.05-14c-15.95-1.59-31.19,5.41-44.37,13.71c-16.8,10.86-31.3,25.3-42.16,42.12
		c-11.11,16.63-18.82,35.33-24.25,54.53c-5.6,20.85-8.64,42.33-10,63.86c-2.85,44.61,0.2,90,13.26,132.92
		c4.85,15.23,10.28,30.29,16.51,45.02c3.3,8.07,7.6,15.69,11.06,23.69c-7.71-0.36-15.44-0.16-23.14-0.57
		c-3.26-0.85-5.25-4.17-6.28-7.15c-0.8-4.1,0.65-8.22,0.15-12.32c-0.68-0.28-2.04-0.83-2.72-1.11c-3.81,0.85-7.32,2.67-10.19,5.3
		c3.13-10.11,7.69-19.73,10.87-29.81c0.89-3.07-2.97-3.2-4.76-1.97c-10.3,4.87-17.3,14.34-23.71,23.4
		c-0.41-9.27,2.27-18.28,2.67-27.49c0.3-2.7-2.98-3.27-4.77-2.02c-7.87,5.35-13.74,13.05-18.94,20.91
		c-6.47-26.9-6.58-54.89-13.07-81.78c-0.67-2.21-1-4.79-2.85-6.36c-1.33-0.85-3.03-0.6-4.27,0.26c-3.53,2.06-5.03,6.14-6.14,9.86
		c-2.76,10.48-2.77,21.4-2.67,32.17c0.12,8.43,1,16.84,2.38,25.15c0.41,2.22,0.4,4.49,0.15,6.74c-5.31-9.13-9.3-18.95-14.29-28.24
		c-0.96-1.98-2.51-3.53-4.51-4.44c-1.48,1.2-2.8,2.71-2.98,4.7c-1.99,16.53,2.86,32.77,8.65,48.05c-3.53-2.27-6.98-5.02-8.76-8.92
		c-4.25-9.04-5.29-19.17-5.6-29.03c-3.24-51.99,5.97-104.04,21.55-153.52c6.6-20.46,12.98-40.98,19.37-61.51
		c9.18-29.57,20.23-58.52,29.28-88.13c3.17-0.81,5.64-3.04,7.74-5.43c0.54,3.6,3.69,7.32,7.66,6.43c4.43-1.18,6.68-5.61,8.55-9.39
		c4.78,0.03,9.15-2.43,11.93-6.25c0,4.08-0.1,8.61,2.49,12.02c2.87,3.11,8.14,2.23,10.83-0.69c3.74-3.73,4.41-9.26,5.43-14.19
		c2.08-12.04,2.67-24.26,3.11-36.45c0.04-2.68-0.08-5.37-0.57-8c-1.27,9.36-2.33,18.75-3.64,28.11c-1.06,7.93-1.75,16.04-4.55,23.59
		c-0.94,2.68-3,4.77-5.54,5.99c-1.04-0.88-2.36-1.65-2.57-3.11c-1.15-4.66-1.11-9.54-0.45-14.26c-0.04-3.82-0.22-7.64-0.25-11.45
		c-1.72,3.58-2.76,7.41-4.03,11.16c-2.28,4.14-5.41,8.46-10.25,9.69c1.89-10.1,3.66-20.33,3.21-30.63
		c-0.17-3.23-0.76-6.59-2.86-9.15c0.2,4.39,0.85,8.8,0.23,13.19c-1.11,9.28-2.28,18.68-5.42,27.54c-1.16,3.08-2.73,6.45-5.79,8.03
		c-2.66,1.23-3.67-2.74-2.95-4.59c2.72-8.13,5.32-16.4,6.01-24.99c-3.98,9.83-6.73,21.35-15.66,28.01
		c0.67-6.09,2.29-12.02,3.1-18.09c1.05-8.34,2.18-16.66,3.17-25.01c0.34-3.44,1.34-6.76,2.32-10.06
		c9.72-8.72,21.96-13.81,34.13-18.08c22.41-7.32,45.76-11.33,69.17-13.68c24.94-2.31,50-3.18,75.04-2.84
		c19.75,0.55,39.73,1.51,58.85,6.91c5.2,1.51,10.41,3.21,15.21,5.78c1.32,0.59,2.13,1.86,2.73,3.14
		c4.7,10.02,7.94,20.66,12.41,30.78c2.38,5.65,5.34,11.03,7.49,16.78c-5.45-2.15-10.95-4.37-15.96-7.42
		c-5.35-3.39-6.46-10.41-11.02-14.4c0.94,6.99,0.73,14.05,0.79,21.09c-0.04,1.66,0.13,3.67-1.6,4.63c-3.25-3.86-3.86-9.16-6-13.62
		c-4.98-11.15-8.63-22.93-9.97-35.09c-1.95,3.43-0.85,7.46-0.68,11.18c0.43,8.73,2.53,17.26,3.46,25.93
		c-0.18,3.84-0.36,8.66-3.78,11.14c-4.56,2.4-10.53-0.25-11.99-5.14c-5.15-14.13-1.98-29.9-7.08-44.05
		c0.72,9.39-0.04,18.87-1.94,28.09c-0.95,3.93-1.91,8.1-4.52,11.31c-2.85,3.46-9.21,3.68-11.68-0.32c-1.82-3.06-0.7-6.71-0.02-9.93
		c2.72-10.41,5.99-20.67,8.71-31.07c-2.21,2.14-3.32,5.07-4.55,7.82c-3.37,7.98-6.11,16.23-8.09,24.67
		c-0.76,3.78-1.36,8.24,1.15,11.53c4.19,4.92,13.04,5.25,17.24,0.16c1.85-2.12,2.57-4.92,3.84-7.37c1.2,5.1,1.82,10.76,5.44,14.84
		c3.9,4.65,11.5,5.74,16.45,2.2c3-2.29,3.7-6.23,3.79-9.77c1.62,3.57,2.99,7.53,6.14,10.09c2.25,1.75,6.18,2.2,7.85-0.57
		c2.66-3.86,1-8.77,0.98-13.07c5.75,4.13,12.31,6.84,18.58,10.06c-0.71,3.23,3.58,3.09,4.06,5.8
		C674.591,564.362,689.141,591.232,697.531,620.362z M670.221,528.902c-0.06-1.23-0.12-2.45-0.18-3.66
		c4.08,1.52,8.36,2.57,12.22,4.63C678.271,529.302,674.221,529.342,670.221,528.902z M739.571,529.432
		c-17.28-0.57-34.59,0.06-51.87-0.41c-6.96-3.03-14.74-5.1-20.29-10.58c-3.06-2.93-5.18-6.66-6.75-10.56
		c32.95,7.79,66.39,13.4,99.38,21.04C753.241,529.752,746.391,529.312,739.571,529.432z M845.291,520.952
		c-2.17,0.51-4.44,0.7-6.52-0.23c-1.11,0.63-2.21,1.25-3.31,1.87c-16.5,2.94-33.19,4.81-49.93,5.61
		c-5.31,0.21-10.72,1.15-15.97,0.31c-9.37-3.51-19.26-5.27-29-7.38c-26.88-5.73-53.97-10.4-80.82-16.25
		c-0.7-1.83-1.41-3.66-2.1-5.49c19.66,4.81,39.8,7.12,59.78,10.17c23.3,2.98,46.61,6.17,70.05,7.83
		c15.98,1.59,32.02,2.56,47.94,4.71c0.69-0.6,1.39-1.18,2.11-1.76c-21.24-3.44-42.7-5.06-64.09-7.26
		c-34.11-3.7-68.1-8.4-102.03-13.54c-4.97-0.86-10.02-1.6-14.79-3.27c-1.07-1.65-1.54-3.58-2.12-5.43
		c24.8,4.23,49.83,7.59,75.02,8.03c35.31,0.98,70.63,0,105.95-0.04c24.74,0.1,49.49-0.2,74.24-0.1
		C889.451,509.202,867.551,516.202,845.291,520.952z M925.151,487.892c-3.11,3.37-6.88,6.07-10.85,8.32
		c-1.42,1.04-3.17,0.8-4.78,0.76c-40.28-1.76-80.62-1.3-120.94-1.1c-33.09,0.08-66.3,0.58-99.23-3.08
		c39.09-1.22,78.16-3.29,117.17-6.1c32.55-2.46,65.1-5.98,97.01-13.07c9.32-1.92,18.55-4.3,27.52-7.46
		C933.111,473.832,930.451,482.152,925.151,487.892z M936.871,477.482c0.46-5.47,0.36-11.25-2.47-16.12
		c-4.38-8.54-12.75-13.86-20.82-18.47c-15.39-8.52-32.09-14.4-48.97-19.19c-91.65-25.68-187.01-37.1-282.1-36.84
		c-48.77,0.04-97.54,2.18-146.08,6.99c-45.88,4.81-91.51,11.96-136.74,21.03c-44.04,8.39-87.38,21.09-128.41,39.27
		c-9.2,4.34-18.38,8.76-27.21,13.82c-12.04,7.23-24.29,14.66-33.75,25.22c-5.58,5.93-9.89,13.75-9.52,22.11
		c0.07,3.51,1.46,6.78,2.8,9.97c-9.86-6.54-18.15-16.19-20.88-27.93c-4.49-17.92,1.11-36.56,9.14-52.62
		c8.78-1.02,17.87-2.6,25.24-7.84c10.43-7.42,18.12-18.38,22.61-30.29c1.76-5.2,3.36-11.11,1.05-16.4c-0.77-2.15-2.8-3.35-4.66-4.44
		c12.94-13.72,27.04-26.27,41.32-38.56c12.93-11.36,25.84-22.74,38.8-34.07c19.76-17.88,39.18-36.17,57.41-55.61
		c9.13-9.86,18.44-19.55,27.52-29.46c0.86,3,2.37,6.05,5.44,7.3c8.42,4.04,18.7,0.34,24.53-6.45c9.64-10.85,11.25-27.12,6.72-40.54
		c7.75-7.47,14.93-15.52,23.01-22.64c2.44-2.07,4.43-4.75,7.41-6.1c4.54-5.38,10.35-9.48,15.76-13.93
		c13.56-10.54,27.5-20.78,42.62-28.97c6.01,0.18,11.77,3.5,15.66,8.03c5.55,6.1,7.67,14.54,7.82,22.61
		c0.61,18.16-5.47,37.05-18.83,49.76c-12.56,11.83-29.08,20.83-46.71,20.64c-7.85,0.14-16.14-3.36-20.13-10.38
		c-3.92-6.27-4.12-13.94-3.53-21.08c1.01-9.13,4.1-17.85,7.32-26.4c-2.57,2.11-3.49,5.45-4.8,8.37c-4.35,10.97-7.54,23.3-4.07,34.96
		c2.3,8.23,9.17,14.97,17.54,16.87c11.35,2.45,23.25,0.02,33.64-4.85c15.38-7.22,29.43-18.88,36.26-34.78
		c5.86-13.82,7.99-29.69,3.91-44.29c-2.73-10.04-10.79-19.2-21.37-20.95c17.15-10.43,36.71-16.41,56.57-18.8
		c-1.24,8.91-1.88,18.3,1.41,26.86c4.04,11.31,14.46,19.35,25.77,22.6c27.82,8.63,61.81-5.73,72.49-33.44
		c32.61,12.55,62.48,31.92,87.61,56.18c28.31,27.21,51.43,59.16,77.84,88.12c5.71,5.96,11.44,11.91,17.48,17.55
		c16.93,15.09,36.01,27.43,54.51,40.46c25.38,17.23,50.04,35.71,72.25,56.93c-5.95-0.06-12.14-0.16-17.77,2.02
		c-6.19,2.38-10.68,8.93-9.94,15.64c0.24,8.93,8.1,15.13,15.48,18.72c14.99,6.81,31.67,8.09,47.83,9.84
		c4.9,8.34,8.41,17.57,10.35,27.07C943.451,455.902,942.351,467.652,936.871,477.482z"/>
	<path style="fill:#010101;" d="M207.121,741.602c-2.63-2.01-6.21-3.48-9.44-2c-6.26,2.42-9.48,9.38-10.13,15.7
		c-0.78,5.46,1.42,11.84,6.81,14.1c7.61,3.75,18.09-0.66,20.17-9.03C216.751,753.272,212.901,745.722,207.121,741.602z
		 M206.251,766.092c-4.92,3.13-13.09,1.76-15-4.29c-1.75-6.69,0.31-15.36,6.61-18.93c4.71-1.68,8.85,2.29,11.61,5.62
		C213.931,753.742,212.371,762.822,206.251,766.092z"/>
	<path style="fill:#010101;" d="M704.561,251.242c4.68,0.8,10.08-1.23,12.09-5.76c2.24-5.32,0.19-11.2-2.25-16.07
		c-5.12-9.8-12.21-18.38-19.52-26.61c-4.83-5.15-10.04-10.14-16.28-13.55c-2.9-1.65-6.44-2.31-9.66-1.26
		c-4.77,1.6-7.61,6.59-7.96,11.42c-1.36,13.48,5.05,26.68,14.62,35.88C683.601,242.952,693.301,249.842,704.561,251.242z
		 M669.841,190.842c5.27-1.5,9.74,2.64,13.62,5.59c10.55,9.29,19.71,20.24,26.89,32.35c2.41,4.11,4.63,8.76,3.84,13.68
		c-0.43,3.6-4.2,6.05-7.69,5.64c-8.55-0.34-16.09-5.12-22.82-9.99c-11.08-8.45-19.92-21.33-19.82-35.71
		C663.621,197.922,665.351,192.622,669.841,190.842z"/>
	<path style="fill:#020202;" d="M851.111,595.972c3.26-3.2,4.34-8.55,2.6-12.77c-1.06-2.65-4.46-3.11-6.86-2.25
		c-4.87,1.97-8.63,7.74-6.82,13.03C841.641,598.332,847.971,599.122,851.111,595.972z M846.881,583.782
		c1.49-0.37,3.69-1.08,4.57,0.71c1.37,3.19,0.23,7.21-2.26,9.57c-2.08,2.01-6.18,1.26-7.04-1.64
		C841.461,588.922,843.951,585.442,846.881,583.782z"/>
	<path style="fill:#020202;" d="M546.661,215.422c3.21-6.8,5.55-14.85,2.9-22.22c-2.22-5.88-8.39-8.78-14.05-10.36
		c-10.54-2.79-21.64-2.8-32.4-1.59c-11.54,1.65-22.3,6.89-31.69,13.65c-8.81,6.47-16.97,14.81-20.27,25.48
		c-1.66,5.06-1.56,11.14,2.05,15.37c4.56,5.28,11.62,7.43,18.26,8.67c14.36,2.34,29.14,0.61,43.1-3.19
		C528.211,237.662,540.671,228.372,546.661,215.422z M474.591,241.512c-5.8-0.79-11.68-2.36-16.55-5.72c-4-2.69-5.73-7.99-4.4-12.58
		c2.37-10.05,9.86-17.85,17.65-24.16c9.62-7.52,21.06-13.02,33.26-14.56c9.8-1.3,19.91-1.02,29.53,1.39
		c5.14,1.46,11.01,3.9,12.91,9.38c1.82,6.31-0.64,12.91-3.2,18.67c-5.63,12.06-17.17,20.53-29.82,24.04
		C501.201,241.472,487.781,242.952,474.591,241.512z"/>
	<path style="fill:#020202;" d="M181.071,702.842c2,3.67,6.5,4.96,10.42,4.91c8.89-0.08,17.36-3.88,24.42-9.07
		c4.03-3.22,7.81-7.25,9.22-12.33c0.99-3.18-0.6-6.66-3.51-8.17c-5.35-2.92-11.8-3.09-17.7-2.2c-8.99,1.66-16.29,8.36-20.6,16.18
		C181.581,695.372,179.821,699.152,181.071,702.842z M185.001,695.792c3.68-6.89,9.1-13.62,16.88-15.92
		c5.42-1.53,11.38-1.6,16.73,0.29c2.4,0.79,4.7,3.13,3.36,5.81c-3.73,8.67-12.4,14.02-21.03,16.94c-5.07,1.65-11.13,2.77-15.96-0.12
		C182.491,701.132,184.061,697.902,185.001,695.792z"/>
	<path style="fill:#020202;" d="M580.081,778.462c4.19,6.75,13.8,9.3,20.97,6.21c6.14-2.83,7.42-10.98,5.19-16.78
		c-2.27-6.88-10.32-10.77-17.2-8.93C580.371,760.272,575.911,771.092,580.081,778.462z M603.681,777.552
		c-0.62,2.37-2.75,3.68-4.76,4.76c4.17-5.14,3.46-12.41,1.1-18.18C603.571,767.512,604.911,772.842,603.681,777.552z
		 M589.071,762.102c2.72-0.9,6.32-0.92,8.35,1.39c2.13,3.56,2.12,8.04,1.29,12c-0.59,2.51-2.22,5.63-5.19,5.63
		c-3.68,0.25-7.65-0.95-10.16-3.74c-2.06-2.51-1.99-6.1-1.22-9.08C583.131,765.152,586.151,763.252,589.071,762.102z"/>
	<path style="fill:#020202;" d="M583.241,177.632c8.23,4.87,18.61,7.65,27.91,4.27c5.36-1.89,9.12-7.97,7.58-13.59
		c-1.06-3.92-4.62-6.45-8.12-8.06c-5.71-2.56-11.9-3.81-18.03-4.83c-4.86-0.66-9.98-1.14-14.68,0.55c-2.72,0.8-4.41,3.58-4.32,6.34
		C573.101,168.872,577.851,174.512,583.241,177.632z M579.011,159.002c5.02-1.72,10.36-0.58,15.45,0.13
		c5.49,1.07,11.06,2.25,16.11,4.76c2.56,1.28,5.06,3.52,5.37,6.54c0.32,4.33-3.47,7.83-7.35,8.96c-7.3,1.99-15-0.13-21.54-3.51
		c-4.53-2.08-8.77-5.64-10.16-10.59C576.301,163.072,576.411,159.852,579.011,159.002z"/>
	<path style="fill:#020202;" d="M552.841,674.292c-0.18-3.45-0.34-7.3-2.85-9.94c0.29,17.02-1.14,33.99-2.59,50.93
		c-0.29,3.51-0.53,7.06-0.03,10.58c2.6-1.12,2.13-4.33,2.69-6.6C551.881,704.352,553.351,689.332,552.841,674.292z"/>
	<path style="fill:#020202;" d="M463.801,292.312c1.06-4.21-2.09-7.92-5.8-9.35c-8.32-3.54-17.62-3.98-26.54-3.68
		c-18.6,0.94-37.29,5.96-52.98,16.2c-6.29,4.45-13.2,9.76-14.85,17.75c-1.41,5.31,1.95,10.59,6.34,13.32
		c7.6,4.63,16.8,5.34,25.48,5.03c17.46-1.03,34.93-6.1,49.61-15.74C453.351,310.112,461.571,302.542,463.801,292.312z
		 M386.461,328.012c-5.73-0.44-11.67-1.79-16.31-5.35c-3.21-2.5-4.56-7.1-2.85-10.86c2.91-6.28,8.56-10.65,14.17-14.41
		c12.82-8.01,27.64-12.38,42.58-14.16c9.16-0.99,18.54-1.04,27.56,1.06c2.89,0.76,5.97,1.65,8.14,3.84c2.29,2.6,0.04,6.13-0.99,8.81
		c-5.97,10.72-16.63,17.88-27.57,22.84C417.101,325.592,401.761,329.012,386.461,328.012z"/>
	<path style="fill:#020202;" d="M301.441,751.932c5.36-2.73,9.7-7.78,10.72-13.81c0.96-4.01,0.19-8.74-2.91-11.64
		c-2.14-2.11-5.42-2.06-8.15-1.46c-7.33,2.04-13.96,8.42-14.47,16.29c-0.4,3.5,0.9,7.16,3.5,9.55
		C293.191,753.542,297.881,753.622,301.441,751.932z M290.131,738.792c1.48-4.59,5.34-8.19,9.72-10.01c2.8-1.29,7.27-1.95,8.77,1.52
		c3.02,6.76-1.37,14.47-7.27,18c-2.78,1.94-7.04,2.49-9.51-0.25C289.161,745.792,289.361,741.872,290.131,738.792z"/>
	<path style="fill:#020202;" d="M744.591,287.222c-8.38-4.46-17.86-6.17-27.17-7.47c-3.83-0.48-7.83-1.18-11.55,0.21
		c-8.73,3.78-9.44,16.84-3.46,23.36c6.4,6.84,16.29,8.46,25.2,9.22c8.08,0.38,16.77,0.93,24.16-2.98c4.33-2.19,5.79-8.05,3.54-12.22
		C752.831,293.022,749.041,289.462,744.591,287.222z M737.491,309.602c-10.03,0.06-20.65-0.67-29.55-5.73
		c-6.43-3.66-8.49-13.06-3.78-18.87c2.71-3.53,7.63-2.55,11.46-2.23c8.08,1.24,16.3,2.42,23.88,5.63
		c6.24,2.64,12.65,7.03,14.39,13.98C751.021,308.612,743.501,309.342,737.491,309.602z"/>
	<path style="fill:#020202;" d="M773.251,642.082c6.26-2.1,8.88-9.9,7.07-15.86c-1.41-5.46-8.27-8.55-13.33-6.12
		c-6.27,2.31-6.99,10.39-5.01,15.88C763.251,640.612,768.591,644.062,773.251,642.082z M768.611,622.322
		c4.56-1.73,9.92,2.12,9.44,7.09c0.79,5.25-3.89,11.9-9.65,9.98C762.331,636.202,761.591,624.882,768.611,622.322z"/>
	<path style="fill:#020202;" d="M209.981,641.062c6.16,1.29,13.36,1.47,18.57-2.62c3.36-2.95,6.28-7.33,5.51-12.01
		c-1.08-4.35-5.67-6.51-9.66-7.44c-5.4-1-11.16-1.86-16.49-0.09c-5.62,1.74-10.54,7.44-9.12,13.61
		C200.081,637.512,205.431,639.862,209.981,641.062z M201.921,628.332c1.52-4.21,5.98-6.49,10.17-7.12
		c4.88,0.04,9.93,0.17,14.58,1.84c2.47,0.95,5.3,3.25,4.37,6.26c-1.55,5.45-7.02,9.13-12.58,9.3c-5.23,0.26-11.04-0.59-15.01-4.29
		C201.761,632.882,201.091,630.412,201.921,628.332z"/>
	<path style="fill:#020202;" d="M275.081,686.002c6.41-3.52,10.31-11.53,8.06-18.67c-2.18-7.8-12.04-11.78-19.25-8.36
		c-8.77,3.45-15.27,14.44-10.83,23.49C257.391,690.192,268.191,689.732,275.081,686.002z M264.891,661.892
		c6.6-3.27,16.27,1.72,15.95,9.48c0.04,7.25-6.33,13-13.26,13.78c-4.8,1.2-10.96-0.7-12.5-5.83
		C253.201,672.042,258.301,664.652,264.891,661.892z"/>
	<path style="fill:#020202;" d="M465.121,677.092c0.26,0.75,0.78,2.26,1.03,3.02c3,0.43,4.83-2.79,3.66-5.39
		C467.991,672.692,465.921,675.472,465.121,677.092z"/>
	<path style="fill:#020202;" d="M888.471,819.102c-0.73-2.02-2.87-3.51-5.04-3.12c-1.99,0.77-2.65,2.92-3.57,4.63
		C882.251,823.552,887.231,822.632,888.471,819.102z M883.821,818.512c2.01-0.89,2.81,2.24,0.59,2.35
		C882.671,821.492,881.931,818.732,883.821,818.512z"/>
	<path style="fill:#020202;" d="M851.891,797.892c-4.45,1.66-7.88,6.82-6.27,11.57c0.73,2.85,4.4,3.87,6.85,2.57
		c5.45-1.53,7.18-8.78,4.36-13.24C855.681,797.272,853.511,797.412,851.891,797.892z M854.671,799.652
		c0.21,0.69,0.64,2.08,0.85,2.77c-2.38,0.2-4.78,0.45-7.03,1.25C850.181,801.832,852.141,800.132,854.671,799.652z M848.171,809.862
		c-0.16-1.34-0.3-2.66-0.4-3.98c2.66-1.01,5.49-1.5,8.31-1.87C856.011,808.122,852.181,811.252,848.171,809.862z"/>
	<path style="fill:#020202;" d="M580.371,602.932c-0.8,8.46-1.53,16.94-2,25.43c0.08,2.34-0.42,5.72,2.34,6.76
		c1.09-4.84,1.12-9.83,1.41-14.77c0.36-8.01,1.15-16.06,0.37-24.07C580.701,598.042,580.781,600.642,580.371,602.932z"/>
	<path style="fill:#020202;" d="M831.071,331.702c-7.08-5.99-15.35-10.45-23.99-13.76c-3.86-1.46-8.23-2.65-12.25-1.07
		c-3.56,1.16-5.89,4.85-5.72,8.55c-0.49,9.95,5.92,19,14.38,23.72c8.24,4.65,18.33,7.36,27.64,4.6c4.75-1.45,7.25-6.7,6.7-11.43
		C837.561,337.842,834.221,334.502,831.071,331.702z M830.101,350.782c-7.37,2.21-15.21,0.21-22.07-2.77
		c-7.16-3.47-13.87-9.47-15.46-17.59c-0.78-3.46-1.24-8.38,2.42-10.37c3.79-2.02,8.03-0.25,11.73,1.1
		c9.59,3.98,19.32,8.81,26.15,16.86C836.461,341.742,835.331,349.232,830.101,350.782z"/>
	<path style="fill:#020202;" d="M587.921,766.482c-0.47,0.65-0.92,1.33-1.34,2.03c1.25,0.44,2.52,0.92,3.8,1.36
		C589.661,768.682,589.311,767.042,587.921,766.482z"/>
	<path style="fill:#030303;" d="M847.851,611.832c-3.93,1.66-6.84,6.26-5.59,10.55c1.17,3.18,5.15,4.29,8.18,3.43
		c4.73-1.39,8.81-6.46,7.32-11.53C856.181,610.502,851.101,610.262,847.851,611.832z M855.071,614.832
		c2.19,5.26-5.87,11.52-10.1,7.22c-1.55-2.75,0.49-5.83,2.9-7.22C849.991,613.692,853.131,612.952,855.071,614.832z"/>
	<path style="fill:#030303;" d="M164.911,742.932c-7.66,4.1-7.46,16.69,0,20.93c2.88,1.83,6.52-0.27,7.77-3.09
		c1.75-4.32,1.69-9.31-0.02-13.62C171.491,744.212,168.191,741.472,164.911,742.932z M168.151,761.112
		c-6.49-0.71-7.53-10.5-3.25-14.45c1.84-2.32,4.51-0.02,5.01,2.16C171.091,752.742,171.471,758.132,168.151,761.112z"/>
	<path style="fill:#030303;" d="M803.041,355.922c-5.21-1.93-11.05-3.08-16.48-1.46c-3.44,1.19-6.25,3.82-7.95,7.01
		c-4.08,7.13-4.79,16.72,0.04,23.67c3.46,4.88,9.22,7.43,14.8,9.07c7.51,2.01,15.28,2.88,23.04,3.3c4.19,0.03,8.64,0.01,12.47-1.93
		c3.3-2.24,5.07-6.32,5.03-10.25c0.1-4.9-2.47-9.38-5.57-12.98C821.551,364.802,812.531,359.482,803.041,355.922z M825.691,393.452
		c-7.96,1.51-16.18,0.47-24.12-0.72c-6.63-1.36-13.83-2.8-18.83-7.73c-4.55-4.37-5.12-11.43-3.52-17.23
		c1.29-4.3,3.82-8.92,8.41-10.3c7.62-1.93,15.28,1.51,22.03,4.8c7.74,4.13,15.6,9.29,19.89,17.2
		C832.011,384.082,831.631,391.852,825.691,393.452z"/>
	<path style="fill:#030303;" d="M469.011,662.432c-0.44-12.11-3.03-23.99-5.22-35.86c-0.19,0-0.59-0.01-0.79-0.02
		c-0.09,9.6,0.82,19.15,1.99,28.67c0.45,3.24,0.47,6.7,2.05,9.65C469.051,666.402,469.031,663.802,469.011,662.432z"/>
	<path style="fill:#030303;" d="M554.801,835.682c-0.81-9.5-2.54-18.91-4.15-28.29c0-1.11-0.8-1.74-1.71-2.13
		c-1.04,9.43,0.73,18.95,2.87,28.13C552.111,834.822,553.621,838.642,554.801,835.682z"/>
	<path style="fill:#030303;" d="M368.351,256.442c-2.07-4.27-7.35-5.92-11.77-4.94c-6.35,0.77-12.61,3.43-17.01,8.15
		c-2.24,2.43-2.86,6.53-0.5,9.1c4.23,4.25,10.66,5.12,16.38,4.9c4.23-0.34,8.84-1.25,11.98-4.32
		C370.421,265.742,369.951,260.522,368.351,256.442z M365.911,265.902c-1.31,2.34-4,3.31-6.46,3.88
		c-4.96,0.95-10.28,0.96-15.01-0.94c-2-0.93-4.65-2.91-3.55-5.46c3.01-4.84,8.76-7.1,14.06-8.4c2.94-0.42,6.45-1.11,8.96,0.94
		C366.651,258.362,366.861,262.582,365.911,265.902z"/>
	<path style="fill:#030303;" d="M856.471,650.412c0.74,4.44,5.81,6.71,9.89,5.57c5.39-2.49,5.75-9.97,3.21-14.61
		c-1.36-2.77-4.59-4.79-7.65-3.45C857.321,639.872,855.511,645.822,856.471,650.412z M861.901,640.732
		c3.04-2.45,5.93,1.83,6.16,4.66c0.98,3.37-0.17,8.69-4.62,8.27C857.421,652.482,857.821,643.952,861.901,640.732z"/>
	<path style="fill:#030303;" d="M577.231,649.482c-1.17,4.22,0.56,8.51,0.52,12.8c0.46,3.72-0.44,7.93,1.75,11.22
		c0.38-0.12,1.13-0.35,1.5-0.47c1.2-4.48,0.11-9.14-0.16-13.66C580.171,655.952,580.041,651.942,577.231,649.482z"/>
	<path style="fill:#060606;" d="M864.961,817.962c-5.95,1.25-6.84,9.73-1.74,12.63c5.99,3.8,13.7-5.28,9.67-10.75
		C871.131,817.332,867.651,817.182,864.961,817.962z M864.251,828.652c-3.12-1.73-2.9-6.62,0.36-8.05c2.36-1.37,5.69-0.73,7.05,1.74
		C872.871,826.382,868.081,830.542,864.251,828.652z"/>
	<path style="fill:#060606;" d="M472.851,353.072c-8.32-4.07-17.87-7.07-27.18-5.52c-5.57,1.16-11.34,4.99-12.59,10.85
		c-0.65,4.47,3.37,7.89,7.35,8.87c9.18,2.48,19.02,1.08,27.95-1.79c3.59-1.41,7.88-2.87,9.71-6.54
		C478.651,355.842,474.971,354.432,472.851,353.072z M474.181,358.872c-8.39,5.56-18.95,6.76-28.78,6.12
		c-3.57-0.46-8.66-1.37-9.26-5.68c0.85-4.33,5-6.95,8.89-8.25c8.87-2.02,17.93,1.17,25.93,4.84
		C472.051,356.772,474.561,357.042,474.181,358.872z"/>
	<path style="fill:#060606;" d="M858.221,791.652c6.46,3.36,14.58-1.34,15.57-8.34c0.84-3.59-2.9-6.64-6.26-6.02
		c-3.47,0.41-7.08,1.78-9.29,4.58C856.041,784.722,856.561,788.672,858.221,791.652z M863.831,780.762c2.43-0.95,6.11-2,7.94,0.55
		c0.9,6.13-6.87,11.31-12.09,7.99C856.991,785.982,860.631,781.972,863.831,780.762z"/>
	<path d="M553.541,842.912c-1.83,3.88-1.61,8.27-1.32,12.45c0.29,2.18,0.45,5.4,3.49,5.16c0.26-4.78-0.39-9.54-0.57-14.3
		C555.191,844.872,554.801,843.582,553.541,842.912z"/>
	<path d="M267.941,707.972c-3.43,0.76-6.73,3.03-8.01,6.39c-0.84,2.32,0.74,4.57,2.55,5.87c5.53,3.93,15.89,2.66,17.39-4.93
		C280.701,709.062,272.771,706.722,267.941,707.972z M263.661,717.252c-1.06-0.92-0.83-2.66,0.16-3.53
		c3.46-3.61,9.77-3.92,13.45-0.44C276.831,719.802,267.811,720.892,263.661,717.252z"/>
	<path d="M810.511,578.012c7.04,0.16,14.47-3.83,17.09-10.58c0.96-2.81,1.1-6.67-1.66-8.52c-4.09-2.89-9.54-2.33-14.07-0.95
		c-4.3,1.47-8.56,3.67-11.4,7.31c-1.63,2.08-2.17,5.03-1.25,7.54C801.441,576.712,806.291,578.032,810.511,578.012z
		 M802.101,567.212c3.26-3.8,8.08-5.96,12.86-7.17c3.19-0.63,6.98-0.98,9.74,1.12c1.82,1.34,1.4,3.91,0.54,5.69
		c-3.83,7.88-15.02,11.28-22.37,6.32C800.841,571.852,800.441,568.982,802.101,567.212z"/>
	<path d="M799.591,621.262c7.76,2.46,16.66-1.4,20.9-8.17c2.29-3.61,2.41-8.86-0.65-12.06c-3.83-3.85-10.03-3.85-14.8-1.91
		c-4.79,2.02-9.18,5.88-10.36,11.13C793.251,614.462,795.211,619.762,799.591,621.262z M806.571,601.432c3.04-1,6.52-1.26,9.51,0.09
		c2.83,1.26,4.33,4.83,3.22,7.75c-1.56,5.15-6.68,8.24-11.59,9.61c-3.59,0.64-9.01,0.72-10.44-3.47
		C795.661,609.112,800.911,603.292,806.571,601.432z"/>
	<path d="M152.911,790.402c2.77-5.77,2.85-13.19-1.09-18.46c-2.83-3.9-8.26-5.08-12.74-3.87c-7.9,2.32-11.02,11.89-9.47,19.32
		c0.55,4.65,3.53,9.24,8.29,10.37C143.921,799.682,150.321,795.822,152.911,790.402z M134.291,791.462
		c-2.92-6.22-2.65-15.42,3.68-19.46c3.95-2.42,9.67-1.33,12.11,2.72c3.76,6.37,1.63,15.91-5.11,19.42
		C141.461,795.992,136.221,795.212,134.291,791.462z"/>
	<path d="M624.541,738.342c-0.82-14.99-3.32-29.86-6.75-44.46c-0.73-2.28-0.76-4.97-2.56-6.74c0.81,13.2,3.4,26.24,5.16,39.34
		c1.12,5.94,1.07,12.16,3.29,17.85C624.271,742.382,624.781,740.382,624.541,738.342z"/>
	<path style="fill:#050505;" d="M696.841,788.342c-2.37-8.98-7.41-17.05-13.4-24.06c-5.65-6.14-12.79-11.98-21.48-12.49
		c-2.51,3.9,1.06,7.69,3.3,10.72c6.95,8.66,14.6,16.74,21.91,25.11c2.66,2.67,4.82,6.22,8.57,7.47
		C697.031,793.072,697.621,790.672,696.841,788.342z M669.611,763.242c-2.2-2.45-4.33-4.98-5.85-7.91
		c4.88,0.18,8.84,3.38,12.47,6.31c9.08,7.8,15.57,18.41,18.95,29.86C686.451,782.282,678.041,772.732,669.611,763.242z"/>
	<path style="fill:#050505;" d="M736.531,623.132c5.99-0.37,11.29-4.2,14.8-8.89c2.24-3.03,3.61-7.53,1.21-10.85
		c-2.06-2.68-5.84-2.42-8.7-1.45c-4.53,1.49-8.66,4.27-11.71,7.93c-2,2.65-3.91,6.17-2.6,9.53
		C730.301,622.362,733.841,623.282,736.531,623.132z M732.041,615.772c2.7-7.14,10.8-12.41,18.46-11.13
		c1.02,2.81,0.27,5.86-1.59,8.13c-3.23,4.23-8.11,7.52-13.54,7.8C732.881,620.622,730.881,618.132,732.041,615.772z"/>
	<path style="fill:#040404;" d="M309.511,701.952c3.28-1.38,5.61-5.29,4.21-8.76c-2.7-4.15-8.71-4.22-12.84-2.4
		c-3.53,1.29-5.14,6.06-2.89,9.14C300.611,703.362,305.811,703.562,309.511,701.952z M302.611,693.412c2.69-1.14,6.28-1.08,8.6,0.88
		c0.91,5.58-9.16,8.12-11.25,3.01C299.251,695.422,301.281,694.232,302.611,693.412z"/>
	<path style="fill:#040404;" d="M695.951,655.702c5.43,1.65,11-0.82,15.69-3.44c6.03-3.53,11.36-9.66,11.48-16.97
		c0.21-2.8-1.06-5.73-3.57-7.12c-3.2-1.92-7.19-1.48-10.48-0.06c-7.93,3.48-13.58,11.05-15.94,19.25
		C692.241,650.322,692.571,654.472,695.951,655.702z M696.281,646.112c2.72-7.1,8.21-13.88,15.69-16.16
		c2.83-0.81,6.72-0.31,8.06,2.69c1.25,3.96-0.4,8.25-2.97,11.32c-4.82,5.62-12.05,9.68-19.56,9.74
		C694.241,652.522,695.511,648.562,696.281,646.112z"/>
	<path style="fill:#040404;" d="M244.761,744.302c0.61-0.16,1.84-0.49,2.46-0.65c-1.81,1.55-4.08,3.01-4.51,5.56
		c-1.53,4.65,3.2,9.55,7.89,8.65c4.38-0.83,8.27-3.92,10.13-7.96c0.65-1.61,1.5-3.59,0.18-5.09c-1.56-2.93-5.17-3.33-8.12-3.12
		c2.01-3.02,3.53-8.04,0.03-10.59c-4.79-2.71-10.98,1.37-12.56,6.16C239.591,740.462,242.021,743.112,244.761,744.302z
		 M258.091,745.902c0.86,5.16-5.74,9.75-10.51,8.59c-3.81-2.01-1.98-7.22,1.31-8.72
		C251.581,744.322,255.501,744.152,258.091,745.902z M247.641,733.572c1.4-0.68,3.3-0.99,4.19,0.62c0.02,2.44-0.96,4.87-2.61,6.67
		c-2.21,0.75-5.87,0.34-6.22-2.53C243.871,736.232,245.501,734.402,247.641,733.572z"/>
	<path style="fill:#040404;" d="M849.681,777.012c4.55-0.56,8.08-5.29,6.9-9.82c-1.71-3.55-6.47-2.95-9.66-2.33
		c-3.1,1.03-6.68,3.79-5.89,7.48C841.641,776.282,846.241,777.652,849.681,777.012z M846.571,767.222c2.54-0.84,6.6-1.72,8.21,1.08
		c0.84,5.72-7.35,9.04-10.89,4.73C841.881,770.792,844.211,767.902,846.571,767.222z"/>
</g>
</svg>
