<?xml version="1.0" encoding="utf-8"?>
<!-- Generator: Adobe Illustrator 27.5.0, SVG Export Plug-In . SVG Version: 6.00 Build 0)  -->
<svg xmlns="http://www.w3.org/2000/svg" xmlns:xlink="http://www.w3.org/1999/xlink" viewBox="0 0 3500 3500" width="595" height="842" preserveAspectRatio="xMidYMid meet" data-scaled="true">
<g>
	
		<path style="fill-rule:evenodd;clip-rule:evenodd;fill:#FFFFFF;stroke:#010101;stroke-width:43.7552;stroke-linecap:round;stroke-linejoin:round;stroke-miterlimit:1.0582;" d="
		M1369.072,339.182c0.756-20.524,8.997-39.045,20.222-57.005c8.013-12.827,8.783-13.741,15.19-27.553
		c1.743-3.761,3.399-7.592,4.822-11.492c0.489-1.336-0.102-1.477,0.127-2.004c1.62-3.585,9.201-22.388,10.803-25.972
		c5.047-11.281-0.84-26.148,10.294-35.179c20.612-16.799,37.89,8.294,52.928,19.575c9.995,7.486,20.127-11.387,33.187-3.76
		c18.454,10.789,17.913,35.355,31.145,49.307c11,11.563,38.628,29.522,45.33,48.465c186.351-16.87,377.662,14.866,560.647,43.087
		c11.896,1.828,23.698,3.972,35.401,6.397c2.527-2.601,5.321-4.886,8.912-6.397c16.813-7.205,20.254,5.659,26.851,14.69
		c7.177,1.863,14.314,3.796,21.417,5.87c13.925-6.818,11.387-30.576,26.521-36.094c4.221-1.511,9.693-1.019,13.966,0.07
		c28.51,7.099,24.074,37.464,30.393,60.132c116.192,45.443,222.519,115.767,320.643,193.121
		c65.84,51.908,152.683,140.227,83.385,228.37c-28.559,59.289-125.221,90.427-182.131,98.476
		c-26.805,3.795-53.642,3.83-78.243,17.115c-31.265,16.905-70.557,44.599-105.941,51.065c-30.158,5.483-57.894,2.249-88.625,11.387
		c-35.862,10.649-62.937,39.714-99.976,50.187c-28.942,8.224-57.149,0.317-86.164,3.901c-44.212,5.412-83.915,26.534-127.522,33.634
		c-39.327,6.397-77.094-6.501-116.136-1.722c-14.037,1.722-28.06,5.588-42.089,9.876c11.556,30.4,17.52,61.854,27.332,92.852
		c29.103,91.939,74.929,182.085,119.583,267.487c14.314,27.378,22.074,55.598,32.692,84.488c4.175,11.387,5.866,26.218-4.158,35.18
		c-12.339,11.035-32.881,23.441-52.654,28.256c9.085,63.507,6.825,141.598,5.472,181.558
		c-5.405,159.627,22.331,320.52,51.294,476.141c7.799,41.892,22.921,95.207,44.518,132.495
		c13.204,22.809,60.885,47.656,40.659,80.552c-1.518,2.496-3.29,5.483-5.279,8.857c41.804,24.18,41.421,71.485,60.688,114.537
		c27.075,60.519,44.922,126.204,54.843,193.472c40.656-35.637,86.839-67.583,133.937-93.591
		c17.193-9.489,66.403-40.206,47.744,5.694c-1.94,4.744-4.207,9.418-6.692,13.917c-7.279,13.214-14.234,26.605-21.878,39.608
		c-13.01,22.177-26.193,44.423-39.735,66.318c-18.289,29.557-40.114,57.497-61.285,85.12c-13.921,18.171-28.355,36.27-43.109,54.229
		c-0.58,15.428-1.518,30.787-2.801,46.039c26.215-67.302,60.744-131.863,113.148-174.704c11.682-9.594,24.391-19.68,37.718-26.885
		c21.09-11.352,68.595-23.055,85.63,1.546c7.721,11.141,7.82,26.112,7.345,39.116c-1.838,50.397-31.602,102.376-58.488,143.39
		c-13.984,21.333-28.822,42.314-44.103,62.91c8.41,7.802,13.991,18.416,17.709,30.435c33.205-35.215,68.462-69.587,108.952-94.821
		c8.522-5.307,17.147-10.438,25.842-15.463c21.635-12.512,77.301-48.957,105.923-30.33c37.046,24.145-20.567,77.319-35.169,93.345
		c-17.998,19.751-37.605,38.8-58.098,57.286c-11.011,25.55-25.972,50.397-34.836,75.174c-4.664,13.039-10.744,21.017-17.509,32.579
		c-3.413,5.834-14.529,15.569-8.421,18.451c8.972,4.287,13.162-14.902,19.249-22.739c14.564-18.768,29.68-39.362,47.277-55.458
		c7.493-6.853,19.15-15.499,32.164-22.633c16.697-26.605,41.991-46.813,74.071-43.087c27.757,3.233,19.122,34.196,11.538,50.854
		c-2.439,5.342-4.962,10.684-7.549,15.956c-0.819,10.438-6.878,20.524-15.313,30.014c-8.354,15.85-16.979,31.56-25.354,47.234
		c-3.465,6.467-7.113,13.741-9.521,21.263c0.218-0.07,0.436-0.176,0.65-0.246c14.107-5.131,12.332-15.288,21.698-22.247
		c3.29-2.46,8.712-3.725,14.473-4.358c5.268-19.013,13.559-36.515,36.512-34.477c13.095,1.16,14.929,18.417,13.197,28.046
		c-1.279,7.064-3.546,13.812-6.147,20.418c4.031,2.917,8.4,5.131,13.826,5.307c16.356,0.492,29.592-17.573,41.513-17.643
		c5.901-0.035,17.941,4.042,21.284-3.303c3.181-6.994,0.194-18.486-0.172-25.55c-1.575-30.154-12.684-58.024-18.968-87.475
		c-17.358-81.431-29.223-166.587-24.622-249.915c2.151-38.975,5.089-70.711,28.144-103.818
		c17.53-25.163,39.506-71.063,74.823-76.088c44.768-6.326,44.36,72.609,46.412,99.249c0.243,3.128,2.344,25.445,2.661,28.573
		c7.932,78.619-12.659,147.538-27.919,223.1c-3.493,17.291,0.162,34.898-2.752,52.189c-4.021,23.863-7.015,47.692-13.513,71.133
		c-2.175,7.872-8.139,26.605-5.806,34.759c0.51,1.757,10.656-18.979,10.751-19.259c6.47-17.643,11.594-36.727,19.677-53.631
		c18.813-39.398,39.214-86.281,68.609-118.93c13.534-15.042,35.581-34.301,56.629-20.77c15.369,9.91,6.702,50.502,4.548,65.263
		c-6.892,47.165-61.542,85.085-93.928,116.505c-11.556,11.176-38.814,38.307-35.921,57.426c2.358,15.57,21.53-4.499,24.854-7.697
		c19.583-18.907,32.319-43.123,61.855-44.739c5.44-0.317,21.034-1.406,24.97,4.252c7.676,11.036-23.589,37.781-31.114,43.263
		c-15.168,11.07-28.847,16.097-44.578,24.989c-5.539,3.127-8.621,8.047-11.432,13.144c3.068,0.245,6.245,0.773,9.563,1.652
		c26.158,6.853,43.875,29.803,69.32,36.48c21.712,5.694,43.892-12.266,64.072,0.703c26.988,17.327-8.751,65.967-24.942,65.967
		H808.886c-7.591-15.147-12.814-29.521-16.515-46.18c-1.209-5.483-5.525-14.796-1.206-19.893c4.776-5.658,12.983,3.585,17.087-0.948
		c5.419-6.01,0.162-23.688,11.383-25.094c3.883-0.492,7.447,0.949,10.782,2.952c8.979-7.31,22.405-12.23,36.073-10.228
		c-4.435-30.927-23.628-57.04-29.212-88.002c-2.397-13.32,0.137-37.148,18.244-38.765c56.439-4.991,48.756,75.35,67.474,101.392
		c2.847,3.972,33.265,27.378,35.784,18.873c6.488-21.895-4.853-45.794-15.049-64.877c-22.686-42.49-46.686-85.051-66.652-128.841
		c-10.484-23.02-22.419-65.861,15.952-70.29c79.455-9.207,128.795,87.721,133.645,151.51c1.62,21.333-14.518,71.66,2.474,88.53
		c38.427,38.097,51.227-15.323,87.138-11.387c9.746,1.054,16.687,7.907,23.111,15.323c-1.863-3.41-2.509-6.537-0.959-8.751
		c2.85-4.113,14.132-3.34,18.064-3.128c10.139,0.597,17.541,4.815,24.035,10.579c-0.095-8.119-0.422-17.08,2.516-23.582
		c-23.234-20.805-53.445-45.302-57.757-74.858c-1.56-10.649-7.83-40.03,3.29-47.199c0.917-0.597,1.838-1.09,2.759-1.511
		c-58.115-47.235-115.212-96.929-163.813-150.244c-20.187-22.141-99.825-95.665-48.612-129.017
		c39.563-25.76,116.515,24.637,146.42,41.893c12.019,6.958,23.944,14.058,35.724,21.403c37.858,23.583,72.409,52.963,105.006,84.558
		c0.411-4.393,0.801-8.646,0.886-9.735c1.089-14.093,1.22-48.535,13.946-64.139c-1.916-2.847-3.82-5.728-5.715-8.646
		c-37.162-56.688-78.31-128.56-80.847-198.251c-0.657-17.959-0.52-38.624,10.15-54.053c23.55-33.985,89.218-17.853,118.375-2.108
		c18.423,9.945,35.992,23.898,52.137,37.112c55.385,45.337,96.325,108.141,128.728,176.778
		c2.801-39.924,9.377-81.923,19.948-129.824c10.463-47.41,24.148-120.301,60.502-161.139c-0.935-1.195-1.835-2.495-2.696-3.901
		c-8.913-14.691,6.966-34.548,18.159-43.65c28.239-22.914,53.645-38.975,42.216-82.168
		c-20.423-77.107-22.714-157.554-38.751-236.419c-25.427-124.975-59.792-249.809-72.69-376.892
		c-3.096-30.541-9.714-109.827-6.843-166.832c-4.878,3.233-9.984,6.221-15.696,8.505c-21.867,8.821-53.821-6.361-64.782-25.48
		c-5.423-9.454-2.921-21.965-2.102-32.122c3.606-44.739,28.513-78.021,41.13-120.195c19.105-63.823,38.772-129.755,53.269-194.914
		c9.943-44.669,16.834-93.098,31.209-137.873c-4.998-0.035-10.013,0.246-15.046,0.879c-36.241,4.71-71.446,18.345-108.418,20.138
		c-30.977,1.477-61.777-8.188-92.666-8.821c-20.795-0.421-41.85-0.21-63.001,0.035c-88.234,5.272-175.035,7.872-259.235,7.907
		c-73.228,0.035-198.375,7.557-265.139-11.667c-78.612-22.634-187.451-116.083-172.385-209.498
		c8.484-52.647,60.906-97.069,97.453-130.914C811.35,592.259,1107.254,419.664,1369.072,339.182z M1315.371,2975.881
		c0.759,19.259,0.33,38.694-1.019,58.094c56.284,60.73,112.713,121.777,164.46,186.478c2.921,4.534,5.999,8.54,9.282,11.703
		c-3.079-3.901-6.171-7.802-9.282-11.703c-11.552-17.995-20.665-44.528-30.101-60.133c-37.334-61.784-82.176-119.035-126.57-175.793
		C1319.88,2981.646,1317.624,2978.763,1315.371,2975.881z M1288.155,3184.325c-2.305,9.243-4.161,18.592-4.667,28.257
		c-0.186,3.585-1.322,8.786-1.156,13.32c3.476,3.022,8.298,6.572,12.701,7.872c1.402-0.176,2.696-0.352,3.729-0.352
		c0.752,0,1.515,0.106,2.281,0.317c1.483-0.668,2.741-1.969,3.645-4.112C1309.892,3217.326,1301.19,3200.563,1288.155,3184.325z
		 M1192.055,3099.661c10.255,17.713,18.904,36.937,27.132,54.158c2.84,5.939,5.173,12.266,7.359,18.662
		c3.356,1.897,6.628,4.147,9.816,6.572c-4.267-16.201-6.365-32.65-9.138-49.097c-0.169-0.984-0.306-1.968-0.418-2.952
		C1215.328,3117.972,1203.723,3108.869,1192.055,3099.661z M2353.856,3180.916c-2.267,1.792-4.53,3.55-6.783,5.342
		c-1.504,1.195-3.645,2.882-6.203,5.025c0.053,3.444,0.355,6.888,1.075,10.438c0.256,1.266,2.228,14.972,4.47,14.515
		c2.495-0.492,4.034-15.534,4.33-17.01C2351.972,3193.111,2352.936,3187.031,2353.856,3180.916z M2278.496,3085.428
		c-28.517,36.445-57.044,73.347-81.568,112.638c2.998,2.531,5.95,6.01,8.54,9.173c25.033-28.994,51.016-57.251,77.03-85.332
		C2280.812,3108.553,2279.068,3095.936,2278.496,3085.428z"/>
	<g transform="matrix(-1.88667,0,0,1.88667,4080.27,-169.723)">
		
			<path style="fill-rule:evenodd;clip-rule:evenodd;fill:#FFFFFF;stroke:#010101;stroke-width:14.5874;stroke-linecap:round;stroke-linejoin:round;stroke-miterlimit:1.9966;" d="
			M669.058,1797.121c-1.511-2.706-3.128-5.307-6.045-6.958c-8.364-4.709-15.604-7.38-23.652-13.25
			c-3.971-2.917-20.56-17.08-16.483-22.914c2.074-3.023,10.333-2.425,13.214-2.285c15.675,0.879,22.422,13.707,32.79,23.723
			c1.792,1.722,11.949,12.336,13.179,4.076c1.546-10.121-12.898-24.496-19.049-30.435c-17.151-16.659-46.11-36.727-49.765-61.75
			c-1.16-7.802-5.729-29.346,2.39-34.582c11.176-7.17,22.844,3.022,30.014,11c15.604,17.327,26.394,42.174,36.375,63.05
			c4.288,8.962,6.994,19.084,10.438,28.432c0.07,0.14,5.448,11.105,5.693,10.192c1.23-4.323-1.933-14.269-3.058-18.416
			c-3.444-12.441-5.061-25.058-7.17-37.71c-1.546-9.173,0.387-18.486-1.476-27.659c-8.083-40.065-18.978-76.58-14.796-118.262
			c0.176-1.652,1.3-13.46,1.406-15.147c1.09-14.093,0.879-55.951,24.601-52.576c18.732,2.636,30.365,26.991,39.679,40.311
			c12.195,17.537,13.777,34.372,14.901,55.037c2.46,44.142-3.831,89.302-13.039,132.46c-3.339,15.604-9.243,30.365-10.051,46.356
			c-0.211,3.76-1.792,9.84-0.106,13.566c1.792,3.866,8.153,1.722,11.281,1.722c6.326,0.07,13.355,9.63,22.001,9.348
			c8.294-0.246,11.914-9.594,20.032-10.262c4.534-0.351,14.163-0.563,18.064,2.354c4.956,3.69,4.042,9.068,11.492,11.809
			c7.451,2.706,18.17,0.211,24.601,3.76c0.527-5.482-9.383-11-12.617-14.164c-11.106-10.824-42.666-28.151-37.781-46.953
			c7.696-29.557,44.88-7.31,57.954,4.675c9.349,8.54,17.361,19.435,25.093,29.416c3.198,4.147,5.447,14.304,10.192,12.054
			c3.233-1.546-2.671-6.713-4.464-9.77c-3.585-6.15-6.818-10.403-9.278-17.291c-7.38-20.56-22.633-41.225-25.41-63.225
			c-1.195-9.665,4.007-19.646,15.217-17.502c32.298,6.08,46.848,48.359,55.142,74.296c3.374,10.508,4.006,21.333,6.15,32.017
			c0.176,0.774,0.984,8.786,2.284,9.032c1.195,0.246,2.249-7.029,2.39-7.697c1.617-8.013-0.808-15.534-0.387-23.512
			c0.984-20.173-2.777-60.73,22.211-69.903c8.751-3.198,11.492,21.087,11.809,25.41c1.406,19.857-14.093,66.072,7.31,81.184
			c8.505,6.01,21.368-0.422,28.045-6.326c2.565-2.284,8.435-12.125,12.863-10.473c17.045,6.326,37.991,20.138,56.477,20.489
			c13.074,0.246,24.812-8.786,37.886-4.745c8.153,2.53,19.857,5.869,26.71,11.036c9.419,7.099,8.576,15.147,21.965,17.748
			c11.563,2.249,22.914-8.751,32.403-6.747c-44.001-38.062-87.335-75.983-126.837-120.019
			c-22.844-25.48-45.829-52.366-66.634-79.533c-11.211-14.656-22.774-29.451-32.474-45.126
			c-7.17-11.598-14.163-23.406-21.052-35.145c-4.077-6.889-7.767-13.988-11.598-21.017c-1.336-2.39-2.53-4.849-3.55-7.38
			c-9.911-24.32,16.202-8.048,25.304-3.022c26.64,14.726,52.752,33.036,75.315,53.455
			c59.816,54.193,106.242,114.888,149.857,182.191c12.582,19.47,11.738,19.083,25.445,36.867
			c3.795,4.85,13.707,14.128,13.144,22.001c16.483-15.323-5.553-73.031-10.367-86.597c-3.831-10.79-3.304-10.368-8.154-20.981
			c-36.058-78.619-93.59-169.047-90.251-259.052c1.124-31.033,31.735-62.979,62.312-40.487c24.32,17.889,45.055,52.752,57.11,79.568
			c28.362,63.155,41.752,129.227,38.483,198.568c-1.019,21.544-2.53,43.123-7.802,64.104c-2.32,9.173-11.703,23.969-6.361,33.634
			c16.132,29.275,31.314-8.048,49.449-6.115c16.378,1.757,24.004,28.924,32.438,39.432c-3.409-10.227,5.201-29.416,7.802-38.097
			c6.08-20.243,12.617-40.311,18.908-60.484c23.934-76.967,51.382-175.934,116.54-229.249c8.54-6.994,17.853-14.409,27.624-19.681
			c15.464-8.329,50.257-16.904,62.733,1.125c5.658,8.189,5.729,19.154,5.377,28.678c-1.336,36.902-23.16,75.034-42.841,105.083
			c-17.572,26.78-36.972,52.787-56.688,77.986c-23.512,30.084-47.305,60.449-67.092,93.168c-4.99,8.295-9.84,22.353-15.955,31.877
			c-1.652,2.073-3.269,4.147-4.92,6.221c1.757-1.687,3.374-3.796,4.92-6.221c29.064-36.304,60.871-70.465,92.466-104.521
			c32.685-35.285,66.494-73.909,107.754-99.6c6.256-3.901,12.582-7.662,18.943-11.352c15.85-9.138,56.653-35.883,77.599-22.211
			c27.167,17.678-15.077,56.653-25.761,68.391c-41.049,45.021-93.555,85.226-141.458,122.936
			c-8.4,6.607-43.826,35.672-37.253,51.241c2.776,6.572,11.914-1.792,13.988-4.006c10.684-11.176,25.937-33.282,44.388-29.732
			c13.39,2.566,2.987,24.847,10.579,27.659c14.198,5.272,17.642-16.448,30.927-17.924c19.013-2.073,25.796,26.253,46.18,6.045
			c8.997-8.927,0.457-35.602,1.3-46.919c2.566-33.809,28.714-85.191,70.852-80.306c20.314,2.355,13.987,25.058,8.435,37.253
			c-10.578,23.196-23.301,45.759-35.321,68.286c-5.412,10.122-11.422,22.809-7.978,34.407c1.335,4.498,17.467-7.907,18.978-10.016
			c9.911-13.812,5.834-56.372,35.742-53.736c9.594,0.843,10.965,13.495,9.665,20.524c-2.953,16.413-13.109,30.26-15.464,46.672
			c7.24-1.09,14.374,1.546,19.118,5.412c1.757-1.054,3.655-1.828,5.729-1.582c5.94,0.773,3.163,10.157,6.01,13.32
			c2.179,2.425,6.537-2.496,9.067,0.492c2.285,2.706,0,7.661-0.633,10.543c-1.968,8.857-4.744,16.448-8.751,24.496H606.5
			c-8.576,0-27.519-25.796-13.214-34.969c10.684-6.889,22.458,2.636,33.95-0.387c13.495-3.55,22.879-15.71,36.761-19.33
			C665.754,1797.543,667.441,1797.262,669.058,1797.121z"/>
	</g>
	<g transform="matrix(-1.88667,0,0,1.88667,4080.27,-169.723)">
		
			<path style="fill-rule:evenodd;clip-rule:evenodd;fill:#FFFFFF;fill-opacity:0.25;stroke:#010101;stroke-width:14.5874;stroke-linecap:round;stroke-linejoin:round;stroke-miterlimit:1.9966;" d="
			M669.058,1797.121c-1.511-2.706-3.128-5.307-6.045-6.958c-8.364-4.709-15.604-7.38-23.652-13.25
			c-3.971-2.917-20.56-17.08-16.483-22.914c2.074-3.023,10.333-2.425,13.214-2.285c15.675,0.879,22.422,13.707,32.79,23.723
			c1.792,1.722,11.949,12.336,13.179,4.076c1.546-10.121-12.898-24.496-19.049-30.435c-17.151-16.659-46.11-36.727-49.765-61.75
			c-1.16-7.802-5.729-29.346,2.39-34.582c11.176-7.17,22.844,3.022,30.014,11c15.604,17.327,26.394,42.174,36.375,63.05
			c4.288,8.962,6.994,19.084,10.438,28.432c0.07,0.14,5.448,11.105,5.693,10.192c1.23-4.323-1.933-14.269-3.058-18.416
			c-3.444-12.441-5.061-25.058-7.17-37.71c-1.546-9.173,0.387-18.486-1.476-27.659c-8.083-40.065-18.978-76.58-14.796-118.262
			c0.176-1.652,1.3-13.46,1.406-15.147c1.09-14.093,0.879-55.951,24.601-52.576c18.732,2.636,30.365,26.991,39.679,40.311
			c12.195,17.537,13.777,34.372,14.901,55.037c2.46,44.142-3.831,89.302-13.039,132.46c-3.339,15.604-9.243,30.365-10.051,46.356
			c-0.211,3.76-1.792,9.84-0.106,13.566c1.792,3.866,8.153,1.722,11.281,1.722c6.326,0.07,13.355,9.63,22.001,9.348
			c8.294-0.246,11.914-9.594,20.032-10.262c4.534-0.351,14.163-0.563,18.064,2.354c4.956,3.69,4.042,9.068,11.492,11.809
			c7.451,2.706,18.17,0.211,24.601,3.76c0.527-5.482-9.383-11-12.617-14.164c-11.106-10.824-42.666-28.151-37.781-46.953
			c7.696-29.557,44.88-7.31,57.954,4.675c9.349,8.54,17.361,19.435,25.093,29.416c3.198,4.147,5.447,14.304,10.192,12.054
			c3.233-1.546-2.671-6.713-4.464-9.77c-3.585-6.15-6.818-10.403-9.278-17.291c-7.38-20.56-22.633-41.225-25.41-63.225
			c-1.195-9.665,4.007-19.646,15.217-17.502c32.298,6.08,46.848,48.359,55.142,74.296c3.374,10.508,4.006,21.333,6.15,32.017
			c0.176,0.774,0.984,8.786,2.284,9.032c1.195,0.246,2.249-7.029,2.39-7.697c1.617-8.013-0.808-15.534-0.387-23.512
			c0.984-20.173-2.777-60.73,22.211-69.903c8.751-3.198,11.492,21.087,11.809,25.41c1.406,19.857-14.093,66.072,7.31,81.184
			c8.505,6.01,21.368-0.422,28.045-6.326c2.565-2.284,8.435-12.125,12.863-10.473c17.045,6.326,37.991,20.138,56.477,20.489
			c13.074,0.246,24.812-8.786,37.886-4.745c8.153,2.53,19.857,5.869,26.71,11.036c9.419,7.099,8.576,15.147,21.965,17.748
			c11.563,2.249,22.914-8.751,32.403-6.747c-44.001-38.062-87.335-75.983-126.837-120.019
			c-22.844-25.48-45.829-52.366-66.634-79.533c-11.211-14.656-22.774-29.451-32.474-45.126
			c-7.17-11.598-14.163-23.406-21.052-35.145c-4.077-6.889-7.767-13.988-11.598-21.017c-1.336-2.39-2.53-4.849-3.55-7.38
			c-9.911-24.32,16.202-8.048,25.304-3.022c26.64,14.726,52.752,33.036,75.315,53.455
			c59.816,54.193,106.242,114.888,149.857,182.191c12.582,19.47,11.738,19.083,25.445,36.867
			c3.795,4.85,13.707,14.128,13.144,22.001c16.483-15.323-5.553-73.031-10.367-86.597c-3.831-10.79-3.304-10.368-8.154-20.981
			c-36.058-78.619-93.59-169.047-90.251-259.052c1.124-31.033,31.735-62.979,62.312-40.487c24.32,17.889,45.055,52.752,57.11,79.568
			c28.362,63.155,41.752,129.227,38.483,198.568c-1.019,21.544-2.53,43.123-7.802,64.104c-2.32,9.173-11.703,23.969-6.361,33.634
			c16.132,29.275,31.314-8.048,49.449-6.115c16.378,1.757,24.004,28.924,32.438,39.432c-3.409-10.227,5.201-29.416,7.802-38.097
			c6.08-20.243,12.617-40.311,18.908-60.484c23.934-76.967,51.382-175.934,116.54-229.249c8.54-6.994,17.853-14.409,27.624-19.681
			c15.464-8.329,50.257-16.904,62.733,1.125c5.658,8.189,5.729,19.154,5.377,28.678c-1.336,36.902-23.16,75.034-42.841,105.083
			c-17.572,26.78-36.972,52.787-56.688,77.986c-23.512,30.084-47.305,60.449-67.092,93.168c-4.99,8.295-9.84,22.353-15.955,31.877
			c-1.652,2.073-3.269,4.147-4.92,6.221c1.757-1.687,3.374-3.796,4.92-6.221c29.064-36.304,60.871-70.465,92.466-104.521
			c32.685-35.285,66.494-73.909,107.754-99.6c6.256-3.901,12.582-7.662,18.943-11.352c15.85-9.138,56.653-35.883,77.599-22.211
			c27.167,17.678-15.077,56.653-25.761,68.391c-41.049,45.021-93.555,85.226-141.458,122.936
			c-8.4,6.607-43.826,35.672-37.253,51.241c2.776,6.572,11.914-1.792,13.988-4.006c10.684-11.176,25.937-33.282,44.388-29.732
			c13.39,2.566,2.987,24.847,10.579,27.659c14.198,5.272,17.642-16.448,30.927-17.924c19.013-2.073,25.796,26.253,46.18,6.045
			c8.997-8.927,0.457-35.602,1.3-46.919c2.566-33.809,28.714-85.191,70.852-80.306c20.314,2.355,13.987,25.058,8.435,37.253
			c-10.578,23.196-23.301,45.759-35.321,68.286c-5.412,10.122-11.422,22.809-7.978,34.407c1.335,4.498,17.467-7.907,18.978-10.016
			c9.911-13.812,5.834-56.372,35.742-53.736c9.594,0.843,10.965,13.495,9.665,20.524c-2.953,16.413-13.109,30.26-15.464,46.672
			c7.24-1.09,14.374,1.546,19.118,5.412c1.757-1.054,3.655-1.828,5.729-1.582c5.94,0.773,3.163,10.157,6.01,13.32
			c2.179,2.425,6.537-2.496,9.067,0.492c2.285,2.706,0,7.661-0.633,10.543c-1.968,8.857-4.744,16.448-8.751,24.496H606.5
			c-8.576,0-27.519-25.796-13.214-34.969c10.684-6.889,22.458,2.636,33.95-0.387c13.495-3.55,22.879-15.71,36.761-19.33
			C665.754,1797.543,667.441,1797.262,669.058,1797.121z"/>
	</g>
	<g transform="matrix(1.36481,0,0,1.36481,-4298.07,1245.33)">
		
			<path style="fill-rule:evenodd;clip-rule:evenodd;fill:#FFFFFF;stroke:#010101;stroke-width:14.5816;stroke-linecap:round;stroke-linejoin:round;stroke-miterlimit:1.4443;" d="
			M4726.3,1418.927c12.652-21.754,11.352-90.287,14.304-114.782c13.003-107.789,2.636-227-42.068-326.881
			c-14.339-32.017-13.812-67.232-45.829-84.699c-44.563-24.32-98.861-50.151-150.946-46.496
			c-31.173,2.214-56.302,18.205-86.456,24.601c-42.35,9.032-93.837,16.975-131.618,38.308
			c-40.346,22.774-52.892,91.095-62.065,132.671c-23.09,104.626-20.173,170.803,4.534,273.426
			c10.333,42.841,19.47,87.897,41.716,126.31c22.142,38.237,69.974,36.339,108.07,39.467c32.052,2.636,63.858,8.892,95.664,13.531
			c17.327,2.531,36.867,7.732,54.405,7.029c26.674-1.089,50.994-16.271,77.951-18.345c30.259-2.319,74.753,15.956,99.002-8.505
			C4709.852,1467.603,4723.277,1428.522,4726.3,1418.927z"/>
	</g>
	<g transform="matrix(1.36481,0,0,1.36481,-4298.07,1245.33)">
		
			<path style="fill-rule:evenodd;clip-rule:evenodd;fill:#FFFFFF;stroke:#010101;stroke-width:14.5816;stroke-linecap:round;stroke-linejoin:round;stroke-miterlimit:1.4443;" d="
			M4228.932,216.123c-14.164,25.663-5.624,130.967-2.391,163.016c9.455,93.123,34.653,184.58,53.28,276.164
			c11.738,57.778,13.425,116.716,28.396,173.228c8.365,31.63-10.262,43.439-30.927,60.203c-8.224,6.642-19.857,21.228-13.32,31.982
			c15.323,25.164,46.567-0.597,63.331,11c21.122,14.656,23.547,48.957,53.42,51.487c30.014,2.565,50.257-38.589,76.931-28.924
			c28.186,10.192,47.797,43.931,82.625,23.476c16.448-9.665,14.058-40.1,27.589-46.461c15.921-7.486,33.704,4.323,50.467,1.406
			c15.64-2.706,31.982-33.458,39.608-45.829c14.796-24.109-20.138-42.314-29.803-59.043c-15.815-27.307-26.885-66.388-32.614-97.105
			c-21.227-114.01-41.541-231.882-37.605-348.85c1.546-44.978,4.64-155.895-23.265-192.751
			c-18.909-24.963-62.664-17.179-89.409-20.17C4387.504,162.489,4262.846,147.658,4228.932,216.123z"/>
	</g>
	<g transform="matrix(1.36481,0,0,1.36481,-4298.07,1245.33)">
		
			<path style="fill-rule:evenodd;clip-rule:evenodd;fill:#FFFFFF;stroke:#010101;stroke-width:14.5816;stroke-linecap:round;stroke-linejoin:round;stroke-miterlimit:1.4443;" d="
			M4266.852-144.975c-20.981,41.049-26.745,90.579-36.656,135.033c-10.614,47.741-25.023,96.047-39.01,142.814
			c-9.244,30.889-27.519,55.283-30.154,88.059c-0.597,7.44-2.425,16.627,1.546,23.551c8.013,13.998,31.455,25.125,47.48,18.672
			c16.413-6.618,26.008-21.076,45.442-22.208c15.604-0.907,21.474,14.81,32.966,22.465c11.211,7.468,26.64,6.744,39.468,5.198
			c4.569-0.548,17.15-0.78,20.208-4.882c11.352-15.112,9.841-27.694,32.438-31.785c13.637-2.467,19.892,7.134,32.018,10.452
			c8.751,2.386,19.715,1.894,28.326-0.587c6.256-1.796,13.215-8.645,15.745-14.617c1.089-2.646,0.984-11.355,4.885-11.555
			c9.068-0.46,13.601,11.563,21.404,13.963c17.15,5.279,34.723,15.847,51.838,19.948c18.38,4.404,44.493-9.57,57.708-21.396
			c7.345-6.565,6.115-17.439,3.057-25.772c-7.767-21.175-13.46-41.843-23.968-61.9c-32.72-62.575-66.283-128.644-87.616-195.992
			c-7.521-23.744-11.949-47.86-21.193-71.087c-3.057-7.637-3.865-15.084-10.824-20.278c-26.288-19.579-63.12-21.196-94.188-14.673
			C4334.471-156.664,4291.278-142.93,4266.852-144.975z"/>
	</g>
	<g transform="matrix(1.36481,0,0,1.36481,-2039.97,697.6)">
		
			<path style="fill-rule:evenodd;clip-rule:evenodd;fill:#FFFFFF;stroke:#010101;stroke-width:14.5816;stroke-linecap:round;stroke-linejoin:round;stroke-miterlimit:1.4443;" d="
			M2374.99,1870.004c-1.511-2.706-3.128-5.307-6.045-6.959c-8.364-4.709-15.604-7.38-23.652-13.25
			c-3.971-2.917-20.56-17.08-16.483-22.914c2.074-3.023,10.333-2.425,13.215-2.284c15.675,0.879,22.422,13.707,32.79,23.723
			c1.792,1.722,11.949,12.336,13.179,4.076c1.546-10.121-12.898-24.496-19.049-30.435c-17.151-16.659-46.11-36.727-49.765-61.75
			c-1.16-7.802-5.729-29.346,2.39-34.582c11.176-7.17,22.844,3.022,30.014,11c15.604,17.327,26.394,42.174,36.375,63.049
			c4.288,8.962,6.994,19.084,10.438,28.432c0.07,0.14,5.448,11.105,5.693,10.192c1.23-4.323-1.933-14.269-3.058-18.416
			c-3.444-12.441-5.061-25.058-7.169-37.71c-1.546-9.173,0.387-18.486-1.476-27.659c-8.083-40.065-18.978-76.58-14.796-118.262
			c0.176-1.652,1.3-13.46,1.406-15.147c1.09-14.093,0.878-55.951,24.601-52.576c18.732,2.636,30.365,26.991,39.678,40.311
			c12.195,17.537,13.777,34.372,14.901,55.037c2.46,44.142-3.831,89.302-13.039,132.46c-3.339,15.604-9.243,30.365-10.051,46.356
			c-0.211,3.76-1.792,9.84-0.106,13.566c1.792,3.866,8.154,1.722,11.281,1.722c6.326,0.07,13.355,9.63,22,9.348
			c8.294-0.246,11.914-9.594,20.032-10.262c4.534-0.351,14.163-0.563,18.064,2.354c4.956,3.69,4.042,9.068,11.492,11.809
			c7.451,2.706,18.17,0.211,24.601,3.76c0.527-5.482-9.384-11-12.617-14.163c-11.106-10.824-42.666-28.151-37.781-46.953
			c7.696-29.557,44.88-7.31,57.954,4.675c9.349,8.54,17.361,19.435,25.094,29.416c3.198,4.147,5.447,14.304,10.192,12.054
			c3.233-1.546-2.671-6.713-4.463-9.77c-3.585-6.15-6.818-10.403-9.278-17.291c-7.38-20.56-22.633-41.225-25.41-63.225
			c-1.195-9.665,4.007-19.646,15.218-17.502c32.298,6.08,46.848,48.359,55.142,74.296c3.374,10.508,4.006,21.333,6.15,32.017
			c0.176,0.774,0.984,8.786,2.284,9.032c1.195,0.246,2.249-7.029,2.39-7.697c1.617-8.013-0.808-15.534-0.386-23.512
			c0.984-20.173-2.777-60.73,22.211-69.903c8.751-3.198,11.492,21.087,11.808,25.41c1.406,19.857-14.093,66.072,7.311,81.184
			c8.505,6.01,21.368-0.422,28.045-6.326c2.565-2.284,8.435-12.125,12.863-10.473c17.045,6.326,37.991,20.138,56.478,20.489
			c13.074,0.246,24.812-8.786,37.886-4.745c8.154,2.53,19.857,5.869,26.71,11.036c9.419,7.099,8.576,15.147,21.966,17.748
			c11.563,2.249,22.914-8.751,32.403-6.748c-44.001-38.062-87.335-75.983-126.837-120.019
			c-22.844-25.48-45.829-52.366-66.634-79.533c-11.211-14.656-22.774-29.451-32.474-45.126
			c-7.17-11.598-14.164-23.407-21.052-35.145c-4.077-6.889-7.767-13.988-11.598-21.017c-1.335-2.39-2.53-4.85-3.55-7.38
			c-9.911-24.32,16.202-8.048,25.304-3.022c26.64,14.726,52.752,33.036,75.315,53.455
			c59.816,54.193,106.242,114.888,149.857,182.191c12.582,19.47,11.738,19.083,25.445,36.867
			c3.795,4.85,13.707,14.128,13.144,22.001c16.483-15.323-5.553-73.031-10.367-86.597c-3.831-10.79-3.304-10.368-8.154-20.981
			c-36.059-78.619-93.591-169.047-90.251-259.052c1.125-31.033,31.735-62.979,62.312-40.487
			c24.32,17.889,45.055,52.752,57.11,79.568c28.362,63.156,41.752,129.227,38.483,198.568c-1.019,21.544-2.53,43.123-7.802,64.104
			c-2.32,9.173-11.703,23.969-6.361,33.634c16.132,29.275,31.314-8.048,49.449-6.115c16.378,1.757,24.004,28.924,32.439,39.432
			c-3.409-10.227,5.201-29.416,7.802-38.097c6.08-20.243,12.617-40.311,18.908-60.484c23.934-76.967,51.382-175.934,116.54-229.249
			c8.54-6.994,17.853-14.409,27.624-19.681c15.464-8.329,50.257-16.904,62.733,1.125c5.658,8.188,5.729,19.154,5.377,28.678
			c-1.335,36.902-23.16,75.034-42.841,105.083c-17.573,26.78-36.972,52.787-56.688,77.986
			c-23.512,30.084-47.305,60.449-67.092,93.168c-4.99,8.295-9.84,22.352-15.955,31.876c-1.652,2.073-3.269,4.147-4.92,6.221
			c1.757-1.687,3.374-3.796,4.92-6.221c29.064-36.304,60.87-70.465,92.466-104.52c32.685-35.286,66.494-73.91,107.754-99.6
			c6.256-3.901,12.582-7.662,18.943-11.352c15.85-9.137,56.653-35.883,77.599-22.211c27.167,17.678-15.077,56.653-25.761,68.392
			c-41.049,45.021-93.555,85.226-141.458,122.936c-8.4,6.607-43.826,35.672-37.253,51.241c2.776,6.572,11.914-1.792,13.988-4.006
			c10.684-11.176,25.937-33.282,44.388-29.732c13.39,2.565,2.987,24.847,10.579,27.659c14.198,5.272,17.642-16.448,30.927-17.924
			c19.013-2.073,25.796,26.253,46.18,6.045c8.997-8.927,0.457-35.602,1.301-46.919c2.565-33.809,28.713-85.191,70.852-80.306
			c20.314,2.355,13.988,25.058,8.435,37.253c-10.579,23.196-23.301,45.759-35.321,68.286c-5.412,10.122-11.422,22.809-7.978,34.407
			c1.336,4.498,17.467-7.908,18.978-10.017c9.911-13.812,5.834-56.372,35.742-53.736c9.594,0.843,10.965,13.495,9.665,20.524
			c-2.952,16.413-13.109,30.26-15.464,46.672c7.24-1.09,14.374,1.546,19.119,5.412c1.757-1.055,3.655-1.828,5.729-1.582
			c5.94,0.773,3.163,10.157,6.01,13.32c2.179,2.425,6.537-2.496,9.067,0.492c2.284,2.706,0,7.661-0.633,10.543
			c-1.968,8.857-4.745,16.448-8.751,24.496H2312.432c-8.576,0-27.519-25.796-13.215-34.969c10.684-6.889,22.458,2.636,33.95-0.387
			c13.496-3.55,22.879-15.71,36.761-19.33C2371.686,1870.426,2373.373,1870.145,2374.99,1870.004z"/>
	</g>
	<g transform="matrix(1.93319,0,0,1.93319,-6283.59,710.218)">
		
			<path style="fill-rule:evenodd;clip-rule:evenodd;fill:#FFFFFF;stroke:#010101;stroke-width:14.6074;stroke-linecap:round;stroke-linejoin:round;stroke-miterlimit:2.0458;" d="
			M4120.979,511.301c-2.319-4.404-4.182-6.527-6.572-9.268c-11.597-13.299-27.799-20.69-43.579-7.233
			c-7.064,6.017-8.997,16.49-10.684,25.005c-5.518,27.94-0.351,69.523,26.042,86.15c16.378,10.311,36.797-1.114,44.388-16.662
			C4137.111,575.961,4128.5,525.461,4120.979,511.301z"/>
	</g>
	<g transform="matrix(1.93319,0,0,1.93319,-6242.12,703.615)">
		
			<path style="fill-rule:evenodd;clip-rule:evenodd;fill:#FFFFFF;stroke:#010101;stroke-width:14.6074;stroke-linecap:round;stroke-linejoin:round;stroke-miterlimit:2.0458;" d="
			M4174.918,502.713c-2.319-4.404-4.182-6.527-6.572-9.268c-11.597-13.299-27.799-20.69-43.579-7.233
			c-7.064,6.017-8.997,16.49-10.684,25.005c-5.518,27.94-0.351,69.523,26.042,86.15c16.378,10.311,36.797-1.114,44.388-16.662
			C4191.05,567.372,4182.439,516.873,4174.918,502.713z"/>
	</g>
	<g transform="matrix(1.06325,0,0,0.750845,-3203.74,1800.52)">
		
			<path style="fill-rule:evenodd;clip-rule:evenodd;fill:#FFFFFF;stroke:#010101;stroke-width:22.4666;stroke-linecap:round;stroke-linejoin:round;stroke-miterlimit:1.5;" d="
			M4726.261-164.514c-1.266-2.39-10.017-18.975-21.438-24.208c-9.63-4.404-21.508,1.557-28.713,7.707
			c-7.064,6.017-8.998,16.49-10.685,25.005c-5.518,27.94-0.351,69.523,26.042,86.15c16.378,10.311,31.526-6.811,39.117-22.359
			C4737.086-105.552,4733.782-150.354,4726.261-164.514z"/>
	</g>
	<g transform="matrix(1.06325,0,0,0.750845,-3203.74,1800.52)">
		
			<path style="fill-rule:evenodd;clip-rule:evenodd;fill:#FFFFFF;stroke:#010101;stroke-width:22.4666;stroke-linecap:round;stroke-linejoin:round;stroke-miterlimit:1.5;" d="
			M4726.261-164.514c-1.266-2.39-10.017-18.975-21.438-24.208c-9.63-4.404-21.508,1.557-28.713,7.707
			c-7.064,6.017-8.998,16.49-10.685,25.005c-5.518,27.94-0.351,69.523,26.042,86.15c16.378,10.311,31.526-6.811,39.117-22.359
			C4737.086-105.552,4733.782-150.354,4726.261-164.514z"/>
	</g>
	<g transform="matrix(1.06325,0,0,0.750845,-3203.74,1800.52)">
		
			<path style="fill-rule:evenodd;clip-rule:evenodd;fill:#FFFFFF;stroke:#010101;stroke-width:22.4666;stroke-linecap:round;stroke-linejoin:round;stroke-miterlimit:1.5;" d="
			M4726.261-164.514c-1.266-2.39-10.017-18.975-21.438-24.208c-9.63-4.404-21.508,1.557-28.713,7.707
			c-7.064,6.017-8.998,16.49-10.685,25.005c-5.518,27.94-0.351,69.523,26.042,86.15c16.378,10.311,31.526-6.811,39.117-22.359
			C4737.086-105.552,4733.782-150.354,4726.261-164.514z"/>
	</g>
	<g transform="matrix(1.06325,0,0,0.750845,-3246.19,1805.47)">
		
			<path style="fill-rule:evenodd;clip-rule:evenodd;fill:#FFFFFF;stroke:#010101;stroke-width:22.4666;stroke-linecap:round;stroke-linejoin:round;stroke-miterlimit:1.5;" d="
			M4625.872-147.937c-1.266-2.39-10.017-18.975-21.438-24.208c-9.63-4.404-21.508,1.557-28.713,7.707
			c-7.064,6.017-8.997,16.49-10.684,25.006c-5.518,27.94-0.351,69.523,26.042,86.15c16.378,10.311,31.526-6.811,39.117-22.359
			C4636.696-88.975,4633.392-133.777,4625.872-147.937z"/>
	</g>
	<g transform="matrix(1.06325,0,0,0.750845,-3246.19,1805.47)">
		
			<path style="fill-rule:evenodd;clip-rule:evenodd;fill:#FFFFFF;stroke:#010101;stroke-width:22.4666;stroke-linecap:round;stroke-linejoin:round;stroke-miterlimit:1.5;" d="
			M4625.872-147.937c-1.266-2.39-10.017-18.975-21.438-24.208c-9.63-4.404-21.508,1.557-28.713,7.707
			c-7.064,6.017-8.997,16.49-10.684,25.006c-5.518,27.94-0.351,69.523,26.042,86.15c16.378,10.311,31.526-6.811,39.117-22.359
			C4636.696-88.975,4633.392-133.777,4625.872-147.937z"/>
	</g>
	<g transform="matrix(1.06325,0,0,0.750845,-3246.19,1805.47)">
		
			<path style="fill-rule:evenodd;clip-rule:evenodd;fill:#FFFFFF;stroke:#010101;stroke-width:22.4666;stroke-linecap:round;stroke-linejoin:round;stroke-miterlimit:1.5;" d="
			M4625.872-147.937c-1.266-2.39-10.017-18.975-21.438-24.208c-9.63-4.404-21.508,1.557-28.713,7.707
			c-7.064,6.017-8.997,16.49-10.684,25.006c-5.518,27.94-0.351,69.523,26.042,86.15c16.378,10.311,31.526-6.811,39.117-22.359
			C4636.696-88.975,4633.392-133.777,4625.872-147.937z"/>
	</g>
	<g transform="matrix(1.36481,0,0,1.36481,-4298.07,1245.33)">
		
			<path style="fill-rule:evenodd;clip-rule:evenodd;fill:#FFFFFF;stroke:#010101;stroke-width:14.5816;stroke-linecap:round;stroke-linejoin:round;stroke-miterlimit:1.4443;" d="
			M5144.206-375.268c28.889,77.192-78.865,115.282-134.604,123.175c-19.646,2.783-39.327,2.787-57.321,12.533
			c-22.915,12.389-51.698,32.685-77.634,37.412c-22.106,4.031-42.42,1.641-64.948,8.34c-26.253,7.82-46.11,29.107-73.242,36.79
			c-21.192,6.003-41.857,0.218-63.12,2.833c-32.404,3.989-61.503,19.449-93.451,24.651c-28.818,4.692-56.478-4.762-85.085-1.258
			c-29.135,3.571-58.165,19.758-87.545,19.839c-19.014,0.049-38.238-10.543-57.462-7.212c-15.921,2.762-30.752,10.789-47.164,11.12
			c-20.208,0.408-40.171-5.915-60.589-3.262c-26.535,3.451-52.331,13.422-79.428,14.736c-22.703,1.1-45.266-5.985-67.9-6.453
			c-51.452-1.065-105.083,3.177-156.183-3.915c-19.4-2.696-37.323-2.829-55.423-11.38c-1.652-0.784-14.128-5.215-13.882-7.458
			c0.632-5.95,15.71-4.284,18.521-4.07c16.026,1.237,32.122,3.543,48.254,2.98c37.183-1.297,74.261-12.596,110.847-18.458
			c37.499-6.01,75.772-6.495,113.131-12.195c24.637-3.764,49.73-0.879,74.577-2.688c57.708-4.214,116.435-12.993,173.545-22.306
			c116.119-18.939,230.093-48.145,343.399-79.36c35.391-9.749,69.587-23.659,105.153-32.818
			c57.427-14.789,116.365-27.933,174.634-39.049C5055.29-337.326,5124.419-359,5144.206-375.268z"/>
	</g>
	<g transform="matrix(1.36481,0,0,1.36481,-4298.07,1245.33)">
		
			<path style="fill-rule:evenodd;clip-rule:evenodd;fill:#FFFFFF;stroke:#010101;stroke-width:14.5816;stroke-linecap:round;stroke-linejoin:round;stroke-miterlimit:1.4443;" d="
			M3609.435-354.178c-26.781,24.809-65.194,57.353-71.414,95.91c-11.035,68.465,68.708,136.92,126.31,153.512
			c48.922,14.093,140.614,8.582,194.28,8.561c328.428-0.144,710.838-53.758,1018.601-171.485
			c58.375-22.331,117.172-29.838,179.203-29.894c26.885-0.024,65.369-1.121,84.453-24.004
			c54.72-65.478-10.017-131.449-58.902-170.006c-104.345-82.263-221.342-153.649-354.717-174.223
			c-151.438-23.354-310.644-50-463.594-24.889C4050.607-655.72,3770.538-503.42,3609.435-354.178z"/>
	</g>
	<g transform="matrix(1.36481,0,0,1.36481,-4298.07,1245.33)">
		
			<path style="fill-rule:evenodd;clip-rule:evenodd;fill:#FFFFFF;stroke:#010101;stroke-width:14.5816;stroke-linecap:round;stroke-linejoin:round;stroke-miterlimit:1.4443;" d="
			M3766.321-419.786c-7.45,13-15.007,29.367-21.333,42.571c-5.131,10.656-2.74,28.221-0.175,39.278
			c3.479,14.898,17.326,19.818,30.646,22.591c31.595,6.583,72.714-12.195,88.494-41.531c8.119-15.133,12.301-43.917,2.109-59.451
			c-10.228-15.587-33.387-11.464-47.165-19.266c-5.272-2.98-13.25-10.445-19.927-8.361
			C3792.961-442.089,3773.103-431.598,3766.321-419.786z"/>
	</g>
	<g transform="matrix(0.906028,0,0,0.906028,-2713.65,1605.44)">
		
			<path style="fill-rule:evenodd;clip-rule:evenodd;fill:#FFFFFF;stroke:#010101;stroke-width:14.5837;stroke-linecap:round;stroke-linejoin:round;stroke-miterlimit:10;" d="
			M4161.527-892.089c-7.451,13-15.007,29.367-21.333,42.571c-5.131,10.656-2.74,28.221-0.175,39.278
			c3.479,14.898,17.326,19.818,30.646,22.591c31.595,6.583,72.714-12.195,88.494-41.531c8.119-15.133,12.301-43.917,2.109-59.451
			c-10.228-15.587-33.387-11.464-47.165-19.266c-5.272-2.98-13.25-10.445-19.927-8.361
			C4188.167-914.392,4168.31-903.901,4161.527-892.089z"/>
	</g>
	<g transform="matrix(1.36481,0,0,1.36481,-4298.07,1245.33)">
		
			<path style="fill-rule:evenodd;clip-rule:evenodd;fill:#FFFFFF;stroke:#010101;stroke-width:14.5816;stroke-linecap:round;stroke-linejoin:round;stroke-miterlimit:1.4443;" d="
			M3947.386-471.804c1.792,2.812,4.745,4.463,6.186,7.331c3.058,6.217,5.025,12.895,8.856,18.736
			c3.655,5.595,8.47,15.808,14.62,19.161c7.416,4.077,19.505,2.576,27.8,4.123c6.818,1.272,13.917-0.309,20.665,1.149
			c4.886,1.058,9.103,3.56,14.304,3.001c7.556-0.819,14.444-6.558,20.841-10.276c5.624-3.282,12.09-4.031,17.713-7.458
			c7.556-4.611,12.827-10.776,18.942-16.979c9.63-9.781,26.71-22.482,24.286-38.694c-1.511-9.985-12.652-20.219-15.885-30.137
			c-6.748-20.95-1.441-50.549-28.503-57.3c-3.9-0.977-8.927-1.451-12.792-0.042c-15.394,5.602-10.825,31.771-29.065,34.505
			c-21.087,3.163-15.675-30.457-39.468-20.296c-7.767,3.321-11.492,10.512-17.502,15.878
			C3963.624-535.947,3930.482-498.057,3947.386-471.804z"/>
	</g>
	<g transform="matrix(1.09118,0,0,1.09118,-3074.96,1388.48)">
		
			<path style="fill-rule:evenodd;clip-rule:evenodd;fill:#FFFFFF;stroke:#010101;stroke-width:14.5727;stroke-linecap:round;stroke-linejoin:round;stroke-miterlimit:1.1547;" d="
			M4783.989-870.76c1.792,2.811,4.745,4.463,6.186,7.331c3.058,6.217,5.026,12.895,8.857,18.736
			c3.655,5.595,8.469,15.808,14.62,19.161c7.416,4.077,19.506,2.576,27.8,4.123c6.818,1.272,13.917-0.309,20.665,1.149
			c4.886,1.058,9.103,3.56,14.304,3.001c7.556-0.819,14.444-6.558,20.841-10.276c5.623-3.282,12.089-4.031,17.713-7.458
			c7.556-4.611,12.828-10.776,18.942-16.979c9.63-9.781,26.71-22.482,24.286-38.694c-1.511-9.985-12.652-20.219-15.885-30.137
			c-6.748-20.95-1.441-50.549-28.503-57.3c-3.9-0.977-8.927-1.451-12.792-0.042c-15.394,5.602-10.825,31.771-29.064,34.505
			c-21.087,3.163-15.674-30.456-39.468-20.296c-7.767,3.321-11.492,10.512-17.502,15.878
			C4800.227-934.903,4767.084-897.013,4783.989-870.76z"/>
	</g>
	<g transform="matrix(0.724883,0,0,0.724883,-1911.5,1730.63)">
		
			<path style="fill-rule:evenodd;clip-rule:evenodd;fill:#FFFFFF;stroke:#010101;stroke-width:14.5977;stroke-linecap:round;stroke-linejoin:round;stroke-miterlimit:10;" d="
			M5248.84-1354.172c1.792,2.812,4.745,4.463,6.186,7.331c3.058,6.217,5.025,12.895,8.856,18.736
			c3.655,5.595,8.47,15.808,14.62,19.161c7.416,4.077,19.506,2.576,27.8,4.123c6.818,1.272,13.917-0.309,20.665,1.149
			c4.886,1.058,9.103,3.56,14.304,3.001c7.556-0.819,14.444-6.558,20.841-10.276c5.624-3.282,12.089-4.031,17.713-7.458
			c7.556-4.611,12.828-10.776,18.943-16.979c9.629-9.781,26.71-22.482,24.285-38.694c-1.511-9.985-12.652-20.219-15.885-30.137
			c-6.748-20.95-1.44-50.549-28.503-57.3c-3.9-0.977-8.927-1.451-12.792-0.042c-15.394,5.602-10.825,31.771-29.065,34.505
			c-21.087,3.163-15.674-30.457-39.467-20.296c-7.767,3.321-11.493,10.512-17.502,15.878
			C5265.078-1418.314,5231.936-1380.425,5248.84-1354.172z"/>
	</g>
	<g transform="matrix(1.36481,0,0,1.36481,-4298.07,1245.33)">
		
			<path style="fill-rule:evenodd;clip-rule:evenodd;fill:#FFFFFF;stroke:#010101;stroke-width:14.5816;stroke-linecap:round;stroke-linejoin:round;stroke-miterlimit:1.4443;" d="
			M4233.395-350.319c23.054-10.315,53.631-9.714,72.714-29.321c6.326-6.526,1.054-18.651,0.105-26.306
			c-0.563-4.358,1.967-11.285-1.336-14.919c-5.693-6.294-12.757-8.431-20.208-11.949c-12.477-5.922-26.007-21.354-40.557-21.713
			c-13.601-0.33-23.582,16.926-35.742,21.941c-7.908,3.272-16.167,3.799-24.25,6.182c-5.729,1.687-11.422,5.444-17.362,6.048
			c-17.326,1.764-31.313-5.571-45.828,7.373c-6.396,5.718-5.624,12.547-9.384,19.551c-7.485,13.938-19.786,20.932-7.556,37.267
			c1.652,2.168,3.338,4.709,5.658,6.287c9.208,6.298,24.742,7.271,35.391,7.795C4167.146-340.992,4211.394-350.537,4233.395-350.319
			z"/>
	</g>
	<g transform="matrix(1.36481,0,0,1.36481,-4298.07,1245.33)">
		
			<path style="fill-rule:evenodd;clip-rule:evenodd;fill:#FFFFFF;stroke:#010101;stroke-width:14.5816;stroke-linecap:round;stroke-linejoin:round;stroke-miterlimit:1.4443;" d="
			M4181.872-735.79c-0.176,0.373,0.282,0.488-0.105,1.462c-1.02,2.857-2.249,5.651-3.515,8.406
			c-4.708,10.129-5.271,10.786-11.141,20.187c-10.543,16.894-17.502,34.428-13.882,54.893c0.984,5.605-0.211,14.191,4.252,18.553
			c13.882,13.555,37.499,9.043,54.158,7.651c39.187-3.279,74.647-4.695,97.703-41.221c2.46-3.894,2.988-8.744,4.323-13.049
			c1.055-3.381,3.199-6.783,3.726-10.322c2.495-16.729-24.531-33.528-34.161-43.667c-9.665-10.213-9.279-28.218-22.809-36.115
			c-9.559-5.592-16.975,8.245-24.321,2.748c-11-8.266-23.688-26.65-38.764-14.353c-8.154,6.639-3.866,17.527-7.557,25.793
			C4188.621-752.199,4183.067-738.436,4181.872-735.79z"/>
	</g>
	<g transform="matrix(1.36481,0,0,1.36481,-4298.07,1245.33)">
		
			<path style="fill-rule:evenodd;clip-rule:evenodd;fill:#FFFFFF;stroke:#010101;stroke-width:14.5816;stroke-linecap:round;stroke-linejoin:round;stroke-miterlimit:1.4443;" d="
			M4359.951-600.961c-8.189,8.575-18.662,17.948-24.074,28.696c-8.787,17.418,17.326,36.589,32.755,38.758
			c11.808,1.655,22.563-3.346,33.598-6.642c22.212-6.628,42.631-10.421,63.05-22.517c8.505-5.05,19.751-12.596,22.141-23.059
			c3.479-15.376-22.176-23.744-29.697-35.598c-8.504-13.404-10.508-32.688-26.815-39.78c-10.368-4.513-13.496,16.74-21.965,19.421
			c-11.844,3.736-15.394-7.953-24.11-8.15C4372.919-650.107,4369.334-610.784,4359.951-600.961z"/>
	</g>
	<g transform="matrix(1.36481,0,0,1.36481,-4298.07,1245.33)">
		
			<path style="fill-rule:evenodd;clip-rule:evenodd;fill:#FFFFFF;stroke:#010101;stroke-width:14.5816;stroke-linecap:round;stroke-linejoin:round;stroke-miterlimit:1.4443;" d="
			M4533.25-523.038c-5.096,1.525-7.31,7.802-9.63,12.009c-4.955,9.018-13.074,18.096-2.636,25.715
			c1.792,1.311,4.252,2.854,6.396,3.817c6.923,3.11,14.023,1.799,21.333,2.688c5.167,0.626,9.137,2.685,14.023-0.418
			c4.428-2.819,11.07-13.837,16.307-14.107c6.608-0.348,11.176,7.17,17.749,7.282c11.211,0.19,24.039-3.005,34.407-6.945
			c8.364-3.184,28.256-11.197,30.153-21.403c1.477-8.01-4.814-15.573-10.297-20.352c-7.943-6.885-16.307-13.647-23.23-21.568
			c-6.889-7.925-7.099-21.421-16.026-27.448c-8.575-5.792-19.189,12.132-27.237,13.728c-10.087,2.007-10.192-12.385-17.784-13.278
			c-4.604-0.545-8.575,4.014-11.352,6.997c-3.303,3.511-8.434,7.795-10.473,12.209
			C4541.755-557.16,4539.681-524.957,4533.25-523.038z"/>
	</g>
	<g transform="matrix(0.906665,0,0,0.906665,-2724.02,1635.54)">
		
			<path style="fill-rule:evenodd;clip-rule:evenodd;fill:#FFFFFF;stroke:#010101;stroke-width:14.5939;stroke-linecap:round;stroke-linejoin:round;stroke-miterlimit:10;" d="
			M4904.972-909.49c-5.096,1.525-7.31,7.802-9.629,12.009c-4.955,9.018-13.074,18.096-2.636,25.715
			c1.792,1.311,4.252,2.854,6.397,3.817c6.923,3.11,14.022,1.799,21.333,2.688c5.166,0.626,9.137,2.685,14.022-0.418
			c4.428-2.819,11.07-13.837,16.307-14.107c6.607-0.348,11.176,7.17,17.748,7.282c11.211,0.19,24.04-3.005,34.407-6.945
			c8.364-3.184,28.257-11.197,30.154-21.403c1.477-8.01-4.814-15.573-10.297-20.352c-7.942-6.885-16.307-13.647-23.23-21.568
			c-6.889-7.925-7.1-21.421-16.026-27.448c-8.575-5.792-19.189,12.132-27.237,13.728c-10.087,2.007-10.192-12.385-17.783-13.278
			c-4.604-0.545-8.575,4.014-11.352,6.997c-3.304,3.511-8.435,7.795-10.473,12.209
			C4913.478-943.612,4911.404-911.408,4904.972-909.49z"/>
	</g>
</g>
</svg>
