<?xml version="1.0" encoding="utf-8"?>
<!-- Generator: Adobe Illustrator 27.5.0, SVG Export Plug-In . SVG Version: 6.00 Build 0)  -->
<svg version="1.1" xmlns="http://www.w3.org/2000/svg" xmlns:xlink="http://www.w3.org/1999/xlink" x="0px" y="0px"
	 viewBox="0 0 500 500" style="enable-background:new 0 0 500 500;" xml:space="preserve">
<g id="BACKGROUND">
	<rect style="fill:#FFFFFF;" width="500" height="500"/>
</g>
<g id="OBJECTS">
	<g>
		<defs>
			<rect id="SVGID_1_" width="500" height="500"/>
		</defs>
		<clipPath id="SVGID_00000090295168664899442920000014120283594039743127_">
			<use xlink:href="#SVGID_1_"  style="overflow:visible;"/>
		</clipPath>
		<g style="clip-path:url(#SVGID_00000090295168664899442920000014120283594039743127_);">
			<g>
				<g>
					<path style="fill:#FFFFFF;stroke:#000000;stroke-linecap:round;stroke-linejoin:round;stroke-miterlimit:10;" d="M44.473,7.756
						c0.356,16.201,10.27,31.837,24.772,39.069c7.462-10.014,8.897-24.186,3.595-35.493c7.338,9.927,19.654,15.971,31.996,15.701
						c-0.823-6.32-1.647-12.639-2.47-18.959c6.408,5.111,15.919,5.947,23.119,2.03c-5.146,10.99-6.307,23.794-3.224,35.531
						c14.822-2.493,25.748-18.805,22.414-33.46c9.566,3.634,20.054,4.81,30.187,3.386c0.741-7.711-1.667-15.679-6.555-21.689
						c10.725,2.951,22.377,2.431,32.796-1.464c-3.471,10.165-4.463,21.167-2.866,31.79c9.88-0.675,19.218-6.776,23.806-15.552
						c3.666,7.646,10.19,13.879,17.995,17.194c5.507-8.463,7.606-19.077,5.737-28.999c8.313,7.939,19.211,13.126,30.615,14.571
						c0.816-7.347,1.633-14.695,2.449-22.042c-77.673-2.228-155.345-4.457-233.018-6.685C44.45-8.342,44.313,0.499,44.473,7.756z"/>
					<path style="fill:#FFFFFF;stroke:#000000;stroke-linecap:round;stroke-linejoin:round;stroke-miterlimit:10;" d="
						M318.379-11.87c-11.622,2.043-22.265,9.137-28.623,19.078c7.883,1.58,16.153,1.19,23.853-1.125
						c-2.139,7.334-2.073,15.296,0.188,22.594c8.274-3.165,15.368-9.316,19.673-17.058c3.201,5.225,8.827,8.894,16.171,10.83
						c1.164,7.275,5.847,13.903,12.315,17.431c6.901-7.152,8.99-18.541,5.075-27.676c10.177,10.874,23.73,9.181,23.73,9.181
						s3.204-8.911,0.748-13.72c4.605,2.824,10.027,4.3,16.097,5.317c-1.88,6.432-1.133,13.59,2.033,19.496
						c7.617-2.484,13.646-9.312,15.168-17.177c1.922,8.931,9.614,16.332,18.612,17.909c2.637-14.139,4.436-28.434,5.385-42.786
						C407.296-11.489,365.716-11.805,318.379-11.87z"/>
				</g>
				<g>
					<g>
						<path style="fill:#FFFFFF;stroke:#000000;stroke-linecap:round;stroke-linejoin:round;stroke-miterlimit:10;" d="
							M403.487,209.335c6.693-14.156,7.837-30.847,3.138-45.784c-10.812,6.25-19.278,16.351-23.823,27.966
							c-8.901-9.983-19.3-16.447-30.724-19.357c-0.151,15.492,5.949,30.326,11.953,44.693c-4.288-6.996-10.184-13.068-17.138-17.651
							c-7.264,1.842-12.712,6.944-15.401,13.203c-2.689,6.259-2.581,13.587,0.292,19.769c-4.281-7.289-11.922-14.902-21.277-18.961
							c-6.733,7.906-9.995,18.481-8.84,28.655c-4.083-8.752-14.004-14.632-23.935-14.184c4.028-9.884,5.673-20.523,3.891-30.626
							c-15.472-0.114-30.354,9.645-35.416,23.389c-1.333-11.094-9.387-20.131-19.578-22.832c-9.738,7.852-13.595,21.975-8.64,33.054
							c-8.188-5.832-20.486-9.294-31.786-7.128c3.012-5.928,6.469-12.812,7.277-19.999c-11.983-1.679-24.66,2.024-33.669,9.836
							c-3.379-13.135-12.378-26.246-25.16-33.34c-9.105,12.502-11.528,29.3-6.306,43.728c-5.851-4.188-13.824-5.395-20.756-3.285
							c4.349-1.762,8.105-4.885,10.509-8.807c-9.557-6.634-23.545-6.563-33.029,0.168c5.908-7.929,9.627-17.365,10.671-27.08
							c-18.992,1.257-36.245,15.642-40.046,34.708c12.634,39.044,23.349,78.668,33.036,115.607
							c85.283,0.927,170.558,2.586,255.811,4.973c-2.846,12.78-5.136,25.704-6.479,38.808c21.26-0.295,42.536,0.63,63.69,2.769
							c2.864-57.55,12.016-114.785,27.242-170.359C420.185,205.64,410.648,205.209,403.487,209.335z"/>
					</g>
					<g>
						<path style="fill:#FFFFFF;stroke:#000000;stroke-linecap:round;stroke-linejoin:round;stroke-miterlimit:10;" d="
							M384.191,343.244c2.662-13.826-1.318-28.78-10.501-39.454c-9.182-10.674-23.374-16.843-37.442-16.277
							C337.635,312.643,354.659,336.245,384.191,343.244z"/>
						<path style="fill:none;stroke:#000000;stroke-linecap:round;stroke-linejoin:round;stroke-miterlimit:10;" d="
							M342.993,293.891c17.011,15.525,38.13,42.211,50.695,64.459"/>
						<path style="fill:none;stroke:#000000;stroke-linecap:round;stroke-linejoin:round;stroke-miterlimit:10;" d="
							M343.339,305.037c3.6,0.126,7.201,0.253,10.965,0.201c-0.009-3.537-0.199-7.073-0.57-10.59"/>
						<path style="fill:none;stroke:#000000;stroke-linecap:round;stroke-linejoin:round;stroke-miterlimit:10;" d="M351.25,316.254
							c5.165,0.884,10.284,2.041,15.946,3.077c0.877-4.898,1.322-9.873,1.327-14.849"/>
						<path style="fill:none;stroke:#000000;stroke-linecap:round;stroke-linejoin:round;stroke-miterlimit:10;" d="
							M364.981,330.537c4.173,1.285,8.346,2.569,12.901,3.472c0.802-3.619,1.113-7.347,0.923-11.049"/>
					</g>
					<g>
						<path style="fill:#FFFFFF;stroke:#000000;stroke-linecap:round;stroke-linejoin:round;stroke-miterlimit:10;" d="
							M395.323,319.13c8.878-10.928,12.435-25.988,9.385-39.734c-3.05-13.746-12.643-25.888-25.31-32.036
							C368.748,270.165,372.602,299.01,395.323,319.13z"/>
						<path style="fill:none;stroke:#000000;stroke-linecap:round;stroke-linejoin:round;stroke-miterlimit:10;" d="M382.33,256.169
							c7.658,21.72,13.664,55.217,14.226,80.763"/>
						<path style="fill:none;stroke:#000000;stroke-linecap:round;stroke-linejoin:round;stroke-miterlimit:10;" d="
							M377.369,266.156c3.114,1.812,6.227,3.625,9.57,5.358c1.663-3.121,3.166-6.328,4.501-9.604"/>
						<path style="fill:none;stroke:#000000;stroke-linecap:round;stroke-linejoin:round;stroke-miterlimit:10;" d="
							M379.042,279.779c4.135,3.22,8.1,6.657,12.6,10.246c3.087-3.902,5.83-8.077,8.185-12.461"/>
						<path style="fill:none;stroke:#000000;stroke-linecap:round;stroke-linejoin:round;stroke-miterlimit:10;" d="
							M384.396,298.855c3.071,3.104,6.142,6.207,9.73,9.155c2.417-2.811,4.453-5.949,6.034-9.303"/>
					</g>
					<g>
						<path style="fill:#FFFFFF;stroke:#000000;stroke-linecap:round;stroke-linejoin:round;stroke-miterlimit:10;" d="
							M126.694,347.78c4.281-13.667,9.083-27.614,18.424-38.469c9.342-10.856,24.333-18.033,38.138-14.218
							c-1.25,13.854-7.811,27.162-18.04,36.589C154.988,341.108,141.19,346.564,126.694,347.78z"/>
						<path style="fill:none;stroke:#000000;stroke-linecap:round;stroke-linejoin:round;stroke-miterlimit:10;" d="
							M172.182,303.672c-26.172,22.189-51.245,48.412-69.552,75.369"/>
						<path style="fill:none;stroke:#000000;stroke-linecap:round;stroke-linejoin:round;stroke-miterlimit:10;" d="M166.89,299.2
							c-1.904,4.215-3.474,8.581-4.547,13.324c4.555-0.852,9.194-1.257,13.827-1.207"/>
						<path style="fill:none;stroke:#000000;stroke-linecap:round;stroke-linejoin:round;stroke-miterlimit:10;" d="M150.77,307.854
							c-2.052,5.907-3.309,12.091-3.667,18.908c6.24-0.252,12.48-0.503,18.721-0.755"/>
						<path style="fill:none;stroke:#000000;stroke-linecap:round;stroke-linejoin:round;stroke-miterlimit:10;" d="
							M137.052,326.262c-0.802,3.807-1.227,7.694-1.206,11.976c4.236-0.159,8.471-0.319,12.706-0.478"/>
					</g>
					<g>
						<path style="fill:#FFFFFF;stroke:#000000;stroke-linecap:round;stroke-linejoin:round;stroke-miterlimit:10;" d="
							M114.003,343.131c-7.453-14.393-8.413-31.997-2.568-47.115c5.845-15.117,18.398-27.498,33.595-33.133
							C149.716,290.221,140.278,319.596,114.003,343.131z"/>
						<path style="fill:none;stroke:#000000;stroke-linecap:round;stroke-linejoin:round;stroke-miterlimit:10;" d="
							M132.853,281.803c-13.665,29.662-21.723,61.895-23.623,94.498"/>
						<path style="fill:none;stroke:#000000;stroke-linecap:round;stroke-linejoin:round;stroke-miterlimit:10;" d="
							M125.601,280.594c0.2,4.165,1.141,8.294,2.744,12.376c4.27-1.748,8.37-3.913,12.222-6.454"/>
						<path style="fill:none;stroke:#000000;stroke-linecap:round;stroke-linejoin:round;stroke-miterlimit:10;" d="
							M115.338,295.605c1.2,5.771,3.084,11.399,5.728,17.057c5.658-2.702,11.071-5.917,16.151-9.593"/>
						<path style="fill:none;stroke:#000000;stroke-linecap:round;stroke-linejoin:round;stroke-miterlimit:10;" d="
							M110.836,320.506c1.356,3.109,3.024,6.081,5.254,9.302c3.235-1.734,6.469-3.468,9.704-5.201"/>
					</g>
				</g>
				<g>
					<g>
						<path style="fill:#FFFFFF;stroke:#000000;stroke-linecap:round;stroke-linejoin:round;stroke-miterlimit:10;" d="
							M119.039,91.503c-1.71,7.816,1.422,16.435,7.95,21.88c6.528,5.445,16.215,7.52,24.594,5.267
							c-5.48-3.408-5.353-10.614-7.785-16.224C140.171,94.059,129.175,88.91,119.039,91.503z"/>
						<path style="fill:none;stroke:#000000;stroke-linecap:round;stroke-linejoin:round;stroke-miterlimit:10;" d="
							M140.775,111.766c-12.436-7.088-22.029-19.015-26.285-32.681"/>
					</g>
					<g>
						<path style="fill:#FFFFFF;stroke:#000000;stroke-linecap:round;stroke-linejoin:round;stroke-miterlimit:10;" d="
							M372.458,92.57c7.067,5.249,17.4,5.88,25.082,1.53c7.681-4.349,12.252-13.42,10.572-20.94
							c-4.06-3.546-10.691-2.392-15.057,0.788c-4.365,3.181-7.224,7.896-10.718,11.976C378.843,90.005,374.08,93.717,372.458,92.57z
							"/>
						<path style="fill:none;stroke:#000000;stroke-linecap:round;stroke-linejoin:round;stroke-miterlimit:10;" d="M390.539,87.345
							c9.959-4.925,18.176-13.292,22.919-23.339"/>
					</g>
					<g>
						<path style="fill:#FFFFFF;stroke:#000000;stroke-linecap:round;stroke-linejoin:round;stroke-miterlimit:10;" d="
							M332.102,162.694c-7.992-1.031-16.397,3.619-19.686,10.889c-1.372,3.032-1.899,6.361-2.934,9.521
							c-1.034,3.16-2.741,6.324-5.668,7.954c8.747,2.331,18.739,1.439,25.898-4.047C336.87,181.526,340.178,170.943,332.102,162.694
							z"/>
						<path style="fill:none;stroke:#000000;stroke-linecap:round;stroke-linejoin:round;stroke-miterlimit:10;" d="
							M314.063,186.572c11.365-6.658,18.912-19.399,19.291-32.565"/>
					</g>
				</g>
			</g>
			<g>
				<g>
					
						<path style="fill:#FFFFFF;stroke:#000000;stroke-width:2;stroke-linecap:round;stroke-linejoin:round;stroke-miterlimit:10;" d="
						M250.611,376.667c-17.69-28.451-81.971-43.835-140.455-63.46c-29.19-93.853-46.222-214.181-53.95-318.79
						C32.283-7.237,8.36-8.889-15.562-10.542c-2.47,140.745-4.941,281.491-7.411,422.237
						C70.195,409.123,163.244,401.541,250.611,376.667z"/>
					<g>
						<path style="fill:none;stroke:#000000;stroke-linecap:round;stroke-linejoin:round;stroke-miterlimit:10;" d="
							M109.756,313.331c-9.822,2.421-18.911,8.178-25.646,16.246c-6.736,8.068-11.088,18.409-12.28,29.181"/>
						<path style="fill:none;stroke:#000000;stroke-linecap:round;stroke-linejoin:round;stroke-miterlimit:10;" d="M74.472,331.16
							c-9.801,12.531-15.308,28.871-15.249,45.253"/>
						<path style="fill:none;stroke:#000000;stroke-linecap:round;stroke-linejoin:round;stroke-miterlimit:10;" d="M35.533-28.98
							c-3.59,47.94,7.603,97.029,31.404,137.73"/>
						<path style="fill:none;stroke:#000000;stroke-linecap:round;stroke-linejoin:round;stroke-miterlimit:10;" d="M20.245-35.305
							C12.194-4.17,21.525,28.97,33.14,58.772c11.614,29.802,25.811,59.419,27.91,91.659c1.845,28.339-5.876,56.368-15.149,82.965
							c-9.273,26.597-20.243,52.742-25.363,80.61c-5.121,27.869-3.79,58.402,10.256,82.452"/>
						<path style="fill:none;stroke:#000000;stroke-linecap:round;stroke-linejoin:round;stroke-miterlimit:10;" d="M50.52,389.293
							c-4.267-18.447-8.554-37.023-9.589-56c-1.035-18.978,1.365-38.592,9.793-55.297c8.428-16.705,23.48-30.125,40.95-32.892"/>
						<path style="fill:none;stroke:#000000;stroke-linecap:round;stroke-linejoin:round;stroke-miterlimit:10;" d="M-9.128-19.839
							c-3.974,21.097,1.728,42.978,9.9,62.624c8.171,19.647,18.848,38.091,25.686,58.319c10.248,30.316,11.362,64.123,3.135,95.144
							c-1.661,6.264-4.538,13.294-10.41,14.865c-4.332,1.158-8.944-1.276-11.898-4.878c-2.954-3.602-4.585-8.209-6.156-12.707
							c-11.062-31.665-22.123-63.331-33.185-94.996"/>
						<path style="fill:none;stroke:#000000;stroke-linecap:round;stroke-linejoin:round;stroke-miterlimit:10;" d="
							M-29.308,175.415c18.832,25.606,36.689,55.383,35.136,88.001c-2.079,43.692-38.522,80.135-36.66,123.839"/>
						<path style="fill:none;stroke:#000000;stroke-linecap:round;stroke-linejoin:round;stroke-miterlimit:10;" d="M95.336,319.303
							c6.988,13.521,21.779,20.633,36.12,21.646s28.519-3.107,42.382-7.19"/>
						<path style="fill:none;stroke:#000000;stroke-linecap:round;stroke-linejoin:round;stroke-miterlimit:10;" d="M75.397,345.038
							c9.609,10.941,24.491,14.416,38.471,14.833c13.981,0.417,28.078-1.649,41.903,0.631c13.825,2.28,28.023,10.125,33.268,24.084"
							/>
					</g>
				</g>
				<g>
					<g>
						
							<path style="fill:#FFFFFF;stroke:#000000;stroke-width:2;stroke-linecap:round;stroke-linejoin:round;stroke-miterlimit:10;" d="
							M58.997,394.443c4.961-20.865,21.917-38.424,42.597-44.109c5.216-1.434,12.112-1.458,14.555,3.368
							c1.63,3.219,0.302,7.285-2.141,9.94c-2.444,2.654-5.795,4.246-8.986,5.929c-12.103,6.382-23.051,14.948-32.158,25.16
							C67.532,394.448,62.202,394.165,58.997,394.443z"/>
						<path style="fill:none;stroke:#000000;stroke-linecap:round;stroke-linejoin:round;stroke-miterlimit:10;" d="
							M101.536,359.169c-14.881,8.603-27.417,21.219-35.925,36.155"/>
					</g>
					<g>
						
							<path style="fill:#FFFFFF;stroke:#000000;stroke-width:2;stroke-linecap:round;stroke-linejoin:round;stroke-miterlimit:10;" d="
							M51.028,390.814c1.122-27.613,2.499-56.232,15.137-80.809c3.151-6.128,8.997-12.76,15.615-10.838
							c4.851,1.409,7.345,7.124,6.903,12.157c-0.443,5.033-3.066,9.567-5.445,14.024c-11.229,21.037-18.228,44.32-20.46,68.062
							C59.501,393.205,56.225,393,51.028,390.814z"/>
						<path style="fill:none;stroke:#000000;stroke-linecap:round;stroke-linejoin:round;stroke-miterlimit:10;" d="M73.219,318.295
							c-10.075,23.314-15.365,48.682-15.449,74.08"/>
					</g>
					<g>
						
							<path style="fill:#FFFFFF;stroke:#000000;stroke-width:2;stroke-linecap:round;stroke-linejoin:round;stroke-miterlimit:10;" d="
							M24.536,390.241c-3.756-8.614-10.302-15.985-18.413-20.732c-3.008-1.76-6.28-3.213-8.714-5.707
							c-2.434-2.494-3.827-6.455-2.16-9.515c1.133-2.082,3.467-3.31,5.818-3.612s4.731,0.204,7.001,0.888
							c16.349,4.926,29.182,19.945,31.498,36.862C34.921,388.749,30.276,389.074,24.536,390.241z"/>
						<path style="fill:none;stroke:#000000;stroke-linecap:round;stroke-linejoin:round;stroke-miterlimit:10;" d="M8.412,360.454
							c10.693,6.428,19.02,16.701,23.094,28.494"/>
					</g>
					<g>
						
							<path style="fill:#FFFFFF;stroke:#000000;stroke-width:2;stroke-linecap:round;stroke-linejoin:round;stroke-miterlimit:10;" d="
							M38.572,395.03c-0.941-22.628-6.029-45.077-14.934-65.901c-1.95-4.561-4.122-9.221-4.139-14.181
							c-0.016-4.96,2.855-10.342,7.703-11.39c3.526-0.762,7.23,0.958,9.719,3.57c2.488,2.612,3.971,6.003,5.281,9.364
							c9.245,23.72,12.229,49.468,12.425,74.926C49.747,391.967,44.865,392.518,38.572,395.03z"/>
						<path style="fill:none;stroke:#000000;stroke-linecap:round;stroke-linejoin:round;stroke-miterlimit:10;" d="M34.446,326.922
							c9.532,20.117,13.884,42.663,12.523,64.882"/>
					</g>
				</g>
			</g>
			<g>
				<g>
					
						<path style="fill:#FFFFFF;stroke:#000000;stroke-width:2;stroke-linecap:round;stroke-linejoin:round;stroke-miterlimit:10;" d="
						M440.587-5.311c-4.128,110.603-22.23,220.602-52.926,323.837c-32.976,15.985-105.706,39.599-107.932,70.678
						c78.366,2.143,156.732,4.287,235.098,6.43c9.58-133.724,15.633-267.735,18.15-401.822
						C504.158-2.53,474.919-2.636,440.587-5.311z"/>
					<g>
						
							<path style="fill:#FFFFFF;stroke:#000000;stroke-width:2;stroke-linecap:round;stroke-linejoin:round;stroke-miterlimit:10;" d="
							M454.514,336.311c-10.9,1.473-21.21,7.45-28.299,16.406c-7.088,8.956-10.884,20.802-10.418,32.513"/>
						<path style="fill:none;stroke:#000000;stroke-linecap:round;stroke-linejoin:round;stroke-miterlimit:10;" d="
							M459.245,337.186c13.475-2.68,28.182,5.33,34.051,18.545"/>
						<path style="fill:none;stroke:#000000;stroke-linecap:round;stroke-linejoin:round;stroke-miterlimit:10;" d="
							M472.573,337.782c-9.146,3.263-14.932,13.119-23.704,17.396c-7.684,3.746-16.572,2.736-24.958,1.651"/>
						<path style="fill:none;stroke:#000000;stroke-linecap:round;stroke-linejoin:round;stroke-miterlimit:10;" d="
							M387.952,318.837c14.359-1.131,28.972,7.714,35.429,21.443"/>
						<path style="fill:none;stroke:#000000;stroke-linecap:round;stroke-linejoin:round;stroke-miterlimit:10;" d="
							M419.044,323.996c5.742,3.848,10.47,9.402,13.509,15.869"/>
						<path style="fill:none;stroke:#000000;stroke-linecap:round;stroke-linejoin:round;stroke-miterlimit:10;" d="
							M418.875,333.088c-18.22,3.425-35.328,14.478-45.569,30.217c-4.059,6.238-6.351,13.723-6.933,21.292"/>
						<path style="fill:none;stroke:#000000;stroke-linecap:round;stroke-linejoin:round;stroke-miterlimit:10;" d="
							M408.924,324.771c-12.786-1.415-24.566,6.912-34.819,15.184c-10.253,8.271-21.291,17.109-34.408,18.622
							c-7.198,0.83-14.711-1.771-19.92-7.135"/>
						<path style="fill:none;stroke:#000000;stroke-linecap:round;stroke-linejoin:round;stroke-miterlimit:10;" d="M465.027-13.16
							c-0.266,52.031-0.557,104.362-9.092,155.591c-8.535,51.229-25.818,101.796-56.758,142.017"/>
						<path style="fill:none;stroke:#000000;stroke-linecap:round;stroke-linejoin:round;stroke-miterlimit:10;" d="M439.402,38.274
							c9.367,42.87,3.756,89.274-15.503,128.204"/>
						<path style="fill:none;stroke:#000000;stroke-linecap:round;stroke-linejoin:round;stroke-miterlimit:10;" d="M480.397-16.366
							c6.767,51.492,6.658,104.007-0.326,155.466c-1.138,8.387-0.995,19.534,6.537,22.228c7.381,2.639,13.821-5.849,17.288-13.285
							c23.42-50.225,31.442-108.458,22.559-163.748"/>
						<path style="fill:none;stroke:#000000;stroke-linecap:round;stroke-linejoin:round;stroke-miterlimit:10;" d="M545.687,77.338
							c-3.258,34.738-18.145,68.106-41.362,92.708c-13.255,14.045-29.16,25.387-40.365,41.334
							c-12.086,17.199-17.846,38.7-19.65,60.109c-1.805,21.409,0.104,42.954,2.012,64.353"/>
						<path style="fill:none;stroke:#000000;stroke-linecap:round;stroke-linejoin:round;stroke-miterlimit:10;" d="
							M539.121,176.534c-28.562,17.7-48.856,49.837-53.502,84.725c-4.647,34.889,6.454,71.784,29.264,97.271"/>
					</g>
				</g>
				<g>
					<g>
						
							<path style="fill:#FFFFFF;stroke:#000000;stroke-width:2;stroke-linecap:round;stroke-linejoin:round;stroke-miterlimit:10;" d="
							M454.045,400.349c-2.279-11.892-7.767-22.892-15.463-30.994c-1.748-1.84-3.621-3.553-5.05-5.745
							c-1.429-2.192-2.388-4.998-1.96-7.721c0.46-2.924,2.49-5.276,4.842-6.318c2.352-1.042,4.974-0.926,7.426-0.286
							c8.232,2.148,14.795,9.927,18.557,18.858c3.762,8.932,5.116,18.983,6.165,28.886
							C463.48,398.249,458.398,399.468,454.045,400.349z"/>
						<path style="fill:none;stroke:#000000;stroke-linecap:round;stroke-linejoin:round;stroke-miterlimit:10;" d="M446.473,362.36
							c7.636,10.439,12.694,23.491,14.397,37.154"/>
					</g>
					<g>
						
							<path style="fill:#FFFFFF;stroke:#000000;stroke-width:2;stroke-linecap:round;stroke-linejoin:round;stroke-miterlimit:10;" d="
							M478.48,405.675c2.056-13.585,4.126-27.238,7.973-40.267c3.846-13.029,9.581-25.519,18.049-35.003
							c2.604-2.917,5.631-5.627,9.18-6.233c3.548-0.606,7.649,1.586,8.578,5.686c0.702,3.098-0.492,6.308-1.658,9.204
							c-8.8,21.867-17.6,43.733-26.4,65.6C489.095,404.58,483.988,404.498,478.48,405.675z"/>
						<path style="fill:none;stroke:#000000;stroke-linecap:round;stroke-linejoin:round;stroke-miterlimit:10;" d="M508.89,341.024
							c-10.749,19.809-18.272,42.063-22.035,65.184"/>
					</g>
					<g>
						
							<path style="fill:#FFFFFF;stroke:#000000;stroke-width:2;stroke-linecap:round;stroke-linejoin:round;stroke-miterlimit:10;" d="
							M466.403,404.797c1.845-25.559-0.429-51.526-6.665-76.093c-1.296-5.104-2.778-10.324-2.372-15.632
							c0.407-5.308,3.303-10.782,7.734-11.717c5.997-1.265,10.779,5.848,13.24,12.447c10.167,27.263,6.589,58.61,2.821,88.077
							C475.758,402.551,470.354,403.224,466.403,404.797z"/>
						<path style="fill:none;stroke:#000000;stroke-linecap:round;stroke-linejoin:round;stroke-miterlimit:10;" d="
							M472.471,329.998c3.216,24.683,3.468,49.904,0.746,74.67"/>
					</g>
				</g>
			</g>
			<g>
				
					<path style="fill:#FFFFFF;stroke:#000000;stroke-width:2;stroke-linecap:round;stroke-linejoin:round;stroke-miterlimit:10;" d="
					M-12.5,510.817V380.497c173.393-11.331,348.422-11.126,525,0v130.319H-12.5z"/>
				<g>
					
						<path style="fill:#FFFFFF;stroke:#000000;stroke-width:2;stroke-linecap:round;stroke-linejoin:round;stroke-miterlimit:10;" d="
						M124.576,384.227c-2.646-2.154-5.426-4.5-6.429-7.761c-1.003-3.261,0.751-7.582,4.146-7.927
						c2.932-0.298,5.265,2.29,7.058,4.629c-1.884-2.554-0.688-6.589,2.055-8.186c2.742-1.597,6.417-0.964,8.902,1.01
						c2.484,1.974,3.893,5.055,4.462,8.177c1.66-2.972,5.847-4.195,8.846-2.584c2.999,1.611,4.291,5.777,2.73,8.802"/>
					
						<path style="fill:#FFFFFF;stroke:#000000;stroke-width:2;stroke-linecap:round;stroke-linejoin:round;stroke-miterlimit:10;" d="
						M31.25,409.041c-1.944-1.011-3.95-2.073-5.298-3.8c-1.348-1.728-1.848-4.322-0.569-6.1c1.233-1.714,3.718-2.115,5.74-1.506
						c2.022,0.609,3.692,2.013,5.3,3.383c-1.123-1.961-2.267-3.983-2.575-6.221c-0.307-2.238,0.419-4.772,2.337-5.965
						c2.301-1.432,5.485-0.405,7.327,1.583c1.841,1.988,2.664,4.688,3.431,7.287c-0.646-2.123,1.785-4.27,3.973-3.897
						c2.188,0.372,3.731,2.506,4.132,4.689c0.4,2.183-0.098,4.419-0.594,6.583"/>
					
						<path style="fill:#FFFFFF;stroke:#000000;stroke-width:2;stroke-linecap:round;stroke-linejoin:round;stroke-miterlimit:10;" d="
						M429.098,404.058c-0.432-2.792-0.862-5.671-0.187-8.414c0.675-2.743,2.74-5.346,5.535-5.755
						c2.795-0.409,5.856,2.26,5.135,4.992c-0.547-3.223,1.913-6.594,5.117-7.238c3.205-0.644,6.677,1.368,7.893,4.402
						s0.196,6.762-2.268,8.911c1.049-3.044,6.073-2.841,7.688-0.055s0.378,6.495-1.89,8.78"/>
					
						<path style="fill:#FFFFFF;stroke:#000000;stroke-width:2;stroke-linecap:round;stroke-linejoin:round;stroke-miterlimit:10;" d="
						M228.164,475.201c1.225-4.737,2.649-9.422,4.267-14.039c0.799-2.28,2.226-4.964,4.641-4.906c1.691,0.04,3.048,1.571,3.463,3.21
						c0.416,1.639,0.107,3.365-0.204,5.027c0.937-2.471,2.805-4.697,5.314-5.53c2.508-0.833,5.628,0.035,6.939,2.329
						c1.311,2.295,0.12,5.772-2.452,6.381c2.184-1.604,5.569,0.317,6.22,2.948c0.651,2.631-0.638,5.363-2.283,7.517"/>
				</g>
			</g>
		</g>
	</g>
	<g>
		<path style="fill:#FFFFFF;stroke:#000000;stroke-width:2;stroke-linecap:round;stroke-linejoin:round;stroke-miterlimit:10;" d="
			M184.834,417.211c-2.637-3.691-5.942-6.904-9.707-9.435c-1.022-0.687-2.115-1.339-3.334-1.518
			c-1.219-0.179-2.596,0.216-3.265,1.25c-1.177,1.818,0.356,4.13,1.81,5.736c-2.86-1.84-6.152-3.004-9.533-3.372
			c-1.355-0.147-2.763-0.162-4.036,0.323c-1.273,0.485-2.392,1.557-2.609,2.903c-0.357,2.207,1.707,4.062,3.758,4.953
			s4.4,1.377,5.924,3.013c-1.88-0.536-3.842-1.077-5.765-0.725c-1.923,0.352-3.781,1.888-3.807,3.843
			c-0.06,4.402,7.417,6.064,10.247,8.028"/>
		<g>
			<g>
				<g>
					
						<path style="fill:#FFFFFF;stroke:#000000;stroke-width:2;stroke-linecap:round;stroke-linejoin:round;stroke-miterlimit:10;" d="
						M334.347,348.441c4.846-10.762,17.522-17.369,29.119-15.178c11.597,2.191,20.989,12.968,21.574,24.756
						c3.969-4.554,12.249-1.104,14.303,4.577c2.054,5.681-0.002,11.937-2.049,17.621c4.717,0.924,7.738,6.042,7.649,10.849
						c-0.089,4.806-2.598,9.24-5.532,13.049c-11.962,15.533-32.566,23.926-51.977,21.173
						C347.78,399.644,343.171,373.942,334.347,348.441z"/>
					
						<path style="fill:#FFFFFF;stroke:#000000;stroke-width:2;stroke-linecap:round;stroke-linejoin:round;stroke-miterlimit:10;" d="
						M272.762,261.916c0,0,38.317,21.517,57.197,55.155c16.603,29.581,35.747,76.971,28.759,97.443
						c-5.427,15.897-18.91,22.694-29.668,25.609c-10.759,2.915-53.828,3.779-71.581,1.5c-17.961-2.305-62.719-14.82-69.224-21.324
						c-6.505-6.504-27.984-33.524,7.287-68.795c0,0,5.04-27.907,4.571-29.664c-8.04-10.207-13.682-32-10.515-46.231"/>
					<g>
						
							<path style="fill:#FFFFFF;stroke:#000000;stroke-width:2;stroke-linecap:round;stroke-linejoin:round;stroke-miterlimit:10;" d="
							M257.121,321.85c-36.541,20.217-7.052,91.159,16.545,35.594c24.526-0.78,34.534-14.908,32.236-38.428"/>
						<path style="fill:none;stroke:#000000;stroke-width:2;stroke-linecap:round;stroke-linejoin:round;stroke-miterlimit:10;" d="
							M259.226,376.447c-1.917-4.756-1.628-10.35,0.77-14.882"/>
						<path style="fill:none;stroke:#000000;stroke-width:2;stroke-linecap:round;stroke-linejoin:round;stroke-miterlimit:10;" d="
							M248.697,376.076c-1.963-4.651-2.008-10.079-0.12-14.762"/>
					</g>
					<g>
						
							<path style="fill:#FFFFFF;stroke:#000000;stroke-width:2;stroke-linecap:round;stroke-linejoin:round;stroke-miterlimit:10;" d="
							M193.346,309.143c2.688,10.965,9.813,15.91,18.944,20.213c12.038,9.633,13.044,41.557-2.51,47.407
							c-12.796,4.812-18.514-9.287-17.609-21.738C179.905,343.472,182.881,319.175,193.346,309.143z"/>
						<path style="fill:none;stroke:#000000;stroke-width:2;stroke-linecap:round;stroke-linejoin:round;stroke-miterlimit:10;" d="
							M200.019,376.711c1.036-4.412,1.193-9.028,0.461-13.5"/>
						<path style="fill:none;stroke:#000000;stroke-width:2;stroke-linecap:round;stroke-linejoin:round;stroke-miterlimit:10;" d="
							M210.789,375.721c1.342-4.402,1.421-9.18,0.224-13.624"/>
					</g>
					<g>
						
							<path style="fill:#FFFFFF;stroke:#000000;stroke-width:2;stroke-linecap:round;stroke-linejoin:round;stroke-miterlimit:10;" d="
							M242.749,437.856c-22.468,4.36-36.032,5.906-54.121,6.232c-3.389,0.061-6.83,0.116-10.108-0.747
							c-3.278-0.864-6.431-2.781-8.015-5.778c-1.78-3.367-1.275-7.633,0.651-10.919c1.925-3.286,5.092-5.689,8.489-7.41
							c9.593-4.86,21.617-4.562,30.957,0.767"/>
						<path style="fill:none;stroke:#000000;stroke-width:2;stroke-linecap:round;stroke-linejoin:round;stroke-miterlimit:10;" d="
							M198.532,442.772c-0.275-2.986-0.546-6.034,0.137-8.954c0.683-2.92,2.498-5.743,5.288-6.845"/>
						<path style="fill:none;stroke:#000000;stroke-width:2;stroke-linecap:round;stroke-linejoin:round;stroke-miterlimit:10;" d="
							M179.262,442.891c-2.712-5.074-1.532-11.922,2.723-15.795"/>
					</g>
					<g>
						
							<path style="fill:#FFFFFF;stroke:#000000;stroke-width:2;stroke-linecap:round;stroke-linejoin:round;stroke-miterlimit:10;" d="
							M321.525,427.645c-6.628-5.153-15.384-7.476-23.694-6.288c-8.311,1.188-16.065,5.872-20.983,12.676
							c-2.642,3.654-4.335,9.073-1.297,12.406c3.03,3.324,20.995,5.794,34.295,3.817c8.94-1.328,17.801-5.23,23.48-12.26"/>
						<path style="fill:none;stroke:#000000;stroke-width:2;stroke-linecap:round;stroke-linejoin:round;stroke-miterlimit:10;" d="
							M308.359,449.165c-3.202-4.306-3.036-10.797,0.383-14.933"/>
						<path style="fill:none;stroke:#000000;stroke-width:2;stroke-linecap:round;stroke-linejoin:round;stroke-miterlimit:10;" d="
							M286.184,449.397c-2.176-4.381-1.845-9.906,0.839-13.995"/>
						<path style="fill:none;stroke:#000000;stroke-width:2;stroke-linecap:round;stroke-linejoin:round;stroke-miterlimit:10;" d="
							M288.459,373.088c-11.188,14.423-12.564,35.734-3.323,51.476"/>
					</g>
				</g>
				<g>
					<path style="fill:none;stroke:#000000;stroke-linecap:round;stroke-linejoin:round;stroke-miterlimit:10;" d="M312.374,318.326
						c0.284,7.328-1.671,14.728-5.536,20.96"/>
					<path style="fill:none;stroke:#000000;stroke-linecap:round;stroke-linejoin:round;stroke-miterlimit:10;" d="M314.127,331.469
						c-1.587,3.058-3.174,6.115-4.761,9.173"/>
					<path style="fill:none;stroke:#000000;stroke-linecap:round;stroke-linejoin:round;stroke-miterlimit:10;" d="M261.526,296.66
						c-3.611,5.484-5.806,11.892-6.317,18.438"/>
					<path style="fill:none;stroke:#000000;stroke-linecap:round;stroke-linejoin:round;stroke-miterlimit:10;" d="M254.243,303.491
						c-2.234,4.966-3.202,10.496-2.788,15.925"/>
					<path style="fill:none;stroke:#000000;stroke-linecap:round;stroke-linejoin:round;stroke-miterlimit:10;" d="M207.424,313.269
						c1.128,4.75,4.293,8.979,8.532,11.401"/>
					<path style="fill:none;stroke:#000000;stroke-linecap:round;stroke-linejoin:round;stroke-miterlimit:10;" d="M213.152,418.285
						c4.103,1.593,7.717,4.418,10.253,8.015"/>
					<path style="fill:none;stroke:#000000;stroke-linecap:round;stroke-linejoin:round;stroke-miterlimit:10;" d="M219.993,418.419
						c2.034,2.205,4.068,4.41,6.102,6.615"/>
					<path style="fill:none;stroke:#000000;stroke-linecap:round;stroke-linejoin:round;stroke-miterlimit:10;" d="M288.507,362.016
						c-5.03,6.401-8.63,13.92-10.463,21.852"/>
				</g>
			</g>
			<g>
				
					<path style="fill:#FFFFFF;stroke:#000000;stroke-width:2;stroke-linecap:round;stroke-linejoin:round;stroke-miterlimit:10;" d="
					M203.851,154.582c-0.19-25.823,0.697-53.366,15.636-74.668c10.975-15.65,28.996-27.018,34.777-45.129
					c0.913-2.859,1.503-5.858,3.004-8.47c1.5-2.612,4.201-4.84,7.265-4.754c5.309,0.15,7.816,6.42,8.569,11.558
					c3.16,21.541-0.799,43.652-8.424,64.097c-7.625,20.446-18.816,39.428-30.499,57.954
					C224.528,153.558,214.619,153.423,203.851,154.582z"/>
				
					<path style="fill:#FFFFFF;stroke:#000000;stroke-width:2;stroke-linecap:round;stroke-linejoin:round;stroke-miterlimit:10;" d="
					M266.649,162.402c-32.581-30.329-86.141-10.885-99.633,29.451c-3.472,10.38-5.123,21.464-10.245,31.139
					c-2.595,4.902-6.522,9.449-7.038,14.972c-1.812,19.384,15.693,36.641,31.612,45.936c23.17,13.529,50.612,7.551,74.01-3.12
					c26.808-12.226,37.811-28.307,34.16-57.95C286.762,200.486,284.471,178.992,266.649,162.402z"/>
				<g>
					
						<path style="fill:#FFFFFF;stroke:#000000;stroke-width:2;stroke-linecap:round;stroke-linejoin:round;stroke-miterlimit:10;" d="
						M245.846,153.43c11.636-34.652,36.061-64.848,67.515-83.47c10.979-6.5,23.187-11.987,30.804-22.223
						c1.641-2.205,3.286-4.779,5.954-5.441c3.066-0.761,6.242,1.535,7.501,4.432c1.259,2.897,1.047,6.202,0.653,9.336
						c-3.091,24.623-15.861,47.227-32.194,65.911c-16.333,18.684-36.183,33.904-55.945,48.915"/>
					
						<path style="fill:#FFFFFF;stroke:#000000;stroke-width:2;stroke-linecap:round;stroke-linejoin:round;stroke-miterlimit:10;" d="
						M255.992,162.666c0.204-15.018,10.165-28.301,21.859-37.727c11.694-9.426,25.189-16.355,37.292-25.25
						c14.732-10.827,20.849-25.474,25.55-27.572c5.115-2.282,2.91,9.701-2.215,17.86c-19.1,30.405-45.415,53.975-73.715,76.075
						C261.934,166.053,258.505,165.18,255.992,162.666z"/>
				</g>
				
					<path style="fill:#FFFFFF;stroke:#000000;stroke-width:2;stroke-linecap:round;stroke-linejoin:round;stroke-miterlimit:10;" d="
					M179.43,242.168c0-3.715,5.752-6.726,12.848-6.726c7.096,0,12.848,3.011,12.848,6.726s-11.772,6.726-15.524,6.726
					S179.43,245.882,179.43,242.168z"/>
				<g>
					<path style="fill:none;stroke:#000000;stroke-width:2;stroke-linecap:round;stroke-linejoin:round;stroke-miterlimit:10;" d="
						M174.815,251.788c0.746,3.509,3.218,6.607,6.473,8.114c3.255,1.506,7.217,1.385,10.374-0.318"/>
					<path style="fill:none;stroke:#000000;stroke-width:2;stroke-linecap:round;stroke-linejoin:round;stroke-miterlimit:10;" d="
						M190.451,256.302c2.979,4.507,8.369,7.311,13.769,7.163c5.4-0.148,10.629-3.242,13.358-7.904"/>
					<path style="fill:none;stroke:#000000;stroke-width:2;stroke-linecap:round;stroke-linejoin:round;stroke-miterlimit:10;" d="
						M215.997,253.538c1.412,1.691,3.771,2.534,5.934,2.119"/>
					<path style="fill:none;stroke:#000000;stroke-width:2;stroke-linecap:round;stroke-linejoin:round;stroke-miterlimit:10;" d="
						M176.184,250.059c-1.092,0.914-2.498,1.444-3.922,1.48"/>
					<path style="fill:none;stroke:#000000;stroke-width:2;stroke-linecap:round;stroke-linejoin:round;stroke-miterlimit:10;" d="
						M186.079,261.807c0.93,4.387,2.544,8.628,4.902,12.027c3.248,1.195,6.837,1.448,10.331,0.363
						c0.562-3.404,1.125-6.807,1.687-10.211"/>
				</g>
				<g>
					<ellipse cx="242.115" cy="234.145" rx="10.773" ry="12.193"/>
					<path style="fill:#FFFFFF;" d="M230.85,227.085c0.619-2.539,3.391-4.043,6.192-3.361c2.801,0.683,4.571,3.294,3.952,5.832
						c-0.619,2.538-3.391,4.043-6.192,3.36S230.232,229.623,230.85,227.085z"/>
				</g>
				<g>
					<ellipse cx="167.766" cy="233.006" rx="8.551" ry="12.193"/>
					<path style="fill:#FFFFFF;" d="M158.824,225.946c0.491-2.538,2.692-4.043,4.915-3.36c2.224,0.683,3.628,3.294,3.137,5.832
						c-0.491,2.539-2.692,4.043-4.915,3.361C159.738,231.096,158.333,228.485,158.824,225.946z"/>
				</g>
				<g>
					<path style="fill:none;stroke:#000000;stroke-width:2;stroke-linecap:round;stroke-linejoin:round;stroke-miterlimit:10;" d="
						M270.868,248.537c18.304-4.187,37.464-4.593,55.929-1.186"/>
					<path style="fill:none;stroke:#000000;stroke-width:2;stroke-linecap:round;stroke-linejoin:round;stroke-miterlimit:10;" d="
						M272.2,260.742c14.959-2.552,30.947,1.726,42.632,11.408"/>
					<path style="fill:none;stroke:#000000;stroke-width:2;stroke-linecap:round;stroke-linejoin:round;stroke-miterlimit:10;" d="
						M154.336,244.612c-14.416-6.263-30.655-8.259-46.158-5.673"/>
					<path style="fill:none;stroke:#000000;stroke-width:2;stroke-linecap:round;stroke-linejoin:round;stroke-miterlimit:10;" d="
						M159.089,256.189c-14.882,0.13-29.708,4.353-42.425,12.085"/>
				</g>
			</g>
		</g>
		<path style="fill:#FFFFFF;stroke:#000000;stroke-width:2;stroke-linecap:round;stroke-linejoin:round;stroke-miterlimit:10;" d="
			M339.278,440.711c2.311-6.223,2.764-13.122,1.286-19.594c-0.443-1.94-1.004-4.162,0.168-5.77c1.63-2.237,5.496-1.258,6.937,1.106
			c1.441,2.363,1.192,5.346,0.896,8.098c1.873-4.904,3.957-10.091,8.218-13.157c1.308-0.941,2.913-1.666,4.498-1.371
			c2.551,0.475,3.964,3.479,3.622,6.051c-0.343,2.572-1.941,4.777-3.488,6.86c1.295-1.674,2.617-3.375,4.352-4.586
			c1.735-1.211,3.978-1.88,6-1.256c2.022,0.624,3.6,2.803,3.091,4.857c-0.278,1.122-1.084,2.025-1.863,2.879
			c-3.731,4.09-7.461,8.18-11.192,12.269"/>
		<path style="fill:#FFFFFF;stroke:#000000;stroke-width:2;stroke-linecap:round;stroke-linejoin:round;stroke-miterlimit:10;" d="
			M247.747,440.613c-1.323-5.303-4.397-10.155-8.627-13.615c-1.543-1.262-3.819-2.344-5.409-1.142
			c-1.065,0.805-1.296,2.373-0.902,3.648c0.393,1.276,1.281,2.329,2.148,3.345c-2.725-2.366-5.812-4.314-9.12-5.755
			c-1.797-0.783-4.066-1.355-5.572-0.1c-1.334,1.111-1.377,3.242-0.572,4.78c0.805,1.538,2.248,2.622,3.645,3.653
			c-1.935-1.255-4.017-2.556-6.324-2.544c-2.307,0.012-4.746,1.976-4.34,4.246c0.607,3.393,6.146,3.68,7.201,6.961"/>
	</g>
	<g>
		<defs>
			<rect id="SVGID_00000110436106597139463750000011877029514818909352_" width="500" height="500"/>
		</defs>
		<clipPath id="SVGID_00000033331504287780378520000013367062392902585789_">
			<use xlink:href="#SVGID_00000110436106597139463750000011877029514818909352_"  style="overflow:visible;"/>
		</clipPath>
		<g style="clip-path:url(#SVGID_00000033331504287780378520000013367062392902585789_);">
			<g>
				<g>
					
						<path style="fill:#FFFFFF;stroke:#000000;stroke-width:2;stroke-linecap:round;stroke-linejoin:round;stroke-miterlimit:10;" d="
						M22.982,548.249c22.075-41.835,59.586-75.299,103.659-92.476c8.83-3.441,18.395-6.283,27.683-4.401
						c9.288,1.883,17.936,9.952,17.386,19.412c-0.378,6.513-4.809,12.052-9.539,16.546c-34.741,33.01-93.306,34.333-122.598,72.263
						C33.917,557.201,28.262,554.808,22.982,548.249z"/>
					<path style="fill:none;stroke:#000000;stroke-linecap:round;stroke-linejoin:round;stroke-miterlimit:10;" d="M146.455,469.275
						c-44.448,18.062-83.918,48.203-113.046,86.326"/>
					<path style="fill:none;stroke:#000000;stroke-linecap:round;stroke-linejoin:round;stroke-miterlimit:10;" d="M129.138,460.006
						c-4.35,6.752-7.449,14.306-9.095,22.167c7.877,1.449,15.633,3.55,23.165,6.273"/>
					<path style="fill:none;stroke:#000000;stroke-linecap:round;stroke-linejoin:round;stroke-miterlimit:10;" d="M88.585,480.591
						c-2.534,7.997-4.085,16.305-4.607,24.678c7.808,0.826,15.515,2.609,22.892,5.299"/>
					<path style="fill:none;stroke:#000000;stroke-linecap:round;stroke-linejoin:round;stroke-miterlimit:10;" d="M56.094,509.472
						c-0.058,6.431-0.115,12.862-0.173,19.293c5.216,0.133,10.433,0.266,15.649,0.399"/>
				</g>
				<g>
					
						<path style="fill:#FFFFFF;stroke:#000000;stroke-width:2;stroke-linecap:round;stroke-linejoin:round;stroke-miterlimit:10;" d="
						M10.906,544.822c6.479-23.156,12.172-46.769,12.771-70.816c0.599-24.047-4.217-48.774-17.339-68.889
						c-3.298-5.056-7.224-9.899-12.455-12.885c-5.23-2.986-11.99-3.82-17.237-0.862c-6.88,3.878-9.161,12.686-9.734,20.593
						c-3.219,44.384,26.007,88.25,15.336,131.44C-10.77,543.071-3.789,542.739,10.906,544.822z"/>
					<path style="fill:none;stroke:#000000;stroke-linecap:round;stroke-linejoin:round;stroke-miterlimit:10;" d="M-13.164,410.708
						C0.464,452.611,4.566,497.582-1.257,541.26"/>
					<path style="fill:none;stroke:#000000;stroke-linecap:round;stroke-linejoin:round;stroke-miterlimit:10;" d="M-22.525,425.872
						c6.536,3.6,12.531,8.181,17.722,13.542c2.327-7.793,5.642-15.29,9.84-22.256"/>
					<path style="fill:none;stroke:#000000;stroke-linecap:round;stroke-linejoin:round;stroke-miterlimit:10;" d="M-21.148,461.32
						c7.106,4.403,14.212,8.806,21.318,13.208c5.633-6.685,11.267-13.371,16.9-20.056"/>
					<path style="fill:none;stroke:#000000;stroke-linecap:round;stroke-linejoin:round;stroke-miterlimit:10;" d="M-12.706,498.073
						c5.336,4.838,9.924,10.499,13.553,16.72c4.991-4.456,9.983-8.911,14.974-13.367"/>
				</g>
				<g>
					
						<path style="fill:#FFFFFF;stroke:#000000;stroke-width:2;stroke-linecap:round;stroke-linejoin:round;stroke-miterlimit:10;" d="
						M6.685,546.15c1.081-26.828,5.249-53.783,15.335-78.666s26.385-47.672,48.553-62.821c8.463-5.783,19.74-10.427,28.615-5.299
						c7.373,4.26,10.02,14.04,8.453,22.41c-1.566,8.371-6.455,15.683-11.232,22.733c-22.232,32.806-44.463,65.611-66.695,98.417
						C22.67,542.112,15.628,541.299,6.685,546.15z"/>
					<path style="fill:none;stroke:#000000;stroke-linecap:round;stroke-linejoin:round;stroke-miterlimit:10;" d="M90.438,408.514
						c-33.652,37.854-58.114,83.822-70.714,132.88"/>
					<path style="fill:none;stroke:#000000;stroke-linecap:round;stroke-linejoin:round;stroke-miterlimit:10;" d="M60.112,416.396
						c0.997,8.943,1.993,17.886,4.49,27.317c10.247-3.839,20.771-6.94,31.462-9.271"/>
					<path style="fill:none;stroke:#000000;stroke-linecap:round;stroke-linejoin:round;stroke-miterlimit:10;" d="M37.383,447.334
						c0.539,11.108,2.187,22.162,4.913,32.943c10.193-5.659,20.883-10.422,31.906-14.215"/>
					<path style="fill:none;stroke:#000000;stroke-linecap:round;stroke-linejoin:round;stroke-miterlimit:10;" d="M19.677,489.108
						c1.191,9.1,3.58,18.043,7.086,26.525c5.62-3.244,11.57-5.918,17.727-7.967"/>
				</g>
			</g>
			<g>
				<g>
					
						<path style="fill:#FFFFFF;stroke:#000000;stroke-width:2;stroke-linecap:round;stroke-linejoin:round;stroke-miterlimit:10;" d="
						M469.213,538.875c-28.312-37.894-70.57-65.118-116.779-75.231c-9.257-2.026-19.148-3.346-28.03-0.042
						c-8.882,3.304-16.17,12.62-14.156,21.88c1.387,6.375,6.625,11.158,11.996,14.862c39.451,27.206,97.51,19.406,132.343,52.319
						C459.802,549.418,465.017,546.175,469.213,538.875z"/>
					<path style="fill:none;stroke:#000000;stroke-linecap:round;stroke-linejoin:round;stroke-miterlimit:10;" d="M334.961,480.061
						c46.716,10.93,90.393,34.567,125.095,67.697"/>
					<path style="fill:none;stroke:#000000;stroke-linecap:round;stroke-linejoin:round;stroke-miterlimit:10;" d="M350.626,468.213
						c5.347,5.993,9.583,12.974,12.431,20.483c-7.556,2.656-14.891,5.938-21.908,9.799"/>
					<path style="fill:none;stroke:#000000;stroke-linecap:round;stroke-linejoin:round;stroke-miterlimit:10;" d="M393.887,482.241
						c3.747,7.506,6.571,15.472,8.389,23.662c-7.585,2.03-14.92,4.99-21.789,8.794"/>
					<path style="fill:none;stroke:#000000;stroke-linecap:round;stroke-linejoin:round;stroke-miterlimit:10;" d="M430.473,505.718
						c1.057,6.344,2.114,12.688,3.171,19.031c-5.132,0.943-10.265,1.885-15.397,2.828"/>
				</g>
				<g>
					
						<path style="fill:#FFFFFF;stroke:#000000;stroke-width:2;stroke-linecap:round;stroke-linejoin:round;stroke-miterlimit:10;" d="
						M485.387,545.865c-8.845-22.359-16.956-45.255-20.045-69.11c-3.089-23.855-0.863-48.948,10.103-70.316
						c2.756-5.371,6.159-10.595,11.051-14.107c4.893-3.512,11.53-5.042,17.055-2.645c7.245,3.144,10.427,11.667,11.817,19.473
						c7.804,43.811-16.716,90.471-1.625,132.321C506.765,541.876,499.786,542.27,485.387,545.865z"/>
					<path style="fill:none;stroke:#000000;stroke-linecap:round;stroke-linejoin:round;stroke-miterlimit:10;" d="M495.422,409.978
						c-9.21,43.091-8.626,88.245,1.693,131.083"/>
					<path style="fill:none;stroke:#000000;stroke-linecap:round;stroke-linejoin:round;stroke-miterlimit:10;" d="M506.304,424.089
						c-6.128,4.259-11.615,9.436-16.223,15.306c-3.123-7.509-7.197-14.623-12.094-21.116"/>
					<path style="fill:none;stroke:#000000;stroke-linecap:round;stroke-linejoin:round;stroke-miterlimit:10;" d="M508.61,459.49
						c-6.611,5.116-13.222,10.232-19.834,15.348c-6.296-6.065-12.592-12.13-18.888-18.196"/>
					<path style="fill:none;stroke:#000000;stroke-linecap:round;stroke-linejoin:round;stroke-miterlimit:10;" d="M504.025,496.919
						c-4.805,5.365-8.782,11.471-11.746,18.035c-5.426-3.914-10.853-7.828-16.279-11.742"/>
				</g>
				<g>
					
						<path style="fill:#FFFFFF;stroke:#000000;stroke-width:2;stroke-linecap:round;stroke-linejoin:round;stroke-miterlimit:10;" d="
						M494.347,570.058c-1.081-26.828-5.249-53.783-15.335-78.666c-10.086-24.883-26.385-47.673-48.553-62.821
						c-8.463-5.783-19.74-10.427-28.615-5.299c-7.373,4.26-10.02,14.04-8.453,22.41c1.566,8.371,6.455,15.683,11.232,22.733
						c22.232,32.806,44.463,65.611,66.695,98.417C478.361,566.019,485.404,565.207,494.347,570.058z"/>
					<path style="fill:none;stroke:#000000;stroke-linecap:round;stroke-linejoin:round;stroke-miterlimit:10;" d="M410.593,432.422
						c33.652,37.854,58.115,83.822,70.714,132.88"/>
					<path style="fill:none;stroke:#000000;stroke-linecap:round;stroke-linejoin:round;stroke-miterlimit:10;" d="M440.92,440.303
						c-0.996,8.943-1.993,17.886-4.49,27.317c-10.247-3.839-20.771-6.94-31.462-9.271"/>
					<path style="fill:none;stroke:#000000;stroke-linecap:round;stroke-linejoin:round;stroke-miterlimit:10;" d="M463.649,471.241
						c-0.539,11.108-2.187,22.162-4.913,32.943c-10.193-5.659-20.883-10.422-31.906-14.215"/>
					<path style="fill:none;stroke:#000000;stroke-linecap:round;stroke-linejoin:round;stroke-miterlimit:10;" d="M481.355,513.016
						c-1.191,9.1-3.58,18.043-7.086,26.525c-5.62-3.244-11.57-5.918-17.727-7.967"/>
				</g>
			</g>
		</g>
	</g>
</g>

    <text x="10" y="832" font-size="12" fill="gray" opacity="0.6" font-family="Arial, sans-serif">
      twoja-kolorowanka.pl
    </text>
  
</svg>
