<?xml version="1.0" encoding="utf-8"?>
<!-- Generator: Adobe Illustrator 27.5.0, SVG Export Plug-In . SVG Version: 6.00 Build 0)  -->
<svg version="1.1" id="Ñëîé_1" xmlns="http://www.w3.org/2000/svg" xmlns:xlink="http://www.w3.org/1999/xlink" x="0px" y="0px"
	 viewBox="0 0 5000 5000" style="enable-background:new 0 0 5000 5000;" xml:space="preserve">
<g>
	
		<ellipse transform="matrix(0.4057 -0.914 0.914 0.4057 -1145.8292 2236.085)" style="fill:#1D1D1B;" cx="1146.517" cy="1999.125" rx="122.218" ry="104.922"/>
	
		<ellipse transform="matrix(0.3705 -0.9288 0.9288 0.3705 -1138.5502 2328.5496)" style="fill:#FFFFFF;" cx="1148.635" cy="2004.251" rx="107.003" ry="91.866"/>
	
		<ellipse transform="matrix(0.4057 -0.914 0.914 0.4057 -1171.7972 2255.7688)" style="fill:#1D1D1B;" cx="1148.673" cy="2028.937" rx="84.459" ry="75.988"/>
	
		<ellipse transform="matrix(0.4057 -0.914 0.914 0.4057 -1103.1486 2301.6982)" style="fill:#FFFFFF;" cx="1218.337" cy="1999.125" rx="27.359" ry="24.615"/>
	<path style="fill:#1D1D1B;" d="M916.596,1647.29c-39.8,39.532-59.223,92.986-65.87,147.858c-4.031,33.28-3.708,66.839-2.476,100.28
		c1.26,34.213,6.212,70.714-3.847,104.044c-8.444,27.98-28.56,52.254-54.538,65.672c-29.491,15.233-64.008,12.626-95.955,17.619
		c-51.444,8.041-102.691,34.679-129.755,80.637c-14.699,24.961-22.047,54.845-18.572,83.729
		c3.898,32.404,28.123,57.056,32.211,88.756c3.108-3.108,6.216-6.216,9.324-9.324c-20.873,2.058-46.025,6.105-56.398,27.016
		c-10.512,21.191,1.928,44.962,15.963,61.061c38.374,44.015,106.263,54.455,161.409,56.654
		c64.796,2.584,135.613-18.646,192.361-49.315c50.839-27.475,93.776-72.601,103.945-131.085
		c2.041-11.737-15.926-16.777-17.981-4.957c-17.869,102.763-133.472,147.083-224.288,163.23
		c-49.112,8.732-105.202,3.299-151.963-14.4c-21.257-8.045-42.639-20.929-55.599-40.109c-8.841-13.084-13.947-30.49,0.817-41.277
		c8.422-6.153,21.738-7.184,31.734-8.17c4.506-0.444,10.018-3.939,9.324-9.324c-3.467-26.888-20.112-46.833-28.296-72.01
		c-8.948-27.528-4.826-57.917,8.025-83.523c29.413-58.608,93.099-77.419,153.61-82.776c50.828-4.5,96.565-21.265,122.259-68.446
		c28.331-52.023,14-116.763,14.019-173.213c0.023-70.084,11.945-144.011,63.723-195.441
		C938.308,1652.007,925.123,1638.82,916.596,1647.29L916.596,1647.29z"/>
	<path style="fill:#1D1D1B;" d="M950.934,2285.647c28.779-5.104,56.78,4.532,77.048,25.399c5.157,5.31,16.943,1.71,15.917-6.593
		c-0.195-1.575-0.389-3.15-0.584-4.724c-1.453-11.756-20.118-11.901-18.647,0c0.195,1.575,0.389,3.149,0.584,4.724
		c5.306-2.198,10.611-4.395,15.917-6.593c-25.129-25.872-59.824-36.467-95.191-30.195
		C934.181,2269.758,939.18,2287.732,950.934,2285.647L950.934,2285.647z"/>
	<path style="fill:#1D1D1B;" d="M661.315,2464.762c50.709,53.628,129.113,80.551,202.19,75.08
		c38.955-2.917,71.938-19.337,99.885-46.301c14.331-13.826,24.982-31.312,39.388-44.842c18.02-16.924,49.604-14.012,72.995-15.975
		c154.526-12.967,342.681-35.316,433.033-180.502c42.908-68.948,52.572-159.564,11.209-231.373
		c-5.988-10.396-22.108-1.016-16.102,9.412c37.107,64.42,28.722,145.003-8.231,207.646
		c-36.961,62.656-101.4,105.231-168.188,130.668c-75.929,28.918-157.415,37.461-237.788,44.327
		c-32.21,2.751-75.38-1.923-100.115,22.612c-26.412,26.197-44.354,56.883-79.312,73.726c-39.103,18.84-89.712,15.089-130.522,3.733
		c-39.526-10.999-76.953-31.463-105.258-61.397C666.238,2442.839,653.068,2456.042,661.315,2464.762L661.315,2464.762z"/>
	<path style="fill:#1D1D1B;" d="M769.97,2241.697c16.493-6.936,34.472-13.794,46.046,4.406c1.958,3.079,5.476,7.714,4.399,11.588
		c0.702,4.391-1.846,4.477-7.644,0.259c-1.332-2.646-1.986-5.409-1.96-8.287c-0.877-8.411,0.033-16.567-1.411-24.997
		c-2.023-11.804-19.996-6.799-17.981,4.957c2.996,17.482-2.785,38.204,16.075,48.82c14.301,8.05,29.878-2.386,31.631-17.715
		c1.763-15.418-10.455-34.149-23.764-41.189c-15.995-8.46-34.872-2.332-50.348,4.177
		C754.117,2228.298,758.905,2246.35,769.97,2241.697L769.97,2241.697z"/>
	<path style="fill:#1D1D1B;" d="M747.047,2198.733c22.4-12.42,48.57-26.845,74.363-15.19c10.851,4.903,20.343-11.162,9.412-16.101
		c-32.832-14.835-63.83-1.087-93.186,15.19C727.137,2188.451,736.532,2204.563,747.047,2198.733L747.047,2198.733z"/>
	<path style="fill:#1D1D1B;" d="M954.792,1661.046c-70.839-87.767-131.8-182.803-189.928-279.306
		c-59.82-99.313-118.122-199.557-177.032-299.412c-4.252,4.252-8.505,8.504-12.757,12.757
		c29.419,21.401,58.532,48.617,86.782,72.929c53.311,45.878,106.325,92.103,159.271,138.401
		c59.87,52.352,119.619,104.842,179.253,157.463c25.009,22.068,49.997,44.16,74.949,66.292c5.497,4.876,10.993,9.754,16.486,14.635
		c2.286,2.031,15.192,15.26,12.888,7.985c1.091,3.444-1.533,10.172-2.686,14.406c-18.242,66.992-75.794,105.739-144.981,95.597
		c-11.739-1.721-16.806,16.244-4.957,17.981c66.532,9.753,126.534-16.704,156.362-78.329c6.486-13.399,16.045-32.909,14.913-48.451
		c-0.688-9.443-9.043-14.101-15.71-20.026c-12.696-11.284-25.404-22.553-38.12-33.815
		c-122.424-108.417-245.263-216.389-368.981-323.328c-38.045-32.885-75.333-68.217-116.058-97.843
		c-7.816-5.686-17.218,5.194-12.757,12.757c116.444,197.379,225.49,403.602,369.876,582.492
		C949.145,1683.571,962.266,1670.305,954.792,1661.046L954.792,1661.046z"/>
	<path style="fill:#1D1D1B;" d="M718.771,1316.969c21.892-21.73,37.271-48.146,45.354-77.915
		c3.149-11.596-14.835-16.544-17.981-4.957c-7.276,26.796-20.851,50.125-40.558,69.686
		C697.056,1312.25,710.241,1325.436,718.771,1316.969L718.771,1316.969z"/>
	<path style="fill:#1D1D1B;" d="M838.758,1505.709c14.262-21.711,26.74-44.398,37.081-68.241
		c4.618-10.648,8.858-21.465,12.637-32.439c3.654-10.612,5.175-28.265,11.519-37.15c-4.881,0.629-9.762,1.258-14.644,1.887
		c0.288,0.247,0.576,0.494,0.864,0.741c-0.486-3.766-0.972-7.532-1.458-11.299c-0.159,0.25-0.318,0.499-0.477,0.749
		c-6.46,10.155,9.671,19.52,16.102,9.412c0.159-0.25,0.318-0.499,0.476-0.749c2.069-3.252,1.566-8.705-1.458-11.299
		c-0.288-0.247-0.576-0.494-0.864-0.741c-4.854-4.164-10.98-3.245-14.644,1.887c-5.61,7.858-6.51,20.102-9.365,29.287
		c-4.247,13.665-9.155,27.147-14.791,40.302c-10.227,23.87-22.834,46.553-37.081,68.241
		C816.048,1506.357,832.189,1515.709,838.758,1505.709L838.758,1505.709z"/>
	<path style="fill:#1D1D1B;" d="M1043.743,1501.663c-5.6,58.79-27.268,113.954-62.319,161.398c-7.137,9.66,9.04,18.97,16.102,9.412
		c37.111-50.232,58.949-108.708,64.865-170.81C1063.528,1489.724,1044.873,1489.802,1043.743,1501.663L1043.743,1501.663z"/>
	<path style="fill:#1D1D1B;" d="M777.683,1412.767c-91.848,16.931-140.268,126.804-130.254,211.699
		c6.204,52.594,37.353,93.628,55.631,141.931c9.883,26.117,15.76,67.079-15.029,82.324c-31.593,15.644-61.972-11.788-77.873-36.402
		c-3.467-5.367-12.987-6.733-16.102,0c-32.064,69.317-17.659,145.341,50.376,185.422c62.137,36.606,157.75,61.993,214.193,2.454
		c8.254-8.707-4.909-21.917-13.186-13.186c-49.153,51.848-132.037,27.548-186.475-2.457c-27.923-15.391-51.094-37.391-59.651-68.932
		c-8.499-31.325-2.581-64.867,10.844-93.891c-5.367,0-10.734,0-16.102,0c23.26,36.005,74.658,71.211,114.438,35.418
		c42.063-37.848,13.04-98.933-7.682-139.508c-27.56-53.966-45.705-106.21-29.727-166.989
		c14.171-53.903,53.81-109.258,111.555-119.903C794.426,1428.575,789.434,1410.601,777.683,1412.767L777.683,1412.767z"/>
	<path style="fill:#1D1D1B;" d="M928.622,1389.161c44.62-7.393,90.951-0.683,131.064,20.501
		c37.603,19.858,68.34,49.927,100.786,76.893c9.166,7.618,22.428-5.505,13.186-13.186c-36.779-30.567-71.829-65.355-115.914-85.387
		c-42.312-19.227-88.385-24.373-134.079-16.802C911.853,1373.137,916.863,1391.109,928.622,1389.161L928.622,1389.161z"/>
	<path style="fill:#1D1D1B;" d="M1079.292,1621.08c-27.579,39.482-2.39,85.532,30.063,112.562
		c40.104,33.403,87.038,55.758,134.973,75.374c46.83,19.164,95.764,41.055,116.086,91.019c10.713,26.338,16.687,60.206,10.05,88.294
		c-3.234,13.687-10.159,27.089-22.394,34.791c-14.32,9.016-35.667,6.376-42.552-10.959c-3.509-8.835-19.5-8.923-18.314,2.479
		c4.877,46.889,45.722,77.768,90.553,83.411c50.603,6.369,98.066-19.054,128.501-58.522c34.118-44.245,44.84-101.843,42.474-156.645
		c-1.99-46.084-14.032-96.839-50.387-128.242c-22.236-19.208-50.358-27.037-77.475-36.661
		c-32.91-11.681-77.612-35.907-64.836-78.325c3.469-11.516-14.524-16.437-17.981-4.957c-17.831,59.2,44.023,89.678,89.45,105.228
		c31.678,10.844,60.374,23.054,78.635,52.583c15.591,25.211,21.887,55.631,23.67,84.878c4,65.651-11.892,139.356-68.046,180.116
		c-47.703,34.627-148.098,32.238-155.91-42.863c-6.105,0.826-12.21,1.652-18.314,2.479c19.184,48.297,78.831,30.609,96.098-9.207
		c20.951-48.313,2.566-118.395-31.75-156.143c-36.731-40.405-92.144-54.435-140.035-76.639
		c-44.883-20.809-161.751-79.791-116.454-144.636C1102.281,1620.632,1086.123,1611.302,1079.292,1621.08L1079.292,1621.08z"/>
	<path style="fill:#1D1D1B;" d="M1118.69,1524.782c38.879-36.098,89.777-65.768,144.826-56.006
		c50.339,8.927,90.892,56.46,73.463,108.459c-2.855,8.517,9.67,16.335,15.584,9.071c33.722-41.422,88.887-56.612,140.405-46.4
		c53.65,10.635,100.734,44.649,136.209,85.225c66.386,75.932,95.846,184.338,74.644,283.189
		c-13.454,62.726-49.314,124.25-114.894,141.876c-11.577,3.112-6.665,21.105,4.957,17.981
		c121.293-32.601,149.45-184.85,128.699-291.725c-21.479-110.621-101.985-223.895-215.739-252.483
		c-59.866-15.045-127.477,0.03-167.466,49.151c5.195,3.024,10.389,6.048,15.584,9.072c18.949-56.533-20.317-113.309-75.056-128.763
		c-64.969-18.342-127.827,14.925-174.4,58.167C1096.691,1519.779,1109.901,1532.943,1118.69,1524.782L1118.69,1524.782z"/>
	<path style="fill:#1D1D1B;" d="M1333.452,1495.163c31.139-35.859,62.277-71.718,93.416-107.577
		c15.17-17.47,30.328-34.951,45.51-52.409c7.594-8.732,15.165-17.495,23.067-25.953c6.391-6.841,16.018-20.283,24.758-24.266
		c9.519-4.338,23.087-4.264,28.229,5.342c2.733,5.106,3.948,11.144,5.226,16.765c2.567,11.29,4.535,22.784,6.276,34.227
		c3.611,23.732,5.81,47.667,6.635,71.658c1.682,48.917-2.542,97.688-12.137,145.665c-2.344,11.719,15.626,16.734,17.981,4.957
		c11.08-55.404,15.466-111.91,11.934-168.34c-1.75-27.957-5.286-55.874-10.695-83.362c-3.779-19.205-8.804-41.216-28.814-49.685
		c-19.524-8.263-34.863,6.309-48.029,18.978c-20.34,19.572-38.293,41.609-56.778,62.896
		c-39.921,45.973-79.843,91.946-119.764,137.919C1312.431,1491,1325.566,1504.244,1333.452,1495.163L1333.452,1495.163z"/>
	<path style="fill:#1D1D1B;" d="M1043.088,1388.611c14.238-33.483,30.733-65.906,49.824-96.894
		c9.246-15.008,19.051-29.666,29.395-43.94c5.992-8.269,12.094-16.5,18.557-24.408c2.242-2.743,5.111-7.345,8.454-8.846
		c7.116-3.196,9.628,1.247,13.495,7.963c8.809,15.295,11.499,36.481,14.174,53.658c3.117,20.014,5.257,40.222,7.346,60.366
		c4.277,41.229,7.146,82.576,8.839,123.989c0.489,11.958,19.139,12.02,18.647,0c-2.091-51.159-6.023-102.216-12.078-153.062
		c-2.583-21.689-4.996-43.619-10.485-64.803c-3.77-14.553-9.479-39.633-23.764-47.624c-11.57-6.472-24.104,0.436-32.404,8.798
		c-14.63,14.739-26.637,33.701-38.293,50.776c-26.748,39.184-49.252,80.973-67.811,124.615
		C1022.344,1390.118,1038.402,1399.631,1043.088,1388.611L1043.088,1388.611z"/>
	<path style="fill:#1D1D1B;" d="M1533.928,1275.835c6.068,85.948-7.143,171.24-38.832,251.356
		c-4.415,11.161,13.612,16.005,17.981,4.957c32.229-81.482,45.669-168.911,39.498-256.313
		C1551.735,1263.932,1533.081,1263.84,1533.928,1275.835L1533.928,1275.835z"/>
	<path style="fill:#1D1D1B;" d="M1149.206,1205.147c2.56,79.075-5.98,157.62-25.595,234.271
		c-2.977,11.632,15.004,16.594,17.981,4.957c20.01-78.19,28.873-158.557,26.261-239.229
		C1167.466,1193.177,1148.817,1193.124,1149.206,1205.147L1149.206,1205.147z"/>
	<path style="fill:#1D1D1B;" d="M1207.367,1353.111c37.835-16.633,78.127-29.226,119.665-31.102
		c18.566-0.839,37.268,0.338,55.483,4.096c9.463,1.953,18.839,4.547,27.9,7.906c5.186,1.923,24.744,7.368,27.164,13.501
		c4.353,11.035,22.394,6.228,17.981-4.957c-6.443-16.331-27.843-22.324-43.215-27.624c-22.133-7.632-45.752-11.276-69.123-11.753
		c-50.573-1.033-99.398,13.668-145.267,33.832C1186.994,1341.828,1196.473,1357.9,1207.367,1353.111L1207.367,1353.111z"/>
	<path style="fill:#1D1D1B;" d="M1576.59,1428.519c56.55,87.481,170.596,53.901,255.854,51.454
		c96.282-2.764,207.871,33.726,239.59,134.956c14.814,47.279-3.932,91.704-5.447,139.138c-1.254,39.263,16.486,72.754,52.758,89.252
		c34.906,15.876,74.404,15.671,110.952,25.752c41.899,11.557,74.865,41.39,94.877,79.534c46.774,89.155,7.87,192.699-59.008,259.738
		c-50.086,50.207-143.323,107.006-95.172,190.454c49.153,85.185,160.112,69.076,239.638,99.313
		c83.17,31.623,150.484,109.901,158.493,199.977c8.574,96.424-48.495,200.073-146.165,224.298
		c-43.786,10.861-93.991,5.854-130.82-21.831c-21.28-15.997-44.206-44.448-37.009-72.882c4.632-18.301,21.303-30.959,40.299-24.464
		c14.288,4.886,24.953,17.361,33.883,28.915c7.328,9.481,20.438-3.803,13.186-13.186c-23.412-30.29-68.464-54.645-96.483-15.167
		c-26.376,37.163,0.3,83.675,30.945,108.442c64.706,52.294,163.357,40.89,225.728-8.997c68.88-55.093,99.461-151.604,80.179-236.926
		c-19.681-87.088-89.115-158.516-172.353-188.021c-52.972-18.776-111.939-15.788-163.602-38.562
		c-45.552-20.08-86.987-67.517-62.958-119.207c19.901-42.81,65.459-68.408,97.493-101.113
		c34.436-35.157,61.788-78.366,74.934-126.028c23-83.387-5.52-182.127-83.464-226.791c-37.467-21.469-80.792-21.598-121.66-32.007
		c-21.621-5.507-43.304-14.667-55.639-34.311c-16.299-25.957-10.076-58.584-5.168-86.894c8.168-47.107,9.851-89.817-12.991-133.41
		c-21.467-40.967-57.684-73.072-99.505-92.229c-46.324-21.22-98.061-28.104-148.658-26.28
		c-57.567,2.076-117.354,19.04-174.097,2.037c-25.379-7.605-47.983-21.896-62.51-44.369
		C1586.199,1409.063,1570.049,1418.401,1576.59,1428.519L1576.59,1428.519z"/>
	<path style="fill:#1D1D1B;" d="M1789.845,1955.427c-16.275,47.167-33.025,104.849,0.268,149.046
		c32.924,43.706,90.112,32.766,136.166,48.709c31.085,10.761,51.386,35.179,40.521,69.07c-9.411,29.353-36.1,50.809-54.916,74.155
		c-34.342,42.609-62.505,91.914-74.437,145.736c-21.861,98.605,23.76,200.321,117.63,242.037
		c52.402,23.287,106.965,17.1,162.555,13.291c64.682-4.431,134.758-5.133,198.019,10.83c62.213,15.698,124.5,72.445,87.922,140.479
		c-13.696,25.474-58.849,61.834-87.061,35.049c-8.923-8.471-19.163-27.891-10.155-38.428c6.51-7.615,20.02-10.691,29.55-10.546
		c12.004,0.183,12.008-18.464,0-18.647c-16.496-0.252-36.056,6.309-46.125,20.007c-12.348,16.797-3.118,37.934,7.516,53.269
		c31.8,45.859,97.635,9.771,119.889-26.947c27.752-45.791,16.493-101.23-23.297-135.844
		c-47.466-41.293-115.538-46.059-175.564-48.946c-37.025-1.781-74.082-1.001-111.031,1.847c-35.64,2.747-72.336,7.133-107.704-0.334
		c-56.087-11.843-105.065-50.703-130.664-101.833c-30.407-60.733-20.636-131.813,7.707-191.327
		c14.325-30.079,32.89-58.169,54.308-83.657c19.188-22.833,42.513-43.686,52.825-72.459c9.667-26.973,4.799-56.368-17.281-75.609
		c-21.144-18.426-49.671-24.165-76.627-27.742c-37.231-4.94-78.547-10.391-94.169-50.076c-15.045-38.22-0.51-79.521,12.137-116.172
		C1811.749,1949.016,1793.742,1944.132,1789.845,1955.427L1789.845,1955.427z"/>
	<path style="fill:#1D1D1B;" d="M1582.812,2052.442c-28.415,18.137-28.063,58.36-2.853,79.305
		c32.728,27.19,76.373,13.421,109.119-5.691c-4.252-4.252-8.504-8.504-12.757-12.757c-11.971,24.745-24.411,50.832-44.973,69.716
		c-25.765,23.662-60.186,26.674-93.447,22.098c-11.736-1.615-16.812,16.35-4.957,17.981c35.105,4.83,71.847,3.301,101.403-18.497
		c27.598-20.353,43.49-51.736,58.076-81.886c3.902-8.067-4.238-17.728-12.757-12.757c-21.366,12.47-46.703,24.021-71.777,15.976
		c-23.474-7.531-42.165-40.472-15.666-57.387C1602.31,2062.105,1592.968,2045.959,1582.812,2052.442L1582.812,2052.442z"/>
	<path style="fill:#1D1D1B;" d="M1493.126,2251.868c-39.481,39.11-16.725,95.53,16.37,130.045
		c41.961,43.762,98.521,72.277,128.088,127.285c29.754,55.355,44.811,137.853-3.562,187.436
		c-21.273,21.805-53.666,34.218-82.876,20.948c-24.771-11.253-59.243-59.157-24.193-79.546c-3.137-5.367-6.275-10.735-9.412-16.102
		c-38.949,25.558-54.903,73.211-47.903,118.29c8.431,54.292,49.411,97.02,93.18,126.741
		c95.569,64.894,248.835,104.526,345.328,22.502c23.5-19.976,44.305-44.53,57.773-72.417c7.83-16.214,26.51-57.607,11.344-73.507
		c-3.501-3.67-9.651-3.466-13.186,0c-0.454,0.445-0.907,0.89-1.361,1.335c-3.676,3.604-3.429,9.54,0,13.186
		c0.319,0.34,0.639,0.679,0.958,1.019c8.239,8.76,21.407-4.444,13.186-13.186c-0.319-0.34-0.639-0.679-0.958-1.019
		c0,4.395,0,8.791,0,13.186c0.454-0.445,0.907-0.89,1.361-1.335c-4.395,0-8.791,0-13.186,0c-1.141-4.187-1.502-3.039-1.084,3.443
		c-0.324,4.9-0.994,9.75-2.009,14.549c-1.493,7.467-3.683,14.837-6.397,21.949c-5.206,13.64-12.62,26.522-21.101,38.378
		c-18.458,25.804-43.664,49.258-71.824,64.055c-59.567,31.3-139.272,17.227-200.054-3.64
		c-57.813-19.848-119.557-54.517-153.344-107.254c-29.742-46.423-32.123-116.832,18.689-150.174
		c9.967-6.541,1.052-22.189-9.412-16.102c-41.012,23.858-20.092,81.289,10.771,103.688c38.106,27.657,87.391,16.327,118.896-15.802
		c38.108-38.863,42.139-96.288,30.195-146.903c-13.556-57.444-45.044-101.274-89.919-138.516
		c-24.888-20.654-51.966-39.742-72.914-64.645c-22.091-26.262-36.153-67.07-8.257-94.703
		C1514.85,2256.596,1501.665,2243.41,1493.126,2251.868L1493.126,2251.868z"/>
	<path style="fill:#1D1D1B;" d="M2126.691,2690.282c17.261,50.073-2.86,105.296-42.554,138.847
		c-21.5,18.172-47.93,29.661-75.21,35.893c-13.865,3.167-27.965,4.929-42.17,5.481c-7.157,0.278-36.402,3.251-40.186-3.05
		c-6.172-10.277-22.301-0.912-16.101,9.412c5.905,9.833,15.531,10.923,26.231,11.752c18.417,1.427,36.99,0.767,55.287-1.697
		c34.669-4.669,68.523-16.654,96.693-37.708c49.59-37.065,76.657-103.937,55.992-163.887
		C2140.785,2674.047,2122.765,2678.893,2126.691,2690.282L2126.691,2690.282z"/>
	<path style="fill:#1D1D1B;" d="M2277.057,2212.023c9.683,38.811,45.159,61.342,82.006,70.865
		c54.179,14.003,111.651,3.07,166.55,0.781c111.828-4.662,221.58,38.542,296.199,122.943c34.523,39.049,60.72,85.62,76.14,135.407
		c16.528,53.365,23.18,111.803-4.086,162.767c-23.498,43.921-63.965,76.302-108.991,96.275
		c-43.734,19.401-95.181,34.129-114.827,82.743c-20.537,50.819,22.234,91.69,63.821,114.063
		c45.618,24.541,99.255,30.576,149.17,17.046c11.57-3.136,6.659-21.13-4.957-17.981c-48.835,13.237-101.404,5.879-144.55-20.791
		c-19.216-11.878-43.952-30.679-49.481-53.838c-7.287-30.524,16.982-58.667,40.945-73.633c40.188-25.1,86.346-34.754,124.393-64.325
		c33.037-25.677,60.125-59.762,73.359-99.79c29.718-89.883-16.183-199.855-71.032-270.857
		c-58.399-75.596-144.927-127.32-239.084-143.475c-60.148-10.32-119.111-1-179.444,0.455c-49.023,1.183-123.615-5.361-138.148-63.61
		C2292.135,2195.428,2274.147,2200.358,2277.057,2212.023L2277.057,2212.023z"/>
	<path style="fill:#1D1D1B;" d="M2476.277,2914.102c16.122,90.665,82.824,165.467,171.838,190.212
		c91.299,25.38,193.669-6.022,240.319-91.648c5.743-10.542-10.352-19.964-16.101-9.412
		c-43.876,80.534-140.428,107.257-225.228,81.34c-80.421-24.578-138.244-93.329-152.847-175.45
		C2492.16,2897.349,2474.187,2902.348,2476.277,2914.102L2476.277,2914.102z"/>
	<path style="fill:#1D1D1B;" d="M1303.632,2393.982c47.537,123.651,49.868,256.829,62.312,387.064
		c5.93,62.068,14.125,124.261,30.708,184.487c13.928,50.582,28.951,102.832,66.912,140.842c8.491,8.502,21.68-4.68,13.186-13.186
		c-39.514-39.564-54.107-98.864-67.082-151.709c-15.048-61.285-22.041-124.127-27.472-186.887
		c-10.659-123.167-15.718-248.87-60.582-365.568C1317.351,2377.938,1299.315,2382.753,1303.632,2393.982L1303.632,2393.982z"/>
	<path style="fill:#1D1D1B;" d="M1963.266,2991.558c0.071,52.648-4.821,106.731-26.545,155.343
		c-21.813,48.812-59.261,86.673-104.037,115.068c-48.353,30.663-100.862,48.943-157.016,58.936
		c-55.921,9.952-113.081,19.559-169.589,25.163c-54.304,5.386-108.99,7.008-162.941,15.697
		c-48.235,7.769-96.986,21.584-134.023,54.951c-66.468,59.88-111.487,167.846-99.769,257.407
		c3.708,28.342,21.618,54.685,21.553,83.221c-0.043,18.869-10.147,26.754-24.778,35.854c-8.782,5.462-15.571,13.089-18.572,23.138
		c-17.969,60.18,61.647,77.669,80.877,120.625c26.096,58.295-35.647,125.228-74.359,161.618
		c-45.011,42.311-99.664,74.5-158.651,92.916c-10.666,3.33-19.777,5.009-29.294-3.684c-5.311-4.851-7.234-16.474-9.75-23.461
		c-5.779-16.047-10.197-32.544-13.408-49.292c-6.511-33.963-7.703-68.784-6.037-103.265c3.289-68.048,17.991-134.856,31.959-201.326
		c15.517-73.838,31.034-147.676,46.551-221.514c13.258-63.091,24.348-127.218,42.75-189.082
		c16.006-53.807,39.335-107.795,81.415-146.452c50.924-46.782,125.273-60.926,189.438-80.731
		c35.081-10.828,70.162-21.656,105.243-32.483c32.097-9.907,66.434-17.469,97.251-30.897
		c42.586-18.556,67.387-59.861,77.789-103.673c6.208-26.149,7.721-53.171,6.799-79.953c-0.412-11.967-19.061-12.022-18.647,0
		c1.871,54.388-6.682,120.693-53.974,155.521c-25.297,18.63-60.125,24.339-89.618,33.442c-37.42,11.55-74.84,23.099-112.259,34.649
		c-64.573,19.931-139.058,34.036-194.78,74.309c-43.618,31.525-72.021,77.684-91.508,127.074
		c-22.659,57.428-33.786,118.671-46.432,178.849c-16.28,77.469-32.56,154.939-48.84,232.408
		c-27.269,129.763-68.212,273.916-22.761,404.349c7.48,21.465,15.875,50.868,43.88,47.985c27.297-2.811,56.77-17.623,81.127-29.623
		c53.986-26.599,102.646-64.828,140.948-111.276c32.41-39.302,67.272-98.642,39.545-149.646
		c-13.673-25.152-40.257-37.12-60.193-56.197c-10.282-9.839-19.432-24.898-18.197-39.755c1.552-18.655,21.006-20.765,31.81-32.556
		c17.429-19.022,14.785-47.054,7.438-69.719c-8.746-26.979-17.609-50.293-17.304-79.109c0.566-53.549,19.358-107.554,46.178-153.429
		c26.758-45.77,62.427-81.657,113.447-98.653c56.771-18.911,117.877-21.493,177.073-25.968
		c57.21-4.324,113.324-13.815,170.062-22.007c53.796-7.768,106.896-17.34,156.748-39.891
		c50.597-22.888,98.945-55.729,133.016-100.11c30.224-39.369,46.957-86.477,53.988-135.293c3.795-26.346,5.083-52.88,5.048-79.478
		C1981.897,2979.56,1963.25,2979.539,1963.266,2991.558L1963.266,2991.558z"/>
	<path style="fill:#1D1D1B;" d="M1757.448,3322.772c276.723,67.091,568.462,62.796,843.06-12.558
		c11.558-3.172,6.651-21.167-4.957-17.981c-271.406,74.478-559.621,78.874-833.146,12.558
		C1750.747,3301.964,1745.773,3319.941,1757.448,3322.772L1757.448,3322.772z"/>
	<path style="fill:#1D1D1B;" d="M1616.152,3342.805c19.633,66.456,36.234,133.77,49.346,201.819
		c6.309,32.745,11.847,65.638,16.589,98.646c4.689,32.641,5.999,66.477,12.903,98.729c6.063,28.325,23.605,45.906,42.195,66.804
		c20.723,23.295,38.108,49.412,52.332,77.132c28.053,54.672,43.125,115.466,48.638,176.466
		c7.288,80.651-0.731,161.624-10.095,241.749c-1.39,11.896,17.269,11.797,18.647,0c15.266-130.634,25.862-267.406-24.875-392.106
		c-10.699-26.296-23.715-51.62-39.559-75.2c-16.293-24.249-37.388-43.873-54.858-66.994
		c-20.887-27.642-18.876-67.819-23.147-100.765c-4.392-33.883-9.555-67.664-15.565-101.299
		c-13.87-77.611-32.234-154.334-54.569-229.938C1630.741,3326.365,1612.739,3331.253,1616.152,3342.805L1616.152,3342.805z"/>
	<path style="fill:#1D1D1B;" d="M1951.834,3357.798c-17.857,67.016-41.872,132.722-50.757,201.812
		c-8.466,65.829,1.191,136.364,29.383,196.787c28.374,60.814,77.869,111.664,116.039,166.408
		c40.163,57.602,76.938,118.496,101.467,184.541c24.192,65.138,36.906,144.846-11.463,202.4c5.195,1.371,10.389,2.743,15.583,4.114
		c-5.115-15.487-13.363-28.218-25.233-39.345c-5.331-4.997-13.27-2.557-15.584,4.114c-8.263,23.823-25.845,40.648-48.164,51.602
		c-10.772,5.287-1.333,21.375,9.412,16.102c26.769-13.137,46.92-34.453,56.733-62.746c-5.194,1.372-10.389,2.743-15.583,4.114
		c9.765,9.153,16.254,18.45,20.438,31.116c2.02,6.116,10.79,9.819,15.583,4.114c83.848-99.77,14.805-244.891-41.913-339.997
		c-36.378-60.999-80.119-116.421-122.26-173.395c-43.702-59.084-69.349-128.973-69.067-203.133
		c0.318-83.877,32.053-163.661,53.368-243.653C1972.908,3351.147,1954.925,3346.195,1951.834,3357.798L1951.834,3357.798z"/>
	<path style="fill:#1D1D1B;" d="M2539.443,3094.993c0.345,55.633,1.04,113.592,22.405,165.885
		c21.674,53.05,65.329,91.035,109.599,125.409c97.061,75.366,208.162,117.493,321.169,162.411
		c27.538,10.946,62.826,19.606,81.187,44.553c14.741,20.028,20.38,45.683,22.858,70c2.972,29.171,1.968,57.716-3.531,86.413
		c-14.526,75.807-36.369,150.374-55.895,224.99c-24.708,94.416-50.916,189.413-65.439,286.058
		c-1.764,11.74,16.201,16.803,17.981,4.958c25.128-167.218,82.158-327.847,117.608-492.838
		c13.169-61.29,20.743-141.814-21.077-193.844c-16.21-20.168-39.769-28.272-63.004-37.864
		c-28.871-11.919-58.062-23.034-87.165-34.368c-59.839-23.305-119.022-48.065-174.251-81.101
		c-57.771-34.557-120.618-77.041-160.813-132.055c-41.708-57.084-42.564-130.851-42.985-198.608
		C2558.016,3082.998,2539.369,3082.972,2539.443,3094.993L2539.443,3094.993z"/>
	<path style="fill:#1D1D1B;" d="M2827.263,2410.823c66.846,17.763,128.015,44.2,179.007,92.024
		c45.013,42.216,79.297,95.031,103.481,151.606c56.744,132.746,53.916,281.612,38.388,422.454
		c-7.631,69.212-18.54,137.531,9.185,203.883c25.28,60.501,77.504,100.54,116.066,151.922c21.206,28.255,38.057,56.825,38.845,93.13
		c0.748,34.501-9.582,68.212-19.804,100.792c-13.518,43.083-23.716,84.179-28.107,129.204
		c-5.651,57.931-5.803,116.731,0.117,174.644c5.622,54.998,16.36,110.953,42.084,160.387c5.542,10.649,21.64,1.231,16.102-9.412
		c-24.505-47.089-34.606-101.148-39.792-153.535c-5.291-53.448-5.345-107.567-0.862-161.077
		c3.86-46.078,13.598-88.132,27.455-132.121c18.922-60.072,35.337-125.091,0.029-182.606
		c-16.786-27.344-37.792-52.306-59.237-76.068c-22.604-25.047-47.022-48.333-63.81-77.932
		c-38.452-67.797-28.796-140.221-20.405-214.228c16.079-141.808,19.623-291.431-34.815-426.061
		c-24.688-61.057-60.091-118.36-107.657-164.284c-54.051-52.185-119.437-81.604-191.312-100.704
		C2820.611,2389.757,2815.658,2407.739,2827.263,2410.823L2827.263,2410.823z"/>
	<path style="fill:#1D1D1B;" d="M3314.382,4313.08c9.135-20.929,22.993-36.248,16.32-60.716
		c-9.094-33.346-39.337-62.917-59.576-89.977c-3.51,4.565-7.02,9.131-10.53,13.696c28.396,10.085,55.109,23.249,80.537,39.387
		c6.438,4.086,13.439-1.409,14.03-8.051c3.84-43.221-12.808-82.917-30.011-121.61c-4.866-10.944-20.939-1.469-16.102,9.412
		c15.924,35.816,31.018,72.214,27.466,112.198c4.677-2.684,9.353-5.367,14.03-8.051c-26.805-17.012-55.087-30.646-84.992-41.267
		c-7.272-2.583-15.38,7.211-10.529,13.697c17.064,22.815,37.654,45.392,51.149,70.556c6.816,12.709,10.388,25.454,4.311,39.2
		c-3.413,7.721-8.82,14.361-12.204,22.113C3293.527,4314.559,3309.588,4324.063,3314.382,4313.08L3314.382,4313.08z"/>
	<path style="fill:#1D1D1B;" d="M2974.194,4256.6c-31.207,31.368-55.9,71.992-75.125,111.57
		c-7.214,14.852-20.242,37.234-14.877,54.105c6.817,21.437,47.014,24.651,65.174,28.77c60.489,13.717,123.255,17.706,184.972,11.492
		c57.523-5.791,122.869-17.182,172.365-48.901c9.949-6.375,20.415-13.565,23.885-25.442c3.634-12.438,0.229-27.281-2.148-39.723
		c-6.283-32.885-20.73-63.522-41.105-89.983c-7.219-9.376-23.425-0.1-16.102,9.412c18.861,24.495,32.373,52.042,38.635,82.442
		c4.491,21.804,5.401,36.125-15.247,48.902c-13.76,8.515-28.806,14.651-44.094,19.818c-62.24,21.038-128.746,29.714-194.307,27.289
		c-33.178-1.227-66.155-5.392-98.577-12.553c-13.862-3.062-33.685-5.009-45.987-12.248c-14.826-8.724-5.76-23.737-0.435-35.576
		c18.542-41.22,44.141-84.004,76.159-116.187C2995.853,4261.268,2982.673,4248.077,2974.194,4256.6L2974.194,4256.6z"/>
	<path style="fill:#1D1D1B;" d="M2407.924,3348.125c49.284,47.655,102.056,91.566,158.059,131.123
		c26.593,18.783,54.738,35.151,81.477,53.654c14.006,9.692,27.336,20.924,34.188,36.913c8.316,19.403,4.907,41.023-0.442,60.767
		c-18.125,66.897-54.208,127.875-87.569,188.033c-34.303,61.858-63.929,125.676-93.48,189.896
		c-36.235,78.747-72.47,157.493-108.706,236.24c-4.982,10.828,11.086,20.313,16.102,9.412
		c65.566-142.488,126.073-288.885,202.186-426.136c33.629-60.643,69.584-122.09,88.574-189.287
		c8.446-29.885,11.749-63.078-6.942-89.895c-17.404-24.971-46.124-39.291-71.073-55.38
		c-71.505-46.113-138.038-99.395-199.188-158.525C2412.479,3326.593,2399.277,3339.763,2407.924,3348.125L2407.924,3348.125z"/>
	<path style="fill:#1D1D1B;" d="M2396.922,4240.941c-44.633,36.014-81.867,80.78-108.254,131.777
		c-8.658,16.732-22.448,38.359,0.042,49.517c25.755,12.778,57.882,18.51,85.958,23.59c62.676,11.341,126.722,12.208,190.149,8.38
		c31.476-1.9,62.943-4.755,94.261-8.434c21.824-2.563,46.177-6.261,60.962-24.296c17.728-21.626,15.682-57.773,14.314-83.878
		c-1.879-35.834-10.026-70.764-23.648-103.927c-4.498-10.948-22.546-6.154-17.981,4.958c13.426,32.685,21.703,66.964,23.159,102.339
		c1.296,31.5,3.303,71.106-32.976,81.877c-30.502,9.056-66.167,8.975-97.811,11.34c-32.601,2.437-65.298,3.824-97.993,3.341
		c-33.767-0.499-67.587-2.912-100.909-8.533c-15.339-2.588-30.578-5.803-45.629-9.739c-8.619-2.254-17.178-4.738-25.657-7.47
		c-4.254-1.37-8.487-2.801-12.699-4.295c-7.355-0.667-9.319-3.25-5.893-7.747c0.469-12.22,15.764-31.485,22.026-41.772
		c8.125-13.347,17.01-26.261,26.676-38.54c19.09-24.252,41.089-45.934,65.09-65.3
		C2419.448,4246.59,2406.182,4233.469,2396.922,4240.941L2396.922,4240.941z"/>
	<path style="fill:#1D1D1B;" d="M2906.428,3518.956c22.09,25.146,27.154,59.322,30.786,91.467
		c2.12,18.768,1.642,34.483-6.905,51.651c-8.068,16.205-18.206,31.605-27.337,47.229c-33.163,56.741-65.89,113.931-90.684,174.933
		c-24.113,59.325-40.121,122.508-40.275,186.831c-0.087,36.234,4.478,72.408,2.551,108.653
		c-1.895,35.633-11.67,69.393-28.812,100.685c4.252-1.115,8.505-2.23,12.757-3.345c-20.969-14.354-38.611-31.835-53.127-52.696
		c-6.807-9.782-22.978-0.471-16.102,9.412c16.409,23.582,36.108,43.157,59.817,59.386c4.078,2.791,10.466,0.836,12.757-3.345
		c15.124-27.611,25.373-57.221,29.405-88.509c4.963-38.511,0.567-77.14-0.397-115.74c-1.905-76.235,18.115-149.883,49.118-219.055
		c30.466-67.972,72.627-128.98,106.431-195.027c14.529-28.387,10.832-56.519,5.999-87.051
		c-4.596-29.036-13.118-56.264-32.796-78.664C2911.679,3496.737,2898.533,3509.969,2906.428,3518.956L2906.428,3518.956z"/>
	<path style="fill:#1D1D1B;" d="M2404.54,4261.192c69.388-0.431,135.493,20.807,203.224,32.708
		c21.732,3.819,47.354,9.14,67.295-3.473c19.841-12.55,22.231-37.082,22.862-58.365c0.356-12.003-18.292-11.993-18.647,0
		c-0.343,11.541-0.287,24.64-6.626,34.782c-7.601,12.16-22.36,13.355-35.254,12.544c-26.585-1.673-53.452-8.947-79.39-14.662
		c-50.642-11.158-101.325-22.506-153.465-22.182C2392.544,4242.619,2392.518,4261.267,2404.54,4261.192L2404.54,4261.192z"/>
	<path style="fill:#1D1D1B;" d="M2978.099,4273.068c66.313,11.654,132.278,25.196,197.771,40.825
		c24.833,5.926,53.345,14.927,78.202,4.194c18.84-8.135,32.578-26.294,30.085-47.277c-1.399-11.771-20.063-11.912-18.647,0
		c7.176,60.39-106.8,19.776-134.78,13.56c-48.997-10.886-98.24-20.595-147.673-29.283
		C2971.32,4253.024,2966.282,4270.991,2978.099,4273.068L2978.099,4273.068z"/>
	<path style="fill:#1D1D1B;" d="M1829.571,4299.759c-36.709,46.982-89.501,89.25-99.655,151.498
		c-2.852,17.482-1.789,28.479,14.742,36.289c16.327,7.714,35.572,9.928,53.255,12.263c56.931,7.515,115.09,8.415,172.425,6.849
		c55.026-1.503,107.485-8.575,158.333-31.197c21.323-9.486,25.707-19.577,29.153-42.218c6.061-39.826,2.692-80.505-5.739-119.717
		c-2.521-11.727-20.501-6.764-17.981,4.957c7.198,33.476,10.212,67.846,6.672,101.992c-0.826,7.971-1.135,19.966-4.972,27.313
		c-2.956,5.661-6.958,7.158-13.21,10.074c-43.416,20.254-90.066,27.748-137.456,29.65c-48.884,1.962-98.057,1.363-146.85-2.281
		c-21.109-1.577-42.36-3.557-63.099-7.936c-6.811-1.438-13.937-2.908-20.386-5.607c-2.35-0.984-9.197-6.268-7.755-3.25
		c-5.358-11.209,7.959-38.555,12.807-48.307c7.082-14.243,16.018-27.575,25.658-40.198c17.858-23.384,39.151-43.833,57.244-66.988
		C1850.061,4303.596,1836.955,4290.308,1829.571,4299.759L1829.571,4299.759z"/>
	<path style="fill:#1D1D1B;" d="M2952.941,2438.617c-79.164-127.054-125.437-276.413-97.385-426.495
		c25.76-137.821,116.979-262.921,253.632-306.941c73.725-23.749,152.653-17.445,226.007,4.706
		c64.38,19.441,127.97,54.803,162.211,114.883c30.74,53.936,37.555,117.348,61.423,174.095
		c24.624,58.546,69.182,99.355,131.25,115.197c60.955,15.558,148.866,14.456,175.111-55.137
		c23.63-62.66-26.187-127.606-92.349-123.99c2.198,5.306,4.395,10.611,6.593,15.917c37.797-40.701,96.117-55.64,149.857-43.896
		c56.537,12.356,100.407,54.4,121.818,107.402c46.237,114.458-19.292,236.969-121.054,294.866
		c-65.712,37.386-142.282,49.21-217.002,45.163c-8.375-0.454-11.891,10.346-6.593,15.917
		c77.627,81.632,213.138,89.781,300.902,19.994c-4.881-3.766-9.762-7.532-14.644-11.299
		c-25.907,50.29-53.068,102.066-95.718,140.404c-38.347,34.47-91.03,51.656-142.204,50.939
		c-72.269-1.013-121.997-42.303-172.718-87.972c-85.139-76.658-186.815-175.551-312.296-145.576
		c-99.776,23.834-173.039,113.461-229.028,193.316c-6.904,9.847,9.256,19.176,16.102,9.412
		c52.585-75.001,121.282-159.866,214.407-183.882c61.737-15.922,121.985,4.609,173.926,38.158
		c51.293,33.13,94.716,76.482,140.378,116.625c50.996,44.832,103.569,79.295,174.648,78.577
		c50.887-0.514,102.205-17.367,141.898-49.525c48.482-39.278,78.65-96.599,106.708-151.063c5.07-9.843-6.512-17.765-14.644-11.299
		c-79.981,63.598-204.475,53.676-274.53-19.994c-2.198,5.305-4.395,10.611-6.593,15.917
		c139.054,7.532,290.099-46.936,350.509-181.561c49.426-110.148,7.725-262.397-116.884-299.29
		c-62.975-18.645-135.168-3.258-180.429,45.482c-5.183,5.581-1.85,16.378,6.593,15.917c34.79-1.902,68.845,19.317,77.854,54.023
		c9.541,36.753-11.918,74.4-46.567,87.894c-60.65,23.62-147.857,0.966-191.912-45.575c-43.964-46.443-53.297-114.031-72.398-172.565
		c-18.537-56.804-48.704-104.349-98.546-138.583c-54.722-37.586-122.133-57.145-187.508-64.807
		c-66.731-7.821-133.065,2.047-193.838,30.877c-118.761,56.339-197.06,171.999-221.754,299.249
		c-30.268,155.974,16.182,311.546,98.669,443.932C2943.172,2458.193,2959.312,2448.842,2952.941,2438.617L2952.941,2438.617z"/>
	<path style="fill:#1D1D1B;" d="M3808.995,2584.972c126.437,34.858,235.578,128.856,273.054,256.733
		c19.476,66.456,19.696,138.382-2.591,204.182c-23.244,68.626-69.647,125.936-101.918,190.134
		c-29.215,58.12-48.759,125.246-29.065,189.587c17.688,57.787,61.842,104.241,114.236,132.686
		c89.649,48.67,289.622,81.218,303.469-66.46c5.876-62.673-29.68-125.978-82.893-158.142c-23.155-13.996-53.075-24.98-80.142-16.604
		c-12.408,3.84-22.28,12.132-28.33,23.566c-7.545,14.261-7.212,32.238-18.52,44.42c5.195,1.371,10.389,2.743,15.584,4.114
		c-20.253-65.489,26.48-124.372,84.261-149.461c58.382-25.349,130.119-27.323,188.512-1.145
		c107.627,48.248,161.588,169.894,144.182,283.371c-35.672,232.554-316.945,388.291-530.034,278.378
		c-112.132-57.838-189.531-170.694-222.428-290.447c-3.175-11.557-21.17-6.65-17.981,4.957
		c32.448,118.114,106.414,228.836,213.199,291.761c104.703,61.698,233.94,59.949,343.589,11.578
		c119.517-52.724,212.961-163.372,232.073-294.28c17.6-120.548-38.788-249.658-153.188-301.42
		c-65.904-29.82-146.197-27.459-211.551,2.975c-63.305,29.479-110.65,97.441-88.615,168.69c1.995,6.45,10.646,9.434,15.583,4.114
		c16.763-18.06,13.143-54.458,38.621-63.191c26.326-9.024,57.755,7.779,78.169,23.167c45.859,34.569,76.292,101.088,55.969,157.738
		c-24.999,69.681-112.678,71.495-173.033,59.762c-61.036-11.865-120.937-37.714-162.759-85.083
		c-43.861-49.679-56.48-113.471-39.498-177.035c17.177-64.295,56.33-118.897,89.231-175.736
		c30.054-51.92,52.367-106.216,57.637-166.457c5.098-58.278-4.614-117.961-26.983-171.947
		c-48.033-115.922-153.219-199.495-272.884-232.487C3802.366,2563.797,3797.423,2581.782,3808.995,2584.972L3808.995,2584.972z"/>
	<path style="fill:#1D1D1B;" d="M3656.238,3873.577c-3.266,76.357,17.744,150.203,64.865,210.813
		c39.112,50.309,92.073,88.632,148.865,116.746c56.958,28.195,119.917,50.978,184.331,46.708
		c88.658-5.877,183.631-58.401,212.865-146.657c15.068-45.49,7.756-100.568-26.332-135.881
		c-31.063-32.178-79.896-42.141-120.435-23.375c-5.896,2.729-5.374,10.488-1.887,14.644c20.818,24.808,23.867,68.612-4.673,89.337
		c-31.813,23.102-75.591,4.6-95.642-24.744c-21.258-31.108-23.387-70.446-19.204-106.752c4.865-42.225,14.927-84.145,22.979-125.856
		c2.264-11.725-15.705-16.747-17.981-4.957c-10.637,55.099-27.917,113.336-25.246,169.855
		c1.994,42.194,19.012,88.602,58.086,109.834c32.943,17.901,78.623,15.333,102.153-16.545c23.052-31.229,16.665-74.82-7.284-103.359
		c-0.629,4.881-1.258,9.762-1.887,14.644c39.6-18.331,87.388-0.126,109.823,36.02c23.886,38.484,20.012,88.339-1.378,126.9
		c-42.315,76.285-135.286,114.138-219.637,108.151c-51.397-3.648-103.508-25.366-148.851-48.946
		c-48.093-25.01-92.743-57.453-127.652-99.221c-48.934-58.548-70.467-131.631-67.228-207.358
		C3675.399,3861.578,3656.75,3861.603,3656.238,3873.577L3656.238,3873.577z"/>
	<path style="fill:#1D1D1B;" d="M3134.065,2720.447c70.278,69.495,140.375,139.686,203.312,216.014
		c29.263,35.489,57.903,72.426,80.197,112.786c22.948,41.542,39.696,86.289,51.905,132.091
		c24.938,93.56,20.696,187.225-6.176,279.92c-13.315,45.93-31.073,90.455-51.195,133.8c-19.229,41.424-41.189,81.168-55.258,124.806
		c-22.068,68.449-35.992,150.936-3.719,218.416c22.205,46.427,64.234,79.804,110.001,101.354
		c17.439,8.212,35.53,14.987,53.94,20.674c10.715,3.31,21.743,5.639,32.403,9.07c24.961,8.033,34.044,28.624,33.214,53.6
		c-1.344,40.433-22.777,76.179-11.178,117.286c8.757,31.031,30.927,55.914,56.469,74.616
		c113.363,83.005,305.744,64.092,358.638-80.339c4.133-11.286-13.881-16.152-17.981-4.957
		c-49.498,135.158-236.737,146.504-337.472,64.365c-27.584-22.492-47.333-53.699-44.819-90.36
		c2.638-38.471,24.053-74.957,10.22-113.772c-11.154-31.299-38.56-36.899-67.194-45.279c-17.323-5.07-34.464-10.956-50.958-18.313
		c-45.429-20.263-87.361-51.49-109.183-97.358c-33.336-70.067-11.984-160.093,14.34-228.876
		c16.624-43.437,40.205-83.999,58.611-126.715c17.248-40.029,32.428-81.006,43.577-123.175
		c22.454-84.927,26.52-172.287,5.713-257.943c-11.303-46.531-27.158-92.135-48.652-134.972
		c-20.945-41.741-48.689-79.489-77.692-115.933c-66.403-83.436-142.158-159.114-217.879-233.992
		C3138.709,2698.815,3125.515,2711.993,3134.065,2720.447L3134.065,2720.447z"/>
	<path style="fill:#1D1D1B;" d="M3068.633,2562.46c182.011-78.382,384.292-12.105,542.219,90.246
		c68.498,44.393,131.276,97.843,172.564,169.444c64.106,111.169,54.848,241.438,35.003,363.4
		c-9.575,58.846-25.969,119.355-24.999,179.276c0.807,49.837,7.005,103.25,24.969,150.015c4.26,11.088,22.296,6.273,17.981-4.957
		c-17.183-44.729-23.232-95.082-24.251-142.728c-1.263-59.061,14.84-118.627,24.28-176.649
		c19.522-119.985,29.689-247.528-27.03-359.542c-39.355-77.722-103.537-136.874-174.87-184.95
		c-70.028-47.198-146.666-86.158-227.578-110.804c-114.68-34.931-236.454-36.762-347.702,11.146
		C3048.23,2551.092,3057.717,2567.161,3068.633,2562.46L3068.633,2562.46z"/>
	<path style="fill:#1D1D1B;" d="M2998.448,2476.805c14.379-124.585,48.09-292.049,191.324-327.514
		c67.229-16.646,153.912-4.582,211.056,35.307c52.376,36.561,88.982,90.555,144.314,123.711
		c58.154,34.846,125.317,55.479,192.12,65.264c11.739,1.719,16.806-16.246,4.957-17.981
		c-66.205-9.698-132.703-29.866-190.083-64.859c-59.116-36.051-97.246-97.584-157.358-132.092
		c-59.376-34.086-143.787-43.717-209.963-27.331c-59.72,14.787-107.768,57.97-139.711,109.283
		c-43.952,70.605-55.946,155.138-65.304,236.213C2978.427,2488.705,2997.086,2488.606,2998.448,2476.805L2998.448,2476.805z"/>
	<path style="fill:#1D1D1B;" d="M3114.367,2646.51c89.764,24.362,179.729,51.668,262.307,95.232
		c86.406,45.584,157.778,109.018,208.549,192.891c53.742,88.783,94.246,190.358,121.821,290.238
		c28.653,103.784,31.317,205.909,10.293,311.318c-22.375,112.185-59.983,221.93-61.098,337.389
		c-0.116,12.003,18.531,12.012,18.647,0c1.054-109.231,35.46-213.384,57.74-319.324c10.697-50.865,18.697-102.648,18.767-154.74
		c0.072-53.765-8.03-107.414-21.069-159.489c-25.152-100.453-65.549-201.581-115.862-292.126
		c-47.539-85.554-113.266-154.752-197.411-204.903c-91.806-54.717-195.201-86.641-297.726-114.466
		C3107.728,2625.381,3102.78,2643.365,3114.367,2646.51L3114.367,2646.51z"/>
	<path style="fill:#1D1D1B;" d="M4403.925,3383.767c47.559,115.752-24.884,244.337-148.427,263.36
		c-11.824,1.821-6.802,19.792,4.957,17.981c132.778-20.446,212.544-161.945,161.451-286.299
		C4417.408,3367.862,4399.36,3372.656,4403.925,3383.767L4403.925,3383.767z"/>
	<path style="fill:#1D1D1B;" d="M3946.979,4082.174c54.845,52.552,133.581,64.919,202.245,32.818
		c10.862-5.078,1.404-21.158-9.412-16.102c-60.913,28.478-131.227,16.494-179.647-29.902
		C3951.499,4060.684,3938.293,4073.851,3946.979,4082.174L3946.979,4082.174z"/>
	<path style="fill:#1D1D1B;" d="M3474.007,2030.478c46.478,102.672,151.441,171.977,263.873,175.722
		c12.003,0.4,11.988-18.248,0-18.647c-106.341-3.542-203.978-69.745-247.771-166.487
		C3485.167,2010.15,3469.092,2019.619,3474.007,2030.478L3474.007,2030.478z"/>
	<path style="fill:#1D1D1B;" d="M2817.537,2527.671c11.901,36.509,24.887,77.485,11.191,115.351
		c-11.845,32.749-40.719,55.476-69.039,73.661c-10.066,6.464-0.726,22.611,9.412,16.102c31.092-19.965,61.242-44.488,75.593-79.581
		c17.4-42.552,4.392-88.868-9.175-130.49C2831.815,2511.354,2813.803,2516.216,2817.537,2527.671L2817.537,2527.671z"/>
	<path style="fill:#1D1D1B;" d="M1973.068,1734.282c-12.402,33.973-10.954,71.452,3.661,104.539
		c16.718,37.849,48.646,59.296,83.555,78.977c39.081,22.033,78.835,47.718,92.544,93.07c12.522,41.422,3.533,87.731-24.998,120.44
		c-7.857,9.008,5.28,22.25,13.186,13.186c51.845-59.439,46.236-150.553-12.389-203.159c-34.212-30.7-81.794-44.021-113.357-77.471
		c-31.362-33.236-39.709-82.198-24.221-124.624C1995.171,1727.949,1977.156,1723.081,1973.068,1734.282L1973.068,1734.282z"/>
	<path style="fill:#1D1D1B;" d="M2096.213,2268.799c-13.715,23.192-20.719,48.408-24.013,75.05
		c-3.501,28.316-6.9,61.528-1.416,89.685c10.168,52.21,71.666,80.864,118.653,89.874c11.726,2.249,16.749-15.72,4.957-17.981
		c-45.456-8.717-103.603-35.242-106.737-87.847c-2.745-46.067,0.762-98.964,24.657-139.369
		C2118.438,2267.857,2102.324,2258.466,2096.213,2268.799L2096.213,2268.799z"/>
	<path style="fill:#1D1D1B;" d="M1739.47,2610.216c10.302,29.052,18.354,60.89,10.164,91.54
		c-8.207,30.71-31.734,55.257-64.971,54.993c-12.002-0.095-12.014,18.552,0,18.647c35.569,0.282,64.903-22.433,78.242-54.762
		c15.463-37.475,7.622-78.503-5.453-115.376C1753.469,2594.026,1735.445,2598.865,1739.47,2610.216L1739.47,2610.216z"/>
	<path style="fill:#1D1D1B;" d="M750.352,1782.176c12.217,39.03,23.371,94.724-28.497,109.039
		c-11.553,3.189-6.647,21.184,4.957,17.981c23.858-6.585,42.721-23.267,50.04-47.248c8.524-27.926-0.131-57.933-8.519-84.731
		C764.761,1765.804,746.753,1770.677,750.352,1782.176L750.352,1782.176z"/>
	<path style="fill:#1D1D1B;" d="M872.575,4010.508c67.694-61.424,141.873-114.842,221.508-159.706
		c10.456-5.89,1.067-22.005-9.412-16.102c-80.987,45.625-156.446,100.161-225.282,162.622
		C850.483,4005.403,863.701,4018.559,872.575,4010.508L872.575,4010.508z"/>
	<path style="fill:#1D1D1B;" d="M1836.846,4321.728c74.711,18.6,151.321,27.148,228.295,25.356c11.98-0.279,12.024-18.927,0-18.647
		c-75.404,1.754-150.142-6.468-223.338-24.691C1830.157,4300.847,1825.188,4318.825,1836.846,4321.728L1836.846,4321.728z"/>
	<path style="fill:#1D1D1B;" d="M2987.099,2820.387c5.669-21.759,26.052-36.103,48.537-28.319
		c31.208,10.802,11.082,38.542-2.294,55.452c-9.953,12.582-20.369,24.799-31.209,36.625c-12.079,13.177-23.891,31.624-43.947,23.171
		c-25.131-10.592-43.454-44.015-48.985-69.079c-3.201-14.502-5.373-39.371,14.93-42.581c16.867-2.667,40.3,13.006,49.962,25.427
		c7.36,9.461,20.471-3.821,13.186-13.186c-14.474-18.606-47.457-36.026-71.556-29.767c-20.928,5.436-28.074,27.591-27.17,47.063
		c1.117,24.071,11.405,48.043,25.913,66.979c12.238,15.972,36.848,41.859,59.262,38.655c11.472-1.639,19.701-10.667,27.418-18.511
		c11.247-11.432,21.995-23.38,32.332-35.638c15.431-18.299,40.951-42.583,38.206-68.903c-2.526-24.214-28.139-37.348-50.451-36.539
		c-25.958,0.941-45.779,19.873-52.115,44.194C2966.09,2827.052,2984.072,2832.01,2987.099,2820.387L2987.099,2820.387z"/>
	<path style="fill:#1D1D1B;" d="M1117.419,1817.375c-3.128,17.162-5.355,35.69,4.646,51.125
		c8.759,13.518,24.011,19.849,38.396,25.535c11.162,4.413,16.006-13.613,4.957-17.981c-9.56-3.779-20.487-7.91-26.783-16.495
		c-7.903-10.777-5.465-24.99-3.235-37.227C1137.538,1810.599,1119.57,1805.567,1117.419,1817.375L1117.419,1817.375z"/>
	<path style="fill:#1D1D1B;" d="M1178.681,1806.046c-19.593,20.488-44.214,71.7-9.72,90.351
		c10.557,5.708,19.983-10.385,9.412-16.101c-21.249-11.489,2.99-50.08,13.494-61.064
		C1200.161,1810.558,1186.995,1797.352,1178.681,1806.046L1178.681,1806.046z"/>
	<path style="fill:#1D1D1B;" d="M1197.929,1891.998c-1.627-21.493,11.854-38.051,33.037-41.264
		c11.826-1.794,6.801-19.765-4.957-17.981c-28.822,4.371-48.918,30.3-46.727,59.245
		C1180.182,1903.89,1198.837,1903.988,1197.929,1891.998L1197.929,1891.998z"/>
</g>

    <text x="10" y="832" font-size="12" fill="gray" opacity="0.6" font-family="Arial, sans-serif">
      twoja-kolorowanka.pl
    </text>
  
</svg>
