<?xml version="1.0" encoding="utf-8"?>
<!-- Generator: Adobe Illustrator 27.5.0, SVG Export Plug-In . SVG Version: 6.00 Build 0)  -->
<svg xmlns="http://www.w3.org/2000/svg" xmlns:xlink="http://www.w3.org/1999/xlink" viewBox="0 0 650 500" width="595" height="842" preserveAspectRatio="xMidYMid meet" data-scaled="true">
<g id="BACKGROUND">
	<rect style="fill:#FFFFFF;" width="650" height="500"/>
</g>
<g id="OBJECTS">
	<g>
		<path style="fill:#191F28;" d="M312.161,180.894c-1.76,4.37-4.45,8.31-7.75,11.68c-3.47,3.55-7.09,6.97-10.64,10.45
			c-1.38,1.35-3.43-0.84-2.05-2.19c3.01-2.96,6.02-5.91,9.03-8.87c2.85-2.79,5.44-5.61,7.28-9.18c1.72-3.34,2.91-7.01,3.73-10.67
			c0.84-3.71,1.24-7.63,0.71-11.42c-0.96-6.86-5.14-12.87-11.5-15.75c-3.51-1.58-7.48-2.01-11.3-1.88
			c-3.96,0.13-7.63,1.22-11.01,3.3c-3.76,2.31-7.14,5.32-10.49,8.18c-3.64,3.09-7.18,6.3-10.63,9.6c-0.96,0.92-2.53,0.12-2.52-1.15
			c0.02-5.11-1.12-11.94-6.88-13.52c-3.93-1.08-7.42,0.48-10.22,3.02c-0.25,0.22-0.49,0.45-0.72,0.69
			c-0.75,0.75-1.94,0.76-2.69,0.01c-0.24-0.24-0.48-0.47-0.73-0.69c-2.78-2.5-6.24-4.03-10.14-2.96c-5.76,1.59-6.9,8.42-6.88,13.53
			c0.01,1.27-1.56,2.07-2.52,1.14c-3.45-3.3-6.99-6.5-10.62-9.6c-3.36-2.86-6.74-5.87-10.5-8.18c-3.38-2.07-7.05-3.16-11.01-3.29
			c-3.81-0.13-7.79,0.29-11.29,1.88c-6.37,2.88-10.55,8.89-11.5,15.74c-0.53,3.79-0.14,7.71,0.7,11.43
			c0.83,3.66,2.01,7.32,3.73,10.66c1.84,3.57,4.44,6.4,7.28,9.19c3.01,2.95,6.02,5.91,9.03,8.86c1.38,1.35-0.66,3.55-2.04,2.2
			c-3.56-3.49-7.2-6.93-10.69-10.5c-3.28-3.37-5.96-7.3-7.72-11.66c-3.03-7.52-4.84-16.46-2.44-24.42c2.11-7,7.56-12.71,14.51-15.04
			c8.08-2.72,17.29-1.55,24.3,3.25c3.59,2.46,6.93,5.32,10.23,8.15c2.63,2.26,5.19,4.58,7.72,6.95c0.58-5.67,2.87-11.52,8.85-13.16
			c5-1.38,9.51,0.51,13.07,3.7c3.57-3.23,8.11-5.16,13.15-3.78c5.98,1.65,8.27,7.49,8.85,13.16c2.53-2.36,5.1-4.69,7.73-6.94
			c3.3-2.83,6.63-5.7,10.22-8.16c7.01-4.79,16.23-5.96,24.31-3.25c6.95,2.34,12.39,8.04,14.51,15.04
			C317.021,164.414,315.191,173.364,312.161,180.894z"/>
		<path style="fill:#191F28;" d="M198.447,169.907c-0.248-0.829-1.074-1.177-1.868-1.006c-2.18,0.469-4.334,1.05-6.451,1.751
			c-1.024,0.339-2.039,0.706-3.044,1.098c-1.18,0.462-2.166,0.88-2.914,1.947c-0.466,0.664-0.016,1.684,0.635,2.025
			c0.794,0.416,1.557,0.031,2.025-0.635c-0.157,0.224,0.143-0.045,0.227-0.091c0.059-0.032,0.094-0.052,0.119-0.067
			c0.009,0,0.049-0.014,0.168-0.066c0.462-0.198,0.937-0.371,1.407-0.548c0.943-0.353,1.894-0.684,2.853-0.99
			c1.919-0.613,3.867-1.127,5.835-1.551C198.234,171.604,198.667,170.639,198.447,169.907z"/>
		<path style="fill:#191F28;" d="M197.475,164.577c-3.064-0.898-6.332-0.923-9.426-0.154c-0.763,0.19-1.263,1.128-1.006,1.868
			c0.277,0.799,1.054,1.208,1.868,1.006c1.297-0.322,2.516-0.461,3.966-0.431c1.275,0.027,2.574,0.238,3.938,0.638
			c0.755,0.221,1.656-0.372,1.793-1.134C198.76,165.529,198.282,164.814,197.475,164.577z"/>
		<path style="fill:#191F28;" d="M202.206,163.321c-5.124-6.044-10.964-12.603-19.213-13.957c-3.51-0.576-7.163-0.056-10.273,1.714
			c-3.317,1.888-5.177,5.037-6.238,8.612c-1.239,4.177-2.041,8.815,0.048,12.849c0.889,1.718,3.439,0.133,2.556-1.572
			c-1.046-2.019-1-4.352-0.635-6.543c0.34-2.037,0.831-4.158,1.661-6.055c1.562-3.569,4.866-5.771,8.717-6.173
			c9.173-0.959,16.013,7.046,21.332,13.32C201.406,166.985,203.442,164.779,202.206,163.321z"/>
		<path style="fill:#191F28;" d="M213.36,280.446c-13.254-3.386-26.513-9.889-33.763-22.021c-8.026-13.43-4.129-29.102-0.627-43.288
			c2.129-8.626,4.123-17.421,3.527-26.366c-0.128-1.925-3.127-1.827-2.998,0.105c1.092,16.407-6.617,31.736-7.591,47.96
			c-0.45,7.482,0.711,14.965,4.264,21.623c3.203,6.002,8.035,11.036,13.572,14.934c6.884,4.847,14.841,7.906,22.957,9.979
			C214.572,283.852,215.233,280.925,213.36,280.446z"/>
		<path style="fill:#191F28;" d="M239.899,232.68c-4.53-0.202-9.233-0.344-13.607,1.06c-3.313,1.064-5.951,3.051-8.078,5.607
			c0.25-4.248,1.246-8.465,2.027-12.628c0.918-4.894,1.794-9.798,2.765-14.682c1.576-7.932,4.658-17.721,13.671-19.718
			c1.89-0.419,1.013-3.29-0.862-2.874c-6.948,1.54-11.438,7.697-13.694,14.067c-1.345,3.799-2.037,7.785-2.778,11.734
			c-0.797,4.246-1.593,8.491-2.39,12.737c-0.805,4.289-1.747,8.611-1.798,12.988c-4.569-0.841-9.623-0.508-13.59,1.925
			c-1.957,1.201-3.547,2.97-4.249,5.181c-0.86,2.71-0.455,5.872,0.226,8.58c1.39,5.528,4.919,9.888,9.257,13.441
			c0.225,0.184,0.453,0.372,0.681,0.561c2.61,7.199,5.312,14.615,10.173,20.644c4.826,5.986,13.958,9.131,21.565,8.034
			c1.893-0.273,1.807-3.274-0.105-2.998c-3.573,0.515-8.042-0.069-11.405-1.367c-3.416-1.318-6.099-3.326-8.291-6.261
			c-3.329-4.457-5.553-9.546-7.514-14.722c0.647,0.404,1.308,0.771,1.988,1.074c2.607,1.162,5.434,1.147,8.17,0.47
			c6.085-1.506,10.665-6.067,14.799-10.532c-0.754-0.657-1.496-1.327-2.228-2.009c-3.078,3.336-6.312,6.703-10.485,8.635
			c-2.175,1.007-4.749,1.693-7.151,1.29c-2.338-0.392-4.264-2.002-6.096-3.398c-3.836-2.924-7.561-6.185-9.486-10.724
			c-1.59-3.749-2.899-9.514,0.618-12.556c3.674-3.178,9.47-3.122,13.997-2.014c3.91,6.891,11.282,10.629,18.74,12.878
			c1.848,0.557,2.503-2.371,0.659-2.927c-6.269-1.891-12.958-5.016-16.471-10.768c2.122-3.375,4.967-5.906,8.888-7
			c3.933-1.097,8.12-0.909,12.157-0.729C241.935,235.764,241.818,232.765,239.899,232.68z"/>
		<path style="fill:#191F28;" d="M210.727,201.565c-1.669-1.421-4.099-1.771-6.109-0.903c-1.865,0.805-3.1,2.281-3.769,4.017
			c-0.802,1.572-0.943,3.619-0.808,5.245c0.192,2.306,1.312,4.699,3.527,5.694c2.277,1.022,4.708,0.156,6.452-1.461
			c1.67-1.547,2.614-3.847,2.818-6.084C213.043,205.827,212.528,203.098,210.727,201.565z"/>
		<path style="fill:#191F28;" d="M236.54,101.293c-11.676-8.506-25.819-13.154-40.277-13.128c-1.047,0.002-1.925,1.386-1.226,2.285
			l8.663,11.124c-14.822-1.956-30.097,0.921-43.185,8.221c-1.06,0.591-0.833,2.046,0.091,2.608
			c3.609,2.193,6.988,4.708,10.154,7.489c-4.295,1.135-8.23,3.299-11.911,5.829c-4.303,2.958-8.357,6.298-12.103,9.934
			c-7.43,7.21-13.682,15.676-18.408,24.887c-2.65,5.166-4.805,10.58-6.467,16.142c-0.303,1.015,0.875,2.199,1.895,1.767
			c5.012-2.127,10.277-3.453,15.664-3.96c-3.286,3.457-5.377,7.93-6.782,12.527c-2.04,6.675-2.978,13.76-3.358,20.713
			c-0.778,14.221,1.44,28.643,6.398,41.992c2.819,7.589,6.514,14.844,11.037,21.559c1.077,1.599,3.636,0.031,2.556-1.572
			c-15.219-22.597-20.898-51.61-14.723-78.218c1.528-6.584,4.141-13.597,10.038-17.464c1.258-0.825,0.673-2.791-0.838-2.777
			c-6.154,0.057-12.259,1.151-18.04,3.231c5.939-17.686,17.385-33.513,32.42-44.579c4.717-3.471,9.935-6.868,15.863-7.656
			c1.247-0.166,1.975-1.642,0.971-2.596c-3.306-3.141-6.901-5.95-10.711-8.448c13.052-6.646,28.201-8.835,42.608-6.099
			c1.146,0.218,2.45-1.168,1.608-2.249c-3.015-3.871-6.03-7.743-9.045-11.614c12.552,0.58,24.889,4.837,35.062,12.248
			C236.035,104.609,238.1,102.429,236.54,101.293z"/>
		<path style="fill:#191F28;" d="M207.27,316.124c-10.94-7.017-19.718-17.088-25.312-28.806c-0.625-1.309-2.382-0.64-2.742,0.456
			c-1.495,4.559-2.02,9.379-1.57,14.147c-0.738-0.301-1.552-1.185-1.947-1.541c-1.001-0.9-1.988-1.816-2.961-2.748
			c-2.053-1.966-4.042-4-5.961-6.096c-3.802-4.153-7.307-8.559-10.53-13.175c-1.102-1.579-3.662-0.013-2.556,1.572
			c3.716,5.323,7.811,10.385,12.261,15.113c2.205,2.342,4.497,4.603,6.869,6.775c1.855,1.698,4.578,4.465,7.248,2.65
			c0.414-0.281,0.784-0.798,0.713-1.33c-0.488-3.659-0.364-7.306,0.354-10.877c5.858,10.751,14.423,19.9,24.742,26.519
			C207.503,319.825,208.888,317.162,207.27,316.124z"/>
		<path style="fill:#191F28;" d="M233.631,338.603c-4.364-4.62-8.866-9.107-13.502-13.455c-1.408-1.321-3.456,0.872-2.046,2.194
			c4.636,4.347,9.138,8.834,13.502,13.455c0.557,0.59,1.592,0.492,2.12-0.074C234.288,340.097,234.189,339.194,233.631,338.603z"/>
		<path style="fill:#191F28;" d="M229.039,356.715c-16.316-11.038-33.973-20.96-46.712-36.346
			c-3.315-4.003-6.198-8.363-8.531-13.008c-0.657-1.308-2.356-0.636-2.742,0.456c-0.82,2.323-1.639,4.647-2.459,6.97
			c-0.219,0.62-0.437,1.239-0.656,1.859c-0.07,0.197-0.139,0.395-0.209,0.592c-0.487-0.653-1.172-1.498-1.282-1.657
			c-2.528-3.638-4.908-7.379-7.134-11.209c-4.503-7.747-8.358-15.852-11.537-24.229c-0.535-1.41-2.48-1.381-2.901,0.101
			c-0.744,2.619-1.556,5.218-2.437,7.794c-5.786-12.605-7.824-26.847-5.741-40.574c0.288-1.897-2.636-2.575-2.927-0.659
			c-2.378,15.668,0.297,31.809,7.601,45.874c0.49,0.943,2.217,0.969,2.608-0.091c0.914-2.477,1.764-4.974,2.557-7.489
			c0.745,1.822,1.529,3.626,2.333,5.422c-0.03,0.098-0.052,0.205-0.063,0.322c-1.378,14.469,0.51,29.274,6.654,42.528
			c1.741,3.757,3.837,7.335,6.258,10.694c0.795,1.102,2.337,0.816,2.742-0.456c1.064-3.348,2.291-6.634,3.668-9.862
			c6.775,13.174,17.875,23.581,29.797,32.159c3.848,2.769,7.797,5.392,11.79,7.946c1.624,1.039,3.009-1.624,1.39-2.66
			c-13.216-8.45-26.307-17.897-35.468-30.855c-2.434-3.443-4.552-7.096-6.296-10.935c-0.474-1.044-2.167-0.868-2.608,0.091
			c-1.568,3.413-2.961,6.901-4.193,10.448c-7.034-10.852-10.571-23.644-11.114-36.543c-0.104-2.471-0.092-4.948,0.014-7.42
			c1.131,2.302,2.3,4.585,3.54,6.831c1.924,3.483,3.975,6.897,6.146,10.232c1.106,1.699,2.244,3.378,3.412,5.034
			c0.89,1.263,1.97,3.186,3.811,2.802c2.082-0.434,2.503-3.534,3.091-5.199c0.453-1.283,0.906-2.567,1.358-3.85
			c9.16,16.157,24.558,27.529,39.804,37.62c5.011,3.316,10.07,6.559,15.047,9.926C229.244,360.453,230.625,357.788,229.039,356.715z
			"/>
		<path style="fill:#191F28;" d="M235.502,116.566c-2.939-3.384-6.535-6.191-10.511-8.257c-0.719-0.373-1.648-0.084-2.025,0.635
			c-0.376,0.719-0.086,1.65,0.635,2.025c1.899,0.986,3.635,2.096,5.214,3.347c1.683,1.333,3.233,2.824,4.64,4.444
			c0.532,0.613,1.609,0.474,2.12-0.074C236.177,118.041,236.035,117.18,235.502,116.566z"/>
		<path style="fill:#191F28;" d="M236.009,128.32c-2.231-1.334-4.433-2.745-6.731-3.962c-2.215-1.173-4.584-2.034-7.116-2.045
			c-1.935-0.008-1.824,2.99,0.105,2.998c2.165,0.009,4.164,0.905,6.029,1.926c2.146,1.175,4.223,2.486,6.323,3.742
			c0.696,0.416,1.664,0.053,2.025-0.635C237.038,129.592,236.706,128.738,236.009,128.32z"/>
		<path style="fill:#191F28;" d="M234.2,136.214c-3.376-2.078-7.077-3.615-10.922-4.576c-0.786-0.196-1.618,0.357-1.793,1.134
			c-0.182,0.807,0.345,1.596,1.134,1.793c3.61,0.902,7.007,2.349,10.192,4.309c0.69,0.425,1.668,0.047,2.025-0.635
			C235.233,137.478,234.892,136.64,234.2,136.214z"/>
		<path style="fill:#191F28;" d="M147.672,150.793c-0.388-0.63-1.422-0.994-2.064-0.492c-5.687,4.447-10.46,9.91-14.053,16.177
			c-0.96,1.674,1.698,3.066,2.66,1.39c3.309-5.77,7.723-10.911,12.965-15.01C147.818,152.359,148.131,151.538,147.672,150.793z"/>
		<path style="fill:#191F28;" d="M161.621,139.38c-0.47-0.692-1.333-0.907-2.064-0.492c-2.705,1.536-5.233,3.338-7.608,5.346
			c-0.602,0.508-0.493,1.637,0.074,2.12c0.68,0.579,1.476,0.471,2.12-0.074c0.135-0.115,0.271-0.228,0.408-0.342
			c0.025-0.021,0.023-0.019,0.036-0.03c0.056-0.045,0.111-0.091,0.167-0.136c0.294-0.236,0.59-0.469,0.889-0.698
			c0.58-0.445,1.171-0.877,1.772-1.294c1.201-0.836,2.441-1.613,3.714-2.336C161.811,141.057,162.065,140.034,161.621,139.38z"/>
		<path style="fill:#191F28;" d="M147.623,183.236c-0.78-0.408-1.574-0.042-2.025,0.635c-3.441,5.175-5.712,11.105-6.619,17.253
			c-0.28,1.898,2.645,2.576,2.927,0.659c0.874-5.927,3.034-11.534,6.351-16.522C148.707,184.586,148.287,183.583,147.623,183.236z"
			/>
		<path style="fill:#191F28;" d="M149.043,193.042c-0.689-0.322-1.695-0.138-2.025,0.635c-1.371,3.217-2.179,6.576-2.447,10.061
			c-0.06,0.786,0.805,1.505,1.551,1.447c0.885-0.069,1.382-0.713,1.447-1.551c0.216-2.812,1.003-5.972,2.108-8.566
			C149.985,194.346,149.817,193.404,149.043,193.042z"/>
		<path style="fill:#191F28;" d="M273.338,169.831c0.248-0.829,1.074-1.177,1.868-1.006c2.18,0.469,4.334,1.05,6.451,1.751
			c1.024,0.339,2.039,0.706,3.044,1.098c1.18,0.462,2.166,0.88,2.914,1.947c0.466,0.664,0.016,1.684-0.635,2.025
			c-0.794,0.416-1.557,0.031-2.025-0.635c0.157,0.224-0.143-0.045-0.227-0.091c-0.059-0.032-0.094-0.052-0.119-0.067
			c-0.009,0-0.049-0.014-0.168-0.066c-0.462-0.198-0.937-0.371-1.407-0.548c-0.943-0.353-1.894-0.684-2.853-0.99
			c-1.919-0.613-3.867-1.127-5.835-1.551C273.552,171.528,273.119,170.563,273.338,169.831z"/>
		<path style="fill:#191F28;" d="M274.31,164.501c3.064-0.898,6.332-0.923,9.426-0.154c0.763,0.19,1.263,1.128,1.006,1.868
			c-0.277,0.799-1.054,1.208-1.868,1.006c-1.297-0.322-2.516-0.461-3.966-0.431c-1.275,0.027-2.574,0.238-3.938,0.638
			c-0.755,0.221-1.656-0.372-1.793-1.134C273.025,165.453,273.503,164.738,274.31,164.501z"/>
		<path style="fill:#191F28;" d="M269.579,163.245c5.124-6.044,10.964-12.603,19.213-13.957c3.51-0.576,7.163-0.056,10.273,1.714
			c3.317,1.888,5.177,5.037,6.238,8.612c1.239,4.177,2.041,8.815-0.048,12.849c-0.889,1.718-3.439,0.133-2.556-1.572
			c1.046-2.019,1-4.352,0.635-6.543c-0.34-2.037-0.831-4.158-1.661-6.055c-1.562-3.569-4.866-5.771-8.717-6.173
			c-9.173-0.959-16.013,7.046-21.332,13.32C270.379,166.909,268.344,164.703,269.579,163.245z"/>
		<path style="fill:#191F28;" d="M258.426,280.37c13.254-3.386,26.513-9.889,33.763-22.021c8.026-13.43,4.129-29.102,0.627-43.288
			c-2.129-8.626-4.123-17.421-3.527-26.366c0.128-1.925,3.127-1.827,2.998,0.105c-1.092,16.407,6.617,31.736,7.591,47.96
			c0.45,7.482-0.711,14.965-4.264,21.623c-3.203,6.002-8.035,11.036-13.572,14.934c-6.884,4.847-14.841,7.906-22.957,9.979
			C257.214,283.776,256.552,280.849,258.426,280.37z"/>
		<path style="fill:#191F28;" d="M231.887,232.604c4.53-0.202,9.233-0.344,13.607,1.06c3.313,1.064,5.951,3.051,8.078,5.607
			c-0.25-4.248-1.246-8.465-2.027-12.628c-0.918-4.894-1.794-9.798-2.765-14.682c-1.576-7.932-4.658-17.721-13.671-19.718
			c-1.89-0.419-1.013-3.29,0.862-2.874c6.948,1.54,11.438,7.697,13.694,14.067c1.345,3.799,2.037,7.785,2.778,11.734
			c0.797,4.246,1.593,8.491,2.39,12.737c0.805,4.289,1.748,8.611,1.798,12.988c4.569-0.841,9.623-0.508,13.59,1.925
			c1.957,1.201,3.547,2.97,4.249,5.181c0.86,2.71,0.455,5.872-0.226,8.58c-1.39,5.528-4.919,9.888-9.257,13.441
			c-0.225,0.184-0.453,0.372-0.681,0.561c-2.61,7.199-5.312,14.615-10.173,20.644c-4.826,5.986-13.098,9.26-20.706,8.163
			c-1.893-0.273-1.807-3.274,0.105-2.998c3.573,0.515,7.183-0.198,10.546-1.495c3.416-1.318,6.099-3.326,8.291-6.261
			c3.329-4.457,5.553-9.546,7.514-14.722c-0.647,0.404-1.308,0.771-1.988,1.074c-2.607,1.162-5.434,1.147-8.17,0.47
			c-6.36-1.574-10.737-5.927-15.018-10.578c-1.307-1.42,0.884-3.469,2.194-2.046c3.258,3.539,6.296,6.662,10.737,8.718
			c2.175,1.007,4.749,1.693,7.151,1.29c2.338-0.392,4.264-2.002,6.096-3.398c3.836-2.924,7.561-6.185,9.486-10.724
			c1.59-3.749,2.899-9.514-0.618-12.556c-3.674-3.178-9.47-3.122-13.997-2.014c-3.91,6.891-12.381,10.761-19.84,13.01
			c-1.848,0.557-2.503-2.371-0.659-2.927c6.269-1.891,14.057-5.149,17.57-10.9c-2.122-3.375-4.967-5.906-8.888-7
			c-3.933-1.097-8.12-0.909-12.157-0.729C229.851,235.688,229.968,232.689,231.887,232.604z"/>
		<path style="fill:#191F28;" d="M261.059,201.489c1.669-1.421,4.099-1.771,6.109-0.903c1.865,0.805,3.1,2.281,3.769,4.017
			c0.802,1.572,0.943,3.619,0.808,5.245c-0.192,2.306-1.312,4.699-3.527,5.694c-2.277,1.022-4.708,0.156-6.452-1.461
			c-1.67-1.547-2.614-3.847-2.818-6.084C258.743,205.751,259.258,203.022,261.059,201.489z"/>
		<path style="fill:#191F28;" d="M235.245,101.217c11.676-8.506,25.819-13.154,40.277-13.128c1.047,0.002,1.925,1.386,1.226,2.285
			l-8.663,11.124c14.822-1.956,30.097,0.921,43.185,8.221c1.06,0.591,0.833,2.046-0.091,2.608
			c-3.609,2.193-6.988,4.708-10.154,7.489c4.295,1.135,8.23,3.299,11.911,5.829c4.303,2.958,8.357,6.298,12.103,9.934
			c7.43,7.21,13.682,15.676,18.408,24.887c2.65,5.166,4.805,10.58,6.467,16.142c0.303,1.015-0.875,2.199-1.895,1.767
			c-5.012-2.127-10.277-3.453-15.664-3.96c3.286,3.457,5.377,7.93,6.782,12.527c2.04,6.675,2.978,13.76,3.358,20.713
			c0.778,14.221-1.44,28.643-6.398,41.992c-2.819,7.589-6.514,14.844-11.037,21.559c-1.077,1.599-3.636,0.031-2.556-1.572
			c15.219-22.597,20.898-51.61,14.723-78.218c-1.528-6.584-4.141-13.597-10.038-17.464c-1.258-0.825-0.673-2.791,0.838-2.777
			c6.154,0.057,12.259,1.151,18.04,3.231c-5.939-17.686-17.385-33.513-32.42-44.579c-4.717-3.471-9.935-6.868-15.863-7.656
			c-1.247-0.166-1.975-1.642-0.971-2.596c3.306-3.141,6.901-5.95,10.711-8.448c-13.052-6.646-28.201-8.835-42.608-6.099
			c-1.146,0.218-2.45-1.168-1.608-2.249c3.015-3.871,6.03-7.743,9.045-11.614c-12.552,0.58-24.889,4.837-35.062,12.248
			C235.751,104.533,233.686,102.353,235.245,101.217z"/>
		<path style="fill:#191F28;" d="M264.516,316.048c10.94-7.017,19.718-17.088,25.312-28.806c0.625-1.309,2.382-0.64,2.742,0.456
			c1.495,4.559,2.02,9.379,1.57,14.147c0.738-0.301,1.552-1.185,1.947-1.541c1.001-0.9,1.988-1.816,2.961-2.748
			c2.053-1.966,4.042-4,5.961-6.096c3.802-4.153,7.307-8.559,10.53-13.175c1.102-1.579,3.662-0.013,2.556,1.572
			c-3.716,5.323-7.811,10.385-12.261,15.113c-2.205,2.342-4.497,4.603-6.869,6.775c-1.855,1.698-4.578,4.465-7.248,2.65
			c-0.414-0.281-0.784-0.798-0.713-1.33c0.488-3.659,0.364-7.306-0.354-10.877c-5.858,10.751-14.423,19.9-24.742,26.519
			C264.282,319.749,262.898,317.086,264.516,316.048z"/>
		<path style="fill:#191F28;" d="M238.155,338.527c4.364-4.62,8.866-9.107,13.502-13.455c1.408-1.321,3.456,0.872,2.046,2.194
			c-4.636,4.347-9.138,8.834-13.502,13.455c-0.557,0.59-1.592,0.492-2.12-0.074C237.498,340.021,237.596,339.118,238.155,338.527z"
			/>
		<path style="fill:#191F28;" d="M338.013,246.73c-0.291-1.916-3.215-1.238-2.927,0.659c2.083,13.727,0.045,27.969-5.741,40.574
			c-0.881-2.576-1.693-5.175-2.437-7.794c-0.421-1.482-2.366-1.511-2.901-0.101c-3.179,8.378-7.034,16.482-11.537,24.229
			c-2.226,3.83-4.607,7.57-7.134,11.209c-0.11,0.158-0.795,1.004-1.282,1.657c-0.07-0.197-0.139-0.395-0.209-0.592
			c-0.219-0.62-0.437-1.239-0.656-1.859c-0.82-2.323-1.639-4.647-2.459-6.97c-0.385-1.093-2.085-1.765-2.742-0.456
			c-2.333,4.645-5.216,9.005-8.531,13.008c-12.739,15.385-30.396,25.307-46.712,36.346c-1.586,1.073-0.205,3.738,1.39,2.66
			c4.977-3.367,10.036-6.61,15.047-9.926c15.246-10.09,30.644-21.462,39.804-37.62c0.453,1.283,0.906,2.567,1.358,3.85
			c0.587,1.665,1.008,4.765,3.091,5.199c1.841,0.383,2.921-1.539,3.811-2.802c1.168-1.657,2.306-3.335,3.412-5.034
			c2.171-3.335,4.221-6.749,6.146-10.232c0.588-1.065,1.158-2.139,1.717-3.218c0.458-1.383,1.284-2.651,1.929-3.951
			c1.078-2.171,2.192-4.375,3.054-6.641c0.058-0.153,0.149-0.283,0.254-0.398c0.508-1.162,1.008-2.328,1.488-3.502
			c0.794,2.515,1.644,5.012,2.557,7.489c0.391,1.06,2.118,1.034,2.608,0.091C337.716,278.539,340.391,262.398,338.013,246.73z"/>
		<path style="fill:#191F28;" d="M236.284,116.489c2.939-3.384,6.535-6.191,10.511-8.257c0.719-0.373,1.648-0.084,2.025,0.635
			c0.376,0.719,0.086,1.65-0.635,2.025c-1.899,0.986-3.635,2.096-5.214,3.347c-1.683,1.333-3.233,2.824-4.64,4.444
			c-0.532,0.613-1.609,0.474-2.12-0.074C235.608,117.965,235.75,117.104,236.284,116.489z"/>
		<path style="fill:#191F28;" d="M235.777,128.244c2.231-1.334,4.433-2.745,6.731-3.962c2.215-1.173,4.584-2.034,7.116-2.045
			c1.935-0.008,1.824,2.99-0.105,2.998c-2.165,0.009-4.164,0.905-6.029,1.926c-2.146,1.175-4.223,2.486-6.323,3.742
			c-0.696,0.416-1.664,0.053-2.025-0.635C234.748,129.516,235.079,128.662,235.777,128.244z"/>
		<path style="fill:#191F28;" d="M237.585,136.138c3.376-2.078,7.077-3.615,10.922-4.576c0.786-0.196,1.618,0.357,1.793,1.134
			c0.182,0.807-0.345,1.596-1.134,1.793c-3.61,0.902-7.007,2.349-10.192,4.309c-0.69,0.425-1.668,0.047-2.025-0.635
			C236.553,137.402,236.893,136.564,237.585,136.138z"/>
		<path style="fill:#191F28;" d="M324.113,150.717c0.388-0.63,1.422-0.994,2.064-0.492c5.687,4.447,10.46,9.91,14.053,16.177
			c0.96,1.674-1.698,3.066-2.66,1.39c-3.309-5.77-7.723-10.911-12.965-15.01C323.968,152.283,323.655,151.461,324.113,150.717z"/>
		<path style="fill:#191F28;" d="M310.164,139.304c0.47-0.692,1.333-0.907,2.064-0.492c2.705,1.536,5.233,3.338,7.608,5.346
			c0.602,0.508,0.493,1.637-0.074,2.12c-0.68,0.579-1.476,0.471-2.12-0.074c-0.135-0.115-0.271-0.228-0.408-0.342
			c-0.025-0.021-0.023-0.019-0.036-0.03c-0.056-0.045-0.111-0.091-0.167-0.136c-0.294-0.236-0.59-0.469-0.889-0.698
			c-0.58-0.445-1.171-0.877-1.772-1.294c-1.201-0.836-2.441-1.613-3.714-2.336C309.974,140.981,309.72,139.958,310.164,139.304z"/>
		<path style="fill:#191F28;" d="M324.162,183.16c0.78-0.408,1.574-0.042,2.025,0.635c3.441,5.175,5.712,11.105,6.619,17.253
			c0.28,1.898-2.645,2.576-2.927,0.659c-0.874-5.927-3.034-11.534-6.351-16.522C323.078,184.51,323.499,183.507,324.162,183.16z"/>
		<path style="fill:#191F28;" d="M322.743,192.966c0.689-0.322,1.695-0.138,2.025,0.635c1.371,3.217,2.179,6.576,2.447,10.061
			c0.06,0.786-0.805,1.505-1.551,1.447c-0.885-0.069-1.382-0.713-1.447-1.551c-0.216-2.812-1.003-5.972-2.108-8.566
			C321.801,194.27,321.969,193.328,322.743,192.966z"/>
		<path style="fill:#191F28;" d="M584.049,368.816c-1.298-8.508-5.369-16.814-12.111-22.316c-1.385-1.13-2.873-2.128-4.436-2.993
			c1.394-17.784-4.668-35.358-14.631-49.958c-10.146-14.867-23.927-26.897-38.386-37.431c-7.437-5.418-15.221-10.438-23.642-14.194
			c-8.814-3.931-18.156-6.168-27.731-7.212c-9.701-1.058-19.466-1.076-29.212-1.147c-10.237-0.075-20.465-0.386-30.681-1.058
			c-10.052-0.661-20.124-1.542-30.098-2.979c-8.958-1.29-17.957-3.2-26.217-7.004c-2.033-0.937-4.008-1.988-5.925-3.144
			c-1.652-0.997-3.041,1.664-1.39,2.66c15.808,9.536,35.12,11.07,53.095,12.649c10.135,0.89,20.299,1.463,30.47,1.716
			c9.804,0.244,19.618,0.056,29.417,0.504c9.57,0.438,19.171,1.554,28.344,4.426c8.684,2.719,16.785,7.064,24.378,12.03
			c7.555,4.941,14.773,10.477,21.623,16.354c6.691,5.74,13.036,11.955,18.547,18.848c11.106,13.89,19.064,30.913,19.293,48.946
			c0.028,2.178-0.054,4.36-0.265,6.528c-0.065,0.669,0.124,1.33,0.769,1.659c7.524,3.85,12.62,11.109,14.885,19.139
			c2.505,8.884,1.231,18.333-2.34,26.747c-7.318,17.238-22.756,30.354-39.558,37.94c-17.912,8.088-38.019,10.06-57.342,6.998
			c-10.342-1.639-20.461-4.62-30.09-8.722c-9.822-4.184-18.932-9.8-28.648-14.202c-18.889-8.558-40.154-11.19-60.566-7.549
			c-2.491,0.444-4.961,0.99-7.41,1.62c-1.875,0.482-1.004,3.354,0.862,2.874c20.591-5.297,42.888-3.819,62.545,4.333
			c10.164,4.215,19.52,10.1,29.555,14.591c9.788,4.38,20.092,7.674,30.652,9.57c19.787,3.553,40.468,2.103,59.106-5.686
			c17.381-7.264,33.369-19.946,41.975-36.983C583.143,387.939,585.488,378.255,584.049,368.816z"/>
		<path style="fill:#191F28;" d="M554.589,370.897c-0.471-1.681-1.142-3.294-1.944-4.843c-0.89-1.717-3.44-0.133-2.556,1.572
			c3.153,6.084,3.062,13.254,0.952,19.658c-2.183,6.626-6.74,12.252-12.174,16.53c-1.469,1.157-3,2.226-4.576,3.227
			c1.694-7.451-1.103-14.895-4.194-21.761c-1.834-4.073-3.81-8.08-5.925-12.014c-1.933-3.596-4.36-7.657-3.094-11.868
			c0.556-1.849-2.372-2.504-2.927-0.659c-1.182,3.929,0.256,7.844,2.014,11.356c1.964,3.922,4.103,7.743,5.974,11.714
			c3.463,7.35,7.819,16.273,4.709,24.485c-0.109,0.287-0.124,0.562-0.082,0.818c-3.383,1.854-6.924,3.429-10.527,4.78
			c-7.306,2.739-14.945,4.615-22.691,5.55c-15.494,1.87-31.08,0.033-45.785-5.141c-14.988-5.274-29.098-12.89-44.875-15.721
			c-7.594-1.363-15.353-1.808-23.057-1.349c-3.134-5.898-9.379-9.126-15.453-11.243c-7.45-2.596-15.408-3.646-23.278-3.183
			c-1.319,0.078-1.894,1.674-0.971,2.596c1.089,1.087,2.177,2.174,3.266,3.261c-6.517-0.297-13.033,1.16-18.893,4.115
			c-5.141,2.593-9.402,6.312-12.782,10.792c-0.585-5.426,2.306-10.818,6.244-14.505c4.899-4.587,11.614-7.012,18.176-7.895
			c7.543-1.015,15.137-0.119,22.567,1.303c7.99,1.529,15.886,3.479,23.907,4.861c9.066,1.562,18.206,2.667,27.38,3.356
			c1.418,0.107,1.756-1.745,0.971-2.596c-7.442-8.065-14.921-16.164-21.123-25.248c-6.255-9.16-11.066-19.33-13.858-30.079
			c-2.701-10.399-3.39-21.48-0.665-31.949c2.382-9.155,7.377-17.871,14.835-23.819c4.513-3.599,9.793-6.145,15.312-7.782
			c5.251-1.557,11.235-2.353,16.152,0.602c1.654,0.994,3.042-1.666,1.39-2.66c-4.536-2.726-9.971-2.705-15.012-1.674
			c-5.319,1.087-10.56,3.208-15.195,6.025c-8.72,5.3-15.112,13.69-18.67,23.19c-8.08,21.576-1.394,46.116,10.182,65.118
			c6.129,10.06,13.973,18.905,21.924,27.557c-7.368-0.651-14.71-1.574-22.005-2.805c-8.504-1.435-16.866-3.519-25.337-5.114
			c-12.88-2.425-27.652-3.059-38.957,4.32c-0.499-1.82-1.289-3.56-2.069-5.283c-1.117-2.469-2.35-4.882-3.525-7.323
			c-2.28-4.741-4.325-9.69-4.484-15.019c-0.057-1.933-3.056-1.828-2.998,0.105c0.157,5.282,1.993,10.203,4.196,14.943
			c1.112,2.392,2.315,4.74,3.446,7.124c1.089,2.295,2.412,4.807,2.809,7.358c-0.379,0.307-0.753,0.624-1.122,0.953
			c-5.566,4.959-9.201,12.973-6.804,20.369c-0.661,1.092-1.292,2.207-1.86,3.366c-2.302,4.701-4.73,9.993-4.963,15.29
			c-0.046,1.055,1.419,1.915,2.285,1.226c8.954-7.13,21.044-6.291,31.713-4.919c6.696,0.861,13.557,1.818,20.253,1.349
			c0.251,0.278,0.618,0.463,1.097,0.463h74.317c1.935,0,1.825-2.998-0.105-2.998h-63.975c0.479-0.197,0.958-0.392,1.433-0.616
			c2.438-1.148,4.701-2.673,6.639-4.549c2.317-2.242,3.883-5.005,5.343-7.849c0.88-1.715-1.775-3.113-2.66-1.39
			c-1.286,2.505-2.613,4.926-4.617,6.937c-1.63,1.634-3.557,2.934-5.613,3.972c-4.336,2.188-9.284,3.099-14.108,3.223
			c-11.784,0.302-23.352-3.489-35.157-2.227c-4.707,0.503-9.364,1.781-13.421,4.204c0.729-3.305,2.25-6.547,3.627-9.524
			c1.717-3.712,3.797-7.239,6.585-10.252c4.919-5.317,11.531-8.915,18.602-10.403c4.043-0.851,8.246-0.937,12.318-0.248
			c1.464,0.248,2.43-1.485,1.353-2.561c-1.262-1.26-2.525-2.521-3.787-3.781c6.161,0.002,12.283,0.962,18.152,2.902
			c5.166,1.708,10.54,4.267,13.641,8.87c-6.771,0.637-13.476,1.977-19.963,4.021c-1.861,0.586-3.701,1.235-5.524,1.933
			c-1.796,0.688-0.943,3.565,0.862,2.874c15.055-5.768,31.529-7.633,47.488-5.28c8.056,1.188,15.82,3.536,23.398,6.48
			c7.654,2.974,15.141,6.365,22.86,9.174c15.033,5.47,31.017,7.628,46.949,5.879c7.864-0.863,15.638-2.607,23.091-5.266
			c6.88-2.455,13.631-5.609,19.526-9.961c5.687-4.199,10.667-9.559,13.537-16.086C555.492,384.914,556.475,377.634,554.589,370.897z
			"/>
		<path style="fill:#191F28;" d="M242.805,356.496c-9.62,8.295-22.124,12.183-34.249,15.125
			c-13.345,3.238-26.949,5.211-40.549,7.016c-13.707,1.819-27.447,3.479-41.037,6.065c-6.792,1.292-13.544,2.819-20.193,4.716
			c-5.955,1.699-11.977,3.791-16.789,7.823c-4.672,3.916-8.217,10.113-7.259,16.377c0.897,5.863,5.54,10.965,11.622,11.315
			c1.929,0.111,1.81-2.888-0.105-2.998c-4.963-0.286-8.547-5.307-8.668-10.002c-0.14-5.469,3.449-10.449,7.743-13.506
			c5.047-3.593,11.139-5.301,17.046-6.892c6.373-1.716,12.828-3.113,19.318-4.307c26.016-4.786,52.569-6.32,78.356-12.405
			c13.165-3.107,26.537-7.297,36.958-16.283C246.459,357.283,244.254,355.246,242.805,356.496z"/>
		<path style="fill:#191F28;" d="M105.45,424.505c-1.613-0.917-3.109-2.105-4.271-3.563c-1.201-1.506-1.199-3.303-1.074-5.156
			c0.244-3.61,1.618-7.157,3.837-10.009c1.176-1.512-1.007-3.572-2.194-2.046c-2.81,3.612-4.453,7.932-4.66,12.513
			c-0.105,2.329,0.156,4.533,1.645,6.405c1.47,1.848,3.276,3.349,5.328,4.514C105.738,428.118,107.13,425.46,105.45,424.505z"/>
		<path style="fill:#191F28;" d="M165.223,422.152c-7.094,6.941-18.502,3.256-27.129,2.896c-2.685-0.112-5.327,0.108-7.957,0.652
			c-2.636,0.545-5.228,1.375-7.912,1.665c-3.98,0.43-8.628-0.538-10.08-4.771c-1.712-4.988,0.32-10.997,3.479-14.96
			c1.196-1.5-0.988-3.558-2.194-2.046c-3.308,4.148-5.368,9.65-4.765,15.01c0.568,5.048,3.855,8.757,8.908,9.627
			c5.769,0.993,11.129-1.716,16.797-2.136c5.946-0.44,11.798,1.092,17.726,1.19c5.523,0.092,11.258-1.106,15.321-5.082
			C168.798,422.847,166.6,420.804,165.223,422.152z"/>
		<path style="fill:#191F28;" d="M180.006,348.164c-4.163,3.56-9.015,6.203-13.866,8.693c-5.06,2.598-10.194,5.055-15.396,7.354
			c-10.434,4.609-21.129,8.626-32.016,12.027c-10.814,3.378-21.819,6.148-32.945,8.288c-10.001,1.923-21.765,2.329-29.383,10.002
			c-3.495,3.52-5.565,8.368-4.628,13.341c0.849,4.507,4.152,8.615,8.773,9.53c1.89,0.374,2.56-2.551,0.659-2.927
			c-3.782-0.748-6.256-4.357-6.635-8.057c-0.43-4.207,1.904-8.035,4.966-10.728c3.705-3.259,8.538-4.787,13.279-5.794
			c5.255-1.116,10.591-1.839,15.86-2.89c21.321-4.254,42.178-10.822,62.092-19.547c5.588-2.448,11.106-5.055,16.538-7.833
			c5.255-2.687,10.393-5.561,14.897-9.413C183.665,348.957,181.459,346.921,180.006,348.164z"/>
		<path style="fill:#191F28;" d="M71.505,416.511c-2.466,0.123-4.615-1.477-5.768-3.575c-1.435-2.614-1.177-5.838-0.419-8.611
			c0.51-1.863-2.418-2.522-2.927-0.659c-0.988,3.612-1.036,7.696,0.89,11.021c1.688,2.913,4.906,4.994,8.328,4.823
			C73.539,419.413,73.437,416.415,71.505,416.511z"/>
		<path style="fill:#191F28;" d="M86.132,418.941c-1.537,0.449-3.41-0.24-4.893-0.68c-1.452-0.431-2.887-1.07-3.897-2.237
			c-2.215-2.559-1.972-6.357-1.539-9.471c0.111-0.801-0.297-1.605-1.134-1.793c-0.74-0.167-1.681,0.327-1.793,1.134
			c-0.59,4.249-0.629,8.839,2.362,12.254c1.362,1.555,3.286,2.42,5.229,3.007c2.069,0.625,4.388,1.286,6.528,0.661
			C88.851,421.272,87.986,418.399,86.132,418.941z"/>
		<path style="fill:#191F28;" d="M242.969,428.12c-17.731-11.596-39.632-3.644-59.011-3.251c-3.075,0.062-6.16-0.053-9.208-0.486
			c-2.634-0.375-5.479-0.831-7.504-2.7c-1.418-1.309-3.467,0.882-2.046,2.194c3.638,3.358,9.364,3.681,14.057,3.923
			c5.634,0.29,11.272-0.221,16.862-0.884c10.087-1.196,20.316-2.963,30.478-1.516c5.334,0.759,10.453,2.418,14.98,5.38
			C243.191,431.835,244.575,429.171,242.969,428.12z"/>
		<path style="fill:#191F28;" d="M247.996,427.728c-1.29-3.477-3.555-6.581-6.569-8.76c-0.5-0.361-1.245-0.604-1.809-0.181
			c-0.577,0.433-0.97,1.023-0.914,1.772c0.059,0.783,0.721,1.511,1.551,1.447c0.057-0.004,0.112-0.018,0.167-0.029
			c0.304,0.255,0.601,0.519,0.886,0.796c0.293,0.284,0.577,0.578,0.85,0.883c0.132,0.147,0.26,0.297,0.388,0.449
			c0.018,0.022,0.04,0.05,0.063,0.079c0.067,0.084,0.133,0.169,0.198,0.255c0.495,0.65,0.944,1.335,1.342,2.048
			c0.21,0.375,0.403,0.759,0.587,1.148c0.013,0.027,0.011,0.024,0.018,0.04c0.036,0.085,0.073,0.169,0.108,0.255
			c0.091,0.219,0.176,0.439,0.258,0.661c0.273,0.735,1.07,1.283,1.868,1.006C247.717,429.344,248.287,428.514,247.996,427.728z"/>
		<path style="fill:#191F28;" d="M256.03,422.742c-1.967-3.435-5.357-5.956-9.191-6.91c-0.762-0.19-1.652,0.349-1.793,1.134
			c-0.146,0.814,0.319,1.59,1.134,1.793c0.376,0.094,0.742,0.21,1.11,0.33c0.062,0.022,0.169,0.059,0.19,0.067
			c0.097,0.038,0.193,0.078,0.289,0.119c0.192,0.081,0.381,0.167,0.569,0.258c0.375,0.181,0.741,0.38,1.098,0.596
			c0.196,0.119,0.388,0.244,0.579,0.371c0.017,0.011,0.022,0.015,0.034,0.023c0.083,0.06,0.165,0.121,0.246,0.183
			c0.662,0.505,1.277,1.073,1.833,1.694c0.08,0.09,0.159,0.181,0.237,0.273c0.135,0.179,0.274,0.354,0.405,0.537
			c0.254,0.356,0.487,0.726,0.705,1.106c0.39,0.681,1.408,0.937,2.064,0.492C256.228,424.337,256.448,423.471,256.03,422.742z"/>
		<path style="fill:#191F28;" d="M309.679,417.802c-17.3,2.716-34.959,2.827-52.283,0.254c-1.898-0.282-2.576,2.643-0.659,2.927
			c17.58,2.611,35.487,2.574,53.047-0.183C311.67,420.504,311.585,417.503,309.679,417.802z"/>
		<path style="fill:#191F28;" d="M584.509,204.963c-0.462-9.725-1.787-19.538-0.171-29.225c0.164-0.981-0.512-1.817-1.516-1.829
			c-8.582-0.103-16.922,2.418-24.874,5.428c-7.446,2.819-14.676,6.231-21.581,10.193c-13.505,7.75-26.234,17.644-36.351,29.532
			c-5.59,6.568-10.34,13.889-13.497,21.938c-0.697,1.776,1.953,3.19,2.66,1.39c5.494-14.006,15.69-25.476,27.038-35.098
			c11.79-9.995,25.252-18.114,39.582-23.903c8.073-3.261,16.587-6.202,25.36-6.466c-1.02,7.739-0.438,15.542,0.071,23.311
			c0.543,8.28,0.604,16.532-0.385,24.784c-0.971,8.099-2.763,16.1-5.349,23.836c-2.436,7.287-5.47,14.717-10.286,20.783
			c-5.209,6.56-12.341,11.14-19.734,14.888c-1.725,0.874-0.139,3.424,1.572,2.556c6.68-3.387,13.146-7.466,18.28-12.985
			c5.311-5.71,8.759-12.809,11.48-20.044C582.694,238.4,585.302,221.665,584.509,204.963z"/>
		<path style="fill:#191F28;" d="M566.246,216.924c-7.904,2.397-15.777,4.894-23.631,7.45c3.754-4.52,7.693-8.89,11.818-13.084
			c4.044-4.111,8.258-8.051,12.622-11.819c1.459-1.26-0.746-3.297-2.194-2.046c-9.103,7.861-17.516,16.497-25.156,25.774
			c0.551-7.889,1.103-15.778,1.654-23.668c0.135-1.926-2.865-1.805-2.998,0.105c-0.644,9.214-1.288,18.427-1.932,27.641
			c-4.235,5.407-8.218,11.013-11.917,16.806c-1.251,1.958-2.458,3.942-3.642,5.941c-2.769-10.126-4.426-20.513-4.914-31.008
			c-0.09-1.93-3.088-1.828-2.998,0.105c0.544,11.694,2.498,23.302,5.812,34.53c-1.043,1.842-2.068,3.694-3.057,5.566
			c-0.901,1.705,1.755,3.102,2.66,1.39c1.045-1.979,2.133-3.933,3.24-5.876c0.045-0.008,0.087-0.009,0.134-0.021
			c13.825-3.542,27.818-6.412,41.925-8.569c1.888-0.289,1.803-3.29-0.105-2.998c-13.403,2.049-26.703,4.712-39.859,7.988
			c4.661-7.818,9.816-15.333,15.444-22.481c9.284-3.059,18.603-6.012,27.958-8.849C568.959,219.237,568.095,216.364,566.246,216.924
			z"/>
		<path style="fill:#191F28;" d="M634.883,263.726c-8.928-2.99-18.117-4.63-27.48-5.476c-8.245-0.744-16.629-1.003-24.782,0.678
			c-4.481,0.924-8.808,2.515-12.751,4.846c-1.665,0.984-0.089,3.538,1.572,2.556c6.824-4.034,14.71-5.435,22.546-5.636
			c8.481-0.218,17.131,0.615,25.469,2.138c4.22,0.771,8.381,1.822,12.475,3.096c-3.172,4.049-5.021,9.002-7.623,13.419
			c-3.176,5.391-7.074,10.309-11.193,15.004c-8.149,9.289-16.835,18.877-27.495,25.324c-5.83,3.526-12.307,6.043-19.128,6.658
			c-1.918,0.173-1.823,3.172,0.105,2.998c12.673-1.143,23.676-8.093,32.882-16.486c4.743-4.324,9.14-9.033,13.45-13.783
			c4.283-4.72,8.387-9.619,11.915-14.937c1.939-2.923,3.603-5.979,5.173-9.113c1.571-3.135,3.174-6.256,5.632-8.8
			C636.505,265.328,635.914,264.071,634.883,263.726z"/>
		<path style="fill:#191F28;" d="M611.586,269.884c-4.121,1.339-8.184,2.85-12.195,4.489c0.854-2.806,1.837-5.57,2.955-8.285
			c0.308-0.749,0.129-1.624-0.635-2.025c-0.668-0.35-1.714-0.118-2.025,0.635c-1.499,3.638-2.78,7.364-3.837,11.155
			c-8.082,3.512-15.902,7.623-23.363,12.312c2.725-5.632,5.45-11.263,8.174-16.895c0.838-1.733-1.815-3.134-2.66-1.39
			c-3.463,7.157-6.926,14.315-10.389,21.472c-0.133,0.09-0.269,0.173-0.402,0.263c-3.916,2.666-7.716,5.497-11.402,8.474
			c-0.635,0.513-0.947,1.307-0.492,2.064c0.376,0.626,1.435,1,2.064,0.492c3.909-3.157,7.97-6.124,12.137-8.934
			c8.925,1.055,17.832,2.248,26.719,3.585c1.897,0.285,2.575-2.639,0.659-2.927c-7.824-1.177-15.664-2.238-23.517-3.197
			c8.246-5.246,16.925-9.811,25.948-13.569c4.306-1.793,8.685-3.405,13.121-4.847C614.286,272.161,613.425,269.286,611.586,269.884z
			"/>
		<path style="fill:#191F28;" d="M622.313,277.055c-0.783-0.405-1.572-0.045-2.025,0.635c-4.701,7.061-10.258,13.528-16.481,19.289
			c-1.417,1.312,0.784,3.352,2.194,2.046c6.428-5.951,12.093-12.655,16.946-19.945C623.396,278.407,622.979,277.399,622.313,277.055
			z"/>
		<path style="fill:#191F28;" d="M600.682,302.027c-0.296-0.252-0.677-0.433-1.075-0.402c-0.422,0.033-0.725,0.203-1.045,0.476
			c-1.836,1.565-3.672,3.129-5.508,4.694c-0.273,0.233-0.414,0.733-0.402,1.075c0.013,0.368,0.191,0.802,0.476,1.045
			c0.296,0.252,0.677,0.433,1.075,0.402c0.422-0.033,0.725-0.203,1.045-0.476c1.836-1.565,3.672-3.129,5.508-4.694
			c0.273-0.233,0.414-0.733,0.402-1.075C601.145,302.704,600.966,302.269,600.682,302.027z"/>
		<path style="fill:#191F28;" d="M579.905,198.442c-0.046-1.933-3.044-1.828-2.998,0.105c0.188,7.898-0.494,15.768-2.044,23.515
			c-0.378,1.89,2.547,2.56,2.927,0.659C579.388,214.733,580.099,206.585,579.905,198.442z"/>
		<path style="fill:#191F28;" d="M574.222,232.072c-0.74-0.133-1.684,0.302-1.793,1.134c-0.183,1.398-0.455,2.782-0.823,4.143
			c-0.181,0.668-0.384,1.329-0.609,1.983c-0.046,0.133-0.092,0.265-0.14,0.398c-0.009,0.023-0.016,0.043-0.039,0.105
			c-0.036,0.096-0.073,0.192-0.11,0.287c-0.13,0.334-0.267,0.666-0.408,0.996c-0.307,0.72-0.139,1.663,0.635,2.025
			c0.689,0.322,1.695,0.138,2.025-0.635c1.181-2.763,2.007-5.661,2.397-8.642C575.458,233.089,575.07,232.224,574.222,232.072z"/>
		<path style="fill:#191F28;" d="M152.617,364.214c-2.832-10.385-5.926-20.602-11.221-30.035
			c-4.701-8.376-10.696-16.019-17.514-22.773c-14.633-14.495-32.951-24.577-52.348-31.187c-11.584-3.948-23.557-6.663-35.64-8.552
			c-0.723-0.113-1.711,0.284-1.793,1.134c-1.962,20.381,0.377,41.386,8.82,60.176c7.66,17.048,20.533,31.645,37.058,40.549
			c9.028,4.865,18.979,7.845,29.222,8.493c1.928,0.122,1.808-2.877-0.105-2.998c-17.553-1.111-33.96-9.71-46.257-22.057
			c-13.455-13.509-21.448-31.414-24.692-50.058c-1.835-10.545-2.15-21.376-1.234-32.038c20.464,3.334,40.69,9.134,58.869,19.277
			c16.525,9.22,31.206,22.182,41.161,38.379c2.775,4.515,5.174,9.26,7.097,14.2c2.327,5.976,4.016,12.171,5.701,18.35
			C150.252,366.944,153.124,366.075,152.617,364.214z"/>
		<path style="fill:#191F28;" d="M132.934,371.519c-2.199-2.643-4.403-5.286-6.614-7.925c-0.835-8.579-2.232-17.097-4.192-25.491
			c-0.44-1.885-3.311-1.011-2.874,0.862c1.58,6.766,2.764,13.608,3.592,20.501c-7.512-8.897-15.164-17.691-23.219-26.088
			c-0.201-2.311-0.772-4.552-1.401-6.783c-0.742-2.633-1.486-5.266-2.229-7.899c-1.464-5.186-2.927-10.372-4.391-15.558
			c-0.526-1.863-3.398-0.996-2.874,0.862c1.419,5.027,2.837,10.053,4.256,15.08c0.698,2.473,1.396,4.947,2.094,7.42
			c0.289,1.024,0.579,2.048,0.84,3.078c-5.387-5.444-10.96-10.703-16.803-15.68c-5.648-4.811-11.537-9.33-17.667-13.51
			c-1.59-1.084-2.971,1.581-1.39,2.66c11.942,8.143,22.795,17.659,32.975,27.878c-10.927-2.87-22.244-4.158-33.545-3.802
			c-1.932,0.061-1.828,3.059,0.105,2.998c12.761-0.402,25.486,1.35,37.678,5.13c6.734,7.006,13.188,14.289,19.486,21.649
			c1.298,1.517,2.581,3.048,3.87,4.573c-9.007-2.181-18.102-3.987-27.268-5.363c-1.897-0.285-2.575,2.64-0.659,2.927
			c10.508,1.577,20.926,3.694,31.22,6.328c2.328,2.777,4.648,5.563,6.966,8.348c0.523,0.628,1.612,0.46,2.12-0.074
			C133.625,372.991,133.45,372.139,132.934,371.519z"/>
		<path style="fill:#191F28;" d="M81.192,292.155c-7.183-4.156-15.084-7.01-23.265-8.4c-1.895-0.322-2.57,2.603-0.659,2.927
			c7.951,1.351,15.554,4.093,22.535,8.132C81.473,295.781,82.864,293.123,81.192,292.155z"/>
		<path style="fill:#191F28;" d="M136.268,246.475c-11.267-12.691-25.914-22.137-42.07-27.298c-0.815-0.26-1.569,0.417-1.793,1.134
			c-5.62,17.981-6.726,37.227-3.394,55.758c0.942,5.239,2.258,10.402,3.918,15.459c0.602,1.836,3.477,0.975,2.874-0.862
			c-5.755-17.542-7.18-36.426-4.094-54.633c0.772-4.555,1.841-9.052,3.158-13.48c15.127,5.095,28.761,14.179,39.357,26.116
			C135.503,250.112,137.541,247.909,136.268,246.475z"/>
		<path style="fill:#191F28;" d="M146.025,320.436c-5.037-14.102-11.409-27.721-18.995-40.631c0.065-0.169,0.116-0.349,0.13-0.549
			c0.684-9.644,0.818-19.318,0.401-28.977c-0.083-1.931-3.081-1.828-2.998,0.105c0.359,8.334,0.283,16.677-0.177,25.004
			c-1.316-2.132-2.662-4.245-4.047-6.333c-3.021-4.559-6.204-9.008-9.532-13.347c-1.165-1.519-3.73,0.041-2.556,1.572
			c4.545,5.926,8.795,12.077,12.763,18.406c-7.168-3.045-14.394-5.952-21.68-8.704c-1.781-0.673-3.198,1.977-1.39,2.66
			c8.675,3.277,17.266,6.77,25.772,10.461c3.915,6.56,7.527,13.299,10.779,20.211c-8.305-3.856-16.89-7.09-25.677-9.674
			c-1.852-0.545-2.508,2.383-0.659,2.927c9.664,2.842,19.06,6.494,28.113,10.91c0.047,0.023,0.094,0.034,0.14,0.052
			c0.257,0.577,0.532,1.146,0.784,1.725c2.157,4.945,4.138,9.965,5.952,15.045C143.8,323.113,146.676,322.257,146.025,320.436z"/>
	</g>
</g>
</svg>
