<?xml version="1.0" encoding="utf-8"?>
<!-- Generator: Adobe Illustrator 27.5.0, SVG Export Plug-In . SVG Version: 6.00 Build 0)  -->
<svg version="1.1" xmlns="http://www.w3.org/2000/svg" xmlns:xlink="http://www.w3.org/1999/xlink" x="0px" y="0px"
	 viewBox="0 0 500 500" style="enable-background:new 0 0 500 500;" xml:space="preserve">
<g id="BACKGROUND">
	<rect style="fill:#FFFFFF;" width="500" height="500"/>
</g>
<g id="OBJECTS">
	<g>
		<path style="fill:#191F28;" d="M365.842,122.384c-3.408-13.911-12.764-25.493-24.124-33.872
			c-11.888-8.769-25.853-14.815-40.271-17.934c-1.829-0.396-3.667-0.739-5.513-1.042c-1.896-0.311-2.572,2.614-0.659,2.927
			c14.476,2.372,28.495,7.664,40.772,15.724c11.625,7.632,21.666,18.316,25.989,31.763c2.157,6.71,2.789,13.847,1.45,20.788
			c-1.349,6.997-4.418,13.515-8.122,19.559c-7.812,12.746-18.456,23.503-25.483,36.772c-7.581,14.315-11.565,30.443-11.598,46.635
			c-0.004,1.935,2.994,1.825,2.998-0.105c0.03-14.727,3.455-29.392,9.964-42.605c6.788-13.778,17.507-24.803,25.735-37.644
			c3.886-6.065,7.18-12.617,8.922-19.638C367.643,136.694,367.56,129.398,365.842,122.384z"/>
		<path style="fill:#191F28;" d="M212.666,154.617c-0.434-2.565-0.715-5.153-0.842-7.751c-0.095-1.93-3.093-1.828-2.998,0.105
			c0.518,10.562,3.808,20.668,6.751,30.743c2.877,9.847,5.615,20.175,4.298,30.519c-2.743,21.543-20.94,36.049-37.677,47.492
			c-17.42,11.91-35.101,23.677-49.64,39.146c-13.967,14.861-23.788,32.795-28.978,52.51c-5.119,19.446-5.896,39.998-3.107,59.874
			c0.343,2.443,0.742,4.879,1.185,7.306c0.347,1.9,3.217,1.018,2.874-0.862c-3.607-19.748-3.667-40.279,0.599-59.928
			c4.297-19.788,13.154-38.229,26.546-53.472c13.981-15.914,31.463-28.057,48.897-39.848c16.921-11.444,35.133-24.676,40.962-45.362
			C227.371,194.388,216.052,174.641,212.666,154.617z"/>
		<path style="fill:#191F28;" d="M320.258,39.515c-0.574-1.277-1.018-3.109-2.505-3.591c-1.533-0.496-3.579,0.682-4.951,1.268
			c-2.687,1.149-5.311,2.446-7.837,3.915c-5.151,2.996-9.944,6.689-14.051,11.012c-4.591,4.833-8.315,10.504-10.666,16.752
			c-0.67,1.782,1.979,3.198,2.66,1.39c3.85-10.234,11.334-18.597,20.385-24.585c2.228-1.474,4.546-2.811,6.934-4.009
			c1.258-0.631,2.534-1.226,3.832-1.769c0.658-0.276,1.321-0.542,1.996-0.774c0.206-0.071,0.437-0.157,0.661-0.219
			c0.007,0.011,0.008,0.015,0.015,0.026c0.13,0.287,0.26,0.574,0.39,0.861c2.767,6.122,5.459,12.307,7.344,18.768
			c2.155,7.386,3.189,15.18,1.88,22.819c-0.325,1.895,2.6,2.57,2.927,0.659C331.819,67.163,326.248,52.847,320.258,39.515z"/>
		<path style="fill:#191F28;" d="M241.658,61.366c-0.444-1.884-3.315-1.01-2.874,0.862c2.143,9.087,2.18,18.549,0.154,27.659
			c-0.419,1.883,2.507,2.55,2.927,0.659C244.005,80.927,243.919,70.955,241.658,61.366z"/>
		<path style="fill:#191F28;" d="M251.322,58.023c-0.988,7.259-2.03,14.728-5.879,21.111c-0.996,1.652,1.664,3.041,2.66,1.39
			c3.981-6.602,5.124-14.331,6.146-21.841C254.508,56.784,251.583,56.104,251.322,58.023z"/>
		<path style="fill:#191F28;" d="M287.66,69.322c-10.03-1.847-19.51,1.643-28.404,5.985c6.159-9.97,8.317-21.91,10.004-33.444
			c0.278-1.898-2.647-2.576-2.927-0.659c-1.894,12.949-4.241,26.675-12.842,37.045c-0.473,0.287-0.662,0.71-0.64,1.138
			c-0.172,1.285,1.506,2.494,2.547,1.27c0.018-0.021,0.034-0.044,0.052-0.065c9.674-5.038,20.317-10.41,31.551-8.342
			C288.893,72.598,289.566,69.673,287.66,69.322z"/>
		<path style="fill:#191F28;" d="M239.107,91.75c-6.06-4.621-14.115-5.001-21.45-4.815c-8.153,0.207-16.305,1.668-24.021,4.31
			c-1.937,0.663-3.848,1.403-5.727,2.216c-1.497,0.648-3.577,1.243-4.278,2.883c-0.659,1.542,0.138,3.773,0.457,5.335
			c0.369,1.806,0.796,3.601,1.28,5.38c1.933,7.105,4.773,13.977,8.381,20.396c4.081,7.261,9.196,13.936,15.124,19.787
			c1.375,1.357,3.42-0.838,2.046-2.194c-9.64-9.516-16.965-21.295-21.253-34.145c-1.081-3.239-1.972-6.541-2.663-9.884
			c-0.138-0.669-0.268-1.339-0.39-2.011c-0.151-0.832-0.48-1.395,0.332-1.842c1.694-0.932,3.605-1.6,5.412-2.278
			c6.984-2.62,14.329-4.244,21.77-4.778c4.097-0.294,8.288-0.355,12.374,0.127c3.732,0.441,7.524,1.391,10.561,3.707
			C238.582,95.104,240.644,92.922,239.107,91.75z"/>
		<path style="fill:#191F28;" d="M221.761,119.327c-0.269-0.776-1.062-1.238-1.868-1.006c-3.264,0.938-6.405,2.33-9.296,4.113
			c-0.667,0.412-0.948,1.393-0.492,2.064c0.456,0.672,1.349,0.933,2.064,0.492c2.782-1.717,5.428-2.887,8.586-3.795
			C221.51,120.978,222.025,120.087,221.761,119.327z"/>
		<path style="fill:#191F28;" d="M221.575,124.252c-0.504-0.743-1.297-0.841-2.064-0.492c-2.669,1.214-5.273,2.562-7.806,4.04
			c-0.678,0.395-0.94,1.404-0.492,2.064c0.466,0.686,1.338,0.916,2.064,0.492c2.532-1.477,5.137-2.826,7.806-4.04
			C221.799,125.99,221.991,124.865,221.575,124.252z"/>
		<path style="fill:#191F28;" d="M229.95,103.267c-0.995-0.502-2.191-0.764-3.248-1.108c-1.304-0.424-2.614-0.831-3.937-1.193
			c-2.524-0.691-5.089-1.191-7.693-1.456c-4.629-0.471-9.818-0.546-14.329,0.772c-1.837,0.537-3.566,1.651-4.128,3.578
			c-0.599,2.055-0.021,4.544,0.425,6.579c1.087,4.958,3.497,9.503,6.822,13.317c1.267,1.454,3.304-0.751,2.046-2.194
			c-2.422-2.778-4.249-6.062-5.352-9.576c-0.543-1.729-0.925-3.506-1.095-5.31c-0.069-0.734-0.206-1.628,0.171-2.301
			c0.364-0.649,1.127-0.955,1.804-1.166c3.719-1.154,8.104-1.124,11.952-0.855c4.175,0.292,8.222,1.307,12.194,2.583
			c0.615,0.197,1.228,0.4,1.84,0.604c0.01,0.003,0.028,0.012,0.041,0.016c-0.12,0.261-0.227,0.52-0.317,0.681
			c-0.32,0.569-0.64,1.139-0.96,1.708c-1.2,2.136-2.399,4.271-3.599,6.407c-0.945,1.682,1.713,3.075,2.66,1.39
			c1.279-2.278,2.559-4.556,3.838-6.834C229.912,107.439,232.385,104.496,229.95,103.267z"/>
		<path style="fill:#191F28;" d="M169.625,219.11c-0.526-4.587-3.08-8.742-6.512-11.759c-3.808-3.347-8.432-5.072-13.458-5.432
			c-5.985-0.43-11.978,1.112-17.531,3.222c-5.196,1.975-10.234,4.425-15.171,6.972c-9.432,4.865-18.49,10.471-26.974,16.85
			c-17.152,12.895-32.053,28.987-42.3,47.924c-10.45,19.311-16.185,41.452-14.95,63.464c1.234,22.006,9.675,43.477,21.993,61.614
			c11.266,16.588,26.168,30.753,43.569,40.765c4.204,2.419,8.549,4.58,13.009,6.483c1.762,0.752,3.172-1.9,1.39-2.66
			c-18.181-7.755-34.216-19.954-46.97-35.019c-13.604-16.07-23.678-35.656-28.014-56.303c-4.515-21.498-1.619-44.074,6.648-64.314
			c8.105-19.843,21.223-37.165,37.249-51.301c7.901-6.969,16.493-13.144,25.513-18.581c4.43-2.67,8.968-5.161,13.593-7.476
			c5.11-2.558,10.321-5.045,15.781-6.769c5.518-1.743,11.513-2.698,17.209-1.225c4.331,1.12,8.263,4.033,10.686,7.782
			c2.424,3.75,3.157,8.335,1.032,12.394c-2.352,4.492-6.997,7.741-11.129,10.471c-17.465,11.541-38.817,14.946-56.742,25.616
			c-16.661,9.918-29.635,25.718-36.788,43.683c-7.192,18.064-8.336,37.962-2.85,56.648c5.428,18.488,16.839,35.301,32.149,47.023
			c3.726,2.852,7.667,5.411,11.801,7.632c1.699,0.913,3.095-1.744,1.39-2.66c-17.264-9.275-31.039-24.683-38.781-42.656
			c-7.823-18.162-9.198-38.346-3.564-57.327c5.562-18.737,17.509-35.715,33.628-46.842c17.457-12.051,38.987-15.555,57.244-26.046
			c4.48-2.575,8.918-5.567,12.582-9.237C167.793,228.604,170.197,224.092,169.625,219.11z"/>
		<path style="fill:#191F28;" d="M110.656,225.516c-6.021,2.002-11.697,4.971-16.747,8.816c-0.644,0.49-0.947,1.326-0.492,2.064
			c0.392,0.637,1.416,0.986,2.064,0.492c4.851-3.693,10.251-6.574,16.037-8.498C113.35,227.78,112.49,224.906,110.656,225.516z"/>
		<path style="fill:#191F28;" d="M109.199,233.345c-3.401,0.469-6.656,1.669-9.488,3.626c-0.644,0.445-0.964,1.369-0.492,2.064
			c0.436,0.643,1.374,0.969,2.064,0.492c0.629-0.435,1.28-0.837,1.954-1.199c0.346-0.186,0.698-0.36,1.055-0.526
			c0.064-0.028,0.231-0.103,0.245-0.109c0.188-0.08,0.377-0.156,0.567-0.23c0.713-0.277,1.441-0.514,2.181-0.708
			c0.74-0.194,1.45-0.333,2.02-0.412c0.776-0.107,1.514-0.687,1.447-1.551C110.693,234.05,110.029,233.231,109.199,233.345z"/>
		<path style="fill:#191F28;" d="M168.032,200.486c-8.077-8.492-19.761-13.185-31.463-12.703c-1.931,0.079-1.828,3.078,0.105,2.998
			c10.963-0.451,21.755,3.954,29.313,11.899C167.317,204.08,169.358,201.881,168.032,200.486z"/>
		<path style="fill:#191F28;" d="M170.962,194.928c-4.568-4.447-9.694-8.964-16.244-9.907c-0.801-0.115-1.606,0.3-1.793,1.134
			c-0.167,0.743,0.328,1.677,1.134,1.793c6.043,0.871,10.649,5.077,14.858,9.174C170.3,198.469,172.346,196.275,170.962,194.928z"/>
		<path style="fill:#191F28;" d="M383.852,228.508c-1.701-4.552-3.978-8.897-6.791-12.861c-2.746-3.87-5.943-7.642-9.914-10.299
			c-3.878-2.596-8.503-3.433-13.007-2.125c-4.636,1.347-8.595,4.44-12.015,7.746c-6.885,6.655-12.402,14.562-17.607,22.555
			c-5.675,8.716-11.059,17.66-17.691,25.697c-0.253-0.37-0.49-0.766-0.726-1.13c-0.717-1.106-1.456-2.198-2.216-3.275
			c-1.534-2.171-3.163-4.271-4.857-6.319c-0.517-0.625-1.618-0.464-2.12,0.074c-0.612,0.656-0.445,1.493,0.074,2.12
			c1.667,2.015,3.242,4.106,4.736,6.252c0.746,1.072,1.466,2.16,2.173,3.258c0.702,1.088,1.455,2.058,2.553,2.769
			c0.68,0.441,1.674,0.035,2.025-0.635c0.103-0.197,0.156-0.397,0.167-0.592c11.147-13.346,18.695-29.271,29.927-42.548
			c2.83-3.345,5.872-6.679,9.379-9.328c3.407-2.573,7.624-4.801,12.032-4.206c4.209,0.569,7.611,3.453,10.403,6.462
			c3.071,3.311,5.679,7.056,7.8,11.04c1.201,2.257,2.234,4.594,3.092,7.003c0.847,2.378,1.739,4.924,1.895,7.461
			c0.139,2.258-0.597,4.281-2.557,5.509c-1.381,0.866-2.981,1.252-4.594,1.382c0.798-2.687,0.428-5.682-0.423-8.352
			c-0.587-1.842-3.461-0.98-2.874,0.862c0.876,2.749,1.325,6.113-0.528,8.583c-1.147,1.53-2.78,2.713-4.553,3.58
			c0.016-0.031,0.036-0.059,0.051-0.091c1.637-3.292,1.852-7.173,0.699-10.65c-0.608-1.833-3.483-0.973-2.874,0.862
			c1.913,5.767-1.099,12.446-7.4,13.511c-1.997,0.337-4.977,0.014-6.532-1.604c-0.089-0.26-0.261-0.469-0.484-0.622
			c-0.105-0.171-0.201-0.35-0.278-0.543c-0.611-1.539,0.506-3.362,1.281-4.655c0.738-1.229,1.677-2.286,3.105-2.65
			c1.259-0.321,1.423-2.205,0.264-2.767c-4.246-2.056-6.753-6.531-6.414-11.218c0.139-1.926-2.86-1.804-2.998,0.105
			c-0.345,4.778,1.945,9.49,5.717,12.347c-1.716,1.389-2.907,3.508-3.647,5.527c-0.688,1.878-0.488,3.683,0.363,5.186
			c-2.811,9.183-5.652,18.383-9.46,27.213c-3.801,8.812-8.558,17.53-15.199,24.542c-6.668,7.04-15.868,12.031-25.804,10.494
			c-8.876-1.373-17.686-5.831-24.587-11.501c-3.756-3.086-7.094-6.674-9.767-10.741c-3.172-4.828-5.379-10.178-7.472-15.538
			c-0.699-1.79-3.577-0.938-2.874,0.862c1.945,4.981,3.975,9.972,6.735,14.567c2.403,4.001,5.4,7.653,8.81,10.836
			c6.889,6.429,15.552,11.181,24.651,13.621c5.045,1.353,10.247,1.603,15.321,0.256c4.847-1.287,9.271-3.811,13.115-6.997
			c7.872-6.526,13.483-15.676,17.831-24.815c4.635-9.742,7.915-20.05,11.077-30.348c0.244,0.156,0.495,0.306,0.761,0.44
			c4.09,2.063,8.974,1.19,12.495-1.48c0.242,0.074,0.514,0.093,0.815,0.018c3.537-0.879,7.231-2.86,9.495-5.809
			c0.073,0.01,0.144,0.023,0.223,0.023c3.949,0.014,8.417-1.256,10.477-4.921C387.54,238.369,385.425,232.719,383.852,228.508z"/>
		<path style="fill:#191F28;" d="M315.735,205.872c-0.889,0.031-1.379,0.741-1.447,1.551c-0.489,5.807-2.453,11.414-5.557,16.332
			c-0.433,0.685-0.041,1.671,0.635,2.025c0.767,0.401,1.591,0.052,2.025-0.635c3.396-5.381,5.363-11.497,5.895-17.826
			C317.355,206.51,316.477,205.846,315.735,205.872z"/>
		<path style="fill:#191F28;" d="M309.557,209.726c-0.149-0.797-1.151-1.221-1.868-1.006c-0.846,0.253-1.155,1.069-1.006,1.868
			c0.062,0.333-0.148,0.751-0.285,1.042c-0.234,0.494-0.511,0.969-0.785,1.441c-0.545,0.939-1.126,1.859-1.751,2.746
			c-1.212,1.721-2.59,3.327-4.07,4.823c-0.57,0.576-0.506,1.579,0.074,2.12c0.609,0.568,1.548,0.504,2.12-0.074
			c1.768-1.788,3.349-3.738,4.766-5.814c0.67-0.981,1.295-1.993,1.872-3.031C309.355,212.526,309.841,211.243,309.557,209.726z"/>
		<path style="fill:#191F28;" d="M291.689,457.038H119.126c-1.113-1.124-1.986-2.3-2.782-3.808c-0.77-1.459-1.413-3.433-1.636-5.059
			c-0.11-0.802-0.684-1.477-1.551-1.447c-0.746,0.026-1.558,0.745-1.447,1.551c0.606,4.409,2.663,8.497,5.942,11.528l1.632,0.233
			h172.51C293.728,460.036,293.619,457.038,291.689,457.038z"/>
		<path style="fill:#191F28;" d="M306.618,441.238c-3.614-4.558-9.22-6.697-14.804-7.628c-6.3-1.051-12.765-1.159-19.132-1.476
			c-6.564-0.327-13.134-0.652-19.676-1.29c-7.359-0.718-14.681-1.832-21.844-3.69c-1.869-0.485-2.53,2.442-0.659,2.927
			c11.859,3.076,24.109,4.077,36.305,4.743c6.035,0.329,12.084,0.522,18.11,0.993c5.529,0.432,11.496,1.101,16.187,4.327
			c4.588,3.155,7.397,9.322,3.91,14.339c-1.098,1.579,1.569,2.959,2.66,1.39C310.769,451.421,309.865,445.334,306.618,441.238z"/>
		<path style="fill:#191F28;" d="M303.583,449.068c-0.979-3.09-3.102-5.704-5.619-7.692c-0.636-0.502-1.535-0.553-2.12,0.074
			c-0.518,0.556-0.565,1.615,0.074,2.12c2.041,1.613,3.862,3.628,4.715,6.129c0.848,2.485,0.641,5.18-0.852,7.371
			c-0.456,0.67-0.023,1.68,0.635,2.025c0.786,0.412,1.567,0.037,2.025-0.635C304.286,455.751,304.559,452.151,303.583,449.068z"/>
		<path style="fill:#191F28;" d="M294.838,450.215c-0.656-1.24-1.525-2.383-2.514-3.377c-0.473-0.476-0.983-0.913-1.524-1.31
			c-0.661-0.486-1.369-1.042-2.21-1.135c-0.804-0.089-1.601,0.281-1.793,1.134c-0.163,0.723,0.324,1.703,1.134,1.793
			c0.436,0.048,0.808,0.382,1.144,0.645c0.423,0.33,0.825,0.687,1.203,1.067c0.761,0.765,1.388,1.631,1.908,2.578
			c0.469,0.854,0.941,1.844,0.8,2.841c-0.167,1.18-0.874,2.235-1.489,3.226c-0.427,0.689-0.045,1.669,0.635,2.025
			c0.762,0.399,1.596,0.056,2.025-0.635c0.793-1.278,1.593-2.651,1.787-4.169C296.159,453.213,295.616,451.686,294.838,450.215z"/>
		<path style="fill:#191F28;" d="M297.337,338.393c-3.293-6.101-8.391-11.044-13.735-15.358
			c-11.325-9.145-24.559-16.807-39.418-17.573c-7.282-0.375-14.45,1.153-20.923,4.506c-6.128,3.174-11.455,7.747-16.289,12.625
			c-1.219,1.23-2.409,2.488-3.584,3.76c-1.309,1.418,0.882,3.467,2.194,2.046c9.146-9.902,19.912-19.104,33.984-19.928
			c14.31-0.838,27.651,5.852,38.788,14.258c5.262,3.971,10.469,8.328,14.277,13.765c3.936,5.62,5.796,12.144,6.06,18.964
			c0.52,13.448-3.945,27.091-9.896,38.989c-6.702,13.4-15.865,25.393-25.864,36.487c-1.291,1.433,0.899,3.483,2.194,2.046
			c9.339-10.362,17.963-21.514,24.602-33.819c6.575-12.188,11.439-25.903,11.96-39.847
			C301.957,352.112,300.789,344.787,297.337,338.393z"/>
		<path style="fill:#191F28;" d="M329.497,332.544c3.387-11.284,6.471-23.491,2.974-35.137c-0.556-1.853-3.43-0.988-2.874,0.862
			c3.014,10.039,0.719,20.603-2.087,30.411c-2.933,10.252-6.553,20.288-9.885,30.414c-6.538,19.864-12.106,40.992-8.716,62.032
			c0.456,2.831,1.083,5.618,1.834,8.385c0.79,2.908,1.672,5.825,2.005,8.83c0.501,4.511-0.375,9.827-4.423,12.53
			c-1.604,1.071-0.036,3.629,1.572,2.556c3.621-2.418,5.474-6.509,5.89-10.75c0.5-5.108-1.125-10.069-2.416-14.942
			c-2.781-10.488-3.027-21.446-1.677-32.175C314.439,373.756,323.224,353.44,329.497,332.544z"/>
		<path style="fill:#191F28;" d="M312.588,313.105c-1.766,12.757-6.236,24.981-13.118,35.868c-1.03,1.63,1.632,3.015,2.66,1.39
			c7.002-11.077,11.589-23.618,13.385-36.598C315.778,311.866,312.853,311.186,312.588,313.105z"/>
		<g>
			<path style="fill:#191F28;" d="M418.888,284.807c-2.412-3.33-5.34-6.218-8.629-8.677c-3.053-2.283-6.36-4.34-8.943-7.181
				c-2.884-3.172-3.815-7.194-2.804-11.347c1.083-4.449,3.696-8.414,6.091-12.251c4.839-7.752,8.973-16.154,10.488-25.245
				c1.377-8.266,0.451-16.986-3.511-24.449c-3.746-7.055-10.221-12.002-17.806-14.319c-7.514-2.295-15.74-2.07-23.307-0.142
				c-3.607,0.919-7.194,2.299-10.126,4.644c-2.736,2.188-5.061,5.527-4.697,9.204c0.197,1.988,1.802,3.357,3.799,2.964
				c1.843-0.364,3.178-1.755,4.426-3.051c2.791-2.898,6.335-5.026,10.157-6.257c7.509-2.419,15.814-1.191,22.116,3.628
				c6.747,5.16,10.234,12.967,9.948,21.42c-0.333,9.81-5.008,18.74-9.385,27.284c-4.168,8.136-9.139,17.455-5.592,26.736
				c3.167,8.285,10.723,13.309,16.99,19.077c5.867,5.401,12.166,14.279,7.272,22.329c-4.422,7.273-14.205,8.5-21.495,11.172
				c-3.824,1.402-7.396,3.298-10.312,6.18c-2.588,2.558-4.596,5.729-5.887,9.125c-1.283,3.373-1.934,6.976-1.791,10.589
				c0.157,3.963,1.365,7.557,3.135,11.075c1.919,3.814,4.62,8.491,2.373,12.75c-0.9,1.706,1.756,3.102,2.66,1.39
				c2.127-4.03,0.983-8.537-0.84-12.438c-1.747-3.738-3.779-7.175-4.22-11.359c-0.732-6.956,1.786-14.159,6.765-19.085
				c6.082-6.018,15.118-6.613,22.587-10.036c3.442-1.577,6.729-3.783,8.961-6.893c2.318-3.229,3.167-7.155,2.569-11.073
				c-1.355-8.871-8.285-14.763-14.729-20.264c-6.37-5.438-13.141-12.041-12.179-21.173c0.501-4.757,2.593-9.182,4.712-13.405
				c2.113-4.213,4.353-8.365,6.287-12.665c3.806-8.464,6.474-17.907,4.411-27.193c-1.655-7.447-6.681-13.959-13.232-17.79
				c-6.737-3.941-14.971-4.621-22.344-2.137c-3.721,1.254-7.153,3.259-10.049,5.912c-0.683,0.625-1.287,1.32-1.945,1.968
				c-0.327,0.323-1.495,1.46-2.03,1.269c-0.427-0.153-0.087-1.636,0.006-2.036c0.19-0.82,0.539-1.589,0.992-2.298
				c1.881-2.945,5.399-4.729,8.605-5.826c3.605-1.234,7.421-1.928,11.221-2.157c7.443-0.449,15.227,0.986,21.431,5.307
				c6.608,4.603,10.389,12.241,11.377,20.108c1.099,8.757-1.091,17.484-4.761,25.405c-1.909,4.121-4.241,7.984-6.626,11.841
				c-2.293,3.707-4.588,7.606-5.534,11.91c-0.878,3.991-0.297,8.143,2.003,11.563c2.105,3.131,5.171,5.399,8.192,7.576
				c3.227,2.326,6.329,4.72,8.946,7.742c2.632,3.04,4.755,6.6,6.023,10.422c2.409,7.262,1.471,15.762-3.464,21.798
				c-5.13,6.275-13.328,7.381-20.622,9.662c-3.553,1.111-7.044,2.566-9.957,4.93c-0.634,0.514-0.948,1.305-0.492,2.064
				c0.375,0.624,1.436,1.002,2.064,0.492c6.318-5.127,14.818-5.503,22.091-8.584c3.614-1.531,6.886-3.696,9.338-6.801
				c2.407-3.048,4.036-6.666,4.807-10.469C426.056,299.665,423.663,291.401,418.888,284.807z"/>
			<path style="fill:#191F28;" d="M390.582,357.021c-2.382-5.505-7.618-12.514-3.643-18.514c1.064-1.606-1.6-2.988-2.66-1.39
				c-3.878,5.853-0.525,12.764,2.232,18.265c1.581,3.155,2.821,6.371,3.11,9.918c0.285,3.494-0.202,7.033-1.485,10.299
				c-0.697,1.776,1.953,3.19,2.66,1.39C393.322,370.558,393.338,363.389,390.582,357.021z"/>
			<path style="fill:#191F28;" d="M376.126,335.585c-13.681-7.685-30.54-10.523-45.564-5.204c-1.818,0.644-0.961,3.519,0.862,2.874
				c14.334-5.075,30.264-2.34,43.312,4.99C376.419,339.19,377.811,336.532,376.126,335.585z"/>
			<path style="fill:#191F28;" d="M407.914,379.406c-1.949-13.48-8.231-26.54-18.934-35.215c-1.492-1.209-3.549,0.976-2.046,2.194
				c18.207,14.757,22.379,41.005,15.19,62.417c-3.527,10.505-9.786,20.122-18.06,27.501c-8.494,7.574-19.229,12.451-30.441,14.261
				c-12.701,2.051-25.997,0.226-37.472-5.662c-1.715-0.88-3.113,1.775-1.39,2.66c21.419,10.992,48.948,8.468,67.988-6.297
				C401.187,426.965,411.26,402.552,407.914,379.406z"/>
			<path style="fill:#191F28;" d="M382.763,432.03c-5.855-10.91-12.918-21.138-21.017-30.504c-4.003-4.629-8.26-9.038-12.749-13.197
				c-4.455-4.127-9.106-8.11-14.19-11.449c-5.71-3.75-12.046-6.46-18.913-6.959c-1.926-0.14-1.804,2.859,0.105,2.998
				c11.93,0.867,21.888,9.29,30.325,17.024c8.715,7.99,16.565,16.911,23.364,26.583c3.848,5.474,7.356,11.178,10.519,17.073
				C381.121,435.306,383.672,433.724,382.763,432.03z"/>
			<path style="fill:#191F28;" d="M333.285,391.972c-4.949-3.091-10.011-6.172-15.76-7.503c-1.88-0.435-2.545,2.49-0.659,2.927
				c5.485,1.27,10.309,4.287,15.03,7.236c0.687,0.429,1.67,0.043,2.025-0.635C334.32,393.232,333.975,392.402,333.285,391.972z"/>
			<path style="fill:#191F28;" d="M374.113,441.529c-6.295-13.535-15.236-25.774-26.185-35.919c-1.416-1.312-3.464,0.88-2.046,2.194
				c10.768,9.978,19.484,21.987,25.675,35.297C372.371,444.85,374.918,443.26,374.113,441.529z"/>
			<path style="fill:#191F28;" d="M362.25,448.542c-7.626-17.108-20.228-32.365-36.219-42.276
				c-4.735-2.935-9.863-5.253-15.308-6.495c-1.882-0.429-2.547,2.496-0.659,2.927c6.479,1.478,12.415,4.569,17.841,8.376
				c-7.432,10.766-10.278,24.168-7.766,37.034c0.37,1.897,3.241,1.017,2.874-0.862c-2.309-11.827,0.381-24.547,7.289-34.425
				c1.374,1.043,2.713,2.125,4.018,3.232c0.506,0.429,0.998,0.875,1.494,1.314c-4.798,10.353-8.362,21.715-6.916,33.237
				c0.239,1.903,3.239,1.814,2.998-0.105c-1.35-10.758,1.822-21.296,6.239-31.007c2.306,2.183,4.494,4.485,6.57,6.885
				c-0.125,0.162-0.222,0.363-0.275,0.609c-1.798,8.299-3.481,16.759-1.868,25.232c0.362,1.899,3.232,1.017,2.874-0.862
				c-1.409-7.403,0.03-14.919,1.593-22.192c1.785,2.232,3.471,4.543,5.045,6.933c2.783,4.228,5.241,8.681,7.302,13.306
				c0.332,0.745,1.02,1.251,1.868,1.006C361.945,450.208,362.579,449.281,362.25,448.542z"/>
			<path style="fill:#191F28;" d="M346.825,329.321c-8.419,12.11-11.718,26.762-14.825,40.94c-0.413,1.884,2.513,2.551,2.927,0.659
				c3.058-13.953,6.271-28.291,14.558-40.209C350.583,329.132,347.916,327.752,346.825,329.321z"/>
			<path style="fill:#191F28;" d="M346.779,361.893c-2.109,6.967-3.555,14.111-4.322,21.349c-0.086,0.812,0.281,1.591,1.134,1.793
				c0.719,0.171,1.708-0.33,1.793-1.134c0.767-7.238,2.214-14.382,4.322-21.349C350.265,360.705,347.337,360.051,346.779,361.893z"
				/>
			<path style="fill:#191F28;" d="M355.774,340.641c-2.269,4.029-4.214,8.231-5.818,12.569c-0.281,0.759-0.148,1.615,0.635,2.025
				c0.647,0.339,1.742,0.13,2.025-0.635c1.604-4.338,3.548-8.539,5.818-12.569C359.381,340.35,356.723,338.957,355.774,340.641z"/>
			<path style="fill:#191F28;" d="M407.508,401.101c-2.916-13.147-6.934-26.028-12.007-38.502c-0.723-1.777-3.602-0.927-2.874,0.862
				c4.949,12.167,8.884,24.723,11.782,37.534c-7.392-8.548-16.661-15.33-26.984-19.834c0.049-0.176,0.065-0.376,0.031-0.604
				c-1.676-11.28-6.13-22.012-13.055-31.081c0.325-0.688,0.645-1.379,0.982-2.062c0.91-1.845,1.868-3.665,2.861-5.465
				c2.174,3.496,4.297,7.023,6.347,10.593c0.964,1.678,3.516,0.1,2.556-1.572c-2.321-4.043-4.723-8.039-7.204-11.987
				c-0.003-0.004-0.006-0.007-0.009-0.012c0.626-1.072,1.263-2.138,1.918-3.193c1.016-1.639-1.645-3.026-2.66-1.39
				c-8.373,13.506-14.403,28.458-17.738,43.996c-0.277,1.292-0.529,2.589-0.768,3.889c-0.118,0.108-0.226,0.235-0.312,0.396
				c-0.212,0.394-0.208,0.955-0.003,1.398c-0.433,2.548-0.803,5.107-1.096,7.676c-0.216,1.897,2.709,2.581,2.927,0.659
				c0.261-2.297,0.584-4.586,0.961-6.865c7.019,2.828,13.638,6.562,19.691,11.061c0.363,2.904,0.046,5.857-0.477,8.723
				c-0.524,2.876-1.321,5.702-2.4,8.419c-0.299,0.752-0.136,1.621,0.635,2.025c0.661,0.346,1.724,0.122,2.025-0.635
				c1.177-2.961,2.097-6.013,2.668-9.15c0.412-2.263,0.721-4.604,0.708-6.927c2.379,1.94,4.649,4.013,6.819,6.191
				c-0.009,0.03-0.023,0.054-0.031,0.085c-1.553,6.134-3.683,12.09-6.376,17.816c-0.818,1.74,1.835,3.144,2.66,1.39
				c2.54-5.401,4.604-11.02,6.172-16.778c0.949,1.032,1.874,2.087,2.774,3.165c0.887,1.064,1.736,2.159,2.567,3.268
				c-0.211,0.201-0.372,0.463-0.461,0.76c-1.547,5.147-3.642,10.103-6.224,14.816c-0.927,1.692,1.73,3.086,2.66,1.39
				c2.472-4.513,4.47-9.265,6.037-14.164c1.008,1.463,1.982,2.95,2.902,4.468c1.002,1.654,3.557,0.079,2.556-1.572
				c-8.144-13.442-19.832-24.649-33.566-32.285c-3.481-1.935-7.096-3.612-10.805-5.059c0.269-1.429,0.552-2.855,0.866-4.274
				c14.561,1.365,28.65,7.41,39.773,16.884c3.189,2.716,6.161,5.706,8.815,8.949c0.517,0.632,1.303,0.949,2.064,0.492
				c0.482-0.29,0.815-0.992,0.704-1.586C406.804,403.002,407.76,402.238,407.508,401.101z M367.03,377.494
				c-3.868-1.048-7.809-1.732-11.791-2.138c1.901-7.8,4.496-15.426,7.742-22.776c5.816,8.092,9.757,17.46,11.348,27.314
				C371.942,378.976,369.509,378.166,367.03,377.494z"/>
			<path style="fill:#191F28;" d="M395.312,387.926c-0.802-2.682-1.892-5.279-3.225-7.74c-0.374-0.69-1.419-0.93-2.064-0.492
				c-0.704,0.478-0.893,1.325-0.492,2.064c0.324,0.597,0.633,1.201,0.925,1.814c0.058,0.123,0.116,0.245,0.173,0.369
				c0.016,0.034,0.127,0.282,0.153,0.338c0.116,0.265,0.231,0.531,0.342,0.799c0.501,1.214,0.938,2.452,1.314,3.71
				c0.225,0.752,1.103,1.272,1.868,1.006C395.074,389.527,395.552,388.729,395.312,387.926z"/>
			<path style="fill:#191F28;" d="M408.32,180.117c-1.5-1.195-3.559,0.989-2.046,2.194c8.725,6.947,13.69,17.86,13.196,29.002
				c-0.086,1.932,2.913,1.815,2.998-0.105C422.994,199.36,417.598,187.504,408.32,180.117z"/>
			<path style="fill:#191F28;" d="M426.397,196.862c-0.349-0.731-1.426-0.885-2.064-0.492c-0.751,0.463-0.843,1.33-0.492,2.064
				c1.594,3.335,2.818,7.144,1.782,10.826c-0.219,0.78,0.373,1.622,1.134,1.793c0.826,0.186,1.573-0.351,1.793-1.134
				C429.804,205.461,428.321,200.888,426.397,196.862z"/>
			<path style="fill:#191F28;" d="M389.602,278.182c-4.143-6.019-5.764-13.508-4.385-20.694c0.363-1.892-2.562-2.563-2.927-0.659
				c-1.52,7.918,0.178,16.275,4.756,22.925C388.138,281.341,390.698,279.774,389.602,278.182z"/>
			<g>
				<path style="fill:#191F28;" d="M383.987,279.349c-0.083-0.094-0.165-0.189-0.246-0.284c0.01,0.013,0.022,0.027,0.029,0.038
					c-0.015-0.022-0.034-0.043-0.051-0.064l-0.005-0.006c-0.065-0.075-0.063-0.076-0.04-0.051c-0.012-0.014-0.023-0.029-0.034-0.043
					c-0.183-0.233-0.358-0.471-0.527-0.714c-0.328-0.471-0.629-0.961-0.901-1.467c-0.132-0.245-0.258-0.494-0.376-0.745
					c-0.008-0.017-0.017-0.034-0.024-0.052c0.001,0.005-0.005-0.009-0.021-0.045c-0.014-0.032-0.026-0.064-0.043-0.093
					c0.007,0.011,0.013,0.026,0.02,0.039c-0.05-0.119-0.1-0.237-0.148-0.356c-0.219-0.55-0.403-1.112-0.558-1.683
					c-0.206-0.758-1.117-1.267-1.868-1.006c-0.785,0.273-1.226,1.058-1.006,1.868c0.694,2.558,2.002,4.878,3.754,6.857
					c0.522,0.589,1.629,0.502,2.12-0.074C384.63,280.801,384.546,279.98,383.987,279.349z"/>
				<path style="fill:#191F28;" d="M381.79,275.917c0.007,0.015,0.014,0.03,0.021,0.045c-0.002-0.009-0.02-0.052-0.043-0.098
					c0.004,0.01,0.008,0.02,0.012,0.029C381.785,275.907,381.785,275.907,381.79,275.917z"/>
				<path style="fill:#191F28;" d="M383.74,279.065c-0.024-0.031-0.05-0.063-0.067-0.082c0.016,0.018,0.03,0.038,0.045,0.056
					C383.726,279.048,383.733,279.056,383.74,279.065z"/>
			</g>
		</g>
		<path style="fill:#191F28;" d="M321.231,123.586c-2.572-2.716-7.194-1.08-10.033,0.266c-1.809,0.857-3.462,2.019-4.921,3.388
			c-1.514,1.421-2.903,3.155-3.28,5.248c-0.058,0.324-0.016,0.609,0.087,0.854c0.01,0.237,0.08,0.486,0.247,0.737
			c2.056,3.089,6.065,4.177,9.545,4.66c2.03,0.282,4.185,0.426,6.221,0.116c2.197-0.335,2.784-2.269,3.151-4.176
			c0.386-2.01,0.56-4.076,0.509-6.122C322.713,126.792,322.5,124.925,321.231,123.586z M319.591,132.325
			c-0.097,0.774-0.23,1.543-0.395,2.305c-0.07,0.323-0.118,1.074-0.445,1.26c-0.233,0.133-0.691,0.068-0.958,0.082
			c-0.413,0.022-0.826,0.034-1.24,0.035c-0.802,0.002-1.606-0.03-2.403-0.118c-2.63-0.289-6.377-0.89-8.099-3.188
			c0.666-2.336,3.074-4.192,5.035-5.387c1.177-0.717,2.425-1.278,3.744-1.679c1.083-0.329,2.431-0.729,3.558-0.366
			c1.051,0.339,1.249,1.42,1.323,2.402C319.829,129.215,319.785,130.789,319.591,132.325z"/>
		<path style="fill:#191F28;" d="M332.203,133.686c-0.537,2.773-1.543,5.427-3.099,7.794c-0.835,1.271-1.538,1.789-3.014,1.148
			c-1.427-0.62-2.809-1.374-4.206-2.059c-0.851-0.417-1.96,0.028-2.158,1c-0.306,1.501-0.714,2.976-1.301,4.393
			c-0.52,1.254-0.995,2.576-2.345,3.099c-2.812,1.09-6.096,0.658-8.977,0.13c-1.893-0.347-2.566,2.578-0.659,2.927
			c1.617,0.296,3.346,0.541,5.071,0.589c0.267,2.706,0.646,5.493,2.152,7.819c1.478,2.282,3.818,3.746,6.569,3.77
			c6.007,0.052,9.497-5.691,11.066-10.749c1.038-3.346,1.375-6.912,1.053-10.396c-0.026-0.278-0.115-0.508-0.241-0.702
			c1.542-2.436,2.497-5.423,3.016-8.105C335.496,132.454,332.571,131.783,332.203,133.686z M324.022,159.98
			c-2.039,1.501-4.95,1.926-6.904,0.064c-2.008-1.914-2.358-4.86-2.611-7.502c1.064-0.159,2.101-0.43,3.079-0.875
			c0.171,0.14,0.372,0.252,0.605,0.32c0.204,0.059,0.405,0.125,0.606,0.195c0.057,0.022,0.143,0.054,0.176,0.067
			c0.112,0.046,0.224,0.093,0.335,0.142c0.444,0.196,0.876,0.42,1.292,0.669c0.209,0.125,0.412,0.257,0.614,0.392
			c0.017,0.011,0.022,0.014,0.034,0.022c0.012,0.009,0.017,0.013,0.034,0.026c0.097,0.073,0.194,0.146,0.29,0.221
			c0.382,0.3,0.747,0.623,1.091,0.966c0.172,0.171,0.34,0.348,0.502,0.529c0.081,0.091,0.16,0.183,0.239,0.275
			c0.009,0.01,0.011,0.013,0.018,0.021c0.01,0.014,0.017,0.024,0.033,0.045c0.29,0.392,0.574,0.782,0.827,1.199
			c0.126,0.208,0.245,0.419,0.358,0.634c0.047,0.09,0.093,0.18,0.138,0.27c0.01,0.021,0.061,0.128,0.095,0.198
			c0.028,0.067,0.085,0.197,0.094,0.221c0.046,0.112,0.09,0.226,0.132,0.339c0.053,0.144,0.097,0.291,0.145,0.436
			C324.868,159.265,324.469,159.651,324.022,159.98z M328.376,152.888c-0.309,0.997-0.692,2.026-1.17,3.011
			c-1.542-2.909-4.11-5.205-7.186-6.417c0.339-0.532,0.624-1.112,0.887-1.715c0.518-1.187,0.941-2.409,1.285-3.654
			c2.369,1.258,4.995,2.541,7.268,1.235C329.489,147.9,329.138,150.429,328.376,152.888z"/>
		<path style="fill:#191F28;" d="M307.345,108.783c-0.8-0.374-1.557-0.067-2.025,0.635c-1.843,2.771-3.06,5.977-3.53,9.271
			c-0.11,0.775,0.293,1.642,1.134,1.793c0.747,0.134,1.675-0.303,1.793-1.134c0.453-3.18,1.466-5.84,3.262-8.54
			C308.416,110.153,308.025,109.101,307.345,108.783z"/>
		<path style="fill:#191F28;" d="M313.792,114.731c0.079-0.352,0.021-0.812-0.185-1.116c-0.221-0.326-0.549-0.606-0.948-0.678
			c-0.355-0.064-0.822-0.054-1.115,0.185c-0.82,0.669-1.605,1.367-2.322,2.147c-0.716,0.778-1.354,1.618-1.952,2.489
			c-0.198,0.289-0.203,0.806-0.107,1.126c0.107,0.357,0.399,0.738,0.742,0.899c0.346,0.162,0.755,0.236,1.126,0.107
			c0.118-0.053,0.237-0.106,0.355-0.159c0.234-0.146,0.415-0.34,0.544-0.583c0.005-0.007,0.01-0.014,0.014-0.02
			c0.98-1.362,2.132-2.593,3.428-3.659c-0.084,0.069-0.168,0.138-0.252,0.206C313.443,115.41,313.695,115.159,313.792,114.731z"/>
		<path style="fill:#191F28;" d="M286.268,127.357c-1.022-2.04-3.048-3.775-5.362-4.054c-2.411-0.291-4.834,0.775-5.906,3.034
			c-1.168,2.46-0.565,5.179,0.594,7.517c0.68,1.372,1.713,2.498,3.004,3.155c0.521,0.343,1.089,0.611,1.709,0.76
			c2.541,0.61,5.073-1.136,6.178-3.347C287.61,132.172,287.372,129.561,286.268,127.357z"/>
		<path style="fill:#191F28;" d="M334.209,101.083c-1.022-2.04-3.048-3.775-5.362-4.054c-2.411-0.291-4.834,0.775-5.906,3.034
			c-1.168,2.46-0.565,5.179,0.594,7.517c0.68,1.372,1.713,2.498,3.004,3.155c0.521,0.343,1.089,0.611,1.709,0.76
			c2.541,0.61,5.073-1.136,6.178-3.347C335.551,105.898,335.313,103.287,334.209,101.083z"/>
	</g>
	<g>
		<path style="fill:#191F28;" d="M465.951,450.653c-7.741,4.281-17.084,3.639-24.463-1.046c-3.623-2.3-7.097-4.95-11.517-5.356
			c-0.818-0.075-1.629-0.075-2.434-0.021c1.331-1.123,2.633-2.315,3.793-3.614c1.056-1.183,1.808-2.758,0.983-4.289
			c-1.63-3.025-6.648-3.305-9.636-3.148c-3.724,0.196-7.485,1.07-11.032,2.192c1.57-1.476,3.068-3.029,4.479-4.658
			c1.233-1.423,2.884-3.287,1.769-5.268c-1.928-3.426-7.649-0.467-10.136,0.586c-3.743,1.584-7.319,3.536-10.643,5.876
			c-3.88,2.732-7.415,5.939-10.503,9.542c-1.253,1.462,0.935,3.515,2.194,2.046c4.517-5.269,9.973-9.624,16.125-12.84
			c1.507-0.788,3.05-1.504,4.628-2.137c1.483-0.595,3.142-1.382,4.735-1.599c0.247-0.034,0.561-0.077,0.805-0.006
			c0.39,0.113,0.193-0.025,0.037,0.24c-0.463,0.788-1.164,1.477-1.771,2.159c-1.234,1.385-2.529,2.716-3.88,3.988
			c-3.025,2.848-6.337,5.356-9.864,7.549c-1.642,1.021-0.079,3.558,1.572,2.556c3.54-2.15,7.295-3.884,11.244-5.138
			c3.783-1.202,7.864-2.202,11.858-2.113c0.944,0.021,1.876,0.132,2.794,0.357c0.617,0.151,2.086,0.421,2.452,1.053
			c0.49,0.846-2.601,3.217-3.268,3.815c-2.97,2.659-6.327,4.856-9.895,6.625c-1.722,0.91-0.135,3.403,1.572,2.556
			c4.191-2.213,9.053-4.312,13.85-2.932c4.115,1.184,7.328,4.386,11.119,6.253c7.725,3.803,17.094,3.483,24.604-0.67
			C469.216,452.272,467.636,449.721,465.951,450.653z"/>
		<g>
			<path style="fill:#191F28;" d="M98.389,454.774c-6.898-9.024-16.576-15.077-26.135-20.919c-1.646-1.006-3.034,1.655-1.39,2.66
				c9.06,5.537,18.425,11.269,24.969,19.831C96.996,457.867,99.561,456.307,98.389,454.774z"/>
			<path style="fill:#191F28;" d="M90.144,454.78c-6.46-4.515-13.474-8.098-20.881-10.781c-0.768-0.278-1.623,0.417-1.793,1.134
				c-0.206,0.869,0.377,1.519,1.134,1.793c7.146,2.588,13.924,6.162,20.151,10.513c0.669,0.468,1.677,0.013,2.025-0.635
				C91.202,456.016,90.805,455.242,90.144,454.78z"/>
			<path style="fill:#191F28;" d="M77.172,455.228c-3.775-2.711-7.802-5.577-12.095-7.412c-3.834-1.64-8.18-0.965-9.715,3.32
				c-0.195,0.544-0.521,1.306-0.668,1.982c-0.368-0.305-0.735-0.611-1.104-0.916c-1.71-1.409-3.49-2.773-5.572-3.581
				c-4.053-1.574-8.453-1.211-12.62-0.318c-5.235,1.122-10.447,3.34-15.9,2.807c-1.896-0.186-2.582,2.739-0.659,2.927
				c4.572,0.447,8.929-0.646,13.312-1.828c4.067-1.097,8.409-2.257,12.638-1.424c2.162,0.426,4.018,1.441,5.741,2.789
				c0.8,0.626,1.569,1.29,2.355,1.934c0.73,0.599,1.537,1.367,2.561,1.263c1.93-0.195,2.103-2.453,2.51-3.923
				c0.531-1.919,1.644-3.144,3.777-2.918c2.408,0.255,4.746,1.953,6.776,3.162c2.266,1.349,4.477,2.791,6.619,4.329
				c0.663,0.476,1.51,0.567,2.12-0.074C77.75,456.819,77.83,455.701,77.172,455.228z"/>
		</g>
	</g>
</g>
</svg>
