<?xml version="1.0" encoding="utf-8"?>
<!-- Generator: Adobe Illustrator 27.5.0, SVG Export Plug-In . SVG Version: 6.00 Build 0)  -->
<svg version="1.1" id="Layer_1" xmlns="http://www.w3.org/2000/svg" xmlns:xlink="http://www.w3.org/1999/xlink" x="0px" y="0px"
	 viewBox="0 0 4000 4000" style="enable-background:new 0 0 4000 4000;" xml:space="preserve">
<g>
	<g>
		<path style="fill:#FFFFFF;stroke:#231F20;stroke-width:20;stroke-linecap:round;stroke-miterlimit:10;" d="M1323.217,3153.987
			c30.314,215.147,198.313,379.771,401.035,379.771c78.475,0,151.733-24.695,213.831-67.413
			c74.115,108.398,191.552,178.439,323.769,178.439c97.903,0,187.706-38.399,257.818-102.337c21.433,3.873,43.42,5.92,65.842,5.92
			c175.634,0,325.202-123.572,381.753-296.507c96.276,40.617,187.493-56.073,147.357-166.681
			c123.878-76.994,207.606-223.856,207.606-392.405c0-248.345-181.738-449.668-405.924-449.668c-16.592,0-32.944,1.13-49.014,3.273
			c-16.455-228.33-239.551-409.197-512.398-409.197c-130.39,0-249.403,41.326-339.956,109.375
			c-72.551-67.833-169.991-109.375-277.149-109.375c-224.186,0-405.924,181.738-405.924,405.924c0,20.411,1.525,40.464,4.432,60.066
			c-119.774,91.702-198.953,250.295-198.953,430.606C1137.343,2907.445,1210.789,3060.973,1323.217,3153.987z"/>
		<g>
			<g>
				<path style="fill:#FFFFFF;" d="M2095.612,2158.388c0,0-0.392-122.499-80.675-211.831
					c-58.726-65.346-159.129-91.943-159.129-91.943"/>
				<path style="fill:#231F20;" d="M2095.612,2158.388c-1.802-17.322-5.041-34.368-9.124-51.131
					c-4.054-16.769-9.211-33.204-15.256-49.208l-1.132-3.001l-1.201-2.973l-2.417-5.932c-1.733-3.903-3.369-7.84-5.192-11.689
					c-3.478-7.774-7.438-15.303-11.479-22.75l-3.18-5.5l-1.587-2.748l-1.673-2.695l-3.326-5.393
					c-1.121-1.788-2.325-3.522-3.481-5.285c-4.628-7.052-9.701-13.771-14.857-20.389l-4.029-4.831l-2.016-2.41l-1.008-1.204
					l-1.057-1.162l-4.203-4.661c-0.703-0.773-1.393-1.562-2.104-2.321l-2.172-2.216c-2.836-3.003-5.906-5.801-8.892-8.669
					c-3.107-2.76-6.177-5.548-9.421-8.166c-12.806-10.643-26.767-20.019-41.238-28.602c-7.241-4.291-14.677-8.293-22.222-12.093
					c-7.52-3.853-15.169-7.486-22.927-10.89c-7.739-3.447-15.576-6.695-23.484-9.742c-3.95-1.532-7.918-3.014-11.9-4.424
					c-1.987-0.712-3.975-1.42-5.961-2.095l-5.823-1.929l-0.417-0.138c-5.241-1.736-8.082-7.393-6.345-12.633
					c1.65-4.979,6.875-7.783,11.884-6.562l3.416,0.843l3.27,0.878c2.167,0.596,4.318,1.211,6.46,1.847
					c4.272,1.301,8.511,2.672,12.731,4.096c8.417,2.904,16.731,6.081,24.946,9.516c8.195,3.481,16.298,7.199,24.286,11.183
					c7.953,4.052,15.807,8.326,23.494,12.929c7.701,4.58,15.183,9.557,22.51,14.781l5.436,4.008l5.334,4.164
					c1.794,1.363,3.496,2.862,5.246,4.287l2.6,2.173l2.536,2.26c3.417,2.965,6.678,6.128,9.956,9.26
					c3.186,3.246,6.37,6.484,9.369,9.922l2.279,2.543c0.738,0.859,1.442,1.735,2.164,2.602l4.302,5.212l1.07,1.307l1.017,1.348
					l2.03,2.697l4.042,5.399l3.837,5.54c1.28,1.844,2.57,3.68,3.748,5.59c2.399,3.79,4.831,7.554,7.026,11.456
					c4.605,7.677,8.601,15.678,12.458,23.706c7.483,16.169,13.791,32.809,18.522,49.842c2.458,8.486,4.539,17.064,6.281,25.695
					c1.756,8.626,3.271,17.287,4.365,25.997c1.088,8.708,1.972,17.428,2.405,26.169
					C2095.94,2140.93,2096.119,2149.681,2095.612,2158.388z"/>
			</g>
		</g>
		<g>
			<g>
				<path style="fill:#FFFFFF;" d="M3115.876,3185.973c0,0,16.146-40.072,2.956-86.642c-15.027-53.057-69.516-79.409-69.516-79.409"
					/>
				<path style="fill:#231F20;" d="M3106.601,3182.236l0.675-2.381c0.243-0.88,0.481-1.774,0.706-2.68
					c0.44-1.813,0.902-3.642,1.291-5.495c0.781-3.703,1.473-7.446,2.029-11.208c1.047-7.534,1.73-15.125,1.751-22.706
					c0.086-7.581-0.427-15.144-1.502-22.619c-0.556-3.734-1.233-7.453-2.094-11.131c-0.817-3.693-1.843-7.16-3.033-10.698
					c-4.836-14.055-13.043-27.128-22.891-39.277c-4.938-6.08-10.314-11.943-16.034-17.612c-5.734-5.664-11.743-11.18-18.182-16.507
					c8.13,2.135,15.863,5.62,23.265,9.702c7.382,4.134,14.428,8.997,20.953,14.599c6.513,5.609,12.545,11.926,17.814,18.95
					c5.246,7.033,9.822,14.708,13.389,22.931c1.785,4.084,3.33,8.401,4.553,12.632c1.297,4.216,2.29,8.517,3.14,12.841
					c1.681,8.656,2.495,17.464,2.523,26.248c0.014,8.785-0.738,17.552-2.334,26.165c-0.387,2.156-0.829,4.302-1.299,6.443
					c-0.495,2.137-1.047,4.261-1.649,6.379c-0.602,2.117-1.223,4.234-1.972,6.336c-0.365,1.052-0.751,2.107-1.152,3.168
					c-0.209,0.536-0.404,1.063-0.636,1.61l-0.76,1.785c-2.161,5.073-8.024,7.433-13.097,5.272c-4.68-1.993-7.051-7.139-5.693-11.907
					L3106.601,3182.236z"/>
			</g>
		</g>
		<g>
			<g>
				<path style="fill:#FFFFFF;" d="M3060.609,3248.582c0,0-35.134,20.312-83.912,6.7c-53.114-14.823-72.978-64.281-72.978-64.281"/>
				<path style="fill:#231F20;" d="M3065.614,3257.239l-1.701,1.029c-0.509,0.305-0.997,0.564-1.495,0.839
					c-0.985,0.53-1.964,1.038-2.943,1.519c-1.952,0.982-3.937,1.823-5.926,2.627c-3.975,1.627-8.029,2.959-12.142,4.064
					c-8.225,2.199-16.681,3.468-25.168,3.826c-4.243,0.151-8.495,0.167-12.725-0.14c-4.23-0.276-8.448-0.72-12.611-1.457
					c-8.365-1.397-16.426-3.562-24.431-6.683c-15.894-6.195-30.246-16.109-41.102-28.662c-2.697-3.154-5.236-6.411-7.538-9.812
					c-2.294-3.407-4.375-6.933-6.231-10.553c-1.849-3.625-3.48-7.342-4.828-11.152c-1.349-3.801-2.456-7.703-3.052-11.683
					c4.941,6.288,10.088,12.032,15.424,17.434c2.667,2.696,5.396,5.279,8.163,7.766c2.793,2.465,5.622,4.831,8.516,7.072
					c1.451,1.114,2.89,2.229,4.386,3.261c1.459,1.078,2.971,2.071,4.453,3.093c3.059,1.909,6.039,3.885,9.208,5.518
					c1.531,0.905,3.155,1.636,4.719,2.46c1.614,0.732,3.204,1.502,4.839,2.165c1.645,0.641,3.248,1.365,4.919,1.923l2.479,0.894
					l2.518,0.774c3.351,1.032,6.744,1.868,10.258,2.629c3.504,0.66,6.995,1.337,10.519,1.729c1.755,0.25,3.523,0.358,5.28,0.556
					c1.764,0.109,3.524,0.28,5.289,0.311c3.526,0.147,7.053,0.15,10.57-0.026c7.038-0.269,14.038-1.221,20.909-2.686
					c3.434-0.736,6.839-1.61,10.17-2.628c1.669-0.502,3.301-1.086,4.913-1.645c0.806-0.284,1.594-0.583,2.364-0.886l1.117-0.45
					l0.521-0.211l0.234-0.095c0.054-0.019,0.171-0.074,0.116-0.033c4.781-2.764,10.898-1.129,13.662,3.652
					C3072.031,3248.358,3070.396,3254.475,3065.614,3257.239z"/>
			</g>
		</g>
		<g>
			<g>
				<path style="fill:#FFFFFF;" d="M2864.578,2225.053c0,0,8.384,52.194-14.752,92.777c-27.311,47.906-78.55,57.338-78.55,57.338"/>
				<path style="fill:#231F20;" d="M2874.452,2223.468l0.353,1.792c0.108,0.553,0.201,1.104,0.289,1.646l0.498,3.247
					c0.319,2.153,0.551,4.303,0.746,6.451c0.41,4.296,0.657,8.596,0.715,12.906c0.107,8.618-0.399,17.276-1.651,25.902
					c-0.625,4.314-1.45,8.612-2.442,12.892c-1.045,4.271-2.242,8.52-3.68,12.718c-1.498,4.179-3.101,8.336-5.053,12.376
					c-1.938,4.021-4.105,8.031-6.531,11.76c-0.6,0.937-1.195,1.877-1.82,2.796l-1.941,2.714c-1.26,1.83-2.694,3.536-4.047,5.291
					c-2.823,3.424-5.807,6.705-8.986,9.767c-6.289,6.193-13.347,11.512-20.857,15.872c-7.515,4.356-15.485,7.76-23.68,10.126
					c-4.096,1.187-8.26,2.089-12.451,2.706c-4.185,0.611-8.424,0.957-12.64,0.737c7.485-3.783,14.45-7.87,21.108-12.228
					c6.634-4.38,12.889-9.059,18.703-14.072c2.874-2.547,5.728-5.066,8.359-7.793c2.683-2.665,5.233-5.435,7.636-8.304
					c4.828-5.722,9.016-11.892,12.547-18.394c7.073-12.79,11.196-27.247,13.42-42.238c1.098-7.497,1.749-15.126,1.998-22.799
					c0.123-3.835,0.166-7.683,0.11-11.52c-0.028-1.919-0.109-3.831-0.166-5.733l-0.135-2.83l-0.152-2.618l-0.038-0.657
					c-0.321-5.511,3.886-10.239,9.397-10.56C2869.114,2215.128,2873.505,2218.638,2874.452,2223.468z"/>
			</g>
		</g>
		<g>
			<g>
				<path style="fill:#FFFFFF;" d="M1402.52,2447.039c-57.215-66.673-68.933-170.91-68.933-170.91"/>
				<path style="fill:#231F20;" d="M1402.52,2447.039c-10.959-11.089-20.777-23.493-29.254-36.779
					c-4.252-6.635-8.292-13.433-12.004-20.409c-3.769-6.951-7.224-14.076-10.428-21.313c-6.458-14.458-12.032-29.328-16.786-44.483
					c-2.342-7.587-4.439-15.257-6.198-23.019c-0.901-3.878-1.689-7.782-2.408-11.716c-0.349-1.968-0.697-3.939-0.989-5.933
					l-0.431-3.001l-0.372-3.14c-0.65-5.483,3.267-10.454,8.75-11.104c5.397-0.64,10.298,3.146,11.071,8.493l0.054,0.377l0.777,5.413
					l0.847,5.585c0.562,3.736,1.192,7.477,1.814,11.224c1.284,7.487,2.636,14.986,4.146,22.465
					c2.964,14.97,6.613,29.855,11.246,44.456c2.279,7.316,4.859,14.533,7.583,21.71c2.712,7.187,5.763,14.243,9.055,21.203
					l2.516,5.203l2.668,5.128c0.858,1.733,1.811,3.408,2.746,5.098c0.953,1.678,1.836,3.408,2.852,5.051l2.991,4.979
					c0.995,1.666,2.098,3.255,3.146,4.891C1397.985,2440.707,1400.296,2443.827,1402.52,2447.039z"/>
			</g>
		</g>
		<g>
			<g>
				<path style="fill:#FFFFFF;" d="M1480.079,3220.683c-87.429-8.664-167.923-75.92-167.923-75.92"/>
				<path style="fill:#231F20;" d="M1480.079,3220.683c-15.585-0.444-31.253-2.627-46.561-6.374
					c-7.658-1.858-15.276-3.982-22.779-6.46c-7.527-2.421-14.949-5.184-22.265-8.201c-14.658-5.99-28.963-12.887-42.871-20.558
					c-6.935-3.867-13.751-7.962-20.386-12.358c-3.33-2.181-6.599-4.459-9.836-6.805c-1.612-1.181-3.226-2.366-4.814-3.606
					l-2.385-1.872l-2.439-2.013c-4.258-3.514-4.862-9.815-1.347-14.073c3.459-4.191,9.618-4.842,13.871-1.51l0.3,0.235l4.302,3.376
					l4.471,3.452c2.988,2.312,6.028,4.581,9.067,6.86c6.102,4.526,12.261,9.012,18.52,13.375
					c12.486,8.774,25.409,17.013,38.847,24.366c6.702,3.714,13.555,7.148,20.483,10.455c6.926,3.321,14.008,6.314,21.197,9.071
					l5.413,2.023l5.472,1.863c1.818,0.66,3.664,1.212,5.507,1.788c1.848,0.554,3.682,1.195,5.552,1.68l5.603,1.532
					c1.87,0.516,3.766,0.903,5.653,1.362C1472.426,3219.239,1476.252,3219.898,1480.079,3220.683z"/>
			</g>
		</g>
		<g>
			<g>
				<path style="fill:#FFFFFF;" d="M1926.753,3214.227c0,0-44.084,114.292-1.688,226.667
					c31.013,82.201,133.368,143.418,133.368,143.418"/>
				<path style="fill:#231F20;" d="M1926.753,3214.227c-4.935,17.255-8.25,34.849-10.657,52.481
					c-1.137,8.828-2.124,17.657-2.718,26.506c-0.582,8.85-0.884,17.698-0.965,26.527c0.031,8.832,0.261,17.646,0.927,26.416
					c0.669,8.765,1.494,17.505,2.869,26.151c2.602,17.308,6.654,34.315,12.238,50.726c1.314,4.131,2.934,8.15,4.479,12.188
					c0.743,2.052,1.612,3.969,2.465,5.895c0.846,1.932,1.671,3.868,2.655,5.75c0.956,1.891,1.829,3.812,2.846,5.677l3.074,5.579
					c2.19,3.655,4.347,7.321,6.746,10.868c9.4,14.28,20.483,27.623,32.503,40.126c5.999,6.274,12.237,12.349,18.675,18.229
					c6.448,5.868,13.001,11.651,19.779,17.181c6.772,5.534,13.635,10.979,20.677,16.177c3.495,2.635,7.034,5.208,10.602,7.72
					c1.782,1.259,3.561,2.521,5.349,3.746l2.68,1.824l2.589,1.736l0.311,0.208c4.586,3.074,5.812,9.285,2.737,13.871
					c-2.945,4.394-8.797,5.686-13.313,3.085l-3.12-1.806l-2.976-1.802c-1.97-1.21-3.928-2.419-5.854-3.673
					c-3.858-2.499-7.668-5.05-11.432-7.665c-7.49-5.281-14.869-10.718-22.006-16.477c-7.131-5.763-14.154-11.685-20.894-17.944
					c-6.749-6.248-13.311-12.722-19.649-19.441c-6.258-6.8-12.274-13.853-17.987-21.182c-5.753-7.295-11.039-15.012-15.918-23.008
					c-4.886-7.991-9.299-16.33-12.998-25.046c-0.99-2.142-1.802-4.377-2.641-6.595c-0.844-2.219-1.701-4.437-2.372-6.637
					c-1.43-4.411-2.924-8.797-4.098-13.276c-0.615-2.231-1.27-4.449-1.847-6.686l-1.606-6.742l-0.8-3.368l-0.681-3.393l-1.343-6.783
					c-1.541-9.085-2.81-18.201-3.521-27.349c-0.826-9.137-1.145-18.294-1.168-27.427c0.018-9.137,0.488-18.248,1.164-27.319
					c1.511-18.135,4.391-36.087,8.558-53.677c2.101-8.791,4.45-17.509,7.214-26.09
					C1920.057,3230.925,1923.134,3222.447,1926.753,3214.227z"/>
			</g>
		</g>
		<g>
			<g>
				<path style="fill:#FFFFFF;" d="M2613.643,3414.091c-29.041,82.918-123.053,152.549-123.053,152.549"/>
				<path style="fill:#231F20;" d="M2613.643,3414.091c-2.155,8.008-4.898,15.888-8.039,23.636
					c-3.219,7.708-6.826,15.281-10.81,22.666c-4.01,7.365-8.336,14.573-12.926,21.613c-4.605,7.028-9.481,13.885-14.55,20.599
					c-10.176,13.396-21.159,26.191-32.809,38.359c-2.912,3.044-5.875,6.04-8.917,8.953c-3.01,2.949-6.108,5.807-9.242,8.629
					c-3.136,2.822-6.337,5.572-9.607,8.26c-1.642,1.336-3.279,2.679-4.971,3.973c-1.699,1.327-3.34,2.547-5.229,3.896
					c-4.494,3.21-10.739,2.169-13.949-2.325c-3.087-4.322-2.243-10.263,1.823-13.567l0.223-0.18l9.266-7.497l9.375-7.7l9.323-7.814
					l4.627-3.958c1.548-1.315,3.101-2.626,4.625-3.969c6.113-5.352,12.235-10.724,18.13-16.337
					c5.904-5.603,11.674-11.351,17.328-17.223c5.633-5.892,11.036-11.993,16.342-18.199c5.275-6.23,10.259-12.697,15.112-19.29
					c2.348-3.343,4.748-6.67,6.949-10.123c2.323-3.387,4.4-6.917,6.573-10.415
					C2606.434,3428.981,2610.204,3421.646,2613.643,3414.091z"/>
			</g>
		</g>
	</g>
	<g>
		<path style="fill:#FFFFFF;stroke:#231F20;stroke-width:20;stroke-linecap:round;stroke-miterlimit:10;" d="M1855.392,1208.606
			c0-96.447-46.547-181.277-116.96-230.328c1.709-10.485,2.605-21.211,2.605-32.129c0-119.915-106.84-217.125-238.634-217.125
			c-62.996,0-120.279,22.221-162.93,58.504c-53.234-36.399-123.199-58.504-199.852-58.504
			c-160.401,0-291.554,96.744-301.227,218.876c-9.447-1.146-19.06-1.75-28.814-1.75c-131.794,0-238.633,107.686-238.633,240.524
			c0,90.155,49.221,168.711,122.047,209.894c-23.595,59.163,30.029,110.882,86.628,89.156
			c33.246,92.502,121.173,158.599,224.424,158.599c13.181,0,26.107-1.095,38.707-3.166c41.217,34.2,94.011,54.739,151.565,54.739
			c77.728,0,146.766-37.464,190.336-95.446c36.506,22.85,79.573,36.059,125.706,36.059c119.176,0,217.939-88.056,235.76-203.136
			C1812.215,1383.621,1855.392,1301.5,1855.392,1208.606z"/>
		<g>
			<g>
				<path style="fill:#FFFFFF;" d="M1292.048,900.835c0,0,0.231-65.524,47.427-113.307c34.524-34.953,93.548-49.18,93.548-49.18"/>
				<path style="fill:#231F20;" d="M1292.048,900.835c-0.568-4.861-0.684-9.784-0.6-14.701c0.056-4.926,0.454-9.843,0.96-14.768
					c1.062-9.844,3.042-19.635,5.83-29.266c1.441-4.798,3.042-9.573,4.895-14.27c1.896-4.675,3.893-9.344,6.25-13.85
					c4.581-9.081,10.13-17.765,16.574-25.81c3.173-4.069,6.608-7.903,10.382-11.589l2.781-2.792c0.94-0.913,1.944-1.728,2.923-2.586
					l2.959-2.546c0.993-0.84,1.96-1.728,3.003-2.479c8.117-6.456,16.826-11.89,25.764-16.745
					c8.945-4.851,18.199-8.955,27.651-12.426c2.36-0.876,4.752-1.662,7.125-2.494c2.401-0.757,4.792-1.536,7.214-2.23
					c2.427-0.68,4.851-1.362,7.309-1.978c1.221-0.312,2.471-0.587,3.716-0.869l1.89-0.414l2.005-0.394
					c5.421-1.065,10.679,2.465,11.745,7.886c0.978,4.978-1.92,9.82-6.598,11.402l-0.46,0.155l-3.122,1.06
					c-1.086,0.372-2.168,0.742-3.261,1.142c-2.189,0.739-4.372,1.548-6.552,2.352l-6.526,2.472l-6.481,2.581
					c-8.609,3.507-17.065,7.322-25.223,11.551c-2.074,1.01-4.059,2.144-6.066,3.244c-2.005,1.104-4.036,2.177-5.945,3.404
					c-1.935,1.188-3.929,2.314-5.827,3.548c-1.865,1.27-3.736,2.535-5.627,3.779c-7.348,5.25-14.103,10.838-20.428,17.456
					c-0.778,0.825-1.594,1.619-2.346,2.471l-2.264,2.553l-1.142,1.272l-1.093,1.315l-2.192,2.634
					c-2.818,3.598-5.602,7.259-8.153,11.103c-5.174,7.643-9.732,15.792-13.759,24.283c-1.997,4.253-3.854,8.593-5.603,13.001
					c-1.712,4.42-3.3,8.908-4.767,13.46C1296.083,881.866,1293.684,891.214,1292.048,900.835z"/>
			</g>
		</g>
		<g>
			<g>
				<path style="fill:#FFFFFF;" d="M692.258,1450.482c0,0-9.492-21.434-1.738-46.344c8.834-28.38,40.867-42.475,40.867-42.475"/>
				<path style="fill:#231F20;" d="M683.114,1454.531l-0.569-1.148c-0.167-0.33-0.299-0.64-0.445-0.958
					c-0.278-0.625-0.544-1.241-0.796-1.853c-0.515-1.222-0.943-2.451-1.356-3.679c-0.811-2.461-1.459-4.948-1.977-7.466
					c-1.039-5.032-1.498-10.185-1.435-15.357c0.095-5.17,0.715-10.364,1.957-15.416c0.599-2.531,1.379-5.016,2.26-7.456
					c0.493-1.248,0.957-2.524,1.509-3.744c0.574-1.212,1.124-2.434,1.774-3.592c5.008-9.414,12.22-16.975,20.393-22.393
					c4.095-2.711,8.434-4.921,12.939-6.608c2.262-0.828,4.543-1.561,6.885-2.108c2.332-0.554,4.711-0.973,7.134-1.092
					c-6.555,6.968-12.507,13.431-17.666,20.077c-2.562,3.314-4.897,6.655-6.938,10.014c-1.024,1.683-1.956,3.373-2.804,5.082
					c-0.785,1.734-1.584,3.432-2.177,5.178c-0.64,1.734-1.105,3.483-1.562,5.225c-0.412,1.86-0.776,3.722-1.063,5.595
					c-0.253,1.88-0.474,3.76-0.602,5.652c-0.102,1.895-0.182,3.792-0.159,5.698c0.024,3.81,0.357,7.639,0.885,11.451
					c0.271,1.903,0.591,3.807,0.978,5.674c0.176,0.939,0.398,1.86,0.59,2.769l0.312,1.328l0.153,0.616l0.062,0.279l0.023,0.117
					c0,0.018,0.023,0.092-0.019,0.016c2.236,5.05-0.044,10.956-5.094,13.193C691.257,1461.862,685.35,1459.581,683.114,1454.531z"/>
			</g>
		</g>
		<g>
			<g>
				<path style="fill:#FFFFFF;" d="M724.748,1483.971c0,0,20.655,10.865,49.33,3.584c31.224-7.928,42.902-34.383,42.902-34.383"/>
				<path style="fill:#231F20;" d="M729.403,1475.121c-0.094-0.058-0.021-0.031-0.01-0.035c0.015-0.002,0.068,0.014,0.103,0.021
					l0.257,0.064l0.581,0.163l1.27,0.345c0.874,0.216,1.767,0.458,2.68,0.659c1.815,0.43,3.671,0.812,5.542,1.123
					c3.738,0.65,7.534,1.073,11.345,1.228c3.81,0.192,7.642,0.095,11.479-0.215c1.92-0.157,3.837-0.399,5.76-0.681
					c0.965-0.116,1.919-0.32,2.883-0.472l2.783-0.564c1.84-0.421,3.68-0.886,5.482-1.481c1.831-0.527,3.608-1.219,5.389-1.94
					c3.528-1.505,7.055-3.198,10.564-5.181c3.529-1.957,7.025-4.205,10.583-6.682c3.55-2.505,7.121-5.198,10.885-8.301
					c-0.019,2.469-0.451,4.903-1.075,7.261c-0.62,2.369-1.46,4.676-2.475,6.914c-2.041,4.466-4.752,8.688-8.061,12.467
					c-6.583,7.624-15.574,13.272-25.242,16.848c-1.209,0.44-2.446,0.836-3.666,1.223c-1.211,0.338-2.412,0.723-3.64,1.017
					c-2.44,0.656-4.934,1.106-7.437,1.529c-5.018,0.772-10.133,1.07-15.236,0.842c-5.102-0.24-10.189-0.981-15.156-2.29
					c-2.482-0.663-4.936-1.455-7.358-2.423c-1.208-0.491-2.416-1.001-3.617-1.604c-0.602-0.295-1.208-0.606-1.823-0.932
					c-0.315-0.171-0.617-0.328-0.945-0.523l-1.156-0.678c-4.888-2.571-6.766-8.618-4.195-13.506
					C718.469,1474.428,724.516,1472.55,729.403,1475.121z"/>
			</g>
		</g>
		<g>
			<g>
				<path style="fill:#FFFFFF;" d="M839.99,936.494c0,0-4.929,27.918,8.672,49.625c16.055,25.624,46.178,30.669,46.178,30.669"/>
				<path style="fill:#231F20;" d="M849.838,938.233l0.069,5.633c0.037,1.99,0.116,3.989,0.245,5.973
					c0.235,3.971,0.666,7.889,1.332,11.689c0.312,1.906,0.717,3.772,1.176,5.604c0.425,1.845,0.982,3.628,1.568,5.38
					c0.564,1.767,1.276,3.448,2.01,5.107c0.704,1.675,1.603,3.216,2.523,4.877c0.961,1.603,1.955,3.21,3.099,4.726
					c1.081,1.568,2.305,3.052,3.572,4.522c2.581,2.9,5.387,5.729,8.431,8.511c3.043,2.782,6.321,5.502,9.81,8.221
					c3.503,2.722,7.161,5.432,11.166,8.313c-2.418,0.603-4.891,0.839-7.341,0.883c-2.458,0.049-4.914-0.105-7.353-0.432
					c-4.88-0.652-9.703-1.979-14.335-3.943c-9.287-3.891-17.647-10.583-24.193-18.923c-1.578-2.093-3.154-4.335-4.493-6.688
					c-1.36-2.336-2.539-4.76-3.567-7.216c-2.063-4.921-3.459-10.007-4.346-15.093c-0.865-5.093-1.225-10.191-1.103-15.243
					c0.07-2.528,0.243-5.042,0.56-7.555c0.162-1.255,0.344-2.514,0.588-3.777l0.382-1.915c0.069-0.322,0.136-0.65,0.222-0.985
					l0.282-1.146c1.316-5.355,6.724-8.63,12.079-7.313c4.513,1.109,7.548,5.124,7.604,9.565L849.838,938.233z"/>
			</g>
		</g>
		<g>
			<g>
				<path style="fill:#FFFFFF;" d="M1699.501,1055.233c33.635-35.663,40.524-91.419,40.524-91.419"/>
				<path style="fill:#231F20;" d="M1699.501,1055.233c4.781-7.103,9.058-14.302,12.461-21.921
					c3.385-7.609,6.376-15.293,8.628-23.224c2.288-7.902,4.19-15.87,5.588-23.906l1.047-6.007l0.493-2.998
					c0.17-0.998,0.356-1.989,0.499-2.986l1.883-11.604l0.064-0.396c0.884-5.449,6.019-9.15,11.468-8.266
					c5.325,0.864,8.978,5.805,8.317,11.114l-0.23,1.832c-0.08,0.578-0.172,1.15-0.267,1.699c-0.188,1.109-0.395,2.23-0.626,3.314
					c-0.463,2.186-0.972,4.349-1.572,6.481c-1.143,4.281-2.575,8.468-4.128,12.598c-3.203,8.23-6.89,16.244-11.122,23.934
					l-3.241,5.718l-3.53,5.546c-1.132,1.859-2.464,3.616-3.727,5.393l-1.913,2.648c-0.325,0.437-0.63,0.883-0.97,1.31l-1.042,1.266
					l-4.147,5.023c-1.419,1.636-2.991,3.156-4.468,4.722l-2.24,2.32c-0.765,0.755-1.602,1.449-2.395,2.171
					C1702.73,1052.45,1701.098,1053.838,1699.501,1055.233z"/>
			</g>
		</g>
		<g>
			<g>
				<path style="fill:#FFFFFF;" d="M1653.905,1469.048c51.397-4.634,98.718-40.609,98.718-40.609"/>
				<path style="fill:#231F20;" d="M1653.905,1469.048c8.83-2.181,17.369-4.781,25.586-8.199c8.197-3.44,16.181-7.172,23.829-11.554
					c7.654-4.341,15.1-8.971,22.255-13.983l5.356-3.743l5.308-3.759l10.332-7.332l0.275-0.195
					c4.503-3.195,10.743-2.135,13.938,2.367c3.13,4.411,2.163,10.499-2.11,13.749l-1.53,1.161c-0.491,0.364-0.987,0.716-1.47,1.051
					c-0.971,0.68-1.964,1.35-2.948,1.984c-1.981,1.276-3.978,2.505-6.017,3.651c-4.05,2.343-8.233,4.425-12.46,6.389
					c-8.503,3.839-17.186,7.221-26.031,10.035l-6.647,2.036l-6.735,1.731c-2.222,0.612-4.511,1.035-6.772,1.506l-3.391,0.686
					l-1.694,0.33l-1.717,0.249l-6.833,0.981c-2.276,0.289-4.592,0.379-6.868,0.573l-3.414,0.251c-1.138,0.07-2.291,0.032-3.43,0.053
					C1658.437,1469.089,1656.161,1469.054,1653.905,1469.048z"/>
			</g>
		</g>
		<g>
			<g>
				<path style="fill:#FFFFFF;" d="M1391.316,1465.595c0,0,25.916,61.134,0.993,121.242c-18.232,43.969-78.404,76.713-78.404,76.713
					"/>
				<path style="fill:#231F20;" d="M1391.316,1465.595c2.389,4.333,4.414,8.882,6.242,13.506c1.858,4.62,3.427,9.357,4.864,14.151
					c2.826,9.597,4.872,19.493,6.007,29.572c0.605,5.039,0.857,10.124,1,15.235c0.068,5.11-0.087,10.245-0.498,15.384
					c-0.852,10.273-2.833,20.539-5.891,30.558c-0.397,1.247-0.835,2.481-1.253,3.724c-0.442,1.247-0.799,2.467-1.34,3.749
					c-0.509,1.266-1.002,2.547-1.536,3.803l-1.707,3.699c-2.411,4.847-5.119,9.488-8.109,13.885
					c-6.004,8.765-12.938,16.655-20.368,23.844c-7.439,7.196-15.399,13.69-23.701,19.633c-4.15,2.975-8.425,5.754-12.749,8.457
					c-2.185,1.319-4.382,2.615-6.615,3.875c-1.114,0.634-2.249,1.233-3.394,1.841c-1.167,0.621-2.241,1.172-3.584,1.824
					c-4.973,2.411-10.96,0.335-13.372-4.639c-2.221-4.581-0.634-10.022,3.517-12.737l0.294-0.192l2.801-1.836l2.915-1.95
					c1.956-1.295,3.898-2.634,5.825-3.992c3.891-2.663,7.692-5.465,11.461-8.285c7.52-5.663,14.825-11.567,21.645-17.859
					c6.866-6.248,13.221-12.913,18.818-19.985c2.748-3.563,5.334-7.204,7.588-10.991l1.645-2.853
					c0.515-0.962,0.99-1.936,1.493-2.904c0.515-0.935,0.948-2.043,1.422-3.071c0.461-1.047,0.944-2.088,1.391-3.144
					c7.068-16.939,10.774-35.572,11.401-54.632c0.137-4.764,0.17-9.559-0.008-14.368c-0.181-4.809-0.589-9.619-1.068-14.447
					C1395.402,1484.809,1393.801,1475.15,1391.316,1465.595z"/>
			</g>
		</g>
		<g>
			<g>
				<path style="fill:#FFFFFF;" d="M987.509,1572.5c17.072,44.352,72.34,81.597,72.34,81.597"/>
				<path style="fill:#231F20;" d="M987.509,1572.5c2.307,4.044,4.832,7.887,7.501,11.586c2.715,3.675,5.599,7.187,8.579,10.587
					c3.035,3.364,6.144,6.632,9.371,9.776c3.261,3.117,6.557,6.174,9.958,9.112c3.417,2.924,6.89,5.771,10.413,8.546
					c3.518,2.78,7.153,5.416,10.773,8.042l10.82,7.865c1.81,1.287,3.581,2.624,5.364,3.921l2.644,1.964
					c0.852,0.638,1.791,1.342,2.504,1.906l0.276,0.218c4.334,3.428,5.069,9.72,1.642,14.054c-3.182,4.024-8.833,4.944-13.094,2.313
					c-1.189-0.732-2.126-1.36-3.141-2.066c-1.003-0.679-1.96-1.402-2.926-2.112c-1.917-1.44-3.786-2.918-5.608-4.458
					c-1.822-1.536-3.617-3.099-5.353-4.73c-1.756-1.606-3.467-3.26-5.142-4.953c-3.349-3.385-6.549-6.918-9.683-10.498
					c-3.131-3.584-6.17-7.244-9.058-11.026c-2.88-3.789-5.687-7.625-8.292-11.602c-2.587-3.992-5.076-8.035-7.312-12.217
					c-2.226-4.19-4.267-8.462-6.016-12.838C990.007,1581.503,988.575,1577.023,987.509,1572.5z"/>
			</g>
		</g>
	</g>
	<g>
		<g>
			<path style="fill:#FFFFFF;stroke:#231F20;stroke-width:7.8872;stroke-linecap:round;stroke-miterlimit:10;" d="M635.439,2079.246
				c0,0,113.094-102.098,62.336-150.27c-45.376-43.064-88.584,22.616-88.584,22.616s-72.088-34.873-98.811,12.601
				C461.52,2050.99,635.439,2079.246,635.439,2079.246z"/>
			<path style="fill:#FFFFFF;stroke:#231F20;stroke-width:7.8872;stroke-linecap:round;stroke-miterlimit:10;" d="M549.119,2108.534
				c0,0,69.311-17.24,58.962-48.368c-9.252-27.827-41.624-10.212-41.624-10.212s-22.106-30.34-43.64-16.612
				C483.445,2058.442,549.119,2108.534,549.119,2108.534z"/>
		</g>
		<g>
			<path style="fill:#FFFFFF;stroke:#231F20;stroke-width:7.8872;stroke-linecap:round;stroke-miterlimit:10;" d="M786.898,486.104
				c0,0,115.557-21.92,101.427-74.06c-12.632-46.611-67.489-20.648-67.489-20.648s-33.534-51.933-70.212-31.358
				C683.563,397.655,786.898,486.104,786.898,486.104z"/>
			<path style="fill:#FFFFFF;stroke:#231F20;stroke-width:7.8872;stroke-linecap:round;stroke-miterlimit:10;" d="M718.223,470.764
				c0,0,52.623,16.457,58.295-8.223c5.07-22.063-23.346-23.443-23.346-23.443s-2.397-28.88-22.107-28.472
				C695.029,411.37,718.223,470.764,718.223,470.764z"/>
		</g>
		<g>
			<path style="fill:#FFFFFF;stroke:#231F20;stroke-width:7.8872;stroke-linecap:round;stroke-miterlimit:10;" d="M454.665,1902.492
				c0,0,133.205-89.444,87.529-147.273c-40.833-51.697-95.728,10.278-95.728,10.278s-69.905-47.168-104.885-1.697
				C277.627,1846.936,454.665,1902.492,454.665,1902.492z"/>
			<path style="fill:#FFFFFF;stroke:#231F20;stroke-width:7.8872;stroke-linecap:round;stroke-miterlimit:10;" d="M360.296,1920.064
				c0,0,74.832-7.567,68.717-41.566c-5.467-30.394-41.852-16.891-41.852-16.891s-18.488-34.942-42.994-23.865
				C299.361,1857.994,360.296,1920.064,360.296,1920.064z"/>
		</g>
		<g>
			<path style="fill:#FFFFFF;stroke:#231F20;stroke-width:7.8872;stroke-linecap:round;stroke-miterlimit:10;" d="M1093.23,624.446
				c0,0,86.053-16.324,75.53-55.151c-9.407-34.71-50.258-15.377-50.258-15.377s-24.972-38.673-52.285-23.352
				C1016.279,558.58,1093.23,624.446,1093.23,624.446z"/>
			<path style="fill:#FFFFFF;stroke:#231F20;stroke-width:7.8872;stroke-linecap:round;stroke-miterlimit:10;" d="M1042.089,613.022
				c0,0,39.187,12.255,43.411-6.124c3.776-16.43-17.385-17.457-17.385-17.457s-1.785-21.506-16.462-21.203
				C1024.817,568.793,1042.089,613.022,1042.089,613.022z"/>
		</g>
		<g>
			<path style="fill:#FFFFFF;stroke:#231F20;stroke-width:7.8872;stroke-linecap:round;stroke-miterlimit:10;" d="M737.821,1811.174
				c0,0,86.053-16.324,75.53-55.151c-9.407-34.71-50.258-15.376-50.258-15.376s-24.972-38.673-52.285-23.352
				C660.87,1745.308,737.821,1811.174,737.821,1811.174z"/>
			<path style="fill:#FFFFFF;stroke:#231F20;stroke-width:7.8872;stroke-linecap:round;stroke-miterlimit:10;" d="M686.68,1799.75
				c0,0,39.187,12.255,43.411-6.124c3.776-16.43-17.385-17.457-17.385-17.457s-1.785-21.506-16.462-21.203
				C669.408,1755.521,686.68,1799.75,686.68,1799.75z"/>
		</g>
	</g>
	<g>
		
			<ellipse transform="matrix(0.8589 -0.5122 0.5122 0.8589 -850.5066 1895.6715)" style="fill:#FFFFFF;stroke:#231F20;stroke-width:18.7201;stroke-linecap:round;stroke-miterlimit:10;" cx="3014.82" cy="2491.249" rx="151.293" ry="125.983"/>
		<g>
			<path style="fill:#FFFFFF;" d="M2475.65,2294.927c-82.64-15.42-282.819,67.361-320.849,139.699
				c-38.03,72.338,26.765,153.044,26.765,153.044s-58.181-10.533-80.682,22.668c-25.882,38.191,19.044,121.719,85.198,147.89
				c34.857,13.789,83.578,3.465,123.245-47.751c49.112-63.411,39.586-91.572,39.586-91.572s83.566-32.714,138.362-105.968
				S2583.679,2315.085,2475.65,2294.927z"/>
			<path style="fill:#FFFFFF;stroke:#231F20;stroke-width:17.9123;stroke-linecap:round;stroke-miterlimit:10;" d="
				M2348.913,2618.904c-22.877,130.497-159.323,218.27-245.909,57.314c-41.257-76.692,21.216-96.735,78.561-88.548"/>
			<path style="fill:#FFFFFF;stroke:#231F20;stroke-width:17.9123;stroke-linecap:round;stroke-miterlimit:10;" d="
				M2459.031,2293.167c0,0-357.357,47.677-312.635,214.369c29.789,111.034,79.608,126.352,79.608,126.352"/>
			<path style="fill:#FFFFFF;stroke:#231F20;stroke-width:17.9123;stroke-linecap:round;stroke-miterlimit:10;" d="
				M2540.029,2351.147c1.283,2.529,16.073,73.033-52.754,161.789c-68.827,88.756-170.655,118.415-170.655,118.415"/>
		</g>
		<g>
			<g>
				<path style="fill:#FFFFFF;stroke:#231F20;stroke-width:17.0826;stroke-linecap:round;stroke-miterlimit:10;" d="
					M2964.144,2509.699c-157.711,146.06-469.548,77.003-555.528-163.187c-85.256-238.169,216.499-629.129,479.383-538.126
					C3106.644,1884.074,3153.104,2334.698,2964.144,2509.699z"/>
			</g>
			<g>
				<path style="fill:#FFFFFF;stroke:#231F20;stroke-width:10;stroke-linecap:round;stroke-miterlimit:10;" d="M2739.971,2390.887
					c-113.283,124.788-323.205,80.98-372.39-110.652c-48.771-190.02,172.362-519.308,348.04-455.757
					C2861.736,1877.334,2875.7,2241.373,2739.971,2390.887z"/>
			</g>
		</g>
		<g>
			<g>
				<path style="fill:#FFFFFF;" d="M2831.496,1259.093c0,0,392.31-541.996,639.227-386.925
					c272.195,170.947,220.245,596.445,124.621,649.168c-156.774,86.439-245.22-91.108-254.875-146.912
					c-9.656-55.804-7.52-164.991-7.52-164.991s-132.098,84.872-243.316,126.89c-111.219,42.018-205.089,59.203-205.089,59.203
					L2831.496,1259.093z"/>
				<g>
					<path style="fill:none;stroke:#231F20;stroke-width:5;stroke-linecap:round;stroke-miterlimit:10;" d="M2858.732,1279.251
						c0,0,51.153-69.752,184.358-155.229c173.878-111.577,305.319-37.474,305.319-37.474l-5.16,59.397
						c0,0-109.087,87.777-237.054,143.787c-146.858,64.279-222.853,52.813-222.853,52.813L2858.732,1279.251z"/>
					<g>
						<path style="fill:none;stroke:#231F20;stroke-width:18.0158;stroke-linecap:round;stroke-miterlimit:10;" d="
							M2904.034,1388.547c0,0,142.559-34.032,237.587-74.826c95.028-40.793,188.304-101.261,188.304-101.261"/>
						<path style="fill:none;stroke:#231F20;stroke-width:18.0158;stroke-linecap:round;stroke-miterlimit:10;" d="
							M2842.844,1246.005c0,0,380.272-534.873,637.991-367.012c252.638,164.551,251.643,726.323,7.182,658.574
							c-244.461-67.749-136.064-461.603-136.064-461.603"/>
					</g>
				</g>
			</g>
			<g>
				<path style="fill:#FFFFFF;" d="M2750.097,1196.579c0,0,358.208-565.114,122.731-737.061
					c-259.584-189.55-635.602,16.26-649.171,124.609c-22.245,177.637,175.431,194.054,230.844,182.361
					c55.413-11.694,156.048-54.107,156.048-54.107s-29.927,154.134-27.776,273.006s20.945,212.433,20.945,212.433L2750.097,1196.579
					z"/>
				<g>
					<path style="fill:none;stroke:#231F20;stroke-width:5;stroke-linecap:round;stroke-miterlimit:10;" d="M2721.287,1178.743
						c0,0,45.853-73.345,75.932-228.732c39.263-202.834-78.242-297.493-78.242-297.493l-53.264,26.786
						c0,0-41.146,133.835-45.792,273.446c-5.332,160.22,33.458,226.568,33.458,226.568L2721.287,1178.743z"/>
					<g>
						<path style="fill:none;stroke:#231F20;stroke-width:18.0158;stroke-linecap:round;stroke-miterlimit:10;" d="
							M2602.985,1177.131c0,0-21.173-145.027-18.466-248.406c2.707-103.379,24.339-212.415,24.339-212.415"/>
						<path style="fill:none;stroke:#231F20;stroke-width:18.0158;stroke-linecap:round;stroke-miterlimit:10;" d="
							M2758.053,1181.192c0,0,356.049-551.294,104.691-728.54c-246.401-173.751-767.875,35.184-614.423,237.184
							c153.452,201.999,479.174-44.528,479.174-44.528"/>
					</g>
				</g>
			</g>
			<path style="fill:#FFFFFF;stroke:#231F20;stroke-width:17.0826;stroke-linecap:round;stroke-miterlimit:10;" d="
				M2225.744,1439.123c-78.082,264.923,106.988,427.335,371.365,505.256s507.948,41.845,586.031-223.078
				c78.082-264.923-72.94-542.854-337.318-620.775S2303.827,1174.199,2225.744,1439.123z"/>
			<g>
				<g>
					<g>
						<path style="fill:#231F20;" d="M2383.267,1508.17c-10.267,42.411,15.799,85.143,58.21,95.41
							c42.438,10.274,85.152-15.782,95.424-58.206c10.27-42.424-15.787-85.14-58.209-95.417
							C2436.269,1439.68,2393.55,1465.75,2383.267,1508.17z"/>
						<g>
							<path style="fill:#1A1A1A;" d="M2970.594,1760.476c-40.05-37.006-101.133-52.943-154.803-47.397
								C2868.252,1724.556,2921.394,1738.887,2970.594,1760.476z"/>
						</g>
						<g>
							<path style="fill:#231F20;" d="M2518.443,1631.548c-40.068-36.996-101.131-52.936-154.806-47.389
								C2416.099,1595.632,2469.24,1609.966,2518.443,1631.548z"/>
						</g>
						<path style="fill:#FFFFFF;" d="M2481.604,1502.363c-3.567,14.733,5.475,29.573,20.208,33.14
							c14.732,3.567,29.583-5.485,33.149-20.218c3.568-14.732-5.485-29.583-20.219-33.144
							C2499.997,1478.57,2485.161,1487.621,2481.604,1502.363z"/>
						<path style="fill:#1A1A1A;" d="M2846.146,1639.91c-10.27,42.424,15.784,85.147,58.209,95.417
							c42.422,10.277,85.139-15.786,95.422-58.206c10.271-42.424-15.799-85.143-58.223-95.414
							C2899.134,1571.423,2856.417,1597.486,2846.146,1639.91z"/>
						<path style="fill:#FFFFFF;" d="M2944.468,1634.113c-3.568,14.733,5.476,29.567,20.221,33.138
							c14.733,3.567,29.567-5.476,33.138-20.222c3.58-14.729-5.475-29.573-20.221-33.143
							C2962.877,1610.31,2948.038,1619.368,2944.468,1634.113z"/>
					</g>
					<g>
						<path style="fill:none;stroke:#1A1A1A;stroke-width:6.6799;stroke-linecap:round;stroke-miterlimit:10;" d="
							M2670.073,1679.092c-0.37,1.272-0.637,2.574-0.763,3.862c-1.519,12.83,7.43,25.528,21.472,29.524
							c2.926,0.85,5.902,1.245,8.777,1.225c12.226-0.008,23.177-7.313,26.422-18.676"/>
						<path style="fill:none;stroke:#1A1A1A;stroke-width:6.6799;stroke-linecap:round;stroke-miterlimit:10;" d="
							M2670.069,1679.104c-0.37,1.272-0.841,2.515-1.425,3.67c-0.147,0.316-0.327,0.65-0.499,0.959
							c-5.875,11.013-19.832,16.506-33.448,12.469c-2.468-0.717-4.797-1.724-6.917-2.975c-0.403-0.228-0.781-0.448-1.151-0.693
							c-10.319-6.557-15.653-18.591-12.306-29.925"/>
						<g>
							<path style="fill:#1A1A1A;stroke:#1A1A1A;stroke-width:7.9491;stroke-miterlimit:10;" d="M2698.047,1737.089l-14.818,51.018
								c-0.199,0.687-0.417,1.341-0.642,2.021c2.532-10.715,0.792-21.54-4.191-30.603c-5.308-9.654-14.319-17.293-25.719-20.604
								c-22.112-6.422-45.193,5.692-52.661,27.224c0.174-0.694,0.341-1.363,0.54-2.05l14.818-51.018
								c2.306-7.939,6.736-23.192,6.736-23.192s6.434,7.546,17.027,9.128c14.047,2.098,27.305-7.427,27.305-7.427
								s6.841,14.877,15.425,19.941c12.163,7.175,22.551,3.443,22.551,3.443S2700.279,1729.404,2698.047,1737.089z"/>
							<path style="fill:#FFFFFF;stroke:#1A1A1A;stroke-width:7.9491;stroke-miterlimit:10;" d="M2652.68,1738.923
								c-22.112-6.422-45.193,5.692-52.661,27.224l-0.03,0.102c-5.222,22.157,7.778,44.751,29.89,51.173
								c22.113,6.423,45.219-5.684,52.68-27.191l0.03-0.102c2.532-10.715,0.792-21.54-4.19-30.602
								C2673.091,1749.874,2664.08,1742.234,2652.68,1738.923z"/>
						</g>
					</g>
				</g>
				<path style="fill:#1A1A1A;" d="M2417.25,1382.377c0,0,28.926-5.433,83.987,8.268c35.083,8.73,75.656,35.84,75.656,35.84
					l7.958-34.286c0,0-30.372-29.488-81.787-36.803C2448.939,1347.694,2417.25,1382.377,2417.25,1382.377z"/>
				<path style="fill:#1A1A1A;" d="M3042.597,1572.551c0,0-20.408-21.207-73.205-41.991c-33.64-13.243-82.416-14.699-82.416-14.699
					l13.409-32.543c0,0,41.845-6.398,87.968,17.471C3036.907,1525.917,3042.597,1572.551,3042.597,1572.551z"/>
			</g>
			<g>
				<g>
					<path style="fill:#FFFFFF;stroke:#231F20;stroke-width:13.5772;stroke-linecap:round;stroke-miterlimit:10;" d="
						M3005.654,1455.013c20.759-13.781,44.155-52.228,57.42-100.107c15.68-56.71,17.066-126.668-17.018-184.582
						c-79.449-134.977-197.88-132.054-246.967-85.396c-30.985,29.452-32.327,104.662-9.737,157.581
						c33.211,77.837,104.118,95.653,144.678,131.492c41.546,36.741,26.997,77.787,51.152,85.668
						C2991.292,1461.676,2998.323,1459.895,3005.654,1455.013z"/>
					<path style="fill:none;stroke:#231F20;stroke-width:2.7682;stroke-linecap:round;stroke-miterlimit:10;" d="M2812.103,1074.842
						c-39.069,39.517-13.041,129.063,70.12,186.995c71.44,49.767,150.914,104.04,107.269,198.613"/>
					<path style="fill:none;stroke:#231F20;stroke-width:2.7682;stroke-linecap:round;stroke-miterlimit:10;" d="M2827.078,1066.481
						c-3.152,52.41,48.794,95.722,131.514,147.512c77.917,48.782,125.373,117.702,72.672,213.238"/>
				</g>
				<g>
					<path style="fill:#FFFFFF;stroke:#231F20;stroke-width:13.5772;stroke-linecap:round;stroke-miterlimit:10;" d="
						M2678.636,1408.098c21.097,13.257,65.763,18.777,114.863,11.185c58.142-9.022,122.484-36.521,161.263-91.401
						c90.377-127.918,39.021-234.675-23.693-260.238c-39.587-16.136-108.698,13.562-147.65,55.912
						c-57.299,62.276-44.388,134.238-60.382,185.946c-16.411,52.978-59.809,56.591-57.062,81.85
						C2666.657,1397.746,2671.172,1403.423,2678.636,1408.098z"/>
					<path style="fill:none;stroke:#231F20;stroke-width:2.7682;stroke-linecap:round;stroke-miterlimit:10;" d="M2945.614,1075.359
						c-52.085-19.368-123.012,41.175-141.63,140.8c-15.994,85.584-32.794,180.343-136.948,179.44"/>
					<path style="fill:none;stroke:#231F20;stroke-width:2.7682;stroke-linecap:round;stroke-miterlimit:10;" d="M2959.393,1085.573
						c-49.072,18.674-67.197,83.834-80.398,180.533c-12.434,91.083-55.748,162.678-164.504,153.916"/>
				</g>
				<g>
					<path style="fill:#FFFFFF;stroke:#231F20;stroke-width:17.3613;stroke-linecap:round;stroke-miterlimit:10;" d="
						M2408.011,1143.069c5.2,31.053,38.112,78.017,87.56,118.264c58.586,47.634,140.432,85.758,226.972,76.83
						c201.702-20.821,261.399-158.451,232.492-239.228c-18.247-50.989-106.317-91.806-180.833-93.478
						c-109.594-2.479-168.434,69.706-232.368,97.604c-65.525,28.56-106.222-9.594-128.405,14.05
						C2407.803,1123.084,2406.157,1132.095,2408.011,1143.069z"/>
					<path style="fill:none;stroke:#231F20;stroke-width:3.5398;stroke-linecap:round;stroke-miterlimit:10;" d="M2960.003,1119.158
						c-25.818-65.535-145.405-82.383-258.134-17.064c-96.842,56.113-203.286,119.105-291.657,19.561"/>
					<path style="fill:none;stroke:#231F20;stroke-width:3.5398;stroke-linecap:round;stroke-miterlimit:10;" d="M2961.888,1140.735
						c-60.189-30.991-139.017,6.089-244.261,74.11c-99.132,64.07-205.795,82.619-290.476-27.835"/>
				</g>
			</g>
			
				<path style="fill:#FFFFFF;stroke:#231F20;stroke-width:14;stroke-linecap:round;stroke-linejoin:round;stroke-miterlimit:10;" d="
				M3105.416,1816.662c32.205,15.449,52.865,51.843,35.528,74.284c-8.444,10.93-34.99,0.709-46.757-12.639
				c9.533,17.518,20.456,60.362-2.933,69.911c-32.954,13.453-49.623-46.016-49.623-46.016"/>
			
				<path style="fill:#FFFFFF;stroke:#231F20;stroke-width:14;stroke-linecap:round;stroke-linejoin:round;stroke-miterlimit:10;" d="
				M2238.196,1619.513c-35.199,6.075-65.005,35.45-54.449,61.77c5.141,12.819,33.468,10.23,48.431,0.599
				c-13.951,14.252-36.151,52.489-16.255,68.058c28.032,21.935,60.297-30.729,60.297-30.729"/>
		</g>
		<g>
			<defs>
				<path id="XMLID_7_" d="M2556.395,1810.061c161.197,495.546-43.027,1006.154-456.148,1140.475
					c-413.12,134.321-878.697-158.51-1039.893-654.056s-27.603-1209.667,385.517-1343.988S2395.198,1314.515,2556.395,1810.061z"/>
			</defs>
			<use xlink:href="#XMLID_7_"  style="overflow:visible;fill:#FFFFFF;"/>
			<clipPath id="XMLID_00000020373923457433143200000010572506373612571819_">
				<use xlink:href="#XMLID_7_"  style="overflow:visible;"/>
			</clipPath>
			<g style="clip-path:url(#XMLID_00000020373923457433143200000010572506373612571819_);">
				<path style="fill:#FFFFFF;stroke:#231F20;stroke-width:17.0609;stroke-linecap:round;stroke-miterlimit:10;" d="
					M1617.879,1629.712c0,0-292.653-95.861-238.055-226.21c48.809-116.527,182.398-30.705,182.398-30.705
					s104.93-123.258,193.146-57.541C1916.655,1435.408,1617.879,1629.712,1617.879,1629.712z"/>
				<path style="fill:#FFFFFF;stroke:#231F20;stroke-width:17.0609;stroke-linecap:round;stroke-miterlimit:10;" d="
					M1801.534,1613.165c0,0-142.342,24.865-148.606-41.012c-5.6-58.892,68.689-52.865,68.689-52.865s16.136-74.035,67.196-66.318
					C1882.165,1467.078,1801.534,1613.165,1801.534,1613.165z"/>
			</g>
			<g style="clip-path:url(#XMLID_00000020373923457433143200000010572506373612571819_);">
				<path style="fill:#FFFFFF;stroke:#231F20;stroke-width:17.0609;stroke-linecap:round;stroke-miterlimit:10;" d="
					M1762.86,1058.488c0,0-292.653-95.861-238.055-226.21c48.809-116.528,182.398-30.705,182.398-30.705
					s104.93-123.258,193.146-57.541C2061.636,864.184,1762.86,1058.488,1762.86,1058.488z"/>
				<path style="fill:#FFFFFF;stroke:#231F20;stroke-width:17.0609;stroke-linecap:round;stroke-miterlimit:10;" d="
					M1946.515,1041.94c0,0-142.342,24.865-148.606-41.012c-5.6-58.892,68.689-52.865,68.689-52.865s16.136-74.035,67.195-66.318
					C2027.147,895.853,1946.515,1041.94,1946.515,1041.94z"/>
			</g>
			<g style="clip-path:url(#XMLID_00000020373923457433143200000010572506373612571819_);">
				<path style="fill:#FFFFFF;stroke:#231F20;stroke-width:17.0609;stroke-linecap:round;stroke-miterlimit:10;" d="
					M1012.518,1393.573c0,0-292.653-95.861-238.055-226.21c48.809-116.528,182.398-30.705,182.398-30.705
					s104.93-123.258,193.146-57.54C1311.294,1199.269,1012.518,1393.573,1012.518,1393.573z"/>
				<path style="fill:#FFFFFF;stroke:#231F20;stroke-width:17.0609;stroke-linecap:round;stroke-miterlimit:10;" d="
					M1196.173,1377.026c0,0-142.342,24.865-148.606-41.012c-5.6-58.892,68.689-52.865,68.689-52.865s16.136-74.035,67.195-66.318
					C1276.805,1230.939,1196.173,1377.026,1196.173,1377.026z"/>
			</g>
			<g style="clip-path:url(#XMLID_00000020373923457433143200000010572506373612571819_);">
				<path style="fill:#FFFFFF;stroke:#231F20;stroke-width:17.0609;stroke-linecap:round;stroke-miterlimit:10;" d="
					M1095.44,2110.726c0,0-292.653-95.861-238.055-226.21c48.809-116.527,182.398-30.705,182.398-30.705
					s104.93-123.257,193.146-57.54C1394.216,1916.423,1095.44,2110.726,1095.44,2110.726z"/>
				<path style="fill:#FFFFFF;stroke:#231F20;stroke-width:17.0609;stroke-linecap:round;stroke-miterlimit:10;" d="
					M1279.096,2094.179c0,0-142.342,24.865-148.606-41.012c-5.6-58.892,68.689-52.865,68.689-52.865s16.136-74.035,67.196-66.318
					C1359.727,1948.092,1279.096,2094.179,1279.096,2094.179z"/>
			</g>
			<g style="clip-path:url(#XMLID_00000020373923457433143200000010572506373612571819_);">
				<path style="fill:#FFFFFF;stroke:#231F20;stroke-width:17.0609;stroke-linecap:round;stroke-miterlimit:10;" d="
					M1813.7,2190.963c0,0-292.653-95.861-238.055-226.21c48.809-116.528,182.398-30.705,182.398-30.705
					s104.93-123.258,193.146-57.54C2112.476,1996.66,1813.7,2190.963,1813.7,2190.963z"/>
				<path style="fill:#FFFFFF;stroke:#231F20;stroke-width:17.0609;stroke-linecap:round;stroke-miterlimit:10;" d="
					M1997.356,2174.416c0,0-142.342,24.865-148.606-41.012c-5.6-58.892,68.689-52.865,68.689-52.865s16.136-74.035,67.195-66.318
					C2077.987,2028.329,1997.356,2174.416,1997.356,2174.416z"/>
			</g>
			<g style="clip-path:url(#XMLID_00000020373923457433143200000010572506373612571819_);">
				<path style="fill:#FFFFFF;stroke:#231F20;stroke-width:17.0609;stroke-linecap:round;stroke-miterlimit:10;" d="
					M2302.941,1776.997c0,0-292.653-95.861-238.055-226.21c48.809-116.527,182.398-30.705,182.398-30.705
					s104.93-123.258,193.146-57.541C2601.717,1582.693,2302.941,1776.997,2302.941,1776.997z"/>
				<path style="fill:#FFFFFF;stroke:#231F20;stroke-width:17.0609;stroke-linecap:round;stroke-miterlimit:10;" d="
					M2486.596,1760.45c0,0-142.342,24.865-148.606-41.012c-5.6-58.892,68.689-52.865,68.689-52.865s16.136-74.035,67.196-66.318
					C2567.228,1614.363,2486.596,1760.45,2486.596,1760.45z"/>
			</g>
			<g style="clip-path:url(#XMLID_00000020373923457433143200000010572506373612571819_);">
				<path style="fill:#FFFFFF;stroke:#231F20;stroke-width:17.0609;stroke-linecap:round;stroke-miterlimit:10;" d="
					M1280.114,2760.517c0,0-292.653-95.861-238.055-226.21c48.809-116.527,182.398-30.705,182.398-30.705
					s104.93-123.258,193.146-57.541C1578.89,2566.213,1280.114,2760.517,1280.114,2760.517z"/>
				<path style="fill:#FFFFFF;stroke:#231F20;stroke-width:17.0609;stroke-linecap:round;stroke-miterlimit:10;" d="
					M1463.77,2743.969c0,0-142.342,24.865-148.606-41.012c-5.6-58.892,68.689-52.865,68.689-52.865s16.136-74.035,67.195-66.318
					C1544.401,2597.882,1463.77,2743.969,1463.77,2743.969z"/>
			</g>
			<g style="clip-path:url(#XMLID_00000020373923457433143200000010572506373612571819_);">
				<path style="fill:#FFFFFF;stroke:#231F20;stroke-width:17.0609;stroke-linecap:round;stroke-miterlimit:10;" d="
					M2028.379,2850.923c0,0-292.653-95.861-238.055-226.21c48.809-116.528,182.398-30.705,182.398-30.705
					s104.93-123.258,193.146-57.541C2327.156,2656.62,2028.379,2850.923,2028.379,2850.923z"/>
				<path style="fill:#FFFFFF;stroke:#231F20;stroke-width:17.0609;stroke-linecap:round;stroke-miterlimit:10;" d="
					M2212.035,2834.376c0,0-142.342,24.865-148.606-41.012c-5.6-58.892,68.689-52.865,68.689-52.865s16.136-74.035,67.196-66.318
					C2292.666,2688.289,2212.035,2834.376,2212.035,2834.376z"/>
			</g>
			<g style="clip-path:url(#XMLID_00000020373923457433143200000010572506373612571819_);">
				<path style="fill:#FFFFFF;stroke:#231F20;stroke-width:17.0609;stroke-linecap:round;stroke-miterlimit:10;" d="
					M2450.25,2395.388c0,0-292.653-95.861-238.055-226.211c48.809-116.527,182.398-30.705,182.398-30.705
					s104.93-123.258,193.146-57.541C2749.026,2201.084,2450.25,2395.388,2450.25,2395.388z"/>
				<path style="fill:#FFFFFF;stroke:#231F20;stroke-width:17.0609;stroke-linecap:round;stroke-miterlimit:10;" d="
					M2633.906,2378.841c0,0-142.342,24.865-148.606-41.012c-5.6-58.892,68.689-52.865,68.689-52.865s16.136-74.035,67.196-66.319
					C2714.537,2232.754,2633.906,2378.841,2633.906,2378.841z"/>
			</g>
			
				<use xlink:href="#XMLID_7_"  style="overflow:visible;fill:none;stroke:#231F20;stroke-width:21.6671;stroke-linecap:round;stroke-miterlimit:10;"/>
		</g>
		<g>
			<path style="fill:#FFFFFF;stroke:#231F20;stroke-width:18.0158;stroke-linecap:round;stroke-miterlimit:10;" d="
				M2931.278,2046.802c0,0-132.897,2.612-248.689-32.515c-115.792-35.127-283.476-107.235-301.146-4.969
				c-15.383,89.033,98.801,150.848,254.319,210.798c111.433,42.956,249.476,69.022,249.476,69.022"/>
		</g>
	</g>
	<g>
		<path style="fill:#FFFFFF;" d="M2741.017,2477.94c-76.216-35.473-290.687-5.034-345.5,55.585
			c-54.813,60.619-12.106,154.894-12.106,154.894s-53.738-24.661-83.784,1.907c-34.561,30.561-11.801,122.633,45.775,164.423
			c30.336,22.019,80.095,24.125,131.245-15.627c63.329-49.217,61.1-78.862,61.1-78.862s89.074-10.922,160.355-68.261
			C2769.383,2634.66,2840.648,2524.311,2741.017,2477.94z"/>
		<path style="fill:#FFFFFF;stroke:#231F20;stroke-width:17.9123;stroke-linecap:round;stroke-miterlimit:10;" d="M2537.746,2760.26
			c-54.589,120.718-208.565,171.831-252.438-5.593c-20.904-84.539,44.589-88.428,98.102-66.248"/>
		<path style="fill:#FFFFFF;stroke:#231F20;stroke-width:17.9123;stroke-linecap:round;stroke-miterlimit:10;" d="
			M2648.154,2460.587c0,0-282.459-2.483-278.896,141.472c2.844,114.925,45.711,142.171,45.711,142.171"/>
		<path style="fill:#FFFFFF;stroke:#231F20;stroke-width:17.9123;stroke-linecap:round;stroke-miterlimit:10;" d="
			M2789.406,2548.395c0.614,2.769-2.581,74.736-91.305,143.604c-88.724,68.868-194.728,72.292-194.728,72.292"/>
	</g>
	<g>
		<path style="fill:#FFFFFF;stroke:#231F20;stroke-width:20;stroke-miterlimit:10;" d="M1681.299,1140.039
			c0,0-63.9,133.171-55.573,259.785c10.29,156.456,56.923,274.535,56.923,274.535s35.84-40.974,73.897-64.13
			c26.895-16.364,82.005-35.672,82.005-35.672s-107.985-89.045-120.773-215.766s37.81-210.576,37.81-210.576L1681.299,1140.039z"/>
		<path style="fill:#FFFFFF;stroke:#231F20;stroke-width:20;stroke-miterlimit:10;" d="M1767.208,1139.851
			c0,0,22.626,149.914,86.353,259.637c81.15,139.719,175.907,205.894,175.907,205.894s15.756-48.831,36.36-88.186
			c14.717-28.111,50.898-75.069,50.898-75.069s-123.566-28.798-196.642-133.113c-73.077-104.314-84.065-198.33-84.065-198.33
			L1767.208,1139.851z"/>
		<g>
			<g>
				<path style="fill:#FFFFFF;stroke:#231F20;stroke-width:20;stroke-miterlimit:10;" d="M1728.478,1027.568
					c-4.464-1.858-249.397-184.773-359.185-152.316c-109.788,32.456,4.407,224.606,4.407,224.606s-27.869,219.633,55.056,252.937
					c123.472,49.588,342.086-192.785,342.086-192.785"/>
				<path style="fill:none;stroke:#231F20;stroke-width:20;stroke-miterlimit:10;" d="M1442.664,1357.048
					c0,0-42.361-0.724-37.881-47.12s72.982-116.524,181.833-127.484c108.851-10.96,168.038-5.307,168.038-5.307"/>
			</g>
			<g>
				<path style="fill:#FFFFFF;stroke:#231F20;stroke-width:20;stroke-miterlimit:10;" d="M1791.011,1022.718
					c3.432-3.406,161.164-265.266,275.08-276.668c113.916-11.402,80.73,209.642,80.73,209.642s108.739,192.851,44.529,255.001
					c-95.606,92.54-389.556-49.341-389.556-49.341"/>
				<path style="fill:none;stroke:#231F20;stroke-width:20;stroke-miterlimit:10;" d="M2180.077,1219.884
					c0,0,38.951-16.665,17.284-57.935s-111.578-80.34-216.51-49.386c-104.931,30.954-157.602,58.537-157.602,58.537"/>
				<path style="fill:#FFFFFF;stroke:#231F20;stroke-width:20;stroke-miterlimit:10;" d="M1834.584,1175.985
					c-7.412,15.117-97.373,31.46-116.127,13.807c-5.583-5.255-16.618-51.019-21.338-75.364c-4.545-23.44-22.589-76.403-7.844-95.182
					c17.681-22.519,105.82-33.324,113.131-21.588c13.792,22.144,6,66.31,10.569,90.062
					C1817.715,1112.366,1844.318,1156.134,1834.584,1175.985z"/>
			</g>
		</g>
		<g>
			<g>
				<path style="fill:#231F20;" d="M1799.663,1092.215c0.52-0.685,0.914-1.149,1.345-1.679c0.428-0.532,0.847-1.01,1.269-1.502
					c0.839-0.993,1.688-1.95,2.543-2.883c1.69-1.911,3.451-3.692,5.185-5.516c3.536-3.552,7.134-7.008,10.859-10.298
					c7.432-6.599,15.201-12.75,23.352-18.321l3.034-2.114l3.112-2c2.084-1.318,4.124-2.694,6.238-3.956
					c4.272-2.455,8.447-5.046,12.852-7.238c2.183-1.127,4.337-2.298,6.537-3.382l6.677-3.089l3.333-1.539
					c1.122-0.489,2.27-0.923,3.402-1.387l6.808-2.734l1.7-0.68l1.732-0.596l3.461-1.19c2.31-0.784,4.603-1.603,6.919-2.352
					l7.016-2.036l3.502-1.015c1.172-0.319,2.363-0.579,3.542-0.87l7.082-1.7c2.371-0.517,4.764-0.939,7.14-1.411l3.567-0.689
					c1.193-0.206,2.396-0.367,3.592-0.552c2.397-0.348,4.783-0.74,7.181-1.048c9.602-1.184,19.25-1.795,28.876-1.791
					c9.619,0.042,19.252,0.584,28.681,2.282c-9.532-0.87-19.102-0.57-28.579,0.216c-9.48,0.823-18.88,2.251-28.142,4.222
					c-2.313,0.505-4.609,1.093-6.909,1.633c-1.148,0.282-2.301,0.538-3.443,0.84l-3.409,0.974c-2.268,0.661-4.547,1.269-6.799,1.97
					l-6.708,2.244c-1.114,0.381-2.238,0.729-3.343,1.136l-3.294,1.276l-6.577,2.546c-2.165,0.916-4.302,1.899-6.45,2.843
					l-3.216,1.428l-1.606,0.713l-1.569,0.794l-6.262,3.174c-1.039,0.535-2.092,1.04-3.118,1.598l-3.043,1.744l-6.075,3.478
					c-1.995,1.209-3.94,2.502-5.909,3.745c-3.977,2.424-7.709,5.23-11.521,7.879c-1.884,1.359-3.691,2.828-5.538,4.232l-2.754,2.126
					l-2.67,2.232c-7.172,5.875-13.91,12.249-20.231,18.933c-3.172,3.334-6.188,6.791-9.112,10.287
					c-1.411,1.776-2.871,3.531-4.198,5.331c-0.688,0.894-1.35,1.789-1.979,2.683c-0.319,0.446-0.652,0.898-0.935,1.326
					c-0.288,0.425-0.624,0.907-0.798,1.196L1799.663,1092.215z"/>
			</g>
		</g>
		<g>
			<g>
				<path style="fill:#231F20;" d="M1691.77,1117.855l-0.152-0.087l-0.268-0.131l-0.555-0.271l-1.215-0.554
					c-0.811-0.373-1.693-0.725-2.538-1.091c-1.741-0.701-3.499-1.4-5.306-2.041c-3.586-1.324-7.288-2.483-11.008-3.607
					c-7.468-2.197-15.131-3.971-22.875-5.46c-7.74-1.54-15.6-2.593-23.493-3.533l-5.938-0.575c-1.981-0.202-3.964-0.389-5.954-0.497
					c-3.963-0.237-8.014-0.625-11.836-0.588l-2.913-0.045l-1.459-0.023l-1.463,0.078l-5.871,0.308
					c-1.962,0.1-3.917,0.403-5.882,0.594l-2.948,0.326c-0.984,0.102-1.958,0.301-2.939,0.447l-5.886,0.95l-5.859,1.204
					c-1.963,0.374-3.903,0.853-5.845,1.339c-1.938,0.496-3.902,0.914-5.827,1.474c-7.753,2.069-15.413,4.572-23,7.314
					c-7.574,2.777-15.085,5.797-22.407,9.264c6.931-4.203,14.121-7.995,21.43-11.565c7.325-3.536,14.781-6.856,22.429-9.767
					c1.896-0.771,3.844-1.402,5.768-2.111c1.927-0.698,3.859-1.392,5.827-1.983l5.887-1.856l5.978-1.61
					c1.001-0.256,1.99-0.564,3.004-0.778l3.04-0.66c2.034-0.414,4.049-0.936,6.111-1.26l6.199-0.971l1.554-0.242l1.573-0.141
					l3.152-0.279c4.261-0.465,8.304-0.487,12.432-0.666c2.057-0.099,4.116-0.118,6.177-0.121l6.188-0.038
					c8.252,0.127,16.536,0.379,24.818,1.152c8.284,0.722,16.578,1.757,24.86,3.29c4.14,0.795,8.282,1.638,12.43,2.696
					c2.074,0.504,4.154,1.088,6.243,1.689c1.055,0.329,2.09,0.625,3.164,0.987l1.614,0.543l0.847,0.307l0.433,0.159l0.543,0.217
					L1691.77,1117.855z"/>
			</g>
		</g>
		<g>
			<g>
				<path style="fill:#231F20;" d="M2093.032,880.455c1.102,4.731,2.525,9.372,4.099,13.948c1.574,4.577,3.338,9.08,5.278,13.494
					c3.877,8.827,8.461,17.312,13.827,25.187c5.344,7.885,11.568,15.096,18.56,21.268c0.889,0.754,1.762,1.525,2.659,2.262
					l2.742,2.143l2.945,2.297c0.968,0.799,1.956,1.58,2.909,2.399c3.836,3.251,7.497,6.711,10.982,10.34
					c13.925,14.568,24.902,31.711,33.593,49.77c4.344,9.047,8.125,18.353,11.386,27.853c1.632,4.751,3.127,9.552,4.49,14.412
					c0.678,2.432,1.323,4.877,1.928,7.349c0.303,1.236,0.594,2.48,0.875,3.738l0.411,1.906c0.137,0.667,0.258,1.237,0.402,2.057
					l-19.804,2.795c-0.031-0.381-0.106-1.008-0.172-1.537l-0.221-1.679l-0.509-3.409c-0.364-2.283-0.773-4.576-1.214-6.867
					c-0.89-4.582-1.914-9.159-3.072-13.706c-2.313-9.095-5.136-18.081-8.5-26.853c-6.736-17.522-15.649-34.294-27.462-48.865
					c-2.959-3.63-6.094-7.118-9.41-10.43c-0.824-0.834-1.681-1.631-2.521-2.45l-2.611-2.408l-2.772-2.611
					c-0.901-0.891-1.77-1.812-2.653-2.715c-6.931-7.361-12.753-15.569-17.535-24.242c-4.801-8.667-8.664-17.753-11.761-27.039
					c-1.549-4.644-2.905-9.341-4.061-14.079C2094.689,890.045,2093.694,885.271,2093.032,880.455z"/>
			</g>
		</g>
		<g>
			<g>
				<path style="fill:#231F20;" d="M1436.814,1026.8c-5.92,5.98-11.517,12.256-16.893,18.688
					c-5.367,6.439-10.475,13.075-15.212,19.923c-4.728,6.849-9.095,13.919-12.772,21.233c-3.658,7.298-6.67,14.896-8.109,22.494
					c-1.467,7.94-2.406,16.193-3.077,24.417c-0.667,8.244-1.068,16.536-1.302,24.843c-0.233,8.307-0.297,16.629-0.232,24.95
					c0.072,8.293,0.253,16.703,0.622,24.848l-20,0.008c0.444-8.667,1.078-17.065,1.823-25.57c0.752-8.477,1.636-16.942,2.693-25.398
					c1.059-8.455,2.288-16.901,3.795-25.329c1.523-8.441,3.28-16.806,5.702-25.226c2.624-8.745,6.763-16.549,11.39-23.849
					c4.655-7.294,9.881-14.079,15.399-20.554c5.526-6.469,11.354-12.624,17.396-18.532
					C1424.083,1037.846,1430.313,1032.15,1436.814,1026.8z"/>
			</g>
		</g>
	</g>
</g>

    <text x="10" y="832" font-size="12" fill="gray" opacity="0.6" font-family="Arial, sans-serif">
      twoja-kolorowanka.pl
    </text>
  
</svg>
