<?xml version="1.0" encoding="utf-8"?>
<!-- Generator: Adobe Illustrator 27.5.0, SVG Export Plug-In . SVG Version: 6.00 Build 0)  -->
<svg xmlns="http://www.w3.org/2000/svg" xmlns:xlink="http://www.w3.org/1999/xlink" viewBox="0 0 2000 2000" width="595" height="842" preserveAspectRatio="xMidYMid meet" data-scaled="true">
<g id="BACKGROUND">
	<rect style="fill:#FFFFFF;" width="2000" height="2000"/>
</g>
<g id="OBJECTS">
	<g>
		<g>
			
				<ellipse transform="matrix(0.2238 -0.9746 0.9746 0.2238 870.4504 1863.6952)" style="fill:none;stroke:#000000;stroke-width:11;stroke-linecap:round;stroke-linejoin:round;stroke-miterlimit:10;" cx="1605.294" cy="385.36" rx="62.048" ry="62.048"/>
			
				<path style="fill:none;stroke:#000000;stroke-width:7.0914;stroke-linecap:round;stroke-linejoin:round;stroke-miterlimit:10;" d="
				M1617.209,343.715c8.477,2.421,15.891,7.359,21.382,13.956"/>
			
				<path style="fill:none;stroke:#000000;stroke-width:7.0914;stroke-linecap:round;stroke-linejoin:round;stroke-miterlimit:10;" d="
				M1571.772,412.776c-6.114-7.467-9.782-17.013-9.782-27.416c0-15.618,8.268-29.306,20.666-36.923"/>
		</g>
		<g>
			
				<ellipse transform="matrix(0.7071 -0.7071 0.7071 0.7071 314.7688 1373.7019)" style="fill:none;stroke:#000000;stroke-width:11;stroke-linecap:round;stroke-linejoin:round;stroke-miterlimit:10;" cx="1815.589" cy="306.891" rx="92.593" ry="92.593"/>
			
				<path style="fill:none;stroke:#000000;stroke-width:7.635;stroke-linecap:round;stroke-linejoin:round;stroke-miterlimit:10;" d="
				M1833.369,244.745c12.649,3.612,23.714,10.982,31.908,20.826"/>
			
				<path style="fill:none;stroke:#000000;stroke-width:7.635;stroke-linecap:round;stroke-linejoin:round;stroke-miterlimit:10;" d="
				M1765.564,347.804c-9.123-11.142-14.598-25.388-14.598-40.913c0-23.307,12.339-43.732,30.84-55.1"/>
		</g>
		<g>
			
				<ellipse transform="matrix(0.7071 -0.7071 0.7071 0.7071 -296.216 256.4694)" style="fill:none;stroke:#000000;stroke-width:11;stroke-linecap:round;stroke-linejoin:round;stroke-miterlimit:10;" cx="161.478" cy="485.799" rx="92.593" ry="92.593"/>
			
				<path style="fill:none;stroke:#000000;stroke-width:7.635;stroke-linecap:round;stroke-linejoin:round;stroke-miterlimit:10;" d="
				M179.258,423.653c12.65,3.612,23.714,10.982,31.908,20.826"/>
			
				<path style="fill:none;stroke:#000000;stroke-width:7.635;stroke-linecap:round;stroke-linejoin:round;stroke-miterlimit:10;" d="
				M111.453,526.712c-9.123-11.142-14.598-25.388-14.598-40.913c0-23.307,12.339-43.732,30.84-55.1"/>
		</g>
		<g>
			
				<ellipse transform="matrix(0.2298 -0.9732 0.9732 0.2298 -452.568 782.6791)" style="fill:none;stroke:#000000;stroke-width:11;stroke-linecap:round;stroke-linejoin:round;stroke-miterlimit:10;" cx="268.195" cy="677.262" rx="62.048" ry="62.048"/>
			
				<path style="fill:none;stroke:#000000;stroke-width:7.0914;stroke-linecap:round;stroke-linejoin:round;stroke-miterlimit:10;" d="
				M280.109,635.617c8.477,2.421,15.891,7.359,21.382,13.956"/>
			
				<path style="fill:none;stroke:#000000;stroke-width:7.0914;stroke-linecap:round;stroke-linejoin:round;stroke-miterlimit:10;" d="
				M234.672,704.678c-6.114-7.467-9.782-17.013-9.782-27.416c0-15.618,8.268-29.306,20.666-36.923"/>
		</g>
		<g>
			
				<ellipse transform="matrix(0.7071 -0.7071 0.7071 0.7071 -437.2681 1475.8888)" style="fill:none;stroke:#000000;stroke-width:11;stroke-linecap:round;stroke-linejoin:round;stroke-miterlimit:10;" cx="1562.921" cy="1265.774" rx="62.048" ry="62.048"/>
			
				<path style="fill:none;stroke:#000000;stroke-width:7.0914;stroke-linecap:round;stroke-linejoin:round;stroke-miterlimit:10;" d="
				M1574.836,1224.129c8.477,2.421,15.891,7.359,21.382,13.956"/>
			
				<path style="fill:none;stroke:#000000;stroke-width:7.0914;stroke-linecap:round;stroke-linejoin:round;stroke-miterlimit:10;" d="
				M1529.399,1293.19c-6.114-7.467-9.782-17.013-9.782-27.416c0-15.618,8.268-29.306,20.666-36.923"/>
		</g>
		<g>
			
				<circle style="fill:none;stroke:#000000;stroke-width:8.4212;stroke-linecap:round;stroke-linejoin:round;stroke-miterlimit:10;" cx="108.483" cy="1100.627" r="51.425"/>
			
				<path style="fill:none;stroke:#000000;stroke-width:5.8774;stroke-linecap:round;stroke-linejoin:round;stroke-miterlimit:10;" d="
				M118.358,1066.111c7.025,2.006,13.171,6.099,17.722,11.566"/>
			
				<path style="fill:none;stroke:#000000;stroke-width:5.8774;stroke-linecap:round;stroke-linejoin:round;stroke-miterlimit:10;" d="
				M80.699,1123.35c-5.067-6.188-8.108-14.101-8.108-22.723c0-12.945,6.853-24.289,17.129-30.602"/>
		</g>
		<g>
			
				<ellipse transform="matrix(0.7071 -0.7071 0.7071 0.7071 52.1659 406.2897)" style="fill:none;stroke:#000000;stroke-width:11;stroke-linecap:round;stroke-linejoin:round;stroke-miterlimit:10;" cx="516.518" cy="140.175" rx="51.426" ry="51.426"/>
			
				<path style="fill:none;stroke:#000000;stroke-width:5.8774;stroke-linecap:round;stroke-linejoin:round;stroke-miterlimit:10;" d="
				M526.393,105.659c7.026,2.006,13.171,6.099,17.722,11.566"/>
			
				<path style="fill:none;stroke:#000000;stroke-width:5.8774;stroke-linecap:round;stroke-linejoin:round;stroke-miterlimit:10;" d="
				M488.734,162.898c-5.067-6.188-8.108-14.1-8.108-22.723c0-12.945,6.853-24.289,17.129-30.602"/>
		</g>
	</g>
	
		<path style="fill:#FFFFFF;stroke:#000000;stroke-width:9.5784;stroke-linecap:round;stroke-linejoin:round;stroke-miterlimit:10;" d="
		M1033.523,1868.578c0,0,39.981-45.093,22.305-59.86c-17.676-14.767-60.768,15.26-60.768,15.26s-31.534-34.656-50.418-26.422
		c-18.884,8.234-1.614,57.753-1.614,57.753s-54.138,10.64-46.91,35.148c7.229,24.508,51.423,20.797,51.423,20.797
		s-4.929,60.063,18.072,61.271c23.001,1.208,40.184-62.469,40.184-62.469s58.352,30.742,76.434,10.756
		C1100.312,1900.827,1033.523,1868.578,1033.523,1868.578z"/>
	<g>
		<g>
			<path style="fill:none;stroke:#000000;stroke-width:12;stroke-linecap:round;stroke-linejoin:round;stroke-miterlimit:10;" d="
				M899.817,409.885c0,0-3.03,71.574,27.777,72.161c30.807,0.587,24.805-77.822,24.805-77.822"/>
			
				<line style="fill:none;stroke:#000000;stroke-width:14;stroke-linecap:round;stroke-linejoin:round;stroke-miterlimit:10;" x1="956.256" y1="420.401" x2="987.372" y2="419.328"/>
			
				<line style="fill:none;stroke:#000000;stroke-width:14;stroke-linecap:round;stroke-linejoin:round;stroke-miterlimit:10;" x1="952.98" y1="437.229" x2="989.499" y2="444.034"/>
		</g>
		<g>
			<path style="fill:none;stroke:#000000;stroke-width:12;stroke-linecap:round;stroke-linejoin:round;stroke-miterlimit:10;" d="
				M803.367,413.487c0,0,8.359,71.149-22.319,74.032c-30.678,2.883-30.539-75.756-30.539-75.756"/>
			
				<line style="fill:none;stroke:#000000;stroke-width:14;stroke-linecap:round;stroke-linejoin:round;stroke-miterlimit:10;" x1="747.87" y1="428.181" x2="716.76" y2="429.432"/>
			
				<line style="fill:none;stroke:#000000;stroke-width:14;stroke-linecap:round;stroke-linejoin:round;stroke-miterlimit:10;" x1="752.391" y1="444.719" x2="716.482" y2="454.228"/>
		</g>
		<path style="fill:none;stroke:#000000;stroke-width:12;stroke-linecap:round;stroke-linejoin:round;stroke-miterlimit:10;" d="
			M688.848,777.8c21.214,81.541-62.934,213.516-16.072,247.973"/>
		<g>
			
				<path style="fill:#FFFFFF;stroke:#000000;stroke-width:10.1517;stroke-linecap:round;stroke-linejoin:round;stroke-miterlimit:10;" d="
				M686.14,751.133c-1.365,3.334-1.673,6.705-1.002,9.796c-0.512-0.026-1.026-0.039-1.547-0.025
				c-13.242,0.14-21.315,13.543-23.497,25.992c-1.99,9.791-2.704,17.79,3.229,22.884c-7.67,2.516-10.443,10.494-12.714,20.203
				c-3.164,12.12-2.017,27.489,9.854,33.238c1.754,0.866,3.586,1.429,5.44,1.702c-4.675,2.649-7.441,7.376-7.727,13.242
				c-0.833,12.256,10.677,20.573,23.28,22.607c3.243-0.962,9.124,1.759,20.078-0.689c10.561-1.971,26.193-9.111,39.848-18.766
				c6.373-4.411,12.31-9.362,17.36-14.258c2.499,2.861,5.833,4.952,9.737,5.812c10.215,2.249,20.442-4.77,22.843-15.677
				c1.391-6.321-0.156-12.558-3.687-17.125c5.123-2.662,9.146-7.672,10.538-13.993c2.401-10.907-3.933-21.571-14.148-23.82
				c-3.584-0.789-7.167-0.433-10.416,0.827c-2.638-6.835-6.21-14.196-10.482-21.181c-8.415-14.08-19.642-26.66-28.401-32.674
				c-8.921-6.59-15.375-6.614-17.962-8.835C704.469,736.945,690.53,739.66,686.14,751.133z"/>
			
				<path style="fill:none;stroke:#000000;stroke-width:5.1504;stroke-linecap:round;stroke-linejoin:round;stroke-miterlimit:10;" d="
				M682.031,860.649c26.566,0.114,53.143-2.771,79.065-8.585"/>
			
				<path style="fill:none;stroke:#000000;stroke-width:5.1504;stroke-linecap:round;stroke-linejoin:round;stroke-miterlimit:10;" d="
				M683.172,815.352c26.122,6.987,52.243,13.973,78.365,20.96"/>
			
				<path style="fill:none;stroke:#000000;stroke-width:5.1504;stroke-linecap:round;stroke-linejoin:round;stroke-miterlimit:10;" d="
				M699.332,772.473c23.031,16.715,46.061,33.43,69.092,50.145"/>
		</g>
		<g>
			
				<path style="fill:#FFFFFF;stroke:#000000;stroke-width:10.1517;stroke-linecap:round;stroke-linejoin:round;stroke-miterlimit:10;" d="
				M961.562,731.271c1.623,3.217,2.196,6.552,1.77,9.686c0.508-0.067,1.02-0.12,1.54-0.147
				c13.211-0.903,22.316,11.822,25.471,24.061c2.755,9.604,4.097,17.521-1.416,23.068c7.844,1.904,11.237,9.639,14.265,19.139
				c4.109,11.833,4.175,27.244-7.205,33.911c-1.68,1.002-3.462,1.707-5.289,2.125c4.869,2.273,7.998,6.767,8.745,12.592
				c1.795,12.152-9.023,21.35-21.427,24.37c-3.308-0.704-8.958,2.472-20.07,0.894c-10.683-1.133-26.83-7.02-41.202-15.569
				c-6.7-3.895-13.009-8.363-18.429-12.846c-2.266,3.049-5.425,5.396-9.249,6.56c-10.006,3.046-20.754-3.145-24.006-13.829
				c-1.885-6.192-0.834-12.531,2.327-17.362c-5.317-2.25-9.722-6.928-11.607-13.12c-3.252-10.684,2.222-21.814,12.228-24.86
				c3.51-1.069,7.111-0.997,10.449,0.004c2.092-7.022,5.073-14.641,8.782-21.941c7.279-14.699,17.481-28.124,25.74-34.81
				c8.375-7.272,14.807-7.805,17.21-10.223C942.173,718.57,956.282,720.179,961.562,731.271z"/>
			
				<path style="fill:none;stroke:#000000;stroke-width:5.1504;stroke-linecap:round;stroke-linejoin:round;stroke-miterlimit:10;" d="
				M974.283,840.123c-26.474,2.206-53.196,1.422-79.495-2.331"/>
			
				<path style="fill:none;stroke:#000000;stroke-width:5.1504;stroke-linecap:round;stroke-linejoin:round;stroke-miterlimit:10;" d="
				M969.579,795.056c-25.49,9.022-50.98,18.044-76.47,27.066"/>
			
				<path style="fill:none;stroke:#000000;stroke-width:5.1504;stroke-linecap:round;stroke-linejoin:round;stroke-miterlimit:10;" d="
				M950.091,753.583c-21.643,18.477-43.286,36.953-64.928,55.43"/>
		</g>
		<path style="fill:none;stroke:#000000;stroke-width:12;stroke-linecap:round;stroke-linejoin:round;stroke-miterlimit:10;" d="
			M659.894,1116.408c0,0-25.713,197.164,228.81,361.38s493.494,153.778,504.463,131.776
			c10.97-22.002-149.623-45.053-213.118-238.947c-63.495-193.894-38.69-271.716-118.885-375.972"/>
		<path style="fill:none;stroke:#000000;stroke-width:12;stroke-linecap:round;stroke-linejoin:round;stroke-miterlimit:10;" d="
			M784.987,670.094c0,0-67.408,11.487-99.958,29.469c-32.549,17.982-125.072,108.951-168.086,137.006
			c-43.014,28.055-146.291,56.905-182.697,58.71c-36.406,1.805-61.191,5.775-53.396,19.25c7.795,13.475,51.459,9.588,51.459,9.588
			s-50.499,12.92-46.334,27.437c4.166,14.517,47.407,3.68,47.407,3.68s-24.559,21.188-12.207,28.642
			c12.352,7.454,51.591-38.309,51.591-38.309s-16,50.093-0.132,47.897c15.867-2.196,36.147-46.51,36.147-46.51
			s103.376-5.827,241.531-102.035"/>
		<path style="fill:none;stroke:#000000;stroke-width:14;stroke-linecap:round;stroke-linejoin:round;stroke-miterlimit:10;" d="
			M397.635,905.372c0,0-53.087,17.59-43.942,33.035c9.146,15.445,60.768-12.724,60.768-12.724"/>
		<path style="fill:none;stroke:#000000;stroke-width:12;stroke-linecap:round;stroke-linejoin:round;stroke-miterlimit:10;" d="
			M948.869,666.276c4.052,5.908,30.498,2.247,82.443,73.758c51.944,71.511,117.478,143.836,158.049,156.548
			c40.571,12.712,77.482-1.022,96.473,7.669c18.992,8.691,7.403,34.013,7.403,34.013s13.084,12.743,5.939,23.435
			c-1.969,1.351-67.749-14.34-87.864-7.782c16.909,1.433,53.882,42.673,40.407,50.468c-13.475,7.795-62.068-35.61-122.673-60.642
			c-60.604-25.032-134.324-90.295-134.324-90.295"/>
		<path style="fill:none;stroke:#000000;stroke-width:14;stroke-linecap:round;stroke-linejoin:round;stroke-miterlimit:10;" d="
			M1223.529,925.932c24.9-0.364,49.859,3.785,73.302,12.187"/>
		<path style="fill:none;stroke:#000000;stroke-width:12;stroke-linecap:round;stroke-linejoin:round;stroke-miterlimit:10;" d="
			M634.803,406.804c0,0-31.677,82.673,29.058,194.348c33.262,61.16,216.04,119.984,354.158,35.068
			c81.471-50.089,63.672-194.247,43.917-235.714"/>
		<path style="fill:none;stroke:#000000;stroke-width:12;stroke-linecap:round;stroke-linejoin:round;stroke-miterlimit:10;" d="
			M1058.616,399.888c-46.019-11.828-183.05-68.457-206.579-144.979c-12.99,69.718-105.203,159.028-216.451,156.479"/>
		<path style="fill:none;stroke:#000000;stroke-width:12;stroke-linecap:round;stroke-linejoin:round;stroke-miterlimit:10;" d="
			M837.107,129.957c-82.831,5.524-160.943,49.202-215.053,112.159c-54.111,62.957-85.124,143.892-94.888,226.33
			c-12.042,101.68,13.323,216.204,95.809,276.867"/>
		<path style="fill:none;stroke:#000000;stroke-width:12;stroke-linecap:round;stroke-linejoin:round;stroke-miterlimit:10;" d="
			M829.896,128.761c89.487-11.869,184.754,10.585,254.159,68.307s108.742,147.394,93.754,236.412
			c20.748,39.109,64.707,61.096,108.364,68.453c43.656,7.357,88.299,2.562,132.562,1.657c61.928-1.266,125.98,5.772,180.057,35.978
			c54.077,30.206,94.666,90.84,92.623,152.747c-23.673-11.69-50.027-16.58-75.996-21.345c-15.297-2.807-30.85-5.625-46.314-3.975
			c-18.379,1.961-35.579,10.159-51.057,20.261c-31.553,20.594-54.098,55.466-70.926,89.177
			c38.502-25.1,86.529-35.175,131.872-27.665c45.343,7.51,87.557,32.533,115.91,68.707c18.318,23.371,34.35,56.041,20.385,82.247
			c-8.273-25.627-43.515-30.27-69.152-22.03c-47.387,15.232-81.495,55.422-116.766,90.543
			c-57.944,57.695-127.302,106.662-206.548,126.82c-79.246,20.157-150.001,35.053-212.705-17.43"/>
		<path style="fill:none;stroke:#000000;stroke-width:7.419;stroke-linecap:round;stroke-linejoin:round;stroke-miterlimit:10;" d="
			M787.728,1303.89c9.743,17.142,32.164,25.877,50.935,19.846c18.771-6.032,31.907-26.193,29.841-45.802"/>
		<path style="fill:none;stroke:#000000;stroke-width:7.419;stroke-linecap:round;stroke-linejoin:round;stroke-miterlimit:10;" d="
			M954.471,1338.121c8.86,13.988,26.924,21.454,43.075,17.803s29.248-18.16,31.231-34.599"/>
		<path style="fill:none;stroke:#000000;stroke-width:7.419;stroke-linecap:round;stroke-linejoin:round;stroke-miterlimit:10;" d="
			M1046.143,1145.02c8.86,13.988,26.924,21.454,43.075,17.803c16.151-3.651,29.248-18.16,31.231-34.599"/>
		<path style="fill:none;stroke:#000000;stroke-width:7.419;stroke-linecap:round;stroke-linejoin:round;stroke-miterlimit:10;" d="
			M1028.93,1241.501c7.499,16.097,27.92,24.829,44.739,19.13c16.819-5.699,27.725-25.047,23.894-42.386"/>
		<path style="fill:none;stroke:#000000;stroke-width:7.419;stroke-linecap:round;stroke-linejoin:round;stroke-miterlimit:10;" d="
			M921.938,1446.435c16.418,9.831,37.825,10.755,55.028,2.375c17.203-8.38,29.672-25.806,32.051-44.794"/>
		<path style="fill:none;stroke:#000000;stroke-width:7.419;stroke-linecap:round;stroke-linejoin:round;stroke-miterlimit:10;" d="
			M1084.403,1427.684c7.715,14.57,26.721,22.01,42.277,16.548c15.556-5.462,25.739-23.151,22.651-39.346"/>
		<path style="fill:none;stroke:#000000;stroke-width:7.419;stroke-linecap:round;stroke-linejoin:round;stroke-miterlimit:10;" d="
			M1083.017,1544.25c9.878,12.287,28.54,15.491,43.056,9.341c19.35-8.198,30.448-32.089,24.231-52.163"/>
		<path style="fill:none;stroke:#000000;stroke-width:7.419;stroke-linecap:round;stroke-linejoin:round;stroke-miterlimit:10;" d="
			M1221.497,1609.087c15.368,2.895,32.164-4.902,39.872-18.508c7.708-13.606,5.76-32.021-4.624-43.714"/>
		<path style="fill:none;stroke:#000000;stroke-width:7.419;stroke-linecap:round;stroke-linejoin:round;stroke-miterlimit:10;" d="
			M718.506,1229.531c10.833,20.123,39.498,25.319,60.159,15.552c20.661-9.767,34.058-30.552,42.04-51.966"/>
		<path style="fill:none;stroke:#000000;stroke-width:7.419;stroke-linecap:round;stroke-linejoin:round;stroke-miterlimit:10;" d="
			M834.382,214.22C784.695,298.69,719.82,379.259,630.32,419.181"/>
		<path style="fill:none;stroke:#000000;stroke-width:7.419;stroke-linecap:round;stroke-linejoin:round;stroke-miterlimit:10;" d="
			M883.664,224.397c51.898,69.598,117.167,129.188,191.189,174.554"/>
		<path style="fill:none;stroke:#000000;stroke-width:7.419;stroke-linecap:round;stroke-linejoin:round;stroke-miterlimit:10;" d="
			M1213.942,790.332c83.539,27.176,179.608,23.475,254.283-22.794"/>
		<path style="fill:none;stroke:#000000;stroke-width:7.419;stroke-linecap:round;stroke-linejoin:round;stroke-miterlimit:10;" d="
			M998.421,643.609c40.376,43.274,86.254,82.501,137.44,111.803"/>
		<path style="fill:none;stroke:#000000;stroke-width:7.419;stroke-linecap:round;stroke-linejoin:round;stroke-miterlimit:10;" d="
			M1221.039,602.067c-57.638-4.48-109.987-23.754-149.409-69.219"/>
		<path style="fill:none;stroke:#000000;stroke-width:7.419;stroke-linecap:round;stroke-linejoin:round;stroke-miterlimit:10;" d="
			M1552.774,590.137c-15.609-3.587-31.487-5.841-47.14-6.791c-41.418-2.512-82.642,1.892-123.883,7.19"/>
		<path style="fill:none;stroke:#000000;stroke-width:7.419;stroke-linecap:round;stroke-linejoin:round;stroke-miterlimit:10;" d="
			M1694.907,697.531c-13.081-33.617-37.975-59.578-68.656-78.232"/>
		
			<path style="fill:none;stroke:#000000;stroke-width:5.1504;stroke-linecap:round;stroke-linejoin:round;stroke-miterlimit:10;" d="
			M1451.199,856.572c-55.463,19.303-108.518,47.883-158.776,78.556"/>
		
			<path style="fill:none;stroke:#000000;stroke-width:5.1504;stroke-linecap:round;stroke-linejoin:round;stroke-miterlimit:10;" d="
			M1713.156,900.325c-8.329-25.422-29.844-45.085-54.362-55.784c-24.519-10.699-51.85-13.313-78.595-12.724
			c-12.354,0.272-24.615,1.191-36.78,2.69"/>
		
			<path style="fill:#FFFFFF;stroke:#000000;stroke-width:11.7536;stroke-linecap:round;stroke-linejoin:round;stroke-miterlimit:10;" d="
			M685.723,382.453l-6.151,16.785c-1.416,3.865-0.84,8.18,1.541,11.537l10.341,14.583c5.996,8.456-0.307,20.117-10.666,19.732
			l-17.864-0.662c-4.114-0.153-8.039,1.729-10.496,5.031l-5.839,14.931c-6.189,8.316-24.061,5.334-26.897-4.637l-4.89-17.195
			c-1.126-3.959-4.128-7.111-8.028-8.428l-16.937-5.72c-9.821-3.316-11.576-16.455-2.97-22.233l14.842-9.965
			c3.418-2.294,5.487-6.124,5.535-10.24l0.206-17.876c0.119-10.365,12.073-16.094,20.227-9.695l14.063,11.036
			c3.238,2.541,7.52,3.327,11.449,2.1l17.064-5.328C680.147,363.122,689.289,372.72,685.723,382.453z"/>
		<path style="fill:none;stroke:#000000;stroke-width:12;stroke-linecap:round;stroke-linejoin:round;stroke-miterlimit:10;" d="
			M671.538,1028.252c58.823,26.386,122.993,38.043,184.052,17.351c117.629-39.862,147.276-99.086,143.388-95.171"/>
		<path style="fill:none;stroke:#000000;stroke-width:12;stroke-linecap:round;stroke-linejoin:round;stroke-miterlimit:10;" d="
			M665.966,1029.029c-29.617,11.352-39.108,56.038-16.663,78.448c22.445,22.41,90.351,26.321,101.658-3.313
			c12.688,31.6,20.986,57.926,54.899,60.999c33.913,3.073,67.368-42.198,67.099-76.249c22.317,25.978,60.206,44.437,92.039,31.804
			c31.832-12.633,50.971-53.552,35.552-84.132c11.336,14.638,36.537,12.594,48.403-1.617c11.866-14.211,11.333-35.988,2.401-52.205
			c-8.932-16.217-19.797-18.897-50.297-31.097c18.3-39.649-13.128-63.306-18.3-73.199"/>
		<path style="fill:none;stroke:#000000;stroke-width:14;stroke-linecap:round;stroke-linejoin:round;stroke-miterlimit:10;" d="
			M733.351,689.654c0.101,20.353-1.301,25.867-6.789,45.466"/>
		<path style="fill:none;stroke:#000000;stroke-width:14;stroke-linecap:round;stroke-linejoin:round;stroke-miterlimit:10;" d="
			M936.231,675.516c3.806,20.338,2.62,24.686,6.426,45.024"/>
		<path style="fill:none;stroke:#000000;stroke-width:14;stroke-linecap:round;stroke-linejoin:round;stroke-miterlimit:10;" d="
			M801.467,839.77c23.001,7.572,40.078,7.107,61.352-4.461"/>
		
			<path style="fill:#FFFFFF;stroke:#000000;stroke-width:11.7536;stroke-linecap:round;stroke-linejoin:round;stroke-miterlimit:10;" d="
			M1225.755,333.873c0,0,15.108-68.161-11.137-84.08c-26.245-15.919-71.702,47.641-71.702,47.641s-74.253-62.032-97.883-32.18
			c-23.63,29.852,33.645,85.729,33.645,85.729s-77.361,45.59-59.076,74.631c18.285,29.042,105.815,7.597,105.815,7.597
			s14.526,79.747,54.39,84.596c39.864,4.848,24.685-98.796,24.685-98.796s89.243,9.945,92.039-24.259
			C1299.327,360.548,1225.755,333.873,1225.755,333.873z"/>
		<path style="fill:none;stroke:#000000;stroke-width:7.419;stroke-linecap:round;stroke-linejoin:round;stroke-miterlimit:10;" d="
			M1067.922,293.396c7.12,25.028,23.485,47.313,45.235,61.598"/>
		<path style="fill:none;stroke:#000000;stroke-width:7.419;stroke-linecap:round;stroke-linejoin:round;stroke-miterlimit:10;" d="
			M1206.644,278.174c3.744,24.212-0.173,49.552-11.053,71.504"/>
		<path d="M851.175,1002.417c-11.842,0-11.862,18.404,0,18.404C863.017,1020.821,863.037,1002.417,851.175,1002.417z"/>
		<path style="fill:none;stroke:#000000;stroke-width:7.419;stroke-linecap:round;stroke-linejoin:round;stroke-miterlimit:10;" d="
			M943.109,524.673c0,0-137.248,15.25-176.897,6.1c-3.05,60.999,33.549,94.549,103.698,88.449
			C940.059,613.122,943.109,524.673,943.109,524.673z"/>
		<path style="fill:none;stroke:#000000;stroke-width:7.419;stroke-linecap:round;stroke-linejoin:round;stroke-miterlimit:10;" d="
			M781.461,591.772c0,0,14.557-19.893,42.007-13.793c27.45,6.1,28.142,19.893,28.142,19.893s13.73-33.68,76.249-21.35"/>
		<path style="fill:none;stroke:#000000;stroke-width:7.419;stroke-linecap:round;stroke-linejoin:round;stroke-miterlimit:10;" d="
			M766.211,530.773c0,0,67.099,70.149,176.897-6.1"/>
		<path style="fill:none;stroke:#000000;stroke-width:12;stroke-linecap:round;stroke-linejoin:round;stroke-miterlimit:10;" d="
			M1293.853,1537.258c0,0-9.15-106.748,88.449-137.248c97.599-30.5,250.096,30.5,234.846,73.199
			c-15.25,42.699-64.049,15.25-70.149,51.849c-6.1,36.599-85.016,101.913-153.832,84.506"/>
		<path style="fill:none;stroke:#000000;stroke-width:12;stroke-linecap:round;stroke-linejoin:round;stroke-miterlimit:10;" d="
			M1263.347,1619.595c0,0-67.996,82.798-4.831,163.208s223.396,116.501,235.01,72.673c11.614-43.828-44.151-48.842-28.451-82.461
			c15.7-33.619-12.352-132.142-78.926-156.768"/>
		
			<path style="fill:none;stroke:#000000;stroke-width:5.1504;stroke-linecap:round;stroke-linejoin:round;stroke-miterlimit:10;" d="
			M1291.815,1632.433c-23.488,39.25-10.093,91.032,15.391,129.017c40.651,60.594,112.146,100.488,185.095,98.899"/>
		
			<path style="fill:none;stroke:#000000;stroke-width:5.1504;stroke-linecap:round;stroke-linejoin:round;stroke-miterlimit:10;" d="
			M1346.989,1623.098c-13.075,25.773-0.637,56.951,14.546,81.541c29.994,48.574,71.13,90.221,119.331,120.811"/>
		
			<path style="fill:none;stroke:#000000;stroke-width:5.1504;stroke-linecap:round;stroke-linejoin:round;stroke-miterlimit:10;" d="
			M1363.922,1576.783c19.669-33.389,62.039-44.152,100.007-51.904c31.784-6.489,63.567-12.979,95.351-19.468"/>
		
			<path style="fill:none;stroke:#000000;stroke-width:5.1504;stroke-linecap:round;stroke-linejoin:round;stroke-miterlimit:10;" d="
			M1314.383,1559.214c12.298-47.513,53.709-82.458,98.162-103.258c54.949-25.711,117.691-34.466,177.58-24.779"/>
		<path style="fill:none;stroke:#000000;stroke-width:7.419;stroke-linecap:round;stroke-linejoin:round;stroke-miterlimit:10;" d="
			M632.292,485.651c47.902,5.523,85.119,46.832,85.119,96.971c0,18.595-5.119,35.975-14.003,50.766"/>
		<path style="fill:none;stroke:#000000;stroke-width:7.419;stroke-linecap:round;stroke-linejoin:round;stroke-miterlimit:10;" d="
			M1026.726,626.266c-13.735-25.904-15.603-57.927-2.293-86.913c11.247-24.492,31.201-42.179,54.371-50.974"/>
	</g>
	<g>
		<path style="fill:none;stroke:#000000;stroke-width:12;stroke-linecap:round;stroke-linejoin:round;stroke-miterlimit:10;" d="
			M250.932,1699.761c0,0-97.301-87.884-62.775-147.52s62.775-18.832,97.301-37.665c34.526-18.832,72.191-147.52,197.74-125.549
			c125.549,21.971,87.884,128.688,125.549,141.243c37.665,12.555,106.717-40.804,156.937,0
			c50.22,40.803-3.139,103.578-3.139,103.578s43.942,0,59.636,18.832c15.694,18.832,0,34.526,0,34.526
			C636.477,1743.416,427.188,1735.441,250.932,1699.761z"/>
		
			<path style="fill:none;stroke:#000000;stroke-width:7.9798;stroke-linecap:round;stroke-linejoin:round;stroke-miterlimit:10;" d="
			M262.696,1520.618c-19.927,66.838,2.828,144.409,55.703,189.891"/>
		
			<path style="fill:none;stroke:#000000;stroke-width:7.9798;stroke-linecap:round;stroke-linejoin:round;stroke-miterlimit:10;" d="
			M392.175,1401.582c-28.689,21.427-45.064,67.744-41.443,103.368c4.129,40.625,31.111,74.57,53.373,108.802
			c22.261,34.232,41.138,76.462,27.211,114.848"/>
		
			<path style="fill:none;stroke:#000000;stroke-width:7.9798;stroke-linecap:round;stroke-linejoin:round;stroke-miterlimit:10;" d="
			M511.647,1731.306c17.681-17.417,34.8-37.464,39.132-61.901c3.096-17.467-0.7-35.339-4.561-52.653
			c-9.2-41.26-18.416-86.512,0.903-124.113c8.574-16.688,22.866-34.255,16.36-51.852"/>
		
			<path style="fill:none;stroke:#000000;stroke-width:7.9798;stroke-linecap:round;stroke-linejoin:round;stroke-miterlimit:10;" d="
			M662.895,1526.863c23.861,70.339-2.436,154.652-62.054,198.954"/>
		
			<path style="fill:none;stroke:#000000;stroke-width:7.9798;stroke-linecap:round;stroke-linejoin:round;stroke-miterlimit:10;" d="
			M778.852,1639.902c1.345,16.586-6.819,32.811-18.287,44.868c-11.468,12.057-26.032,20.631-40.389,29.043"/>
		
			<path style="fill:none;stroke:#000000;stroke-width:7.9798;stroke-linecap:round;stroke-linejoin:round;stroke-miterlimit:10;" d="
			M293.707,1513.878c25.606-33.615,15.214-81.872-1.193-120.814c-16.407-38.942-38.205-79.077-31.77-120.841
			c8.355-54.225,63.1-98.506,54.171-152.64"/>
		
			<path style="fill:none;stroke:#000000;stroke-width:7.9798;stroke-linecap:round;stroke-linejoin:round;stroke-miterlimit:10;" d="
			M269.464,1467.384c-17.888-9.972-25.657-34.769-16.656-53.165c2.122-4.336,5.034-8.331,6.387-12.965
			c6.799-23.278-25.994-37.575-36.098-59.62c-11.249-24.545,8.12-53.453,2.307-79.82c-2.514-11.402-9.715-22.157-8.213-33.735
			c3.205-24.711,39.16-28.449,53.693-48.691c19.598-27.296-5.383-75.538,22.282-94.61c20.876-14.392,50.107,7.304,56.302,31.892
			c9.262,36.756-11.242,74.133-33.926,104.501c-6.964,9.323-13.338,24.559-3.377,30.576c2.684,1.621,5.938,1.93,8.895,2.972
			c18.559,6.543,15.096,34.292,4.74,51.025c-10.356,16.733-24.578,36.257-15.988,53.962c2.508,5.17,6.72,9.273,10.25,13.807
			c15.436,19.832,17.173,47.706,10.446,71.92c-4.639,16.7-12.405,34.476-24.062,47.092
			C295.996,1479.791,283.679,1475.308,269.464,1467.384z"/>
		
			<path style="fill:none;stroke:#000000;stroke-width:7.9798;stroke-linecap:round;stroke-linejoin:round;stroke-miterlimit:10;" d="
			M415.884,1340.136c-4.321-15.684-3.063-33.813,7.254-46.391c8.704-10.612,23.514-17.383,26.258-30.831
			c3.56-17.446-16.113-33.394-12.579-50.845c3.419-16.881,24.67-21.899,37.857-32.98c15.654-13.155,19.39-38.376,8.222-55.504
			c-5.748-8.816-14.552-15.176-21.148-23.377c-6.596-8.201-10.832-20.005-5.637-29.158c4.462-7.861,14.974-12.144,16.384-21.073
			c1.338-8.474-6.283-15.287-11.701-21.939c-11.8-14.489-14.316-37.017-3.029-51.909c11.286-14.893,36.802-17.415,48.64-2.957
			c10.976,13.406,7.504,34.35,17.731,48.336c5.214,7.13,13.294,11.465,20.386,16.731c26.711,19.835,39.963,56.191,32.28,88.563
			c-7.409,31.219-32.297,59.438-27.029,91.089c3.493,20.985,20.181,40.828,13.929,61.162c-8.929,29.042-53.547,28.282-71.22,52.997
			c-8.138,11.381-9.112,26.334-15.05,39.011C455.591,1417.654,422.759,1365.089,415.884,1340.136z"/>
		
			<path style="fill:none;stroke:#000000;stroke-width:7.9798;stroke-linecap:round;stroke-linejoin:round;stroke-miterlimit:10;" d="
			M446.24,1376.485c-6.529-53.533,22.28-104.156,47.492-151.83c25.212-47.674,48.218-103.288,30.033-154.059
			c-6.961-19.436-19.48-36.323-28.814-54.737c-9.334-18.415-12.393-34.247-5.476-53.699"/>
	</g>
	<g>
		
			<path style="fill:none;stroke:#000000;stroke-width:7.9798;stroke-linecap:round;stroke-linejoin:round;stroke-miterlimit:10;" d="
			M1719.713,1621.231c1.984-38.382,20.644-73.552,35.477-109.008c14.756-35.271,26.016-72.004,33.563-109.485
			c7.65-37.995,11.203-78.794-4.173-114.371c-9.501-21.984-25.724-40.665-34.284-63.032
			c-14.809-38.694,16.519-132.698,48.03-159.598"/>
		
			<path style="fill:none;stroke:#000000;stroke-width:7.9798;stroke-linecap:round;stroke-linejoin:round;stroke-miterlimit:10;" d="
			M1701.261,1527.875c11.316-12.674,28.928-22.686,30.036-39.641c1.618-24.742-32.522-36.629-40.154-60.219
			c-7.094-21.928,10.871-43.243,26.823-59.877c15.952-16.634,32.377-40.072,22.224-60.762
			c-6.532-13.312-21.699-19.526-33.069-29.044c-22.592-18.911-29.357-54.269-15.342-80.185c6.517-12.05,17.156-22.938,17.44-36.635
			c0.187-9.013-4.292-17.508-5.027-26.493c-1.686-20.618,15.835-37.203,31.928-50.202c11.567-9.343,23.635-18.834,37.978-22.753
			c14.344-3.919,31.67-0.844,40.391,11.199c14.551,20.092-2.18,46.866-13.586,68.896c-12.215,23.592-17.658,53.924-2.497,75.74
			c10.702,15.399,30.716,25.383,33.829,43.875c3.973,23.601-22.786,44.047-19.4,67.74c4.09,28.622,47.036,36.707,54.524,64.634
			c5.85,21.817-13.059,41.894-30.826,55.843c-17.767,13.949-38.181,31.07-36.605,53.603c0.719,10.279,6.176,19.791,6.805,30.076
			c1.359,22.24-19.092,38.961-37.436,51.61c-27.054,18.655-53.003,50.999-74.767,12.268
			C1682.213,1575.628,1685.747,1546.969,1701.261,1527.875z"/>
		<path style="fill:none;stroke:#000000;stroke-width:13;stroke-linecap:round;stroke-linejoin:round;stroke-miterlimit:10;" d="
			M1810.881,1655.819c8.406-21.015-134.965-56.497-197.74-37.665c-62.775,18.832-84.746,40.803-25.11,56.497
			C1647.667,1690.345,1798.326,1687.206,1810.881,1655.819z"/>
	</g>
	<g>
		
			<path style="fill:none;stroke:#000000;stroke-width:7.9798;stroke-linecap:round;stroke-linejoin:round;stroke-miterlimit:10;" d="
			M1265.213,1178.633c3.828,17.772,19.74,32.26,37.793,34.409c18.052,2.149,36.921-8.199,44.814-24.576
			c11.422,15.825,30.984,25.422,50.49,24.77c19.505-0.652,38.383-11.534,48.723-28.086"/>
		
			<path style="fill:none;stroke:#000000;stroke-width:7.9798;stroke-linecap:round;stroke-linejoin:round;stroke-miterlimit:10;" d="
			M1780.445,765.319c7.552,15.638,25.549,25.534,42.799,23.532c17.25-2.001,32.504-15.755,36.274-32.707
			c6.299,18.478,24.974,32.004,44.495,32.228c19.521,0.224,38.501-12.87,45.222-31.199"/>
		
			<path style="fill:none;stroke:#000000;stroke-width:7.9798;stroke-linecap:round;stroke-linejoin:round;stroke-miterlimit:10;" d="
			M1315.728,164.386c9.226,14.61,27.574,22.862,44.626,20.07c17.052-2.792,31.81-16.466,35.894-33.256
			c32.062,36.379,89.88,46.902,132.703,24.151"/>
		
			<path style="fill:none;stroke:#000000;stroke-width:7.9798;stroke-linecap:round;stroke-linejoin:round;stroke-miterlimit:10;" d="
			M246.668,295.829c8.103,17.415,30.188,24.704,49.115,21.433c18.927-3.271,35.309-14.731,50.545-26.427
			c5.235,17.962,23.366,31.295,42.072,30.938c18.706-0.357,36.315-14.371,40.861-32.52"/>
	</g>
	<g>
		
			<path style="fill:none;stroke:#000000;stroke-width:7.9798;stroke-linecap:round;stroke-linejoin:round;stroke-miterlimit:10;" d="
			M1052.877,1881.807c90.684-0.465,282.486-7.062,324.859-18.832"/>
		
			<path style="fill:none;stroke:#000000;stroke-width:7.9798;stroke-linecap:round;stroke-linejoin:round;stroke-miterlimit:10;" d="
			M231.315,1679.359c-25.966,2.226-53.173,6.09-70.516,25.544c-3.955,4.437-7.639,9.466-8.647,15.324
			c-1.246,7.241,1.794,14.541,5.607,20.822c15.818,26.057,45.146,41.503,74.984,47.737s60.678,4.456,91.141,3.363
			c93.974-3.372,188.192,0.063,281.67,10.271c-17.79,4.27-19.507,31.727-6.5,44.592s32.94,14.856,51.198,16.019
			c84.516,5.385,168.366,9.723,252.021,12.161"/>
		
			<path style="fill:none;stroke:#000000;stroke-width:7.9798;stroke-linecap:round;stroke-linejoin:round;stroke-miterlimit:10;" d="
			M1493.869,1831.588c80.433,2.279,158.082-12.329,234.901-36.276c15.213-4.742,30.592-10.155,43.099-20.028
			s21.834-25.069,20.806-40.971c-1.69-26.126-28.974-42.793-54.349-49.239"/>
		
			<path style="fill:none;stroke:#000000;stroke-width:7.9798;stroke-linecap:round;stroke-linejoin:round;stroke-miterlimit:10;" d="
			M834.461,1672.632c138.403-18.83,263.451-15.447,402.032,2.019"/>
		
			<path style="fill:none;stroke:#000000;stroke-width:7.9798;stroke-linecap:round;stroke-linejoin:round;stroke-miterlimit:10;" d="
			M1443.425,1673.7c39.008-9.2,79.554-11.844,119.427-7.786"/>
	</g>
	<g>
		
			<ellipse style="fill:none;stroke:#000000;stroke-width:7.635;stroke-linecap:round;stroke-linejoin:round;stroke-miterlimit:10;" cx="781.377" cy="1804.908" rx="40.804" ry="10.986"/>
		
			<ellipse style="fill:none;stroke:#000000;stroke-width:7.635;stroke-linecap:round;stroke-linejoin:round;stroke-miterlimit:10;" cx="997.95" cy="1751.55" rx="40.804" ry="10.986"/>
		
			<ellipse style="fill:none;stroke:#000000;stroke-width:7.635;stroke-linecap:round;stroke-linejoin:round;stroke-miterlimit:10;" cx="1873.656" cy="1699.761" rx="40.804" ry="10.986"/>
		
			<ellipse style="fill:none;stroke:#000000;stroke-width:7.635;stroke-linecap:round;stroke-linejoin:round;stroke-miterlimit:10;" cx="1647.667" cy="1760.966" rx="40.803" ry="10.986"/>
		
			<ellipse style="fill:none;stroke:#000000;stroke-width:7.635;stroke-linecap:round;stroke-linejoin:round;stroke-miterlimit:10;" cx="1258.464" cy="1917.903" rx="40.803" ry="10.986"/>
		
			<ellipse style="fill:none;stroke:#000000;stroke-width:7.635;stroke-linecap:round;stroke-linejoin:round;stroke-miterlimit:10;" cx="426.701" cy="1864.544" rx="40.804" ry="10.986"/>
		
			<ellipse style="fill:none;stroke:#000000;stroke-width:7.635;stroke-linecap:round;stroke-linejoin:round;stroke-miterlimit:10;" cx="93.995" cy="1684.067" rx="40.804" ry="10.986"/>
	</g>
	<g>
		<defs>
			<rect id="SVGID_1_" width="2000" height="2000"/>
		</defs>
		<clipPath id="SVGID_00000068660786904437763820000017892796844686722185_">
			<use xlink:href="#SVGID_1_"  style="overflow:visible;"/>
		</clipPath>
		<g style="clip-path:url(#SVGID_00000068660786904437763820000017892796844686722185_);">
			<path style="fill:none;stroke:#000000;stroke-width:12;stroke-linecap:round;stroke-linejoin:round;stroke-miterlimit:10;" d="
				M2.972,1793.923c0,0,59.636-47.081,138.104-6.277s72.191,103.578,125.549,122.411c53.358,18.832,69.052-12.555,166.353,21.971
				c97.301,34.526,97.301,87.885,97.301,87.885"/>
			<path style="fill:none;stroke:#000000;stroke-width:12;stroke-linecap:round;stroke-linejoin:round;stroke-miterlimit:10;" d="
				M1556.644,1991.663c0,0,47.081-112.994,131.827-138.104c84.746-25.11,106.717,18.832,163.214-21.971
				c56.497-40.804,84.746-131.827,147.52-131.827"/>
		</g>
	</g>
</g>
</svg>
