<?xml version="1.0" encoding="utf-8"?>
<!-- Generator: Adobe Illustrator 27.5.0, SVG Export Plug-In . SVG Version: 6.00 Build 0)  -->
<svg xmlns="http://www.w3.org/2000/svg" xmlns:xlink="http://www.w3.org/1999/xlink" viewBox="0 0 4000 4000" width="595" height="842" preserveAspectRatio="xMidYMid meet" data-scaled="true">
<g>
	<path style="fill-rule:evenodd;clip-rule:evenodd;fill:none;stroke:#000000;stroke-width:20;stroke-miterlimit:2.6131;" d="
		M1070.831,1971.349c-22.431,83.003-44.867,166.006-83.003,288.269c-38.136,122.26-91.974,283.78-81.878,378
		c10.093,94.218,84.122,121.139,201.896,45.988c117.774-75.153,279.294-252.374,382.488-391.46
		c103.19-139.086,148.057-240.035,192.924-340.986"/>
	<path style="fill-rule:evenodd;clip-rule:evenodd;fill:none;stroke:#000000;stroke-width:20;stroke-miterlimit:2.6131;" d="
		M1041.536,2078.362c-21.641-141.107-43.284-282.216-29.426-487.368c13.854-205.153,63.208-474.353,211.269-684.101
		c148.058-209.751,394.824-360.056,593.357-439.694c198.533-79.638,348.838-88.608,477.827-134.596
		c128.99-45.988,236.673-128.99,318.553-159.276c81.882-30.286,137.963-7.852,158.152,89.733
		c20.191,97.583,4.488,270.319-41.5,454.273c-45.988,183.951-122.264,379.119-185.078,485.679
		c-62.812,106.557-112.163,124.502-208.627,124.502c-96.463,0-240.035-17.945-332.012-35.891
		c-91.977-17.947-132.356-35.896-159.276-24.677c-26.921,11.217-40.38,51.597-23.555,97.585
		c16.825,45.988,63.935,97.583,137.964,142.45c74.032,44.867,174.981,83.003,251.253,106.559
		c76.275,23.555,127.87,32.525,160.397,60.568c32.53,28.041,45.988,75.151,39.257,199.656
		c-6.727,124.504-33.648,326.402-49.353,469.977c-15.701,143.571-20.189,228.818,50.476,309.577
		c70.664,80.761,216.48,157.033,406.041,77.396c189.56-79.638,422.866-315.186,541.763-415.014
		c118.896-99.829,123.382-63.936,96.46,25.797c-26.917,89.732-85.243,233.306-124.5,344.35
		c-39.26,111.044-59.451,189.562-41.501,339.864c17.947,150.302,74.028,372.393,134.596,504.746
		c60.571,132.356,125.629,174.979,125.629,209.75c0,34.771-65.058,61.693-168.252,13.46
		c-103.192-48.231-244.519-171.613-342.105-301.727c-97.585-130.114-151.422-266.954-208.629-334.252
		c-57.206-67.302-117.774-65.058-172.736-52.72c-54.963,12.34-104.314,34.771-209.751,44.867
		c-105.435,10.096-266.955,7.854-452.029-53.837c-185.074-61.693-393.703-182.832-520.941-275.312
		c-127.238-92.482-173.085-156.301-218.933-220.123"/>
	<path style="fill-rule:evenodd;clip-rule:evenodd;fill:none;stroke:#000000;stroke-width:20;stroke-miterlimit:2.6131;" d="
		M2393.735,1703.593c110.888-27.402,221.778-54.801,316.48-103.273c94.703-48.473,173.221-118.017,223.695-118.017
		s72.909,69.544,33.648,182.832c-39.257,113.286-140.206,270.321-251.626,390.713c-111.417,120.392-233.304,204.142-355.191,287.893
		"/>
	<path style="fill-rule:evenodd;clip-rule:evenodd;fill:none;stroke:#000000;stroke-width:20;stroke-miterlimit:2.6131;" d="
		M1884.466,1265.364c14.811,38.477,29.625,76.952,42.639,99.274c13.015,22.323,24.23,28.493,35.164,21.203
		c10.938-7.291,21.595-28.042,28.511-45.988c6.916-17.949,10.095-33.089,13.273-48.23"/>
	<path style="fill-rule:evenodd;clip-rule:evenodd;fill:none;stroke:#000000;stroke-width:20;stroke-miterlimit:2.6131;" d="
		M1949.093,1486.79c18.508-26.36,37.015-52.716,54.401-57.762c17.385-5.049,33.65,11.215,41.292,35.583
		c7.648,24.366,6.67,56.842,5.696,89.313"/>
	<path style="fill-rule:evenodd;clip-rule:evenodd;fill:none;stroke:#000000;stroke-width:20;stroke-miterlimit:2.6131;" d="
		M2078.645,1298.352c11.217,42.996,22.434,85.991,31.408,112.303c8.974,26.31,15.701,35.935,29.721,34.331
		c14.024-1.605,35.335-14.439,51.597-37.539c16.266-23.104,27.481-56.477,38.699-89.844"/>
	<path style="fill-rule:evenodd;clip-rule:evenodd;fill:none;stroke:#000000;stroke-width:20;stroke-miterlimit:2.6131;" d="
		M2137.534,1588.984c13.461-35.747,26.92-71.493,42.904-95.536c15.984-24.044,34.49-36.38,47.389-32.455
		c12.9,3.925,20.191,24.116,25.488,54.928c5.298,30.811,8.598,72.244,10.474,93.026c1.874,20.781,2.318,20.908,2.169,20.867
		c-0.146-0.043-0.887-0.255-1.627-0.467"/>
	<path style="fill-rule:evenodd;clip-rule:evenodd;fill:none;stroke:#000000;stroke-width:20;stroke-miterlimit:2.6131;" d="
		M2294.004,1335.365c6.317,43.746,12.638,87.491,20.901,113.29c8.261,25.798,18.471,33.648,32.323,24.956
		c13.852-8.694,31.349-33.932,44.959-61.973c13.611-28.043,23.329-58.887,33.051-89.733"/>
	<path style="fill-rule:evenodd;clip-rule:evenodd;fill:none;stroke:#000000;stroke-width:20;stroke-miterlimit:2.6131;" d="
		M1428.992,692.432c-141.259,132.992-282.518,265.981-401.379,373.98c-118.859,107.997-215.323,191-298.324,326.721
		c-83.004,135.719-152.547,324.161-190.684,456.517c-38.136,132.354-44.867,208.627-4.486,218.722
		c40.379,10.095,127.87-45.988,214.678-118.852c86.808-72.865,172.931-162.514,259.058-252.159"/>
	<path style="fill-rule:evenodd;clip-rule:evenodd;stroke:#000000;stroke-width:20;stroke-miterlimit:2.6131;" d="M2383.614,754.881
		c-7.151-4.336-23.688,9.861-36.94,31.71c-13.25,21.848-18.196,43.076-11.045,47.413c7.151,4.338,23.689-9.859,36.94-31.71
		C2385.819,780.445,2390.765,759.219,2383.614,754.881z"/>
	<path style="fill-rule:evenodd;clip-rule:evenodd;stroke:#000000;stroke-width:20;stroke-miterlimit:2.6131;" d="M2567.34,796.173
		c-5.79-3.512-19.179,7.982-29.906,25.672c-10.727,17.688-14.732,34.873-8.942,38.385c5.79,3.512,19.179-7.982,29.906-25.672
		C2569.127,816.87,2573.13,799.685,2567.34,796.173z"/>
	<path style="fill-rule:evenodd;clip-rule:evenodd;fill:none;stroke:#000000;stroke-width:20;stroke-miterlimit:2.6131;" d="
		M1727.009,1035.88c67.649,0,122.822-61.975,122.822-137.963c0-75.988-55.173-137.965-122.822-137.965
		s-122.822,61.977-122.822,137.965C1604.187,973.905,1659.36,1035.88,1727.009,1035.88z"/>
	
		<ellipse style="fill-rule:evenodd;clip-rule:evenodd;fill:#020202;stroke:#000000;stroke-width:20;stroke-miterlimit:2.6131;" cx="1752.062" cy="904.523" rx="97.769" ry="109.822"/>
	<path style="fill-rule:evenodd;clip-rule:evenodd;fill:none;stroke:#000000;stroke-width:20;stroke-miterlimit:2.6131;" d="
		M1259.261,1224.326c6.731,49.353,13.461,98.704,42.626,148.057c29.164,49.355,80.757,98.708,137.404,131.798
		c56.643,33.087,118.334,49.912,156.472,57.766c38.136,7.848,52.716,6.727,67.3,5.606"/>
	<path style="fill-rule:evenodd;clip-rule:evenodd;fill:none;stroke:#000000;stroke-width:20;stroke-miterlimit:2.6131;" d="
		M1195.328,1362.287c16.826,35.894,33.651,71.79,57.206,106.001c23.555,34.208,53.838,66.735,101.51,91.974
		c47.671,25.237,112.725,43.182,164.321,52.718c51.599,9.534,89.734,10.655,127.87,11.776"/>
	<path style="fill-rule:evenodd;clip-rule:evenodd;fill:none;stroke:#000000;stroke-width:20;stroke-miterlimit:2.6131;" d="
		M1144.852,1486.792c21.314,30.285,42.624,60.572,70.106,88.052c27.481,27.479,61.131,52.157,107.119,69.542
		c45.988,17.386,104.314,27.481,151.422,31.41c47.111,3.925,83.003,1.68,118.897-0.563"/>
	<path style="fill-rule:evenodd;clip-rule:evenodd;fill:none;stroke:#000000;stroke-width:20;stroke-miterlimit:2.6131;" d="
		M1421.223,2380.279c89.494,110.255,178.988,220.511,316.777,313.486c137.788,92.975,323.875,168.672,498.92,192.326
		c175.046,23.655,339.055-4.731,433.938-39.302c94.883-34.57,120.64-75.322,146.4-116.076"/>
	
		<ellipse style="fill-rule:evenodd;clip-rule:evenodd;fill:none;stroke:#000000;stroke-width:20;stroke-miterlimit:2.6131;" cx="1764.329" cy="3652.51" rx="1060.802" ry="156.122"/>
	
		<ellipse style="fill-rule:evenodd;clip-rule:evenodd;fill:none;stroke:#000000;stroke-width:20;stroke-miterlimit:2.6131;" cx="545.773" cy="3301.466" rx="145.44" ry="157.074"/>
	<path style="fill-rule:evenodd;clip-rule:evenodd;fill:none;stroke:#000000;stroke-width:20;stroke-miterlimit:2.6131;" d="
		M719.308,3164.234c55.012,0,99.879-44.869,99.879-99.879c0-55.01-44.867-99.877-99.879-99.877
		c-55.012,0-99.879,44.867-99.879,99.877C619.428,3119.365,664.295,3164.234,719.308,3164.234z"/>
	<path style="fill-rule:evenodd;clip-rule:evenodd;fill:none;stroke:#000000;stroke-width:20;stroke-miterlimit:2.6131;" d="
		M536.688,3037.744c37.856,0,68.729-30.875,68.729-68.73c0-37.856-30.873-68.729-68.729-68.729c-37.855,0-68.73,30.873-68.73,68.729
		C467.957,3006.869,498.832,3037.744,536.688,3037.744z"/>
	
		<ellipse style="fill-rule:evenodd;clip-rule:evenodd;fill:none;stroke:#000000;stroke-width:20;stroke-miterlimit:2.6131;" cx="3030.923" cy="890.664" rx="187.679" ry="183.463"/>
	<path style="fill-rule:evenodd;clip-rule:evenodd;fill:none;stroke:#000000;stroke-width:20;stroke-miterlimit:2.6131;" d="
		M3304.272,776.447c55.012,0,99.879-44.867,99.879-99.877c0-55.011-44.867-99.879-99.879-99.879
		c-55.012,0-99.879,44.869-99.879,99.879C3204.393,731.581,3249.259,776.447,3304.272,776.447z"/>
	<path style="fill-rule:evenodd;clip-rule:evenodd;fill:none;stroke:#000000;stroke-width:20;stroke-miterlimit:2.6131;" d="
		M3121.652,649.958c37.856,0,68.731-30.873,68.731-68.729c0-37.855-30.875-68.73-68.731-68.73c-37.855,0-68.729,30.875-68.729,68.73
		C3052.924,619.085,3083.797,649.958,3121.652,649.958z"/>
	
		<ellipse style="fill-rule:evenodd;clip-rule:evenodd;fill:none;stroke:#000000;stroke-width:20;stroke-miterlimit:2.6131;" cx="3269.835" cy="407.057" rx="56.772" ry="61.503"/>
</g>
</svg>
