<?xml version="1.0" encoding="utf-8"?>
<!-- Generator: Adobe Illustrator 27.5.0, SVG Export Plug-In . SVG Version: 6.00 Build 0)  -->
<svg version="1.1" xmlns="http://www.w3.org/2000/svg" xmlns:xlink="http://www.w3.org/1999/xlink" x="0px" y="0px"
	 viewBox="0 0 500 500" style="enable-background:new 0 0 500 500;" xml:space="preserve">
<g id="BACKGROUND">
	<rect style="fill:#FFFFFF;" width="500" height="500"/>
</g>
<g id="OBJECTS">
	<g>
		<path style="fill:none;stroke:#000000;stroke-width:2;stroke-linecap:round;stroke-linejoin:round;stroke-miterlimit:10;" d="
			M177.384,108.483c0,0-37.404-6.721-48.925,0c-11.521,6.721-12.625,61.68-12.625,61.68s-39.598,5.307-43.272,11.022
			c-3.674,5.715,5.715,35.924,24.494,42.048c18.778,6.123,42.047,5.715,42.047,5.715l2.041,12.247c0,0,41.539,1.633,61.796-12.655
			c20.257-14.288,20.257-35.108,20.257-35.108l-13.415-53.296"/>
		<path style="fill:none;stroke:#000000;stroke-width:2;stroke-linecap:round;stroke-linejoin:round;stroke-miterlimit:10;" d="
			M178.384,120.768c0,0-4.989-32.658,12.973-57.152c37.149,19.187,30.617,65.273,14.696,81.012"/>
		<path style="fill:none;stroke:#000000;stroke-width:2;stroke-linecap:round;stroke-linejoin:round;stroke-miterlimit:10;" d="
			M191.765,69.331c0,0-13.063,17.554-8.981,51.845c11.022,8.165,18.37,18.961,18.37,18.961S210.135,93.825,191.765,69.331z"/>
		<path style="fill:none;stroke:#000000;stroke-width:2;stroke-linecap:round;stroke-linejoin:round;stroke-miterlimit:10;" d="
			M150.126,104.734c0,0-10.206-14.583-11.022-37.852c25.31-2.041,41.627,19.551,41.627,19.551"/>
		<path style="fill:none;stroke:#000000;stroke-width:2;stroke-linecap:round;stroke-linejoin:round;stroke-miterlimit:10;" d="
			M156.249,105.496c0,0-10.896-17.387-12.184-31.675c19.94,4.082,33.682,25.31,33.682,25.31"/>
		<path style="fill:none;stroke:#000000;stroke-width:2;stroke-linecap:round;stroke-linejoin:round;stroke-miterlimit:10;" d="
			M81.622,176.826c0,0,3.998,12.945-7.634,19.266"/>
		<path d="M108.586,187.375c0,0.863-0.699,1.562-1.562,1.562c-0.863,0-1.562-0.699-1.562-1.562c0-0.862,0.699-1.562,1.562-1.562
			C107.887,185.813,108.586,186.512,108.586,187.375z"/>
		<path d="M115.117,184.109c0,0.627-0.508,1.136-1.136,1.136c-0.627,0-1.136-0.508-1.136-1.136c0-0.627,0.508-1.136,1.136-1.136
			C114.608,182.974,115.117,183.482,115.117,184.109z"/>
		<circle cx="116.536" cy="193.053" r="1.42"/>
		<circle cx="121.221" cy="185.813" r="1.42"/>
		<path style="fill:none;stroke:#000000;stroke-width:2;stroke-linecap:round;stroke-linejoin:round;stroke-miterlimit:10;" d="
			M119.801,227.871c0,0,18.456-5.004,22.005-18.207"/>
		<path style="fill:none;stroke:#000000;stroke-width:2;stroke-linecap:round;stroke-linejoin:round;stroke-miterlimit:10;" d="
			M147.488,151.031c0,0,14.337,0,16.466,13.345c-9.512,3.833-13.732,5.875-13.732,5.875"/>
		<path style="fill:none;stroke:#000000;stroke-width:2;stroke-linecap:round;stroke-linejoin:round;stroke-miterlimit:10;" d="
			M149.223,151.165c0,0-3.719,12.643,3.022,18.18"/>
		<path style="fill:none;stroke:#000000;stroke-width:2;stroke-linecap:round;stroke-linejoin:round;stroke-miterlimit:10;" d="
			M153.79,152.255c0,0,5.653,6.201,4.075,14.627"/>
		<path style="fill:none;stroke:#000000;stroke-width:2;stroke-linecap:round;stroke-linejoin:round;stroke-miterlimit:10;" d="
			M152.245,142.512c0,0,15.4,3.588,14.832,17.056"/>
		
			<line style="fill:none;stroke:#000000;stroke-width:2;stroke-linecap:round;stroke-linejoin:round;stroke-miterlimit:10;" x1="163.954" y1="168.351" x2="155.721" y2="173.374"/>
		
			<line style="fill:none;stroke:#000000;stroke-width:2;stroke-linecap:round;stroke-linejoin:round;stroke-miterlimit:10;" x1="166.367" y1="169.345" x2="161.824" y2="176.017"/>
		<path style="fill:none;stroke:#000000;stroke-width:2;stroke-linecap:round;stroke-linejoin:round;stroke-miterlimit:10;" d="
			M212.833,152.255c0,0-18.289,7.116-14.597,23.763c-12.491,7.779-4.732,16.387,3.692,11.196
			c-0.443,13.875,19.17,17.164,19.17,17.164"/>
		<path style="fill:none;stroke:#000000;stroke-width:2;stroke-linecap:round;stroke-linejoin:round;stroke-miterlimit:10;" d="
			M145.035,279.696c6.518,29.531,23.056,67.203,62.054,69.484"/>
		<path style="fill:none;stroke:#000000;stroke-width:2;stroke-linecap:round;stroke-linejoin:round;stroke-miterlimit:10;" d="
			M141.145,241.195c0,0-0.848,4.065,0.83,17.624"/>
		<path style="fill:none;stroke:#000000;stroke-width:2;stroke-linecap:round;stroke-linejoin:round;stroke-miterlimit:10;" d="
			M201.486,306.615l15.198,104.64c0,0-24.509,5.764-17.859,23.5c22.169,0,39.905,0,39.905,0s24.83-120.158,21.726-160.507"/>
		<path style="fill:none;stroke:#000000;stroke-width:2;stroke-linecap:round;stroke-linejoin:round;stroke-miterlimit:10;" d="
			M253.999,349.18c0,0,52.894-6.019,73.733-26.858"/>
		<path style="fill:none;stroke:#000000;stroke-width:2;stroke-linecap:round;stroke-linejoin:round;stroke-miterlimit:10;" d="
			M338.492,257.398c0,0-53.65,41.678,31.924,120.158c-1.33,23.056-2.217,31.037-2.217,31.037s-23.5,3.547-22.169,25.716
			c23.5,0,38.131,0,38.131,0l21.726-75.376c0,0-7.981-34.483,0-63.747c7.981-29.264-0.443-109.942-79.367-82.571
			c-68.754,23.844-103.323-19.184-103.323-19.184"/>
		<path style="fill:none;stroke:#000000;stroke-width:2;stroke-linecap:round;stroke-linejoin:round;stroke-miterlimit:10;" d="
			M141.974,258.819c0,0,84.454,3.014,92.378-55.514"/>
		<path style="fill:none;stroke:#000000;stroke-width:2;stroke-linecap:round;stroke-linejoin:round;stroke-miterlimit:10;" d="
			M149.055,269.821c0,5.879-2.867,10.644-6.403,10.644c-3.536,0-6.403-4.766-6.403-10.644c0-5.879,2.867-10.644,6.403-10.644
			C146.188,259.177,149.055,263.943,149.055,269.821z"/>
		
			<line style="fill:none;stroke:#000000;stroke-width:2;stroke-linecap:round;stroke-linejoin:round;stroke-miterlimit:10;" x1="155.592" y1="240.944" x2="159.206" y2="258.018"/>
		<path style="fill:none;stroke:#000000;stroke-width:2;stroke-linecap:round;stroke-linejoin:round;stroke-miterlimit:10;" d="
			M221.099,237.889c1.448-0.887,11.971-7.521,15.414-19.122"/>
		<path style="fill:none;stroke:#000000;stroke-width:2;stroke-linecap:round;stroke-linejoin:round;stroke-miterlimit:10;" d="
			M164.662,325.697l-9.07,76.689c0,0-27.188,4.434-24.788,31.924c28.116,0,40.975,0,40.975,0l28.868-85.862"/>
		<path style="fill:none;stroke:#000000;stroke-width:2;stroke-linecap:round;stroke-linejoin:round;stroke-miterlimit:10;" d="
			M290.925,341.707c0,0,5.699,29.6,35.279,37.602c-2.343,22.191-3.63,28.404-3.63,28.404s-25.853,1.41-24.43,26.598
			c19.952,0,39.905,0,39.905,0l22.211-66.549"/>
		<path style="fill:none;stroke:#000000;stroke-width:2;stroke-linecap:round;stroke-linejoin:round;stroke-miterlimit:10;" d="
			M139.961,434.31c0,0-2.073-13.201,5.074-17.197"/>
		<path style="fill:none;stroke:#000000;stroke-width:2;stroke-linecap:round;stroke-linejoin:round;stroke-miterlimit:10;" d="
			M150.537,434.31c0,0-3.055-10.146,5.171-16.022"/>
		<path style="fill:none;stroke:#000000;stroke-width:2;stroke-linecap:round;stroke-linejoin:round;stroke-miterlimit:10;" d="
			M356.141,434.31c0,0-2.073-13.201,5.074-17.197"/>
		<path style="fill:none;stroke:#000000;stroke-width:2;stroke-linecap:round;stroke-linejoin:round;stroke-miterlimit:10;" d="
			M366.717,434.31c0,0-3.055-10.146,5.171-16.022"/>
		<path style="fill:none;stroke:#000000;stroke-width:2;stroke-linecap:round;stroke-linejoin:round;stroke-miterlimit:10;" d="
			M208.531,434.31c0,0-2.073-10.676,5.074-13.906"/>
		<path style="fill:none;stroke:#000000;stroke-width:2;stroke-linecap:round;stroke-linejoin:round;stroke-miterlimit:10;" d="
			M219.107,434.31c0,0-3.055-8.205,5.171-12.956"/>
		<path style="fill:none;stroke:#000000;stroke-width:2;stroke-linecap:round;stroke-linejoin:round;stroke-miterlimit:10;" d="
			M308.011,434.31c0,0-2.073-10.676,5.074-13.906"/>
		<path style="fill:none;stroke:#000000;stroke-width:2;stroke-linecap:round;stroke-linejoin:round;stroke-miterlimit:10;" d="
			M318.587,434.31c0,0-3.055-8.205,5.171-12.956"/>
		<path style="fill:none;stroke:#000000;stroke-width:2;stroke-linecap:round;stroke-linejoin:round;stroke-miterlimit:10;" d="
			M296.342,219.356c0,0,0.478,23.527,22.805,14.392c5.522,12.472,28.088,10.071,28.809-2.413c8.162,2.401,8.883-8.883,8.883-8.883
			s16.225,6.137,28.038-6.414"/>
		<path style="fill:none;stroke:#000000;stroke-width:2;stroke-linecap:round;stroke-linejoin:round;stroke-miterlimit:10;" d="
			M392.865,223.74c0,0,54.479-32.032-4.27-83.605c40.348,8.191,62.198,81.935,11.812,93.614"/>
		<path style="fill:none;stroke:#000000;stroke-width:2;stroke-linecap:round;stroke-linejoin:round;stroke-miterlimit:10;" d="
			M306.68,340.707c0,0,15.902-1.249,24.569-11.152"/>
		<path style="fill:none;stroke:#000000;stroke-width:2;stroke-linecap:round;stroke-linejoin:round;stroke-miterlimit:10;" d="
			M322.908,341.743c0,0,6.775-0.939,11.501-6.53"/>
		<path style="fill:none;stroke:#000000;stroke-width:2;stroke-linecap:round;stroke-linejoin:round;stroke-miterlimit:10;" d="
			M260.725,266.155c0,0,0.934-4.636,0-8.137"/>
		<path style="fill:none;stroke:#000000;stroke-width:2;stroke-linecap:round;stroke-linejoin:round;stroke-miterlimit:10;" d="
			M176.062,345.965c0,0,8.06,8.092,21.619,8.535"/>
		<path style="fill:none;stroke:#000000;stroke-width:2;stroke-linecap:round;stroke-linejoin:round;stroke-miterlimit:10;" d="
			M186.871,357.604c0,0,3.737,2.435,9.896,2.381"/>
		<path style="fill:none;stroke:#000000;stroke-width:2;stroke-linecap:round;stroke-linejoin:round;stroke-miterlimit:10;" d="
			M141.452,203.305c0,0,7.602-1.33,7.603,4.656"/>
		<path style="fill:none;stroke:#000000;stroke-width:2;stroke-linecap:round;stroke-linejoin:round;stroke-miterlimit:10;" d="
			M148.474,154.894c0,0,7.346,5.108,1.748,10.962"/>
		<path style="fill:none;stroke:#000000;stroke-width:2;stroke-linecap:round;stroke-linejoin:round;stroke-miterlimit:10;" d="
			M79.745,190.947c0,0-2.459-1.158-3.064-3.479"/>
	</g>
	<g>
		
			<line style="fill:none;stroke:#000000;stroke-width:2;stroke-linecap:round;stroke-linejoin:round;stroke-miterlimit:10;" x1="454.567" y1="434.31" x2="42.549" y2="434.31"/>
		
			<line style="fill:none;stroke:#000000;stroke-width:2;stroke-linecap:round;stroke-linejoin:round;stroke-miterlimit:10;" x1="36.536" y1="434.31" x2="20.338" y2="434.31"/>
		
			<line style="fill:none;stroke:#000000;stroke-width:2;stroke-linecap:round;stroke-linejoin:round;stroke-miterlimit:10;" x1="461.754" y1="434.754" x2="482.581" y2="434.754"/>
		
			<line style="fill:none;stroke:#000000;stroke-width:2;stroke-linecap:round;stroke-linejoin:round;stroke-miterlimit:10;" x1="239.021" y1="442.695" x2="429.658" y2="442.695"/>
		
			<line style="fill:none;stroke:#000000;stroke-width:2;stroke-linecap:round;stroke-linejoin:round;stroke-miterlimit:10;" x1="218.552" y1="453.108" x2="328.658" y2="453.108"/>
		
			<line style="fill:none;stroke:#000000;stroke-width:2;stroke-linecap:round;stroke-linejoin:round;stroke-miterlimit:10;" x1="210.928" y1="453.108" x2="181.747" y2="453.108"/>
		<g>
			<path style="fill:none;stroke:#000000;stroke-width:2;stroke-linecap:round;stroke-linejoin:round;stroke-miterlimit:10;" d="
				M99.596,434.31c0,0,0.479-65.32-27.819-88.345"/>
			<path style="fill:none;stroke:#000000;stroke-width:2;stroke-linecap:round;stroke-linejoin:round;stroke-miterlimit:10;" d="
				M93.103,384.367c0,0,3.987-30.997,29.538-38.402"/>
			<path style="fill:none;stroke:#000000;stroke-width:2;stroke-linecap:round;stroke-linejoin:round;stroke-miterlimit:10;" d="
				M107.024,354.5c0,0-0.486-16.143-9.743-29.059"/>
			<path style="fill:none;stroke:#000000;stroke-width:2;stroke-linecap:round;stroke-linejoin:round;stroke-miterlimit:10;" d="
				M114.992,349.18c-0.124,0.073,0.348-15.057,19.196-5.508c-11.057,12.816-19.32,5.581-19.32,5.581"/>
			<path style="fill:none;stroke:#000000;stroke-width:2;stroke-linecap:round;stroke-linejoin:round;stroke-miterlimit:10;" d="
				M104.49,340.509c0,0,14.122-14.846-11.388-26.072C88.953,340.154,104.49,340.509,104.49,340.509z"/>
			<path style="fill:none;stroke:#000000;stroke-width:2;stroke-linecap:round;stroke-linejoin:round;stroke-miterlimit:10;" d="
				M86.742,366.497c0,0,21.31-25.59-27.442-32.878C59.299,375.085,86.742,366.497,86.742,366.497z"/>
			<path style="fill:none;stroke:#000000;stroke-width:2;stroke-linecap:round;stroke-linejoin:round;stroke-miterlimit:10;" d="
				M96.709,401.184c0,0-15.797-1.975-24.844-17.053"/>
			<path style="fill:none;stroke:#000000;stroke-width:2;stroke-linecap:round;stroke-linejoin:round;stroke-miterlimit:10;" d="
				M65.833,370.561c0,0,21.891,6.351,24.013,28.683C70.105,406.749,59.299,387.398,65.833,370.561z"/>
		</g>
		<g>
			<path style="fill:none;stroke:#000000;stroke-width:2;stroke-linecap:round;stroke-linejoin:round;stroke-miterlimit:10;" d="
				M423.752,434.31c0,0-9.311-28.398,18.179-41.652"/>
			<path style="fill:none;stroke:#000000;stroke-width:2;stroke-linecap:round;stroke-linejoin:round;stroke-miterlimit:10;" d="
				M427.818,404.285c0,0-7.613-29.613,26.528-15.276C447.695,413.484,427.818,404.285,427.818,404.285z"/>
		</g>
	</g>
	<path style="fill:none;stroke:#000000;stroke-width:2;stroke-linecap:round;stroke-linejoin:round;stroke-miterlimit:10;" d="
		M437.094,85.74H296.967c0,0,13.079-17.578,39.461-12.709c-3.547-33.041,23.389-17.943,23.389-17.943s4.276-28.067,35.06-25.074
		s23.414,43.808,23.414,43.808S438.551,60.658,437.094,85.74z"/>
</g>

    <text x="10" y="832" font-size="12" fill="gray" opacity="0.6" font-family="Arial, sans-serif">
      twoja-kolorowanka.pl
    </text>
  
</svg>
