<?xml version="1.0" encoding="utf-8"?>
<!-- Generator: Adobe Illustrator 27.5.0, SVG Export Plug-In . SVG Version: 6.00 Build 0)  -->
<svg xmlns="http://www.w3.org/2000/svg" xmlns:xlink="http://www.w3.org/1999/xlink" viewBox="0 0 2035 2035" width="595" height="842" preserveAspectRatio="xMidYMid meet" data-scaled="true">
<g>
	<path style="fill:#FEFEFE;" d="M0,0h2035.118v2035.118H0V0z"/>
	<path d="M1119.736,61.037c28.913-2.145,73.195-0.269,98.041,14.969c6.891,4.227,14.441,11.789,16.148,20.009
		c1.171,5.636-0.572,12.231-3.687,16.978c-8.359,12.738-21.486,6.846-33.633,9.606c-12.938,2.94-24.974,15.106-31.429,26.399
		c-7.354,12.864-9.228,27.415-5.139,41.682c14.717,51.361,78.173,56.363,118.166,78.481c57.669,31.89,85.012,76.229,103.03,138.046
		c29.601-53.132,63.049-104.487,94.029-156.847c17.165-29.014,34.215-57.95,51.828-86.701c6.715-10.963,12.25-22.677,20.325-32.744
		c12.258-15.283,31.203-23.803,50.467-25.852c20.84-2.217,41.547,4.739,57.739,17.861c17.618,14.28,28.615,34.159,30.785,56.845
		c1.326,13.847-1.121,27.311-6.65,40.038c-5.545,12.763-12.743,27.474-20.295,39.13c-4.941,7.628-10.575,14.796-15.536,22.432
		c-19.139,29.073-38.502,57.996-58.088,86.769l-37.101,55.882c-11.527,17.615-22.605,35.39-35.95,51.723
		c1.386,0.53,2.764,1.081,4.134,1.652c39.001,16.299,72.855,49.815,88.627,89.058c13.91,34.605,15.82,80.302,6.898,116.359
		c-2.592,10.48-6.708,20.236-10.883,30.151c29.016,9.595,53.366,26.099,72.123,50.373c28.579,36.986,41.259,82.226,35.138,128.705
		c-5.946,45.17-30.656,83.408-66.253,110.962c0.555,33.808-8.017,64.909-29.563,91.574c-26.929,33.329-58.669,45.285-100.035,49.431
		c-5.696,27.192-14.049,55.662-23.587,81.741c-11.151,30.493-31.612,45.039-60.058,58.281c-3.426,11.066-5.686,22.718-8.691,33.941
		l-23.752,87.059c-28.91,104.178-59.778,207.772-92.604,310.783c-17.7,56.071-36.121,112.508-61.24,165.785
		c-4.99,10.587-9.746,21.949-16.247,31.717c-18.495,27.79-62.014,35.968-92.673,42.129c-79.03,17.833-220.282,16.275-294.059-18.529
		c-10.668-5.034-20.359-11.412-27.394-21.041c-19.304-26.423-31.946-68.333-43.916-99.105
		c-47.243-121.439-84.604-246.81-120.167-372.103c-8.62-30.531-16.99-61.13-25.111-91.797c-6.193-24.149-11.322-48.97-19.809-72.438
		c-6.122-2.369-12.09-5.08-17.903-8.134c-25.407-13.56-42.046-35.406-46.512-64.124c-1.514-9.736-1.483-19.661-2.965-29.398
		c-1.902-12.487-5.497-25.149-9.144-37.226c-36.789-2.858-69.534-9.422-96.529-36.934c-27.732-28.267-36.801-62.604-36.338-101.197
		c-27.967-21.031-48.05-47.203-59.758-80.347c-0.461-1.306-0.906-2.617-1.336-3.933c-0.429-1.317-0.843-2.639-1.24-3.967
		c-0.396-1.326-0.776-2.658-1.141-3.995c-0.364-1.336-0.712-2.676-1.043-4.021c-0.331-1.345-0.647-2.694-0.946-4.046
		c-0.298-1.352-0.58-2.707-0.845-4.066c-0.265-1.359-0.513-2.722-0.745-4.088c-0.232-1.365-0.447-2.733-0.646-4.104
		c-0.199-1.37-0.38-2.743-0.545-4.118c-0.164-1.375-0.312-2.753-0.443-4.132c-0.131-1.378-0.245-2.758-0.342-4.14
		c-0.098-1.382-0.178-2.765-0.241-4.148c-0.064-1.383-0.11-2.767-0.139-4.152c-0.03-1.385-0.043-2.769-0.038-4.154
		c0.004-1.386,0.025-2.77,0.064-4.154c0.038-1.385,0.094-2.769,0.167-4.152c0.072-1.383,0.16-2.765,0.266-4.146
		c0.106-1.381,0.229-2.76,0.37-4.138c0.141-1.378,0.298-2.754,0.471-4.128c0.174-1.374,0.364-2.746,0.57-4.116
		c0.207-1.369,0.431-2.735,0.672-4.1c0.241-1.363,0.499-2.724,0.773-4.082c0.273-1.357,0.563-2.711,0.871-4.062
		c0.307-1.35,0.631-2.696,0.972-4.038c0.34-1.342,0.697-2.68,1.069-4.015c0.372-1.334,0.761-2.663,1.167-3.987
		c0.407-1.325,0.829-2.644,1.266-3.957c0.437-1.314,0.891-2.623,1.361-3.925c0.47-1.304,0.956-2.601,1.457-3.891
		c0.502-1.29,1.02-2.575,1.552-3.854c0.533-1.279,1.081-2.55,1.646-3.814c0.564-1.265,1.144-2.523,1.739-3.774
		c20.039-41.41,53.642-66.398,96.342-81.081c-19.785-33.152-24.821-77.283-18.189-114.948
		c8.782-49.884,34.619-78.873,74.846-106.951c-14.679-13.501-27.293-28.265-38.037-45.104c-0.925-1.424-1.831-2.859-2.719-4.305
		c-0.889-1.447-1.76-2.904-2.614-4.372c-0.852-1.468-1.686-2.946-2.502-4.434c-0.815-1.489-1.612-2.988-2.391-4.496
		c-0.779-1.509-1.539-3.027-2.28-4.553c-0.741-1.528-1.462-3.064-2.164-4.609c-0.703-1.546-1.387-3.1-2.051-4.662
		c-0.664-1.562-1.308-3.132-1.934-4.71c-0.625-1.578-1.231-3.164-1.816-4.758c-0.586-1.593-1.151-3.193-1.697-4.8
		c-0.546-1.607-1.072-3.221-1.578-4.841c-0.506-1.62-0.992-3.247-1.457-4.879c-0.465-1.632-0.91-3.271-1.336-4.915
		c-0.424-1.643-0.828-3.291-1.212-4.945c-0.384-1.654-0.747-3.312-1.089-4.974c-0.343-1.663-0.665-3.33-0.966-5
		c-0.302-1.671-0.583-3.345-0.843-5.022c-0.26-1.677-0.498-3.357-0.716-5.04c-0.219-1.684-0.416-3.37-0.592-5.058
		c-0.176-1.689-0.331-3.38-0.465-5.072c-0.134-1.692-0.246-3.385-0.338-5.08c-0.093-1.696-0.164-3.392-0.213-5.088
		c-0.05-1.697-0.079-3.395-0.088-5.092c-0.008-1.697,0.005-3.395,0.04-5.092c0.034-1.697,0.09-3.394,0.167-5.09
		c0.077-1.696,0.175-3.391,0.294-5.084c0.118-1.693,0.257-3.384,0.417-5.074c0.162-1.691,0.344-3.379,0.547-5.064
		c0.203-1.685,0.426-3.368,0.67-5.048c0.244-1.679,0.509-3.355,0.795-5.028c0.286-1.673,0.593-3.343,0.92-5.008
		c0.329-1.666,0.677-3.327,1.045-4.985c9.005-39.54,32.113-81.212,67.248-103.206c-9.557-15.115-21.305-29.399-32.113-43.666
		c-6.262-8.266-13.409-16.447-17.702-25.956c-2.739-6.067-4.013-12.725-3.009-19.35c1.099-7.254,4.929-13.747,10.969-17.968
		c5.032-3.517,11.483-5.414,17.595-4.197c4.456,0.887,7.759,3.231,10.609,6.695c8.848,10.758,14.995,25.99,21.756,38.269
		c8.011,14.548,16.772,28.589,25.689,42.595c41.636-20.395,84.921-29.949,130.611-17.855
		c54.114,14.324,92.049,54.76,119.382,101.691c12.7-16.792,24.718-33.862,38.56-49.776
		C892.944,110.164,1007.839,68.976,1119.736,61.037z"/>
	<path style="fill:#FEFEFE;" d="M1519.707,219.284c1.091,3.704,2.532,7.336,2.134,11.241c-1.805,2.88-2.941,2.723-6.091,3.768
		l-1.64-0.652l-0.461-1.544C1514.869,227.309,1517.22,223.481,1519.707,219.284z"/>
	<path style="fill:#FEFEFE;" d="M1521.436,410.655l0.769,1.137c-2.971,5.473-6.783,10.408-10.446,15.428
		c-0.63-4.571-1.646-9.122-2.516-13.656L1521.436,410.655z"/>
	<path style="fill:#FEFEFE;" d="M1397.095,432.258c0.715,1.053,0.759,1.03,1.344,2.415c1.834,4.344,3.685,13.276,1.683,17.579
		c-0.594,1.282-3.508,1.737-4.841,2.176c-1.59-0.598-2.57-1.121-3.963-2.031c-2.025-4.905-2.892-9.83-0.676-14.934
		C1392.074,434.162,1394.084,433.774,1397.095,432.258z"/>
	<path style="fill:#FEFEFE;" d="M907.784,1907.768c3.697-0.403,29.762,16.933,35.277,20.162c-6.319-0.688-12.622-1.499-18.91-2.432
		c-13.524-2.001-26.812-5.155-40.023-8.63C892.077,1914.001,899.963,1910.968,907.784,1907.768z"/>
	<path style="fill:#FEFEFE;" d="M1121.632,1907.79c9.003,1.187,19.663,7.177,28.311,10.496c-11.153,1.485-22.14,3.957-33.146,6.252
		c-9.566,1.892-19.214,3.165-28.943,3.818C1097.759,1920.223,1110.531,1914.293,1121.632,1907.79z"/>
	<path style="fill:#FEFEFE;" d="M1539.648,184.541c7.964,13.333,17.14,25.483,26.88,37.545l-14.782,3.192l-17.823,5.06
		c-2.12-8.117-3.885-16.317-6.058-24.427C1531.416,198.611,1535.644,191.6,1539.648,184.541z"/>
	<path style="fill:#FEFEFE;" d="M1433.741,376.385l3.462,0.495c4.851,6.527,5.382,25.999,6.636,34.082l-25.868,4.124
		c-0.69,0.181-1.383,0.354-2.085,0.475c-2.983,0.523-3.762,0.64-6.318-1.045c-1.29-3.126-0.777-5.267,0.382-8.294
		C1414.22,395.057,1422.524,381.132,1433.741,376.385z"/>
	<path style="fill:#FEFEFE;" d="M1588.855,239.281c14.604,6.169,26.041,10.019,42.103,10.176
		c-5.507,6.153-9.623,11.835-13.244,19.24l-4.104,7.463l-16.352,3.178C1593.11,266.445,1589.92,252.782,1588.855,239.281z"/>
	<path style="fill:#FEFEFE;" d="M1437.876,425.805c3.029-0.38,4.535-0.918,7.379,0.3c5.056,7.683,4.73,21.323,6.461,30.427
		c-7.872-1.176-15.637-2.121-23.581-2.637l-14.107-1.218c-1.439-7.284-2.087-14.355-2.498-21.764
		C1420.121,428.303,1428.995,426.952,1437.876,425.805z"/>
	<path style="fill:#FEFEFE;" d="M1584.073,295.595c2.598,1.725,5.016,8.953,6.487,11.984c-6.487,10.873-14.725,20.896-22.832,30.592
		c-3.933-0.002-7.759,0.463-11.66,0.918c-2.144-12.849-5.37-25.65-8.198-38.367L1584.073,295.595z"/>
	<path style="fill:#FEFEFE;" d="M1480.829,312.341c3.041,2.659,4.571,33.138,5.189,39.069l-33.937,7.097l-2.023-0.197
		c-1.697-1.811-2.434-2.313-2.8-4.841c-1.868-12.908,11.442-28.309,18.785-37.948
		C1470.925,314.289,1475.896,313.358,1480.829,312.341z"/>
	<path style="fill:#FEFEFE;" d="M1491.137,416.587l3.382-0.26c4.183,3.607,5.03,16.38,6.66,21.971l-7.262,12.811
		c-7.87,2.282-15.957,3.961-23.937,5.823l-3.546-0.143c-5.018-6.753-5.654-25.743-7.143-34.176L1491.137,416.587z"/>
	<path style="fill:#FEFEFE;" d="M1540.753,354.989c2.2-0.376,1.073-0.471,3.357,0.493c2.204,4.432,2.45,10.08,3.182,14.949
		c-4.571,8.824-10.418,18.246-17.41,25.336c-6.612,1.757-13.546,2.691-20.288,3.87l-1.045-0.231c-2.83-4.36-5.4-30.125-6.467-36.904
		L1540.753,354.989z"/>
	<path style="fill:#FEFEFE;" d="M1488.236,365.069l0.725,0.542c4.042,10.474,4.277,25.616,5.795,36.942l-37.338,6.93
		c-3.098-11.994-4.641-24.89-6.354-37.163C1463.419,369.75,1475.846,367.472,1488.236,365.069z"/>
	<path style="fill:#FEFEFE;" d="M652.907,1330.437c7.27,7.198,14.377,20.609,20.62,29.275
		c11.062,15.353,23.014,30.098,34.883,44.828c-2.685,2.081-5.646,3.909-8.459,5.823c-6.872,4.408-13.713,8.077-21.494,10.613
		c-5.509-12.31-8.184-26.319-11.791-39.291C661.946,1364.712,656.518,1347.676,652.907,1330.437z"/>
	<path style="fill:#FEFEFE;" d="M1523.381,245.78c2.343,2.013,8.27,39.009,9.291,44.204l-34.925,5.841l-3.194,0.34
		c-4.543-3.822-5.154-14.689-6.207-20.365c3.959-9.253,9.518-17.724,14.961-26.15
		C1510.018,248.632,1516.717,247.092,1523.381,245.78z"/>
	<path style="fill:#FEFEFE;" d="M1532.001,303.423l2.156-0.097c3.977,4.712,7.244,31.385,8.725,38.693
		c-11.922,1.525-23.811,3.273-35.668,5.243l-6.845,0.998c-3.546-3.466-5.722-32.488-6.258-38.641L1532.001,303.423z"/>
	<path style="fill:#FEFEFE;" d="M1571.686,235.786l1.32,0.272c3.516,6.04,7.9,35.98,10.203,45.758
		c-11.668,2.025-23.408,3.462-35.151,4.961l-1.787,0.093c-3.18-3.915-8.689-35.404-10.654-43.137
		C1547.512,240.464,1559.59,238.174,1571.686,235.786z"/>
	<path style="fill:#FEFEFE;" d="M727.642,1594.4c6.851,4.955,19.701,23.553,26.184,31.028
		c12.457,14.223,25.302,28.088,38.534,41.595l-10.126,5.314c-8.55,4.281-17.022,8.54-25.928,12.052
		C745.12,1655.338,737.007,1624.133,727.642,1594.4z"/>
	<path style="fill:#FEFEFE;" d="M811.458,1835.174c11.903,6.682,23.074,18.211,33.949,26.709
		c15.389,12.026,31.435,23.173,46.925,35.064l-8.721,3.057c-9.927,2.681-19.793,5.376-29.249,9.464
		C829.348,1893.808,819.018,1862.28,811.458,1835.174z"/>
	<path style="fill:#FEFEFE;" d="M1223.533,1821.061c2.576,0.191,4.09,0.952,6.366,2.069c1.298,2.623,0.741,3.1-0.181,5.909
		c-3.856,11.77-22.183,54.75-29.189,63.268c-5.722,6.958-12.421,11.589-20.405,15.559c-9.884-0.694-18.904-3.699-28.281-6.626
		c-5.356-2.023-11.048-3.51-16.525-5.211C1167.975,1874.65,1195.403,1847.891,1223.533,1821.061z"/>
	<path style="fill:#FEFEFE;" d="M1389.721,1304.568c0.4,6.411-30.749,111.443-35.145,126.438
		c-8.538-4.658-16.742-9.993-25.012-15.112c-5.261-3.303-10.279-7.095-15.341-10.7
		C1340.189,1372.296,1364.61,1338.124,1389.721,1304.568z"/>
	<path style="fill:#FEFEFE;" d="M1307.434,1582.433l2.556,1.268c2.417,6.99-29.036,98.546-33.83,111.538
		c-10.321-4.082-20.236-9.88-30.104-14.965l-18.712-9.776C1255.628,1643.239,1283.909,1613.94,1307.434,1582.433z"/>
	<path style="fill:#FEFEFE;" d="M430.038,1019.632c33.347,12.006,60.084,13.375,95.022,11.7
		c5.712,25.872,14.403,48.221,27.556,71.225l-0.509,1.703c-3.817,1.133-7.689,2.027-11.614,2.683
		c-3.927,0.656-7.88,1.069-11.857,1.24c-26.359,1.244-49.435-5.869-68.995-23.859
		C440.349,1066.577,430.984,1045.701,430.038,1019.632z"/>
	<path style="fill:#FEFEFE;" d="M1177.457,1328.008l12.761-0.972c-28.368,29.366-54.527,60.308-83.982,88.736
		c-10.748-10.082-20.691-20.941-30.724-31.723c-15.514-15.874-31.202-31.527-45.311-48.69
		C1079.302,1333.104,1128.459,1332.422,1177.457,1328.008z"/>
	<path style="fill:#FEFEFE;" d="M1608.783,1020.755c1.288,2.81-0.101,8.168-0.817,11.148c-0.388,1.683-0.819,3.355-1.292,5.016
		c-0.472,1.661-0.986,3.31-1.542,4.945c-0.555,1.635-1.151,3.255-1.789,4.861c-0.637,1.605-1.314,3.193-2.031,4.764
		c-0.718,1.571-1.475,3.123-2.272,4.656c-0.795,1.533-1.628,3.045-2.5,4.535s-1.781,2.959-2.727,4.404
		c-0.946,1.444-1.928,2.864-2.945,4.259c-1.019,1.395-2.071,2.764-3.158,4.108c-1.086,1.342-2.206,2.656-3.359,3.941
		c-1.153,1.287-2.337,2.542-3.553,3.768c-1.216,1.227-2.463,2.422-3.74,3.585c-1.276,1.163-2.581,2.293-3.915,3.391
		c-1.334,1.097-2.695,2.16-4.082,3.19c-1.387,1.028-2.799,2.021-4.235,2.979c-1.438,0.958-2.898,1.879-4.382,2.762
		c-21.627,13.065-46.71,15.339-70.961,9.391c-1.075-2.647-2.115-5.13-1.719-8.037c1.703-12.539,9.583-26.552,14.031-38.612
		c3.832-10.39,6.731-20.963,9.426-31.691C1546.278,1034.452,1575.287,1033.148,1608.783,1020.755z"/>
	<path style="fill:#FEFEFE;" d="M826.852,1324.707c15.75,0.463,31.695,2.725,47.442,3.834c38.704,2.83,77.442,5.093,116.212,6.789
		l-39.115,40.017c-13.253,13.403-26.726,26.582-40.418,39.536c-7.902-8.264-16.47-15.885-24.471-24.054
		C866.01,1369.913,845.107,1347.574,826.852,1324.707z"/>
	<path style="fill:#FEFEFE;" d="M641.05,1287.773c11.489,1.091,23.016,5.304,34.148,8.296c15.711,4.223,31.576,8.272,47.478,11.714
		c27.196,5.889,55.036,7.481,81.991,14.526c-11.279,13.719-25.119,24.827-38.514,36.396c-14.208,12.896-29.873,24.789-44.765,36.928
		c-19.703-20.031-35.557-45.138-52.229-67.747C659.998,1315.463,647.503,1301.782,641.05,1287.773z"/>
	<path style="fill:#FEFEFE;" d="M1379.494,1290.028l1.105,0.167c-1.445,7.962-69.804,93.798-80.026,106.351
		c-16.327-11.905-31.966-24.58-47.587-37.383c-13.634-10.738-27.421-22.565-39.228-35.313c26.753-4.682,53.762-8.111,80.407-13.419
		C1322.882,1304.711,1351.08,1297.018,1379.494,1290.028z"/>
	<path style="fill:#FEFEFE;" d="M716.346,1416.798c2.164,0.894,3.973,2.681,5.529,4.402c14.025,15.498,26.848,32.156,40.661,47.863
		c11.231,12.771,23.579,24.479,34.563,37.483c-16.44,10.67-32.415,22.039-49.338,31.942c-10.011,5.704-20.252,12.823-31.236,16.378
		c-5.753-16.529-10.325-33.687-15.353-50.463c-6.719-22.43-13.87-44.876-19.216-67.676
		C693.985,1430.877,705.176,1424.116,716.346,1416.798z"/>
	<path style="fill:#FEFEFE;" d="M1012.127,1849.108c7.53,2.286,19.081,11.159,26.268,15.269
		c21.814,12.477,43.532,24.924,66.821,34.452c-17.328,11.761-39.238,29.553-60.151,32.989c-8.898,1.461-18.584,0.827-27.597,0.813
		c-9.546,0.05-19.817,0.701-29.223-0.934c-21.963-3.818-45.097-20.16-63.699-32.178
		C950.827,1888.063,988.972,1866.028,1012.127,1849.108z"/>
	<path style="fill:#FEFEFE;" d="M801.141,1679.519c13.266,8.866,25.135,22.229,36.765,33.188
		c18.018,16.979,36.326,33.444,55.936,48.567c-18.344,11.084-37.423,21.019-56.445,30.883
		c-11.247,6.004-22.853,11.885-34.635,16.764c-8.81-18.401-15.726-37.809-22.883-56.896c-6.696-17.859-13.751-35.682-19.582-53.843
		C774.36,1692.966,787.698,1686.127,801.141,1679.519z"/>
	<path style="fill:#FEFEFE;" d="M1216.077,1681.314c18.143,9.679,36.59,18.763,54.735,28.424c-4.764,14.985-7.54,31.33-13.268,45.88
		c-7.036,17.879-24.912,33.897-38.204,47.468l-20.302-9.252c-22.7-10.43-46.49-20.17-67.292-34.106
		c9.542-10.082,21.464-18.666,31.834-27.997C1181.604,1715.471,1199.103,1698.665,1216.077,1681.314z"/>
	<path style="fill:#FEFEFE;" d="M1600.908,122.526c1.749-0.176,3.556-0.174,5.312-0.18c15.43-0.055,31.622,8.153,42.346,18.933
		c12.441,12.508,20.596,30.774,20.19,48.551c-0.258,11.356-4.259,23.145-12.886,30.872c-9.514,8.52-21.226,9.071-33.268,8.55
		c-11.249-1.568-21.557-5.603-30.992-11.907c-15.492-10.356-34.828-30.726-38.153-49.714c-1.479-8.432,0.737-16.619,5.859-23.438
		C1568.845,131.505,1585.734,124.969,1600.908,122.526z"/>
	<path style="fill:#FEFEFE;" d="M1304.741,1416.885c13.181,11.992,31.248,20.48,46.398,29.929
		c-8.333,25.28-16.885,69.347-28.728,90.626c-5.292,9.51-12.632,17.599-19.649,25.846c-7.735-3.601-15.027-8.701-22.277-13.201
		c-20.397-11.297-40.762-24.678-59.644-38.361c7.948-8.361,16.422-16.177,24.205-24.717
		C1265.675,1464.371,1285.201,1440.47,1304.741,1416.885z"/>
	<path style="fill:#FEFEFE;" d="M1119.671,1770.738c29.277,16.201,59.046,30.167,89.479,44.039
		c-11.511,11.994-80.292,73.658-90.634,74.256c-32.127-14.836-62.156-31.781-92.846-49.304
		C1058.265,1818.589,1088.011,1793.251,1119.671,1770.738z"/>
	<path style="fill:#FEFEFE;" d="M905.335,1770.664c12.197,6.912,23.43,18.183,34.682,26.778
		c19.262,14.553,38.883,28.606,58.861,42.157c-26.721,20.214-58.496,38.019-89.5,50.727c-32.254-22.863-64.967-45.818-94.921-71.672
		c9.293-5.606,20.075-9.603,29.875-14.369C865.05,1794.211,886.004,1783.214,905.335,1770.664z"/>
	<path style="fill:#FEFEFE;" d="M1210.746,1523.139c7.663,2.609,21.909,14.922,29.612,20.041
		c17.32,11.513,35.943,20.687,53.591,31.626c-8.929,14.073-65.319,79.541-79.3,88.339l-2.838-0.656
		c-30.273-17.108-59.44-38.013-87.723-58.221c15.826-13.958,31.648-28.168,46.863-42.785
		C1184.224,1548.733,1196.983,1535.355,1210.746,1523.139z"/>
	<path style="fill:#FEFEFE;" d="M1010.194,1698.98c7.999,2.798,43.685,29.819,53.611,36.551
		c13.705,9.295,27.784,17.859,42.022,26.309c-29.974,23.382-59.662,47.006-91.658,67.616l-1.5,0.612
		c-10.925-2.707-79.543-57.375-92.344-67.064C951.316,1743.359,980.764,1720.853,1010.194,1698.98z"/>
	<path style="fill:#FEFEFE;" d="M807.84,1517.336c8.544,9.939,18.406,18.908,27.778,28.072
		c19.787,19.348,39.963,38.099,60.171,56.989c-26.675,19.433-53.567,37.507-82.12,54.056l-7.84,4.007
		c-28.295-29.891-54.869-59.978-79.197-93.226C754.607,1552.825,781.895,1535.127,807.84,1517.336z"/>
	<path style="fill:#FEFEFE;" d="M1112.115,1615.639c11.434,4.368,25.415,16.571,35.982,23.736
		c18.015,12.041,36.164,23.878,54.447,35.509c-27.019,27.166-55.932,52.359-84.507,77.847
		c-32.655-18.861-63.971-40.718-93.808-63.747C1053.736,1664.951,1081.918,1638.695,1112.115,1615.639z"/>
	<path style="fill:#FEFEFE;" d="M905.961,1612.585c12.612,7.562,33.053,27.053,45.337,37.248
		c15.746,13.069,32.449,25.083,47.966,38.361c-27.885,23.895-59.257,44.944-90.664,63.876l-0.757,0.139
		c-13.206-4.074-77.076-66.567-91.213-79.908c10.877-7.129,22.388-13.373,33.347-20.405
		C869.051,1639.653,887.83,1626.189,905.961,1612.585z"/>
	<path style="fill:#FEFEFE;" d="M1007.588,1528.062c14.009,8.069,31.92,27.198,44.82,38.312
		c15.671,13.502,32.194,25.948,48.036,39.242c-28.561,25.369-57.982,49.697-88.263,72.984
		c-11.605-3.454-80.051-64.198-92.206-75.093C950.172,1579.51,979.376,1554.362,1007.588,1528.062z"/>
	<path style="fill:#FEFEFE;" d="M910.012,1436.628c8.091,5.181,18.569,18.255,26.091,25.556
		c19.889,19.364,40.201,38.274,60.936,56.729c-18.986,16.593-37.759,33.244-57.099,49.439c-9.526,7.975-20.299,18.205-31.375,23.833
		c-31.773-25.024-59.736-55.217-89.44-82.617C851.284,1487.673,879.469,1460.654,910.012,1436.628z"/>
	<path style="fill:#FEFEFE;" d="M814.584,1333.384c10.023,10.317,19.139,21.599,28.859,32.22
		c18.376,20.207,37.331,39.854,56.866,58.941c-25.763,26.707-56.856,49.469-86.825,71.227c-1.693,1.248-1.813,1.318-4.048,1.518
		c-9.44-8.156-17.682-18.294-26.053-27.55c-18.549-20.504-37.211-41.058-53.14-63.719
		C760.796,1386.372,788.487,1358.483,814.584,1333.384z"/>
	<path style="fill:#FEFEFE;" d="M1106.76,1437.65c14.121,10.694,27.025,23.762,40.472,35.344
		c16.647,14.337,34.164,27.589,50.761,42.02c-27.967,26.997-55.86,54.61-85.235,80.061c-33.16-22.772-62.622-51.085-93.303-76.943
		c17.336-16.559,35.396-32.367,53.028-48.608C1083.931,1458.979,1094.804,1447.607,1106.76,1437.65z"/>
	<path style="fill:#FEFEFE;" d="M1202.683,1334.519c26.476,24.791,58.965,54.052,89.309,73.698
		c-26.447,32.528-52.643,66.596-83.321,95.261c-31.747-23.173-63.562-49.578-90.799-77.959
		C1147.546,1396.729,1175.563,1365.715,1202.683,1334.519z"/>
	<path style="fill:#FEFEFE;" d="M1009.611,1336.013c5.104,1.566,30.773,33.027,36.429,39.115
		c16.319,17.414,33.109,34.361,50.369,50.842c-27.482,28.933-57.598,56.143-88.15,81.778c-8.995-1.906-77.195-71.374-87.592-81.81
		c17.714-16.754,35.446-33.746,52.396-51.273C985.391,1361.915,997.031,1348.516,1009.611,1336.013z"/>
	<path style="fill:#FEFEFE;" d="M1475.361,1127.6c2.637,10.156-2.109,20.023-6.447,29.026
		c-14.196,29.468-59.583,46.698-89.001,56.733c-37.475,12.783-76.108,19.447-115.157,25.369
		c-144.37,21.897-294.011,21.74-439.063,6.658c-65.827-6.845-148.13-17.698-207.852-47.259
		c-22.311-11.042-42.1-22.702-50.399-47.466c-1.375-5.022-2.653-10.847-1.149-15.947l1.51-0.501
		c5.404,3.486,9.832,10.239,14.582,14.735c91.712,86.83,374.15,92.383,497.278,87.985c89.563-3.198,271.229-16.577,346.127-62.655
		C1445.665,1162.054,1459.671,1144.428,1475.361,1127.6z"/>
	<path style="fill:#FEFEFE;" d="M1392.51,488.365c46.279-1.443,84.767,3.067,125.394,27.335
		c30.682,18.328,53.42,47.519,61.91,82.327c9.365,38.391,4.221,78.753-16.329,112.565c-2.995,4.116-6.453,7.395-10.154,10.843
		c-3.792-33.162-13.946-63.862-35.533-89.925c-33.645-40.619-84.439-58.812-135.524-63.782c5.708-26.379,6.274-51.46,8.454-78.082
		L1392.51,488.365z"/>
	<path style="fill:#FEFEFE;" d="M631.912,490.314c8.707-0.735,17.537-0.543,26.272-0.61c-2.733,27.492-4.585,54.7-3.655,82.349
		c-34.104-3.593-62.785,1.614-92.618,19.113c-49.624,29.108-69.812,72.692-83.583,126.253c-0.211-0.113-0.443-0.197-0.636-0.34
		c-16.796-12.578-26.461-53.223-27.933-73.024c-2.502-33.635,4.372-69.615,26.906-95.706
		C520.253,497.875,570.479,494.862,631.912,490.314z"/>
	<path style="fill:#FEFEFE;" d="M1160.731,107.479l0.632,1.222c-11.837,12.504-22.844,24.992-28.688,41.46
		c-7.89,22.231-5.925,46.029,4.4,67.094c19.648,40.084,57.739,52.843,97.123,66.511c8.095,2.808,39.478,15.736,42.264,23.944
		c1.518,4.474,0.062,9.466-2.115,13.433c-15.46,28.16-70.762,49.65-100.534,58.806c-22.581,6.245-45.291,11.016-68.59,13.582
		c-25.964-15.174-46.911-36.048-58.667-64.025c-15.081-35.887-11.4-81.325,3.255-116.741c14.643-35.389,39.18-68.658,72.797-88.038
		C1134.713,117.749,1147.832,112.772,1160.731,107.479z"/>
	<path style="fill:#FEFEFE;" d="M1471.045,1179.55c0.034,0.521,0.131,1.041,0.099,1.562c-0.245,4.076-3.663,10.764-5.072,14.721
		c-6.406,17.97-11.434,33.367-26.612,45.816c-21.597,17.716-51.76,26.272-78.137,34.257
		c-155.953,47.221-362.404,48.668-524.593,31.469c-74.596-7.912-213.737-28.804-262.365-88.959
		c-8.464-12.519-12.336-23.14-11.885-38.522c2.558,3.243,5.3,6.344,8.357,9.126c85.849,78.116,394.533,86.047,511.987,81.019
		c38.916-1.666,78.275-3.144,117.039-6.871C1274.304,1256.014,1419.827,1235.337,1471.045,1179.55z"/>
	<path style="fill:#FEFEFE;" d="M604.742,169.268c11.499-1.618,24.408-0.062,35.728,2.257c43.63,8.94,79.372,36.805,103.614,73.614
		c6.517,9.893,20.367,31.96,16.973,43.703c-2.294,7.934-19.958,20.717-26.433,27.243c-5.575,5.618-11.09,11.632-15.836,17.97
		c-29.316,39.136-49.308,88.816-59.122,136.414c-25.081-5.183-37.387-8.303-59.948-21.21c-0.63,0.087-1.282,0.079-1.89,0.262
		c-2.814,0.851-3.363,1.793-4.539,4.211c0.099,3.804,1.6,6.187,3.44,9.45c-27.1,1.435-51.057,6.485-76.859,14.643
		c-32.826-27.842-57.927-73.169-64.52-115.6c-6.356-40.923,1.25-88.432,26.234-122.312
		C508.11,203.945,560.957,175.684,604.742,169.268z"/>
	<path d="M585.719,191.236c1.825,0.189,3.756,0.266,5.485,0.941c6.413,2.499,14.914,10.19,17.451,16.558
		c1.19,2.989,0.408,5.024-0.857,7.799c-2.154-0.101-4.515-0.391-6.558-1.107c-6.32-2.21-12.751-8.015-15.581-14.067
		C583.813,197.41,584.17,195.104,585.719,191.236z"/>
	<path d="M646.319,366.176c0.684,0.076,1.367,0.149,2.045,0.258c4.921,0.787,8.244,4.299,10.903,8.321
		c0.531,0.791,1.022,1.607,1.473,2.447c0.452,0.839,0.861,1.698,1.228,2.578c0.367,0.88,0.69,1.776,0.968,2.687
		c0.28,0.91,0.514,1.832,0.704,2.766c0.188,0.934,0.331,1.876,0.427,2.824c0.097,0.947,0.146,1.898,0.149,2.852
		c0.004,0.953-0.039,1.903-0.129,2.852c-0.09,0.949-0.226,1.891-0.407,2.826c-1.95,0.151-3.82,0.058-5.77-0.05
		c-4.026-2.631-7.437-7.542-9.361-11.921C645.89,378.562,643.857,372.562,646.319,366.176z"/>
	<path d="M500.607,239.756c1.6,0.262,3.327,0.495,4.8,1.226c4.112,2.043,7.95,8.456,9.571,12.586
		c2.486,6.324,3.738,11.756,1.063,18.107c-1.109-0.109-1.677-0.131-2.832-0.431c-5.372-1.399-9.73-5.61-12.117-10.535
		C497.682,253.678,498.02,246.911,500.607,239.756z"/>
	<path d="M637.866,195.151c0.772,0.251,1.536,0.526,2.289,0.825c7.658,3.032,15.571,13.662,18.638,20.994
		c1.85,4.426,1.709,6.853-0.145,11.255c-1.25,0.232-2.828,0.614-4.092,0.308c-4.698-1.137-10.609-9.391-12.855-13.353
		C637.584,207.918,635.521,203.245,637.866,195.151z"/>
	<path d="M703.364,272.537c6.503,1.586,10.18,5.789,13.679,11.346c4.822,7.656,6.177,15.043,4.09,23.698
		c-0.906-0.004-1.345,0.03-2.299-0.163c-4.438-0.9-7.59-4.599-9.997-8.18C703.527,291.33,701.388,281.798,703.364,272.537z"/>
	<path d="M691.074,218.058c0.956,0.036,2.6,0.044,3.595,0.266c6.465,1.437,14.637,12.588,17.722,17.927
		c2.717,4.702,4.054,7.767,2.661,13.091c-1.695,0.111-3.295,0.129-4.99-0.06c-4.802-0.541-9.18-4.829-11.994-8.449
		C693.083,234.426,690.249,226.137,691.074,218.058z"/>
	<path d="M545.986,215.041c7.179,2.55,11.191,7.218,15.144,13.59c3.919,6.318,7.338,14.486,5.573,21.961
		c-1.153-0.207-2.303-0.421-3.436-0.717c-6.408-1.665-11.648-7.381-14.713-13.033C544.833,229.976,543.679,222.5,545.986,215.041z"
		/>
	<path d="M650.818,244.936c0.37,0.127,0.743,0.239,1.105,0.382c7.761,3.049,13.661,11.909,16.685,19.439
		c2.599,6.473,3.641,10.843,0.892,17.338c-1.135-0.248-2.622-0.485-3.687-1.014c-7.481-3.705-15.011-17.452-16.921-24.984
		C647.7,251.393,648.296,249.044,650.818,244.936z"/>
	<path d="M533.483,346.771c1.012,0.284,1.524,0.378,2.429,0.779c7.96,3.534,14.435,16.686,16.963,24.608
		c2.025,6.346,2.556,9.951-0.552,15.868c-1.659-0.523-3.255-0.994-4.651-2.081c-7.385-5.752-15.14-23.054-16.317-32.234
		C530.981,350.786,531.774,349.128,533.483,346.771z"/>
	<path d="M596.592,250.794c1.206,0.089,1.88,0.107,3.12,0.362c5.147,1.059,9.623,6.463,12.403,10.619
		c5.002,7.473,7.944,16.621,6.252,25.542c-1.145,0.062-2.621,0.229-3.778,0.02c-4.442-0.803-8.281-5.37-10.762-8.87
		C598.345,270.736,595.157,260.183,596.592,250.794z"/>
	<path d="M481.341,367.987c6.056,0.857,9.074,4.146,12.626,8.824c6.183,8.146,11.362,20.023,9.963,30.344
		c-1.481-0.095-2.969-0.167-4.432-0.437c-4.992-0.92-9.895-7.526-12.388-11.587C481.993,386.796,479.034,377.618,481.341,367.987z"
		/>
	<path d="M529.001,419.773c1.986,0.103,4.036,0.344,5.968,0.841c7.157,1.848,27.055,9.649,30.092,16.792
		c1.278,3.003,0.622,3.854-0.437,6.761c-4.056,0.849-7.298,0.888-11.352-0.201c-8.536-2.293-20.105-7.059-24.469-15.148
		C527.04,425.548,527.91,423.018,529.001,419.773z"/>
	<path d="M484.034,299.751c1.304,0.087,3.108,0.089,4.398,0.483c3.194,0.972,5.849,4.678,7.53,7.407
		c6.453,10.474,7.522,23.155,4.943,34.895c-0.582-0.127-1.169-0.238-1.747-0.38c-4.69-1.143-7.717-5.642-9.883-9.671
		C484.523,323.651,480.962,309.483,484.034,299.751z"/>
	<path d="M538.342,274.735c1.258,0.161,2.993,0.28,4.199,0.787c8.27,3.466,16.517,18.541,19.739,26.711
		c1.473,3.738,2.524,6.876,0.845,10.647c-1.982-0.008-3.939-0.23-5.833-0.839c-7.111-2.281-13.836-10.959-17.026-17.38
		C536.776,287.637,535.928,282.21,538.342,274.735z"/>
	<path d="M587.322,317.566c1.968,0.29,4.052,0.644,5.851,1.53c8.355,4.114,19.375,18.751,21.647,27.635
		c0.98,3.838-0.016,5.744-1.92,8.9l-0.537-0.157c-1.606-0.457-3.227-0.93-4.72-1.697c-8.997-4.627-19.373-18.099-21.987-27.677
		C584.645,322.397,585.438,320.801,587.322,317.566z"/>
	<path d="M585.669,388.191c0.847,0.005,1.693,0.029,2.54,0.072c7.568,0.423,13.801,6.872,18.568,12.32
		c6.28,7.175,12.117,15.544,11.513,25.399c-8.266-0.841-14.411-5.982-19.989-11.823C591.399,406.93,585.502,398.509,585.669,388.191
		z"/>
	<path d="M653.058,304.226c0.948,0.286,0.892,0.237,1.958,0.745c10.376,4.953,21.571,22.826,24.863,33.669
		c1.413,4.659,1.491,7.85-0.89,12.103c-1.608-0.242-3.333-0.467-4.808-1.194c-9.812-4.843-18.475-22.736-21.722-32.884
		C650.842,311.61,650.612,309.046,653.058,304.226z"/>
	<path style="fill:#FEFEFE;" d="M1115.777,91.854c11.505-0.831,23.193-0.408,34.696,0.251
		c-31.835,11.389-60.076,29.359-82.178,55.211c-33.752,39.479-52.696,93.021-48.392,144.98
		c3.621,43.739,21.033,74.089,53.863,102.133c-44.62-1.014-87.603-14.991-119.752-46.895c-6.39-6.34-11.954-19.522-18.598-23.875
		c-6.747-4.42-17.269,7.018-23.789,9.307c-9.462,3.323-19.403,2.842-28.351-1.713c-0.596-0.306-1.185-0.627-1.767-0.964
		c-0.58-0.335-1.152-0.684-1.715-1.047c-0.564-0.363-1.119-0.74-1.664-1.131c-0.546-0.391-1.082-0.795-1.608-1.212
		c-0.525-0.416-1.039-0.845-1.544-1.288c-0.505-0.441-0.998-0.895-1.481-1.361c-0.482-0.466-0.953-0.944-1.411-1.433
		c-0.46-0.489-0.907-0.989-1.341-1.5c-0.435-0.511-0.857-1.033-1.266-1.564c-0.408-0.531-0.804-1.073-1.187-1.624
		c-0.383-0.551-0.752-1.111-1.107-1.679c-0.355-0.568-0.696-1.146-1.024-1.733c-0.326-0.586-0.638-1.178-0.936-1.779
		c-0.298-0.602-0.581-1.21-0.849-1.824c-0.269-0.615-0.522-1.236-0.759-1.862c-0.238-0.627-0.461-1.259-0.668-1.898
		c-3.722-11.577-1.727-28.718,8.576-36.648c4.571-3.518,17.066-6.813,18.928-12.187c0.467-1.349,0.724-2.997,0.145-4.341
		c-0.906-2.099-2.661-3.45-4.728-4.309c-5.587-2.315-12.483-0.517-17.706,1.993c-10.796,5.187-19.648,17.962-23.191,29.028
		c-4.509,14.083-2.5,28.659,4.076,41.672c6.648,13.157,17.833,22.967,31.878,27.504c17.114,5.531,31.916,1.894,47.35-6.098
		c24.93,33.118,60.282,54.479,100.719,63.282c75.236,16.378,167.382-5.287,231.676-46.339
		c14.615-11.322,25.463-21.353,33.273-38.296c4.382,3.355,7.93,6.67,11.585,10.804c-1.433,37.01-26.808,78.416-50.687,105.51
		c-53.412,60.598-141.017,95.728-220.844,100.339c-72.849,4.207-158.862-11.863-214.713-61.757
		c-28.51-25.469-47.952-59.545-49.954-98.147c-3.013-58.118,34.156-120.94,72.257-163.199
		C908.656,141.781,1016.573,96.804,1115.777,91.854z"/>
	<path d="M1056.6,453.426c2.28,0.308,4.307,0.616,5.972,2.381c3.005,3.184,3.677,8.254,3.339,12.431
		c-0.61,7.57-4.337,15.518-10.452,20.166c-4.015,3.049-8.665,4.474-13.675,3.555c-6.549-1.198-12.036-7.522-15.321-12.811
		c-2.232-6.511-2.872-10.754-1.608-17.519l1.346-0.92c8.194,4.796,8.957,16.128,19.598,18.998c1.918-0.443,2.681-0.328,4.146-1.755
		C1055.759,472.29,1056.292,461.036,1056.6,453.426z"/>
	<path d="M850.212,380.029c0.578,0.179,1.185,0.286,1.737,0.539c2.683,1.224,3.46,3.377,4.237,6.06
		c1.749,6.036,0.036,13.113-2.999,18.437c-3.045,5.342-7.886,9.387-13.938,10.768c-7.825,1.785-13.483-1.238-19.986-5.066
		c-1.902-3.092-3.287-6.455-4.764-9.764c-0.342-2.888-1.057-6.31-0.845-9.204c0.264-3.587,1.866-6.936,4.654-9.216
		c2.927,0.487,5.006,17.165,10.503,21.573c1.582,1.268,3.222,2.196,5.322,1.707c9.931-2.315,11.418-16.953,15.2-24.219
		C849.618,381.1,849.92,380.567,850.212,380.029z"/>
	<path style="fill:#FEFEFE;" d="M748.806,344.764l0.811,0.537c-4.78,32.83,0.024,67.888,15.804,97.25
		c28.323,52.706,81.182,85.282,137.035,102.287c2.88,0.855,5.771,1.674,8.673,2.458c2.9,0.784,5.81,1.534,8.729,2.25
		c2.919,0.714,5.846,1.393,8.781,2.037c2.935,0.644,5.877,1.253,8.828,1.826c2.949,0.572,5.905,1.11,8.868,1.612
		c2.964,0.502,5.932,0.968,8.906,1.397c2.974,0.431,5.954,0.825,8.937,1.184c2.982,0.358,5.969,0.68,8.961,0.966
		c2.992,0.286,5.986,0.536,8.983,0.751c2.997,0.215,5.997,0.393,8.999,0.535c3.001,0.142,6.004,0.247,9.009,0.316
		c3.004,0.069,6.008,0.102,9.013,0.099c3.005-0.003,6.009-0.042,9.013-0.117c3.005-0.076,6.008-0.187,9.009-0.336
		c3.001-0.147,6-0.331,8.997-0.55c2.997-0.221,5.991-0.478,8.981-0.769c2.99-0.293,5.977-0.621,8.961-0.986
		c2.982-0.364,5.96-0.764,8.933-1.2c2.973-0.437,5.94-0.909,8.902-1.417c2.963-0.507,5.918-1.051,8.866-1.63
		c2.949-0.579,5.891-1.194,8.824-1.844c2.933-0.649,5.859-1.334,8.776-2.055c2.917-0.721,5.826-1.476,8.725-2.266
		c2.899-0.791,5.788-1.617,8.667-2.476c2.88-0.861,5.749-1.756,8.605-2.685c2.858-0.93,5.704-1.894,8.538-2.892
		c2.835-0.998,5.657-2.03,8.466-3.096c2.809-1.067,5.605-2.166,8.389-3.299c2.782-1.134,5.552-2.301,8.307-3.502
		c2.755-1.199,5.495-2.432,8.22-3.699c2.724-1.267,5.434-2.566,8.129-3.897c2.694-1.332,5.371-2.696,8.031-4.092
		c51.134-27.347,99.703-69.49,125.148-122.387c5.7-11.851,9.411-24.205,13.212-36.747c6.642,9.122,11.597,19.111,16.017,29.471
		c0.876,2.101,1.725,4.213,2.548,6.336c0.824,2.123,1.622,4.255,2.393,6.397c0.772,2.141,1.518,4.292,2.238,6.453
		c0.718,2.16,1.41,4.328,2.077,6.505c0.666,2.177,1.306,4.362,1.918,6.555c0.613,2.193,1.2,4.393,1.759,6.6
		c0.558,2.207,1.09,4.421,1.596,6.64c0.505,2.221,0.982,4.447,1.433,6.678c0.45,2.233,0.874,4.47,1.27,6.712
		c0.396,2.242,0.765,4.488,1.105,6.739c0.34,2.251,0.654,4.506,0.94,6.765c0.286,2.258,0.545,4.519,0.775,6.785
		c0.231,2.264,0.434,4.531,0.61,6.801c0.175,2.271,0.323,4.543,0.443,6.817c0.119,2.274,0.211,4.548,0.276,6.823
		c0.063,2.276,0.1,4.552,0.109,6.829c0.009,2.278-0.01,4.555-0.057,6.831c-0.047,2.276-0.121,4.551-0.223,6.825
		c-0.103,2.275-0.234,4.548-0.392,6.819s-0.343,4.54-0.556,6.807c-0.213,2.267-0.454,4.531-0.724,6.791
		c-0.269,2.26-0.565,4.518-0.888,6.771c-0.323,2.254-0.674,4.503-1.053,6.747c-0.379,2.246-0.785,4.486-1.218,6.721
		c-0.433,2.235-0.894,4.464-1.383,6.688c-0.487,2.225-1.002,4.442-1.544,6.652c-0.542,2.211-1.111,4.416-1.707,6.614
		c-0.595,2.197-1.218,4.386-1.868,6.568c-0.649,2.182-1.325,4.357-2.027,6.523c-0.702,2.165-1.431,4.321-2.186,6.469
		s-1.536,4.286-2.343,6.415c-0.808,2.129-1.642,4.248-2.5,6.356c-9.642,20.758-19.948,41.181-30.918,61.27
		c-54.885-16.026-120.835-22.525-167.913,16.599c-26.037,21.639-49.119,44.117-83.342,51.975
		c-63.363,14.546-104.55-22.808-154.073-53.525c-38.137-23.656-80.393-34.52-125.146-28.398c-13.813,1.888-27.53,5.622-41.104,8.814
		c-17.374-24.628-29.839-51.18-52.45-71.869c-2.715-59.336,1.369-105.822,22.098-162.223
		C715.378,394.779,729.172,368.354,748.806,344.764z"/>
	<path d="M752.95,480.685c1.832-0.093,3.724-0.266,5.507,0.31c2.917,0.946,4.796,3.754,5.654,6.568
		c2.019,6.606,2.462,14.121,3.933,20.953c4.663,21.647,10.859,43.646,20.957,63.44c13.55,26.564,34.764,52.005,64.045,61.372
		c1.32,0.421,2.65,0.803,3.991,1.145c1.342,0.343,2.693,0.647,4.052,0.91c1.359,0.264,2.725,0.487,4.098,0.67
		c1.373,0.183,2.749,0.325,4.13,0.427c1.382,0.103,2.765,0.166,4.15,0.187c1.385,0.021,2.768,0.001,4.152-0.06
		c1.383-0.06,2.764-0.16,4.142-0.302c1.378-0.142,2.75-0.323,4.116-0.545c1.367-0.221,2.727-0.483,4.078-0.785
		c1.352-0.302,2.693-0.643,4.025-1.023c1.332-0.38,2.651-0.8,3.957-1.258c1.306-0.457,2.599-0.953,3.877-1.487
		c1.277-0.534,2.538-1.105,3.782-1.713c1.244-0.608,2.47-1.252,3.677-1.932c1.206-0.68,2.391-1.394,3.556-2.144
		c1.165-0.75,2.306-1.533,3.424-2.349c5.024-3.603,11.388-9.953,17.048-11.907c8.188-2.828,16.035,22.343,28.963,29.63
		c6.934,3.909,14.792,4.712,22.607,3.957c34.311-3.313,46.706-33.57,59.613-37.385c11.243,9.287,18.016,22.116,30.712,30.143
		c16.541,10.46,37.763,13.276,56.681,8.749c21.878-5.235,42.012-20.141,54.358-38.739c4.979-7.5,8.713-15.87,13.745-23.275
		c0.98-1.441,2.325-3.73,4.19-3.768c4.913-0.101,10.124,2.796,14.476,4.788c15.657,7.169,30.475,11.225,47.696,7.129
		c23.273-5.537,44.25-28.384,47.511-52.436c1.477-10.891-1.598-26.276,4.249-35.835c1.228-0.694,1.898-1.538,3.361-1.145
		c3.573,0.96,5.704,4.887,7.58,7.781c4.035,17.012,2.357,36.394-4.126,52.593c-7.942,19.848-23.996,37.582-43.928,45.83
		c-24.557,10.162-46.428,6.004-70.092-3.838c-6.795,11.656-14.496,22.468-24.153,31.95c-19.045,18.702-42.942,31.336-70.043,31.047
		c-30.857-0.326-53.279-13.588-74.347-34.875c-5.408,6.898-11.3,13.026-18.511,18.07c-15.071,10.545-35.032,15.717-53.255,12.334
		c-16.794-3.12-28.674-12.465-38.037-26.278c-13.008,8.117-25.526,15.476-40.849,18.054c-25.753,4.333-57.017-5.497-77.847-20.633
		c-36.014-26.168-55.799-75.063-62.62-117.701C749.524,506.629,746.232,489.967,752.95,480.685z"/>
	<path style="fill:#FEFEFE;" d="M1375.738,588.088c31.701,3.277,64.273,13.373,91.177,30.674
		c46.768,30.076,59.116,64.784,70.637,116.693c4.865,4.001,9.768,6.902,15.333,9.806c5.936-0.956,11.964-2.081,17.982-2.278
		c25.197-0.829,49.962,13.711,67.672,30.642c25.119,24.01,37.113,59.205,37.896,93.405c0.833,36.302-12.853,69.663-38.065,95.662
		c-27.257,28.106-63.14,40.506-101.8,40.855c-45.271,0.411-97.151-21.528-119.983-62.431c-4.468-8.005-5.441-21.52-10.376-26.367
		c-2.908-1.133-4.782-0.825-7.747-0.358c-2.214,1.546-2.91,1.936-3.776,4.631c-2.987,9.295,5.462,28.162,9.649,36.497
		c16.667,33.17,54.745,58.534,89.08,69.995c-16.45,44.669-40.69,86.371-77.996,116.701c-33.134,26.936-74.101,31.222-114.68,38.695
		c-147.735,27.21-315.807,30.688-464.79,14.826c-67.487-7.187-154.876-17.942-212.159-56.643
		c-16.561-11.189-30.423-25.131-42.938-40.621c-17.416-22.824-25.381-46.367-31.552-74.03c20.687-9.756,40.255-19.451,57.017-35.467
		c13.952-13.332,22.649-27.882,29.076-45.993c1.608-4.529,3.826-9.937,3.744-14.768c-0.05-2.882-1.016-5.962-3.436-7.731
		c-2.2-1.606-3.257-1.602-5.783-1.409c-6.702,4.05-8.162,15.476-11.754,22.209c-2.712,4.996-5.829,9.726-9.351,14.188
		c-22.895,29.102-57.591,46.333-94.017,50.369c-2.35,0.247-4.705,0.437-7.065,0.57c-2.36,0.134-4.721,0.21-7.085,0.229
		c-2.364,0.018-4.726-0.019-7.087-0.113c-2.362-0.095-4.721-0.248-7.075-0.457c-2.354-0.209-4.702-0.476-7.043-0.799
		c-2.341-0.322-4.673-0.701-6.996-1.137c-2.324-0.435-4.635-0.925-6.934-1.473c-2.299-0.547-4.584-1.149-6.855-1.807
		c-2.27-0.659-4.523-1.371-6.759-2.136c-2.235-0.767-4.451-1.587-6.648-2.46c-2.195-0.874-4.369-1.801-6.521-2.779
		c-2.152-0.979-4.278-2.009-6.38-3.09c-2.101-1.081-4.176-2.213-6.223-3.394c-2.047-1.182-4.064-2.413-6.052-3.693
		c-1.987-1.279-3.943-2.605-5.867-3.979c-1.922-1.374-3.811-2.794-5.666-4.259c-1.715-1.391-3.395-2.823-5.04-4.297
		c-1.644-1.475-3.251-2.989-4.822-4.541c-1.571-1.551-3.103-3.141-4.595-4.77c-1.493-1.628-2.945-3.292-4.354-4.99
		c-1.411-1.699-2.78-3.431-4.106-5.197c-1.326-1.766-2.608-3.564-3.846-5.394c-1.237-1.828-2.429-3.687-3.575-5.575
		c-1.146-1.888-2.246-3.803-3.299-5.744c-1.052-1.942-2.056-3.909-3.011-5.899c-0.957-1.991-1.864-4.005-2.721-6.04
		c-0.857-2.035-1.664-4.09-2.421-6.165c-0.755-2.075-1.46-4.167-2.115-6.276c-0.653-2.109-1.255-4.234-1.805-6.374
		c-0.55-2.138-1.047-4.289-1.49-6.453c-0.444-2.164-0.834-4.337-1.171-6.519c-0.338-2.182-0.621-4.372-0.851-6.568
		c-3.729-35.736,4.953-71.519,27.78-99.653c19.848-24.459,51.359-42.525,83.229-44.228c6.535-0.35,13.163,3.015,19.669,2.029
		c3.957-0.6,6.411-2.856,7.904-6.477c3.196-7.743,3.699-17.769,5.39-26.025c4.764-23.257,15.589-46.992,30.054-65.851
		c19.302-25.165,51.287-46.275,83.146-50.323c46.468-5.905,67.377,31.658,87.804,66.324c5.245,8.902,10.686,19.916,19.238,26.081
		c2.548,1.836,4.863,1.977,7.87,1.558c7.985-1.119,16.279-4.549,24.135-6.525c22.973-5.776,47.336-7.693,70.804-4.114
		c73.063,11.143,112.337,79.519,191.273,83.939c4.269,0.276,8.541,0.378,12.817,0.308c4.277-0.069,8.545-0.311,12.803-0.726
		c4.257-0.413,8.49-0.998,12.699-1.755c4.211-0.755,8.384-1.679,12.519-2.773c19.083-5.199,36.205-14.991,51.844-26.969
		c21.53-16.49,42.966-41.491,70.249-47.499c5.925-1.292,11.897-2.31,17.915-3.055c6.018-0.745,12.058-1.212,18.119-1.403
		c6.062-0.191,12.119-0.103,18.171,0.262c6.054,0.364,12.078,1.006,18.072,1.924c7.21,1.071,14.484,2.504,21.516,4.422
		c8.884,2.425,23.434,10.498,32.307,8.381C1331.667,688.536,1367.146,604.843,1375.738,588.088z"/>
	<path d="M665.879,1030.151c3.685-0.089,6.163,0.461,9.17,2.596c3.192,4.543,1.83,16.921,2.689,22.76
		c2.347,15.929,11.801,30.692,24.624,40.311c13.367,10.026,31.475,14.54,47.984,11.742c21.377-3.627,40.225-18.235,46.635-39.397
		c1.791-5.911,2.339-14.538,6.264-19.264c1.739-2.095,2.876-2.351,5.485-2.62c1.92,0.95,3.083,1.777,4.273,3.544
		c4.068,6.044,2.794,11.728,1.409,18.471c-2.926,8.677-6.103,16.941-11.074,24.68c-10.579,16.472-26.868,28.517-46.122,32.592
		c-20.753,4.392-41.315-0.151-58.939-11.688c-18.111-11.857-31.304-28.275-35.557-49.787
		C660.445,1052.585,659.124,1040.367,665.879,1030.151z"/>
	<path d="M1367.12,1030.34c1.272,0.115,2.93,0.163,4.176,0.556c2.536,0.801,4.458,2.083,5.638,4.527
		c4.163,8.635-0.489,28.621-3.589,37.445c-0.443,1.227-0.915,2.442-1.417,3.645c-0.501,1.205-1.032,2.395-1.592,3.571
		c-0.561,1.178-1.149,2.341-1.765,3.49c-0.617,1.149-1.262,2.282-1.934,3.401c-0.672,1.117-1.371,2.217-2.097,3.299
		c-0.726,1.084-1.478,2.149-2.256,3.196c-0.778,1.047-1.581,2.073-2.409,3.08c-0.828,1.007-1.68,1.993-2.556,2.959
		c-0.877,0.966-1.777,1.909-2.699,2.83c-0.922,0.922-1.866,1.821-2.832,2.697c-0.967,0.876-1.954,1.727-2.961,2.554
		c-1.008,0.828-2.036,1.63-3.082,2.407c-1.048,0.778-2.114,1.529-3.198,2.254c-1.084,0.725-2.184,1.423-3.301,2.095
		c-1.118,0.67-2.252,1.314-3.401,1.93c-1.15,0.616-2.314,1.204-3.492,1.763c-19.103,9.091-41.328,11.032-61.348,3.701
		c-21.575-7.902-36.551-23.974-45.957-44.546c-2.337-7.115-5.61-16.052-1.999-23.241c1.475-2.934,3.405-4.329,6.509-5.313
		c9.291,1.429,8.385,14.158,11.149,21.248c2.457,6.302,6.38,12.235,10.959,17.191c10.971,11.883,26.687,19.383,42.916,19.803
		c29.64,0.767,55.926-15.985,64.172-45.015c2.58-9.081,0.716-24.6,7.685-30.93C1366.665,1030.734,1366.894,1030.539,1367.12,1030.34
		z"/>
	<path d="M605.988,726.605c2.82-0.201,5.561-0.24,8.377,0.097c13.419,1.618,20.341,10.549,28.249,20.385
		c5.459,1.787,10.541,3.681,15.158,7.238c7.801,6.008,12.242,14.544,13.401,24.247c1.204,10.084-0.338,21.319-6.962,29.376
		c-6.272,7.63-13.425,9.663-22.788,10.4l-0.266,1.018l-0.467,1.689c-1.61,5.956-3.323,10.909-7.28,15.758
		c-7.564,9.265-18.008,11.275-29.259,12.286c-4.227-0.407-8.604-1.318-12.539-2.933c-11.835-4.861-16.909-15.633-21.699-26.625
		c-3.955-0.759-7.755-1.356-11.247-3.488c-9.561-5.837-15.907-14.951-18.042-25.958c-0.138-0.717-0.258-1.436-0.362-2.158
		c-0.102-0.722-0.186-1.447-0.252-2.174c-0.066-0.726-0.115-1.454-0.145-2.182c-0.03-0.73-0.042-1.459-0.036-2.188
		c0.005-0.73,0.029-1.459,0.072-2.188c0.042-0.729,0.103-1.455,0.181-2.18c0.078-0.726,0.175-1.45,0.29-2.17
		c0.114-0.721,0.246-1.438,0.396-2.152c0.151-0.714,0.319-1.424,0.503-2.129c0.186-0.706,0.389-1.407,0.61-2.103
		c0.22-0.696,0.457-1.385,0.711-2.069c0.254-0.684,0.526-1.361,0.815-2.031c0.288-0.67,0.592-1.334,0.912-1.989
		c0.322-0.654,0.66-1.301,1.014-1.94c0.352-0.639,0.721-1.268,1.107-1.888c0.384-0.62,0.784-1.23,1.198-1.83
		c14.617-21.289,20.816-11.173,34.664-17.819C592.376,734.068,593.09,729.182,605.988,726.605z"/>
	<path style="fill:#FEFEFE;" d="M605.935,746.252c4.303,0.034,8.548,0.686,11.795,3.782c4.553,4.342,4.188,12.954,4.478,18.755
		c2.419-0.498,4.849-0.94,7.288-1.326c0.799-0.114,1.602-0.188,2.409-0.221c0.807-0.032,1.614-0.023,2.421,0.026
		c0.805,0.049,1.607,0.139,2.403,0.27c0.798,0.131,1.586,0.302,2.365,0.513c0.78,0.211,1.547,0.46,2.301,0.747
		c0.754,0.289,1.491,0.615,2.212,0.98c0.722,0.363,1.423,0.762,2.103,1.196c0.681,0.435,1.338,0.902,1.971,1.403
		c3.086,2.47,5.497,5.903,5.881,9.919c0.354,3.689-1.282,7.292-3.701,10.009c-6.851,7.699-16.955,7.218-26.353,7.663
		c-0.173,6.72,0.058,13.95-2.721,20.208c-3.035,6.835-8.58,9.643-15.301,12.02c-3.472-0.817-7.224-1.832-9.985-4.201
		c-6.841-5.865-6.561-16.627-7.387-24.849c-9.092-1.019-19.314-2.23-25.818-9.416c-0.379-0.415-0.735-0.848-1.069-1.3
		c-0.333-0.452-0.641-0.92-0.924-1.405c-0.284-0.485-0.541-0.983-0.773-1.495c-0.231-0.513-0.434-1.036-0.61-1.568
		c-0.176-0.534-0.324-1.075-0.443-1.624c-0.119-0.55-0.209-1.104-0.268-1.661c-0.061-0.559-0.092-1.119-0.093-1.679
		c-0.001-0.562,0.027-1.122,0.086-1.681c0.527-5.203,3.639-9.756,7.864-12.716c8.24-5.77,16.392-4.197,25.483-2.296
		c1.169-3.941,2.208-8.184,3.919-11.921C597.82,749.241,600.819,747.969,605.935,746.252z"/>
	<path d="M1421.685,691.809c2.822-0.257,5.647-0.294,8.474-0.111c11.541,0.67,18.568,6.944,25.942,15.029
		c4.331-1.143,8.391-1.606,12.876-1.175c12.483,1.2,23.513,7.707,31.203,17.527c7.202,9.198,11.199,20.898,9.526,32.6
		c-1.854,12.986-9.909,21.691-19.99,29.171c-1.222,4.853-2.717,9.828-4.567,14.476c-4.627,11.618-11.253,18.88-22.736,23.885
		c-6.431,1.049-13.568,1.568-19.918-0.046c-10.633-2.705-16.857-10.301-22.108-19.377c-4.088,0.247-8.234,0.34-12.31-0.135
		c-11.32-1.318-22.251-6.835-28.983-16.176c-0.374-0.525-0.734-1.059-1.081-1.602c-0.347-0.544-0.68-1.097-0.998-1.657
		c-0.319-0.56-0.623-1.129-0.912-1.705c-0.29-0.575-0.565-1.158-0.823-1.749c-0.26-0.59-0.504-1.186-0.733-1.789
		c-0.229-0.603-0.443-1.211-0.64-1.824c-0.199-0.614-0.381-1.232-0.547-1.854c-0.166-0.624-0.315-1.251-0.449-1.882
		c-0.135-0.631-0.253-1.264-0.354-1.9c-0.102-0.637-0.188-1.276-0.256-1.916c-0.069-0.641-0.121-1.284-0.157-1.928
		c-0.036-0.644-0.055-1.288-0.058-1.934c-0.003-0.644,0.011-1.288,0.042-1.932c0.029-0.644,0.076-1.286,0.139-1.928
		c0.064-0.643,0.143-1.283,0.238-1.92c0.095-0.637,0.208-1.272,0.336-1.904c2.62-12.493,10.899-19.942,21.186-26.425
		c0.256-8.351,1.284-16.778,5.364-24.221C1404.359,698.344,1412.161,694.49,1421.685,691.809z"/>
	<path style="fill:#FEFEFE;" d="M1423.032,709.3c1.343-0.044,2.671-0.042,4.011,0.101c10.738,1.145,16.855,13.596,23.161,21.19
		c5.166-2.878,10.413-5.599,15.742-8.162c2.806,0.825,5.555,1.719,8.192,3.003c7.618,3.708,14.347,11.11,16.951,19.212
		c1.499,4.67,1.499,9.472-1.03,13.793c-5.251,8.977-15.838,9.854-24.91,12.513c1.039,5.658,3.369,11.684,3.289,17.446
		c-0.097,6.998-3.544,10.43-8.496,14.91c-1.232,0.64-2.435,1.212-3.786,1.566c-3.699,0.966-7.461,0.636-10.752-1.403
		c-8.127-5.032-11.982-16.525-14.25-25.332c-5.843,1.6-12.006,3.669-18.02,4.388c-5.521,0.66-11.879,0.423-16.261-3.373
		c-3.713-3.218-8.208-9.82-7.987-14.935c0.489-11.328,17.084-10.482,23.082-16.744c5.108-5.332-0.529-15.826-0.008-22.076
		C1412.553,718.311,1417.955,713.577,1423.032,709.3z"/>
	<path d="M803.232,808.101c17.338-1.677,35.092,0.044,49.878,10.034c17.267,11.668,29.917,31.646,33.625,52.08
		c4.333,23.887-2.864,44.278-16.227,63.814c1.467,1.723,3.291,3.563,4.213,5.644c0.89,2.011,0.612,2.403-0.111,4.333
		c-0.998,0.533-1.888,1.367-2.995,1.598c-0.185,0.04-34.529-12.708-39.057-13.904c-26.369-4.664-45.158-2.633-70.732,3.567
		c-4.923,1.195-9.214,2.782-13.797-0.022l-0.497-2.297c1.24-3.309,3.295-4.977,5.885-7.298c-5.821-7.842-9.788-16.37-11.978-25.88
		c-4.358-18.93-1.206-39.852,9.303-56.264C763.41,823.724,780.577,813.083,803.232,808.101z"/>
	<path style="fill:#FEFEFE;" d="M804.351,841.744c3.53-0.05,7.002-0.028,10.352,1.218c4.913,1.828,9.085,5.555,11.145,10.412
		c2.051,4.831,1.872,10.098-0.328,14.838c-2.798,6.028-7.838,8.912-13.801,11.211c-4.545,0.203-8.631,0.078-12.775-2.029
		c-6.839-3.478-9.297-9.971-11.404-16.881c0.733-2.574,1.554-5.149,2.661-7.59C793.147,846.432,797.971,844.105,804.351,841.744z"/>
	<path style="fill:#FEFEFE;" d="M808.792,817.171c1.571-0.169,3.147-0.276,4.726-0.32c1.581-0.042,3.16-0.022,4.738,0.062
		c1.578,0.085,3.151,0.233,4.718,0.443c1.566,0.209,3.122,0.482,4.667,0.819c1.544,0.335,3.072,0.733,4.585,1.193
		c1.512,0.458,3.004,0.977,4.476,1.556c1.471,0.579,2.915,1.216,4.335,1.91c1.419,0.696,2.808,1.447,4.168,2.254
		c16.074,9.5,26.153,25.302,30.588,43.221c5.863,23.692-1.236,41.706-13.391,61.829l-13.443-5.434
		c5.567-5.994,9.569-12.018,12.509-19.65c0.363-0.934,0.702-1.877,1.016-2.828c0.315-0.951,0.606-1.91,0.872-2.876
		c0.266-0.966,0.508-1.938,0.725-2.916c0.217-0.979,0.409-1.962,0.576-2.949c0.167-0.988,0.309-1.98,0.427-2.975
		c0.117-0.995,0.208-1.993,0.274-2.993c0.068-0.999,0.109-1.999,0.125-3.001c0.016-1.003,0.007-2.005-0.028-3.007
		c-0.034-1-0.095-2-0.181-2.999c-0.085-0.998-0.195-1.993-0.33-2.987c-0.136-0.992-0.297-1.981-0.483-2.965
		c-0.186-0.984-0.396-1.964-0.632-2.937c-0.234-0.975-0.494-1.943-0.779-2.904c-0.284-0.961-0.592-1.913-0.924-2.858
		c-0.333-0.946-0.689-1.883-1.069-2.81c-0.379-0.927-0.782-1.844-1.208-2.751c-6.197-13.534-17.179-23.114-31.032-28.102
		c-1.827-0.423-3.66-0.815-5.499-1.177c-12.682-2.464-25.169,0.068-35.788,7.483c-0.798,0.567-1.58,1.154-2.347,1.761
		c-0.768,0.607-1.521,1.232-2.258,1.876c-0.735,0.645-1.454,1.308-2.156,1.989c-0.703,0.681-1.388,1.379-2.055,2.095
		c-0.668,0.715-1.317,1.447-1.948,2.196c-0.629,0.749-1.24,1.513-1.832,2.294c-0.591,0.779-1.162,1.573-1.713,2.381
		c-0.553,0.808-1.083,1.63-1.592,2.466c-0.51,0.835-0.999,1.682-1.467,2.542c-0.466,0.86-0.911,1.731-1.334,2.613
		c-0.423,0.882-0.823,1.775-1.202,2.677c-0.378,0.904-0.732,1.815-1.063,2.735c-0.331,0.921-0.639,1.85-0.924,2.786
		c-0.285,0.935-0.546,1.878-0.783,2.828c-0.237,0.95-0.45,1.905-0.638,2.864c-0.188,0.961-0.352,1.925-0.493,2.894
		c-2.633,17.954,3.887,30.696,14.204,44.574l-15.329,2.528c-5.797-9.651-10.406-19.326-11.976-30.596
		c-2.552-18.316,2.8-36.28,13.934-50.936C775.593,826.546,791.083,819.582,808.792,817.171z"/>
	<path d="M1221.113,804.323c8.319,0.29,16.148,1.536,24.016,4.265c19.558,6.779,36.384,20.091,45.353,38.979
		c8.56,18.028,10.605,43.119,2.27,61.517c-3.456,7.628-9.043,14.144-11.865,22.06c1.817,2.037,3.949,4.06,4.963,6.632
		c0.594,1.508-0.062,1.868-0.739,3.182c-2.204,0.974-2.784,1.437-5.203,0.882c-6.314-1.447-12.779-4.668-18.93-6.833
		c-14.307-5.038-28.398-7.041-43.521-6.906c-13.602,0.89-26.844,3.726-39.339,9.222c-5.026,2.21-10.245,5.326-15.498,6.847
		c-2.001,0.578-3.571,0.544-5.537-0.07c-0.954-1.64-1.016-1.018-0.525-2.758c1.345-4.774,3.677-6.791,7.862-9.212
		c-1.324-1.61-2.583-3.269-3.776-4.977c-1.195-1.708-2.322-3.459-3.381-5.255c-1.057-1.795-2.044-3.629-2.959-5.501
		c-0.914-1.872-1.755-3.777-2.522-5.714c-0.767-1.938-1.457-3.903-2.071-5.895c-0.615-1.991-1.151-4.004-1.608-6.038
		c-0.457-2.032-0.834-4.08-1.131-6.143c-0.298-2.063-0.515-4.134-0.652-6.213c-0.093-1.279-0.154-2.559-0.185-3.842
		c-0.029-1.283-0.027-2.565,0.006-3.846c0.032-1.282,0.095-2.563,0.191-3.842c0.095-1.279,0.222-2.555,0.38-3.828
		c0.159-1.272,0.349-2.54,0.568-3.804c0.22-1.264,0.47-2.521,0.751-3.772c0.281-1.251,0.593-2.494,0.936-3.73
		c0.342-1.236,0.714-2.463,1.117-3.681c0.401-1.218,0.833-2.425,1.296-3.621c0.461-1.196,0.951-2.381,1.471-3.553
		c0.519-1.173,1.067-2.332,1.642-3.478c0.576-1.146,1.181-2.277,1.813-3.393c0.631-1.117,1.289-2.217,1.974-3.301
		c0.686-1.084,1.398-2.15,2.135-3.2c0.738-1.049,1.5-2.08,2.288-3.092c0.788-1.011,1.6-2.003,2.436-2.975
		C1179.689,812.539,1199.398,805.815,1221.113,804.323z"/>
	<path style="fill:#FEFEFE;" d="M1203.255,843.783c3.194-0.241,6.545-0.622,9.736-0.237c4.967,0.598,10.058,3.446,13.097,7.433
		c2.751,3.609,3.828,8.17,3.202,12.648c-1.113,7.95-6.469,12.96-12.626,17.473c-3.212,0.594-6.388,1.202-9.651,0.628
		c-4.897-0.865-9.601-4.257-12.221-8.453c-0.362-0.582-0.693-1.18-0.994-1.795s-0.57-1.243-0.809-1.884
		c-0.237-0.643-0.443-1.295-0.616-1.958c-0.172-0.663-0.311-1.332-0.415-2.007c-0.105-0.677-0.176-1.357-0.213-2.041
		c-0.036-0.684-0.038-1.367-0.006-2.051c0.032-0.684,0.098-1.364,0.199-2.041c0.101-0.677,0.235-1.348,0.403-2.011
		C1193.95,850.999,1197.731,847.207,1203.255,843.783z"/>
	<path style="fill:#FEFEFE;" d="M1220.814,814.204c1.754-0.009,3.506,0.048,5.257,0.171c1.75,0.123,3.493,0.313,5.229,0.568
		c1.736,0.256,3.459,0.577,5.169,0.964c1.712,0.387,3.406,0.837,5.084,1.351c1.676,0.515,3.331,1.093,4.964,1.733
		c1.634,0.641,3.24,1.343,4.82,2.105c1.581,0.762,3.13,1.583,4.646,2.462c1.518,0.88,3.001,1.816,4.448,2.808
		c14.24,9.883,23.521,25.795,26.504,42.747c3.905,22.192-2.749,40.406-15.283,58.482l-12.165-4.913
		c8.085-10.046,13.932-20.832,15.862-33.715c0.138-0.908,0.254-1.818,0.348-2.733c0.093-0.914,0.163-1.83,0.211-2.747
		c0.049-0.917,0.075-1.835,0.078-2.755c0.003-0.918-0.018-1.836-0.062-2.755c-0.042-0.917-0.107-1.832-0.195-2.747
		c-0.089-0.914-0.199-1.826-0.332-2.735c-0.132-0.909-0.287-1.814-0.465-2.717c-0.179-0.901-0.379-1.797-0.6-2.687
		c-0.222-0.892-0.466-1.777-0.731-2.657c-0.266-0.878-0.554-1.75-0.863-2.615c-0.309-0.865-0.638-1.722-0.99-2.572
		c-0.351-0.849-0.723-1.689-1.117-2.518c-0.392-0.831-0.805-1.651-1.238-2.46c-0.433-0.811-0.886-1.61-1.359-2.397
		c-0.473-0.788-0.965-1.564-1.477-2.327c-0.51-0.763-1.039-1.513-1.588-2.25c-9.518-12.537-22.762-18.883-38.011-21.244
		c-9.414-0.272-18.306,0.515-27.041,4.426c-12.813,5.738-22.38,17.173-27.267,30.173c-9.395,24.988-0.093,40.001,9.897,62.32
		c-3.46,1.073-6.843,2.445-10.235,3.713c-7.522-11.591-13.334-23.336-15.039-37.216c-2.158-17.561,2.619-37.196,13.823-51.083
		C1183.856,822.569,1201.189,816.355,1220.814,814.204z"/>
	<path d="M1092.57,936.661c5.972-0.616,12.095-0.65,18.098-0.882c-0.996,27.506-14.673,74.029-32.94,94.754
		c-13.143,14.908-32.651,25.031-52.613,26.059c-23.048,1.186-43.403-9.236-60.205-24.302
		c-17.996-17.245-25.071-41.982-31.811-65.172c-2.011-6.924-4.611-14.125-5.541-21.263c-0.417-3.2-0.483-5.775,1.594-8.441
		c24-0.914,48.795,2.039,72.909,2.532C1032.115,940.562,1062.588,938.517,1092.57,936.661z"/>
	<path style="fill:#FEFEFE;" d="M941.025,949.903c51.925,3.647,102.567,3.257,154.46-0.447c-2.228,13.735-4.667,27.275-8.649,40.629
		l-8.27-6.821c-17.994-12.666-37.328-19.34-59.48-19.648c-26.761-0.372-48.183,8.534-67.157,27.079
		C948.987,976.936,944.887,963.426,941.025,949.903z"/>
	<path style="fill:#FEFEFE;" d="M1011.102,974.211c7.652-0.519,15.086-0.191,22.635,1.246c18.69,3.557,36.95,12.65,47.863,28.702
		c-1.705,3.987-3.601,7.666-5.932,11.318c-10.979,17.197-26.043,26.437-45.705,30.775c-12.374,0.618-23.595-0.505-34.969-5.698
		c-18.32-8.365-30.485-22.563-37.453-41.227C973.498,984.027,989.032,976.489,1011.102,974.211z"/>
</g>
</svg>
