<?xml version="1.0" encoding="utf-8"?>
<!-- Generator: Adobe Illustrator 27.5.0, SVG Export Plug-In . SVG Version: 6.00 Build 0)  -->
<svg version="1.1" id="Layer_1" xmlns="http://www.w3.org/2000/svg" xmlns:xlink="http://www.w3.org/1999/xlink" x="0px" y="0px"
	 viewBox="0 0 6000 4000" style="enable-background:new 0 0 6000 4000;" xml:space="preserve">
<path style="fill:#FFFFFF;" d="M0,0h5994.883c3.32,5.251,4.492,9.799,4.766,15.985c2.578,56.309,0.352,113.554,0.352,169.968
	l0.039,331.512v1011.523v1853.473l-0.039,450.23c0,31.102,4.648,132.934-0.82,157.113c-0.859,3.75-2.266,6.953-4.297,10.195H0V0z"/>
<path d="M1277.805,81.633c9.824-0.618,15.676-0.122,23.785,6.063c44.363,33.827,63.074,125.019,70.738,177.584
	c141.398,15.322,204.543,57.892,303.113,156.869c29.442,4.883,59.191,16.785,86.098,29.57
	c86.301,41.012,165.711,111.957,198.434,203.871c12.574,6.293,25.719,11.707,38,18.516
	c86.328,47.851,124.523,122.719,151.582,213.539c8.802,3.794,17.435,7.943,25.898,12.445
	c81.043,43.644,113.539,107.492,138.84,191.969c99.168,56.324,140.082,115.234,178.543,220.067
	c56.922,21.266,118.961,33.125,178.727,43.023c156.555,25.934,307.074,12.375,461.441-19.977
	c129.023-27.043,255.254-59.871,387.574-67.363c152.043-8.605,297.445,11.305,439.656,65.602
	c23.711,9.051,58.555,19.539,77.617,36.602c28.633-10.363,63.36-37.508,90.82-53.375c108.36-62.617,220.079-116.445,347.227-120.703
	c219.141-7.332,395.938,82.992,513.008,268.777c63.945,101.418,106.641,198.059,195.898,281.609
	c7.93,7.422,12.226,11.269,12.578,22.535c-2.93,4.238-4.258,7.285-8.984,9.606c-22.618,11.082-70.938-10.981-94.023-18.527
	c11.523,18.707,9.375,67.293,13.32,91.738c16.055,99.469,77.383,207.824,159.883,266.738
	c63.945,45.668,139.453,62.938,216.758,47.949c26.25-5.09,51.484-14.457,77.969-18.715l3.945,3.051
	c1.797,3.406,3.32,6.316,3.438,10.258c0.938,28.985-40.234,76.258-60.313,97.395c-79.336,83.418-187.695,107.949-298.398,111.121
	c26.484,21.793,46.914,52.832,74.063,75.321c27.852,23.054,59.531,41.492,88.398,63.234
	c63.438,47.742,113.32,116.184,143.242,189.395c43.203,105.602,60.781,236.738,14.57,344.305
	c-15.625,36.367-44.531,72.547-82.07,87.336c13.164-19.121,14.063-44.34,11.914-66.801c-8.516-88.141-71.992-183.711-151.563-222.75
	c-48.242-23.688-101.172-29.504-153.203-40.262c-42.617-8.824-83.125-22.977-125.234-33.266
	c-23.906-5.848-48.555-8.719-72.617-14.011c-14.141-3.209-28.112-7.022-41.914-11.442c-13.828-4.419-27.422-9.427-40.781-15.023
	c-13.385-5.599-26.498-11.766-39.336-18.5c-12.839-6.737-25.365-14.016-37.578-21.836
	c-72.109-45.477-133.281-104.367-178.516-176.859c-12.695-20.359-27.109-58.473-42.383-73.898
	c-5.859-5.902-13.359-10.57-19.766-15.895c-20.352-16.891-37.539-49.23-50.039-72.801
	c-96.016-180.902-54.609-366.996-72.031-559.746c-6.367-70.574-22.5-157.898-80.078-205.078
	c-37.773-30.965-77.5-31.942-123.672-27.199c2.813,2.148,5.391,4.52,7.578,7.348c15.859,20.672,27.539,53.539,36.367,78.082
	c49.297,137.547,58.945,302.402,17.656,443.16c-21.68,73.808-63.867,143.414-73.594,220.476
	c-15.43,122.363,70.586,244.188,155.703,323.613c33.086,30.863,71.289,56.07,98.945,92.418
	c62.617,82.293,35.43,174.527,41.367,268.535c5.313,83.602,17.891,167.492,33.086,249.832
	c13.906,75.41,63.516,243.914,53.711,308.895c-6.992,46.09-36.406,81.5-73.203,108.344c0.703,1.195,1.914,3.207,2.422,4.609
	c2.617,7,8.828,54.574,4.922,59.434c-4.102,5.152-10.352,3.305-10.625,11.813c-0.156,5.703,3.555,15.074,4.961,20.777
	c7.813,31.492,21.719,76.234,4.063,106.832c-14.102,24.453-43.398,37.488-69.453,44.508
	c-68.945,18.57-213.672,16.969-274.922-19.852c-10.742-6.461-20.898-15.758-23.672-28.473
	c-12.657-58.473,42.734-127.699,72.734-174.41c1.367-4.703-3.125-15.691-4.18-21.355c-5.977-32.305,41.797-56.375,58.867-81.969
	c68.281-102.27,25.469-421.031,0.508-543.863c-8.008-39.418-18.516-78.715-37.969-114.199
	c-62.188-113.383-205.313-168.184-310.156-233.043c-60.434-37.375-113.285-84.719-172.332-123.953
	c-8.438,33.082-12.242,69.145-7.449,102.996c11.035,77.934,50.988,127.984,23.148,212.449c-13.184,40-38.063,73.969-59.605,109.684
	c-17.555,28.946-33.861,58.578-48.918,88.898c-37.867,79.031-74.168,161.16-96.789,245.977
	c-15.246,57.152-14.566,118.551-41.109,172.555c-24.184,49.195-88.289,39.023-101.41,68.711
	c-20.039,45.352,4.184,112.547-25.34,163.074c-15.989,27.359-44.867,40.637-74.426,48.305
	c-69.301,17.98-186.891,20.297-249.726-17.262c-15.34-9.172-27.688-22.438-31.364-40.48
	c-13.125-64.422,54.137-118.879,77.66-170.633c9.434-20.758-0.98-38.535,17.57-59.055c51.07-56.488,102.5-60.141,152.145-138.594
	c51.035-80.652,89.629-173.582,122.734-262.973c24.879-67.18,54.859-139.121,47.559-212.137
	c-9.289-92.847-105.449-188.39-150.574-271.675c-11.789-21.685-22.822-43.749-33.098-66.192
	c-10.276-22.443-19.771-45.211-28.484-68.305c-8.714-23.096-16.625-46.462-23.734-70.098c-7.109-23.638-13.4-47.492-18.871-71.563
	c-105.738,30.582-209.719,68.465-316.512,95.059c-238.184,59.313-488.996,57.223-729.898,17.492
	c-23.668,66.883-29.336,141.387-38.121,211.469c-9.201,76.391-19.294,152.664-30.281,228.82
	c44.672,86.934,40.5,137.645,11.058,227.941c-8.777,26.922-16.121,52.324-15.961,80.98c0.422,76.902,4.039,152.785,24.391,227.379
	c10.395,38.09,25.055,74.918,35.934,112.867c41.316,144.152-57.73,118.438-78.863,197.36
	c-13.441,50.203,9.891,108.308-17.023,155.496c-15.441,27.078-46.598,39.656-75.363,47.039
	c-62.445,16.094-162.305,17.227-218.434-16.133c-20.688-12.313-36.738-28.777-42.551-52.711
	c-15.922-65.535,26.691-116.547,58.508-167.672c-0.844-6.168-2.645-14.355-0.137-20.313
	c20.101-47.754,84.918-105.484,108.789-161.266c32.008-74.785,32.129-257.594,6.133-335.613
	c-15.352-46.07-43.746-82.367-50.504-132.402c-6.824-50.551,6.125-96.895,9.609-146.7c6.953-99.344-37.477-204.07-73.813-294.402
	c-83.363,42.527-165.125,88.43-248.719,130.289c7.793,39.192,0.551,68.219-17.469,103.399
	c25.043,81.512,58.711,164.289,117.418,227.953c22.43,24.328,53.461,45.828,69.305,75.336c19.84,36.958,14.605,77.969,3.496,116.617
	c17.805,13.383,32.805,29.691,49.91,43.801c18.231,15.035,39.145,28.074,55.766,44.898c5.391,5.453,9.355,12.59,13.023,19.293
	c24.828,45.371,18.719,100.348,4.691,148.18c-15.578,53.125-56.156,139.152-106.012,165.434
	c-16.43,8.664-34.692,10.184-52.395,4.598c-71.93-22.695-136.285-136.758-155.355-207.652c-7.734-28.758-6.934-59.613-16.816-87.785
	c-10.207-29.086-38.535-47.203-48.375-76.52c-17.469-52.051-25.844-108.633-38.598-162.129
	c-13.484-56.574-33.465-111.93-55.347-165.766c-30.613-75.305-73.668-105.5-106.652-168.855
	c-16.281-31.274-23.602-65.344-20.18-100.508c10.992-112.922,124.348-164.648,198.84-233.824
	c64.004-59.438,117.469-127.621,143.645-211.777c-69.18-84.457-102.461-179.852-108.012-288.613
	c-1.652-32.367,1.313-65.746-2.391-97.906c-3.875-33.668-20.164-65.574-24.293-100.125
	c-26.934-225.273-16.109-408.078-143.285-612.344c-45.164,16.789-89.144,20.156-135.75,29.578
	c-80.234,16.223-176.563,66.109-236.152,121.813c-0.531,21.457-4.707,37.168-16.379,55.328
	c-28.73,44.707-81.574,73.766-132.559,84.586c-52.504,11.141-89.715,3.289-133.73-25.664c-44.191,7.891-86.344,2.035-126.789-17.703
	c-36.012-17.574-72.629-45.859-75.555-88.953c-1.348-19.887,0.738-40.672-2.492-60.316c-2.379-14.484-9.199-27.488-13.723-41.324
	c-8.211-25.105,0.457-44.652,12.301-66.727c31.754-59.188,82.203-107.559,122.793-160.555
	c30.711-40.323,59.535-81.953,86.473-124.891c26.938-42.935,51.878-87.003,74.82-132.203c-41.969,0.625-88.777-7.723-122.465-34.641
	c-29.793-23.813-13.156-24.668-14.598-42.488c-0.133-1.668-74.211-49.336-79.762-112.098c-1.449-16.391-4.34-37.035,6.793-50.082
	c20.906-3.043,31.313,17.055,47.058,28.336c15.371,11.016,33.363,17.328,52.387,13.578c51.184-10.09,68.066-65.965,93.082-104.301
	c28.543-43.734,55.309-51.344,104.332-61.868c15.047-18.476,24.07-39.893,35.977-60.311
	c34.094-58.458,96.746-109.49,162.488-125.772c58.172-14.407,117.145-1.137,167.902,29.287
	C1207.418,174.243,1233.902,110.067,1277.805,81.633z"/>
<path style="fill:#FFFFFF;" d="M772.117,593.699c6.512,5.691,13.012,11.617,19.941,16.797c43.844,32.77,108.156,31.5,159.656,24.332
	c-52.309,29.828-99.195,53.148-158.859,64.879c-66.348,11.656-112.344,7.82-173.555-21.836c12.715-1.144,25.758-2.168,38.234-4.965
	C709.082,661.344,744.008,638.141,772.117,593.699z"/>
<path style="fill:#FFFFFF;" d="M3161.375,3571.902c68.379,52.652,158.336,69.727,243.363,59.414
	c-0.543,30.902-4.129,60.398-17.348,88.586c-16.074,12.145-33.121,18.27-52.316,23.734c-6.188,1.617-12.428,2.998-18.722,4.141
	c-52.922,9.429-165.149,13.199-209.301-20.293c-8.028-6.09-12.813-13.438-13.719-23.547
	C3089.539,3661.609,3134.938,3603.438,3161.375,3571.902z"/>
<path style="fill:#FFFFFF;" d="M1772.965,3341.969c3.895,1.727,7.582,3.617,11.102,6.043c18.445,12.742,28.805,35.14,33.047,56.461
	c13.234,66.508-18.402,142.02-54.926,196.914c-12.605,18.945-31.98,45.094-56.203,48.93c-22.02,3.488-39.887-12.965-55.852-25.52
	c-38.688-36.727-64.023-79.043-79.605-129.899C1650.145,3460.75,1726.297,3418.094,1772.965,3341.969z"/>
<path style="fill:#FFFFFF;" d="M4264.297,3696.691c11.563,0.531,30.508,11.09,41.914,15.313
	c59.18,21.86,123.047,38.059,186.25,24.051c9.727,17.336,16.914,42.109,19.688,61.891c2.383,17.254,1.406,37.023-9.922,51.145
	c-16.328,20.383-44.727,24.535-68.945,28.145c-1.055,0.433-2.07,0.969-3.125,1.301c-46.328,14.351-182.461,0.601-224.844-21.18
	c-4.57-2.348-9.727-5.789-11.133-10.922C4184.57,3811.32,4244.57,3726.824,4264.297,3696.691z"/>
<path style="fill:#FFFFFF;" d="M1818.754,3708.106c21.828,5.769,43.828,17.125,65.645,24.183
	c55.508,17.965,111.707,23.32,169.75,24.828c2.375,31.063,9.188,72.383-5.652,101.129c-11.34,21.961-32.086,29.988-54,37.629
	c-12.438,3.324-25.348,5.75-38.101,7.516c-52.168,7.234-128.449,9.656-171.567-23.949c-13.484-10.504-22.176-24.844-23.926-42.086
	C1756.109,3790.039,1791.254,3743.195,1818.754,3708.106z"/>
<path style="fill:#FFFFFF;" d="M558.105,1056.965c51.754,42.055,113.18,76.977,173.605,104.867
	c31.645,14.602,65.07,27.113,95.633,43.809c35.469,19.375,61.883,67.848,72.461,106.262c3.691,13.402,3.168,23.086-3.981,35.246
	c-22.394,38.09-70.66,67.336-112.363,78.305c-38.039,10.004-71.445,8.035-105.664-11.605c27.773-14.914,51.043-34.109,74.543-54.871
	c17.359-16.773,61.926-60.355,62.297-84.316c0.074-4.851-1.781-5.281-4.836-8.668c-9.738-0.66-13.328,0.414-21.395,6.766
	c-11.285,8.879-18.754,21.727-27.418,32.953c-22.109,28.668-46.523,56.535-77.566,75.781
	c-33.82,20.969-69.805,29.746-108.844,19.953c-39.602-9.93-75.473-34.055-96.676-69.109c-3.953-50.523,2.238-79.859-19.461-129.031
	C478.363,1147.055,519.195,1101.098,558.105,1056.965z"/>
<path d="M580,1163.73c18.391-1.637,39.785-1.086,55.598,10.211c5.727,4.094,9.055,10.855,9.676,17.777
	c1.398,15.637-7.773,33.738-17.527,45.602c-12.906,15.699-30.594,27.633-51.113,29.367c-2.969-1.063-6.887-1.512-8.66-4.32
	c-4.43-7.027-3.676-18.414-2.141-26.25c0.129-0.656,0.281-1.313,0.418-1.969c15.332-13.496,32.402-24.395,48.055-37.547
	c-1.215-2.262-1.594-5.246-3.645-6.789c-6.543-4.934-57.562,18.98-73.414,11.953c0.117-2.524-0.035-3.367,1.176-5.973
	C545.832,1179.84,564.977,1170.5,580,1163.73z"/>
<path style="fill:#FFFFFF;" d="M1374.488,292.907c53.817,7.322,109.934,21.012,158.106,46.672
	c51.906,27.646,99.434,70.628,134.492,117.675c85.656,114.945,64.324,240.867,26.41,368.031
	c-12.438,41.719-27.422,82.801-34.379,125.926c-8.461,52.453,1.992,100.758,6.125,152.691c4.457,56.039,0.344,95.934,17.391,151.996
	c-64.949-83.977-96.145-195.074-94.406-300.332c13.398-122.172,86.223-252.84,35.773-375.641
	c-15.898-38.699-41.426-63.324-79.633-79.246c26.566,25.004,49.035,49.758,63.18,83.953c33.793,81.695,4.594,186.023-27.371,264.172
	c-19.887-39.137-25.246-85.109-39.633-126.426c-16.219-46.582-41.184-89.469-53.895-137.473
	c-13.266-50.094-18.094-102.273-36.77-151.016C1436.109,397.941,1375.242,312.335,1374.488,292.907z"/>
<path style="fill:#FFFFFF;" d="M1050.527,211.96c42.57-3.755,78.953,9.832,116.582,27.666
	c-24.871,49.223-47.067,98.51-58.422,152.706c-6.164,29.402-0.059,71.566-12.234,95.891c-11.285,22.535-24.656,42.602-41.906,61.07
	c-2.471,2.701-5.009,5.336-7.613,7.906c-2.604,2.57-5.272,5.074-8.004,7.512c-2.732,2.435-5.522,4.8-8.371,7.094
	c-2.852,2.297-5.759,4.518-8.723,6.664c-2.964,2.148-5.979,4.22-9.047,6.215c-3.068,1.995-6.185,3.91-9.352,5.746
	c-3.164,1.836-6.374,3.591-9.629,5.266c-3.253,1.674-6.547,3.266-9.883,4.773c-3.333,1.508-6.705,2.93-10.113,4.266
	c-3.406,1.339-6.844,2.589-10.313,3.75c-3.469,1.164-6.966,2.238-10.492,3.223c-3.523,0.987-7.07,1.883-10.641,2.688
	c-3.568,0.805-7.155,1.52-10.762,2.145c-3.607,0.625-7.227,1.157-10.859,1.598c-3.633,0.443-7.273,0.792-10.922,1.047
	c-3.651,0.258-7.306,0.422-10.965,0.492c-51.266,1.305-98.926-12.48-136.313-48.273c-19.688,38.242-41.785,62.547-81.066,80.703
	c-18.473,4.016-40.883-2.063-57.883-9.43c-44.578-19.332-69.328-51.27-86.777-95.063c9.629,4.938,19.355,9.926,29.629,13.383
	c136.043,45.816,132.375-110.73,216.113-151.438l26.008,13.789c41.887-28.168,59.106-84.995,89.207-124.614
	C936.637,247.589,987.305,220.287,1050.527,211.96z"/>
<path d="M1093.895,337.66l2.566,0.602c-5.699,10.246-34.844,22.542-45.508,29.909c-33.605,23.216-59.508,55.649-96.586,74.305
	c-36.828,18.527-74.559,19.5-113.27,6.527c-3.859-2.949-6.543-3.75-7.754-8.637C985.563,462.129,979.125,361.643,1093.895,337.66z"
	/>
<path d="M1093,465.906c1.953,2.098,1.242,3.949,1.312,6.73c-13.602,23.473-41.781,42.5-64.555,56.199
	c-52.82,31.781-109.914,44.871-170.656,30.035c-4.859-2.324-7.324-3.141-9.93-8.129c16.574-6.477,43.551-2.207,61.633-2.695
	C980.41,546.176,1040.223,507.223,1093,465.906z"/>
<path style="fill:#FFFFFF;" d="M1705.84,466.969c0.551,0.094,1.102,0.176,1.648,0.281c65.23,12.48,150.734,77.293,186.219,129.773
	c123.988,183.371,43.93,306.809-28.988,482.512c-11.26,27.349-21.169,55.18-29.727,83.492
	c-8.557,28.313-15.721,56.974-21.492,85.984c-5.297,27.047-6.09,54.336-6.336,81.797c-15.723-21.449-30.711-43.023-43.758-66.23
	c-50.086-89.094-94.176-211.344-76.527-314.473c8.766-51.231,28.758-100.645,42.734-150.656
	C1763.73,677.371,1770.328,581.109,1705.84,466.969z"/>
<path style="fill:#FFFFFF;" d="M1608.066,2290.645c36.551,33.605,76.074,59.637,119.484,83.492
	c11.586,68.316,30.824,130.477,53.567,195.723c-44.488,22.813-89.137,45.125-133.188,68.789
	c-40.191,21.59-79.703,44.758-121.297,63.57c-9.219-2.758-18.195-6.703-27.766-4.008c-3,10.117,9.977,29.121,12.863,40.82
	c8.438,34.176-4.992,61.246-21.945,89.867c27.316,79.316,56.68,162.102,110.547,227.813c27.758,33.859,72.004,66.098,89.766,106.031
	c14.281,32.105,0.996,62.191-10.996,92.402c2.566,20.16,38.789,36.582,52.727,50.828c6.328,6.469,11.434,14.09,10.82,23.5
	c-1.508,23.153-52.039,61.719-69.969,76.281c-36.902,28.695-75.816,46.582-118.726,64.203
	c-5.996-40.883-5.969-91.656-30.156-126.867c-12.043-17.535-29.5-32.383-36.074-53.141
	c-17.133-54.086-26.602-110.875-39.656-166.094c-16.043-67.867-40.524-137.715-71.59-200.168
	c-24.316-48.879-69.734-84.016-92.359-134.031c-63.902-141.262,101.852-219.484,185.16-299.387
	C1529.172,2432.82,1578.09,2368.332,1608.066,2290.645z"/>
<path style="fill:#FFFFFF;" d="M1374.543,356.789c64.918,70.996,66.684,178.555,94.176,264.969
	c11.961,37.602,32.355,72.461,43.461,110.336c15.629,53.305,23.785,110.242,56.023,156.707c-2.141,11.951-3.836,23.964-5.086,36.039
	c-1.247,12.076-2.046,24.181-2.394,36.316c-0.349,12.135-0.247,24.267,0.305,36.395c0.552,12.128,1.553,24.217,3.004,36.27
	c14.707,113.703,60.711,222.707,153.117,294.035c-4.824-51.207-17.004-102.324-25.949-152.996
	c43.91,96.969,59.242,146.328,135.309,225.711c7,62.438,17.957,111.801,61.953,159.273
	c-68.891,65.234-145.024,113.914-222.996,166.648c-69.086,50.867-116.348,93.125-148.035,174.707
	c-43.219-91.969-44.113-189.024-52.195-288.23c-13.324-163.629-48.086-322.094-134.809-463.199
	c5.266-3.211,10.426-6.586,15.481-10.125c5.052-3.536,9.988-7.229,14.809-11.078c4.82-3.849,9.514-7.846,14.082-11.992
	c4.568-4.146,9.001-8.431,13.301-12.855c4.297-4.424,8.451-8.98,12.461-13.668c4.01-4.685,7.87-9.494,11.578-14.426
	c3.708-4.93,7.256-9.971,10.645-15.125c3.391-5.156,6.615-10.413,9.672-15.77c51.32-88.957,58.871-197.258,32.801-295.379
	c-26.629-100.234-77.969-149.254-164.395-199.301C1354.23,496.168,1366.758,429,1374.543,356.789z"/>
<path style="fill:#FFFFFF;" d="M3317.992,2307.262c60.285-4.188,114.543-1.188,173.156,14.34
	c67.781,89.504,163.797,156.328,255.578,218.746c-9.781,42.836-16.645,88.668-9.723,132.473
	c9.988,63.172,42.164,111.156,30.445,178.828c-9.715,56.125-63.492,123.36-91.297,174.332
	c-25.504,46.758-49.566,95.48-70.015,144.645c-23.105,55.547-44.801,116.102-57.16,175.023
	c-8.184,39.02-9.387,79.227-23.559,116.859c-21.148,56.16-42.539,38.488-85.773,59.961c-33.492,16.637-24.73,45.836-34.926,75.277
	c-7.613,7.242-12.195,5.895-22.34,6.438c-61.688,1.582-133.648-7.871-187.109-41.102c-10.121-6.289-20.613-15.016-22.871-27.359
	c-6.59-36.062,95.114-94.305,122.742-120.816c17.191-16.5,30.074-37.262,42.785-57.262c50.238-79.063,85.18-166.188,119.398-253.055
	c49.207-124.91,86.551-232.739,7.18-356.984c-27.172-42.531-60.328-81.039-87.355-123.942
	c-57.199-90.797-98.434-202.086-121.813-306.52C3276.154,2313.42,3297.039,2310.126,3317.992,2307.262z"/>
<path style="fill:#FFFFFF;" d="M1976.383,696.836c39.699,15.652,79.48,57.586,101.39,93.742
	c120.02,198.059-24.293,323.41-6.988,511.047c2.578,27.941,8.383,56.262,21.317,81.383c17.867,34.699,42.324,50.383,78.602,61.66
	c-13.395-11.945-29.527-21.023-42.336-33.59c-13.73-13.473-22.461-35.055-27.895-53.152c-31.809-105.98,21.855-204.98,43.887-305.84
	c9.406-43.07,11.203-86.168,10.016-130.102c11.833,6.31,23.259,13.288,34.277,20.934c86.566,60.473,104.887,171.918,105.012,270.078
	c0.047,36.992-3.727,77.859,3.117,114.25c1.742,9.266,4.664,16.773,12.844,21.961c4.238,2.688,4.57,2.02,9.441,0.926
	c3.324-5.258,4.039-9.563,4.332-15.773c0.852-18.125-3.48-36.684-3.645-54.93c-0.461-50.922,0.824-101.348-1.961-152.277
	c67.125,40.055,116.105,110.527,140.285,184.285c15.25,46.531,26.5,94.074,50.996,136.98c22.797,39.926,53.543,69.863,87.637,99.805
	c-98.207-26.754-175.219-83.766-174.77-193.125c0.047-11.75,4.242-39.297-1.164-47.699l-1.246,0.477
	c-2.41,4.367-4.738,8.844-6.422,13.551c-5.301,14.844-5.723,32.988-5.773,48.563c-0.258,78.18,42.453,102.879,70.266,166.102
	c28.652,65.125,16.703,131.109-8.578,194.938c-12.047-48.305-31.707-105.055-63.945-143.121
	c-20.355-24.035-43.855-45.492-63.309-70.305c-16.902-21.555-27.336-47.348-43.477-69.566c3.281,31.332,10.617,54.199,27.199,81.207
	c14.809,20.188,32.59,38.234,48.574,57.504c31.394,37.859,46.668,78.168,62.363,123.969c-27.102-34.898-58.301-55.164-90.145-84.523
	c-21.234-19.578-39.023-42.496-63.844-57.949c-10.977-6.836-24.398-9.324-36.84-12.207
	c76.707,63.688,93.601,103.461,116.652,198.566c-33.176-39.586-60.012-65.793-107.352-86.906
	c-30.801-60.09-60.32-111.008-116.738-151.406c44.063,57.086,83.805,117.438,101.344,188.387
	c13.926,56.336,0.984,92.746-28.07,140.406c-24.574-113.949-55.293-175.113-145.199-251.219
	c-27.602-23.363-56.484-45.758-78.852-74.457c-67.883-87.09-65.059-195.973-51.836-299.316
	c-15.578,30.434-23.734,62.445-26.156,96.555c-6.512,91.641,21.414,184.609,86.891,250.844
	c30.598,30.949,65.305,57.441,93.855,90.465c-32.527-4.891-57.738-14.543-85.496-32.57
	c-50.832-33.012-108.274-87.461-131.899-143.555c-11.961-28.398-16.926-58.547-20.941-88.891
	c-23.164-175.125,24.336-259.008,90.727-416.09c18.535-43.852,37.813-89.781,45.406-137.074
	C1995.797,790.813,1986.441,744.535,1976.383,696.836z"/>
<path style="fill:#FFFFFF;" d="M1284.766,118.91c4.27,1.533,3.102,0.609,6.414,3.871c32.43,31.956,53.695,147.725,54.543,194.381
	c1.742,95.702-25.527,179.308-98.629,244.593c-24.984,22.313-53.934,40.977-76.965,65.309l-2.496,2.676
	c47.902-13.277,87.195-41.047,125.516-71.629c36.871,21.758,70.906,44.781,98.754,77.883
	c56.922,67.664,71.98,156.481,64.207,242.484c-7.605,84.176-42.226,169.207-108.699,223.742
	c-46.676,38.293-111.844,60.281-172.273,54.234c-37.898-3.793-74.211-20.238-98.359-50.32
	c-17.863-22.25-29.551-50.824-26.281-79.711c6.434-56.852,67.668-108.656,114.199-136.031c23.801-14,50.203-24.371,71.715-41.875
	c-3.969,0.839-7.918,1.758-11.848,2.758c-3.932,1-7.841,2.081-11.727,3.242c-3.885,1.161-7.746,2.402-11.582,3.723
	c-3.836,1.32-7.643,2.719-11.422,4.195c-3.776,1.477-7.521,3.03-11.234,4.66c-3.716,1.633-7.396,3.34-11.039,5.121
	c-3.643,1.784-7.249,3.641-10.816,5.57c-3.568,1.93-7.094,3.932-10.578,6.008c-3.484,2.076-6.925,4.223-10.32,6.441
	c-3.398,2.216-6.749,4.503-10.051,6.859c-3.302,2.354-6.555,4.776-9.758,7.266c-3.203,2.487-6.354,5.04-9.453,7.66
	c-3.099,2.62-6.142,5.301-9.129,8.043c-2.987,2.745-5.917,5.549-8.789,8.414c-2.872,2.865-5.685,5.786-8.438,8.766
	c-2.752,2.979-5.443,6.014-8.07,9.106c-25.445,29.891-43.199,66.176-39.535,106.309c3.531,38.641,26.895,65.301,55.652,88.93
	c17.656,10.777,35.105,18.684,54.297,26.148c-81.879,31.18-155.18,65.992-224.785,119.758
	c-14.949-27.855-29.922-60.406-54.109-81.441c-24.324-21.156-132.231-63.949-169.746-82.5
	c-44.801-22.152-86.449-47.172-128.121-74.656c74.945-98.125,146.227-198.18,194.68-312.25
	c39.023-6.074,81.711-12.82,118.258-28.223c23.531-9.922,45.633-23.313,68.816-34.019c43.523-20.098,71.262,1.66,98.734,35.098
	c3.41,4.152,8.828,13.461,13.68,15.254c2.621-3.617,4.629-6.648,5.32-11.156c1.367-8.898-2.766-16.727-7.797-23.746
	c-19.883-27.742-45.207-41.215-78.043-46.891c58.543-35.539,102.082-71.5,138.402-130.32c12.668,15.019,37.211,43.738,57.004,48.477
	c4.32,1.035,4.48-0.117,8.09-2.184c-2.023-9.652-10.062-18.426-15.41-26.59c-17.285-26.391-28.152-54.422-29.883-86.113
	c-4.336-79.327,36.949-150.632,74.238-217.216C1233.621,190.225,1254.754,152.046,1284.766,118.91z"/>
<path d="M1261.539,215.385c1.461,0.603,2.922,1.205,4.355,1.877c16.442,7.732,26.637,24.564,32.52,41.163
	c23.371,65.948,17.758,141.567-34.519,191.91c-17.68,17.023-44.559,35.551-54.883,58.191c-0.313,0.684-0.594,1.383-0.887,2.074
	c-1.668,6.543-3.637,12.773-6.004,19.098l-2.359-2.441l-2.137,0.094l1.953-1.625c-1.063-10.324,0.965-21.988,1.758-32.375
	c20.641-35.012,51.207-59.059,67.676-98.207C1293.664,336.564,1284.844,272.799,1261.539,215.385z"/>
<path d="M937.367,697.68c27.434,1.164,51.527,9.039,73.328,26.02c30.242,23.551,62.031,66.785,65.969,106
	c2.598,25.891-8.938,50.684-25.5,69.984c-14.648,17.082-34.543,30.566-57.609,31.664c-18.301,0.871-35.578-6.477-48.691-19.016
	c-23.559-22.535-31.109-57.613-32.223-88.934c1.68-17.852,2.172-38.383,16.746-51.219c8.273-7.285,20.785-9.309,31.453-8.191
	c48.695,5.102,67.008,65.883,94.535,97.57c0.527,0.606,1.07,1.191,1.605,1.785c-5.035-24.125-11.633-46.633-22.852-68.692
	c-19.523-38.398-46.203-62.078-87.066-75.191c-12.59,4.453-23.129,11.5-36.984,10.836l0.723-0.73l-3.867-9.332
	C915.168,708.996,924.031,701.785,937.367,697.68z"/>
<path style="fill:#FFFFFF;" d="M943.367,799.387c7.34,0.637,13.394,1.563,19.551,5.918c4.918,3.48,7.933,8.09,8.672,14.121
	c1.555,12.68-5.688,21.113-13.129,30.215c-0.566,0.074-1.129,0.184-1.695,0.227c-7.445,0.582-13.332-0.008-19.078-4.867
	c-5.078-4.293-6.977-10.41-7.082-16.906C930.394,815.231,934.664,808.441,943.367,799.387z"/>
<path style="fill:#FFFFFF;" d="M4449.219,1226.359c139.102-8.598,276.797,19.266,387.461,107.488
	c36.289,28.918,66.563,63.281,94.492,100.188c51.719,68.305,85.625,146.773,134.648,216.449
	c13.594,19.336,63.125,75.024,65.039,92.027c-10.703-10.808-28.477-19.66-41.055-28.82c-26.797-19.237-51.823-40.542-75.078-63.914
	c-32.539-32.543-62.539-69.98-90.625-106.477c-15.508-20.211-30.938-44.324-49.258-62.027c-2.617-2.563-6.836-3.305-10.234-4.27
	c-0.625,34.668,103.164,162.465,131.055,190.898c15.742,16.016,61.484,51.848,71.094,67.48c0.586,0.938,1.094,1.898,1.68,2.848
	c8.516,23.555,4.258,59.926,6.445,85.711c4.454,52.402,22.305,105.863,44.375,153.41c44.883,96.586,116.094,171.817,217.656,208.313
	c53.203,19.125,132.734,26.676,185.352,1.679c-0.313,1.469-0.625,2.938-1.055,4.387c-2.188,7.754-8.359,19.133-16.094,22.551
	c-11.914,5.242-26.211,6.457-38.555,11.098c-20.938,7.863-40.117,17.746-61.992,23.356c-78.828,20.207-159.336-3.305-227.07-44.965
	c-25-15.379-45.781-37.054-74.18-46.183l-3.594-1.121c31.875,21.137,55.195,54.395,94.375,78.625
	c64.961,40.164,137.93,57.383,213.204,39.086c23.086-5.621,59.805-16.395,73.125-37.969c-3.32,14.898-15.43,24.246-27.031,33.09
	c-87.813,66.82-205.703,79.77-311.758,65.574c-238.008-31.852-465.234-200.277-504.766-447.746
	c-3.438-21.477-6.211-44.43-5.547-66.172c0.547-18.359,4.141-38.23,2.461-56.433c-0.547-6.086-1.367-10.063-5.078-14.926
	c-9.414,8.859-11.758,32.832-13.242,45.551c-14.024,120.598,36.289,246.773,110.664,340.269
	c114.609,144.113,270.82,212.352,450.234,233.164c17.891,11.961,44.453,59.949,65.352,78.844
	c49.57,44.875,110.313,74.77,157.891,122.859c81.602,82.531,131.914,212.215,130.391,328.09
	c-0.43,30.641-9.961,112.523-31.523,133.364c2.539-5.793,3.32-11.617,3.086-17.922c-3.828-98.551-52.969-200.309-125.391-266.789
	c-16.563-15.207-46.406-42.449-70.508-41.394l-3.086,3.41c9.57,14.234,28.945,25.691,42.461,36.551
	c26.29,21.145,97.539,99.231,99.141,132.34c0.039,1.266,0,2.531,0,3.793c2.5,2.219,4.336,4.563,5.977,7.426
	c14.922,25.555,30.781,76.711,23.672,105.133c0.547-5.824,0.586-10.977-1.367-16.57c-8.555-24.301-22.852-47.004-36.836-68.477
	c-71.992-110.516-167.305-115.156-282.344-140.559c-64.727-14.293-128.632-32.57-187.852-63.024
	c-136.758-70.363-210.625-201.636-249.219-344.926c-7.148-26.617-3.75-55.32-12.148-81.688l-3.438-1.148
	c-1.68,1.93-2.969,3.441-3.789,5.906c-5.586,17.137,0.156,45.746,2.461,63.789c15.156,119.984,70.508,218.492,153.867,304.637
	c13.203,13.637,63.828,46.098,69.766,58.258c0.508,1.027,0.938,2.09,1.406,3.137c-18.32-11.89-41.797-19.832-61.797-29.246
	c-9.505-4.419-18.854-9.14-28.047-14.164c-9.192-5.023-18.216-10.34-27.07-15.949c-8.828-5.609-17.487-11.499-25.977-17.668
	c-8.463-6.169-16.719-12.605-24.766-19.309c-3.568-2.927-7.097-5.9-10.586-8.918s-6.94-6.082-10.352-9.191
	c-3.412-3.109-6.771-6.262-10.078-9.457c-3.333-3.195-6.627-6.435-9.883-9.719c-3.229-3.281-6.432-6.604-9.609-9.969
	c-3.151-3.365-6.263-6.771-9.336-10.219c-3.047-3.446-6.068-6.93-9.063-10.453c-2.969-3.526-5.898-7.09-8.789-10.691
	c-2.891-3.599-5.729-7.236-8.516-10.91c-2.787-3.677-5.521-7.388-8.203-11.133c-2.708-3.748-5.352-7.529-7.93-11.344
	c-2.604-3.815-5.156-7.663-7.656-11.543c-2.5-3.88-4.935-7.793-7.305-11.738c-2.396-3.945-4.74-7.92-7.031-11.926
	c-2.292-4.005-4.531-8.041-6.719-12.105c-2.188-4.065-4.323-8.158-6.406-12.277c-2.083-4.117-4.102-8.263-6.055-12.438
	c-1.979-4.172-3.894-8.368-5.742-12.59c-1.875-4.222-3.685-8.468-5.43-12.739c-1.745-4.268-3.438-8.559-5.078-12.871
	s-3.229-8.646-4.766-13c-1.511-4.354-2.982-8.728-4.414-13.121c-1.406-4.393-2.76-8.803-4.063-13.23
	c-1.302-4.43-2.539-8.874-3.711-13.332c-1.172-4.461-2.292-8.936-3.359-13.426c-1.068-4.49-2.083-8.992-3.047-13.508
	c-0.938-4.515-1.823-9.043-2.656-13.582c-0.833-4.539-1.602-9.087-2.304-13.645c-0.729-4.56-1.381-9.128-1.953-13.703
	c-0.6-4.576-1.133-9.159-1.602-13.75c-0.495-4.588-0.912-9.183-1.25-13.785c-0.364-4.599-0.664-9.203-0.898-13.813
	c-2.07-39.188,6.992-89.91,3.906-121.445l-3.438-0.656c-32.891,32.34-21.172,150.57-14.727,193.652
	c3.477,23.484,16.367,49.105,8.711,72.32c-0.313,0.902-0.665,1.789-0.977,2.684c0-0.523-0.039-1.047-0.078-1.57
	c-0.078-0.867-0.195-1.73-0.273-2.598c-2.383-26.133-30.156-57.082-39.883-82.91c-15.898-42.117-26.367-86.777-33.008-131.238
	c-21.133-141.215-0.391-284.367-22.031-425.254c-10-65.344-34.375-140.371-90-180.559c-45.781-33.078-96.602-34.039-150.156-25.512
	c-0.156-1.023-0.156-2.07-0.391-3.066c-5.977-22.871-60.313-74.887-81.172-84.797c44.023-19.504,82.891-38.555,130.117-50.469
	c125.898-31.777,245.625-28.563,359.023,39.465c88.711,53.238,159.531,137.914,190.508,237
	c9.727,30.973,13.516,63.652,21.445,95.133c0.859,3.497,1.771,6.983,2.734,10.457c0.938,3.474,1.927,6.935,2.969,10.383
	c1.042,3.451,2.123,6.887,3.242,10.309c1.12,3.422,2.292,6.829,3.516,10.223c1.198,3.396,2.448,6.775,3.75,10.137
	c1.276,3.365,2.604,6.711,3.984,10.039c1.38,3.331,2.787,6.643,4.219,9.937c1.458,3.297,2.956,6.574,4.492,9.832
	c1.537,3.258,3.112,6.497,4.727,9.719c1.615,3.219,3.269,6.417,4.961,9.594c1.692,3.18,3.437,6.337,5.234,9.473
	c1.771,3.135,3.581,6.249,5.43,9.34s3.737,6.159,5.664,9.203c1.901,3.044,3.854,6.065,5.859,9.063
	c2.005,2.995,4.05,5.965,6.133,8.91c2.057,2.945,4.167,5.866,6.328,8.762c2.135,2.893,4.31,5.759,6.523,8.598
	c2.213,2.841,4.466,5.654,6.758,8.438s4.609,5.539,6.953,8.266c2.343,2.727,4.726,5.424,7.148,8.094
	c2.422,2.667,4.883,5.305,7.383,7.914c2.474,2.607,4.987,5.182,7.539,7.727c2.552,2.547,5.13,5.061,7.734,7.543
	c2.604,2.482,5.248,4.931,7.93,7.348c2.656,2.417,5.352,4.799,8.086,7.148c2.734,2.349,5.495,4.664,8.281,6.945
	c2.787,2.284,5.6,4.531,8.438,6.742c2.838,2.214,5.703,4.391,8.594,6.531c2.917,2.141,5.847,4.246,8.789,6.316
	c2.943,2.068,5.912,4.1,8.906,6.097c2.995,1.995,6.016,3.953,9.063,5.875c3.047,1.919,6.12,3.802,9.219,5.648
	c-1.328-6.246-1.133-8.969-5.742-13.578c-79.375-78.836-148.594-155.949-176.406-267.906
	c-19.453-78.184-27.695-133.059-73.203-202.465c-64.609-98.598-158.203-170.668-274.883-194.344
	c-125.781-25.531-281.601,0.496-388.906,71.691c-0.195-0.551-0.313-1.129-0.547-1.645c-6.641-13.355-47.539-35.098-61.64-41.645
	c26.797-11.68,52.187-28.738,78.008-42.688C4237.813,1287.234,4334.297,1237.934,4449.219,1226.359z"/>
<path d="M5031.563,2383.84c3.984,0.773,6.484,2.52,9.844,4.699c91.211,221.668,301.992,144.863,413.32,320.242
	c6.016,9.516,13.242,18.859,10.703,30.324c-2.969-0.332-5.742-1.25-7.969-3.27c-8.516-7.68-15.703-19.273-23.398-28.117
	c-16.797-19.293-34.57-36.992-54.219-53.375c-44.688-37.281-100.82-48.461-153.75-69.039c-16.12-6.391-31.797-13.726-47.031-22.004
	c-15.234-8.281-29.909-17.448-44.023-27.5C5083.008,2498.496,5042.188,2448.293,5031.563,2383.84z"/>
<path style="fill:#FFFFFF;" d="M3550.36,1305.543c153.777-3.547,314.746,22.934,452.766,92.977
	c53.281,27.047,102.617,60.324,143.086,104.613c124.336,135.922,160.82,357.141,124.883,533.465
	c-25.781,126.395-106.602,232.609-73.242,367.336c22.93,92.586,90.117,181.617,157.773,246.762
	c45.586,43.859,98.672,72.105,119.141,136.293c18.398,57.648,2.852,110.418,4.961,168.313c1.563,43.367,8.555,87.629,14.063,130.684
	c9.531,74.64,21.992,147.019,37.773,220.597c13.594,63.609,47.305,165.668,44.063,227.266
	c-2.813,53.781-48.281,65.895-66.68,108.984c-8.125,19.078,2.031,41.871-7.383,59.992c-0.547,0.211-1.133,0.438-1.719,0.637
	c-77.813,26.762-173.984-13.586-243.086-48.32c17.383-7.652,33.555-24.223,45.781-38.414
	c79.414-92.18,61.953-251.219,52.539-364.031c-8.516-102.09-18.828-247.25-64.961-339.32
	c-66.484-132.688-221.133-187.492-339.258-262.516c-52.82-33.555-100.5-73.988-150.973-110.844
	c-104.082-75.992-202.652-130.324-281.766-237.691c-42.383-57.516-71.293-124.238-93.824-191.703
	c-37.816-113.234-57.039-270.742-153.41-350.973c-25.969-21.617-60.254-34.695-94.336-30.906c-8.309,0.926-16.938,3.152-22.367,9.84
	c3.855,6.453,50.734,7.273,63.457,13.289c92.879,43.926,121.352,142.523,148.445,233.203
	c16.535,55.328,31.32,112.012,51.121,166.258c17.316,47.445,43.672,90.387,69.727,133.391c-54-7.484-106.344-13.48-160.969-9.867
	c-90.355,5.973-170.609,37.254-255.805,65.004c-70.453,22.945-142.234,44.426-214.621,60.312
	c-221.773,48.676-445.797,41.387-668.875,7.273c14.844-51.398,55.977-111.035,78.063-165.5
	c9.938-24.418,16.098-50.258,21.309-76.035c4.613-22.797,17.016-86.734,3.824-106.633l-6.066,2.027
	c-8.653,18.746-10.141,44.137-14.082,64.449c-6.457,33.281-13.801,67.637-25.293,99.594
	c-22.621,62.91-65.613,116.148-87.992,179.625c-27.629,78.363-37.59,160.121-48.258,242.074l-30.426,240.094
	c39.516,67.906,42.41,121.153,17.871,195.61c-7.227,21.926-16.277,44.965-19.926,67.824c-7.578,47.469-1.015,107.316,3.125,155.301
	c3.836,44.422,10.426,89.531,24.137,132.074c12.961,40.227,32.125,80.602,38.156,122.547
	c10.461,72.762-32.719,72.016-67.723,120.027l-1.332,1.852c-10.156,13.949-15.105,31.008-20.762,47.16
	c-79.035,0.496-154.707-20.664-226.129-53.156c27.875-42.691,61.695-81.473,87.742-125.406
	c14.168-23.895,24.836-49.145,30.996-76.262c16.914-74.414,16.953-231.168-4.66-304.066
	c-12.551-42.332-40.301-78.125-48.539-122.203c-9.387-50.219,1.711-97.809,5.238-147.789c0.961-15.812,1.009-31.627,0.145-47.445
	c-0.865-15.818-2.638-31.533-5.32-47.145c-21.375-130.129-89.203-247.004-121.133-374.465
	c-27.637-110.301-19.336-166.309,38.976-263.891c-8.656,5.492-16.641,11.285-24.117,18.332
	c-43.598,41.102-57.914,92.336-59.418,150.227c-39.453-18.324-75.949-47.465-105.957-78.832
	c-87.855-91.84-116.855-214.727-113.91-338.539l22.168,17.184c27.684-142.379,159.567-202.598,267.574-276.75
	c37.191-25.535,71.16-53.625,101.922-86.629c1.982,2.565,4.04,5.066,6.176,7.504c56.613,64.441,134.117,109.23,220.363,115.156
	c43.883,63.043,53.113,135.996,66.898,209.34c13.25-10.668,26.395-22.336,37.215-35.488
	c41.566-50.531,45.074-104.676,39.121-166.879c25.496,17.313,46.531,35.75,63.992,61.352c12.551,18.406,24.363,58.558,40.883,69.824
	c5.211-1.434,7.422-1.125,10.063-6.289c15.832-30.941-10.266-120.516-20.828-153.563c50.523,33.527,70.355,83.156,96.492,134.98
	c3.62-3.898,7.133-7.891,10.539-11.977c47.336-57.207,54.938-143.055,48.16-213.703c20.895,10.074,48.305,39.566,70.488,40.723
	l3.16-4.41c-3.105-23.598-21.43-42.445-35.527-60.613c19.086,4.723,39.188,8.824,58.738,11.016
	c13.078,1.465,26.617,2.602,37.371-5.848c0.105-2.395,1.074-4.906,0.32-7.18c-0.633-1.918-81.574-66.555-97.652-89
	c-26.586-37.121-38.59-82.149-51.559-125.25c183.852,59.488,379.629,67.394,569.148,35.851
	c61.809-10.289,122.625-25.344,184.133-37.129c48.799-9.529,97.883-17.26,147.25-23.195
	C3451.177,1311.984,3500.693,1307.858,3550.36,1305.543z"/>
</svg>
