<?xml version="1.0" encoding="utf-8"?>
<!-- Generator: Adobe Illustrator 27.5.0, SVG Export Plug-In . SVG Version: 6.00 Build 0)  -->
<svg xmlns="http://www.w3.org/2000/svg" xmlns:xlink="http://www.w3.org/1999/xlink" viewBox="0 0 500 500" width="595" height="842" preserveAspectRatio="xMidYMid meet" data-scaled="true">
<g id="BACKGROUND">
	<rect x="-0.001" style="fill:#FFFFFF;" width="500" height="500"/>
</g>
<g id="OBJECTS">
	<g>
		<g>
			<path style="fill:#292236;" d="M194.199,130.489c-3.741,0-6.784-3.043-6.784-6.784c0-3.74,3.043-6.783,6.784-6.783
				c3.741,0,6.784,3.043,6.784,6.783C200.983,127.446,197.94,130.489,194.199,130.489z M194.199,117.922
				c-3.189,0-5.784,2.594-5.784,5.783c0,3.189,2.595,5.784,5.784,5.784c3.189,0,5.784-2.595,5.784-5.784
				C199.983,120.516,197.388,117.922,194.199,117.922z"/>
			<path style="fill:#292236;" d="M166.718,106.852c-3.479,0-6.309-2.831-6.309-6.31c0-3.479,2.831-6.31,6.309-6.31
				c3.479,0,6.31,2.831,6.31,6.31C173.027,104.021,170.197,106.852,166.718,106.852z M166.718,95.233
				c-2.928,0-5.309,2.382-5.309,5.31c0,2.928,2.382,5.31,5.309,5.31c2.928,0,5.31-2.382,5.31-5.31
				C172.027,97.615,169.646,95.233,166.718,95.233z"/>
			<path style="fill:#292236;" d="M190.66,86.1c-10.274,0-18.633-8.358-18.633-18.633c0-10.274,8.358-18.633,18.633-18.633
				s18.633,8.358,18.633,18.633C209.293,77.741,200.935,86.1,190.66,86.1z M190.66,49.834c-9.723,0-17.633,7.91-17.633,17.633
				S180.938,85.1,190.66,85.1c9.723,0,17.633-7.91,17.633-17.633S200.383,49.834,190.66,49.834z"/>
			<path style="fill:#292236;" d="M156.743,153.384c-2.572,0-4.665-2.092-4.665-4.665c0-2.572,2.093-4.665,4.665-4.665
				c2.572,0,4.665,2.093,4.665,4.665C161.408,151.292,159.316,153.384,156.743,153.384z M156.743,145.055
				c-2.021,0-3.665,1.644-3.665,3.665c0,2.021,1.644,3.665,3.665,3.665s3.665-1.644,3.665-3.665
				C160.408,146.699,158.764,145.055,156.743,145.055z"/>
			<path style="fill:#292236;" d="M127.315,100.347c-1.418,0-2.571-1.153-2.571-2.571c0-1.418,1.153-2.571,2.571-2.571
				c1.418,0,2.571,1.153,2.571,2.571C129.886,99.193,128.733,100.347,127.315,100.347z M127.315,96.205
				c-0.866,0-1.571,0.705-1.571,1.571c0,0.866,0.705,1.571,1.571,1.571s1.571-0.705,1.571-1.571
				C128.886,96.91,128.181,96.205,127.315,96.205z"/>
			<path style="fill:#292236;" d="M126.844,36.943c-4.388,0-7.958-3.57-7.958-7.958c0-4.388,3.57-7.958,7.958-7.958
				c4.388,0,7.958,3.57,7.958,7.958C134.801,33.374,131.232,36.943,126.844,36.943z M126.844,22.028
				c-3.836,0-6.958,3.122-6.958,6.958c0,3.837,3.122,6.958,6.958,6.958c3.836,0,6.958-3.121,6.958-6.958
				C133.801,25.149,130.68,22.028,126.844,22.028z"/>
			<path style="fill:#292236;" d="M436.628,222.886c-1.641,0-2.976-1.335-2.976-2.976c0-1.641,1.335-2.977,2.976-2.977
				c1.641,0,2.977,1.335,2.977,2.977C439.604,221.551,438.269,222.886,436.628,222.886z M436.628,217.934
				c-1.09,0-1.976,0.887-1.976,1.977c0,1.09,0.886,1.976,1.976,1.976c1.09,0,1.977-0.886,1.977-1.976
				C438.604,218.82,437.717,217.934,436.628,217.934z"/>
			<path style="fill:#292236;" d="M451.757,181.061c-5.737,0-10.404-4.667-10.404-10.404c0-5.736,4.667-10.403,10.404-10.403
				c5.736,0,10.403,4.667,10.403,10.403C462.16,176.394,457.493,181.061,451.757,181.061z M451.757,161.253
				c-5.185,0-9.404,4.218-9.404,9.403c0,5.185,4.219,9.404,9.404,9.404s9.403-4.219,9.403-9.404
				C461.16,165.472,456.942,161.253,451.757,161.253z"/>
			<path style="fill:#292236;" d="M475.309,323.943c-5.654,0-10.253-4.6-10.253-10.253c0-5.653,4.6-10.253,10.253-10.253
				c5.653,0,10.253,4.6,10.253,10.253C485.562,319.344,480.962,323.943,475.309,323.943z M475.309,304.438
				c-5.102,0-9.253,4.15-9.253,9.253c0,5.103,4.151,9.253,9.253,9.253c5.102,0,9.253-4.15,9.253-9.253
				C484.562,308.588,480.411,304.438,475.309,304.438z"/>
			<path style="fill:#292236;" d="M60.507,275.133c-4.126,0-7.483-3.357-7.483-7.483c0-4.126,3.357-7.483,7.483-7.483
				c4.126,0,7.483,3.357,7.483,7.483C67.989,271.775,64.632,275.133,60.507,275.133z M60.507,261.166
				c-3.575,0-6.483,2.908-6.483,6.483c0,3.575,2.908,6.483,6.483,6.483c3.575,0,6.483-2.908,6.483-6.483
				C66.989,264.074,64.081,261.166,60.507,261.166z"/>
			<path style="fill:#292236;" d="M30.887,231.609c-5.53,0-10.03-4.5-10.03-10.03c0-5.53,4.5-10.03,10.03-10.03
				c5.53,0,10.03,4.499,10.03,10.03C40.917,227.11,36.418,231.609,30.887,231.609z M30.887,212.55c-4.979,0-9.03,4.051-9.03,9.03
				c0,4.979,4.051,9.03,9.03,9.03s9.03-4.051,9.03-9.03C39.917,216.601,35.866,212.55,30.887,212.55z"/>
			<path style="fill:#292236;" d="M105.646,243.262c-1.456,0-2.641-1.185-2.641-2.641c0-1.456,1.185-2.64,2.641-2.64
				c1.456,0,2.641,1.184,2.641,2.64C108.287,242.077,107.102,243.262,105.646,243.262z M105.646,238.981
				c-0.905,0-1.641,0.736-1.641,1.64c0,0.905,0.736,1.641,1.641,1.641c0.905,0,1.641-0.736,1.641-1.641
				C107.287,239.717,106.551,238.981,105.646,238.981z"/>
			<path style="fill:#292236;" d="M198.192,61.3c-0.203,0-0.413-0.011-0.627-0.033c-2.898-0.299-6.463-2.715-7.481-5.068
				c-0.441-1.02-0.379-1.947,0.179-2.681l0,0c2.052-2.694,6.289-2.096,9.203,0.04c2.54,1.863,3.321,4.287,1.988,6.176
				C200.725,60.765,199.606,61.3,198.192,61.3z M194.219,52.707c-1.261,0-2.406,0.425-3.161,1.416l0,0
				c-0.332,0.436-0.351,1-0.058,1.679c0.881,2.035,4.121,4.208,6.667,4.471c1.35,0.142,2.349-0.236,2.969-1.115
				c1.202-1.703-0.198-3.646-1.762-4.793C197.484,53.345,195.764,52.707,194.219,52.707z M190.66,53.82h0.01H190.66z"/>
			<path style="fill:#292236;" d="M128.606,27.593c-0.007,0-0.014,0-0.02,0c-0.849-0.009-1.758-0.625-2.21-1.499
				c-0.375-0.726-0.354-1.484,0.057-2.079c0.719-1.041,2.061-1.018,2.956-0.465c0.887,0.546,1.519,1.725,0.811,3.022
				C129.841,27.231,129.275,27.593,128.606,27.593z M128.08,24.168c-0.318,0-0.622,0.123-0.825,0.416l0,0
				c-0.266,0.385-0.108,0.824,0.009,1.051c0.28,0.541,0.853,0.953,1.332,0.958c0.305-0.034,0.541-0.161,0.726-0.5
				c0.424-0.778,0.042-1.384-0.457-1.692C128.629,24.255,128.349,24.168,128.08,24.168z M126.844,24.299h0.01H126.844z"/>
			<path style="fill:#292236;" d="M34.473,220.77c-0.873,0-1.837-0.3-2.64-0.794c-1.392-0.857-1.925-2.038-1.392-3.085l0,0
				c0.511-1.002,1.354-1.554,2.376-1.554c0.001,0,0.002,0,0.004,0c1.538,0.002,3.076,1.226,3.675,2.408
				c0.408,0.805,0.397,1.569-0.029,2.153C36.021,220.508,35.287,220.77,34.473,220.77z M31.333,217.345L31.333,217.345
				c-0.424,0.832,0.779,1.628,1.025,1.778c1.121,0.69,2.753,0.934,3.302,0.184c0.248-0.339,0.106-0.791-0.055-1.111
				c-0.454-0.896-1.682-1.858-2.785-1.859c-0.001,0-0.002,0-0.002,0C32.174,216.337,31.674,216.676,31.333,217.345z"/>
			<path style="fill:#292236;" d="M479.317,312.608c-0.872,0-1.855-0.347-2.858-1.042c-1.773-1.229-3.225-3.313-2.477-4.536l0,0
				c0.552-0.902,1.572-1.361,2.848-1.273c2.039,0.129,4.284,1.538,5.003,3.141c0.414,0.923,0.306,1.86-0.303,2.64
				C480.971,312.251,480.201,312.608,479.317,312.608z M474.835,307.552c-0.316,0.519,0.653,2.125,2.193,3.192
				c0.586,0.407,2.586,1.618,3.713,0.178c0.386-0.494,0.445-1.022,0.179-1.614c-0.564-1.256-2.504-2.448-4.154-2.553
				C476.126,306.711,475.281,306.82,474.835,307.552L474.835,307.552z"/>
			<path style="fill:#292236;" d="M382.48,418.092c-1.892,0-3.432-1.539-3.432-3.432c0-1.893,1.54-3.432,3.432-3.432
				s3.431,1.539,3.431,3.432C385.911,416.553,384.372,418.092,382.48,418.092z M382.48,412.228c-1.341,0-2.432,1.091-2.432,2.432
				c0,1.341,1.091,2.432,2.432,2.432c1.34,0,2.431-1.091,2.431-2.432C384.911,413.319,383.82,412.228,382.48,412.228z"/>
			<path style="fill:#292236;" d="M323.043,473.935c-1.773,0-3.216-1.442-3.216-3.216c0-1.773,1.442-3.216,3.216-3.216
				c1.773,0,3.216,1.442,3.216,3.216C326.259,472.492,324.817,473.935,323.043,473.935z M323.043,468.503
				c-1.222,0-2.216,0.994-2.216,2.216c0,1.222,0.994,2.216,2.216,2.216c1.222,0,2.216-0.994,2.216-2.216
				C325.259,469.497,324.265,468.503,323.043,468.503z"/>
			<path style="fill:#292236;" d="M235.052,305.537c-2.116,0-3.837-1.722-3.837-3.837c0-2.116,1.722-3.838,3.837-3.838
				c2.116,0,3.838,1.722,3.838,3.838C238.89,303.815,237.169,305.537,235.052,305.537z M235.052,298.862
				c-1.564,0-2.837,1.273-2.837,2.838c0,1.564,1.273,2.837,2.837,2.837c1.565,0,2.838-1.273,2.838-2.837
				C237.89,300.136,236.617,298.862,235.052,298.862z"/>
			<path style="fill:#292236;" d="M444.701,58.412c-1.847,0-3.349-1.502-3.349-3.348c0-1.847,1.502-3.349,3.349-3.349
				c1.846,0,3.348,1.502,3.348,3.349C448.049,56.91,446.547,58.412,444.701,58.412z M444.701,52.715
				c-1.295,0-2.349,1.054-2.349,2.349s1.054,2.348,2.349,2.348s2.348-1.053,2.348-2.348S445.996,52.715,444.701,52.715z"/>
			<path style="fill:#292236;" d="M471.401,87.471c-1.566,0-2.841-1.274-2.841-2.841c0-1.566,1.274-2.84,2.841-2.84
				c1.566,0,2.841,1.274,2.841,2.84C474.242,86.196,472.968,87.471,471.401,87.471z M471.401,82.79c-1.015,0-1.841,0.826-1.841,1.84
				c0,1.015,0.826,1.841,1.841,1.841c1.015,0,1.841-0.826,1.841-1.841C473.242,83.615,472.417,82.79,471.401,82.79z"/>
			<path style="fill:#292236;" d="M94.397,467.004c-1.36,0-2.466-1.106-2.466-2.467c0-1.36,1.106-2.467,2.466-2.467
				c1.36,0,2.467,1.106,2.467,2.467C96.863,465.897,95.757,467.004,94.397,467.004z M94.397,463.07
				c-0.809,0-1.466,0.658-1.466,1.467c0,0.809,0.658,1.467,1.466,1.467s1.467-0.658,1.467-1.467
				C95.863,463.728,95.205,463.07,94.397,463.07z"/>
		</g>
		<g>
			<path style="fill:#292236;" d="M44.766,394.024c-1.123,0-2.284-0.202-3.439-0.703c-3.498-1.518-5.996-4.094-6.52-6.723
				c-0.312-1.568,0.109-3.046,1.187-4.16c0.04-0.041,0.085-0.074,0.134-0.099c-0.095-0.237-0.169-0.479-0.218-0.726
				c-0.47-2.351,1.23-4.798,5.055-7.274c0.231-0.147,0.542-0.084,0.692,0.148c0.15,0.231,0.083,0.541-0.148,0.691
				c-3.446,2.231-5,4.33-4.618,6.238c1.07,5.349,16.202,8.157,16.354,8.185c0.189,0.034,0.342,0.174,0.393,0.359
				c0.051,0.186-0.008,0.383-0.153,0.51C53.281,390.649,49.35,394.024,44.766,394.024z M36.611,383.243
				c-0.778,0.867-1.063,1.956-0.823,3.16c0.46,2.313,2.735,4.611,5.937,6c4.086,1.772,8.449-0.766,10.25-2.035
				C48.737,389.678,39.373,387.368,36.611,383.243z"/>
			<path style="fill:#292236;" d="M55.049,401.926c-0.144,0-0.29-0.015-0.438-0.043c-2.664-0.513-2.222-8.65-1.976-11.564
				c-1.641-1.32-11.563-9.568-11.583-15.961c-0.005-1.75,0.721-3.218,2.161-4.361c2.022-1.605,3.974-2.05,5.808-1.319
				c1.097-1.789,2.662-2.55,4.43-2.151c3.309,0.748,6.227,5.243,6.507,10.02c0.307,5.224-1.482,8.155-2.654,9.492
				c3.052,0.072,8.707,0.512,8.912,2.77c0.186,2.056-1.631,3.422-2.559,3.98c0.346,0.689,0.48,1.825-0.453,3.204
				c-1.197,1.77-4.079,1.737-5.275,1.64c-0.111,0.974-0.471,2.964-1.602,3.851C55.95,401.775,55.516,401.926,55.049,401.926z
				 M47.286,369.344c-1.093,0-2.249,0.479-3.452,1.435c-1.204,0.957-1.787,2.126-1.783,3.574
				c0.02,6.338,11.299,15.259,11.413,15.348c0.133,0.104,0.205,0.27,0.189,0.438c-0.447,4.983-0.137,10.514,1.146,10.761
				c0.352,0.07,0.641,0.003,0.907-0.205c0.92-0.72,1.227-2.874,1.267-3.644c0.008-0.141,0.074-0.271,0.184-0.361
				c0.11-0.089,0.252-0.129,0.391-0.106c1.02,0.154,3.876,0.249,4.826-1.153c1.046-1.546,0.294-2.365,0.205-2.453
				c-0.116-0.115-0.171-0.283-0.143-0.444c0.028-0.161,0.13-0.301,0.278-0.37c0.027-0.013,2.684-1.278,2.504-3.266
				c-0.106-1.181-4.853-1.876-9.153-1.872c-0.086,0.017-0.221-0.037-0.306-0.102c-0.031-0.023-0.059-0.05-0.083-0.08
				c-0.064-0.078-0.105-0.177-0.113-0.284c0-0.004,0-0.009,0-0.013c-0.28-6.902-2.868-15.095-6.713-16.855
				C48.344,369.459,47.823,369.344,47.286,369.344z M49.915,369.132c4.145,2.592,6.162,10.814,6.583,16.291
				c1.024-1.166,2.75-3.891,2.461-8.819c-0.277-4.732-3.187-8.528-5.729-9.102C51.917,367.202,50.777,367.767,49.915,369.132z"/>
		</g>
		<g>
			<path style="fill:#292236;" d="M434.47,410.69c-0.062,0-0.125-0.012-0.184-0.035c-0.273-0.108-6.694-2.717-7.065-8.299
				c-0.22-3.32,0.783-6.29,2.62-7.751c1.102-0.877,2.429-1.141,3.737-0.748c0.035,0.011,0.068,0.024,0.099,0.042
				c0.136-0.154,0.284-0.295,0.443-0.422c1.647-1.314,4.236-0.978,7.688,1.003c0.24,0.137,0.323,0.442,0.185,0.683
				c-0.137,0.239-0.444,0.321-0.682,0.185c-3.064-1.756-5.273-2.124-6.568-1.088c-3.04,2.423-0.883,12.216,0.205,15.785
				c0.056,0.184,0.002,0.383-0.139,0.513C434.715,410.645,434.594,410.69,434.47,410.69z M432.388,394.678
				c-0.68,0-1.333,0.239-1.925,0.71c-1.584,1.26-2.443,3.904-2.244,6.902c0.248,3.724,3.732,6.04,5.468,6.969
				c-0.775-2.887-2.592-10.737-0.601-14.498C432.852,394.705,432.618,394.678,432.388,394.678z"/>
			<path style="fill:#292236;" d="M434.429,420.373c-0.165,0-0.339-0.01-0.523-0.032c-1.835-0.22-2.962-2.395-3.387-3.396
				c-0.825,0.307-2.47,0.787-3.596,0.27c-0.508-0.233-0.863-0.649-1.025-1.203c-0.674-2.299,5.752-5.195,8.136-6.182
				c0.391-1.897,2.818-12.726,7.733-15.276c1.366-0.709,2.805-0.731,4.277-0.067c2.043,0.922,3.17,2.25,3.357,3.951
				c1.814,0.152,3.023,1.068,3.421,2.607c0.744,2.874-1.576,6.941-5.171,9.068c-3.807,2.252-6.736,2.113-8.285,1.761
				c1.167,2.428,2.991,6.866,1.318,7.929c-1.51,0.959-3.27,0.145-4.103-0.359C436.215,419.911,435.535,420.373,434.429,420.373z
				 M430.8,415.791c0.068,0,0.136,0.014,0.2,0.042c0.129,0.057,0.229,0.165,0.274,0.299c0.282,0.837,1.327,3.046,2.75,3.217
				c1.544,0.178,1.87-0.671,1.901-0.77c0.05-0.155,0.174-0.28,0.33-0.329c0.153-0.049,0.326-0.023,0.456,0.077
				c0.02,0.015,2.013,1.532,3.436,0.63c0.81-0.515-0.491-4.402-2.214-7.712c-0.003-0.005-0.005-0.01-0.008-0.016l0-0.001
				c0,0,0,0,0-0.001c-0.045-0.094-0.058-0.195-0.043-0.292c0.007-0.046,0.022-0.091,0.041-0.133c0-0.001,0.001-0.001,0.001-0.001
				l0,0c0.04-0.087,0.106-0.163,0.193-0.215c0-0.001,0-0.001,0-0.001h0.001c0.004-0.003,0.008-0.005,0.012-0.007
				c5.192-2.946,10.462-8.168,10.294-11.806c-0.066-1.435-1.005-2.57-2.791-3.376c-1.196-0.54-2.31-0.526-3.405,0.043
				c-4.852,2.518-7.242,14.721-7.265,14.844c-0.032,0.167-0.146,0.306-0.303,0.369c-4.009,1.63-8.101,4.058-7.802,5.076
				c0.082,0.279,0.235,0.462,0.482,0.575c0.896,0.415,2.655-0.199,3.256-0.47C430.661,415.806,430.731,415.791,430.8,415.791z
				 M439.554,410.894c1.332,0.313,4.005,0.474,7.586-1.644c3.513-2.077,5.272-5.791,4.712-7.957
				c-0.28-1.082-1.124-1.717-2.449-1.852C448.998,403.632,443.587,408.38,439.554,410.894z"/>
		</g>
		<g>
			<path style="fill:#292236;" d="M402.479,468.487c-0.293,0-0.557-0.07-0.786-0.223c-2.202-1.467-0.437-9.67,0.192-12.286
				c-2.676-0.713-9.172-2.673-9.172-4.885c0-2.236,7.39-4.675,10.137-5.503c0.642-4.367,1.961-11.273,3.876-11.273
				c0.013,0,0.026,0,0.04,0.001c1.864,0.093,5.62,6.235,6.971,8.551c3.378-0.344,10.525-0.877,11.466,0.631
				c0.954,1.525-3.743,6.131-6.873,8.943c1.502,2.136,6.136,9.085,4.478,11.311c-1.712,2.297-8.729-1.841-10.905-3.207
				C409.976,462.888,405.096,468.486,402.479,468.487z M406.715,435.316c-0.771,0.199-2.114,5.114-2.922,10.733
				c-0.028,0.193-0.166,0.353-0.354,0.408c-4.697,1.39-9.727,3.584-9.727,4.636c0,1.057,4.602,2.942,8.899,4.041
				c0.267,0.068,0.428,0.339,0.361,0.606c-1.088,4.33-2.032,10.82-0.725,11.691c1.116,0.743,5.624-3.5,9.159-7.86
				c0.16-0.198,0.444-0.243,0.659-0.107c3.459,2.226,9.007,4.94,9.939,3.691c0.982-1.317-2.186-6.931-4.748-10.495
				c-0.149-0.208-0.118-0.495,0.073-0.665c4.016-3.575,7.23-7.229,7.018-7.979c-0.439-0.631-5.402-0.69-10.83-0.12
				c-0.2,0.021-0.387-0.077-0.485-0.247C410.74,439.679,407.673,435.364,406.715,435.316z M403.297,445.978h0.01H403.297z"/>
			<path style="fill:#292236;" d="M410.56,455.936c-0.904,0-2.01-0.321-3.263-1.321c-2.456-1.96-2.922-4.46-1.248-6.688
				c1.656-2.202,5.142-3.51,7.328-1.966c1.362,0.962,2.039,2.755,1.812,4.796c-0.253,2.273-1.504,4.192-3.186,4.891
				C411.609,455.811,411.123,455.936,410.56,455.936z M411.149,446.299c-1.556,0-3.349,0.963-4.301,2.229
				c-1.329,1.768-0.938,3.701,1.072,5.306c1.307,1.043,2.587,1.351,3.698,0.891c1.331-0.552,2.365-2.19,2.576-4.078
				c0.186-1.673-0.335-3.119-1.395-3.868l0,0C412.328,446.445,411.757,446.299,411.149,446.299z"/>
		</g>
		<g>
			<path style="fill:#292236;" d="M65.751,153.797c-2.222,0-5.128-7.069-6.139-9.721c-4.433-0.332-11.481-1.163-11.523-3.101
				c-0.041-1.866,5.818-6.051,8.031-7.563c-0.583-3.345-1.625-10.436-0.189-11.482c1.45-1.064,6.383,3.296,9.412,6.217
				c2.023-1.651,8.621-6.768,10.962-5.274c2.413,1.542-1.213,8.837-2.421,11.106c2.749,1.949,9.777,7.255,8.427,9.632
				c-1.308,2.3-9.614,1.126-12.268,0.685c-0.52,2.72-2.012,9.34-4.218,9.498C65.8,153.796,65.776,153.797,65.751,153.797z
				 M56.616,122.728c-0.042,0-0.078,0.005-0.109,0.017c-0.597,0.483-0.304,5.437,0.653,10.811c0.035,0.195-0.048,0.391-0.212,0.502
				c-3.796,2.569-7.881,5.937-7.86,6.896c0.253,0.754,5.252,1.744,10.914,2.148c0.195,0.014,0.364,0.14,0.433,0.323
				c1.708,4.551,4.23,9.372,5.294,9.373c0.008,0,0.016,0,0.024,0c1.087-0.078,2.609-4.818,3.396-9.166
				c0.049-0.271,0.308-0.454,0.579-0.403c4.397,0.776,10.937,1.254,11.713-0.111c0.664-1.168-3.893-5.36-8.495-8.574
				c-0.209-0.146-0.275-0.426-0.152-0.65c1.973-3.609,4.282-9.339,2.971-10.177c-1.383-0.892-6.757,2.674-10.129,5.486
				c-0.197,0.163-0.485,0.152-0.669-0.026C61.277,125.581,57.566,122.728,56.616,122.728z"/>
			<path style="fill:#292236;" d="M64.23,141.521c-0.829,0-1.679-0.265-2.515-0.804c-2.315-1.494-3.87-4.877-2.484-7.169
				c0.863-1.427,2.613-2.23,4.655-2.149c2.286,0.09,4.29,1.201,5.106,2.829c0.496,0.991,0.779,2.622-0.695,4.767
				C67.152,140.661,65.725,141.521,64.23,141.521z M63.603,132.394c-1.574,0-2.877,0.616-3.516,1.672l0,0
				c-1.063,1.757,0.319,4.616,2.171,5.811c1.856,1.197,3.758,0.67,5.214-1.449c0.948-1.379,1.164-2.677,0.625-3.752
				c-0.645-1.287-2.354-2.202-4.251-2.277C63.765,132.395,63.683,132.394,63.603,132.394z M59.659,133.808h0.01H59.659z"/>
		</g>
		<g>
			<path style="fill:#292236;" d="M60.767,61.601c-0.014,0-0.027,0-0.041-0.001c-1.364-0.064-2.607-3.35-3.199-5.194
				c-1.858,0.521-4.578,1.079-5.176,0.083c-0.582-0.97,1.157-3.254,2.815-5.09c-2.199-5.318-1.354-5.77-1.032-5.941
				c0.819-0.438,3.233,0.684,5.225,1.771c2.752-2.047,4.483-2.917,5.152-2.574c0.302,0.154,1.09,0.555-0.443,5.621
				c1.738,0.781,4.859,2.39,4.717,3.816c-0.151,1.51-3.584,1.668-5.469,1.647C62.951,58.119,62.176,61.601,60.767,61.601z
				 M57.859,55.289c0.215,0,0.413,0.139,0.479,0.355c0.775,2.554,1.937,4.917,2.436,4.957c0.465-0.168,1.231-2.712,1.617-5.441
				c0.036-0.252,0.221-0.438,0.511-0.43c2.582,0.081,4.848-0.338,4.888-0.737c0.052-0.516-2.107-1.936-4.528-2.979
				c-0.235-0.101-0.356-0.364-0.279-0.608c0.596-1.911,1.112-4.213,1.001-4.852c-0.564,0.113-2.629,1.423-4.282,2.668
				c-0.158,0.118-0.372,0.134-0.543,0.038c-1.713-0.95-3.819-1.896-4.469-1.917c-0.058,0.671,0.707,3.024,1.522,4.964
				c0.076,0.18,0.039,0.388-0.092,0.532c-1.619,1.765-2.972,3.714-2.895,4.172c0.308,0.216,2.423-0.082,4.492-0.7
				C57.764,55.296,57.812,55.289,57.859,55.289z"/>
		</g>
		<g>
			<path style="fill:#292236;" d="M260.707,349.923c-0.014,0-0.027,0-0.041-0.001c-1.364-0.064-2.607-3.349-3.199-5.193
				c-1.858,0.524-4.579,1.079-5.176,0.083c-0.582-0.969,1.157-3.253,2.815-5.09c-2.199-5.316-1.354-5.769-1.032-5.94
				c0.818-0.444,3.233,0.684,5.225,1.77c2.754-2.048,4.489-2.911,5.153-2.573c0.301,0.153,1.09,0.555-0.444,5.62
				c1.737,0.781,4.859,2.391,4.717,3.817c-0.151,1.51-3.585,1.678-5.469,1.647C262.891,346.442,262.116,349.923,260.707,349.923z
				 M257.799,343.612c0.215,0,0.413,0.139,0.479,0.354c0.775,2.555,1.936,4.917,2.435,4.957c0.458-0.166,1.239-2.76,1.617-5.441
				c0.036-0.252,0.228-0.447,0.511-0.43c2.581,0.083,4.849-0.338,4.888-0.736c0.052-0.517-2.107-1.938-4.528-2.98
				c-0.235-0.1-0.356-0.363-0.279-0.608c0.596-1.91,1.111-4.212,1.001-4.85c-0.564,0.113-2.628,1.423-4.282,2.668
				c-0.158,0.118-0.372,0.133-0.543,0.038c-1.713-0.95-3.819-1.897-4.468-1.918c-0.058,0.672,0.707,3.025,1.522,4.965
				c0.076,0.18,0.04,0.388-0.092,0.531c-1.619,1.765-2.972,3.714-2.895,4.172c0.309,0.217,2.424-0.082,4.492-0.7
				C257.704,343.619,257.752,343.612,257.799,343.612z"/>
		</g>
		<g>
			<path style="fill:#292236;" d="M400.317,53.775c-1.957,0.001-3.158-4.917-3.585-7.045c-2.854,0.19-8.474,0.311-8.801-1.617
				c-0.314-1.847,4.256-4.699,6.251-5.848c-1.094-2.036-2.955-5.938-1.806-7.023c1.167-1.102,5.586,1.211,7.717,2.432
				c4.376-3.055,6.963-4.17,7.694-3.316c0.861,1.009-0.3,5.467-0.941,7.654c2.162,1.875,5.445,4.967,5.125,6.19
				c-0.264,1.01-2.895,1.32-7.829,0.916c-0.456,2.205-1.737,7.423-3.689,7.65C400.407,53.773,400.362,53.775,400.317,53.775z
				 M397.139,45.701c0.239,0,0.447,0.17,0.491,0.408c0.603,3.232,1.847,6.778,2.708,6.666c0.917-0.107,2.246-3.854,2.911-7.288
				c0.048-0.251,0.278-0.431,0.534-0.403c3.136,0.274,6.799,0.259,7.253-0.201c-0.043-0.557-2.653-3.232-5.087-5.324
				c-0.15-0.129-0.21-0.333-0.153-0.523c0.998-3.333,1.56-6.553,1.228-7.032c-0.507-0.129-3.576,1.531-6.617,3.671
				c-0.16,0.113-0.37,0.122-0.539,0.023c-3.141-1.828-6.323-3.102-6.807-2.728c-0.42,0.397,0.643,3.374,2.232,6.245
				c0.133,0.241,0.047,0.544-0.193,0.679c-3.106,1.737-6.331,4.182-6.184,5.052c0.12,0.709,4.021,1.068,8.184,0.756
				C397.113,45.701,397.126,45.701,397.139,45.701z"/>
		</g>
		<path style="fill:#292236;" d="M191.93,205.857c-2.489,0-4.515-2.025-4.515-4.515c0-2.489,2.025-4.514,4.515-4.514
			c2.489,0,4.515,2.025,4.515,4.514C196.445,203.831,194.419,205.857,191.93,205.857z M191.93,197.828
			c-1.938,0-3.515,1.577-3.515,3.514c0,1.938,1.577,3.515,3.515,3.515c1.938,0,3.515-1.577,3.515-3.515
			C195.445,199.405,193.868,197.828,191.93,197.828z"/>
		<path style="fill:#292236;" d="M265.242,273.968c-1.468,0-2.663-1.194-2.663-2.663c0-1.469,1.194-2.663,2.663-2.663
			c1.468,0,2.663,1.194,2.663,2.663C267.905,272.773,266.71,273.968,265.242,273.968z M265.242,269.642
			c-0.917,0-1.663,0.746-1.663,1.663c0,0.917,0.746,1.663,1.663,1.663c0.917,0,1.663-0.746,1.663-1.663
			C266.905,270.388,266.159,269.642,265.242,269.642z"/>
		<g>
			<path style="fill:#292236;" d="M32.393,460.245c-0.156,0-0.311-0.02-0.465-0.065c-0.902-0.258-1.742-1.38-2.498-3.337
				c-1.557-4.03-2.384-10.599-1.075-12.709c0.329-0.53,0.832-0.855,1.455-0.94c1.983-0.255,4.939,1.942,6.375,3.14
				c0.236-3.328,1.853-13.35,12.684-15.864l0,0c10.78-2.503,15.174,2.281,16.308,3.881c0.654-0.45,1.914-1.171,3.047-1.071
				c0.584,0.056,1.069,0.313,1.44,0.763c0.418,0.508,0.582,1.08,0.474,1.655c-0.142,0.752-0.709,1.362-1.192,1.759
				c0.899,0.543,2.202,1.614,1.729,3.087c-0.355,1.107-1.581,1.36-2.504,1.38c-0.619,2.155-3.86,11.984-12.003,14.107
				c-7.797,2.034-15.674-2.321-17.757-3.601C37.517,454.594,34.937,460.245,32.393,460.245z M30.174,444.17
				c-0.079,0-0.156,0.005-0.229,0.015c-0.332,0.045-0.567,0.196-0.741,0.477c-1.001,1.614-0.395,7.801,1.158,11.821
				c0.601,1.556,1.289,2.578,1.84,2.736c1.539,0.44,4.146-4.248,5.505-7.719c0.056-0.141,0.172-0.25,0.317-0.295
				c0.145-0.045,0.302-0.023,0.429,0.063c0.089,0.061,9.011,5.996,17.463,3.794c8.387-2.188,11.365-13.671,11.395-13.787
				c0.061-0.243,0.293-0.41,0.544-0.374c0.016-0.001,1.604,0.164,1.869-0.664c0.401-1.252-1.908-2.247-1.931-2.257
				c-0.177-0.073-0.296-0.241-0.308-0.432c-0.012-0.191,0.087-0.372,0.254-0.466c0.35-0.197,1.286-0.865,1.417-1.573
				c0.053-0.282-0.033-0.555-0.262-0.833c-0.199-0.241-0.449-0.373-0.763-0.402c-1.002-0.098-2.332,0.821-2.766,1.181
				c-0.115,0.096-0.268,0.134-0.415,0.105c-0.147-0.028-0.274-0.122-0.345-0.253c-0.147-0.27-3.734-6.601-15.509-3.864l-0.113-0.487
				l0.113,0.487c-12.174,2.825-11.964,15.406-11.949,15.94c0.005,0.201-0.11,0.386-0.293,0.47c-0.183,0.084-0.398,0.048-0.546-0.087
				C35.185,446.733,31.993,444.17,30.174,444.17z"/>
			<path style="fill:#292236;" d="M63.275,451.006c-0.045,0-0.091-0.006-0.137-0.019c-12.703-3.608-8.636-20.663-8.594-20.835
				c0.066-0.269,0.338-0.432,0.606-0.365c0.268,0.066,0.432,0.337,0.365,0.605c-0.04,0.162-3.877,16.288,7.896,19.632
				c0.266,0.076,0.42,0.353,0.344,0.618C63.693,450.862,63.492,451.006,63.275,451.006z"/>
			<path style="fill:#292236;" d="M60.282,441.033c-0.289,0-0.505-0.104-0.635-0.19c-0.679-0.451-0.828-1.569-0.748-2.39
				c0.039-0.401,0.197-1.364,0.841-1.633l0,0c0.997-0.415,1.916-0.109,2.339,0.781c0.486,1.021,0.174,2.563-1.064,3.229
				C60.735,440.979,60.489,441.033,60.282,441.033z M60.137,437.738c-0.249,0.214-0.421,1.575-0.034,2.165
				c0.07,0.105,0.135,0.208,0.437,0.046c0.764-0.41,0.885-1.393,0.635-1.918C60.986,437.633,60.635,437.534,60.137,437.738z
				 M60.124,437.744L60.124,437.744C60.124,437.743,60.124,437.743,60.124,437.744C60.124,437.743,60.124,437.743,60.124,437.744z"
				/>
			<path style="fill:#292236;" d="M48.808,449.792c-0.041,0-0.081-0.003-0.12-0.01c-1.406-0.234-2.663-6.619-2.675-6.684
				c-0.772-4.045,0.007-4.515,0.301-4.692c1.569-0.943,4.409,1.157,4.962,1.589c0.218,0.17,0.257,0.483,0.087,0.701
				c-0.17,0.218-0.484,0.258-0.702,0.088c-1.152-0.896-3.104-1.96-3.832-1.522l0,0c0.004,0-0.215,0.256-0.125,1.556
				c0.196,2.835,1.584,7.3,2.192,7.964c0.469-0.19,1.848-2.02,2.99-4.023c0.137-0.239,0.442-0.322,0.682-0.186
				c0.24,0.137,0.324,0.442,0.187,0.683C51.563,447.348,49.93,449.792,48.808,449.792z"/>
			<path style="fill:#292236;" d="M41.259,435.695c-0.11,0-0.222-0.036-0.314-0.111l-3.668-2.973
				c-0.209-0.17-0.247-0.476-0.083-0.69c0.167-0.221,4.115-5.421,6.053-7.359c0.124-0.123,0.308-0.146,0.481-0.147
				c7.537,0,9.065,5.876,9.08,5.936c0.066,0.268-0.098,0.537-0.365,0.603c-0.271,0.065-0.539-0.097-0.606-0.364
				c-0.053-0.211-1.369-5.135-8.027-5.174c-1.628,1.679-4.587,5.5-5.525,6.725l3.291,2.667c0.214,0.174,0.247,0.489,0.074,0.703
				C41.549,435.632,41.405,435.695,41.259,435.695z"/>
			<path style="fill:#292236;" d="M52.47,461.583c-2.587,0-4.867-0.61-5.016-0.65c-0.259-0.071-0.416-0.334-0.355-0.596
				c1.194-5.128,1.824-5.033,2.229-4.966c0.273,0.043,0.46,0.298,0.417,0.571c-0.03,0.191-0.165,0.341-0.337,0.397
				c-0.283,0.389-0.819,2.116-1.22,3.741c1.392,0.309,5.554,1.064,8.314-0.251c3.151-1.501,2.417-5.482,2.384-5.649
				c-0.053-0.271,0.124-0.534,0.394-0.587c0.271-0.055,0.533,0.123,0.587,0.393c0.009,0.049,0.922,4.908-2.936,6.745
				C55.582,461.377,53.974,461.583,52.47,461.583z M49.176,456.359C49.176,456.359,49.176,456.359,49.176,456.359
				C49.176,456.359,49.176,456.359,49.176,456.359z"/>
			<path style="fill:#292236;" d="M34.903,449.794h-3.551c-0.276,0-0.5-0.224-0.5-0.5c0-0.276,0.224-0.5,0.5-0.5h3.551
				c0.276,0,0.5,0.224,0.5,0.5C35.403,449.57,35.18,449.794,34.903,449.794z"/>
			<path style="fill:#292236;" d="M32.198,453.848c-0.185,0-0.363-0.103-0.45-0.28c-0.121-0.248-0.019-0.548,0.23-0.669l3.017-1.475
				c0.249-0.12,0.547-0.02,0.669,0.229c0.121,0.248,0.019,0.548-0.229,0.669l-3.017,1.476
				C32.347,453.831,32.272,453.848,32.198,453.848z"/>
		</g>
		<g>
			<path style="fill:#292236;" d="M469.303,262.046c-2.545,0-5.124-5.651-6.019-7.817c-2.083,1.281-9.96,5.637-17.757,3.602
				c-8.142-2.124-11.383-11.952-12.002-14.108c-0.926,0.022-2.149-0.271-2.504-1.38c-0.472-1.473,0.83-2.544,1.729-3.086
				c-0.482-0.397-1.05-1.007-1.191-1.759c-0.108-0.576,0.056-1.148,0.474-1.655c0.371-0.451,0.856-0.708,1.44-0.763
				c1.149-0.108,2.395,0.62,3.047,1.07c1.133-1.599,5.533-6.38,16.308-3.879v-0.001c10.832,2.514,12.448,12.535,12.684,15.864
				c1.436-1.199,4.396-3.412,6.375-3.139c0.624,0.085,1.127,0.41,1.456,0.941c1.309,2.111,0.482,8.679-1.075,12.709
				c-0.756,1.957-1.596,3.079-2.498,3.337C469.613,262.024,469.458,262.046,469.303,262.046z M463.523,252.983
				c0.05,0,0.1,0.008,0.148,0.023c0.145,0.045,0.262,0.154,0.317,0.295c1.358,3.47,3.97,8.16,5.505,7.719
				c0.551-0.158,1.239-1.181,1.84-2.736c1.553-4.021,2.159-10.207,1.158-11.821c-0.174-0.28-0.409-0.432-0.741-0.477
				c-1.761-0.239-5.191,2.504-6.362,3.582c-0.147,0.136-0.362,0.17-0.546,0.087c-0.183-0.083-0.298-0.268-0.293-0.469
				c0.015-0.534,0.225-13.116-11.949-15.941H452.6c-11.776-2.736-15.362,3.593-15.509,3.863c-0.071,0.131-0.198,0.225-0.345,0.253
				c-0.146,0.031-0.299-0.01-0.414-0.104c-0.436-0.36-1.785-1.273-2.768-1.181c-0.314,0.03-0.563,0.162-0.762,0.403
				c-0.229,0.279-0.315,0.552-0.262,0.835c0.133,0.708,1.091,1.388,1.416,1.57c0.167,0.093,0.266,0.274,0.255,0.465
				c-0.011,0.191-0.131,0.359-0.307,0.433c-0.023,0.01-2.331,1.011-1.932,2.257c0.265,0.828,1.853,0.666,1.869,0.664
				c0.247-0.033,0.483,0.131,0.544,0.375c0.029,0.116,3.008,11.598,11.395,13.787c8.451,2.201,17.374-3.733,17.463-3.794
				C463.326,253.013,463.424,252.983,463.523,252.983z"/>
			<path style="fill:#292236;" d="M438.421,252.807c-0.218,0-0.418-0.143-0.48-0.363c-0.076-0.266,0.079-0.542,0.344-0.618
				c11.773-3.344,7.937-19.47,7.896-19.632c-0.066-0.268,0.097-0.539,0.365-0.605c0.272-0.066,0.539,0.098,0.605,0.365
				c0.043,0.172,4.109,17.227-8.594,20.835C438.512,252.801,438.466,252.807,438.421,252.807z"/>
			<path style="fill:#292236;" d="M441.413,242.833c-0.208,0-0.453-0.053-0.732-0.203c-1.239-0.666-1.55-2.207-1.064-3.228
				c0.423-0.89,1.343-1.195,2.339-0.781c0.643,0.268,0.802,1.23,0.841,1.63c0.079,0.821-0.069,1.939-0.749,2.392
				C441.918,242.73,441.702,242.833,441.413,242.833z M441.104,239.436c-0.263,0-0.458,0.132-0.584,0.396
				c-0.25,0.524-0.128,1.507,0.635,1.917c0.301,0.161,0.367,0.061,0.437-0.046c0.387-0.59,0.215-1.951-0.033-2.165
				C441.39,239.47,441.238,239.436,441.104,239.436z M441.571,239.544h0.01H441.571z"/>
			<path style="fill:#292236;" d="M452.888,251.593c-1.122,0-2.756-2.445-3.949-4.539c-0.137-0.24-0.053-0.545,0.187-0.682
				c0.239-0.138,0.545-0.053,0.682,0.187c1.125,1.975,2.481,3.781,2.999,4.013c0.613-0.699,1.988-5.132,2.183-7.953
				c0.091-1.317-0.135-1.562-0.137-1.564c-0.717-0.429-2.667,0.634-3.82,1.53c-0.218,0.169-0.532,0.13-0.702-0.087
				c-0.169-0.218-0.13-0.532,0.087-0.702c0.553-0.432,3.394-2.534,4.962-1.588c0.293,0.177,1.072,0.646,0.303,4.682
				c-0.012,0.064-1.269,6.458-2.677,6.694C452.968,251.59,452.928,251.593,452.888,251.593z M452.745,250.633L452.745,250.633
				L452.745,250.633z"/>
			<path style="fill:#292236;" d="M460.436,237.496c-0.146,0-0.29-0.064-0.389-0.185c-0.174-0.215-0.141-0.529,0.074-0.704
				l3.291-2.667c-0.938-1.225-3.897-5.047-5.525-6.725c-6.66,0.038-7.974,4.962-8.027,5.174c-0.067,0.267-0.336,0.433-0.606,0.364
				c-0.267-0.066-0.431-0.336-0.365-0.604c0.015-0.06,1.544-5.935,9.079-5.935c0.176,0,0.358,0.023,0.482,0.147
				c1.938,1.938,5.886,7.138,6.053,7.358c0.163,0.215,0.126,0.521-0.083,0.691l-3.668,2.973
				C460.657,237.459,460.546,237.496,460.436,237.496z"/>
			<path style="fill:#292236;" d="M449.225,263.383c-1.504,0-3.111-0.206-4.463-0.85c-3.858-1.837-2.945-6.696-2.936-6.745
				c0.054-0.271,0.318-0.45,0.587-0.394c0.27,0.053,0.447,0.316,0.395,0.587c-0.033,0.168-0.768,4.149,2.384,5.649
				c2.76,1.313,6.923,0.56,8.314,0.251c-0.401-1.624-0.936-3.353-1.22-3.741c-0.172-0.057-0.307-0.205-0.337-0.396
				c-0.042-0.273,0.143-0.529,0.417-0.572c0.412-0.067,1.038-0.159,2.23,4.966c0.061,0.262-0.096,0.525-0.355,0.596
				C454.091,262.773,451.811,263.383,449.225,263.383z M452.52,258.16c0,0,0,0-0.001,0C452.52,258.16,452.52,258.16,452.52,258.16z"
				/>
			<path style="fill:#292236;" d="M470.343,251.594h-3.551c-0.276,0-0.5-0.224-0.5-0.5c0-0.276,0.224-0.5,0.5-0.5h3.551
				c0.276,0,0.5,0.224,0.5,0.5C470.843,251.37,470.619,251.594,470.343,251.594z"/>
			<path style="fill:#292236;" d="M469.497,255.648c-0.074,0-0.148-0.017-0.219-0.051l-3.017-1.476
				c-0.248-0.121-0.351-0.421-0.229-0.669c0.122-0.248,0.421-0.35,0.669-0.229l3.017,1.476c0.248,0.121,0.351,0.421,0.23,0.669
				C469.859,255.546,469.682,255.648,469.497,255.648z"/>
		</g>
	</g>
	<g>
		<g>
			<path style="fill:#292236;" d="M300.991,384.673c-0.815,0.001-1.64-0.184-2.318-0.716c-1.461-1.148-1.807-3.575-1.029-7.217
				c-0.903-0.2-1.607-0.709-2.1-1.518c-2.26-3.711,0.743-13.26,2.584-18.273c-1.046,1.068-2.308,1.951-3.426,1.609
				c-1.481-0.453-2.119-2.737-2.007-7.186c0.336-13.43,12.77-40.541,13.299-41.689c0.115-0.252,0.411-0.362,0.664-0.245
				c0.25,0.115,0.36,0.413,0.245,0.663c-0.129,0.279-12.877,28.072-13.207,41.296c-0.13,5.201,0.866,6.072,1.3,6.205
				c1.11,0.335,3.241-2.069,4.406-3.887c0.14-0.22,0.423-0.295,0.654-0.173c0.23,0.121,0.329,0.398,0.228,0.637
				c-0.067,0.159-6.68,15.932-3.883,20.523c0.421,0.691,1.039,1.058,1.89,1.124c0.146,0.011,0.279,0.085,0.365,0.203
				c0.086,0.117,0.116,0.268,0.083,0.409c-0.817,3.475-0.626,5.802,0.554,6.73c1.64,1.29,4.8-0.281,4.832-0.298
				c0.244-0.124,0.547-0.026,0.672,0.221c0.125,0.246,0.027,0.547-0.219,0.672C304.469,383.816,302.752,384.673,300.991,384.673z"/>
			<path style="fill:#292236;" d="M371.7,383.405c-1.512,0.001-3.014-0.809-4.478-2.414c-0.186-0.204-0.171-0.521,0.033-0.706
				c0.204-0.187,0.521-0.172,0.707,0.032c1.504,1.649,2.998,2.324,4.45,2.011c4.272-0.93,7.159-9.774,7.188-9.863
				c0.057-0.177,0.207-0.308,0.389-0.34c0.181-0.03,0.368,0.04,0.481,0.185c0.073,0.093,1.865,2.267,5.116-0.098
				c2.905-2.113,5.464-13.935,6.205-18.311c0.04-0.239,0.247-0.415,0.489-0.417c0.259-0.047,0.451,0.17,0.496,0.408
				c0.177,0.945,0.826,2.918,1.705,2.986c0.636,0.028,2.387-0.774,5.42-9.369c5.948-16.852-2.763-51.938-2.852-52.29
				c-0.067-0.268,0.095-0.54,0.363-0.607c0.266-0.064,0.539,0.096,0.607,0.363c0.022,0.089,2.25,9.001,3.705,19.899
				c1.958,14.672,1.662,25.764-0.88,32.967c-3.245,9.191-5.242,10.127-6.441,10.034c-0.945-0.074-1.583-0.941-1.992-1.832
				c-0.864,4.407-3.179,14.753-6.237,16.978c-2.864,2.082-4.911,1.188-5.874,0.474c-0.821,2.249-3.578,8.918-7.674,9.81
				C372.316,383.372,372.008,383.405,371.7,383.405z"/>
			<path style="fill:#292236;" d="M231.715,437.733c-0.057,0-0.114-0.01-0.17-0.029c-0.309-0.112-30.863-11.503-31.537-42.495
				c-0.646-29.766-1.829-41.611-12.073-50.209c6.051,21.788,3.004,33.718,0.545,43.345c-2.009,7.864-3.596,14.076,0.154,23.062
				c0.107,0.255-0.014,0.548-0.269,0.654c-0.251,0.103-0.547-0.014-0.654-0.27c-3.878-9.294-2.174-15.967-0.2-23.693
				c2.485-9.729,5.579-21.837-0.965-44.326c-0.061-0.207,0.019-0.43,0.197-0.552c0.178-0.122,0.415-0.117,0.586,0.015
				c11.661,8.917,13.012,21.33,13.678,51.953c0.659,30.315,30.575,41.467,30.877,41.575c0.26,0.095,0.394,0.381,0.3,0.641
				C232.111,437.606,231.92,437.733,231.715,437.733z"/>
			<path style="fill:#292236;" d="M179.664,454.091c-21.872,0-53.129-4.652-83.582-25.45c-0.194-0.133-0.27-0.384-0.181-0.603
				c0.089-0.219,0.322-0.343,0.551-0.303c27.816,4.967,39.052,1.822,39.163,1.792c0.267-0.075,0.543,0.073,0.621,0.338
				c0.078,0.265-0.073,0.543-0.338,0.621c-0.444,0.132-10.908,3.081-37.304-1.364c53.842,35.522,109.507,21.103,110.07,20.953
				c0.27-0.071,0.541,0.085,0.613,0.353c0.072,0.267-0.086,0.541-0.353,0.612C208.668,451.109,197.171,454.091,179.664,454.091z"/>
			<path style="fill:#292236;" d="M251.109,115.349c-0.054,0-0.109-0.009-0.161-0.027c-0.196-0.067-4.828-1.681-6.536-5.451
				c-0.851-1.878-0.82-3.951,0.093-6.159c0.085-0.207,0.295-0.334,0.521-0.306c2.356,0.283,4.143,1.266,5.311,2.921
				c2.405,3.41,1.308,8.42,1.26,8.632c-0.031,0.138-0.12,0.257-0.244,0.326C251.277,115.328,251.193,115.349,251.109,115.349z
				 M245.288,104.453c-0.663,1.807-0.652,3.489,0.035,5.006c1.206,2.661,4.171,4.17,5.4,4.7c0.202-1.366,0.498-4.847-1.205-7.257
				C248.582,105.577,247.161,104.754,245.288,104.453z"/>
			<path style="fill:#292236;" d="M242.959,118.511c-1.61,0-3.285-0.422-4.863-1.57c-0.117-0.085-0.192-0.217-0.204-0.362
				c-0.013-0.145,0.039-0.287,0.14-0.391c6.239-6.417,13.285-1.801,13.356-1.754c0.132,0.088,0.214,0.234,0.221,0.393
				c0.007,0.159-0.062,0.311-0.185,0.411C251.203,115.416,247.317,118.511,242.959,118.511z M239.179,116.462
				c4.234,2.581,9.3-0.388,11.014-1.564C248.496,114.021,243.721,112.201,239.179,116.462z"/>
			<g>
				<g>
					<path style="fill:#292236;" d="M296.758,129.464c-5.456,0-11.84-1.124-18.023-4.562c-5.027-2.796-5.797-9.326-5.903-10.677
						c-1.294-1-8.653-6.892-11.306-13.523c-1.836-4.591-4.653-16.102,8.656-24.112c1.241-3.951,3.196-6.439,5.811-7.397
						c3.775-1.382,7.466,0.955,7.622,1.055c0.232,0.149,0.298,0.458,0.149,0.69c-0.149,0.232-0.459,0.299-0.691,0.15
						c-0.034-0.021-3.443-2.169-6.743-0.954c-2.343,0.861-4.109,3.193-5.25,6.933c-0.036,0.119-0.116,0.22-0.223,0.284
						c-12.833,7.62-10.152,18.609-8.403,22.98c2.746,6.864,11.078,13.172,11.162,13.235c0.119,0.089,0.192,0.228,0.199,0.377
						c0.003,0.073,0.396,7.299,5.406,10.085c11.792,6.558,24.321,4.471,29.299,2.451c1.965-0.797,6.542-7.013,8.14-9.34
						c0.156-0.228,0.468-0.285,0.695-0.129c0.228,0.156,0.286,0.467,0.129,0.695c-0.605,0.882-5.989,8.647-8.588,9.702
						C306.382,128.426,301.999,129.464,296.758,129.464z"/>
					<path style="fill:#292236;" d="M282.635,185.245c-0.147,0-0.289-0.065-0.385-0.181c-0.13-0.157-13.138-15.803-20.602-23.799
						l-1.748-1.876c-6.313-6.779-10.483-11.257-13.344-12.211c-0.652-0.217-1.755-0.616-3.11-1.106
						c-4.074-1.475-13.479-4.87-15.039-4.588c0.283,0.678,2.829,2.48,5.765,4.06l6.26,2.681c0.254,0.109,0.372,0.403,0.263,0.656
						c-0.108,0.254-0.404,0.371-0.656,0.263l-6.3-2.7c-1.464-0.786-6.125-3.403-6.346-4.906c-0.042-0.292,0.046-0.564,0.249-0.767
						c0.833-0.836,4.605,0.184,16.145,4.361c1.345,0.486,2.439,0.883,3.086,1.099c3.103,1.034,7.114,5.341,13.76,12.478l1.747,1.875
						c6.624,7.098,17.594,20.192,20.114,23.211c2.211-5.233,15.204-35.908,18.32-41.648c3.019-5.561,12.012-6.675,14.808-6.89
						l-5.475-9.477c-0.138-0.239-0.056-0.545,0.183-0.683c0.238-0.139,0.544-0.057,0.683,0.183l5.881,10.179
						c0.088,0.152,0.089,0.339,0.004,0.493c-0.085,0.154-0.245,0.252-0.421,0.257c-0.115,0.004-11.54,0.443-14.783,6.416
						c-3.369,6.206-18.445,41.956-18.597,42.316c-0.068,0.161-0.215,0.274-0.388,0.3
						C282.684,185.243,282.659,185.245,282.635,185.245z"/>
					<path style="fill:#292236;" d="M285.013,214.556c-0.319,0-0.645-0.022-0.978-0.066c-4.909-0.652-10.947-6.249-16.151-14.97
						c-3.735-6.258-8.125-16.884-11.653-25.422c-2.768-6.7-5.159-12.486-6.31-13.943c-2.254-2.855-6.731-3.201-11.914-3.601
						c-0.698-0.054-1.411-0.109-2.136-0.171c-6.238-0.535-14.696-1.611-14.781-1.622l-11.972-3.901
						c-0.206-0.067-0.345-0.259-0.345-0.475c0-0.095,0.017-2.339,1.484-3.312c0.666-0.442,2.678-0.02,4.878,0.656
						c-0.015-0.027-0.028-0.057-0.038-0.087c-0.026-0.082-0.625-2.015,0.87-3.296c1.355-1.163,7.676,1.854,10.421,3.252
						c0.654,0.086,4.624,0.631,7.546,1.468c6.313-1.755,11.968-0.032,12.206,0.043c0.264,0.082,0.411,0.362,0.328,0.626
						c-0.082,0.263-0.362,0.407-0.626,0.329c-0.056-0.018-5.7-1.733-11.773,0.003c-0.091,0.026-0.187,0.026-0.278-0.001
						c-3.057-0.896-7.573-1.481-7.618-1.487c-0.057-0.007-0.113-0.024-0.164-0.051c-4.483-2.291-8.782-3.856-9.394-3.421
						c-0.779,0.668-0.69,1.643-0.611,2.048l5.204,2.791c0.234,0.125,0.329,0.413,0.216,0.653c-0.113,0.241-0.394,0.35-0.641,0.251
						c-4.229-1.719-9.246-3.33-9.978-2.94c-0.736,0.488-0.948,1.562-1.009,2.122l11.511,3.759c0,0,0-0.001,0.001-0.001
						c0.069,0,8.458,1.067,14.646,1.598c0.722,0.062,1.432,0.117,2.127,0.171c5.418,0.417,10.097,0.779,12.623,3.978
						c1.236,1.567,3.537,7.133,6.449,14.181c3.515,8.508,7.891,19.097,11.587,25.292c4.974,8.335,10.884,13.888,15.424,14.492
						c1.796,0.241,3.368-0.283,4.678-1.549c3.538-3.42,13.565-21.016,20.2-32.66c5.857-10.278,5.926-10.295,6.306-10.391
						c0.21-0.052,0.431,0.037,0.545,0.221c2.223,3.566,5.482,4.602,5.515,4.611c0.264,0.081,0.412,0.361,0.331,0.625
						c-0.081,0.264-0.36,0.415-0.625,0.331c-0.14-0.043-3.286-1.042-5.673-4.439c-0.86,1.342-3.053,5.19-5.53,9.537
						c-6.664,11.693-16.733,29.364-20.374,32.884C288.243,213.923,286.723,214.556,285.013,214.556z"/>
					<path style="fill:#292236;" d="M356.602,224.422c-0.063,0-0.125-0.012-0.186-0.036c-23.054-9.221-22.253-16.246-22.208-16.54
						l4.287-15.114l-9.715-10.774c-0.185-0.205-0.168-0.521,0.037-0.706c0.205-0.185,0.521-0.169,0.706,0.037l9.9,10.979
						c0.115,0.128,0.157,0.306,0.11,0.472l-4.35,15.32l0,0c0.007,0-0.469,6.517,21.346,15.295
						c11.689-8.655,13.843-15.536,14.124-16.644c-0.505-1.009-2.83-6.179-1.585-13.649c1.332-7.99,2.682-22.231,2.696-22.375
						c0.026-0.275,0.264-0.483,0.544-0.451c0.275,0.026,0.477,0.27,0.451,0.545c-0.013,0.143-1.367,14.421-2.705,22.445
						c-1.302,7.816,1.537,13.124,1.565,13.177c0.055,0.1,0.074,0.216,0.054,0.328c-0.057,0.317-1.538,7.869-14.776,17.595
						C356.811,224.389,356.707,224.422,356.602,224.422z"/>
					<path style="fill:#292236;" d="M400.514,191.666c-3.068,0-7.173-1.267-12.01-3.748c-10.488-5.378-16.55-11.921-16.61-11.987
						c-0.186-0.204-0.173-0.52,0.031-0.707c0.204-0.187,0.52-0.172,0.706,0.031c0.059,0.064,6.01,6.481,16.329,11.773
						c6.834,3.505,12.231,4.538,14.804,2.836c1.324-0.876,1.913-2.485,1.749-4.785c-0.068-0.949-0.119-1.912-0.169-2.889
						c-0.35-6.666-0.745-14.222-7.297-23.313c-1.175-1.63-3.796-3.958-6.832-6.653c-4.063-3.607-9.119-8.097-13.13-13.034
						c-7.054-8.682-8.281-9.694-16.746-7.126c-5.637,1.708-12.274,4.96-17.121,7.334c-2.796,1.37-5.005,2.452-6.148,2.809
						c-2.8,0.875-4.532,2.037-4.865,2.435c0.1,0.162,0.466,0.523,0.819,0.78c0.141,0.103,0.218,0.272,0.204,0.446
						c-0.015,0.174-0.118,0.328-0.274,0.406c-1.069,0.536-2.074,1.302-2.108,1.608c0.108,0.183,1.083,0.521,2.038,0.672l5.894-1.777
						l7.938-2.657c0.236-0.082,0.495,0.028,0.607,0.252c0.111,0.224,0.04,0.495-0.167,0.635c-2.686,1.829-5.632,4.214-5.738,4.85
						c0.154,0.378,1.256,0.265,1.732,0.143c0.1-0.027,10.895-3.043,14.382-6.438c3.601-3.506,6.779-5.923,6.811-5.947
						c0.18-0.136,0.43-0.135,0.608,0.003c0.192,0.148,4.737,3.732,7.857,11.464c0.704,1.746,1.249,3.711,1.825,5.792
						c1.96,7.073,4.398,15.877,15.245,22.588c0.235,0.145,0.307,0.454,0.162,0.688c-0.146,0.235-0.453,0.308-0.688,0.162
						c-11.181-6.918-13.677-15.931-15.682-23.172c-0.569-2.052-1.106-3.991-1.789-5.684c-2.565-6.358-6.201-9.876-7.25-10.8
						c-0.882,0.692-3.501,2.798-6.402,5.622c-3.669,3.573-14.368,6.562-14.821,6.688c-0.899,0.234-2.52,0.313-2.943-0.851
						c-0.261-0.718,0.887-2.058,3.419-3.994l-4.803,1.608l-6.016,1.814c-0.07,0.021-0.144,0.027-0.215,0.017
						c-0.946-0.135-3.133-0.581-2.998-1.79c0.087-0.78,1.19-1.562,1.992-2.032c-0.349-0.335-0.662-0.748-0.662-1.145
						c0-1.04,3.247-2.609,5.591-3.341c1.07-0.335,3.248-1.402,6.006-2.753c4.877-2.389,11.557-5.662,17.271-7.393
						c9.145-2.77,10.762-1.225,17.813,7.453c3.96,4.874,8.982,9.334,13.018,12.917c3.207,2.848,5.74,5.097,6.979,6.816
						c6.724,9.331,7.128,17.042,7.484,23.846c0.051,0.971,0.1,1.927,0.168,2.87c0.192,2.687-0.546,4.601-2.194,5.69
						C403.336,191.346,402.056,191.666,400.514,191.666z M333.158,144.705L333.158,144.705L333.158,144.705z"/>
					<path style="fill:#292236;" d="M358.787,187.999c-0.155,0-0.304-0.073-0.4-0.2c-4.391-5.854-14.368-7.072-22.308-5.683
						c-6.97,1.218-11.291-0.833-14.918-7.082c-2.356-4.058-3.277-7.889-2.526-10.509c0.303-1.056,0.859-1.879,1.659-2.458
						c-1.589-2.039-1.32-4.433-0.279-5.991c1.186-1.775,3.231-2.495,5.326-1.927c0.297-1.142,1.127-2.003,2.387-2.46
						c2.497-0.901,6.023-0.075,8.257,1.882c1.372-1.27,2.764-1.71,4.147-1.308c4.995,1.449,7.958,13.932,8.434,16.09l6.888,1.955
						l3.561-4.403c-0.891-2.008-5.658-13.481-1.15-19.453c1.128-1.495,2.313-2.219,3.547-2.136c1.168,0.074,2.058,0.864,2.577,1.474
						c0.513-0.914,1.546-2.358,3.141-2.824c1.274-0.373,2.631-0.051,4.033,0.959c0.224,0.162,0.274,0.474,0.113,0.698
						c-0.162,0.223-0.473,0.274-0.698,0.113c-1.138-0.82-2.205-1.094-3.167-0.811c-1.879,0.55-2.864,2.987-2.874,3.012
						c-0.071,0.178-0.237,0.3-0.428,0.314c-0.193,0.014-0.374-0.083-0.47-0.248c-0.009-0.016-0.946-1.607-2.294-1.689
						c-0.858-0.062-1.771,0.532-2.683,1.74c-4.485,5.94,1.329,18.586,1.388,18.713c0.081,0.173,0.056,0.378-0.064,0.526
						l-3.962,4.899c-0.125,0.156-0.332,0.222-0.525,0.167l-7.494-2.127c-0.179-0.051-0.315-0.197-0.353-0.379
						c-0.824-3.957-3.832-14.48-7.798-15.631c-1.134-0.326-2.278,0.126-3.502,1.388c-0.095,0.097-0.216,0.157-0.359,0.152
						c-0.133,0-0.26-0.053-0.354-0.146c-1.914-1.914-5.31-2.804-7.571-1.987c-0.771,0.279-1.716,0.891-1.837,2.219
						c-0.014,0.156-0.101,0.296-0.234,0.379c-0.133,0.083-0.297,0.098-0.444,0.042c-2.228-0.857-3.893,0.141-4.707,1.361
						c-0.899,1.346-1.072,3.479,0.57,5.208c0.108,0.113,0.156,0.27,0.131,0.425c-0.025,0.155-0.122,0.288-0.26,0.361
						c-0.836,0.442-1.404,1.173-1.691,2.175c-0.667,2.326,0.242,5.964,2.43,9.732c3.379,5.82,7.398,7.732,13.881,6.599
						c7.321-1.281,17.441-0.612,22.637,5.278c1.998-7.517,5.689-10.379,9.936-13.672c1.511-1.171,3.073-2.383,4.66-3.885
						c3.33-3.152,3.087-8.506,3.084-8.559c-0.014-0.275,0.197-0.511,0.473-0.526c0.271-0.022,0.511,0.196,0.526,0.472
						c0.013,0.238,0.276,5.865-3.395,9.34c-1.622,1.536-3.205,2.762-4.734,3.948c-4.275,3.315-7.968,6.178-9.819,14.085
						c-0.044,0.189-0.194,0.335-0.384,0.376C358.855,187.996,358.821,187.999,358.787,187.999z"/>
					<path style="fill:#292236;" d="M333.728,146.325c-0.19,0-0.371-0.108-0.455-0.291c-0.116-0.251-0.006-0.548,0.245-0.663
						l7.485-3.441c0.252-0.117,0.548-0.006,0.663,0.245c0.116,0.251,0.006,0.548-0.245,0.663l-7.485,3.441
						C333.869,146.311,333.798,146.325,333.728,146.325z"/>
					<path style="fill:#292236;" d="M360.823,246.72c-0.191,0-0.369-0.109-0.453-0.287c-0.098-0.208-9.932-20.818-22.832-22.735
						c-9.223-1.371-14.481-6.082-15.601-10.142c-0.511-1.853-0.144-3.533,1.005-4.677c-1.507-2.832-1.628-6.185-0.267-8.278
						c0.75-1.152,2.256-2.442,5.257-2.23c0.998-2.314,2.387-3.722,4.131-4.188c2.883-0.769,5.602,1.349,5.716,1.439
						c0.216,0.171,0.253,0.485,0.083,0.702c-0.171,0.217-0.484,0.254-0.702,0.083c-0.024-0.019-2.452-1.899-4.844-1.257
						c-1.505,0.404-2.716,1.729-3.599,3.938c-0.083,0.209-0.296,0.337-0.52,0.312c-2.166-0.244-3.785,0.364-4.684,1.747
						c-1.221,1.877-1.018,4.996,0.492,7.585c0.124,0.212,0.075,0.483-0.116,0.639c-1.088,0.89-1.439,2.283-0.988,3.92
						c1.034,3.748,6.006,8.113,14.785,9.418c5.658,0.841,11.354,5.028,16.926,12.445c2.759,3.672,4.799,7.268,5.854,9.26
						c0.512-5.218,2.702-20.282,11.164-25.771c9.367-6.076,6.987-10.068,6.962-10.107c-0.076-0.119-0.099-0.268-0.061-0.404
						c0.038-0.136,0.129-0.252,0.255-0.316c0.161-0.081,3.913-2.027,2.631-5.875c-1.31-3.929-5.991-4.107-6.19-4.113
						c-0.27-0.008-0.485-0.229-0.486-0.498c0-0.026-0.029-2.663-1.549-3.706c-0.827-0.567-1.989-0.572-3.452-0.014
						c-0.259,0.098-0.547-0.032-0.646-0.289c-0.098-0.258,0.031-0.547,0.289-0.646c1.791-0.683,3.264-0.64,4.378,0.126
						c1.52,1.046,1.873,3.128,1.955,4.06c1.373,0.145,5.361,0.895,6.649,4.762c1.275,3.824-1.596,6.115-2.712,6.837
						c0.181,0.491,0.367,1.347,0.13,2.496c-0.567,2.749-3.128,5.617-7.61,8.524c-9.66,6.266-10.84,26.56-10.851,26.764
						c-0.012,0.229-0.179,0.42-0.403,0.464C360.887,246.717,360.855,246.72,360.823,246.72z"/>
					<path style="fill:#292236;" d="M395.89,156.596c-0.228,0-0.434-0.157-0.487-0.389c-0.062-0.269,0.107-0.537,0.376-0.598
						c11.768-2.679,17.164-11.939,16.412-19.701c-0.523-5.397-4.313-11.262-13.383-11.54c-0.162-0.005-0.31-0.088-0.4-0.222
						c-0.09-0.134-0.109-0.303-0.052-0.455c2.468-6.537,2.546-11.609,0.24-15.508c-3.316-5.606-11.46-9.056-26.405-11.185
						c-12.178-1.735-17.691-12.761-23.529-24.434c-5.497-10.994-11.727-23.454-24.498-30.175
						c-15.768-8.298-31.921-4.802-41.78,1.235c-7.498,4.593-12.113,10.827-12.043,16.269c0.002,0.141-0.056,0.275-0.158,0.371
						c-0.103,0.096-0.245,0.14-0.381,0.133c-4.773-0.379-8.238,0.554-10.596,2.847c-2.892,2.812-4.061,7.612-3.68,15.105
						c0.081,1.586,0.191,3.261,0.304,4.986c0.633,9.66,1.351,20.608-2.099,27.508c-3.088,6.175-5.644,12.472-3.452,16.693
						c1.197,2.307,3.816,3.779,7.785,4.377c0.208,0.031,0.374,0.189,0.416,0.395c2.152,10.64,10.94,14.232,27.66,11.303
						c0.276-0.048,0.531,0.135,0.579,0.406c0.047,0.272-0.134,0.531-0.406,0.579c-16.96,2.97-26.366-0.871-28.741-11.749
						c-4.112-0.683-6.863-2.313-8.18-4.85c-2.398-4.619,0.239-11.189,3.445-17.601c3.329-6.658,2.62-17.463,1.995-26.996
						c-0.114-1.731-0.224-3.41-0.305-5.001c-0.396-7.801,0.869-12.845,3.982-15.872c2.45-2.382,6.095-3.447,10.84-3.164
						c0.219-5.657,4.959-11.965,12.514-16.593c10.093-6.182,26.629-9.763,42.768-1.268c13.055,6.871,19.362,19.484,24.927,30.612
						c5.965,11.929,11.116,22.23,22.775,23.891c15.274,2.176,23.639,5.773,27.125,11.666c2.393,4.045,2.417,9.194,0.072,15.727
						c9.222,0.569,13.108,6.731,13.658,12.412c0.794,8.198-4.854,17.966-17.186,20.772
						C395.964,156.592,395.926,156.596,395.89,156.596z"/>
					<path style="fill:#292236;" d="M345.116,136.167c-6.378,0-14.54-2.252-19.337-12.247c-3.275-1.19-5.759-3.824-6.832-7.258
						c-1.251-4.008-0.474-8.422,2.129-12.188c-7.048-4.766-9.497-9.821-7.458-15.416c-7.462,1.396-20.604-9.344-31.386-19.026
						c-4.549-4.085-10.349-5.67-15.135-4.13c-3.654,1.173-6.153,4.025-7.039,8.029c-0.823,3.721-0.927,7.958-1.038,12.444
						c-0.194,7.871-0.395,16.011-4.489,22.551c-0.146,0.235-0.455,0.306-0.689,0.159c-0.234-0.146-0.305-0.455-0.159-0.689
						c3.948-6.309,4.146-14.309,4.337-22.046c0.112-4.536,0.218-8.82,1.061-12.635c0.965-4.366,3.703-7.479,7.709-8.765
						c5.124-1.646,11.296,0.017,16.109,4.338c6.511,5.847,23.807,21.374,31.389,18.553c0.188-0.069,0.401-0.02,0.54,0.127
						c0.138,0.147,0.173,0.363,0.091,0.547c-2.54,5.645-0.272,10.543,7.139,15.413c0.115,0.076,0.194,0.195,0.218,0.33
						c0.024,0.135-0.008,0.274-0.09,0.385c-2.655,3.597-3.487,7.87-2.284,11.722c0.999,3.196,3.332,5.631,6.401,6.681
						c0.128,0.044,0.233,0.138,0.29,0.26c8.241,17.49,26.643,10.712,27.423,10.415c0.258-0.097,0.547,0.032,0.645,0.289
						c0.099,0.258-0.03,0.547-0.288,0.646C354.283,134.689,350.285,136.167,345.116,136.167z"/>
					<path style="fill:#292236;" d="M265.536,106.852c-0.021,0-0.042-0.001-0.064-0.004c-0.273-0.035-0.467-0.286-0.432-0.56
						c0.596-4.634,4.857-7.525,6.377-8.418l-1.379-1.771c-5.358,2.554-5.353,8.184-5.35,8.427c0.003,0.276-0.217,0.502-0.493,0.506
						c-0.321,0.016-0.502-0.216-0.507-0.492c-0.001-0.068-0.029-6.779,6.304-9.519c0.209-0.092,0.453-0.028,0.593,0.152l1.981,2.543
						c0.092,0.118,0.126,0.271,0.093,0.417c-0.033,0.146-0.129,0.27-0.263,0.337c-0.057,0.029-5.721,2.942-6.364,7.946
						C265.999,106.668,265.784,106.852,265.536,106.852z"/>
					<path style="fill:#292236;" d="M286.82,89.151c-0.117,0-0.232-0.041-0.322-0.117l-2.686-2.259
						c-0.193-0.163-0.235-0.444-0.097-0.656c0.169-0.259,4.235-6.333,12.074-5.952c0.214,0.011,0.397,0.156,0.456,0.362
						c0.059,0.206-0.02,0.426-0.195,0.548c-6.543,4.549-8.794,7.82-8.816,7.853c-0.079,0.118-0.205,0.196-0.345,0.216
						C286.867,89.149,286.843,89.151,286.82,89.151z M284.814,86.311l1.922,1.617c0.768-0.974,2.946-3.457,7.442-6.743
						C288.908,81.568,285.712,85.157,284.814,86.311z"/>
					<path style="fill:#292236;" d="M272.357,106.855c-1.005,1.005,1.704,5.306,3.553,3.797
						C277.76,109.142,274.304,104.908,272.357,106.855z"/>
					<path style="fill:#292236;" d="M291.684,90.618c-1.005,1.005,1.704,5.306,3.553,3.797
						C297.087,92.906,293.631,88.671,291.684,90.618z"/>
					<path style="fill:#292236;" d="M285.148,112.091c-0.67,0-1.201-0.128-1.429-0.467c-0.897-1.335-0.648-2.215-0.429-2.991
						c0.266-0.938,0.54-1.909-1.261-4.27c-2.711-3.555-7.896-7.396-7.948-7.435c-0.222-0.164-0.27-0.477-0.105-0.699
						c0.164-0.222,0.477-0.27,0.699-0.105c0.217,0.16,5.351,3.963,8.149,7.633c2.105,2.759,1.73,4.084,1.428,5.149
						c-0.199,0.702-0.342,1.21,0.296,2.161c0.264,0.147,1.888-0.04,3.439-0.44c0.267-0.068,0.54,0.092,0.609,0.36
						c0.069,0.268-0.092,0.54-0.36,0.609C287.222,111.856,286.057,112.091,285.148,112.091z"/>
					<path style="fill:#292236;" d="M288.843,108.694c-0.11,0-0.221-0.036-0.313-0.11c-0.215-0.173-0.249-0.488-0.076-0.703
						c0.045-0.056,1.126-1.366,2.466-1.078c0.27,0.059,0.441,0.325,0.383,0.595c-0.059,0.27-0.327,0.44-0.595,0.383
						c-0.735-0.16-1.468,0.719-1.475,0.728C289.135,108.63,288.99,108.694,288.843,108.694z"/>
					<path style="fill:#292236;" d="M292.242,116.791c-1.462,0-2.491-0.383-2.572-0.414c-0.192-0.074-0.319-0.258-0.32-0.463
						c-0.001-0.206,0.123-0.392,0.314-0.468c0.059-0.023,5.899-2.427,7.482-8.668c0.044-0.173,0.176-0.309,0.348-0.358
						c0.171-0.047,0.357-0.003,0.484,0.121c0.927,0.895,1.423,2.435,1.327,4.119c-0.107,1.861-0.905,3.492-2.19,4.474
						C295.396,116.447,293.625,116.791,292.242,116.791z M291.314,115.735c1.258,0.16,3.263,0.08,5.192-1.396
						c1.053-0.805,1.71-2.167,1.799-3.737c0.056-0.97-0.122-1.893-0.481-2.592C296.376,112.316,293.128,114.696,291.314,115.735z"/>
					<path style="fill:#292236;" d="M297.785,117.088c-0.252,0-0.469-0.19-0.497-0.447c-0.029-0.273,0.167-0.518,0.44-0.549
						c0.082-0.01,1.97-0.28,3.007-3.152c0.093-0.26,0.382-0.394,0.64-0.3c0.26,0.094,0.394,0.38,0.3,0.64
						c-1.262,3.494-3.733,3.795-3.837,3.806C297.82,117.087,297.802,117.088,297.785,117.088z"/>
					<path style="fill:#292236;" d="M307.046,102.547c-1.313,0-2.561-0.615-3.512-1.812c-1.787-2.248-2.081-6.035,0.521-8.484l0,0
						c0.982-0.923,2.246-1.17,3.561-0.693c2.069,0.75,3.917,3.205,4.205,5.588c0.228,1.879-0.497,3.481-2.041,4.512
						C308.888,102.255,307.951,102.547,307.046,102.547z M304.741,92.98c-2.183,2.054-1.93,5.24-0.424,7.133
						c1.298,1.632,3.133,1.899,4.908,0.713c1.556-1.039,1.731-2.509,1.604-3.56c-0.243-2.007-1.837-4.146-3.553-4.769
						C306.306,92.147,305.454,92.31,304.741,92.98L304.741,92.98z"/>
					<path style="fill:#292236;" d="M278.978,124.965c-0.077,0-0.155-0.018-0.228-0.056c-0.245-0.126-0.342-0.427-0.216-0.673
						c0.015-0.03,1.504-2.999-0.01-5.178c-0.375-0.54-0.822-0.844-1.366-0.929c-1.201-0.186-2.462,0.761-2.475,0.771
						c-0.22,0.168-0.533,0.127-0.701-0.093c-0.167-0.219-0.127-0.532,0.091-0.7c0.065-0.05,1.604-1.218,3.233-0.967
						c0.819,0.127,1.505,0.581,2.038,1.348c1.86,2.677,0.151,6.064,0.078,6.206C279.333,124.867,279.159,124.965,278.978,124.965z"
						/>
					<path style="fill:#292236;" d="M242.07,438.505c-4.448,0-9.052-0.444-13.808-1.336c-38.999-7.309-66.804-55.639-67.366-94.442
						c-0.534-36.837-0.487-49.791-0.486-49.917c0.001-0.276,0.217-0.504,0.502-0.498c0.276,0.001,0.499,0.226,0.498,0.502
						c-0.001,0.127-0.047,13.074,0.486,49.899c0.557,38.416,28.025,86.253,66.551,93.474c18.561,3.478,34.786,0.061,48.227-10.161
						c11.839-9.002,21.032-23.109,26.586-40.796c7.072-22.52,4.417-54.523,2.075-82.758c-1.259-15.183-2.449-29.523-1.872-40.237
						c0.85-15.756,7.274-26.621,12.513-32.961c5.683-6.877,11.087-9.978,11.315-10.106c0.24-0.136,0.544-0.051,0.681,0.189
						c0.136,0.24,0.052,0.545-0.189,0.682c-0.055,0.031-5.498,3.159-11.065,9.908c-5.131,6.22-11.422,16.879-12.256,32.344
						c-0.574,10.646,0.613,24.953,1.869,40.1c2.35,28.326,5.013,60.433-2.118,83.14c-5.617,17.886-14.931,32.165-26.935,41.293
						C267.054,434.597,255.253,438.505,242.07,438.505z"/>
					<path style="fill:#292236;" d="M233.199,452.729c-13.641,0-27.585-1.581-41.674-4.765
						c-46.671-10.544-77.656-24.715-94.723-43.321C82.584,389.143,77.372,370.53,79.9,344.292
						c2.477-25.702,17.318-43.09,31.671-59.904c10.745-12.588,20.895-24.478,25.045-39.003c5.018-17.564,0.406-22.038-4.934-27.218
						c-4.756-4.613-10.146-9.841-8.582-25.522c0.02-0.2,0.158-0.369,0.35-0.428c0.191-0.06,0.401,0.002,0.53,0.156
						c3.313,3.947,8.27,5.25,13.064,6.51c5.376,1.413,10.454,2.748,13.074,7.562c2.921,5.367,2.195,14.23-2.285,27.893
						c-3.93,11.983-0.285,16.405,3.936,21.525c3.825,4.641,8.161,9.9,7.428,21.642c-0.017,0.274-0.248,0.493-0.53,0.468
						c-0.275-0.018-0.485-0.255-0.468-0.53c0.708-11.348-3.313-16.226-7.202-20.943c-4.225-5.126-8.215-9.967-4.114-22.473
						c4.389-13.382,5.138-21.995,2.357-27.103c-2.413-4.435-7.288-5.716-12.449-7.073c-4.591-1.207-9.328-2.452-12.797-5.978
						c-1.163,14.316,3.689,19.021,8.385,23.577c5.339,5.179,10.383,10.07,5.2,28.21c-4.21,14.734-14.428,26.704-25.246,39.378
						c-14.252,16.696-28.989,33.962-31.437,59.351c-4.391,45.561,12.779,80.445,110.85,102.603
						c41.663,9.41,82.088,4.746,116.904-13.493c35.046-18.36,61.621-49.065,76.849-88.796c16.083-41.961,12.337-74.465,6.362-94.343
						c-6.474-21.54-16.887-33.314-16.991-33.431c-0.185-0.206-0.167-0.521,0.038-0.706c0.206-0.184,0.521-0.168,0.706,0.038
						c0.105,0.118,10.645,12.022,17.189,33.756c6.033,20.037,9.825,52.791-6.37,95.043c-15.317,39.961-42.053,70.849-77.319,89.324
						C285.863,446.565,260.127,452.728,233.199,452.729z"/>
					<path style="fill:#292236;" d="M102.997,410.503c-0.151,0-0.3-0.068-0.399-0.198c-18.532-24.432-24.676-50.78-17.3-74.192
						c7.698-24.434,28.897-43.349,59.692-53.262c17.441-5.615,28.53-13.872,32.067-23.88c2.47-6.987,1.18-14.643-3.73-22.14
						c-6.486-9.904-3.373-22.619-3.237-23.155c0.046-0.183,0.191-0.324,0.374-0.365c0.182-0.043,0.374,0.023,0.495,0.168
						c0.1,0.12,10.065,12.176,16.988,26.592c9.235,19.233,8.882,33.92-1.022,42.474c-11.57,9.992-25.612,11.062-39.191,12.096
						c-14.065,1.071-27.35,2.084-35.028,13.698c-0.153,0.23-0.463,0.295-0.693,0.142c-0.23-0.152-0.293-0.462-0.141-0.692
						c7.947-12.023,21.47-13.054,35.786-14.145c13.418-1.021,27.293-2.079,38.614-11.855c21.434-18.511-10.364-60.461-15.422-66.851
						c-0.591,3.211-1.898,13.385,3.315,21.346c5.087,7.768,6.414,15.728,3.836,23.021c-3.645,10.313-14.954,18.784-32.704,24.498
						c-30.478,9.812-51.447,28.496-59.045,52.611c-7.276,23.094-1.188,49.121,17.143,73.288c0.167,0.22,0.123,0.533-0.096,0.7
						C103.209,410.47,103.102,410.503,102.997,410.503z"/>
					<path style="fill:#292236;" d="M357.029,92.971c-0.037,0-0.076-0.004-0.114-0.013c-12.427-2.905-16.494-12.475-20.8-22.606
						c-4.391-10.331-8.93-21.012-22.837-25.625c-15.893-5.272-26.723-0.819-33.008,3.844c-6.832,5.069-9.946,11.48-9.977,11.544
						c-0.119,0.249-0.418,0.354-0.667,0.236c-0.249-0.119-0.355-0.417-0.236-0.667c0.125-0.264,12.943-26.274,44.202-15.907
						c14.336,4.755,18.966,15.648,23.443,26.183c4.204,9.891,8.174,19.233,20.107,22.023c0.269,0.063,0.436,0.331,0.373,0.601
						C357.462,92.815,357.257,92.971,357.029,92.971z"/>
					<path style="fill:#292236;" d="M289.785,154.586c-8.269,0-13.701-8.385-13.769-8.493c-0.148-0.233-0.079-0.542,0.155-0.69
						c0.234-0.146,0.542-0.078,0.69,0.155c0.021,0.032,2.101,3.273,5.568,5.616c4.578,3.093,9.307,3.237,14.053,0.427
						c0.239-0.141,0.545-0.063,0.685,0.175c0.141,0.238,0.062,0.544-0.175,0.685C294.418,153.984,292,154.586,289.785,154.586z"/>
					<path style="fill:#292236;" d="M137.537,394.607c-0.074,0-0.148-0.017-0.219-0.051c-16.071-7.869-26.642-18.94-31.418-32.906
						c-8.097-23.677,3.504-47.769,3.622-48.01c0.122-0.247,0.421-0.347,0.669-0.228c0.248,0.122,0.35,0.422,0.229,0.67
						c-0.065,0.134-6.561,13.567-6.411,30.02c0.138,15.137,6.104,36.021,33.749,49.557c0.248,0.122,0.351,0.421,0.229,0.669
						C137.9,394.505,137.722,394.607,137.537,394.607z"/>
					<path style="fill:#292236;" d="M364.953,278.415c-0.249,0-0.463-0.186-0.496-0.436c-5.047-39.044-42.439-53.448-42.816-53.589
						c-0.259-0.097-0.39-0.385-0.294-0.643c0.097-0.259,0.386-0.39,0.643-0.294c0.364,0.136,34.689,13.342,42.472,48.726
						c0.352-18.256,3.747-30.354,6.687-37.49c3.627-8.803,7.488-12.557,8.2-12.776c0.212-0.066,0.493,0.021,0.616,0.207
						c0.152,0.23,0.088,0.54-0.142,0.693c-0.066,0.043-0.138,0.069-0.211,0.079c-2.159,1.269-14.75,16.747-14.159,55.015
						c0.004,0.266-0.2,0.487-0.464,0.507C364.978,278.415,364.966,278.415,364.953,278.415z"/>
					<path style="fill:#292236;" d="M348.62,254.4c-0.394,0.001-0.785-0.037-1.176-0.113c-4.128-0.8-6.755-5.584-7.57-7.286
						c-1.67,1.239-7.005,4.809-10.756,2.968c-2.436-1.196-3.658-4.4-3.637-9.527c-3.415,1.165-6.129,1.03-8.078-0.404
						c-3.464-2.549-3.152-8.207-3.137-8.446c0.017-0.276,0.249-0.49,0.53-0.468c0.275,0.017,0.485,0.254,0.468,0.53
						c-0.003,0.053-0.291,5.358,2.734,7.581c1.788,1.313,4.417,1.321,7.815,0.024c0.155-0.061,0.331-0.037,0.467,0.059
						c0.136,0.097,0.215,0.254,0.211,0.421c-0.133,5.128,0.899,8.268,3.066,9.333c3.837,1.885,10.131-3.188,10.195-3.239
						c0.122-0.1,0.285-0.136,0.438-0.097c0.153,0.039,0.279,0.148,0.339,0.294c0.027,0.064,2.705,6.426,7.105,7.278
						c2.168,0.415,4.443-0.574,6.768-2.953c0.192-0.197,0.51-0.2,0.707-0.008c0.197,0.193,0.201,0.51,0.008,0.706
						C352.944,253.278,350.763,254.4,348.62,254.4z"/>
					<path style="fill:#292236;" d="M372.068,251.618c-2.474,0-4.562-0.956-4.688-1.015c-0.25-0.117-0.358-0.414-0.242-0.664
						c0.117-0.25,0.417-0.358,0.664-0.242c0.04,0.019,4.112,1.875,7.316,0.243c1.871-0.953,3.111-2.921,3.687-5.852
						c0.035-0.177,0.162-0.322,0.333-0.378c0.169-0.057,0.359-0.017,0.493,0.104c2.075,1.88,4.091,2.454,5.673,1.614
						c1.826-0.969,2.753-3.732,2.306-6.877c-0.039-0.273,0.151-0.526,0.425-0.566c0.27-0.041,0.526,0.151,0.565,0.425
						c0.514,3.616-0.596,6.717-2.828,7.901c-1.778,0.942-3.996,0.498-6.17-1.212c-0.706,2.804-2.062,4.731-4.037,5.734
						C374.421,251.417,373.203,251.618,372.068,251.618z"/>
					<path style="fill:#292236;" d="M349.873,276.807c-0.133,0-0.266-0.002-0.4-0.005c-4.954-0.134-10.92-3.02-13.248-10.644
						c-3.03,3.808-7.676,5.484-11.608,4.105c-3.567-1.255-5.553-4.665-5.393-9.19c-3.659,0.726-6.62,0.149-8.81-1.717
						c-4.64-3.955-4.105-12.207-4.08-12.557c0.02-0.275,0.25-0.485,0.534-0.463c0.275,0.02,0.482,0.259,0.463,0.534
						c-0.005,0.081-0.521,8.102,3.734,11.727c2.061,1.755,4.949,2.213,8.581,1.361c0.153-0.041,0.319,0.003,0.44,0.107
						c0.122,0.103,0.186,0.26,0.173,0.419c-0.35,4.375,1.403,7.678,4.689,8.834c3.785,1.328,8.338-0.547,11.07-4.568
						c0.11-0.163,0.305-0.243,0.501-0.211c0.194,0.034,0.35,0.18,0.397,0.371c1.959,7.833,7.784,10.761,12.583,10.89
						c4.883,0.119,10.678-2.564,12.622-8.882c0.082-0.263,0.362-0.414,0.625-0.33c0.264,0.081,0.412,0.36,0.331,0.625
						C361.299,272.993,356.023,276.807,349.873,276.807z"/>
					<path style="fill:#292236;" d="M373.331,270.689c-4.253,0-8.305-3.722-8.493-3.896c-0.202-0.189-0.213-0.505-0.025-0.707
						c0.189-0.201,0.505-0.213,0.706-0.025c0.047,0.044,4.73,4.334,8.918,3.525c1.939-0.379,3.507-1.821,4.658-4.289
						c0.069-0.147,0.207-0.253,0.368-0.28c0.163-0.032,0.326,0.025,0.441,0.141c3.358,3.397,6.566,4.714,9.282,3.807
						c2.73-0.914,4.707-4.041,5.288-8.363c0.037-0.273,0.287-0.476,0.562-0.429c0.274,0.036,0.466,0.288,0.429,0.561
						c-0.633,4.71-2.862,8.141-5.962,9.179c-2.083,0.696-5.449,0.614-9.814-3.563c-1.268,2.393-2.968,3.812-5.063,4.219
						C374.194,270.65,373.761,270.689,373.331,270.689z"/>
					<path style="fill:#292236;" d="M357.141,208.422c-1.073,0-2.07-0.434-2.661-0.839c-0.228-0.156-0.285-0.466-0.13-0.694
						c0.155-0.228,0.467-0.285,0.694-0.131c0.103,0.069,2.515,1.672,4.164-0.364c0.173-0.214,0.489-0.248,0.703-0.074
						c0.215,0.174,0.248,0.489,0.074,0.703C359.138,208.069,358.109,208.422,357.141,208.422z"/>
					<path style="fill:#292236;" d="M344.598,170.618c-0.177,0-0.349-0.095-0.44-0.262l-8.605-15.854
						c-0.132-0.243-0.042-0.546,0.201-0.678c0.243-0.132,0.546-0.041,0.678,0.201l8.605,15.854c0.132,0.243,0.042,0.546-0.201,0.678
						C344.76,170.598,344.678,170.618,344.598,170.618z"/>
					<path style="fill:#292236;" d="M341.213,172.03c-0.134,0-0.269-0.054-0.367-0.16l-15.48-16.727
						c-0.188-0.203-0.175-0.519,0.027-0.707c0.202-0.188,0.519-0.176,0.707,0.027l15.48,16.727c0.188,0.203,0.175,0.519-0.027,0.707
						C341.456,171.986,341.334,172.03,341.213,172.03z"/>
					<path style="fill:#292236;" d="M339.346,176.543c-0.105,0-0.211-0.033-0.301-0.102l-18.293-13.859
						c-0.22-0.167-0.264-0.48-0.097-0.7c0.166-0.221,0.479-0.264,0.7-0.097l18.293,13.859c0.22,0.167,0.264,0.48,0.097,0.7
						C339.647,176.475,339.497,176.543,339.346,176.543z"/>
					<path style="fill:#292236;" d="M362.953,165.897c-0.01,0-0.02-0.001-0.03-0.001c-0.276-0.017-0.486-0.253-0.469-0.529
						l1.119-18.642c0.017-0.276,0.256-0.476,0.529-0.469c0.276,0.017,0.486,0.253,0.469,0.529l-1.119,18.642
						C363.436,165.692,363.216,165.897,362.953,165.897z"/>
					<path style="fill:#292236;" d="M366.655,165.909c-0.064,0-0.129-0.012-0.191-0.038c-0.255-0.105-0.376-0.398-0.27-0.653
						l6.686-16.14c0.105-0.255,0.399-0.376,0.653-0.271c0.255,0.105,0.376,0.398,0.271,0.653l-6.687,16.14
						C367.038,165.792,366.851,165.909,366.655,165.909z"/>
					<path style="fill:#292236;" d="M369.083,167.862c-0.108,0-0.218-0.035-0.31-0.108c-0.216-0.172-0.253-0.486-0.082-0.703
						l7.056-8.907c0.171-0.216,0.487-0.253,0.703-0.081c0.216,0.172,0.253,0.486,0.082,0.703l-7.056,8.907
						C369.377,167.797,369.23,167.862,369.083,167.862z"/>
					<path style="fill:#292236;" d="M354.737,182.275c-0.315,0-0.69-0.096-1.112-0.383c-0.34-0.232-0.551-0.558-0.608-0.944
						c-0.126-0.856,0.54-1.832,1.095-2.539c-0.884-0.031-2.072-0.209-2.633-0.891c-0.228-0.277-0.456-0.758-0.244-1.474
						c0.151-0.51,0.476-0.879,0.939-1.067c0.773-0.314,1.809-0.06,2.591,0.235c-0.213-0.785-0.351-1.778,0.042-2.432
						c0.164-0.272,0.491-0.607,1.121-0.656c0.516-0.038,0.954,0.126,1.272,0.479c0.432,0.479,0.564,1.236,0.582,1.908
						c0.581-0.58,1.339-1.179,2.128-1.082c0.513,0.061,0.936,0.389,1.255,0.974c0.433,0.792,0.301,1.4,0.115,1.771
						c-0.402,0.8-1.409,1.231-2.164,1.45c0.535,0.626,1.196,1.586,1.134,2.443c-0.033,0.456-0.258,0.841-0.652,1.113
						c-0.5,0.346-0.953,0.295-1.245,0.193c-0.605-0.213-1.082-0.858-1.423-1.504c-0.29,0.905-0.781,1.922-1.574,2.274
						C355.192,182.216,354.983,182.275,354.737,182.275z M355.128,177.384c0.23,0,0.434,0.159,0.487,0.388
						c0.066,0.287-0.082,0.469-0.439,0.908c-0.375,0.462-1.254,1.545-1.169,2.123c0.011,0.076,0.042,0.167,0.181,0.262
						c0.401,0.274,0.628,0.223,0.763,0.165c0.746-0.331,1.234-2.215,1.355-3.076c0.032-0.233,0.223-0.412,0.458-0.43
						c0.23-0.014,0.45,0.13,0.517,0.356c0.257,0.86,0.863,2.158,1.407,2.349c0.079,0.028,0.181,0.042,0.344-0.072
						c0.146-0.101,0.212-0.209,0.223-0.362c0.049-0.68-0.954-1.845-1.447-2.302c-0.142-0.131-0.195-0.332-0.137-0.516
						c0.058-0.184,0.216-0.318,0.407-0.346c0.491-0.07,1.968-0.422,2.312-1.107c0.043-0.085,0.173-0.345-0.099-0.842
						c-0.156-0.285-0.323-0.44-0.497-0.461c-0.544-0.055-1.378,0.862-1.783,1.307c-0.385,0.423-0.564,0.613-0.876,0.583
						c-0.138-0.015-0.263-0.087-0.346-0.198c-0.083-0.111-0.116-0.251-0.092-0.388c0.126-0.707,0.174-1.998-0.237-2.453
						c-0.074-0.081-0.186-0.17-0.453-0.151c-0.219,0.017-0.295,0.097-0.341,0.173c-0.296,0.492,0.067,1.853,0.419,2.663
						c0.086,0.197,0.036,0.426-0.123,0.57c-0.159,0.144-0.393,0.171-0.58,0.066c-0.737-0.412-2.155-0.965-2.831-0.689
						c-0.182,0.074-0.292,0.205-0.356,0.424c-0.094,0.317-0.019,0.463,0.057,0.556c0.445,0.54,2.1,0.571,2.829,0.504
						C355.096,177.385,355.112,177.384,355.128,177.384z"/>
					<path style="fill:#292236;" d="M367.245,298.866c-3.943,0.001-7.548-2.851-10.007-7.974c-1.577,3.452-6.04,5.975-10.607,5.809
						c-5.07-0.182-8.794-3.49-10.188-8.944c-2.162,4.012-6.971,6.857-11.247,6.417c-2.747-0.281-7.517-2.139-8.905-11.356
						c-11.819-0.114-12.962-13.502-12.973-13.64c-0.021-0.274,0.186-0.515,0.461-0.535c0.275-0.019,0.515,0.186,0.536,0.46
						c0.04,0.524,1.101,12.716,12.128,12.716c0.09,0,0.18-0.001,0.272-0.003c0.257,0,0.47,0.182,0.504,0.433
						c0.897,6.607,3.766,10.489,8.079,10.931c4.34,0.45,9.311-2.854,10.845-7.204c0.076-0.216,0.285-0.352,0.516-0.332
						c0.227,0.02,0.412,0.191,0.449,0.417c1.395,8.443,7.149,9.556,9.558,9.643c4.656,0.141,9.158-2.649,10.027-6.277
						c0.05-0.211,0.23-0.364,0.446-0.382c0.223-0.012,0.418,0.106,0.501,0.305c2.612,6.224,6.824,9.34,11.272,8.327
						c4.343-0.986,7.557-5.575,7.317-10.447c-0.012-0.249,0.161-0.469,0.405-0.516c0.243-0.046,0.486,0.093,0.567,0.329
						c1.822,5.307,5.608,8.151,10.133,7.592c4.377-0.535,9.104-4.46,9.669-10.926c0.024-0.274,0.268-0.466,0.542-0.454
						c0.275,0.024,0.479,0.267,0.455,0.542c-0.612,6.995-5.768,11.246-10.544,11.831c-4.389,0.539-8.138-1.75-10.341-6.191
						c-0.664,4.442-3.864,8.279-7.982,9.215C368.499,298.795,367.867,298.866,367.245,298.866z"/>
					<path style="fill:#292236;" d="M302.234,73.413c-0.046,0-0.091-0.003-0.136-0.008c-0.194-0.024-0.475-0.12-0.707-0.438
						c-1.038-1.423-0.146-7.063,0.199-8.996c-2.097-0.717-7.07-2.62-7.178-4.572c-0.012-0.218,0.036-0.546,0.335-0.878
						c1.286-1.426,6.885-1.869,8.589-1.972c0.27-2.136,1.095-7.242,2.859-7.683c1.846-0.477,3.643,4.594,4.429,7.2
						c2.066-0.167,7.056-0.427,8.122,0.852c0.199,0.239,0.273,0.536,0.215,0.859c-0.266,1.482-3.85,3.755-5.321,4.632
						c1.928,2.863,4.571,7.324,3.088,8.351c-1.424,0.989-6.494-1.755-8.562-2.954C306.943,69.525,303.978,73.413,302.234,73.413z
						 M306.48,49.831c-0.015,0-0.028,0.002-0.042,0.005c-0.818,0.205-1.777,3.912-2.159,7.247c-0.028,0.244-0.228,0.431-0.473,0.443
						c-2.753,0.131-7.445,0.699-8.317,1.666c-0.055,0.061-0.081,0.112-0.079,0.152c0.054,0.974,3.626,2.739,6.906,3.816
						c0.238,0.078,0.381,0.321,0.335,0.567c-0.803,4.27-0.998,8.331-0.417,8.689c0.841,0.136,3.46-2.802,5.377-5.558
						c0.15-0.214,0.44-0.277,0.665-0.145c3.264,1.933,7.214,3.694,7.881,3.225c0.404-0.505-1.332-4.037-3.645-7.407
						c-0.079-0.115-0.106-0.258-0.075-0.395c0.031-0.136,0.117-0.253,0.238-0.322c2.906-1.668,5.434-3.697,5.303-4.256
						c-0.555-0.666-4.416-0.756-7.673-0.462c-0.238,0.03-0.458-0.128-0.525-0.358C308.623,52.771,307.084,49.831,306.48,49.831z
						 M303.783,57.026h0.01H303.783z"/>
					<path style="fill:#292236;" d="M307.572,64.836c-2.047,0-3.712-1.665-3.712-3.712c0-2.047,1.665-3.712,3.712-3.712
						c2.047,0,3.712,1.666,3.712,3.712C311.285,63.171,309.619,64.836,307.572,64.836z M307.572,58.412
						c-1.495,0-2.712,1.217-2.712,2.712c0,1.495,1.217,2.712,2.712,2.712c1.496,0,2.712-1.217,2.712-2.712
						C310.285,59.628,309.068,58.412,307.572,58.412z"/>
					<path style="fill:#292236;" d="M274.289,59.772c-0.074,0-0.15-0.017-0.221-0.052c-0.247-0.123-0.349-0.422-0.227-0.67
						c0.056-0.112,5.69-11.268,17.095-12.652c0.273-0.03,0.523,0.163,0.557,0.437c0.033,0.274-0.162,0.523-0.437,0.557
						c-10.859,1.318-16.265,11.995-16.318,12.102C274.65,59.67,274.473,59.772,274.289,59.772z"/>
					<path style="fill:#292236;" d="M388.797,114.725c-1.328,0-2.56-0.545-3.563-1.628c-1.603-1.732-2.003-4.281-0.893-5.681l0,0
						c1.291-1.626,3.291-2.238,5.488-1.68c2.25,0.573,4.108,2.285,4.418,4.071c0.243,1.399-0.439,2.719-1.919,3.716
						C391.138,114.327,389.933,114.725,388.797,114.725z M385.125,108.038c-0.803,1.013-0.417,3.019,0.844,4.38
						c0.717,0.776,2.718,2.354,5.801,0.277c1.15-0.775,1.666-1.714,1.492-2.716c-0.246-1.415-1.793-2.792-3.68-3.272
						C387.785,106.248,386.16,106.733,385.125,108.038L385.125,108.038z"/>
					<path style="fill:#292236;" d="M391.697,122.013c-1.778,0-2.572-0.968-2.718-1.917c-0.186-1.204,0.635-2.754,2.286-3.159l0,0
						c0.913-0.224,1.857,0.107,2.522,0.887c0.698,0.818,0.926,1.94,0.566,2.791c-0.2,0.474-0.767,1.286-2.312,1.387
						C391.923,122.009,391.808,122.013,391.697,122.013z M391.837,117.866c-0.105,0-0.217,0.013-0.333,0.041l0,0
						c-1.066,0.262-1.655,1.265-1.536,2.036c0.116,0.75,0.849,1.135,2.009,1.06c0.529-0.035,1.211-0.198,1.456-0.778
						c0.212-0.502,0.045-1.223-0.406-1.752C392.858,118.274,392.437,117.866,391.837,117.866z M391.384,117.422h0.01H391.384z"/>
					<path style="fill:#292236;" d="M356.607,132.657c-7.951,0-14.053-1.964-18.167-5.855c-5.147-4.867-5.212-10.916-5.212-11.171
						c0-0.276,0.223-0.5,0.499-0.5c0,0,0,0,0.001,0c0.275,0,0.499,0.223,0.5,0.499c0,0.059,0.075,5.896,4.914,10.459
						c4.392,4.142,11.218,5.988,20.292,5.488c0.267-0.032,0.511,0.196,0.526,0.472c0.016,0.275-0.196,0.511-0.472,0.526
						C358.503,132.63,357.542,132.657,356.607,132.657z"/>
					<path style="fill:#292236;" d="M387.542,148.752c-0.268,0-0.49-0.212-0.499-0.482c-0.01-0.276,0.206-0.508,0.482-0.518
						c4.674-0.167,8.279-1.667,10.714-4.457c4.165-4.771,3.519-11.765,3.512-11.834c-0.027-0.275,0.173-0.52,0.448-0.547
						c0.284-0.024,0.52,0.173,0.547,0.448c0.03,0.304,0.693,7.497-3.753,12.592c-2.624,3.006-6.47,4.621-11.431,4.798
						C387.554,148.752,387.548,148.752,387.542,148.752z"/>
				</g>
				<path style="fill:#292236;" d="M364.443,90.572c-3.022,0-5.733-1.401-5.88-1.478c-0.125-0.066-0.217-0.182-0.252-0.32
					c-0.035-0.137-0.01-0.283,0.069-0.401c0.115-0.172,2.87-4.23,6.954-4.908c2.034-0.336,4.028,0.228,5.926,1.68
					c0.178,0.136,0.244,0.374,0.161,0.582c-0.881,2.204-2.293,3.676-4.194,4.378C366.312,90.442,365.363,90.572,364.443,90.572z
					 M359.563,88.457c1.268,0.548,4.553,1.73,7.322,0.708c1.521-0.562,2.682-1.723,3.457-3.454c-1.573-1.106-3.196-1.53-4.84-1.26
					C362.624,84.926,360.394,87.405,359.563,88.457z"/>
				<path style="fill:#292236;" d="M358.795,89.151c-0.036,0-0.072-0.004-0.107-0.012c-0.155-0.034-0.285-0.14-0.349-0.284
					c-0.159-0.356-3.824-8.762,1.795-13.316c0.113-0.091,0.259-0.129,0.402-0.104c0.143,0.025,0.268,0.111,0.342,0.236
					c4.588,7.685-1.69,13.301-1.754,13.356C359.031,89.108,358.914,89.151,358.795,89.151z M360.316,76.709
					c-3.58,3.421-2.023,9.083-1.332,11.045C360.271,86.339,363.26,82.197,360.316,76.709z"/>
				<path style="fill:#292236;" d="M332.517,109.037c-0.39,0-0.791-0.024-1.204-0.073c-0.223-0.026-0.4-0.198-0.435-0.42
					c-0.364-2.345,0.099-4.331,1.378-5.903c2.633-3.237,7.754-3.533,7.971-3.544c0.14-0.009,0.28,0.046,0.379,0.146
					c0.1,0.101,0.153,0.239,0.145,0.38c-0.011,0.207-0.314,5.102-3.483,7.766C335.965,108.484,334.37,109.037,332.517,109.037z
					 M331.815,108.008c1.923,0.154,3.533-0.313,4.807-1.382c2.233-1.874,2.89-5.144,3.069-6.472c-1.37,0.175-4.8,0.831-6.661,3.121
					C332.008,104.533,331.6,106.124,331.815,108.008z"/>
				<path style="fill:#292236;" d="M345.313,111.885c-0.083,0-0.165-0.021-0.239-0.061c-7.864-4.274-5.323-12.306-5.297-12.386
					c0.05-0.15,0.168-0.269,0.319-0.318c0.149-0.049,0.315-0.025,0.445,0.067c0.318,0.225,7.755,5.59,5.24,12.372
					c-0.05,0.136-0.157,0.243-0.293,0.294C345.432,111.874,345.373,111.885,345.313,111.885z M340.547,100.463
					c-0.387,1.872-0.849,6.96,4.482,10.183C346.368,105.871,342.142,101.797,340.547,100.463z"/>
				<path style="fill:#292236;" d="M417.262,129.908c-1.433,0-2.944-0.249-4.521-0.752c-3.766-1.199-6.536-3.386-6.652-3.479
					c-0.119-0.095-0.188-0.239-0.188-0.392c0-0.152,0.07-0.296,0.189-0.391c0.234-0.185,5.802-4.541,11.831-3.811
					c2.956,0.358,5.499,1.888,7.559,4.547c0.15,0.193,0.137,0.467-0.029,0.646C423.214,128.686,420.432,129.908,417.262,129.908z
					 M407.249,125.289c0.969,0.679,3.159,2.079,5.821,2.922c4.572,1.448,8.388,0.673,11.35-2.305
					c-1.838-2.231-4.061-3.519-6.614-3.83C413.222,121.519,408.759,124.248,407.249,125.289z"/>
				<path style="fill:#292236;" d="M406.401,125.787c-0.079,0-0.159-0.019-0.231-0.057c-0.141-0.074-0.238-0.21-0.263-0.366
					c-0.06-0.385-1.4-9.457,5.215-12.382c0.133-0.059,0.284-0.057,0.415,0.005c0.131,0.062,0.229,0.177,0.268,0.317
					c2.419,8.617-5.109,12.396-5.186,12.433C406.55,125.77,406.475,125.787,406.401,125.787z M410.992,114.158
					c-4.35,2.366-4.328,8.237-4.174,10.312C408.43,123.441,412.399,120.225,410.992,114.158z"/>
				<path style="fill:#292236;" d="M341.213,99.864c-2.293,0-4.16-1.866-4.16-4.159c0-2.293,1.866-4.16,4.16-4.16
					c2.293,0,4.159,1.866,4.159,4.16C345.372,97.998,343.506,99.864,341.213,99.864z M341.213,92.545c-1.742,0-3.16,1.418-3.16,3.16
					c0,1.742,1.418,3.159,3.16,3.159c1.742,0,3.159-1.417,3.159-3.159C344.372,93.962,342.955,92.545,341.213,92.545z"/>
			</g>
			<path style="fill:#292236;" d="M265.434,432.252c-3.006,0-6.823-1.067-10.212-5.262c-0.089-0.111-0.127-0.254-0.105-0.395
				c0.023-0.141,0.105-0.265,0.224-0.341c3.209-2.057,6.242-2.682,9.011-1.863c4.455,1.319,6.563,5.878,6.65,6.071
				c0.109,0.242,0.01,0.527-0.226,0.65C270.734,431.136,268.509,432.252,265.434,432.252z M256.364,426.798
				c5.452,6.325,11.754,4.352,13.498,3.634c-0.631-1.137-2.558-4.126-5.8-5.083C261.722,424.657,259.134,425.146,256.364,426.798z"
				/>
			<path style="fill:#292236;" d="M273.468,429.393c-0.006,0-0.012,0-0.018,0c-0.133-0.005-3.288-0.148-5.187-2.774
				c-1.596-2.21-1.788-5.447-0.57-9.623c0.076-0.261,0.35-0.408,0.609-0.344c7.517,2.005,5.677,12.23,5.658,12.334
				C273.915,429.223,273.708,429.393,273.468,429.393z M268.517,417.761c-0.975,3.619-0.79,6.397,0.55,8.262
				c1.222,1.699,3.129,2.185,3.982,2.319C273.306,426.472,273.864,419.576,268.517,417.761z"/>
			<path style="fill:#292236;" d="M321.357,440.935c-0.086,0-0.173-0.022-0.252-0.068c-2.559-1.497-4.009-3.372-4.311-5.572
				c-0.536-3.899,2.74-7.338,2.879-7.482c0.185-0.189,0.485-0.203,0.685-0.031c0.061,0.052,6.046,5.325,1.427,12.914
				C321.691,440.849,321.526,440.935,321.357,440.935z M320.063,428.884c-0.782,0.948-2.656,3.548-2.278,6.278
				c0.243,1.759,1.386,3.298,3.398,4.58C324.344,434.096,321.188,430.06,320.063,428.884z"/>
			<path style="fill:#292236;" d="M107.787,374.642c-0.136,0-0.272-0.056-0.371-0.165c-12.642-13.993-8.358-32.993-8.314-33.184
				c0.063-0.27,0.333-0.442,0.601-0.372c0.269,0.063,0.436,0.332,0.373,0.601c-0.043,0.185-4.201,18.688,8.083,32.285
				c0.185,0.205,0.169,0.52-0.036,0.706C108.026,374.599,107.906,374.642,107.787,374.642z"/>
			<path style="fill:#292236;" d="M173.399,290.307c-0.186,0-0.363-0.104-0.45-0.281c-0.121-0.248-0.018-0.547,0.23-0.668
				c0.054-0.026,5.384-2.66,9.715-7.718c5.763-6.73,7.12-14.346,4.035-22.636c-0.096-0.259,0.036-0.547,0.294-0.643
				c0.258-0.097,0.546,0.035,0.643,0.294c7.683,20.644-14.029,31.495-14.249,31.602C173.546,290.29,173.472,290.307,173.399,290.307
				z"/>
			<path style="fill:#292236;" d="M348.474,314.765c-4.464,0-8.235-2.551-10.393-7.033c-1.385,2.877-4.488,5.685-8.276,5.908
				c-2.485,0.151-7.178-0.821-10.979-8.845c-3.018,1.042-5.674,0.854-7.904-0.563c-5.727-3.639-6.575-14.035-6.608-14.476
				c-0.021-0.275,0.186-0.516,0.461-0.536c0.271-0.025,0.515,0.186,0.536,0.46c0.008,0.104,0.844,10.34,6.149,13.708
				c2.055,1.306,4.561,1.412,7.448,0.313c0.245-0.092,0.523,0.02,0.633,0.261c2.658,5.829,6.294,8.923,10.204,8.68
				c3.844-0.228,6.909-3.443,7.84-6.354c0.064-0.201,0.248-0.34,0.46-0.348c0.224,0.001,0.404,0.12,0.481,0.316
				c2.035,5.142,6.152,7.922,11.023,7.455c3.806-0.371,6.956-2.735,7.489-5.622c0.034-0.186,0.17-0.337,0.352-0.39
				c0.181-0.049,0.377,0.002,0.506,0.14c6.045,6.508,11.157,6.139,13.665,5.337c3.112-0.991,5.464-3.626,5.852-6.555
				c0.026-0.201,0.172-0.367,0.369-0.418c0.197-0.053,0.405,0.021,0.527,0.183c2.293,3.053,4.85,4.6,7.599,4.6
				c0.008,0,0.015,0,0.023,0c5.411-0.017,9.896-5.977,9.941-6.037c0.164-0.221,0.478-0.267,0.699-0.103
				c0.222,0.164,0.268,0.478,0.104,0.699c-0.194,0.263-4.833,6.424-10.741,6.441c-0.008,0-0.017,0-0.025,0
				c-2.807,0-5.402-1.396-7.726-4.153c-0.805,2.857-3.226,5.311-6.316,6.297c-2.647,0.842-7.926,1.272-14.083-4.964
				c-1.024,2.899-4.283,5.166-8.135,5.541C349.251,314.745,348.859,314.765,348.474,314.765z"/>
			<path style="fill:#292236;" d="M318.879,140.761c-1.801,0-3.266-1.465-3.266-3.267c0-1.801,1.465-3.266,3.266-3.266
				c1.801,0,3.267,1.465,3.267,3.266C322.146,139.295,320.68,140.761,318.879,140.761z M318.879,135.228
				c-1.25,0-2.266,1.017-2.266,2.266c0,1.25,1.017,2.267,2.266,2.267c1.25,0,2.267-1.017,2.267-2.267
				C321.146,136.245,320.129,135.228,318.879,135.228z"/>
			<path style="fill:#292236;" d="M324.791,140.761c-1.801,0-3.267-1.465-3.267-3.267c0-1.801,1.465-3.266,3.267-3.266
				c1.801,0,3.266,1.465,3.266,3.266C328.057,139.295,326.591,140.761,324.791,140.761z M324.791,135.228
				c-1.25,0-2.267,1.017-2.267,2.266c0,1.25,1.017,2.267,2.267,2.267c1.249,0,2.266-1.017,2.266-2.267
				C327.057,136.245,326.04,135.228,324.791,135.228z"/>
			<path style="fill:#292236;" d="M329.781,137.444c-1.801,0-3.267-1.465-3.267-3.266c0-1.801,1.465-3.267,3.267-3.267
				c1.801,0,3.266,1.465,3.266,3.267C333.047,135.979,331.582,137.444,329.781,137.444z M329.781,131.911
				c-1.25,0-2.267,1.017-2.267,2.267c0,1.249,1.017,2.266,2.267,2.266c1.249,0,2.266-1.017,2.266-2.266
				C332.047,132.928,331.03,131.911,329.781,131.911z"/>
			<path style="fill:#292236;" d="M303.483,190.503c-0.211,0-0.407-0.134-0.476-0.345c-3.148-9.664-16.233-14.756-16.365-14.806
				c-0.258-0.099-0.387-0.388-0.289-0.645c0.099-0.258,0.387-0.39,0.645-0.289c0.556,0.212,13.663,5.309,16.96,15.431
				c0.086,0.263-0.058,0.545-0.321,0.63C303.587,190.495,303.534,190.503,303.483,190.503z"/>
			<path style="fill:#292236;" d="M308.526,181.71c-0.212,0-0.41-0.137-0.477-0.35c-0.038-0.12-3.948-12.055-17.673-14.482
				c-0.272-0.048-0.454-0.307-0.405-0.579c0.047-0.272,0.305-0.455,0.579-0.405c14.338,2.535,18.414,15.041,18.453,15.167
				c0.082,0.263-0.064,0.544-0.327,0.626C308.627,181.703,308.576,181.71,308.526,181.71z"/>
			<path style="fill:#292236;" d="M290.121,176.543c-0.073,0-0.148-0.016-0.218-0.05c-0.248-0.121-0.352-0.42-0.231-0.669
				l4.211-8.661c0.121-0.248,0.42-0.351,0.668-0.231c0.248,0.121,0.352,0.42,0.231,0.669l-4.21,8.661
				C290.485,176.439,290.307,176.543,290.121,176.543z"/>
			<path style="fill:#292236;" d="M329.62,335.897c-0.192,0-0.385-0.009-0.58-0.026c-3.528-0.319-6.791-3.641-9.705-9.874
				c-1.396,1.423-2.913,2.045-4.508,1.854c-4.48-0.536-7.917-7.358-8.061-7.648c-0.123-0.247-0.022-0.548,0.225-0.67
				c0.249-0.125,0.547-0.022,0.67,0.225c0.033,0.066,3.341,6.63,7.285,7.101c1.45,0.168,2.839-0.528,4.145-2.081
				c0.11-0.131,0.279-0.193,0.452-0.173c0.17,0.023,0.316,0.134,0.387,0.291c2.835,6.326,5.93,9.684,9.2,9.979
				c4.647,0.431,8.783-5.575,10.542-8.135l0.108-0.158c0.099-0.145,0.265-0.239,0.441-0.216c0.175,0.01,0.332,0.111,0.413,0.267
				c2.414,4.585,6.052,7.154,10.056,7.023c3.592-0.11,6.746-2.418,8.436-6.173c0.065-0.144,0.192-0.248,0.345-0.282
				c0.151-0.036,0.313,0.004,0.433,0.104c3.809,3.209,7.409,4.543,10.704,3.959c4.448-0.785,6.842-4.872,6.866-4.913
				c0.084-0.146,0.235-0.24,0.403-0.251c0.164-0.001,0.33,0.064,0.431,0.199c1.587,2.115,3.411,3.209,5.422,3.249
				c4.265,0.058,8.163-4.598,8.201-4.646c0.174-0.213,0.489-0.245,0.703-0.072c0.214,0.174,0.247,0.489,0.073,0.703
				c-0.168,0.207-4.133,5.016-8.858,5.016c-0.045,0-0.09,0-0.135-0.001c-2.146-0.042-4.083-1.082-5.766-3.095
				c-0.893,1.266-3.285,4.106-7.154,4.794c-3.457,0.611-7.165-0.653-11.036-3.767c-1.909,3.765-5.247,6.059-9.037,6.175
				c-4.155,0.12-7.976-2.354-10.575-6.841C338.103,330.769,334.314,335.897,329.62,335.897z"/>
			<path style="fill:#292236;" d="M334.012,360.63c-3.699,0-7.717-2.735-12.258-8.342c-2.19,1.857-4.294,2.474-6.262,1.836
				c-5.382-1.747-7.631-12.362-7.725-12.813c-0.056-0.271,0.118-0.535,0.389-0.591c0.269-0.064,0.535,0.116,0.591,0.388
				c0.021,0.105,2.223,10.497,7.055,12.065c1.719,0.555,3.63-0.108,5.678-1.975c0.102-0.094,0.236-0.136,0.377-0.129
				c0.138,0.011,0.265,0.078,0.352,0.187c4.65,5.851,8.647,8.567,12.207,8.361c3.057-0.192,5.937-2.577,8.803-7.292
				c0.091-0.149,0.252-0.24,0.427-0.24c0,0,0,0,0,0c0.174,0,0.337,0.092,0.427,0.241c3.009,4.962,6.217,7.359,9.264,6.918
				c3.053-0.436,5.77-3.771,7.09-8.703c0.05-0.186,0.202-0.327,0.391-0.362c0.188-0.036,0.381,0.04,0.495,0.195
				c2.792,3.801,5.41,5.538,7.777,5.15c4.029-0.652,6.198-7.231,6.219-7.298c0.056-0.172,0.2-0.301,0.378-0.336
				c0.179-0.038,0.36,0.027,0.478,0.164c0.015,0.018,1.485,1.698,3.636,1.698c0.006,0,0.013,0,0.019,0
				c1.629-0.008,3.257-0.961,4.837-2.834c0.178-0.212,0.493-0.238,0.705-0.06c0.211,0.178,0.238,0.493,0.06,0.704
				c-1.782,2.112-3.669,3.185-5.61,3.189c-1.744-0.009-3.098-0.873-3.819-1.48c-0.732,1.866-2.949,6.623-6.741,7.239
				c-2.586,0.415-5.32-1.178-8.14-4.75c-1.519,4.797-4.39,8.01-7.634,8.473c-2.345,0.338-5.915-0.586-9.833-6.704
				c-2.915,4.561-5.919,6.881-9.168,7.085C334.323,360.625,334.168,360.63,334.012,360.63z"/>
			<path style="fill:#292236;" d="M361.103,380.263c-0.546,0-1.081-0.049-1.602-0.149c-2.717-0.525-4.874-2.401-6.289-5.453
				c-1.604,3.321-5.025,5.742-8.113,5.595c-1.768-0.09-4.853-1.099-6.435-6.642c-2.306,3.262-6.095,5.225-9.957,5.048
				c-4.115-0.176-7.546-2.652-9.711-6.989c-2.222,1.284-4.242,1.536-6.008,0.755c-4.02-1.781-5.177-8.28-5.225-8.556
				c-0.047-0.272,0.136-0.531,0.408-0.577c0.278-0.053,0.531,0.136,0.578,0.407c0.011,0.063,1.115,6.249,4.646,7.811
				c1.569,0.695,3.434,0.366,5.544-0.977c0.122-0.078,0.271-0.1,0.41-0.058c0.138,0.04,0.252,0.139,0.313,0.27
				c1.981,4.293,5.208,6.748,9.088,6.914c3.866,0.162,7.667-2.01,9.68-5.541c0.103-0.179,0.302-0.275,0.509-0.246
				c0.204,0.03,0.369,0.184,0.414,0.385c0.978,4.372,3.037,6.856,5.797,6.997c3.011,0.148,6.417-2.569,7.584-6.067
				c0.067-0.201,0.253-0.338,0.466-0.342c0.172-0.022,0.403,0.127,0.477,0.326c1.255,3.38,3.335,5.44,6.015,5.957
				c3.55,0.688,8.064-1.426,11.775-5.513c0.186-0.204,0.502-0.219,0.706-0.034c0.205,0.185,0.22,0.502,0.034,0.706
				C368.731,378.117,364.693,380.263,361.103,380.263z"/>
			<path style="fill:#292236;" d="M339.045,406.611c-1.694,0-3.179-0.334-4.451-1.002c-2.433-1.278-4.042-3.772-4.792-7.423
				c-2.346,2.788-5.418,4.229-8.213,3.803c-2.305-0.352-5.481-2.112-7.705-8.427c-2.859,1.598-5.303,1.918-7.275,0.956
				c-3.445-1.685-4.073-6.646-4.098-6.857c-0.033-0.273,0.163-0.522,0.437-0.555c0.281-0.036,0.523,0.163,0.556,0.437
				c0.005,0.046,0.591,4.636,3.547,6.079c1.769,0.863,4.073,0.449,6.851-1.227c0.131-0.079,0.29-0.093,0.432-0.041
				c0.143,0.053,0.254,0.168,0.301,0.313c1.64,4.993,4.096,7.875,7.103,8.334c2.711,0.413,5.759-1.234,7.952-4.304
				c0.119-0.165,0.327-0.238,0.524-0.195c0.198,0.048,0.347,0.211,0.377,0.413c0.586,3.933,2.088,6.561,4.465,7.81
				c3.231,1.695,8.105,0.971,14.487-2.157c0.249-0.119,0.548-0.02,0.669,0.229c0.121,0.248,0.019,0.547-0.229,0.669
				C345.711,405.56,342.05,406.61,339.045,406.611z"/>
			<path style="fill:#292236;" d="M324.197,424.226c-1.599,0-3.952-0.271-5.447-1.675c-0.851-0.799-1.314-1.851-1.384-3.138
				c-3.732,2.214-7.244,2.694-9.733,1.302c-1.627-0.91-3.524-3.031-3.538-7.974c-2.663,0.477-4.701,0.02-6.064-1.363
				c-3.023-3.07-1.506-9.532-1.44-9.806c0.064-0.27,0.332-0.431,0.603-0.369c0.268,0.065,0.434,0.335,0.369,0.604
				c-0.015,0.062-1.453,6.197,1.182,8.871c1.207,1.225,3.141,1.548,5.747,0.962c0.151-0.032,0.309,0.005,0.428,0.103
				c0.119,0.098,0.186,0.245,0.182,0.399c-0.109,3.873,0.935,6.535,3.018,7.7c2.328,1.302,5.785,0.662,9.486-1.758
				c0.16-0.105,0.365-0.108,0.529-0.011c0.164,0.098,0.258,0.281,0.242,0.472c-0.117,1.405,0.238,2.508,1.054,3.274
				c2.036,1.913,6.292,1.316,6.335,1.309c0.27-0.032,0.527,0.149,0.567,0.423c0.04,0.272-0.148,0.526-0.421,0.566
				C325.841,424.128,325.154,424.226,324.197,424.226z"/>
			<path style="fill:#292236;" d="M302.213,437.733c-0.008,0-0.015,0-0.023-0.001c-0.092-0.004-9.014-0.478-9.489-6.991
				c-3.768,0.337-6.357-0.474-7.692-2.403c-2.668-3.858,0.776-10.686,0.924-10.974c0.126-0.245,0.428-0.342,0.672-0.218
				c0.246,0.126,0.343,0.428,0.218,0.673c-0.034,0.065-3.321,6.585-0.991,9.951c1.171,1.691,3.621,2.342,7.293,1.923
				c0.141-0.017,0.283,0.029,0.389,0.124c0.106,0.095,0.167,0.23,0.167,0.373c-0.002,6.092,8.468,6.54,8.554,6.544
				c0.276,0.012,0.489,0.245,0.477,0.521C302.7,437.523,302.479,437.733,302.213,437.733z"/>
			<path style="fill:#292236;" d="M296.993,320.392c-1.394,0-2.837-0.275-4.087-1.073c-2.024-1.291-3.141-3.693-3.325-7.148
				c-2.853,2.191-7.094,3.254-10.002,1.369c-2.117-1.371-5.067-5.405-1.036-17.021c6.742-19.424,24.921-34.493,25.104-34.644
				c0.213-0.177,0.528-0.144,0.704,0.069c0.175,0.214,0.144,0.529-0.07,0.704c-0.181,0.148-18.146,15.045-24.793,34.198
				c-3.808,10.971-1.237,14.642,0.635,15.852c2.79,1.809,7.065,0.428,9.588-1.95c0.145-0.137,0.358-0.174,0.541-0.095
				s0.302,0.26,0.302,0.459c0,3.662,0.972,6.139,2.89,7.362c3.473,2.217,8.988-0.304,9.043-0.329
				c0.252-0.118,0.548-0.008,0.665,0.242c0.116,0.251,0.007,0.548-0.243,0.664C302.739,319.131,299.978,320.392,296.993,320.392z"/>
			<path style="fill:#292236;" d="M284.648,302.22c-0.364,0-0.724-0.044-1.07-0.129c-1.558-0.383-2.949-1.714-2.545-3.822l0,0
				c0.449-2.342,1.743-4.006,3.55-4.564c1.423-0.441,2.919-0.108,3.901,0.867c0.968,0.962,1.257,2.397,0.793,3.936
				C288.508,301.06,286.527,302.22,284.648,302.22z M285.818,294.518c-0.312,0-0.629,0.046-0.939,0.142
				c-1.443,0.446-2.486,1.83-2.863,3.797l0,0c-0.3,1.565,0.783,2.413,1.801,2.663c1.677,0.419,3.765-0.451,4.504-2.901
				c0.359-1.19,0.167-2.233-0.541-2.936C287.279,294.785,286.565,294.518,285.818,294.518z M281.524,298.362h0.01H281.524z"/>
			<path style="fill:#292236;" d="M286.811,309.078c-0.618,0-1.21-0.202-1.623-0.587c-0.578-0.538-0.735-1.355-0.431-2.239
				c0,0,0,0,0.001,0c0.642-1.871,2.05-2.661,3.104-2.475c0.81,0.143,1.665,0.912,1.635,2.646c-0.02,1.127-0.595,2.014-1.579,2.432
				C287.563,309.005,287.182,309.078,286.811,309.078z M285.703,306.576c-0.177,0.517-0.121,0.915,0.167,1.184
				c0.374,0.348,1.07,0.422,1.657,0.174c0.355-0.15,0.953-0.55,0.97-1.528c0.017-0.936-0.286-1.551-0.809-1.643
				C287.059,304.649,286.157,305.252,285.703,306.576L285.703,306.576z"/>
			<path style="fill:#292236;" d="M406.562,322.308c-1.586,0-3.277-0.676-5.051-2.022c-0.22-0.167-0.263-0.48-0.096-0.701
				c0.166-0.219,0.479-0.264,0.701-0.096c2.195,1.666,4.199,2.192,5.954,1.555c4.009-1.45,5.658-8.396,5.674-8.465
				c0.061-0.264,0.324-0.432,0.586-0.378c0.046,0.007,4.659,0.887,7.804-2.345c3.359-3.451,3.937-10.131,1.718-19.853
				c-5.826-25.522-31.506-39.274-31.765-39.41c-0.245-0.129-0.338-0.431-0.21-0.675c0.129-0.244,0.431-0.337,0.675-0.21
				c0.263,0.138,26.344,14.094,32.274,40.073c2.302,10.082,1.634,17.074-1.984,20.782c-2.944,3.016-6.885,2.854-8.238,2.69
				c-0.454,1.658-2.264,7.308-6.191,8.731C407.813,322.2,407.195,322.308,406.562,322.308z"/>
			<path style="fill:#292236;" d="M416.18,300.67c-1.579,0-2.854-0.635-3.712-1.857c-1.853-2.641-1.42-7.596,0.043-10.672
				c0.758-1.593,1.687-2.473,2.688-2.545c2.586-0.172,5.536,5.064,5.876,9.114c0.292,3.477-1.27,5.639-4.287,5.931
				C416.58,300.66,416.378,300.67,416.18,300.67z M415.234,286.095l0.036,0.499c-0.594,0.042-1.288,0.781-1.857,1.977
				c-1.348,2.835-1.72,7.395-0.126,9.668c0.757,1.079,1.901,1.556,3.404,1.406c3.111-0.301,3.56-2.804,3.387-4.852
				c-0.338-4.019-3.139-8.355-4.809-8.199L415.234,286.095z"/>
			<path style="fill:#292236;" d="M411.838,307.794c-0.723,0-1.429-0.146-1.986-0.446c-0.886-0.477-1.37-1.299-1.362-2.314l0,0
				c0.012-1.504,1.032-2.487,2.662-2.568c1.89-0.076,4.15,1.054,4.33,2.729c0.077,0.718-0.28,1.381-1.003,1.868
				C413.761,307.544,412.784,307.794,411.838,307.794z M409.489,305.041c-0.005,0.646,0.276,1.125,0.836,1.426
				c0.96,0.518,2.64,0.406,3.594-0.234c0.284-0.19,0.613-0.508,0.567-0.933c-0.105-0.984-1.765-1.914-3.286-1.836
				C410.425,303.502,409.499,303.807,409.489,305.041L409.489,305.041z"/>
			<path style="fill:#292236;" d="M288.258,192.424c-0.167,0-0.331-0.084-0.425-0.236c-2.489-4.015-5.521-7.059-5.551-7.089
				c-0.196-0.195-0.196-0.512-0.001-0.707c0.195-0.196,0.512-0.195,0.707-0.001c0.127,0.127,3.145,3.157,5.694,7.27
				c0.145,0.235,0.073,0.543-0.161,0.688C288.439,192.399,288.348,192.424,288.258,192.424z"/>
		</g>
		<path style="fill:#292236;" d="M153.788,444.259c-12.45,0.001-26.072-5.486-26.852-5.805c-0.208-0.085-0.334-0.298-0.308-0.522
			c0.026-0.223,0.198-0.401,0.42-0.435l20.563-3.175c0.276-0.041,0.528,0.146,0.57,0.418c0.042,0.272-0.145,0.528-0.418,0.57
			l-18.684,2.885c6.052,2.188,26.156,8.649,36.975,2.324c0.24-0.137,0.545-0.059,0.684,0.18c0.139,0.238,0.059,0.544-0.179,0.684
			C162.961,443.487,158.456,444.259,153.788,444.259z"/>
		<path style="fill:#292236;" d="M207.132,428.728c-0.186,0-0.363-0.104-0.45-0.281c0,0-5.975-12.258-12.295-25.171
			c-1.398,9.105,2.19,16.296,2.229,16.371c0.126,0.246,0.028,0.548-0.218,0.673c-0.246,0.123-0.547,0.028-0.672-0.218
			c-0.172-0.337-4.186-8.361-2.047-18.516c0.044-0.208,0.216-0.366,0.428-0.393c0.212-0.029,0.417,0.085,0.511,0.276
			c6.561,13.401,12.964,26.539,12.964,26.539c0.121,0.248,0.018,0.547-0.23,0.668C207.279,428.711,207.205,428.728,207.132,428.728z
			"/>
		<path style="fill:#292236;" d="M190.974,443.497c-0.039,0-0.078-0.004-0.117-0.014c-68.145-16.294-87.785-48.798-87.976-49.124
			c-0.139-0.238-0.059-0.544,0.18-0.684c0.239-0.138,0.545-0.059,0.684,0.18c0.189,0.322,19.662,32.472,87.345,48.655
			c0.269,0.064,0.434,0.334,0.37,0.603C191.405,443.343,191.2,443.497,190.974,443.497z"/>
		<path style="fill:#292236;" d="M161.245,332.246c-0.273,0-0.496-0.22-0.5-0.493c-0.029-2.18,4.62-23.074,20.786-27.96
			c-11.737-5.055-19.882,1.558-19.966,1.628c-0.211,0.178-0.527,0.148-0.704-0.064c-0.177-0.212-0.149-0.526,0.063-0.704
			c0.091-0.077,9.29-7.578,22.289-1.184c0.189,0.093,0.3,0.295,0.276,0.504c-0.024,0.21-0.176,0.382-0.381,0.431
			c-16.464,3.91-21.388,25.458-21.363,27.336c0.003,0.276-0.217,0.503-0.493,0.507C161.249,332.246,161.247,332.246,161.245,332.246
			z"/>
		<path style="fill:#292236;" d="M80.674,369.906c-0.107,0-0.215-0.034-0.306-0.105c-0.282-0.22-6.942-5.57-10.486-22.425
			c-3.461-16.458-18.22-25.049-18.369-25.134c-0.161-0.093-0.258-0.267-0.251-0.452c0.006-0.186,0.115-0.353,0.283-0.433
			c0.205-0.1,20.641-9.686,32.843,6.024c0.17,0.218,0.13,0.532-0.088,0.701c-0.219,0.171-0.532,0.13-0.702-0.088
			c-10.307-13.27-26.831-7.689-30.763-6.104c3.228,2.115,14.956,10.682,18.025,25.28c3.458,16.446,10.056,21.789,10.123,21.842
			c0.217,0.17,0.255,0.484,0.085,0.701C80.97,369.84,80.823,369.906,80.674,369.906z"/>
		<path style="fill:#292236;" d="M276.685,141.19c-2.42,0-4.45-0.413-6.063-0.948c-4.443-1.473-6.721-4.099-6.816-4.21
			c-0.179-0.21-0.154-0.525,0.056-0.704c0.209-0.179,0.524-0.155,0.704,0.054c0.355,0.414,8.884,10.024,25.35,0.999
			c0.242-0.134,0.546-0.044,0.679,0.198c0.133,0.242,0.044,0.546-0.198,0.679C284.983,140.227,280.379,141.19,276.685,141.19z"/>
	</g>
</g>
</svg>
