<?xml version="1.0" encoding="utf-8"?>
<!-- Generator: Adobe Illustrator 27.5.0, SVG Export Plug-In . SVG Version: 6.00 Build 0)  -->
<svg xmlns="http://www.w3.org/2000/svg" xmlns:xlink="http://www.w3.org/1999/xlink" viewBox="0 0 5000 3500" width="595" height="842" preserveAspectRatio="xMidYMid meet" data-scaled="true">
<g>
	<path d="M4947.381,3021.997c-2.38-0.28-4.827-0.01-7.244,0.024c-207.028,2.792-414.056,5.666-621.086,8.343
		c-93.445,1.209-186.896,2.076-280.346,2.88c-5.161,0.045-13.396,3.032-14.925-2.968c-1.587-6.227,7.147-7.248,11.733-9.474
		c22.258-10.803,39.626-27.326,55.565-45.728c3.885-4.485,5.979-9.359,15.292-6.419c56.713,17.91,78.442,6.053,98.073-52.561
		c2.57-7.675,5.359-10.551,13.212-9.521c34.714,4.554,54.629-17.216,68.634-43.328c10.275-19.155,16.842-34.725,44.167-29.785
		c16.025,2.895,29.888-10.94,39.786-23.968c8.204-10.802,15.42-22.746,20.851-35.157c6.125-14.001,12.597-21.965,30.256-24.414
		c47.165-6.541,65.754-32.627,60.948-80.307c-1.033-10.249,2.747-15.816,9.153-22.807c23.285-25.409,25.515-84.721,2.17-107.817
		c-9.504-9.404-10.974-17.517-10.545-28.792c0.824-21.643-3.604-41.982-20.008-57.432c-12.473-11.744-30.634-14.439-36.425,1.968
		c-9.313,26.383-15.912,15.702-26.658,2.948c-4.053-4.812-10.072-7.943-15.043-12.025c-1.726-1.417-4.293-3.451-4.222-5.104
		c0.206-4.7,4.636-3.606,7.431-3.587c25.775,0.181,51.551,0.518,77.323,1.027c4.726,0.094,9.555,0.437,12.391,5.644
		c22.64,41.563,59.347,71.676,88.48,107.981c20.532,25.585,34.531,24.28,52.891-1.931c38.429-54.864,70.714-113.359,101.164-172.91
		c5.547-10.849,9.586-22.181,10.403-34.448c0.559-8.398-0.427-16.685-8.573-21.133c-36.561-19.971-65.697-50.978-105.925-66.413
		c-21.3-8.172-44.119-14.608-63.915-27.404c-9.095-5.88-15.018-11.014-10.82-22.983c7.291-20.793,6.426-42.81,8.712-64.396
		c2.274-21.48-5.268-29.775-27.079-32.573c-120.587-15.473-241.007-32.27-361.44-48.935c-24.396-3.375-32.732,2.267-33.509,26.845
		c-0.705,22.324-0.15,44.687-0.15,67.981c-8.203-4.337-7.758-11.356-9.088-17.325c-4.553-20.418-8.479-40.981-13.358-61.317
		c-3.17-13.216-9.001-23.941-25.696-23.629c-29.76,0.557-59.443-2.228-89.325,0.537c-76.985,7.127-154.248,11.514-231.087,19.873
		c-50.648,5.508-103.106-0.518-151.586,22.621c-9.366,4.471-23.89,3.648-25.977-15.135c-1.896-17.062,6.815-18.079,19.618-18.822
		c73.977-4.296,147.9-9.528,221.885-13.665c65.072-3.639,130.214-16.961,195.202-9.2c168.744,20.151,338.013,34.81,507.12,51.067
		c25.944,2.494,28.846,10.074,29.333,34.393c0.813,40.645-1.027,85.034,46.163,108.301c28.969,14.283,45.343,10.709,55.836-20.432
		c9.744-28.916,17.436-58.616,24.408-88.351c10.897-46.464-1.15-61.177-49.271-61.996c-6.265-0.107-12.572,2.27-18.86,3.489
		c-19.639,3.809-39.678,12.293-58.855,10.663c-125.982-10.712-251.794-23.446-377.629-35.854
		c-63.269-6.24-126.634-19.957-189.662-18.401c-132.779,3.28-265.025,19.776-397.902,24.146
		c-20.735,0.681-27.944,10.048-24.149,28.754c3.616,17.819-3.005,21.349-19.991,20.849c-103.785-3.059-207.59-13.87-311.415-3.654
		c-52.408,5.156-106.701-2.645-156.682,20.811c-3.275,1.537-6.333,2.254-8.623-0.628c-13.518-17.017-32.487-11.014-49.505-11.277
		c-288.921-4.478-577.936,9.324-866.826-4.681c-41.813-2.028-83.772-0.982-125.661-1.546c-12.844-0.174-25.767,0.406-38.335-3.528
		c-72.186-22.592-144.515-44.667-216.221-68.852c-28.009-9.447-38.085-28.91-46.493-52.891
		c-4.481-12.778,1.122-13.406,11.449-11.698c23.027,3.809,46.324,8.133,69.57,4.218c13.667-2.302,28.42-14.507,29.805,12.706
		c0.381,7.493,10.248,12.499,17.732,15.162c16.471,5.863,28.073,18.004,41.221,28.499c54.999,43.899,109.794,75.68,188.387,72.864
		c181.789-6.512,364.06,2.064,546.106,0.689c177.019-1.337,354.349,9.037,530.94-14.772
		c177.16-23.885,354.741-44.642,532.111-66.974c37.476-4.719,75.244-16.431,111.606-17.116
		c46.108-0.869,90.921-7.203,136.112-12.599c36.814-4.395,36.68-5.467,38.739-41.231c0.339-5.889-2.231-15.139,9.37-7.998
		c26.134,16.087,55.7,14.014,84.471,15.4c31.835,1.532,41.719-3.81,48.445-33.952c15.495-69.44,12.481-139.173-2.954-208.383
		c-2.536-11.373-8.939-22.764-21.943-22.581c-17.603,0.247-18.699-9.971-20.04-22.964c-1.714-16.628-1.577-36.291-21.406-42.234
		c-14.023-4.203-16.515-11.728-16.725-24.094c-3.338-195.822,0.348-391.512,11.381-587.042
		c10.165-180.157,24.747-359.956,45.421-539.239c0.826-7.17,5.521-18.829-6.108-19.883c-11.145-1.011-9.282,11.078-10.057,18.472
		c-7.469,71.28-15.28,142.534-21.802,213.903c-27.734,303.502-41.071,607.576-34.387,912.374c0.332,15.093-2.3,25.208-17.237,32.469
		c-15.711,7.637-24.959,23.056-30.888,38.992c-4.93,13.255-12.456,15.589-25.553,14.841c-48.249-2.755-96.567-4.394-144.879-5.822
		c-10.606-0.314-17.107-2.842-22.538-13.184c-13.059-24.87-33.693-41.905-62.534-43.445c-16.749-0.895-19.032-8.273-19.541-22.383
		c-10.943-303.512-23.464-606.976-26.093-910.727c-0.049-5.632,0.018-11.3-0.596-16.882c-0.55-4.996-2.529-9.709-8.748-9.331
		c-6.039,0.368-7.82,5.177-8.003,10.154c-0.355,9.653-0.308,19.331-0.122,28.993c5.646,291.582,13.419,583.098,27.164,874.431
		c2.127,45.073,1.697,44.791-42.336,44.551c-39.456-0.215-78.944-1.66-118.353,2.047c-16.4,1.542-32.906,2.174-37.359,23.021
		c-1.338,6.268-6.375,6.038-11.449,5.654c-41.741-3.155-83.476-6.411-125.243-9.18c-10.069-0.667-12.969-5.252-14.462-14.877
		c-6.758-43.548-7.154-43.064-52.43-42.107c-16.344,0.346-27.187,3.564-23.979,23.168c0.603,3.686,0.628,10.17-1.18,11.05
		c-5.977,2.909-8.364-3.669-10.325-7.243c-20.401-37.198-52.586-51.395-93.586-49.005c-0.796,0.046-1.611-0.228-2.406-0.177
		c-13.479,0.877-22.109-4.854-28.421-17.175c-8.22-16.047-21.459-25.67-40.865-24.35c-15.992,1.088-26.312-4.342-31.301-21.756
		c-6.93-24.188-24.48-35.522-50.528-36.689c-63.608-2.847-127.239-2.563-190.835-4.052c-28.632-0.67-44.167,9.121-50.49,35.671
		c-2.651,11.132-6.751,17.775-20.306,18.996c-39.069,3.517-38.998,4.307-37.575-35.679c0.028-0.806,0.155-1.629,0.04-2.415
		c-2.494-17.116,5.193-21.92,21.791-21.425c40.246,1.201,80.566-0.097,120.814,1.085c23.106,0.679,30.906-8.311,25.048-30.314
		c-1.442-5.417-2.163-11.065-2.789-16.654c-2.442-21.812-13.881-29.834-36.089-27.925c-35.286,3.033-70.777,3.739-106.192,5.14
		c-6.014,0.238-15.468,4.326-17.448-3.058c-9.94-37.072-38.185-29.816-64.458-28.288c-36.968,2.15-70.484,26.566-109.447,16.751
		c-4.791-1.207-9.679,3.81-9.694,8.894c-0.051,16.062-11.286,15.132-21.699,14.909c-41.701-0.897-83.469-0.543-125.128-1.291
		c-47.883-0.862-96.344,3.06-144.54,5.238c-26.555,1.2-53.1,2.794-79.608,4.783c-8.542,0.641-19.614,1.007-19.151,13.289
		c0.4,10.649,10.292,10.66,18.363,11.295c9.637,0.756,19.28,1.489,28.935,1.963c108.592,5.326,217.183,10.693,325.786,15.761
		c11.946,0.558,22.983,0.496,23.519,16.665c0.598,18.081,11.259,23.38,27.597,21.007c30.417-4.42,48.075,29.213,78.106,26.379
		c1.173-0.111,2.729,3.661,4.081,5.641c5.261,7.7,10.511,15.406,15.765,23.109c-9.384,4.945-18.712-0.037-28.028-0.398
		c-11.965-0.465-22.294-3.669-17.459,16.519c4.16,17.368-16.801,49.84-29.628,51.786c-116.232,17.635-232.515,34.936-348.722,52.735
		c-12.188,1.867-18.086,1.162-15.179-13.719c3.9-19.966-6.149-28.122-25.837-27.083c-16.883,0.892-33.845,0.251-50.737,1.047
		c-21.825,1.028-48.065,21.979-47.597,43.459c0.453,20.824-9.808,20.585-23.046,18.521c-46.412-7.237-88.76,5.522-130.914,23.182
		c-37.08,15.534-77.626,24.232-112.211,43.788c-22.859,12.925-43.913,17.853-67.41,14.318
		c-39.609-5.957-70.611,12.613-100.041,33.505c-12.154,8.629-22.967,12.122-37.067,12.076
		c-94.259-0.306-188.519-0.073-282.779-0.103c-7.797-0.002-16.13,2.29-22.254-5.603c-8.323-10.725-20.725-11.724-32.855-12.103
		c-74.079-2.311-148.167-4.356-222.251-6.557c-9.895-0.294-19.845-0.207-26.33,8.63c-7.904,10.77-18.937,10.319-30.357,10.387
		c-157.903,0.949-315.803,2.052-473.705,2.985c-7.006,0.042-14.781,2.556-20.739-3.412c-32.099-32.162-71.411-28.119-111.095-22.296
		c-5.339,0.782-10.07,5.25-16.097,1.837c-36.867-20.881-77.33-8.565-116.068-12.107c-13.222-1.208-20.542,7.756-22.82,20.349
		c-5.771,31.925-6.686,64.078-3.116,96.275c1.865,16.821,11.154,26.129,29.042,25.302c31.988-1.479,64.787,2.967,94.952-11.926
		c8.234-4.066,13.556,0.62,20.01,3.426c38.256,16.635,77.082,15.214,115.208,0.77c9.415-3.568,17.683-5.2,27.457-4.885
		c153.78,4.959,307.569,9.635,461.359,14.294c19.483,0.59,39.958-4.746,54.925,14.877c5.52,7.236,16.385,5.505,25.204,5.722
		c65.234,1.602,130.508,2.259,195.678,5.219c17.657,0.801,32.276-10.559,48.814-8.486c96.007,12.037,192.803,13.204,289.067,21.595
		c11.016,0.961,19.573,2.521,26.128,13.037c17.356,27.84,43.986,43.795,73.965,55.506c69.757,27.25,141.172,49.658,212.023,73.721
		c5.238,1.779,14.735,5.633,14.492,6.629c-2.016,8.26-10.084,5.564-15.861,6.376c-91.699,12.876-183.664,24.048-275.083,38.661
		c-76.769,12.27-152.712,28.585-215.644-37.401c-11.883-12.461-23.364-6.802-31.255,6.788c-8.49,14.621-17.808,28.891-24.801,44.21
		c-5.959,13.054-11.468,12.208-20.904,3.97c-10.899-9.516-22.946-17.705-34.184-26.85c-6.575-5.35-13.256-8.323-22.084-7.13
		c-18.354,2.482-36.766,4.845-55.233,6.073c-17.549,1.168-24.169,10.104-22.827,26.833c0.578,7.214,0.983,14.548,0.361,21.73
		c-1.513,17.46,6.767,22.719,23.079,21.167c24.347-2.315,48.795-3.575,73.201-5.284c-22.372,7.623-45.587,11.089-67.429,18.566
		c-70.267,24.052-140.822,45.044-216.439,40.066c-14.144-0.931-27.023,3.866-36.898,14.82
		c-31.813,35.291-63.729,70.489-95.332,105.967c-6.897,7.741-15.283,16.525-8.233,27.755c6.905,11.002,15.964,20.521,31.072,19.324
		c4.557-0.36,10.683-4.069,13.306,1.35c17.115,35.367,54.409,46.315,82.349,68.477c7.582,6.015,11.181,12.771,13.755,21.523
		c14.759,50.185,29.229,100.472,45.169,150.285c13.442,42.012,46.743,51.52,80.033,22.893c8.44-7.258,13.684-8.656,22.251-2.282
		c9.576,7.124,22.235,9.74,29.7,20.067c0.477-0.171,0.954-0.342,1.431-0.513c-0.253,0.301-0.505,0.601-0.694,0.941
		c-15.296-3.832-32.822-11.976-44.196,4.12c-10.623,15.034-4.371,32.468,3.034,48.225c10.652,22.663,29.262,32.685,53.107,28.578
		c21.353-3.677,30.989,1.553,36.582,23.926c8.343,33.373,28.164,46.374,62.744,42.793c18.074-1.873,22.817,4.2,27.116,19.988
		c10.087,37.051,35.672,53.363,72.814,45.526c14.549-3.071,15.742,2.687,18.613,12.955c9.7,34.687,32.191,52.305,66.182,51.8
		c8.695-0.13,17.349-2.918,26.023-4.481c15.472-2.789,37.365,13.641,39.571,30.918c2.294,17.973-12.912,21.373-24.734,23.629
		c-15.632,2.981-31.991,2.957-48.031,2.876c-476.932-2.395-953.863-4.957-1430.794-7.48c-5.631-0.03-11.301-0.293-16.878,0.277
		c-4.044,0.412-8.094,2.384-8.429,7.112c-0.412,5.836,3.465,8.723,8.799,9.302c4.788,0.518,9.649,0.478,14.48,0.498
		c481.77,2.048,963.539,4.09,1445.309,6.042c12.874,0.053,25.907,0.232,38.597-1.559c28.724-4.056,41.886-22.211,35.016-50.288
		c-3.289-13.442,2.291-8.409,8.73-7.007c16.96,3.694,29.082,7.939,29.381,31.061c0.283,21.987,18.46,32.158,40.891,32.021
		c22.602-0.138,44.592-1.754,52.981-27.757c2.896-8.979,0.699-19.588,16.02-17.975c13.073,1.376,23.655,0.607,26.412,19.048
		c3.273,21.9,21.793,28.199,42.02,28.025c20.854-0.179,41.722-3.078,50.115-25.473c3.673-9.798,4.276-17.373,17.472-16.847
		c12.728,0.508,19.533,3.609,23.647,17.495c5.33,17.995,21.64,25.301,39.847,25.869c19.116,0.598,37.623-2.617,48.846-20.351
		c17.09-27.005,25.135-27.102,43.66,0.898c18.485,27.936,73.081,26.212,89.075-2.815c11.023-20.004,28.986-20.318,41.288-0.721
		c19.608,31.235,69.304,33.014,91,3.259c13.912-19.077,26.005-18.82,41.282,0.882c20.798,26.819,68.189,26.064,88.236-1.408
		c12.061-16.524,28.021-16.132,40.66,1.001c20.659,28.002,69.25,27.471,89.408-0.977c9.235-13.032,27.614-14.972,37.863-3.997
		c26.693,28.582,60.729,30.502,91.046,5.791c15.731-12.823,31.886-11.812,47.244,1.334c25.403,21.742,61.72,20.372,84.474-3.245
		c13.705-14.225,30.855-13.852,44.597,0.97c22.918,24.718,63.684,24.782,85.877,0.138c14.518-16.122,29.769-15.926,44.88,0.577
		c21.319,23.28,65.686,22.876,86.598-0.787c13.605-15.395,29.212-15.781,43.502-1.076c23.87,24.561,67.527,24.176,90.66-0.718
		c13.327-14.34,27.631-13.373,41.183-0.985c26.872,24.564,60.663,26.055,88.949,2.523c14.463-12.031,29.009-11.887,43.304-1.253
		c24.781,18.436,59.329,20.52,85.167,2.744c15.942-10.969,31.315-10.204,47.032-1.495c25.096,13.908,51.42,13.964,76.71,3.674
		c21.624-8.8,41.01-8.811,62.474-0.206c23.01,9.225,47.309,9.362,70.625-0.353c18.762-7.817,36.964-8.714,55.707-0.184
		c24.705,11.244,49.867,12.487,74.768,0.76c17.058-8.032,34.794-8.343,51.604-2.257c28.652,10.374,56.751,9.724,85.195,0.842
		c11.775-3.677,23.045-6.007,35.042,0.102c22.901,11.662,47.881,13.485,73.003,13.151c301.277-4.015,602.553-8.114,903.827-12.361
		c7.342-0.104,19.541,3.364,19.466-7.788C4966.926,3018.777,4954.803,3022.87,4947.381,3021.997z M4599.01,2084.552
		c19.635-3.997,38.384-10.269,58.68-2.166c10.237,4.087,13.785,9.278,11.609,19.829c-7.478,36.234-17.11,71.831-29.794,106.612
		c-5.08,13.927-14.043,16.26-26.464,10.167c-18.813-9.227-33.548-21.052-35.178-44.58c-1.271-18.346-5.11-36.516-7.808-54.765
		C4565.634,2095.957,4578.884,2088.649,4599.01,2084.552z M4045.063,1629.053c10.646-1.581,11.375,10.931,13.189,19.376
		c0.84,3.903,1.624,7.844,2.04,11.809c0.835,7.981,2.841,16.932-9.813,17.124c-11.549,0.176-8.831-8.95-9.595-15.503
		c-0.459-3.941-0.084-7.979-0.084-15.87C4041.433,1642.568,4034.992,1630.55,4045.063,1629.053z M3989.663,1670.366
		c3.165-15.383,10.915-33.602,26.69-36.442c12.5-2.25,3.066,14.858,6.382,19.856c1.939,15.612,1.169,27.33-17.123,24.033
		C3999.64,1676.735,3987.415,1681.289,3989.663,1670.366z M3975.796,1723.943c0.122-10.392-0.176-24.244,9.899-27.66
		c12.015-4.073,27.658-6.486,38.532,4.095c8.023,7.808,11.703,12.131,19.033-0.716c4.729-8.289,10.789-6.312,14.906,3.544
		c5.082,12.166,11.631,10.154,18.973,0.292c9.299-12.491,22.769-10.109,26.067,5.971c13.83,67.452,18.017,135.257,0.602,202.882
		c-2.181,8.469-5.74,16.935-17.465,16.61c-23.28-0.642-46.691-0.586-69.418-6.13c-24.201-5.902-36.446-22.705-37.099-47.149
		c-0.707-26.47-0.16-52.974-0.16-79.464c-1.32-0.001-2.639-0.001-3.958-0.002
		C3975.706,1772.125,3975.514,1748.032,3975.796,1723.943z M2700.509,1414.473c1.762-8.322-3.48-20.705,12.493-21.234
		c39.422-1.304,78.827-3.138,118.246-4.558c22.688-0.817,16.09,18.704,18.688,29.875c3.654,15.716-10.654,9.737-17.52,10.068
		c-18.474,0.891-37.02,0.304-55.537,0.304c0-0.261,0-0.522,0-0.782c-20.934,0-41.871-0.244-62.798,0.106
		C2704.151,1428.419,2698.184,1425.463,2700.509,1414.473z M2274.501,1407.99c-0.006-0.987-0.013-1.974-0.02-2.961
		c23.024,0,46.046,0,69.069,0c0.022,0.987,0.046,1.974,0.069,2.961C2320.58,1407.99,2297.54,1407.99,2274.501,1407.99z
		 M354.626,1816.779c-0.031,14.358-3.535,29.045,1.448,42.849c5.229,14.483-2.495,18.93-13.784,21.753
		c-24.389,6.098-49.322,5.115-74.157,5.444c-9.732,0.129-11.577-5.996-12.562-13.927c-3.49-28.094-0.895-56.011,1.522-83.986
		c0.941-10.879,7.414-12.888,16.497-12.323c12.001,0.747,24.013,1.293,40.225,2.149c-0.196,0,3.83-0.251,7.815,0.046
		c13.444,1.001,29.457-4.583,39.701,4.53C374.051,1794.629,354.652,1804.519,354.626,1816.779z M374.485,1842.596
		c-4.212-10.496-3.165-19.39,0.862-29.591C379.098,1823.453,378.663,1832.366,374.485,1842.596z M469.388,1886.596
		c-23.243,2.586-46.336,3.871-69.147-3.643c-12.06-3.971-17.307-9.862-12.108-23.053c5.693-14.442,7.434-30.491,4.529-45.121
		c-4.78-24.071,6.58-29.853,26.673-29.638c5.618,0.059,11.237,0.008,16.855,0.008c0.022-0.414,0.044-0.83,0.065-1.245
		c9.562,0.924,19.39,0.755,28.635,2.992c21.274,5.147,22.368,10.634,9.588,27.306c-14.001,18.268-8.063,37.273,3.675,53.458
		C488.491,1881.918,482.7,1885.115,469.388,1886.596z M497.43,1864.813c-10.41-0.858-13.277-14.393-13.806-25.021
		c-0.454-9.128,1.891-21.25,11.861-19.706c11.867,1.837,5.981,15.761,8.158,24.234
		C501.853,1851.804,505.907,1865.511,497.43,1864.813z M1014.511,1831.442c-0.872,3.853-0.405,8.027-0.432,12.054
		c-0.316,45.978-0.309,45.971-47.576,44.512c-140.105-4.323-280.2-9.01-420.324-12.579c-22.029-0.562-33.517-5.154-25.553-29.573
		c3.22-9.87-6.658-23.947,1.278-29.194c8.083-5.345,21.688-2.875,32.878-2.902c70.895-0.172,141.79-0.087,212.684-0.087
		c0.001-1.29,149.842-3.388,224.749-4.237C1009.27,1809.242,1018.961,1811.785,1014.511,1831.442z M1280.102,1891.71
		c7.541,18.366,2.323,20.664-13.095,20.385c-67.442-1.219-134.886-2.313-202.323-3.779c-20.091-0.437-28.989-9.749-24.572-31.077
		c4.075-19.676,6.765-40.489,2.191-59.858c-5.631-23.839,5.828-25.745,23.859-25.486c34.509,0.497,103.546,4.241,103.546,6.289
		c36.122,0,72.245-0.162,108.365,0.184c5.044,0.048,12.526-2.394,14.695,4.251c1.768,5.413-5.519,6.731-8.545,10.066
		C1261.406,1837.845,1269.603,1866.141,1280.102,1891.71z M1306.608,1844.153c0,5.691,0.323,8.138-0.054,10.469
		c-1.888,11.646,2.649,30.537-9.413,32.023c-8.011,0.987-6.379-20.358-8.832-31.759c-0.495-2.297-0.391-4.8-0.142-7.164
		c1.075-10.211,0.798-26.118,11.972-25.514C1314.599,1822.988,1301.869,1839.335,1306.608,1844.153z M1596.396,1926.231
		c-20.053-1.511-40.151-2.416-60.232-3.575c0.006-0.106,0.012-0.214,0.018-0.32c-66.638-4.286-133.269-8.683-199.919-12.777
		c-15.743-0.967-25.917-2.833-17.768-23.711c6.638-17.007,7.053-36.273,6.167-54.86c-0.459-9.634,1.701-15.237,12.803-15.25
		c92.532-0.104,185.064-0.4,277.595-0.803c10.905-0.047,10.006,4.326,5.624,11.562c-16.247,26.821-19.886,55.899-13.149,86.037
		C1610.04,1923.732,1607.417,1927.062,1596.396,1926.231z M1628.626,1871.13c-1.726,12.302,2.752,25.171-3.4,37.038
		c-1.223-0.742-3.298-1.276-3.538-2.259c-3.29-13.449-3.068-26.977,0.152-40.387c0.473-1.974,2.749-3.516,5.82-7.225
		C1628.146,1864.059,1629.108,1867.696,1628.626,1871.13z M1890.861,1950.708c3.81-21.356,14.348-39.169,26.082-56.449
		c37.198-54.782,81.489-103.661,127.549-150.97c8.235-8.457,16.561-16.396,30.518-16.884
		c136.699-4.782,273.081-15.155,409.489-24.808c21.911-1.551,23.741,2.978,16.323,22.618
		c-33.514,88.716-65.936,177.854-97.688,267.218c-5.431,15.289-11.362,22.972-28.71,19.91c-14.17-2.502-28.851-2.109-43.305-2.999
		c-139.619-9.63-279.583-14.068-418.906-28.444C1890.696,1977.679,1887.574,1969.135,1890.861,1950.708z M3808.61,1687.829
		c46.7-0.39,93.299,1.376,139.855,5.003c8.622,0.672,14.618,2.66,11.449,12.713c-24.193,76.76-6.929,153.203,2.327,229.543
		c2.135,17.61-2.074,25.069-19.72,26.956c-34.378,3.677-68.673,8.24-102.907,13.098c-17.613,2.499-25.194-2.933-24.17-21.835
		c1.304-24.047,0.316-48.218,0.316-72.337c-0.515-60.312-2.844-120.651-19.042-179.323
		C3793.511,1690.027,3798.52,1687.913,3808.61,1687.829z M3717.226,1627.604c20.502,3.495,35.826,13.577,45.417,32.115
		c1.342,2.595,4.618,5.312,1.819,8.249c-2.91,3.052-5.91,0.579-8.259-1.628c-10.098-9.49-22.738-6.793-34.511-6.677
		c-12.611,0.125-21.144-2.457-18.344-16.013C3701.147,1630.787,3704.468,1625.429,3717.226,1627.604z M3668.907,1629.434
		c14.139-2.709,18.048,4.646,17.872,17.473c-0.143,10.425-5.568,13.228-13.648,9.905c-8.622-3.547-24.386,6.596-25.124-13.097
		C3647.387,1627.129,3658.275,1628.85,3668.907,1629.434z M3516.386,1630.295c17.597-0.328,35.204-0.118,52.807-0.118
		c0.001-0.64,0.001-1.279,0.002-1.919c16.018,0,32.036,0.041,48.053-0.016c8.776-0.032,15.154,1.021,14.791,12.943
		c-0.391,12.807-6.721,14.007-16.979,13.064c-32.691-3.004-65.428-5.499-98.141-8.268c-4.551-0.385-10.351,0.477-11.21-6.071
		C3504.69,1632.118,3510.622,1630.403,3516.386,1630.295z M3424.815,1656.192c15.082,1.538,30.164,3.076,48.644,4.961
		c-17.838,0-33.404,0-48.97,0C3424.598,1659.499,3424.707,1657.846,3424.815,1656.192z M3437.671,1678.777
		c49.88,0.959,149.683,6.274,149.68,9.228c49.1,0,98.203,0.408,147.292-0.28c12.716-0.178,18.849,3.541,21.343,16.351
		c9.399,48.274,14.844,97.004,19.451,145.913c1.764,18.724-5.069,22.612-23.001,22.382c-91.783-1.176-183.584-0.876-275.379-0.949
		c-8.831-0.007-17.857-0.027-26.455,1.668c-27.244,5.372-27.275,5.688-28.063-23.531c-1.369-50.706-2.198-101.431-4.159-152.112
		C3417.798,1682.367,3422.874,1678.493,3437.671,1678.777z M3770.836,1893.189c1.052,9.441-7.992,13.064-16.452,14.161
		c-8.755,1.137-17.6,2.145-26.41,2.188c-44.228,0.217-88.457,0.099-132.685,0.099c0,0.146,0,0.292-0.001,0.438
		c-48.249,0-96.499,0.139-144.746-0.164c-6.569-0.041-16.624,1.446-17.628-7.1c-0.77-6.552,9.219-7.634,14.624-10.575
		c11.048-6.008,23.448-4.903,35.454-4.901c90.07,0.007,180.142,0.061,270.209,0.497
		C3759.294,1887.861,3769.666,1882.686,3770.836,1893.189z M3425.455,1920.988c104.278,13.6,208.885,4.454,313.348,3.963
		c41.453-0.195,56.923-18.707,54.183-61.498c-3.396-53.043-8.828-105.892-19.69-158.032c-0.965-4.64-3.042-9.27,1.071-15.437
		c12.845,28.408,15.384,58.111,19.397,87.206c8.278,60.03,7.432,120.443,5.961,180.895c-0.411,16.869-10.066,19.907-22.822,21.677
		c-77.331,10.739-154.558,22.309-232.016,32.035c-150.972,18.959-302.047,37.105-453.134,55.135
		c-63.305,7.553-127.06,5.919-190.629,6.756c-289.948,3.816-579.867-2.197-869.802-3.111c-19.279-0.062-36.43-3.958-52.128-15.199
		c-22.241-15.925-44.873-31.306-67.101-47.249c-3.485-2.5-9.763-4.287-7.875-10.152c0.446-1.387,7.104-1.368,10.816-1.027
		c158.017,14.526,316.448,22.54,474.897,30.266c5.703,0.279,11.126,0.336,15.727,4.494c24.178,21.854,52.854,21.78,83.617,20.784
		c205.256-6.646,410.544-12.525,615.941-12.824c6.272-0.01,12.974-0.879,18.748-3.177c95.657-38.074,194.287-68.499,287.922-111.759
		C3416.247,1922.717,3420.141,1920.295,3425.455,1920.988z M3397.866,1654.054c-0.193,2.422-0.387,4.842-0.581,7.264
		c-34.873-1.528-69.751-2.962-104.613-4.701c-4.565-0.228-11.009-0.95-10.936-6.831c0.091-7.329,7.06-4.672,10.98-4.375
		C3327.784,1648.065,3362.82,1651.119,3397.866,1654.054z M3298.412,1591.609c20.521-1.466,16.711,15.213,18.231,26.832
		c1.963,15.002-9.602,10.925-22.787,11.746c-13.752,2.679-18.583-7.625-19.025-24.009
		C3274.308,1586.782,3288.565,1592.314,3298.412,1591.609z M3382.412,1677.545c16.31,0.362,20.3,6.227,20.468,21.207
		c0.726,65.197,2.016,130.394,4.015,195.563c0.392,12.782-4.145,18.021-15.482,22.822c-88.931,37.663-180.476,68.412-270.633,102.81
		c-8.66,3.303-18.971,3.109-28.519,3.128c-104.638,0.204-209.275,0.129-313.914,0.129c0.001,1.564,0.002,3.129,0.005,4.693
		c-103.802,2.872-207.604,5.753-311.406,8.586c-6.429,0.176-13.026,0.877-19.274-0.218c-26.688-4.68-35.358-19.578-26.924-44.622
		c30.549-90.722,64.758-180.101,98.142-269.79c5.82-15.634,14.036-21.671,30.717-24.014
		c112.325-15.777,224.236-34.667,336.745-48.896c54.271-6.863,108.97,5.407,163.55,7.875
		C3160.842,1661.83,3271.31,1675.081,3382.412,1677.545z M3258.178,1650.762c-0.209,6.362-10.294,3.19-15.788,2.829
		c-77.763-5.113-155.502-10.558-233.248-15.924c64.761-4.698,129.563,1.676,194.469,4.701c12.849,0.598,25.705,1.312,38.505,2.54
		C3248.088,1645.481,3258.422,1643.386,3258.178,1650.762z M3079.647,1529.261c10.984-0.556,22.406,3.128,24.895,14.109
		c1.931,8.533-7.714,2.456-12.932,4.231c-8.91-6.212-27.862,4.714-29.63-13.836
		C3061.112,1524.666,3073.396,1529.578,3079.647,1529.261z M3040.27,1533.264c-0.277,9.95-9.825,5.5-15.04,5.185
		c-80.146-4.855-160.267-10.137-240.393-15.318c81.366-3.926,161.594,0.151,241.81,4.44
		C3031.728,1527.842,3040.472,1526.039,3040.27,1533.264z M2790.745,1467.844c3.707-1.204,7.963-0.832,11.975-0.962
		c65.984-2.127,131.896-0.15,197.749,3.964c7.053,0.44,14.862,1.747,20.734,5.285c10.26,6.18,16.238,18.325,14.342,28.631
		c-2.103,11.426-14.852,4.492-22.653,4.622c-36.153,0.604-108.486-3.753-108.486-5.763c-36.993,0-73.992,0.31-110.976-0.278
		c-6.861-0.11-19.32,5.348-19.569-6.393C2773.623,1485.739,2776.705,1472.402,2790.745,1467.844z M2683.673,1495.47
		c0.159,8.103,1.599,17.225-11.45,15.035c-10.072-1.69-20.004-5.289-18.039-17.746c2.227-14.121,6.815-27.88,10.529-41.755
		c1.492-5.573,5.861-7.365,11.052-6.697c5.865,0.754,7.487,5.128,7.493,10.388c0.01,7.995,0.002,15.989,0.002,23.983
		c0.13,0,0.262,0,0.392,0C2683.652,1484.277,2683.563,1489.876,2683.673,1495.47z M2679.37,1426.206
		c-0.699,0.647-3.849,0.17-4.202-0.574c-4.546-9.567,3.032-15.751,6.261-23.269
		C2683.72,1410.777,2686.996,1419.164,2679.37,1426.206z M2635.597,1363.292c5.463-1.286,11.092-2.983,16.587-2.787
		c11.184,0.398,29.571-6.34,30.507,9.036c1.135,18.676-19.63,4.51-24.864,10.588c-9.258,0-14.893,0.112-20.522-0.034
		c-4.817-0.125-7.135-2.995-7.421-7.629C2629.613,1368.077,2630.963,1364.384,2635.597,1363.292z M2608.744,1374.042
		c1.067,0.653,2.061,1.424,3.051,2.159c-0.904,0.917-1.744,1.77-2.585,2.623c-0.531-1.099-1.203-2.16-1.519-3.318
		C2607.586,1375.121,2608.689,1374.008,2608.744,1374.042z M2643.609,1455.085c-2.251,10.755-0.971,27.255-20.807,25.751
		c-13.175-0.998-18.054-7.435-17.038-20.013c1.001-12.365,6.365-19.333,21.086-17.297
		C2632.196,1446.556,2646.609,1440.745,2643.609,1455.085z M2641.706,1428.527c-6.406-0.406-12.873-0.564-19.187-1.602
		c-14.7-2.414-26.319,2.156-30.15,16.821c-6.109,23.384-23.934,12.773-37.223,13.802c-15.961,1.234-11.144-12.378-12.126-20.745
		c-1.459-12.421-9.081-15.63-19.854-16.024c-31.272-1.145-62.54-2.409-93.804-3.774c-9.613-0.419-19.213-1.224-28.802-2.036
		c-4.052-0.343-9.187-1.484-9.434-5.749c-0.405-6.972,6.062-6.12,10.491-6.135c41.728-0.143,83.458-0.085,125.187-0.085
		c0.001-1.665,0.002-3.331,0.003-4.996c38.504,0,77.012-0.269,115.508,0.276c6.079,0.086,18.849-6.562,16.197,8.786
		C2656.911,1416.336,2657.524,1429.53,2641.706,1428.527z M2615.177,1580.402c13.625-33.756,12.69-34.133,51.424-29.654
		c10.432,0,21.321,1.979,31.222-0.313c78.412-18.149,156.91-4.845,235.099-0.006c81.85,5.065,163.406,14.926,245.078,22.813
		c18.146,1.751,55.874,31.27,59.77,47.056c3.135,12.702-6.838,7.833-11.855,7.437c-134.876-10.658-270.274-9.067-405.243-17.384
		c-64.261-3.961-128.497-8.323-192.769-12.091C2615.152,1597.51,2608.765,1596.29,2615.177,1580.402z M2110.937,1644.082
		c10.479-24.024,32.329-15.669,49.994-18.521c7.575,0,14.805-0.158,22.025,0.048c6.262,0.178,14.418-0.974,15.417,7.532
		c0.947,8.05-1.181,17.518-10.713,19.136c-22.919,3.891-46.002,7.492-69.403,6.489
		C2107.594,1658.31,2107.189,1652.673,2110.937,1644.082z M1836.385,1750.582c54.221-20.336,108.457-40.627,162.755-60.757
		c3.691-1.368,7.933-2.103,11.849-1.881c108.954,6.187,214.095-21.582,320.655-36.306c83.67-11.562,167.036-25.327,250.489-38.422
		c16.354-2.567,31.982,2.166,47.973,3.072c77.833,4.409,155.629,9.487,233.439,14.328c-0.178,1.328-0.358,2.657-0.536,3.984
		c-108.143,16.153-215.842,36.959-324.539,47.288c-138.537,13.164-277.797,20.714-416.917,24.772
		c-54.355,1.585-93.446,19.181-125.434,60.86c-26.446,34.458-55.048,67.255-82.471,100.971
		c-21.171,26.028-36.56,54.696-40.727,88.741c-0.657,5.37,3.568,17.058-9.006,14.895c-9.992-1.718-15.198-8.981-12.299-19.652
		c1.46-5.377,2.923-11.389,6.332-15.499c25.138-30.302,37.888-69.322,67.994-96.141c5.331-4.749,9.578-10.891,13.647-16.852
		c16.92-24.785,9.362-46.255-20.288-51.897c-26.792-5.099-54.275-6.546-81.432-9.776c-3.794-0.451-10.353-1.318-10.686-2.982
		C1825.948,1753.155,1832.092,1752.192,1836.385,1750.582z M1825.855,1779.508c27.163,2.519,54.51,3.165,81.628,6.032
		c23.472,2.481,28.405,13.924,13.707,31.746c-11.701,14.189-23.964,28.723-38.654,39.435
		c-19.045,13.888-31.382,30.963-40.285,52.369c-11.827,28.433-27.162,36.844-58.136,35.747c-51.242-1.816-53.366-5.07-33.339-51.342
		c15.331-35.422,34.054-69.005,54.391-101.782C1810.303,1783.437,1815.144,1778.516,1825.855,1779.508z M1773.371,1770.513
		c2.063,0.055,5.28,0.957,5.909,2.375c1.781,4.019-2.525,5.091-4.765,6.857c-16.396,12.925-32.346,25.089-56.091,18.603
		c-12.651-3.457-26.73-1.688-40.72-2.301C1704.517,1766.935,1739.202,1769.596,1773.371,1770.513z M1644.402,1902.247
		c1.424-6.08,0.212-12.778,0.212-19.193c1.198-16.835,2.848-33.608,3.502-50.422c0.561-14.407,7.622-19.51,21.484-18.936
		c17.617,0.732,35.298,0.773,52.924,0.218c12.689-0.399,13.418,3.804,7.417,13.497c-18.066,29.18-29.762,60.425-28.063,95.388
		c0.536,11.04-4.423,14.156-14.383,12.828c-4.756-0.635-9.612-0.965-14.403-0.817
		C1650.299,1935.52,1638.586,1927.062,1644.402,1902.247z M1714.643,1997.598c-2.351,1.416-7.429-0.57-10.774-2.115
		c-16.711-7.716-32.833-16.542-46.865-28.61c-4.667-4.014-13.245-8.192-11.156-14.084c3.113-8.786,12.323-1.515,18.16-2.207
		c28.892-4.055,46.175,7.099,49.972,36.507C1714.451,1990.736,1718.948,1995.004,1714.643,1997.598z M1771.644,1802.787
		c3.385-3.357,7.117-2.887,10.814-0.376l-0.727-1.198l1.101,0.771c-29.685,36.182-44.112,80.508-64.326,121.855
		C1718.401,1875.619,1738.023,1836.123,1771.644,1802.787z M4186.996,2918.197c-1.868,23.175-22.956,42.6-47.979,42.937
		c-6.221-0.885-15.381,1.871-19.245-5.134c-5.098-9.242,4.534-14.317,9.659-19.712c12.201-12.843,25.333-24.596,42.649-30.583
		C4184.56,2901.388,4187.949,2906.383,4186.996,2918.197z M4276.575,2844.99c-8.308,24.079-32.708,46.115-53.844,45.322
		c-10.003-0.158-16.107-5.037-10.23-17.972c9.895-21.778,26.574-36.274,49.3-43.082
		C4275.517,2825.148,4281.968,2829.359,4276.575,2844.99z M4374.185,2771.719c-9.534,23.938-23.668,43.816-50.924,47.138
		c-17.362-0.971-24.582-7.181-13.247-22.198c11.084-14.686,23.234-28.566,34.765-42.923c9.245-11.511,20.977-7.768,30.491-2.782
		C4385.897,2756.525,4376.617,2765.615,4374.185,2771.719z M4388.617,2724.228c-1.5,5.872-3.779,10.871-11.358,9.047
		c-2.3-0.554-6.37-1.256-6.475-2.229c-0.748-6.961,5.839-8.803,9.882-12.24c2.686-2.282,5.447-6.105,9.995-3.467
		C4390.029,2718.375,4389.359,2721.319,4388.617,2724.228z M4390.785,2714.797l-0.264-1.348l0.285,1.255
		C4390.8,2714.735,4390.791,2714.765,4390.785,2714.797z M4413.889,2734.687c-4.623-0.45-6.875-1.306-7.036-6.878
		c-0.466-16.086,20.454-50.152,35.738-56.966c18.951-8.447,24.711-4.935,24.991,15.234
		C4467.922,2710.672,4438.602,2737.085,4413.889,2734.687z M4440.008,2645.579c1.224-4.988,1.776-11.656,7.827-12.863
		c4.999-0.999,5.079,4.652,5.765,8.121c1.175,5.94-2.481,8.271-7.916,9.068C4443.115,2649.484,4438.853,2650.292,4440.008,2645.579z
		 M4479.922,2551.227c9.372,0.648,10.332,17.827,11.796,28.853c0.627,4.718,0.544,9.528,0.85,15.604
		c-1.676,14.18,0.217,37.458-17.064,38.049c-13.286,0.453-9.628-23.471-11.419-37.018c-0.814-6.16-0.276-12.898,1.381-18.896
		C4468.298,2567.558,4468.416,2550.431,4479.922,2551.227z M4442.94,2464.464c6.893-3.045,10.249,2.796,13.336,7.065
		c8.309,11.494,9.328,25.147,10.483,36.969c-0.497,12.116-1.837,30.266-6.533,30.134c-11.596-0.324-9.988-15.398-12.96-24.568
		c-3.906-12.058-6.257-24.654-8.721-37.129C4437.641,2472.356,4437.604,2466.822,4442.94,2464.464z M4440.769,2581.25
		c0.6,71.765-68.585,145.787-132.071,147c-91.428,1.747-157.974-60.313-158.789-145.773
		c-0.763-80.063,65.516-140.438,154.99-141.183C4393,2434.343,4440.263,2520.713,4440.769,2581.25z M4620.279,2287.779
		c0.847-7.732,0.36-15.828,11.815-7.72c24.918,17.638,50.143,34.84,75.184,52.305c4.039,2.816,7.402,6.281,6.495,15.396
		c-1.566,4.265-3.714,12.069-7.177,19.236c-29.054,60.146-63.279,117.287-100.15,172.939c-10.186,15.373-17.964,13.951-29.187,0.924
		c-26.733-31.031-54.519-61.156-81.789-91.726c-1.95-2.186-4.91-5.48-4.388-7.467c1.313-5,6.581-3.323,10.232-3.468
		c13.647-0.541,27.385-1.657,40.949-0.66c16.756,1.231,27.192-5.097,34.057-20.374
		C4595.089,2375.398,4615.187,2334.148,4620.279,2287.779z M4142.549,2162.417c2.975-22.156,2.997-45.017,1.461-67.383
		c-1.475-21.459,9.423-21.708,25.033-19.429c70.777,10.338,141.573,20.556,212.417,30.415
		c44.571,6.202,89.173,12.342,133.911,17.098c13.299,1.414,17.38,5.137,17.257,18.783c-0.444,49.281,0.123,48.629-47.4,47.837
		c-49.024-0.818-147.113-5.657-147.113-8.395c-59.485,0-118.972-0.267-178.453,0.193
		C4145.36,2181.648,4140.364,2178.688,4142.549,2162.417z M4138.954,2196.085c122.263,3.346,244.526,6.692,315.465,8.633
		c-71.065,0-193.356,0-315.648,0C4138.832,2201.841,4138.893,2198.963,4138.954,2196.085z M4148.435,2220.024
		c120.664,1.764,241.322,3.903,361.986,5.712c12.293,0.185,20.989,6.085,31.967,16.44c-133.005-4.525-263.155-8.914-393.298-13.518
		c-5.044-0.178-13.998,2.351-14.051-4.676C4134.98,2216.151,4143.795,2219.956,4148.435,2220.024z M4149.21,2245.051
		c53.86,1.314,107.722,2.772,161.557,4.854c78.589,3.039,157.158,6.625,235.735,9.978c-0.017,1.432-0.033,2.863-0.048,4.295
		c-16.74,0-33.481,0.041-50.221-0.006c-110.174-0.316-220.347-0.647-330.52-0.99c-5.627-0.018-11.267-0.006-16.879-0.334
		c-7.648-0.445-15.615-2.205-14.914-11.736C4134.66,2241.042,4143.792,2244.918,4149.21,2245.051z M4122.058,2270.879
		c29.935,14.72,61.871,7.565,92.806,7.922c108.704,1.256,217.423,1.159,326.137,1.085c11.997-0.008,25.709,4.195,34.183-11.108
		c4.41-7.963,13.242-1.633,19.849-0.198c8.372,1.816,8.272,8.931,7.594,15.468c-4.731,45.572-21.861,87.137-41.918,127.669
		c-6.473,13.078-19.323,9.595-30.097,9.53c-118.371-0.721-236.739-1.63-355.106-2.709c-73.481-0.67-76.856,1.888-90.664,74.908
		c-3.439,18.182-7.058,36.373-9.402,54.713c-3.551,27.804-19.251,44.594-44.541,54.878c-36.435,14.816-74.842,18.848-113.353,21.73
		c-77.073,5.767-154.225,10.492-231.336,15.768c-13.033,0.891-24.83-1.627-37.267-6.47c-37.88-14.748-76.588-17.133-115.543-2.556
		c-23.608,8.834-28.957,6.068-31.975-17.804c-13.331-105.471-20.543-211.521-29.75-317.386c-1.66-19.103,6.698-20.525,21.958-20.449
		c98.242,0.5,196.486,0.256,294.73,0.256c0.001,0.897,0.001,1.795,0.001,2.693c94.217,0,188.436,0.04,282.654-0.042
		c14.347-0.013,29.071,2.324,42.265-6.372C4115.611,2270.869,4119.86,2269.798,4122.058,2270.879z M3589.321,2679.002
		c72.256,1.069,129.209,57.754,127.474,126.874c-1.898,75.563-63.212,135.475-136.893,133.763
		c-70.434-1.636-127.02-59.398-126.683-129.316C3453.568,2737.861,3515.698,2677.912,3589.321,2679.002z M3157.639,2662.042
		c-92.385,27.203-136.278,87.186-125.524,171.538c8.855,69.462,67.016,121.07,139.172,123.494
		c72.374,2.431,136.798-48.079,150.246-117.797c16.176-83.856-22.446-142.694-116.875-177.304
		c42.416-8.923,75.677,1.382,102.948,36.93c57.255,74.636,44.347,189.133-29.426,241.513
		c-81.221,57.669-190.263,37.02-243.131-46.043c-45.032-70.749-24.409-177.101,43.654-225.133
		C3092.065,2659.81,3121.167,2657.157,3157.639,2662.042z M3148.283,2635.392c22.844-6.227,45.494-4.787,67.911,1.63
		c0.138,2.069,0.275,4.139,0.412,6.209c-22.218,0-44.437,0.047-66.655-0.046c-3.757-0.015-9.567,1.297-10.313-3.037
		C3138.655,2634.431,3145.105,2636.259,3148.283,2635.392z M3176.787,2679.652c72.657-0.725,130.835,55.146,131.142,125.941
		c0.322,74.191-58.918,134.509-132.182,134.585c-70.932,0.073-127.949-57.189-128.654-129.208
		C3046.393,2739.58,3104.872,2680.369,3176.787,2679.652z M3287.871,2642.942c-10.994,0.3-19.996-3.784-29.563-8.367
		c-56.062-26.846-111.863-26.86-166.293,4.435c-8.976,5.161-17.578,6.554-27.348,6.658c-40.26,0.426-80.517,1.12-120.771,1.911
		c-46.091,0.905-73.822-22.543-81.555-68.88c-9.288-55.657-13.213-111.908-18.73-167.976c-3.548-36.048-4.962-72.332-9.398-108.254
		c-2.779-22.506,2.069-30.325,26.969-29.879c92.574,1.661,185.198,0.662,277.802,0.662c0.001,1.016,0.001,2.032,0.002,3.049
		c94.213,0,188.429,0.34,282.637-0.34c15.363-0.111,21.16,2.96,20.325,19.689c-5.384,107.763-11.897,215.42-23.298,322.75
		c-1.669,15.711-8.368,22.833-24.511,22.833C3358.714,2641.231,3323.285,2641.979,3287.871,2642.942z M2882.25,2256.609
		c-224.231-0.745-448.465-0.911-672.697-1.445c-202.351-0.481-404.702-1.121-607.053-1.684c-12.63-0.035-25.259-0.005-37.888-0.005
		c-0.11-0.864-0.219-1.729-0.328-2.594c8.283-0.512,16.559-1.272,24.85-1.504c341.434-9.531,682.952-5.615,1024.439-5.957
		c425.265-0.426,850.52-6.287,1275.792-2.728c66.041,0.552,132.078,1.779,198.101,3.337c7.227,0.171,20.68-5.116,20.319,8.227
		c-0.297,10.966-12.606,10.392-21.368,10.361c-73.293-0.25-146.586-0.669-219.88-1.068c-121.619-0.661-243.236-1.397-364.855-2.008
		C3295.204,2258.506,3088.728,2257.295,2882.25,2256.609z M2718.78,2638.808c-38.511,4.232-75.722-6.126-113.68-8.619
		c38.014-13.294,75.75-13.843,113.294-0.28c2.853,1.031,7.431,2.952,7.552,4.711
		C2726.213,2638.466,2721.915,2638.463,2718.78,2638.808z M2794.572,2795.374c0.199,76.667-59.696,137.124-135.618,136.895
		c-74.012-0.223-131.293-57.817-131.281-131.998c0.012-78.295,61.133-135.477,144.899-135.56
		C2738.013,2664.646,2794.39,2725.026,2794.572,2795.374z M2571.603,2622.909c-12.182,5.816-23.682,8.317-36.844,7.63
		c-100.466-5.241-200.945-10.215-301.426-15.177c-26.717-1.318-35.236-20.999-38.415-41.927
		c-4.459-29.354-5.843-59.237-7.446-88.954c-3.469-64.301-5.576-128.684-9.731-192.937c-1.146-17.734,5.918-19.511,20.48-19.442
		c98.21,0.473,196.423,0.247,294.634,0.247c0,0.279,0,0.556,0,0.834c97.408,0,194.818,0.394,292.218-0.37
		c17.083-0.135,21.719,5.132,21.52,21.795c-1.041,86.932-0.918,173.877-1.357,260.816c-0.061,12.043-0.333,24.093-4.355,35.779
		c-10.542,30.63-32.657,41.175-61.286,28.524C2683.065,2594.748,2626.852,2596.529,2571.603,2622.909z M1985.668,2633.753
		c-9.574,5.446-18.622,7.991-29.417,7.845c-65.213-0.889-130.432-1.38-195.647-1.969c-8.878-0.08-17.227-0.836-25.514-5.364
		c-35.35-19.318-73.526-23.968-112.342-15.777c-17.063,3.601-20.766-1.459-22.64-16.549
		c-11.231-90.397-14.485-181.335-18.58-272.189c-0.883-19.587-12.33-45.498,2.255-57.354c11.768-9.568,36.888-3.045,56.086-3.082
		c74.882-0.144,149.762-0.059,224.644-0.059c0.001,0.966,0.001,1.93,0.001,2.895c86.957,0,173.919,0.506,260.867-0.412
		c18.204-0.191,22.729,4.787,22.239,22.977c-2.386,88.524-3.123,177.092-4.602,265.643c-0.162,9.641-0.934,19.315-2.125,28.887
		c-2.358,18.936-7.254,29.857-32.138,23.419C2065.668,2601.519,2023.986,2611.958,1985.668,2633.753z M2090.552,2628.405
		c-20.361,7.596-41.709,8.235-63.175,8.039c-0.091-0.067-0.179-0.147-0.269-0.222c0.286,0.007,0.571,0.014,0.856,0.021
		C2047.509,2623.942,2068.958,2625.654,2090.552,2628.405z M1671.238,2633.196c-10.862,3.99-19.907,3.708-30.784,1.039
		C1651.129,2630.337,1660.212,2631.817,1671.238,2633.196z M3644.262,2096.803c37.476-3.141,74.897-7.51,112.439-9.182
		c102.028-4.544,203.286-20.123,305.55-20.814c10.089-0.068,21.959-2.579,25.433,11.783c2.447,10.112,4.41,20.34,6.589,30.516
		c-8.707-0.329-17.412-0.846-26.122-0.962c-133.511-1.766-267.023-3.487-400.535-5.194c-7.863-0.102-15.728-0.014-23.593-0.014
		C3644.102,2100.891,3644.181,2098.847,3644.262,2096.803z M3617.301,2122.802c5.146-9.479,14.24-4.991,21.69-5.01
		c70.761-0.185,212.288,3.804,212.29,5.762c69.176,0,138.379,1.177,207.515-0.511c33.19-0.811,25.839,23.874,30.415,41.133
		c5.075,19.152-3.267,31.421-22.813,34.775c-9.432,1.618-19.196,2.117-28.782,1.9c-127.056-2.88-254.107-5.882-381.155-9.093
		C3626.295,2190.997,3602.856,2149.409,3617.301,2122.802z M3116.287,2115.208c79.357-6.125,238.425-8.607,238.477-5.333
		c62.736,0,125.478,0.526,188.201-0.326c18.393-0.249,28.753,4.765,29.414,24.489c0.739,22.117,20.885,49.018,6.562,63.528
		c-10.866,11.007-41.015,3.475-62.579,3.344c-131.992-0.81-263.982-1.806-395.972-2.896c-19.044-0.157-38.419,2.986-38.409-27.91
		C3081.996,2125.024,3083.2,2117.764,3116.287,2115.208z M2654.009,2116.516c123.145-3.774,246.486-1.258,369.739-1.361
		c36.595-0.031,40.489,4.006,41.259,39.618c0.121,5.637,0.183,11.281,0.518,16.907c2.033,34.099,10.239,42.606,44.445,42.849
		c113.584,0.809,227.171,1.151,340.758,1.657c41.888,0.187,83.778,0.512,125.667,0.426c24.945-0.051,29.448-5.704,24.74-30.657
		c-3.876-20.547-8.455-40.96-12.494-61.477c-0.878-4.459-2.651-10.552,4.563-11.159c6.472-0.544,6.881,4.598,7.025,9.884
		c0.373,13.655,0.274,27.437,2.18,40.91c3.98,28.139,20.219,44.022,48.11,44.639c135.295,2.99,270.602,5.617,405.918,7.432
		c32.254,0.432,41.699-8.387,49.811-37.556c8.035,14.586,8.23,19.363,8.521,34.082c0.267,13.445-5.577,15.7-17.576,15.516
		c-154.64-2.382-309.287-5.791-463.934-5.96c-202.973-0.222-405.946,2.47-608.923,3.437c-444.668,2.116-889.366-3.654-1334.01,4.696
		c-114.366,2.147-228.713,5.435-343.069,8.108c-13.339,0.312-26.692,0.042-40.038,0.042
		c280.061-32.508,558.977-72.629,838.53-107.634C2315.335,2109.679,2484.652,2121.707,2654.009,2116.516z M1542.866,2251.354
		l-0.781,0.427l-1.128-0.23L1542.866,2251.354z M1377.567,2162.17c0.402-0.693,0.6-1.513,1.047-2.168
		c10.277-15.034,15.44-44.085,28.914-43.915c23.734,0.3,41.787,24.027,62.922,36.824c7.142,4.324,3.138,7.24-2.997,8.07
		c-27.863,3.777-55.726,7.55-83.588,11.324C1372.807,2174.58,1373.301,2169.531,1377.567,2162.17z M1244.92,2180.217
		c-9.136,0.703-18.858,1.983-17.669-12.065c0.924-10.908-4.601-23.468,15.139-26.423c31.507-4.716,60.777-6.832,83.354,21.093
		c1.923,2.377,6.009,4.827,5.744,6.796c-0.694,5.185-6.092,3.677-9.565,3.999C1296.27,2175.988,1270.591,2178.054,1244.92,2180.217z
		 M1530.951,2167.943c138.003-17.878,275.699-38.116,413.692-56.063c68.772-8.944,137.971,2.673,206.745,0.032
		c-298.312,35.677-594.629,82.926-893.237,111.915C1347.577,2197.632,1438.59,2179.907,1530.951,2167.943z M924.404,2390.149
		c-4.331,11.811-12.771,12.133-20.919,6.846c-9.39-6.091-1.858-13.106,2.47-18.022c30.78-34.955,61.341-70.141,93.265-104.036
		c14.935-15.856,36.438-7.733,58.465-11.249c-9.194,10.175-18.657,10.215-26.726,13.144c-13.237,4.805-23.282,11.008-30.352,24.828
		c-5.904,11.539-18.217,19.856-27.892,29.397C954.481,2349.039,933.642,2364.962,924.404,2390.149z M969.214,2441.099
		c-34.425-23.465-35.515-44.444-7.86-74.786c48.925-53.682,112.447-81.645,179.209-104.277c9.831-3.333,19.176-6.323,28.773,3.266
		c7.132,7.126,18.435,4.086,27.918,4.1c110.237,0.155,220.479,0.644,330.705-0.437c20.828-0.204,25.309,6.365,24.655,25.861
		c-1.481,44.184-0.466,88.451-0.466,132.685c-0.948,0.018-1.897,0.035-2.844,0.053c-2.196,45.8-4.927,91.583-6.301,137.407
		c-0.481,16.089-6.64,27.082-19.261,36.441c-25.841,19.157-50.163,35.231-86.699,31.023c-44.458-5.121-89.98-1.327-135.034-0.762
		c-14.152,0.177-26.683-3.083-39.031-9.902C1162.227,2566.131,1064.298,2505.907,969.214,2441.099z M1063.767,2588.693
		c-5.625-22.513-13.224-44.53-19.778-66.819c-0.826-2.808-0.432-5.974-0.604-8.974c2.909,0.884,5.994,1.401,8.701,2.705
		c49.24,23.716,69.645,66.645,78.247,117.398c-10.846-9.509-24.308-15.657-37.844-16.655
		C1073.394,2614.938,1067.756,2604.657,1063.767,2588.693z M1137.315,2666.987c-3.917,11.301-15.1,13.242-25.894,13.98
		c-16.099-0.187-35.978-28.597-31.36-44.555c1.983-6.853,6.743-5.972,11.226-4.073c10.333,4.376,20.825,8.624,30.51,14.21
		C1129.516,2651.001,1141.678,2654.4,1137.315,2666.987z M1130.73,2633.339c0.438-0.183,0.875-0.366,1.312-0.549
		c-0.266,0.327-0.531,0.654-0.797,0.981C1131.08,2633.62,1130.899,2633.489,1130.73,2633.339z M1211.426,2766.327
		c-26.384-0.017-41.994-15.321-42.219-39.515c-0.076-8.121,1.048-13.672,11.475-13.53c26.592,0.362,52.659,20.348,52.416,41.558
		C1232.887,2773.181,1217.705,2762.61,1211.426,2766.327z M1162.41,2652.503c-16.627-12.057-14.406-38.216-23.562-56.9
		c-4.48-9.144-7.334-19.085-10.923-28.667c12.147-0.454,19.546,9.009,28.714,14.344c119.335,69.448,119.276,69.47,265.468,67.313
		c7.289-0.107,19.011-5.607,21.074,2.585c1.551,6.151-11.579,8.787-18.299,12.578c-20.295,11.447-40.856,22.441-61.532,33.189
		c-20.387,10.597-42.299,15.021-74.124,14.309C1241.564,2718.171,1202.844,2681.825,1162.41,2652.503z M1325.069,2826.618
		c-3.558,7.745-12.389,5.74-18.684,6.348c-24.849-0.274-45.229-21.212-45.426-44.946c-0.07-8.381,3.57-9.588,10.311-8.37
		c18.625,3.364,35.699,9.921,48.383,24.703C1325.087,2810.688,1328.678,2818.764,1325.069,2826.618z M1417.717,2892.827
		c-3.669,7.742-12.744,4.414-17.327,6.254c-25.784-0.163-42.154-13.662-46.293-35.414c-2.6-13.661,2.958-18.188,15.351-14.939
		c15.567,4.081,29.943,11.113,41.262,22.811C1416.182,2877.196,1421.649,2884.531,1417.717,2892.827z M1428.877,2866.318
		c-12.294-24.156-41.492-34.024-69.974-36.957c-5.806-0.597-12.938,2.639-14.745-7.497c-7.447-41.76-39.599-55.619-75.217-59.09
		c-25.14-2.451-20.556-20.493-25.138-33.798c-2.398-6.965,5.749-6.081,9.836-5.048c71.881,18.173,130.325-14.748,188.077-49.583
		c33.059-19.942,65.997-40.109,96.906-63.436c13.18-9.947,19.902-21.465,20.353-38.48c1.217-45.854,3.831-91.674,6.125-137.495
		c0.227-4.521-0.71-9.877,4.731-13.567c5.212,65.281,4.189,130.679,15.615,194.99c2.698,15.187-9.416,16.787-17.515,21.935
		c-71.132,45.208-107.935,108.479-102.801,194.026c1.223,20.38,7.483,39.392,15.567,57.958c1.397,3.21,6.082,6.925,1.449,10.322
		c-1.663,1.22-5.935-0.292-8.636-1.448C1456.23,2891.752,1439.867,2887.914,1428.877,2866.318z M1514.098,2957.81
		c-3.695,6.819-13.012,4.407-20.991,5.134c-6.278-1.683-13.597-2.732-20.134-5.579c-15.803-6.883-36.46-41.591-28.43-45.896
		c15.84-8.49,29.797,4.871,43.405,11.754c6.824,3.451,11.952,10.634,17.215,16.68
		C1509.677,2945.091,1518.159,2950.313,1514.098,2957.81z M1658.131,3036.515c-17.261-0.805-31.135-7.769-28.383-27.296
		c3.165-22.461,20.584,2.463,26.887-9.076c12.548,8.166,33.914-6.513,34.893,13.618
		C1692.367,3031.018,1675.005,3037.302,1658.131,3036.515z M1678.719,2974.785c-95.849,19.451-155.857-36.782-184.18-97.567
		c-32.665-70.106-7.83-156.145,57.224-207.229c22.234-17.459,43.563-33.396,75.832-19.204c20.371,8.96,44.718,4.24,67.012,2.088
		c31.71-3.06,56.023,8.384,77.314,30.783c33.039,34.759,51.173,75.46,52.532,114.939
		C1824.881,2889.482,1762.822,2957.719,1678.719,2974.785z M1808.39,3035.653c-4.496,1.454-9.449,1.492-10.512,1.644
		c-12.909,0.54-21.309-1.298-27.685-8.57c-3.862-4.406-6.422-9.586-5.015-15.402c1.9-7.865,8.906-5.075,13.941-5.292
		c8.802-0.381,17.703-0.518,26.442,0.394c7.267,0.758,18.469-3.592,20.176,7.315
		C1827.486,3026.924,1818.031,3032.535,1808.39,3035.653z M1927.045,3038.315c-13.908,0.294-29.502-4.583-27.724-19.476
		c1.861-15.59,19.081-2.18,28.264-7.887c9.767,5.5,28.319-6.962,29.15,10.138
		C1957.466,3036.121,1940.117,3038.037,1927.045,3038.315z M1709.757,2987.173c20.093-11.313,36.601-17.074,50.657-27.464
		c98.89-73.1,109.183-200.267,23.142-287.947c-4.229-4.309-13.713-7.465-11.137-13.791c2.431-5.972,11.52-2.319,17.553-2.297
		c45.904,0.171,91.805,0.685,137.705,1.263c4.552,0.057,10.678-1.984,12.914,3.257c0.889,2.084-2.671,6.941-5.239,9.5
		c-91.255,90.949-59.105,277.984,101.677,317.814c3.464,0.858,6.786,2.285,10.175,3.446
		C1936.299,2997.224,1826.037,2991.718,1709.757,2987.173z M2058.783,3038.309c-3.168,0.151-6.399,0.014-9.535-0.444
		c-10.187-1.485-21.046-6.272-19.822-16.737c1.175-10.042,13.152-4.796,20.503-5.599c3.937-0.429,7.96-0.075,13.604-0.075
		c7.77,3.754,25.924-6.916,26.102,7.773C2089.812,3037.853,2071.573,3037.702,2058.783,3038.309z M2011.678,2961.305
		c-113.481-47.388-145.907-193.02-62.762-280.5c15.16-15.949,31.081-26.648,54.621-24.171c14.234,1.498,28.886-0.991,43.35-1.69
		l-0.712,0.489c28.33-5.227,56.662-10.446,84.99-15.687c9.513-1.761,17.277,3.159,25.087,7.02
		c86.889,42.946,123.663,142.405,84.736,228.713C2203.458,2958.688,2099.019,2997.777,2011.678,2961.305z M2202.221,3037.342
		c-3.927,0.753-7.959,0.952-13.965,1.631c-3.603-0.655-9.479-0.727-14.447-2.887c-5.758-2.504-12.442-6.921-10.448-14.125
		c1.857-6.712,9.425-3.675,14.507-3.871c8-0.308,16.163-0.462,24.016,0.807c6.198,1.002,16.966-5.594,17.782,4.923
		C2220.337,3032.462,2210.402,3035.771,2202.221,3037.342z M2176.435,3002.062c15.087-7.912,24.092-6.665,35.869-1.166
		C2200.637,3005.286,2191.344,3002.837,2176.435,3002.062z M2317.427,3038.371c-2.347,0.082-4.759-0.31-7.072-0.81
		c-7.062-1.526-16.603-3.941-15.875-11.358c0.98-9.961,11.357-3.635,17.452-5.126c2.244-0.549,4.734-0.089,7.111-0.089
		c0,0.059,0,0.119,0,0.178c0.793,0,1.637-0.18,2.371,0.027c8.988,2.539,26.253-5.206,25.789,5.696
		C2346.646,3039.968,2329.085,3037.966,2317.427,3038.371z M2302.259,3002.862c16.719-5.977,27.533-4.729,37.81-0.067
		C2329.612,3002.861,2318.798,3002.862,2302.259,3002.862z M2451.017,3038.201c-1.589,0.151-3.211,0.189-4.801,0.061
		c-8.679-0.698-21.501-0.226-21.188-10.388c0.323-10.46,12.921-3.386,19.811-5.309c2.23-0.623,4.781-0.098,9.066-0.098
		c6.796,3.693,22.939-7.477,23.815,5.743C2478.346,3037.655,2461.264,3037.226,2451.017,3038.201z M2436.042,3003.762
		c8.785-5.684,18.286-5.626,27.53,0C2454.396,3003.762,2445.22,3003.762,2436.042,3003.762z M2560.865,3033.273
		c-7.623-3.033-3.099-6.768,13.55-6.595c6.351,0.066,12.703-0.017,19.05,0.118c2.323,0.05,4.636,0.534,9.83,1.176
		C2588.364,3038.844,2574.256,3038.601,2560.865,3033.273z M2512.206,3004.368c-7.055-1.186-13.195-1.775-19.589-6.909
		c-25.78-20.698-58.208-20.391-84.097-0.529c-15.279,11.723-30.273,11.707-45.528,0.001c-23.67-18.164-55.396-19.574-80.801-2.388
		c-18.268,12.359-34.517,12.997-51.949-1.729c-24.712-20.877-51.884-15.948-76.384-1.056c-15.685,9.535-30.891,5.615-46.468,6.587
		c-1.794,0.111-5.483,0.433-4.641-3.049c0.401-1.657,3.069-3.366,5.029-3.924c4.624-1.315,9.464-1.848,14.175-2.882
		c77.351-16.99,135.517-76.912,148.879-153.33c13.069-74.754-20.793-151.963-88.5-191.636
		c-24.098-14.121-33.134-24.469-27.031-55.367c12-60.759,4.399-123.564,7.315-185.447c0.339-7.185,0.046-14.4,1.704-21.623
		c3.826,56.769,7.741,113.532,11.417,170.31c0.939,14.518,2.418,28.911,7.257,42.68c9.34,26.583,23.802,35.835,51.952,37.109
		c91.651,4.146,183.27,8.948,274.895,13.64c4.554,0.233,10.748,0.354,13.138,3.138c3.246,3.779-2.575,6.596-5.277,9.094
		c-104.912,96.98-73.121,280.134,77.128,331.951c3.66,1.263,7.01,3.425,10.505,5.168
		C2572.917,2986.546,2543.769,3009.677,2512.206,3004.368z M2666.261,3010.828c-9.429,0.747-18.871,1.313-34.787,2.275
		c15.999-9.029,25.251-8.264,34.532-6.108C2666.385,3007.083,2666.294,3010.826,2666.261,3010.828z M2563.597,2956.861
		c-82.782-48.511-114.588-152.209-72.717-237.082c30.541-61.906,59.837-77.086,135.451-67.355
		c-8.468,3.253-13.359,5.165-18.273,7.013c-70.885,26.651-109.539,97.922-93.73,172.837c15.2,72.027,78.83,120.743,153.063,117.192
		c74.082-3.545,134.482-59.867,142.116-133.671c6.745-65.23-16.039-116.734-73.269-151.328c-3.847-2.326-10.529-6.688-10.035-8.238
		c1.609-5.055,7.791-4.313,12.445-4.978c11.527-1.65,21.412,0.178,31.229,8.212c72.12,59.028,89.794,166.085,38.879,239.387
		C2752.171,2980.312,2646.348,3005.353,2563.597,2956.861z M2692.482,3009.399c10.983,0,21.966,0,32.949,0
		c-0.002,0.473-0.004,0.947-0.006,1.42c-10.983,0-21.966,0-32.951,0C2692.477,3010.346,2692.48,3009.872,2692.482,3009.399z
		 M2730.71,3029.673c-1.7,7.301-13.406,4.572-19.401,6.947c-7.111-1.021-17.996,0.451-16.247-6.111
		c1.838-6.894,13.444-3.076,20.706-3.518C2721.048,3026.668,2731.963,3024.292,2730.71,3029.673z M2843.553,3036.652
		c-8.787,0.576-23.423-0.721-22.611-7.86c1.484-13.051,15.978-0.074,22.297-6.705c8.896,4.048,23.539-3.735,23.836,4.678
		C2867.434,3036.918,2852.731,3036.049,2843.553,3036.652z M2832.616,3001.578c-0.633-4.075,10.841-3.607,16.821-3.313
		c5.744,0.282,16.319-2.482,16.019,4.27c-0.328,7.381-10.271,1.199-15.698,2.903
		C2844.028,3002.509,2834.047,3010.802,2832.616,3001.578z M2974.035,3035.923c-1.559,0.236-3.21,0.261-4.771,0.038
		c-7.605-1.084-19.578-0.115-19.334-8.966c0.222-8.133,11.662-2.568,17.961-3.993c2.274-0.514,4.762-0.083,8.823-0.083
		c6.505,2.784,21.098-5.897,22.049,4.546C2999.458,3035.081,2983.25,3034.526,2974.035,3035.923z M2957.817,3003.897
		c10.548-6.549,21.536-6.828,32.639,0C2979.577,3003.897,2968.698,3003.897,2957.817,3003.897z M3062.744,2994.757
		c-13.91,19.428-31.053,14.398-45.768,4.295c-32.362-22.218-54.153-23.081-84.97,0.546c-14.87,11.4-29.298,10.138-43.346-1.288
		c-27.256-22.165-52.662-22.88-80.758-1.252c-17.289,13.308-35.12,15.182-52.25,1.853c-10.396-8.091-23.383-4.771-35.022-11.54
		c15.531-8.157,30.844-14.707,44.595-23.658c105.427-68.628,119.831-206.205,31.236-301.164
		c-12.358-13.247-21.146-21.202-0.204-35.504c18.079-12.346,23.51-34.33,24.137-55.816c1.36-46.658,1.731-93.346,2.411-140.023
		c0.185-12.696,0.028-25.395,3.1-38.085c5.737,56.707,11.125,113.452,17.4,170.099c2.199,19.845,3.029,40.66,15.415,57.647
		c20.432,28.017,42.732,50.367,83.322,44.222c30.802-4.663,62.655-2.507,94.045-3.062c6.114-0.109,14.878-3.936,17.836,1.622
		c3.576,6.719-5.788,10.172-9.745,14.648c-37.181,42.042-53.536,90.773-48.532,146.768c6.225,69.67,44.237,117.119,108.652,152.26
		C3085.68,2978.234,3071.756,2982.169,3062.744,2994.757z M3104.689,3034.891c-7.451,0.42-21.229,0.155-19.589-7.569
		c2.044-9.627,15.328,0.19,22.289-4.196c8.446,3.47,23.274-3.368,22.672,4.148
		C3129.388,3035.681,3113.943,3034.369,3104.689,3034.891z M3112.295,3005.733c-2.354,0.364-4.81,0.059-8.029,0.059
		c-6.525-2.953-20.851,5.597-20.537-3.563c0.317-9.3,15.435-7.532,24.904-7.748c0.8-0.018,1.622-0.022,2.402,0.127
		c7.493,1.44,19.972,0.424,19.805,8.168C3130.686,3009.895,3118.86,3004.721,3112.295,3005.733z M3176.685,3005.345
		c-10.307-1.27-24.137-1.093-24.074-13.171c0.042-8.12,13.143-0.918,20.948-3.387c6.087,5.744,19.854-7.356,21.546,6.737
		C3196.019,3003.123,3185.87,3006.478,3176.685,3005.345z M3237.683,3033.538c-6.333,0.408-18.722,1.016-17.57-4.644
		c1.849-9.088,13.55-0.975,19.53-4.536c7.784,2.794,21.063-4.126,20.644,3.261
		C3259.813,3035.925,3245.835,3033.014,3237.683,3033.538z M3221.303,3006.568c13.738-9.45,27.342-8.688,47.731,0
		C3248.527,3006.568,3234.914,3006.568,3221.303,3006.568z M3365.025,3030.987c-1.87-0.499-3.897-1.042-5.925-1.584
		c2.156-0.285,4.308-0.723,6.472-0.802c1.421-0.053,2.862,0.41,4.295,0.641C3368.361,3029.784,3366.855,3030.327,3365.025,3030.987z
		 M3396.067,3004.486c-1.961,11.139-15.902,2.388-24.144,5.859c-7.623-3.511-22.069,4.039-22.168-5.436
		c-0.094-8.953,14.854-9.385,24.213-9.333C3382.568,2995.622,3397.292,2997.527,3396.067,3004.486z M3453.565,2999.625
		c-10.594,17.948-23.386,13.46-34.429,1.604c-26.968-28.955-62.783-31.039-90.305-2.706c-13.563,13.964-28.739,12.914-40.037,2.626
		c-12.971-11.812-26.938-16.548-48.682-19.171c64.306-30.384,104.611-73.813,116.63-139.013
		c11.672-63.313-3.701-119.53-48.381-166.997c-4.081-4.336-13.291-7.716-10.255-14.308c2.776-6.03,11.621-2.293,17.729-2.521
		c26.534-0.986,53.08-1.956,79.628-2.146c23.203-0.167,35.546-11.135,38.771-34.08c10.093-71.811,12.982-144.186,17.682-216.424
		c0.927-14.24-0.666-28.814,7.969-42.819c3.877,42.259,7.34,84.562,11.748,126.766c4.511,43.189,6.089,87.233,16.386,129.073
		c6.498,26.4,0.028,35.928-20.118,51.046c-90.025,67.553-90.957,205.752-3.911,277.638c8.046,6.644,16.87,12.339,25.251,18.584
		c2.509,1.869,6.888,4.345,6.691,6.136c-0.549,4.995-5.83,4.509-9.568,4.908C3471.572,2979.401,3461.001,2987.028,3453.565,2999.625
		z M3506.336,3012.799c-2.287,0.504-4.779,0.077-7.177,0.077c-1.598-0.058-3.317,0.333-4.775-0.122
		c-8.236-2.569-23.327,6.131-23.849-5.833c-0.464-10.656,15.029-11.552,25.299-12.808c3.128-0.383,6.479-0.3,9.541,0.395
		c10.145,2.304,26.003,5.65,25.333,13.918C3529.919,3018.152,3514.901,3010.911,3506.336,3012.799z M3541.677,2989.856
		c0.456,0.067,0.911,0.133,1.367,0.199c-0.22,0.199-0.438,0.398-0.656,0.596C3542.151,2990.387,3541.904,2990.125,3541.677,2989.856
		z M3575.558,3011.349c-7.519,2.023-17.159,4.952-22.025-6.993c-2.121-5.207-7.158-9.227-11.127-13.682
		c7.997-5.57,16.929-2.361,25.322-1.654c6.174,0.522,16.379-4.563,17.683,4.875
		C3586.146,2999.211,3582.789,3009.405,3575.558,3011.349z M3561.287,2971.347c-67.91-7.217-112.794-45.291-134.536-108.562
		c-21.707-63.169-9.798-120.896,38.505-168.843c29.625-29.406,54.423-36.863,98.428-32.152
		c-92.899,29.58-138.419,92.935-124.405,173.149c12.859,73.602,76.06,125.46,148.537,121.879
		c76.901-3.8,138.732-62.218,144.675-136.688c6.481-81.221-39.522-139.663-124.011-157.547c22.923-10.979,53.863-5.971,76.006,12.3
		c55.964,46.185,76.75,130.409,48.763,197.595C3705.813,2938.34,3635.386,2979.223,3561.287,2971.347z M3664.765,3010.623
		c-10.156,5.858-21.619,1.184-31.078,2.689c-3.74,0-6.185,0.353-8.488-0.064c-8.1-1.466-22.237,4.571-23.163-3.221
		c-1.204-10.132,13.239-10.107,21.783-12.979c0.748-0.251,1.538-0.399,2.317-0.536c12.865-2.258,25.271-1.446,36.477,6.024
		C3665.503,3004.462,3667.092,3009.281,3664.765,3010.623z M3770.952,3014.506c-2.281,0.498-4.762,0.077-7.152,0.077
		c-1.593-0.02-3.286,0.335-4.762-0.079c-8.221-2.308-22.813,5.858-23.634-6.145c-0.648-9.451,12.964-14.622,23.904-15.858
		c3.155-0.356,6.387-0.851,9.508-0.536c11.564,1.166,25.265,4.931,24.556,17.212
		C3792.778,3019.442,3778.801,3012.79,3770.952,3014.506z M3852.344,2995.415c-4.307,2.323-5.468,9.962-9.604,13.217
		c-9.791,7.705-20.007,12.231-28.559-2.554c-22.578-39.029-67.678-42.072-94.976-6.609c-15.538,20.184-23.43,19.733-38.669-1.92
		c-2.276-3.235-4.956-7.276-8.329-8.48c-37.756-13.479-7.689-18.71,3.21-25.191c101.195-60.163,116.708-199.771,32.325-290.416
		c-4.581-4.92-14.726-8.377-11.596-15.808c1.358-3.227,13.053-2.366,20.09-2.893c83.484-6.25,167.299-8.041,250.475-18.421
		c11.157-1.393,22.324-3.3,33.233-5.992c69.322-17.105,84.776-34.603,95.967-105.092c3.653-23.007,9.114-45.749,14.323-68.479
		c3.303-14.402,12.522-21.473,27.903-20.987c20.116,0.636,40.271-0.016,60.385,0.621c5.747,0.182,13.601-3.973,16.647,3.713
		c0.601,1.517-7.436,6.832-11.836,9.897c-69.094,48.138-91.375,140.059-50.018,211.975c32.703,56.865,84.854,80.971,148.618,83.521
		c5.547,0.222,14.281-1.348,15.998,1.388c4.26,6.79-5.354,9.851-7.834,15.26c-0.661,1.442-1.907,2.603-2.688,4.002
		c-13.679,24.498-25.811,46.817-60.186,51.686c-26.766,3.791-41.956,30.405-53.055,55.521c-2.084,4.716,0.229,14.031-7.301,13.354
		c-20.837-1.871-35.338,13.038-53.415,18.085c-0.331,0.394-0.664,0.79-0.994,1.184c0.191-0.247,0.382-0.493,0.572-0.74
		c48.347-105.369-4.45-196.037-68.799-233.744c-79.599-46.643-193.079-23.864-244.618,50.223
		c-54.786,78.758-40.754,188.625,32.965,248.473C3865.969,2981.08,3868.901,2986.486,3852.344,2995.415z M3919.344,3016.718
		c-7.924,0.169-15.853,0.067-23.779,0.067c0-0.1,0-0.201,0-0.301c-5.55,0-11.114,0.266-16.644-0.072
		c-6.128-0.373-15.959,1.662-16.837-4.737c-1.047-7.642,8.913-10.385,15.364-11.971c16.516-4.061,30.547,5.827,45.545,10.147
		c1.346,0.388,1.881,3.585,2.792,5.478C3923.639,3015.814,3921.5,3016.673,3919.344,3016.718z M3959.538,2993.991
		c-78.327,1.769-157.881-67.62-155.526-166.511c0.307-94.117,70.877-163.529,166.169-163.437
		c92.779,0.09,166.7,70.375,163.715,159.777C4130.299,2931.556,4062.116,2991.674,3959.538,2993.991z"/>
	<path d="M2596.374,2792.911c0.49,36.403,30.138,63.977,67.96,63.2c36.382-0.746,65.134-29.248,64.7-64.137
		c-0.453-36.463-30.009-64.859-67.073-64.443C2623.913,2727.96,2595.877,2755.908,2596.374,2792.911z M2712.166,2794.2
		c-1.065,25.865-22.718,45.396-49.747,44.871c-27.897-0.542-50.53-22.531-49.535-48.128c1.007-25.944,24.156-46.81,51.671-46.576
		C2691.599,2744.595,2713.275,2767.283,2712.166,2794.2z"/>
	<path d="M3175.617,2868.795c36.62,0.481,65.215-27.104,65.06-62.761c-0.153-35.134-27.557-63.1-62.151-63.423
		c-35.972-0.335-64.662,27.577-65.036,63.274C3113.123,2841.075,3140.036,2868.328,3175.617,2868.795z M3178.496,2760.475
		c25.23,0.447,45.744,21.413,45.373,46.367c-0.368,24.71-21.75,45.837-46.436,45.881c-26.866,0.05-48.781-21.226-47.917-46.522
		C3130.405,2780.104,3151.936,2760.003,3178.496,2760.475z"/>
	<path d="M3586.61,2857.904c35.109,0.616,66.293-28.094,67.688-62.321c1.438-35.234-28.799-66.333-65.242-67.105
		c-37.271-0.79-67.763,27.432-68.593,63.487C3519.638,2827.833,3549.143,2857.245,3586.61,2857.904z M3587.042,2746.387
		c27.673-0.341,49.666,20.584,49.769,47.352c0.099,25.927-20.614,46.07-47.796,46.479c-28.257,0.425-51.079-19.894-51.483-45.836
		C3537.127,2768.286,3559.366,2746.728,3587.042,2746.387z"/>
	<path d="M1937.105,2753.854c-19.599,59.447-0.157,125.96,48.794,162.567c53.589,40.077,126.006,40.569,180.293,1.226
		c49.527-35.893,72.082-103.757,52.301-161.441c-19.489-56.833-74.195-112.936-172.318-100.774c0,0,0.712-0.489,0.693-0.485
		C1994.482,2670.396,1954.976,2699.646,1937.105,2753.854z M2075.193,2670.179c71.516,0.112,133.643,59.697,133.999,128.517
		c0.375,72.229-59.624,131.599-132.792,131.402c-73.802-0.198-130.992-57.323-130.16-130.009
		C1947.058,2728.544,2005.101,2670.071,2075.193,2670.179z"/>
	<path d="M1660.615,2665.305c-83.657,0.209-150.894,71.964-149.915,159.989c0.889,79.749,66.064,143.316,146.185,142.575
		c86.272-0.799,155.527-68.642,155.439-152.274C1812.241,2734.2,1742.489,2665.102,1660.615,2665.305z M1659.517,2950.807
		c-75.61-0.205-131.376-54.565-131.609-128.292c-0.245-77.436,59.351-139.825,133.503-139.759
		c71.269,0.063,133.082,61.482,133.21,132.361C1794.754,2889.277,1733.292,2951.006,1659.517,2950.807z"/>
	<path d="M3884.44,1920.375c19.073-1.461,28.148-16.453,34.571-32.957c12.222-31.401,12.346-64.458,14.795-97.437
		c-1.448-20.824-2.212-41.725-4.559-62.447c-1.914-16.897-8.306-32.017-28.371-33.458c-21.393-1.537-46.035-6.765-57.718,18.005
		c-28.068,59.514-31.98,120.567-3.538,181.296C3848.002,1911.274,3864.27,1921.92,3884.44,1920.375z M3874.381,1889.896
		c13.359-55.7,13.365-111.649,3.366-167.832c-1.106-6.216-2.911-13.586,7.323-14.143c11.296-0.614,21.442,2.018,25.33,13.943
		c6.339,19.441,5.619,39.742,5.674,66.63c-0.902,26.288-1.799,59.325-13.841,90.771c-2.88,7.521-5.683,15.247-12.269,20.403
		c-4.011,3.141-9.16,3.984-13.595,1.16C3872.385,1898.291,3873.432,1893.85,3874.381,1889.896z M3851.266,1733.261
		c0.885-2.535,3.948-4.308,5.998-6.436c1.602,2.593,4.158,5.017,4.654,7.807c3.798,21.373,6.315,42.892,5.717,62.519
		c0.58,27.147-2.829,51.8-6.868,76.363c-0.522,3.177,0.176,8.951-5.279,8.409c-2.1-0.208-4.538-4.39-5.536-7.217
		C3833.25,1827.43,3834.85,1780.226,3851.266,1733.261z"/>
	<path d="M3973.208,2682.724c-83.862-0.79-148.246,63.482-148.451,148.192c-0.194,80.322,64.449,143.407,147.353,143.802
		c82.243,0.393,146.563-63.03,146.691-144.645C4118.923,2750.533,4052.662,2683.471,3973.208,2682.724z M3975.187,2958.61
		c-73.148,0.75-133.303-57.061-133.097-127.912c0.22-74.751,55.41-131.389,128.586-131.955
		c70.753-0.548,130.69,59.436,130.799,130.9C4101.582,2900.836,4045.718,2957.886,3975.187,2958.61z"/>
	<path d="M4162.234,2571.602c-0.271,76.691,59.172,137.495,134.703,137.79c75.9,0.296,133.886-54.657,134.865-127.81
		c0.952-71.235-61.439-133.858-133.603-134.096C4222.893,2447.237,4162.477,2502.387,4162.234,2571.602z M4413.699,2578.687
		c0.738,63.844-49.039,112.878-115.528,113.805c-65.062,0.906-119.363-53.509-119.566-119.82
		c-0.182-59.022,53.855-108.781,118.475-109.097C4358.372,2463.276,4412.988,2517.187,4413.699,2578.687z"/>
	<path d="M2078.156,2858.059c34.018-0.067,63.081-28.781,63.415-62.654c0.347-35.039-29.091-64.626-64.079-64.405
		c-36.736,0.231-64.466,27.593-64.574,63.715C2012.814,2829.498,2042.3,2858.128,2078.156,2858.059z M2077.402,2747.528
		c25.885-0.097,47.005,21.553,46.675,47.846c-0.326,25.982-21.708,45.938-48.759,45.512c-26.232-0.413-45.335-19.838-45.152-45.911
		C2030.351,2768.514,2051.146,2747.627,2077.402,2747.528z"/>
	<path d="M1667.153,2751.805c-35.088-0.183-63.487,27.505-63.698,62.104c-0.212,34.848,27.699,63.177,62.459,63.393
		c33.799,0.21,64.403-29.384,64.403-62.279C1730.318,2780.54,1701.787,2751.986,1667.153,2751.805z M1665.973,2861.243
		c-25.575-0.489-46.874-23.222-45.995-49.094c0.845-24.854,22.355-44.515,48.101-43.962c25.519,0.548,45.194,21.493,44.362,47.227
		C1711.617,2840.925,1690.539,2861.712,1665.973,2861.243z"/>
	<path d="M3976.421,2758.903c-34.618-1.995-66.363,26.548-68.027,61.164c-1.655,34.444,25.112,63.894,59.992,66.008
		c34.253,2.075,66.314-26.672,68.204-61.153C4038.436,2791.26,4010.748,2760.88,3976.421,2758.903z M3971.942,2868.454
		c-26.132,0.277-46.022-18.821-46.496-44.642c-0.484-26.34,19.953-47.288,46.618-47.784c25.674-0.477,46.461,19.454,46.523,44.608
		C4018.653,2847.16,3998.152,2868.177,3971.942,2868.454z"/>
	<path d="M4238.87,2564.24c-0.653,35.743,29.666,66.598,65.268,66.418c35.972-0.182,65.67-29.777,66.165-65.939
		c0.475-34.614-28.899-63.279-65.063-63.499C4270.261,2501.009,4239.491,2530.225,4238.87,2564.24z M4304.432,2520.239
		c26.331-0.352,47.052,18.572,47.772,43.628c0.792,27.59-19.787,48.584-47.982,48.948c-26.015,0.335-48.302-20.961-48.513-46.354
		C4255.501,2541.4,4277.427,2520.6,4304.432,2520.239z"/>
</g>
</svg>
