<?xml version="1.0" encoding="utf-8"?>
<!-- Generator: Adobe Illustrator 27.5.0, SVG Export Plug-In . SVG Version: 6.00 Build 0)  -->
<svg version="1.1" id="Layer_1" xmlns="http://www.w3.org/2000/svg" xmlns:xlink="http://www.w3.org/1999/xlink" x="0px" y="0px"
	 viewBox="0 0 2448 3168" style="enable-background:new 0 0 2448 3168;" xml:space="preserve">
<path style="fill:none;stroke:#000000;stroke-width:7;stroke-linecap:round;stroke-miterlimit:10;" d="M1582.077,2766.434
	c0,0,42.924,7.233,53.59,46.566c9.347,34.467-13.973,59.399-30.417,84.875c-16.232,25.146-22.2,54.85-40.249,94.458
	c-24,52.668-67.016,75.557-94.001,81.167c-50.5,10.5-62.625-9.326-58.196-31.663c9.56-48.215,57.114-96.923,65.196-199.337
	c14.416-182.674-77.727-475.665-110.711-573.002c-6.965-20.556-19.789-55.285-23.954-78.963"/>
<g>
	<g>
		<path d="M1008.81,299.252c-5.02,0.898-9.875,2.053-14.674,3.524c-4.791,1.457-9.451,3.286-13.921,5.463
			c-4.486,2.141-8.791,4.628-12.862,7.434c-4.086,2.785-7.948,5.885-11.534,9.273c-7.168,6.778-13.436,14.487-18.62,22.9
			c-5.239,8.376-9.548,17.346-13.01,26.645c-1.747,4.645-3.298,9.368-4.672,14.147c-1.348,4.788-2.522,9.627-3.538,14.504
			c-2.004,9.759-3.369,19.663-4.119,29.62c-0.391,4.977-0.632,9.967-0.72,14.961c-0.094,4.994-0.09,9.992,0.084,14.986
			c0.31,9.989,1.169,19.961,2.531,29.858c1.371,9.896,3.268,19.715,5.723,29.38c1.222,4.834,2.587,9.628,4.094,14.371
			c0.383,1.184,0.747,2.375,1.16,3.547l0.603,1.765l0.301,0.883l0.121,0.355l0.168,0.444l2.691,7.107
			c3.669,9.081,8.11,18.015,13.392,26.318c5.287,8.306,11.409,16.069,18.441,22.896c7.038,6.818,14.936,12.703,23.433,17.56
			c4.304,2.323,8.659,4.587,13.233,6.366l1.699,0.705l1.729,0.63l3.462,1.251c2.353,0.702,4.67,1.528,7.062,2.107
			c9.49,2.585,19.313,4.008,29.186,4.454c9.875,0.427,19.819-0.067,29.614-1.543l0.005-0.001l-0.497,6.526
			c-3.406-1.199-6.767-2.528-9.886-4.253c-3.178-1.631-6.146-3.576-9.053-5.583c-1.42-1.045-2.829-2.107-4.217-3.19
			c-1.338-1.137-2.725-2.225-4.021-3.406c-2.611-2.343-5.129-4.782-7.507-7.344c-1.176-1.293-2.391-2.552-3.495-3.904
			c-1.124-1.335-2.278-2.648-3.327-4.04c-1.069-1.378-2.167-2.734-3.161-4.166c-1.012-1.419-2.059-2.814-2.996-4.282
			c-1.951-2.887-3.773-5.857-5.494-8.884c-1.725-3.025-3.316-6.125-4.817-9.268c-0.713-1.588-1.471-3.158-2.146-4.763
			c-0.655-1.615-1.332-3.22-1.966-4.843l-1.778-4.918l-1.571-4.991c-0.483-1.676-0.912-3.369-1.369-5.054
			c-0.441-1.689-0.77-3.407-1.159-5.109c-0.687-3.426-1.275-6.877-1.654-10.358c-0.248-1.733-0.35-3.483-0.476-5.231
			c-0.058-0.874-0.139-1.747-0.176-2.623l-0.055-2.63l-0.053-2.63l0.077-2.632c0.055-1.755,0.093-3.511,0.286-5.26
			c0.253-3.505,0.76-6.993,1.386-10.454c0.372-1.721,0.683-3.455,1.108-5.163l1.385-5.099c0.488-1.793,2.337-2.852,4.13-2.365
			c1.794,0.487,2.852,2.336,2.365,4.13l-0.054,0.199l-1.287,4.74c-0.396,1.588-0.682,3.204-1.03,4.804
			c-0.581,3.224-1.057,6.473-1.291,9.748c-0.184,1.632-0.216,3.275-0.268,4.917l-0.074,2.463l0.052,2.466l0.05,2.466
			c0.034,0.822,0.113,1.643,0.167,2.464c0.12,1.642,0.211,3.286,0.448,4.919c0.355,3.277,0.911,6.533,1.56,9.77
			c0.37,1.61,0.677,3.233,1.096,4.832c0.435,1.595,0.839,3.198,1.297,4.787l1.49,4.734l1.689,4.671l1.869,4.604
			c0.642,1.527,1.365,3.019,2.042,4.531c1.428,2.99,2.942,5.941,4.585,8.821c1.637,2.881,3.372,5.709,5.227,8.454
			c0.891,1.398,1.887,2.722,2.848,4.071c0.944,1.362,1.988,2.647,3.001,3.955c0.996,1.324,2.09,2.563,3.153,3.829
			c1.045,1.283,2.194,2.469,3.305,3.691c2.246,2.419,4.616,4.713,7.063,6.91c1.215,1.109,2.508,2.118,3.757,3.183
			c1.292,1.006,2.6,1.991,3.914,2.961c2.685,1.849,5.414,3.642,8.288,5.112c2.833,1.573,5.823,2.736,8.818,3.803l12.79,4.555
			l-13.287,1.972l-0.006,0.001c-5.109,0.871-10.258,1.475-15.426,1.836c-5.168,0.351-10.358,0.509-15.545,0.296
			c-10.369-0.357-20.741-1.742-30.838-4.375c-2.541-0.591-5.016-1.436-7.523-2.16l-3.7-1.291l-1.848-0.653l-1.82-0.73
			c-4.896-1.849-9.581-4.211-14.212-6.654c-9.138-5.129-17.6-11.462-25.138-18.724c-7.529-7.28-14.055-15.529-19.66-24.297
			c-5.608-8.791-10.25-18.063-14.183-27.763l-2.705-7.102l-0.169-0.444l-0.19-0.542l-0.315-0.915l-0.629-1.829
			c-0.43-1.216-0.81-2.447-1.208-3.673c-1.561-4.912-3.011-9.858-4.241-14.856c-2.487-9.989-4.391-20.106-5.753-30.291
			c-1.353-10.185-2.186-20.436-2.457-30.704c-0.152-5.134-0.145-10.273,0.011-15.408c0.14-5.136,0.437-10.268,0.887-15.389
			c0.87-10.243,2.371-20.443,4.539-30.515c1.098-5.033,2.36-10.034,3.806-14.987c1.473-4.946,3.131-9.841,4.997-14.664
			c3.731-9.644,8.459-18.933,14.123-27.639c5.771-8.629,12.568-16.647,20.498-23.396c3.954-3.379,8.158-6.469,12.605-9.149
			c4.45-2.675,9.102-4.988,13.893-6.918c9.583-3.844,19.805-5.973,29.93-6.625l0.017-0.001c0.279-0.018,0.519,0.193,0.538,0.472
			C1009.243,298.981,1009.06,299.207,1008.81,299.252z"/>
	</g>
</g>
<g>
	<g>
		<path d="M1005.792,523.09c0.082,2.565,0.359,5.33,0.702,8.004c0.347,2.695,0.787,5.387,1.324,8.061
			c0.512,2.678,1.15,5.333,1.833,7.973c0.693,2.639,1.479,5.251,2.326,7.843c0.427,1.294,0.902,2.572,1.35,3.859
			c0.462,1.282,0.986,2.539,1.476,3.81c1.038,2.518,2.117,5.019,3.325,7.456c0.571,1.236,1.201,2.44,1.848,3.636
			c0.637,1.201,1.261,2.409,1.97,3.568c0.7,1.163,1.347,2.36,2.089,3.497l2.216,3.416c1.575,2.208,3.113,4.446,4.844,6.535
			c1.641,2.161,3.498,4.139,5.288,6.172c1.906,1.924,3.754,3.909,5.8,5.688c1.955,1.878,4.104,3.533,6.195,5.254
			c1.061,0.841,2.186,1.6,3.275,2.405c1.094,0.799,2.186,1.603,3.347,2.306l3.428,2.189c1.155,0.71,2.362,1.336,3.54,2.009
			c2.334,1.387,4.819,2.499,7.258,3.697c1.206,0.627,2.487,1.096,3.738,1.629l3.771,1.563l0.001,0l-4.13,4.698
			c-0.881-1.675-1.61-3.19-2.325-4.792c-0.727-1.58-1.383-3.176-2.044-4.772c-0.657-1.598-1.248-3.212-1.873-4.82l-1.689-4.875
			c-2.155-6.529-3.918-13.164-5.474-19.845c-1.415-6.706-2.733-13.443-3.556-20.247l-0.634-5.1l-0.447-5.118
			c-0.136-1.707-0.326-3.411-0.417-5.12l-0.246-5.129c-0.068-1.71-0.193-3.42-0.213-5.131l-0.038-5.134l-0.03-5.163l0.109-5.057
			c0.202-6.855,0.566-13.602,0.967-20.358c0.778-13.502,1.871-26.907,2.445-40.309c0.302-6.698,0.511-13.394,0.578-20.079
			c0.07-3.345,0.019-6.684,0.019-10.026c-0.079-3.336-0.099-6.679-0.262-10.01c-0.224-6.671-0.719-13.321-1.371-19.951l-0.543-4.966
			c-0.178-1.656-0.443-3.298-0.643-4.951c-0.388-3.309-0.968-6.584-1.478-9.874c-0.27-1.642-0.609-3.27-0.91-4.906
			c-0.311-1.635-0.606-3.273-0.981-4.893l-1.042-4.882c-0.349-1.627-0.787-3.232-1.176-4.85c-1.591-6.465-3.496-12.85-5.594-19.182
			c-1.15-3.126-2.142-6.322-3.408-9.412l-1.817-4.673l-1.971-4.614c-1.252-3.111-2.77-6.095-4.152-9.158
			c-0.674-1.542-1.493-3.005-2.232-4.516l-2.26-4.518l-0.013-0.027c-0.158-0.315-0.03-0.698,0.285-0.855
			c0.292-0.146,0.642-0.047,0.817,0.22c1.859,2.825,3.826,5.603,5.569,8.514c1.739,2.914,3.525,5.814,5.083,8.837l2.402,4.507
			l2.204,4.608c1.524,3.053,2.799,6.215,4.14,9.354c0.672,1.569,1.231,3.18,1.853,4.77c0.588,1.602,1.255,3.179,1.779,4.803
			c1.099,3.232,2.2,6.469,3.121,9.758c2.004,6.536,3.541,13.202,4.9,19.898c1.292,6.708,2.389,13.456,3.141,20.24
			c0.758,6.781,1.354,13.581,1.674,20.386c0.211,3.402,0.277,6.805,0.402,10.208c0.046,3.4,0.142,6.805,0.117,10.203
			c0.031,6.801-0.177,13.589-0.426,20.365c-0.251,6.778-0.627,13.537-1.02,20.283l-1.27,20.186
			c-0.42,6.705-0.801,13.425-1.018,20.051l-0.125,5.056l0.016,4.952l0.02,4.981c0.014,1.66,0.132,3.316,0.192,4.975l0.222,4.974
			c0.082,1.657,0.263,3.308,0.389,4.961l0.417,4.961l0.6,4.939c0.727,6.597,1.875,13.132,3.147,19.639
			c1.402,6.477,3.003,12.912,4.977,19.226l1.548,4.707c0.56,1.549,1.083,3.118,1.667,4.655c0.589,1.535,1.173,3.075,1.816,4.576
			c0.615,1.496,1.316,3.037,1.966,4.365l4.001,8.184l-8.131-3.486l-0.001,0l-3.983-1.648c-1.322-0.563-2.671-1.062-3.952-1.722
			c-2.584-1.265-5.209-2.449-7.692-3.917c-1.25-0.714-2.529-1.38-3.756-2.135l-3.645-2.326c-1.233-0.749-2.396-1.603-3.562-2.453
			c-1.161-0.856-2.355-1.667-3.486-2.563c-2.23-1.83-4.515-3.599-6.601-5.597c-2.177-1.898-4.151-4.007-6.177-6.061
			c-1.909-2.161-3.882-4.272-5.63-6.568c-1.839-2.224-3.476-4.598-5.146-6.945l-2.352-3.623c-0.786-1.206-1.474-2.472-2.215-3.705
			c-0.75-1.23-1.411-2.506-2.085-3.777c-0.685-1.265-1.35-2.539-1.954-3.843c-1.275-2.577-2.415-5.214-3.508-7.868
			c-0.517-1.338-1.067-2.665-1.554-4.014c-0.473-1.354-0.971-2.7-1.421-4.061c-0.891-2.726-1.717-5.472-2.445-8.245
			c-0.718-2.775-1.387-5.563-1.927-8.38c-0.564-2.812-1.027-5.645-1.395-8.498c-0.363-2.873-0.656-5.681-0.755-8.708
			c-0.06-1.842,1.385-3.385,3.228-3.444c1.842-0.06,3.385,1.385,3.445,3.228v0.002L1005.792,523.09z"/>
	</g>
</g>
<path style="fill:none;stroke:#000000;stroke-width:7;stroke-linecap:round;stroke-miterlimit:10;" d="M1059.72,407.57
	c23.83,138.87,142.11,146.14,197.85,214.3"/>
<g>
	<g>
		<path d="M1041.358,288.33c15.848-2.879,32.688-1.117,47.884,4.813c0.964,0.339,1.896,0.752,2.835,1.147
			c0.935,0.405,1.887,0.778,2.81,1.21c1.837,0.882,3.705,1.711,5.494,2.689c3.642,1.844,7.119,3.978,10.548,6.178
			c6.792,4.5,13.188,9.565,19.214,15.015c11.938,11.027,22.506,23.42,31.896,36.571c4.708,6.57,9.164,13.31,13.409,20.17
			c4.224,6.875,8.233,13.873,12.067,20.959c7.665,14.176,14.626,28.704,21.061,43.447c6.431,14.745,12.332,29.708,17.797,44.822
			c5.463,15.115,10.489,30.382,15.118,45.769l1.722,5.83l1.609,5.781l3.219,11.561c1.126,3.822,1.99,7.8,2.977,11.706l2.862,11.769
			l2.453,11.845l1.226,5.924l0.991,5.977c0.642,3.989,1.361,7.963,1.937,11.964l1.438,12.056
			c1.596,16.114,2.059,32.414,0.811,48.633c-1.203,16.223-4.164,32.261-8.005,47.923c-3.808,15.663-8.429,31.08-12.5,46.406
			c-3.854,15.164-6.044,30.852-5.519,46.357c0.277,7.744,1.28,15.439,3.254,22.834c1.986,7.376,4.896,14.496,9.072,20.774
			c4.156,6.281,9.47,11.737,15.661,16.019c6.184,4.298,13.209,7.412,20.577,9.474c7.376,2.065,15.073,3.14,22.834,3.572
			c7.775,0.403,15.613-0.036,23.431-0.717l0.007,0l-1.235,6.589c-3.923-2.046-7.609-4.474-11.066-7.167
			c-1.752-1.322-3.373-2.791-5.018-4.232c-1.563-1.524-3.166-3.012-4.617-4.64c-1.521-1.566-2.876-3.271-4.285-4.931l-1.979-2.593
			c-0.672-0.856-1.296-1.745-1.899-2.647c-2.525-3.54-4.657-7.326-6.706-11.139c-3.933-7.717-6.938-15.867-9.065-24.211
			c-2.131-8.346-3.388-16.882-3.903-25.434c-0.517-8.554-0.296-17.123,0.491-25.614c0.802-8.489,2.104-16.919,3.924-25.222
			c0.431-2.082,0.976-4.134,1.459-6.202l0.748-3.096l0.853-3.066c0.579-2.04,1.114-4.096,1.73-6.123l1.91-6.065
			c0.607-2.032,1.349-4.016,2.041-6.017l2.067-5.909l4.085-11.873l1.021-2.968c0.349-0.989,0.686-1.979,0.955-2.969l1.735-5.941
			l1.737-5.94l0.869-2.97c0.282-0.993,0.494-2.01,0.744-3.013l2.896-12.079c0.263-1.002,0.442-2.021,0.628-3.038l0.565-3.05
			l1.132-6.1c0.854-4.053,1.273-8.165,1.83-12.259l0.804-6.145l0.475-6.173c0.301-4.116,0.698-8.229,0.679-12.357l0.121-6.186
			c0.007-1.031,0.068-2.063,0.032-3.092l-0.112-3.09c-0.186-8.244-0.824-16.475-1.907-24.648c-0.618-4.077-1.064-8.18-1.942-12.217
			l-1.176-6.076c-0.18-1.016-0.406-2.023-0.661-3.024l-0.726-3.011l-1.451-6.023l-1.683-5.97c-0.581-1.985-1.096-3.987-1.73-5.959
			l-1.908-5.913c-2.548-7.884-5.477-15.664-8.462-23.431l-0.015-0.04c-0.693-1.804,0.207-3.829,2.012-4.522
			c1.804-0.693,3.829,0.207,4.522,2.011c3.021,7.859,5.992,15.753,8.594,23.8l1.947,6.036c0.647,2.013,1.178,4.067,1.771,6.098
			l1.723,6.115l1.49,6.184l0.745,3.092c0.261,1.028,0.493,2.062,0.679,3.107l1.211,6.25c0.899,4.15,1.365,8.379,1.999,12.578
			c1.116,8.419,1.774,16.903,1.966,25.395l0.114,3.184c0.036,1.061-0.025,2.123-0.032,3.184l-0.124,6.368
			c0.017,4.251-0.388,8.477-0.697,12.708l-0.49,6.345l-0.823,6.305c-0.568,4.2-1.006,8.423-1.875,12.57l-1.16,6.246l-0.58,3.123
			c-0.19,1.042-0.375,2.084-0.643,3.108l-2.957,12.342c-0.256,1.026-0.473,2.061-0.762,3.081l-0.893,3.056l-1.788,6.111l-1.79,6.11
			c-0.283,1.029-0.62,2.021-0.967,3.006l-1.021,2.968l-4.084,11.873l-2.079,5.943c-0.677,1.953-1.402,3.892-1.993,5.872
			l-1.861,5.911c-0.602,1.975-1.119,3.974-1.684,5.959l-0.83,2.983l-0.727,3.006c-0.468,2.007-1,4.003-1.416,6.019
			c-1.765,8.052-3.02,16.197-3.793,24.371c-0.758,8.174-0.968,16.391-0.475,24.551c0.962,16.303,4.845,32.445,12.203,46.862
			c1.914,3.553,3.894,7.082,6.236,10.359c0.56,0.838,1.137,1.662,1.76,2.452l1.828,2.399c1.303,1.527,2.55,3.106,3.95,4.542
			c1.334,1.501,2.806,2.858,4.235,4.26c1.506,1.314,2.984,2.661,4.578,3.859c3.144,2.448,6.476,4.641,9.977,6.468l10.713,5.589
			l-11.947,1l-0.008,0c-8.109,0.785-16.276,1.318-24.499,0.969c-8.209-0.379-16.461-1.434-24.507-3.657
			c-8.033-2.206-15.862-5.606-22.849-10.409c-6.992-4.779-13.064-10.955-17.767-17.998c-4.729-7.042-7.982-14.923-10.188-22.96
			c-2.193-8.058-3.3-16.324-3.638-24.559c-0.341-8.242,0.113-16.465,1.121-24.586c0.129-1.015,0.235-2.034,0.383-3.045l0.477-3.028
			l0.48-3.028l0.578-3.007l0.58-3.007l0.672-3.011c0.453-2.01,0.899-4.033,1.421-5.94c4.143-15.602,8.712-30.854,12.46-46.293
			c3.773-15.407,6.631-30.948,7.793-46.651c1.204-15.696,0.756-31.497-0.803-47.217l-1.375-11.78
			c-0.544-3.919-1.233-7.824-1.843-11.736l-0.943-5.867l-1.179-5.834l-2.357-11.669l-2.755-11.565
			c-0.954-3.855-1.764-7.707-2.881-11.567l-3.163-11.577l-1.582-5.788l-1.65-5.687c-4.517-15.28-9.429-30.445-14.772-45.453
			c-5.345-15.006-11.12-29.857-17.413-44.476c-6.296-14.616-13.107-29.006-20.598-43.018c-3.745-7.005-7.664-13.913-11.78-20.694
			c-4.094-6.794-8.391-13.461-12.927-19.952c-9.099-12.95-19.067-25.311-30.443-36.23c-5.684-5.452-11.717-10.532-18.135-15.066
			c-6.455-4.461-13.237-8.493-20.459-11.566l-2.715-1.133c-0.91-0.367-1.839-0.679-2.755-1.03c-1.827-0.726-3.716-1.254-5.582-1.871
			l-2.843-0.77c-0.947-0.266-1.9-0.506-2.864-0.696l-2.884-0.622l-2.913-0.477l-1.458-0.234l-1.468-0.164l-2.939-0.321
			c-1.968-0.093-3.938-0.302-5.913-0.271c-3.957-0.136-7.871,0.146-11.885,0.515c-0.391,0.036-0.736-0.252-0.772-0.643
			c-0.034-0.369,0.22-0.698,0.578-0.764L1041.358,288.33z"/>
	</g>
</g>
<path style="fill:none;stroke:#000000;stroke-width:7;stroke-linecap:round;stroke-miterlimit:10;" d="M907.172,454.059
	c-11.485,73.086-94.336,180.192-44.092,282.969"/>
<g>
	<path d="M995.024,275.318c-6.067-0.042-12.039,0.233-18.021,0.819c-5.975,0.575-11.887,1.638-17.706,3
		c-5.81,1.406-11.556,3.063-17.126,5.2c-5.573,2.121-10.999,4.604-16.241,7.422c-5.244,2.813-10.304,5.963-15.125,9.441
		c-4.834,3.46-9.483,7.175-13.908,11.144c-4.441,3.952-8.6,8.216-12.595,12.619c-3.995,4.405-7.798,8.99-11.347,13.77
		c-7.137,9.532-13.443,19.685-19.089,30.192c-2.786,5.276-5.433,10.627-7.889,16.071c-2.429,5.455-4.757,10.958-6.868,16.551
		c-4.232,11.177-7.991,22.549-11.08,34.117c-3.14,11.553-5.691,23.268-7.803,35.065c-2.124,11.796-3.681,23.696-4.854,35.631
		c-1.14,11.941-1.811,23.929-2.081,35.926c-0.098,5.999-0.149,12.001-0.038,18.001c0.031,3.001,0.117,6.001,0.216,9l0.068,2.25
		l0.137,2.178l0.282,4.523l0.564,9.047c0.063,1.521,0.266,2.984,0.422,4.466l0.492,4.438l0.981,8.874l1.405,8.86
		c1.778,11.833,4.559,23.477,7.596,35.033l2.602,8.576l1.302,4.288l1.488,4.225c1.004,2.812,1.954,5.645,3.001,8.44l3.331,8.313
		c4.618,11.006,9.838,21.763,15.826,32.071c5.983,10.302,12.733,20.172,20.277,29.277l5.692,6.87l-8.791-1.141
		c-6.179-0.802-12.05-2.44-17.745-4.481c-5.689-2.059-11.14-4.643-16.424-7.501l-3.927-2.211l-3.817-2.388
		c-0.633-0.402-1.276-0.79-1.901-1.205l-1.846-1.286l-3.685-2.583l-3.56-2.749l-1.778-1.376l-1.708-1.461l-3.415-2.924
		c-1.119-0.996-2.183-2.052-3.277-3.075c-4.381-4.091-8.386-8.56-12.229-13.149c-1.001-1.115-1.847-2.354-2.774-3.528l-2.723-3.569
		c-1.721-2.446-3.377-4.939-5.065-7.408l-4.615-7.69l-4.184-7.927l-3.732-8.142c-1.141-2.756-2.195-5.547-3.294-8.32
		c-1.992-5.616-3.887-11.275-5.336-17.049l-1.153-4.313l-0.931-4.362l-0.929-4.363c-0.149-0.729-0.323-1.452-0.45-2.184l-0.35-2.2
		l-1.395-8.801l-0.949-8.851c-0.375-2.947-0.493-5.909-0.662-8.868l-0.249-4.439c-0.093-1.479-0.173-2.959-0.158-4.44l-0.072-8.881
		l-0.018-2.22c0.009-0.74,0.051-1.478,0.075-2.217l0.169-4.433l0.17-4.433c0.063-1.477,0.084-2.958,0.235-4.428l0.732-8.833
		l0.377-4.415l0.552-4.393l1.106-8.786c0.16-1.468,0.417-2.92,0.662-4.375l0.73-4.363l1.461-8.726
		c0.319-1.906,2.123-3.193,4.029-2.873c1.906,0.319,3.192,2.123,2.873,4.029l-0.023,0.134l-1.435,8.575l-0.718,4.287
		c-0.241,1.429-0.494,2.857-0.65,4.296l-1.084,8.618l-0.543,4.309l-0.368,4.323l-0.717,8.648c-0.148,1.44-0.167,2.885-0.229,4.329
		l-0.165,4.331l-0.166,4.331c-0.023,0.722-0.065,1.444-0.074,2.166l0.018,2.165l0.07,8.659c-0.015,1.445,0.064,2.884,0.154,4.323
		l0.244,4.318c0.164,2.879,0.277,5.763,0.643,8.62l0.919,8.591l1.352,8.523l0.337,2.131c0.122,0.708,0.292,1.407,0.435,2.11
		l0.899,4.216l0.897,4.216l1.114,4.158c1.396,5.572,3.224,11.014,5.136,16.415c1.058,2.661,2.069,5.343,3.162,7.989l3.577,7.805
		l4.004,7.586l4.411,7.35c1.614,2.355,3.193,4.736,4.835,7.072l2.599,3.403c0.885,1.119,1.688,2.305,2.644,3.365
		c3.664,4.371,7.476,8.631,11.646,12.521c1.041,0.974,2.053,1.98,3.116,2.928l3.248,2.779l1.623,1.391l1.691,1.306l3.381,2.613
		l3.498,2.45l1.752,1.222c0.592,0.394,1.203,0.76,1.803,1.142l3.617,2.265l3.717,2.09c4.995,2.701,10.14,5.141,15.454,7.063
		c5.305,1.905,10.769,3.407,16.197,4.11l-3.099,5.729c-15.755-19.024-27.763-40.621-37.212-63.171l-3.411-8.517
		c-1.072-2.862-2.046-5.761-3.074-8.64l-1.521-4.326l-1.333-4.386l-2.661-8.774c-3.11-11.814-5.947-23.718-7.765-35.797L809.477,606
		l-1.012-9.146l-0.503-4.573c-0.16-1.523-0.367-3.056-0.429-4.557l-0.564-9.047l-0.282-4.524l-0.145-2.345l-0.074-2.281
		c-0.106-3.041-0.199-6.082-0.237-9.124c-0.125-6.084-0.086-12.17,0.001-18.255c0.249-12.169,0.905-24.334,2.038-36.46
		c1.167-12.121,2.724-24.213,4.859-36.214c2.103-12.005,4.745-23.923,7.963-35.693c0.771-2.952,1.667-5.87,2.501-8.804
		c0.914-2.912,1.767-5.842,2.748-8.734c1.87-5.811,3.957-11.556,6.185-17.245c2.218-5.693,4.661-11.301,7.207-16.859
		c2.575-5.547,5.346-11.005,8.261-16.386c2.942-5.368,6.086-10.628,9.399-15.782c3.34-5.138,6.924-10.12,10.677-14.969
		c7.516-9.691,15.95-18.707,25.29-26.692c9.344-7.967,19.582-14.941,30.617-20.333c11.002-5.426,22.69-9.481,34.712-11.703
		c11.993-2.289,24.294-2.889,36.36-2.052l0.017,0.001c0.302,0.021,0.53,0.283,0.509,0.586
		C995.556,275.098,995.312,275.32,995.024,275.318z"/>
</g>
<path style="fill:none;stroke:#000000;stroke-width:7;stroke-linecap:round;stroke-miterlimit:10;" d="M761.699,541.819
	c0,0-27.365,79.181-2.433,192.021C685.618,601.207,743.143,447.772,765,400.238c22.333-48.57,87.598-150.45,226.166-162.738
	c98.655-57.339,273.547-8.836,327.94,85.818"/>
<path style="fill:none;stroke:#000000;stroke-width:7;stroke-linecap:round;stroke-miterlimit:10;" d="M1294.804,368.982
	c9.421-57.384,40.538-53.794,86.788-53.041C1362.181,346.004,1358.958,390.48,1294.804,368.982z"/>
<path style="fill:none;stroke:#000000;stroke-width:7;stroke-linecap:round;stroke-miterlimit:10;" d="M1310.531,414.923
	c6.501,24.306-13.154,35.139-26.862,61.118c-17.129-37.685-39.397-65.948,11.135-107.059c2.568,59.096,40.538,66.521,86.788,59.669
	c-13.704-18.843-21.077-54.507-53.606-54.126"/>
<path style="fill:none;stroke:#000000;stroke-width:7;stroke-linecap:round;stroke-miterlimit:10;" d="M1276.783,386.603
	c-16.647,23.712-59.059,8.541-83.041,11.967c22.837-39.866,47.103-63.848,101.061-29.588"/>
<path style="fill:none;stroke:#000000;stroke-width:7;stroke-linecap:round;stroke-miterlimit:10;" d="M1271.792,357.111
	c-29.438-21.532-19.491-50.937-7.373-82.342c9.26,20.874,44.373,24.266,41.743,60.622"/>
<path style="fill:none;stroke:#000000;stroke-width:7;stroke-linecap:round;stroke-miterlimit:10;" d="M1373.495,415.026
	c68.963,104.113,214.941,286.509,126.28,393.053c2.295-70.813-28.775-165.838-83.353-214.119"/>
<path style="fill:none;stroke:#000000;stroke-width:7;stroke-linecap:round;stroke-miterlimit:10;" d="M1355.476,386.386
	c-3.666-6.338-6.781-12.128-9.18-17.404"/>
<path style="fill:none;stroke:#000000;stroke-width:7;stroke-linecap:round;stroke-miterlimit:10;" d="M1461.54,652.85
	c0,0,73.46,142.15-26.274,206.035c8.564-53.101-13.704-135.323-71.944-246.664"/>
<path style="fill:none;stroke:#000000;stroke-width:7;stroke-linecap:round;stroke-miterlimit:10;" d="M1399.922,689.28
	c0,0,62.75,149.05-36.601,183.309c17.13-58.24-8.109-114.681-45.165-220.927"/>
<path style="fill:none;stroke:#000000;stroke-width:7;stroke-linecap:round;stroke-miterlimit:10;" d="M1342.903,721.803
	c0,0,46.112,136.904-24.747,158.986"/>
<path style="fill:none;stroke:#000000;stroke-width:7;stroke-linecap:round;stroke-miterlimit:10;" d="M1089.821,564.83
	c0,0,36.427-19.683,80.452-8.128"/>
<path style="fill:none;stroke:#000000;stroke-width:7;stroke-linecap:round;stroke-miterlimit:10;" d="M934.783,572.591
	c0,0-46.956-11.254-78.14,29.034"/>
<g>
	<g>
		<g>
			<path d="M1150.273,638.526c0,0-0.178,0.131-0.532,0.392c-0.294,0.22-0.779,0.569-1.391,1.034
				c-1.221,0.94-2.917,2.329-4.958,4.059c-0.997,0.886-2.118,1.83-3.225,2.88c-0.569,0.522-1.141,1.061-1.737,1.609
				c-0.569,0.569-1.14,1.144-1.753,1.736c-1.217,1.162-2.396,2.446-3.589,3.724c-1.218,1.298-2.393,2.663-3.59,4.021
				c-1.131,1.414-2.278,2.794-3.355,4.231c-0.526,0.725-1.028,1.437-1.542,2.14c-0.269,0.364-0.526,0.716-0.78,1.065
				c-0.234,0.357-0.474,0.735-0.709,1.079c-0.451,0.718-0.903,1.425-1.348,2.121c-0.21,0.345-0.435,0.689-0.656,1.027
				c-0.205,0.365-0.398,0.703-0.575,1.047c-0.382,0.689-0.756,1.37-1.104,2.007c-0.351,0.645-0.743,1.265-1,1.914
				c-0.576,1.246-1.101,2.405-1.569,3.425c-0.472,1.035-0.737,1.989-1.024,2.741c-0.548,1.536-0.867,2.411-0.867,2.411
				s0.231-0.903,0.646-2.479c0.225-0.798,0.402-1.777,0.773-2.873c0.382-1.064,0.807-2.288,1.274-3.603
				c0.204-0.686,0.539-1.338,0.833-2.037c0.298-0.688,0.616-1.407,0.938-2.145c0.17-0.37,0.34-0.751,0.488-1.121
				c0.201-0.37,0.371-0.743,0.589-1.117c0.378-0.742,0.782-1.513,1.178-2.294c0.193-0.388,0.391-0.788,0.615-1.174
				c0.218-0.382,0.446-0.765,0.683-1.156c0.462-0.776,0.92-1.547,1.396-2.356c0.936-1.569,2.01-3.088,3.027-4.661
				c1.091-1.492,2.178-3.034,3.269-4.479c1.148-1.442,2.228-2.874,3.362-4.189c0.56-0.673,1.108-1.321,1.644-1.964
				c0.575-0.629,1.114-1.245,1.636-1.84c1.047-1.191,2.115-2.275,3.035-3.275c1.95-2.011,3.597-3.641,4.794-4.749
				c0.562-0.558,1.047-0.995,1.405-1.3c0.335-0.287,0.499-0.441,0.499-0.441c1.141-1.009,2.827-0.848,3.798,0.372
				c0.954,1.204,0.782,3.021-0.352,4.035c-0.067,0.059-0.124,0.107-0.185,0.155L1150.273,638.526z"/>
		</g>
	</g>
	<g>
		<g>
			<path d="M1164.302,622.896c0,0,0.073-0.039,0.201-0.123c0.087-0.047,0.274-0.177,0.515-0.36c0.482-0.376,1.171-0.915,1.955-1.708
				c0.397-0.372,0.785-0.832,1.248-1.308c0.378-0.506,0.866-1.004,1.272-1.593c0.21-0.29,0.411-0.582,0.632-0.88
				c0.211-0.32,0.408-0.639,0.615-0.943c0.442-0.642,0.783-1.344,1.164-2.031c0.375-0.691,0.669-1.415,1.011-2.135
				c0.308-0.719,0.555-1.457,0.837-2.165c0.253-0.729,0.415-1.438,0.638-2.109c0.211-0.685,0.305-1.336,0.435-1.949
				c0.125-0.605,0.264-1.147,0.321-1.65c0.063-0.521,0.127-0.956,0.164-1.315c0.097-0.731,0.146-1.143,0.146-1.143
				s0.054,0.421,0.101,1.151c0.03,0.368,0.067,0.823,0.121,1.323c0.047,0.527,0.034,1.099,0.034,1.741
				c0,0.646,0.04,1.354-0.026,2.078c-0.057,0.741-0.09,1.514-0.185,2.325c-0.127,0.8-0.204,1.63-0.384,2.483
				c-0.177,0.833-0.325,1.699-0.569,2.546c-0.254,0.833-0.468,1.689-0.792,2.494c-0.137,0.413-0.298,0.821-0.438,1.226
				c-0.17,0.388-0.341,0.776-0.515,1.161c-0.301,0.766-0.702,1.467-1.043,2.161c-0.368,0.656-0.723,1.312-1.098,1.871
				c-0.706,1.151-1.416,2.047-1.92,2.679c-0.275,0.318-0.493,0.565-0.687,0.768c-0.144,0.156-0.241,0.25-0.241,0.25l0.007,0.006
				c-1.141,1.181-2.961,1.154-4.065-0.052c-1.121-1.222-1.097-3.177,0.041-4.364C1163.94,623.164,1164.121,623.017,1164.302,622.896
				z"/>
		</g>
	</g>
	<g>
		<g>
			<path d="M1196.265,621.729c0,0,0.1-0.02,0.269-0.041c0.086-0.019,0.19-0.023,0.297-0.046c0.141-0.03,0.282-0.064,0.459-0.098
				c0.347-0.086,0.769-0.204,1.257-0.357c0.496-0.157,1.057-0.345,1.637-0.612c0.618-0.218,1.227-0.564,1.903-0.89
				c0.329-0.186,0.67-0.385,0.997-0.585c0.355-0.198,0.709-0.409,1.038-0.673c0.334-0.241,0.685-0.481,1.03-0.734
				c0.341-0.259,0.673-0.567,1.024-0.848c0.696-0.546,1.304-1.238,1.94-1.896c0.653-0.668,1.188-1.436,1.787-2.152
				c0.522-0.763,0.997-1.552,1.481-2.297c0.452-0.8,0.837-1.584,1.212-2.33c0.404-0.748,0.625-1.526,0.923-2.202
				c0.261-0.696,0.519-1.318,0.663-1.917c0.17-0.586,0.324-1.101,0.448-1.516c0.218-0.856,0.368-1.328,0.368-1.328
				s-0.036,0.493-0.144,1.378c-0.037,0.443-0.09,0.982-0.147,1.599c-0.041,0.624-0.19,1.295-0.348,2.061
				c-0.161,0.759-0.269,1.606-0.529,2.432c-0.248,0.85-0.512,1.75-0.813,2.684c-0.369,0.892-0.732,1.83-1.168,2.777
				c-0.478,0.893-0.923,1.854-1.494,2.737c-0.565,0.857-1.115,1.763-1.791,2.551c-0.352,0.398-0.635,0.816-0.99,1.206
				c-0.338,0.357-0.676,0.722-1.01,1.081c-0.349,0.363-0.699,0.699-1.054,1.014c-0.359,0.316-0.713,0.632-1.054,0.923
				c-0.709,0.55-1.379,1.104-2.038,1.521c-0.659,0.458-1.308,0.828-1.86,1.152c-0.556,0.301-1.07,0.562-1.512,0.769
				c-0.21,0.1-0.424,0.197-0.585,0.256c-0.194,0.082-0.358,0.154-0.509,0.206c-0.227,0.082-0.384,0.154-0.384,0.154
				c-1.493,0.54-3.118-0.318-3.621-1.92c-0.541-1.616,0.251-3.366,1.757-3.917c0.16-0.063,0.327-0.102,0.501-0.135L1196.265,621.729
				z"/>
		</g>
	</g>
	<g>
		<g>
			<path d="M1220.782,631.835c0,0,0.106-0.028,0.278-0.079c0.197-0.061,0.501-0.155,0.887-0.289c0.776-0.268,1.92-0.703,3.228-1.316
				c2.659-1.233,6.093-3.233,9.054-5.95c0.759-0.663,1.455-1.379,2.123-2.125c0.681-0.736,1.285-1.509,1.871-2.288
				c0.556-0.776,1.054-1.579,1.532-2.345c0.425-0.78,0.819-1.539,1.141-2.255c0.361-0.72,0.576-1.417,0.851-2.027
				c0.184-0.629,0.354-1.171,0.488-1.613c0.227-0.927,0.354-1.445,0.354-1.445s-0.033,0.537-0.114,1.489
				c-0.06,0.479-0.146,1.062-0.234,1.723c-0.144,0.647-0.268,1.412-0.501,2.204c-0.195,0.807-0.492,1.653-0.807,2.556
				c-0.335,0.898-0.733,1.83-1.194,2.76c-0.462,0.94-0.974,1.887-1.572,2.8c-0.583,0.933-1.205,1.848-1.894,2.71
				c-2.704,3.54-6.09,6.429-8.772,8.334c-1.332,0.95-2.512,1.676-3.359,2.154c-0.422,0.246-0.762,0.428-1.017,0.562
				c-0.261,0.129-0.411,0.194-0.411,0.194l0.003,0.006c-1.445,0.713-3.142,0.043-3.811-1.487c-0.666-1.549-0.057-3.375,1.382-4.089
				C1220.434,631.946,1220.611,631.882,1220.782,631.835z"/>
		</g>
	</g>
	<g>
		<g>
			<path d="M1114.746,639.373c0,0,0.421-0.843,1.325-2.235c0.91-1.37,2.229-3.317,4.011-5.48c1.811-2.178,4.056-4.563,6.655-6.899
				c1.318-1.15,2.663-2.338,4.148-3.412c1.465-1.092,2.999-2.122,4.567-3.101c0.779-0.471,1.579-0.934,2.396-1.386
				c0.817-0.419,1.612-0.863,2.429-1.244c1.616-0.796,3.262-1.462,4.858-2.048c1.616-0.617,3.208-1.064,4.714-1.455
				c0.766-0.181,1.496-0.37,2.211-0.509c0.707-0.126,1.422-0.254,2.071-0.358c1.358-0.211,2.609-0.338,3.687-0.406
				c1.095-0.048,2.064-0.136,2.83-0.122c1.593,0.009,2.477,0.052,2.477,0.052s-0.887,0.112-2.446,0.286
				c-0.796,0.08-1.72,0.266-2.787,0.425c-0.539,0.067-1.101,0.214-1.7,0.344c-0.596,0.138-1.221,0.211-1.876,0.411
				c-0.646,0.155-1.339,0.342-2.012,0.504c-0.709,0.208-1.404,0.414-2.144,0.635c-1.462,0.468-2.987,1.017-4.53,1.635
				c-1.556,0.609-3.122,1.355-4.697,2.131c-0.792,0.382-1.563,0.83-2.365,1.251c-0.771,0.439-1.553,0.902-2.313,1.36
				c-1.528,0.948-3.051,1.94-4.486,2.99c-1.435,1.041-2.817,2.121-4.135,3.212c-1.291,1.107-2.553,2.175-3.707,3.265
				c-1.124,1.081-2.198,2.131-3.148,3.125c-1.91,2.004-3.445,3.733-4.459,5.008C1115.292,638.61,1114.746,639.373,1114.746,639.373z
				"/>
		</g>
	</g>
	<g>
		<g id="XMLID_29_">
			<g>
				
					<linearGradient id="SVGID_1_" gradientUnits="userSpaceOnUse" x1="-547.4304" y1="348.5229" x2="-546.5615" y2="285.5287" gradientTransform="matrix(0.9404 -0.2029 0.2091 0.9779 1616.8568 239.1603)">
					<stop  offset="0" style="stop-color:#121F8C"/>
					<stop  offset="0.2119" style="stop-color:#0C1560"/>
					<stop  offset="0.4882" style="stop-color:#060A2C"/>
					<stop  offset="0.6968" style="stop-color:#02030C"/>
					<stop  offset="0.8118" style="stop-color:#000000"/>
				</linearGradient>
				<path style="fill:url(#SVGID_1_);" d="M1214.09,670.521c2.798,13.971,1.398,27.666-3.208,38.808
					c-2.576-17.759-12.552-35.208-16.661-41.797c-0.023-0.865-0.043-1.748-0.101-2.642c-0.124-2.208-0.438-4.446-0.879-6.737
					c-3.667-18.203-16.307-30.737-28.214-27.991c-11.914,2.731-18.618,19.721-14.948,37.916c0.686,3.469,1.692,6.718,2.987,9.682
					c0.118,0.282,0.228,0.54,0.352,0.807c-8.729,15.758-15.855,28.968-15.855,28.968l-0.046,0.018
					c-2.73-5.434-4.838-11.482-6.153-17.993c-6.059-30.227,7.545-58.964,30.412-64.221
					C1184.61,620.083,1208.021,640.307,1214.09,670.521z"/>
				
					<linearGradient id="SVGID_00000138574963209826615500000001385408387132418203_" gradientUnits="userSpaceOnUse" x1="-552.5436" y1="392.9787" x2="-551.4481" y2="344.7758" gradientTransform="matrix(0.9404 -0.2029 0.2091 0.9779 1616.8568 239.1603)">
					<stop  offset="0.369" style="stop-color:#FFB7D1"/>
					<stop  offset="0.4286" style="stop-color:#F7B3D1"/>
					<stop  offset="0.5188" style="stop-color:#E3A9D1"/>
					<stop  offset="0.6283" style="stop-color:#C198D0"/>
					<stop  offset="0.7528" style="stop-color:#9180CF"/>
					<stop  offset="0.8883" style="stop-color:#5662CF"/>
					<stop  offset="0.9839" style="stop-color:#274ACE"/>
				</linearGradient>
				<path style="fill:url(#SVGID_00000138574963209826615500000001385408387132418203_);" d="M1194.221,667.532
					c4.109,6.589,14.085,24.038,16.661,41.797c-5.266,12.978-14.905,22.576-27.18,25.394c-17.916,4.122-36.186-7.44-46.186-27.169
					l0.046-0.018c0,0,7.127-13.211,15.855-28.968c5.483,12.282,15.386,19.736,24.841,17.554
					C1188.102,693.853,1194.388,681.908,1194.221,667.532z"/>
				<path d="M1165.027,630.163c-11.914,2.731-18.618,19.721-14.948,37.916c0.686,3.469,1.692,6.718,2.987,9.682
					c0.118,0.282,0.228,0.54,0.352,0.807c5.483,12.282,15.386,19.736,24.841,17.554c9.842-2.268,16.129-14.213,15.962-28.589
					c-0.023-0.865-0.043-1.748-0.101-2.642c-0.124-2.208-0.438-4.446-0.879-6.737
					C1189.574,639.95,1176.935,627.417,1165.027,630.163z"/>
			</g>
			<g>
				<path style="fill:none;stroke:#03012D;stroke-width:5;stroke-linecap:round;stroke-miterlimit:10;" d="M1137.517,707.553
					c-2.73-5.434-4.838-11.482-6.153-17.993c-6.059-30.227,7.545-58.964,30.412-64.221c22.834-5.257,46.246,14.967,52.315,45.181
					c2.798,13.971,1.398,27.666-3.208,38.808c-5.266,12.978-14.905,22.576-27.18,25.394
					C1165.787,738.845,1147.517,727.283,1137.517,707.553z"/>
			</g>
		</g>
	</g>
	<path d="M1109.203,672.483c11.037-50.992,57.209-70.079,95.938-54.438c22.579,9.115,40.88,21.017,62.653,14.316
		c0,0-13.78,10.064-19.773,22.641c-5.961,12.588-4.964,23.98-14.161,37.969c0,0,0.003-18.409-13.414-38.573
		c-15.868-23.828-46.112-29.76-68.966-18.22C1128.31,647.885,1121.164,654.054,1109.203,672.483z"/>
	<path style="fill:#FFFFFF;stroke:#000000;stroke-width:7;stroke-linecap:round;stroke-miterlimit:10;" d="M1172.404,653.92
		c1.385,6.875-2.707,13.65-9.123,15.119c-6.42,1.473-12.74-2.924-14.129-9.799c-1.378-6.889,2.693-13.656,9.114-15.118
		C1164.683,642.645,1171.033,647.028,1172.404,653.92z"/>
</g>
<g>
	<g>
		<path d="M884.616,675.539c0,0-0.115-0.01-0.339,0.003c-0.21,0-0.561,0-0.953-0.008c-0.776-0.028-1.88-0.119-3.195-0.306
			c-0.672-0.108-1.385-0.199-2.104-0.381c-0.382-0.067-0.783-0.148-1.174-0.251c-0.378-0.097-0.793-0.208-1.178-0.319
			c-0.817-0.206-1.657-0.534-2.493-0.81c-0.833-0.33-1.653-0.694-2.503-1.086l-1.214-0.654l-0.599-0.321l-0.576-0.377
			c-0.763-0.502-1.532-0.977-2.215-1.552c-0.327-0.294-0.669-0.547-0.99-0.821c-0.368-0.259-0.642-0.597-0.91-0.869
			c-0.589-0.571-1.164-1.09-1.596-1.672c-0.421-0.572-0.819-1.087-1.194-1.542c-0.315-0.485-0.565-0.92-0.803-1.268
			c-0.415-0.709-0.652-1.11-0.652-1.11s0.298,0.346,0.833,0.932c0.285,0.299,0.596,0.664,0.967,1.068
			c0.432,0.36,0.904,0.768,1.399,1.208c0.479,0.462,1.104,0.815,1.682,1.251c0.328,0.201,0.609,0.432,0.964,0.612
			c0.344,0.151,0.689,0.339,1.044,0.525c0.67,0.396,1.439,0.652,2.175,0.95l0.562,0.216l0.596,0.166l1.165,0.312
			c0.772,0.188,1.538,0.328,2.311,0.456c0.746,0.076,1.516,0.2,2.239,0.193c0.374,0.03,0.742,0.046,1.067,0.06
			c0.344-0.023,0.692-0.02,1.03-0.024c0.666-0.003,1.288-0.089,1.843-0.103c1.144-0.131,2.082-0.256,2.714-0.408
			c0.337-0.059,0.538-0.114,0.689-0.157c0.167-0.044,0.26-0.063,0.26-0.063l0.018-0.018c1.418-0.35,2.967,0.707,3.445,2.371
			c0.455,1.693-0.348,3.357-1.776,3.741C884.974,675.506,884.786,675.529,884.616,675.539z"/>
	</g>
</g>
<g>
	<g>
		<path d="M899.049,664.124c0,0-0.107-0.054-0.295-0.155c-0.224-0.116-0.541-0.279-0.89-0.497c-0.743-0.428-1.766-1.061-2.977-1.855
			c-0.593-0.417-1.228-0.83-1.894-1.333c-0.676-0.489-1.358-1.04-2.067-1.613c-0.713-0.555-1.426-1.183-2.125-1.81
			c-0.707-0.648-1.412-1.331-2.108-2.017c-0.679-0.736-1.365-1.409-1.98-2.17c-0.653-0.744-1.272-1.443-1.804-2.219
			c-0.563-0.753-1.09-1.444-1.522-2.212c-0.445-0.739-0.91-1.378-1.221-2.047c-0.349-0.679-0.666-1.292-0.937-1.829
			c-0.248-0.543-0.428-1.055-0.589-1.433c-0.321-0.806-0.492-1.26-0.492-1.26s0.254,0.413,0.695,1.138
			c0.231,0.365,0.472,0.804,0.814,1.281c0.328,0.466,0.739,0.978,1.165,1.561c0.391,0.571,0.933,1.121,1.455,1.712
			c0.529,0.609,1.164,1.168,1.763,1.753c0.599,0.609,1.318,1.134,1.997,1.708c0.663,0.571,1.409,1.059,2.131,1.601
			c0.729,0.479,1.459,0.957,2.198,1.419c0.756,0.42,1.472,0.872,2.198,1.234c0.713,0.381,1.426,0.71,2.081,1.014
			c0.663,0.334,1.305,0.585,1.877,0.843c1.178,0.485,2.179,0.84,2.848,1.059c0.334,0.112,0.586,0.192,0.753,0.232
			c0.184,0.05,0.291,0.07,0.291,0.07l0.007,0.01c1.502,0.432,2.505,2.136,2.281,3.794c-0.237,1.663-1.649,2.676-3.115,2.232
			C899.386,664.305,899.209,664.225,899.049,664.124z"/>
	</g>
</g>
<g>
	<g>
		<path d="M918.902,657.477c0,0-0.074-0.051-0.228-0.169c-0.157-0.129-0.394-0.303-0.666-0.521
			c-0.545-0.428-1.315-1.064-2.172-1.873c-0.833-0.812-1.826-1.767-2.793-2.889c-0.479-0.554-0.961-1.176-1.446-1.753
			c-0.455-0.634-0.933-1.265-1.385-1.917c-0.428-0.683-0.877-1.323-1.261-2.025c-0.375-0.676-0.753-1.352-1.054-2.028
			c-0.318-0.666-0.619-1.318-0.84-1.971c-0.237-0.622-0.468-1.206-0.612-1.787c-0.167-0.57-0.305-1.079-0.439-1.549
			c-0.063-0.461-0.134-0.853-0.207-1.196c-0.107-0.657-0.168-1.031-0.168-1.031s0.148,0.354,0.398,0.973
			c0.134,0.306,0.292,0.667,0.465,1.087c0.205,0.401,0.435,0.87,0.704,1.368c0.234,0.499,0.592,0.983,0.929,1.509
			c0.329,0.541,0.724,1.051,1.135,1.576c0.398,0.545,0.876,1.04,1.345,1.555c0.448,0.52,0.98,0.984,1.462,1.474
			c0.501,0.483,1.063,0.896,1.552,1.33c0.542,0.405,1.054,0.825,1.565,1.175c1.037,0.735,2.031,1.324,2.884,1.805
			c0.876,0.457,1.582,0.818,2.067,1.039c0.288,0.107,0.442,0.172,0.545,0.218c0.138,0.049,0.221,0.08,0.221,0.08
			c1.462,0.592,2.352,2.369,1.987,3.988c-0.368,1.631-1.85,2.479-3.322,1.889C919.336,657.751,919.099,657.627,918.902,657.477z"/>
	</g>
</g>
<g>
	<g>
		<path d="M899.44,645.727c0,0,0.272-0.086,0.827-0.241c0.548-0.149,1.358-0.41,2.378-0.658c1.01-0.231,2.295-0.577,3.737-0.84
			c1.465-0.296,3.098-0.639,4.928-0.868c1.807-0.293,3.811-0.46,5.888-0.649c1.044-0.083,2.118-0.099,3.246-0.157
			c0.538-0.027,1.101-0.047,1.663-0.074c0.566,0.013,1.14,0.023,1.72,0.03c1.123,0.021,2.322,0.002,3.496,0.062
			c1.17,0.098,2.365,0.196,3.57,0.265c1.231,0.057,2.425,0.302,3.62,0.46c1.231,0.164,2.439,0.299,3.637,0.582
			c1.214,0.253,2.388,0.511,3.596,0.761c1.185,0.308,2.349,0.661,3.517,0.976c0.555,0.184,1.148,0.345,1.736,0.505
			c0.565,0.181,1.104,0.421,1.669,0.616c1.098,0.414,2.202,0.836,3.252,1.251c1.074,0.408,2.082,0.927,3.079,1.399
			c0.97,0.49,1.959,0.92,2.884,1.422c1.793,1.07,3.516,2.037,5.031,3.038c1.465,1.05,2.821,2.043,3.975,2.923
			c0.612,0.412,1.111,0.89,1.596,1.317c0.461,0.414,0.906,0.801,1.294,1.154c1.566,1.384,2.416,2.193,2.416,2.193
			s-0.979-0.683-2.673-1.944c-0.396-0.292-0.87-0.652-1.382-1.024c-0.504-0.378-1.013-0.801-1.656-1.169
			c-1.271-0.761-2.646-1.629-4.148-2.589c-1.548-0.887-3.309-1.75-5.108-2.712c-0.914-0.458-1.887-0.85-2.901-1.288
			c-0.974-0.402-1.971-0.904-3.021-1.285c-1.054-0.361-2.131-0.736-3.215-1.119c-0.549-0.174-1.098-0.387-1.656-0.564
			c-0.552-0.149-1.127-0.301-1.7-0.461c-1.14-0.308-2.275-0.65-3.425-0.933c-1.161-0.246-2.339-0.483-3.51-0.724
			c-1.17-0.278-2.379-0.417-3.55-0.589c-1.18-0.164-2.345-0.406-3.529-0.471c-1.188-0.107-2.349-0.214-3.506-0.332
			c-1.143-0.097-2.292-0.103-3.433-0.157c-0.569-0.014-1.117-0.047-1.679-0.057c-0.555,0-1.111,0.009-1.636-0.003
			c-1.094,0.014-2.166-0.006-3.202,0.03c-2.054,0.098-4.025,0.149-5.842,0.338c-1.792,0.114-3.449,0.33-4.908,0.485
			c-1.472,0.164-2.744,0.383-3.79,0.536C900.641,645.515,899.44,645.727,899.44,645.727z"/>
	</g>
</g>
<g>
	<g id="XMLID_36_">
		<g>
			
				<linearGradient id="SVGID_00000039133393655237168120000015476873669040246924_" gradientUnits="userSpaceOnUse" x1="779.2509" y1="1045.7682" x2="756.1399" y2="1002.8479" gradientTransform="matrix(0.8771 0.1823 -0.0888 0.9821 367.7459 -402.2857)">
				<stop  offset="0.369" style="stop-color:#FFB7D1"/>
				<stop  offset="0.4286" style="stop-color:#F7B3D1"/>
				<stop  offset="0.5188" style="stop-color:#E3A9D1"/>
				<stop  offset="0.6283" style="stop-color:#C198D0"/>
				<stop  offset="0.7528" style="stop-color:#9180CF"/>
				<stop  offset="0.8883" style="stop-color:#5662CF"/>
				<stop  offset="0.9839" style="stop-color:#274ACE"/>
			</linearGradient>
			<path style="fill:url(#SVGID_00000039133393655237168120000015476873669040246924_);" d="M961.097,764.87
				c-15.036,5.249-32.674-4.184-44.303-21.92l0.023,0.01c0-0.005,1.753-12.794,7.647-25.454
				c6.418,10.472,16.358,16.159,24.668,13.272c9.066-3.171,13.253-15.437,10.492-28.879c-0.161-0.836-0.335-1.653-0.573-2.484
				c3.456,3.294,17.006,17.312,21.897,39.599C978.293,751.575,971.34,761.314,961.097,764.87z"/>
			
				<linearGradient id="SVGID_00000033344148938339808500000007099332123238653060_" gradientUnits="userSpaceOnUse" x1="756.3179" y1="995.0615" x2="731.405" y2="949.9418" gradientTransform="matrix(0.8771 0.1823 -0.0888 0.9821 367.7459 -402.2857)">
				<stop  offset="0" style="stop-color:#121F8C"/>
				<stop  offset="0.2119" style="stop-color:#0C1560"/>
				<stop  offset="0.4882" style="stop-color:#060A2C"/>
				<stop  offset="0.6968" style="stop-color:#02030C"/>
				<stop  offset="0.8118" style="stop-color:#000000"/>
			</linearGradient>
			<path style="fill:url(#SVGID_00000033344148938339808500000007099332123238653060_);" d="M977.988,702.407
				c4.523,12.871,5.34,25.792,2.961,36.606c-4.891-22.287-18.44-36.305-21.897-39.599c-0.288-1.1-0.635-2.213-1.016-3.308
				c-5.444-15.526-18.318-25.153-28.649-21.543c-10.335,3.591-14.289,19.111-8.839,34.628c1.034,2.954,2.305,5.675,3.82,8.136
				c0.048,0.072,0.064,0.114,0.097,0.177c-5.894,12.66-7.647,25.448-7.647,25.454l-0.023-0.01
				c-3.219-4.857-5.955-10.355-8.076-16.38c-9.79-27.813-2.215-55.792,16.916-62.464
				C944.736,657.428,968.186,674.585,977.988,702.407z"/>
			<path d="M959.052,699.415c0.238,0.832,0.412,1.648,0.573,2.484c2.76,13.442-1.426,25.707-10.492,28.879
				c-8.31,2.887-18.25-2.8-24.668-13.272c-0.033-0.063-0.049-0.105-0.097-0.177c-1.515-2.461-2.787-5.183-3.82-8.136
				c-5.45-15.517-1.496-31.037,8.839-34.628c10.331-3.61,23.205,6.017,28.649,21.543
				C958.417,697.202,958.764,698.315,959.052,699.415z"/>
		</g>
		<g>
			<path style="fill:none;stroke:#03012D;stroke-width:5;stroke-linecap:round;stroke-miterlimit:10;" d="M916.794,742.95
				c-3.219-4.857-5.955-10.355-8.076-16.38c-9.79-27.813-3.439-60.709,16.916-62.464c20.234-1.748,42.553,10.479,52.354,38.301
				c4.523,12.871,5.34,25.792,2.961,36.606c-2.656,12.562-9.608,22.3-19.852,25.856C946.061,770.119,928.423,760.687,916.794,742.95
				"/>
		</g>
	</g>
</g>
<path d="M991.166,708.629C974.643,660.247,935.41,640.442,898,656.25c-13.623,5.748-24.619,22.669-28.266,30.869
	c-2.138,4.804-10.665,13.084-17.136,12.571c0,0,6.685,3.996,18.428,4.762c3.084,0.193,10.107,12.75,19.353,32.577
	c-8.805-33.157-2.147-55.992,21.168-64.885C935.984,662.821,968.752,678.5,991.166,708.629z"/>
<g>
	<g>
		<path style="fill:#FFFFFF;stroke:#000000;stroke-width:7;stroke-linecap:round;stroke-miterlimit:10;" d="M943.117,682.712
			c2.247,6.256-1.332,13.188-8.04,15.475c-6.667,2.267-13.918-0.965-16.163-7.231c-2.262-6.26,1.339-13.196,8.04-15.486
			C933.633,673.199,940.876,676.449,943.117,682.712z"/>
	</g>
</g>
<g>
	<g>
		<path d="M1033.709,763.227c0,0-0.021,0.165-0.061,0.474c-0.047,0.3-0.115,0.739-0.202,1.299c-0.081,0.531-0.18,1.175-0.293,1.914
			c-0.1,0.732-0.214,1.536-0.311,2.396c-0.086,0.862-0.192,1.771-0.231,2.711c-0.061,0.936-0.075,1.9-0.032,2.844
			c0.043,0.944,0.137,1.878,0.326,2.721c0.2,0.843,0.447,1.607,0.805,2.233c0.327,0.648,0.758,1.16,1.277,1.655
			c0.267,0.238,0.574,0.455,0.889,0.686c0.35,0.194,0.683,0.416,1.083,0.588c0.755,0.385,1.636,0.655,2.498,0.923
			c0.879,0.24,1.76,0.447,2.608,0.612c0.847,0.165,1.654,0.316,2.384,0.439c0.747,0.13,1.397,0.243,1.933,0.336
			c1.094,0.187,1.757,0.354,1.757,0.354s-0.519,0.413-1.493,1.028c-0.484,0.319-1.104,0.609-1.824,0.961
			c-0.724,0.336-1.571,0.648-2.529,0.933c-0.484,0.127-0.991,0.252-1.528,0.366c-0.544,0.086-1.109,0.166-1.706,0.227
			c-1.199,0.061-2.507,0.077-3.908-0.239c-1.385-0.288-2.894-0.812-4.251-1.791c-1.378-0.934-2.554-2.292-3.359-3.775
			c-0.783-1.501-1.216-3.09-1.351-4.597c-0.161-1.51-0.026-2.934,0.227-4.239c0.495-2.623,1.571-4.762,2.657-6.426
			c0.557-0.828,1.126-1.537,1.663-2.131c0.553-0.584,1.052-1.071,1.506-1.443c0.431-0.386,0.821-0.614,1.066-0.798
			C1033.57,763.318,1033.709,763.227,1033.709,763.227z"/>
	</g>
</g>
<g>
	<path d="M1031.009,838.294c0,0,0.23,0.036,0.663,0.104c0.425,0.062,1.049,0.152,1.842,0.268c1.575,0.214,3.798,0.473,6.401,0.698
		c1.307,0.092,2.704,0.206,4.176,0.25c1.47,0.063,3.01,0.086,4.591,0.063c1.581-0.002,3.202-0.113,4.84-0.206
		c1.635-0.155,3.293-0.288,4.932-0.563c0.824-0.107,1.645-0.232,2.456-0.401c0.815-0.145,1.624-0.309,2.425-0.486
		c1.6-0.359,3.172-0.752,4.69-1.19c1.513-0.447,2.989-0.891,4.372-1.392c0.705-0.223,1.38-0.468,2.03-0.724
		c0.66-0.246,1.297-0.483,1.909-0.711c1.203-0.509,2.366-0.909,3.352-1.359c0.992-0.438,1.924-0.75,2.637-1.092
		c0.718-0.334,1.328-0.551,1.728-0.722c0.413-0.156,0.633-0.239,0.633-0.239s-0.133,0.192-0.381,0.553
		c-0.262,0.346-0.623,0.888-1.139,1.518c-0.496,0.657-1.163,1.383-1.947,2.213c-0.769,0.852-1.747,1.675-2.806,2.614
		c-1.104,0.867-2.306,1.834-3.693,2.681c-1.364,0.889-2.88,1.714-4.5,2.468c-0.816,0.364-1.641,0.756-2.514,1.056
		c-0.866,0.317-1.739,0.662-2.653,0.897c-0.907,0.259-1.818,0.544-2.759,0.717c-0.933,0.212-1.877,0.386-2.828,0.524
		c-1.901,0.274-3.82,0.408-5.706,0.415c-0.942-0.017-1.877-0.014-2.796-0.107c-0.92-0.06-1.825-0.145-2.709-0.288
		c-3.543-0.483-6.734-1.481-9.334-2.575c-2.601-1.117-4.61-2.35-5.931-3.329c-0.672-0.463-1.156-0.909-1.49-1.189
		C1031.17,838.468,1031.009,838.294,1031.009,838.294z"/>
</g>
<path style="fill:none;stroke:#000000;stroke-width:7;stroke-linecap:round;stroke-miterlimit:10;" d="M870.565,746.402
	c26.206,46.25,19.17,95.353,52.409,121.047c33.238,25.694,71.137,34.975,98.33,43.964c34.544,11.422,52.042,11.951,78.023,0.531
	c25.983-11.42,93.674-34.818,133.442-107.319"/>
<path style="fill:none;stroke:#000000;stroke-width:7;stroke-linecap:round;stroke-miterlimit:10;" d="M1082.97,917.771
	c0,0,10.521,21.623,10.328,36.611c-0.194,14.988-7.045,21.84-18.608,28.264"/>
<path style="fill:none;stroke:#000000;stroke-width:7;stroke-linecap:round;stroke-miterlimit:10;" d="M1212.184,835.357
	c0,0,0.827,48.372,12.389,82.414"/>
<path style="fill:none;stroke:#000000;stroke-width:7;stroke-linecap:round;stroke-miterlimit:10;" d="M1353.134,1151.952
	c70.569-46.831,19.971-71.34,32.095-85.9c28.053-33.69-5.634-55.999,0.361-73.557c16.253-47.595-22.269-48.819-28.465-65.949
	c-15.798-43.677-56.326-8.775-68.317-16.273c-36.26-22.673-49.675,9.782-70.431,9.977c-37.213,0.348-24.999,48.883-48.124,60.017
	c-46.64,22.456-6.118,44.941-28.555,72.754c-27.407,33.973,26.253,45.968,28.562,66.68"/>
<path style="fill:none;stroke:#000000;stroke-width:7;stroke-linecap:round;stroke-miterlimit:10;" d="M1176.609,1106.406
	c7.838-49.017,20.95-98.581,61.058-130.073c37.42-29.381,90-16.789,107.668,37.573c20.651,63.543,21.386,157.514-17.985,171.295
	c-28.549,9.994-45.393-19.699-45.393-19.699"/>
<path style="fill:none;stroke:#000000;stroke-width:7;stroke-linecap:round;stroke-miterlimit:10;" d="M1188.032,1087.279
	c0,0-13.703,27.405-42.823,74.226c-29.121,46.821-60.523,97.068-67.946,104.49c-7.423,7.424-66.831,26.974-115.908,44.537
	c-54.246,19.415-117.625,25.124-130.756,25.124c-13.132,0-47.962-42.824-63.379-49.676c-15.417-6.852-52.82-13.236-73.088-13.236
	c-9.207,0-14.617,18.256-14.617,18.256"/>
<path style="fill:none;stroke:#000000;stroke-width:7;stroke-linecap:round;stroke-miterlimit:10;" d="M723.106,1287.55
	c-10.706-2.141-34.225-2.553-41.301,1.274c-5.162,2.794-6.675,17.782-9.659,32.272"/>
<path style="fill:none;stroke:#000000;stroke-width:7;stroke-linecap:round;stroke-miterlimit:10;" d="M727.534,1302.268
	c0,0-31.975-1.415-36.83,0c-4.854,1.414-13.495,12.613-18.558,18.829c-4.068,4.995,3.302,22.369,3.302,22.369"/>
<path style="fill:none;stroke:#000000;stroke-width:7;stroke-linecap:round;stroke-miterlimit:10;" d="M1304.225,1143.234
	c-31.689,27.407-150.274,205.057-177.527,220.971c-18.352,10.716-75.989,31.689-195.896,36.4
	c-83.526,3.281-125.326,2.569-157.591-10.707c-28.163-11.587-39.685-34.83-51.104-43.033c-11.418-8.204-18.698-4.716-26.835,0.423
	c-3.987,2.519-0.214,8.137-0.643,16.916c-0.345,7.061-4.068,14.774-11.348,14.988c0,0-3.787-13.978-7.531-28.478
	c-2.645-10.25,3.122-14.992,18.197-28.086c7.105-6.173,33.443-2.104,35.584-1.462"/>
<path style="fill:none;stroke:#000000;stroke-width:7;stroke-linecap:round;stroke-miterlimit:10;" d="M1088.594,971.217
	c-39.315,3.578-55.761,14.058-67.291,32.127c-31.976,50.114-48.534,107.344-48.534,107.344s107.916-30.261,188.706-4.885"/>
<path style="fill:none;stroke:#000000;stroke-width:7;stroke-linecap:round;stroke-miterlimit:10;" d="M1093.298,954.382
	c-1.298-10.923-10.044-25.266-28.029-19.27c-17.986,5.995-24.624-33.787-56.527-9.421c-19.064,14.56-32.546-7.919-48.819,29.077
	c-7.063,16.059-33.848-4.558-30.158,42.011c1.358,17.153-29.93,21.509-12.971,59.953c6.3,14.281-22.577,35.246,8.869,59.953
	c11.99,9.421-21.245,29.535,31,54.373"/>
<path style="fill:none;stroke:#000000;stroke-width:7;stroke-linecap:round;stroke-miterlimit:10;" d="M972.769,1110.688
	c-11.783,29.478-35.918,70.999,13.731,190.95"/>
<path style="fill:none;stroke:#000000;stroke-width:7;stroke-linecap:round;stroke-miterlimit:10;" d="M1024.84,1392.353
	c0,0,35.296,67.777,58.133,108.887c0,0,43.396,21.698,68.518,49.107c0,0,126.752-118.767,237.524-186.143
	c-66.233-77.653-43.396-162.16-23.784-220.971"/>
<path style="fill:none;stroke:#000000;stroke-width:7;stroke-linecap:round;stroke-miterlimit:10;" d="M1552.158,1328.344
	c-10.278-65.094-52.37-117.162-83.202-122.18c-30.834-5.019-84.504,91.809-79.94,158.042
	c70.806,7.994,155.313-25.122,190.713-53.672c35.4-28.549,63.947,90.216,21.696,133.61c-42.252,43.394-151.209-9.135-212.409-79.938
	"/>
<path style="fill:none;stroke:#000000;stroke-width:7;stroke-linecap:round;stroke-miterlimit:10;" d="M1622.515,1388.186
	c87.395,20.556,569.39,0.714,683.504,82.222c0,0,6.557,203.84-18.036,180.536c-23.463-22.235-27.642,36.143-59.622,90.11
	c-27.407,46.249-89.073,111.342-80.509,44.537c8.564-66.806-108.395-46.695-205.554,58.239
	c-42.823,46.249-94.212,83.935-80.509,44.537c13.704-39.398-65.088-50.247-202.128,77.083
	c-72.011,66.908-209.799,167.264-445.366,133.609c-47.962-6.852,43.794-11.99-28.548-43.964
	c-78.795-34.832-193.831-64.788-185.57-26.267c5.142,23.981-35.689-6.802-78.224-34.26
	c-48.716-31.445-139.321-131.325-182.714-210.12c-43.393-78.795-97.066-97.065-100.492-31.974
	c-26.267-54.814-44.537-97.07-41.11-202.128c3.426-105.062-11.422-139.321-11.422-139.321"/>
<path style="fill:none;stroke:#000000;stroke-width:7;stroke-linecap:round;stroke-miterlimit:10;" d="M485.723,1388.186
	c52.53-3.14,100.491,22.841,100.491,22.841c113.012,56.812,232.39,176.717,496.759,90.213"/>
<path style="fill:none;stroke:#000000;stroke-width:7;stroke-linecap:round;stroke-miterlimit:10;" d="M775.773,2054.025
	c-56.092-50.462-139.314-155.381-146.166-116.555c-6.851,38.828-51.84-20.147-78.224-55.956
	c-31.973-43.395-50.816-107.915-65.66-87.359c-14.844,20.555-59.385-82.223-46.3-116.726c10.325-27.223,28.598,31.078,36.591,3.671
	c7.992-27.407-85.219-116.053-58.334-136.635c9.927-7.601,23.218,24.437,28.069-2.114c5.718-31.295-9.562-161.017,39.974-154.166
	c13.66,1.89,21.449,49.199,12.559,117.337c-2.569,19.698,38.542-18.843,25.695,79.651c-12.848,98.494-5.14,143.888,27.406,196.132
	c32.546,52.245,5.14-60.599,24.838-34.15c19.698,26.443,42.947,113.615,88.308,139.539c11.99,6.851-4.801-39.012,24.462-8.605
	c27.839,28.926,67.945,95.925,45.678,89.073c-22.269-6.853,19.271,75.798,48.39,92.07c29.121,16.273-1.284-45.82,21.84-23.553
	c23.125,22.269,66.809,46.822,78.799,51.96c11.99,5.141,10.278,11.991-8.565,11.991c-18.843,0-8.884,19.531,37.366,42.368
	c46.25,22.841,84.826,33.002,91.106,21.584c6.28-11.422-11.994-61.098,28.261-49.964s93.355,33.401,71.087,46.249
	c-22.268,12.848,40.571,59.918,70.547,61.631c29.978,1.713-20.871-28.228,41.651,3.461c62.523,31.69,138.748,3.427,119.906-11.99
	c-18.843-15.416-17.986-28.264,35.973-19.698c53.957,8.564,130.184,6.852,142.174-14.56c11.991-21.413,57.387,3.709,84.794-38.543
	c27.408-42.252,51.958-51.959,55.384-39.397c3.426,12.563,42.824,5.347,82.794-55.386c8.993-13.667,53.135-63.771,49.387-25.123
	c-1.715,17.702,105.729-81.626,122.479-70.803c6.85,4.427,6.855,14.276,0,22.841c-6.854,8.564,0.854,35.972,63.377-17.13
	c62.521-53.101,96.781-77.082,95.924-54.814c-0.856,22.268,36.905,19.308,71.944,6.853c18.668-6.639,75.326-24.48,139.605-100.208
	c33.683-39.683,61.381-111.626,73.944-93.355s33.854-16.066,38.825-97.066c3.637-59.24,6.855-97.069,19.414-77.654
	c12.561,19.415,16.682-82.877,6.404-97.722c-10.277-14.846-80.626,29.204-111.462,29.204"/>
<line style="fill:none;stroke:#000000;stroke-width:7;stroke-linecap:round;stroke-miterlimit:10;" x1="638.747" y1="1752.476" x2="697.626" y2="1729.221"/>
<path style="fill:none;stroke:#000000;stroke-width:7;stroke-linecap:round;stroke-miterlimit:10;" d="M659.741,1713.398
	c52.091-22.59,309.291-55.362,462.757-188.004"/>
<path style="fill:none;stroke:#000000;stroke-width:7;stroke-linecap:round;stroke-miterlimit:10;" d="M1001.14,2019.468
	c25.875-63.723,118.381-264.139,150.351-469.12"/>
<path style="fill:none;stroke:#000000;stroke-width:7;stroke-linecap:round;stroke-miterlimit:10;" d="M1214.663,2076.734
	c0,0-13.389-406.354-7.735-575.714"/>
<path style="fill:none;stroke:#000000;stroke-width:7;stroke-linecap:round;stroke-miterlimit:10;" d="M1586.871,2023.292
	c0,0-290.354-451.82-318.966-571.613"/>
<path style="fill:none;stroke:#000000;stroke-width:7;stroke-linecap:round;stroke-miterlimit:10;" d="M1855.26,1865.885
	c0,0-295.796-162.965-536.896-453.941"/>
<path style="fill:none;stroke:#000000;stroke-width:7;stroke-linecap:round;stroke-miterlimit:10;" d="M2128.307,1749.729
	c0,0-379.164-140.917-613.47-298.05"/>
<line style="fill:none;stroke:#000000;stroke-width:7;stroke-linecap:round;stroke-miterlimit:10;" x1="2153.729" y1="1813.646" x2="2060.713" y2="1758.102"/>
<line style="fill:none;stroke:#000000;stroke-width:7;stroke-linecap:round;stroke-miterlimit:10;" x1="1860.772" y1="1903.265" x2="1814.834" y2="1864.991"/>
<line style="fill:none;stroke:#000000;stroke-width:7;stroke-linecap:round;stroke-miterlimit:10;" x1="1199.956" y1="2093.425" x2="1199.956" y2="2062.179"/>
<line style="fill:none;stroke:#000000;stroke-width:7;stroke-linecap:round;stroke-miterlimit:10;" x1="1000.391" y1="2034.339" x2="1012.327" y2="2012.295"/>
<line style="fill:none;stroke:#000000;stroke-width:7;stroke-linecap:round;stroke-miterlimit:10;" x1="439.915" y1="1553.038" x2="526.306" y2="1559.505"/>
<path style="fill:none;stroke:#000000;stroke-width:7;stroke-linecap:round;stroke-miterlimit:10;" d="M511.648,1514.232
	c0,0,62.024,10.955,86.423,17.397"/>
<line style="fill:none;stroke:#000000;stroke-width:7;stroke-linecap:round;stroke-miterlimit:10;" x1="417.68" y1="1544.466" x2="445.749" y2="1542.352"/>
<line style="fill:none;stroke:#000000;stroke-width:7;stroke-linecap:round;stroke-miterlimit:10;" x1="472.879" y1="1687.4" x2="518.852" y2="1683.803"/>
<line style="fill:none;stroke:#000000;stroke-width:7;stroke-linecap:round;stroke-miterlimit:10;" x1="445.749" y1="1670.04" x2="472.879" y2="1663.532"/>
<line style="fill:none;stroke:#000000;stroke-width:7;stroke-linecap:round;stroke-miterlimit:10;" x1="570.55" y1="1743.336" x2="627.884" y2="1729.221"/>
<line style="fill:none;stroke:#000000;stroke-width:7;stroke-linecap:round;stroke-miterlimit:10;" x1="565.767" y1="1794.757" x2="595.793" y2="1784.907"/>
<line style="fill:none;stroke:#000000;stroke-width:7;stroke-linecap:round;stroke-miterlimit:10;" x1="490.879" y1="1790.308" x2="544.525" y2="1769.698"/>
<line style="fill:none;stroke:#000000;stroke-width:7;stroke-linecap:round;stroke-miterlimit:10;" x1="668.185" y1="1886.678" x2="685.542" y2="1874.656"/>
<line style="fill:none;stroke:#000000;stroke-width:7;stroke-linecap:round;stroke-miterlimit:10;" x1="673.184" y1="1867.788" x2="759.667" y2="1818.036"/>
<line style="fill:none;stroke:#000000;stroke-width:7;stroke-linecap:round;stroke-miterlimit:10;" x1="633.626" y1="1930.09" x2="699.413" y2="1889.96"/>
<line style="fill:none;stroke:#000000;stroke-width:7;stroke-linecap:round;stroke-miterlimit:10;" x1="624.178" y1="1948.705" x2="648.316" y2="1932.695"/>
<line style="fill:none;stroke:#000000;stroke-width:7;stroke-linecap:round;stroke-miterlimit:10;" x1="740.645" y1="1965.812" x2="826.321" y2="1904.667"/>
<line style="fill:none;stroke:#000000;stroke-width:7;stroke-linecap:round;stroke-miterlimit:10;" x1="797.031" y1="2030.89" x2="872.692" y2="1953.6"/>
<line style="fill:none;stroke:#000000;stroke-width:7;stroke-linecap:round;stroke-miterlimit:10;" x1="794.786" y1="2060.391" x2="812.374" y2="2042.366"/>
<line style="fill:none;stroke:#000000;stroke-width:7;stroke-linecap:round;stroke-miterlimit:10;" x1="891.14" y1="2093.425" x2="939.694" y2="2006.202"/>
<line style="fill:none;stroke:#000000;stroke-width:7;stroke-linecap:round;stroke-miterlimit:10;" x1="866.352" y1="2103.274" x2="876.569" y2="2084.206"/>
<line style="fill:none;stroke:#000000;stroke-width:7;stroke-linecap:round;stroke-miterlimit:10;" x1="1003.606" y1="2163.584" x2="1024.727" y2="2112.194"/>
<line style="fill:none;stroke:#000000;stroke-width:7;stroke-linecap:round;stroke-miterlimit:10;" x1="1006.359" y1="2123.092" x2="1033.84" y2="2010.993"/>
<line style="fill:none;stroke:#000000;stroke-width:7;stroke-linecap:round;stroke-miterlimit:10;" x1="1108.189" y1="2153.386" x2="1128.26" y2="2032.847"/>
<line style="fill:none;stroke:#000000;stroke-width:7;stroke-linecap:round;stroke-miterlimit:10;" x1="1182.056" y1="2211.365" x2="1205.536" y2="2097.486"/>
<line style="fill:none;stroke:#000000;stroke-width:7;stroke-linecap:round;stroke-miterlimit:10;" x1="1324.084" y1="2196.725" x2="1318.363" y2="2105.644"/>
<line style="fill:none;stroke:#000000;stroke-width:7;stroke-linecap:round;stroke-miterlimit:10;" x1="1337.945" y1="2217.688" x2="1336.503" y2="2190.934"/>
<line style="fill:none;stroke:#000000;stroke-width:7;stroke-linecap:round;stroke-miterlimit:10;" x1="1515.864" y1="2175.187" x2="1479.672" y2="2076.992"/>
<line style="fill:none;stroke:#000000;stroke-width:7;stroke-linecap:round;stroke-miterlimit:10;" x1="1650.3" y1="2096.555" x2="1598.377" y2="2015.427"/>
<line style="fill:none;stroke:#000000;stroke-width:7;stroke-linecap:round;stroke-miterlimit:10;" x1="1782.616" y1="2006.648" x2="1711.847" y2="1921.211"/>
<line style="fill:none;stroke:#000000;stroke-width:7;stroke-linecap:round;stroke-miterlimit:10;" x1="1786.125" y1="2022.066" x2="1772.729" y2="2008.3"/>
<line style="fill:none;stroke:#000000;stroke-width:7;stroke-linecap:round;stroke-miterlimit:10;" x1="1908.042" y1="1949.461" x2="1864.115" y2="1904.844"/>
<line style="fill:none;stroke:#000000;stroke-width:7;stroke-linecap:round;stroke-miterlimit:10;" x1="1908.042" y1="1984.065" x2="1882.757" y2="1957.755"/>
<path style="fill:none;stroke:#000000;stroke-width:7;stroke-linecap:round;stroke-miterlimit:10;" d="M2064.219,1892.629
	c0,0-78.123-68.059-90.887-78.982"/>
<line style="fill:none;stroke:#000000;stroke-width:7;stroke-linecap:round;stroke-miterlimit:10;" x1="2404.406" y1="1533.94" x2="2312.575" y2="1531.214"/>
<line style="fill:none;stroke:#000000;stroke-width:7;stroke-linecap:round;stroke-miterlimit:10;" x1="2413.864" y1="1541.348" x2="2400.298" y2="1539.564"/>
<path style="fill:none;stroke:#000000;stroke-width:7;stroke-linecap:round;stroke-miterlimit:10;" d="M2347.879,1710.752
	c0,0-88.82-28.359-92.31-29.006"/>
<path style="fill:none;stroke:#000000;stroke-width:7;stroke-linecap:round;stroke-miterlimit:10;" d="M2281.401,1646.594
	c0,0-348.163-87.822-671.663-213.369"/>
<path style="fill:none;stroke:#000000;stroke-width:7;stroke-linecap:round;stroke-miterlimit:10;" d="M1387.042,958.588
	C1665,589.693,2007.13,372.345,2075.336,407.57c78.394,40.486-34.256,222.036-100.488,367.224
	c-66.232,145.188-192.442,288.93-589.619,291.258"/>
<path style="fill:none;stroke:#000000;stroke-width:7;stroke-linecap:round;stroke-miterlimit:10;" d="M1709.203,1018.527
	c181.135,1.947,351.51,133.551,351.51,172.536c0,38.983-257.917,162.171-680.835-61.532"/>
<path style="fill:none;stroke:#000000;stroke-width:7;stroke-linecap:round;stroke-miterlimit:10;" d="M769.641,649.815
	c30.12,77.173,33.546,128.953,47.25,226.748c8.327,59.418,56.601,106.083,114.125,68.542
	c-41.038-2.285-74.781-42.767-78.418-118.548c-2.89-60.239-20.602-95.03-20.602-95.03"/>
<path style="fill:none;stroke:#000000;stroke-width:7;stroke-linecap:round;stroke-miterlimit:10;" d="M857.627,865.245
	c0,0,21.492,72.241,114.566,71.054"/>
<path style="fill:none;stroke:#000000;stroke-width:7;stroke-linecap:round;stroke-miterlimit:10;" d="M933.773,875.104
	c0,0,18.257,47.623,83.727,45.146"/>
<g>
	<path style="fill:none;stroke:#000000;stroke-width:7;stroke-linecap:round;stroke-miterlimit:10;" d="M413.203,1075.242
		c-28.996-11.68-40.064-42.73-42.92-50.743c-2.853-8.013-9.616-18.913-29.592-32.345c-27.192-18.288-14.7-30.164-14.7-30.164
		c4.845,4.073,13.429,9.165,35.697,20.983c22.282,11.817,45.135,25.26,60.977,53.898c15.848,28.638,37.183,33.034,37.183,33.034
		c28.528,13.538,101.647,27.736,123.319,32.761c51.841,12.021,120.669,26.864,120.669,26.864s132.393-48.551,210.512-79.09"/>
	<path style="fill:none;stroke:#000000;stroke-width:7;stroke-linecap:round;stroke-miterlimit:10;" d="M302.18,1021.873
		c0,0-5.768-16.199,0.492-22.382c4.57-4.513,22.435-1.937,22.435-1.937s40.977,10.897,37.933,23.49
		c-1.63,6.687-18.113,1.993-18.113,1.993"/>
	<path style="fill:none;stroke:#000000;stroke-width:7;stroke-linecap:round;stroke-miterlimit:10;" d="M352.829,1043.951
		c8.114,2.189,15.899-0.854,16.059-5.967c0.211-7.131-32.309-18.828-40.676-19.798c-8.351-0.973-26.032,3.687-26.032,3.687
		s-7.411,10.071,2.807,19.89"/>
	<path style="fill:none;stroke:#000000;stroke-width:7;stroke-linecap:round;stroke-miterlimit:10;" d="M304.194,1063.144
		c0,0-8.87-17.461,0.793-21.382c9.662-3.924,24.925-3.861,26.558-4.021c1.636-0.161,35.239,9.283,37.387,14.615
		c2.078,5.186-4.493,9.152-17.293,6.512"/>
	<path style="fill:none;stroke:#000000;stroke-width:7;stroke-linecap:round;stroke-miterlimit:10;" d="M937.633,1159.531
		c-40.699,22.58-219.418,72.182-248.966,72.136C674.455,1231.643,605,1217.5,535,1185c-44.195-20.52-110.242-60.792-123.25-68
		c-13.024-7.217-33.933-6.431-54.689-10.042c-20.753-3.605-38.638-13.971-47.243-22.101c-3.419-3.233-10.234-11.854-4.657-18.237
		c7.194-8.233,25.41-9.057,25.41-9.057s26.668-1.855,26.815,6.527c0.151,8.628-16.514,6.959-24.403,9.77c0,0-7.186,1.65-7.136,7.136
		"/>
	<path style="fill:none;stroke:#000000;stroke-width:7;stroke-linecap:round;stroke-miterlimit:10;" d="M351.841,1000.879
		c0,0-7.463-2.536-16.433-0.104"/>
</g>
<g>
	<path style="fill:none;stroke:#000000;stroke-width:6;stroke-linecap:round;stroke-linejoin:round;stroke-miterlimit:10;" d="
		M332.378,985.722c0.336,4.773,0.692,9.568,1.07,14.382"/>
	<path style="fill:none;stroke:#000000;stroke-width:6;stroke-linecap:round;stroke-linejoin:round;stroke-miterlimit:10;" d="
		M380.057,506.208c-35.141,103.023-57.794,249.816-50.568,427.536c0.432,10.551,0.962,21.214,1.598,31.983"/>
	<path style="fill:none;stroke:#000000;stroke-width:6;stroke-linecap:round;stroke-linejoin:round;stroke-miterlimit:10;" d="
		M397.134,1366.602c-27.465-103.534-45.764-201.992-56.583-294.023"/>
	<g>
		<path style="fill:none;stroke:#000000;stroke-width:6;stroke-linecap:round;stroke-linejoin:round;stroke-miterlimit:10;" d="
			M357.869,1059.675c4.659,12.055,9.21,24.313,13.719,36.798"/>
		<path style="fill:none;stroke:#000000;stroke-width:6;stroke-linecap:round;stroke-linejoin:round;stroke-miterlimit:10;" d="
			M100.958,723.112c42.14,24.468,114.17,92.002,147.416,135.954c35.599,45.178,62.07,91.501,84.537,140.859"/>
		<path style="fill:none;stroke:#000000;stroke-width:6;stroke-linecap:round;stroke-linejoin:round;stroke-miterlimit:10;" d="
			M65.181,667.731c14.468,3.659,29.384,14.693,34.981,26.753c5.89,12.69,5.927,31.359-9.657,38.191
			c-22.078,9.454-46.61-5.027-58.199-23.839"/>
		<path style="fill:none;stroke:#000000;stroke-width:6;stroke-linecap:round;stroke-linejoin:round;stroke-miterlimit:10;" d="
			M32.589,708.761c2.813,0.451,6.274,1.034,8.961,2.12c-1.579-2.581-3.804-5.288-4.413-8.726c2.722-1.021,6.4,0.401,9.011,1.211
			c0.027-3.309-2.746-5.872-3.848-8.877c2.581-1.583,5.828-0.644,8.7-1.107c-1.099-3.008-5.192-3.721-5.516-7.232
			c3.906-2.235,8.697-1.107,12.995-0.748c-1.304-2.654-3.804-5.288-5.383-7.868c3.143-1.734,9.816-1.406,13.136-0.186
			c-1.017-2.729-9.054-9.29-1.687-9.748"/>
		<path style="fill:none;stroke:#000000;stroke-width:6;stroke-linecap:round;stroke-linejoin:round;stroke-miterlimit:10;" d="
			M58.479,685.401c9.669,2.531,21.963,7.065,30.873,15.797c5.71,5.68,11.153,12.631,12.171,20.758"/>
		<path style="fill:none;stroke:#000000;stroke-width:6;stroke-linecap:round;stroke-linejoin:round;stroke-miterlimit:10;" d="
			M45.998,702.805c8.431,13.652,38.053,27.005,54.283,21.498"/>
	</g>
	<g>
		<path style="fill:none;stroke:#000000;stroke-width:6;stroke-linecap:round;stroke-linejoin:round;stroke-miterlimit:10;" d="
			M130.798,612.938c11.265-3.351,20.629-5.159,32.15-1.287c11.092,4,18.122,10.185,29.587,4.341
			c23.791-11.945,0.214-40.466,3.927-58.121c0.637-2.623,1.398-4.798,3.165-6.782"/>
		<g>
			<path style="fill:none;stroke:#000000;stroke-width:6;stroke-linecap:round;stroke-linejoin:round;stroke-miterlimit:10;" d="
				M176.749,579.56c-13.951,26.837-83.048-26.517-83.119-47.323c-0.154-17.389,39.799,3.035,46.732,9.476
				C151.72,550.749,167.596,568.609,176.749,579.56"/>
			<path style="fill:none;stroke:#000000;stroke-width:6;stroke-linecap:round;stroke-linejoin:round;stroke-miterlimit:10;" d="
				M176.752,579.574c4.423-3.484,7.265-7.189,8.816-11.198c2.902-7.332,1.562-15.621-1.953-25.195
				c-3.41-9.777-12.262-23.808-21.442-30.682c-41.752-31.296-35.244-0.883-18.289,27.473l0.014,0.011
				c2.569,4.278,5.362,8.515,8.274,12.489"/>
			<path style="fill:none;stroke:#000000;stroke-width:6;stroke-linecap:round;stroke-linejoin:round;stroke-miterlimit:10;" d="
				M169.906,519.898c-3.43-6.759-3.787-16.361-3.296-23.96c2.348-36.953,24.133-47.272,23.882-34.978
				c-0.283,13.943-2.239,25.658,0.704,41.086c3.763,19.692,11.868,38.699,1.477,57.201c-1.912,3.397-4.287,6.494-7.104,9.129"/>
			<path style="fill:none;stroke:#000000;stroke-width:6;stroke-linecap:round;stroke-linejoin:round;stroke-miterlimit:10;" d="
				M168.77,586.2l-0.004,0.021c-1.602,2.989-3.688,5.477-6.162,7.512c-14.014,11.625-40,8.696-54.64,1.51
				c-0.205-0.107-0.416-0.195-0.613-0.306c-10.603-5.948-41.656-22.339-36.379-34.622c5.308-12.366,26.101-4.292,40.752,2.315
				l0.024,0.005c3.004,1.377,5.774,2.673,8.081,3.726c0.018,0.012,0.018,0.012,0.018,0.012"/>
			<path style="fill:none;stroke:#000000;stroke-width:6;stroke-linecap:round;stroke-linejoin:round;stroke-miterlimit:10;" d="
				M108.532,595.438c-16.543-6.143-37.553-6.301-56.576-2.54c-4.294,0.847-23.79,8.222-20.759,13.166
				c2.29,3.729,14.923,3.649,18.642,3.429c28.704-1.705,59.547,12.045,87.72,1.286c8.945-3.086,20.105-8.778,25.039-17.05"/>
			<path style="fill:none;stroke:#000000;stroke-width:6;stroke-linecap:round;stroke-linejoin:round;stroke-miterlimit:10;" d="
				M193.197,511.237c0.125-7.753,1.252-12.954,3.432-19.888c5.094-16.206,18.244-41.395,22.878-46.01
				c12.218-12.126,16.513-3.734,14.114,2.963c-6.972,18.745-12.491,39.379-15.434,52.183c-5.788,25.219-10.959,44.524-25.515,58.762
				"/>
			<path style="fill:none;stroke:#000000;stroke-width:6;stroke-linecap:round;stroke-linejoin:round;stroke-miterlimit:10;" d="
				M61.779,591.341c-20.364,0.496-58.75,12.193-48.441-4.295c4.151-6.64,16.931-12.004,21.555-12.948
				c12.882-2.65,25.28-2.961,38.353-1.145c0.79,0.11,1.596,0.225,2.365,0.369"/>
			<path style="fill:none;stroke:#000000;stroke-width:6;stroke-linecap:round;stroke-linejoin:round;stroke-miterlimit:10;" d="
				M71.84,558.691c-0.656-0.175-1.293-0.344-1.912-0.531c-5.271-1.473-10.568-2.792-15.812-4.088
				c-12.61-3.109-28.917-4.088-39.206,1.732c-6.581,3.748-4.475,8.327,2.599,10.724c10.297,3.614,21.542,3.122,32.583,5.33"/>
			<path style="fill:none;stroke:#000000;stroke-width:6;stroke-linecap:round;stroke-linejoin:round;stroke-miterlimit:10;" d="
				M70.577,558.347c-9.73-3.083-20.717-5.504-30.38-8.789c-6.662-2.26-15.838-4.377-21.677-10.855
				c-6.914-7.671,7.683-11.596,15.777-10.537c26.461,3.455,59.143,22.522,77.535,34.528"/>
			<path style="fill:none;stroke:#000000;stroke-width:6;stroke-linecap:round;stroke-linejoin:round;stroke-miterlimit:10;" d="
				M98.176,525.824c-0.018-0.008-0.018-0.008-0.034-0.015c-6.55-4.599-13.266-8.897-20.504-12.36
				c-2.956-1.439-40.391-19.079-37.291-3.615c3.161,14.512,26.387,26.718,38.118,33.041"/>
			<path style="fill:none;stroke:#000000;stroke-width:6;stroke-linecap:round;stroke-linejoin:round;stroke-miterlimit:10;" d="
				M98.168,525.819c-11.333-7.89-23.471-19.394-28.897-28.87c-3.542-6.179-8.203-15.432-3.28-19.056
				c2.715-1.997,13.607,3.473,17.601,5.631c22.201,12.628,42.068,38.869,60.312,56.451"/>
			<path style="fill:none;stroke:#000000;stroke-width:6;stroke-linecap:round;stroke-linejoin:round;stroke-miterlimit:10;" d="
				M133.748,499.959c-3.491-6.677-6.955-13.798-10.833-20.511c-6.996-12.151-15.339-23.01-27.652-27.677
				c-15.253-5.821-11.102,13.357-7.349,21.657c4.651,9.293,11.602,18.846,17.809,27.043"/>
			<path style="fill:none;stroke:#000000;stroke-width:6;stroke-linecap:round;stroke-linejoin:round;stroke-miterlimit:10;" d="
				M122.912,479.454c-4.58-11.308-14.379-42.016-4.281-49.627c4.321-3.258,12.702,5.72,16.91,13.382
				c3.706,6.744,14.018,25.882,20.759,65.087"/>
			<path style="fill:none;stroke:#000000;stroke-width:6;stroke-linecap:round;stroke-linejoin:round;stroke-miterlimit:10;" d="
				M145.449,465.414c0.003-0.021-0.01-0.026-0.003-0.042c-3.018-15.119-0.711-26.637,1.627-39.433
				c2.102-11.567,12.113-23.615,18.4-8.595c2.43,5.822,4.865,22.786,4.423,36.003c-0.092,2.683-0.159,5.354-0.18,8.069
				c-0.037,0.669-0.051,1.327-0.051,1.97c-0.095,5.386-0.18,10.798-0.418,16.199"/>
			<path style="fill:none;stroke:#000000;stroke-width:6;stroke-linecap:round;stroke-linejoin:round;stroke-miterlimit:10;" d="
				M169.665,463.386c0-0.643,0.014-1.301,0.051-1.97c0.637-17.642,7.057-47.3,21.262-49.883c9.929-1.824,2.869,18,0.729,25.539
				c-1.858,6.643-3.61,12.808-5.22,18.976c-0.037,0.085-0.061,0.184-0.095,0.27"/>
			<path style="fill:none;stroke:#000000;stroke-width:6;stroke-linecap:round;stroke-linejoin:round;stroke-miterlimit:10;" d="
				M206.166,468.204c3.484-16.072,17.914-37.979,16.71-47.669c-1.369-11.291-17.744,2.646-24.168,11.602
				c-4.661,6.546-8.581,13.544-12.222,23.911c-0.037,0.085-0.061,0.184-0.095,0.27"/>
		</g>
		<path style="fill:none;stroke:#000000;stroke-width:6;stroke-linecap:round;stroke-linejoin:round;stroke-miterlimit:10;" d="
			M362.88,1059.407c20.914,86.648,41.385,188.014,59.731,305.851"/>
		<path style="fill:none;stroke:#000000;stroke-width:6;stroke-linecap:round;stroke-linejoin:round;stroke-miterlimit:10;" d="
			M197.248,613.074c0,0,70.483,95.512,142.878,358.138"/>
	</g>
	<path style="fill:none;stroke:#000000;stroke-width:6;stroke-linecap:round;stroke-linejoin:round;stroke-miterlimit:10;" d="
		M373.769,444.342c-1.419-21.682,21.758-19.713,32.765-16.637c14.974,4.423,34.569,8.221,32.041,28.081
		c-1.773,13.665-19.799,11.251-31.486,10.153c-7.88-0.309-10.752-4.347-16.982-7.489
		C382.051,455.19,374.568,456.545,373.769,444.342z"/>
	<path style="fill:none;stroke:#000000;stroke-width:6;stroke-linecap:round;stroke-linejoin:round;stroke-miterlimit:10;" d="
		M419.229,431.197c1.559-19.001,11.833-74.876,39.986-84.366c37.091-12.502-14.08,66.702-23.095,75.689
		c-3.172,3.84-5.945,6.974-9.279,10.257"/>
	<path style="fill:none;stroke:#000000;stroke-width:6;stroke-linecap:round;stroke-linejoin:round;stroke-miterlimit:10;" d="
		M431.982,437.742c6.029-2.193,12.446-5.103,18.476-7.292c12.412-5.131,25.3-11.087,37.413-17.556
		c1.552-0.808,3.093-1.648,4.611-2.499c2.116-1.157,4.223-2.347,6.271-3.554c10.316-6.334,31.176-31.66,6.083-26.8
		c-28.601,5.803-60.286,32.831-78.669,54.293"/>
	<path style="fill:none;stroke:#000000;stroke-width:6;stroke-linecap:round;stroke-linejoin:round;stroke-miterlimit:10;" d="
		M487.881,412.9c8.074-5.742,28.958-9.34,36.186-5.579c11.738,6.106-6.087,15.192-17.428,20.216
		c-21.953,9.726-45.345,14.426-68.312,20.519"/>
	<path style="fill:none;stroke:#000000;stroke-width:6;stroke-linecap:round;stroke-linejoin:round;stroke-miterlimit:10;" d="
		M461.621,442.058c12.62-2.147,27.502-3.127,42.242-2.389c9.155,0.458,48.454,6.335,24.287,16.944
		c-24.025,11.168-53.946,6.888-79.298,4.017c-3.661-0.23-8.044-1.153-11.14-1.531"/>
	<path style="fill:none;stroke:#000000;stroke-width:6;stroke-linecap:round;stroke-linejoin:round;stroke-miterlimit:10;" d="
		M483.403,463.775c15.638,2.45,46.193,25.438,42.068,41.522c-0.881,3.428-22.058-11.203-23.673-12.145
		c-23.1-13.518-51.974-22.372-72.419-27.367"/>
	<path style="fill:none;stroke:#000000;stroke-width:6;stroke-linecap:round;stroke-linejoin:round;stroke-miterlimit:10;" d="
		M445.17,470.003c13.332,5.812,30.997,18.989,38.043,29.712c3.579,4.451,17.462,30.006,3.944,28.794
		c-4.927-0.492-16.036-13.478-26.799-23.104c-15.522-13.884-34.48-29.656-47.124-38.899"/>
	<path style="fill:none;stroke:#000000;stroke-width:6;stroke-linecap:round;stroke-linejoin:round;stroke-miterlimit:10;" d="
		M437.365,485.577c8.541,7.331,16.699,24.349,17.428,36.146c0.217,5.34-0.831,16.937-6.281,18.983
		c-7.55,3.201-13.624-7.74-16.791-13.539c-12.13-22.229-17.37-41.432-27.502-61.534"/>
	<path style="fill:none;stroke:#000000;stroke-width:6;stroke-linecap:round;stroke-linejoin:round;stroke-miterlimit:10;" d="
		M412.332,483.583c2.232,8.404,5.482,24.496,3.651,33.967c-3.549,18.291-13.467,12.568-18.003-0.021
		c-5.876-17.631-4.222-37.361-1.814-55.389"/>
	<path style="fill:none;stroke:#000000;stroke-width:6;stroke-linecap:round;stroke-linejoin:round;stroke-miterlimit:10;" d="
		M394.102,483.784c-9.047,21.099-37.175,53.03-41.211,26.517c-3.113-20.764,19.595-41.395,33.912-52.99"/>
	<path style="fill:none;stroke:#000000;stroke-width:6;stroke-linecap:round;stroke-linejoin:round;stroke-miterlimit:10;" d="
		M364.402,478.98c-8.475,6.446-57.1,38.902-48.081,11.037c6.428-19.845,44.039-34.442,60.415-37.137"/>
	<path style="fill:none;stroke:#000000;stroke-width:6;stroke-linecap:round;stroke-linejoin:round;stroke-miterlimit:10;" d="
		M331.146,472.074c-8.404,2.23-18.537,4.923-27.948,4.631c-4.954-0.15-10.748-1.496-10.341-5.054
		c0.34-2.937,6.632-8.573,8.725-10.109c6.625-4.867,16.263-10.167,34.052-14.362"/>
	<path style="fill:none;stroke:#000000;stroke-width:6;stroke-linecap:round;stroke-linejoin:round;stroke-miterlimit:10;" d="
		M374.16,438.002c-3.885-0.803-7.894-1.683-11.973-2.545c-15.91-3.352-32.97-6.42-48.383-3.538
		c-25.39,4.742-44.556,18.314-33.572,21.5c12.671,3.673,32.592-1.451,45.634-4.314c3.361-0.64,6.564-1.326,9.779-1.929
		c3.923-0.754,7.85-1.344,12.093-1.48c7.536-0.361,18.89-0.262,26.182,0.16"/>
	<path style="fill:none;stroke:#000000;stroke-width:6;stroke-linecap:round;stroke-linejoin:round;stroke-miterlimit:10;" d="
		M362.18,435.453c-11.483-4.885-31.33-10.382-45.396-11.524c-20.766-1.684-42.565,2.295-45.586-2.3
		c-4.318-7.25,14.202-14.322,19.323-15.321c8.486-1.65,14.665-1.79,21.922-1.016c16.948,1.815,31.881,7.137,46.765,15.781
		c5.811,3.854,11.727,7.873,16.984,11.874"/>
	<path style="fill:none;stroke:#000000;stroke-width:6;stroke-linecap:round;stroke-linejoin:round;stroke-miterlimit:10;" d="
		M383.687,427.289c-3.28-4.997-8.122-10.853-13.961-16.841c-22.207-22.805-58.717-47.682-78.553-35.493
		c-24.627,15.134,43.143,24.826,74.059,50.141"/>
	<path style="fill:none;stroke:#000000;stroke-width:6;stroke-linecap:round;stroke-linejoin:round;stroke-miterlimit:10;" d="
		M369.716,410.456c-9.58-12.994-20.499-26.575-31.204-38.625c-4.154-5.372-12.623-11.543-14.862-17.422
		c-3.365-10.112,7.802-11.779,16.257-8.195c15.324,6.29,28.25,24.578,35.763,37.472c7.68,13.501,14.971,28.253,20.738,42.264"/>
	<path style="fill:none;stroke:#000000;stroke-width:6;stroke-linecap:round;stroke-linejoin:round;stroke-miterlimit:10;" d="
		M383.445,398.028c-3.835-12.178-9.489-24.467-14.443-36.351c-1.742-4.333-9.102-19.132-10.31-23.05
		c-5.678-18.462,12.236-9.121,20.442,1.595c15.461,20.186,27.685,59.998,27.91,85.726c0,0,0.147,0.558,0.297,1.119"/>
	<path style="fill:none;stroke:#000000;stroke-width:6;stroke-linecap:round;stroke-linejoin:round;stroke-miterlimit:10;" d="
		M394,396.253"/>
	<path style="fill:none;stroke:#000000;stroke-width:6;stroke-linecap:round;stroke-linejoin:round;stroke-miterlimit:10;" d="
		M406.446,416.036c1.753-25.051-4.256-55.876-1.8-80.514c0.834-10.417,6.512-16.986,13.297-4.128
		c2.494,4.726,3.573,11.382,4.607,17.368c2.184,12.574,2.773,26.25,1.963,39.057c0.068,4.778-1.637,17.593-2.133,22.52"/>
	<path style="fill:none;stroke:#000000;stroke-width:6;stroke-linecap:round;stroke-linejoin:round;stroke-miterlimit:10;" d="
		M328.295,891.399c-1.518-29.524,4.443-65.751,26.553-87.203c0.153,2.893,0.909,6.335,1.61,8.621
		c14.048-8.847,21.809-27.241,35.835-36.667c0.122,2.314,0.877,5.756,0.418,8.102c11.278-6.383,19.248-20.723,33.63-23.205
		c-0.518,1.189-0.399,3.503-0.889,5.269c13.536-7.663,27.796-12.457,43.338-14.997c-1.646,1.824-3.264,4.226-4.914,6.053
		c10.456,0.044,22.95-5.243,33.946-5.81c15.631-0.803,31.959,0.677,46.662,4.564c-32.384,2.25-67.798,13.356-94.745,30.997
		c5.385,3.204,12.909,2.817,18.85,5.411c-13.089,16.348-45.195,12.777-59.499,28.023c5.849,0.859,14.012,1.597,19.366,4.228
		c-17.468,10.183-52.955,8.526-64.708,28.287c3.508,0.401,7.562,0.19,10.487,0.621C363.368,868.184,331.793,869.166,328.295,891.399
		"/>
	<path style="fill:none;stroke:#000000;stroke-width:6;stroke-linecap:round;stroke-linejoin:round;stroke-miterlimit:10;" d="
		M328.295,891.399c8.037-36.109,25.685-59.009,46.821-76.93c36.686-31.49,81.367-48.588,127.29-58.499"/>
</g>
<path style="fill:none;stroke:#000000;stroke-width:7;stroke-linecap:round;stroke-linejoin:round;stroke-miterlimit:10;" d="
	M1613.543,2119.12c8.825,11.757,21.88,23.981,40.384,36.599c63.938,43.599,347.856,211.645,412.601,288.24
	c38.354,45.376,58.2,77.975,72.612,143.438c7.812,35.474,7.378,103.101,47.521,108.759c26.009,3.666,57.047-36.029,60.34-110.489
	c1.974-44.697-24.626-97.827-23.097-141.435c1.532-43.609,0.194-79.149-22.404-99.982c-16-14.75-41.758-13.43-62.977-2.009
	c-42.189-6.574-65.961-39.28-101.887-78.946c-35.925-39.662-90.137-129.795-198.665-186.002
	c-38.461-19.919-52.729-27.791-74.694-62.107"/>
<path style="fill:none;stroke:#000000;stroke-width:7;stroke-linecap:round;stroke-linejoin:round;stroke-miterlimit:10;" d="
	M2138.523,2342.241c31.469,30.386,28.338,69.098,42.478,130.474c11.929,51.778,21.333,131.619-36.558,147.369"/>
<path style="fill:none;stroke:#000000;stroke-width:7;stroke-linecap:round;stroke-linejoin:round;stroke-miterlimit:10;" d="
	M1582.077,2766.434c0,0,16.923,53.066-23.349,140.569c-46.522,101.084-108.047,105.059-121.015,77.651"/>
<path style="fill:none;stroke:#000000;stroke-width:7;stroke-linecap:round;stroke-linejoin:round;stroke-miterlimit:10;" d="
	M1521.602,2171.439c0,0,3.34,25.643,17.398,75.061c23.308,81.929,40,131.833,41.271,234.547
	c1.217,98.382-12.771,215.3-0.396,275.703c0.716,3.494,1.444,7.191,2.189,9.69"/>
<g>
	<path d="M1041.818,259.227c0,0,0.813-0.336,2.336-0.966c1.513-0.655,3.779-1.505,6.699-2.512c1.473-0.454,3.096-0.989,4.881-1.513
		c1.799-0.466,3.726-1.065,5.825-1.533c4.178-1.03,8.955-1.949,14.209-2.671c5.259-0.658,10.99-1.239,17.075-1.331
		c6.079-0.098,12.511,0.001,19.122,0.672c6.605,0.674,13.42,1.612,20.233,3.133c6.802,1.546,13.659,3.39,20.351,5.737
		c6.666,2.403,13.26,5.036,19.505,8.147c3.177,1.443,6.177,3.176,9.197,4.771c1.497,0.823,2.939,1.722,4.396,2.569
		c1.439,0.875,2.915,1.67,4.289,2.602c1.391,0.903,2.771,1.798,4.138,2.686c0.68,0.449,1.372,0.872,2.031,1.336
		c0.656,0.47,1.308,0.937,1.957,1.402c1.297,0.93,2.58,1.849,3.847,2.757c1.278,0.893,2.457,1.889,3.665,2.809
		c1.196,0.935,2.377,1.856,3.54,2.764c1.156,0.916,2.244,1.88,3.333,2.803c2.17,1.858,4.283,3.631,6.191,5.469
		c0.969,0.901,1.918,1.784,2.845,2.646c0.928,0.861,1.842,1.694,2.67,2.573c1.687,1.722,3.286,3.356,4.789,4.891
		c2.944,3.128,5.42,5.938,7.483,8.222c1.963,2.374,3.505,4.239,4.557,5.511c1.047,1.273,1.605,1.952,1.605,1.952
		s-0.602-0.642-1.729-1.846c-1.123-1.205-2.77-2.973-4.865-5.224c-2.167-2.18-4.767-4.858-7.843-7.827
		c-1.566-1.453-3.234-3-4.992-4.63c-1.743-1.644-3.695-3.241-5.664-4.979c-1.955-1.756-4.112-3.441-6.324-5.207
		c-1.115-0.872-2.208-1.809-3.377-2.684c-1.173-0.87-2.364-1.753-3.572-2.648c-1.218-0.88-2.406-1.836-3.692-2.686
		c-1.275-0.866-2.565-1.743-3.87-2.629c-2.577-1.818-5.357-3.452-8.116-5.214c-1.369-0.899-2.837-1.661-4.27-2.502
		c-1.449-0.814-2.883-1.679-4.371-2.468c-1.495-0.774-2.999-1.553-4.511-2.336c-1.495-0.815-3.042-1.544-4.598-2.272
		c-6.164-3.035-12.669-5.587-19.235-7.925c-6.571-2.342-13.306-4.189-19.99-5.744c-6.698-1.509-13.375-2.595-19.874-3.337
		c-6.502-0.733-12.83-1.014-18.831-1.063c-1.501,0.014-2.981,0.027-4.439,0.04c-1.457,0.06-2.892,0.119-4.303,0.177
		c-1.413,0.039-2.798,0.139-4.157,0.253c-1.358,0.115-2.697,0.187-4,0.332c-2.604,0.299-5.107,0.558-7.469,0.938
		c-2.374,0.31-4.605,0.726-6.704,1.116c-2.105,0.364-4.04,0.867-5.851,1.245c-1.796,0.435-3.434,0.89-4.921,1.272
		c-2.935,0.879-5.263,1.538-6.813,2.108C1042.65,258.943,1041.818,259.227,1041.818,259.227z"/>
</g>
<path style="fill:none;stroke:#000000;stroke-width:7;stroke-linecap:round;stroke-miterlimit:10;" d="M1240.263,850.317
	c0,0,8.047,28.454-20.588,49.674"/>
<path style="fill:none;stroke:#000000;stroke-width:7;stroke-linecap:round;stroke-miterlimit:10;" d="M1067.447,1472.812
	c0,0,52.535,18.855,84.044,48.188c0,0,88.888-82.418,224.198-174.209"/>
<path style="fill:none;stroke:#000000;stroke-width:7;stroke-linejoin:round;stroke-miterlimit:10;" d="M479.618,771.529
	c21.354,31.949,44.312,66.82,65.164,103.385c54.64,95.814,131.6,192.338,264.092,215.674"/>
<path style="fill:none;stroke:#000000;stroke-width:7;stroke-linejoin:round;stroke-miterlimit:10;" d="M469.84,756.92v-0.01
	c-0.86-1.27-1.7-2.53-2.55-3.79"/>
<path style="fill:none;stroke:#000000;stroke-width:7;stroke-linejoin:round;stroke-miterlimit:10;" d="M466.37,751.74
	c-47.7-71.3-82.49-125.4-57.79-146.87c27.83-24.19,181.57,42.06,395.58,179.27"/>
<path style="fill:none;stroke:#000000;stroke-width:7;stroke-linecap:round;stroke-linejoin:round;stroke-miterlimit:10;" d="
	M672.685,1318.398c-29.637,30.384-48.886,58.298-47.228,78.531c2.945,35.921,86.34,28.646,185.131,2.476"/>
<path style="fill:none;stroke:#000000;stroke-width:7;stroke-linecap:round;stroke-linejoin:round;stroke-miterlimit:10;" d="
	M807.859,1206.047c-29.463,21.484-60.271,45.135-88.006,68.765"/>
<path style="fill:none;stroke:#000000;stroke-width:7;stroke-miterlimit:10;" d="M1577.29,2598.64
	c119.78-9.1,252.39,34.2,353.03,167.79c133.899-146.35,578.68,0,417.56,374.57"/>
<path style="fill:none;stroke:#000000;stroke-width:7;stroke-miterlimit:10;" d="M17.7,2672.93c0,0,207.02-219.02,478.17-21
	c103.79-140,370.48-99.01,443.82,29.07C997,2565,1209,2517,1361,2681c28.53-22.66,62.65-42.02,100.32-56.38"/>
<path style="fill:none;stroke:#000000;stroke-width:7;stroke-miterlimit:10;" d="M185,3141c0,0,132.728-243.049,439.178-116
	c61.365-130.05,409.663-172.38,527.314,116"/>

    <text x="10" y="832" font-size="12" fill="gray" opacity="0.6" font-family="Arial, sans-serif">
      twoja-kolorowanka.pl
    </text>
  
</svg>
