<?xml version="1.0" encoding="utf-8"?>
<!-- Generator: Adobe Illustrator 27.5.0, SVG Export Plug-In . SVG Version: 6.00 Build 0)  -->
<svg version="1.1" xmlns="http://www.w3.org/2000/svg" xmlns:xlink="http://www.w3.org/1999/xlink" x="0px" y="0px"
	 viewBox="0 0 500 500" style="enable-background:new 0 0 500 500;" xml:space="preserve">
<g id="BACKGROUND">
	<rect x="-0.073" style="fill:#FFFFFF;" width="500" height="500"/>
</g>
<g id="OBJECTS">
	<g>
		<g>
			<g>
				
					<rect x="94.626" y="314.223" transform="matrix(0.0449 -0.999 0.999 0.0449 -190.1324 430.5765)" style="fill:#1E1E1E;" width="70.978" height="1"/>
			</g>
			<g>
				<polygon style="fill:#1E1E1E;" points="122.24,361.585 122.24,352.35 123.24,352.35 123.24,360.476 127.591,360.027 
					127.959,352.438 128.958,352.486 128.548,360.934 				"/>
			</g>
			<g>
				<path style="fill:#1E1E1E;" d="M175.94,383.529h-1v-27.404l-15.995,1.653l-0.102-0.034c-0.37-0.122-0.37-0.122-1.208-12.622
					c-0.49-7.299-1.129-17.026-1.764-26.753c-1.269-19.451-2.521-38.896-2.521-38.896l0.998-0.064
					c1.621,25.198,4.667,72.123,5.097,77.313l16.494-1.705V383.529z"/>
			</g>
			<g>
				
					<rect x="58.733" y="383.103" transform="matrix(0.1133 -0.9936 0.9936 0.1133 -301.0763 429.8306)" style="fill:#1E1E1E;" width="63.109" height="1"/>
			</g>
			<g>
				<path style="fill:#1E1E1E;" d="M195.457,427.773l-1.763-36.048c-1.745-0.143-9.742-0.037-14.768,0.075l-0.511,0.012v-7.79
					h-4.322v7.778h-7.158v-7.778h-5.482v8.913h-5.793l-1.125-7.706l-4.322,0.675l-1.143,7.842h-4.822v-7.805l-5.423-0.277
					l-1.778,8.082h-4.174l0.648-10.534h-7.796l-6.007,35.69l-0.986-0.166l6.148-36.524h9.706l-0.648,10.534h2.307l1.787-8.125
					l7.218,0.371v7.754h2.957l1.126-7.717l6.049-0.944l1.145,7.85h3.929v-8.913h7.482v7.778h5.158v-7.778h6.322v7.768
					c3.898-0.085,14.143-0.275,14.945,0.047l0.298,0.119l1.798,36.769L195.457,427.773z"/>
			</g>
			<g>
				<path style="fill:#1E1E1E;" d="M345.93,353.67l-0.53,0.03l-19.84,1.18l-2.41-21.14l-0.21-1.91c0.32-0.06,0.65-0.12,0.98-0.19
					l0.21,1.91h0.01l2.3,20.27l19.02-1.13l0.41-0.02L345.93,353.67z"/>
			</g>
			<g>
				<polygon style="fill:#1E1E1E;" points="230.6,425.415 228.3,295.341 238.616,295.895 238.563,296.893 229.319,296.397 
					231.6,425.397 				"/>
			</g>
			<g>
				<path style="fill:#1E1E1E;" d="M274.54,333.35l-0.05,0.4l-0.16,1.27l-3.06,24.1l-10.87,0.56l-2.3-31.92l-0.07-1.02l0.75-0.04
					l0.25-0.02l0.01,0.2l0.06,0.8l0.06,0.84l2.16,30.12l9.07-0.48l2.96-23.38l0.21-1.66C273.89,333.21,274.21,333.28,274.54,333.35z
					"/>
			</g>
			<g>
				<path style="fill:#1E1E1E;" d="M304.29,334.55v22.87L292.87,358l-1.64-21.01l-0.14-1.83c0.34,0.01,0.68,0.01,1.01,0.01
					l0.14,1.83l1.55,19.96l9.5-0.49v-21.83C303.62,334.62,303.95,334.59,304.29,334.55z"/>
			</g>
			<g>
				
					<rect x="284.719" y="349.124" transform="matrix(0.0605 -0.9982 0.9982 0.0605 -23.7827 673.9799)" style="fill:#1E1E1E;" width="122.855" height="1"/>
			</g>
			<g>
				<polygon style="fill:#1E1E1E;" points="389.492,398.368 380.252,278.898 379.681,275.816 380.665,275.635 381.242,278.77 
					390.488,398.292 				"/>
			</g>
			<g>
				
					<rect x="229.588" y="284.703" transform="matrix(0.9999 -0.0144 0.0144 0.9999 -5.0952 3.3532)" style="fill:#1E1E1E;" width="1" height="140.927"/>
			</g>
			<g>
				<polygon style="fill:#1E1E1E;" points="175.376,383.676 172.662,207.447 185.912,205.941 187.313,221.36 191.385,221.36 
					191.385,204.32 201.324,204.32 201.324,212.777 200.324,212.777 200.324,205.32 192.385,205.32 192.385,222.36 186.4,222.36 
					185.008,207.05 173.676,208.338 176.376,383.66 				"/>
			</g>
			<g>
				<polygon style="fill:#1E1E1E;" points="241.748,296.974 228.313,296.347 228.231,285.274 229.231,285.267 229.306,295.392 
					241.794,295.976 				"/>
			</g>
			<g>
				<path style="fill:#1E1E1E;" d="M141.3,238.27l-13.01,41.64l2.88,0.02h1l21.22,0.13l1,0.01l3.36,0.02L141.3,238.27z
					 M129.65,278.92l11.76-37.64l14.86,37.8L129.65,278.92z"/>
			</g>
			<g>
				<path style="fill:#1E1E1E;" d="M129.04,349.99l-0.94-1.4l-19.11-28.48L86.92,353h44.14L129.04,349.99z M88.79,352l20.2-30.1
					l20.2,30.1H88.79z"/>
			</g>
			<g>
				<path style="fill:#1E1E1E;" d="M209.94,308.97l-20.85,1.43l2.46-36.61c0.21-3.03,1.35-5.97,3.45-8.18c0.47-0.5,1-0.98,1.58-1.38
					c0.32-0.24,0.66-0.46,1.01-0.65c0.28-0.15,0.56-0.27,0.85-0.34c0.2,1.95,0.47,3.89,0.79,5.83c0.75,4.21,1.79,8.37,3.32,12.36
					c1.36,3.53,3.07,6.94,5.31,10.01c0.03-0.12,0.07-0.24,0.11-0.36c0.01,0.19,0.03,0.38,0.05,0.57c0.03,0.35,0.06,0.69,0.09,1.03
					c0.06,0.54,0.11,1.06,0.16,1.58C209.1,302.64,209.94,308.97,209.94,308.97z"/>
			</g>
			<g>
				<path style="fill:#1E1E1E;" d="M100.451,392.987h13.248c0,0,1.325-27.82-3.643-28.814
					C105.087,363.179,101.113,384.707,100.451,392.987z"/>
			</g>
			<g>
				<path style="fill:#1E1E1E;" d="M309.862,386.499h10.647c0,0,1.121-29.701-3.923-31.008
					C311.543,354.184,309.862,386.499,309.862,386.499z"/>
			</g>
			<g>
				<path style="fill:#1E1E1E;" d="M243.839,387.458h9.713c0,0,3.175-32.677-3.362-34.177
					C243.652,351.78,243.839,387.458,243.839,387.458z"/>
			</g>
			<g>
				<polygon style="fill:#1E1E1E;" points="146.54,302.457 138.163,302.457 138.163,327.858 148.511,327.858 				"/>
			</g>
			<g>
				<polygon style="fill:#1E1E1E;" points="197.229,428.249 184.498,428.249 184.498,414.156 176.824,416.082 175.625,425.906 
					166.339,425.906 166.339,414.016 159.486,414.016 159.486,425.906 152.105,425.906 152.105,414.016 145.252,414.016 
					145.252,423.694 137.872,426.095 137.872,414.016 129.547,414.016 129.547,425.906 127.394,425.906 127.394,424.906 
					128.547,424.906 128.547,413.016 138.872,413.016 138.872,424.718 144.252,422.968 144.252,413.016 153.105,413.016 
					153.105,424.906 158.486,424.906 158.486,413.016 167.339,413.016 167.339,424.906 174.74,424.906 175.915,415.279 
					185.498,412.875 185.498,427.249 196.327,427.249 197.799,413.016 207.585,413.016 207.585,424.906 214.438,424.906 
					214.438,413.016 224.763,413.016 224.763,424.9 235.556,424.766 235.556,413.016 251.659,413.016 254.151,424.225 
					263.075,423.96 263.075,413.016 273.722,413.016 276.7,423.556 288.575,423.205 288.575,413.016 300.182,413.016 
					303.126,420.132 314.071,420.132 314.071,411.052 328.708,411.052 330.671,419.15 339.102,419.15 339.102,411.152 
					350.9,408.472 350.9,417.923 365.458,417.923 363.004,408.6 381.224,408.555 381.226,409.555 364.301,409.596 366.755,418.923 
					349.9,418.923 349.9,409.724 340.102,411.951 340.102,420.15 329.884,420.15 327.921,412.052 315.071,412.052 315.071,421.132 
					302.458,421.132 299.514,414.016 289.575,414.016 289.575,424.176 275.95,424.579 272.966,414.016 264.075,414.016 
					264.075,424.931 253.354,425.248 250.857,414.016 236.556,414.016 236.556,425.754 223.763,425.912 223.763,414.016 
					215.438,414.016 215.438,425.906 206.585,425.906 206.585,414.016 198.702,414.016 				"/>
			</g>
			<g>
				<path style="fill:#1E1E1E;" d="M177.58,331.88V338H195v-6.12H177.58z M194.25,337.25h-15.92v-4.62h15.92V337.25z"/>
			</g>
			<g>
				<path style="fill:#1E1E1E;" d="M196.62,325.37h-11.87l1.25,4.77h12.21L196.62,325.37z M185.72,326.12h10.36l1.09,3.27h-10.59
					L185.72,326.12z"/>
			</g>
			<g>
				<path style="fill:#1E1E1E;" d="M185.92,339.33v8.24h16.77v-7.22L185.92,339.33z M201.94,346.82h-15.27v-6.7l15.27,0.94V346.82z"
					/>
			</g>
			<g>
				<path style="fill:#1E1E1E;" d="M349.19,364.37l1.81,9.19h18.87l0.71-9.19H349.19z M369.17,372.81h-17.55l-1.51-7.69h19.66
					L369.17,372.81z"/>
			</g>
			<g>
				<path style="fill:#1E1E1E;" d="M373.78,375.81c-0.5-0.17-11.86-0.89-15.33-1.11l-0.4-0.03v8.84l15.99-0.52v-7.09L373.78,375.81z
					 M373.29,382.26l-14.49,0.47v-7.26c5.34,0.34,12.91,0.84,14.49,1.02V382.26z"/>
			</g>
			<g>
				<path style="fill:#1E1E1E;" d="M339.42,390.65l-0.36,0.09v-0.38h-16.11v8.72l18.23-1.04L339.42,390.65z M323.7,391.11h15.06
					l1.48,6.23l-16.54,0.95V391.11z"/>
			</g>
			<g>
				<path style="fill:#1E1E1E;" d="M296.72,391.57l-0.44,0.09c-0.67,0.12-12.21,0.06-19.8-0.02h-0.34l-0.93,8.63h21.53v-8.25
					L296.72,391.57z M295.99,399.52h-19.94l0.77-7.12c3.54,0.03,16.47,0.14,19.17,0.02V399.52z"/>
			</g>
			<g>
				<path style="fill:#1E1E1E;" d="M214.03,364.53l-0.12-0.09c-0.72-0.53-13.94-1.08-19.59-1.29l-0.39-0.02v10.43h21.61
					L214.03,364.53z M194.68,363.91c6.74,0.26,17.15,0.76,18.68,1.11l1.3,7.79h-19.98V363.91z"/>
			</g>
			<g>
				<path style="fill:#1E1E1E;" d="M215.1,308.47c-0.09,0-2.15,0.13-5.18,0.31c-5.73,0.36-14.92,0.94-20.81,1.31
					c-2.62,0.16-4.59,0.28-5.3,0.33l-0.45,0.03l1.59,6.34h28.81l1.81-8.32H215.1z M213.16,316.04h-27.63l-1.23-4.9
					c9.86-0.62,27.22-1.71,30.33-1.89L213.16,316.04z"/>
			</g>
			<g>
				<path style="fill:#1E1E1E;" d="M257.68,387.47l-0.29-0.02c-0.14-0.02-1.69-0.05-3.83-0.09c-2.82-0.05-6.69-0.11-9.72-0.15
					c-2.3-0.04-4.13-0.06-4.68-0.07l-0.44-0.01l1.18,7.97l18.69-0.88L257.68,387.47z M239.59,387.89
					c4.79,0.07,15.49,0.24,17.43,0.29l0.72,5.33l-17.2,0.81L239.59,387.89z"/>
			</g>
			<g>
				<path style="fill:#1E1E1E;" d="M305.76,385.96l0.74,5.55l15.98-1.13l1.35-4.42H305.76z M321.91,389.66l-14.76,1.05l-0.54-4h16.2
					L321.91,389.66z"/>
			</g>
			<g>
				<path style="fill:#1E1E1E;" d="M97.9,392.85v5.12h18.42v-5.12H97.9z M115.57,397.22H98.65v-3.62h16.92V397.22z"/>
			</g>
			<g>
				<g>
					<polygon style="fill:#1E1E1E;" points="384.98,341.359 425.984,336.543 425.984,340.434 384.98,347.126 					"/>
				</g>
				<g>
					<polygon style="fill:#1E1E1E;" points="383.236,318.811 419.76,339.967 423.183,338.411 382.922,314.753 421.659,315.751 
						421.659,311.508 382.574,310.263 					"/>
				</g>
				<g>
					<polygon style="fill:#1E1E1E;" points="384.98,341.359 409.8,314.753 415.402,315.534 387.702,343.041 					"/>
				</g>
				<g>
					<polygon style="fill:#1E1E1E;" points="415.402,315.534 421.659,337.515 417.539,338.681 412.134,317.246 					"/>
				</g>
			</g>
			<g>
				<polygon style="fill:#1E1E1E;" points="91.926,369.197 62.962,369.197 62.962,373.185 70.892,373.185 65.242,399.896 
					88.753,399.896 88.885,395.958 70.258,395.958 74.382,373.185 91.598,372.08 				"/>
			</g>
			<g>
				<polygon style="fill:#1E1E1E;" points="72.796,381.944 82.63,397.598 77.444,397.598 70.258,384.547 				"/>
			</g>
		</g>
		<g>
			<path style="fill:#1E1E1E;" d="M348.853,442.317l-0.586-0.811c5.252-3.804,8.915-6.225,12.098-7.34
				c4.394-1.538,10.332-2.666,16.292-3.098l0.072,0.998c-5.876,0.425-11.721,1.534-16.034,3.043
				C357.629,436.185,354.031,438.566,348.853,442.317z"/>
		</g>
		<g>
			<path style="fill:#1E1E1E;" d="M241.505,445.488c-9.585,0.001-18.289-1.146-26.059-3.44c-8.421-2.485-16.446-2.168-23.851,0.946
				l-0.388-0.922c7.622-3.207,15.872-3.536,24.522-0.983c17.063,5.036,38.724,4.474,64.38-1.673
				c13.903-3.329,30.02-1.192,39.194,5.204l-0.572,0.82c-8.813-6.145-24.954-8.271-38.39-5.052
				C266.159,443.788,253.179,445.488,241.505,445.488z"/>
		</g>
		<g>
			<path style="fill:#1E1E1E;" d="M499.999,333.314l0.002,3.796c-3.94,6.35-14.691,21.48-24.511,16.28
				c-0.9-0.48-1.82-0.98-2.75-1.49c-10.59-5.76-23.76-12.93-42.32-2.19c-19.83,11.48-20.36,21.66-20.98,33.46l-0.04,0.68
				c-0.31,5.86-5.71,8.54-11.44,11.37c-7.49,3.7-15.97,7.9-17.78,19.91c-0.98,6.58-1.82,11.99-2.86,16.61l-1.95-0.44
				c1.02-4.56,1.85-9.92,2.83-16.46c1.96-13.05,11.34-17.69,18.87-21.41c5.64-2.79,10.09-4.99,10.34-9.69l0.03-0.68
				c0.62-11.86,1.21-23.06,21.98-35.08c19.53-11.3,33.25-3.84,44.27,2.16c0.93,0.51,1.84,1.01,2.74,1.48
				C485.62,356.49,497.439,337.644,499.999,333.314z"/>
		</g>
		<g>
			<path style="fill:#1E1E1E;" d="M292.274,479.46c-1.428,0-3.004-0.296-4.764-0.942c-6.337-2.326-11.4-5.591-16.298-8.748
				c-7.513-4.844-14.612-9.408-24.797-9.063c-4.079,0.143-7.71,0.426-10.914,0.676c-10.421,0.813-17.304,1.348-24.991-3.823
				c-2.352-1.583-4.679-3.471-7.143-5.469c-7.776-6.308-16.59-13.457-30.236-14.207c-4.001-0.22-7.865-0.306-11.602-0.39
				c-13.72-0.308-24.558-0.55-30.263-6.913c-7.884-8.794-19.3-17.413-44.207-14.6c-27.26,3.067-28.992-4.873-33.619-26.098
				l-0.235-1.076c-4.6-21.06-33.268-45.077-53.215-45.077l0.004-1.976c21.113,0,50.309,24.396,55.165,46.627l0.235,1.076
				c4.59,21.052,5.975,27.407,31.441,24.536c25.807-2.901,37.695,6.08,45.92,15.252c5.127,5.719,15.582,5.953,28.819,6.249
				c3.753,0.084,7.633,0.171,11.667,0.393c14.293,0.785,23.374,8.15,31.387,14.649c2.428,1.97,4.721,3.83,6.999,5.362
				c7.11,4.783,13.361,4.295,23.719,3.489c3.224-0.251,6.877-0.536,10.999-0.68c10.815-0.397,18.167,4.361,25.951,9.38
				c4.806,3.099,9.774,6.303,15.903,8.553c8.228,3.017,11.468-2.677,16.486-13.002c3.355-6.905,7.158-14.73,14.058-20.413
				c12.535-10.324,22.744-5.776,32.614-1.378c3.32,1.48,6.457,2.878,9.664,3.711c3.134,0.814,5.611,0.628,7.572-0.569
				c2.958-1.804,5.046-6.026,6.771-13.689l1.951,0.439c-1.878,8.347-4.175,12.819-7.68,14.958c-2.45,1.493-5.433,1.753-9.116,0.797
				c-3.368-0.874-6.727-2.371-9.976-3.819c-9.744-4.343-18.948-8.443-30.529,1.094c-6.563,5.406-10.265,13.023-13.53,19.744
				C302.637,472.435,299.222,479.46,292.274,479.46z"/>
		</g>
		<g>
			<g>
				<path style="fill:#1E1E1E;" d="M162.23,263.56c-0.14-0.85-1.33-1-5.47-1.36c-2.02-0.18-4.45-0.39-7.06-0.76l0.4,1.06
					c2.49,0.34,4.75,0.54,6.58,0.7c1.82,0.16,3.69,0.32,4.39,0.54c-0.21,0.15-0.64,0.4-1.5,0.77c-0.97,0.42-3.77,0.82-8.27,1.18
					l0.37,0.97c4.29-0.36,7.22-0.76,8.3-1.23C161.76,264.65,162.33,264.18,162.23,263.56z M126.54,248.74l-0.08-0.15
					c-6.03-12.01-11.73-23.35-28.22-21.02c-15.7,2.21-18.09-0.2-19.75-3.84c-0.48-1.06-0.72-2.3-0.94-3.51
					c-0.15-0.77-0.3-1.58-0.52-2.33c-1.04-3.65-2.76-6.8-5.09-9.36c-7.09-7.82-18.37-11.15-28.72-8.5
					c-10.36,2.66-21.18,12.82-21.36,25.22c-0.08,6.05-1.56,10.15-4.5,12.55c-4.14,3.37-10.8,2.84-17.34,1.72v1.01
					c6.7,1.14,13.55,1.64,17.98-1.96c3.18-2.59,4.77-6.95,4.86-13.3c0.17-11.93,10.61-21.71,20.61-24.27s20.88,0.66,27.73,8.2
					c2.23,2.45,3.87,5.47,4.87,8.96c0.21,0.71,0.35,1.46,0.49,2.25c0.24,1.26,0.49,2.56,1.02,3.74c1.84,4.04,4.42,6.72,20.8,4.41
					c15.78-2.22,21.07,8.3,27.19,20.48l0.08,0.15c2.17,4.31,5.8,7.24,9.93,9.26l0.28-0.92C131.97,255.6,128.59,252.82,126.54,248.74
					z M0.02,268.08v1.01c6.61,0.03,13.47,0.04,20.45,0.04c8.77,0,17.73-0.02,26.59-0.07c15.9-0.08,42.5-0.28,65.94-0.81
					c6.97-0.16,13.66-0.35,19.71-0.58l0.32-1.02c-19.28,0.73-48.22,1.22-84.48,1.4C31.76,268.14,15.06,268.14,0.02,268.08z"/>
			</g>
		</g>
		<g>
			<g>
				<path style="fill:#1E1E1E;" d="M387.44,49.309c1.77-5.09,8.99-3.71,17.36-2.11c8.17,1.56,17.43,3.33,22.98-1.19
					c3.27-2.66,4.91-7.13,5-13.67c0.16-10.96,6.71-19.82,17.54-23.7c11.97-4.3,25.09-1.19,32.66,7.73c2.41,2.84,3.24,5.85,4.13,9.04
					c0.52,1.88,1.06,3.83,1.94,5.78c1.4,3.08,3.22,5.38,10.95,5.4v-0.99c-7.14-0.02-8.79-2.08-10.04-4.83
					c-0.85-1.88-1.38-3.78-1.89-5.63c-0.87-3.15-1.77-6.4-4.33-9.42c-7.83-9.24-21.4-12.46-33.76-8.03
					c-11.23,4.03-18.03,13.24-18.2,24.64c-0.09,6.22-1.6,10.44-4.63,12.9c-5.19,4.23-14.2,2.51-22.16,0.98
					c-8.46-1.61-16.44-3.14-18.49,2.78c-6.38,18.4-11.61,19.41-21.1,21.24c-4.3,0.83-9.66,1.86-16.27,4.87l-0.5,0.27l0.2,0.46
					c0.19,0.44,0.44,0.98,34.32,1.36c13.74,0.15,30.12,0.22,47.18,0.22c9.02,0,18.23-0.02,27.34-0.06
					c10.71-0.05,26.17-0.16,42.33-0.38v-1.01c-12.31,0.18-25.97,0.3-40.82,0.38c-49.99,0.26-99.24-0.19-108.25-0.94
					c5.84-2.49,10.51-3.39,14.66-4.19C375.12,69.369,380.88,68.259,387.44,49.309z"/>
			</g>
		</g>
		<g>
			<g>
				<g>
					<path style="fill:#1E1E1E;" d="M220.389,132.544l-0.73,0.43l-0.82,0.82l-0.15-0.2c-0.09-0.13-0.18-0.25-0.27-0.37
						c-2.2-3.02-4.85-5.79-7.88-8.27v-0.01c-0.34-0.27-0.68-0.54-1.03-0.8l-0.14-0.83l-0.57,0.29c-0.26-0.2-0.52-0.39-0.79-0.57
						c-3.83-2.75-8.26-5.11-13.2-7.07c-0.18-0.08-0.36-0.15-0.54-0.21l-0.04-0.9v-0.02l0.15-1.22c0.11,0.04,0.21,0.08,0.32,0.13
						c5.63,2.19,11.06,5.11,15.29,8.25c0,0.01,0.01,0.01,0.01,0.01c0.01,0.01,0.02,0.01,0.04,0.03c0.04,0.03,0.1,0.07,0.15,0.11
						l0.16,0.12c3.8,2.88,7.03,6.15,9.66,9.75c0.09,0.11,0.18,0.23,0.26,0.35L220.389,132.544z"/>
				</g>
				<g>
					<path style="fill:#1E1E1E;" d="M193.219,113.154l-2.51,1.31c-0.16-0.05-0.32-0.1-0.48-0.15c-3.65-1.19-7.54-2.19-11.56-2.98
						l0.38-1.96c4.25,0.83,9.59,2.28,13.6,3.59C192.839,113.034,193.039,113.094,193.219,113.154z"/>
				</g>
				<g>
					<path style="fill:#1E1E1E;" d="M255.874,147.6l-0.611-1.883c2.331-0.98,4.886-1.816,7.592-2.485l0.231,1.927
						C260.479,145.804,258.111,146.66,255.874,147.6z"/>
				</g>
				<g>
					<path style="fill:#1E1E1E;" d="M262.029,137.776c-11.057-9.316-15.489-18.667-12.922-27.575l1.922,0.554
						c-2.329,8.081,1.365,16.232,11.764,24.994L262.029,137.776z"/>
				</g>
				<g>
					<path style="fill:#1E1E1E;" d="M245.404,81.463c-3.101-3.741-4.088-7.459-2.935-11.049
						c2.407-7.493,13.647-12.353,19.847-14.511c-23.835-3.333-44.216,2.205-60.64,16.488l-1.313-1.509
						c17.856-15.529,40.224-21.005,66.489-16.278l4.446,0.801l-4.368,1.15c-0.196,0.052-19.602,5.262-22.558,14.472
						c-0.93,2.897-0.066,5.979,2.57,9.16L245.404,81.463z"/>
				</g>
			</g>
			<g>
				<g>
					<polygon style="fill:#1E1E1E;" points="258.579,158.553 254.399,142.894 243.799,152.574 243.589,152.314 243.249,152.314 
						238.309,137.484 225.949,144.904 225.589,144.514 225.259,144.594 222.769,131.124 212.689,138.814 212.259,138.254 
						211.929,138.514 209.509,124.144 209.369,123.314 208.799,123.604 195.339,130.574 194.889,130.694 194.799,130.274 
						194.269,115.754 194.229,114.854 194.229,114.834 194.149,112.674 193.219,113.154 190.709,114.464 177.399,121.414 
						190.229,114.314 192.649,112.964 194.269,112.074 194.599,111.894 194.619,112.274 194.699,113.743 194.809,115.964 
						195.509,129.664 208.009,123.034 209.489,122.254 209.989,121.993 210.029,121.974 210.039,122.034 210.129,122.564 
						210.539,124.944 210.539,124.954 212.729,137.574 218.419,133.224 220.009,132.014 222.809,129.863 223.449,129.374 
						223.589,130.164 226.039,143.784 238.319,136.474 238.779,136.204 238.949,136.714 243.739,151.764 254.379,142.374 
						254.629,142.154 254.699,142.474 255.459,145.634 255.929,147.574 					"/>
				</g>
				<g>
					<path style="fill:#1E1E1E;" d="M421.879,93.324l-6.06,2.54l2.89,9.28l0.04,0.12l-0.13,0.02l-6.13,0.73l3.89,13.01l0.4,1.33
						l0.07,0.23l-0.23,0.08l-0.76,0.26l-12.67,4.42l5.54,15.96l0.49,1.42l0.15,0.44l-0.46-0.01l-0.99-0.02l-13.53-0.25l1.89,16.95
						l0.08,0.67l-0.63-0.26l-11.41-4.78l0.04,18.93l0.01,0.88l-0.73-0.49l-13.03-8.75l-5.05,17.89l-0.16,0.57l-0.2,0.72l-0.55-0.51
						l-0.63-0.59l-15.54-14.56l-4.11,14.01l-0.27,0.92l-0.23,0.77l-0.43-0.68l-0.79-1.24l-11.17-17.55l-10.88,13.2l-0.57,0.7
						l-0.28,0.33l-0.18-0.39l-0.47-1.02l-7.55-16.14l-14.09,10l-0.82,0.58c-0.03-0.01-0.07-0.02-0.1-0.04
						c-0.03-0.01-0.16-0.05-0.2-0.07l-0.45-0.96l-4.72-10.2l4.91,10.26l0.43,0.91l0.75-0.55l14.25-10.39l0.2-0.14l0.1,0.21
						l7.97,16.71l0.1,0.21l0.12-0.16l11.27-13.79l0.27-0.34l0.24,0.37l11.82,18.39l0.02,0.04l0.01-0.04l4.26-14.76l0.18-0.63
						l0.48,0.44l16.18,15.03l5.12-18.44l0.18-0.66l0.57,0.39l12.83,8.68l0.04-18.69v-0.64l0.59,0.25l11.37,4.82l-1.79-16.69
						l-0.04-0.41l0.4,0.01l14.21,0.32l0.25,0.01l-0.11-0.31l-5.78-16.93l-0.1-0.26l0.27-0.1l13.28-4.56l0.21-0.07l-0.09-0.34
						l-3.99-14l-0.05-0.17l0.18-0.02l6.18-0.66l-2.74-9.23l-0.01-0.04l0.04-0.02l6.13-2.47V93.324z"/>
					<polygon style="fill:#1E1E1E;" points="421.899,93.303 421.889,93.314 421.879,93.314 					"/>
				</g>
			</g>
			<g>
				<g>
					<path style="fill:#1E1E1E;stroke:#1E1E1E;stroke-miterlimit:10;" d="M346.88,351.65l-0.34-0.3l-0.94-0.85l-0.76-0.67
						l-18.77-16.67c-0.65,0.13-1.28,0.26-1.93,0.39h-0.01c-0.32,0.07-0.65,0.13-0.98,0.19c-3.09,0.61-6.2,1.18-9.32,1.64l-3.21,0.46
						l-3.21,0.36c-0.57,0.07-1.14,0.13-1.72,0.18c-0.47,0.04-0.93,0.08-1.4,0.12c-0.33,0.03-0.67,0.06-1,0.08
						c-0.78,0.06-1.55,0.12-2.33,0.18c-2.48,0.15-4.98,0.24-7.46,0.24h-1.26c-0.34,0-0.68-0.01-1.01-0.01
						c-1.08-0.01-2.16-0.04-3.23-0.09c-4.06-0.22-8.12-0.68-12.11-1.52c-0.26-0.06-0.52-0.11-0.78-0.17
						c-0.26-0.06-0.52-0.12-0.78-0.19c-0.33-0.07-0.65-0.15-0.98-0.24c-3.62-0.94-7.16-2.25-10.49-4c-0.8-0.43-1.59-0.89-2.36-1.38
						c-0.45-0.28-0.9-0.58-1.34-0.88c-0.36-0.25-0.71-0.5-1.06-0.76c-2-1.48-3.85-3.16-5.48-5.03c-2.87-3.29-5.01-7.15-6.44-11.23
						c-1.21-3.31-1.91-6.76-2.29-10.24v-0.01c-0.08-0.65-0.14-1.3-0.19-1.95c-0.02-0.14-0.03-0.28-0.04-0.42
						c0.02,0.15,0.04,0.29,0.06,0.44c0.1,0.68,0.2,1.36,0.31,2.04c0.21,1.29,0.46,2.57,0.78,3.84c0.22,1.04,0.56,2.06,0.84,3.09
						c0.36,1,0.65,2.03,1.09,3c0.75,1.99,1.77,3.87,2.85,5.69c1.14,1.78,2.41,3.47,3.83,5.04c1.61,1.76,3.42,3.32,5.36,4.68
						c0.09,0.07,0.17,0.13,0.26,0.18c1.42,0.99,2.91,1.88,4.45,2.66c3.2,1.59,6.59,2.74,10.07,3.58c0.33,0.09,0.65,0.16,0.98,0.23
						c0.31,0.08,0.62,0.14,0.93,0.21c0.21,0.05,0.42,0.09,0.64,0.13c3.93,0.8,7.95,1.23,11.97,1.41c1.01,0.04,2.01,0.06,3.01,0.06
						c0.34,0.01,0.68,0.01,1.01,0.01c0.43,0,0.84,0,1.26-0.01c2.49-0.03,4.98-0.14,7.47-0.3c0.82-0.07,1.64-0.14,2.46-0.22
						c0.33-0.02,0.66-0.05,1-0.09c3.09-0.29,6.17-0.66,9.24-1.14c3.15-0.44,6.27-0.98,9.4-1.58h0.01c0.32-0.06,0.65-0.12,0.98-0.19
						c0.74-0.14,1.49-0.28,2.23-0.43l0.48-0.09l0.34,0.31l17.01,15.39l-4.04-17.34c-1.56-6.62-3.02-13.24-4.52-19.87l-6.41-2.94
						l-0.92-0.42l-0.53-0.24l0.56,0.22h0.01l0.97,0.4l6.6,2.63l0.1,0.04l0.02,0.11c1.76,6.59,3.56,13.18,5.25,19.79l4.71,18.21v0.01
						l0.42,1.6l0.39,1.52L346.88,351.65z"/>
				</g>
			</g>
			<g>
				<g>
					<path style="fill:#1E1E1E;" d="M218.868,267.632c-1.39,4.54-2.84,9.05-4.2,13.6c-1.36,4.54-2.75,9.09-3.94,13.64l-0.34,1.34
						l-0.22-0.26l-0.68-0.81c-2.84-3.4-5.04-7.29-6.67-11.38c-1.64-4.09-2.83-8.35-3.59-12.67c-0.3-1.72-0.55-3.45-0.75-5.17
						c-0.33-2.62-0.54-5.25-0.67-7.87c-0.18-4.37-0.12-8.74,0.08-13.09c0.47-8.71,1.59-17.36,3.2-25.9
						c0.83-4.27,1.73-8.52,2.81-12.73c1.07-4.21,2.19-8.4,3.56-12.52c-2.07,8.42-3.71,16.93-5.03,25.48
						c-0.68,4.27-1.24,8.56-1.68,12.85c-0.44,4.29-0.79,8.6-0.95,12.91c-0.27,6.63-0.18,13.3,0.54,19.88
						c0.2,1.95,0.47,3.89,0.79,5.83c0.75,4.21,1.79,8.37,3.32,12.36c1.36,3.53,3.07,6.94,5.31,10.01c0.03-0.12,0.07-0.24,0.11-0.36
						c0.52-1.71,1.08-3.39,1.65-5.08c0.75-2.25,1.52-4.5,2.34-6.73l2.45-6.69C217.138,272.052,217.998,269.842,218.868,267.632z"/>
				</g>
			</g>
			<g>
				<g>
					<path style="fill:#1E1E1E;" d="M175.469,120.424l1.02-4.11c0.315-1.382,0.854-2.695,1.318-4.033
						c0.222-0.674,0.494-1.327,0.791-1.972l0.859-1.949l1.003-1.883l0.508-0.94l0.578-0.9c2.982-4.865,7.438-8.889,12.689-11.311
						c5.269-2.425,11.183-3.176,16.9-2.773c5.744,0.431,11.337,1.743,16.703,3.973l-1.236,1.326
						c-1.781-3.089-3.616-6.153-5.752-8.987c-1.007-1.466-2.173-2.796-3.298-4.162c-1.211-1.281-2.397-2.595-3.743-3.725
						c-2.63-2.32-5.593-4.27-8.849-5.478c-3.247-1.214-6.764-1.663-10.223-1.265c-3.464,0.383-6.846,1.517-10.009,3.096
						c-3.168,1.583-6.136,3.594-8.905,5.851c-5.578,4.488-10.447,9.84-14.963,15.45c2.062-2.957,4.272-5.816,6.647-8.542
						c2.376-2.722,4.884-5.349,7.639-7.719c2.749-2.372,5.721-4.519,8.954-6.251c3.227-1.727,6.742-3.03,10.439-3.546
						c3.698-0.485,7.527-0.023,11.034,1.249c3.52,1.268,6.691,3.321,9.476,5.731c1.427,1.179,2.675,2.531,3.949,3.856
						c1.18,1.402,2.403,2.775,3.454,4.272c2.212,2.921,4.031,6.087,5.825,9.25l1.388,2.447l-2.624-1.12
						c-5.023-2.145-10.538-3.509-16.031-3.962c-5.498-0.395-11.128,0.149-16.21,2.306c-5.074,2.15-9.403,5.908-12.531,10.51
						l-0.606,0.852l-0.539,0.897l-1.071,1.802l-0.934,1.88c-0.323,0.622-0.623,1.256-0.873,1.912
						C177.083,115.021,176.331,117.734,175.469,120.424z"/>
				</g>
			</g>
			<g>
				<g>
					<path style="fill:#1E1E1E;" d="M177.119,114.733c-0.11,0.31-0.21,0.62-0.31,0.93c-0.05-0.02-0.1-0.04-0.15-0.08l-12.34-10.01
						c-0.16-0.54-0.33-1.08-0.5-1.61L177.119,114.733z"/>
				</g>
			</g>
			<g>
				<g>
					<path style="fill:#1E1E1E;" d="M181.68,105.648c-0.102,0-0.204-0.033-0.29-0.101l-17.086-13.294
						c-0.207-0.159-0.245-0.457-0.083-0.663c0.16-0.209,0.458-0.245,0.664-0.084l17.086,13.294c0.206,0.161,0.243,0.457,0.082,0.663
						C181.96,105.585,181.821,105.648,181.68,105.648z"/>
				</g>
			</g>
			<g>
				<g>
					<path style="fill:#1E1E1E;" d="M187.359,99.001c-0.141,0-0.282-0.065-0.375-0.186l-12.621-16.438
						c-0.16-0.206-0.121-0.505,0.087-0.663c0.208-0.158,0.503-0.121,0.664,0.087l12.622,16.438c0.159,0.206,0.119,0.505-0.087,0.663
						C187.562,98.968,187.462,99.001,187.359,99.001z"/>
				</g>
			</g>
			<g>
				<g>
					<path style="fill:#1E1E1E;" d="M193.909,94.041c-0.209,0-0.401-0.139-0.457-0.353l-5.475-20.638
						c-0.067-0.253,0.082-0.513,0.336-0.579c0.255-0.071,0.513,0.083,0.579,0.336l5.475,20.639c0.067,0.252-0.084,0.511-0.338,0.579
						C193.99,94.036,193.95,94.041,193.909,94.041z"/>
				</g>
			</g>
			<g>
				<g>
					<path style="fill:#1E1E1E;" d="M204.442,91.899c-0.028,0-0.056-0.003-0.083-0.008c-0.257-0.045-0.429-0.293-0.383-0.55
						l3.213-17.772c0.048-0.258,0.297-0.423,0.551-0.381c0.257,0.047,0.427,0.293,0.381,0.55l-3.213,17.772
						C204.866,91.74,204.667,91.899,204.442,91.899z"/>
				</g>
			</g>
			<g>
				<g>
					<path style="fill:#1E1E1E;" d="M214.995,92.355c-0.064,0-0.126-0.013-0.188-0.04c-0.229-0.103-0.33-0.37-0.228-0.597
						l4.055-8.888c0.104-0.227,0.373-0.324,0.602-0.225c0.229,0.103,0.33,0.37,0.228,0.597l-4.055,8.888
						C215.332,92.256,215.167,92.355,214.995,92.355z"/>
				</g>
			</g>
			<g>
				<g>
					<path style="fill:#1E1E1E;" d="M127.909,91.474c0.766-3.21,1.689-6.39,2.844-9.495c1.141-3.108,2.47-6.165,4.129-9.061
						c3.268-5.748,7.901-11.159,14.266-13.886c3.146-1.358,6.606-1.972,10.014-1.909c3.428,0.058,6.782,0.799,9.974,1.879
						c6.408,2.184,12.155,5.757,17.504,9.696l2.251,1.658l-2.819,0.081c-4.251,0.122-8.606,0.802-12.77,1.968
						c-4.139,1.182-8.2,2.855-11.769,5.279c-3.604,2.369-6.692,5.519-8.936,9.237c-2.257,3.713-3.541,7.999-4.139,12.352
						c0.245-4.399,1.337-8.787,3.442-12.745c2.071-3.969,5.209-7.357,8.852-9.974c3.66-2.624,7.785-4.5,12.077-5.807
						c4.294-1.262,8.686-2.079,13.236-2.236l-0.567,1.739c-5.269-3.845-10.912-7.249-16.997-9.392
						c-3.041-1.056-6.208-1.742-9.383-1.847c-3.181-0.111-6.368,0.4-9.306,1.607c-2.945,1.195-5.619,3.023-7.943,5.275
						c-2.312,2.225-4.307,4.833-6.034,7.593C132.365,79.028,129.93,85.201,127.909,91.474z"/>
				</g>
			</g>
			<g>
				<g>
					<path style="fill:#1E1E1E;" d="M127.679,92.243l0.51,0.12c-0.16,0.28-0.32,0.58-0.48,0.87l-0.25-0.06
						c-0.25-0.06-0.41-0.32-0.35-0.57C127.169,92.344,127.429,92.194,127.679,92.243z"/>
				</g>
				<g>
					<path style="fill:#1E1E1E;" d="M149.129,97.614c0,0.03,0,0.05-0.01,0.08c-0.05,0.22-0.24,0.37-0.46,0.37
						c-0.02,0-0.04,0-0.06-0.01c-0.01,0-0.03-0.01-0.04-0.01l-9.75-2.25c-0.1-0.35-0.21-0.7-0.32-1.05l10.28,2.38
						C148.989,97.174,149.149,97.384,149.129,97.614z"/>
				</g>
			</g>
			<g>
				<g>
					<path style="fill:#1E1E1E;" d="M151.219,88.733c-0.14,0.28-0.27,0.57-0.38,0.86c-0.01,0-0.03,0-0.04-0.01l-18.36-9.6
						c-0.24-0.13-0.33-0.41-0.2-0.64c0.12-0.24,0.41-0.32,0.64-0.2L151.219,88.733z"/>
				</g>
			</g>
			<g>
				<g>
					<path style="fill:#1E1E1E;" d="M154.877,82.384c-0.136,0-0.271-0.057-0.364-0.17l-13.648-16.424
						c-0.167-0.2-0.139-0.498,0.062-0.666c0.2-0.164,0.5-0.139,0.667,0.062l13.648,16.423c0.167,0.201,0.139,0.5-0.062,0.667
						C155.092,82.349,154.985,82.384,154.877,82.384z"/>
				</g>
			</g>
			<g>
				<g>
					<path style="fill:#1E1E1E;" d="M163.533,76.014c-0.21,0-0.403-0.139-0.458-0.353l-4.557-17.476
						c-0.067-0.252,0.084-0.511,0.338-0.577c0.255-0.071,0.511,0.085,0.577,0.339l4.557,17.476c0.067,0.252-0.085,0.511-0.337,0.576
						C163.612,76.009,163.572,76.014,163.533,76.014z"/>
				</g>
			</g>
			<g>
				<g>
					<path style="fill:#1E1E1E;" d="M173.789,71.374v0.13c0,0.26-0.21,0.47-0.47,0.48c-0.22,0-0.41-0.15-0.46-0.35
						c-0.01-0.04-0.02-0.08-0.02-0.12l-0.1-10.04c0.32,0.15,0.64,0.3,0.96,0.45L173.789,71.374z"/>
				</g>
			</g>
			<g>
				<g>
					<path style="fill:#1E1E1E;" d="M256.678,165.409c3.145-6.241,5.182-13.057,5.546-19.991c0.374-6.923-0.92-13.89-3.763-20.175
						c-1.409-3.146-3.158-6.137-5.166-8.942c-2.04-2.785-4.299-5.403-6.694-7.895c-4.887-4.898-10.387-9.178-16.211-12.954
						l-0.923-0.599l0.719-0.798c6.618-7.341,14.422-13.375,22.973-18.178c8.544-4.783,17.931-8.135,27.647-9.545
						c4.864-0.67,9.791-0.745,14.67-0.408l3.654,0.347l3.62,0.595c1.212,0.166,2.398,0.465,3.586,0.752
						c1.183,0.303,2.388,0.522,3.55,0.895c9.367,2.773,18.16,7.216,26.092,12.786c-2.097-1.22-4.153-2.502-6.274-3.665l-3.224-1.666
						l-1.61-0.833l-1.66-0.729l-3.32-1.449c-1.109-0.474-2.265-0.832-3.394-1.254c-2.249-0.877-4.589-1.465-6.895-2.152
						c-1.153-0.344-2.346-0.531-3.517-0.805c-1.175-0.257-2.346-0.526-3.542-0.662l-3.567-0.506l-3.591-0.26
						c-4.791-0.233-9.599-0.026-14.337,0.693c-9.475,1.446-18.621,4.784-26.954,9.528c-4.175,2.363-8.139,5.087-11.921,8.037
						c-3.769,2.943-7.39,6.187-10.554,9.694l-0.204-1.396c5.885,3.877,11.458,8.274,16.422,13.322
						c2.443,2.562,4.736,5.274,6.753,8.193c2,2.929,3.734,6.045,5.113,9.314c2.756,6.529,4.019,13.731,3.348,20.772
						C262.416,152.515,260.155,159.339,256.678,165.409z"/>
				</g>
			</g>
			<g>
				<g>
					<path style="fill:#F5EFDB;" d="M158.402,80.357"/>
				</g>
			</g>
			<g>
				<path style="fill:#1E1E1E;" d="M364.3,277.4c-1.1,1.3-2.23,2.59-3.37,3.85c-3.4,3.74-7,7.31-10.8,10.66
					c-0.34,0.31-0.69,0.61-1.04,0.91c-2.56,2.21-5.21,4.31-7.95,6.3c-3.82,2.79-7.84,5.31-12.04,7.51
					c-0.03,0.02-0.06,0.04-0.09,0.04c-5.22,2.75-10.72,4.99-16.41,6.63c-10.29,2.97-21.25,3.8-31.9,2.33
					c-10.63-1.49-21.05-4.83-30.41-10.22c-2.15-1.24-4.25-2.59-6.26-4.05c-0.05-0.03-0.1-0.06-0.14-0.1v-0.01
					c-1.9-1.36-3.73-2.82-5.49-4.37c-0.03-0.02-0.06-0.04-0.08-0.07c-0.38-0.32-0.75-0.66-1.12-1c-0.02-0.01-0.04-0.03-0.06-0.05
					c-2.69-2.46-5.21-5.11-7.52-7.93c-0.13-0.15-0.25-0.3-0.37-0.45c-0.23-0.27-0.45-0.54-0.65-0.82c-0.13-0.15-0.25-0.31-0.36-0.46
					c-0.6-0.75-1.17-1.52-1.73-2.29c-3.19-4.44-5.94-9.16-8.29-14.07c-0.04-0.06-0.07-0.13-0.1-0.19c-2.24-4.71-4.12-9.6-5.68-14.56
					c-3.24-10.22-5.06-20.81-6.01-31.41c-0.48-5.32-0.69-10.64-0.65-15.97c0.02-2.49,0.08-4.97,0.21-7.45
					c-0.01-0.01-0.01-0.01,0-0.02c0.02-0.64,0.06-1.29,0.1-1.93c0.12-2.02,0.28-4.03,0.51-6.06c-8.08-7.57-16.23-15.08-24.27-22.71
					l-12.26-11.6l-12.22-11.64c3.23,2.81,6.44,5.63,9.65,8.46c0.48,0.42,0.95,0.84,1.42,1.26c2.67,2.35,5.33,4.71,8,7.07
					c0.48,0.42,0.96,0.84,1.44,1.27c1.6,1.42,3.21,2.84,4.82,4.26c1.29,1.13,2.57,2.27,3.85,3.41c0.49,0.43,0.98,0.86,1.46,1.3
					c2.62,2.32,5.22,4.66,7.83,7c0.47,0.41,0.93,0.83,1.4,1.25c3.54,3.17,7.08,6.35,10.63,9.52l0.19,0.17l0.18,0.16l-0.05,0.54
					c-0.05,0.53-0.09,1.05-0.12,1.58c-0.44,5.63-0.52,11.32-0.34,16.99c0.02,0.73,0.05,1.47,0.08,2.2
					c0.15,3.58,0.41,7.15,0.74,10.69c0.11,1.11,0.23,2.23,0.36,3.34c0.07,0.64,0.15,1.27,0.24,1.91c1.06,8.21,2.73,16.33,5.15,24.21
					c0.13,0.44,0.27,0.88,0.41,1.32c0.06,0.18,0.11,0.35,0.17,0.53c2.7,8.35,6.34,16.41,11.08,23.75c0.34,0.54,0.7,1.07,1.06,1.6
					c0.47,0.7,0.95,1.39,1.44,2.07c4.17,5.82,9.15,11.05,14.79,15.44c0.49,0.39,1,0.77,1.51,1.15c2.08,1.54,4.25,2.97,6.5,4.27
					c6.66,3.89,13.92,6.76,21.44,8.61c0.61,0.15,1.22,0.29,1.84,0.43c2,0.44,4.01,0.82,6.04,1.12c5.15,0.75,10.38,1.05,15.58,0.77
					c1.13-0.06,2.27-0.15,3.4-0.26c0.63-0.06,1.27-0.13,1.9-0.22c3.42-0.42,6.81-1.08,10.14-1.96c4.87-1.28,9.6-3.05,14.17-5.18
					c0.61-0.28,1.21-0.57,1.8-0.86c4.29-2.11,8.44-4.55,12.41-7.22c3-2.02,5.89-4.19,8.69-6.48c0.35-0.28,0.7-0.57,1.05-0.86
					c0.03-0.02,0.06-0.05,0.09-0.08c0.51-0.42,1.03-0.85,1.53-1.29c3.02-2.59,5.92-5.32,8.73-8.15
					C361.82,280.01,363.07,278.71,364.3,277.4z"/>
			</g>
			<g>
				<path style="fill:#1E1E1E;" d="M259.819,159.054c-7.197-2.832-14.384-5.696-21.497-8.736
					c-7.128-3.005-14.219-6.101-21.276-9.273c-7.065-3.154-14.079-6.423-21.06-9.759c-6.983-3.336-13.933-6.729-20.837-10.247
					l-0.055-0.028l-0.056-0.044l-9.147-7.203l-0.191-0.151l-0.072-0.263l-1.444-5.27c-0.464-1.764-0.98-3.503-1.576-5.219
					c-0.587-1.714-1.225-3.41-1.971-5.034c-0.746-1.595-1.594-3.255-2.731-4.303c-0.281-0.233-0.573-0.43-0.815-0.465l-0.178-0.041
					c-0.056,0.016-0.109,0.026-0.165,0.029c-0.112-0.03-0.228,0.106-0.351,0.131c-0.702,0.431-1.47,0.988-2.186,1.513
					c-1.452,1.074-2.87,2.212-4.266,3.377c-2.773,2.378-5.465,4.829-8.201,7.239l-0.268,0.236l-0.336,0l-0.26,0.001l-0.739,0.001
					l-0.136-0.737c-0.618-3.342-1.4-6.697-2.423-9.926c-0.524-1.605-1.104-3.202-1.866-4.645c-0.381-0.712-0.809-1.403-1.304-1.912
					c-0.245-0.239-0.505-0.461-0.735-0.536c-0.234-0.12-0.409-0.084-0.628-0.039c-0.226,0.086-0.456,0.241-0.738,0.489
					c-0.282,0.261-0.553,0.551-0.814,0.857c-0.522,0.612-1.001,1.288-1.452,1.987c-0.897,1.407-1.7,2.906-2.436,4.431
					c-1.476,3.063-2.743,6.249-3.908,9.468l-0.228,0.631l-0.673,0.001l-20.545,0.035l-20.545-0.021l-0.87-0.001l-0.096-0.865
					c-0.21-1.889-0.498-3.783-1.041-5.529c-0.276-0.854-0.616-1.718-1.088-2.3c-0.23-0.292-0.481-0.498-0.704-0.576
					c-0.218-0.082-0.463-0.062-0.777,0.056c-0.63,0.219-1.314,0.853-1.91,1.503c-0.603,0.672-1.15,1.434-1.679,2.207
					c-1.041,1.57-1.966,3.25-2.844,4.955l-0.263,0.511l-0.568-0.001l-1.4-0.002l-0.808-0.001l-0.113-0.799
					c-0.347-2.461-0.775-4.919-1.387-7.299c-0.31-1.185-0.664-2.363-1.141-3.429c-0.228-0.541-0.516-1.029-0.817-1.422
					c-0.154-0.195-0.312-0.331-0.446-0.42c-0.135-0.054-0.198-0.094-0.298-0.06c-0.196,0.036-0.611,0.308-0.926,0.762
					c-0.332,0.418-0.632,0.926-0.903,1.452c-0.542,1.057-1.007,2.195-1.416,3.358c-0.826,2.325-1.497,4.73-2.123,7.146l0.023-0.291
					l1.583,18.718l1.524,18.723l-0.873-0.681l46.168-7.163l0.245-0.038l0.187,0.168c3.531,3.181,7.353,6.107,11.344,8.731
					c3.998,2.616,8.214,4.931,12.678,6.636c4.448,1.684,9.226,2.777,13.994,2.339c4.792-0.359,8.865-2.912,12.884-5.808
					c-3.631,4.436-8.051,6.441-12.919,6.913c-4.832,0.526-10.114-0.331-14.641-1.958c-4.545-1.649-8.904-4.302-12.983-6.873
					c-4.073-2.594-7.421-6.005-11.056-9.223l0.431,0.13l-46.092,7.637l-0.799,0.132l-0.074-0.814l-1.706-18.707l-1.647-18.712
					l-0.013-0.148l0.036-0.143c0.627-2.452,1.298-4.898,2.147-7.314c0.421-1.209,0.902-2.408,1.502-3.588
					c0.304-0.59,0.639-1.175,1.085-1.743l0.348-0.422c0.138-0.137,0.293-0.27,0.443-0.402c0.132-0.137,0.348-0.249,0.547-0.359
					c0.184-0.121,0.435-0.192,0.697-0.24c0.25-0.075,0.528-0.029,0.797,0.006c0.273,0.033,0.477,0.169,0.71,0.269
					c0.398,0.245,0.703,0.54,0.942,0.837c0.468,0.598,0.808,1.212,1.075,1.825c0.553,1.229,0.923,2.468,1.255,3.712
					c0.648,2.488,1.09,4.991,1.454,7.505l-0.921-0.801l1.4-0.002l-0.831,0.51c0.894-1.75,1.837-3.482,2.937-5.153
					c0.564-0.83,1.147-1.652,1.839-2.429c0.715-0.756,1.452-1.551,2.657-2.023c0.58-0.231,1.364-0.334,2.069-0.074
					c0.701,0.249,1.198,0.721,1.569,1.181c0.745,0.943,1.098,1.938,1.429,2.916c0.615,1.965,0.91,3.932,1.138,5.897l-0.966-0.865
					l20.545-0.021l20.545,0.035l-0.901,0.632c1.194-3.262,2.488-6.49,4.018-9.637c0.769-1.576,1.601-3.123,2.563-4.621
					c0.486-0.748,1.008-1.482,1.607-2.18c0.3-0.349,0.619-0.69,0.97-1.013c0.364-0.321,0.835-0.687,1.429-0.886
					c0.599-0.186,1.341-0.175,1.889,0.093c0.583,0.229,0.984,0.599,1.351,0.956c0.704,0.737,1.175,1.539,1.607,2.342
					c0.843,1.615,1.434,3.277,1.975,4.949c1.048,3.351,1.823,6.731,2.448,10.172l-0.875-0.736l0.26,0l-0.603,0.236
					c2.767-2.422,5.501-4.893,8.296-7.273c1.419-1.176,2.863-2.327,4.359-3.425c0.763-0.553,1.478-1.076,2.336-1.601
					c0.304-0.125,0.563-0.323,0.925-0.34c0.172-0.024,0.345-0.041,0.517-0.053c0.167,0.013,0.331,0.051,0.496,0.083
					c0.661,0.141,1.141,0.5,1.558,0.846c1.549,1.474,2.346,3.195,3.139,4.895c0.764,1.712,1.399,3.456,1.98,5.211
					c0.589,1.751,1.096,3.529,1.546,5.312l1.404,5.341l-0.263-0.414l9.073,7.297l-0.111-0.072
					c13.697,7.141,27.621,13.885,41.613,20.457c6.997,3.288,14.031,6.499,21.104,9.622
					C245.573,153.03,252.689,156.058,259.819,159.054z"/>
			</g>
			<g>
				<path style="fill:#1E1E1E;" d="M423.029,82.544c1.628,3.431,3.078,6.95,4.391,10.518c1.323,3.564,2.571,7.161,3.697,10.798
					c2.237,7.277,4.09,14.685,5.449,22.196c2.751,14.996,3.723,30.464,1.768,45.717c-0.962,7.62-2.729,15.151-5.315,22.409
					c-2.596,7.26-6.155,14.157-10.516,20.507c-2.2,3.158-4.615,6.168-7.207,8.999c-2.581,2.847-5.37,5.497-8.315,7.949
					c-5.854,4.956-12.381,9.024-19.164,12.467l0.134-0.138c-0.733,1.346-1.549,2.63-2.339,3.935l-2.385,3.893l2.083-4.062
					c0.675-1.36,1.428-2.684,2.073-4.05l0.039-0.083l0.095-0.055c13.096-7.559,24.682-17.736,32.884-30.278
					c4.139-6.223,7.415-13.014,9.89-20.054c2.491-7.047,4.09-14.402,5.096-21.823c0.997-7.447,1.253-14.95,1.059-22.477
					c-0.234-7.514-0.996-15.023-2.115-22.482c-1.152-7.455-2.676-14.864-4.56-22.19C427.927,96.901,425.683,89.655,423.029,82.544z"
					/>
			</g>
			<g>
				<path style="fill:#1E1E1E;" d="M422.992,82.614c-0.01,0.12-1.083,10.569-1.093,10.689l-0.01,0.01
					c-1.91,16.89-5.63,33.71-12.16,49.54c-3.28,7.96-7.43,15.63-12.7,22.53c-5.27,6.86-11.82,12.92-19.62,16.92
					c-1.91,1.04-4.03,1.86-6.15,2.45c-2.12,0.61-4.29,0.93-6.46,1.21c-4.34,0.46-8.69,0.45-13,0.14
					c-8.63-0.63-17.13-2.16-25.48-4.21c-8.36-2.03-16.59-4.48-24.74-7.16c-1.65-0.56-3.3-1.12-4.94-1.69
					c-0.03-0.01-0.26-0.09-0.3-0.11c-6.36-2.22-12.67-4.56-18.92-7.06c6.14,2.09,12.29,4.16,18.47,6.1
					c0.06,0.02,0.12,0.04,0.19,0.06c0.39,0.13,0.78,0.25,1.18,0.36c0.06,0.03,0.13,0.05,0.2,0.07c1.46,0.46,2.94,0.9,4.41,1.34
					c5.71,1.73,11.45,3.36,17.23,4.8c0.23,0.07,0.46,0.12,0.68,0.18c0.08,0.02,0.15,0.04,0.22,0.05c0.2,0.05,0.4,0.1,0.6,0.15
					c2.02,0.49,4.04,0.97,6.07,1.41c5.29,1.14,10.62,2.19,15.98,2.94c0.32,0.05,0.63,0.09,0.95,0.13c0.01,0,0.02,0.01,0.03,0
					c0.25,0.04,0.49,0.07,0.74,0.1c2.51,0.32,5.02,0.57,7.54,0.73c4.05,0.26,8.11,0.24,12.11-0.18c0.19-0.01,0.37-0.03,0.56-0.05
					c0.21-0.03,0.42-0.05,0.62-0.09c0.12-0.01,0.24-0.02,0.36-0.05c3.85-0.53,7.56-1.53,10.94-3.4c7.51-3.79,13.9-9.59,19.1-16.25
					c5.01-6.45,8.95-13.68,12.32-21.14c0.1-0.21,0.2-0.43,0.29-0.65c0.04-0.08,0.08-0.15,0.11-0.23c0.01-0.02,0.02-0.05,0.03-0.07
					c0.13-0.29,0.26-0.58,0.38-0.88c2.86-6.6,5.18-13.44,7.13-20.38c0.06-0.19,0.11-0.39,0.16-0.59c0.05-0.13,0.08-0.27,0.12-0.41
					c0.09-0.3,0.17-0.6,0.24-0.9c0.1-0.32,0.18-0.65,0.27-0.97c2.23-8.12,3.89-16.4,5.23-24.73v-0.01
					C421.899,93.184,422.972,82.744,422.992,82.614z"/>
			</g>
			<g>
				<g>
					<path style="fill:#1E1E1E;" d="M69.673,110.911c0,0,5.405-10.701,7.021-9.692C78.309,102.229,78.204,110.509,69.673,110.911z"
						/>
				</g>
			</g>
			<g>
				<g>
					<path style="fill:#1E1E1E;" d="M64.802,110.554c0,0-0.148-11.99-2.043-11.795C60.863,98.957,57.317,106.441,64.802,110.554z"/>
				</g>
			</g>
			<g>
				<g>
					<path style="fill:#DBECCC;" d="M155.891,130.253"/>
				</g>
			</g>
			<path style="fill:#1E1E1E;" d="M336.709,80.904c-0.94-0.44-1.89-0.86-2.84-1.25c-0.01-0.01-0.03-0.02-0.04-0.02
				c-0.02-0.01-0.05-0.02-0.08-0.03c-2.83-1.16-5.72-2.1-8.65-2.93c-3.96-1.12-7.99-1.97-12.07-2.55
				c-8.15-1.16-16.46-1.15-24.61,0.01c-8.15,1.17-16.1,3.63-23.53,7.14c-7.41,3.6-14.29,8.22-20.48,13.61l-0.33,0.29l0.36,0.26
				c5.77,4.11,10.88,9.23,15.19,14.88c4.29,5.67,7.73,12.03,9.75,18.86c0.99,3.42,1.66,6.93,1.96,10.47
				c0.28,3.56,0.12,7.13-0.29,10.67c-1.01,7.07-3.35,13.92-6.61,20.28c3.34-6.32,5.77-13.15,6.87-20.24
				c0.46-3.55,0.66-7.15,0.43-10.73c-0.28-3.58-0.88-7.14-1.87-10.59c-2.02-6.91-5.46-13.34-9.76-19.09
				c-3.53-4.66-7.56-8.94-12.1-12.63c-0.73-0.6-1.47-1.18-2.22-1.74c-0.2-0.16-0.4-0.3-0.6-0.45c0.11-0.1,0.22-0.19,0.34-0.29
				c0.26-0.22,0.52-0.43,0.78-0.65c5.79-4.81,12.14-8.93,18.92-12.19c7.38-3.45,15.25-5.84,23.32-6.97
				c8.06-1.11,16.28-1.08,24.34,0.08c4.04,0.56,8.03,1.39,11.96,2.48c1.95,0.54,3.9,1.15,5.81,1.83h0.01
				c1.06,0.37,2.1,0.77,3.13,1.19c0,0,0.01,0,0.02,0.01c-0.01,0-0.01,0-0.02,0h-0.01c-2.54-0.2-5.08-0.31-7.63-0.24h-0.04
				c-1.59,0.05-3.19,0.16-4.79,0.36c-2.52,0.41-5.06,0.93-7.37,2.15c-0.57,0.32-1.11,0.69-1.66,1.03c-0.52,0.4-0.99,0.87-1.48,1.3
				c-0.4,0.52-0.84,1.02-1.18,1.58l-0.45,0.88l-0.22,0.44l-0.15,0.47c-0.86,2.5-0.7,5.19-0.14,7.68c0.57,2.51,1.54,4.89,2.66,7.17
				c1.95,3.89,4.32,7.52,6.99,10.94c0.35,0.46,0.7,0.91,1.07,1.35c-0.15,0.03-0.3,0.07-0.45,0.11
				c-4.57,1.12-9.568,2.331-13.398,5.161c-1.99,1.56-3.976,3.545-5.346,5.685c-1.38,2.14-2.395,4.722-2.885,7.212
				c-0.99,4.98-0.102,10.39,1.208,15.22c0.77,2.79,1.895,5.407,3.075,8.037c0.84,1.89,2.236,3.825,3.286,5.615
				c-0.14-0.04-0.28-0.08-0.42-0.11c-2.793-1.331-10.126-3.137-19.755-0.507c-1.153,0.214-2.247,0.634-3.366,0.978
				c-1.084,0.435-2.186,0.838-3.228,1.373c-2.104,1.021-4.114,2.24-5.948,3.686c-1.839,1.431-3.565,3.024-4.977,4.87
				c0.857-0.781,1.729-1.531,2.646-2.227c0.902-0.711,1.827-1.389,2.78-2.023c1.903-1.271,3.873-2.434,5.935-3.408
				c2.045-1.007,4.173-1.845,6.359-2.508c1.76-0.584,3.064-0.839,6.425-1.26c4.227-0.364,9.392,0.081,13.258,1.225
				c0.14,0.03,0.29,0.08,0.43,0.12l0.2,0.06l-0.1-0.18c-0.81-1.42-1.56-2.87-2.24-4.35c-1.43-3.05-2.58-6.23-3.44-9.48
				c-1.24-4.81-1.76-9.89-0.78-14.76c0.49-2.43,1.39-4.78,2.74-6.85c1.34-2.07,3.08-3.87,5.03-5.38c3.91-2.87,8.55-4.65,13.29-5.74
				c0.1-0.02,0.21-0.05,0.31-0.07l0.37-0.08l0.13-0.03l-0.08-0.11l-0.25-0.3c-0.11-0.14-0.23-0.28-0.33-0.42
				c-3.04-3.76-5.77-7.83-7.91-12.16c-1.1-2.25-2.03-4.59-2.57-7.02c-0.54-2.41-0.66-4.97,0.14-7.27l0.14-0.43l0.2-0.41l0.42-0.8
				c0.32-0.51,0.72-0.97,1.09-1.45c0.46-0.39,0.89-0.82,1.38-1.19c0.52-0.32,1.02-0.66,1.56-0.96c2.19-1.15,4.66-1.65,7.11-2.04
				c4.97-0.61,10.02-0.33,15.02,0.19l2.62,0.28L336.709,80.904z"/>
			<g>
				<g>
					<g>
						<path style="fill:#1E1E1E;" d="M319.879,115.284c-0.32-0.19-0.84-0.5-1.55-0.91c-7.96-4.6-39.48-21.47-69.94-19.94
							c10.3-3.69,44.36-14.72,77.73-14.06h0.04c2.46,0.04,4.91,0.15,7.35,0.34c0.09,0.01,0.19-0.03,0.28-0.1h0.01v-0.01
							c0.17-0.12,0.31-0.33,0.32-0.5c0.01-0.19-0.09-0.37-0.25-0.45c-0.01-0.01-0.03-0.02-0.04-0.02c-0.02-0.01-0.05-0.02-0.08-0.03
							c-0.02,0-0.04-0.01-0.07-0.01c-1-0.07-2-0.14-3.01-0.18h-0.01c-37.13-1.92-76.55,11.88-84.35,14.77
							c-0.86,0.32-1.34,0.5-1.38,0.52c-0.22,0.09-0.34,0.33-0.29,0.55c0.06,0.23,0.26,0.38,0.51,0.37c0.21-0.02,0.43-0.04,0.64-0.05
							c32.66-2.86,67.48,16.88,73.16,20.26c0.44,0.26,0.7,0.42,0.78,0.46c0.1-0.02,0.21-0.05,0.31-0.07l0.37-0.08
							c0.03-0.05,0.04-0.09,0.05-0.14L319.879,115.284z"/>
					</g>
				</g>
				<g>
					<g>
						<path style="fill:#1E1E1E;" d="M305.229,163.034l-0.2-0.06c-0.14-0.04-0.29-0.09-0.43-0.12c-0.04-0.06-0.08-0.13-0.13-0.2
							c-3.37-5.26-33.12-51.09-56.46-65.34c-1.05-0.65-2.09-1.23-3.12-1.74c-0.03-0.01-0.05-0.03-0.07-0.05
							c-0.05-0.04-0.08-0.07-0.11-0.12c-0.03-0.04-0.05-0.08-0.06-0.13c-0.01-0.04-0.02-0.08-0.02-0.12v-0.01
							c0-0.04,0.01-0.09,0.02-0.13c0.01-0.03,0.02-0.05,0.03-0.08c0.04-0.09,0.11-0.16,0.2-0.2c0.03-0.02,0.06-0.03,0.09-0.04
							c0.11-0.03,0.23-0.03,0.34,0.03c0.07,0.04,0.15,0.07,0.22,0.11c0.41,0.21,0.83,0.43,1.25,0.67
							c20.29,11.19,46,47.84,55.27,61.74c0.3,0.44,0.58,0.86,0.84,1.26c0.68,1.48,1.43,2.93,2.24,4.35L305.229,163.034z"/>
					</g>
				</g>
			</g>
			<g>
				<g>
					<g>
						<path style="fill:#1E1E1E;" d="M291.58,182.23c-0.96-0.91-2.19-1.35-3.42-1.35c-1.33,0-2.67,0.52-3.65,1.57
							c-1.89,2.01-1.79,5.18,0.22,7.07c0.96,0.91,2.19,1.35,3.42,1.35c1.34,0,2.67-0.52,3.65-1.57
							C293.69,187.29,293.59,184.12,291.58,182.23z M291.25,188.79c-1.6,1.71-4.3,1.79-6.01,0.18c-1.7-1.6-1.79-4.3-0.18-6.01
							c1.6-1.71,4.3-1.79,6.01-0.18C292.78,184.38,292.86,187.08,291.25,188.79z"/>
					</g>
				</g>
				<g>
					<g>
						<path style="fill:#1E1E1E;" d="M299.84,186.87c-0.61-0.57-1.39-0.85-2.16-0.85c-0.84,0-1.68,0.33-2.3,0.99
							c-1.2,1.27-1.13,3.27,0.14,4.46c0.59,0.56,1.35,0.86,2.16,0.86h0.1c0.84-0.03,1.62-0.38,2.2-0.99
							C301.17,190.07,301.11,188.06,299.84,186.87z M299.43,190.82c-0.44,0.47-1.03,0.74-1.68,0.76c-0.67,0.02-1.25-0.21-1.72-0.65
							c-0.97-0.91-1.02-2.44-0.11-3.41c0.91-0.97,2.44-1.01,3.41-0.1C300.29,188.33,300.34,189.86,299.43,190.82z"/>
					</g>
				</g>
				<g>
					<g>
						<path style="fill:#1E1E1E;" d="M282.24,178.5c-0.75-0.69-1.71-1.06-2.73-1.03c-1.02,0.03-1.97,0.46-2.67,1.2
							c-0.69,0.74-1.06,1.71-1.03,2.73c0.03,1.02,0.46,1.96,1.2,2.66c0.71,0.67,1.64,1.04,2.61,1.04h0.12
							c1.02-0.03,1.97-0.46,2.66-1.2c0.7-0.75,1.07-1.72,1.04-2.74C283.41,180.15,282.98,179.2,282.24,178.5z M281.86,183.38
							c-0.56,0.6-1.32,0.94-2.14,0.97c-0.84,0.02-1.6-0.27-2.19-0.83c-0.6-0.57-0.94-1.32-0.97-2.14v-0.08
							c0-0.79,0.29-1.54,0.83-2.11c0.56-0.6,1.32-0.94,2.14-0.97h0.1c0.78,0,1.52,0.29,2.09,0.83c0.6,0.56,0.94,1.32,0.97,2.14
							C282.71,182.01,282.42,182.79,281.86,183.38z"/>
					</g>
				</g>
				<g>
					<g>
						<path style="fill:#1E1E1E;" d="M290.23,173.05c-0.61-0.57-1.39-0.85-2.16-0.85c-0.84,0-1.69,0.33-2.31,0.99
							c-1.19,1.26-1.13,3.27,0.14,4.46c0.61,0.57,1.39,0.86,2.17,0.86c0.84,0,1.68-0.34,2.29-1c0.58-0.61,0.89-1.41,0.86-2.26
							C291.2,174.41,290.84,173.63,290.23,173.05z M289.82,177c-0.91,0.97-2.44,1.01-3.4,0.1c-0.97-0.91-1.02-2.43-0.11-3.4
							s2.44-1.02,3.4-0.11c0.47,0.45,0.74,1.04,0.76,1.69C290.49,175.92,290.26,176.53,289.82,177z"/>
					</g>
				</g>
				<g>
					<g>
						<path style="fill:#1E1E1E;" d="M292.68,192.97c-0.41-0.39-0.95-0.6-1.51-0.57c-0.57,0.01-1.1,0.25-1.49,0.66
							c-0.8,0.86-0.76,2.2,0.1,3c0.4,0.39,0.93,0.58,1.45,0.58c0.56,0,1.13-0.23,1.55-0.67
							C293.58,195.12,293.54,193.77,292.68,192.97z M292.23,195.46c-0.52,0.55-1.39,0.58-1.94,0.06c-0.29-0.27-0.43-0.64-0.43-1
							c0-0.34,0.12-0.68,0.37-0.94c0.25-0.27,0.59-0.42,0.96-0.43c0.01-0.01,0.03-0.01,0.04-0.01c0.35,0,0.69,0.14,0.94,0.38
							C292.72,194.03,292.75,194.91,292.23,195.46z"/>
					</g>
				</g>
				<g>
					<g>
						<path style="fill:#1E1E1E;" d="M282.68,186.76c-0.42-0.39-0.96-0.59-1.52-0.58c-0.57,0.02-1.1,0.26-1.49,0.67
							c-0.8,0.85-0.75,2.2,0.1,3c0.41,0.39,0.93,0.58,1.45,0.58c0.57,0,1.13-0.23,1.55-0.67
							C283.57,188.91,283.53,187.56,282.68,186.76z M282.22,189.24c-0.52,0.56-1.39,0.58-1.94,0.07c-0.29-0.27-0.43-0.64-0.43-1
							c0-0.34,0.12-0.68,0.37-0.94c0.25-0.27,0.59-0.43,0.96-0.44h0.04c0.35,0,0.69,0.13,0.94,0.38
							C282.71,187.82,282.74,188.69,282.22,189.24z"/>
					</g>
				</g>
				<g>
					<g>
						<path style="fill:#1E1E1E;" d="M282.18,170.99c-0.41-0.38-0.93-0.57-1.45-0.57c-0.57,0-1.13,0.22-1.55,0.66
							c-0.8,0.86-0.76,2.2,0.09,3.01c0.41,0.38,0.94,0.57,1.46,0.57c0.56,0,1.13-0.22,1.54-0.67
							C283.07,173.14,283.04,171.8,282.18,170.99z M281.73,173.48c-0.52,0.55-1.39,0.58-1.94,0.06c-0.55-0.52-0.58-1.39-0.06-1.94
							c0.52-0.55,1.39-0.58,1.94-0.06C282.22,172.06,282.25,172.93,281.73,173.48z"/>
					</g>
				</g>
			</g>
			<g>
				<g>
					<g>
						<path style="fill:#1E1E1E;" d="M243.33,163.95c-0.57-0.27-1.18-0.4-1.77-0.4c-1.54,0-3.02,0.86-3.73,2.35
							c-0.48,0.99-0.54,2.11-0.17,3.15c0.37,1.04,1.12,1.88,2.11,2.36c0.58,0.27,1.18,0.4,1.78,0.4c1.54,0,3.02-0.87,3.73-2.35
							C246.26,167.4,245.39,164.93,243.33,163.95z M244.6,169.14c-0.8,1.68-2.82,2.39-4.5,1.59c-0.82-0.39-1.43-1.07-1.73-1.93
							c-0.14-0.37-0.2-0.75-0.2-1.13c0-0.5,0.11-0.99,0.33-1.45c0.58-1.21,1.8-1.92,3.06-1.92c0.49,0,0.98,0.1,1.45,0.33
							C244.69,165.43,245.41,167.45,244.6,169.14z"/>
					</g>
				</g>
				<g>
					<g>
						<path style="fill:#1E1E1E;" d="M249.51,159.88c-0.24-0.66-0.72-1.19-1.35-1.49c-0.36-0.17-0.75-0.25-1.13-0.25
							c-0.99,0-1.93,0.54-2.38,1.49c-0.31,0.64-0.34,1.35-0.11,2.01c0.24,0.67,0.71,1.2,1.35,1.5c0.36,0.18,0.75,0.26,1.13,0.26
							c0.98,0,1.93-0.55,2.38-1.5C249.71,161.26,249.74,160.55,249.51,159.88z M248.73,161.58c-0.45,0.93-1.58,1.33-2.52,0.89
							c-0.45-0.22-0.79-0.6-0.96-1.08c-0.07-0.2-0.11-0.42-0.11-0.63c0-0.27,0.06-0.55,0.18-0.81c0.33-0.67,1-1.07,1.71-1.07
							c0.27,0,0.55,0.06,0.81,0.19c0.45,0.21,0.79,0.59,0.96,1.07C248.97,160.61,248.94,161.12,248.73,161.58z"/>
					</g>
				</g>
				<g>
					<g>
						<path style="fill:#1E1E1E;" d="M252.21,167c-0.23-0.67-0.71-1.2-1.35-1.5c-0.37-0.18-0.75-0.26-1.13-0.26
							c-0.98,0-1.93,0.56-2.38,1.5c-0.62,1.31-0.07,2.89,1.24,3.51c0.37,0.17,0.75,0.26,1.14,0.26c0.3,0,0.59-0.05,0.88-0.15
							c0.66-0.24,1.19-0.72,1.5-1.35C252.41,168.37,252.45,167.66,252.21,167z M251.43,168.68c-0.22,0.46-0.6,0.8-1.07,0.97
							c-0.47,0.17-0.99,0.14-1.44-0.08c-0.94-0.44-1.34-1.57-0.89-2.51c0.45-0.93,1.57-1.33,2.51-0.89c0.46,0.22,0.8,0.6,0.97,1.08
							C251.67,167.72,251.65,168.23,251.43,168.68z"/>
					</g>
				</g>
				<g>
					<g>
						<path style="fill:#1E1E1E;" d="M236.81,165.18c-0.28-0.8-0.86-1.44-1.62-1.8c-0.44-0.21-0.9-0.31-1.36-0.31
							c-1.18,0-2.32,0.67-2.87,1.8c-0.36,0.77-0.4,1.62-0.12,2.42c0.28,0.8,0.86,1.44,1.62,1.8c0.44,0.21,0.9,0.31,1.36,0.31
							c1.18,0,2.32-0.66,2.86-1.8C237.05,166.83,237.09,165.98,236.81,165.18z M236.01,167.28c-0.58,1.2-2.03,1.71-3.23,1.14
							c-0.58-0.28-1.02-0.77-1.24-1.38c-0.21-0.61-0.18-1.26,0.1-1.84c0.58-1.21,2.02-1.72,3.22-1.14c0.59,0.27,1.03,0.76,1.24,1.37
							C236.32,166.04,236.28,166.69,236.01,167.28z"/>
					</g>
				</g>
				<g>
					<g>
						<path style="fill:#1E1E1E;" d="M241.37,158.68c-0.24-0.66-0.72-1.19-1.35-1.5c-0.36-0.17-0.75-0.25-1.12-0.25
							c-0.99,0-1.94,0.55-2.4,1.5c-0.62,1.31-0.06,2.88,1.25,3.51c0.36,0.17,0.75,0.26,1.13,0.26c0.3,0,0.59-0.05,0.88-0.15
							c0.66-0.24,1.2-0.72,1.5-1.35C241.56,160.06,241.6,159.35,241.37,158.68z M240.58,160.37c-0.21,0.46-0.59,0.8-1.07,0.97
							c-0.47,0.17-0.98,0.14-1.44-0.08c-0.94-0.44-1.34-1.57-0.89-2.51c0.45-0.94,1.58-1.33,2.51-0.89
							C240.63,158.31,241.03,159.44,240.58,160.37z"/>
					</g>
				</g>
				<g>
					<g>
						<path style="fill:#1E1E1E;" d="M237.61,171.91c-0.43-0.2-0.92-0.23-1.37-0.07c-0.45,0.16-0.81,0.49-1.02,0.92
							c-0.2,0.43-0.23,0.92-0.07,1.37c0.16,0.45,0.49,0.81,0.92,1.02c0.24,0.12,0.51,0.18,0.77,0.18c0.2,0,0.4-0.04,0.6-0.11
							c0.45-0.16,0.81-0.48,1.02-0.92C238.89,173.41,238.51,172.34,237.61,171.91z M237.79,173.98c-0.13,0.25-0.34,0.44-0.6,0.54
							c-0.26,0.09-0.55,0.07-0.8-0.05s-0.44-0.33-0.53-0.59c-0.04-0.11-0.06-0.23-0.06-0.35c0-0.16,0.03-0.31,0.1-0.45
							c0.12-0.25,0.33-0.44,0.59-0.53c0.12-0.04,0.24-0.06,0.35-0.06c0.16,0,0.31,0.03,0.45,0.1
							C237.81,172.84,238.03,173.46,237.79,173.98z"/>
					</g>
				</g>
				<g>
					<g>
						<path style="fill:#1E1E1E;" d="M234.21,158.6c-0.16-0.45-0.49-0.81-0.92-1.02c-0.43-0.2-0.92-0.23-1.37-0.07
							c-0.46,0.16-0.82,0.49-1.02,0.92c-0.21,0.43-0.23,0.92-0.08,1.37c0.16,0.45,0.49,0.81,0.92,1.02
							c0.25,0.12,0.51,0.17,0.77,0.17c0.67,0,1.32-0.37,1.62-1.01C234.34,159.54,234.37,159.06,234.21,158.6z M233.46,159.65
							c-0.25,0.52-0.87,0.74-1.39,0.49c-0.26-0.12-0.44-0.33-0.54-0.59c-0.04-0.11-0.06-0.23-0.06-0.35c0-0.15,0.03-0.3,0.1-0.45
							c0.12-0.25,0.33-0.44,0.6-0.53c0.11-0.04,0.23-0.06,0.35-0.06c0.15,0,0.3,0.03,0.45,0.1c0.25,0.12,0.44,0.33,0.53,0.59
							C233.59,159.12,233.58,159.4,233.46,159.65z"/>
					</g>
				</g>
			</g>
			<g>
				<g>
					<g>
						<path style="fill:#1E1E1E;" d="M408.38,161.61c-1-0.45-2.12-0.49-3.16-0.11c-1.03,0.38-1.85,1.15-2.31,2.15
							s-0.5,2.13-0.12,3.16c0.39,1.03,1.15,1.86,2.15,2.31c0.56,0.26,1.14,0.38,1.72,0.38c1.56,0,3.07-0.9,3.76-2.41
							c0.25-0.55,0.37-1.14,0.37-1.71C410.79,163.81,409.9,162.31,408.38,161.61z M409.74,166.78c-0.78,1.69-2.79,2.44-4.48,1.66
							c-0.82-0.37-1.45-1.05-1.76-1.89c-0.32-0.85-0.29-1.77,0.09-2.59c0.38-0.82,1.05-1.44,1.89-1.76
							c0.39-0.14,0.79-0.21,1.19-0.21c0.47,0,0.95,0.1,1.4,0.31C409.76,163.07,410.51,165.08,409.74,166.78z"/>
					</g>
				</g>
				<g>
					<g>
						<path style="fill:#1E1E1E;" d="M416.13,169.8c-0.25-0.65-0.73-1.18-1.37-1.47c-0.64-0.29-1.36-0.31-2.01-0.07
							c-0.67,0.24-1.19,0.73-1.48,1.37c-0.3,0.64-0.32,1.36-0.08,2.02c0.25,0.66,0.74,1.18,1.38,1.47c0.35,0.16,0.72,0.24,1.09,0.24
							c0.31,0,0.62-0.05,0.92-0.16c0.66-0.25,1.19-0.74,1.48-1.38C416.35,171.18,416.38,170.46,416.13,169.8z M415.38,171.51
							c-0.21,0.46-0.59,0.81-1.06,0.99c-0.47,0.17-0.99,0.15-1.44-0.06c-0.46-0.21-0.81-0.58-0.98-1.05
							c-0.18-0.47-0.16-0.99,0.05-1.45c0.21-0.45,0.58-0.8,1.06-0.98c0.21-0.08,0.43-0.12,0.65-0.12c0.27,0,0.54,0.06,0.79,0.18
							c0.45,0.2,0.8,0.58,0.98,1.05C415.6,170.54,415.58,171.05,415.38,171.51z"/>
					</g>
				</g>
				<g>
					<g>
						<path style="fill:#1E1E1E;" d="M409.07,172.63c-0.25-0.66-0.74-1.18-1.38-1.48c-0.64-0.29-1.35-0.32-2.01-0.07
							c-0.66,0.24-1.18,0.73-1.48,1.37c-0.6,1.32-0.02,2.89,1.3,3.49c0.35,0.16,0.72,0.24,1.1,0.24c0.31,0,0.62-0.05,0.92-0.16
							c0.65-0.25,1.18-0.74,1.47-1.38C409.29,174,409.31,173.29,409.07,172.63z M408.31,174.33c-0.21,0.46-0.58,0.81-1.06,0.99
							c-0.47,0.17-0.98,0.15-1.44-0.06c-0.94-0.43-1.36-1.55-0.92-2.5c0.21-0.45,0.58-0.8,1.05-0.98c0.22-0.08,0.44-0.12,0.66-0.12
							c0.27,0,0.53,0.06,0.78,0.17c0.46,0.21,0.81,0.59,0.98,1.06C408.54,173.36,408.52,173.87,408.31,174.33z"/>
					</g>
				</g>
				<g>
					<g>
						<path style="fill:#1E1E1E;" d="M410.95,156.51c-0.3-0.79-0.88-1.42-1.65-1.77c-0.77-0.35-1.63-0.39-2.42-0.09
							c-0.8,0.29-1.43,0.88-1.78,1.65s-0.38,1.63-0.09,2.42c0.3,0.79,0.88,1.42,1.65,1.78c0.43,0.19,0.87,0.28,1.31,0.28
							c1.2,0,2.36-0.68,2.89-1.84C411.21,158.17,411.24,157.31,410.95,156.51z M410.18,158.62c-0.56,1.21-1.99,1.75-3.21,1.19
							c-0.58-0.26-1.03-0.75-1.26-1.35c-0.22-0.61-0.2-1.26,0.07-1.85s0.75-1.03,1.36-1.26c0.27-0.1,0.56-0.15,0.84-0.15
							c0.34,0,0.69,0.07,1,0.22c0.59,0.27,1.04,0.75,1.27,1.36C410.47,157.38,410.45,158.04,410.18,158.62z"/>
					</g>
				</g>
				<g>
					<g>
						<path style="fill:#1E1E1E;" d="M415.83,160.17c-1.32-0.6-2.89-0.02-3.49,1.3c-0.29,0.65-0.32,1.36-0.07,2.02
							c0.24,0.66,0.73,1.18,1.37,1.47c0.35,0.16,0.72,0.24,1.1,0.24c0.3,0,0.61-0.05,0.91-0.16c0.66-0.25,1.19-0.74,1.48-1.38
							c0.16-0.35,0.24-0.72,0.24-1.08C417.37,161.58,416.8,160.62,415.83,160.17z M416.45,163.35c-0.21,0.46-0.59,0.81-1.06,0.99
							c-0.47,0.17-0.98,0.15-1.44-0.06c-0.46-0.21-0.81-0.58-0.98-1.05c-0.18-0.47-0.16-0.99,0.05-1.44c0.32-0.7,1-1.11,1.72-1.11
							c0.26,0,0.52,0.06,0.78,0.17C416.46,161.29,416.88,162.41,416.45,163.35z"/>
					</g>
				</g>
				<g>
					<g>
						<path style="fill:#1E1E1E;" d="M401.56,168.34c-0.9-0.4-1.96-0.01-2.38,0.89c-0.2,0.43-0.21,0.92-0.05,1.37
							c0.17,0.45,0.5,0.81,0.94,1.01c0.24,0.11,0.49,0.16,0.74,0.16c0.68,0,1.33-0.39,1.64-1.05c0.11-0.24,0.16-0.49,0.16-0.74
							C402.61,169.3,402.22,168.65,401.56,168.34z M401.77,170.41c-0.25,0.52-0.87,0.75-1.39,0.52c-0.25-0.12-0.45-0.33-0.54-0.59
							c-0.1-0.26-0.09-0.55,0.03-0.8c0.17-0.38,0.55-0.61,0.95-0.61c0.14,0,0.29,0.03,0.43,0.1
							C401.77,169.27,402,169.89,401.77,170.41z"/>
					</g>
				</g>
				<g>
					<g>
						<path style="fill:#1E1E1E;" d="M404.68,160.04c-0.17-0.45-0.5-0.81-0.94-1.01c-0.9-0.41-1.96-0.01-2.37,0.89
							c-0.42,0.9-0.02,1.97,0.88,2.38c0.24,0.11,0.49,0.16,0.74,0.16c0.68,0,1.34-0.39,1.64-1.05
							C404.83,160.98,404.84,160.49,404.68,160.04z M403.94,161.1c-0.23,0.52-0.85,0.75-1.38,0.52c-0.52-0.24-0.75-0.87-0.51-1.39
							c0.17-0.38,0.55-0.61,0.95-0.61c0.14,0,0.29,0.03,0.43,0.1c0.25,0.11,0.45,0.32,0.55,0.58
							C404.07,160.56,404.06,160.85,403.94,161.1z"/>
					</g>
				</g>
				<g>
					<g>
						<path style="fill:#1E1E1E;" d="M415.74,154.57c-0.44-0.2-0.92-0.22-1.37-0.05c-0.45,0.16-0.81,0.49-1.01,0.93
							c-0.41,0.9-0.01,1.97,0.89,2.38c0.23,0.11,0.49,0.16,0.74,0.16c0.21,0,0.43-0.04,0.63-0.11c0.45-0.17,0.8-0.5,1-0.94
							c0.11-0.24,0.17-0.49,0.17-0.74C416.79,155.52,416.4,154.87,415.74,154.57z M415.94,156.63c-0.11,0.26-0.32,0.45-0.58,0.55
							c-0.27,0.09-0.55,0.08-0.8-0.03c-0.52-0.24-0.76-0.87-0.52-1.39c0.12-0.25,0.33-0.44,0.59-0.54c0.12-0.05,0.24-0.07,0.36-0.07
							c0.15,0,0.3,0.03,0.43,0.1C415.95,155.49,416.18,156.11,415.94,156.63z"/>
					</g>
				</g>
			</g>
			<g>
				<g>
					<path style="fill:#1E1E1E;" d="M171.729,152.053l-0.61,0.84l-2.28,3.15c-0.03,0.04-0.06,0.08-0.11,0.11l-1.39-1.27l2.06-2.85
						l0.53-0.73L171.729,152.053z"/>
				</g>
			</g>
			<g>
				<g>
					<polygon style="fill:#1E1E1E;" points="183.089,156.784 182.079,158.374 178.079,164.704 176.659,163.404 180.389,157.524 
						181.319,156.053 					"/>
				</g>
			</g>
			<g>
				<g>
					<polygon style="fill:#1E1E1E;" points="194.619,161.594 193.349,164.014 188.139,173.904 186.689,172.574 191.649,163.164 
						192.859,160.863 					"/>
				</g>
			</g>
			<g>
				<g>
					<path style="fill:#1E1E1E;" d="M207.919,167.109l-2.124,2.986l-8.24,11.605c-0.02,0.029-0.049,0.058-0.079,0.087
						c-0.168,0.193-0.435,0.3-0.692,0.3c-0.178,0-0.366-0.048-0.533-0.164c-0.425-0.29-0.524-0.86-0.227-1.275l0.069-0.097
						l8.013-11.277l2.045-2.88L207.919,167.109z"/>
				</g>
			</g>
			<g>
				<g>
					<path style="fill:#1E1E1E;" d="M207.434,194.218c-0.268,0,0.081-0.743-0.101-0.958c-0.32-0.38-0.26-0.937,0.134-1.246
						l19.42-15.214c0.396-0.309,0.974-0.251,1.294,0.129c0.32,0.378,0.26,0.936-0.134,1.246l-19.42,15.213
						C208.457,193.521,207.639,194.218,207.434,194.218z"/>
				</g>
			</g>
			<g>
				<g>
					<path style="fill:#1E1E1E;" d="M225.209,201.964l-18.09,11.42c-0.01,0.01-0.03,0.01-0.04,0.02c-0.03-0.75-0.05-1.49-0.07-2.2
						l17.19-10.84c0.44-0.28,1.03-0.14,1.31,0.3S225.659,201.684,225.209,201.964z"/>
				</g>
			</g>
			<g>
				<g>
					<path style="fill:#1E1E1E;" d="M120.736,105.35c3.422-0.417,6.846-0.532,10.271-0.572c3.425-0.01,7.007,0.424,10.434,0.796
						c-3.422,0.42-7.003,0.165-10.427,0.203C127.589,105.785,124.164,105.719,120.736,105.35z"/>
				</g>
			</g>
			<g>
				<g>
					<path style="fill:#1E1E1E;" d="M226.099,224.044l-4.03,1.11l-13.74,3.79c-0.09-0.64-0.17-1.28-0.23-1.91l13.98-3.85l3.98-1.09
						C226.069,222.743,226.079,223.394,226.099,224.044z"/>
				</g>
			</g>
			<g>
				<g>
					<path style="fill:#1E1E1E;" d="M228.699,245.484c0.14,0.64,0.3,1.26,0.46,1.9l-3.92,2.06l-11.18,5.88
						c-0.2-0.61-0.39-1.23-0.58-1.84l11.25-5.92L228.699,245.484z"/>
				</g>
				<g>
					<path style="fill:#1E1E1E;" d="M255.419,233.574l-0.7,0.37l-9.24,4.86l-3.7,1.94l1.03-2.68l3.56-1.87l7.34-3.86l0.83-0.44
						c0.46-0.24,1.03-0.06,1.28,0.4C256.059,232.754,255.879,233.324,255.419,233.574z"/>
				</g>
			</g>
			<g>
				<g>
					<path style="fill:#1E1E1E;" d="M264.079,244.524l-37.68,36.53c-0.36-0.53-0.71-1.06-1.06-1.6l37.43-36.29
						c0.37-0.36,0.97-0.35,1.33,0.02C264.469,243.564,264.459,244.164,264.079,244.524z"/>
				</g>
			</g>
			<g>
				<g>
					<path style="fill:#1E1E1E;" d="M277.259,253.294l-32.86,46.54c-0.51-0.37-1.01-0.75-1.51-1.14l32.83-46.49
						c0.3-0.43,0.89-0.53,1.32-0.23C277.459,252.274,277.559,252.863,277.259,253.294z"/>
				</g>
			</g>
			<g>
				<g>
					<path style="fill:#1E1E1E;" d="M289.369,259.754l-14.7,53.48c-0.61-0.13-1.23-0.27-1.84-0.42l14.72-53.56
						c0.13-0.51,0.66-0.8,1.16-0.67C289.219,258.724,289.509,259.243,289.369,259.754z"/>
				</g>
			</g>
			<g>
				<g>
					<path style="fill:#1E1E1E;" d="M303.659,263.854l-1.76,50.63c-0.63,0.08-1.26,0.16-1.9,0.23l1.77-50.93
						c0.02-0.52,0.41-0.94,0.98-0.91C303.269,262.894,303.679,263.334,303.659,263.854z"/>
				</g>
			</g>
			<g>
				<g>
					<path style="fill:#1E1E1E;" d="M328.149,306.224c-0.59,0.3-1.19,0.6-1.8,0.88l-3.2-27.76l-0.62-5.42
						c-0.05-0.44,0.2-0.84,0.59-0.98c0.4,0.18,0.81,0.36,1.23,0.53c0.03,0.08,0.05,0.16,0.06,0.24l0.71,6.18L328.149,306.224z"/>
				</g>
			</g>
			<g>
				<g>
					<path style="fill:#1E1E1E;" d="M351.959,289.794c-0.5,0.44-1,0.89-1.51,1.33l-3.58-8.9l-1.82-4.52
						c0.68,0.03,1.36,0.05,2.06,0.06l1.78,4.41L351.959,289.794z"/>
				</g>
			</g>
			<g>
				<g>
					<path style="fill:#1E1E1E;" d="M388.499,243.363c-0.28,0.16-0.55,0.31-0.83,0.46c0,0-0.15,0.3-0.43,0.83
						c-0.05-0.02-0.09-0.05-0.14-0.08l-10.88-8.31c-0.41-0.31-0.49-0.91-0.18-1.32c0.32-0.42,0.92-0.5,1.33-0.18l10.88,8.3
						C388.359,243.144,388.439,243.254,388.499,243.363z"/>
				</g>
			</g>
			<g>
				<g>
					<path style="fill:#1E1E1E;" d="M405.014,232.01c-0.249,0-0.497-0.099-0.683-0.294l-11.226-11.751
						c-0.361-0.379-0.347-0.979,0.031-1.338c0.376-0.364,0.976-0.349,1.338,0.029l11.225,11.753c0.362,0.378,0.348,0.977-0.03,1.338
						C405.484,231.923,405.249,232.01,405.014,232.01z"/>
				</g>
			</g>
			<g>
				<g>
					<path style="fill:#1E1E1E;" d="M419.309,217.004c-0.37,0.51-0.75,1.01-1.15,1.52l-15.08-8.96c-0.45-0.27-0.6-0.85-0.33-1.3
						s0.85-0.6,1.3-0.33L419.309,217.004z"/>
				</g>
			</g>
			<g>
				<g>
					<path style="fill:#1E1E1E;" d="M429.589,199.004c-0.25,0.58-0.51,1.16-0.77,1.74l-15.2-6.32c-0.48-0.2-0.71-0.76-0.51-1.24
						c0.2-0.48,0.76-0.71,1.24-0.51L429.589,199.004z"/>
				</g>
			</g>
			<g>
				<g>
					<path style="fill:#1E1E1E;" d="M435.599,179.274c-0.12,0.62-0.25,1.24-0.39,1.86l-14.02-1.35c-0.52-0.04-0.91-0.51-0.86-1.03
						c0.05-0.52,0.5-0.92,1.04-0.85L435.599,179.274z"/>
				</g>
			</g>
			<g>
				<g>
					<path style="fill:#1E1E1E;" d="M437.609,163.954c-0.04,0.64-0.08,1.27-0.14,1.91l-10.75,0.93c-0.03,0-0.05,0.01-0.08,0.01
						c-0.49,0-0.9-0.38-0.94-0.87c-0.05-0.52,0.34-0.98,0.86-1.02L437.609,163.954z"/>
				</g>
			</g>
			<g>
				<g>
					<path style="fill:#D78E1C;" d="M430.599,150.866c-0.256,0-0.492-0.104-0.673-0.274c-0.178-0.18-0.274-0.426-0.274-0.672
						s0.096-0.492,0.274-0.672c0.351-0.352,0.994-0.352,1.336,0c0.18,0.18,0.284,0.426,0.284,0.672s-0.104,0.492-0.284,0.672
						C431.092,150.763,430.844,150.866,430.599,150.866z"/>
				</g>
			</g>
			<g>
				<g>
					<path style="fill:#1E1E1E;" d="M437.899,150.863h-7.3c-0.53,0-0.95-0.42-0.95-0.94c0-0.53,0.42-0.95,0.95-0.95h7.24
						C437.859,149.604,437.879,150.234,437.899,150.863z"/>
				</g>
			</g>
			<g>
				<g>
					<g>
						<path style="fill:#1E1E1E;" d="M330.58,250.18c-0.57-0.16-1.15-0.24-1.71-0.24c-2.79,0-5.36,1.85-6.15,4.66
							c-0.95,3.39,1.04,6.92,4.42,7.86c0.57,0.16,1.15,0.24,1.72,0.24c2.79,0,5.36-1.85,6.14-4.66
							C335.95,254.65,333.96,251.12,330.58,250.18z M334.28,257.83c-0.84,2.99-3.95,4.74-6.94,3.91c-2.98-0.84-4.74-3.95-3.9-6.94
							s3.95-4.74,6.94-3.9C333.36,251.73,335.12,254.84,334.28,257.83z"/>
					</g>
				</g>
				<g>
					<g>
						<path style="fill:#1E1E1E;" d="M339.05,241.97c-0.52-0.92-1.38-1.59-2.4-1.88c-2.12-0.59-4.32,0.65-4.91,2.77
							c-0.29,1.02-0.16,2.1,0.36,3.03c0.53,0.92,1.38,1.59,2.4,1.88c0.36,0.1,0.72,0.15,1.08,0.15c0.68,0,1.35-0.17,1.95-0.51
							c0.93-0.53,1.6-1.38,1.89-2.4C339.7,243.98,339.57,242.9,339.05,241.97z M338.69,244.8c-0.23,0.84-0.77,1.53-1.53,1.95
							c-0.75,0.43-1.62,0.53-2.45,0.3c-0.84-0.23-1.53-0.78-1.95-1.53c-0.28-0.49-0.42-1.03-0.42-1.58c0-0.3,0.04-0.59,0.12-0.88
							c0.4-1.43,1.7-2.36,3.12-2.36c0.28,0,0.58,0.03,0.87,0.12c0.83,0.23,1.52,0.77,1.95,1.52
							C338.82,243.1,338.93,243.97,338.69,244.8z"/>
					</g>
				</g>
				<g>
					<g>
						<path style="fill:#1E1E1E;" d="M345.26,252.43c-0.52-0.93-1.37-1.6-2.4-1.89c-2.11-0.59-4.32,0.65-4.91,2.77
							c-0.29,1.02-0.16,2.1,0.37,3.03c0.52,0.92,1.37,1.59,2.4,1.88c0.36,0.1,0.72,0.15,1.08,0.15c0.68,0,1.34-0.17,1.95-0.51
							c0.92-0.53,1.59-1.38,1.88-2.4C345.92,254.43,345.79,253.35,345.26,252.43z M344.91,255.25c-0.24,0.84-0.78,1.53-1.53,1.95
							c-0.75,0.43-1.63,0.53-2.46,0.3c-0.83-0.24-1.53-0.78-1.95-1.53c-0.28-0.49-0.42-1.03-0.42-1.58c0-0.3,0.04-0.59,0.12-0.88
							c0.4-1.43,1.71-2.36,3.12-2.36c0.29,0,0.58,0.03,0.87,0.12c0.83,0.23,1.53,0.77,1.95,1.53
							C345.03,253.55,345.14,254.42,344.91,255.25z"/>
					</g>
				</g>
				<g>
					<g>
						<path style="fill:#1E1E1E;" d="M320.5,253.8c-0.63-1.12-1.66-1.94-2.91-2.28c-0.44-0.12-0.87-0.18-1.31-0.18
							c-2.11,0-4.05,1.4-4.65,3.53c-0.35,1.25-0.19,2.55,0.45,3.68c0.63,1.12,1.67,1.93,2.91,2.28c0.43,0.12,0.87,0.18,1.31,0.18
							c0.82,0,1.63-0.21,2.36-0.62c1.13-0.64,1.94-1.67,2.29-2.92C321.3,256.23,321.14,254.93,320.5,253.8z M320.23,257.27
							c-0.61,2.17-2.87,3.45-5.04,2.84c-1.05-0.3-1.92-0.98-2.46-1.93c-0.54-0.95-0.67-2.06-0.38-3.11
							c0.61-2.17,2.87-3.44,5.04-2.83c1.05,0.29,1.93,0.98,2.46,1.93C320.39,255.12,320.52,256.22,320.23,257.27z"/>
					</g>
				</g>
				<g>
					<g>
						<path style="fill:#1E1E1E;" d="M325.9,242.32c-0.52-0.93-1.38-1.6-2.4-1.89c-1.03-0.28-2.1-0.15-3.03,0.37s-1.6,1.38-1.89,2.4
							c-0.28,1.03-0.15,2.1,0.37,3.03c0.52,0.93,1.38,1.6,2.4,1.88c0.36,0.1,0.72,0.15,1.08,0.15c0.68,0,1.35-0.17,1.95-0.51
							c0.93-0.53,1.6-1.38,1.88-2.4C326.55,244.32,326.42,243.24,325.9,242.32z M325.54,245.15c-0.23,0.83-0.77,1.52-1.53,1.94
							c-0.75,0.43-1.62,0.53-2.46,0.3c-0.83-0.23-1.52-0.78-1.95-1.53c-0.27-0.49-0.42-1.03-0.42-1.57c0-0.3,0.05-0.6,0.13-0.89
							c0.23-0.83,0.77-1.52,1.53-1.95c0.49-0.27,1.03-0.41,1.58-0.41c0.29,0,0.59,0.04,0.88,0.12c0.83,0.23,1.52,0.77,1.94,1.53
							C325.67,243.44,325.77,244.31,325.54,245.15z"/>
					</g>
				</g>
				<g>
					<g>
						<path style="fill:#1E1E1E;" d="M338.3,261.86c-0.24-0.07-0.47-0.1-0.71-0.1c-1.15,0-2.22,0.77-2.54,1.94
							c-0.39,1.4,0.43,2.86,1.83,3.25c0.24,0.07,0.47,0.1,0.71,0.1c1.15,0,2.22-0.77,2.55-1.93
							C340.53,263.72,339.71,262.25,338.3,261.86z M339.42,264.92c-0.29,1-1.33,1.59-2.34,1.31c-1-0.28-1.59-1.33-1.31-2.33
							c0.28-1.01,1.33-1.6,2.33-1.32C339.11,262.86,339.7,263.91,339.42,264.92z"/>
					</g>
				</g>
				<g>
					<g>
						<path style="fill:#1E1E1E;" d="M323.06,260.74c-0.68-0.19-1.39-0.1-2.01,0.24c-0.61,0.35-1.06,0.91-1.25,1.59
							s-0.1,1.4,0.25,2.01c0.34,0.62,0.91,1.06,1.59,1.25c0.23,0.06,0.47,0.1,0.71,0.1c0.45,0,0.9-0.12,1.3-0.34
							c0.61-0.35,1.05-0.92,1.24-1.6C325.28,262.59,324.46,261.13,323.06,260.74z M324.17,263.79c-0.13,0.49-0.45,0.89-0.89,1.14
							s-0.95,0.31-1.44,0.18c-0.49-0.14-0.89-0.46-1.14-0.9c-0.16-0.28-0.24-0.6-0.24-0.91c0-0.18,0.02-0.35,0.07-0.52
							c0.13-0.49,0.45-0.9,0.89-1.14c0.29-0.17,0.6-0.25,0.92-0.25c0.17,0,0.35,0.03,0.52,0.07
							C323.86,261.74,324.45,262.79,324.17,263.79z"/>
					</g>
				</g>
				<g>
					<g>
						<path style="fill:#1E1E1E;" d="M314.6,244.16c-0.35-0.62-0.91-1.06-1.59-1.25c-1.4-0.39-2.86,0.43-3.26,1.83v0.01
							c-0.19,0.68-0.1,1.39,0.25,2c0.34,0.62,0.91,1.06,1.59,1.25c0.23,0.07,0.47,0.1,0.71,0.1c1.15,0,2.22-0.77,2.54-1.93
							C315.03,245.49,314.95,244.78,314.6,244.16z M314.12,245.97c-0.28,1-1.33,1.59-2.33,1.31c-0.49-0.14-0.89-0.46-1.14-0.89
							c-0.25-0.45-0.31-0.96-0.18-1.44c0.29-1.01,1.33-1.6,2.34-1.32c0.48,0.14,0.89,0.46,1.14,0.9
							C314.19,244.97,314.26,245.48,314.12,245.97z"/>
					</g>
				</g>
			</g>
			<g>
				<g>
					<path style="fill:#1E1E1E;" d="M306.349,259.354l-3.64,3.26c0,0-30.52-1.7-47.99-28.67c-0.35-0.52-0.69-1.06-1.01-1.61
						c-1.32-2.16-2.55-4.48-3.67-6.96l-3.67,10.82l-0.89,2.61l-10.22,30.1c0,0-6.12-5.75-10.02-19.46
						c-0.17-0.61-0.34-1.23-0.51-1.88c-1.54-6.01-2.63-13.43-2.66-22.41c0-0.64,0-1.3,0.01-1.97c0.15-11.34,1.97-25.07,6.59-41.5
						l-22.9-11.46l-1.71-0.85l-10.71-5.36l-1.7-0.85l-9.57-4.79l-1.69-0.85l-9.27-4.63l-1.72-0.86l-11.31-5.66l11.84,4.93l1.8,0.75
						l9.59,4l1.77,0.73l9.77,4.08l1.76,0.73l11.51,4.8l1.79,0.74l24.21,10.09c0,0-6.4,20.45-6.07,44.87
						c0.01,0.65,0.02,1.3,0.04,1.95c0.2,6.99,0.97,14.25,2.6,21.43v0.01c0.14,0.64,0.3,1.26,0.46,1.9c1.17,4.69,2.72,9.32,4.75,13.8
						l7.87-20.44l1.03-2.68l7.23-18.78C250.039,219.284,273.009,257.673,306.349,259.354z"/>
				</g>
			</g>
			<g>
				<g>
					<path style="fill:#1E1E1E;" d="M398.658,294.902l-16.01-14.35l-3.05-2.73c0,0-12.27,3.34-27.32,4.2
						c-1.11,0.06-2.25,0.12-3.39,0.15c-0.67,0.03-1.34,0.04-2.02,0.05c-7.2,0.1-14.77-0.49-21.75-2.33
						c-0.66-0.17-1.32-0.35-1.97-0.55c-19.05-5.78-32.91-21.63-21.45-59.92c-0.56,2.58-8.25,39.99,21.42,53.52
						c0.4,0.18,0.81,0.36,1.23,0.53c5.56,2.34,12.37,3.86,20.7,4.23c0.68,0.03,1.36,0.05,2.06,0.06c1.75,0.04,3.56,0.02,5.44-0.05
						c7.96-0.27,17.12-1.5,27.64-3.9l2.13,2.43L398.658,294.902z"/>
				</g>
			</g>
			<g>
				<g>
					<path style="fill:#1E1E1E;" d="M423.026,82.542c0,0,40.711,87.338-61.835,157.124l5.79,3.109
						C366.981,242.775,466.575,178.059,423.026,82.542z"/>
				</g>
			</g>
			<g>
				<path style="fill:#1E1E1E;" d="M119.757,127.584c0,0-2.412,6.272,5.95,10.292L119.757,127.584z"/>
			</g>
			<g>
				<path style="fill:#1E1E1E;" d="M146.733,109.345c0,0,2.876-7.954,9.648-4.26L146.733,109.345z"/>
			</g>
			<g>
				<path style="fill:#FFFFFF;" d="M113.11,134.416c0,0,1.623,4.868,3.426,5.048s1.442-5.409,1.442-5.409L113.11,134.416z"/>
			</g>
			<g>
				<path style="fill:#1E1E1E;" d="M94.145,104.391l5.779,9.081C99.924,113.472,101.369,107.074,94.145,104.391z"/>
			</g>
			<g>
				<path style="fill:#1E1E1E;" d="M110.45,104.803l5.366,7.637C115.816,112.44,115.61,106.454,110.45,104.803z"/>
			</g>
			<g>
				<path style="fill:#1E1E1E;" d="M104.544,134.813c1.41-0.573,2.939-0.728,4.42-0.898c1.492-0.159,2.983-0.238,4.471-0.32
					c2.981-0.126,5.94-0.229,8.949-0.22c-2.914,0.777-5.919,1.064-8.902,1.218c-1.494,0.063-2.987,0.099-4.477,0.098l-2.232,0.008
					C106.028,134.693,105.289,134.709,104.544,134.813z"/>
			</g>
			<g>
				<path style="fill:#1E1E1E;" d="M398.656,294.901c-1.855-6.572-3.572-13.177-5.297-19.781l-2.498-9.927
					c-0.837-3.308-1.665-6.618-2.452-9.939l0.231,0.302c-4.596-2.611-9.216-5.178-13.779-7.848c-4.58-2.639-9.143-5.309-13.67-8.042
					c4.7,2.425,9.364,4.913,14.012,7.432c4.665,2.487,9.271,5.079,13.903,7.625l0.178,0.098l0.052,0.205
					c0.844,3.306,1.647,6.623,2.44,9.942l2.393,9.953C395.706,281.571,397.251,288.219,398.656,294.901z"/>
			</g>
		</g>
	</g>
</g>

    <text x="10" y="832" font-size="12" fill="gray" opacity="0.6" font-family="Arial, sans-serif">
      twoja-kolorowanka.pl
    </text>
  
</svg>
