<?xml version="1.0" encoding="utf-8"?>
<!-- Generator: Adobe Illustrator 27.5.0, SVG Export Plug-In . SVG Version: 6.00 Build 0)  -->
<svg xmlns="http://www.w3.org/2000/svg" xmlns:xlink="http://www.w3.org/1999/xlink" viewBox="0 0 3000 3999" width="595" height="842" preserveAspectRatio="xMidYMid meet" data-scaled="true">
<g>
	<path style="fill:#FEFEFE;" d="M0,0h3000.002v3995.599c-1.318,0.762-2.783,1.729-4.277,2.227
		c-13.682,4.6-131.74,1.201-154.181,1.201l-467.57,0.029l-2326.441-0.029c-12.962,0-36.429,2.93-47.534-3.428V0z"/>
	<path style="fill:#060504;" d="M153.153,3561.975c16.537,4.893,96.424,1.348,120.224,1.319l363.906-0.498l1525.557,1.143
		l464.936,0.234l147.249-0.352c24.58-0.088,50.127-1.611,74.622-0.176c3.226,0.205,5.938,0.85,8.657,2.637
		c3.507,2.314,5.947,5.859,6.712,10.019c0.988,5.362-0.328,8.76-3.114,13.213c-5.057,3.194-4.998,3.516-11.302,2.695
		c-2.815,1.377-5.027,2.197-8.203,2.402c-26.455,1.67-54.103-0.352-80.663-0.41l-154.954,1.084l-679.893-0.029l-1737.471,0.293
		c-11.177,0-34.665,2.402-42.922-5.713c-2.337-2.285-3.344-4.57-3.553-7.822C142.381,3573.313,147.724,3567.923,153.153,3561.975z"
		/>
	<path style="fill:#060504;" d="M662.151,426.326c4.778-0.398,9.671-0.349,14.461-0.126c37.146,1.72,65.763,19.796,90.1,46.532
		c30.633-1.491,58.693,0.718,85.169,17.862c26.566,17.203,42.164,44.145,48.885,74.584c20.104,8.294,37.998,18.709,51.891,35.815
		c25.529,31.43,30.214,72.765,26.312,111.732c9.645-0.22,21.621-1.614,30.946,0.589c5.786,1.368,13.661,4.19,16.699,9.697
		c1.679,3.047,0.935,3.249,0.164,6.393c-4.055,3.674-7.878,5.61-13.374,6.24c-26.689,3.067-55.998,0.709-83.01,0.729l-167.698,0.056
		c-31.608-0.038-351.05,2.511-359.353-0.196c-5.587-1.822-6.861-4.916-9.677-9.574c-0.126-3.815-0.776-5.268,2.018-8.224
		c9.144-9.674,41.584-6.006,54.138-5.733c-0.419-30.563-1.037-61.813,9.275-91.037c16.26-46.078,50.701-67.834,92.649-87.818
		c5.446-22.397,11.789-43.169,26.121-61.688C598.952,444.917,628.518,430.899,662.151,426.326z"/>
	<path style="fill:#FEFEFE;" d="M659.945,449.473c6.457-0.31,13.04-0.721,19.494-0.185c35.739,2.968,58.386,23.816,80.276,49.91
		c29.303-4.427,57.551-4.608,82.752,13.324c24.999,17.789,32.692,43.453,37.316,72.261c22.148,7.236,42.114,14.37,56.771,33.686
		c20.429,26.918,21.601,62.106,17.104,94.14l-181.357,1.151c-99.654-0.887-199.311-1.161-298.969-0.823
		c-1.685-60.006,7.002-122.335,69.53-148.629c9.003-3.788,25.916-7.409,31.811-15.308c3.138-4.21,3.943-35.66,16.544-55.286
		C607.061,469.038,632.022,455.804,659.945,449.473z"/>
	<path style="fill:#060504;" d="M2114.589,453.686c7.445-0.629,14.902-0.855,22.371-0.68c7.469,0.176,14.906,0.753,22.313,1.732
		c52.251,7.257,92.479,32.593,124.108,73.954c12.338-3.135,24.853-5.182,37.547-6.141c2.502-0.19,5.007-0.317,7.515-0.384
		c2.506-0.066,5.014-0.07,7.523-0.012c2.508,0.057,5.013,0.176,7.515,0.357c2.502,0.18,4.998,0.422,7.488,0.727
		c2.49,0.305,4.971,0.67,7.441,1.096c2.473,0.426,4.933,0.912,7.38,1.459c2.449,0.549,4.883,1.156,7.301,1.822
		c2.418,0.668,4.818,1.395,7.201,2.18c2.383,0.785,4.744,1.629,7.084,2.531c2.34,0.902,4.657,1.861,6.952,2.877
		c2.293,1.018,4.56,2.09,6.8,3.217c2.24,1.129,4.452,2.311,6.636,3.548c2.182,1.236,4.332,2.526,6.451,3.87
		c2.117,1.342,4.201,2.735,6.252,4.181c2.051,1.445,4.063,2.94,6.038,4.485c1.977,1.545,3.914,3.138,5.813,4.778
		c33.243,29.314,48.442,64.09,50.865,107.804c37.424,3.489,70.351,13.658,99.516,38.2c40.869,34.389,55.304,76.14,59.959,127.802
		c27.516,7.058,55.438,13.122,82.676,21.188c37.397,11.074,74.897,25.049,111.56,38.449c10.06,3.677,22.441,7.869,27.252,18.155
		c-0.501,3.949-0.522,5.408-3.357,8.479c-8.833,9.565-39.735-7.321-50.168-11.194c-135.34-50.227-274.251-78.929-418.735-81.407
		c-16.01-0.16-32.018-0.055-48.023,0.316c-16.006,0.371-32.002,1.007-47.989,1.907c-15.984,0.898-31.95,2.062-47.897,3.492
		c-15.945,1.428-31.863,3.119-47.754,5.074c-15.891,1.955-31.745,4.172-47.563,6.65c-15.816,2.48-31.588,5.222-47.314,8.224
		c-15.727,3-31.4,6.261-47.019,9.782c-15.617,3.52-31.173,7.297-46.667,11.332c-282.911,73.172-620.423,252.756-862.794,415.559
		c-44.394,29.334-88.336,59.331-131.824,89.991c-24.237,17.042-50.156,33.492-71.514,54.12
		c51.674,0.291,103.348,0.259,155.022-0.097c29.505-0.085,59.956-1.699,89.329,1.242c54.281,5.437,97.521,33.762,131.567,75.064
		c43.236,1.649,86.458,2.303,129.606,5.763c189.428,15.185,347.845,60.196,520.105,138.952
		c-18.911-38.332-25.119-77.027-25.453-119.323c-0.97-123.264,40.585-251.209,104.479-355.852
		c10.646-17.435,22.456-39.727,37.233-53.938c4.846-4.661,8.757-7.245,15.536-7.228c28.301,13.928,84.477,133.749,97.013,165.688
		c39.498,100.638,81.563,254.672,35.473,358.823c-21.782,49.222-56.233,77.44-105.504,96.372
		c52.582,34.356,108.982,63.363,163.049,95.356l244.272,147.85c14.822-62.092,34.562-123.952,62.856-181.281
		c15.378-31.163,33.539-60.867,51.961-90.311c5.549-8.868,23.909-29.549,24.838-38.08c0.281-2.561-0.05-0.618,0.527-3.618
		l1.037-5.499c3.372-3.103,3.138-3.214,7.685-3.246c9.214,8.71,11.777,24.258,18.354,35.13
		c57.703,95.408,97.948,162.964,126.656,273.106c26.567,101.921,40.441,253.737-15.747,348.407
		c-27.803,46.843-66.384,75.252-118.849,88.371c-2.068,63.202-1.107,126.542-1.271,189.777c13.116,14.607,26.733,29.194,38.76,44.71
		c7.225,9.322,17.933,23.361,15.642,35.895c-0.943,5.153-3.935,9.68-7.597,13.327c-11.355,11.312-28.298,19.992-41.687,28.916
		c-15.045,10.188-29.805,20.773-44.279,31.755c62.9,77.725,89.461,171.674,90.27,270.627c22.418,10.898,77.502-3.867,106.228,4.688
		c6.437,1.904,9.809,4.248,12.926,10.166c0.181,3.135,0.205,5.274-1.066,8.262c-1.734,4.072-3.929,8.379-8.232,10.107
		c-10.146,4.014-101.871,4.072-112.357-0.146c-4.72,37.5-12.911,96.563-35.528,127.471c24.12,12.51,122.28-5.566,151.181,8.496
		c3.849,4.102,5.809,7.061,7.304,12.51c-0.914,4.277-1.277,6.504-5.106,9.023c-4.86,3.223-11.616,4.336-17.312,4.805
		c-21.888,1.816-134.159,1.816-151.822-2.93c-12.615,29.561-41.253,58.975-64.157,81.124
		c-19.166,18.545-83.769,74.179-109.445,73.799c16.295,8.73,61.937,4.424,82.459,4.482l172.796,0.645
		c22.863,0.088,46.834-2.373,69.545-0.586c5.572,0.439,12.876,1.699,17.212,5.479c3.252,2.812,5.15,7.207,4.459,11.513
		c-0.8,5.01-4.274,8.643-8.51,11.074c-5.355,3.076-12.735,3.867-18.85,4.16c-15.814,0.82-31.977-0.615-47.842-0.821
		c-26.464-0.322-52.966,0.059-79.433,0.088l-301.527,0.176l-1352.193-0.117c-12.706-0.117-26.901-1.172-39.419,0.937
		c-12.8,2.168-31.696,12.891-44.127,9.434c-0.832,0.557-1.646,1.143-2.496,1.641c-0.598,0.381-1.213,0.732-1.846,1.025
		c-42.554,20.244-166.254,13.301-212.379,3.721c-25.122-5.215-47.584-17.022-73.644-17.607c-38.194-0.821-76.702,0.791-114.938,0.82
		l-313.883-0.088c-21.544-0.117-81.829,3.545-98.023-0.996c-6.738-1.904-8.796-4.688-11.947-10.371
		c-0.154-3.574-0.539-7.442,0.688-10.869c1.57-4.395,4.426-7.295,9.004-8.438c16.125-4.072,73.442-0.381,93.906-0.293l244.723,0.117
		c41.127,0,84.354,2.666,125.238-0.556c4.368-0.352,8.007-1.582,11.848-3.662c0.472-0.264,0.932-0.528,1.398-0.791
		c-2.37,0.293-5.133,0.527-7.48,0c-43.134-9.697-151.77-114.053-174.331-154.219c-8.827,3.223-265.17,4.687-284.225,1.992
		c-8.812-1.26-15.355-3.838-20.831-10.986c-1.398-5.098-1.102-6.768,0.761-11.748c5.316-5.537,11.242-7.354,18.768-8.467
		c22.496-3.281,48.523-0.732,71.407-0.498l139.116,1.26c13.541,0.059,38.833,2.783,51.065-2.402c0.908-0.41,1.79-0.85,2.686-1.26
		c-19.336-19.102-45.275-101.309-53.555-129.199c-7.597,3.223-205.749,4.746-220.658,1.817c-4.247-0.85-7.626-2.783-9.963-6.446
		c-2.395-3.779-2.767-7.734-1.471-11.982c1.548-5.098,5.468-9.844,10.564-11.719c8.79-3.193,25.678-0.879,35.277-0.879
		c23.634-0.029,168.093,4.336,178.558-2.285c0.378-0.234,0.727-0.527,1.09-0.791c-4.869-10.283-5.944-28.067-7.134-39.551
		c-8.332-80.411,3.079-139.45,19.688-216.753c-20.136-13.954-105.299-50.033-112.75-63.797
		c-10.524-19.444,25.278-97.617,33.221-120.536c-26.915,6.715-55.397,8.007-80.914-4.441
		c-25.842-12.604-44.878-36.299-53.671-63.451c-0.534-1.611-1.027-3.234-1.479-4.869c-0.452-1.637-0.863-3.283-1.233-4.939
		c-0.369-1.656-0.697-3.32-0.983-4.992c-0.285-1.674-0.529-3.352-0.73-5.036c-0.201-1.686-0.36-3.375-0.476-5.068
		c-0.116-1.693-0.189-3.388-0.22-5.083c-0.031-1.697-0.019-3.395,0.036-5.092c0.055-1.695,0.152-3.388,0.292-5.08
		c0.14-1.691,0.322-3.378,0.547-5.06c0.225-1.682,0.492-3.356,0.801-5.024c0.309-1.67,0.66-3.33,1.053-4.98
		c0.393-1.65,0.827-3.29,1.303-4.919c0.475-1.629,0.992-3.245,1.548-4.849c0.557-1.604,1.153-3.191,1.79-4.764
		c0.637-1.574,1.313-3.131,2.028-4.67c0.715-1.537,1.469-3.056,2.26-4.559c0.73-1.443,1.497-2.867,2.298-4.271
		c0.801-1.404,1.638-2.788,2.509-4.151c0.871-1.363,1.775-2.703,2.713-4.02c0.938-1.318,1.908-2.612,2.911-3.882
		c1.002-1.27,2.036-2.513,3.101-3.729c1.065-1.217,2.159-2.407,3.284-3.571c1.124-1.162,2.277-2.296,3.458-3.401
		c1.181-1.106,2.389-2.181,3.624-3.226c1.235-1.043,2.495-2.056,3.781-3.038c1.285-0.982,2.594-1.932,3.927-2.848
		c1.333-0.916,2.688-1.799,4.065-2.648c1.377-0.848,2.775-1.661,4.192-2.44c1.418-0.777,2.854-1.52,4.309-2.227
		c1.455-0.707,2.927-1.378,4.415-2.013c1.488-0.633,2.992-1.229,4.51-1.787c1.518-0.557,3.05-1.076,4.594-1.559
		c34.701-10.931,65.621-2.59,96.811,13.857c-0.557-53.074-1.175-101.745,24.516-150.12c21.715-40.887,53.221-65.165,97.113-78.554
		c3.785-180.422-2.042-361.301-0.606-541.79c-8.247-0.513-16.638-0.308-24.905-0.372l-268.487,182.537
		c-4.343,2.965-9.495,6.223-14.971,4.43c-4.231-1.385-5.783-4.339-7.818-7.951c0.699-3.864,0.934-5.642,3.672-8.687
		c13.585-15.103,37.327-28.62,53.957-40.544c67.208-48.188,137.532-91.348,205.067-138.826c-0.342-4.359-0.532-8.725-0.571-13.096
		c-0.199-48.296,15.908-90.947,50.47-125.183c2.795-2.721,5.681-5.341,8.657-7.86c2.977-2.52,6.038-4.933,9.185-7.239
		c3.146-2.307,6.369-4.5,9.668-6.58c3.299-2.08,6.666-4.043,10.102-5.889c3.438-1.846,6.934-3.569,10.491-5.171
		c3.557-1.602,7.164-3.077,10.822-4.427c3.66-1.35,7.363-2.569,11.109-3.659c3.744-1.092,7.523-2.051,11.335-2.877
		c38.256-8.212,86.657-2.227,126.082-2.165l247.79,0.164c37.263-30.349,79.509-56.912,118.86-84.63
		c49.826-34.951,100.367-68.834,151.623-101.649c51.258-32.816,103.186-64.535,155.783-95.156
		c52.6-30.623,105.821-60.121,159.665-88.494c53.844-28.375,108.264-55.6,163.26-81.674
		c-46.395-27.771-100.04-45.905-151.146-62.994c-244.998-81.92-499.518-66.234-742.671,13.412
		c-109.802,35.968-217.067,85.248-312.604,150.645c-35.906,24.93-71.068,50.869-105.486,77.818
		c-34.419,26.947-68.036,54.858-100.853,83.733c-18.31,15.981-36.193,32.425-53.649,49.333
		c-8.068,7.893-15.665,17.578-24.357,24.662c-3.705,3.021-6.322,4.444-11.05,5.121c-5.957-2.282-6.617-3.469-10.427-8.306
		c-0.167-3.486,0.082-5.78,1.886-8.845c11.427-19.418,66.089-64.857,86.417-82.793c174.648-154.093,362.042-272.552,588.786-333.818
		c244.937-66.185,490.852-68.596,730.246,20.499c45.542,16.948,91.172,34.816,133.398,59.057
		c46.509-18.979,92.47-39.229,139.093-57.996c-5.689-14.713-11.364-29.399-15.249-44.719
		c-11.991-47.303-3.305-95.698,21.982-137.344c29.473-48.542,77.675-73.573,131.077-86.769
		c-0.017-42.416,8.382-82.225,34.239-116.795C2020.103,483.92,2063.744,460.752,2114.589,453.686z"/>
	<path style="fill:#FEFEFE;" d="M420.164,2763.521c8.443,3.258,16.699,7.858,24.855,11.821
		c-7.497,28.629-14.212,57.067-19.828,86.139c-8.523-2.66-17.235-4.872-25.837-7.277
		C402.068,2822.97,411.015,2793.345,420.164,2763.521z"/>
	<path style="fill:#FEFEFE;" d="M998.037,3333.225c1.837,0.322,3.355,0.528,5.118,1.289c7.321,3.135,11.566,17.373,14.572,24.492
		c-1.521,1.523-3.085,3.105-4.916,4.277c-12.325,7.705-54.627,20.361-68.476,16.553c-2.183,1.846-3.785,2.783-6.519,3.486
		c-3.568,0.938-3.126,0.352-6.076-1.406c-3.56-8.408-2.883-19.424-3.22-28.506C944.775,3353.528,986.309,3344.182,998.037,3333.225z
		"/>
	<path style="fill:#FEFEFE;" d="M522.106,3199.661c19.307,13.037,42.079,51.357,62.306,57.686c-4.523,6.826-10.538,15-19.002,16.787
		c-1.465,1.289-3.226,2.256-4.863,3.311c-17.763-8.203-50.771-43.184-58.652-61.084
		C509.842,3215.188,517.026,3205.462,522.106,3199.661z"/>
	<path style="fill:#FEFEFE;" d="M461.133,3107.551c17.774,10.928,30.018,53.467,46.945,70.108
		c-5.742,7.061-13.4,13.388-22.192,16.025l-2.877,0.469c-16.169-13.682-39.064-55.723-43.852-76.23
		C447.135,3117.102,454.729,3112.093,461.133,3107.551z"/>
	<path style="fill:#FEFEFE;" d="M397.052,2881.022c8.968,0.961,17.947,2.569,26.868,3.923c-0.923,29.643,3.425,60.624,1.069,89.833
		c-8.754,1.523-17.59,2.637-26.394,3.838C394.231,2945.979,393.018,2913.744,397.052,2881.022z"/>
	<path style="fill:#FEFEFE;" d="M421.172,2999.446c2.153-0.146,4.641,0.293,6.768,0.469c7.21,9.639,21.006,66.797,27.422,83.818
		c-1.321,1.611-1.5,1.992-3.343,3.428c-4.116,3.193-8.772,3.252-13.676,2.9c-1.784,1.582-3.946,2.842-5.921,4.19l-3.211-1.289
		c-13.178-17.461-26.546-65.625-25.708-87.422C407.845,3001.379,415.418,3000.706,421.172,2999.446z"/>
	<path style="fill:#FEFEFE;" d="M880.357,3356.78c0.437,0.176,0.87,0.322,1.307,0.469c7.679,2.549,13.655,2.285,20.862-1.348
		l2.581,29.795c-2.027,1.465-3.401,2.49-5.824,3.252c-13.614,4.248-50.449,6.094-62.394-0.879c-0.961,0.469-1.925,0.938-2.918,1.348
		c-7.479,3.076-13.939,0.937-20.977-2.168c2.657-9.873,3.006-20.186,3.814-30.352c1.928,0.82,3.873,1.494,5.889,2.051
		C835.044,3362.347,870.089,3362.991,880.357,3356.78z"/>
	<path style="fill:#FEFEFE;" d="M1281.335,3000.676c7.749,3.34,22.456,7.119,30.454,4.395c-1.969,23.877-10.91,64.6-24.193,84.698
		l-3.527,3.457c-10.113-0.117-18.094-4.336-25.834-10.547C1271.245,3060.911,1275.701,3025.52,1281.335,3000.676z"/>
	<path style="fill:#FEFEFE;" d="M935.195,2457.043c15.943,2.604,31.666,6.175,47.168,10.714
		c15.502,4.539,30.668,10.01,45.498,16.415c-4.435,7.444-9.173,14.739-13.761,22.093l-0.656,1.289
		c-8.364,2.294-68.467-16.808-83.367-19.626L935.195,2457.043z"/>
	<path style="fill:#FEFEFE;" d="M1048.729,2493.034c29.818,12.182,55.55,29.874,81.044,49.251
		c-5.921,6.504-11.411,13.412-17.007,20.194l-1.433,1.497c-5.215,0.252-66.094-38.695-74.977-43.746L1048.729,2493.034z"/>
	<path style="fill:#FEFEFE;" d="M601.518,3273.401c17.537,12.598,61.767,46.875,82.093,46.553
		c-2.543,8.467-5.695,17.666-11.701,24.287l-4.896-0.117c-2.083,0.264-3.823,0.264-5.865-0.322
		c-15.188-4.336-69.51-36.299-77.52-48.896C591.167,3291.008,597.121,3280.52,601.518,3273.401z"/>
	<path style="fill:#FEFEFE;" d="M1246.53,3108.811c10.008,3.457,21.214,8.32,31.84,5.83c-4.512,17.754-29.168,65.684-43.043,76.875
		c-1.16,2.431-2.32,3.633-4.342,5.39c-10.222-3.808-19.096-11.689-25.559-20.361
		C1218.194,3167.493,1240.193,3124.104,1246.53,3108.811z"/>
	<path style="fill:#FEFEFE;" d="M1308.813,2884.748c3.926-0.413,4.409-0.63,7.825,1.236c6.489,18.346,3.911,45.346,2.889,64.799
		c-0.451,8.643,0.284,23.936-6.284,29.854l-9.024-1.348l-18.545-4.512c2.698-28.154,1.614-56.508,4.394-84.624
		C1295.166,2885.923,1302.441,2885.742,1308.813,2884.748z"/>
	<path style="fill:#FEFEFE;" d="M664.782,2493.242l3.36,1.304c5.56,7.611,8.32,16.816,11.569,25.579
		c-28.216,12.017-54.82,28.163-81.375,43.427c-6.779-6.712-11.769-14.435-17.048-22.327
		C606.803,2522.094,636.091,2506.956,664.782,2493.242z"/>
	<path style="fill:#FEFEFE;" d="M1101.528,3280.989c11.836,0.879,15.779,14.004,25.629,19.307c-0.94,1.436-1.951,2.842-3.129,4.102
		c-8.402,8.848-58.846,40.225-70.339,40.342c-3.724,3.691-3.964,4.892-9.354,5.332c-8.634-6.504-10.646-19.746-13.456-29.619
		c0.712-0.029,1.433,0.029,2.139-0.059C1046.711,3318.372,1092.575,3291.331,1101.528,3280.989z"/>
	<path style="fill:#FEFEFE;" d="M816.162,2451.365c31.148-2.077,63.363-1.831,94.412,1.55c-1.345,10.494-3.073,20.968-4.617,31.436
		c-29.3-2.194-57.571-2.575-86.903-0.633C817.24,2472.758,815.916,2462.486,816.162,2451.365z"/>
	<path style="fill:#FEFEFE;" d="M1236.722,2659.095c2.247,0.041,1.157-0.164,3.753,0.97c12.577,5.487,37.509,63.8,43.146,78.302
		l-25.228,10.342l-2.036,0.346c-7.479-4.869-37.77-65.42-43.922-77.2L1236.722,2659.095z"/>
	<path style="fill:#FEFEFE;" d="M475.656,2648.648c8.687,5.517,17.036,11.798,25.477,17.701
		c-18.979,25.629-33.193,55.187-46.734,83.918c-8.721-4.211-17.466-8.371-26.235-12.48
		C441.035,2705.665,456.63,2677.482,475.656,2648.648z"/>
	<path style="fill:#FEFEFE;" d="M705.833,3331.585c17.523,6.826,71.599,26.719,87.498,20.771c-0.627,8.232-0.05,26.045-5.777,31.905
		l-5.074-1.905c-0.729,0.264-1.438,0.615-2.188,0.821c-13.462,3.604-74.736-14.561-87.287-23.145
		C698.918,3352.122,702.173,3340.813,705.833,3331.585z"/>
	<path style="fill:#FEFEFE;" d="M1288.188,2764.901l4.582,0.472c13.576,19.222,20.59,69.328,25.213,92.365
		c-8.188,0.992-16.381,1.934-24.58,2.824c-2.853,0.273-5.414,0.179-8.276,0.085c-5.083-7.708-16.418-70.321-20.344-84.111
		C1272.379,2772.351,1280.395,2768.721,1288.188,2764.901z"/>
	<path style="fill:#FEFEFE;" d="M1147.838,2557.341c28.562,22.687,52.289,48.152,74.42,77.065l-20.883,15.366l-0.668,0.501
		c-2.836-0.668-61.474-59.578-69.943-67.061C1137.449,2575.3,1142.5,2566.186,1147.838,2557.341z"/>
	<path style="fill:#FEFEFE;" d="M1188.32,3198.841c10.617,3.457,17.326,14.941,28.38,16.728c-0.668,1.26-1.313,2.578-2.03,3.838
		c-8.361,14.619-47.862,57.217-63.316,61.523c-2.259,2.959-1.638,3.252-5.543,4.102c-9.27-5.537-15.281-15.381-20.563-24.522
		c0.472-0.059,0.955-0.059,1.418-0.176C1138.952,3257.288,1181.863,3210.53,1188.32,3198.841z"/>
	<path style="fill:#FEFEFE;" d="M556.732,2559.266c8.915,1.541,17.235,15.392,22.746,22.406
		c-23.405,20.273-44.549,42.855-65.608,65.505c-8.804-6.006-17.083-12.51-25.383-19.192
		C509.271,2602.713,531.539,2580.111,556.732,2559.266z"/>
	<path style="fill:#FEFEFE;" d="M787.46,2455.215c0.105,0.026,0.229,0.015,0.316,0.079c4.872,3.609,5.215,24.513,6.006,31.363
		c-30.929,5.569-60.463,13.576-90.574,22.547l-12.516-27.422C722.631,2468.905,753.434,2460.43,787.46,2455.215z"/>
	<path style="fill:#FEFEFE;" d="M2821.848,2225.914l1.392,1.488c-0.263,18.483-11.209,45.979-18.785,63.009
		c-21.902,49.245-57.161,75.929-106.383,94.576c-4.597-7.23-1.72-49.629-1.559-60.996
		C2734.121,2306.542,2787.907,2254.142,2821.848,2225.914z"/>
	<path style="fill:#FEFEFE;" d="M2553.814,2225.126c15.542,8.602,31.037,25.14,44.801,36.862
		c26.309,22.4,52.562,44.429,81.252,63.776l-0.132,61.459c-21.126-6.753-41.294-15.246-59.268-28.447
		C2578.086,2327.647,2561.563,2274.972,2553.814,2225.126z"/>
	<path style="fill:#FEFEFE;" d="M1616.934,1924.882l54.987,0.486c0.578,56.574,0.563,113.148-0.047,169.72
		c-18.317,0.721-36.633,0.401-54.955,0.223L1616.934,1924.882z"/>
	<path style="fill:#FEFEFE;" d="M2200.686,1356.792c6.829,5.818,17.49,61.69,20.01,73.737
		c-30.469,29.019-65.449,54.87-97.582,82.201l-15.27,12.358l0.214-94.245C2139.597,1406.988,2170.473,1382.304,2200.686,1356.792z"
		/>
	<path style="fill:#FEFEFE;" d="M2798.695,1944.268c0.542,0.352,1.166,0.601,1.626,1.055c10.254,10.075,16.966,56.93,19.761,73.157
		l-106.438,79.846l-16.784,12.952l0.466-82.693C2733.404,2003.63,2766.603,1974.087,2798.695,1944.268z"/>
	<path style="fill:#FEFEFE;" d="M2571.061,1940.313c37.652,26.944,71.648,58.948,108.993,86.379
		c-0.082,14.068,3.879,69.844-1.749,78.765l-4.347-2.145c-40.116-28.585-77.074-60.337-118.339-87.653
		C2559.265,1990.237,2564.412,1965.122,2571.061,1940.313z"/>
	<path style="fill:#FEFEFE;" d="M1998.23,1348.03c33.407,23.657,65.569,54.117,95.385,82.239
		c-0.012,26.69-0.398,53.443,0.349,80.121l-1.74,1.09l0.964,7.093c-3.987-0.311-8.543-4.881-11.833-7.359
		c-35.736-28.201-68.83-58.691-102.003-89.801C1983.453,1396.273,1990.332,1372.202,1998.23,1348.03z"/>
	<path style="fill:#FEFEFE;" d="M2221.525,1444.484c7.863,8.607,9.931,66.352,11.039,81.243
		c-38.396,33.448-78.741,65.042-118.099,97.365c-1.096,0.844-2.81,1.374-4.087,1.931c-5.921-10.377-2.631-72.281-2.596-87.82
		C2146.929,1508.635,2183.404,1474.636,2221.525,1444.484z"/>
	<path style="fill:#FEFEFE;" d="M2547.664,2123.073c45.041,33.612,86.06,71.833,132.372,104.098
		c-0.352,27.867-0.217,55.731,0.404,83.593c-42.812-31.939-85.043-64.726-128.537-95.73
		C2548.751,2184.321,2547.137,2153.952,2547.664,2123.073z"/>
	<path style="fill:#FEFEFE;" d="M1977.019,1434.165c39.314,33.029,77.13,67.945,116.572,100.937
		c0.085,28.488,3.63,62.467-0.917,90.355l-2.637-0.416c-39.249-37.263-81.744-71.748-122.854-106.934
		C1969.229,1489.964,1971.04,1461.801,1977.019,1434.165z"/>
	<path style="fill:#FEFEFE;" d="M1968.579,1534.777c42.325,33.51,83.458,69.144,124.55,104.162
		c0.272,26.174-0.642,52.438-1.069,78.612c-0.527,0.023-1.058,0.138-1.582,0.067c-1.544-0.202-67.148-33.765-70.635-35.927
		c-4.714-2.924-8.824-6.592-12.51-10.726C1977.016,1636.982,1966.258,1578.851,1968.579,1534.777z"/>
	<path style="fill:#FEFEFE;" d="M2831.481,2122.092c6.72,23.227-1.351,69.847-4.694,94.403
		c-44.326,29.001-84.6,63.803-128.657,93.27c-4.849-20.182-0.99-60.222-0.797-82.365
		C2742.336,2201.838,2790.474,2155.616,2831.481,2122.092z"/>
	<path style="fill:#FEFEFE;" d="M2232.043,1538.632c1.192,2.025,1.289,1.658,1.559,3.612c4.679,34.298-12.753,89.983-31.55,117.741
		c-22.594,33.369-52.928,52.565-92.095,60.229c-5.73-7.447-2.092-66.964-1.91-80.276
		C2150.17,1607.137,2191.502,1573.369,2232.043,1538.632z"/>
	<path style="fill:#FEFEFE;" d="M2819.572,2026.373c7.889,7.45,12.249,75.858,12.826,89.736
		c-44.332,26.335-85.77,61.544-126.7,92.813c-3.035,1.752-3.26,1.992-6.712,1.673c-6.158-16.658-2.191-65.88-1.983-86.183
		C2723.771,2113.059,2797.274,2048.445,2819.572,2026.373z"/>
	<path style="fill:#FEFEFE;" d="M2554.482,2023.965c17.783,9.604,34.21,25.749,49.685,38.833
		c24.776,20.95,49.151,42.088,75.346,61.289c0.879,21.527,1.42,43.064,1.623,64.608c0.07,6.563,1.617,18.36-3.026,23.104
		c-41.432-33.653-84.958-67.837-130.864-95.109C2548.161,2085.664,2550.573,2054.756,2554.482,2023.965z"/>
	<path style="fill:#FEFEFE;" d="M1524.977,2662.162c92.552-1.271,185.247-0.346,277.811-0.454l-0.047,46.775l-266.016,0.524
		C1532.891,2693.371,1528.975,2677.756,1524.977,2662.162z"/>
	<path style="fill:#FEFEFE;" d="M1498.258,2586.166l304.445,0.293c0.088,14.927,0.806,30.144-0.911,44.989
		c-95.543,0.703-191.145-1.843-286.673,0.284C1510.097,2617.18,1499.638,2601.418,1498.258,2586.166z"/>
	<path style="fill:#FEFEFE;" d="M259.789,2413.889c14.241-0.627,27.949,1.907,40.319,9.252c0.914,0.551,1.814,1.123,2.698,1.717
		c0.887,0.594,1.758,1.209,2.613,1.846c0.855,0.637,1.694,1.293,2.517,1.969c0.824,0.677,1.631,1.375,2.42,2.092
		c0.789,0.719,1.561,1.455,2.314,2.209c0.754,0.754,1.488,1.527,2.203,2.317c0.717,0.791,1.413,1.599,2.089,2.423
		c0.676,0.824,1.331,1.664,1.966,2.52c0.635,0.857,1.249,1.729,1.843,2.616c0.592,0.887,1.162,1.787,1.711,2.701
		c0.549,0.914,1.074,1.841,1.576,2.78c0.504,0.941,0.984,1.893,1.441,2.856c0.455,0.963,0.888,1.938,1.298,2.924
		c0.408,0.984,0.793,1.979,1.154,2.983c0.359,1.002,0.694,2.013,1.005,3.035c0.313,1.02,0.599,2.046,0.858,3.079
		c0.277,1.109,0.526,2.225,0.747,3.346c0.221,1.121,0.413,2.247,0.577,3.378c0.166,1.131,0.304,2.265,0.413,3.401
		c0.109,1.139,0.189,2.278,0.24,3.419c0.053,1.142,0.077,2.285,0.073,3.428s-0.037,2.284-0.1,3.425
		c-0.061,1.142-0.15,2.282-0.267,3.419c-0.119,1.136-0.266,2.269-0.44,3.398c-0.174,1.129-0.375,2.254-0.603,3.375
		c-0.23,1.119-0.488,2.231-0.773,3.337c-0.285,1.107-0.598,2.207-0.938,3.299c-0.34,1.09-0.706,2.172-1.099,3.246
		c-0.393,1.072-0.813,2.135-1.26,3.188c-0.445,1.053-0.917,2.094-1.415,3.123c-0.498,1.028-1.021,2.043-1.57,3.047
		c-0.547,1.002-1.119,1.99-1.717,2.965c-11.209,17.953-27.677,26.086-47.626,30.944c-16.73,0.694-31.328-0.765-45.639-10.228
		c-14.958-9.891-25.196-26.115-28.517-43.667c-0.196-1.084-0.366-2.173-0.509-3.267c-0.143-1.092-0.259-2.187-0.348-3.284
		c-0.089-1.1-0.151-2.2-0.185-3.302c-0.035-1.102-0.042-2.203-0.023-3.305c0.02-1.101,0.066-2.202,0.14-3.302
		c0.074-1.1,0.175-2.196,0.302-3.29c0.128-1.095,0.282-2.187,0.464-3.272c0.181-1.088,0.389-2.17,0.624-3.246
		c0.235-1.076,0.496-2.147,0.783-3.211c0.288-1.064,0.601-2.12,0.94-3.167c0.339-1.049,0.704-2.089,1.095-3.12
		c0.391-1.031,0.806-2.052,1.247-3.062c0.441-1.01,0.906-2.008,1.396-2.994c0.49-0.986,1.004-1.961,1.542-2.924
		c0.538-0.961,1.099-1.909,1.684-2.845c0.585-0.934,1.192-1.853,1.822-2.757C223.135,2424.881,239.196,2417.782,259.789,2413.889z"
		/>
	<path style="fill:#FEFEFE;" d="M1456.99,2507.642c3.328-0.223,6.659-0.389,9.993-0.501c67.072-1.738,134.622-0.085,201.741-0.062
		c32.35,0.011,76.77-3.651,107.523,0.894c6.199,0.914,10.714,2.61,15.193,7.134c9.448,9.548,9.882,23.2,10.271,35.745
		c-106.688,1.005-213.516-0.185-320.212-0.709C1473.101,2536.555,1462.812,2522.524,1456.99,2507.642z"/>
	<path style="fill:#FEFEFE;" d="M2100.242,1143.628c40.239,47.238,78.117,141.683,98.95,201.46
		c-31.488,22.075-59.402,50.215-90.545,73.266c-2.024-33.501,2.93-67.954-0.979-101.165c-4.608,0.278-6.527,0.29-10.274,3.319
		c-9.085,18.686-3.653,72.53-3.486,95.502c-29.684-27.838-61.808-53.417-92.886-79.699
		C2022.031,1274.907,2056.587,1192.231,2100.242,1143.628z"/>
	<path style="fill:#FEFEFE;" d="M500.851,2191.616c34.512-2.994,154.257-4.438,182.118,5.713
		c9.296,3.387,17.417,7.395,21.785,16.749c-1.711,6.308-16.893,10.573-22.775,12.812c-80.411,30.589-147.123,66.272-211.954,123.888
		c-36.111,33.715-68.93,69.536-100.667,107.294l-0.313-2.798c-2.101-19.793-2.279-40.069-2.965-59.965
		c-1.963-57.009-0.583-105.627,37.767-151.978C429.451,2212.382,461.098,2195.533,500.851,2191.616z"/>
	<path style="fill:#FEFEFE;" d="M2684.073,1705.794c42.832,52.465,97.189,162.275,114.46,227.66
		c-28.989,29.341-68.224,54.618-101.549,79.151c-0.097-23.915,4.371-66.756-0.211-88.225c-1.21-5.666-3.832-6.688-8.3-9.712
		c-0.521,0.478-1.066,0.929-1.562,1.432c-9.979,10.178-5.754,78.361-5.599,96.709c-35.381-27.984-71.138-55.481-107.271-82.488
		C2593.786,1849.777,2635.074,1772.21,2684.073,1705.794z"/>
	<path style="fill:#FEFEFE;" d="M880.313,2371.323c117.771-9.255,253.008,30.993,344.221,106.646
		c117.155,97.169,171.803,224.159,185.651,372.944l-53.367,0.114c-13.072-95.447-58.775-186.325-119.514-259.951
		c-22.514-24.403-46.55-47.199-72.108-68.391c-145.989-119.312-352.471-136.907-521.746-58.705
		c-17.713,8.182-92.279,55.283-95.777,55.637C650.962,2429.85,742.811,2383.171,880.313,2371.323z"/>
	<path style="fill:#FEFEFE;" d="M1554.748,2856.178l159.387,0.255c39.097,0.1,78.434-0.683,117.472,1.336
		c0.996,20.156,3.984,40.075,19.157,54.8c26.244,25.47,84.999,17.209,119.033,17.414c-4.248,28.652-7.072,56.367-7.06,85.371
		c-1.254,0.762-1.764,1.143-3.293,1.641c-11.631,3.838-246.862,2.812-271.796,1.552c-4.397-0.234-7.052-1.084-10.89-3.222
		c-1.711,0.996-3.422,1.729-5.312,2.373c-9.885,3.34-279.85,2.109-310.767,0.703c-4.491-0.205-8.057-1.025-12.023-3.164
		c10.866-43.506,9.894-90.202,8.842-134.669l52.764-0.489c0.668,14.83-4.099,66.252,2.795,76.154
		c3.771,5.42,9.577,8.232,15.917,9.463c27.7,5.42,62.552-5.713,84.993-21.855C1543.077,2922.87,1549.381,2889.413,1554.748,2856.178
		z"/>
	<path style="fill:#FEFEFE;" d="M1343.831,3046.35c10.641,3.691,556.058,4.365,610.272,1.553c4.409-0.234,8.103-0.967,12.267-2.461
		c1.717,32.725,17.719,110.918,36.75,135.908c-1.553,0.82-2.827,1.582-4.477,2.139c-10.896,3.515-40.6,3.34-50.399-2.168
		c-2.467,1.347-4.292,2.315-7.063,2.9c-13.488,2.959-32.177,0.528-46.301,0.528l-120.897,0.029
		c-156.923-0.058-314.25,2.256-471.117-0.41c-6.179-0.117-10.901-0.264-16.31-3.662
		C1305.168,3166.497,1336.352,3071.458,1343.831,3046.35z"/>
	<path style="fill:#FEFEFE;" d="M537.129,1472.573c38.707-3.609,79.708-0.659,118.72-0.668l234.091-0.044l202.571,0.12
		c33.088,0.097,68.897-2.396,101.716,1.849c21.416,2.771,44.563,12.305,62.083,24.817c35.077,25.049,52.998,61.005,59.748,102.715
		c-32.754,0.926-65.515,1.445-98.282,1.558l-478.711,0.211c-101.256,0.094-203.403,2.262-304.55-1.611
		c0.847-24.99,4.456-46.969,17.376-68.845C470.649,1500.907,501.952,1481.541,537.129,1472.573z"/>
	<path style="fill:#FEFEFE;" d="M2305.9,2486.551c33.627-4.063,72.378-1.623,105.949,2.93
		c38.742,5.253,75.691,17.305,111.533,32.672c77.595,33.27,135.229,76.846,186.612,144.182
		c-26.927,17.239-52.474,37.99-78.472,56.678c-42.718-50.241-107.069-85.661-169.934-103.928
		c-104.854-30.469-210.035-13.286-304.559,38.391c-9.166,5.236-18.051,10.913-26.654,17.03
		c-60.489,42.287-106.307,101.379-135.782,168.806c-6.964,15.923-14.206,32.942-17.259,50.098
		c-20.502-0.941-84.527,5.613-98.604-6.639c-7.143-6.22-10.462-14.772-10.852-24.111c-0.612-14.742,4.544-29.778,8.687-43.746
		c19.09-64.383,52.274-118.808,96.214-169.236c2.623-2.972,5.283-5.912,7.98-8.818c2.695-2.906,5.426-5.78,8.192-8.619
		c2.767-2.84,5.568-5.645,8.402-8.417c2.836-2.771,5.705-5.507,8.607-8.206c2.902-2.701,5.837-5.366,8.804-7.995
		c2.967-2.629,5.966-5.222,8.997-7.779c3.031-2.554,6.094-5.072,9.188-7.552c3.092-2.481,6.215-4.923,9.369-7.327
		c3.152-2.402,6.334-4.767,9.545-7.093c3.209-2.326,6.447-4.612,9.715-6.858c3.267-2.248,6.561-4.454,9.882-6.618
		c3.32-2.166,6.667-4.291,10.04-6.375c3.373-2.084,6.771-4.126,10.195-6.126c3.422-2,6.868-3.958,10.339-5.874
		c3.471-1.916,6.965-3.79,10.482-5.622c3.518-1.83,7.057-3.617,10.617-5.361c3.561-1.742,7.143-3.441,10.746-5.097
		c3.602-1.656,7.224-3.268,10.866-4.834c3.641-1.568,7.301-3.091,10.98-4.567c3.68-1.478,7.377-2.911,11.092-4.298
		c3.713-1.387,7.443-2.727,11.191-4.022c3.748-1.295,7.511-2.544,11.288-3.747c3.777-1.203,7.57-2.361,11.376-3.472
		c3.806-1.109,7.625-2.173,11.458-3.191c3.832-1.015,7.676-1.984,11.531-2.906c3.857-0.924,7.725-1.799,11.602-2.625
		c3.877-0.828,7.764-1.608,11.66-2.341c3.896-0.732,7.802-1.417,11.716-2.054c3.914-0.636,7.835-1.226,11.763-1.767
		c3.928-0.541,7.861-1.033,11.801-1.477c3.941-0.445,7.887-0.842,11.836-1.189C2297.99,2487.1,2301.943,2486.801,2305.9,2486.551z"
		/>
	<path style="fill:#FEFEFE;" d="M1267.75,3212.61c8.56,3.691,731.854,5.186,749.599-0.908
		c12.653,31.055,60.094,77.637,85.474,100.166c17.019,15.088,70.711,56.66,92.089,55.371c-2.839,1.494-5.818,3.047-8.927,3.897
		c-12.111,3.339-144.015,2.49-160.802,0.849c-3.407-0.322-5.634-1.465-8.552-3.135c-1.591,0.967-3.044,1.846-4.849,2.373
		c-13.635,3.867-175.796,0.762-200.221,0.791l-380.886-0.439c-108.475,0.439-217.676,2.783-326.048,0.088
		c-6.768-0.176-11.458-0.967-17.549-4.248c1.901,0.176,3.574,0.323,5.461-0.088c7.954-1.699,17.484-8.057,24.516-12.1
		C1174.483,3322.122,1231.12,3267.659,1267.75,3212.61z"/>
	<path style="fill:#FEFEFE;" d="M854.215,2230.728c93.533-10.198,210.7,19.16,294.92,59.071
		c159.173,75.428,275.32,206.218,334.137,371.696c18.97,53.367,48.753,170.063,22.869,222.897
		c-11.783,24.052-30.618,35.013-55.011,43.535c0.097-82.884-3.768-158.701-33.056-237.255
		c-37.172-99.686-106.324-200.508-194.118-262.201c-29.813-20.95-62.936-37.014-95.968-52.134c-1.027-0.486-2.066-0.946-3.117-1.38
		c-128.473-54.035-281.81-57.19-411.062-4.541c-153.571,62.561-258.865,208.518-321.284,357.176
		c-29.895-15.123-58.283-32.631-89.66-44.769c25.852-87.029,64.661-166.19,124.157-235.24
		C537.041,2319.907,686.016,2243.214,854.215,2230.728z"/>
	<path style="fill:#FEFEFE;" d="M2112.435,476.831c12.899-1.512,26.733-1.591,39.68-0.56c56.596,4.506,90.138,38.177,125.13,78.847
		c10.444-3.466,21.135-7.236,32.033-8.909c34.576-5.297,72,2.25,100.116,23.587c40.061,30.404,45.064,61.79,51.788,107.602
		c0.27,1.828,1.213,9.442,2.165,10.395c3.802,3.803,36.63,3.809,44.212,5.719c4.978,1.201,9.879,2.661,14.701,4.38
		c4.824,1.717,9.545,3.684,14.162,5.9c4.615,2.215,9.102,4.666,13.462,7.354c4.358,2.689,8.562,5.6,12.612,8.73
		c37.005,28.544,51.062,64.239,56.936,109.219c-114.056-27.29-233.989-28.193-350.435-22.228
		c-103.228,10.233-204.138,26.666-304.19,54.565c-43.119,12.023-85.21,27.738-128.06,40.726
		c-6.612-15.844-12.691-31.664-15.946-48.595c-14.763-76.799,30.768-147.794,100.609-178.017
		c12.688-5.493,46.939-8.145,54.504-18.738c3.038-4.254,2.669-47.813,4.603-57.246c1.084-5.25,2.425-10.434,4.022-15.551
		c1.598-5.117,3.446-10.142,5.546-15.073c2.098-4.934,4.435-9.751,7.011-14.452c2.578-4.701,5.382-9.263,8.411-13.685
		C2030.914,503.672,2069.02,484.849,2112.435,476.831z"/>
	<path style="fill:#FEFEFE;" d="M1544.495,2134.288l251.045-0.536c195.645-0.293,422.502-2.042,597.006,96.328l-2.622,218.534
		c-39.149-3.712-79.374-1.878-118.327,3.055c-4.192,0.535-8.376,1.12-12.554,1.755c-4.176,0.637-8.344,1.324-12.504,2.063
		c-4.16,0.736-8.312,1.523-12.454,2.361c-4.141,0.838-8.271,1.727-12.39,2.666c-4.121,0.938-8.23,1.925-12.325,2.962
		c-4.096,1.039-8.178,2.127-12.246,3.263c-4.07,1.137-8.125,2.322-12.164,3.557c-4.041,1.236-8.066,2.521-12.076,3.853
		c-4.01,1.334-8.002,2.716-11.977,4.146c-3.977,1.43-7.935,2.907-11.874,4.433c-3.941,1.526-7.862,3.099-11.763,4.72
		c-3.902,1.621-7.784,3.289-11.646,5.004s-7.701,3.477-11.52,5.285c-3.818,1.807-7.615,3.66-11.388,5.561
		c-3.773,1.9-7.523,3.846-11.25,5.839c-3.727,1.99-7.429,4.027-11.106,6.109c-3.676,2.08-7.327,4.205-10.954,6.375
		c-3.625,2.168-7.224,4.381-10.796,6.639c-3.57,2.256-7.114,4.556-10.629,6.899c-3.518,2.342-7.005,4.726-10.462,7.154
		c-3.457,2.428-6.885,4.896-10.283,7.406c-3.398,2.512-6.766,5.063-10.102,7.656c-3.336,2.592-6.641,5.223-9.914,7.896
		c-3.271,2.672-6.511,5.384-9.718,8.135c-3.207,2.75-6.38,5.539-9.519,8.367c-3.139,2.828-6.242,5.693-9.31,8.595
		c-3.07,2.904-6.105,5.845-9.103,8.822c-2.998,2.977-5.959,5.989-8.883,9.038c-2.926,3.049-5.813,6.132-8.663,9.249
		c-2.85,3.119-5.661,6.272-8.435,9.46c-2.773,3.185-5.508,6.405-8.203,9.659c-2.696,3.252-5.351,6.537-7.966,9.855
		c-41.748,53.581-70.48,106.491-89.646,171.917c-94.767,0.325-189.577-0.853-284.332,0.389
		c-1.116-26.783-5.956-53.235-10.854-79.532l289.401,0.24c0.188-3.504,0.323-7.01,0.407-10.518
		c0.975-43.863,1.503-87.732,1.585-131.607c0.129-23.748,2.818-51.073-1.849-74.312c-2.42-12.047-7.916-23.52-16.664-32.253
		c-9.135-9.12-20.868-14.188-33.463-16.371c-25.342-4.395-55.494-1.248-81.267-1.052l-155.871,0.823
		C1545.383,2360.879,1545.258,2247.583,1544.495,2134.288z"/>
	<path style="fill:#060504;" d="M1654.821,2378.267c76.33-3.19,153.938-0.085,230.444-0.117
		c25.207-0.012,94.392-3.434,112.518,0.981c4.934,1.201,6.524,2.933,9.299,6.981c-0.173,6.489-0.814,7.506-4.406,12.987
		c-17.766,1.79-36.732,0.483-54.656,0.492l-107.813,0.056l-125.446,0.126c-16.986,0-38.789,2.364-55.357-1.184
		c-5.001-1.069-6.073-2.473-8.792-6.653C1650.45,2386.271,1652.146,2383.18,1654.821,2378.267z"/>
	<path style="fill:#060504;" d="M1655.773,2312.536c76.485-2.78,153.961-0.413,230.543-0.422c27.36-0.003,91.468-3.674,113.578,1.52
		c4.761,1.119,5.643,3.205,7.72,7.313c-1.254,6.521-2.159,7.793-6.469,12.917c-36.642,2.267-334.609,3.633-345.548-1.274
		c-3.565-1.6-3.768-3.741-5.162-7.107C1650.775,2319.673,1652.125,2317.027,1655.773,2312.536z"/>
	<path style="fill:#060504;" d="M1656.675,2185.285l243.44-0.445c22.948,0,82.192-3.618,100.28,1.649
		c4.975,1.447,5.871,3.976,7.796,8.399c-0.513,6.141-1.811,8.71-6.035,13.175c-43.283-2.467-333.739,4.163-346.711-2.098
		c-3.574-1.728-3.806-3.931-5.15-7.368C1651.112,2192.606,1652.908,2189.949,1656.675,2185.285z"/>
	<path style="fill:#060504;" d="M1656.397,2247.693c38.136-0.779,332.004-3.726,345.613,2.013c3.609,1.524,3.911,3.434,5.455,6.756
		c-0.58,6.416-2.552,9.419-6.308,14.572c-43.69-1.978-331.286,4.257-344.555-1.585c-3.932-1.731-4.11-3.882-5.634-7.585
		C1651.367,2255.665,1652.641,2252.624,1656.397,2247.693z"/>
	<path style="fill:#FEFEFE;" d="M2336.246,2642.739c37.901-3.835,81.205,2.303,117.647,13.11
		c87.97,26.092,168.481,92.698,211.682,173.347c1.436,2.738,2.838,5.494,4.207,8.268c1.367,2.773,2.701,5.563,4.002,8.37
		c1.301,2.807,2.566,5.628,3.797,8.464c1.232,2.838,2.429,5.69,3.589,8.555c1.162,2.867,2.288,5.747,3.378,8.64
		c1.092,2.895,2.147,5.802,3.167,8.722c1.02,2.92,2.004,5.852,2.953,8.795c0.947,2.943,1.859,5.898,2.736,8.865
		c0.875,2.965,1.715,5.94,2.52,8.927c0.803,2.986,1.568,5.982,2.297,8.988c0.731,3.004,1.424,6.018,2.08,9.041
		c0.656,3.021,1.276,6.048,1.857,9.079c0.582,3.047,1.127,6.094,1.635,9.141s0.979,6.103,1.412,9.17
		c0.431,3.066,0.827,6.133,1.187,9.199c0.357,3.067,0.678,6.143,0.961,9.229c0.281,3.086,0.525,6.172,0.732,9.258
		s0.377,6.172,0.51,9.258c0.131,3.086,0.225,6.172,0.281,9.258c0.057,3.105,0.075,6.201,0.056,9.287
		c-0.02,3.086-0.077,6.182-0.173,9.287c-0.094,3.086-0.226,6.172-0.398,9.258c-0.17,3.086-0.378,6.172-0.624,9.258
		c-0.246,3.086-0.529,6.162-0.85,9.229c-0.322,3.086-0.682,6.162-1.078,9.229s-0.83,6.123-1.301,9.17
		c-0.473,3.066-0.981,6.123-1.526,9.17c-0.547,3.027-1.13,6.055-1.749,9.082c-0.621,3.047-1.278,6.074-1.972,9.082
		c-0.695,3.008-1.427,6.015-2.194,9.023c-0.768,2.988-1.571,5.967-2.411,8.936c-0.84,2.988-1.717,5.957-2.631,8.906
		c-27.064,88.916-86.001,163.652-168.817,207.158c-30.935,16.26-116.745,50.244-149.291,40.313
		c-2.733,1.904-4.567,2.607-7.884,2.959c-79.638,8.467-172.072-29.326-233.06-79.131
		c-75.287-61.465-121.564-146.543-131.329-243.281c-9.891-97.969,14.388-196.55,77.546-273.375
		C2146.927,2689.587,2231.996,2652.969,2336.246,2642.739z"/>
	<path style="fill:#060504;" d="M2347.719,2755.98c5.174-0.084,10.345-0.002,15.513,0.246s10.322,0.66,15.463,1.236
		c5.143,0.578,10.261,1.32,15.354,2.227c5.094,0.904,10.153,1.972,15.179,3.202c5.027,1.229,10.009,2.617,14.944,4.166
		c4.938,1.549,9.819,3.254,14.646,5.115c4.828,1.861,9.592,3.875,14.291,6.041c4.698,2.166,9.321,4.48,13.872,6.943
		c1.824,0.98,3.636,1.983,5.438,3.006c1.799,1.025,3.585,2.072,5.358,3.14c1.775,1.066,3.536,2.156,5.282,3.27
		c1.748,1.111,3.481,2.243,5.2,3.396c1.721,1.155,3.426,2.329,5.115,3.524c1.692,1.197,3.367,2.414,5.027,3.65
		c1.662,1.236,3.308,2.493,4.937,3.771c1.631,1.277,3.245,2.574,4.843,3.891c1.598,1.318,3.179,2.655,4.746,4.01
		c1.564,1.355,3.113,2.729,4.644,4.122c1.531,1.394,3.046,2.807,4.544,4.239c1.496,1.43,2.975,2.878,4.436,4.345
		c1.461,1.469,2.904,2.954,4.33,4.456c1.424,1.502,2.83,3.021,4.219,4.558c1.387,1.537,2.755,3.091,4.104,4.661
		c1.35,1.572,2.68,3.159,3.99,4.761c1.311,1.604,2.601,3.222,3.87,4.857c1.272,1.636,2.522,3.287,3.753,4.951
		c1.229,1.666,2.438,3.346,3.627,5.042c1.189,1.695,2.357,3.405,3.504,5.13c1.146,1.725,2.271,3.462,3.375,5.212
		c1.106,1.752,2.188,3.518,3.249,5.297c1.061,1.778,2.1,3.569,3.117,5.373c1.016,1.802,2.01,3.618,2.982,5.446
		c0.973,1.828,1.923,3.668,2.85,5.52c0.926,1.852,1.83,3.714,2.713,5.587c0.881,1.873,1.739,3.757,2.575,5.651
		c0.834,1.895,1.646,3.8,2.435,5.716c0.789,1.914,1.553,3.838,2.294,5.772c0.742,1.933,1.46,3.875,2.153,5.824
		c0.694,1.951,1.363,3.911,2.007,5.88c0.645,1.957,1.265,3.932,1.863,5.924c0.592,2.012,1.159,4.023,1.702,6.035
		c0.543,2.012,1.061,4.033,1.552,6.064c0.494,2.031,0.962,4.063,1.403,6.094c0.443,2.051,0.861,4.102,1.254,6.152
		c0.391,2.051,0.757,4.102,1.099,6.152c0.34,2.071,0.655,4.131,0.946,6.182c0.291,2.07,0.555,4.15,0.794,6.24
		c0.238,2.07,0.451,4.141,0.638,6.211c0.188,2.09,0.35,4.17,0.486,6.24c0.137,2.09,0.247,4.18,0.331,6.27
		c0.086,2.09,0.146,4.18,0.179,6.27c0.031,2.07,0.038,4.15,0.021,6.24c-0.018,2.09-0.062,4.179-0.132,6.27
		c-0.07,2.09-0.166,4.18-0.287,6.269c-0.123,2.07-0.27,4.15-0.442,6.24c-0.174,2.071-0.373,4.151-0.598,6.24
		c-0.225,2.07-0.475,4.141-0.75,6.211c-0.275,2.07-0.576,4.141-0.902,6.211c-0.326,2.051-0.679,4.102-1.058,6.153
		c-0.377,2.051-0.779,4.102-1.207,6.152c-0.428,2.051-0.881,4.092-1.359,6.123s-0.983,4.053-1.512,6.065
		c-0.53,2.031-1.083,4.043-1.661,6.035c-0.578,2.012-1.181,4.014-1.808,6.006c-0.629,1.992-1.281,3.974-1.957,5.947
		c-0.678,1.973-1.379,3.936-2.104,5.889c-0.725,1.973-1.474,3.926-2.247,5.859c-0.773,1.934-1.571,3.867-2.393,5.801
		c-0.82,1.914-1.665,3.818-2.534,5.713c-0.867,1.894-1.759,3.779-2.675,5.654c-0.914,1.895-1.853,3.76-2.815,5.596
		c-0.961,1.856-1.945,3.701-2.95,5.537c-33.311,59.941-88.503,100.254-153.979,118.887c-13.559,3.867-39.196,10.986-52.289,3.78
		c-2.663,1.611-5.259,2.695-8.376,3.076c-49.729,6.094-119.209-24.756-155.877-55.811c-51.132-43.301-85.436-105.615-90.46-172.793
		c-0.172-2.09-0.317-4.179-0.437-6.27c-0.119-2.109-0.212-4.209-0.278-6.299c-0.068-2.109-0.109-4.209-0.123-6.299
		c-0.016-2.109-0.005-4.209,0.032-6.299c0.039-2.109,0.104-4.209,0.193-6.299c0.09-2.109,0.205-4.209,0.346-6.299
		c0.143-2.09,0.311-4.18,0.504-6.27c0.194-2.09,0.413-4.18,0.659-6.27s0.519-4.17,0.817-6.24c0.297-2.09,0.62-4.17,0.97-6.24
		s0.725-4.131,1.125-6.182c0.4-2.07,0.827-4.131,1.28-6.182c0.451-2.051,0.929-4.092,1.433-6.123
		c0.502-2.031,1.03-4.063,1.585-6.094c0.553-2.031,1.131-4.053,1.734-6.064s1.232-4.013,1.887-6.003
		c0.654-1.996,1.333-3.983,2.036-5.962c0.703-1.979,1.431-3.947,2.183-5.906c0.752-1.961,1.528-3.912,2.329-5.854
		c0.801-1.941,1.625-3.872,2.473-5.792c0.85-1.922,1.723-3.832,2.619-5.73c0.895-1.899,1.813-3.786,2.757-5.663
		c0.944-1.875,1.91-3.74,2.9-5.593c0.99-1.852,2.003-3.691,3.038-5.517c1.035-1.828,2.093-3.642,3.173-5.44
		c1.082-1.801,2.186-3.588,3.311-5.361c1.125-1.774,2.272-3.532,3.439-5.277c1.17-1.744,2.36-3.474,3.571-5.188
		c1.213-1.715,2.446-3.415,3.7-5.1c1.254-1.684,2.529-3.352,3.823-5.004c1.297-1.653,2.614-3.289,3.949-4.91
		c1.336-1.619,2.693-3.221,4.069-4.808C2215.291,2786.542,2278.089,2760.468,2347.719,2755.98z"/>
	<path style="fill:#FEFEFE;" d="M2343.087,2781.383c4.201-0.141,8.403-0.162,12.604-0.064c4.203,0.096,8.399,0.311,12.589,0.645
		c4.189,0.332,8.367,0.782,12.533,1.351c4.164,0.568,8.31,1.254,12.437,2.057c4.125,0.802,8.225,1.721,12.299,2.754
		c4.074,1.033,8.116,2.18,12.126,3.442s7.98,2.636,11.912,4.122c3.932,1.484,7.818,3.079,11.66,4.784
		c1.67,0.727,3.33,1.474,4.981,2.241c1.65,0.768,3.291,1.557,4.922,2.367c1.631,0.809,3.252,1.638,4.863,2.487
		c1.611,0.848,3.211,1.717,4.799,2.607c1.588,0.889,3.165,1.798,4.731,2.728c1.566,0.927,3.121,1.875,4.664,2.842
		c1.541,0.969,3.07,1.956,4.588,2.962c1.518,1.004,3.023,2.029,4.518,3.073c1.49,1.043,2.969,2.104,4.436,3.185
		c1.465,1.08,2.917,2.177,4.356,3.293c1.438,1.117,2.862,2.251,4.271,3.401c1.41,1.153,2.806,2.323,4.187,3.51
		c1.381,1.186,2.746,2.389,4.096,3.61c1.352,1.221,2.688,2.458,4.008,3.712c1.318,1.254,2.622,2.524,3.911,3.811
		c1.287,1.287,2.558,2.59,3.814,3.908c1.256,1.318,2.495,2.652,3.718,3.999c1.223,1.35,2.428,2.715,3.615,4.095
		c1.188,1.379,2.358,2.772,3.513,4.181c1.152,1.408,2.288,2.831,3.407,4.269c1.117,1.435,2.217,2.885,3.299,4.35
		c1.082,1.465,2.146,2.942,3.191,4.433c1.045,1.49,2.07,2.994,3.076,4.512c1.008,1.515,1.996,3.044,2.965,4.585
		c0.971,1.541,1.921,3.094,2.851,4.658c0.93,1.566,1.84,3.143,2.73,4.729c0.893,1.588,1.764,3.187,2.613,4.796
		c0.852,1.609,1.683,3.229,2.493,4.86c0.811,1.629,1.601,3.269,2.37,4.919c0.769,1.648,1.519,3.308,2.247,4.978
		c0.729,1.668,1.437,3.345,2.124,5.03c0.686,1.685,1.351,3.38,1.995,5.083c0.678,1.797,1.333,3.602,1.966,5.414
		c0.633,1.818,1.244,3.636,1.834,5.452c0.588,1.836,1.153,3.672,1.697,5.508c0.545,1.836,1.066,3.682,1.564,5.537
		c0.498,1.855,0.974,3.721,1.427,5.596c0.451,1.855,0.881,3.721,1.289,5.596c0.406,1.875,0.79,3.76,1.151,5.654
		c0.359,1.875,0.696,3.76,1.011,5.654s0.605,3.799,0.873,5.713c0.268,1.895,0.513,3.799,0.736,5.713
		c0.221,1.895,0.418,3.799,0.592,5.713s0.325,3.828,0.454,5.742c0.127,1.914,0.23,3.828,0.311,5.742
		c0.08,1.914,0.136,3.838,0.17,5.771c0.033,1.914,0.043,3.828,0.029,5.742c-0.014,1.934-0.051,3.857-0.111,5.771
		c-0.061,1.914-0.145,3.828-0.252,5.742c-0.109,1.914-0.241,3.828-0.396,5.742c-0.154,1.914-0.332,3.828-0.533,5.742
		c-0.203,1.914-0.429,3.819-0.677,5.713c-0.248,1.914-0.52,3.818-0.815,5.713c-0.295,1.894-0.612,3.789-0.952,5.683
		c-0.342,1.875-0.707,3.76-1.096,5.655c-0.387,1.875-0.797,3.75-1.23,5.625c-0.434,1.856-0.891,3.721-1.371,5.596
		c-0.479,1.855-0.98,3.701-1.506,5.537c-0.523,1.855-1.07,3.701-1.641,5.537c-0.57,1.836-1.163,3.662-1.778,5.479
		c-0.613,1.816-1.25,3.623-1.91,5.42c-0.658,1.797-1.339,3.594-2.042,5.391c-0.703,1.777-1.428,3.555-2.174,5.332
		c-0.748,1.758-1.516,3.515-2.305,5.273c-1.51,3.262-3.099,6.484-4.767,9.668c-1.67,3.184-3.417,6.328-5.241,9.434
		c-1.824,3.105-3.724,6.152-5.701,9.14c-1.977,3.008-4.026,5.967-6.147,8.877c-2.123,2.89-4.316,5.732-6.58,8.525
		c-2.263,2.813-4.596,5.556-6.996,8.232c-2.398,2.676-4.862,5.293-7.392,7.852c-2.529,2.559-5.12,5.049-7.772,7.47
		c-2.652,2.422-5.363,4.785-8.133,7.09c-2.77,2.285-5.595,4.502-8.476,6.65c-2.879,2.168-5.81,4.258-8.795,6.27
		c-2.982,1.992-6.013,3.916-9.094,5.771c-3.078,1.875-6.202,3.662-9.369,5.361c-3.166,1.699-6.373,3.321-9.621,4.864
		c-3.248,1.543-6.532,3.008-9.853,4.395c-3.32,1.387-6.673,2.686-10.058,3.896c-14.613,5.332-45.674,16.582-60.738,9.58
		c-2.93,1.406-5.558,2.608-8.798,3.076c-46.796,6.914-111.879-21.797-147.226-50.977c-46.216-38.203-73.849-95.01-78.844-154.482
		c-0.301-3.711-0.512-7.422-0.633-11.133c-0.121-3.711-0.151-7.422-0.091-11.133c0.063-3.711,0.214-7.422,0.454-11.133
		c0.242-3.711,0.575-7.412,0.999-11.104c0.422-3.672,0.935-7.344,1.538-11.016c0.602-3.672,1.293-7.324,2.074-10.957
		c0.781-3.633,1.65-7.236,2.604-10.811c0.957-3.594,2.001-7.158,3.132-10.693c1.133-3.535,2.35-7.047,3.651-10.535
		c1.303-3.478,2.689-6.923,4.16-10.333c1.471-3.412,3.024-6.786,4.658-10.122c1.636-3.334,3.352-6.627,5.147-9.879
		c1.797-3.252,3.672-6.458,5.625-9.618c1.953-3.158,3.982-6.269,6.085-9.331c2.105-3.06,4.284-6.068,6.536-9.023
		c2.252-2.953,4.574-5.851,6.967-8.692C2225.589,2811.902,2283.011,2786.202,2343.087,2781.383z"/>
	<path style="fill:#060504;" d="M2334.28,2849.548c23.326-3.328,49.723,0.094,71.657,8.344
		c39.407,14.824,72.135,46.705,88.992,85.216c16.143,36.885,16.975,82.412,1.816,119.766c-0.99,2.422-2.039,4.815-3.146,7.178
		c-1.109,2.382-2.276,4.726-3.501,7.031c-1.225,2.324-2.505,4.609-3.841,6.855c-1.338,2.246-2.731,4.453-4.178,6.621
		c-1.447,2.188-2.947,4.336-4.5,6.445s-3.156,4.18-4.81,6.211c-1.656,2.012-3.362,3.994-5.115,5.948
		c-1.754,1.934-3.555,3.828-5.402,5.683c-1.847,1.856-3.739,3.662-5.675,5.42c-1.938,1.758-3.917,3.467-5.938,5.127
		c-2.021,1.66-4.083,3.271-6.185,4.834c-2.101,1.563-4.24,3.067-6.416,4.512c-2.178,1.465-4.389,2.871-6.633,4.219
		c-2.246,1.348-4.523,2.636-6.832,3.867c-2.309,1.231-4.646,2.402-7.014,3.516s-4.76,2.168-7.181,3.164
		c-9.516,3.926-26.241,11.016-36.243,6.973c-2.73,1.875-5.004,3.34-8.291,4.043c-32.461,6.885-75.314-8.408-101.49-27.129
		c-35.071-25.049-56.218-63.194-62.909-105.41c-6.65-41.924,2.513-83.379,27.785-117.677
		C2254.962,2875.371,2291.87,2855.703,2334.28,2849.548z"/>
	<path style="fill:#FEFEFE;" d="M2344.766,2877.02c13.887-0.771,28.816,0.835,42.234,4.456c32.13,8.678,59.953,31.371,76.125,60.343
		c16.605,29.736,20.051,66.387,10.708,98.994c-0.539,1.953-1.126,3.887-1.761,5.801c-0.635,1.914-1.315,3.808-2.042,5.683
		c-0.729,1.894-1.502,3.76-2.321,5.596c-0.82,1.855-1.685,3.682-2.593,5.479s-1.86,3.574-2.856,5.332
		c-0.996,1.758-2.035,3.486-3.117,5.186c-1.082,1.719-2.205,3.399-3.369,5.039c-1.162,1.66-2.365,3.281-3.609,4.863
		c-1.244,1.582-2.526,3.145-3.847,4.688c-1.318,1.523-2.675,3.018-4.069,4.482c-1.393,1.445-2.821,2.871-4.286,4.277
		c-1.463,1.387-2.96,2.735-4.491,4.043c-1.529,1.328-3.091,2.607-4.685,3.838c-1.592,1.25-3.214,2.451-4.866,3.604
		c-1.652,1.172-3.332,2.295-5.039,3.369c-1.707,1.074-3.439,2.109-5.197,3.105c-13.503,7.441-37.62,19.863-53.411,15.352
		c-2.2,1.758-4.14,2.49-6.894,2.871c-26.057,3.574-62.666-12.598-82.737-28.682c-26.35-21.152-42.079-52.061-45.516-85.518
		c-0.235-2.188-0.415-4.385-0.542-6.592c-0.125-2.188-0.195-4.385-0.211-6.592c-0.017-2.207,0.021-4.414,0.114-6.621
		c0.094-2.207,0.241-4.404,0.442-6.592c0.203-2.188,0.46-4.375,0.771-6.563c0.313-2.188,0.678-4.356,1.096-6.504
		c0.42-2.168,0.893-4.326,1.421-6.475c0.525-2.129,1.104-4.248,1.737-6.357c0.631-2.109,1.314-4.209,2.051-6.299
		c0.736-2.07,1.524-4.121,2.362-6.152c0.84-2.051,1.729-4.072,2.666-6.064c0.939-1.992,1.928-3.955,2.965-5.889
		c1.035-1.953,2.119-3.877,3.252-5.771c1.131-1.895,2.309-3.75,3.533-5.566c1.225-1.84,2.494-3.644,3.809-5.411
		c1.315-1.77,2.672-3.505,4.072-5.206C2279.519,2893.333,2309.955,2880.193,2344.766,2877.02z"/>
	<path style="fill:#060504;" d="M2338.455,2943.167c7.588-0.791,15.97-1.26,23.552-0.176c15.097,2.168,28.84,10.752,37.972,22.852
		c0.629,0.84,1.235,1.699,1.819,2.578c0.586,0.879,1.15,1.768,1.693,2.666c0.541,0.918,1.06,1.836,1.556,2.754
		c0.496,0.937,0.969,1.885,1.418,2.842c0.451,0.957,0.878,1.924,1.28,2.901c0.402,0.977,0.78,1.953,1.134,2.93
		c0.354,0.996,0.683,2.002,0.987,3.018c0.303,1.016,0.581,2.031,0.835,3.047c0.254,1.015,0.482,2.041,0.686,3.076
		c0.205,1.035,0.383,2.08,0.533,3.135c0.152,1.035,0.278,2.08,0.378,3.135c0.102,1.054,0.177,2.109,0.226,3.164
		c0.047,1.035,0.068,2.08,0.064,3.135c-0.002,1.055-0.031,2.11-0.088,3.164c-0.055,1.055-0.136,2.11-0.243,3.164
		c-0.109,1.055-0.243,2.1-0.401,3.135c-2.408,15.352-9.973,31.992-22.863,41.103c-5.9,4.189-15.507,9.404-22.79,8.027
		c-1.597,0.938-2.37,1.465-3.981,2.139c-9.396,3.867-26.344,2.08-35.426-2.139c-14.224-6.592-25.064-19.98-30.598-34.424
		c-0.405-1.035-0.782-2.08-1.134-3.135c-0.351-1.055-0.676-2.119-0.972-3.193c-0.299-1.074-0.57-2.158-0.814-3.252
		c-0.242-1.074-0.458-2.168-0.647-3.281c-0.189-1.094-0.351-2.188-0.483-3.281c-0.133-1.114-0.238-2.227-0.317-3.34
		c-0.076-1.114-0.125-2.227-0.146-3.34c-0.022-1.113-0.016-2.227,0.017-3.34c0.035-1.113,0.098-2.217,0.188-3.311
		c0.09-1.113,0.208-2.227,0.354-3.34c0.146-1.094,0.32-2.188,0.521-3.281c0.201-1.094,0.43-2.188,0.686-3.281
		c0.256-1.074,0.539-2.148,0.849-3.223c0.311-1.074,0.648-2.139,1.011-3.193c0.365-1.055,0.756-2.09,1.172-3.105
		c0.416-1.035,0.858-2.061,1.324-3.076C2306.287,2958.313,2320.127,2949.641,2338.455,2943.167z"/>
	<path style="fill:#FEFEFE;" d="M2348.721,2964.465c0.229,0.029,0.457,0.029,0.686,0.059c12.595,1.172,22.945,3.281,31.412,13.711
		c7.45,9.199,10.433,20.947,8.774,32.637c-1.415,9.932-6.211,19.541-14.716,25.225c-6.343,4.219-12.709,6.416-20.215,4.805
		c-0.908,0.469-1.811,0.967-2.757,1.348c-4.896,1.992-13.482-0.352-18-2.696c-9.026-4.658-15.135-14.179-17.933-23.701
		c-3.185-10.84-2.276-22.969,3.63-32.754C2326.566,2971.584,2336.39,2967.571,2348.721,2964.465z"/>
	<path style="fill:#FEFEFE;" d="M1337.884,1535.515c61.327-1.928,124.198,4.104,185.001,11.587
		c27.49,3.381,54.856,7.564,82.099,12.551c27.244,4.988,54.319,10.771,81.223,17.35c26.904,6.578,53.592,13.94,80.063,22.087
		c26.471,8.146,52.68,17.062,78.627,26.748c114.393,43.591,221.986,104.505,327.431,166.137
		c74.307,42.531,148.194,85.777,221.66,129.738c46.564,27.85,92.112,57.293,139.231,84.229
		c-12.434,99.938-23.842,233.423,30.788,323.704c27.645,45.686,64.6,64.655,114.847,77.021
		c0.449,56.756,0.292,113.511-0.472,170.265c-71.593-62.481-154.644-107.848-248.88-123.876l-0.076-24.935
		c-0.135-68.095-3.694-152.027,4.233-218.332c-193.418-126.272-498.727-114.642-722.954-114.437
		c-0.885-39.201-1.278-78.406-1.181-117.615c-0.082-21.527,1.052-43.992-1.151-65.373c-0.677-6.545-1.705-17.253-6.58-22.014
		c-9.457-9.234-23.499-7.734-35.669-7.828l0.132-134.977l-38.379-0.047c0.809,44.998,0.91,89.998,0.305,135
		c-13.19,0.738-31.872-0.419-41.447,10.148c-11.49,12.686-6.574,175.04-6.659,202.77c-26.848,0.173-79.268,6.92-102.94-1.913
		c-5.118-4.784-7.825-11.537-10.462-17.93c-38.61-93.73-71.414-190.79-105.923-286.149
		c-18.152-50.156-41.815-101.338-54.721-152.985c10.576,0.633,23.581,2.528,33.888-0.196c6.299-1.661,12.317-4.556,15.498-10.515
		C1365.104,1607.594,1343.532,1555.141,1337.884,1535.515z"/>
	<path style="fill:#FEFEFE;" d="M856.249,2508.084c68.335,0.399,133.324,14.561,193.319,48.062c2.992,1.684,5.963,3.404,8.912,5.162
		s5.877,3.551,8.783,5.379c2.906,1.828,5.789,3.692,8.648,5.593c2.859,1.9,5.695,3.835,8.508,5.803
		c2.813,1.969,5.6,3.972,8.364,6.009c2.764,2.039,5.501,4.11,8.212,6.214c2.713,2.105,5.4,4.243,8.06,6.413
		c2.66,2.17,5.293,4.373,7.898,6.609c2.605,2.234,5.184,4.501,7.734,6.8c2.551,2.299,5.072,4.628,7.564,6.988
		c2.494,2.361,4.958,4.752,7.392,7.172c2.436,2.42,4.84,4.87,7.213,7.351c2.375,2.48,4.719,4.989,7.031,7.526
		c2.315,2.537,4.596,5.102,6.844,7.693c2.25,2.594,4.468,5.214,6.653,7.86c2.186,2.649,4.339,5.322,6.46,8.021
		c2.119,2.701,4.206,5.427,6.261,8.18c2.053,2.75,4.071,5.525,6.056,8.326s3.935,5.626,5.851,8.476
		c1.916,2.85,3.797,5.722,5.643,8.616c1.846,2.895,3.655,5.812,5.429,8.751s3.511,5.899,5.212,8.88
		c1.701,2.982,3.365,5.985,4.992,9.009c1.627,3.021,3.217,6.064,4.77,9.126c1.553,3.063,3.068,6.143,4.544,9.24
		c1.477,3.1,2.916,6.216,4.318,9.349c1.4,3.135,2.762,6.286,4.084,9.454c1.324,3.168,2.608,6.35,3.852,9.548
		c1.246,3.199,2.452,6.413,3.618,9.642c1.166,3.231,2.293,6.474,3.381,9.729c1.086,3.256,2.133,6.524,3.141,9.806
		c1.006,3.283,1.972,6.577,2.897,9.882c28.626,102.439,17.127,219.756-35.42,312.744c-1.684,3.008-3.404,5.996-5.162,8.965
		c-1.758,2.949-3.553,5.889-5.385,8.818c-1.83,2.93-3.695,5.83-5.596,8.701c-1.902,2.871-3.839,5.723-5.809,8.555
		c-1.971,2.813-3.977,5.615-6.018,8.408c-2.041,2.773-4.115,5.517-6.223,8.232c-2.107,2.734-4.248,5.439-6.422,8.115
		c-2.174,2.676-4.381,5.322-6.621,7.939c-2.24,2.618-4.512,5.205-6.814,7.764c-2.303,2.578-4.637,5.117-7.002,7.617
		c-2.365,2.5-4.761,4.981-7.187,7.442c-2.426,2.441-4.882,4.853-7.368,7.236c-2.486,2.382-5.001,4.746-7.544,7.09
		c-2.543,2.324-5.114,4.609-7.714,6.855c-2.6,2.266-5.228,4.502-7.884,6.709c-2.654,2.187-5.335,4.356-8.042,6.504
		c-2.709,2.129-5.443,4.219-8.203,6.27c-2.758,2.07-5.542,4.102-8.352,6.094c-2.809,2.012-5.642,3.975-8.499,5.889
		c-2.857,1.933-5.738,3.828-8.643,5.684c-2.904,1.855-5.831,3.672-8.78,5.449c-2.949,1.797-5.92,3.545-8.912,5.244
		c-2.99,1.719-6.002,3.399-9.035,5.04c-3.033,1.641-6.086,3.242-9.158,4.805s-6.163,3.086-9.272,4.57
		c-3.109,1.484-6.237,2.93-9.384,4.336c-3.145,1.406-6.306,2.783-9.486,4.131c-3.178,1.328-6.372,2.617-9.583,3.867
		c-3.211,1.25-6.437,2.461-9.677,3.633c-3.242,1.172-6.497,2.304-9.765,3.398c-3.269,1.094-6.551,2.149-9.844,3.164
		c-3.295,1.015-6.602,1.992-9.92,2.93c-21.568,5.976-82.374,21.738-100.77,11.367c-3.779,2.285-7.245,2.958-11.613,3.164
		c-25.471,1.289-52.515-5.42-77.019-11.924c-70.796-18.779-127.913-45.469-182.057-95.595
		c-83.051-76.875-134.309-182.168-138.451-295.811c-0.135-3.326-0.229-6.653-0.281-9.982c-0.053-3.328-0.065-6.656-0.038-9.984
		c0.029-3.328,0.099-6.656,0.208-9.984c0.109-3.326,0.26-6.65,0.451-9.973c0.191-3.324,0.424-6.645,0.697-9.961
		c0.271-3.318,0.584-6.632,0.938-9.941c0.353-3.311,0.748-6.615,1.184-9.914c0.434-3.301,0.908-6.596,1.424-9.885
		c0.516-3.287,1.071-6.568,1.667-9.844c0.596-3.275,1.23-6.543,1.904-9.803c0.676-3.26,1.392-6.51,2.148-9.75
		c0.754-3.242,1.548-6.475,2.382-9.697c0.834-3.223,1.708-6.435,2.622-9.636c0.912-3.201,1.863-6.391,2.854-9.568
		c0.992-3.178,2.022-6.343,3.091-9.495c1.068-3.152,2.175-6.291,3.319-9.416c1.145-3.125,2.328-6.236,3.551-9.334
		c1.221-3.095,2.479-6.177,3.776-9.243c1.297-3.066,2.631-6.116,4.002-9.149c1.371-3.031,2.779-6.047,4.225-9.047
		c1.445-2.998,2.927-5.979,4.444-8.941c1.518-2.963,3.071-5.906,4.661-8.83c1.592-2.924,3.218-5.828,4.878-8.713
		c1.662-2.885,3.358-5.749,5.089-8.593c1.732-2.842,3.498-5.663,5.297-8.464c1.801-2.799,3.636-5.576,5.505-8.332
		c1.867-2.754,3.769-5.485,5.704-8.194c1.936-2.709,3.904-5.394,5.906-8.054c2-2.66,4.033-5.296,6.1-7.907
		c2.064-2.609,4.161-5.194,6.29-7.755c2.129-2.559,4.289-5.091,6.48-7.597c2.19-2.508,4.41-4.988,6.662-7.438
		C636.9,2553.67,739.521,2511.884,856.249,2508.084z"/>
	<path style="fill:#060504;" d="M842.066,2656.406c31.368-3.817,68.212,2.367,97.875,12.287
		c65.118,21.779,122.71,70.532,152.956,132.366c30.967,63.311,37.418,136.043,14.329,203.075c-0.691,2.011-1.407,4.023-2.147,6.035
		c-0.742,1.992-1.508,3.975-2.297,5.947c-0.791,1.992-1.605,3.965-2.443,5.918c-0.84,1.953-1.703,3.896-2.59,5.83
		c-0.887,1.953-1.797,3.887-2.73,5.801c-0.936,1.914-1.894,3.818-2.874,5.713c-0.983,1.895-1.987,3.77-3.015,5.625
		c-1.029,1.875-2.08,3.73-3.152,5.566c-1.074,1.836-2.171,3.662-3.29,5.479c-1.119,1.816-2.261,3.623-3.425,5.42
		c-1.162,1.777-2.347,3.545-3.554,5.303c-1.209,1.758-2.438,3.496-3.688,5.215c-1.25,1.738-2.521,3.447-3.814,5.127
		c-1.291,1.699-2.604,3.379-3.938,5.039c-1.334,1.66-2.688,3.311-4.063,4.951c-1.375,1.621-2.77,3.233-4.184,4.834
		c-1.416,1.602-2.85,3.174-4.304,4.717c-1.453,1.563-2.926,3.105-4.418,4.629c-1.49,1.523-3,3.028-4.529,4.512
		c-1.529,1.485-3.076,2.949-4.641,4.395c-1.564,1.446-3.147,2.881-4.749,4.307c-1.6,1.406-3.217,2.793-4.852,4.16
		c-1.635,1.367-3.286,2.715-4.954,4.043c-1.668,1.328-3.352,2.637-5.051,3.926c-1.699,1.27-3.415,2.53-5.148,3.78
		c-1.73,1.25-3.477,2.471-5.238,3.662c-1.762,1.211-3.538,2.392-5.329,3.545c-1.791,1.153-3.596,2.285-5.414,3.398
		c-1.818,1.113-3.65,2.207-5.496,3.281c-1.846,1.054-3.704,2.1-5.575,3.135c-1.873,1.016-3.757,2.012-5.651,2.988
		c-1.897,0.977-3.805,1.924-5.725,2.842c-21.325,10.342-77.968,31.846-101.007,23.877c-2.719,2.11-5.294,2.725-8.651,3.018
		c-60.079,5.332-130.869-20.566-176.73-58.242c-1.629-1.367-3.242-2.744-4.84-4.131c-1.596-1.406-3.175-2.822-4.737-4.248
		c-1.563-1.445-3.108-2.9-4.638-4.365c-1.527-1.485-3.036-2.979-4.526-4.483c-1.492-1.504-2.966-3.027-4.421-4.57
		c-1.455-1.543-2.891-3.106-4.31-4.688c-1.418-1.582-2.816-3.183-4.195-4.804c-1.379-1.602-2.738-3.233-4.078-4.893
		c-1.34-1.641-2.66-3.301-3.961-4.98s-2.58-3.369-3.838-5.069c-1.26-1.699-2.499-3.418-3.718-5.156
		c-1.219-1.738-2.416-3.496-3.592-5.273c-1.176-1.758-2.33-3.535-3.463-5.332c-1.133-1.797-2.244-3.603-3.334-5.42
		c-1.09-1.816-2.158-3.652-3.205-5.508c-1.045-1.836-2.068-3.691-3.07-5.566c-1-1.875-1.979-3.76-2.936-5.654
		c-0.955-1.895-1.888-3.799-2.798-5.713c-0.91-1.914-1.797-3.848-2.66-5.801c-0.863-1.934-1.704-3.877-2.523-5.83
		c-0.816-1.953-1.609-3.926-2.379-5.918c-0.769-1.973-1.515-3.955-2.235-5.947c-0.723-1.992-1.421-3.994-2.095-6.006
		c-0.674-2.012-1.323-4.033-1.948-6.064c-0.625-2.031-1.226-4.063-1.802-6.094c-0.576-2.051-1.128-4.102-1.655-6.152
		c-0.527-2.07-1.03-4.131-1.509-6.182c-0.477-2.07-0.929-4.15-1.356-6.24c-0.428-2.07-0.831-4.15-1.21-6.24
		c-0.377-2.09-0.729-4.18-1.058-6.27c-0.326-2.11-0.628-4.209-0.905-6.299c-0.277-2.109-0.529-4.219-0.756-6.328
		c-0.23-2.188-0.434-4.375-0.609-6.562c-0.176-2.188-0.323-4.375-0.442-6.563c-0.121-2.188-0.215-4.379-0.281-6.574
		c-0.066-2.193-0.105-4.387-0.117-6.58c-0.012-2.196,0.004-4.39,0.047-6.583c0.043-2.195,0.113-4.389,0.211-6.58
		c0.098-2.191,0.223-4.382,0.375-6.571c0.152-2.189,0.332-4.377,0.539-6.563c0.207-2.184,0.441-4.365,0.703-6.545
		c0.262-2.177,0.551-4.352,0.867-6.524c0.314-2.172,0.657-4.339,1.028-6.501c0.369-2.164,0.766-4.322,1.189-6.475
		c0.422-2.154,0.872-4.302,1.351-6.442c0.477-2.143,0.979-4.278,1.509-6.407c0.531-2.129,1.089-4.252,1.673-6.369
		c0.582-2.115,1.191-4.223,1.828-6.322c0.635-2.1,1.296-4.191,1.983-6.275c0.689-2.084,1.403-4.159,2.142-6.226
		c0.74-2.066,1.506-4.123,2.297-6.17c0.791-2.047,1.607-4.083,2.449-6.108c0.842-2.027,1.709-4.044,2.602-6.05
		c0.891-2.004,1.808-3.997,2.751-5.98c0.941-1.982,1.907-3.952,2.898-5.909c0.99-1.959,2.006-3.904,3.047-5.836
		c1.039-1.934,2.102-3.854,3.188-5.76c1.088-1.906,2.199-3.799,3.334-5.678c1.135-1.879,2.292-3.743,3.472-5.593
		c1.182-1.85,2.386-3.683,3.612-5.502c1.227-1.82,2.476-3.625,3.747-5.414c1.271-1.789,2.565-3.562,3.882-5.317
		c1.314-1.756,2.651-3.495,4.011-5.218c1.359-1.723,2.74-3.429,4.143-5.118C702.217,2692.684,768.461,2663.475,842.066,2656.406z"/>
	<path style="fill:#FEFEFE;" d="M835.714,2679.799c29.813-5.174,68.285,2.64,96.489,12.047
		c63.281,21.111,110.953,65.282,140.189,124.831c0.85,1.768,1.678,3.546,2.484,5.335c0.805,1.789,1.588,3.588,2.35,5.397
		c0.762,1.808,1.501,3.626,2.218,5.452c0.717,1.828,1.411,3.664,2.083,5.508c0.67,1.844,1.317,3.695,1.942,5.555
		c0.627,1.86,1.229,3.727,1.808,5.602c0.58,1.875,1.137,3.757,1.67,5.646c0.533,1.886,1.043,3.781,1.529,5.684
		c0.486,1.9,0.949,3.806,1.389,5.719s0.855,3.83,1.245,5.754c0.393,1.922,0.761,3.849,1.104,5.781
		c0.344,1.931,0.664,3.867,0.961,5.807c0.297,1.939,0.569,3.883,0.817,5.83c0.25,1.946,0.475,3.894,0.674,5.845
		c0.201,1.953,0.378,3.907,0.53,5.862c0.152,1.957,0.28,3.915,0.384,5.874c0.103,1.959,0.183,3.919,0.237,5.88
		c0.057,1.963,0.088,3.925,0.094,5.886c0.008,1.963-0.009,3.925-0.05,5.886c-0.043,1.961-0.108,3.923-0.196,5.886
		c-0.092,1.953-0.206,3.906-0.343,5.859c-0.139,1.972-0.301,3.936-0.486,5.888c-0.188,1.953-0.399,3.897-0.633,5.83
		c-0.234,1.953-0.493,3.906-0.776,5.859c-0.281,1.934-0.588,3.867-0.92,5.801c-0.33,1.934-0.684,3.867-1.061,5.801
		c-0.379,1.914-0.781,3.828-1.207,5.742c-0.426,1.914-0.875,3.828-1.348,5.742c-0.473,1.895-0.969,3.789-1.488,5.683
		c-0.52,1.895-1.062,3.78-1.626,5.655c-0.566,1.875-1.156,3.75-1.77,5.625c-0.611,1.855-1.246,3.711-1.904,5.566
		c-20.385,59.063-62.531,105.176-118.863,132.071c-19.626,9.375-64.664,28.828-85.339,21.563c-2.564,1.67-4.699,2.724-7.72,3.223
		c-48.642,8.027-123.214-20.742-161.276-49.893c-50.502-38.701-81.363-97.705-88.995-160.283c-0.242-1.973-0.461-3.936-0.656-5.889
		c-0.193-1.973-0.362-3.945-0.507-5.918c-0.146-1.973-0.268-3.952-0.363-5.938c-0.096-1.977-0.167-3.954-0.214-5.933
		c-0.045-1.98-0.066-3.96-0.064-5.938c0.002-1.98,0.029-3.96,0.082-5.939c0.053-1.978,0.13-3.956,0.232-5.932
		c0.102-1.979,0.227-3.954,0.378-5.927c0.15-1.975,0.325-3.946,0.524-5.915s0.423-3.936,0.671-5.901
		c0.25-1.963,0.523-3.923,0.82-5.88c0.297-1.957,0.619-3.91,0.967-5.859c0.346-1.949,0.716-3.894,1.11-5.833
		c0.394-1.941,0.813-3.876,1.254-5.804c0.443-1.929,0.91-3.854,1.4-5.771c0.49-1.918,1.005-3.83,1.544-5.737
		c0.539-1.904,1.101-3.802,1.685-5.692c0.586-1.891,1.195-3.775,1.828-5.652c0.633-1.875,1.288-3.742,1.966-5.602
		c0.68-1.859,1.382-3.71,2.107-5.552s1.473-3.675,2.244-5.499c0.772-1.824,1.565-3.638,2.379-5.441
		c0.816-1.805,1.655-3.597,2.517-5.379c0.859-1.783,1.741-3.555,2.646-5.317c0.904-1.76,1.831-3.509,2.78-5.247
		c0.947-1.738,1.917-3.464,2.909-5.177c0.99-1.713,2.003-3.414,3.038-5.104c1.033-1.687,2.087-3.362,3.161-5.024
		c1.076-1.662,2.172-3.311,3.287-4.945c1.117-1.635,2.254-3.256,3.41-4.864c1.156-1.607,2.333-3.199,3.53-4.775
		c1.197-1.578,2.413-3.14,3.647-4.687C711.203,2716.901,771.036,2687.492,835.714,2679.799z"/>
	<path style="fill:#060504;" d="M844.427,2783.156c17.968-2.077,37.699,0.428,54.844,6.032c2.141,0.721,4.262,1.493,6.363,2.317
		c2.104,0.824,4.185,1.699,6.243,2.625c2.059,0.928,4.094,1.905,6.105,2.933c2.012,1.027,3.996,2.104,5.953,3.229
		c1.957,1.125,3.886,2.298,5.786,3.519c1.9,1.221,3.77,2.487,5.608,3.8c1.836,1.313,3.64,2.67,5.411,4.072
		c1.769,1.401,3.504,2.844,5.203,4.33c1.699,1.488,3.361,3.017,4.986,4.585c1.623,1.571,3.207,3.179,4.752,4.825
		c1.545,1.646,3.048,3.331,4.509,5.054c1.461,1.721,2.879,3.476,4.254,5.267c1.375,1.791,2.705,3.615,3.99,5.473
		c1.285,1.855,2.523,3.742,3.715,5.66c1.191,1.918,2.335,3.864,3.431,5.839c1.096,1.974,2.142,3.975,3.138,6
		c15.574,31.383,19.307,69.393,7.942,102.733c-11.171,32.783-35.739,63.896-67.216,79.131c-12.7,6.152-35.13,16.201-49.251,11.367
		c-2.438,1.67-4.286,2.695-7.26,3.164c-29.839,4.629-67.245-9.902-90.788-27.539c-1.756-1.328-3.478-2.705-5.168-4.131
		c-1.689-1.406-3.343-2.861-4.96-4.365c-1.617-1.504-3.196-3.037-4.737-4.6c-1.541-1.582-3.042-3.203-4.503-4.863
		c-1.461-1.641-2.881-3.321-4.26-5.039c-1.379-1.719-2.715-3.477-4.008-5.274c-1.291-1.777-2.538-3.594-3.741-5.449
		c-1.203-1.836-2.359-3.711-3.469-5.625c-1.111-1.895-2.174-3.818-3.188-5.771c-1.016-1.953-1.982-3.936-2.9-5.947
		c-0.916-2.012-1.783-4.033-2.601-6.064c-0.818-2.051-1.585-4.121-2.3-6.211c-0.715-2.09-1.379-4.189-1.992-6.299
		c-0.611-2.129-1.171-4.258-1.679-6.387c-0.506-2.149-0.96-4.307-1.362-6.475c-0.4-2.168-0.747-4.346-1.04-6.533
		c-5.183-36.636,6.161-73.84,28.515-103.023C772.799,2804.126,805.773,2788.262,844.427,2783.156z"/>
	<path style="fill:#FEFEFE;" d="M835.342,2812.344c16.295-1.922,33.076-2.449,49.119,1.471
		c28.245,6.899,51.504,26.057,66.308,50.769c0.902,1.488,1.767,2.997,2.593,4.527c0.826,1.529,1.614,3.079,2.364,4.649
		c0.75,1.568,1.46,3.155,2.13,4.761c0.672,1.605,1.303,3.226,1.893,4.86c0.59,1.636,1.14,3.286,1.649,4.948
		c0.508,1.664,0.975,3.339,1.4,5.024c0.426,1.688,0.809,3.384,1.148,5.089c0.342,1.705,0.641,3.418,0.896,5.139
		c0.256,1.719,0.47,3.443,0.642,5.174c0.17,1.73,0.297,3.465,0.381,5.203c0.086,1.736,0.128,3.474,0.126,5.215
		c-0.002,1.739-0.047,3.476-0.135,5.212c-0.088,1.738-0.219,3.473-0.393,5.203c-0.176,1.729-0.393,3.452-0.65,5.171
		c-0.26,1.719-0.563,3.427-0.908,5.127c-0.344,1.719-0.73,3.418-1.16,5.098c-7.386,29.18-28.031,53.73-53.625,68.965
		c-8.534,5.098-23.139,12.393-33.094,9.814c-2.956,1.494-5.947,3.018-9.199,3.779c-20.965,4.922-46.193-2.285-64.468-12.51
		c-1.574-0.879-3.126-1.797-4.655-2.754c-1.529-0.957-3.033-1.953-4.512-2.988c-1.479-1.035-2.931-2.109-4.356-3.223
		c-1.426-1.094-2.823-2.226-4.192-3.398c-1.369-1.191-2.709-2.403-4.019-3.633c-1.309-1.25-2.586-2.529-3.832-3.838
		c-1.246-1.289-2.459-2.617-3.639-3.984c-1.178-1.367-2.322-2.764-3.434-4.189c-1.109-1.426-2.183-2.871-3.22-4.336
		c-1.039-1.484-2.04-2.988-3.003-4.512c-0.963-1.523-1.888-3.076-2.774-4.658c-0.887-1.563-1.733-3.154-2.54-4.775
		c-0.807-1.602-1.573-3.233-2.3-4.893c-0.725-1.66-1.409-3.33-2.054-5.01c-0.642-1.68-1.242-3.379-1.799-5.098
		c-0.559-1.719-1.074-3.447-1.547-5.186c-0.486-1.699-0.932-3.408-1.336-5.127c-0.402-1.719-0.763-3.447-1.081-5.186
		c-0.318-1.738-0.593-3.486-0.823-5.244c-0.232-1.739-0.422-3.49-0.568-5.253c-0.144-1.76-0.246-3.522-0.305-5.288
		c-0.06-1.766-0.076-3.531-0.047-5.297c0.027-1.766,0.099-3.529,0.214-5.291c0.113-1.764,0.272-3.522,0.475-5.276
		c0.201-1.754,0.445-3.503,0.732-5.247c0.287-1.742,0.617-3.476,0.99-5.203c0.371-1.727,0.786-3.443,1.245-5.147
		c0.457-1.707,0.955-3.401,1.494-5.083c0.541-1.679,1.123-3.346,1.746-5.001c0.623-1.652,1.286-3.289,1.989-4.91
		c0.703-1.619,1.445-3.221,2.227-4.805c0.781-1.584,1.602-3.147,2.461-4.69C776.359,2837.463,803.971,2821.122,835.342,2812.344z"/>
	<path style="fill:#060504;" d="M850.413,2878.778c7.134-0.48,14.104,0.249,20.763,3.012c9.697,4.022,17.449,11.121,21.422,20.944
		c0.492,1.238,0.92,2.498,1.283,3.779c0.363,1.283,0.66,2.581,0.891,3.894c0.23,1.313,0.393,2.634,0.489,3.964
		c0.096,1.328,0.123,2.658,0.082,3.99c-0.041,1.332-0.15,2.658-0.328,3.979c-0.176,1.322-0.419,2.631-0.73,3.926
		c-0.311,1.297-0.686,2.575-1.128,3.835c-0.441,1.25-0.945,2.48-1.512,3.691c-6.152,13.418-16.837,19.922-30.155,24.58
		c-9.123-0.088-16.878-0.762-25.028-5.449c-9.949-5.713-17.71-15.264-20.561-26.449c-2.552-10.005-1.075-20.944,4.661-29.61
		C827.881,2885.815,838.105,2881.581,850.413,2878.778z"/>
	<path style="fill:#FEFEFE;" d="M844.014,2890.165c4.641-0.225,9.815-0.627,14.432-0.014c8.522,1.128,16.925,5.906,21.879,12.993
		c3.867,5.525,5.159,12.038,3.943,18.647c-2.071,11.238-10.125,17.508-18.873,23.66c-4.345,1.025-9.375,1.494-13.828,1.055
		c-8.086-0.85-16.09-6.064-20.593-12.715c-4.441-6.577-5.71-15.009-4.072-22.711
		C829.143,2900.554,835.612,2895.706,844.014,2890.165z"/>
	<path style="fill:#FEFEFE;" d="M581.347,1625.582c227.563-1.084,455.122-0.741,682.679,1.028
		c7.667,28.146,18.914,55.825,28.655,83.326c19.684,56.611,40.235,112.907,61.652,168.888
		c27.536,73.697,51.788,149.611,82.383,222.068c3.275,7.755,7.251,17.938,13.336,23.933c15.984,15.75,58.641,10.069,79.307,9.568
		l-0.275,205.445c-0.117,44.856,0.557,89.845-1.767,134.651c-28.058,0.859-59.646,4.582-87.305,0.609
		c-7.462-1.072-9.94-3.808-14.347-9.759c-48.513-69.1-119.118-131.095-191.241-174.595
		c-155.028-93.501-327.109-122.508-502.937-78.832c-5.276-6.176-10.608-12.419-16.286-18.229
		c-9.835-10.063-20.845-16.055-34.397-19.626c-29.561-7.79-63.897-4.67-94.251-4.652c-33.051,0.041-66.1-0.13-99.147-0.513
		c-3.521-64.28-1.04-129.75-1.002-194.174l0.126-348.903L581.347,1625.582z"/>
	<path style="fill:#060504;" d="M746.719,1676.369c20.716-0.264,41.748-2.59,58.377,12.519c14.546,13.219,15.571,35.1,15.888,53.628
		c1.274,74.569,0.639,149.306,0.744,223.89c0.047,33.653,3.797,82.512-1.901,113.868c-1.491,8.221-6.653,15.762-12.431,21.636
		c-5.171,5.262-10.14,8.648-17.388,10.412c-22.491,5.473-48.993,2.739-72.106,2.728l-109.128-0.064
		c-20.256,0.516-45.483,3.976-61.673-10.963c-9.794-9.038-11.736-27.683-12.328-40.371c-3.577-77.057-0.205-155.567,0.143-232.793
		c0.158-35.605-4.072-74.262,0.132-109.418c1.4-11.707,5.092-23.391,13.421-32.074c6.978-7.277,17.103-9.979,26.789-11.502
		c19.878-3.132,41.807-1.427,61.972-1.444L746.719,1676.369z"/>
	<path style="fill:#FEFEFE;" d="M574.193,1697.19c28.084-2.977,57.861-1.081,86.109-1.014c40.137,0.1,80.528-0.732,120.624,1.146
		c4.424,2.991,9.741,6.094,13.301,10.128c4.427,5.024,5.08,11.033,5.651,17.426c3.58,40.034,0.612,82.146,0.656,122.44
		c0.082,75.847,0.812,151.758,0.009,227.599c-5.528,8.795-11.107,14.06-19.603,19.796c-30.732,3.018-63.343,0.337-94.339,0.366
		c-33.908,0.032-69.648,2.909-103.222-0.416c-8.019-0.794-16.468-1.863-22.96-6.949c-3.111-10.245-4.462-20.895-4.931-31.576
		c-3.346-76.316-0.744-153.844-0.513-230.285c0.088-29.051-3.354-83.148,1.896-109.005
		C558.747,1707.605,566.992,1702.188,574.193,1697.19z"/>
	<path style="fill:#060504;" d="M784.811,1827.772c0.794,0.659,0.668,1.954,0.917,2.953
		c-40.342,60.996-94.078,110.511-147.097,160.268l-1.225-1.948C663.973,1947.719,746.101,1857.552,784.811,1827.772z"/>
	<path style="fill:#060504;" d="M951.973,1672.44l158.898,0.419c28.881,0.085,61.594-3.047,89.871,2.432
		c8.493,1.644,14.924,5.874,21.111,11.763c6.744,6.416,11.599,14.742,15.325,23.192c10.617,24.062,18.724,49.983,27.513,74.771
		c15.75,44.383,31.216,88.865,46.397,133.448c15.225,44.9,33.864,89.804,47.118,135.226c1.547,5.306,2.587,10.664,2.411,16.225
		c-0.366,11.736-4.371,24.202-13.172,32.332c-16.84,15.551-43.925,12.612-65.048,12.354l-242.162,0.258
		c-40.94,0.088-85.099,3.806-125.593-0.489c-10.512-1.116-19.11-2.402-26.95-10.093c-13.503-13.251-14.121-27.521-14.54-45.369
		c-1.626-69.132-0.475-138.639-0.539-207.806c-0.038-41.397-3.275-85.934,1.471-126.832c1.559-13.418,2.871-25.685,12.733-35.701
		C904.709,1670.392,928.638,1672.575,951.973,1672.44z"/>
	<path style="fill:#FEFEFE;" d="M921.077,1693.088c22.321-3.656,55.652-0.401,79.468-0.357l116.229,0.27
		c27.185,0.079,55.339-1.403,82.234,3.021c8.241,7.974,13.518,16.037,18.164,26.493c28.887,64.989,49.037,135.419,73.096,202.483
		c9.94,27.703,46.11,116.745,48.87,140.569c0.797,6.896-2.191,16.113-7.128,21.088c-5.25,5.291-17.297,6.478-24.486,7.225
		c-24.287,2.528-50.142,0.958-74.634,1.017c-47.75,0.176-95.499,0.086-143.247-0.27c16.908-17.188,33.729-34.461,50.461-51.82
		c19.901-20.795,93.079-95.933,103.178-116.93c-14.648,9.062-28.409,23.713-41.2,35.353
		c-46.652,42.899-91.701,87.419-135.147,133.562c-35.115-0.018-119.209,4.538-149.112-0.606c-7.479-1.286-13.799-3.375-19.524-8.543
		c-2.543-11.036-4.456-21.812-4.851-33.153c-1.043-29.965-1.711-325.342,2.59-337.992
		C899.878,1703.196,911.245,1698.192,921.077,1693.088z"/>
	<path style="fill:#060504;" d="M1207.469,1765.264l0.223,3.261c-20.443,33.214-50.804,61.849-77.856,89.728
		c-60.829,62.687-124.951,122.048-188.282,182.177l0.211-3.387C1028.321,1944.734,1109.321,1845.746,1207.469,1765.264z"/>
</g>
</svg>
