<?xml version="1.0" encoding="utf-8"?>
<!-- Generator: Adobe Illustrator 27.5.0, SVG Export Plug-In . SVG Version: 6.00 Build 0)  -->
<svg xmlns="http://www.w3.org/2000/svg" xmlns:xlink="http://www.w3.org/1999/xlink" viewBox="0 0 500 500" width="595" height="842" preserveAspectRatio="xMidYMid meet" data-scaled="true">
<g id="BACKGROUND">
	<rect style="fill:#FFFFFF;" width="500" height="500"/>
</g>
<g id="OBJECTS">
	<g>
		<g>
			<g>
				<g>
					<g>
						
							<ellipse transform="matrix(0.1602 -0.9871 0.9871 0.1602 19.637 242.1417)" cx="152.12" cy="109.531" rx="12.421" ry="12.421"/>
						
							<ellipse transform="matrix(0.1602 -0.9871 0.9871 0.1602 20.7039 245.3597)" style="fill:none;stroke:#000000;stroke-miterlimit:10;" cx="154.545" cy="110.513" rx="15.192" ry="15.192"/>
						<path style="fill:#FFFFFF;stroke:#000000;stroke-miterlimit:10;" d="M166.411,105.896c0,1.53-1.24,2.77-2.77,2.77
							c-1.53,0-2.77-1.24-2.77-2.77s1.24-2.77,2.77-2.77C165.171,103.126,166.411,104.366,166.411,105.896z"/>
						
							<ellipse transform="matrix(0.9239 -0.3827 0.3827 0.9239 -30.8336 68.6655)" style="fill:none;stroke:#000000;stroke-miterlimit:10;" cx="157.186" cy="111.838" rx="18.156" ry="18.156"/>
						<g>
							<path d="M138.861,108.317c0.518-4.247,2.693-8.348,6.014-11.228c3.289-2.916,7.689-4.589,12.116-4.614
								c2.209-0.011,4.425,0.353,6.507,1.093c2.073,0.757,4.026,1.852,5.698,3.278c3.381,2.807,5.646,6.864,6.24,11.103
								l-0.978,0.208c-1.103-3.894-3.478-7.294-6.588-9.657c-3.114-2.363-6.977-3.65-10.854-3.595
								c-3.88-0.001-7.72,1.38-10.787,3.804c-3.063,2.429-5.359,5.882-6.384,9.796L138.861,108.317z"/>
						</g>
					</g>
					<path style="fill:none;stroke:#000000;stroke-miterlimit:10;" d="M167.197,79.567c0.346,0.691,0.91,1.245,1.484,1.761
						c1.883,1.69,4.018,3.139,6.401,3.988c0.596,0.212,1.224,0.388,1.854,0.329c0.63-0.06,1.266-0.399,1.525-0.977
						c0.298-0.665,0.038-1.437-0.261-2.101c-0.763-1.697-1.805-3.303-3.245-4.481c-1.408-1.153-3.713-2.107-5.568-2.173
						C167.503,75.845,166.373,77.919,167.197,79.567z"/>
				</g>
				<g>
					<path d="M179.865,142.467c-3.445,2.477-7.012,4.794-10.795,6.773c-3.788,1.951-7.832,3.526-12.086,4.269
						c-4.238,0.804-8.692,0.532-12.834-0.58c-4.161-1.068-8.094-2.698-12.129-3.827c-2.016-0.567-4.053-1.008-6.12-1.203
						c-2.07-0.193-4.163-0.197-6.261-0.094c-4.197,0.192-8.415,0.754-12.718,0.743c-4.276-0.055-8.694-0.662-12.6-2.734
						c-1.948-1.009-3.701-2.45-5.066-4.188c-1.376-1.734-2.351-3.759-2.965-5.855c-1.223-4.223-1.158-8.613-0.813-12.856
						c0.087-1.065,0.201-2.126,0.328-3.183l0.196-1.583l0.102-0.79c0.038-0.284,0.09-0.57,0.159-0.853
						c0.279-1.136,0.83-2.249,1.859-3.063c0.523-0.411,1.222-0.62,1.856-0.646c0.641-0.028,1.229,0.087,1.757,0.21
						c1.051,0.248,2.031,0.528,2.686,0.214c0.861-0.407,1.865-0.951,2.792-1.411l5.655-2.884c3.743-1.95,7.44-3.979,10.866-6.388
						c3.448-2.386,6.563-5.172,9.231-8.411c2.742-3.212,5.394-6.523,8.223-9.708c2.82-3.185,5.808-6.272,9.182-8.938
						c3.335-2.701,7.135-4.892,11.225-6.304c8.192-2.822,17.286-2.5,25.378,0.41c4.052,1.458,7.876,3.577,11.217,6.312
						c3.343,2.725,6.172,6.109,8.289,9.857c4.249,7.545,6.034,16.111,7.001,24.529c0.971,8.45,1.321,16.966,1.048,25.463
						c-0.561,17.022-3.83,33.73-5.522,50.555c-0.844,8.41-1.268,16.883-0.632,25.301l0.247,3.154l0.41,3.135
						c0.223,2.099,0.683,4.157,1.074,6.228c0.806,4.134,2.09,8.169,3.818,11.988c1.709,3.826,4.035,7.374,6.928,10.346
						c1.453,1.477,3.032,2.833,4.804,3.902c0.438,0.274,0.857,0.577,1.308,0.828l1.375,0.716c0.898,0.512,1.876,0.865,2.822,1.28
						c3.844,1.559,7.981,2.315,12.136,2.808c4.165,0.479,8.384,0.631,12.615,0.783c4.232,0.155,8.49,0.291,12.744,0.773
						c4.255,0.493,8.465,1.353,12.574,2.555c8.22,2.401,16.011,6.238,22.96,11.237c6.934,5.051,12.866,11.318,18.147,17.986
						c5.27,6.695,9.939,13.796,14.722,20.776c4.759,6.994,9.691,13.869,15.355,20.095l1.053,1.174l1.109,1.118l2.227,2.229
						c0.744,0.741,1.561,1.402,2.337,2.107c0.796,0.683,1.55,1.417,2.38,2.057c3.262,2.638,6.747,5.001,10.366,7.143
						c7.243,4.294,15.013,7.66,22.842,10.844c7.815,3.156,15.906,6.08,23.136,10.734c3.62,2.286,6.983,5.084,9.705,8.469
						c1.321,1.723,2.483,3.579,3.358,5.582c0.114,0.221,0.245,0.537,0.317,0.867c0.07,0.327,0.101,0.668,0.062,1.003
						c-0.063,0.672-0.337,1.315-0.765,1.82c-0.428,0.505-1.003,0.885-1.642,1.074c-0.318,0.099-0.652,0.139-0.983,0.14
						c-0.34-0.006-0.662-0.06-0.902-0.106c-2.11-0.371-4.198-0.857-6.257-1.437c-2.068-0.574-4.076-1.285-6.082-1.932
						c-4.022-1.315-8.058-2.587-12.107-3.816c-16.199-4.89-32.571-9.309-49.252-12.103c-16.658-2.774-33.689-3.807-50.477-1.821
						l-0.122-0.993c16.901-2.061,34.044-1.08,50.79,1.647c16.768,2.755,33.212,7.107,49.451,11.979
						c4.059,1.228,8.106,2.498,12.139,3.811c2.025,0.652,4.014,1.353,6.03,1.91c2.019,0.567,4.063,1.04,6.125,1.4
						c0.28,0.053,0.483,0.08,0.672,0.084c0.198-0.003,0.395-0.024,0.582-0.084c0.376-0.112,0.72-0.339,0.978-0.641
						c0.256-0.303,0.41-0.681,0.446-1.063c0.024-0.191,0.003-0.385-0.036-0.574c-0.042-0.186-0.11-0.365-0.236-0.615
						c-0.826-1.883-1.926-3.636-3.182-5.274c-2.595-3.218-5.834-5.921-9.371-8.148c-7.07-4.542-15.046-7.424-22.915-10.589
						c-7.858-3.186-15.695-6.568-23.047-10.915c-3.673-2.168-7.222-4.567-10.551-7.255c-0.848-0.653-1.617-1.399-2.429-2.094
						c-0.792-0.717-1.625-1.392-2.383-2.144l-2.267-2.264l-1.129-1.136l-1.07-1.189c-5.752-6.31-10.731-13.242-15.507-20.242
						c-4.799-6.989-9.46-14.058-14.683-20.677c-5.233-6.593-11.07-12.736-17.856-17.669c-6.808-4.886-14.442-8.636-22.491-10.977
						c-4.023-1.172-8.144-2.009-12.306-2.487c-4.168-0.468-8.388-0.6-12.621-0.75c-4.233-0.148-8.491-0.294-12.746-0.779
						c-4.247-0.478-8.516-1.333-12.527-2.991c-0.988-0.445-2.009-0.818-2.94-1.384l-1.424-0.787
						c-0.466-0.276-0.902-0.603-1.354-0.903c-1.829-1.169-3.459-2.635-4.933-4.212c-2.946-3.174-5.2-6.904-6.915-10.819
						c-1.706-3.925-2.951-8.034-3.785-12.209c-0.394-2.092-0.856-4.174-1.081-6.292l-0.412-3.165l-0.248-3.181
						c-0.644-8.492-0.186-17.01,0.631-25.451c1.618-16.89,4.842-33.594,5.264-50.501c0.209-8.442-0.177-16.899-1.18-25.279
						c-1.01-8.337-2.77-16.729-6.889-24.018c-2.056-3.627-4.757-6.849-7.979-9.475c-3.216-2.629-6.908-4.671-10.822-6.076
						c-7.819-2.807-16.611-3.102-24.466-0.385c-3.915,1.356-7.566,3.456-10.811,6.089c-3.277,2.593-6.209,5.622-8.998,8.777
						c-2.797,3.153-5.441,6.459-8.197,9.694c-2.717,3.307-5.974,6.228-9.49,8.66c-3.507,2.471-7.258,4.531-11.03,6.48l-5.673,2.876
						c-0.971,0.478-1.829,0.951-2.882,1.445c-0.643,0.278-1.346,0.287-1.924,0.199c-0.587-0.086-1.115-0.23-1.614-0.345
						c-1.005-0.25-1.855-0.293-2.482,0.192c-0.645,0.501-1.138,1.37-1.349,2.283c-0.057,0.231-0.101,0.467-0.133,0.707l-0.103,0.785
						l-0.198,1.57c-0.128,1.046-0.242,2.091-0.33,3.137c-0.353,4.165-0.405,8.413,0.735,12.367c0.57,1.965,1.466,3.827,2.722,5.416
						c1.247,1.594,2.836,2.913,4.646,3.856c3.617,1.936,7.852,2.552,12,2.611c4.178,0.023,8.386-0.525,12.652-0.712
						c2.132-0.1,4.286-0.093,6.435,0.113c2.153,0.207,4.272,0.673,6.33,1.257c4.123,1.167,8.045,2.802,12.096,3.849
						c4.034,1.087,8.238,1.351,12.341,0.589c4.108-0.707,8.039-2.254,11.844-4.029C172.44,146.561,176.123,144.471,179.865,142.467z
						"/>
				</g>
				<g>
					<g>
						<path d="M177.389,301.41c-1.746,4.249-2.02,8.849-2.519,13.391c-0.461,4.55-0.85,9.107-1.169,13.668
							c-0.637,9.123-0.961,18.267-1.011,27.41c-0.038,9.146,0.234,18.282,0.746,27.418c0.448,9.133,0.854,18.338-0.112,27.502
							l-0.994-0.107c0.974-9.063,0.585-18.219,0.161-27.35c-0.453-9.142-0.666-18.311-0.567-27.469
							c0.11-9.159,0.495-18.315,1.193-27.446c0.349-4.566,0.769-9.126,1.26-13.678c0.265-2.274,0.475-4.551,0.838-6.824
							C175.585,305.666,176.173,303.374,177.389,301.41z"/>
					</g>
					<g>
						<path d="M185.205,417.903c0.792-0.413,1.632-0.785,2.538-0.978c0.903-0.193,1.874-0.19,2.773,0.129
							c0.914,0.302,1.65,1.009,2.128,1.798c0.488,0.797,0.766,1.679,0.924,2.581c0.155,0.885,0.117,1.972-0.547,2.781
							c-0.646,0.785-1.545,1.166-2.368,1.487c-1.676,0.664-3.45,1.029-5.221,1.226c-1.774,0.2-3.551,0.233-5.316,0.232l-1.321-0.008
							c-0.422-0.009-0.934,0.016-1.399-0.145c-0.238-0.076-0.472-0.182-0.713-0.331c-0.232-0.132-0.531-0.404-0.574-0.787
							c-0.059-0.345,0.13-0.725,0.307-0.894c0.174-0.196,0.353-0.344,0.52-0.487C179.41,422.098,182.039,419.58,185.205,417.903z
							 M185.534,418.521c-3.075,1.633-5.597,4.043-8.113,6.549c-0.797,0.617-0.761,0.963,0.167,1.023
							c0.751,0.08,1.669,0.078,2.537,0.1c1.749,0.028,3.492,0.022,5.215-0.145c1.72-0.169,3.426-0.483,5.037-1.076
							c0.806-0.285,1.594-0.63,2.088-1.212c0.497-0.568,0.576-1.409,0.455-2.229c-0.125-0.828-0.368-1.66-0.786-2.372
							c-0.414-0.717-1.053-1.273-1.822-1.522C188.736,417.107,187.017,417.695,185.534,418.521z"/>
					</g>
					<g>
						<path d="M182.194,419.976c-0.111-1.317-0.815-2.577-1.798-3.532c-0.493-0.467-1.069-0.904-1.656-1.186
							c-0.576-0.285-1.227-0.299-1.879-0.145c-1.308,0.308-2.486,1.172-3.686,1.97c-1.191,0.813-2.353,1.667-3.484,2.559
							c-0.561,0.445-1.131,0.906-1.664,1.366c-0.262,0.23-0.505,0.465-0.709,0.716c-0.208,0.244-0.39,0.569-0.36,0.626
							c0.034,0.004-0.105-0.121-0.006-0.057l0.482,0.136c0.336,0.101,0.684,0.167,1.027,0.248c0.693,0.134,1.395,0.24,2.103,0.305
							c2.834,0.25,5.723,0.052,8.553-0.448l0.134,0.641c-2.854,0.665-5.811,0.982-8.769,0.756c-0.739-0.058-1.476-0.159-2.21-0.292
							c-0.365-0.08-0.732-0.146-1.093-0.249c-0.191-0.054-0.34-0.08-0.566-0.158c-0.118-0.044-0.294-0.121-0.436-0.291
							c-0.141-0.162-0.206-0.382-0.208-0.555c0-0.35,0.115-0.574,0.236-0.785c0.111-0.18,0.232-0.343,0.361-0.498
							c0.259-0.309,0.545-0.575,0.832-0.821c0.572-0.481,1.139-0.926,1.72-1.376c1.16-0.892,2.352-1.742,3.573-2.546
							c1.217-0.773,2.445-1.678,3.997-2.028c0.756-0.17,1.638-0.146,2.38,0.206c0.725,0.343,1.322,0.796,1.888,1.316
							c1.115,1.033,1.986,2.417,2.23,4L182.194,419.976z"/>
					</g>
					<g>
						<path d="M174.774,415.68c-0.019-1.045-0.29-2.09-0.785-3.013c-0.247-0.465-0.54-0.894-0.911-1.159
							c-0.369-0.266-0.773-0.291-1.239-0.114c-1.911,0.885-3.784,2.169-5.582,3.421c-0.903,0.635-1.803,1.26-2.442,2.084
							c-0.311,0.403-0.612,0.895-0.51,1.204c0.092,0.331,0.531,0.566,1.016,0.561c2.13-0.076,4.35-0.505,6.533-0.831l0.097,0.619
							c-2.197,0.337-4.346,0.782-6.651,0.877c-0.592,0.001-1.399-0.261-1.645-1.043c-0.109-0.389,0.001-0.761,0.135-1.042
							c0.14-0.289,0.304-0.524,0.483-0.762c0.725-0.942,1.681-1.599,2.578-2.241c1.832-1.283,3.62-2.553,5.731-3.543
							c0.289-0.107,0.62-0.186,0.971-0.159c0.352,0.024,0.686,0.166,0.956,0.353c0.538,0.385,0.874,0.91,1.15,1.414
							c0.558,1.028,0.867,2.188,0.895,3.359L174.774,415.68z"/>
					</g>
					<g>
						<path d="M192.995,423.239c4.323,0.128,8.68-0.772,12.583-2.632c0.966-0.475,1.969-0.949,2.714-1.598
							c0.751-0.63,1.17-1.552,1.507-2.573c0.67-2.066,1.22-4.184,1.64-6.327c0.848-4.288,1.254-8.664,1.506-13.051
							c0.247-4.39,0.404-8.796,0.577-13.198c0.332-8.806,0.653-17.623,1.354-26.422c0.679-8.794,1.866-17.585,4.05-26.136
							c-1.537,8.685-2.566,17.422-3.239,26.199c-0.658,8.778-0.936,17.583-1.225,26.392c-0.152,4.406-0.288,8.809-0.515,13.22
							c-0.233,4.409-0.62,8.834-1.461,13.201c-0.419,2.183-0.957,4.344-1.663,6.465c-0.348,1.054-0.868,2.231-1.83,3.033
							c-0.935,0.794-1.961,1.252-2.965,1.746c-4.063,1.916-8.582,2.83-13.067,2.679L192.995,423.239z"/>
					</g>
				</g>
				<g>
					<g>
						<path d="M150.837,293.942c0.199,2.198,0.074,4.398-0.174,6.588c-0.237,2.178-0.453,4.358-0.656,6.54
							c-0.399,4.364-0.735,8.733-1.007,13.106c-0.525,8.747-0.802,17.508-0.785,26.27c-0.01,8.764,0.323,17.513,0.804,26.27
							c0.42,8.753,0.761,17.575-0.17,26.355l-0.994-0.107c0.937-8.682,0.617-17.455,0.212-26.203
							c-0.426-8.757-0.7-17.542-0.633-26.317c0.04-8.777,0.376-17.551,0.959-26.307c0.301-4.377,0.666-8.75,1.094-13.116
							c0.218-2.183,0.448-4.364,0.7-6.543C150.499,298.315,150.419,296.121,150.837,293.942z"/>
					</g>
					<g>
						<path d="M160.731,406.175c0.792-0.413,1.632-0.785,2.538-0.978c0.903-0.193,1.874-0.19,2.773,0.129
							c0.914,0.302,1.65,1.009,2.128,1.798c0.488,0.797,0.766,1.679,0.924,2.581c0.155,0.885,0.117,1.972-0.547,2.781
							c-0.646,0.785-1.545,1.166-2.368,1.487c-1.676,0.664-3.45,1.029-5.221,1.226c-1.774,0.2-3.551,0.233-5.316,0.232l-1.322-0.008
							c-0.422-0.009-0.934,0.016-1.399-0.145c-0.238-0.076-0.472-0.182-0.714-0.331c-0.232-0.132-0.531-0.404-0.574-0.787
							c-0.059-0.345,0.13-0.725,0.307-0.894c0.174-0.196,0.353-0.344,0.52-0.487C154.936,410.369,157.565,407.851,160.731,406.175z
							 M161.06,406.792c-3.075,1.633-5.597,4.043-8.113,6.549c-0.797,0.617-0.761,0.963,0.167,1.023
							c0.75,0.08,1.669,0.078,2.537,0.1c1.749,0.028,3.492,0.022,5.215-0.145c1.72-0.169,3.426-0.483,5.037-1.076
							c0.806-0.285,1.594-0.63,2.088-1.212c0.497-0.568,0.576-1.408,0.455-2.229c-0.125-0.828-0.367-1.66-0.786-2.372
							c-0.414-0.717-1.053-1.273-1.822-1.522C164.262,405.378,162.542,405.966,161.06,406.792z"/>
					</g>
					<g>
						<path d="M157.719,408.247c-0.111-1.317-0.815-2.577-1.798-3.532c-0.493-0.467-1.069-0.904-1.656-1.186
							c-0.576-0.285-1.227-0.299-1.879-0.145c-1.308,0.308-2.486,1.172-3.686,1.97c-1.191,0.813-2.353,1.667-3.484,2.559
							c-0.562,0.445-1.131,0.906-1.664,1.366c-0.262,0.23-0.505,0.465-0.709,0.716c-0.208,0.244-0.39,0.569-0.36,0.626
							c0.034,0.004-0.105-0.121-0.006-0.057l0.482,0.136c0.336,0.101,0.684,0.167,1.027,0.248c0.693,0.134,1.395,0.24,2.103,0.305
							c2.834,0.25,5.723,0.052,8.553-0.448l0.133,0.641c-2.854,0.665-5.811,0.982-8.769,0.756c-0.739-0.058-1.476-0.159-2.21-0.292
							c-0.365-0.08-0.732-0.146-1.093-0.249c-0.191-0.054-0.34-0.08-0.566-0.158c-0.118-0.044-0.294-0.121-0.436-0.291
							c-0.141-0.162-0.206-0.382-0.208-0.555c-0.001-0.35,0.115-0.574,0.236-0.785c0.111-0.18,0.232-0.343,0.361-0.498
							c0.259-0.309,0.545-0.575,0.831-0.82c0.573-0.481,1.139-0.926,1.721-1.376c1.16-0.892,2.351-1.742,3.573-2.545
							c1.217-0.773,2.446-1.678,3.997-2.028c0.756-0.17,1.638-0.146,2.381,0.206c0.725,0.343,1.322,0.796,1.888,1.316
							c1.115,1.033,1.986,2.417,2.23,4L157.719,408.247z"/>
					</g>
					<g>
						<path d="M150.299,403.952c-0.019-1.045-0.29-2.09-0.785-3.013c-0.247-0.465-0.54-0.894-0.911-1.159
							c-0.369-0.266-0.773-0.291-1.239-0.114c-1.911,0.885-3.784,2.169-5.582,3.421c-0.904,0.635-1.803,1.26-2.442,2.084
							c-0.311,0.403-0.612,0.895-0.51,1.204c0.092,0.331,0.531,0.566,1.016,0.561c2.13-0.076,4.35-0.505,6.533-0.831l0.097,0.619
							c-2.197,0.337-4.346,0.782-6.651,0.877c-0.592,0.001-1.399-0.261-1.645-1.043c-0.109-0.388,0.001-0.761,0.135-1.042
							c0.14-0.288,0.304-0.524,0.483-0.762c0.726-0.941,1.681-1.599,2.578-2.241c1.832-1.283,3.62-2.553,5.731-3.543
							c0.289-0.108,0.62-0.186,0.971-0.159c0.353,0.024,0.686,0.167,0.956,0.353c0.538,0.385,0.874,0.91,1.15,1.414
							c0.558,1.028,0.867,2.188,0.896,3.359L150.299,403.952z"/>
					</g>
				</g>
				<g>
					<g>
						<path d="M261.629,419.35c0.792-0.413,1.632-0.785,2.538-0.978c0.903-0.193,1.874-0.19,2.772,0.129
							c0.914,0.302,1.65,1.009,2.128,1.798c0.488,0.797,0.766,1.679,0.924,2.581c0.155,0.885,0.117,1.972-0.547,2.781
							c-0.646,0.785-1.545,1.166-2.368,1.487c-1.676,0.664-3.45,1.029-5.221,1.226c-1.774,0.2-3.551,0.233-5.316,0.232l-1.322-0.008
							c-0.422-0.009-0.934,0.016-1.399-0.145c-0.238-0.076-0.472-0.182-0.713-0.331c-0.232-0.132-0.531-0.404-0.574-0.787
							c-0.059-0.345,0.13-0.725,0.307-0.894c0.174-0.196,0.353-0.344,0.52-0.487C255.834,423.545,258.463,421.026,261.629,419.35z
							 M261.958,419.967c-3.075,1.633-5.597,4.043-8.113,6.549c-0.797,0.617-0.761,0.963,0.167,1.023
							c0.75,0.08,1.669,0.078,2.537,0.1c1.749,0.028,3.492,0.023,5.215-0.145c1.72-0.169,3.426-0.483,5.037-1.076
							c0.806-0.285,1.594-0.63,2.088-1.212c0.497-0.568,0.576-1.408,0.455-2.229c-0.125-0.828-0.367-1.66-0.786-2.372
							c-0.414-0.717-1.053-1.273-1.822-1.522C265.16,418.553,263.44,419.141,261.958,419.967z"/>
					</g>
					<g>
						<path d="M258.617,421.422c-0.111-1.317-0.815-2.577-1.798-3.532c-0.493-0.467-1.069-0.904-1.656-1.186
							c-0.576-0.285-1.227-0.299-1.879-0.145c-1.308,0.308-2.486,1.172-3.686,1.97c-1.191,0.813-2.353,1.667-3.484,2.559
							c-0.561,0.446-1.131,0.906-1.664,1.366c-0.262,0.23-0.505,0.465-0.709,0.716c-0.208,0.244-0.39,0.569-0.36,0.626
							c0.034,0.004-0.105-0.121-0.006-0.057l0.482,0.136c0.336,0.101,0.684,0.167,1.027,0.248c0.693,0.134,1.395,0.24,2.103,0.305
							c2.834,0.25,5.723,0.052,8.553-0.448l0.133,0.641c-2.854,0.665-5.811,0.982-8.769,0.756c-0.739-0.058-1.476-0.159-2.21-0.292
							c-0.365-0.08-0.732-0.146-1.093-0.249c-0.191-0.054-0.34-0.08-0.566-0.158c-0.118-0.044-0.294-0.121-0.436-0.291
							c-0.141-0.162-0.206-0.382-0.208-0.555c0-0.35,0.115-0.574,0.236-0.785c0.111-0.18,0.232-0.343,0.361-0.498
							c0.259-0.309,0.545-0.575,0.832-0.82c0.572-0.481,1.139-0.926,1.72-1.376c1.16-0.892,2.352-1.742,3.573-2.546
							c1.217-0.773,2.446-1.678,3.997-2.028c0.756-0.17,1.638-0.146,2.381,0.206c0.725,0.343,1.321,0.796,1.888,1.316
							c1.115,1.033,1.986,2.417,2.23,4L258.617,421.422z"/>
					</g>
					<g>
						<path d="M251.197,417.127c-0.019-1.045-0.29-2.09-0.785-3.013c-0.247-0.465-0.54-0.894-0.911-1.159
							c-0.369-0.266-0.773-0.291-1.239-0.114c-1.911,0.885-3.784,2.169-5.582,3.421c-0.904,0.635-1.803,1.26-2.442,2.084
							c-0.311,0.403-0.612,0.895-0.51,1.204c0.092,0.331,0.531,0.566,1.016,0.561c2.13-0.076,4.35-0.505,6.533-0.831l0.097,0.619
							c-2.197,0.337-4.346,0.782-6.651,0.877c-0.592,0.001-1.399-0.261-1.645-1.043c-0.109-0.388,0.001-0.761,0.135-1.042
							c0.14-0.289,0.304-0.524,0.483-0.762c0.725-0.941,1.681-1.599,2.578-2.241c1.832-1.283,3.62-2.553,5.731-3.543
							c0.289-0.108,0.62-0.186,0.971-0.159c0.353,0.024,0.686,0.166,0.956,0.353c0.538,0.385,0.874,0.91,1.15,1.414
							c0.558,1.028,0.867,2.188,0.895,3.359L251.197,417.127z"/>
					</g>
					<g>
						<path d="M248.085,412.595c-2.684-6.297-4.698-12.883-5.954-19.612c-1.257-6.728-1.811-13.582-1.669-20.419
							c0.142-6.837,0.981-13.657,2.514-20.317c1.517-6.66,3.794-13.164,6.93-19.217c-2.63,6.285-4.748,12.753-6.236,19.375
							c-1.473,6.622-2.255,13.396-2.347,20.175c-0.091,6.779,0.508,13.566,1.801,20.215c1.292,6.648,3.226,13.177,5.882,19.409
							L248.085,412.595z"/>
					</g>
					<g>
						<path d="M269.365,424.617l6.51-1.581c2.154-0.555,4.382-0.982,6.449-1.683c2.041-0.694,4.071-1.728,5.074-3.52
							c1.022-1.786,0.753-4.031,0.432-6.211c-0.798-4.507-0.191-9.088,0.102-13.5c0.31-4.427-0.016-8.895,0.131-13.406
							c0.073-2.251,0.277-4.522,0.728-6.745c0.443-2.222,1.068-4.39,1.722-6.534c1.344-4.277,2.612-8.536,3.344-12.936
							c1.554-8.778,1.548-17.76,0.5-26.648c1.948,8.764,1.875,17.941,0.354,26.797c-0.718,4.443-1.993,8.793-3.312,13.055
							c-0.642,2.138-1.248,4.279-1.671,6.45c-0.43,2.168-0.618,4.372-0.681,6.591c-0.128,4.436,0.22,8.926-0.074,13.44
							c-0.28,4.49-0.848,8.914-0.053,13.277c0.164,1.108,0.327,2.247,0.316,3.428c-0.02,1.174-0.262,2.414-0.88,3.484
							c-0.61,1.071-1.528,1.92-2.526,2.545c-1.001,0.632-2.08,1.079-3.164,1.443c-2.18,0.724-4.365,1.125-6.545,1.676l-6.545,1.555
							L269.365,424.617z"/>
					</g>
				</g>
				<g>
					<g>
						<path d="M239.054,405.78c0.792-0.413,1.632-0.785,2.538-0.978c0.903-0.193,1.874-0.19,2.773,0.129
							c0.914,0.302,1.65,1.009,2.128,1.798c0.488,0.797,0.766,1.679,0.924,2.581c0.155,0.885,0.117,1.972-0.547,2.781
							c-0.646,0.785-1.545,1.166-2.368,1.487c-1.676,0.664-3.45,1.029-5.221,1.226c-1.774,0.2-3.551,0.233-5.316,0.232l-1.321-0.008
							c-0.422-0.009-0.934,0.016-1.399-0.145c-0.238-0.076-0.472-0.182-0.714-0.331c-0.232-0.132-0.531-0.404-0.574-0.787
							c-0.059-0.345,0.13-0.725,0.307-0.894c0.174-0.196,0.353-0.344,0.52-0.487C233.259,409.975,235.888,407.456,239.054,405.78z
							 M239.383,406.397c-3.075,1.633-5.597,4.043-8.113,6.549c-0.797,0.617-0.761,0.963,0.167,1.023
							c0.75,0.08,1.669,0.078,2.537,0.1c1.749,0.028,3.492,0.022,5.215-0.145c1.72-0.169,3.426-0.483,5.037-1.076
							c0.806-0.285,1.594-0.63,2.088-1.212c0.497-0.569,0.576-1.409,0.455-2.229c-0.125-0.828-0.367-1.66-0.786-2.372
							c-0.414-0.717-1.053-1.273-1.822-1.522C242.585,404.983,240.865,405.572,239.383,406.397z"/>
					</g>
					<g>
						<path d="M236.042,407.853c-0.111-1.317-0.815-2.577-1.798-3.532c-0.493-0.467-1.069-0.904-1.656-1.186
							c-0.576-0.285-1.227-0.299-1.879-0.145c-1.308,0.308-2.486,1.172-3.686,1.97c-1.191,0.813-2.353,1.666-3.484,2.559
							c-0.561,0.446-1.131,0.906-1.664,1.366c-0.262,0.23-0.505,0.465-0.709,0.716c-0.208,0.244-0.39,0.569-0.36,0.626
							c0.034,0.004-0.105-0.121-0.006-0.057l0.482,0.136c0.336,0.101,0.684,0.167,1.027,0.248c0.694,0.134,1.395,0.24,2.103,0.305
							c2.834,0.25,5.723,0.052,8.553-0.448l0.133,0.64c-2.854,0.665-5.811,0.982-8.769,0.756c-0.739-0.058-1.476-0.159-2.21-0.292
							c-0.365-0.08-0.732-0.146-1.093-0.249c-0.191-0.054-0.34-0.08-0.566-0.158c-0.118-0.044-0.294-0.121-0.436-0.291
							c-0.141-0.162-0.206-0.382-0.208-0.555c0-0.35,0.115-0.574,0.236-0.785c0.111-0.18,0.232-0.343,0.362-0.499
							c0.259-0.309,0.545-0.575,0.831-0.82c0.573-0.481,1.139-0.926,1.721-1.376c1.16-0.892,2.352-1.742,3.573-2.546
							c1.217-0.773,2.446-1.678,3.997-2.028c0.756-0.17,1.638-0.146,2.381,0.206c0.725,0.343,1.322,0.796,1.888,1.316
							c1.115,1.033,1.986,2.417,2.23,4L236.042,407.853z"/>
					</g>
					<g>
						<path d="M228.622,403.557c-0.019-1.045-0.29-2.09-0.785-3.013c-0.247-0.465-0.54-0.894-0.911-1.159
							c-0.369-0.266-0.773-0.291-1.239-0.114c-1.911,0.885-3.784,2.169-5.582,3.421c-0.904,0.635-1.803,1.26-2.442,2.084
							c-0.311,0.403-0.612,0.895-0.51,1.204c0.092,0.331,0.531,0.566,1.016,0.561c2.13-0.076,4.35-0.505,6.533-0.831l0.097,0.619
							c-2.197,0.337-4.346,0.782-6.651,0.877c-0.592,0-1.399-0.261-1.645-1.044c-0.109-0.388,0.001-0.761,0.135-1.042
							c0.14-0.289,0.304-0.524,0.482-0.762c0.726-0.942,1.681-1.599,2.578-2.241c1.832-1.283,3.62-2.553,5.731-3.543
							c0.289-0.108,0.62-0.186,0.971-0.159c0.352,0.023,0.686,0.166,0.956,0.353c0.538,0.385,0.874,0.91,1.15,1.414
							c0.558,1.028,0.867,2.188,0.895,3.359L228.622,403.557z"/>
					</g>
					<g>
						<path d="M225.51,399.025c-2.828-6.567-4.852-13.475-6.075-20.513c-0.604-3.52-1.017-7.072-1.239-10.633
							c-0.232-3.559-0.237-7.14,0.168-10.684c0.155,3.561,0.278,7.1,0.553,10.633c0.285,3.531,0.759,7.045,1.421,10.521
							c1.31,6.954,3.344,13.768,6.091,20.284L225.51,399.025z"/>
					</g>
				</g>
				<path style="fill:none;stroke:#000000;stroke-miterlimit:10;" d="M215.379,356.203c8.587,3.023,17.609,4.72,26.71,4.736"/>
				<path style="fill:none;stroke:#000000;stroke-miterlimit:10;" d="M150.127,153.745c10.779,16.305,8.649,37.839,3.751,56.761
					c-4.898,18.922-12.214,37.876-10.486,57.346c1.285,14.483,7.555,28.113,15.388,40.363c4.356,6.813,9.249,13.319,14.695,19.3"/>
				<g>
					<path d="M88.181,137.682c3.199-0.242,6.356,0.128,9.47,0.422c3.116,0.317,6.225,0.54,9.311,0.187
						c3.088-0.313,6.118-1.145,8.96-2.387c2.838-1.257,5.47-2.952,7.795-4.98l0.646,0.764c-2.483,1.999-5.24,3.636-8.166,4.854
						c-2.928,1.206-6.005,2.067-9.155,2.442c-3.154,0.398-6.345,0.204-9.464-0.077c-3.122-0.28-6.243-0.538-9.307-0.229
						L88.181,137.682z"/>
				</g>
				<g>
					<path d="M122.6,129.133c0.971,0.414,1.677,1.217,2.168,2.107c0.467,0.903,0.739,1.938,0.539,2.975
						c-0.578-0.873-0.973-1.689-1.421-2.505C123.461,130.882,123.003,130.098,122.6,129.133z"/>
				</g>
				<g>
					<path d="M111.082,123.11c0.377-0.961,1.09-1.685,1.887-2.255c0.814-0.546,1.743-0.956,2.777-0.967
						c-0.715,0.739-1.458,1.255-2.208,1.79C112.77,122.189,112.024,122.702,111.082,123.11z"/>
				</g>
				<g>
					<path d="M88.07,120.124c0.511-0.072,1.035,0.135,1.449,0.419c0.425,0.283,0.762,0.651,1.054,1.018
						c0.546,0.766,1.038,1.585,1.261,2.556c-0.879-0.525-1.489-1.204-2.044-1.936l-0.795-1.064
						C88.727,120.777,88.457,120.454,88.07,120.124z"/>
				</g>
				<g>
					<path d="M113.165,113.451c0.407-0.844,1.501-1.214,2.422-1.165c0.935,0.057,1.805,0.193,2.71,0.699
						c0.853,0.548,1.391,1.305,1.867,2.048c0.476,0.756,0.864,1.568,1.09,2.435l-1.714-1.967c-0.581-0.628-1.129-1.285-1.766-1.664
						c-0.605-0.377-1.489-0.591-2.265-0.777C114.729,112.91,113.896,112.917,113.165,113.451z"/>
				</g>
			</g>
			<g>
				<path style="fill:none;stroke:#000000;stroke-width:0.5;stroke-miterlimit:10;" d="M295.619,346.725
					c43.626,3.246,86.878,13.873,122.245,39.266"/>
				<path style="fill:none;stroke:#000000;stroke-width:0.5;stroke-miterlimit:10;" d="M217.624,337.98
					c5.137,2.16,10.476,3.843,15.965,4.983c3.903,0.811,7.842,1.353,11.803,1.722"/>
				<path style="fill:none;stroke:#000000;stroke-width:0.5;stroke-miterlimit:10;" d="M143.591,256.227
					c-1.174-2.715,3.374-5.565,6.123-4.471c2.749,1.094,4.156,4.088,5.236,6.842c3.672,9.366,6.565,19.044,10.741,28.197
					c2.863,6.274,6.378,12.268,10.451,17.858"/>
				<path style="fill:none;stroke:#000000;stroke-width:0.5;stroke-miterlimit:10;" d="M201.438,101.271
					c-0.492,0.613-0.985,1.225-1.456,1.854c-4.566,6.081-7.133,13.737-6.655,21.326c0.478,7.589,4.116,15.023,10.126,19.682"/>
				<path style="fill:none;stroke:#000000;stroke-width:0.5;stroke-miterlimit:10;" d="M192.107,160.258
					c-0.923,3.045-1.757,6.234-1.262,9.378c0.167,1.058,0.606,2.232,1.612,2.6c0.596,0.218,1.28,0.091,1.83-0.225
					c0.55-0.316,0.983-0.803,1.352-1.32c1.204-1.691,1.791-3.733,2.346-5.733c1.04-3.743,2.084-7.702,1.431-11.609
					c-0.211-1.26-0.577-3.253-2.31-2.633c-1.445,0.517-2.295,2.576-2.905,3.848C193.325,156.391,192.693,158.323,192.107,160.258z"
					/>
				<path style="fill:none;stroke:#000000;stroke-width:0.5;stroke-miterlimit:10;" d="M186.121,200.321
					c-1.131,2.142-2.068,4.411-2.49,6.797c-0.422,2.386-0.31,4.902,0.594,7.149c0.25,0.622,0.572,1.236,1.079,1.674
					c0.508,0.438,1.236,0.669,1.867,0.442c0.538-0.193,0.918-0.672,1.22-1.157c1.175-1.889,1.587-4.139,1.977-6.329
					c0.466-2.619,0.93-5.335,0.269-7.913c-0.229-0.895-0.885-2.9-2.02-3.025C187.479,197.835,186.551,199.506,186.121,200.321z"/>
				<path style="fill:none;stroke:#000000;stroke-width:0.5;stroke-miterlimit:10;" d="M201.191,253.808
					c0.378,0.475,0.79,0.936,1.309,1.251s1.162,0.469,1.743,0.292c0.682-0.207,1.172-0.841,1.37-1.526
					c0.198-0.685,0.145-1.417,0.033-2.12c-0.513-3.229-2.22-6.185-4.427-8.598c-0.601-0.657-1.7-1.774-2.697-1.745
					c-1.087,0.032-0.922,1.642-0.91,2.42c0.036,2.325,0.577,4.639,1.557,6.748C199.712,251.697,200.39,252.801,201.191,253.808z"/>
				<path style="fill:none;stroke:#000000;stroke-width:0.5;stroke-miterlimit:10;" d="M211.897,248.033
					c-0.171,5.201,1.856,10.242,4.463,14.745c5.976,10.325,15.506,18.849,26.944,22.239c5.704,1.691,11.713,2.09,17.663,2.082
					c4.76-0.006,9.57-0.275,14.139-1.606c7.403-2.155,13.937-7.161,17.944-13.748"/>
				<path style="fill:none;stroke:#000000;stroke-width:0.5;stroke-miterlimit:10;" d="M294.093,294.251
					c1.512,1.8,3.742,3.337,6.056,2.927c0.671-0.119,1.336-0.419,1.757-0.955c0.56-0.714,0.594-1.699,0.553-2.605
					c-0.16-3.512-1.349-6.966-4.877-8.32c-2.816-1.081-5.288,0.648-5.581,3.675C291.811,290.935,292.874,292.8,294.093,294.251z"/>
				<path style="fill:none;stroke:#000000;stroke-width:0.5;stroke-miterlimit:10;" d="M333.1,319.32
					c-1.192,2.067-1.042,4.621-0.751,6.989c0.187,1.526,0.42,3.057,0.932,4.507c1.321,3.736,4.449,6.654,8.043,8.323
					c3.594,1.668,7.625,2.192,11.587,2.187"/>
				<path style="fill:none;stroke:#000000;stroke-width:0.5;stroke-miterlimit:10;" d="M379.181,360.445
					c0.886,1.07,2.239,1.69,3.616,1.873c0.466,0.062,1.04,0.024,1.263-0.39c0.083-0.155,0.099-0.337,0.095-0.513
					c-0.023-0.986-0.601-1.879-1.289-2.585c-0.836-0.858-2.689-2.434-4.014-1.932C377.464,357.422,378.573,359.712,379.181,360.445z
					"/>
				<path style="fill:none;stroke:#000000;stroke-width:0.5;stroke-miterlimit:10;" d="M244.387,347.75
					c0.703-0.057,1.405,0.133,2.057,0.399c2.682,1.095,4.698,3.48,5.828,6.148c1.13,2.668,1.455,5.61,1.49,8.508
					c0.06,4.891-0.807,10.085-4.029,13.766c-2.193,2.505-5.289,4.073-8.484,5.009"/>
				<path style="fill:none;stroke:#000000;stroke-width:0.5;stroke-miterlimit:10;" d="M254.245,374.237
					c-0.179,0.529-0.324,1.08-0.3,1.637c0.023,0.558,0.235,1.128,0.666,1.483c0.656,0.54,1.67,0.444,2.379-0.024
					c0.709-0.468,1.168-1.228,1.536-1.993c0.663-1.378,2.045-4.367,0.995-5.805c-1.292-1.769-2.984,0.52-3.709,1.576
					C255.15,372.075,254.619,373.129,254.245,374.237z"/>
				<path style="fill:none;stroke:#000000;stroke-width:0.5;stroke-miterlimit:10;" d="M172.88,336.879
					c2.904-0.119,5.661,1.591,7.422,3.903c1.762,2.312,2.665,5.16,3.299,7.996c1.677,7.502,1.59,15.72-2.103,22.461
					c-0.951,1.737-2.137,3.359-3.608,4.684c-1.499,1.35-3.287,2.377-5.207,2.993"/>
				<path style="fill:none;stroke:#000000;stroke-width:0.5;stroke-miterlimit:10;" d="M183.851,376.185
					c0.137,1.095,0.714,2.164,1.658,2.734c0.944,0.571,2.259,0.549,3.088-0.179c0.363-0.32,0.617-0.748,0.804-1.195
					c0.788-1.883,0.684-6.324-1.868-6.936C184.921,369.983,183.618,374.323,183.851,376.185z"/>
				<path style="fill:none;stroke:#000000;stroke-width:0.5;stroke-miterlimit:10;" d="M152.96,369.964
					c0.148,0.447,0.344,0.911,0.732,1.177c0.284,0.194,0.645,0.258,0.987,0.216c0.79-0.096,1.435-0.723,1.774-1.443
					c0.34-0.72,0.427-1.529,0.51-2.32c0.141-1.349,0.283-2.714,0.095-4.057c-0.156-1.117-0.688-2.961-1.758-3.578
					c-1.17-0.675-1.871,1.486-2.181,2.321C152.211,364.727,152.139,367.484,152.96,369.964z"/>
				<path style="fill:none;stroke:#000000;stroke-width:0.5;stroke-miterlimit:10;" d="M157.219,325.698
					c-1.262,1.743-1.892,3.857-2.383,5.952c-0.56,2.391-0.967,4.833-0.937,7.288c0.03,2.49,0.515,4.974,1.423,7.293
					c0.494,1.262,1.146,2.516,2.212,3.352c0.417,0.327,0.928,0.59,1.455,0.534c0.854-0.091,1.394-0.947,1.729-1.738
					c0.577-1.361,0.939-2.804,1.207-4.258c0.576-3.127,0.713-6.333,0.424-9.499c-0.269-2.941-0.726-6.586-2.132-9.233
					C159.488,324.017,157.962,324.671,157.219,325.698z"/>
			</g>
		</g>
		<g>
			<path style="fill:none;stroke:#000000;stroke-width:0.5;stroke-miterlimit:10;" d="M288.747,391.278
				c52.165,3.482,89.437,12.692,89.437,23.505c0,13.803-60.733,24.993-135.65,24.993c-74.918,0-135.65-11.19-135.65-24.993
				c0-7.083,15.991-13.477,41.684-18.025"/>
			<path style="fill:none;stroke:#000000;stroke-width:0.5;stroke-miterlimit:10;" d="M213.752,390.354
				c2.989-0.119,6.014-0.22,9.073-0.302"/>
		</g>
	</g>
	<g>
		<g>
			<path style="fill:none;stroke:#000000;stroke-miterlimit:10;" d="M93.628,391.768H63.01c-0.389-7.402,4.116-14.181,10.857-17.1
				c2.755-1.193,5.872-1.632,8.807-1.001C90.663,375.385,94.147,384.349,93.628,391.768z"/>
			<path style="fill:none;stroke:#000000;stroke-miterlimit:10;" d="M65.539,381.899c0,0-10.042-39.591-20.021-56.924
				c-0.039-0.068,0.042-0.136,0.1-0.083c2.627,2.402,21.073,19.768,27.688,39.612c0,0-0.678-32.647-7.259-43.849
				c-0.035-0.061,0.029-0.125,0.089-0.089c2.238,1.331,21.044,13.739,20.912,55.018"/>
		</g>
		<path style="fill:none;stroke:#000000;stroke-miterlimit:10;" d="M452.574,419.942h-29.107c0,0,2.355-15.983,15.31-16.151
			C451.732,403.622,452.574,419.942,452.574,419.942z"/>
	</g>
	<g>
		<defs>
			<rect id="SVGID_1_" width="500" height="500"/>
		</defs>
		<clipPath id="SVGID_00000127741300212933568070000014647964891694786721_">
			<use xlink:href="#SVGID_1_"  style="overflow:visible;"/>
		</clipPath>
		<g style="clip-path:url(#SVGID_00000127741300212933568070000014647964891694786721_);">
			<line style="fill:none;stroke:#000000;stroke-miterlimit:10;" x1="375.639" y1="353.586" x2="508.755" y2="353.586"/>
			<line style="fill:none;stroke:#000000;stroke-miterlimit:10;" x1="85.027" y1="353.586" x2="147.992" y2="353.586"/>
			<line style="fill:none;stroke:#000000;stroke-miterlimit:10;" x1="68.464" y1="353.586" x2="72.744" y2="353.586"/>
			<line style="fill:none;stroke:#000000;stroke-miterlimit:10;" x1="0.392" y1="353.586" x2="56.935" y2="353.586"/>
		</g>
		<g style="clip-path:url(#SVGID_00000127741300212933568070000014647964891694786721_);">
			<g>
				<path d="M20.663,441.37c3.128-8.597,6.485-17.175,11.007-25.193c2.266-4.002,4.816-7.844,7.754-11.409
					c1.488-1.768,3.162-3.449,5.198-4.678c1.024-0.615,2.146-1.078,3.34-1.308c1.185-0.233,2.482-0.201,3.654,0.29
					c1.184,0.474,2.118,1.415,2.746,2.444c0.644,1.033,1.048,2.159,1.381,3.272c0.667,2.232,1.052,4.537,1.218,6.848
					c0.168,2.313,0.083,4.632-0.107,6.935c-0.232,2.301-0.635,4.579-1.161,6.825c-2.178,9-6.444,17.263-10.958,25.208
					c-4.549,7.958-9.532,15.664-14.881,23.102c-2.672,3.721-5.429,7.382-8.271,10.974c-0.708,0.904-1.436,1.784-2.104,2.692
					c-0.676,0.914-1.343,1.853-2.078,2.755c-0.734,0.9-1.541,1.772-2.507,2.489c-0.985,0.708-2.076,1.253-3.364,1.387
					c-0.324,0.029-0.675-0.005-1.019-0.112c-0.346-0.119-0.661-0.341-0.896-0.617c-0.451-0.569-0.59-1.224-0.665-1.828
					c-0.069-0.609-0.047-1.218-0.017-1.783c0.024-0.575,0.052-1.149,0.094-1.723c0.151-2.295,0.392-4.582,0.72-6.856
					c0.65-4.549,1.592-9.046,2.689-13.497C14.617,458.677,17.537,449.972,20.663,441.37z M21.55,441.693
					c-3.13,8.585-6.047,17.253-8.227,26.116c-1.096,4.43-2.036,8.897-2.686,13.405c-0.327,2.253-0.568,4.518-0.719,6.787
					c-0.057,1.124-0.179,2.303-0.084,3.346c0.057,0.52,0.195,1.028,0.464,1.361c0.269,0.319,0.675,0.457,1.173,0.411
					c0.994-0.097,2.043-0.585,2.895-1.216c0.873-0.648,1.636-1.467,2.343-2.337c0.71-0.872,1.367-1.799,2.05-2.724
					c0.687-0.935,1.416-1.819,2.118-2.716c2.83-3.585,5.575-7.237,8.234-10.95c5.325-7.421,10.282-15.105,14.805-23.036
					c4.492-7.923,8.704-16.122,10.833-24.968c0.514-2.207,0.908-4.441,1.132-6.693c0.183-2.252,0.264-4.52,0.098-6.771
					c-0.163-2.249-0.54-4.483-1.186-6.634c-0.321-1.073-0.706-2.12-1.276-3.031c-0.562-0.911-1.33-1.667-2.284-2.048
					c-1.929-0.791-4.258-0.153-6.102,0.948c-1.893,1.139-3.503,2.739-4.954,4.461c-2.886,3.494-5.419,7.297-7.663,11.253
					C28.031,424.588,24.681,433.114,21.55,441.693z"/>
			</g>
			<g>
				<path d="M73.071,425.741c1.906-1.506,3.876-2.982,6.049-4.159c2.162-1.176,4.568-2.026,7.066-2.187
					c2.478-0.18,5.085,0.352,7.167,1.801c2.083,1.445,3.51,3.64,4.305,5.981c0.804,2.355,0.926,4.907,0.554,7.335
					c-0.356,2.443-1.163,4.783-2.149,7.014c-1.003,2.227-2.191,4.357-3.46,6.438c-1.326,2.042-2.702,4.057-4.256,5.932
					c-6.125,7.598-13.758,13.772-21.62,19.422c-7.897,5.633-16.04,10.913-24.386,15.852c-2.076,1.248-4.212,2.415-6.271,3.668
					c-2.077,1.251-4.186,2.466-6.377,3.531c-2.195,1.034-4.462,2.045-6.96,2.301c-0.622,0.054-1.267,0.042-1.897-0.142
					c-0.626-0.172-1.229-0.553-1.613-1.103c-0.38-0.54-0.602-1.193-0.611-1.848c-0.013-0.652,0.125-1.28,0.318-1.875
					c0.833-2.381,2.429-4.27,3.629-6.348l3.834-6.179c2.539-4.13,5.22-8.173,7.956-12.177
					C45.313,453.028,57.885,437.943,73.071,425.741z M73.696,426.523c-15.146,12.04-27.746,26.997-38.767,42.874
					c-2.751,3.981-5.448,8.002-8.005,12.114l-3.861,6.151c-1.233,2.095-2.826,3.99-3.609,6.216
					c-0.381,1.089-0.476,2.331,0.208,3.235c0.633,0.91,1.883,1.141,3.029,1.018c2.345-0.239,4.6-1.231,6.761-2.257
					c2.166-1.056,4.258-2.265,6.328-3.516c2.079-1.268,4.195-2.427,6.27-3.678c8.325-4.941,16.45-10.224,24.322-15.855
					c7.834-5.645,15.415-11.8,21.471-19.333c1.537-1.859,2.895-3.855,4.204-5.875c1.25-2.056,2.424-4.166,3.408-6.359
					c0.967-2.195,1.749-4.482,2.089-6.841c0.357-2.352,0.233-4.778-0.534-7.018c-0.748-2.234-2.14-4.279-4.079-5.583
					c-1.934-1.308-4.35-1.777-6.683-1.577c-2.349,0.185-4.612,0.999-6.685,2.156C77.483,423.548,75.572,425.008,73.696,426.523z"/>
			</g>
			<g>
				<path d="M23.647,399.777c0.329-5.078,0.465-10.207-0.597-15.147c-0.271-1.233-0.571-2.456-1.079-3.563
					c-0.501-1.103-1.203-2.136-2.169-2.723c-0.96-0.603-2.167-0.612-3.236-0.147c-1.084,0.453-2.049,1.256-2.941,2.121
					c-3.616,3.538-6.582,7.718-9.023,12.165c-2.45,4.451-4.408,9.167-5.962,14.01c-3.121,9.702-4.602,19.86-5.578,30.014
					c-0.477,5.083-0.863,10.185-1.164,15.282c-0.283,5.097-0.436,10.202-0.221,15.293c0.238,5.079,0.664,10.199,2.175,15.028
					c0.786,2.407,1.56,4.875,2.956,6.9c0.669,0.988,1.659,1.867,2.678,1.766c1.02-0.135,1.906-1.14,2.563-2.148
					c1.346-2.082,2.235-4.495,3.062-6.886c0.811-2.41,1.492-4.865,2.178-7.332c0.175-0.618,0.345-1.233,0.554-1.862l0.611-1.816
					l1.205-3.638c0.787-2.43,1.564-4.865,2.305-7.309C17.922,440.255,22.313,420.164,23.647,399.777z M24.625,399.842
					c-1.36,20.484-5.789,40.641-11.778,60.214c-0.745,2.45-1.525,4.889-2.317,7.324l-1.211,3.644
					c-0.416,1.227-0.828,2.403-1.155,3.634c-0.686,2.46-1.375,4.936-2.198,7.374c-0.845,2.428-1.734,4.868-3.171,7.093
					c-0.364,0.552-0.771,1.09-1.285,1.559c-0.504,0.462-1.144,0.889-1.925,0.979c-0.79,0.094-1.525-0.233-2.092-0.644
					c-0.583-0.417-1.018-0.951-1.406-1.495c-1.513-2.213-2.28-4.713-3.082-7.145c-1.555-4.962-1.983-10.142-2.229-15.257
					c-0.222-5.133-0.072-10.267,0.207-15.382c0.297-5.115,0.678-10.217,1.152-15.32c0.97-10.188,2.446-20.412,5.59-30.219
					c1.565-4.896,3.542-9.673,6.023-14.189c2.472-4.513,5.485-8.775,9.186-12.402c0.938-0.905,1.967-1.787,3.252-2.331
					c1.26-0.566,2.902-0.575,4.131,0.21c1.238,0.758,2.013,1.964,2.564,3.167c0.558,1.225,0.865,2.505,1.142,3.766
					C25.111,389.52,24.959,394.738,24.625,399.842z"/>
			</g>
			<g>
				<path d="M85.928,430.823c-6.689,7.162-13.457,14.248-20.237,21.322L45.263,473.28L24.67,494.255l-10.356,10.43L3.883,515.041
					l10.08-10.698l10.156-10.625l20.429-21.135l20.595-20.973C72.037,444.648,78.943,437.697,85.928,430.823z"/>
			</g>
			<g>
				<path d="M47.374,409.004c-3.374,8.336-6.849,16.629-10.339,24.915L26.45,458.73l-10.796,24.718l-5.474,12.327l-5.57,12.285
					l5.12-12.479l5.217-12.437l10.585-24.809l10.798-24.717C39.968,425.393,43.62,417.177,47.374,409.004z"/>
			</g>
			<g>
				<path d="M15.81,389.659c-0.855,4.996-1.563,10.019-2.321,15.033l-2.296,15.037l-4.697,30.059l-4.893,30.028l-2.52,15.002
					l-2.619,14.987l2.135-15.063l2.244-15.046L5.51,449.63c1.639-10.008,3.233-20.024,4.927-30.023
					C12.161,409.614,13.778,399.598,15.81,389.659z"/>
			</g>
		</g>
		<g style="clip-path:url(#SVGID_00000127741300212933568070000014647964891694786721_);">
			<path d="M433.314,508.023c-4.033-0.721-7.861-2.544-10.992-5.201c-1.574-1.322-2.964-2.849-4.14-4.552
				c-1.148-1.694-2.049-3.79-1.785-5.99c0.122-1.077,0.519-2.151,1.238-3.016c0.723-0.866,1.748-1.437,2.807-1.688
				c2.147-0.483,4.251,0.01,6.191,0.572c3.906,1.131,7.666,2.752,11.16,4.819l0.012,0.007l-0.453,0.54
				c-2.005-2.404-4.008-4.819-5.888-7.336c-1.876-2.514-3.654-5.137-5.055-7.972c-1.406-2.824-2.49-5.837-2.991-8.975
				c-0.25-1.568-0.376-3.154-0.291-4.754c0.092-1.59,0.45-3.245,1.397-4.621c0.908-1.358,2.459-2.421,4.173-2.453
				c1.707-0.056,3.249,0.694,4.585,1.537c1.343,0.875,2.549,1.87,3.781,2.843c1.224,0.982,2.431,1.985,3.614,3.017
				c4.74,4.116,9.16,8.6,13.205,13.402l0.019,0.022l-0.594,0.392c-2.258-4.483-3.749-9.301-4.786-14.181
				c-0.489-2.451-0.973-4.89-1.157-7.414c-0.153-2.481,0.092-5.216,1.688-7.342c0.379-0.511,0.84-1.048,1.544-1.316
				c0.721-0.253,1.438-0.089,2.042,0.103c1.248,0.388,2.353,1.104,3.32,1.924c0.971,0.824,1.825,1.752,2.654,2.681
				c0.834,0.927,1.65,1.871,2.447,2.831c3.193,3.833,6.105,7.902,8.703,12.162l0.023,0.038l-0.653,0.273
				c-1.526-6.113-2.83-12.301-3.524-18.583c-0.721-6.264-0.659-12.716,0.941-18.879c0.402-1.539,0.894-3.043,1.497-4.529
				c0.646-1.455,1.493-2.952,2.983-3.848c0.743-0.427,1.646-0.624,2.504-0.481c0.869,0.121,1.645,0.57,2.265,1.122
				c1.245,1.122,2.027,2.573,2.711,3.999l7.908,17.156l0.024,0.051l-0.684,0.177c-0.518-5.661-0.049-11.386,1.272-16.916
				c0.337-1.377,0.735-2.764,1.324-4.091c0.588-1.319,1.37-2.611,2.514-3.602c0.572-0.494,1.219-0.892,1.936-1.177
				c0.708-0.283,1.605-0.387,2.389-0.089c0.779,0.281,1.378,0.803,1.888,1.339c0.501,0.547,0.942,1.117,1.348,1.721
				c1.619,2.423,2.541,5.179,3.278,7.911c0.74,2.745,1.232,5.547,1.583,8.358c0.689,5.63,0.728,11.291,0.755,16.923l-0.716,0.008
				c-0.097-5.631-0.206-11.261-0.893-16.825c-0.359-2.777-0.855-5.536-1.593-8.23c-0.735-2.688-1.65-5.353-3.185-7.625
				c-0.773-1.097-1.66-2.273-2.783-2.687c-1.088-0.414-2.419,0.26-3.402,1.079c-1.001,0.857-1.733,2.026-2.292,3.267
				c-0.562,1.248-0.954,2.578-1.293,3.934c-0.675,2.707-1.11,5.479-1.346,8.264c-0.236,2.785-0.294,5.591-0.07,8.376l0.162,2.012
				l-0.846-1.835l-0.023-0.051l-7.9-17.137c-0.665-1.395-1.43-2.776-2.538-3.77c-1.067-1.03-2.69-1.312-3.937-0.557
				c-1.25,0.74-2.076,2.123-2.682,3.51c-0.579,1.43-1.07,2.922-1.462,4.427c-1.571,6.051-1.638,12.408-0.923,18.62
				c0.689,6.235,1.985,12.394,3.507,18.488l0.562,2.249l-1.215-1.977l-0.023-0.037c-2.573-4.234-5.457-8.28-8.622-12.093
				c-0.79-0.954-1.598-1.893-2.426-2.816c-0.824-0.926-1.658-1.833-2.583-2.62c-0.922-0.785-1.95-1.446-3.082-1.8
				c-0.562-0.185-1.142-0.288-1.613-0.114c-0.475,0.175-0.887,0.61-1.234,1.091c-1.444,1.917-1.699,4.482-1.544,6.895
				c0.18,2.438,0.666,4.893,1.154,7.312c1.035,4.835,2.519,9.597,4.746,14.002l1.35,2.67l-1.944-2.278l-0.019-0.022
				c-4.02-4.773-8.414-9.231-13.126-13.322c-1.176-1.025-2.376-2.023-3.593-2.999c-1.222-0.966-2.438-1.965-3.719-2.798
				c-1.281-0.812-2.71-1.479-4.172-1.425c-1.462,0.029-2.784,0.921-3.611,2.143c-0.843,1.22-1.187,2.743-1.273,4.257
				c-0.082,1.526,0.039,3.079,0.283,4.599c0.487,3.05,1.545,5.997,2.925,8.769c1.375,2.782,3.124,5.365,4.988,7.863
				c1.866,2.498,3.861,4.904,5.864,7.306l1.215,1.456l-1.668-0.916l-0.012-0.006c-3.501-1.934-7.217-3.47-11.055-4.567
				c-1.893-0.541-3.89-0.949-5.712-0.514c-0.895,0.222-1.707,0.693-2.276,1.384c-0.567,0.695-0.896,1.587-1.013,2.504
				c-0.242,1.858,0.513,3.738,1.588,5.349c1.101,1.62,2.434,3.112,3.936,4.391c3.004,2.563,6.656,4.387,10.542,5.183
				L433.314,508.023z"/>
		</g>
		<g style="clip-path:url(#SVGID_00000127741300212933568070000014647964891694786721_);">
			<path style="fill:none;stroke:#000000;stroke-miterlimit:10;" d="M476.404,353.586c0,0-57.904-87.017-34.206-100.921
				c18.279-10.725,36.395,17.507,44.461,100.921"/>
			<path style="fill:none;stroke:#000000;stroke-miterlimit:10;" d="M469.422,353.586c0,0-46.075-74.33-63.711-61.462
				c-28.341,20.679,58.256,61.462,58.256,61.462"/>
			<path style="fill:none;stroke:#000000;stroke-miterlimit:10;" d="M491.895,353.586c0,0-17.695-98.278,5.018-101.827
				c34.91-5.455,1.527,101.827,1.527,101.827"/>
			<g>
				<path d="M408.365,299.474c4.989,4.358,9.903,8.797,14.806,13.248c4.905,4.449,9.748,8.964,14.625,13.443l14.467,13.612
					l7.178,6.866c2.368,2.315,4.759,4.606,7.106,6.944c-2.501-2.172-4.959-4.391-7.44-6.585l-7.368-6.662l-14.624-13.444
					c-4.82-4.54-9.674-9.044-14.466-13.613C417.856,308.715,413.073,304.135,408.365,299.474z"/>
			</g>
			<g>
				<path d="M447.056,259.183c3.133,7.795,6.163,15.628,9.177,23.467l8.927,23.56l8.711,23.641l4.278,11.849l4.18,11.886
					l-4.639-11.715l-4.54-11.752l-8.926-23.561l-8.709-23.642C452.652,275.023,449.803,267.122,447.056,259.183z"/>
			</g>
			<g>
				<path d="M500.565,261.423c-0.218,7.721-0.546,15.435-0.891,23.149l-1.156,23.134l-1.387,23.121l-0.776,11.556l-0.881,11.55
					l0.392-11.577l0.497-11.572l1.158-23.134l1.389-23.121C499.415,276.825,499.935,269.121,500.565,261.423z"/>
			</g>
		</g>
		<g style="clip-path:url(#SVGID_00000127741300212933568070000014647964891694786721_);">
			<path style="fill:none;stroke:#000000;stroke-miterlimit:10;" d="M511.004,180.965h-47.877
				c-6.417-3.611-10.415-10.335-11.14-17.662c-0.664-6.712,1.922-13.824,7.207-18.014c5.285-4.19,13.233-4.983,18.915-1.349
				c1.399,0.895,2.637,2.016,3.975,2.999c0.583-6.427,2.77-12.804,7.456-17.241c4.686-4.437,11.506-6.749,17.813-5.38
				c6.307,1.369,11.752,6.686,12.625,13.08"/>
			<g>
				<path d="M-1.271,94.559h77.623l-0.26,0.137l0.006-0.009c1.469-2.124,2.402-4.629,2.65-7.217
					c0.257-2.575-0.015-5.249-0.894-7.678c-0.868-2.421-2.98-4.346-5.477-4.959c-2.478-0.634-5.26,0.073-7.121,1.801l-0.898,0.835
					l0.394-1.183l0.001-0.004c1.206-3.232,1.13-6.866,0.288-10.209c-0.44-1.68-1.016-3.339-1.884-4.823
					c-0.857-1.483-2.069-2.764-3.594-3.514c-1.52-0.763-3.26-1.048-4.977-1.02c-1.721,0.038-3.447,0.346-5.078,0.917
					c-3.268,1.125-6.208,3.227-8.274,6.001l-0.005,0.007l-0.491,0.624l-0.077-0.786c-0.462-4.692-2.112-9.239-4.685-13.164
					c-2.58-3.922-6.129-7.209-10.275-9.385c-4.125-2.215-8.833-3.32-13.528-3.301c-4.693,0.03-9.401,1.144-13.561,3.361
					l-0.305-0.553c4.192-2.399,9.025-3.639,13.86-3.684c4.833-0.06,9.702,1.032,14.004,3.294c4.285,2.294,7.918,5.726,10.541,9.788
					c2.641,4.054,4.254,8.775,4.581,13.59l-0.568-0.162l0.005-0.007c2.146-2.881,5.189-5.055,8.575-6.221
					c1.692-0.592,3.477-0.912,5.274-0.952c1.792-0.028,3.631,0.266,5.27,1.087c1.65,0.81,2.958,2.203,3.855,3.759
					c0.912,1.562,1.5,3.265,1.951,4.985c0.866,3.45,0.956,7.189-0.309,10.592l-0.001,0.004l-0.505-0.348
					c2.088-1.781,5.018-2.512,7.664-1.806c2.628,0.692,4.891,2.69,5.818,5.255c0.928,2.532,1.213,5.244,0.965,7.912
					c-0.254,2.666-1.16,5.283-2.665,7.519l-0.006,0.01l-0.089,0.137h-0.172H-1.271V94.559z"/>
			</g>
		</g>
		<g style="clip-path:url(#SVGID_00000127741300212933568070000014647964891694786721_);">
			<line style="fill:none;stroke:#000000;stroke-miterlimit:10;" x1="112.955" y1="299.123" x2="143.402" y2="269.658"/>
			<g>
				<g>
					<g>
						<path d="M198.013,216.112l55.984-54.15l13.996-13.538l6.998-6.769l3.499-3.384l1.75-1.692c0.538-0.558,1.283-1.2,2.093-1.519
							c0.798-0.359,1.747-0.486,2.563-0.452l2.434,0.001l4.868,0.001l9.736,0.003l19.472,0.005l38.944,0.01l4.868,0.001l2.434,0.001
							l1.217,0c0.405-0.006,0.874,0.021,1.299,0.11c0.864,0.176,1.688,0.559,2.373,1.115c0.699,0.594,1.165,1.193,1.746,1.781
							l3.331,3.55l13.332,14.192l53.341,56.755l-0.729,0.684l-53.269-56.823l-13.321-14.202l-3.333-3.548
							c-0.556-0.567-1.112-1.243-1.656-1.696c-0.575-0.467-1.266-0.786-1.991-0.934c-0.701-0.148-1.522-0.073-2.339-0.092
							l-2.434,0.001l-4.868,0.001l-38.944,0.01l-19.472,0.005l-9.736,0.003l-4.868,0.001l-2.434,0.001
							c-0.803-0.028-1.501,0.078-2.192,0.377c-0.339,0.145-0.66,0.33-0.953,0.553c-0.289,0.211-0.555,0.49-0.857,0.779l-1.749,1.693
							l-3.497,3.386l-6.994,6.772l-13.989,13.545l-55.955,54.18L198.013,216.112z"/>
					</g>
					<path style="fill:none;stroke:#000000;stroke-miterlimit:10;" d="M280.989,136.507c0,0-23.288,26.97-14.124,33.806
						c9.164,6.836,31.709-16.903,31.709-16.903s-0.582,33.049,12.509,34.212c13.091,1.164,19.345-34.909,19.345-34.909
						s7.564,33.6,18.618,32.873c11.055-0.727,12.364-35.636,12.364-35.636s10.182,32.582,19.782,28.8
						c9.6-3.782-0.592-33.736-0.592-33.736"/>
					<g>
						<path d="M289.362,135.348c-0.961-6.005-0.226-12.206,1.798-17.9c2.012-5.709,5.348-10.931,9.606-15.218
							c4.251-4.297,9.342-7.725,14.838-10.195c2.748-1.239,5.594-2.254,8.499-3.048c1.451-0.404,2.921-0.741,4.4-1.009
							c0.74-0.136,1.476-0.295,2.218-0.411l2.23-0.32c11.912-1.599,23.976-0.804,35.685-3.056c5.802-1.196,11.51-3.156,16.44-6.476
							c4.95-3.279,9.181-7.543,12.973-12.124c7.596-9.181,13.596-19.674,21.917-28.387c4.109-4.389,9.004-8.025,14.274-10.912
							c5.314-2.811,11.039-4.871,16.952-5.986c5.911-1.095,11.996-1.39,17.973-0.607c0.745,0.105,1.497,0.17,2.237,0.307
							l2.219,0.426c1.482,0.272,2.934,0.67,4.382,1.047c2.892,0.769,5.757,1.594,8.674,2.063c1.457,0.234,2.924,0.376,4.389,0.375
							c1.465-0.002,2.923-0.178,4.362-0.444c2.875-0.581,5.614-1.746,8.161-3.219c5.11-2.977,9.4-7.2,13.347-11.626l0.749,0.663
							c-3.999,4.455-8.359,8.736-13.62,11.783c-2.623,1.506-5.461,2.706-8.454,3.303c-1.498,0.274-3.019,0.452-4.545,0.45
							c-1.524-0.003-3.04-0.155-4.533-0.399c-2.988-0.49-5.877-1.333-8.756-2.107c-1.442-0.38-2.876-0.778-4.333-1.049l-2.183-0.425
							c-0.728-0.137-1.468-0.203-2.202-0.309c-5.883-0.79-11.884-0.516-17.72,0.548c-5.838,1.083-11.495,3.1-16.75,5.86
							c-5.212,2.838-10.045,6.402-14.127,10.737c-4.126,4.291-7.716,9.074-11.209,13.914c-3.493,4.843-6.861,9.798-10.68,14.426
							c-3.804,4.623-8.07,8.954-13.095,12.303c-5.007,3.394-10.821,5.409-16.69,6.634c-11.842,2.307-23.928,1.543-35.717,3.167
							l-2.206,0.323c-0.733,0.117-1.458,0.277-2.188,0.413c-1.46,0.269-2.905,0.605-4.332,1.007
							c-2.858,0.789-5.655,1.796-8.352,3.022c-5.397,2.439-10.388,5.805-14.542,10.015c-4.158,4.196-7.408,9.297-9.366,14.87
							c-1.968,5.557-2.672,11.592-1.735,17.411L289.362,135.348z"/>
					</g>
					<g>
						<path d="M366.385,135.204c0.382-4.001,1.704-7.887,3.716-11.35c1.994-3.48,4.647-6.561,7.689-9.159
							c3.035-2.615,6.448-4.753,10.01-6.554c3.579-1.762,7.275-3.317,11.166-4.31c1.943-0.492,3.94-0.811,5.955-0.882
							c2.016-0.074,4.039,0.142,6.003,0.574c3.936,0.879,7.62,2.562,11.115,4.471c7.023,3.788,13.465,8.536,20.63,11.865
							c3.571,1.646,7.321,2.968,11.211,3.433c1.943,0.231,3.898,0.29,5.846,0.133c1.946-0.174,3.87-0.554,5.752-1.083
							c7.551-2.166,14.191-6.979,19.225-13.012c5.104-6.017,9.115-13.018,14.915-18.617c2.912-2.756,6.289-5.067,10.045-6.531
							c3.73-1.467,7.953-1.971,11.865-0.858l-0.139,0.504c-3.795-1.032-7.868-0.503-11.486,0.966c-3.638,1.47-6.92,3.76-9.763,6.467
							c-5.663,5.514-9.63,12.508-14.766,18.634c-5.088,6.159-11.85,11.135-19.621,13.405c-1.941,0.546-3.932,0.926-5.946,1.099
							c-2.017,0.156-4.044,0.087-6.048-0.16c-4.016-0.497-7.853-1.87-11.476-3.557c-7.254-3.435-13.658-8.237-20.597-12.041
							c-3.458-1.909-7.079-3.567-10.913-4.436c-3.829-0.901-7.833-0.709-11.645,0.27c-3.818,0.961-7.499,2.494-11.045,4.228
							c-3.53,1.771-6.908,3.874-9.906,6.442c-3.006,2.552-5.621,5.572-7.591,8.987c-1.988,3.397-3.294,7.204-3.68,11.119
							L366.385,135.204z"/>
					</g>
				</g>
				<g>
					<g>
						<path d="M324.128,207.212c0.188,6.161,0.352,12.322,0.482,18.483l0.349,18.485l0.233,18.487
							c0.063,6.163,0.094,12.326,0.098,18.489c-0.189-6.161-0.352-12.322-0.483-18.483l-0.348-18.485l-0.232-18.487
							C324.164,219.539,324.133,213.376,324.128,207.212z"/>
					</g>
					<g>
						<path d="M285.846,205.94c-2.704,4.376-5.43,8.738-8.183,13.082l-8.295,13.01l-8.393,12.947
							c-2.81,4.308-5.647,8.598-8.506,12.874c2.704-4.376,5.429-8.738,8.183-13.082l8.296-13.009l8.393-12.947
							C280.15,214.507,282.987,210.217,285.846,205.94z"/>
					</g>
					<g>
						<path d="M372.579,202.95c1.729,5.95,3.434,11.907,5.107,17.873l4.979,17.908l4.867,17.939
							c1.608,5.983,3.186,11.976,4.737,17.975c-1.73-5.95-3.435-11.907-5.108-17.873l-4.978-17.909l-4.866-17.939
							C375.708,214.941,374.132,208.949,372.579,202.95z"/>
					</g>
				</g>
			</g>
		</g>
		<g style="clip-path:url(#SVGID_00000127741300212933568070000014647964891694786721_);">
			<g>
				<g>
					<path d="M317.245,297.904c0.024-3.656,1.115-7.253,2.857-10.441c1.759-3.191,4.11-6.026,6.805-8.458
						c1.354-1.214,2.815-2.319,4.388-3.251c0.788-0.464,1.598-0.895,2.449-1.238c0.83-0.392,1.707-0.663,2.575-0.956
						c1.763-0.501,3.575-0.809,5.4-0.935c1.828-0.087,3.657,0,5.468,0.24c1.807,0.267,3.581,0.709,5.314,1.273
						c1.722,0.597,3.397,1.321,5.011,2.164c1.599,0.871,3.134,1.859,4.587,2.946c1.441,1.105,2.812,2.296,4.113,3.558
						c5.191,5.091,9.07,11.298,12.324,17.698l0.007,0.013l-0.551,0.17c-0.487-4.192-0.885-8.448-0.409-12.697
						c0.25-2.11,0.726-4.24,1.682-6.173c0.927-1.937,2.244-3.695,3.893-5.09c1.654-1.373,3.693-2.37,5.871-2.568
						c2.171-0.216,4.358,0.304,6.291,1.219c3.902,1.857,7.008,4.824,10.306,7.427l0.021,0.017l-0.476,0.271
						c-1.671-10.92-3.3-22.044-2.019-33.167c0.658-5.526,1.949-11.016,4.201-16.138c1.12-2.559,2.464-5.025,4.047-7.334
						c1.598-2.301,3.446-4.427,5.507-6.327c4.099-3.815,9.151-6.662,14.632-7.964c5.493-1.293,11.315-0.8,16.598,1.052
						c5.303,1.843,10.088,5.02,14.016,8.986c3.94,3.971,7.062,8.686,9.463,13.702l0.02,0.04l-0.556,0.099
						c0.16-1.441,0.61-2.816,1.217-4.101c0.601-1.29,1.347-2.505,2.205-3.636c0.853-1.134,1.821-2.185,2.926-3.095
						c1.093-0.9,2.405-1.671,3.879-1.86c1.46-0.199,2.939,0.113,4.246,0.714c1.311,0.604,2.485,1.494,3.43,2.574
						c1.908,2.162,3.025,4.822,4.099,7.393l0.022,0.054l-0.563,0.085c0.358-4.051,1.659-7.99,3.642-11.53
						c1.984-3.536,4.657-6.723,7.971-9.113c1.638-1.2,3.465-2.21,5.47-2.752c2.009-0.56,4.164-0.451,6.139,0.083
						c1.988,0.526,3.838,1.407,5.614,2.362c0.883,0.491,1.766,0.961,2.622,1.548c0.841,0.581,1.661,1.353,2.044,2.391l-0.55,0.206
						c-0.334-0.862-1.05-1.536-1.855-2.072c-0.807-0.537-1.709-0.996-2.585-1.47c-1.759-0.934-3.569-1.778-5.472-2.269
						c-1.895-0.497-3.891-0.583-5.762-0.051c-1.878,0.512-3.617,1.501-5.218,2.65c-3.218,2.295-5.845,5.388-7.8,8.834
						c-1.942,3.454-3.263,7.287-3.677,11.237l-0.12,1.146l-0.443-1.062l-0.022-0.054c-1.07-2.571-2.173-5.167-3.996-7.229
						c-1.777-2.02-4.474-3.437-7.158-3.096c-1.328,0.17-2.534,0.867-3.589,1.734c-1.057,0.87-1.999,1.89-2.828,2.993
						c-0.834,1.099-1.561,2.282-2.141,3.53c-0.588,1.243-1.015,2.564-1.164,3.91l-0.109,0.984l-0.447-0.885l-0.02-0.039
						c-2.425-4.944-5.573-9.551-9.466-13.427c-3.874-3.883-8.566-6.969-13.751-8.75c-5.166-1.789-10.818-2.24-16.132-0.969
						c-5.303,1.293-10.217,4.055-14.237,7.761c-2.017,1.849-3.829,3.922-5.397,6.166c-1.556,2.256-2.881,4.671-3.988,7.182
						c-2.227,5.025-3.517,10.436-4.183,15.896c-0.659,5.472-0.565,11.01-0.154,16.515c0.418,5.51,1.168,10.995,1.974,16.472
						l0.11,0.749l-0.586-0.478l-0.021-0.017c-3.302-2.611-6.411-5.562-10.182-7.35c-1.871-0.885-3.943-1.371-5.986-1.168
						c-2.045,0.186-3.971,1.123-5.553,2.435c-1.576,1.333-2.847,3.026-3.741,4.894c-0.921,1.861-1.382,3.916-1.628,5.986
						c-0.467,4.161-0.077,8.383,0.409,12.56l0.175,1.504l-0.727-1.333l-0.007-0.012c-1.691-3.156-3.523-6.235-5.566-9.163
						c-2.034-2.932-4.295-5.705-6.844-8.186c-1.285-1.229-2.635-2.385-4.05-3.456c-1.429-1.054-2.924-2.001-4.484-2.838
						c-1.574-0.809-3.205-1.5-4.88-2.068c-1.685-0.535-3.405-0.944-5.148-1.223c-1.748-0.242-3.512-0.337-5.273-0.265
						c-1.758,0.112-3.5,0.396-5.194,0.866c-0.834,0.277-1.677,0.53-2.474,0.902c-0.817,0.323-1.598,0.732-2.36,1.174
						c-1.521,0.889-2.943,1.95-4.269,3.124c-2.648,2.354-4.949,5.117-6.693,8.197c-1.748,3.069-2.864,6.531-2.952,10.071
						L317.245,297.904z"/>
				</g>
				<g>
					<path d="M-9.156,184.448c-1.126-2.576-1.212-5.573-0.244-8.208c0.949-2.655,3.021-4.84,5.547-6.046
						c1.262-0.611,2.641-0.976,4.051-1.051c0.706-0.031,1.435,0.035,2.125,0.261c0.689,0.224,1.316,0.586,1.882,1.005
						c2.201,1.736,3.908,3.975,5.158,6.446l0.006,0.012l-0.557,0.036c2.174-6.201,8.52-10.465,15.022-10.521
						c3.229-0.128,6.488,0.428,9.483,1.665c3,1.219,5.702,3.212,7.709,5.77c2.004,2.563,3.339,5.557,4.3,8.611
						c0.987,3.057,1.595,6.23,1.836,9.429c0.505,6.398-0.481,12.904-2.862,18.862l-0.014,0.037l-0.5-0.321
						c1.216-1.277,2.599-2.387,4.087-3.324c1.494-0.915,3.067-1.748,4.8-2.198c1.719-0.44,3.564-0.516,5.303-0.032
						c1.735,0.487,3.297,1.544,4.416,2.938c2.286,2.781,3.078,6.531,2.694,10.017c-0.346,3.524-1.607,6.833-2.835,10.068
						l-0.02,0.053l-0.433-0.371c1.829-1.018,3.715-1.983,5.731-2.638c2.014-0.654,4.166-0.914,6.279-0.679
						c4.239,0.518,8.069,3.157,10.271,6.771c2.23,3.618,3.001,8.012,2.517,12.194c-0.459,4.209-1.99,8.205-3.853,11.953l-0.03,0.061
						l-0.504-0.329c1.91-2.358,4.828-3.751,7.805-4.091c1.493-0.166,3.017-0.123,4.494,0.206c1.473,0.337,2.888,0.895,4.18,1.664
						c2.595,1.522,4.739,3.737,6.31,6.275c1.568,2.553,2.556,5.404,3.163,8.297c0.605,2.901,0.832,5.851,0.855,8.791
						c0.02,2.942-0.183,5.887-0.642,8.792c-0.878,5.819-2.756,11.471-5.454,16.684l-0.038,0.077l-0.488-0.347
						c2.01-2.105,4.998-2.903,7.785-2.828c2.817,0.049,5.635,1.022,7.852,2.772c2.241,1.717,3.949,4.078,4.993,6.678
						c1.057,2.602,1.508,5.413,1.496,8.199l0,0.1l-0.565-0.153c1.549-2.652,3.304-5.31,5.824-7.218
						c2.474-1.876,5.707-3.005,8.848-2.396c3.125,0.605,5.774,2.665,7.56,5.204c0.902,1.301,1.405,2.818,1.743,4.324
						c0.342,1.511,0.557,3.033,0.927,4.513l-0.368,0.093c-0.767-2.976-0.901-6.181-2.66-8.683c-1.74-2.447-4.327-4.419-7.291-4.968
						c-2.969-0.559-6.054,0.527-8.427,2.35c-2.405,1.842-4.113,4.444-5.631,7.083l-0.555,0.965l-0.01-1.118l-0.001-0.098
						c0.003-2.718-0.447-5.45-1.475-7.958c-1.017-2.506-2.662-4.759-4.809-6.394c-2.132-1.655-4.768-2.594-7.468-2.654
						c-2.665-0.084-5.475,0.673-7.331,2.606l-1.306,1.361l0.818-1.708l0.037-0.077c2.581-5.201,4.307-10.807,5.164-16.535
						c0.435-2.864,0.617-5.764,0.58-8.657c-0.04-2.893-0.283-5.79-0.887-8.605c-0.607-2.807-1.581-5.549-3.088-7.969
						c-1.483-2.423-3.494-4.555-5.928-6.012c-1.208-0.737-2.538-1.275-3.905-1.603c-1.371-0.321-2.804-0.376-4.21-0.235
						c-1.406,0.154-2.786,0.54-4.07,1.128c-1.279,0.601-2.434,1.461-3.36,2.527l-1.605,1.849l1.102-2.178l0.03-0.06
						c1.885-3.688,3.457-7.608,3.909-11.734c0.491-4.092-0.249-8.384-2.404-11.913c-2.119-3.514-5.847-6.124-9.949-6.567
						c-2.044-0.21-4.13,0.058-6.08,0.71c-1.963,0.639-3.787,1.65-5.581,2.7l-0.737,0.431l0.304-0.802l0.02-0.053
						c1.228-3.232,2.465-6.496,2.798-9.911c0.374-3.373-0.401-6.948-2.558-9.573c-1.055-1.313-2.503-2.286-4.111-2.74
						c-1.615-0.451-3.356-0.383-4.99,0.035c-1.636,0.421-3.172,1.231-4.629,2.124c-1.449,0.912-2.792,1.991-3.97,3.228l-1.022,1.073
						l0.522-1.395l0.014-0.037c2.327-5.875,3.279-12.288,2.761-18.584c-0.247-3.149-0.855-6.268-1.834-9.269
						c-0.953-3.002-2.271-5.916-4.207-8.375c-3.884-4.95-10.367-7.424-16.596-7.193c-3.146,0.05-6.212,1.017-8.793,2.796
						c-2.569,1.763-4.645,4.293-5.684,7.232l-0.235,0.667l-0.322-0.63l-0.006-0.011c-1.201-2.387-2.893-4.589-4.977-6.23
						c-2.082-1.744-5.089-1.266-7.435-0.157c-2.391,1.142-4.349,3.208-5.241,5.707c-0.917,2.486-0.832,5.333,0.229,7.756
						L-9.156,184.448z"/>
				</g>
			</g>
			<g>
				<path d="M12.118,233.64c0.456-3.215,0.911-6.479,2.158-9.527c0.62-1.517,1.434-2.971,2.51-4.227
					c0.519-0.642,1.143-1.219,1.855-1.666c0.714-0.436,1.548-0.757,2.429-0.716c0.883,0.028,1.717,0.503,2.271,1.152
					c0.563,0.648,0.945,1.415,1.223,2.192c0.596,1.549,0.882,3.201,0.95,4.847c0.13,3.307-0.54,6.548-1.206,9.728l-0.421-0.135
					c0.701-1.564,1.423-3.22,2.734-4.453c0.632-0.594,1.456-1.162,2.426-1.1c0.971,0.085,1.705,0.832,2.061,1.644
					c0.361,0.841,0.362,1.754,0.299,2.615l-0.265,2.579l-0.544,5.152l0.375-5.167l0.182-2.581c0.048-0.849,0.021-1.722-0.321-2.476
					c-0.338-0.739-1.017-1.373-1.811-1.421c-0.798-0.041-1.541,0.461-2.128,1.039c-1.203,1.184-1.916,2.774-2.601,4.346
					l-0.847,1.946l0.426-2.081c0.652-3.18,1.278-6.393,1.146-9.617c-0.057-1.606-0.325-3.205-0.891-4.703
					c-0.263-0.753-0.623-1.471-1.126-2.058c-0.499-0.586-1.196-0.982-1.955-1.014c-0.757-0.041-1.517,0.236-2.186,0.64
					c-0.674,0.408-1.274,0.938-1.79,1.552c-1.068,1.201-1.892,2.609-2.53,4.092C13.269,227.206,12.665,230.436,12.118,233.64z"/>
			</g>
			<g>
				<path d="M70.943,295.292c0.192-3.415,0.349-6.88,1.329-10.204c0.485-1.655,1.16-3.266,2.081-4.74
					c0.46-0.736,0.982-1.438,1.577-2.074c0.612-0.601,1.176-1.318,2.129-1.602c0.468-0.109,1-0.049,1.406,0.217
					c0.41,0.253,0.719,0.613,0.954,0.997c0.474,0.766,0.714,1.654,0.863,2.494c0.345,1.693,0.548,3.411,0.66,5.131
					c0.209,3.444,0.059,6.885-0.092,10.31l-0.431-0.051c0.319-1.614,1.007-3.147,1.983-4.464c0.245-0.328,0.503-0.647,0.783-0.946
					c0.278-0.301,0.591-0.6,0.997-0.785c0.401-0.195,0.932-0.171,1.305,0.095c0.376,0.259,0.597,0.646,0.76,1.026
					c0.539,1.566,0.727,3.175,0.807,4.793c0.063,1.616-0.059,3.237-0.367,4.819c0.257-1.591,0.326-3.209,0.211-4.811
					c-0.128-1.589-0.385-3.214-0.913-4.689c-0.156-0.351-0.368-0.688-0.668-0.883c-0.297-0.197-0.675-0.211-1-0.051
					c-0.652,0.334-1.142,1.03-1.614,1.65c-0.917,1.292-1.555,2.778-1.858,4.328l-0.431-0.051c0.131-3.426,0.258-6.853,0.031-10.26
					c-0.113-1.702-0.294-3.4-0.628-5.071c-0.145-0.845-0.363-1.642-0.789-2.346c-0.401-0.699-1.111-1.227-1.864-1.026
					c-0.732,0.195-1.338,0.879-1.924,1.464c-0.576,0.616-1.102,1.282-1.562,1.993c-0.924,1.421-1.617,2.991-2.125,4.616
					C71.549,288.438,71.229,291.88,70.943,295.292z"/>
			</g>
			<g>
				<path d="M105.965,330.501c0.151-2.434,0.891-4.846,2.158-6.963c0.631-1.047,1.35-2.095,2.404-2.834
					c0.524-0.355,1.146-0.644,1.829-0.638c0.675-0.003,1.348,0.298,1.8,0.789c0.896,1.007,1.127,2.321,1.24,3.533
					c0.113,1.224,0.149,2.453,0.087,3.676c-0.095,2.449-0.464,4.864-0.857,7.268c0.21-2.427,0.446-4.854,0.473-7.277
					c0.001-1.211-0.021-2.421-0.156-3.621c-0.115-1.175-0.385-2.408-1.149-3.234c-0.369-0.41-0.896-0.649-1.442-0.656
					c-0.547-0.014-1.09,0.22-1.57,0.537c-0.972,0.65-1.667,1.664-2.334,2.659C107.159,325.769,106.299,328.087,105.965,330.501z"/>
			</g>
			<g>
				<path d="M352.164,320.932c-0.127-3.092-0.264-6.242,0.471-9.302c0.371-1.52,0.951-3,1.796-4.333
					c0.423-0.665,0.911-1.293,1.472-1.853c0.283-0.28,0.574-0.542,0.891-0.793c0.165-0.123,0.353-0.245,0.586-0.306
					c0.234-0.064,0.5-0.03,0.708,0.067c0.423,0.199,0.686,0.52,0.948,0.822c0.256,0.313,0.475,0.652,0.667,1.002
					c0.384,0.702,0.655,1.447,0.905,2.186c0.493,1.481,0.926,2.982,1.273,4.504c0.716,3.04,1.082,6.157,1.173,9.276l-0.461,0.015
					c-0.068-2.045,0.559-4.097,1.75-5.754c0.582-0.804,1.402-1.653,2.547-1.697c0.557-0.01,1.097,0.258,1.456,0.654
					c0.364,0.395,0.595,0.871,0.766,1.35c0.332,0.972,0.467,1.957,0.672,2.934c0.188,0.98,0.347,1.965,0.488,2.952
					c0.284,1.974,0.496,3.958,0.637,5.945c-0.204-1.982-0.48-3.955-0.826-5.915c-0.375-1.943-0.696-3.943-1.276-5.805
					c-0.313-0.892-0.972-1.782-1.913-1.738c-0.912,0.038-1.665,0.796-2.206,1.566c-1.126,1.586-1.712,3.55-1.635,5.489l-0.461,0.015
					c-0.102-3.09-0.511-6.166-1.185-9.182c-0.335-1.509-0.755-2.998-1.234-4.467c-0.243-0.732-0.502-1.455-0.861-2.119
					c-0.353-0.636-0.824-1.331-1.401-1.644c-0.557-0.29-1.182,0.465-1.728,0.926c-0.548,0.528-1.03,1.126-1.452,1.763
					c-0.843,1.278-1.439,2.717-1.83,4.205C352.121,314.691,352.125,317.835,352.164,320.932z"/>
			</g>
			<g>
				<path d="M424.74,256.146c-0.309-3.188-0.654-6.395-0.454-9.618c0.179-3.207,0.87-6.457,2.467-9.306
					c0.401-0.709,0.835-1.392,1.361-2.031c0.528-0.626,1.154-1.217,1.956-1.549c0.792-0.351,1.771-0.3,2.528,0.123
					c0.767,0.406,1.347,1.08,1.732,1.823c0.754,1.514,0.916,3.134,1.299,4.684l1.023,4.701l-0.411-0.004
					c0.313-1.248,0.707-2.476,1.177-3.672c0.468-1.167,0.985-2.472,2.146-3.208c0.57-0.346,1.27-0.499,1.929-0.346
					c0.67,0.138,1.196,0.698,1.392,1.315c0.435,1.218,0.146,2.627,1.003,3.658c-0.896-0.998-0.668-2.459-1.133-3.608
					c-0.214-0.584-0.704-1.058-1.307-1.161c-0.596-0.116-1.233,0.047-1.744,0.368c-1.041,0.684-1.526,1.931-1.964,3.104
					c-0.441,1.192-0.803,2.412-1.088,3.648l-0.208,0.902l-0.204-0.906l-1.055-4.694c-0.389-1.549-0.583-3.186-1.287-4.555
					c-0.352-0.675-0.881-1.258-1.534-1.612c-0.649-0.361-1.427-0.408-2.113-0.116c-1.395,0.597-2.319,2.016-3.108,3.355
					c-1.555,2.764-2.307,5.933-2.553,9.107C424.351,249.735,424.533,252.947,424.74,256.146z"/>
			</g>
		</g>
	</g>
</g>
</svg>
