<?xml version="1.0" encoding="utf-8"?>
<!-- Generator: Adobe Illustrator 27.5.0, SVG Export Plug-In . SVG Version: 6.00 Build 0)  -->
<svg xmlns="http://www.w3.org/2000/svg" xmlns:xlink="http://www.w3.org/1999/xlink" viewBox="0 0 4000 4000" width="595" height="842" preserveAspectRatio="xMidYMid meet" data-scaled="true">
<rect style="fill:#FFFFFF;" width="4000" height="4000"/>
<g>
	<path d="M3759.319,2882.435c-43.206-20.374-73.44-57.55-94.604-99.514c-35.938-71.263-60.262-159.729-65.115-239.533
		c-2.586-42.506,5.915-83.527,6.263-125.746c0.743-89.922-51.477-149.344-138.099-169.711c-4.426-28.965-6.216-70.818-18.437-96.996
		c-10.456-22.397-25.425-43.733-38.288-64.907l-62.902-104.927l-226.275-379.651c-95.194-163.981-191.706-327.183-289.535-489.607
		c-25.295-42.659-50.81-85.187-76.543-127.582c-12.375-20.424-24.137-43.209-38.743-61.973
		c-24.973-6.869-51.215-10.542-76.697-15.162c-37.233-6.885-74.511-13.516-111.835-19.893
		c-20.464,7.077-108.805,58.131-117.672,75.427c-2.249,4.38-1.779,8.272-0.219,12.759c2.098,6.048,6.586,9.965,11.511,13.771
		c11.371,8.795,25.098,14.925,36.874,23.323c38.826,27.684,82.938,69.172,104.593,112.205
		c11.288,22.429,16.694,49.092,23.527,73.196c10.981,39.12,22.19,78.174,33.628,117.162l87.042,296.336
		c19.208,65.068,39.54,129.907,57.535,195.312c-11.564,3.314-24.338,7.644-30.199,19.194c-8.756,17.257,8.106,59.393,14.66,77.275
		c7.404,20.206,24.087,18.043,27.48,26.899c14.366,37.527,24.392,78.502,36.594,116.897l50.053,153.43
		c21.583,67.518,42.588,136.048,68.608,201.998l-14.212,12.493c-21.823-31.397-40.712-65.14-60.344-97.957l-111.943-187.188
		c-18.236-30.529-35.361-62.324-54.992-91.938c-2.667-4.084-5.464-8.077-8.394-11.977c-2.929-3.9-5.984-7.699-9.165-11.396
		c-3.181-3.699-6.478-7.29-9.893-10.772c-3.417-3.482-6.944-6.847-10.582-10.097c-3.637-3.25-7.377-6.376-11.22-9.38
		c-3.843-3.004-7.781-5.878-11.812-8.623c-4.034-2.745-8.153-5.354-12.357-7.827c-4.204-2.473-8.485-4.805-12.842-6.998
		c-36.34-18.308-110.071-34.13-152.498-45.871l-205.331-58.335c-41.275-11.733-83.042-22.304-123.913-35.343
		c0.215-30.719-0.039-61.435-0.764-92.146c14.258-0.039,27.43,1.026,38.574-9.506c9.549-9.025,11.123-22.44,11.102-34.919
		c-0.047-30.393-1.212-60.767-1.173-91.171c0.029-20.27,2.181-41.699-0.025-61.822c-0.854-7.82-2.4-13.889-6.686-20.485
		c-16.453-11.475-104.988-10.406-127.087-6.231c-7.522,1.42-15.083,3.11-20.647,8.681c-7.023,22.196-7.669,175.924-1.008,200.739
		c6.112,7.891,13.031,11.676,22.953,13.114c8.003,1.159,16.245,1.56,24.313,2.167c0.45,24.793,0.323,49.583-0.38,74.369
		c-42.365-13.351-84.935-26.009-127.711-37.976c-27.179-7.802-54.583-16.64-82.218-22.609
		c-67.658-164.991-121.886-335.542-188.091-501.136c12.124,0.255,44.608,4.849,53.902-3.576c6.037-5.47,8.239-13.519,8.329-21.432
		c0.222-19.363-11.339-67.479-25.356-80.908c-2.023-1.94-4.225-3.773-6.439-5.484c-51.118-1.037-102.337,0.011-153.47-0.032
		l-311.369-0.219l-229.808-0.197c-36.351-0.068-73.092-1.546-109.382-0.488c-7.529,0.219-20.31,0.524-26.4,5.276
		c-15.503,12.103-25.539,67.927-24.797,86.393c0.237,5.858,1.718,12.286,6.385,16.281c8.964,7.676,32.792,3.318,44.073,2.557
		c-3.596,84.629-6.699,169.276-9.308,253.942c-2.375,66.966-5.416,134.15-5.901,201.155c-26.924-0.212-53.931,0.036-80.837-0.721
		c0.273-34.615,4.95-131.707-1.41-159.704c-2.425-10.675-7.44-20.909-15.037-28.857c-10.973-11.482-26.07-16.511-41.738-16.21
		c-16.109,0.309-30.805,6.03-41.76,18.053c-8.207,9.007-13.336,20.464-15.657,32.355c-3.616,18.505-1.847,39.256-1.74,58.052
		l0.563,95.658c-18.01-0.484-44.931-4.86-62.105,0.789c-22.433,7.382-52.571,28.836-73.985,40.87
		c-63.907,35.924-129.598,70.388-191.826,109.055c-6.161,3.831-12.149,8.193-17.463,13.139c-8.116,7.554-7.452,13.602-7.679,24.101
		c-1.019,46.993,0.279,94.299,0.478,141.31l1.118,317.772c-10.659,1.345-18.738,2.726-25.639,11.636
		c-10.518,13.584-6.533,40.53-6.212,56.685c-29.739-0.158-94.536-8.196-115.484,14.04c-3.77,4.003-6.967,8.734-9.701,13.484
		c-1.438,45.3-0.339,90.855-0.246,136.188c0.046,22.555-2.106,46.685,0.428,69.028c0.968,8.534,3.154,16.812,9.035,23.316
		c11.947,13.214,28.166,13.06,44.691,13.333c64.756,1.08,129.943,0.341,194.71-0.588c2.609,19.667,14.434,25.826,6.495,42.104
		c-8.33,17.081,6.911,69.129,13.317,87.178c4.96,13.982,12.117,27.878,25.976,34.518c3.043,1.447,6.127,2.802,9.251,4.064
		c-6.078,17.996-3.017,28.732,5.413,45.451c12.349,24.488,31.453,57.733,57.22,69.139c8.917,3.949,8.978,4.351,12.339,13.505
		c1.754,4.774,3.153,9.947,5.954,14.248c12.357,18.972,57.431,50.921,78.261,61.144c8.907,4.369,20.837,0.925,29.137,4.982
		c8.239,4.025,12.415,14.251,20.152,19.165c20.374,12.935,72.698,29.356,96.745,29.112c7.891-0.079,15.424-3.002,22.695-5.782
		c25.005,20.851,67.066,15.693,97.918,12.971c20.521-1.812,35.192-6.31,50.344-20.654c12.719,7.192,21.809,5.768,35.536,1.923
		c22.781-6.377,74.746-23.609,86.913-45.781c1.259-2.292,2.292-4.649,3.347-7.041c6.765-1.036,14.671-1.743,20.952-4.52
		c25.256-11.152,56.836-39.5,72.68-61.858c4.175-5.89,5.187-11.6,6.198-18.613c30.464-14.398,51.33-52.75,62.496-83.387
		c4.789-13.135,5.761-22.34,3.899-36.186c25.794-20.815,33.086-60.52,36.652-92.05c1.804-15.944,1.629-29.414-5.635-44.124
		l12.199-17.394l328.773-1.263c-1.202,5.729-2.654,10.223-0.351,15.894c11.758,13.43,31.799,17.505,48.539,22.031
		c24.388-15.553,38.664-35.816,54.942-59.253c1.88,3.307,1.836,5.574,2.174,9.262c0.595,6.453,2.21,8.211,5.868,13.125
		c4.609,6.191,4.093,9.053,2.669,16.432c-1.912,9.918-4.104,19.431-3.802,29.622c0.506,17.146,11.539,85.302,20.181,97.552
		c4.896,6.934,13.057,10.158,20.6,13.311c3.583,4.914,0.474,18.394-0.366,24.56c10.969,21.547,49.016,100.318,71.64,106.215
		c2.844,0.739,6.295,0.699,9.237,0.836c4.656,8.903,9.197,19.23,15.349,27.175c10.801,13.96,51.527,42.363,67.798,50.598
		c19.309,9.771,26.615,7.343,40.063,26.565c30.317,11.041,63.006,24.445,95.066,28.75l26.042-11.626
		c7.102,7.031,14.011,14.341,21.945,20.439c26.368,0.933,98.079,7.594,116.9-9.036c4.566-4.035,8.731-8.763,12.874-13.232
		c7.805,3.956,15.614,8.261,23.563,11.898c26.956-4.168,86.138-22.243,102.742-45.508c3.619-5.072,6.134-11.145,8.695-16.798
		l24.969,5.746c27.197-15.388,51.918-42.427,72.174-66.04c0.151-9.646-1.026-18.559,6.765-25.712
		c3.282-3.013,7.963-4.527,12.027-6.184c22.021-8.996,43.944-55.093,53.027-76.963c5.488-13.211,0.136-52.137,10.754-57.948
		c9.559-5.23,11.464-7.823,14.552-18.208c7.827-26.282,17.587-75.682,4.441-100.651c2.041-8.566,4.495-15.876,8.186-23.893
		c21.827,7.127,113.338,44.482,128.931,37.108c9.993-4.724,16.579-17.562,19.757-27.588c2.78-8.76,3.985-20.277-0.614-28.671
		c-10.129-18.477-57.03-54.852-74.566-79.273l-131.352-186.484c-18.416-25.909-35.518-56.71-58.568-78.509
		c-28.187-26.658-107.176-71.317-144.162-86.612c-17.483-7.228-35.981-12.142-54.171-17.239
		c-0.441-10.542-1.076-21.102-0.875-31.655c36.828,0.047,195.667-4.419,219.664,5.538c11.765,12.171,15.403,30.759,22.351,45.813
		c5.377,11.644,12.35,22.957,19.262,33.736c57.789,89.594,117.057,178.198,177.804,265.814
		c29.195,42.61,56.549,88.721,89.535,128.479c-6.575,115.788,14.9,209.732,93.829,298.442
		c57.033,64.106,135.083,104.941,221.364,109.794c56.094,3.156,111.954-6.27,167.387-13.605
		c45.686-6.021,91.437-11.504,137.253-16.447l248.41-27.329c42.101-4.545,85.722-6.353,127.331-13.728
		c10.187-1.808,18.545-4.961,26.257-12.153c7.21-6.779,11.765-15.004,16.07-23.814v-22.727
		C3813.196,2899.836,3787.871,2895.904,3759.319,2882.435z M3503.16,2298.773c47.973,25.016,69.247,69.523,67.748,122.6
		c-0.635,22.465-4.649,44.819-6.521,67.209c-1.724,22.105-1.817,44.218-0.28,66.338c4.548,64.767,21.73,125.674,41.505,187.166
		l-21.378-10.708l-2.231-1.342c-55.555-33.56-93.301-93.875-108.36-156.117c-17.26-71.352-7.482-134.505,30.816-196.589
		c-23.104-36.386-45.017-48.134-47.417-95.335C3473.105,2286.298,3488.364,2291.061,3503.16,2298.773z M3415.132,2169.498
		l2.468,0.689c8.422,12.479,17.447,111.516,23.211,137.4c3.515,15.786,8.458,29.413,15.575,43.937
		c-81.87,0.636-163.739,0.756-245.609,0.359l-46.405,0.043c13.365-34.094,22.002-80.93,38.352-111.577
		c3.286-6.155,10.886-8.806,17.06-11.331c25.687-10.503,55.035-16.791,81.816-24.567
		C3339.679,2193.394,3377.264,2181.195,3415.132,2169.498z M2911.184,1802.433c-3.311-9.527-8.96-19.19-18.57-23.416
		c-13.917-6.123-27.925-0.326-41.172,4.577c-20.388-58.289-36.028-119.598-53.127-178.991
		c-14.603-50.72-32.373-102.993-42.061-154.844c17.992,22.247,31.444,50.81,45.386,75.775
		c25.633,45.858,50.876,91.931,75.729,138.218l203.318,376.9c33.979,62.32,66.331,126.897,103.707,187.162
		c-10.137,31.824-20.463,63.585-30.977,95.285l-1.847,4.412c-11.54,4.455-67.152,7.719-85.159,11.102
		c-51.456-152.229-98.151-305.978-149.316-458.289c4.347-4.068,7.751-9.018,11.339-13.745
		C2924.858,1845.922,2918.071,1822.255,2911.184,1802.433z M2460.112,969.13c22.828-15.858,48.12-31.035,73.437-42.466
		c53.805,10.51,107.89,18.398,161.583,29.761c29.865,46.107,57.471,94.062,85.564,141.285l107.441,180.171l250.229,422.007
		l198.074,333.135c22.953,39.457,48.457,78.021,69.179,118.672c-33.248,11.231-67.048,20.855-100.687,30.841
		c-30.822,9.219-61.728,18.145-92.717,26.781c-13.304-29.438-29.736-57.292-45.293-85.561l-52.819-97.882l-202.21-374.429
		l-171.265-311.599c-33.176-60.089-64.215-123.26-102.95-179.97C2586.683,1085.209,2537.297,1018.588,2460.112,969.13z
		 M2746.117,1607.917l-64.91-219.779c-16.586-58.26-38.237-116.129-51.843-175.035c13.674,13.498,32.484,64.552,39.697,84.782
		c15.338,43.001,26.662,88.147,39.532,131.977l59.892,202.586l28.714,99.991c5.908,20.449,13.286,41.236,16.385,62.292
		c-4.254,1.004-5.398,1.51-9.699,0.179c-4.272-5.269-6.858-11.414-8.917-17.849
		C2777.12,1721.295,2762.499,1664.162,2746.117,1607.917z M2784.914,1886.799c-8.594-12.235-11.044-33.89-14.075-48.378
		c33.413-10.133,67.464-18.523,101.2-27.527l3.171,1.144c6.292,14.305,10.295,29.873,14.897,44.798
		c-33.241,12.002-68.497,20.615-102.488,30.421L2784.914,1886.799z M2906.883,2213.302
		c-19.575-59.006-38.638-118.177-57.188-177.513c-12.834-39.748-26.58-79.459-37.735-119.705
		c22.675-6.509,45.177-13.567,67.507-21.174c1.227-0.104,3.451,0.545,4.688,0.778c7.873,12.343,10.069,29.263,14.57,43.152
		l38.223,120.426c30.694,96.745,64.566,192.794,94.155,289.829c-24.528,8.451-45.501,18.997-67.601,32.563
		c-0.943,0.244-1.916-0.384-2.855-0.649c-5.427-13.107-8.548-27.358-13.021-40.863L2906.883,2213.302z M2047.446,1696.054
		l0.104-158.007c30.054-0.131,60.109-0.111,90.163,0.061l-0.09,156.192C2107.556,1694.467,2077.498,1695.051,2047.446,1696.054z
		 M2101.416,1814.912l-19.162-5.09c-0.118-14.814-3.903-68.479-1.256-78.06c0.33-1.194,1.668-1.829,2.5-2.744
		c5.585-0.352,11.191-0.395,16.783-0.513c0.524,1.09,1.202,2.123,1.575,3.278C2104.859,1741.038,2105.53,1807.885,2101.416,1814.912
		z M1918.364,1798.279c46.111,13.699,92.139,27.939,138.465,40.895l241.566,69.208c52.697,14.685,107.309,26.4,158.721,45.06
		c-54.598,8.078-141.163,7.931-181.818,49.214c-32.932,33.442-28.04,78.182-28,120.975l-0.079,73.76
		c-85.998-17.824-182.941-10.097-265.058,20.403c-25.156,10.198-51.219,23.491-73.404,39.195
		c-13.268,9.391-25.191,20.507-38.901,29.295l-3.024-1.212c-4.326-6.529-5.771-11.694-6.718-19.474
		c-3.523-28.944-1.123-60.215-1.062-89.377l-0.244-141.597c29.586,6.385,59.11,13.114,88.753,19.219
		c35.938,7.404,98.079,14.014,128.386,31.749c5.311,3.097,10.304,6.642,14.979,10.635c4.675,3.993,8.957,8.372,12.845,13.135
		c9.47,11.425,23.692,46.183,36.053,50.25c0.183-0.556,0.43-1.094,0.552-1.664c2.493-11.572-5.75-36.182-11.647-46.176
		c-11.392-19.302-30.084-35.877-50.093-45.813c-31.788-15.779-71.561-19.578-106.189-26.705
		c-38.168-7.817-76.192-16.288-114.07-25.414c-1.101-42.753-0.323-85.657-0.298-128.429c0.018-35.87,2.364-71.241-6.977-106.197
		C1873.627,1783.49,1896.365,1791.744,1918.364,1798.279z M1677.92,1380.355l120.928,326.377
		c4.925,13.484,9.95,27.032,15.758,40.164c8.178,18.484,19.736,36.81,22.867,57.03c5.244,33.883,2.027,71.575,2.055,106.046
		l0.534,190.671c-12.501-1.618-24.98-4.466-37.359-6.855c-121.126-23.545-241.731-51.56-362.29-77.874l-257.016-53.837
		c-94.413-20.274-189.264-42.384-284.424-58.698c3.874-51.502,3.239-104.091,5.169-155.762l13.046-363.897
		c0.9-25.009,2.629-135.251,7.762-149.754c3.985-3.716,6.467-3.017,11.787-3.465l685.669-1.112
		c7.87,16.705,13.182,35.113,19.467,52.503L1677.92,1380.355z M877.421,1208.394c2.809-13.509,6.432-26.737,10.108-40.034
		l46.782-0.653c247.517-2.131,495.034-2.208,742.552-0.233c4.534,13.957,8.053,28.387,11.981,42.535l-52.901,0.014l-523.741,0.355
		l-142.167-0.509C939.25,1209.743,908.136,1210.453,877.421,1208.394z M715.439,1544.011c1.822-8.709,7.544-12.099,14.603-16.719
		c6.607-0.255,14.416,0.771,19.646,5.169c3.755,3.157,5.617,7.109,6.331,11.837c2.22,14.761,3.042,143.796-1.13,149.614
		l-8.523,0.402l-31.896-0.291C713.158,1664.757,710.41,1568.095,715.439,1544.011z M442.959,1833.963
		c57.9-33.341,122.63-72.884,181.787-102.194c25.984-2.568,54.935,0.291,81.167,0.47l168.191,1.126
		c0.122,32.889-9.122,157.67-1.65,179.296c19.696,11.227,183.274,41.964,218.541,49.49l514.06,108.991
		c78.286,16.891,157.118,32.419,234.902,51.466c0.66,53.45,2.55,107.757,0.004,161.121c-19.323,21.63-33.015,51.438-48.252,76.271
		c-34.582,56.363-70.097,112.259-102.373,169.984l-431.387-0.187c-1.743-9.441-3.903-18.95-6.704-28.129
		c-8.924-29.238-21.978-59.343-50.078-74.376c-17.637-41.326-51.742-85.572-93.413-104.568c-0.366-0.627-0.746-1.244-1.098-1.879
		c-1.89-3.4-3.555-6.453-6.342-9.261c-19.779-19.922-68.68-46.14-96.002-54.235c-8.3-2.457-18.29,0.681-26.031-1.793
		c-7.303-2.335-14.19-10.664-21.888-13.505c-26.11-9.642-83.742-13.437-112.578-14.072c-4.426,2.432-8.673,5.194-12.963,7.863
		c-4.38-0.879-8.777-1.718-13.207-2.292c-30.063-3.903-96.878,9.843-120.839,28.406l0.266,3.239l-0.377-3.759l-3.447,3.558
		l0.086,0.75c-2.131,0.316-4.243,0.678-6.367,1.011c-4.416,0.693-8.86,1.32-13.179,2.522
		c-38.431,10.679-81.113,39.116-101.275,73.655c-0.613,0.032-3.68,0.158-4.211,0.312c-0.538,0.154-0.929,0.656-1.46,0.839
		c-27.828,9.613-52.763,48.446-68.355,72.626c-14.761-3.738-29.105-5.126-44.274-5.933c3.891-6.152,8.203-12.102,12.301-18.121
		c56.7-78.878,118.475-155.668,180.007-230.816l384.096,3.834c50.394,69.441,103.499,137.135,155.224,205.618
		c18.172,24.062,41.616,63.163,62.166,83.462c11.658,11.514,56.262,35.206,72.404,40.712c4.401,1.503,5.022,2.159,9.384,0.133
		c7.432-9.854,9.559-25.256,12.529-37.1c-51.477-76.41-111.204-148.728-166.419-222.559l-64.006-86.547
		c-14.036-19-27.824-40.153-45.017-56.424c-32.588-2.83-66.682-1.374-99.475-1.862c-61.491-1.404-122.99-2.336-184.497-2.798
		l-101.566-1.291c-19.158-0.265-39.575-1.887-58.64,0.233c-6.033,0.671-10.478,0.933-15.004,5.14
		c-20.654,19.19-47.983,61.201-66.072,84.797c-42.706,55.008-85.704,109.789-128.992,164.342l-49.128,0.032
		c0.171-153.972,1.257-308.514-2.653-462.407C389.251,1866.723,416.128,1849.412,442.959,1833.963z M451.493,2372.12
		c-0.526-6.844-1.356-13.197-3.01-19.865c-2.234-2.414-4.191-4.703-5.997-7.457c7.733-13.085,18.676-25.037,28.059-37.018
		l46.378-59.77c33.672-43.535,69.216-96.566,106.399-136.195c144.621-1.417,289.779,3.3,434.436,4.95
		c42.499,63.081,90.356,123.719,136.145,184.494c37.965,50.387,74.394,101.896,112.911,151.852
		c-12.978-6.439-30.615-12.899-41.29-22.667c-18.118-16.575-32.283-40.21-47.19-59.702c-36.315-47.499-71.919-95.536-108.629-142.73
		c-22.293-28.897-42.918-59.853-66.575-87.58c-136.532-4.14-273.534-2.321-410.144-4.089
		c-29.421,41.466-62.195,80.395-93.111,120.735C510.594,2295.283,482.791,2335.597,451.493,2372.12z M328.073,2375.438
		c31.808-0.423,63.616-0.438,95.424-0.046l-0.703,34.74c-31.533,0.398-63.201-0.491-94.744-0.746L328.073,2375.438z
		 M421.792,2604.683c-1.95,11.909-2.739,24.273-4.065,36.286l-211.461-0.208l-0.107-121.198c-0.14-23.014-2.123-47.137,0.108-69.975
		c3.901-3.508,9.797-2.891,14.787-3.178c83.813-1.808,168.311-0.14,252.145,1.334c-11.968,24.162-40.335,77.465-39.891,102.566
		c0.1,5.632,3.247,12.522,4.796,17.993C426,2579.011,424.404,2589.463,421.792,2604.683z M1227.017,2712.164l21.242,7.346
		c-1.578,27.182-8.304,54.045-16.195,79.997l-24.402-0.954l-11.36,31.87c5.822,5.549,11.281,11.543,16.844,17.35
		c-9.064,25.138-24.115,48.772-39.626,70.377c-7.117-3.673-13.555-8.34-20.137-12.87c-6.145,9.402-12.838,18.516-19.291,27.709
		c3.009,6.162,6.794,11.92,10.399,17.745c-16.005,20.998-36.774,37.911-58.17,53.152c-5.445-5.685-11.349-10.912-17.146-16.231
		c-9.226,6.302-18.183,11.651-28.298,16.407c1.524,9.165,3.522,18.272,5.345,27.383c-24.998,13.215-53.21,23.556-80.324,31.515
		c-2.93-6.969-6.604-13.509-10.209-20.145c-11.199,3.533-22.128,6.137-33.682,8.232l-2.335,25.001
		c-29.908,4.035-63.945,5.725-94.026,3.461l-4.283-24.087c-7.676-0.567-33.19-4.735-38.478-1.255c-0.929,3.411-1.7,7.586-3.25,10.74
		c-0.897,1.826-2.532,4.774-4.71,5.445c-10.926,3.368-70.782-19.51-83.498-26.031l3.282-21.902
		c-9.739-4.584-24.004-16.848-34.959-14.05c-6.145,1.571-10.865,9.771-14.499,14.764c-26.547-14.578-49.486-37.147-71.987-57.169
		c5.861-6.145,11.32-12.623,16.844-19.069c-8.889-8.067-17.225-16.805-25.69-25.313l-18.642,8.738
		c-21.931-14.893-38.834-48.647-49.624-72.522c4.507-5.194,9.677-9.925,14.563-14.764c-4.681-11.103-9.212-22.267-13.593-33.492
		l-27.686,0.269c-9.31-27.215-15.208-54.838-20.904-82.964c7.74-3.426,15.859-6.195,23.776-9.201
		c-1.452-11.79-2.236-23.466-2.762-35.332l-23.716-2.991c-0.03-29.381,2.862-59.763,8.904-88.506l22.801-1.323
		c2.118-10.675,4.488-21.314,6.736-31.967c-6.554-4.792-13.162-8.171-20.53-11.55c7.571-25.708,19.48-51.474,31.261-75.513
		l24.397,6.223c4.882-9.674,9.75-18.34,16.332-26.981c-4.993-4.448-9.097-9.943-13.336-15.101
		c10.721-23.488,30.945-43.073,48.263-61.836l19.815,12.085c8.221-7.888,16.941-15.374,25.392-23.025l-9.99-20.564
		c19.309-17.347,44.249-30.109,67.371-41.537c5.076,5.147,9.319,10.908,13.71,16.629c11.69-3.957,22.544-8.476,33.614-13.932
		l-1.715-21.701c26.709-12.472,59.351-15.854,88.244-20.622l6.152,21.45c12.425-1.399,24.904-1.191,37.391-1.223l4.559-23.229
		c30.694,1.223,62.342,5.632,91.899,13.975l-3.318,20.076c11.74,3.003,22.842,7.623,34.087,12.078
		c5.639-5.883,8.214-11.722,11.396-19.09c29.363,10.288,61.341,25.152,87.035,42.979c-3.379,6.944-6.306,14.147-9.38,21.231
		c9.653,6.467,18.053,13.771,26.655,21.554l16.332-16.02c22.448,19.449,42.101,41.555,60.62,64.695
		c-4.215,6.643-8.584,12.719-13.663,18.731c6.338,8.731,12.386,17.709,18.552,26.569l21.142-5.348
		c17.185,23.258,26.569,48.812,36.064,75.825c-5.789,5.894-11.798,10.618-18.434,15.482l9.132,33.818l22.968-0.054
		c5.865,27.907,7.572,56.172,7.73,84.61l-24.621,6.923C1229.771,2687.615,1228.351,2699.781,1227.017,2712.164z M1635.705,2646.292
		c-40.25,1.413-80.833,0.23-121.126,0.215l-230.052-0.025c-0.488-23.628-2.17-66.385-20.256-83.656
		c-2.755-2.629-4.964-4.552-6.474-8.125c-0.387-0.922-0.717-1.865-1.076-2.798c47.729-4.085,97.885-1.209,145.933-1.238
		l276.934,0.75c-10.743,20.83-21.318,41.552-30.615,63.077L1635.705,2646.292z M2533.412,2697.206l13.351,9.452
		c0.204,16.787-0.165,60.502-9.961,74.502c-4.061,5.804-10.574,3.899-17.035,5.416c-7.02,9.728-10.083,27.71-14.054,39.339
		l11.999,17.508c-11.744,26.655-24.047,50.968-42.004,74.021c-5.621-1.865-12.128-4.362-18.104-2.776
		c-9.315,2.471-14.592,14.789-19.237,22.429l3.368,22.003c-13.326,17.404-30.841,32.595-46.609,47.782
		c-9.061-3.845-19.915-9.861-29.812-10.424c-11.898-0.681-18.244,5.355-26.763,12.698c0.086,8.806-0.312,17.602-0.624,26.4
		c-20.647,12.648-47.212,21.163-69.99,29.324c-9.05-7.45-15.546-16.023-27.104-19.897c-6.761-2.267-12.676-2.612-19.172,0.936
		c-10.259,5.606-12.651,18.789-15.345,29.065c-24.84,1.184-59.429,6.227-83.251-0.57c-4.358-4.1-5.169-10.298-6.683-15.883
		c-0.986-1.915-1.359-2.866-2.783-4.598c-6.324-7.694-20.17-8.193-29.438-9.728c-8.3,6.93-15.406,14.377-22.645,22.39
		c-26.483-5.223-52.349-15.793-77.716-24.844c0.126-0.549,0.24-1.094,0.373-1.639c1.453-6.001,3.515-11.955,1.883-18.139
		c-2.827-10.689-16.389-15.345-25.353-19.815l-15.517,17.279c-27.189-14.398-50.164-31.853-69.548-55.814
		c4.566-6.13,11.389-13.477,11.385-21.49c0-8.985-9.839-17.06-15.546-23.19c-9.947,3.619-19.736,8.77-29.37,13.214
		c-19-24.065-34.073-50.236-47.42-77.791c8.709-6.098,17.684-11.794,26.619-17.551c-2.382-8.806-4.918-24.062-13.796-28.61
		c-9.097-4.659-24.589,0.671-34.109,2.601c-12.562-30.382-18.426-64.426-20.137-97.107l27.864-6.094
		c0.1-8.573,2.238-24.449-3.479-31.415c-5.646-6.88-21.199-7.508-29.492-8.885c0.029-34.417,6.521-68.472,16.859-101.168
		c10.004,1.887,19.987,3.3,30.077,4.606c6.6-10.069,10.689-20.984,14.291-32.387c-8.541-4.405-16.292-9.509-24.23-14.894
		c12.411-30.805,29.453-57.894,50.25-83.677c7.382,4.849,15.098,8.558,23.025,12.396c6.726-7.482,12.605-14.768,18.075-23.229
		c-4.581-7.26-9.584-14.287-14.413-21.386c22.01-29.883,52.392-55.667,83.283-75.958c4.988,7.147,10.162,14.158,15.521,21.031
		c5.703-2.289,11.604-4.48,17.063-7.307c4.764-2.461,9.38-5.99,10.331-11.654c1.41-8.379-5.75-18.143-9.746-25.095
		c28.685-16.378,61.14-24.793,92.774-33.549c3.006,8.307,5.97,16.629,8.892,24.966c11.722-1.352,22.182-2.895,33.452-6.521
		c1.578-9.064,1.905-17.957,2.206-27.121c33.66-1.069,66.054,0.04,99.6,3.006c-1.001,5.277-2.192,10.639-2.317,16.016
		c-0.101,4.365-0.631,7.181,3.017,10.205c5.155,4.268,15.162,7.199,21.809,6.015c8.49-1.51,12.583-8.76,17.103-15.216l1.98-2.859
		c28.161,1.664,60.172,21.013,85.363,33.108c-3.942,7.77-6.769,15.862-9.739,24.033c6.579,6.148,17.77,16.934,27.347,15.89
		c8.099-0.886,12.773-8.849,17.347-14.718c31.175,16.87,44.906,42.463,68.178,67.436c-5.101,5.979-9.505,12.626-14.072,19.025
		c5.029,10.474,10.664,18.792,19.029,26.917c7.63-2.034,14.646-4.964,21.909-8.003c19.377,23.933,34.536,51.326,49.669,78.05
		c-3.056,2.145-6.586,4.347-9.24,6.966c-4.053,3.992-4.932,9.423-5.083,14.893c-0.24,8.698,3.408,15.13,9.584,21.016
		c6.345,6.044,12.35,5.068,20.543,4.896c6.364,28.029,10.219,55.541,10.897,84.302l-14.37,7.339
		C2532.996,2675.853,2532.802,2685.972,2533.412,2697.206z M2580.029,2625.269c-1.356-10.438-3.132-20.855-4.739-31.26
		c12.996,9.817,24.506,28.104,36.602,39.884C2601.346,2630.74,2590.725,2627.866,2580.029,2625.269z M2272.914,2231.664
		c4.343,1.289,8.661,2.654,12.956,4.096c4.295,1.44,8.563,2.953,12.805,4.541c4.242,1.588,8.457,3.25,12.644,4.986
		c4.185,1.733,8.337,3.539,12.458,5.416c4.122,1.877,8.212,3.826,12.268,5.847c28.872,14.61,88.818,47.563,110.433,69.075
		c24.291,24.176,43.733,58.985,63.339,87.254c24.341,35.099,49.655,69.477,74.19,104.425c14.922,21.256,28.875,43.202,44.156,64.204
		c8.882,12.157,18.354,23.835,28.416,35.034c12.253,13.383,41.566,35.12,46.914,51.193l-1.912,1.363
		c-61.829-18.337-155.131-167.549-192.385-219.948c-25.744-36.207-52.209-75.944-83.753-107.431
		c-51.014-50.921-138.971-88.401-208.799-100.113c-14.416-2.418-29.292-3.354-43.883-3.849
		c-158.854-5.392-291.835,74.932-378.009,206.209c-29.851,45.472-51.635,95.396-77.476,143.135
		c-16.328,30.17-38.338,80.478-63.181,103.323c-0.617,0.567-1.248,1.119-1.872,1.679c13.853-71.428,129.272-274.979,178.328-330.872
		c20.65-23.527,44.217-43.435,69.125-62.26c71.647-54.146,135.872-75.922,225.385-81.924c4.51-0.416,9.027-0.753,13.552-1.011
		c4.522-0.26,9.048-0.442,13.577-0.545s9.058-0.127,13.588-0.072c4.529,0.052,9.056,0.185,13.58,0.398
		c4.527,0.21,9.048,0.499,13.563,0.865c4.515,0.368,9.022,0.814,13.523,1.338c4.498,0.524,8.987,1.125,13.466,1.804
		c4.479,0.679,8.945,1.435,13.397,2.267c4.453,0.835,8.89,1.746,13.311,2.733c4.422,0.988,8.824,2.051,13.208,3.189
		C2264.21,2229.157,2268.573,2230.373,2272.914,2231.664z M2766.911,2548.019c-51.889-74.04-102.566-148.901-152.031-224.582
		l-60.462-92.613c-15.27-23.617-30.027-51.542-49.852-71.496c-2.131-2.145-3.508-3.583-6.46-4.462
		c-30.737-9.172-187.345-5.076-231.576-5.108c-0.14-39.798-8.322-95.245,19.047-127.539c33.667-39.726,110.616-43.769,159.74-47.599
		c33.126-4.487,76.823-2.651,109.088,4.559c34.327,7.672,63.694,25.593,87.63,51.183c19.567,20.92,33.026,48.155,47.381,72.802
		l53.256,91.608c48.91,82.116,98.817,163.621,149.721,244.515c-46.132,46.573-71.711,101.483-88.771,164.015L2766.911,2548.019z
		 M3781.773,2950.556c-32.965,4.695-67.106,5.764-100.285,9.326l-200.058,23.488c-102.262,7.572-207.468,28.481-310.254,37.258
		c-86.404,7.375-166.745-17.275-233.115-73.555c-65.753-55.756-104.087-138.383-110.81-223.893
		c-7.038-89.535,20.916-181.717,79.893-249.781c60.183-69.458,138.063-102.724,228.635-109.586l2.748,0.011
		c7.414,5.571,13.466,6.901,22.48,7.748c23.846,2.242,50.677-0.556,74.846-0.545l182.244,0.359
		c15.786,0.09,45.767-2.593,59.985,1.74c2.321,11.346-13.408,34.518-17.705,45.989c-25.669,68.533-17.68,151.203,13.082,216.63
		c28.463,60.538,80.377,111.215,143.717,134c29.299,62.048,63.189,119.641,129.222,146.977c13.171,5.456,35.196,11.076,45.167,21.36
		c2.834,2.952,2.798,3.573,2.798,7.443C3791.028,2949.074,3786.437,2949.888,3781.773,2950.556z"/>
	<path d="M2634.372,991.546c-0.313-1.526-0.702-3.032-1.166-4.52c-0.449-1.487-0.971-2.949-1.564-4.383
		c-0.595-1.432-1.26-2.834-1.994-4.204c-0.737-1.368-1.538-2.696-2.403-3.985c-0.868-1.287-1.797-2.528-2.787-3.723
		c-0.992-1.196-2.041-2.339-3.146-3.429c-1.105-1.093-2.261-2.127-3.469-3.103c-1.207-0.976-2.462-1.888-3.763-2.737
		c-1.299-0.851-2.636-1.636-4.014-2.353c-8.229-4.315-17.171-5.711-26.393-5.352c-14.237,2.637-25.715,7.748-34.446,19.789
		c-0.885,1.232-1.706,2.503-2.464,3.813c-0.76,1.313-1.453,2.659-2.077,4.039c-0.627,1.38-1.184,2.787-1.672,4.222
		c-0.485,1.435-0.9,2.89-1.245,4.365c-0.342,1.478-0.612,2.968-0.811,4.469c-0.196,1.504-0.317,3.013-0.362,4.527
		c-0.048,1.514-0.02,3.027,0.083,4.541c0.1,1.511,0.276,3.014,0.527,4.509c0.26,1.59,0.599,3.164,1.015,4.721
		c0.418,1.557,0.911,3.09,1.478,4.599c0.569,1.509,1.211,2.985,1.926,4.43c0.715,1.444,1.501,2.849,2.357,4.215
		c0.854,1.368,1.773,2.689,2.759,3.964c0.985,1.277,2.031,2.501,3.138,3.673c1.107,1.172,2.27,2.286,3.487,3.343
		c1.217,1.057,2.484,2.051,3.799,2.981c10.74,7.576,20.145,8.881,32.947,8.433c15.115-4.391,27.483-10.973,35.368-25.217
		c0.758-1.361,1.446-2.756,2.063-4.186s1.16-2.889,1.629-4.376c0.469-1.485,0.861-2.99,1.177-4.516
		c0.316-1.526,0.553-3.063,0.714-4.613c0.158-1.55,0.238-3.103,0.24-4.66c0.002-1.557-0.074-3.111-0.229-4.663
		C2634.916,994.609,2634.682,993.071,2634.372,991.546z M2615.271,1002.325c-0.074,0.952-0.198,1.898-0.373,2.837
		c-0.175,0.937-0.4,1.864-0.674,2.78c-3.124,10.245-9.488,14.287-18.656,18.846c-4.43,1.015-9.208,1.643-13.742,0.901
		c-6.22-1.019-12.415-4.703-16.163-9.771c-4.986-6.751-5.825-15.062-4.129-23.118c2.217-10.531,8.878-16.023,17.537-21.576
		c4.577-0.466,9.28-1.044,13.839-0.19c7.572,1.42,14.233,6.439,18.308,12.902c0.51,0.808,0.974,1.64,1.396,2.497
		c0.421,0.858,0.795,1.736,1.123,2.633c0.325,0.897,0.603,1.809,0.832,2.737c0.229,0.928,0.409,1.865,0.538,2.812
		c0.129,0.945,0.208,1.895,0.237,2.852C2615.371,1000.42,2615.347,1001.373,2615.271,1002.325z"/>
	<path d="M2393.921,2656.562c-0.27-3.999-0.637-7.987-1.101-11.966c-0.466-3.979-1.029-7.945-1.689-11.898
		c-0.66-3.977-1.419-7.934-2.278-11.873c-0.856-3.941-1.809-7.858-2.859-11.751c-1.052-3.89-2.199-7.754-3.44-11.59
		c-1.243-3.836-2.58-7.638-4.01-11.406c-1.433-3.769-2.956-7.5-4.57-11.195c-1.617-3.692-3.323-7.344-5.119-10.955
		c-1.798-3.609-3.684-7.17-5.657-10.686c-1.973-3.515-4.032-6.98-6.177-10.395c-2.145-3.412-4.374-6.771-6.686-10.076
		c-2.31-3.302-4.701-6.546-7.174-9.731c-2.473-3.183-5.022-6.303-7.647-9.362c-2.628-3.059-5.329-6.05-8.103-8.975
		c-2.776-2.925-5.622-5.779-8.537-8.562c-2.917-2.783-5.902-5.493-8.953-8.128s-6.166-5.194-9.344-7.676
		c-3.176-2.48-6.412-4.881-9.71-7.203c-46.333-32.685-106.699-49.124-163.313-41.236c-65.48,7.77-121.714,38.363-162.469,90.629
		c-38.883,49.863-54.723,115.889-46.584,178.281c0.493,3.962,1.086,7.909,1.779,11.841c0.691,3.934,1.48,7.847,2.367,11.74
		c0.887,3.893,1.871,7.761,2.952,11.604c1.081,3.845,2.257,7.659,3.53,11.442c1.272,3.785,2.639,7.537,4.1,11.252
		c1.459,3.716,3.011,7.394,4.656,11.034c1.643,3.637,3.376,7.232,5.201,10.786c1.825,3.551,3.737,7.054,5.736,10.51
		c2.002,3.456,4.087,6.86,6.256,10.212c2.171,3.35,4.424,6.646,6.758,9.886c2.336,3.238,4.752,6.416,7.246,9.534
		c2.494,3.118,5.065,6.171,7.712,9.157c2.647,2.989,5.369,5.91,8.164,8.763c2.793,2.853,5.656,5.634,8.587,8.344
		c2.934,2.709,5.934,5.344,9,7.902c3.063,2.558,6.19,5.039,9.38,7.443c51.785,39.765,107.004,50.799,171.014,47.653
		c66.668-10.496,125.688-38.815,165.985-94.639c2.327-3.262,4.573-6.579,6.74-9.95c2.164-3.372,4.244-6.795,6.241-10.27
		c1.997-3.472,3.907-6.992,5.732-10.56c1.824-3.568,3.559-7.179,5.205-10.833c1.648-3.652,3.205-7.343,4.67-11.073
		c1.466-3.728,2.839-7.491,4.118-11.288c1.282-3.797,2.469-7.624,3.562-11.479c1.093-3.854,2.09-7.733,2.991-11.636
		c0.904-3.905,1.711-7.829,2.421-11.773c0.71-3.943,1.323-7.902,1.837-11.877c0.517-3.972,0.935-7.956,1.255-11.952
		c0.318-3.993,0.539-7.993,0.664-11.999c0.125-4.003,0.149-8.008,0.075-12.016
		C2394.362,2664.562,2394.191,2660.56,2393.921,2656.562z M2328.77,2809.777c-40.544,50.763-94.829,75.212-158.377,82.006
		c-57.464,2.837-111.236-13.555-155.353-50.91c-2.817-2.403-5.574-4.872-8.272-7.407c-2.698-2.537-5.331-5.139-7.902-7.805
		c-2.568-2.666-5.071-5.392-7.508-8.178c-2.437-2.788-4.804-5.634-7.102-8.537c-2.298-2.905-4.523-5.864-6.675-8.874
		c-2.152-3.013-4.23-6.077-6.234-9.19c-2.002-3.114-3.927-6.275-5.775-9.484c-1.849-3.209-3.618-6.46-5.309-9.753
		c-1.688-3.295-3.296-6.63-4.824-10.004c-1.526-3.372-2.969-6.78-4.329-10.223c-1.361-3.446-2.635-6.922-3.824-10.427
		c-1.191-3.506-2.295-7.039-3.311-10.6c-1.019-3.558-1.949-7.141-2.791-10.747s-1.595-7.23-2.26-10.872
		c-0.665-3.642-1.241-7.298-1.729-10.969c-0.485-3.671-0.881-7.351-1.187-11.041c-4.358-58.023,12.92-117.245,51.384-161.3
		c40.892-46.846,92.982-71.446,154.682-75.567c51.003-2.973,103.661,11.565,144.33,42.768c2.984,2.286,5.91,4.643,8.777,7.07
		c2.867,2.429,5.673,4.928,8.419,7.497c2.743,2.568,5.423,5.202,8.039,7.902c2.613,2.698,5.159,5.459,7.636,8.286
		c2.48,2.824,4.888,5.708,7.224,8.652c2.336,2.944,4.598,5.944,6.787,9c2.188,3.056,4.3,6.164,6.334,9.323
		c2.035,3.159,3.99,6.367,5.865,9.624c1.877,3.254,3.673,6.555,5.388,9.9c1.715,3.343,3.346,6.728,4.893,10.155
		c1.547,3.424,3.009,6.885,4.387,10.381c1.375,3.499,2.664,7.028,3.867,10.589c1.203,3.561,2.317,7.148,3.343,10.761
		c1.026,3.616,1.962,7.255,2.809,10.919c0.847,3.661,1.602,7.341,2.267,11.041c0.665,3.697,1.237,7.409,1.718,11.138
		C2381.148,2702.339,2364.999,2764.416,2328.77,2809.777z"/>
	<path d="M2322.156,2639.391c-0.5-2.633-1.063-5.25-1.689-7.852c-0.629-2.604-1.321-5.191-2.077-7.759
		c-0.755-2.571-1.573-5.12-2.453-7.648c-0.882-2.528-1.826-5.034-2.83-7.518c-1.004-2.482-2.07-4.938-3.196-7.368
		c-1.126-2.429-2.311-4.829-3.555-7.199c-1.246-2.372-2.548-4.712-3.906-7.02c-1.361-2.307-2.776-4.58-4.247-6.815
		c-1.471-2.238-2.997-4.438-4.577-6.6c-1.581-2.162-3.213-4.284-4.896-6.367c-1.686-2.08-3.421-4.119-5.205-6.116
		c-1.784-1.997-3.617-3.948-5.499-5.854s-3.809-3.764-5.782-5.574c-1.973-1.81-3.989-3.572-6.048-5.283
		c-2.059-1.712-4.16-3.372-6.302-4.979c-32.731-24.571-70.682-33.42-111-33.983c-48.78,5.148-89.288,24.507-120.394,63.175
		c-27.236,33.861-37.904,77.034-33.047,119.996c5.043,44.612,26.389,85.704,61.955,113.59c33.582,26.321,74.351,36.34,116.405,34.45
		c46.602-5.815,86.978-24.722,116.427-62.339c28.226-36.049,39.256-81.82,33.219-127.012
		C2323.09,2644.663,2322.656,2642.021,2322.156,2639.391z M2306.592,2678.102c-0.113,2.494-0.287,4.985-0.524,7.472
		c-0.234,2.487-0.531,4.966-0.889,7.436c-0.359,2.472-0.779,4.935-1.259,7.385c-0.481,2.449-1.022,4.885-1.625,7.31
		c-0.6,2.425-1.261,4.833-1.984,7.224c-0.722,2.391-1.503,4.762-2.342,7.113c-0.839,2.353-1.736,4.684-2.69,6.991
		c-0.954,2.307-1.966,4.59-3.035,6.847c-1.069,2.257-2.193,4.487-3.372,6.69c-1.179,2.202-2.412,4.374-3.698,6.514
		c-1.287,2.14-2.626,4.247-4.017,6.32c-1.392,2.076-2.834,4.115-4.326,6.116c-25.443,33.632-59.942,50.885-101.064,56.492
		c-35.683,2.443-70.366-4.817-99.934-25.608c-2.004-1.432-3.972-2.911-5.904-4.437c-1.932-1.528-3.826-3.101-5.682-4.72
		c-1.855-1.619-3.671-3.283-5.445-4.993c-1.774-1.707-3.506-3.457-5.194-5.248c-1.69-1.793-3.336-3.627-4.936-5.499
		c-1.6-1.872-3.153-3.783-4.659-5.732c-1.504-1.949-2.962-3.933-4.373-5.951c-1.411-2.021-2.77-4.073-4.078-6.159
		c-1.311-2.085-2.568-4.201-3.773-6.349c-1.208-2.147-2.361-4.324-3.462-6.528c-1.1-2.202-2.146-4.431-3.139-6.686
		c-0.993-2.252-1.929-4.529-2.809-6.83c-0.88-2.301-1.704-4.621-2.471-6.962c-0.768-2.339-1.478-4.697-2.131-7.074
		c-0.653-2.375-1.247-4.763-1.783-7.167c-0.536-2.403-1.013-4.819-1.431-7.246c-0.406-2.422-0.753-4.853-1.04-7.292
		c-0.285-2.442-0.509-4.887-0.674-7.335c-0.165-2.451-0.27-4.905-0.316-7.36c-0.043-2.458-0.025-4.914,0.054-7.368
		c0.077-2.456,0.214-4.908,0.413-7.357c0.201-2.449,0.46-4.89,0.778-7.325c0.32-2.437,0.701-4.863,1.141-7.278
		c0.44-2.417,0.94-4.822,1.499-7.213c0.557-2.391,1.174-4.769,1.851-7.131c0.677-2.36,1.411-4.704,2.203-7.031
		c0.794-2.324,1.644-4.628,2.55-6.912c0.906-2.283,1.868-4.542,2.884-6.776c1.019-2.236,2.093-4.445,3.221-6.629
		c1.127-2.181,2.307-4.334,3.54-6.46c1.234-2.123,2.519-4.216,3.856-6.277c1.339-2.059,2.727-4.084,4.164-6.076
		c24.768-33.772,61.456-51.846,102.154-57.898c35.049-4.416,74.219,5.599,102.692,26.454c1.966,1.42,3.897,2.89,5.793,4.408
		c1.894,1.516,3.75,3.078,5.567,4.685c1.817,1.61,3.594,3.262,5.33,4.958c1.736,1.695,3.429,3.432,5.079,5.212
		c1.653,1.779,3.26,3.598,4.821,5.456c1.559,1.856,3.073,3.751,4.541,5.686c1.468,1.932,2.887,3.899,4.258,5.901
		c1.373,2.001,2.694,4.036,3.964,6.105c1.272,2.066,2.492,4.163,3.659,6.292c1.167,2.128,2.281,4.283,3.343,6.464
		c1.062,2.183,2.07,4.39,3.024,6.621c0.952,2.231,1.848,4.485,2.69,6.761c0.842,2.277,1.627,4.572,2.357,6.887
		c0.729,2.315,1.401,4.646,2.016,6.995c0.612,2.346,1.168,4.707,1.668,7.084c0.498,2.375,0.936,4.76,1.316,7.156
		c0.383,2.468,0.704,4.944,0.965,7.429c0.258,2.485,0.455,4.974,0.592,7.468c0.136,2.492,0.21,4.987,0.222,7.486
		C2306.751,2673.109,2306.702,2675.605,2306.592,2678.102z"/>
	<path d="M1092.321,2657.512c-4.849-64.749-35.206-127.353-84.908-169.31c-2.898-2.48-5.855-4.888-8.871-7.224
		c-3.015-2.336-6.086-4.598-9.211-6.786c-3.123-2.188-6.299-4.3-9.527-6.335c-3.226-2.035-6.5-3.99-9.821-5.865
		c-3.321-1.877-6.687-3.672-10.097-5.384c-3.408-1.712-6.856-3.341-10.345-4.885c-3.487-1.547-7.009-3.009-10.567-4.383
		c-3.558-1.375-7.148-2.663-10.768-3.863c-3.621-1.203-7.268-2.316-10.944-3.34c-3.673-1.026-7.37-1.961-11.091-2.805
		c-3.718-0.847-7.456-1.602-11.213-2.267c-3.757-0.665-7.527-1.237-11.31-1.718c-3.785-0.483-7.579-0.874-11.382-1.173
		c-3.802-0.299-7.61-0.505-11.425-0.617c-3.812-0.115-7.625-0.136-11.439-0.065c-3.814,0.069-7.625,0.232-11.432,0.488
		c-67.077,4.943-125.656,31.196-170.081,82.734c-41.459,48.094-61.937,115.204-56.997,178.288
		c5.101,65.1,33.162,123.97,83.129,166.469c45.505,38.704,109.794,61.327,169.819,56.66c65.021-4.139,125.667-31.838,168.883-81.105
		c2.623-3.023,5.171-6.108,7.644-9.258c2.473-3.147,4.866-6.354,7.181-9.62c2.317-3.264,4.552-6.583,6.704-9.958
		c2.155-3.374,4.226-6.799,6.213-10.273c1.985-3.474,3.885-6.997,5.7-10.567c1.815-3.568,3.542-7.178,5.18-10.829
		s3.185-7.341,4.642-11.07c1.459-3.728,2.825-7.49,4.1-11.285c1.272-3.795,2.452-7.619,3.54-11.471
		c1.088-3.853,2.08-7.729,2.977-11.629c0.899-3.903,1.701-7.823,2.407-11.762c0.708-3.941,1.318-7.896,1.829-11.866
		c0.514-3.969,0.93-7.95,1.248-11.941c0.318-3.989,0.539-7.984,0.664-11.984c0.124-4.001,0.151-8.002,0.079-12.006
		C1092.759,2665.504,1092.589,2661.506,1092.321,2657.512z M1070.785,2684.264c-0.148,3.678-0.387,7.35-0.717,11.015
		c-0.332,3.666-0.756,7.321-1.27,10.966s-1.118,7.273-1.811,10.886c-0.696,3.616-1.481,7.211-2.357,10.786s-1.839,7.125-2.891,10.65
		c-1.052,3.527-2.192,7.026-3.418,10.495c-1.227,3.47-2.54,6.907-3.938,10.313c-1.399,3.403-2.881,6.77-4.448,10.101
		c-1.569,3.331-3.219,6.621-4.95,9.868c-1.731,3.248-3.543,6.449-5.434,9.606c-1.892,3.156-3.861,6.264-5.908,9.323
		s-4.169,6.064-6.367,9.018s-4.467,5.849-6.808,8.688c-38.115,46.527-92.771,73.221-152.15,78.813
		c-53.156,6.055-111.764-13.53-153.394-46.319c-2.831-2.252-5.607-4.573-8.325-6.962c-2.717-2.389-5.373-4.845-7.97-7.367
		c-2.597-2.521-5.129-5.103-7.597-7.748c-2.47-2.645-4.872-5.35-7.206-8.114c-2.336-2.764-4.602-5.585-6.797-8.462
		c-2.198-2.875-4.322-5.803-6.374-8.785c-2.052-2.979-4.029-6.008-5.933-9.086c-1.901-3.08-3.727-6.205-5.477-9.373
		c-1.748-3.169-3.417-6.377-5.007-9.627c-1.59-3.25-3.099-6.538-4.527-9.864c-1.428-3.324-2.773-6.682-4.035-10.073
		c-1.26-3.393-2.438-6.814-3.533-10.262c-1.093-3.45-2.101-6.925-3.024-10.424c-0.921-3.499-1.755-7.019-2.504-10.56
		c-0.748-3.539-1.41-7.096-1.984-10.671c-0.571-3.573-1.056-7.157-1.453-10.754c-0.433-3.695-0.775-7.398-1.026-11.109
		c-0.251-3.712-0.411-7.426-0.481-11.145c-0.067-3.718-0.043-7.437,0.072-11.156s0.322-7.431,0.62-11.138
		c0.297-3.709,0.685-7.407,1.166-11.094c0.481-3.69,1.052-7.365,1.715-11.026c0.662-3.659,1.413-7.301,2.253-10.926
		c0.842-3.623,1.772-7.223,2.791-10.801c1.019-3.577,2.125-7.127,3.318-10.65c1.193-3.523,2.474-7.014,3.842-10.474
		c1.365-3.46,2.815-6.885,4.347-10.273c1.535-3.389,3.153-6.738,4.853-10.047c1.7-3.31,3.481-6.575,5.341-9.796
		c1.86-3.221,3.799-6.395,5.815-9.52c2.016-3.126,4.108-6.198,6.277-9.219c2.169-3.023,4.411-5.99,6.726-8.903
		c38.521-48.242,90.457-72.734,151.066-79.61c3.429-0.342,6.865-0.6,10.309-0.775c3.441-0.177,6.885-0.27,10.331-0.28
		c3.448-0.01,6.893,0.063,10.334,0.219c3.443,0.158,6.881,0.397,10.313,0.718c3.432,0.323,6.854,0.727,10.266,1.212
		c3.413,0.488,6.811,1.057,10.194,1.708c3.386,0.65,6.753,1.382,10.101,2.195c3.35,0.813,6.679,1.705,9.986,2.676
		c3.305,0.973,6.586,2.025,9.843,3.156c3.254,1.131,6.48,2.34,9.678,3.626c3.197,1.287,6.362,2.649,9.495,4.089
		c3.133,1.437,6.228,2.951,9.287,4.541c3.058,1.588,6.078,3.247,9.057,4.979c2.977,1.734,5.912,3.538,8.806,5.413
		c2.891,1.877,5.736,3.821,8.534,5.832c2.8,2.011,5.549,4.089,8.247,6.234c46.574,36.885,76.471,93.298,82.982,152.2
		c0.404,3.659,0.716,7.325,0.936,10.998c0.22,3.673,0.348,7.351,0.384,11.034
		C1070.986,2676.909,1070.931,2680.586,1070.785,2684.264z"/>
	<path d="M1024.509,2661.613c-0.201-2.908-0.472-5.81-0.814-8.706c-5.732-46.538-27.638-87.921-64.781-116.882
		c-34.46-26.867-79.771-41.566-123.554-35.938c-48.349,5.381-90.324,26.368-120.832,64.907
		c-29.406,37.147-41.484,86.415-35.558,133.167c0.368,2.819,0.806,5.628,1.313,8.426c0.505,2.798,1.077,5.581,1.718,8.351
		c0.641,2.771,1.349,5.525,2.123,8.261s1.615,5.451,2.522,8.146c0.906,2.695,1.877,5.366,2.913,8.013
		c1.035,2.647,2.135,5.268,3.3,7.863c1.162,2.595,2.388,5.159,3.677,7.694c1.286,2.535,2.635,5.037,4.046,7.508
		c1.408,2.468,2.877,4.901,4.405,7.3c1.528,2.398,3.113,4.759,4.756,7.081c1.643,2.32,3.341,4.599,5.094,6.837
		c1.753,2.239,3.558,4.434,5.416,6.586c1.86,2.15,3.771,4.254,5.732,6.313c1.963,2.056,3.974,4.065,6.033,6.026
		c2.059,1.961,4.164,3.871,6.317,5.729c2.152,1.858,4.349,3.662,6.589,5.413c33.19,25.518,79.732,39.622,121.606,34.614
		c46.62-5.366,90.812-27.017,120.197-64.178c1.803-2.291,3.549-4.624,5.237-6.998c1.691-2.377,3.322-4.793,4.893-7.249
		c1.569-2.456,3.078-4.949,4.527-7.479c1.447-2.53,2.831-5.095,4.154-7.694c1.322-2.597,2.58-5.226,3.774-7.888
		c1.193-2.659,2.321-5.346,3.383-8.06c1.062-2.716,2.057-5.456,2.984-8.218c0.928-2.764,1.786-5.551,2.576-8.358
		c0.792-2.805,1.513-5.628,2.163-8.469c0.653-2.843,1.235-5.7,1.747-8.569c0.512-2.869,0.953-5.75,1.324-8.641
		c0.371-2.891,0.67-5.791,0.897-8.698c0.23-2.906,0.386-5.816,0.47-8.731c0.086-2.912,0.1-5.826,0.043-8.741
		C1024.839,2667.432,1024.71,2664.52,1024.509,2661.613z M1003.934,2678.69c-0.076,2.568-0.218,5.132-0.423,7.69
		c-0.203,2.561-0.47,5.115-0.8,7.662c-0.328,2.547-0.719,5.084-1.173,7.612s-0.971,5.043-1.55,7.547
		c-0.579,2.501-1.218,4.987-1.919,7.457c-0.701,2.473-1.462,4.925-2.285,7.357c-0.82,2.434-1.7,4.846-2.64,7.235
		c-0.94,2.391-1.938,4.756-2.995,7.095c-1.057,2.341-2.171,4.655-3.343,6.941c-1.172,2.286-2.398,4.542-3.68,6.769
		c-1.282,2.224-2.617,4.416-4.007,6.575c-1.389,2.162-2.831,4.287-4.326,6.374c-26.562,37.007-64.426,55.419-108.525,62.475
		c-39.052,1.456-75.485-5.843-107.434-29.611c-32.014-23.818-53.737-62.278-59.304-101.623c-0.337-2.564-0.611-5.133-0.821-7.708
		c-0.21-2.578-0.359-5.158-0.445-7.741c-0.084-2.583-0.105-5.167-0.065-7.751c0.041-2.585,0.145-5.168,0.312-7.748
		c0.167-2.578,0.397-5.151,0.689-7.719c0.294-2.568,0.65-5.128,1.069-7.68c0.416-2.552,0.896-5.091,1.438-7.619
		c0.543-2.528,1.147-5.04,1.811-7.536c0.665-2.499,1.389-4.98,2.174-7.443c0.787-2.463,1.632-4.905,2.536-7.325
		c0.906-2.423,1.87-4.821,2.891-7.196c1.023-2.372,2.103-4.719,3.239-7.041c1.136-2.322,2.329-4.615,3.58-6.88
		c1.248-2.262,2.552-4.493,3.91-6.693c1.356-2.2,2.766-4.365,4.229-6.496c1.464-2.131,2.978-4.224,4.545-6.281
		c27.455-36.193,65.108-53.572,109.314-59.677c33.797-3.659,69.197,6.406,97.093,25.493c34.683,23.731,57.557,61.621,64.803,102.796
		c0.426,2.532,0.789,5.074,1.09,7.626c0.301,2.549,0.54,5.105,0.717,7.669c0.175,2.561,0.287,5.126,0.337,7.694
		C1004.025,2673.557,1004.011,2676.124,1003.934,2678.69z"/>
	<path d="M1580.982,1263.652c-75.944-1.664-152.064-0.215-228.033-0.416c-126.753-0.957-253.506-1.126-380.261-0.509l-4.089,1.345
		c-3.86,8.774-24.424,524.362-24.141,570.142c55.857,15.248,114.343,24.589,170.942,37.276
		c205.994,46.168,414.237,84.811,619.177,135.416c7.375,1.915,15.338,4.857,22.397,0.348c4.86-3.103,6.632-8.864,7.156-14.308
		c2.317-23.975-0.072-50.588,0.108-74.807c0.298-40.095,4.95-116.8-2.066-154.047c-3.809-20.224-12.863-40.052-20.037-59.293
		c-10.663-28.557-21.088-57.202-31.275-85.934c-24.272-69.913-49.242-139.576-74.911-208.989
		C1618.362,1361.014,1601.607,1311.316,1580.982,1263.652z M1348.44,1902.073l-16.457-3.243
		c-122.959-26.138-245.315-56.703-368.761-80.331c2.511-80.994,7.658-161.924,10.757-242.904
		c3.745-97.939,5.678-196.08,11.407-293.926l363.313-0.086L1348.44,1902.073z M1744.129,1774.042
		c3.637,24.983,1.126,52.933,0.983,78.236l-0.057,137.056l-337.242-76.005l-1.596-631.416l162.914-0.154
		c41.884,112.251,82.759,224.87,122.625,337.856C1705.91,1659.007,1738.745,1737.06,1744.129,1774.042z"/>
</g>
</svg>
