<?xml version="1.0" encoding="utf-8"?>
<!-- Generator: Adobe Illustrator 27.5.0, SVG Export Plug-In . SVG Version: 6.00 Build 0)  -->
<svg xmlns="http://www.w3.org/2000/svg" xmlns:xlink="http://www.w3.org/1999/xlink" viewBox="0 0 2999 3999" width="595" height="842" preserveAspectRatio="xMidYMid meet" data-scaled="true">
<g>
	<path style="fill:#FEFEFD;" d="M0,0h3000.002v3995.599c-1.318,0.762-2.783,1.729-4.277,2.227
		c-13.682,4.6-131.74,1.201-154.181,1.201l-467.57,0.029l-2326.441-0.029c-12.962,0-36.429,2.93-47.534-3.428V0z"/>
	<path style="fill:#070707;" d="M381.765,2404.016c39.639-1.948,80.089-0.375,119.804-0.381l227.303-0.038l700.738,0.319
		l384.337-0.29c30.677-0.041,160.887-3.999,179.866,2.361c21.313,7.14,37.591,20.839,46.793,41.52
		c4.629,10.403,7.049,21.85,7.854,33.185c1.462,20.508,0.659,41.54,1.081,62.124c0.89,43.713,2.02,87.42,3.387,131.121
		c2.535,74.578,4.536,149.171,6.003,223.778c1.298,46.418,4.336,93.44,3.656,139.846c-0.155,10.605-1.198,20.977-4.919,30.967
		c-4.511,4.951-8.994,8.32-15.316,10.723c-6.431,2.49-13.582,3.633-20.44,4.072c-13.377,0.879-119.575,1.055-125.836-2.139
		c-0.858-0.439-1.679-0.937-2.52-1.436c-1.477,0.908-2.148,1.377-3.902,1.992c-14.004,4.892-102.829,1.465-124.283,1.494
		L1420.091,3083l-1185.397,0.762c-6.176-0.029-13.596-0.205-19.109-3.223c-2.903-1.611-4.092-3.662-4.877-6.826
		c-1.606-6.446,88.759-338.25,99.013-377.792c5.566-21.463,13.23-42.123,16.479-64.16c7.213-48.879-8.64-155.862,10.603-193.011
		C346.491,2420.047,362.209,2410.235,381.765,2404.016z"/>
	<path style="fill:#FEFEFD;" d="M362.095,2688.746h63.897l-98.071,167.824c-7.963,14.738-16.126,29.365-24.489,43.881
		C324.003,2830.262,342.024,2759.129,362.095,2688.746z"/>
	<path style="fill:#FEFEFD;" d="M243.639,3048.46c21.351,6.328,78.427,2.051,103.236,2.051l204.677-0.059l1063.949-0.088
		c47.423,0,408.396-3.427,421.676,2.168c-0.272,3.164-0.668,2.666-2.918,4.629c-13.415,6.621-329.332,2.842-368.669,2.813H683.18
		l-298.975,0.439c-43.433,0.088-97.565,4.043-139.63-0.352C241.56,3055.667,242.891,3053.616,243.639,3048.46z"/>
	<path style="fill:#FEFEFD;" d="M2026.197,2699.973c3.999,21.041,1.84,61.948,2.593,84.856l7.099,240.105
		c-1.204,0.762-1.62,1.143-3.161,1.582c-9.22,2.724-163.242,1.875-181.318,0.352c-3.41-0.293-6.261-1.377-9.191-3.076
		c-4.058,2.139-4.6,2.52-9.117,2.139c-0.252-5.068,1.852-8.848,4.122-13.213c22.705-43.682,51.413-85.559,76.485-127.995
		c23.651-40.24,47.639-80.279,71.965-120.117C1998.807,2743.019,2011.367,2720.431,2026.197,2699.973z"/>
	<path style="fill:#FEFEFD;" d="M705.73,2688.697c83.06-1.664,166.482-0.29,249.58,0.018
		c-29.183,55.532-65.443,108.539-97.799,162.346c-15.782,26.244-91.802,161.335-104.619,172.644
		c-0.835,0.439-1.649,0.938-2.505,1.348c-9.035,4.306-236.194,3.867-247.491-0.323c7.951-6.885,87.741-145.233,98.912-163.904
		C636.214,2803.309,672.411,2746.857,705.73,2688.697z"/>
	<path style="fill:#FEFEFD;" d="M1234.932,2688.84c84.431-1.811,169.318,0.114,253.802-0.073
		c-21.806,42.12-50.095,81.636-74.698,122.25c-16.512,27.258-118.535,205.011-127.878,213.244c-1.503,0.762-2.145,1.143-3.899,1.67
		c-12.516,3.691-215.274,2.197-240.144,0.703c-3.689-0.234-6.771-1.143-10.113-2.724
		C1038.642,3018.899,1207.935,2730.975,1234.932,2688.84z"/>
	<path style="fill:#FEFEFD;" d="M435.2,2688.688l261.765-0.261c-13.178,26.077-186.314,310.609-192.609,315.384
		c-0.885,7.646-6.097,16.582-12.091,21.386c-1.072,0.674-1.477,1.025-2.839,1.406c-10.403,3.047-191.947,2.344-211.243,0.41
		c-3.705-0.381-6.905-1.729-10.062-3.662c10.264-14.414,15.067-54.434,19.677-72.451c10.258-40.09,44.746-87.097,66.197-123.56
		L435.2,2688.688z"/>
	<path style="fill:#FEFEFD;" d="M1499.6,2688.72l256.058,1.075l-122.033,199.969c-14.086,23.604-69.12,121.605-81.932,133.998
		c-0.832,0.469-1.641,0.967-2.493,1.377c-8.508,4.131-220.799,3.047-241.125,2.139c-4.151-0.205-7.784-1.055-11.675-2.52
		c7.904-7.793,55.676-93.779,65.414-110.191C1406.887,2838.664,1453.094,2763.74,1499.6,2688.72z"/>
	<path style="fill:#FEFEFD;" d="M1764.687,2689.139c85.957-1.597,172.125-0.469,258.109-0.416
		c-27.718,47.824-57.615,94.544-86.177,141.888l-109.046,183.747c-2.856,4.776-4.356,9.141-9.949,10.488
		c-0.492,0.235-0.967,0.528-1.474,0.703c-9.437,3.662-221.669,2.842-244.855,1.26c-3.647-0.264-6.762-1.26-10.043-2.842
		C1568.096,3018.782,1745.161,2720.346,1764.687,2689.139z"/>
	<path style="fill:#FEFEFD;" d="M965.306,2688.459l259.694,0.387c-25.963,40.005-194.168,331.196-204.396,335.795
		c-1.477,0.908-1.852,1.23-3.369,1.787c-7.439,2.783-220.94,1.582-244.585,0.176c-3.694-0.234-6.732-1.143-10.078-2.724
		C766.111,3021.624,946.463,2719.365,965.306,2688.459z"/>
	<path style="fill:#FEFEFD;" d="M662.614,2432.059c62.367-2.001,125.171-0.68,187.582-0.563l272.827,0.176l833.652-0.58
		c18.105-0.155,37.456-1.819,51.068,12.797c6.978,7.494,10.684,18.155,12.624,28.073c6.987,35.698,2.883,107.719,3.003,146.66
		l-309.99,0.234L687.343,2618.8c-110.197-0.103-220.242,1.093-330.46-0.1l-0.287-11.373c-0.689-33.067-4.992-116.511,0.94-144.317
		c1.524-7.146,4.506-13.116,9.773-18.24c6.182-6.015,13.705-9.709,22.192-11.045c27.838-4.383,60.158-1.38,88.418-1.397
		L662.614,2432.059z"/>
	<path style="fill:#070707;" d="M1557.514,547.626c4.69-0.366,9.712-0.727,14.35,0.199c29.959,5.979,61.805,19.172,91.113,28.43
		l221.754,70.966l0.516,116.833c48.255,20.78,189.164,58.717,223.362,85.904c1.105,0.865,2.178,1.772,3.217,2.719
		c1.039,0.945,2.042,1.929,3.009,2.95c0.965,1.022,1.891,2.076,2.777,3.164c0.887,1.09,1.732,2.212,2.537,3.366
		c0.803,1.152,1.562,2.333,2.276,3.542s1.385,2.442,2.01,3.7c0.623,1.26,1.198,2.541,1.726,3.844
		c0.529,1.301,1.009,2.62,1.438,3.958c10.213,30.771,11.209,75.431,15.354,108.882c5.218,42.094,12.091,83.965,16.603,126.147
		c90.138-8.394,181.037-12.882,271.354-19.491c64.248-4.702,129.844-12.97,194.18-12.82c44.329,36.038,91.98,69.094,133.456,108.536
		c0.393,35.549-2.273,72.826-7.081,108.05c-60.896,0.854-121.794,0.96-182.692,0.319c3.234-36.908,3.017-74.019,7.09-110.915
		c-47.314,6.275-94.447,19.811-141.129,29.725c-86.921,18.463-174.211,36.006-260.64,56.666
		c7.304,75.22,18.149,151.075,29.725,225.753l235.444,52.172c-0.214,37.002,0.319,237.24-7.154,256.515
		c-12.563,32.402-50.575,83.156-69.817,116.362c57.439-0.223,114.838,3.542,172.24,5.37c42.823,1.365,95.32-4.093,136.298,7.412
		c27.211,7.638,48.979,43.119,61.738,66.34c41.288,75.152,60.375,167.203,73.433,251.239
		c34.89,224.549,36.07,493.005-27.867,712.058c-12.776,43.77-48.052,142.764-90.759,163.652c-8.001,3.897-18.346,5.772-27.161,6.621
		c-21.993,2.08-127.204,4.864-142.456-0.263c-10.385,64.98-37.333,142.559-69.214,200.362
		c-17.739,32.168-44.944,74.707-82.509,84.931c-11.815,3.193-212.385,5.801-233.81,2.813c-15.694-2.168-31.301-8.584-44.971-16.436
		c-79.775-45.82-145.181-175.811-168.876-261.123c-9.844,5.801-34.022,5.537-46.175,8.467l2.932,2.402l0.513,2.754
		c4.099,1.758,7.392,7.061,10.008,10.693c27.05,37.383,40.403,88.652,33.012,134.444c-8.654-37.823-12.404-71.66-33.841-105.792
		c-39.791-63.369-68.578-50.039-132.701-48.867c-9.984,0.176-21.24,1.289-30.978-1.201c-0.428-0.088-0.85-0.234-1.272-0.351
		c3.381,6.474,8.607,11.777,13.067,17.49c1.935,2.48,3.809,5,5.622,7.559c1.812,2.578,3.561,5.185,5.244,7.822
		c1.685,2.656,3.304,5.352,4.854,8.086c1.553,2.734,3.037,5.498,4.453,8.291c1.416,2.813,2.763,5.654,4.04,8.525
		c1.277,2.871,2.483,5.772,3.618,8.701s2.196,5.889,3.184,8.877c0.99,2.969,1.906,5.967,2.748,8.994s1.609,6.074,2.303,9.141
		c0.693,3.066,1.311,6.152,1.852,9.258c0.541,3.086,1.006,6.191,1.395,9.316c0.391,3.105,0.703,6.23,0.938,9.375
		c0.236,3.125,0.395,6.26,0.478,9.404c0.082,3.145,0.086,6.289,0.012,9.434c-0.072,3.125-0.222,6.26-0.448,9.404
		c-0.225,3.125-0.527,6.25-0.908,9.375c-5.73-29.97-12.973-60.205-25.778-88.067c-27.085-58.945-71.839-77.314-134.83-70.869
		c-8.731,0.879-29.042,4.717-36.797,1.318c-0.835-0.352-1.641-0.791-2.461-1.172c10.91,23.906,32.068,41.836,44.476,73.36
		c7.658,19.424,19.535,69.932,11.259,88.975c-2.382-26.807-10.204-53.379-21.478-77.783c-31.359-67.881-69.27-88.448-142.424-85.049
		c-12.466,0.586-29.399,3.604-41.139-0.674c5.821,12.07,17.575,23.32,25.271,34.511c1.592,2.344,3.132,4.717,4.62,7.119
		c1.49,2.422,2.927,4.863,4.31,7.324c1.385,2.48,2.715,4.98,3.99,7.5c1.275,2.539,2.496,5.098,3.662,7.676
		c1.166,2.578,2.275,5.185,3.328,7.822c1.053,2.637,2.049,5.283,2.988,7.939c0.938,2.676,1.817,5.371,2.64,8.086
		c0.822,2.715,1.586,5.44,2.291,8.174c0.705,2.754,1.349,5.518,1.933,8.291c0.586,2.773,1.111,5.557,1.576,8.35
		c0.467,2.793,0.872,5.595,1.216,8.408c0.344,2.813,0.627,5.625,0.849,8.438c0.223,2.832,0.385,5.664,0.486,8.496
		c0.102,2.832,0.141,5.664,0.117,8.496c-0.021,2.832-0.103,5.664-0.246,8.496c-0.145,2.832-0.35,5.654-0.615,8.467
		c-12.249-39.902-16.808-75.205-40.699-111.446c-28.608-43.388-70.441-54.433-120-51.416c-12.393,0.762-27.589,3.604-39.527,0.879
		c-0.425-0.088-0.844-0.205-1.266-0.322c5.429,12.217,17.393,24.551,25.055,36.006c27.99,41.807,32.733,78.955,34.453,127.969
		c-4.919-7.236-6.583-23.789-8.839-32.871c-7.884-31.816-20.338-63.545-41.35-89.121c-28.647-34.863-68.051-45.41-112.002-43.535
		c-12.87,0.557-26.725,3.809-39.466,2.285c-0.451-0.059-0.899-0.117-1.351-0.176c3.724,7.354,10.954,14.004,16.169,20.537
		c9.521,11.953,18.501,25.166,25.066,38.935c10.611,22.266,25.702,85.987,17.353,109.864c-5.071-33.574-12.539-66.328-27.923-96.914
		c-29.449-58.535-75.507-77.549-139.603-74.121c-9.762,0.528-27.677,3.867-36.111,0.557c-0.905-0.352-1.784-0.762-2.675-1.143
		c4.784,10.254,14.3,20.01,20.813,29.385c25.963,37.412,48.068,91.611,39.627,138.223c-4.849-16.875-7.819-34.16-13.096-50.977
		c-28.482-90.821-70.858-121.67-164.268-116.221c-9.873,0.586-22.002,3.867-30.211-2.022c-0.173-4.395,0.741-6.416,3.393-9.99
		c23.218-31.201,70.732-13.887,103.272-20.186c0.463-0.088,0.92-0.176,1.377-0.293c6.27,7.793,23.599,22.969,32.312,26.983
		c9.806-4.014,14.528-17.783,25.488-21.446c30.967-10.283,65.414,2.403,92.698-4.863c5.619,9.404,20.309,20.83,29.112,27.451
		c2.08-1.084,1.21-0.352,2.813-2.637c21.932-31.055,57.258-24.551,90.973-22.998c6.938,0.322,14.25,1.523,20.815-1.084
		c6.999,9.111,20.159,21.914,30.152,27.597c6.923-4.424,9.281-15.029,17.514-19.775c29.262-16.816,66.823-0.381,96.888-9.58
		c4.614,8.848,19.928,25.723,29.045,29.18c2.013-1.494,1.362-0.762,2.771-2.725c4.078-5.713,8.326-12.568,14.045-16.758
		c18.108-13.272,54.369-8.057,75.967-8.145c8.162-0.029,16.327,0.674,24.062-2.285c6.378,10.489,17.736,22.969,28.222,29.268
		c1.776-0.996,1.11-0.381,2.385-2.226c4.494-6.504,9.454-14.063,17.054-17.139c21.855-8.935,82.195-13.652,103.318-2.051
		c8.927,4.922,15.217,16.231,24.891,19.395c0.929,0.293,1.878,0.527,2.818,0.82c7.304-5.039,9.161-15.938,18.296-20.127
		c13.072-5.977,95.399-9.199,106.998-3.281c10.852,5.537,15.196,23.144,27.354,28.564c6.967-4.571,3.009-15.117,10.708-21.65
		c19.644-16.67,140.827-6.592,166.037-2.93c11.892,1.728,22.793,10.752,34.852,11.016c8.698,0.205,17.074-6.299,22.77-12.246
		c5.941-6.211,10.872-13.799,12.152-22.324c4.825-32.138-2.218-82.734-4.169-116.953c-4.789-73.203-8.369-146.465-10.74-219.785
		c-3.7-63.123-3.776-127.067-5.446-190.318c-1.107-41.979,2.692-91.031-10.638-131.192c-8.367-25.207-21.929-42.99-45.911-54.8
		c-13.424-6.612-25.318-7.846-40.157-8.221c-48.941-1.233-98.197,0.003-147.17,0.079l-245.47-0.264l-808.51,0.442l-227.408-0.138
		c-36.135-0.141-189.305-5.235-214.606,3.847c-22.647,8.13-41.827,26.01-51.976,47.719c-22.203,47.496-3.29,181.521-11.629,242.833
		c-4.517,33.211-18.129,66.987-27.428,99.22l-45.931,165.343c-9.578,34.307-45.759,126.387-32.721,158.086
		c8.402,20.449,44.433,31.934,64.843,39.375c15.519,5.654,6.26-8.789,23.084-15.557c21.657-8.701,78.239-6.474,99.769,2.93
		c9.633,4.219,16.963,12.364,26.801,16.319c2.171-0.82,1.52-0.322,3.091-1.875c5.563-5.449,12.539-14.561,19.966-17.315
		c24.044-8.906,75.952-6.826,99.375,3.487c7.907,3.486,13.485,11.279,21.237,14.561c0.612,0.264,1.23,0.498,1.846,0.762
		c9.958-3.926,16.014-14.737,27.17-18.691c22.564-7.969,52.576-4.278,75.926-0.879c7.104,1.025,15.234,3.457,22.392,2.959
		c0.867-0.059,1.728-0.176,2.593-0.234c4.931,9.023,10.453,18.076,19.597,23.35c5.657-3.34,9.926-9.873,14.361-14.707
		c19.046-20.683,60.979-14.912,86.578-12.275c6.378,0.645,13.359,2.607,19.723,2.227c0.817-0.059,1.629-0.147,2.443-0.205
		c6.97,13.33,18.735,21.855,29.473,31.992c23.824,22.47,40.257,48.369,51.012,79.277c5.177,14.883,18.006,64.629,10.793,79.512
		c-5.619-22.383-10.462-45.381-19.635-66.592c-29.569-68.35-68.502-99.698-145.151-96.416c-12.87,0.557-32.502,4.571-44.449-0.176
		c6.182,11.865,18.53,23.027,26.508,34.395c24.826,35.449,48.475,88.857,40.567,133.271c-6.838-33.691-17.786-66.885-34.767-96.885
		c-32.106-56.719-70.535-71.895-134.007-69.61c-12.565,0.439-29.109,3.076-40.998-0.557c-0.469-0.146-0.926-0.322-1.389-0.469
		c5.76,11.514,17.827,22.881,25.655,33.311c30.999,41.338,42.223,81.387,40.131,132.92c-7.693-34.365-16.849-67.939-34.444-98.76
		c-31.005-54.346-71.648-67.939-131.98-66.973c-13.005,0.234-29.537,2.549-42.038-1.084c-0.436-0.117-0.867-0.293-1.301-0.41
		c5.836,11.221,17.001,20.215,25.055,30.03c27.603,33.574,47.511,96.035,43.072,139.365c-9.108-38.291-20.798-75.498-42.056-109.043
		c-32.367-51.094-71.074-59.912-128.733-59.912c-12.735-0.03-27.399,1.728-39.808-1.201c-0.45-0.088-0.895-0.234-1.343-0.352
		c6.309,12.276,19.184,21.621,27.978,32.285c28.425,34.482,46.495,92.695,41.931,137.197
		c-11.265-60.439-39.967-137.08-102.082-161.924c-20.995-8.379-43.461-12.949-60.241-29.268
		c-13.903-13.506-19.12-30.41-18.688-49.57c0.855-37.881,18.17-80.567,28.791-116.953c15.926-54.568,30.278-109.57,46.32-164.092
		c11.395-38.725,26.284-78.858,34.111-118.436c6.622-33.483,2.656-117.595,2.415-155.751c-0.325-51.378-3.137-96.193,36.189-135.334
		c14.81-14.739,33.996-24.442,54.346-28.884c30.012-6.551,65.936-2.716,96.744-2.367c42.547,0.566,85.096,0.817,127.647,0.753
		c23.935-68.93,51.217-135.375,87.302-198.982c16.441-28.978,35.347-56.619,53.065-84.826
		c-7.676-22.172-10.972-104.789-3.437-125.171c2.965-8.025,12.091-12.062,15.686-18.949c4.913-9.422,1.444-50.909,1.298-63.39
		c-23.369,0.844-46.746,1.349-70.131,1.515c0.199,7.55,0.844,15.639-0.185,23.133c-1.301,9.501-7.758,19.441-15.445,25.046
		c-8.558,6.237-19.45,8.232-29.769,6.091c-15.272-3.167-25.822-12.504-34.479-24.92c-6.065-44.523-2.707-92.379-2.769-137.438
		c0.17-77.443-0.209-154.884-1.137-232.322c-0.193-30.17,5.092-66.85-1.966-95.939c-6.823-28.119-37.819-85.248-51.088-113.654
		c-24.144-1.014-45.814-8.692-64.046-24.715c-1.346-1.192-2.662-2.415-3.949-3.671c-1.287-1.256-2.542-2.543-3.765-3.861
		c-1.223-1.318-2.412-2.666-3.568-4.043c-1.156-1.375-2.278-2.778-3.366-4.21c-1.088-1.434-2.14-2.891-3.155-4.374
		c-1.016-1.484-1.993-2.992-2.933-4.523c-0.941-1.531-1.845-3.085-2.71-4.661c-0.865-1.576-1.691-3.173-2.476-4.79
		c-0.787-1.617-1.533-3.252-2.238-4.904c-0.705-1.654-1.369-3.324-1.992-5.01c-0.623-1.688-1.204-3.389-1.743-5.104
		c-0.541-1.715-1.038-3.441-1.491-5.18c-0.455-1.74-0.866-3.49-1.233-5.25c-0.369-1.76-0.693-3.527-0.973-5.303
		c-0.281-1.775-0.519-3.557-0.712-5.344c-0.193-1.787-0.343-3.578-0.448-5.373c-0.092-1.654-0.143-3.31-0.152-4.966
		c-0.01-1.656,0.022-3.313,0.094-4.969c0.072-1.654,0.186-3.307,0.34-4.957c0.154-1.648,0.35-3.293,0.586-4.934
		c0.236-1.639,0.513-3.271,0.829-4.898c0.316-1.625,0.674-3.242,1.072-4.852c0.397-1.607,0.833-3.205,1.31-4.793
		c0.477-1.586,0.992-3.159,1.547-4.72c0.555-1.563,1.147-3.109,1.778-4.641c0.631-1.531,1.3-3.046,2.007-4.544
		c0.707-1.5,1.45-2.98,2.229-4.441c0.781-1.461,1.598-2.902,2.449-4.324c0.852-1.422,1.737-2.821,2.657-4.198
		c0.922-1.377,1.877-2.73,2.865-4.06c0.988-1.33,2.009-2.635,3.061-3.914c1.053-1.279,2.137-2.531,3.252-3.756
		c18.448-20.637,44.273-32.165,71.807-33.633c1.697-0.092,3.397-0.141,5.098-0.147c1.699-0.006,3.398,0.03,5.098,0.109
		c1.699,0.076,3.394,0.195,5.086,0.357c1.693,0.162,3.381,0.366,5.063,0.612c1.684,0.246,3.359,0.533,5.027,0.861
		c1.668,0.33,3.327,0.7,4.978,1.11c1.65,0.412,3.289,0.864,4.916,1.356c1.627,0.494,3.241,1.027,4.843,1.6
		c1.6,0.572,3.185,1.185,4.755,1.837c1.572,0.651,3.126,1.34,4.661,2.068c1.537,0.729,3.055,1.495,4.553,2.3
		c1.498,0.805,2.974,1.646,4.43,2.523c1.457,0.877,2.892,1.79,4.304,2.739c1.41,0.947,2.797,1.93,4.16,2.947
		c1.361,1.017,2.697,2.068,4.008,3.152c1.311,1.084,2.593,2.199,3.847,3.346c21.589,19.509,33.979,45.7,35.022,74.792
		c1.113,31.131-10.945,57.662-31.752,80.25c15.973,34.219,49.336,91.022,58.257,124.485c7.09,26.599,3.091,94.465,3.141,126.179
		l0.325,234.662l69.425-0.179l17.997-903.994l-51.094,0.176c-1.031-39.977-1.615-79.96-1.752-119.95
		c37.986-14.572,77.323-26.106,116.183-38.127c22.28-6.891,45.718-15.87,68.801-19.327c24.387-3.653,50.183-2.279,74.836-2.232
		l0.015-127.14L1557.514,547.626z"/>
	<path style="fill:#FEFEFD;" d="M2057.794,2221.607c2.634-0.085,5.285,0.229,7.916,0.425l1.002,2.487
		c-7.849,10.459-23.271,19.026-33.606,27.331l-3.636,2.23l-1.354-2.13c0.208-0.747,0.39-1.5,0.624-2.241
		C2032.683,2237.334,2046.576,2226.834,2057.794,2221.607z"/>
	<path style="fill:#FEFEFD;" d="M781.685,1893.502c19.219,12.012,44.543,24.293,60.592,39.926
		c-19.699-4.81-39.07-10.324-58.477-16.198C782.992,1909.33,782.287,1901.42,781.685,1893.502z"/>
	<path style="fill:#FEFEFD;" d="M1675.326,1722.485c5.127,8.965,4.477,73.151,3.774,86.813c-4.591,3.914-14.546,5.01-20.522,6.521
		c-2.701-28.301-2.443-57.182-4.55-85.608L1675.326,1722.485z"/>
	<path style="fill:#FEFEFD;" d="M2539.575,2981.663c5.622-0.264,10.289-0.732,15.601,1.348c3.299,5.273,28.755,66.504,29.795,73.066
		c-4.104,1.641-5.431,0.088-9.392-1.611c-2.297,1.436-4.702,2.695-7.295,3.487c-10.207,3.076-28.351,4.395-37.743-0.821
		C2533.917,3032.014,2536.929,3006.858,2539.575,2981.663z"/>
	<path style="fill:#FEFEFD;" d="M703.987,1799.454l30.949-0.82l0.237,37.345l-52.494,0.639l-27.322,0.117
		c-0.366-12.187-0.226-24.437-0.325-36.633L703.987,1799.454z"/>
	<path style="fill:#FEFEFD;" d="M2587.092,3066.125c14.095,6.475,15.741,31.934,30.686,41.309
		c-14.238,3.047-51.627,5.742-63.647-1.553c-1.843,1.054-1.776,1.113-4.146,1.934c-8.991,3.164-19.025,1.904-27.302-2.432
		c4.139-11.513,4.763-24.785,6.158-36.914c0.911,0.469,2.323,1.26,3.387,1.582
		C2541.746,3072.864,2578.239,3070.959,2587.092,3066.125z"/>
	<path style="fill:#FEFEFD;" d="M2158.607,2723.85c0.108,0.097,0.231,0.179,0.322,0.293c3.642,4.632,0.785,72.135,0.853,82.278
		c-11.604,7.277-22.726,14.903-33.797,22.96c-4.471-28.154-2.862-59.109-3.272-87.659
		C2134.76,2735.928,2146.724,2729.971,2158.607,2723.85z"/>
	<path style="fill:#FEFEFD;" d="M2155.976,2828.999l2.561,0.404c4.438,8.069,5.751,72.138,6.729,84.952
		c-10.978,7.265-21.138,15.803-31.43,24.006l-2.543,0.557c-5.042-19.887-3.428-65.856-5.355-88.752
		C2135.096,2841.811,2145.514,2835.542,2155.976,2828.999z"/>
	<path style="fill:#FEFEFD;" d="M2167.352,2935.168c6.999,15.381,5.672,56.074,10.825,76.523c-0.469,0.791-1.069,1.904-1.67,2.666
		c-6.146,7.793-26.156,23.584-35.517,24.814l-2.159,2.461l-2.525-0.439c-5.76-19.483-3.677-58.448-5.06-80.244
		C2144.029,2953.538,2155.607,2944.104,2167.352,2935.168z"/>
	<path style="fill:#FEFEFD;" d="M2497.754,2296.32l1.081,1.081c2.133,7.242-4.163,131.602-5.353,149.962l-8.305-28.509
		c-10.509-32.376-24.366-63.328-36.698-95.021C2464.15,2313.371,2481.066,2305.016,2497.754,2296.32z"/>
	<path style="fill:#FEFEFD;" d="M2168.085,2616.702c4.816,7.389-5.153,73.175-6.542,86.045
		c-13.415,6.439-26.256,14.49-39.164,21.894c-1.324-28.323-2.32-56.655-2.988-84.999
		C2135.488,2631.712,2151.719,2624.066,2168.085,2616.702z"/>
	<path style="fill:#FEFEFD;" d="M930.636,1412.333l94.951-0.621c21.167-0.202,43.538-2.104,64.474,0.876
		c3.794,2.95,5.54,4.819,6,9.896c0.48,5.326,0.091,9.776-2.936,14.066l-167.221,0.586
		C926.863,1428.488,927.95,1420.653,930.636,1412.333z"/>
	<path style="fill:#FEFEFD;" d="M979.512,1766.172l118.629-0.533l-0.343,26.763l-53.854,0.287
		c-39.379,0.172-78.758,0.102-118.137-0.211c0.129-8.683,0.873-17.399,1.409-26.068L979.512,1766.172z"/>
	<path style="fill:#FEFEFD;" d="M1160.708,1410.253c1.309-0.051,2.617-0.094,3.926-0.129c20.982-0.469,153.478-3.753,163.597,1.122
		c1.274,0.615,3.278,3.141,4.389,4.207c2.432,6.97,1.474,12.296,0.519,19.401c-57.486,2.804-115.216,2.033-172.764,2.267
		L1160.708,1410.253z"/>
	<path style="fill:#FEFEFD;" d="M759.92,2089.903c22.547,5.616,48.355,25.828,68.678,37.576
		c-31.262,9.664-62.28,20.056-93.056,31.175c-16.69,5.833-33.117,12.841-49.553,19.368
		C706.858,2143.885,731.561,2117.858,759.92,2089.903z"/>
	<path style="fill:#FEFEFD;" d="M843.138,2294.416l4.576,0.181c2.912,9.627-14.988,46.755-18.516,58.295
		c-46.723,0.557-93.501-0.164-140.232-0.064l-4.834-0.533l0.715-2.282c17.189-8.543,37.746-13.151,56.001-19.409L843.138,2294.416z"
		/>
	<path style="fill:#FEFEFD;" d="M1085.822,1459.574c3.492-0.249,5.883-0.184,9.246,0.806c4.588,7.046,2.525,18.759,2.235,27.023
		l-158.338,0.281c-4.901,0.064-6.141,0.311-10.526-2.197c-3.495-7.573-1.881-17.174-1.55-25.362L1085.822,1459.574z"/>
	<path style="fill:#FEFEFD;" d="M1158.452,1665.523l175.497,0.267l-0.088,26.628c-58.448-0.049-116.895,0.207-175.342,0.768
		L1158.452,1665.523z"/>
	<path style="fill:#FEFEFD;" d="M1158.666,1615.199l175.565-0.428l-0.331,27.36l-175.298,0.223L1158.666,1615.199z"/>
	<path style="fill:#FEFEFD;" d="M1158.464,1765.762c58.733-0.51,117.465-0.588,176.198-0.234c0.393,8.991-0.062,18.143-0.217,27.144
		l-176.652-0.15L1158.464,1765.762z"/>
	<path style="fill:#FEFEFD;" d="M927.294,1666.208l170.98-0.882c0.021,7.708,1.597,21.776-2.725,27.958l-169.755,0.861
		C925.659,1684.66,925.407,1675.56,927.294,1666.208z"/>
	<path style="fill:#FEFEFD;" d="M926.251,1614.71c57.67,0.256,115.338,0.004,173.004-0.756l0.041,28.409
		c-57.701-0.193-115.402-0.051-173.101,0.428L926.251,1614.71z"/>
	<path style="fill:#FEFEFD;" d="M1064.951,1715.448l34.058-0.545l-0.05,28.69l-143.962,0.267l-28.933,0.085l0.267-27.765
		C972.539,1716.327,1018.746,1716.083,1064.951,1715.448z"/>
	<path style="fill:#FEFEFD;" d="M926.854,1562.392l171.469-0.079c0.243,9.56,1.189,19.444-0.976,28.814
		c-56.942-1.033-113.882-1.016-170.822,0.053L926.854,1562.392z"/>
	<path style="fill:#FEFEFD;" d="M1209.982,1563.095c41.268-0.535,82.536-0.671,123.806-0.407l0.24,27.229l-51.8,0.718
		l-123.627,0.706l0.111-28.198L1209.982,1563.095z"/>
	<path style="fill:#FEFEFD;" d="M927.557,1510.156l170.072-0.307l0.17,28.898c-56.863-0.182-113.725,0.058-170.584,0.718
		L927.557,1510.156z"/>
	<path style="fill:#FEFEFD;" d="M1158.432,1716.127c58.695-0.799,117.392-0.859,176.089-0.182l-0.19,27.366l-175.972,0.492
		L1158.432,1716.127z"/>
	<path style="fill:#FEFEFD;" d="M1260.265,1459.624c24.529-0.561,49.059-0.564,73.588-0.012l0.135,26.212
		c-34.151,4.116-70.108,2.086-104.493,2.112c-23.197,0.056-46.438-0.22-69.571,1.723l-0.152-29.464L1260.265,1459.624z"/>
	<path style="fill:#FEFEFD;" d="M1301.778,1510.375l31.855-0.085l0.155,28.509l-140.265,0.979l-33.615,0.624l0.064-29.276
		C1207.244,1511.246,1254.513,1510.996,1301.778,1510.375z"/>
	<path style="fill:#FEFEFD;" d="M2176.768,3033.254c0.393,0.176,0.826,0.263,1.175,0.498c5.959,4.072,11.358,46.758,14.514,56.397
		c-1.427,2.842-2.836,4.951-4.934,7.354c-12.677,14.502-85.395,73.975-99.888,74.707c-1.725,0.371-3.466,0.625-5.224,0.762
		c-16.854,1.494-61.037-9.287-73.676-20.362c-1.058,0.147-2.13,0.235-3.202,0.264c-6.624,0.176-13.614-3.75-18.179-8.262
		c27.073,6.123,65.751,17.93,92.851,17.227c15.141-0.381,28.433-6.475,38.578-17.637c20.786-22.851,20.795-53.232,19.415-82.148
		C2148.541,3060.149,2170.206,3041.663,2176.768,3033.254z"/>
	<path style="fill:#FEFEFD;" d="M2185.508,2511.151l1.711,1.356c2.212,16.365-11.344,65.294-15.322,83.127
		c-17.69,6.296-34.732,15.015-51.753,22.936c-6.463-9.844-3.741-60.964-3.809-75.899
		C2139.028,2531.226,2161.505,2519.648,2185.508,2511.151z"/>
	<path style="fill:#FEFEFD;" d="M2278.856,3349.485c15.17,3.135,27.606,41.426,46.793,47.842c-4.063,2.578-7.187,3.018-11.977,3.34
		c-24.914,1.582-172.122,4.98-183.797-5.303c-2.502,0.791-4.207,1.026-6.867,0.674c-11.3-1.553-29.273-13.301-35.353-22.617
		c23.273,10.957,75.053,13.418,100.567,10.928C2216.679,3381.565,2259.541,3372.805,2278.856,3349.485z"/>
	<path style="fill:#FEFEFD;" d="M1647.895,713.473c62.318,16.743,123.791,40.96,184.995,61.509
		c52.24,17.31,104.237,35.324,155.991,54.041c29.868,10.685,62.798,19.919,90.115,36.138c-19.57-0.782-61.292-18.015-82.301-24.015
		c-54.457-14.965-108.748-30.51-162.873-46.635c-57.366-17.364-114.234-36.425-171.738-53.329
		C1656.578,732.464,1652.38,722.755,1647.895,713.473z"/>
	<path style="fill:#FEFEFD;" d="M2279.794,2215.247c3.296-0.469,7.037-0.179,10.386-0.232c-8.737,4.775-62.945,15.027-77.531,19.028
		c-67.998,18.65-136.146,37.969-200.487,67.078c-2.101,1.049-4.263,1.471-6.527,2.054l-1.5-2.221
		c1.5-4.518,3.428-8.481,6.369-12.264c17.792-22.878,57.525-56.558,85.477-64.532c24.712-7.049,55.796-3.759,81.589-3.976
		C2212.109,2219.894,2245.479,2219.685,2279.794,2215.247z"/>
	<path style="fill:#FEFEFD;" d="M914.35,2202.509c17.773-0.322,35.548-0.394,53.323-0.217
		c-20.892,47.083-42.577,94.221-65.423,140.382l-3.586,6.328c-9.817,5.903-28.031,3.079-39.316,2.563
		C876.631,2301.588,894.135,2251.382,914.35,2202.509z"/>
	<path style="fill:#FEFEFD;" d="M2213.393,2404.016l2.036,0.489c1.887,7.116-17.842,71.479-21.023,83.438
		c-25.333,13.289-53.774,22.072-79.714,34.697c-0.032-27.094-2.083-53.822-4.957-80.745c16.693-7.807,33.695-14.873,51.003-21.199
		C2178.046,2414.37,2195.597,2408.811,2213.393,2404.016z"/>
	<path style="fill:#FEFEFD;" d="M2509.877,2190.822l3.979,0.114c3.348,14.019-8.203,69.73-10.62,87.686
		c-20.974,7.749-41.016,18.941-61.459,28.111l-13.125-22.872c-8.912-15.334-18.604-29.655-29.016-44.001
		C2436.096,2222.958,2472.389,2205.342,2509.877,2190.822z"/>
	<path style="fill:#FEFEFD;" d="M2194.174,3112.093c9.639,13.359,13.231,45.615,17.871,62.168
		c-3.759,6.739-8.473,11.631-14.198,16.699c-12.369,10.957-45.369,37.91-62.329,36.973c-1.283,0.322-1.711,0.498-3.202,0.468
		c-12.536-0.234-67.91-25.254-75.97-33.398c-1.488,0.293-2.113,0.556-3.797,0.234c-9.557-1.729-33.314-13.272-39.346-20.449
		c17.493,7.295,48.545,12.422,67.459,11.309C2108.176,3184.485,2176.004,3133.186,2194.174,3112.093z"/>
	<path style="fill:#FEFEFD;" d="M1474.741,2202.183l61.863,0.264c19.266,48.914,50.364,98.479,66.48,147.223
		c-19.895,3.1-42.993,0.885-63.246,0.68C1516.112,2302.367,1497.027,2251.021,1474.741,2202.183z"/>
	<path style="fill:#FEFEFD;" d="M1692.549,1368.921c10.992,3.466,22.183,6.272,33.328,9.196
		c-10.333,55.761-21.41,111.009-34.198,166.28c-9.51,41.106-20.775,81.856-28.811,123.287c-1.699,5.291-1.974,6.621-6.202,10.523
		l0.442-0.193c-4.415-0.938-5.974-1.398-8.534-5.262c-8.481-12.791-6.87-36.393-5.517-50.944
		c2.748-29.502,11.168-59.977,17.098-89.109C1671.415,1478.198,1682.213,1423.605,1692.549,1368.921z"/>
	<path style="fill:#FEFEFD;" d="M2259.64,2298.5c-0.009,11.446-27.727,68.443-33.202,82.248
		c-39.967,16.356-81.311,28.564-120.923,46.043c-4.898-9.744-10.298-19.005-16.011-28.295c-8.13-12.794-17.118-20.971-29.408-29.804
		C2125.074,2342.135,2193.198,2321.158,2259.64,2298.5z"/>
	<path style="fill:#FEFEFD;" d="M2006.846,3282.513c49.819,27.304,109.166,53.349,167.077,40.136
		c26.004-5.947,57.067-19.395,71.728-42.92c5.03,14.385,18.574,43.389,29.469,53.906c-0.548,2.315-1.558,4.541-2.402,6.767
		c-13.348,11.514-24.812,19.424-41.303,25.869c-40.486,15.85-113.757,20.889-153.346,1.436
		C2060.343,3359.007,2013.365,3301.438,2006.846,3282.513z"/>
	<path style="fill:#FEFEFD;" d="M2313.441,2218.619l2.191,0.545c-1.6,6.97-12.551,14.848-17.326,20.868
		c-10.497,13.233-17.473,28.564-29.051,41.13c-74.781,22.406-153.428,46.436-224.297,79.213
		c-11.675-4.55-23.297-8.186-35.396-11.432l-24.153-2.44c11.757-15.788,25.166-25.987,42.563-35.177
		c52.444-27.7,113.988-41.367,170.482-58.383C2236.701,2241.421,2274.561,2227.806,2313.441,2218.619z"/>
	<path style="fill:#FEFEFD;" d="M520.99,1140.681c16.242-1.236,31.157,1.368,45.12,10.078c0.967,0.598,1.917,1.219,2.851,1.863
		c0.934,0.646,1.851,1.315,2.751,2.007c0.9,0.691,1.783,1.406,2.648,2.145c0.863,0.736,1.708,1.495,2.534,2.276
		c0.824,0.779,1.629,1.579,2.414,2.399c0.783,0.822,1.546,1.663,2.288,2.522c0.742,0.861,1.462,1.74,2.159,2.637
		c0.695,0.896,1.368,1.81,2.018,2.739c0.65,0.932,1.276,1.879,1.878,2.842c0.604,0.963,1.181,1.94,1.731,2.933
		c0.553,0.992,1.079,1.998,1.579,3.018c0.502,1.019,0.977,2.051,1.427,3.094c0.447,1.043,0.868,2.097,1.263,3.161
		c0.394,1.064,0.762,2.139,1.102,3.223c0.34,1.084,0.652,2.176,0.938,3.276c0.283,1.098,0.539,2.203,0.768,3.316
		c0.24,1.192,0.451,2.387,0.633,3.586c0.182,1.201,0.334,2.406,0.457,3.615c0.123,1.209,0.216,2.42,0.278,3.633
		c0.062,1.213,0.096,2.427,0.1,3.642c0.004,1.215-0.021,2.429-0.076,3.642c-0.057,1.213-0.143,2.424-0.258,3.633
		s-0.26,2.415-0.434,3.618c-0.174,1.201-0.378,2.398-0.612,3.592c-0.232,1.191-0.494,2.377-0.785,3.557
		c-0.291,1.178-0.611,2.349-0.961,3.513c-0.348,1.164-0.725,2.318-1.131,3.463c-0.404,1.145-0.837,2.279-1.298,3.404
		c-0.461,1.123-0.949,2.234-1.465,3.334c-0.516,1.1-1.059,2.187-1.629,3.261c-0.568,1.072-1.163,2.131-1.784,3.176
		c-0.619,1.045-1.265,2.073-1.937,3.085c-11.476,17.098-28.093,26.669-47.953,30.68c-14.476,1.019-31.573-3.246-43.954-10.834
		c-0.984-0.599-1.953-1.224-2.906-1.875c-0.951-0.648-1.887-1.321-2.807-2.019c-0.918-0.695-1.818-1.414-2.701-2.156
		c-0.883-0.74-1.746-1.503-2.59-2.288c-0.844-0.785-1.668-1.591-2.473-2.417c-0.803-0.826-1.585-1.673-2.347-2.54
		c-0.762-0.865-1.501-1.749-2.218-2.651c-0.717-0.902-1.41-1.822-2.08-2.76s-1.316-1.892-1.939-2.862
		c-0.621-0.971-1.219-1.956-1.793-2.956c-0.572-1-1.119-2.014-1.641-3.041c-0.521-1.029-1.017-2.07-1.488-3.123
		c-0.469-1.053-0.911-2.116-1.327-3.19c-0.416-1.074-0.805-2.159-1.166-3.255c-0.361-1.094-0.695-2.196-1.002-3.308
		c-0.305-1.111-0.582-2.229-0.832-3.354c-0.254-1.131-0.479-2.267-0.677-3.407c-0.197-1.141-0.366-2.286-0.507-3.437
		c-0.143-1.148-0.256-2.3-0.34-3.454c-0.086-1.156-0.144-2.313-0.173-3.469c-0.027-1.158-0.027-2.316,0-3.475
		s0.084-2.315,0.17-3.469c0.084-1.154,0.196-2.307,0.337-3.457c0.141-1.148,0.31-2.294,0.507-3.437
		c0.197-1.141,0.422-2.276,0.674-3.407c0.252-1.129,0.532-2.252,0.841-3.369c0.307-1.117,0.641-2.226,1.002-3.325
		c0.361-1.1,0.749-2.19,1.163-3.272c0.416-1.08,0.857-2.15,1.324-3.211c0.467-1.06,0.96-2.108,1.479-3.143
		c0.518-1.035,1.061-2.058,1.629-3.067c0.568-1.008,1.161-2.002,1.778-2.982C483.27,1154.189,500.215,1145.351,520.99,1140.681z"/>
	<path style="fill:#FEFEFD;" d="M1715.067,1205.318c17.06-2.115,32.672-1.438,48.15,6.7c16.822,8.848,29.484,25.313,34.875,43.418
		c0.326,1.094,0.624,2.195,0.893,3.305c0.272,1.109,0.515,2.225,0.73,3.346c0.217,1.121,0.405,2.247,0.565,3.378
		c0.16,1.129,0.292,2.262,0.396,3.399c0.105,1.137,0.182,2.275,0.229,3.416c0.049,1.141,0.069,2.282,0.062,3.425
		c-0.01,1.141-0.047,2.281-0.111,3.422c-0.064,1.139-0.156,2.276-0.275,3.413c-0.121,1.135-0.271,2.266-0.448,3.392
		c-0.176,1.129-0.38,2.252-0.612,3.369c-0.232,1.117-0.492,2.229-0.779,3.334c-0.287,1.106-0.601,2.203-0.94,3.293
		c-0.342,1.09-0.71,2.17-1.104,3.24c-0.395,1.072-0.815,2.133-1.263,3.182c-0.445,1.051-0.917,2.09-1.415,3.117
		c-0.498,1.027-1.022,2.042-1.57,3.044c-10.479,19.181-26.76,28.447-47.139,34.289c-14.426,1.075-27.094,1.45-40.62-4.409
		c-17.71-7.676-31.093-22.641-38.08-40.523c-6.691-17.115-6.715-35.35,0.984-52.149
		C1677.297,1224.552,1693.991,1213.404,1715.067,1205.318z"/>
	<path style="fill:#FEFEFD;" d="M2539.402,2085.555l1.441,1.049c2.068,12.167-16.406,70.107-20.628,85.207
		c-43.213,17.868-89.402,34.852-129.894,58.263c-20.068-20.625-35.177-27.393-63.688-31.008
		c-12.445-1.061-24.932-1.518-37.409-2.074C2365.889,2149.291,2453.709,2112.93,2539.402,2085.555z"/>
	<path style="fill:#FEFEFD;" d="M1993.956,977.412c40.585,12.038,82.113,20.722,122.663,33.155
		c4.307,20.985,17.584,84.296,12.85,102.861l-4.723,1.562c-38.473,5.938-79.808,5.774-118.723,8.232
		C2003.791,1074.593,1998.324,1025.901,1993.956,977.412z"/>
	<path style="fill:#FEFEFD;" d="M2609.885,1107.868c42.483,22.503,77.666,60.574,117.381,87.926
		c0.229,15.621,2.212,61.576-5.203,74.071l-4.775,1.02l-122.321,0.313C2597.164,1216.475,2603.753,1162.249,2609.885,1107.868z"/>
	<path style="fill:#FEFEFD;" d="M882.106,2133.142c10.652-0.94,21.77-0.413,32.487-0.513c-7.04,17.804-15.782,35.215-23.774,52.626
		c-73.711,29.437-150.903,52.049-225.434,79.802l-25.764,10.978c12.469-28.318,25.298-56.136,41.01-82.831
		C747.206,2172.494,811.571,2136.722,882.106,2133.142z"/>
	<path style="fill:#FEFEFD;" d="M879.979,2202.482l3.249,0.662c-5.569,24.501-19.471,51.451-29.183,74.804
		c-36.287,15.182-75.815,26.282-113.01,39.361c-32.092,11.282-65.549,26.223-98.391,34.547c-8.139,2.062-17.599,1.225-25.945,1.008
		l-4.688-1.301c-2.417-12.393,16.324-45.838,22.283-57.87C713.798,2257.49,797.775,2231.741,879.979,2202.482z"/>
	<path style="fill:#FEFEFD;" d="M1996.762,1308.684c3.53-0.656,3.164-0.349,6.182,1.037c5.848,18.073,5.071,63.873,6.486,85.731
		l15.311,247.755c50.874-11.306,101.505-26.229,151.764-40.09l10.298,12.712c-39.188,12.261-80.065,21.211-119.865,31.357
		c-63.131,16.068-126.133,32.624-189.006,49.667l-101.318,27.205c-15.539,4.298-32.036,10.851-47.804,13.535
		c-7.957,1.356-13.556,1.353-20.104-3.349c-0.196-2.651-0.6-2.997,0.838-5.464c3.8-6.519,12.932-10.219,19.855-12.445
		c28.664-9.217,60.929-13.857,90.422-20.997c58.887-14.262,117.527-30.132,176.672-43.204c-0.102-25.236-3.062-51.111-4.403-76.38
		c-4.644-87.36-12.352-174.621-16.122-262.005L1996.762,1308.684z"/>
	<path style="fill:#FEFEFD;" d="M577.199,1302.402l1.989,0.091c6.888,5.824,53.862,107.449,56.2,117.993
		c3.609,16.263,1.521,36.337,1.638,53.151l0.46,108.779c0.164,92.109,4.362,185.318,0.841,277.354
		c-0.34,8.883,0.281,19.875-4.723,27.533c-5.543,3.747-10.564,3.211-16.934,3.103c-3.574-3.431-6.902-6.612-8.06-11.593
		c-6.835-29.414-2.982-66.929-2.965-97.348l0.51-240.9c-0.088-36.158,3.656-77.865-3.015-113.23
		c-6.454-34.23-38.382-82.652-54.343-115.342L577.199,1302.402z"/>
	<path style="fill:#FEFEFD;" d="M1588.305,589.011c28.418,6.94,56.259,17.37,84.138,26.227L1852,672.129
		c2.048,27.179,1.266,54.903,0.425,82.122c-61.834-19.693-123.032-41.757-184.761-61.884c-25.808-8.414-51.753-17.892-78.097-24.407
		L1588.305,589.011z"/>
	<path style="fill:#FEFEFD;" d="M2459.648,1947.626c38.39-2.443,79.942-1.151,118.037,4.169
		c-22.5,2.584-90.592,8.147-104.543,23.165l0.469,2.979c9.038,2.66,67.193-10.541,83.514-12.223
		c20.106-2.074,40.404-1.869,60.592-1.91c-13.078,10.315-23.719,22.38-34.143,35.288c-22.442,3.92-45.097,5.877-67.462,10.521
		c-47.004,9.759-91.629,25.644-136.708,41.783c-38.695,14.537-75.346,33.135-113.233,49.491
		c11.534-28.497,25.175-55.896,38.663-83.499c16.649-5.663,99.759-27.967,106.368-35.235l-2.247-2.394
		c-27.393-4.33-66.097,11.842-92.074,20.801c7.509-15.902,15.72-31.245,24.284-46.599
		C2383.651,1955.756,2417.99,1950.839,2459.648,1947.626z"/>
	<path style="fill:#FEFEFD;" d="M1947.807,3164.534c0.349,0.234,0.682,0.498,1.046,0.732c16.881,10.429,42.126,16.26,60.712,24.111
		c37.603,15.85,74.766,35.977,113.171,49.395c4.233,1.465,6.753,1.67,11.074,0.732c1.969,0.528,3.674,1.025,5.739,0.879
		c16.863-1.201,66.838-34.072,78.021-48.194c5.522,25.723,18.486,49.893,23.628,75.674c-0.521,0.761-1.022,1.552-1.562,2.285
		c-17.141,23.819-58.711,41.954-87.097,45.381c-48.088,5.772-113.704-26.602-151.195-56.016
		C1980.429,3243.079,1951.162,3191.311,1947.807,3164.534z"/>
	<path style="fill:#FEFEFD;" d="M1573.762,701.895c3.1-0.24,6.243-0.486,9.352-0.31c12.448,0.697,27.132,21.234,34.963,30.211
		c-261.063,3.252-522.101,7.875-783.115,13.869l-47.197,0.252c31.866-11.071,76.459-25.398,109.623-29.435
		c21.955-2.675,44.897-1.913,66.996-2.262c36.566-0.416,73.126-1.141,109.679-2.174L1573.762,701.895z"/>
	<path style="fill:#FEFEFD;" d="M2573.741,2010.16l1.272,1.565c-11.206,19.107-18.568,37.025-25.916,57.911
		c-50.49,15.727-101.684,34.169-149.215,57.486l-84.979,42.246c-15.932,7.928-32.848,18.076-49.954,22.878
		c-10.374,2.912-26.854,0.258-37.799-0.199l-1.943-1.626c0.267-3.794,25.679-59.555,29.206-64.245
		c10.535-14.01,32.449-22.38,47.772-29.83C2386.824,2055.18,2480.469,2023.335,2573.741,2010.16z"/>
	<path style="fill:#FEFEFD;" d="M1659.772,846.326c36.111,5.713,72.319,16.436,107.733,25.433l155.778,39.68
		c62.648,16.535,127.465,29.306,188.76,50.285l4.102,34.898c-44.851-12.267-90.103-23.115-134.839-35.751
		c-1.257,50.405,8.479,112.014,13.198,163.339l-26.549,2.587c-6.92-56.979-9.185-114.595-16.913-171.41
		c-104.883-30.982-214.36-51.252-320.895-76.348c-5.502-0.223-7.441-0.85-12.296,1.969c-2.821,9.331,24.791,298.723,27.949,334.005
		c-5.768,11.297-11.01,22.289-13.711,34.755c-7.509,34.676,3.618,60.445,20.918,89.651c4.922,8.312,5.276,21.958,6.29,31.568
		c5.941,56.347-1.23,93.366-16.128,147.689c-4.512-28.125-5.909-57.563-8.792-85.966c-7.479-73.696-13.521-147.284-19.749-221.074
		c-9.987-118.289-23.61-236.285-31.315-354.774C1605.904,855.683,1642.161,861.385,1659.772,846.326z"/>
	<path style="fill:#FEFEFD;" d="M2133.075,1279.46c2.174-0.308,3.504,0.22,5.593,0.785c7.749,16.907,32.795,275.444,35.364,311.039
		c-39.668,8.543-78.958,19.468-118.242,29.64l-18.231,4.512c-4.356-32.013-4.562-65.49-6.525-97.799
		c-3.785-74.234-8.468-148.412-14.048-222.533C2055.004,1294.776,2094.55,1287.775,2133.075,1279.46z"/>
	<path style="fill:#FEFEFD;" d="M1514.547,758.716c38.004-2.159,76.573-1.5,114.656-2.083l1.063,56.32l-776.262,14.81
		c-38.376,0.05-76.793,1.793-115.184,2.174l-0.961-54.741c83.399-7.866,175.081-5.604,259.195-7.257L1514.547,758.716z"/>
	<path style="fill:#FEFEFD;" d="M1468.378,583c29.35-1.731,58.94-1.245,88.336-1.447c-1.21,31.948-0.513,63.964-0.217,95.927
		c-160.597-0.697-321.554,6.77-482.148,9.727c-27.885-0.182-55.808,1.11-83.675,2.013c-0.357-31.984-0.088-63.964,0.809-95.939
		C1150.29,593.379,1309.58,586.662,1468.378,583z"/>
	<path style="fill:#FEFEFD;" d="M1630.387,893.693c32.077,2.057,68.022,14.115,99.595,21.483
		c70.596,16.055,140.988,32.959,211.178,50.713c0.179,35.174,4.237,71.534,7.693,106.556c1.714,17.364,4.673,35.276,4.157,52.717
		c-4.181,3.779-7.556,2.924-13.072,3.29c-95.757,3.946-191.37,14.396-287.203,18.811
		C1643.169,1064.5,1637.667,977.136,1630.387,893.693z"/>
	<path style="fill:#FEFEFD;" d="M2552.747,1110.232c9.94-0.823,20.016-0.976,29.986-1.412c-2.065,16.269-4.157,32.443-7.207,48.566
		c-156.202,38.927-315.698,68.745-473.534,100.163l-277.84,57.981c6.68-19.541,10.688-39.085,7.362-59.754
		c-4.588-28.515-21.457-48.079-44.303-64.365c-13.28-7.834-27.507-14.065-42.82-16.45c-33.153-5.165-60.302,7.471-86.52,26.341
		c-0.99-9.287-1.471-18.668-2.147-27.984c47.071-0.296,94.491-4.465,141.46-7.491c92.469-5.588,184.825-12.646,277.07-21.176
		C2233.647,1131.738,2393.146,1120.266,2552.747,1110.232z"/>
	<path style="fill:#FEFEFD;" d="M1040.558,2201.542c141.053-1.975,283.234-2.464,424.292,0.141
		c24.246,48.158,43.875,98.854,65.338,148.292c-43.398,1.688-87.317,0.398-130.773,0.469l-492.915,0.542
		c26.288-47.815,47.616-99.085,70.239-148.72C998.016,2202.238,1019.289,2201.997,1040.558,2201.542z"/>
	<path style="fill:#FEFEFD;" d="M1950.292,1318.53c3.31-0.574,6.524-0.618,9.873-0.73c0.8,0.97,1.998,1.72,2.4,2.912
		c3.51,10.43,4.137,67.752,5.065,83.3l14.924,236.435c-83.095,23.417-167.824,41.534-251.578,62.502l-23.3,4.971
		c-6.132-32.968-10.16-70.553-7.972-103.995c1.986-30.346,10.682-62.194,17.039-92.01c9.615-44.652,18.801-89.394,27.557-134.224
		c34.198-7.632,42.275-21.741,70.339-31.105C1856.213,1332.719,1906.783,1326.901,1950.292,1318.53z"/>
	<path style="fill:#FEFEFD;" d="M2404.01,1611.215c2.074,6.185,1.239,13.063,1.069,19.515
		c-102.065,51.709-205.843,99.22-309.217,148.19l-213.097,102.818c-138.349,65.367-287.411,134.159-416.288,216.63
		c-54.299-3.384-109.477-2.446-163.884-2.569l-316.697,0.307c-33.237-0.275-111.829,3.211-139.198-3.624
		c-23.895-5.965-51.085-27.445-72.202-40.266l-22.778-12.36l-0.146-82.635c38.435,8.76,85.225,23.109,123.686,26.637
		c25.286,2.32,52.471-0.407,77.938-0.595l156.964-0.425l151.108,0.082c28.128,0.111,60.943,3.357,88.392-1.761
		c19.828-3.697,39.847-11.156,59.127-17.238c50.61-15.97,100.38-34.339,150.771-50.974c74.285-24.527,147.363-52.046,221.092-78.123
		c126.508-44.106,252.785-88.86,378.832-134.265c48.936-17.744,97.764-35.78,146.484-54.109
		C2338.455,1634.228,2370.649,1620.886,2404.01,1611.215z"/>
	<path style="fill:#070707;" d="M1414.249,1984.141c7.526-0.949,14.613-0.873,21.794,1.881
		c11.408,4.374,20.355,11.013,24.902,22.784c5.695,14.745,5.095,32.452-1.588,46.764c-5.693,12.193-16.096,24.053-29.233,28.125
		c-7.222,2.238-14.59,1.444-21.079-2.452c-15.677-9.41-22.506-28.374-27.012-44.988l-462.147,0.463
		c-0.582,3.332-1.275,6.642-2.08,9.929c-4.658,18.557-14.669,29.895-30.891,39.557c-7.26,1.84-14.783,2.153-21.935-0.34
		c-11.537-4.028-19.184-12.056-24.319-22.939c-7.266-15.398-6.744-33.923-0.434-49.521c4.365-10.787,12.029-20.909,23.215-25.16
		c9.832-3.738,21.393-1.983,30.712,2.511c15.085,7.274,21.325,22.822,26.865,37.503l233.315-0.026
		c76.137,0.582,152.267,0.12,228.39-1.386C1389.06,2006.967,1396.029,1995.134,1414.249,1984.141z"/>
	<path style="fill:#FEFEFD;" d="M1419.851,1997.621c2.974,0.158,6.003,0.331,8.927,0.932c8.637,1.772,16.623,8.016,21.003,15.586
		c5.265,9.097,5.464,19.872,2.496,29.739c-3.867,12.855-12.111,19.242-23.25,25.427c-3.02-0.173-6.146-0.34-9.1-1.025
		c-8.25-1.919-16.35-8.593-20.455-15.882c-5.042-8.956-5.566-20.317-2.382-29.985
		C1401.051,2010.391,1408.697,2003.011,1419.851,1997.621z"/>
	<path style="fill:#FEFEFD;" d="M873.918,1995.45c11.564,3.516,20.883,9.885,26.842,20.64c0.697,1.232,1.328,2.498,1.893,3.797
		c0.565,1.299,1.059,2.623,1.482,3.973c0.426,1.351,0.778,2.721,1.058,4.107c0.281,1.389,0.488,2.787,0.621,4.195
		c0.133,1.41,0.192,2.823,0.176,4.239c-0.016,1.416-0.105,2.827-0.27,4.233c-0.164,1.406-0.401,2.8-0.712,4.181
		c-0.31,1.381-0.693,2.742-1.148,4.084c-4.175,12.12-12.205,19.55-23.238,25.239c-1.934-0.126-3.864-0.246-5.789-0.492
		c-1.106-0.148-2.199-0.354-3.281-0.618c-1.084-0.264-2.151-0.584-3.199-0.961c-1.049-0.377-2.075-0.808-3.079-1.292
		c-1.004-0.484-1.979-1.02-2.927-1.608c-0.947-0.588-1.86-1.225-2.739-1.91c-0.881-0.684-1.722-1.412-2.522-2.186
		c-0.803-0.773-1.563-1.588-2.279-2.443c-0.717-0.853-1.387-1.742-2.01-2.666c-5.912-8.646-6.592-20.315-4.503-30.308
		C851.719,2013.248,860.344,2004.095,873.918,1995.45z"/>
	<path style="fill:#FEFEFD;" d="M2398.209,1704.661c0.337,0.46,0.747,0.876,1.014,1.383c4.412,8.423-0.179,78.428-4.055,88.647
		c-7.731,20.393-23.493,41.396-35.104,59.83c-18.671,29.649-36.914,59.247-54.448,89.572
		c-45.964,79.503-80.751,161.991-112.295,248.098c-39.61-0.545-123.862-8.297-157.875,8.704
		c-45.92,22.951-63.648,102.513-78.533,148.304c-30.105,0.533-285.765,3.51-294.22-0.741c-5.084-57.109-9.567-114.266-13.45-171.469
		c38.068-31.084,79.755-58.336,120.815-85.286c59.117-38.9,118.881-76.783,179.291-113.649
		C2097.966,1885.272,2247.586,1794.141,2398.209,1704.661z"/>
	<path style="fill:#FEFEFD;" d="M2651.05,1964.366c3.311-0.044,6.779-0.1,10.043,0.522c12.753,2.42,24.586,15.205,31.925,25.219
		c37.037,50.531,54.773,117.431,68.502,177.495c44.657,195.343,53.54,441.583,22.52,639.106
		c-10.79,68.719-47.848,255.991-107.177,294.897c-5.707,3.75-7.438,3.808-13.746,2.607c-4.696,2.197-7.731,3.164-12.814,1.436
		c-17.479-5.947-29.423-28.535-37.222-43.858c-23.868-46.963-63.132-156.466-68.186-208.966
		c-4.957-51.46-1.389-105.094-6.448-157.904c-5.455-56.927-17.314-113.481-22.131-170.315
		c-10.731-126.656,8.531-313.571,48.111-434.215C2579.841,2043.415,2605.019,1987.721,2651.05,1964.366z"/>
	<path style="fill:#070707;" d="M2676.576,2199.054c14.338-0.896,25.471,3.114,36.387,12.355
		c52.518,44.449,70.351,170.578,76.011,236.64c7.778,90.815,1.453,326.244-59.288,396.771
		c-9.932,11.531-21.396,18.217-36.841,19.371c-6.041-0.73-11.66-2.156-17.206-4.711c-35.859-16.509-56.127-70.664-68.142-105.984
		c-44.2-129.932-53.663-367.459,9.378-493.313C2630.689,2232.6,2646.298,2209.115,2676.576,2199.054z"/>
	<path style="fill:#FEFEFD;" d="M2666.138,2216.308c1.781,0.003,3.551,0.029,5.326,0.161c14.941,1.125,26.338,8.537,35.657,19.796
		c14.78,17.857,22.301,41.438,28.942,63.302c32.256,106.169,36.574,228.533,25.266,338.444
		c-4.74,46.069-20.704,171.363-59.81,200.915c-4.957,3.747-10.834,5.883-17.057,4.483c-11.651-2.628-21.167-15.952-27.393-25.362
		c-64.743-97.878-71.183-343.304-48.311-457.219c5.092-25.357,12.978-64.345,36.606-78.914c6.249-3.853,13.731-5.406,20.854-3.205
		c13.389,4.134,20.88,17.417,27.138,28.905c34.567,76.995,32.279,249.612,24.173,334.011c-2.851,29.666-14.2,127.813-38.86,146.086
		c-3.217,2.385-6.972,3.325-10.922,2.599c-11.64-2.144-22.025-18.855-28.696-27.943l-0.343,1.972
		c3.914,10.743,8.795,18.369,17.156,26.259c5.819,5.49,13.281,10.102,21.595,9.413c9.138-0.759,16.641-7.772,22.345-14.411
		c53.827-62.654,54.234-244.23,48.062-323.121c-4.104-52.427-17.848-158.815-60.642-193.304c-7.017-5.655-15.328-8.874-24.41-7.544
		c-18.747,2.748-30.665,19.969-40.682,34.21c3.955-14.391,7.23-29.473,12.29-43.488
		C2640.571,2235.324,2649.679,2224.247,2666.138,2216.308z"/>
	<path style="fill:#070707;" d="M2657.782,2319.134c10.447,8.698,18.554,26.098,24.404,38.294
		c45.375,94.567,43.146,252.478,8.499,350.414c-4.345,10.802-10.5,20.88-16.219,31.005c10.843-47.112,2.692-158.159,1.31-211.688
		c-1.421-54.92,0.094-112.635-6.639-167.01C2667.275,2345.085,2663.812,2333.064,2657.782,2319.134z"/>
	<path style="fill:#FEFEFD;" d="M1569.499,1192.768c0.357,0.308,0.779,0.551,1.072,0.92c5.947,7.45,39.513,462.613,41.224,507.056
		c-38.854,8.317-77.546,20.918-115.913,31.406c-44.962,12.293-90.987,22.916-134.977,38.271
		c-3.431-29.804-1.441-61.913-1.412-91.948l0.114-165.689c-0.009-28.389,1.298-57.516-0.466-85.825
		c-0.958-15.393-3.246-27.961-15.809-38.458c-4.758-3.973-10.113-6.709-16.219-7.828c-22.96-4.207-49.69-0.984-73.063-0.492
		c-32.312,0.683-64.526,0.489-96.8,2.616c-5.185,3.258-11.027,7.438-14.971,12.176c-5.801,6.964-6.999,15.34-7.623,24.062
		c-3.756,52.233,0.041,107.824-0.615,160.524l-1.005,147.788c-0.059,24.56-2.109,51.05,1.096,75.276
		c0.741,5.61,1.52,11.988,6.642,15.278c13.066,8.394,45.018,3.577,60.647,3.642c38.033,0.161,103.852,4.43,138.829-0.653
		c14.76-2.142,30.416-10.819,45.399-14.704c45.307-11.66,90.467-23.865,135.481-36.615c30.472-8.733,60.829-18.768,91.717-25.887
		c1.025,32.288,4.014,64.594,6.387,96.809c-63.674,26.596-132.088,46.432-197.367,68.997c-28.377,9.809-66.533,28.298-95.341,32.519
		c-31.649,4.638-67.189,1.078-99.302,1.43c-99.07,1.087-198.797-1.957-297.736,1.816c-11.733-7.069-22.831-15.688-34.031-23.593
		c-39.422-26.048-79.494-53.66-116.707-82.773c-1.298-18.176-1.758-36.398-3.17-54.589c41.235,10.427,82.198,27.548,123.7,35.464
		c23.76,4.529,185.956,4.216,212.572-0.226c2.309-1.386,4.037-2.502,5.461-4.863c4.547-7.544,5.537-18.337,5.962-26.994
		c1.245-25.333-0.111-51.22-0.378-76.594c-0.238-37.27-0.288-74.539-0.15-111.809l-0.056-114.182
		c-0.023-23.874,2.101-50.329-2.566-73.761c-2.08-10.447-5.994-17.836-15.311-23.569c-5.645-3.472-12.375-5.247-18.932-5.889
		c-14.502-1.424-30.17,0.519-44.798,0.577c-38.326,0.152-81.243-3.832-118.86,3.85c-2.994,2.186-5.824,4.566-8.49,7.14
		c-6.753,6.437-10.125,13.061-11.584,22.236c-5.297,33.258-1.359,73.94-1.435,108.044c0.252,85.617,0.056,171.234-0.589,256.852
		c-42.57-15.057-85.224-29.871-127.96-44.443c-2.505-59.848,1.099-121.442,2.519-181.389c1.941-97.621,4.733-195.217,8.376-292.787
		c36.63,21.662,152.177,105.319,183.803,113.03c25.28,6.164,107.282,0.313,138.425-0.22l103.652-1.497
		c22.582-0.243,48.293,1.641,70.318-3.182c27.642-6.05,110.365-65.426,139.178-83.573L1569.499,1192.768z"/>
	<path style="fill:#FEFEFD;" d="M2340.679,2235.84c3.876-0.437,7.96-0.891,11.848-0.311c16.673,2.49,32.757,22.731,41.763,35.502
		c128.977,182.901,147.911,582.616,110.048,797.76c-16.766,95.274-41.329,203.174-98.52,283.301
		c-7.518,10.517-17.095,24.316-28.318,31.201c-5.54,3.428-7.392,2.988-13.236,1.436c-2.323,1.113-3.861,1.641-6.501,1.494
		c-16.022-0.762-36.12-27.51-44.493-39.199c-112.169-156.328-139.673-456.173-128.598-645.54
		c2.373-40.57,8.01-80.142,14.733-120.161C2215.514,2485.435,2258.48,2294.375,2340.679,2235.84z"/>
	<path style="fill:#070707;" d="M2367.181,2445.137c10.778,0.217,21.114,2.355,30.838,7.084
		c40.383,19.641,62.405,71.265,75.92,111.656c47.751,142.711,54.296,411.633-14.681,547.747
		c-11.646,22.998-31.752,55.459-58.409,63.076c-6.715,1.904-10.986,1.816-17.039-1.289c-0.521,0.146-1.031,0.352-1.562,0.469
		c-9.047,2.168-19.058-2.754-26.502-7.676c-61.155-40.4-88.069-148.711-101.763-215.859c-25.74-126.24-30.838-345.44,44.021-457.029
		C2315.601,2467.086,2335.965,2451.143,2367.181,2445.137z"/>
	<path style="fill:#FEFEFD;" d="M2357.899,2458.807c8.631-0.803,17.44-0.867,25.491,2.71c30.176,13.406,47.941,49.623,58.852,78.765
		c54.065,144.416,58.187,421.84-7.424,563.374c-8.637,18.603-25.433,47.373-46.184,54.316c-5.672,1.904-9.29,1.172-14.604-1.289
		c-3.718,1.612-7.187,0.85-10.89-0.469c-28.626-10.137-46.878-47.197-59.042-72.832c-64.09-135.088-76.263-373.658-25.685-515.116
		C2293.871,2525.029,2314.309,2479.517,2357.899,2458.807z"/>
	<path style="fill:#070707;" d="M2383.452,2542.198c4.749-0.375,9.19-0.393,13.617,1.667c25.699,11.944,38.757,50.165,46.887,75.179
		c38.88,119.604,44.071,312.698-14.78,426.75c-4.459,8.643-11.602,21.299-21.258,24.434c-1.623,1.992-3.457,4.072-5.607,5.508
		c-3.492,2.314-8.927,4.571-13.195,3.721c-6.949-1.406-12.331-8.086-16.119-13.623c-55.863-81.768-58.043-319.251-40.538-416.646
		C2339.211,2611.619,2350.634,2564.92,2383.452,2542.198z"/>
	<path style="fill:#FEFEFD;" d="M2383.54,2547.228c0.615,0.079,1.236,0.111,1.846,0.231c7.708,1.518,12.328,6.85,16.477,13.192
		c43.122,65.956,40.758,346.41,24.059,426.724c-4.046,19.482-13.359,68.174-29.871,79.073c-2.836,3.545-3.012,3.838-7.342,5.098
		c-3.771-1.055-6.097-2.051-8.883-4.922c-42.161-43.242-19.474-208.245-20.701-269.754c-0.976-48.87-7.975-97.594-8.112-146.426
		C2350.903,2612.363,2355.661,2575.341,2383.54,2547.228z"/>
	<path style="fill:#FEFEFD;" d="M1529.764,858.103c3.398-0.22,6.87-0.126,10.28-0.173c0.996,0.864,2.297,1.471,2.988,2.593
		c5.025,8.142,24.677,285.63,27.791,318.739c-27.355,12.706-52.896,31.532-78.393,47.61l-129.888,81.753
		c-23.212,14.871-59.048,43.116-85.069,49.351c-19.723,4.723-291.706,8.865-307.623,4.729
		c-30.422-7.907-62.441-34.664-88.711-51.817c-32.971-19.752-65.186-40.84-97.755-61.248c5.619-125.526,7.585-251.265,12.864-376.82
		c88.837-5.297,178.236-5.385,267.211-6.668C1218.818,863.907,1374.467,862.738,1529.764,858.103z"/>
</g>
</svg>
