<?xml version="1.0" encoding="utf-8"?>
<!-- Generator: Adobe Illustrator 27.5.0, SVG Export Plug-In . SVG Version: 6.00 Build 0)  -->
<svg version="1.1" id="Layer_1" xmlns="http://www.w3.org/2000/svg" xmlns:xlink="http://www.w3.org/1999/xlink" x="0px" y="0px"
	 viewBox="0 0 612 612" style="enable-background:new 0 0 612 612;" xml:space="preserve">
<g>
	<path d="M460.62,393.081c4.956-6.063,9.118-12.535,12.826-19.304c11.266-20.565,17.164-42.5,16.583-66.033
		c-0.112-4.533-0.668-9.054-0.97-13.584c-0.051-0.762-0.431-1.783,0.459-2.23c1.016-0.51,1.689,0.433,2.294,1.039
		c6.997,7.017,10.991,15.685,13.661,25.065c1.499,5.267,1.976,10.686,2.207,16.553c2.901-2.923,4.178-6.608,7.123-9.736
		c2.449,12.267-1.689,22.811-6.07,33.764c2.787-1.063,4.875-2.869,7.438-3.527c0.593,0.912,0.117,1.665-0.096,2.417
		c-5.924,20.987-17.365,38.608-32.825,53.767c-5.134,5.034-10.628,9.646-16.606,13.648c-1.375,0.92-1.888,1.933-1.83,3.58
		c0.496,14.242-0.864,28.302-4.519,42.093c-0.554,2.092,0.279,2.143,1.905,2.204c7.207,0.269,14.239,1.42,20.984,4.159
		c4.39,1.783,7.013,4.616,7.878,9.487c1.581,8.898,2.572,17.773,1.634,26.811c-0.605,5.82-3.871,9.37-9.148,11.414
		c-7.384,2.86-15.125,3.874-22.938,4.174c-15.849,0.608-31.365-1.189-46.133-7.402c-1.716-0.722-2.132-0.382-2.225,1.432
		c-0.106,2.069-0.534,4.137-0.98,6.171c-1.317,6.015-4.892,10.052-10.832,11.8c-20.512,6.038-41.149,6.326-61.847,1.065
		c-7.697-1.956-12.312-6.716-12.531-15.008c-0.039-1.492-0.48-1.9-1.984-1.371c-8.365,2.942-16.674,1.89-24.845-0.763
		c-3.114-1.011-5.974-1.086-9.226-0.518c-16.589,2.896-33.183,3.301-49.746-0.553c-14.01-3.259-18.686-12.248-16.914-26.779
		c0.419-3.437,1.699-6.66,3.606-10.179c-2.691,0.798-4.324,2.273-5.803,3.956c-3.021,3.435-5.209,7.428-7.479,11.357
		c-4.998,8.651-9.835,17.409-16.444,24.99c-5.664,6.497-12.011,12.139-20.157,15.39c-2.365,0.944-4.8,1.683-7.356,1.899
		c-11.285,0.952-19.221-5.844-21.284-18.286c-1.561-9.414-0.111-18.643,1.916-27.812c2.89-13.072,7.025-25.796,12.6-37.918
		c4.723-10.268-0.484-21.627-10.165-25.804c-7.578-3.269-15.691-4.432-23.621-6.32c-10.789-2.569-21.533-5.28-31.199-10.983
		c-5.833-3.441-11.197-7.507-14.698-13.49c-5.923-10.121-3.036-22.26,6.982-29.623c7.561-5.558,16.29-7.312,25.421-7.605
		c9.701-0.312,19.13,1.724,28.593,3.456c5.808,1.063,11.645,1.939,17.572,1.883c1.442-0.013,2.907-0.151,4.319-0.44
		c3.885-0.797,4.89-2.045,4.713-5.986c-0.393-8.724-2.155-17.289-3.135-25.947c-1.913-16.907-0.523-33.35,6.382-49.104
		c3.541-8.079,9.362-13.657,17.647-16.759c5.063-1.896,9.586-1.295,13.744,2.183c4.093,3.423,7.223,7.66,10.112,12.072
		c9.648,14.735,16.625,30.81,23.427,46.972c2.041,4.849,3.848,9.808,6.415,14.423c2.262,4.067,5.433,7.004,10.088,8.096
		c0.811,0.19,1.799,0.563,1.787-0.765c-0.055-5.952,0.568-11.863,1.344-18.396c-1.892,1.719-3.232,3.037-4.684,4.215
		c-0.811,0.658-1.743,1.541-2.92,0.904c-1.183-0.639-1.32-1.881-1.312-3.092c0.015-2.27,0.975-4.223,2.156-6.076
		c1.413-2.217,2.876-4.403,4.067-6.894c-0.573,0.462-1.135,0.94-1.722,1.383c-1.221,0.922-2.587,1.59-3.995,0.606
		c-1.541-1.077-1.308-2.68-0.712-4.192c1.046-2.654,2.819-4.859,4.545-7.082c3.118-4.016,6.468-7.847,9.37-12.038
		c0.969-1.399,1.48-2.305,0.036-3.87c-2.035-2.206-1.636-5.115-1.022-7.794c0.484-2.11,1.27-4.164,2.071-6.183
		c0.497-1.253,0.483-1.85-1.014-2.344c-6.688-2.208-12.913-5.24-17.618-11.004c-0.186,0.977,0.437,1.349,0.659,1.886
		c0.327,0.791,1.727,1.331,1.064,2.254c-0.707,0.985-2.015,0.545-3.047,0.276c-5.642-1.472-8.975-5.551-11.592-10.408
		c-0.42-0.779-0.773-1.594-1.295-2.677c-0.796,1.653-1.492,2.998-2.097,4.383c-0.708,1.623-1.677,1.621-2.971,0.674
		c-2.6-1.902-3.828-4.543-4.167-7.649c-0.499-4.571,0.248-9.059,1.041-13.531c0.367-2.069,0.159-3.164-2.394-2.301
		c-2.319,0.783-4.733,1.304-6.84,2.607c-1.379,0.853-1.774,0.246-1.795-1.058c-0.036-2.273,0.85-4.249,2.048-6.107
		c3.139-4.869,7.551-8.338,12.589-10.983c1.959-1.028,2.413-2.15,2.114-4.284c-1.523-10.859-5.345-20.833-11.132-30.549
		c-0.746,1.707-1.292,3.097-1.947,4.432c-3.515,7.16-9.273,9.223-16.468,5.839c-6.08-2.86-10.59-7.577-14.664-12.756
		c-5.817-7.395-10.357-15.547-14.208-24.109c-1.105-2.456-2.149-4.958-3.851-7.423c-1.899,2.774-2.61,5.762-3.445,8.664
		c-0.557,1.933-1.296,1.817-2.575,0.701c-3.672-3.206-5.059-7.428-5.401-12.097c-0.267-3.641,0.312-7.22,0.97-10.906
		c-2.587,1.717-4.362,4.168-6.378,6.364c-0.919,1-1.66,2.163-2.555,3.188c-0.501,0.574-0.788,1.675-1.765,1.417
		c-0.907-0.239-0.858-1.326-1.044-2.074c-2.711-10.885,1.605-22.16,10.947-28.691c0.879-0.615,1.771-1.212,3.002-2.053
		c-1.766-0.351-3.156-0.618-4.541-0.906c-0.889-0.185-1.946-0.316-2.2-1.326c-0.283-1.122,0.641-1.83,1.397-2.452
		c1.705-1.403,3.724-2.26,5.774-2.999c8.107-2.922,16.238-5.779,24.345-8.701c2.796-1.008,5.532-2.17,8.326-3.952
		c-0.531-0.118-0.744-0.219-0.948-0.203c-1.488,0.121-3.424,1.05-4.215-0.644c-0.674-1.442,1.086-2.504,2.044-3.504
		c4.142-4.325,9.224-7.341,14.504-10.009c8.297-4.192,16.855-7.631,26.225-8.612c4.408-0.461,8.483,0.462,12.304,2.617
		c7.957,4.486,13.217,11.236,16.23,19.757c0.711,2.01,1.469,2.609,3.382,1.416c0.907-0.566,2.02-0.798,3.035-1.191
		c1.361-0.528,3.544-0.338,2.296-3.011c-0.3-0.643,0.549-1.496,1.13-2.066c0.709-0.696,1.466-1.361,2.285-1.919
		c0.728-0.495,1.569-0.825,2.548-1.324c-2.109-1.741-4.401-2.353-6.861-2.427c-1.541-0.047-1.7-0.701-0.996-1.878
		c1.818-3.041,4.561-4.592,8.026-4.931c3.178-0.312,6.301,0.027,10.034,1.463c-1.166-2.147-2.005-3.579-2.728-5.068
		c-0.413-0.851-1.281-1.782-0.483-2.746c0.663-0.8,1.694-0.402,2.579-0.252c5.855,0.997,10.373,4.136,13.954,8.759
		c0.498,0.643,0.943,1.326,1.558,2.195c1.155-2.088,2.17-4.072,3.324-5.971c1.286-2.117,2.996-3.866,5.043-5.284
		c1.394-0.967,2.087-0.778,2.157,1.052c0.095,2.465,0.734,4.825,1.516,7.164c0.643,1.921,1.613,2.743,3.801,2.363
		c3.537-0.615,7.043-0.116,10.468,1.005c2.008,0.657,3.576,1.354,1.02,3.757c5.987,0.958,11.581,1.957,17.016,3.628
		c1.533,0.471,1.71-0.426,1.832-1.474c0.294-2.534,0.861-5.006,1.598-7.443c5.118-16.909,14.342-24.363,31.901-25.252
		c10.132-0.513,20.122,0.735,29.792,3.988c4.855,1.633,9.508,3.646,13.001,7.605c0.632,0.716,1.432,0.664,2.22,0.808
		c8.502,1.555,17.02,0.695,25.531,0.136c3.102-0.204,6.177-0.328,9.149,0.757c0.869,0.317,2.239,0.327,2.162,1.633
		c-0.062,1.05-1.111,1.603-2.038,2.006c-0.829,0.36-1.706,0.61-2.561,0.912c-1.858,0.657-3.765,1.211-5.596,2.551
		c3.571,1.433,6.889,2.928,9.571,5.445c8.263,7.753,10.856,17.509,9.95,28.481c-0.168,2.038-1.027,1.463-2.005,0.57
		c-2.937-2.68-5.523-5.766-9.449-8.185c2.021,5.156,3.697,9.901,4.526,14.894c0.361,2.175,0.452,4.34,0.104,6.505
		c-0.104,0.648-0.052,1.582-0.952,1.771c-0.699,0.147-1.162-0.468-1.557-0.939c-1.45-1.731-2.854-3.501-4.621-5.684
		c-0.503,3.68-0.907,7.006-1.419,10.315c-1.407,9.095-3.453,18.008-7.675,26.284c-2.861,5.608-6.68,10.37-12.108,13.705
		c-7.449,4.577-15.219,3.593-21.263-2.693c-3.782-3.933-6.695-8.519-9.805-13.5c-2.5,5.485-3.928,10.879-5.153,16.317
		c-1.901,8.436-2.852,17-3.224,25.641c-0.083,1.932,0.58,2.908,2.266,3.784c5.739,2.981,11.138,6.494,15.747,11.098
		c1.88,1.878,3.442,3.986,4.383,6.502c0.283,0.756,0.73,1.614,0.157,2.319c-0.564,0.694-1.351,0.026-2.029-0.059
		c-1.055-0.132-2.098-0.364-3.642-0.643c2.954,3.333,4.851,6.684,5.568,10.629c0.515,2.834,0.43,5.605-0.729,8.279
		c-0.235,0.542-0.341,1.402-1.096,1.319c-0.386-0.042-0.769-0.692-1.038-1.136c-2.181-3.602-5.013-6.588-8.705-9.467
		c1.378,4.49,1.486,8.475-0.427,12.355c-0.912,1.85-2.172,3.346-4.041,4.268c-0.905,0.447-1.951,0.941-2.858,0.465
		c-1.119-0.587,0.391-1.651-0.419-2.693c-4.807,7.407-12.307,11.652-19.396,16.38c-1.214,0.81-0.785,1.534-0.422,2.513
		c1.22,3.296,2.866,6.498,2.1,10.234c-0.329,1.605,1.097,1.121,1.831,1.164c4.399,0.259,8.623,1.185,12.607,3.1
		c1.726,0.829,3.35,1.833,4.771,3.123c1.5,1.361,2.501,3.007,1.735,5.074c-0.728,1.965-2.38,2.91-4.414,3.15
		c-0.714,0.084-1.446,0.013-2.434,0.013c0.55,1.757,1.905,2.585,2.973,3.577c12.586,11.694,24.916,23.623,35.428,37.293
		c12.111,15.748,21.891,32.726,27.644,51.862C459.714,391.789,459.689,392.497,460.62,393.081z M408.555,436.325
		c0.113-0.042,0.226-0.084,0.339-0.126c-1.174-7.041-2.282-14.095-3.534-21.122c-2.915-16.362-5.232-32.805-6.741-49.356
		c-0.125-1.372-0.964-3.772,0.951-3.979c2.001-0.216,1.562,2.307,1.716,3.662c1.31,11.456,2.776,22.89,4.564,34.282
		c0.581,3.704,1.256,7.394,2.002,11.761c1.444-2.332,2.463-4.034,3.536-5.7c4.026-6.253,8.758-11.82,15.325-15.567
		c3.794-2.164,7.861-2.992,12.056-1.609c9.155,3.02,14.67,9.966,18.971,18.124c0.57,1.082,0.48,2.489-0.509,2.924
		c-1.151,0.506-1.457-1.036-1.902-1.802c-2.575-4.436-5.67-8.444-9.527-11.832c-7.439-6.534-14.047-6.66-21.689-0.393
		c-6.011,4.929-10.187,11.266-13.842,18.033c-1.11,2.055-1.333,3.969-0.943,6.231c1.017,5.901,1.849,11.835,2.682,17.767
		c0.195,1.39-0.011,2.808-1.599,3.398c-1.454,0.539-2.467-0.353-3.276-1.355c-1.08-1.337-2.025-2.784-3.028-4.183
		c0.073,1.085,0.301,2.065,0.737,2.942c1.375,2.761,2.836,5.479,4.248,8.222c0.532,1.032,0.761,2.096-0.223,2.995
		c-0.999,0.913-2.03,0.504-2.995-0.103c-0.806-0.507-1.575-1.075-2.661-1.823c0.277,1.226,0.414,2.115,0.679,2.963
		c2.19,6.998,3.025,14.173,3.028,21.489c0.003,8.996-0.236,17.984-0.582,26.971c-0.041,1.061-0.283,2.154,0.55,3.114
		c3.155,3.633,4.549,8.017,5.145,12.68c0.197,1.536,0.844,2.365,2.273,2.972c7.818,3.321,15.933,5.514,24.335,6.679
		c1.51,0.209,2.962,0.472,4.549-0.056c4.245-1.412,6.05-4.716,7.055-8.651c2.095-8.201,2.042-16.542,1.448-24.908
		c-0.148-2.082-0.28-4.166-0.355-6.251c-0.023-0.636,0.168-1.324,0.978-1.398c0.628-0.058,1.048,0.44,1.21,0.934
		c0.337,1.028,0.616,2.091,0.763,3.161c0.815,5.961,0.973,11.962,0.557,17.948c-0.497,7.141-1.003,14.343-6.724,20.127
		c4.386,0.251,8.367,0.42,12.321,0.004c6.207-0.653,10.39-3.827,12.088-10.059c2.646-9.713,3.014-19.324-0.868-28.826
		c-0.336-0.822-0.945-1.767,0.201-2.375c1.195-0.634,1.853,0.284,2.386,1.156c1.197,1.959,1.965,4.105,2.361,6.348
		c2.029,11.494,1.562,22.587-5.586,32.797c4.027-0.63,7.785-1.538,11.449-2.873c4.501-1.64,6.696-4.827,7.163-9.603
		c0.831-8.516-0.374-16.829-1.77-25.178c-0.6-3.586-2.552-5.605-5.73-6.887c-6.304-2.543-12.845-3.834-19.631-3.951
		c-12.302-0.211-24.191,1.991-35.785,6.023c-1.123,0.391-2.798,1.728-3.484-0.232c-0.616-1.761,1.329-2.035,2.505-2.584
		c0.656-0.306,1.348-0.54,2.036-0.768c8.04-2.663,16.26-4.587,24.709-5.169c2.957-0.204,4.254-1.276,4.925-4.112
		c1.613-6.816,2.843-13.68,3.536-20.644c1.733-17.401,1.013-34.683-3.26-51.668c-5.342-21.234-15.937-39.842-29.353-56.951
		c-0.406-0.518-0.694-1.322-1.683-1.207c-0.605,5.33-1.34,10.625-3.217,15.669c-0.699,1.879-1.501,3.895-3.846,4.158
		c-2.425,0.272-3.739-1.509-4.966-3.243c-0.312-0.442-0.579-0.928-0.795-1.425c-5.391-12.422-7.972-25.619-10.351-38.83
		c-0.465-2.581-1.637-3.628-3.648-4.839c-0.053,1.002-0.064,1.725-0.135,2.442c-0.358,3.607-0.295,7.276-1.472,10.765
		c-1.891,5.609-7.027,6.831-11.276,2.701c-1.389-1.351-2.358-2.989-3.135-4.744c-3.368-7.605-4.426-15.892-6.983-23.737
		c-0.189-0.581-0.338-1.329,0.411-1.679c0.811-0.378,1.484,0.076,1.817,0.749c0.68,1.376,1.363,2.778,1.798,4.243
		c1.629,5.477,3.116,10.997,4.747,16.474c0.701,2.355,1.687,4.624,3.443,6.425c2.624,2.691,5.254,2.119,6.277-1.462
		c1.153-4.035,1.589-8.172,1.425-12.389c-0.098-2.524-0.998-4.427-2.933-6.098c-3.503-3.024-6.845-6.238-10.206-9.423
		c-0.607-0.575-1.76-1.163-1.229-2.174c0.569-1.081,1.809-0.584,2.727-0.422c3.233,0.568,6.309,1.661,9.303,2.999
		c0.967,0.432,2.043,0.566,2.677-0.477c0.651-1.069-0.398-1.632-1.018-2.205c-0.593-0.548-1.291-1.006-2-1.401
		c-5.057-2.816-10.562-3.71-16.264-3.761c-0.767-0.007-1.405,0.22-2.005,0.683c-9.294,7.159-19.951,11.411-31.114,14.584
		c-0.874,0.249-1.703,0.528-2.314,1.31c-6.049,7.74-14.421,11.013-23.809,12.203c-2.372,0.301-4.192,1.394-5.854,3.061
		c2.329-0.215,4.59-0.667,6.847-1.141c1.055-0.222,2.347-0.819,3.046,0.197c0.803,1.167-0.399,2.16-1.004,3.118
		c-1.052,1.666-2.84,2.812-3.935,5.278c3.058-2.146,5.443-4.127,8.746-4.905c-0.085,0.888-0.125,1.592-0.224,2.289
		c-0.343,2.426-0.776,4.841-1.046,7.274c-0.359,3.241-0.308,3.243,2.769,2.717c1.789-0.306,3.571-0.682,5.372-0.873
		c5.379-0.57,10.802-0.904,15.494,2.45c1.883,1.346,2.342,0.722,3.207-0.99c4.474-8.856,9.664-17.273,16.086-24.869
		c0.921-1.089,2.218-3.077,3.642-1.888c1.386,1.158-0.521,2.542-1.355,3.579c-6.581,8.179-11.915,17.134-16.612,26.49
		c-0.344,0.686-0.938,1.327-0.508,2.269c3.976,8.714,0.986,16.466-3.395,23.995c-3.403,5.849-7.769,10.956-12.45,15.795
		c-1.216,1.258-1.81,2.575-1.839,4.335c-0.109,6.45-0.289,12.901,0.06,19.345c0.296,5.473,0.809,10.929,1.95,16.342
		c0.468-1.456,0.705-2.935,1.043-4.391c0.238-1.023,0.224-2.661,1.395-2.669c1.448-0.01,1.195,1.733,1.54,2.789
		c0.056,0.171,0.068,0.357,0.095,0.536c3.25,21.43,2.934,42.902,0.641,64.381c-0.566,5.3-1.504,10.561-2.3,16.04
		c2.636-0.84,5.076-1.755,7.587-2.396c12.998-3.317,26.089-2.797,39.193-0.745c1.721,0.27,2.823,0.442,3.135-1.92
		c2.257-17.104,5.969-33.955,9.002-50.926c0.137-0.766-0.025-1.816,0.803-2.21c1.011-0.481,0.984,1.285,2.036,1.226
		c-0.772-2.132-1.641-4.132-1.633-6.359c0.005-1.405,0.032-2.811,1.618-3.412c1.598-0.605,2.639,0.418,3.45,1.525
		C406.379,432.822,407.433,434.598,408.555,436.325z M270.568,283.907c-2.021-1.868-4.161-3.527-5.98-5.54
		c-1.9-2.102-3.496-4.406-4.706-6.974c-4.328-9.189-2.664-16.573,5.181-22.964c0.774-0.631,1.507-1.329,2.343-1.864
		c0.996-0.637,2.216-2.213,3.234-0.878c1.008,1.321-0.769,2.266-1.712,2.871c-1.993,1.278-1.918,2.654-0.979,4.555
		c3.673,7.442,9.289,12.701,17.134,15.45c2.734,0.958,5.606,1.52,8.349,2.459c6.037,2.067,11.244,0.624,15.881-3.495
		c1.765-1.567,3.474-3.198,5.234-4.77c1.392-1.243,2.709-1.284,3.957,0.28c0.62,0.777,1.334,1.491,2.075,2.157
		c5.015,4.504,9.997,5.44,15.228,2.852c2.928-1.448,5.869-2.878,8.738-4.438c7.846-4.267,13.926-10.089,16.577-18.946
		c1.278-4.269,1.352-4.239-2.286-6.815c-0.641-0.454-1.631-0.889-1.147-1.874c0.545-1.109,1.606-0.654,2.394-0.284
		c2.217,1.041,4.372,2.213,6.575,3.286c4.271,2.079,6.235,5.591,6.541,10.222c0.549,8.304-2.264,15.501-7.106,22.06
		c-0.494,0.67-1.28,1.203-1.358,2.533c9.597-5.028,18.683-10.281,26.37-17.607c3.796-3.618,5.257-8.386,5.842-13.464
		c0.144-1.254,0.221-2.515,0.37-4.266c3.186,3.511,4.152,7.146,4.27,11.157c0.377-0.399,0.598-0.774,0.722-1.179
		c1.318-4.318-0.403-7.997-2.436-11.62c-0.289-0.516-0.932-1.055-0.476-1.709c0.426-0.61,1.146-0.358,1.766-0.278
		c2.777,0.36,5.248,1.481,7.382,3.245c1.577,1.304,2.997,2.799,4.702,4.412c0.008-2.775-0.964-4.908-2.118-6.958
		c-2.252-4.003-6.138-6.059-9.924-8.238c-0.724-0.417-2.129-0.524-1.874-1.609c0.257-1.095,1.608-0.909,2.568-1.011
		c3.185-0.338,6.182,0.715,9.466,1.561c-0.903-1.704-2.103-2.693-3.207-3.744c-4.451-4.239-9.668-7.373-15.108-10.118
		c-1.726-0.871-2.301-1.886-2.279-3.774c0.182-15.779,2.996-31.039,8.77-45.737c0.401-1.022,0.758-1.896,0.109-3.056
		c-5.009-8.945-9.463-18.239-16.293-26.035c-13.687-15.623-29.846-27.266-50.705-31.239c-2.094-0.399-4.189-1-6.626-0.752
		c2.199,3.622,3.545,7.318,4.123,11.321c1.081,7.485-0.04,14.871-0.971,22.244c-1.456,11.535-4.927,22.696-6.501,34.225
		c-1.94,14.212-0.293,27.86,5.67,40.964c1.913,4.204,4.821,6.381,9.618,6.668c7.062,0.423,14.067,1.562,20.871,3.648
		c1.65,0.506,3.293,1.063,4.664,2.161c0.585,0.469,1.057,1.129,0.678,1.898c-0.439,0.891-1.218,0.59-1.881,0.26
		c-7.333-3.64-15.354-4.425-23.281-5.022c-7.141-0.538-11.395-3.834-14.155-10.299c-6.129-14.352-7.142-29.096-4.558-44.311
		c1.93-11.362,5.43-22.417,6.57-33.927c0.706-7.131,1.747-14.274-0.183-21.384c-1.357-5.002-2.911-9.805-9.627-9.251
		c-0.519,0.043-1.177-0.06-1.333-0.698c-0.149-0.607,0.409-0.944,0.768-1.344c0.795-0.884,2.117-1.247,2.815-2.567
		c-2.828-0.438-5.382-0.505-7.842,0.119c-1.941,0.493-2.868-0.113-3.472-1.892c-0.778-2.288-1.702-4.526-2.625-6.948
		c-3.978,3.838-4.749,9.104-6.747,14.183c-2.432-3.001-3.317-6.455-5.568-9.056c-2.537-2.929-5.499-4.94-8.416-5.441
		c2.223,3.182,4.315,6.323,5.108,10.744c-2.454-1.34-4.388-2.435-6.358-3.46c-2.026-1.055-4.177-1.806-6.446-2.079
		c-2.176-0.261-4.365-0.318-6.568,1.141c5.033,2.291,9.295,4.923,11.774,10.391c-3.553-0.635-6.432-1.71-9.846-1.181
		c1.045,0.637,1.752,1.033,2.421,1.485c0.87,0.589,1.156,1.173-0.08,1.709c-6.793,2.951-7.766,8.831-7.308,15.176
		c0.48,6.645,3.287,12.598,6.289,18.431c4.451,8.648,9.913,16.707,14.689,25.166c3.351,5.936,6.659,11.913,8.01,18.691
		c1.978,9.924,1.012,19.879,0.302,29.855c-0.478,6.72-3.605,10.635-10.033,12.863c-6.821,2.364-13.688,4.937-19.385,9.69
		c-0.54,0.45-1.121,0.632-1.679,0.032c-0.612-0.658-0.432-1.35,0.031-1.98c0.994-1.354,2.426-2.167,3.834-2.995
		c5.814-3.415,12.065-5.902,18.32-8.325c3.63-1.406,5.251-3.933,5.62-7.569c0.32-3.161,0.662-6.321,0.928-9.486
		c1.195-14.205-0.847-27.598-8.793-39.901c-5.657-8.759-11.038-17.729-15.666-27.106c-2.703-5.476-4.859-11.116-5.589-17.263
		c-0.462-3.891,0.629-7.495,1.653-11.366c-0.6,0.135-0.942,0.172-1.254,0.289c-0.764,0.285-1.535,0.563-2.266,0.921
		c-16.533,8.097-27.686,21.357-35.844,37.468c-0.353,0.696-0.447,1.562-0.509,2.361c-1.042,13.327-3.036,26.511-6.106,39.518
		c-0.462,1.956-0.145,3.385,0.874,5.054c6.466,10.604,10.585,22.034,11.939,34.441c0.221,2.024-0.41,2.949-2.165,3.72
		c-2.832,1.246-5.435,2.937-7.783,4.966c-2.063,1.783-4.173,3.555-5.47,6.503c2.55-0.721,4.737-1.265,7.007-1.414
		c2.133-0.14,3.173,0.349,2.84,2.884c-0.624,4.764-1.712,9.483-1.694,14.319c0.008,2.164,0.229,4.297,1.928,6.186
		c2.024-3.254,2.992-6.892,5.465-10.421c1.47,6.93,3.128,13.2,8.858,17.624c-2.295-7.923-2.223-10.215,0.571-13.231
		c2.413,6.056,5.257,11.684,10.512,15.685C258.043,280.868,264.082,282.846,270.568,283.907z M291.955,509.671
		c8.159,5.13,16.091,10.618,25.657,12.803c1.141,0.26,2.328,0.427,3.495,0.439c3.654,0.038,4.891-1.021,5.475-4.585
		c0.766-4.68,1.498-9.5,4.287-13.371c2.085-2.894,1.559-5.075,0.201-7.864c-6.311-12.961-14.495-24.731-22.741-36.479
		c-4.847-6.906-9.915-13.693-13.609-21.33c-4.277-8.841-3.078-17.079,3.036-24.674c3.141-3.901,6.699-7.404,10.311-10.86
		c10.039-9.605,20.465-18.815,29.808-29.13c5.268-5.816,10.066-11.992,12.709-19.499c4.51-12.809-2.164-21.034-15.583-19.29
		c-13.942,1.811-27.347,5.733-40.393,10.824c-10.14,3.957-20.057,8.484-30.169,12.517c-8.237,3.285-15.376,0.906-20.431-6.407
		c-1.921-2.78-3.271-5.865-4.564-8.965c-4.822-11.561-9.618-23.133-15.206-34.354c-4.214-8.461-8.67-16.784-14.372-24.365
		c-2.133-2.835-4.392-5.56-7.357-7.603c-3.084-2.125-6.203-2.397-9.777-1.015c-7.866,3.044-13.098,8.539-16.292,16.222
		c-5.898,14.185-7.363,28.954-5.753,44.09c0.96,9.025,2.292,18.01,3.317,27.03c0.776,6.826-2.115,10.284-8.961,10.949
		c-1.892,0.184-3.809,0.167-5.714,0.153c-5.745-0.043-11.388-1.001-17.004-2.08c-9.817-1.887-19.63-3.73-29.709-2.987
		c-7.653,0.564-14.884,2.401-21.06,7.214c-9.926,7.734-10.987,19.753-2.582,29.083c3.252,3.61,7.147,6.428,11.374,8.792
		c8,4.475,16.678,7.086,25.513,9.254c8.804,2.161,17.787,3.572,26.367,6.664c12.932,4.66,19.082,18.605,13.624,30.602
		c-6.883,15.128-11.97,30.984-14.251,47.583c-0.985,7.167-1.265,14.313,1.187,21.277c2.965,8.417,9.31,12.118,18.067,10.65
		c3.82-0.641,7.286-2.18,10.567-4.176c5.895-3.586,10.699-8.362,15.058-13.661c6.598-8.02,11.081-17.215,15.147-26.668
		c2.367-5.502,4.781-10.983,8.074-16.032c3.385-5.19,8.067-7.014,14.068-5.853c3.136,0.606,6.131,1.598,9.07,2.838
		c7.613,3.212,14.068,8.271,20.737,12.974c8.025,5.659,16.066,11.247,25.401,14.632c3.881,1.407,7.825,2.353,11.964,2.249
		c8.028-0.203,11.428-4.556,9.418-12.349c-2.374-9.206-7.319-17.129-12.872-24.706c-0.059-0.08-0.321-0.01-0.587-0.01
		c-0.048,0.899-0.069,1.796-0.147,2.688c-0.38,4.363-1.072,8.67-3.016,12.643c-2.688,5.493-6.968,7.091-12.653,4.84
		c-2.904-1.15-5.444-2.909-7.816-4.898c-8.281-6.943-16.479-13.987-24.816-20.862c-6.021-4.966-12.046-9.971-19.015-13.609
		c-5.622-2.935-8.281-2.285-12.119,2.79c-3.032,4.01-5.29,8.473-7.281,13.058c-5.242,12.071-10.34,24.206-15.623,36.259
		c-2.592,5.912-5.583,11.63-9.906,16.526c-2.887,3.269-6.293,5.765-10.56,6.894c-7.173,1.898-13.421-2.063-14.825-9.324
		c-0.654-3.384-0.156-6.723,0.531-10.002c2.942-14.031,6.651-27.894,9.233-42.006c1.717-9.382,3.415-18.772,3.487-28.344
		c0.059-7.809-3.251-12.132-10.71-14.424c-1.04-0.319-2.1-0.576-3.159-0.827c-7.767-1.839-15.663-3.123-23.323-5.419
		c-10.691-3.205-21.451-6.238-31.126-12.063c-3.138-1.889-6.001-4.094-8.005-7.247c-3.017-4.747-2.49-9.934,1.436-13.938
		c2.739-2.793,6.199-3.992,9.971-4.526c5.995-0.849,11.963-0.223,17.931,0.308c14.116,1.256,27.998,4.17,42.039,5.968
		c8.85,1.133,15.336-3.468,16.945-12.225c0.343-1.867,0.544-3.78,0.597-5.677c0.335-11.923-0.944-23.761-1.912-35.618
		c-0.731-8.954-2.201-17.859-1.902-26.882c0.146-4.411,0.974-8.668,3.43-12.447c3.198-4.922,7.798-6.071,12.941-3.249
		c2.271,1.246,4.045,3.058,5.602,5.097c2.779,3.639,4.832,7.681,6.473,11.931c6.805,17.623,12.276,35.695,18.02,53.676
		c2.208,6.913,3.885,14.007,6.774,20.688c2.138,4.945,5.923,6.802,11.223,5.794c1.883-0.358,3.684-0.956,5.443-1.704
		c7.219-3.071,13.696-7.464,20.389-11.47c8.886-5.319,17.837-10.499,27.636-14.016c4.053-1.455,8.179-2.447,12.527-2.022
		c4.609,0.45,6.67,3.127,5.73,7.638c-0.386,1.851-1.043,3.669-1.768,5.422c-2.548,6.159-6.75,11.166-11.372,15.832
		c-6.147,6.205-12.951,11.667-19.725,17.159c-3.811,3.09-7.644,6.159-10.78,9.974c-4.109,5-5.035,10.502-2.623,16.56
		c1.488,3.738,3.479,7.192,5.747,10.489c4.643,6.747,9.974,12.951,15.347,19.109c5.328,6.105,10.34,12.438,14.358,19.489
		c3.29,5.773,6.272,11.72,7.243,18.393c1.091,7.497-2.885,12.491-10.376,13.466C299.56,510.586,295.814,509.947,291.955,509.671z
		 M188.018,356.352c0.334,5.653,0.255,9.545-0.097,13.448c-1.164,12.931-9.427,19.67-22.186,17.868
		c-7.276-1.028-14.523-2.255-21.786-3.38c-11.037-1.71-22.082-3.347-33.305-3.011c-2.653,0.08-5.246,0.425-7.677,1.568
		c-6.242,2.935-7.501,8.804-3.005,14.017c2.733,3.169,6.277,5.186,9.976,6.966c11.27,5.424,23.198,8.853,35.332,11.669
		c6.095,1.414,12.312,2.338,18.262,4.33c7.901,2.645,11.644,7.729,11.904,16.007c0.106,3.36-0.049,6.716-0.439,10.062
		c-1.825,15.626-5.127,30.968-8.773,46.249c-1.683,7.055-3.897,14.028-4.2,21.335c-0.37,8.922,6.496,13.076,14.365,8.848
		c4.487-2.411,7.526-6.213,10.081-10.461c4.414-7.339,7.58-15.274,10.899-23.131c4.096-9.697,7.951-19.501,12.716-28.9
		c2.138-4.218,4.438-8.355,8.226-11.397c2.933-2.355,6.076-2.983,9.654-1.478c3.714,1.562,7.092,3.654,10.325,6.015
		c10.424,7.612,20.277,15.926,29.997,24.406c3.762,3.282,7.46,6.661,11.825,9.16c5.91,3.384,9.814,1.877,11.872-4.62
		c1.439-4.542,1.814-9.238,1.873-13.984c0.022-1.739-0.404-3.093-1.586-4.416c-3.268-3.655-6.434-7.403-9.574-11.17
		c-5.299-6.359-10.289-12.936-13.78-20.515c-3.845-8.346-2.682-15.89,3.671-22.568c1.25-1.314,2.547-2.597,3.924-3.774
		c7.178-6.136,14.507-12.1,21.553-18.383c6.321-5.635,12.187-11.702,15.272-19.899c2.571-6.831,1.021-8.273-6.413-7.493
		c-0.179,0.019-0.353,0.085-0.532,0.114c-5.904,0.947-11.262,3.39-16.565,6.002c-10.603,5.223-20.441,11.781-30.708,17.59
		c-4.043,2.287-8.141,4.417-12.764,5.29c-6.744,1.273-11.82-1.239-14.69-7.422c-1.028-2.214-1.882-4.528-2.603-6.863
		c-6.103-19.769-12.261-39.52-19.067-59.061c-2.148-6.168-4.255-12.37-7.909-17.88c-1.729-2.606-3.769-4.909-6.541-6.429
		c-3.169-1.737-5.679-1.167-7.872,1.711c-1.224,1.606-2.124,3.381-2.567,5.363c-0.899,4.016-1.122,8.07-0.826,12.179
		C185.426,326.253,187.51,342.117,188.018,356.352z M465.472,116.423c-0.435-11.637-6.294-22.443-18.339-25.692
		c-0.788-0.213-1.559-0.493-2.354-0.673c-1.883-0.428-2.263-1.136-0.769-2.646c1.647-1.665,3.626-2.839,5.605-4.115
		c-1.721-0.111-3.336,0.003-4.95,0.115c-8.619,0.6-17.232,0.945-25.772-0.834c-4.028-0.84-7.91-2.053-11.133-4.776
		c-0.165-0.14-0.203-0.43-0.233-0.497c0.283-1.051,1.627-0.541,1.791-1.544c-8.361-4.033-25.269-6.272-35.54-4.883
		c-6.36,0.86-12.273,2.647-16.851,7.409c-6.187,6.436-8.773,14.48-10.002,23.088c-0.154,1.075,0.042,1.884,1.259,2.35
		c7.694,2.95,14.641,7.213,21.098,12.288c1.218,0.957,1.988,0.74,2.964-0.309c2.172-2.335,4.559-4.519,7.337-6.038
		c2.244-1.227,2.733-2.55,2.15-4.961c-1.021-4.227-1.531-8.578-3.189-12.646c-3.296-8.088-9.851-9.345-15.943-3.039
		c-0.881,0.912-1.622,1.959-2.485,2.889c-0.578,0.623-1.078,1.938-2.042,1.364c-1.093-0.651-0.227-1.807,0.126-2.67
		c2.119-5.171,7.189-8.716,12.435-8.697c5.726,0.021,8.533,3.8,10.56,8.429c2.129,4.862,3.163,10.046,3.892,15.26
		c2.709,19.368,8.418,37.701,18.487,54.561c3.35,5.609,6.438,11.42,11.121,16.088c5.138,5.123,11.185,5.714,17.345,1.86
		c2.174-1.36,4.049-3.059,5.707-5.014c6.766-7.977,9.429-17.661,11.47-27.597c1.427-6.948,1.867-14.03,2.752-21.052
		c0.089-0.703-0.053-1.635,0.76-1.898c0.773-0.25,1.282,0.52,1.805,1.004c1.401,1.297,1.97,3.19,3.17,4.818
		c0.396-0.962,0.087-1.638-0.051-2.331c-1.042-5.21-3.12-10.033-5.428-14.779c-0.37-0.762-1.371-1.672-0.667-2.425
		c0.737-0.787,1.883-0.107,2.807,0.198C458.592,110.421,461.988,113.117,465.472,116.423z M160.963,167.78
		c1.47-2.995,2.492-5.603,4.165-7.845c1.698-2.275,2.14-2.298,3.667,0.021c1.853,2.813,3.316,5.842,4.706,8.899
		c2.936,6.455,6.185,12.743,10.141,18.633c4.018,5.981,8.452,11.628,14.59,15.618c7.739,5.031,12.81,3.358,16.101-5.197
		c0.26-0.677,0.485-1.368,0.693-2.063c4.113-13.708,6.219-27.784,7.512-41.99c0.98-10.768,1.025-21.58,1.188-32.387
		c0.1-6.634,0.596-13.261,3.266-19.481c0.992-2.31,2.318-4.387,5.093-4.822c3.784-0.593,10.413,3.429,11.735,7.082
		c0.215,0.593,0.541,1.293-0.069,1.763c-0.653,0.503-1.182-0.106-1.643-0.504c-1.995-1.72-3.957-3.479-6.439-4.505
		c-3.128-1.294-4.459-0.809-5.765,2.289c-2.486,5.899-2.845,12.14-2.912,18.433c-0.015,1.382,0.755,1.631,1.814,1.825
		c2.331,0.428,4.623,1.06,6.657,2.292c1.365,0.827,2.17,0.555,3.206-0.599c4.57-5.088,9.654-9.617,15.497-13.201
		c1.506-0.924,1.583-1.836,1.094-3.332c-2.524-7.72-7.12-13.846-13.968-18.196c-4.128-2.622-8.64-3.608-13.542-2.69
		c-11.03,2.065-21.195,6.228-30.541,12.415c-1.093,0.723-2.098,1.579-3.613,2.73c1.477,0.145,2.271,0.154,3.034,0.311
		c2.39,0.49,2.805,1.742,1.136,3.591c-0.721,0.799-1.594,1.489-2.486,2.099c-3.239,2.214-6.767,3.895-10.433,5.247
		c-7.913,2.919-15.863,5.737-23.788,8.625c-0.832,0.303-1.87,0.346-2.51,1.415c2.855,0.237,5.426,0.745,7.832,1.886
		c0.463,0.22,1.117,0.39,1.097,1.048c-0.022,0.725-0.772,0.65-1.226,0.842c-3.179,1.345-6.342,2.724-9.19,4.706
		c-7.088,4.932-9.974,11.83-9.649,21.083c2.685-2.736,4.836-5.027,7.097-7.205c2.235-2.153,4.693-4.005,8.165-5.403
		C160.137,150.199,156.385,158.473,160.963,167.78z M390.696,539.818c3.261-0.208,5.926-1.083,8.61-1.858
		c4.477-1.292,7.233-4.263,8.6-8.68c1.259-4.066,1.352-8.202,1.126-12.399c-0.475-8.826-4.715-14.772-13.072-17.895
		c-7.334-2.741-14.958-3.682-22.676-4.079c-10.125-0.521-20.161-0.01-29.791,3.602c-4.952,1.857-8.88,4.988-11.028,9.935
		c-2.495,5.746-3.591,11.821-3.331,18.066c0.279,6.706,2.774,9.836,9.166,11.951c4.062,1.344,8.271,2.054,12.492,2.686
		c5.525,0.828,9.654-2.298,10.296-7.839c0.601-5.181-1.072-9.855-3.299-14.389c-1.4-2.85-2.891-5.657-4.241-8.531
		c-0.369-0.785-0.633-1.93,0.411-2.417c0.981-0.457,1.393,0.582,1.793,1.24c2.882,4.737,5.701,9.529,7.284,14.881
		c1.882,6.363,2.2,12.557-3.277,17.956c1.084,0.141,1.868,0.3,2.657,0.336c6.092,0.28,12.161,0.005,18.203-0.822
		c5.653-0.774,8.591-3.576,9.817-9.204c1.01-4.636,0.377-9.23-0.309-13.807c-0.416-2.777-1.172-5.501-1.676-8.266
		c-0.208-1.139-1.104-2.837,0.676-3.214c1.691-0.358,1.717,1.497,2.046,2.654c0.496,1.745,1.009,3.496,1.325,5.278
		C393.966,523.271,395.363,531.549,390.696,539.818z M464.798,422.271c21.944-15.451,37.43-35.156,46.718-60.639
		c-4.155,2.904-7.299,5.977-11.958,8.119c5.526-11.299,11.12-21.689,12.219-33.725c-2.796,3.4-4.892,7.332-8.978,10.576
		c1.905-8.674,1.934-16.749,0.247-24.8c-1.81-8.639-6.974-19.736-10.208-21.762c0.091,1.827,0.147,3.544,0.266,5.258
		c0.751,10.771-0.341,21.395-2.607,31.914c-4.689,21.765-14.106,41.29-27.933,58.706c-0.755,0.951-1.4,1.794-1.092,3.154
		C463.157,406.51,464.231,414.045,464.798,422.271z M311.617,315.265c-3.432-1.096-6.435-2.148-8.855-4.252
		c-1.101-0.958-2.258-1.329-3.685-1.396c-10.068-0.469-20.109-1.183-29.765-4.411c-1.254-0.419-1.806,0.126-2.399,1.063
		c-2.432,3.841-5.321,7.343-8.17,10.875c-1.491,1.848-2.921,3.746-4.379,5.622c2.926-1.653,5.054-4.352,8.724-5.043
		c-0.767,8.156-6.353,13.715-9.496,20.446c2.8-2.278,5.394-4.691,6.999-8.01c0.613-1.268,0.956-3.364,2.408-3.326
		c1.672,0.044,1.743,2.263,2.303,3.601c2.695,6.44,5.312,12.914,7.889,19.402c0.572,1.442,1.162,1.96,2.768,1.237
		c14.158-6.37,28.617-11.907,43.749-15.539c0.911-0.219,1.75-0.419,1.842-1.621c0.159-2.068,0.403-4.129,0.646-6.538
		c-1.836,1.086-3.429,2.07-5.063,2.979c-0.901,0.501-1.807,1.523-2.937,0.605c-1.041-0.846-0.876-2.091-0.776-3.287
		c0.182-2.16,1.708-3.715,2.709-5.686c-2.502-0.101-4.742,0.54-7.005,0.164c-2.319-0.385-2.616-1.011-1.359-3.043
		C308.664,317.654,309.963,316.556,311.617,315.265z M317.193,312.424c11.245-0.408,20.034-5.072,25.759-15.014
		c2.682-4.659,4.773-9.583,6.559-14.642c0.402-1.137,0.775-2.232,2.034-2.715c3.127-1.2,5.59-3.407,7.974-5.617
		c7.81-7.241,12.192-15.933,10.766-26.9c-0.28-2.156-1.216-3.965-3.081-5.227c-1.615-1.093-2.61-1.517-3.198,1.138
		c-1.602,7.236-4.989,13.865-11.334,17.671c-5.932,3.558-8.132,8.279-9.188,14.683c-1.149,6.968-3.299,13.797-7.489,19.709
		c-6.484,9.151-17.118,11.819-27.221,6.909c-5.137-2.496-9.048-6.334-12.08-11.096c-3.291-5.168-5.534-10.814-7.305-16.657
		c-0.378-1.247-0.772-2.298-2.278-2.714c-10.036-2.773-17.338-8.848-21.695-18.346c-0.627-1.368-1.128-1.021-1.871-0.187
		c-1.928,2.164-3.286,4.573-3.295,7.56c-0.025,8.368,4.194,14.442,10.557,19.296c4.689,3.577,10.176,5.575,15.675,7.438
		c2.051,0.695,3.411,1.801,4.49,3.611c2.371,3.979,4.911,7.858,7.844,11.454C303.559,308.593,309.291,312.556,317.193,312.424z
		 M332.375,385.665c-0.348-0.216-0.695-0.433-1.043-0.649c-2.048,2.307-3.97,4.742-6.166,6.899
		c-7.64,7.505-15.803,14.469-23.059,22.376c-1.082,1.179-1.291,1.888,0.02,3.037c1.907,1.672,3.589,3.6,5.43,5.351
		c6.706,6.377,12.914,13.287,20.307,18.93c3.475,2.652,7.145,4.987,11.072,6.899c0.631,0.307,1.862,1.316,1.881-0.521
		c0.059-5.437,0.041-10.878-0.739-16.547c-1.379,1.735-1.102,3.908-2.855,5.525C333.439,419.827,331.508,402.889,332.375,385.665z
		 M295.256,429.299c0.058,0.496,0.12,1.31,0.252,2.113c1.078,6.569,4.74,11.914,8.354,17.232
		c10.901,16.038,22.743,31.476,31.057,49.151c0.231,0.492,0.328,1.42,1.256,1.002c0.725-0.326,0.546-0.998,0.445-1.656
		c-0.64-4.155-1.97-8.119-3.635-11.936c-7.755-17.782-15.134-35.714-21.853-53.916c-0.215-0.583-0.514-1.197-0.943-1.628
		c-3.326-3.343-6.711-6.629-10.041-9.968c-1.12-1.123-1.794-0.78-2.456,0.462C296.219,422.92,295.309,425.826,295.256,429.299z
		 M219.586,486.959c0.211,0.071,0.313,0.141,0.354,0.114c0.454-0.29,0.929-0.558,1.342-0.9c4.368-3.614,8.993-3.981,13.831-1.043
		c2.479,1.505,4.904,3.099,7.333,4.684c15.347,10.017,31.014,19.493,47.338,27.845c6.195,3.169,12.756,5.24,20.393,6.278
		c-12.267-6.343-23.258-13.332-33.866-20.975c-9.268-6.678-18.574-13.318-28.212-19.464c-4.787-3.053-9.97-5.172-15.61-6.052
		c-2.772-0.433-5.48-0.339-7.656,1.752C222.54,481.4,220.837,484.018,219.586,486.959z M342.113,268.061
		c-1.448,0.213-2.691,1.016-3.884,1.769c-6.717,4.241-12.745,2.547-18.572-1.896c-1.267-0.966-2.061-3.2-3.585-2.896
		c-1.36,0.271-2.416,2.046-3.618,3.146c-4.493,4.112-9.431,7.007-15.883,6.29c-1.525-0.17-3.559-1.832-4.353-0.447
		c-0.575,1.003,0.756,3.164,1.356,4.764c2.845,7.584,6.65,14.504,13.482,19.313c9.522,6.704,21.13,4.44,27.392-5.368
		c1.272-1.992,2.313-4.103,3.139-6.32c2.03-5.448,3.411-11.077,4.668-16.741C342.371,269.156,342.514,268.612,342.113,268.061z
		 M317.182,436.81c0.392,3.95,18.15,47.686,20.738,51.225c1.929-11.115,2.703-22.217,2.918-33.373
		c0.026-1.372-0.403-2.085-1.713-2.634c-5.652-2.367-10.649-5.814-15.363-9.686C321.608,440.574,319.494,438.757,317.182,436.81z
		 M259.29,522.991c-5.15-8.588-5.878-11.121-5.67-20.561c0.031-1.409-0.483-2.126-1.59-2.802c-3.168-1.933-6.363-3.84-9.386-5.986
		c-1.642-1.165-2.518-0.845-3.362,0.753c-3.445,6.522-4.635,13.302-2.218,20.437c1.125,3.32,3.47,5.521,6.889,6.347
		C248.886,522.37,253.899,523.012,259.29,522.991z M297.62,306.363c-1.59-2.157-3.255-3.732-4.091-5.666
		c-3.604-8.34-10.077-11.626-18.848-12.461c-7.146-0.681-7.089-1.274-9.023,5.767c-1.337,4.868-0.622,6.366,4.145,8.012
		C278.646,305.068,287.853,305.867,297.62,306.363z M346.074,298.248c8.909-1.655,21.899-7.991,28.106-13.464
		c1.737-1.531,2.543-3.313,2.004-5.55c-0.401-1.667-1.018-3.282-1.546-4.917c-0.487-1.507-1.288-1.653-2.642-0.841
		c-5.614,3.366-11.626,5.933-17.593,8.585c-0.823,0.366-1.663,0.629-2.001,1.658C350.786,288.635,348.619,293.322,346.074,298.248z
		 M400.295,451.507c-2.695,13.813-5.593,27.538-7.531,41.437c-0.188,1.352,0.608,1.681,1.601,2.068
		c2.194,0.854,4.442,1.629,6.506,2.739c1.912,1.028,2.454,0.688,2.47-1.442c0.077-10.167,0.643-20.335,0.083-30.501
		C403.155,460.921,402.498,456.077,400.295,451.507z M289.475,521.175c-11.359-5.942-21.944-12.292-32.72-18.555
		c-0.929,6.474,1.145,13.295,5.245,18.287c1.376,1.675,2.879,2.566,5.116,2.404c3.796-0.274,7.615-0.243,11.407-0.557
		C282.021,522.464,285.536,522.152,289.475,521.175z M406.859,316.436c0.043,0.946,0.005,1.313,0.084,1.652
		c2.12,9.079,4.078,18.201,6.875,27.107c0.922,2.935,1.829,5.89,3.576,8.478c0.444,0.658,0.874,1.574,1.789,1.457
		c0.928-0.119,1.083-1.125,1.346-1.877c2.024-5.785,2.761-11.791,3.05-17.875c0.032-0.679-0.16-1.256-0.58-1.756
		C418.068,327.733,413.027,321.946,406.859,316.436z M235.361,518.639c-3.691-8.324-3.242-16.071,0.174-23.71
		c2.197-4.913,2.242-4.817-2.654-7.45c-1.641-0.883-2.567-0.727-3.425,0.972c-2.64,5.229-3.988,10.734-3.307,16.568
		C226.832,510.869,229.063,515.853,235.361,518.639z M263.373,334.398c-2.289,7.033-2.802,14.116-2.908,21.247
		c-0.018,1.235,0.409,1.659,1.637,1.144c2.496-1.049,5.01-2.058,7.529-3.05c1.06-0.417,1.292-1.027,0.848-2.092
		C268.085,345.907,265.737,340.149,263.373,334.398z M387.744,133.985c-1.716-7.018-3.392-13.929-4.542-20.959
		c-0.259-1.584-1.058-1.334-2.063-0.693c-1.915,1.223-3.674,2.636-5.282,4.239c-2.54,2.532-2.512,2.504-0.015,4.891
		c2.092,2,4.156,4.035,6.149,6.134C383.963,129.673,385.831,131.851,387.744,133.985z M226.845,140.668
		c1.783-2.544,3.404-4.939,5.109-7.273c3.499-4.791,3.374-5.137-2.561-6.398c-0.088-0.019-0.173-0.052-0.26-0.078
		c-1.644-0.499-2.331,0.092-2.306,1.823C226.884,132.63,226.845,136.52,226.845,140.668z"/>
	<path d="M338.635,198.439c0.454-9.805,4.799-19.101,15.475-24.496c6.951-3.512,13.583-2.549,19.483,2.533
		c4.983,4.293,8.221,9.857,10.996,15.729c0.715,1.513,0.535,2.793-0.622,3.972c-0.905,0.922-1.459,1.907-1.549,3.32
		c-0.748,11.675-8.327,19.101-20.183,19.832c-4.582,0.283-9.063-0.365-13.363-1.994
		C341.918,214.701,338.695,209.238,338.635,198.439z M359.786,216.499c0.906,0,1.816,0.058,2.717-0.009
		c9.079-0.677,16.108-6.572,16.714-14.966c0.638-8.831-2.304-16.495-10.026-21.583c-7.946-5.236-17.326-3.451-22.732,4.386
		c-4.664,6.763-5.831,14.309-4.086,22.321c0.794,3.648,3.024,6.1,6.323,7.674C352.205,215.996,355.942,216.55,359.786,216.499z"/>
	<path d="M259.174,184.275c8.849,0.849,15.994,6.128,20.67,14.883c2.552,4.778,3.819,10.009,4.223,15.393
		c0.289,3.85-1.047,7.33-4.143,9.624c-7.056,5.228-14.961,8.153-23.888,7.442c-7.52-0.599-12.621-4.595-15.425-11.556
		c-0.779-1.933-1.372-3.935-3.264-5.192c-0.92-0.611-1.06-1.624-0.865-2.689c1.318-7.175,3.012-14.222,7.18-20.384
		C247.067,186.762,251.797,184.173,259.174,184.275z M242.141,210.777c0.065,1.269,0.071,2.544,0.203,3.806
		c0.81,7.747,5.622,13.294,13.096,14.237c8.874,1.12,16.548-2.228,23.428-7.576c1.848-1.436,2.527-3.696,2.314-5.883
		c-0.835-8.592-3.144-16.632-10.058-22.498c-7.399-6.278-17.556-5.275-23.696,2.253
		C243.718,199.666,242.051,204.926,242.141,210.777z"/>
	<path d="M313.067,255.39c-11.763,0.02-23.843-8.73-27.353-19.311c-1.578-4.757-0.476-7.647,4.081-9.837
		c7.554-3.631,15.731-4.887,23.945-5.838c5.957-0.69,11.951-1.035,17.927-0.194c4.63,0.651,6.768,3.011,6.663,7.728
		c-0.2,8.981-5.02,15.715-11.117,21.702c-3.199,3.142-7.099,5.004-11.58,5.546C314.554,255.316,313.464,255.359,313.067,255.39z
		 M295.723,226.923c-1.036,0.311-2.101,0.548-3.103,0.947c-5.39,2.145-6.284,4.284-3.602,9.383
		c3.593,6.831,8.855,11.957,16.307,14.365c6.652,2.149,13.149,1.721,18.811-2.777c6.016-4.779,9.927-10.986,11.438-18.59
		c1.034-5.204-0.587-7.288-5.931-7.587c-6.171-0.344-12.333-0.066-18.445,0.796c-5.263,0.742-10.581,1.339-15.531,3.506
		L295.723,226.923z"/>
	<path d="M256.424,140.13c0.994,0.062,2.006,0.024,2.976,0.21c1.317,0.252,2.826,0.427,3.301,1.985
		c0.504,1.654-0.301,3.026-1.405,4.165c-1.523,1.571-3.583,2.174-5.63,2.486c-11.669,1.775-20.39,8.018-26.907,17.611
		c-1.201,1.769-1.776,1.279-2.46-0.314c-1.262-2.938-0.225-5.584,1.206-8.013c4.627-7.859,11.263-13.38,19.883-16.44
		C250.304,140.786,253.293,140.078,256.424,140.13z M259.201,143.842c-7.257-2.651-22.459,4.868-26.712,13.16
		c9.511-7.697,10.609-8.223,23.098-11.184C256.948,145.495,258.502,145.454,259.201,143.842z"/>
	<path d="M361.078,130.232c9.359,0.031,17.197,4.862,23.515,12.615c0.614,0.754,1.025,1.703,1.397,2.615
		c0.24,0.588,0.176,1.311-0.384,1.742c-0.565,0.435-1.017-0.132-1.434-0.4c-10.182-6.554-21.533-8.766-33.41-9.06
		c-0.994-0.025-2.007-0.079-2.97-0.299c-1.131-0.258-2.475-0.528-2.626-1.968c-0.143-1.36,0.927-2.126,1.991-2.664
		C351.234,130.755,355.664,130.441,361.078,130.232z M374.564,138.376c-6.68-5.607-14.288-6.011-22.319-3.836
		c3.756,0.259,7.512,0.571,11.249,1.128C367.258,136.23,370.866,137.378,374.564,138.376z"/>
	<path d="M323.487,346.72c7.837-0.045,12.895,5.182,12.534,12.25c-0.192,3.751-2.3,5.036-5.607,3.306
		c-3.941-2.062-7.356-4.93-11.001-7.444c-1.515-1.045-2.88-2.412-2.456-4.486c0.421-2.059,2.214-2.745,3.989-3.232
		C321.981,346.83,323.079,346.779,323.487,346.72z M323.914,349.746c-0.268,0.031-0.919,0.026-1.521,0.197
		c-0.756,0.214-1.876,0.054-2.125,0.942c-0.306,1.091,0.849,1.476,1.54,1.962c3.04,2.137,6.114,4.227,9.194,6.306
		c0.423,0.285,0.901,0.788,1.45,0.498c0.663-0.351,0.534-1.081,0.51-1.71C332.779,353.064,329.216,349.703,323.914,349.746z"/>
	<path d="M295.273,495.325c0.011-0.195,0.016-0.285,0.021-0.375c0.188-3.407,2.63-6.961,5.275-7.521
		c2.081-0.441,3.735,0.259,4.775,2.183c1.817,3.361,1.433,8.702-0.819,10.711c-1.666,1.486-3.632,1.591-5.573,0.73
		C296.479,499.957,295.361,497.886,295.273,495.325z M303.632,495.356c-0.006-2.648-0.96-4.856-2.013-4.944
		c-1.424-0.118-3.295,2.557-3.297,4.741c-0.001,1.863,0.726,3.247,2.758,3.315C303.4,498.544,303.423,496.692,303.632,495.356z"/>
	<path d="M195.252,336.997c0.149-4.145-0.227-9.062,0.546-13.931c0.264-1.661,0.24-3.706,2.354-4.149
		c2.053-0.43,3.107,1.294,3.998,2.731c5.081,8.202,9.085,16.947,12.558,25.922c4.588,11.856,8.619,23.893,10.436,36.547
		c0.672,4.682,1.195,9.376-0.165,14.042c-2.21,7.58-9.185,9.453-14.886,3.932c-3.547-3.435-5.453-7.882-7.141-12.399
		C196.69,372.932,195.276,355.441,195.252,336.997z M198.874,322.547c-0.132,0.948-0.231,1.469-0.274,1.995
		c-0.833,10.168-0.462,20.336,0.255,30.482c0.777,10.987,2.599,21.805,6.356,32.219c1.387,3.845,2.817,7.693,5.336,10.974
		c1.943,2.531,4.319,4.825,7.785,3.811c3.417-0.999,3.807-4.282,4.223-7.288c0.124-0.895,0.102-1.813,0.118-2.72
		c0.062-3.554-0.274-7.076-0.963-10.558c-3.815-19.289-10.665-37.477-19.954-54.771
		C201.037,325.354,200.378,323.947,198.874,322.547z"/>
	<path d="M240.957,419.975c-0.85,0.053-2.194-0.202-3.481-0.651c-4.083-1.425-5.34-5.022-3.049-8.689
		c1.916-3.069,4.752-5.235,7.552-7.386c13.918-10.688,28.851-19.817,44.082-28.474c2.678-1.522,5.478-2.883,8.549-3.431
		c4.068-0.726,5.947,1.475,4.544,5.371c-1.597,4.436-4.428,8.125-7.621,11.496c-11.619,12.265-25.324,21.671-40.401,29.144
		C248.112,418.852,244.919,419.89,240.957,419.975z M240.841,417.115c3.16-0.029,5.621-0.735,7.903-1.841
		c15.804-7.66,30.151-17.353,41.976-30.498c2.193-2.438,4.013-5.151,5.342-8.163c0.281-0.637,0.829-1.429,0.314-2.041
		c-0.612-0.728-1.526-0.316-2.28-0.031c-1.608,0.609-3.282,1.114-4.779,1.934c-16.481,9.021-32.479,18.8-47.272,30.445
		c-1.853,1.459-3.645,3.023-5.037,4.943c-1.448,1.999-0.842,3.899,1.473,4.737C239.403,416.934,240.411,417.025,240.841,417.115z"/>
	<path d="M195.77,416.285c-11.836-0.967-24.077-3.558-36.279-6.35c-7.601-1.74-15.167-3.635-22.414-6.594
		c-2.018-0.824-4.029-1.674-5.764-3.027c-1.105-0.862-2.114-1.868-1.6-3.438c0.489-1.494,1.799-1.961,3.219-2.093
		c3.737-0.346,7.449,0.128,11.117,0.679c18.891,2.835,37.322,7.479,55.161,14.375c0.254,0.098,0.527,0.162,0.761,0.294
		c1.509,0.856,3.924,1.173,3.467,3.537c-0.468,2.417-2.76,2.541-4.807,2.612C197.906,416.306,197.18,416.285,195.77,416.285z
		 M133.922,397.802c5.986,5.581,56.123,17.122,65.061,14.986C177.577,404.974,156.262,399.24,133.922,397.802z"/>
	<path d="M177.876,488.372c0.992-9.432,3.843-19.075,7.386-28.514c3.487-9.289,7.958-18.094,13.83-26.137
		c1.179-1.615,2.451-3.159,4.03-4.407c0.775-0.613,1.619-1.367,2.684-0.822c0.996,0.51,0.72,1.581,0.693,2.451
		c-0.104,3.47-0.968,6.821-1.775,10.167c-3.862,16.008-9.179,31.504-16.421,46.314c-0.916,1.873-1.84,3.749-3.228,5.342
		c-1.324,1.519-2.86,2.699-4.972,1.913c-2.063-0.767-2.164-2.697-2.225-4.551C177.866,489.767,177.876,489.404,177.876,488.372z
		 M202.842,433.651c-0.991,1.376-2.02,2.727-2.967,4.132c-9.169,13.6-14.667,28.693-18.033,44.635
		c-0.504,2.388-0.731,4.837-1.019,7.266c-0.081,0.687-0.22,1.656,0.62,1.899c0.799,0.231,1.272-0.628,1.628-1.216
		c1.174-1.937,2.38-3.869,3.361-5.906c4.968-10.323,8.85-21.065,12.187-32.013C200.483,446.325,202.091,440.142,202.842,433.651z"/>
	<path d="M281.086,480.113c-1.773-0.054-3.336-0.793-4.905-1.508c-5.784-2.638-10.557-6.733-15.179-10.941
		c-8.201-7.467-15.806-15.506-22.039-24.747c-1.119-1.659-2.208-3.35-2.725-5.301c-0.709-2.674,0.537-4.052,3.269-3.714
		c1.657,0.205,3.149,0.904,4.536,1.761c14.334,8.86,27.042,19.542,37.002,33.269c1.438,1.982,2.792,4.037,3.543,6.406
		C285.551,478.378,284.202,480.205,281.086,480.113z M239.096,437.036c0.399,0.881,0.579,1.493,0.918,1.998
		c9.492,14.174,20.896,26.468,35.33,35.748c1.285,0.826,2.755,1.371,4.158,2.006c0.66,0.298,1.45,0.626,2.018-0.021
		c0.495-0.563-0.011-1.248-0.295-1.752c-1.023-1.815-2.004-3.678-3.246-5.34c-9.525-12.757-21.483-22.805-34.948-31.144
		C241.966,437.872,240.859,437.229,239.096,437.036z"/>
	<path d="M232.122,423.88c-0.144,5.875-4.905,10.445-10.748,10.318c-5.91-0.129-10.402-4.688-10.258-10.41
		c0.151-6.01,5.01-11.067,10.566-10.996C227.299,412.864,232.263,418.135,232.122,423.88z M229.133,423.844
		c0.076-4.219-3.524-8.136-7.491-8.152c-3.87-0.015-7.579,3.905-7.659,8.096c-0.076,3.954,3.343,7.422,7.413,7.518
		C225.565,431.405,229.058,428.036,229.133,423.844z"/>
	<path d="M179.858,508.965c-0.168,3.084-1.251,6.079-4.12,8.162c-1.735,1.259-3.67,1.577-5.645,0.602
		c-1.913-0.945-2.61-2.687-2.721-4.7c-0.217-3.937,3.191-8.684,6.984-9.773C177.648,502.309,179.907,504.516,179.858,508.965z
		 M176.806,509.243c0.008-2.871-0.641-3.524-2.291-2.808c-2.188,0.95-4.286,4.23-4.167,6.517c0.114,2.188,1.677,3.061,3.511,1.85
		C176,513.388,176.706,511.19,176.806,509.243z"/>
	<path d="M198.097,311.481c-2.375-0.246-5.059-0.965-7.315-2.813c-1.888-1.547-2.192-3.429-1.044-5.567
		c1.688-3.143,5.814-4.434,9.164-2.865c3.061,1.434,5.208,6.026,4.097,8.902C202.218,311.158,200.504,311.581,198.097,311.481z
		 M197.84,308.505c1.653,0.065,2.425-0.412,2.386-1.857c-0.057-2.083-2.114-4.093-4.32-4.048c-1.741,0.036-3.312,0.599-3.654,2.543
		C192.01,306.519,195.558,308.46,197.84,308.505z"/>
	<path d="M118.965,400.497c-4.397,0.013-7.963-3.056-8.525-7.007c-0.333-2.343,1.153-4.035,3.495-3.599
		c3.716,0.692,7.063,2.36,9.911,4.846c1.681,1.468,1.321,3.053-0.395,4.329C122.017,400.132,120.371,400.581,118.965,400.497z
		 M121.43,396.435c-2.544-1.419-4.854-2.944-7.878-3.287C114.619,397.462,118.575,398.668,121.43,396.435z"/>
	<path d="M334.498,283.841c-0.037,2.662-0.687,5.191-1.644,7.658c-2.797,7.206-6.57,9.504-14.281,8.684
		c-9.843-1.047-16.457-6.891-17.18-15.181c-0.395-4.534,2.363-7.292,6.888-6.763c2.993,0.35,5.87,1.183,8.371,2.943
		c1.027,0.723,1.601,0.662,2.404-0.392c0.92-1.207,2.074-2.289,3.294-3.202c2.543-1.906,5.304-3.287,8.545-1.724
		C333.3,277.025,334.559,279.957,334.498,283.841z M331.669,283.982c0-0.634,0.045-1.271-0.007-1.901
		c-0.315-3.827-2.513-5.121-5.929-3.495c-1.409,0.671-2.537,1.716-3.685,2.754c-1.526,1.38-2.268,2.728-0.647,4.579
		c0.641,0.732,1.069,1.724,1.004,2.758c-0.07,1.117-0.716,1.515-1.607,0.746c-0.599-0.517-0.98-1.288-1.453-1.95
		c-2.877-4.028-6.883-6.073-11.726-6.483c-2.742-0.232-3.865,1.023-3.508,3.759c0.719,5.507,3.527,9.507,8.866,11.318
		C323.541,299.651,330.181,298.345,331.669,283.982z"/>
	<path d="M358.089,213.092c-8.172-0.039-15.02-6.842-15.002-14.905c0.02-8.921,6.747-15.985,15.203-15.964
		c8.307,0.021,15.138,6.782,15.197,15.041C373.548,205.871,366.484,213.132,358.089,213.092z M360.874,190.296
		c-0.349-1.259-0.764-2.584-2.49-2.646c-1.713-0.062-2.464,1.085-2.56,2.566c-0.103,1.571,0.806,2.663,2.379,2.747
		C359.822,193.049,360.581,191.918,360.874,190.296z"/>
	<path d="M276.232,208.806c-0.084,8.766-6.729,15.935-14.675,15.832c-8.2-0.106-14.982-7.236-14.909-15.674
		c0.071-8.164,6.66-14.741,14.748-14.72C269.637,194.267,276.309,200.816,276.232,208.806z M261.018,199.709
		c-1.625,0.03-2.402,0.85-2.448,2.345c-0.051,1.64,0.553,2.95,2.38,2.894c1.497-0.046,2.495-0.974,2.471-2.62
		C263.398,200.713,262.485,199.894,261.018,199.709z"/>
	<path d="M295.667,226.965c9.124-2.03,18.331-3.436,27.696-3.567c2.26-0.031,4.524,0.1,6.783,0.221
		c0.857,0.046,1.686,0.417,1.708,1.414c0.029,1.295-1.065,1.014-1.799,0.997c-11.388-0.252-22.612,0.963-33.683,3.643
		c-0.738,0.179-1.711,0.553-2.127-0.512c-0.527-1.35,0.89-1.548,1.478-2.238C295.723,226.923,295.667,226.965,295.667,226.965z"/>
</g>
<rect x="27" y="27" transform="matrix(-1.836970e-16 1 -1 -1.836970e-16 612 5.684342e-14)" style="fill:none;stroke:#231F20;stroke-width:4;stroke-miterlimit:10;" width="558" height="558"/>

    <text x="10" y="832" font-size="12" fill="gray" opacity="0.6" font-family="Arial, sans-serif">
      twoja-kolorowanka.pl
    </text>
  
</svg>
