<?xml version="1.0" encoding="utf-8"?>
<!-- Generator: Adobe Illustrator 27.5.0, SVG Export Plug-In . SVG Version: 6.00 Build 0)  -->
<svg xmlns="http://www.w3.org/2000/svg" xmlns:xlink="http://www.w3.org/1999/xlink" viewBox="0 0 3000 3000" width="595" height="842" preserveAspectRatio="xMidYMid meet" data-scaled="true">
<g>
	<path d="M1603.039,649.933c1.77,1.829,3.586,3.612,5.446,5.35c1.86,1.736,3.765,3.426,5.712,5.068
		c1.945,1.64,3.931,3.232,5.958,4.774c2.026,1.54,4.09,3.029,6.192,4.466c2.1,1.439,4.235,2.823,6.407,4.153
		c2.171,1.329,4.375,2.603,6.61,3.822c2.235,1.218,4.5,2.38,6.794,3.486c2.292,1.104,4.611,2.15,6.957,3.138
		c2.347,0.989,4.717,1.917,7.11,2.785c2.394,0.868,4.807,1.676,7.24,2.424c2.433,0.746,4.884,1.43,7.353,2.054
		c2.469,0.623,4.951,1.185,7.446,1.684c2.497,0.499,5.005,0.934,7.523,1.305c2.518,0.373,5.044,0.682,7.579,0.927
		c2.535,0.245,5.073,0.426,7.616,0.542c5.207,0.232,10.417,0.372,15.63,0.421c6.582,40.706,24.635,76.312,58.411,100.962
		c31.446,22.952,69.301,32.686,107.812,26.514c25.254-4.048,54.355-15.906,73.818-32.725
		c32.638,28.251,67.685,46.864,112.077,43.672c10.284-0.776,20.356-2.678,30.217-5.706c19.395-6.497,34.948-14.565,51.27-26.864
		c34.971,27.889,70.117,45.672,116.142,40.344c41.81-4.839,74.205-27.053,100.422-58.999c33.174,14.929,66.035,19.568,100.851,6.234
		c31.242-11.963,57.287-37.932,70.657-68.459c8.514-19.44,10.099-38.663,9.556-59.632c34.525-23.166,59.502-52.273,67.937-94.029
		c7.675-37.997-0.997-76.863-22.596-108.829c-20.474-30.296-52.446-50.149-88.264-56.883c-14.638-2.754-28.381-2.94-43.191-1.734
		c3.706-40.539-3.203-79.227-29.776-111.307c-1.499-1.84-3.044-3.641-4.635-5.404c-1.589-1.763-3.222-3.484-4.898-5.165
		c-1.676-1.681-3.393-3.319-5.15-4.914c-1.759-1.595-3.555-3.146-5.39-4.651c-1.836-1.505-3.708-2.964-5.616-4.376
		c-1.91-1.412-3.852-2.775-5.828-4.09c-1.976-1.315-3.983-2.579-6.022-3.794c-2.04-1.214-4.108-2.377-6.206-3.488
		c-2.098-1.111-4.222-2.169-6.373-3.174c-2.151-1.005-4.325-1.955-6.522-2.852c-2.198-0.896-4.417-1.737-6.658-2.522
		c-2.239-0.785-4.497-1.514-6.774-2.187c-2.277-0.673-4.569-1.288-6.875-1.846c-2.307-0.558-4.627-1.058-6.96-1.5
		c-2.332-0.442-4.673-0.826-7.025-1.151c-2.35-0.325-4.708-0.591-7.073-0.799c-34.375-2.817-61.73,7-91.221,23.686
		c-33.395-37.148-69.261-64.944-121.227-67.705c-8.02-0.426-16.711-0.514-24.689,0.423c-45.01,5.326-83.436,26.091-111.777,61.709
		c-9.678,12.16-16.381,25.292-22.584,39.458c-43.381-19.086-85.719-25.763-131.17-8.405c-2.288,0.875-4.553,1.806-6.796,2.792
		c-2.241,0.986-4.458,2.026-6.65,3.121c-2.192,1.094-4.356,2.242-6.491,3.442c-2.135,1.2-4.24,2.452-6.313,3.755
		c-2.073,1.304-4.115,2.657-6.124,4.06c-2.007,1.403-3.979,2.855-5.915,4.355c-1.938,1.5-3.837,3.046-5.698,4.639
		c-1.861,1.593-3.682,3.23-5.463,4.912c-1.782,1.682-3.521,3.406-5.217,5.173c-1.695,1.767-3.347,3.574-4.955,5.422
		c-1.608,1.848-3.17,3.734-4.686,5.659c-1.516,1.925-2.984,3.885-4.404,5.881c-1.42,1.996-2.79,4.025-4.11,6.087
		c-1.32,2.064-2.589,4.158-3.808,6.282c-1.218,2.126-2.384,4.281-3.497,6.463c-1.113,2.182-2.171,4.391-3.175,6.624
		c-2.912,6.604-5.288,13.356-7.522,20.214c-49.804-3.579-93.744,5.144-132.489,38.618c-30.392,26.254-49.459,65.697-52.047,105.71
		c-2.729,42.197,9.813,83.086,37.951,114.967C1599.543,646.233,1601.267,648.105,1603.039,649.933z M1594.016,595.601
		c-0.883-1.985-1.717-3.99-2.503-6.017c-0.785-2.026-1.52-4.071-2.203-6.135c-0.684-2.062-1.315-4.141-1.896-6.237
		c-0.58-2.094-1.107-4.201-1.582-6.322c-0.476-2.121-0.899-4.251-1.268-6.393c-0.369-2.143-0.686-4.293-0.949-6.449
		c-0.264-2.158-0.473-4.321-0.627-6.489c-0.166-2.177-0.277-4.357-0.333-6.54c-0.058-2.182-0.062-4.366-0.011-6.551
		c0.049-2.183,0.153-4.363,0.311-6.539c0.158-2.179,0.37-4.352,0.635-6.52c0.266-2.166,0.584-4.325,0.955-6.477
		c0.373-2.152,0.798-4.294,1.274-6.423c0.478-2.13,1.009-4.248,1.59-6.353c0.582-2.104,1.216-4.192,1.904-6.266
		c0.686-2.073,1.422-4.129,2.209-6.167c0.787-2.036,1.623-4.052,2.508-6.048c0.887-1.994,1.823-3.966,2.808-5.915
		c0.983-1.949,2.014-3.873,3.093-5.771c1.079-1.898,2.205-3.769,3.379-5.613c1.171-1.842,2.387-3.654,3.647-5.438
		c1.262-1.782,2.567-3.532,3.915-5.251c1.347-1.717,2.736-3.401,4.167-5.051c26.398-30.539,64.42-48.626,104.964-47.881
		c10.915,0.201,24.864,4.181,35.426,2.22c3.873-0.72,4.599-1.743,6.409-5.155c3.209-6.039,5.082-13.268,7.421-19.703
		c5.531-15.206,13.342-29.395,23.912-41.7c33.677-39.211,90.84-54.403,139.359-36.807c10.449,3.79,33.692,20.175,43.412,18.562
		c5.26-0.873,16.618-31.494,19.745-37.207c4.273-7.796,9.249-15.113,14.929-21.952c25.841-31.063,59.889-45.528,99.433-48.998
		c1.277-0.052,2.553-0.086,3.83-0.101c1.279-0.016,2.557-0.014,3.833,0.007c1.279,0.02,2.556,0.059,3.833,0.114
		c1.275,0.057,2.55,0.131,3.825,0.223c1.275,0.092,2.548,0.202,3.819,0.331c1.271,0.128,2.541,0.274,3.808,0.438
		c1.267,0.164,2.532,0.346,3.794,0.546c1.262,0.2,2.521,0.417,3.777,0.652c1.256,0.236,2.509,0.488,3.757,0.759
		c1.249,0.27,2.493,0.559,3.734,0.864c1.241,0.306,2.478,0.628,3.709,0.969c1.232,0.34,2.458,0.698,3.681,1.073
		c1.22,0.374,2.436,0.767,3.647,1.176c1.211,0.41,2.415,0.836,3.613,1.279c1.2,0.443,2.392,0.904,3.576,1.38
		c1.187,0.477,2.365,0.97,3.537,1.48c1.171,0.51,2.335,1.037,3.491,1.58c1.156,0.543,2.305,1.102,3.446,1.678
		c1.142,0.575,2.274,1.166,3.398,1.774c1.124,0.607,2.24,1.23,3.347,1.869c1.105,0.639,2.202,1.293,3.291,1.962
		c1.088,0.67,2.167,1.354,3.237,2.054c1.068,0.7,2.126,1.415,3.175,2.146c1.049,0.73,2.088,1.474,3.116,2.233
		c1.027,0.759,2.043,1.533,3.051,2.321c1.006,0.788,2,1.59,2.983,2.405c0.983,0.816,1.955,1.646,2.915,2.489
		c0.96,0.844,1.908,1.7,2.844,2.57c0.934,0.87,1.857,1.753,2.768,2.649c0.911,0.896,1.81,1.805,2.695,2.727
		c0.885,0.921,1.757,1.855,2.616,2.801c0.859,0.946,1.704,1.904,2.537,2.874c5.627,6.556,14.316,20.548,22.005,24.032
		c7.164,3.247,27.37-11.514,34.457-15.216c26.638-13.913,56.798-17.186,85.564-8.057c1.559,0.494,3.108,1.02,4.646,1.577
		c1.539,0.557,3.066,1.146,4.582,1.765c1.514,0.62,3.015,1.27,4.503,1.951c1.488,0.681,2.961,1.392,4.421,2.133
		c1.459,0.741,2.903,1.512,4.33,2.311c1.428,0.8,2.838,1.629,4.232,2.486c1.393,0.857,2.769,1.743,4.127,2.657
		c1.358,0.914,2.697,1.855,4.017,2.823c1.318,0.968,2.617,1.963,3.896,2.984c1.279,1.021,2.536,2.069,3.771,3.141
		c1.238,1.072,2.451,2.17,3.641,3.292c1.19,1.122,2.358,2.268,3.503,3.438c1.145,1.17,2.266,2.362,3.362,3.578
		c1.094,1.216,2.164,2.453,3.209,3.712s2.065,2.539,3.059,3.84c0.992,1.301,1.958,2.622,2.895,3.962
		c0.94,1.34,1.851,2.699,2.735,4.077c0.883,1.378,1.738,2.773,2.565,4.185c0.826,1.412,1.624,2.841,2.393,4.286
		c0.768,1.445,1.507,2.905,2.215,4.38c0.71,1.475,1.389,2.964,2.037,4.467c0.648,1.502,1.265,3.017,1.85,4.546
		c0.586,1.527,1.14,3.066,1.664,4.616c0.523,1.552,1.015,3.113,1.474,4.684c0.46,1.57,0.887,3.15,1.282,4.737
		c0.396,1.588,0.758,3.184,1.088,4.788c0.33,1.603,0.626,3.211,0.89,4.825c0.265,1.616,0.497,3.235,0.695,4.859
		c0.198,1.625,0.363,3.253,0.494,4.884c0.132,1.631,0.231,3.264,0.297,4.901c0.064,1.635,0.095,3.27,0.093,4.907
		c-0.002,1.637-0.037,3.272-0.105,4.907c-0.477,12.706-9.056,27.943-2.946,39.886c7.373,5.316,46.121-0.912,58.216-0.195
		c26.26,1.559,53.321,18.118,70.485,37.482c1.275,1.435,2.513,2.901,3.715,4.398c1.201,1.497,2.365,3.023,3.491,4.576
		c1.128,1.554,2.216,3.135,3.263,4.743c1.049,1.608,2.057,3.241,3.025,4.898c0.968,1.657,1.894,3.337,2.78,5.039
		c0.885,1.704,1.728,3.428,2.528,5.172c0.801,1.746,1.557,3.509,2.269,5.291c0.714,1.781,1.382,3.58,2.005,5.395
		c0.625,1.815,1.205,3.645,1.74,5.489c0.533,1.844,1.021,3.699,1.463,5.568c0.443,1.866,0.839,3.744,1.189,5.633
		c0.348,1.887,0.651,3.781,0.907,5.684c0.256,1.902,0.466,3.81,0.63,5.723c0.162,1.911,0.277,3.827,0.344,5.746
		c0.068,1.919,0.088,3.838,0.059,5.757c-0.026,1.919-0.101,3.836-0.223,5.751c-1.878,30.867-15.867,62.304-40.095,81.962
		c-9.621,7.805-20.683,13.635-29.96,21.887c-0.359,0.319-0.712,0.65-1.068,0.975c1.687,22.748,1.364,43.09-8.466,64.123
		c-11.709,25.056-32.632,45.013-58.838,54.239c-30.988,10.906-51.833,6.017-80.595-7.675c-3.958-1.884-11.361-6.246-15.709-5.265
		c-4.935,1.107-18.398,20.118-22.528,24.649c-1.759,1.906-3.574,3.756-5.446,5.551c-1.87,1.795-3.794,3.531-5.771,5.209
		c-1.977,1.678-4.005,3.294-6.082,4.847c-2.075,1.555-4.196,3.045-6.362,4.469c-2.168,1.425-4.375,2.783-6.624,4.073
		c-2.25,1.29-4.538,2.51-6.862,3.661c-2.324,1.151-4.681,2.23-7.071,3.237c-2.39,1.008-4.808,1.941-7.254,2.799
		c-35.124,12.285-75.939,4.729-105.363-17.582c-7.844-5.943-19.025-18.288-28.07-21.226c-8.325-2.703-31.149,18.367-39.273,22.952
		c-6.172,3.483-12.76,5.836-19.418,8.192c-4.838,1.529-9.755,2.736-14.751,3.621c-4.996,0.885-10.028,1.441-15.096,1.667
		c-1.772,0.085-3.544,0.128-5.316,0.13c-1.774,0.002-3.546-0.038-5.316-0.119c-1.772-0.081-3.541-0.204-5.308-0.37
		c-1.764-0.166-3.525-0.372-5.282-0.619c-1.755-0.249-3.504-0.539-5.246-0.87c-1.742-0.33-3.475-0.701-5.201-1.113
		c-1.725-0.412-3.439-0.865-5.141-1.359c-1.704-0.493-3.396-1.027-5.073-1.602c-1.678-0.573-3.342-1.185-4.991-1.836
		c-1.65-0.651-3.282-1.342-4.898-2.07c-1.616-0.727-3.215-1.492-4.797-2.297c-1.58-0.804-3.14-1.645-4.681-2.523
		c-1.542-0.878-3.062-1.791-4.559-2.74c-1.497-0.949-2.972-1.933-4.424-2.952s-2.878-2.072-4.28-3.158
		c-1.403-1.087-2.779-2.205-4.127-3.356c-7.152-6.135-13.164-14.003-20.463-19.793c-3.554-2.819-7.367-4.302-11.864-2.862
		c-6.455,2.068-12.853,8.539-18.09,12.83c-18.607,15.251-39.296,24.884-63.454,27.05c-21.073,1.89-41.756-1.828-61.081-10.302
		c-75.134-32.954-69.62-113.094-76.73-117.518c-8.901-5.536-28.095-1.878-38.83-2.689c-3.247-0.277-6.477-0.68-9.692-1.209
		c-3.215-0.531-6.403-1.187-9.565-1.969c-3.164-0.78-6.291-1.684-9.381-2.712c-3.092-1.026-6.139-2.172-9.141-3.438
		c-3.002-1.267-5.949-2.651-8.842-4.15c-2.893-1.497-5.722-3.106-8.489-4.828c-2.766-1.721-5.461-3.548-8.085-5.48
		c-2.621-1.932-5.164-3.965-7.627-6.099c-1.655-1.409-3.275-2.857-4.859-4.344c-1.584-1.488-3.13-3.014-4.638-4.579
		c-1.508-1.565-2.976-3.167-4.404-4.805c-1.429-1.638-2.817-3.311-4.161-5.017c-1.346-1.708-2.649-3.447-3.907-5.217
		c-1.26-1.772-2.474-3.574-3.644-5.407c-1.17-1.832-2.293-3.692-3.37-5.579c-1.077-1.887-2.106-3.8-3.087-5.74
		C1595.835,599.548,1594.901,597.586,1594.016,595.601z"/>
	<path d="M1840.826,577.92c2.568,0.859,3.616-0.175,6-1.09c13.641-14.322,7.144-30.935,27.528-45.44l1.61-0.732
		c9.638-4.263,30.579-2.653,34.463-13.104c6.333-17.056,1.424-29.44,21.276-39.604c9.949-5.093,19.748-7.873,30.697-4.249
		c11.994,3.969,25.339,21.192,37.872,18.181c3.008-2.523,3.429-3.198,4.856-6.867c-0.836-9.161-6.836-15.053-13.644-20.745
		c-14.997-12.539-30.742-14.777-49.615-14.254c-19.398,5.491-35.279,13.689-45.189,32.299c-3.375,6.342-5.466,13.39-7.666,20.206
		c-19.248,5.065-36.398,11.697-47.172,29.7c-5.449,9.102-12.74,27.737-8.83,38.386
		C1834.286,574.073,1837.405,576.774,1840.826,577.92z"/>
	<path d="M2163.326,430.906c9.017,1.734,20.251-2.268,29.409-3.008c26.847-2.17,53.832,13.98,69.256,35.417
		c6.373,8.858,10.83,21.121,13.531,31.689c1.822,7.124,4.503,41.993,11.356,42.903c20.316,2.701,38.208-39.141,79.772-5.209
		c5.373,6.322,12.624,17.13,22.02,16.875c4.183-0.113,4.731-0.989,7.415-3.836c1.836-6.333,0.799-10.983-2.3-16.796
		c-7.562-14.183-23.426-24.74-38.635-28.949c-18.878-5.226-36.516-1.992-53.939,5.972c-5.311-33.217-18.96-60.94-46.686-81.095
		c-18.395-13.373-41.731-21.319-64.626-19.632c-11.514,1.415-26.378,2.051-34.471,11.299c-0.975,3.362-1.87,5.619-0.161,9.045
		C2156.888,428.83,2159.953,430.256,2163.326,430.906z"/>
	<path d="M2908.59,2237.214c-9.887-4.582-22.74-5.737-33.404-7.553c-45.971-7.825-88.812-9.559-135.374-8.731
		c-4.313-36.24-5.599-73.185-8.2-109.6c-4.328-60.561-9.11-121.249-12.005-181.892c34.683,9.285,66.637,8.15,98.442-10.017
		c27.33-15.61,47.92-40.804,56.109-71.352c0.467-1.742,0.891-3.493,1.271-5.254c0.38-1.763,0.718-3.534,1.011-5.313
		c0.292-1.778,0.541-3.562,0.746-5.353c0.207-1.791,0.369-3.585,0.486-5.384c0.117-1.799,0.189-3.6,0.218-5.404
		c0.028-1.802,0.012-3.604-0.048-5.404c-0.06-1.802-0.165-3.602-0.313-5.398c-0.149-1.797-0.342-3.589-0.579-5.376
		c-0.235-1.787-0.516-3.568-0.842-5.342c-0.324-1.772-0.691-3.536-1.102-5.291c-0.412-1.755-0.867-3.499-1.364-5.232
		c-0.497-1.732-1.037-3.452-1.619-5.158c-0.582-1.706-1.205-3.397-1.87-5.073c-0.665-1.676-1.371-3.334-2.119-4.974
		c-0.746-1.642-1.532-3.264-2.359-4.864c-0.827-1.603-1.692-3.184-2.596-4.743c-3.373-5.706-7.548-11.452-12.02-16.327
		c21.536-14.779,36.4-33.485,41.231-59.685c4.322-23.457-0.734-46.776-14.531-66.205c-7.209-10.147-15.904-17.997-25.737-25.505
		c16.663-19.861,27.669-40.036,25.44-67.123c-2.506-30.417-20.926-54.875-43.821-73.584l-2.282-1.85
		c15.229-17.022,23.822-37.731,22.723-60.883c-1.266-26.615-16.336-52.895-36.265-70.137c-3.96-3.427-8.079-6.833-12.378-9.828
		c11.127-20.595,16.734-42.426,10.096-65.759c-5.44-19.13-19.61-35.982-37.194-45.245c-2.725-1.416-5.487-2.757-8.285-4.023
		c9.952-17.844,13.618-37.545,7.799-57.558c-5.517-18.971-19.672-35.372-37.09-44.561c-4.568-2.41-9.364-4.429-14.104-6.466
		c0.763-25.974-0.831-51.765-19.61-71.987c-9.35-10.073-22.353-16.672-36.183-17.212c-13.615-0.534-26.443,4.896-36.214,14.263
		c-15.889,15.234-22.46,37.971-22.545,59.491c0.002,5.164,0.073,10.328,0.212,15.491c-18.172,5.042-31.963,14.717-41.344,31.491
		c-10.994,19.669-11.706,42.107-5.308,63.287c0.774,2.623,1.628,5.219,2.562,7.788c-22.488,14.198-38.72,33.129-44.35,59.736
		c-4.231,20.008-0.751,37.519,6.367,56.346c-20.486,14.051-35.406,31.683-40.025,56.654c-4.692,25.367,2.884,50.629,17.548,71.431
		c0.887,1.26,1.802,2.5,2.743,3.72c-22.909,13.816-39.33,31.824-46.059,58.256c-0.378,1.444-0.72,2.898-1.025,4.361
		c-0.307,1.461-0.576,2.93-0.808,4.407c-0.234,1.474-0.43,2.955-0.591,4.44c-0.16,1.484-0.284,2.972-0.373,4.463
		c-0.087,1.491-0.136,2.984-0.147,4.477c-0.013,1.493,0.01,2.987,0.071,4.48c0.062,1.492,0.16,2.981,0.294,4.469
		c0.134,1.488,0.305,2.971,0.514,4.449c0.207,1.48,0.451,2.954,0.732,4.421s0.598,2.927,0.952,4.378
		c0.352,1.452,0.74,2.894,1.164,4.325c0.424,1.433,0.883,2.854,1.378,4.262c0.493,1.411,1.022,2.807,1.585,4.189
		c0.563,1.384,1.16,2.753,1.791,4.107c0.631,1.354,1.296,2.691,1.994,4.011c0.697,1.322,1.426,2.625,2.186,3.909
		c3.537,5.918,7.757,11.621,11.963,17.076c-22.695,17.243-36.369,39.143-40.042,67.637c-0.213,1.65-0.385,3.303-0.517,4.96
		c-0.13,1.659-0.219,3.319-0.268,4.98c-0.047,1.663-0.053,3.326-0.017,4.989c0.034,1.663,0.11,3.324,0.229,4.983
		c0.119,1.659,0.278,3.314,0.478,4.963c0.202,1.651,0.444,3.297,0.726,4.935c0.282,1.638,0.605,3.269,0.969,4.892
		c0.364,1.623,0.767,3.236,1.212,4.839c0.444,1.603,0.929,3.193,1.455,4.771c0.523,1.578,1.087,3.142,1.689,4.692
		c0.601,1.55,1.24,3.085,1.918,4.604c0.68,1.518,1.396,3.018,2.15,4.5c0.753,1.482,1.543,2.945,2.37,4.39
		c0.827,1.443,1.688,2.864,2.585,4.266c0.898,1.399,1.83,2.776,2.796,4.13c0.966,1.354,1.965,2.683,2.997,3.986
		c5.068,6.46,11.082,11.796,17.469,16.909c-11.596,16.791-20.576,31.457-25.406,51.4
		c-144.325-145.046-258.628-377.776-333.994-567.457c-15.041-37.805-29.632-75.784-43.773-113.936
		c-8.624-23.169-17.144-55.284-30.598-75.662c-10.266-15.545-30.132-23.429-48.234-23.542c-15.158-0.093-29.389,4.497-40.214,15.35
		c-13.858,13.898-50.262,106.628-61.615,132.258c-16.491,37.237-145.893,317.091-161.511,321.156
		c-22.539-12.488-101.945-161.37-119.456-193.245c-10.613-19.316-21.536-48.33-38.477-62.448
		c-14.169-11.811-33.788-14.856-51.349-9.746c-9.333,2.715-17.229,7.76-23.361,15.316c-9.977,12.293-17.342,27.37-25.308,41.064
		c-12.084,20.745-24.33,41.396-36.736,61.951c-28.983,47.977-61.29,94.419-94.103,139.856
		c-66.538-9.085-134.421-28.231-176.559-84.165c-78.462-104.159-57.714-252.32-63.146-373.929
		c-3.701-82.823-15.121-165.551-50.296-241.451c-23.206-50.078-54.231-93.402-95.826-129.896
		c-52.912-46.42-119.586-80.256-189.7-90.369c-22.265-3.212-45.558-3.994-67.956-1.709
		c-87.758,10.003-157.232,53.525-227.462,103.464c-23.355,16.607-46.335,35.435-72.033,48.302
		c-71.828,35.971-185.174,49.742-236.196,114.399c-38.528,48.827-48.747,128.261-41.25,188.678
		c3.557,28.661,13.845,53.239,37.05,71.349c39.786,31.047,100.827,41.318,150.341,44.448c-21.573,7.183-40.785,15.663-51.995,37.045
		c-9.531,18.178-8.441,38.861-2.108,57.815c0.522,1.569,1.083,3.123,1.681,4.664c0.599,1.542,1.236,3.068,1.91,4.576
		c0.674,1.51,1.386,3.003,2.133,4.477c0.748,1.475,1.532,2.929,2.352,4.364c0.82,1.437,1.675,2.851,2.565,4.243
		c0.89,1.394,1.814,2.764,2.772,4.113c0.958,1.348,1.948,2.671,2.971,3.969c1.023,1.299,2.078,2.573,3.164,3.819
		c1.086,1.246,2.202,2.466,3.348,3.658c1.147,1.192,2.321,2.354,3.526,3.486c1.203,1.134,2.435,2.237,3.693,3.311
		c1.258,1.071,2.542,2.112,3.852,3.121c1.31,1.009,2.644,1.986,4.002,2.929c1.358,0.943,2.738,1.852,4.142,2.726
		c1.403,0.876,2.826,1.716,4.271,2.52c1.444,0.804,2.908,1.573,4.39,2.305c19.087,9.505,40.509,12.483,61.591,13.601
		c86.061,4.559,138.528-26.474,216.793-45.299c36.827-8.859,73.801-11.559,111.023-17.271c12.44,20.096,24.471,39.759,33.85,61.538
		c41.607,96.631,40.126,215.389,57.711,318.862c13.632,80.202,35.968,155.545,65.332,231.318
		c-19.486,28.186-27.149,57.832-29.197,91.795c-55.358,25.669-100.959,63.872-122.566,122.455
		c-12.282,33.296-16.858,72.719-1.587,105.857c6.878,14.921,21.429,35.186,37.045,41.395c5.107,2.031,11.065,2.398,16.118-0.076
		c9.291-4.553,12.952-18.296,16.706-27.189c6.568,10.415,14.802,23.587,27.757,26.409c5.644,1.231,11.116-0.384,15.807-3.593
		c15.599-10.667,22.406-34.451,25.124-52.31c0.717-4.495,1.189-9.016,1.415-13.562c0.226-4.546,0.205-9.09-0.062-13.632
		c-0.269-4.544-0.784-9.06-1.545-13.548c-0.761-4.487-1.763-8.92-3.006-13.299c33.895-35.386,74.465-56.126,118.574-75.761
		c-43.991,39.208-91.518,90.188-95.422,152.359c-1.415,22.57,4.24,44.395,19.669,61.51c6.624,7.347,16.681,17.297,26.991,18.037
		c4.669,0.336,8.898-1.475,12.297-4.556c6.37-5.777,9.884-14.906,12.737-22.856c11.649,18.887,25.545,38.72,48.685,44.203
		c5.229,1.237,10.452,0.59,14.876-2.568c21.477-15.327,18.387-65.88,26.519-88.436c4.494-12.466,16.392-26.189,24.796-36.494
		c45.943,38.177,93.295,76.487,145.837,105.349c6.458,82.518,40.496,158.867,100.258,216.544
		c-11.864,26.042-23.169,52.437-37.047,77.485l-1.393,0.181c-14.59,2.008-28.971,5.695-43.519,8.096
		c-17.388,3.008-34.889,5.012-52.505,6.014c-17.617,1-35.234,0.991-52.849-0.025c-105.49-6.681-168.412-58.298-256.597-104.911
		c-68.256-36.076-140.227-61.719-217.66-67.694c0.602-26.036-1.989-50.03-21.24-69.784c-5.921-6.076-12.35-10.082-19.633-14.246
		c11.022-22.55,15.118-46.454,6.443-70.631c-6.78-18.892-19.635-31.175-36.559-41.084c11.729-20.014,19.016-40.948,13.356-64.445
		c-5.268-21.872-20.918-38.349-39.765-49.541c7.181-21.932,11.271-43.632,0.141-65.344c-7.816-15.245-20.203-25.155-35.558-32.132
		c4.689-20.635,5.994-42.098-6.121-60.697c-6.503-9.986-15.203-16.997-25.895-21.969c-0.542-0.251-1.077-0.528-1.613-0.794
		c-0.105-20.347,0.545-41.57-15.101-57.002c-9.935-9.797-23.988-14.813-37.844-14.582c-13.774,0.232-26.765,5.797-35.971,16.135
		c-13.675,15.359-14.031,34.926-13.988,54.296c-14.57,3.887-26.243,11.875-33.849,25.104c-10.461,18.192-9.404,38.019-4.13,57.55
		c-17.625,10.418-31.233,22.881-36.264,43.618c-4.339,17.887-0.261,34.177,6.31,50.827c-19.412,8.842-34.163,21.491-41.475,42.171
		c-7.957,22.502-3.534,43.423,6.648,64.021c0.862,1.742,1.752,3.469,2.672,5.181c-20.439,12.633-34.73,29.031-40.469,52.824
		c-0.317,1.288-0.6,2.584-0.851,3.887c-0.251,1.303-0.47,2.611-0.655,3.924c-0.185,1.314-0.338,2.632-0.457,3.952
		c-0.12,1.322-0.206,2.646-0.258,3.972c-0.053,1.326-0.072,2.652-0.059,3.977c0.014,1.326,0.061,2.651,0.141,3.974
		c0.08,1.326,0.194,2.648,0.34,3.966c0.147,1.319,0.326,2.632,0.539,3.941c0.213,1.311,0.458,2.614,0.736,3.909
		c0.278,1.298,0.588,2.588,0.931,3.87c0.343,1.281,0.718,2.553,1.124,3.816c0.406,1.262,0.844,2.513,1.314,3.754
		c0.469,1.241,0.97,2.469,1.501,3.683c0.531,1.217,1.092,2.419,1.684,3.607c0.591,1.187,1.212,2.358,1.862,3.514
		c0.65,1.156,1.329,2.296,2.037,3.418c2.998,4.621,6.207,9.091,9.627,13.409c-19.179,18.675-30.245,38.841-30.797,65.996
		c-0.518,25.455,10.221,50.389,28.049,68.411c17.431,17.618,37.476,25.161,60.899,31.683
		c-45.771,32.403-90.171,68.341-139.463,95.317c-22.198,12.15-44.782,21.167-68.213,30.528c-5.444,2.175-11.231,4.822-12.86,11.042
		c-0.719,2.743-0.008,4.669,0.816,7.249c3.346,3.014,5.506,4.195,10.117,4c15.153-0.638,32.49-10.31,46.01-16.633
		c63.359-29.612,112.711-68.99,169.31-108.871c78.724-55.468,166.976-88.99,263.602-93.304
		c110.06-4.915,212.465,32.226,306.449,86.722c47.366,27.466,91.809,56.327,144.574,72.886
		c70.973,22.271,152.325,19.353,224.279,2.703c-11.438,17.313-22.387,35.593-35.223,51.878
		c-17.121-1.277-31.562,5.113-44.499,16.146c-18.423,15.715-35.025,45.059-36.711,69.42c-0.579,8.347,1.136,16.503,7.133,22.652
		c10.553,10.827,40.929,13.802,55.793,15.497c4.051,7.325,8.305,13.511,14.435,19.339c28.867,9.274,40.536-3.596,66.733-5.607
		c12.805-0.983,25.904,0.689,38.751,0.489c31.293-0.489,70.086-4.491,98.388-18.943c12.059-6.158,21.991-14.884,26.214-28.081
		c12.376-38.68-15.175-78.442-14.274-117.631c0.751-32.564,18.279-66.089,35.991-92.575c6.489-9.703,18.449-23.796,20.455-35.44
		c1.915-11.144-19.127-45.443-22.381-60.982c-4.133-19.726-2.22-39.7-0.534-59.57c31.008,4.059,60.909,5.559,92.193,3.896
		c5.782,10.254,11.277,20.853,17.618,30.765c28.149,45.234,61.27,85.406,98.216,123.707c-15.271,49.335-34.225,96.14-61.041,140.413
		c-5.203,8.59-10.514,20.551-19.932,25.217c-5.599,2.774-11.907,4.025-17.395,7.042c-16.375,8.991-29.062,33.999-35.355,50.914
		c-4.466,12-11.339,31.81-5.192,43.951c5.531,10.923,20.745,15.847,31.771,18.853c6.774,1.827,13.581,3.521,20.421,5.082
		c3.26,8.319,5.901,13.503,14.392,17.2c22.638,9.856,45.025-5.582,66.858-7.757c8.989-0.898,19.082,1.37,28.279,1.503
		c36.056,0.52,75.544-1.938,109.075-16.243c16.093-6.867,31.03-17.37,37.457-34.319c11.469-30.248-6.395-72.937-9.076-104.458
		c-3.263-38.403,1.647-75.903,12.062-112.894c4.181-14.85,11.014-30.042,12.226-45.482c0.867-11.076-1.542-22.039-6.531-31.94
		c-5.765-11.441-14.875-20.96-20.937-32.288c-15.977-29.853-9.367-69.764,0.237-100.538c0.401-1.284,0.814-2.564,1.24-3.839
		c141.935,122.678,317.229,195.94,506.991,182.076c25.828-1.723,51.469-4.943,76.922-9.658
		c48.349-9.358,153.102-38.505,183.551-75.134c5.655-6.802,7.989-14.073,9.774-22.59c-2.511-9.768-4.689-17.036-12.243-24.228
		c-0.427-0.407-0.822-0.847-1.262-1.24c-3.599-3.203-7.788-3.698-12.373-4.226c-16.991-1.952-34.16-0.85-51.214-1.678
		c-33.432-1.619-70.414-6.729-102.532-16.35c133.729-87.484,305.707-122.122,462.399-89.278c8.672,1.816,19.322,6.406,27.57,1.96
		c2.458-3.667,3.192-5.268,3.39-9.844C2915.031,2241.251,2912.742,2239.141,2908.59,2237.214z M614.025,2376.463
		c-79.27-0.729-141.277,9.325-215.505,40.124c-21.966,9.262-42.96,20.969-64.033,32.084c-23.474-1.277-45.022-4.076-64.836-17.768
		c-16.096-11.124-28.046-27.409-31.323-46.937c-3.289-19.607,1.146-41.689,15.278-56.135c7.075-7.234,15.363-13.604,21.098-21.98
		c1.427-10.045-21.517-27.83-26.436-44.042c-2.892-9.534-2.733-19.265-0.379-28.895c8.984-36.762,39.987-32.867,48.857-49.663
		c0.71-10.737-9.898-20.833-15.123-29.663c-0.82-1.382-1.568-2.803-2.244-4.263c-0.675-1.459-1.275-2.949-1.798-4.469
		c-0.523-1.52-0.968-3.063-1.333-4.63c-0.366-1.565-0.651-3.145-0.856-4.74c-0.204-1.595-0.327-3.197-0.368-4.805
		c-0.041-1.606,0-3.212,0.123-4.816c0.123-1.603,0.327-3.195,0.613-4.777c0.285-1.582,0.651-3.146,1.096-4.692
		c6.845-23.599,25.922-27.395,43.598-39.11c13.055-8.655-12.628-37.46-6.843-58.965c5.105-18.98,17.155-21.663,32.033-30.711
		c16.864-10.257-3.184-37.915,1.209-54.089c6.491-23.895,22.743-18.062,37.646-27.884c11.469-7.556,4.02-36.095,7.655-48.383
		c2.881-9.74,9.814-14.322,18.472-18.646c3.816-0.446,8.07-0.797,11.892-0.252c35.887,5.11,15.974,48.053,30.74,67.623
		c3.921,5.192,10.147,5.333,16.113,6.342c3.607,3.217,7.237,6.505,9.7,10.717c10.003,17.104,3.768,31.706,0.215,49.256
		c-0.997,4.921-1.093,10.726,2.212,14.881c4.344,5.463,12.898,5.316,19.265,6.045c8.077,6.678,15.765,15.096,19.805,24.89
		c7.367,17.847,0.234,29.938-5.921,46.344c-9.977,26.596,30.229,27.279,40.014,50.335c16.302,38.417-12.807,48.838-21.825,71.894
		c2.421,9.929,34.697,21.144,43.256,33.305c3.509,4.989,5.661,12.099,7.127,18.028c9.005,36.409-14.127,40.855-15.896,59.679
		c-0.974,10.35,27.073,21.483,34.5,30.443C613.479,2342.207,615.708,2358.856,614.025,2376.463z M2483.6,1788.84
		c1.712-5.426,3.765-12.13,7.24-16.644c7.251-9.412,19.387-17.539,22.124-29.483c-1.327-11.084-23.09-22.248-30.576-31.378
		c-13.291-16.209-17.943-37.429-15.115-57.954c3.762-27.305,20.324-41.751,40.728-57.697c3.983-3.113,7.896-5.568,8.506-10.731
		l0.754,0.602c-3.907-15.226-30.457-20.144-34.16-53.835c-3.257-29.598,9.655-56.51,36.703-70.089
		c7.358-3.695,21.519-8.26,26.601-14.61c-1.407-11.248-23.652-26.446-30.152-39.109c-7.726-15.051-8.144-31.353-2.991-47.273
		c8.333-25.745,22.486-25.395,41.576-37.369c12.353-7.748-6.692-28.87-9.884-39.197c-3.175-10.282-2.839-19.395-0.017-29.604
		c7.438-26.889,18.703-31.98,40.466-45.316c3.042-1.864,8.333-5.717,9.296-9.435c2.274-8.774-15.576-34.708-10.551-54.344
		c7.918-30.954,25.178-25.395,45.55-38.782c11.675-7.672,1.876-34.728,6.237-51.77c3.675-14.353,12.127-23.805,24.556-31.338
		c2.788-0.299,5.571-0.588,8.376-0.61c8.449-0.068,17.971,4.104,23.692,10.296c14.342,15.525,12.562,40.483,11.723,59.895
		c-1.028,23.81,28.55,19.135,42.039,34.785c4.918,5.703,7.715,12.655,9.712,19.827c8.61,30.932-12.963,37.101-14.587,60.056
		c4.862,8.918,16.412,10.932,25.164,14.842c13.2,5.893,22.649,14.892,27.542,28.661c8.898,25.031-3.415,39.412-12.638,60.759
		c-1.429,3.311-2.667,6.808-0.763,10.189c7.568,13.455,34.064,18.333,46.977,49.833c7.828,19.096,5.85,42.426-6.531,59.205
		c-5.85,7.929-13.745,15.633-17.601,24.706c0.556,6.297,31.18,28.618,39.646,41.488c39.194,59.598-19.429,83.403-20.245,100.628
		c-0.41,8.686,26.581,24.127,33.031,31.421c11.842,13.39,17.446,31.985,16.067,49.748c-2.763,35.581-24.48,39.426-44.931,59.335
		c-2.356,2.294-4.311,4.819-3.551,8.288c3.378,15.384,30.917,26.285,32.262,69.448c0.039,1.526,0.041,3.05,0.006,4.573
		c-0.036,1.525-0.109,3.048-0.22,4.568c-0.113,1.522-0.263,3.039-0.452,4.554c-0.187,1.514-0.411,3.022-0.675,4.523
		c-0.262,1.503-0.561,2.998-0.898,4.486c-0.337,1.488-0.711,2.965-1.122,4.432c-0.412,1.469-0.86,2.927-1.342,4.373
		c-0.484,1.448-1.004,2.882-1.559,4.302c-0.555,1.42-1.146,2.826-1.771,4.218c-0.623,1.392-1.282,2.766-1.977,4.124
		c-0.693,1.358-1.42,2.698-2.181,4.02c-0.761,1.322-1.554,2.624-2.379,3.907c-0.825,1.282-1.682,2.544-2.571,3.785
		c-0.887,1.239-1.805,2.456-2.754,3.65c-0.949,1.194-1.927,2.363-2.935,3.508c-1.008,1.145-2.042,2.265-3.104,3.359
		c-18.531,19.449-43.211,30.511-70.078,30.796c-38.912,0.413-61.129-17.389-87.521-43.273c-13.099,1.737-27.18,20.028-38.479,27.562
		c-1.365,0.902-2.752,1.769-4.161,2.602s-2.838,1.628-4.288,2.387c-1.448,0.761-2.915,1.485-4.401,2.172
		c-1.486,0.687-2.988,1.337-4.506,1.949c-1.516,0.61-3.048,1.183-4.596,1.718c-1.546,0.535-3.105,1.031-4.675,1.489
		c-1.573,0.456-3.154,0.873-4.746,1.251c-1.593,0.377-3.194,0.714-4.802,1.011c-1.61,0.297-3.226,0.554-4.847,0.768
		c-1.621,0.216-3.248,0.392-4.879,0.525c-1.631,0.136-3.264,0.23-4.901,0.283c-1.635,0.051-3.27,0.062-4.907,0.034
		c-1.636-0.03-3.271-0.101-4.904-0.212c-1.633-0.111-3.262-0.264-4.887-0.458c-1.623-0.192-3.242-0.425-4.856-0.7
		s-3.219-0.589-4.816-0.943c-1.657-0.363-3.304-0.768-4.94-1.215c-1.637-0.448-3.261-0.936-4.873-1.463
		c-1.612-0.527-3.21-1.095-4.793-1.703c-1.584-0.608-3.152-1.255-4.703-1.941c-1.552-0.688-3.085-1.413-4.599-2.175
		c-1.516-0.763-3.011-1.563-4.486-2.401c-1.474-0.838-2.927-1.713-4.359-2.624c-1.431-0.912-2.839-1.858-4.223-2.839
		c-1.383-0.981-2.74-1.996-4.073-3.045c-1.333-1.049-2.639-2.131-3.918-3.246c-1.279-1.117-2.528-2.264-3.749-3.441
		c-1.222-1.177-2.414-2.384-3.573-3.621c-1.162-1.238-2.291-2.503-3.387-3.797c-1.098-1.294-2.163-2.614-3.195-3.96
		c-1.03-1.346-2.027-2.718-2.991-4.116c-0.962-1.397-1.889-2.817-2.78-4.26C2479.561,1842.362,2475.281,1815.21,2483.6,1788.84z
		 M1405.61,1437.248c16.783-24.327,33.018-49.015,48.705-74.064c15.584-25.154,30.851-50.498,45.802-76.033
		c7.698-12.892,15.2-27.612,24.57-39.352c3.35-4.198,9.52-6.11,14.342-8.144c3.212-0.319,6.483-0.548,9.709-0.568
		c7.96-0.051,13.96,2.941,19.226,8.825c13.183,14.729,22.663,37.254,32.336,54.519l64.9,116.041
		c11.576,20.282,22.853,42.14,36.847,60.866c7.986,10.689,16.921,19.802,26.553,29.014l-19.486,22.228
		c-36.881-9.859-73.521-19.909-111.074-26.946c-73.078-13.576-146.017-18.695-219.977-24.906
		C1386.308,1464.436,1396.359,1450.931,1405.61,1437.248z M1767.539,1579.799c-17.836,29.997-34.386,57.146-59.714,81.761
		c-15.607,13.655-32.375,24.028-50.406,34.05c-7.624-51.214-4.232-102.131,21.889-147.656
		C1709.579,1554.401,1739.454,1566.971,1767.539,1579.799z M1555.963,1519.69c-8.554,39.279-23.141,70.44-51.126,99.411
		c-15.367,15.698-32.906,28.24-53.321,36.398c-8.853-47.31,1.294-99.86,10.387-146.464
		C1493.312,1512.159,1524.755,1514.905,1555.963,1519.69z M1251.449,1477.498c19.647,7.167,40.169,11.76,60.669,15.669
		c12.918,2.463,26.248,4.201,38.731,8.373c-16.816,23.421-34.09,44.361-55.307,63.968c-16.644,15-34.573,28.581-55.976,35.836
		C1229.986,1559.045,1231.071,1516.455,1251.449,1477.498z M1118.818,1342.857c12.652,27.418,27.726,52.058,45.344,76.513
		c-23.064,9.751-47.669,14.875-72.513,17.062c-2.571,0.337-5.152,0.556-7.743,0.658c-8.658,0.316-25.262,1.421-31.57-5.579
		c-2.799-3.101-3.059-7.568-2.302-11.488C1054.768,1395.5,1098.31,1357.755,1118.818,1342.857z M1086.082,1075.466
		c-16.113-2.2-30.488-5.243-45.689-11.07c-5.065-2.715-10.918-5.893-13.864-11.025c-2.356-4.102-2.407-9.127-1.059-13.576
		c5.856-19.347,38.782-38.059,55.824-46.381c0.932,0.28,1.958,1.172,2.771,1.723
		C1089.192,1013.625,1087.291,1055.231,1086.082,1075.466z M1098.528,1271.793c-22.118,0.401-41.895-0.811-63.301-6.61
		c-6.669-2.52-14.621-5.254-18.762-11.477c-2.537-3.811-3.096-8.621-1.896-12.991c6.387-23.291,50.897-50.084,71.118-62.106
		C1087.971,1180.808,1096.635,1260.242,1098.528,1271.793z M1066.291,867.766c-14.101,0.455-28.406,0.531-42.446-0.912
		c-7.418-1.356-16.706-3-22.395-8.291c-3.198-2.975-4.72-7.458-4.455-11.748c1.226-19.774,27.361-45.852,41.643-58.101
		C1049.833,803.451,1061.2,848.018,1066.291,867.766z M331.465,1146.481l0.698,0.797c-2.413,7.958-7.563,19.511-12.179,26.457
		l-2.774-1.486c-4.241-5.2-6.475-10.599-9.075-16.7C315.771,1152.255,323.695,1149.456,331.465,1146.481z M818.73,2085.773
		c1.799,25.596,9.107,45.163,0.37,70.705c-2.424,7.082-5.15,13.836-12.167,17.293c-3.827-0.384-4.796-0.294-7.449-3.438
		c-8.573-10.164-8-32.477-7.344-45.132c-1.155-1.678-1.37-2.147-3.003-3.695c-3.082-2.924-6.839-4.243-11.005-4.144
		c-21.616,8.661-17.817,46.652-28.935,59.341c-1.398-0.218-1.497-0.141-2.969-0.898c-9.825-5.053-19.342-24.779-22.056-34.573
		c-17.593-63.505,29.946-134.06,81.275-166.975c10.15-6.506,42.262-19.141,47.776-26.488c2.48-3.302,4.006-35.796,5.308-42.751
		c2.616-13.977,7.409-26.531,14.31-38.906c10.412,14.517,17.22,34.748,25.85,50.765c14.647,27.183,31.694,53.073,48.838,78.725
		C903.768,2016.283,844.221,2043.093,818.73,2085.773z M1214.068,2645.795c-2.76,6.658-7.729,13.167-11.251,19.539
		c-7.672,13.884-9.404,31.2-9.977,46.765l-17.113-3.435l-19.271-4.689c1.32-7.84,3.49-15.438,6.508-22.793
		c8.079-20.002,20.22-37.853,40.689-46.542c4.528,0.138,6.144,0.994,9.813,3.353
		C1215.271,2641.543,1215.701,2641.86,1214.068,2645.795z M1271.036,2709.684c-5.737,13.568-15.59,19.83-28.629,25.146
		c-3.828,0.486-8.943,1.525-12.734,0.61c-3.709-0.895-6.85-3.824-8.85-6.969c-6.223-9.777-3.887-24.776-1.514-35.578
		c4.178-19.025,14.72-36.084,31.146-46.714c2.921-0.158,5.74-0.542,8.452,0.862c5.217,2.701,9.034,9.087,11.231,14.296
		C1275.937,2675.088,1276.83,2695.986,1271.036,2709.684z M1457.194,2457.561c-13.045,14.07-22.717,31.971-31.488,48.917
		c-12.599,24.35-22.454,49.524-23.689,77.193c-0.252,5.966-0.139,11.927,0.339,17.881c0.48,5.953,1.321,11.854,2.522,17.703
		c4.184,20.714,21.429,61.417,9.562,80.479c-7.87,12.644-26.149,16.107-39.587,19.435c-27.491,5.319-55.366,6.435-83.295,6.285
		c5.991-20.033,8.265-40.132,3.37-60.677c-3.412-14.322-10.522-29.853-23.765-37.48c-11.853-6.825-22.33-5.096-34.779-1.695
		c12.09-16.926,22.895-35.575,33.104-53.711c6.72-11.938,58.197-109.961,56.479-117.75c-1.22-5.545-37.979-40.042-44.934-49.372
		c-30.915-41.468-51.149-94.453-57.595-145.622c25.855,10.325,50.96,23.483,76.62,34.423c43.768,18.658,87.665,30.573,134.3,39.768
		C1429.954,2386.409,1435.18,2409.474,1457.194,2457.561z M1588.61,2718.076c-6.215,12.904-6.802,27.92-10.627,41.675
		c-4.407,1.082-8.76-0.766-13.002-1.958l-13.794-5.667c0.551-5.392,1.607-10.627,2.907-15.881
		c5.169-20.898,14.367-40.838,33.333-52.361c4.491,2.147,8.839,4.342,10.624,9.311
		C1599.816,2698.113,1590.982,2713.152,1588.61,2718.076z M1660.349,2756.985c-6.435,14.198-17.198,19.525-31.084,24.347
		c-8.604,1.387-16.827,1.777-25.531,1.893c-0.26-9.556-0.497-19.05,0.684-28.556c3.313-26.66,13.44-49.931,35.073-66.609
		c2.427-0.073,4.099,0.141,6.384,1.13c5.864,2.54,10.681,11.186,13.042,16.712
		C1665.317,2720.892,1667.156,2741.96,1660.349,2756.985z M1792.812,2357.062c-2.884,26.748-1.435,56.364,12.906,79.939
		c8.068,13.257,19.89,24.943,21.181,41.169c1.407,17.703-11.667,44.686-16.079,62.674c-3.98,16.229-6.226,33.638-7.39,50.265
		c-1.819,25.988-1.517,52.513,3.218,78.18c3.172,17.214,9.994,36.443,9.587,53.906c-0.24,10.141-3.551,19.839-11.025,26.904
		c-26.367,24.915-92.06,24.632-127.356,24.341c2.966-7.438,5.525-15.274,7.071-23.138c4.231-21.556,1.237-48.799-11.571-67.089
		c-25.511-36.429-40.025-9.584-57.587-13c-1.893-5.698,14.618-29.008,18.197-35.468c24.053-43.4,52.25-100.159,58.586-149.483
		c-9.364-15.33-40.265-42.022-54.423-58.841c-79.578-94.532-129.337-218.965-117.71-343.635
		c6.014-64.471,32.531-133.682,84.487-174.794c5.443-4.308,11.022-8.734,17.116-12.098c8.585-4.743,20.731-8.486,27.782-15.096
		c2.794-2.619,3.511-5.082,3.359-8.927c-0.15-3.74-2.782-6.771-5.359-9.133c-7.554-2.856-13.082-0.314-20.175,2.743
		c-58.058,25.019-93.315,82.086-115.701,138.687c-4.709,11.907-6.839,25.726-9.593,38.228
		c-15.356,69.722-7.633,147.238,14.539,214.793c6.551,19.969,15.132,39.118,23.528,58.358l-1.311,0.054
		c-169.054,5.489-350.24-86.719-471.839-199.228l11.717-11.587c20.957-18.836,43.327-36.576,67.245-51.527
		c18.084-11.308,37.632-20.935,54.561-33.96c33.488-25.768,47.982-64.216,52.894-105.139c3.02-25.158,1.927-115.224-14.644-133.167
		c-2.715-2.941-4.689-3.184-8.511-3.525c-2.605,1.008-5.062,1.771-6.907,4.017c-2.545,3.093-2.992,7.395-2.763,11.248
		c0.534,9.031,3.878,18.158,5.469,27.093c2.658,14.918,4.116,30.519,4.825,45.646c2.344,49.971-3.636,103.363-46.392,135.402
		c-16.689,12.505-35.821,21.672-53.392,32.875c-41.369,26.37-78.075,57.954-107.007,97.767c-7.87,10.83-16.695,22.954-20.901,35.807
		c-5.732,17.502-3.946,57.589-16.07,70.923l-3.458-0.119c-6.116-3.09-9.924-7.867-13.915-13.311
		c-8.867-12.084-18.839-28.615-16.336-43.985c0.633-3.889,2.133-9.562,1.175-13.435c-1.107-4.483-5.72-7.813-9.624-9.545
		c-2.345-0.096-4.102-0.13-6.226,1.104c-15.302,8.906-23.613,47.081-28.7,63.137c-4.915-4.706-9.576-9.827-13.082-15.686
		c-10.305-17.208-10.63-36.739-5.585-55.671c20.438-76.643,115.235-153.17,184.356-188.132
		c10.941-5.537,22.358-11.217,33.968-15.164c9.291-3.158,19.279-4.571,27.81-9.573c2.088-2.706,2.749-5.579,2.35-8.98
		c-0.381-3.263-1.509-6.093-4.449-7.87c-8.551-5.169-26.144,1.26-35.457,3.494c-12.579-39.867-19.37-85.4-12.779-127.035
		c2.339-14.771,7.861-28.867,9.486-43.737c0.294-2.678-2.243-5.613-4.07-7.554c-2.429-2.582-4.333-2.974-7.715-3.206
		c-4.822,2.226-7.313,4.63-9.966,9.279c-26.836,47.005-11.036,131.873,1.983,181.514c-34.635,19.019-65.889,40.966-98.891,62.454
		c-23.618-28.556-43.44-63.044-60.742-95.761c-56.42-106.704-89.739-217.705-105.674-337.24
		c-12.101-90.795-14.282-186.881-48.717-272.812c-8.706-21.728-20.084-42.093-31.452-62.499
		c75.132-2.28,124.345-12.545,178.816-68.908c40.561-41.968,68.002-101.125,66.778-160.294
		c-0.777-37.525-13.059-79.343-41.626-105.428c-3.969-3.621-8.175-6.079-13.816-5.234c-4.04,0.607-6.15,2.299-8.78,5.226
		c-4.147,14.893,17.127,28.641,24.734,40.296c6.709,10.285,10.472,22.305,12.785,34.279c9.644,49.892-6.517,106.555-34.864,147.918
		c-23.149,33.782-55.468,61.115-93.97,75.606c-36.977,13.915-75.196,12.537-113.953,14.119c-21.662,0.832-43.204,2.912-64.626,6.24
		c-31.027,4.955-61.58,11.98-91.657,21.076c-34.27,10.361-67.629,22.635-102.927,29.276c-40.491,7.616-99.484,12.449-135.119-13.068
		c-14.317-10.251-26.476-26.743-29.26-44.271c-1.204-7.582-3.226-21,1.439-27.395l2.567,0.026c1.912,3.723,4.157,7.344,7.17,10.282
		c21.976,21.412,61.607,23.528,90.346,22.714c110.193-3.116,147.114-41.197,217.974-116.382
		c73.42-21.46,115.797-49.536,154.54-115.676c34.672,14.37,32.347,39.615,49.454,48.417c2.848,0.147,4.87,0.223,7.554-1.011
		c3.014-1.387,4.633-3.104,5.525-6.291c2.26-8.054-2.918-17.361-7.017-24.259c-14.367-24.175-37.793-37.398-64.397-44.16
		c-15.972-4.062-45.383-8.974-59.931,0.359c-3.466,2.226-6.423,5.765-6.754,10.034c-0.257,3.288,0.732,6.61,2.991,9.025
		c6.757,7.217,37.078,0.78,48.245,1.11c-2.778,5.667-5.877,11.151-9.297,16.455c-3.42,5.305-7.137,10.391-11.152,15.26
		c-53.581,65.866-172.24,85.338-253.309,93.773c-73.341,7.632-221.793,11.017-280.219-37.22
		c-18.865-15.573-25.59-37.375-27.611-60.838c-4.536-52.646,3.915-124.95,39.316-166.234
		c44.903-52.364,158.397-71.725,223.32-103.916c25.443-12.618,48.353-30.282,71.516-46.595
		C559.715,631.637,630.595,584.228,723,577.596c27.474-1.633,56.682,3.003,83.095,10.35
		c101.945,28.35,171.729,89.292,223.132,180.121c-6.943,6.198-13.635,12.528-19.932,19.387
		c-14.695,16.008-36.471,41.96-34.728,65.168c0.67,8.929,4.991,16.361,11.918,21.918c20.926,16.788,59.338,15.291,84.405,13.087
		c7.587,26.245,9.698,55.022,11.943,82.143c-16.734,6.562-32.285,16.051-46.46,27.045c-14.486,11.235-32.047,27.135-33.833,46.485
		c-0.895,9.709,2.508,18.805,8.802,26.147c17.539,20.457,50.09,25.886,75.36,28.265c-0.367,19.301-0.446,38.604-0.237,57.909
		c-22.85,7.266-40.437,22.11-58.358,37.553c-14.971,12.895-36.471,31.545-37.381,52.835c-0.37,8.658,3.127,16.542,8.946,22.836
		c23.282,25.186,71.451,24.073,103.077,24.621c3.367,8.932,5.915,18.282,8.731,27.406c-25.649,16.135-71.925,62.722-81.25,90.936
		c-3.034,9.175-3.641,20.299,1.121,29.031c4.446,8.155,12.828,12.359,21.375,14.954c35.474,10.774,94.532-3.104,126.662-19.824
		c15.816,12.183,32.161,22.562,49.502,32.375c-16.977,32.593-21.875,70.346-18.118,106.682c1.266,12.254,2.994,45.945,13.678,52.66
		c3.319,2.085,7.573,2.302,11.322,1.548c6.938-1.401,14.178-5.427,20.601-8.387c51.437-23.68,91.168-71.225,121.826-117.746
		c19.895,0.522,40.271,2.446,60.013,4.98c-8.087,42.443-24.163,128.004-5.565,166.709c1.884,3.918,4.497,7.678,9.003,8.717
		c11.02,2.537,26.073-8.096,35.028-13.723c58.406-36.694,86.343-79.225,101.309-145.806c26.113,6.13,51.977,10.203,77.812,17.856
		c-24.969,48.143-30.293,111.885-20.655,164.85c1.003,5.508,2.489,11.246,7.853,14.087c3.475,1.839,7.729,1.667,11.438,0.709
		c10.124-2.613,21.327-9.141,30.358-14.426c48.287-28.262,75.227-68.637,103.001-115.589c19.796,9.825,38.51,20.082,56.733,32.68
		c-20.435,30.324-33.045,62.671-40.319,98.459c-2.384,11.723-12.556,66.4-6.799,73.318c2.904,3.486,7.178,4.698,11.548,4.847
		c8.494,0.291,18.655-2.972,26.878-5.023c45.406-11.325,77.518-33.361,111.6-64.397c13.387,16.859,25.229,35.553,36.581,53.835
		c-10.458,9.548-20.418,19.031-29.384,30.05c-7.178,8.822-13.559,19.415-21.508,27.449c-1.616,1.635-3.189,2.387-5.325,3.15
		c-2.483,0.884-3.113,0.692-5.003,2.895c-5.051,5.896,9.875,68.877,11.774,80.583c16.169,99.764-3.633,199.259-63.626,281.538
		C1833.846,2261.731,1800.154,2288.945,1792.812,2357.062z M486.513,1165.509c-10.559,5.28-21.325,8.771-32.573,12.263
		c-11.121,2.669-22.412,4.692-33.635,6.881c-0.133-10.678-0.667-21.853,3.683-31.844c4.401-10.102,12.37-14.988,22.158-19.093
		c7.319-0.33,14.884,1.158,21.407,4.54C478.758,1144.066,483.072,1154.162,486.513,1165.509z M470.383,1121.756
		c29.223-3.61,57.471-7.842,86.154-14.604l-0.252,2.438c-16.44,17.429-34.558,33.793-54.533,47.075
		c-2.949-6.641-6.155-12.469-10.056-18.582C485.577,1131.038,478.293,1126.459,470.383,1121.756z M409.025,1144.306
		c-5.139-4.147-10.695-7.051-16.5-10.118c-8.082-2.367-15.777-3.52-24.11-4.489c16.912-2.299,34.098-2.195,51.14-2.588
		c2.271-0.206,3.893-0.088,6.127,0.192C421.839,1133.222,414.003,1138.708,409.025,1144.306z M387.229,1151.007
		c12.864,6.997,16.63,21.635,20.709,34.564c-9.805,1.243-19.488,1.491-29.361,1.672c-4.13,0.003-8.251-0.234-12.373-0.458
		c-9.432-0.514-24.118-0.026-30.735-7.421c-0.583-3.678,0.23-6.198,2.109-9.333c6.429-10.74,15.486-20.276,27.779-23.502
		C372.769,1146.504,380.636,1147.419,387.229,1151.007z M1862.755,1641.546c15.432,6.701,59.832,55.688,70.586,70.764
		c-18.316,19.443-38.045,34.273-61.9,46.177c-17.361,7.373-34.045,12.955-52.507,16.878
		C1823.25,1729.212,1833.289,1678.537,1862.755,1641.546z M1995.14,1806.919c7.839,5.881,33.381,59.533,40.093,72.583
		c-16.35,16.438-32.726,27.627-53.751,37.398c-6.37,3.294-13.305,5.782-19.938,8.52c-3.189-21.121-7.206-41.641-12.274-62.375
		c2.902-5.343,6.048-10.539,9.438-15.587c3.392-5.047,7.011-9.925,10.859-14.633c3.847-4.708,7.907-9.226,12.178-13.554
		C1986.017,1814.945,1990.482,1810.827,1995.14,1806.919z M2497.476,2380.463c23.005,2.364,45.753,1.376,68.64,2.822
		c4.915,0.311,7.28,1.305,10.565,4.918c0.319,2.61,0.797,3.675-0.232,6.195c-5.757,14.113-39.528,27.432-52.609,33.375
		c-8.629,3.625-17.34,7.041-26.132,10.248c-8.791,3.211-17.654,6.209-26.59,8.994c-8.934,2.787-17.929,5.36-26.985,7.717
		c-9.058,2.358-18.167,4.498-27.327,6.421c-9.158,1.923-18.357,3.627-27.598,5.113c-9.241,1.484-18.512,2.747-27.813,3.791
		c-9.301,1.043-18.621,1.865-27.96,2.463c-9.341,0.599-18.69,0.974-28.048,1.127c-128.419,2.427-248.244-34.485-358.121-99.899
		c-38.37-22.841-76.609-49.431-108.865-80.439c11.152-20.514,28.437-37.954,43.386-55.804
		c69.79-83.321,89.942-181.466,80.606-287.309c30.98-11.884,56.157-26.559,82.25-46.847c8.638,10.09,15.669,37.635,19.63,50.976
		c-29.2,29.452-48.14,68.431-59.742,107.891c-4.263,14.494-17.384,50.573-8.585,63.657c2.11,3.138,4.797,4.466,8.452,4.864
		c8.127,0.887,17.186-1.11,25.135-2.681c31.703-6.26,58.567-17.415,84.535-36.697l15.121,36.141
		c-16.502,16.401-28.338,37.502-36.971,58.94c-6.147,15.257-24.022,68.205-16.096,82.781c2.294,4.223,5.545,6.2,10.11,7.169
		c8.861,1.876,18.952-0.152,27.745-1.587c32.426-5.291,62.507-15.471,89.857-33.85c22.644,23.463,45.866,45.629,72.861,64.152
		C2339.043,2347.89,2422.576,2372.768,2497.476,2380.463z M2071.731,1977.563c9.584,17.638,26.35,71.988,32.344,93.216
		c-18.731,13.872-35.782,22.74-57.83,30.463c-9.675,2.652-19.392,4.424-29.265,6.155
		C2028.616,2059.898,2042.752,2017.805,2071.731,1977.563z M2139.597,2150.495c17.384,22.867,32.138,48.968,48.101,72.979
		c-14.709,9.734-29.454,16.864-46.25,22.155c-14.548,3.74-28.98,6.246-43.994,6.986
		C2103.818,2214.867,2116.081,2180.865,2139.597,2150.495z M2614.137,2083.982c-3.731,51.849-8.392,103.735-11.296,155.63
		c-14.042,2.949-28.082,7.958-41.675,12.542c-59.07,19.926-111.456,47.519-162.802,82.657l-18.635-5.813
		c-8.61-2.932-17.226-6.065-25.599-9.616c-120.529-51.118-188.155-154.879-231.821-273.145
		c-16.087-43.564-29.07-88.405-46.392-131.498c-45.725-113.772-120.167-240.883-222.349-312.777
		c-36.465-25.658-77.408-44.304-118.252-61.773c28.384-42.437,50.889-87.945,74.163-133.308
		c37.056-72.219,72.231-145.342,105.526-219.369c12.717-28.401,25.229-56.891,37.536-85.47
		c7.056-16.311,13.401-34.974,23.022-49.864c5.726-8.861,12.449-10.796,22.381-13.09c34.703-1.952,39.169,22.375,48.934,49.335
		c58.375,161.119,123.309,317.026,209.335,465.537c32.915,56.815,67.578,111.84,107.382,164.147
		c28.172,37.016,57.951,74.694,93.388,105.089c1.277,7.76,2.604,15.635,4.816,23.189c0.554,1.917,1.153,3.819,1.8,5.706
		c0.648,1.889,1.341,3.76,2.079,5.613c0.738,1.853,1.522,3.687,2.35,5.503c0.826,1.816,1.698,3.61,2.613,5.384
		c0.917,1.772,1.877,3.521,2.878,5.246c1,1.727,2.042,3.428,3.127,5.102c1.085,1.674,2.21,3.321,3.375,4.941
		c1.166,1.62,2.37,3.21,3.613,4.771c1.243,1.561,2.524,3.09,3.842,4.588c1.318,1.499,2.672,2.964,4.062,4.395
		c1.39,1.431,2.813,2.829,4.271,4.192c1.458,1.362,2.948,2.688,4.472,3.977c1.524,1.288,3.077,2.538,4.661,3.751
		c1.584,1.215,3.197,2.389,4.839,3.523c1.64,1.134,3.309,2.227,5.006,3.28c1.695,1.053,3.414,2.063,5.158,3.031
		c33.42,18.223,68.982,18.469,104.86,8.107L2614.137,2083.982z M2671.447,2227.234c-15.525,1.655-31.008,4.924-46.381,7.633
		c0.859-34.115,5.429-68.728,8.153-102.792c5.74-71.838,11.339-143.961,13.638-215.994c6.61-6.299,13.556-11.85,20.799-17.398
		c5.316,0.7,20.988,15.621,28.062,19.432l20.839,304.091C2701.463,2223.364,2686.426,2225.04,2671.447,2227.234z"/>
	<path d="M697.893,616.987c-7.87-0.655-16.536-1.005-24.373,0.076c-11.613,1.63-31.401,3.104-39.093,13.034
		c-2.141,2.763-3.796,6.777-3.209,10.316c0.582,3.511,2.627,6.102,5.788,7.678c10.486,5.226,26.104-5.214,36.957-6.675
		c25.878-3.48,54.428,5.887,75.685,20.294c7.068,5.892,16.243,14.85,26.417,13.144c3.828-0.641,4.155-1.593,6.121-4.599
		c0.763-7.604-1.169-12.791-5.991-18.743C758.818,630.061,724.418,619.197,697.893,616.987z"/>
	<path d="M314.95,882.164c-8.559-4.528-16.858-4.556-26.299-4.07c-20.455,5.802-35.846,17.714-46.324,36.491
		c-7.706,13.808-11.783,31.482-6.816,46.923c2.699,8.387,8.151,14.505,16.099,18.245c7.67,3.607,14.285,4.215,22.667,3.712
		c21.647-6.859,37.785-20.76,48.187-40.912c6.674-12.926,10.577-29.13,6.232-43.429C326.443,891.703,321.831,885.802,314.95,882.164
		z M303.759,925.375c-6.624,15.811-17.204,27.291-32.955,33.985c-1.983,0.042-4.077,0.073-6.026-0.35
		c-3.407-0.746-6.656-3.15-8.073-6.401c-2.426-5.565,0.137-13.26,2.347-18.497c6.876-16.299,17.599-25.858,33.701-32.223
		l7.596,0.299c3.224,1.994,5.251,2.87,6.338,6.845C308.047,914.014,305.658,920.841,303.759,925.375z"/>
	<path d="M773.406,797.191c-0.124-1.672-0.29-3.341-0.497-5.006c-0.207-1.663-0.454-3.32-0.743-4.972
		c-0.29-1.652-0.62-3.296-0.989-4.932c-0.363-1.492-0.763-2.974-1.2-4.446c-0.439-1.473-0.912-2.934-1.421-4.384
		c-0.508-1.448-1.052-2.883-1.632-4.305c-0.58-1.422-1.195-2.829-1.845-4.223c-0.65-1.391-1.333-2.766-2.051-4.124
		c-0.717-1.358-1.467-2.698-2.248-4.02c-0.784-1.32-1.599-2.621-2.446-3.904c-0.848-1.281-1.726-2.54-2.636-3.777
		c-0.91-1.237-1.849-2.452-2.819-3.644c-0.97-1.192-1.968-2.359-2.995-3.5c-1.026-1.143-2.081-2.26-3.164-3.35
		c-1.081-1.089-2.188-2.151-3.322-3.187c-1.135-1.036-2.294-2.043-3.477-3.022c-1.184-0.978-2.392-1.926-3.624-2.845
		c-1.23-0.919-2.482-1.808-3.757-2.667c-1.275-0.857-2.57-1.682-3.884-2.474c-17.194-10.294-36.076-12.356-55.592-9.972
		c-25.37,4.548-45.988,16.336-60.688,37.816c-14.811,21.638-20.011,49.553-15.019,75.199c4.757,24.443,18.516,47.236,39.403,61.117
		c18.271,12.144,37.997,15.087,59.406,13.141c25.712-5.726,47.236-19.802,61.572-42.189c0.9-1.414,1.766-2.85,2.596-4.308
		c0.828-1.458,1.621-2.934,2.378-4.43c0.757-1.497,1.477-3.011,2.158-4.542c0.682-1.533,1.326-3.081,1.932-4.644
		c0.607-1.565,1.173-3.143,1.7-4.734c0.528-1.591,1.016-3.195,1.466-4.811c0.448-1.616,0.857-3.241,1.226-4.876
		c0.367-1.636,0.695-3.28,0.983-4.932c0.288-1.654,0.535-3.312,0.74-4.975c0.205-1.665,0.37-3.333,0.494-5.006
		c0.123-1.672,0.205-3.346,0.246-5.022c0.04-1.678,0.039-3.355-0.003-5.031C773.613,800.537,773.53,798.863,773.406,797.191z
		 M728.627,805.419c-0.077,0.684-0.19,1.362-0.339,2.034c-0.149,0.67-0.333,1.333-0.551,1.986
		c-2.579,7.864-7.811,11.243-14.957,14.63c-3.257,0.068-6.678,0.192-9.907-0.333c-5.093-0.828-10.144-4.418-12.892-8.734
		c-2.997-4.709-3.551-10.426-2.009-15.74c2.407-8.291,7.723-11.977,14.906-16.053c3.661-0.218,7.709-0.418,11.296,0.571
		c4.927,1.353,9.534,5.319,12.034,9.712c0.339,0.599,0.645,1.214,0.918,1.845c0.273,0.633,0.513,1.277,0.721,1.932
		c0.205,0.657,0.377,1.323,0.514,1.997c0.138,0.674,0.239,1.354,0.302,2.039c0.066,0.684,0.096,1.37,0.09,2.059
		C728.748,804.05,728.706,804.736,728.627,805.419z M757.465,820.06c0.026,0.443,0.085,0.887,0.127,1.331l-1.707-1.012l0.385,3.226
		c-1.136-1.181-1.006-2.195-1.305-3.771l0.92,0.545l-0.473-3.963c-0.551-4.971-1.045-9.785-2.291-14.644
		c-3.972-15.483-11.04-29.638-25.469-37.821c-12.003-6.808-26.497-7.963-39.621-3.983c-14.969,4.539-28.248,15.336-35.183,29.423
		c-8.701,17.664-6.192,36.285,0.034,54.137c5.167,10.505,12.658,20.361,22.898,26.333c16.492,9.618,33.485,6.398,50.909,2.237
		c-8.085,4.596-15.892,8.822-24.923,11.33c-17.83,4.952-35.813,3.607-51.974-5.847c-17.957-10.505-30.251-28.299-35.152-48.352
		c-5.432-22.223-1.924-46.516,10.466-65.866c12.138-18.957,29.751-28.745,51.056-33.567l2.105-0.105
		c21.124-0.935,39.01,4.508,54.742,19.079c13.915,12.887,24.474,32.807,25.254,51.971
		C758.522,807.188,757.096,813.659,757.465,820.06z"/>
</g>
</svg>
