<svg version="1.1" xmlns="http://www.w3.org/2000/svg" style="display: block;" viewBox="0 0 1462 2048" width="1024" height="1434" preserveAspectRatio="none">
<path transform="translate(0,0)" fill="rgb(254,254,254)" d="M 0 0 L 1462 0 L 1462 237.132 L 1462 246.566 L 1462 962.38 L 1462 963.926 L 1462 2048 L 0 2048 L 0 0 z"/>
<path transform="translate(0,0)" fill="rgb(1,1,1)" d="M 758.794 837.767 C 771.03 811.865 786.015 785.357 798.925 759.775 C 881.547 594.595 995.531 443.193 1169.24 366.608 C 1208.94 349.103 1325.18 307.753 1353.57 367.282 C 1370.03 401.788 1322.42 448.461 1303.55 475.513 C 1266.92 528.039 1261.81 598.893 1237.62 657.232 C 1200.52 750.896 1109.74 802.853 1024.27 846.518 C 1001.11 858.353 975.646 866.609 951.843 876.699 C 966.413 874.276 988.981 873.36 1004.13 872.536 C 1058.69 870.039 1113.36 870.512 1167.87 873.953 C 1190.3 875.21 1215.51 876.403 1237.81 878.905 C 1241.4 873.092 1245.26 863.78 1252.58 863.451 C 1258.81 865.934 1262.91 875.769 1266.32 881.945 C 1271.44 882.685 1289.53 887.305 1292.41 885.731 C 1291.5 883.278 1290.42 881.415 1291.01 878.974 C 1295.69 873.782 1299.7 877.713 1304.23 881.157 C 1306.26 874.42 1309.47 862.777 1316.82 860.586 C 1328.33 861.764 1333.22 885.55 1341.4 890.541 L 1343.03 890.128 C 1343.39 889.222 1337.46 844.713 1336.31 837.702 C 1333 817.409 1337.44 702.806 1352.24 695.623 L 1354.01 696.61 C 1364.88 713.225 1374.23 837.275 1376.52 866.869 C 1380.61 858.851 1389.74 833.212 1399.41 832.799 C 1406.78 840.019 1392.39 890.116 1389.18 902.242 C 1402.34 906.835 1409.22 908.143 1422.73 908.865 C 1419.07 900.725 1412.21 887.227 1412.99 878.671 L 1415.18 877.229 L 1413.12 878.08 L 1415.49 877.429 C 1422.23 882.392 1425.46 892.698 1429.38 900.331 C 1429.25 892.447 1423.74 869.369 1430.94 865.913 C 1439.27 867.797 1459.91 902.76 1459.59 911.539 C 1447.97 903.031 1445.81 898.085 1437.38 886.443 C 1438.37 894.801 1441.56 909.34 1435.92 916.041 C 1419.25 925.739 1374.95 907.586 1356.53 903.601 C 1342.3 900.524 1327.49 897.919 1313.22 895.14 C 1336.1 914.299 1350.98 930.623 1346.41 961.831 C 1384.89 964.461 1423.5 964.644 1462 962.38 L 1462 963.926 C 1461.73 966.371 1461.74 969.734 1460.3 971.528 C 1446.71 973.616 1433.07 972.868 1419.41 973.065 C 1393.59 973.437 1368.72 972.219 1342.97 970.805 C 1329.09 993.29 1306.2 1003.22 1283.09 1014.07 C 1283.18 1032.16 1281.46 1036.89 1270.66 1051.37 C 1295.57 1049.02 1322.58 1047.95 1346.87 1050.69 C 1383.92 1054.86 1419.04 1063.4 1456.14 1055.57 C 1458.07 1055.16 1459.75 1056.25 1461.35 1057.29 C 1462.28 1061.07 1462.05 1059.79 1460.88 1063.95 C 1458.3 1065.27 1449.45 1065.71 1446.15 1066.11 C 1400.16 1071.6 1354.63 1057.12 1308.76 1058.3 C 1280.03 1059.03 1258.91 1061.81 1232.48 1072.43 C 1224.62 1075.59 1209.5 1077.49 1200.61 1079.67 C 1198.88 1082.04 1195.22 1087.15 1193.35 1089.2 C 1180.23 1103.62 1151.29 1104.55 1133.09 1105.5 C 1156.38 1113.73 1181.23 1122.49 1202.23 1135.59 C 1238.9 1158.45 1283.04 1193.16 1278.84 1241.06 C 1318.78 1234.12 1358.58 1226.76 1399.13 1231.38 C 1406.84 1232.26 1456.05 1237.49 1460.13 1241.22 C 1461.36 1244.26 1461.33 1244.36 1460.66 1247.5 C 1457.37 1250.06 1427.26 1244.86 1421.43 1243.9 C 1368.59 1235.22 1325.81 1242.16 1274.09 1252.6 C 1273.65 1253.33 1273.2 1254.06 1272.74 1254.79 C 1247.27 1294.73 1172.39 1305.74 1128.56 1305.01 C 1064.47 1303.94 1000.45 1289.49 946.002 1254.78 C 906.475 1264.19 809.334 1259.56 768.063 1253.7 C 770.115 1298.02 765.162 1461.79 740.832 1495.1 C 738.793 1497.89 737.042 1499.16 733.641 1499.76 C 717.484 1496.83 708.766 1436.34 706.346 1422.17 C 696.809 1366.32 695.835 1309.36 695.922 1252.84 C 671.127 1253.93 652.498 1249.33 626.58 1252.01 C 604.174 1253.99 584.364 1260.72 561.782 1262.86 C 544.595 1264.48 508.776 1259.88 494.698 1266.82 C 420.598 1303.35 245.09 1337.05 191.425 1252.17 C 130.234 1244.16 72.3148 1233.75 10.7774 1243.92 C 8.32537 1244.32 3.27798 1245.26 1.31655 1244.12 C 0.929527 1240.24 0.643763 1239.41 1.56318 1235.72 C 6.76885 1232.98 20.6802 1232.74 27.1377 1232.01 C 82.3053 1225.82 132.727 1233.89 187.144 1241.57 C 177.506 1181.39 252.65 1143.32 297.977 1123.52 C 312.396 1117.22 330.079 1112.48 343.471 1104.59 L 344.441 1104.02 C 319.703 1106.87 290.934 1105.17 269.126 1092.36 C 264.5 1090.35 257.84 1080.8 253.528 1079.42 C 235.407 1073.66 220.443 1068.01 203.523 1059.17 C 177.016 1066.14 155.063 1069.11 127.515 1066.09 C 105.684 1063.99 84.0213 1059.86 62.0209 1061.83 C 55.541 1062.41 37.75 1067.65 37.6256 1058.22 C 48.7199 1044.57 130.084 1057.81 148.377 1058.39 C 163.581 1058.88 179.408 1055.83 194.226 1052.36 C 193.238 1051.39 192.301 1050.37 191.419 1049.3 C 181.852 1037.88 180.625 1029.3 181.994 1015.16 C 152.901 1003.44 137.81 997.113 119.706 969.932 C 87.5339 978.364 62.6766 973.607 30.2079 974.1 C 17.678 974.29 9.34722 978.361 2.06988 978.81 C 0.271786 976.23 0.915712 976.546 1.00856 972.616 C 8.25435 960.431 72.0414 967.418 87.1143 966.119 C 100.296 964.983 103.696 964.635 116.484 960.986 C 114.902 938.102 117.965 929.329 130.36 910.288 C 115.748 912.496 68.3225 915.336 57.0222 908.655 C 52.8926 898.434 56.6333 797.421 56.6304 779.588 C 56.6223 729.191 59.0118 677.383 57.5451 626.546 C 50.6014 647.172 45.9826 673.167 42.7191 694.573 C 33.2021 753.781 30.399 813.875 34.3629 873.712 C 35.1958 887.824 36.5148 908.858 39.3178 922.419 C 26.6932 919.848 14.6784 917.528 2.26924 913.943 C 3.5093 893.054 2.59973 876.587 0.932889 855.814 C 12.7368 868.061 17.8086 877.834 26.4921 892.128 C 21.4123 824.332 23.4133 749.467 35.3326 682.382 C 37.7699 668.664 52.7966 604.4 58.88 599.73 C 62.3743 599.607 61.2106 599.143 63.6091 601.051 C 68.2692 616.578 66.7977 690.958 66.4059 711.272 L 65.0302 804.697 C 64.6582 826.638 63.7434 849.097 64.4086 870.96 C 70.9312 842.497 84.4356 813.423 97.5298 787.296 C 101.119 780.135 121.073 745.151 126.558 743.425 L 129.351 744.97 C 130.678 748.691 115.65 811.043 113.784 820.775 C 108.565 847.997 103.651 875.277 100.663 902.84 C 110.367 888.451 132.823 844.779 147.413 837.594 C 150.913 837.569 149.457 837.009 152.02 839.069 C 153.695 845.738 145.571 888.219 144.186 899.257 C 161.874 890.554 172.304 883.459 192.533 879.593 C 216.478 875.017 239.608 879.633 263.38 878.56 C 288.345 877.383 313.275 873.377 338.179 871.656 C 368.483 869.562 400.788 869.924 431.128 872.121 C 450.932 873.734 470.682 875.955 490.35 878.781 C 499.758 880.077 517.609 883.259 526.137 883.058 L 527.386 883.017 C 455.717 860.26 361.79 807.083 302.834 758.734 C 278.148 736.4 251.758 708.807 238.589 677.732 C 210.02 610.506 201.889 533.056 158.46 472.48 C 139.46 448.751 97.7266 405.106 108.528 371.044 C 124.117 321.889 213.271 337.938 246.479 348.162 C 409.091 398.224 535.246 530.552 618.621 674.448 C 637.233 706.571 651.807 737.207 668.168 769.789 C 679.685 792.738 691.723 815.422 704.27 837.824 C 715.191 806.209 714.489 805.52 707.823 769.653 C 672.884 752.154 669.569 719.526 691.867 689.715 C 692.764 651.177 689.443 600.92 662.849 570.668 C 651.47 579.261 640.814 583.526 627.59 575.154 C 604.681 561.47 615.69 529.473 640.092 527.754 C 675.482 525.261 699.641 562.494 708.78 591.933 C 715.479 613.509 716.937 633.532 719.12 655.359 C 729.103 654.118 735.013 653.951 744.986 654.93 C 748.678 609.739 758.556 538.567 816.619 527.952 C 829.293 525.636 852.138 536.802 850.114 551.791 C 846.705 577.026 823.356 589.192 802.334 568.699 L 801.459 569.747 C 775.769 600.983 769.942 652.247 774.141 691.314 C 776.822 694.193 779.053 696.55 781.01 699.995 C 787.384 711.14 789.033 724.373 785.592 736.743 C 781.097 752.539 770.193 761.393 756.507 769.086 C 750.422 803.693 745.882 806.134 758.794 837.767 z"/>
<path transform="translate(0,0)" fill="rgb(254,254,254)" d="M 1282.21 348.415 C 1282.87 348.341 1283.53 348.281 1284.19 348.236 C 1303.45 346.921 1344.67 353.955 1343.99 379.555 C 1341.65 422.823 1297.73 453.316 1279.53 490.825 C 1244.41 563.175 1242.22 660.661 1184.79 720.866 C 1101.48 808.218 973.22 864.593 857.28 893.665 C 829.338 900.672 791.487 904.354 763.117 906.3 C 763.295 889.407 762.672 872.515 761.251 855.681 C 768.539 844.971 781.232 819.596 787.511 807.549 C 802.27 779.014 817.22 750.578 832.36 722.243 C 897.993 601.19 976.68 495.256 1095 420.546 C 1111.14 410.351 1125.97 400.98 1143.25 392.674 C 1084.17 446.037 1033.41 510.634 997.686 582.193 C 993.23 591.12 990.452 603.031 988.422 612.748 C 925.872 641.695 870.488 700.438 833.121 757.114 C 825.577 768.674 737.54 904.214 795.912 891.689 C 891.543 871.169 946.042 790.804 999.153 716.704 C 1029.63 707.409 1099.16 665.036 1123.58 645.512 C 1130.85 698.152 1075.9 732.754 1076.16 746.424 C 1082.75 757.089 1152.04 751.055 1156.76 739.243 C 1161.09 728.401 1134.66 674.803 1154.99 667.504 C 1172.52 669.595 1173.49 715.434 1184.74 715.448 C 1186.05 713.825 1187.62 711.612 1186.92 708.807 C 1183.38 693.409 1166.38 638.019 1143.11 664.443 C 1130.98 678.223 1146.79 718.21 1149.09 735.405 C 1131.1 743.14 1107.48 743.452 1088.21 742.44 C 1108.04 714.061 1146.62 678.901 1130.46 639.809 C 1157.4 613.322 1189.1 570.718 1180.12 530.656 C 1188.52 521.228 1218.71 489.367 1214.45 477.143 C 1211.15 475.685 1212.43 476.052 1208.55 476.464 C 1205.25 479.188 1204.78 482.585 1202.77 486.203 C 1176.92 532.677 1124.04 561.372 1078.12 583.779 C 1050.06 597.471 1026.95 604.319 997.35 609.123 C 1010.17 563.642 1066.76 488.151 1098.57 451.79 C 1118.37 429.15 1157.2 390.647 1183.41 374.655 C 1205.45 361.203 1255.37 350.261 1282.21 348.415 z"/>
<path transform="translate(0,0)" fill="rgb(1,1,1)" d="M 1201.32 390.185 C 1240.04 388.304 1235.54 430.192 1221.72 453.462 C 1200.87 488.588 1155.5 505.281 1117.92 514.786 C 1110.27 516.961 1093.62 520.569 1088.86 512.173 C 1086.2 497.716 1101.82 466.571 1110.2 453.806 C 1130.02 423.593 1165.71 397.354 1201.32 390.185 z"/>
<path transform="translate(0,0)" fill="rgb(1,1,1)" d="M 1192.81 400.454 C 1205.03 397.999 1220.01 398.744 1221.56 413.953 C 1227.16 468.818 1146.85 502.36 1104.84 508.239 C 1102.2 508.608 1099.57 508.941 1096.93 509.238 C 1104.97 467.063 1137.22 426.622 1175.47 407.484 C 1179.17 404.533 1188.01 401.178 1192.81 400.454 z"/>
<path transform="translate(0,0)" fill="rgb(254,254,254)" d="M 1192.81 400.454 C 1205.03 397.999 1220.01 398.744 1221.56 413.953 C 1227.16 468.818 1146.85 502.36 1104.84 508.239 C 1102.2 508.608 1099.57 508.941 1096.93 509.238 C 1104.97 467.063 1137.22 426.622 1175.47 407.484 L 1176.05 409.037 C 1150.35 425.631 1126.77 450.806 1114.4 478.789 C 1103.86 502.62 1131.53 495.77 1143.33 489.942 C 1169.53 476.995 1200.62 462.442 1212.53 433.758 C 1217.58 421.612 1214.9 406.418 1201.14 401.884 C 1198.72 401.274 1195.35 400.855 1192.81 400.454 z"/>
<path transform="translate(0,0)" fill="rgb(94,95,96)" d="M 1175.47 407.484 C 1179.17 404.533 1188.01 401.178 1192.81 400.454 C 1195.35 400.855 1198.72 401.274 1201.14 401.884 C 1184.78 402.129 1188.38 404.685 1176.05 409.037 L 1175.47 407.484 z"/>
<path transform="translate(0,0)" fill="rgb(254,254,254)" d="M 1192.84 408.007 C 1197.89 408.267 1203.29 410.488 1204.92 415.73 C 1212.4 439.731 1188.39 456.628 1170.51 466.896 C 1157.87 474.147 1145.91 479.674 1132.28 484.675 C 1128.69 485.94 1124.29 487.053 1120.57 488.099 C 1131.38 454.915 1160.01 420.625 1192.84 408.007 z"/>
<path transform="translate(0,0)" fill="rgb(1,1,1)" d="M 1034.91 727.277 C 1064.15 728.447 1071.7 753.488 1059.09 776.45 C 1039.41 812.277 999.511 838.668 961.13 850.694 C 959.652 851.05 958.169 851.387 956.681 851.704 C 947.702 853.597 933.952 853.301 932.96 841.761 C 931.36 823.149 949.756 796.107 960.52 781.869 C 978.667 757.864 1004.18 731.697 1034.91 727.277 z"/>
<path transform="translate(0,0)" fill="rgb(254,254,254)" d="M 1031.87 736.099 C 1051.94 734.85 1060.95 749.899 1053.07 766.993 C 1036.33 803.332 1000.1 825.775 964.659 840.427 C 958.009 842.713 945.992 848.003 941.766 840.14 C 941.77 832.746 950.868 812.893 954.794 806.396 C 972.234 777.532 998.406 745.387 1031.87 736.099 z"/>
<path transform="translate(0,0)" fill="rgb(1,1,1)" d="M 1024.84 749.218 C 1041.99 747.905 1048.27 759.293 1042.08 774.119 C 1031.19 800.18 994.014 821.23 968.965 832.412 C 968.204 832.646 967.44 832.874 966.675 833.095 C 961.733 834.527 959.103 835.569 954.457 832.992 C 948.122 826.115 955.192 814.019 959.485 807.635 C 974.292 785.613 997.968 755.244 1024.84 749.218 z"/>
<path transform="translate(0,0)" fill="rgb(254,254,254)" d="M 1028.82 758.19 C 1031.93 758.779 1032.06 758.773 1034.18 760.978 C 1036.5 768.508 1028.45 781.23 1023.59 786.622 C 1008.29 803.601 986.718 815.109 966.296 824.761 C 965.099 825.083 963.743 825.254 962.506 825.457 L 961.774 824.119 C 962.787 816.353 973.685 802.301 979.091 795.932 C 992.491 780.143 1007.56 762.315 1028.82 758.19 z"/>
<path transform="translate(0,0)" fill="rgb(1,1,1)" d="M 1267.75 367.418 C 1277.89 366.266 1310.54 366.608 1318.39 372.512 C 1327.79 386.65 1294.29 437.942 1283.45 449.432 C 1279.85 452.76 1277.4 456.046 1272.18 455.176 C 1267.19 451.583 1233.75 381.102 1236.67 374.882 C 1242.8 369.403 1259.25 368.299 1267.75 367.418 z"/>
<path transform="translate(0,0)" fill="rgb(254,254,254)" d="M 1270.34 376.413 C 1282.83 375.441 1299.36 376.507 1311.78 378.16 C 1303.93 403.386 1298.57 416.037 1282.22 437.294 C 1280.13 439.922 1277.45 442.829 1275.2 445.392 C 1264.9 420.876 1255.31 403.627 1244.56 380.293 C 1252.98 378.027 1261.68 377.138 1270.34 376.413 z"/>
<path transform="translate(0,0)" fill="rgb(1,1,1)" d="M 1221.57 560.705 C 1231.29 564.079 1232.78 579.334 1231.61 588.317 C 1228.29 613.898 1219.5 644.45 1202.21 664.148 C 1200.29 666.324 1196.62 665.598 1194.15 665.427 C 1186.5 648.387 1192 642.412 1189.85 624.277 C 1188.51 612.945 1184.2 601.869 1180.28 591.189 C 1184.47 587.375 1194.77 581.545 1200.25 577.556 C 1207.76 572.092 1214.2 565.686 1221.57 560.705 z"/>
<path transform="translate(0,0)" fill="rgb(254,254,254)" d="M 1219.69 572.714 C 1230.19 581.282 1209.63 644.483 1199.85 651.637 L 1199.05 650.096 C 1200.41 628.546 1198.23 614.699 1191.16 594.528 C 1201.67 588.668 1211.28 581.321 1219.69 572.714 z"/>
<path transform="translate(0,0)" fill="rgb(1,1,1)" d="M 1248.65 458.926 C 1249.87 459.013 1251.81 459.377 1253.09 459.572 C 1269.58 469.693 1252.4 530.262 1249.57 545.462 C 1248.79 549.625 1247.7 552.603 1243.42 553.504 C 1239.9 552.681 1239.57 552.354 1237.1 549.682 C 1227.42 535.466 1215.52 503.067 1222.35 486.333 C 1227.67 473.312 1236.04 464.716 1248.65 458.926 z"/>
<path transform="translate(0,0)" fill="rgb(254,254,254)" d="M 1248.19 468.75 L 1249.04 469.056 C 1254.52 474.923 1245.17 529.974 1241.8 537.467 C 1240.27 537.096 1240.16 536.049 1239.01 534.216 C 1226.33 508.608 1222.96 486.849 1248.19 468.75 z"/>
<path transform="translate(0,0)" fill="rgb(254,254,254)" d="M 169.879 349.395 C 202.625 345.231 251.934 361.554 281.086 375.875 C 298.8 384.578 316.893 397.86 330.992 411.487 C 373.099 452.185 452.257 556.338 469.8 609.799 C 394.102 591.751 307.429 556.995 262.58 489.348 C 258.441 483.104 259.224 475.231 250.908 474.754 C 240.035 481.723 269.745 514.097 276.044 520.936 C 320.496 569.194 385.418 594.773 446.807 613.249 C 445.997 615.036 445.26 616.856 444.599 618.704 C 435.397 645.036 447.117 680.236 458.565 704.449 C 414.788 686.746 350.334 650.419 320.625 612.918 C 310.771 600.283 303.1 586.089 297.931 570.922 C 294.721 561.767 291.501 538.964 288.94 536.426 C 285.496 535.579 286.448 535.267 283.757 536.416 C 279.627 542.859 284.533 555.953 286.009 563.03 C 293.329 598.129 311.579 613.506 332.383 639.72 C 331.684 641.862 330.869 642.622 329.54 644.499 C 326.727 675.999 355.455 718.592 372.103 743.741 C 358.62 744.994 337.36 745.817 325.673 737.1 C 308.825 722.241 325.326 699.568 325.342 680.172 C 325.353 667.702 324.177 652.879 306.332 654.39 C 298.914 656.317 289.69 670.227 287.027 676.21 C 283.067 685.108 271.127 708.059 282.731 714.017 C 288.859 709.332 295.81 657.925 310.15 663.842 C 329.112 671.667 300.302 715.826 312.574 735.659 C 324.927 755.623 367.89 757.671 382.761 749.356 C 386.27 743.293 380.1 738.124 376.286 732.841 C 353.758 701.634 342.179 680.599 337.476 642.576 C 359.68 663.157 403.729 689.858 431.439 702.668 C 443.128 708.071 461.715 715.024 474.327 720.033 C 486.499 745.382 490.825 751.308 505.129 774.883 C 487.703 755.912 466.498 735.671 441.065 729.047 C 401.849 718.835 391.261 753.449 410.002 782.401 C 430.531 814.113 465.331 840.264 501.69 849.678 C 532.377 855.142 541.01 848.289 528.538 818.879 C 521.904 803.233 515.927 792.321 507.413 777.703 C 514.843 785.49 521.788 795.234 528.954 803.361 C 565.283 844.615 609.442 880.379 664.561 891.356 C 681.264 894.683 691.76 887.671 686.696 870.524 C 678.82 843.855 663.589 815.678 650.174 791.775 C 616.126 731.111 575.747 676.057 517.576 636.362 C 505.274 627.854 492.649 620.816 480.051 612.64 C 463.142 554.174 372.429 433.217 324.876 393.943 C 347.808 402.392 393.8 436.374 413.301 451.22 C 504.573 520.703 570.096 608.705 624.198 709.046 C 637.743 734.168 649.432 759.236 662.399 784.561 C 674.913 808.538 687.807 832.315 701.077 855.882 C 699.366 873.198 700.788 890.22 698.863 907.571 C 685.599 906.834 671.258 904.548 658.104 902.862 C 559.225 890.399 467.915 852.369 383.658 800.037 C 337.936 771.639 290.892 740.651 261.533 693.768 C 242.906 664.022 234.021 626.602 223.828 593.348 C 210.405 549.564 196.822 503.181 168.752 466.199 C 150.619 442.137 125.599 418.889 120.095 387.921 C 114.49 356.389 146.761 352.064 169.879 349.395 z"/>
<path transform="translate(0,0)" fill="rgb(1,1,1)" d="M 261.76 390.171 C 295.472 387.859 333.152 414.395 352.169 440.967 C 366.534 461.04 376.534 490.71 375.877 515.553 C 375.817 517.831 374.344 518.962 372.713 519.998 C 367.531 520.166 358.853 517.773 353.513 516.541 C 329.416 510.681 307.345 504.31 285.072 491.814 C 258.644 476.986 221.872 440.757 237.667 407.259 C 242.37 397.285 251.227 392.61 261.76 390.171 z"/>
<path transform="translate(0,0)" fill="rgb(254,254,254)" d="M 260.061 399.145 C 279.248 398.051 299.716 405.45 314.966 416.748 C 349.83 442.58 361.042 469.633 367.566 510.466 C 362.96 509.704 358.367 508.866 353.788 507.954 C 341.665 505.065 330.609 501.396 316.703 496.443 C 284.56 484.995 233.979 452.616 244.604 412.253 C 246.194 406.212 254.088 401.633 260.061 399.145 z"/>
<path transform="translate(0,0)" fill="rgb(1,1,1)" d="M 264.242 405.098 C 305.547 401.382 349.014 456.875 358.847 492.883 C 359.424 494.995 358.211 495.904 357.088 497.194 C 353.431 498.826 352.775 498.79 348.741 498.874 C 320.751 492.419 216.592 440.984 264.242 405.098 z"/>
<path transform="translate(0,0)" fill="rgb(254,254,254)" d="M 267.791 412.918 C 298.464 415.809 325.727 445.633 339.574 471.363 C 342.242 476.321 346.412 482.027 347.515 487.561 L 346.629 488.835 L 343.693 488.102 C 319.671 478.386 292.414 466.427 273.999 447.719 C 264.033 437.593 254.371 424.802 267.791 412.918 z"/>
<path transform="translate(0,0)" fill="rgb(1,1,1)" d="M 159.697 368.373 C 173.974 366.224 220.061 369.802 230.078 379.977 C 230.395 380.821 230.711 381.665 231.028 382.509 C 222.915 401.016 208.949 420.631 201.925 439.402 C 199.663 445.835 198.17 458.204 188.44 454.955 C 169.42 448.605 136.556 391.314 143.41 373.322 C 147.631 368.848 153.496 369.057 159.697 368.373 z"/>
<path transform="translate(0,0)" fill="rgb(254,254,254)" d="M 160.585 377.385 C 176.882 374.498 204.85 378.604 220.913 383.694 C 217.59 392.494 202.76 415.214 196.847 427.492 C 194.118 433.335 192.359 439.516 190.43 445.669 C 189.343 444.834 188.263 443.99 187.19 443.136 C 169.726 429.214 153.74 401.247 151.348 379.454 C 153.15 377.397 157.076 377.755 160.585 377.385 z"/>
<path transform="translate(0,0)" fill="rgb(1,1,1)" d="M 245.802 568.782 C 295.553 568.181 272.711 663.428 267.609 667.863 C 266.654 667.096 264.741 665.616 264.102 664.702 C 248.979 643.071 222.03 590.577 245.802 568.782 z"/>
<path transform="translate(0,0)" fill="rgb(254,254,254)" d="M 248.192 577.111 C 277.909 582.506 266.759 626.672 264.707 648.307 C 261.818 645.413 258.184 637.971 256.563 634.01 C 248.91 615.302 240.942 596.894 248.192 577.111 z"/>
<path transform="translate(0,0)" fill="rgb(1,1,1)" d="M 210.599 460.646 C 220.112 460.514 232.144 467.192 237.879 474.88 C 241.022 479.016 242.959 483.94 243.477 489.109 C 244.227 496.817 236.06 542.063 234.38 553.782 C 233.4 556.511 233.49 556.383 231.42 558.408 C 213.912 559.079 200.007 477.731 210.599 460.646 z"/>
<path transform="translate(0,0)" fill="rgb(254,254,254)" d="M 216.585 471.226 C 245.49 484.431 232.318 507.188 227.859 533.843 C 227.804 534.542 227.368 536.37 227.231 537.013 L 225.956 536.338 C 216.89 515.913 213.647 493.379 216.585 471.226 z"/>
<path transform="translate(0,0)" fill="rgb(254,254,254)" d="M 214.914 887.43 C 243.725 884.917 274.441 903.377 299.197 916.007 C 308.548 920.778 317.844 924.568 327.56 928.542 C 303.666 933.883 279.044 940.352 277.913 969.943 C 277.339 984.978 283.85 989.352 297.812 992.483 C 319.686 997.389 343.278 997.331 365.606 997.143 C 391.816 1061.51 453.877 1053.39 511.429 1058.77 C 499.462 1060.55 486.556 1064.07 474.5 1066.18 C 450.19 1070.42 426.356 1074.97 402.229 1080.17 C 364.588 1089.33 320.203 1102.79 282.85 1086.54 C 274.685 1082.98 269.252 1075.41 261.753 1070.88 C 252.897 1065.53 237.141 1063.08 226.966 1059.1 C 178.683 1040.21 200.214 1015.76 191.191 1007.42 C 186.967 1003.52 179.645 1001.61 174.338 999.518 C 157.7 992.953 138.505 981.972 131.099 964.741 C 126.748 954.616 126.894 943.577 130.967 933.387 C 138.566 914.376 157.159 902.227 175.244 894.591 C 158.153 924.09 202.833 934.492 213.621 913.307 C 219.56 901.643 203.546 893.433 194.426 889.606 C 201.668 888.375 207.639 887.964 214.914 887.43 z"/>
<path transform="translate(0,0)" fill="rgb(1,1,1)" d="M 264.851 1005.26 C 295.282 1003.52 311.734 1024.81 336.088 1038.54 C 344.613 1043.35 354.994 1045.1 363.167 1050.3 C 365.719 1051.92 366.533 1053.12 367.196 1056.03 L 365.934 1057.11 C 343.486 1061.1 307.435 1028.04 286.962 1017.7 C 283.173 1016.18 278.949 1014.57 274.891 1014.03 C 271.715 1013.62 267.22 1013.28 264.618 1015.25 C 269.425 1022 285.628 1024.29 292.67 1036.68 C 294.888 1040.58 296.14 1045.74 294.813 1050.15 C 293.686 1053.9 290.998 1056.59 287.52 1058.24 C 275.945 1063.74 256.803 1059.45 245.422 1055.31 C 236.955 1052.23 227.871 1047.16 224.106 1038.51 C 222.012 1033.69 221.695 1028.05 223.763 1023.17 C 229.578 1009.46 242.601 1017.52 252.331 1013.94 C 255.462 1012.78 259.506 1007.22 264.851 1005.26 z"/>
<path transform="translate(0,0)" fill="rgb(254,254,254)" d="M 236.512 1023.13 C 240.125 1022.79 243.856 1022.65 247.463 1023.16 C 257.79 1024.61 278.731 1031.03 284.766 1040.21 C 286.05 1042.16 286.487 1044.16 285.782 1046.42 C 284.99 1048.95 282.207 1050.22 280.06 1051.39 C 272.644 1051.51 265.242 1050.71 258.021 1049.02 C 249.647 1047.1 235.498 1042.61 230.952 1034.61 C 230.013 1032.96 229.728 1031.34 230.297 1029.49 C 231.269 1026.33 233.833 1024.72 236.512 1023.13 z"/>
<path transform="translate(0,0)" fill="rgb(1,1,1)" d="M 174.182 935.343 C 181.028 934.916 188.793 936.315 194.916 939.466 C 201.302 942.754 207.101 948.309 209.018 955.409 C 210.412 960.409 209.659 965.763 206.941 970.185 C 202.685 977.147 195.078 980.294 187.545 982.22 C 177.65 981.998 167.759 980.219 159.435 974.532 C 153.932 970.773 149.776 965.333 148.71 958.615 C 147.92 953.637 149.164 948.652 152.408 944.771 C 158.011 938.069 165.948 936.312 174.182 935.343 z"/>
<path transform="translate(0,0)" fill="rgb(254,254,254)" d="M 169.045 945.103 C 174.013 944.752 179.491 944.248 184.331 945.661 C 190.224 947.382 197.384 951.06 200.098 956.836 C 201.147 959.066 201.252 961.339 200.283 963.61 C 198.331 968.183 193.435 970.764 189.164 972.72 C 183.514 973.183 177.829 972.526 172.433 970.788 C 167.109 969.065 160.363 965.418 157.926 960.153 C 156.89 957.915 156.804 955.682 157.854 953.436 C 159.91 949.04 164.83 946.862 169.045 945.103 z"/>
<path transform="translate(0,0)" fill="rgb(1,1,1)" d="M 229.965 912.14 C 255.02 909.897 283.176 933.695 254.593 947.684 C 230.892 953.933 202.322 927.27 229.965 912.14 z"/>
<path transform="translate(0,0)" fill="rgb(254,254,254)" d="M 231.656 921.198 C 238.588 920.221 244.889 921.546 250.824 925.297 C 253.806 927.182 255.268 929.145 255.999 932.571 C 255.379 935.751 254.654 936.397 252.484 938.874 C 245.064 939.575 238.163 938.661 231.884 934.319 C 229.443 932.63 228.41 930.762 227.868 927.907 C 228.603 924.413 229.194 923.846 231.656 921.198 z"/>
<path transform="translate(0,0)" fill="rgb(1,1,1)" d="M 315 1049.21 C 321.35 1048.69 327.556 1049.03 333.518 1051.41 C 340.51 1054.21 348.267 1059.32 351.073 1066.65 C 352.048 1069.2 352.112 1071.84 350.914 1074.32 C 348.521 1079.28 343.353 1081.45 338.444 1083.04 C 332.911 1083.64 326.94 1083.75 321.528 1082.33 C 314.244 1080.4 306.419 1076.08 302.678 1069.28 C 301.178 1066.55 300.503 1063.51 301.666 1060.53 C 303.896 1054.8 309.66 1051.45 315 1049.21 z"/>
<path transform="translate(0,0)" fill="rgb(254,254,254)" d="M 317.935 1058.13 C 324.998 1057.71 331.582 1059.59 337.477 1063.5 C 340.093 1065.23 340.9 1066.53 341.48 1069.51 C 339.803 1072.58 338.73 1072.76 335.691 1074.34 C 335.047 1074.35 334.403 1074.35 333.759 1074.34 C 327.575 1074.25 316.886 1072.81 312.604 1067.85 C 311.122 1066.14 311.378 1065.43 311.447 1063.29 C 313.15 1060.53 315.103 1059.61 317.935 1058.13 z"/>
<path transform="translate(0,0)" fill="rgb(1,1,1)" d="M 224.226 965.191 C 230.438 964.625 236.76 964.827 242.679 966.955 C 248.283 968.969 254.143 972.604 256.49 978.324 C 257.76 981.419 257.667 984.384 256.247 987.413 C 253.366 993.557 246.788 996.023 240.909 998.342 C 235.175 999.051 229.145 998.228 223.693 996.363 C 217.852 994.366 211.3 990.745 208.724 984.851 C 207.457 981.953 207.462 978.895 208.859 976.044 C 211.676 970.295 218.553 967.269 224.226 965.191 z"/>
<path transform="translate(0,0)" fill="rgb(254,254,254)" d="M 226.086 974.085 C 228.107 973.862 230.071 973.762 232.105 973.888 C 236.513 974.162 243.041 976.189 245.872 979.718 C 247.187 981.357 246.881 982.128 246.736 984.095 C 244.615 987.029 242.106 987.692 238.851 988.892 C 237.821 988.932 236.791 988.96 235.76 988.974 C 230.565 989.03 223.422 987.96 219.722 983.871 C 218.34 982.343 218.605 981.486 218.613 979.549 C 220.302 976.542 223.119 975.556 226.086 974.085 z"/>
<path transform="translate(0,0)" fill="rgb(1,1,1)" d="M 396.715 1047.29 C 400.58 1047.52 404.473 1048.07 407.921 1049.96 C 410.766 1051.52 413.128 1053.97 413.991 1057.15 C 414.827 1060.24 414.009 1063.55 412.275 1066.18 C 408.66 1071.66 402.69 1073.27 396.668 1074.48 C 392.685 1073.95 388.504 1073.24 384.85 1071.47 C 381.593 1069.9 378.594 1067.31 377.572 1063.72 C 376.805 1061.01 377.444 1058.4 378.921 1056.07 C 382.863 1049.85 390.042 1048.58 396.715 1047.29 z"/>
<path transform="translate(0,0)" fill="rgb(254,254,254)" d="M 393.659 1057.1 C 395.994 1057.14 398.95 1056.91 401.136 1057.8 C 402.966 1058.55 403.244 1059.08 404.023 1060.74 C 402.35 1063.41 401.176 1063.75 398.443 1065.19 C 396.586 1065.12 394.273 1065.21 392.481 1064.74 C 390.018 1064.08 389.244 1063.33 388.006 1061.22 C 389.723 1058.56 390.837 1058.39 393.659 1057.1 z"/>
<path transform="translate(0,0)" fill="rgb(254,254,254)" d="M 1230.33 890.529 C 1240.71 889.713 1249.74 889.775 1260.09 890.284 C 1218.83 928.683 1313.8 935.962 1284.11 895.596 C 1307.8 903.433 1330.31 919.574 1335.16 944.188 C 1342.25 980.241 1298.3 991.999 1276.28 1005.34 C 1265.24 1022.83 1275.52 1031.41 1257.45 1047.4 C 1231.27 1070.57 1201.89 1055.67 1183.48 1084.85 C 1143.85 1101.64 1100.53 1091.13 1061.61 1080.88 C 1045.79 1076.65 1027.86 1071.72 1011.73 1069.25 C 990.947 1066.08 972.271 1063.66 951.735 1058.53 C 1002.87 1056.94 1088.99 1055.57 1100.8 991.367 C 1120.3 996.419 1156.98 997.16 1176.22 990.303 C 1191.34 984.913 1187.86 966.37 1181.83 954.989 C 1171.35 935.214 1158.83 931.177 1138.66 924.865 C 1180.31 914.83 1181.99 894.798 1230.33 890.529 z"/>
<path transform="translate(0,0)" fill="rgb(1,1,1)" d="M 1264.6 935.335 C 1277.94 933.742 1295.79 934.642 1308.4 939.005 C 1314.09 940.973 1319.91 944.386 1322.4 950.156 C 1323.7 953.183 1323.56 956.347 1322.24 959.33 C 1317.95 968.98 1305.04 975.052 1295.85 978.757 C 1276.3 986.646 1238.5 998.796 1218.72 990.059 C 1214.92 988.384 1211.51 985.921 1210.14 981.816 C 1208.63 977.276 1210.34 973.107 1212.48 969.178 C 1219.42 962.841 1226.96 960.714 1235.93 958.642 C 1244.62 960.689 1251.43 964.145 1255.39 972.59 C 1256.48 974.909 1257.16 977.322 1258.92 979.236 C 1267.09 980.305 1279.65 974.742 1287.39 971.88 C 1294.68 969.185 1308.78 964.218 1312.22 956.721 C 1312.25 954.063 1312.36 952.724 1310.35 950.661 C 1302.31 942.413 1271.33 944.857 1259.79 945.336 C 1255.89 945.497 1250.52 946.119 1247.43 943.273 L 1247.67 941.422 C 1252.28 936.047 1257.97 936.224 1264.6 935.335 z"/>
<path transform="translate(0,0)" fill="rgb(254,254,254)" d="M 1229 969.052 C 1231.21 968.867 1233.52 968.64 1235.74 968.8 C 1239.64 969.081 1244.71 971.608 1246.88 974.953 C 1248.17 976.945 1247.65 978.224 1246.98 980.307 C 1244.79 982.757 1242.61 983.395 1239.58 984.411 C 1232.48 984.174 1227.09 984.318 1221.03 980.14 C 1219.68 977.751 1219.78 977.859 1220.45 975.179 C 1222.82 972.205 1225.72 970.793 1229 969.052 z"/>
<path transform="translate(0,0)" fill="rgb(1,1,1)" d="M 1177.03 1000.92 C 1195.15 1004.26 1228.27 1003.33 1241.82 1016.85 C 1244.59 1019.61 1246.52 1023.16 1246.4 1027.15 C 1246.22 1032.95 1242.1 1038.15 1237.87 1041.79 C 1220.67 1056.63 1189.07 1061.75 1166.94 1059.98 C 1155.24 1059.04 1140.13 1056.86 1132.29 1047.01 C 1129.61 1043.65 1127.47 1038.82 1128.05 1034.43 C 1128.77 1029.04 1132.92 1025.78 1136.98 1022.77 C 1141.8 1020.23 1146.74 1017.17 1151.97 1015.65 C 1154.54 1016.43 1154.64 1016.72 1156.2 1018.75 C 1154.66 1027.25 1141.39 1028.14 1137.77 1035.45 C 1136.82 1037.37 1137.34 1038.04 1137.96 1039.96 C 1142.6 1044.75 1148.76 1046.66 1155.08 1048.28 C 1174.83 1053.33 1209.35 1049.75 1227.13 1038.82 C 1230.84 1036.54 1234.72 1032.92 1235.45 1028.42 C 1235.78 1026.39 1235.44 1024.81 1234.23 1023.14 C 1228.88 1015.66 1199.48 1014.56 1189.88 1013.33 C 1184.76 1012.67 1178.74 1011.79 1175.43 1007.47 C 1175.21 1004.32 1175.68 1003.66 1177.03 1000.92 z"/>
<path transform="translate(0,0)" fill="rgb(1,1,1)" d="M 1214.46 913.262 C 1240.59 911.223 1255.4 939.665 1222.13 948.369 C 1191.93 951.223 1182.1 922.563 1214.46 913.262 z"/>
<path transform="translate(0,0)" fill="rgb(254,254,254)" d="M 1214.2 922.069 C 1217.06 921.884 1220.13 921.559 1222.93 922.339 C 1226.09 923.223 1230.07 925.543 1231.45 928.687 C 1232.45 930.949 1231.97 933.06 1230.75 935.106 C 1229.14 937.838 1224.39 938.843 1221.54 939.759 C 1218.78 940.038 1216.1 940.1 1213.34 939.756 C 1209.57 939.286 1207.35 938.228 1205.05 935.24 C 1204.71 933.574 1204.3 932.58 1204.77 930.885 C 1206 926.458 1210.53 924.245 1214.2 922.069 z"/>
<path transform="translate(0,0)" fill="rgb(1,1,1)" d="M 1118.26 1045.98 C 1118.34 1045.98 1118.43 1045.98 1118.51 1045.99 C 1121.84 1046.36 1122.09 1046.4 1124.25 1048.87 C 1124.36 1050.49 1124.64 1051.18 1123.54 1052.51 C 1118.3 1058.78 1101.87 1059.61 1094.39 1060.06 C 1091.1 1064.85 1087.34 1068.95 1082.14 1071.71 C 1073.46 1076.32 1065.06 1074.9 1056.11 1072.15 C 1054 1070.72 1051.97 1068.85 1050.72 1066.6 C 1049.34 1064.12 1048.36 1061.61 1049.45 1058.83 C 1050.97 1054.94 1055.97 1052.43 1059.66 1050.98 C 1071.12 1046.51 1083.32 1047.4 1094.45 1052.25 C 1102.82 1051.02 1110.47 1049.38 1118.26 1045.98 z"/>
<path transform="translate(0,0)" fill="rgb(254,254,254)" d="M 1070 1057.32 C 1073.94 1057.26 1078.13 1056.8 1081.52 1059.06 L 1081.87 1060.96 C 1079.42 1063.9 1076 1064.65 1072.49 1065.83 C 1071.38 1065.81 1070.28 1065.77 1069.17 1065.71 C 1065.67 1065.51 1063.18 1065.12 1060.77 1062.4 L 1061 1060.44 C 1063.57 1058.02 1066.65 1057.88 1070 1057.32 z"/>
<path transform="translate(0,0)" fill="rgb(1,1,1)" d="M 1128.54 1058.21 C 1135.1 1057.58 1141.32 1056.84 1147.53 1059.64 C 1150.92 1061.16 1154.41 1063.65 1155.54 1067.36 C 1156.21 1069.58 1155.85 1071.85 1154.79 1073.89 C 1151.97 1079.31 1145.56 1081.32 1140.21 1083.28 C 1134.57 1084.15 1128.49 1084.09 1123.07 1082.13 C 1119.16 1080.72 1114.75 1077.87 1113.21 1073.83 C 1112.33 1071.52 1112.56 1069.05 1113.77 1066.9 C 1116.76 1061.6 1123.16 1059.94 1128.54 1058.21 z"/>
<path transform="translate(0,0)" fill="rgb(254,254,254)" d="M 1133.32 1067.3 C 1137.04 1067.08 1140.9 1066.47 1144.04 1068.77 L 1144.05 1070.59 C 1141.5 1073.01 1138.42 1073.2 1135.09 1073.81 C 1130.97 1074.15 1127.4 1074.52 1123.92 1071.99 L 1123.87 1070.19 C 1126.45 1067.61 1129.86 1067.72 1133.32 1067.3 z"/>
<path transform="translate(0,0)" fill="rgb(1,1,1)" d="M 1173.85 1014.13 C 1177.04 1013.65 1180.58 1013.44 1183.79 1013.94 C 1189.07 1014.78 1195.31 1017.66 1198.29 1022.22 C 1199.79 1024.51 1200.32 1027.06 1199.65 1029.73 C 1198.45 1034.57 1194.32 1037.1 1190.37 1039.51 C 1186.13 1040.54 1182.02 1041.39 1177.65 1040.41 C 1173.13 1039.4 1168.21 1036.25 1165.8 1032.28 C 1164.17 1029.6 1163.69 1026.56 1164.66 1023.55 C 1166.23 1018.66 1169.62 1016.44 1173.85 1014.13 z"/>
<path transform="translate(0,0)" fill="rgb(254,254,254)" d="M 1174.07 1023.06 C 1179.13 1022.91 1184.59 1022.4 1188.68 1025.92 C 1189.7 1028.76 1189.42 1028.7 1188.23 1031.3 C 1187.12 1031.47 1186 1031.62 1184.89 1031.74 C 1181.06 1032.12 1177.83 1031.64 1174.82 1029.16 C 1173.49 1026.43 1173.56 1026.08 1174.07 1023.06 z"/>
<path transform="translate(0,0)" fill="rgb(254,254,254)" d="M 1206.76 1153.8 C 1221.68 1162 1236.52 1175.79 1247.26 1188.89 C 1257.15 1200.97 1268.97 1218.29 1267.14 1234.77 C 1265.85 1246.45 1257.44 1255.7 1248.49 1262.58 C 1206.45 1294.9 1131.31 1295.77 1080.99 1289.42 C 1042.71 1284.59 1000.14 1273.22 966.746 1253.37 C 950.767 1243.88 935.913 1231.85 921.787 1219.83 C 904.212 1204.87 887.882 1189.06 873.694 1170.8 C 878.445 1168.53 883.09 1166.01 887.759 1163.57 C 914.746 1194.35 950.992 1209.56 989.652 1219.99 C 998.643 1221.68 1007.64 1223.4 1016.76 1224.29 C 1039.29 1226.48 1067.74 1223.5 1085.77 1208.36 C 1097.15 1198.8 1100.7 1187.2 1101.89 1172.86 C 1125.61 1174.81 1141.35 1173.83 1165.16 1170.38 C 1162.7 1173.36 1160.46 1176.34 1158.84 1179.88 C 1149.62 1200.06 1171.94 1202.51 1176.23 1215.98 C 1176.85 1217.93 1176.72 1219.96 1175.7 1221.74 C 1173.77 1225.13 1170.38 1227.47 1166.66 1228.42 C 1149.04 1232.93 1142.28 1218.2 1129.13 1211.03 C 1123.92 1208.2 1118.01 1206.51 1112.18 1208.51 C 1107.65 1210.07 1102.79 1214.01 1100.77 1218.41 C 1097.3 1225.98 1100.66 1234.73 1103.14 1242.07 C 1096.85 1245.39 1090.68 1249.42 1088.4 1256.61 C 1087.18 1260.46 1087.77 1264.6 1089.65 1268.14 C 1093.13 1274.7 1100.08 1279.18 1107.15 1281.01 C 1114.37 1282.89 1123.73 1282.59 1130.17 1278.52 C 1134.3 1275.91 1136.65 1272.14 1137.64 1267.41 C 1138.67 1262.5 1138.19 1256.48 1135.26 1252.33 C 1130.48 1245.56 1121.83 1242.66 1114.01 1241.45 C 1112.06 1237.14 1108.65 1231.1 1108.47 1226.39 C 1108.38 1224.11 1108.97 1221.76 1110.68 1220.15 C 1122.07 1209.4 1137.55 1231.88 1147.22 1236.31 C 1153.49 1239.18 1162.34 1238.31 1169.13 1238.32 C 1174.8 1235.23 1180.58 1231.59 1183.85 1225.81 C 1193.95 1207.94 1169.5 1201.73 1165.97 1188.54 C 1166.82 1173.3 1196.19 1164.38 1205.88 1154.69 L 1206.76 1153.8 z"/>
<path transform="translate(0,0)" fill="rgb(1,1,1)" d="M 1220.51 1204.12 C 1225.68 1203.45 1230.47 1204.53 1235.1 1206.79 C 1241.44 1209.87 1246.02 1215.39 1248.17 1222.06 C 1250.49 1229.26 1249.51 1236.73 1245.98 1243.35 C 1241.7 1251.35 1235.02 1256.21 1226.49 1258.87 C 1223.08 1258.68 1219.99 1258.35 1216.78 1257.14 C 1208.97 1254.2 1202.35 1248.84 1199.03 1241.06 C 1196.33 1234.74 1195.96 1226.95 1198.75 1220.59 C 1203.11 1210.65 1211.01 1207.66 1220.51 1204.12 z"/>
<path transform="translate(0,0)" fill="rgb(254,254,254)" d="M 1221.55 1214.08 C 1223.42 1214.09 1225.58 1214.01 1227.41 1214.44 C 1231.76 1215.44 1236.02 1218.41 1238.2 1222.34 C 1240.65 1226.77 1240.55 1232.18 1238.84 1236.83 C 1236.42 1243.44 1231.74 1246.68 1225.75 1249.58 C 1223.1 1249.32 1220.49 1248.85 1218.04 1247.72 C 1213.42 1245.58 1209.03 1241.09 1207.24 1236.31 C 1205.62 1232.01 1205.62 1227.37 1207.73 1223.23 C 1210.6 1217.6 1215.92 1215.76 1221.55 1214.08 z"/>
<path transform="translate(0,0)" fill="rgb(1,1,1)" d="M 1171 1238.08 C 1175.81 1238.3 1180.41 1238.91 1184.8 1240.99 C 1190.31 1243.6 1195.24 1248.06 1197.18 1253.97 C 1198.63 1258.31 1198.19 1263.06 1195.98 1267.06 C 1192.19 1273.91 1185.92 1276.05 1178.94 1278.2 C 1172.55 1278.96 1166.49 1278.6 1160.93 1275.03 C 1156.37 1272.1 1153.14 1267.61 1152.12 1262.25 C 1151.17 1257.28 1152.25 1252.13 1155.11 1247.95 C 1158.74 1242.65 1164.82 1239.32 1171 1238.08 z"/>
<path transform="translate(0,0)" fill="rgb(254,254,254)" d="M 1169.1 1248.04 C 1171.14 1247.88 1173.46 1247.61 1175.51 1247.91 C 1179.68 1248.51 1184.74 1250.93 1187.19 1254.49 C 1188.4 1256.26 1189.02 1258.56 1188.58 1260.68 C 1187.73 1264.81 1184.23 1266.74 1180.91 1268.71 C 1178.05 1268.93 1174.87 1269.19 1172.02 1268.74 C 1168.27 1268.14 1164.4 1266.15 1162.21 1262.97 C 1160.97 1261.17 1160.6 1259.07 1161.1 1256.94 C 1162.14 1252.54 1165.56 1250.3 1169.1 1248.04 z"/>
<path transform="translate(0,0)" fill="rgb(1,1,1)" d="M 1046.18 1236.16 C 1052.47 1235.67 1058.26 1235.85 1063.9 1239.06 C 1068.56 1241.71 1072.92 1245.97 1074.19 1251.33 C 1074.85 1254.13 1074.48 1256.91 1072.88 1259.32 C 1070.03 1263.62 1065.38 1265.11 1060.67 1266.3 C 1055.82 1266.46 1050.18 1266.84 1045.46 1265.61 C 1040.15 1264.22 1034.23 1261.06 1031.55 1256.09 C 1030.34 1253.84 1029.89 1251.13 1030.72 1248.66 C 1032.89 1242.23 1040.43 1238.61 1046.18 1236.16 z"/>
<path transform="translate(0,0)" fill="rgb(254,254,254)" d="M 1046.84 1245.1 C 1052.15 1244.85 1057.57 1245.69 1062.12 1248.63 C 1064.25 1250.01 1064.62 1250.99 1065.01 1253.4 C 1063.35 1255.98 1062.06 1256.39 1059.4 1257.81 C 1054.08 1257.3 1045.56 1256.99 1041.4 1253.24 C 1040.03 1252.01 1040.42 1251.68 1040.34 1249.96 C 1042.05 1247.38 1044.13 1246.48 1046.84 1245.1 z"/>
<path transform="translate(0,0)" fill="rgb(1,1,1)" d="M 984.774 1224.24 C 991.161 1224.36 997.444 1225.13 1003.29 1227.87 C 1008.84 1230.47 1014.85 1234.73 1016.69 1240.87 C 1017.39 1243.19 1017 1245.67 1015.76 1247.73 C 1013.27 1251.83 1008.56 1253.66 1004.21 1254.97 C 998.825 1255.13 993.351 1254.83 988.3 1252.8 C 982.245 1250.37 975.751 1245.69 973.31 1239.45 C 972.385 1237.08 972.316 1234.53 973.471 1232.23 C 975.599 1228 980.48 1225.57 984.774 1224.24 z"/>
<path transform="translate(0,0)" fill="rgb(254,254,254)" d="M 982.702 1232.94 C 988.858 1232.74 1000.78 1234.21 1005.14 1238.92 C 1007.02 1240.94 1006.59 1242.48 1006.39 1244.96 C 1003.79 1245.11 1001.1 1245.29 998.498 1245.07 C 993.626 1244.66 986.481 1242.96 983.479 1238.85 C 981.899 1236.69 982.294 1235.34 982.702 1232.94 z"/>
<path transform="translate(0,0)" fill="rgb(1,1,1)" d="M 1196.68 1173.96 C 1198.78 1173.88 1200.84 1173.88 1202.94 1174.12 C 1210.14 1174.96 1218.9 1179.07 1223.22 1185.02 C 1225.1 1187.6 1226.11 1190.68 1225.51 1193.87 C 1224.57 1198.89 1220.5 1201.71 1216.63 1204.45 C 1212.7 1205.87 1208.57 1206.79 1204.4 1206.03 C 1199.31 1205.1 1194.42 1201.74 1191.52 1197.49 C 1188.94 1193.7 1187.86 1189.31 1188.81 1184.79 C 1189.87 1179.77 1192.56 1176.78 1196.68 1173.96 z"/>
<path transform="translate(0,0)" fill="rgb(254,254,254)" d="M 1197.95 1183.84 C 1201.33 1183.55 1204.57 1183.69 1207.83 1184.72 C 1210.59 1185.6 1213.83 1186.92 1215.12 1189.72 C 1216.24 1192.14 1215.54 1192.98 1214.7 1195.37 C 1213.13 1195.96 1211.51 1196.58 1209.84 1196.8 C 1206.95 1197.17 1203.68 1196.42 1201.49 1194.44 C 1198.31 1191.57 1198.01 1187.87 1197.95 1183.84 z"/>
<path transform="translate(0,0)" fill="rgb(254,254,254)" d="M 903.172 901.5 C 943.555 897.461 993.075 903.69 1033.01 916.324 C 1089.19 934.102 1122.72 1007.96 1052.95 1034.24 C 1013.44 1049.13 961.639 1051.08 919.831 1045.71 C 906.421 1043.99 882.16 1034.47 869.386 1028.92 C 846.949 1019.06 832.696 1010.19 812.751 996.101 C 847.845 1009.34 899.431 1030.64 935.731 1010.99 C 953.993 1001.26 954.901 978.419 944.114 962.385 C 925.515 934.736 883.495 926.178 853.17 919.089 C 842.626 916.625 831.413 916.023 820.777 913.624 C 837.027 908.275 886.133 902.441 903.172 901.5 z"/>
<path transform="translate(0,0)" fill="rgb(254,254,254)" d="M 499.629 900.409 C 531.707 896.317 615.884 908.406 650.464 914.131 C 625.282 916.325 601.563 920.122 576.23 926.908 C 551.868 931.428 499.666 966.044 510.638 996.224 C 527.514 1042.64 627.984 1005.6 656.301 996.35 L 646.839 1002.85 C 579.929 1047.26 487.393 1062.17 410.97 1034.61 C 375.187 1021.7 360.879 973.622 387.038 944.661 C 415.398 913.263 459.329 904.144 499.629 900.409 z"/>
<path transform="translate(0,0)" fill="rgb(254,254,254)" d="M 258.283 1156.81 C 266.302 1158.4 274.553 1163.53 282.562 1165.92 C 309.145 1173.84 335.798 1175.1 363.311 1173.28 C 364.642 1179.88 366.393 1186.04 368.53 1192.42 C 356.154 1204.08 342.158 1215.19 325.778 1220.46 C 308.358 1226.07 295.924 1222.76 280.175 1214.78 C 283.261 1214 286.383 1213.23 289.385 1212.17 C 297.187 1209.41 305.365 1204.91 308.863 1196.98 C 310.694 1192.84 311.236 1188.32 309.312 1184.1 C 306.912 1178.84 301.54 1175.41 296.234 1173.57 C 283.816 1169.26 260.987 1171.06 249.46 1177.25 C 245.461 1179.39 241.869 1182.63 240.669 1187.17 C 239.252 1192.52 241.799 1196.72 244.294 1201.21 C 235.119 1203.68 225.949 1206.53 219.718 1214.2 C 215.58 1219.29 213.875 1225.49 214.669 1231.99 C 215.547 1239.18 219.883 1245.67 225.645 1249.92 C 231.604 1254.31 239.621 1256.6 246.974 1255.16 C 253.616 1253.87 258.729 1249.51 262.227 1243.9 C 267.654 1235.21 267.487 1226.4 265.251 1216.71 C 273.561 1221.72 281.756 1226.83 291.007 1229.95 C 312.178 1237.09 331.627 1229.32 350.509 1219.77 C 348.859 1227.25 348.19 1234.71 347.6 1242.32 C 346.626 1242.5 345.658 1242.68 344.697 1242.92 C 338.583 1244.46 332.932 1249.34 329.898 1254.86 C 327.702 1258.86 327.195 1263.32 328.478 1267.69 C 330.419 1274.29 334.844 1280.71 341.136 1283.77 C 346.879 1286.56 353.921 1286.62 359.802 1284.21 C 365.561 1281.86 370.065 1277.11 372.461 1271.41 C 374.745 1265.97 375.068 1259.48 372.6 1254.05 C 369.21 1246.59 363.472 1243.7 356.204 1241.11 C 358.321 1232.19 360.009 1222.91 363.891 1214.57 C 366.315 1209.36 370.552 1205.66 374.602 1201.7 C 387.897 1212.81 399.299 1219.51 416.571 1222.86 C 430.743 1225.02 445.503 1224.09 459.801 1223.78 C 455.821 1227.4 450.99 1231.42 449.42 1236.75 C 448.356 1240.37 448.626 1245.12 450.498 1248.45 C 451.84 1250.83 454.208 1252.41 456.813 1253.11 C 463.306 1254.87 471.101 1252.4 476.753 1249.15 C 482.095 1246.07 488.044 1240.88 489.466 1234.64 C 490.063 1232.03 489.619 1229.54 488.15 1227.29 C 484.84 1222.23 479.457 1221.1 473.974 1219.88 C 512.948 1208.84 545.642 1193.52 575.65 1165.96 C 581.122 1168.59 586.258 1170.6 592.238 1171.74 C 568.086 1198.61 541.13 1224.2 510.45 1243.53 C 447.697 1283.07 342.944 1305.1 270.374 1288.45 C 246.108 1282.89 218.492 1271.84 204.899 1249.68 C 199.196 1240.39 197.294 1229.75 199.878 1219.12 C 206.711 1191 234.971 1171.19 258.283 1156.81 z"/>
<path transform="translate(0,0)" fill="rgb(1,1,1)" d="M 283.355 1237.22 C 288.541 1236.66 293.124 1236.68 298.099 1238.54 C 304.524 1240.93 310.01 1245.93 312.57 1252.33 C 314.55 1257.21 314.49 1262.69 312.403 1267.52 C 309.022 1275.24 302.496 1278.46 295.171 1281.41 C 291.436 1282.03 287.707 1282.21 283.984 1281.41 C 275.516 1279.6 269.753 1274.79 265.174 1267.63 C 264.799 1262.53 264.274 1257.55 266.041 1252.64 C 269.009 1244.38 275.875 1240.66 283.355 1237.22 z"/>
<path transform="translate(0,0)" fill="rgb(254,254,254)" d="M 286.141 1245.93 C 287.864 1245.92 289.776 1245.84 291.485 1246.14 C 295.566 1246.85 300.315 1249.32 302.647 1252.83 C 304.454 1255.56 304.88 1258.85 304.07 1261.99 C 302.573 1267.81 297.525 1270.38 292.687 1273.04 C 291.003 1273.09 289.174 1273.19 287.508 1272.9 C 283.15 1272.13 278.546 1269.76 276.156 1265.91 C 274.421 1263.12 274.026 1259.75 274.909 1256.6 C 276.484 1250.98 281.335 1248.38 286.141 1245.93 z"/>
<path transform="translate(0,0)" fill="rgb(1,1,1)" d="M 408.243 1231.16 C 412.038 1231.41 415.831 1232.01 419.341 1233.55 C 424.635 1235.86 429.479 1240.11 431.35 1245.7 C 432.564 1249.33 432.361 1253.19 430.584 1256.6 C 427.61 1262.3 422.583 1264.22 416.901 1266.18 C 411.964 1266.32 406.385 1266.49 401.879 1264.23 C 397.482 1262.02 393.92 1258.02 392.556 1253.27 C 391.278 1248.95 391.906 1244.29 394.28 1240.47 C 397.591 1235.17 402.402 1232.63 408.243 1231.16 z"/>
<path transform="translate(0,0)" fill="rgb(254,254,254)" d="M 407.661 1240.21 C 412.338 1240.71 417.355 1241.8 420.672 1245.44 C 422.432 1247.37 422.461 1248.72 422.438 1251.21 C 421.041 1254.3 419.129 1255.33 416.247 1256.95 C 413.764 1257.2 410.858 1257.47 408.413 1256.98 C 405.85 1256.46 402.9 1254.08 401.613 1251.84 C 400.652 1250.16 400.558 1248.43 401.08 1246.59 C 402.001 1243.36 404.878 1241.67 407.661 1240.21 z"/>
<path transform="translate(0,0)" fill="rgb(254,254,254)" d="M 906.468 1055.67 C 919.742 1058.05 932.647 1062.71 945.428 1066.93 C 987.18 1080.74 1032.46 1097.55 1065.32 1127.84 C 1078.19 1139.71 1091.02 1156.45 1091.59 1174.71 C 1091.85 1183.12 1089.52 1192.29 1083.6 1198.47 C 1070.1 1212.53 1045.8 1215.46 1027.43 1215.72 C 975.096 1210.8 929.412 1193.54 891.633 1156.04 C 893.639 1152.65 895.299 1149 897.063 1145.48 C 903.892 1147.66 911.308 1149.35 918.476 1149.7 C 928.185 1150.17 938.048 1148.05 945.291 1141.21 C 950.58 1136.21 953.887 1129.89 953.987 1122.49 C 954.282 1100.7 920.984 1070.44 906.468 1055.67 z"/>
<path transform="translate(0,0)" fill="rgb(254,254,254)" d="M 553.493 1056 C 554.208 1055.95 554.798 1056.21 555.479 1056.41 C 544.621 1070.27 530.114 1081.19 520.111 1095.95 C 513.483 1105.73 507.406 1119.59 509.976 1131.66 C 511.312 1137.93 514.978 1143.16 520.378 1146.62 C 533.016 1154.69 548.71 1152.81 562.556 1149.81 L 569.305 1158.14 C 536.082 1192.24 485.443 1213.5 438.082 1215.44 C 424.791 1216.05 410.432 1213.64 398.455 1207.72 C 387.979 1202.54 377.805 1193.37 374.191 1181.95 C 371.386 1173.09 373.042 1163.73 377.32 1155.63 C 394.158 1123.72 464.137 1087.72 497.55 1074.32 C 515.686 1067.05 534.845 1061.82 553.493 1056 z"/>
<path transform="translate(0,0)" fill="rgb(254,254,254)" d="M 754.963 1012.72 C 760.232 1017.17 769.345 1039.01 773.386 1046.45 C 788.757 1074.64 805.446 1102.09 823.399 1128.71 C 854.498 1174.7 893.366 1212.55 935.918 1247.8 C 922.589 1249.16 909.34 1250.36 895.947 1250.94 C 852.986 1251.1 810.045 1248.99 767.306 1244.63 C 767.169 1226.4 765.939 1208.2 766.125 1189.97 C 775.469 1192.23 786.922 1193.75 796.395 1191.34 C 799.52 1190.55 801.376 1189.65 803.086 1186.98 L 802.542 1185.18 C 796.074 1180.72 784.861 1183.47 777.234 1182.73 C 773.427 1182.35 769.72 1181.1 766.098 1179.93 C 764.643 1144.61 763.392 1109.09 760.785 1073.84 C 759.275 1053.42 756.778 1033.11 754.963 1012.72 z"/>
<path transform="translate(0,0)" fill="rgb(254,254,254)" d="M 706.66 1014.89 C 708.819 1018.22 702.233 1067.05 701.609 1075.02 C 698.919 1109.35 699.039 1144.07 697.757 1178.48 C 687.275 1180.79 674.744 1184.33 664.04 1183.34 C 659.623 1182.94 655.44 1181.59 650.957 1181.25 C 648.791 1182.36 648.818 1182.2 648.064 1184.5 C 648.75 1186.98 649.054 1188.33 651.351 1189.85 C 660.886 1196.19 686.247 1190.2 697.18 1187.56 C 696.873 1206.36 696.463 1225.15 695.951 1243.95 C 677.931 1245.57 659.684 1241.87 641.589 1242.26 C 617.123 1242.78 598.509 1248.58 574.98 1252.56 C 555.361 1253.87 535.907 1254.15 516.257 1253.99 C 585.379 1206 630.453 1155.03 671.322 1081.8 C 677.75 1070.28 684.24 1058.74 690.174 1046.95 C 695.356 1036.66 700.009 1025.87 705.972 1016.01 L 706.66 1014.89 z"/>
<path transform="translate(0,0)" fill="rgb(254,254,254)" d="M 1171.81 537.931 C 1172.74 539.645 1172.93 542.895 1172.71 544.868 C 1163.85 624.715 1082.84 665.837 1019.1 698.068 C 1015.17 700.054 1010.57 702.746 1006.38 702.543 C 1018.79 675.141 1026.48 645.292 1017.68 615.697 C 1073.34 599.316 1125.56 572.967 1171.81 537.931 z"/>
<path transform="translate(0,0)" fill="rgb(254,254,254)" d="M 762.456 916.53 C 790.017 918.283 819.139 921.407 846.172 926.947 C 872.861 932.417 921.566 943.543 937.114 967.72 C 941.258 974.163 943.262 981.885 941.3 989.434 C 939.655 995.767 935.782 1000.07 930.263 1003.32 C 903.803 1018.95 856.643 1003.16 830.077 992.64 C 819.81 988.575 809.055 982.783 798.393 980.113 C 795.099 979.289 792.493 978.963 789.578 980.69 C 789.122 981.67 789.051 981.654 788.913 982.913 C 788.054 990.748 820.587 1050.37 827.399 1061.49 C 832.365 1069.57 837.929 1077.27 844.043 1084.52 C 854.445 1096.98 870.534 1113.46 887.782 1114.51 C 892.897 1114.82 898.142 1113.67 901.956 1110.05 C 905.385 1106.78 906.87 1102.36 906.849 1097.7 C 906.734 1072.14 863.527 1047.13 846.642 1030.65 C 872.563 1042.08 895.398 1056.92 914.656 1077.7 C 916.804 1087.6 920.211 1100.61 917.983 1110.61 C 916.953 1115.24 914.747 1119.07 910.641 1121.6 C 904.414 1125.45 896.122 1126.04 889.089 1124.52 C 845.986 1115.19 794.933 1022.39 772.307 987.489 C 765.709 977.072 759.211 966.33 750.966 957.119 C 753.933 950.329 756.903 943.601 760.328 937.024 C 772.901 939.317 783.313 945.215 794.679 950.748 C 819.474 962.817 855.71 983.433 883.82 978.881 C 890.533 977.794 897.038 974.839 901.038 969.161 C 901.504 966.258 901.301 966.289 899.82 963.94 C 895.093 962.043 881.499 971.983 872.904 970.38 C 845.312 965.234 806.242 948.381 781.803 935.107 L 780.825 934.569 C 800.53 934.962 921.285 950.376 915.326 978.56 C 913.606 981.186 911.757 982.623 908.824 983.903 C 875.022 998.66 831.305 980.72 800.846 964.188 C 789.343 957.945 776.699 947.867 764.808 943.73 L 762.873 944.775 L 762.264 947.1 C 764.905 954.462 778.969 961.704 785.656 965.847 C 815.304 984.215 851.529 999.085 886.854 998.858 C 898.429 998.131 912.067 996.12 920.202 987.107 C 927.518 979.002 926.491 968.145 917.607 961.906 C 882.304 937.114 834.307 929.414 792.118 926.311 C 782.404 925.597 771.212 926.712 761.619 927.435 L 762.456 916.53 z"/>
<path transform="translate(0,0)" fill="rgb(254,254,254)" d="M 686.525 918.373 C 689.27 918.013 692.581 917.314 695.324 917.674 C 697.358 917.94 699.962 919.536 701.009 921.295 C 701.835 922.685 701.937 922.952 701.607 924.558 C 697.491 928.349 665.5 926.105 657.52 926.745 C 636.373 928.439 568.399 942.295 555.62 958.321 C 553.893 960.487 552.682 963.184 553.152 966.006 C 553.839 970.135 557.164 974.196 560.577 976.44 C 590.789 996.316 670.036 945.349 702.539 937.759 C 705.481 944.43 708.411 950.676 712.425 956.798 C 699.814 974.226 689.068 992.938 677.759 1011.21 C 662.599 1035.71 646.721 1059.53 628.363 1081.77 C 620.543 1091.24 612.491 1100.96 603.102 1108.94 C 592.787 1117.7 576.795 1125.68 562.886 1124.4 C 556.732 1123.83 550.881 1121.16 547.096 1116.15 C 542.34 1109.86 541.831 1101.39 543.178 1093.88 C 546.676 1074.38 563.782 1060.28 579.21 1049.61 C 590.359 1043.36 601.792 1038.65 613.786 1034.29 C 595.988 1047.49 567.493 1061.05 557.334 1081.59 C 554.08 1088.17 551.15 1097.97 553.963 1105.08 C 555.649 1109.33 559.719 1112.11 563.872 1113.66 C 570.768 1116.23 578.432 1114.61 584.896 1111.59 C 606.049 1101.73 631.84 1071.18 643.947 1051.08 C 650.555 1040.11 655.485 1028.07 661.44 1016.74 C 666.226 1007.62 672.729 998.403 676.095 988.736 C 677.16 985.677 677.551 984.495 676.172 981.557 C 673.289 979.752 671.95 979.06 668.412 979.7 C 658.532 981.487 648.164 987.49 638.636 990.966 C 615.596 999.374 591.044 1006.36 566.642 1009.32 C 553.256 1010.94 537.783 1011.6 526.644 1002.62 C 522.573 999.335 519.222 994.858 518.748 989.507 C 518.037 981.492 523.147 973.152 527.983 967.162 C 560.421 926.984 638.145 923.958 686.525 918.373 z"/>
<path transform="translate(0,0)" fill="rgb(1,1,1)" d="M 697.009 942.681 C 699.308 943.266 699.694 943.558 701.425 945.199 C 701.496 946.943 701.805 947.574 700.865 949.136 C 698.507 953.057 692.542 956.343 688.751 958.904 C 668.236 972.764 646.647 983.533 622.788 990.361 C 600.155 996.837 567.097 1005.27 545.409 992.903 C 538.331 988.867 534.995 984.013 532.767 976.238 C 533.216 972.225 533.642 966.518 536.698 963.618 C 538.37 962.031 538.653 962.046 540.949 962.096 L 543.004 964.309 C 544.494 968.281 543.517 972.498 543.028 976.617 L 543.658 977.438 C 548.705 984.103 554.256 986.863 562.414 988.4 C 576.63 991.079 591.643 988.413 605.514 985.04 C 640.344 976.572 667.37 962.605 697.009 942.681 z"/>
<path transform="translate(0,0)" fill="rgb(254,254,254)" d="M 456.196 616.024 C 456.793 616.029 457.39 616.043 457.987 616.067 C 481.119 617.068 549.054 670.107 569.469 693.238 C 614.589 745.526 659.568 811.806 677.78 878.621 C 678.053 883.852 668.252 882.906 665.091 882.236 C 601.373 868.738 548.366 817.192 511.35 766.263 C 495.993 745.133 477.032 715.086 479.089 688.61 C 480.595 676.566 497.707 671.136 508.167 674.084 C 547.244 685.1 577.939 728.332 598.944 759.726 L 598.267 760.34 C 574.84 735.394 549.579 704.031 519.934 687.085 C 493.821 672.158 485.441 697.767 495.953 719.143 C 503.99 735.487 510.124 745.04 520.199 759.996 C 551.53 806.504 592.894 842.99 643.808 866.722 C 648.576 868.943 654.115 870.748 659.198 868.757 C 661.239 866.501 662.11 865.165 661.986 861.906 C 661.349 845.213 605.695 754.107 593.04 736.79 C 580.638 719.821 566.972 703.029 551.175 689.082 C 537.281 676.815 517.281 662.091 497.893 663.504 C 489.469 664.119 480.482 668.764 475.117 675.316 C 467.819 684.227 469.032 695.325 470.104 705.976 C 455.406 680.391 443.352 644.271 456.196 616.024 z"/>
<path transform="translate(0,0)" fill="rgb(254,254,254)" d="M 1006.23 617.683 L 1007.77 618.138 C 1009 619.788 1009.84 621.404 1010.19 623.449 C 1016.1 658.604 1004.57 688.381 987.293 716.788 C 989.064 704.969 990.8 691.19 985.653 680.041 C 975.103 657.188 950.383 662.055 932.784 672.834 C 883.382 703.094 855.317 756.893 827.29 805.554 C 821.048 816.392 795.205 858.938 800.369 868.134 C 816.427 878.601 882.155 827.652 895.157 815.563 C 925.145 787.68 959.778 749.163 965.349 706.855 C 965.807 703.38 964.714 693.163 961.393 690.507 C 932.27 676.192 876.955 744.231 863.947 759.195 L 863.286 759.07 C 863.812 755.817 870.803 746.926 873.339 743.774 C 895.689 716.543 921.277 679.561 958.397 673.052 C 972.122 670.645 979.679 682.91 980.092 694.867 C 981.273 729.071 951.338 764.203 931.378 789.209 C 902.763 825.057 869.07 855.013 826.303 872.332 C 817.226 875.974 793.415 886.385 785.291 879.439 C 784.681 873.35 790.092 858.308 792.567 852.402 C 830.895 760.946 893.352 678.138 979.576 627.038 C 989.299 621.275 994.802 617.464 1006.23 617.683 z"/>
<path transform="translate(0,0)" fill="rgb(254,254,254)" d="M 951.183 695.968 C 958.507 697.698 957.175 705.271 955.862 710.974 C 940.993 775.548 870.627 830.557 815.279 857.966 C 813.028 858.689 813.119 858.829 810.833 858.417 C 810.402 854.997 816.437 844.557 818.33 840.747 C 838.804 799.527 907.509 709.686 951.183 695.968 z"/>
<path transform="translate(0,0)" fill="rgb(254,254,254)" d="M 503.736 691.88 C 537.637 692.394 643.095 821.576 651.576 858.404 L 650.266 859.085 C 631.17 849.595 619.956 844.122 602.319 831.431 C 565.475 804.983 534.869 770.786 512.655 731.244 C 506.639 720.598 495.304 703.485 503.736 691.88 z"/>
<path transform="translate(0,0)" fill="rgb(254,254,254)" d="M 421.801 737.28 C 476.561 734.25 512.405 795.959 525.902 841.774 C 521.629 842.018 516.777 842.012 512.449 842.105 C 474.327 835.691 431.725 805.107 414.21 770.428 C 407.991 758.117 406.78 743.201 421.801 737.28 z"/>
<path transform="translate(0,0)" fill="rgb(1,1,1)" d="M 435.291 750.2 C 452.956 750.271 464.629 760.96 477.661 771.803 C 488.45 780.78 522.635 819.971 512.059 833.378 C 508.859 834.833 507.233 834.119 503.73 833.447 C 474.391 823.024 436.588 802.362 423.306 772.698 C 417.906 760.636 423.786 753.713 435.291 750.2 z"/>
<path transform="translate(0,0)" fill="rgb(254,254,254)" d="M 434.575 759.014 C 456.702 758.217 499.564 802.79 504.023 822.39 L 502.456 823.079 C 486.659 816.801 415.614 779.227 434.575 759.014 z"/>
<path transform="translate(0,0)" fill="rgb(254,254,254)" d="M 370.839 881.529 C 421.234 879.409 459.473 886.248 507.738 890.423 C 506.24 892.497 491.688 892.33 487.371 892.757 C 451.779 896.277 433.007 903.252 402.223 920.062 C 358.797 941.04 306.631 910.659 268.999 889.81 C 308.633 884.668 330.324 881.86 370.839 881.529 z"/>
<path transform="translate(0,0)" fill="rgb(254,254,254)" d="M 933.257 890.146 C 1011.42 881.69 1119.69 880.306 1197.23 886.739 C 1188.26 890.448 1178.7 894.967 1170.51 900.204 C 1139.11 920.288 1105.3 924.919 1068.59 925.377 C 1035.11 903.953 1007 897.554 967.328 893.781 C 957.925 892.887 942.205 891.641 932.975 892.129 L 933.257 890.146 z"/>
<path transform="translate(0,0)" fill="rgb(254,254,254)" d="M 1008.67 1081.14 C 1021.35 1082.92 1034.23 1086.66 1046.64 1089.86 C 1098.72 1103.3 1151.02 1121.78 1198.3 1147.7 L 1187.12 1152.06 C 1159.22 1161.94 1129.51 1165.62 1100.05 1162.85 C 1078.91 1116.61 1050.32 1104.79 1008.67 1081.14 z"/>
<path transform="translate(0,0)" fill="rgb(254,254,254)" d="M 458.776 1080.31 L 460.219 1080.4 C 459.649 1082.52 445.57 1089.26 443.059 1090.66 C 419.359 1103.88 392.891 1118.94 376.087 1140.88 C 370.453 1148.24 367.159 1155.54 364.202 1164.28 C 336.789 1166.88 309.132 1163.93 282.882 1155.62 L 268.789 1151.53 C 289.19 1139.44 310.958 1131.3 332.677 1122.06 C 348.542 1115.31 363.775 1107.03 379.76 1100.6 C 405.293 1090.33 431.817 1085.15 458.776 1080.31 z"/>
<path transform="translate(0,0)" fill="rgb(254,254,254)" d="M 717.079 693.397 C 727.167 692.877 749.904 691.58 758.07 696.17 C 790.795 714.564 775.302 749.52 746.22 759.776 C 745.519 759.937 744.817 760.091 744.112 760.238 C 683.094 772.95 669.607 701.555 717.079 693.397 z"/>
<path transform="translate(0,0)" fill="rgb(254,254,254)" d="M 729.308 816.769 C 761.546 824.027 758.777 937.668 732.866 961.305 L 730.663 961.598 C 709.181 946.121 709.363 893.236 711.604 868.499 C 713.188 851.012 715.196 828.743 729.308 816.769 z"/>
<path transform="translate(0,0)" fill="rgb(254,254,254)" d="M 725.156 972.847 C 729.53 972.915 734.145 972.618 738.36 973.883 C 742.147 988.938 754.337 1104.69 749.095 1115.73 C 745.944 1117.33 742.703 1117.54 739.249 1117.96 C 730.138 1118.9 721.791 1117.96 712.822 1116.42 C 713.398 1070.39 715.781 1017.58 725.156 972.847 z"/>
<path transform="translate(0,0)" fill="rgb(254,254,254)" d="M 1115.07 932.44 C 1128.26 930.814 1146.77 935.787 1157.64 943.226 C 1165.62 948.688 1176.51 960.636 1177.86 970.529 C 1178.22 973.027 1177.55 975.566 1176.01 977.565 C 1170.49 984.628 1151.45 984.017 1143.25 984.611 C 1128.81 985.225 1114.88 984.258 1100.62 982.081 C 1098.94 963.797 1090.39 947.859 1079.07 933.874 C 1091.13 933.992 1103.05 933.256 1115.07 932.44 z"/>
<path transform="translate(0,0)" fill="rgb(254,254,254)" d="M 353.148 935.418 C 362.687 935.511 372.224 935.687 381.76 935.948 C 368.776 950.765 365.218 968.362 364.29 987.473 C 349.374 987.955 334.629 987.116 319.771 985.838 C 311.449 984.75 298.512 984.65 291.454 979.855 C 288.768 978.029 287.179 975.359 286.802 972.139 C 286.019 965.459 289.098 957.693 293.472 952.696 C 306.265 938.082 334.908 936.588 353.148 935.418 z"/>
<path transform="translate(0,0)" fill="rgb(254,254,254)" d="M 748.719 1217.4 C 750.088 1217.09 751.637 1217.2 753.043 1217.16 C 756.69 1222.42 755.257 1283.4 755.31 1295.18 C 741.819 1298.52 729.932 1298.89 716.167 1297 C 714.226 1296.56 712.467 1295.93 710.619 1295.22 C 706.795 1289.6 709.788 1226.53 709.948 1217.52 C 723.293 1218.72 735.369 1219.16 748.719 1217.4 z"/>
<path transform="translate(0,0)" fill="rgb(254,254,254)" d="M 709.033 1305.49 C 724.742 1308.37 739.096 1308.52 754.871 1306.13 C 755.371 1332.17 752.802 1359.06 750.012 1384.92 C 749.936 1387.19 750.047 1387.84 748.79 1389.8 C 739.549 1393.52 724.818 1391.11 715.141 1389.45 C 710.692 1361.97 710.255 1333.27 709.033 1305.49 z"/>
<path transform="translate(0,0)" fill="rgb(254,254,254)" d="M 712.154 1126.92 C 725.397 1128.22 737.747 1128.05 750.967 1126.59 C 751.047 1140.06 755.793 1195.85 753.559 1203.64 C 753.037 1205.46 752.37 1205.3 750.788 1206.16 C 736.786 1209.28 724.117 1209.29 710.042 1206.82 C 709.655 1180.25 711.394 1153.49 712.154 1126.92 z"/>
<path transform="translate(0,0)" fill="rgb(254,254,254)" d="M 710.804 978.013 L 711.253 978.527 C 712.293 991.127 652.415 1089.13 640.781 1106.66 C 633.597 1117.49 608.025 1159.17 596.15 1160.99 C 589.66 1161.98 584.329 1159.32 579.358 1155.58 L 571.581 1148.12 C 621.192 1117.88 655.035 1068.62 685.031 1020.02 C 693.671 1006.02 701.444 991.569 710.804 978.013 z"/>
<path transform="translate(0,0)" fill="rgb(254,254,254)" d="M 752.515 978.651 C 762.042 985.905 772.182 1007.2 778.711 1017.94 C 806.21 1063.15 841.462 1117.05 887.655 1144.48 C 885.512 1147.37 883.187 1150.13 880.935 1152.93 C 875.219 1157.67 870.918 1158.71 863.651 1159.53 C 836.763 1130.1 763.489 1015.11 752.515 978.651 z"/>
<path transform="translate(0,0)" fill="rgb(254,254,254)" d="M 651.688 1013.07 C 651.574 1013.69 651.43 1014.59 651.247 1015.24 C 643.456 1042.5 608.725 1087.35 584.275 1101.44 C 578.043 1105.03 572.451 1106.83 565.261 1104.86 C 563.114 1101.66 561.765 1099.33 562.095 1095.39 C 563.913 1073.64 602.116 1055.04 617.466 1043.05 C 629.354 1033.77 640.461 1023.14 651.688 1013.07 z"/>
<path transform="translate(0,0)" fill="rgb(254,254,254)" d="M 811.303 1008.57 C 819.671 1013.66 830.411 1028.34 838.209 1035.95 C 852.384 1049.8 868.833 1060.97 883.292 1074.47 C 887.103 1078.03 892.596 1082.41 894.698 1087.22 C 897.428 1093.47 897.914 1097.77 896.016 1104.36 C 891.248 1105.95 887.572 1105.69 882.848 1103.91 C 850.048 1091.53 825.19 1038.51 811.303 1008.57 z"/>
<path transform="translate(0,0)" fill="rgb(254,254,254)" d="M 112.613 777.789 C 112.221 786.265 105.799 813.418 103.676 823.999 C 98.066 851.957 94.8886 874.912 92.053 903.122 C 82.842 903.029 77.3844 902.689 68.2295 901.58 L 67.0002 900.426 C 67.0144 892.62 70.6459 881.057 72.6394 873.337 C 81.1093 840.54 95.1045 806.918 112.613 777.789 z"/>
<path transform="translate(0,0)" fill="rgb(254,254,254)" d="M 715.883 1397.72 C 726.618 1401.28 737.346 1401.22 748.481 1400.73 C 746.646 1424.25 743.443 1448.42 737.277 1471.23 L 732.501 1486.07 C 722.561 1457.62 716.959 1427.84 715.883 1397.72 z"/>
<path transform="translate(0,0)" fill="rgb(254,254,254)" d="M 1351.21 727.635 C 1356.27 738.957 1363.44 815.176 1364.27 830.227 L 1363.63 830.758 C 1362.5 831.715 1357.72 836.357 1357.53 837.213 C 1354.9 848.82 1353.72 865.845 1352.84 877.371 C 1352.38 879.915 1352.26 880.889 1351.29 883.362 C 1349.83 878.623 1348.81 865.817 1348.1 860.312 C 1343.02 821.017 1342.91 766.663 1351.21 727.635 z"/>
<path transform="translate(0,0)" fill="rgb(254,254,254)" d="M 671.53 934.418 L 682.281 934.356 C 672.849 939.305 662.659 943.346 652.919 947.693 C 626.639 959.423 602.277 970.617 572.962 971.571 C 571.718 971.194 570.46 970.831 569.237 970.39 C 566.045 969.24 565.021 968.575 563.597 965.548 C 563.936 964.153 564.232 963.183 565.252 962.12 C 578.143 948.689 651.659 935.712 671.53 934.418 z"/>
<path transform="translate(0,0)" fill="rgb(254,254,254)" d="M 815.785 540.167 C 846.737 536.18 842.72 569.616 819.611 567.189 C 813.691 566.567 810.333 560.147 807.474 555.229 C 774.858 568.936 769.363 603.587 763.862 634.819 C 763.159 639.517 761.81 658.87 760.21 661.127 L 758.503 660.663 C 753.729 656.371 755.032 647.873 755.836 642.089 C 761.137 603.954 773.203 551.604 815.785 540.167 z"/>
<path transform="translate(0,0)" fill="rgb(254,254,254)" d="M 641.296 539.091 C 645.292 539.104 650.721 540.1 654.419 541.579 C 697.812 558.933 704.92 618.234 709.47 658.001 L 703.109 664.03 C 702.479 658.616 701.942 653.191 701.498 647.759 C 698.822 616.376 690.086 566.776 656.598 555.23 C 656.274 556.057 655.942 556.882 655.604 557.704 C 652.055 566.293 644.901 571.041 635.768 566.427 C 632.114 564.6 629.355 561.373 628.117 557.48 C 624.978 547.366 632.762 541.694 641.296 539.091 z"/>
<path transform="translate(0,0)" fill="rgb(254,254,254)" d="M 533.392 1093.75 C 534.415 1098.46 532.467 1103.55 533.275 1108.4 C 534.566 1116.13 538.579 1123.54 545.21 1127.91 C 555.397 1134.63 568.064 1133.57 579.45 1131.44 C 573.633 1134.73 567.784 1137.61 561.672 1140.3 C 557.629 1141.59 553.683 1142.79 549.45 1143.29 C 541.072 1144.28 531.186 1143.68 524.457 1137.96 C 520.828 1134.87 518.866 1130.65 518.602 1125.91 C 517.957 1114.33 526.343 1102.16 533.392 1093.75 z"/>
<path transform="translate(0,0)" fill="rgb(254,254,254)" d="M 276.539 1181.33 C 281.428 1180.67 288.331 1180.5 293.071 1181.94 C 296.192 1182.89 297.985 1184.47 299.527 1187.28 C 299.988 1190.02 299.958 1191.94 298.472 1194.37 C 293.732 1202.13 284.428 1203.77 276.288 1205.56 C 269.71 1206.43 264.268 1205.24 258.472 1202.06 C 254.904 1200.09 252.97 1197.97 251.799 1194.08 C 252.06 1192.31 252.034 1190.94 253.099 1189.44 C 257.846 1182.79 269.048 1182.41 276.539 1181.33 z"/>
<path transform="translate(0,0)" fill="rgb(254,254,254)" d="M 237.014 1212.04 C 240.51 1211.57 244.245 1211.26 247.654 1212.4 C 251.325 1213.63 254.386 1216.47 256.076 1219.92 C 258.393 1224.66 258.064 1230.22 256.169 1235.04 C 253.715 1241.27 249.689 1244.55 243.839 1247.25 C 242.845 1247.16 241.856 1247.06 240.875 1246.88 C 235.098 1245.82 229.038 1241.95 226.006 1236.9 C 223.679 1233.03 223.03 1228.4 224.368 1224.06 C 226.36 1217.6 231.359 1214.79 237.014 1212.04 z"/>
<path transform="translate(0,0)" fill="rgb(254,254,254)" d="M 925.847 1089.77 C 926.566 1090.35 927.236 1090.9 927.855 1091.59 C 935.207 1099.86 945.206 1112.05 944.4 1123.79 C 944.106 1128.41 941.941 1132.7 938.405 1135.69 C 932 1141.13 923.29 1141.12 915.395 1140.72 C 909.121 1139.56 900.66 1138.72 895.799 1134.19 L 896.136 1133.63 C 901.502 1131.19 906.559 1132.94 911.942 1131.51 C 918.815 1129.68 923.288 1122.49 926.831 1116.88 C 927.516 1107.6 927.37 1098.96 925.847 1089.77 z"/>
<path transform="translate(0,0)" fill="rgb(254,254,254)" d="M 719.576 773.081 C 727.456 773.521 736.01 773.048 743.949 772.791 C 742.589 783.138 741.061 793.462 739.366 803.759 C 739.23 804.134 738.234 805.672 737.985 806.074 L 725.918 806.344 C 723.175 804.105 720.325 778.383 719.576 773.081 z"/>
<path transform="translate(0,0)" fill="rgb(254,254,254)" d="M 140.585 857.766 C 141.312 860.876 135.475 895.865 134.599 901.576 C 126.937 902.483 121.022 902.924 113.362 903.294 C 113.327 894.062 133.825 866.002 140.585 857.766 z"/>
<path transform="translate(0,0)" fill="rgb(254,254,254)" d="M 351.458 1251.25 C 353.924 1251.27 356.264 1251.46 358.574 1252.41 C 361.194 1253.48 363.415 1255.64 364.437 1258.29 C 365.625 1261.37 365.166 1264.94 363.814 1267.89 C 361.294 1273.38 357.404 1275.32 352.056 1277.22 C 349.677 1276.67 347.106 1276.16 344.922 1275.03 C 341.511 1273.28 338.63 1270.13 337.499 1266.44 C 336.629 1263.6 336.965 1260.61 338.546 1258.09 C 341.506 1253.36 346.403 1252.28 351.458 1251.25 z"/>
<path transform="translate(0,0)" fill="rgb(254,254,254)" d="M 728.831 667.169 C 744.755 665.94 751.346 670.423 761.222 682.235 L 740.709 681.163 C 734.031 681.013 711.814 683.305 708.492 678.724 C 710.993 672.509 722.886 668.713 728.831 667.169 z"/>
<path transform="translate(0,0)" fill="rgb(254,254,254)" d="M 1107.41 1250.86 C 1110.87 1251.02 1114.69 1251.07 1118.04 1251.95 C 1121.67 1252.9 1126.75 1256.83 1128.34 1260.25 C 1129.16 1262.02 1129.24 1263.89 1128.49 1265.71 C 1126.8 1269.77 1122.66 1271.37 1118.9 1272.92 C 1115.3 1273.12 1111.97 1272.96 1108.49 1271.86 C 1104.5 1270.6 1099.78 1267.83 1097.88 1263.92 C 1097.01 1262.12 1096.88 1259.99 1097.64 1258.13 C 1099.28 1254.09 1103.73 1252.52 1107.41 1250.86 z"/>
<path transform="translate(0,0)" fill="rgb(254,254,254)" d="M 4.5045 874.398 C 11.8749 880.423 20.9195 901.247 24.886 910.6 C 18.6975 909.79 14.3627 908.462 8.37083 906.756 C 6.53992 896.195 5.41452 885.074 4.5045 874.398 z"/>
<path transform="translate(0,0)" fill="rgb(254,254,254)" d="M 185.556 899.073 C 192.625 898.945 204.28 901.137 204.571 909.849 C 202.831 913.31 201.929 913.451 198.383 915.494 C 190.952 916.068 180.17 913.581 180.107 904.538 C 181.673 901.222 182.294 901.127 185.556 899.073 z"/>
<path transform="translate(0,0)" fill="rgb(254,254,254)" d="M 1365.21 850.7 C 1366.28 855.39 1371.44 892.942 1370.96 895.336 L 1368.79 895.87 C 1366.87 895.591 1360.85 894.988 1360.51 892.959 C 1358.6 881.627 1361.72 861.241 1365.21 850.7 z"/>
<path transform="translate(0,0)" fill="rgb(254,254,254)" d="M 466.937 1228.88 C 471.188 1228.37 474.956 1228.2 478.565 1230.77 C 479.18 1232.4 479.584 1232.65 479.086 1234.43 C 477.801 1239.03 472.701 1241.2 468.849 1243.34 C 465.164 1244.6 462.41 1245.5 458.761 1243.9 L 457.91 1241.61 C 459.028 1235.52 462.406 1232.61 466.937 1228.88 z"/>
<path transform="translate(0,0)" fill="rgb(254,254,254)" d="M 1264.86 898.982 C 1271.42 898.751 1280.42 900.095 1280.18 908.425 C 1278.56 911.649 1277.88 911.775 1274.67 913.792 C 1268.14 913.803 1259.72 912.918 1258.92 905.182 C 1260.4 901.536 1261.49 901.214 1264.86 898.982 z"/>
<path transform="translate(0,0)" fill="rgb(254,254,254)" d="M 1389.51 860.753 C 1389.71 868.773 1384.45 891.128 1381.11 898.514 C 1377.33 891.276 1386.24 868.555 1389.51 860.753 z"/>
<path transform="translate(0,0)" fill="rgb(94,95,96)" d="M 911.378 893.063 C 916.422 891.109 927.497 890.575 933.257 890.146 L 932.975 892.129 C 925.486 892.726 918.86 892.907 911.378 893.063 z"/>
<path transform="translate(0,0)" fill="rgb(1,1,1)" d="M 1378.91 127.066 C 1390.92 109.331 1416.42 89.5138 1439.1 92.4427 C 1441.7 94.4338 1440.73 93.1926 1441.92 96.4385 C 1437.8 103.577 1419.02 102.889 1406.73 111.705 C 1392.17 122.141 1392.7 128.663 1382.66 138.159 C 1371.99 134.688 1361.63 126.429 1350.8 122.623 C 1298.46 104.233 1267.55 131.658 1242.35 173.862 C 1239.93 177.904 1188.2 154.422 1169.78 200.944 C 1137.18 202.431 1068.32 209.381 1037.57 217.577 C 1070.69 225.209 1135.73 229.526 1170.1 231.33 C 1266.93 236.412 1365.04 236.835 1462 237.132 L 1462 246.566 C 1449.05 245.69 1432.73 246.108 1419.62 246.106 L 1347.89 246.004 C 1248.98 245.327 1146.42 243.023 1048.11 229.732 C 1041.18 228.796 1028.13 226.503 1024.88 219.764 C 1025.19 217.006 1025.52 215.889 1027.55 213.888 C 1042.3 199.342 1139.67 192.898 1162.96 191.703 C 1179.08 164.866 1208.36 155.996 1237.72 165.132 C 1249.1 140.388 1273.91 116.907 1300.63 110.155 C 1330.25 102.674 1353.94 112.371 1378.91 127.066 z"/>
<path transform="translate(0,0)" fill="rgb(1,1,1)" d="M 1232.23 1418.62 C 1235.17 1419.02 1236.16 1418.87 1238.47 1420.84 C 1242.19 1429.65 1235.26 1516.29 1234.43 1532.33 C 1228.9 1638.91 1225 1744.72 1232.69 1851.28 C 1245.18 1796.59 1252.59 1740.9 1264.37 1686.12 C 1275.25 1635.56 1290.23 1587.24 1305.9 1538.07 C 1312.2 1518.29 1320.48 1485.99 1330.26 1468.86 C 1331.99 1465.83 1333.48 1463.72 1336.9 1462.82 L 1339.2 1464.51 C 1341.19 1468.74 1331.46 1512.13 1329.89 1520.36 C 1310.3 1623.13 1284.73 1726.02 1274.42 1830.28 C 1280.73 1810.59 1287.01 1791 1294.32 1771.64 C 1299.76 1756.96 1305.75 1742.49 1312.29 1728.26 C 1319.8 1712.25 1365.35 1622.68 1377.22 1618.2 C 1378.81 1617.6 1379.01 1618.06 1380.5 1618.66 C 1381.61 1621.53 1381.86 1622.66 1380.98 1625.79 C 1378.68 1633.98 1374.14 1642.7 1371.25 1650.87 C 1364.62 1670.05 1358.45 1689.39 1352.74 1708.86 C 1335.49 1767.37 1324.21 1829.83 1316.03 1890.23 C 1314.66 1900.3 1312.23 1910.46 1312.49 1920.66 C 1313.67 1913.14 1316.6 1905.51 1318.5 1898.09 C 1329.79 1854.83 1344.2 1812.45 1361.6 1771.28 C 1370.88 1748.96 1423.37 1637.95 1441.85 1630.32 C 1444.53 1630.52 1444.36 1630.52 1446.13 1632.56 C 1445.28 1643.62 1435.45 1673.24 1432.16 1686.05 C 1401.38 1806 1343.46 1918.46 1324.64 2041.77 L 1323.01 2042.9 C 1320.15 2042.84 1316.89 2043.44 1314.62 2041.66 C 1315.56 2025.78 1320.46 2009.21 1324.1 1993.76 C 1343.31 1912.15 1374.42 1834.71 1401.79 1755.73 C 1412.61 1724.51 1421.09 1691.99 1429.64 1660.09 C 1420.41 1675.42 1411.42 1690.79 1402.85 1706.51 C 1358.08 1789.42 1328.17 1882.48 1310.15 1974.83 C 1305.87 1996.74 1304.25 2018.92 1300.2 2040.77 C 1297.29 2042.38 1295.21 2042.25 1291.91 2041.61 C 1278.34 2038.94 1263.46 2032.27 1250.81 2026.49 C 1236.06 2019.75 1221.47 2012.14 1208.17 2002.81 C 1143.76 1957.61 1098.3 1881.77 1059.04 1814.98 C 1046.62 1793.84 1035.3 1769.57 1021.52 1749.55 L 1020.87 1748.62 C 1048.98 1829.99 1091.76 1941.52 1156.99 1998.91 C 1170.59 2011.06 1186 2021 1202.67 2028.38 C 1207 2030.32 1218.17 2034.09 1220.47 2038.25 C 1221.65 2040.38 1221.96 2041.61 1221.4 2043.91 L 1218.96 2044.82 C 1203.81 2043.58 1184.67 2030.9 1172.19 2022.63 C 1092.77 1970.04 1046.49 1846.74 1015.3 1760.21 C 1006.54 1735.89 994.6 1708.1 989.489 1682.91 C 990.345 1680.67 990.547 1680.88 992.771 1679.86 C 997.306 1680.62 999.812 1685.93 1001.74 1689.77 C 1019.37 1724.75 1036.92 1756.84 1056.19 1790.94 C 1092.03 1854.35 1130.39 1919.77 1184.15 1969.69 C 1167.09 1935.97 1156.77 1898.2 1147.01 1861.83 C 1123.81 1775.35 1103.78 1674.24 1097.94 1584.87 C 1069.57 1583.43 1040.29 1580.27 1013.39 1570.66 C 1005.52 1567.84 992.662 1563.46 989.179 1555.06 C 987.921 1552.03 988.206 1548.79 989.673 1545.9 C 995.035 1535.32 1012.14 1529.42 1022.72 1525.97 C 1074.63 1509.04 1146.35 1510.27 1195.38 1535.19 C 1204.47 1497.09 1214.25 1453.53 1232.23 1418.62 z"/>
<path transform="translate(0,0)" fill="rgb(254,254,254)" d="M 1228.38 1450.71 C 1231.07 1464.42 1227.58 1488.24 1226.71 1502.77 C 1225.73 1519.31 1225.25 1535.93 1224.45 1552.49 C 1220.9 1626.25 1216.71 1700.46 1219 1774.31 C 1220.21 1825.75 1225.29 1877.03 1234.18 1927.71 C 1239.55 1957.54 1251.82 1987.36 1252.1 2017.44 C 1243.29 2011.61 1239.37 2004.57 1233.9 1995.8 C 1226.9 1984.82 1220.78 1973.31 1215.59 1961.37 C 1161.58 1836.8 1176.48 1647.19 1209.23 1516.78 C 1214.74 1494.88 1220.11 1471.76 1228.38 1450.71 z"/>
<path transform="translate(0,0)" fill="rgb(254,254,254)" d="M 1188.71 1562.97 C 1189.44 1566.05 1178.97 1630 1177.94 1638.15 C 1165.34 1737.85 1165.43 1867.44 1204.85 1960.92 C 1211.37 1976.37 1220.01 1990.79 1228.93 2004.95 C 1211.93 1994.03 1203.29 1990.91 1195 1971.31 C 1173.06 1925.32 1159.17 1874.77 1147.16 1825.41 C 1127.41 1746.14 1113.94 1665.43 1106.87 1584.04 C 1135.61 1580.36 1162.81 1576.97 1188.71 1562.97 z"/>
<path transform="translate(0,0)" fill="rgb(254,254,254)" d="M 1355.78 1667.88 C 1355.67 1674.89 1344.76 1702.61 1342.27 1711.47 C 1335.01 1737.32 1328.74 1763.43 1323.47 1789.75 C 1312.82 1843.66 1304.1 1897.92 1297.3 1952.45 C 1294.18 1978.77 1292.58 2005.26 1289.62 2031.6 L 1270.12 2024.03 L 1262.84 2021.16 C 1263.9 1991.03 1265.37 1960.92 1267.22 1930.82 C 1268.26 1913.41 1268.51 1895.44 1271.16 1878.19 C 1272.84 1867.23 1276.63 1856.1 1279.63 1845.43 C 1294.85 1791.42 1322.65 1712.62 1355.78 1667.88 z"/>
<path transform="translate(0,0)" fill="rgb(254,254,254)" d="M 1317.48 1530.73 C 1319.46 1540.12 1297.72 1631.73 1294.61 1646.99 C 1290.9 1665.18 1287.66 1683.54 1284.39 1701.81 C 1276.53 1745.68 1268.74 1789.94 1264.04 1834.26 C 1261.27 1860.36 1260.32 1886.6 1258.81 1912.79 C 1257.62 1933.47 1255.77 1954.12 1254.55 1974.81 L 1250.16 1957.72 C 1245.18 1937.86 1236.21 1896.05 1236.7 1876.31 L 1236.72 1875.45 C 1236.94 1867.1 1240.07 1858.6 1242.03 1850.52 C 1245.33 1836.95 1248.66 1823.31 1251.38 1809.62 C 1258.81 1772.23 1264.41 1734.45 1271.93 1697.07 C 1283.21 1641.03 1298.29 1584.57 1317.48 1530.73 z"/>
<path transform="translate(0,0)" fill="rgb(254,254,254)" d="M 1079.64 1524.4 C 1092.39 1523.58 1105.19 1523.69 1117.93 1524.74 C 1107.1 1540.56 1101.2 1557.14 1097.49 1575.74 C 1085.64 1575.34 1073.83 1574.31 1062.1 1572.64 C 1068.15 1565.71 1074.77 1559.21 1080.45 1551.98 C 1082.44 1549.45 1083.85 1547.53 1083.44 1544.25 C 1081.7 1542.4 1081.67 1542.09 1079.04 1541.71 C 1075.04 1543.29 1072.5 1546.7 1069.66 1549.81 C 1063.42 1557.3 1057.22 1564.83 1050.7 1572.08 C 1036.7 1568.55 1007.98 1562.9 997.859 1552.58 C 997.71 1550.72 997.548 1550.64 998.739 1549.19 C 1013.1 1531.75 1058.04 1526.54 1079.64 1524.4 z"/>
<path transform="translate(0,0)" fill="rgb(254,254,254)" d="M 1129.2 1525.59 C 1142.78 1526.03 1157.19 1529.58 1170.12 1533.7 C 1175.66 1535.47 1187.16 1538.68 1189.74 1544.43 C 1190.59 1546.35 1190.44 1547.97 1189.46 1549.81 C 1185.55 1557.2 1168.3 1562.7 1160.67 1565.14 C 1143.37 1570.37 1125.21 1573.21 1107.21 1574.61 C 1110.68 1555.68 1118.13 1541.06 1129.2 1525.59 z"/>
<path transform="translate(0,0)" fill="rgb(1,1,1)" d="M 689.555 1767.43 C 734.077 1765.21 778.412 1769.1 822.52 1774.86 C 828.63 1775.65 841.313 1775.93 846.352 1779.56 C 848.109 1780.82 848.022 1781.44 848.301 1783.43 C 843.212 1793.09 791.235 1834.05 778.933 1846.09 C 809.231 1831.05 841.083 1805.37 866.657 1783.21 C 879.623 1786.69 911.501 1796.1 921.604 1803.51 C 923.691 1805.04 923.494 1805.58 923.825 1808.02 C 920.522 1813.46 908.265 1816.71 902.328 1819.26 C 873.616 1831.6 844.865 1842.33 814.865 1851.12 C 796.696 1856.44 774.068 1859.97 757.187 1867.7 C 754.929 1868.74 751.902 1869.93 751.037 1872.29 L 752.9 1870.08 L 754.497 1873 C 772.132 1872.35 791.077 1868.55 808.57 1865.77 C 859.795 1857.6 909.932 1846.7 960.208 1833.98 C 973.691 1844.23 986.157 1862.46 989.409 1879.21 C 991.892 1892.01 988.883 1904.78 981.539 1915.46 C 954.733 1954.43 884.605 1975.69 840.249 1983.67 C 754.01 1999.82 664.937 1998.77 580.376 1973.66 C 542.66 1962.45 493.584 1943.19 474.073 1906.38 C 464.82 1888.91 464.811 1871.16 470.634 1852.57 C 471.992 1848.23 474.558 1840.72 479.422 1839.33 C 482.787 1838.38 544.791 1852.96 553.892 1854.86 C 564.285 1857.04 646.277 1872.49 651.42 1869.84 C 650.246 1867.09 648.051 1865.64 645.453 1864.32 C 637.387 1860.24 627.649 1857.92 619.041 1855 C 591.634 1845.72 533.629 1828.8 513.001 1809.28 C 531.301 1798.07 554.856 1788.72 575.509 1782.87 C 591.182 1802.65 609.582 1822.5 629.938 1837.48 C 628.501 1835.57 627.073 1833.66 625.655 1831.73 C 619.7 1823.66 592.221 1788.47 593.455 1780.35 C 600.397 1773.08 673.916 1768.38 689.555 1767.43 z"/>
<path transform="translate(0,0)" fill="rgb(254,254,254)" d="M 955.677 1844.07 C 956.934 1844.15 957.366 1844.07 958.524 1844.71 C 966.28 1849.01 976.717 1868.14 979.292 1876.45 C 982.461 1886.67 981.408 1896.74 976.349 1906.16 C 958.56 1939.29 906.559 1956.78 872.816 1966.72 C 850.221 1941.76 820.969 1923.19 790.191 1910.03 C 784.867 1907.75 772.955 1903.11 767.582 1905.3 C 765.707 1907.13 765.453 1907.3 764.895 1910 C 767.02 1912.85 796.887 1923.32 803.578 1926.62 C 820.384 1934.91 834.983 1945.28 849.313 1957.29 C 854.032 1961.04 858.436 1965.23 862.907 1969.28 C 821.485 1978.03 781.914 1985.09 739.35 1985.58 C 737.046 1946.69 731.709 1920.36 717.998 1884.44 C 793.343 1881.55 882.936 1864.61 955.677 1844.07 z"/>
<path transform="translate(0,0)" fill="rgb(254,254,254)" d="M 482.099 1849.46 C 506.251 1851.96 532.666 1859.69 556.709 1864.54 C 605.381 1874.34 655.189 1881.95 704.798 1884.16 C 678.127 1909.22 658.87 1943.92 649.216 1978.99 C 623.101 1974.78 597.886 1968.29 572.478 1961.08 C 562.041 1957.75 551.915 1953.96 542.197 1948.86 C 559.567 1933.05 584.634 1922.24 606.899 1915.43 C 616.309 1912.56 628.733 1910.45 636.856 1904.77 C 637.834 1902.7 637.735 1902.47 637.346 1900.19 C 635.357 1898.62 634.911 1898.3 632.378 1898.23 C 625.753 1898.06 618.074 1901.58 611.784 1903.67 C 583.216 1913.16 555.63 1924.25 533.643 1945.45 C 513.437 1936.2 491.273 1919.69 481.562 1899.39 C 473.353 1882.24 475.936 1866.74 482.099 1849.46 z"/>
<path transform="translate(0,0)" fill="rgb(254,254,254)" d="M 724.63 1775.91 C 761.831 1775.55 799.028 1780.25 835.768 1785.62 C 816.563 1801.64 797.643 1817.99 779.018 1834.68 C 765.416 1847.49 746.979 1858.89 736.415 1874.22 C 712.748 1876.3 688.963 1874.44 665.346 1872.66 C 644.306 1844.11 624.247 1814.86 605.205 1784.94 C 634.842 1780.32 664.732 1777.48 694.711 1776.45 L 715.256 1775.97 C 714.307 1779.17 713.425 1782.4 712.613 1785.65 C 710.385 1794.28 701.551 1826.13 706.052 1833.77 C 708.26 1834.82 708.482 1834.91 710.883 1834.54 C 711.405 1833.96 712.094 1833.49 712.449 1832.8 C 714.199 1829.36 714.91 1817.71 715.696 1813.22 C 717.895 1800.66 721.412 1788.26 724.63 1775.91 z"/>
<path transform="translate(0,0)" fill="rgb(254,254,254)" d="M 710.279 1891.88 C 723.905 1918.87 728.927 1955.65 730.204 1985.48 C 714.829 1985.87 698.946 1984.9 683.652 1983.31 C 675.204 1982.76 666.687 1981.47 658.273 1980.47 C 668.676 1945.77 686.177 1918.56 710.279 1891.88 z"/>
<path transform="translate(0,0)" fill="rgb(254,254,254)" d="M 868.1 1792.71 C 880.111 1795.37 896.98 1801.71 907.086 1808.6 C 879.369 1817.87 853.14 1830.33 825.007 1838.7 C 814.579 1842.32 804.039 1845.61 793.403 1848.57 C 818.759 1830.85 845.99 1814.62 868.1 1792.71 z"/>
<path transform="translate(0,0)" fill="rgb(254,254,254)" d="M 570.332 1793.96 C 573.879 1794.63 599.508 1822.99 604.624 1827.86 C 612.153 1835.03 620.726 1841.2 627.905 1848.67 L 598.698 1838.12 C 575.412 1829.78 552.327 1820.81 530.087 1809.97 C 543.165 1803.81 556.761 1798.9 570.332 1793.96 z"/>
<path transform="translate(0,0)" fill="rgb(1,1,1)" d="M 212.963 1446.43 C 214.335 1447 215.6 1447.81 216.887 1448.55 C 218.375 1451.09 218.914 1452.13 218.512 1455.23 C 218.009 1459.1 216.423 1463.11 215.736 1467.05 C 211.866 1489.27 207.266 1511.15 202.28 1533.14 C 190.829 1583.63 178.46 1634.08 169.103 1685.01 C 159.689 1738.3 151.801 1791.85 145.449 1845.6 C 143.799 1860.39 139.654 1877.62 141.493 1892.37 C 145.727 1871.15 152.803 1849.5 159.726 1828.96 C 167.503 1806.43 176.158 1784.21 185.673 1762.35 C 193.038 1745.72 236.093 1659.53 248.086 1654.28 C 249.983 1653.45 250.324 1653.78 252.096 1654.55 C 253.106 1657.75 252.654 1660.61 251.851 1663.79 C 249.188 1674.34 244.501 1684.75 241.034 1695.09 C 234.175 1716.07 227.687 1737.17 221.572 1758.38 C 201.613 1829.6 185.948 1904.16 179.196 1977.84 C 188.959 1945.5 198.036 1912.93 209.297 1881.06 C 231.949 1816.32 262.294 1754.53 299.683 1697.03 C 305.05 1688.78 321.764 1660.99 329.756 1659.3 C 330.77 1659.97 332.109 1660.45 332.532 1661.66 C 334.814 1668.19 325.659 1688.05 323.5 1695.13 C 314.839 1723.55 308.127 1751.85 297.906 1779.88 C 278.284 1833.71 254.254 1885.58 235.719 1939.93 C 227.354 1964.99 219.829 1990.33 213.157 2015.89 C 211.506 2022.04 209.796 2035.96 207.769 2040.57 C 206.807 2042.76 205.269 2043.13 203.178 2043.82 C 200.532 2042.92 200.435 2042.7 198.882 2040.56 C 197.608 2034.07 202.697 2020.99 204.384 2014.06 C 217.19 1961.43 234.808 1910.86 254.99 1860.68 C 266.904 1831.05 280.123 1802.08 290.897 1771.99 C 300.205 1745.99 306.945 1718.94 314.101 1692.3 C 304.545 1705.21 296.37 1719.49 288.129 1733.26 C 231.844 1827.36 196.356 1934.72 176.493 2042.21 L 163.807 2042.07 C 167.863 1975.72 176.78 1909.76 190.485 1844.71 C 196.644 1822.02 200.925 1798.73 206.893 1775.95 C 213.829 1749.47 222.564 1723.28 230.575 1697.11 C 183.322 1772.66 151.75 1867.02 139.293 1955.09 C 136.98 1972.35 135.106 1989.66 133.674 2007.02 C 132.851 2018 132.873 2029.35 130.994 2040.19 L 129.314 2041.33 C 126.29 2041.72 124.494 2041.78 121.605 2040.74 C 119.568 2034.48 122.334 1999.64 122.694 1990.49 C 124.812 1936.67 130.556 1883.82 137.316 1830.43 C 144.289 1772.96 153.363 1715.77 164.519 1658.97 C 170.047 1630.9 176.036 1602.92 182.483 1575.04 C 188.499 1549.12 195.174 1523.28 199.92 1497.09 C 187.861 1524.54 179.289 1554.85 170.755 1583.57 C 145.552 1668.41 126.282 1756.44 110.583 1843.57 C 98.4007 1911.18 88.9686 1978.43 64.5875 2043.15 C 58.6282 2042.98 52.9004 2042.77 46.997 2043.83 C 46.7833 2043.08 46.5761 2042.34 46.3754 2041.59 C 34.7815 1998.92 32.4567 1952.12 30.5193 1908.08 C 26.6133 1800.71 29.7184 1693.21 39.8148 1586.25 C 41.1662 1571.65 42.5488 1530.5 49.0139 1519.21 L 52.2925 1519.22 C 57.2622 1530.38 60.5107 1591.76 61.9713 1607.32 C 68.837 1674.16 76.4908 1740.92 84.9313 1807.59 C 87.9336 1829.78 88.8119 1854.17 94.5098 1875.79 L 94.8269 1876.96 C 107.364 1805.71 122.25 1734.88 139.458 1664.61 C 154.917 1602.63 171.494 1542.31 195.582 1483.03 C 200.085 1471.94 204.527 1454.8 212.963 1446.43 z"/>
<path transform="translate(0,0)" fill="rgb(254,254,254)" d="M 49.6418 1583.01 C 53.2539 1597.38 52.8069 1616.4 54.3777 1631.45 L 66.9812 1744.13 C 71.1494 1778.67 75.5925 1813.19 80.3102 1847.67 C 83.1246 1868.53 88.2689 1895.51 87.2017 1916.2 C 85.7466 1944.41 71.3282 1993.01 62.4807 2021.26 C 60.473 2027.71 58.3683 2033.83 55.4775 2039.96 C 41.4412 1990.77 40.4152 1933.07 39.2044 1882.01 C 37.0563 1807.09 38.5477 1732.11 43.6733 1657.33 C 45.2392 1632.91 45.4727 1607.05 49.6418 1583.01 z"/>
<path transform="translate(0,0)" fill="rgb(1,1,1)" d="M 498.471 1400.45 C 511.031 1399.57 524.873 1401.24 537.336 1402.85 C 563.059 1406.18 605.292 1414.12 621.685 1435.81 C 627.623 1443.58 630.192 1453.4 628.817 1463.08 C 627.096 1475.32 621.037 1487.05 610.981 1494.45 C 598.998 1503.27 583.63 1507.84 569.436 1511.79 C 522.816 1524.74 472.774 1529.93 424.702 1522.69 C 399.421 1519.39 354.564 1507.56 336.959 1488.38 C 332.526 1483.54 329.392 1477.49 329.973 1470.76 C 330.764 1461.61 337.934 1453.65 344.655 1448.01 C 352.015 1441.85 382.698 1423.37 391.608 1424.18 C 394.734 1425.91 395.302 1427.23 397.071 1430.22 C 411.816 1437.45 426.922 1441.61 442.649 1446.01 C 435.996 1440.09 420.248 1428.35 419.592 1418.89 C 419.483 1417.32 419.929 1416.38 421.025 1415.26 C 430.813 1405.27 483.608 1401.05 498.471 1400.45 z"/>
<path transform="translate(0,0)" fill="rgb(254,254,254)" d="M 385.281 1434.8 C 392.897 1435.72 408.591 1445.13 417.516 1448 C 432.141 1452.69 447.679 1455.27 462.722 1458.32 C 438.138 1465.09 419.708 1474.45 403.695 1494.83 C 401.168 1498.98 399.083 1503.53 396.854 1507.85 C 396.31 1507.73 395.767 1507.61 395.226 1507.48 C 380.048 1503.8 349.204 1493.58 341.4 1479.67 C 339.447 1476.18 339.036 1472.34 340.301 1468.54 C 345.368 1453.35 371.663 1441.42 385.281 1434.8 z"/>
<path transform="translate(0,0)" fill="rgb(254,254,254)" d="M 501.166 1409.3 C 521.596 1409.11 542.441 1412.34 562.321 1416.8 C 554.329 1429.91 541.393 1443.46 527.729 1450.49 C 508.192 1460.54 488.38 1454.7 468.746 1448.49 C 452.516 1442.27 440.788 1434.29 430.035 1420.6 C 449.638 1413.87 471.361 1410.97 491.984 1409.81 C 491.392 1416.72 489.27 1432.44 493.903 1437.81 C 495.37 1439.51 496.129 1439.86 498.326 1440.01 C 502.618 1436.39 498.86 1418.09 500.929 1410.15 C 501.004 1409.87 501.087 1409.59 501.166 1409.3 z"/>
<path transform="translate(0,0)" fill="rgb(254,254,254)" d="M 488.369 1465.46 L 489.732 1465.42 L 490.448 1466.67 C 484.891 1479.93 467.57 1504.56 458.606 1517.26 C 444.128 1517.04 430.371 1514.93 416.164 1512.25 L 405.834 1509.37 C 409.062 1503.3 412.526 1497.4 417.176 1492.3 C 435.018 1472.73 462.957 1466.44 488.369 1465.46 z"/>
<path transform="translate(0,0)" fill="rgb(254,254,254)" d="M 510.187 1464.96 C 536.377 1464.06 571.667 1479.34 592.848 1494.17 C 588.957 1495.99 584.844 1497.48 580.86 1499.09 C 565.825 1504.5 549.699 1508.53 533.879 1510.76 C 526.849 1499.24 512.251 1477.62 510.187 1464.96 z"/>
<path transform="translate(0,0)" fill="rgb(254,254,254)" d="M 579.209 1453.4 C 589.806 1452.57 608.417 1450.33 618.096 1454.47 C 619.964 1456.86 620.876 1458.31 620.492 1461.53 C 619.118 1473.06 610.353 1483.83 601.588 1490.76 C 597.776 1487.11 593.743 1484.03 589.475 1480.94 C 572.583 1470.71 553.895 1464.94 534.937 1459.96 C 549.585 1457.09 564.359 1454.9 579.209 1453.4 z"/>
<path transform="translate(0,0)" fill="rgb(254,254,254)" d="M 499.403 1469.49 C 507.345 1476.13 518.92 1502.39 524.233 1512.57 C 514.082 1514.05 503.974 1515.34 493.759 1516.28 C 485.796 1517.21 477.696 1517.06 469.688 1517.16 C 479.458 1501.35 488.459 1484.49 499.403 1469.49 z"/>
<path transform="translate(0,0)" fill="rgb(254,254,254)" d="M 571.34 1419.66 C 588.132 1423.03 606.625 1430.07 616.542 1444.77 C 607.987 1443.79 599.357 1443.07 590.753 1443.58 C 575.293 1444.09 560.056 1446.29 544.793 1448.66 C 555.169 1439.97 563.431 1430.59 571.34 1419.66 z"/>
<path transform="translate(0,0)" fill="rgb(1,1,1)" d="M 941.87 1389.42 C 945.19 1389.17 948.517 1389.02 951.845 1388.98 C 968.319 1388.8 1012.07 1390.4 1023.6 1402.66 C 1025.43 1404.61 1026.28 1406.79 1025.96 1409.47 C 1025.06 1416.81 1013.21 1423.24 1007.73 1427.48 C 1033.18 1423.69 1071.63 1424.69 1093.21 1439.78 C 1098.65 1443.58 1103.84 1448.93 1104.79 1455.79 C 1105.57 1461.43 1103.51 1466.76 1100.14 1471.2 C 1083.19 1493.52 1035.6 1499.47 1009.24 1502.79 C 994.687 1503.81 979.962 1505.04 965.37 1504.79 C 932.137 1504.21 870.713 1496.78 844.378 1474.74 C 837.095 1468.64 831.026 1459.31 830.191 1449.67 C 829.413 1440.6 832.349 1431.6 838.326 1424.73 C 859.362 1400.1 911.339 1391.73 941.87 1389.42 z"/>
<path transform="translate(0,0)" fill="rgb(254,254,254)" d="M 1011.36 1435.57 C 1030.71 1433.86 1053.2 1433.95 1071.94 1439.41 C 1080.72 1441.97 1090.04 1446.24 1094.39 1454.79 C 1095.64 1457.23 1096.2 1459.82 1095.29 1462.47 C 1092.25 1471.26 1079.06 1476.5 1071.19 1479.99 C 1064.12 1482.87 1057.24 1484.96 1049.84 1486.74 C 1048.5 1482.39 1046.94 1477.84 1044.81 1473.82 C 1033.67 1452.89 1011.6 1444.53 990.222 1438.05 C 997.175 1436.34 1004.25 1436.04 1011.36 1435.57 z"/>
<path transform="translate(0,0)" fill="rgb(254,254,254)" d="M 976.436 1444.15 C 987.89 1446.58 999.566 1449.54 1010.16 1454.62 C 1026.48 1462.44 1035.21 1472.22 1041.06 1489.17 L 1021.95 1492.29 C 1009.19 1494.05 996.329 1494.97 983.449 1495.05 C 975.036 1480.43 967.102 1465.49 958.95 1450.73 C 965.049 1449 970.66 1446.75 976.436 1444.15 z"/>
<path transform="translate(0,0)" fill="rgb(254,254,254)" d="M 944.474 1450.15 L 946.049 1450.52 C 946.651 1455.31 927.189 1485.44 923.648 1491.76 C 908.411 1490.25 893.398 1486.99 878.902 1482.06 C 874.276 1480.52 869.733 1478.49 865.202 1476.67 C 890.934 1464.14 916.738 1456.62 944.474 1450.15 z"/>
<path transform="translate(0,0)" fill="rgb(254,254,254)" d="M 942.038 1398.41 C 944.618 1398.04 946.291 1397.89 948.79 1398.7 C 952.864 1411.88 953.493 1428.8 955.12 1442.62 C 940.477 1439.87 929.961 1435.43 917.454 1427.54 C 907.558 1421.6 898.17 1414.33 889.206 1407.07 C 906.78 1402.97 924.06 1400.03 942.038 1398.41 z"/>
<path transform="translate(0,0)" fill="rgb(254,254,254)" d="M 865.093 1439.47 C 884.793 1438.4 906.964 1440.46 926.191 1444.87 C 912.854 1448.81 899.635 1452.06 886.754 1457.42 C 875.939 1461.76 865.918 1466.38 856.249 1472.95 C 854.775 1471.95 853.322 1470.93 851.891 1469.87 C 845.529 1465.11 838.7 1455.8 837.854 1447.72 C 837.647 1445.75 837.942 1443.78 839.352 1442.3 C 843.43 1438.03 859.174 1439.57 865.093 1439.47 z"/>
<path transform="translate(0,0)" fill="rgb(254,254,254)" d="M 957.53 1397.93 C 958.607 1397.93 959.683 1397.94 960.76 1397.97 C 971.534 1398.23 1009.25 1401.4 1016.38 1408.9 L 1016.15 1410.44 C 1011.43 1414.94 1005.69 1418.33 1000.25 1421.89 C 988.539 1428.66 976.945 1434.59 964.276 1439.37 C 962.421 1425.5 959.896 1411.72 957.53 1397.93 z"/>
<path transform="translate(0,0)" fill="rgb(254,254,254)" d="M 952.453 1459.51 C 958.411 1464.26 969.109 1488.13 972.491 1496.01 L 953.898 1495.84 C 947.059 1495.2 940.232 1494.43 933.421 1493.54 C 939.07 1481.79 945.815 1470.72 952.453 1459.51 z"/>
<path transform="translate(0,0)" fill="rgb(254,254,254)" d="M 880.163 1410.07 C 889.639 1419.08 899.182 1426.17 910.219 1433.19 C 898.78 1430.97 886.855 1430.89 875.249 1430.48 C 865.085 1429.96 854.677 1430.7 844.497 1431.02 C 855.078 1421.08 866.827 1415.31 880.163 1410.07 z"/>
<path transform="translate(0,0)" fill="rgb(1,1,1)" d="M 767.569 1556.45 C 807.093 1555.35 862.033 1559.69 897.179 1579.65 C 905.335 1584.29 916.255 1591.45 918.626 1601.21 C 919.855 1606.27 918.631 1611.15 915.914 1615.51 C 903.995 1634.6 869.172 1644.54 848.153 1649.09 C 843.156 1650.17 826.808 1654.14 822.598 1653.2 C 821.081 1652.86 815.148 1641.33 813.981 1639.33 C 804.091 1622.38 788.57 1610.2 772.275 1599.75 C 776.044 1604.26 779.723 1608.85 783.435 1613.41 C 789.441 1621.11 807.531 1643.48 807.515 1652.68 C 805.351 1655 803.201 1655.55 800.071 1655.81 C 792.144 1656.48 783.645 1655.49 775.701 1655.02 C 738.905 1652.87 673.392 1644.78 644.56 1620.13 C 639.39 1615.71 634.5 1609.62 634.207 1602.54 C 633.983 1597.13 636.728 1592.3 640.332 1588.47 C 665.361 1561.91 732.787 1557.55 767.569 1556.45 z"/>
<path transform="translate(0,0)" fill="rgb(254,254,254)" d="M 757.546 1565.45 C 763.583 1564.87 769.843 1565.26 775.91 1565.34 C 780.741 1579.54 786.616 1592.1 794.539 1604.82 C 785.676 1598.88 757.183 1581.75 748.141 1583.38 C 746.496 1583.68 746.472 1584.26 745.493 1585.5 C 745.679 1588.14 746.149 1588.93 747.931 1590.95 C 752.862 1596.56 759.156 1601.5 764.533 1606.75 C 776.107 1618.03 786.947 1632.01 794.339 1646.39 C 779.808 1646.29 765.517 1645.85 751.1 1643.93 C 722.926 1640.91 675.93 1632.22 652.828 1615.31 C 648.919 1612.45 644.505 1608.4 644.016 1603.3 C 643.694 1599.95 645.252 1596.91 647.412 1594.45 C 666.407 1572.84 730.222 1566.47 757.546 1565.45 z"/>
<path transform="translate(0,0)" fill="rgb(1,1,1)" d="M 726.323 1578.51 C 727.644 1578.84 728.979 1579.17 730.192 1579.81 C 738.683 1584.3 763.627 1624.23 765.788 1633.98 C 766.321 1636.38 766.216 1637.35 764.878 1639.37 C 762.516 1639.91 761.053 1639.62 758.796 1638.74 C 751.002 1635.69 743.357 1629.92 735.962 1625.84 C 725.794 1620.23 715.214 1615.57 704.558 1610.98 C 698.562 1608.76 691.058 1606.73 685.76 1603.19 C 683.376 1601.59 682.728 1600.81 682.055 1598.1 C 683.621 1595.83 683.905 1595.58 686.46 1594.56 C 707.527 1598.56 729.911 1611.63 748.534 1621.85 C 742.73 1608.58 729.837 1596.63 725.411 1585.82 C 724.252 1582.99 725.348 1581.15 726.323 1578.51 z"/>
<path transform="translate(0,0)" fill="rgb(254,254,254)" d="M 784.483 1565.44 C 801.554 1566.03 818.583 1567.51 835.5 1569.87 C 856.644 1572.95 894.375 1580.95 907.01 1599.15 C 908.864 1601.82 909.831 1605.01 909.026 1608.23 C 907.18 1615.63 898.349 1620.32 892.41 1624.04 C 875.165 1632.6 857.702 1638.17 838.944 1642.43 C 810.675 1618.98 796.558 1600.08 784.483 1565.44 z"/>
<path transform="translate(0,0)" fill="rgb(1,1,1)" d="M 811.201 1587.17 C 821.355 1587.89 865 1590.54 870.57 1596.36 C 870.841 1599.23 869.98 1600.87 868.747 1603.42 C 855.495 1601.9 822.683 1600.03 811.889 1596.49 C 809.635 1595.76 809.109 1595.02 808.005 1592.99 C 808.483 1590.15 809.42 1589.37 811.201 1587.17 z"/>
<path transform="translate(0,0)" fill="rgb(1,1,1)" d="M 60.8091 130.351 C 95.7454 127.251 124.119 138.226 147.952 164.713 C 153.985 171.417 158.748 179.968 164.579 187.096 C 205.787 166.558 250.168 161.725 282.221 199.898 C 321.707 181.326 351.015 186.764 376.011 224.193 C 399.396 214.596 424.725 210.686 449.915 212.785 C 484.916 216.007 509.948 227.831 532.758 255.289 C 584.089 241.979 645.63 237.499 687.848 276.229 C 703.667 277.31 777.658 280.359 779.56 299.308 C 773.635 309.26 727.386 310.657 715.218 311.549 C 671.467 314.775 627.637 316.825 583.776 317.696 C 527.263 319.082 467.702 318.18 411 318.117 L 134.801 318.063 C 121.381 318.058 4.01782 319.308 1.62744 318.066 C 1.08782 314.452 1.27445 314.173 2.16591 310.535 C 5.94975 307.866 58.8503 308.993 68.1747 308.938 L 447.495 308.844 C 489.076 308.869 531.792 309.597 573.265 308.869 C 609.379 308.126 645.472 306.572 681.517 304.21 C 702.24 303.005 743.58 301.277 761.99 296.115 C 732.178 289.961 712.62 287.879 682.485 286.002 C 667.579 268.834 645.467 261.337 623.691 257.487 C 591.187 251.741 558.801 258.3 527.528 267.202 C 495.341 211.165 422.867 215.991 370.882 237.2 C 361.386 218.544 349.244 204.236 327.676 199.435 C 309.25 195.334 295.429 203.785 280.518 213.342 C 276.758 208.378 272.96 203.055 268.448 198.78 C 236.937 168.921 194.407 181.891 161.371 200.36 C 154.832 193.742 146.603 177.509 138.42 168.274 C 122.993 150.912 101.191 140.539 77.9875 139.52 C 50.2317 138.077 21.6331 148.585 0.987413 167.154 L 0.67154 154.208 C 20.9188 141.069 36.404 133.815 60.8091 130.351 z"/>
<path transform="translate(0,0)" fill="rgb(1,1,1)" d="M 229.882 1343.42 C 310.52 1338.45 388.217 1363.73 468.899 1358.6 C 488.043 1357.22 507.098 1354.8 525.981 1351.36 C 537.074 1349.26 548.413 1345.96 559.594 1344.66 C 562.435 1344.32 563.514 1344.22 566.223 1345.45 C 567.386 1348.1 567.286 1348.32 566.728 1351 C 561.796 1356.36 510.042 1363.41 500.036 1364.72 C 457.774 1369.76 415.856 1369 373.666 1363.78 C 333.564 1358.82 294.137 1351.3 253.507 1351.53 C 235.086 1351.6 216.696 1353.06 198.495 1355.91 C 187.85 1357.54 177.094 1360.24 166.392 1361.28 C 164.04 1361.51 161.404 1361.7 159.164 1360.82 C 157.591 1360.21 157.751 1359.82 157.034 1358.43 C 157.267 1357.6 157.459 1356.85 157.972 1356.15 C 163.814 1348.11 218.942 1344.34 229.882 1343.42 z"/>
<path transform="translate(0,0)" fill="rgb(1,1,1)" d="M 908.416 1335.5 C 928.792 1333.78 950.601 1334.64 970.746 1338.31 C 984.172 1340.75 997.272 1344.96 1010.58 1347.98 C 1027.76 1351.73 1045.25 1353.86 1062.83 1354.33 C 1074.81 1354.76 1086.64 1354.13 1098.57 1352.94 C 1111.78 1351.62 1136.31 1344.62 1148.27 1348.36 C 1149.16 1350.28 1148.78 1350.46 1148.11 1352.51 C 1137.07 1362.5 1071.62 1363.55 1054.75 1362.93 C 1022.58 1360.88 996.556 1352.07 965.597 1346.82 C 936.204 1341.84 907.204 1344.3 877.813 1347.82 C 866.627 1349.15 822.778 1355.19 815.113 1350.33 C 814.052 1348.03 814.008 1347.95 814.562 1345.48 C 816.527 1343.72 818.035 1343.24 820.651 1342.9 C 826.81 1342.1 833.317 1343.07 839.602 1342.49 C 862.572 1340.37 885.402 1337.19 908.416 1335.5 z"/>
<path transform="translate(0,0)" fill="rgb(1,1,1)" d="M 42.7243 1152.38 C 65.5264 1149.36 88.4988 1156.12 111.182 1157.46 C 120.374 1158 128.361 1156.89 137.405 1155.9 C 141.324 1155.47 144.6 1155.05 147.863 1157.66 C 148.464 1159.85 148.434 1160.06 147.694 1162.22 C 143.618 1165.4 136.196 1165.42 131.185 1165.92 C 100.805 1169.72 71.1271 1158.83 40.8175 1162.07 C 35.8019 1162.6 29.6834 1163.98 24.6934 1163.18 C 22.3255 1162.8 21.6351 1161.7 20.2793 1159.87 L 20.663 1158.27 C 26.484 1153.46 35.484 1153.16 42.7243 1152.38 z"/>
<path transform="translate(0,0)" fill="rgb(1,1,1)" d="M 1317.68 1150.39 C 1339.23 1147.22 1362.91 1152.44 1384.61 1153.34 C 1392.58 1153.66 1403.63 1151.63 1411.07 1153.82 C 1412.71 1156.16 1412.68 1156.36 1412.65 1159.05 C 1407.94 1164.1 1398.76 1163.21 1392.18 1163.45 C 1372.45 1163.14 1352.83 1159.36 1333.05 1158.7 C 1323.89 1158.4 1314.79 1160.88 1305.63 1161.02 C 1302.17 1161.07 1300.13 1160.75 1297.69 1158.35 C 1297.83 1156.62 1297.57 1156.13 1298.76 1154.74 C 1302.2 1150.76 1312.6 1150.93 1317.68 1150.39 z"/>
</svg>