<?xml version="1.0" encoding="utf-8"?>
<!-- Generator: Adobe Illustrator 27.5.0, SVG Export Plug-In . SVG Version: 6.00 Build 0)  -->
<svg xmlns="http://www.w3.org/2000/svg" xmlns:xlink="http://www.w3.org/1999/xlink" viewBox="-1801 -1013.063 4626 2602.125" width="595" height="842" preserveAspectRatio="xMidYMid meet" data-scaled="true">
<g>
	<path style="fill:none;" d="M142.534,817.19c26.203,21.756,131.262,33.268,167.004,31.282
		c20.347-22.174,15.618-51.036,14.468-79.195c-0.429-10.491-3.126-22.511-11.523-29.645c-20.32-17.261-150.085-32.15-178.201-33.196
		c-15.556,18.042-15.707,42.19-13.989,65.005C121.626,789.12,128.707,805.713,142.534,817.19z"/>
	<path style="fill:none;" d="M139.899,1016.879c23.412,18.78,130.618,32.529,160.852,28.837c3.076-0.376,6.063-1.012,9.061-1.796
		c8.386-6.81,12.787-12.396,13.878-23.613c1.863-19.19,3.818-66.706-8.76-81.127c-9.674-11.097-146.866-31.83-168.992-32.638
		c-2.419-0.071-4.837-0.048-7.254,0.067c-17.963,21.143-15.525,50.501-13.11,76.88
		C126.665,995.425,130.118,1009.037,139.899,1016.879z"/>
	<path style="fill:none;" d="M45.176,165.939c11.119,57.743,24.393,116.468,46.395,171.096
		c50.77,126.05,133.153,227.72,260.291,281.243c67.144,28.265,147.251,37.719,219.264,27.211
		c124.458-22.735,222.525-83.476,294.839-188.264c36.255-52.537,59.319-110.974,78.339-171.569
		c72.258-230.253,70.836-489.035,27.135-724.781c-11.044-59.671-79.176-335.056-115.542-368.742
		c-62.917-23.725-331.783-30.248-406.265-26.388c-95.267,4.931-194.179,9.115-287.652,29.255
		C35.529-506.621-16.453-154.13,45.176,165.939z M461.229,623.061c-6.802,5.165-8.188,5.884-16.647,6.816
		c-20.621-4.07-40.939-9.312-60.956-15.727c-116.535-37.608-200.328-123.855-254.791-231.206
		c-6.791-13.386-16.66-31.827-11.716-47.048c4.713-6.481,9.124-7.809,16.401-10.025c43.258-2.128,106.516-3.983,149.471-1.197
		c9.582,0.622,21.666,2.61,27.684,10.899c2.3,3.168,3.759,6.732,4.515,10.567c2.538,12.876,2.209,26.898,3.687,40.015
		c2.794,24.792,9.245,50.048,17.438,73.589c15.328,44.022,42.232,92.38,81.24,119.671c14.323,10.024,32.69,17.732,44.346,30.829
		C463.934,616.605,463.73,616.825,461.229,623.061z M521.066,599.122c-1.934,0.156-3.869,0.271-5.806,0.343
		c-1.937,0.073-3.876,0.105-5.814,0.097c-1.94-0.009-3.878-0.058-5.815-0.148c-1.937-0.091-3.872-0.222-5.803-0.393
		c-1.93-0.173-3.856-0.385-5.779-0.638c-1.925-0.253-3.841-0.547-5.751-0.881c-1.909-0.333-3.811-0.707-5.706-1.121
		c-1.894-0.415-3.78-0.868-5.655-1.361c-1.876-0.494-3.74-1.026-5.592-1.598c-1.853-0.573-3.693-1.184-5.519-1.835
		c-1.827-0.649-3.64-1.337-5.438-2.064c-1.798-0.725-3.58-1.489-5.346-2.289c-1.766-0.801-3.515-1.64-5.246-2.516
		c-1.731-0.875-3.442-1.787-5.134-2.733c-1.692-0.948-3.363-1.931-5.014-2.947c-1.863-1.184-3.695-2.414-5.497-3.687
		c-1.804-1.275-3.574-2.594-5.31-3.954c-1.737-1.363-3.439-2.767-5.107-4.214c-1.666-1.446-3.296-2.934-4.891-4.46
		c-1.593-1.526-3.147-3.092-4.663-4.696c-1.517-1.603-2.993-3.243-4.429-4.922c-1.436-1.677-2.828-3.388-4.177-5.135
		c-1.352-1.745-2.659-3.524-3.922-5.334c-1.262-1.81-2.479-3.649-3.651-5.522c-1.17-1.87-2.296-3.769-3.374-5.695
		c-1.077-1.926-2.106-3.878-3.087-5.856c-0.98-1.978-1.911-3.979-2.795-6.002c-0.881-2.023-1.712-4.067-2.493-6.133
		c-0.781-2.064-1.511-4.146-2.189-6.247c-0.677-2.101-1.302-4.217-1.877-6.35c-0.573-2.133-1.092-4.278-1.559-6.434
		c-0.473-2.27-0.89-4.549-1.252-6.838c-0.361-2.29-0.665-4.589-0.912-6.893c-0.249-2.304-0.441-4.613-0.574-6.928
		c-0.134-2.315-0.211-4.631-0.231-6.95c-0.021-2.319,0.016-4.636,0.108-6.953s0.243-4.629,0.449-6.938
		c0.208-2.31,0.472-4.612,0.792-6.908c0.32-2.296,0.696-4.583,1.129-6.861c0.431-2.278,0.919-4.543,1.464-6.797
		c0.545-2.254,1.143-4.492,1.796-6.715c0.655-2.224,1.363-4.43,2.126-6.621c0.763-2.188,1.578-4.356,2.449-6.506
		c0.868-2.149,1.789-4.276,2.763-6.381c0.974-2.103,2-4.181,3.076-6.236c1.074-2.053,2.2-4.079,3.377-6.077
		c1.175-1.999,2.398-3.967,3.67-5.904c23.089-35.134,56.323-51.789,96.319-60.075c30.382-1.551,57.208,1.467,83.866,17.684
		c30.312,18.442,53.746,49.917,61.586,84.614c8.071,35.722,3.809,75.377-16.05,106.581c-23.351,36.691-56.58,53.055-97.724,61.843
		C524.928,598.772,523,598.967,521.066,599.122z M876.73,412.236c-1.656,3.105-3.347,6.189-5.077,9.253
		c-1.729,3.062-3.495,6.103-5.298,9.123c-1.804,3.019-3.654,6.015-5.55,8.988c-1.879,2.973-3.794,5.923-5.745,8.849
		c-1.952,2.924-3.942,5.825-5.969,8.701c-2.026,2.877-4.09,5.727-6.191,8.551c-2.101,2.824-4.229,5.622-6.386,8.394
		c-2.175,2.77-4.378,5.514-6.609,8.23c-2.232,2.716-4.5,5.405-6.805,8.065c-2.306,2.661-4.64,5.292-7.001,7.895
		c-2.36,2.601-4.759,5.173-7.195,7.714c-2.435,2.544-4.899,5.055-7.39,7.536c-2.492,2.482-5.02,4.931-7.586,7.349
		c-2.547,2.418-5.132,4.805-7.753,7.159c-2.604,2.352-5.244,4.672-7.92,6.961c-2.677,2.289-5.384,4.543-8.116,6.763
		c-2.715,2.22-5.466,4.407-8.255,6.559c-2.785,2.152-5.596,4.268-8.431,6.351c-2.835,2.083-5.696,4.128-8.581,6.138
		c-2.888,2.012-5.799,3.987-8.735,5.923c-2.935,1.939-5.894,3.842-8.876,5.706c-2.982,1.865-5.988,3.692-9.016,5.481
		c-3.029,1.79-6.079,3.542-9.15,5.257c-3.073,1.714-6.167,3.389-9.279,5.025c-3.114,1.638-6.248,3.236-9.401,4.794
		c-3.153,1.558-6.326,3.077-9.518,4.557c-3.191,1.48-6.4,2.92-9.627,4.32c-3.226,1.399-6.469,2.76-9.73,4.08
		c-3.262,1.318-6.538,2.596-9.831,3.835c-3.292,1.236-6.6,2.432-9.923,3.59c-3.323,1.154-6.659,2.268-10.009,3.341
		c-3.35,1.071-6.714,2.101-10.09,3.09c-13.387,3.823-39.909,14.635-53.186,9.992c-6.125-2.142-6.811-5.179-8.955-10.676
		c3.863-18.548,44.714-40.371,58.998-55.67c16.677-17.862,31.533-38.659,43.829-59.751c18.468-31.675,32.663-70.862,38.305-107.064
		c2.928-18.805,3.745-38.14,8.065-56.694c0.901-3.869,2.184-6.389,4.563-9.566c22.52-12.221,86.284-6.52,114.284-6.757
		c19.299-0.444,53.685-5.062,71.31,3.982c4.324,2.222,6.889,4.936,8.116,9.613C910.809,351.938,884.12,398.453,876.73,412.236z
		 M298.912-628.463c2.733-14.624,9.84-22.452,21.756-30.691c80.243-4.203,162.048-1.063,242.448-1.161
		c35.128-0.044,103.754-4.832,134.338,1.833c8.445,1.841,15.481,8.328,19.918,15.559c6.074,9.901,7.979,20.909,4.758,32.228
		c-3.6,12.65-12.765,18.223-23.293,24.554c-23.822,4.37-50.24,2.043-74.509,2.017l-130.437-0.235
		c-47.636-0.034-120.154,4.945-165.384-0.68c-9.716-1.21-18.696-7.098-24.413-14.982
		C298.238-608.093,297.125-618.886,298.912-628.463z M109.232-458.387c4.646-14.361,15.673-20.613,28.393-26.994
		c52.695-2.153,105.923-0.657,158.671-0.635l287.705,0.114l191.939,0.056c30.844,0.01,63.474-2.259,94.123,0.404
		c11.435,0.994,24.18,3.958,33.327,11.264c5.884,4.697,10.904,11.908,11.797,19.427c1.311,3.12,2.537,6.401,2.733,9.803
		c1.896,30.994-0.196,63.217-0.28,94.369l-0.529,196.184c0.612,94.881,0.65,189.764,0.111,284.646
		c0.084,40.728,1.812,81.649,0.809,122.344c-0.167,7.415-0.502,14.106-3.458,21.036c-4.936,11.579-13.553,18.71-24.988,23.357
		c-3.403,2.295-7.669,2.898-11.741,3.045c-44.621,1.632-89.968-0.226-134.662-0.231l-287.435-0.115
		c-105.187-0.1-212.942,6.247-317.821-0.064c-14.622-9.064-22.872-19.43-31.824-34.04c4.367-184.691,1.21-370.391,1.528-555.186
		C107.693-326.506,100.029-429.945,109.232-458.387z"/>
	<path style="fill:none;" d="M608.24,497.518c0.557-1.638,1.075-3.288,1.553-4.95c0.476-1.664,0.911-3.338,1.308-5.023
		c0.396-1.685,0.75-3.377,1.062-5.079c0.313-1.702,0.583-3.411,0.812-5.125c0.229-1.716,0.414-3.436,0.558-5.16
		c0.144-1.725,0.247-3.452,0.306-5.181c0.062-1.729,0.079-3.459,0.053-5.187c-0.024-1.731-0.091-3.461-0.201-5.187
		c-0.108-1.727-0.259-3.45-0.455-5.168c-0.193-1.72-0.429-3.434-0.706-5.142c-0.272-1.696-0.585-3.384-0.94-5.065
		c-0.353-1.681-0.749-3.351-1.188-5.012c-0.439-1.66-0.918-3.309-1.439-4.947c-0.523-1.637-1.085-3.259-1.687-4.867
		c-0.603-1.608-1.244-3.201-1.925-4.777c-0.683-1.577-1.404-3.136-2.164-4.677c-0.758-1.54-1.556-3.059-2.393-4.56
		c-0.834-1.501-1.708-2.98-2.618-4.437c-0.909-1.456-1.854-2.888-2.836-4.297c-0.982-1.41-1.998-2.794-3.049-4.153
		c-1.05-1.359-2.134-2.69-3.251-3.993c-1.117-1.305-2.267-2.581-3.447-3.826c-1.18-1.248-2.392-2.464-3.634-3.651
		c-1.242-1.186-2.513-2.341-3.812-3.464c-1.299-1.123-2.627-2.212-3.983-3.268c-1.353-1.057-2.733-2.078-4.138-3.065
		c-18.763-13.018-44.016-19.804-66.768-17.986c-29.835,3.637-55.222,15.077-73.898,39.404c-1.073,1.42-2.111,2.867-3.113,4.339
		c-1.002,1.471-1.968,2.966-2.898,4.485c-0.928,1.518-1.819,3.06-2.674,4.623c-0.853,1.563-1.668,3.145-2.443,4.747
		c-0.777,1.603-1.515,3.223-2.211,4.861c-0.696,1.64-1.352,3.294-1.969,4.964c-0.615,1.672-1.19,3.357-1.724,5.056
		c-0.533,1.697-1.025,3.408-1.476,5.131c-0.449,1.724-0.858,3.457-1.224,5.199c-0.364,1.742-0.686,3.493-0.965,5.251
		c-0.281,1.759-0.517,3.524-0.709,5.293c-0.193,1.771-0.344,3.544-0.452,5.322c-0.105,1.778-0.168,3.557-0.186,5.337
		c-0.021,1.782,0.004,3.562,0.073,5.341c0.067,1.779,0.177,3.556,0.332,5.33s0.352,3.542,0.594,5.307
		c0.237,1.64,0.516,3.273,0.834,4.9c0.318,1.627,0.675,3.244,1.074,4.853c0.399,1.609,0.838,3.206,1.313,4.794
		c0.478,1.586,0.995,3.16,1.551,4.721c0.556,1.562,1.15,3.108,1.782,4.641c0.631,1.532,1.3,3.047,2.008,4.546
		c0.707,1.498,1.45,2.978,2.231,4.439c0.78,1.463,1.595,2.905,2.449,4.326c0.852,1.422,1.738,2.823,2.658,4.2
		c0.92,1.378,1.875,2.731,2.864,4.06c0.988,1.331,2.007,2.637,3.059,3.915c1.054,1.279,2.138,2.532,3.252,3.76
		c1.116,1.226,2.26,2.423,3.433,3.593c1.175,1.169,2.378,2.308,3.609,3.418c1.229,1.111,2.486,2.188,3.771,3.235
		c1.283,1.048,2.592,2.064,3.927,3.045c22.135,16.175,46.277,20.361,73.151,19.625c29.743-4.688,54.709-16.231,72.763-41.224
		c1.008-1.406,1.981-2.835,2.92-4.289c0.938-1.454,1.839-2.93,2.705-4.429s1.695-3.016,2.487-4.554
		c0.79-1.54,1.543-3.097,2.259-4.672c0.715-1.574,1.393-3.167,2.03-4.777C607.084,500.779,607.682,499.156,608.24,497.518z"/>
	<path style="fill:none;" d="M733.635,384.442c-10.528,76.872-39.518,131.731-85.317,193.356
		c13.857-6.289,27.419-13.164,40.684-20.621c13.264-7.459,26.184-15.473,38.759-24.042c44.164-33.296,82.121-72.218,110.538-119.979
		c3.961-6.626,11.044-16.466,11.769-24.101c0.252-2.616,0.196-2.401,0.028-4.66L733.635,384.442z"/>
	<path style="fill:none;" d="M690.037-618.425c-4.175-5.55-4.292-6.306-11.158-7.24c-41.422-5.645-97.596-1.334-140.547-1.373
		c-65.786-0.062-142.222-4.312-206.681,1.179l3.226,6.636C348.635-614.937,671.614-613.782,690.037-618.425z"/>
	<path style="fill:none;" d="M-1244.154,1134.59c-17.659-9.007-145.178-37.867-163.65-37.75
		c-7.083,21.935-7.594,55.746,2.926,76.634c12.017,23.861,36.76,36.913,61.241,44.602c25.258,7.934,85.659,27.038,109.236,19.881
		c10.263-19.371,9.943-63.482,3.659-84.49C-1233.026,1145.838-1236.747,1138.369-1244.154,1134.59z"/>
	<path style="fill:none;" d="M601.996,958.007c-27.437-11.485-131.193-6.869-166.5-5.12c-8.311,1.202-15.721,1.64-21.028,9.027
		c-11.426,15.899-9.691,54.335-5.985,72.518c1.436,7.047,4.253,16.284,10.447,20.528c22.366,15.322,141.146,7.873,172.021,5.594
		c8.107-2.362,15.007-3.965,19.123-12.162c9.044-18.021,8.805-60.323,1.707-78.665C610.041,965.232,606.564,959.92,601.996,958.007z
		"/>
	<path style="fill:none;" d="M-935.97,518.17c-0.223-1.781-0.492-3.556-0.806-5.323c-0.281-1.733-0.605-3.458-0.973-5.173
		c-0.368-1.718-0.78-3.424-1.233-5.12s-0.95-3.38-1.486-5.051c-0.539-1.672-1.12-3.327-1.743-4.969
		c-0.621-1.642-1.284-3.266-1.988-4.875c-0.705-1.608-1.45-3.197-2.234-4.766c-0.784-1.571-1.607-3.121-2.468-4.649
		c-0.862-1.53-1.764-3.037-2.702-4.521c-0.939-1.484-1.914-2.943-2.925-4.378c-1.012-1.434-2.06-2.841-3.143-4.223
		c-1.082-1.382-2.198-2.735-3.349-4.06c-1.153-1.325-2.337-2.622-3.553-3.888c-1.216-1.264-2.464-2.498-3.743-3.7
		c-1.279-1.203-2.588-2.372-3.924-3.509c-1.339-1.138-2.704-2.241-4.097-3.308c-1.394-1.067-2.814-2.099-4.258-3.096
		c-19.845-13.556-44.153-19.826-68.095-18.819c-32.057,4.635-59.254,17.332-78.902,43.977
		c-16.208,21.976-23.008,48.679-18.724,75.687c0.289,1.811,0.62,3.613,0.996,5.407c0.376,1.795,0.796,3.579,1.261,5.353
		c0.463,1.773,0.97,3.534,1.523,5.282c0.55,1.75,1.143,3.483,1.779,5.201c0.636,1.719,1.313,3.422,2.033,5.109
		c0.72,1.687,1.481,3.354,2.284,5.004c0.801,1.647,1.643,3.275,2.524,4.883c0.884,1.606,1.805,3.191,2.764,4.752
		c0.959,1.561,1.957,3.099,2.993,4.613c1.035,1.512,2.108,2.997,3.218,4.456c1.108,1.46,2.251,2.891,3.43,4.295
		c1.179,1.404,2.392,2.778,3.64,4.122c1.248,1.344,2.527,2.656,3.837,3.935c1.311,1.281,2.653,2.53,4.027,3.746
		c1.373,1.214,2.773,2.394,4.203,3.539c1.431,1.146,2.89,2.255,4.376,3.33c20.28,14.388,43.079,19.329,67.641,18.504
		c31.385-4.431,58.646-15.138,78.118-41.397c1.058-1.45,2.078-2.926,3.062-4.428c0.983-1.502,1.929-3.028,2.836-4.577
		c0.905-1.551,1.772-3.122,2.599-4.713c0.829-1.593,1.617-3.207,2.363-4.841c0.746-1.632,1.45-3.282,2.113-4.95
		c0.664-1.67,1.285-3.354,1.863-5.054c0.579-1.699,1.114-3.412,1.606-5.137c0.493-1.727,0.941-3.465,1.345-5.215
		c0.405-1.75,0.766-3.507,1.082-5.273c0.316-1.768,0.587-3.543,0.815-5.324c0.226-1.781,0.408-3.567,0.543-5.358
		c0.137-1.788,0.23-3.581,0.276-5.377c0.047-1.794,0.047-3.589,0.002-5.385c-0.042-1.794-0.131-3.587-0.264-5.377
		C-935.565,521.737-935.745,519.951-935.97,518.17z"/>
	<path style="fill:none;" d="M878.961,1109.683c-7.781-5.594-18.183-3.723-27.108-2.853
		c-24.681,4.554-132.021,15.083-143.332,30.193c-12.614,16.853-13.317,56.639-9.78,76.774c1.551,8.821,5.101,19.982,12.683,25.339
		c7.089,5.009,17.606,4.931,25.97,5.21c46.022-3.746,104.085-6.691,136.185-44.783c13.331-15.805,18.406-36.286,16.455-56.667
		C889.112,1133.272,887.439,1115.774,878.961,1109.683z"/>
	<path style="fill:none;" d="M297.292,1128.224c-29.06-8.166-62.158-10.126-92.116-14.46c-18.891-2.73-38.776-7.493-57.701-8.598
		c-11.657,10.196-14.675,17.034-15.642,32.371c-1.483,23.448-1.495,45.399,15.094,64.059
		c28.945,32.554,90.718,40.867,132.202,42.661c10.528,0.454,21.46,0.705,31.843-1.199c9.136-7.836,14.05-13.732,15.207-26.327
		c1.537-16.761,3.698-63.566-6.604-76.999C314.979,1133.737,304.321,1130.198,297.292,1128.224z"/>
	<path style="fill:none;" d="M597.051,1152.001c-32.641-10.832-128.892-5.031-167.54-3.402c-8.015,2.946-14.619,4.937-18.273,13.426
		c-7.727,17.949-7.686,57.648,0.617,74.892c3.419,7.103,7.672,11.693,15.274,14.27c34.81,11.8,129.754,5.865,165.398-0.17
		c8.207-2.653,13.709-5.043,17.656-13.364c8.16-17.21,9.343-56.452,1.905-73.578
		C609.118,1157.239,603.864,1154.263,597.051,1152.001z"/>
	<path style="fill:none;" d="M419.243,853.403c20.333,17.921,79.066,10.508,105.036,10.539c22.026-0.49,64.874,4.476,81.186-11.468
		c13.453-13.147,12.182-41.916,11.529-59.527c-0.464-12.427-2.432-25.858-11.652-35.073c-20.231-20.213-84.94-10.065-112.394-10.388
		c-18.111-0.148-60.64-5.72-74.866,7.351c-13.473,12.377-11.708,40.455-11.49,57.515
		C406.774,826.588,407.728,843.248,419.243,853.403z"/>
	<path style="fill:none;" d="M-668.893,689.452c-3.777-0.24-6.992-0.655-10.707,0.24c-41.197,10.06-144.61,18.786-165.939,54.037
		c-11.111,18.359-14.538,57.23-9.616,78.216c1.632,6.961,6.593,12.722,12.798,16.164c2.636,1.465,5.416,2.65,8.196,3.804
		c31.046-7.43,62.008-15.458,93.139-22.478c15.002-3.383,36.177-4.658,49.69-11.276c7.599-3.723,14.253-10.801,18.626-17.949
		c11.831-19.338,17.196-67.178,11.538-89.463C-662.7,694.715-664.359,693.173-668.893,689.452z"/>
	<path style="fill:none;" d="M-957.224,1153.63c-19.817-6.568-134.054-1.986-161.047-2.072c-7.451,1.217-13.108,2.131-17.943,8.621
		c-11.286,15.143-11.239,43.037-7.965,60.788c1.896,10.285,6.444,22.537,15.893,28.178c22.244,13.28,129.826,6.248,161.556,4.931
		c10.499-4.975,18.227-9.711,22.461-21.323c5.492-15.06,7.792-52.146,1.065-66.579
		C-946.066,1160.028-950.812,1155.755-957.224,1153.63z"/>
	<path style="fill:none;" d="M-1436.177,405.029c40.787,96.463,111.325,176.824,209.66,216.863
		c10.419,4.244,21.747,9.683,32.903,11.451c-49.115-59.996-80.143-120.545-98.148-196.533
		C-1339.781,426.119-1387.852,414.168-1436.177,405.029z"/>
	<path style="fill:none;" d="M-966.366,952.395c-49.273-5.12-110.226-0.438-160.674-0.145
		c-10.846,9.371-15.715,16.745-16.549,31.344c-0.7,12.229-3.695,55.866,4.401,64.612c11.328,12.244,33.447,12.879,48.922,13.15
		c45.347,0.784,90.974-0.842,136.335-1.453c9.136-7.075,14.633-12.505,16.145-24.642c2.086-16.755,4.136-60.027-5.785-73.417
		C-949.192,954.256-957.57,953.308-966.366,952.395z"/>
	<path style="fill:none;" d="M-1238.855,933.286c-29.715-16.432-131.079-30.507-170.576-39.247
		c-11.664,14.159-10.818,57.749-8.958,76.197c1.21,12.017,6.259,24.492,15.952,32.116c21.483,16.898,134.807,40.028,163.348,36.364
		c1.277-0.165,1.557-0.26,2.934-0.553c11.077-18.035,13.76-68.505,8.729-88.883
		C-1229.217,942.023-1232.184,936.973-1238.855,933.286z"/>
	<path style="fill:none;" d="M-1107.11,745.274c-6.777,0.081-13.443,0.081-20.171,1.02c-11.716,10.807-15.253,19.731-15.924,35.596
		c-0.669,15.747-5.04,56.979,6.866,68.645c15.696,15.375,144.579,11.49,172.181,9.198c2.63-0.228,5.255-0.521,7.873-0.878
		c8.991-6.099,15.938-10.952,18.37-22.333c4.242-19.843,4.119-63.775-5.778-81.181
		C-960.872,738.578-1077.891,744.928-1107.11,745.274z"/>
	<path style="fill:none;" d="M-1240.682,839.394c16.83-18.758,14.279-58.535,13.163-82.776c-0.326-7.042-1.695-13.038-6.01-18.794
		c-16.742-10.768-152.097-43.417-179.063-48.724c-8.751,7.965-13.071,14.993-13.565,27.149
		c-0.861,21.075,3.503,60.537,18.892,76.336C-1379.669,820.921-1280.28,838.853-1240.682,839.394z"/>
	<path style="fill:none;" d="M166.085,384.579c46.571,83.096,106.001,143.441,192.118,184.939l2.828-1.821
		c-45.877-55.367-59.877-114.809-75.201-183.188C246.033,385.513,205.857,386.768,166.085,384.579z"/>
	<path style="fill:none;" d="M-789.491,437.813c-15.244,45.118-32.39,95.005-56.098,136.405
		c-7.271,12.697-35.644,45.954-37.108,57.726c100.786-41.833,181.874-101.718,225.55-205.632c2-4.763,5.263-11.298,4.454-16.546
		C-698.043,420.502-743.747,428.974-789.491,437.813z"/>
	<path style="fill:none;" d="M-649.841-712.73c-145.335-40.047-299.58-49.176-449.692-44.635
		c-117.438,4.28-223.512,19.541-338.242,44.95c-26.123,111.81-35.438,227.91-43.762,342.172
		c-12.442,176.839-19.047,353.895-19.815,531.168c-4.165,276.826,1.575,553.446,17.221,829.86
		c5.154,80.96,8.358,162.249,17.971,242.864c22.986,16.061,45.372,31.126,71.105,42.437
		c118.759,52.21,281.631,58.758,410.794,54.313c121.312-5.938,255.977-18.616,356.266-94.057
		c35.407-308.421,40.789-619.366,42.744-929.529c1.297-205.733-0.092-410.747-13.601-616.137
		C-607.707-443.913-620.593-580.882-649.841-712.73z M-1198.28-577.142c5.245-15.546,14.945-23.187,29.319-29.646
		c42.918-2.038,86.122-0.326,129.071-0.39c37.945-0.059,87.665-6.591,124.048,3.413c11.584,3.185,25.284,9.59,30.939,20.863
		c4.275,8.52,2.424,17.552-0.569,26.073c-6.018,17.126-13.038,23.474-29.349,31.207c-34.439,2.197-232.473,4.844-256.752-2.231
		c-9.728-2.834-17.031-9.756-22.009-18.39C-1198.662-555.043-1201.619-567.248-1198.28-577.142z M-1431.726-362.345
		c4.373-17.018,15.738-25.426,30.22-33.924c1.79-0.152,3.583-0.259,5.379-0.321c48.621-2.096,97.721-0.298,146.406-0.265
		l270.828-0.165c66.51-0.258,133.02-0.111,199.531,0.441c26.742,0.092,54.505-2.872,81.066-0.381
		c14.91,1.399,25.721,5.153,36.777,15.294c5.196,14.002,7.153,30.808,7.878,45.708c4.54,93.323,0.447,188.593,0.675,282.131
		l0.053,237.481c-0.131,31.12,4.641,73.863-3.207,103.67c-4.041,15.339-15.838,24.302-28.892,31.871
		c-45.974,3.57-94.676,0.496-140.962,0.51l-293.972-0.186l-178.31,0.541c-30.663,0.122-64.873,3.4-95.054-1.902
		c-12.121-2.128-25.518-10.5-32.125-21.003c-6.314-10.035-7.212-26.139-7.753-37.677c-2.055-43.95-0.073-88.752-0.047-132.808
		l0.069-265.252C-1433.187-174.916-1438.291-336.803-1431.726-362.345z M-933.747,617.032
		c-25.423,33.056-56.728,44.674-96.594,49.571c-33.188,1.102-66.115-5.575-93.022-25.911c-1.798-1.378-3.562-2.797-5.291-4.259
		c-1.731-1.463-3.424-2.967-5.081-4.512c-1.656-1.546-3.274-3.13-4.853-4.752c-1.58-1.623-3.119-3.284-4.618-4.981
		c-1.501-1.698-2.958-3.432-4.373-5.201c-1.415-1.768-2.786-3.57-4.113-5.405c-1.328-1.835-2.611-3.701-3.849-5.597
		c-1.236-1.899-2.427-3.824-3.572-5.779c-1.144-1.956-2.239-3.938-3.288-5.946c-1.047-2.008-2.045-4.04-2.995-6.096
		s-1.849-4.135-2.697-6.236c-0.85-2.099-1.647-4.218-2.393-6.358c-0.746-2.138-1.439-4.293-2.081-6.467
		c-0.642-2.172-1.23-4.358-1.765-6.559c-0.536-2.201-1.018-4.413-1.448-6.637c-0.427-2.225-0.801-4.459-1.121-6.702
		c-0.301-2.262-0.547-4.532-0.736-6.807c-0.188-2.276-0.32-4.555-0.396-6.838c-0.078-2.282-0.1-4.564-0.064-6.847
		c0.037-2.283,0.129-4.564,0.276-6.844c0.149-2.277,0.353-4.551,0.614-6.821c0.26-2.268,0.577-4.529,0.948-6.783
		c0.372-2.251,0.798-4.493,1.279-6.726c0.482-2.231,1.019-4.45,1.612-6.657c0.591-2.205,1.236-4.395,1.936-6.568
		c0.699-2.173,1.451-4.328,2.256-6.464c0.807-2.136,1.665-4.252,2.574-6.348c0.911-2.093,1.872-4.164,2.884-6.211
		c1.011-2.047,2.073-4.068,3.185-6.063c1.112-1.995,2.272-3.961,3.481-5.898c1.209-1.937,2.464-3.843,3.765-5.717
		c1.303-1.876,2.651-3.718,4.044-5.527c25.185-32.289,62.561-48.571,102.311-53.406c32.219,1.062,60.568,7.089,86.995,26.753
		c1.869,1.393,3.702,2.831,5.5,4.314c1.799,1.484,3.56,3.012,5.282,4.583c1.722,1.571,3.404,3.182,5.048,4.836
		c1.641,1.655,3.242,3.348,4.799,5.081c1.558,1.735,3.072,3.507,4.543,5.315c1.471,1.807,2.896,3.651,4.275,5.53
		c1.38,1.88,2.712,3.792,3.997,5.737c1.284,1.945,2.52,3.921,3.706,5.929c1.186,2.006,2.322,4.04,3.407,6.102
		c1.086,2.064,2.121,4.152,3.105,6.266c0.981,2.113,1.911,4.251,2.789,6.412c0.875,2.161,1.697,4.341,2.464,6.542
		c0.769,2.202,1.482,4.419,2.142,6.654c0.658,2.236,1.26,4.488,1.807,6.755c0.547,2.266,1.036,4.544,1.469,6.835
		c0.435,2.29,0.812,4.59,1.132,6.899C-899.626,549.795-911.394,587.963-933.747,617.032z M-1197.659,1232.292
		c-3.495,17.017-12.739,26.514-26.831,35.781c-18.847,5.424-34.925,4.457-53.909-0.011
		c-50.129-11.803-120.665-21.483-149.496-69.537c-16.139-26.904-20.244-74.186-12.271-104.69
		c3.573-13.668,11.479-20.39,23.326-27.174c7.804-0.809,15.559-1.255,23.348-0.079c41.047,6.198,164.678,27.047,186.981,58.99
		C-1190.828,1148.038-1192.161,1205.525-1197.659,1232.292z M-1199.967,1038.085c-5.879,16.719-18.588,24.745-33.748,32.3
		c-28.868,7.19-136.559-18.203-166.352-29.302c-20.096-7.488-34.604-19.865-43.511-39.633c-12.38-27.473-12.912-80.218-1.93-108.377
		c6.535-16.752,16.354-23.22,32.317-30.256c33.932,1.272,134.525,22.536,167.891,33.117c15.746,4.994,35.856,15.146,43.397,30.794
		C-1190.954,949.448-1191.573,1014.221-1199.967,1038.085z M-1452.859,691.569c6.166-16.765,16.345-24.562,32.038-32.014
		c22.06-2.298,141.344,29.277,171.02,37.044c15.543,4.066,38.021,11.928,46.315,26.661c14.399,25.591,10.651,85.408,2.153,113.311
		c-5.313,17.439-17.617,25.914-33.121,33.965c-30.858,7.539-117.51-16.044-149.677-26.884c-25.376-8.551-47.482-21.053-59.45-45.955
		C-1456.725,770.348-1463.449,720.355-1452.859,691.569z M-1228.734,656.24c-99.284-40.85-190.308-125.643-231.293-225.938
		c-4.908-12.015-9.337-28.19-3.338-40.614c4.816-9.973,13.216-13.76,22.84-17.62c17.882,1.975,145.173,29.542,157.979,35.304
		c6.512,2.929,10.999,7.237,14.823,13.228c13.732,21.505,29.531,85.773,46.646,118.899c10.737,20.78,22.78,39.359,37.554,57.5
		c13.771,16.906,47.714,45.327,54.642,64.402c-0.388,5.625-0.05,9.184-4.764,13.139c-5.251,4.409-11.356,4.738-17.848,4.295
		c-13.236-2.395-26.309-5.481-39.217-9.257C-1203.619,665.803-1216.294,661.356-1228.734,656.24z M-922.734,1260.551
		c-11.351,16.284-27.936,22.269-46.665,25.655c-37.633,2.912-155.389,7.73-184.005-14.987
		c-14.226-11.295-20.484-28.795-22.529-46.309c-3.271-28.028-2.167-63.337,16.245-86.036c11.727-14.454,24.787-17.927,42.686-19.69
		c40.129-0.298,152.073-9.013,182.781,10.991c13.994,9.117,22.38,22.894,25.37,39.206
		C-904.386,1193.736-908.389,1239.958-922.734,1260.551z M-913.422,1064.729c-8.456,15.791-23.053,21.882-39.407,26.703
		c-30.872,1.311-61.982-0.259-92.891-0.137c-24.6,0.095-50.121,2.795-74.549-0.053c-9.033-1.054-17.957-3.25-25.827-7.94
		c-15.046-8.969-24.364-23.747-28.282-40.639c-6.495-28.014-5.302-72.836,10.564-97.214c10.238-15.728,23.089-21.223,40.882-25.01
		c39.827,0.374,156.08-6.453,186.353,7.962c13.227,6.3,22.319,17.096,26.965,30.942
		C-901.216,984.381-900.786,1041.136-913.422,1064.729z M-913.567,861.68c-9.058,16.574-24.146,23.378-41.531,28.17
		c-36.25,2.906-154.909,7.354-183.665-4.948c-14.909-6.378-25.95-18.917-31.781-33.92c-9.968-25.636-8.548-77.89,2.839-103.129
		c8.863-19.642,20.255-26.009,39.811-33.416c35.964-2.572,162.832-5.089,189.742,7.965c14.318,6.947,24.539,18.722,29.424,33.859
		C-900.78,780.89-901.064,838.805-913.567,861.68z M-675.044,1215.751c-34.537,41.091-117.396,49.334-168.468,53.847
		c-8.433-2.203-16.881-4.381-24.458-8.816c-11.036-6.456-18.593-16.019-21.722-28.443c-7.056-28.023-2.479-82.288,12.941-106.86
		c0.991-1.558,2.035-3.08,3.131-4.565c1.097-1.486,2.244-2.932,3.442-4.337c1.198-1.404,2.443-2.765,3.737-4.083
		c1.292-1.318,2.629-2.59,4.01-3.815c1.384-1.224,2.806-2.397,4.269-3.522c1.463-1.125,2.965-2.198,4.504-3.219
		c1.54-1.019,3.113-1.983,4.719-2.894c1.606-0.909,3.242-1.762,4.908-2.558c34.152-16.671,111.595-27.852,152.187-37.415
		c8.417-0.711,20.833,3.352,27.551,8.601c10.09,7.89,13.705,19.962,14.998,32.222
		C-645.54,1135.492-651.369,1187.59-675.044,1215.751z M-654.896,1013.518c-5.974,9.022-13.824,17.321-23.466,22.422
		c-30.424,16.106-112.943,27.791-150.573,35.558c-11.256-0.646-21.033-2.931-30.939-8.534
		c-13.499-7.635-22.428-20.671-26.171-35.569c-7.081-28.171-3.453-76.412,11.867-101.099c0.914-1.475,1.876-2.917,2.884-4.325
		c1.01-1.411,2.064-2.787,3.162-4.128c1.101-1.341,2.244-2.644,3.427-3.91c1.186-1.265,2.412-2.49,3.679-3.676
		c1.266-1.184,2.57-2.325,3.91-3.424c1.341-1.099,2.717-2.153,4.128-3.163c1.411-1.008,2.853-1.968,4.326-2.881
		c1.474-0.915,2.976-1.779,4.506-2.594c31.578-16.791,113.536-28.345,153.055-37.526c11.414-1.551,21.639-0.087,31.508,5.982
		c12.374,7.608,19.081,20.743,22.012,34.609C-631.032,932.249-637.424,987.125-654.896,1013.518z M-647.476,809.347
		c-6.52,9.789-15.006,18.764-25.389,24.458c-31.62,17.35-115.57,29.11-155.093,36.875c-11.814-0.24-22.601-1.612-33.182-7.237
		c-12.257-6.512-20.362-17.667-24.088-30.901c-7.574-26.907-3.307-81.116,10.751-105.446
		c29.191-50.514,136.868-55.578,191.044-69.74c11.81-1.02,22.096-1.637,32.56,5.064c11.532,7.388,18.08,19.838,20.827,32.956
		C-623.33,727.447-629.216,781.922-647.476,809.347z M-643.481,469.931c-60.864,108.798-155.638,173.374-273.951,207.007
		c-2.889,0.744-5.882,1.52-8.863,1.81c-7.733,0.75-13.119-1.623-18.716-6.506c-4.267-20.769,20.406-43.317,32.549-58.337
		c33.53-41.462,55.038-84.934,74.069-134.414c7.31-19.003,13.071-40.43,22.802-58.311c2.657-4.887,5.848-8.197,10.966-10.567
		c22.316-10.347,52.486-12.475,76.696-17.034c26.82-4.811,53.285-11.109,79.396-18.891c6.604-0.818,11.373,0.627,17.277,3.338
		c5.823,2.674,10.957,6.263,12.954,12.653C-611.485,412.504-632.801,450.839-643.481,469.931z"/>
	<path style="fill:none;" d="M-587.376-776.206c-153.411-59.115-385.002-66.91-548.526-58.05
		c-105.708,5.131-266.892,21.078-362.784,61.455c-82.14,320.51-78.584,713.829-78.679,1045.311
		c-0.097,337.893,3.929,678.363,42.131,1014.354c30.73,21.748,62.378,42.427,96.804,57.891
		c140.636,63.17,329.917,72.37,482.679,63.755c140.976-7.031,282.138-36.523,398.623-120.149
		c32.883-226.37,37.378-472.709,42.638-701.818c3.231-164.182,4.299-328.38,3.202-492.593
		c-1.539-199.586-6.406-402.329-30.468-600.583C-553.437-597.088-568.644-686.945-587.376-776.206z M-555.781,534.161
		c-5.868,239.774-13.119,479.885-40.739,718.317c-88.164,88.401-283.458,108.98-404.081,111.353
		c-131.973,2.513-281.012-3.745-403.665-56.282c-32.839-14.067-63.026-33.073-92.799-52.648
		c-8.852-52.031-10.051-106.782-13.341-159.527c-5.753-79.486-10.248-159.043-13.484-238.672
		c-10.104-236.757-13.405-473.611-9.906-710.558c0.584-131.551,4.088-263.026,10.511-394.426
		c7.943-164.465,20.512-330.57,56.485-491.586c123.509-34.833,254.978-47.014,382.727-52.235
		c105.019-3.721,373.869,10.148,461.883,55.715c17.413,47.564,29.21,157.867,35.608,212.794
		C-545.819-173.613-547.17,182.321-555.781,534.161z"/>
	<path style="fill:none;" d="M-1400.393,272.64c1.322,5.516,3.787,9.343,7.747,13.325c62.188,4.027,125.529,1.796,187.867,1.791
		l299.767,0.295c35.831-0.042,189.845,4.241,215.965-2.519c8.166-28.242,2.429-89.106,2.582-120.87
		c0.885-109.009,1.013-218.019,0.382-327.03c-0.083-61.299,5.079-142.912-0.58-201.355c-141.191-3.171-282.798-0.405-424.041-0.675
		l-188.816-0.355c-32.373-0.05-65.544-1.506-97.849,0.205c-3.729,6.506-4.337,12.106-4.515,19.511
		c-1.166,48.397,0.289,97.101,0.354,145.527l0.14,297.658C-1401.372,129.45-1405.301,252.145-1400.393,272.64z"/>
	<path style="fill:none;" d="M-675.085,894.706c-5.28-1.972-8.043-2.611-13.613-1.509c-33.308,5.963-140.229,21.31-157.57,46.926
		c-12.285,18.15-13.899,61.794-8.762,82.407c1.447,5.813,4.593,10.372,9.719,13.568c3.556,2.214,7.837,2.853,11.906,3.475
		c33.684-7.182,102.811-16.56,130.858-28.605c8.562-3.676,15.88-9.231,21.023-17.065c10.059-15.328,16.596-71.827,12.753-89.759
		C-669.669,899.948-672.324,897.863-675.085,894.706z"/>
	<path style="fill:none;" d="M-688.042,1091.849c-1.371-0.722-1.923-0.656-3.29-0.761c-36.063,9.839-104.267,18.292-133.572,31.907
		c-10.497,4.877-19.541,12.132-25.432,22.23c-10.065,17.254-12.931,59.357-7.635,78.734c1.919,7.014,6.448,11.147,12.505,14.709
		c34.454-6.06,124.21-14.758,143.985-43.076c14.818-21.22,25.236-67.069,20.482-93.17
		C-681.87,1097.647-683.454,1094.264-688.042,1091.849z"/>
	<path style="fill:none;" d="M138.995,116.775c-0.398,44.119-2.73,89.75,0.475,133.73c0.366,4.998,1.508,8.272,4.381,12.357
		c8.026,6.018,31.051,4.284,41.607,4.519c152.948,3.413,306.689,0.2,459.718,0.139l151.152-0.019
		c23.065,0,49.112,2.389,71.813-0.502c0.753-0.094,1.478-0.274,2.204-0.41c3.737-1.463,9.231-2.501,10.848-6.191
		c4.517-10.363,3.179-698.265-0.195-705.85c-0.865-1.95-1.785-3.565-3.041-5.277c-159.929-2.178-320.064-0.625-480.023-0.458
		c-81.719,0.087-171.762-5.048-252.437,0.188c-4.069,4.772-5.173,8.925-5.558,15.024c-2.579,40.881-0.307,83.342-0.307,124.352
		l-0.264,238.094L138.995,116.775z"/>
	<path style="fill:none;" d="M2443.752,1071.019c-3.347,0.22-6.665,0.703-9.984,1.202c-39.49,14.727-129.82,31.879-157.792,47.248
		c-11.713,6.44-21.224,15.866-26.718,28.154c-9.426,21.062-9.342,66.969-0.529,88.077c4.601,10.991,11.935,15.241,22.337,19.338
		c1.199,0.474,2.427,0.895,3.654,1.313c54.577,0.165,121.287-14.505,161.445-53.967c24.263-23.828,35.585-59.743,35.474-93.387
		c-0.028-10.478-2.398-23.628-10.151-31.286C2456.693,1072.979,2450.474,1070.578,2443.752,1071.019z"/>
	<path style="fill:none;" d="M1877.506,537.287c-7.669-5.218-16.9-8.445-25.741-11.057c-20.665-6.108-42.335-8.465-63.194-13.758
		c-27.191-6.897-53.993-16.716-81.379-22.57c-4.713-1.007-8.924-0.996-13.694-0.243c-13.581,10.391-24.43,20.738-26.633,38.592
		c-3.347,27.529,0.056,61.157,17.933,83.384c34.692,43.124,122.68,54.326,174.442,59.285c3.848,0.368,7.614,0.736,11.49,0.599
		c8.618-1.074,15.172-1.726,20.805-9.153c14.641-19.221,12.829-59.792,8.702-82.784
		C1897.447,564.113,1891.06,546.496,1877.506,537.287z"/>
	<path style="fill:none;" d="M2175.578,1146.864c-27.638-21.05-130.769-14.109-166.718-12.667
		c-17.569,2.222-36.087,4.997-47.828,19.755c-12.969,16.29-12.605,47.48-10.124,67.393c1.98,15.796,8.255,30.507,21.085,40.435
		c24.931,19.288,123.601,22.668,153.274,16.371c1.758-0.373,1.813-0.463,3.235-1.054c21.921-2.167,39.88-6.788,54.215-24.631
		c14.083-17.542,16.761-44.508,13.861-66.107C2194.486,1170.77,2188.351,1156.594,2175.578,1146.864z"/>
	<path style="fill:none;" d="M2175.438,952.08c-27.609-22.467-120.784-15.534-157.848-13.724
		c-19.076,1.26-39.88,2.382-53.797,17.578c-14.252,15.537-14.167,44.697-12.466,64.634c1.506,17.581,7.195,34.016,21.223,45.433
		c26.605,21.672,110.801,25.211,144.295,19.053c2.175-0.399,2.455-0.577,4.239-1.247c22.423-1.528,43.032-5.586,58.623-23.03
		c15.003-16.78,18.21-41.883,16.453-63.516C2194.792,980.211,2189.075,963.193,2175.438,952.08z"/>
	<path style="fill:none;" d="M1969.259,872.637c31.625,26.36,99.616,20.347,138.243,19.441c26.605-1.313,55.638-1.377,74.963-22.88
		c15.088-16.772,15.841-41.358,14.419-62.682c-1.339-19.845-6.219-40.097-21.753-53.769
		c-25.294-22.274-110.634-13.252-145.187-12.706c-22.729,0.881-51.259-0.022-67.825,18.524
		c-15.282,17.129-14.669,48.277-13.19,70.025C1950.044,845.393,1956.04,861.635,1969.259,872.637z"/>
	<path style="fill:none;" d="M2462.66,690.802c-7.92-7.148-17.736-8.302-27.916-7.778c-37.008,9.747-125.748,24.631-154.809,38.846
		c-11.713,5.717-21.725,14.546-28.167,25.903c-12.103,21.24-12.941,60.245-6.499,83.571c2.483,8.983,6.666,18.76,15.116,23.66
		c4.519,2.622,10.569,3.221,15.646,3.977c48.776-1.18,136.04-2.404,172.1-40.734c23.537-25.012,26.661-67.816,24.82-100.735
		C2472.394,707.451,2470.469,697.861,2462.66,690.802z"/>
	<path style="fill:none;" d="M884.064,910.102c-5.969-4.702-19.94-2.225-27.024-1.587c-33.075,5.422-107.398,13.024-134.762,23.619
		c-5.642,2.184-10.269,6.035-13.729,10.982c-12.336,17.625-12.865,50.81-8.768,71.255c1.857,9.279,5.011,19.988,13.749,25.044
		c5.522,3.196,14.719,2.959,20.972,2.711c33.937-1.665,132.271-8.241,153.495-33.795c12.912-15.57,9.342-54.318,7.111-73.76
		C894.02,925.375,891.622,916.063,884.064,910.102z"/>
	<path style="fill:none;" d="M2463.497,495.416c-6.581-5.873-13.692-7.834-22.394-7.352c-3.347,0.184-6.72,0.929-10.011,1.598
		c-0.502,0.248-1.005,0.505-1.533,0.744c-48.777,22.506-160.191,16.038-181.414,69.319c-8.366,20.97-9.79,69.004-0.224,89.486
		c3.096,6.632,7.921,12.229,14.865,14.876c5.02,1.908,10.429,2.231,15.729,2.518c48.944-1.988,137.518-8.319,172.713-46.487
		c23.147-25.102,25.797-64.377,24.039-96.987C2474.681,512.607,2471.529,502.614,2463.497,495.416z"/>
	<path style="fill:none;" d="M2511.159-662.294c-3.514-21.276-9.928-80.096-23.538-93.929
		c-21.586-12.687-54.048-16.742-78.477-21.519c-130.741-25.56-268.706-39.046-401.929-31.575
		c-123.071,5.851-240.231,26.249-359.733,55.451c4.853,19.706-14.167,92.321-18.211,115.782
		c-14.111,82.034-21.53,165.673-27.666,248.641c-16.008,233.705-23.352,467.682-22.031,701.932
		c-2.324,246.848,4.416,493.448,20.219,739.801c3.012,42.441,5.717,149.031,17.486,184.976c7.92,24.249,32.211,41.98,53.211,54.645
		c107.231,64.598,262.263,82.558,386.84,84.111c24.235,0.301,51.175,2.098,74.965-2.173
		c111.302-2.729,301.892-27.896,382.042-111.81c10.543-11.04,15.394-19.959,18.936-34.804c6.638-27.877,6.415-59.703,8.451-88.44
		c4.425-59.293,8.125-118.63,11.1-178.011c8.514-168.657,13.786-337.414,15.812-506.273c2.008-168.859,0.763-337.694-3.737-506.507
		C2558.542-256.526,2544.681-460.239,2511.159-662.294z M2547.581,449.464c-1.283,87.742-16.259,723.671-35,751.615
		c2.872,11.345,2.482,20.529-2.789,31.177c-21.586,43.681-94.487,69.846-137.714,83.857
		c-185.458,60.117-502.02,57.681-678.078-32.937c-21.641-11.144-46.323-26.229-56.781-49.201
		c-10.346-22.673-9.761-73.709-11.88-99.757c-15.822-202.163-24.011-404.636-24.569-607.418
		c-0.251-29.355,3.764-154.321-3.152-174.517c-0.167-0.491-0.362-0.97-0.529-1.456c0.447-0.006,0.892,0.002,1.339-0.017
		c9.648-0.462,17.178,5.235,25.434,9.671c43.729,23.533,87.431,43.434,134.395,59.637c107.537,37.1,226.147,51.151,339.681,47.832
		c134.339-3.927,260.395-31.734,383.494-85.927c18.825-8.278,49.474-19.089,63.641-34.116c1.479,2.541,2.566,5.041,3.319,7.909
		C2553.103,374.087,2547.888,428.084,2547.581,449.464z M2546.967,323.077c-0.167,0.284-0.306,0.588-0.502,0.85
		c-9.788,12.879-39.712,25.301-54.494,32.368c-109.21,52.12-223.944,80.948-344.506,89.536
		c-142.147,15.123-306.745-9.694-437.959-65.14c-39.435-16.66-75.132-38.748-113.032-58.198
		c6.359-13.414,5.884-296.95,6.694-341.826c4.21-231.158,13.553-476.375,60.769-702.568c1.198-5.725,1.868-9.66,0.557-15.452
		c110.244-27.668,216.248-46.358,329.921-52.135c130.49-7.669,262.04,3.375,390.633,25.566c25.211,4.35,65.399,8.734,86.929,23.002
		c1.589,1.489,2.844,2.975,3.82,4.956c12.856,25.998,16.9,78.998,21.363,108.615c41.191,271.705,51.202,549.327,52.346,823.883
		C2549.645,226.46,2554.805,297.268,2546.967,323.077z"/>
	<path style="fill:none;" d="M2473.37-620.336c-4.044-27.271-6.527-74.54-18.072-97.961c-0.81-1.636-1.758-2.83-2.928-4.22
		c-66.542-30.493-308.809-47.363-386.618-44.655c-130.881,4.12-253.421,18.307-380.9,48.781
		c3.179,22.955-13.414,95.958-17.43,123.774c-7.057,49.047-13.136,98.784-17.43,148.143
		c-13.702,170.59-22.023,341.442-24.96,512.556c-0.502,28.917,1.506,231.864-5.802,243.672
		c28.446,13.741,55.248,30.639,84.251,43.384c116.463,51.2,242.881,71.165,369.327,71.681
		c135.817-1.462,267.004-23.814,390.829-81.523c15.143-7.056,43.171-17.637,54.438-30.1c0.39-0.432,0.697-0.937,1.031-1.406
		c8.73-24.073,3.403-95.833,3.347-123.844C2521.812-81.686,2512.832-353.305,2473.37-620.336z M1999.351-658.518
		c13.414-25.671,33.856-36.196,60.266-44.203c0.809-0.083,1.618-0.179,2.427-0.252c22.199-1.974,43.394,3.911,60.63,18.281
		c1.041,0.881,2.064,1.788,3.067,2.72c1.005,0.93,1.989,1.883,2.956,2.864c0.949,0.978,1.877,1.98,2.789,3.007
		c0.912,1.024,1.795,2.07,2.65,3.137c0.856,1.069,1.683,2.157,2.483,3.266c0.799,1.108,1.57,2.236,2.314,3.382
		c0.762,1.148,1.488,2.312,2.175,3.492c0.688,1.183,1.348,2.381,1.98,3.595c0.632,1.214,1.237,2.443,1.813,3.687
		c0.576,1.243,1.115,2.5,1.617,3.771c0.501,1.27,0.976,2.552,1.422,3.846c0.465,1.294,0.882,2.599,1.255,3.913
		c0.39,1.315,0.743,2.636,1.059,3.968s0.604,2.669,0.865,4.014c0.241,1.346,0.455,2.697,0.64,4.051
		c0.205,1.357,0.363,2.717,0.475,4.08c1.952,21.661-4.406,43.852-18.602,60.484c-15.339,18.018-36.506,26.115-59.597,28.209
		c-15.06,0.16-28.363-2.438-41.944-9.214c-18.491-9.224-31.598-26.774-37.789-46.234
		C1987.554-615.824,1989.032-638.757,1999.351-658.518z M2465.366,261.282c-0.25,8.721-0.781,16.967-4.713,24.937
		c-0.223,0.483-0.473,0.96-0.725,1.439c-2.008,4.08-4.1,7.923-7,11.476c-9.092,11.178-19.326,15.313-33.27,17.007
		c-32.825,3.001-66.821,1.428-99.842,1.405l-189.473-0.851c-129.653-0.289-260.59,4.953-390.104,0.338
		c-11.713-0.418-29.924-0.605-40.047-6.523c-6.415-3.74-13.916-14.555-16.147-21.532c-6.024-18.911-2.008-230.311-2.036-263.389
		l-0.168-240.858c-0.056-44.895-1.784-90.428,0.642-135.226c0.669-12.058,1.841-22.382,7.753-33.105
		c7.838-14.229,19.216-21.979,34.471-26.601l383.047,0.008c71.971-0.632,143.951-0.83,215.94-0.594
		c32.434,0.1,77.641-5.187,108.681,4.031c1.896,0.875,3.458,1.664,5.187,2.849c9.817,6.696,20.944,17.866,23.343,29.813
		c0.836,1.2,1.478,2.421,1.98,3.804C2467.569-357.251,2466.872,209.152,2465.366,261.282z"/>
	<path style="fill:none;" d="M2422.194-373.501c-11.797-4.335-653.342-7.663-701.589-1.997c-4.964,7.315-6.303,12.99-6.666,21.739
		c-1.923,47.443-0.25,95.599-0.195,143.109l-0.167,266.411l-0.224,156.208c-0.027,19.745-2.9,44.719,0.893,63.87
		c0.409,2.009,0.92,3.991,1.534,5.943c10.041,3.91,21.307,4.309,32.016,4.646c146.72,4.629,298.35,0.41,445.49-0.633
		c72.482-0.516,148.367,6.401,220.319-1.118c7.111-2.415,10.877-4.097,15.784-10.082c4.574-12.689,5.83-626.861,0.53-640.296
		C2428.469-369.341,2425.876-372.146,2422.194-373.501z"/>
	<path style="fill:none;" d="M2052.952-557.849c7.948,2.27,20.553,4.303,28.473,1.076c17.738-3.41,32.742-11.468,43.144-26.725
		c10.096-14.761,13.163-33.859,9.455-51.234c-0.223-1.045-0.474-2.083-0.753-3.114c-0.278-1.034-0.576-2.06-0.893-3.077
		c-0.334-1.017-0.688-2.025-1.059-3.026c-0.372-0.997-0.771-1.988-1.199-2.967c-0.427-0.979-0.882-1.948-1.367-2.904
		c-0.483-0.955-0.985-1.898-1.506-2.83c-0.521-0.932-1.069-1.85-1.645-2.753c-0.558-0.903-1.144-1.793-1.758-2.667
		c-0.613-0.873-1.254-1.731-1.925-2.571c-0.65-0.842-1.329-1.667-2.035-2.474c-0.707-0.806-1.422-1.595-2.149-2.368
		c-0.743-0.77-1.506-1.52-2.286-2.253c-0.781-0.735-1.58-1.448-2.398-2.14c-0.799-0.691-1.627-1.363-2.483-2.013
		c-0.854-0.651-1.72-1.279-2.594-1.885c-0.873-0.609-1.765-1.193-2.676-1.755c-17.124-10.653-33.69-10.403-52.96-7.362
		c-19.802,10.728-34.888,21.887-41.638,44.457c-5.075,16.947-2.622,35.128,5.969,50.514
		C2024.562-573.729,2037.167-562.359,2052.952-557.849z"/>
	<path style="fill:none;" d="M2264.848,1051.985c6.387,2.669,14.754,1.64,21.558,1.185c48.749-4.013,125.75-10.238,159.661-50.355
		c20.219-23.922,26.662-68.195,24.068-98.78c-0.697-8.286-3.849-15.554-10.236-21.073c-7.25-6.266-15.311-6.844-24.375-5.874
		c-4.443,0.497-8.877,1.088-13.303,1.774l-1.979,0.794c-29.757,11.632-64.004,17.818-95.436,24.007
		c-14.083,2.776-29.365,3.542-42.501,9.65c-14.307,6.643-25.826,16.964-32.323,31.503c-9.65,21.605-11.322,63.976-2.622,86.381
		C2250.653,1039.664,2256.119,1048.345,2264.848,1051.985z"/>
	<path style="fill:none;" d="M-918.969-557.626c0.831-6.827,2.047-8.611-1.738-14.566c-15.458-8.098-207.044-2.688-240.9-2.661
		c-1.88,6.219-2.705,7.84-1.085,14.012C-1150.323-552.662-949.268-557.665-918.969-557.626z"/>
	<path style="fill:none;" d="M1971.183,677.232c26.049,19.644,121.928,21.434,154.669,15.929c1.589-0.27,3.18-0.694,4.741-1.14
		c19.132-1.358,35.419-3.344,48.805-18.429c16.9-19.07,17.011-48.79,15.031-72.867c-1.421-16.797-6.748-33.801-20.301-44.747
		c-27.554-22.25-134.088-13.231-171.402-11.775c-16.538,1.91-31.598,5.363-42.502,19.059c-14.001,17.6-13.08,52.698-10.068,74.189
		C1952.33,653.033,1958.354,667.543,1971.183,677.232z"/>
	<path style="fill:none;" d="M1693.079,1005.411c31.291,31.445,126.112,53.619,168.669,53.183c3.013-0.031,5.913-0.237,8.869-0.68
		c10.18-2.315,17.319-5.318,23.036-14.792c10.458-17.291,9.315-70.561,3.542-89.595c-4.714-15.558-13.247-22.935-27.386-30.164
		c-21.92-11.203-137.63-41.331-166.187-45.943c-4.965-0.806-9.677,0.036-14.419,1.439c-17.96,17.615-24.905,27.721-24.988,54.16
		C1664.104,960.04,1673.948,986.165,1693.079,1005.411z"/>
	<path style="fill:none;" d="M917.057-797.215c-3.096-3.443-7.14-3.306-11.491-3.203c-2.483,0.059-5.02,0.511-7.474,0.904
		c19.355,26.866,37.566,91.377,48.275,124.358c82.326,253.667,112.781,539.088,70.056,803.183
		C987.419,307.28,926.455,490.63,772.79,601.029c-99.445,71.456-223.766,93.956-343.583,73.743
		c-123.007-20.755-227.034-93.334-298.42-194.221C-30.796,252.184-33.554-147.844,12.671-415.64
		c6.599-38.054,14.346-75.871,23.243-113.454c8.896-37.58,18.925-74.857,30.085-111.83c6.925-22.478,55.208-149.331,53.097-157.429
		c-3.495-0.829-4.088-1.777-7.449,0.088c-28.699,15.935-84.825,256.618-94.109,301.179C-3.88-394.269-19.886-286.966-21.47-181.791
		c-4.576,142.596,7.494,279.986,34.395,419.969c9.443,49.133,32.484,99.077,35.639,148.62c4.295,67.451,3.17,135.931,4.356,203.552
		l7.081,391.587c1.316,63.388-2.527,146.986,5.658,207.741c6.328,46.975,26.216,92.414,58.675,127.118
		c82.714,88.428,226.066,91.974,339.781,95.415c90.342,2.735,241.399-1.289,325.129-28.379
		c35.558-11.509,70.001-30.078,97.359-55.727c48.916-45.851,69.469-106.311,71.366-172.203l11.379-486.201
		c1.979-97.582,2.035-196.348,7.836-293.744c2.509-42.028,16.984-82.776,27.275-123.378c9.835-40.021,18.054-80.373,24.653-121.055
		c38.598-242.269,13.889-549.29-62.916-782.471C957.578-677.106,929.969-782.866,917.057-797.215z M93.115,708.433
		c7.483-19.438,16.939-25.794,35.483-34.174c35.605-2.379,149.233,15.567,182.527,28.061c17.935,6.729,32.379,15.924,40.142,34.01
		c9.117,21.231,9.853,90.375,1.029,111.732c-6.749,16.335-20.08,23.412-35.597,29.924c-35.304,8.738-135.931-8.542-170.722-20.813
		c-22.073-7.786-38.29-21.137-48.193-42.535C84.556,786.055,81.639,738.254,93.115,708.433z M97.536,912.825
		c7.295-20.191,18.074-30.82,37.315-39.683c31.815,0.173,64.06,9.984,95.485,14.641c20.899,3.096,42.145,3.317,62.95,7.184
		c9.161,1.704,18.295,4.134,26.778,8.049c15.341,7.078,26.58,18.87,32.029,34.975c7.656,22.64,8.311,90.147-2.423,111.749
		c-8.264,16.636-22.654,22.443-39.345,28.201c-43.06,2.733-125.077-7.076-165.646-20.484c-19.768-6.532-33.924-17.815-43.155-36.71
		C87.443,991.924,86.598,943.1,97.536,912.825z M349.455,1247.946c-7.7,15.163-17.935,21.075-33.726,26.064
		c-42.624,8.189-101.089-3.266-141.38-18.295c-28.34-10.573-55.526-27.49-68.204-56.136c-12.065-27.25-11.164-67.761,0.203-95.44
		c6.992-17.028,18.312-23.565,34.612-30.551c18.334-1.3,170.036,22.516,186.205,30.128c13.749,6.47,22.319,15.59,27.325,30.005
		C364.551,1162.683,363.393,1220.487,349.455,1247.946z M390.579,733.527c20.3-20.311,51.831-18.052,78.197-18.364
		c39.382-0.541,132.258-9.775,160.735,17.269c13.905,13.202,18.593,32.412,19.254,50.977c1.01,28.413,4.091,70.591-17.062,92.595
		c-19.355,20.13-50.715,18.685-76.397,19.486c-3.918,0.263-7.839,0.472-11.764,0.631c-38.885,1.584-124.41,7.019-152.301-19.5
		c-14.025-13.333-17.988-32.693-18.373-51.317C372.293,797.593,369.565,754.552,390.579,733.527z M638.833,1259.062
		c-10.84,16.485-28.6,21.03-46.886,24.477c-44.158,4.789-158.063,14.175-192.363-10.785c-14.519-10.563-21.617-27.773-24.204-45.042
		c-4.217-28.14-4.499-68.115,13.191-91.667c9.912-13.199,22.724-17.193,38.436-19.619c41.959-1.832,161.457-10.594,195.319,9.864
		c13.679,8.263,21.083,21.259,24.456,36.576C652.189,1187.431,653.143,1237.301,638.833,1259.062z M639.285,1065.251
		c-7.753,14.988-18.187,19.954-33.634,24.983c-42.561,6.872-160.621,12.859-198.507-3.703c-12.72-5.561-22.026-14.862-27.027-27.872
		c-8.897-23.144-9.775-87.087,0.56-110.042c7.522-16.705,21.865-22.492,38.118-28.474c41.451-2.187,167.679-7.337,200.2,8.545
		c13.217,6.456,21.564,17.843,26.051,31.661C654.127,988.324,652.811,1039.109,639.285,1065.251z M923.972,1150.571
		c-0.036,1.892-0.12,3.783-0.251,5.673c-0.149,1.889-0.334,3.773-0.558,5.653c-0.241,1.88-0.521,3.753-0.836,5.62
		c-0.334,1.864-0.707,3.721-1.116,5.569c-0.427,1.846-0.892,3.681-1.394,5.505c-0.521,1.823-1.078,3.634-1.673,5.43
		c-0.614,1.795-1.264,3.574-1.952,5.337c-0.688,1.764-1.422,3.51-2.203,5.235c-0.781,1.727-1.599,3.433-2.454,5.118
		c-0.874,1.686-1.785,3.349-2.733,4.989c-0.949,1.64-1.934,3.254-2.957,4.844c-1.023,1.589-2.092,3.153-3.206,4.69
		c-1.097,1.536-2.24,3.044-3.43,4.523c-1.172,1.479-2.389,2.927-3.653,4.345c-37.232,41.986-98.781,49.669-151.44,53.172
		c-18.566-0.703-38.91-1.138-55.195-11.166c-1.411-0.889-2.774-1.846-4.088-2.87c-1.317-1.024-2.578-2.111-3.785-3.26
		c-1.207-1.151-2.354-2.359-3.441-3.622c-1.086-1.266-2.106-2.583-3.062-3.95c-0.955-1.367-1.84-2.777-2.654-4.23
		c-0.815-1.455-1.554-2.947-2.22-4.476c-0.666-1.528-1.253-3.087-1.762-4.674c-0.512-1.587-0.942-3.197-1.292-4.827
		c-5.584-26.17-3.645-87.154,10.659-108.888c26.259-39.897,120.754-40.321,167.021-49.806c22.032-1.891,37.816-2.77,55.554,12.165
		c15.394,12.985,22.311,32.948,23.817,52.547c0.149,1.889,0.251,3.78,0.306,5.672
		C924.029,1146.782,924.029,1148.676,923.972,1150.571z M910.586,1032.508c-28,33.67-134.087,38.801-177.348,42.535
		c-13.607,0.502-27.32-0.649-39.297-7.736c-14.081-8.333-22.904-22.235-26.751-37.908c-7.031-28.667-4.37-77.39,11.571-102.242
		c7.968-12.419,19.572-21.535,33.21-27.049c25.459-10.288,108.62-16.259,143.452-23.903c18.127-2.162,33.131-2.947,48.135,9.142
		c16.008,12.918,22.172,32.066,24.347,51.914C931.308,968.052,931.308,1007.609,910.586,1032.508z M906.208,834.048
		c-30.761,35.716-133.391,42.579-180.299,46.119c-13.593-1.752-27.358-4.1-39.185-11.468c-10.95-6.822-16.705-16.231-19.341-28.767
		c-5.731-27.258-6.682-86.384,9.024-109.933c7.569-11.351,20.013-19.823,32.484-24.922c37.862-15.48,116.161-23.156,159.806-32.024
		c15.757-1.684,29.535-1.701,42.418,8.907c13.331,10.988,19.159,27.27,20.665,44.073
		C934.905,761.572,930.164,806.28,906.208,834.048z"/>
	<path style="fill:none;" d="M1726.601,837.807c30.818,13.133,103.383,29.654,136.263,30.228c4.35,0.112,8.617-0.409,12.8-1.562
		c8.535-2.348,12.996-4.885,17.682-12.561c13.163-21.611,10.931-70.925,4.323-95.002c-3.43-12.422-8.561-20.673-19.941-27.11
		c-23.789-13.501-165.712-51.783-188.72-46.3c-15.144,14.427-22.227,27.936-22.813,49.19c-0.836,28.896,4.1,57.325,24.653,79.041
		C1700.778,824.217,1713.383,832.171,1726.601,837.807z"/>
	<path style="fill:none;" d="M892.125,708.553c-5.438-4.496-11.016-4.245-17.738-3.257c-30.566,6.381-154.047,20.093-168.635,42.218
		c-12.319,18.685-11.518,59.759-6.213,80.84c1.319,5.24,3.603,11.442,8.369,14.454c3.913,2.474,9.119,3.583,13.637,4.387
		c40.117-1.871,133.543-6.816,160.512-36.808c18.35-20.436,18.853-56.806,17.319-82.706
		C898.985,721.011,897.506,713.007,892.125,708.553z"/>
	<path style="fill:none;" d="M1868.581,1119.584c-35-19.107-79.035-25.468-117.159-36.49c-15.98-4.624-33.633-12.742-49.892-14.828
		c-4.128-0.528-8.367,0.479-12.327,1.473c-16.091,16.694-22.785,26.778-22.533,51.088c0.306,32.184,15.283,61.35,38.151,83.453
		c37.287,36.069,107.426,54.483,159.02,53.409c3.98-0.073,7.921-0.521,11.825-1.344c8.813-2.331,14.279-4.914,19.243-13.158
		c11.573-19.218,9.175-65.928,3.18-86.799C1892.956,1138.584,1884.756,1128.404,1868.581,1119.584z"/>
	<path style="fill:#262425;" d="M-561.886-801.68c-147.349-59.115-323.051-68.626-480.328-67.105
		c-144.702,0.404-352.696,14.479-486.092,70.078c-59.988,236.051-71.936,483.137-78.322,725.766
		c-4.87,219.342-4.943,438.686-0.223,658.032c2.162,152.364,7.499,304.617,16.01,456.759c5.48,86.34,11.183,173.594,25.074,259.056
		c134.875,123.13,342.576,138.658,516.778,143.087c157.304-2.453,324.228-13.662,462.22-97.291
		c20.448-12.391,42.848-26.597,60.401-42.926c40.904-335.694,45.974-674.019,47.159-1011.764
		c1.037-295.531,1.288-593.443-42.929-886.338C-532.6-663.649-543.098-734.054-561.886-801.68z M-514.49,586.544
		c-5.26,229.109-9.755,475.448-42.638,701.818c-116.485,83.626-257.647,113.118-398.623,120.149
		c-152.762,8.615-342.043-0.586-482.679-63.755c-34.426-15.464-66.074-36.144-96.804-57.891
		c-38.202-335.991-42.228-676.461-42.131-1014.354c0.094-331.482-3.461-724.801,78.679-1045.311
		c95.891-40.376,257.075-56.324,362.784-61.455c163.524-8.86,395.115-1.065,548.526,58.05
		c18.732,89.261,33.939,179.119,45.62,269.575c24.062,198.254,28.929,400.997,30.468,600.583
		C-510.191,258.163-511.258,422.361-514.49,586.544z"/>
	<path style="fill:#262425;" d="M-622.192-736.388c-88.013-45.567-356.863-59.436-461.883-55.715
		c-127.749,5.221-259.218,17.402-382.727,52.235c-35.973,161.016-48.542,327.12-56.485,491.586
		c-6.424,131.4-9.927,262.875-10.511,394.426c-3.499,236.947-0.197,473.801,9.906,710.558
		c3.237,79.629,7.731,159.186,13.484,238.672c3.291,52.745,4.49,107.496,13.341,159.527c29.774,19.575,59.96,38.581,92.799,52.648
		c122.653,52.536,271.692,58.794,403.665,56.282c120.623-2.373,315.917-22.952,404.081-111.353
		c27.62-238.432,34.871-478.543,40.739-718.317c8.612-351.84,9.962-707.774-30.802-1057.754
		C-592.982-578.521-604.778-688.824-622.192-736.388z M-585.251,306.812c-1.955,310.164-7.337,621.109-42.744,929.529
		c-100.289,75.441-234.954,88.119-356.266,94.057c-129.163,4.445-292.034-2.103-410.794-54.313
		c-25.733-11.311-48.119-26.377-71.105-42.437c-9.613-80.614-12.817-161.904-17.971-242.864
		c-15.646-276.414-21.386-553.033-17.221-829.86c0.767-177.273,7.373-354.329,19.815-531.168
		c8.324-114.261,17.639-230.361,43.762-342.172c114.73-25.408,220.804-40.669,338.242-44.95
		c150.112-4.542,304.357,4.588,449.692,44.635c29.247,131.848,42.133,268.817,50.988,403.405
		C-585.343-103.935-583.954,101.079-585.251,306.812z"/>
	<path style="fill:#262425;" d="M-1433.237,126.669c-0.025,44.056-2.008,88.858,0.047,132.808
		c0.541,11.538,1.439,27.643,7.753,37.677c6.607,10.503,20.004,18.875,32.125,21.003c30.181,5.302,64.391,2.024,95.054,1.902
		l178.31-0.541l293.972,0.186c46.286-0.013,94.988,3.06,140.962-0.51c13.055-7.569,24.851-16.533,28.892-31.871
		c7.848-29.807,3.076-72.549,3.207-103.67l-0.053-237.481c-0.229-93.538,3.865-188.807-0.675-282.131
		c-0.725-14.9-2.682-31.706-7.878-45.708c-11.056-10.141-21.867-13.895-36.777-15.294c-26.561-2.491-54.324,0.473-81.066,0.381
		c-66.51-0.552-133.021-0.698-199.531-0.441l-270.828,0.165c-48.685-0.033-97.785-1.831-146.406,0.265
		c-1.796,0.062-3.589,0.168-5.379,0.321c-14.483,8.497-25.848,16.906-30.22,33.924c-6.565,25.543-1.462,187.43-1.442,223.762
		L-1433.237,126.669z M-1401.528-199.51c-0.064-48.426-1.52-97.13-0.354-145.527c0.178-7.405,0.786-13.005,4.515-19.511
		c32.305-1.71,65.476-0.254,97.849-0.205l188.816,0.355c141.243,0.27,282.85-2.496,424.041,0.675
		c5.659,58.442,0.496,140.056,0.58,201.355c0.631,109.012,0.503,218.022-0.382,327.03c-0.153,31.764,5.583,92.629-2.582,120.87
		c-26.12,6.76-180.134,2.477-215.965,2.519l-299.767-0.295c-62.339,0.005-125.679,2.236-187.867-1.791
		c-3.96-3.982-6.426-7.809-7.747-13.325c-4.908-20.495-0.979-143.19-0.996-174.493L-1401.528-199.51z"/>
	<path style="fill:#262425;" d="M-907.072,499.488c-0.547-2.267-1.149-4.519-1.807-6.755c-0.66-2.235-1.374-4.453-2.142-6.654
		c-0.767-2.202-1.589-4.382-2.464-6.542c-0.878-2.161-1.808-4.298-2.789-6.412c-0.984-2.114-2.019-4.203-3.105-6.266
		c-1.086-2.062-2.221-4.096-3.407-6.102c-1.186-2.008-2.422-3.985-3.706-5.929c-1.285-1.945-2.617-3.857-3.997-5.737
		c-1.379-1.88-2.805-3.723-4.275-5.53c-1.471-1.808-2.985-3.58-4.543-5.315c-1.558-1.733-3.158-3.427-4.799-5.081
		c-1.644-1.653-3.326-3.265-5.048-4.836c-1.722-1.571-3.482-3.099-5.282-4.583c-1.798-1.483-3.631-2.921-5.5-4.314
		c-26.427-19.664-54.776-25.691-86.995-26.753c-39.75,4.836-77.125,21.117-102.311,53.406c-1.393,1.809-2.741,3.651-4.044,5.527
		c-1.301,1.874-2.557,3.78-3.765,5.717c-1.209,1.937-2.369,3.904-3.481,5.898c-1.112,1.995-2.173,4.016-3.185,6.063
		c-1.012,2.047-1.973,4.117-2.884,6.211c-0.909,2.095-1.767,4.211-2.574,6.348c-0.805,2.136-1.557,4.291-2.256,6.464
		c-0.699,2.173-1.344,4.363-1.936,6.568c-0.593,2.207-1.13,4.426-1.612,6.657c-0.481,2.233-0.908,4.475-1.279,6.726
		c-0.372,2.254-0.688,4.515-0.948,6.783c-0.26,2.27-0.465,4.543-0.614,6.821c-0.147,2.28-0.239,4.561-0.276,6.844
		c-0.036,2.284-0.014,4.566,0.064,6.847c0.076,2.283,0.208,4.562,0.396,6.838c0.189,2.276,0.435,4.545,0.736,6.807
		c0.319,2.242,0.693,4.476,1.121,6.702c0.43,2.224,0.912,4.436,1.448,6.637c0.535,2.202,1.123,4.388,1.765,6.559
		c0.641,2.174,1.335,4.329,2.081,6.467c0.746,2.14,1.543,4.26,2.393,6.358c0.847,2.101,1.747,4.18,2.697,6.236
		s1.948,4.088,2.995,6.096c1.049,2.008,2.144,3.99,3.288,5.946c1.145,1.954,2.336,3.88,3.572,5.779
		c1.238,1.896,2.521,3.762,3.849,5.597c1.327,1.835,2.698,3.637,4.113,5.405c1.415,1.77,2.872,3.503,4.373,5.201
		c1.499,1.697,3.038,3.358,4.618,4.981c1.578,1.623,3.197,3.206,4.853,4.752c1.657,1.544,3.35,3.049,5.081,4.512
		c1.729,1.462,3.493,2.881,5.291,4.259c26.907,20.336,59.834,27.012,93.022,25.911c39.866-4.897,71.171-16.515,96.594-49.571
		c22.353-29.069,34.122-67.237,29.277-103.809c-0.32-2.31-0.697-4.609-1.132-6.899
		C-906.036,504.032-906.525,501.754-907.072,499.488z M-935.17,534.289c-0.046,1.796-0.139,3.589-0.276,5.377
		c-0.136,1.791-0.317,3.577-0.543,5.358c-0.228,1.781-0.499,3.556-0.815,5.324c-0.316,1.766-0.677,3.524-1.082,5.273
		c-0.404,1.75-0.852,3.488-1.345,5.215c-0.493,1.726-1.028,3.438-1.606,5.137c-0.577,1.699-1.199,3.384-1.863,5.054
		c-0.663,1.668-1.368,3.318-2.113,4.95c-0.746,1.634-1.534,3.248-2.363,4.841c-0.827,1.592-1.693,3.163-2.599,4.713
		c-0.907,1.549-1.853,3.075-2.836,4.577c-0.984,1.502-2.004,2.978-3.062,4.428c-19.472,26.26-46.732,36.966-78.118,41.397
		c-24.562,0.826-47.361-4.116-67.641-18.504c-1.486-1.075-2.944-2.184-4.376-3.33c-1.43-1.145-2.831-2.325-4.203-3.539
		c-1.374-1.216-2.716-2.464-4.027-3.746c-1.31-1.279-2.589-2.591-3.837-3.935c-1.247-1.344-2.461-2.718-3.64-4.122
		c-1.178-1.404-2.322-2.835-3.43-4.295c-1.11-1.459-2.183-2.944-3.218-4.456c-1.036-1.514-2.034-3.052-2.993-4.613
		c-0.959-1.561-1.88-3.146-2.764-4.752c-0.881-1.608-1.723-3.236-2.524-4.883c-0.803-1.65-1.564-3.317-2.284-5.004
		c-0.72-1.686-1.397-3.389-2.033-5.109c-0.636-1.718-1.229-3.452-1.779-5.201c-0.553-1.747-1.06-3.508-1.523-5.282
		c-0.465-1.774-0.885-3.557-1.261-5.353c-0.375-1.794-0.707-3.596-0.996-5.407c-4.284-27.007,2.516-53.711,18.724-75.687
		c19.647-26.645,46.844-39.342,78.902-43.977c23.942-1.007,48.25,5.262,68.095,18.819c1.445,0.997,2.864,2.029,4.258,3.096
		c1.393,1.067,2.759,2.17,4.097,3.308c1.336,1.137,2.645,2.306,3.924,3.509c1.279,1.202,2.526,2.436,3.743,3.7
		c1.215,1.266,2.4,2.562,3.553,3.888c1.151,1.325,2.267,2.679,3.349,4.06c1.084,1.382,2.132,2.789,3.143,4.223
		c1.011,1.435,1.986,2.894,2.925,4.378c0.939,1.484,1.84,2.991,2.702,4.521c0.861,1.528,1.684,3.078,2.468,4.649
		c0.784,1.569,1.529,3.158,2.234,4.766c0.704,1.609,1.367,3.233,1.988,4.875c0.623,1.642,1.204,3.298,1.743,4.969
		c0.537,1.672,1.033,3.355,1.486,5.051s0.865,3.402,1.233,5.12c0.368,1.716,0.692,3.44,0.973,5.173
		c0.314,1.768,0.583,3.542,0.806,5.323c0.225,1.781,0.404,3.567,0.538,5.357c0.134,1.79,0.222,3.583,0.264,5.377
		C-935.122,530.7-935.123,532.495-935.17,534.289z"/>
	<path style="fill:#262425;" d="M-1133.643,674.54c4.713-3.954,4.376-7.513,4.764-13.139c-6.928-19.075-40.871-47.496-54.642-64.402
		c-14.775-18.141-26.817-36.721-37.554-57.5c-17.115-33.126-32.914-97.395-46.646-118.899c-3.824-5.99-8.311-10.299-14.823-13.228
		c-12.806-5.762-140.097-33.329-157.979-35.304c-9.625,3.86-18.024,7.648-22.84,17.62c-5.999,12.424-1.571,28.599,3.338,40.614
		c40.985,100.295,132.009,185.088,231.293,225.938c12.44,5.117,25.115,9.563,38.026,13.339c12.908,3.776,25.981,6.861,39.217,9.257
		C-1145,679.279-1138.894,678.949-1133.643,674.54z M-1226.517,621.892c-98.335-40.039-168.873-120.4-209.66-216.863
		c48.325,9.139,96.397,21.089,144.415,31.782c18.005,75.988,49.033,136.536,98.148,196.533
		C-1204.77,631.575-1216.098,626.137-1226.517,621.892z"/>
	<path style="fill:#262425;" d="M-631.258,378.025c-5.904-2.711-10.672-4.155-17.277-3.338
		c-26.112,7.782-52.576,14.08-79.396,18.891c-24.21,4.56-54.379,6.688-76.696,17.034c-5.118,2.37-8.308,5.681-10.966,10.567
		c-9.73,17.882-15.492,39.308-22.802,58.311c-19.031,49.48-40.539,92.952-74.069,134.414c-12.142,15.02-36.815,37.568-32.549,58.337
		c5.597,4.883,10.982,7.257,18.716,6.506c2.981-0.29,5.974-1.065,8.863-1.81c118.313-33.634,213.087-98.209,273.951-207.007
		c10.681-19.093,31.996-57.428,25.177-79.253C-620.301,384.288-625.435,380.699-631.258,378.025z M-657.147,426.311
		c-43.676,103.915-124.764,163.8-225.55,205.632c1.464-11.771,29.837-45.028,37.108-57.726
		c23.708-41.401,40.853-91.287,56.098-136.405c45.745-8.839,91.448-17.31,136.798-28.048
		C-651.884,415.013-655.148,421.548-657.147,426.311z"/>
	<path style="fill:#262425;" d="M-938.153,722.402c-26.91-13.054-153.777-10.536-189.742-7.965
		c-19.556,7.407-30.948,13.774-39.811,33.416c-11.387,25.239-12.806,77.493-2.839,103.129c5.831,15.003,16.872,27.542,31.781,33.92
		c28.756,12.302,147.415,7.853,183.665,4.948c17.385-4.792,32.473-11.596,41.531-28.17c12.503-22.875,12.787-80.79,4.838-105.419
		C-913.614,741.124-923.836,729.349-938.153,722.402z M-937.917,836.522c-2.432,11.381-9.379,16.234-18.37,22.333
		c-2.618,0.357-5.242,0.65-7.873,0.878c-27.602,2.293-156.485,6.177-172.181-9.198c-11.905-11.666-7.535-52.898-6.866-68.645
		c0.672-15.865,4.208-24.79,15.924-35.596c6.729-0.939,13.395-0.939,20.171-1.02c29.219-0.346,146.238-6.696,163.415,10.067
		C-933.798,772.747-933.675,816.679-937.917,836.522z"/>
	<path style="fill:#262425;" d="M-936.578,928.403c-30.273-14.416-146.526-7.588-186.353-7.962
		c-17.793,3.787-30.644,9.282-40.882,25.01c-15.866,24.378-17.059,69.2-10.564,97.214c3.918,16.892,13.236,31.67,28.282,40.639
		c7.87,4.69,16.794,6.886,25.827,7.94c24.428,2.848,49.949,0.148,74.549,0.053c30.909-0.122,62.018,1.448,92.891,0.137
		c16.354-4.822,30.951-10.913,39.407-26.703c12.636-23.593,12.206-80.349,3.809-105.384
		C-914.259,945.499-923.351,934.703-936.578,928.403z M-937.785,1035.26c-1.512,12.137-7.008,17.567-16.145,24.642
		c-45.36,0.611-90.988,2.237-136.335,1.453c-15.475-0.271-37.594-0.906-48.922-13.15c-8.096-8.745-5.101-52.383-4.401-64.612
		c0.834-14.599,5.703-21.973,16.549-31.344c50.447-0.293,111.401-4.975,160.674,0.145c8.796,0.913,17.174,1.86,22.796,9.449
		C-933.649,975.234-935.7,1018.505-937.785,1035.26z"/>
	<path style="fill:#262425;" d="M-650.872,662.42c-10.464-6.701-20.749-6.085-32.56-5.064
		c-54.176,14.162-161.853,19.227-191.044,69.74c-14.059,24.33-18.325,78.54-10.751,105.446
		c3.726,13.233,11.831,24.388,24.088,30.901c10.58,5.625,21.368,6.997,33.182,7.237c39.523-7.764,123.473-19.525,155.093-36.875
		c10.383-5.695,18.869-14.669,25.389-24.458c18.259-27.425,24.146-81.9,17.43-113.972
		C-632.792,682.258-639.341,669.808-650.872,662.42z M-672.706,790.21c-4.373,7.148-11.027,14.226-18.626,17.949
		c-13.512,6.618-34.688,7.893-49.69,11.276c-31.131,7.019-62.093,15.048-93.139,22.478c-2.78-1.155-5.561-2.34-8.196-3.804
		c-6.205-3.441-11.166-9.203-12.798-16.164c-4.922-20.986-1.495-59.857,9.616-78.216c21.329-35.251,124.743-43.977,165.939-54.037
		c3.715-0.895,6.93-0.479,10.707-0.24c4.534,3.72,6.194,5.262,7.725,11.295C-655.51,723.032-660.875,770.872-672.706,790.21z"/>
	<path style="fill:#262425;" d="M-1384.131,843.653c32.167,10.839,118.819,34.422,149.677,26.884
		c15.503-8.051,27.808-16.526,33.121-33.965c8.498-27.903,12.246-87.72-2.153-113.311c-8.294-14.733-30.772-22.595-46.315-26.661
		c-29.676-7.767-148.96-39.342-171.02-37.044c-15.693,7.451-25.872,15.249-32.038,32.014c-10.589,28.786-3.865,78.779,9.278,106.129
		C-1431.614,822.6-1409.507,835.102-1384.131,843.653z M-1426.157,716.25c0.494-12.156,4.813-19.184,13.565-27.149
		c26.966,5.307,162.322,37.956,179.063,48.724c4.315,5.756,5.684,11.752,6.01,18.794c1.116,24.241,3.668,64.018-13.163,82.776
		c-39.599-0.541-138.988-18.473-166.583-46.808C-1422.654,776.788-1427.018,737.325-1426.157,716.25z"/>
	<path style="fill:#262425;" d="M-1245.3,895.936c-33.366-10.581-133.959-31.846-167.891-33.117
		c-15.963,7.036-25.783,13.504-32.317,30.256c-10.982,28.159-10.45,80.904,1.93,108.377c8.908,19.768,23.415,32.144,43.511,39.633
		c29.793,11.099,137.484,36.492,166.352,29.302c15.159-7.555,27.869-15.581,33.748-32.3c8.394-23.864,9.013-88.638-1.936-111.356
		C-1209.444,911.082-1229.554,900.93-1245.3,895.936z M-1236.155,1038.163c-1.377,0.292-1.657,0.388-2.934,0.553
		c-28.541,3.664-141.865-19.466-163.348-36.364c-9.694-7.625-14.742-20.099-15.952-32.116c-1.86-18.448-2.705-62.038,8.958-76.197
		c39.498,8.741,140.861,22.815,170.576,39.247c6.671,3.687,9.638,8.738,11.428,15.995
		C-1222.395,969.658-1225.078,1020.128-1236.155,1038.163z"/>
	<path style="fill:#262425;" d="M-659.593,866.653c-9.869-6.069-20.094-7.533-31.508-5.982
		c-39.518,9.181-121.477,20.735-153.055,37.526c-1.53,0.815-3.032,1.679-4.506,2.594c-1.473,0.913-2.915,1.873-4.326,2.881
		c-1.411,1.01-2.786,2.064-4.128,3.163c-1.34,1.099-2.644,2.24-3.91,3.424c-1.266,1.186-2.492,2.411-3.679,3.676
		c-1.184,1.266-2.326,2.569-3.427,3.91c-1.099,1.341-2.153,2.716-3.162,4.128c-1.008,1.409-1.969,2.851-2.884,4.325
		c-15.319,24.687-18.948,72.928-11.867,101.099c3.743,14.898,12.672,27.933,26.171,35.569c9.906,5.602,19.683,7.887,30.939,8.534
		c37.63-7.767,120.149-19.452,150.573-35.558c9.641-5.101,17.491-13.4,23.466-22.422c17.472-26.394,23.864-81.27,17.316-112.256
		C-640.512,887.396-647.219,874.26-659.593,866.653z M-681.524,993.902c-5.143,7.833-12.461,13.389-21.023,17.065
		c-28.047,12.045-97.174,21.423-130.858,28.605c-4.069-0.622-8.35-1.261-11.906-3.475c-5.126-3.196-8.271-7.755-9.719-13.568
		c-5.137-20.613-3.522-64.257,8.762-82.407c17.341-25.616,124.262-40.963,157.57-46.926c5.569-1.102,8.333-0.462,13.613,1.509
		c2.761,3.157,5.415,5.242,6.314,9.437C-664.928,922.075-671.466,978.574-681.524,993.902z"/>
	<path style="fill:#262425;" d="M-934.221,1130.175c-30.708-20.004-142.652-11.288-182.781-10.991
		c-17.899,1.763-30.959,5.235-42.686,19.69c-18.412,22.699-19.516,58.008-16.245,86.036c2.044,17.514,8.303,35.014,22.529,46.309
		c28.616,22.717,146.372,17.899,184.005,14.987c18.73-3.386,35.314-9.371,46.665-25.655c14.345-20.593,18.348-66.815,13.883-91.17
		C-911.841,1153.069-920.227,1139.292-934.221,1130.175z M-944.27,1232.752c-4.234,11.612-11.962,16.348-22.461,21.323
		c-31.729,1.317-139.311,8.35-161.556-4.931c-9.449-5.641-13.997-17.893-15.893-28.178c-3.274-17.751-3.321-45.645,7.965-60.788
		c4.836-6.49,10.492-7.404,17.943-8.621c26.993,0.087,141.23-4.495,161.047,2.072c6.412,2.125,11.158,6.398,14.019,12.544
		C-936.478,1180.606-938.778,1217.692-944.27,1232.752z"/>
	<path style="fill:#262425;" d="M-1393.491,1066.581c-7.789-1.177-15.544-0.73-23.348,0.079
		c-11.847,6.785-19.753,13.506-23.326,27.174c-7.973,30.504-3.868,77.786,12.271,104.69c28.831,48.054,99.367,57.734,149.496,69.537
		c18.984,4.468,35.062,5.435,53.909,0.011c14.092-9.267,23.337-18.764,26.831-35.781c5.497-26.767,6.831-84.254-8.852-106.72
		C-1228.813,1093.628-1352.445,1072.779-1393.491,1066.581z M-1234.401,1237.958c-23.577,7.157-83.978-11.947-109.236-19.881
		c-24.481-7.689-49.224-20.741-61.241-44.602c-10.519-20.888-10.009-54.7-2.926-76.634c18.471-0.117,145.99,28.742,163.65,37.75
		c7.407,3.779,11.128,11.247,13.412,18.878C-1224.459,1174.476-1224.138,1218.588-1234.401,1237.958z"/>
	<path style="fill:#262425;" d="M-664.292,1067.672c-6.718-5.249-19.134-9.312-27.551-8.601
		c-40.592,9.563-118.035,20.744-152.187,37.415c-1.666,0.796-3.302,1.649-4.908,2.558c-1.607,0.911-3.18,1.875-4.719,2.894
		c-1.539,1.021-3.041,2.094-4.504,3.219c-1.463,1.125-2.886,2.299-4.269,3.522c-1.381,1.226-2.719,2.497-4.01,3.815
		c-1.294,1.318-2.539,2.679-3.737,4.083c-1.198,1.405-2.345,2.851-3.442,4.337c-1.097,1.485-2.14,3.007-3.131,4.565
		c-15.42,24.573-19.996,78.838-12.941,106.86c3.13,12.424,10.687,21.987,21.722,28.443c7.577,4.434,16.025,6.613,24.458,8.816
		c51.073-4.512,133.932-12.755,168.468-53.847c23.675-28.161,29.503-80.26,25.75-115.857
		C-650.588,1087.635-654.202,1075.562-664.292,1067.672z M-701.482,1195.591c-19.775,28.318-109.531,37.016-143.985,43.076
		c-6.057-3.562-10.586-7.694-12.505-14.709c-5.296-19.377-2.429-61.48,7.635-78.734c5.891-10.099,14.934-17.353,25.432-22.23
		c29.305-13.615,97.509-22.068,133.572-31.907c1.367,0.106,1.919,0.039,3.29,0.761c4.588,2.415,6.172,5.798,7.042,10.573
		C-676.246,1128.522-686.664,1174.371-701.482,1195.591z"/>
	<path style="fill:#262425;" d="M-1171.574-527.852c24.279,7.075,222.313,4.428,256.752,2.231
		c16.312-7.733,23.331-14.081,29.349-31.207c2.993-8.52,4.844-17.552,0.569-26.073c-5.655-11.273-19.354-17.678-30.939-20.863
		c-36.383-10.004-86.103-3.473-124.048-3.413c-42.949,0.064-86.153-1.649-129.071,0.39c-14.373,6.459-24.073,14.1-29.319,29.646
		c-3.338,9.894-0.382,22.099,4.697,30.9C-1188.606-537.608-1181.302-530.685-1171.574-527.852z M-1161.607-574.853
		c33.856-0.028,225.442-5.437,240.9,2.661c3.784,5.955,2.569,7.74,1.738,14.566c-30.298-0.039-231.354,4.964-243.722-3.215
		C-1164.312-567.013-1163.487-568.634-1161.607-574.853z"/>
	<path style="fill:#262425;" d="M2633.812,253.084c-0.28-261.916-5.522-525.263-39.602-785.267
		c-10.319-78.894-22.144-160.538-40.773-237.943c-2.314-9.612-4.684-25.434-12.075-32.359
		c-23.65-13.936-57.785-19.619-84.363-25.523c-147.697-32.797-305.936-47.263-457.092-38.314
		c-93.453,4.467-188.079,13.402-279.86,31.939c-42.222,8.526-83.916,23.309-126.084,30.658
		c3.152,14.736-29.394,144.13-33.689,172.673c-9.277,63.056-16.946,126.309-23.008,189.756
		c-6.042,63.446-10.478,127.005-13.303,190.679c-9.129,196.693-13.479,393.493-13.052,590.398
		c-0.25,164.589,0.028,329.873,6.275,494.344c4.761,115.872,11.974,231.592,21.641,347.158
		c1.925,21.482,14.921,103.968,9.733,118.573c33.327,21.257,62.777,45.793,98.418,63.748
		c143.709,72.385,328.638,88.077,487.797,79.334c133.39-4.738,280.167-27.476,395.876-97.598
		c18.016-10.924,38.764-23.741,53.016-39.432c2.092-2.32,2.705-4.275,3.458-7.245c11.127-18.141,21.892-196.415,24.347-232.916
		C2629.024,795.138,2636.47,524.25,2633.812,253.084z M2568.636,454.512c-2.026,168.859-7.298,337.616-15.812,506.273
		c-2.975,59.382-6.674,118.719-11.1,178.011c-2.036,28.736-1.813,60.563-8.451,88.44c-3.542,14.845-8.393,23.764-18.936,34.804
		c-80.15,83.914-270.74,109.081-382.042,111.81c-23.79,4.271-50.729,2.474-74.965,2.173
		c-124.578-1.553-279.609-19.513-386.84-84.111c-21-12.664-45.291-30.396-53.211-54.645
		c-11.769-35.945-14.474-142.535-17.486-184.976c-15.803-246.353-22.543-492.954-20.219-739.801
		c-1.321-234.25,6.023-468.228,22.031-701.932c6.136-82.968,13.554-166.608,27.666-248.641
		c4.044-23.461,23.064-96.076,18.211-115.782c119.501-29.202,236.662-49.6,359.733-55.451
		c133.223-7.471,271.187,6.016,401.929,31.575c24.429,4.778,56.892,8.833,78.477,21.519c13.61,13.833,20.024,72.653,23.538,93.929
		c33.522,202.054,47.383,405.768,53.741,610.299C2569.399,116.817,2570.645,285.653,2568.636,454.512z"/>
	<path style="fill:#262425;" d="M2497.159-627.35c-4.463-29.617-8.507-82.617-21.363-108.615c-0.976-1.98-2.231-3.467-3.82-4.956
		c-21.53-14.267-61.718-18.652-86.929-23.002c-128.593-22.191-260.143-33.235-390.633-25.566
		c-113.673,5.776-219.677,24.466-329.921,52.135c1.311,5.792,0.641,9.727-0.557,15.452
		c-47.215,226.193-56.559,471.41-60.769,702.568c-0.81,44.876-0.335,328.412-6.694,341.826
		c37.9,19.449,73.597,41.537,113.032,58.198c131.215,55.445,295.812,80.263,437.959,65.14
		c120.562-8.587,235.295-37.416,344.506-89.536c14.782-7.067,44.706-19.489,54.494-32.368c0.196-0.262,0.335-0.566,0.502-0.85
		c7.838-25.808,2.677-96.617,2.538-126.544C2548.362-78.023,2538.35-355.645,2497.159-627.35z M2519.107,311.79
		c-0.334,0.468-0.642,0.974-1.031,1.406c-11.267,12.463-39.296,23.044-54.438,30.1c-123.825,57.709-255.012,80.062-390.829,81.523
		c-126.446-0.516-252.863-20.481-369.327-71.681c-29.003-12.745-55.805-29.643-84.251-43.384
		c7.307-11.808,5.299-214.755,5.802-243.672c2.938-171.114,11.258-341.966,24.96-512.556c4.295-49.359,10.373-99.096,17.43-148.143
		c4.016-27.816,20.609-100.82,17.43-123.774c127.478-30.474,250.019-44.66,380.9-48.781c77.809-2.708,320.075,14.162,386.618,44.655
		c1.17,1.39,2.118,2.583,2.928,4.22c11.545,23.421,14.028,70.689,18.072,97.961c39.461,267.032,48.442,538.651,49.083,808.282
		C2522.509,215.957,2527.836,287.717,2519.107,311.79z"/>
	<path style="fill:#262425;" d="M2460.904-374.095c-2.399-11.947-13.527-23.117-23.343-29.813c-1.729-1.185-3.291-1.974-5.187-2.849
		c-31.041-9.217-76.248-3.93-108.681-4.031c-71.99-0.236-143.969-0.038-215.94,0.594l-383.047-0.008
		c-15.255,4.621-26.633,12.372-34.471,26.601c-5.912,10.723-7.083,21.047-7.753,33.105c-2.426,44.798-0.697,90.331-0.642,135.226
		l0.168,240.858c0.028,33.078-3.988,244.478,2.036,263.389c2.231,6.978,9.732,17.792,16.147,21.532
		c10.123,5.918,28.334,6.105,40.047,6.523c129.514,4.615,260.45-0.627,390.104-0.338l189.473,0.851
		c33.021,0.022,67.017,1.595,99.842-1.405c13.944-1.693,24.178-5.829,33.27-17.007c2.9-3.553,4.992-7.396,7-11.476
		c0.252-0.479,0.502-0.956,0.725-1.439c3.933-7.971,4.463-16.217,4.713-24.937c1.506-52.129,2.203-618.532-2.481-631.572
		C2462.382-371.674,2461.74-372.896,2460.904-374.095z M2429.389,274.595c-4.907,5.985-8.673,7.667-15.784,10.082
		c-71.952,7.519-147.836,0.603-220.319,1.118c-147.139,1.043-298.769,5.262-445.49,0.633c-10.709-0.338-21.975-0.736-32.016-4.646
		c-0.614-1.952-1.125-3.933-1.534-5.943c-3.793-19.151-0.92-44.125-0.893-63.87l0.224-156.208l0.167-266.411
		c-0.056-47.51-1.729-95.666,0.195-143.109c0.363-8.749,1.702-14.425,6.666-21.739c48.247-5.666,689.792-2.337,701.589,1.997
		c3.682,1.354,6.275,4.16,7.725,7.8C2435.219-352.266,2433.963,261.906,2429.389,274.595z"/>
	<path style="fill:#262425;" d="M2032.092-548.42c13.581,6.776,26.884,9.374,41.944,9.214c23.091-2.094,44.258-10.191,59.597-28.209
		c14.196-16.633,20.554-38.824,18.602-60.484c-0.112-1.363-0.27-2.723-0.475-4.08c-0.185-1.354-0.399-2.705-0.64-4.051
		c-0.261-1.345-0.55-2.682-0.865-4.014s-0.669-2.653-1.059-3.968c-0.373-1.315-0.79-2.619-1.255-3.913
		c-0.447-1.294-0.921-2.576-1.422-3.846c-0.502-1.271-1.041-2.527-1.617-3.771c-0.576-1.244-1.181-2.473-1.813-3.687
		c-0.632-1.214-1.293-2.412-1.98-3.595c-0.688-1.18-1.413-2.345-2.175-3.492c-0.744-1.146-1.516-2.274-2.314-3.382
		c-0.8-1.109-1.627-2.197-2.483-3.266c-0.854-1.068-1.738-2.113-2.65-3.137c-0.911-1.026-1.84-2.029-2.789-3.007
		c-0.967-0.98-1.951-1.934-2.956-2.864c-1.003-0.932-2.026-1.839-3.067-2.72c-17.235-14.37-38.43-20.255-60.63-18.281
		c-0.809,0.073-1.618,0.168-2.427,0.252c-26.411,8.007-46.852,18.532-60.266,44.203c-10.319,19.762-11.797,42.694-5.047,63.865
		C2000.493-575.193,2013.601-557.643,2032.092-548.42z M2010.701-638.432c6.749-22.57,21.836-33.729,41.638-44.457
		c19.27-3.041,35.836-3.291,52.96,7.362c0.912,0.562,1.804,1.146,2.676,1.755c0.874,0.605,1.74,1.233,2.594,1.885
		c0.856,0.65,1.684,1.322,2.483,2.013c0.818,0.692,1.617,1.405,2.398,2.14c0.781,0.732,1.543,1.483,2.286,2.253
		c0.726,0.772,1.442,1.561,2.149,2.368c0.706,0.807,1.385,1.632,2.035,2.474c0.671,0.84,1.312,1.698,1.925,2.571
		c0.614,0.874,1.199,1.764,1.758,2.667c0.576,0.903,1.125,1.82,1.645,2.753c0.521,0.932,1.023,1.875,1.506,2.83
		c0.484,0.956,0.939,1.925,1.367,2.904c0.428,0.979,0.828,1.969,1.199,2.967c0.372,1.001,0.725,2.009,1.059,3.026
		c0.317,1.017,0.615,2.043,0.893,3.077c0.279,1.031,0.53,2.07,0.753,3.114c3.709,17.375,0.642,36.473-9.455,51.234
		c-10.401,15.258-25.406,23.315-43.144,26.725c-7.92,3.227-20.525,1.194-28.473-1.076c-15.785-4.51-28.391-15.88-36.283-30.07
		C2008.079-603.304,2005.626-621.485,2010.701-638.432z"/>
	<path style="fill:#262425;" d="M2545.071,347.909c-14.167,15.026-44.816,25.838-63.641,34.116
		c-123.099,54.193-249.155,82-383.494,85.927c-113.534,3.319-232.143-10.732-339.681-47.832
		c-46.964-16.203-90.665-36.104-134.395-59.637c-8.255-4.436-15.785-10.134-25.434-9.671c-0.447,0.019-0.892,0.011-1.339,0.017
		c0.167,0.485,0.362,0.965,0.529,1.456c6.916,20.197,2.901,145.162,3.152,174.517c0.558,202.782,8.748,405.255,24.569,607.418
		c2.119,26.048,1.535,77.084,11.88,99.757c10.458,22.972,35.14,38.057,56.781,49.201c176.059,90.618,492.62,93.053,678.078,32.937
		c43.227-14.011,116.128-40.176,137.714-83.857c5.271-10.648,5.661-19.832,2.789-31.177c18.741-27.944,33.717-663.873,35-751.615
		c0.307-21.38,5.522-75.377,0.809-93.647C2547.637,352.95,2546.55,350.449,2545.071,347.909z M1960.223,563.263
		c10.904-13.696,25.964-17.149,42.502-19.059c37.314-1.456,143.848-10.475,171.402,11.775c13.553,10.946,18.88,27.95,20.301,44.747
		c1.98,24.077,1.869,53.797-15.031,72.867c-13.386,15.085-29.673,17.071-48.805,18.429c-1.561,0.446-3.152,0.87-4.741,1.14
		c-32.741,5.505-128.621,3.715-154.669-15.929c-12.828-9.688-18.853-24.199-21.028-39.78
		C1947.143,615.961,1946.222,580.863,1960.223,563.263z M1689.203,878.859c4.741-1.402,9.454-2.244,14.419-1.439
		c28.557,4.612,144.267,34.741,166.187,45.943c14.139,7.229,22.673,14.606,27.386,30.164c5.774,19.034,6.916,72.303-3.542,89.595
		c-5.717,9.474-12.856,12.477-23.036,14.792c-2.956,0.444-5.856,0.649-8.869,0.68c-42.558,0.435-137.378-21.739-168.669-53.183
		c-19.131-19.246-28.975-45.371-28.864-72.393C1664.299,906.58,1671.243,896.474,1689.203,878.859z M1666.195,734.69
		c0.586-21.254,7.669-34.762,22.813-49.19c23.008-5.483,164.931,32.8,188.72,46.3c11.379,6.437,16.51,14.689,19.941,27.11
		c6.609,24.077,8.841,73.392-4.323,95.002c-4.686,7.675-9.147,10.213-17.682,12.561c-4.183,1.154-8.45,1.674-12.8,1.562
		c-32.88-0.574-105.446-17.096-136.263-30.228c-13.218-5.636-25.823-13.59-35.753-24.076
		C1670.295,792.015,1665.359,763.585,1666.195,734.69z M1894.908,1243.188c-4.964,8.244-10.43,10.827-19.243,13.158
		c-3.904,0.824-7.845,1.272-11.825,1.344c-51.594,1.074-121.732-17.341-159.02-53.409c-22.868-22.104-37.844-51.27-38.151-83.453
		c-0.252-24.31,6.442-34.395,22.533-51.088c3.961-0.993,8.2-2,12.327-1.473c16.259,2.086,33.911,10.204,49.892,14.828
		c38.124,11.022,82.159,17.383,117.159,36.49c16.175,8.82,24.375,19,29.507,36.804
		C1904.083,1177.26,1906.481,1223.97,1894.908,1243.188z M1891.534,662.367c-5.633,7.427-12.187,8.079-20.805,9.153
		c-3.876,0.137-7.641-0.231-11.49-0.599c-51.762-4.959-139.75-16.162-174.442-59.285c-17.877-22.227-21.28-55.855-17.933-83.384
		c2.203-17.854,13.052-28.201,26.633-38.592c4.769-0.754,8.98-0.764,13.694,0.243c27.386,5.854,54.188,15.673,81.379,22.57
		c20.859,5.293,42.53,7.65,63.194,13.758c8.841,2.613,18.072,5.839,25.741,11.057c13.554,9.209,19.941,26.826,22.729,42.296
		C1904.363,602.575,1906.175,643.146,1891.534,662.367z M1962.119,758.566c16.566-18.546,45.096-17.643,67.825-18.524
		c34.553-0.547,119.892-9.568,145.187,12.706c15.533,13.671,20.414,33.924,21.753,53.769c1.422,21.324,0.669,45.91-14.419,62.682
		c-19.326,21.502-48.358,21.566-74.963,22.88c-38.626,0.907-106.618,6.919-138.243-19.441
		c-13.219-11.002-19.216-27.244-20.331-44.047C1947.45,806.843,1946.837,775.695,1962.119,758.566z M2179.706,1060.778
		c-15.59,17.444-36.199,21.502-58.623,23.03c-1.784,0.669-2.064,0.848-4.239,1.247c-33.494,6.157-117.689,2.618-144.295-19.053
		c-14.028-11.417-19.717-27.852-21.223-45.433c-1.701-19.938-1.785-49.098,12.466-64.634c13.916-15.196,34.72-16.318,53.797-17.578
		c37.063-1.81,130.239-8.743,157.848,13.724c13.638,11.113,19.355,28.131,20.721,45.182
		C2197.915,1018.895,2194.709,1043.998,2179.706,1060.778z M2182.717,1252.467c-14.335,17.843-32.294,22.464-54.215,24.631
		c-1.422,0.591-1.478,0.68-3.235,1.054c-29.673,6.297-128.343,2.917-153.274-16.371c-12.829-9.928-19.104-24.64-21.085-40.435
		c-2.481-19.912-2.844-51.103,10.124-67.393c11.741-14.758,30.259-17.533,47.828-19.755c35.949-1.442,139.08-8.384,166.718,12.667
		c12.773,9.73,18.908,23.906,21,39.496C2199.478,1207.959,2196.801,1234.925,2182.717,1252.467z M2436.167,1202.384
		c-40.159,39.462-106.868,54.131-161.445,53.967c-1.228-0.418-2.455-0.839-3.654-1.313c-10.403-4.097-17.737-8.347-22.337-19.338
		c-8.813-21.109-8.897-67.016,0.529-88.077c5.494-12.287,15.005-21.714,26.718-28.154c27.972-15.369,118.302-32.521,157.792-47.248
		c3.319-0.499,6.637-0.982,9.984-1.202c6.722-0.441,12.941,1.96,17.738,6.693c7.753,7.658,10.123,20.808,10.151,31.286
		C2471.752,1142.642,2460.43,1178.556,2436.167,1202.384z M2249.983,944.815c6.498-14.539,18.016-24.86,32.323-31.503
		c13.136-6.108,28.417-6.874,42.501-9.65c31.431-6.188,65.678-12.374,95.436-24.007l1.979-0.794
		c4.426-0.686,8.859-1.278,13.303-1.774c9.064-0.97,17.124-0.393,24.375,5.874c6.386,5.519,9.538,12.787,10.236,21.073
		c2.594,30.585-3.849,74.858-24.068,98.78c-33.912,40.117-110.912,46.343-159.661,50.355c-6.804,0.455-15.17,1.484-21.558-1.185
		c-8.729-3.64-14.195-12.321-17.486-20.788C2238.661,1008.792,2240.334,966.42,2249.983,944.815z M2448.132,818.246
		c-36.06,38.33-123.324,39.555-172.1,40.734c-5.077-0.756-11.127-1.355-15.646-3.977c-8.45-4.9-12.633-14.678-15.116-23.66
		c-6.442-23.326-5.604-62.331,6.499-83.571c6.442-11.356,16.453-20.185,28.167-25.903c29.06-14.215,117.801-29.099,154.809-38.846
		c10.18-0.524,19.996,0.631,27.916,7.778c7.809,7.059,9.733,16.65,10.291,26.709C2474.793,750.43,2471.668,793.234,2448.132,818.246
		z M2451.227,620.119c-35.196,38.169-123.77,44.499-172.713,46.487c-5.299-0.287-10.709-0.611-15.729-2.518
		c-6.944-2.647-11.769-8.244-14.865-14.876c-9.566-20.481-8.143-68.516,0.224-89.486c21.223-53.281,132.637-46.814,181.414-69.319
		c0.529-0.24,1.031-0.496,1.533-0.744c3.291-0.669,6.665-1.414,10.011-1.598c8.702-0.482,15.813,1.479,22.394,7.352
		c8.032,7.198,11.185,17.191,11.769,27.715C2477.023,555.742,2474.374,595.017,2451.227,620.119z"/>
	<path style="fill:#262425;" d="M972.582-746.408c-5.383-16.853-18.294-69.755-29.869-81.06
		c-28.697-8.718-61.047-12.244-90.721-16.731c-29.115-4.534-58.315-8.454-87.598-11.755c-29.271-3.301-58.602-5.982-87.993-8.043
		c-29.391-2.063-58.813-3.503-88.264-4.321c-29.452-0.818-58.909-1.016-88.37-0.591c-139.931,3.405-283.419,12.618-420.109,44.781
		c-9.619,24.125-18.745,48.437-27.375,72.934c-8.629,24.497-16.756,49.161-24.383,73.988c-7.626,24.828-14.744,49.801-21.353,74.92
		c-6.608,25.118-12.704,50.361-18.287,75.728c-5.581,25.365-10.643,50.833-15.187,76.406c-4.546,25.573-8.569,51.228-12.068,76.963
		c-3.501,25.737-6.476,51.534-8.927,77.39c-2.45,25.859-4.373,51.755-5.77,77.692c-8.966,152.069,3.171,300.93,31.771,450.373
		c9.563,49.962,33.639,107.055,37.139,156.047c4.945,69.261,3.662,140.214,4.958,209.676L26.9,979.216
		c1.113,71.135-3.435,146.002,5.118,216.375c2.7,22.221,9.348,44.44,18.189,64.969c28.937,67.186,81.272,119.109,149.25,146.007
		c87.77,34.732,234.962,40.056,329.415,37.563c125.763-2.51,292.499-1.497,386.372-98.784
		c34.972-36.277,60.406-83.28,68.577-133.208c5.383-32.781,4.434-66.467,5.131-99.604l3.068-141.042
		c3.049-130.115,6.889-260.207,11.517-390.277c1.925-65.794,0.447-133.211,5.132-198.769c2.175-30.412,13.581-61.07,21.614-90.406
		c6.116-23.177,11.471-46.527,16.064-70.05c26.27-128.77,36.199-253.936,33.522-385.337
		C1075.825-363.349,1033.351-556.597,972.582-746.408z M449.633-834.254c74.482-3.86,343.348,2.663,406.265,26.388
		c36.366,33.686,104.498,309.071,115.542,368.742c43.7,235.746,45.123,494.528-27.135,724.781
		c-19.021,60.596-42.084,119.033-78.339,171.569c-72.314,104.787-170.381,165.529-294.839,188.264
		c-72.014,10.508-152.12,1.054-219.264-27.211c-127.138-53.524-209.52-155.194-260.291-281.243
		c-22.002-54.628-35.276-113.353-46.395-171.096c-61.628-320.069-9.647-672.56,116.805-970.938
		C255.454-825.14,354.366-829.323,449.633-834.254z M1029.112,131.525c-6.599,40.682-14.818,81.034-24.653,121.055
		c-10.291,40.603-24.766,81.351-27.275,123.378c-5.802,97.395-5.857,196.162-7.836,293.744l-11.379,486.201
		c-1.897,65.892-22.45,126.351-71.366,172.203c-27.358,25.649-61.801,44.217-97.359,55.727
		c-83.729,27.091-234.787,31.115-325.129,28.379c-113.715-3.441-257.067-6.987-339.781-95.415
		c-32.459-34.704-52.346-80.143-58.675-127.118c-8.185-60.755-4.342-144.353-5.658-207.741L52.92,590.35
		c-1.186-67.621-0.061-136.101-4.356-203.552c-3.154-49.544-26.196-99.487-35.639-148.62
		C-13.976,98.195-26.046-39.194-21.47-181.791c1.584-105.175,17.589-212.479,39.008-315.294
		c9.284-44.561,65.409-285.244,94.109-301.179c3.361-1.865,3.954-0.917,7.449-0.088c2.111,8.098-46.172,134.951-53.097,157.429
		c-11.16,36.973-21.189,74.249-30.085,111.83c-8.897,37.583-16.644,75.4-23.243,113.454
		c-46.225,267.795-43.467,667.824,118.116,896.191c71.386,100.887,175.413,173.466,298.42,194.221
		c119.817,20.213,244.138-2.288,343.583-73.743C926.455,490.63,987.419,307.28,1016.423,128.027
		c42.725-264.095,12.27-549.516-70.056-803.183c-10.709-32.981-28.92-97.492-48.275-124.358c2.455-0.393,4.992-0.845,7.474-0.904
		c4.35-0.103,8.394-0.24,11.491,3.203c12.912,14.348,40.521,120.109,49.139,146.269
		C1043.001-417.765,1067.71-110.744,1029.112,131.525z"/>
	<path style="fill:#262425;" d="M106.103,265.582c8.952,14.611,17.201,24.977,31.824,34.04
		c104.879,6.311,212.635-0.036,317.821,0.064l287.435,0.115c44.694,0.005,90.041,1.863,134.662,0.231
		c4.072-0.148,8.339-0.75,11.741-3.045c11.435-4.646,20.052-11.778,24.988-23.357c2.956-6.93,3.291-13.621,3.458-21.036
		c1.003-40.695-0.725-81.616-0.809-122.344c0.539-94.882,0.501-189.765-0.111-284.646l0.529-196.184
		c0.084-31.152,2.175-63.375,0.28-94.369c-0.196-3.403-1.422-6.683-2.733-9.803c-0.893-7.519-5.913-14.731-11.797-19.427
		c-9.147-7.306-21.892-10.271-33.327-11.264c-30.649-2.663-63.279-0.395-94.123-0.404l-191.939-0.056l-287.705-0.114
		c-52.748-0.022-105.976-1.518-158.671,0.635c-12.72,6.381-23.748,12.633-28.393,26.994c-9.203,28.443-1.54,131.882-1.601,168.783
		C107.314-104.81,110.471,80.89,106.103,265.582z M139.937-435.976c0.385-6.099,1.489-10.252,5.558-15.024
		c80.675-5.235,170.719-0.1,252.437-0.188c159.96-0.167,320.095-1.72,480.023,0.458c1.255,1.713,2.175,3.327,3.041,5.277
		c3.373,7.585,4.712,695.487,0.195,705.85c-1.617,3.69-7.111,4.727-10.848,6.191c-0.726,0.137-1.451,0.316-2.204,0.41
		c-22.701,2.892-48.748,0.502-71.813,0.502l-151.152,0.019c-153.029,0.061-306.77,3.274-459.718-0.139
		c-10.556-0.235-33.581,1.5-41.607-4.519c-2.873-4.085-4.016-7.359-4.381-12.357c-3.205-43.98-0.873-89.611-0.475-133.73
		l0.372-190.306l0.264-238.094C139.631-352.634,137.358-395.095,139.937-435.976z"/>
	<path style="fill:#262425;" d="M624.577,536.693c19.859-31.204,24.121-70.859,16.05-106.581
		c-7.839-34.697-31.274-66.171-61.586-84.614c-26.659-16.217-53.484-19.235-83.866-17.684c-39.995,8.286-73.23,24.941-96.319,60.075
		c-1.272,1.937-2.495,3.905-3.67,5.904c-1.177,1.998-2.303,4.024-3.377,6.077c-1.077,2.054-2.102,4.132-3.076,6.236
		c-0.974,2.104-1.896,4.232-2.763,6.381c-0.87,2.15-1.686,4.318-2.449,6.506c-0.763,2.191-1.471,4.398-2.126,6.621
		c-0.652,2.224-1.251,4.462-1.796,6.715c-0.545,2.254-1.033,4.519-1.464,6.797c-0.433,2.277-0.81,4.565-1.129,6.861
		c-0.32,2.296-0.584,4.598-0.792,6.908c-0.206,2.309-0.356,4.621-0.449,6.938s-0.129,4.634-0.108,6.953
		c0.02,2.319,0.097,4.635,0.231,6.95c0.134,2.315,0.325,4.624,0.574,6.928c0.248,2.305,0.551,4.603,0.912,6.893
		c0.362,2.289,0.78,4.568,1.252,6.838c0.467,2.156,0.986,4.301,1.559,6.434c0.574,2.133,1.2,4.249,1.877,6.35
		c0.678,2.101,1.408,4.183,2.189,6.247c0.781,2.066,1.612,4.11,2.493,6.133c0.884,2.023,1.815,4.023,2.795,6.002
		c0.982,1.978,2.011,3.93,3.087,5.856c1.078,1.926,2.204,3.825,3.374,5.695c1.172,1.873,2.389,3.712,3.651,5.522
		c1.263,1.811,2.57,3.589,3.922,5.334c1.35,1.747,2.742,3.458,4.177,5.135c1.436,1.679,2.912,3.32,4.429,4.922
		c1.515,1.604,3.07,3.17,4.663,4.696c1.595,1.526,3.226,3.013,4.891,4.46c1.668,1.446,3.37,2.851,5.107,4.214
		c1.736,1.361,3.507,2.679,5.31,3.954c1.801,1.273,3.634,2.503,5.497,3.687c1.651,1.017,3.322,2,5.014,2.947
		c1.692,0.947,3.403,1.858,5.134,2.733c1.731,0.876,3.48,1.715,5.246,2.516c1.766,0.801,3.548,1.564,5.346,2.289
		c1.798,0.727,3.611,1.415,5.438,2.064c1.826,0.651,3.666,1.262,5.519,1.835c1.852,0.571,3.716,1.104,5.592,1.598
		c1.876,0.493,3.761,0.947,5.655,1.361c1.895,0.415,3.797,0.789,5.706,1.121c1.91,0.334,3.826,0.628,5.751,0.881
		c1.922,0.253,3.849,0.465,5.779,0.638c1.932,0.171,3.866,0.302,5.803,0.393c1.937,0.09,3.875,0.139,5.815,0.148
		c1.939,0.008,3.878-0.024,5.814-0.097c1.938-0.073,3.873-0.188,5.806-0.343c1.934-0.154,3.862-0.35,5.787-0.586
		C567.997,589.748,601.226,573.384,624.577,536.693z M602.157,511.837c-0.792,1.537-1.621,3.055-2.487,4.554
		s-1.768,2.975-2.705,4.429c-0.939,1.454-1.912,2.883-2.92,4.289c-18.055,24.994-43.02,36.536-72.763,41.224
		c-26.873,0.737-51.016-3.45-73.151-19.625c-1.335-0.982-2.644-1.997-3.927-3.045c-1.285-1.047-2.541-2.125-3.771-3.235
		c-1.23-1.11-2.434-2.249-3.609-3.418c-1.173-1.17-2.317-2.367-3.433-3.593c-1.114-1.227-2.198-2.48-3.252-3.76
		c-1.052-1.278-2.072-2.584-3.059-3.915c-0.989-1.33-1.944-2.683-2.864-4.06c-0.92-1.377-1.806-2.778-2.658-4.2
		c-0.853-1.42-1.669-2.862-2.449-4.326c-0.781-1.462-1.524-2.941-2.231-4.439c-0.708-1.499-1.377-3.014-2.008-4.546
		c-0.632-1.532-1.226-3.079-1.782-4.641c-0.556-1.561-1.073-3.135-1.551-4.721c-0.476-1.587-0.914-3.185-1.313-4.794
		c-0.398-1.609-0.756-3.226-1.074-4.853c-0.318-1.627-0.597-3.26-0.834-4.9c-0.242-1.765-0.44-3.533-0.594-5.307
		s-0.265-3.551-0.332-5.33c-0.069-1.779-0.093-3.559-0.073-5.341c0.018-1.781,0.081-3.56,0.186-5.337
		c0.108-1.777,0.259-3.551,0.452-5.322c0.192-1.77,0.428-3.534,0.709-5.293c0.278-1.758,0.6-3.509,0.965-5.251
		c0.366-1.742,0.775-3.475,1.224-5.199c0.45-1.723,0.942-3.434,1.476-5.131c0.534-1.699,1.109-3.384,1.724-5.056
		c0.617-1.67,1.273-3.324,1.969-4.964c0.697-1.638,1.434-3.258,2.211-4.861c0.775-1.603,1.589-3.185,2.443-4.747
		c0.855-1.563,1.747-3.105,2.674-4.623c0.93-1.519,1.896-3.014,2.898-4.485c1.002-1.473,2.04-2.919,3.113-4.339
		c18.676-24.327,44.063-35.767,73.898-39.404c22.751-1.818,48.005,4.968,66.768,17.986c1.406,0.987,2.785,2.008,4.138,3.065
		c1.356,1.056,2.684,2.146,3.983,3.268c1.299,1.123,2.57,2.278,3.812,3.464c1.242,1.186,2.454,2.403,3.634,3.651
		c1.181,1.246,2.33,2.521,3.447,3.826c1.117,1.303,2.201,2.634,3.251,3.993c1.051,1.359,2.067,2.743,3.049,4.153
		c0.982,1.409,1.927,2.841,2.836,4.297c0.91,1.457,1.784,2.937,2.618,4.437c0.837,1.5,1.635,3.02,2.393,4.56
		c0.76,1.541,1.482,3.1,2.164,4.677c0.68,1.576,1.322,3.169,1.925,4.777c0.602,1.608,1.164,3.23,1.687,4.867
		c0.521,1.638,1,3.287,1.439,4.947c0.439,1.661,0.835,3.331,1.188,5.012c0.355,1.681,0.668,3.369,0.94,5.065
		c0.277,1.708,0.513,3.422,0.706,5.142c0.195,1.718,0.347,3.441,0.455,5.168c0.11,1.727,0.177,3.456,0.201,5.187
		c0.025,1.728,0.008,3.458-0.053,5.187c-0.059,1.729-0.162,3.456-0.306,5.181c-0.144,1.724-0.329,3.444-0.558,5.16
		c-0.229,1.714-0.499,3.423-0.812,5.125c-0.312,1.702-0.666,3.394-1.062,5.079c-0.396,1.684-0.832,3.359-1.308,5.023
		c-0.478,1.662-0.996,3.312-1.553,4.95c-0.558,1.638-1.156,3.261-1.794,4.87c-0.637,1.61-1.315,3.203-2.03,4.777
		C603.701,508.74,602.947,510.297,602.157,511.837z"/>
	<path style="fill:#262425;" d="M898.901,327.609c-17.625-9.044-52.011-4.427-71.31-3.982c-28,0.237-91.764-5.464-114.284,6.757
		c-2.379,3.177-3.662,5.698-4.563,9.566c-4.32,18.554-5.137,37.889-8.065,56.694c-5.642,36.202-19.837,75.388-38.305,107.064
		c-12.296,21.092-27.152,41.889-43.829,59.751c-14.284,15.299-55.135,37.122-58.998,55.67c2.144,5.497,2.83,8.534,8.955,10.676
		c13.277,4.643,39.799-6.169,53.186-9.992c3.376-0.99,6.74-2.02,10.09-3.09c3.35-1.072,6.686-2.187,10.009-3.341
		c3.322-1.157,6.63-2.353,9.923-3.59c3.293-1.238,6.57-2.516,9.831-3.835c3.261-1.32,6.504-2.68,9.73-4.08
		c3.228-1.4,6.437-2.84,9.627-4.32c3.192-1.48,6.365-2.999,9.518-4.557c3.153-1.558,6.287-3.156,9.401-4.794
		c3.112-1.636,6.205-3.311,9.279-5.025c3.071-1.715,6.122-3.467,9.15-5.257c3.029-1.789,6.034-3.616,9.016-5.481
		c2.982-1.864,5.941-3.767,8.876-5.706c2.937-1.937,5.848-3.911,8.735-5.923c2.885-2.01,5.746-4.056,8.581-6.138
		c2.835-2.083,5.645-4.199,8.431-6.351c2.789-2.153,5.54-4.339,8.255-6.559c2.732-2.22,5.438-4.474,8.116-6.763
		c2.676-2.289,5.316-4.609,7.92-6.961c2.621-2.353,5.206-4.74,7.753-7.159c2.566-2.417,5.094-4.867,7.586-7.349
		c2.491-2.48,4.954-4.992,7.39-7.536c2.435-2.541,4.834-5.113,7.195-7.714c2.362-2.603,4.695-5.235,7.001-7.895
		c2.305-2.661,4.573-5.349,6.805-8.065c2.231-2.716,4.434-5.46,6.609-8.23c2.157-2.772,4.285-5.57,6.386-8.394
		c2.101-2.825,4.165-5.675,6.191-8.551c2.026-2.876,4.016-5.777,5.969-8.701c1.951-2.926,3.866-5.875,5.745-8.849
		c1.896-2.973,3.746-5.969,5.55-8.988c1.804-3.02,3.57-6.061,5.298-9.123c1.73-3.064,3.421-6.148,5.077-9.253
		c7.39-13.783,34.079-60.298,30.286-75.014C905.789,332.545,903.224,329.831,898.901,327.609z M850.068,389.055
		c-0.725,7.635-7.809,17.475-11.769,24.101c-28.417,47.761-66.374,86.683-110.538,119.979
		c-12.576,8.569-25.495,16.584-38.759,24.042c-13.265,7.457-26.827,14.332-40.684,20.621
		c45.799-61.625,74.789-116.484,85.317-193.356l116.461-0.047C850.264,386.654,850.32,386.439,850.068,389.055z"/>
	<path style="fill:#262425;" d="M417.556,579.415c-39.007-27.291-65.912-75.65-81.24-119.671
		c-8.193-23.541-14.644-48.797-17.438-73.589c-1.478-13.116-1.149-27.139-3.687-40.015c-0.756-3.835-2.214-7.399-4.515-10.567
		c-6.018-8.288-18.103-10.277-27.684-10.899c-42.955-2.786-106.213-0.931-149.471,1.197c-7.277,2.217-11.688,3.545-16.401,10.025
		c-4.945,15.222,4.925,33.662,11.716,47.048c54.463,107.351,138.256,193.598,254.791,231.206
		c20.016,6.415,40.335,11.656,60.956,15.727c8.459-0.932,9.844-1.651,16.647-6.816c2.501-6.236,2.705-6.456,0.672-12.817
		C450.246,597.147,431.879,589.439,417.556,579.415z M358.203,569.518c-86.116-41.498-145.546-101.843-192.118-184.939
		c39.772,2.189,79.948,0.934,119.745-0.07c15.325,68.38,29.325,127.821,75.201,183.188L358.203,569.518z"/>
	<path style="fill:#262425;" d="M328.507-585.04c45.23,5.625,117.748,0.646,165.384,0.68l130.437,0.235
		c24.269,0.027,50.687,2.353,74.509-2.017c10.528-6.331,19.693-11.903,23.293-24.554c3.221-11.319,1.316-22.326-4.758-32.228
		c-4.437-7.231-11.474-13.718-19.918-15.559c-30.585-6.665-99.21-1.876-134.338-1.833c-80.4,0.098-162.205-3.042-242.448,1.161
		c-11.917,8.238-19.023,16.066-21.756,30.691c-1.788,9.577-0.675,20.37,5.182,28.442
		C309.811-592.138,318.791-586.251,328.507-585.04z M538.332-627.037c42.951,0.039,99.124-4.273,140.547,1.373
		c6.866,0.933,6.984,1.69,11.158,7.24c-18.423,4.643-341.402,3.488-355.159-0.798l-3.226-6.636
		C396.109-631.349,472.546-627.099,538.332-627.037z"/>
	<path style="fill:#262425;" d="M145.978,857.173c34.792,12.271,135.419,29.551,170.722,20.813
		c15.517-6.512,28.848-13.59,35.597-29.924c8.823-21.357,8.087-90.501-1.029-111.732c-7.764-18.086-22.207-27.281-40.142-34.01
		c-33.294-12.493-146.922-30.44-182.527-28.061c-18.543,8.38-28,14.736-35.483,34.174c-11.476,29.821-8.559,77.622,4.669,106.205
		C107.687,836.037,123.904,849.387,145.978,857.173z M134.282,706.436c28.117,1.046,157.882,15.935,178.201,33.196
		c8.397,7.134,11.094,19.154,11.523,29.645c1.149,28.16,5.879,57.021-14.468,79.195c-35.742,1.986-140.801-9.527-167.004-31.282
		c-13.827-11.476-20.908-28.07-22.241-45.748C118.574,748.626,118.726,724.477,134.282,706.436z"/>
	<path style="fill:#262425;" d="M543.541,896.12c3.925-0.159,7.846-0.368,11.764-0.631c25.682-0.8,57.042,0.645,76.397-19.486
		c21.154-22.004,18.072-64.182,17.062-92.595c-0.661-18.565-5.349-37.775-19.254-50.977
		c-28.477-27.044-121.353-17.81-160.735-17.269c-26.366,0.312-57.896-1.947-78.197,18.364
		c-21.013,21.025-18.286,64.066-17.711,91.776c0.384,18.624,4.347,37.984,18.373,51.317
		C419.132,903.139,504.657,897.703,543.541,896.12z M418.083,754.836c14.226-13.071,56.755-7.499,74.866-7.351
		c27.454,0.323,92.163-9.825,112.394,10.388c9.22,9.215,11.188,22.646,11.652,35.073c0.652,17.611,1.924,46.381-11.529,59.527
		c-16.312,15.944-59.159,10.977-81.186,11.468c-25.97-0.03-84.703,7.382-105.036-10.539c-11.515-10.154-12.469-26.815-12.65-41.051
		C406.375,795.292,404.61,767.214,418.083,754.836z"/>
	<path style="fill:#262425;" d="M144.679,1057.457c40.569,13.409,122.586,23.217,165.646,20.484
		c16.691-5.759,31.082-11.565,39.345-28.201c10.734-21.601,10.079-89.109,2.423-111.749c-5.449-16.105-16.688-27.897-32.029-34.975
		c-8.484-3.915-17.617-6.344-26.778-8.049c-20.805-3.867-42.051-4.088-62.95-7.184c-31.425-4.657-63.669-14.468-95.485-14.641
		c-19.24,8.863-30.019,19.492-37.315,39.683c-10.938,30.275-10.093,79.099,3.988,107.922
		C110.755,1039.642,124.911,1050.925,144.679,1057.457z M138.682,906.608c2.417-0.115,4.835-0.137,7.254-0.067
		c22.127,0.809,159.318,21.541,168.992,32.638c12.578,14.421,10.623,61.937,8.76,81.127c-1.091,11.217-5.492,16.803-13.878,23.613
		c-2.998,0.784-5.984,1.42-9.061,1.796c-30.234,3.692-137.439-10.057-160.852-28.837c-9.781-7.842-13.234-21.454-14.327-33.39
		C123.157,957.109,120.719,927.751,138.682,906.608z"/>
	<path style="fill:#262425;" d="M911.116,681.961c-12.884-10.608-26.661-10.591-42.418-8.907
		c-43.646,8.868-121.945,16.544-159.806,32.024c-12.471,5.098-24.916,13.571-32.484,24.922
		c-15.707,23.549-14.755,82.675-9.024,109.933c2.636,12.536,8.391,21.945,19.341,28.767c11.827,7.368,25.593,9.716,39.185,11.468
		c46.908-3.539,149.538-10.402,180.299-46.119c23.956-27.769,28.697-72.477,25.573-108.015
		C930.275,709.231,924.447,692.949,911.116,681.961z M882.056,810.387c-26.969,29.992-120.395,34.936-160.512,36.808
		c-4.518-0.804-9.725-1.914-13.637-4.387c-4.766-3.012-7.05-9.214-8.369-14.454c-5.305-21.081-6.105-62.155,6.213-80.84
		c14.588-22.124,138.069-35.837,168.635-42.218c6.722-0.988,12.299-1.238,17.738,3.257c5.382,4.454,6.861,12.458,7.25,19.128
		C900.909,753.582,900.407,789.951,882.056,810.387z"/>
	<path style="fill:#262425;" d="M618.996,928.688c-32.521-15.882-158.749-10.732-200.2-8.545
		c-16.253,5.982-30.596,11.768-38.118,28.474c-10.335,22.955-9.457,86.898-0.56,110.042c5,13.01,14.307,22.311,27.027,27.872
		c37.887,16.562,155.946,10.575,198.507,3.703c15.447-5.029,25.881-9.995,33.634-24.983c13.525-26.142,14.842-76.927,5.762-104.902
		C640.56,946.531,632.213,935.144,618.996,928.688z M610.075,1048.393c-4.116,8.197-11.016,9.8-19.123,12.162
		c-30.875,2.279-149.655,9.728-172.021-5.594c-6.194-4.244-9.011-13.481-10.447-20.528c-3.706-18.183-5.441-56.619,5.985-72.518
		c5.307-7.388,12.717-7.825,21.028-9.027c35.307-1.749,139.063-6.365,166.5,5.12c4.568,1.913,8.046,7.226,9.786,11.721
		C618.879,988.07,619.119,1030.371,610.075,1048.393z"/>
	<path style="fill:#262425;" d="M903.559,885.346c-15.005-12.089-30.008-11.304-48.135-9.142
		c-34.833,7.644-117.993,13.615-143.452,23.903c-13.638,5.514-25.242,14.63-33.21,27.049
		c-15.941,24.851-18.602,73.575-11.571,102.242c3.846,15.673,12.67,29.576,26.751,37.908c11.978,7.087,25.691,8.238,39.297,7.736
		c43.261-3.734,149.348-8.866,177.348-42.535c20.721-24.899,20.721-64.456,17.319-95.247
		C925.73,917.412,919.567,898.264,903.559,885.346z M887.997,1008.331c-21.224,25.554-119.558,32.13-153.495,33.795
		c-6.253,0.248-15.45,0.485-20.972-2.711c-8.738-5.056-11.892-15.765-13.749-25.044c-4.097-20.445-3.567-53.63,8.768-71.255
		c3.461-4.948,8.088-8.799,13.729-10.982c27.364-10.595,101.687-18.198,134.762-23.619c7.085-0.638,21.056-3.115,27.024,1.587
		c7.558,5.96,9.956,15.272,11.044,24.469C897.339,954.013,900.909,992.761,887.997,1008.331z"/>
	<path style="fill:#262425;" d="M622.326,1126.291c-33.862-20.459-153.361-11.696-195.319-9.864
		c-15.712,2.426-28.524,6.42-38.436,19.619c-17.69,23.552-17.408,63.527-13.191,91.667c2.588,17.269,9.686,34.479,24.204,45.042
		c34.3,24.96,148.204,15.573,192.363,10.785c18.287-3.447,36.046-7.992,46.886-24.477c14.31-21.761,13.355-71.632,7.948-96.196
		C643.409,1147.55,636.005,1134.554,622.326,1126.291z M610.184,1237.652c-3.947,8.322-9.449,10.712-17.656,13.364
		c-35.644,6.035-130.588,11.969-165.398,0.17c-7.602-2.577-11.856-7.167-15.274-14.27c-8.302-17.244-8.344-56.943-0.617-74.892
		c3.654-8.489,10.258-10.48,18.273-13.426c38.648-1.629,134.899-7.429,167.54,3.402c6.813,2.262,12.067,5.238,15.037,12.073
		C619.526,1181.2,618.344,1220.442,610.184,1237.652z"/>
	<path style="fill:#262425;" d="M327.166,1103.715c-16.17-7.611-167.872-31.428-186.205-30.128
		c-16.3,6.986-27.62,13.523-34.612,30.551c-11.367,27.68-12.268,68.19-0.203,95.44c12.677,28.646,39.864,45.564,68.204,56.136
		c40.291,15.029,98.756,26.483,141.38,18.295c15.791-4.99,26.026-10.901,33.726-26.064c13.939-27.459,15.096-85.263,5.037-114.225
		C349.486,1119.305,340.916,1110.185,327.166,1103.715z M326.179,1216.73c-1.157,12.595-6.071,18.491-15.207,26.327
		c-10.383,1.905-21.315,1.653-31.843,1.199c-41.484-1.794-103.257-10.107-132.202-42.661c-16.588-18.66-16.577-40.611-15.094-64.059
		c0.968-15.336,3.985-22.175,15.642-32.371c18.925,1.104,38.81,5.868,57.701,8.598c29.958,4.334,63.056,6.295,92.116,14.46
		c7.028,1.975,17.687,5.514,22.283,11.507C329.877,1153.164,327.716,1199.969,326.179,1216.73z"/>
	<path style="fill:#262425;" d="M899.85,1086.67c-17.738-14.934-33.522-14.056-55.554-12.165
		c-46.266,9.485-140.761,9.909-167.021,49.806c-14.304,21.733-16.243,82.717-10.659,108.888c0.35,1.63,0.78,3.24,1.292,4.827
		c0.509,1.588,1.097,3.146,1.762,4.674c0.666,1.529,1.405,3.021,2.22,4.476c0.814,1.454,1.699,2.864,2.654,4.23
		c0.956,1.367,1.977,2.684,3.062,3.95c1.088,1.264,2.234,2.472,3.441,3.622c1.207,1.149,2.468,2.236,3.785,3.26
		c1.314,1.024,2.677,1.981,4.088,2.87c16.285,10.028,36.629,10.463,55.195,11.166c52.659-3.503,114.208-11.186,151.44-53.172
		c1.264-1.419,2.481-2.867,3.653-4.345c1.19-1.479,2.334-2.987,3.43-4.523c1.115-1.537,2.184-3.101,3.206-4.69
		c1.023-1.59,2.008-3.204,2.957-4.844c0.948-1.64,1.859-3.303,2.733-4.989c0.855-1.684,1.673-3.39,2.454-5.118
		c0.781-1.725,1.515-3.47,2.203-5.235c0.689-1.763,1.339-3.542,1.952-5.337c0.594-1.796,1.152-3.606,1.673-5.43
		c0.502-1.824,0.967-3.659,1.394-5.505c0.409-1.848,0.782-3.705,1.116-5.569c0.316-1.867,0.596-3.74,0.836-5.62
		c0.224-1.88,0.409-3.764,0.558-5.653c0.131-1.89,0.214-3.78,0.251-5.673c0.057-1.895,0.057-3.788,0-5.681
		c-0.056-1.893-0.157-3.783-0.306-5.672C922.16,1119.617,915.244,1099.655,899.85,1086.67z M873.578,1199.562
		c-32.099,38.092-90.163,41.037-136.185,44.783c-8.363-0.279-18.88-0.201-25.97-5.21c-7.582-5.357-11.132-16.518-12.683-25.339
		c-3.537-20.135-2.834-59.921,9.78-76.774c11.312-15.11,118.652-25.638,143.332-30.193c8.924-0.87,19.327-2.741,27.108,2.853
		c8.478,6.091,10.151,23.588,11.072,33.213C891.984,1163.276,886.909,1183.758,873.578,1199.562z"/>
</g>
</svg>
