<?xml version="1.0" encoding="utf-8"?>
<!-- Generator: Adobe Illustrator 27.5.0, SVG Export Plug-In . SVG Version: 6.00 Build 0)  -->
<svg version="1.1" id="Layer_1" xmlns="http://www.w3.org/2000/svg" xmlns:xlink="http://www.w3.org/1999/xlink" x="0px" y="0px"
	 viewBox="0 0 141.679 199.517" style="enable-background:new 0 0 141.679 199.517;" xml:space="preserve">
<g>
	<g>
		<g>
			<g>
				<defs>
					<path id="SVGID_1_" d="M62.176,65.586c0,0,1.545-4.974,4.779-6.621c2.067-3.919,1.055-11.186-3.715-11.874
						c-4.77-0.693-11.712,6.519-9.229,16.329c-1.322,0.266-1.74,1.746-1.74,1.746s3.758-1.221,6.465,5.303
						C59.797,67.292,62.176,65.586,62.176,65.586z"/>
				</defs>
				<clipPath id="SVGID_00000106861712904263511580000012668533503859180210_">
					<use xlink:href="#SVGID_1_"  style="overflow:visible;"/>
				</clipPath>
			</g>
		</g>
		<g>
			<g>
				<g>
					<path style="fill:#FFFFFF;" d="M16.005,98.321c0,0-11.677-10.771,3.896-36.851c-1.935,0.602-3.988,3.981-3.988,3.981
						s0.121-0.844,1.212-2.414c-7.006,7.01-14.79,24.148-4.648,41.168C14.288,101.493,16.005,98.321,16.005,98.321z"/>
					<path d="M12.477,104.58c-0.003,0-0.007,0-0.01,0c-0.129-0.004-0.246-0.072-0.313-0.183
						c-10.111-16.969-2.726-34.19,4.705-41.625c0.138-0.137,0.358-0.146,0.506-0.023c0.027,0.022,0.05,0.048,0.069,0.076
						c0.7-0.755,1.529-1.457,2.355-1.714c0.151-0.042,0.311,0.005,0.406,0.126c0.096,0.122,0.106,0.291,0.027,0.425
						c-7.963,13.335-8.61,22.525-7.751,27.888c0.927,5.782,3.759,8.47,3.787,8.496c0.125,0.116,0.156,0.304,0.075,0.454
						c-0.018,0.031-1.746,3.218-3.547,5.913C12.719,104.518,12.602,104.58,12.477,104.58z M15.549,65.357
						c-6.453,7.984-11.683,23.117-3.054,38.138c1.375-2.111,2.648-4.385,3.049-5.113c-1.482-1.637-10.042-12.647,3.325-35.893
						c-1.391,1.124-2.62,3.131-2.636,3.156c-0.092,0.153-0.276,0.223-0.447,0.158c-0.167-0.06-0.269-0.229-0.244-0.406
						C15.542,65.394,15.545,65.38,15.549,65.357z"/>
				</g>
			</g>
			<g>
				<path style="fill:#FFFFFF;" d="M91.794,78.315c0,0-5.129,10.067-2.135,23.093c2.64,11.449-0.223,22.846-2.761,28.513
					c-2.527,5.677-6.997,21.005-8.804,28.847c-1.813,7.848-4.23,16.187,0.837,24.27c1.574-1.566,4.227,0.363,4.227,0.363
					c1.085-1.086,4.472,1.688,4.227,4.703c-0.239,3.025-1.328,3.988-3.259,3.269c-1.21,0.838-3.744,0.356-3.744,0.356
					s-2.054,0.844-5.914,0.244c-3.863-0.6-3.499-3.383-3.138-7.609c0.358-4.223-0.726-4.339-2.052-7.001
					c-1.329-2.657-0.124-5.427-0.124-8.933c0-3.498,1.085-18.833-1.081-25.352c-2.902,1.087-10.14,0.121-10.14,0.121
					s-1.941,5.554-0.368,13.4c1.569,7.841,2.643,12.801,3.085,18.453c0.507,5.1,2.182,6.898,3.362,8.014
					c1.178,1.115,1.506,1.681,1.506,1.681s0.849-1.511,1.63-1.347c0.78,0.171,3.247,2.467,3.191,5.771
					c-0.057,3.306-2.187,4.873-4.204,3.594c-0.837,1.002-3.637,1.11-4.59,0.385c-1.177,1.118-5.599,0.726-6.55-3.643
					c-0.959-4.37,1.113-5.883,0.388-8.063c-0.725-2.195-7.686-17.029-11.582-24.275c0,0-4.076,6.162-4.612,8.602
					c-0.546,2.451,2.007,6.969,3.941,9.781c1.729,2.225,3.183,3.832,4.557,3.792c1.369-0.048,4.388,0.72,4.588,2.37
					c0.197,1.654-0.844,3.748-2.657,3.226c-0.97,0.886-2.456,0.851-2.937,0.237c-1.452,0.73-6.047,1.334-7.615-0.156
					c-1.574-1.486,0.561-3.063-1.574-7.168c-2.128-4.111-5.01-7.551-6.863-10.63c-1.854-3.077-2.079-4.118-0.945-5.659
					c1.131-1.535,1.398-4.664,0.451-7.788c0,0-3.654,7.394-7.459,11.347c-1.748,2.28-1.829,9.205,1.45,14.609
					c0.909,0.53,1.445,1.899,1.445,1.899s0.909-1.899,2.887-0.534c0.907-0.988,3.044-0.152,3.044,2.438
					c0,2.581-2.278,3.719-3.203,3.113c-0.678,1.297-2.651,1.145-3.264,0.682c-0.685,1.448-7.986,1.222-7.758-2.659
					c0.229-3.874-0.229-6.011-1.977-10.114c-1.757-4.111-2.967-9.434-2.891-12.401c0.076-2.965,1.771-3.298,2.431-3.651
					c0.981-0.515,1.706-5.859-1.729-12.46c-3.44-6.615-11-21.991-6.974-32.058c3.141-7.852,9.326-16.504,12.83-19.517
					c3.504-3.024,7.845-3.385,12.309-2.778c4.474,0.602,19.409,0.567,19.409-16.943c0,0,11.952,8.814,18.948,10.992
					C76.636,87.906,91.794,78.315,91.794,78.315z"/>
				<path d="M59.809,194.058c-2.093,0-4.507-1.382-5.179-4.47c-0.557-2.538-0.125-4.154,0.222-5.452
					c0.257-0.962,0.46-1.721,0.177-2.572c-0.694-2.104-7.343-16.284-11.258-23.656c-0.988,1.538-3.79,6.011-4.215,7.944
					c-0.477,2.141,1.694,6.305,3.884,9.488c1.737,2.234,3.052,3.631,4.197,3.631l0.175-0.003c1.524,0,4.607,0.815,4.836,2.702
					c0.128,1.071-0.206,2.232-0.852,2.959c-0.555,0.625-1.29,0.881-2.081,0.721c-0.918,0.727-2.396,0.835-3.111,0.275
					c-0.979,0.406-2.65,0.691-4.128,0.691c-1.183,0-2.778-0.177-3.668-1.023c-0.843-0.796-0.782-1.635-0.713-2.607
					c0.081-1.119,0.182-2.512-0.935-4.659c-1.291-2.494-2.899-4.794-4.319-6.822c-0.929-1.327-1.807-2.581-2.532-3.787
					c-1.853-3.074-2.223-4.313-0.926-6.075c0.988-1.342,1.224-3.929,0.641-6.522c-1.094,2.088-4.011,7.379-7.076,10.563
					c-1.551,2.027-1.777,8.687,1.454,14.078c0.563,0.362,0.98,0.981,1.234,1.441c0.306-0.327,0.791-0.674,1.476-0.674
					c0.421,0,0.86,0.135,1.312,0.401c0.278-0.202,0.618-0.311,0.982-0.311c1.199,0,2.473,1.127,2.473,3.216
					c-0.001,2.685-2.198,3.946-3.436,3.586c-0.447,0.588-1.196,0.919-2.108,0.919c-0.439,0-0.867-0.083-1.197-0.226
					c-0.683,0.654-2.215,0.711-2.721,0.711c-1.529,0-3.566-0.427-4.696-1.625c-0.593-0.628-0.867-1.386-0.816-2.252
					c0.222-3.748-0.179-5.793-1.948-9.944c-1.744-4.082-3-9.48-2.921-12.559c0.073-2.83,1.561-3.491,2.361-3.847
					c0.101-0.045,0.191-0.085,0.268-0.126c0.731-0.383,1.481-5.488-1.885-11.956c-2.787-5.359-11.269-21.669-6.989-32.37
					c3.069-7.672,9.279-16.52,12.935-19.661c2.43-2.097,5.427-3.116,9.161-3.116c1.076,0,2.202,0.082,3.443,0.251
					c0.568,0.076,1.497,0.167,2.689,0.167c14.707,0,16.295-11.706,16.295-16.739c0-0.142,0.08-0.271,0.206-0.335
					c0.128-0.063,0.278-0.051,0.392,0.033c0.119,0.088,11.981,8.802,18.837,10.936c0.646,0.2,1.402,0.302,2.247,0.302
					c7.368,0.001,19.479-7.608,19.601-7.685c0.142-0.091,0.328-0.074,0.452,0.039c0.125,0.114,0.159,0.297,0.082,0.447
					c-0.051,0.1-5.03,10.107-2.104,22.839c2.531,10.98,0.083,22.35-2.784,28.75c-2.585,5.807-7.039,21.221-8.78,28.777l-0.341,1.46
					c-1.713,7.29-3.482,14.825,0.907,22.162c0.413-0.282,0.898-0.425,1.448-0.425c1.119,0,2.209,0.602,2.673,0.893
					c0.768-0.425,2.044,0.081,3.094,1.219c1.074,1.166,1.628,2.613,1.518,3.973c-0.075,0.949-0.304,3.841-2.534,3.841
					c-0.32,0-0.674-0.063-1.053-0.188c-0.53,0.303-1.271,0.456-2.204,0.456c-0.702,0-1.313-0.088-1.551-0.127
					c-0.337,0.117-1.452,0.447-3.29,0.447c-0.864,0-1.778-0.073-2.717-0.22c-4.091-0.635-3.838-3.567-3.486-7.627l0.032-0.385
					c0.258-3.033-0.237-3.825-1.059-5.136c-0.287-0.459-0.612-0.979-0.955-1.666c-0.928-1.854-0.687-3.772-0.431-5.802
					c0.132-1.047,0.268-2.13,0.268-3.298c0-0.65,0.037-1.707,0.084-3.039c0.204-5.791,0.581-16.461-1.033-21.838
					c-0.953,0.277-2.309,0.417-4.038,0.417c-2.34,0-4.748-0.26-5.593-0.359c-0.356,1.226-1.601,6.261-0.266,12.916l0.445,2.221
					c1.352,6.717,2.244,11.154,2.646,16.276c0.516,5.191,2.292,6.869,3.246,7.771c0.598,0.565,0.985,0.999,1.227,1.294
					c0.373-0.514,1.056-1.197,1.729-1.055c0.922,0.202,3.549,2.627,3.489,6.145c-0.045,2.595-1.346,4.407-3.163,4.407
					c-0.457,0-0.912-0.118-1.358-0.352c-0.668,0.556-1.8,0.761-2.706,0.761c-0.771,0-1.45-0.139-1.918-0.387
					C61.137,193.895,60.513,194.058,59.809,194.058z M43.802,156.795c0.006,0,0.012,0,0.017,0c0.132,0.007,0.251,0.081,0.313,0.197
					c3.878,7.212,10.89,22.159,11.608,24.336c0.354,1.063,0.114,1.961-0.164,3.001c-0.343,1.283-0.732,2.738-0.214,5.099
					c0.624,2.863,2.785,3.88,4.446,3.88c0.643,0,1.196-0.16,1.479-0.429c0.134-0.127,0.34-0.138,0.486-0.027
					c0.317,0.242,0.975,0.393,1.715,0.393c1.053,0,2.001-0.289,2.359-0.719c0.122-0.145,0.329-0.179,0.489-0.076
					c0.404,0.256,0.813,0.386,1.214,0.386c1.385,0,2.377-1.509,2.414-3.67c0.054-3.164-2.328-5.273-2.896-5.398h-0.003
					c-0.398,0-0.955,0.694-1.22,1.164c-0.066,0.117-0.19,0.19-0.325,0.191h-0.002c-0.134,0-0.257-0.071-0.324-0.187
					c-0.002-0.004-0.332-0.549-1.439-1.597c-1.024-0.968-2.934-2.77-3.478-8.249c-0.398-5.085-1.287-9.505-2.634-16.195
					l-0.446-2.222c-1.575-7.856,0.302-13.366,0.383-13.598c0.058-0.167,0.229-0.27,0.403-0.248c0.029,0.004,2.974,0.393,5.809,0.393
					c1.881,0,3.276-0.166,4.149-0.493c0.097-0.035,0.2-0.03,0.294,0.014c0.092,0.044,0.162,0.123,0.193,0.22
					c1.787,5.377,1.394,16.488,1.185,22.457c-0.047,1.321-0.084,2.368-0.084,3.013c0,1.215-0.14,2.321-0.273,3.392
					c-0.252,1.996-0.469,3.721,0.357,5.373c0.327,0.655,0.642,1.158,0.92,1.603c0.873,1.394,1.449,2.314,1.171,5.598l-0.033,0.386
					c-0.378,4.364-0.407,6.315,2.854,6.822c0.9,0.14,1.775,0.21,2.602,0.21c2.021,0,3.102-0.427,3.113-0.432
					c0.066-0.027,0.14-0.036,0.212-0.021c0.007,0.001,0.704,0.132,1.516,0.132c0.869,0,1.541-0.148,1.944-0.428
					c0.101-0.069,0.23-0.086,0.345-0.043c0.362,0.135,0.688,0.203,0.968,0.203c0.381,0,1.537,0,1.786-3.15
					c0.093-1.135-0.401-2.407-1.321-3.405c-0.829-0.899-1.895-1.378-2.266-1.004c-0.131,0.133-0.337,0.148-0.486,0.039
					c-0.012-0.01-1.263-0.905-2.463-0.905c-0.52,0-0.938,0.165-1.278,0.504c-0.08,0.081-0.183,0.118-0.308,0.107
					c-0.113-0.014-0.214-0.077-0.274-0.174c-4.838-7.717-3.002-15.535-1.226-23.097l0.341-1.456
					c1.747-7.586,6.224-23.069,8.826-28.915c2.819-6.295,5.228-17.477,2.738-28.276c-2.42-10.527,0.462-19.24,1.676-22.234
					c-3.122,1.863-12.586,7.176-18.976,7.176h-0.001c-0.92,0-1.75-0.112-2.469-0.335c-6.173-1.921-15.957-8.807-18.472-10.62
					C50.69,90.587,39.061,92.237,34.017,92.237c-1.232,0-2.197-0.095-2.789-0.174c-1.208-0.164-2.301-0.244-3.343-0.244
					c-3.547,0-6.384,0.96-8.672,2.935c-3.589,3.086-9.698,11.8-12.727,19.372c-2.756,6.889-0.415,17.569,6.958,31.745
					c3.507,6.74,2.812,12.314,1.569,12.965c-0.087,0.047-0.193,0.095-0.313,0.147c-0.739,0.329-1.856,0.825-1.916,3.182
					c-0.077,2.984,1.153,8.249,2.86,12.244c1.804,4.23,2.234,6.441,2.007,10.284c-0.038,0.651,0.168,1.221,0.613,1.692
					c0.967,1.026,2.84,1.39,4.15,1.39c1.296,0,2.143-0.312,2.281-0.605c0.048-0.103,0.14-0.177,0.249-0.204
					c0.11-0.026,0.225-0.003,0.316,0.065c0.164,0.124,0.57,0.259,1.071,0.259c0.363,0,1.249-0.08,1.634-0.816
					c0.049-0.094,0.135-0.162,0.237-0.189c0.104-0.026,0.212-0.009,0.3,0.05c0.099,0.063,0.233,0.098,0.391,0.098
					c0.912,0,2.233-1.032,2.233-2.897c0-1.7-1.007-2.466-1.723-2.466c-0.188,0-0.456,0.049-0.67,0.282
					c-0.127,0.139-0.338,0.161-0.489,0.055c-0.411-0.283-0.793-0.428-1.135-0.428c-0.791,0-1.186,0.783-1.201,0.817
					c-0.066,0.133-0.222,0.202-0.353,0.21c-0.148-0.007-0.28-0.099-0.334-0.237c-0.005-0.012-0.502-1.255-1.285-1.712
					c-0.055-0.032-0.1-0.076-0.132-0.13c-3.223-5.311-3.413-12.441-1.428-15.032c3.749-3.899,7.385-11.211,7.421-11.284
					c0.067-0.138,0.197-0.222,0.367-0.208c0.153,0.013,0.283,0.118,0.327,0.266c0.955,3.148,0.751,6.41-0.508,8.119
					c-0.949,1.29-0.937,2.089,0.965,5.243c0.713,1.184,1.583,2.427,2.504,3.744c1.434,2.048,3.058,4.368,4.371,6.906
					c1.214,2.335,1.101,3.909,1.018,5.06c-0.064,0.907-0.104,1.456,0.481,2.009c0.555,0.526,1.673,0.816,3.151,0.816
					c1.689,0,3.341-0.372,4.037-0.723c0.157-0.081,0.354-0.036,0.464,0.104c0.146,0.186,0.482,0.303,0.878,0.303
					c0.553,0,1.104-0.214,1.511-0.586c0.097-0.088,0.232-0.118,0.357-0.083c0.589,0.171,1.101,0.017,1.513-0.448
					c0.502-0.565,0.771-1.519,0.669-2.373c-0.16-1.32-2.787-2.041-4.092-2.041L47.7,179.72h-0.001c-1.521,0-2.928-1.443-4.864-3.937
					c-1.119-1.626-4.677-7.105-4.012-10.093c0.545-2.479,4.498-8.474,4.666-8.728C43.559,156.857,43.677,156.795,43.802,156.795z"/>
			</g>
			<g>
				<g>
					<g>
						<path d="M28.591,140.336c0,0,0.089,0.188,0.215,0.543c0.121,0.353,0.314,0.861,0.501,1.475
							c0.192,0.613,0.386,1.338,0.57,2.125c0.083,0.393,0.19,0.793,0.267,1.213c0.072,0.413,0.162,0.835,0.225,1.266
							c0.065,0.422,0.121,0.847,0.164,1.266c0.061,0.425,0.076,0.845,0.101,1.246c0.029,0.4,0.016,0.793,0.016,1.158
							c0.014,0.379-0.026,0.728-0.056,1.049c-0.012,0.325-0.072,0.619-0.124,0.875c-0.02,0.133-0.051,0.249-0.069,0.361
							c-0.022,0.117-0.059,0.209-0.09,0.301c-0.105,0.361-0.175,0.563-0.175,0.563s0.022-0.216,0.069-0.583
							c0.021-0.093,0.034-0.195,0.052-0.306c0.005-0.108,0.005-0.231,0.009-0.364c0.012-0.256,0.031-0.543,0.016-0.857
							c-0.004-0.322,0-0.66-0.033-1.027c-0.022-0.361-0.043-0.746-0.095-1.131c-0.031-0.402-0.085-0.805-0.144-1.222
							c-0.04-0.415-0.105-0.835-0.177-1.253c-0.124-0.837-0.288-1.672-0.418-2.455c-0.15-0.788-0.294-1.52-0.415-2.142
							C28.752,141.168,28.591,140.336,28.591,140.336z"/>
					</g>
				</g>
				<g>
					<g>
						<g>
							<path d="M39.149,129.034c0,0,0.004,0.116,0.022,0.337c0.018,0.209,0.054,0.531,0.058,0.941
								c0.014,0.401,0.036,0.897,0.036,1.466c0.014,0.572-0.009,1.205-0.04,1.903c-0.012,0.353-0.054,0.716-0.088,1.089
								c-0.036,0.377-0.052,0.767-0.107,1.164c-0.121,0.797-0.216,1.639-0.444,2.492c-0.103,0.424-0.205,0.855-0.306,1.293
								c-0.056,0.215-0.114,0.434-0.133,0.652c-0.04,0.216-0.09,0.428-0.107,0.645c-0.112,0.896-0.094,1.807-0.009,2.707
								c0.099,0.9,0.278,1.803,0.527,2.672c0.107,0.433,0.278,0.854,0.404,1.276c0.15,0.413,0.308,0.823,0.465,1.226
								c0.166,0.399,0.339,0.785,0.496,1.172c0.184,0.377,0.358,0.745,0.522,1.102c0.166,0.364,0.356,0.701,0.529,1.031
								c0.16,0.338,0.333,0.659,0.506,0.955c0.664,1.219,1.248,2.227,1.665,2.918c0.42,0.699,0.655,1.096,0.655,1.096
								s-0.267-0.37-0.747-1.041c-0.235-0.321-0.501-0.734-0.817-1.208c-0.152-0.237-0.323-0.491-0.5-0.752
								c-0.169-0.276-0.342-0.557-0.521-0.859c-0.184-0.29-0.372-0.606-0.55-0.935c-0.184-0.332-0.384-0.664-0.572-1.027
								c-0.184-0.35-0.368-0.721-0.567-1.094c-0.18-0.385-0.354-0.773-0.541-1.174c-0.166-0.408-0.332-0.816-0.496-1.234
								c-0.148-0.433-0.319-0.857-0.436-1.309c-0.126-0.451-0.249-0.9-0.337-1.361c-0.105-0.459-0.164-0.93-0.229-1.396
								c-0.083-0.941-0.093-1.895,0.029-2.824c0.071-0.457,0.144-0.94,0.271-1.359c0.107-0.44,0.225-0.865,0.332-1.287
								c0.235-0.821,0.368-1.649,0.514-2.436c0.072-0.386,0.104-0.768,0.162-1.14c0.04-0.366,0.101-0.727,0.121-1.077
								c0.056-0.686,0.112-1.316,0.143-1.884c0.04-0.564,0.056-1.06,0.066-1.461C39.153,129.496,39.149,129.034,39.149,129.034z"/>
						</g>
					</g>
					<g>
						<g>
							<path d="M11.899,126.164c0,0,0.112-0.068,0.346-0.131c0.231-0.054,0.584-0.104,1.042-0.049
								c0.451,0.045,0.982,0.215,1.542,0.488c0.572,0.287,1.165,0.678,1.748,1.197c0.593,0.496,1.165,1.111,1.751,1.777
								c0.568,0.671,1.172,1.369,1.798,2.08c0.629,0.723,1.298,1.451,1.973,2.191c0.681,0.738,1.383,1.468,2.099,2.189
								c0.717,0.729,1.438,1.44,2.166,2.128c0.746,0.662,1.471,1.326,2.223,1.908c0.745,0.572,1.486,1.119,2.242,1.512
								c0.193,0.09,0.393,0.191,0.586,0.281c0.193,0.076,0.384,0.157,0.568,0.233c0.377,0.143,0.752,0.271,1.113,0.38
								c1.459,0.428,2.727,0.637,3.57,0.994c0.413,0.178,0.703,0.401,0.862,0.576c0.083,0.088,0.117,0.182,0.159,0.231
								c0.029,0.045,0.05,0.071,0.05,0.071s-0.021-0.026-0.057-0.071c-0.04-0.045-0.08-0.126-0.173-0.202
								c-0.17-0.175-0.469-0.356-0.882-0.5c-0.42-0.155-0.947-0.268-1.56-0.375c-0.606-0.112-1.302-0.231-2.054-0.429
								c-0.373-0.099-0.757-0.209-1.154-0.346c-0.197-0.071-0.399-0.153-0.602-0.225c-0.199-0.087-0.392-0.173-0.595-0.263
								c-0.821-0.386-1.596-0.908-2.375-1.497c-0.77-0.577-1.526-1.222-2.278-1.899c-0.745-0.68-1.478-1.394-2.199-2.125
								c-0.716-0.733-1.419-1.475-2.095-2.22c-0.68-0.741-1.328-1.497-1.95-2.228c-0.617-0.729-1.196-1.456-1.742-2.147
								c-0.547-0.671-1.081-1.298-1.645-1.802c-1.098-1.031-2.243-1.659-3.116-1.808c-0.429-0.076-0.781-0.063-1.017-0.021
								C12.017,126.109,11.899,126.164,11.899,126.164z"/>
						</g>
					</g>
					<g>
						<g>
							<path d="M63.18,132.092c0,0-0.052,0.191-0.135,0.518c-0.099,0.321-0.247,0.775-0.438,1.334
								c-0.211,0.534-0.48,1.162-0.771,1.826c-0.147,0.333-0.343,0.66-0.522,0.992c-0.188,0.338-0.377,0.679-0.565,1.011
								l-0.148,0.263l-0.144,0.233c-0.097,0.163-0.2,0.327-0.29,0.491c-0.211,0.318-0.374,0.643-0.554,0.949
								c-0.173,0.311-0.326,0.627-0.479,0.914c-0.152,0.285-0.278,0.572-0.415,0.826c-0.494,1.032-0.786,1.75-0.786,1.75
								s0.117-0.763,0.499-1.867c0.099-0.275,0.195-0.584,0.334-0.879c0.133-0.307,0.256-0.639,0.425-0.964
								c0.168-0.323,0.32-0.68,0.516-0.997c0.095-0.161,0.193-0.332,0.29-0.495l0.147-0.261l0.14-0.24
								c0.193-0.332,0.382-0.662,0.577-0.99c0.175-0.327,0.388-0.633,0.55-0.951c0.152-0.323,0.318-0.629,0.471-0.922
								c0.153-0.293,0.308-0.561,0.434-0.82c0.251-0.514,0.469-0.947,0.631-1.243C63.092,132.269,63.18,132.092,63.18,132.092z"/>
						</g>
					</g>
					<g>
						<g>
							<path d="M88.259,111.901c0,0-0.036,0.152-0.104,0.435c-0.081,0.29-0.152,0.719-0.276,1.262
								c-0.104,0.541-0.273,1.186-0.393,1.949c-0.133,0.752-0.278,1.606-0.453,2.536c-0.093,0.458-0.164,0.949-0.225,1.454
								c-0.079,0.508-0.144,1.025-0.227,1.561c-0.153,1.07-0.311,2.203-0.474,3.369c-0.076,0.59-0.188,1.19-0.283,1.791
								c-0.05,0.303-0.121,0.605-0.182,0.902c-0.061,0.31-0.119,0.61-0.204,0.918c-0.083,0.303-0.159,0.607-0.245,0.914
								c-0.083,0.307-0.195,0.604-0.296,0.906c-0.175,0.61-0.46,1.188-0.7,1.775c-0.579,1.151-1.232,2.26-2.059,3.223
								c-0.193,0.236-0.399,0.483-0.593,0.721c-0.227,0.221-0.446,0.438-0.664,0.658c-0.22,0.213-0.418,0.438-0.66,0.635
								c-0.231,0.2-0.465,0.389-0.693,0.577c-0.235,0.19-0.456,0.394-0.691,0.567c-0.238,0.162-0.479,0.326-0.714,0.485
								c-0.48,0.325-0.939,0.649-1.421,0.907c-0.474,0.262-0.945,0.527-1.387,0.771c-0.461,0.225-0.909,0.439-1.334,0.648
								c-0.844,0.436-1.677,0.712-2.386,1.004c-0.714,0.294-1.354,0.494-1.874,0.666c-1.058,0.349-1.649,0.541-1.649,0.541
								s0.581-0.229,1.613-0.637c0.512-0.193,1.134-0.422,1.827-0.757c0.359-0.159,0.728-0.325,1.125-0.501
								c0.388-0.168,0.785-0.372,1.205-0.597c0.42-0.216,0.859-0.44,1.308-0.669c0.433-0.26,0.88-0.529,1.345-0.813
								c0.462-0.27,0.913-0.597,1.366-0.93c0.231-0.156,0.456-0.327,0.696-0.493c0.229-0.177,0.442-0.368,0.667-0.56
								c0.227-0.184,0.451-0.369,0.675-0.572c0.225-0.184,0.42-0.408,0.636-0.621c0.213-0.211,0.422-0.429,0.635-0.645
								c0.188-0.24,0.384-0.476,0.579-0.716c0.781-0.927,1.403-2.016,1.958-3.126c0.237-0.573,0.514-1.127,0.697-1.727
								c0.1-0.292,0.216-0.577,0.297-0.873c0.081-0.297,0.168-0.593,0.244-0.892c0.088-0.292,0.144-0.595,0.207-0.892
								c0.071-0.295,0.142-0.592,0.193-0.889c0.1-0.597,0.22-1.183,0.296-1.764c0.155-1.172,0.377-2.303,0.545-3.371
								c0.097-0.539,0.191-1.061,0.272-1.563c0.08-0.506,0.168-0.988,0.275-1.45c0.188-0.934,0.382-1.775,0.553-2.522
								c0.152-0.748,0.356-1.393,0.486-1.936c0.145-0.529,0.259-0.949,0.351-1.236C88.211,112.054,88.259,111.901,88.259,111.901z"
								/>
						</g>
					</g>
					<g>
						<g>
							<path d="M62.755,91.771c0,0,0.128,0.301,0.368,0.819c0.117,0.261,0.274,0.57,0.454,0.923
								c0.184,0.348,0.393,0.747,0.635,1.162c0.126,0.207,0.261,0.427,0.393,0.651c0.14,0.214,0.297,0.44,0.454,0.671
								c0.071,0.11,0.152,0.234,0.235,0.346c0.081,0.107,0.18,0.225,0.27,0.332c0.18,0.229,0.363,0.469,0.559,0.717
								c0.193,0.22,0.357,0.504,0.536,0.785c0.157,0.283,0.321,0.563,0.454,0.864c0.132,0.296,0.28,0.602,0.393,0.904
								c0.128,0.301,0.235,0.618,0.348,0.927c0.211,0.625,0.389,1.26,0.553,1.889c0.163,0.626,0.289,1.25,0.406,1.855
								c0.119,0.6,0.211,1.188,0.282,1.749c0.081,0.552,0.133,1.087,0.173,1.571c0.095,0.982,0.112,1.793,0.131,2.37
								c0.004,0.572,0,0.899,0,0.899s-0.036-0.327-0.108-0.891c-0.063-0.563-0.18-1.373-0.33-2.336
								c-0.069-0.48-0.161-1.002-0.265-1.549c-0.1-0.551-0.225-1.127-0.356-1.727c-0.121-0.593-0.274-1.194-0.44-1.809
								c-0.168-0.615-0.356-1.24-0.561-1.846c-0.097-0.314-0.209-0.61-0.328-0.911c-0.112-0.296-0.238-0.589-0.368-0.873
								c-0.133-0.292-0.273-0.567-0.415-0.833c-0.155-0.26-0.294-0.516-0.487-0.766c-0.18-0.24-0.363-0.486-0.536-0.721
								c-0.081-0.123-0.175-0.24-0.256-0.363c-0.081-0.117-0.153-0.244-0.225-0.365c-0.148-0.245-0.301-0.479-0.429-0.712
								c-0.121-0.235-0.24-0.465-0.358-0.679c-0.215-0.445-0.394-0.863-0.547-1.225c-0.148-0.377-0.271-0.701-0.357-0.973
								c-0.104-0.271-0.161-0.491-0.211-0.639C62.78,91.853,62.755,91.771,62.755,91.771z"/>
						</g>
					</g>
					<g>
						<g>
							<path d="M50.206,80.903c0,0-0.021,0.099-0.052,0.276c-0.045,0.186-0.081,0.451-0.178,0.771
								c-0.087,0.332-0.18,0.73-0.323,1.184c-0.067,0.227-0.144,0.471-0.22,0.725c-0.088,0.25-0.178,0.506-0.28,0.788
								c-0.193,0.552-0.449,1.136-0.703,1.746c-0.258,0.624-0.595,1.248-0.915,1.901c-0.088,0.164-0.169,0.332-0.261,0.492
								c-0.095,0.156-0.185,0.318-0.283,0.478c-0.197,0.327-0.388,0.653-0.586,0.985c-0.393,0.646-0.816,1.305-1.221,1.961
								c-0.401,0.658-0.781,1.33-1.153,1.984c-0.342,0.678-0.717,1.32-1.018,1.98c-0.284,0.658-0.612,1.277-0.825,1.905
								c-0.119,0.304-0.243,0.604-0.359,0.894c-0.104,0.292-0.173,0.582-0.265,0.855c-0.083,0.28-0.169,0.539-0.24,0.795
								c-0.063,0.26-0.117,0.502-0.171,0.73c-0.101,0.454-0.197,0.854-0.222,1.19c-0.095,0.673-0.145,1.055-0.145,1.055
								s0.01-0.386,0.036-1.068c0-0.346,0.067-0.743,0.133-1.216c0.036-0.234,0.076-0.485,0.112-0.752
								c0.063-0.264,0.128-0.533,0.197-0.811c0.076-0.287,0.139-0.584,0.238-0.892c0.101-0.298,0.204-0.608,0.311-0.925
								c0.189-0.648,0.483-1.286,0.77-1.964c0.133-0.346,0.312-0.667,0.47-1.003c0.175-0.342,0.337-0.681,0.512-1.028
								c0.379-0.667,0.754-1.358,1.153-2.022c0.42-0.653,0.838-1.302,1.241-1.955c0.2-0.316,0.404-0.64,0.598-0.949
								c0.094-0.16,0.192-0.316,0.296-0.472c0.088-0.157,0.173-0.319,0.256-0.472c0.337-0.647,0.705-1.238,0.977-1.842
								c0.292-0.6,0.565-1.164,0.781-1.699c0.112-0.261,0.222-0.521,0.325-0.762c0.095-0.244,0.184-0.48,0.271-0.702
								c0.169-0.434,0.301-0.824,0.413-1.143C50.094,81.28,50.206,80.903,50.206,80.903z"/>
						</g>
					</g>
				</g>
				<g>
					<g>
						<path d="M83.125,183.286c0,0,0.033,0.022,0.092,0.052c0.057,0.031,0.144,0.076,0.233,0.156
							c0.093,0.084,0.223,0.172,0.33,0.297c0.104,0.139,0.265,0.267,0.366,0.455c0.107,0.18,0.26,0.359,0.341,0.591
							c0.099,0.22,0.232,0.454,0.297,0.702c0.071,0.256,0.15,0.523,0.215,0.789c0.052,0.268,0.083,0.549,0.119,0.83
							c0.014,0.148,0.036,0.273,0.045,0.436c0,0.135,0,0.271,0,0.41c0,0.135,0,0.27-0.009,0.395c-0.022,0.14-0.043,0.28-0.063,0.411
							c-0.02,0.139-0.031,0.264-0.063,0.391c-0.04,0.123-0.069,0.246-0.11,0.363c-0.056,0.23-0.152,0.444-0.235,0.637
							c-0.069,0.203-0.182,0.359-0.267,0.508c-0.081,0.152-0.173,0.271-0.238,0.373c-0.15,0.192-0.245,0.296-0.245,0.296
							s0.065-0.116,0.189-0.337c0.04-0.108,0.121-0.236,0.177-0.395c0.059-0.158,0.14-0.324,0.188-0.521
							c0.063-0.199,0.135-0.401,0.175-0.633c0.021-0.114,0.045-0.233,0.077-0.346c0.016-0.121,0.019-0.252,0.04-0.368
							c0.016-0.116,0.021-0.247,0.036-0.379c0-0.126,0-0.261,0-0.395c0-0.139-0.009-0.271-0.009-0.41
							c-0.012-0.119-0.032-0.268-0.048-0.4c-0.035-0.264-0.056-0.533-0.097-0.794c-0.063-0.261-0.121-0.518-0.179-0.768
							c-0.067-0.247-0.169-0.468-0.24-0.691c-0.025-0.104-0.081-0.209-0.133-0.306c-0.052-0.09-0.097-0.195-0.142-0.275
							c-0.04-0.102-0.099-0.182-0.144-0.254c-0.059-0.081-0.104-0.152-0.152-0.216c-0.083-0.147-0.195-0.247-0.268-0.341
							C83.244,183.373,83.125,183.286,83.125,183.286z"/>
					</g>
				</g>
				<g>
					<g>
						<path d="M80.266,191.71c0,0,0.033-0.045,0.092-0.135c0.065-0.081,0.144-0.218,0.233-0.386
							c0.088-0.164,0.185-0.385,0.265-0.638c0.072-0.256,0.135-0.554,0.169-0.88c0.13-1.307-0.361-3.053-1.149-4.621
							c-0.106-0.195-0.202-0.391-0.31-0.578c-0.052-0.087-0.112-0.203-0.155-0.267l-0.202-0.253
							c-0.276-0.328-0.555-0.641-0.889-0.86c-0.328-0.231-0.676-0.384-1.035-0.422c-0.35-0.042-0.697,0.029-0.974,0.191
							c-0.278,0.15-0.51,0.344-0.689,0.539c-0.092,0.094-0.184,0.182-0.251,0.287c-0.065,0.09-0.126,0.176-0.188,0.252
							c-0.112,0.161-0.182,0.299-0.24,0.386c-0.05,0.081-0.086,0.132-0.086,0.132s0.025-0.051,0.072-0.148
							c0.045-0.087,0.097-0.235,0.2-0.409c0.045-0.082,0.101-0.177,0.161-0.275c0.063-0.104,0.144-0.207,0.229-0.316
							c0.071-0.119,0.186-0.205,0.291-0.328c0.124-0.101,0.259-0.209,0.399-0.301c0.292-0.19,0.689-0.289,1.098-0.275
							c0.416,0.018,0.829,0.18,1.194,0.424c0.368,0.233,0.696,0.563,0.981,0.904l0.204,0.261c0.083,0.118,0.123,0.2,0.189,0.306
							c0.112,0.195,0.22,0.395,0.323,0.592c0.401,0.809,0.725,1.661,0.909,2.492c0.19,0.832,0.208,1.643,0.112,2.314
							c-0.043,0.343-0.138,0.644-0.24,0.899c-0.108,0.256-0.218,0.464-0.33,0.638c-0.104,0.166-0.207,0.275-0.274,0.352
							C80.299,191.674,80.266,191.71,80.266,191.71z"/>
					</g>
				</g>
				<g>
					<g>
						<path d="M65.366,184.418c0,0,0.103,0.098,0.256,0.284c0.071,0.097,0.157,0.216,0.253,0.355
							c0.103,0.142,0.207,0.299,0.306,0.487c0.107,0.185,0.202,0.393,0.299,0.608c0.092,0.229,0.197,0.458,0.265,0.716
							c0.071,0.249,0.152,0.515,0.193,0.792c0.063,0.271,0.078,0.555,0.114,0.831c0.019,0.287,0,0.566,0.004,0.849
							c-0.011,0.271-0.056,0.547-0.083,0.809c-0.045,0.26-0.107,0.504-0.157,0.744c-0.045,0.236-0.144,0.445-0.208,0.646
							c-0.067,0.197-0.128,0.371-0.211,0.523c-0.072,0.156-0.131,0.291-0.193,0.396c-0.107,0.221-0.175,0.338-0.175,0.338
							s0.042-0.133,0.107-0.361c0.036-0.113,0.09-0.256,0.135-0.414c0.054-0.158,0.085-0.348,0.137-0.545
							c0.04-0.202,0.112-0.416,0.144-0.644c0.029-0.235,0.072-0.479,0.102-0.721c0.02-0.262,0.042-0.521,0.056-0.787
							c-0.009-0.268,0.005-0.541-0.024-0.807c-0.025-0.267-0.036-0.543-0.092-0.801c-0.021-0.123-0.041-0.263-0.061-0.387
							c-0.031-0.125-0.063-0.253-0.099-0.377c-0.045-0.242-0.13-0.478-0.197-0.704c-0.088-0.22-0.152-0.429-0.235-0.617
							c-0.164-0.378-0.316-0.674-0.436-0.89C65.442,184.534,65.366,184.418,65.366,184.418z"/>
					</g>
				</g>
				<g>
					<g>
						<path d="M56.661,186.372c0,0,0.04-0.194,0.18-0.536c0.069-0.168,0.168-0.368,0.285-0.59c0.128-0.225,0.292-0.463,0.527-0.688
							c0.225-0.218,0.541-0.424,0.934-0.48c0.048-0.004,0.088-0.02,0.153-0.014c0.047,0.005,0.076-0.006,0.139,0.01
							c0.112,0.014,0.211,0.047,0.306,0.08c0.19,0.076,0.363,0.191,0.519,0.324c0.313,0.253,0.576,0.578,0.806,0.931
							c0.229,0.351,0.415,0.734,0.581,1.116c0.313,0.776,0.505,1.598,0.608,2.369c0.104,0.777,0.104,1.504,0.071,2.127
							c-0.026,0.617-0.111,1.129-0.175,1.48c-0.061,0.357-0.101,0.557-0.101,0.557s0.011-0.204,0.033-0.563
							c0.027-0.361,0.045-0.871,0.036-1.479c0-0.612-0.059-1.325-0.182-2.074c-0.133-0.752-0.328-1.54-0.629-2.282
							c-0.152-0.369-0.332-0.732-0.536-1.064c-0.216-0.326-0.444-0.638-0.716-0.873c-0.142-0.123-0.281-0.225-0.434-0.292
							c-0.076-0.036-0.149-0.067-0.22-0.081c-0.031-0.009-0.081-0.009-0.121-0.009c-0.027-0.011-0.079,0-0.119,0
							c-0.309,0.029-0.601,0.183-0.828,0.37c-0.442,0.391-0.707,0.844-0.873,1.156C56.74,186.178,56.661,186.372,56.661,186.372z"/>
					</g>
				</g>
				<g>
					<g>
						<path d="M60.338,185.452c0,0,0.059-0.337,0.251-0.797c0.097-0.225,0.231-0.489,0.397-0.755
							c0.104-0.123,0.18-0.267,0.308-0.391l0.171-0.177l0.197-0.177c0.128-0.113,0.292-0.189,0.434-0.287
							c0.08-0.032,0.166-0.061,0.247-0.093c0.08-0.029,0.156-0.063,0.244-0.067c0.162-0.024,0.315-0.054,0.472-0.029
							c0.152,0.012,0.294,0.025,0.41,0.076c0.126,0.047,0.243,0.081,0.333,0.129c0.078,0.056,0.154,0.105,0.222,0.148
							c0.117,0.077,0.188,0.124,0.188,0.124s-0.09-0.023-0.22-0.063c-0.067-0.021-0.148-0.05-0.252-0.081
							c-0.092-0.021-0.204-0.031-0.316-0.051c-0.107-0.031-0.24-0.012-0.365-0.012c-0.135-0.009-0.261,0.041-0.396,0.067
							c-0.144,0.026-0.267,0.116-0.401,0.164c-0.119,0.092-0.263,0.152-0.37,0.258l-0.185,0.144l-0.157,0.164
							c-0.107,0.108-0.204,0.236-0.301,0.348c-0.184,0.231-0.348,0.456-0.48,0.667C60.509,185.164,60.338,185.452,60.338,185.452z"
							/>
					</g>
				</g>
				<g>
					<g>
						<path d="M40.787,181.471c0,0,0.128-0.14,0.366-0.351c0.251-0.209,0.608-0.505,1.089-0.79c0.487-0.283,1.072-0.593,1.773-0.746
							c0.179-0.031,0.356-0.076,0.547-0.076l0.274-0.016l0.292,0.016c0.384,0.025,0.763,0.153,1.108,0.319l0.065,0.034l0.071,0.042
							l0.112,0.071c0.081,0.055,0.159,0.105,0.231,0.188c0.076,0.071,0.152,0.135,0.22,0.215l0.18,0.229
							c0.207,0.316,0.37,0.662,0.465,1.018c0.049,0.168,0.069,0.341,0.105,0.514c0.011,0.173,0.036,0.339,0.029,0.5
							c-0.005,0.166,0,0.324-0.022,0.477c-0.007,0.152-0.031,0.301-0.063,0.436c-0.061,0.28-0.159,0.525-0.253,0.734
							c-0.054,0.103-0.119,0.189-0.176,0.275c-0.049,0.076-0.102,0.152-0.163,0.211c-0.061,0.055-0.105,0.11-0.153,0.152
							c-0.063,0.041-0.103,0.072-0.139,0.09c-0.065,0.055-0.102,0.076-0.102,0.076s0.036-0.031,0.093-0.09
							c0.024-0.031,0.067-0.066,0.116-0.107c0.041-0.045,0.083-0.104,0.124-0.168c0.056-0.063,0.103-0.139,0.148-0.225
							c0.041-0.08,0.09-0.168,0.121-0.275c0.036-0.102,0.077-0.211,0.108-0.333c0.022-0.116,0.063-0.242,0.071-0.38
							c0.021-0.132,0.036-0.269,0.036-0.406c0.009-0.154,0-0.301-0.009-0.448c-0.007-0.157-0.036-0.314-0.063-0.472
							c-0.044-0.156-0.066-0.32-0.116-0.476c-0.095-0.321-0.261-0.614-0.451-0.902l-0.152-0.195
							c-0.05-0.067-0.112-0.112-0.176-0.173c-0.049-0.057-0.125-0.107-0.201-0.152l-0.119-0.083l-0.05-0.024l-0.056-0.025
							c-0.308-0.152-0.633-0.271-0.981-0.291l-0.251-0.029l-0.261,0.014c-0.161-0.006-0.332,0.031-0.5,0.058
							c-0.653,0.121-1.246,0.354-1.731,0.602c-0.485,0.259-0.874,0.489-1.149,0.673C40.935,181.357,40.787,181.471,40.787,181.471z"
							/>
					</g>
				</g>
				<g>
					<g>
						<path d="M46.585,180.263c0,0,0.108-0.05,0.316-0.101c0.216-0.048,0.521-0.119,0.905-0.119c0.188-0.01,0.386,0,0.612,0.037
							c0.207,0.039,0.438,0.093,0.662,0.205c0.112,0.045,0.225,0.092,0.332,0.168l0.16,0.107c0.056,0.041,0.103,0.086,0.144,0.131
							l0.144,0.133l0.121,0.152l0.121,0.161l0.099,0.173l0.088,0.173c0.04,0.077,0.049,0.124,0.071,0.187
							c0.041,0.117,0.09,0.218,0.121,0.357c0.063,0.246,0.09,0.504,0.086,0.744c0,0.124,0,0.24-0.023,0.361
							c-0.018,0.115-0.045,0.225-0.072,0.33c-0.054,0.221-0.144,0.404-0.231,0.577c-0.189,0.33-0.404,0.565-0.557,0.721
							c-0.164,0.147-0.267,0.206-0.267,0.206s0.083-0.092,0.216-0.26c0.128-0.162,0.285-0.429,0.419-0.754
							c0.057-0.176,0.122-0.346,0.153-0.553c0.02-0.092,0.036-0.199,0.04-0.301c0.016-0.109,0.012-0.209,0.012-0.323
							c-0.012-0.211-0.052-0.44-0.112-0.648c-0.016-0.101-0.079-0.22-0.112-0.337c-0.027-0.052-0.052-0.128-0.072-0.154
							l-0.083-0.153l-0.076-0.152l-0.107-0.135l-0.09-0.137l-0.128-0.114c-0.076-0.086-0.159-0.148-0.256-0.211
							c-0.081-0.072-0.18-0.119-0.276-0.174c-0.382-0.195-0.797-0.275-1.151-0.311c-0.355-0.036-0.662-0.036-0.878-0.016
							C46.702,180.249,46.585,180.263,46.585,180.263z"/>
					</g>
				</g>
				<g>
					<g>
						<path d="M19.12,183.104c0,0,0.072-0.224,0.249-0.572c0.1-0.174,0.216-0.383,0.364-0.623c0.081-0.113,0.164-0.234,0.256-0.369
							c0.101-0.116,0.199-0.244,0.312-0.374c0.238-0.254,0.506-0.523,0.833-0.743c0.321-0.244,0.709-0.429,1.132-0.572
							c0.426-0.104,0.891-0.18,1.351-0.107l0.346,0.043h0.016c0.012,0.006-0.024-0.008,0.031,0.011l0.005,0.005l0.021,0.004
							l0.042,0.014l0.076,0.031l0.157,0.067c0.104,0.05,0.216,0.14,0.326,0.202c0.103,0.078,0.175,0.17,0.265,0.254
							c0.323,0.356,0.572,0.77,0.734,1.198c0.101,0.204,0.146,0.429,0.217,0.642c0.048,0.223,0.104,0.429,0.133,0.648
							c0.133,0.854,0.092,1.673-0.021,2.348c-0.035,0.172-0.065,0.33-0.101,0.483c-0.04,0.15-0.095,0.287-0.135,0.424
							c-0.081,0.265-0.193,0.476-0.265,0.667c-0.09,0.175-0.178,0.31-0.229,0.395c-0.056,0.092-0.087,0.145-0.087,0.145
							s0.092-0.205,0.249-0.568c0.059-0.191,0.152-0.406,0.206-0.674c0.032-0.137,0.061-0.275,0.097-0.428
							c0.016-0.148,0.041-0.306,0.061-0.475c0.081-0.662,0.063-1.454-0.09-2.264c-0.035-0.2-0.094-0.402-0.139-0.604
							c-0.076-0.202-0.128-0.417-0.221-0.606c-0.152-0.401-0.388-0.776-0.664-1.084c-0.152-0.166-0.296-0.273-0.472-0.37
							l-0.28-0.116l-0.314-0.043c-0.424-0.061-0.839-0.014-1.229,0.067c-0.391,0.128-0.757,0.265-1.064,0.485
							c-0.327,0.188-0.597,0.433-0.832,0.659c-0.24,0.237-0.44,0.467-0.608,0.686c-0.166,0.216-0.306,0.411-0.418,0.577
							C19.224,182.895,19.12,183.104,19.12,183.104z"/>
					</g>
				</g>
				<g>
					<g>
						<path d="M28.591,180.987c0,0,0.08,0.052,0.197,0.187c0.059,0.061,0.13,0.137,0.206,0.238c0.076,0.099,0.153,0.204,0.218,0.334
							c0.076,0.137,0.144,0.281,0.207,0.438c0.058,0.166,0.121,0.344,0.152,0.53c0.04,0.182,0.05,0.379,0.076,0.572
							c0,0.2-0.016,0.411-0.036,0.604c-0.04,0.198-0.056,0.409-0.121,0.593c-0.063,0.182-0.107,0.373-0.19,0.539
							c-0.076,0.177-0.157,0.334-0.24,0.486c-0.092,0.145-0.178,0.283-0.258,0.406c-0.079,0.119-0.166,0.23-0.247,0.318
							c-0.076,0.086-0.148,0.167-0.2,0.225c-0.116,0.131-0.188,0.203-0.188,0.203s0.045-0.088,0.133-0.236
							c0.076-0.159,0.209-0.357,0.323-0.619c0.058-0.133,0.121-0.276,0.197-0.42c0.059-0.152,0.117-0.311,0.18-0.477
							c0.071-0.161,0.092-0.338,0.152-0.522c0.057-0.169,0.072-0.357,0.112-0.541c0.016-0.179,0.024-0.368,0.024-0.548
							c-0.009-0.184,0-0.363-0.033-0.529c-0.012-0.176-0.052-0.346-0.092-0.494c-0.043-0.152-0.083-0.31-0.133-0.438
							c-0.104-0.265-0.211-0.479-0.296-0.626C28.651,181.066,28.591,180.987,28.591,180.987z"/>
					</g>
				</g>
			</g>
			<g>
				<g style="opacity:0.5;">
					<path d="M25.383,137.472c-0.063-0.128-0.097-0.195-0.097-0.195S25.302,137.34,25.383,137.472z"/>
				</g>
			</g>
			<g>
				<g>
					<g>
						<path style="fill:#FFFFFF;" d="M49.541,44.204c0,0-1.257,0.472-1.257-0.31c-2.357,0.469-11.636-3.154-13.896-16.649
							c-1.989-13.303-3.172-19.373-3.989-21.1c5.883,2.27,15.394,10.501,24.363,16.669c8.325,5.606,9.413,4.707,13.851,4.155
							c4.434-0.539,10.952-0.726,17.113,1.912c6.157,2.619,9.05,3.978,12.94,2.17c3.898-1.818,20.56-9.057,37.763-6.161
							c-9.057,12.949-15.852,24.987-23.905,26.075c-5.971,0.726-10.415-0.361-10.415-0.361s0.093,5.704-0.085,12.586
							c0.085,5.25,1.355,8.51-0.635,12.227c-1.996,3.703-8.15,5.425-12.59,7.145c-4.429,1.726-11.313,5.981-16.75,5.344
							c-5.427-0.626-16.746-8.871-24.082-14.574c-4.433-4.074-6.152-7.602-2.626-12.583C47.788,54.41,49.842,46.503,49.541,44.204z"
							/>
						<path d="M73.19,88.346c-0.406,0-0.805-0.022-1.185-0.067c-4.226-0.487-12.391-5.416-24.269-14.65
							c-4.363-4.009-6.479-7.759-2.701-13.096c2.285-5.951,4.185-13.217,4.16-15.849c-0.337,0.062-0.725,0.04-0.96-0.122
							c-0.099-0.067-0.176-0.154-0.23-0.257c-0.056,0.003-0.113,0.004-0.172,0.004c-2.929,0-11.643-4.028-13.815-17.001
							C32.107,14.528,30.888,8.054,30.06,6.307l-0.401-0.848l0.875,0.338c3.94,1.52,9.469,5.667,15.322,10.059
							c2.994,2.245,6.09,4.568,9.119,6.651c5.62,3.785,7.805,4.503,9.867,4.503c0.786,0,1.576-0.112,2.491-0.243
							c0.385-0.055,0.793-0.113,1.233-0.168c6.61-0.805,12.446-0.141,17.307,1.939l0.635,0.271c5.668,2.415,8.465,3.546,12,1.904
							c4.43-2.066,16.18-6.872,29.588-6.872c2.887,0,5.712,0.229,8.395,0.681l0.585,0.099l-0.34,0.486
							c-1.438,2.056-2.819,4.089-4.157,6.06c-7.011,10.321-13.065,19.235-20.006,20.173c-1.383,0.168-2.794,0.253-4.2,0.253
							c-2.864,0-4.985-0.345-5.884-0.521c0.018,1.507,0.056,6.443-0.091,12.131c0.024,1.509,0.147,2.837,0.267,4.121
							c0.287,3.099,0.515,5.546-0.945,8.272c-1.762,3.268-6.498,5.002-10.676,6.531c-0.729,0.267-1.439,0.526-2.109,0.786
							c-1.082,0.422-2.329,1.004-3.65,1.62C81.646,86.231,77.117,88.346,73.19,88.346z M49.852,43.689l0.062,0.466
							c0.333,2.549-1.957,10.861-4.222,16.729c-3.517,4.987-1.634,8.345,2.53,12.172c11.578,9,19.841,14.013,23.871,14.479
							c0.352,0.041,0.721,0.062,1.098,0.062c3.76,0,8.206-2.075,11.778-3.743c1.331-0.621,2.59-1.209,3.695-1.64
							c0.675-0.262,1.39-0.523,2.123-0.791c4.053-1.483,8.646-3.165,10.272-6.182c1.354-2.527,1.136-4.875,0.859-7.849
							c-0.114-1.237-0.244-2.641-0.27-4.194c0.176-6.81,0.086-12.528,0.085-12.586l-0.008-0.485l0.472,0.115
							c0.025,0.006,2.505,0.601,6.176,0.601c1.376,0,2.757-0.083,4.105-0.247c6.603-0.893,12.57-9.678,19.481-19.851
							c1.233-1.816,2.503-3.686,3.82-5.577c-2.467-0.383-5.048-0.576-7.684-0.576c-13.258,0-24.887,4.757-29.271,6.802
							c-1.264,0.587-2.432,0.86-3.676,0.86c-2.47,0-5.042-1.096-8.935-2.755l-0.635-0.271c-4.739-2.028-10.447-2.672-16.922-1.885
							c-0.435,0.055-0.838,0.111-1.219,0.166c-0.942,0.135-1.757,0.251-2.597,0.251c-2.211,0-4.506-0.738-10.289-4.633
							c-3.046-2.095-6.147-4.422-9.147-6.672C39.987,12.39,34.848,8.534,31.061,6.83c0.843,2.588,1.981,8.877,3.698,20.36
							c2.091,12.488,10.314,16.368,13.074,16.368c0.142,0,0.268-0.01,0.377-0.032l0.448-0.089v0.457
							c0.006,0.135,0.613,0.01,0.751-0.042L49.852,43.689z"/>
					</g>
					<g>
						<path d="M49.541,44.204c-0.244,0.095-0.496,0.142-0.756,0.142c-0.061,0-0.121-0.009-0.182-0.022
							c-0.036-0.007-0.067-0.024-0.095-0.036c-0.036-0.004-0.054-0.031-0.085-0.051c-0.045-0.043-0.092-0.093-0.108-0.153
							c-0.031-0.061-0.026-0.124-0.04-0.188l0.009,0.004c-0.464,0.076-0.938,0.021-1.394-0.066c-0.458-0.09-0.909-0.225-1.354-0.387
							c-0.866-0.334-1.699-0.771-2.482-1.279c-1.573-1.014-2.947-2.328-4.101-3.798c-0.589-0.731-1.109-1.513-1.571-2.321
							c-0.483-0.813-0.896-1.656-1.264-2.512c-0.378-0.859-0.674-1.748-0.961-2.639c-0.128-0.451-0.261-0.902-0.366-1.355
							c-0.103-0.461-0.237-0.91-0.308-1.375c-0.192-0.908-0.318-1.85-0.467-2.762l-0.429-2.771c-0.305-1.836-0.586-3.686-0.913-5.53
							c-0.162-0.914-0.306-1.839-0.492-2.754c-0.161-0.918-0.325-1.837-0.519-2.757l-0.278-1.374l-0.31-1.355
							c-0.097-0.451-0.225-0.9-0.352-1.352c-0.112-0.455-0.291-0.869-0.448-1.302l-0.114-0.312l0.291,0.123
							c2.231,0.909,4.276,2.175,6.263,3.486c1.986,1.324,3.915,2.729,5.834,4.143c3.836,2.84,7.604,5.751,11.517,8.465
							c0.491,0.348,0.97,0.672,1.471,1.001c0.502,0.33,1.003,0.657,1.504,0.968c1.005,0.64,2.031,1.234,3.084,1.775
							c1.057,0.529,2.15,0.996,3.299,1.205c0.568,0.121,1.149,0.133,1.737,0.128c0.582-0.026,1.175-0.099,1.758-0.179
							c2.359-0.354,4.75-0.582,7.145-0.564c1.198,0.005,2.396,0.063,3.592,0.186c1.193,0.128,2.381,0.325,3.549,0.581
							c1.171,0.258,2.325,0.606,3.454,1.013c1.127,0.429,2.211,0.913,3.315,1.374c1.091,0.453,2.195,0.908,3.313,1.293
							c1.12,0.37,2.263,0.687,3.419,0.738c1.165,0.072,2.323-0.133,3.4-0.59c1.066-0.457,2.171-0.988,3.279-1.428
							c2.206-0.91,4.46-1.713,6.743-2.42c2.278-0.721,4.599-1.298,6.936-1.807c2.348-0.472,4.704-0.887,7.084-1.101
							c0.597-0.056,1.191-0.128,1.793-0.168l1.787-0.093c1.194-0.094,2.398-0.04,3.591-0.045c0.602-0.008,1.201,0.037,1.798,0.077
							l1.787,0.116c1.196,0.112,2.377,0.303,3.571,0.445l0.429,0.063l-0.256,0.363c-2.223,3.181-4.382,6.406-6.584,9.604
							c-1.106,1.603-2.22,3.196-3.375,4.761c-0.573,0.793-1.165,1.563-1.758,2.328c-0.613,0.768-1.226,1.528-1.858,2.265
							c-0.638,0.736-1.298,1.461-1.993,2.155c-0.685,0.697-1.403,1.355-2.164,1.973c-1.518,1.238-3.234,2.303-5.165,2.816
							c-0.244,0.063-0.478,0.135-0.73,0.169l-0.37,0.06l-0.085,0.023l-0.108,0.004l-0.173,0.019l-1.454,0.126
							c-0.482,0.053-0.977,0.049-1.464,0.071c-0.493,0.005-0.982,0.036-1.475,0.016c-0.484-0.021-0.977-0.021-1.461-0.052
							l-1.466-0.111c-0.965-0.117-1.941-0.236-2.9-0.451l0.27-0.219c0,1.783,0.036,3.58-0.009,5.367l-0.067,5.373l-0.018,1.34
							c0,0.225-0.018,0.463-0.009,0.665l0.026,0.667c0.036,0.889,0.092,1.779,0.18,2.666c0.148,1.773,0.389,3.582,0.184,5.395
							c-0.099,0.904-0.318,1.813-0.685,2.644c-0.358,0.849-0.859,1.62-1.508,2.29c-0.626,0.671-1.369,1.205-2.13,1.691
							c-0.762,0.496-1.571,0.892-2.384,1.279c-1.63,0.764-3.315,1.383-5.001,1.989c-0.838,0.312-1.68,0.615-2.503,0.942
							c-0.833,0.34-1.634,0.707-2.446,1.084c-1.63,0.752-3.244,1.512-4.909,2.198c-1.659,0.678-3.36,1.276-5.131,1.634l-0.672,0.131
							l-0.673,0.082c-0.444,0.065-0.9,0.061-1.358,0.079c-0.227,0.021-0.451-0.019-0.676-0.026l-0.343-0.019l-0.166-0.019
							l-0.176-0.026c-0.438-0.095-0.884-0.142-1.317-0.301c-1.746-0.515-3.371-1.302-4.954-2.132
							c-1.573-0.869-3.115-1.783-4.626-2.757c-1.504-0.968-2.989-1.969-4.451-3.001c-2.936-2.059-5.786-4.229-8.605-6.426
							L47.9,73.411h-0.004l-0.653-0.634c-0.225-0.203-0.429-0.428-0.64-0.641c-0.218-0.217-0.418-0.447-0.617-0.679
							c-0.202-0.224-0.397-0.458-0.582-0.696l-0.287-0.365l-0.258-0.371l-0.252-0.381l-0.235-0.395
							c-0.071-0.135-0.152-0.264-0.213-0.4l-0.195-0.422c-0.144-0.274-0.216-0.574-0.316-0.855
							c-0.102-0.285-0.133-0.604-0.204-0.899c-0.025-0.294-0.057-0.61-0.062-0.916l0.027-0.451c0.009-0.153,0.014-0.306,0.045-0.46
							c0.072-0.297,0.092-0.604,0.204-0.896c0.09-0.285,0.162-0.586,0.297-0.857c0.121-0.276,0.233-0.562,0.388-0.826
							c0.152-0.267,0.278-0.536,0.453-0.792l0.501-0.764l-0.005,0.018c0.245-0.671,0.51-1.333,0.745-2.006
							c0.247-0.678,0.477-1.35,0.701-2.023c0.455-1.353,0.873-2.723,1.261-4.092c0.205-0.691,0.389-1.377,0.555-2.073
							c0.182-0.691,0.344-1.39,0.487-2.09c0.144-0.693,0.287-1.394,0.389-2.103c0.051-0.355,0.08-0.713,0.116-1.064l0.022-0.534
							C49.568,44.568,49.553,44.384,49.541,44.204z M49.541,44.204c0.012,0.18,0.027,0.364,0.032,0.539l-0.021,0.534
							c-0.031,0.351-0.057,0.714-0.119,1.068c-0.088,0.709-0.218,1.41-0.361,2.108c-0.144,0.695-0.303,1.39-0.469,2.09
							c-0.176,0.691-0.359,1.385-0.555,2.074c-0.373,1.373-0.783,2.747-1.23,4.107c-0.22,0.678-0.448,1.36-0.688,2.027
							c-0.233,0.676-0.485,1.349-0.734,2.014v0.008l-0.007,0.005l-0.496,0.763c-0.164,0.243-0.285,0.521-0.438,0.781
							c-0.154,0.258-0.251,0.541-0.379,0.822c-0.121,0.271-0.202,0.563-0.285,0.848c-0.108,0.287-0.133,0.584-0.195,0.878
							c-0.029,0.144-0.041,0.292-0.045,0.44l-0.016,0.446c0,0.301,0.031,0.606,0.06,0.897c0.071,0.292,0.107,0.588,0.206,0.873
							c0.095,0.281,0.171,0.568,0.314,0.831l0.185,0.415c0.066,0.133,0.154,0.261,0.227,0.389l0.225,0.389l0.253,0.377l0.256,0.367
							l0.276,0.354c0.193,0.232,0.391,0.469,0.588,0.691c0.204,0.217,0.402,0.445,0.613,0.657c0.22,0.211,0.424,0.44,0.64,0.64
							l0.662,0.619l-0.009-0.004c2.828,2.182,5.698,4.32,8.637,6.365c1.464,1.033,2.945,2.022,4.453,2.992
							c1.506,0.953,3.046,1.869,4.613,2.725c1.566,0.824,3.196,1.604,4.882,2.104c0.408,0.148,0.861,0.193,1.304,0.285l0.148,0.029
							l0.173,0.006l0.327,0.027c0.211,0.004,0.438,0.033,0.653,0.022c0.444-0.022,0.887-0.013,1.329-0.085l0.653-0.081l0.653-0.128
							c1.737-0.353,3.427-0.945,5.077-1.629c1.643-0.681,3.264-1.448,4.882-2.207c0.813-0.365,1.634-0.745,2.462-1.086
							c0.84-0.344,1.677-0.644,2.512-0.957c1.684-0.619,3.362-1.238,4.972-1.986c0.802-0.384,1.599-0.779,2.339-1.264
							c0.739-0.474,1.459-1.001,2.059-1.637c0.597-0.621,1.082-1.369,1.419-2.184c0.343-0.799,0.559-1.654,0.653-2.534
							c0.184-1.746-0.045-3.53-0.198-5.304c-0.08-0.898-0.152-1.793-0.199-2.7l-0.021-0.662c-0.009-0.251,0-0.454,0-0.685
							l0.021-1.342l0.062-5.365c0.04-1.787,0-3.576-0.007-5.362v-0.282l0.283,0.063c0.918,0.215,1.888,0.32,2.837,0.434l1.448,0.113
							c0.476,0.025,0.958,0.025,1.445,0.039c0.484,0.021,0.958-0.01,1.44-0.014c0.479-0.025,0.959-0.012,1.446-0.076l1.449-0.123
							l0.178-0.021l0.081-0.008l0.09-0.016l0.35-0.061c0.236-0.039,0.46-0.1,0.696-0.158c1.831-0.496,3.492-1.52,4.976-2.733
							c0.743-0.61,1.45-1.264,2.128-1.95c0.681-0.683,1.329-1.403,1.958-2.133c0.631-0.734,1.234-1.49,1.833-2.247
							c0.591-0.761,1.186-1.535,1.751-2.318c1.145-1.564,2.259-3.156,3.35-4.759c2.197-3.198,4.348-6.438,6.581-9.62l0.173,0.417
							c-1.174-0.149-2.351-0.33-3.524-0.446l-1.775-0.124c-0.595-0.045-1.181-0.087-1.775-0.082c-1.183,0-2.368-0.05-3.554,0.037
							l-1.784,0.082c-0.59,0.045-1.179,0.109-1.771,0.172c-2.364,0.205-4.705,0.615-7.035,1.068
							c-2.316,0.506-4.63,1.073-6.904,1.785c-2.258,0.702-4.505,1.499-6.7,2.393c-1.113,0.439-2.173,0.945-3.293,1.423
							c-0.273,0.126-0.569,0.202-0.854,0.306c-0.299,0.08-0.6,0.152-0.9,0.213c-0.301,0.033-0.601,0.092-0.916,0.097
							c-0.146,0.005-0.298,0.021-0.451,0.021l-0.462-0.021c-1.226-0.063-2.399-0.391-3.533-0.776
							c-1.141-0.389-2.242-0.847-3.352-1.309c-1.093-0.463-2.186-0.954-3.279-1.374c-1.122-0.399-2.246-0.738-3.4-1.006
							c-1.153-0.253-2.33-0.448-3.506-0.577c-1.179-0.127-2.363-0.185-3.549-0.197c-2.375-0.021-4.738,0.197-7.091,0.551
							c-0.595,0.076-1.193,0.147-1.795,0.172c-0.608,0.014-1.226-0.009-1.821-0.135c-1.203-0.227-2.329-0.704-3.396-1.248
							c-1.068-0.549-2.105-1.148-3.109-1.793c-0.505-0.32-1.008-0.649-1.501-0.981c-0.503-0.321-0.999-0.658-1.478-1.006
							c-3.912-2.734-7.688-5.65-11.512-8.494c-1.91-1.414-3.832-2.83-5.807-4.152c-1.982-1.314-4.012-2.578-6.202-3.467l0.18-0.193
							c0.161,0.441,0.35,0.887,0.458,1.342c0.135,0.451,0.256,0.904,0.356,1.362l0.308,1.37l0.276,1.38
							c0.182,0.913,0.339,1.839,0.5,2.759c0.173,0.918,0.316,1.836,0.47,2.761c0.307,1.845,0.59,3.692,0.88,5.544l0.408,2.766
							c0.144,0.924,0.265,1.852,0.449,2.761c0.069,0.464,0.199,0.911,0.296,1.366c0.112,0.456,0.229,0.905,0.359,1.354
							c0.273,0.889,0.565,1.773,0.938,2.633c0.358,0.857,0.768,1.697,1.236,2.504c0.46,0.816,0.97,1.586,1.547,2.316
							c1.14,1.477,2.502,2.787,4.061,3.82c0.78,0.507,1.609,0.955,2.482,1.287c0.433,0.172,0.88,0.304,1.338,0.4
							c0.451,0.09,0.925,0.141,1.389,0.069l0,0l0.005,0.007c0.007,0.061,0,0.128,0.031,0.188c0.022,0.061,0.059,0.105,0.112,0.148
							c0.027,0.024,0.045,0.038,0.076,0.056c0.031,0.012,0.059,0.029,0.095,0.029c0.061,0.016,0.121,0.025,0.182,0.029
							C49.045,44.346,49.297,44.287,49.541,44.204z"/>
					</g>
				</g>
				<g>
					<g>
						<g>
							<path style="fill:#FFFFFF;" d="M94.014,62.704c0.904-5.47-2.323-11.407-6.842-11.057c-2.125,0.163-3.879,2.011-4.868,4.218
								c-2.045,4.522-1.208,11.647,3.196,13.719c1.789,0.84,3.883,0.467,5.497-0.703C92.809,67.572,93.621,65.09,94.014,62.704z"/>
							<path d="M87.569,70.414L87.569,70.414c-0.785,0-1.535-0.165-2.229-0.49c-4.554-2.143-5.556-9.399-3.379-14.213
								c1.174-2.619,3.111-4.278,5.182-4.438c1.827-0.145,3.543,0.655,4.917,2.275c1.956,2.306,2.867,5.923,2.323,9.217
								c-0.52,3.155-1.556,5.255-3.167,6.419C90.123,69.978,88.827,70.414,87.569,70.414z M87.553,52.008
								c-0.116,0-0.233,0.004-0.351,0.014c-1.792,0.138-3.495,1.632-4.556,3.997c-1.994,4.411-1.094,11.293,3.014,13.227
								c1.563,0.733,3.559,0.462,5.118-0.668c1.423-1.028,2.388-3.024,2.866-5.934c0.51-3.086-0.336-6.465-2.155-8.609
								C90.364,52.708,89.003,52.008,87.553,52.008z"/>
						</g>
					</g>
					<g>
						<g>
							<path d="M92.059,60.854c0.065,3.612-1.931,6.597-4.436,6.669c-2.512,0.064-4.595-2.799-4.65-6.41
								c-0.063-3.607,1.926-6.591,4.433-6.667C89.913,54.379,91.996,57.25,92.059,60.854z"/>
						</g>
						<g style="opacity:0.9;">
							<path style="fill:#FFFFFF;" d="M90.148,57.892c0.209-1.198-0.532-2.04-1.432-2.312c-0.774-0.233-2.292,0.262-1.623,1.603
								C87.578,58.161,89.785,59.963,90.148,57.892z"/>
						</g>
					</g>
				</g>
				<g>
					<g>
						<g>
							<path d="M45.342,60.749c0,0,0.043-0.061,0.114-0.168c0.069-0.104,0.188-0.231,0.332-0.384
								c0.14-0.168,0.314-0.348,0.521-0.506c0.204-0.172,0.429-0.354,0.648-0.529c0.222-0.178,0.465-0.314,0.693-0.439
								c0.226-0.148,0.451-0.268,0.633-0.357c0.38-0.199,0.644-0.299,0.644-0.299s-0.204,0.205-0.532,0.47
								c-0.157,0.135-0.356,0.287-0.559,0.44c-0.211,0.163-0.451,0.307-0.671,0.482c-0.221,0.166-0.444,0.325-0.658,0.473
								c-0.104,0.076-0.211,0.148-0.312,0.214c-0.099,0.076-0.185,0.137-0.27,0.2c-0.171,0.119-0.318,0.213-0.42,0.289
								C45.404,60.702,45.342,60.749,45.342,60.749z"/>
						</g>
					</g>
					<g>
						<g>
							<path d="M99.394,64.549c0,0,0.086,0.059,0.221,0.176c0.125,0.117,0.31,0.285,0.514,0.498c0.216,0.211,0.451,0.477,0.68,0.771
								c0.229,0.297,0.449,0.627,0.669,0.971c0.195,0.348,0.389,0.707,0.53,1.053c0.071,0.168,0.147,0.341,0.195,0.504
								c0.047,0.164,0.101,0.324,0.132,0.47c0.072,0.296,0.108,0.546,0.117,0.716c0.018,0.18,0.022,0.283,0.022,0.283
								s-0.036-0.099-0.088-0.27c-0.029-0.085-0.056-0.18-0.097-0.294c-0.049-0.106-0.103-0.235-0.147-0.372
								c-0.059-0.14-0.128-0.276-0.188-0.43c-0.067-0.156-0.16-0.309-0.236-0.476c-0.076-0.168-0.18-0.325-0.26-0.501
								c-0.093-0.168-0.2-0.324-0.297-0.5c-0.397-0.664-0.844-1.307-1.185-1.795c-0.173-0.238-0.313-0.44-0.416-0.584
								C99.454,64.633,99.394,64.549,99.394,64.549z"/>
						</g>
					</g>
				</g>
				<g>
					<g>
						<path style="fill:#FFFFFF;" d="M73.343,70.816c0,0-1.726,0.498-2.671-0.227c-0.577,0.143-2.455-1.018-2.819-2.885
							c-0.361-1.885,1.951-2.605,4.337-2.395c2.391,0.217,4.756,1.645,4.446,3.229C76.29,70.336,74.436,71.344,73.343,70.816z"/>
						<path d="M72.094,71.358c-0.618,0-1.13-0.128-1.524-0.382c-0.002,0-0.004,0-0.006,0c-0.843,0-2.699-1.246-3.08-3.199
							c-0.123-0.643,0.016-1.228,0.399-1.692c0.623-0.753,1.903-1.185,3.513-1.185c0.272,0,0.549,0.012,0.826,0.036
							c1.813,0.165,3.56,0.981,4.348,2.032c0.392,0.521,0.542,1.09,0.434,1.643c-0.389,2.02-2.454,3.07-3.691,2.599
							C73.09,71.264,72.62,71.358,72.094,71.358z M70.658,70.216c0.087,0,0.176,0.026,0.242,0.076
							c0.273,0.21,0.675,0.316,1.193,0.316c0.605,0,1.141-0.151,1.146-0.152c0.088-0.026,0.182-0.018,0.267,0.022
							c0.838,0.407,2.47-0.491,2.762-2.01c0.067-0.345-0.032-0.698-0.297-1.051c-0.658-0.877-2.228-1.59-3.815-1.734
							c-1.641-0.146-3.135,0.202-3.693,0.879c-0.244,0.296-0.322,0.646-0.241,1.072c0.321,1.644,1.9,2.592,2.344,2.592
							C70.595,70.219,70.626,70.216,70.658,70.216z"/>
					</g>
					<g>
						<g>
							<g>
								<path d="M70.672,70.59c0,0-0.107-0.115-0.244-0.306c-0.14-0.195-0.292-0.454-0.44-0.716
									c-0.148-0.266-0.28-0.523-0.401-0.688c-0.063-0.076-0.117-0.123-0.18-0.119c-0.059,0.012-0.095,0.043-0.095,0.037
									c0.007,0.006,0.007-0.045,0.067-0.102c0.036-0.02,0.09-0.045,0.148-0.041c0.067,0.005,0.13,0.029,0.191,0.066
									c0.233,0.137,0.427,0.398,0.586,0.675c0.153,0.27,0.261,0.572,0.313,0.802C70.672,70.428,70.672,70.59,70.672,70.59z"/>
							</g>
						</g>
						<g>
							<g>
								<path d="M73.343,70.816c0,0,0.022-0.15,0.095-0.328c0.063-0.184,0.182-0.418,0.334-0.624
									c0.153-0.202,0.337-0.39,0.522-0.501c0.092-0.042,0.185-0.09,0.275-0.06c0.041,0.023,0.045,0.057,0.045,0.072
									c0,0.018,0,0.027,0,0.027s-0.029-0.043-0.059-0.027c-0.031,0.012-0.071,0.072-0.118,0.145
									c-0.101,0.152-0.225,0.363-0.373,0.561c-0.148,0.204-0.311,0.389-0.455,0.521C73.474,70.732,73.343,70.816,73.343,70.816z"
									/>
							</g>
						</g>
					</g>
				</g>
				<g>
					<path style="fill:#FFFFFF;" d="M54.67,50.967c0,0,3.901-6.016,8.133-6.016c3.869,0,6.63,2.019,7.726,4.638
						c-0.729-2.683-0.729-2.683-0.729-2.683s0.788,0.855,1.098,1.652c0,0,0.059-0.797-0.424-2.014
						c0.356,0.061,0.669,0.485,0.669,0.485s-1.455-4.757-7.149-5.208c0,0,1.905,0.546,2.538,1.264
						c-3.983-1.71-7.607-0.172-9.413,1.543c0,0,0.816-0.359,1.901-0.633C59.019,43.996,55.121,46.173,54.67,50.967z"/>
				</g>
				<g>
					<path style="fill:#FFFFFF;" d="M79.839,52.773c0,0-0.545-3.436,2.811-6.147c-0.64,1.085-0.726,1.626-0.726,1.626
						s3.437-5.166,9.051-2.079c-2.083-0.276-2.083-0.276-2.083-0.276s4.857,1.184,6.794,5.162l-1.176-0.727
						c0,0,2.891,4.982,1.266,8.242c0,0,0-7.516-6.339-9.777c-3.892-0.811-6.431,2.085-6.431,2.085s0.095-0.819,0.992-1.722
						c-2.258,1.542-2.983,3.258-2.983,3.258s0.27-1.359,0.909-2.262C80.475,52.056,79.839,52.773,79.839,52.773z"/>
				</g>
				<g>
					<g>
						<g>
							<g>
								<path style="fill:#FFFFFF;" d="M54.23,56.238c1.338-5.58,6.662-9.908,10.671-7.718c1.879,1.028,2.752,3.507,2.799,6.007
									c0.085,5.153-3.502,11.594-8.361,11.764c-1.978,0.061-3.76-1.154-4.781-2.927C53.413,61.371,53.649,58.671,54.23,56.238z"/>
								<path d="M59.197,66.668c-1.954,0-3.856-1.194-4.965-3.116c-1.015-1.767-1.134-4.188-0.366-7.4
									c1.135-4.734,5.063-8.586,8.757-8.586c0.871,0,1.698,0.211,2.458,0.626c1.819,0.996,2.938,3.361,2.994,6.329
									c0.09,5.473-3.7,11.97-8.724,12.146L59.197,66.668z M62.623,48.315c-3.367,0-6.969,3.594-8.028,8.011
									c-0.71,2.976-0.613,5.281,0.288,6.852c0.975,1.69,2.628,2.74,4.314,2.74l0.13-0.002c4.531-0.158,8.081-6.356,7.998-11.383
									c-0.051-2.693-1.023-4.819-2.604-5.684C64.073,48.495,63.367,48.315,62.623,48.315z"/>
							</g>
						</g>
						<g>
							<g>
								<path d="M65.283,59.019c-1.21,3.4-4.117,5.504-6.496,4.693c-2.368-0.819-3.315-4.231-2.114-7.636
									c1.205-3.4,4.116-5.5,6.491-4.689C65.541,52.197,66.488,55.615,65.283,59.019z"/>
							</g>
							<g style="opacity:0.9;">
								<path style="fill:#FFFFFF;" d="M64.528,55.57c0.617-1.048,0.216-2.101-0.522-2.666c-0.649-0.496-2.245-0.559-2.088,0.934
									C62.03,54.92,63.465,57.387,64.528,55.57z"/>
							</g>
						</g>
					</g>
				</g>
				<g>
					<g>
						<g>
							<path style="fill:#FFFFFF;" d="M50.419,40.813c0.555-1.67,1.533-3.059,3.611-5.425c1.507-1.71-1.106-3.892-1.106-3.892
								s0.55,0.134,1.946-0.138c-0.977-1.675-3.203-4.316-3.203-4.316s0,0,2.363,0.983c-1.106-0.983-4.725-3.205-4.725-3.205
								s0.976-0.135,3.338,1.397c-0.692-1.258-3.481-3.203-3.481-3.203l2.229,0.275c0,0-5.562-5.426-11.963-10.15
								c-4.027-2.982-7.058-5.297-8.859-6.603c0.433,1.16,0.967,3.464,1.658,7.289c2.065,4.846,2.351,10.991,5.957,18.779
								C42.356,41.652,49.86,42.48,50.419,40.813z"/>
							<path d="M48.777,41.882L48.777,41.882c-2.327,0-7.607-1.906-10.935-9.121c-2.112-4.563-3.089-8.546-3.949-12.06
								c-0.623-2.538-1.16-4.731-2.012-6.73c-0.691-3.771-1.228-6.134-1.665-7.306c-0.058-0.154-0.007-0.329,0.125-0.43
								c0.13-0.1,0.312-0.103,0.446-0.005c0.938,0.68,2.206,1.631,3.773,2.807c1.449,1.087,3.154,2.366,5.09,3.799
								c5.988,4.42,11.309,9.515,11.939,10.124c0.115,0.063,0.193,0.186,0.193,0.328c0,0.21-0.194,0.403-0.384,0.375
								c-0.017-0.001-0.037,0-0.056-0.003l-0.829-0.103c0.849,0.671,1.936,1.617,2.402,2.384c0.073,0.068,0.119,0.166,0.119,0.274
								c0,0.185-0.133,0.338-0.309,0.369c0.595,0.408,1.138,0.803,1.487,1.104c0.123,0.061,0.208,0.188,0.208,0.336
								c0,0.21-0.175,0.357-0.384,0.375c-0.054,0.003-0.105-0.009-0.154-0.028l-0.986-0.411c0.733,0.924,1.719,2.221,2.295,3.209
								c0.061,0.104,0.067,0.232,0.018,0.343c-0.051,0.111-0.151,0.191-0.27,0.214c-0.404,0.079-0.775,0.132-1.108,0.158
								c0.449,0.525,0.97,1.303,1.033,2.141c0.046,0.599-0.141,1.141-0.555,1.61c-2.164,2.465-3.023,3.751-3.537,5.295
								C50.572,41.535,49.845,41.882,48.777,41.882z M31.27,7.516c0.379,1.363,0.815,3.425,1.325,6.242
								c0.852,1.975,1.396,4.194,2.025,6.766c0.854,3.48,1.82,7.425,3.902,11.923c3.169,6.87,8.093,8.686,10.254,8.686
								c0.787,0,1.213-0.221,1.286-0.438c0.549-1.652,1.444-3.002,3.685-5.553c0.279-0.317,0.4-0.662,0.371-1.057
								c-0.088-1.157-1.423-2.289-1.436-2.3c-0.134-0.112-0.173-0.302-0.095-0.457c0.079-0.156,0.247-0.235,0.424-0.195l0,0
								c0,0,0.333,0.08,1.246-0.05c-1.043-1.615-2.858-3.774-2.879-3.799c-0.111-0.132-0.117-0.323-0.016-0.463
								c0.045-0.061,0.106-0.105,0.174-0.131c-1.213-0.802-2.408-1.537-2.429-1.55c-0.135-0.083-0.203-0.241-0.171-0.396
								s0.159-0.273,0.316-0.294c0.017-0.003,0.101-0.007,0.118-0.007c0.222,0,0.701,0.052,1.493,0.383
								c-0.725-0.633-1.513-1.221-1.919-1.504c-0.141-0.099-0.197-0.281-0.136-0.441c0.062-0.16,0.217-0.265,0.397-0.238
								l1.102,0.136c-1.776-1.669-6.218-5.729-11.104-9.337c-1.938-1.435-3.644-2.715-5.094-3.802
								C33.014,8.814,32.063,8.102,31.27,7.516z"/>
						</g>
						<g>
							<path style="fill:#FFFFFF;" d="M127.348,24.652c-6.818,1.236-19.171,3.418-23.384,6.844c2.222-0.418,3.618,0.697,3.618,0.697
								s-2.923-0.42-5.149,0.828c3.897,0.145,3.897,1.675,3.897,1.675s-3.343-1.253-5.424-0.552
								c2.081,1.521,2.081,1.521,2.081,1.521h-2.778c0,0,1.945,1.387,2.778,3.201c-2.644-1.67-3.477-2.09-3.477-2.09
								s2.503,3.342,2.783,4.73c-1.388-1.807-2.37-2.504-2.37-2.504s1.117,3.755,1.533,6.401c0.417,2.642,2.089,5.419,9.041,4.031
								c6.949-1.39,11.959-5.419,17.804-13.077c0.598-0.779,1.149-1.449,1.666-2.033c2.042-2.983,4.184-6.178,6.462-9.435
								C133.292,24.362,130.371,24.598,127.348,24.652z"/>
							<path d="M107.171,50.182C107.171,50.182,107.171,50.182,107.171,50.182c-3.543-0.001-5.59-1.588-6.084-4.718
								c-0.408-2.592-1.512-6.315-1.522-6.353c-0.046-0.153,0.011-0.319,0.141-0.412c0.131-0.094,0.307-0.093,0.436-0.001
								c0.019,0.013,0.224,0.16,0.566,0.477c-0.557-0.877-1.163-1.727-1.496-2.173c-0.104-0.14-0.1-0.332,0.013-0.466
								c0.112-0.133,0.302-0.173,0.456-0.094c0.027,0.014,0.564,0.287,2.098,1.228c-0.826-1.009-1.772-1.69-1.786-1.699
								c-0.133-0.095-0.189-0.265-0.14-0.42c0.05-0.155,0.194-0.261,0.357-0.261h1.63l-1.154-0.844
								c-0.112-0.083-0.17-0.222-0.149-0.36c0.021-0.138,0.118-0.253,0.251-0.298c1.223-0.411,3.228-0.144,4.474,0.185
								c-0.502-0.269-1.363-0.523-2.841-0.577c-0.168-0.007-0.312-0.124-0.351-0.287c-0.04-0.163,0.034-0.333,0.181-0.415
								c1.011-0.566,2.147-0.808,3.125-0.898c-0.414-0.039-0.884-0.018-1.341,0.067c-0.171,0.037-0.338-0.056-0.409-0.21
								c-0.072-0.156-0.03-0.341,0.103-0.449c4.2-3.416,16.047-5.561,23.125-6.844l0.428-0.078c0.641-0.017,1.218-0.033,1.792-0.051
								c0.921-0.027,1.837-0.055,2.759-0.055c1.789,0,3.271,0.109,4.661,0.344c0.127,0.021,0.233,0.107,0.283,0.226
								c0.05,0.118,0.035,0.254-0.038,0.359c-1.555,2.223-3.046,4.416-4.484,6.532c-0.67,0.984-1.328,1.952-1.976,2.899
								c-0.555,0.632-1.11,1.309-1.678,2.05c-6.229,8.162-11.284,11.868-18.028,13.217
								C109.318,50.055,108.174,50.182,107.171,50.182z M100.64,40.158c0.367,1.341,0.922,3.497,1.188,5.188
								c0.277,1.753,1.132,4.084,5.343,4.085c0.001,0,0.001,0,0.001,0c0.954,0,2.049-0.122,3.254-0.363
								c6.544-1.309,11.473-4.936,17.579-12.937c0.579-0.755,1.145-1.446,1.683-2.054c0.619-0.91,1.277-1.877,1.945-2.861
								c1.335-1.962,2.713-3.99,4.146-6.046c-1.181-0.165-2.452-0.243-3.946-0.243c-0.914,0-1.823,0.027-2.736,0.055
								c-0.577,0.017-1.157,0.034-1.74,0.045l-0.368,0.071c-6.461,1.171-16.934,3.068-21.704,5.938
								c1.555,0.095,2.492,0.83,2.534,0.863c0.132,0.106,0.177,0.286,0.109,0.441c-0.066,0.155-0.227,0.25-0.396,0.223
								c-0.01-0.002-1.805-0.237-3.541,0.234c2.629,0.458,2.717,1.731,2.717,1.897c0,0.123-0.061,0.238-0.161,0.309
								c-0.101,0.069-0.229,0.085-0.346,0.043c-0.02-0.008-2.002-0.741-3.794-0.741c-0.211,0-0.411,0.01-0.6,0.03l1.404,1.026
								c0.131,0.096,0.185,0.265,0.135,0.419c-0.051,0.154-0.194,0.259-0.356,0.259h-1.732c0.662,0.6,1.56,1.551,2.073,2.67
								c0.069,0.15,0.031,0.329-0.094,0.438c-0.125,0.109-0.308,0.121-0.447,0.035c-0.829-0.523-1.479-0.924-1.981-1.227
								c0.752,1.112,1.682,2.614,1.855,3.476c0.035,0.171-0.053,0.344-0.212,0.416c-0.158,0.07-0.346,0.025-0.453-0.113
								C101.475,41.058,101.012,40.538,100.64,40.158z"/>
						</g>
					</g>
					<g>
						<g>
							<path d="M35.262,24.755c0.336,1.425,0.797,2.826,1.315,4.19c0.279,0.678,0.555,1.356,0.869,2.016
								c0.312,0.664,0.635,1.318,0.992,1.957c0.353,0.639,0.747,1.26,1.145,1.87c0.413,0.6,0.847,1.188,1.317,1.739
								c0.231,0.287,0.492,0.543,0.729,0.813c0.268,0.252,0.506,0.521,0.788,0.76c0.536,0.493,1.113,0.931,1.711,1.332
								c0.612,0.398,1.245,0.748,1.916,1.018c0.169,0.067,0.335,0.144,0.501,0.199l0.514,0.176l0.256,0.076
								c0.067,0.023,0.173,0.04,0.256,0.054c0.188,0.045,0.357,0.067,0.541,0.105c0.696,0.101,1.471,0.173,1.91-0.348
								c0.46-0.505,0.685-1.217,0.992-1.89c0.309-0.691,0.761-1.303,1.239-1.863c0.491-0.568,1.017-1.078,1.521-1.599
								c0.131-0.134,0.252-0.267,0.364-0.406c0.107-0.128,0.213-0.276,0.267-0.406c0.005-0.026,0.031-0.081,0.031-0.081l0.005-0.147
								c-0.023-0.066-0.018-0.122-0.05-0.206c-0.04-0.164-0.109-0.328-0.182-0.492c-0.296-0.635-0.714-1.25-1.143-1.83l-0.227-0.295
								l0.375,0.035c0.28,0.022,0.581,0.022,0.862,0.01c0.144-0.024,0.282-0.045,0.408-0.086c0.061-0.025,0.112-0.045,0.164-0.076
								l0.045-0.045c0.004,0,0.004-0.014,0.016-0.021v-0.011l0,0h0.011c0-0.029-0.011,0.035-0.011,0.035v-0.004v-0.021
								c0.011-0.056-0.012-0.031-0.005-0.04c-0.011-0.031-0.021-0.059-0.031-0.084c-0.024-0.061-0.056-0.123-0.097-0.188
								c-0.064-0.124-0.142-0.254-0.227-0.373c-0.161-0.242-0.341-0.48-0.514-0.721c-0.729-0.945-1.49-1.865-2.27-2.771
								l-0.325-0.373l0.464,0.146l2.045,0.68l-0.108,0.215l-3.964-2.836l-0.487-0.346l0.563,0.203l2.572,0.918l-0.049,0.079
								l-2.847-2.622l2.914,2.551l0.184,0.158l-0.238-0.078l-2.588-0.851l0.069-0.148l4.005,2.77l0.667,0.457l-0.766-0.242
								l-2.054-0.644l0.147-0.218c0.793,0.897,1.571,1.807,2.304,2.763c0.184,0.24,0.368,0.485,0.536,0.729
								c0.085,0.126,0.168,0.261,0.244,0.394c0.036,0.07,0.079,0.138,0.112,0.219c0.016,0.035,0.025,0.076,0.043,0.123
								c0.018,0.063,0.022,0.152,0.018,0.178c-0.04,0.154-0.121,0.215-0.204,0.28c-0.085,0.054-0.161,0.09-0.237,0.121
								c-0.166,0.05-0.328,0.071-0.482,0.09c-0.31,0.031-0.611,0.026-0.923,0.005l0.148-0.27c0.441,0.6,0.857,1.209,1.193,1.89
								c0.072,0.173,0.153,0.346,0.2,0.546c0.036,0.088,0.036,0.209,0.056,0.322l-0.011,0.138c-0.009,0.083-0.029,0.112-0.045,0.179
								c-0.076,0.214-0.2,0.362-0.321,0.51c-0.123,0.153-0.247,0.285-0.375,0.42c-0.509,0.535-1.025,1.051-1.494,1.599
								c-0.472,0.552-0.909,1.136-1.201,1.777c-0.308,0.651-0.521,1.386-1.065,1.976c-0.265,0.314-0.688,0.482-1.077,0.508
								c-0.393,0.035-0.77-0.012-1.145-0.068c-0.175-0.033-0.361-0.061-0.539-0.105c-0.092-0.02-0.168-0.033-0.28-0.063
								l-0.271-0.081l-0.525-0.173c-0.175-0.063-0.344-0.139-0.519-0.215c-0.685-0.27-1.338-0.648-1.959-1.047
								c-0.308-0.225-0.613-0.422-0.9-0.66c-0.144-0.118-0.285-0.23-0.429-0.352l-0.408-0.379c-0.281-0.236-0.528-0.521-0.791-0.775
								c-0.242-0.28-0.495-0.549-0.733-0.839c-0.469-0.573-0.892-1.169-1.307-1.782c-0.397-0.617-0.778-1.252-1.122-1.896
								c-0.705-1.298-1.288-2.66-1.787-4.041C35.986,27.599,35.558,26.185,35.262,24.755z"/>
						</g>
					</g>
					<g>
						<g>
							<path d="M111.411,28.268c-1.189,0.379-2.365,0.793-3.515,1.264c-0.57,0.238-1.138,0.492-1.688,0.77l-0.41,0.216
								c-0.14,0.083-0.261,0.164-0.399,0.245c-0.131,0.076-0.238,0.18-0.366,0.271c-0.128,0.08-0.216,0.209-0.328,0.301
								l-0.051-0.119c0.527,0.027,1.048,0.099,1.555,0.211c0.263,0.064,0.519,0.142,0.759,0.258c0.128,0.041,0.24,0.104,0.364,0.176
								l0.175,0.123l0.152,0.143l0.204,0.193l-0.298-0.032l-0.608-0.064l-0.301-0.025c-0.102-0.008-0.197-0.031-0.301-0.026
								l-0.608,0.005l-0.301,0.006l-0.292,0.037l-0.305,0.033c-0.095,0.018-0.195,0.027-0.297,0.051
								c-0.195,0.053-0.388,0.093-0.577,0.148c-0.184,0.072-0.384,0.129-0.559,0.214c-0.085,0.047-0.173,0.087-0.258,0.14
								c-0.076,0.051-0.18,0.096-0.242,0.154l-0.077-0.227c0.185,0.011,0.355,0.033,0.523,0.066c0.166,0.029,0.337,0.07,0.505,0.119
								c0.332,0.095,0.658,0.225,0.968,0.387c0.305,0.159,0.595,0.348,0.866,0.568c0.065,0.056,0.137,0.101,0.197,0.168l0.188,0.175
								c0.131,0.126,0.238,0.251,0.354,0.382l0.425,0.46l-0.608-0.232l-0.64-0.238c-0.22-0.071-0.418-0.18-0.649-0.228l-0.658-0.162
								c-0.112-0.023-0.22-0.058-0.332-0.071l-0.348-0.04l-0.337-0.041c-0.112-0.02-0.225-0.016-0.337-0.016
								c-0.227,0-0.46-0.02-0.678,0.005c-0.231,0.034-0.455,0.034-0.671,0.083c-0.225,0.041-0.449,0.099-0.645,0.175l0.031-0.287
								l2.09,1.526l0.413,0.297l-0.512,0.004l-2.778,0.004l0.085-0.314c0.325,0.189,0.617,0.404,0.907,0.636
								c0.287,0.233,0.557,0.479,0.816,0.743c0.124,0.144,0.254,0.278,0.364,0.424c0.116,0.145,0.224,0.306,0.32,0.453
								c0.097,0.172,0.2,0.335,0.268,0.501c0.04,0.095,0.08,0.183,0.112,0.267l0.08,0.276l0.178,0.564l-0.474-0.388l-0.707-0.577
								l-0.346-0.291c-0.123-0.095-0.231-0.205-0.356-0.285l-0.762-0.485c-0.116-0.092-0.267-0.126-0.388-0.197l-0.204-0.087
								c-0.067-0.032-0.128-0.037-0.188-0.061l0.173-0.267c0.399,0.597,0.773,1.207,1.129,1.826c0.092,0.155,0.173,0.319,0.26,0.477
								c0.088,0.152,0.173,0.316,0.245,0.48c0.071,0.166,0.164,0.323,0.231,0.489l0.197,0.512l0.242,0.62l-0.519-0.441l-0.484-0.42
								c-0.169-0.144-0.321-0.296-0.496-0.42l-0.51-0.382c-0.175-0.111-0.357-0.251-0.532-0.343l0.236-0.173
								c0.099,0.512,0.206,1.021,0.305,1.525c0.119,0.508,0.211,1.018,0.339,1.527l0.357,1.513c0.123,0.512,0.275,1.005,0.408,1.509
								l0.216,0.744l0.045,0.18l0.076,0.171c0.056,0.126,0.097,0.254,0.164,0.359c0.121,0.204,0.233,0.429,0.408,0.624l0.235,0.296
								l0.27,0.267c0.175,0.188,0.384,0.326,0.588,0.49c0.2,0.164,0.429,0.27,0.655,0.401c0.202,0.14,0.454,0.225,0.689,0.323
								c0.116,0.049,0.233,0.107,0.356,0.145l0.368,0.1c0.483,0.164,1.001,0.217,1.511,0.301l0.772,0.037
								c0.133,0,0.254,0.011,0.389,0.011l0.384-0.031l0.778-0.045c0.256-0.032,0.512-0.077,0.768-0.112
								c0.249-0.047,0.512-0.072,0.766-0.135l0.747-0.187c0.517-0.114,0.999-0.29,1.491-0.458c0.246-0.085,0.489-0.161,0.733-0.254
								l0.726-0.301c0.478-0.208,0.963-0.395,1.418-0.646l1.392-0.702l-1.378,0.734c-0.449,0.258-0.936,0.456-1.409,0.671
								l-0.717,0.321c-0.24,0.092-0.491,0.177-0.733,0.265c-0.487,0.18-0.977,0.37-1.488,0.489l-0.754,0.206
								c-0.25,0.065-0.512,0.098-0.768,0.153c-0.261,0.036-0.521,0.092-0.774,0.128l-0.784,0.067l-0.393,0.017
								c-0.139,0.011-0.26,0-0.399-0.009l-0.781-0.016c-0.525-0.081-1.053-0.128-1.558-0.289l-0.382-0.104
								c-0.123-0.041-0.244-0.092-0.37-0.137c-0.242-0.108-0.498-0.193-0.719-0.333c-0.229-0.134-0.476-0.247-0.678-0.419
								c-0.215-0.153-0.441-0.306-0.619-0.501l-0.292-0.274l-0.256-0.309c-0.177-0.198-0.305-0.447-0.446-0.672
								c-0.072-0.119-0.108-0.24-0.162-0.357l-0.085-0.188l-0.057-0.193l-0.22-0.754c-0.137-0.504-0.305-1.002-0.429-1.509
								l-0.363-1.522c-0.126-0.5-0.229-1.014-0.341-1.525c-0.112-0.51-0.221-1.015-0.321-1.531l-0.067-0.332L100,38.862
								c0.209,0.112,0.384,0.24,0.567,0.356l0.532,0.402c0.178,0.125,0.33,0.28,0.505,0.41l0.501,0.436l-0.271,0.173l-0.193-0.484
								c-0.063-0.159-0.148-0.317-0.225-0.48c-0.071-0.153-0.154-0.312-0.235-0.465c-0.097-0.152-0.169-0.312-0.265-0.464
								c-0.349-0.615-0.726-1.215-1.118-1.803l-0.261-0.391l0.422,0.119c0.088,0.019,0.191,0.04,0.254,0.071l0.233,0.095
								c0.137,0.071,0.294,0.121,0.425,0.215l0.797,0.501c0.125,0.083,0.237,0.195,0.365,0.287l0.359,0.294l0.719,0.6l-0.295,0.175
								l-0.078-0.24c-0.021-0.09-0.061-0.157-0.097-0.242c-0.063-0.157-0.154-0.301-0.235-0.458
								c-0.104-0.144-0.188-0.285-0.301-0.424c-0.107-0.137-0.231-0.268-0.348-0.397c-0.233-0.256-0.501-0.489-0.784-0.721
								c-0.265-0.216-0.559-0.429-0.854-0.608l-0.523-0.328h0.613l2.778,0.014l-0.094,0.301l-2.086-1.535l-0.24-0.173l0.272-0.105
								c0.125-0.054,0.237-0.076,0.35-0.114c0.119-0.029,0.24-0.045,0.353-0.072c0.242-0.056,0.476-0.06,0.716-0.085
								c0.235-0.026,0.474-0.005,0.712-0.005c0.116,0,0.233-0.006,0.357,0.018l0.351,0.042l0.353,0.045
								c0.125,0.005,0.227,0.048,0.343,0.07l0.691,0.178c0.23,0.049,0.438,0.161,0.662,0.237l0.665,0.256l-0.183,0.231
								c-0.107-0.123-0.206-0.258-0.329-0.361l-0.173-0.178c-0.062-0.06-0.124-0.105-0.191-0.164
								c-0.247-0.209-0.522-0.386-0.814-0.541c-0.292-0.156-0.586-0.282-0.904-0.383c-0.164-0.043-0.317-0.086-0.48-0.115
								c-0.157-0.033-0.328-0.051-0.48-0.061l-0.337-0.022l0.261-0.202c0.085-0.076,0.18-0.125,0.271-0.186
								c0.092-0.041,0.188-0.086,0.285-0.133c0.184-0.097,0.388-0.148,0.583-0.225c0.202-0.057,0.404-0.097,0.613-0.148
								c0.101-0.029,0.202-0.029,0.305-0.051l0.308-0.029l0.306-0.031h0.316h0.619c0.102-0.005,0.204,0.02,0.301,0.026l0.316,0.034
								l0.613,0.064l-0.09,0.171l-0.135-0.128l-0.144-0.107c-0.107-0.061-0.213-0.121-0.337-0.174
								c-0.231-0.104-0.48-0.18-0.728-0.246c-0.493-0.121-1.003-0.197-1.52-0.24l-0.175-0.01l0.124-0.111
								c0.116-0.108,0.215-0.236,0.358-0.321c0.121-0.093,0.249-0.195,0.382-0.274c0.137-0.076,0.271-0.166,0.408-0.232l0.418-0.216
								c0.559-0.276,1.136-0.515,1.713-0.734C109.036,29.018,110.217,28.625,111.411,28.268z"/>
						</g>
					</g>
				</g>
				<g>
					<g>
						<path d="M71.142,47.03c0,0-1.455-4.757-7.149-5.208c0,0,1.905,0.546,2.538,1.264c-3.983-1.71-7.607-0.172-9.413,1.543
							c0,0,0.816-0.359,1.901-0.633c0,0-3.897,2.177-4.349,6.971c0,0,3.901-6.016,8.133-6.016c3.869,0,6.63,2.019,7.726,4.638
							c-0.729-2.683-0.729-2.683-0.729-2.683s0.788,0.855,1.098,1.652c0,0,0.059-0.797-0.424-2.014
							C70.829,46.605,71.142,47.03,71.142,47.03z M69.303,45.574c-1.302-0.898-3.156-1.502-3.156-1.502s1.751,0.904,3.215,2.906
							c-1.208-1.001-2.514-2.104-5.172-2.555c-4.273-0.702-7.077,2.859-7.077,2.859c-1.809,1.105,1.358-4.197,5.893-4.282
							C68.162,42.902,70.609,46.479,69.303,45.574z"/>
					</g>
				</g>
				<g>
					<g>
						<path d="M94.51,50.332l1.176,0.727c-1.936-3.979-6.794-5.162-6.794-5.162s0,0,2.083,0.276
							c-5.614-3.087-9.051,2.079-9.051,2.079s0.086-0.541,0.726-1.626c-3.355,2.712-2.811,6.147-2.811,6.147
							s0.636-0.718,2.085-2.617c-0.64,0.902-0.909,2.262-0.909,2.262s0.726-1.716,2.983-3.258c-0.897,0.902-0.992,1.722-0.992,1.722
							s2.539-2.896,6.431-2.085c6.339,2.262,6.339,9.777,6.339,9.777C97.4,55.314,94.51,50.332,94.51,50.332z M93.789,51.238
							c-3.834-5.477-9.185-2.441-9.185-2.441c-0.198-0.797,0.527-1.186,0.527-1.186S83.682,48,81.5,49.262
							c4.821-4.954,10.435-2.045,12.617,0.26c-1.711-1.387-3.692-2.04-2.182-0.92C93.457,49.727,95.113,53.293,93.789,51.238z"/>
					</g>
				</g>
				<g style="opacity:0.5;">
					<g>
						<path style="fill:#E98F5E;" d="M39.131,35.604c0,0,1.16,2.064,2.975,3.082C43.914,39.697,39.643,39.379,39.131,35.604z"/>
					</g>
					<g>
						<path style="fill:#E98F5E;" d="M40.581,38.802c0,0,1.549,1.333,3.311,1.618C45.649,40.717,42.105,41.703,40.581,38.802z"/>
					</g>
				</g>
				<g style="opacity:0.5;">
					<g>
						<g>
							<path style="fill:#E98F5E;" d="M100.263,47.455c0,0,1.47,1.857,3.414,2.58C105.618,50.758,101.353,51.096,100.263,47.455z"/>
						</g>
					</g>
				</g>
			</g>
		</g>
	</g>
	<g>
		<g>
			<path d="M86.384,70.709L86.384,70.709c-1.185,0.172-2.294-1.168-2.356-2.214c0.043,0.595,0.104,1.217,0.491,1.704
				c-2.278,0.908-3.981,2.859-6.242,3.789c-1.068,0.44-2.235,0.57-3.359,0.301c-0.791-0.189-2.589-0.762-2.867-1.592
				c-0.08-0.104-0.152-0.205-0.22-0.323c-0.033,0.026-0.069,0.052-0.109,0.071c-0.077,0.113-0.216,0.205-0.468,0.285
				c-1.185,0.363-2.522,0.807-3.779,0.593c-1.41-0.249-2.446-1.264-3.329-2.327c-0.801-0.965-1.537-2.005-2.365-2.949
				c-0.225-0.254-0.474-0.48-0.771-0.658c0.128-0.24,0.209-0.505,0.249-0.771c0.016-0.061,0.041-0.387,0.048-0.734
				c-0.088,0.018-0.169,0.035-0.261,0.051c-0.094,0.53-0.216,1.116-0.265,1.222c-0.099,0.204-1.428,1.29-1.468,1.098
				c0.123,0.593,1.517-0.544,1.62-0.726c1.378,1.496,2.375,3.053,3.257,4.859c0.9,1.805,1.302,3.87,2.402,5.569
				c0.296,0.472,0.531,0.465,0.552,1.048c0.009,0.434,0.052,0.862,0.116,1.289c0.164,0.987,0.48,2.016,1.078,2.828
				c1.167,1.587,3.387,2.104,5.176,1.322c1.495-0.66,2.159-2.155,2.797-3.569c0.303-0.671,0.42-1.487,1.046-1.86
				c0.859-0.506,1.441-1.393,2-2.188c1.274-1.825,2.353-3.789,3.937-5.376c0.47-0.467,1.068-1.271,1.686-0.809
				c0.246,0.198,0.552,0.364,0.868,0.382C86.027,71.036,86.629,70.684,86.384,70.709z"/>
		</g>
		<g>
			<path style="fill:#FFFFFF;" d="M75.076,82.6c-1.08,1.671-2.802,2.385-4.726,1.718c-2.166-0.768-2.882-3.362-2.979-5.421
				c-0.105-2.029,0.656-4.111,3.071-3.627c0.904,0.186,1.827,0.48,1.831,1.483c0.012,0.595,0,1.438-0.237,2
				c0.244-0.572,0.368-1.194,0.417-1.807c0.061-0.752-0.116-0.918,0.752-1.104c0.942-0.211,2.231-0.045,3.075,0.424
				C78.236,77.375,75.889,81.336,75.076,82.6C74.315,83.774,75.55,81.871,75.076,82.6z"/>
			<path d="M71.755,84.94c-0.499,0-1.013-0.091-1.527-0.269c-2.717-0.963-3.164-4.348-3.23-5.758
				c-0.043-0.831,0.021-2.373,0.938-3.338c0.623-0.657,1.501-0.894,2.583-0.674c0.495,0.102,1.374,0.281,1.833,0.896
				c0.154-0.144,0.396-0.242,0.776-0.323c1.009-0.229,2.448-0.032,3.336,0.462c0.456,0.259,0.751,0.653,0.879,1.175
				c0.393,1.59-0.909,4.032-1.815,5.479c-0.057,0.134-0.176,0.328-0.406,0.63c-0.027,0.036-0.061,0.065-0.098,0.089
				C74.157,84.368,73.017,84.94,71.755,84.94z M69.771,75.573c-0.531,0-0.966,0.175-1.293,0.519
				c-0.528,0.557-0.795,1.571-0.732,2.784c0.06,1.261,0.444,4.277,2.729,5.087c1.67,0.581,3.27-0.005,4.278-1.557
				c0.001-0.001,0.002-0.003,0.003-0.004l0.001-0.001c1.411-2.196,2.104-4.104,1.857-5.111c-0.078-0.317-0.248-0.546-0.519-0.699
				c-0.729-0.405-1.959-0.573-2.808-0.384c-0.348,0.074-0.415,0.127-0.425,0.137c-0.011,0.026-0.015,0.162-0.018,0.271
				c-0.003,0.104-0.007,0.223-0.018,0.361c-0.058,0.716-0.207,1.363-0.445,1.922l0,0c0,0.001-0.001,0.001-0.001,0.001
				c-0.081,0.191-0.301,0.28-0.491,0.198c-0.19-0.08-0.279-0.3-0.199-0.49c0.209-0.495,0.219-1.291,0.208-1.847
				c-0.002-0.593-0.417-0.896-1.531-1.124C70.159,75.595,69.958,75.573,69.771,75.573z"/>
		</g>
		<g>
			<path d="M76.126,84.326c-0.832,1.904-3.088,3.441-5.266,3.115c-2.318-0.352-3.865-2.65-4.054-4.816
				c0.202,2.308,1.215,4.379,3.605,5.021C73.026,88.357,75.137,86.587,76.126,84.326C76.144,84.288,75.572,85.604,76.126,84.326z"/>
		</g>
	</g>
	<g>
		<g>
			<path d="M67.397,71.005c-0.342,0.031-0.729,0.496-0.183,0.496C67.514,71.501,67.612,70.982,67.397,71.005z"/>
		</g>
		<g>
			<path d="M68.212,72.266c-0.126-0.469-0.855,0.032-0.536,0.346C67.861,72.807,68.277,72.502,68.212,72.266z"/>
		</g>
		<g>
			<path d="M68.981,70.656c0.112-0.008,0.272-0.096,0.225-0.253c0.012,0.021,0.016,0.034,0,0c-0.004-0.043,0-0.026,0-0.007
				C69.103,70.018,68.207,70.607,68.981,70.656z"/>
		</g>
		<g>
			<path d="M65.321,70.92c-0.263-0.153-0.544,0.301-0.263,0.457C65.325,71.529,65.581,71.072,65.321,70.92z"/>
		</g>
		<g>
			<path d="M66.355,69.672c0.285-0.494-0.806-0.617-0.657-0.059C65.766,69.864,66.217,69.902,66.355,69.672z"/>
		</g>
	</g>
	<g>
		<g>
			<path d="M77.906,71.195c-0.184,0.229-0.135,0.75,0.197,0.413C78.276,71.416,78.023,71.052,77.906,71.195z"/>
		</g>
		<g>
			<path d="M79.168,71.449c-0.359-0.197-0.492,0.548-0.104,0.543C79.294,71.992,79.352,71.553,79.168,71.449z"/>
		</g>
		<g>
			<path d="M78.641,70.018c0.063-0.076,0.103-0.225-0.022-0.297c0.017,0.004,0.026,0.018,0,0c-0.036-0.018-0.014-0.009-0.005,0
				C78.319,69.555,78.144,70.459,78.641,70.018z"/>
		</g>
		<g>
			<path d="M76.613,72.426c-0.256,0.066-0.144,0.512,0.121,0.429C76.99,72.785,76.862,72.35,76.613,72.426z"/>
		</g>
		<g>
			<path d="M76.465,71.045c-0.128-0.48-0.863,0.121-0.433,0.366C76.229,71.521,76.526,71.261,76.465,71.045z"/>
		</g>
	</g>
</g>

    <text x="10" y="832" font-size="12" fill="gray" opacity="0.6" font-family="Arial, sans-serif">
      twoja-kolorowanka.pl
    </text>
  
</svg>
