<?xml version="1.0" encoding="utf-8"?>
<!-- Generator: Adobe Illustrator 27.5.0, SVG Export Plug-In . SVG Version: 6.00 Build 0)  -->
<svg version="1.1" xmlns="http://www.w3.org/2000/svg" xmlns:xlink="http://www.w3.org/1999/xlink" x="0px" y="0px"
	 viewBox="0 0 500 500" style="enable-background:new 0 0 500 500;" xml:space="preserve">
<g id="BACKGROUND">
	<rect style="fill:#FFFFFF;" width="500" height="500"/>
</g>
<g id="OBJECTS">
	<g>
		<path style="fill:#B5B5B5;" d="M498.776,337.07H3.715c-1.631,0-1.634,2.613,0,2.613h495.061
			C500.407,339.683,500.409,337.07,498.776,337.07z"/>
		<path style="fill:#B5B5B5;" d="M58.372,369.983c-0.452-2.549-0.903-5.098-1.355-7.647c-0.293-1.652-2.736-0.952-2.445,0.695
			l1.355,7.647C56.22,372.33,58.664,371.63,58.372,369.983z"/>
		<path style="fill:#B5B5B5;" d="M63.484,362.053c-0.645-1.54-2.83-0.21-2.189,1.319c0.561,1.338,0.667,2.77,0.484,4.202
			c-0.09,0.706,0.647,1.3,1.268,1.307c0.759,0.008,1.179-0.61,1.268-1.307C64.559,365.656,64.223,363.818,63.484,362.053z"/>
		<path style="fill:#B5B5B5;" d="M95.124,394.769c-0.543-0.994-0.695-2.081-0.434-3.191c0.385-1.634-2.059-2.331-2.445-0.695
			c-0.422,1.791-0.188,3.597,0.689,5.204C93.735,397.554,95.926,396.238,95.124,394.769z"/>
		<path style="fill:#B5B5B5;" d="M102.485,394.394c-0.336-1.876-0.673-3.751-1.009-5.627c-0.296-1.652-2.74-0.952-2.445,0.695
			c0.336,1.876,0.673,3.751,1.009,5.627C100.337,396.74,102.78,396.041,102.485,394.394z"/>
		<path style="fill:#B5B5B5;" d="M255.935,402.672c-0.24-1.388-0.48-2.776-0.719-4.163c-0.286-1.653-2.729-0.953-2.445,0.695
			c0.24,1.388,0.48,2.776,0.72,4.163C253.776,405.02,256.219,404.319,255.935,402.672z"/>
		<path style="fill:#B5B5B5;" d="M263.763,399.628c-0.504-0.764-0.683-1.583-0.452-2.486c0.418-1.628-2.027-2.322-2.445-0.695
			c-0.394,1.535-0.164,3.179,0.707,4.499C262.486,402.33,264.684,401.024,263.763,399.628z"/>
		<path style="fill:#B5B5B5;" d="M292.388,372.051c-0.474-1.382-0.949-2.763-1.423-4.145c-0.541-1.575-2.991-0.896-2.445,0.695
			c0.474,1.382,0.949,2.763,1.423,4.145C290.484,374.321,292.934,373.642,292.388,372.051z"/>
		<path style="fill:#B5B5B5;" d="M298.44,372.438c-0.228-1.945-0.745-3.758-1.619-5.501c-0.75-1.494-2.938-0.174-2.189,1.319
			c0.655,1.305,1.101,2.719,1.273,4.182c0.083,0.706,0.523,1.299,1.268,1.307C297.794,373.751,298.522,373.138,298.44,372.438z"/>
		<path style="fill:#B5B5B5;" d="M434.626,367.915c-0.273-1.38-0.546-2.761-0.819-4.141c-0.326-1.647-2.77-0.95-2.445,0.695
			c0.273,1.38,0.546,2.761,0.819,4.141C432.507,370.257,434.951,369.559,434.626,367.915z"/>
		<path style="fill:#B5B5B5;" d="M441.527,363.406v4.867c0,1.682,2.535,1.685,2.535,0v-4.867
			C444.062,361.725,441.527,361.722,441.527,363.406z"/>
		<path style="fill:#B5B5B5;" d="M414.548,426.676v2.781c0,1.682,2.535,1.685,2.535,0v-2.781
			C417.083,424.994,414.548,424.992,414.548,426.676z"/>
		<path style="fill:#B5B5B5;" d="M429.756,424.959l-0.707-3.47c-0.335-1.645-2.779-0.949-2.445,0.695
			c0.236,1.157,0.471,2.313,0.706,3.47C427.646,427.299,430.091,426.603,429.756,424.959z"/>
		<path style="fill:#B5B5B5;" d="M259.695,451.086c-0.543-0.994-0.695-2.081-0.434-3.19c0.385-1.634-2.059-2.331-2.445-0.695
			c-0.422,1.791-0.188,3.597,0.689,5.204C258.306,453.871,260.497,452.555,259.695,451.086z"/>
		<path style="fill:#B5B5B5;" d="M137.585,439.97c-0.549-1.226-0.675-2.581-0.401-3.896c0.341-1.64-2.102-2.341-2.445-0.695
			c-0.426,2.05-0.194,4.011,0.657,5.91C136.079,442.815,138.265,441.488,137.585,439.97z"/>
		<path style="fill:#B5B5B5;" d="M152.776,415.184c-0.279-1.845-0.557-3.691-0.836-5.536c-0.25-1.657-2.693-0.953-2.445,0.695
			c0.279,1.846,0.557,3.691,0.836,5.536C150.581,417.535,153.025,416.832,152.776,415.184z"/>
		<path style="fill:#B5B5B5;" d="M40.08,433.252c-0.654-1.631-1.308-3.262-1.962-4.893c-0.263-0.657-0.839-1.108-1.559-0.913
			c-0.6,0.163-1.146,0.956-0.885,1.608l1.961,4.893c0.263,0.657,0.839,1.108,1.559,0.913
			C39.794,434.696,40.341,433.903,40.08,433.252z"/>
		<path style="fill:#B5B5B5;" d="M47.392,431.901c-0.431-1.628-0.862-3.255-1.293-4.883c-0.429-1.621-2.876-0.933-2.445,0.695
			c0.431,1.628,0.862,3.255,1.293,4.883C45.377,434.216,47.823,433.529,47.392,431.901z"/>
		<path style="fill:#B5B5B5;" d="M122.191,469.113c-0.555-1.336-0.672-2.764-0.51-4.195c0.08-0.707-0.64-1.3-1.268-1.307
			c-0.751-0.008-1.188,0.609-1.268,1.307c-0.217,1.919,0.124,3.75,0.856,5.514c0.271,0.654,1.193,0.787,1.734,0.469
			C122.391,470.516,122.459,469.758,122.191,469.113z"/>
		<path style="fill:#B5B5B5;" d="M281.853,468.066c-0.279,1.846-0.557,3.691-0.836,5.536c-0.249,1.645,2.194,2.354,2.445,0.695
			c0.279-1.845,0.557-3.691,0.836-5.536C284.546,467.115,282.103,466.406,281.853,468.066z"/>
		<path style="fill:#B5B5B5;" d="M412.465,467.319l-1.374-6.948c-0.326-1.647-2.77-0.95-2.445,0.695
			c0.458,2.316,0.916,4.632,1.374,6.947C410.346,469.66,412.79,468.963,412.465,467.319z"/>
		<path style="fill:#B5B5B5;" d="M417.153,458.959c-0.575-1.556-3.027-0.881-2.445,0.695c0.586,1.587,0.801,3.225,0.511,4.905
			c-0.285,1.645,2.158,2.35,2.445,0.695C418.033,463.119,417.905,460.993,417.153,458.959z"/>
		<path style="fill:#B5B5B5;" d="M220.962,340.847c-9.186-14.067-19.496-27.363-30.299-40.217c-2.721-3.237-5.473-6.448-8.249-9.638
			c-2.546-2.927-5.045-5.928-7.893-8.57c-5.027-4.663-11.73-8.399-18.617-5.492c-3.956,1.67-7.036,4.871-10.115,7.76
			c-3.279,3.076-6.557,6.153-9.836,9.229c-3.551-3.768-8.147-7.694-13.606-6.822c-2.935,0.469-5.307,2.424-7.379,4.429
			c-2.521,2.44-4.938,4.994-7.283,7.603c-2.641,2.939-5.171,5.974-7.599,9.091c-0.044,0.057-0.08,0.115-0.112,0.173
			c-6.62-8.014-13.533-15.786-20.733-23.286c-6.683-6.961-13.742-13.971-22.382-18.479c-4.184-2.184-8.703-3.697-13.419-4.115
			c-4.596-0.407-9.212,0.359-13.567,1.823c-10.121,3.401-18.85,10.002-29.118,13.029c-1.326,0.391-0.762,2.47,0.572,2.076
			c8.956-2.641,16.743-7.939,25.28-11.566c4.143-1.76,8.54-3.101,13.062-3.295c4.694-0.202,9.353,0.83,13.64,2.719
			c8.675,3.824,15.798,10.475,22.335,17.185c7.45,7.648,14.604,15.585,21.447,23.781c7.762,9.298,15.108,18.937,22.031,28.875
			c0.787,1.129,2.654,0.054,1.859-1.087c-6.221-8.929-12.785-17.619-19.673-26.043c0.106-0.061,0.207-0.147,0.301-0.268
			c2.551-3.276,5.216-6.461,8.002-9.539c2.593-2.865,5.236-5.786,8.148-8.332c2.681-2.344,5.843-3.479,9.286-2.106
			c2.935,1.17,5.336,3.465,7.48,5.772c-0.104,0.691,0.628,1.379,1.345,1.215c0.598,0.134,1.215-0.392,1.285-1.011l8.461-7.939
			c2.759-2.588,5.438-5.458,8.618-7.54c2.928-1.916,6.263-2.765,9.702-1.87c3.303,0.86,6.177,2.936,8.673,5.195
			c2.715,2.457,5.085,5.261,7.488,8.015c2.647,3.035,5.275,6.087,7.874,9.163c5.225,6.182,10.343,12.458,15.272,18.879
			c5.554,7.235,10.871,14.651,15.859,22.288C219.857,343.09,221.723,342.012,220.962,340.847z"/>
		<path style="fill:#B5B5B5;" d="M281.157,337.585c9.186-14.067,17.377-24.101,28.181-36.956c2.721-3.237,5.473-6.448,8.249-9.638
			c2.546-2.927,5.045-5.928,7.893-8.57c5.027-4.663,11.73-8.399,18.617-5.492c3.956,1.67,7.036,4.871,10.115,7.76
			c3.279,3.076,6.557,6.153,9.836,9.229c3.551-3.768,8.147-7.694,13.606-6.822c2.935,0.469,5.307,2.424,7.379,4.429
			c2.521,2.44,4.939,4.994,7.283,7.603c2.641,2.939,5.171,5.974,7.599,9.091c0.044,0.057,0.08,0.115,0.112,0.173
			c6.62-8.014,13.533-15.786,20.733-23.286c6.683-6.961,13.742-13.971,22.382-18.479c4.184-2.184,8.703-3.697,13.418-4.115
			c4.596-0.407,9.212,0.359,13.567,1.823c10.121,3.401,18.85,10.002,29.118,13.029c1.326,0.391,0.762,2.47-0.572,2.076
			c-8.956-2.641-16.743-7.939-25.28-11.566c-4.143-1.76-8.54-3.101-13.062-3.295c-4.694-0.202-9.353,0.83-13.64,2.719
			c-8.675,3.824-15.798,10.475-22.335,17.185c-7.45,7.648-14.604,15.585-21.447,23.781c-7.762,9.298-15.108,18.937-22.031,28.875
			c-0.787,1.129-2.654,0.054-1.859-1.087c6.221-8.929,12.785-17.619,19.673-26.043c-0.106-0.061-0.207-0.147-0.301-0.268
			c-2.551-3.276-5.216-6.461-8.002-9.539c-2.593-2.865-5.236-5.786-8.148-8.332c-2.681-2.344-5.843-3.479-9.286-2.106
			c-2.935,1.17-5.336,3.465-7.48,5.772c0.104,0.691-0.629,1.379-1.345,1.215c-0.598,0.134-1.215-0.392-1.285-1.011l-8.461-7.939
			c-2.759-2.588-5.438-5.458-8.618-7.54c-2.928-1.916-6.263-2.765-9.702-1.87c-3.302,0.86-6.177,2.936-8.673,5.195
			c-2.715,2.457-5.085,5.261-7.488,8.015c-2.647,3.035-5.275,6.087-7.874,9.163c-5.225,6.182-10.343,12.458-15.272,18.879
			c-5.554,7.235-8.753,11.389-13.74,19.027C282.261,339.828,280.396,338.75,281.157,337.585z"/>
	</g>
	<g>
		<path style="fill:#B5B5B5;" d="M176.738,166.355c-2.924-1.13-6.206-1.014-9.128,0.05c0.15-6.297-2.517-12.589-7.062-16.952
			c-5.209-5-12.58-6.846-19.606-5.477c-3.545,0.691-6.868,2.247-9.677,4.495c-1.166-8.212-5.449-15.837-11.802-21.199
			c-7.228-6.1-16.739-9.191-26.157-9.043c-17.738,0.278-34.18,11.956-40.152,28.658c-3.219,9.004-3.436,19.062-0.537,28.173
			c-6.707-2.264-14.506-0.374-19.639,4.547c-6.037,5.788-6.623,14.919-2.646,22.044c1.995,3.575,5.053,6.442,8.785,8.071
			c-2.656,9.616,3.131,19.368,11.328,24.319c8.989,5.428,20.403,6.44,30.541,4.349c5.913-1.22,11.58-3.598,16.594-6.959
			c1.39-0.932,0.083-3.197-1.319-2.257c-8.127,5.45-17.918,8.119-27.691,7.523c-9.25-0.564-19.595-4.174-24.636-12.476
			c-2.716-4.473-3.686-9.908-1.957-14.914c0.242-0.699-0.281-1.387-0.913-1.607c-6.579-2.291-10.838-9.267-10.707-16.112
			c0.137-7.091,5.488-12.623,12.16-14.344c3.72-0.959,7.727-0.691,11.165,1.079c0.733,0.378,1.425,0.025,1.762-0.522
			c0.41-0.264,0.646-0.737,0.416-1.346c-6.05-16.027-1.465-34.745,11.667-45.833c13.013-10.987,32.602-13.259,47.082-3.735
			c7.9,5.196,13.449,13.932,14.251,23.41c0.088,1.041,1.144,1.436,1.888,1.175c0.415,0.154,0.903,0.112,1.323-0.267
			c6.018-5.446,15.494-6.726,22.66-2.812c7.1,3.878,11.114,12.148,10.111,20.115c-0.13,1.03,1.191,1.567,1.966,1.128
			c3.048-1.723,7.002-2.061,10.133-0.33c2.806,1.551,4.411,4.689,4.119,7.88c-0.716,7.823-10.548,6.912-16.024,5.908
			c-0.762-0.14-1.731,0.345-1.654,1.26c0.468,5.612-3.55,10.878-9.086,11.91c-0.315,0.059-0.544,0.199-0.698,0.384
			c-0.34,0.201-0.592,0.555-0.608,1.063c-0.291,9.195-4.258,18.087-10.773,24.565c-6.753,6.715-16.134,10.352-25.62,10.41
			c-5.929,0.036-11.329-1.559-16.806-3.696c-1.568-0.612-2.247,1.915-0.695,2.52c5.212,2.034,10.396,3.592,16.027,3.771
			c5.085,0.161,10.241-0.65,15.022-2.39c9.35-3.403,17.065-10.333,21.458-19.266c2.302-4.682,3.662-9.759,3.957-14.962
			c5.799-1.368,10.215-6.844,10.463-12.761c5.715,0.906,12.701,1.136,16.194-4.212C185.839,176.146,182.608,168.623,176.738,166.355
			z"/>
		<path style="fill:#B5B5B5;" d="M457.551,152.479c-2.924-1.13-6.206-1.014-9.128,0.05c0.15-6.297-2.517-12.589-7.062-16.952
			c-5.209-5-12.58-6.846-19.606-5.477c-3.544,0.69-6.868,2.247-9.677,4.495c-1.166-8.212-5.449-15.837-11.802-21.199
			c-7.228-6.1-16.739-9.191-26.157-9.043c-17.738,0.278-34.18,11.956-40.152,28.658c-3.219,9.004-3.436,19.062-0.537,28.173
			c-6.707-2.264-14.506-0.374-19.639,4.548c-6.037,5.788-6.623,14.919-2.647,22.044c1.995,3.575,5.053,6.442,8.784,8.071
			c-2.656,9.616,3.131,19.368,11.328,24.318c8.989,5.428,20.403,6.44,30.541,4.349c5.913-1.22,11.581-3.597,16.594-6.959
			c1.39-0.932,0.083-3.197-1.319-2.257c-8.127,5.45-17.918,8.119-27.691,7.523c-9.25-0.564-19.595-4.174-24.636-12.476
			c-2.716-4.473-3.686-9.908-1.957-14.914c0.242-0.699-0.281-1.387-0.913-1.607c-6.579-2.291-10.838-9.267-10.707-16.113
			c0.137-7.091,5.488-12.623,12.16-14.344c3.72-0.959,7.727-0.691,11.165,1.079c0.733,0.378,1.425,0.025,1.762-0.522
			c0.409-0.264,0.645-0.737,0.416-1.346c-6.05-16.027-1.466-34.745,11.667-45.833c13.013-10.987,32.602-13.26,47.082-3.735
			c7.9,5.196,13.449,13.931,14.25,23.41c0.088,1.041,1.144,1.436,1.888,1.175c0.415,0.154,0.903,0.112,1.323-0.267
			c6.018-5.447,15.494-6.726,22.66-2.812c7.1,3.878,11.114,12.148,10.111,20.115c-0.129,1.03,1.191,1.567,1.966,1.128
			c3.047-1.723,7.002-2.061,10.133-0.33c2.806,1.551,4.411,4.689,4.119,7.88c-0.716,7.823-10.548,6.912-16.024,5.908
			c-0.762-0.14-1.73,0.345-1.654,1.26c0.468,5.612-3.55,10.878-9.086,11.911c-0.315,0.059-0.544,0.199-0.698,0.384
			c-0.34,0.201-0.592,0.555-0.608,1.063c-0.291,9.195-4.258,18.087-10.773,24.565c-6.753,6.715-16.134,10.352-25.62,10.41
			c-5.929,0.036-11.329-1.559-16.806-3.696c-1.568-0.612-2.247,1.914-0.695,2.52c5.213,2.034,10.396,3.592,16.027,3.771
			c5.085,0.161,10.241-0.65,15.022-2.39c9.35-3.403,17.065-10.333,21.458-19.266c2.302-4.682,3.662-9.759,3.957-14.962
			c5.799-1.368,10.215-6.844,10.463-12.761c5.715,0.906,12.701,1.136,16.194-4.212C466.652,162.27,463.421,154.747,457.551,152.479z
			"/>
		<path style="fill:#B5B5B5;" d="M307.488,107.846c3.477-6.455,2.064-13.965-2.148-19.727c-2.187-2.992-5.044-5.398-8.255-7.207
			c4.044-6.017,4.599-14.297,1.075-20.696c-3.701-6.719-11.246-10.678-18.828-10.251c-0.052-0.128-0.129-0.256-0.236-0.38
			c-5.902-6.839-14.574-11.066-23.588-11.601c-8.982-0.533-17.846,2.863-24.389,9.001c-3.218,3.019-5.817,6.626-7.637,10.632
			c-4.689-3.568-10.669-5.146-16.56-4.321c-6.625,0.929-12.421,5.192-15.555,11.068c-1.515,2.84-2.438,5.944-2.615,9.14
			c-5.618-1.865-12.28,0.361-15.008,5.896c-1.525,3.093-1.647,6.765-0.48,9.994c0.597,1.653,1.586,3.074,2.797,4.335
			c1.546,1.61,2.549,2.943,2.774,5.216c0.177,1.795,0.162,3.596,0.403,5.389c0.253,1.883,0.664,3.744,1.222,5.559
			c1.084,3.526,2.672,6.85,4.784,9.878c4.114,5.899,10.244,10.26,17.315,11.75c7.424,1.564,15.409,0.153,21.435-4.552
			c0.049,0.037,0.102,0.073,0.16,0.106c2.005,1.134,3.314,2.972,4.902,4.585c1.561,1.586,3.364,2.819,5.359,3.799
			c3.75,1.843,7.986,2.821,12.144,3.11c8.229,0.572,16.441-1.743,23.164-6.516c3.553-2.522,6.617-5.714,9.032-9.337
			c2.436,1.201,5.32,1.413,7.916,0.488c3.09-1.101,5.306-3.725,6.204-6.798C298.909,117,304.677,113.066,307.488,107.846z
			 M291.975,113.647c-0.734-0.139-1.296,0.583-1.396,1.211c-0.846,5.318-6.559,7.637-10.931,5.351
			c-0.233-0.486-0.752-0.829-1.265-0.826c-0.052-0.042-0.106-0.08-0.158-0.123c-1.227-1.029-2.615,0.887-1.636,1.998
			c-8.577,12.722-25.382,18.37-39.804,12.417c-2.273-0.938-4.354-2.241-6.05-4.033c-1.605-1.696-3.038-3.553-5.104-4.722
			c-0.365-0.206-0.732-0.225-1.053-0.125c-0.424-0.492-1.165-0.717-1.81-0.187c-4.811,3.958-11.138,5.461-17.272,4.763
			c-6.288-0.716-11.981-3.847-16.143-8.588c-4.417-5.031-7.034-11.499-7.685-18.139c-0.317-3.226-0.003-6.399-2.185-9.077
			c-1.087-1.335-2.45-2.383-3.262-3.933c-0.7-1.337-1.086-2.83-1.132-4.338c-0.103-3.393,1.465-6.701,4.425-8.453
			c2.93-1.734,6.771-1.951,9.786-0.304c0.767,0.419,2.081,0.109,2.041-0.986c-0.278-7.615,4.114-15.122,11.123-18.28
			c6.688-3.013,15.133-1.643,20.546,3.304c0.731,0.668,1.841,0.591,2.234-0.419c2.967-7.62,9.045-13.821,16.513-17.118
			c7.622-3.366,16.314-3.211,23.965-0.011c4.376,1.83,8.283,4.66,11.38,8.249c0.086,0.099,0.177,0.178,0.271,0.243
			c0.143,0.619,0.673,1.178,1.48,1.093c6.805-0.72,13.95,2.955,17.128,9.064c3.143,6.043,2.292,13.631-1.91,18.94
			c-0.583,0.737-0.046,1.631,0.654,1.974c5.711,2.799,10.613,8.115,11.875,14.471c1.123,5.657-1.25,11.346-5.971,14.648
			C298.084,113.486,295.033,114.227,291.975,113.647z"/>
	</g>
	<g>
		<path style="fill:#FFFFFF;" d="M65.403,188.106c4.196,0.353,8.252,0.436,8.293,0.436c0.008,0,0.017,0,0.026,0
			c0.242,0,0.478-0.067,0.684-0.193l31.21-19.126c5.003,3.7,9.724,5.014,13.846,5.082c0.009,0.106,0.028,0.213,0.065,0.318
			l17.482,49.685c0.006,3.236,0.151,34.684,3.554,48.296c3.379,13.518,22.34,29.241,25.225,31.57l29.823,108.762l-11.315,32.329
			c-0.14,0.401-0.077,0.844,0.168,1.191c0.246,0.346,0.644,0.552,1.068,0.552h21.673c0.553,0,1.047-0.347,1.233-0.868l9.798-27.352
			c0.327-0.75,2.866-7.165,0.061-19.587c-2.158-9.555-3.502-14.243-4.053-16.027c1.032-0.897,2.94-2.774,4.667-5.641l17.773,43.623
			l-10.109,23.892c-0.171,0.404-0.128,0.868,0.114,1.234c0.243,0.366,0.653,0.586,1.092,0.586h21.605
			c0.604,0,1.129-0.413,1.273-0.999l7.666-31.363c0.06-0.245,0.048-0.502-0.035-0.74l-12.017-34.708
			c6.621-6.122,9.656-19.935,7.939-36.436c-1.366-13.134-3.944-25.468-4.907-29.819c2.682,0.09,5.344,0.134,7.976,0.134
			c18.202,0,35.023-2.015,47.941-4.21c9.183-1.56,17.24-3.344,23.629-4.932c1.62,7.572,9.696,45.324,11.252,52.483
			c1.61,7.406,8.43,19.385,9.888,21.893l-10.588,47.295l-17.169,21.786c-0.311,0.394-0.369,0.931-0.15,1.383
			c0.219,0.451,0.677,0.738,1.179,0.738h21.954c0.394,0,0.767-0.178,1.016-0.483l17.075-20.975c0.108-0.133,0.189-0.285,0.238-0.449
			l16.198-53.756c1.571,1.079,2.879,1.819,3.597,2.201l9.872,47.33l-12.262,24.231c-0.206,0.406-0.186,0.89,0.053,1.277
			c0.238,0.388,0.661,0.624,1.116,0.624h20.484c0.507,0,0.968-0.292,1.184-0.75c2.153-4.556,12.891-27.439,12.891-30.544
			c0-0.28,0.008-1.071,0.02-2.277c0.058-5.765,0.213-21.08,0.05-35.5c-0.004-0.372-0.009-0.737-0.013-1.1
			c1.153-0.921,2.266-1.893,3.334-2.916c0.271-0.117,0.508-0.326,0.657-0.644c2.334-2.321,4.455-4.887,6.35-7.683
			c0.241-0.094,0.459-0.282,0.613-0.59c0.212-0.423,0.409-0.85,0.598-1.279c4.319-6.961,7.329-15.216,8.883-24.506
			c0.89-5.321,1.175-10.142,1.208-13.927c2.834,11.157,1.707,24.212,1.692,24.374c-0.056,0.615,0.325,1.185,0.915,1.369
			c0.59,0.184,1.227-0.069,1.53-0.607c10.744-19.046,3.533-36.81-2.261-51.084c-3.138-7.732-3.59-14.981-4.214-25.015
			c-0.557-8.945-1.25-20.078-4.112-35.583c-2.703-14.642-7.466-26.232-13.773-33.518c-4.842-5.593-10.693-8.631-15.648-8.129
			c-6.845,0.693-31.388-2.724-34.186-3.119c-9.26-5.479-19.199-10.802-22.291-10.41c-5.515,0.701-42.61,8.7-45.682,9.363
			l-49.414-0.889c-0.517-0.481-1.259-0.4-1.75-0.032l-8.952-0.161c-0.419-0.248-0.826-0.215-1.15-0.021l-25.98-0.468
			c-8.618-5.085-17.14-8.275-23.184-10.138c-0.019-0.045-0.034-0.091-0.058-0.134c-0.047-0.085-4.884-8.833-19.766-38.906
			c-3.136-6.337-6.641-11.755-10.178-16.347c-0.092-0.278-0.269-0.488-0.489-0.63c-5.213-6.65-10.462-11.511-14.672-14.85
			c-6.609-5.24-11.848-7.768-13.476-8.491c-0.799-1.925-3.818-9.155-6.991-16.281c-2.169-4.872-3.987-8.747-5.402-11.517
			c-2.604-5.095-3.494-5.947-4.69-5.79c-0.277,0.036-1.194,0.253-1.365,1.533c-0.26,1.952-0.936,7.695-1.636,13.741
			c-1.517-2.433-3.702-5.839-5.383-8.053c-1.958-2.579-4.035-3.68-5.698-3.021c-1.036,0.41-2.196,1.604-1.843,4.96
			c0.441,4.19,2.384,21.058,2.865,25.226c-6.28,2.965-11.201,8.064-14.467,15.079c-3.027,6.502-3.715,12.614-3.857,14.397
			c-1.565,1.603-8.287,8.512-14.963,15.69c-15.625,16.802-15.783,18.657-15.86,19.549c-0.337,3.942,1.278,13.231,3.067,15.736
			C55.72,186.404,57.465,187.439,65.403,188.106z"/>
		<g>
			<path style="fill:#222221;" d="M57.813,171.962c-1.619,0.46-0.931,2.989,0.696,2.526c2.014-0.573,3.962,0.14,5.25,1.763
				c1.048,1.32,2.89-0.545,1.852-1.852C63.769,172.077,60.641,171.157,57.813,171.962z"/>
			<path style="fill:#222221;" d="M106.773,124.49c-2.815,0-5.097,2.282-5.097,5.097c0,2.815,2.282,5.097,5.097,5.097
				c2.815,0,5.097-2.282,5.097-5.097C111.87,126.772,109.588,124.49,106.773,124.49z"/>
			<path style="fill:#222221;" d="M440.257,301.708c-3.138-7.732-3.59-14.981-4.214-25.015c-0.557-8.945-1.25-20.078-4.112-35.583
				c-2.703-14.642-7.466-26.232-13.773-33.518c-4.842-5.593-10.693-8.631-15.648-8.129c-6.845,0.693-31.388-2.724-34.186-3.119
				c-9.26-5.479-19.199-10.802-22.291-10.41c-5.515,0.701-42.61,8.7-45.682,9.363l-49.414-0.889c-0.517-0.481-1.259-0.4-1.75-0.032
				l-8.952-0.161c-0.419-0.248-0.826-0.215-1.15-0.021l-25.98-0.468c-8.618-5.085-17.14-8.275-23.184-10.138
				c-0.019-0.045-0.034-0.091-0.058-0.134c-0.047-0.085-4.884-8.833-19.766-38.906c-3.136-6.337-6.641-11.755-10.178-16.347
				c-0.092-0.278-0.269-0.488-0.489-0.63c-5.213-6.65-10.462-11.511-14.672-14.85c-6.609-5.24-11.848-7.768-13.476-8.491
				c-0.799-1.925-3.818-9.155-6.991-16.281c-2.169-4.872-3.987-8.747-5.402-11.517c-2.604-5.095-3.494-5.947-4.69-5.79
				c-0.277,0.036-1.194,0.253-1.365,1.533c-0.26,1.952-0.936,7.695-1.636,13.741c-1.517-2.433-3.702-5.839-5.383-8.053
				c-1.958-2.579-4.035-3.68-5.698-3.021c-1.036,0.41-2.196,1.604-1.843,4.96c0.441,4.19,2.384,21.058,2.865,25.226
				c-6.28,2.965-11.201,8.064-14.467,15.079c-3.027,6.502-3.715,12.614-3.857,14.397c-1.565,1.603-8.287,8.512-14.963,15.69
				c-15.625,16.802-15.783,18.657-15.86,19.549c-0.337,3.942,1.278,13.231,3.067,15.736c0.66,0.924,2.404,1.958,10.343,2.626
				c4.196,0.353,8.252,0.436,8.293,0.436c0.008,0,0.017,0,0.026,0c0.242,0,0.478-0.067,0.684-0.193l31.21-19.126
				c5.003,3.7,9.724,5.014,13.846,5.082c0.009,0.106,0.028,0.213,0.065,0.318l17.482,49.685c0.006,3.236,0.151,34.684,3.554,48.296
				c3.379,13.518,22.34,29.241,25.225,31.57l29.823,108.762l-11.315,32.329c-0.14,0.401-0.077,0.844,0.168,1.191
				c0.246,0.346,0.644,0.552,1.068,0.552h21.673c0.553,0,1.047-0.347,1.233-0.868l9.798-27.352c0.327-0.75,2.866-7.165,0.061-19.587
				c-2.158-9.555-3.502-14.243-4.053-16.027c1.032-0.897,2.94-2.774,4.667-5.641l17.773,43.623l-10.109,23.892
				c-0.171,0.404-0.128,0.868,0.114,1.234c0.243,0.366,0.653,0.586,1.092,0.586h21.605c0.604,0,1.129-0.413,1.273-0.999
				l7.666-31.363c0.06-0.245,0.048-0.502-0.035-0.74l-12.017-34.708c6.621-6.122,9.656-19.935,7.939-36.436
				c-1.366-13.134-3.944-25.468-4.907-29.819c2.682,0.09,5.344,0.134,7.976,0.134c18.202,0,35.023-2.015,47.941-4.21
				c9.183-1.56,17.24-3.344,23.629-4.932c1.62,7.572,9.696,45.324,11.252,52.483c1.61,7.406,8.43,19.385,9.888,21.893
				l-10.588,47.295l-17.169,21.786c-0.311,0.394-0.369,0.931-0.15,1.383c0.219,0.451,0.677,0.738,1.179,0.738h21.954
				c0.394,0,0.767-0.178,1.016-0.483l17.075-20.975c0.108-0.133,0.189-0.285,0.238-0.449l16.198-53.756
				c1.571,1.079,2.879,1.819,3.597,2.201l9.872,47.33l-12.262,24.231c-0.206,0.406-0.186,0.89,0.053,1.277
				c0.238,0.388,0.661,0.624,1.116,0.624h20.484c0.507,0,0.968-0.292,1.184-0.75c2.153-4.556,12.891-27.439,12.891-30.544
				c0-0.28,0.008-1.071,0.02-2.277c0.058-5.765,0.213-21.08,0.05-35.5c-0.004-0.372-0.009-0.737-0.013-1.1
				c1.153-0.921,2.266-1.893,3.334-2.916c0.271-0.117,0.508-0.326,0.657-0.644c2.334-2.321,4.455-4.887,6.35-7.683
				c0.241-0.094,0.459-0.282,0.613-0.59c0.212-0.423,0.409-0.85,0.598-1.279c4.319-6.961,7.329-15.216,8.883-24.506
				c0.89-5.321,1.175-10.142,1.208-13.927c2.834,11.157,1.707,24.212,1.692,24.374c-0.056,0.615,0.325,1.185,0.915,1.369
				c0.59,0.184,1.227-0.069,1.53-0.607C453.262,333.746,446.051,315.982,440.257,301.708z M237.936,202.189
				c-2.014-2.038-4.223-3.88-6.576-5.513l8.056,0.145c14.513,10.206,14.988,29.904,14.797,46.01
				c-1.256,0.217-2.505,0.469-3.746,0.758C253.28,228.677,248.662,213.046,237.936,202.189z M254.121,214.098
				c-2.009-6.512-5.432-12.634-10.464-17.201l5.896,0.106c3.946,6.133,7.357,12.668,9.403,19.691
				c1.051,3.607,1.734,7.319,1.87,11.078c0.066,1.821,0.011,3.647-0.179,5.459c-0.04,0.382,0.02,1.067-0.186,1.408
				c-0.322,0.533-0.542,0.428-1.114,0.469c-0.828,0.059-1.657,0.107-2.486,0.155C256.773,228.11,256.234,220.947,254.121,214.098z
				 M207.236,193.497c0.929,7.346,6.018,13.035,11.413,17.738c5.795,5.053,12.023,9.74,14.835,17.18
				c0.41,1.085,0.771,2.189,1.116,3.297c0.333,1.068,0.827,2.225,0.906,3.349c0.09,1.283-0.762,2.175-1.793,2.852
				c-1.37-15.215-18.229-22.889-25.382-35.131c-2.032-3.477-3.528-7.213-4.693-11.056
				C204.823,192.28,206.025,192.87,207.236,193.497z M203.867,213.785c2.89,3.92,6.62,7.068,9.709,10.813
				c2.796,3.389,4.874,7.383,6.15,11.581c1.375,4.523,1.842,9.318,1.283,14.016c-1.166,0.088-2.333,0.176-3.499,0.264
				c-0.171-2.985-0.803-5.918-1.847-8.697c0.065-0.2,0.085-0.425,0.04-0.673c-1.385-7.678-5.266-14.645-10.323-20.512
				c-2.779-3.224-6.179-5.942-8.598-9.466c-2.152-3.135-3.559-6.687-4.398-10.384c-0.976-4.302-1.156-8.735-0.901-13.128
				c0.019-0.329-0.067-0.593-0.216-0.793c1.518,0.504,3.158,1.083,4.885,1.744c-0.03,0.108-0.049,0.224-0.052,0.35
				C195.883,197.747,198.607,206.65,203.867,213.785z M180.891,183.943c0.087,0.017,3.658,0.714,9.042,2.428
				c-0.542,0.114-1.028,0.522-1.069,1.227c-0.446,7.674,0.494,15.698,4.239,22.527c2.023,3.689,4.961,6.56,7.874,9.538
				c2.816,2.879,5.34,6.016,7.401,9.481c0.689,1.158,1.318,2.346,1.885,3.559c-2.403-2.749-5.356-4.884-8.484-6.735
				c-3.737-2.211-7.578-4.256-11.372-6.368c-0.128-0.071-0.254-0.118-0.378-0.145c-0.189-0.359-0.556-0.607-1.105-0.559
				c-0.074,0.007-0.148,0.011-0.222,0.017c-5.309-17.226-9.857-34.683-13.604-52.315c-0.729-3.433-1.425-6.872-2.094-10.316
				c7.526,15.068,11.607,22.893,13.411,26.291c-2.932-0.795-4.785-1.155-5.037-1.203c-0.711-0.134-1.396,0.333-1.53,1.043
				C179.714,183.123,180.181,183.809,180.891,183.943z M170.1,150.449c-0.424,0.276-0.716,0.765-0.6,1.392
				c3.34,17.991,7.487,35.829,12.447,53.443c1.289,4.578,2.637,9.139,4.034,13.686c-1.705-0.063-3.35-0.317-4.939-0.725
				c0.002-0.132-0.016-0.273-0.061-0.422c-6.428-21.45-11.469-43.309-15.055-65.413c-0.742-4.575-1.419-9.16-2.036-13.753
				c1.333,2.215,2.626,4.562,3.86,7.054C168.564,147.354,169.346,148.931,170.1,150.449z M168.101,209.128
				c-5.081-8.495-6.486-18.429-6.975-28.157c-0.552-10.978-0.535-22.002-0.753-32.991c-0.1-5.056-0.2-10.112-0.3-15.169
				c0.181,0.256,0.362,0.514,0.542,0.774c2.778,22.374,6.981,44.561,12.649,66.384c1.507,5.801,3.121,11.573,4.828,17.318
				c-3.745-1.478-7.135-3.826-10.171-6.643C168.292,210.276,168.451,209.713,168.101,209.128z M159.483,199.661
				c-2.767-4.214-3.265-9.263-3.451-14.181c-0.215-5.672-0.321-11.351-0.478-17.025c-0.16-5.795-0.32-11.59-0.48-17.385
				c-0.15-5.429-0.174-10.883-0.611-16.299c-0.31-3.842-0.887-7.649-1.987-11.313c1.632,1.753,3.277,3.664,4.906,5.742
				c0.229,11.582,0.459,23.163,0.688,34.745c0.205,10.348,0.004,20.879,2.031,31.077c0.749,3.768,1.861,7.464,3.425,10.965
				c-1.405-1.681-2.712-3.436-3.92-5.207C159.752,200.454,159.746,200.062,159.483,199.661z M148.05,119.037
				c0.016,0.15,0.058,0.305,0.133,0.462c4.612,9.6,3.977,20.933,4.263,31.311c0.317,11.482,0.539,22.971,0.957,34.45
				c0.124,3.392,0.389,6.863,1.315,10.125c-7.467-6.78-9.994-17.646-10.21-27.441c-0.155-7.015,0.63-14.001,1.028-20.995
				c0.362-6.367,0.296-12.73-0.7-19.04c-0.845-5.352-2.397-10.6-4.809-15.443C142.466,114.211,145.195,116.383,148.05,119.037z
				 M100.881,79.529c-0.176-1.67,0.153-2.174,0.213-2.25c0.264-0.027,1.306,0.418,2.637,2.17c2.59,3.41,6.59,10.033,6.982,10.685
				c-0.618,5.365-1.184,10.323-1.418,12.377c-1.972,0.33-3.853,0.823-5.639,1.471C103.065,98.85,101.298,83.491,100.881,79.529z
				 M96.09,112.955c0.357-0.541,0.243-1.067-0.085-1.432c1.845-1.669,3.897-3.041,6.156-4.108
				c-4.319,5.206-5.399,12.777-5.561,19.555c-1.044,0.232-2.053,0.566-3.027,0.995C93.192,122.812,93.16,117.398,96.09,112.955z
				 M89.083,121.139c0.758-1.619,1.604-3.117,2.532-4.501c-1.132,4.218-0.878,8.813-0.514,13.158
				c-1.628,0.791-3.354,1.245-5.176,1.349C86.412,128.508,87.338,124.864,89.083,121.139z M251.606,342.894
				c1.686,16.204-1.26,29.516-7.687,34.741c-0.427,0.347-0.591,0.925-0.411,1.445l12.18,35.18l-7.331,29.989h-18.601l9.551-22.573
				c0.136-0.321,0.138-0.682,0.007-1.005l-18.755-46.033c-0.023-0.057-0.055-0.108-0.084-0.159c1.31-3.052,2.226-6.859,2.046-11.435
				c-0.451-11.472-0.568-45.265-0.589-52.949c8.256,1.419,16.545,2.236,24.664,2.604
				C247.392,316.222,250.172,329.109,251.606,342.894z M361.112,426.463l-16.518,20.291h-18.631l15.682-19.9
				c0.121-0.154,0.207-0.333,0.249-0.525l10.766-48.089c0.073-0.326,0.019-0.667-0.151-0.954c-0.081-0.138-8.169-13.85-9.846-21.565
				c-1.562-7.185-9.699-45.224-11.271-52.57c5.881-1.516,10.045-2.782,11.961-3.388c3.269,8.262,22.196,55.974,26.34,63.435
				c2.074,3.733,5.088,6.703,7.811,8.86L361.112,426.463z M414.081,415.776c-0.012,1.22-0.02,2.02-0.02,2.298
				c-0.071,1.857-6.317,16.011-12.286,28.68h-17.523l11.507-22.74c0.134-0.265,0.174-0.568,0.114-0.859l-10.094-48.391
				c-0.083-0.397-0.346-0.734-0.711-0.911c-0.088-0.043-8.891-4.382-13.082-11.926c-4.317-7.77-25.979-62.578-26.631-64.231
				c-0.319-0.973-7.466-23.009-5.982-34.394c0.094-0.717-0.412-1.375-1.13-1.468c-0.718-0.093-1.375,0.412-1.468,1.129
				c-1.394,10.69,4.118,29.299,5.7,34.333c-4.14,1.305-18.415,5.577-37.742,8.858c-20.928,3.553-52.184,6.628-82.817,1.277
				c-0.305-14.683-5.462-31.891-5.686-32.634c-0.21-0.693-0.942-1.084-1.633-0.874c-0.692,0.209-1.084,0.941-0.874,1.633
				c0.056,0.183,5.533,18.453,5.589,32.982c0,0,0,0,0,0c0.001,0.511,0.086,41.664,0.595,54.609
				c0.479,12.185-7.61,18.266-7.952,18.517c-0.467,0.34-0.657,0.947-0.466,1.492c0.014,0.041,1.454,4.216,4.255,16.622
				c2.706,11.985,0.114,17.917,0.091,17.968c-0.017,0.037-0.033,0.074-0.046,0.112l-9.504,26.53h-18.905l10.84-30.972
				c0.088-0.251,0.097-0.523,0.027-0.779l-30.044-109.566c-0.074-0.269-0.232-0.508-0.451-0.681
				c-0.212-0.168-21.282-16.96-24.647-30.421c-3.435-13.741-3.476-47.545-3.476-47.885c0-0.148-0.025-0.295-0.074-0.435
				l-17.407-49.474c2.307-0.263,4.374-0.883,6.127-1.62c5.854-2.459,9.447-6.604,9.598-6.779c0.47-0.549,0.406-1.374-0.142-1.845
				c-0.548-0.471-1.375-0.408-1.847,0.139c-0.033,0.039-3.4,3.901-8.709,6.105c-6.98,2.898-13.935,1.697-20.672-3.57
				c-0.43-0.336-1.025-0.371-1.491-0.085l-31.646,19.393c-7.022-0.161-15.078-0.982-16.191-1.984
				c-1.288-1.863-2.862-10.382-2.573-13.932c0.153-0.585,1.747-3.602,15.438-18.308c7.468-8.022,14.912-15.624,14.987-15.7
				c0.225-0.23,0.358-0.536,0.373-0.857c0.001-0.018,0.027-0.525,0.129-1.388c0.104,0.02,0.216,0.029,0.337,0.022
				c2.546-0.135,4.947-0.808,7.184-2.033c0.414-0.227,0.609-0.567,0.642-0.923c1.431-0.756,2.931-1.242,4.548-1.502
				c0.563-0.09,0.956-0.734,0.962-1.263c0.088-8.296,1.26-18.419,9.59-22.588c0.149-0.075,0.27-0.164,0.366-0.264
				c0.495-0.091,0.996-0.175,1.505-0.245c0.593-0.082,1.056-0.555,1.123-1.15c0.027-0.235,2.372-20.859,3.345-28.862
				c2.802,4.899,8.785,18.299,13.938,30.785c0.135,0.327,0.396,0.585,0.724,0.716c0.07,0.028,2.23,0.918,5.612,2.966
				c0.025,0.164,0.086,0.335,0.195,0.507c7.007,11.129,8.05,24.471,7.304,37.289c-0.743,12.778-2.663,26.075,2.208,38.319
				c2.236,5.619,5.726,10.602,10.735,14.071c0.041,0.028,0.081,0.053,0.122,0.076c-0.001,0.216,0.062,0.446,0.212,0.679
				c7.177,11.15,18.12,22.31,32.509,21.184c0.099,0.124,0.229,0.236,0.396,0.329c3.456,1.924,6.933,3.815,10.365,5.783
				c3.068,1.759,5.997,3.697,8.416,6.303c4.426,4.77,6.953,11.15,7.071,17.644c0.017,0.927,0.819,1.344,1.531,1.251
				c0.206,0.175,0.489,0.276,0.852,0.249c1.612-0.122,3.225-0.243,4.837-0.365c0.518-0.039,1.177-0.375,1.263-0.962
				c1.282-8.742-0.532-17.799-5.272-25.286c-2.571-4.061-6.078-7.269-9.309-10.779c-3.138-3.409-5.69-7.331-7.406-11.643
				c-1.839-4.622-2.758-9.529-2.72-14.495c0.62,0.254,1.248,0.519,1.884,0.794c-0.01,0.145,0.004,0.3,0.05,0.466
				c2.105,7.557,5.445,14.613,10.732,20.471c5.177,5.737,11.624,10.368,15.896,16.895c2.335,3.568,3.939,7.564,3.909,11.877
				c-0.007,1.046,1.104,1.561,1.971,1.131c1.473-0.731,2.971-1.582,3.974-2.922c1.143-1.526,1.158-3.269,0.666-5.052
				c-1.127-4.085-2.533-8.23-4.979-11.728c-4.609-6.591-11.666-10.752-17.015-16.643c-2.546-2.804-4.754-6.084-5.647-9.784
				c3.45,1.935,6.927,4.168,10.261,6.737c0.238,0.184,0.519,0.272,0.798,0.272c0.392,0,0.781-0.176,1.039-0.51
				c0.441-0.573,0.335-1.396-0.238-1.837c-1.517-1.169-3.059-2.268-4.61-3.304l8.981,0.162c0.077,0.073,0.166,0.141,0.271,0.202
				c12.611,7.262,21.017,20.52,21.954,35.081c0.284,4.421-0.09,8.838-1.114,13.147c-0.229,0.967,0.622,1.876,1.611,1.611
				c2.226-0.595,4.474-1.072,6.751-1.432c0.565-0.089,0.955-0.735,0.962-1.263c0.027-2.008,0.054-4.027,0.056-6.051
				c0.911-0.054,1.821-0.108,2.732-0.169c0.905-0.061,1.834-0.133,2.536-0.782c1.309-1.21,1.179-3.879,1.271-5.521
				c0.238-4.277-0.247-8.59-1.229-12.753c-1.816-7.694-5.323-14.902-9.496-21.596l47.769,0.86c0.1,0.002,0.201-0.008,0.3-0.029
				c0.4-0.087,40.087-8.655,45.608-9.357c1.556-0.196,8.538,2.918,20.832,10.191c0.002,0.001,0.005,0.003,0.007,0.004
				c1.422,0.842,2.911,1.736,4.476,2.69c11.99,7.314,24.017,15.494,27.976,19.029c1.482,1.323,3.711,7.443,1.984,33.557
				c-1.103,16.685-3.358,34.985-4.705,45.919c-0.558,4.531-0.927,7.525-0.981,8.541c-0.331,6.284,14.197,37.934,16.479,42.244
				C413.112,351.993,414.635,360.905,414.081,415.776z M414.747,349.482c-3.166-5.98-16.444-35.823-16.178-40.881
				c0.049-0.924,0.433-4.042,0.965-8.358c1.351-10.962,3.611-29.308,4.719-46.067c0.315-4.76,0.501-8.877,0.583-12.443
				c1.737,7.355,2.778,14.861,3.065,22.423c0.361,9.49-0.844,18.945-0.61,28.432c0.115,4.665,0.615,9.359,1.853,13.869
				c1.174,4.277,2.982,8.349,4.811,12.378c1.903,4.189,3.819,8.365,5.192,12.765c1.335,4.277,2.254,8.691,2.711,13.149
				c1.019,9.943-0.137,20.004-3.393,29.449c-0.579,0.56-1.171,1.107-1.777,1.636C416.301,352.422,415.183,350.306,414.747,349.482z
				 M415.983,308.618c1.741,4.4,4.088,8.519,5.997,12.843c1.971,4.465,3.328,9.185,4.359,13.948
				c2.06,9.516,3.682,20.331-0.394,29.531c-1.052,1.674-2.182,3.269-3.394,4.778c4.049-15.631,2.471-32.157-4.008-47.036
				c-1.869-4.293-3.972-8.49-5.578-12.894c-1.623-4.451-2.567-9.054-2.897-13.779c-0.667-9.54,0.631-19.075,0.53-28.617
				c-0.115-10.913-1.75-21.8-4.793-32.278c-0.155-0.535-0.537-0.816-0.961-0.896c-0.057-2.289-0.172-4.243-0.333-5.916
				c3.849,7.275,6.474,15.152,7.735,23.302c1.477,9.549,0.634,19.213,0.3,28.812C412.218,289.913,412.441,299.667,415.983,308.618z
				 M434.589,341.151c-0.818,4.893-2.051,9.497-3.676,13.755c0.329-4.834-0.173-9.77-0.97-14.552
				c-0.818-4.905-1.895-9.788-3.479-14.506c-1.57-4.675-3.814-9.02-5.951-13.45c-2.136-4.427-3.752-8.963-4.578-13.82
				c-0.83-4.878-0.946-9.856-0.857-14.793c0.177-9.837,1.254-19.703,0.147-29.522c-1.214-10.763-4.714-21.177-10.246-30.49
				c-0.311-0.524-0.807-0.685-1.271-0.609c-0.666-2.728-1.52-3.968-2.307-4.671c-1.945-1.736-5.623-4.459-10.255-7.637
				c7.48-0.46,15.345-0.268,20.551,5.952c2.569,3.068,4.31,6.898,5.676,10.627c1.459,3.985,2.459,8.125,3.166,12.306
				c1.447,8.558,1.666,17.266,2.187,25.913c0.532,8.831,1.562,17.6,3.393,26.261c2.117,10.01,5.2,19.8,9.166,29.231
				c0.076,0.18,0.179,0.329,0.299,0.45C435.814,324.979,436.048,332.426,434.589,341.151z M442.802,340.296
				c-0.475-9.02-2.137-16.233-4.938-21.436c-0.205-0.38-0.575-0.618-0.981-0.673c-6.694-16.645-10.41-34.159-11.51-52.072
				c-0.541-8.812-0.786-17.665-2.197-26.396c-1.332-8.242-3.737-17.127-8.903-23.856c-2.714-3.535-6.339-5.975-10.687-7.018
				c-4.583-1.1-9.358-0.835-14.016-0.505c-0.533,0.038-0.896,0.33-1.091,0.706c-4.379-2.94-9.389-6.158-14.499-9.293
				c8.579,1.115,23.445,2.858,28.796,2.316c1.539-0.156,7.056-0.095,13.403,7.237c6.002,6.934,10.559,18.096,13.178,32.279
				c2.834,15.35,3.521,26.395,4.073,35.27c0.64,10.281,1.102,17.71,4.401,25.837c2.711,6.68,6.086,14.993,7.207,23.433
				c0.929,6.992,0.241,13.471-2.103,19.646C442.94,344.148,442.907,342.292,442.802,340.296z"/>
		</g>
		<path style="fill:#222221;" d="M409.164,429.08h-17.58c-1.686,0-1.688,2.62,0,2.62h17.58
			C410.85,431.7,410.853,429.08,409.164,429.08z"/>
		<path style="fill:#222221;" d="M358.668,429.08h-19.814c-1.9,0-1.903,2.62,0,2.62h19.814
			C360.568,431.7,360.571,429.08,358.668,429.08z"/>
		<path style="fill:#222221;" d="M252.312,427.355h-16.722c-1.604,0-1.606,2.62,0,2.62h16.722
			C253.915,429.975,253.918,427.355,252.312,427.355z"/>
		<path style="fill:#222221;" d="M211.796,427.355h-18.912c-1.813,0-1.816,2.62,0,2.62h18.912
			C213.61,429.975,213.613,427.355,211.796,427.355z"/>
	</g>
</g>
</svg>
