<?xml version="1.0" encoding="utf-8"?>
<!-- Generator: Adobe Illustrator 27.5.0, SVG Export Plug-In . SVG Version: 6.00 Build 0)  -->
<svg xmlns="http://www.w3.org/2000/svg" xmlns:xlink="http://www.w3.org/1999/xlink" viewBox="0 0 2911 3269" width="595" height="842" preserveAspectRatio="xMidYMid meet" data-scaled="true">
<g>
	<path d="M2447.214,1719.384c546.033-13.213,68.619-271.018-137.275-380.453c-17.225-43.578-36.083-90.376-70.116-91.746
		c-7.891-40.052-15.908-80.1-23.875-120.147c81.818,4.547,152.529-69.23,185.902-137.797
		c92.987-195.345-78.664-458.672-297.259-441.151c-327.153-352.441-947.008-354.434-1274.086-0.916
		c-322.826-10.949-450.647,522.353-103.749,579.713c-10.123,48.648-20.389,97.273-30.151,145.995
		c-29.509,2.103-52.836,33.248-71.097,76.049c-320.05,141.309-708.339,337.244-75.655,374.627
		c-6.319,41.169-12.249,80.465-15.177,104.269c-20.44-18.928-45.384,5.518-58.147,21.52c-14.703,18.051-37.102,37.971-25.114,63.342
		c-115.574,107.811-317.507,359.86-116.543,478.985c95.401,60.277,211.135,38.498,266.386-63.044
		c7.603,20.574,23.333,40.816,45.744,45.447c42.891,194.057,110.944,313.87,297.582,398.403
		c-96.501,55.486-63.39,210.855,56.145,150.744c21.326,51.536,87.775,62.86,124.175,20.191
		c65.95,99.128,166.006,7.15,129.649-88.358c140.656,17.425,283.576,15.68,423.995-3.231
		c-33.122,90.312,57.812,165.55,125.371,83.342c40.237,40.398,102.377,27.737,122.699-26.105
		c110.379,74.337,159.061-77.954,74.912-144.434c163.456-70.187,246.508-222.35,281.952-389.746
		c26.824,0.801,47.167-23.035,55.538-46.565c74.291,159.379,334.027,104.514,351.549-63.568
		c6.179-132.51-113.849-263.057-201.721-351.862c12.97-30.811-18.345-54.242-36.177-75.256c-25.46-25.18-38.501-19.83-61.43,4.189
		c-1.949-28.563-5.332-71.847-10.503-122.368C2402.899,1719.757,2425.062,1719.786,2447.214,1719.384z M2580.412,1681.089
		c-66.967,10.412-135.025,10.753-202.66,10.068c-6.706-61.216-15.231-125.013-26.754-188.515
		c80.665,38.729,227.219,93.101,275.791,167.732C2611.648,1675.176,2596.065,1678.475,2580.412,1681.089z M2298.149,1364.729
		c11.127,33.38,20.423,73.772,27.226,110.671c-16.728-7.525-33.366-15.241-49.801-23.367
		c-5.701-37.734-11.886-75.394-18.571-112.967C2270.394,1348.101,2284.19,1356.548,2298.149,1364.729z M2301.725,1658.166
		c-6.42-63.201-14.369-126.257-23.634-189.113c16.659,8.1,33.481,15.869,50.376,23.491c11.303,65.289,18.774,133.326,24.395,198.085
		c-16.063-0.362-32.115-0.945-48.158-1.839C2303.748,1678.581,2302.761,1668.37,2301.725,1658.166z M2472.523,1462.861
		c42.181,25.495,86.095,50.434,125.29,80.888c74.056,57.542,74.456,91.154,74.054,93.579c-2.534,15.273-18.026,21.743-31.777,28.344
		c-43.129-77.342-211.375-141.231-292.372-180.257c-6.736-35.487-15.233-73.267-24.865-106.487
		C2372.569,1407.242,2422.958,1434.298,2472.523,1462.861z M2280.879,1320.921c-10.687-6.753-21.114-13.933-31.108-21.682
		c-1.768-9.678-3.619-19.331-5.417-29.002C2258.057,1280.999,2270.182,1298.456,2280.879,1320.921z M2135.556,575.687
		c255.35,17.544,375.102,393.338,127.638,515.481c-10.471,4.499-41.737,14.647-57.973,2.918
		c-69.979-149.829-112.042-314.683-150.666-475.892c-0.491-2.049-4.855-24.018,19.69-33.721
		C2093.267,576.954,2115.559,575.131,2135.556,575.687z M869.142,548.19c316.134-319.807,889.484-315.418,1202.859,6.86
		c-14.9,5.215-28.894,13.713-37.766,26.011c-254.37-277.508-867.38-277.201-1119.697,3.332
		c-10.514-17.395-30.066-27.134-49.24-32.277C866.585,550.813,867.846,549.483,869.142,548.19z M717.7,1099.008
		c-28.201-5.57-54.934-16.208-77.545-32.963c-198.321-149.211-50.931-490.42,186.651-490.42c55.314,0,65.356,28.182,65.451,33.379
		c0.514,28.087-22.102,89.782-24.45,111.192C854.167,770.988,774.063,1110.141,717.7,1099.008z M630.582,1697.552
		c-17.13-0.205-34.272-0.564-51.412-1.111c9.863-85.427,11.089-125.212,27.095-204.607c18.414-6.692,36.822-13.437,55.05-20.619
		C650.148,1546.475,639.368,1621.953,630.582,1697.552z M674.048,1392.271c-3.694,20.888-7.042,41.829-10.252,62.794
		c-17.867,7.196-35.931,13.922-54.047,20.502c7.898-35.462,18.014-71.421,30.586-102.492c13.899-6.819,27.645-13.922,41.105-21.528
		C678.935,1365.114,676.453,1378.684,674.048,1392.271z M692.188,1294.974c-1.307,6.427-2.484,12.88-3.648,19.333
		c-8.901,5.7-18.005,11.073-27.27,16.18C670.575,1315.285,680.871,1303.073,692.188,1294.974z M259.161,1641.851
		c-98.202-78.099,297.335-218.851,352.282-254.96c-10.061,31.046-18.125,64.938-24.497,96.969
		c-72.875,29.199-282.358,93.926-305.063,169.856C274.029,1650.342,266.338,1646.511,259.161,1641.851z M418.857,1684.598
		c-40.602-5.222-83.898-12.366-123.201-25.723c17.972-67.719,222.689-132.738,288.186-158.882
		c-14.204,80.027-15.734,109.866-29.677,195.515C508.927,1693.55,463.743,1690.165,418.857,1684.598z M611.307,1725.547
		c5.364,0.11,10.731,0.152,16.097,0.223c-6.029,57.091-9.948,114.519-12.408,171.886c-15.085-10.629-29.343-22.345-43.088-34.67
		c0.044,0.104,0.087,0.207,0.129,0.311c-2.67-3.059-6.039-5.586-8.943-8.418c2.267-27.942,7.513-78.539,13.05-130.298
		C587.869,1724.971,599.591,1725.309,611.307,1725.547z M480.565,1889.065c11.061-13.641,21.5-28.9,36.178-38.875
		c37.824,35.975,76.28,72.148,123.381,95.574c38.15,20.062,83.519,33.034,115.282,62.366c2.176,18.089-9.078,45.516-24.761,57.111
		C684.456,2080.562,460.587,1942.564,480.565,1889.065z M700.408,2177.566c-0.115,8.537-0.134,17.075-0.198,25.615
		c-24.207-11.075-43.467,9.34-63.599,17.288c-63.578,20.665-45.412-70.295-84.737-75.272c-19.608-2.211-39.873,19.466-60.232,6.694
		c-16.59-10.227-7.069-31.716-11.548-46.89c-8.436-29.695-41.098-53.26-72.956-52.408c-13.01,1.288-32.862,11.922-40.405-3.052
		c23.505-31.071,49.336-60.423,76.348-88.457c100.293,98.308,147.964,118.826,258.226,165.026
		C700.965,2143.262,700.634,2160.413,700.408,2177.566z M466.205,1938.298c51.751,64.581,155.387,133.805,235.743,154.231
		c-0.12,6.54-0.244,13.083-0.373,19.625c-106.208-45.429-152.69-68.095-248.404-161.434c4.152-4.361,8.502-8.522,12.82-12.714
		C466.062,1938.102,466.134,1938.203,466.205,1938.298z M623.085,2279.094c0.165-16.069-23.209-19.112-27.771-3.757
		c-20.296,54.066-58.193,105.088-116.434,118.282c-78.596,17.932-189.477-38.604-200.43-122.916
		c-8.045-79.784,38.997-152.419,83.717-215.039c10.224,16.196,30.356,2.729,46.009,3.62c47.576,4.647,70.892,37.828,69.372,82.523
		c13.721,52.441,78.674-24.855,94.072,35.77c36.687,105.756,83.138,10.116,128.525,34.187
		c-1.179,41.938,10.79,117.434-37.406,132.158C637.084,2351.76,621.547,2299.096,623.085,2279.094z M1233.155,2901.633
		c-0.793,25.159-14.059,55.067-43.749,55.589c-0.958,0.017-5.665-0.408-6.457-0.585c-20.965-4.677-33.795-23.981-41.885-43.47
		c-3.274-11.361-19.474-14.913-25.951-3.64c-24.312,46.937-81.843,40.557-93.82-11.57c-15.256-34.536-47.287,33.255-90.685,3.729
		c-52.155-46.323,41.562-152.165,93.306-105.249c5.127,5.534,14.841,5.343,19.996,0.002c28.165-33.678,75.134-11.877,82.5,27.51
		c2.706,10.037,16.32,14.041,23.633,6.236c4.908-5.321,10.582-9.907,17.319-12.141
		C1210.467,2808.155,1236.042,2866.244,1233.155,2901.633z M2015.079,2838.74c14.244,65.039-49.355,81.18-86.643,33.56
		c-27.839-15.793-22.243,28.797-36.211,41.26c-6.932,13.887-38.186,22.514-50.823,13.909c-18.74-3.886-32.452-44.19-51.163-21.719
		c-12.405,20.92-36.735,44.081-62.992,34.019c-59.622-28.669-12.024-152.692,51.378-131.789
		c24.285,10.507,21.927-29.605,47.135-35.458c22.108-8.318,45.875,5.231,58.783,23.13c7.569,10.273,21.153,8.31,25.841-3.378
		c6.899-20.806,30.915-27.855,50.128-19.699C1988.395,2783.619,2008.022,2809.996,2015.079,2838.74z M2194.506,2544.972
		c-45.767,93.609-126.879,162.918-222.297,202.025c-26.366-11.518-60.925-6.379-77.964,17.885
		c-33.881-34.556-91.726-29.398-115.582,13.715c-33.472-7.771-67.879,14.5-85.661,42.828
		c-150.018,21.94-303.483,23.652-453.764,3.342c-19.311-29.566-60.885-48.411-92.915-27.771
		c-19.711-43.601-74.555-61.024-112.59-29.285c-15.276-10.471-34.06-12.862-52.289-9.684
		c-179.186-65.873-273.379-208.098-306.271-387.436c82.791-37.071,44.69-198.418,55.032-276.62
		c36.402-5.714,51.691-51.157,54.579-83.467c-1.136-43.946-108.019-72.439-142.176-95.488
		c11.809-271.157,58.148-532.993,115.328-799.409C847.951,969.56,877.358,787.201,920.231,621.81
		c227.762-290.773,870.54-292.221,1104.661-7.959c29.12,136.111,68.286,270.287,116.444,400.925
		c14.921,32.109,19.512,71.287,43.08,98.299c55.436,265.469,99.927,534.308,106.002,805.993
		c-36.128,22.684-144.132,48.377-133.959,101.309c5.564,29.596,19.865,68.386,53.423,73.988
		c1.011,48.381,2.248,96.773,1.912,145.169c-2.143,44.934,2.815,100.183,44.635,126.595
		C2242.71,2427.989,2223.656,2488.944,2194.506,2544.972z M2600.149,2087.266c40.341,62.921,84.804,145.186,50.339,219.789
		c-32.414,59.337-107.725,95.4-174.636,89.223c-64.987-7.05-109.877-62.672-131.074-120.942
		c-4.333-15.281-28.059-12.375-27.775,3.76c3.553,22.292-7.789,53.451-22.604,64.662c-2.41,1.823-10.502,2.278-11.854,1.896
		c-53.246-15.05-41.156-90.293-42.439-133.85c45.905-23.817,91.72,71.383,128.412-34.227c15.418-60.635,80.335,16.682,94.07-35.769
		c-1.517-44.678,21.881-77.937,69.377-82.522c15.641-0.894,35.775,12.554,45.98-3.574
		C2585.601,2066.048,2593.057,2076.535,2600.149,2087.266z M2559.457,2031.774c4.748,5.906,9.359,11.797,13.936,17.784
		c-7.67,15.008-27.349,4.288-40.396,3.034c-31.858-0.85-64.52,22.715-72.956,52.41c-4.476,15.174,5.044,36.663-11.499,46.89
		c-20.407,12.772-40.672-8.906-60.279-6.692c-37.844,4.29-19.135,77.763-70.362,77.952c-28.271-0.147-47.843-33.597-77.869-19.995
		c-0.163-25.69-0.655-51.376-1.199-77.059c109.106-45.57,158.807-67.309,258.249-164.998
		C2518.928,1983.692,2539.802,2007.241,2559.457,2031.774z M2486.954,1950.731c-94.798,92.749-143.517,116.752-248.416,161.431
		c-0.143-6.531-0.278-13.059-0.419-19.59c83.677-22.071,180.651-88.144,236.288-154.298
		C2478.617,1942.399,2482.807,1946.543,2486.954,1950.731z M2423.767,1850.324c19.817,0.084,35.318,24.401,39.565,43.309
		c7.229,32.182-172.915,183.589-250.386,180.25c-9.65-0.416-32.842-55.943-27.409-66.658
		c19.275-38.015,83.812-43.796,124.634-66.839C2348.892,1919.508,2410.888,1850.269,2423.767,1850.324z M2364.669,1865.894
		c-14.742,13.089-30.063,25.9-46.42,36.928c-1.887-61.979-5.675-123.875-11.004-185.65c15.97,0.764,31.948,1.353,47.935,1.765
		C2360.128,1782.051,2362.795,1835.532,2364.669,1865.894z"/>
	<path d="M2058.734,1654.843c-7.27-30.71-15.556-61.19-25.187-91.246c-116.795-278.733,192.225-443.477-30.909-821.216
		c-114.406-180.517-325.661-108.732-407.095,61.037c-56.79,98.717-38.629,210.759-19.518,317.334
		c-115.414-103.28-100.075-108.013-217.547-2.297c19.769-134.676,32.304-293.592-59.737-405.156
		c-64.267-71.578-192.584-102.83-276.761-51.021c-121.375,93.796-160.778,264.719-167.255,411.171
		c0.924,53.594,18.011,106.656,31.425,158.093c21.194,89.229,55.174,186.66,25.009,277.418
		c-103.362,324.053-126.797,751.05-12.148,1072.576c180.876,308.989,969.286,294.611,1140.781-14.806
		C2144.464,2277.896,2117.453,1951.413,2058.734,1654.843z M1414.78,1086.678c71.189-78.48,105.195,21.681,165.695,53.051
		c12.527,5.824,28.036,0.834,41.338,1.368c-136.933,43.897-163.218,47.884-300.651,0.934
		C1362.218,1148.871,1386.838,1109.447,1414.78,1086.678z M1315.479,1141.634c130.271,59.025,176.958,57.18,307.139,0.421
		c-26.846,43.33-106.564,115.299-160.109,111.247c-50.113-7.475-127.124-66.626-149.151-111.799
		C1314.064,1141.551,1314.773,1141.583,1315.479,1141.634z M2063.916,2444.587c-15.446,79.016-45.984,159.116-112.477,208.925
		c-221.794,184.525-897.268,201.232-1042.742-84.525c-105.712-284.068-85.045-765.88,14.781-1053.01
		c39.174-116.118-16.675-241.274-40.86-355.448c-42.925-133.062,26.263-394.103,137.384-479.603
		c40.158-33.017,95.092-35.293,144.018-24.799c215.233,37.297,208.926,302.47,178.854,470.591
		c-11.447,3.602-24.85-0.933-36.594,0.651c-31.267,12.021,37.109,74.973,50.491,85.021c93.39,76.883,142.381,70.211,230.973-8.575
		c19.25-18.458,43.898-38.746,50.743-65.573c0.501-20.41-34.626-7.964-46.935-9.972c-20.099-110.712-40.939-226.809,21.844-328.325
		c93.376-175.043,300.344-213.694,396.216-17.623c52.41,108.924,76.982,239.196,51.227,358.339
		c-30.328,118.346-95.156,240.585-62.351,365.038C2102.282,1803.822,2120.077,2134.603,2063.916,2444.587z"/>
	<path d="M1850.166,971.051c-56.511,2.26-56.532,108.533,0,110.807C1906.613,1079.868,1906.585,973.022,1850.166,971.051z"/>
	<path d="M1103.543,971.051c-56.511,2.26-56.532,108.533,0,110.807C1159.99,1079.868,1159.962,973.022,1103.543,971.051z"/>
	<g>
		<path d="M679.306,2232.757c-4.697-3.231-10.013,4.768-5.212,7.847C678.793,2243.837,684.109,2235.836,679.306,2232.757z"/>
		<path d="M595.967,2259.403c4.699,3.233,10.015-4.768,5.212-7.847C596.48,2248.324,591.167,2256.323,595.967,2259.403z"/>
		<path d="M343.216,2095.506c4.699,3.231,10.015-4.768,5.212-7.847C343.729,2084.426,338.415,2092.427,343.216,2095.506z"/>
		<path d="M473.551,2178.666c-4.699-3.233-10.015,4.768-5.215,7.847C473.035,2189.744,478.351,2181.745,473.551,2178.666z"/>
		<path d="M431.427,2097.741c-4.697-3.233-10.013,4.768-5.212,7.847C430.913,2108.819,436.229,2100.82,431.427,2097.741z"/>
		<path d="M535.555,2193.75c4.699,3.233,10.015-4.768,5.212-7.847C536.068,2182.673,530.755,2190.672,535.555,2193.75z"/>
	</g>
	<g>
		<path d="M481.642,2294.627c0,0-15.391,5.604-19.245,7.005l-27.711-16.504l33.018-10.429c0.63-0.198,0.98-0.87,0.782-1.503
			c-0.752-0.761-3.362-14.755-5.513-13.476c0,0-27.71,8.75-27.71,8.75l12.816-21.517l20.4-3.289c0.949,0.394-0.145-7.85-1.249-7.755
			c-0.001,0-13.909,2.244-13.909,2.244c0.053-1.168,8.418-11.614,6.057-12.509c-14.203-7.537-10.355-11.508-19.195,3.866
			c-2.181-5.771-4.913-12.995-4.913-12.997c0.009-1.24-6.015,1.857-7,2.007c-0.308,0.117-0.465,0.463-0.348,0.773l7.125,18.84
			l-14.449,24.257l-4.662-32.618c0.266-2.499-13.579,1.222-14.537,0.867c-2.786-1.447,4.624,36.829,4.096,37.101l-23.763-14.153
			c-0.249-1.671-3.008-20.258-3.008-20.258c0.406-0.944-7.856,0.043-7.769,1.152c0,0.001,2.064,13.916,2.064,13.916
			c-1.06-0.05-13.516-9.518-14.224-7.079c-9.402,16.488-10.094,10.066,5.428,20.125c-5.799,2.11-13.064,4.754-13.064,4.754
			c-1.24-0.028,1.781,6.036,1.919,7.023c0.113,0.311,0.458,0.472,0.769,0.359l19.086-6.947l23.613,14.063l-32.477,10.259
			c-0.63,0.198-0.98,0.87-0.782,1.503c0.752,0.761,3.362,14.755,5.513,13.476c0.001,0,31.854-10.059,31.854-10.059l-14.636,24.573
			l-19.961,2.711c-0.329,0.044-0.557,0.345-0.513,0.674c0.336,0.937,0.483,7.711,1.569,7.108c0,0,7.654-1.038,13.768-1.869
			c-8.945,16.128-10.836,10.179,4.936,20.069c1.763,1.828,8.047-12.134,8.919-12.634l4.653,13.299
			c0.454,1.031,8.191-1.96,7.412-2.595c0,0-5.606-16.026-6.823-19.506l11.361-19.073l3.546,24.798
			c-0.272,2.499,13.578-1.222,14.535-0.867c2.801,1.161-4.259-34.064-3.723-34.505l29.417,17.521l2.982,20.092
			c0.048,0.327,0.354,0.555,0.681,0.506c0.934-0.35,7.704-0.58,7.09-1.659c0,0-1.137-7.647-2.043-13.75
			c15.044,9.361,9.624,7.14,18.468-5.894c1.716-1.793-10.63-7.167-11.184-8.054l13.218-4.812
			C485.352,2301.54,482.275,2293.848,481.642,2294.627z"/>
		<path d="M643.789,2149.219c0.124-0.182,4.227-1.093,5.592-1.797l6.987,4.644c-5.042,1.719-10.055,1.693-10.105,3.461
			c0.677,6.428,3.808,2.391,11.12,1.181c-2.239,3.369-3.539,5.325-4.823,7.26c-1.565-0.124-5.631,0.559-5.815,0.442
			c-0.614,0.065-0.421,2.414,0.205,2.363c0,0,3.972-0.341,3.972-0.341c-2.577,3.844-3.16,3.505,0.84,5.898
			c1.143,0.897,2.641-2.988,3.226-3.438c0.805,3.403,1.368,5.455,3.429,3.199c0,0-1.703-5.765-1.71-5.788l3.712-5.587
			c1.02,7.16-0.914,8.549,4.681,7.532c1.638,0.347-0.457-9.94-0.189-10.51l8.687,5.774c-0.122,1.528,0.628,5.666,0.511,5.85
			c2.911,1.326,2.38-0.789,1.972-4.202c0.703,0.225,2.964,2.691,3.668,1.496c2.476-3.677,2.741-3.024-1.254-5.59
			c3.391-0.849,5.429-1.438,3.148-3.468c0,0-5.585,1.726-5.709,1.765c-2.11-1.401-4.271-2.837-8.119-5.394
			c5.158-1.753,10.215-1.73,10.27-3.507c-0.65-6.146-3.391-2.641-9.849-1.512l4.188-6.303c0.023-0.002,5.997-0.665,5.997-0.665
			c1.28-2.768-0.82-2.501-4.278-1.924c0.212-0.712,2.881-3.199,1.657-3.907c-3.548-2.337-2.993-2.879-5.5,1.114
			c-0.974-3.305-1.372-5.434-3.484-3.065c0.182,0.122,1.128,4.135,1.846,5.532c-1.192,1.795-2.587,3.896-4.761,7.166
			c-0.377-0.566-0.184-10.802-1.737-10.201c-6.587-0.1-2.958,2.666-2.899,11.591c-3.24-2.152-5.01-3.328-6.964-4.625
			c-0.034-0.366-0.585-5.949-0.585-5.949c-2.748-1.313-2.51,0.783-1.977,4.246c-3.943-2.527-3.686-3.623-6.172,0.658
			c-0.888,1.141,2.877,2.575,3.332,3.157c-1.675,0.516-3.811,1.176-3.811,1.178C642.49,2147.141,643.195,2149.391,643.789,2149.219z
			"/>
		<path d="M475.189,2027.586c0,0-5.585,1.726-5.709,1.765c-2.287-1.519-5.123-3.401-8.119-5.394
			c6.385-2.117,9.888-1.579,10.27-3.505c-0.65-6.146-3.391-2.641-9.849-1.512l4.188-6.305c0.069-0.007,5.997-0.665,5.997-0.665
			c1.28-2.766-0.82-2.5-4.278-1.924c0.212-0.712,2.881-3.199,1.657-3.908c-3.039-1.844-2.943-3.317-5.5,1.114
			c-0.976-3.305-1.368-5.433-3.484-3.065c0.182,0.124,1.128,4.138,1.845,5.532c-1.346,2.027-2.992,4.504-4.761,7.166
			c-0.377-0.567-0.184-10.801-1.737-10.201c-6.593-0.382-2.882,3.612-2.902,11.591c-2.543-1.689-4.936-3.282-6.961-4.625
			c-0.012-0.131-0.585-5.949-0.585-5.949c-2.747-1.313-2.513,0.784-1.977,4.248c-4.575-3.241-3.889-2.849-6.172,0.658
			c-0.888,1.137,2.879,2.575,3.332,3.155c-3.316,0.932-5.454,1.312-3.109,3.445c0.124-0.179,4.227-1.093,5.592-1.797l6.987,4.644
			c-5.043,1.722-10.055,1.695-10.105,3.463c0.992,6.317,2.702,2.688,11.12,1.178c-1.77,2.665-3.445,5.185-4.823,7.26
			c-1.565-0.122-5.631,0.559-5.815,0.442c-0.614,0.067-0.421,2.412,0.204,2.366c0,0,3.972-0.343,3.972-0.343
			c-3.173,4.351-2.432,3.714,0.84,5.898c1.145,0.899,2.639-2.985,3.224-3.436c0.809,3.402,1.37,5.452,3.432,3.197
			c0,0-1.703-5.765-1.71-5.785l3.712-5.59c0.918,5.729-0.976,8.958,4.681,7.531c1.638,0.352-0.457-9.941-0.189-10.509l8.687,5.774
			c-0.122,1.53,0.628,5.666,0.511,5.852c2.91,1.325,2.38-0.788,1.972-4.202c0.703,0.226,2.962,2.688,3.668,1.496
			c1.937-3.147,3.271-2.939-1.254-5.592C475.433,2030.204,477.469,2029.617,475.189,2027.586z"/>
		<path d="M572.948,2102.884c0,0-5.585,1.728-5.712,1.767c-2.285-1.519-5.12-3.404-8.119-5.394c6.387-2.12,9.886-1.581,10.273-3.507
			c-0.656-6.145-3.389-2.642-9.852-1.512l4.188-6.305c0.025-0.002,5.997-0.665,5.997-0.665c1.28-2.765-0.819-2.501-4.276-1.924
			c0.212-0.713,2.88-3.199,1.655-3.907c-3.644-2.488-3.086-2.665-5.498,1.114c-0.975-3.302-1.377-5.433-3.484-3.065
			c0.18,0.125,1.125,4.138,1.846,5.532l-4.764,7.166c-0.376-0.569-0.182-10.794-1.735-10.201c-6.592-0.382-2.884,3.611-2.902,11.591
			c-2.543-1.689-4.939-3.279-6.961-4.623c-0.037-0.368-0.587-5.949-0.587-5.949c-2.758-1.319-2.505,0.789-1.977,4.246
			c-4.575-3.241-3.888-2.849-6.17,0.658c-0.891,1.139,2.879,2.574,3.332,3.155c-3.31,0.946-5.459,1.272-3.111,3.448
			c0.126-0.182,4.227-1.095,5.592-1.8l6.989,4.644c-5.045,1.722-10.057,1.695-10.107,3.463c0.994,6.315,2.703,2.691,11.12,1.178
			l-4.823,7.26c-1.565-0.122-5.631,0.562-5.813,0.442c-0.614,0.066-0.422,2.413,0.202,2.366c0,0,3.972-0.341,3.972-0.341
			c-2.326,3.641-3.435,3.411,0.84,5.896c1.147,0.901,2.64-2.985,3.226-3.436c0.805,3.408,1.378,5.452,3.429,3.197
			c0,0-1.69-5.721-1.71-5.785l3.712-5.587c0.917,5.727-0.974,8.955,4.681,7.529c1.639,0.354-0.457-9.938-0.189-10.507l8.689,5.771
			c-0.122,1.53,0.626,5.666,0.509,5.852c2.913,1.325,2.381-0.786,1.972-4.202c0.701,0.224,2.964,2.688,3.668,1.496
			c1.94-3.146,3.269-2.936-1.254-5.592C573.199,2105.505,575.222,2104.908,572.948,2102.884z"/>
	</g>
	<g>
		<path d="M2260.833,2232.757c-4.8,3.079,0.515,11.08,5.215,7.847C2270.847,2237.525,2265.532,2229.526,2260.833,2232.757z"/>
		<path d="M2338.962,2251.555c-4.803,3.079,0.513,11.08,5.212,7.847C2348.974,2256.323,2343.658,2248.324,2338.962,2251.555z"/>
		<path d="M2596.925,2095.506c4.802-3.079-0.513-11.08-5.212-7.847C2586.913,2090.738,2592.226,2098.737,2596.925,2095.506z"/>
		<path d="M2471.805,2186.513c4.8-3.079-0.516-11.08-5.215-7.847C2461.79,2181.745,2467.106,2189.744,2471.805,2186.513z"/>
		<path d="M2513.927,2105.588c4.8-3.079-0.516-11.08-5.212-7.847C2503.912,2100.82,2509.228,2108.819,2513.927,2105.588z"/>
		<path d="M2399.374,2185.903c-4.802,3.079,0.513,11.081,5.212,7.847C2409.386,2190.672,2404.07,2182.673,2399.374,2185.903z"/>
	</g>
	<g>
		<path d="M2567.122,2248.398l2.064-13.916c0.08-1.128-8.161-2.078-7.769-1.153c0,0-2.76,18.587-3.008,20.258l-23.762,14.153
			c-0.486-0.398,6.855-38.444,4.097-37.101c-1.015,0.348-14.754-3.361-14.538-0.868c0,0-4.665,32.618-4.665,32.618l-14.447-24.257
			l7.125-18.84c0.117-0.311-0.039-0.656-0.348-0.773c-0.985-0.15-7.012-3.247-7-2.007c0,0.002-2.731,7.226-4.913,12.997
			c-8.845-15.405-5.021-11.373-19.195-3.866c-2.371,0.754,5.996,11.469,6.057,12.509l-13.909-2.244
			c-1.125-0.092-2.18,8.136-1.25,7.755c0,0,20.401,3.289,20.401,3.289l12.815,21.517l-27.709-8.749
			c-2.134-1.326-4.78,12.768-5.514,13.476c-0.198,0.633,0.152,1.305,0.783,1.503l33.018,10.429l-27.711,16.504
			c-1.588-0.578-19.245-7.005-19.245-7.005c-0.638-0.804-3.702,6.929-2.686,7.382c0.001,0,13.219,4.812,13.219,4.812
			c-0.606,1.002-12.828,6.139-11.185,8.054c8.857,13.074,3.439,15.233,18.468,5.894c-0.906,6.103-2.043,13.75-2.043,13.75
			c-0.614,1.079,6.158,1.309,7.09,1.659c0.327,0.048,0.633-0.179,0.681-0.506l2.982-20.092l29.417-17.521
			c0.501,0.587-6.502,35.549-3.724,34.505c1.013-0.348,14.758,3.362,14.535,0.868c0,0,3.546-24.799,3.546-24.799l11.361,19.073
			c-0.456,1.298-6.825,19.505-6.825,19.505c-0.797,0.647,6.971,3.612,7.415,2.596c0,0,4.653-13.299,4.653-13.299
			c0.913,0.562,7.123,14.417,8.919,12.634c15.807-9.895,13.852-3.975,4.939-20.07c6.269,0.852,13.766,1.869,13.766,1.869
			c1.086,0.603,1.234-6.172,1.57-7.108c0.046-0.329-0.184-0.631-0.513-0.674l-19.961-2.711l-14.636-24.573l31.854,10.059
			c2.135,1.326,4.78-12.768,5.514-13.476c0.197-0.633-0.153-1.305-0.783-1.503l-32.477-10.259l23.613-14.063l19.086,6.947
			c0.311,0.113,0.656-0.048,0.769-0.359c0.138-0.987,3.16-7.051,1.919-7.023c0,0-7.118-2.589-13.064-4.754
			c15.568-10.074,14.801-3.656,5.428-20.124C2580.689,2238.855,2568.115,2248.385,2567.122,2248.398z"/>
		<path d="M2293.243,2145.774c0.466-0.59,4.212-2.01,3.332-3.157c-2.486-4.291-2.239-3.175-6.172-0.658
			c0.532-3.457,0.78-5.559-1.977-4.246c0,0-0.55,5.583-0.586,5.949c-1.951,1.298-3.721,2.474-6.959,4.625
			c-0.021-7.985,3.692-11.97-2.901-11.591c-1.544-0.639-1.37,9.687-1.738,10.201c-1.77-2.662-3.415-5.139-4.761-7.166
			c0.718-1.397,1.664-5.41,1.846-5.532c-2.113-2.368-2.509-0.241-3.484,3.065c-2.556-4.437-2.466-2.956-5.5-1.114
			c-1.229,0.7,1.451,3.207,1.657,3.907c-3.458-0.578-5.559-0.843-4.278,1.924c0,0,5.928,0.658,5.997,0.665l4.188,6.303
			c-6.463-1.13-9.197-4.632-9.849,1.512c0.045,1.772,5.123,1.758,10.27,3.507c-3.85,2.557-6.009,3.993-8.119,5.394
			c-0.127-0.039-5.709-1.765-5.709-1.765c-2.281,2.019-0.248,2.621,3.148,3.468c-4.007,2.569-3.72,1.922-1.254,5.59
			c0.697,1.199,2.974-1.276,3.668-1.496c-0.409,3.414-0.936,5.529,1.972,4.202c-0.117-0.184,0.631-4.322,0.511-5.85l8.687-5.774
			c0.268,0.624-1.829,10.817-0.189,10.51c5.657,1.424,3.763-1.806,4.681-7.532l3.712,5.587c-0.007,0.023-1.71,5.788-1.71,5.788
			c2.053,2.253,2.625,0.21,3.431-3.199c0.594,0.463,2.071,4.328,3.224,3.438c3.28-2.189,4.008-1.546,0.84-5.898l3.972,0.341
			c0.626,0.051,0.818-2.3,0.203-2.363c-0.182,0.117-4.248-0.566-5.813-0.442c-1.378-2.076-3.054-4.598-4.823-7.26
			c7.317,1.212,10.44,5.247,11.119-1.181c-0.039-1.762-5.072-1.746-10.107-3.461l6.989-4.644c1.365,0.704,5.466,1.615,5.592,1.797
			c0.592,0.169,1.3-2.077,0.702-2.267C2297.054,2146.95,2294.916,2146.29,2293.243,2145.774z"/>
		<path d="M2496.891,2007.505c-0.359,0.069-1.988-0.502-2.011,0.196c0,0-0.573,5.818-0.584,5.949
			c-2.023,1.344-4.418,2.936-6.961,4.625c0.055-8.927,3.685-11.69-2.901-11.591c-1.544-0.638-1.37,9.686-1.738,10.201l-4.761-7.166
			c0.718-1.397,1.664-5.408,1.846-5.532c-2.115-2.368-2.508-0.239-3.484,3.065c-2.417-3.787-1.865-3.595-5.5-1.114
			c-1.228,0.7,1.448,3.206,1.655,3.908c-3.455-0.578-5.556-0.84-4.276,1.924c0,0,5.974,0.662,5.997,0.665l4.188,6.305
			c-6.463-1.13-9.198-4.633-9.849,1.512c0.374,1.922,3.894,1.391,10.271,3.505c-2.996,1.993-5.832,3.875-8.119,5.394
			c-0.124-0.037-5.709-1.765-5.709-1.765c-2.278,2.025-0.251,2.62,3.148,3.468c-4.528,2.653-3.188,2.451-1.254,5.592
			c0.699,1.196,2.977-1.276,3.67-1.496c-0.428,3.418-0.906,5.534,1.97,4.202c-0.117-0.186,0.631-4.322,0.511-5.852l8.689-5.774
			c0.268,0.623-1.833,10.821-0.191,10.51c5.597,1.019,3.66-0.373,4.681-7.532l3.712,5.59c-0.007,0.021-1.71,5.785-1.71,5.785
			c2.051,2.251,2.625,0.213,3.431-3.196c0.594,0.463,2.07,4.326,3.224,3.436c4.29-2.489,3.15-2.269,0.84-5.898l3.972,0.343
			c0.628,0.047,0.816-2.297,0.205-2.366c-0.184,0.117-4.25-0.564-5.815-0.442l-4.823-7.26c8.419,1.51,10.128,5.138,11.12-1.178
			c-0.039-1.763-5.072-1.745-10.107-3.463l6.989-4.644c1.365,0.704,5.465,1.618,5.592,1.797c2.344-2.138,0.207-2.511-3.109-3.445
			c0.464-0.589,4.211-2.011,3.332-3.155c-2.287-3.512-1.597-3.896-6.172-0.658
			C2497.114,2009.988,2497.438,2007.328,2496.891,2007.505z"/>
		<path d="M2401.937,2091.06c0.464-0.59,4.214-2.009,3.332-3.155c-2.481-4.289-2.24-3.178-6.169-0.658
			c0.529-3.454,0.778-5.566-1.977-4.246c0,0-0.55,5.578-0.587,5.947c-1.954,1.298-3.721,2.474-6.961,4.625
			c-0.017-7.987,3.694-11.968-2.901-11.591c-1.543-0.631-1.369,9.684-1.736,10.201l-4.764-7.166
			c0.718-1.395,1.666-5.408,1.846-5.532c-2.11-2.367-2.508-0.236-3.484,3.065c-2.416-3.792-1.863-3.59-5.498-1.114
			c-1.23,0.7,1.449,3.205,1.655,3.907c-3.449-0.574-5.558-0.849-4.276,1.924c0,0,5.972,0.663,5.997,0.665l4.188,6.305
			c-8.081-1.556-8.777-4.491-9.852,1.512c0.048,1.768,5.125,1.756,10.273,3.507c-3.85,2.557-6.009,3.99-8.119,5.394
			c-0.126-0.039-5.712-1.767-5.712-1.767c-2.275,2.027-0.25,2.619,3.15,3.468c-4.006,2.572-3.72,1.921-1.254,5.592
			c0.697,1.197,2.976-1.275,3.668-1.496c-0.412,3.416-0.939,5.527,1.972,4.202c-0.117-0.186,0.631-4.322,0.511-5.852l8.687-5.771
			c0.267,0.621-1.828,10.819-0.191,10.507c5.659,1.426,3.764-1.804,4.681-7.53l3.714,5.587c-0.007,0.023-1.71,5.785-1.71,5.785
			c2.052,2.255,2.623,0.212,3.429-3.196c0.595,0.463,2.073,4.328,3.226,3.436c4.286-2.487,3.15-2.266,0.84-5.896l3.972,0.341
			c0.626,0.047,0.817-2.3,0.202-2.366c-0.182,0.12-4.248-0.564-5.813-0.442l-4.823-7.26c7.316,1.211,10.435,5.246,11.12-1.178
			c-0.375-1.921-3.804-1.369-10.107-3.463l6.989-4.644c1.365,0.704,5.465,1.618,5.592,1.8
			C2407.392,2092.362,2405.255,2091.996,2401.937,2091.06z"/>
	</g>
	<path d="M2255.606,767.521c11.358,27.088,49.107,82.891,82.472,56.308c27.583-35.48-7.386-101.215-35.579-127.898
		C2243.122,648.263,2231.94,725.1,2255.606,767.521z M2268.484,688.28c59.668-4.604,113.218,180.543,27.034,124.111
		C2270.375,793.508,2224.132,703.703,2268.484,688.28z"/>
	<path d="M2190.799,656.675c30.093,30.825,62.805,3.122,29.352-27.827C2191.318,601.853,2161.531,627.065,2190.799,656.675z
		 M2185.914,631.373c0.141-1.262,0.991-4.659,4.456-5.751c14.925-4.703,37.451,15.378,36.692,30.839
		c0.125,0.837-1.537,4.491-4.368,5.91C2214.072,666.69,2185.974,648.111,2185.914,631.373z"/>
	<path d="M707.535,675.163c-50.828-8.545-120.731,138.058-54.339,149.517C701.26,827.481,766.824,692.068,707.535,675.163z
		 M723.695,715.598c-2.593,31.149-17.277,61.457-38.331,84.354c-22.724,25.264-53.779,25.473-51.861-15.277
		c2.501-33.058,18.673-65.259,41.918-88.645C699.62,671.901,725.551,679.415,723.695,715.598z"/>
	<path d="M748.265,662.267c22.046,10.286,63.697-30.048,40.494-48.867C766.685,600.348,721.664,644.695,748.265,662.267z
		 M747.317,646.743c1.126-5.886,4.999-12.382,10.23-17.682c7.436-7.535,20.439-13.656,24.53-11.527
		c10.806,5.623,3.719,20.768-2.742,27.412C772.15,652.335,745.296,664.542,747.317,646.743z"/>
</g>
</svg>
