<?xml version="1.0" encoding="utf-8"?>
<!-- Generator: Adobe Illustrator 27.5.0, SVG Export Plug-In . SVG Version: 6.00 Build 0)  -->
<svg xmlns="http://www.w3.org/2000/svg" xmlns:xlink="http://www.w3.org/1999/xlink" viewBox="0 0 500 500" width="595" height="842" preserveAspectRatio="xMidYMid meet" data-scaled="true">
<g id="BACKGROUND">
	<rect style="fill:#FFFFFF;" width="500" height="500"/>
</g>
<g id="OBJECTS">
	<g>
		<g>
			<g>
				<g>
					<path style="fill:none;stroke:#020202;stroke-width:3;stroke-linecap:round;stroke-linejoin:round;stroke-miterlimit:10;" d="
						M290.299,290.219c0,0,6.852,25.306-7.754,81.609c-9.041,34.853-24.366,58.429-24.366,58.429"/>
					<path style="fill:none;stroke:#020202;stroke-width:3;stroke-linecap:round;stroke-linejoin:round;stroke-miterlimit:10;" d="
						M237.182,373.745c0,0-13.998,67.455-8.966,75.947c5.032,8.492,21.304,9.574,28.538,8.945
						c7.234-0.629,5.819-11.795-1.573-12.738"/>
					<path style="fill:none;stroke:#020202;stroke-width:3;stroke-linecap:round;stroke-linejoin:round;stroke-miterlimit:10;" d="
						M255.653,429.543c0,0,16.676,2.988,19.186,13.524s-2.001,15.124-15.885,14.936"/>
					<path style="fill:none;stroke:#020202;stroke-width:3;stroke-linecap:round;stroke-linejoin:round;stroke-miterlimit:10;" d="
						M194.38,429.24c0,0-15.882-41.377-22.455-60.242c-8.22-23.589-8.22-60.81-8.22-60.81c0-12.936,10.736-31.572,19.382-43.666"/>
					<path style="fill:none;stroke:#020202;stroke-width:3;stroke-linecap:round;stroke-linejoin:round;stroke-miterlimit:10;" d="
						M213.308,356.62c0,0,16.163,84.255,13.816,91.175s-23.315,12.103-30.025,10.214c-6.71-1.889-4.508-11.324,1.468-11.639"/>
					<path style="fill:none;stroke:#020202;stroke-width:3;stroke-linecap:round;stroke-linejoin:round;stroke-miterlimit:10;" d="
						M198.095,427.971c0,0-23.275,6.605-21.938,19.343c0.99,9.431,7.701,8.798,18.613,9.477"/>
					<path style="fill:none;stroke:#020202;stroke-width:3;stroke-linecap:round;stroke-linejoin:round;stroke-miterlimit:10;" d="
						M290.758,329.648c0,0,19.867,4.133,19.757,34.956c-0.144,40.005-29.123,65.653-29.123,65.653"/>
					<path style="fill:none;stroke:#020202;stroke-width:3;stroke-linecap:round;stroke-linejoin:round;stroke-miterlimit:10;" d="
						M267.575,434.104c0,0,15.52-7.968,23.789-0.839c8.269,7.129,7.431,16.355-0.957,17.613c-8.387,1.258-15.636,1.155-15.636,1.155
						"/>
					<path style="fill:none;stroke:#020202;stroke-width:3;stroke-linecap:round;stroke-linejoin:round;stroke-miterlimit:10;" d="
						M281.392,438.297c0,0,7.824,5.837,5.065,13.088"/>
					<path style="fill:none;stroke:#020202;stroke-width:3;stroke-linecap:round;stroke-linejoin:round;stroke-miterlimit:10;" d="
						M164.701,329.359c0,0-19.184,5.146-22.939,33.017c-6.079,45.118,24.329,70.079,24.329,70.079"/>
					<path style="fill:none;stroke:#020202;stroke-width:3;stroke-linecap:round;stroke-linejoin:round;stroke-miterlimit:10;" d="
						M190.377,430.931c0,0-16.762-6.892-25.568,2.753c-8.807,9.645-3.405,16.563,12.385,17.701"/>
					<path style="fill:none;stroke:#020202;stroke-width:3;stroke-linecap:round;stroke-linejoin:round;stroke-miterlimit:10;" d="
						M174.034,436.41c0,0-7.808,5.385-6.105,13.282"/>
					<path style="fill:none;stroke:#020202;stroke-width:3;stroke-linecap:round;stroke-linejoin:round;stroke-miterlimit:10;" d="
						M140.959,377.699c0,0-13.055,5.661-15.361,18.662c-1.746,9.843,2.516,6.29,2.516,6.29s-5.076,40.331,32.479,40.4"/>
					<path style="fill:none;stroke:#020202;stroke-width:3;stroke-linecap:round;stroke-linejoin:round;stroke-miterlimit:10;" d="
						M299.547,334.519c0,0,9.103-5.466,5.643-22.765c-3.46-17.299,0.899-28.821,5.325-32.81c0,0,0.966,5.132,3.168,7.963
						c0,0,6.92-33.654,26.105-42.146c19.186-8.492,28.622-2.516,28.622-2.516s-14.783,16.984-9.436,29.251
						c5.347,12.266,9.162,25.374,6.331,37.355"/>
					<path style="fill:none;stroke:#020202;stroke-width:3;stroke-linecap:round;stroke-linejoin:round;stroke-miterlimit:10;" d="
						M294.342,436.41c0,0,51.108,8.387,70.608-34.073c19.5-42.461,13.21-70.168,9.436-81.462
						c-3.774-11.294-3.145-23.904-3.145-23.904s-11.637,19.53-10.065,30.538"/>
					<path style="fill:none;stroke:#020202;stroke-width:3;stroke-linecap:round;stroke-linejoin:round;stroke-miterlimit:10;" d="
						M188.178,252.555c-3.46,18.395-30.004,30.115-7.234,73.834c5.914,11.355,5.976,11.323,5.976,11.323s1.473-3.328,2.337-7.864
						c1.32,6.084,3.851,15.428,7.6,19.502c5.789,6.29,10.193,7.271,10.193,7.271s0.785-2.194-0.018-6.735
						c5.024,5.622,9.218,9.835,11.16,11.206c6.529,4.613,14.02,19.816,14.02,19.816s20.13-29.461,25.967-34.493
						c0.338-0.292,0.727-0.618,1.153-0.973l-1.153,12.4c0,0,9.13-7.863,14.292-13.839c3.561-4.122,14.425-27.33,16.252-33.235
						c4.929-15.936,0.942-28.517-6.359-38.162c-7.301-9.646-13.342-31.856-13.342-31.856"/>
					<path style="fill:none;stroke:#020202;stroke-width:3;stroke-linecap:round;stroke-linejoin:round;stroke-miterlimit:10;" d="
						M305.568,392.687c0,0,10.935-8.386,13.766-18.943c0,0,4.403,14.291,0,21.525c-4.403,7.234-10.379,12.241-10.379,12.241
						s12.581,1.283,17.613-5.007c5.032-6.29,5.032-6.29,5.032-6.29s-8.734,21.388-13.016,25.476
						c-4.283,4.089-8.069,5.032-8.069,5.032s8.819-0.629,13.537-3.774c0,0-0.944,9.085-16.67,14.135"/>
					<g>
						<g>
							
								<path style="fill:none;stroke:#020202;stroke-width:3;stroke-linecap:round;stroke-linejoin:round;stroke-miterlimit:10;" d="
								M129.872,210.039c2.527-2.176,5.061-4.462,7.387-6.614c6.041-5.588,10.314-12.828,12.255-20.825
								c2.608-10.746,7.607-24.686,15.224-33.515c10.728-12.435,27.795-18.53,27.795-18.53l-4.145-1.951
								c11.215-5.608,22.187-3.964,22.187-3.964l-4.145-2.375c23.894-5.852,35.841,6.339,35.841,6.339"/>
							
								<path style="fill:none;stroke:#020202;stroke-width:3;stroke-linecap:round;stroke-linejoin:round;stroke-miterlimit:10;" d="
								M129.872,210.039c11.703-0.244,11.459,9.265,7.558,12.191c-3.901,2.926-15.36-0.731-15.848-5.364
								C121.095,212.233,129.872,210.039,129.872,210.039"/>
						</g>
						<path style="fill:none;stroke:#020202;stroke-width:3;stroke-linecap:round;stroke-linejoin:round;stroke-miterlimit:10;" d="
							M129.683,222.796c0,0,3.575,17.928,34.36,22.73c0.895,1.859,2.795,4.331,6.79,5.473c6.827,1.95,21.212,2.194,32.183,0
							c10.972-2.194,30.477-4.54,41.448-3.123c10.972,1.416,21.212,4.679,21.212,4.679s1.649-6.238-0.522-11.617
							c7.65-0.422,12.957-0.423,12.957-0.423s2.438-12.678-0.975-20.968c0,0,16.303,3.73,28.464-5.234
							c0,0-13.42-11.742-22.226-46.969c-4.135-16.54-14.482-29.66-41.103-38.74"/>
						<path style="fill:none;stroke:#020202;stroke-width:3;stroke-linecap:round;stroke-linejoin:round;stroke-miterlimit:10;" d="
							M253.362,133.055c0,0,46.814-50.409,93.261-46.751c0,0,13.974,67.062-52.755,110.557"/>
						<path style="fill:none;stroke:#020202;stroke-width:3;stroke-linecap:round;stroke-linejoin:round;stroke-miterlimit:10;" d="
							M270.336,143.447c0,0,36.424-43.246,76.287-57.143"/>
						<path style="fill:none;stroke:#020202;stroke-width:3;stroke-linecap:round;stroke-linejoin:round;stroke-miterlimit:10;" d="
							M215.329,120.676c0,0-9.874-38.396-53.395-47.174c0,0-11.382,39.445,5.464,72.752"/>
						<path style="fill:none;stroke:#020202;stroke-width:3;stroke-linecap:round;stroke-linejoin:round;stroke-miterlimit:10;" d="
							M196.54,125.631c0,0-8.64-37.5-34.606-52.129"/>
						<path style="fill:none;stroke:#020202;stroke-width:3;stroke-linecap:round;stroke-linejoin:round;stroke-miterlimit:10;" d="
							M139.814,216.463c74.308,5.037,68.661-14.956,91.199-22.658c14.911-5.095,31.982,1.605,46.123,25.742"/>
						<path style="fill:#020202;" d="M155.556,178.302c-1.214,4.753,0.658,9.335,4.181,10.234c3.523,0.899,7.362-2.225,8.576-6.977
							c1.214-4.753-0.658-9.335-4.181-10.234C160.609,170.426,156.769,173.549,155.556,178.302z"/>
						<path style="fill:#020202;" d="M208.951,178.302c-1.214,4.753,0.658,9.335,4.181,10.234c3.523,0.899,7.362-2.225,8.576-6.977
							c1.214-4.753-0.658-9.335-4.181-10.234C214.004,170.426,210.164,173.549,208.951,178.302z"/>
						<path style="fill:#FFFFFF;" d="M164.365,177.177c0,1.71-1.386,3.095-3.095,3.095c-1.71,0-3.095-1.386-3.095-3.095
							s1.386-3.095,3.095-3.095C162.979,174.081,164.365,175.467,164.365,177.177z"/>
						<path style="fill:#FFFFFF;" d="M216.99,177.177c0,1.71-1.386,3.095-3.095,3.095c-1.71,0-3.095-1.386-3.095-3.095
							s1.386-3.095,3.095-3.095C215.604,174.081,216.99,175.467,216.99,177.177z"/>
						<path style="fill:none;stroke:#020202;stroke-width:3;stroke-linecap:round;stroke-linejoin:round;stroke-miterlimit:10;" d="
							M164.043,245.527c0,0,22.772-0.743,34.475-6.961"/>
					</g>
				</g>
				<path style="fill:none;stroke:#020202;stroke-width:3;stroke-linecap:round;stroke-linejoin:round;stroke-miterlimit:10;" d="
					M269.333,324.311c0,0-1.833,12.333-10.333,16.5c0,0-0.333-2.167-1.5-7"/>
				<path style="fill:none;stroke:#020202;stroke-width:3;stroke-linecap:round;stroke-linejoin:round;stroke-miterlimit:10;" d="
					M199.833,334.519c0,0,3.667,9.598,8.167,12.361c0,0,2.169-4.07,2.168-6.737"/>
				<path style="fill:none;stroke:#020202;stroke-width:3;stroke-linecap:round;stroke-linejoin:round;stroke-miterlimit:10;" d="
					M354.874,331.19c-0.085-0.494,0.017-0.999,0.119-1.49c0.403-1.945,0.807-3.891,1.21-5.836c1.478,2.202,2.981,4.459,3.646,7.027
					c0.418,1.614,0.489,3.296,0.558,4.962c0.131,3.16,0.238,6.45-1.038,9.343"/>
				<path style="fill:none;stroke:#020202;stroke-width:3;stroke-linecap:round;stroke-linejoin:round;stroke-miterlimit:10;" d="
					M345.518,373.417c3.171-3.207,5.749-7,7.563-11.129c4.179,13.089,0.592,28.348-8.98,38.205"/>
			</g>
		</g>
		
			<line style="fill:none;stroke:#020202;stroke-width:3;stroke-linecap:round;stroke-linejoin:round;stroke-miterlimit:10;" x1="166.091" y1="458.785" x2="325" y2="458.785"/>
		
			<line style="fill:none;stroke:#020202;stroke-width:3;stroke-linecap:round;stroke-linejoin:round;stroke-miterlimit:10;" x1="133" y1="458.785" x2="148.25" y2="458.785"/>
		
			<line style="fill:none;stroke:#020202;stroke-width:3;stroke-linecap:round;stroke-linejoin:round;stroke-miterlimit:10;" x1="331.601" y1="442.381" x2="340.75" y2="442.381"/>
		
			<line style="fill:none;stroke:#020202;stroke-width:3;stroke-linecap:round;stroke-linejoin:round;stroke-miterlimit:10;" x1="297.151" y1="442.381" x2="312.5" y2="442.381"/>
		
			<line style="fill:none;stroke:#020202;stroke-width:3;stroke-linecap:round;stroke-linejoin:round;stroke-miterlimit:10;" x1="116" y1="442.381" x2="153.525" y2="442.381"/>
		<g>
			<path style="fill:none;stroke:#020202;stroke-width:3;stroke-linecap:round;stroke-linejoin:round;stroke-miterlimit:10;" d="
				M78.976,296.107c5.536-6.109,9.33,1.561,9.33,1.561s1.736-14.697,6.598-16.072c4.862-1.374,7.447,4.892,7.447,4.892
				s4.137-14.643,11.279-12.997c7.142,1.646,2.275,12.764-1.924,18.229c0,0,9.214-5.217,10.242,0.636
				c1.028,5.853-14.785,16.48-14.785,16.48s10.065-4.658,11.445,1.122c1.381,5.78-17.82,21.796-30.564,16.623
				C78.713,322.794,73.439,302.217,78.976,296.107z"/>
			<path style="fill:none;stroke:#020202;stroke-width:3;stroke-linecap:round;stroke-linejoin:round;stroke-miterlimit:10;" d="
				M114.742,273.87c0,0-19.492,43.131-33.824,58.691"/>
			
				<polyline style="fill:none;stroke:#020202;stroke-width:3;stroke-linecap:round;stroke-linejoin:round;stroke-miterlimit:10;" points="
				94.904,281.596 97.342,308.176 121.947,292.356 			"/>
			
				<polyline style="fill:none;stroke:#020202;stroke-width:3;stroke-linecap:round;stroke-linejoin:round;stroke-miterlimit:10;" points="
				80.897,294.465 90.953,318.899 118.656,310.818 			"/>
		</g>
		<g>
			<path style="fill:none;stroke:#020202;stroke-width:3;stroke-linecap:round;stroke-linejoin:round;stroke-miterlimit:10;" d="
				M65.193,228.19c-2.985,3.378-5.112-0.789-5.112-0.789s1.186,7.727-3.497,8.832c-2.689,0.635-3.626-2.323-3.626-2.323
				s-0.984,8.716-6.556,6.883c-6.558-2.158-2.996-7.305-0.738-10.322c0,0-3.338,1.601-4.49-1.437
				c-1.65-4.354,5.086-6.615,5.086-6.615s-2.994-0.03-2.76-3.177c0.241-3.24,9.523-10.392,16.526-7.651
				C65.154,213.598,68.178,224.812,65.193,228.19z"/>
			<path style="fill:none;stroke:#020202;stroke-width:3;stroke-linecap:round;stroke-linejoin:round;stroke-miterlimit:10;" d="
				M45.791,240.594c0,0,10.361-23.715,18.09-32.321"/>
		</g>
		<g>
			<path style="fill:none;stroke:#020202;stroke-width:3;stroke-linecap:round;stroke-linejoin:round;stroke-miterlimit:10;" d="
				M431.264,268.135c-4.215-1.598-1.069-5.061-1.069-5.061s-6.809,3.84-9.498-0.15c-1.544-2.291,0.891-4.213,0.891-4.213
				s-8.501,2.16-8.756-3.7c-0.299-6.898,5.775-5.385,9.395-4.338c0,0-2.678-2.557-0.242-4.708c3.49-3.082,7.986,2.42,7.986,2.42
				s-1.03-2.811,1.996-3.705c3.116-0.92,13.087,5.236,12.998,12.755C444.9,262.941,435.479,269.733,431.264,268.135z"/>
			<path style="fill:none;stroke:#020202;stroke-width:3;stroke-linecap:round;stroke-linejoin:round;stroke-miterlimit:10;" d="
				M412.803,254.369c0,0,25.847,1.311,36.628,5.5"/>
		</g>
		<g>
			<path style="fill:none;stroke:#020202;stroke-width:3;stroke-linecap:round;stroke-linejoin:round;stroke-miterlimit:10;" d="
				M253.508,64.761c-4.215-1.598-1.068-5.061-1.068-5.061s-6.809,3.84-9.498-0.15c-1.544-2.291,0.891-4.213,0.891-4.213
				s-8.501,2.16-8.756-3.7c-0.299-6.898,5.775-5.385,9.395-4.338c0,0-2.678-2.557-0.242-4.708c3.49-3.082,7.986,2.42,7.986,2.42
				s-1.031-2.811,1.996-3.705c3.116-0.92,13.087,5.236,12.998,12.755C267.145,59.568,257.724,66.36,253.508,64.761z"/>
			<path style="fill:none;stroke:#020202;stroke-width:3;stroke-linecap:round;stroke-linejoin:round;stroke-miterlimit:10;" d="
				M235.048,50.995c0,0,25.847,1.311,36.628,5.5"/>
		</g>
		<g>
			<path style="fill:none;stroke:#020202;stroke-width:3;stroke-linecap:round;stroke-linejoin:round;stroke-miterlimit:10;" d="
				M431.794,50.085c4.25-1.502,4.084,3.174,4.084,3.174s2.719-7.329,7.349-6.02c2.659,0.752,2.04,3.792,2.04,3.792
				s5.096-7.139,9.075-2.829c4.683,5.073-0.931,7.841-4.371,9.38c0,0,3.696,0.223,3.225,3.438c-0.674,4.607-7.66,3.31-7.66,3.31
				s2.602,1.481,0.868,4.118c-1.785,2.715-13.373,4.455-18.161-1.344C424.737,62.857,427.543,51.586,431.794,50.085z"/>
			<path style="fill:none;stroke:#020202;stroke-width:3;stroke-linecap:round;stroke-linejoin:round;stroke-miterlimit:10;" d="
				M454.779,48.673c0,0-20.58,15.692-31.517,19.456"/>
		</g>
		<g>
			<path style="fill:none;stroke:#020202;stroke-width:3;stroke-linecap:round;stroke-linejoin:round;stroke-miterlimit:10;" d="
				M78.537,383.439c4.468,0.602,2.187,4.687,2.187,4.687s5.762-5.282,9.285-2.005c2.023,1.882,0.086,4.306,0.086,4.306
				s7.791-4.029,9.366,1.621c1.854,6.651-4.405,6.553-8.168,6.354c0,0,3.188,1.884,1.302,4.531
				c-2.701,3.792-8.327-0.548-8.327-0.548s1.64,2.505-1.105,4.061c-2.827,1.602-13.933-2.135-15.549-9.479
				C66.431,391.587,74.069,382.837,78.537,383.439z"/>
			<path style="fill:none;stroke:#020202;stroke-width:3;stroke-linecap:round;stroke-linejoin:round;stroke-miterlimit:10;" d="
				M99.635,392.666c0,0-25.472,4.578-36.922,2.94"/>
		</g>
		<g>
			<path style="fill:none;stroke:#020202;stroke-width:3;stroke-linecap:round;stroke-linejoin:round;stroke-miterlimit:10;" d="
				M79.963,84.043c-6.503,5.068-8.923-3.14-8.923-3.14s-4.235,14.181-9.261,14.699s-6.496-6.098-6.496-6.098
				s-6.591,13.715-13.344,10.866c-6.753-2.848-0.049-12.965,5.027-17.627c0,0-9.973,3.556-9.98-2.386
				c-0.007-5.943,17.397-13.695,17.397-13.695S43.667,69.521,43.3,63.59c-0.367-5.931,21.3-18.411,32.965-11.125
				C84.807,57.799,86.466,78.976,79.963,84.043z"/>
			<path style="fill:none;stroke:#020202;stroke-width:3;stroke-linecap:round;stroke-linejoin:round;stroke-miterlimit:10;" d="
				M40.909,99.806c0,0,26.611-39.142,43.403-52.008"/>
			
				<polyline style="fill:none;stroke:#020202;stroke-width:3;stroke-linecap:round;stroke-linejoin:round;stroke-miterlimit:10;" points="
				61.779,95.603 63.943,68.999 36.986,80.357 			"/>
			
				<polyline style="fill:none;stroke:#020202;stroke-width:3;stroke-linecap:round;stroke-linejoin:round;stroke-miterlimit:10;" points="
				77.788,85.331 72.079,59.533 43.399,62.735 			"/>
		</g>
		<g>
			<path style="fill:none;stroke:#020202;stroke-width:3;stroke-linecap:round;stroke-linejoin:round;stroke-miterlimit:10;" d="
				M391.028,163.259c-0.795-8.206,7.432-5.853,7.432-5.853s-9.705-11.173-7.45-15.695c2.255-4.522,8.629-2.218,8.629-2.218
				s-8.049-12.913-2.026-17.089c6.023-4.176,10.974,6.904,12.191,13.688c0,0,2.34-10.326,7.362-7.148
				c5.022,3.177,2.244,22.027,2.244,22.027s3.326-10.579,8.531-7.712c5.205,2.868,4.135,27.849-8.267,33.796
				C410.593,181.409,391.822,171.465,391.028,163.259z"/>
			<path style="fill:none;stroke:#020202;stroke-width:3;stroke-linecap:round;stroke-linejoin:round;stroke-miterlimit:10;" d="
				M398.641,121.837c0,0,18.794,43.44,20.661,64.512"/>
			
				<polyline style="fill:none;stroke:#020202;stroke-width:3;stroke-linecap:round;stroke-linejoin:round;stroke-miterlimit:10;" points="
				391.009,141.712 412.313,157.791 417.165,128.944 			"/>
			
				<polyline style="fill:none;stroke:#020202;stroke-width:3;stroke-linecap:round;stroke-linejoin:round;stroke-miterlimit:10;" points="
				391.106,160.732 415.948,169.733 428.609,143.801 			"/>
		</g>
		<g>
			<path style="fill:none;stroke:#020202;stroke-width:3;stroke-linecap:round;stroke-linejoin:round;stroke-miterlimit:10;" d="
				M421.857,374.047c7.137,4.127,0.437,9.45,0.437,9.45s14.734-1.395,17.1,3.07c2.367,4.464-3.216,8.309-3.216,8.309
				s15.186,0.964,15.079,8.292c-0.107,7.329-11.999,4.909-18.225,1.954c0,0,7.038,7.91,1.532,10.146
				c-5.506,2.236-19.222-10.988-19.222-10.988s6.671,8.86,1.31,11.425c-5.36,2.566-25.057-12.836-22.681-26.383
				C395.713,379.404,414.72,369.92,421.857,374.047z"/>
			<path style="fill:none;stroke:#020202;stroke-width:3;stroke-linecap:round;stroke-linejoin:round;stroke-miterlimit:10;" d="
				M451.121,404.335c0,0-46.267-9.982-64.493-20.721"/>
			
				<polyline style="fill:none;stroke:#020202;stroke-width:3;stroke-linecap:round;stroke-linejoin:round;stroke-miterlimit:10;" points="
				439.394,386.566 413.922,394.542 434.564,415.268 			"/>
			
				<polyline style="fill:none;stroke:#020202;stroke-width:3;stroke-linecap:round;stroke-linejoin:round;stroke-miterlimit:10;" points="
				423.867,375.581 402.095,390.551 415.824,415.934 			"/>
		</g>
	</g>
</g>
</svg>
